<?xml version="1.0" encoding="UTF-8"?>
<!--Generator: Apple Native CoreSVG 326-->
<!DOCTYPE svg
PUBLIC "-//W3C//DTD SVG 1.1//EN"
       "http://www.w3.org/Graphics/SVG/1.1/DTD/svg11.dtd">
<svg version="1.1" xmlns="http://www.w3.org/2000/svg" xmlns:xlink="http://www.w3.org/1999/xlink" viewBox="0 0 28.2461 27.9043">
 <g>
  <rect height="27.9043" opacity="0" width="28.2461" x="0" y="0"/>
  <path d="M13.9453 27.8906C21.6426 27.8906 27.8906 21.6289 27.8906 13.9453C27.8906 6.24805 21.6426 0 13.9453 0C6.26172 0 0 6.24805 0 13.9453C0 21.6289 6.26172 27.8906 13.9453 27.8906Z" fill="black" fill-opacity="0.85"/>
  <path d="M13.9453 20.6582C10.9648 20.6582 8.96875 17.9648 8.96875 13.9453C8.96875 9.92578 10.9648 7.23242 13.9453 7.23242C16.9395 7.23242 18.9355 9.92578 18.9355 13.9453C18.9355 17.9648 16.9395 20.6582 13.9453 20.6582ZM13.9453 18.8398C15.627 18.8398 16.7617 16.8848 16.7617 13.9453C16.7617 11.0059 15.627 9.05078 13.9453 9.05078C12.2637 9.05078 11.1289 11.0059 11.1289 13.9453C11.1289 16.8848 12.2637 18.8398 13.9453 18.8398Z" fill="white"/>
 </g>
</svg>
