<?xml version="1.0" encoding="UTF-8"?>
<!--Generator: Apple Native CoreSVG 326-->
<!DOCTYPE svg
PUBLIC "-//W3C//DTD SVG 1.1//EN"
       "http://www.w3.org/Graphics/SVG/1.1/DTD/svg11.dtd">
<svg version="1.1" xmlns="http://www.w3.org/2000/svg" xmlns:xlink="http://www.w3.org/1999/xlink" viewBox="0 0 28.2461 27.9043">
 <g>
  <rect height="27.9043" opacity="0" width="28.2461" x="0" y="0"/>
  <path d="M13.9453 27.8906C21.6426 27.8906 27.8906 21.6289 27.8906 13.9453C27.8906 6.24805 21.6426 0 13.9453 0C6.26172 0 0 6.24805 0 13.9453C0 21.6289 6.26172 27.8906 13.9453 27.8906Z" fill="black" fill-opacity="0.85"/>
  <path d="M9.47461 19.9336C6.6582 19.9336 5.81055 16.7891 5.81055 13.9453C5.81055 11.1016 6.6582 7.95703 9.47461 7.95703C12.2773 7.95703 13.125 11.1016 13.125 13.9453C13.125 16.7891 12.2773 19.9336 9.47461 19.9336ZM9.47461 18.252C10.623 18.252 11.0605 16.3926 11.0605 13.9453C11.0605 11.4844 10.623 9.63867 9.47461 9.63867C8.32617 9.63867 7.88867 11.4844 7.88867 13.9453C7.88867 16.3926 8.32617 18.252 9.47461 18.252ZM18.416 19.9336C15.6133 19.9336 14.7656 16.7891 14.7656 13.9453C14.7656 11.1016 15.6133 7.95703 18.416 7.95703C21.2324 7.95703 22.0801 11.1016 22.0801 13.9453C22.0801 16.7891 21.2324 19.9336 18.416 19.9336ZM18.416 18.252C19.5645 18.252 20.002 16.3926 20.002 13.9453C20.002 11.4844 19.5645 9.63867 18.416 9.63867C17.2676 9.63867 16.8301 11.4844 16.8301 13.9453C16.8301 16.3926 17.2676 18.252 18.416 18.252Z" fill="white"/>
 </g>
</svg>
