<?xml version="1.0" encoding="UTF-8"?>
<!--Generator: Apple Native CoreSVG 326-->
<!DOCTYPE svg
PUBLIC "-//W3C//DTD SVG 1.1//EN"
       "http://www.w3.org/Graphics/SVG/1.1/DTD/svg11.dtd">
<svg version="1.1" xmlns="http://www.w3.org/2000/svg" xmlns:xlink="http://www.w3.org/1999/xlink" viewBox="0 0 25.5254 25.1699">
 <g>
  <rect height="25.1699" opacity="0" width="25.5254" x="0" y="0"/>
  <path d="M4.29297 25.1699L20.877 25.1699C23.748 25.1699 25.1699 23.7617 25.1699 20.9453L25.1699 4.23828C25.1699 1.42188 23.748 0 20.877 0L4.29297 0C1.43555 0 0 1.42188 0 4.23828L0 20.9453C0 23.7617 1.43555 25.1699 4.29297 25.1699Z" fill="black" fill-opacity="0.85"/>
  <path d="M9.13281 18.5664C6.33008 18.5664 5.48242 15.4219 5.48242 12.5781C5.48242 9.73438 6.33008 6.58984 9.13281 6.58984C11.9492 6.58984 12.7969 9.73438 12.7969 12.5781C12.7969 15.4219 11.9492 18.5664 9.13281 18.5664ZM9.13281 16.8848C10.2812 16.8848 10.7188 15.0254 10.7188 12.5781C10.7188 10.1172 10.2812 8.27148 9.13281 8.27148C7.98438 8.27148 7.54688 10.1172 7.54688 12.5781C7.54688 15.0254 7.98438 16.8848 9.13281 16.8848ZM17.623 18.4297C17.0352 18.4297 16.5703 17.9648 16.5703 17.3906L16.5703 8.8457L15.2715 9.88477C15.1348 9.99414 14.998 10.0625 14.7793 10.0625C14.3418 10.0625 14.041 9.74805 14.041 9.31055C14.041 8.94141 14.2461 8.66797 14.4922 8.47656L16.0508 7.27344C16.3652 7.02734 16.8574 6.69922 17.4453 6.69922C18.1836 6.69922 18.6348 7.12305 18.6348 7.84766L18.6348 17.3906C18.6348 17.9648 18.1699 18.4297 17.623 18.4297Z" fill="white"/>
 </g>
</svg>
