<?xml version="1.0" encoding="UTF-8"?>
<!--Generator: Apple Native CoreSVG 326-->
<!DOCTYPE svg
PUBLIC "-//W3C//DTD SVG 1.1//EN"
       "http://www.w3.org/Graphics/SVG/1.1/DTD/svg11.dtd">
<svg version="1.1" xmlns="http://www.w3.org/2000/svg" xmlns:xlink="http://www.w3.org/1999/xlink" viewBox="0 0 28.2461 27.9043">
 <g>
  <rect height="27.9043" opacity="0" width="28.2461" x="0" y="0"/>
  <path d="M13.9453 27.8906C21.6426 27.8906 27.8906 21.6426 27.8906 13.9453C27.8906 6.24805 21.6426 0 13.9453 0C6.24805 0 0 6.24805 0 13.9453C0 21.6426 6.24805 27.8906 13.9453 27.8906ZM13.9453 25.5664C7.51953 25.5664 2.32422 20.3711 2.32422 13.9453C2.32422 7.51953 7.51953 2.32422 13.9453 2.32422C20.3711 2.32422 25.5664 7.51953 25.5664 13.9453C25.5664 20.3711 20.3711 25.5664 13.9453 25.5664Z" fill="black" fill-opacity="0.85"/>
  <path d="M9.77539 19.7559C12.5098 19.7559 13.3164 16.6934 13.3164 13.9453C13.3164 11.1973 12.5098 8.13477 9.77539 8.13477C7.05469 8.13477 6.24805 11.1973 6.24805 13.9453C6.24805 16.6934 7.05469 19.7559 9.77539 19.7559ZM9.77539 18.1289C8.6543 18.1289 8.23047 16.3105 8.23047 13.9453C8.23047 11.5664 8.6543 9.74805 9.77539 9.74805C10.8965 9.74805 11.3203 11.5664 11.3203 13.9453C11.3203 16.3105 10.8965 18.1289 9.77539 18.1289ZM15.709 19.4688L20.4531 19.4688C20.9453 19.4688 21.2324 19.1543 21.2324 18.6758C21.2324 18.1562 20.9316 17.8691 20.4531 17.8691L17.2129 17.8691L17.2129 17.7598L19.209 15.2305C20.5762 13.5352 21.0273 12.5234 21.0273 11.3203C21.0273 9.47461 19.7695 8.13477 17.8828 8.13477C16.1328 8.13477 14.8066 9.58398 14.8066 11.0059C14.8066 11.5117 15.1074 11.8672 15.627 11.8672C16.0781 11.8672 16.3516 11.6621 16.502 11.2109C16.748 10.2949 17.0898 9.7207 17.8828 9.7207C18.7031 9.7207 19.168 10.4453 19.168 11.416C19.168 12.5098 18.4023 13.6172 17.6777 14.5469L15.2988 17.582C15.0527 17.9102 14.793 18.252 14.793 18.6758C14.793 19.1406 15.0938 19.4688 15.709 19.4688Z" fill="black" fill-opacity="0.85"/>
 </g>
</svg>
