<?xml version="1.0" encoding="UTF-8"?>
<!--Generator: Apple Native CoreSVG 326-->
<!DOCTYPE svg
PUBLIC "-//W3C//DTD SVG 1.1//EN"
       "http://www.w3.org/Graphics/SVG/1.1/DTD/svg11.dtd">
<svg version="1.1" xmlns="http://www.w3.org/2000/svg" xmlns:xlink="http://www.w3.org/1999/xlink" viewBox="0 0 25.5254 25.1699">
 <g>
  <rect height="25.1699" opacity="0" width="25.5254" x="0" y="0"/>
  <path d="M4.29297 25.1699L20.877 25.1699C23.748 25.1699 25.1699 23.7617 25.1699 20.9453L25.1699 4.23828C25.1699 1.42188 23.748 0 20.877 0L4.29297 0C1.43555 0 0 1.42188 0 4.23828L0 20.9453C0 23.7617 1.43555 25.1699 4.29297 25.1699ZM4.32031 22.9688C2.95312 22.9688 2.20117 22.2441 2.20117 20.8223L2.20117 4.36133C2.20117 2.93945 2.95312 2.20117 4.32031 2.20117L20.8496 2.20117C22.2031 2.20117 22.9688 2.93945 22.9688 4.36133L22.9688 20.8223C22.9688 22.2441 22.2031 22.9688 20.8496 22.9688Z" fill="black" fill-opacity="0.85"/>
  <path d="M8.43555 18.3887C11.1699 18.3887 11.9766 15.3262 11.9766 12.5781C11.9766 9.83008 11.1699 6.76758 8.43555 6.76758C5.71484 6.76758 4.9082 9.83008 4.9082 12.5781C4.9082 15.3262 5.71484 18.3887 8.43555 18.3887ZM8.43555 16.7617C7.32812 16.7617 6.9043 14.9434 6.9043 12.5781C6.9043 10.1992 7.32812 8.38086 8.43555 8.38086C9.55664 8.38086 9.98047 10.1992 9.98047 12.5781C9.98047 14.9434 9.55664 16.7617 8.43555 16.7617ZM14.3828 18.1016L19.127 18.1016C19.6055 18.1016 19.8926 17.7871 19.8926 17.3086C19.8926 16.7891 19.5918 16.502 19.127 16.502L15.873 16.502L15.873 16.3926L17.8691 13.8633C19.2363 12.168 19.6875 11.1562 19.6875 9.95312C19.6875 8.10742 18.4297 6.76758 16.543 6.76758C14.8066 6.76758 13.4668 8.2168 13.4668 9.63867C13.4668 10.1445 13.7676 10.5 14.2871 10.5C14.7383 10.5 15.0254 10.2949 15.1621 9.84375C15.4219 8.92773 15.75 8.35352 16.543 8.35352C17.3633 8.35352 17.8281 9.07812 17.8281 10.0488C17.8281 11.1426 17.0625 12.25 16.3379 13.1797L13.959 16.2148C13.7129 16.543 13.4531 16.8848 13.4531 17.3086C13.4531 17.7734 13.7539 18.1016 14.3828 18.1016Z" fill="black" fill-opacity="0.85"/>
 </g>
</svg>
