<?xml version="1.0" encoding="UTF-8"?>
<!--Generator: Apple Native CoreSVG 326-->
<!DOCTYPE svg
PUBLIC "-//W3C//DTD SVG 1.1//EN"
       "http://www.w3.org/Graphics/SVG/1.1/DTD/svg11.dtd">
<svg version="1.1" xmlns="http://www.w3.org/2000/svg" xmlns:xlink="http://www.w3.org/1999/xlink" viewBox="0 0 28.2461 27.9043">
 <g>
  <rect height="27.9043" opacity="0" width="28.2461" x="0" y="0"/>
  <path d="M13.9453 27.8906C21.6426 27.8906 27.8906 21.6426 27.8906 13.9453C27.8906 6.24805 21.6426 0 13.9453 0C6.24805 0 0 6.24805 0 13.9453C0 21.6426 6.24805 27.8906 13.9453 27.8906ZM13.9453 25.5664C7.51953 25.5664 2.32422 20.3711 2.32422 13.9453C2.32422 7.51953 7.51953 2.32422 13.9453 2.32422C20.3711 2.32422 25.5664 7.51953 25.5664 13.9453C25.5664 20.3711 20.3711 25.5664 13.9453 25.5664Z" fill="black" fill-opacity="0.85"/>
  <path d="M9.58398 19.7559C12.3047 19.7559 13.1113 16.6934 13.1113 13.9453C13.1113 11.1973 12.3047 8.13477 9.58398 8.13477C6.84961 8.13477 6.04297 11.1973 6.04297 13.9453C6.04297 16.6934 6.84961 19.7559 9.58398 19.7559ZM9.58398 18.1289C8.46289 18.1289 8.03906 16.3105 8.03906 13.9453C8.03906 11.5664 8.46289 9.74805 9.58398 9.74805C10.6914 9.74805 11.1152 11.5664 11.1152 13.9453C11.1152 16.3105 10.6914 18.1289 9.58398 18.1289ZM18.0195 19.7148C19.9746 19.7148 21.4785 18.4844 21.4785 16.4336C21.4785 14.7383 20.4668 13.9043 19.3184 13.7812L19.3184 13.7402C20.5488 13.4121 21.1641 12.3047 21.1641 11.1562C21.1641 9.26953 19.7422 8.18945 17.9648 8.18945C16.5566 8.18945 15.3262 8.98242 14.9297 10.1992C14.8613 10.459 14.834 10.7051 14.834 10.9375C14.834 11.3887 15.1348 11.7441 15.668 11.7441C16.1328 11.7441 16.4062 11.5664 16.543 11.0879C16.7617 10.2812 17.1992 9.77539 17.9648 9.77539C18.8672 9.77539 19.291 10.4727 19.291 11.375C19.291 12.373 18.7441 13.0977 17.7188 13.0977L17.3906 13.0977C16.9258 13.0977 16.6387 13.3848 16.6387 13.8359C16.6387 14.2871 16.9395 14.5469 17.3906 14.5469L17.7324 14.5469C18.8945 14.5469 19.5371 15.1895 19.5371 16.3789C19.5371 17.3223 19.0312 18.1289 18.0195 18.1289C17.0215 18.1289 16.584 17.459 16.4062 16.8301C16.2832 16.3926 15.9824 16.1602 15.5449 16.1602C15.0117 16.1602 14.6562 16.4883 14.6562 17.0215C14.6562 17.2676 14.6973 17.5137 14.7656 17.7324C15.1484 19.0039 16.543 19.7148 18.0195 19.7148Z" fill="black" fill-opacity="0.85"/>
 </g>
</svg>
