<?xml version="1.0" encoding="UTF-8"?>
<!--Generator: Apple Native CoreSVG 326-->
<!DOCTYPE svg
PUBLIC "-//W3C//DTD SVG 1.1//EN"
       "http://www.w3.org/Graphics/SVG/1.1/DTD/svg11.dtd">
<svg version="1.1" xmlns="http://www.w3.org/2000/svg" xmlns:xlink="http://www.w3.org/1999/xlink" viewBox="0 0 25.5254 25.1699">
 <g>
  <rect height="25.1699" opacity="0" width="25.5254" x="0" y="0"/>
  <path d="M4.29297 25.1699L20.877 25.1699C23.748 25.1699 25.1699 23.7617 25.1699 20.9453L25.1699 4.23828C25.1699 1.42188 23.748 0 20.877 0L4.29297 0C1.43555 0 0 1.42188 0 4.23828L0 20.9453C0 23.7617 1.43555 25.1699 4.29297 25.1699Z" fill="black" fill-opacity="0.85"/>
  <path d="M8.09375 18.5664C5.26367 18.5664 4.42969 15.4219 4.42969 12.5781C4.42969 9.73438 5.26367 6.58984 8.09375 6.58984C10.8965 6.58984 11.7305 9.73438 11.7305 12.5781C11.7305 15.4219 10.8965 18.5664 8.09375 18.5664ZM8.09375 16.8848C9.24219 16.8848 9.67969 15.0254 9.67969 12.5781C9.67969 10.1172 9.24219 8.27148 8.09375 8.27148C6.94531 8.27148 6.50781 10.1172 6.50781 12.5781C6.50781 15.0254 6.94531 16.8848 8.09375 16.8848ZM18.5527 18.457C18.1016 18.457 17.582 18.1973 17.582 17.459L17.582 16.0508L14.4238 16.0508C13.7402 16.0508 13.2617 15.5859 13.2617 14.9023C13.2617 14.4648 13.3574 14.0957 13.5762 13.5488L16.0918 8.08008C16.4883 7.20508 16.9531 6.69922 17.9648 6.69922C18.8809 6.69922 19.5234 7.24609 19.5234 8.23047L19.5234 14.4102L20.0293 14.4102C20.5898 14.4102 20.8359 14.7656 20.8359 15.2168C20.8359 15.6953 20.5762 16.0508 20.0293 16.0508L19.5234 16.0508L19.5234 17.459C19.5234 18.1289 19.0996 18.457 18.5527 18.457ZM17.623 14.4512L17.623 8.47656L17.5684 8.47656L15.0117 14.3555L15.0117 14.4512Z" fill="white"/>
 </g>
</svg>
