<?xml version="1.0" encoding="UTF-8"?>
<!--Generator: Apple Native CoreSVG 326-->
<!DOCTYPE svg
PUBLIC "-//W3C//DTD SVG 1.1//EN"
       "http://www.w3.org/Graphics/SVG/1.1/DTD/svg11.dtd">
<svg version="1.1" xmlns="http://www.w3.org/2000/svg" xmlns:xlink="http://www.w3.org/1999/xlink" viewBox="0 0 25.5254 25.1699">
 <g>
  <rect height="25.1699" opacity="0" width="25.5254" x="0" y="0"/>
  <path d="M4.29297 25.1699L20.877 25.1699C23.748 25.1699 25.1699 23.7617 25.1699 20.9453L25.1699 4.23828C25.1699 1.42188 23.748 0 20.877 0L4.29297 0C1.43555 0 0 1.42188 0 4.23828L0 20.9453C0 23.7617 1.43555 25.1699 4.29297 25.1699ZM4.32031 22.9688C2.95312 22.9688 2.20117 22.2441 2.20117 20.8223L2.20117 4.36133C2.20117 2.93945 2.95312 2.20117 4.32031 2.20117L20.8496 2.20117C22.2031 2.20117 22.9688 2.93945 22.9688 4.36133L22.9688 20.8223C22.9688 22.2441 22.2031 22.9688 20.8496 22.9688Z" fill="black" fill-opacity="0.85"/>
  <path d="M8.23047 18.3887C10.9512 18.3887 11.7578 15.3262 11.7578 12.5781C11.7578 9.83008 10.9512 6.76758 8.23047 6.76758C5.49609 6.76758 4.68945 9.83008 4.68945 12.5781C4.68945 15.3262 5.49609 18.3887 8.23047 18.3887ZM8.23047 16.7617C7.10938 16.7617 6.68555 14.9434 6.68555 12.5781C6.68555 10.1992 7.10938 8.38086 8.23047 8.38086C9.35156 8.38086 9.77539 10.1992 9.77539 12.5781C9.77539 14.9434 9.35156 16.7617 8.23047 16.7617ZM18.375 18.2793C18.8945 18.2793 19.3047 17.9648 19.3047 17.3086L19.3047 15.9414L19.7969 15.9414C20.3301 15.9414 20.5762 15.5996 20.5762 15.1348C20.5762 14.6973 20.3438 14.3555 19.7969 14.3555L19.3047 14.3555L19.3047 8.35352C19.3047 7.41016 18.6895 6.87695 17.8008 6.87695C16.8301 6.87695 16.3789 7.36914 15.9961 8.2168L13.5488 13.5215C13.3301 14.0547 13.248 14.4102 13.248 14.834C13.248 15.4902 13.6992 15.9414 14.3691 15.9414L17.4316 15.9414L17.4316 17.3086C17.4316 18.0332 17.9375 18.2793 18.375 18.2793ZM17.4727 14.3965L14.9297 14.3965L14.9297 14.3008L17.418 8.59961L17.4727 8.59961Z" fill="black" fill-opacity="0.85"/>
 </g>
</svg>
