<?xml version="1.0" encoding="UTF-8"?>
<!--Generator: Apple Native CoreSVG 326-->
<!DOCTYPE svg
PUBLIC "-//W3C//DTD SVG 1.1//EN"
       "http://www.w3.org/Graphics/SVG/1.1/DTD/svg11.dtd">
<svg version="1.1" xmlns="http://www.w3.org/2000/svg" xmlns:xlink="http://www.w3.org/1999/xlink" viewBox="0 0 28.2461 27.9043">
 <g>
  <rect height="27.9043" opacity="0" width="28.2461" x="0" y="0"/>
  <path d="M13.9453 27.8906C21.6426 27.8906 27.8906 21.6426 27.8906 13.9453C27.8906 6.24805 21.6426 0 13.9453 0C6.24805 0 0 6.24805 0 13.9453C0 21.6426 6.24805 27.8906 13.9453 27.8906ZM13.9453 25.5664C7.51953 25.5664 2.32422 20.3711 2.32422 13.9453C2.32422 7.51953 7.51953 2.32422 13.9453 2.32422C20.3711 2.32422 25.5664 7.51953 25.5664 13.9453C25.5664 20.3711 20.3711 25.5664 13.9453 25.5664Z" fill="black" fill-opacity="0.85"/>
  <path d="M9.65234 19.7559C12.373 19.7559 13.1934 16.6934 13.1934 13.9453C13.1934 11.1973 12.373 8.13477 9.65234 8.13477C6.93164 8.13477 6.11133 11.1973 6.11133 13.9453C6.11133 16.6934 6.93164 19.7559 9.65234 19.7559ZM9.65234 18.1289C8.53125 18.1289 8.10742 16.3105 8.10742 13.9453C8.10742 11.5664 8.53125 9.74805 9.65234 9.74805C10.7734 9.74805 11.1973 11.5664 11.1973 13.9453C11.1973 16.3105 10.7734 18.1289 9.65234 18.1289ZM18.1016 19.7559C20.2344 19.7559 21.3965 17.9648 21.3965 15.8047C21.3965 13.918 20.4941 12.1953 18.7305 12.1953C17.9238 12.1953 17.1855 12.5645 16.8301 13.3574L16.7754 13.3574L16.9941 10.0352L20.207 10.0352C20.6719 10.0352 20.9727 9.70703 20.9727 9.22852C20.9727 8.77734 20.6582 8.42188 20.207 8.42188L16.4473 8.42188C15.7363 8.42188 15.4082 8.88672 15.3672 9.59766L15.1348 13.3438C15.1211 13.5488 15.1211 13.7676 15.1211 13.9453C15.1211 14.4648 15.3809 14.9297 16.0098 14.9297C16.3926 14.9297 16.5977 14.7793 16.8848 14.4102C17.1992 13.959 17.541 13.6309 18.1016 13.6309C19.0996 13.6309 19.4824 14.8477 19.4824 15.8594C19.4824 16.9941 19.0859 18.1562 18.0742 18.1562C17.3086 18.1562 16.8711 17.6094 16.625 16.8574C16.4609 16.4199 16.1602 16.2148 15.791 16.2148C15.2988 16.2148 14.9707 16.5293 14.9707 17.0352C14.9707 17.3496 15.0527 17.6504 15.1758 17.9238C15.6543 19.0312 16.8574 19.7559 18.1016 19.7559Z" fill="black" fill-opacity="0.85"/>
 </g>
</svg>
