<?xml version="1.0" encoding="UTF-8"?>
<!--Generator: Apple Native CoreSVG 326-->
<!DOCTYPE svg
PUBLIC "-//W3C//DTD SVG 1.1//EN"
       "http://www.w3.org/Graphics/SVG/1.1/DTD/svg11.dtd">
<svg version="1.1" xmlns="http://www.w3.org/2000/svg" xmlns:xlink="http://www.w3.org/1999/xlink" viewBox="0 0 25.5254 25.1699">
 <g>
  <rect height="25.1699" opacity="0" width="25.5254" x="0" y="0"/>
  <path d="M4.29297 25.1699L20.877 25.1699C23.748 25.1699 25.1699 23.7617 25.1699 20.9453L25.1699 4.23828C25.1699 1.42188 23.748 0 20.877 0L4.29297 0C1.43555 0 0 1.42188 0 4.23828L0 20.9453C0 23.7617 1.43555 25.1699 4.29297 25.1699ZM4.32031 22.9688C2.95312 22.9688 2.20117 22.2441 2.20117 20.8223L2.20117 4.36133C2.20117 2.93945 2.95312 2.20117 4.32031 2.20117L20.8496 2.20117C22.2031 2.20117 22.9688 2.93945 22.9688 4.36133L22.9688 20.8223C22.9688 22.2441 22.2031 22.9688 20.8496 22.9688Z" fill="black" fill-opacity="0.85"/>
  <path d="M8.3125 18.3887C11.0332 18.3887 11.8535 15.3262 11.8535 12.5781C11.8535 9.83008 11.0332 6.76758 8.3125 6.76758C5.5918 6.76758 4.77148 9.83008 4.77148 12.5781C4.77148 15.3262 5.5918 18.3887 8.3125 18.3887ZM8.3125 16.7617C7.19141 16.7617 6.76758 14.9434 6.76758 12.5781C6.76758 10.1992 7.19141 8.38086 8.3125 8.38086C9.43359 8.38086 9.85742 10.1992 9.85742 12.5781C9.85742 14.9434 9.43359 16.7617 8.3125 16.7617ZM16.7617 18.3887C18.8945 18.3887 20.0566 16.5977 20.0566 14.4375C20.0566 12.5508 19.1543 10.8281 17.3906 10.8281C16.5977 10.8281 15.8457 11.1973 15.4902 11.9902L15.4355 11.9902L15.6543 8.66797L18.8672 8.66797C19.3457 8.66797 19.6328 8.33984 19.6328 7.86133C19.6328 7.41016 19.3184 7.05469 18.8672 7.05469L15.1074 7.05469C14.3965 7.05469 14.0684 7.51953 14.0273 8.23047L13.8086 11.9766C13.7812 12.1816 13.7812 12.4004 13.7812 12.5781C13.7812 13.0977 14.041 13.5625 14.6836 13.5625C15.0527 13.5625 15.2578 13.4121 15.5449 13.043C15.8594 12.5918 16.2012 12.2637 16.7617 12.2637C17.7598 12.2637 18.1562 13.4805 18.1562 14.4922C18.1562 15.627 17.7461 16.7891 16.7344 16.7891C15.9688 16.7891 15.5312 16.2422 15.2852 15.4902C15.1211 15.0527 14.8203 14.8477 14.4512 14.8477C13.959 14.8477 13.6309 15.1621 13.6309 15.668C13.6309 15.9824 13.7129 16.2832 13.8359 16.5566C14.3145 17.6641 15.5176 18.3887 16.7617 18.3887Z" fill="black" fill-opacity="0.85"/>
 </g>
</svg>
