<?xml version="1.0" encoding="UTF-8"?>
<!--Generator: Apple Native CoreSVG 326-->
<!DOCTYPE svg
PUBLIC "-//W3C//DTD SVG 1.1//EN"
       "http://www.w3.org/Graphics/SVG/1.1/DTD/svg11.dtd">
<svg version="1.1" xmlns="http://www.w3.org/2000/svg" xmlns:xlink="http://www.w3.org/1999/xlink" viewBox="0 0 25.5254 25.1699">
 <g>
  <rect height="25.1699" opacity="0" width="25.5254" x="0" y="0"/>
  <path d="M4.29297 25.1699L20.877 25.1699C23.748 25.1699 25.1699 23.7617 25.1699 20.9453L25.1699 4.23828C25.1699 1.42188 23.748 0 20.877 0L4.29297 0C1.43555 0 0 1.42188 0 4.23828L0 20.9453C0 23.7617 1.43555 25.1699 4.29297 25.1699ZM4.32031 22.9688C2.95312 22.9688 2.20117 22.2441 2.20117 20.8223L2.20117 4.36133C2.20117 2.93945 2.95312 2.20117 4.32031 2.20117L20.8496 2.20117C22.2031 2.20117 22.9688 2.93945 22.9688 4.36133L22.9688 20.8223C22.9688 22.2441 22.2031 22.9688 20.8496 22.9688Z" fill="black" fill-opacity="0.85"/>
  <path d="M8.09375 18.3887C10.8145 18.3887 11.6348 15.3262 11.6348 12.5781C11.6348 9.83008 10.8145 6.76758 8.09375 6.76758C5.37305 6.76758 4.55273 9.83008 4.55273 12.5781C4.55273 15.3262 5.37305 18.3887 8.09375 18.3887ZM8.09375 16.7617C6.97266 16.7617 6.54883 14.9434 6.54883 12.5781C6.54883 10.1992 6.97266 8.38086 8.09375 8.38086C9.21484 8.38086 9.63867 10.1992 9.63867 12.5781C9.63867 14.9434 9.21484 16.7617 8.09375 16.7617ZM16.8301 18.3887C18.9082 18.3887 20.1113 16.6387 20.1113 14.4922C20.1113 12.6465 19.2227 10.8965 17.4043 10.8965C16.2969 10.8965 15.4629 11.6348 15.1484 12.8105L15.0938 12.8105C15.0938 12.7559 15.0938 12.7012 15.0938 12.6602C15.0938 11.1426 15.2852 8.39453 16.8027 8.39453C17.418 8.39453 17.8418 8.83203 18.0742 9.40625C18.2656 9.83008 18.5254 10.0215 18.9629 10.0215C19.5234 10.0215 19.7559 9.65234 19.7559 9.20117C19.7559 9.05078 19.7285 8.88672 19.6875 8.70898C19.4004 7.5332 18.2109 6.79492 16.8438 6.79492C14.041 6.79492 13.2207 9.93945 13.2207 12.7148C13.2207 15.2988 14.0547 18.3887 16.8301 18.3887ZM16.8027 16.7891C15.7637 16.7891 15.3535 15.5039 15.3535 14.5195C15.3535 13.5215 15.8047 12.3867 16.7891 12.3867C17.8008 12.3867 18.2246 13.5625 18.1973 14.5742C18.1973 15.5723 17.7461 16.7891 16.8027 16.7891Z" fill="black" fill-opacity="0.85"/>
 </g>
</svg>
