<?xml version="1.0" encoding="UTF-8"?>
<!--Generator: Apple Native CoreSVG 326-->
<!DOCTYPE svg
PUBLIC "-//W3C//DTD SVG 1.1//EN"
       "http://www.w3.org/Graphics/SVG/1.1/DTD/svg11.dtd">
<svg version="1.1" xmlns="http://www.w3.org/2000/svg" xmlns:xlink="http://www.w3.org/1999/xlink" viewBox="0 0 28.2461 27.9043">
 <g>
  <rect height="27.9043" opacity="0" width="28.2461" x="0" y="0"/>
  <path d="M13.9453 27.8906C21.6426 27.8906 27.8906 21.6426 27.8906 13.9453C27.8906 6.24805 21.6426 0 13.9453 0C6.24805 0 0 6.24805 0 13.9453C0 21.6426 6.24805 27.8906 13.9453 27.8906ZM13.9453 25.5664C7.51953 25.5664 2.32422 20.3711 2.32422 13.9453C2.32422 7.51953 7.51953 2.32422 13.9453 2.32422C20.3711 2.32422 25.5664 7.51953 25.5664 13.9453C25.5664 20.3711 20.3711 25.5664 13.9453 25.5664Z" fill="black" fill-opacity="0.85"/>
  <path d="M10.1309 19.7559C12.8516 19.7559 13.6719 16.6934 13.6719 13.9453C13.6719 11.1973 12.8516 8.13477 10.1309 8.13477C7.39648 8.13477 6.58984 11.1973 6.58984 13.9453C6.58984 16.6934 7.39648 19.7559 10.1309 19.7559ZM10.1309 18.1289C9.00977 18.1289 8.58594 16.3105 8.58594 13.9453C8.58594 11.5664 9.00977 9.74805 10.1309 9.74805C11.252 9.74805 11.6758 11.5664 11.6758 13.9453C11.6758 16.3105 11.252 18.1289 10.1309 18.1289ZM16.7891 19.6602C17.2812 19.6602 17.5137 19.4551 17.6914 18.9629L20.8223 10.623C20.9727 10.1992 21.0684 9.87109 21.0684 9.47461C21.0684 8.8457 20.5898 8.42188 19.9883 8.42188L15.5586 8.42188C15.0938 8.42188 14.7793 8.76367 14.7793 9.22852C14.7793 9.69336 15.0938 10.0352 15.5586 10.0352L19.0723 10.0352L19.0723 10.1582L16.0508 18.0059C15.9277 18.3066 15.8867 18.4844 15.8867 18.8125C15.8867 19.209 16.1328 19.6602 16.7891 19.6602Z" fill="black" fill-opacity="0.85"/>
 </g>
</svg>
