<?xml version="1.0" encoding="UTF-8"?>
<!--Generator: Apple Native CoreSVG 326-->
<!DOCTYPE svg
PUBLIC "-//W3C//DTD SVG 1.1//EN"
       "http://www.w3.org/Graphics/SVG/1.1/DTD/svg11.dtd">
<svg version="1.1" xmlns="http://www.w3.org/2000/svg" xmlns:xlink="http://www.w3.org/1999/xlink" viewBox="0 0 25.5254 25.1699">
 <g>
  <rect height="25.1699" opacity="0" width="25.5254" x="0" y="0"/>
  <path d="M4.29297 25.1699L20.877 25.1699C23.748 25.1699 25.1699 23.7617 25.1699 20.9453L25.1699 4.23828C25.1699 1.42188 23.748 0 20.877 0L4.29297 0C1.43555 0 0 1.42188 0 4.23828L0 20.9453C0 23.7617 1.43555 25.1699 4.29297 25.1699Z" fill="black" fill-opacity="0.85"/>
  <path d="M8.66797 18.5664C5.86523 18.5664 5.01758 15.4219 5.01758 12.5781C5.01758 9.73438 5.86523 6.58984 8.66797 6.58984C11.4844 6.58984 12.332 9.73438 12.332 12.5781C12.332 15.4219 11.4844 18.5664 8.66797 18.5664ZM8.66797 16.8848C9.81641 16.8848 10.2539 15.0254 10.2539 12.5781C10.2539 10.1172 9.81641 8.27148 8.66797 8.27148C7.51953 8.27148 7.08203 10.1172 7.08203 12.5781C7.08203 15.0254 7.51953 16.8848 8.66797 16.8848ZM15.5449 18.4707C14.8613 18.4707 14.6152 18.0059 14.6152 17.5957C14.6152 17.2539 14.6562 17.0762 14.7793 16.7617L17.9102 8.68164L17.9102 8.55859L14.2871 8.55859C13.7949 8.55859 13.4668 8.20312 13.4668 7.71094C13.4668 7.23242 13.7949 6.87695 14.2871 6.87695L18.8398 6.87695C19.4688 6.87695 19.9609 7.31445 19.9609 7.9707C19.9609 8.38086 19.8652 8.72266 19.7012 9.16016L16.4883 17.7461C16.2969 18.2656 16.0645 18.4707 15.5449 18.4707Z" fill="white"/>
 </g>
</svg>
