<?xml version="1.0" encoding="UTF-8"?>
<!--Generator: Apple Native CoreSVG 326-->
<!DOCTYPE svg
PUBLIC "-//W3C//DTD SVG 1.1//EN"
       "http://www.w3.org/Graphics/SVG/1.1/DTD/svg11.dtd">
<svg version="1.1" xmlns="http://www.w3.org/2000/svg" xmlns:xlink="http://www.w3.org/1999/xlink" viewBox="0 0 28.2461 27.9043">
 <g>
  <rect height="27.9043" opacity="0" width="28.2461" x="0" y="0"/>
  <path d="M13.9453 27.8906C21.6426 27.8906 27.8906 21.6426 27.8906 13.9453C27.8906 6.24805 21.6426 0 13.9453 0C6.24805 0 0 6.24805 0 13.9453C0 21.6426 6.24805 27.8906 13.9453 27.8906ZM13.9453 25.5664C7.51953 25.5664 2.32422 20.3711 2.32422 13.9453C2.32422 7.51953 7.51953 2.32422 13.9453 2.32422C20.3711 2.32422 25.5664 7.51953 25.5664 13.9453C25.5664 20.3711 20.3711 25.5664 13.9453 25.5664Z" fill="black" fill-opacity="0.85"/>
  <path d="M9.59766 19.7559C12.3184 19.7559 13.1387 16.6934 13.1387 13.9453C13.1387 11.1973 12.3184 8.13477 9.59766 8.13477C6.87695 8.13477 6.05664 11.1973 6.05664 13.9453C6.05664 16.6934 6.87695 19.7559 9.59766 19.7559ZM9.59766 18.1289C8.47656 18.1289 8.05273 16.3105 8.05273 13.9453C8.05273 11.5664 8.47656 9.74805 9.59766 9.74805C10.7188 9.74805 11.1426 11.5664 11.1426 13.9453C11.1426 16.3105 10.7188 18.1289 9.59766 18.1289ZM18.2383 19.7148C20.4121 19.7148 21.793 18.3613 21.793 16.4883C21.793 14.998 20.8496 13.918 19.7559 13.6719L19.7559 13.6309C20.6719 13.3438 21.4922 12.4551 21.4922 11.1562C21.4922 9.39258 20.1797 8.18945 18.2383 8.18945C16.5566 8.18945 15.0254 9.22852 15.0254 11.1426C15.0254 12.5371 15.8867 13.3574 16.7754 13.6309L16.7754 13.6719C15.5996 13.9316 14.7109 15.0117 14.7109 16.4883C14.7109 18.5117 16.2422 19.7148 18.2383 19.7148ZM18.252 13.002C17.377 13.002 16.9258 12.1543 16.9258 11.3477C16.9258 10.4727 17.4043 9.65234 18.252 9.65234C19.1406 9.65234 19.5645 10.4727 19.5645 11.3477C19.5645 12.25 19.1133 13.002 18.252 13.002ZM18.252 18.2383C17.2539 18.2383 16.7617 17.3496 16.7617 16.3379C16.7617 15.3535 17.2539 14.4785 18.252 14.4785C19.2227 14.4785 19.7422 15.2988 19.7422 16.3379C19.7422 17.3496 19.25 18.2383 18.252 18.2383Z" fill="black" fill-opacity="0.85"/>
 </g>
</svg>
