<?xml version="1.0" encoding="UTF-8"?>
<!--Generator: Apple Native CoreSVG 326-->
<!DOCTYPE svg
PUBLIC "-//W3C//DTD SVG 1.1//EN"
       "http://www.w3.org/Graphics/SVG/1.1/DTD/svg11.dtd">
<svg version="1.1" xmlns="http://www.w3.org/2000/svg" xmlns:xlink="http://www.w3.org/1999/xlink" viewBox="0 0 28.2461 27.9043">
 <g>
  <rect height="27.9043" opacity="0" width="28.2461" x="0" y="0"/>
  <path d="M13.9453 27.8906C21.6426 27.8906 27.8906 21.6289 27.8906 13.9453C27.8906 6.24805 21.6426 0 13.9453 0C6.26172 0 0 6.24805 0 13.9453C0 21.6289 6.26172 27.8906 13.9453 27.8906Z" fill="black" fill-opacity="0.85"/>
  <path d="M10.2266 19.7969C9.65234 19.7969 9.1875 19.332 9.1875 18.7578L9.1875 10.2129L7.90234 11.252C7.75195 11.3613 7.61523 11.4297 7.38281 11.4297C6.95898 11.4297 6.67188 11.1152 6.67188 10.6777C6.67188 10.3086 6.86328 10.0352 7.10938 9.84375L8.6543 8.64062C8.99609 8.39453 9.47461 8.06641 10.0762 8.06641C10.7871 8.06641 11.252 8.49023 11.252 9.21484L11.252 18.7578C11.252 19.332 10.7734 19.7969 10.2266 19.7969ZM17.1445 19.9336C14.3418 19.9336 13.4941 16.7891 13.4941 13.9453C13.4941 11.1016 14.3418 7.95703 17.1445 7.95703C19.9473 7.95703 20.7949 11.1016 20.7949 13.9453C20.7949 16.7891 19.9473 19.9336 17.1445 19.9336ZM17.1445 18.252C18.293 18.252 18.7305 16.3926 18.7305 13.9453C18.7305 11.4844 18.293 9.63867 17.1445 9.63867C15.9961 9.63867 15.5586 11.4844 15.5586 13.9453C15.5586 16.3926 15.9961 18.252 17.1445 18.252Z" fill="white"/>
 </g>
</svg>
