<?xml version="1.0" encoding="UTF-8"?>
<!--Generator: Apple Native CoreSVG 326-->
<!DOCTYPE svg
PUBLIC "-//W3C//DTD SVG 1.1//EN"
       "http://www.w3.org/Graphics/SVG/1.1/DTD/svg11.dtd">
<svg version="1.1" xmlns="http://www.w3.org/2000/svg" xmlns:xlink="http://www.w3.org/1999/xlink" viewBox="0 0 25.5254 25.1699">
 <g>
  <rect height="25.1699" opacity="0" width="25.5254" x="0" y="0"/>
  <path d="M4.29297 25.1699L20.877 25.1699C23.748 25.1699 25.1699 23.7617 25.1699 20.9453L25.1699 4.23828C25.1699 1.42188 23.748 0 20.877 0L4.29297 0C1.43555 0 0 1.42188 0 4.23828L0 20.9453C0 23.7617 1.43555 25.1699 4.29297 25.1699ZM4.32031 22.9688C2.95312 22.9688 2.20117 22.2441 2.20117 20.8223L2.20117 4.36133C2.20117 2.93945 2.95312 2.20117 4.32031 2.20117L20.8496 2.20117C22.2031 2.20117 22.9688 2.93945 22.9688 4.36133L22.9688 20.8223C22.9688 22.2441 22.2031 22.9688 20.8496 22.9688Z" fill="black" fill-opacity="0.85"/>
  <path d="M8.98242 18.252C9.5293 18.252 9.98047 17.8008 9.98047 17.2539L9.98047 7.98438C9.98047 7.28711 9.54297 6.87695 8.83203 6.87695C8.25781 6.87695 7.79297 7.19141 7.46484 7.4375L5.96094 8.59961C5.72852 8.79102 5.53711 9.05078 5.53711 9.40625C5.53711 9.83008 5.82422 10.1309 6.23438 10.1309C6.45312 10.1309 6.58984 10.0625 6.72656 9.9668L7.98438 8.95508L7.98438 17.2539C7.98438 17.8008 8.43555 18.252 8.98242 18.252ZM15.6816 18.3887C18.4023 18.3887 19.2227 15.3262 19.2227 12.5781C19.2227 9.83008 18.4023 6.76758 15.6816 6.76758C12.9609 6.76758 12.1406 9.83008 12.1406 12.5781C12.1406 15.3262 12.9609 18.3887 15.6816 18.3887ZM15.6816 16.7617C14.5605 16.7617 14.1367 14.9434 14.1367 12.5781C14.1367 10.1992 14.5605 8.38086 15.6816 8.38086C16.8027 8.38086 17.2266 10.1992 17.2266 12.5781C17.2266 14.9434 16.8027 16.7617 15.6816 16.7617Z" fill="black" fill-opacity="0.85"/>
 </g>
</svg>
