<?xml version="1.0" encoding="UTF-8"?>
<!--Generator: Apple Native CoreSVG 326-->
<!DOCTYPE svg
PUBLIC "-//W3C//DTD SVG 1.1//EN"
       "http://www.w3.org/Graphics/SVG/1.1/DTD/svg11.dtd">
<svg version="1.1" xmlns="http://www.w3.org/2000/svg" xmlns:xlink="http://www.w3.org/1999/xlink" viewBox="0 0 25.5254 20.6309">
 <g>
  <rect height="20.6309" opacity="0" width="25.5254" x="0" y="0"/>
  <path d="M0 19.5234C0 20.125 0.492188 20.6309 1.09375 20.6309C1.70898 20.6309 2.20117 20.125 2.20117 19.5234L2.20117 1.12109C2.20117 0.519531 1.70898 0.0273438 1.09375 0.0273438C0.492188 0.0273438 0 0.519531 0 1.12109ZM22.9688 19.5234C22.9688 20.125 23.4746 20.6309 24.0762 20.6309C24.6777 20.6309 25.1699 20.125 25.1699 19.5234L25.1699 1.12109C25.1699 0.519531 24.6777 0.0273438 24.0762 0.0273438C23.4746 0.0273438 22.9688 0.519531 22.9688 1.12109Z" fill="black" fill-opacity="0.85"/>
  <path d="M10.0078 16.2559C10.623 16.2559 11.0195 15.8184 11.0195 15.1895L11.0195 6.0293C11.0195 5.31836 10.5684 4.89453 9.84375 4.89453C9.26953 4.89453 8.85938 5.1543 8.39453 5.49609L6.75391 6.71289C6.48047 6.93164 6.30273 7.16406 6.30273 7.51953C6.30273 7.94336 6.60352 8.25781 7.01367 8.25781C7.21875 8.25781 7.36914 8.20312 7.5332 8.08008L8.96875 7L8.99609 7L8.99609 15.1895C8.99609 15.8184 9.37891 16.2559 10.0078 16.2559ZM16.8984 16.2559C17.5137 16.2559 17.8965 15.8184 17.8965 15.1895L17.8965 6.0293C17.8965 5.31836 17.459 4.89453 16.7344 4.89453C16.1602 4.89453 15.75 5.1543 15.2852 5.49609L13.6445 6.71289C13.3711 6.93164 13.1934 7.16406 13.1934 7.51953C13.1934 7.94336 13.4941 8.25781 13.9043 8.25781C14.1094 8.25781 14.2598 8.20312 14.4238 8.08008L15.8594 7L15.8867 7L15.8867 15.1895C15.8867 15.8184 16.2695 16.2559 16.8984 16.2559Z" fill="black" fill-opacity="0.85"/>
 </g>
</svg>
