<?xml version="1.0" encoding="UTF-8"?>
<!--Generator: Apple Native CoreSVG 326-->
<!DOCTYPE svg
PUBLIC "-//W3C//DTD SVG 1.1//EN"
       "http://www.w3.org/Graphics/SVG/1.1/DTD/svg11.dtd">
<svg version="1.1" xmlns="http://www.w3.org/2000/svg" xmlns:xlink="http://www.w3.org/1999/xlink" viewBox="0 0 25.5254 25.1699">
 <g>
  <rect height="25.1699" opacity="0" width="25.5254" x="0" y="0"/>
  <path d="M4.29297 25.1699L20.877 25.1699C23.748 25.1699 25.1699 23.7617 25.1699 20.9453L25.1699 4.23828C25.1699 1.42188 23.748 0 20.877 0L4.29297 0C1.43555 0 0 1.42188 0 4.23828L0 20.9453C0 23.7617 1.43555 25.1699 4.29297 25.1699Z" fill="black" fill-opacity="0.85"/>
  <path d="M9.80273 18.4297C9.22852 18.4297 8.76367 17.9648 8.76367 17.3906L8.76367 8.8457L7.46484 9.88477C7.32812 9.99414 7.17773 10.0625 6.97266 10.0625C6.53516 10.0625 6.24805 9.74805 6.24805 9.31055C6.24805 8.94141 6.42578 8.66797 6.68555 8.47656L8.23047 7.27344C8.55859 7.02734 9.05078 6.69922 9.63867 6.69922C10.377 6.69922 10.8281 7.12305 10.8281 7.84766L10.8281 17.3906C10.8281 17.9648 10.3633 18.4297 9.80273 18.4297ZM16.3105 18.4297C15.7363 18.4297 15.2715 17.9648 15.2715 17.3906L15.2715 8.8457L13.9727 9.88477C13.8359 9.99414 13.6855 10.0625 13.4805 10.0625C13.043 10.0625 12.7422 9.74805 12.7422 9.31055C12.7422 8.94141 12.9473 8.66797 13.1934 8.47656L14.7383 7.27344C15.0664 7.02734 15.5449 6.69922 16.1465 6.69922C16.8848 6.69922 17.3359 7.12305 17.3359 7.84766L17.3359 17.3906C17.3359 17.9648 16.8711 18.4297 16.3105 18.4297Z" fill="white"/>
 </g>
</svg>
