<?xml version="1.0" encoding="UTF-8"?>
<!--Generator: Apple Native CoreSVG 326-->
<!DOCTYPE svg
PUBLIC "-//W3C//DTD SVG 1.1//EN"
       "http://www.w3.org/Graphics/SVG/1.1/DTD/svg11.dtd">
<svg version="1.1" xmlns="http://www.w3.org/2000/svg" xmlns:xlink="http://www.w3.org/1999/xlink" viewBox="0 0 25.5254 20.6309">
 <g>
  <rect height="20.6309" opacity="0" width="25.5254" x="0" y="0"/>
  <path d="M0 19.5234C0 20.125 0.492188 20.6309 1.09375 20.6309C1.70898 20.6309 2.20117 20.125 2.20117 19.5234L2.20117 1.12109C2.20117 0.519531 1.70898 0.0273438 1.09375 0.0273438C0.492188 0.0273438 0 0.519531 0 1.12109ZM22.9688 19.5234C22.9688 20.125 23.4746 20.6309 24.0762 20.6309C24.6777 20.6309 25.1699 20.125 25.1699 19.5234L25.1699 1.12109C25.1699 0.519531 24.6777 0.0273438 24.0762 0.0273438C23.4746 0.0273438 22.9688 0.519531 22.9688 1.12109Z" fill="black" fill-opacity="0.85"/>
  <path d="M9.11914 16.2559C9.74805 16.2559 10.1309 15.8184 10.1309 15.1895L10.1309 6.0293C10.1309 5.31836 9.69336 4.89453 8.96875 4.89453C8.39453 4.89453 7.98438 5.1543 7.51953 5.49609L5.87891 6.71289C5.5918 6.93164 5.42773 7.16406 5.42773 7.51953C5.42773 7.94336 5.71484 8.25781 6.13867 8.25781C6.34375 8.25781 6.48047 8.20312 6.64453 8.08008L8.09375 7L8.10742 7L8.10742 15.1895C8.10742 15.8184 8.49023 16.2559 9.11914 16.2559ZM13.4941 16.2285L18.8125 16.2285C19.3184 16.2285 19.6328 15.9141 19.6328 15.4082C19.6328 14.9023 19.3184 14.6016 18.8125 14.6016L15.0938 14.6016L15.0938 14.4922L17.2539 12.0859C17.7598 11.5117 18.1836 11.0059 18.498 10.582C19.0449 9.80273 19.373 9.06445 19.373 8.12109C19.373 6.125 17.8828 4.92188 15.9414 4.92188C14.2598 4.92188 12.8652 6.08398 12.6055 7.38281C12.5781 7.5332 12.5645 7.66992 12.5645 7.79297C12.5645 8.32617 12.8926 8.6543 13.4121 8.6543C13.8633 8.6543 14.1367 8.42188 14.3008 7.99805C14.5469 7.10938 15.0664 6.52148 15.9277 6.52148C16.8848 6.52148 17.418 7.25977 17.418 8.20312C17.418 8.90039 17.1855 9.41992 16.7891 9.99414C16.543 10.3359 16.2012 10.7734 15.7637 11.2793L13.084 14.3008C12.7832 14.6152 12.5371 14.9297 12.5371 15.3945C12.5371 15.791 12.7559 16.2285 13.4941 16.2285Z" fill="black" fill-opacity="0.85"/>
 </g>
</svg>
