<?xml version="1.0" encoding="UTF-8"?>
<!--Generator: Apple Native CoreSVG 326-->
<!DOCTYPE svg
PUBLIC "-//W3C//DTD SVG 1.1//EN"
       "http://www.w3.org/Graphics/SVG/1.1/DTD/svg11.dtd">
<svg version="1.1" xmlns="http://www.w3.org/2000/svg" xmlns:xlink="http://www.w3.org/1999/xlink" viewBox="0 0 25.5254 25.1699">
 <g>
  <rect height="25.1699" opacity="0" width="25.5254" x="0" y="0"/>
  <path d="M4.29297 25.1699L20.877 25.1699C23.748 25.1699 25.1699 23.7617 25.1699 20.9453L25.1699 4.23828C25.1699 1.42188 23.748 0 20.877 0L4.29297 0C1.43555 0 0 1.42188 0 4.23828L0 20.9453C0 23.7617 1.43555 25.1699 4.29297 25.1699Z" fill="black" fill-opacity="0.85"/>
  <path d="M8.92773 18.4297C8.35352 18.4297 7.88867 17.9648 7.88867 17.4043L7.88867 8.8457L6.60352 9.89844C6.45312 9.99414 6.31641 10.0625 6.08398 10.0625C5.66016 10.0625 5.35938 9.74805 5.35938 9.31055C5.35938 8.94141 5.56445 8.66797 5.82422 8.47656L7.36914 7.28711C7.69727 7.02734 8.17578 6.69922 8.76367 6.69922C9.50195 6.69922 9.95312 7.12305 9.95312 7.84766L9.95312 17.4043C9.95312 17.9648 9.48828 18.4297 8.92773 18.4297ZM13.0703 18.2793C12.4141 18.2793 12.0996 17.9375 12.0996 17.459C12.0996 17.0215 12.373 16.666 12.6328 16.3242L15.0801 13.207C15.8184 12.25 16.6113 11.1016 16.6113 9.9668C16.6113 8.96875 16.1328 8.23047 15.2988 8.23047C14.4785 8.23047 14.1367 8.81836 13.877 9.76172C13.7266 10.2266 13.4395 10.4453 12.9609 10.4453C12.4277 10.4453 12.1133 10.0762 12.1133 9.54297C12.1133 8.08008 13.4941 6.58984 15.2988 6.58984C17.2402 6.58984 18.5391 7.9707 18.5391 9.87109C18.5391 11.1152 18.0742 12.1543 16.666 13.9043L14.6152 16.502L14.6152 16.625L17.9648 16.625C18.4434 16.625 18.7578 16.9121 18.7578 17.459C18.7578 17.9512 18.457 18.2793 17.9648 18.2793Z" fill="white"/>
 </g>
</svg>
