<?xml version="1.0" encoding="UTF-8"?>
<!--Generator: Apple Native CoreSVG 326-->
<!DOCTYPE svg
PUBLIC "-//W3C//DTD SVG 1.1//EN"
       "http://www.w3.org/Graphics/SVG/1.1/DTD/svg11.dtd">
<svg version="1.1" xmlns="http://www.w3.org/2000/svg" xmlns:xlink="http://www.w3.org/1999/xlink" viewBox="0 0 28.2461 33.2127">
 <g>
  <rect height="33.2127" opacity="0" width="28.2461" x="0" y="0"/>
  <path d="M13.9453 30.5448C21.6426 30.5448 27.8906 24.2968 27.8906 16.5995C27.8906 9.77724 22.9824 4.11708 16.584 2.91395L16.584 0.972548C16.584-0.0118272 15.9141-0.257921 15.1484 0.275282L10.8008 3.33778C10.1719 3.78895 10.1855 4.4452 10.8008 4.8827L15.1621 7.9452C15.9141 8.46474 16.584 8.21864 16.584 7.24794L16.584 5.27919C21.7246 6.46864 25.5664 11.0487 25.5664 16.5995C25.5664 23.0253 20.3711 28.2206 13.9453 28.2206C7.51953 28.2206 2.32422 23.0253 2.32422 16.5995C2.32422 12.703 4.23828 9.27138 7.13672 7.19325C7.69727 6.76942 7.875 6.12684 7.5332 5.55263C7.19141 5.00575 6.41211 4.84169 5.81055 5.30653C2.2832 7.8495 0 11.91 0 16.5995C0 24.2968 6.24805 30.5448 13.9453 30.5448Z" fill="black" fill-opacity="0.85"/>
  <path d="M10.2949 22.2186C10.8965 22.2186 11.252 21.7948 11.252 21.2069L11.252 12.5663C11.252 11.8964 10.8281 11.4999 10.1582 11.4999C9.61133 11.4999 9.21484 11.746 8.79102 12.0741L7.24609 13.2225C6.97266 13.414 6.80859 13.6464 6.80859 13.9745C6.80859 14.371 7.0957 14.6718 7.47852 14.6718C7.68359 14.6718 7.82031 14.6171 7.9707 14.494L9.32422 13.4823L9.35156 13.4823L9.35156 21.2069C9.35156 21.7948 9.70703 22.2186 10.2949 22.2186ZM17.0215 22.3007C19.1543 22.3007 20.4805 20.7284 20.4805 18.5956C20.4805 16.7636 19.4551 15.1913 17.6367 15.1913C16.7344 15.1913 15.9688 15.6151 15.5996 16.3124L15.5449 16.3124L15.791 13.1952L19.2637 13.1952C19.7148 13.1952 20.0156 12.8944 20.0156 12.4296C20.0156 11.9647 19.7285 11.664 19.2637 11.664L15.2988 11.664C14.5879 11.664 14.2598 12.0331 14.2188 12.7577L13.918 16.7362C13.877 17.3515 14.1914 17.8026 14.793 17.8026C15.2305 17.8026 15.4219 17.6249 15.6953 17.2968C16.0234 16.8593 16.4883 16.5858 17.0352 16.5858C18.1152 16.5858 18.6484 17.5565 18.6484 18.6503C18.6484 19.8124 18.0605 20.7831 17.0215 20.7831C16.2012 20.7831 15.6543 20.2499 15.3809 19.539C15.2031 19.1561 14.9297 18.9511 14.5605 18.9511C14.082 18.9511 13.7812 19.2655 13.7812 19.744C13.7812 19.9081 13.8086 20.0722 13.8496 20.2225C14.1914 21.535 15.6953 22.3007 17.0215 22.3007Z" fill="black" fill-opacity="0.85"/>
 </g>
</svg>
