<?xml version="1.0" encoding="UTF-8"?>
<!--Generator: Apple Native CoreSVG 326-->
<!DOCTYPE svg
PUBLIC "-//W3C//DTD SVG 1.1//EN"
       "http://www.w3.org/Graphics/SVG/1.1/DTD/svg11.dtd">
<svg version="1.1" xmlns="http://www.w3.org/2000/svg" xmlns:xlink="http://www.w3.org/1999/xlink" viewBox="0 0 28.2461 27.9043">
 <g>
  <rect height="27.9043" opacity="0" width="28.2461" x="0" y="0"/>
  <path d="M13.9453 27.8906C21.6426 27.8906 27.8906 21.6426 27.8906 13.9453C27.8906 6.24805 21.6426 0 13.9453 0C6.24805 0 0 6.24805 0 13.9453C0 21.6426 6.24805 27.8906 13.9453 27.8906ZM13.9453 25.5664C7.51953 25.5664 2.32422 20.3711 2.32422 13.9453C2.32422 7.51953 7.51953 2.32422 13.9453 2.32422C20.3711 2.32422 25.5664 7.51953 25.5664 13.9453C25.5664 20.3711 20.3711 25.5664 13.9453 25.5664Z" fill="black" fill-opacity="0.85"/>
  <path d="M10.0352 19.6191C10.582 19.6191 11.0332 19.168 11.0332 18.6211L11.0332 9.35156C11.0332 8.6543 10.5957 8.24414 9.88477 8.24414C9.31055 8.24414 8.8457 8.55859 8.53125 8.80469L7.02734 9.9668C6.78125 10.1582 6.58984 10.418 6.58984 10.7734C6.58984 11.1973 6.87695 11.498 7.28711 11.498C7.50586 11.498 7.64258 11.4297 7.7793 11.334L9.03711 10.3223L9.03711 18.6211C9.03711 19.168 9.48828 19.6191 10.0352 19.6191ZM16.8301 19.7559C18.9082 19.7559 20.1113 18.0059 20.1113 15.8594C20.1113 14.0137 19.2227 12.2637 17.4043 12.2637C16.2969 12.2637 15.4629 13.002 15.1484 14.1777L15.0938 14.1777C15.0938 14.123 15.0938 14.0684 15.0938 14.0273C15.0938 12.5098 15.2852 9.76172 16.8027 9.76172C17.4316 9.76172 17.8418 10.1992 18.0742 10.7734C18.2656 11.1973 18.5254 11.3887 18.9629 11.3887C19.5234 11.3887 19.7559 11.0195 19.7559 10.5684C19.7559 10.418 19.7285 10.2539 19.6875 10.0762C19.4004 8.90039 18.2109 8.16211 16.8438 8.16211C14.041 8.16211 13.2344 11.3066 13.2344 14.082C13.2344 16.666 14.0547 19.7559 16.8301 19.7559ZM16.8027 18.1562C15.7637 18.1562 15.3535 16.8711 15.3535 15.8867C15.3535 14.8887 15.8047 13.7539 16.8027 13.7539C17.8145 13.7539 18.2246 14.9297 18.1973 15.9414C18.1973 16.9395 17.7598 18.1562 16.8027 18.1562Z" fill="black" fill-opacity="0.85"/>
 </g>
</svg>
