<?xml version="1.0" encoding="UTF-8"?>
<!--Generator: Apple Native CoreSVG 326-->
<!DOCTYPE svg
PUBLIC "-//W3C//DTD SVG 1.1//EN"
       "http://www.w3.org/Graphics/SVG/1.1/DTD/svg11.dtd">
<svg version="1.1" xmlns="http://www.w3.org/2000/svg" xmlns:xlink="http://www.w3.org/1999/xlink" viewBox="0 0 25.5254 25.1699">
 <g>
  <rect height="25.1699" opacity="0" width="25.5254" x="0" y="0"/>
  <path d="M4.29297 25.1699L20.877 25.1699C23.748 25.1699 25.1699 23.7617 25.1699 20.9453L25.1699 4.23828C25.1699 1.42188 23.748 0 20.877 0L4.29297 0C1.43555 0 0 1.42188 0 4.23828L0 20.9453C0 23.7617 1.43555 25.1699 4.29297 25.1699Z" fill="black" fill-opacity="0.85"/>
  <path d="M8.59961 18.4297C8.02539 18.4297 7.54688 17.9648 7.54688 17.3906L7.54688 8.8457L6.26172 9.88477C6.125 9.99414 5.97461 10.0625 5.75586 10.0625C5.33203 10.0625 5.03125 9.74805 5.03125 9.31055C5.03125 8.94141 5.22266 8.66797 5.48242 8.47656L7.02734 7.27344C7.35547 7.02734 7.83398 6.69922 8.43555 6.69922C9.17383 6.69922 9.625 7.12305 9.625 7.84766L9.625 17.3906C9.625 17.9648 9.16016 18.4297 8.59961 18.4297ZM15.5996 18.5664C12.7422 18.5664 11.8945 15.3809 11.8945 12.7148C11.8945 9.85742 12.7285 6.61719 15.6133 6.61719C17.0488 6.61719 18.2656 7.36914 18.5527 8.58594C18.6074 8.76367 18.6211 8.94141 18.6211 9.0918C18.6211 9.55664 18.3887 9.93945 17.8145 9.93945C17.3496 9.93945 17.0762 9.74805 16.8848 9.31055C16.6387 8.72266 16.2285 8.27148 15.5723 8.27148C14.0137 8.27148 13.8223 11.1016 13.8223 12.6602C13.8223 12.7012 13.8223 12.7559 13.8223 12.8105L13.877 12.8105C14.2051 11.6074 15.0664 10.8418 16.2012 10.8418C18.0742 10.8418 18.9902 12.6465 18.9902 14.5469C18.9902 16.7617 17.7461 18.5664 15.5996 18.5664ZM15.5723 16.9121C16.5566 16.9121 17.0215 15.668 17.0215 14.6426C17.0488 13.6035 16.6113 12.3867 15.5723 12.3867C14.5605 12.3867 14.082 13.5488 14.082 14.5742C14.082 15.5859 14.5195 16.9121 15.5723 16.9121Z" fill="white"/>
 </g>
</svg>
