<?xml version="1.0" encoding="UTF-8"?>
<!--Generator: Apple Native CoreSVG 326-->
<!DOCTYPE svg
PUBLIC "-//W3C//DTD SVG 1.1//EN"
       "http://www.w3.org/Graphics/SVG/1.1/DTD/svg11.dtd">
<svg version="1.1" xmlns="http://www.w3.org/2000/svg" xmlns:xlink="http://www.w3.org/1999/xlink" viewBox="0 0 25.5254 25.1699">
 <g>
  <rect height="25.1699" opacity="0" width="25.5254" x="0" y="0"/>
  <path d="M4.29297 25.1699L20.877 25.1699C23.748 25.1699 25.1699 23.7617 25.1699 20.9453L25.1699 4.23828C25.1699 1.42188 23.748 0 20.877 0L4.29297 0C1.43555 0 0 1.42188 0 4.23828L0 20.9453C0 23.7617 1.43555 25.1699 4.29297 25.1699ZM4.32031 22.9688C2.95312 22.9688 2.20117 22.2441 2.20117 20.8223L2.20117 4.36133C2.20117 2.93945 2.95312 2.20117 4.32031 2.20117L20.8496 2.20117C22.2031 2.20117 22.9688 2.93945 22.9688 4.36133L22.9688 20.8223C22.9688 22.2441 22.2031 22.9688 20.8496 22.9688Z" fill="black" fill-opacity="0.85"/>
  <path d="M8.70898 18.252C9.24219 18.252 9.69336 17.8008 9.69336 17.2539L9.69336 7.98438C9.69336 7.28711 9.25586 6.87695 8.54492 6.87695C7.9707 6.87695 7.50586 7.19141 7.19141 7.4375L5.6875 8.59961C5.44141 8.79102 5.25 9.05078 5.25 9.40625C5.25 9.83008 5.53711 10.1309 5.94727 10.1309C6.16602 10.1309 6.30273 10.0625 6.43945 9.9668L7.69727 8.95508L7.69727 17.2539C7.69727 17.8008 8.14844 18.252 8.70898 18.252ZM15.4902 18.3887C17.5684 18.3887 18.7715 16.6387 18.7715 14.4922C18.7715 12.6465 17.8828 10.8965 16.0645 10.8965C14.957 10.8965 14.123 11.6348 13.8086 12.8105L13.7539 12.8105C13.7539 12.7559 13.7539 12.7012 13.7539 12.6602C13.7539 11.1426 13.9453 8.39453 15.4629 8.39453C16.0918 8.39453 16.502 8.83203 16.7344 9.40625C16.9258 9.83008 17.1855 10.0215 17.6367 10.0215C18.1836 10.0215 18.416 9.65234 18.416 9.20117C18.416 9.05078 18.4023 8.88672 18.3477 8.70898C18.0605 7.5332 16.8848 6.79492 15.5039 6.79492C12.7012 6.79492 11.8945 9.93945 11.8945 12.7148C11.8945 15.2988 12.7148 18.3887 15.4902 18.3887ZM15.4629 16.7891C14.4375 16.7891 14.0137 15.5039 14.0137 14.5195C14.0137 13.5215 14.4785 12.3867 15.4629 12.3867C16.4746 12.3867 16.8984 13.5625 16.8711 14.5742C16.8711 15.5723 16.4199 16.7891 15.4629 16.7891Z" fill="black" fill-opacity="0.85"/>
 </g>
</svg>
