<?xml version="1.0" encoding="UTF-8"?>
<!--Generator: Apple Native CoreSVG 326-->
<!DOCTYPE svg
PUBLIC "-//W3C//DTD SVG 1.1//EN"
       "http://www.w3.org/Graphics/SVG/1.1/DTD/svg11.dtd">
<svg version="1.1" xmlns="http://www.w3.org/2000/svg" xmlns:xlink="http://www.w3.org/1999/xlink" viewBox="0 0 28.2461 27.9043">
 <g>
  <rect height="27.9043" opacity="0" width="28.2461" x="0" y="0"/>
  <path d="M13.9453 27.8906C21.6426 27.8906 27.8906 21.6426 27.8906 13.9453C27.8906 6.24805 21.6426 0 13.9453 0C6.24805 0 0 6.24805 0 13.9453C0 21.6426 6.24805 27.8906 13.9453 27.8906ZM13.9453 25.5664C7.51953 25.5664 2.32422 20.3711 2.32422 13.9453C2.32422 7.51953 7.51953 2.32422 13.9453 2.32422C20.3711 2.32422 25.5664 7.51953 25.5664 13.9453C25.5664 20.3711 20.3711 25.5664 13.9453 25.5664Z" fill="black" fill-opacity="0.85"/>
  <path d="M10.8691 19.6191C11.4023 19.6191 11.8535 19.168 11.8535 18.6211L11.8535 9.35156C11.8535 8.6543 11.416 8.24414 10.7051 8.24414C10.1445 8.24414 9.67969 8.55859 9.35156 8.80469L7.84766 9.9668C7.60156 10.1582 7.42383 10.418 7.42383 10.7734C7.42383 11.1973 7.71094 11.498 8.12109 11.498C8.32617 11.498 8.46289 11.4297 8.59961 11.334L9.85742 10.3223L9.85742 18.6211C9.85742 19.168 10.3086 19.6191 10.8691 19.6191ZM15.8184 19.6602C16.3105 19.6602 16.543 19.4551 16.7207 18.9629L19.8516 10.623C20.002 10.1992 20.1113 9.87109 20.1113 9.47461C20.1113 8.8457 19.6191 8.42188 19.0176 8.42188L14.6016 8.42188C14.123 8.42188 13.8086 8.76367 13.8086 9.22852C13.8086 9.69336 14.123 10.0352 14.6016 10.0352L18.1152 10.0352L18.1152 10.1582L15.0801 18.0059C14.957 18.3066 14.916 18.4844 14.916 18.8125C14.916 19.209 15.1621 19.6602 15.8184 19.6602Z" fill="black" fill-opacity="0.85"/>
 </g>
</svg>
