<?xml version="1.0" encoding="UTF-8"?>
<!--Generator: Apple Native CoreSVG 326-->
<!DOCTYPE svg
PUBLIC "-//W3C//DTD SVG 1.1//EN"
       "http://www.w3.org/Graphics/SVG/1.1/DTD/svg11.dtd">
<svg version="1.1" xmlns="http://www.w3.org/2000/svg" xmlns:xlink="http://www.w3.org/1999/xlink" viewBox="0 0 28.2461 27.9043">
 <g>
  <rect height="27.9043" opacity="0" width="28.2461" x="0" y="0"/>
  <path d="M13.9453 27.8906C21.6426 27.8906 27.8906 21.6426 27.8906 13.9453C27.8906 6.24805 21.6426 0 13.9453 0C6.24805 0 0 6.24805 0 13.9453C0 21.6426 6.24805 27.8906 13.9453 27.8906ZM13.9453 25.5664C7.51953 25.5664 2.32422 20.3711 2.32422 13.9453C2.32422 7.51953 7.51953 2.32422 13.9453 2.32422C20.3711 2.32422 25.5664 7.51953 25.5664 13.9453C25.5664 20.3711 20.3711 25.5664 13.9453 25.5664Z" fill="black" fill-opacity="0.85"/>
  <path d="M10.2266 19.6191C10.7598 19.6191 11.2109 19.168 11.2109 18.6211L11.2109 9.35156C11.2109 8.6543 10.7734 8.24414 10.0625 8.24414C9.50195 8.24414 9.03711 8.55859 8.70898 8.80469L7.20508 9.9668C6.95898 10.1582 6.78125 10.418 6.78125 10.7734C6.78125 11.1973 7.06836 11.498 7.47852 11.498C7.69727 11.498 7.82031 11.4297 7.95703 11.334L9.21484 10.3223L9.21484 18.6211C9.21484 19.168 9.66602 19.6191 10.2266 19.6191ZM16.8848 19.7148C19.0586 19.7148 20.4395 18.3613 20.4395 16.4883C20.4395 14.998 19.4961 13.918 18.4023 13.6719L18.4023 13.6309C19.3184 13.3438 20.1387 12.4551 20.1387 11.1562C20.1387 9.39258 18.8262 8.18945 16.8848 8.18945C15.2031 8.18945 13.6719 9.22852 13.6719 11.1426C13.6719 12.5371 14.5332 13.3574 15.4219 13.6309L15.4219 13.6719C14.2461 13.9316 13.3574 15.0117 13.3574 16.4883C13.3574 18.5117 14.8887 19.7148 16.8848 19.7148ZM16.8984 13.002C16.0234 13.002 15.5723 12.1543 15.5723 11.3477C15.5723 10.4727 16.0508 9.65234 16.8984 9.65234C17.7871 9.65234 18.2109 10.4727 18.2109 11.3477C18.2109 12.25 17.7598 13.002 16.8984 13.002ZM16.8984 18.2383C15.9004 18.2383 15.4082 17.3496 15.4082 16.3379C15.4082 15.3535 15.9004 14.4785 16.8984 14.4785C17.8691 14.4785 18.3887 15.2988 18.3887 16.3379C18.3887 17.3496 17.8965 18.2383 16.8984 18.2383Z" fill="black" fill-opacity="0.85"/>
 </g>
</svg>
