<?xml version="1.0" encoding="UTF-8"?>
<!--Generator: Apple Native CoreSVG 326-->
<!DOCTYPE svg
PUBLIC "-//W3C//DTD SVG 1.1//EN"
       "http://www.w3.org/Graphics/SVG/1.1/DTD/svg11.dtd">
<svg version="1.1" xmlns="http://www.w3.org/2000/svg" xmlns:xlink="http://www.w3.org/1999/xlink" viewBox="0 0 25.5254 25.1699">
 <g>
  <rect height="25.1699" opacity="0" width="25.5254" x="0" y="0"/>
  <path d="M4.29297 25.1699L20.877 25.1699C23.748 25.1699 25.1699 23.7617 25.1699 20.9453L25.1699 4.23828C25.1699 1.42188 23.748 0 20.877 0L4.29297 0C1.43555 0 0 1.42188 0 4.23828L0 20.9453C0 23.7617 1.43555 25.1699 4.29297 25.1699ZM4.32031 22.9688C2.95312 22.9688 2.20117 22.2441 2.20117 20.8223L2.20117 4.36133C2.20117 2.93945 2.95312 2.20117 4.32031 2.20117L20.8496 2.20117C22.2031 2.20117 22.9688 2.93945 22.9688 4.36133L22.9688 20.8223C22.9688 22.2441 22.2031 22.9688 20.8496 22.9688Z" fill="black" fill-opacity="0.85"/>
  <path d="M8.88672 18.252C9.41992 18.252 9.88477 17.8008 9.88477 17.2539L9.88477 7.98438C9.88477 7.28711 9.43359 6.87695 8.73633 6.87695C8.16211 6.87695 7.69727 7.19141 7.36914 7.4375L5.86523 8.59961C5.63281 8.79102 5.44141 9.05078 5.44141 9.40625C5.44141 9.83008 5.72852 10.1309 6.13867 10.1309C6.35742 10.1309 6.49414 10.0625 6.63086 9.9668L7.88867 8.95508L7.88867 17.2539C7.88867 17.8008 8.33984 18.252 8.88672 18.252ZM15.5586 18.3477C17.7188 18.3477 19.0996 16.9941 19.0996 15.1211C19.0996 13.6309 18.1562 12.5508 17.0625 12.3047L17.0625 12.2637C17.9785 11.9766 18.7988 11.0879 18.7988 9.78906C18.7988 8.02539 17.4863 6.82227 15.5586 6.82227C13.8633 6.82227 12.332 7.86133 12.332 9.77539C12.332 11.1699 13.207 11.9902 14.082 12.2637L14.082 12.3047C12.9062 12.5645 12.0176 13.6445 12.0176 15.1211C12.0176 17.1445 13.5488 18.3477 15.5586 18.3477ZM15.5586 11.6348C14.6836 11.6348 14.2324 10.7871 14.2324 9.98047C14.2324 9.10547 14.7109 8.28516 15.5586 8.28516C16.4473 8.28516 16.8711 9.10547 16.8711 9.98047C16.8711 10.8828 16.4199 11.6348 15.5586 11.6348ZM15.5586 16.8711C14.5605 16.8711 14.0684 15.9824 14.0684 14.9707C14.0684 13.9863 14.5742 13.1113 15.5586 13.1113C16.5293 13.1113 17.0488 13.9316 17.0488 14.9707C17.0488 15.9824 16.5566 16.8711 15.5586 16.8711Z" fill="black" fill-opacity="0.85"/>
 </g>
</svg>
