<?xml version="1.0" encoding="UTF-8"?>
<!--Generator: Apple Native CoreSVG 326-->
<!DOCTYPE svg
PUBLIC "-//W3C//DTD SVG 1.1//EN"
       "http://www.w3.org/Graphics/SVG/1.1/DTD/svg11.dtd">
<svg version="1.1" xmlns="http://www.w3.org/2000/svg" xmlns:xlink="http://www.w3.org/1999/xlink" viewBox="0 0 25.5254 25.1699">
 <g>
  <rect height="25.1699" opacity="0" width="25.5254" x="0" y="0"/>
  <path d="M4.29297 25.1699L20.877 25.1699C23.748 25.1699 25.1699 23.7617 25.1699 20.9453L25.1699 4.23828C25.1699 1.42188 23.748 0 20.877 0L4.29297 0C1.43555 0 0 1.42188 0 4.23828L0 20.9453C0 23.7617 1.43555 25.1699 4.29297 25.1699ZM4.32031 22.9688C2.95312 22.9688 2.20117 22.2441 2.20117 20.8223L2.20117 4.36133C2.20117 2.93945 2.95312 2.20117 4.32031 2.20117L20.8496 2.20117C22.2031 2.20117 22.9688 2.93945 22.9688 4.36133L22.9688 20.8223C22.9688 22.2441 22.2031 22.9688 20.8496 22.9688Z" fill="black" fill-opacity="0.85"/>
  <path d="M8.90039 18.252C9.43359 18.252 9.88477 17.8008 9.88477 17.2539L9.88477 7.98438C9.88477 7.28711 9.44727 6.87695 8.73633 6.87695C8.16211 6.87695 7.69727 7.19141 7.38281 7.4375L5.87891 8.59961C5.63281 8.79102 5.44141 9.05078 5.44141 9.40625C5.44141 9.83008 5.72852 10.1309 6.13867 10.1309C6.35742 10.1309 6.49414 10.0625 6.63086 9.9668L7.88867 8.95508L7.88867 17.2539C7.88867 17.8008 8.33984 18.252 8.90039 18.252ZM14.6836 14.2871C15.791 14.2871 16.6387 13.5488 16.9395 12.373L16.9941 12.373C16.9941 12.4277 16.9941 12.4824 16.9941 12.5234C16.9941 14.041 16.8164 16.7754 15.2852 16.7754C14.6699 16.7754 14.2598 16.3516 14.0137 15.7637C13.8086 15.3125 13.5352 15.1348 13.125 15.1348C12.5645 15.1348 12.3184 15.5176 12.3184 15.9688C12.3184 16.1328 12.3457 16.2969 12.3867 16.4609C12.6875 17.6504 13.877 18.375 15.2441 18.375C18.0469 18.375 18.8672 15.2715 18.8672 12.4688C18.8672 9.88477 18.0332 6.79492 15.2578 6.79492C13.1797 6.79492 11.9766 8.54492 11.9766 10.6914C11.9766 12.5371 12.8652 14.2871 14.6836 14.2871ZM15.2852 12.7832C14.2871 12.7832 13.877 11.6211 13.877 10.6094C13.877 9.58398 14.3418 8.38086 15.2852 8.38086C16.3242 8.38086 16.7344 9.58398 16.7344 10.6094C16.7344 11.6621 16.2832 12.7832 15.2852 12.7832Z" fill="black" fill-opacity="0.85"/>
 </g>
</svg>
