<?xml version="1.0" encoding="UTF-8"?>
<!--Generator: Apple Native CoreSVG 326-->
<!DOCTYPE svg
PUBLIC "-//W3C//DTD SVG 1.1//EN"
       "http://www.w3.org/Graphics/SVG/1.1/DTD/svg11.dtd">
<svg version="1.1" xmlns="http://www.w3.org/2000/svg" xmlns:xlink="http://www.w3.org/1999/xlink" viewBox="0 0 25.5254 25.1699">
 <g>
  <rect height="25.1699" opacity="0" width="25.5254" x="0" y="0"/>
  <path d="M4.29297 25.1699L20.877 25.1699C23.748 25.1699 25.1699 23.7617 25.1699 20.9453L25.1699 4.23828C25.1699 1.42188 23.748 0 20.877 0L4.29297 0C1.43555 0 0 1.42188 0 4.23828L0 20.9453C0 23.7617 1.43555 25.1699 4.29297 25.1699Z" fill="black" fill-opacity="0.85"/>
  <path d="M8.79102 18.4297C8.2168 18.4297 7.75195 17.9648 7.75195 17.3906L7.75195 8.8457L6.45312 9.88477C6.31641 9.99414 6.16602 10.0625 5.94727 10.0625C5.52344 10.0625 5.22266 9.74805 5.22266 9.31055C5.22266 8.94141 5.41406 8.66797 5.67383 8.47656L7.21875 7.27344C7.54688 7.02734 8.02539 6.69922 8.62695 6.69922C9.36523 6.69922 9.81641 7.12305 9.81641 7.84766L9.81641 17.3906C9.81641 17.9648 9.35156 18.4297 8.79102 18.4297ZM14.7656 14.3418C12.8926 14.3418 11.9766 12.5371 11.9766 10.6367C11.9766 8.42188 13.2207 6.61719 15.3672 6.61719C18.2246 6.61719 19.0859 9.80273 19.0859 12.4688C19.0859 15.3535 18.2383 18.5527 15.3398 18.5527C13.9316 18.5527 12.7012 17.8145 12.4004 16.584C12.3594 16.4199 12.332 16.2422 12.332 16.0781C12.332 15.6133 12.5781 15.2168 13.166 15.2168C13.5898 15.2168 13.877 15.3945 14.082 15.8594C14.3418 16.4609 14.752 16.8984 15.3945 16.8984C16.9668 16.8984 17.1445 14.082 17.1445 12.5234C17.1445 12.4824 17.1445 12.4277 17.1445 12.373L17.0898 12.373C16.7754 13.5762 15.9004 14.3418 14.7656 14.3418ZM15.3945 12.7832C16.4199 12.7832 16.8711 11.6348 16.8711 10.541C16.8711 9.48828 16.4609 8.27148 15.3945 8.27148C14.4238 8.27148 13.9453 9.48828 13.9453 10.541C13.9453 11.5801 14.3691 12.7832 15.3945 12.7832Z" fill="white"/>
 </g>
</svg>
