<?xml version="1.0" encoding="UTF-8"?>
<!--Generator: Apple Native CoreSVG 326-->
<!DOCTYPE svg
PUBLIC "-//W3C//DTD SVG 1.1//EN"
       "http://www.w3.org/Graphics/SVG/1.1/DTD/svg11.dtd">
<svg version="1.1" xmlns="http://www.w3.org/2000/svg" xmlns:xlink="http://www.w3.org/1999/xlink" viewBox="0 0 25.5254 25.1699">
 <g>
  <rect height="25.1699" opacity="0" width="25.5254" x="0" y="0"/>
  <path d="M4.29297 25.1699L20.877 25.1699C23.748 25.1699 25.1699 23.7617 25.1699 20.9453L25.1699 4.23828C25.1699 1.42188 23.748 0 20.877 0L4.29297 0C1.43555 0 0 1.42188 0 4.23828L0 20.9453C0 23.7617 1.43555 25.1699 4.29297 25.1699ZM4.32031 22.9688C2.95312 22.9688 2.20117 22.2441 2.20117 20.8223L2.20117 4.36133C2.20117 2.93945 2.95312 2.20117 4.32031 2.20117L20.8496 2.20117C22.2031 2.20117 22.9688 2.93945 22.9688 4.36133L22.9688 20.8223C22.9688 22.2441 22.2031 22.9688 20.8496 22.9688Z" fill="black" fill-opacity="0.85"/>
  <path d="M9.48828 18.7715L16.5156 18.7715C17.0488 18.7715 17.4316 18.4297 17.4316 17.8828C17.4316 17.3086 17.0488 16.9805 16.5156 16.9805L11.5254 16.9805L11.5254 16.8848L14.7793 13.4258C15.9824 12.127 16.8301 11.0469 16.8301 9.5293C16.8301 7.45117 15.1621 6.07031 12.6328 6.07031C10.6914 6.07031 8.98242 7.24609 8.53125 8.77734C8.47656 8.98242 8.46289 9.14648 8.46289 9.32422C8.46289 9.85742 8.81836 10.1992 9.35156 10.1992C9.84375 10.1992 10.0762 9.89844 10.3223 9.51562C10.6777 8.68164 11.4023 7.80664 12.7285 7.80664C14.0273 7.80664 14.9023 8.55859 14.9023 9.69336C14.9023 10.6914 14.0547 11.5254 13.248 12.373L8.88672 17.0625C8.64062 17.3223 8.51758 17.5957 8.51758 17.8828C8.51758 18.4297 8.88672 18.7715 9.48828 18.7715Z" fill="black" fill-opacity="0.85"/>
 </g>
</svg>
