<?xml version="1.0" encoding="UTF-8"?>
<!--Generator: Apple Native CoreSVG 326-->
<!DOCTYPE svg
PUBLIC "-//W3C//DTD SVG 1.1//EN"
       "http://www.w3.org/Graphics/SVG/1.1/DTD/svg11.dtd">
<svg version="1.1" xmlns="http://www.w3.org/2000/svg" xmlns:xlink="http://www.w3.org/1999/xlink" viewBox="0 0 28.2461 27.9043">
 <g>
  <rect height="27.9043" opacity="0" width="28.2461" x="0" y="0"/>
  <path d="M13.9453 27.8906C21.6426 27.8906 27.8906 21.6426 27.8906 13.9453C27.8906 6.24805 21.6426 0 13.9453 0C6.24805 0 0 6.24805 0 13.9453C0 21.6426 6.24805 27.8906 13.9453 27.8906ZM13.9453 25.5664C7.51953 25.5664 2.32422 20.3711 2.32422 13.9453C2.32422 7.51953 7.51953 2.32422 13.9453 2.32422C20.3711 2.32422 25.5664 7.51953 25.5664 13.9453C25.5664 20.3711 20.3711 25.5664 13.9453 25.5664Z" fill="black" fill-opacity="0.85"/>
  <path d="M7.54688 19.4688L12.291 19.4688C12.7832 19.4688 13.0703 19.1543 13.0703 18.6758C13.0703 18.1562 12.7695 17.8691 12.291 17.8691L9.05078 17.8691L9.05078 17.7598L11.0469 15.2305C12.4141 13.5352 12.8652 12.5234 12.8652 11.3203C12.8652 9.47461 11.6074 8.13477 9.7207 8.13477C7.9707 8.13477 6.64453 9.58398 6.64453 11.0059C6.64453 11.5117 6.94531 11.8672 7.46484 11.8672C7.91602 11.8672 8.18945 11.6621 8.33984 11.2109C8.58594 10.2949 8.92773 9.7207 9.70703 9.7207C10.541 9.7207 11.0059 10.4453 11.0059 11.416C11.0059 12.5098 10.2402 13.6172 9.51562 14.5469L7.13672 17.582C6.89062 17.9102 6.63086 18.252 6.63086 18.6758C6.63086 19.1406 6.93164 19.4688 7.54688 19.4688ZM17.8691 19.7148C19.8379 19.7148 21.3418 18.4844 21.3418 16.4336C21.3418 14.7383 20.3301 13.9043 19.168 13.7812L19.168 13.7402C20.4121 13.4121 21.0137 12.3047 21.0137 11.1562C21.0137 9.26953 19.6055 8.18945 17.8281 8.18945C16.4062 8.18945 15.1895 8.98242 14.793 10.1992C14.7246 10.459 14.6973 10.7051 14.6973 10.9375C14.6973 11.3887 14.9844 11.7441 15.5312 11.7441C15.9961 11.7441 16.2695 11.5664 16.4062 11.0879C16.625 10.2812 17.0488 9.77539 17.8281 9.77539C18.7305 9.77539 19.1543 10.4727 19.1543 11.375C19.1543 12.373 18.5938 13.0977 17.5684 13.0977L17.2539 13.0977C16.7891 13.0977 16.4883 13.3848 16.4883 13.8359C16.4883 14.2871 16.7891 14.5469 17.2539 14.5469L17.5957 14.5469C18.7578 14.5469 19.4004 15.1895 19.4004 16.3789C19.4004 17.3223 18.8945 18.1289 17.8828 18.1289C16.8848 18.1289 16.4336 17.459 16.2695 16.8301C16.1328 16.3926 15.8457 16.1602 15.4082 16.1602C14.875 16.1602 14.5059 16.4883 14.5059 17.0215C14.5059 17.2676 14.5469 17.5137 14.6152 17.7324C15.0117 19.0039 16.4062 19.7148 17.8691 19.7148Z" fill="black" fill-opacity="0.85"/>
 </g>
</svg>
