<?xml version="1.0" encoding="UTF-8"?>
<!--Generator: Apple Native CoreSVG 326-->
<!DOCTYPE svg
PUBLIC "-//W3C//DTD SVG 1.1//EN"
       "http://www.w3.org/Graphics/SVG/1.1/DTD/svg11.dtd">
<svg version="1.1" xmlns="http://www.w3.org/2000/svg" xmlns:xlink="http://www.w3.org/1999/xlink" viewBox="0 0 28.2461 27.9043">
 <g>
  <rect height="27.9043" opacity="0" width="28.2461" x="0" y="0"/>
  <path d="M13.9453 27.8906C21.6426 27.8906 27.8906 21.6426 27.8906 13.9453C27.8906 6.24805 21.6426 0 13.9453 0C6.24805 0 0 6.24805 0 13.9453C0 21.6426 6.24805 27.8906 13.9453 27.8906ZM13.9453 25.5664C7.51953 25.5664 2.32422 20.3711 2.32422 13.9453C2.32422 7.51953 7.51953 2.32422 13.9453 2.32422C20.3711 2.32422 25.5664 7.51953 25.5664 13.9453C25.5664 20.3711 20.3711 25.5664 13.9453 25.5664Z" fill="black" fill-opacity="0.85"/>
  <path d="M7.45117 19.4688L12.1953 19.4688C12.6738 19.4688 12.9609 19.1543 12.9609 18.6758C12.9609 18.1562 12.6602 17.8691 12.1953 17.8691L8.94141 17.8691L8.94141 17.7598L10.9375 15.2305C12.3047 13.5352 12.7559 12.5234 12.7559 11.3203C12.7559 9.47461 11.498 8.13477 9.61133 8.13477C7.86133 8.13477 6.53516 9.58398 6.53516 11.0059C6.53516 11.5117 6.83594 11.8672 7.35547 11.8672C7.80664 11.8672 8.08008 11.6621 8.23047 11.2109C8.49023 10.2949 8.81836 9.7207 9.61133 9.7207C10.4316 9.7207 10.8965 10.4453 10.8965 11.416C10.8965 12.5098 10.1309 13.6172 9.40625 14.5469L7.02734 17.582C6.78125 17.9102 6.52148 18.252 6.52148 18.6758C6.52148 19.1406 6.82227 19.4688 7.45117 19.4688ZM18.0059 19.7559C20.0977 19.7559 21.2871 18.0059 21.2871 15.8594C21.2871 14.0137 20.3984 12.2637 18.5801 12.2637C17.4727 12.2637 16.6387 13.002 16.3242 14.1777L16.2695 14.1777C16.2695 14.123 16.2695 14.0684 16.2695 14.0273C16.2695 12.5098 16.4609 9.76172 17.9785 9.76172C18.6074 9.76172 19.0176 10.1992 19.25 10.7734C19.4414 11.1973 19.7148 11.3887 20.1523 11.3887C20.6992 11.3887 20.9316 11.0195 20.9316 10.5684C20.9316 10.418 20.918 10.2539 20.877 10.0762C20.5762 8.90039 19.4004 8.16211 18.0332 8.16211C15.2168 8.16211 14.4102 11.3066 14.4102 14.082C14.4102 16.666 15.2305 19.7559 18.0059 19.7559ZM17.9785 18.1562C16.9531 18.1562 16.5293 16.8711 16.5293 15.8867C16.5293 14.8887 16.9941 13.7539 17.9785 13.7539C18.9902 13.7539 19.4141 14.9297 19.3867 15.9414C19.3867 16.9395 18.9355 18.1562 17.9785 18.1562Z" fill="black" fill-opacity="0.85"/>
 </g>
</svg>
