<?xml version="1.0" encoding="UTF-8"?>
<!--Generator: Apple Native CoreSVG 326-->
<!DOCTYPE svg
PUBLIC "-//W3C//DTD SVG 1.1//EN"
       "http://www.w3.org/Graphics/SVG/1.1/DTD/svg11.dtd">
<svg version="1.1" xmlns="http://www.w3.org/2000/svg" xmlns:xlink="http://www.w3.org/1999/xlink" viewBox="0 0 28.2461 27.9043">
 <g>
  <rect height="27.9043" opacity="0" width="28.2461" x="0" y="0"/>
  <path d="M13.9453 27.8906C21.6426 27.8906 27.8906 21.6289 27.8906 13.9453C27.8906 6.24805 21.6426 0 13.9453 0C6.26172 0 0 6.24805 0 13.9453C0 21.6289 6.26172 27.8906 13.9453 27.8906Z" fill="black" fill-opacity="0.85"/>
  <path d="M7.25977 19.6465C6.60352 19.6465 6.30273 19.3047 6.30273 18.8262C6.30273 18.375 6.5625 18.0195 6.82227 17.6914L9.26953 14.5605C10.0078 13.6172 10.8008 12.4688 10.8008 11.334C10.8008 10.3359 10.3223 9.59766 9.48828 9.59766C8.66797 9.59766 8.33984 10.1855 8.06641 11.1289C7.92969 11.5938 7.62891 11.7988 7.16406 11.7988C6.61719 11.7988 6.31641 11.4434 6.31641 10.9102C6.31641 9.44727 7.69727 7.95703 9.48828 7.95703C11.4297 7.95703 12.7285 9.33789 12.7285 11.2383C12.7285 12.4824 12.2637 13.5215 10.8555 15.2715L8.80469 17.8691L8.80469 17.9785L12.1543 17.9785C12.6328 17.9785 12.9473 18.2793 12.9473 18.8262C12.9473 19.3184 12.6465 19.6465 12.1543 19.6465ZM18.1562 19.9336C15.2852 19.9336 14.4375 16.748 14.4375 14.082C14.4375 11.2246 15.2715 7.98438 18.1836 7.98438C19.5918 7.98438 20.8086 8.73633 21.1094 9.95312C21.1641 10.1309 21.1777 10.3086 21.1777 10.459C21.1777 10.9238 20.9316 11.3066 20.3711 11.3066C19.9062 11.3066 19.6328 11.1152 19.4277 10.6777C19.1953 10.0898 18.7715 9.63867 18.1289 9.63867C16.5566 9.63867 16.3652 12.4688 16.3652 14.0273C16.3652 14.0684 16.3652 14.123 16.3652 14.1777L16.4199 14.1777C16.748 12.9746 17.6094 12.209 18.7441 12.209C20.6172 12.209 21.5332 14.0137 21.5332 15.9141C21.5332 18.1289 20.3164 19.9336 18.1562 19.9336ZM18.1289 18.2793C19.1133 18.2793 19.5645 17.0352 19.5645 16.0098C19.5918 14.9707 19.168 13.7539 18.1289 13.7539C17.1172 13.7539 16.6387 14.916 16.6387 15.9551C16.6387 16.9531 17.0625 18.2793 18.1289 18.2793Z" fill="white"/>
 </g>
</svg>
