<?xml version="1.0" encoding="UTF-8"?>
<!--Generator: Apple Native CoreSVG 326-->
<!DOCTYPE svg
PUBLIC "-//W3C//DTD SVG 1.1//EN"
       "http://www.w3.org/Graphics/SVG/1.1/DTD/svg11.dtd">
<svg version="1.1" xmlns="http://www.w3.org/2000/svg" xmlns:xlink="http://www.w3.org/1999/xlink" viewBox="0 0 25.5254 25.1699">
 <g>
  <rect height="25.1699" opacity="0" width="25.5254" x="0" y="0"/>
  <path d="M4.29297 25.1699L20.877 25.1699C23.748 25.1699 25.1699 23.7617 25.1699 20.9453L25.1699 4.23828C25.1699 1.42188 23.748 0 20.877 0L4.29297 0C1.43555 0 0 1.42188 0 4.23828L0 20.9453C0 23.7617 1.43555 25.1699 4.29297 25.1699ZM4.32031 22.9688C2.95312 22.9688 2.20117 22.2441 2.20117 20.8223L2.20117 4.36133C2.20117 2.93945 2.95312 2.20117 4.32031 2.20117L20.8496 2.20117C22.2031 2.20117 22.9688 2.93945 22.9688 4.36133L22.9688 20.8223C22.9688 22.2441 22.2031 22.9688 20.8496 22.9688Z" fill="black" fill-opacity="0.85"/>
  <path d="M6.11133 18.1016L10.8555 18.1016C11.334 18.1016 11.6348 17.7871 11.6348 17.3086C11.6348 16.7891 11.3203 16.502 10.8555 16.502L7.60156 16.502L7.60156 16.3926L9.59766 13.8633C10.9785 12.168 11.416 11.1562 11.416 9.95312C11.416 8.10742 10.1719 6.76758 8.27148 6.76758C6.53516 6.76758 5.20898 8.2168 5.20898 9.63867C5.20898 10.1445 5.49609 10.5 6.01562 10.5C6.4668 10.5 6.75391 10.2949 6.89062 9.84375C7.15039 8.92773 7.49219 8.35352 8.27148 8.35352C9.0918 8.35352 9.55664 9.07812 9.55664 10.0488C9.55664 11.1426 8.79102 12.25 8.06641 13.1797L5.70117 16.2148C5.44141 16.543 5.18164 16.8848 5.18164 17.3086C5.18164 17.7734 5.48242 18.1016 6.11133 18.1016ZM16.666 18.3887C18.7578 18.3887 19.9473 16.6387 19.9473 14.4922C19.9473 12.6465 19.0586 10.8965 17.2402 10.8965C16.1328 10.8965 15.2988 11.6348 14.9844 12.8105L14.9297 12.8105C14.9297 12.7559 14.9297 12.7012 14.9297 12.6602C14.9297 11.1426 15.1211 8.39453 16.6387 8.39453C17.2676 8.39453 17.6777 8.83203 17.9102 9.40625C18.1152 9.83008 18.375 10.0215 18.8125 10.0215C19.3594 10.0215 19.5918 9.65234 19.5918 9.20117C19.5918 9.05078 19.5781 8.88672 19.5371 8.70898C19.2363 7.5332 18.0605 6.79492 16.6934 6.79492C13.8906 6.79492 13.0703 9.93945 13.0703 12.7148C13.0703 15.2988 13.8906 18.3887 16.666 18.3887ZM16.6387 16.7891C15.6133 16.7891 15.1895 15.5039 15.1895 14.5195C15.1895 13.5215 15.6543 12.3867 16.6387 12.3867C17.6504 12.3867 18.0742 13.5625 18.0469 14.5742C18.0469 15.5723 17.5957 16.7891 16.6387 16.7891Z" fill="black" fill-opacity="0.85"/>
 </g>
</svg>
