<?xml version="1.0" encoding="UTF-8"?>
<!--Generator: Apple Native CoreSVG 326-->
<!DOCTYPE svg
PUBLIC "-//W3C//DTD SVG 1.1//EN"
       "http://www.w3.org/Graphics/SVG/1.1/DTD/svg11.dtd">
<svg version="1.1" xmlns="http://www.w3.org/2000/svg" xmlns:xlink="http://www.w3.org/1999/xlink" viewBox="0 0 28.2461 27.9043">
 <g>
  <rect height="27.9043" opacity="0" width="28.2461" x="0" y="0"/>
  <path d="M13.9453 27.8906C21.6426 27.8906 27.8906 21.6426 27.8906 13.9453C27.8906 6.24805 21.6426 0 13.9453 0C6.24805 0 0 6.24805 0 13.9453C0 21.6426 6.24805 27.8906 13.9453 27.8906ZM13.9453 25.5664C7.51953 25.5664 2.32422 20.3711 2.32422 13.9453C2.32422 7.51953 7.51953 2.32422 13.9453 2.32422C20.3711 2.32422 25.5664 7.51953 25.5664 13.9453C25.5664 20.3711 20.3711 25.5664 13.9453 25.5664Z" fill="black" fill-opacity="0.85"/>
  <path d="M8.13477 19.4688L12.8789 19.4688C13.3711 19.4688 13.6582 19.1543 13.6582 18.6758C13.6582 18.1562 13.3574 17.8691 12.8789 17.8691L9.63867 17.8691L9.63867 17.7598L11.6348 15.2305C13.002 13.5352 13.4531 12.5234 13.4531 11.3203C13.4531 9.47461 12.1953 8.13477 10.3086 8.13477C8.55859 8.13477 7.23242 9.58398 7.23242 11.0059C7.23242 11.5117 7.5332 11.8672 8.05273 11.8672C8.50391 11.8672 8.77734 11.6621 8.92773 11.2109C9.17383 10.2949 9.51562 9.7207 10.2949 9.7207C11.1289 9.7207 11.5938 10.4453 11.5938 11.416C11.5938 12.5098 10.8281 13.6172 10.1035 14.5469L7.72461 17.582C7.47852 17.9102 7.21875 18.252 7.21875 18.6758C7.21875 19.1406 7.51953 19.4688 8.13477 19.4688ZM16.8438 19.6602C17.3496 19.6602 17.5684 19.4551 17.7598 18.9629L20.877 10.623C21.0273 10.1992 21.1367 9.87109 21.1367 9.47461C21.1367 8.8457 20.6582 8.42188 20.043 8.42188L15.627 8.42188C15.1621 8.42188 14.834 8.76367 14.834 9.22852C14.834 9.69336 15.1621 10.0352 15.627 10.0352L19.1406 10.0352L19.1406 10.1582L16.1191 18.0059C15.9961 18.3066 15.9414 18.4844 15.9414 18.8125C15.9414 19.209 16.2012 19.6602 16.8438 19.6602Z" fill="black" fill-opacity="0.85"/>
 </g>
</svg>
