<?xml version="1.0" encoding="UTF-8"?>
<!--Generator: Apple Native CoreSVG 326-->
<!DOCTYPE svg
PUBLIC "-//W3C//DTD SVG 1.1//EN"
       "http://www.w3.org/Graphics/SVG/1.1/DTD/svg11.dtd">
<svg version="1.1" xmlns="http://www.w3.org/2000/svg" xmlns:xlink="http://www.w3.org/1999/xlink" viewBox="0 0 25.5254 25.1699">
 <g>
  <rect height="25.1699" opacity="0" width="25.5254" x="0" y="0"/>
  <path d="M4.29297 25.1699L20.877 25.1699C23.748 25.1699 25.1699 23.7617 25.1699 20.9453L25.1699 4.23828C25.1699 1.42188 23.748 0 20.877 0L4.29297 0C1.43555 0 0 1.42188 0 4.23828L0 20.9453C0 23.7617 1.43555 25.1699 4.29297 25.1699Z" fill="black" fill-opacity="0.85"/>
  <path d="M6.00195 18.2793C5.3457 18.2793 5.04492 17.9375 5.04492 17.459C5.04492 17.0078 5.30469 16.6523 5.57812 16.3242L8.01172 13.1934C8.76367 12.25 9.55664 11.1016 9.55664 9.9668C9.55664 8.96875 9.07812 8.23047 8.23047 8.23047C7.42383 8.23047 7.08203 8.81836 6.80859 9.76172C6.67188 10.2266 6.38477 10.4316 5.91992 10.4316C5.35938 10.4316 5.07227 10.0762 5.07227 9.54297C5.07227 8.08008 6.43945 6.58984 8.24414 6.58984C10.1855 6.58984 11.4844 7.9707 11.4844 9.87109C11.4844 11.1152 11.0195 12.1543 9.59766 13.9043L7.56055 16.502L7.56055 16.6113L10.8965 16.6113C11.375 16.6113 11.7031 16.9121 11.7031 17.459C11.7031 17.9512 11.3887 18.2793 10.8965 18.2793ZM15.9277 14.3418C14.0547 14.3418 13.1387 12.5371 13.1387 10.6367C13.1387 8.42188 14.3828 6.61719 16.5293 6.61719C19.3867 6.61719 20.2344 9.80273 20.2344 12.4688C20.2344 15.3535 19.3867 18.5527 16.502 18.5527C15.0938 18.5527 13.8633 17.8145 13.5625 16.584C13.5215 16.4199 13.4805 16.2422 13.4805 16.0781C13.4805 15.6133 13.7402 15.2168 14.3281 15.2168C14.752 15.2168 15.0391 15.3945 15.2305 15.8594C15.4902 16.4609 15.9141 16.8984 16.543 16.8984C18.1152 16.8984 18.3066 14.082 18.3066 12.5234C18.3066 12.4824 18.3066 12.4277 18.3066 12.373L18.252 12.373C17.9375 13.5762 17.0762 14.3418 15.9277 14.3418ZM16.5566 12.7832C17.5684 12.7832 18.0469 11.6348 18.0469 10.541C18.0469 9.48828 17.6094 8.27148 16.5566 8.27148C15.5723 8.27148 15.0938 9.48828 15.0938 10.541C15.0938 11.5938 15.5176 12.7832 16.5566 12.7832Z" fill="white"/>
 </g>
</svg>
