<?xml version="1.0" encoding="UTF-8"?>
<!--Generator: Apple Native CoreSVG 326-->
<!DOCTYPE svg
PUBLIC "-//W3C//DTD SVG 1.1//EN"
       "http://www.w3.org/Graphics/SVG/1.1/DTD/svg11.dtd">
<svg version="1.1" xmlns="http://www.w3.org/2000/svg" xmlns:xlink="http://www.w3.org/1999/xlink" viewBox="0 0 25.5254 20.6309">
 <g>
  <rect height="20.6309" opacity="0" width="25.5254" x="0" y="0"/>
  <path d="M0 19.5234C0 20.125 0.492188 20.6309 1.09375 20.6309C1.70898 20.6309 2.20117 20.125 2.20117 19.5234L2.20117 1.12109C2.20117 0.519531 1.70898 0.0273438 1.09375 0.0273438C0.492188 0.0273438 0 0.519531 0 1.12109ZM22.9688 19.5234C22.9688 20.125 23.4746 20.6309 24.0762 20.6309C24.6777 20.6309 25.1699 20.125 25.1699 19.5234L25.1699 1.12109C25.1699 0.519531 24.6777 0.0273438 24.0762 0.0273438C23.4746 0.0273438 22.9688 0.519531 22.9688 1.12109Z" fill="black" fill-opacity="0.85"/>
  <path d="M12.5371 16.7891C14.8203 16.7891 16.6523 15.4629 16.6523 13.2617C16.6523 11.4844 15.4629 10.541 14.041 10.4043L14.041 10.377C15.4219 10.0625 16.2422 8.94141 16.2422 7.60156C16.2422 5.57812 14.5742 4.44336 12.4824 4.44336C10.7461 4.44336 9.24219 5.41406 8.90039 6.80859C8.85938 6.98633 8.83203 7.17773 8.83203 7.36914C8.83203 7.84766 9.07812 8.25781 9.73438 8.25781C10.2539 8.25781 10.541 8.03906 10.7188 7.56055C11.0059 6.61719 11.6074 6.15234 12.4961 6.15234C13.5352 6.15234 14.1914 6.82227 14.1914 7.86133C14.1914 8.99609 13.3984 9.66602 12.2637 9.66602L11.7988 9.66602C11.2793 9.66602 10.9512 9.9668 10.9512 10.459C10.9512 10.9648 11.293 11.252 11.7988 11.252L12.2773 11.252C13.5488 11.252 14.4648 11.7988 14.4648 13.1797C14.4648 14.2871 13.6855 15.0391 12.5508 15.0391C11.457 15.0391 10.8145 14.4785 10.541 13.6309C10.3496 13.1934 9.99414 12.9336 9.57031 12.9336C8.98242 12.9336 8.61328 13.2891 8.61328 13.877C8.61328 14.0684 8.64062 14.2461 8.68164 14.4238C9.07812 16.0098 10.8691 16.7891 12.5371 16.7891Z" fill="black" fill-opacity="0.85"/>
 </g>
</svg>
