<?xml version="1.0" encoding="UTF-8"?>
<!--Generator: Apple Native CoreSVG 326-->
<!DOCTYPE svg
PUBLIC "-//W3C//DTD SVG 1.1//EN"
       "http://www.w3.org/Graphics/SVG/1.1/DTD/svg11.dtd">
<svg version="1.1" xmlns="http://www.w3.org/2000/svg" xmlns:xlink="http://www.w3.org/1999/xlink" viewBox="0 0 28.2461 33.2127">
 <g>
  <rect height="33.2127" opacity="0" width="28.2461" x="0" y="0"/>
  <path d="M13.9453 30.5448C21.6426 30.5448 27.8906 24.2968 27.8906 16.5995C27.8906 11.91 25.6074 7.8495 22.0801 5.30653C21.4785 4.84169 20.6992 5.00575 20.3574 5.55263C20.0156 6.12684 20.1934 6.76942 20.7539 7.19325C23.6523 9.27138 25.5664 12.703 25.5664 16.5995C25.5664 23.0253 20.3711 28.2206 13.9453 28.2206C7.51953 28.2206 2.32422 23.0253 2.32422 16.5995C2.32422 11.0487 6.16602 6.46864 11.3066 5.27919L11.3066 7.24794C11.3066 8.21864 11.9766 8.46474 12.7285 7.9452L17.0898 4.8827C17.7051 4.4452 17.7188 3.78895 17.0898 3.33778L12.7422 0.275282C11.9766-0.257921 11.3066-0.0118272 11.3066 0.972548L11.3066 2.91395C4.9082 4.11708 0 9.77724 0 16.5995C0 24.2968 6.24805 30.5448 13.9453 30.5448Z" fill="black" fill-opacity="0.85"/>
  <path d="M9.57031 22.3007C11.5801 22.3007 13.1797 21.1386 13.1797 19.1972C13.1797 17.6249 12.1406 16.8046 10.8828 16.6815L10.8828 16.6542C12.0996 16.3808 12.8242 15.41 12.8242 14.2206C12.8242 12.4433 11.3613 11.4452 9.5293 11.4452C7.99805 11.4452 6.68555 12.3065 6.38477 13.537C6.34375 13.6874 6.31641 13.8651 6.31641 14.0292C6.31641 14.453 6.54883 14.8085 7.10938 14.8085C7.57422 14.8085 7.82031 14.6171 7.9707 14.1796C8.23047 13.3593 8.76367 12.9491 9.54297 12.9491C10.459 12.9491 11.0195 13.537 11.0195 14.453C11.0195 15.4511 10.3359 16.039 9.32422 16.039L8.92773 16.039C8.46289 16.039 8.18945 16.3124 8.18945 16.7362C8.18945 17.1874 8.47656 17.4335 8.92773 17.4335L9.35156 17.4335C10.459 17.4335 11.2656 17.912 11.2656 19.1151C11.2656 20.0858 10.582 20.7558 9.58398 20.7558C8.62695 20.7558 8.06641 20.2636 7.82031 19.5116C7.64258 19.1425 7.3418 18.91 6.97266 18.91C6.45312 18.91 6.125 19.2245 6.125 19.7304C6.125 19.8944 6.15234 20.0585 6.19336 20.2225C6.53516 21.6034 8.12109 22.3007 9.57031 22.3007ZM18.334 22.3007C21.0137 22.3007 21.9707 19.5526 21.9707 16.8456C21.9707 14.1522 21.0137 11.4042 18.334 11.4042C15.627 11.4042 14.6836 14.1659 14.6836 16.8456C14.6836 19.5663 15.6406 22.3007 18.334 22.3007ZM18.334 20.7558C17.1855 20.7558 16.6113 19.0741 16.6113 16.8456C16.6113 14.6308 17.1855 12.9628 18.334 12.9628C19.4688 12.9628 20.043 14.6308 20.043 16.8456C20.043 19.0741 19.4688 20.7558 18.334 20.7558Z" fill="black" fill-opacity="0.85"/>
 </g>
</svg>
