<?xml version="1.0" encoding="UTF-8"?>
<!--Generator: Apple Native CoreSVG 326-->
<!DOCTYPE svg
PUBLIC "-//W3C//DTD SVG 1.1//EN"
       "http://www.w3.org/Graphics/SVG/1.1/DTD/svg11.dtd">
<svg version="1.1" xmlns="http://www.w3.org/2000/svg" xmlns:xlink="http://www.w3.org/1999/xlink" viewBox="0 0 25.5254 25.1699">
 <g>
  <rect height="25.1699" opacity="0" width="25.5254" x="0" y="0"/>
  <path d="M4.29297 25.1699L20.877 25.1699C23.748 25.1699 25.1699 23.7617 25.1699 20.9453L25.1699 4.23828C25.1699 1.42188 23.748 0 20.877 0L4.29297 0C1.43555 0 0 1.42188 0 4.23828L0 20.9453C0 23.7617 1.43555 25.1699 4.29297 25.1699ZM4.32031 22.9688C2.95312 22.9688 2.20117 22.2441 2.20117 20.8223L2.20117 4.36133C2.20117 2.93945 2.95312 2.20117 4.32031 2.20117L20.8496 2.20117C22.2031 2.20117 22.9688 2.93945 22.9688 4.36133L22.9688 20.8223C22.9688 22.2441 22.2031 22.9688 20.8496 22.9688Z" fill="black" fill-opacity="0.85"/>
  <path d="M9.37891 18.3477C11.334 18.3477 12.8516 17.1172 12.8516 15.0664C12.8516 13.3711 11.8262 12.5371 10.6777 12.4141L10.6777 12.373C11.9219 12.0449 12.5234 10.9375 12.5234 9.78906C12.5234 7.90234 11.1016 6.82227 9.32422 6.82227C7.91602 6.82227 6.68555 7.61523 6.30273 8.83203C6.2207 9.0918 6.19336 9.33789 6.19336 9.57031C6.19336 10.0215 6.49414 10.377 7.02734 10.377C7.50586 10.377 7.76562 10.1992 7.90234 9.7207C8.12109 8.91406 8.55859 8.4082 9.32422 8.4082C10.2266 8.4082 10.6641 9.10547 10.6641 10.0078C10.6641 11.0059 10.1035 11.7305 9.07812 11.7305L8.75 11.7305C8.28516 11.7305 7.99805 12.0176 7.99805 12.4688C7.99805 12.9199 8.29883 13.1797 8.75 13.1797L9.0918 13.1797C10.2539 13.1797 10.8965 13.8223 10.8965 15.0117C10.8965 15.9551 10.3906 16.7617 9.37891 16.7617C8.38086 16.7617 7.94336 16.0918 7.7793 15.4629C7.64258 15.0254 7.35547 14.793 6.9043 14.793C6.37109 14.793 6.01562 15.1211 6.01562 15.6543C6.01562 15.9004 6.05664 16.1465 6.125 16.3652C6.52148 17.6367 7.90234 18.3477 9.37891 18.3477ZM17.4453 18.252C17.9785 18.252 18.4297 17.8008 18.4297 17.2539L18.4297 7.98438C18.4297 7.28711 17.9922 6.87695 17.2812 6.87695C16.707 6.87695 16.2422 7.19141 15.9277 7.4375L14.4238 8.59961C14.1777 8.79102 13.9863 9.05078 13.9863 9.40625C13.9863 9.83008 14.2734 10.1309 14.6973 10.1309C14.9023 10.1309 15.0391 10.0625 15.1758 9.9668L16.4336 8.95508L16.4336 17.2539C16.4336 17.8008 16.8848 18.252 17.4453 18.252Z" fill="black" fill-opacity="0.85"/>
 </g>
</svg>
