<?xml version="1.0" encoding="UTF-8"?>
<!--Generator: Apple Native CoreSVG 326-->
<!DOCTYPE svg
PUBLIC "-//W3C//DTD SVG 1.1//EN"
       "http://www.w3.org/Graphics/SVG/1.1/DTD/svg11.dtd">
<svg version="1.1" xmlns="http://www.w3.org/2000/svg" xmlns:xlink="http://www.w3.org/1999/xlink" viewBox="0 0 25.5254 25.1699">
 <g>
  <rect height="25.1699" opacity="0" width="25.5254" x="0" y="0"/>
  <path d="M4.29297 25.1699L20.877 25.1699C23.748 25.1699 25.1699 23.7617 25.1699 20.9453L25.1699 4.23828C25.1699 1.42188 23.748 0 20.877 0L4.29297 0C1.43555 0 0 1.42188 0 4.23828L0 20.9453C0 23.7617 1.43555 25.1699 4.29297 25.1699ZM4.32031 22.9688C2.95312 22.9688 2.20117 22.2441 2.20117 20.8223L2.20117 4.36133C2.20117 2.93945 2.95312 2.20117 4.32031 2.20117L20.8496 2.20117C22.2031 2.20117 22.9688 2.93945 22.9688 4.36133L22.9688 20.8223C22.9688 22.2441 22.2031 22.9688 20.8496 22.9688Z" fill="black" fill-opacity="0.85"/>
  <path d="M8.51758 18.3477C10.4727 18.3477 11.9902 17.1172 11.9902 15.0664C11.9902 13.3711 10.9648 12.5371 9.81641 12.4141L9.81641 12.373C11.0605 12.0449 11.6621 10.9375 11.6621 9.78906C11.6621 7.90234 10.2402 6.82227 8.46289 6.82227C7.05469 6.82227 5.82422 7.61523 5.44141 8.83203C5.35938 9.0918 5.33203 9.33789 5.33203 9.57031C5.33203 10.0215 5.63281 10.377 6.16602 10.377C6.64453 10.377 6.9043 10.1992 7.04102 9.7207C7.25977 8.91406 7.69727 8.4082 8.46289 8.4082C9.36523 8.4082 9.80273 9.10547 9.80273 10.0078C9.80273 11.0059 9.24219 11.7305 8.2168 11.7305L7.88867 11.7305C7.42383 11.7305 7.13672 12.0176 7.13672 12.4688C7.13672 12.9199 7.4375 13.1797 7.88867 13.1797L8.23047 13.1797C9.39258 13.1797 10.0352 13.8223 10.0352 15.0117C10.0352 15.9551 9.5293 16.7617 8.51758 16.7617C7.51953 16.7617 7.08203 16.0918 6.9043 15.4629C6.78125 15.0254 6.49414 14.793 6.04297 14.793C5.50977 14.793 5.1543 15.1211 5.1543 15.6543C5.1543 15.9004 5.19531 16.1465 5.26367 16.3652C5.66016 17.6367 7.04102 18.3477 8.51758 18.3477ZM14.3145 18.1016L19.0723 18.1016C19.5508 18.1016 19.8379 17.7871 19.8379 17.3086C19.8379 16.7891 19.5371 16.502 19.0723 16.502L15.8184 16.502L15.8184 16.3926L17.8145 13.8633C19.1816 12.168 19.6328 11.1562 19.6328 9.95312C19.6328 8.10742 18.375 6.76758 16.4883 6.76758C14.7383 6.76758 13.4121 8.2168 13.4121 9.63867C13.4121 10.1445 13.7129 10.5 14.2324 10.5C14.6836 10.5 14.957 10.2949 15.1074 9.84375C15.3535 8.92773 15.6953 8.35352 16.4883 8.35352C17.3086 8.35352 17.7734 9.07812 17.7734 10.0488C17.7734 11.1426 17.0078 12.25 16.2832 13.1797L13.9043 16.2148C13.6582 16.543 13.3984 16.8848 13.3984 17.3086C13.3984 17.7734 13.6992 18.1016 14.3145 18.1016Z" fill="black" fill-opacity="0.85"/>
 </g>
</svg>
