<?xml version="1.0" encoding="UTF-8"?>
<!--Generator: Apple Native CoreSVG 326-->
<!DOCTYPE svg
PUBLIC "-//W3C//DTD SVG 1.1//EN"
       "http://www.w3.org/Graphics/SVG/1.1/DTD/svg11.dtd">
<svg version="1.1" xmlns="http://www.w3.org/2000/svg" xmlns:xlink="http://www.w3.org/1999/xlink" viewBox="0 0 25.5254 25.1699">
 <g>
  <rect height="25.1699" opacity="0" width="25.5254" x="0" y="0"/>
  <path d="M4.29297 25.1699L20.877 25.1699C23.748 25.1699 25.1699 23.7617 25.1699 20.9453L25.1699 4.23828C25.1699 1.42188 23.748 0 20.877 0L4.29297 0C1.43555 0 0 1.42188 0 4.23828L0 20.9453C0 23.7617 1.43555 25.1699 4.29297 25.1699Z" fill="black" fill-opacity="0.85"/>
  <path d="M8.39453 18.5254C6.86328 18.5254 5.44141 17.8008 5.03125 16.4883C4.96289 16.2559 4.92188 16.0098 4.92188 15.75C4.92188 15.2031 5.29102 14.8613 5.83789 14.8613C6.30273 14.8613 6.60352 15.0938 6.72656 15.5586C6.91797 16.2012 7.36914 16.8848 8.39453 16.8848C9.43359 16.8848 9.95312 16.0645 9.95312 15.0938C9.95312 13.8633 9.2832 13.207 8.09375 13.207L7.73828 13.207C7.27344 13.207 6.95898 12.9336 6.95898 12.4688C6.95898 12.0039 7.25977 11.7031 7.73828 11.7031L8.08008 11.7031C9.13281 11.7031 9.70703 10.9512 9.70703 9.92578C9.70703 8.99609 9.25586 8.28516 8.32617 8.28516C7.54688 8.28516 7.0957 8.80469 6.87695 9.63867C6.72656 10.1309 6.45312 10.3086 5.96094 10.3086C5.41406 10.3086 5.09961 9.93945 5.09961 9.47461C5.09961 9.24219 5.12695 8.98242 5.20898 8.70898C5.60547 7.46484 6.87695 6.64453 8.32617 6.64453C10.1719 6.64453 11.6348 7.75195 11.6348 9.70703C11.6348 10.8828 11.0195 12.0312 9.73438 12.373L9.73438 12.4141C10.9102 12.5371 11.9766 13.3984 11.9766 15.1484C11.9766 17.2676 10.4043 18.5254 8.39453 18.5254ZM14.3691 18.2793C13.7402 18.2793 13.4258 17.9375 13.4258 17.459C13.4258 17.0078 13.6992 16.666 13.9453 16.3242L16.3926 13.1934C17.1445 12.25 17.9375 11.1016 17.9375 9.9668C17.9375 8.96875 17.459 8.23047 16.6113 8.23047C15.8047 8.23047 15.4492 8.81836 15.2031 9.76172C15.0391 10.2266 14.752 10.4453 14.2871 10.4453C13.7539 10.4453 13.4395 10.0762 13.4395 9.54297C13.4395 8.08008 14.8066 6.58984 16.6113 6.58984C18.5664 6.58984 19.8652 7.9707 19.8652 9.87109C19.8652 11.1152 19.4004 12.1543 17.9922 13.9043L15.9277 16.502L15.9277 16.6113L19.2773 16.6113C19.7695 16.6113 20.0703 16.9121 20.0703 17.459C20.0703 17.9512 19.7832 18.2793 19.2773 18.2793Z" fill="white"/>
 </g>
</svg>
