<?xml version="1.0" encoding="UTF-8"?>
<!--Generator: Apple Native CoreSVG 326-->
<!DOCTYPE svg
PUBLIC "-//W3C//DTD SVG 1.1//EN"
       "http://www.w3.org/Graphics/SVG/1.1/DTD/svg11.dtd">
<svg version="1.1" xmlns="http://www.w3.org/2000/svg" xmlns:xlink="http://www.w3.org/1999/xlink" viewBox="0 0 28.2461 27.9043">
 <g>
  <rect height="27.9043" opacity="0" width="28.2461" x="0" y="0"/>
  <path d="M13.9453 27.8906C21.6426 27.8906 27.8906 21.6289 27.8906 13.9453C27.8906 6.24805 21.6426 0 13.9453 0C6.26172 0 0 6.24805 0 13.9453C0 21.6289 6.26172 27.8906 13.9453 27.8906Z" fill="black" fill-opacity="0.85"/>
  <path d="M9.37891 19.8926C7.86133 19.8926 6.42578 19.168 6.01562 17.8555C5.94727 17.623 5.90625 17.377 5.90625 17.1172C5.90625 16.5703 6.27539 16.2285 6.83594 16.2285C7.28711 16.2285 7.58789 16.4609 7.72461 16.9258C7.90234 17.5684 8.36719 18.252 9.37891 18.252C10.4316 18.252 10.9375 17.418 10.9375 16.4473C10.9375 15.2305 10.2676 14.5742 9.0918 14.5742L8.72266 14.5742C8.25781 14.5742 7.94336 14.3008 7.94336 13.8359C7.94336 13.3711 8.24414 13.0703 8.72266 13.0703L9.06445 13.0703C10.1172 13.0703 10.6914 12.3184 10.6914 11.293C10.6914 10.3633 10.2402 9.65234 9.32422 9.65234C8.53125 9.65234 8.08008 10.1719 7.875 11.0059C7.72461 11.498 7.4375 11.6758 6.95898 11.6758C6.39844 11.6758 6.08398 11.3066 6.08398 10.8418C6.08398 10.5957 6.125 10.3496 6.19336 10.0762C6.60352 8.83203 7.86133 8.01172 9.32422 8.01172C11.1699 8.01172 12.6191 9.11914 12.6191 11.0742C12.6191 12.25 12.0039 13.3984 10.7188 13.7402L10.7188 13.7812C11.9082 13.9043 12.9609 14.7656 12.9609 16.5156C12.9609 18.6211 11.4023 19.8926 9.37891 19.8926ZM19.6738 19.8242C19.2227 19.8242 18.7031 19.5645 18.7031 18.8125L18.7031 17.418L15.5449 17.418C14.8477 17.418 14.3828 16.9531 14.3828 16.2695C14.3828 15.832 14.4512 15.4629 14.6973 14.916L17.2129 9.44727C17.6094 8.57227 18.0742 8.06641 19.0586 8.06641C20.002 8.06641 20.6445 8.61328 20.6445 9.59766L20.6445 15.7773L21.1367 15.7773C21.7109 15.7773 21.9297 16.1328 21.9297 16.584C21.9297 17.0625 21.6836 17.418 21.1367 17.418L20.6445 17.418L20.6445 18.8125C20.6445 19.4961 20.1934 19.8242 19.6738 19.8242ZM18.7441 15.8184L18.7441 9.84375L18.6895 9.84375L16.1191 15.7227L16.1191 15.8184Z" fill="white"/>
 </g>
</svg>
