<?xml version="1.0" encoding="UTF-8"?>
<!--Generator: Apple Native CoreSVG 326-->
<!DOCTYPE svg
PUBLIC "-//W3C//DTD SVG 1.1//EN"
       "http://www.w3.org/Graphics/SVG/1.1/DTD/svg11.dtd">
<svg version="1.1" xmlns="http://www.w3.org/2000/svg" xmlns:xlink="http://www.w3.org/1999/xlink" viewBox="0 0 28.2461 27.9043">
 <g>
  <rect height="27.9043" opacity="0" width="28.2461" x="0" y="0"/>
  <path d="M13.9453 27.8906C21.6426 27.8906 27.8906 21.6426 27.8906 13.9453C27.8906 6.24805 21.6426 0 13.9453 0C6.24805 0 0 6.24805 0 13.9453C0 21.6426 6.24805 27.8906 13.9453 27.8906ZM13.9453 25.5664C7.51953 25.5664 2.32422 20.3711 2.32422 13.9453C2.32422 7.51953 7.51953 2.32422 13.9453 2.32422C20.3711 2.32422 25.5664 7.51953 25.5664 13.9453C25.5664 20.3711 20.3711 25.5664 13.9453 25.5664Z" fill="black" fill-opacity="0.85"/>
  <path d="M9.63867 19.7148C11.6074 19.7148 13.1113 18.4844 13.1113 16.4336C13.1113 14.7383 12.0996 13.9043 10.9512 13.7812L10.9512 13.7402C12.1816 13.4121 12.7832 12.3047 12.7832 11.1562C12.7832 9.26953 11.375 8.18945 9.59766 8.18945C8.17578 8.18945 6.95898 8.98242 6.5625 10.1992C6.49414 10.459 6.4668 10.7051 6.4668 10.9375C6.4668 11.3887 6.75391 11.7441 7.30078 11.7441C7.76562 11.7441 8.03906 11.5664 8.17578 11.0879C8.39453 10.2812 8.81836 9.77539 9.59766 9.77539C10.5 9.77539 10.9238 10.4727 10.9238 11.375C10.9238 12.373 10.3633 13.0977 9.33789 13.0977L9.02344 13.0977C8.55859 13.0977 8.25781 13.3848 8.25781 13.8359C8.25781 14.2871 8.57227 14.5469 9.02344 14.5469L9.36523 14.5469C10.5273 14.5469 11.1699 15.1895 11.1699 16.3789C11.1699 17.3223 10.6641 18.1289 9.65234 18.1289C8.6543 18.1289 8.20312 17.459 8.03906 16.8301C7.91602 16.3926 7.61523 16.1602 7.17773 16.1602C6.64453 16.1602 6.28906 16.4883 6.28906 17.0215C6.28906 17.2676 6.31641 17.5137 6.38477 17.7324C6.78125 19.0039 8.17578 19.7148 9.63867 19.7148ZM18.1699 19.7559C20.2617 19.7559 21.4512 18.0059 21.4512 15.8594C21.4512 14.0137 20.5625 12.2637 18.7578 12.2637C17.6504 12.2637 16.8027 13.002 16.4883 14.1777L16.4473 14.1777C16.4473 14.123 16.4473 14.0684 16.4473 14.0273C16.4473 12.5098 16.625 9.76172 18.1562 9.76172C18.7715 9.76172 19.1816 10.1992 19.4277 10.7734C19.6191 11.1973 19.8789 11.3887 20.3164 11.3887C20.8633 11.3887 21.1094 11.0195 21.1094 10.5684C21.1094 10.418 21.082 10.2539 21.041 10.0762C20.7539 8.90039 19.5645 8.16211 18.1973 8.16211C15.3945 8.16211 14.5742 11.3066 14.5742 14.082C14.5742 16.666 15.4082 19.7559 18.1699 19.7559ZM18.1426 18.1562C17.1172 18.1562 16.707 16.8711 16.707 15.8867C16.707 14.8887 17.1582 13.7539 18.1426 13.7539C19.1543 13.7539 19.5781 14.9297 19.5508 15.9414C19.5508 16.9395 19.0996 18.1562 18.1426 18.1562Z" fill="black" fill-opacity="0.85"/>
 </g>
</svg>
