<?xml version="1.0" encoding="UTF-8"?>
<!--Generator: Apple Native CoreSVG 326-->
<!DOCTYPE svg
PUBLIC "-//W3C//DTD SVG 1.1//EN"
       "http://www.w3.org/Graphics/SVG/1.1/DTD/svg11.dtd">
<svg version="1.1" xmlns="http://www.w3.org/2000/svg" xmlns:xlink="http://www.w3.org/1999/xlink" viewBox="0 0 25.5254 25.1699">
 <g>
  <rect height="25.1699" opacity="0" width="25.5254" x="0" y="0"/>
  <path d="M4.29297 25.1699L20.877 25.1699C23.748 25.1699 25.1699 23.7617 25.1699 20.9453L25.1699 4.23828C25.1699 1.42188 23.748 0 20.877 0L4.29297 0C1.43555 0 0 1.42188 0 4.23828L0 20.9453C0 23.7617 1.43555 25.1699 4.29297 25.1699ZM4.32031 22.9688C2.95312 22.9688 2.20117 22.2441 2.20117 20.8223L2.20117 4.36133C2.20117 2.93945 2.95312 2.20117 4.32031 2.20117L20.8496 2.20117C22.2031 2.20117 22.9688 2.93945 22.9688 4.36133L22.9688 20.8223C22.9688 22.2441 22.2031 22.9688 20.8496 22.9688Z" fill="black" fill-opacity="0.85"/>
  <path d="M8.3125 18.3477C10.2676 18.3477 11.7852 17.1172 11.7852 15.0664C11.7852 13.3711 10.7598 12.5371 9.61133 12.4141L9.61133 12.373C10.8418 12.0449 11.457 10.9375 11.457 9.78906C11.457 7.90234 10.0352 6.82227 8.25781 6.82227C6.84961 6.82227 5.61914 7.61523 5.23633 8.83203C5.1543 9.0918 5.12695 9.33789 5.12695 9.57031C5.12695 10.0215 5.42773 10.377 5.96094 10.377C6.43945 10.377 6.69922 10.1992 6.83594 9.7207C7.05469 8.91406 7.49219 8.4082 8.25781 8.4082C9.16016 8.4082 9.58398 9.10547 9.58398 10.0078C9.58398 11.0059 9.03711 11.7305 8.01172 11.7305L7.68359 11.7305C7.21875 11.7305 6.93164 12.0176 6.93164 12.4688C6.93164 12.9199 7.23242 13.1797 7.68359 13.1797L8.02539 13.1797C9.1875 13.1797 9.83008 13.8223 9.83008 15.0117C9.83008 15.9551 9.32422 16.7617 8.3125 16.7617C7.31445 16.7617 6.87695 16.0918 6.69922 15.4629C6.57617 15.0254 6.27539 14.793 5.83789 14.793C5.30469 14.793 4.94922 15.1211 4.94922 15.6543C4.94922 15.9004 4.99023 16.1465 5.05859 16.3652C5.45508 17.6367 6.83594 18.3477 8.3125 18.3477ZM15.8867 14.2871C16.9941 14.2871 17.8281 13.5488 18.1426 12.373L18.1973 12.373C18.1973 12.4277 18.1973 12.4824 18.1973 12.5234C18.1973 14.041 18.0059 16.7754 16.4746 16.7754C15.8594 16.7754 15.4492 16.3516 15.2168 15.7637C15.0117 15.3125 14.7383 15.1348 14.3281 15.1348C13.7539 15.1348 13.5078 15.5176 13.5078 15.9688C13.5078 16.1328 13.5488 16.2969 13.5898 16.4609C13.8906 17.6504 15.0801 18.375 16.4473 18.375C19.25 18.375 20.0566 15.2715 20.0566 12.4688C20.0566 9.88477 19.2363 6.79492 16.4609 6.79492C14.3828 6.79492 13.1797 8.54492 13.1797 10.6914C13.1797 12.5371 14.0684 14.2871 15.8867 14.2871ZM16.4883 12.7832C15.4766 12.7832 15.0801 11.6211 15.0801 10.6094C15.0801 9.58398 15.5312 8.38086 16.4883 8.38086C17.5273 8.38086 17.9375 9.58398 17.9375 10.6094C17.9375 11.6621 17.4863 12.7832 16.4883 12.7832Z" fill="black" fill-opacity="0.85"/>
 </g>
</svg>
