<?xml version="1.0" encoding="UTF-8"?>
<!--Generator: Apple Native CoreSVG 326-->
<!DOCTYPE svg
PUBLIC "-//W3C//DTD SVG 1.1//EN"
       "http://www.w3.org/Graphics/SVG/1.1/DTD/svg11.dtd">
<svg version="1.1" xmlns="http://www.w3.org/2000/svg" xmlns:xlink="http://www.w3.org/1999/xlink" viewBox="0 0 28.2461 27.9043">
 <g>
  <rect height="27.9043" opacity="0" width="28.2461" x="0" y="0"/>
  <path d="M13.9453 27.8906C21.6426 27.8906 27.8906 21.6426 27.8906 13.9453C27.8906 6.24805 21.6426 0 13.9453 0C6.24805 0 0 6.24805 0 13.9453C0 21.6426 6.24805 27.8906 13.9453 27.8906ZM13.9453 25.5664C7.51953 25.5664 2.32422 20.3711 2.32422 13.9453C2.32422 7.51953 7.51953 2.32422 13.9453 2.32422C20.3711 2.32422 25.5664 7.51953 25.5664 13.9453C25.5664 20.3711 20.3711 25.5664 13.9453 25.5664Z" fill="black" fill-opacity="0.85"/>
  <path d="M8.72266 16.4746C8.72266 17.1582 9.1875 17.6094 9.92578 17.6094L15.0664 17.6094L15.0664 19.3047C15.0664 20.0293 15.4355 20.4531 16.0645 20.4531C16.707 20.4531 17.0762 20.043 17.0762 19.3047L17.0762 17.6094L17.9922 17.6094C18.6074 17.6094 18.9766 17.2402 18.9766 16.666C18.9766 16.1465 18.6074 15.8047 17.9922 15.8047L17.0762 15.8047L17.0762 12.8516C17.0762 12.1133 16.707 11.7031 16.0645 11.7031C15.4355 11.7031 15.0664 12.127 15.0664 12.8516L15.0664 15.8047L11.2656 15.8047C12.5098 13.5078 13.6992 11.4297 14.9707 9.0918C15.0938 8.87305 15.1621 8.66797 15.1621 8.44922C15.1621 7.91602 14.8203 7.45117 14.1914 7.45117C13.7812 7.45117 13.4668 7.65625 13.2207 8.10742C11.7715 10.6641 10.418 13.043 8.95508 15.6133C8.79102 15.8867 8.72266 16.1875 8.72266 16.4746Z" fill="black" fill-opacity="0.85"/>
 </g>
</svg>
