<?xml version="1.0" encoding="UTF-8"?>
<!--Generator: Apple Native CoreSVG 326-->
<!DOCTYPE svg
PUBLIC "-//W3C//DTD SVG 1.1//EN"
       "http://www.w3.org/Graphics/SVG/1.1/DTD/svg11.dtd">
<svg version="1.1" xmlns="http://www.w3.org/2000/svg" xmlns:xlink="http://www.w3.org/1999/xlink" viewBox="0 0 25.5254 25.1699">
 <g>
  <rect height="25.1699" opacity="0" width="25.5254" x="0" y="0"/>
  <path d="M4.29297 25.1699L20.877 25.1699C23.748 25.1699 25.1699 23.7617 25.1699 20.9453L25.1699 4.23828C25.1699 1.42188 23.748 0 20.877 0L4.29297 0C1.43555 0 0 1.42188 0 4.23828L0 20.9453C0 23.7617 1.43555 25.1699 4.29297 25.1699ZM4.32031 22.9688C2.95312 22.9688 2.20117 22.2441 2.20117 20.8223L2.20117 4.36133C2.20117 2.93945 2.95312 2.20117 4.32031 2.20117L20.8496 2.20117C22.2031 2.20117 22.9688 2.93945 22.9688 4.36133L22.9688 20.8223C22.9688 22.2441 22.2031 22.9688 20.8496 22.9688Z" fill="black" fill-opacity="0.85"/>
  <path d="M7.38281 15.1074C7.38281 15.791 7.84766 16.2422 8.59961 16.2422L13.7266 16.2422L13.7266 17.9375C13.7266 18.6621 14.0957 19.0859 14.7246 19.0859C15.3672 19.0859 15.75 18.6758 15.75 17.9375L15.75 16.2422L16.6523 16.2422C17.2676 16.2422 17.6367 15.873 17.6367 15.2988C17.6367 14.7793 17.2676 14.4375 16.6523 14.4375L15.75 14.4375L15.75 11.4844C15.75 10.7461 15.3672 10.3359 14.7246 10.3359C14.0957 10.3359 13.7266 10.7598 13.7266 11.4844L13.7266 14.4375L9.92578 14.4375C11.1699 12.1406 12.373 10.0625 13.6309 7.72461C13.7539 7.50586 13.8223 7.30078 13.8223 7.08203C13.8223 6.54883 13.4805 6.08398 12.8516 6.08398C12.4414 6.08398 12.127 6.28906 11.8809 6.74023C10.4316 9.29688 9.07812 11.6758 7.61523 14.2461C7.45117 14.5195 7.38281 14.8203 7.38281 15.1074Z" fill="black" fill-opacity="0.85"/>
 </g>
</svg>
