<?xml version="1.0" encoding="UTF-8"?>
<!--Generator: Apple Native CoreSVG 326-->
<!DOCTYPE svg
PUBLIC "-//W3C//DTD SVG 1.1//EN"
       "http://www.w3.org/Graphics/SVG/1.1/DTD/svg11.dtd">
<svg version="1.1" xmlns="http://www.w3.org/2000/svg" xmlns:xlink="http://www.w3.org/1999/xlink" viewBox="0 0 25.5254 25.1699">
 <g>
  <rect height="25.1699" opacity="0" width="25.5254" x="0" y="0"/>
  <path d="M4.29297 25.1699L20.877 25.1699C23.748 25.1699 25.1699 23.7617 25.1699 20.9453L25.1699 4.23828C25.1699 1.42188 23.748 0 20.877 0L4.29297 0C1.43555 0 0 1.42188 0 4.23828L0 20.9453C0 23.7617 1.43555 25.1699 4.29297 25.1699Z" fill="black" fill-opacity="0.85"/>
  <path d="M7.21875 15.1895C7.21875 14.8887 7.28711 14.5879 7.45117 14.3008C8.96875 11.6484 10.3359 9.22852 11.8398 6.58984C12.0996 6.125 12.4141 5.90625 12.8516 5.90625C13.4941 5.90625 13.8496 6.38477 13.8496 6.94531C13.8496 7.16406 13.7812 7.38281 13.6582 7.61523C12.3457 10.0215 11.1426 12.127 9.85742 14.4922L13.7676 14.4922L13.7676 11.457C13.7676 10.7051 14.1504 10.2676 14.793 10.2676C15.4629 10.2676 15.8594 10.6914 15.8594 11.457L15.8594 14.4922L16.7891 14.4922C17.418 14.4922 17.8008 14.8477 17.8008 15.3945C17.8008 15.9824 17.418 16.3652 16.7891 16.3652L15.8594 16.3652L15.8594 17.8145C15.8594 18.5801 15.4629 19.0039 14.793 19.0039C14.1504 19.0039 13.7676 18.5664 13.7676 17.8145L13.7676 16.3652L8.47656 16.3652C7.69727 16.3652 7.21875 15.9004 7.21875 15.1895Z" fill="white"/>
 </g>
</svg>
