<?xml version="1.0" encoding="UTF-8"?>
<!--Generator: Apple Native CoreSVG 326-->
<!DOCTYPE svg
PUBLIC "-//W3C//DTD SVG 1.1//EN"
       "http://www.w3.org/Graphics/SVG/1.1/DTD/svg11.dtd">
<svg version="1.1" xmlns="http://www.w3.org/2000/svg" xmlns:xlink="http://www.w3.org/1999/xlink" viewBox="0 0 28.2461 27.9043">
 <g>
  <rect height="27.9043" opacity="0" width="28.2461" x="0" y="0"/>
  <path d="M13.9453 27.8906C21.6426 27.8906 27.8906 21.6289 27.8906 13.9453C27.8906 6.24805 21.6426 0 13.9453 0C6.26172 0 0 6.24805 0 13.9453C0 21.6289 6.26172 27.8906 13.9453 27.8906Z" fill="black" fill-opacity="0.85"/>
  <path d="M15.791 20.3711C15.1348 20.3711 14.752 19.9199 14.752 19.1816L14.752 17.7461L9.69336 17.7461C8.79102 17.7461 8.23047 17.1992 8.23047 16.3652C8.23047 15.9414 8.32617 15.5996 8.61328 15.1211C9.77539 13.2207 11.5117 10.6504 12.9746 8.43555C13.5352 7.58789 14.1641 7.23242 15.1484 7.23242C16.1602 7.23242 16.8438 7.83398 16.8438 8.72266L16.8438 15.8867L17.9238 15.8867C18.4844 15.8867 18.8535 16.2695 18.8535 16.8301C18.8535 17.377 18.4707 17.7461 17.9238 17.7461L16.8438 17.7461L16.8438 19.1816C16.8438 19.9336 16.4609 20.3711 15.791 20.3711ZM14.752 15.8867L14.752 9.06445L14.6562 9.06445C13.1797 11.293 11.3887 13.959 10.3086 15.8047L10.3086 15.8867Z" fill="white"/>
 </g>
</svg>
