<?xml version="1.0" encoding="UTF-8"?>
<!--Generator: Apple Native CoreSVG 326-->
<!DOCTYPE svg
PUBLIC "-//W3C//DTD SVG 1.1//EN"
       "http://www.w3.org/Graphics/SVG/1.1/DTD/svg11.dtd">
<svg version="1.1" xmlns="http://www.w3.org/2000/svg" xmlns:xlink="http://www.w3.org/1999/xlink" viewBox="0 0 28.2461 27.9043">
 <g>
  <rect height="27.9043" opacity="0" width="28.2461" x="0" y="0"/>
  <path d="M13.9453 27.8906C21.6426 27.8906 27.8906 21.6426 27.8906 13.9453C27.8906 6.24805 21.6426 0 13.9453 0C6.24805 0 0 6.24805 0 13.9453C0 21.6426 6.24805 27.8906 13.9453 27.8906ZM13.9453 25.5664C7.51953 25.5664 2.32422 20.3711 2.32422 13.9453C2.32422 7.51953 7.51953 2.32422 13.9453 2.32422C20.3711 2.32422 25.5664 7.51953 25.5664 13.9453C25.5664 20.3711 20.3711 25.5664 13.9453 25.5664Z" fill="black" fill-opacity="0.85"/>
  <path d="M15.7227 20.4531C16.3652 20.4531 16.7344 20.0293 16.7344 19.3047L16.7344 17.623L17.7871 17.623C18.3203 17.623 18.6895 17.2676 18.6895 16.7344C18.6895 16.2012 18.334 15.832 17.7871 15.832L16.7344 15.832L16.7344 8.87305C16.7344 8.01172 16.0781 7.4375 15.1074 7.4375C14.1504 7.4375 13.5488 7.7793 13.002 8.59961C11.5938 10.7324 9.89844 13.248 8.76367 15.0938C8.49023 15.5449 8.39453 15.873 8.39453 16.2832C8.39453 17.0898 8.94141 17.623 9.81641 17.623L14.7246 17.623L14.7246 19.3047C14.7246 20.0156 15.0938 20.4531 15.7227 20.4531ZM14.7246 15.832L10.4043 15.832L10.4043 15.75C11.4434 13.959 13.1934 11.3613 14.6289 9.20117L14.7246 9.20117Z" fill="black" fill-opacity="0.85"/>
 </g>
</svg>
