<?xml version="1.0" encoding="UTF-8"?>
<!--Generator: Apple Native CoreSVG 326-->
<!DOCTYPE svg
PUBLIC "-//W3C//DTD SVG 1.1//EN"
       "http://www.w3.org/Graphics/SVG/1.1/DTD/svg11.dtd">
<svg version="1.1" xmlns="http://www.w3.org/2000/svg" xmlns:xlink="http://www.w3.org/1999/xlink" viewBox="0 0 25.5254 20.6309">
 <g>
  <rect height="20.6309" opacity="0" width="25.5254" x="0" y="0"/>
  <path d="M0 19.5234C0 20.125 0.492188 20.6309 1.09375 20.6309C1.70898 20.6309 2.20117 20.125 2.20117 19.5234L2.20117 1.12109C2.20117 0.519531 1.70898 0.0273438 1.09375 0.0273438C0.492188 0.0273438 0 0.519531 0 1.12109ZM22.9688 19.5234C22.9688 20.125 23.4746 20.6309 24.0762 20.6309C24.6777 20.6309 25.1699 20.125 25.1699 19.5234L25.1699 1.12109C25.1699 0.519531 24.6777 0.0273438 24.0762 0.0273438C23.4746 0.0273438 22.9688 0.519531 22.9688 1.12109Z" fill="black" fill-opacity="0.85"/>
  <path d="M14.3418 16.707C14.8887 16.707 15.3672 16.3926 15.3672 15.6543L15.3672 14.2188L15.9961 14.2188C16.5977 14.2188 16.8574 13.8223 16.8574 13.3574C16.8574 12.8379 16.5703 12.4824 15.9961 12.4824L15.3672 12.4824L15.3672 6.09766C15.3672 5.07227 14.6836 4.52539 13.6719 4.52539C12.6465 4.52539 12.1543 5.07227 11.6758 5.97461C10.7598 7.57422 9.40625 10.0625 8.68164 11.5391C8.47656 12.0449 8.29883 12.5234 8.29883 13.0566C8.29883 13.7402 8.80469 14.2188 9.5293 14.2188L13.3164 14.2188L13.3164 15.6543C13.3164 16.3789 13.8086 16.707 14.3418 16.707ZM13.3711 12.5371L10.1445 12.5371L10.1445 12.4277C10.9922 10.5547 12.2773 8.14844 13.3027 6.34375L13.3711 6.34375Z" fill="black" fill-opacity="0.85"/>
 </g>
</svg>
