<?xml version="1.0" encoding="UTF-8"?>
<!--Generator: Apple Native CoreSVG 326-->
<!DOCTYPE svg
PUBLIC "-//W3C//DTD SVG 1.1//EN"
       "http://www.w3.org/Graphics/SVG/1.1/DTD/svg11.dtd">
<svg version="1.1" xmlns="http://www.w3.org/2000/svg" xmlns:xlink="http://www.w3.org/1999/xlink" viewBox="0 0 25.5254 25.1699">
 <g>
  <rect height="25.1699" opacity="0" width="25.5254" x="0" y="0"/>
  <path d="M4.29297 25.1699L20.877 25.1699C23.748 25.1699 25.1699 23.7617 25.1699 20.9453L25.1699 4.23828C25.1699 1.42188 23.748 0 20.877 0L4.29297 0C1.43555 0 0 1.42188 0 4.23828L0 20.9453C0 23.7617 1.43555 25.1699 4.29297 25.1699Z" fill="black" fill-opacity="0.85"/>
  <path d="M14.4375 19.0039C13.7949 19.0039 13.3984 18.5527 13.3984 17.8145L13.3984 16.3789L8.33984 16.3789C7.45117 16.3789 6.87695 15.832 6.87695 14.998C6.87695 14.5742 6.97266 14.2324 7.25977 13.7539C8.42188 11.8535 10.1582 9.2832 11.6348 7.06836C12.1816 6.2207 12.8105 5.86523 13.7949 5.86523C14.8066 5.86523 15.5039 6.4668 15.5039 7.35547L15.5039 14.5195L16.5703 14.5195C17.1309 14.5195 17.5 14.9023 17.5 15.4629C17.5 16.0098 17.1172 16.3789 16.5703 16.3789L15.5039 16.3789L15.5039 17.8145C15.5039 18.5664 15.1074 19.0039 14.4375 19.0039ZM13.3984 14.5195L13.3984 7.69727L13.3027 7.69727C11.8262 9.92578 10.0352 12.5918 8.95508 14.4375L8.95508 14.5195Z" fill="white"/>
 </g>
</svg>
