<?xml version="1.0" encoding="UTF-8"?>
<!--Generator: Apple Native CoreSVG 326-->
<!DOCTYPE svg
PUBLIC "-//W3C//DTD SVG 1.1//EN"
       "http://www.w3.org/Graphics/SVG/1.1/DTD/svg11.dtd">
<svg version="1.1" xmlns="http://www.w3.org/2000/svg" xmlns:xlink="http://www.w3.org/1999/xlink" viewBox="0 0 28.2461 27.9043">
 <g>
  <rect height="27.9043" opacity="0" width="28.2461" x="0" y="0"/>
  <path d="M13.9453 27.8906C21.6426 27.8906 27.8906 21.6289 27.8906 13.9453C27.8906 6.24805 21.6426 0 13.9453 0C6.26172 0 0 6.24805 0 13.9453C0 21.6289 6.26172 27.8906 13.9453 27.8906Z" fill="black" fill-opacity="0.85"/>
  <path d="M11.8125 19.8242C11.3613 19.8242 10.8145 19.5645 10.8145 18.8262L10.8145 17.418L7.68359 17.418C6.98633 17.418 6.52148 16.9531 6.52148 16.2695C6.52148 15.832 6.58984 15.4629 6.83594 14.916L9.35156 9.44727C9.74805 8.57227 10.2129 8.06641 11.1973 8.06641C12.1406 8.06641 12.7695 8.61328 12.7695 9.59766L12.7695 15.7773L13.2617 15.7773C13.8359 15.7773 14.0684 16.1328 14.0684 16.584C14.0684 17.0625 13.8223 17.418 13.2617 17.418L12.7695 17.418L12.7695 18.8262C12.7695 19.4961 12.332 19.8242 11.8125 19.8242ZM10.8555 15.8184L10.8555 9.84375L10.8145 9.84375L8.25781 15.7227L8.25781 15.8184ZM18.6758 19.7969C18.0879 19.7969 17.623 19.332 17.623 18.7578L17.623 10.2129L16.3242 11.252C16.1875 11.3613 16.0508 11.4297 15.832 11.4297C15.3945 11.4297 15.0938 11.1152 15.0938 10.6777C15.0938 10.3086 15.2988 10.0352 15.5449 9.84375L17.1035 8.64062C17.418 8.39453 17.9102 8.06641 18.498 8.06641C19.2363 8.06641 19.6875 8.49023 19.6875 9.21484L19.6875 18.7578C19.6875 19.332 19.2227 19.7969 18.6758 19.7969Z" fill="white"/>
 </g>
</svg>
