<?xml version="1.0" encoding="UTF-8"?>
<!--Generator: Apple Native CoreSVG 326-->
<!DOCTYPE svg
PUBLIC "-//W3C//DTD SVG 1.1//EN"
       "http://www.w3.org/Graphics/SVG/1.1/DTD/svg11.dtd">
<svg version="1.1" xmlns="http://www.w3.org/2000/svg" xmlns:xlink="http://www.w3.org/1999/xlink" viewBox="0 0 25.5254 25.1699">
 <g>
  <rect height="25.1699" opacity="0" width="25.5254" x="0" y="0"/>
  <path d="M4.29297 25.1699L20.877 25.1699C23.748 25.1699 25.1699 23.7617 25.1699 20.9453L25.1699 4.23828C25.1699 1.42188 23.748 0 20.877 0L4.29297 0C1.43555 0 0 1.42188 0 4.23828L0 20.9453C0 23.7617 1.43555 25.1699 4.29297 25.1699Z" fill="black" fill-opacity="0.85"/>
  <path d="M10.459 18.457C10.0078 18.457 9.47461 18.1973 9.47461 17.459L9.47461 16.0508L6.33008 16.0508C5.63281 16.0508 5.16797 15.5859 5.16797 14.9023C5.16797 14.4648 5.23633 14.0957 5.48242 13.5488L7.99805 8.08008C8.39453 7.20508 8.85938 6.69922 9.84375 6.69922C10.7871 6.69922 11.416 7.24609 11.416 8.23047L11.416 14.4102L11.9219 14.4102C12.4961 14.4102 12.7148 14.7656 12.7148 15.2168C12.7148 15.6953 12.4688 16.0508 11.9219 16.0508L11.416 16.0508L11.416 17.459C11.416 18.1289 10.9785 18.457 10.459 18.457ZM9.51562 14.4512L9.51562 8.47656L9.46094 8.47656L6.9043 14.3555L6.9043 14.4512ZM17.3223 18.4297C16.7344 18.4297 16.2695 17.9648 16.2695 17.3906L16.2695 8.8457L14.9707 9.88477C14.834 9.99414 14.6973 10.0625 14.4785 10.0625C14.041 10.0625 13.7402 9.74805 13.7402 9.31055C13.7402 8.94141 13.9453 8.66797 14.1914 8.47656L15.75 7.27344C16.0645 7.02734 16.5566 6.69922 17.1445 6.69922C17.8828 6.69922 18.334 7.12305 18.334 7.84766L18.334 17.3906C18.334 17.9648 17.8691 18.4297 17.3223 18.4297Z" fill="white"/>
 </g>
</svg>
