<?xml version="1.0" encoding="UTF-8"?>
<!--Generator: Apple Native CoreSVG 326-->
<!DOCTYPE svg
PUBLIC "-//W3C//DTD SVG 1.1//EN"
       "http://www.w3.org/Graphics/SVG/1.1/DTD/svg11.dtd">
<svg version="1.1" xmlns="http://www.w3.org/2000/svg" xmlns:xlink="http://www.w3.org/1999/xlink" viewBox="0 0 25.5254 25.1699">
 <g>
  <rect height="25.1699" opacity="0" width="25.5254" x="0" y="0"/>
  <path d="M4.29297 25.1699L20.877 25.1699C23.748 25.1699 25.1699 23.7617 25.1699 20.9453L25.1699 4.23828C25.1699 1.42188 23.748 0 20.877 0L4.29297 0C1.43555 0 0 1.42188 0 4.23828L0 20.9453C0 23.7617 1.43555 25.1699 4.29297 25.1699ZM4.32031 22.9688C2.95312 22.9688 2.20117 22.2441 2.20117 20.8223L2.20117 4.36133C2.20117 2.93945 2.95312 2.20117 4.32031 2.20117L20.8496 2.20117C22.2031 2.20117 22.9688 2.93945 22.9688 4.36133L22.9688 20.8223C22.9688 22.2441 22.2031 22.9688 20.8496 22.9688Z" fill="black" fill-opacity="0.85"/>
  <path d="M10.5 18.2793C11.0059 18.2793 11.4297 17.9648 11.4297 17.3086L11.4297 15.9414L11.9219 15.9414C12.4414 15.9414 12.6875 15.5996 12.6875 15.1348C12.6875 14.6973 12.4688 14.3555 11.9219 14.3555L11.4297 14.3555L11.4297 8.35352C11.4297 7.41016 10.8145 6.87695 9.91211 6.87695C8.95508 6.87695 8.50391 7.36914 8.12109 8.2168L5.67383 13.5215C5.44141 14.0547 5.37305 14.4102 5.37305 14.834C5.37305 15.4902 5.82422 15.9414 6.49414 15.9414L9.55664 15.9414L9.55664 17.3086C9.55664 18.0332 10.0625 18.2793 10.5 18.2793ZM9.59766 14.3965L7.05469 14.3965L7.05469 14.3008L9.54297 8.59961L9.59766 8.59961ZM17.1445 18.252C17.6777 18.252 18.1289 17.8008 18.1289 17.2539L18.1289 7.98438C18.1289 7.28711 17.6914 6.87695 16.9805 6.87695C16.4062 6.87695 15.9414 7.19141 15.627 7.4375L14.123 8.59961C13.877 8.79102 13.6855 9.05078 13.6855 9.40625C13.6855 9.83008 13.9727 10.1309 14.3965 10.1309C14.6016 10.1309 14.7383 10.0625 14.875 9.9668L16.1328 8.95508L16.1328 17.2539C16.1328 17.8008 16.584 18.252 17.1445 18.252Z" fill="black" fill-opacity="0.85"/>
 </g>
</svg>
