<?xml version="1.0" encoding="UTF-8"?>
<!--Generator: Apple Native CoreSVG 326-->
<!DOCTYPE svg
PUBLIC "-//W3C//DTD SVG 1.1//EN"
       "http://www.w3.org/Graphics/SVG/1.1/DTD/svg11.dtd">
<svg version="1.1" xmlns="http://www.w3.org/2000/svg" xmlns:xlink="http://www.w3.org/1999/xlink" viewBox="0 0 28.2461 27.9043">
 <g>
  <rect height="27.9043" opacity="0" width="28.2461" x="0" y="0"/>
  <path d="M13.9453 27.8906C21.6426 27.8906 27.8906 21.6426 27.8906 13.9453C27.8906 6.24805 21.6426 0 13.9453 0C6.24805 0 0 6.24805 0 13.9453C0 21.6426 6.24805 27.8906 13.9453 27.8906ZM13.9453 25.5664C7.51953 25.5664 2.32422 20.3711 2.32422 13.9453C2.32422 7.51953 7.51953 2.32422 13.9453 2.32422C20.3711 2.32422 25.5664 7.51953 25.5664 13.9453C25.5664 20.3711 20.3711 25.5664 13.9453 25.5664Z" fill="black" fill-opacity="0.85"/>
  <path d="M11.0742 19.6465C11.5938 19.6465 12.0039 19.332 12.0039 18.6758L12.0039 17.3086L12.4961 17.3086C13.0293 17.3086 13.2754 16.9668 13.2754 16.502C13.2754 16.0645 13.043 15.7227 12.4961 15.7227L12.0039 15.7227L12.0039 9.7207C12.0039 8.77734 11.3887 8.24414 10.5 8.24414C9.5293 8.24414 9.07812 8.73633 8.69531 9.58398L6.26172 14.8887C6.0293 15.4219 5.94727 15.7773 5.94727 16.2012C5.94727 16.8574 6.39844 17.3086 7.06836 17.3086L10.1309 17.3086L10.1309 18.6758C10.1309 19.4004 10.6504 19.6465 11.0742 19.6465ZM10.1719 15.7637L7.62891 15.7637L7.62891 15.668L10.1172 9.9668L10.1719 9.9668ZM15.5449 19.4688L20.2891 19.4688C20.7676 19.4688 21.0684 19.1543 21.0684 18.6758C21.0684 18.1562 20.7539 17.8691 20.2891 17.8691L17.0488 17.8691L17.0488 17.7598L19.0312 15.2305C20.4121 13.5352 20.8633 12.5234 20.8633 11.3203C20.8633 9.47461 19.6055 8.13477 17.7188 8.13477C15.9688 8.13477 14.6426 9.58398 14.6426 11.0059C14.6426 11.5117 14.9297 11.8672 15.4629 11.8672C15.9141 11.8672 16.1875 11.6621 16.3242 11.2109C16.584 10.2949 16.9258 9.7207 17.7051 9.7207C18.5254 9.7207 18.9902 10.4453 18.9902 11.416C18.9902 12.5098 18.2246 13.6172 17.5 14.5469L15.1348 17.582C14.875 17.9102 14.6152 18.252 14.6152 18.6758C14.6152 19.1406 14.916 19.4688 15.5449 19.4688Z" fill="black" fill-opacity="0.85"/>
 </g>
</svg>
