<?xml version="1.0" encoding="UTF-8"?>
<!--Generator: Apple Native CoreSVG 326-->
<!DOCTYPE svg
PUBLIC "-//W3C//DTD SVG 1.1//EN"
       "http://www.w3.org/Graphics/SVG/1.1/DTD/svg11.dtd">
<svg version="1.1" xmlns="http://www.w3.org/2000/svg" xmlns:xlink="http://www.w3.org/1999/xlink" viewBox="0 0 25.5254 25.1699">
 <g>
  <rect height="25.1699" opacity="0" width="25.5254" x="0" y="0"/>
  <path d="M4.29297 25.1699L20.877 25.1699C23.748 25.1699 25.1699 23.7617 25.1699 20.9453L25.1699 4.23828C25.1699 1.42188 23.748 0 20.877 0L4.29297 0C1.43555 0 0 1.42188 0 4.23828L0 20.9453C0 23.7617 1.43555 25.1699 4.29297 25.1699Z" fill="black" fill-opacity="0.85"/>
  <path d="M9.66602 18.457C9.21484 18.457 8.66797 18.1973 8.66797 17.4453L8.66797 16.0508L5.52344 16.0508C4.83984 16.0508 4.36133 15.5859 4.36133 14.9023C4.36133 14.4648 4.44336 14.0957 4.68945 13.5488L7.20508 8.08008C7.60156 7.20508 8.06641 6.69922 9.05078 6.69922C9.98047 6.69922 10.623 7.24609 10.623 8.23047L10.623 14.4102L11.1152 14.4102C11.6895 14.4102 11.9219 14.7656 11.9219 15.2168C11.9219 15.6953 11.6758 16.0508 11.1152 16.0508L10.623 16.0508L10.623 17.4453C10.623 18.1289 10.1855 18.457 9.66602 18.457ZM8.70898 14.4512L8.70898 8.47656L8.6543 8.47656L6.11133 14.3555L6.11133 14.4512ZM16.8301 18.5664C15.5723 18.5664 14.3145 17.8281 13.8086 16.6797C13.6992 16.4062 13.6172 16.0918 13.6172 15.7637C13.6172 15.2441 13.9453 14.916 14.4648 14.916C14.834 14.916 15.1621 15.1211 15.3125 15.5723C15.5859 16.3516 16.0234 16.9121 16.8027 16.9121C17.8418 16.9121 18.2656 15.7227 18.2656 14.5469C18.2656 13.5078 17.8691 12.2637 16.8301 12.2637C16.2695 12.2637 15.9277 12.5918 15.5996 13.0566C15.2988 13.4395 15.0801 13.5898 14.6973 13.5898C14.041 13.5898 13.7539 13.1113 13.7539 12.5781C13.7539 12.3867 13.7676 12.168 13.7812 11.9492L14.0137 8.09375C14.0684 7.35547 14.3965 6.87695 15.1484 6.87695L19.0039 6.87695C19.4824 6.87695 19.7969 7.24609 19.7969 7.71094C19.7969 8.2168 19.4961 8.54492 19.0039 8.54492L15.709 8.54492L15.4766 11.9629L15.5449 11.9629C15.9004 11.1562 16.666 10.7734 17.5 10.7734C19.3184 10.7734 20.248 12.5508 20.248 14.4922C20.248 16.7207 19.0312 18.5664 16.8301 18.5664Z" fill="white"/>
 </g>
</svg>
