<?xml version="1.0" encoding="UTF-8"?>
<!--Generator: Apple Native CoreSVG 326-->
<!DOCTYPE svg
PUBLIC "-//W3C//DTD SVG 1.1//EN"
       "http://www.w3.org/Graphics/SVG/1.1/DTD/svg11.dtd">
<svg version="1.1" xmlns="http://www.w3.org/2000/svg" xmlns:xlink="http://www.w3.org/1999/xlink" viewBox="0 0 25.5254 25.1699">
 <g>
  <rect height="25.1699" opacity="0" width="25.5254" x="0" y="0"/>
  <path d="M4.29297 25.1699L20.877 25.1699C23.748 25.1699 25.1699 23.7617 25.1699 20.9453L25.1699 4.23828C25.1699 1.42188 23.748 0 20.877 0L4.29297 0C1.43555 0 0 1.42188 0 4.23828L0 20.9453C0 23.7617 1.43555 25.1699 4.29297 25.1699ZM4.32031 22.9688C2.95312 22.9688 2.20117 22.2441 2.20117 20.8223L2.20117 4.36133C2.20117 2.93945 2.95312 2.20117 4.32031 2.20117L20.8496 2.20117C22.2031 2.20117 22.9688 2.93945 22.9688 4.36133L22.9688 20.8223C22.9688 22.2441 22.2031 22.9688 20.8496 22.9688Z" fill="black" fill-opacity="0.85"/>
  <path d="M9.74805 18.2793C10.2539 18.2793 10.6777 17.9648 10.6777 17.3086L10.6777 15.9414L11.1562 15.9414C11.6895 15.9414 11.9355 15.5996 11.9355 15.1348C11.9355 14.6973 11.7031 14.3555 11.1562 14.3555L10.6777 14.3555L10.6777 8.35352C10.6777 7.41016 10.0488 6.87695 9.16016 6.87695C8.20312 6.87695 7.75195 7.36914 7.36914 8.2168L4.92188 13.5215C4.68945 14.0547 4.60742 14.4102 4.60742 14.834C4.60742 15.4902 5.07227 15.9414 5.72852 15.9414L8.79102 15.9414L8.79102 17.3086C8.79102 18.0332 9.31055 18.2793 9.74805 18.2793ZM8.83203 14.3965L6.30273 14.3965L6.30273 14.3008L8.77734 8.59961L8.83203 8.59961ZM16.6934 18.3887C18.8262 18.3887 20.002 16.5977 20.002 14.4375C20.002 12.5508 19.0996 10.8281 17.3359 10.8281C16.5293 10.8281 15.7773 11.1973 15.4355 11.9902L15.3672 11.9902L15.5996 8.66797L18.7988 8.66797C19.2773 8.66797 19.5645 8.33984 19.5645 7.86133C19.5645 7.41016 19.2637 7.05469 18.7988 7.05469L15.0527 7.05469C14.3281 7.05469 14.0137 7.51953 13.959 8.23047L13.7402 11.9766C13.7266 12.1816 13.7129 12.4004 13.7129 12.5781C13.7129 13.0977 13.9863 13.5625 14.6152 13.5625C14.9844 13.5625 15.2031 13.4121 15.4902 13.043C15.8047 12.5918 16.1465 12.2637 16.6934 12.2637C17.7051 12.2637 18.0879 13.4805 18.0879 14.4922C18.0879 15.627 17.6777 16.7891 16.666 16.7891C15.9004 16.7891 15.4766 16.2422 15.2168 15.4902C15.0664 15.0527 14.752 14.8477 14.3965 14.8477C13.8906 14.8477 13.5762 15.1621 13.5762 15.668C13.5762 15.9824 13.6582 16.2832 13.7676 16.5566C14.2461 17.6641 15.4629 18.3887 16.6934 18.3887Z" fill="black" fill-opacity="0.85"/>
 </g>
</svg>
