<?xml version="1.0" encoding="UTF-8"?>
<!--Generator: Apple Native CoreSVG 326-->
<!DOCTYPE svg
PUBLIC "-//W3C//DTD SVG 1.1//EN"
       "http://www.w3.org/Graphics/SVG/1.1/DTD/svg11.dtd">
<svg version="1.1" xmlns="http://www.w3.org/2000/svg" xmlns:xlink="http://www.w3.org/1999/xlink" viewBox="0 0 25.5254 25.1699">
 <g>
  <rect height="25.1699" opacity="0" width="25.5254" x="0" y="0"/>
  <path d="M4.29297 25.1699L20.877 25.1699C23.748 25.1699 25.1699 23.7617 25.1699 20.9453L25.1699 4.23828C25.1699 1.42188 23.748 0 20.877 0L4.29297 0C1.43555 0 0 1.42188 0 4.23828L0 20.9453C0 23.7617 1.43555 25.1699 4.29297 25.1699Z" fill="black" fill-opacity="0.85"/>
  <path d="M9.40625 18.457C8.95508 18.457 8.4082 18.1973 8.4082 17.4453L8.4082 16.0508L5.26367 16.0508C4.58008 16.0508 4.10156 15.5859 4.10156 14.9023C4.10156 14.4648 4.18359 14.0957 4.41602 13.5488L6.93164 8.08008C7.32812 7.20508 7.80664 6.69922 8.79102 6.69922C9.7207 6.69922 10.3633 7.24609 10.3633 8.23047L10.3633 14.4102L10.8555 14.4102C11.416 14.4102 11.6621 14.7656 11.6621 15.2168C11.6621 15.6953 11.4023 16.0508 10.8555 16.0508L10.3633 16.0508L10.3633 17.4453C10.3633 18.1289 9.92578 18.457 9.40625 18.457ZM8.44922 14.4512L8.44922 8.47656L8.39453 8.47656L5.85156 14.3555L5.85156 14.4512ZM16.8438 18.5664C13.9727 18.5664 13.125 15.3809 13.125 12.7148C13.125 9.85742 13.9727 6.61719 16.8711 6.61719C18.2793 6.61719 19.4961 7.36914 19.7969 8.58594C19.8516 8.76367 19.8652 8.94141 19.8652 9.0918C19.8652 9.55664 19.6191 9.93945 19.0586 9.93945C18.5938 9.93945 18.3203 9.74805 18.1152 9.31055C17.8828 8.72266 17.459 8.27148 16.8164 8.27148C15.2441 8.27148 15.0527 11.1016 15.0527 12.6602C15.0527 12.7012 15.0527 12.7559 15.0527 12.8105L15.1074 12.8105C15.4355 11.6074 16.2969 10.8418 17.4316 10.8418C19.3047 10.8418 20.2207 12.6465 20.2207 14.5469C20.2207 16.7617 19.0039 18.5664 16.8438 18.5664ZM16.8164 16.9121C17.8008 16.9121 18.252 15.668 18.252 14.6426C18.2793 13.6035 17.8555 12.3867 16.8164 12.3867C15.8047 12.3867 15.3262 13.5488 15.3262 14.5742C15.3262 15.5859 15.75 16.9121 16.8164 16.9121Z" fill="white"/>
 </g>
</svg>
