<?xml version="1.0" encoding="UTF-8"?>
<!--Generator: Apple Native CoreSVG 326-->
<!DOCTYPE svg
PUBLIC "-//W3C//DTD SVG 1.1//EN"
       "http://www.w3.org/Graphics/SVG/1.1/DTD/svg11.dtd">
<svg version="1.1" xmlns="http://www.w3.org/2000/svg" xmlns:xlink="http://www.w3.org/1999/xlink" viewBox="0 0 28.2461 27.9043">
 <g>
  <rect height="27.9043" opacity="0" width="28.2461" x="0" y="0"/>
  <path d="M13.9453 27.8906C21.6426 27.8906 27.8906 21.6289 27.8906 13.9453C27.8906 6.24805 21.6426 0 13.9453 0C6.26172 0 0 6.24805 0 13.9453C0 21.6289 6.26172 27.8906 13.9453 27.8906Z" fill="black" fill-opacity="0.85"/>
  <path d="M11.457 19.8242C11.0059 19.8242 10.4727 19.5645 10.4727 18.8125L10.4727 17.418L7.32812 17.418C6.63086 17.418 6.16602 16.9531 6.16602 16.2695C6.16602 15.832 6.24805 15.4629 6.48047 14.916L8.98242 9.44727C9.37891 8.57227 9.85742 8.06641 10.8418 8.06641C11.7852 8.06641 12.4141 8.61328 12.4141 9.59766L12.4141 15.7773L12.9199 15.7773C13.4941 15.7773 13.7266 16.1328 13.7266 16.584C13.7266 17.0625 13.4668 17.418 12.9199 17.418L12.4141 17.418L12.4141 18.8125C12.4141 19.4961 11.9766 19.8242 11.457 19.8242ZM10.5137 15.8184L10.5137 9.84375L10.459 9.84375L7.90234 15.7227L7.90234 15.8184ZM16.8574 19.8379C16.1875 19.8379 15.9277 19.373 15.9277 18.9629C15.9277 18.6211 15.9824 18.4434 16.0918 18.1289L19.2227 10.0488L19.2227 9.92578L15.5996 9.92578C15.1211 9.92578 14.7793 9.57031 14.7793 9.07812C14.7793 8.59961 15.1211 8.24414 15.5996 8.24414L20.1523 8.24414C20.7812 8.24414 21.2871 8.68164 21.2871 9.33789C21.2871 9.74805 21.1777 10.0898 21.0273 10.5273L17.8145 19.1133C17.6094 19.6328 17.3906 19.8379 16.8574 19.8379Z" fill="white"/>
 </g>
</svg>
