<?xml version="1.0" encoding="UTF-8"?>
<!--Generator: Apple Native CoreSVG 326-->
<!DOCTYPE svg
PUBLIC "-//W3C//DTD SVG 1.1//EN"
       "http://www.w3.org/Graphics/SVG/1.1/DTD/svg11.dtd">
<svg version="1.1" xmlns="http://www.w3.org/2000/svg" xmlns:xlink="http://www.w3.org/1999/xlink" viewBox="0 0 28.2461 27.9043">
 <g>
  <rect height="27.9043" opacity="0" width="28.2461" x="0" y="0"/>
  <path d="M13.9453 27.8906C21.6426 27.8906 27.8906 21.6289 27.8906 13.9453C27.8906 6.24805 21.6426 0 13.9453 0C6.26172 0 0 6.24805 0 13.9453C0 21.6289 6.26172 27.8906 13.9453 27.8906Z" fill="black" fill-opacity="0.85"/>
  <path d="M10.7461 19.8242C10.2949 19.8242 9.77539 19.5645 9.77539 18.8125L9.77539 17.418L6.61719 17.418C5.93359 17.418 5.45508 16.9531 5.45508 16.2695C5.45508 15.832 5.53711 15.4629 5.76953 14.916L8.28516 9.44727C8.68164 8.57227 9.14648 8.06641 10.1445 8.06641C11.0742 8.06641 11.7168 8.61328 11.7168 9.59766L11.7168 15.7773L12.2227 15.7773C12.7832 15.7773 13.0156 16.1328 13.0156 16.584C13.0156 17.0625 12.7559 17.418 12.2227 17.418L11.7168 17.418L11.7168 18.8125C11.7168 19.4961 11.2793 19.8242 10.7461 19.8242ZM9.81641 15.8184L9.81641 9.84375L9.76172 9.84375L7.20508 15.7227L7.20508 15.8184ZM18.0879 19.8926C16.0234 19.8926 14.4375 18.6621 14.4375 16.5703C14.4375 15.0391 15.3535 13.9316 16.5703 13.6582L16.5703 13.6172C15.668 13.3438 14.752 12.4961 14.752 11.0605C14.752 9.07812 16.3379 8.01172 18.0879 8.01172C20.084 8.01172 21.4375 9.24219 21.4375 11.0742C21.4375 12.4141 20.5898 13.3301 19.6465 13.6172L19.6465 13.6582C20.7676 13.918 21.752 15.0254 21.752 16.5703C21.752 18.498 20.3164 19.8926 18.0879 19.8926ZM18.0879 12.9746C18.9766 12.9746 19.4414 12.1953 19.4414 11.2656C19.4414 10.3633 19.0039 9.5293 18.0879 9.5293C17.2129 9.5293 16.7344 10.3633 16.7344 11.2656C16.7344 12.0996 17.1855 12.9746 18.0879 12.9746ZM18.0879 18.3613C19.1133 18.3613 19.6191 17.4453 19.6191 16.4062C19.6191 15.3398 19.0859 14.4922 18.0879 14.4922C17.0762 14.4922 16.5566 15.3945 16.5566 16.4062C16.5566 17.4453 17.0625 18.3613 18.0879 18.3613Z" fill="white"/>
 </g>
</svg>
