<?xml version="1.0" encoding="UTF-8"?>
<!--Generator: Apple Native CoreSVG 326-->
<!DOCTYPE svg
PUBLIC "-//W3C//DTD SVG 1.1//EN"
       "http://www.w3.org/Graphics/SVG/1.1/DTD/svg11.dtd">
<svg version="1.1" xmlns="http://www.w3.org/2000/svg" xmlns:xlink="http://www.w3.org/1999/xlink" viewBox="0 0 28.2461 27.9043">
 <g>
  <rect height="27.9043" opacity="0" width="28.2461" x="0" y="0"/>
  <path d="M13.9453 27.8906C21.6426 27.8906 27.8906 21.6426 27.8906 13.9453C27.8906 6.24805 21.6426 0 13.9453 0C6.24805 0 0 6.24805 0 13.9453C0 21.6426 6.24805 27.8906 13.9453 27.8906ZM13.9453 25.5664C7.51953 25.5664 2.32422 20.3711 2.32422 13.9453C2.32422 7.51953 7.51953 2.32422 13.9453 2.32422C20.3711 2.32422 25.5664 7.51953 25.5664 13.9453C25.5664 20.3711 20.3711 25.5664 13.9453 25.5664Z" fill="black" fill-opacity="0.85"/>
  <path d="M10.8281 19.6465C11.334 19.6465 11.7578 19.332 11.7578 18.6758L11.7578 17.3086L12.25 17.3086C12.7695 17.3086 13.0156 16.9668 13.0156 16.502C13.0156 16.0645 12.7969 15.7227 12.25 15.7227L11.7578 15.7227L11.7578 9.7207C11.7578 8.77734 11.1426 8.24414 10.2402 8.24414C9.2832 8.24414 8.83203 8.73633 8.44922 9.58398L6.00195 14.8887C5.76953 15.4219 5.70117 15.7773 5.70117 16.2012C5.70117 16.8574 6.15234 17.3086 6.82227 17.3086L9.87109 17.3086L9.87109 18.6758C9.87109 19.4004 10.3906 19.6465 10.8281 19.6465ZM9.91211 15.7637L7.38281 15.7637L7.38281 15.668L9.87109 9.9668L9.91211 9.9668ZM17.9375 19.7148C20.0977 19.7148 21.4785 18.3613 21.4785 16.4883C21.4785 14.998 20.5352 13.918 19.4414 13.6719L19.4414 13.6309C20.3574 13.3438 21.1777 12.4551 21.1777 11.1562C21.1777 9.39258 19.8652 8.18945 17.9375 8.18945C16.2422 8.18945 14.7109 9.22852 14.7109 11.1426C14.7109 12.5371 15.5859 13.3574 16.4609 13.6309L16.4609 13.6719C15.2852 13.9316 14.3965 15.0117 14.3965 16.4883C14.3965 18.5117 15.9277 19.7148 17.9375 19.7148ZM17.9375 13.002C17.0625 13.002 16.6113 12.1543 16.6113 11.3477C16.6113 10.4727 17.0898 9.65234 17.9375 9.65234C18.8262 9.65234 19.25 10.4727 19.25 11.3477C19.25 12.25 18.7988 13.002 17.9375 13.002ZM17.9375 18.2383C16.9395 18.2383 16.4473 17.3496 16.4473 16.3379C16.4473 15.3535 16.9531 14.4785 17.9375 14.4785C18.9082 14.4785 19.4277 15.2988 19.4277 16.3379C19.4277 17.3496 18.9355 18.2383 17.9375 18.2383Z" fill="black" fill-opacity="0.85"/>
 </g>
</svg>
