<?xml version="1.0" encoding="UTF-8"?>
<!--Generator: Apple Native CoreSVG 326-->
<!DOCTYPE svg
PUBLIC "-//W3C//DTD SVG 1.1//EN"
       "http://www.w3.org/Graphics/SVG/1.1/DTD/svg11.dtd">
<svg version="1.1" xmlns="http://www.w3.org/2000/svg" xmlns:xlink="http://www.w3.org/1999/xlink" viewBox="0 0 35.0684 20.2207">
 <g>
  <rect height="20.2207" opacity="0" width="35.0684" x="0" y="0"/>
  <path d="M10.8691 20.1934C11.5391 20.1934 12.0312 19.6738 12.0312 18.9629L12.0312 15.709L13.8359 15.709C14.4785 15.709 14.916 15.3262 14.916 14.6836C14.916 14.082 14.4648 13.6582 13.8359 13.6582L12.0312 13.6582L12.0312 1.91406C12.0312 0.806641 11.2109 0.0136719 10.0625 0.0136719C8.83203 0.0136719 8.12109 0.916016 7.47852 1.92773L0.505859 12.6191C0.177734 13.1387 0 13.6855 0 14.1777C0 15.0527 0.574219 15.709 1.66797 15.709L9.70703 15.709L9.70703 18.9629C9.70703 19.8105 10.3086 20.1934 10.8691 20.1934ZM9.7207 13.6855L2.2832 13.6855L2.2832 13.5625L9.59766 2.44727L9.7207 2.44727ZM20.2344 20.1934C20.9043 20.1934 21.4512 19.6465 21.4512 18.9766L21.4512 10.9238L32.2793 10.9238L32.2793 18.9766C32.2793 19.6465 32.8262 20.1934 33.4961 20.1934C34.166 20.1934 34.7129 19.6465 34.7129 18.9766L34.7129 1.2168C34.7129 0.533203 34.166 0 33.4961 0C32.8262 0 32.2793 0.533203 32.2793 1.2168L32.2793 8.80469L21.4512 8.80469L21.4512 1.2168C21.4512 0.533203 20.9043 0 20.2344 0C19.5645 0 19.0176 0.533203 19.0176 1.2168L19.0176 18.9766C19.0176 19.6465 19.5645 20.1934 20.2344 20.1934Z" fill="black" fill-opacity="0.85"/>
 </g>
</svg>
