<?xml version="1.0" encoding="UTF-8"?>
<!--Generator: Apple Native CoreSVG 326-->
<!DOCTYPE svg
PUBLIC "-//W3C//DTD SVG 1.1//EN"
       "http://www.w3.org/Graphics/SVG/1.1/DTD/svg11.dtd">
<svg version="1.1" xmlns="http://www.w3.org/2000/svg" xmlns:xlink="http://www.w3.org/1999/xlink" viewBox="0 0 34.5352 27.3574">
 <g>
  <rect height="27.3574" opacity="0" width="34.5352" x="0" y="0"/>
  <path d="M3.51367 22.709L30.666 22.709C32.8535 22.709 34.1797 21.3691 34.1797 19.1953L34.1797 3.51367C34.1797 1.33984 32.8535 0 30.666 0L3.51367 0C1.33984 0 0 1.33984 0 3.51367L0 19.1953C0 21.3691 1.33984 22.709 3.51367 22.709ZM3.55469 20.5078C2.70703 20.5078 2.20117 20.002 2.20117 19.168L2.20117 3.54102C2.20117 2.70703 2.70703 2.20117 3.55469 2.20117L30.625 2.20117C31.4727 2.20117 31.9785 2.70703 31.9785 3.54102L31.9785 19.168C31.9785 20.002 31.4727 20.5078 30.625 20.5078ZM10.2129 27.3438L23.9668 27.3438C24.5684 27.3438 25.0742 26.8516 25.0742 26.2363C25.0742 25.6211 24.5684 25.1289 23.9668 25.1289L10.2129 25.1289C9.61133 25.1289 9.10547 25.6211 9.10547 26.2363C9.10547 26.8516 9.61133 27.3438 10.2129 27.3438Z" fill="black" fill-opacity="0.85"/>
  <path d="M13.4121 17.0762C13.918 17.0762 14.3418 16.748 14.3418 16.0918L14.3418 14.7246L14.834 14.7246C15.3535 14.7246 15.6133 14.3828 15.6133 13.9316C15.6133 13.4805 15.3809 13.1387 14.834 13.1387L14.3418 13.1387L14.3418 7.13672C14.3418 6.19336 13.7266 5.67383 12.8379 5.67383C11.8672 5.67383 11.416 6.16602 11.0332 7.01367L8.58594 12.3184C8.36719 12.8379 8.28516 13.1934 8.28516 13.6172C8.28516 14.2734 8.73633 14.7246 9.40625 14.7246L12.4688 14.7246L12.4688 16.0918C12.4688 16.8164 12.9746 17.0762 13.4121 17.0762ZM12.5098 13.1797L9.9668 13.1797L9.9668 13.0977L12.4551 7.39648L12.5098 7.39648ZM18.2793 17.0898C18.9766 17.0898 19.291 16.6113 19.291 16.0508L19.291 13.6035L20.1797 12.2227L22.5996 16.3379C22.873 16.8164 23.1328 17.0625 23.666 17.0625C24.2129 17.0625 24.5547 16.666 24.5547 16.1328C24.5547 15.832 24.5 15.6543 24.3223 15.3398L21.6426 10.8691L23.9941 7.36914C24.1582 7.15039 24.2539 6.94531 24.2539 6.61719C24.2539 6.16602 23.9258 5.71484 23.3516 5.71484C22.832 5.71484 22.6406 5.98828 22.4629 6.27539L19.373 11.0195L19.2773 11.0195L19.2773 6.72656C19.2773 6.13867 18.9355 5.6875 18.2793 5.6875C17.6367 5.6875 17.2812 6.09766 17.2812 6.72656L17.2812 16.0508C17.2812 16.666 17.6504 17.0898 18.2793 17.0898Z" fill="black" fill-opacity="0.85"/>
 </g>
</svg>
