<?xml version="1.0" encoding="UTF-8"?>
<!--Generator: Apple Native CoreSVG 326-->
<!DOCTYPE svg
PUBLIC "-//W3C//DTD SVG 1.1//EN"
       "http://www.w3.org/Graphics/SVG/1.1/DTD/svg11.dtd">
<svg version="1.1" xmlns="http://www.w3.org/2000/svg" xmlns:xlink="http://www.w3.org/1999/xlink" viewBox="0 0 31.582 20.2207">
 <g>
  <rect height="20.2207" opacity="0" width="31.582" x="0" y="0"/>
  <path d="M10.8691 20.1934C11.5391 20.1934 12.0312 19.6738 12.0312 18.9629L12.0312 15.709L13.8359 15.709C14.4785 15.709 14.916 15.3262 14.916 14.6836C14.916 14.082 14.4648 13.6582 13.8359 13.6582L12.0312 13.6582L12.0312 1.91406C12.0312 0.806641 11.2109 0.0136719 10.0625 0.0136719C8.83203 0.0136719 8.12109 0.916016 7.47852 1.92773L0.505859 12.6191C0.177734 13.1387 0 13.6855 0 14.1777C0 15.0527 0.574219 15.709 1.66797 15.709L9.70703 15.709L9.70703 18.9629C9.70703 19.8105 10.3086 20.1934 10.8691 20.1934ZM9.7207 13.6855L2.2832 13.6855L2.2832 13.5625L9.59766 2.44727L9.7207 2.44727ZM20.2207 19.9062L30.0781 19.9062C30.748 19.9062 31.2266 19.4551 31.2266 18.8262C31.2266 18.2109 30.748 17.7871 30.0781 17.7871L21.4512 17.7871L21.4512 1.2168C21.4512 0.533203 20.9043 0 20.2344 0C19.5645 0 19.0176 0.533203 19.0176 1.2168L19.0176 18.6348C19.0176 19.5508 19.6055 19.9062 20.2207 19.9062Z" fill="black" fill-opacity="0.85"/>
 </g>
</svg>
