<?xml version="1.0" encoding="UTF-8"?>
<!--Generator: Apple Native CoreSVG 326-->
<!DOCTYPE svg
PUBLIC "-//W3C//DTD SVG 1.1//EN"
       "http://www.w3.org/Graphics/SVG/1.1/DTD/svg11.dtd">
<svg version="1.1" xmlns="http://www.w3.org/2000/svg" xmlns:xlink="http://www.w3.org/1999/xlink" viewBox="0 0 28.2461 33.2127">
 <g>
  <rect height="33.2127" opacity="0" width="28.2461" x="0" y="0"/>
  <path d="M13.9453 30.5448C21.6426 30.5448 27.8906 24.2968 27.8906 16.5995C27.8906 11.91 25.6074 7.8495 22.0801 5.30653C21.4785 4.84169 20.6992 5.00575 20.3574 5.55263C20.0156 6.12684 20.1934 6.76942 20.7539 7.19325C23.6523 9.27138 25.5664 12.703 25.5664 16.5995C25.5664 23.0253 20.3711 28.2206 13.9453 28.2206C7.51953 28.2206 2.32422 23.0253 2.32422 16.5995C2.32422 11.0487 6.16602 6.46864 11.3066 5.27919L11.3066 7.24794C11.3066 8.21864 11.9766 8.46474 12.7285 7.9452L17.0898 4.8827C17.7051 4.4452 17.7188 3.78895 17.0898 3.33778L12.7422 0.275282C11.9766-0.257921 11.3066-0.0118272 11.3066 0.972548L11.3066 2.91395C4.9082 4.11708 0 9.77724 0 16.5995C0 24.2968 6.24805 30.5448 13.9453 30.5448Z" fill="black" fill-opacity="0.85"/>
  <path d="M13.9863 22.328C16.1191 22.328 17.4453 20.7421 17.4453 18.6093C17.4453 16.7772 16.4062 15.205 14.6016 15.205C13.6992 15.205 12.9336 15.6288 12.5645 16.3261L12.5098 16.3261L12.7422 13.2089L16.2285 13.2089C16.6797 13.2089 16.9805 12.9081 16.9805 12.4433C16.9805 11.9784 16.6934 11.6776 16.2285 11.6776L12.2637 11.6776C11.5527 11.6776 11.2246 12.0604 11.1699 12.7714L10.8828 16.7636C10.8418 17.3651 11.1562 17.8163 11.7578 17.8163C12.1953 17.8163 12.3867 17.6386 12.6602 17.3241C12.9883 16.8729 13.4531 16.5995 14 16.5995C15.0801 16.5995 15.6133 17.5702 15.6133 18.664C15.6133 19.8261 15.0254 20.7968 13.9727 20.7968C13.166 20.7968 12.6055 20.2636 12.3457 19.5526C12.168 19.1698 11.8945 18.9784 11.5254 18.9784C11.0469 18.9784 10.7461 19.2792 10.7461 19.7577C10.7461 19.9218 10.7734 20.0858 10.8145 20.2362C11.1562 21.5487 12.6602 22.328 13.9863 22.328Z" fill="black" fill-opacity="0.85"/>
 </g>
</svg>
