<?xml version="1.0" encoding="UTF-8"?>
<!--Generator: Apple Native CoreSVG 326-->
<!DOCTYPE svg
PUBLIC "-//W3C//DTD SVG 1.1//EN"
       "http://www.w3.org/Graphics/SVG/1.1/DTD/svg11.dtd">
<svg version="1.1" xmlns="http://www.w3.org/2000/svg" xmlns:xlink="http://www.w3.org/1999/xlink" viewBox="0 0 28.2461 27.9043">
 <g>
  <rect height="27.9043" opacity="0" width="28.2461" x="0" y="0"/>
  <path d="M13.9453 27.8906C21.6426 27.8906 27.8906 21.6289 27.8906 13.9453C27.8906 6.24805 21.6426 0 13.9453 0C6.26172 0 0 6.24805 0 13.9453C0 21.6289 6.26172 27.8906 13.9453 27.8906Z" fill="black" fill-opacity="0.85"/>
  <path d="M13.9863 20.6582C11.0469 20.6582 9.06445 18.7988 9.06445 16.0918C9.06445 14.5605 9.67969 13.0156 11.1289 11.0879C11.8672 10.1172 12.7148 9.03711 13.6445 7.82031C13.8633 7.54688 14.1367 7.24609 14.5879 7.24609C15.2715 7.24609 15.5586 7.68359 15.5586 8.10742C15.5586 8.38086 15.4355 8.59961 15.2168 8.88672C14.5332 9.77539 13.6035 10.9238 12.8926 11.8535C12.4551 12.4277 12.2637 12.6738 12.127 12.9199L12.2637 12.9609C12.7285 12.4824 13.7129 12.1133 14.6699 12.1133C17.1309 12.1133 18.8809 13.8496 18.8809 16.1738C18.8809 18.7988 16.8848 20.6582 13.9863 20.6582ZM13.9863 18.8809C15.6543 18.8809 16.8984 17.7461 16.8984 16.2832C16.8984 14.793 15.6543 13.7129 13.9727 13.7129C12.3047 13.7129 11.0605 14.793 11.0605 16.2559C11.0605 17.7461 12.3184 18.8809 13.9863 18.8809Z" fill="white"/>
 </g>
</svg>
