<?xml version="1.0" encoding="UTF-8"?>
<!--Generator: Apple Native CoreSVG 326-->
<!DOCTYPE svg
PUBLIC "-//W3C//DTD SVG 1.1//EN"
       "http://www.w3.org/Graphics/SVG/1.1/DTD/svg11.dtd">
<svg version="1.1" xmlns="http://www.w3.org/2000/svg" xmlns:xlink="http://www.w3.org/1999/xlink" viewBox="0 0 25.5254 25.1699">
 <g>
  <rect height="25.1699" opacity="0" width="25.5254" x="0" y="0"/>
  <path d="M4.29297 25.1699L20.877 25.1699C23.748 25.1699 25.1699 23.7617 25.1699 20.9453L25.1699 4.23828C25.1699 1.42188 23.748 0 20.877 0L4.29297 0C1.43555 0 0 1.42188 0 4.23828L0 20.9453C0 23.7617 1.43555 25.1699 4.29297 25.1699ZM4.32031 22.9688C2.95312 22.9688 2.20117 22.2441 2.20117 20.8223L2.20117 4.36133C2.20117 2.93945 2.95312 2.20117 4.32031 2.20117L20.8496 2.20117C22.2031 2.20117 22.9688 2.93945 22.9688 4.36133L22.9688 20.8223C22.9688 22.2441 22.2031 22.9688 20.8496 22.9688Z" fill="black" fill-opacity="0.85"/>
  <path d="M12.7012 19.0859C15.4492 19.0859 17.3906 17.4863 17.3906 14.6836C17.3906 12.0859 15.4219 10.6367 13.2617 10.6367C11.4297 10.6367 10.377 11.5664 9.92578 12.5508C9.89844 12.5508 9.84375 12.5508 9.81641 12.5508C9.81641 12.4961 9.81641 12.4551 9.81641 12.4141C9.81641 9.61133 11.1016 7.80664 12.9746 7.80664C13.918 7.80664 14.4648 8.23047 14.8613 8.70898C15.2852 9.14648 15.5586 9.37891 16.0234 9.37891C16.4883 9.37891 16.8574 9.05078 16.8574 8.57227C16.8574 8.35352 16.8027 8.16211 16.7207 7.9707C16.2969 6.95898 14.8203 6.07031 13.043 6.07031C9.81641 6.07031 7.80664 8.32617 7.80664 12.8789C7.80664 14.7656 8.14844 16.1328 8.72266 17.0488C9.59766 18.498 11.0879 19.0859 12.7012 19.0859ZM12.6191 17.4453C11.0879 17.4453 9.99414 16.3242 9.99414 14.7656C9.99414 13.2617 11.0742 12.1953 12.6191 12.1953C14.1777 12.1953 15.2441 13.248 15.2441 14.7793C15.2441 16.3926 14.2188 17.4453 12.6191 17.4453Z" fill="black" fill-opacity="0.85"/>
 </g>
</svg>
