<?xml version="1.0" encoding="UTF-8"?>
<!--Generator: Apple Native CoreSVG 326-->
<!DOCTYPE svg
PUBLIC "-//W3C//DTD SVG 1.1//EN"
       "http://www.w3.org/Graphics/SVG/1.1/DTD/svg11.dtd">
<svg version="1.1" xmlns="http://www.w3.org/2000/svg" xmlns:xlink="http://www.w3.org/1999/xlink" viewBox="0 0 25.5254 20.6309">
 <g>
  <rect height="20.6309" opacity="0" width="25.5254" x="0" y="0"/>
  <path d="M0 19.5234C0 20.125 0.492188 20.6309 1.09375 20.6309C1.70898 20.6309 2.20117 20.125 2.20117 19.5234L2.20117 1.12109C2.20117 0.519531 1.70898 0.0273438 1.09375 0.0273438C0.492188 0.0273438 0 0.519531 0 1.12109ZM22.9688 19.5234C22.9688 20.125 23.4746 20.6309 24.0762 20.6309C24.6777 20.6309 25.1699 20.125 25.1699 19.5234L25.1699 1.12109C25.1699 0.519531 24.6777 0.0273438 24.0762 0.0273438C23.4746 0.0273438 22.9688 0.519531 22.9688 1.12109Z" fill="black" fill-opacity="0.85"/>
  <path d="M11.1699 16.707C11.6895 16.707 11.9492 16.4883 12.1406 16.0098L15.9551 7.0957C16.1328 6.68555 16.2695 6.28906 16.2695 5.83789C16.2695 5.08594 15.7227 4.70312 15.0664 4.70312L9.7207 4.70312C9.20117 4.70312 8.85938 5.04492 8.85938 5.56445C8.85938 6.07031 9.20117 6.42578 9.7207 6.42578L14.0957 6.42578L14.0957 6.53516L10.3496 14.998C10.2402 15.2715 10.1582 15.5039 10.1582 15.8047C10.1582 16.3379 10.582 16.707 11.1699 16.707Z" fill="black" fill-opacity="0.85"/>
 </g>
</svg>
