<?xml version="1.0" encoding="UTF-8"?>
<!--Generator: Apple Native CoreSVG 326-->
<!DOCTYPE svg
PUBLIC "-//W3C//DTD SVG 1.1//EN"
       "http://www.w3.org/Graphics/SVG/1.1/DTD/svg11.dtd">
<svg version="1.1" xmlns="http://www.w3.org/2000/svg" xmlns:xlink="http://www.w3.org/1999/xlink" viewBox="0 0 28.2461 27.9043">
 <g>
  <rect height="27.9043" opacity="0" width="28.2461" x="0" y="0"/>
  <path d="M13.9453 27.8906C21.6426 27.8906 27.8906 21.6426 27.8906 13.9453C27.8906 6.24805 21.6426 0 13.9453 0C6.24805 0 0 6.24805 0 13.9453C0 21.6426 6.24805 27.8906 13.9453 27.8906ZM13.9453 25.5664C7.51953 25.5664 2.32422 20.3711 2.32422 13.9453C2.32422 7.51953 7.51953 2.32422 13.9453 2.32422C20.3711 2.32422 25.5664 7.51953 25.5664 13.9453C25.5664 20.3711 20.3711 25.5664 13.9453 25.5664Z" fill="black" fill-opacity="0.85"/>
  <path d="M13.5898 20.4531C16.8984 20.4531 18.6895 18.0879 18.6895 13.5078C18.6895 9.57031 16.9121 7.4375 13.8359 7.4375C11.0195 7.4375 9.1875 9.14648 9.1875 11.7988C9.1875 14.3691 11.1426 15.832 13.2754 15.832C15.0938 15.832 16.1738 14.9297 16.6113 13.918L16.707 13.918C16.7344 16.9258 15.4629 18.7168 13.5762 18.7168C12.6328 18.7168 11.9902 18.3203 11.4297 17.5547C11.1973 17.2402 10.9375 17.0078 10.5 17.0078C9.9668 17.0078 9.59766 17.3633 9.59766 17.8965C9.59766 18.0469 9.625 18.1973 9.67969 18.3613C10.0078 19.3047 11.293 20.4531 13.5898 20.4531ZM13.918 14.2871C12.373 14.2871 11.3066 13.207 11.3066 11.7031C11.3066 10.1172 12.3457 9.06445 13.9316 9.06445C15.4219 9.06445 16.543 10.1855 16.543 11.7305C16.543 13.207 15.4492 14.2871 13.918 14.2871Z" fill="black" fill-opacity="0.85"/>
 </g>
</svg>
