<?xml version="1.0" encoding="UTF-8"?>
<!--Generator: Apple Native CoreSVG 326-->
<!DOCTYPE svg
PUBLIC "-//W3C//DTD SVG 1.1//EN"
       "http://www.w3.org/Graphics/SVG/1.1/DTD/svg11.dtd">
<svg version="1.1" xmlns="http://www.w3.org/2000/svg" xmlns:xlink="http://www.w3.org/1999/xlink" viewBox="0 0 39.375 26.6738">
 <g>
  <rect height="26.6738" opacity="0" width="39.375" x="0" y="0"/>
  <path d="M0 13.3301C0 17.6641 1.4082 21.6426 3.78711 24.8828C4.21094 25.4707 4.93555 25.5254 5.48242 25.0879C5.97461 24.6641 6.04297 24.0078 5.64648 23.4609C3.56836 20.6309 2.33789 17.1172 2.33789 13.3301C2.33789 9.5293 3.56836 6.0293 5.64648 3.17188C6.04297 2.65234 5.98828 1.98242 5.48242 1.55859C4.93555 1.12109 4.21094 1.18945 3.78711 1.76367C1.4082 5.00391 0 8.99609 0 13.3301ZM39.0195 13.3301C39.0195 8.99609 37.625 5.00391 35.2324 1.76367C34.8086 1.18945 34.084 1.12109 33.5371 1.55859C33.0312 1.98242 32.9902 2.65234 33.373 3.17188C35.4648 6.0293 36.6816 9.5293 36.6816 13.3301C36.6816 17.1172 35.4648 20.6309 33.373 23.4609C32.9902 24.0078 33.0449 24.6641 33.5371 25.0879C34.084 25.5254 34.8086 25.4707 35.2324 24.8828C37.625 21.6426 39.0195 17.6641 39.0195 13.3301Z" fill="#ff9500"/>
  <path d="M19.5098 26.6602C26.8789 26.6602 32.8535 20.6855 32.8535 13.3301C32.8535 5.96094 26.8789 0 19.5098 0C12.1543 0 6.17969 5.96094 6.17969 13.3301C6.17969 20.6855 12.1543 26.6602 19.5098 26.6602ZM19.5098 24.3359C13.4395 24.3359 8.50391 19.4004 8.50391 13.3301C8.50391 7.24609 13.4395 2.31055 19.5098 2.31055C25.5938 2.31055 30.5293 7.24609 30.5293 13.3301C30.5293 19.4004 25.5938 24.3359 19.5098 24.3359Z" fill="#ff9500"/>
  <path d="M11.4023 17.7871C11.8535 17.7871 12.0996 17.5137 12.168 17.0762L12.4551 15.6953L14.4922 15.6953L14.7793 17.0898C14.8887 17.5957 15.1621 17.7871 15.5723 17.7871C15.9824 17.7871 16.2969 17.459 16.2969 17.0488C16.2969 16.9668 16.2559 16.666 16.2285 16.543L14.6699 9.85742C14.5195 9.1875 14.123 8.85938 13.4531 8.85938C12.8242 8.85938 12.4414 9.17383 12.2773 9.85742L10.7461 16.543C10.7051 16.7207 10.6641 16.8848 10.6641 17.0488C10.6641 17.5547 11.0059 17.7871 11.4023 17.7871ZM12.6738 14.5059L13.4258 10.7051L13.4805 10.7051L14.2598 14.5059ZM18.2109 17.6504L20.2617 17.6504C21.7246 17.6504 22.4492 16.543 22.4492 15.2031C22.4492 14.2188 21.8613 13.166 20.9316 13.0977L20.9316 13.043C21.8066 12.8379 22.2031 11.9219 22.2031 11.1426C22.2031 9.85742 21.4922 8.99609 20.207 8.99609L18.2109 8.99609C17.7598 8.99609 17.4453 9.24219 17.4453 9.81641L17.4453 16.8301C17.4453 17.3496 17.7051 17.6504 18.2109 17.6504ZM18.9902 16.4609L18.9902 13.7266L19.7285 13.7266C20.5215 13.7266 20.8906 14.2871 20.8906 15.0801C20.8906 15.873 20.5762 16.4609 19.7559 16.4609ZM18.9902 12.6602L18.9902 10.1855L19.7422 10.1855C20.4668 10.1855 20.7266 10.6641 20.7266 11.375C20.7266 12.1406 20.3984 12.6602 19.6465 12.6602ZM25.8398 17.8418C27.4395 17.8418 28.3008 16.8164 28.3008 15.2988C28.3008 13.9043 27.5625 13.2754 26.5645 12.7832L26.0723 12.5508C25.4297 12.2227 24.9922 11.8672 24.9922 11.1289C24.9922 10.5547 25.2656 10.0762 25.8125 10.0762C26.3867 10.0762 26.6191 10.541 26.7559 11.1016C26.8379 11.416 27.125 11.6074 27.4805 11.6074C27.877 11.6074 28.123 11.334 28.123 10.9648C28.123 10.7871 28.082 10.5957 28.0137 10.4043C27.6992 9.44727 26.9199 8.77734 25.8125 8.77734C24.5273 8.77734 23.4746 9.65234 23.4746 11.2656C23.4746 12.6328 24.2676 13.2891 25.1836 13.7676L25.6621 14C26.3457 14.3555 26.7695 14.6836 26.7695 15.4492C26.7695 16.0918 26.4414 16.5703 25.8535 16.5703C25.2656 16.5703 24.9922 16.1328 24.8555 15.5449C24.7461 15.1758 24.5137 14.9844 24.1309 14.9844C23.707 14.9844 23.4609 15.2852 23.4609 15.6953C23.4609 15.832 23.4883 15.9824 23.5156 16.1191C23.8027 17.1855 24.623 17.8418 25.8398 17.8418Z" fill="#ff9500"/>
 </g>
</svg>
