<?xml version="1.0" encoding="UTF-8"?>
<!--Generator: Apple Native CoreSVG 326-->
<!DOCTYPE svg
PUBLIC "-//W3C//DTD SVG 1.1//EN"
       "http://www.w3.org/Graphics/SVG/1.1/DTD/svg11.dtd">
<svg version="1.1" xmlns="http://www.w3.org/2000/svg" xmlns:xlink="http://www.w3.org/1999/xlink" viewBox="0 0 39.375 34.9796">
 <g>
  <rect height="34.9796" opacity="0" width="39.375" x="0" y="0"/>
  <path d="M5.64598 7.3255C3.56815 10.1828 2.33789 13.6825 2.33789 17.4829C2.33789 21.2701 3.56836 24.7837 5.64648 27.6138C6.04297 28.1607 5.97461 28.8169 5.48242 29.2408C4.93555 29.6783 4.21094 29.6236 3.78711 29.0357C1.4082 25.7954 0 21.8169 0 17.4829C0 13.149 1.4082 9.15677 3.78711 5.91654C3.85341 5.82671 3.92707 5.74927 4.00692 5.68568ZM35.2324 5.91654C37.625 9.15677 39.0195 13.149 39.0195 17.4829C39.0195 21.8169 37.625 25.7954 35.2324 29.0357C35.1772 29.1122 35.1169 29.1798 35.0524 29.2379L33.3957 27.5805C35.4741 24.7569 36.6816 21.2556 36.6816 17.4829C36.6816 13.6822 35.4648 10.1822 33.373 7.32474C32.9902 6.80521 33.0312 6.13529 33.5371 5.71146C34.084 5.27396 34.8086 5.34232 35.2324 5.91654Z" fill="#ff9500"/>
  <path d="M10.1043 11.7859C9.08502 13.4429 8.50391 15.3953 8.50391 17.4829C8.50391 23.5533 13.4395 28.4888 19.5098 28.4888C21.5956 28.4888 23.5464 27.9087 25.2025 26.891L26.8926 28.5819C24.7801 29.9925 22.2407 30.813 19.5098 30.813C12.1543 30.813 6.17969 24.8384 6.17969 17.4829C6.17969 14.7487 7.00222 12.2083 8.41565 10.0965ZM32.8535 17.4829C32.8535 20.1957 32.0408 22.7206 30.6407 24.8242L28.9507 23.1334C29.9567 21.4864 30.5293 19.5505 30.5293 17.4829C30.5293 11.399 25.5938 6.46341 19.5098 6.46341C17.444 6.46341 15.5097 7.03497 13.8636 8.03937L12.1797 6.35466C14.2808 4.96088 16.8017 4.15287 19.5098 4.15287C26.8789 4.15287 32.8535 10.1138 32.8535 17.4829Z" fill="#ff9500"/>
  <path d="M13.3843 15.0674L12.6738 18.6587L14.2598 18.6587L13.5593 15.2425L15.3824 17.0664L16.2285 20.6958C16.2559 20.8189 16.2969 21.1197 16.2969 21.2017C16.2969 21.6118 15.9824 21.94 15.5723 21.94C15.1621 21.94 14.8887 21.7486 14.7793 21.2427L14.4922 19.8482L12.4551 19.8482L12.168 21.229C12.0996 21.6665 11.8535 21.94 11.4023 21.94C11.0059 21.94 10.6641 21.7076 10.6641 21.2017C10.6641 21.0376 10.7051 20.8736 10.7461 20.6958L12.2773 14.0103C12.2806 13.9966 12.284 13.9831 12.288 13.9706ZM20.1171 21.8033L18.2109 21.8033C17.7051 21.8033 17.4453 21.5025 17.4453 20.9829L17.4453 19.1303ZM28.0137 14.5572C28.082 14.7486 28.123 14.94 28.123 15.1177C28.123 15.4868 27.877 15.7603 27.4805 15.7603C27.125 15.7603 26.8379 15.5689 26.7559 15.2544C26.6191 14.6939 26.3867 14.229 25.8125 14.229C25.252 14.229 24.9922 14.7076 24.9922 15.2818C24.9922 16.0201 25.4297 16.3755 26.0723 16.7036L26.5645 16.9361C27.5625 17.4283 28.3008 18.0572 28.3008 19.4517C28.3008 20.373 27.9783 21.1129 27.3682 21.5501L26.3755 20.557C26.6323 20.3647 26.7695 20.0177 26.7695 19.6021C26.7695 18.8365 26.3457 18.5083 25.6621 18.1529L25.1836 17.9204C24.2676 17.4419 23.4746 16.7857 23.4746 15.4185C23.4746 13.8052 24.5273 12.9302 25.8125 12.9302C26.9199 12.9302 27.6992 13.6001 28.0137 14.5572ZM22.2031 15.2954C22.2031 15.5939 22.145 15.9124 22.0235 16.203L20.5414 14.7202C20.4786 14.6185 20.3968 14.5354 20.2943 14.473L18.9709 13.149L20.207 13.149C21.4922 13.149 22.2031 14.0103 22.2031 15.2954Z" fill="#ff9500"/>
  <path d="M33.6465 33.0689C34.0566 33.479 34.7402 33.479 35.1367 33.0689C35.5469 32.6587 35.5469 31.9888 35.1367 31.5786L5.53711 1.97904C5.12695 1.56888 4.45703 1.55521 4.0332 1.97904C3.63672 2.37552 3.63672 3.05912 4.0332 3.46927Z" fill="#ff9500"/>
 </g>
</svg>
