<?xml version="1.0" encoding="UTF-8"?>
<!--Generator: Apple Native CoreSVG 326-->
<!DOCTYPE svg
PUBLIC "-//W3C//DTD SVG 1.1//EN"
       "http://www.w3.org/Graphics/SVG/1.1/DTD/svg11.dtd">
<svg version="1.1" xmlns="http://www.w3.org/2000/svg" xmlns:xlink="http://www.w3.org/1999/xlink" viewBox="0 0 28.2461 27.9043">
 <g>
  <rect height="27.9043" opacity="0" width="28.2461" x="0" y="0"/>
  <path d="M13.9453 27.8906C21.6426 27.8906 27.8906 21.6426 27.8906 13.9453C27.8906 6.24805 21.6426 0 13.9453 0C6.24805 0 0 6.24805 0 13.9453C0 21.6426 6.24805 27.8906 13.9453 27.8906ZM13.9453 25.5664C7.51953 25.5664 2.32422 20.3711 2.32422 13.9453C2.32422 7.51953 7.51953 2.32422 13.9453 2.32422C20.3711 2.32422 25.5664 7.51953 25.5664 13.9453C25.5664 20.3711 20.3711 25.5664 13.9453 25.5664Z" fill="#ff9500"/>
  <path d="M5.82422 18.4023C6.27539 18.4023 6.52148 18.1289 6.58984 17.6914L6.87695 16.3105L8.91406 16.3105L9.20117 17.7051C9.31055 18.2109 9.58398 18.4023 9.99414 18.4023C10.4043 18.4023 10.7188 18.0742 10.7188 17.6641C10.7188 17.582 10.6777 17.2812 10.6504 17.1582L9.0918 10.4727C8.94141 9.80273 8.54492 9.47461 7.875 9.47461C7.24609 9.47461 6.86328 9.78906 6.69922 10.4727L5.16797 17.1582C5.12695 17.3359 5.08594 17.5 5.08594 17.6641C5.08594 18.1699 5.42773 18.4023 5.82422 18.4023ZM7.0957 15.1211L7.84766 11.3203L7.90234 11.3203L8.68164 15.1211ZM12.6328 18.2656L14.6836 18.2656C16.1465 18.2656 16.8711 17.1582 16.8711 15.8184C16.8711 14.834 16.2832 13.7812 15.3535 13.7129L15.3535 13.6582C16.2285 13.4531 16.625 12.5371 16.625 11.7578C16.625 10.4727 15.9141 9.61133 14.6289 9.61133L12.6328 9.61133C12.1816 9.61133 11.8672 9.85742 11.8672 10.4316L11.8672 17.4453C11.8672 17.9648 12.127 18.2656 12.6328 18.2656ZM13.4121 17.0762L13.4121 14.3418L14.1504 14.3418C14.9434 14.3418 15.3125 14.9023 15.3125 15.6953C15.3125 16.4883 14.9844 17.0762 14.1777 17.0762ZM13.4121 13.2754L13.4121 10.8008L14.1641 10.8008C14.8887 10.8008 15.1484 11.2793 15.1484 11.9902C15.1484 12.7559 14.8203 13.2754 14.0547 13.2754ZM20.2617 18.457C21.8477 18.457 22.7227 17.4316 22.7227 15.9141C22.7227 14.5195 21.9844 13.8906 20.9863 13.3984L20.4941 13.166C19.8516 12.8379 19.4141 12.4824 19.4141 11.7441C19.4141 11.1699 19.6738 10.6914 20.2344 10.6914C20.8086 10.6914 21.041 11.1562 21.1777 11.7168C21.2598 12.0312 21.5332 12.2227 21.9023 12.2227C22.2988 12.2227 22.5449 11.9492 22.5449 11.5801C22.5449 11.4023 22.5039 11.2109 22.4355 11.0195C22.1211 10.0625 21.3418 9.39258 20.2344 9.39258C18.9492 9.39258 17.8965 10.2676 17.8965 11.8809C17.8965 13.248 18.6895 13.9043 19.6055 14.3828L20.084 14.6152C20.7676 14.9707 21.1914 15.2988 21.1914 16.0645C21.1914 16.707 20.8633 17.1855 20.2617 17.1855C19.6875 17.1855 19.4141 16.748 19.2637 16.1602C19.168 15.791 18.9355 15.5996 18.5391 15.5996C18.1289 15.5996 17.8828 15.9004 17.8828 16.3105C17.8828 16.4473 17.9102 16.5977 17.9375 16.7344C18.2246 17.8008 19.0449 18.457 20.2617 18.457Z" fill="#ff9500"/>
 </g>
</svg>
