<?xml version="1.0" encoding="UTF-8"?>
<!--Generator: Apple Native CoreSVG 326-->
<!DOCTYPE svg
PUBLIC "-//W3C//DTD SVG 1.1//EN"
       "http://www.w3.org/Graphics/SVG/1.1/DTD/svg11.dtd">
<svg version="1.1" xmlns="http://www.w3.org/2000/svg" xmlns:xlink="http://www.w3.org/1999/xlink" viewBox="0 0 28.2461 27.9043">
 <g>
  <rect height="27.9043" opacity="0" width="28.2461" x="0" y="0"/>
  <path d="M13.9453 27.8906C21.6426 27.8906 27.8906 21.6426 27.8906 13.9453C27.8906 6.24805 21.6426 0 13.9453 0C6.24805 0 0 6.24805 0 13.9453C0 21.6426 6.24805 27.8906 13.9453 27.8906ZM13.9453 25.5664C7.51953 25.5664 2.32422 20.3711 2.32422 13.9453C2.32422 7.51953 7.51953 2.32422 13.9453 2.32422C20.3711 2.32422 25.5664 7.51953 25.5664 13.9453C25.5664 20.3711 20.3711 25.5664 13.9453 25.5664Z" fill="#007aff"/>
  <path d="M13.9316 9.32422C11.9902 9.32422 9.22852 8.99609 7.90234 8.79102C7.7793 8.77734 7.66992 8.73633 7.5332 8.73633C7.19141 8.73633 6.83594 9.02344 6.83594 9.51562C6.83594 9.88477 7.06836 10.1992 7.41016 10.2949C7.86133 10.4316 10.9648 10.7871 11.3613 10.8555C11.7441 10.9375 11.9766 11.2656 11.9902 11.7305C12.0039 12.4414 11.9902 14.7109 11.8125 15.75C11.6484 16.7754 10.459 21.7109 10.4043 21.9297C10.2539 22.4629 10.582 22.9277 11.1152 22.9277C11.498 22.9277 11.7578 22.7227 11.9082 22.2031C12.1406 21.2051 13.002 17.7871 13.2754 16.9668C13.4395 16.3652 13.5898 16.1602 13.9316 16.1602C14.2598 16.1602 14.4102 16.3652 14.6016 16.9668C14.834 17.7871 15.7227 21.2051 15.9551 22.2031C16.0918 22.7227 16.3652 22.9277 16.748 22.9277C17.2812 22.9277 17.5957 22.4629 17.4453 21.9297C17.4043 21.7109 16.2012 16.7754 16.0371 15.75C15.8867 14.7109 15.8867 12.4414 15.8867 11.7305C15.8867 11.2656 16.1055 10.9375 16.502 10.8555C16.8848 10.7871 20.002 10.4316 20.4395 10.2949C20.7949 10.1992 21.0273 9.88477 21.0273 9.51562C21.0273 9.02344 20.6582 8.73633 20.3164 8.73633C20.1934 8.73633 20.0703 8.77734 19.9473 8.79102C18.6348 8.99609 15.8867 9.32422 13.9316 9.32422ZM13.9316 8.42188C14.916 8.42188 15.709 7.61523 15.709 6.64453C15.709 5.66016 14.916 4.86719 13.9316 4.86719C12.9473 4.86719 12.1543 5.66016 12.1543 6.64453C12.1543 7.61523 12.9473 8.42188 13.9316 8.42188Z" fill="#007aff"/>
 </g>
</svg>
