<?xml version="1.0" encoding="UTF-8"?>
<!--Generator: Apple Native CoreSVG 326-->
<!DOCTYPE svg
PUBLIC "-//W3C//DTD SVG 1.1//EN"
       "http://www.w3.org/Graphics/SVG/1.1/DTD/svg11.dtd">
<svg version="1.1" xmlns="http://www.w3.org/2000/svg" xmlns:xlink="http://www.w3.org/1999/xlink" viewBox="0 0 33.209 32.416">
 <g>
  <rect height="32.416" opacity="0" width="33.209" x="0" y="0"/>
  <path d="M18.0742 20.084C18.0742 23.7344 21.041 25.6348 21.041 28.8203C21.041 29.5586 20.8906 30.1738 20.4531 30.9531C20.1797 31.4453 20.3711 31.8828 20.6855 32.1152C21.082 32.375 21.6836 32.3613 22.0254 31.7461C22.5586 30.8438 22.8184 29.8594 22.8184 28.8203C22.8184 25.1016 19.8379 23.2148 19.8379 20.084C19.8379 19.3457 20.002 18.7305 20.4531 17.9238C20.7129 17.459 20.5352 17.0078 20.1797 16.7754C19.7969 16.543 19.1953 16.5566 18.8672 17.1309C18.3066 18.0332 18.0742 19.0449 18.0742 20.084ZM14.0547 20.0977C14.0547 23.7344 17.0215 25.6484 17.0215 28.8203C17.0215 29.5723 16.8711 30.1875 16.4199 30.9668C16.1602 31.4453 16.3516 31.8965 16.666 32.1289C17.0625 32.375 17.6641 32.375 18.0059 31.7734C18.5391 30.8574 18.7988 29.8594 18.7988 28.8203C18.7988 25.1152 15.8184 23.2285 15.8184 20.0977C15.8184 19.3457 15.9824 18.7305 16.4199 17.9375C16.6934 17.4727 16.5156 17.0078 16.1602 16.7754C15.7773 16.543 15.1621 16.5566 14.8477 17.1445C14.2871 18.0469 14.0547 19.0586 14.0547 20.0977ZM10.0352 20.084C10.0352 23.7344 13.002 25.6348 13.002 28.8203C13.002 29.5586 12.8516 30.1738 12.4004 30.9531C12.127 31.4453 12.332 31.8828 12.6465 32.1152C13.043 32.375 13.6445 32.3613 13.9863 31.7461C14.5195 30.8438 14.7793 29.8594 14.7793 28.8203C14.7793 25.1016 11.7988 23.2148 11.7988 20.084C11.7988 19.3457 11.9629 18.7305 12.4004 17.9238C12.6738 17.459 12.4824 17.0078 12.1406 16.7754C11.7578 16.543 11.1426 16.5566 10.8145 17.1309C10.2676 18.0332 10.0352 19.0449 10.0352 20.084ZM22.3262 20.7129C22.3262 21.0137 22.5859 21.2324 22.9004 21.2051L24.0352 21.1367L23.3926 22.0801C23.2422 22.3125 23.2969 22.668 23.5566 22.832C23.8164 23.0098 24.1719 22.8867 24.2949 22.5859L24.8008 21.5605L25.3203 22.6133C25.457 22.873 25.7852 22.9961 26.0586 22.8457C26.3047 22.709 26.3867 22.3262 26.209 22.0664L25.5664 21.1367L26.7012 21.2188C27.002 21.2461 27.2754 21.0273 27.2754 20.7129C27.2754 20.3848 27.0293 20.166 26.7148 20.1934L25.5527 20.2617L26.209 19.3047C26.373 19.0449 26.332 18.7168 26.0586 18.5664C25.7852 18.416 25.457 18.5117 25.3203 18.7852L24.8008 19.8105L24.3086 18.7988C24.1855 18.5117 23.8438 18.3887 23.5566 18.5527C23.2969 18.6895 23.2285 19.0449 23.3926 19.3047L24.0352 20.2617L22.9004 20.207C22.5723 20.1934 22.3262 20.3984 22.3262 20.7129ZM5.6875 28.1777C5.6875 28.4922 5.93359 28.7246 6.24805 28.6973L7.39648 28.6289L6.74023 29.5859C6.57617 29.832 6.63086 30.1738 6.89062 30.3105C7.17773 30.4746 7.50586 30.3652 7.62891 30.0918L8.14844 29.0664L8.66797 30.0781C8.77734 30.3789 9.11914 30.4883 9.40625 30.3379C9.66602 30.2012 9.73438 29.832 9.57031 29.5859L8.92773 28.6289L10.0625 28.6836C10.377 28.6973 10.623 28.4785 10.623 28.1777C10.623 27.877 10.3633 27.6582 10.0625 27.6855L8.91406 27.7539L9.55664 26.8105C9.70703 26.5781 9.65234 26.2227 9.40625 26.0586C9.14648 25.8809 8.77734 26.0039 8.6543 26.3047L8.14844 27.3164L7.62891 26.2773C7.49219 26.0176 7.17773 25.8945 6.89062 26.0449C6.64453 26.1816 6.5625 26.5645 6.74023 26.8242L7.38281 27.7539L6.26172 27.6719C5.96094 27.6445 5.6875 27.8633 5.6875 28.1777Z" fill="black" fill-opacity="0.85"/>
  <path d="M0 3.10352L0 11.5801C0 13.4668 1.20312 14.6836 3.04883 14.6836L29.8047 14.6836C31.6504 14.6836 32.8535 13.4668 32.8535 11.5801L32.8535 3.10352C32.8535 1.2168 31.6504 0 29.8047 0L3.04883 0C1.20312 0 0 1.2168 0 3.10352ZM22.1895 10.9375C22.1895 10.5273 22.5176 10.2266 22.9141 10.2266L28.4785 10.2266C28.875 10.2266 29.2031 10.5273 29.2031 10.9375C29.2031 11.334 28.875 11.6484 28.4785 11.6484L22.9141 11.6484C22.5176 11.6484 22.1895 11.334 22.1895 10.9375ZM22.1895 8.03906C22.1895 7.62891 22.5176 7.30078 22.9141 7.30078L28.4785 7.30078C28.875 7.30078 29.2031 7.62891 29.2031 8.03906C29.2031 8.42188 28.875 8.73633 28.4785 8.73633L22.9141 8.73633C22.5176 8.73633 22.1895 8.42188 22.1895 8.03906ZM12.9746 10.9375C12.9746 10.5273 13.2891 10.2266 13.6992 10.2266L19.2637 10.2266C19.6465 10.2266 19.9746 10.5273 19.9746 10.9375C19.9746 11.334 19.6465 11.6484 19.2637 11.6484L13.6992 11.6484C13.2891 11.6484 12.9746 11.334 12.9746 10.9375ZM12.9746 8.03906C12.9746 7.62891 13.2891 7.30078 13.6992 7.30078L19.2637 7.30078C19.6465 7.30078 19.9746 7.62891 19.9746 8.03906C19.9746 8.42188 19.6465 8.73633 19.2637 8.73633L13.6992 8.73633C13.2891 8.73633 12.9746 8.42188 12.9746 8.03906ZM3.73242 10.9375C3.73242 10.5273 4.06055 10.2266 4.44336 10.2266L10.0078 10.2266C10.418 10.2266 10.7324 10.5273 10.7324 10.9375C10.7324 11.334 10.418 11.6484 10.0078 11.6484L4.44336 11.6484C4.06055 11.6484 3.73242 11.334 3.73242 10.9375ZM3.73242 8.03906C3.73242 7.62891 4.06055 7.30078 4.44336 7.30078L10.0078 7.30078C10.418 7.30078 10.7324 7.62891 10.7324 8.03906C10.7324 8.42188 10.418 8.73633 10.0078 8.73633L4.44336 8.73633C4.06055 8.73633 3.73242 8.42188 3.73242 8.03906Z" fill="black" fill-opacity="0.85"/>
 </g>
</svg>
