<?xml version="1.0" encoding="UTF-8"?>
<!--Generator: Apple Native CoreSVG 326-->
<!DOCTYPE svg
PUBLIC "-//W3C//DTD SVG 1.1//EN"
       "http://www.w3.org/Graphics/SVG/1.1/DTD/svg11.dtd">
<svg version="1.1" xmlns="http://www.w3.org/2000/svg" xmlns:xlink="http://www.w3.org/1999/xlink" viewBox="0 0 49.0684 22.1621">
 <g>
  <rect height="22.1621" opacity="0" width="49.0684" x="0" y="0"/>
  <path d="M4.34766 19.1816L6.30273 19.1816L6.30273 16.9805L4.34766 16.9805C2.87109 16.9805 2.20117 16.2285 2.20117 14.5879L2.20117 12.9199C2.20117 10.8965 3.70508 9.36523 6.34375 9.05078L11.8125 8.38086C12.6328 8.27148 13.1934 8.08008 13.7676 7.73828L18.8398 4.53906C21.8613 2.65234 23.7754 2.20117 28.9434 2.20117L31.0215 2.20117C34.6035 2.20117 37.4473 3.52734 40.9746 6.61719C41.6172 7.17773 41.959 7.32812 42.7793 7.58789L44.2285 8.05273C45.7871 8.55859 46.5117 9.36523 46.5117 10.8008L46.5117 14.5879C46.5117 16.2285 45.8418 16.9805 44.3652 16.9805L42.3828 16.9805L42.3828 19.1816L44.3652 19.1816C47.3594 19.1816 48.7129 17.7598 48.7129 14.5879L48.7129 10.8008C48.7129 8.25781 47.4824 6.67188 44.8848 5.82422L42.7109 5.09961C39.9492 2.70703 36.1484 0 31.0215 0L28.9434 0C23.3652 0 21.0137 0.560547 17.6641 2.66602L12.127 6.13867L6.07031 6.87695C2.2832 7.3418 0 9.69336 0 12.9199L0 14.6699C0 17.7871 1.38086 19.1816 4.34766 19.1816ZM13.4805 19.1816L35.3965 19.1816L35.3965 16.9805L13.4805 16.9805ZM10.0625 22.1348C12.7832 22.1348 14.916 20.002 14.916 17.2812C14.916 14.5469 12.7832 12.4141 10.0625 12.4141C7.32812 12.4141 5.19531 14.5469 5.19531 17.2812C5.19531 20.002 7.32812 22.1348 10.0625 22.1348ZM10.0625 20.0703C8.49023 20.0703 7.25977 18.8398 7.25977 17.2812C7.25977 15.709 8.49023 14.4785 10.0625 14.4785C11.6211 14.4785 12.8516 15.709 12.8516 17.2812C12.8516 18.8398 11.6211 20.0703 10.0625 20.0703ZM38.6504 22.1348C41.3848 22.1348 43.5176 20.002 43.5176 17.2812C43.5176 14.5469 41.3848 12.4141 38.6504 12.4141C35.916 12.4141 33.7832 14.5469 33.7832 17.2812C33.7832 20.002 35.916 22.1348 38.6504 22.1348ZM38.6504 20.0703C37.0918 20.0703 35.8477 18.8398 35.8477 17.2812C35.8477 15.709 37.0918 14.4785 38.6504 14.4785C40.209 14.4785 41.4531 15.709 41.4531 17.2812C41.4531 18.8398 40.209 20.0703 38.6504 20.0703Z" fill="black" fill-opacity="0.85"/>
  <path d="M18.6895 14.1777C19.2227 14.1777 19.4551 13.9043 19.5508 13.3711L19.7285 12.5234L21.3965 12.5234L21.5879 13.3984C21.6973 13.918 21.9707 14.1777 22.4219 14.1777C22.9277 14.1777 23.2559 13.8223 23.2559 13.3574C23.2559 13.166 23.2148 13.002 23.1738 12.7969L21.8887 7.36914C21.7246 6.64453 21.2734 6.33008 20.5488 6.33008C19.8516 6.33008 19.4004 6.6582 19.25 7.36914L17.9785 12.7969C17.9238 13.0156 17.8965 13.1797 17.8965 13.3574C17.8965 13.9316 18.2656 14.1777 18.6895 14.1777ZM19.9336 11.2656L20.5078 8.27148L20.5762 8.27148L21.1641 11.2656ZM25.1016 14.1777C25.6484 14.1777 25.9766 13.8359 25.9766 13.2754L25.9766 7.23242C25.9766 6.67188 25.6484 6.33008 25.1016 6.33008C24.5684 6.33008 24.2402 6.67188 24.2402 7.23242L24.2402 13.2754C24.2402 13.8359 24.5684 14.1777 25.1016 14.1777ZM28.0684 14.1777C28.6016 14.1777 28.9297 13.8359 28.9297 13.2754L28.9297 11.2793L29.4902 11.2793L30.2422 13.4531C30.3926 13.9043 30.6387 14.1777 31.0898 14.1777C31.5957 14.1777 31.9238 13.8633 31.9238 13.4121C31.9238 13.248 31.8691 13.0293 31.8008 12.8242L31.0762 10.9238C31.7324 10.5 31.9922 9.66602 31.9922 8.88672C31.9922 7.4375 31.2402 6.43945 29.5449 6.43945L28.0684 6.43945C27.5215 6.43945 27.207 6.78125 27.207 7.3418L27.207 13.2754C27.207 13.8223 27.5352 14.1777 28.0684 14.1777ZM28.9297 10.0898L28.9297 7.75195L29.3945 7.75195C29.9551 7.75195 30.2422 8.33984 30.2422 8.91406C30.2422 9.51562 29.9688 10.0762 29.3945 10.0762Z" fill="black" fill-opacity="0.85"/>
 </g>
</svg>
