<?xml version="1.0" encoding="UTF-8"?>
<!--Generator: Apple Native CoreSVG 326-->
<!DOCTYPE svg
PUBLIC "-//W3C//DTD SVG 1.1//EN"
       "http://www.w3.org/Graphics/SVG/1.1/DTD/svg11.dtd">
<svg version="1.1" xmlns="http://www.w3.org/2000/svg" xmlns:xlink="http://www.w3.org/1999/xlink" viewBox="0 0 52.1992 22.2441">
 <g>
  <rect height="22.2441" opacity="0" width="52.1992" x="0" y="0"/>
  <path d="M3.48633 19.373L5.19531 19.373C5.09961 18.9492 5.03125 18.5391 5.03125 18.0879C5.03125 15.1758 7.38281 12.8379 10.2812 12.8379C13.1934 12.8379 15.5312 15.1758 15.5312 18.0879C15.5312 18.5391 15.4766 18.9629 15.3809 19.373L34.0566 19.373C33.9473 18.9492 33.8926 18.5391 33.8926 18.0879C33.8926 15.1895 36.2441 12.8379 39.1426 12.8379C42.0547 12.8379 44.3926 15.1758 44.3926 18.0879C44.3926 18.5391 44.3379 18.9492 44.2285 19.373L48.3711 19.373C50.5449 19.373 51.8438 18.0332 51.8438 15.8047L51.8438 10.4316C51.8438 8.20312 50.5449 6.86328 48.3711 6.86328L37.2285 6.86328L36.9004 4.07422C36.5859 1.36719 35.0684 0 32.375 0L26.8516 0C22.4492 0 19.7422 0.683594 16.707 2.59766L11.1152 6.09766L6.01562 6.87695C1.87305 7.50586 0 9.2832 0 12.4961L0 15.8047C0 18.0332 1.3125 19.373 3.48633 19.373ZM10.2812 21.7383C12.332 21.7383 13.9453 20.125 13.9453 18.0879C13.9453 16.0508 12.3184 14.4238 10.2812 14.4238C8.25781 14.4238 6.63086 16.0508 6.63086 18.0879C6.63086 20.1113 8.25781 21.7383 10.2812 21.7383ZM39.1426 21.7383C41.1797 21.7383 42.8066 20.1113 42.8066 18.0879C42.8066 16.0508 41.1797 14.4238 39.1426 14.4238C37.1191 14.4238 35.4785 16.0645 35.4785 18.0879C35.4785 20.1113 37.1055 21.7383 39.1426 21.7383Z" fill="black" fill-opacity="0.85"/>
  <path d="M18.6621 13.5215C18.2246 13.5215 17.8418 13.2617 17.8418 12.6738C17.8418 12.4824 17.8691 12.3047 17.9238 12.0859L19.2227 6.50781C19.3867 5.76953 19.8652 5.41406 20.5762 5.41406C21.3281 5.41406 21.8066 5.75586 21.9707 6.50781L23.2969 12.0859C23.3379 12.3047 23.3789 12.4688 23.3789 12.6738C23.3789 13.1523 23.0371 13.5215 22.5176 13.5215C22.0391 13.5215 21.7656 13.248 21.6426 12.7148L21.4375 11.8262L19.7422 11.8262L19.5508 12.6875C19.4551 13.2207 19.209 13.5215 18.6621 13.5215ZM19.9473 10.5137L21.2188 10.5137L20.6035 7.4375L20.5352 7.4375ZM25.2793 13.5215C24.7324 13.5215 24.377 13.1523 24.377 12.5918L24.377 6.34375C24.377 5.7832 24.7324 5.41406 25.2793 5.41406C25.8398 5.41406 26.1816 5.7832 26.1816 6.34375L26.1816 12.5918C26.1816 13.1523 25.8398 13.5215 25.2793 13.5215ZM28.3555 13.5078C27.7949 13.5078 27.4531 13.1523 27.4531 12.5918L27.4531 6.48047C27.4531 5.87891 27.7812 5.53711 28.3555 5.53711L29.873 5.53711C31.623 5.53711 32.3887 6.57617 32.3887 8.06641C32.3887 8.85938 32.1289 9.73438 31.459 10.1582L32.1973 12.1133C32.2656 12.332 32.334 12.5645 32.334 12.7148C32.334 13.1797 31.9785 13.5078 31.459 13.5078C30.9941 13.5078 30.7207 13.2344 30.5703 12.7695L29.8047 10.541L29.2441 10.541L29.2441 12.5918C29.2441 13.1523 28.8887 13.5078 28.3555 13.5078ZM29.2441 9.29688L29.7227 9.29688C30.2969 9.29688 30.5703 8.69531 30.5703 8.09375C30.5703 7.50586 30.2969 6.89062 29.7227 6.89062L29.2441 6.89062Z" fill="white"/>
 </g>
</svg>
