<?xml version="1.0" encoding="UTF-8"?>
<!--Generator: Apple Native CoreSVG 326-->
<!DOCTYPE svg
PUBLIC "-//W3C//DTD SVG 1.1//EN"
       "http://www.w3.org/Graphics/SVG/1.1/DTD/svg11.dtd">
<svg version="1.1" xmlns="http://www.w3.org/2000/svg" xmlns:xlink="http://www.w3.org/1999/xlink" viewBox="0 0 15.4492 24.0488">
 <g>
  <rect height="24.0488" opacity="0" width="15.4492" x="0" y="0"/>
  <path d="M9.20117 0.0957031C5.01758 0.0957031 0 4.26562 0 8.32617C0 11.6895 3.36328 14.3418 6.08398 14.3281C9.87109 14.3145 15.0938 9.92578 15.0938 6.26172C15.0938 2.7207 12.3594 0.0957031 9.20117 0.0957031ZM4.78516 12.4414C4.01953 12.4414 2.84375 11.4844 2.10547 10.2949C1.38086 9.07812 1.4082 8.13477 2.17383 8.13477C2.92578 8.13477 4.11523 9.07812 4.83984 10.2949C5.56445 11.4844 5.53711 12.4414 4.78516 12.4414ZM8.59961 6.34375C8.16211 5.72852 8.3125 4.9082 8.91406 4.48438L10.8145 3.10352C11.4023 2.66602 12.2363 2.81641 12.6465 3.43164C13.1113 4.0332 12.9746 4.82617 12.373 5.27734L10.4727 6.63086C9.84375 7.08203 9.00977 6.94531 8.59961 6.34375ZM9.87109 24.0488L11.5801 24.0488C12.4277 24.0488 12.9883 23.6113 12.9883 22.7773L12.9883 12.5645C11.6484 13.7676 10.0625 14.7246 8.46289 15.2305L8.46289 22.7773C8.46289 23.6113 9.00977 24.0488 9.87109 24.0488Z" fill="black" fill-opacity="0.85"/>
 </g>
</svg>
