<?xml version="1.0" encoding="UTF-8"?>
<!--Generator: Apple Native CoreSVG 326-->
<!DOCTYPE svg
PUBLIC "-//W3C//DTD SVG 1.1//EN"
       "http://www.w3.org/Graphics/SVG/1.1/DTD/svg11.dtd">
<svg version="1.1" xmlns="http://www.w3.org/2000/svg" xmlns:xlink="http://www.w3.org/1999/xlink" viewBox="0 0 12.2783 26.6738">
 <g>
  <rect height="26.6738" opacity="0" width="12.2783" x="0" y="0"/>
  <path d="M5.9067 11.0879C8.84616 11.0469 10.6919 9.26953 11.5122 7.99805C11.7856 7.56055 11.9223 7.08203 11.9223 6.54883L11.9223 4.53906C11.9223 4.00586 11.7993 3.52734 11.5122 3.08984C10.6645 1.81836 8.84616 0 5.9067 0C2.70748 0 0.0414689 2.48828 0.000453312 5.52344C-0.0405623 8.59961 2.70748 11.1152 5.9067 11.0879ZM9.43405 7.71094C9.06491 7.71094 8.7778 7.42383 8.7778 7.05469L8.7778 4.01953C8.7778 3.65039 9.06491 3.36328 9.43405 3.36328C9.80319 3.36328 10.0766 3.65039 10.0766 4.01953L10.0766 7.05469C10.0766 7.42383 9.80319 7.71094 9.43405 7.71094ZM5.20944 22.1211L5.20944 12.373C3.77389 12.2637 2.43405 11.7168 1.35397 10.8828L1.35397 22.1211ZM3.86959 26.6328C4.68991 26.6328 5.20944 26.2227 5.20944 25.416L5.20944 23.4883L1.35397 23.4883L1.35397 25.416C1.35397 26.2227 1.8735 26.6328 2.70748 26.6328Z" fill="black" fill-opacity="0.85"/>
 </g>
</svg>
