<?xml version="1.0" encoding="UTF-8"?>
<!--Generator: Apple Native CoreSVG 326-->
<!DOCTYPE svg
PUBLIC "-//W3C//DTD SVG 1.1//EN"
       "http://www.w3.org/Graphics/SVG/1.1/DTD/svg11.dtd">
<svg version="1.1" xmlns="http://www.w3.org/2000/svg" xmlns:xlink="http://www.w3.org/1999/xlink" viewBox="0 0 33.0479 31.7321">
 <g>
  <rect height="31.7321" opacity="0" width="33.0479" x="0" y="0"/>
  <path d="M1.58743 28.0956L31.0913 28.0956C31.6929 28.0956 32.1851 27.5897 32.1851 26.9881C32.1851 26.3866 31.6929 25.8944 31.0913 25.8944L1.58743 25.8944C0.985871 25.8944 0.493683 26.3866 0.493683 26.9881C0.493683 27.5897 0.985871 28.0956 1.58743 28.0956Z" fill="black" fill-opacity="0.85"/>
  <path d="M3.58353 13.6991L27.0034 20.0018C29.6284 20.7127 32.2945 20.0155 32.6636 17.9784C32.9644 16.1053 30.9136 14.41 28.4663 13.9315L19.9488 12.2362C19.3609 12.1268 19.0191 11.8944 18.6089 11.3065L11.3765 0.902194C11.1441 0.574069 10.8296 0.355319 10.4468 0.259616L9.4761 0.0135219C9.13431-0.0685093 8.87454 0.232272 8.97025 0.6561L11.5952 11.7713L12.4566 10.7596L5.27884 9.35141L7.57571 10.7733L2.05228 4.32016C1.77884 4.00571 1.49173 3.91001 0.999542 4.01938L0.480011 4.12876C0.110871 4.19712-0.053192 4.48423 0.0151674 4.81235L1.46439 11.8944C1.65579 12.7967 2.40775 13.3846 3.58353 13.6991Z" fill="black" fill-opacity="0.85"/>
 </g>
</svg>
