<?xml version="1.0" encoding="UTF-8"?>
<!--Generator: Apple Native CoreSVG 326-->
<!DOCTYPE svg
PUBLIC "-//W3C//DTD SVG 1.1//EN"
       "http://www.w3.org/Graphics/SVG/1.1/DTD/svg11.dtd">
<svg version="1.1" xmlns="http://www.w3.org/2000/svg" xmlns:xlink="http://www.w3.org/1999/xlink" viewBox="0 0 12.2773 26.6738">
 <g>
  <rect height="26.6738" opacity="0" width="12.2773" x="0" y="0"/>
  <path d="M6.01562 11.0879C9.21484 11.1152 11.9629 8.59961 11.9219 5.52344C11.8809 2.48828 9.21484 0 6.01562 0C3.07617 0 1.27148 1.81836 0.410156 3.08984C0.123047 3.52734 0 4.00586 0 4.53906L0 6.54883C0 7.08203 0.136719 7.56055 0.410156 7.99805C1.24414 9.26953 3.07617 11.0469 6.01562 11.0879ZM2.48828 7.71094C2.13281 7.71094 1.8457 7.42383 1.8457 7.05469L1.8457 4.01953C1.8457 3.65039 2.13281 3.36328 2.48828 3.36328C2.87109 3.36328 3.14453 3.65039 3.14453 4.01953L3.14453 7.05469C3.14453 7.42383 2.87109 7.71094 2.48828 7.71094ZM6.71289 22.1211L10.5684 22.1211L10.5684 10.8828C9.48828 11.7168 8.14844 12.2637 6.71289 12.373ZM8.05273 26.6328L9.21484 26.6328C10.0488 26.6328 10.5684 26.2227 10.5684 25.416L10.5684 23.4883L6.71289 23.4883L6.71289 25.416C6.71289 26.2227 7.24609 26.6328 8.05273 26.6328Z" fill="black" fill-opacity="0.85"/>
 </g>
</svg>
