<?xml version="1.0" encoding="UTF-8"?>
<!--Generator: Apple Native CoreSVG 326-->
<!DOCTYPE svg
PUBLIC "-//W3C//DTD SVG 1.1//EN"
       "http://www.w3.org/Graphics/SVG/1.1/DTD/svg11.dtd">
<svg version="1.1" xmlns="http://www.w3.org/2000/svg" xmlns:xlink="http://www.w3.org/1999/xlink" viewBox="0 0 28.2461 27.9043">
 <g>
  <rect height="27.9043" opacity="0" width="28.2461" x="0" y="0"/>
  <path d="M13.9453 27.8906C21.6426 27.8906 27.8906 21.6426 27.8906 13.9453C27.8906 6.24805 21.6426 0 13.9453 0C6.24805 0 0 6.24805 0 13.9453C0 21.6426 6.24805 27.8906 13.9453 27.8906ZM13.9453 25.5664C7.51953 25.5664 2.32422 20.3711 2.32422 13.9453C2.32422 7.51953 7.51953 2.32422 13.9453 2.32422C20.3711 2.32422 25.5664 7.51953 25.5664 13.9453C25.5664 20.3711 20.3711 25.5664 13.9453 25.5664Z" fill="black" fill-opacity="0.85"/>
  <path d="M13.9453 6.94531C10.1035 6.94531 6.97266 10.1035 6.97266 13.9453C6.97266 15.8047 7.68359 17.5684 9.00977 18.8672L9.74805 18.0469C8.68164 16.9395 8.08008 15.4629 8.08008 13.9453C8.08008 10.7188 10.7324 8.05273 13.9453 8.05273C17.1719 8.05273 19.8379 10.7188 19.8379 13.9453C19.8379 15.4629 19.2227 16.9395 18.1426 18.0469L18.8809 18.8672C20.207 17.5684 20.9453 15.8047 20.9453 13.9453C20.9453 10.1035 17.7871 6.94531 13.9453 6.94531Z" fill="black" fill-opacity="0.85"/>
  <path d="M13.9453 8.88672C11.1699 8.88672 8.91406 11.1699 8.91406 13.9453C8.91406 15.2441 9.39258 16.4609 10.2949 17.418L11.0332 16.5703C10.377 15.8457 10.0352 14.916 10.0352 13.9453C10.0352 11.7852 11.7988 10.0078 13.9453 10.0078C16.0918 10.0078 17.8691 11.7852 17.8691 13.9453C17.8691 14.916 17.5137 15.8594 16.8438 16.5566L17.5957 17.418C18.5117 16.4473 18.9902 15.2441 18.9902 13.9453C18.9902 11.1699 16.7207 8.88672 13.9453 8.88672Z" fill="black" fill-opacity="0.85"/>
  <path d="M13.9453 10.8281C12.25 10.8281 10.8418 12.25 10.8418 13.9453C10.8418 14.7109 11.1152 15.3945 11.5938 15.9551L12.3594 15.0938C12.0996 14.752 11.9629 14.3418 11.9629 13.9453C11.9629 12.8516 12.8516 11.9492 13.9453 11.9492C15.0391 11.9492 15.9414 12.8516 15.9414 13.9453C15.9414 14.3418 15.791 14.752 15.5312 15.0801L16.2969 15.9414C16.7754 15.3945 17.0625 14.6973 17.0625 13.9453C17.0625 12.25 15.6406 10.8281 13.9453 10.8281Z" fill="black" fill-opacity="0.85"/>
  <path d="M9.95312 20.8086L17.9375 20.8086C18.3887 20.8086 18.5938 20.3164 18.293 19.9883L14.3555 15.5312C14.1641 15.2988 13.7676 15.2988 13.5488 15.5312L9.59766 19.9883C9.29688 20.3164 9.5293 20.8086 9.95312 20.8086Z" fill="black" fill-opacity="0.85"/>
 </g>
</svg>
