<?xml version="1.0" encoding="UTF-8"?>
<!--Generator: Apple Native CoreSVG 326-->
<!DOCTYPE svg
PUBLIC "-//W3C//DTD SVG 1.1//EN"
       "http://www.w3.org/Graphics/SVG/1.1/DTD/svg11.dtd">
<svg version="1.1" xmlns="http://www.w3.org/2000/svg" xmlns:xlink="http://www.w3.org/1999/xlink" viewBox="0 0 28.5195 24.1309">
 <g>
  <rect height="24.1309" opacity="0" width="28.5195" x="0" y="0"/>
  <path d="M8.28516 24.1172L19.8789 24.1172C25.457 24.1172 28.1641 21.4238 28.1641 15.8594L28.1641 9.10547L21.0957 9.10547C20.8633 9.7207 20.2891 10.1172 19.5645 10.1172L8.61328 10.1172C7.90234 10.1172 7.30078 9.7207 7.08203 9.10547L0 9.10547L0 15.8594C0 21.4238 2.70703 24.1172 8.28516 24.1172ZM14.082 15.3262C13.3984 15.3535 12.8242 14.7656 12.8242 14.0957C12.8242 13.4121 13.3984 12.8379 14.082 12.8379C14.7656 12.8379 15.3398 13.4121 15.3398 14.0957C15.3398 14.7383 14.7656 15.3125 14.082 15.3262ZM0 7.86133L7.05469 7.86133C7.27344 7.24609 7.875 6.84961 8.58594 6.84961L19.5508 6.84961C20.2617 6.84961 20.8496 7.24609 21.0684 7.86133L28.123 7.86133L28.123 7.42383C28.123 2.43359 25.1562 0 19.8379 0L8.28516 0C2.9668 0 0 2.43359 0 7.42383Z" fill="black" fill-opacity="0.85"/>
 </g>
</svg>
