<?xml version="1.0" encoding="UTF-8"?>
<!--Generator: Apple Native CoreSVG 326-->
<!DOCTYPE svg
PUBLIC "-//W3C//DTD SVG 1.1//EN"
       "http://www.w3.org/Graphics/SVG/1.1/DTD/svg11.dtd">
<svg version="1.1" xmlns="http://www.w3.org/2000/svg" xmlns:xlink="http://www.w3.org/1999/xlink" viewBox="0 0 31.3086 23.8574">
 <g>
  <rect height="23.8574" opacity="0" width="31.3086" x="0" y="0"/>
  <path d="M8.28516 23.8438L22.668 23.8438C28.2598 23.8438 30.9531 21.1641 30.9531 15.5996L30.9531 8.24414C30.9531 2.67969 28.2598 0 22.668 0L8.28516 0C2.70703 0 0 2.67969 0 8.24414L0 15.5996C0 21.1641 2.70703 23.8438 8.28516 23.8438ZM8.28516 21.6426C4.08789 21.6426 2.20117 19.7695 2.20117 15.5996L2.20117 8.24414C2.20117 4.07422 4.08789 2.20117 8.28516 2.20117L22.668 2.20117C26.8789 2.20117 28.752 4.07422 28.752 8.24414L28.752 15.5996C28.752 19.7695 26.8789 21.6426 22.668 21.6426ZM1.10742 9.17383L29.8457 9.17383L29.8457 7.79297L1.10742 7.79297ZM10.0078 10.1172L20.959 10.1172C21.916 10.1172 22.5996 9.44727 22.5996 8.47656C22.5996 7.51953 21.916 6.84961 20.959 6.84961L10.0078 6.84961C9.07812 6.84961 8.35352 7.51953 8.35352 8.47656C8.35352 9.44727 9.07812 10.1172 10.0078 10.1172ZM15.4766 14.7793C16.2012 14.7656 16.8027 14.1641 16.8027 13.4805C16.8027 12.7559 16.2012 12.1543 15.4766 12.1543C14.752 12.1543 14.1641 12.7559 14.1641 13.4805C14.1641 14.1914 14.752 14.793 15.4766 14.7793Z" fill="black" fill-opacity="0.85"/>
 </g>
</svg>
