<?xml version="1.0" encoding="UTF-8"?>
<!--Generator: Apple Native CoreSVG 326-->
<!DOCTYPE svg
PUBLIC "-//W3C//DTD SVG 1.1//EN"
       "http://www.w3.org/Graphics/SVG/1.1/DTD/svg11.dtd">
<svg version="1.1" xmlns="http://www.w3.org/2000/svg" xmlns:xlink="http://www.w3.org/1999/xlink" viewBox="0 0 28.2461 27.9043">
 <g>
  <rect height="27.9043" opacity="0" width="28.2461" x="0" y="0"/>
  <path d="M13.9453 27.8906C21.6426 27.8906 27.8906 21.6426 27.8906 13.9453C27.8906 6.24805 21.6426 0 13.9453 0C6.24805 0 0 6.24805 0 13.9453C0 21.6426 6.24805 27.8906 13.9453 27.8906ZM13.9453 25.5664C7.51953 25.5664 2.32422 20.3711 2.32422 13.9453C2.32422 7.51953 7.51953 2.32422 13.9453 2.32422C20.3711 2.32422 25.5664 7.51953 25.5664 13.9453C25.5664 20.3711 20.3711 25.5664 13.9453 25.5664Z" fill="#ff9500"/>
  <path d="M22.832 13.959C22.832 13.043 21.6289 12.3457 20.1387 12.3457L17.2129 12.3457C16.8574 12.3457 16.748 12.3047 16.5156 12.0586L11.6484 6.75391C11.4707 6.54883 11.252 6.45312 11.0059 6.45312L10.1582 6.45312C9.87109 6.45312 9.70703 6.71289 9.83008 7L12.2637 12.373L8.85938 12.7695L7.58789 10.4453C7.46484 10.2266 7.27344 10.1172 6.97266 10.1172L6.6582 10.1172C6.39844 10.1172 6.2207 10.2949 6.2207 10.5547L6.2207 17.3496C6.2207 17.6094 6.39844 17.7871 6.6582 17.7871L6.97266 17.7871C7.27344 17.7871 7.46484 17.6777 7.58789 17.4727L8.85938 15.1484L12.2637 15.5312L9.83008 20.9043C9.70703 21.1914 9.87109 21.4512 10.1582 21.4512L11.0059 21.4512C11.252 21.4512 11.4707 21.3555 11.6484 21.1641L16.5156 15.8594C16.748 15.6133 16.8574 15.5586 17.2129 15.5586L20.1387 15.5586C21.6289 15.5586 22.832 14.8613 22.832 13.959Z" fill="#ff9500"/>
 </g>
</svg>
