<?xml version="1.0" encoding="UTF-8"?>
<!--Generator: Apple Native CoreSVG 326-->
<!DOCTYPE svg
PUBLIC "-//W3C//DTD SVG 1.1//EN"
       "http://www.w3.org/Graphics/SVG/1.1/DTD/svg11.dtd">
<svg version="1.1" xmlns="http://www.w3.org/2000/svg" xmlns:xlink="http://www.w3.org/1999/xlink" viewBox="0 0 36.8184 24.0215">
 <g>
  <rect height="24.0215" opacity="0" width="36.8184" x="0" y="0"/>
  <path d="M31.1719 21.3555C31.623 21.8613 32.375 21.8613 32.9082 21.2871C35.1777 18.8125 36.4629 15.5449 36.4629 12.0039C36.4629 8.46289 35.1777 5.18164 32.9082 2.7207C32.375 2.14648 31.623 2.13281 31.1719 2.65234C30.7344 3.14453 30.8711 3.78711 31.377 4.34766C33.209 6.38477 34.2344 9.06445 34.2344 12.0039C34.2344 14.9434 33.209 17.623 31.377 19.6602C30.8711 20.2207 30.7344 20.8633 31.1719 21.3555Z" fill="black" fill-opacity="0.85"/>
  <path d="M27.3438 17.459C27.7949 17.9648 28.6152 17.9785 29.1074 17.3633C30.2969 15.8867 30.9805 14.0137 30.9805 12.0039C30.9805 9.99414 30.2969 8.12109 29.1074 6.64453C28.6152 6.0293 27.7949 6.0293 27.3438 6.54883C26.9062 7.04102 27.0977 7.65625 27.5215 8.24414C28.3418 9.25586 28.752 10.582 28.752 12.0039C28.752 13.4258 28.3418 14.7383 27.5215 15.7637C27.0977 16.3516 26.9062 16.9668 27.3438 17.459Z" fill="black" fill-opacity="0.85"/>
  <path d="M12.0039 23.9941C18.6211 23.9941 23.9941 18.6348 23.9941 12.0039C23.9941 5.37305 18.6211 0 12.0039 0C5.37305 0 0 5.37305 0 12.0039C0 18.6348 5.37305 23.9941 12.0039 23.9941ZM12.0039 21.793C6.58984 21.793 2.20117 17.418 2.20117 12.0039C2.20117 6.58984 6.58984 2.20117 12.0039 2.20117C17.4043 2.20117 21.793 6.58984 21.793 12.0039C21.793 17.418 17.4043 21.793 12.0039 21.793ZM11.9902 15.9414C12.7969 15.9414 12.9746 16.3516 13.6719 16.3516C14.3828 16.3516 14.8477 15.709 15.2988 15.0801C15.791 14.3555 15.9961 13.6445 15.9961 13.6172C15.9551 13.6035 14.6152 13.0566 14.6152 11.5254C14.6152 10.1855 15.668 9.59766 15.7227 9.54297C15.0391 8.54492 13.9727 8.53125 13.6719 8.53125C12.9062 8.53125 12.2773 8.99609 11.8535 8.99609C11.4297 8.99609 10.8691 8.54492 10.1855 8.54492C8.88672 8.54492 7.58789 9.625 7.58789 11.6211C7.58789 12.8789 8.08008 14.2051 8.66797 15.0527C9.17383 15.7773 9.625 16.3652 10.2812 16.3652C10.9102 16.3652 11.1973 15.9414 11.9902 15.9414ZM13.3164 7.66992C13.6309 7.28711 13.8633 6.76758 13.8633 6.2207C13.8633 6.15234 13.8633 6.08398 13.8496 6.0293C13.3164 6.04297 12.7012 6.37109 12.332 6.80859C12.0449 7.15039 11.7578 7.66992 11.7578 8.2168C11.7578 8.28516 11.7715 8.36719 11.7715 8.39453C11.8125 8.39453 11.8535 8.4082 11.9082 8.4082C12.3867 8.4082 12.9746 8.09375 13.3164 7.66992Z" fill="black" fill-opacity="0.85"/>
 </g>
</svg>
