<?xml version="1.0" encoding="UTF-8"?>
<!--Generator: Apple Native CoreSVG 326-->
<!DOCTYPE svg
PUBLIC "-//W3C//DTD SVG 1.1//EN"
       "http://www.w3.org/Graphics/SVG/1.1/DTD/svg11.dtd">
<svg version="1.1" xmlns="http://www.w3.org/2000/svg" xmlns:xlink="http://www.w3.org/1999/xlink" viewBox="0 0 28.2461 27.9043">
 <g>
  <rect height="27.9043" opacity="0" width="28.2461" x="0" y="0"/>
  <path d="M13.9453 27.8906C21.6426 27.8906 27.8906 21.6426 27.8906 13.9453C27.8906 6.24805 21.6426 0 13.9453 0C6.24805 0 0 6.24805 0 13.9453C0 21.6426 6.24805 27.8906 13.9453 27.8906ZM13.959 25.4844C7.57422 25.4844 2.41992 20.3301 2.41992 13.9453C2.41992 7.56055 7.57422 2.39258 13.959 2.39258C20.3438 2.39258 25.5117 7.56055 25.5117 13.9453C25.5117 20.3301 20.3438 25.4844 13.959 25.4844ZM13.9453 24.1719C19.5918 24.1719 24.1719 19.5781 24.1719 13.9453C24.1719 8.29883 19.5918 3.71875 13.9453 3.71875C8.29883 3.71875 3.71875 8.29883 3.71875 13.9453C3.71875 19.5781 8.29883 24.1719 13.9453 24.1719ZM13.9453 22.9277C8.99609 22.9277 4.96289 18.8945 4.96289 13.9453C4.96289 8.98242 8.99609 4.96289 13.9453 4.96289C18.9082 4.96289 22.9277 8.98242 22.9277 13.9453C22.9277 18.8945 18.9082 22.9277 13.9453 22.9277ZM14.0547 17.6367C14.834 17.6367 14.998 18.0332 15.6816 18.0332C16.3516 18.0332 16.8027 17.418 17.2266 16.8164C17.7051 16.1328 17.8965 15.4492 17.8965 15.4219C17.8555 15.4082 16.584 14.8887 16.584 13.4121C16.584 12.1406 17.582 11.5801 17.6367 11.5254C16.9805 10.5684 15.9688 10.5547 15.6816 10.5547C14.9297 10.5547 14.3281 11.0059 13.9316 11.0059C13.5215 11.0059 12.9883 10.5684 12.332 10.5684C11.1016 10.5684 9.84375 11.5938 9.84375 13.5078C9.84375 14.7246 10.3223 15.9824 10.8828 16.7891C11.375 17.4863 11.7988 18.0469 12.4277 18.0469C13.0293 18.0469 13.3027 17.6367 14.0547 17.6367ZM15.3398 9.73438C15.6406 9.36523 15.8594 8.85938 15.8594 8.33984C15.8594 8.27148 15.8594 8.20312 15.8457 8.14844C15.3398 8.16211 14.7383 8.47656 14.3828 8.90039C14.1094 9.24219 13.8359 9.73438 13.8359 10.2539C13.8359 10.3223 13.8496 10.4043 13.8496 10.4316C13.8906 10.4316 13.9316 10.4453 13.9863 10.4453C14.4375 10.4453 14.998 10.1445 15.3398 9.73438Z" fill="black" fill-opacity="0.85"/>
 </g>
</svg>
