<?xml version="1.0" encoding="UTF-8"?>
<!--Generator: Apple Native CoreSVG 326-->
<!DOCTYPE svg
PUBLIC "-//W3C//DTD SVG 1.1//EN"
       "http://www.w3.org/Graphics/SVG/1.1/DTD/svg11.dtd">
<svg version="1.1" xmlns="http://www.w3.org/2000/svg" xmlns:xlink="http://www.w3.org/1999/xlink" viewBox="0 0 28.2461 27.9043">
 <g>
  <rect height="27.9043" opacity="0" width="28.2461" x="0" y="0"/>
  <path d="M13.9453 27.8906C21.6426 27.8906 27.8906 21.6426 27.8906 13.9453C27.8906 6.24805 21.6426 0 13.9453 0C6.24805 0 0 6.24805 0 13.9453C0 21.6426 6.24805 27.8906 13.9453 27.8906ZM13.959 25.3613C7.64258 25.3613 2.54297 20.2617 2.54297 13.9453C2.54297 7.62891 7.64258 2.51562 13.959 2.51562C20.2754 2.51562 25.3887 7.62891 25.3887 13.9453C25.3887 20.2617 20.2754 25.3613 13.959 25.3613ZM13.9453 24.0488C19.5234 24.0488 24.0488 19.5098 24.0488 13.9453C24.0488 8.36719 19.5234 3.8418 13.9453 3.8418C8.36719 3.8418 3.8418 8.36719 3.8418 13.9453C3.8418 19.5098 8.36719 24.0488 13.9453 24.0488ZM14.0684 17.7461C13.2891 17.7461 13.0156 18.1699 12.3867 18.1699C11.7305 18.1699 11.3066 17.5957 10.7871 16.8848C10.2129 16.0371 9.7207 14.7383 9.7207 13.4941C9.7207 11.5254 11.0195 10.459 12.291 10.459C12.9609 10.459 13.5215 10.9102 13.9316 10.9102C14.3418 10.9102 14.9707 10.4453 15.7363 10.4453C16.0371 10.4453 17.0762 10.459 17.7598 11.4434C17.7051 11.5117 16.666 12.0859 16.666 13.3984C16.666 14.916 17.9922 15.4492 18.0332 15.4629C18.0332 15.4902 17.8281 16.2012 17.3359 16.9121C16.8984 17.5273 16.4199 18.1562 15.7363 18.1562C15.0391 18.1562 14.875 17.7461 14.0684 17.7461ZM15.3809 9.59766C15.0391 10.0215 14.4648 10.3359 14 10.3359C13.9316 10.3359 13.8906 10.3223 13.8496 10.3223C13.8496 10.2949 13.8359 10.2129 13.8359 10.1445C13.8359 9.59766 14.123 9.0918 14.3965 8.75C14.7793 8.3125 15.3809 7.99805 15.9004 7.98438C15.9141 8.03906 15.9141 8.10742 15.9141 8.17578C15.9141 8.70898 15.6953 9.21484 15.3809 9.59766Z" fill="black" fill-opacity="0.85"/>
 </g>
</svg>
