<?xml version="1.0" encoding="UTF-8"?>
<!--Generator: Apple Native CoreSVG 326-->
<!DOCTYPE svg
PUBLIC "-//W3C//DTD SVG 1.1//EN"
       "http://www.w3.org/Graphics/SVG/1.1/DTD/svg11.dtd">
<svg version="1.1" xmlns="http://www.w3.org/2000/svg" xmlns:xlink="http://www.w3.org/1999/xlink" viewBox="0 0 31.1445 31.7324">
 <g>
  <rect height="31.7324" opacity="0" width="31.1445" x="0" y="0"/>
  <path d="M23.1328 14.5332C25.1562 14.5332 26.2637 13.4531 26.2637 11.457L26.2637 6.69922C26.2637 4.70312 25.1562 3.62305 23.1328 3.62305L12.8105 3.62305C10.7734 3.62305 9.67969 4.70312 9.67969 6.69922L9.67969 11.457C9.67969 13.4531 10.7734 14.5332 12.8105 14.5332ZM23.0918 12.4688L12.8516 12.4688C12.1406 12.4688 11.7441 12.0723 11.7441 11.334L11.7441 6.80859C11.7441 6.08398 12.1406 5.6875 12.8516 5.6875L23.0918 5.6875C23.8027 5.6875 24.1992 6.08398 24.1992 6.80859L24.1992 11.334C24.1992 12.0723 23.8027 12.4688 23.0918 12.4688ZM23.1328 28.082C25.1562 28.082 26.2637 27.002 26.2637 25.0059L26.2637 20.248C26.2637 18.2656 25.1562 17.1719 23.1328 17.1719L3.13086 17.1719C1.09375 17.1719 0 18.2656 0 20.248L0 25.0059C0 27.002 1.09375 28.082 3.13086 28.082ZM23.0918 26.0176L3.17188 26.0176C2.46094 26.0176 2.06445 25.6211 2.06445 24.8965L2.06445 20.3711C2.06445 19.6328 2.46094 19.2363 3.17188 19.2363L23.0918 19.2363C23.8027 19.2363 24.1992 19.6328 24.1992 20.3711L24.1992 24.8965C24.1992 25.6211 23.8027 26.0176 23.0918 26.0176Z" fill="black" fill-opacity="0.85"/>
  <path d="M29.791 31.6914C30.3242 31.6914 30.7891 31.2812 30.7891 30.748L30.7891 0.943359C30.7891 0.410156 30.3242 0 29.791 0C29.2578 0 28.7793 0.410156 28.7793 0.943359L28.7793 30.748C28.7793 31.2812 29.2578 31.6914 29.791 31.6914Z" fill="black" fill-opacity="0.85"/>
 </g>
</svg>
