<?xml version="1.0" encoding="UTF-8"?>
<!--Generator: Apple Native CoreSVG 326-->
<!DOCTYPE svg
PUBLIC "-//W3C//DTD SVG 1.1//EN"
       "http://www.w3.org/Graphics/SVG/1.1/DTD/svg11.dtd">
<svg version="1.1" xmlns="http://www.w3.org/2000/svg" xmlns:xlink="http://www.w3.org/1999/xlink" viewBox="0 0 32.0469 30.8574">
 <g>
  <rect height="30.8574" opacity="0" width="32.0469" x="0" y="0"/>
  <path d="M6.69922 26.291L11.457 26.291C13.4531 26.291 14.5332 25.1973 14.5332 23.1602L14.5332 3.1582C14.5332 1.12109 13.4531 0.0273438 11.457 0.0273438L6.69922 0.0273438C4.70312 0.0273438 3.62305 1.12109 3.62305 3.1582L3.62305 23.1602C3.62305 25.1973 4.70312 26.291 6.69922 26.291ZM20.2617 26.291L25.0195 26.291C27.002 26.291 28.0957 25.1973 28.0957 23.1602L28.0957 12.8379C28.0957 10.8145 27.002 9.70703 25.0195 9.70703L20.2617 9.70703C18.2656 9.70703 17.1719 10.8145 17.1719 12.8379L17.1719 23.1602C17.1719 25.1973 18.2656 26.291 20.2617 26.291Z" fill="black" fill-opacity="0.85"/>
  <path d="M0.957031 30.8574L30.748 30.8574C31.2812 30.8574 31.6914 30.3926 31.6914 29.8594C31.6914 29.3262 31.2812 28.8477 30.748 28.8477L0.957031 28.8477C0.410156 28.8477 0 29.3262 0 29.8594C0 30.3926 0.410156 30.8574 0.957031 30.8574Z" fill="black" fill-opacity="0.85"/>
 </g>
</svg>
