<?xml version="1.0" encoding="UTF-8"?>
<!--Generator: Apple Native CoreSVG 326-->
<!DOCTYPE svg
PUBLIC "-//W3C//DTD SVG 1.1//EN"
       "http://www.w3.org/Graphics/SVG/1.1/DTD/svg11.dtd">
<svg version="1.1" xmlns="http://www.w3.org/2000/svg" xmlns:xlink="http://www.w3.org/1999/xlink" viewBox="0 0 32.0469 30.8574">
 <g>
  <rect height="30.8574" opacity="0" width="32.0469" x="0" y="0"/>
  <path d="M6.69922 30.8574L11.457 30.8574C13.4531 30.8574 14.5332 29.7637 14.5332 27.7266L14.5332 7.72461C14.5332 5.70117 13.4531 4.59375 11.457 4.59375L6.69922 4.59375C4.70312 4.59375 3.62305 5.70117 3.62305 7.72461L3.62305 27.7266C3.62305 29.7637 4.70312 30.8574 6.69922 30.8574ZM20.2617 21.1777L25.0195 21.1777C27.002 21.1777 28.0957 20.084 28.0957 18.0469L28.0957 7.72461C28.0957 5.70117 27.002 4.59375 25.0195 4.59375L20.2617 4.59375C18.2656 4.59375 17.1719 5.70117 17.1719 7.72461L17.1719 18.0469C17.1719 20.084 18.2656 21.1777 20.2617 21.1777Z" fill="black" fill-opacity="0.85"/>
  <path d="M0.957031 2.03711L30.748 2.03711C31.2812 2.03711 31.6914 1.57227 31.6914 1.03906C31.6914 0.505859 31.2812 0.0273438 30.748 0.0273438L0.957031 0.0273438C0.410156 0.0273438 0 0.505859 0 1.03906C0 1.57227 0.410156 2.03711 0.957031 2.03711Z" fill="black" fill-opacity="0.85"/>
 </g>
</svg>
