<?xml version="1.0" encoding="UTF-8"?>
<!--Generator: Apple Native CoreSVG 326-->
<!DOCTYPE svg
PUBLIC "-//W3C//DTD SVG 1.1//EN"
       "http://www.w3.org/Graphics/SVG/1.1/DTD/svg11.dtd">
<svg version="1.1" xmlns="http://www.w3.org/2000/svg" xmlns:xlink="http://www.w3.org/1999/xlink" viewBox="0 0 28.0017 27.6462">
 <g>
  <rect height="27.6462" opacity="0" width="28.0017" x="0" y="0"/>
  <path d="M3.06337 27.0096C5.56532 27.7479 8.36806 27.83 11.1845 27.2694L0.370009 16.455C-0.190538 19.2714-0.122179 22.0741 0.629774 24.576C1.08095 26.08 1.55946 26.5585 3.06337 27.0096ZM21.6024 21.5956C23.8583 19.3671 25.4852 16.7284 26.4696 13.994L13.6454 1.1698C10.911 2.15417 8.28602 3.78113 6.03016 6.03699C3.77431 8.2655 2.16102 10.9042 1.16298 13.6385L13.9872 26.4628C16.7352 25.4784 19.3602 23.8514 21.6024 21.5956ZM11.9091 19.4081C11.663 19.6405 11.2802 19.6405 11.0341 19.3944L8.23134 16.5917C7.99891 16.3593 7.99891 15.9764 8.23134 15.7303C8.47743 15.4706 8.87391 15.4706 9.10634 15.7167L10.077 16.6874L11.0888 15.662L10.1181 14.705C9.88563 14.4725 9.88563 14.076 10.1181 13.83C10.3641 13.5839 10.7606 13.5839 11.0067 13.8163L11.9638 14.8007L12.9755 13.7753L12.0048 12.8182C11.7724 12.5858 11.7587 12.1893 12.0048 11.9432C12.2509 11.6971 12.661 11.6971 12.8798 11.9296L13.8505 12.9003L14.8759 11.8885L13.8915 10.9315C13.6591 10.6991 13.6454 10.3026 13.8915 10.0565C14.1376 9.81042 14.5341 9.81042 14.7665 10.0428L15.7372 11.0135L16.7626 10.0018L15.7919 9.03113C15.5458 8.79871 15.5321 8.41589 15.7919 8.1698C16.0243 7.93738 16.4208 7.93738 16.6532 8.15613L19.4696 10.9725C19.702 11.2186 19.702 11.6014 19.4696 11.8475C19.2235 12.0936 18.827 12.08 18.5809 11.8339L17.6239 10.8768L16.6122 11.8885L17.5829 12.8593C17.829 13.1053 17.829 13.4882 17.5829 13.7479C17.3231 13.9803 16.9403 13.9667 16.7079 13.7343L15.7372 12.7772L14.7255 13.7753L15.6962 14.746C15.9423 14.9784 15.9423 15.3749 15.6962 15.6346C15.4364 15.8807 15.0536 15.8671 14.8212 15.621L13.8505 14.6639L12.8388 15.662L13.7958 16.6327C14.0419 16.8651 14.0419 17.2753 13.7958 17.5214C13.5497 17.7538 13.1669 17.7538 12.9345 17.5077L11.9638 16.5507L10.952 17.5624L11.9091 18.5194C12.1552 18.7655 12.1552 19.162 11.9091 19.4081ZM27.0165 3.05652C26.5516 1.55261 26.0868 1.08777 24.5829 0.622925C22.0809-0.115356 19.2782-0.197388 16.4618 0.376831L27.2626 11.1776C27.8368 8.36121 27.7548 5.55847 27.0165 3.05652Z" fill="black" fill-opacity="0.85"/>
 </g>
</svg>
