<?xml version="1.0" encoding="UTF-8"?>
<!--Generator: Apple Native CoreSVG 326-->
<!DOCTYPE svg
PUBLIC "-//W3C//DTD SVG 1.1//EN"
       "http://www.w3.org/Graphics/SVG/1.1/DTD/svg11.dtd">
<svg version="1.1" xmlns="http://www.w3.org/2000/svg" xmlns:xlink="http://www.w3.org/1999/xlink" viewBox="0 0 23.148 33.209">
 <g>
  <rect height="33.209" opacity="0" width="23.148" x="0" y="0"/>
  <path d="M11.3894 32.6621C15.2586 32.6621 18.6355 28.5059 18.6355 24.0352C18.6355 23.3379 18.5125 22.75 18.2664 22.2715C18.6629 22.3809 19.0594 22.4766 19.4422 22.5859C20.3855 22.8457 20.659 23.2148 20.5359 24.0352L19.5379 30.584C19.4148 31.3633 19.8933 31.8281 20.5359 31.8281C21.2058 31.8281 21.5066 31.418 21.616 30.7344L22.7371 23.6387C22.9969 22.0391 22.3406 21.1641 20.5906 20.7539L14.4246 19.3184L14.4109 19.1816C14.9988 18.8945 15.3953 18.334 15.573 17.7188L19.7703 17.1172C21.4793 16.8848 22.2449 15.9277 22.2449 14.2461L22.2449 9.51562C22.2449 8.8457 21.8621 8.46289 21.2058 8.46289C20.5496 8.46289 20.1668 8.85938 20.1668 9.51562L20.1668 13.8223C20.1668 14.793 19.6472 15.1074 18.7586 15.2305L15.6277 15.6543C15.4773 15.2305 15.2039 14.8477 14.8347 14.6016L14.8347 14.4648C17.1726 14.0547 18.4715 12.6328 18.4715 10.5547C18.4715 8.80469 17.8152 7.20508 16.7488 5.97461L16.8719 5.87891C18.198 4.92188 18.4441 3.51367 17.5828 1.99609L16.7762 0.669922C16.5164 0.205078 16.2156 0 15.7918 0C15.2176 0 14.8074 0.410156 14.8074 0.943359C14.8074 1.18945 14.8484 1.32617 14.9988 1.59961L15.7097 2.67969C16.1472 3.39062 16.1472 4.00586 15.5867 4.49805C15.5047 4.56641 15.4363 4.62109 15.3543 4.67578C14.2195 3.91016 12.8523 3.45898 11.3894 3.45898C9.95389 3.45898 8.60037 3.91016 7.47928 4.66211C7.39725 4.62109 7.31522 4.55273 7.24686 4.48438C6.69998 4.00586 6.68631 3.39062 7.13748 2.67969L7.84842 1.59961C7.99881 1.32617 8.03982 1.18945 8.03982 0.943359C8.03982 0.410156 7.616 0 7.05545 0C6.63162 0 6.33084 0.205078 6.07107 0.669922L5.26443 1.99609C4.40311 3.51367 4.6492 4.92188 5.97537 5.87891L6.07107 5.94727C4.991 7.17773 4.3074 8.79102 4.3074 10.5547C4.3074 12.6328 5.6199 14.0547 7.95779 14.4648L7.95779 14.6016C7.57498 14.8477 7.31522 15.2305 7.16482 15.6543L4.03397 15.2305C3.13162 15.1074 2.62576 14.793 2.62576 13.8223L2.62576 9.51562C2.62576 8.85938 2.24295 8.46289 1.5867 8.46289C0.93045 8.46289 0.547637 8.8457 0.547637 9.51562L0.547637 14.2461C0.547637 15.9277 1.31326 16.8848 3.02225 17.1172L7.21951 17.7188C7.39725 18.334 7.78006 18.8945 8.38162 19.1816L8.38162 19.3184L2.20193 20.7539C0.438262 21.1641-0.204316 22.0391 0.0554499 23.6387L1.17654 30.7344C1.27225 31.418 1.5867 31.8281 2.25662 31.8281C2.8992 31.8281 3.37772 31.3633 3.25467 30.584L2.25662 24.0352C2.1199 23.2148 2.40701 22.8457 3.35037 22.5859C3.73318 22.4766 4.12967 22.3809 4.51248 22.2715C4.28006 22.75 4.15701 23.3379 4.15701 24.0352C4.15701 28.5059 7.53397 32.6621 11.3894 32.6621Z" fill="black" fill-opacity="0.85"/>
 </g>
</svg>
