<?xml version="1.0" encoding="UTF-8"?>
<!--Generator: Apple Native CoreSVG 326-->
<!DOCTYPE svg
PUBLIC "-//W3C//DTD SVG 1.1//EN"
       "http://www.w3.org/Graphics/SVG/1.1/DTD/svg11.dtd">
<svg version="1.1" xmlns="http://www.w3.org/2000/svg" xmlns:xlink="http://www.w3.org/1999/xlink" viewBox="0 0 24.4863 29.7637">
 <g>
  <rect height="29.7637" opacity="0" width="24.4863" x="0" y="0"/>
  <path d="M5.55078 9.43359C5.55078 11.0742 6.72656 12.2637 8.96875 12.8926L15.8457 14.834C19.0996 15.7363 20.7949 17.6504 20.7949 20.3711L20.7949 20.8496L18.5938 20.8496L18.5938 20.3711C18.5938 18.7305 17.4316 17.5684 15.1758 16.9258L8.29883 14.9844C5.04492 14.082 3.34961 12.168 3.34961 9.43359L3.34961 8.94141L5.55078 8.94141Z" fill="black" fill-opacity="0.85"/>
  <path d="M8.35352 0.601562C7.84766 0.0957031 7.13672 0.0136719 6.30273 0.0136719L2.61133 0.0136719C1.79102 0.0136719 1.08008 0.0957031 0.574219 0.601562C0.0683594 1.10742 0 1.80469 0 2.625L0 6.31641C0 7.15039 0.0683594 7.86133 0.574219 8.35352C1.08008 8.85938 1.79102 8.94141 2.625 8.94141L6.30273 8.94141C7.13672 8.94141 7.84766 8.85938 8.35352 8.35352C8.8457 7.86133 8.92773 7.15039 8.92773 6.31641L8.92773 2.63867C8.92773 1.80469 8.8457 1.10742 8.35352 0.601562ZM23.5703 21.4375C23.0645 20.9316 22.3535 20.8496 21.5195 20.8496L17.8281 20.8496C17.0078 20.8496 16.2969 20.9316 15.791 21.4375C15.2852 21.9434 15.2168 22.6406 15.2168 23.4609L15.2168 27.1523C15.2168 27.9863 15.2852 28.6973 15.791 29.1895C16.2969 29.6953 17.0078 29.7637 17.8281 29.7637L21.5195 29.7637C22.3535 29.7637 23.0645 29.6953 23.5703 29.1895C24.0625 28.6973 24.1309 27.9863 24.1309 27.1523L24.1309 23.4609C24.1309 22.6406 24.0625 21.9434 23.5703 21.4375Z" fill="black" fill-opacity="0.85"/>
 </g>
</svg>
