<?xml version="1.0" encoding="UTF-8"?>
<!--Generator: Apple Native CoreSVG 326-->
<!DOCTYPE svg
PUBLIC "-//W3C//DTD SVG 1.1//EN"
       "http://www.w3.org/Graphics/SVG/1.1/DTD/svg11.dtd">
<svg version="1.1" xmlns="http://www.w3.org/2000/svg" xmlns:xlink="http://www.w3.org/1999/xlink" viewBox="0 0 23.3516 29.3262">
 <g>
  <rect height="29.3262" opacity="0" width="23.3516" x="0" y="0"/>
  <path d="M8.14844 13.8633C9.81641 13.8633 10.9648 12.7148 10.9648 11.0742C10.9648 9.47461 9.98047 8.4082 8.53125 8.4082C7.80664 8.4082 7.20508 8.64062 6.78125 9.17383L6.50781 9.17383C6.61719 8.66797 6.93164 8.18945 7.41016 7.79297C7.83398 7.42383 8.35352 7.17773 8.95508 7.05469C9.46094 6.93164 9.61133 6.78125 9.61133 6.48047C9.61133 6.19336 9.40625 5.97461 9.02344 5.97461C8.13477 5.97461 7.02734 6.52148 6.26172 7.3418C5.49609 8.17578 5.11328 9.24219 5.11328 10.4043C5.11328 12.5918 6.4668 13.8633 8.14844 13.8633ZM15.0801 13.8496C16.7344 13.8496 17.8965 12.7012 17.8965 11.0605C17.8965 9.46094 16.9121 8.39453 15.4629 8.39453C14.7246 8.39453 14.1367 8.62695 13.7129 9.16016L13.4258 9.16016C13.5352 8.66797 13.8496 8.20312 14.2871 7.80664C14.7246 7.41016 15.2715 7.17773 15.873 7.04102C16.3789 6.91797 16.543 6.76758 16.543 6.4668C16.543 6.17969 16.3379 5.96094 15.9551 5.96094C15.0664 5.96094 13.918 6.53516 13.1934 7.32812C12.4141 8.16211 12.0312 9.22852 12.0312 10.3906C12.0312 12.5781 13.3848 13.8496 15.0801 13.8496ZM6.28906 19.0312L16.7344 19.0312C17.2266 19.0312 17.582 18.6484 17.582 18.1699C17.582 17.7051 17.2266 17.3496 16.7344 17.3496L6.28906 17.3496C5.79688 17.3496 5.42773 17.7051 5.42773 18.1699C5.42773 18.6484 5.79688 19.0312 6.28906 19.0312ZM6.28906 23.1328L11.2246 23.1328C11.7168 23.1328 12.0723 22.7773 12.0723 22.3125C12.0723 21.834 11.7168 21.4512 11.2246 21.4512L6.28906 21.4512C5.79688 21.4512 5.42773 21.834 5.42773 22.3125C5.42773 22.7773 5.79688 23.1328 6.28906 23.1328ZM0 25.0332C0 27.8906 1.4082 29.3125 4.23828 29.3125L18.7578 29.3125C21.5879 29.3125 22.9961 27.8906 22.9961 25.0332L22.9961 4.29297C22.9961 1.44922 21.5879 0 18.7578 0L4.23828 0C1.4082 0 0 1.44922 0 4.29297ZM2.20117 24.9922L2.20117 4.33398C2.20117 2.9668 2.92578 2.20117 4.34766 2.20117L18.6484 2.20117C20.0703 2.20117 20.7949 2.9668 20.7949 4.33398L20.7949 24.9922C20.7949 26.3594 20.0703 27.1113 18.6484 27.1113L4.34766 27.1113C2.92578 27.1113 2.20117 26.3594 2.20117 24.9922Z" fill="black" fill-opacity="0.85"/>
 </g>
</svg>
