<?xml version="1.0" encoding="UTF-8"?>
<!--Generator: Apple Native CoreSVG 326-->
<!DOCTYPE svg
PUBLIC "-//W3C//DTD SVG 1.1//EN"
       "http://www.w3.org/Graphics/SVG/1.1/DTD/svg11.dtd">
<svg version="1.1" xmlns="http://www.w3.org/2000/svg" xmlns:xlink="http://www.w3.org/1999/xlink" viewBox="0 0 27.6582 27.2207">
 <g>
  <rect height="27.2207" opacity="0" width="27.6582" x="0" y="0"/>
  <path d="M7.28711 27.2207L20.002 27.2207C22.3398 27.2207 24.3086 27.002 25.7031 25.6074C27.0977 24.2129 27.3027 22.2578 27.3027 19.9199L27.3027 7.31445C27.3027 4.97656 27.0977 3.03516 25.7031 1.64062C24.3086 0.246094 22.3398 0.0273438 20.002 0.0273438L7.25977 0.0273438C4.96289 0.0273438 2.99414 0.246094 1.59961 1.64062C0.205078 3.03516 0 4.99023 0 7.28711L0 19.9199C0 22.2578 0.205078 24.2129 1.59961 25.6074C2.99414 27.002 4.96289 27.2207 7.28711 27.2207ZM6.91797 25.0195C5.50977 25.0195 4.0332 24.8281 3.19922 23.9941C2.37891 23.1738 2.20117 21.7109 2.20117 20.3027L2.20117 6.98633C2.20117 5.53711 2.37891 4.07422 3.19922 3.24023C4.0332 2.41992 5.52344 2.22852 6.95898 2.22852L20.3848 2.22852C21.793 2.22852 23.2695 2.41992 24.0898 3.25391C24.9238 4.07422 25.1016 5.53711 25.1016 6.94531L25.1016 20.3027C25.1016 21.7109 24.9238 23.1738 24.0898 23.9941C23.2695 24.8281 21.793 25.0195 20.3848 25.0195Z" fill="black" fill-opacity="0.85"/>
  <path d="M7.50586 10.623C8.61328 10.7461 9.47461 9.5293 9.40625 8.55859C8.29883 8.59961 7.47852 9.58398 7.50586 10.623ZM11.2793 15.3535C10.7598 15.1211 10.418 14.7793 10.2266 14.2871C10.0215 13.7539 10.0488 13.207 10.2266 12.7422C10.3223 12.4277 10.5273 12.0449 11.0605 11.7305C10.6641 11.1426 10.0352 10.8418 9.29688 10.8418C8.46289 10.8418 7.98438 11.2793 7.56055 11.2793C7.20508 11.2793 6.80859 10.8555 6.13867 10.8555C5.41406 10.8555 4.82617 11.1562 4.44336 11.6484C3.97852 12.2227 3.78711 12.9199 3.78711 13.6445C3.78711 14.834 4.30664 16.2285 5.08594 17.1035C5.50977 17.5547 5.82422 17.7871 6.19336 17.7871C6.75391 17.7871 7.05469 17.377 7.72461 17.377C8.02539 17.377 8.27148 17.5 8.44922 17.5547C8.72266 17.6504 8.91406 17.7734 9.22852 17.7734C9.57031 17.7734 9.84375 17.6367 10.0215 17.4727C10.6094 16.8848 11.0879 16.0508 11.2793 15.3535ZM15.0254 9.22852L13.6035 9.22852L13.6035 10.8418L12.6191 10.8418L12.6191 11.9355L13.6035 11.9355L13.6035 15.9004C13.6035 17.2812 14.1504 17.7734 15.5449 17.7734C15.8457 17.7734 16.1875 17.7324 16.3105 17.7188L16.3105 16.5566C16.2422 16.5977 15.9961 16.5977 15.8457 16.5977C15.2852 16.5977 15.0254 16.3652 15.0254 15.7363L15.0254 11.9355L16.3379 11.9355L16.3379 10.8418L15.0254 10.8418ZM20.9727 17.7188L23.4609 10.8418L21.916 10.8418L20.248 16.3652L18.4707 10.8418L16.9668 10.8418L19.4961 17.7188Z" fill="black" fill-opacity="0.85"/>
 </g>
</svg>
