<?xml version="1.0" encoding="UTF-8"?>
<!--Generator: Apple Native CoreSVG 326-->
<!DOCTYPE svg
PUBLIC "-//W3C//DTD SVG 1.1//EN"
       "http://www.w3.org/Graphics/SVG/1.1/DTD/svg11.dtd">
<svg version="1.1" xmlns="http://www.w3.org/2000/svg" xmlns:xlink="http://www.w3.org/1999/xlink" viewBox="0 0 14.082 30.2832">
 <g>
  <rect height="30.2832" opacity="0" width="14.082" x="0" y="0"/>
  <path d="M0 27.248C0 29.0527 1.20312 30.2012 3.11719 30.2012L10.6094 30.2012C12.5098 30.2012 13.7266 29.0527 13.7266 27.248L13.7266 2.95312C13.7266 1.16211 12.5098 0 10.6094 0L3.11719 0C1.20312 0 0 1.16211 0 2.95312ZM2.02344 26.9609L2.02344 3.24023C2.02344 2.47461 2.5293 1.99609 3.34961 1.99609L10.377 1.99609C11.1973 1.99609 11.7031 2.47461 11.7031 3.24023L11.7031 26.9609C11.7031 27.7266 11.1973 28.2051 10.377 28.2051L3.34961 28.2051C2.5293 28.2051 2.02344 27.7266 2.02344 26.9609ZM4.67578 16.2148C5.55078 16.2148 6.26172 15.4902 6.26172 14.6152C6.26172 13.7402 5.55078 13.0156 4.67578 13.0156C3.78711 13.0156 3.0625 13.7402 3.0625 14.6152C3.0625 15.4902 3.78711 16.2148 4.67578 16.2148ZM9.07812 16.2148C9.95312 16.2148 10.6641 15.4902 10.6641 14.6152C10.6641 13.7402 9.95312 13.0156 9.07812 13.0156C8.18945 13.0156 7.46484 13.7402 7.46484 14.6152C7.46484 15.4902 8.18945 16.2148 9.07812 16.2148ZM6.86328 11.3066C8.96875 11.3066 10.6641 9.61133 10.6641 7.50586C10.6641 5.40039 8.96875 3.70508 6.86328 3.70508C4.77148 3.70508 3.0625 5.40039 3.0625 7.50586C3.0625 9.61133 4.77148 11.3066 6.86328 11.3066ZM6.87695 9.03711C6.0293 9.03711 5.33203 8.35352 5.33203 7.50586C5.33203 6.6582 6.0293 5.97461 6.87695 5.97461C7.72461 5.97461 8.4082 6.6582 8.4082 7.50586C8.4082 8.35352 7.72461 9.03711 6.87695 9.03711Z" fill="black" fill-opacity="0.85"/>
 </g>
</svg>
