<?xml version="1.0" encoding="UTF-8"?>
<!--Generator: Apple Native CoreSVG 326-->
<!DOCTYPE svg
PUBLIC "-//W3C//DTD SVG 1.1//EN"
       "http://www.w3.org/Graphics/SVG/1.1/DTD/svg11.dtd">
<svg version="1.1" xmlns="http://www.w3.org/2000/svg" xmlns:xlink="http://www.w3.org/1999/xlink" viewBox="0 0 13.5352 30.2285">
 <g>
  <rect height="30.2285" opacity="0" width="13.5352" x="0" y="0"/>
  <path d="M3.21289 30.2012L10.0488 30.2012C12.0723 30.2012 13.2617 29.0117 13.2617 26.9883L13.2617 3.21289C13.2617 1.18945 12.0723 0 10.0488 0L3.21289 0C1.18945 0 0 1.18945 0 3.21289L0 26.9883C0 29.0117 1.18945 30.2012 3.21289 30.2012ZM4.19727 11.8125C3.21289 11.8125 2.44727 11.0195 2.44727 10.0625C2.44727 9.0918 3.21289 8.3125 4.19727 8.3125C5.1543 8.3125 5.93359 9.0918 5.93359 10.0625C5.93359 11.0195 5.1543 11.8125 4.19727 11.8125ZM9.03711 11.8125C8.06641 11.8125 7.28711 11.0195 7.28711 10.0625C7.28711 9.0918 8.06641 8.3125 9.03711 8.3125C10.0078 8.3125 10.7871 9.0918 10.7871 10.0625C10.7871 11.0195 10.0078 11.8125 9.03711 11.8125ZM4.19727 16.8574C3.21289 16.8574 2.44727 16.0645 2.44727 15.1074C2.44727 14.1367 3.21289 13.3574 4.19727 13.3574C5.1543 13.3574 5.93359 14.1367 5.93359 15.1074C5.93359 16.0645 5.1543 16.8574 4.19727 16.8574ZM4.19727 21.8887C3.21289 21.8887 2.44727 21.123 2.44727 20.1387C2.44727 19.1816 3.21289 18.3887 4.19727 18.3887C5.1543 18.3887 5.93359 19.1816 5.93359 20.1387C5.93359 21.123 5.1543 21.8887 4.19727 21.8887ZM9.02344 21.8887C8.10742 21.8887 7.38281 21.1641 7.38281 20.2207L7.38281 15.0254C7.38281 14.0957 8.10742 13.3574 9.02344 13.3574C9.95312 13.3574 10.7188 14.0957 10.7188 15.0254L10.7188 20.2207C10.7188 21.1641 9.95312 21.8887 9.02344 21.8887Z" fill="black" fill-opacity="0.85"/>
 </g>
</svg>
