<?xml version="1.0" encoding="UTF-8"?>
<!--Generator: Apple Native CoreSVG 326-->
<!DOCTYPE svg
PUBLIC "-//W3C//DTD SVG 1.1//EN"
       "http://www.w3.org/Graphics/SVG/1.1/DTD/svg11.dtd">
<svg version="1.1" xmlns="http://www.w3.org/2000/svg" xmlns:xlink="http://www.w3.org/1999/xlink" viewBox="0 0 27.6582 27.2207">
 <g>
  <rect height="27.2207" opacity="0" width="27.6582" x="0" y="0"/>
  <path d="M7.28711 27.2207L20.002 27.2207C22.3398 27.2207 24.3086 27.002 25.7031 25.6074C27.0977 24.2129 27.3027 22.2578 27.3027 19.9199L27.3027 7.31445C27.3027 4.97656 27.0977 3.03516 25.7031 1.64062C24.3086 0.246094 22.3398 0.0273438 20.002 0.0273438L7.25977 0.0273438C4.96289 0.0273438 2.99414 0.246094 1.59961 1.64062C0.205078 3.03516 0 4.99023 0 7.28711L0 19.9199C0 22.2578 0.205078 24.2129 1.59961 25.6074C2.99414 27.002 4.96289 27.2207 7.28711 27.2207Z" fill="black" fill-opacity="0.85"/>
  <path d="M7.31445 10.541C7.28711 9.47461 8.13477 8.46289 9.26953 8.4082C9.35156 9.41992 8.46289 10.6641 7.31445 10.541ZM11.2109 15.4219C11.0059 16.1465 10.5137 16.9941 9.91211 17.6094C9.7207 17.7734 9.44727 17.9102 9.0918 17.9102C8.76367 17.9102 8.57227 17.7871 8.28516 17.6914C8.10742 17.6367 7.84766 17.5137 7.54688 17.5137C6.84961 17.5137 6.53516 17.9375 5.96094 17.9375C5.57812 17.9375 5.26367 17.6914 4.82617 17.2266C4.01953 16.3242 3.48633 14.8887 3.48633 13.6582C3.48633 12.9062 3.67773 12.1953 4.15625 11.6074C4.55273 11.0879 5.1543 10.7871 5.90625 10.7871C6.58984 10.7871 7 11.2246 7.36914 11.2246C7.80664 11.2246 8.29883 10.7734 9.16016 10.7734C9.92578 10.7734 10.5684 11.0742 10.9785 11.6895C10.4316 12.0039 10.2266 12.4004 10.1172 12.7285C9.93945 13.207 9.91211 13.7676 10.1172 14.3281C10.3223 14.834 10.6641 15.1758 11.2109 15.4219ZM15.0664 9.10547L15.0664 10.7734L16.4199 10.7734L16.4199 11.8945L15.0664 11.8945L15.0664 15.8184C15.0664 16.4609 15.3398 16.707 15.9141 16.707C16.0645 16.707 16.3242 16.707 16.3926 16.666L16.3926 17.8555C16.2695 17.8691 15.9141 17.9102 15.5996 17.9102C14.1641 17.9102 13.6035 17.4043 13.6035 15.9824L13.6035 11.8945L12.5918 11.8945L12.5918 10.7734L13.6035 10.7734L13.6035 9.10547ZM21.2051 17.8555L19.6738 17.8555L17.0762 10.7734L18.6211 10.7734L20.4531 16.4609L22.1758 10.7734L23.7617 10.7734Z" fill="white"/>
 </g>
</svg>
