<?xml version="1.0" encoding="UTF-8"?>
<!--Generator: Apple Native CoreSVG 326-->
<!DOCTYPE svg
PUBLIC "-//W3C//DTD SVG 1.1//EN"
       "http://www.w3.org/Graphics/SVG/1.1/DTD/svg11.dtd">
<svg version="1.1" xmlns="http://www.w3.org/2000/svg" xmlns:xlink="http://www.w3.org/1999/xlink" viewBox="0 0 26.8994 29.2715">
 <g>
  <rect height="29.2715" opacity="0" width="26.8994" x="0" y="0"/>
  <path d="M6.00537 11.1358L6.00537 19.8789C6.00537 21.9023 7.19482 23.1328 9.19092 23.1328L17.2847 23.1328C17.5233 23.1328 17.7505 23.1152 17.9646 23.0797L19.7678 24.8805C19.2067 25.2505 18.8565 25.7325 18.6245 26.5098L18.1733 27.9727C17.9136 28.8613 17.3394 29.2715 16.396 29.2715L10.0796 29.2715C9.16357 29.2715 8.54834 28.8477 8.28857 27.9727L7.85107 26.5098C7.57764 25.5938 7.14014 25.0879 6.38818 24.6914C4.84326 23.8438 4.00928 22.2852 4.00928 20.166L4.00928 9.14231ZM18.1733 1.29883L18.6245 2.77539C18.8979 3.67773 19.3354 4.18359 20.0874 4.58008C21.6323 5.44141 22.4663 6.98633 22.4663 9.10547L22.4663 9.31055L22.6577 9.31055C23.3687 9.31055 23.8335 9.78906 23.8335 10.5684L23.8335 12.4141C23.8335 13.1934 23.3687 13.6719 22.6577 13.6719L22.4663 13.6719L22.4663 20.084L20.4702 18.0879L20.4702 9.40625C20.4702 7.36914 19.2808 6.13867 17.2847 6.13867L9.19092 6.13867C8.97258 6.13867 8.7639 6.15339 8.56722 6.18489L6.75172 4.36939C7.29803 4.00482 7.63566 3.51233 7.85107 2.77539L8.28857 1.29883C8.54834 0.423828 9.16357 0 10.0796 0L16.396 0C17.3257 0 17.9409 0.4375 18.1733 1.29883Z" fill="black" fill-opacity="0.85"/>
  <path d="M23.1499 25.9902C23.5601 26.4141 24.23 26.4141 24.6401 25.9902C25.0366 25.5801 25.0503 24.9238 24.6401 24.5L3.40771 3.28125C2.99756 2.87109 2.31396 2.85742 1.90381 3.28125C1.50732 3.67773 1.50732 4.375 1.90381 4.77148Z" fill="black" fill-opacity="0.85"/>
 </g>
</svg>
