<?xml version="1.0" encoding="UTF-8"?>
<!--Generator: Apple Native CoreSVG 326-->
<!DOCTYPE svg
PUBLIC "-//W3C//DTD SVG 1.1//EN"
       "http://www.w3.org/Graphics/SVG/1.1/DTD/svg11.dtd">
<svg version="1.1" xmlns="http://www.w3.org/2000/svg" xmlns:xlink="http://www.w3.org/1999/xlink" viewBox="0 0 28.2461 27.9043">
 <g>
  <rect height="27.9043" opacity="0" width="28.2461" x="0" y="0"/>
  <path d="M13.9453 27.9043C21.6426 27.9043 27.8906 21.6562 27.8906 13.959C27.8906 6.27539 21.6426 0.0136719 13.9453 0.0136719C6.26172 0.0136719 0 6.27539 0 13.959C0 21.6562 6.26172 27.9043 13.9453 27.9043Z" fill="black" fill-opacity="0.85"/>
  <path d="M7.84766 20.4258C6.38477 20.4258 5.64648 19.7285 5.64648 18.2656L5.64648 9.67969C5.64648 8.2168 6.38477 7.51953 7.84766 7.51953L20.0156 7.51953C21.4922 7.51953 22.2168 8.2168 22.2168 9.67969L22.2168 18.2656C22.2168 19.7285 21.4922 20.4258 20.0156 20.4258ZM8.54492 12.9199C7.94336 13.3027 8.44922 14.2051 9.11914 13.7949L11.1973 12.4824C11.6211 12.209 11.6211 11.5801 11.1973 11.3066L9.11914 10.0078C8.44922 9.59766 7.94336 10.5137 8.54492 10.8965L10.2539 11.9082ZM11.5938 13.7676C11.5938 14.0273 11.8125 14.2734 12.0723 14.2734L14.834 14.2734C15.1348 14.2734 15.3535 14.0273 15.3535 13.7676C15.3535 13.4805 15.1348 13.2617 14.834 13.2617L12.0723 13.2617C11.8125 13.2617 11.5938 13.4805 11.5938 13.7676Z" fill="white"/>
 </g>
</svg>
