<?xml version="1.0" encoding="UTF-8"?>
<!--Generator: Apple Native CoreSVG 326-->
<!DOCTYPE svg
PUBLIC "-//W3C//DTD SVG 1.1//EN"
       "http://www.w3.org/Graphics/SVG/1.1/DTD/svg11.dtd">
<svg version="1.1" xmlns="http://www.w3.org/2000/svg" xmlns:xlink="http://www.w3.org/1999/xlink" viewBox="0 0 27.4258 26.1543">
 <g>
  <rect height="26.1543" opacity="0" width="27.4258" x="0" y="0"/>
  <path d="M3.89648 26.1543C6.0293 26.1543 7.76562 25.4844 7.76562 24.6367C7.76562 23.8027 6.0293 23.1328 3.89648 23.1328C1.73633 23.1328 0 23.8027 0 24.6367C0 25.4844 1.73633 26.1543 3.89648 26.1543Z" fill="black" fill-opacity="0.85"/>
  <path d="M5.75586 20.7402C5.55078 21.1367 5.97461 21.4922 6.30273 21.3145L8.33984 20.248L6.86328 18.7578ZM7.49219 17.5957L9.5293 19.6328L10.3359 19.209L26.5781 3.0625C27.2344 2.39258 27.2344 1.3125 26.5781 0.65625C25.9082 0 24.8281 0 24.1719 0.642578L7.92969 16.8164Z" fill="black" fill-opacity="0.85"/>
 </g>
</svg>
