<?xml version="1.0" encoding="UTF-8"?>
<!--Generator: Apple Native CoreSVG 326-->
<!DOCTYPE svg
PUBLIC "-//W3C//DTD SVG 1.1//EN"
       "http://www.w3.org/Graphics/SVG/1.1/DTD/svg11.dtd">
<svg version="1.1" xmlns="http://www.w3.org/2000/svg" xmlns:xlink="http://www.w3.org/1999/xlink" viewBox="0 0 13.92 27.0293">
 <g>
  <rect height="27.0293" opacity="0" width="13.92" x="0" y="0"/>
  <path d="M1.10845 27.0156C1.71002 27.0156 2.17486 26.5918 2.2022 25.9082L2.544 19.2637L4.1983 12.25L2.80377 13.3438L10.7608 13.3438L9.36627 12.25L11.0342 19.2637L11.3624 25.9082C11.4034 26.5918 11.8545 27.0156 12.4698 27.0156C13.0713 27.0156 13.6045 26.5645 13.5635 25.8262L13.2491 19.1543C13.2354 18.9766 13.2217 18.8398 13.167 18.6758L11.417 11.8398C11.335 11.498 11.0479 11.2793 10.7061 11.2793L2.85845 11.2793C2.51666 11.2793 2.24322 11.498 2.14752 11.8398L0.397517 18.6758C0.342829 18.8398 0.329158 18.9766 0.329158 19.1543L0.00103255 25.8262C-0.0263112 26.5645 0.49322 27.0156 1.10845 27.0156Z" fill="black" fill-opacity="0.85"/>
  <path d="M2.70806 9.40625L10.8018 9.40625L7.94439 0.902344C7.75299 0.328125 7.37017 0 6.78228 0C6.16705 0 5.72955 0.328125 5.53814 0.902344Z" fill="black" fill-opacity="0.85"/>
 </g>
</svg>
