<?xml version="1.0" encoding="UTF-8"?>
<!--Generator: Apple Native CoreSVG 326-->
<!DOCTYPE svg
PUBLIC "-//W3C//DTD SVG 1.1//EN"
       "http://www.w3.org/Graphics/SVG/1.1/DTD/svg11.dtd">
<svg version="1.1" xmlns="http://www.w3.org/2000/svg" xmlns:xlink="http://www.w3.org/1999/xlink" viewBox="0 0 34.3984 32.7441">
 <g>
  <rect height="32.7441" opacity="0" width="34.3984" x="0" y="0"/>
  <path d="M27.8482 8.28153L26.0642 8.67379C25.0999 6.73775 23.369 5.2574 21.2705 4.61662C22.6982 5.74999 23.7963 7.27793 24.3985 9.04002L24.3496 9.05078C23.741 9.18658 23.2009 9.4334 22.7621 9.77573C21.9603 7.30378 19.9867 5.3685 17.4981 4.61337C19.7508 6.40085 21.1914 9.16172 21.1914 12.2637C21.1914 15.3733 19.7509 18.1374 17.4984 19.9263C19.1427 19.4264 20.5619 18.4088 21.5609 17.0573L21.5686 19.6718C21.4762 19.7633 21.3762 19.8466 21.2708 19.9231C21.3728 19.8933 21.4733 19.8602 21.569 19.817L21.5742 21.5742L20.3711 21.8477C20.1331 21.9014 19.9025 21.9611 19.6814 22.0281C19.4324 22.0565 19.1783 22.0664 18.9219 22.0664C18.2774 22.0664 17.6476 22.0047 17.0396 21.8827C16.4331 22.0047 15.8049 22.0664 15.1621 22.0664C14.5153 22.0664 13.8834 22.0043 13.2735 21.8816C12.6645 22.0043 12.0339 22.0664 11.3887 22.0664C5.97461 22.0664 1.59961 17.6914 1.59961 12.2637C1.59961 6.84961 5.97461 2.47461 11.3887 2.47461C12.0339 2.47461 12.6645 2.53674 13.2735 2.65935C13.8834 2.53674 14.5153 2.47461 15.1621 2.47461C15.8049 2.47461 16.4331 2.53628 17.0396 2.65832C17.6476 2.53628 18.2774 2.47461 18.9219 2.47461C22.9057 2.47461 26.3315 4.85544 27.8482 8.28153ZM3.37695 12.2637C3.37695 15.8781 5.76184 18.9282 9.04692 19.9265C6.79552 18.1376 5.35938 15.3734 5.35938 12.2637C5.35938 9.1616 6.79564 6.40064 9.04723 4.61317C5.76198 5.60806 3.37695 8.64911 3.37695 12.2637ZM7.16406 12.2637C7.16406 15.867 9.52522 18.9094 12.7907 19.9186C10.5417 18.1291 9.10547 15.3687 9.10547 12.2637C9.10547 9.16634 10.5418 6.40909 12.791 4.62107C9.52538 5.62679 7.16406 8.66024 7.16406 12.2637ZM10.8965 12.2637C10.8965 15.3336 12.6104 17.9964 15.1477 19.3393C17.68 17.9964 19.4004 15.3336 19.4004 12.2637C19.4004 9.19375 17.68 6.53752 15.1477 5.19868C12.6104 6.53752 10.8965 9.19375 10.8965 12.2637Z" fill="black" fill-opacity="0.85"/>
  <path d="M32.457 15.2578L32.457 10.5137C32.457 9.84375 31.8965 9.37891 31.2402 9.51562L24.7734 10.9375C23.9531 11.1152 23.4883 11.5664 23.4883 12.291L23.5156 22.2305C23.5156 22.832 23.2969 23.2012 22.7637 23.3105L20.7676 23.748C18.2246 24.2949 17.0352 25.5664 17.0352 27.4941C17.0352 29.4219 18.5391 30.8027 20.6445 30.8027C22.5039 30.8027 25.293 29.4082 25.293 25.7305L25.293 18.2793C25.293 17.623 25.3887 17.5273 25.9766 17.3906L31.7324 16.1191C32.1836 16.0098 32.457 15.6816 32.457 15.2578Z" fill="black" fill-opacity="0.85"/>
 </g>
</svg>
