<?xml version="1.0" encoding="UTF-8"?>
<!--Generator: Apple Native CoreSVG 326-->
<!DOCTYPE svg
PUBLIC "-//W3C//DTD SVG 1.1//EN"
       "http://www.w3.org/Graphics/SVG/1.1/DTD/svg11.dtd">
<svg version="1.1" xmlns="http://www.w3.org/2000/svg" xmlns:xlink="http://www.w3.org/1999/xlink" viewBox="0 0 26.9609 28.7246">
 <g>
  <rect height="28.7246" opacity="0" width="26.9609" x="0" y="0"/>
  <path d="M13.5215 28.7109C20.7539 28.7109 26.6055 22.2852 26.6055 14.3555C26.6055 6.42578 20.7539 0 13.5215 0C9.63867 0 6.11133 1.85938 3.70508 4.88086C3.45898 5.18164 3.36328 5.46875 3.36328 5.74219C3.36328 6.33008 3.89648 6.74023 4.4707 6.74023C4.79883 6.74023 5.14062 6.60352 5.38672 6.28906C7.38281 3.74609 10.3359 2.20117 13.5215 2.20117C19.5234 2.20117 24.3906 7.64258 24.3906 14.3555C24.3906 21.0684 19.5234 26.5098 13.5215 26.5098C10.3359 26.5098 7.38281 24.9512 5.38672 22.4219C5.14062 22.1074 4.79883 21.9707 4.4707 21.9707C3.89648 21.9707 3.36328 22.3809 3.36328 22.9688C3.36328 23.2285 3.45898 23.5293 3.70508 23.8301C6.11133 26.8516 9.63867 28.7109 13.5215 28.7109Z" fill="black" fill-opacity="0.85"/>
  <path d="M0 21.3555C0 23.0918 1.38086 24.459 3.02148 24.541C2.58398 23.9941 2.36523 23.4746 2.36523 22.9961C2.36523 21.8613 3.41797 20.9727 4.51172 20.9727C5.37305 20.9727 5.81055 21.4102 6.38477 22.1074C6.43945 21.8613 6.4668 21.6152 6.4668 21.3555L6.4668 7.3418C6.4668 7.08203 6.43945 6.84961 6.38477 6.60352C5.83789 7.25977 5.40039 7.72461 4.52539 7.72461C3.41797 7.72461 2.36523 6.84961 2.36523 5.71484C2.36523 5.23633 2.58398 4.73047 3.02148 4.16992C1.39453 4.25195 0 5.60547 0 7.3418ZM3.24023 13.3984C2.07812 13.3984 1.14844 12.4551 1.14844 11.3066C1.14844 10.1582 2.07812 9.22852 3.24023 9.22852C4.38867 9.22852 5.31836 10.1582 5.31836 11.3066C5.31836 12.4551 4.38867 13.3984 3.24023 13.3984ZM3.24023 12.4414C3.85547 12.4414 4.36133 11.9219 4.36133 11.3066C4.36133 10.6914 3.85547 10.1855 3.24023 10.1855C2.625 10.1855 2.10547 10.6914 2.10547 11.3066C2.10547 11.9219 2.625 12.4414 3.24023 12.4414Z" fill="black" fill-opacity="0.85"/>
 </g>
</svg>
