<?xml version="1.0" encoding="UTF-8"?>
<!--Generator: Apple Native CoreSVG 326-->
<!DOCTYPE svg
PUBLIC "-//W3C//DTD SVG 1.1//EN"
       "http://www.w3.org/Graphics/SVG/1.1/DTD/svg11.dtd">
<svg version="1.1" xmlns="http://www.w3.org/2000/svg" xmlns:xlink="http://www.w3.org/1999/xlink" viewBox="0 0 28.2461 27.9043">
 <g>
  <rect height="27.9043" opacity="0" width="28.2461" x="0" y="0"/>
  <path d="M13.9453 27.8906C21.6426 27.8906 27.8906 21.6426 27.8906 13.9453C27.8906 6.24805 21.6426 0 13.9453 0C6.24805 0 0 6.24805 0 13.9453C0 21.6426 6.24805 27.8906 13.9453 27.8906ZM13.9453 25.5664C7.51953 25.5664 2.32422 20.3711 2.32422 13.9453C2.32422 7.51953 7.51953 2.32422 13.9453 2.32422C20.3711 2.32422 25.5664 7.51953 25.5664 13.9453C25.5664 20.3711 20.3711 25.5664 13.9453 25.5664Z" fill="black" fill-opacity="0.85"/>
  <path d="M13.6445 18.6758C14.041 18.6758 14.3828 18.334 14.3828 17.9238L14.3828 14.9434C18.5391 14.6562 21.2324 11.7715 21.1914 7.54688C21.1914 7.0957 20.9043 6.79492 20.3984 6.79492C17.1719 6.75391 14.6973 8.50391 13.5488 11.4434C12.4824 9.41992 10.3633 8.42188 8.20312 8.42188C7.80664 8.42188 7.58789 8.68164 7.58789 9.07812C7.64258 11.0195 8.76367 14.5605 12.8926 14.9434L12.8926 17.9238C12.8926 18.334 13.248 18.6758 13.6445 18.6758ZM12.7832 13.4395C10.6914 13.166 9.5293 11.6895 9.17383 10.0352C10.7598 10.2949 12.332 11.3477 12.7832 13.4395ZM14.5469 13.4531C15.1211 10.4453 17.0215 8.53125 19.6738 8.3125C19.4551 11.1426 17.4863 13.0977 14.5469 13.4531ZM7.57422 20.8633C7.95703 20.8633 8.32617 20.5078 8.32617 20.1113C8.32617 19.7422 7.95703 19.3867 7.57422 19.3867C7.16406 19.3867 6.82227 19.7422 6.82227 20.1113C6.82227 20.5078 7.16406 20.8633 7.57422 20.8633ZM9.39258 19.6602C9.78906 19.6602 10.1445 19.332 10.1445 18.9219C10.1445 18.5391 9.78906 18.1699 9.39258 18.1699C8.98242 18.1699 8.6543 18.5391 8.6543 18.9219C8.6543 19.3184 8.99609 19.6602 9.39258 19.6602ZM11.4707 18.9629C11.8809 18.9629 12.209 18.5938 12.209 18.2246C12.209 17.8145 11.8672 17.4863 11.4707 17.4863C11.0742 17.4863 10.7324 17.8145 10.7324 18.2246C10.7324 18.5938 11.0742 18.9629 11.4707 18.9629ZM15.8047 18.9629C16.2012 18.9629 16.543 18.5938 16.543 18.2246C16.543 17.8145 16.2012 17.4863 15.8047 17.4863C15.4082 17.4863 15.0664 17.8145 15.0664 18.2246C15.0664 18.5938 15.4082 18.9629 15.8047 18.9629ZM17.8691 19.6602C18.2656 19.6602 18.6211 19.3184 18.6211 18.9219C18.6211 18.5391 18.2656 18.1699 17.8691 18.1699C17.4863 18.1699 17.1309 18.5391 17.1309 18.9219C17.1309 19.332 17.4863 19.6602 17.8691 19.6602ZM19.7148 20.8633C20.0977 20.8633 20.4395 20.5078 20.4395 20.1113C20.4395 19.7422 20.0977 19.3867 19.7148 19.3867C19.3184 19.3867 18.9766 19.7422 18.9766 20.1113C18.9766 20.5078 19.3184 20.8633 19.7148 20.8633Z" fill="black" fill-opacity="0.85"/>
 </g>
</svg>
