<?xml version="1.0" encoding="UTF-8"?>
<!--Generator: Apple Native CoreSVG 326-->
<!DOCTYPE svg
PUBLIC "-//W3C//DTD SVG 1.1//EN"
       "http://www.w3.org/Graphics/SVG/1.1/DTD/svg11.dtd">
<svg version="1.1" xmlns="http://www.w3.org/2000/svg" xmlns:xlink="http://www.w3.org/1999/xlink" viewBox="0 0 28.7383 36.1621">
 <g>
  <rect height="36.1621" opacity="0" width="28.7383" x="0" y="0"/>
  <path d="M20.489 3.97852L7.89383 3.97852C7.9448 2.85991 8.64699 2.22852 9.81641 2.22852L18.5664 2.22852C19.7358 2.22852 20.438 2.85991 20.489 3.97852Z" fill="black" fill-opacity="0.85"/>
  <path d="M23.2851 7.88385C22.8454 7.81396 22.379 7.7793 21.8887 7.7793L6.49414 7.7793C6.00393 7.7793 5.53767 7.81374 5.09809 7.88327C5.24713 6.57013 6.13588 5.83789 7.58789 5.83789L20.8086 5.83789C22.2608 5.83789 23.1383 6.57035 23.2851 7.88385Z" fill="black" fill-opacity="0.85"/>
  <path d="M26.1816 14.2188L26.1816 29.7227C26.1816 32.5391 24.7461 33.9609 21.8887 33.9609L6.49414 33.9609C3.63672 33.9609 2.20117 32.5391 2.20117 29.7227L2.20117 14.2188C2.20117 11.3887 3.63672 9.98047 6.49414 9.98047L21.8887 9.98047C24.7461 9.98047 26.1816 11.4023 26.1816 14.2188ZM6.87695 28.3965C6.87695 28.8066 7.21875 29.1758 7.62891 29.1758C8.02539 29.1758 8.4082 28.8066 8.4082 28.3965C8.4082 28.0137 8.02539 27.6445 7.62891 27.6445C7.21875 27.6445 6.87695 28.0137 6.87695 28.3965ZM19.3867 28.3965C19.3867 28.8066 19.7422 29.1758 20.1523 29.1758C20.5488 29.1758 20.918 28.8066 20.918 28.3965C20.918 28.0137 20.5488 27.6445 20.1523 27.6445C19.7422 27.6445 19.3867 28.0137 19.3867 28.3965ZM8.76367 27.166C8.76367 27.5762 9.10547 27.9316 9.51562 27.9316C9.92578 27.9316 10.2949 27.5898 10.2949 27.166C10.2949 26.7695 9.92578 26.3867 9.51562 26.3867C9.0918 26.3867 8.76367 26.7695 8.76367 27.166ZM17.4863 27.166C17.4863 27.5898 17.8691 27.9316 18.2656 27.9316C18.6621 27.9316 19.0312 27.5762 19.0312 27.166C19.0312 26.7695 18.6621 26.3867 18.2656 26.3867C17.8691 26.3867 17.4863 26.7695 17.4863 27.166ZM10.8965 26.4551C10.8965 26.8379 11.252 27.2207 11.6621 27.2207C12.0723 27.2207 12.4141 26.8379 12.4141 26.4551C12.4141 26.0312 12.0586 25.6895 11.6621 25.6895C11.252 25.6895 10.8965 26.0312 10.8965 26.4551ZM15.3535 26.4551C15.3535 26.8379 15.709 27.2207 16.1191 27.2207C16.5293 27.2207 16.8984 26.8379 16.8984 26.4551C16.8984 26.0312 16.5293 25.6895 16.1191 25.6895C15.709 25.6895 15.3535 26.0312 15.3535 26.4551ZM13.8086 19.4551C12.7012 17.377 10.5137 16.3516 8.28516 16.3516C7.875 16.3516 7.65625 16.6113 7.66992 17.0215C7.71094 19.0312 8.87305 22.6816 13.1113 23.0781L13.1113 26.1406C13.1113 26.5645 13.4805 26.9199 13.8906 26.9199C14.3008 26.9199 14.6562 26.5645 14.6562 26.1406L14.6562 23.0781C18.9492 22.7773 21.7109 19.7969 21.6836 15.4492C21.6836 14.9844 21.3828 14.6699 20.8633 14.6699C17.541 14.6289 14.9844 16.4336 13.8086 19.4551ZM14.834 21.5332C15.4219 18.4434 17.377 16.4746 20.1113 16.2422C19.8789 19.1543 17.8555 21.1641 14.834 21.5332ZM13.002 21.5195C10.8555 21.2324 9.66602 19.7285 9.29688 18.0195C10.9238 18.293 12.5508 19.373 13.002 21.5195Z" fill="black" fill-opacity="0.85"/>
 </g>
</svg>
