<?xml version="1.0" encoding="UTF-8"?>
<!--Generator: Apple Native CoreSVG 326-->
<!DOCTYPE svg
PUBLIC "-//W3C//DTD SVG 1.1//EN"
       "http://www.w3.org/Graphics/SVG/1.1/DTD/svg11.dtd">
<svg version="1.1" xmlns="http://www.w3.org/2000/svg" xmlns:xlink="http://www.w3.org/1999/xlink" viewBox="0 0 14.9297 28.752">
 <g>
  <rect height="28.752" opacity="0" width="14.9297" x="0" y="0"/>
  <path d="M2.58398 21.6426L11.9902 21.6426C12.9473 21.6426 13.8496 21.9434 14.5742 22.4766L14.5742 3.55469C14.5742 1.38086 13.1387 0 10.8555 0L3.71875 0C1.43555 0 0 1.38086 0 3.55469L0 22.4766C0.724609 21.9434 1.62695 21.6426 2.58398 21.6426ZM7.30078 6.30273C6.38477 6.30273 5.64648 5.56445 5.64648 4.66211C5.64648 3.74609 6.38477 3.00781 7.30078 3.00781C8.20312 3.00781 8.95508 3.74609 8.95508 4.66211C8.95508 5.56445 8.20312 6.30273 7.30078 6.30273ZM2.58398 28.6699L11.9902 28.6699C13.4121 28.6699 14.5742 27.5078 14.5742 26.0859C14.5742 24.6641 13.4121 23.502 11.9902 23.502L2.58398 23.502C1.16211 23.502 0 24.6641 0 26.0859C0 27.5078 1.16211 28.6699 2.58398 28.6699Z" fill="black" fill-opacity="0.85"/>
 </g>
</svg>
