<?xml version="1.0" encoding="UTF-8"?>
<!--Generator: Apple Native CoreSVG 326-->
<!DOCTYPE svg
PUBLIC "-//W3C//DTD SVG 1.1//EN"
       "http://www.w3.org/Graphics/SVG/1.1/DTD/svg11.dtd">
<svg version="1.1" xmlns="http://www.w3.org/2000/svg" xmlns:xlink="http://www.w3.org/1999/xlink" viewBox="0 0 17.9238 28.9707">
 <g>
  <rect height="28.9707" opacity="0" width="17.9238" x="0" y="0"/>
  <path d="M0 25.3887C0 27.5215 1.49023 28.9434 3.71875 28.9434L13.8496 28.9434C16.0781 28.9434 17.5684 27.5215 17.5684 25.3887L17.5684 3.55469C17.5684 1.42188 16.0781 0 13.8496 0L3.71875 0C1.49023 0 0 1.42188 0 3.55469ZM2.20117 25.0332L2.20117 3.91016C2.20117 2.81641 2.84375 2.20117 4.00586 2.20117L13.5762 2.20117C14.7246 2.20117 15.3672 2.81641 15.3672 3.91016L15.3672 25.0332C15.3672 26.127 14.7246 26.7422 13.5762 26.7422L4.00586 26.7422C2.84375 26.7422 2.20117 26.127 2.20117 25.0332Z" fill="black" fill-opacity="0.85"/>
  <path d="M4.66211 24.8828L5.94727 24.8828C6.24805 24.8828 6.48047 24.6777 6.48047 24.3906L6.48047 23.0645C6.48047 22.7773 6.24805 22.5723 5.94727 22.5723L4.66211 22.5723C4.36133 22.5723 4.15625 22.7773 4.15625 23.0645L4.15625 24.3906C4.15625 24.6777 4.36133 24.8828 4.66211 24.8828ZM8.12109 24.8828L9.41992 24.8828C9.7207 24.8828 9.95312 24.6777 9.95312 24.3906L9.95312 23.0645C9.95312 22.7773 9.7207 22.5723 9.41992 22.5723L8.12109 22.5723C7.83398 22.5723 7.62891 22.7773 7.62891 23.0645L7.62891 24.3906C7.62891 24.6777 7.83398 24.8828 8.12109 24.8828ZM11.5938 24.8828L12.8789 24.8828C13.1934 24.8828 13.4121 24.6777 13.4121 24.3906L13.4121 23.0645C13.4121 22.7773 13.1934 22.5723 12.8789 22.5723L11.5938 22.5723C11.3066 22.5723 11.1016 22.7773 11.1016 23.0645L11.1016 24.3906C11.1016 24.6777 11.3066 24.8828 11.5938 24.8828ZM4.66211 13.8906L5.94727 13.8906C6.24805 13.8906 6.48047 13.6855 6.48047 13.3848L6.48047 12.0723C6.48047 11.7715 6.24805 11.5664 5.94727 11.5664L4.66211 11.5664C4.36133 11.5664 4.15625 11.7715 4.15625 12.0723L4.15625 13.3848C4.15625 13.6855 4.36133 13.8906 4.66211 13.8906ZM8.12109 13.8906L9.41992 13.8906C9.7207 13.8906 9.95312 13.6855 9.95312 13.3848L9.95312 12.0723C9.95312 11.7715 9.7207 11.5664 9.41992 11.5664L8.12109 11.5664C7.83398 11.5664 7.62891 11.7715 7.62891 12.0723L7.62891 13.3848C7.62891 13.6855 7.83398 13.8906 8.12109 13.8906ZM4.66211 10.1719L5.94727 10.1719C6.24805 10.1719 6.48047 9.9668 6.48047 9.67969L6.48047 8.35352C6.48047 8.05273 6.24805 7.84766 5.94727 7.84766L4.66211 7.84766C4.36133 7.84766 4.15625 8.05273 4.15625 8.35352L4.15625 9.67969C4.15625 9.9668 4.36133 10.1719 4.66211 10.1719ZM8.12109 10.1719L9.41992 10.1719C9.7207 10.1719 9.95312 9.9668 9.95312 9.67969L9.95312 8.35352C9.95312 8.05273 9.7207 7.84766 9.41992 7.84766L8.12109 7.84766C7.83398 7.84766 7.62891 8.05273 7.62891 8.35352L7.62891 9.67969C7.62891 9.9668 7.83398 10.1719 8.12109 10.1719ZM11.5938 10.1719L12.8789 10.1719C13.1934 10.1719 13.4121 9.9668 13.4121 9.67969L13.4121 8.35352C13.4121 8.05273 13.1934 7.84766 12.8789 7.84766L11.5938 7.84766C11.3066 7.84766 11.1016 8.05273 11.1016 8.35352L11.1016 9.67969C11.1016 9.9668 11.3066 10.1719 11.5938 10.1719ZM4.66211 6.4668L5.94727 6.4668C6.24805 6.4668 6.48047 6.26172 6.48047 5.96094L6.48047 4.64844C6.48047 4.34766 6.24805 4.14258 5.94727 4.14258L4.66211 4.14258C4.36133 4.14258 4.15625 4.34766 4.15625 4.64844L4.15625 5.96094C4.15625 6.26172 4.36133 6.4668 4.66211 6.4668ZM8.12109 6.4668L9.41992 6.4668C9.7207 6.4668 9.95312 6.26172 9.95312 5.96094L9.95312 4.64844C9.95312 4.34766 9.7207 4.14258 9.41992 4.14258L8.12109 4.14258C7.83398 4.14258 7.62891 4.34766 7.62891 4.64844L7.62891 5.96094C7.62891 6.26172 7.83398 6.4668 8.12109 6.4668ZM11.5938 6.4668L12.8789 6.4668C13.1934 6.4668 13.4121 6.26172 13.4121 5.96094L13.4121 4.64844C13.4121 4.34766 13.1934 4.14258 12.8789 4.14258L11.5938 4.14258C11.3066 4.14258 11.1016 4.34766 11.1016 4.64844L11.1016 5.96094C11.1016 6.26172 11.3066 6.4668 11.5938 6.4668Z" fill="black" fill-opacity="0.85"/>
 </g>
</svg>
