<?xml version="1.0" encoding="UTF-8"?>
<!--Generator: Apple Native CoreSVG 326-->
<!DOCTYPE svg
PUBLIC "-//W3C//DTD SVG 1.1//EN"
       "http://www.w3.org/Graphics/SVG/1.1/DTD/svg11.dtd">
<svg version="1.1" xmlns="http://www.w3.org/2000/svg" xmlns:xlink="http://www.w3.org/1999/xlink" viewBox="0 0 32.5938 25.1699">
 <g>
  <rect height="25.1699" opacity="0" width="32.5938" x="0" y="0"/>
  <path d="M32.2383 4.23828L32.2383 20.9453C32.2383 23.7617 30.8164 25.1699 27.9453 25.1699L4.29297 25.1699C1.43555 25.1699 0 23.7617 0 20.9453L0 4.23828C0 1.42188 1.43555 0 4.29297 0L27.9453 0C30.8164 0 32.2383 1.42188 32.2383 4.23828ZM4.32031 2.20117C3.04863 2.20117 2.30923 2.83991 2.21303 4.07422L1.55859 4.07422C1.29883 4.07422 1.09375 4.2793 1.09375 4.52539L1.09375 20.6445C1.09375 20.9043 1.3125 21.1094 1.57227 21.1094L2.21306 21.1094C2.30931 22.3419 3.0487 22.9688 4.32031 22.9688L27.918 22.9688C29.1769 22.9688 29.9272 22.3419 30.025 21.1094L30.7617 21.1094C31.0078 21.1094 31.2129 20.9043 31.2129 20.6445L31.2129 4.52539C31.2129 4.2793 31.0078 4.07422 30.7617 4.07422L30.025 4.07422C29.9273 2.83991 29.1769 2.20117 27.918 2.20117Z" fill="black" fill-opacity="0.85"/>
  <path d="M1.57227 21.1094L19.3457 21.1094C20.1113 21.1094 20.5488 20.6582 20.5488 19.8789L20.5488 5.30469C20.5488 4.52539 20.1113 4.07422 19.3457 4.07422L1.55859 4.07422C1.29883 4.07422 1.09375 4.2793 1.09375 4.52539L1.09375 20.6445C1.09375 20.9043 1.3125 21.1094 1.57227 21.1094ZM23.6113 21.1094L30.7617 21.1094C31.0078 21.1094 31.2129 20.9043 31.2129 20.6445L31.2129 4.52539C31.2129 4.2793 31.0078 4.07422 30.7617 4.07422L23.6113 4.07422C22.8594 4.07422 22.4219 4.52539 22.4219 5.30469L22.4219 19.8789C22.4219 20.6582 22.8594 21.1094 23.6113 21.1094Z" fill="black" fill-opacity="0.85"/>
 </g>
</svg>
