<?xml version="1.0" encoding="UTF-8"?>
<!--Generator: Apple Native CoreSVG 326-->
<!DOCTYPE svg
PUBLIC "-//W3C//DTD SVG 1.1//EN"
       "http://www.w3.org/Graphics/SVG/1.1/DTD/svg11.dtd">
<svg version="1.1" xmlns="http://www.w3.org/2000/svg" xmlns:xlink="http://www.w3.org/1999/xlink" viewBox="0 0 28.6426 32.5801">
 <g>
  <rect height="32.5801" opacity="0" width="28.6426" x="0" y="0"/>
  <path d="M14.1777 2.22852C14.8066 2.22852 15.2852 1.76367 15.2852 1.12109C15.2852 0.492188 14.793 0 14.1777 0C13.5625 0 13.0566 0.505859 13.0566 1.12109C13.0566 1.73633 13.5488 2.22852 14.1777 2.22852ZM7.64258 6.00195C8.28516 6.00195 8.76367 5.52344 8.76367 4.88086C8.76367 4.25195 8.27148 3.75977 7.64258 3.75977C7.04102 3.75977 6.52148 4.2793 6.52148 4.88086C6.52148 5.50977 7.01367 6.00195 7.64258 6.00195ZM20.6992 6.00195C21.3418 6.00195 21.8203 5.52344 21.8203 4.88086C21.8203 4.25195 21.3281 3.75977 20.6992 3.75977C20.0977 3.75977 19.5781 4.2793 19.5781 4.88086C19.5781 5.50977 20.0703 6.00195 20.6992 6.00195ZM1.12109 9.81641C1.75 9.81641 2.22852 9.33789 2.22852 8.69531C2.22852 8.08008 1.73633 7.58789 1.12109 7.58789C0.505859 7.58789 0 8.09375 0 8.69531C0 9.32422 0.492188 9.81641 1.12109 9.81641ZM27.1797 9.81641C27.8223 9.81641 28.2871 9.33789 28.2871 8.69531C28.2871 8.06641 27.8086 7.58789 27.1797 7.58789C26.5645 7.58789 26.0586 8.09375 26.0586 8.69531C26.0586 9.32422 26.5508 9.81641 27.1797 9.81641ZM1.12109 17.3906C1.75 17.3906 2.22852 16.9258 2.22852 16.2832C2.22852 15.6543 1.73633 15.1621 1.12109 15.1621C0.505859 15.1621 0 15.668 0 16.2832C0 16.8984 0.492188 17.3906 1.12109 17.3906ZM27.1797 17.3906C27.8223 17.3906 28.2871 16.9258 28.2871 16.2832C28.2871 15.6543 27.8086 15.1621 27.1797 15.1621C26.5645 15.1621 26.0586 15.6816 26.0586 16.2832C26.0586 16.8984 26.5508 17.3906 27.1797 17.3906ZM1.12109 24.9785C1.75 24.9785 2.22852 24.5 2.22852 23.8574C2.22852 23.2422 1.73633 22.75 1.12109 22.75C0.505859 22.75 0 23.2559 0 23.8574C0 24.4863 0.492188 24.9785 1.12109 24.9785ZM27.1797 24.9785C27.8223 24.9785 28.2871 24.5137 28.2871 23.8574C28.2871 23.2422 27.7949 22.75 27.1797 22.75C26.5645 22.75 26.0586 23.2559 26.0586 23.8574C26.0586 24.4863 26.5508 24.9785 27.1797 24.9785ZM7.64258 28.793C8.28516 28.793 8.76367 28.3281 8.76367 27.6855C8.76367 27.0566 8.27148 26.5645 7.64258 26.5645C7.04102 26.5645 6.52148 27.0703 6.52148 27.6855C6.52148 28.3008 7.01367 28.793 7.64258 28.793ZM20.6992 28.793C21.3418 28.793 21.8203 28.3281 21.8203 27.6855C21.8203 27.0566 21.3281 26.5645 20.6992 26.5645C20.0977 26.5645 19.5781 27.0703 19.5781 27.6855C19.5781 28.3008 20.0703 28.793 20.6992 28.793ZM14.1777 32.5664C14.8066 32.5664 15.2852 32.0879 15.2852 31.4453C15.2852 30.8164 14.793 30.3242 14.1777 30.3242C13.5625 30.3242 13.0566 30.8438 13.0566 31.4453C13.0566 32.0742 13.5488 32.5664 14.1777 32.5664Z" fill="black" fill-opacity="0.85"/>
  <path d="M14.1777 9.81641C14.8066 9.81641 15.2852 9.33789 15.2852 8.69531C15.2852 8.08008 14.793 7.58789 14.1777 7.58789C13.5625 7.58789 13.0566 8.09375 13.0566 8.69531C13.0566 9.32422 13.5488 9.81641 14.1777 9.81641ZM7.64258 13.6035C8.28516 13.6035 8.76367 13.125 8.76367 12.4824C8.76367 11.8535 8.27148 11.3613 7.64258 11.3613C7.04102 11.3613 6.52148 11.8672 6.52148 12.4824C6.52148 13.1113 7.01367 13.6035 7.64258 13.6035ZM20.6992 13.6035C21.3418 13.6035 21.8203 13.125 21.8203 12.4824C21.8203 11.8535 21.3281 11.3613 20.6992 11.3613C20.0977 11.3613 19.5781 11.8672 19.5781 12.4824C19.5781 13.1113 20.0703 13.6035 20.6992 13.6035ZM7.64258 21.1914C8.28516 21.1914 8.76367 20.7266 8.76367 20.084C8.76367 19.4551 8.27148 18.9629 7.64258 18.9629C7.04102 18.9629 6.52148 19.4688 6.52148 20.084C6.52148 20.7129 7.01367 21.1914 7.64258 21.1914ZM20.6992 21.1914C21.3418 21.1914 21.8203 20.7266 21.8203 20.084C21.8203 19.4551 21.3281 18.9629 20.6992 18.9629C20.0977 18.9629 19.5781 19.4688 19.5781 20.084C19.5781 20.7129 20.0703 21.1914 20.6992 21.1914ZM14.1777 24.9785C14.8066 24.9785 15.2852 24.5 15.2852 23.8574C15.2852 23.2422 14.793 22.75 14.1777 22.75C13.5625 22.75 13.0566 23.2559 13.0566 23.8574C13.0566 24.4863 13.5488 24.9785 14.1777 24.9785Z" fill="black" fill-opacity="0.85"/>
  <path d="M14.1777 17.3906C14.8066 17.3906 15.2852 16.9258 15.2852 16.2832C15.2852 15.6543 14.793 15.1621 14.1777 15.1621C13.5625 15.1621 13.0566 15.668 13.0566 16.2832C13.0566 16.8984 13.5488 17.3906 14.1777 17.3906Z" fill="black" fill-opacity="0.85"/>
 </g>
</svg>
