<?xml version="1.0" encoding="UTF-8"?>
<!--Generator: Apple Native CoreSVG 326-->
<!DOCTYPE svg
PUBLIC "-//W3C//DTD SVG 1.1//EN"
       "http://www.w3.org/Graphics/SVG/1.1/DTD/svg11.dtd">
<svg version="1.1" xmlns="http://www.w3.org/2000/svg" xmlns:xlink="http://www.w3.org/1999/xlink" viewBox="0 0 39.0802 24.5957">
 <g>
  <rect height="24.5957" opacity="0" width="39.0802" x="0" y="0"/>
  <path d="M5.67 24.5957L33.0548 24.5957C37.0743 24.5957 39.1661 22.0117 38.6466 17.7188L37.17 5.40039C36.7598 1.91406 34.7501 0 31.5645 0L7.16024 0C3.97469 0 1.96493 1.91406 1.55477 5.40039L0.0782081 17.7188C-0.441323 22.0117 1.65047 24.5957 5.67 24.5957ZM10.086 16.2832C9.55282 16.2832 9.12899 16.0371 9.12899 15.6816L9.12899 11.7441C7.63875 11.3066 6.53133 9.93945 6.53133 8.3125C6.53133 6.37109 8.11727 4.77148 10.086 4.77148C12.0274 4.77148 13.627 6.35742 13.627 8.3125C13.627 9.92578 12.5196 11.3066 11.0431 11.7031L11.0431 15.6816C11.0431 16.0371 10.6056 16.2832 10.086 16.2832ZM10.086 19.2773C7.21493 19.2773 5.19149 17.7461 5.19149 15.5723C5.19149 14.041 6.17586 12.8379 7.7618 12.25L7.7618 14.0957C7.2286 14.4512 6.91415 14.957 6.91415 15.5723C6.91415 16.8574 8.21297 17.7598 10.086 17.7598C11.9454 17.7598 13.2306 16.8574 13.2306 15.5723C13.2306 14.9707 12.9298 14.4648 12.4102 14.1094L12.4102 12.25C13.9688 12.8516 14.9532 14.041 14.9532 15.5723C14.9532 17.7461 12.9434 19.2773 10.086 19.2773ZM18.3165 11.416C17.1817 11.416 16.2657 10.5 16.2657 9.36523C16.2657 8.2168 17.1817 7.30078 18.3165 7.30078C19.4649 7.30078 20.3809 8.2168 20.3809 9.36523C20.3809 10.5 19.4649 11.416 18.3165 11.416ZM24.2774 11.416C23.1427 11.416 22.2266 10.5 22.2266 9.36523C22.2266 8.2168 23.1427 7.30078 24.2774 7.30078C25.4122 7.30078 26.3419 8.2168 26.3419 9.36523C26.3419 10.5 25.4122 11.416 24.2774 11.416ZM30.2247 11.416C29.0899 11.416 28.1602 10.5 28.1602 9.36523C28.1602 8.2168 29.0899 7.30078 30.2247 7.30078C31.3458 7.30078 32.2755 8.2168 32.2755 9.36523C32.2755 10.5 31.3458 11.416 30.2247 11.416ZM20.3126 17.3496C19.1641 17.3496 18.2481 16.4336 18.2481 15.2988C18.2481 14.1641 19.1641 13.2344 20.3126 13.2344C21.4337 13.2344 22.3497 14.1641 22.3497 15.2988C22.3497 16.4336 21.4337 17.3496 20.3126 17.3496ZM26.2598 17.3496C25.1251 17.3496 24.2091 16.4336 24.2091 15.2988C24.2091 14.1641 25.1251 13.2344 26.2598 13.2344C27.3946 13.2344 28.3243 14.1641 28.3243 15.2988C28.3243 16.4336 27.3946 17.3496 26.2598 17.3496ZM32.2071 17.3496C31.0723 17.3496 30.1563 16.4336 30.1563 15.2988C30.1563 14.1641 31.0723 13.2344 32.2071 13.2344C33.3556 13.2344 34.2716 14.1641 34.2716 15.2988C34.2716 16.4336 33.3556 17.3496 32.2071 17.3496Z" fill="black" fill-opacity="0.85"/>
 </g>
</svg>
