<?xml version="1.0" encoding="UTF-8"?>
<!--Generator: Apple Native CoreSVG 326-->
<!DOCTYPE svg
PUBLIC "-//W3C//DTD SVG 1.1//EN"
       "http://www.w3.org/Graphics/SVG/1.1/DTD/svg11.dtd">
<svg version="1.1" xmlns="http://www.w3.org/2000/svg" xmlns:xlink="http://www.w3.org/1999/xlink" viewBox="0 0 16.2695 28.7793">
 <g>
  <rect height="28.7793" opacity="0" width="16.2695" x="0" y="0"/>
  <path d="M15.9141 22.0527C15.9141 25.8262 12.4414 28.7656 7.9707 28.7656C3.47266 28.7656 0 25.8262 0 22.0527C0 19.2314 1.92728 16.8806 4.77148 15.8671L4.77148 18.2587C3.20722 19.0542 2.20117 20.4359 2.20117 22.0527C2.20117 24.5957 4.7168 26.5645 7.9707 26.5645C11.2246 26.5645 13.7129 24.5957 13.7129 22.0527C13.7129 20.4064 12.6811 19.0039 11.0742 18.2175L11.0742 15.8375C13.9502 16.8362 15.9141 19.2048 15.9141 22.0527Z" fill="black" fill-opacity="0.85"/>
  <path d="M7.91602 23.3652C8.77734 23.3652 9.48828 22.9551 9.48828 22.3809L9.48828 8.27148L6.37109 8.27148L6.37109 22.3809C6.37109 22.9551 7.05469 23.3652 7.91602 23.3652ZM7.91602 11.7441C11.1562 11.7441 13.7676 9.10547 13.7676 5.85156C13.7676 2.625 11.1289 0 7.91602 0C4.67578 0 2.02344 2.65234 2.02344 5.85156C2.02344 9.13281 4.67578 11.7441 7.91602 11.7441Z" fill="black" fill-opacity="0.85"/>
 </g>
</svg>
