<?xml version="1.0" encoding="UTF-8"?>
<!--Generator: Apple Native CoreSVG 326-->
<!DOCTYPE svg
PUBLIC "-//W3C//DTD SVG 1.1//EN"
       "http://www.w3.org/Graphics/SVG/1.1/DTD/svg11.dtd">
<svg version="1.1" xmlns="http://www.w3.org/2000/svg" xmlns:xlink="http://www.w3.org/1999/xlink" viewBox="0 0 28.2461 27.9043">
 <g>
  <rect height="27.9043" opacity="0" width="28.2461" x="0" y="0"/>
  <path d="M13.9453 27.8906C21.6426 27.8906 27.8906 21.6426 27.8906 13.9453C27.8906 6.24805 21.6426 0 13.9453 0C6.24805 0 0 6.24805 0 13.9453C0 21.6426 6.24805 27.8906 13.9453 27.8906ZM13.9453 25.5664C7.51953 25.5664 2.32422 20.3711 2.32422 13.9453C2.32422 7.51953 7.51953 2.32422 13.9453 2.32422C20.3711 2.32422 25.5664 7.51953 25.5664 13.9453C25.5664 20.3711 20.3711 25.5664 13.9453 25.5664Z" fill="black" fill-opacity="0.85"/>
  <path d="M9.93945 20.8633L17.9238 20.8633C19.3594 20.8633 20.125 20.125 20.125 18.6895L20.125 11.8262L7.73828 11.8262L7.73828 18.6895C7.73828 20.1387 8.50391 20.8633 9.93945 20.8633ZM11.5254 14.4512C11.2246 14.4512 11.0059 14.2461 11.0059 13.9316L11.0059 13.6992C11.0059 13.3711 11.2246 13.1797 11.5254 13.1797L16.3379 13.1797C16.6523 13.1797 16.8574 13.3711 16.8574 13.6992L16.8574 13.9316C16.8574 14.2461 16.6523 14.4512 16.3379 14.4512ZM7.88867 10.7188L19.9746 10.7188C20.8086 10.7188 21.2188 10.2402 21.2188 9.43359L21.2188 8.76367C21.2188 7.94336 20.8086 7.45117 19.9746 7.45117L7.88867 7.45117C7.12305 7.45117 6.6582 7.94336 6.6582 8.76367L6.6582 9.43359C6.6582 10.2402 7.06836 10.7188 7.88867 10.7188Z" fill="black" fill-opacity="0.85"/>
 </g>
</svg>
