<?xml version="1.0" encoding="UTF-8"?>
<!--Generator: Apple Native CoreSVG 326-->
<!DOCTYPE svg
PUBLIC "-//W3C//DTD SVG 1.1//EN"
       "http://www.w3.org/Graphics/SVG/1.1/DTD/svg11.dtd">
<svg version="1.1" xmlns="http://www.w3.org/2000/svg" xmlns:xlink="http://www.w3.org/1999/xlink" viewBox="0 0 25.5254 25.1699">
 <g>
  <rect height="25.1699" opacity="0" width="25.5254" x="0" y="0"/>
  <path d="M4.29297 25.1699L20.877 25.1699C23.748 25.1699 25.1699 23.7617 25.1699 20.9453L25.1699 4.23828C25.1699 1.42188 23.748 0 20.877 0L4.29297 0C1.43555 0 0 1.42188 0 4.23828L0 20.9453C0 23.7617 1.43555 25.1699 4.29297 25.1699ZM4.32031 22.9688C2.95312 22.9688 2.20117 22.2441 2.20117 20.8223L2.20117 4.36133C2.20117 2.93945 2.95312 2.20117 4.32031 2.20117L20.8496 2.20117C22.2031 2.20117 22.9688 2.93945 22.9688 4.36133L22.9688 20.8223C22.9688 22.2441 22.2031 22.9688 20.8496 22.9688Z" fill="black" fill-opacity="0.85"/>
  <path d="M12.6055 5.6875C12.332 5.6875 12.0859 5.76953 11.8125 6.04297L7.31445 10.3906C7.0957 10.5957 6.98633 10.8145 6.98633 11.1152C6.98633 11.6621 7.39648 12.0723 7.9707 12.0723C8.23047 12.0723 8.53125 11.9629 8.72266 11.7441L10.8008 9.51562L11.6074 8.68164L11.5254 10.7188L11.5254 18.416C11.5254 18.9902 12.0176 19.4688 12.6055 19.4688C13.1934 19.4688 13.6992 18.9902 13.6992 18.416L13.6992 10.7188L13.6035 8.68164L14.4102 9.51562L16.4883 11.7441C16.6797 11.9629 16.9668 12.0723 17.2266 12.0723C17.8008 12.0723 18.2246 11.6621 18.2246 11.1152C18.2246 10.8145 18.1152 10.5957 17.9102 10.3906L13.3984 6.04297C13.125 5.76953 12.8926 5.6875 12.6055 5.6875Z" fill="black" fill-opacity="0.85"/>
 </g>
</svg>
