<?xml version="1.0" encoding="UTF-8"?>
<!--Generator: Apple Native CoreSVG 326-->
<!DOCTYPE svg
PUBLIC "-//W3C//DTD SVG 1.1//EN"
       "http://www.w3.org/Graphics/SVG/1.1/DTD/svg11.dtd">
<svg version="1.1" xmlns="http://www.w3.org/2000/svg" xmlns:xlink="http://www.w3.org/1999/xlink" viewBox="0 0 28.2461 27.9043">
 <g>
  <rect height="27.9043" opacity="0" width="28.2461" x="0" y="0"/>
  <path d="M13.9453 27.8906C21.6426 27.8906 27.8906 21.6289 27.8906 13.9453C27.8906 6.24805 21.6426 0 13.9453 0C6.26172 0 0 6.24805 0 13.9453C0 21.6289 6.26172 27.8906 13.9453 27.8906Z" fill="black" fill-opacity="0.85"/>
  <path d="M22.709 13.9453C22.709 14.2461 22.5859 14.4785 22.3125 14.7656L18.2383 18.8535C18.0605 19.0449 17.8008 19.1406 17.5 19.1406C16.9258 19.1406 16.4883 18.7031 16.4883 18.1152C16.4883 17.8008 16.6113 17.5547 16.7891 17.3633L17.8555 16.3105L19.5508 14.8887L16.5703 15.0117L11.293 15.0117L8.3125 14.8887L10.0215 16.3105L11.0879 17.3633C11.2656 17.5547 11.3887 17.8008 11.3887 18.1152C11.3887 18.7031 10.9512 19.1406 10.377 19.1406C10.0762 19.1406 9.81641 19.0449 9.63867 18.8535L5.56445 14.7656C5.29102 14.4785 5.16797 14.2461 5.16797 13.9453C5.16797 13.6309 5.29102 13.3984 5.56445 13.1113L9.63867 9.03711C9.81641 8.8457 10.0762 8.73633 10.377 8.73633C10.9512 8.73633 11.3887 9.20117 11.3887 9.77539C11.3887 10.0898 11.2793 10.3359 11.0879 10.541L10.0215 11.5801L8.29883 13.002L11.293 12.8926L16.5703 12.8926L19.5645 13.002L17.8555 11.5801L16.7891 10.541C16.5977 10.3359 16.4883 10.0898 16.4883 9.77539C16.4883 9.20117 16.9258 8.73633 17.5 8.73633C17.8008 8.73633 18.0605 8.8457 18.2383 9.03711L22.3125 13.1113C22.5859 13.3984 22.709 13.6309 22.709 13.9453Z" fill="white"/>
 </g>
</svg>
