<?xml version="1.0" encoding="UTF-8"?>
<!--Generator: Apple Native CoreSVG 326-->
<!DOCTYPE svg
PUBLIC "-//W3C//DTD SVG 1.1//EN"
       "http://www.w3.org/Graphics/SVG/1.1/DTD/svg11.dtd">
<svg version="1.1" xmlns="http://www.w3.org/2000/svg" xmlns:xlink="http://www.w3.org/1999/xlink" viewBox="0 0 28.1777 27.7129">
 <g>
  <rect height="27.7129" opacity="0" width="28.1777" x="0" y="0"/>
  <path d="M13.918 2.35156C14.5605 2.35156 15.0938 1.81836 15.0938 1.17578C15.0938 0.533203 14.5605 0 13.918 0C13.2754 0 12.7422 0.533203 12.7422 1.17578C12.7422 1.81836 13.2754 2.35156 13.918 2.35156ZM17.8281 2.99414C18.4707 2.99414 19.0039 2.46094 19.0039 1.81836C19.0039 1.17578 18.4707 0.642578 17.8281 0.642578C17.1855 0.642578 16.6523 1.17578 16.6523 1.81836C16.6523 2.46094 17.1855 2.99414 17.8281 2.99414ZM21.3828 4.78516C22.0254 4.78516 22.5586 4.25195 22.5586 3.60938C22.5586 2.9668 22.0254 2.43359 21.3828 2.43359C20.7402 2.43359 20.207 2.9668 20.207 3.60938C20.207 4.25195 20.7402 4.78516 21.3828 4.78516ZM24.1855 7.60156C24.8281 7.60156 25.3613 7.06836 25.3613 6.42578C25.3613 5.7832 24.8281 5.25 24.1855 5.25C23.543 5.25 23.0098 5.7832 23.0098 6.42578C23.0098 7.06836 23.543 7.60156 24.1855 7.60156ZM25.9766 11.1016C26.6191 11.1016 27.1523 10.5684 27.1523 9.92578C27.1523 9.2832 26.6191 8.75 25.9766 8.75C25.334 8.75 24.8008 9.2832 24.8008 9.92578C24.8008 10.5684 25.334 11.1016 25.9766 11.1016ZM26.6465 15.0254C27.2891 15.0254 27.8223 14.4922 27.8223 13.8496C27.8223 13.207 27.2891 12.6738 26.6465 12.6738C26.0039 12.6738 25.4707 13.207 25.4707 13.8496C25.4707 14.4922 26.0039 15.0254 26.6465 15.0254ZM25.9766 18.9492C26.6191 18.9492 27.1523 18.416 27.1523 17.7734C27.1523 17.1309 26.6191 16.5977 25.9766 16.5977C25.334 16.5977 24.8008 17.1309 24.8008 17.7734C24.8008 18.416 25.334 18.9492 25.9766 18.9492ZM24.1855 22.4629C24.8281 22.4629 25.3613 21.9297 25.3613 21.2871C25.3613 20.6445 24.8281 20.1113 24.1855 20.1113C23.543 20.1113 23.0098 20.6445 23.0098 21.2871C23.0098 21.9297 23.543 22.4629 24.1855 22.4629ZM21.3828 25.2656C22.0254 25.2656 22.5586 24.7324 22.5586 24.0898C22.5586 23.4473 22.0254 22.9141 21.3828 22.9141C20.7402 22.9141 20.207 23.4473 20.207 24.0898C20.207 24.7324 20.7402 25.2656 21.3828 25.2656ZM17.8281 27.0566C18.4707 27.0566 19.0039 26.5234 19.0039 25.8809C19.0039 25.2383 18.4707 24.7051 17.8281 24.7051C17.1855 24.7051 16.6523 25.2383 16.6523 25.8809C16.6523 26.5234 17.1855 27.0566 17.8281 27.0566ZM13.918 27.6992C14.5605 27.6992 15.0938 27.166 15.0938 26.5234C15.0938 25.8809 14.5605 25.3477 13.918 25.3477C13.2754 25.3477 12.7422 25.8809 12.7422 26.5234C12.7422 27.166 13.2754 27.6992 13.918 27.6992ZM10.0078 27.0566C10.6504 27.0566 11.1836 26.5234 11.1836 25.8809C11.1836 25.2383 10.6504 24.7051 10.0078 24.7051C9.35156 24.7051 8.83203 25.2383 8.83203 25.8809C8.83203 26.5234 9.35156 27.0566 10.0078 27.0566ZM6.45312 25.2656C7.0957 25.2656 7.62891 24.7324 7.62891 24.0898C7.62891 23.4473 7.0957 22.9141 6.45312 22.9141C5.79688 22.9141 5.27734 23.4473 5.27734 24.0898C5.27734 24.7324 5.79688 25.2656 6.45312 25.2656ZM3.63672 22.4629C4.2793 22.4629 4.8125 21.9297 4.8125 21.2871C4.8125 20.6445 4.2793 20.1113 3.63672 20.1113C2.99414 20.1113 2.46094 20.6445 2.46094 21.2871C2.46094 21.9297 2.99414 22.4629 3.63672 22.4629ZM1.8457 18.9492C2.48828 18.9492 3.02148 18.416 3.02148 17.7734C3.02148 17.1309 2.48828 16.5977 1.8457 16.5977C1.20312 16.5977 0.669922 17.1309 0.669922 17.7734C0.669922 18.416 1.20312 18.9492 1.8457 18.9492ZM1.17578 15.0254C1.81836 15.0254 2.35156 14.4922 2.35156 13.8496C2.35156 13.207 1.81836 12.6738 1.17578 12.6738C0.533203 12.6738 0 13.207 0 13.8496C0 14.4922 0.533203 15.0254 1.17578 15.0254ZM1.8457 11.1016C2.48828 11.1016 3.02148 10.5684 3.02148 9.92578C3.02148 9.2832 2.48828 8.75 1.8457 8.75C1.20312 8.75 0.669922 9.2832 0.669922 9.92578C0.669922 10.5684 1.20312 11.1016 1.8457 11.1016ZM3.63672 7.60156C4.2793 7.60156 4.8125 7.06836 4.8125 6.42578C4.8125 5.7832 4.2793 5.25 3.63672 5.25C2.99414 5.25 2.46094 5.7832 2.46094 6.42578C2.46094 7.06836 2.99414 7.60156 3.63672 7.60156ZM6.45312 4.78516C7.0957 4.78516 7.62891 4.25195 7.62891 3.60938C7.62891 2.9668 7.0957 2.43359 6.45312 2.43359C5.79688 2.43359 5.27734 2.9668 5.27734 3.60938C5.27734 4.25195 5.79688 4.78516 6.45312 4.78516ZM10.0078 2.99414C10.6504 2.99414 11.1836 2.46094 11.1836 1.81836C11.1836 1.17578 10.6504 0.642578 10.0078 0.642578C9.35156 0.642578 8.83203 1.17578 8.83203 1.81836C8.83203 2.46094 9.35156 2.99414 10.0078 2.99414Z" fill="black" fill-opacity="0.85"/>
  <path d="M13.9316 6.95898C13.6445 6.95898 13.4121 7.04102 13.1387 7.31445L8.62695 11.6621C8.42188 11.8672 8.29883 12.0859 8.29883 12.3867C8.29883 12.9336 8.72266 13.3438 9.2832 13.3438C9.55664 13.3438 9.84375 13.2344 10.0352 13.0156L12.127 10.7871L12.9199 9.95312L12.8379 11.9902L12.8379 19.6875C12.8379 20.2617 13.3438 20.7402 13.9316 20.7402C14.5195 20.7402 15.0117 20.2617 15.0117 19.6875L15.0117 11.9902L14.9297 9.95312L15.7227 10.7871L17.8145 13.0156C18.0059 13.2344 18.2793 13.3438 18.5527 13.3438C19.1133 13.3438 19.5508 12.9336 19.5508 12.3867C19.5508 12.0859 19.4277 11.8672 19.2227 11.6621L14.7246 7.31445C14.4375 7.04102 14.2051 6.95898 13.9316 6.95898Z" fill="black" fill-opacity="0.85"/>
 </g>
</svg>
