<?xml version="1.0" encoding="UTF-8"?>
<!--Generator: Apple Native CoreSVG 326-->
<!DOCTYPE svg
PUBLIC "-//W3C//DTD SVG 1.1//EN"
       "http://www.w3.org/Graphics/SVG/1.1/DTD/svg11.dtd">
<svg version="1.1" xmlns="http://www.w3.org/2000/svg" xmlns:xlink="http://www.w3.org/1999/xlink" viewBox="0 0 21.082 28.3418">
 <g>
  <rect height="28.3418" opacity="0" width="21.082" x="0" y="0"/>
  <path d="M20.7266 12.8926C20.7266 12.5645 20.6172 12.2773 20.3574 12.0039L11.2793 2.91211C11.0195 2.63867 10.7051 2.50195 10.3633 2.50195C10.0215 2.50195 9.70703 2.63867 9.44727 2.91211L0.382812 12.0039C0.123047 12.2773 0 12.5645 0 12.8926C0 13.5625 0.492188 14.082 1.17578 14.082C1.50391 14.082 1.83203 13.9727 2.03711 13.7539L5.1543 10.6914L10.0625 5.31836L9.2832 5.04492L9.14648 9.11914L9.14648 27.1387C9.14648 27.8496 9.65234 28.3418 10.3633 28.3418C11.0742 28.3418 11.5801 27.8496 11.5801 27.1387L11.5801 9.11914L11.4434 5.04492L10.6777 5.31836L15.5723 10.6914L18.6895 13.7539C18.9082 13.9727 19.2227 14.082 19.5508 14.082C20.2344 14.082 20.7266 13.5625 20.7266 12.8926ZM20.7266 1.28516C20.7266 0.574219 20.248 0.0546875 19.5508 0.0546875L1.20312 0.0546875C0.492188 0.0546875 0 0.574219 0 1.28516C0 1.99609 0.492188 2.50195 1.20312 2.50195L19.5508 2.50195C20.248 2.50195 20.7266 1.99609 20.7266 1.28516Z" fill="black" fill-opacity="0.85"/>
 </g>
</svg>
