<?xml version="1.0" encoding="UTF-8"?>
<!--Generator: Apple Native CoreSVG 326-->
<!DOCTYPE svg
PUBLIC "-//W3C//DTD SVG 1.1//EN"
       "http://www.w3.org/Graphics/SVG/1.1/DTD/svg11.dtd">
<svg version="1.1" xmlns="http://www.w3.org/2000/svg" xmlns:xlink="http://www.w3.org/1999/xlink" viewBox="0 0 30.9686 30.6695">
 <g>
  <rect height="30.6695" opacity="0" width="30.9686" x="0" y="0"/>
  <path d="M30.6122 18.0896L30.5165 8.23219C30.5165 7.8904 30.3662 7.53493 30.1474 7.31618C29.6415 6.81032 28.9306 6.82399 28.4384 7.31618C28.1923 7.56227 28.0829 7.84938 28.0829 8.16384L28.1513 12.2517L28.3974 15.615L26.2509 13.2908L13.3447 0.384539C12.8388-0.121321 12.1005-0.134993 11.6083 0.384539C11.0888 0.876726 11.1025 1.60134 11.6083 2.10719L24.5146 15.0271L26.8388 17.1599L23.4892 16.9275L19.4013 16.8591C19.0732 16.8591 18.7861 16.9549 18.54 17.2146C18.0478 17.7068 18.0341 18.4041 18.54 18.9236C18.7724 19.1287 19.1142 19.2791 19.4697 19.2791L29.3134 19.3884C30.0517 19.4158 30.6396 18.8416 30.6122 18.0896Z" fill="black" fill-opacity="0.85"/>
  <path d="M0.000916625 12.5662L0.110292 22.4099C0.110292 22.7654 0.260682 23.1072 0.46576 23.3259C0.985292 23.8455 1.68256 23.8318 2.17474 23.3259C2.42084 23.0799 2.53021 22.8064 2.53021 22.4783L2.46185 18.3767L2.22943 15.0271L4.36224 17.365L17.2822 30.2713C17.788 30.7771 18.499 30.7771 19.0048 30.2713C19.5244 29.7654 19.5107 29.0408 19.0048 28.5349L6.09857 15.6287L3.77435 13.4959L7.12396 13.7283L11.2255 13.7966C11.54 13.7966 11.8134 13.6873 12.0595 13.4412C12.5654 12.949 12.579 12.2381 12.0595 11.7322C11.8408 11.5134 11.499 11.3631 11.1572 11.3631L1.29974 11.2674C0.561463 11.24-0.0264271 11.7869 0.000916625 12.5662Z" fill="black" fill-opacity="0.85"/>
 </g>
</svg>
