<?xml version="1.0" encoding="UTF-8"?>
<!--Generator: Apple Native CoreSVG 326-->
<!DOCTYPE svg
PUBLIC "-//W3C//DTD SVG 1.1//EN"
       "http://www.w3.org/Graphics/SVG/1.1/DTD/svg11.dtd">
<svg version="1.1" xmlns="http://www.w3.org/2000/svg" xmlns:xlink="http://www.w3.org/1999/xlink" viewBox="0 0 25.8535 33.0723">
 <g>
  <rect height="33.0723" opacity="0" width="25.8535" x="0" y="0"/>
  <path d="M0 16.2832C0 16.9941 0.492188 17.5 1.20312 17.5L24.3086 17.5C25.0059 17.5 25.498 16.9941 25.498 16.2832C25.498 15.5723 25.0059 15.0527 24.3086 15.0527L1.20312 15.0527C0.492188 15.0527 0 15.5723 0 16.2832Z" fill="black" fill-opacity="0.85"/>
  <path d="M12.7559 13.6445C13.4668 13.6445 13.9727 13.1523 13.9727 12.4277L13.9727 6.6582L13.8906 3.82812L17.5137 7.69727C17.7461 7.95703 18.0605 8.03906 18.3887 8.03906C19.0723 8.03906 19.5781 7.51953 19.5781 6.84961C19.5781 6.50781 19.4414 6.2207 19.168 5.93359L13.6719 0.410156C13.4121 0.136719 13.084 0 12.7559 0C12.4141 0 12.0996 0.136719 11.8398 0.410156L6.34375 5.93359C6.07031 6.2207 5.93359 6.50781 5.93359 6.84961C5.93359 7.51953 6.43945 8.03906 7.12305 8.03906C7.45117 8.03906 7.76562 7.95703 7.99805 7.69727L11.6211 3.82812L11.5254 6.6582L11.5254 12.4277C11.5254 13.1523 12.0449 13.6445 12.7559 13.6445ZM12.7559 18.9082C12.0449 18.9082 11.5254 19.4004 11.5254 20.125L11.5254 25.9082L11.6211 28.7246L7.99805 24.8555C7.76562 24.6094 7.45117 24.5137 7.12305 24.5137C6.43945 24.5137 5.93359 25.0332 5.93359 25.7031C5.93359 26.0449 6.07031 26.3457 6.34375 26.6328L11.8398 32.1426C12.0996 32.416 12.4141 32.5664 12.7559 32.5664C13.084 32.5664 13.4121 32.416 13.6719 32.1426L19.168 26.6328C19.4414 26.3457 19.5781 26.0449 19.5781 25.7031C19.5781 25.0332 19.0723 24.5137 18.3887 24.5137C18.0605 24.5137 17.7461 24.6094 17.5137 24.8555L13.8906 28.7246L13.9727 25.9082L13.9727 20.125C13.9727 19.4004 13.4668 18.9082 12.7559 18.9082Z" fill="black" fill-opacity="0.85"/>
 </g>
</svg>
