<?xml version="1.0" encoding="UTF-8"?>
<!--Generator: Apple Native CoreSVG 326-->
<!DOCTYPE svg
PUBLIC "-//W3C//DTD SVG 1.1//EN"
       "http://www.w3.org/Graphics/SVG/1.1/DTD/svg11.dtd">
<svg version="1.1" xmlns="http://www.w3.org/2000/svg" xmlns:xlink="http://www.w3.org/1999/xlink" viewBox="0 0 26.0176 21.6152">
 <g>
  <rect height="21.6152" opacity="0" width="26.0176" x="0" y="0"/>
  <path d="M1.28516 21.6152C1.99609 21.6152 2.51562 21.123 2.51562 20.3984C2.51562 19.9199 2.47461 19.4688 2.47461 18.8262C2.47461 13.7539 4.23828 11.6895 9.25586 11.6895L18.6895 11.6895L22.0527 11.4844L17.4316 15.6953L14.3965 18.7852C14.1914 19.0039 14.0684 19.332 14.0684 19.6602C14.0684 20.3438 14.5879 20.8359 15.2715 20.8359C15.5859 20.8359 15.8867 20.7129 16.1602 20.4531L25.2383 11.3887C25.5254 11.1152 25.6621 10.8008 25.6621 10.459C25.6621 10.1309 25.5254 9.80273 25.2383 9.54297L16.1875 0.505859C15.8867 0.205078 15.5859 0.0957031 15.2715 0.0957031C14.5879 0.0957031 14.0684 0.587891 14.0684 1.27148C14.0684 1.59961 14.1777 1.91406 14.3965 2.13281L17.4316 5.22266L22.0391 9.43359L18.6895 9.24219L9.13281 9.24219C2.65234 9.24219 0 12.0859 0 18.7031C0 19.4961 0.0273438 20.1797 0.123047 20.5898C0.232422 21.1504 0.560547 21.6152 1.28516 21.6152Z" fill="black" fill-opacity="0.85"/>
 </g>
</svg>
