<?xml version="1.0" encoding="UTF-8"?>
<!--Generator: Apple Native CoreSVG 326-->
<!DOCTYPE svg
PUBLIC "-//W3C//DTD SVG 1.1//EN"
       "http://www.w3.org/Graphics/SVG/1.1/DTD/svg11.dtd">
<svg version="1.1" xmlns="http://www.w3.org/2000/svg" xmlns:xlink="http://www.w3.org/1999/xlink" viewBox="0 0 32.5938 25.1699">
 <g>
  <rect height="25.1699" opacity="0" width="32.5938" x="0" y="0"/>
  <path d="M4.29297 25.1699L27.9453 25.1699C30.8164 25.1699 32.2383 23.7617 32.2383 20.9453L32.2383 4.23828C32.2383 1.42188 30.8164 0 27.9453 0L4.29297 0C1.43555 0 0 1.42188 0 4.23828L0 20.9453C0 23.7617 1.43555 25.1699 4.29297 25.1699ZM4.32031 22.9688C2.95312 22.9688 2.20117 22.2441 2.20117 20.8223L2.20117 4.36133C2.20117 2.93945 2.95312 2.20117 4.32031 2.20117L27.918 2.20117C29.2715 2.20117 30.0371 2.93945 30.0371 4.36133L30.0371 20.8223C30.0371 22.2441 29.2715 22.9688 27.918 22.9688Z" fill="black" fill-opacity="0.85"/>
  <path d="M17.8008 4.68945C17.2266 4.68945 16.8301 5.14062 16.8301 5.74219L16.8301 11.1289C16.8301 11.8809 17.2676 12.209 17.9238 12.209L23.3516 12.209C23.9395 12.209 24.3633 11.8125 24.3633 11.2383C24.3633 10.6641 23.9395 10.2812 23.3242 10.2812L21.5469 10.2812L19.8516 10.4453L21.6836 8.76367L24.5137 5.91992C24.6914 5.74219 24.8281 5.48242 24.8281 5.22266C24.8281 4.63477 24.418 4.23828 23.8574 4.23828C23.543 4.23828 23.2969 4.34766 23.1055 4.53906L20.2891 7.36914L18.5938 9.16016L18.7578 7.36914L18.7578 5.71484C18.7578 5.11328 18.375 4.68945 17.8008 4.68945ZM14.4375 20.4805C15.0117 20.4805 15.4082 20.043 15.4082 19.4414L15.4082 14.0547C15.4082 13.2891 14.9844 12.9746 14.3281 12.9746L8.88672 12.9746C8.29883 12.9746 7.88867 13.3711 7.88867 13.9453C7.88867 14.5195 8.29883 14.9023 8.91406 14.9023L10.6914 14.9023L12.3867 14.7383L10.5547 16.4199L7.73828 19.25C7.56055 19.4277 7.42383 19.7012 7.42383 19.9609C7.42383 20.5488 7.82031 20.9316 8.38086 20.9316C8.69531 20.9316 8.94141 20.8223 9.13281 20.6309L11.9492 17.8145L13.6445 16.0098L13.4805 17.8145L13.4805 19.4688C13.4805 20.0703 13.8633 20.4805 14.4375 20.4805Z" fill="black" fill-opacity="0.85"/>
 </g>
</svg>
