<?xml version="1.0" encoding="UTF-8"?>
<!--Generator: Apple Native CoreSVG 326-->
<!DOCTYPE svg
PUBLIC "-//W3C//DTD SVG 1.1//EN"
       "http://www.w3.org/Graphics/SVG/1.1/DTD/svg11.dtd">
<svg version="1.1" xmlns="http://www.w3.org/2000/svg" xmlns:xlink="http://www.w3.org/1999/xlink" viewBox="0 0 25.5254 25.1699">
 <g>
  <rect height="25.1699" opacity="0" width="25.5254" x="0" y="0"/>
  <path d="M4.29297 25.1699L20.877 25.1699C23.748 25.1699 25.1699 23.7617 25.1699 20.9453L25.1699 4.23828C25.1699 1.42188 23.748 0 20.877 0L4.29297 0C1.43555 0 0 1.42188 0 4.23828L0 20.9453C0 23.7617 1.43555 25.1699 4.29297 25.1699ZM4.32031 22.9688C2.95312 22.9688 2.20117 22.2441 2.20117 20.8223L2.20117 4.36133C2.20117 2.93945 2.95312 2.20117 4.32031 2.20117L20.8496 2.20117C22.2031 2.20117 22.9688 2.93945 22.9688 4.36133L22.9688 20.8223C22.9688 22.2441 22.2031 22.9688 20.8496 22.9688Z" fill="black" fill-opacity="0.85"/>
  <path d="M12.6191 4.07422C12.3184 4.07422 12.0723 4.21094 11.8125 4.4707L7.86133 8.4082C7.68359 8.58594 7.57422 8.83203 7.57422 9.11914C7.57422 9.67969 8.01172 10.1035 8.57227 10.1035C8.87305 10.1035 9.11914 9.99414 9.31055 9.80273L10.3223 8.76367L11.7031 7.10938L11.5938 10.0078L11.5938 15.1484L11.7031 18.0469L10.3223 16.3926L9.31055 15.3535C9.11914 15.1484 8.87305 15.0527 8.57227 15.0527C8.01172 15.0527 7.57422 15.4766 7.57422 16.0371C7.57422 16.3105 7.68359 16.5703 7.86133 16.748L11.8125 20.6855C12.0723 20.9453 12.3184 21.082 12.6191 21.082C12.9062 21.082 13.1387 20.9453 13.4121 20.6855L17.377 16.748C17.5547 16.5703 17.6504 16.3105 17.6504 16.0371C17.6504 15.4766 17.2266 15.0527 16.666 15.0527C16.3652 15.0527 16.1191 15.1621 15.9414 15.3535L14.916 16.3926L13.5352 18.0332L13.6445 15.1484L13.6445 10.0078L13.5352 7.12305L14.916 8.76367L15.9414 9.80273C16.1191 9.98047 16.3652 10.1035 16.666 10.1035C17.2266 10.1035 17.6504 9.67969 17.6504 9.11914C17.6504 8.83203 17.5547 8.58594 17.377 8.4082L13.4121 4.4707C13.1387 4.21094 12.9062 4.07422 12.6191 4.07422Z" fill="black" fill-opacity="0.85"/>
 </g>
</svg>
