<?xml version="1.0" encoding="UTF-8"?>
<!--Generator: Apple Native CoreSVG 326-->
<!DOCTYPE svg
PUBLIC "-//W3C//DTD SVG 1.1//EN"
       "http://www.w3.org/Graphics/SVG/1.1/DTD/svg11.dtd">
<svg version="1.1" xmlns="http://www.w3.org/2000/svg" xmlns:xlink="http://www.w3.org/1999/xlink" viewBox="0 0 37.4883 28.6152">
 <g>
  <rect height="28.6152" opacity="0" width="37.4883" x="0" y="0"/>
  <path d="M18.5664 28.6152C19.0996 28.6152 19.5781 28.1914 19.5781 27.6582L19.5781 0.970703C19.5781 0.4375 19.0996 0.0273438 18.5664 0.0273438C18.0332 0.0273438 17.5684 0.4375 17.5684 0.970703L17.5684 27.6582C17.5684 28.1914 18.0332 28.6152 18.5664 28.6152ZM1.95508 22.1621L13.5215 15.4629C14.3145 14.9844 14.3008 13.7266 13.5215 13.2754L1.95508 6.49414C1.09375 5.98828 0 6.53516 0 7.49219L0 21.2188C0 22.1621 1.08008 22.668 1.95508 22.1621ZM35.1914 22.1621C36.0664 22.668 37.1328 22.1621 37.1328 21.2188L37.1328 7.49219C37.1328 6.53516 36.0527 5.98828 35.1914 6.49414L23.625 13.2754C22.8457 13.7266 22.8184 14.9844 23.625 15.4629Z" fill="black" fill-opacity="0.85"/>
 </g>
</svg>
