<?xml version="1.0" encoding="UTF-8"?>
<!--Generator: Apple Native CoreSVG 326-->
<!DOCTYPE svg
PUBLIC "-//W3C//DTD SVG 1.1//EN"
       "http://www.w3.org/Graphics/SVG/1.1/DTD/svg11.dtd">
<svg version="1.1" xmlns="http://www.w3.org/2000/svg" xmlns:xlink="http://www.w3.org/1999/xlink" viewBox="0 0 30.3652 25.0879">
 <g>
  <rect height="25.0879" opacity="0" width="30.3652" x="0" y="0"/>
  <path d="M17.0078 25.0742C17.6777 25.0742 18.2246 24.8008 18.8809 24.1855L29.668 14C30.1875 13.5078 30.3652 12.9883 30.3652 12.5371C30.3652 12.0723 30.2012 11.5664 29.668 11.0605L18.8809 0.970703C18.1562 0.287109 17.7051 0 17.0352 0C16.0781 0 15.3945 0.751953 15.3945 1.66797L15.3945 6.83594L14.998 6.83594C5.16797 6.83594 0.888672 13.1387 0.888672 23.2422C0.888672 24.418 1.55859 25.0742 2.29688 25.0742C2.87109 25.0742 3.5 24.9375 3.97852 24.0625C6.35742 19.5918 9.70703 18.252 14.998 18.252L15.3945 18.252L15.3945 23.4746C15.3945 24.3906 16.0781 25.0742 17.0078 25.0742ZM17.7871 22.1348C17.6777 22.1348 17.5957 22.0527 17.5957 21.9297L17.5957 16.6387C17.5957 16.3242 17.459 16.1875 17.1445 16.1875L15.3125 16.1875C8.81836 16.1875 4.67578 18.4434 3.0625 21.875C3.02148 21.9707 2.99414 22.0117 2.92578 22.0117C2.87109 22.0117 2.83008 21.9707 2.83008 21.8613C3.10352 15.4082 5.91992 8.90039 15.3125 8.90039L17.1445 8.90039C17.459 8.90039 17.5957 8.76367 17.5957 8.44922L17.5957 3.02148C17.5957 2.91211 17.6777 2.83008 17.8008 2.83008C17.8828 2.83008 17.9648 2.88477 18.0332 2.93945L27.7676 12.2773C27.8633 12.373 27.9043 12.4551 27.9043 12.5371C27.9043 12.6191 27.877 12.6875 27.7676 12.7969L18.0195 22.0117C17.9512 22.0938 17.8691 22.1348 17.7871 22.1348Z" fill="black" fill-opacity="0.85"/>
 </g>
</svg>
