<?xml version="1.0" encoding="UTF-8"?>
<!--Generator: Apple Native CoreSVG 326-->
<!DOCTYPE svg
PUBLIC "-//W3C//DTD SVG 1.1//EN"
       "http://www.w3.org/Graphics/SVG/1.1/DTD/svg11.dtd">
<svg version="1.1" xmlns="http://www.w3.org/2000/svg" xmlns:xlink="http://www.w3.org/1999/xlink" viewBox="0 0 32.5938 25.1699">
 <g>
  <rect height="25.1699" opacity="0" width="32.5938" x="0" y="0"/>
  <path d="M4.29297 25.1699L27.9453 25.1699C30.8164 25.1699 32.2383 23.7617 32.2383 20.9453L32.2383 4.23828C32.2383 1.42188 30.8164 0 27.9453 0L4.29297 0C1.43555 0 0 1.42188 0 4.23828L0 20.9453C0 23.7617 1.43555 25.1699 4.29297 25.1699ZM4.32031 22.9688C2.95312 22.9688 2.20117 22.2441 2.20117 20.8223L2.20117 4.36133C2.20117 2.93945 2.95312 2.20117 4.32031 2.20117L27.918 2.20117C29.2715 2.20117 30.0371 2.93945 30.0371 4.36133L30.0371 20.8223C30.0371 22.2441 29.2715 22.9688 27.918 22.9688Z" fill="black" fill-opacity="0.85"/>
  <path d="M8.38086 11.7578C8.95508 11.7578 9.35156 11.334 9.35156 10.7324L9.35156 9.07812L9.17383 7.28711L10.8691 9.07812L13.6992 11.9082C13.8906 12.0996 14.123 12.209 14.4375 12.209C15.0117 12.209 15.4082 11.8125 15.4082 11.2246C15.4082 10.9648 15.2715 10.7051 15.0938 10.5273L12.2637 7.68359L10.4453 6.00195L12.127 6.16602L13.918 6.16602C14.5332 6.16602 14.9434 5.7832 14.9434 5.20898C14.9434 4.63477 14.5332 4.23828 13.9453 4.23828L8.50391 4.23828C7.84766 4.23828 7.42383 4.56641 7.42383 5.31836L7.42383 10.7051C7.42383 11.3066 7.80664 11.7578 8.38086 11.7578ZM23.8574 13.4258C23.2832 13.4258 22.9004 13.8359 22.9004 14.4375L22.9004 16.1055L23.0645 17.8965L21.3691 16.0918L18.5527 13.2754C18.3477 13.084 18.1152 12.9746 17.8008 12.9746C17.2402 12.9746 16.8301 13.3574 16.8301 13.959C16.8301 14.2188 16.9668 14.4785 17.1445 14.6562L19.9746 17.5L21.8066 19.1816L20.1113 19.0039L18.334 19.0039C17.7188 19.0039 17.2949 19.4004 17.2949 19.9746C17.2949 20.5488 17.7188 20.9316 18.3066 20.9316L23.7344 20.9316C24.3906 20.9316 24.8281 20.6172 24.8281 19.8652L24.8281 14.4648C24.8281 13.8633 24.4316 13.4258 23.8574 13.4258Z" fill="black" fill-opacity="0.85"/>
 </g>
</svg>
