<?xml version="1.0" encoding="UTF-8"?>
<!--Generator: Apple Native CoreSVG 326-->
<!DOCTYPE svg
PUBLIC "-//W3C//DTD SVG 1.1//EN"
       "http://www.w3.org/Graphics/SVG/1.1/DTD/svg11.dtd">
<svg version="1.1" xmlns="http://www.w3.org/2000/svg" xmlns:xlink="http://www.w3.org/1999/xlink" viewBox="0 0 28.2461 27.9043">
 <g>
  <rect height="27.9043" opacity="0" width="28.2461" x="0" y="0"/>
  <path d="M13.9453 27.8906C21.6426 27.8906 27.8906 21.6289 27.8906 13.9453C27.8906 6.24805 21.6426 0 13.9453 0C6.26172 0 0 6.24805 0 13.9453C0 21.6289 6.26172 27.8906 13.9453 27.8906Z" fill="black" fill-opacity="0.85"/>
  <path d="M18.3613 10.4453C18.9766 10.4453 19.4004 10.9102 19.4004 11.5801L19.4004 18.2246C19.4004 19.0586 18.9355 19.3867 18.2109 19.3867L11.5391 19.3867C10.8691 19.3867 10.4453 18.9766 10.4453 18.3477C10.4453 17.7324 10.8828 17.3223 11.5664 17.3223L14.1094 17.3223L16.2012 17.541L14 15.4766L8.81836 10.3223C8.61328 10.1172 8.47656 9.83008 8.47656 9.55664C8.47656 8.91406 8.90039 8.50391 9.51562 8.50391C9.85742 8.50391 10.1172 8.62695 10.3359 8.83203L15.4902 14L17.5273 16.1738L17.3223 13.9727L17.3223 11.5527C17.3223 10.8691 17.7324 10.4453 18.3613 10.4453Z" fill="white"/>
 </g>
</svg>
