<?xml version="1.0" encoding="UTF-8"?>
<!--Generator: Apple Native CoreSVG 326-->
<!DOCTYPE svg
PUBLIC "-//W3C//DTD SVG 1.1//EN"
       "http://www.w3.org/Graphics/SVG/1.1/DTD/svg11.dtd">
<svg version="1.1" xmlns="http://www.w3.org/2000/svg" xmlns:xlink="http://www.w3.org/1999/xlink" viewBox="0 0 28.2461 27.9043">
 <g>
  <rect height="27.9043" opacity="0" width="28.2461" x="0" y="0"/>
  <path d="M13.9453 27.8906C21.6426 27.8906 27.8906 21.6289 27.8906 13.9453C27.8906 6.24805 21.6426 0 13.9453 0C6.26172 0 0 6.24805 0 13.9453C0 21.6289 6.26172 27.8906 13.9453 27.8906Z" fill="black" fill-opacity="0.85"/>
  <path d="M5.81055 15.1484L5.87891 10.2129C5.87891 9.9668 5.98828 9.69336 6.15234 9.5293C6.52148 9.14648 7.05469 9.14648 7.4375 9.5293C7.61523 9.70703 7.71094 9.93945 7.69727 10.1855L7.66992 12.2773L7.64258 13.0293L8.08008 12.5508L14.5332 6.09766C14.916 5.72852 15.4629 5.72852 15.832 6.09766C16.2148 6.48047 16.2012 7.02734 15.832 7.39648L9.39258 13.8496L8.88672 14.3008L9.67969 14.2734L11.7578 14.2461C12.0039 14.2461 12.2227 14.3281 12.4141 14.5195C12.7832 14.8887 12.7832 15.4082 12.4004 15.7773C12.2363 15.9414 12.0039 16.0508 11.7441 16.0645L6.78125 16.1191C6.27539 16.1328 5.81055 15.6816 5.81055 15.1484ZM22.0801 12.7559L22.0254 17.7188C22.0117 17.9785 21.9297 18.2383 21.7656 18.3887C21.3828 18.7578 20.8496 18.7578 20.4805 18.3887C20.3027 18.1973 20.2207 17.9785 20.2207 17.7324L20.248 15.6406L20.3027 14.8613L19.8379 15.3672L13.3711 21.8066C13.002 22.1895 12.4551 22.1758 12.0859 21.8066C11.7031 21.4238 11.7031 20.8906 12.0723 20.5215L18.5391 14.0547L19.0312 13.6172L18.252 13.6445L16.1465 13.6855C15.9004 13.6855 15.6953 13.5898 15.5039 13.4121C15.1211 13.043 15.1211 12.5234 15.5176 12.127C15.6816 11.9766 15.9551 11.8535 16.1738 11.8535L21.1367 11.8125C21.6562 11.8125 22.0801 12.209 22.0801 12.7559Z" fill="white"/>
 </g>
</svg>
