<?xml version="1.0" encoding="UTF-8"?>
<!--Generator: Apple Native CoreSVG 326-->
<!DOCTYPE svg
PUBLIC "-//W3C//DTD SVG 1.1//EN"
       "http://www.w3.org/Graphics/SVG/1.1/DTD/svg11.dtd">
<svg version="1.1" xmlns="http://www.w3.org/2000/svg" xmlns:xlink="http://www.w3.org/1999/xlink" viewBox="0 0 28.2461 27.9043">
 <g>
  <rect height="27.9043" opacity="0" width="28.2461" x="0" y="0"/>
  <path d="M13.9453 27.8906C21.6426 27.8906 27.8906 21.6426 27.8906 13.9453C27.8906 6.24805 21.6426 0 13.9453 0C6.24805 0 0 6.24805 0 13.9453C0 21.6426 6.24805 27.8906 13.9453 27.8906ZM13.9453 25.5664C7.51953 25.5664 2.32422 20.3711 2.32422 13.9453C2.32422 7.51953 7.51953 2.32422 13.9453 2.32422C20.3711 2.32422 25.5664 7.51953 25.5664 13.9453C25.5664 20.3711 20.3711 25.5664 13.9453 25.5664Z" fill="black" fill-opacity="0.85"/>
  <path d="M5.57812 13.9453C5.57812 14.1777 5.67383 14.4648 5.96094 14.7383L11.8398 20.2891C12.1953 20.6035 12.4824 20.7539 12.8516 20.7539C13.3438 20.7539 13.7129 20.3984 13.7129 19.8926L13.7129 16.8711L19.9062 16.8711C20.9863 16.8711 21.6152 16.2695 21.6152 15.2168L21.6152 12.6875C21.6152 11.6211 20.9863 11.0195 19.9062 11.0195L13.7129 11.0195L13.7129 8.02539C13.7129 7.5332 13.3438 7.13672 12.8242 7.13672C12.4688 7.13672 12.2363 7.28711 11.8398 7.65625L5.96094 13.1387C5.67383 13.4121 5.57812 13.6992 5.57812 13.9453Z" fill="black" fill-opacity="0.85"/>
 </g>
</svg>
