<?xml version="1.0" encoding="UTF-8"?>
<!--Generator: Apple Native CoreSVG 326-->
<!DOCTYPE svg
PUBLIC "-//W3C//DTD SVG 1.1//EN"
       "http://www.w3.org/Graphics/SVG/1.1/DTD/svg11.dtd">
<svg version="1.1" xmlns="http://www.w3.org/2000/svg" xmlns:xlink="http://www.w3.org/1999/xlink" viewBox="0 0 26.0176 22.9824">
 <g>
  <rect height="22.9824" opacity="0" width="26.0176" x="0" y="0"/>
  <path d="M1.28516 0C0.560547 0 0.232422 0.464844 0.123047 1.01172C0.0273438 1.43555 0 2.10547 0 2.91211C0 9.5293 2.65234 12.373 9.13281 12.373L18.6895 12.373L22.0391 12.1816L17.4316 16.3789L14.3965 19.4688C14.1777 19.7012 14.0684 20.0156 14.0684 20.3438C14.0684 21.0273 14.5879 21.5195 15.2715 21.5195C15.5859 21.5195 15.8867 21.3965 16.1875 21.1094L25.2383 12.0723C25.5254 11.7988 25.6621 11.4844 25.6621 11.1426C25.6621 10.8145 25.5254 10.4863 25.2383 10.2266L16.1602 1.14844C15.8867 0.888672 15.5859 0.779297 15.2715 0.779297C14.5879 0.779297 14.0684 1.27148 14.0684 1.95508C14.0684 2.2832 14.1914 2.59766 14.3965 2.81641L17.4316 5.90625L22.0527 10.1309L18.6895 9.92578L9.25586 9.92578C4.23828 9.92578 2.47461 7.86133 2.47461 2.78906C2.47461 2.13281 2.51562 1.69531 2.51562 1.20312C2.51562 0.492188 1.99609 0 1.28516 0Z" fill="black" fill-opacity="0.85"/>
 </g>
</svg>
