<?xml version="1.0" encoding="UTF-8"?>
<!--Generator: Apple Native CoreSVG 326-->
<!DOCTYPE svg
PUBLIC "-//W3C//DTD SVG 1.1//EN"
       "http://www.w3.org/Graphics/SVG/1.1/DTD/svg11.dtd">
<svg version="1.1" xmlns="http://www.w3.org/2000/svg" xmlns:xlink="http://www.w3.org/1999/xlink" viewBox="0 0 28.3145 34.4395">
 <g>
  <rect height="34.4395" opacity="0" width="28.3145" x="0" y="0"/>
  <path d="M27.959 4.29297L27.959 23.2832C27.959 26.1406 26.5371 27.5762 23.7207 27.5762L21.3281 27.5762L21.3281 11.1152C21.3281 8.25781 19.9199 6.82227 17.0898 6.82227L6.63086 6.82227L6.63086 4.29297C6.63086 1.43555 8.03906 0 10.8691 0L23.7207 0C26.5371 0 27.959 1.44922 27.959 4.29297ZM13.959 2.78906C13.3574 2.78906 13.084 3.17188 13.084 3.5957L13.084 3.88281C13.084 4.29297 13.3574 4.68945 13.959 4.68945L20.6309 4.68945C21.2188 4.68945 21.5059 4.29297 21.5059 3.88281L21.5059 3.5957C21.5059 3.17188 21.2188 2.78906 20.6309 2.78906Z" fill="black" fill-opacity="0.85"/>
  <path d="M0 30.1055C0 32.9629 1.4082 34.3984 4.23828 34.3984L17.0898 34.3984C19.9199 34.3984 21.3281 32.9492 21.3281 30.1055L21.3281 11.1152C21.3281 8.25781 19.9199 6.82227 17.0898 6.82227L4.23828 6.82227C1.4082 6.82227 0 8.24414 0 11.1152ZM2.20117 30.0645L2.20117 11.1426C2.20117 9.78906 2.92578 9.02344 4.33398 9.02344L16.9805 9.02344C18.3887 9.02344 19.127 9.78906 19.127 11.1426L19.127 30.0645C19.127 31.4316 18.3887 32.1973 16.9805 32.1973L4.33398 32.1973C2.92578 32.1973 2.20117 31.4316 2.20117 30.0645Z" fill="black" fill-opacity="0.85"/>
  <path d="M3.58203 21.5469L7.42383 21.5469C7.91602 21.5469 8.02539 21.082 7.75195 20.7129L6.0293 18.293C5.74219 17.8965 5.26367 17.8691 4.96289 18.293L3.25391 20.7129C2.99414 21.082 3.10352 21.5469 3.58203 21.5469ZM10.7051 26.5918C12.127 26.5918 13.4395 26.0723 14.3555 25.3203C14.875 24.9238 14.8887 24.377 14.6289 24.0488C14.3965 23.748 13.918 23.625 13.3848 24.0078C12.6602 24.582 11.7441 24.9512 10.7051 24.9512C8.29883 24.9512 6.34375 22.9961 6.34375 20.5898L4.7168 20.5898C4.7168 23.9121 7.39648 26.5918 10.7051 26.5918ZM17.8281 19.6465L13.9727 19.6465C13.4941 19.6465 13.3848 20.1113 13.6445 20.4805L15.3672 22.9004C15.6543 23.2969 16.1465 23.3242 16.4473 22.9004L18.1426 20.4805C18.416 20.1113 18.293 19.6465 17.8281 19.6465ZM10.7051 14.6016C9.2832 14.6016 7.9707 15.1211 7.04102 15.873C6.52148 16.2695 6.50781 16.8164 6.76758 17.1445C7.01367 17.4453 7.47852 17.5684 8.01172 17.1855C8.73633 16.6113 9.65234 16.2422 10.7051 16.2422C13.0977 16.2422 15.0527 18.1973 15.0527 20.5898L16.6934 20.5898C16.6934 17.2812 14.0137 14.6016 10.7051 14.6016Z" fill="black" fill-opacity="0.85"/>
 </g>
</svg>
