<?xml version="1.0" encoding="UTF-8"?>
<!--Generator: Apple Native CoreSVG 326-->
<!DOCTYPE svg
PUBLIC "-//W3C//DTD SVG 1.1//EN"
       "http://www.w3.org/Graphics/SVG/1.1/DTD/svg11.dtd">
<svg version="1.1" xmlns="http://www.w3.org/2000/svg" xmlns:xlink="http://www.w3.org/1999/xlink" viewBox="0 0 37.1055 26.8105">
 <g>
  <rect height="26.8105" opacity="0" width="37.1055" x="0" y="0"/>
  <path d="M17.3086 9.78906C17.3086 10.1855 17.6094 10.5 18.0332 10.5547C24.4727 11.2793 25.416 12.1816 26.2773 18.8262C26.3457 19.2363 26.6602 19.5098 27.0293 19.5098C27.4121 19.5098 27.7266 19.2363 27.7949 18.8262C28.6562 12.1816 29.5859 11.2793 36.0254 10.5547C36.4629 10.5 36.75 10.1855 36.75 9.78906C36.75 9.39258 36.4629 9.07812 36.0254 9.02344C29.5996 8.29883 28.6562 7.38281 27.7949 0.751953C27.7266 0.355469 27.4258 0.0820312 27.0293 0.0820312C26.6465 0.0820312 26.3457 0.355469 26.2773 0.751953C25.3613 7.3418 24.4863 8.16211 18.0332 9.02344C17.6094 9.07812 17.3086 9.39258 17.3086 9.78906ZM16.0098 21.6973C16.0098 21.9707 16.2012 22.2031 16.502 22.2715C19.9883 22.9277 20.0566 22.8867 20.4531 26.168C20.5078 26.4824 20.7266 26.7148 21.0273 26.7148C21.3418 26.7148 21.5605 26.4961 21.6152 26.1816C22.0527 22.75 22.2031 22.75 25.5391 22.2715C25.8535 22.2168 26.0586 21.9844 26.0586 21.6973C26.0586 21.4238 25.8672 21.1777 25.5527 21.123C22.1621 20.4668 22.0664 20.5488 21.6152 17.1992C21.5605 16.8984 21.3281 16.6797 21.0273 16.6797C20.7266 16.6797 20.5078 16.9121 20.4531 17.2266C20.0566 20.5078 19.9746 20.5625 16.5566 21.123C16.2148 21.1777 16.0098 21.3965 16.0098 21.6973Z" fill="black" fill-opacity="0.85"/>
  <path d="M0 19.332C0 19.6328 0.150391 19.9883 0.382812 20.2207L6.41211 26.4004C6.67188 26.6738 6.98633 26.8105 7.32812 26.8105C7.65625 26.8105 7.9707 26.6738 8.23047 26.4004L14.2734 20.2207C14.5059 19.9883 14.6426 19.6328 14.6426 19.332C14.6426 18.6074 14.1504 18.1289 13.4395 18.1289C13.084 18.1289 12.8105 18.2383 12.6055 18.457L10.623 20.5488L8.4082 23.0918L8.54492 19.9336L8.54492 6.87695L8.4082 3.71875L10.623 6.26172L12.6055 8.35352C12.8105 8.57227 13.084 8.68164 13.4395 8.68164C14.1504 8.68164 14.6426 8.20312 14.6426 7.47852C14.6426 7.17773 14.5059 6.82227 14.2734 6.58984L8.23047 0.410156C7.9707 0.136719 7.65625 0 7.32812 0C6.98633 0 6.67188 0.136719 6.41211 0.410156L0.382812 6.58984C0.150391 6.82227 0 7.17773 0 7.47852C0 8.20312 0.492188 8.68164 1.20312 8.68164C1.55859 8.68164 1.8457 8.55859 2.03711 8.35352L4.0332 6.26172L6.23438 3.71875L6.09766 6.87695L6.09766 19.9336L6.23438 23.0918L4.0332 20.5488L2.03711 18.457C1.8457 18.252 1.55859 18.1289 1.20312 18.1289C0.492188 18.1289 0 18.6074 0 19.332Z" fill="black" fill-opacity="0.85"/>
 </g>
</svg>
