<?xml version="1.0" encoding="UTF-8"?>
<!--Generator: Apple Native CoreSVG 326-->
<!DOCTYPE svg
PUBLIC "-//W3C//DTD SVG 1.1//EN"
       "http://www.w3.org/Graphics/SVG/1.1/DTD/svg11.dtd">
<svg version="1.1" xmlns="http://www.w3.org/2000/svg" xmlns:xlink="http://www.w3.org/1999/xlink" viewBox="0 0 25.7441 20.7402">
 <g>
  <rect height="20.7402" opacity="0" width="25.7441" x="0" y="0"/>
  <path d="M0 10.3633C0 10.7051 0.150391 11.0195 0.423828 11.2793L9.50195 20.3438C9.77539 20.6035 10.0625 20.7266 10.3906 20.7266C11.0605 20.7266 11.5938 20.2344 11.5938 19.5508C11.5938 19.2227 11.4707 18.8945 11.252 18.6895L8.18945 15.5723L2.77539 10.6367L2.48828 11.3066L6.89062 11.5801L24.1855 11.5801C24.8965 11.5801 25.3887 11.0742 25.3887 10.3633C25.3887 9.65234 24.8965 9.14648 24.1855 9.14648L6.89062 9.14648L2.48828 9.41992L2.77539 10.1035L8.18945 5.1543L11.252 2.03711C11.4707 1.81836 11.5938 1.50391 11.5938 1.17578C11.5938 0.492188 11.0605 0 10.3906 0C10.0625 0 9.77539 0.109375 9.47461 0.410156L0.423828 9.44727C0.150391 9.70703 0 10.0215 0 10.3633Z" fill="black" fill-opacity="0.85"/>
 </g>
</svg>
