<?xml version="1.0" encoding="UTF-8"?>
<!--Generator: Apple Native CoreSVG 326-->
<!DOCTYPE svg
PUBLIC "-//W3C//DTD SVG 1.1//EN"
       "http://www.w3.org/Graphics/SVG/1.1/DTD/svg11.dtd">
<svg version="1.1" xmlns="http://www.w3.org/2000/svg" xmlns:xlink="http://www.w3.org/1999/xlink" viewBox="0 0 28.2461 27.9043">
 <g>
  <rect height="27.9043" opacity="0" width="28.2461" x="0" y="0"/>
  <path d="M13.9453 27.8906C21.6426 27.8906 27.8906 21.6289 27.8906 13.9453C27.8906 6.24805 21.6426 0 13.9453 0C6.26172 0 0 6.24805 0 13.9453C0 21.6289 6.26172 27.8906 13.9453 27.8906Z" fill="black" fill-opacity="0.85"/>
  <path d="M22.0664 15.1484C22.0664 15.6816 21.6152 16.1328 21.1094 16.1191L16.1465 16.0645C15.8867 16.0508 15.6406 15.9414 15.4902 15.7773C15.1074 15.4082 15.1074 14.8887 15.4766 14.5195C15.6543 14.3281 15.873 14.2461 16.1328 14.2461L18.2109 14.2734L19.0039 14.3008L18.498 13.8496L12.0449 7.39648C11.6758 7.02734 11.6758 6.48047 12.0449 6.09766C12.4141 5.72852 12.9746 5.72852 13.3438 6.09766L19.8105 12.5508L20.248 13.0293L20.207 12.2773L20.1797 10.1855C20.166 9.93945 20.2754 9.70703 20.4531 9.5293C20.8359 9.14648 21.3691 9.14648 21.7383 9.5293C21.9023 9.69336 22.0117 9.9668 22.0117 10.2129ZM5.79688 12.7559C5.79688 12.209 6.23438 11.8125 6.75391 11.8125L11.7168 11.8535C11.9355 11.8535 12.209 11.9766 12.373 12.127C12.7559 12.5234 12.7559 13.043 12.3867 13.4121C12.1953 13.5898 11.9766 13.6855 11.7305 13.6855L9.63867 13.6445L8.8457 13.6172L9.35156 14.0547L15.8047 20.5215C16.1875 20.8906 16.1875 21.4238 15.8047 21.8066C15.4219 22.1758 14.8887 22.1895 14.5195 21.8066L8.05273 15.3672L7.58789 14.8613L7.62891 15.6406L7.66992 17.7324C7.65625 17.9785 7.58789 18.1973 7.41016 18.3887C7.04102 18.7578 6.49414 18.7578 6.11133 18.3887C5.96094 18.2383 5.86523 17.9785 5.85156 17.7188Z" fill="white"/>
 </g>
</svg>
