<?xml version="1.0" encoding="UTF-8"?>
<!--Generator: Apple Native CoreSVG 326-->
<!DOCTYPE svg
PUBLIC "-//W3C//DTD SVG 1.1//EN"
       "http://www.w3.org/Graphics/SVG/1.1/DTD/svg11.dtd">
<svg version="1.1" xmlns="http://www.w3.org/2000/svg" xmlns:xlink="http://www.w3.org/1999/xlink" viewBox="0 0 20.5488 20.2207">
 <g>
  <rect height="20.2207" opacity="0" width="20.5488" x="0" y="0"/>
  <path d="M20.1934 15.1211L20.1797 1.36719C20.1797 0.587891 19.6738 0.0410156 18.8535 0.0410156L5.09961 0.0410156C4.33398 0.0410156 3.81445 0.628906 3.81445 1.28516C3.81445 1.94141 4.40234 2.50195 5.04492 2.50195L9.80273 2.50195L16.4746 2.2832L13.9316 4.51172L0.382812 18.0879C0.136719 18.334 0 18.6484 0 18.9492C0 19.6055 0.587891 20.2207 1.27148 20.2207C1.58594 20.2207 1.88672 20.1113 2.13281 19.8516L15.709 6.28906L17.9648 3.73242L17.7188 10.1172L17.7188 15.1758C17.7188 15.8184 18.2793 16.4199 18.9492 16.4199C19.6055 16.4199 20.1934 15.8594 20.1934 15.1211Z" fill="black" fill-opacity="0.85"/>
 </g>
</svg>
