<?xml version="1.0" encoding="UTF-8"?>
<!--Generator: Apple Native CoreSVG 326-->
<!DOCTYPE svg
PUBLIC "-//W3C//DTD SVG 1.1//EN"
       "http://www.w3.org/Graphics/SVG/1.1/DTD/svg11.dtd">
<svg version="1.1" xmlns="http://www.w3.org/2000/svg" xmlns:xlink="http://www.w3.org/1999/xlink" viewBox="0 0 25.5254 25.498">
 <g>
  <rect height="25.498" opacity="0" width="25.5254" x="0" y="0"/>
  <path d="M4.29297 25.1699L20.877 25.1699C23.748 25.1699 25.1699 23.748 25.1699 20.9316L25.1699 4.22461C25.1699 1.4082 23.748 0 20.877 0L4.29297 0C1.43555 0 0 1.4082 0 4.22461L0 20.9316C0 23.748 1.43555 25.1699 4.29297 25.1699ZM4.32031 22.9688C2.95312 22.9688 2.20117 22.2305 2.20117 20.8086L2.20117 4.34766C2.20117 2.92578 2.95312 2.20117 4.32031 2.20117L20.8496 2.20117C22.2031 2.20117 22.9688 2.92578 22.9688 4.34766L22.9688 20.8086C22.9688 22.2305 22.2031 22.9688 20.8496 22.9688Z" fill="black" fill-opacity="0.85"/>
  <path d="M5.52344 14.2324C5.52344 17.5273 7.90234 19.5645 11.0879 19.5645C11.252 19.5645 12.8926 19.5645 12.9609 19.5645C13.5762 19.5645 14.0273 19.2227 14.0273 18.5938C14.0273 17.9648 13.5762 17.6094 12.9883 17.6094C12.9336 17.6094 11.252 17.6094 11.0879 17.6094C9.02344 17.6094 7.5332 16.2832 7.5332 14.123C7.5332 12.0176 9.06445 10.8691 11.0742 10.8691L15.1621 10.8691L16.7754 10.8145L15.9824 11.4023L14.2734 13.043C14.0684 13.2207 13.9727 13.4941 13.9727 13.7539C13.9727 14.3145 14.3965 14.752 14.9434 14.752C15.2305 14.752 15.4492 14.6562 15.6406 14.4648L19.291 10.7324C19.5234 10.5 19.6602 10.2266 19.6602 9.91211C19.6602 9.58398 19.5234 9.29688 19.291 9.06445L15.6543 5.38672C15.4629 5.18164 15.2441 5.08594 14.957 5.08594C14.3965 5.08594 13.9727 5.50977 13.9727 6.08398C13.9727 6.35742 14.0957 6.61719 14.2871 6.78125L15.6953 8.14844L16.7754 9.00977L15.1621 8.95508L11.0742 8.95508C7.88867 8.95508 5.52344 10.9512 5.52344 14.2324Z" fill="black" fill-opacity="0.85"/>
 </g>
</svg>
