<?xml version="1.0" encoding="UTF-8"?>
<!--Generator: Apple Native CoreSVG 326-->
<!DOCTYPE svg
PUBLIC "-//W3C//DTD SVG 1.1//EN"
       "http://www.w3.org/Graphics/SVG/1.1/DTD/svg11.dtd">
<svg version="1.1" xmlns="http://www.w3.org/2000/svg" xmlns:xlink="http://www.w3.org/1999/xlink" viewBox="0 0 28.2461 27.9043">
 <g>
  <rect height="27.9043" opacity="0" width="28.2461" x="0" y="0"/>
  <path d="M13.9453 27.9043C21.6426 27.9043 27.8906 21.6562 27.8906 13.959C27.8906 6.27539 21.6426 0.0136719 13.9453 0.0136719C6.26172 0.0136719 0 6.27539 0 13.959C0 21.6562 6.26172 27.9043 13.9453 27.9043Z" fill="black" fill-opacity="0.85"/>
  <path d="M13.9316 18.498C13.6719 18.498 13.4258 18.4023 13.2207 18.1699L8.46289 13.3027C8.28516 13.125 8.17578 12.8379 8.17578 12.6055C8.17578 12.0586 8.54492 11.6758 9.07812 11.6758C9.37891 11.6758 9.59766 11.7578 9.77539 11.9629L10.5684 12.8379L13.1387 15.7227L12.9746 13.125L12.9746 6.67188C12.9746 6.125 13.3574 5.71484 13.9316 5.71484C14.4648 5.71484 14.875 6.125 14.875 6.67188L14.875 13.125L14.7246 15.709L17.2539 12.8516L18.1152 11.9629C18.3066 11.7578 18.5527 11.6758 18.8262 11.6758C19.3457 11.6758 19.7148 12.0859 19.7148 12.5918C19.7148 12.8652 19.6465 13.1113 19.4141 13.3301L14.6426 18.1699C14.4375 18.375 14.1914 18.498 13.9316 18.498ZM8.6543 21.4785C8.10742 21.4785 7.71094 21.0684 7.71094 20.5078C7.71094 19.9746 8.10742 19.5781 8.6543 19.5781L19.25 19.5781C19.7969 19.5781 20.1797 19.9746 20.1797 20.5078C20.1797 21.0684 19.7969 21.4785 19.25 21.4785Z" fill="white"/>
 </g>
</svg>
