<?xml version="1.0" encoding="UTF-8"?>
<!--Generator: Apple Native CoreSVG 326-->
<!DOCTYPE svg
PUBLIC "-//W3C//DTD SVG 1.1//EN"
       "http://www.w3.org/Graphics/SVG/1.1/DTD/svg11.dtd">
<svg version="1.1" xmlns="http://www.w3.org/2000/svg" xmlns:xlink="http://www.w3.org/1999/xlink" viewBox="0 0 28.2461 27.9043">
 <g>
  <rect height="27.9043" opacity="0" width="28.2461" x="0" y="0"/>
  <path d="M13.9453 27.8906C21.6426 27.8906 27.8906 21.6426 27.8906 13.9453C27.8906 6.24805 21.6426 0 13.9453 0C6.24805 0 0 6.24805 0 13.9453C0 21.6426 6.24805 27.8906 13.9453 27.8906ZM13.9453 25.5664C7.51953 25.5664 2.32422 20.3711 2.32422 13.9453C2.32422 7.51953 7.51953 2.32422 13.9453 2.32422C20.3711 2.32422 25.5664 7.51953 25.5664 13.9453C25.5664 20.3711 20.3711 25.5664 13.9453 25.5664Z" fill="black" fill-opacity="0.85"/>
  <path d="M20.0293 14.5742C20.0293 11.2109 17.2676 8.57227 14.1914 8.57227C14.0684 8.57227 13.918 8.59961 13.8223 8.59961L14.793 7.61523C14.9297 7.46484 15.0254 7.23242 15.0254 7C15.0254 6.50781 14.6562 6.125 14.1641 6.125C13.918 6.125 13.6992 6.23438 13.5352 6.39844L10.9102 9.06445C10.5957 9.39258 10.582 10.0078 10.9102 10.3359L13.5625 12.9883C13.7129 13.125 13.9453 13.2344 14.1641 13.2344C14.6562 13.2344 15.0254 12.8652 15.0254 12.3867C15.0254 12.127 14.9297 11.9219 14.7656 11.7441L13.4395 10.4453C13.5762 10.418 13.7539 10.4043 13.9316 10.4043C16.2832 10.4043 18.1426 12.2773 18.1426 14.6152C18.1426 16.9668 16.2832 18.8398 13.9316 18.8398C11.5938 18.8398 9.7207 16.9531 9.7207 14.6152C9.7207 14.1094 9.29688 13.6855 8.77734 13.6855C8.27148 13.6855 7.83398 14.1094 7.83398 14.6152C7.83398 17.9922 10.5547 20.7266 13.9316 20.7266C17.3086 20.7266 20.0293 17.9922 20.0293 14.5742Z" fill="black" fill-opacity="0.85"/>
 </g>
</svg>
