<?xml version="1.0" encoding="UTF-8"?>
<!--Generator: Apple Native CoreSVG 326-->
<!DOCTYPE svg
PUBLIC "-//W3C//DTD SVG 1.1//EN"
       "http://www.w3.org/Graphics/SVG/1.1/DTD/svg11.dtd">
<svg version="1.1" xmlns="http://www.w3.org/2000/svg" xmlns:xlink="http://www.w3.org/1999/xlink" viewBox="0 0 22.6543 21.752">
 <g>
  <rect height="21.752" opacity="0" width="22.6543" x="0" y="0"/>
  <path d="M1.99609 21.752C2.54297 21.752 2.98047 21.5195 3.55469 21.2324L21.123 12.7148C22.2852 12.1406 22.6543 11.6074 22.6543 10.8828C22.6543 10.1582 22.2852 9.63867 21.123 9.06445L3.55469 0.533203C2.9668 0.246094 2.5293 0.0136719 1.98242 0.0136719C0.970703 0.0136719 0.341797 0.779297 0.341797 1.96875L0.355469 19.7969C0.355469 20.9863 0.984375 21.752 1.99609 21.752ZM2.67969 19.1543C2.59766 19.1543 2.54297 19.0996 2.54297 18.9902L2.54297 2.77539C2.54297 2.66602 2.59766 2.61133 2.67969 2.61133C2.73438 2.61133 2.78906 2.63867 2.84375 2.67969L19.5918 10.7324C19.6602 10.7598 19.7148 10.8145 19.7148 10.8828C19.7148 10.9512 19.6602 11.0059 19.5918 11.0332L2.84375 19.0996C2.78906 19.127 2.73438 19.1543 2.67969 19.1543Z" fill="black" fill-opacity="0.85"/>
 </g>
</svg>
