<?xml version="1.0" encoding="UTF-8"?>
<!--Generator: Apple Native CoreSVG 326-->
<!DOCTYPE svg
PUBLIC "-//W3C//DTD SVG 1.1//EN"
       "http://www.w3.org/Graphics/SVG/1.1/DTD/svg11.dtd">
<svg version="1.1" xmlns="http://www.w3.org/2000/svg" xmlns:xlink="http://www.w3.org/1999/xlink" viewBox="0 0 28.2461 27.9043">
 <g>
  <rect height="27.9043" opacity="0" width="28.2461" x="0" y="0"/>
  <path d="M13.9453 27.8906C21.6426 27.8906 27.8906 21.6289 27.8906 13.9453C27.8906 6.24805 21.6426 0 13.9453 0C6.26172 0 0 6.24805 0 13.9453C0 21.6289 6.26172 27.8906 13.9453 27.8906Z" fill="black" fill-opacity="0.85"/>
  <path d="M7.72461 13.7676C7.16406 13.7676 6.71289 13.3164 6.71289 12.7559C6.71289 12.209 7.16406 11.7715 7.72461 11.7715L8.4082 11.7715L10.5684 11.9082L6.76758 8.27148C6.35742 7.84766 6.33008 7.17773 6.75391 6.76758C7.16406 6.34375 7.83398 6.34375 8.24414 6.78125L11.9219 10.5957L11.7852 8.36719L11.7852 7.68359C11.7852 7.12305 12.2227 6.68555 12.7695 6.68555C13.3301 6.68555 13.7812 7.12305 13.7812 7.68359L13.7812 12.5918C13.7812 13.4395 13.3438 13.7676 12.6055 13.7676ZM15.1211 21.1914C14.5605 21.1914 14.1094 20.7539 14.1094 20.1934L14.1094 15.2715C14.1094 14.4375 14.5469 14.1094 15.2852 14.1094L20.166 14.1094C20.7266 14.1094 21.1777 14.5469 21.1777 15.1211C21.1777 15.668 20.7266 16.1055 20.166 16.1055L19.4824 16.1055L17.3223 15.9688L21.123 19.6055C21.5332 20.0156 21.5605 20.6992 21.1367 21.1094C20.7266 21.5332 20.0566 21.5332 19.6465 21.0957L15.9688 17.2812L16.1055 19.5098L16.1055 20.1934C16.1055 20.7539 15.668 21.1914 15.1211 21.1914Z" fill="white"/>
 </g>
</svg>
