<?xml version="1.0" encoding="UTF-8"?>
<!--Generator: Apple Native CoreSVG 326-->
<!DOCTYPE svg
PUBLIC "-//W3C//DTD SVG 1.1//EN"
       "http://www.w3.org/Graphics/SVG/1.1/DTD/svg11.dtd">
<svg version="1.1" xmlns="http://www.w3.org/2000/svg" xmlns:xlink="http://www.w3.org/1999/xlink" viewBox="0 0 21.082 25.8262">
 <g>
  <rect height="25.8262" opacity="0" width="21.082" x="0" y="0"/>
  <path d="M10.3633 25.8262C11.0742 25.8262 11.5801 25.334 11.5801 24.623L11.5801 6.61719L11.4434 2.54297L10.6641 2.81641L15.5723 8.18945L18.6895 11.252C18.9082 11.4707 19.2227 11.5801 19.5508 11.5801C20.2344 11.5801 20.7266 11.0605 20.7266 10.3906C20.7266 10.0625 20.6172 9.77539 20.3574 9.50195L11.2793 0.410156C11.0195 0.136719 10.7051 0 10.3633 0C10.0215 0 9.70703 0.136719 9.44727 0.410156L0.382812 9.50195C0.123047 9.77539 0 10.0625 0 10.3906C0 11.0605 0.492188 11.5801 1.17578 11.5801C1.50391 11.5801 1.83203 11.4707 2.03711 11.252L5.1543 8.18945L10.0488 2.81641L9.2832 2.54297L9.14648 6.61719L9.14648 24.623C9.14648 25.334 9.65234 25.8262 10.3633 25.8262Z" fill="black" fill-opacity="0.85"/>
 </g>
</svg>
