<?xml version="1.0" encoding="UTF-8"?>
<!--Generator: Apple Native CoreSVG 326-->
<!DOCTYPE svg
PUBLIC "-//W3C//DTD SVG 1.1//EN"
       "http://www.w3.org/Graphics/SVG/1.1/DTD/svg11.dtd">
<svg version="1.1" xmlns="http://www.w3.org/2000/svg" xmlns:xlink="http://www.w3.org/1999/xlink" viewBox="0 0 23.3516 29.3262">
 <g>
  <rect height="29.3262" opacity="0" width="23.3516" x="0" y="0"/>
  <path d="M10.5137 10.0352C10.5137 11.7852 11.3477 12.6191 13.0977 12.6191L22.9961 12.6191L22.9961 25.0332C22.9961 27.877 21.5879 29.3125 18.7578 29.3125L4.23828 29.3125C1.4082 29.3125 0 27.8906 0 25.0332L0 4.29297C0 1.44922 1.42188 0 4.23828 0L10.5137 0ZM10.7598 15.3398L6.93164 18.8672C6.72656 19.0449 6.60352 19.2773 6.60352 19.5781C6.60352 20.0977 6.98633 20.4805 7.5332 20.4805C7.7793 20.4805 8.05273 20.3711 8.24414 20.1797L9.43359 18.9629L10.582 17.7871L10.5 19.9473L10.5 24.7871C10.5 25.3203 10.9512 25.7578 11.498 25.7578C12.0449 25.7578 12.5098 25.3203 12.5098 24.7871L12.5098 19.9473L12.4141 17.7871L13.5625 18.9629L14.752 20.1797C14.9434 20.3711 15.2031 20.4805 15.4629 20.4805C15.9961 20.4805 16.3926 20.0977 16.3926 19.5781C16.3926 19.2773 16.2695 19.0449 16.0645 18.8672L12.2363 15.3398C11.9629 15.0938 11.7441 14.998 11.498 14.998C11.252 14.998 11.0332 15.0938 10.7598 15.3398ZM14.1641 1.29883L21.6973 8.96875C22.3535 9.63867 22.75 10.1855 22.832 10.7461L13.1387 10.7461C12.6328 10.7461 12.3867 10.5 12.3867 10.0078L12.3867 0.150391C12.9609 0.246094 13.5215 0.642578 14.1641 1.29883Z" fill="black" fill-opacity="0.85"/>
 </g>
</svg>
