<?xml version="1.0" encoding="UTF-8"?>
<!--Generator: Apple Native CoreSVG 326-->
<!DOCTYPE svg
PUBLIC "-//W3C//DTD SVG 1.1//EN"
       "http://www.w3.org/Graphics/SVG/1.1/DTD/svg11.dtd">
<svg version="1.1" xmlns="http://www.w3.org/2000/svg" xmlns:xlink="http://www.w3.org/1999/xlink" viewBox="0 0 33.7185 27.9043">
 <g>
  <rect height="27.9043" opacity="0" width="33.7185" x="0" y="0"/>
  <path d="M16.6815 0C9.76356 0 4.0077 5.05859 2.9413 11.6758L0.972548 11.6758C-0.0118272 11.6758-0.257921 12.332 0.275282 13.0977L3.33778 17.4453C3.78895 18.0879 4.4452 18.0742 4.8827 17.4453L7.9452 13.084C8.46474 12.332 8.21864 11.6758 7.24794 11.6758L5.3202 11.6758C6.34559 6.34375 11.035 2.32422 16.6815 2.32422C20.0995 2.32422 23.1757 3.78711 25.3085 6.15234C25.8827 6.76758 26.4706 6.74023 26.9081 6.41211C27.4276 6.05664 27.619 5.25 27.0585 4.63477C24.5018 1.77734 20.7831 0 16.6815 0ZM16.6815 27.8906C23.5995 27.8906 29.3554 22.832 30.4218 16.2148L32.3905 16.2148C33.3612 16.2148 33.621 15.5449 33.0878 14.793L30.0253 10.4316C29.5741 9.80273 28.9179 9.81641 28.4804 10.4316L25.4179 14.8066C24.8983 15.5449 25.1444 16.2148 26.1151 16.2148L28.0429 16.2148C27.0175 21.5469 22.328 25.5664 16.6815 25.5664C13.2636 25.5664 10.1874 24.0898 8.05458 21.7246C7.48036 21.123 6.89247 21.1504 6.45497 21.4648C5.93544 21.834 5.74403 22.627 6.30458 23.2559C8.86122 26.1133 12.58 27.8906 16.6815 27.8906Z" fill="black" fill-opacity="0.85"/>
 </g>
</svg>
