<?xml version="1.0" encoding="UTF-8"?>
<!--Generator: Apple Native CoreSVG 326-->
<!DOCTYPE svg
PUBLIC "-//W3C//DTD SVG 1.1//EN"
       "http://www.w3.org/Graphics/SVG/1.1/DTD/svg11.dtd">
<svg version="1.1" xmlns="http://www.w3.org/2000/svg" xmlns:xlink="http://www.w3.org/1999/xlink" viewBox="0 0 25.5254 25.1699">
 <g>
  <rect height="25.1699" opacity="0" width="25.5254" x="0" y="0"/>
  <path d="M4.29297 25.1699L20.877 25.1699C23.748 25.1699 25.1699 23.7617 25.1699 20.9453L25.1699 4.23828C25.1699 1.42188 23.748 0 20.877 0L4.29297 0C1.43555 0 0 1.42188 0 4.23828L0 20.9453C0 23.7617 1.43555 25.1699 4.29297 25.1699ZM4.32031 22.9688C2.95312 22.9688 2.20117 22.2441 2.20117 20.8223L2.20117 4.36133C2.20117 2.93945 2.95312 2.20117 4.32031 2.20117L20.8496 2.20117C22.2031 2.20117 22.9688 2.93945 22.9688 4.36133L22.9688 20.8223C22.9688 22.2441 22.2031 22.9688 20.8496 22.9688Z" fill="black" fill-opacity="0.85"/>
  <path d="M12.5781 16.9668C12.8379 16.9668 13.0703 16.8438 13.2617 16.6523L17.8965 11.9492C18.1152 11.7441 18.1973 11.5117 18.1973 11.252C18.1973 10.7598 17.8281 10.3633 17.3223 10.3633C17.0762 10.3633 16.8301 10.4453 16.6523 10.623L15.791 11.498L13.3438 14.2598L13.4941 11.7715L13.4941 5.49609C13.4941 4.96289 13.1113 4.58008 12.5781 4.58008C12.0312 4.58008 11.6621 4.96289 11.6621 5.49609L11.6621 11.7715L11.8125 14.2734L9.32422 11.4844L8.54492 10.623C8.36719 10.4453 8.16211 10.3633 7.88867 10.3633C7.35547 10.3633 7 10.7324 7 11.252C7 11.4707 7.10938 11.7578 7.27344 11.9355L11.8945 16.6523C12.0859 16.8574 12.332 16.9668 12.5781 16.9668ZM7.46484 19.8379L17.7324 19.8379C18.2656 19.8379 18.6348 19.4551 18.6348 18.9219C18.6348 18.4023 18.2656 18.0195 17.7324 18.0195L7.46484 18.0195C6.93164 18.0195 6.5625 18.4023 6.5625 18.9219C6.5625 19.4551 6.93164 19.8379 7.46484 19.8379Z" fill="black" fill-opacity="0.85"/>
 </g>
</svg>
