<?xml version="1.0" encoding="UTF-8"?>
<!--Generator: Apple Native CoreSVG 326-->
<!DOCTYPE svg
PUBLIC "-//W3C//DTD SVG 1.1//EN"
       "http://www.w3.org/Graphics/SVG/1.1/DTD/svg11.dtd">
<svg version="1.1" xmlns="http://www.w3.org/2000/svg" xmlns:xlink="http://www.w3.org/1999/xlink" viewBox="0 0 26.4141 26.0996">
 <g>
  <rect height="26.0996" opacity="0" width="26.4141" x="0" y="0"/>
  <path d="M24.7871 11.0605C25.5254 11.0605 26.0586 10.5 26.0586 9.78906L26.0586 2.20117C26.0586 0.806641 25.2383 0 23.8438 0L16.2559 0C15.5312 0 14.9707 0.519531 14.9707 1.25781C14.9707 1.99609 15.5312 2.50195 16.2559 2.50195L17.4043 2.50195L22.1895 2.22852L18.3887 5.82422L14.1777 10.0352C13.9316 10.2812 13.7949 10.6094 13.7949 10.9785C13.7949 11.7441 14.3828 12.25 15.1484 12.25C15.4766 12.25 15.791 12.1406 16.0234 11.8945L20.2207 7.65625L23.8301 3.86914L23.543 8.64062L23.543 9.78906C23.543 10.5137 24.0762 11.0605 24.7871 11.0605ZM9.78906 26.0859C10.5273 26.0859 11.0742 25.5664 11.0742 24.8281C11.0742 24.0898 10.5137 23.584 9.78906 23.584L8.6543 23.584L3.86914 23.8574L7.65625 20.2617L11.8809 16.0508C12.127 15.8047 12.25 15.4766 12.25 15.1074C12.25 14.3418 11.6758 13.8359 10.8965 13.8359C10.5684 13.8359 10.2676 13.9453 10.0352 14.1914L5.82422 18.4297L2.22852 22.2168L2.50195 17.4453L2.50195 16.2969C2.50195 15.5723 1.98242 15.0254 1.25781 15.0254C0.533203 15.0254 0 15.5859 0 16.2969L0 23.8848C0 25.2793 0.806641 26.0859 2.20117 26.0859Z" fill="black" fill-opacity="0.85"/>
 </g>
</svg>
