<?xml version="1.0" encoding="UTF-8"?>
<!--Generator: Apple Native CoreSVG 326-->
<!DOCTYPE svg
PUBLIC "-//W3C//DTD SVG 1.1//EN"
       "http://www.w3.org/Graphics/SVG/1.1/DTD/svg11.dtd">
<svg version="1.1" xmlns="http://www.w3.org/2000/svg" xmlns:xlink="http://www.w3.org/1999/xlink" viewBox="0 0 28.2461 27.9043">
 <g>
  <rect height="27.9043" opacity="0" width="28.2461" x="0" y="0"/>
  <path d="M13.9453 27.8906C21.6426 27.8906 27.8906 21.6426 27.8906 13.9453C27.8906 6.24805 21.6426 0 13.9453 0C6.24805 0 0 6.24805 0 13.9453C0 21.6426 6.24805 27.8906 13.9453 27.8906ZM13.9453 25.5664C7.51953 25.5664 2.32422 20.3711 2.32422 13.9453C2.32422 7.51953 7.51953 2.32422 13.9453 2.32422C20.3711 2.32422 25.5664 7.51953 25.5664 13.9453C25.5664 20.3711 20.3711 25.5664 13.9453 25.5664Z" fill="black" fill-opacity="0.85"/>
  <path d="M8.18945 19.9746C8.70898 19.9746 9.0918 19.6055 9.0918 19.0723L9.0918 8.80469C9.0918 8.27148 8.70898 7.90234 8.18945 7.90234C7.65625 7.90234 7.25977 8.27148 7.25977 8.80469L7.25977 19.0723C7.25977 19.6055 7.65625 19.9746 8.18945 19.9746ZM22.5312 13.959C22.5312 13.4258 22.1348 13.043 21.6152 13.043L15.3398 13.043L12.8379 13.1934L15.6133 10.7324L16.4746 9.88477C16.666 9.70703 16.748 9.46094 16.748 9.21484C16.748 8.69531 16.3516 8.33984 15.8457 8.33984C15.5996 8.33984 15.3672 8.42188 15.1758 8.62695L10.459 13.2617C10.2539 13.4668 10.1445 13.6992 10.1445 13.959C10.1445 14.2051 10.2402 14.4512 10.459 14.6426L15.1621 19.2363C15.3398 19.4141 15.627 19.5371 15.8594 19.5371C16.3789 19.5371 16.748 19.1816 16.748 18.6484C16.748 18.375 16.666 18.1562 16.4746 17.9922L15.5996 17.1855L12.8242 14.7246L15.3398 14.875L21.6152 14.875C22.1348 14.875 22.5312 14.5059 22.5312 13.959Z" fill="black" fill-opacity="0.85"/>
 </g>
</svg>
