<?xml version="1.0" encoding="UTF-8"?>
<!--Generator: Apple Native CoreSVG 326-->
<!DOCTYPE svg
PUBLIC "-//W3C//DTD SVG 1.1//EN"
       "http://www.w3.org/Graphics/SVG/1.1/DTD/svg11.dtd">
<svg version="1.1" xmlns="http://www.w3.org/2000/svg" xmlns:xlink="http://www.w3.org/1999/xlink" viewBox="0 0 28.2461 27.9043">
 <g>
  <rect height="27.9043" opacity="0" width="28.2461" x="0" y="0"/>
  <path d="M13.9453 27.8906C21.6426 27.8906 27.8906 21.6289 27.8906 13.9453C27.8906 6.24805 21.6426 0 13.9453 0C6.26172 0 0 6.24805 0 13.9453C0 21.6289 6.26172 27.8906 13.9453 27.8906Z" fill="black" fill-opacity="0.85"/>
  <path d="M9.51562 17.4453C8.90039 17.4453 8.47656 16.9668 8.47656 16.3105L8.47656 9.66602C8.47656 8.83203 8.94141 8.50391 9.66602 8.50391L16.3379 8.50391C17.0078 8.50391 17.4316 8.91406 17.4316 9.54297C17.4316 10.1582 16.9941 10.5684 16.3105 10.5684L13.7676 10.5684L11.6758 10.3496L13.877 12.4004L19.0586 17.5684C19.2637 17.7734 19.4004 18.0605 19.4004 18.334C19.4004 18.9766 18.9766 19.3867 18.3613 19.3867C18.0195 19.3867 17.7461 19.2637 17.541 19.0586L12.3867 13.8906L10.3496 11.7168L10.5547 13.918L10.5547 16.3379C10.5547 17.0078 10.1445 17.4453 9.51562 17.4453Z" fill="white"/>
 </g>
</svg>
