<?xml version="1.0" encoding="UTF-8"?>
<!--Generator: Apple Native CoreSVG 326-->
<!DOCTYPE svg
PUBLIC "-//W3C//DTD SVG 1.1//EN"
       "http://www.w3.org/Graphics/SVG/1.1/DTD/svg11.dtd">
<svg version="1.1" xmlns="http://www.w3.org/2000/svg" xmlns:xlink="http://www.w3.org/1999/xlink" viewBox="0 0 32.5938 25.1699">
 <g>
  <rect height="25.1699" opacity="0" width="32.5938" x="0" y="0"/>
  <path d="M4.29297 25.1699L27.9453 25.1699C30.8164 25.1699 32.2383 23.7617 32.2383 20.9453L32.2383 4.23828C32.2383 1.42188 30.8164 0 27.9453 0L4.29297 0C1.43555 0 0 1.42188 0 4.23828L0 20.9453C0 23.7617 1.43555 25.1699 4.29297 25.1699Z" fill="black" fill-opacity="0.85"/>
  <path d="M13.084 5.3457C13.6992 5.3457 14.123 5.81055 14.123 6.48047L14.123 12.9199C14.123 13.7676 13.6582 14.0957 12.9336 14.0957L6.45312 14.0957C5.7832 14.0957 5.35938 13.6855 5.35938 13.0566C5.35938 12.4414 5.79688 12.0312 6.48047 12.0312L8.83203 12.0312L10.9238 12.25L8.72266 10.1855L4.48438 5.94727C4.2793 5.75586 4.14258 5.48242 4.14258 5.20898C4.14258 4.56641 4.55273 4.14258 5.18164 4.14258C5.52344 4.14258 5.7832 4.26562 5.98828 4.4707L10.2129 8.70898L12.25 10.8828L12.0449 8.68164L12.0449 6.45312C12.0449 5.76953 12.4551 5.3457 13.084 5.3457Z" fill="white"/>
 </g>
</svg>
