<?xml version="1.0" encoding="UTF-8"?>
<!--Generator: Apple Native CoreSVG 326-->
<!DOCTYPE svg
PUBLIC "-//W3C//DTD SVG 1.1//EN"
       "http://www.w3.org/Graphics/SVG/1.1/DTD/svg11.dtd">
<svg version="1.1" xmlns="http://www.w3.org/2000/svg" xmlns:xlink="http://www.w3.org/1999/xlink" viewBox="0 0 25.4434 29.5176">
 <g>
  <rect height="29.5176" opacity="0" width="25.4434" x="0" y="0"/>
  <path d="M12.5371 29.4766C13.002 29.4766 13.5215 29.2988 14.0137 28.7793L24.1035 17.9922C24.7871 17.2676 25.0879 16.8164 25.0879 16.1465C25.0879 15.1895 24.3223 14.5059 23.4062 14.5059L17.9238 14.5059L17.9238 3.14453C17.9238 1.14844 16.8027 0 14.8477 0L10.2129 0C8.25781 0 7.13672 1.14844 7.13672 3.14453L7.13672 14.5059L1.59961 14.5059C0.683594 14.5059 0 15.1895 0 16.1191C0 16.7891 0.273438 17.3359 0.888672 17.9922L11.0742 28.7793C11.5664 29.2988 12.0859 29.4766 12.5371 29.4766Z" fill="black" fill-opacity="0.85"/>
 </g>
</svg>
