<?xml version="1.0" encoding="UTF-8"?>
<!--Generator: Apple Native CoreSVG 326-->
<!DOCTYPE svg
PUBLIC "-//W3C//DTD SVG 1.1//EN"
       "http://www.w3.org/Graphics/SVG/1.1/DTD/svg11.dtd">
<svg version="1.1" xmlns="http://www.w3.org/2000/svg" xmlns:xlink="http://www.w3.org/1999/xlink" viewBox="0 0 26.4141 26.0996">
 <g>
  <rect height="26.0996" opacity="0" width="26.4141" x="0" y="0"/>
  <path d="M1.25781 11.0605C1.98242 11.0605 2.50195 10.5137 2.50195 9.78906L2.50195 8.64062L2.22852 3.86914L5.82422 7.65625L10.0352 11.8945C10.2676 12.1406 10.5684 12.25 10.8965 12.25C11.6758 12.25 12.25 11.7441 12.25 10.9785C12.25 10.6094 12.127 10.2812 11.8809 10.0352L7.65625 5.82422L3.86914 2.22852L8.6543 2.50195L9.78906 2.50195C10.5137 2.50195 11.0742 1.99609 11.0742 1.25781C11.0742 0.519531 10.5273 0 9.78906 0L2.20117 0C0.806641 0 0 0.806641 0 2.20117L0 9.78906C0 10.5 0.533203 11.0605 1.25781 11.0605ZM16.2559 26.0859L23.8438 26.0859C25.2383 26.0859 26.0586 25.2793 26.0586 23.8848L26.0586 16.2969C26.0586 15.5859 25.5254 15.0254 24.7871 15.0254C24.0762 15.0254 23.543 15.5723 23.543 16.2969L23.543 17.4453L23.8301 22.2168L20.2207 18.4297L16.0234 14.1914C15.791 13.9453 15.4766 13.8359 15.1484 13.8359C14.3828 13.8359 13.7949 14.3418 13.7949 15.1074C13.7949 15.4766 13.9316 15.8047 14.1777 16.0508L18.3887 20.2617L22.1895 23.8574L17.4043 23.584L16.2559 23.584C15.5312 23.584 14.9707 24.0898 14.9707 24.8281C14.9707 25.5664 15.5312 26.0859 16.2559 26.0859Z" fill="black" fill-opacity="0.85"/>
 </g>
</svg>
