<?xml version="1.0" encoding="UTF-8"?>
<!--Generator: Apple Native CoreSVG 326-->
<!DOCTYPE svg
PUBLIC "-//W3C//DTD SVG 1.1//EN"
       "http://www.w3.org/Graphics/SVG/1.1/DTD/svg11.dtd">
<svg version="1.1" xmlns="http://www.w3.org/2000/svg" xmlns:xlink="http://www.w3.org/1999/xlink" viewBox="0 0 25.5254 25.1699">
 <g>
  <rect height="25.1699" opacity="0" width="25.5254" x="0" y="0"/>
  <path d="M4.29297 25.1699L20.877 25.1699C23.748 25.1699 25.1699 23.7617 25.1699 20.9453L25.1699 4.23828C25.1699 1.42188 23.748 0 20.877 0L4.29297 0C1.43555 0 0 1.42188 0 4.23828L0 20.9453C0 23.7617 1.43555 25.1699 4.29297 25.1699ZM4.32031 22.9688C2.95312 22.9688 2.20117 22.2441 2.20117 20.8223L2.20117 4.36133C2.20117 2.93945 2.95312 2.20117 4.32031 2.20117L20.8496 2.20117C22.2031 2.20117 22.9688 2.93945 22.9688 4.36133L22.9688 20.8223C22.9688 22.2441 22.2031 22.9688 20.8496 22.9688Z" fill="black" fill-opacity="0.85"/>
  <path d="M18.6895 13.207C18.6895 9.84375 15.9277 7.20508 12.8516 7.20508C12.7285 7.20508 12.5781 7.23242 12.4824 7.23242L13.4531 6.24805C13.5898 6.09766 13.6855 5.86523 13.6855 5.63281C13.6855 5.14062 13.3164 4.75781 12.8242 4.75781C12.5781 4.75781 12.3594 4.86719 12.1953 5.03125L9.57031 7.69727C9.25586 8.02539 9.24219 8.64062 9.57031 8.96875L12.2227 11.6211C12.373 11.7578 12.6055 11.8672 12.8242 11.8672C13.3164 11.8672 13.6855 11.498 13.6855 11.0195C13.6855 10.7598 13.6035 10.5547 13.4258 10.377L12.0996 9.07812C12.2363 9.05078 12.4141 9.03711 12.5918 9.03711C14.9434 9.03711 16.8164 10.9102 16.8164 13.248C16.8164 15.5996 14.9434 17.4727 12.5918 17.4727C10.2539 17.4727 8.38086 15.5859 8.38086 13.248C8.38086 12.7422 7.95703 12.3184 7.4375 12.3184C6.93164 12.3184 6.50781 12.7422 6.50781 13.248C6.50781 16.625 9.21484 19.3594 12.5918 19.3594C15.9688 19.3594 18.6895 16.625 18.6895 13.207Z" fill="black" fill-opacity="0.85"/>
 </g>
</svg>
