<?xml version="1.0" encoding="UTF-8"?>
<!--Generator: Apple Native CoreSVG 326-->
<!DOCTYPE svg
PUBLIC "-//W3C//DTD SVG 1.1//EN"
       "http://www.w3.org/Graphics/SVG/1.1/DTD/svg11.dtd">
<svg version="1.1" xmlns="http://www.w3.org/2000/svg" xmlns:xlink="http://www.w3.org/1999/xlink" viewBox="0 0 26.8242 32.8809">
 <g>
  <rect height="32.8809" opacity="0" width="26.8242" x="0" y="0"/>
  <path d="M7.23242 6.24805L9.40625 6.24805L9.40625 3.32227C9.40625 2.54297 9.95312 2.03711 10.7734 2.03711L15.668 2.03711C16.4883 2.03711 17.0352 2.54297 17.0352 3.32227L17.0352 6.24805L19.209 6.24805L19.209 3.18555C19.209 1.20312 17.9238 0 15.8184 0L10.623 0C8.51758 0 7.23242 1.20312 7.23242 3.18555ZM1.02539 7.3418L25.457 7.3418C26.0176 7.3418 26.4688 6.86328 26.4688 6.30273C26.4688 5.74219 26.0176 5.27734 25.457 5.27734L1.02539 5.27734C0.478516 5.27734 0 5.74219 0 6.30273C0 6.87695 0.478516 7.3418 1.02539 7.3418ZM6.97266 30.4473L19.5098 30.4473C21.4648 30.4473 22.7773 29.1758 22.873 27.2207L23.8301 7.08203L21.6289 7.08203L20.7129 26.9883C20.6855 27.8086 20.0977 28.3828 19.291 28.3828L7.16406 28.3828C6.38477 28.3828 5.79688 27.7949 5.75586 26.9883L4.78516 7.08203L2.63867 7.08203L3.60938 27.2344C3.70508 29.1895 4.99023 30.4473 6.97266 30.4473Z" fill="#ff3b30"/>
  <path d="M13.2344 12.0586C12.9883 12.0586 12.7695 12.1543 12.5234 12.373L8.77734 15.9961C8.59961 16.1602 8.49023 16.3789 8.49023 16.6387C8.49023 17.1309 8.87305 17.5137 9.37891 17.5137C9.61133 17.5137 9.88477 17.4043 10.0625 17.2129L11.7852 15.3535L12.3047 14.8203L12.25 16.2969L12.25 22.709C12.25 23.2148 12.7148 23.666 13.2344 23.666C13.7539 23.666 14.2051 23.2148 14.2051 22.709L14.2051 16.2969L14.1504 14.834L14.6562 15.3535L16.3926 17.2129C16.5703 17.4043 16.8301 17.5137 17.0625 17.5137C17.5684 17.5137 17.9648 17.1309 17.9648 16.6387C17.9648 16.3789 17.8555 16.1602 17.6641 15.9961L13.9316 12.373C13.6855 12.1543 13.4668 12.0586 13.2344 12.0586Z" fill="#ff3b30"/>
 </g>
</svg>
