<?xml version="1.0" encoding="UTF-8"?>
<!--Generator: Apple Native CoreSVG 326-->
<!DOCTYPE svg
PUBLIC "-//W3C//DTD SVG 1.1//EN"
       "http://www.w3.org/Graphics/SVG/1.1/DTD/svg11.dtd">
<svg version="1.1" xmlns="http://www.w3.org/2000/svg" xmlns:xlink="http://www.w3.org/1999/xlink" viewBox="0 0 28.2461 27.9043">
 <g>
  <rect height="27.9043" opacity="0" width="28.2461" x="0" y="0"/>
  <path d="M13.9453 27.8906C21.6426 27.8906 27.8906 21.6426 27.8906 13.9453C27.8906 6.24805 21.6426 0 13.9453 0C6.24805 0 0 6.24805 0 13.9453C0 21.6426 6.24805 27.8906 13.9453 27.8906ZM13.9453 25.5664C7.51953 25.5664 2.32422 20.3711 2.32422 13.9453C2.32422 7.51953 7.51953 2.32422 13.9453 2.32422C20.3711 2.32422 25.5664 7.51953 25.5664 13.9453C25.5664 20.3711 20.3711 25.5664 13.9453 25.5664Z" fill="black" fill-opacity="0.85"/>
  <path d="M20.8359 13.9316C20.8359 13.6445 20.7402 13.4121 20.4668 13.1387L16.1191 8.62695C15.9141 8.42188 15.6953 8.3125 15.4082 8.3125C14.8477 8.3125 14.4512 8.73633 14.4512 9.31055C14.4512 9.57031 14.5469 9.85742 14.7793 10.0488L16.9941 12.127L17.8418 12.9336L15.791 12.8379L8.10742 12.8379C7.5332 12.8379 7.04102 13.3438 7.04102 13.9316C7.04102 14.5195 7.5332 15.0117 8.10742 15.0117L15.791 15.0117L17.8418 14.9297L16.9941 15.7363L14.7793 17.8145C14.5469 18.0059 14.4512 18.3066 14.4512 18.5664C14.4512 19.1406 14.8477 19.5508 15.4082 19.5508C15.6953 19.5508 15.9141 19.4414 16.1191 19.2363L20.4668 14.7246C20.7402 14.4512 20.8359 14.2051 20.8359 13.9316Z" fill="black" fill-opacity="0.85"/>
 </g>
</svg>
