<?xml version="1.0" encoding="UTF-8"?>
<!--Generator: Apple Native CoreSVG 326-->
<!DOCTYPE svg
PUBLIC "-//W3C//DTD SVG 1.1//EN"
       "http://www.w3.org/Graphics/SVG/1.1/DTD/svg11.dtd">
<svg version="1.1" xmlns="http://www.w3.org/2000/svg" xmlns:xlink="http://www.w3.org/1999/xlink" viewBox="0 0 25.5254 25.1699">
 <g>
  <rect height="25.1699" opacity="0" width="25.5254" x="0" y="0"/>
  <path d="M4.29297 25.1699L20.877 25.1699C23.748 25.1699 25.1699 23.7617 25.1699 20.9453L25.1699 4.23828C25.1699 1.42188 23.748 0 20.877 0L4.29297 0C1.43555 0 0 1.42188 0 4.23828L0 20.9453C0 23.7617 1.43555 25.1699 4.29297 25.1699Z" fill="black" fill-opacity="0.85"/>
  <path d="M12.6055 19.6875C12.3184 19.6875 12.0723 19.6055 11.7852 19.3184L7.15039 14.834C6.91797 14.6289 6.80859 14.3828 6.80859 14.082C6.80859 13.5078 7.23242 13.0977 7.82031 13.0977C8.09375 13.0977 8.4082 13.207 8.59961 13.4395L10.7461 15.709L11.5664 16.584L11.4844 14.4648L11.4844 6.5625C11.4844 5.96094 11.9902 5.46875 12.6055 5.46875C13.2207 5.46875 13.7402 5.96094 13.7402 6.5625L13.7402 14.4648L13.6445 16.584L14.4648 15.709L16.6113 13.4395C16.8027 13.207 17.1035 13.0977 17.377 13.0977C17.9648 13.0977 18.4023 13.5078 18.4023 14.082C18.4023 14.3828 18.293 14.6289 18.0742 14.834L13.4258 19.3184C13.1387 19.6055 12.9062 19.6875 12.6055 19.6875Z" fill="white"/>
 </g>
</svg>
