<?xml version="1.0" encoding="UTF-8"?>
<!--Generator: Apple Native CoreSVG 326-->
<!DOCTYPE svg
PUBLIC "-//W3C//DTD SVG 1.1//EN"
       "http://www.w3.org/Graphics/SVG/1.1/DTD/svg11.dtd">
<svg version="1.1" xmlns="http://www.w3.org/2000/svg" xmlns:xlink="http://www.w3.org/1999/xlink" viewBox="0 0 25.5254 25.1699">
 <g>
  <rect height="25.1699" opacity="0" width="25.5254" x="0" y="0"/>
  <path d="M4.29297 25.1699L20.877 25.1699C23.748 25.1699 25.1699 23.7617 25.1699 20.9453L25.1699 4.23828C25.1699 1.42188 23.748 0 20.877 0L4.29297 0C1.43555 0 0 1.42188 0 4.23828L0 20.9453C0 23.7617 1.43555 25.1699 4.29297 25.1699Z" fill="black" fill-opacity="0.85"/>
  <path d="M19.7148 12.5645C19.7148 12.8516 19.6191 13.0977 19.332 13.3848L14.8613 18.0332C14.6426 18.252 14.4102 18.3613 14.1094 18.3613C13.5352 18.3613 13.125 17.9375 13.125 17.3496C13.125 17.0762 13.2344 16.7617 13.4668 16.5703L15.7363 14.4238L16.6113 13.6035L14.4922 13.6855L6.58984 13.6855C5.98828 13.6855 5.48242 13.1797 5.48242 12.5645C5.48242 11.9492 5.98828 11.4297 6.58984 11.4297L14.4922 11.4297L16.6113 11.5254L15.7363 10.7051L13.4668 8.55859C13.2344 8.36719 13.125 8.06641 13.125 7.79297C13.125 7.20508 13.5352 6.76758 14.1094 6.76758C14.4102 6.76758 14.6426 6.87695 14.8613 7.0957L19.332 11.7441C19.6191 12.0312 19.7148 12.2637 19.7148 12.5645Z" fill="white"/>
 </g>
</svg>
