<?xml version="1.0" encoding="UTF-8"?>
<!--Generator: Apple Native CoreSVG 326-->
<!DOCTYPE svg
PUBLIC "-//W3C//DTD SVG 1.1//EN"
       "http://www.w3.org/Graphics/SVG/1.1/DTD/svg11.dtd">
<svg version="1.1" xmlns="http://www.w3.org/2000/svg" xmlns:xlink="http://www.w3.org/1999/xlink" viewBox="0 0 32.375 34.6176">
 <g>
  <rect height="34.6176" opacity="0" width="32.375" x="0" y="0"/>
  <path d="M2.06445 29.757L12.8652 29.757C14.4785 29.757 15.2168 29.0324 15.2168 27.4055L15.2168 11.0676C15.2168 9.86446 14.3281 9.22188 13.3574 9.22188C12.7012 9.22188 12.0586 9.52266 11.6211 10.1516L0.423828 26.5031C0.123047 26.9406 0 27.4465 0 27.9113C0 28.9094 0.65625 29.757 2.06445 29.757ZM2.92578 27.5285C2.74805 27.5285 2.7207 27.3781 2.80273 27.2551L12.7422 12.216C12.8242 12.093 12.9746 12.134 12.9746 12.2844L12.9746 27.132C12.9746 27.4465 12.8926 27.5285 12.5645 27.5285ZM29.9551 29.757C31.377 29.757 32.0195 28.9094 32.0195 27.9113C32.0195 27.4465 31.8965 26.9406 31.5957 26.5031L20.4121 10.1516C19.9609 9.52266 19.332 9.22188 18.6758 9.22188C17.7051 9.22188 16.8164 9.86446 16.8164 11.0676L16.8164 27.4055C16.8164 29.0324 17.541 29.757 19.168 29.757ZM29.0938 27.5285L19.4551 27.5285C19.1406 27.5285 19.0586 27.4465 19.0586 27.132L19.0586 12.2844C19.0586 12.134 19.209 12.093 19.2773 12.216L29.2168 27.2551C29.3125 27.3781 29.2852 27.5285 29.0938 27.5285Z" fill="black" fill-opacity="0.85"/>
  <path d="M7.47852 6.03633L7.47852 4.28633L24.5547 4.28633L24.5547 6.03633C24.5547 7.02071 25.3203 7.23946 26.0859 6.69258L29.5312 4.17696C30.1191 3.73946 30.1055 3.26094 29.5312 2.83712L26.0859 0.307819C25.3203-0.2664 24.5547-0.0339782 24.5547 0.977741L24.5547 2.7004L7.47852 2.7004L7.47852 0.977741C7.47852-0.0339782 6.69922-0.2664 5.94727 0.307819L2.48828 2.83712C1.92773 3.26094 1.91406 3.75313 2.48828 4.17696L5.94727 6.69258C6.69922 7.25313 7.47852 7.02071 7.47852 6.03633Z" fill="black" fill-opacity="0.85"/>
 </g>
</svg>
