<?xml version="1.0" encoding="UTF-8"?>
<!--Generator: Apple Native CoreSVG 326-->
<!DOCTYPE svg
PUBLIC "-//W3C//DTD SVG 1.1//EN"
       "http://www.w3.org/Graphics/SVG/1.1/DTD/svg11.dtd">
<svg version="1.1" xmlns="http://www.w3.org/2000/svg" xmlns:xlink="http://www.w3.org/1999/xlink" viewBox="0 0 31.0762 25.0879">
 <g>
  <rect height="25.0879" opacity="0" width="31.0762" x="0" y="0"/>
  <path d="M0 12.5371C0 12.9883 0.177734 13.5078 0.697266 14L11.4844 24.1855C12.1406 24.8008 12.6875 25.0742 13.3574 25.0742C14.2871 25.0742 14.957 24.3906 14.957 23.4746L14.957 17.9375L26.332 17.9375C28.3145 17.9375 29.4766 16.8164 29.4766 14.8613L29.4766 10.2266C29.4766 8.27148 28.3145 7.15039 26.332 7.15039L14.957 7.15039L14.957 1.66797C14.957 0.751953 14.2871 0 13.3301 0C12.6602 0 12.209 0.287109 11.4844 0.970703L0.697266 11.0605C0.164062 11.5664 0 12.0723 0 12.5371Z" fill="black" fill-opacity="0.85"/>
 </g>
</svg>
