<?xml version="1.0" encoding="UTF-8"?>
<!--Generator: Apple Native CoreSVG 326-->
<!DOCTYPE svg
PUBLIC "-//W3C//DTD SVG 1.1//EN"
       "http://www.w3.org/Graphics/SVG/1.1/DTD/svg11.dtd">
<svg version="1.1" xmlns="http://www.w3.org/2000/svg" xmlns:xlink="http://www.w3.org/1999/xlink" viewBox="0 0 31.3633 28.5059">
 <g>
  <rect height="28.5059" opacity="0" width="31.3633" x="0" y="0"/>
  <path d="M31.0078 12.4277C31.0078 19.2363 24.4727 24.8418 14.6152 24.8418C14.4375 24.8418 14.2598 24.8281 14.082 24.8145C13.8906 24.8145 13.6992 24.8828 13.4668 25.0469C11.1426 26.7148 7.05469 28.5059 5.41406 28.5059C4.36133 28.5059 4.06055 27.6445 4.59375 26.9609C5.11328 26.2773 6.48047 24.7734 7.24609 23.5156C7.35547 23.3105 7.28711 23.1055 7.08203 22.9961C2.69336 20.6445 0 16.8027 0 12.4277C0 5.55078 6.89062 0 15.5039 0C24.1172 0 31.0078 5.55078 31.0078 12.4277ZM14.6973 5.82422L10.0488 10.3086C9.83008 10.5137 9.70703 10.7461 9.70703 11.0469C9.70703 11.6211 10.1445 12.0312 10.7188 12.0312C11.0059 12.0312 11.3066 11.9355 11.5117 11.7031L13.6582 9.41992L14.4785 8.54492L14.3828 10.6641L14.3828 18.5664C14.3828 19.168 14.9023 19.6738 15.5176 19.6738C16.1328 19.6738 16.6387 19.168 16.6387 18.5664L16.6387 10.6641L16.5566 8.55859L17.3633 9.41992L19.5234 11.7031C19.7148 11.9355 20.002 12.0312 20.2891 12.0312C20.8633 12.0312 21.3145 11.6211 21.3145 11.0469C21.3145 10.7461 21.1914 10.5137 20.9727 10.3086L16.3379 5.82422C16.0508 5.53711 15.8047 5.44141 15.5176 5.44141C15.2168 5.44141 14.9844 5.53711 14.6973 5.82422Z" fill="black" fill-opacity="0.85"/>
 </g>
</svg>
