<?xml version="1.0" encoding="UTF-8"?>
<!--Generator: Apple Native CoreSVG 326-->
<!DOCTYPE svg
PUBLIC "-//W3C//DTD SVG 1.1//EN"
       "http://www.w3.org/Graphics/SVG/1.1/DTD/svg11.dtd">
<svg version="1.1" xmlns="http://www.w3.org/2000/svg" xmlns:xlink="http://www.w3.org/1999/xlink" viewBox="0 0 25.5254 25.1699">
 <g>
  <rect height="25.1699" opacity="0" width="25.5254" x="0" y="0"/>
  <path d="M4.29297 25.1699L20.877 25.1699C23.748 25.1699 25.1699 23.7617 25.1699 20.9453L25.1699 4.23828C25.1699 1.42188 23.748 0 20.877 0L4.29297 0C1.43555 0 0 1.42188 0 4.23828L0 20.9453C0 23.7617 1.43555 25.1699 4.29297 25.1699Z" fill="black" fill-opacity="0.85"/>
  <path d="M18.8809 13.2207C18.8809 16.748 16.0781 19.5918 12.5918 19.5918C9.10547 19.5918 6.31641 16.748 6.31641 13.2754C6.31641 12.7422 6.75391 12.3184 7.27344 12.3184C7.82031 12.3184 8.25781 12.7422 8.25781 13.2754C8.25781 15.6953 10.1855 17.6367 12.5918 17.6367C15.0117 17.6367 16.9395 15.6953 16.9395 13.2754C16.9395 10.8691 15.0117 8.94141 12.5918 8.94141C12.4141 8.94141 12.2363 8.94141 12.0996 8.96875L13.4531 10.3223C13.6309 10.4863 13.7266 10.7188 13.7266 10.9648C13.7266 11.4707 13.3438 11.8672 12.8242 11.8672C12.6055 11.8672 12.3594 11.7441 12.209 11.5938L9.47461 8.85938C9.13281 8.53125 9.14648 7.90234 9.47461 7.56055L12.1816 4.79883C12.3457 4.62109 12.5781 4.51172 12.8242 4.51172C13.3438 4.51172 13.7266 4.92188 13.7266 5.41406C13.7266 5.67383 13.6172 5.90625 13.4805 6.07031L12.4961 7.08203C12.5918 7.06836 12.7422 7.05469 12.8652 7.05469C16.0371 7.05469 18.8809 9.77539 18.8809 13.2207Z" fill="white"/>
 </g>
</svg>
