<?xml version="1.0" encoding="UTF-8"?>
<!--Generator: Apple Native CoreSVG 326-->
<!DOCTYPE svg
PUBLIC "-//W3C//DTD SVG 1.1//EN"
       "http://www.w3.org/Graphics/SVG/1.1/DTD/svg11.dtd">
<svg version="1.1" xmlns="http://www.w3.org/2000/svg" xmlns:xlink="http://www.w3.org/1999/xlink" viewBox="0 0 29.3262 25.0332">
 <g>
  <rect height="25.0332" opacity="0" width="29.3262" x="0" y="0"/>
  <path d="M28.9707 4.14258L28.9707 20.8086C28.9707 23.666 27.5762 25.0332 24.6777 25.0332L4.29297 25.0332C1.4082 25.0332 0 23.666 0 20.8086L0 14.123C0 12.168 0.546875 11.1152 2.11914 9.92578L12.7422 1.8457C14.5469 0.492188 15.9414 0.0136719 18.1699 0.0136719L24.8008 0.0136719C27.5625 0.0136719 28.9707 1.4082 28.9707 4.14258ZM16.666 14.9707C15.9277 14.9707 15.6133 15.5586 16.0098 16.2012L18.9629 21.0547C19.3457 21.6836 20.0703 21.6699 20.4395 21.0547L23.4199 16.2012C23.8164 15.5586 23.4746 14.9707 22.75 14.9707ZM18.1699 2.21484C16.4199 2.21484 15.4082 2.51562 14.2461 3.44531L4.06055 11.2383C3.5 11.6484 3.65039 12.4277 4.375 12.4277L24.7598 12.4277C26.0176 12.4277 26.7695 11.7031 26.7695 10.3906L26.7695 4.25195C26.7695 2.92578 26.0312 2.21484 24.7598 2.21484Z" fill="black" fill-opacity="0.85"/>
  <path d="M20.4395 4.32031L23.4199 9.17383C23.8164 9.81641 23.4746 10.4043 22.75 10.4043L16.666 10.4043C15.9277 10.4043 15.6133 9.81641 16.0098 9.17383L18.9629 4.32031C19.3457 3.69141 20.0703 3.70508 20.4395 4.32031Z" fill="black" fill-opacity="0.85"/>
 </g>
</svg>
