<?xml version="1.0" encoding="UTF-8"?>
<!--Generator: Apple Native CoreSVG 326-->
<!DOCTYPE svg
PUBLIC "-//W3C//DTD SVG 1.1//EN"
       "http://www.w3.org/Graphics/SVG/1.1/DTD/svg11.dtd">
<svg version="1.1" xmlns="http://www.w3.org/2000/svg" xmlns:xlink="http://www.w3.org/1999/xlink" viewBox="0 0 25.8672 25.9902">
 <g>
  <rect height="25.9902" opacity="0" width="25.8672" x="0" y="0"/>
  <path d="M8.72266 25.9902C13.959 25.9902 17.5547 22.4629 17.5547 16.2148L17.5547 6.95898L17.3633 2.7207L16.7344 2.9668L19.6328 6.34375L23.4746 10.2812C23.6934 10.5 23.9668 10.623 24.3086 10.623C25.0195 10.623 25.5117 10.1309 25.5117 9.40625C25.5117 9.10547 25.375 8.75 25.1426 8.51758L17.2539 0.478516C16.9941 0.205078 16.666 0.0820312 16.3379 0.0820312C15.9961 0.0820312 15.6816 0.205078 15.4219 0.478516L7.5332 8.51758C7.30078 8.75 7.15039 9.10547 7.15039 9.40625C7.15039 10.1309 7.65625 10.623 8.35352 10.623C8.70898 10.623 8.98242 10.5 9.20117 10.2812L13.043 6.34375L15.9414 2.9668L15.2988 2.7207L15.1211 6.95898L15.1211 16.4199C15.1211 21.082 12.5371 23.5566 8.85938 23.5566C5.18164 23.5566 2.43359 21.082 2.43359 16.4199L2.43359 13.2754C2.43359 12.5234 1.88672 12.0312 1.2168 12.0312C0.546875 12.0312 0 12.5234 0 13.2754L0 16.4336C0 22.5586 3.48633 25.9902 8.72266 25.9902Z" fill="black" fill-opacity="0.85"/>
 </g>
</svg>
