<?xml version="1.0" encoding="UTF-8"?>
<!--Generator: Apple Native CoreSVG 326-->
<!DOCTYPE svg
PUBLIC "-//W3C//DTD SVG 1.1//EN"
       "http://www.w3.org/Graphics/SVG/1.1/DTD/svg11.dtd">
<svg version="1.1" xmlns="http://www.w3.org/2000/svg" xmlns:xlink="http://www.w3.org/1999/xlink" viewBox="0 0 36.6133 25.4434">
 <g>
  <rect height="25.4434" opacity="0" width="36.6133" x="0" y="0"/>
  <path d="M12.332 25.4434C12.9473 25.4434 13.3164 25.1426 13.4531 24.5957C14.9297 20.0293 17.2812 18.416 21.1641 18.416L21.6562 18.4297L21.6562 23.6523C21.6562 24.5684 22.3262 25.252 23.2559 25.252C23.9258 25.252 24.4727 24.9785 25.1289 24.3633L35.9297 14.1777C36.4492 13.6855 36.6133 13.166 36.6133 12.7148C36.6133 12.25 36.4492 11.7305 35.9297 11.2383L25.1289 1.14844C24.4043 0.464844 23.9531 0.164062 23.2832 0.164062C22.3262 0.164062 21.6562 0.929688 21.6562 1.8457L21.6562 7.01367L21.2598 7.01367C16.9668 7.01367 13.2344 9.55664 12.3867 14.6699L12.2363 14.6699C11.293 9.00977 7.41016 7.01367 3.73242 7.01367C3.66406 7.01367 3.44531 7.01367 2.9668 7.01367C1.08008 7.01367 0.328125 7.72461 0.328125 9.76172L0.328125 16.2969C0.328125 17.8418 1.06641 18.498 2.84375 18.498C3.25391 18.498 3.62305 18.498 4.04688 18.498C7.7793 18.498 10.2402 20.9863 11.2246 24.582C11.3477 25.1426 11.7031 25.4434 12.332 25.4434ZM11.6074 21.5195C10.0762 17.6367 7.30078 16.3789 3.88281 16.3516C3.60938 16.3516 3.32227 16.3516 3.0625 16.3516C2.7207 16.3516 2.5293 16.1465 2.5293 15.75L2.5293 9.76172C2.5293 9.36523 2.7207 9.14648 3.08984 9.14648C3.36328 9.14648 3.58203 9.14648 3.85547 9.14648C7.98438 9.20117 11.498 12.1133 11.7578 21.5195ZM24.0488 22.3125C23.9258 22.3125 23.8574 22.2305 23.8574 22.1074L23.8574 16.8164C23.8574 16.502 23.707 16.3652 23.3926 16.3652L21.0957 16.3516C17.1035 16.3516 14.4648 17.9512 13.0703 21.5195L12.9199 21.5195C13.1387 13.1523 16.1875 9.07812 21.3281 9.07812L23.3926 9.07812C23.707 9.07812 23.8574 8.94141 23.8574 8.62695L23.8574 3.19922C23.8574 3.08984 23.9395 3.00781 24.0488 3.00781C24.1445 3.00781 24.2129 3.0625 24.2812 3.11719L34.0156 12.4551C34.125 12.5508 34.166 12.6328 34.166 12.7148C34.166 12.7969 34.125 12.8652 34.0156 12.9746L24.2812 22.1895C24.1992 22.2715 24.1172 22.3125 24.0488 22.3125Z" fill="black" fill-opacity="0.85"/>
 </g>
</svg>
