<?xml version="1.0" encoding="UTF-8"?>
<!--Generator: Apple Native CoreSVG 326-->
<!DOCTYPE svg
PUBLIC "-//W3C//DTD SVG 1.1//EN"
       "http://www.w3.org/Graphics/SVG/1.1/DTD/svg11.dtd">
<svg version="1.1" xmlns="http://www.w3.org/2000/svg" xmlns:xlink="http://www.w3.org/1999/xlink" viewBox="0 0 31.3669 31.0251">
 <g>
  <rect height="31.0251" opacity="0" width="31.3669" x="0" y="0"/>
  <path d="M1.53307 18.5272L12.4842 29.4784C14.5077 31.5018 16.5038 31.5155 18.5135 29.5194L29.5194 18.4999C31.5155 16.5038 31.5018 14.494 29.4784 12.4706L18.5409 1.53307C16.5174-0.49037 14.5213-0.517714 12.5116 1.49205L1.49205 12.4979C-0.517714 14.5077-0.49037 16.5038 1.53307 18.5272ZM3.11901 17.0096C2.13463 16.0253 2.12096 14.9999 3.13268 13.9881L13.9881 3.13268C14.9999 2.12096 16.0253 2.13463 17.0096 3.11901L27.8924 14.0018C28.8631 14.9725 28.8905 16.0116 27.8788 17.0233L17.0233 27.8788C16.0116 28.8905 14.9725 28.8631 14.0018 27.9061Z" fill="black" fill-opacity="0.85"/>
  <path d="M9.5858 19.8124C9.5858 20.5917 9.96861 21.0565 10.6796 21.0428C11.3768 21.0292 11.7733 20.5917 11.7733 19.8124L11.7733 16.0116C11.7733 14.7674 12.3612 14.1932 13.537 14.1932L17.1053 14.1932L17.1053 16.3397C17.1053 17.2284 18.1034 17.6385 18.8553 16.996L22.1229 14.1659C22.9432 13.4549 22.9432 12.7303 22.1229 12.0194L18.8553 9.20299C18.1034 8.54674 17.1053 8.97057 17.1053 9.84557L17.1053 11.9921L13.5096 11.9921C10.8436 11.9921 9.5858 13.2635 9.5858 15.9022Z" fill="black" fill-opacity="0.85"/>
 </g>
</svg>
