<?xml version="1.0" encoding="UTF-8"?>
<!--Generator: Apple Native CoreSVG 326-->
<!DOCTYPE svg
PUBLIC "-//W3C//DTD SVG 1.1//EN"
       "http://www.w3.org/Graphics/SVG/1.1/DTD/svg11.dtd">
<svg version="1.1" xmlns="http://www.w3.org/2000/svg" xmlns:xlink="http://www.w3.org/1999/xlink" viewBox="0 0 32.5938 25.1699">
 <g>
  <rect height="25.1699" opacity="0" width="32.5938" x="0" y="0"/>
  <path d="M4.29297 25.1699L27.9453 25.1699C30.8164 25.1699 32.2383 23.7617 32.2383 20.9453L32.2383 4.23828C32.2383 1.42188 30.8164 0 27.9453 0L4.29297 0C1.43555 0 0 1.42188 0 4.23828L0 20.9453C0 23.7617 1.43555 25.1699 4.29297 25.1699ZM4.32031 22.9688C2.95312 22.9688 2.20117 22.2441 2.20117 20.8223L2.20117 4.36133C2.20117 2.93945 2.95312 2.20117 4.32031 2.20117L27.918 2.20117C29.2715 2.20117 30.0371 2.93945 30.0371 4.36133L30.0371 20.8223C30.0371 22.2441 29.2715 22.9688 27.918 22.9688Z" fill="black" fill-opacity="0.85"/>
  <path d="M14.4375 4.68945C13.8633 4.68945 13.4805 5.11328 13.4805 5.71484L13.4805 7.36914L13.6445 9.16016L11.9492 7.36914L9.13281 4.53906C8.94141 4.34766 8.69531 4.23828 8.38086 4.23828C7.82031 4.23828 7.42383 4.63477 7.42383 5.22266C7.42383 5.48242 7.56055 5.74219 7.73828 5.91992L10.5547 8.76367L12.3867 10.4453L10.6914 10.2812L8.91406 10.2812C8.29883 10.2812 7.88867 10.6641 7.88867 11.2383C7.88867 11.8125 8.29883 12.209 8.88672 12.209L14.3281 12.209C14.9844 12.209 15.4082 11.8809 15.4082 11.1289L15.4082 5.74219C15.4082 5.14062 15.0117 4.68945 14.4375 4.68945ZM17.8008 20.4805C18.375 20.4805 18.7578 20.0703 18.7578 19.4688L18.7578 17.8145L18.5938 16.0098L20.2891 17.8145L23.1055 20.6309C23.2969 20.8223 23.543 20.9316 23.8574 20.9316C24.418 20.9316 24.8281 20.5488 24.8281 19.9609C24.8281 19.7012 24.6914 19.4277 24.5137 19.25L21.6836 16.4199L19.8516 14.7383L21.5469 14.9023L23.3242 14.9023C23.9395 14.9023 24.3633 14.5195 24.3633 13.9453C24.3633 13.3711 23.9395 12.9746 23.3516 12.9746L17.9238 12.9746C17.2676 12.9746 16.8301 13.2891 16.8301 14.0547L16.8301 19.4414C16.8301 20.043 17.2266 20.4805 17.8008 20.4805Z" fill="black" fill-opacity="0.85"/>
 </g>
</svg>
