<?xml version="1.0" encoding="UTF-8"?>
<!--Generator: Apple Native CoreSVG 326-->
<!DOCTYPE svg
PUBLIC "-//W3C//DTD SVG 1.1//EN"
       "http://www.w3.org/Graphics/SVG/1.1/DTD/svg11.dtd">
<svg version="1.1" xmlns="http://www.w3.org/2000/svg" xmlns:xlink="http://www.w3.org/1999/xlink" viewBox="0 0 25.5254 25.2246">
 <g>
  <rect height="25.2246" opacity="0" width="25.5254" x="0" y="0"/>
  <path d="M4.29297 25.1699L20.877 25.1699C23.748 25.1699 25.1699 23.748 25.1699 20.9316L25.1699 4.22461C25.1699 1.4082 23.748 0 20.877 0L4.29297 0C1.43555 0 0 1.4082 0 4.22461L0 20.9316C0 23.748 1.43555 25.1699 4.29297 25.1699ZM4.32031 22.9688C2.95312 22.9688 2.20117 22.2305 2.20117 20.8086L2.20117 4.34766C2.20117 2.92578 2.95312 2.1875 4.32031 2.1875L20.8496 2.1875C22.2031 2.1875 22.9688 2.92578 22.9688 4.34766L22.9688 20.8086C22.9688 22.2305 22.2031 22.9688 20.8496 22.9688Z" fill="black" fill-opacity="0.85"/>
  <path d="M19.6602 14.2324C19.6602 10.9512 17.2812 8.95508 14.0957 8.95508L10.0078 8.95508L8.39453 9.00977L9.47461 8.14844L10.8828 6.78125C11.0742 6.61719 11.1973 6.35742 11.1973 6.08398C11.1973 5.50977 10.7734 5.08594 10.2129 5.08594C9.92578 5.08594 9.70703 5.18164 9.51562 5.38672L5.87891 9.06445C5.66016 9.29688 5.52344 9.58398 5.52344 9.91211C5.52344 10.2266 5.66016 10.5 5.87891 10.7324L9.5293 14.4648C9.7207 14.6562 9.93945 14.7383 10.2266 14.7383C10.7734 14.7383 11.1973 14.3145 11.1973 13.7539C11.1973 13.4941 11.1016 13.2207 10.8965 13.043L9.1875 11.4023L8.39453 10.8145L10.0078 10.8691L14.0957 10.8691C16.1055 10.8691 17.6504 12.0176 17.6504 14.123C17.6504 16.2832 16.1465 17.6094 14.082 17.6094C13.918 17.6094 12.2363 17.6094 12.1816 17.6094C11.5938 17.6094 11.1426 17.9648 11.1426 18.5938C11.1426 19.2227 11.5938 19.5645 12.209 19.5645C12.2773 19.5645 13.918 19.5645 14.082 19.5645C17.2676 19.5645 19.6602 17.5273 19.6602 14.2324Z" fill="black" fill-opacity="0.85"/>
 </g>
</svg>
