<?xml version="1.0" encoding="UTF-8"?>
<!--Generator: Apple Native CoreSVG 326-->
<!DOCTYPE svg
PUBLIC "-//W3C//DTD SVG 1.1//EN"
       "http://www.w3.org/Graphics/SVG/1.1/DTD/svg11.dtd">
<svg version="1.1" xmlns="http://www.w3.org/2000/svg" xmlns:xlink="http://www.w3.org/1999/xlink" viewBox="0 0 28.2461 27.9043">
 <g>
  <rect height="27.9043" opacity="0" width="28.2461" x="0" y="0"/>
  <path d="M13.9453 27.9043C21.6426 27.9043 27.8906 21.6562 27.8906 13.959C27.8906 6.27539 21.6426 0.0136719 13.9453 0.0136719C6.26172 0.0136719 0 6.27539 0 13.959C0 21.6562 6.26172 27.9043 13.9453 27.9043Z" fill="black" fill-opacity="0.85"/>
  <path d="M20.2344 14.6152C20.2344 18.1426 17.4316 20.9727 13.9453 20.9727C10.459 20.9727 7.65625 18.1426 7.65625 14.6699C7.65625 14.1367 8.10742 13.6992 8.62695 13.6992C9.17383 13.6992 9.61133 14.1367 9.61133 14.6699C9.61133 17.0762 11.5391 19.0176 13.9453 19.0176C16.3652 19.0176 18.2793 17.0762 18.2793 14.6699C18.2793 12.25 16.3652 10.3223 13.9453 10.3223C13.7676 10.3223 13.5898 10.3359 13.4531 10.3633L14.8066 11.7031C14.9707 11.8809 15.0801 12.0996 15.0801 12.3457C15.0801 12.8516 14.6973 13.248 14.1777 13.248C13.959 13.248 13.7129 13.125 13.5625 12.9746L10.8281 10.2539C10.4863 9.91211 10.5 9.2832 10.8281 8.94141L13.5352 6.19336C13.6992 6.01562 13.9316 5.89258 14.1777 5.89258C14.6973 5.89258 15.0801 6.30273 15.0801 6.80859C15.0801 7.05469 14.9707 7.30078 14.834 7.45117L13.8496 8.46289C13.9453 8.44922 14.0957 8.43555 14.2188 8.43555C17.3906 8.43555 20.2344 11.1562 20.2344 14.6152Z" fill="white"/>
 </g>
</svg>
