<?xml version="1.0" encoding="UTF-8"?>
<!--Generator: Apple Native CoreSVG 326-->
<!DOCTYPE svg
PUBLIC "-//W3C//DTD SVG 1.1//EN"
       "http://www.w3.org/Graphics/SVG/1.1/DTD/svg11.dtd">
<svg version="1.1" xmlns="http://www.w3.org/2000/svg" xmlns:xlink="http://www.w3.org/1999/xlink" viewBox="0 0 35.4648 22.2168">
 <g>
  <rect height="22.2168" opacity="0" width="35.4648" x="0" y="0"/>
  <path d="M25.3613 4.32031L25.3613 17.8691C25.3613 20.6172 23.7207 22.2031 20.9727 22.2031L6.28906 22.2031C3.54102 22.2031 1.90039 20.6172 1.90039 17.8691L1.90039 4.32031C1.90039 1.58594 3.66406 0 6.28906 0L21.1094 0C23.8574 0 25.3613 1.58594 25.3613 4.32031ZM35.4648 3.99219L35.4648 18.2109C35.4648 19.332 34.7676 20.1113 33.7012 20.1113C33.209 20.1113 32.6621 19.8516 32.1973 19.4414L27.2207 15.1348L27.2207 7.05469L32.1973 2.76172C32.6621 2.35156 33.209 2.0918 33.7012 2.0918C34.7676 2.0918 35.4648 2.87109 35.4648 3.99219ZM10.418 5.41406C9.84375 5.41406 9.40625 5.87891 9.40625 6.4668C9.40625 7.01367 9.87109 7.42383 10.418 7.42383L12.332 7.42383L16.3789 7.17773L13.9863 9.35156L8.23047 15.1348C7.99805 15.3672 7.88867 15.6133 7.88867 15.9141C7.88867 16.4746 8.33984 16.8984 8.94141 16.8984C9.25586 16.8984 9.47461 16.8027 9.69336 16.584L15.4492 10.8145L17.623 8.44922L17.377 12.4824L17.377 14.3691C17.377 14.916 17.7871 15.3809 18.334 15.3809C18.9219 15.3809 19.3867 14.9434 19.3867 14.3691L19.3867 6.53516C19.3867 5.7832 19.0312 5.41406 18.2793 5.41406Z" fill="black" fill-opacity="0.85"/>
 </g>
</svg>
