<?xml version="1.0" encoding="UTF-8"?>
<!--Generator: Apple Native CoreSVG 326-->
<!DOCTYPE svg
PUBLIC "-//W3C//DTD SVG 1.1//EN"
       "http://www.w3.org/Graphics/SVG/1.1/DTD/svg11.dtd">
<svg version="1.1" xmlns="http://www.w3.org/2000/svg" xmlns:xlink="http://www.w3.org/1999/xlink" viewBox="0 0 28.2461 27.9043">
 <g>
  <rect height="27.9043" opacity="0" width="28.2461" x="0" y="0"/>
  <path d="M13.9453 27.8906C21.6426 27.8906 27.8906 21.6426 27.8906 13.9453C27.8906 6.24805 21.6426 0 13.9453 0C6.24805 0 0 6.24805 0 13.9453C0 21.6426 6.24805 27.8906 13.9453 27.8906ZM13.9453 25.5664C7.51953 25.5664 2.32422 20.3711 2.32422 13.9453C2.32422 7.51953 7.51953 2.32422 13.9453 2.32422C20.3711 2.32422 25.5664 7.51953 25.5664 13.9453C25.5664 20.3711 20.3711 25.5664 13.9453 25.5664Z" fill="black" fill-opacity="0.85"/>
  <path d="M4.82617 15.1621L9.77539 15.1621C10.4043 15.1621 10.5547 14.5605 10.1992 14.0684L7.98438 10.9922C7.61523 10.4727 6.98633 10.4453 6.60352 10.9922L4.41602 14.0684C4.06055 14.5605 4.21094 15.1621 4.82617 15.1621ZM13.918 21.6016C15.7363 21.6016 17.3906 20.959 18.5664 20.002C19.25 19.4961 19.2637 18.7715 18.9219 18.3477C18.6074 17.9375 17.9922 17.7871 17.2949 18.2793C16.3789 18.9902 15.2441 19.4551 13.918 19.4551C10.8828 19.4551 8.4082 16.9805 8.4082 13.9453L6.26172 13.9453C6.26172 18.1699 9.69336 21.6016 13.918 21.6016ZM23.0098 12.7148L18.0742 12.7148C17.4316 12.7148 17.2949 13.3301 17.6504 13.8086L19.8652 16.8984C20.2344 17.4043 20.8633 17.4453 21.2461 16.8984L23.4336 13.8086C23.7754 13.3301 23.6387 12.7148 23.0098 12.7148ZM13.918 6.28906C12.1133 6.28906 10.459 6.93164 9.2832 7.875C8.59961 8.39453 8.58594 9.10547 8.92773 9.54297C9.22852 9.93945 9.85742 10.1035 10.5547 9.61133C11.4707 8.88672 12.6055 8.43555 13.918 8.43555C16.9668 8.43555 19.4277 10.9102 19.4277 13.9453L21.5742 13.9453C21.5742 9.7207 18.1562 6.28906 13.918 6.28906Z" fill="black" fill-opacity="0.85"/>
 </g>
</svg>
