<?xml version="1.0" encoding="UTF-8"?>
<!--Generator: Apple Native CoreSVG 326-->
<!DOCTYPE svg
PUBLIC "-//W3C//DTD SVG 1.1//EN"
       "http://www.w3.org/Graphics/SVG/1.1/DTD/svg11.dtd">
<svg version="1.1" xmlns="http://www.w3.org/2000/svg" xmlns:xlink="http://www.w3.org/1999/xlink" viewBox="0 0 33.8105 25.1152">
 <g>
  <rect height="25.1152" opacity="0" width="33.8105" x="0" y="0"/>
  <path d="M3.71875 25.0059L11.9629 25.0059C14.3281 25.0059 15.3398 24.0215 15.3398 21.6973L15.3398 18.5801L18.8535 18.5801L18.8535 23.4883C18.8535 24.4043 19.5234 25.0879 20.4531 25.0879C21.123 25.0879 21.6699 24.8145 22.3262 24.1992L33.1133 14.0137C33.6465 13.5215 33.8105 13.002 33.8105 12.5508C33.8105 12.0859 33.6465 11.5664 33.1133 11.0742L22.3262 0.984375C21.6016 0.300781 21.1504 0 20.4805 0C19.5234 0 18.8535 0.765625 18.8535 1.68164L18.8535 6.98633L9.98047 6.98633C7.61523 6.98633 6.60352 7.9707 6.60352 10.2949L6.60352 13.1523L3.71875 13.1523C1.35352 13.1523 0.341797 14.123 0.341797 16.4473L0.341797 21.6973C0.341797 24.0215 1.35352 25.0059 3.71875 25.0059ZM3.88281 22.8594C2.98047 22.8594 2.54297 22.3672 2.54297 21.3691L2.54297 16.7754C2.54297 15.7773 2.98047 15.2988 3.88281 15.2988L6.63086 15.2988L6.63086 15.9551C6.63086 16.7891 6.89062 17.3906 7.65625 17.8691L13.1387 21.2188L13.1387 21.3691C13.1387 22.3672 12.7012 22.8594 11.7988 22.8594ZM21.2461 22.1484C21.123 22.1484 21.0547 22.0664 21.0547 21.9434L21.0547 16.6523C21.0547 16.3379 20.9043 16.2012 20.5898 16.2012L10.1445 16.2012C9.24219 16.2012 8.80469 15.709 8.80469 14.7109L8.80469 10.4043C8.80469 9.39258 9.24219 8.91406 10.1445 8.91406L20.5898 8.91406C20.9043 8.91406 21.0547 8.77734 21.0547 8.46289L21.0547 3.03516C21.0547 2.92578 21.123 2.84375 21.2461 2.84375C21.3281 2.84375 21.4102 2.89844 21.4785 2.95312L31.2129 12.291C31.3223 12.3867 31.3633 12.4688 31.3633 12.5508C31.3633 12.6328 31.3223 12.7012 31.2129 12.8105L21.4785 22.0254C21.3965 22.1074 21.3145 22.1484 21.2461 22.1484Z" fill="black" fill-opacity="0.85"/>
 </g>
</svg>
