<?xml version="1.0" encoding="UTF-8"?>
<!--Generator: Apple Native CoreSVG 326-->
<!DOCTYPE svg
PUBLIC "-//W3C//DTD SVG 1.1//EN"
       "http://www.w3.org/Graphics/SVG/1.1/DTD/svg11.dtd">
<svg version="1.1" xmlns="http://www.w3.org/2000/svg" xmlns:xlink="http://www.w3.org/1999/xlink" viewBox="0 0 30.1211 32.0332">
 <g>
  <rect height="32.0332" opacity="0" width="30.1211" x="0" y="0"/>
  <path d="M29.7647 29.9551L29.7647 19.168C29.7647 17.541 29.0264 16.8027 27.4131 16.8027L11.0615 16.8027C9.85841 16.8027 9.21583 17.7051 9.21583 18.6621C9.21583 19.332 9.51661 19.9609 10.1592 20.3984L26.4971 31.5957C26.9483 31.8965 27.4404 32.0195 27.919 32.0195C28.9033 32.0195 29.7647 31.3633 29.7647 29.9551ZM27.5361 29.0938C27.5361 29.2715 27.3721 29.2988 27.249 29.2168L12.2236 19.2773C12.0869 19.1953 12.1279 19.0449 12.2783 19.0449L27.1397 19.0449C27.4541 19.0449 27.5361 19.127 27.5361 19.4551ZM29.7647 2.06445C29.7647 0.65625 28.9033 0 27.919 0C27.4404 0 26.9483 0.123047 26.4971 0.423828L10.1592 11.6211C9.51661 12.0586 9.21583 12.6875 9.21583 13.3438C9.21583 14.3145 9.85841 15.2168 11.0615 15.2168L27.4131 15.2168C29.0264 15.2168 29.7647 14.4785 29.7647 12.8516ZM27.5361 2.92578L27.5361 12.5645C27.5361 12.8789 27.4541 12.9746 27.1397 12.9746L12.2783 12.9746C12.1279 12.9746 12.0869 12.8105 12.2236 12.7422L27.249 2.80273C27.3721 2.70703 27.5361 2.73438 27.5361 2.92578Z" fill="black" fill-opacity="0.85"/>
  <path d="M6.04395 24.5547L4.28028 24.5547L4.28028 7.46484L6.04395 7.46484C7.01466 7.46484 7.24708 6.69922 6.68653 5.93359L4.17091 2.48828C3.74708 1.90039 3.26856 1.91406 2.84474 2.48828L0.301767 5.93359C-0.25878 6.69922-0.0400296 7.46484 0.971689 7.46484L2.69435 7.46484L2.69435 24.5547L0.971689 24.5547C-0.0263577 24.5547-0.25878 25.3203 0.315439 26.0723L2.84474 29.5312C3.26856 30.1055 3.74708 30.1191 4.17091 29.5312L6.7002 26.0723C7.24708 25.3203 7.02833 24.5547 6.04395 24.5547Z" fill="black" fill-opacity="0.85"/>
 </g>
</svg>
