<?xml version="1.0" encoding="UTF-8"?>
<!--Generator: Apple Native CoreSVG 326-->
<!DOCTYPE svg
PUBLIC "-//W3C//DTD SVG 1.1//EN"
       "http://www.w3.org/Graphics/SVG/1.1/DTD/svg11.dtd">
<svg version="1.1" xmlns="http://www.w3.org/2000/svg" xmlns:xlink="http://www.w3.org/1999/xlink" viewBox="0 0 28.2461 27.9043">
 <g>
  <rect height="27.9043" opacity="0" width="28.2461" x="0" y="0"/>
  <path d="M13.9453 27.8906C21.6426 27.8906 27.8906 21.6426 27.8906 13.9453C27.8906 6.24805 21.6426 0 13.9453 0C6.24805 0 0 6.24805 0 13.9453C0 21.6426 6.24805 27.8906 13.9453 27.8906ZM13.9453 25.5664C7.51953 25.5664 2.32422 20.3711 2.32422 13.9453C2.32422 7.51953 7.51953 2.32422 13.9453 2.32422C20.3711 2.32422 25.5664 7.51953 25.5664 13.9453C25.5664 20.3711 20.3711 25.5664 13.9453 25.5664Z" fill="black" fill-opacity="0.85"/>
  <path d="M18.2109 17.3359C18.8125 17.3359 19.2227 16.8711 19.2227 16.2422L19.2227 9.78906C19.2227 8.98242 18.7715 8.66797 18.0742 8.66797L11.5938 8.66797C10.9512 8.66797 10.541 9.06445 10.541 9.66602C10.541 10.2676 10.9648 10.6641 11.6211 10.6641L14.1094 10.6641L16.1328 10.4453L14 12.4277L8.95508 17.4727C8.76367 17.6641 8.62695 17.9375 8.62695 18.2109C8.62695 18.8262 9.03711 19.2227 9.63867 19.2227C9.9668 19.2227 10.2129 19.0996 10.418 18.9082L15.4492 13.877L17.418 11.7715L17.2129 13.9043L17.2129 16.2695C17.2129 16.9121 17.6094 17.3359 18.2109 17.3359Z" fill="black" fill-opacity="0.85"/>
 </g>
</svg>
