<?xml version="1.0" encoding="UTF-8"?>
<!--Generator: Apple Native CoreSVG 326-->
<!DOCTYPE svg
PUBLIC "-//W3C//DTD SVG 1.1//EN"
       "http://www.w3.org/Graphics/SVG/1.1/DTD/svg11.dtd">
<svg version="1.1" xmlns="http://www.w3.org/2000/svg" xmlns:xlink="http://www.w3.org/1999/xlink" viewBox="0 0 25.5254 25.1699">
 <g>
  <rect height="25.1699" opacity="0" width="25.5254" x="0" y="0"/>
  <path d="M4.29297 25.1699L20.877 25.1699C23.748 25.1699 25.1699 23.7617 25.1699 20.9453L25.1699 4.23828C25.1699 1.42188 23.748 0 20.877 0L4.29297 0C1.43555 0 0 1.42188 0 4.23828L0 20.9453C0 23.7617 1.43555 25.1699 4.29297 25.1699Z" fill="black" fill-opacity="0.85"/>
  <path d="M6.39844 18.8125C5.82422 18.8125 5.42773 18.4297 5.42773 17.8828L5.42773 7.28711C5.42773 6.74023 5.82422 6.34375 6.39844 6.34375C6.93164 6.34375 7.32812 6.74023 7.32812 7.28711L7.32812 17.8828C7.32812 18.4297 6.93164 18.8125 6.39844 18.8125ZM21.1914 12.5918C21.1914 13.166 20.7812 13.5625 20.2344 13.5625L13.7812 13.5625L11.1836 13.3848L14.0547 15.9414L14.9434 16.7617C15.1484 16.9258 15.2305 17.1582 15.2305 17.4453C15.2305 17.9785 14.834 18.3613 14.2871 18.3613C14.0684 18.3613 13.7676 18.2383 13.5762 18.0469L8.73633 13.3027C8.50391 13.0977 8.4082 12.8652 8.4082 12.5918C8.4082 12.332 8.53125 12.0859 8.73633 11.8809L13.6035 7.0957C13.7949 6.87695 14.041 6.80859 14.2871 6.80859C14.8066 6.80859 15.2305 7.17773 15.2305 7.71094C15.2305 7.9707 15.1484 8.2168 14.9434 8.4082L14.0684 9.25586L11.1973 11.7988L13.7812 11.6621L20.2344 11.6621C20.7812 11.6621 21.1914 12.0586 21.1914 12.5918Z" fill="white"/>
 </g>
</svg>
