<?xml version="1.0" encoding="UTF-8"?>
<!--Generator: Apple Native CoreSVG 326-->
<!DOCTYPE svg
PUBLIC "-//W3C//DTD SVG 1.1//EN"
       "http://www.w3.org/Graphics/SVG/1.1/DTD/svg11.dtd">
<svg version="1.1" xmlns="http://www.w3.org/2000/svg" xmlns:xlink="http://www.w3.org/1999/xlink" viewBox="0 0 28.2461 27.9043">
 <g>
  <rect height="27.9043" opacity="0" width="28.2461" x="0" y="0"/>
  <path d="M13.9453 27.8906C21.6426 27.8906 27.8906 21.6426 27.8906 13.9453C27.8906 6.24805 21.6426 0 13.9453 0C6.24805 0 0 6.24805 0 13.9453C0 21.6426 6.24805 27.8906 13.9453 27.8906ZM13.9453 25.5664C7.51953 25.5664 2.32422 20.3711 2.32422 13.9453C2.32422 7.51953 7.51953 2.32422 13.9453 2.32422C20.3711 2.32422 25.5664 7.51953 25.5664 13.9453C25.5664 20.3711 20.3711 25.5664 13.9453 25.5664Z" fill="black" fill-opacity="0.85"/>
  <path d="M7.13672 19.8242C7.45117 19.8242 7.79297 19.7422 8.03906 19.2773C9.32422 16.8711 11.1152 16.1465 13.9727 16.1465L14.1914 16.1465L14.1914 18.9629C14.1914 19.4551 14.5469 19.8242 15.0391 19.8242C15.4082 19.8242 15.6953 19.6602 16.0371 19.3457L21.8477 13.877C22.1348 13.6172 22.2305 13.3301 22.2305 13.084C22.2305 12.8379 22.1348 12.5508 21.8477 12.291L16.0371 6.86328C15.6543 6.50781 15.4219 6.34375 15.0527 6.34375C14.5469 6.34375 14.1914 6.75391 14.1914 7.24609L14.1914 10.0352L13.9727 10.0352C8.70898 10.0352 6.38477 13.3984 6.38477 18.8398C6.38477 19.4824 6.75391 19.8242 7.13672 19.8242Z" fill="black" fill-opacity="0.85"/>
 </g>
</svg>
