<?xml version="1.0" encoding="UTF-8"?>
<!--Generator: Apple Native CoreSVG 326-->
<!DOCTYPE svg
PUBLIC "-//W3C//DTD SVG 1.1//EN"
       "http://www.w3.org/Graphics/SVG/1.1/DTD/svg11.dtd">
<svg version="1.1" xmlns="http://www.w3.org/2000/svg" xmlns:xlink="http://www.w3.org/1999/xlink" viewBox="0 0 34.7266 25.9902">
 <g>
  <rect height="25.9902" opacity="0" width="34.7266" x="0" y="0"/>
  <path d="M27.0156 23.7617C31.1445 23.7617 34.3711 20.7402 34.3711 16.9805C34.3711 14.1094 32.7168 11.6211 30.0508 10.5C30.0781 4.40234 25.6895 0 20.0977 0C16.3926 0 13.7539 1.98242 12.1133 4.375C8.75 3.39062 5.08594 5.94727 5.01758 9.77539C1.92773 10.2676 0 13.0293 0 16.3652C0 20.3848 3.51367 23.7617 8.18945 23.7617ZM27.0156 21.5605L8.18945 21.5605C4.74414 21.5605 2.20117 19.1543 2.20117 16.3652C2.20117 13.6309 3.85547 11.457 6.75391 11.457C6.94531 11.457 7.01367 11.3613 7.01367 11.1836C7.01367 6.97266 10.0488 5.72852 12.8516 6.64453C13.0156 6.69922 13.1113 6.6582 13.1934 6.50781C14.5195 4.14258 16.5566 2.20117 20.0977 2.20117C24.582 2.20117 27.6855 5.75586 27.918 9.81641C27.959 10.4453 27.918 11.1836 27.8633 11.8262C27.8496 12.0039 27.918 12.0996 28.082 12.1406C30.5703 12.6875 32.1699 14.5059 32.1699 16.9805C32.1699 19.5234 29.9277 21.5605 27.0156 21.5605Z" fill="black" fill-opacity="0.85"/>
  <path d="M10.3633 13.5078C10.0898 13.9043 10.2129 14.3828 10.7051 14.3828L11.8398 14.3828C12.373 17.3496 14.793 19.4141 17.8418 19.4141C19.1953 19.4141 20.5352 18.9492 21.4785 18.1699C21.9844 17.7598 22.1211 17.1992 21.7383 16.7754C21.3555 16.3926 20.877 16.4473 20.4258 16.7617C19.6602 17.377 18.8945 17.7051 17.8418 17.7051C15.7227 17.7051 13.9453 16.2832 13.4668 14.3828L14.5879 14.3828C15.0938 14.3828 15.2305 13.8906 14.9297 13.5078L13.1934 11.0742C12.9062 10.6777 12.3867 10.6504 12.0859 11.0742ZM13.9453 9.99414C14.3145 10.377 14.8066 10.3223 15.2305 10.0078C16.0098 9.37891 16.7891 9.06445 17.8281 9.06445C19.9609 9.06445 21.7246 10.5 22.2031 12.4004L21.0273 12.4004C20.5215 12.4004 20.3848 12.8789 20.6855 13.2754L22.4219 15.6953C22.709 16.0918 23.2285 16.1191 23.5293 15.6953L25.252 13.2754C25.5254 12.8789 25.4023 12.4004 24.9102 12.4004L23.8438 12.4004C23.3105 9.41992 20.8906 7.35547 17.8281 7.35547C16.4883 7.35547 15.1348 7.83398 14.2051 8.61328C13.6992 9.02344 13.5625 9.58398 13.9453 9.99414Z" fill="black" fill-opacity="0.85"/>
 </g>
</svg>
