<?xml version="1.0" encoding="UTF-8"?>
<!--Generator: Apple Native CoreSVG 326-->
<!DOCTYPE svg
PUBLIC "-//W3C//DTD SVG 1.1//EN"
       "http://www.w3.org/Graphics/SVG/1.1/DTD/svg11.dtd">
<svg version="1.1" xmlns="http://www.w3.org/2000/svg" xmlns:xlink="http://www.w3.org/1999/xlink" viewBox="0 0 35.2765 29.3262">
 <g>
  <rect height="29.3262" opacity="0" width="35.2765" x="0" y="0"/>
  <path d="M11.9234 25.0332C11.9234 27.8906 13.3453 29.3125 16.1617 29.3125L30.6812 29.3125C33.5113 29.3125 34.9195 27.8906 34.9195 25.0332L34.9195 4.29297C34.9195 1.44922 33.5113 0 30.6812 0L16.1617 0C13.3453 0 11.9234 1.44922 11.9234 4.29297ZM14.1246 24.9922L14.1246 4.33398C14.1246 2.9668 14.8629 2.20117 16.2847 2.20117L30.5718 2.20117C31.9937 2.20117 32.7183 2.9668 32.7183 4.33398L32.7183 24.9922C32.7183 26.3594 31.9937 27.1113 30.5718 27.1113L16.2847 27.1113C14.8629 27.1113 14.1246 26.3594 14.1246 24.9922Z" fill="black" fill-opacity="0.85"/>
  <path d="M30.0386 21.1777C30.5308 21.1777 30.9 20.9043 30.9 20.3711L30.9 7.875C30.9 7.32812 30.5308 7.06836 30.0386 7.06836C28.5347 7.06836 24.6519 9.32422 24.6519 14.123C24.6519 18.9219 28.5347 21.1777 30.0386 21.1777ZM19.7027 17.623C21.8902 17.623 23.5582 16.0645 23.5445 14.123C23.5308 12.168 21.8902 10.6094 19.7027 10.6094C17.6519 10.6094 15.9566 12.168 15.9566 14.123C15.9566 16.0645 17.6519 17.623 19.7027 17.623Z" fill="black" fill-opacity="0.85"/>
  <path d="M0.329661 12.3457C-0.353933 13.1113 0.0835669 14.1504 1.10896 14.1504L3.43318 14.1504L3.43318 20.1387C3.43318 20.7402 3.89802 21.2051 4.51325 21.2051C5.10114 21.2051 5.56599 20.7402 5.56599 20.1387L5.56599 14.1504L7.86286 14.1504C8.94294 14.1504 9.31208 13.0703 8.65583 12.3457L5.26521 8.51758C4.81404 7.99805 4.17146 7.99805 3.70661 8.51758Z" fill="black" fill-opacity="0.85"/>
 </g>
</svg>
