<?xml version="1.0" encoding="UTF-8"?>
<!--Generator: Apple Native CoreSVG 326-->
<!DOCTYPE svg
PUBLIC "-//W3C//DTD SVG 1.1//EN"
       "http://www.w3.org/Graphics/SVG/1.1/DTD/svg11.dtd">
<svg version="1.1" xmlns="http://www.w3.org/2000/svg" xmlns:xlink="http://www.w3.org/1999/xlink" viewBox="0 0 27.0703 26.9746">
 <g>
  <rect height="26.9746" opacity="0" width="27.0703" x="0" y="0"/>
  <path d="M0 10.9102C0 16.9258 4.89453 21.8203 10.9102 21.8203C13.2891 21.8203 15.4629 21.0547 17.2539 19.7695L23.9805 26.5098C24.2949 26.8242 24.7051 26.9746 25.1426 26.9746C26.0723 26.9746 26.7148 26.2773 26.7148 25.3613C26.7148 24.9238 26.5508 24.5273 26.2637 24.2402L19.5781 17.5137C20.9863 15.6816 21.8203 13.3984 21.8203 10.9102C21.8203 4.89453 16.9258 0 10.9102 0C4.89453 0 0 4.89453 0 10.9102ZM2.33789 10.9102C2.33789 6.17969 6.17969 2.33789 10.9102 2.33789C15.6406 2.33789 19.4824 6.17969 19.4824 10.9102C19.4824 15.6406 15.6406 19.4824 10.9102 19.4824C6.17969 19.4824 2.33789 15.6406 2.33789 10.9102ZM6.09766 10.3496C6.09766 11.0879 6.87695 11.1836 7.27344 10.8008L8.42188 9.66602L12.0996 13.3438L10.9102 14.5059C10.4863 14.916 10.623 15.6816 11.3613 15.6816L14.9023 15.6816C15.3945 15.6816 15.668 15.3672 15.668 14.8066L15.668 11.4434C15.668 10.7051 14.8887 10.6094 14.4922 10.9922L13.3574 12.1133L9.67969 8.43555L10.8555 7.28711C11.2793 6.87695 11.1426 6.11133 10.4043 6.11133L6.86328 6.11133C6.37109 6.11133 6.09766 6.42578 6.09766 6.98633Z" fill="black" fill-opacity="0.85"/>
 </g>
</svg>
