<?xml version="1.0" encoding="UTF-8"?>
<!--Generator: Apple Native CoreSVG 326-->
<!DOCTYPE svg
PUBLIC "-//W3C//DTD SVG 1.1//EN"
       "http://www.w3.org/Graphics/SVG/1.1/DTD/svg11.dtd">
<svg version="1.1" xmlns="http://www.w3.org/2000/svg" xmlns:xlink="http://www.w3.org/1999/xlink" viewBox="0 0 28.2461 27.9043">
 <g>
  <rect height="27.9043" opacity="0" width="28.2461" x="0" y="0"/>
  <path d="M13.9453 27.9043C21.6426 27.9043 27.8906 21.6562 27.8906 13.959C27.8906 6.27539 21.6426 0.0136719 13.9453 0.0136719C6.26172 0.0136719 0 6.27539 0 13.959C0 21.6562 6.26172 27.9043 13.9453 27.9043Z" fill="black" fill-opacity="0.85"/>
  <path d="M7.65625 14.6016C7.65625 11.1426 10.5 8.43555 13.6719 8.43555C13.7949 8.43555 13.9453 8.44922 14.0547 8.46289L13.0703 7.45117C12.9199 7.28711 12.8105 7.04102 12.8105 6.79492C12.8105 6.28906 13.1934 5.89258 13.7129 5.89258C13.959 5.89258 14.2051 6.00195 14.3555 6.17969L17.0625 8.92773C17.3906 9.2832 17.418 9.89844 17.0625 10.2402L14.3281 12.9746C14.1777 13.125 13.9453 13.248 13.7129 13.248C13.207 13.248 12.8105 12.8516 12.8105 12.3457C12.8105 12.0996 12.9199 11.8672 13.084 11.7031L14.4512 10.3496C14.3145 10.3223 14.123 10.3086 13.9453 10.3086C11.5391 10.3086 9.61133 12.25 9.61133 14.6562C9.61133 17.0762 11.5391 19.0176 13.9453 19.0176C16.3516 19.0176 18.2793 17.0762 18.2793 14.6562C18.2793 14.123 18.7305 13.6855 19.2637 13.6855C19.7832 13.6855 20.2344 14.123 20.2344 14.6562C20.2344 18.1289 17.4316 20.959 13.9453 20.959C10.459 20.959 7.65625 18.1289 7.65625 14.6016Z" fill="white"/>
 </g>
</svg>
