<?xml version="1.0" encoding="UTF-8"?>
<!--Generator: Apple Native CoreSVG 326-->
<!DOCTYPE svg
PUBLIC "-//W3C//DTD SVG 1.1//EN"
       "http://www.w3.org/Graphics/SVG/1.1/DTD/svg11.dtd">
<svg version="1.1" xmlns="http://www.w3.org/2000/svg" xmlns:xlink="http://www.w3.org/1999/xlink" viewBox="0 0 55.6445 22.6543">
 <g>
  <rect height="22.6543" opacity="0" width="55.6445" x="0" y="0"/>
  <path d="M0 11.3203C0 11.8262 0.21875 12.3184 0.65625 12.7285L10.2402 21.7793C10.8828 22.3809 11.3887 22.627 12.0312 22.627C12.9473 22.627 13.6172 21.9434 13.6172 21.041L13.6172 16.4199L22.7363 16.4199C24.7324 16.4199 25.9355 15.2031 25.9355 13.2617L25.9355 9.39258C25.9355 7.42383 24.7461 6.24805 22.7363 6.24805L13.6172 6.24805L13.6172 1.6543C13.6172 0.738281 12.9199 0 12.0176 0C11.416 0 11.0059 0.21875 10.2402 0.916016L0.65625 9.89844C0.191406 10.3359 0 10.8145 0 11.3203ZM55.2891 11.3203C55.2891 10.8281 55.0977 10.3359 54.6328 9.89844L45.0352 0.916016C44.2832 0.232422 43.8867 0.0136719 43.2715 0.0136719C42.3691 0.0136719 41.6719 0.738281 41.6719 1.6543L41.6719 6.24805L32.5527 6.24805C30.543 6.24805 29.3535 7.42383 29.3535 9.39258L29.3535 13.2617C29.3535 15.2031 30.5566 16.4199 32.5527 16.4199L41.6719 16.4199L41.6719 21.041C41.6719 21.9434 42.3418 22.6133 43.2578 22.6133C43.9004 22.6133 44.3926 22.3672 45.0352 21.7793L54.6328 12.7285C55.0703 12.3184 55.2891 11.8125 55.2891 11.3203Z" fill="black" fill-opacity="0.85"/>
 </g>
</svg>
