<?xml version="1.0" encoding="UTF-8"?>
<!--Generator: Apple Native CoreSVG 326-->
<!DOCTYPE svg
PUBLIC "-//W3C//DTD SVG 1.1//EN"
       "http://www.w3.org/Graphics/SVG/1.1/DTD/svg11.dtd">
<svg version="1.1" xmlns="http://www.w3.org/2000/svg" xmlns:xlink="http://www.w3.org/1999/xlink" viewBox="0 0 28.2461 27.9043">
 <g>
  <rect height="27.9043" opacity="0" width="28.2461" x="0" y="0"/>
  <path d="M13.9453 27.8906C21.6426 27.8906 27.8906 21.6289 27.8906 13.9453C27.8906 6.24805 21.6426 0 13.9453 0C6.26172 0 0 6.24805 0 13.9453C0 21.6289 6.26172 27.8906 13.9453 27.8906Z" fill="black" fill-opacity="0.85"/>
  <path d="M21.0684 13.9316C21.0684 14.2188 20.9727 14.4648 20.6855 14.752L16.2012 19.4004C15.9961 19.6191 15.7637 19.7285 15.4629 19.7285C14.8887 19.7285 14.4785 19.3047 14.4785 18.7168C14.4785 18.4434 14.5742 18.1289 14.8203 17.9375L17.0898 15.791L17.9648 14.9707L15.8457 15.0527L7.94336 15.0527C7.3418 15.0527 6.83594 14.5469 6.83594 13.9316C6.83594 13.3164 7.3418 12.7969 7.94336 12.7969L15.8457 12.7969L17.9648 12.8926L17.0898 12.0723L14.8203 9.92578C14.5742 9.73438 14.4785 9.43359 14.4785 9.16016C14.4785 8.57227 14.8887 8.13477 15.4629 8.13477C15.7637 8.13477 15.9961 8.24414 16.2012 8.46289L20.6855 13.1113C20.9727 13.3984 21.0684 13.6309 21.0684 13.9316Z" fill="white"/>
 </g>
</svg>
