<?xml version="1.0" encoding="UTF-8"?>
<!--Generator: Apple Native CoreSVG 326-->
<!DOCTYPE svg
PUBLIC "-//W3C//DTD SVG 1.1//EN"
       "http://www.w3.org/Graphics/SVG/1.1/DTD/svg11.dtd">
<svg version="1.1" xmlns="http://www.w3.org/2000/svg" xmlns:xlink="http://www.w3.org/1999/xlink" viewBox="0 0 28.2461 27.9043">
 <g>
  <rect height="27.9043" opacity="0" width="28.2461" x="0" y="0"/>
  <path d="M13.9453 27.9043C21.6426 27.9043 27.8906 21.6562 27.8906 13.959C27.8906 6.27539 21.6426 0.0136719 13.9453 0.0136719C6.26172 0.0136719 0 6.27539 0 13.959C0 21.6562 6.26172 27.9043 13.9453 27.9043Z" fill="#007aff"/>
  <path d="M12.6465 20.043C12.2773 20.043 11.9902 19.8789 11.6348 19.5508L5.63281 13.918C5.3457 13.6445 5.25 13.3711 5.25 13.0977C5.25 12.8379 5.3457 12.5645 5.63281 12.291L11.6348 6.69922C12.0312 6.31641 12.2637 6.16602 12.6328 6.16602C13.166 6.16602 13.5488 6.57617 13.5488 7.08203L13.5488 9.95312L13.7676 9.95312C19.1953 9.95312 21.5879 13.4258 21.5879 19.0449C21.5879 19.7012 21.1914 20.043 20.7949 20.043C20.4668 20.043 20.125 19.9609 19.8652 19.4824C18.5527 17.0078 16.6934 16.2559 13.7676 16.2559L13.5488 16.2559L13.5488 19.168C13.5488 19.6602 13.166 20.043 12.6465 20.043Z" fill="white"/>
 </g>
</svg>
