<?xml version="1.0" encoding="UTF-8"?>
<!--Generator: Apple Native CoreSVG 326-->
<!DOCTYPE svg
PUBLIC "-//W3C//DTD SVG 1.1//EN"
       "http://www.w3.org/Graphics/SVG/1.1/DTD/svg11.dtd">
<svg version="1.1" xmlns="http://www.w3.org/2000/svg" xmlns:xlink="http://www.w3.org/1999/xlink" viewBox="0 0 32.5938 25.1699">
 <g>
  <rect height="25.1699" opacity="0" width="32.5938" x="0" y="0"/>
  <path d="M4.29297 25.1699L27.9453 25.1699C30.8164 25.1699 32.2383 23.7617 32.2383 20.9453L32.2383 4.23828C32.2383 1.42188 30.8164 0 27.9453 0L4.29297 0C1.43555 0 0 1.42188 0 4.23828L0 20.9453C0 23.7617 1.43555 25.1699 4.29297 25.1699Z" fill="black" fill-opacity="0.85"/>
  <path d="M14.3828 4.44336C14.9844 4.44336 15.3945 4.9082 15.3945 5.53711L15.3945 11.0879C15.3945 11.8672 14.957 12.209 14.2734 12.209L8.66797 12.209C8.05273 12.209 7.62891 11.7988 7.62891 11.1973C7.62891 10.6094 8.05273 10.1992 8.69531 10.1992L10.5137 10.1992L12.2637 10.377L10.3633 8.64062L7.47852 5.72852C7.30078 5.53711 7.15039 5.27734 7.15039 5.00391C7.15039 4.38867 7.56055 3.97852 8.14844 3.97852C8.47656 3.97852 8.72266 4.10156 8.92773 4.29297L11.8125 7.19141L13.5625 9.05078L13.3984 7.20508L13.3984 5.50977C13.3984 4.88086 13.7949 4.44336 14.3828 4.44336ZM17.8555 20.7266C17.2539 20.7266 16.8438 20.2754 16.8438 19.6465L16.8438 14.0957C16.8438 13.3027 17.2949 12.9746 17.9785 12.9746L23.5703 12.9746C24.1855 12.9746 24.623 13.3848 24.623 13.9863C24.623 14.5742 24.1855 14.9844 23.543 14.9844L21.7246 14.9844L19.9746 14.8066L21.875 16.543L24.7734 19.4414C24.9512 19.6328 25.1016 19.9062 25.1016 20.1797C25.1016 20.7949 24.6777 21.1914 24.0898 21.1914C23.7617 21.1914 23.5156 21.0684 23.3105 20.877L20.4258 17.9922L18.6758 16.1191L18.8398 17.9785L18.8398 19.6738C18.8398 20.3027 18.4434 20.7266 17.8555 20.7266Z" fill="white"/>
 </g>
</svg>
