<?xml version="1.0" encoding="UTF-8"?>
<!--Generator: Apple Native CoreSVG 326-->
<!DOCTYPE svg
PUBLIC "-//W3C//DTD SVG 1.1//EN"
       "http://www.w3.org/Graphics/SVG/1.1/DTD/svg11.dtd">
<svg version="1.1" xmlns="http://www.w3.org/2000/svg" xmlns:xlink="http://www.w3.org/1999/xlink" viewBox="0 0 28.2461 27.9043">
 <g>
  <rect height="27.9043" opacity="0" width="28.2461" x="0" y="0"/>
  <path d="M13.9453 27.8906C21.6426 27.8906 27.8906 21.6426 27.8906 13.9453C27.8906 6.24805 21.6426 0 13.9453 0C6.24805 0 0 6.24805 0 13.9453C0 21.6426 6.24805 27.8906 13.9453 27.8906ZM13.9453 25.5664C7.51953 25.5664 2.32422 20.3711 2.32422 13.9453C2.32422 7.51953 7.51953 2.32422 13.9453 2.32422C20.3711 2.32422 25.5664 7.51953 25.5664 13.9453C25.5664 20.3711 20.3711 25.5664 13.9453 25.5664Z" fill="black" fill-opacity="0.85"/>
  <path d="M5.48242 13.959C5.48242 14.5059 5.86523 14.875 6.38477 14.875L12.6602 14.875L15.1758 14.7246L12.4004 17.1855L11.5254 17.9922C11.334 18.1562 11.252 18.375 11.252 18.6484C11.252 19.1816 11.6348 19.5371 12.1543 19.5371C12.373 19.5371 12.6602 19.4141 12.8516 19.2363L17.5547 14.6426C17.7598 14.4512 17.8555 14.2051 17.8555 13.959C17.8555 13.6992 17.7461 13.4668 17.5547 13.2617L12.8379 8.62695C12.6328 8.42188 12.4004 8.33984 12.1543 8.33984C11.6621 8.33984 11.252 8.69531 11.252 9.21484C11.252 9.46094 11.334 9.70703 11.5254 9.88477L12.3867 10.7324L15.1621 13.1934L12.6602 13.043L6.38477 13.043C5.86523 13.043 5.48242 13.4258 5.48242 13.959ZM19.8105 19.9746C20.3574 19.9746 20.7402 19.6055 20.7402 19.0723L20.7402 8.80469C20.7402 8.27148 20.3574 7.90234 19.8105 7.90234C19.291 7.90234 18.9082 8.27148 18.9082 8.80469L18.9082 19.0723C18.9082 19.6055 19.291 19.9746 19.8105 19.9746Z" fill="black" fill-opacity="0.85"/>
 </g>
</svg>
