<?xml version="1.0" encoding="UTF-8"?>
<!--Generator: Apple Native CoreSVG 326-->
<!DOCTYPE svg
PUBLIC "-//W3C//DTD SVG 1.1//EN"
       "http://www.w3.org/Graphics/SVG/1.1/DTD/svg11.dtd">
<svg version="1.1" xmlns="http://www.w3.org/2000/svg" xmlns:xlink="http://www.w3.org/1999/xlink" viewBox="0 0 25.4434 29.4902">
 <g>
  <rect height="29.4902" opacity="0" width="25.4434" x="0" y="0"/>
  <path d="M12.5371 0.0136719C12.0859 0.0136719 11.5664 0.191406 11.0742 0.710938L0.888672 11.498C0.273438 12.1543 0 12.7012 0 13.3711C0 14.3008 0.683594 14.9707 1.59961 14.9707L6.82227 14.9707L6.82227 26.0723C6.82227 28.2324 8.05273 29.4902 10.1719 29.4902L14.8887 29.4902C17.0078 29.4902 18.2383 28.2324 18.2383 26.0723L18.2383 14.9707L23.4062 14.9707C24.3223 14.9707 25.0879 14.3008 25.0879 13.3438C25.0879 12.6738 24.7871 12.2227 24.1035 11.498L14.0137 0.710938C13.5215 0.177734 13.002 0.0136719 12.5371 0.0136719ZM12.5371 2.46094C12.6191 2.46094 12.7012 2.50195 12.7969 2.61133L22.1348 12.3457C22.2031 12.4141 22.2441 12.4961 22.2441 12.5781C22.2441 12.7012 22.1758 12.7695 22.0527 12.7695L16.625 12.7695C16.3105 12.7695 16.1738 12.9199 16.1738 13.2344L16.1738 26.0449C16.1738 26.9199 15.6816 27.4258 14.793 27.4258L10.2812 27.4258C9.39258 27.4258 8.88672 26.9199 8.88672 26.0449L8.88672 13.2344C8.88672 12.9199 8.75 12.7695 8.43555 12.7695L3.14453 12.7695C3.02148 12.7695 2.93945 12.7012 2.93945 12.5918C2.93945 12.5098 2.98047 12.4277 3.0625 12.3457L12.2773 2.61133C12.3867 2.50195 12.4551 2.46094 12.5371 2.46094Z" fill="black" fill-opacity="0.85"/>
 </g>
</svg>
