<?xml version="1.0" encoding="UTF-8"?>
<!--Generator: Apple Native CoreSVG 326-->
<!DOCTYPE svg
PUBLIC "-//W3C//DTD SVG 1.1//EN"
       "http://www.w3.org/Graphics/SVG/1.1/DTD/svg11.dtd">
<svg version="1.1" xmlns="http://www.w3.org/2000/svg" xmlns:xlink="http://www.w3.org/1999/xlink" viewBox="0 0 31.3633 28.6426">
 <g>
  <rect height="28.6426" opacity="0" width="31.3633" x="0" y="0"/>
  <path d="M5.93359 28.6426C7.7793 28.6426 11.5527 26.7832 14.3281 24.8008C23.8574 25.0605 31.0078 19.5918 31.0078 12.4277C31.0078 5.55078 24.1172 0 15.5039 0C6.89062 0 0 5.55078 0 12.4277C0 16.9121 2.87109 20.8906 7.19141 22.8867C6.57617 24.0762 5.42773 25.6895 4.8125 26.4961C4.08789 27.4531 4.52539 28.6426 5.93359 28.6426ZM7.36914 26.373C7.25977 26.4141 7.21875 26.332 7.28711 26.2363C8.05273 25.293 9.14648 23.8711 9.61133 22.9961C9.99414 22.2852 9.89844 21.6562 9.02344 21.2461C4.73047 19.25 2.26953 16.0645 2.26953 12.4277C2.26953 6.82227 8.13477 2.25586 15.5039 2.25586C22.8867 2.25586 28.752 6.82227 28.752 12.4277C28.752 18.0195 22.8867 22.5859 15.5039 22.5859C15.2305 22.5859 14.8066 22.5723 14.2598 22.5586C13.6855 22.5586 13.248 22.7363 12.7285 23.1465C11.0469 24.3633 8.61328 25.8672 7.36914 26.373Z" fill="black" fill-opacity="0.85"/>
  <path d="M15.5176 19.4551C15.8047 19.4551 16.0371 19.3594 16.3105 19.0859L20.8223 14.7383C21.0273 14.5332 21.1367 14.3145 21.1367 14.0273C21.1367 13.4668 20.7129 13.0703 20.1387 13.0703C19.8789 13.0703 19.5918 13.166 19.4004 13.3984L17.3223 15.6133L16.5156 16.4609L16.6113 14.4102L16.6113 6.72656C16.6113 6.15234 16.1055 5.66016 15.5176 5.66016C14.9297 5.66016 14.4375 6.15234 14.4375 6.72656L14.4375 14.4102L14.5195 16.4609L13.7129 15.6133L11.6348 13.3984C11.4434 13.166 11.1426 13.0703 10.8828 13.0703C10.3086 13.0703 9.89844 13.4668 9.89844 14.0273C9.89844 14.3145 10.0078 14.5332 10.2129 14.7383L14.7246 19.0859C14.998 19.3594 15.2441 19.4551 15.5176 19.4551Z" fill="black" fill-opacity="0.85"/>
 </g>
</svg>
