<?xml version="1.0" encoding="UTF-8"?>
<!--Generator: Apple Native CoreSVG 326-->
<!DOCTYPE svg
PUBLIC "-//W3C//DTD SVG 1.1//EN"
       "http://www.w3.org/Graphics/SVG/1.1/DTD/svg11.dtd">
<svg version="1.1" xmlns="http://www.w3.org/2000/svg" xmlns:xlink="http://www.w3.org/1999/xlink" viewBox="0 0 28.2461 27.9043">
 <g>
  <rect height="27.9043" opacity="0" width="28.2461" x="0" y="0"/>
  <path d="M13.9453 27.8906C21.6426 27.8906 27.8906 21.6426 27.8906 13.9453C27.8906 6.24805 21.6426 0 13.9453 0C6.24805 0 0 6.24805 0 13.9453C0 21.6426 6.24805 27.8906 13.9453 27.8906ZM13.9453 25.5664C7.51953 25.5664 2.32422 20.3711 2.32422 13.9453C2.32422 7.51953 7.51953 2.32422 13.9453 2.32422C20.3711 2.32422 25.5664 7.51953 25.5664 13.9453C25.5664 20.3711 20.3711 25.5664 13.9453 25.5664Z" fill="black" fill-opacity="0.85"/>
  <path d="M18.2109 10.5547C17.6094 10.5547 17.2129 10.9648 17.2129 11.6211L17.2129 13.9863L17.418 16.1191L15.4492 14.0137L10.418 8.98242C10.2129 8.79102 9.9668 8.66797 9.63867 8.66797C9.03711 8.66797 8.62695 9.06445 8.62695 9.67969C8.62695 9.95312 8.76367 10.2266 8.95508 10.418L14 15.4492L16.1328 17.4453L14.1094 17.2266L11.6211 17.2266C10.9648 17.2266 10.541 17.623 10.541 18.2246C10.541 18.8262 10.9512 19.2227 11.5938 19.2227L18.0742 19.2227C18.7715 19.2227 19.2227 18.9082 19.2227 18.1016L19.2227 11.6484C19.2227 11.0059 18.8125 10.5547 18.2109 10.5547Z" fill="black" fill-opacity="0.85"/>
 </g>
</svg>
