<?xml version="1.0" encoding="UTF-8"?>
<!--Generator: Apple Native CoreSVG 326-->
<!DOCTYPE svg
PUBLIC "-//W3C//DTD SVG 1.1//EN"
       "http://www.w3.org/Graphics/SVG/1.1/DTD/svg11.dtd">
<svg version="1.1" xmlns="http://www.w3.org/2000/svg" xmlns:xlink="http://www.w3.org/1999/xlink" viewBox="0 0 28.2461 27.9043">
 <g>
  <rect height="27.9043" opacity="0" width="28.2461" x="0" y="0"/>
  <path d="M13.9453 27.8906C21.6426 27.8906 27.8906 21.6426 27.8906 13.9453C27.8906 6.24805 21.6426 0 13.9453 0C6.24805 0 0 6.24805 0 13.9453C0 21.6426 6.24805 27.8906 13.9453 27.8906ZM13.9453 25.5664C7.51953 25.5664 2.32422 20.3711 2.32422 13.9453C2.32422 7.51953 7.51953 2.32422 13.9453 2.32422C20.3711 2.32422 25.5664 7.51953 25.5664 13.9453C25.5664 20.3711 20.3711 25.5664 13.9453 25.5664Z" fill="black" fill-opacity="0.85"/>
  <path d="M7.51953 9.20117C7.16406 9.55664 7.17773 10.1855 7.51953 10.5273L10.9648 13.8906C11.1426 14.041 11.3887 14.1504 11.6074 14.1504C12.1133 14.1504 12.4824 13.7949 12.4824 13.2891C12.4824 13.043 12.3867 12.8242 12.2227 12.6602L10.7734 11.252L10.1992 10.7188L10.8418 10.7598L19.7148 10.7598C20.2207 10.7598 20.6035 10.3633 20.6035 9.85742C20.6035 9.35156 20.2344 8.98242 19.7148 8.98242L10.8555 8.98242L10.2129 8.99609L10.7734 8.49023L12.2227 7.08203C12.3867 6.91797 12.4824 6.68555 12.4824 6.45312C12.4824 5.93359 12.1133 5.57812 11.6074 5.57812C11.3887 5.57812 11.1289 5.6875 10.9648 5.86523ZM20.3301 18.7031C20.6992 18.334 20.6719 17.7734 20.3301 17.418L16.8848 14.0547C16.7344 13.8906 16.4746 13.7812 16.2422 13.7812C15.7227 13.7812 15.3672 14.1367 15.3672 14.6426C15.3672 14.8887 15.4629 15.1074 15.627 15.2715L17.0898 16.6797L17.6641 17.2129L17.0078 17.1719L8.13477 17.1719C7.64258 17.1719 7.25977 17.541 7.25977 18.0605C7.25977 18.5664 7.62891 18.9492 8.13477 18.9492L16.9941 18.9492L17.6641 18.9355L17.0898 19.4414L15.6406 20.8496C15.4766 21.0273 15.3672 21.2324 15.3672 21.4785C15.3672 21.9844 15.75 22.3535 16.2422 22.3535C16.4473 22.3535 16.707 22.2441 16.8848 22.0801Z" fill="black" fill-opacity="0.85"/>
 </g>
</svg>
