<?xml version="1.0" encoding="UTF-8"?>
<!--Generator: Apple Native CoreSVG 326-->
<!DOCTYPE svg
PUBLIC "-//W3C//DTD SVG 1.1//EN"
       "http://www.w3.org/Graphics/SVG/1.1/DTD/svg11.dtd">
<svg version="1.1" xmlns="http://www.w3.org/2000/svg" xmlns:xlink="http://www.w3.org/1999/xlink" viewBox="0 0 36.3495 25.6245">
 <g>
  <rect height="25.6245" opacity="0" width="36.3495" x="0" y="0"/>
  <path d="M13.0546 3.16677L34.8886 3.16677C35.5039 3.16677 35.9961 2.68825 35.9961 2.07302C35.9961 1.45778 35.5039 0.965594 34.8886 0.965594L13.0546 0.965594C12.4257 0.965594 11.9472 1.45778 11.9472 2.07302C11.9472 2.68825 12.4257 3.16677 13.0546 3.16677ZM13.0546 10.3308L34.8886 10.3308C35.5039 10.3308 35.9961 9.83864 35.9961 9.22341C35.9961 8.60817 35.5039 8.12966 34.8886 8.12966L13.0546 8.12966C12.4257 8.12966 11.9472 8.60817 11.9472 9.22341C11.9472 9.83864 12.4257 10.3308 13.0546 10.3308ZM13.0546 17.4812L34.8886 17.4812C35.5039 17.4812 35.9961 17.0027 35.9961 16.3875C35.9961 15.7586 35.5039 15.28 34.8886 15.28L13.0546 15.28C12.4257 15.28 11.9472 15.7586 11.9472 16.3875C11.9472 17.0027 12.4257 17.4812 13.0546 17.4812ZM13.0546 24.6316L24.7988 24.6316C25.414 24.6316 25.9062 24.1531 25.9062 23.5379C25.9062 22.9226 25.414 22.4304 24.7988 22.4304L13.0546 22.4304C12.4257 22.4304 11.9472 22.9226 11.9472 23.5379C11.9472 24.1531 12.4257 24.6316 13.0546 24.6316Z" fill="black" fill-opacity="0.85"/>
  <path d="M4.44137 25.2332L7.17574 21.5828C7.72262 20.8445 7.43551 19.9148 6.46481 19.9148L4.5234 19.9148L4.5234 5.69606L6.46481 5.69606C7.40817 5.69606 7.74996 4.79372 7.17574 4.02809L4.44137 0.364032C4.07223-0.128156 3.36129-0.114484 3.00582 0.364032L0.271447 4.02809C-0.2891 4.79372 0.0526967 5.69606 0.982384 5.69606L2.93746 5.69606L2.93746 19.9148L0.982384 19.9148C0.0526967 19.9148-0.2891 20.8172 0.271447 21.5828L3.00582 25.2332C3.37496 25.739 4.07223 25.739 4.44137 25.2332Z" fill="black" fill-opacity="0.85"/>
 </g>
</svg>
