<?xml version="1.0" encoding="UTF-8"?>
<!--Generator: Apple Native CoreSVG 326-->
<!DOCTYPE svg
PUBLIC "-//W3C//DTD SVG 1.1//EN"
       "http://www.w3.org/Graphics/SVG/1.1/DTD/svg11.dtd">
<svg version="1.1" xmlns="http://www.w3.org/2000/svg" xmlns:xlink="http://www.w3.org/1999/xlink" viewBox="0 0 28.2461 27.9043">
 <g>
  <rect height="27.9043" opacity="0" width="28.2461" x="0" y="0"/>
  <path d="M13.9453 27.8906C21.6426 27.8906 27.8906 21.6426 27.8906 13.9453C27.8906 6.24805 21.6426 0 13.9453 0C6.24805 0 0 6.24805 0 13.9453C0 21.6426 6.24805 27.8906 13.9453 27.8906ZM13.9453 25.5664C7.51953 25.5664 2.32422 20.3711 2.32422 13.9453C2.32422 7.51953 7.51953 2.32422 13.9453 2.32422C20.3711 2.32422 25.5664 7.51953 25.5664 13.9453C25.5664 20.3711 20.3711 25.5664 13.9453 25.5664Z" fill="black" fill-opacity="0.85"/>
  <path d="M21.998 13.9453C21.998 13.6992 21.9023 13.4121 21.6289 13.1387L15.7363 7.65625C15.3535 7.28711 15.1074 7.13672 14.752 7.13672C14.2324 7.13672 13.8633 7.5332 13.8633 8.02539L13.8633 11.0195L7.68359 11.0195C6.60352 11.0195 5.97461 11.6211 5.97461 12.6875L5.97461 15.2168C5.97461 16.2695 6.60352 16.8711 7.68359 16.8711L13.8633 16.8711L13.8633 19.8926C13.8633 20.3984 14.2324 20.7539 14.7246 20.7539C15.0938 20.7539 15.3945 20.6035 15.7363 20.2891L21.6289 14.7383C21.9023 14.4648 21.998 14.1777 21.998 13.9453Z" fill="black" fill-opacity="0.85"/>
 </g>
</svg>
