<?xml version="1.0" encoding="UTF-8"?>
<!--Generator: Apple Native CoreSVG 326-->
<!DOCTYPE svg
PUBLIC "-//W3C//DTD SVG 1.1//EN"
       "http://www.w3.org/Graphics/SVG/1.1/DTD/svg11.dtd">
<svg version="1.1" xmlns="http://www.w3.org/2000/svg" xmlns:xlink="http://www.w3.org/1999/xlink" viewBox="0 0 27.043 31.7324">
 <g>
  <rect height="31.7324" opacity="0" width="27.043" x="0" y="0"/>
  <path d="M22.9824 12.2637L22.9824 30.6113C22.9824 31.2402 23.4609 31.7324 24.0762 31.7324C24.6914 31.7324 25.1836 31.2402 25.1836 30.6113L25.1836 12.2637C25.1836 11.6484 24.6914 11.1699 24.0762 11.1699C23.4609 11.1699 22.9824 11.6484 22.9824 12.2637ZM15.8184 12.2637L15.8184 30.6113C15.8184 31.2402 16.3105 31.7324 16.9258 31.7324C17.541 31.7324 18.0195 31.2402 18.0195 30.6113L18.0195 12.2637C18.0195 11.6484 17.541 11.1699 16.9258 11.1699C16.3105 11.1699 15.8184 11.6484 15.8184 12.2637ZM8.66797 12.2637L8.66797 30.6113C8.66797 31.2402 9.14648 31.7324 9.77539 31.7324C10.3906 31.7324 10.8691 31.2402 10.8691 30.6113L10.8691 12.2637C10.8691 11.6484 10.3906 11.1699 9.77539 11.1699C9.14648 11.1699 8.66797 11.6484 8.66797 12.2637ZM1.51758 12.2637L1.51758 21.8887C1.51758 22.5039 1.99609 23.0098 2.61133 23.0098C3.24023 23.0098 3.71875 22.5039 3.71875 21.8887L3.71875 12.2637C3.71875 11.6484 3.24023 11.1699 2.61133 11.1699C1.99609 11.1699 1.51758 11.6484 1.51758 12.2637Z" fill="black" fill-opacity="0.85"/>
  <path d="M0.369141 4.7168L4.0332 7.45117C4.77148 7.99805 5.70117 7.71094 5.70117 6.72656L5.70117 4.79883L21 4.79883L21 6.72656C21 7.68359 21.9023 8.02539 22.6543 7.45117L26.3184 4.7168C26.8242 4.33398 26.8105 3.62305 26.3184 3.26758L22.6543 0.546875C21.9023-0.0273438 21 0.314453 21 1.25781L21 3.21289L5.70117 3.21289L5.70117 1.25781C5.70117 0.314453 4.79883-0.0273438 4.0332 0.546875L0.369141 3.26758C-0.123047 3.63672-0.123047 4.33398 0.369141 4.7168Z" fill="black" fill-opacity="0.85"/>
 </g>
</svg>
