<?xml version="1.0" encoding="UTF-8"?>
<!--Generator: Apple Native CoreSVG 326-->
<!DOCTYPE svg
PUBLIC "-//W3C//DTD SVG 1.1//EN"
       "http://www.w3.org/Graphics/SVG/1.1/DTD/svg11.dtd">
<svg version="1.1" xmlns="http://www.w3.org/2000/svg" xmlns:xlink="http://www.w3.org/1999/xlink" viewBox="0 0 28.2461 27.9316">
 <g>
  <rect height="27.9316" opacity="0" width="28.2461" x="0" y="0"/>
  <path d="M13.9453 27.8906C21.6426 27.8906 27.8906 21.6426 27.8906 13.9453C27.8906 6.24805 21.6426 0 13.9453 0C6.24805 0 0 6.24805 0 13.9453C0 21.6426 6.24805 27.8906 13.9453 27.8906ZM13.9453 25.5664C7.51953 25.5664 2.32422 20.3711 2.32422 13.9453C2.32422 7.51953 7.51953 2.32422 13.9453 2.32422C20.3711 2.32422 25.5664 7.51953 25.5664 13.9453C25.5664 20.3711 20.3711 25.5664 13.9453 25.5664Z" fill="black" fill-opacity="0.85"/>
  <path d="M13.959 20.9863C14.6699 20.9863 15.0664 20.5625 15.0527 19.8242L14.9297 15.7227L18.6348 18.1289C18.8398 18.252 19.0723 18.334 19.3457 18.334C19.9062 18.334 20.4258 17.8965 20.4258 17.1992C20.4258 16.748 20.2207 16.4473 19.7695 16.2012L15.8867 14.0273L19.7695 11.8672C20.2207 11.6211 20.4258 11.3066 20.4258 10.8691C20.4258 10.1582 19.9062 9.7207 19.3457 9.7207C19.0723 9.7207 18.8398 9.80273 18.6348 9.93945L14.9297 12.3047L15.0527 8.08008C15.0664 7.32812 14.6699 6.9043 13.959 6.9043C13.2344 6.9043 12.7969 7.35547 12.8105 8.08008L12.9336 12.3047L9.22852 9.95312C9.02344 9.81641 8.79102 9.74805 8.51758 9.74805C7.95703 9.74805 7.4375 10.1719 7.4375 10.8828C7.4375 11.334 7.64258 11.6348 8.09375 11.8945L11.9492 14.0273L8.09375 16.1875C7.64258 16.4336 7.4375 16.748 7.4375 17.1855C7.4375 17.8828 7.95703 18.3203 8.51758 18.3203C8.79102 18.3203 9.02344 18.2383 9.22852 18.1152L12.9336 15.7227L12.8105 19.8242C12.7969 20.5352 13.2344 20.9863 13.959 20.9863Z" fill="black" fill-opacity="0.85"/>
 </g>
</svg>
