<?xml version="1.0" encoding="UTF-8"?>
<!--Generator: Apple Native CoreSVG 326-->
<!DOCTYPE svg
PUBLIC "-//W3C//DTD SVG 1.1//EN"
       "http://www.w3.org/Graphics/SVG/1.1/DTD/svg11.dtd">
<svg version="1.1" xmlns="http://www.w3.org/2000/svg" xmlns:xlink="http://www.w3.org/1999/xlink" viewBox="0 0 25.5254 25.1699">
 <g>
  <rect height="25.1699" opacity="0" width="25.5254" x="0" y="0"/>
  <path d="M4.29297 25.1699L20.877 25.1699C23.748 25.1699 25.1699 23.7617 25.1699 20.9453L25.1699 4.23828C25.1699 1.42188 23.748 0 20.877 0L4.29297 0C1.43555 0 0 1.42188 0 4.23828L0 20.9453C0 23.7617 1.43555 25.1699 4.29297 25.1699Z" fill="black" fill-opacity="0.85"/>
  <path d="M5.3457 18.2793C4.92188 18.2793 4.55273 18.0332 4.55273 17.5273C4.55273 17.3633 4.60742 17.1992 4.64844 17.0488L7.31445 7.64258C7.49219 7.01367 7.86133 6.6582 8.50391 6.6582C9.17383 6.6582 9.5293 6.98633 9.70703 7.62891L12.4004 17.0488C12.4551 17.2266 12.4688 17.3906 12.4688 17.5273C12.4688 18.0332 12.1133 18.2793 11.7168 18.2793C11.252 18.2793 11.0332 18.0469 10.8965 17.5957L10.2676 15.1758L6.75391 15.1758L6.125 17.5957C6.01562 18.0469 5.74219 18.2793 5.3457 18.2793ZM7.06836 13.9043L9.92578 13.9043L8.54492 8.58594L8.42188 8.58594ZM16.8438 19.4004C16.625 19.4004 16.4473 19.2227 16.4473 19.0039L16.4473 17.9238C14.9297 17.7734 13.7812 16.8574 13.5215 15.5996C13.4941 15.4355 13.4805 15.2852 13.4805 15.1348C13.4805 14.6699 13.8086 14.3965 14.2188 14.3965C14.5742 14.3965 14.8477 14.6016 14.957 15.0527C15.1074 15.832 15.5312 16.4746 16.4473 16.625L16.4473 13.043L15.9688 12.8242C14.4648 12.1133 13.6172 11.334 13.6172 9.80273C13.6172 8.13477 14.8203 7.15039 16.4473 7L16.4473 5.93359C16.4473 5.71484 16.625 5.53711 16.8438 5.53711C17.0488 5.53711 17.2402 5.71484 17.2402 5.93359L17.2402 7.01367C18.6074 7.12305 19.5918 7.88867 19.9199 9.20117C19.9746 9.39258 20.002 9.59766 20.002 9.74805C20.002 10.1855 19.7012 10.4453 19.2637 10.4453C18.8945 10.4453 18.6758 10.2402 18.5527 9.87109C18.3613 9.00977 18.0059 8.43555 17.2402 8.29883L17.2402 11.7852L17.7598 12.0312C19.2227 12.7148 20.207 13.3711 20.207 15.0254C20.207 16.8027 18.9492 17.8008 17.2402 17.9238L17.2402 19.0039C17.2402 19.2227 17.0488 19.4004 16.8438 19.4004ZM15.1211 9.7207C15.1211 10.5273 15.7227 11.0195 16.4473 11.3887L16.4473 8.28516C15.6816 8.4082 15.1211 8.88672 15.1211 9.7207ZM17.2402 16.6387C18.1289 16.543 18.6895 16.0645 18.6895 15.1758C18.6895 14.2734 18.0469 13.8086 17.2402 13.4121Z" fill="white"/>
 </g>
</svg>
