<?xml version="1.0" encoding="UTF-8"?>
<!--Generator: Apple Native CoreSVG 326-->
<!DOCTYPE svg
PUBLIC "-//W3C//DTD SVG 1.1//EN"
       "http://www.w3.org/Graphics/SVG/1.1/DTD/svg11.dtd">
<svg version="1.1" xmlns="http://www.w3.org/2000/svg" xmlns:xlink="http://www.w3.org/1999/xlink" viewBox="0 0 28.2461 27.9043">
 <g>
  <rect height="27.9043" opacity="0" width="28.2461" x="0" y="0"/>
  <path d="M13.9453 27.8906C21.6426 27.8906 27.8906 21.6289 27.8906 13.9453C27.8906 6.24805 21.6426 0 13.9453 0C6.26172 0 0 6.24805 0 13.9453C0 21.6289 6.26172 27.8906 13.9453 27.8906Z" fill="black" fill-opacity="0.85"/>
  <path d="M9.85742 9.84375C12.0176 7.68359 15.2305 6.43945 18.0332 6.69922C19.8242 6.83594 21.0273 8.05273 21.1777 9.84375C21.4512 12.6465 20.207 15.873 18.0469 18.0332C15.8867 20.1934 12.6602 21.4375 9.85742 21.1641C8.06641 21.0137 6.86328 19.8105 6.71289 18.0195C6.45312 15.2168 7.69727 12.0039 9.85742 9.84375ZM15.4492 10.9375C15.3398 10.8008 15.1211 10.8145 14.957 10.9375C14.8477 11.0742 14.8477 11.293 14.957 11.4434L15.4766 11.9355L14.957 12.4277L14.4512 11.9492C14.3281 11.7988 14.123 11.7988 13.9727 11.9492C13.8496 12.0723 13.8633 12.2773 13.9727 12.4277L14.4922 12.9199L13.9727 13.4395L13.4531 12.9336C13.3301 12.7832 13.1113 12.7832 12.9883 12.9473C12.8516 13.0566 12.8789 13.2617 12.9883 13.4121L13.4805 13.9043L12.9746 14.4238L12.4824 13.918C12.3594 13.7812 12.127 13.7812 11.9902 13.9316C11.8535 14.0547 11.8535 14.2734 11.9902 14.4238L12.4961 14.9023L11.9766 15.4219L11.4844 14.916C11.3477 14.793 11.1426 14.793 10.9922 14.916C10.8555 15.0664 10.8555 15.2852 10.9922 15.4082L12.4824 16.8848C12.6191 17.0215 12.8242 17.0215 12.9746 16.8984C13.084 16.748 13.0977 16.543 12.9746 16.4062L12.4688 15.9004L12.9883 15.3945L13.4668 15.873C13.6172 16.0371 13.8223 16.0371 13.959 15.8867C14.0957 15.7637 14.0957 15.5312 13.959 15.4082L13.4531 14.9023L13.9727 14.4102L14.4785 14.8887C14.6152 14.998 14.8203 15.0391 14.9434 14.8887C15.0938 14.7793 15.0664 14.5332 14.9434 14.4238L14.4512 13.9043L14.957 13.3984L15.4629 13.8906C15.6133 14.0273 15.8047 14.041 15.9414 13.9043C16.0781 13.7676 16.0645 13.5488 15.9414 13.4395L15.4492 12.9199L15.9551 12.4141L16.4473 12.9062C16.5977 13.043 16.8164 13.043 16.9395 12.9199C17.0762 12.7695 17.0898 12.5508 16.9395 12.4141Z" fill="white"/>
 </g>
</svg>
