<?xml version="1.0" encoding="UTF-8"?>
<!--Generator: Apple Native CoreSVG 326-->
<!DOCTYPE svg
PUBLIC "-//W3C//DTD SVG 1.1//EN"
       "http://www.w3.org/Graphics/SVG/1.1/DTD/svg11.dtd">
<svg version="1.1" xmlns="http://www.w3.org/2000/svg" xmlns:xlink="http://www.w3.org/1999/xlink" viewBox="0 0 28.2461 27.9043">
 <g>
  <rect height="27.9043" opacity="0" width="28.2461" x="0" y="0"/>
  <path d="M13.9453 27.8906C21.6426 27.8906 27.8906 21.6289 27.8906 13.9453C27.8906 6.24805 21.6426 0 13.9453 0C6.26172 0 0 6.24805 0 13.9453C0 21.6289 6.26172 27.8906 13.9453 27.8906Z" fill="black" fill-opacity="0.85"/>
  <path d="M9.88477 20.5078C9.43359 20.5078 9.06445 20.2207 9.06445 19.7695C9.06445 19.6602 9.0918 19.5371 9.13281 19.373L9.83008 17.2676L8.95508 17.2676C8.69531 17.2676 8.49023 17.0488 8.49023 16.8027C8.49023 16.543 8.69531 16.3242 8.95508 16.3242L10.1445 16.3242L10.6641 14.7246L8.95508 14.7246C8.69531 14.7246 8.49023 14.5059 8.49023 14.2598C8.49023 13.9863 8.69531 13.7812 8.95508 13.7812L10.9785 13.7812L12.7969 8.17578C12.9746 7.65625 13.3574 7.3418 13.9453 7.3418C14.5469 7.3418 14.875 7.64258 15.0664 8.17578L16.9121 13.7812L18.9219 13.7812C19.1816 13.7812 19.4004 13.9863 19.4004 14.2598C19.4004 14.5059 19.1816 14.7246 18.9219 14.7246L17.2129 14.7246L17.7461 16.3242L18.9219 16.3242C19.1816 16.3242 19.4004 16.543 19.4004 16.8027C19.4004 17.0488 19.1816 17.2676 18.9219 17.2676L18.0605 17.2676L18.7305 19.332C18.7852 19.4688 18.8125 19.6328 18.8125 19.7695C18.8125 20.248 18.4434 20.5078 18.0059 20.5078C17.541 20.5078 17.3086 20.2617 17.1992 19.8789L16.4062 17.2676L11.4844 17.2676L10.6777 19.8652C10.5547 20.2891 10.3223 20.5078 9.88477 20.5078ZM11.7715 16.3242L16.1191 16.3242L15.6133 14.7246L12.2637 14.7246ZM12.5508 13.7812L15.3262 13.7812L13.9727 9.33789L13.918 9.33789Z" fill="white"/>
 </g>
</svg>
