<?xml version="1.0" encoding="UTF-8"?>
<!--Generator: Apple Native CoreSVG 326-->
<!DOCTYPE svg
PUBLIC "-//W3C//DTD SVG 1.1//EN"
       "http://www.w3.org/Graphics/SVG/1.1/DTD/svg11.dtd">
<svg version="1.1" xmlns="http://www.w3.org/2000/svg" xmlns:xlink="http://www.w3.org/1999/xlink" viewBox="0 0 28.2461 27.9043">
 <g>
  <rect height="27.9043" opacity="0" width="28.2461" x="0" y="0"/>
  <path d="M13.9453 27.8906C21.6426 27.8906 27.8906 21.6289 27.8906 13.9453C27.8906 6.24805 21.6426 0 13.9453 0C6.26172 0 0 6.24805 0 13.9453C0 21.6289 6.26172 27.8906 13.9453 27.8906Z" fill="black" fill-opacity="0.85"/>
  <path d="M6.69922 19.6465C6.27539 19.6465 5.90625 19.4004 5.90625 18.8945C5.90625 18.7305 5.96094 18.5664 6.00195 18.416L8.66797 9.00977C8.8457 8.38086 9.21484 8.02539 9.85742 8.02539C10.5273 8.02539 10.8828 8.35352 11.0605 8.99609L13.7539 18.416C13.8086 18.5938 13.8223 18.7578 13.8223 18.8945C13.8223 19.4004 13.4668 19.6465 13.0703 19.6465C12.6055 19.6465 12.3867 19.4141 12.25 18.9629L11.6211 16.543L8.09375 16.543L7.47852 18.9629C7.36914 19.4141 7.0957 19.6465 6.69922 19.6465ZM8.42188 15.2715L11.2793 15.2715L9.89844 9.95312L9.77539 9.95312ZM18.1973 20.7676C17.9785 20.7676 17.8008 20.5898 17.8008 20.3711L17.8008 19.291C16.2832 19.1406 15.1211 18.2246 14.875 16.9668C14.8477 16.8027 14.834 16.6523 14.834 16.502C14.834 16.0371 15.1484 15.7637 15.5586 15.7637C15.9277 15.7637 16.1875 15.9688 16.3105 16.4199C16.4609 17.1992 16.8848 17.8418 17.8008 17.9922L17.8008 14.4102L17.3223 14.1914C15.8184 13.4805 14.9707 12.7012 14.9707 11.1699C14.9707 9.50195 16.1738 8.51758 17.8008 8.36719L17.8008 7.30078C17.8008 7.08203 17.9785 6.9043 18.1973 6.9043C18.4023 6.9043 18.5938 7.08203 18.5938 7.30078L18.5938 8.38086C19.9609 8.49023 20.9316 9.25586 21.2734 10.5684C21.3281 10.7598 21.3555 10.9648 21.3555 11.1152C21.3555 11.5527 21.0547 11.8125 20.6172 11.8125C20.248 11.8125 20.0156 11.6074 19.9062 11.2383C19.7148 10.377 19.3594 9.80273 18.5938 9.66602L18.5938 13.1523L19.1133 13.3984C20.5762 14.082 21.5605 14.7383 21.5605 16.3926C21.5605 18.1699 20.3027 19.168 18.5938 19.291L18.5938 20.3711C18.5938 20.5898 18.4023 20.7676 18.1973 20.7676ZM16.4746 11.0879C16.4746 11.8945 17.0762 12.3867 17.8008 12.7559L17.8008 9.65234C17.0352 9.77539 16.4746 10.2539 16.4746 11.0879ZM18.5938 18.0059C19.4824 17.9102 20.043 17.4316 20.043 16.543C20.043 15.6406 19.3867 15.1758 18.5938 14.7793Z" fill="white"/>
 </g>
</svg>
