<?xml version="1.0" encoding="UTF-8"?>
<!--Generator: Apple Native CoreSVG 326-->
<!DOCTYPE svg
PUBLIC "-//W3C//DTD SVG 1.1//EN"
       "http://www.w3.org/Graphics/SVG/1.1/DTD/svg11.dtd">
<svg version="1.1" xmlns="http://www.w3.org/2000/svg" xmlns:xlink="http://www.w3.org/1999/xlink" viewBox="0 0 28.2461 28.9204">
 <g>
  <rect height="28.9204" opacity="0" width="28.2461" x="0" y="0"/>
  <path d="M0 14.4534C0 19.0608 2.24219 23.176 5.82422 25.7463C6.42578 26.2112 7.19141 26.0471 7.5332 25.4866C7.875 24.926 7.69727 24.2698 7.13672 23.8596C4.23828 21.7815 2.32422 18.3499 2.32422 14.4534C2.32422 8.02759 7.51953 2.83228 13.9453 2.83228C20.3711 2.83228 25.5664 8.02759 25.5664 14.4534C25.5664 18.3499 23.6523 21.7678 20.7539 23.8596C20.1934 24.2698 20.0156 24.926 20.3574 25.4866C20.6992 26.0471 21.4512 26.2112 22.0527 25.76C25.6211 23.2307 27.8906 19.0608 27.8906 14.4534C27.8906 6.7561 21.6426 0.508057 13.9453 0.508057C6.24805 0.508057 0 6.7561 0 14.4534ZM24.4727 26.676L20.1523 22.1643C19.4688 21.4534 18.8125 21.7542 18.6348 22.6428L17.5684 27.7834C17.418 28.5491 17.8691 29.0139 18.6621 28.9045L23.8984 28.1663C24.8418 28.0295 25.1426 27.4006 24.4727 26.676Z" fill="#28cd41"/>
  <path d="M9.44727 20.0588C9.93945 20.0588 10.2949 19.8127 10.5 19.1838L11.498 16.2717L16.3926 16.2717L17.3906 19.1838C17.5957 19.8127 17.9375 20.0588 18.4434 20.0588C19.0449 20.0588 19.4551 19.6624 19.4551 19.1155C19.4551 18.8967 19.4004 18.7053 19.3047 18.4045L15.4629 8.08228C15.2031 7.37134 14.6836 7.0022 13.9316 7.0022C13.1934 7.0022 12.6875 7.37134 12.4141 8.08228L8.58594 18.4045C8.47656 18.7053 8.43555 18.8967 8.43555 19.1018C8.43555 19.676 8.83203 20.0588 9.44727 20.0588ZM12.0449 14.6311L13.8633 9.34009L14.0137 9.34009L15.832 14.6311Z" fill="#28cd41"/>
 </g>
</svg>
