<?xml version="1.0" encoding="UTF-8"?>
<!--Generator: Apple Native CoreSVG 326-->
<!DOCTYPE svg
PUBLIC "-//W3C//DTD SVG 1.1//EN"
       "http://www.w3.org/Graphics/SVG/1.1/DTD/svg11.dtd">
<svg version="1.1" xmlns="http://www.w3.org/2000/svg" xmlns:xlink="http://www.w3.org/1999/xlink" viewBox="0 0 39.375 26.6738">
 <g>
  <rect height="26.6738" opacity="0" width="39.375" x="0" y="0"/>
  <path d="M0 13.3301C0 17.6641 1.4082 21.6426 3.78711 24.8828C4.21094 25.4707 4.93555 25.5254 5.48242 25.0879C5.97461 24.6641 6.04297 24.0078 5.64648 23.4609C3.56836 20.6309 2.33789 17.1172 2.33789 13.3301C2.33789 9.5293 3.56836 6.0293 5.64648 3.17188C6.04297 2.65234 5.98828 1.98242 5.48242 1.55859C4.93555 1.12109 4.21094 1.18945 3.78711 1.76367C1.4082 5.00391 0 8.99609 0 13.3301ZM39.0195 13.3301C39.0195 8.99609 37.625 5.00391 35.2324 1.76367C34.8086 1.18945 34.084 1.12109 33.5371 1.55859C33.0312 1.98242 32.9902 2.65234 33.373 3.17188C35.4648 6.0293 36.6816 9.5293 36.6816 13.3301C36.6816 17.1172 35.4648 20.6309 33.373 23.4609C32.9902 24.0078 33.0449 24.6641 33.5371 25.0879C34.084 25.5254 34.8086 25.4707 35.2324 24.8828C37.625 21.6426 39.0195 17.6641 39.0195 13.3301Z" fill="black" fill-opacity="0.85"/>
  <path d="M19.5098 26.6602C26.8789 26.6602 32.8535 20.6855 32.8535 13.3301C32.8535 5.96094 26.8789 0 19.5098 0C12.1543 0 6.17969 5.96094 6.17969 13.3301C6.17969 20.6855 12.1543 26.6602 19.5098 26.6602ZM19.5098 24.3359C13.4395 24.3359 8.50391 19.4004 8.50391 13.3301C8.50391 7.24609 13.4395 2.31055 19.5098 2.31055C25.5938 2.31055 30.5293 7.24609 30.5293 13.3301C30.5293 19.4004 25.5938 24.3359 19.5098 24.3359Z" fill="black" fill-opacity="0.85"/>
  <path d="M15.0117 19.7695C15.5039 19.7695 15.8594 19.5371 16.0645 18.8945L17.0625 15.9824L21.957 15.9824L22.9551 18.8945C23.1602 19.5234 23.5156 19.7695 24.0078 19.7695C24.6094 19.7695 25.0195 19.373 25.0195 18.8262C25.0195 18.6074 24.9648 18.416 24.8691 18.1152L21.041 7.79297C20.7676 7.08203 20.248 6.71289 19.4961 6.71289C18.7578 6.71289 18.252 7.08203 17.9785 7.79297L14.1504 18.1152C14.0547 18.416 14 18.6074 14 18.8125C14 19.3867 14.4102 19.7695 15.0117 19.7695ZM17.6094 14.3418L19.4414 9.05078L19.5781 9.05078L21.4102 14.3418Z" fill="black" fill-opacity="0.85"/>
 </g>
</svg>
