<?xml version="1.0" encoding="UTF-8"?>
<!--Generator: Apple Native CoreSVG 326-->
<!DOCTYPE svg
PUBLIC "-//W3C//DTD SVG 1.1//EN"
       "http://www.w3.org/Graphics/SVG/1.1/DTD/svg11.dtd">
<svg version="1.1" xmlns="http://www.w3.org/2000/svg" xmlns:xlink="http://www.w3.org/1999/xlink" viewBox="0 0 25.1828 29.4339">
 <g>
  <rect height="29.4339" opacity="0" width="25.1828" x="0" y="0"/>
  <path d="M12.4137 8.35267C12.7969 8.35267 13.1645 8.2931 13.5074 8.18097L13.5074 23.5148L18.9762 23.5148L18.9762 21.8058C18.9762 20.63 19.7418 19.837 20.8629 19.837L21.9566 19.837C23.0914 19.837 23.857 20.63 23.857 21.8058L23.857 27.4249C23.857 28.587 23.0914 29.38 21.9566 29.38L20.8629 29.38C19.7418 29.38 18.9762 28.587 18.9762 27.4249L18.9762 25.716L5.85116 25.716L5.85116 27.4249C5.85116 28.587 5.08553 29.38 3.95077 29.38L2.85702 29.38C1.73593 29.38 0.970301 28.587 0.970301 27.4249L0.970301 21.8058C0.970301 20.63 1.73593 19.837 2.85702 19.837L3.95077 19.837C5.08553 19.837 5.85116 20.63 5.85116 21.8058L5.85116 23.5148L11.3062 23.5148L11.3062 8.17887C11.6533 8.29243 12.0256 8.35267 12.4137 8.35267ZM4.52499 0.135873L5.55038 0.505014C6.61678 0.901498 7.06796 1.89955 6.67147 2.9933L6.41245 3.70423L9.02831 3.70423C8.91778 4.04705 8.85897 4.41459 8.85897 4.79798C8.85897 5.18604 8.91922 5.55838 9.03277 5.9054L5.61047 5.9054L4.74374 8.28431C4.34725 9.37806 3.34921 9.87025 2.2828 9.47376L1.25741 9.10462C0.191004 8.70814-0.260168 7.71009 0.149988 6.61634L2.06405 1.339C2.47421 0.231576 3.45858-0.260611 4.52499 0.135873ZM22.5308 0.135873L23.5699 0.505014C24.6226 0.901498 25.0875 1.89955 24.6773 2.9933L22.7496 8.28431C22.3531 9.37806 21.3687 9.87025 20.3023 9.47376L19.2633 9.10462C18.2105 8.72181 17.7594 7.71009 18.1558 6.61634L18.4155 5.9054L15.7687 5.9054C15.8813 5.55838 15.941 5.18604 15.941 4.79798C15.941 4.41459 15.8827 4.04705 15.7731 3.70423L19.2196 3.70423L20.0836 1.339C20.4937 0.231576 21.4644-0.260611 22.5308 0.135873Z" fill="black" fill-opacity="0.85"/>
  <path d="M12.4137 8.35267C14.3824 8.35267 15.941 6.7804 15.941 4.79798C15.941 2.81556 14.3824 1.25697 12.4137 1.25697C10.4312 1.25697 8.85897 2.81556 8.85897 4.79798C8.85897 6.7804 10.4312 8.35267 12.4137 8.35267ZM12.4137 6.54798C11.4293 6.54798 10.65 5.78236 10.65 4.79798C10.65 3.82728 11.4293 3.04798 12.4137 3.04798C13.3844 3.04798 14.15 3.82728 14.15 4.79798C14.15 5.78236 13.3844 6.54798 12.4137 6.54798Z" fill="black" fill-opacity="0.85"/>
 </g>
</svg>
