<?xml version="1.0" encoding="UTF-8"?>
<!--Generator: Apple Native CoreSVG 326-->
<!DOCTYPE svg
PUBLIC "-//W3C//DTD SVG 1.1//EN"
       "http://www.w3.org/Graphics/SVG/1.1/DTD/svg11.dtd">
<svg version="1.1" xmlns="http://www.w3.org/2000/svg" xmlns:xlink="http://www.w3.org/1999/xlink" viewBox="0 0 28.2461 27.9043">
 <g>
  <rect height="27.9043" opacity="0" width="28.2461" x="0" y="0"/>
  <path d="M13.9453 27.8906C21.6426 27.8906 27.8906 21.6426 27.8906 13.9453C27.8906 6.24805 21.6426 0 13.9453 0C6.24805 0 0 6.24805 0 13.9453C0 21.6426 6.24805 27.8906 13.9453 27.8906ZM13.9453 25.5664C7.51953 25.5664 2.32422 20.3711 2.32422 13.9453C2.32422 7.51953 7.51953 2.32422 13.9453 2.32422C20.3711 2.32422 25.5664 7.51953 25.5664 13.9453C25.5664 20.3711 20.3711 25.5664 13.9453 25.5664Z" fill="black" fill-opacity="0.85"/>
  <path d="M11.7988 22.2578L16.0645 22.2578C18.4707 22.2578 19.6602 21.041 19.6465 18.5938C19.6055 15.791 19.5918 13.7539 19.5234 12.25C19.332 7.76562 18.0742 6.4668 13.9316 6.4668C9.78906 6.4668 8.54492 7.76562 8.33984 12.25C8.27148 13.7539 8.25781 15.791 8.2168 18.5938C8.20312 21.041 9.39258 22.2578 11.7988 22.2578ZM11.6211 19.4961C11.0195 19.4961 10.6367 19.1133 10.6367 18.5254L10.6367 14.9434C10.6367 14.3555 11.0195 13.959 11.6211 13.959L16.2559 13.959C16.8574 13.959 17.2266 14.3555 17.2266 14.9434L17.2266 18.5254C17.2266 19.1133 16.8574 19.4961 16.2559 19.4961ZM10.6367 16.6934L17.2266 16.6934L17.2266 15.832L10.6367 15.832ZM13.9316 4.8125C12.5918 4.8125 11.6484 5.74219 11.6484 6.98633L12.6738 6.98633C12.6738 6.33008 13.2207 5.83789 13.9316 5.83789C14.6426 5.83789 15.1895 6.33008 15.1895 6.98633L16.2012 6.98633C16.2012 5.74219 15.2715 4.8125 13.9316 4.8125Z" fill="black" fill-opacity="0.85"/>
 </g>
</svg>
