<?xml version="1.0" encoding="UTF-8"?>
<!--Generator: Apple Native CoreSVG 326-->
<!DOCTYPE svg
PUBLIC "-//W3C//DTD SVG 1.1//EN"
       "http://www.w3.org/Graphics/SVG/1.1/DTD/svg11.dtd">
<svg version="1.1" xmlns="http://www.w3.org/2000/svg" xmlns:xlink="http://www.w3.org/1999/xlink" viewBox="0 0 33.291 27.4395">
 <g>
  <rect height="27.4395" opacity="0" width="33.291" x="0" y="0"/>
  <path d="M32.9355 16.4609C32.9355 12.4414 31.4863 8.73633 29.0664 5.86523C28.793 5.53711 28.3281 5.53711 28.0273 5.85156L24.8555 9.02344C24.5957 9.2832 24.582 9.65234 24.8145 9.93945C26.2227 11.7441 27.0703 14.0137 27.0703 16.4609C27.0703 18.9219 26.2227 21.1914 24.7324 23.0918C24.541 23.3242 24.5547 23.625 24.7598 23.8438L28.0137 27.0977C28.3281 27.4121 28.7793 27.4121 29.0664 27.0703C31.4863 24.1992 32.9355 20.4941 32.9355 16.4609Z" fill="black" fill-opacity="0.85"/>
  <path d="M16.4609 5.86523C18.9355 5.86523 21.2051 6.72656 23.0234 8.13477C23.2969 8.35352 23.6523 8.32617 23.9121 8.06641L27.084 4.89453C27.3984 4.58008 27.3848 4.12891 27.0566 3.85547C24.1992 1.44922 20.4941 0 16.4609 0C12.4414 0 8.73633 1.44922 5.87891 3.85547C5.55078 4.12891 5.53711 4.58008 5.85156 4.89453L9.02344 8.06641C9.2832 8.32617 9.65234 8.35352 9.95312 8.12109C11.7578 6.72656 14.0137 5.86523 16.4609 5.86523Z" fill="black" fill-opacity="0.85"/>
  <path d="M0 16.4609C0 20.4941 1.44922 24.1992 3.86914 27.0703C4.14258 27.4121 4.60742 27.4121 4.9082 27.0977L8.16211 23.8438C8.36719 23.625 8.39453 23.3242 8.20312 23.0918C6.71289 21.1914 5.86523 18.9219 5.86523 16.4609C5.86523 14.0137 6.69922 11.7441 8.12109 9.93945C8.33984 9.65234 8.33984 9.2832 8.08008 9.02344L4.9082 5.85156C4.59375 5.53711 4.14258 5.53711 3.86914 5.86523C1.44922 8.73633 0 12.4414 0 16.4609Z" fill="black" fill-opacity="0.85"/>
  <path d="M13.7266 22.6953L17.1172 22.6953C19.4414 22.6953 21.2734 21.6152 21.2734 19.3047C21.2734 17.623 20.1113 16.502 18.457 16.3105L18.457 16.2285C19.7285 16.0371 20.6582 14.834 20.6582 13.5625C20.6582 11.5117 18.9492 10.541 17.1035 10.541L13.7266 10.541C13.084 10.541 12.7285 10.9648 12.7285 11.5527L12.7285 21.6973C12.7285 22.2578 13.0977 22.6953 13.7266 22.6953ZM14.3281 15.7773L14.3281 11.8809L16.7207 11.8809C18.0469 11.8809 19.0723 12.4277 19.0723 13.7539C19.0723 15.2441 17.8555 15.7773 16.3379 15.7773ZM14.3281 21.3555L14.3281 17.0898L16.6934 17.0898C18.3066 17.0898 19.6465 17.5957 19.6465 19.209C19.6465 20.7812 18.4023 21.3555 16.8164 21.3555ZM16.4473 24.2402C16.7344 24.2402 16.9121 24.0488 16.9121 23.7617L16.9121 9.33789C16.9121 9.05078 16.7207 8.85938 16.4473 8.85938C16.1738 8.85938 15.9824 9.05078 15.9824 9.33789L15.9824 23.7617C15.9824 24.0488 16.1738 24.2402 16.4473 24.2402Z" fill="black" fill-opacity="0.85"/>
 </g>
</svg>
