<?xml version="1.0" encoding="UTF-8"?>
<!--Generator: Apple Native CoreSVG 326-->
<!DOCTYPE svg
PUBLIC "-//W3C//DTD SVG 1.1//EN"
       "http://www.w3.org/Graphics/SVG/1.1/DTD/svg11.dtd">
<svg version="1.1" xmlns="http://www.w3.org/2000/svg" xmlns:xlink="http://www.w3.org/1999/xlink" viewBox="0 0 25.5254 25.1699">
 <g>
  <rect height="25.1699" opacity="0" width="25.5254" x="0" y="0"/>
  <path d="M4.29297 25.1699L20.877 25.1699C23.748 25.1699 25.1699 23.7617 25.1699 20.9453L25.1699 4.23828C25.1699 1.42188 23.748 0 20.877 0L4.29297 0C1.43555 0 0 1.42188 0 4.23828L0 20.9453C0 23.7617 1.43555 25.1699 4.29297 25.1699ZM4.32031 22.9688C2.95312 22.9688 2.20117 22.2441 2.20117 20.8223L2.20117 4.36133C2.20117 2.93945 2.95312 2.20117 4.32031 2.20117L20.8496 2.20117C22.2031 2.20117 22.9688 2.93945 22.9688 4.36133L22.9688 20.8223C22.9688 22.2441 22.2031 22.9688 20.8496 22.9688Z" fill="black" fill-opacity="0.85"/>
  <path d="M9.87109 18.6211L13.2617 18.6211C15.5859 18.6211 17.418 17.5547 17.418 15.2305C17.418 13.5625 16.2559 12.4414 14.6016 12.25L14.6016 12.168C15.873 11.9629 16.8027 10.7734 16.8027 9.50195C16.8027 7.45117 15.0801 6.48047 13.248 6.48047L9.87109 6.48047C9.22852 6.48047 8.87305 6.9043 8.87305 7.49219L8.87305 17.623C8.87305 18.1973 9.24219 18.6211 9.87109 18.6211ZM10.4727 11.7168L10.4727 7.82031L12.8516 7.82031C14.1914 7.82031 15.2168 8.36719 15.2168 9.69336C15.2168 11.1699 13.9863 11.7168 12.4824 11.7168ZM10.4727 17.2949L10.4727 13.0156L12.8379 13.0156C14.4512 13.0156 15.791 13.5352 15.791 15.1484C15.791 16.7207 14.5469 17.2949 12.9609 17.2949ZM12.5918 20.166C12.8789 20.166 13.043 19.9883 13.043 19.7012L13.043 5.26367C13.043 4.99023 12.8652 4.79883 12.5918 4.79883C12.3184 4.79883 12.127 4.99023 12.127 5.26367L12.127 19.7012C12.127 19.9883 12.3184 20.166 12.5918 20.166Z" fill="black" fill-opacity="0.85"/>
 </g>
</svg>
