<?xml version="1.0" encoding="UTF-8"?>
<!--Generator: Apple Native CoreSVG 326-->
<!DOCTYPE svg
PUBLIC "-//W3C//DTD SVG 1.1//EN"
       "http://www.w3.org/Graphics/SVG/1.1/DTD/svg11.dtd">
<svg version="1.1" xmlns="http://www.w3.org/2000/svg" xmlns:xlink="http://www.w3.org/1999/xlink" viewBox="0 0 29.668 41.1113">
 <g>
  <rect height="41.1113" opacity="0" width="29.668" x="0" y="0"/>
  <path d="M8.28516 10.9375C8.28516 16.1452 10.4943 20.774 13.923 23.0895C12.9972 24.2771 11.8275 25.1332 10.5065 25.5203L10.8965 27.043C11.0195 27.5352 10.7871 28.0547 10.1309 28.0547L9.47049 28.0547C9.74211 29.9786 11.6484 30.2923 11.6484 32.8262C11.6484 35.4238 9.33789 35.7793 9.33789 38.3906C9.33789 38.8555 8.94141 39.252 8.44922 39.252C7.98438 39.252 7.61523 38.8555 7.61523 38.3906C7.61523 34.6719 9.93945 34.6445 9.93945 32.8262C9.93945 31.0834 7.94049 30.8399 7.72994 28.0547L7.02734 28.0547C6.39844 28.0547 6.13867 27.5352 6.26172 27.043L6.69484 25.3517C3.64569 24.1379 1.50391 20.3874 1.50391 15.9688C1.50391 11.8706 4.19337 8.44147 8.57443 8.31195C8.38062 9.14559 8.28516 10.0261 8.28516 10.9375Z" fill="black" fill-opacity="0.85"/>
  <path d="M18.9766 22.8047C23.9258 22.8047 27.8086 17.5273 27.8086 10.9375C27.8086 5.75586 24.1855 1.85938 18.9766 1.85938C13.7539 1.85938 10.1582 5.75586 10.1582 10.9375C10.1582 17.5273 14.0137 22.8047 18.9766 22.8047ZM17.0625 21.8613L16.4062 24.3223C16.2695 24.8691 16.5703 25.457 17.2539 25.457L20.6855 25.457C21.3828 25.457 21.6973 24.8691 21.5332 24.3223L20.877 21.8613ZM18.7988 39.0605C19.332 39.0605 19.7832 38.6094 19.7832 38.0762C19.7832 35.082 22.5039 34.3848 22.5039 31.3496C22.5039 28.2324 19.8652 27.6445 19.8926 24.9238L17.9512 24.9375C17.9375 28.6426 20.5762 29.2168 20.5762 31.3496C20.5762 33.5234 17.8418 33.8516 17.8418 38.0762C17.8418 38.6094 18.2656 39.0605 18.7988 39.0605Z" fill="black" fill-opacity="0.85"/>
 </g>
</svg>
