<?xml version="1.0" encoding="UTF-8"?>
<!--Generator: Apple Native CoreSVG 326-->
<!DOCTYPE svg
PUBLIC "-//W3C//DTD SVG 1.1//EN"
       "http://www.w3.org/Graphics/SVG/1.1/DTD/svg11.dtd">
<svg version="1.1" xmlns="http://www.w3.org/2000/svg" xmlns:xlink="http://www.w3.org/1999/xlink" viewBox="0 0 28.7348 28.5155">
 <g>
  <rect height="28.5155" opacity="0" width="28.7348" x="0" y="0"/>
  <path d="M2.11739 26.2685C5.01583 29.1533 9.11739 29.1259 12.2893 25.9677L16.4592 21.7704L14.9143 20.2119L10.7443 24.3954C8.54317 26.5829 5.65841 26.8974 3.56661 24.8193C1.46114 22.7412 1.78927 19.8427 3.99044 17.6415L8.17403 13.4579L6.61544 11.9267L2.41817 16.0966C-0.740028 19.2685-0.767372 23.3701 2.11739 26.2685ZM26.2619 2.12396C23.3635-0.760803 19.2619-0.747131 16.1037 2.41107L11.9201 6.60834L13.465 8.1806L17.6486 3.99701C19.8361 1.79584 22.7209 1.49506 24.8127 3.55951C26.9182 5.63763 26.59 8.54974 24.3889 10.7372L20.2053 14.9208L21.7775 16.4658L25.9611 12.2822C29.133 9.12396 29.1467 5.0224 26.2619 2.12396ZM21.7912 11.6806L16.6916 6.59467C15.092 4.99506 13.5608 4.95404 11.9201 6.60834L6.61544 11.9267C4.94747 13.5673 5.00216 15.0986 6.5881 16.6982L11.6877 21.7978C13.2873 23.3837 14.8186 23.4384 16.4592 21.7704L21.7775 16.4658C23.4318 14.8115 23.3908 13.2939 21.7912 11.6806ZM15.4338 8.24896L20.1369 12.9521C20.9162 13.7314 20.8342 14.3056 20.0139 15.1122L15.1057 20.0204C14.299 20.8408 13.7248 20.9228 12.9455 20.1435L8.24239 15.4404C7.4631 14.6611 7.54513 14.0732 8.36544 13.2665L13.2736 8.37201C14.0803 7.5517 14.6545 7.46967 15.4338 8.24896Z" fill="black" fill-opacity="0.85"/>
  <path d="M14.176 12.665C14.8459 12.665 15.3381 12.1454 15.3381 11.5165C15.3654 10.8876 14.8322 10.3544 14.1897 10.3544C13.5471 10.3544 13.0412 10.8876 13.0412 11.5439C13.0412 12.1318 13.5744 12.665 14.176 12.665ZM11.551 15.3447C12.1799 15.3447 12.6858 14.7978 12.6858 14.2099C12.6858 13.5537 12.1799 13.0341 11.5373 13.0341C10.8811 13.0341 10.3752 13.5537 10.3752 14.1962C10.3752 14.8251 10.8811 15.3447 11.551 15.3447ZM16.842 15.3447C17.4846 15.3447 18.0178 14.8115 18.0041 14.1826C18.0041 13.5537 17.4983 13.0341 16.8283 13.0341C16.2268 13.0341 15.6936 13.5673 15.6936 14.1552C15.6936 14.8115 16.2131 15.3447 16.842 15.3447ZM14.1897 18.0107C14.8322 18.0107 15.3381 17.4912 15.3381 16.8349C15.3381 16.247 14.8322 15.7001 14.2033 15.7001C13.5334 15.7001 13.0275 16.2197 13.0275 16.8486C13.0275 17.4912 13.5334 18.0107 14.1897 18.0107Z" fill="black" fill-opacity="0.85"/>
 </g>
</svg>
