<?xml version="1.0" encoding="UTF-8"?>
<!--Generator: Apple Native CoreSVG 326-->
<!DOCTYPE svg
PUBLIC "-//W3C//DTD SVG 1.1//EN"
       "http://www.w3.org/Graphics/SVG/1.1/DTD/svg11.dtd">
<svg version="1.1" xmlns="http://www.w3.org/2000/svg" xmlns:xlink="http://www.w3.org/1999/xlink" viewBox="0 0 26.8926 21.0957">
 <g>
  <rect height="21.0957" opacity="0" width="26.8926" x="0" y="0"/>
  <path d="M0 21L2.22852 21L2.22852 0L0 0ZM4.38867 21L5.66016 21L5.66016 0L4.38867 0ZM7.79297 21L11.4297 21L11.4297 0L7.79297 0ZM12.7559 21L15.0801 21L15.0801 0L12.7559 0ZM16.4609 21L20.0703 21L20.0703 0L16.4609 0ZM21.1777 21L24.0078 21L24.0078 0L21.1777 0ZM24.7051 21L26.5371 21L26.5371 0L24.7051 0Z" fill="black" fill-opacity="0.85"/>
 </g>
</svg>
