<?xml version="1.0" encoding="UTF-8"?>
<!--Generator: Apple Native CoreSVG 326-->
<!DOCTYPE svg
PUBLIC "-//W3C//DTD SVG 1.1//EN"
       "http://www.w3.org/Graphics/SVG/1.1/DTD/svg11.dtd">
<svg version="1.1" xmlns="http://www.w3.org/2000/svg" xmlns:xlink="http://www.w3.org/1999/xlink" viewBox="0 0 28.2461 27.9043">
 <g>
  <rect height="27.9043" opacity="0" width="28.2461" x="0" y="0"/>
  <path d="M13.9453 27.8906C21.6426 27.8906 27.8906 21.6426 27.8906 13.9453C27.8906 6.24805 21.6426 0 13.9453 0C6.24805 0 0 6.24805 0 13.9453C0 21.6426 6.24805 27.8906 13.9453 27.8906ZM13.9453 25.5664C7.51953 25.5664 2.32422 20.3711 2.32422 13.9453C2.32422 7.51953 7.51953 2.32422 13.9453 2.32422C20.3711 2.32422 25.5664 7.51953 25.5664 13.9453C25.5664 20.3711 20.3711 25.5664 13.9453 25.5664Z" fill="black" fill-opacity="0.85"/>
  <path d="M13.9453 16.9805C15.6133 16.9805 16.9805 15.6133 16.9805 13.9453C16.9805 12.2637 15.6133 10.9102 13.9453 10.9102C12.2773 10.9102 10.9102 12.2637 10.9102 13.9453C10.9102 15.6133 12.2773 16.9805 13.9453 16.9805ZM13.9453 15.2578C13.2207 15.2578 12.6328 14.6699 12.6328 13.9453C12.6328 13.207 13.2207 12.6328 13.9453 12.6328C14.6699 12.6328 15.2578 13.207 15.2578 13.9453C15.2578 14.6699 14.6699 15.2578 13.9453 15.2578ZM14.6289 11.7578L16.1875 13.2891L21.0273 8.44922C21.4648 8.02539 21.4648 7.32812 21.0273 6.89062C20.6035 6.4668 19.9062 6.4668 19.4824 6.89062ZM13.3301 16.1602L11.7715 14.6016L9.76172 16.6113C9.33789 17.0352 9.33789 17.7461 9.76172 18.1699C10.1855 18.5938 10.8828 18.5938 11.3203 18.1699Z" fill="black" fill-opacity="0.85"/>
 </g>
</svg>
