<?xml version="1.0" encoding="UTF-8"?>
<!--Generator: Apple Native CoreSVG 326-->
<!DOCTYPE svg
PUBLIC "-//W3C//DTD SVG 1.1//EN"
       "http://www.w3.org/Graphics/SVG/1.1/DTD/svg11.dtd">
<svg version="1.1" xmlns="http://www.w3.org/2000/svg" xmlns:xlink="http://www.w3.org/1999/xlink" viewBox="0 0 28.2461 27.9043">
 <g>
  <rect height="27.9043" opacity="0" width="28.2461" x="0" y="0"/>
  <path d="M0 13.9453C0 20.3984 4.375 25.9082 10.541 27.4531C10.9648 26.3047 11.2383 25.0605 11.3203 23.8164L10.7461 23.7891C10.3906 23.7754 10.1035 23.4883 10.1035 23.1328C10.1172 22.7773 10.4043 22.4902 10.7734 22.5039L11.3477 22.5312C11.334 21.793 11.252 21.0684 11.1152 20.3301L10.541 20.4805C10.1855 20.5625 9.84375 20.3438 9.74805 20.002C9.66602 19.6602 9.87109 19.3047 10.2129 19.2227L10.7871 19.0723C10.5684 18.3613 10.2949 17.6504 9.93945 16.9668L9.48828 17.2129C9.16016 17.377 8.80469 17.2676 8.62695 16.9531C8.42188 16.6523 8.53125 16.2422 8.8457 16.0645L9.2832 15.832C8.8457 15.1621 8.35352 14.5332 7.80664 13.9727L7.49219 14.3145C7.21875 14.5742 6.84961 14.5605 6.57617 14.3008C6.33008 14.0684 6.28906 13.6582 6.5625 13.3984L6.87695 13.0703C6.35742 12.6055 5.79688 12.2227 5.20898 11.8535L4.9082 12.4414C4.7168 12.7695 4.36133 12.8652 4.04688 12.6875C3.71875 12.5234 3.60938 12.127 3.78711 11.7988L4.08789 11.2246C2.98047 10.6777 1.76367 10.2949 0.560547 10.0898C0.191406 11.3203 0 12.6055 0 13.9453ZM13.9453 27.8906C19.7559 27.8906 24.8281 24.2812 26.8789 19.1406C25.5527 18.8945 24.2676 18.457 23.0645 17.8828L22.75 18.457C22.5723 18.7715 22.1758 18.8809 21.875 18.7168C21.5742 18.5391 21.4512 18.1426 21.6426 17.8281L21.9434 17.2812C21.1914 16.8301 20.4805 16.3379 19.8105 15.7637L19.373 16.2012C19.127 16.4609 18.7305 16.4473 18.4844 16.2012C18.2109 15.9551 18.2109 15.5586 18.457 15.3125L18.8945 14.8613C18.2793 14.2324 17.7324 13.5215 17.2266 12.7422L16.5977 13.0977C16.2832 13.2891 15.8867 13.1523 15.75 12.8652C15.5723 12.5508 15.668 12.1816 15.9688 11.9902L16.584 11.6348C16.1465 10.8008 15.8047 9.93945 15.5586 9.06445L14.8066 9.24219C14.4512 9.33789 14.1094 9.14648 14.0547 8.79102C13.9453 8.44922 14.1094 8.09375 14.4785 7.99805L15.2578 7.80664C15.0938 7 15.0117 6.16602 14.998 5.3457L14.3828 5.31836C14.0137 5.31836 13.7402 5.04492 13.7676 4.68945C13.7676 4.32031 14.041 4.01953 14.4102 4.01953L15.0254 4.04688C15.1484 2.70703 15.3945 1.38086 15.873 0.136719C15.2305 0.0546875 14.5879 0 13.9453 0C6.61719 0 2.26953 5.31836 1.01172 8.73633C2.32422 8.98242 3.5957 9.36523 4.78516 9.9668L5.08594 9.43359C5.26367 9.11914 5.64648 9.02344 5.97461 9.21484C6.28906 9.36523 6.38477 9.74805 6.20703 10.0625L5.91992 10.582C6.61719 11.0059 7.28711 11.4707 7.91602 12.0176L8.46289 11.457C8.72266 11.1973 9.11914 11.2246 9.37891 11.498C9.61133 11.7441 9.65234 12.1133 9.37891 12.3867L8.8457 12.9199C9.48828 13.5898 10.0762 14.3008 10.582 15.0938L11.2109 14.752C11.5254 14.5742 11.9082 14.6973 12.0859 14.998C12.2637 15.2988 12.1816 15.6816 11.8398 15.873L11.2246 16.2148C11.6484 17.0215 11.9766 17.8555 12.2363 18.6895L12.8242 18.5391C13.1934 18.4434 13.5215 18.6484 13.6172 19.0039C13.7129 19.3457 13.5078 19.7012 13.166 19.7969L12.5508 19.9609C12.7148 20.8223 12.7969 21.6836 12.8105 22.5449L13.4668 22.5723C13.8223 22.5859 14.1094 22.873 14.0957 23.2148C14.0957 23.5703 13.8086 23.8711 13.4395 23.8574L12.7695 23.8301C12.6738 25.1699 12.4004 26.4824 11.9355 27.7402C12.5781 27.8359 13.2617 27.8906 13.9453 27.8906ZM27.8906 13.9453C27.8906 7.45117 23.3789 1.85938 17.2539 0.396484C16.8438 1.57227 16.5566 2.83008 16.4746 4.07422L17.1035 4.10156C17.459 4.11523 17.7461 4.41602 17.7324 4.77148C17.7324 5.14062 17.459 5.40039 17.0898 5.38672L16.4609 5.35938C16.4746 6.04297 16.543 6.74023 16.6797 7.42383L17.1035 7.32812C17.459 7.23242 17.7734 7.4375 17.8691 7.79297C17.9512 8.13477 17.7871 8.47656 17.4316 8.57227L16.9941 8.66797C17.2266 9.41992 17.5137 10.1582 17.8828 10.8828L18.334 10.6367C18.6484 10.4453 19.0312 10.582 19.1953 10.8828C19.373 11.2246 19.2773 11.5801 18.9629 11.7578L18.5117 12.0039C18.9492 12.6602 19.4141 13.2617 19.9199 13.8086L20.3574 13.3711C20.6172 13.0977 21.0273 13.125 21.2734 13.3574C21.5332 13.6035 21.5605 14.0273 21.2871 14.3008L20.8633 14.7246C21.4238 15.2168 22.0117 15.6543 22.6543 16.0234L22.9414 15.4629C23.1055 15.1621 23.4883 15.0391 23.8027 15.2031C24.1172 15.3945 24.2539 15.7773 24.0625 16.1055L23.7754 16.6523C24.8965 17.1992 26.0996 17.5684 27.3438 17.7598C27.6992 16.543 27.8906 15.2715 27.8906 13.9453Z" fill="black" fill-opacity="0.85"/>
 </g>
</svg>
