<?xml version="1.0" encoding="UTF-8"?>
<!--Generator: Apple Native CoreSVG 326-->
<!DOCTYPE svg
PUBLIC "-//W3C//DTD SVG 1.1//EN"
       "http://www.w3.org/Graphics/SVG/1.1/DTD/svg11.dtd">
<svg version="1.1" xmlns="http://www.w3.org/2000/svg" xmlns:xlink="http://www.w3.org/1999/xlink" viewBox="0 0 39.2998 20.3507">
 <g>
  <rect height="20.3507" opacity="0" width="39.2998" x="0" y="0"/>
  <path d="M0.70752 15.5689L6.99658 19.9439C7.70752 20.4498 8.70557 20.4224 9.49854 19.8892L15.6919 15.5689C16.6353 14.9127 16.6353 13.8599 15.6919 13.2037L9.43018 8.84235C8.69189 8.3365 7.70752 8.32282 6.99658 8.81501L0.70752 13.2037C-0.23584 13.8599-0.23584 14.9127 0.70752 15.5689ZM11.9731 7.1197L18.2759 11.4947C18.9868 12.0006 19.9849 11.9732 20.7642 11.4263L26.9712 7.1197C27.9146 6.46345 27.9146 5.41071 26.9712 4.75446L20.6958 0.393136C19.9712-0.126396 18.9868-0.126396 18.2759 0.365792L11.9731 4.75446C11.0435 5.41071 11.0435 6.46345 11.9731 7.1197ZM23.2661 15.5689L29.4868 19.9029C30.2524 20.4361 31.2505 20.4361 31.9751 19.9302L38.2505 15.5689C39.1802 14.9127 39.1802 13.8599 38.2505 13.2037L31.9751 8.84235C31.2505 8.3365 30.2661 8.32282 29.5552 8.81501L23.2661 13.2037C22.3228 13.8599 22.3228 14.9127 23.2661 15.5689Z" fill="black" fill-opacity="0.85"/>
 </g>
</svg>
