<?xml version="1.0" encoding="UTF-8"?>
<!--Generator: Apple Native CoreSVG 326-->
<!DOCTYPE svg
PUBLIC "-//W3C//DTD SVG 1.1//EN"
       "http://www.w3.org/Graphics/SVG/1.1/DTD/svg11.dtd">
<svg version="1.1" xmlns="http://www.w3.org/2000/svg" xmlns:xlink="http://www.w3.org/1999/xlink" viewBox="0 0 32.375 30.5304">
 <g>
  <rect height="30.5304" opacity="0" width="32.375" x="0" y="0"/>
  <path d="M0 12.1959C0 13.4947 0.792969 14.2877 2.0918 14.2877L29.9141 14.2877C31.2129 14.2877 32.0195 13.4947 32.0195 12.1959L32.0195 11.526C32.0195 10.2408 31.2129 9.42049 29.9141 9.42049L2.0918 9.42049C0.792969 9.42049 0 10.2408 0 11.526ZM8.69531 29.2994L23.3242 29.2994C26.4824 29.2994 27.4668 27.4537 27.8633 25.4713L29.7637 16.1607L2.26953 16.1607L4.15625 25.4713C4.55273 27.4537 5.53711 29.2994 8.69531 29.2994ZM9.58398 26.9478C9.06445 27.0299 8.68164 26.7564 8.59961 26.2916L7.42383 19.4146C7.3418 18.9498 7.64258 18.5806 8.16211 18.4849C8.68164 18.4166 9.07812 18.6763 9.16016 19.1412L10.3223 26.0181C10.3906 26.483 10.1172 26.8521 9.58398 26.9478ZM13.918 26.9342C13.3984 26.9615 13.0156 26.6471 12.9883 26.1685L12.5371 19.3736C12.5098 18.8951 12.8516 18.5533 13.3574 18.5123C13.8906 18.4713 14.2461 18.7994 14.2871 19.2779L14.7383 26.0728C14.7656 26.5513 14.4238 26.9068 13.918 26.9342ZM18.1289 26.9342C17.6094 26.9068 17.2676 26.5513 17.2949 26.0728L17.7461 19.2779C17.7871 18.7994 18.1426 18.4713 18.6758 18.5123C19.1816 18.5533 19.5234 18.8951 19.4961 19.3736L19.0449 26.1685C19.0176 26.6471 18.6348 26.9615 18.1289 26.9342ZM22.4355 26.9478C21.9023 26.8521 21.6289 26.483 21.6973 26.0181L22.8594 19.1412C22.9414 18.6763 23.3379 18.4166 23.8574 18.4849C24.377 18.5806 24.6777 18.9771 24.5957 19.442L23.4199 26.2916C23.3379 26.7564 22.9414 27.0299 22.4355 26.9478ZM4.40234 10.0084L7.13672 10.0084L11.9492 1.65486C12.3184 0.998615 12.0176 0.424396 11.5117 0.150959C11.0195-0.108807 10.3633-0.0677913 9.99414 0.547443ZM24.8828 10.0084L27.6172 10.0084L22.0254 0.547443C21.6699-0.0541195 21.0137-0.0951351 20.5078 0.150959C20.0156 0.424396 19.7012 0.998615 20.0703 1.65486Z" fill="black" fill-opacity="0.85"/>
 </g>
</svg>
