<?xml version="1.0" encoding="UTF-8"?>
<!--Generator: Apple Native CoreSVG 326-->
<!DOCTYPE svg
PUBLIC "-//W3C//DTD SVG 1.1//EN"
       "http://www.w3.org/Graphics/SVG/1.1/DTD/svg11.dtd">
<svg version="1.1" xmlns="http://www.w3.org/2000/svg" xmlns:xlink="http://www.w3.org/1999/xlink" viewBox="0 0 32.375 30.5304">
 <g>
  <rect height="30.5304" opacity="0" width="32.375" x="0" y="0"/>
  <path d="M0 13.5084C0 14.7935 0.792969 15.6002 2.0918 15.6002L29.9141 15.6002C31.2129 15.6002 32.0195 14.7935 32.0195 13.5084L32.0195 11.526C32.0195 10.2408 31.2129 9.42049 29.9141 9.42049L2.0918 9.42049C0.792969 9.42049 0 10.2408 0 11.526ZM2.625 11.5943L29.3809 11.5943C29.6816 11.5943 29.8594 11.7721 29.8594 12.0728L29.8594 12.9478C29.8594 13.2486 29.6816 13.44 29.3809 13.44L2.625 13.44C2.32422 13.44 2.16016 13.2486 2.16016 12.9478L2.16016 12.0728C2.16016 11.7721 2.32422 11.5943 2.625 11.5943ZM8.69531 29.2994L23.3242 29.2994C26.4824 29.2994 27.4531 27.4537 27.8633 25.4713L30.0371 15.0533L27.8906 14.6842L25.8535 24.6373C25.4844 26.3873 24.9375 27.1119 22.9414 27.1119L9.07812 27.1119C7.08203 27.1119 6.53516 26.3873 6.16602 24.6373L4.12891 14.6842L1.98242 15.0533L4.15625 25.4713C4.56641 27.4537 5.53711 29.2994 8.69531 29.2994ZM10.1855 25.6217C10.6914 25.5396 10.9648 25.1705 10.8965 24.733L9.76172 17.5826C9.67969 17.1314 9.29688 16.8853 8.80469 16.9537C8.29883 17.0494 8.01172 17.4049 8.09375 17.8424L9.22852 24.9928C9.31055 25.4439 9.67969 25.7037 10.1855 25.6217ZM14.1094 25.5396C14.6016 25.5123 14.9297 25.1842 14.9023 24.733L14.4648 17.651C14.4238 17.1861 14.082 16.8717 13.5762 16.9127C13.084 16.9537 12.7559 17.2818 12.7832 17.7467L13.2207 24.815C13.248 25.2799 13.6172 25.5806 14.1094 25.5396ZM17.9238 25.5396C18.416 25.5806 18.7852 25.2799 18.8125 24.815L19.25 17.7467C19.2773 17.2818 18.9492 16.9537 18.457 16.9127C17.9512 16.8717 17.6094 17.1861 17.5684 17.651L17.1309 24.733C17.1035 25.1842 17.4316 25.5123 17.9238 25.5396ZM21.834 25.6217C22.3262 25.7037 22.709 25.4439 22.791 24.9928L23.9395 17.8424C24.0078 17.4049 23.7207 17.0494 23.2148 16.9537C22.7227 16.8853 22.3398 17.1314 22.2578 17.5826L21.123 24.733C21.0547 25.1705 21.3281 25.5396 21.834 25.6217ZM4.41602 9.98104L7.16406 9.98104L11.9492 1.65486C12.3184 0.998615 12.0176 0.424396 11.5117 0.150959C11.0195-0.108807 10.3633-0.0677913 9.99414 0.547443ZM24.8555 9.98104L27.6035 9.98104L22.0254 0.547443C21.6699-0.0541195 21.0137-0.0951351 20.5078 0.150959C20.0156 0.424396 19.7012 0.998615 20.0703 1.65486Z" fill="black" fill-opacity="0.85"/>
 </g>
</svg>
