<?xml version="1.0" encoding="UTF-8"?>
<!--Generator: Apple Native CoreSVG 326-->
<!DOCTYPE svg
PUBLIC "-//W3C//DTD SVG 1.1//EN"
       "http://www.w3.org/Graphics/SVG/1.1/DTD/svg11.dtd">
<svg version="1.1" xmlns="http://www.w3.org/2000/svg" xmlns:xlink="http://www.w3.org/1999/xlink" viewBox="0 0 28.2461 27.877">
 <g>
  <rect height="27.877" opacity="0" width="28.2461" x="0" y="0"/>
  <path d="M0.0136719 13.7676C1.2168 12.1133 2.73438 10.582 4.38867 9.32422C4.375 9.26953 4.375 9.20117 4.36133 9.13281C4.30664 8.13477 3.66406 6.19336 2.50195 6.0293C1.01172 8.16211 0.0957031 10.7188 0 13.4668C0 13.5762 0 13.6719 0.0136719 13.7676ZM5.82422 8.3125C6.26172 8.02539 6.71289 7.75195 7.16406 7.50586C6.87695 5.03125 6.98633 3.02148 7.41016 1.64062C5.89258 2.46094 4.55273 3.54102 3.41797 4.82617C4.78516 5.19531 5.55078 6.94531 5.82422 8.3125ZM8.61328 6.78125C9.2832 6.4668 9.98047 6.19336 10.6914 5.96094C10.6641 5.67383 10.6367 5.40039 10.6367 5.11328C10.6367 2.92578 11.8125 1.10742 13.6445 0C13.5488 0 13.4805 0 13.3848 0C11.8535 0.0546875 10.3633 0.369141 8.99609 0.902344C8.62695 2.11914 8.35352 4.06055 8.61328 6.78125ZM12.2363 5.49609C13.9453 5.05859 15.7363 4.82617 17.5957 4.82617C20.3711 4.82617 23.1328 5.37305 25.6074 6.38477C23.625 3.33594 20.4941 1.09375 16.8438 0.300781C13.959 1.13477 12.1406 2.67969 12.209 5.11328C12.209 5.23633 12.2227 5.37305 12.2363 5.49609ZM4.36133 11.3613C2.78906 12.7559 1.32617 14.4238 0.191406 16.2422C0.724609 19.3594 2.33789 22.1621 4.62109 24.2402C2.9668 20.3574 4.15625 15.5176 4.36133 11.3613ZM5.97461 10.0898C6.01562 16.3379 3.19922 23.502 9.24219 26.9746C10.6914 27.5488 12.291 27.877 13.9453 27.877C14.7109 27.877 15.4629 27.8223 16.1875 27.6992C10.9648 21.3281 8.33984 14.4648 7.41016 9.16016C6.91797 9.44727 6.43945 9.74805 5.97461 10.0898ZM11.1152 7.45117C10.3359 7.72461 9.55664 8.03906 8.81836 8.4082C9.65234 13.5625 12.2773 20.6855 17.8965 27.2891C20.877 26.4004 23.4609 24.5137 25.252 22.0117C25.0469 15.2852 13.6035 13.2754 11.1152 7.45117ZM26.4824 19.9746C27.3848 18.1289 27.8906 16.0918 27.8906 13.9316C27.8906 12.0723 27.5215 10.2812 26.8242 8.66797C23.9121 7.15039 20.9043 6.39844 17.5957 6.39844C15.8867 6.39844 14.2324 6.60352 12.6602 7C14.834 11.498 24.459 13.5215 26.4824 19.9746Z" fill="black" fill-opacity="0.85"/>
 </g>
</svg>
