<?xml version="1.0" encoding="UTF-8"?>
<!--Generator: Apple Native CoreSVG 326-->
<!DOCTYPE svg
PUBLIC "-//W3C//DTD SVG 1.1//EN"
       "http://www.w3.org/Graphics/SVG/1.1/DTD/svg11.dtd">
<svg version="1.1" xmlns="http://www.w3.org/2000/svg" xmlns:xlink="http://www.w3.org/1999/xlink" viewBox="0 0 40.8242 18.498">
 <g>
  <rect height="18.498" opacity="0" width="40.8242" x="0" y="0"/>
  <path d="M7.28711 18.498L28.7793 18.498C31.1172 18.498 33.0859 18.2793 34.4805 16.8848C35.875 15.4902 36.0801 13.5488 36.0801 11.2109L36.0801 7.28711C36.0801 4.94922 35.875 3.00781 34.4805 1.61328C33.0859 0.21875 31.1172 0 28.7793 0L7.25977 0C4.96289 0 2.99414 0.21875 1.59961 1.61328C0.205078 3.00781 0 4.96289 0 7.24609L0 11.2109C0 13.5488 0.205078 15.4902 1.59961 16.8848C2.99414 18.2793 4.96289 18.498 7.28711 18.498ZM6.91797 16.2969C5.50977 16.2969 4.0332 16.1055 3.19922 15.2852C2.37891 14.4512 2.20117 12.9883 2.20117 11.5801L2.20117 6.94531C2.20117 5.50977 2.37891 4.04688 3.19922 3.21289C4.0332 2.37891 5.52344 2.20117 6.95898 2.20117L29.1621 2.20117C30.5703 2.20117 32.0469 2.39258 32.8672 3.21289C33.7012 4.04688 33.8789 5.49609 33.8789 6.9043L33.8789 11.5801C33.8789 12.9883 33.7012 14.4512 32.8672 15.2852C32.0469 16.1055 30.5703 16.2969 29.1621 16.2969ZM37.9395 12.7832C39.0195 12.7148 40.4688 11.334 40.4688 9.24219C40.4688 7.16406 39.0195 5.7832 37.9395 5.71484Z" fill="black" fill-opacity="0.5"/>
 </g>
</svg>
