<?xml version="1.0" encoding="UTF-8"?>
<!--Generator: Apple Native CoreSVG 326-->
<!DOCTYPE svg
PUBLIC "-//W3C//DTD SVG 1.1//EN"
       "http://www.w3.org/Graphics/SVG/1.1/DTD/svg11.dtd">
<svg version="1.1" xmlns="http://www.w3.org/2000/svg" xmlns:xlink="http://www.w3.org/1999/xlink" viewBox="0 0 27.9632 32.4294">
 <g>
  <rect height="32.4294" opacity="0" width="27.9632" x="0" y="0"/>
  <path d="M15.5334 6.99302L17.7072 7.78599L19.922 1.67466C20.1681 1.00474 19.8947 0.375829 19.2521 0.129736C18.6095-0.102686 18.008 0.198095 17.7619 0.881689ZM15.7658 2.50864C7.76773 0.868017 1.84781 6.24106 0.0978108 11.1083C-0.189299 11.8739 0.193514 12.5165 0.754061 12.7352C1.20523 12.8993 1.60172 12.7079 1.95719 12.4208C3.22867 11.4774 4.41812 11.0809 5.82633 11.6004C6.76969 11.9422 7.31656 12.5848 7.64469 13.2274C7.84976 13.6239 8.24625 13.6375 8.35562 13.2C9.51773 8.64731 12.3068 4.83286 15.7658 2.50864ZM18.5138 2.01645C14.6173 4.65513 11.213 9.27622 10.0373 14.1434C9.92789 14.6083 10.2834 14.9227 10.8302 14.7176C11.924 14.2665 12.9767 14.1161 13.9748 14.4852C14.9728 14.8407 15.6837 15.6336 16.2443 16.6864C16.5177 17.1786 16.9689 17.1922 17.2013 16.7547C19.4298 12.284 19.799 6.52817 18.5138 2.01645ZM20.3732 4.17661C21.5216 8.1688 21.1935 12.8719 19.1837 17.1512C18.9923 17.5477 19.2795 17.8075 19.7033 17.6161C20.3869 17.329 21.2072 17.1922 22.1369 17.534C23.5587 18.0536 24.215 19.1336 24.5841 20.6512C24.6662 21.1024 24.8712 21.5125 25.2951 21.6629C25.8693 21.868 26.5802 21.6219 26.8537 20.8426C28.631 15.9891 27.5646 8.0731 20.3732 4.17661ZM6.83805 30.8915C6.6193 31.493 6.92008 32.1493 7.52164 32.368C8.10953 32.5731 8.79312 32.245 8.9982 31.6708L15.3146 14.3485L13.1545 13.5555Z" fill="black" fill-opacity="0.85"/>
 </g>
</svg>
