<?xml version="1.0" encoding="UTF-8"?>
<!--Generator: Apple Native CoreSVG 326-->
<!DOCTYPE svg
PUBLIC "-//W3C//DTD SVG 1.1//EN"
       "http://www.w3.org/Graphics/SVG/1.1/DTD/svg11.dtd">
<svg version="1.1" xmlns="http://www.w3.org/2000/svg" xmlns:xlink="http://www.w3.org/1999/xlink" viewBox="0 0 27.9516 32.4048">
 <g>
  <rect height="32.4048" opacity="0" width="27.9516" x="0" y="0"/>
  <path d="M0.0920192 11.0823C-0.181418 11.8616 0.187722 12.5042 0.761941 12.7092C1.19944 12.8733 1.62327 12.6682 1.97874 12.3811C3.22288 11.4651 4.41233 11.0549 5.83421 11.5745C7.25608 12.0803 7.8303 13.1331 8.07639 14.596C8.14475 15.0745 8.30882 15.4573 8.71897 15.6077C9.15647 15.7717 9.52561 15.5803 9.89475 15.2659C10.7151 14.5686 11.8225 14.2131 12.8752 14.2678L6.81858 30.8655C6.59983 31.4534 6.91428 32.1233 7.51585 32.342C8.09007 32.5471 8.77366 32.2327 8.99241 31.6448L15.0354 15.0471C15.8694 15.6897 16.4709 16.6741 16.6487 17.7405C16.7444 18.1917 16.8948 18.5881 17.3186 18.7385C17.7424 18.8889 18.1116 18.6838 18.4807 18.3831C19.6155 17.426 20.7092 16.9885 22.1311 17.4944C23.553 18.0276 24.2092 19.094 24.5647 20.6253C24.6741 21.0628 24.8518 21.4866 25.2893 21.637C25.8635 21.842 26.5881 21.596 26.8479 20.8167C28.7073 15.717 27.4358 7.21314 19.2053 3.57642L19.9162 1.64869C20.1487 0.965096 19.8889 0.349862 19.2326 0.103768C18.6037-0.128654 17.9885 0.185799 17.7424 0.855721L17.0451 2.79713C8.40452 0.281503 1.95139 5.95533 0.0920192 11.0823ZM3.29124 9.49635C5.61546 5.92799 9.99046 3.67213 14.885 4.50611C12.6838 5.95533 10.5647 8.4983 9.18382 11.7795C8.63694 10.7268 7.74827 10.0022 6.57249 9.59205C5.46507 9.19557 4.38499 9.15455 3.29124 9.49635ZM10.8381 12.4631C12.3967 8.75807 15.0217 6.09205 17.4006 5.13502C18.6311 7.40455 18.9319 11.1233 17.7424 14.9924C17.0862 13.8577 15.9787 12.9417 14.7346 12.4768C13.4905 12.0256 12.0549 12.0256 10.8381 12.4631ZM19.4377 15.512C20.5041 12.1077 20.5178 8.81275 19.7658 6.28346C24.0315 8.79908 25.9319 13.3381 25.4123 17.5491C24.7971 16.592 23.9358 15.9221 22.8557 15.512C21.6799 15.0881 20.5315 15.0608 19.4377 15.512Z" fill="black" fill-opacity="0.85"/>
 </g>
</svg>
