<?xml version="1.0" encoding="UTF-8"?>
<!--Generator: Apple Native CoreSVG 326-->
<!DOCTYPE svg
PUBLIC "-//W3C//DTD SVG 1.1//EN"
       "http://www.w3.org/Graphics/SVG/1.1/DTD/svg11.dtd">
<svg version="1.1" xmlns="http://www.w3.org/2000/svg" xmlns:xlink="http://www.w3.org/1999/xlink" viewBox="0 0 27.5898 29.1074">
 <g>
  <rect height="29.1074" opacity="0" width="27.5898" x="0" y="0"/>
  <path d="M0 13.7402C0 16.1191 0.601562 18.5801 1.72266 20.877C1.35352 21.2734 1.27148 22.0254 1.6543 22.791L4.30664 28.1777C4.53906 28.6562 5.08594 28.916 5.61914 28.916C6.19336 28.916 6.74023 28.6016 6.82227 27.8906L3.82812 21.7793C2.88477 19.8652 2.06445 16.748 2.06445 13.7539C2.06445 6.93164 6.72656 2.32422 13.6172 2.32422C20.4941 2.32422 25.1699 6.93164 25.1699 13.7539C25.1699 16.748 24.3496 19.8652 23.4062 21.7793L20.3984 27.8906C20.4941 28.6016 21.041 28.916 21.6152 28.916C22.1348 28.916 22.6816 28.6562 22.9277 28.1777L25.5664 22.791C25.9492 22.0254 25.8809 21.2734 25.5117 20.877C26.6328 18.5801 27.2344 16.1191 27.2344 13.7402C27.2344 6.08398 21.957 0 13.6172 0C5.27734 0 0 6.08398 0 13.7402Z" fill="black" fill-opacity="0.85"/>
  <path d="M7.02734 18.7168C6.53516 17.7051 5.60547 17.4863 4.89453 17.7734C4.08789 18.0879 3.52734 19.0449 4.12891 20.2754L7.61523 27.3711C8.14844 28.4512 9.10547 28.834 10.0352 28.3691C10.8418 27.9863 11.1426 27.0703 10.6777 26.0996ZM20.1934 18.7168L16.5566 26.0996C16.0918 27.0703 16.3926 27.9863 17.1855 28.3691C18.1152 28.834 19.0859 28.4512 19.6191 27.3711L23.1055 20.2754C23.707 19.0449 23.1328 18.0879 22.3398 17.7734C21.6152 17.4863 20.6992 17.7051 20.1934 18.7168Z" fill="black" fill-opacity="0.85"/>
 </g>
</svg>
