<?xml version="1.0" encoding="UTF-8"?>
<!--Generator: Apple Native CoreSVG 326-->
<!DOCTYPE svg
PUBLIC "-//W3C//DTD SVG 1.1//EN"
       "http://www.w3.org/Graphics/SVG/1.1/DTD/svg11.dtd">
<svg version="1.1" xmlns="http://www.w3.org/2000/svg" xmlns:xlink="http://www.w3.org/1999/xlink" viewBox="0 0 35.3555 25.1699">
 <g>
  <rect height="25.1699" opacity="0" width="35.3555" x="0" y="0"/>
  <path d="M0 12.5781C0 17.1855 2.1875 21.4648 6.72656 23.6523C8.88672 24.7051 11.6621 25.1699 15.5039 25.1699L19.4961 25.1699C23.3379 25.1699 26.1133 24.7051 28.2734 23.6523C32.8125 21.4648 35 17.1855 35 12.5781C35 8.46289 32.7852 4.19727 28.2734 2.02344C26.1133 0.970703 23.3379 0.505859 19.4961 0.505859L15.5039 0.505859C11.6621 0.505859 8.88672 0.970703 6.72656 2.02344C2.20117 4.19727 0 8.46289 0 12.5781ZM2.20117 12.5781C2.20117 8.14844 5.22266 4.34766 9.88477 3.24023C11.375 2.88477 13.207 2.70703 15.5039 2.70703L19.4961 2.70703C23.0781 2.70703 25.498 3.11719 27.3164 4.00586C30.707 5.64648 32.7988 8.91406 32.7988 12.5781C32.7988 18.252 29.0117 22.3125 22.8457 22.8047C21.8477 22.9141 20.7402 22.9688 19.4961 22.9688L15.5039 22.9688C11.9219 22.9688 9.50195 22.5586 7.68359 21.6699C4.19727 19.9883 2.20117 16.6934 2.20117 12.5781ZM2.5293 7.58789L32.4844 7.58789L32.4844 6.20703L2.5293 6.20703ZM17.5137 17.3496C19.0449 17.3496 20.3027 16.1055 20.3027 14.6289C20.3027 13.0703 19.0176 11.7988 17.5137 11.7988C16.9531 11.7988 16.4609 11.9492 15.9961 12.291L15.9961 10.0762L14.7383 10.623L14.7383 14.6289C14.7383 16.1465 15.9414 17.3496 17.5137 17.3496ZM17.5137 16.1055C16.6797 16.1055 15.9961 15.4219 15.9961 14.6289C15.9961 13.7949 16.6934 13.0977 17.5137 13.0977C18.334 13.0977 19.0176 13.8086 19.0176 14.6289C19.0176 15.4219 18.334 16.1055 17.5137 16.1055Z" fill="black" fill-opacity="0.85"/>
 </g>
</svg>
