<?xml version="1.0" encoding="UTF-8"?>
<!--Generator: Apple Native CoreSVG 326-->
<!DOCTYPE svg
PUBLIC "-//W3C//DTD SVG 1.1//EN"
       "http://www.w3.org/Graphics/SVG/1.1/DTD/svg11.dtd">
<svg version="1.1" xmlns="http://www.w3.org/2000/svg" xmlns:xlink="http://www.w3.org/1999/xlink" viewBox="0 0 23.9121 22.4082">
 <g>
  <rect height="22.4082" opacity="0" width="23.9121" x="0" y="0"/>
  <path d="M10.0488 14.0684C11.9629 14.8887 14.1777 13.9453 15.0117 12.0586L17.7734 5.76953C18.6074 3.86914 17.6914 1.62695 15.7773 0.792969C13.8496-0.0273438 11.6348 0.875 10.7871 2.81641L8.03906 9.10547C7.19141 11.0195 8.12109 13.2344 10.0488 14.0684ZM11.4297 12.9473C10.1172 12.9473 9.0918 11.9082 9.0918 10.5957C9.0918 9.29688 10.1309 8.24414 11.4297 8.24414C12.7559 8.24414 13.7949 9.29688 13.7949 10.5957C13.7949 11.9082 12.7559 12.9473 11.4297 12.9473ZM11.4297 11.9766C12.2363 11.9766 12.8105 11.3613 12.8105 10.5957C12.8105 9.84375 12.2363 9.21484 11.4297 9.21484C10.6504 9.21484 10.0625 9.84375 10.0625 10.5957C10.0625 11.3613 10.6504 11.9766 11.4297 11.9766ZM23.2559 10.0488C22.5449 7.69727 20.7949 6.57617 19.3047 5.31836C19.2227 5.66016 19.127 5.97461 18.9766 6.30273L16.2148 12.5918C15.0801 15.1758 12.0996 16.3652 9.51562 15.2852C6.98633 14.1777 5.76953 11.334 6.74023 8.81836C5.48242 10.3223 5.19531 12.6191 6.13867 15.2168C7.84766 20.0156 12.2227 20.918 16.5156 19.2363L19.0996 18.2109C22.6133 16.8301 24.2812 13.5762 23.2559 10.0488Z" fill="black" fill-opacity="0.85"/>
  <path d="M4.89453 15.668C4.25195 13.918 4.10156 12.1953 4.4707 10.5C1.90039 11.1973 0 13.5488 0 16.3516C0 19.7012 2.70703 22.4082 6.0293 22.4082C7.54688 22.4082 8.94141 21.8613 9.99414 20.918C7.68359 20.166 5.86523 18.375 4.89453 15.668Z" fill="black" fill-opacity="0.85"/>
 </g>
</svg>
