<?xml version="1.0" encoding="UTF-8"?>
<!--Generator: Apple Native CoreSVG 326-->
<!DOCTYPE svg
PUBLIC "-//W3C//DTD SVG 1.1//EN"
       "http://www.w3.org/Graphics/SVG/1.1/DTD/svg11.dtd">
<svg version="1.1" xmlns="http://www.w3.org/2000/svg" xmlns:xlink="http://www.w3.org/1999/xlink" viewBox="0 0 27.6582 27.166">
 <g>
  <rect height="27.166" opacity="0" width="27.6582" x="0" y="0"/>
  <path d="M8.38086 27.1523L18.8809 27.1523C24.418 27.1523 27.3027 24.2812 27.3027 18.7715L27.3027 8.38086C27.3027 2.87109 24.418 0 18.8809 0L8.38086 0C2.87109 0 0 2.87109 0 8.38086L0 18.7715C0 24.2812 2.87109 27.1523 8.38086 27.1523ZM8.08008 24.9512C4.21094 24.9512 2.20117 22.9277 2.20117 19.0723L2.20117 8.08008C2.20117 4.21094 4.21094 2.20117 8.08008 2.20117L19.2637 2.20117C23.0918 2.20117 25.1016 4.19727 25.1016 7.99805L25.1016 19.1543C25.1016 22.9551 23.0918 24.9512 19.2637 24.9512ZM13.6445 20.043C17.2266 20.043 20.1113 17.1035 20.1113 13.5762C20.1113 10.0078 17.1582 7.13672 13.6445 7.13672C13.0156 7.13672 12.4414 7.19141 11.9355 7.3418L11.9355 11.0059C12.4414 10.6367 13.043 10.4316 13.6445 10.4316C15.3262 10.4316 16.7617 11.8809 16.7617 13.5762C16.7617 15.2715 15.3535 16.6523 13.6445 16.6523C11.9082 16.6523 10.541 15.2988 10.541 13.5762L10.541 7.90234C8.49023 9.05078 7.19141 11.1836 7.19141 13.5762C7.19141 17.1719 10.0762 20.043 13.6445 20.043ZM13.6445 15.2852C14.5605 15.2852 15.3398 14.4785 15.3398 13.5762C15.3398 12.7012 14.5332 11.8945 13.6445 11.8945C12.7559 11.8945 11.9629 12.6602 11.9629 13.5762C11.9629 14.5195 12.7285 15.2852 13.6445 15.2852Z" fill="black" fill-opacity="0.85"/>
 </g>
</svg>
