<?xml version="1.0" encoding="UTF-8"?>
<!--Generator: Apple Native CoreSVG 326-->
<!DOCTYPE svg
PUBLIC "-//W3C//DTD SVG 1.1//EN"
       "http://www.w3.org/Graphics/SVG/1.1/DTD/svg11.dtd">
<svg version="1.1" xmlns="http://www.w3.org/2000/svg" xmlns:xlink="http://www.w3.org/1999/xlink" viewBox="0 0 42.8066 22.791">
 <g>
  <rect height="22.791" opacity="0" width="42.8066" x="0" y="0"/>
  <path d="M0 11.3887C0 18.6621 5.16797 22.7773 14.3691 22.7773L28.082 22.7773C37.2695 22.7773 42.4512 18.6621 42.4512 11.3887C42.4512 4.11523 37.2695 0 28.082 0L14.3691 0C5.16797 0 0 4.11523 0 11.3887ZM2.20117 11.3887C2.20117 5.49609 6.5625 2.20117 14.3691 2.20117L28.082 2.20117C35.8887 2.20117 40.2363 5.49609 40.2363 11.3887C40.2363 17.2812 35.8887 20.5762 28.082 20.5762L14.3691 20.5762C6.5625 20.5762 2.20117 17.2812 2.20117 11.3887ZM1.10742 11.3887L41.3301 11.3887L41.3301 10.0078L1.10742 10.0078ZM11.6895 12.3184L30.7617 12.3184C31.7051 12.3184 32.3887 11.6484 32.3887 10.7051C32.3887 9.74805 31.7051 9.0918 30.7617 9.0918L11.6895 9.0918C10.7598 9.0918 10.0488 9.74805 10.0488 10.7051C10.0488 11.6484 10.7598 12.3184 11.6895 12.3184ZM21.2188 16.3242C21.9844 16.3105 22.5996 15.668 22.5996 14.9707C22.5996 14.2051 21.9844 13.5898 21.2188 13.5898C20.4668 13.5898 19.8516 14.2051 19.8516 14.9707C19.8516 15.709 20.4668 16.3379 21.2188 16.3242Z" fill="black" fill-opacity="0.85"/>
 </g>
</svg>
