<?xml version="1.0" encoding="UTF-8"?>
<!--Generator: Apple Native CoreSVG 326-->
<!DOCTYPE svg
PUBLIC "-//W3C//DTD SVG 1.1//EN"
       "http://www.w3.org/Graphics/SVG/1.1/DTD/svg11.dtd">
<svg version="1.1" xmlns="http://www.w3.org/2000/svg" xmlns:xlink="http://www.w3.org/1999/xlink" viewBox="0 0 42.7793 22.791">
 <g>
  <rect height="22.791" opacity="0" width="42.7793" x="0" y="0"/>
  <path d="M0.0683594 10.1855L10.1992 10.1855C10.4453 9.625 11.0059 9.26953 11.6758 9.26953L30.748 9.26953C31.4316 9.26953 31.9785 9.625 32.2383 10.1855L42.3691 10.1855C41.6855 3.5 36.791 0 28.0684 0L14.3555 0C5.66016 0 0.751953 3.5 0.0683594 10.1855ZM28.0684 22.7773C37.3105 22.7773 42.3145 18.8672 42.4238 11.5664L32.2383 11.5664C31.9785 12.127 31.4316 12.4824 30.748 12.4824L11.6758 12.4824C11.0059 12.4824 10.4453 12.127 10.1992 11.5664L0 11.5664C0.0957031 18.6074 5.44141 22.7773 14.3555 22.7773ZM21.2188 16.9668C20.4668 16.9805 19.8516 16.3516 19.8516 15.6133C19.8516 14.8613 20.4668 14.2461 21.2188 14.2461C21.9707 14.2461 22.5859 14.8613 22.5859 15.6133C22.5859 16.3242 21.9707 16.9531 21.2188 16.9668Z" fill="black" fill-opacity="0.85"/>
 </g>
</svg>
