<?xml version="1.0" encoding="UTF-8"?>
<!--Generator: Apple Native CoreSVG 326-->
<!DOCTYPE svg
PUBLIC "-//W3C//DTD SVG 1.1//EN"
       "http://www.w3.org/Graphics/SVG/1.1/DTD/svg11.dtd">
<svg version="1.1" xmlns="http://www.w3.org/2000/svg" xmlns:xlink="http://www.w3.org/1999/xlink" viewBox="0 0 19.0723 26.4551">
 <g>
  <rect height="26.4551" opacity="0" width="19.0723" x="0" y="0"/>
  <path d="M6.52148 0C2.21484 0 0 3.17188 0 8.20312L0 11.3887C0 14.9707 0.902344 16.666 3.44531 18.0605L9.25586 21.2598C10.7598 22.0664 11.457 22.3398 12.5098 22.3398C14.6836 22.3398 16.4609 20.5488 16.4609 18.3887C16.4609 16.9121 15.6816 15.5449 14 14.6562L2.44727 8.62695C2.44727 4.62109 3.75977 2.46094 6.6582 2.46094C11.5117 2.46094 15.709 8.16211 16.2012 14.6562C17.2266 15.668 17.7871 16.9531 17.7871 18.3887C17.7871 20.7812 16.1465 22.8184 13.959 23.4609C14.0684 24.9512 14.9844 26.4277 16.0918 26.4277C17.5273 26.4277 18.7168 21.5332 18.7168 17.1035C18.7168 7.68359 13.207 0 6.52148 0ZM12.6055 20.8633C11.252 20.8633 10.1309 19.7422 10.1309 18.375C10.1309 17.0078 11.252 15.8867 12.6055 15.8867C13.9863 15.8867 15.1074 17.0078 15.1074 18.375C15.1074 19.7422 13.9863 20.8633 12.6055 20.8633ZM12.6055 19.8926C13.4531 19.8926 14.1367 19.209 14.1367 18.375C14.1367 17.5547 13.4531 16.8574 12.6055 16.8574C11.7852 16.8574 11.1016 17.5547 11.1016 18.375C11.1016 19.209 11.7852 19.8926 12.6055 19.8926Z" fill="black" fill-opacity="0.85"/>
 </g>
</svg>
