<?xml version="1.0" encoding="UTF-8"?>
<!--Generator: Apple Native CoreSVG 326-->
<!DOCTYPE svg
PUBLIC "-//W3C//DTD SVG 1.1//EN"
       "http://www.w3.org/Graphics/SVG/1.1/DTD/svg11.dtd">
<svg version="1.1" xmlns="http://www.w3.org/2000/svg" xmlns:xlink="http://www.w3.org/1999/xlink" viewBox="0 0 35 23.0918">
 <g>
  <rect height="23.0918" opacity="0" width="35" x="0" y="0"/>
  <path d="M1.16211 23.0645L1.98242 23.0645C2.67969 23.0645 3.14453 22.6133 3.14453 21.9023L3.14453 19.8789C3.29492 19.9199 3.74609 19.9473 4.07422 19.9473L30.5703 19.9473C30.8984 19.9473 31.3496 19.9199 31.5 19.8789L31.5 21.9023C31.5 22.6133 31.9648 23.0645 32.6621 23.0645L33.4824 23.0645C34.1934 23.0645 34.6445 22.6133 34.6445 21.9023L34.6445 12.5371C34.6445 9.92578 33.2227 8.51758 30.6113 8.51758L4.0332 8.51758C1.42188 8.51758 0 9.92578 0 12.5371L0 21.9023C0 22.6133 0.451172 23.0645 1.16211 23.0645ZM2.73438 17.9512C2.44727 17.9512 2.26953 17.7461 2.26953 17.418L2.26953 12.2227C2.26953 11.1836 2.95312 10.5137 4.01953 10.5137L30.6387 10.5137C31.6914 10.5137 32.375 11.1836 32.375 12.2227L32.375 17.418C32.375 17.7461 32.1973 17.9512 31.9102 17.9512ZM3.55469 8.80469L7.15039 8.80469L7.15039 5.98828C7.15039 4.7168 7.86133 4.01953 9.16016 4.01953L13.959 4.01953C15.2441 4.01953 15.9551 4.7168 15.9551 5.98828L15.9551 8.80469L18.6895 8.80469L18.6895 5.98828C18.6895 4.7168 19.4004 4.01953 20.6855 4.01953L25.4844 4.01953C26.7832 4.01953 27.4941 4.7168 27.4941 5.98828L27.4941 8.80469L31.0898 8.80469L31.0898 3.82812C31.0898 1.29883 29.7363 0 27.2754 0L7.36914 0C4.92188 0 3.55469 1.29883 3.55469 3.82812Z" fill="#00c7be"/>
 </g>
</svg>
