<?xml version="1.0" encoding="UTF-8"?>
<!--Generator: Apple Native CoreSVG 326-->
<!DOCTYPE svg
PUBLIC "-//W3C//DTD SVG 1.1//EN"
       "http://www.w3.org/Graphics/SVG/1.1/DTD/svg11.dtd">
<svg version="1.1" xmlns="http://www.w3.org/2000/svg" xmlns:xlink="http://www.w3.org/1999/xlink" viewBox="0 0 28.2461 27.9043">
 <g>
  <rect height="27.9043" opacity="0" width="28.2461" x="0" y="0"/>
  <path d="M13.9453 27.8906C21.6426 27.8906 27.8906 21.6426 27.8906 13.9453C27.8906 6.24805 21.6426 0 13.9453 0C6.24805 0 0 6.24805 0 13.9453C0 21.6426 6.24805 27.8906 13.9453 27.8906ZM13.9453 25.5664C7.51953 25.5664 2.32422 20.3711 2.32422 13.9453C2.32422 7.51953 7.51953 2.32422 13.9453 2.32422C20.3711 2.32422 25.5664 7.51953 25.5664 13.9453C25.5664 20.3711 20.3711 25.5664 13.9453 25.5664Z" fill="#00c7be"/>
  <path d="M5.6875 18.8672C5.6875 19.1953 5.91992 19.4141 6.24805 19.4141L6.63086 19.4141C6.95898 19.4141 7.17773 19.1953 7.17773 18.8672L7.17773 17.9102C7.25977 17.9238 7.46484 17.9238 7.62891 17.9238L20.2617 17.9238C20.4258 17.9238 20.6309 17.9238 20.7129 17.9102L20.7129 18.8672C20.7129 19.1953 20.9316 19.4141 21.2598 19.4141L21.6426 19.4141C21.9844 19.4141 22.2031 19.1953 22.2031 18.8672L22.2031 14.9844C22.2031 13.7402 21.5059 13.0566 20.2617 13.0566L7.62891 13.0566C6.38477 13.0566 5.6875 13.7402 5.6875 14.9844ZM7.25977 12.127L8.91406 12.127L8.91406 11.2109C8.91406 10.5957 9.24219 10.2539 9.87109 10.2539L12.3047 10.2539C12.9062 10.2539 13.248 10.5957 13.248 11.2109L13.248 12.127L14.7246 12.127L14.7246 11.2109C14.7246 10.5957 15.0664 10.2539 15.709 10.2539L17.9785 10.2539C18.6484 10.2539 18.9902 10.5957 18.9902 11.2109L18.9902 12.127L20.6445 12.127L20.6445 10.2676C20.6445 9.07812 19.9883 8.46289 18.8262 8.46289L9.06445 8.46289C7.90234 8.46289 7.25977 9.07812 7.25977 10.2676Z" fill="#00c7be"/>
 </g>
</svg>
