<?xml version="1.0" encoding="UTF-8"?>
<!--Generator: Apple Native CoreSVG 326-->
<!DOCTYPE svg
PUBLIC "-//W3C//DTD SVG 1.1//EN"
       "http://www.w3.org/Graphics/SVG/1.1/DTD/svg11.dtd">
<svg version="1.1" xmlns="http://www.w3.org/2000/svg" xmlns:xlink="http://www.w3.org/1999/xlink" viewBox="0 0 28.2461 27.9043">
 <g>
  <rect height="27.9043" opacity="0" width="28.2461" x="0" y="0"/>
  <path d="M13.9453 27.9043C21.6426 27.9043 27.8906 21.6562 27.8906 13.959C27.8906 6.27539 21.6426 0.0136719 13.9453 0.0136719C6.26172 0.0136719 0 6.27539 0 13.959C0 21.6562 6.26172 27.9043 13.9453 27.9043Z" fill="#ff3b30"/>
  <path d="M7.76562 19.0449C7.02734 19.0449 6.60352 18.6621 6.60352 18.1152C6.60352 17.3223 7.39648 16.6387 8.06641 15.9414C8.58594 15.3809 8.69531 14.2734 8.76367 13.3984C8.81836 10.377 9.625 8.32617 11.6895 7.56055C12.0176 6.54883 12.8105 5.74219 13.959 5.74219C15.1074 5.74219 15.9141 6.54883 16.2285 7.56055C18.293 8.32617 19.0996 10.377 19.168 13.3984C19.2227 14.2734 19.3184 15.3809 19.8516 15.9414C20.5488 16.625 21.3145 17.3223 21.3145 18.1152C21.3145 18.6621 20.8906 19.0449 20.166 19.0449ZM13.959 22.3125C12.6328 22.3125 11.6758 21.3555 11.5801 20.2344L16.3379 20.2344C16.2559 21.3555 15.2852 22.3125 13.959 22.3125Z" fill="white"/>
 </g>
</svg>
