<?xml version="1.0" encoding="UTF-8"?>
<!--Generator: Apple Native CoreSVG 326-->
<!DOCTYPE svg
PUBLIC "-//W3C//DTD SVG 1.1//EN"
       "http://www.w3.org/Graphics/SVG/1.1/DTD/svg11.dtd">
<svg version="1.1" xmlns="http://www.w3.org/2000/svg" xmlns:xlink="http://www.w3.org/1999/xlink" viewBox="0 0 25.5254 25.1699">
 <g>
  <rect height="25.1699" opacity="0" width="25.5254" x="0" y="0"/>
  <path d="M4.29297 25.1699L20.877 25.1699C23.748 25.1699 25.1699 23.7617 25.1699 20.9453L25.1699 4.23828C25.1699 1.42188 23.748 0 20.877 0L4.29297 0C1.43555 0 0 1.42188 0 4.23828L0 20.9453C0 23.7617 1.43555 25.1699 4.29297 25.1699Z" fill="#ff3b30"/>
  <path d="M6.41211 17.6641C5.67383 17.6641 5.25 17.2812 5.25 16.7344C5.25 15.9414 6.04297 15.2578 6.71289 14.5469C7.23242 14 7.35547 12.8926 7.41016 12.0176C7.46484 8.99609 8.27148 6.93164 10.3359 6.16602C10.6641 5.16797 11.457 4.34766 12.6055 4.34766C13.7539 4.34766 14.5605 5.16797 14.875 6.16602C16.9395 6.93164 17.7598 8.99609 17.8145 12.0176C17.8691 12.8926 17.9648 14 18.498 14.5469C19.1953 15.2441 19.9609 15.9414 19.9609 16.7344C19.9609 17.2812 19.5371 17.6641 18.8125 17.6641ZM12.6055 20.9316C11.2793 20.9316 10.3223 19.9746 10.2266 18.8398L14.998 18.8398C14.9023 19.9746 13.9316 20.9316 12.6055 20.9316Z" fill="white"/>
 </g>
</svg>
