<?xml version="1.0" encoding="UTF-8"?>
<!--Generator: Apple Native CoreSVG 326-->
<!DOCTYPE svg
PUBLIC "-//W3C//DTD SVG 1.1//EN"
       "http://www.w3.org/Graphics/SVG/1.1/DTD/svg11.dtd">
<svg version="1.1" xmlns="http://www.w3.org/2000/svg" xmlns:xlink="http://www.w3.org/1999/xlink" viewBox="0 0 25.5254 25.1699">
 <g>
  <rect height="25.1699" opacity="0" width="25.5254" x="0" y="0"/>
  <path d="M4.29297 25.1699L20.877 25.1699C23.748 25.1699 25.1699 23.7617 25.1699 20.9453L25.1699 4.23828C25.1699 1.42188 23.748 0 20.877 0L4.29297 0C1.43555 0 0 1.42188 0 4.23828L0 20.9453C0 23.7617 1.43555 25.1699 4.29297 25.1699ZM4.32031 22.9688C2.95312 22.9688 2.20117 22.2441 2.20117 20.8223L2.20117 4.36133C2.20117 2.93945 2.95312 2.20117 4.32031 2.20117L20.8496 2.20117C22.2031 2.20117 22.9688 2.93945 22.9688 4.36133L22.9688 20.8223C22.9688 22.2441 22.2031 22.9688 20.8496 22.9688Z" fill="#ff3b30"/>
  <path d="M6.58984 17.5137L18.6348 17.5137C19.332 17.5137 19.7422 17.1445 19.7422 16.6113C19.7422 15.8457 18.9902 15.1758 18.3203 14.4922C17.8008 13.959 17.7051 12.8789 17.6504 12.0176C17.5957 9.10547 16.8027 7.10938 14.8066 6.37109C14.5059 5.40039 13.7129 4.60742 12.6055 4.60742C11.498 4.60742 10.7188 5.40039 10.4043 6.37109C8.4082 7.10938 7.62891 9.10547 7.57422 12.0176C7.51953 12.8789 7.39648 13.959 6.89062 14.4922C6.24805 15.1895 5.46875 15.8457 5.46875 16.6113C5.46875 17.1445 5.87891 17.5137 6.58984 17.5137ZM12.6055 20.6719C13.8906 20.6719 14.834 19.7559 14.9297 18.6484L10.2949 18.6484C10.3906 19.7559 11.3203 20.6719 12.6055 20.6719Z" fill="#ff3b30"/>
 </g>
</svg>
