<?xml version="1.0" encoding="UTF-8"?>
<!--Generator: Apple Native CoreSVG 326-->
<!DOCTYPE svg
PUBLIC "-//W3C//DTD SVG 1.1//EN"
       "http://www.w3.org/Graphics/SVG/1.1/DTD/svg11.dtd">
<svg version="1.1" xmlns="http://www.w3.org/2000/svg" xmlns:xlink="http://www.w3.org/1999/xlink" viewBox="0 0 30.2935 30.0269">
 <g>
  <rect height="30.0269" opacity="0" width="30.2935" x="0" y="0"/>
  <path d="M14.9758 29.4031C12.6516 29.4031 10.9563 27.7078 10.7786 25.7937L19.1731 25.7937C18.9817 27.7078 17.2864 29.4031 14.9758 29.4031ZM20.6303 23.9207L4.13404 23.9207C2.84889 23.9207 2.06959 23.2644 2.06959 22.2664C2.06959 20.8992 3.46412 19.6687 4.65357 18.4519C5.55592 17.5086 5.78834 15.5671 5.89771 13.9949C5.92682 12.398 6.0761 10.9529 6.37422 9.6805ZM18.927 3.82301C22.5637 5.13551 23.9446 8.74488 24.054 13.9949C24.1497 15.5671 24.3958 17.5086 25.2981 18.4519C26.4876 19.6687 27.8684 20.8992 27.8684 22.2664C27.8684 22.673 27.7413 23.0229 27.5009 23.2934L9.09957 4.89205C9.65305 4.44356 10.2935 4.08687 11.0247 3.82301C11.5442 2.03199 12.9524 0.623788 14.9758 0.623788C16.9856 0.623788 18.4075 2.03199 18.927 3.82301Z" fill="#ff3b30"/>
  <path d="M2.34303 3.39918L26.9114 27.9265C27.3215 28.3504 27.9915 28.3504 28.4016 27.9265C28.7981 27.5164 28.8118 26.8601 28.4016 26.4363L3.84693 1.90894C3.43678 1.49879 2.76685 1.49879 2.34303 1.90894C1.94654 2.30543 1.94654 3.00269 2.34303 3.39918Z" fill="#ff3b30"/>
 </g>
</svg>
