<?xml version="1.0" encoding="UTF-8"?>
<!--Generator: Apple Native CoreSVG 326-->
<!DOCTYPE svg
PUBLIC "-//W3C//DTD SVG 1.1//EN"
       "http://www.w3.org/Graphics/SVG/1.1/DTD/svg11.dtd">
<svg version="1.1" xmlns="http://www.w3.org/2000/svg" xmlns:xlink="http://www.w3.org/1999/xlink" viewBox="0 0 32.1289 31.8145">
 <g>
  <rect height="31.8145" opacity="0" width="32.1289" x="0" y="0"/>
  <path d="M7.5332 31.8145L9.67969 31.8145C10.5547 31.8145 11.1016 31.2539 11.1016 30.3652L11.1016 28.2871C11.1016 27.3984 10.5547 26.8242 9.67969 26.8242L7.5332 26.8242C6.6582 26.8242 6.11133 27.3984 6.11133 28.2871L6.11133 30.3652C6.11133 31.2539 6.6582 31.8145 7.5332 31.8145ZM7.95703 30.2695C7.76562 30.2695 7.65625 30.1465 7.65625 29.9688L7.65625 28.6973C7.65625 28.4922 7.76562 28.3691 7.95703 28.3691L9.26953 28.3691C9.44727 28.3691 9.55664 28.4922 9.55664 28.6973L9.55664 29.9688C9.55664 30.1465 9.44727 30.2695 9.26953 30.2695ZM7.51953 27.125L9.66602 27.125C9.80273 22.791 11.334 19.0312 13.877 15.9961L12.332 14.6289C9.40625 18.0742 7.66992 22.2305 7.51953 27.125ZM28.2051 11.0605L30.3516 11.0605C31.2266 11.0605 31.7734 10.5 31.7734 9.61133L31.7734 7.51953C31.7734 6.64453 31.2266 6.07031 30.3516 6.07031L28.2051 6.07031C27.3438 6.07031 26.7832 6.64453 26.7832 7.51953L26.7832 9.61133C26.7832 10.5 27.3438 11.0605 28.2051 11.0605ZM28.6289 9.51562C28.4375 9.51562 28.3281 9.39258 28.3281 9.21484L28.3281 7.94336C28.3281 7.73828 28.4375 7.61523 28.6289 7.61523L29.9414 7.61523C30.1328 7.61523 30.2285 7.73828 30.2285 7.94336L30.2285 9.21484C30.2285 9.39258 30.1328 9.51562 29.9414 9.51562ZM15.4082 11.6621L16.4746 13.4805C19.4141 11.1562 22.9824 9.78906 27.1113 9.67969L27.1113 7.54688C22.5723 7.64258 18.7168 9.11914 15.4082 11.6621ZM12.2363 15.6543L11.0195 14.5195L1.4082 24.1172L2.58398 25.3066ZM14.793 10.7324L15.9961 11.8672L25.0879 2.80273L23.9121 1.61328ZM24.6641 3.75977C25.6758 3.75977 26.4961 2.93945 26.4961 1.92773C26.4961 0.916016 25.6758 0.0820312 24.6641 0.0820312C23.6387 0.0820312 22.8184 0.916016 22.8184 1.92773C22.8184 2.93945 23.6387 3.75977 24.6641 3.75977ZM1.83203 26.8242C2.85742 26.8242 3.67773 26.0039 3.67773 24.9922C3.67773 23.9668 2.85742 23.1465 1.83203 23.1465C0.820312 23.1465 0 23.9668 0 24.9922C0 26.0039 0.820312 26.8242 1.83203 26.8242ZM13.9043 17.0898C15.8047 17.0898 17.3633 15.5449 17.3633 13.6445C17.3633 11.7305 15.8047 10.1855 13.9043 10.1855C12.0039 10.1855 10.459 11.7305 10.459 13.6445C10.459 15.5449 12.0039 17.0898 13.9043 17.0898ZM13.9043 15.2715C13.002 15.2715 12.2773 14.5469 12.2773 13.6445C12.2773 12.7285 13.002 12.0039 13.9043 12.0039C14.8066 12.0039 15.5449 12.7285 15.5449 13.6445C15.5449 14.5469 14.8066 15.2715 13.9043 15.2715Z" fill="black" fill-opacity="0.85"/>
 </g>
</svg>
