<?xml version="1.0" encoding="UTF-8"?>
<!--Generator: Apple Native CoreSVG 326-->
<!DOCTYPE svg
PUBLIC "-//W3C//DTD SVG 1.1//EN"
       "http://www.w3.org/Graphics/SVG/1.1/DTD/svg11.dtd">
<svg version="1.1" xmlns="http://www.w3.org/2000/svg" xmlns:xlink="http://www.w3.org/1999/xlink" viewBox="0 0 28.2461 27.9043">
 <g>
  <rect height="27.9043" opacity="0" width="28.2461" x="0" y="0"/>
  <path d="M13.9453 27.8906C21.6426 27.8906 27.8906 21.6426 27.8906 13.9453C27.8906 6.24805 21.6426 0 13.9453 0C6.24805 0 0 6.24805 0 13.9453C0 21.6426 6.24805 27.8906 13.9453 27.8906ZM13.9453 25.5664C7.51953 25.5664 2.32422 20.3711 2.32422 13.9453C2.32422 7.51953 7.51953 2.32422 13.9453 2.32422C20.3711 2.32422 25.5664 7.51953 25.5664 13.9453C25.5664 20.3711 20.3711 25.5664 13.9453 25.5664Z" fill="black" fill-opacity="0.85"/>
  <path d="M5.14062 16.9941C5.14062 18.9082 6.83594 20.3574 8.95508 20.3574C11.0605 20.3574 12.7832 18.9082 12.7832 16.9941L12.7832 15.2031C13.1113 15.0801 13.5215 14.998 13.9316 14.998C14.3828 14.998 14.7656 15.0527 15.0801 15.1621L15.0801 16.9941C15.0801 18.9082 16.8027 20.3574 18.8945 20.3574C21.0137 20.3574 22.7227 18.9082 22.7227 16.9941C22.7227 16.4883 22.668 16.0234 22.3945 15.3535L19.5234 8.68164C19.1406 7.79297 18.3066 7.25977 17.2676 7.25977C15.9414 7.25977 15.0801 8.10742 15.0801 9.36523L15.0801 10.0488C14.7383 9.93945 14.3555 9.88477 13.9316 9.88477C13.5352 9.88477 13.1387 9.95312 12.7832 10.0762L12.7832 9.36523C12.7832 8.10742 11.9219 7.25977 10.5957 7.25977C9.55664 7.25977 8.72266 7.79297 8.35352 8.68164L5.46875 15.3535C5.19531 16.0234 5.14062 16.4883 5.14062 16.9941ZM6.54883 16.9941C6.54883 15.8047 7.51953 14.998 8.95508 14.998C10.418 14.998 11.4023 15.8047 11.4023 16.9941C11.4023 18.1562 10.418 18.9766 8.95508 18.9766C7.51953 18.9766 6.54883 18.1562 6.54883 16.9941ZM16.4473 16.9941C16.4473 15.8047 17.4453 14.998 18.8945 14.998C20.3301 14.998 21.3145 15.8047 21.3145 16.9941C21.3145 18.1562 20.3301 18.9766 18.8945 18.9766C17.4453 18.9766 16.4473 18.1562 16.4473 16.9941ZM12.7832 13.1523L12.7832 12.1406C13.125 12.0312 13.5352 11.9629 13.9316 11.9629C14.3555 11.9629 14.7383 12.0176 15.0801 12.1133L15.0801 13.084C14.7656 12.9883 14.3828 12.9336 13.9316 12.9336C13.5215 12.9336 13.1113 13.002 12.7832 13.1523Z" fill="black" fill-opacity="0.85"/>
 </g>
</svg>
