<?xml version="1.0" encoding="UTF-8"?>
<!--Generator: Apple Native CoreSVG 326-->
<!DOCTYPE svg
PUBLIC "-//W3C//DTD SVG 1.1//EN"
       "http://www.w3.org/Graphics/SVG/1.1/DTD/svg11.dtd">
<svg version="1.1" xmlns="http://www.w3.org/2000/svg" xmlns:xlink="http://www.w3.org/1999/xlink" viewBox="0 0 35.2598 27.084">
 <g>
  <rect height="27.084" opacity="0" width="35.2598" x="0" y="0"/>
  <path d="M0 20.4121C0 24.2266 3.41797 27.084 7.60156 27.084C11.7715 27.084 15.1758 24.2266 15.1758 20.4121L15.1758 16.9121C15.8457 16.6523 16.6523 16.502 17.459 16.502C18.3477 16.502 19.1133 16.5977 19.7285 16.8164L19.7285 20.4121C19.7285 24.2266 23.1328 27.084 27.3027 27.084C31.4727 27.084 34.9043 24.2266 34.9043 20.4121C34.9043 19.4141 34.7539 18.4844 34.1934 17.1855L28.5195 3.95117C27.7402 2.17383 26.1133 1.13477 24.0625 1.13477C21.4375 1.13477 19.7285 2.80273 19.7285 5.30469L19.7285 6.63086C19.0449 6.45312 18.293 6.35742 17.459 6.35742C16.666 6.35742 15.9004 6.48047 15.1758 6.71289L15.1758 5.30469C15.1758 2.80273 13.4668 1.13477 10.8418 1.13477C8.79102 1.13477 7.15039 2.17383 6.38477 3.95117L0.697266 17.1855C0.136719 18.4844 0 19.4141 0 20.4121ZM2.14648 20.4121C2.14648 17.6641 4.51172 15.791 7.60156 15.791C10.6777 15.791 13.125 17.6641 13.125 20.4121C13.125 23.1602 10.6777 25.0332 7.60156 25.0332C4.51172 25.0332 2.14648 23.1602 2.14648 20.4121ZM21.7793 20.4121C21.7793 17.6641 24.2129 15.791 27.3027 15.791C30.3789 15.791 32.7441 17.6641 32.7441 20.4121C32.7441 23.1602 30.3789 25.0332 27.3027 25.0332C24.2129 25.0332 21.7793 23.1602 21.7793 20.4121ZM15.1758 12.7422L15.1758 10.8828C15.9004 10.6504 16.666 10.541 17.459 10.541C18.293 10.541 19.0449 10.623 19.7285 10.8008L19.7285 12.6328C19.1133 12.4277 18.3613 12.332 17.459 12.332C16.6523 12.332 15.8457 12.4824 15.1758 12.7422Z" fill="black" fill-opacity="0.85"/>
 </g>
</svg>
