<?xml version="1.0" encoding="UTF-8"?>
<!--Generator: Apple Native CoreSVG 326-->
<!DOCTYPE svg
PUBLIC "-//W3C//DTD SVG 1.1//EN"
       "http://www.w3.org/Graphics/SVG/1.1/DTD/svg11.dtd">
<svg version="1.1" xmlns="http://www.w3.org/2000/svg" xmlns:xlink="http://www.w3.org/1999/xlink" viewBox="0 0 28.2461 27.9043">
 <g>
  <rect height="27.9043" opacity="0" width="28.2461" x="0" y="0"/>
  <path d="M13.9453 27.8906C21.6426 27.8906 27.8906 21.6289 27.8906 13.9453C27.8906 6.24805 21.6426 0 13.9453 0C6.26172 0 0 6.24805 0 13.9453C0 21.6289 6.26172 27.8906 13.9453 27.8906Z" fill="black" fill-opacity="0.85"/>
  <path d="M4.86719 17.0898C4.86719 16.5703 4.92188 16.0918 5.20898 15.3945L8.17578 8.51758C8.57227 7.60156 9.41992 7.05469 10.4863 7.05469C11.8672 7.05469 12.7559 7.92969 12.7559 9.22852L12.7559 9.95312C13.1113 9.83008 13.5215 9.77539 13.9316 9.77539C14.3691 9.77539 14.7656 9.81641 15.1074 9.92578L15.1074 9.22852C15.1074 7.92969 15.9961 7.05469 17.377 7.05469C18.4434 7.05469 19.3047 7.60156 19.7012 8.51758L22.6543 15.3945C22.9277 16.0918 22.9961 16.5703 22.9961 17.0898C22.9961 19.0723 21.2324 20.5625 19.0449 20.5625C16.8848 20.5625 15.1074 19.0723 15.1074 17.0898L15.1074 15.2031C14.793 15.0938 14.3965 15.0391 13.9316 15.0391C13.5078 15.0391 13.084 15.1211 12.7559 15.2578L12.7559 17.0898C12.7559 19.0723 10.9785 20.5625 8.80469 20.5625C6.61719 20.5625 4.86719 19.0723 4.86719 17.0898ZM6.33008 17.0898C6.33008 18.293 7.32812 19.127 8.80469 19.127C10.3086 19.127 11.3203 18.293 11.3203 17.0898C11.3203 15.873 10.3086 15.0391 8.80469 15.0391C7.32812 15.0391 6.33008 15.873 6.33008 17.0898ZM16.5293 17.0898C16.5293 18.293 17.5547 19.127 19.0449 19.127C20.5215 19.127 21.5332 18.293 21.5332 17.0898C21.5332 15.873 20.5215 15.0391 19.0449 15.0391C17.5547 15.0391 16.5293 15.873 16.5293 17.0898ZM12.7559 13.1387C13.084 12.9746 13.5078 12.9062 13.9316 12.9062C14.3965 12.9062 14.793 12.9609 15.1074 13.0566L15.1074 12.0586C14.7656 11.9629 14.3691 11.9082 13.9316 11.9082C13.5215 11.9082 13.0977 11.9766 12.7559 12.0859Z" fill="white"/>
 </g>
</svg>
