<?xml version="1.0" encoding="UTF-8"?>
<!--Generator: Apple Native CoreSVG 326-->
<!DOCTYPE svg
PUBLIC "-//W3C//DTD SVG 1.1//EN"
       "http://www.w3.org/Graphics/SVG/1.1/DTD/svg11.dtd">
<svg version="1.1" xmlns="http://www.w3.org/2000/svg" xmlns:xlink="http://www.w3.org/1999/xlink" viewBox="0 0 33.5408 27.9043">
 <g>
  <rect height="27.9043" opacity="0" width="33.5408" x="0" y="0"/>
  <path d="M16.5995 27.8906C24.2968 27.8906 30.5448 21.6426 30.5448 13.9453C30.5448 6.24805 24.2968 0 16.5995 0C8.90224 0 2.65419 6.24805 2.65419 13.9453L4.97841 13.9453C4.97841 7.51953 10.1737 2.32422 16.5995 2.32422C23.0253 2.32422 28.2206 7.51953 28.2206 13.9453C28.2206 20.3711 23.0253 25.5664 16.5995 25.5664C12.7167 25.5664 9.2577 23.6523 7.19325 20.7539C6.76942 20.1934 6.12684 20.0156 5.55263 20.3574C5.00575 20.6992 4.84169 21.4648 5.30653 22.0664C7.83583 25.6074 11.9784 27.8906 16.5995 27.8906ZM0.972548 11.3066C-0.0118272 11.3066-0.257921 11.9766 0.275282 12.7422L3.33778 17.0898C3.78895 17.7188 4.4452 17.7051 4.8827 17.0898L7.93153 12.7285C8.46474 11.9766 8.20497 11.3066 7.24794 11.3066Z" fill="black" fill-opacity="0.85"/>
  <path d="M13.7558 19.9746L17.16 19.9746C19.539 19.9746 21.3163 18.8535 21.3163 16.6113C21.3163 15.0117 20.1952 13.8496 18.4862 13.6582L18.4862 13.5762C19.8261 13.3574 20.7011 12.1543 20.7011 10.9512C20.7011 9.02344 19.1151 7.95703 17.1327 7.95703L13.7558 7.95703C13.1542 7.95703 12.7577 8.36719 12.7577 8.95508L12.7577 18.9766C12.7577 19.5781 13.1542 19.9746 13.7558 19.9746ZM14.371 13.125L14.371 9.29688L16.7362 9.29688C18.0487 9.29688 19.0878 9.81641 19.0878 11.1426C19.0878 12.6191 17.83 13.125 16.3534 13.125ZM14.371 18.6211L14.371 14.4375L16.7225 14.4375C18.3222 14.4375 19.6893 14.9434 19.6893 16.5293C19.6893 18.0879 18.4179 18.6211 16.8593 18.6211ZM14.5077 8.75L15.4237 8.75L15.4237 6.6582C15.4237 6.37109 15.2323 6.17969 14.9725 6.17969C14.6991 6.17969 14.5077 6.37109 14.5077 6.6582ZM16.7225 8.75L17.6386 8.75L17.6386 6.6582C17.6386 6.37109 17.4472 6.17969 17.1737 6.17969C16.914 6.17969 16.7225 6.37109 16.7225 6.6582ZM14.5077 19.168L14.5077 21.3145C14.5077 21.5742 14.6991 21.7656 14.9725 21.7656C15.2323 21.7656 15.4237 21.5742 15.4237 21.3145L15.4237 19.168ZM16.7225 19.168L16.7225 21.3145C16.7225 21.5742 16.914 21.7656 17.1737 21.7656C17.4472 21.7656 17.6386 21.5742 17.6386 21.3145L17.6386 19.168Z" fill="black" fill-opacity="0.85"/>
 </g>
</svg>
