<?xml version="1.0" encoding="UTF-8"?>
<!--Generator: Apple Native CoreSVG 326-->
<!DOCTYPE svg
PUBLIC "-//W3C//DTD SVG 1.1//EN"
       "http://www.w3.org/Graphics/SVG/1.1/DTD/svg11.dtd">
<svg version="1.1" xmlns="http://www.w3.org/2000/svg" xmlns:xlink="http://www.w3.org/1999/xlink" viewBox="0 0 33.291 27.4395">
 <g>
  <rect height="27.4395" opacity="0" width="33.291" x="0" y="0"/>
  <path d="M32.9355 16.4609C32.9355 12.4414 31.4863 8.73633 29.0664 5.86523C28.793 5.53711 28.3281 5.53711 28.0273 5.85156L24.8555 9.02344C24.5957 9.2832 24.582 9.65234 24.8145 9.93945C26.2227 11.7441 27.0703 14.0137 27.0703 16.4609C27.0703 18.9219 26.2227 21.1914 24.7324 23.0918C24.541 23.3242 24.5547 23.625 24.7598 23.8438L28.0137 27.0977C28.3281 27.4121 28.7793 27.4121 29.0664 27.0703C31.4863 24.1992 32.9355 20.4941 32.9355 16.4609Z" fill="black" fill-opacity="0.85"/>
  <path d="M16.4609 5.86523C18.9355 5.86523 21.2051 6.72656 23.0234 8.13477C23.2969 8.35352 23.6523 8.32617 23.9121 8.06641L27.084 4.89453C27.3984 4.58008 27.3848 4.12891 27.0566 3.85547C24.1992 1.44922 20.4941 0 16.4609 0C12.4414 0 8.73633 1.44922 5.87891 3.85547C5.55078 4.12891 5.53711 4.58008 5.85156 4.89453L9.02344 8.06641C9.2832 8.32617 9.65234 8.35352 9.95312 8.12109C11.7578 6.72656 14.0137 5.86523 16.4609 5.86523Z" fill="black" fill-opacity="0.85"/>
  <path d="M0 16.4609C0 20.4941 1.44922 24.1992 3.86914 27.0703C4.14258 27.4121 4.60742 27.4121 4.9082 27.0977L8.16211 23.8438C8.36719 23.625 8.39453 23.3242 8.20312 23.0918C6.71289 21.1914 5.86523 18.9219 5.86523 16.4609C5.86523 14.0137 6.69922 11.7441 8.12109 9.93945C8.33984 9.65234 8.33984 9.2832 8.08008 9.02344L4.9082 5.85156C4.59375 5.53711 4.14258 5.53711 3.86914 5.86523C1.44922 8.73633 0 12.4414 0 16.4609Z" fill="black" fill-opacity="0.85"/>
  <path d="M13.6035 22.668L17.0078 22.668C19.4004 22.668 21.1641 21.5469 21.1641 19.3184C21.1641 17.7051 20.043 16.5566 18.334 16.3516L18.334 16.2832C19.6738 16.0645 20.5488 14.8613 20.5488 13.6445C20.5488 11.7168 18.9629 10.6641 16.9805 10.6641L13.6035 10.6641C13.0156 10.6641 12.6055 11.0605 12.6055 11.6621L12.6055 21.6699C12.6055 22.2715 13.0156 22.668 13.6035 22.668ZM14.2188 15.832L14.2188 11.9902L16.584 11.9902C17.8965 11.9902 18.9492 12.5234 18.9492 13.8359C18.9492 15.3125 17.6914 15.832 16.2012 15.832ZM14.2188 21.3281L14.2188 17.1309L16.5703 17.1309C18.1699 17.1309 19.5371 17.6504 19.5371 19.2227C19.5371 20.7812 18.2656 21.3281 16.707 21.3281ZM14.3555 11.457L15.2852 11.457L15.2852 9.35156C15.2852 9.07812 15.0938 8.88672 14.8203 8.88672C14.5469 8.88672 14.3555 9.07812 14.3555 9.35156ZM16.5703 11.457L17.5 11.457L17.5 9.35156C17.5 9.07812 17.3086 8.88672 17.0352 8.88672C16.7617 8.88672 16.5703 9.07812 16.5703 9.35156ZM14.3555 21.8613L14.3555 24.0078C14.3555 24.2676 14.5469 24.459 14.8203 24.459C15.0938 24.459 15.2852 24.2676 15.2852 24.0078L15.2852 21.8613ZM16.5703 21.8613L16.5703 24.0078C16.5703 24.2676 16.7617 24.459 17.0352 24.459C17.3086 24.459 17.5 24.2676 17.5 24.0078L17.5 21.8613Z" fill="black" fill-opacity="0.85"/>
 </g>
</svg>
