<?xml version="1.0" encoding="UTF-8"?>
<!--Generator: Apple Native CoreSVG 326-->
<!DOCTYPE svg
PUBLIC "-//W3C//DTD SVG 1.1//EN"
       "http://www.w3.org/Graphics/SVG/1.1/DTD/svg11.dtd">
<svg version="1.1" xmlns="http://www.w3.org/2000/svg" xmlns:xlink="http://www.w3.org/1999/xlink" viewBox="0 0 29.3398 27.9316">
 <g>
  <rect height="27.9316" opacity="0" width="29.3398" x="0" y="0"/>
  <path d="M5.40039 27.918L8.36719 27.918C8.95508 27.918 9.33789 27.5352 9.33789 26.9336L9.33789 4.41602C9.33789 3.81445 8.95508 3.43164 8.36719 3.43164L5.40039 3.43164C4.82617 3.43164 4.44336 3.81445 4.44336 4.41602L4.44336 26.9336C4.44336 27.5352 4.82617 27.918 5.40039 27.918ZM11.5938 27.918L14.5742 27.918C15.1348 27.918 15.5176 27.5352 15.5176 26.9336L15.5176 4.41602C15.5176 3.81445 15.1348 3.43164 14.5742 3.43164L11.5938 3.43164C11.0059 3.43164 10.623 3.81445 10.623 4.41602L10.623 26.9336C10.623 27.5352 11.0059 27.918 11.5938 27.918ZM17.7734 27.918L20.7539 27.918C21.3418 27.918 21.7246 27.5352 21.7246 26.9336L21.7246 4.41602C21.7246 3.81445 21.3418 3.43164 20.7539 3.43164L17.7734 3.43164C17.2129 3.43164 16.8301 3.81445 16.8301 4.41602L16.8301 26.9336C16.8301 27.5352 17.2129 27.918 17.7734 27.918ZM23.9805 27.918L26.9473 27.918C27.5215 27.918 27.9043 27.5352 27.9043 26.9336L27.9043 4.41602C27.9043 3.81445 27.5215 3.43164 26.9473 3.43164L23.9805 3.43164C23.4062 3.43164 23.0098 3.81445 23.0098 4.41602L23.0098 26.9336C23.0098 27.5352 23.4062 27.918 23.9805 27.918Z" fill="black" fill-opacity="0.85"/>
  <path d="M0 1.09375C0 1.69531 0.505859 2.20117 1.10742 2.20117L27.918 2.20117C28.5195 2.20117 29.0254 1.69531 29.0254 1.09375C29.0254 0.492188 28.5195 0 27.918 0L1.10742 0C0.505859 0 0 0.492188 0 1.09375ZM1.10742 5.37305C1.61328 5.37305 2.03711 4.94922 2.03711 4.44336C2.03711 3.92383 1.61328 3.51367 1.10742 3.51367C0.587891 3.51367 0.164062 3.92383 0.164062 4.44336C0.164062 4.94922 0.587891 5.37305 1.10742 5.37305ZM1.10742 8.54492C1.61328 8.54492 2.03711 8.10742 2.03711 7.60156C2.03711 7.0957 1.61328 6.67188 1.10742 6.67188C0.587891 6.67188 0.164062 7.0957 0.164062 7.60156C0.164062 8.10742 0.587891 8.54492 1.10742 8.54492ZM1.10742 11.7031C1.61328 11.7031 2.03711 11.2793 2.03711 10.7734C2.03711 10.2539 1.61328 9.84375 1.10742 9.84375C0.587891 9.84375 0.164062 10.2539 0.164062 10.7734C0.164062 11.2793 0.587891 11.7031 1.10742 11.7031ZM1.10742 14.875C1.61328 14.875 2.03711 14.4375 2.03711 13.9316C2.03711 13.4258 1.61328 13.002 1.10742 13.002C0.587891 13.002 0.164062 13.4258 0.164062 13.9316C0.164062 14.4375 0.587891 14.875 1.10742 14.875ZM1.10742 18.0332C1.61328 18.0332 2.03711 17.6094 2.03711 17.1035C2.03711 16.584 1.61328 16.1738 1.10742 16.1738C0.587891 16.1738 0.164062 16.584 0.164062 17.1035C0.164062 17.6094 0.587891 18.0332 1.10742 18.0332ZM1.10742 21.2051C1.61328 21.2051 2.03711 20.7676 2.03711 20.2617C2.03711 19.7559 1.61328 19.332 1.10742 19.332C0.587891 19.332 0.164062 19.7559 0.164062 20.2617C0.164062 20.7676 0.587891 21.2051 1.10742 21.2051ZM1.10742 27.918C1.69531 27.918 2.20117 27.4258 2.20117 26.8242L2.20117 23.5977C2.20117 22.9961 1.70898 22.5039 1.10742 22.5039C0.505859 22.5039 0 22.9961 0 23.5977L0 26.8242C0 27.4258 0.505859 27.918 1.10742 27.918Z" fill="black" fill-opacity="0.85"/>
 </g>
</svg>
