<?xml version="1.0" encoding="UTF-8"?>
<!--Generator: Apple Native CoreSVG 326-->
<!DOCTYPE svg
PUBLIC "-//W3C//DTD SVG 1.1//EN"
       "http://www.w3.org/Graphics/SVG/1.1/DTD/svg11.dtd">
<svg version="1.1" xmlns="http://www.w3.org/2000/svg" xmlns:xlink="http://www.w3.org/1999/xlink" viewBox="0 0 16.6113 19.5645">
 <g>
  <rect height="19.5645" opacity="0" width="16.6113" x="0" y="0"/>
  <path d="M2.31055 19.5508L9.43359 19.5508C13.6172 19.5508 16.2559 17.3496 16.2559 13.9727C16.2559 11.3066 14.3281 9.37891 11.5527 9.22852L11.5527 9.11914C13.8223 8.80469 15.3672 7.0957 15.3672 4.92188C15.3672 1.87305 13.0293 0 9.24219 0L2.31055 0C0.847656 0 0 0.861328 0 2.36523L0 17.1992C0 18.6895 0.847656 19.5508 2.31055 19.5508ZM4.51172 16.3926L4.51172 10.9648L7.94336 10.9648C10.3359 10.9648 11.6758 11.8945 11.6758 13.6445C11.6758 15.4355 10.3906 16.3926 8.03906 16.3926ZM4.51172 8.12109L4.51172 3.21289L7.875 3.21289C9.78906 3.21289 10.9238 4.08789 10.9238 5.5918C10.9238 7.17773 9.66602 8.12109 7.5332 8.12109Z" fill="black" fill-opacity="0.85"/>
 </g>
</svg>
