<?xml version="1.0" encoding="UTF-8"?>
<!--Generator: Apple Native CoreSVG 326-->
<!DOCTYPE svg
PUBLIC "-//W3C//DTD SVG 1.1//EN"
       "http://www.w3.org/Graphics/SVG/1.1/DTD/svg11.dtd">
<svg version="1.1" xmlns="http://www.w3.org/2000/svg" xmlns:xlink="http://www.w3.org/1999/xlink" viewBox="0 0 26.3286 30.769">
 <g>
  <rect height="30.769" opacity="0" width="26.3286" x="0" y="0"/>
  <path d="M16.0885 22.1472L9.82838 29.9792C8.89869 31.1277 7.4358 30.3757 7.969 28.9675L11.9962 18.0576ZM21.6272 12.6433C22.2014 12.6433 22.5979 13.0534 22.5979 13.573C22.5979 13.8874 22.4749 14.1609 22.2424 14.448L19.4183 17.9812L14.0803 12.6433ZM4.31861 17.8933C3.74439 17.8933 3.33424 17.4968 3.33424 16.9636C3.33424 16.6628 3.47096 16.3894 3.70338 16.0886L6.51236 12.5774L11.8318 17.8933ZM17.9768 1.56906L13.9405 12.5035L9.84661 8.40955L16.1174 0.57101C17.0471-0.5911 18.4963 0.160853 17.9768 1.56906Z" fill="#ffcc00"/>
  <path d="M22.5432 26.3288C22.9534 26.739 23.637 26.739 24.0335 26.3288C24.4436 25.9323 24.4436 25.2624 24.0335 24.8386L3.4026 4.20773C2.99244 3.79757 2.29517 3.79757 1.89869 4.20773C1.50221 4.60421 1.50221 5.30148 1.89869 5.69796Z" fill="#ffcc00"/>
 </g>
</svg>
