<?xml version="1.0" encoding="UTF-8"?>
<!--Generator: Apple Native CoreSVG 326-->
<!DOCTYPE svg
PUBLIC "-//W3C//DTD SVG 1.1//EN"
       "http://www.w3.org/Graphics/SVG/1.1/DTD/svg11.dtd">
<svg version="1.1" xmlns="http://www.w3.org/2000/svg" xmlns:xlink="http://www.w3.org/1999/xlink" viewBox="0 0 27.2891 25.9355">
 <g>
  <rect height="25.9355" opacity="0" width="27.2891" x="0" y="0"/>
  <path d="M13.5762 25.9355C13.8633 25.9355 14.2734 25.7441 14.5742 25.5664C22.2852 20.6445 27.166 14.916 27.166 9.0918C27.166 4.25195 23.8438 0.833984 19.5371 0.833984C16.8711 0.833984 14.8203 2.31055 13.5762 4.56641C12.3594 2.32422 10.2949 0.833984 7.61523 0.833984C3.32227 0.833984 0 4.25195 0 9.0918C0 14.916 4.88086 20.6445 12.5918 25.5664C12.8789 25.7441 13.3027 25.9355 13.5762 25.9355Z" fill="black" fill-opacity="0.85"/>
  <path d="M8.99609 14.7793C8.99609 14.6289 9.06445 14.5059 9.17383 14.3691L14.8203 7.27344C15.2441 6.74023 15.9551 7.0957 15.709 7.76562L13.8496 12.7559L17.3359 12.7559C17.5957 12.7559 17.8281 12.9609 17.8281 13.207C17.8281 13.3438 17.7598 13.4941 17.6367 13.6172L12.0039 20.7129C11.5664 21.2461 10.8555 20.877 11.1016 20.2207L12.9746 15.2168L9.47461 15.2168C9.21484 15.2168 8.99609 15.0254 8.99609 14.7793Z" fill="white"/>
 </g>
</svg>
