<?xml version="1.0" encoding="UTF-8"?>
<!--Generator: Apple Native CoreSVG 326-->
<!DOCTYPE svg
PUBLIC "-//W3C//DTD SVG 1.1//EN"
       "http://www.w3.org/Graphics/SVG/1.1/DTD/svg11.dtd">
<svg version="1.1" xmlns="http://www.w3.org/2000/svg" xmlns:xlink="http://www.w3.org/1999/xlink" viewBox="0 0 26.3286 30.7811">
 <g>
  <rect height="30.7811" opacity="0" width="26.3286" x="0" y="0"/>
  <path d="M8.25988 14.3298L6.76588 16.3134L10.2448 16.3134L13.657 19.7234L11.4773 24.4941L14.4635 20.5293L15.9967 22.0615L9.84205 29.9853C8.93971 31.1474 7.4358 30.3818 7.98267 28.9736L12.0706 18.3505L4.33228 18.3505C3.75807 18.3505 3.34791 17.954 3.34791 17.4208C3.34791 17.1201 3.47096 16.8466 3.71705 16.5458L6.67278 12.7437ZM17.9905 1.57513L13.9026 12.2118L21.6409 12.2118C22.2151 12.2118 22.6116 12.6083 22.6116 13.1279C22.6116 13.4423 22.4885 13.7158 22.2561 14.0029L19.2736 17.8426L17.6841 16.2531L19.1936 14.249L15.6799 14.249L12.2923 10.8613L14.4822 6.06831L11.4823 10.0513L9.95398 8.523L16.1311 0.577083C17.0335-0.598698 18.5237 0.166927 17.9905 1.57513Z" fill="#ffcc00"/>
  <path d="M22.5432 26.3349C22.9534 26.7451 23.637 26.7451 24.0335 26.3349C24.4436 25.9384 24.4436 25.2685 24.0335 24.8447L3.4026 4.2138C2.99244 3.80365 2.29517 3.80365 1.89869 4.2138C1.50221 4.61029 1.50221 5.30755 1.89869 5.70404Z" fill="#ffcc00"/>
 </g>
</svg>
