<?xml version="1.0" encoding="UTF-8"?>
<!--Generator: Apple Native CoreSVG 326-->
<!DOCTYPE svg
PUBLIC "-//W3C//DTD SVG 1.1//EN"
       "http://www.w3.org/Graphics/SVG/1.1/DTD/svg11.dtd">
<svg version="1.1" xmlns="http://www.w3.org/2000/svg" xmlns:xlink="http://www.w3.org/1999/xlink" viewBox="0 0 32.7031 25.416">
 <g>
  <rect height="25.416" opacity="0" width="32.7031" x="0" y="0"/>
  <path d="M16.1738 21.6016C20.7676 21.6016 26.8789 21.3691 29.4629 21.0684C31.3223 20.8633 32.3477 19.8379 32.3477 18.0879L32.3477 15.6816C32.3477 13.3711 31.8828 12.0859 30.625 10.4453L29.4629 8.95508C28.9707 6.49414 28.0547 3.91016 27.5898 2.89844C26.8516 1.35352 25.4434 0.4375 23.625 0.191406C22.709 0.0683594 19.7148 0 16.1738 0C12.6465 0 9.65234 0.0820312 8.73633 0.191406C6.91797 0.410156 5.49609 1.35352 4.77148 2.89844C4.29297 3.91016 3.39062 6.49414 2.88477 8.95508L1.73633 10.4453C0.464844 12.0859 0 13.3711 0 15.6816L0 18.0879C0 19.8379 1.03906 20.8633 2.88477 21.0684C5.48242 21.3691 11.5801 21.6016 16.1738 21.6016ZM1.81836 25.3613L3.41797 25.3613C4.44336 25.3613 5.23633 24.5684 5.23633 23.5566L5.23633 20.1523L0 17.6641L0 23.5566C0 24.5684 0.792969 25.3613 1.81836 25.3613ZM28.9297 25.3613L30.543 25.3613C31.5684 25.3613 32.3477 24.5684 32.3477 23.5566L32.3477 17.6641L27.125 20.1523L27.125 23.5566C27.125 24.5684 27.9043 25.3613 28.9297 25.3613Z" fill="#28cd41"/>
  <path d="M11.7168 11.6758C11.7168 11.5254 11.7852 11.4023 11.8945 11.2656L17.541 4.16992C17.9648 3.63672 18.6758 3.99219 18.4297 4.66211L16.5703 9.65234L20.0566 9.65234C20.3164 9.65234 20.5488 9.85742 20.5488 10.1035C20.5488 10.2402 20.4805 10.3906 20.3438 10.5137L14.7246 17.6094C14.2871 18.1426 13.5625 17.7734 13.8223 17.1172L15.6953 12.1133L12.1953 12.1133C11.9355 12.1133 11.7168 11.9219 11.7168 11.6758Z" fill="white"/>
 </g>
</svg>
