<?xml version="1.0" encoding="UTF-8"?>
<!--Generator: Apple Native CoreSVG 326-->
<!DOCTYPE svg
PUBLIC "-//W3C//DTD SVG 1.1//EN"
       "http://www.w3.org/Graphics/SVG/1.1/DTD/svg11.dtd">
<svg version="1.1" xmlns="http://www.w3.org/2000/svg" xmlns:xlink="http://www.w3.org/1999/xlink" viewBox="0 0 31.8418 25.1152">
 <g>
  <rect height="25.1152" opacity="0" width="31.8418" x="0" y="0"/>
  <path d="M7.71094 0C4.70312 0 1.57227 1.39453 0.164062 3.81445C0.0136719 4.08789 0 4.26562 0 4.77148L0 24.0625C0 24.6914 0.396484 25.0742 1.08008 25.0742C1.4082 25.0742 1.72266 24.9785 1.96875 24.7461C3.69141 23.2695 5.97461 22.5039 8.25781 22.5039C10.3906 22.5039 12.373 23.2559 13.8223 24.5C13.9727 24.623 14.1504 24.6914 14.3008 24.6914C14.6016 24.6914 14.8477 24.4727 14.8477 24.1172L14.8477 3.89648C14.8477 3.54102 14.8203 3.45898 14.5605 3.08984C13.2207 1.16211 10.5957 0 7.71094 0ZM23.7754 0C20.8906 0 18.2656 1.16211 16.9258 3.08984C16.666 3.45898 16.6387 3.54102 16.6387 3.89648L16.6387 24.1172C16.6387 24.4727 16.8848 24.6914 17.1855 24.6914C17.3359 24.6914 17.5273 24.623 17.6641 24.5C19.1133 23.2559 21.0957 22.5039 23.2285 22.5039C25.5117 22.5039 27.7949 23.2695 29.5176 24.7461C29.7637 24.9785 30.0781 25.0742 30.4062 25.0742C31.0898 25.0742 31.4863 24.6914 31.4863 24.0625L31.4863 4.77148C31.4863 4.26562 31.4727 4.07422 31.3223 3.81445C29.9141 1.39453 26.7832 0 23.7754 0Z" fill="black" fill-opacity="0.85"/>
 </g>
</svg>
