<?xml version="1.0" encoding="UTF-8"?>
<!--Generator: Apple Native CoreSVG 326-->
<!DOCTYPE svg
PUBLIC "-//W3C//DTD SVG 1.1//EN"
       "http://www.w3.org/Graphics/SVG/1.1/DTD/svg11.dtd">
<svg version="1.1" xmlns="http://www.w3.org/2000/svg" xmlns:xlink="http://www.w3.org/1999/xlink" viewBox="0 0 28.2461 27.9043">
 <g>
  <rect height="27.9043" opacity="0" width="28.2461" x="0" y="0"/>
  <path d="M13.9453 27.8906C21.6426 27.8906 27.8906 21.6426 27.8906 13.9453C27.8906 6.24805 21.6426 0 13.9453 0C6.24805 0 0 6.24805 0 13.9453C0 21.6426 6.24805 27.8906 13.9453 27.8906ZM13.9453 25.5664C7.51953 25.5664 2.32422 20.3711 2.32422 13.9453C2.32422 7.51953 7.51953 2.32422 13.9453 2.32422C20.3711 2.32422 25.5664 7.51953 25.5664 13.9453C25.5664 20.3711 20.3711 25.5664 13.9453 25.5664Z" fill="#ff3b30"/>
  <path d="M9.88477 21.1914C10.2402 21.1914 10.4453 20.9863 11.0742 20.3711L13.8633 17.623C13.9043 17.582 13.959 17.582 14 17.623L16.8027 20.3711C17.418 20.9863 17.623 21.1914 17.9785 21.1914C18.4297 21.1914 18.7168 20.8633 18.7168 20.3164L18.7168 8.80469C18.7168 7.47852 18.0332 6.78125 16.707 6.78125L11.1562 6.78125C9.83008 6.78125 9.14648 7.47852 9.14648 8.80469L9.14648 20.3164C9.14648 20.8633 9.43359 21.1914 9.88477 21.1914Z" fill="#ff3b30"/>
 </g>
</svg>
