<?xml version="1.0" encoding="UTF-8"?>
<!--Generator: Apple Native CoreSVG 326-->
<!DOCTYPE svg
PUBLIC "-//W3C//DTD SVG 1.1//EN"
       "http://www.w3.org/Graphics/SVG/1.1/DTD/svg11.dtd">
<svg version="1.1" xmlns="http://www.w3.org/2000/svg" xmlns:xlink="http://www.w3.org/1999/xlink" viewBox="0 0 39.7578 29.4636">
 <g>
  <rect height="29.4636" opacity="0" width="39.7578" x="0" y="0"/>
  <path d="M18.5117 5.26403C18.7715 5.63317 18.7988 5.7152 18.7988 6.07067L18.7988 20.8725C17.1086 22.5797 16.8618 24.9003 17.9566 26.7912C17.8936 26.761 17.8315 26.7217 17.7734 26.6742C16.3242 25.43 14.3555 24.6781 12.209 24.6781C9.93945 24.6781 7.64258 25.4437 5.93359 26.9203C5.67383 27.1527 5.35938 27.2484 5.04492 27.2484C4.36133 27.2484 3.95117 26.8656 3.95117 26.2367L3.95117 6.94567C3.95117 6.43981 3.96484 6.26207 4.11523 5.98863C5.52344 3.56871 8.6543 2.17418 11.6758 2.17418C14.5469 2.17418 17.1719 3.33629 18.5117 5.26403ZM35.4375 26.2367C35.4375 26.8656 35.041 27.2484 34.3574 27.2484C34.0293 27.2484 33.7285 27.1527 33.4688 26.9203C32.0124 25.672 30.1554 24.9318 28.2356 24.7392C29.1662 23.3796 30.1611 21.9564 30.8574 21.2601C31.8828 20.2484 32.6074 19.8929 33.7285 19.8929C34.3475 19.8929 34.9191 19.8211 35.4375 19.6825ZM35.2871 5.98863C35.4375 6.2484 35.4375 6.43981 35.4375 6.94567L35.4375 7.08126C34.5849 6.73369 33.6964 6.57653 32.8672 6.57653C31.2266 6.57653 29.5586 7.19176 28.3145 8.36754C25.2656 11.2797 26.7695 14.5472 25.8945 15.3949C24.331 16.9791 22.2969 18.187 20.5898 19.4105L20.5898 6.07067C20.5898 5.7152 20.6172 5.63317 20.8906 5.26403C22.2305 3.33629 24.8418 2.17418 27.7266 2.17418C30.748 2.17418 33.8652 3.56871 35.2871 5.98863Z" fill="black" fill-opacity="0.85"/>
  <path d="M20.1387 26.6058C21.4648 27.932 23.4473 27.9867 24.7461 26.4281C25.7031 25.2797 28.1094 21.3695 30.1738 19.305C31.3223 18.1566 32.8672 18.0199 33.7285 18.0199C36.9551 18.0199 38.2129 15.4222 37.8164 13.6312L33.7285 14.7113L33.2637 13.0433C33.0996 12.4281 33.3594 11.9086 34.0566 11.7172L37.0781 10.9105C36.9688 10.6371 36.709 10.2406 36.3809 9.89879C34.5215 8.01207 31.4453 7.97106 29.6133 9.72106C26.9473 12.2504 28.9844 14.9574 27.2207 16.7211C25.0059 18.9222 21.9434 20.5355 20.3164 21.9847C18.7852 23.3519 18.7988 25.266 20.1387 26.6058ZM22.4082 25.3207C21.8613 25.3207 21.4102 24.8695 21.4102 24.3226C21.4102 23.7757 21.8613 23.3382 22.4082 23.3382C22.9688 23.3382 23.4062 23.7757 23.4062 24.3226C23.4062 24.8695 22.9688 25.3207 22.4082 25.3207Z" fill="black" fill-opacity="0.85"/>
 </g>
</svg>
