<?xml version="1.0" encoding="UTF-8"?>
<!--Generator: Apple Native CoreSVG 326-->
<!DOCTYPE svg
PUBLIC "-//W3C//DTD SVG 1.1//EN"
       "http://www.w3.org/Graphics/SVG/1.1/DTD/svg11.dtd">
<svg version="1.1" xmlns="http://www.w3.org/2000/svg" xmlns:xlink="http://www.w3.org/1999/xlink" viewBox="0 0 39.7578 29.4636">
 <g>
  <rect height="29.4636" opacity="0" width="39.7578" x="0" y="0"/>
  <path d="M34.7266 5.93395C34.8633 6.16637 34.877 6.35778 34.877 6.5902L34.877 6.88298C34.0863 6.63906 33.2596 6.5441 32.4436 6.59756C31.2647 5.16822 28.9974 4.22496 26.6465 4.22496C24.0488 4.22496 21.7793 5.31871 20.7949 6.98668L20.7949 19.2658C20.168 19.7058 19.5826 20.1457 19.0723 20.6039C18.8985 20.7593 18.7376 20.9207 18.5938 21.0887L18.5938 6.98668C17.623 5.31871 15.3535 4.22496 12.7559 4.22496C10.2266 4.22496 7.82031 5.30504 6.71289 6.90465L6.71289 23.9808C8.16211 22.9418 10.377 22.2718 12.7559 22.2718C14.4572 22.2718 16.0978 22.7349 17.3938 23.4299C17.1922 24.3798 17.296 25.362 17.6932 26.2712C16.2457 25.0729 14.4845 24.4853 12.7012 24.473C10.8008 24.4593 8.95508 25.0882 7.45117 26.1136C6.93164 26.4281 6.52148 26.7015 6.05664 26.7015C5.25 26.7015 4.51172 26.264 4.51172 25.1429L4.51172 6.5902C4.51172 6.35778 4.53906 6.16637 4.67578 5.93395C5.90625 3.81481 8.98242 2.02379 12.7559 2.02379C15.7363 2.02379 18.3203 3.21324 19.7012 4.89488C21.082 3.21324 23.666 2.02379 26.6465 2.02379C30.4199 2.02379 33.4961 3.81481 34.7266 5.93395ZM34.877 25.1429C34.877 26.264 34.1523 26.7015 33.3457 26.7015C32.8672 26.7015 32.4707 26.4281 31.9512 26.1136C30.8793 25.3828 29.6338 24.8534 28.3172 24.6201C28.7806 23.944 29.2575 23.2576 29.7029 22.6588C30.8642 22.951 31.8875 23.4102 32.6758 23.9808L32.6758 20.0371C33 19.9363 33.3418 19.8929 33.7285 19.8929C34.1334 19.8929 34.5181 19.8622 34.877 19.7967Z" fill="black" fill-opacity="0.85"/>
  <path d="M20.1387 26.6058C21.4648 27.932 23.4473 27.9867 24.7461 26.4281C25.7031 25.2797 28.1094 21.3695 30.1738 19.305C31.3223 18.1566 32.8672 18.0199 33.7285 18.0199C36.9551 18.0199 38.2129 15.4222 37.8164 13.6312L33.7285 14.7113L33.2637 13.0433C33.0996 12.4281 33.3594 11.9086 34.0566 11.7172L37.0781 10.9105C36.9688 10.6371 36.709 10.2406 36.3809 9.89879C34.5215 8.01207 31.4453 7.97106 29.6133 9.72106C26.9473 12.2504 28.9844 14.9574 27.2207 16.7211C25.0059 18.9222 21.9434 20.5355 20.3164 21.9847C18.7852 23.3519 18.7988 25.266 20.1387 26.6058ZM22.4082 25.3207C21.8613 25.3207 21.4102 24.8695 21.4102 24.3226C21.4102 23.7757 21.8613 23.3382 22.4082 23.3382C22.9688 23.3382 23.4062 23.7757 23.4062 24.3226C23.4062 24.8695 22.9688 25.3207 22.4082 25.3207Z" fill="black" fill-opacity="0.85"/>
 </g>
</svg>
