<?xml version="1.0" encoding="UTF-8"?>
<!--Generator: Apple Native CoreSVG 326-->
<!DOCTYPE svg
PUBLIC "-//W3C//DTD SVG 1.1//EN"
       "http://www.w3.org/Graphics/SVG/1.1/DTD/svg11.dtd">
<svg version="1.1" xmlns="http://www.w3.org/2000/svg" xmlns:xlink="http://www.w3.org/1999/xlink" viewBox="0 0 29.6475 29.5176">
 <g>
  <rect height="29.5176" opacity="0" width="29.6475" x="0" y="0"/>
  <path d="M23.8608 27.6302L23.8608 27.7266C23.8608 28.793 23.3276 29.3945 22.4116 29.3945C21.7417 29.3945 21.3589 29.0117 20.1147 27.8223L14.7827 22.5586C14.7144 22.4902 14.5913 22.4902 14.5229 22.5586L9.17725 27.8223C7.94678 29.0117 7.55029 29.3945 6.88037 29.3945C5.96436 29.3945 5.43115 28.793 5.43115 27.7266L5.43115 9.19014ZM23.8608 3.99219L23.8608 20.1223L5.77605 2.02725C6.31524 0.726699 7.49896 0.0683594 9.30029 0.0683594L19.9917 0.0683594C22.562 0.0683594 23.8608 1.39453 23.8608 3.99219Z" fill="#ff3b30"/>
  <path d="M26.0757 27.5898C26.4858 28 27.1694 28 27.5659 27.5898C27.9761 27.166 27.9761 26.5098 27.5659 26.0996L3.39404 1.91406C2.98389 1.50391 2.31396 1.49023 1.89014 1.91406C1.49365 2.31055 1.49365 3.00781 1.89014 3.4043Z" fill="#ff3b30"/>
 </g>
</svg>
