<?xml version="1.0" encoding="UTF-8"?>
<!--Generator: Apple Native CoreSVG 326-->
<!DOCTYPE svg
PUBLIC "-//W3C//DTD SVG 1.1//EN"
       "http://www.w3.org/Graphics/SVG/1.1/DTD/svg11.dtd">
<svg version="1.1" xmlns="http://www.w3.org/2000/svg" xmlns:xlink="http://www.w3.org/1999/xlink" viewBox="0 0 28.2461 27.9043">
 <g>
  <rect height="27.9043" opacity="0" width="28.2461" x="0" y="0"/>
  <path d="M13.9453 27.9043C21.6426 27.9043 27.8906 21.6562 27.8906 13.959C27.8906 6.27539 21.6426 0.0136719 13.9453 0.0136719C6.26172 0.0136719 0 6.27539 0 13.959C0 21.6562 6.26172 27.9043 13.9453 27.9043Z" fill="black" fill-opacity="0.85"/>
  <path d="M5.90625 20.0703L5.90625 9.05078C5.90625 8.54492 6.20703 8.27148 6.74023 8.27148L7.95703 8.27148C8.47656 8.27148 8.76367 8.54492 8.76367 9.05078L8.76367 20.0703C8.76367 20.5762 8.47656 20.8633 7.95703 20.8633L6.74023 20.8633C6.20703 20.8633 5.90625 20.5762 5.90625 20.0703ZM9.70703 20.0703L9.70703 11.2793C9.70703 10.7871 10.0078 10.4727 10.5137 10.4727L13.1523 10.4727C13.6855 10.4727 13.9453 10.7871 13.9453 11.2793L13.9453 20.0703C13.9453 20.5762 13.6855 20.8633 13.1523 20.8633L10.5137 20.8633C10.0078 20.8633 9.70703 20.5762 9.70703 20.0703ZM10.7188 18.9492C10.7188 19.1953 10.8965 19.3867 11.1289 19.3867L12.5508 19.3867C12.7969 19.3867 12.9746 19.1953 12.9746 18.9492C12.9746 18.7168 12.7969 18.5254 12.5508 18.5254L11.1289 18.5254C10.8828 18.5254 10.7188 18.7031 10.7188 18.9492ZM10.7188 12.4141C10.7188 12.6328 10.8828 12.8379 11.1289 12.8379L12.5508 12.8379C12.7969 12.8379 12.9746 12.6191 12.9746 12.4141C12.9746 12.168 12.7969 11.9902 12.5508 11.9902L11.1289 11.9902C10.8965 11.9902 10.7188 12.168 10.7188 12.4141ZM14.916 20.0703L14.916 7.25977C14.916 6.74023 15.1758 6.45312 15.709 6.45312L17.3086 6.45312C17.8281 6.45312 18.1152 6.74023 18.1152 7.25977L18.1152 8.6543L19.1953 8.38086C19.7012 8.25781 20.0293 8.51758 20.125 9.02344L22.3398 19.6602C22.4219 20.166 22.2031 20.5078 21.6973 20.6172L20.6719 20.8633C20.1797 20.9863 19.8379 20.7402 19.7422 20.248L18.1152 12.373L18.1152 20.0703C18.1152 20.5762 17.8281 20.8633 17.3086 20.8633L15.709 20.8633C15.1758 20.8633 14.916 20.5762 14.916 20.0703Z" fill="white"/>
 </g>
</svg>
