<?xml version="1.0" encoding="UTF-8"?>
<!--Generator: Apple Native CoreSVG 326-->
<!DOCTYPE svg
PUBLIC "-//W3C//DTD SVG 1.1//EN"
       "http://www.w3.org/Graphics/SVG/1.1/DTD/svg11.dtd">
<svg version="1.1" xmlns="http://www.w3.org/2000/svg" xmlns:xlink="http://www.w3.org/1999/xlink" viewBox="0 0 28.2461 27.9043">
 <g>
  <rect height="27.9043" opacity="0" width="28.2461" x="0" y="0"/>
  <path d="M13.9453 27.9043C21.6426 27.9043 27.8906 21.6562 27.8906 13.959C27.8906 6.27539 21.6426 0.0136719 13.9453 0.0136719C6.26172 0.0136719 0 6.27539 0 13.959C0 21.6562 6.26172 27.9043 13.9453 27.9043Z" fill="black" fill-opacity="0.85"/>
  <path d="M10.0762 7.91602C11.457 7.91602 12.7012 8.47656 13.3574 9.40625C13.4805 9.58398 13.4941 9.61133 13.4941 9.78906L13.4941 19.5918C13.4941 19.7559 13.3711 19.8652 13.2207 19.8652C13.1387 19.8652 13.084 19.8379 13.002 19.7695C12.2227 19.1133 11.293 18.7988 10.3223 18.7988C9.1875 18.7988 8.09375 19.1953 7.30078 19.8789C7.16406 19.9883 7.01367 20.043 6.83594 20.043C6.53516 20.043 6.33008 19.8516 6.33008 19.5645L6.33008 10.2129C6.33008 9.9668 6.33008 9.88477 6.41211 9.76172C7.08203 8.58594 8.61328 7.91602 10.0762 7.91602ZM17.8281 7.91602C19.291 7.91602 20.8223 8.58594 21.4922 9.76172C21.5742 9.87109 21.5879 9.9668 21.5879 10.2129L21.5879 19.5645C21.5879 19.8516 21.3691 20.043 21.0684 20.043C20.8906 20.043 20.7539 19.9883 20.6035 19.8789C19.8242 19.1953 18.7305 18.7988 17.582 18.7988C16.625 18.7988 15.6816 19.1133 14.9023 19.7695C14.834 19.8379 14.7656 19.8652 14.6836 19.8652C14.5332 19.8652 14.4238 19.7559 14.4238 19.5918L14.4238 9.78906C14.4238 9.61133 14.4238 9.58398 14.5469 9.40625C15.2168 8.47656 16.4473 7.91602 17.8281 7.91602Z" fill="white"/>
 </g>
</svg>
