<?xml version="1.0" encoding="UTF-8"?>
<!--Generator: Apple Native CoreSVG 326-->
<!DOCTYPE svg
PUBLIC "-//W3C//DTD SVG 1.1//EN"
       "http://www.w3.org/Graphics/SVG/1.1/DTD/svg11.dtd">
<svg version="1.1" xmlns="http://www.w3.org/2000/svg" xmlns:xlink="http://www.w3.org/1999/xlink" viewBox="0 0 25.5254 25.1699">
 <g>
  <rect height="25.1699" opacity="0" width="25.5254" x="0" y="0"/>
  <path d="M4.29297 25.1699L20.877 25.1699C23.748 25.1699 25.1699 23.7617 25.1699 20.9453L25.1699 4.23828C25.1699 1.42188 23.748 0 20.877 0L4.29297 0C1.43555 0 0 1.42188 0 4.23828L0 20.9453C0 23.7617 1.43555 25.1699 4.29297 25.1699ZM4.32031 22.9688C2.95312 22.9688 2.20117 22.2441 2.20117 20.8223L2.20117 4.36133C2.20117 2.93945 2.95312 2.20117 4.32031 2.20117L20.8496 2.20117C22.2031 2.20117 22.9688 2.93945 22.9688 4.36133L22.9688 20.8223C22.9688 22.2441 22.2031 22.9688 20.8496 22.9688Z" fill="black" fill-opacity="0.85"/>
  <path d="M6.52148 18.0195C7.01367 18.0195 7.30078 17.7051 7.30078 17.2129L7.30078 13.5078L8.99609 13.5078L10.6641 17.459C10.8418 17.8418 11.0605 18.0195 11.4707 18.0195C11.9082 18.0195 12.209 17.7324 12.209 17.2949C12.209 17.0898 12.127 16.9121 12.0449 16.7344L10.5 13.1797C11.7031 12.6602 12.2363 11.4434 12.2363 10.1855C12.2363 8.08008 10.9238 6.91797 8.91406 6.91797L6.50781 6.91797C6.0293 6.91797 5.74219 7.23242 5.74219 7.71094L5.74219 17.2129C5.74219 17.6777 5.98828 18.0195 6.52148 18.0195ZM7.30078 12.2637L7.30078 8.2168L8.75 8.2168C9.99414 8.2168 10.6777 8.99609 10.6777 10.2266C10.6777 11.4297 10.0762 12.2637 8.77734 12.2637ZM16.666 17.7188C18.6211 17.7188 19.9199 16.666 19.9199 14.9023C19.9199 13.2754 18.9082 12.6191 17.5547 11.9766L16.5703 11.5117C15.6816 11.0879 14.9844 10.6094 14.9844 9.73438C14.9844 8.80469 15.6953 8.32617 16.6523 8.32617C17.7461 8.32617 18.1699 9.03711 18.3203 9.89844C18.3887 10.1582 18.6211 10.4453 19.0449 10.4453C19.4551 10.4453 19.7285 10.1992 19.7285 9.77539C19.7285 9.67969 19.7012 9.48828 19.6738 9.36523C19.3047 7.69727 18.0742 7.0957 16.6523 7.0957C14.8477 7.0957 13.5215 8.10742 13.5215 9.83008C13.5215 11.2793 14.3418 12.0449 15.8184 12.7422L16.8027 13.2207C17.6914 13.6445 18.4434 14.0684 18.4434 15.0254C18.4434 16.0098 17.8008 16.4746 16.6797 16.4746C15.5449 16.4746 15.0117 15.9141 14.8203 14.8477C14.752 14.4785 14.4512 14.2871 14.123 14.2871C13.6992 14.2871 13.4121 14.5332 13.4121 14.957C13.4121 15.0801 13.4395 15.2441 13.4668 15.3672C13.8359 17.0762 15.1621 17.7188 16.666 17.7188ZM16.6523 19.127C16.8711 19.127 17.0215 18.9902 17.0215 18.7578L17.0215 6.07031C17.0215 5.83789 16.8711 5.70117 16.6523 5.70117C16.4199 5.70117 16.2832 5.83789 16.2832 6.07031L16.2832 18.7578C16.2832 18.9902 16.4199 19.127 16.6523 19.127Z" fill="black" fill-opacity="0.85"/>
 </g>
</svg>
