<?xml version="1.0" encoding="UTF-8"?>
<!--Generator: Apple Native CoreSVG 326-->
<!DOCTYPE svg
PUBLIC "-//W3C//DTD SVG 1.1//EN"
       "http://www.w3.org/Graphics/SVG/1.1/DTD/svg11.dtd">
<svg version="1.1" xmlns="http://www.w3.org/2000/svg" xmlns:xlink="http://www.w3.org/1999/xlink" viewBox="0 0 33.291 27.4395">
 <g>
  <rect height="27.4395" opacity="0" width="33.291" x="0" y="0"/>
  <path d="M32.9355 16.4609C32.9355 12.4414 31.4863 8.73633 29.0664 5.86523C28.793 5.53711 28.3281 5.53711 28.0273 5.85156L24.8555 9.02344C24.5957 9.2832 24.582 9.65234 24.8145 9.93945C26.2227 11.7441 27.0703 14.0137 27.0703 16.4609C27.0703 18.9219 26.2227 21.1914 24.7324 23.0918C24.541 23.3242 24.5547 23.625 24.7598 23.8438L28.0137 27.0977C28.3281 27.4121 28.7793 27.4121 29.0664 27.0703C31.4863 24.1992 32.9355 20.4941 32.9355 16.4609Z" fill="black" fill-opacity="0.85"/>
  <path d="M16.4609 5.86523C18.9355 5.86523 21.2051 6.72656 23.0234 8.13477C23.2969 8.35352 23.6523 8.32617 23.9121 8.06641L27.084 4.89453C27.3984 4.58008 27.3848 4.12891 27.0566 3.85547C24.1992 1.44922 20.4941 0 16.4609 0C12.4414 0 8.73633 1.44922 5.87891 3.85547C5.55078 4.12891 5.53711 4.58008 5.85156 4.89453L9.02344 8.06641C9.2832 8.32617 9.65234 8.35352 9.95312 8.12109C11.7578 6.72656 14.0137 5.86523 16.4609 5.86523Z" fill="black" fill-opacity="0.85"/>
  <path d="M0 16.4609C0 20.4941 1.44922 24.1992 3.86914 27.0703C4.14258 27.4121 4.60742 27.4121 4.9082 27.0977L8.16211 23.8438C8.36719 23.625 8.39453 23.3242 8.20312 23.0918C6.71289 21.1914 5.86523 18.9219 5.86523 16.4609C5.86523 14.0137 6.69922 11.7441 8.12109 9.93945C8.33984 9.65234 8.33984 9.2832 8.08008 9.02344L4.9082 5.85156C4.59375 5.53711 4.14258 5.53711 3.86914 5.86523C1.44922 8.73633 0 12.4414 0 16.4609Z" fill="black" fill-opacity="0.85"/>
  <path d="M10.377 22.0938C10.8691 22.0938 11.1562 21.7793 11.1562 21.2871L11.1562 17.582L12.8516 17.582L14.5332 21.5195C14.6973 21.9023 14.916 22.0938 15.3262 22.0938C15.7637 22.0938 16.0645 21.8066 16.0645 21.3691C16.0645 21.1641 15.9824 20.9727 15.9004 20.7949L14.3555 17.2539C15.5586 16.7207 16.0918 15.5176 16.0918 14.2598C16.0918 12.1543 14.7793 10.9922 12.7695 10.9922L10.3633 10.9922C9.88477 10.9922 9.59766 11.293 9.59766 11.7852L9.59766 21.2871C9.59766 21.752 9.84375 22.0938 10.377 22.0938ZM11.1562 16.3379L11.1562 12.2773L12.6191 12.2773C13.8633 12.2773 14.5332 13.0703 14.5332 14.2871C14.5332 15.4902 13.9453 16.3379 12.6328 16.3379ZM20.5352 21.7793C22.4766 21.7793 23.7754 20.7266 23.7754 18.9629C23.7754 17.3359 22.7773 16.6934 21.4238 16.0508L20.4258 15.5723C19.5371 15.1484 18.8398 14.6699 18.8398 13.8086C18.8398 12.8652 19.5508 12.3867 20.5078 12.3867C21.6016 12.3867 22.0254 13.1113 22.1895 13.959C22.2441 14.2324 22.4766 14.5195 22.9004 14.5195C23.3105 14.5195 23.584 14.2598 23.584 13.8496C23.584 13.7402 23.5566 13.5488 23.5293 13.4395C23.1738 11.7578 21.9297 11.1562 20.5078 11.1562C18.7031 11.1562 17.377 12.1816 17.377 13.8906C17.377 15.3535 18.2109 16.1191 19.6875 16.8164L20.6719 17.2812C21.5469 17.7051 22.2988 18.1426 22.2988 19.0996C22.2988 20.084 21.6562 20.5352 20.5488 20.5352C19.4004 20.5352 18.8672 19.9883 18.6758 18.9219C18.6074 18.5391 18.3066 18.3477 17.9922 18.3477C17.5547 18.3477 17.2676 18.5938 17.2676 19.0312C17.2676 19.1406 17.2949 19.3047 17.3223 19.4414C17.7051 21.1367 19.0176 21.7793 20.5352 21.7793ZM20.5078 23.2012C20.7402 23.2012 20.877 23.0508 20.877 22.832L20.877 10.1309C20.877 9.91211 20.7402 9.76172 20.5078 9.76172C20.2891 9.76172 20.1387 9.91211 20.1387 10.1309L20.1387 22.832C20.1387 23.0508 20.2891 23.2012 20.5078 23.2012Z" fill="black" fill-opacity="0.85"/>
 </g>
</svg>
