<?xml version="1.0" encoding="UTF-8"?>
<!--Generator: Apple Native CoreSVG 326-->
<!DOCTYPE svg
PUBLIC "-//W3C//DTD SVG 1.1//EN"
       "http://www.w3.org/Graphics/SVG/1.1/DTD/svg11.dtd">
<svg version="1.1" xmlns="http://www.w3.org/2000/svg" xmlns:xlink="http://www.w3.org/1999/xlink" viewBox="0 0 28.2461 27.9043">
 <g>
  <rect height="27.9043" opacity="0" width="28.2461" x="0" y="0"/>
  <path d="M13.9453 27.8906C21.6426 27.8906 27.8906 21.6426 27.8906 13.9453C27.8906 6.24805 21.6426 0 13.9453 0C6.24805 0 0 6.24805 0 13.9453C0 21.6426 6.24805 27.8906 13.9453 27.8906ZM13.9453 25.5664C7.51953 25.5664 2.32422 20.3711 2.32422 13.9453C2.32422 7.51953 7.51953 2.32422 13.9453 2.32422C20.3711 2.32422 25.5664 7.51953 25.5664 13.9453C25.5664 20.3711 20.3711 25.5664 13.9453 25.5664Z" fill="#a2845e"/>
  <path d="M8.3125 20.0156L19.5781 20.0156C21.0137 20.0156 21.7383 19.3184 21.7383 17.8965L21.7383 11.0742C21.7383 9.63867 21.0137 8.94141 19.5781 8.94141L8.3125 8.94141C6.87695 8.94141 6.16602 9.63867 6.16602 11.0742L6.16602 17.8965C6.16602 19.3184 6.87695 20.0156 8.3125 20.0156ZM12.8516 15.4082C12.373 15.4082 12.0859 15.1348 12.0859 14.6289L12.0859 14.0684C10.1309 13.9316 8.20312 13.5762 6.16602 12.8379L6.16602 11.6211C8.73633 12.6875 11.2246 13.043 13.9453 13.043C16.666 13.043 19.1543 12.6875 21.7383 11.6211L21.7383 12.8379C19.6875 13.5762 17.7598 13.9316 15.8047 14.0684L15.8047 14.6289C15.8047 15.1348 15.5176 15.4082 15.0391 15.4082ZM9.77539 9.55664L11.0879 9.55664L11.0879 8.3125C11.0879 7.95703 11.3203 7.73828 11.7031 7.73828L16.2148 7.73828C16.584 7.73828 16.8164 7.95703 16.8164 8.3125L16.8164 9.55664L18.1152 9.55664L18.1152 8.24414C18.1152 7.16406 17.4043 6.50781 16.2832 6.50781L11.6074 6.50781C10.4863 6.50781 9.77539 7.16406 9.77539 8.24414Z" fill="#a2845e"/>
 </g>
</svg>
