<?xml version="1.0" encoding="UTF-8"?>
<!--Generator: Apple Native CoreSVG 326-->
<!DOCTYPE svg
PUBLIC "-//W3C//DTD SVG 1.1//EN"
       "http://www.w3.org/Graphics/SVG/1.1/DTD/svg11.dtd">
<svg version="1.1" xmlns="http://www.w3.org/2000/svg" xmlns:xlink="http://www.w3.org/1999/xlink" viewBox="0 0 42.6562 35.041">
 <g>
  <rect height="35.041" opacity="0" width="42.6562" x="0" y="0"/>
  <path d="M31.5709 6.94531L22.0938 6.94531C17.0898 6.94531 14.2188 9.91211 14.2188 14.8066L14.2188 22.2031C14.2188 23.7691 14.5127 25.1378 15.0795 26.2722L11.8945 29.1074C11.0742 29.832 10.6094 30.1875 9.92578 30.1875C8.98242 30.1875 8.43555 29.5176 8.43555 28.4648L8.43555 24.8965L7.7793 24.8965C3.71875 24.8965 1.51758 22.6543 1.51758 18.6484L1.51758 8.16211C1.51758 4.15625 3.71875 1.90039 7.7793 1.90039L25.3887 1.90039C29.0284 1.90039 31.1624 3.7008 31.5709 6.94531Z" fill="black" fill-opacity="0.85"/>
  <path d="M22.0938 28.1914L26.5098 28.1914L31.0762 32.1016C31.9102 32.8125 32.3613 33.1816 33.0312 33.1816C33.9746 33.1816 34.5078 32.5117 34.5078 31.4727L34.5078 28.1914L34.7812 28.1914C38.7188 28.1914 40.7832 26.0723 40.7832 22.2031L40.7832 14.8066C40.7832 10.9238 38.7188 8.80469 34.7812 8.80469L22.0938 8.80469C18.1562 8.80469 16.0918 10.9238 16.0918 14.8066L16.0918 22.2031C16.0918 26.0859 18.1562 28.1914 22.0938 28.1914Z" fill="black" fill-opacity="0.85"/>
 </g>
</svg>
