<?xml version="1.0" encoding="UTF-8"?>
<!--Generator: Apple Native CoreSVG 326-->
<!DOCTYPE svg
PUBLIC "-//W3C//DTD SVG 1.1//EN"
       "http://www.w3.org/Graphics/SVG/1.1/DTD/svg11.dtd">
<svg version="1.1" xmlns="http://www.w3.org/2000/svg" xmlns:xlink="http://www.w3.org/1999/xlink" viewBox="0 0 34.7266 32.5801">
 <g>
  <rect height="32.5801" opacity="0" width="34.7266" x="0" y="0"/>
  <path d="M33.1953 17.459C33.9883 17.0762 34.3711 16.5293 34.3711 15.9824C34.3711 15.4355 33.9883 14.9297 33.1953 14.6562L26.7285 12.4277L29.5039 6.75391C29.6406 6.4668 29.6953 6.16602 29.6953 5.90625C29.6953 5.14062 29.1211 4.58008 28.3555 4.58008C28.0957 4.58008 27.8086 4.62109 27.5215 4.77148L21.6562 7.64258L18.5938 1.09375C18.2656 0.369141 17.7324 0 17.1855 0C16.6387 0 16.1191 0.369141 15.7773 1.09375L12.7285 7.64258L6.84961 4.77148C6.5625 4.62109 6.27539 4.58008 6.01562 4.58008C5.25 4.58008 4.67578 5.14062 4.67578 5.90625C4.67578 6.16602 4.73047 6.4668 4.88086 6.75391L7.64258 12.4277L1.17578 14.6562C0.396484 14.916 0 15.4492 0 15.9961C0 16.5293 0.396484 17.0762 1.17578 17.459L7.38281 20.4258L4.0332 27.5215C3.86914 27.8359 3.80078 28.1367 3.80078 28.4238C3.80078 29.1074 4.26562 29.5996 4.92188 29.5996C5.19531 29.5996 5.49609 29.5039 5.81055 29.3125L13.7402 24.623L15.9141 31.3496C16.1602 32.0879 16.666 32.4707 17.1855 32.4707C17.7188 32.4707 18.2109 32.0879 18.457 31.3496L20.6445 24.623L28.5605 29.3125C28.875 29.5039 29.1895 29.5859 29.4492 29.5859C30.0918 29.5859 30.584 29.1211 30.584 28.4375C30.584 28.1504 30.502 27.8359 30.3379 27.5215L26.9883 20.4258Z" fill="black" fill-opacity="0.85"/>
 </g>
</svg>
