<?xml version="1.0" encoding="UTF-8"?>
<!--Generator: Apple Native CoreSVG 326-->
<!DOCTYPE svg
PUBLIC "-//W3C//DTD SVG 1.1//EN"
       "http://www.w3.org/Graphics/SVG/1.1/DTD/svg11.dtd">
<svg version="1.1" xmlns="http://www.w3.org/2000/svg" xmlns:xlink="http://www.w3.org/1999/xlink" viewBox="0 0 35.793 33.5918">
 <g>
  <rect height="33.5918" opacity="0" width="35.793" x="0" y="0"/>
  <path d="M34.2207 18.0059C35.041 17.6094 35.4375 17.0488 35.4375 16.4746C35.4375 15.9141 35.041 15.3945 34.2207 15.1074L27.5625 12.8105L30.4199 6.97266C30.5566 6.67188 30.625 6.37109 30.625 6.09766C30.625 5.30469 30.0234 4.7168 29.2305 4.7168C28.957 4.7168 28.6699 4.77148 28.3691 4.92188L22.3262 7.875L19.1816 1.13477C18.8398 0.382812 18.2793 0 17.7188 0C17.1582 0 16.6113 0.382812 16.2559 1.13477L13.125 7.875L7.06836 4.92188C6.76758 4.77148 6.48047 4.7168 6.20703 4.7168C5.41406 4.7168 4.8125 5.30469 4.8125 6.09766C4.8125 6.37109 4.88086 6.67188 5.03125 6.97266L7.875 12.8105L1.2168 15.1074C0.410156 15.3809 0 15.9277 0 16.4883C0 17.0488 0.410156 17.6094 1.2168 18.0059L7.60156 21.0684L4.15625 28.3691C3.99219 28.6973 3.92383 29.0117 3.92383 29.2988C3.92383 30.0098 4.40234 30.5156 5.07227 30.5156C5.35938 30.5156 5.67383 30.4199 6.00195 30.2285L14.1641 25.4023L16.4062 32.3203C16.6523 33.0859 17.1855 33.4824 17.7188 33.4824C18.2656 33.4824 18.7852 33.0859 19.0312 32.3203L21.2871 25.4023L29.4355 30.2285C29.7637 30.4199 30.0781 30.502 30.3652 30.502C31.0215 30.502 31.5273 30.0234 31.5273 29.3125C31.5273 29.0254 31.4453 28.6973 31.2812 28.3691L27.8359 21.0684ZM32.5117 16.502L32.5117 16.5977L25.5117 19.6602C25.252 19.7695 25.1152 19.9473 25.1152 20.166C25.1152 20.248 25.1562 20.3574 25.2109 20.4531L28.8066 27.7129L28.7383 27.7949L20.6855 22.709C20.5625 22.6406 20.4395 22.5859 20.3301 22.5859C20.1113 22.5859 19.9336 22.75 19.8652 23.0234L17.7598 30.1055L17.6777 30.1055L15.5859 23.0234C15.5039 22.75 15.3262 22.5859 15.1074 22.5859C14.998 22.5859 14.875 22.6406 14.752 22.709L6.71289 27.7949L6.63086 27.7129L10.2266 20.4531C10.2949 20.3574 10.3223 20.248 10.3223 20.166C10.3223 19.9473 10.1855 19.7695 9.93945 19.6602L2.92578 16.5977L2.92578 16.502L10.1992 14.2598C10.4727 14.1777 10.623 14 10.623 13.7812C10.623 13.6719 10.5957 13.5625 10.5273 13.4531L7.25977 7.21875L7.32812 7.15039L13.6172 10.459C13.7266 10.5273 13.8359 10.5547 13.9453 10.5547C14.1504 10.5547 14.3145 10.4316 14.4102 10.1855L17.6777 2.87109L17.7598 2.87109L21.0273 10.1855C21.123 10.4316 21.2871 10.5547 21.4922 10.5547C21.6016 10.5547 21.7109 10.5273 21.834 10.459L28.1094 7.15039L28.1777 7.21875L24.9102 13.4531C24.8418 13.5625 24.8145 13.6719 24.8145 13.7812C24.8145 14 24.9648 14.1777 25.2383 14.2598Z" fill="black" fill-opacity="0.85"/>
 </g>
</svg>
