<?xml version="1.0" encoding="UTF-8"?>
<!--Generator: Apple Native CoreSVG 326-->
<!DOCTYPE svg
PUBLIC "-//W3C//DTD SVG 1.1//EN"
       "http://www.w3.org/Graphics/SVG/1.1/DTD/svg11.dtd">
<svg version="1.1" xmlns="http://www.w3.org/2000/svg" xmlns:xlink="http://www.w3.org/1999/xlink" viewBox="0 0 33.6602 33.4277">
 <g>
  <rect height="33.4277" opacity="0" width="33.6602" x="0" y="0"/>
  <path d="M33.6602 7.32812L33.6602 26.0586C33.6602 30.5156 30.707 33.373 26.0723 33.373L21.6152 33.373C17.5547 33.373 14.957 30.3105 14.957 26.0586L14.957 22.2262L17.1582 20.2729L17.1582 26.0586C17.1582 28.9707 18.8945 31.1719 21.6152 31.1719C24.3223 31.1719 26.0586 28.9707 26.0586 26.0586L26.0586 7.32812C26.0586 4.41602 24.3223 2.20117 21.6152 2.20117C18.8945 2.20117 17.1582 4.41602 17.1582 7.32812L17.1582 13.0996L14.957 11.1454L14.957 7.32812C14.957 3.0625 17.5547 0 21.6152 0L26.0723 0C30.707 0 33.6602 2.85742 33.6602 7.32812ZM28.2598 7.32812L28.2598 26.0586C28.2598 28.1023 27.6596 29.8712 26.5818 31.1522C29.5592 30.9565 31.459 29.0101 31.459 26.0586L31.459 7.32812C31.459 4.37617 29.5586 2.41735 26.5803 2.22096C27.6591 3.50383 28.2598 5.27687 28.2598 7.32812Z" fill="black" fill-opacity="0.85"/>
  <path d="M17.9238 17.7051C18.6211 17.1172 18.6074 16.2422 17.9238 15.668L13.7949 11.9902C12.8105 11.1426 11.457 11.7168 11.457 13.0293L11.457 15.2988L4.29297 15.2988C3.5 15.2988 2.88477 15.9141 2.88477 16.707C2.88477 17.4727 3.5 18.0879 4.29297 18.0879L11.457 18.0879L11.457 20.3438C11.457 21.6973 12.8516 22.2168 13.7949 21.3691Z" fill="black" fill-opacity="0.85"/>
 </g>
</svg>
