<?xml version="1.0" encoding="UTF-8"?>
<!--Generator: Apple Native CoreSVG 326-->
<!DOCTYPE svg
PUBLIC "-//W3C//DTD SVG 1.1//EN"
       "http://www.w3.org/Graphics/SVG/1.1/DTD/svg11.dtd">
<svg version="1.1" xmlns="http://www.w3.org/2000/svg" xmlns:xlink="http://www.w3.org/1999/xlink" viewBox="0 0 33.7285 35.7793">
 <g>
  <rect height="35.7793" opacity="0" width="33.7285" x="0" y="0"/>
  <path d="M33.373 20.125L33.373 24.582C33.373 29.2168 30.5156 32.1836 26.0586 32.1836L7.31445 32.1836C2.85742 32.1836 0 29.2168 0 24.582L0 20.125C0 16.0645 3.0625 13.4805 7.31445 13.4805L11.1453 13.4805L13.0987 15.6816L7.31445 15.6816C4.40234 15.6816 2.20117 17.418 2.20117 20.125C2.20117 22.832 4.40234 24.5684 7.31445 24.5684L26.0586 24.5684C28.957 24.5684 31.1719 22.832 31.1719 20.125C31.1719 17.418 28.957 15.6816 26.0586 15.6816L20.2658 15.6816L22.2256 13.4805L26.0586 13.4805C30.3105 13.4805 33.373 16.0645 33.373 20.125ZM26.0586 26.7695L7.31445 26.7695C5.27087 26.7695 3.50204 26.1726 2.22113 25.0966C2.41927 28.0839 4.37692 29.9824 7.31445 29.9824L26.0586 29.9824C28.9961 29.9824 30.9538 28.0839 31.1519 25.0966C29.871 26.1726 28.1022 26.7695 26.0586 26.7695Z" fill="black" fill-opacity="0.85"/>
  <path d="M17.7051 16.4473L21.3691 12.3047C22.2168 11.3613 21.6973 9.9668 20.3301 9.9668L18.0879 9.9668L18.0879 2.80273C18.0879 2.02344 17.4727 1.4082 16.6934 1.4082C15.9141 1.4082 15.2988 2.02344 15.2988 2.80273L15.2988 9.9668L13.0293 9.9668C11.7168 9.9668 11.1289 11.3203 11.9902 12.3047L15.6543 16.4473C16.2422 17.1172 17.1035 17.1309 17.7051 16.4473Z" fill="black" fill-opacity="0.85"/>
 </g>
</svg>
