<?xml version="1.0" encoding="UTF-8"?>
<!--Generator: Apple Native CoreSVG 326-->
<!DOCTYPE svg
PUBLIC "-//W3C//DTD SVG 1.1//EN"
       "http://www.w3.org/Graphics/SVG/1.1/DTD/svg11.dtd">
<svg version="1.1" xmlns="http://www.w3.org/2000/svg" xmlns:xlink="http://www.w3.org/1999/xlink" viewBox="0 0 25.5254 25.1699">
 <g>
  <rect height="25.1699" opacity="0" width="25.5254" x="0" y="0"/>
  <path d="M4.29297 25.1699L20.877 25.1699C23.748 25.1699 25.1699 23.7617 25.1699 20.9453L25.1699 4.23828C25.1699 1.42188 23.748 0 20.877 0L4.29297 0C1.43555 0 0 1.42188 0 4.23828L0 20.9453C0 23.7617 1.43555 25.1699 4.29297 25.1699ZM4.32031 22.9688C2.95312 22.9688 2.20117 22.2441 2.20117 20.8223L2.20117 4.36133C2.20117 2.93945 2.95312 2.20117 4.32031 2.20117L20.8496 2.20117C22.2031 2.20117 22.9688 2.93945 22.9688 4.36133L22.9688 20.8223C22.9688 22.2441 22.2031 22.9688 20.8496 22.9688Z" fill="black" fill-opacity="0.85"/>
  <path d="M12.5918 20.3848C16.8848 20.3848 20.3711 16.8984 20.3711 12.5918C20.3711 8.29883 16.8848 4.8125 12.5918 4.8125C8.28516 4.8125 4.79883 8.29883 4.79883 12.5918C4.79883 16.8984 8.28516 20.3848 12.5918 20.3848ZM12.5918 18.4707C9.33789 18.4707 6.71289 15.8457 6.71289 12.5918C6.71289 9.35156 9.33789 6.72656 12.5918 6.72656C15.832 6.72656 18.457 9.35156 18.457 12.5918C18.457 15.8457 15.832 18.4707 12.5918 18.4707ZM12.5918 17.0488C15.0391 17.0488 17.0352 15.0527 17.0352 12.5918C17.0352 10.1445 15.0391 8.14844 12.5918 8.14844C10.1309 8.14844 8.13477 10.1445 8.13477 12.5918C8.13477 15.0527 10.1309 17.0488 12.5918 17.0488Z" fill="black" fill-opacity="0.85"/>
 </g>
</svg>
