<?xml version="1.0" encoding="UTF-8"?>
<!--Generator: Apple Native CoreSVG 326-->
<!DOCTYPE svg
PUBLIC "-//W3C//DTD SVG 1.1//EN"
       "http://www.w3.org/Graphics/SVG/1.1/DTD/svg11.dtd">
<svg version="1.1" xmlns="http://www.w3.org/2000/svg" xmlns:xlink="http://www.w3.org/1999/xlink" viewBox="0 0 35.7383 24.6018">
 <g>
  <rect height="24.6018" opacity="0" width="35.7383" x="0" y="0"/>
  <path d="M0 13.8527C0 16.7785 0.478516 18.1183 2.65234 19.2394L10.3496 23.1906C13.1797 24.6535 15.2031 25.0226 18.375 24.0929L30.2148 20.6476C33.8652 19.5675 35.3828 17.3937 35.3828 13.8527L35.3828 5.32142C35.3828 2.84681 33.7422 1.16517 31.2812 1.16517L4.12891 1.1515C1.66797 1.1515 0 2.81947 0 5.2804ZM2.20117 13.8527L2.20117 5.32142C2.20117 4.13197 2.98047 3.35267 4.16992 3.35267L31.2539 3.36634C32.416 3.36634 33.1816 4.15931 33.1816 5.36243L33.1816 13.8527C33.1816 16.341 32.1562 17.8312 29.5859 18.5831L18.375 21.9054C15.5312 22.7531 13.877 22.507 11.5254 21.3175L4.04688 17.5031C2.58398 16.7648 2.20117 15.8761 2.20117 13.8527Z" fill="black" fill-opacity="0.85"/>
 </g>
</svg>
