<?xml version="1.0" encoding="UTF-8"?>
<!--Generator: Apple Native CoreSVG 326-->
<!DOCTYPE svg
PUBLIC "-//W3C//DTD SVG 1.1//EN"
       "http://www.w3.org/Graphics/SVG/1.1/DTD/svg11.dtd">
<svg version="1.1" xmlns="http://www.w3.org/2000/svg" xmlns:xlink="http://www.w3.org/1999/xlink" viewBox="0 0 25.5254 25.1699">
 <g>
  <rect height="25.1699" opacity="0" width="25.5254" x="0" y="0"/>
  <path d="M4.29297 25.1699L20.877 25.1699C23.748 25.1699 25.1699 23.7617 25.1699 20.9453L25.1699 4.23828C25.1699 1.42188 23.748 0 20.877 0L4.29297 0C1.43555 0 0 1.42188 0 4.23828L0 20.9453C0 23.7617 1.43555 25.1699 4.29297 25.1699ZM4.32031 22.9688C2.95312 22.9688 2.20117 22.2441 2.20117 20.8223L2.20117 4.36133C2.20117 2.93945 2.95312 2.20117 4.32031 2.20117L20.8496 2.20117C22.2031 2.20117 22.9688 2.93945 22.9688 4.36133L22.9688 20.8223C22.9688 22.2441 22.2031 22.9688 20.8496 22.9688Z" fill="black" fill-opacity="0.85"/>
  <path d="M12.6055 18.9902C15.0391 18.9902 16.9531 17.8418 17.6094 15.9961C17.7051 15.75 17.7324 15.5723 17.7324 15.3672C17.7324 14.793 17.3633 14.4375 16.8027 14.4375C16.3789 14.4375 16.1055 14.6426 15.8867 15.1074C15.3262 16.4473 14.1777 17.1855 12.6328 17.1855C10.459 17.1855 8.99609 15.2852 8.99609 12.4551C8.99609 9.625 10.459 7.71094 12.6328 7.71094C14.1777 7.71094 15.3262 8.44922 15.8867 9.80273C16.1055 10.2676 16.3789 10.459 16.8027 10.459C17.3633 10.459 17.7324 10.1035 17.7324 9.5293C17.7324 9.31055 17.7051 9.14648 17.6094 8.90039C16.9531 7.06836 15.0254 5.90625 12.6055 5.90625C9.06445 5.90625 6.79492 8.46289 6.79492 12.4551C6.79492 16.4473 9.05078 18.9902 12.6055 18.9902Z" fill="black" fill-opacity="0.85"/>
 </g>
</svg>
