<?xml version="1.0" encoding="UTF-8"?>
<!--Generator: Apple Native CoreSVG 326-->
<!DOCTYPE svg
PUBLIC "-//W3C//DTD SVG 1.1//EN"
       "http://www.w3.org/Graphics/SVG/1.1/DTD/svg11.dtd">
<svg version="1.1" xmlns="http://www.w3.org/2000/svg" xmlns:xlink="http://www.w3.org/1999/xlink" viewBox="0 0 22.5723 31.3496">
 <g>
  <rect height="31.3496" opacity="0" width="22.5723" x="0" y="0"/>
  <path d="M3.1582 28.8066L19.0586 28.8066C20.9453 28.8066 22.2168 27.5078 22.2168 25.5391L22.2168 3.26758C22.2168 1.29883 20.9453 0 19.0586 0L3.1582 0C1.27148 0 0 1.29883 0 3.26758L0 25.5391C0 27.5078 1.27148 28.8066 3.1582 28.8066ZM3.26758 26.6055C2.625 26.6055 2.20117 26.1816 2.20117 25.5254L2.20117 3.28125C2.20117 2.625 2.625 2.20117 3.26758 2.20117L18.9492 2.20117C19.5918 2.20117 20.0156 2.625 20.0156 3.28125L20.0156 25.5254C20.0156 26.1816 19.5918 26.6055 18.9492 26.6055ZM10.2129 27.6309L12.0039 27.6309L12.0039 1.13477L10.2129 1.13477ZM7.56055 16.3516C8.35352 16.3516 9.00977 15.709 9.00977 14.916C9.00977 14.1094 8.35352 13.4668 7.56055 13.4668C6.76758 13.4668 6.11133 14.1094 6.11133 14.916C6.11133 15.709 6.76758 16.3516 7.56055 16.3516ZM14.6426 16.3516C15.4355 16.3516 16.0918 15.709 16.0918 14.916C16.0918 14.1094 15.4355 13.4668 14.6426 13.4668C13.8496 13.4668 13.1934 14.1094 13.1934 14.916C13.1934 15.709 13.8496 16.3516 14.6426 16.3516ZM4.00586 31.3359C4.68945 31.3359 5.14062 30.8711 5.14062 30.1875L5.14062 27.4395L2.87109 27.4395L2.87109 30.1875C2.87109 30.8711 3.32227 31.3359 4.00586 31.3359ZM18.2109 31.3359C18.8945 31.3359 19.3457 30.8711 19.3457 30.1875L19.3457 27.4395L17.0762 27.4395L17.0762 30.1875C17.0762 30.8711 17.5273 31.3359 18.2109 31.3359Z" fill="black" fill-opacity="0.85"/>
 </g>
</svg>
