<?xml version="1.0" encoding="UTF-8"?>
<!--Generator: Apple Native CoreSVG 326-->
<!DOCTYPE svg
PUBLIC "-//W3C//DTD SVG 1.1//EN"
       "http://www.w3.org/Graphics/SVG/1.1/DTD/svg11.dtd">
<svg version="1.1" xmlns="http://www.w3.org/2000/svg" xmlns:xlink="http://www.w3.org/1999/xlink" viewBox="0 0 29.1621 29.3809">
 <g>
  <rect height="29.3809" opacity="0" width="29.1621" x="0" y="0"/>
  <path d="M24.4043 5.08594L27.9727 5.08594C28.4785 5.08594 28.8066 4.75781 28.8066 4.2793L28.8066 3.63672C28.8066 3.14453 28.4785 2.81641 27.9727 2.81641L24.4043 2.81641ZM21.5742 7.90234L22.2715 7.90234C22.7637 7.90234 23.0918 7.57422 23.0918 7.08203L23.0918 0.833984C23.0918 0.328125 22.7637 0 22.2715 0L21.5742 0C21.082 0 20.7539 0.328125 20.7539 0.833984L20.7539 7.08203C20.7539 7.57422 21.082 7.90234 21.5742 7.90234ZM14.082 7.16406L19.4414 7.16406L19.4414 0.738281L14.082 0.738281C12.9609 0.738281 12.5098 1.20312 12.5098 2.32422L12.5098 5.5918C12.5098 6.71289 12.9609 7.16406 14.082 7.16406ZM0 9.31055C0 12.8789 2.91211 15.7773 6.48047 15.7773L22.3262 15.7773C24.6914 15.7773 26.6055 17.6914 26.6055 20.0566C26.6055 22.4082 24.6777 24.3086 22.3262 24.3086L17.623 24.3086L17.623 26.5098L22.3262 26.5098C25.8945 26.5098 28.8066 23.625 28.8066 20.0566C28.8066 16.4883 25.8945 13.5762 22.3262 13.5762L6.48047 13.5762C4.11523 13.5762 2.20117 11.6758 2.20117 9.31055C2.20117 6.95898 4.12891 5.04492 6.48047 5.04492L11.1836 5.04492L11.1836 2.84375L6.48047 2.84375C2.91211 2.84375 0 5.74219 0 9.31055ZM4.40234 26.5371L4.40234 24.2676L0.833984 24.2676C0.328125 24.2676 0 24.5957 0 25.0879L0 25.7305C0 26.209 0.328125 26.5371 0.833984 26.5371ZM7.23242 29.3672C7.72461 29.3672 8.05273 29.0391 8.05273 28.5332L8.05273 22.2852C8.05273 21.793 7.72461 21.4648 7.23242 21.4648L6.53516 21.4648C6.04297 21.4648 5.71484 21.793 5.71484 22.2852L5.71484 28.5332C5.71484 29.0391 6.04297 29.3672 6.53516 29.3672ZM14.7246 28.6289C15.8457 28.6289 16.2969 28.1641 16.2969 27.043L16.2969 23.7754C16.2969 22.6543 15.8457 22.2031 14.7246 22.2031L9.36523 22.2031L9.36523 28.6289Z" fill="black" fill-opacity="0.85"/>
 </g>
</svg>
