<?xml version="1.0" encoding="UTF-8"?>
<!--Generator: Apple Native CoreSVG 326-->
<!DOCTYPE svg
PUBLIC "-//W3C//DTD SVG 1.1//EN"
       "http://www.w3.org/Graphics/SVG/1.1/DTD/svg11.dtd">
<svg version="1.1" xmlns="http://www.w3.org/2000/svg" xmlns:xlink="http://www.w3.org/1999/xlink" viewBox="0 0 28.8066 33.373">
 <g>
  <rect height="33.373" opacity="0" width="28.8066" x="0" y="0"/>
  <path d="M1.57227 26.0723L3.33594 26.0723L3.33594 7.83398C3.33594 6.84961 3.81445 6.30273 4.82617 6.16602C7.08203 5.85156 10.5684 5.71484 14.2188 5.71484C17.8555 5.71484 21.3418 5.85156 23.625 6.16602C24.6504 6.28906 25.1016 6.76758 25.1016 7.83398L25.1016 26.0723L26.8789 26.0723L26.8789 7.30078C26.8789 5.63281 25.9082 4.64844 24.0898 4.42969C21.4375 4.10156 17.7324 3.92383 14.2188 3.92383C10.7051 3.92383 7 4.10156 4.33398 4.42969C2.5293 4.64844 1.57227 5.63281 1.57227 7.30078ZM0 26.9473C0 27.5488 0.492188 28.0547 1.09375 28.0547L27.3574 28.0547C27.959 28.0547 28.4512 27.5488 28.4512 26.9473C28.4512 26.3457 27.959 25.8535 27.3574 25.8535L1.09375 25.8535C0.492188 25.8535 0 26.3457 0 26.9473ZM5.40039 1.51758C5.40039 2.13281 5.91992 2.7207 6.5625 2.63867C8.59961 2.39258 11.416 2.2832 14.2188 2.2832C17.0215 2.2832 19.8516 2.39258 21.8887 2.63867C22.5176 2.7207 23.0371 2.13281 23.0371 1.51758C23.0371 0.902344 22.5449 0.451172 21.8887 0.369141C19.8242 0.123047 16.9805 0 14.2188 0C11.4707 0 8.62695 0.123047 6.54883 0.369141C5.90625 0.451172 5.40039 0.902344 5.40039 1.51758ZM6.95898 1.16211L6.95898 4.9082L8.75 4.9082L8.75 1.16211ZM19.7012 1.16211L19.7012 4.9082L21.4922 4.9082L21.4922 1.16211ZM14.2188 24.2949C15.4629 24.2949 16.4473 23.3652 16.4473 22.1211C16.4473 20.8496 15.4629 19.8652 14.2188 19.8652C12.9473 19.8652 12.0176 20.8496 12.0176 22.1211C12.0176 23.3652 12.9473 24.2949 14.2188 24.2949ZM4.79883 17.2129C4.79883 17.623 5.07227 17.8965 5.50977 17.8965L9.1875 17.8965C9.625 17.8965 9.89844 17.623 9.89844 17.2129L9.89844 10.5273C9.89844 9.0918 8.77734 7.98438 7.35547 7.98438C5.90625 7.98438 4.79883 9.0918 4.79883 10.5273ZM11.3477 17.2129C11.3477 17.623 11.6211 17.8965 12.0586 17.8965L16.3652 17.8965C16.8164 17.8965 17.0898 17.623 17.0898 17.2129L17.0898 10.2129C17.0898 8.50391 15.9414 7.35547 14.2188 7.35547C12.4961 7.35547 11.3477 8.50391 11.3477 10.2129ZM18.5254 17.2129C18.5254 17.623 18.8125 17.8965 19.25 17.8965L22.9277 17.8965C23.3652 17.8965 23.6387 17.623 23.6387 17.2129L23.6387 10.5273C23.6387 9.0918 22.5176 7.98438 21.0957 7.98438C19.6465 7.98438 18.5254 9.0918 18.5254 10.5273ZM4.55273 33.3457L5.31836 33.3457C5.6875 33.3457 5.90625 33.2227 6.11133 32.8945L9.99414 26.6191L7.38281 26.6191L3.9375 32.1562C3.58203 32.7305 3.91016 33.3457 4.55273 33.3457ZM22.6543 33.3457L23.4199 33.3457C24.0488 33.3457 24.377 32.7305 24.0215 32.1562L20.5762 26.6191L17.9648 26.6191L21.8477 32.8945C22.0527 33.2227 22.2715 33.3457 22.6543 33.3457Z" fill="black" fill-opacity="0.85"/>
 </g>
</svg>
