<?xml version="1.0" encoding="UTF-8"?>
<!--Generator: Apple Native CoreSVG 326-->
<!DOCTYPE svg
PUBLIC "-//W3C//DTD SVG 1.1//EN"
       "http://www.w3.org/Graphics/SVG/1.1/DTD/svg11.dtd">
<svg version="1.1" xmlns="http://www.w3.org/2000/svg" xmlns:xlink="http://www.w3.org/1999/xlink" viewBox="0 0 34.1797 9.7207">
 <g>
  <rect height="9.7207" opacity="0" width="34.1797" x="0" y="0"/>
  <path d="M0 5.98828L14.2051 5.98828L14.2051 3.71875L0 3.71875ZM13.6309 9.7207L25.3477 9.7207C26.5508 9.7207 27.0293 9.22852 27.0293 8.03906L27.0293 1.66797C27.0293 0.478516 26.5508 0 25.3477 0L13.6309 0C12.4277 0 11.9492 0.478516 11.9492 1.66797L11.9492 8.03906C11.9492 9.22852 12.4277 9.7207 13.6309 9.7207Z" fill="black" fill-opacity="0.85"/>
  <path d="M28.6152 7.76562L32.1562 7.76562C33.3457 7.76562 33.8242 7.27344 33.8242 6.07031L33.8242 3.63672C33.8242 2.44727 33.3457 1.95508 32.1562 1.95508L28.6152 1.95508Z" fill="black" fill-opacity="0.85"/>
 </g>
</svg>
