<?xml version="1.0" encoding="UTF-8"?>
<!--Generator: Apple Native CoreSVG 326-->
<!DOCTYPE svg
PUBLIC "-//W3C//DTD SVG 1.1//EN"
       "http://www.w3.org/Graphics/SVG/1.1/DTD/svg11.dtd">
<svg version="1.1" xmlns="http://www.w3.org/2000/svg" xmlns:xlink="http://www.w3.org/1999/xlink" viewBox="0 0 42.5742 25.1973">
 <g>
  <rect height="25.1973" opacity="0" width="42.5742" x="0" y="0"/>
  <path d="M31.8418 20.959C31.8418 23.7754 30.4199 25.1973 27.5488 25.1973L8.87305 25.1973C6.0293 25.1973 4.58008 23.7891 4.58008 20.959L4.58008 15.4355L6.78125 15.4355L6.78125 21.082C6.78125 22.3535 7.46484 22.9961 8.68164 22.9961L27.7402 22.9961C28.9434 22.9961 29.6406 22.3535 29.6406 21.082L29.6406 15.4355L31.8418 15.4355ZM31.8418 4.26562L31.8418 9.77539L29.6406 9.77539L29.6406 4.14258C29.6406 2.87109 28.9434 2.22852 27.7402 2.22852L8.68164 2.22852C7.46484 2.22852 6.78125 2.87109 6.78125 4.14258L6.78125 9.77539L4.58008 9.77539L4.58008 4.26562C4.58008 1.43555 6.0293 0.0273438 8.87305 0.0273438L27.5488 0.0273438C30.4199 0.0273438 31.8418 1.44922 31.8418 4.26562Z" fill="black" fill-opacity="0.5"/>
  <path d="M37.4199 23.4062C37.4199 24.3223 36.6816 25.0742 35.7656 25.0742C34.8496 25.0742 34.0977 24.3223 34.0977 23.4062C34.0977 22.4902 34.8496 21.752 35.7656 21.752C36.6816 21.752 37.4199 22.4902 37.4199 23.4062Z" fill="black" fill-opacity="0.25"/>
  <path d="M37.4199 17.9922C37.4199 18.9082 36.6816 19.6465 35.7656 19.6465C34.8496 19.6465 34.0977 18.9082 34.0977 17.9922C34.0977 17.0625 34.8496 16.3242 35.7656 16.3242C36.6816 16.3242 37.4199 17.0625 37.4199 17.9922Z" fill="black" fill-opacity="0.25"/>
  <path d="M37.4199 7.15039C37.4199 8.06641 36.6816 8.81836 35.7656 8.81836C34.8496 8.81836 34.0977 8.06641 34.0977 7.15039C34.0977 6.23438 34.8496 5.49609 35.7656 5.49609C36.6816 5.49609 37.4199 6.23438 37.4199 7.15039Z" fill="black" fill-opacity="0.25"/>
  <path d="M37.4199 1.72266C37.4199 2.65234 36.6816 3.39062 35.7656 3.39062C34.8496 3.39062 34.0977 2.65234 34.0977 1.72266C34.0977 0.806641 34.8496 0.0683594 35.7656 0.0683594C36.6816 0.0683594 37.4199 0.806641 37.4199 1.72266Z" fill="black" fill-opacity="0.25"/>
  <path d="M35.7656 14.4512C36.791 14.4512 37.625 13.6172 37.625 12.5918C37.625 11.5664 36.791 10.7324 35.7656 10.7324C35.0957 10.7324 34.4941 11.0879 34.166 11.6484L4.58008 11.6484C4.04688 11.6484 3.62305 12.0723 3.62305 12.6055C3.62305 13.1387 4.04688 13.5762 4.58008 13.5762L34.1934 13.5762C34.5215 14.1094 35.0957 14.4512 35.7656 14.4512Z" fill="#ff3b30"/>
 </g>
</svg>
