<?xml version="1.0" encoding="UTF-8"?>
<!--Generator: Apple Native CoreSVG 326-->
<!DOCTYPE svg
PUBLIC "-//W3C//DTD SVG 1.1//EN"
       "http://www.w3.org/Graphics/SVG/1.1/DTD/svg11.dtd">
<svg version="1.1" xmlns="http://www.w3.org/2000/svg" xmlns:xlink="http://www.w3.org/1999/xlink" viewBox="0 0 44.625 28.916">
 <g>
  <rect height="28.916" opacity="0" width="44.625" x="0" y="0"/>
  <path d="M35.752 6.125L35.752 7.67037C35.3456 7.56984 34.9238 7.51953 34.4941 7.51953C33.5907 7.51953 32.7241 7.74346 31.9516 8.15116C31.8563 8.13964 31.7553 8.13477 31.6504 8.13477L12.5918 8.13477C11.375 8.13477 10.7051 8.79102 10.7051 10.0488L10.7051 22.9414C10.7051 24.2129 11.375 24.8555 12.5918 24.8555L24.451 24.8555C24.3897 25.1551 24.3633 25.452 24.3633 25.7441C24.3633 26.2246 24.4599 26.6661 24.6387 27.0566L12.7969 27.0566C9.93945 27.0566 8.50391 25.6484 8.50391 22.8184L8.50391 6.125C8.50391 3.29492 9.93945 1.88672 12.7969 1.88672L31.4727 1.88672C34.3301 1.88672 35.752 3.30859 35.752 6.125ZM16.3652 20.5625L16.3652 21.3691C16.3652 21.8477 16.2148 21.998 15.7227 21.998L14.9297 21.998C14.4375 21.998 14.2871 21.8477 14.2871 21.3691L14.2871 20.5625C14.2871 20.084 14.4375 19.9473 14.9297 19.9473L15.7227 19.9473C16.2148 19.9473 16.3652 20.084 16.3652 20.5625ZM20.9043 20.5625L20.9043 21.3691C20.9043 21.8477 20.7539 21.998 20.2754 21.998L19.4688 21.998C18.9902 21.998 18.8262 21.8477 18.8262 21.3691L18.8262 20.5625C18.8262 20.084 18.9902 19.9473 19.4688 19.9473L20.2754 19.9473C20.7539 19.9473 20.9043 20.084 20.9043 20.5625ZM25.457 20.5625L25.457 21.3691C25.457 21.8477 25.293 21.998 24.8145 21.998L24.0078 21.998C23.5293 21.998 23.3652 21.8477 23.3652 21.3691L23.3652 20.5625C23.3652 20.084 23.5293 19.9473 24.0078 19.9473L24.8145 19.9473C25.293 19.9473 25.457 20.084 25.457 20.5625ZM16.3652 16.0918L16.3652 16.8984C16.3652 17.377 16.2148 17.5137 15.7227 17.5137L14.9297 17.5137C14.4375 17.5137 14.2871 17.377 14.2871 16.8984L14.2871 16.0918C14.2871 15.6133 14.4375 15.4766 14.9297 15.4766L15.7227 15.4766C16.2148 15.4766 16.3652 15.6133 16.3652 16.0918ZM20.9043 16.0918L20.9043 16.8984C20.9043 17.377 20.7539 17.5137 20.2754 17.5137L19.4688 17.5137C18.9902 17.5137 18.8262 17.377 18.8262 16.8984L18.8262 16.0918C18.8262 15.6133 18.9902 15.4766 19.4688 15.4766L20.2754 15.4766C20.7539 15.4766 20.9043 15.6133 20.9043 16.0918ZM25.457 16.0918L25.457 16.8984C25.457 17.377 25.293 17.5137 24.8145 17.5137L24.0078 17.5137C23.5293 17.5137 23.3652 17.377 23.3652 16.8984L23.3652 16.0918C23.3652 15.6133 23.5293 15.4766 24.0078 15.4766L24.8145 15.4766C25.293 15.4766 25.457 15.6133 25.457 16.0918ZM29.8851 17.352C29.7878 17.4716 29.6191 17.5137 29.3535 17.5137L28.5469 17.5137C28.0684 17.5137 27.918 17.377 27.918 16.8984L27.918 16.0918C27.918 15.6133 28.0684 15.4766 28.5469 15.4766L28.963 15.4766C29.1663 16.1638 29.4799 16.7977 29.8851 17.352ZM20.9043 11.6211L20.9043 12.4277C20.9043 12.9062 20.7539 13.043 20.2754 13.043L19.4688 13.043C18.9902 13.043 18.8262 12.9062 18.8262 12.4277L18.8262 11.6211C18.8262 11.1426 18.9902 10.9922 19.4688 10.9922L20.2754 10.9922C20.7539 10.9922 20.9043 11.1426 20.9043 11.6211ZM25.457 11.6211L25.457 12.4277C25.457 12.9062 25.293 13.043 24.8145 13.043L24.0078 13.043C23.5293 13.043 23.3652 12.9062 23.3652 12.4277L23.3652 11.6211C23.3652 11.1426 23.5293 10.9922 24.0078 10.9922L24.8145 10.9922C25.293 10.9922 25.457 11.1426 25.457 11.6211ZM28.7258 13.043L28.5469 13.043C28.0684 13.043 27.918 12.9062 27.918 12.4277L27.918 11.6211C27.918 11.1426 28.0684 10.9922 28.5469 10.9922L29.2718 10.9922C28.9784 11.6172 28.7898 12.3084 28.7258 13.043Z" fill="black" fill-opacity="0.85"/>
  <path d="M27.8906 27.043L41.084 27.043C42.123 27.043 42.752 26.5645 42.752 25.7441C42.752 23.2012 39.5938 19.7012 34.4941 19.7012C29.3809 19.7012 26.2227 23.2012 26.2227 25.7441C26.2227 26.5645 26.8516 27.043 27.8906 27.043ZM34.4941 17.9512C36.5996 17.9512 38.4316 16.0645 38.4316 13.6035C38.4316 11.1836 36.5859 9.39258 34.4941 9.39258C32.4023 9.39258 30.5703 11.2109 30.5703 13.6309C30.5703 16.0645 32.3887 17.9512 34.4941 17.9512Z" fill="black" fill-opacity="0.85"/>
 </g>
</svg>
