<?xml version="1.0" encoding="UTF-8"?>
<!--Generator: Apple Native CoreSVG 326-->
<!DOCTYPE svg
PUBLIC "-//W3C//DTD SVG 1.1//EN"
       "http://www.w3.org/Graphics/SVG/1.1/DTD/svg11.dtd">
<svg version="1.1" xmlns="http://www.w3.org/2000/svg" xmlns:xlink="http://www.w3.org/1999/xlink" viewBox="0 0 27.125 26.7832">
 <g>
  <rect height="26.7832" opacity="0" width="27.125" x="0" y="0"/>
  <path d="M1.09375 8.72266C1.81836 8.72266 2.20117 8.3125 2.20117 7.60156L2.20117 4.375C2.20117 2.95312 2.95312 2.22852 4.32031 2.22852L7.62891 2.22852C8.35352 2.22852 8.75 1.83203 8.75 1.12109C8.75 0.410156 8.35352 0.0273438 7.62891 0.0273438L4.29297 0.0273438C1.43555 0.0273438 0 1.43555 0 4.25195L0 7.60156C0 8.3125 0.396484 8.72266 1.09375 8.72266ZM25.6621 8.72266C26.3867 8.72266 26.7695 8.3125 26.7695 7.60156L26.7695 4.25195C26.7695 1.43555 25.334 0.0273438 22.4766 0.0273438L19.127 0.0273438C18.416 0.0273438 18.0195 0.410156 18.0195 1.12109C18.0195 1.83203 18.416 2.22852 19.127 2.22852L22.4355 2.22852C23.7891 2.22852 24.5684 2.95312 24.5684 4.375L24.5684 7.60156C24.5684 8.3125 24.9648 8.72266 25.6621 8.72266ZM4.29297 26.7832L7.62891 26.7832C8.35352 26.7832 8.75 26.3867 8.75 25.6895C8.75 24.9785 8.35352 24.582 7.62891 24.582L4.32031 24.582C2.95312 24.582 2.20117 23.8574 2.20117 22.4355L2.20117 19.209C2.20117 18.4844 1.80469 18.0879 1.09375 18.0879C0.382812 18.0879 0 18.4844 0 19.209L0 22.5449C0 25.375 1.43555 26.7832 4.29297 26.7832ZM19.127 26.7832L22.4766 26.7832C25.334 26.7832 26.7695 25.3613 26.7695 22.5449L26.7695 19.209C26.7695 18.4844 26.373 18.0879 25.6621 18.0879C24.9512 18.0879 24.5684 18.4844 24.5684 19.209L24.5684 22.4355C24.5684 23.8574 23.7891 24.582 22.4355 24.582L19.127 24.582C18.416 24.582 18.0195 24.9785 18.0195 25.6895C18.0195 26.3867 18.416 26.7832 19.127 26.7832Z" fill="black" fill-opacity="0.85"/>
  <path d="M7.28711 19.5781L19.4961 19.5781C20.9316 19.5781 21.6699 18.8672 21.6699 17.4453L21.6699 10.2266C21.6699 8.77734 20.9316 8.06641 19.4961 8.06641L17.7188 8.06641C17.1855 8.06641 17.0215 7.9707 16.707 7.61523L16.1465 7C15.8047 6.61719 15.4492 6.42578 14.752 6.42578L11.9902 6.42578C11.2793 6.42578 10.9238 6.61719 10.582 7L10.0215 7.61523C9.70703 7.95703 9.54297 8.06641 9.00977 8.06641L7.28711 8.06641C5.83789 8.06641 5.11328 8.77734 5.11328 10.2266L5.11328 17.4453C5.11328 18.8672 5.83789 19.5781 7.28711 19.5781ZM13.4121 17.8691C11.1289 17.8691 9.29688 16.0508 9.29688 13.7539C9.29688 11.4844 11.1289 9.66602 13.4121 9.66602C15.668 9.66602 17.4863 11.4844 17.4863 13.7539C17.4863 16.0918 15.668 17.8691 13.4121 17.8691ZM13.3984 16.6797C14.998 16.6797 16.3105 15.3945 16.3105 13.7539C16.3105 12.1406 14.998 10.8418 13.3984 10.8418C11.7852 10.8418 10.4727 12.1406 10.4727 13.7539C10.4727 15.3945 11.7852 16.6797 13.3984 16.6797ZM19.1133 11.5938C18.6074 11.5938 18.1973 11.1699 18.1973 10.6641C18.1973 10.1582 18.6074 9.74805 19.1133 9.74805C19.6328 9.74805 20.043 10.1582 20.043 10.6641C20.043 11.1699 19.6328 11.5938 19.1133 11.5938Z" fill="black" fill-opacity="0.85"/>
 </g>
</svg>
