<?xml version="1.0" encoding="UTF-8"?>
<!--Generator: Apple Native CoreSVG 326-->
<!DOCTYPE svg
PUBLIC "-//W3C//DTD SVG 1.1//EN"
       "http://www.w3.org/Graphics/SVG/1.1/DTD/svg11.dtd">
<svg version="1.1" xmlns="http://www.w3.org/2000/svg" xmlns:xlink="http://www.w3.org/1999/xlink" viewBox="0 0 32.5938 25.1699">
 <g>
  <rect height="25.1699" opacity="0" width="32.5938" x="0" y="0"/>
  <path d="M4.29297 25.1699L15.2031 25.1699L15.2031 22.9688L4.32031 22.9688C2.95312 22.9688 2.20117 22.2441 2.20117 20.8223L2.20117 13.5215L0 13.5215L0 20.9453C0 23.7617 1.43555 25.1699 4.29297 25.1699ZM17.0762 25.1699L27.9453 25.1699C30.8164 25.1699 32.2383 23.7617 32.2383 20.9453L32.2383 13.5215L30.0371 13.5215L30.0371 20.8223C30.0371 22.2441 29.2715 22.9688 27.918 22.9688L17.0762 22.9688ZM30.0371 11.6621L32.2383 11.6621L32.2383 4.23828C32.2383 1.42188 30.8164 0 27.9453 0L17.0762 0L17.0762 2.20117L27.918 2.20117C29.2715 2.20117 30.0371 2.93945 30.0371 4.36133ZM0 11.6621L2.20117 11.6621L2.20117 4.36133C2.20117 2.93945 2.95312 2.20117 4.32031 2.20117L15.2031 2.20117L15.2031 0L4.29297 0C1.43555 0 0 1.42188 0 4.23828Z" fill="black" fill-opacity="0.85"/>
  <path d="M16.1465 17.0898C18.6484 17.0898 20.6719 15.0664 20.6719 12.5781C20.6719 10.0762 18.6484 8.05273 16.1465 8.05273C13.6582 8.05273 11.6211 10.0762 11.6211 12.5781C11.6211 15.0664 13.6582 17.0898 16.1465 17.0898Z" fill="black" fill-opacity="0.85"/>
 </g>
</svg>
