<?xml version="1.0" encoding="UTF-8"?>
<!--Generator: Apple Native CoreSVG 326-->
<!DOCTYPE svg
PUBLIC "-//W3C//DTD SVG 1.1//EN"
       "http://www.w3.org/Graphics/SVG/1.1/DTD/svg11.dtd">
<svg version="1.1" xmlns="http://www.w3.org/2000/svg" xmlns:xlink="http://www.w3.org/1999/xlink" viewBox="0 0 33.9336 26.9473">
 <g>
  <rect height="26.9473" opacity="0" width="33.9336" x="0" y="0"/>
  <path d="M28.3281 10.4863C27.3984 10.4863 26.6328 9.7207 26.6328 8.79102C26.6328 7.84766 27.3984 7.0957 28.3281 7.0957C29.2715 7.0957 30.0371 7.84766 30.0371 8.79102C30.0371 9.7207 29.2715 10.4863 28.3281 10.4863ZM4.29297 26.0723L29.2852 26.0723C32.1289 26.0723 33.5781 24.6504 33.5781 21.834L33.5781 7.51953C33.5781 4.70312 32.1289 3.29492 29.2852 3.29492L25.375 3.29492C24.2949 3.29492 23.9668 3.07617 23.3516 2.39258L22.2578 1.16211C21.5742 0.410156 20.877 0 19.4688 0L14.0137 0C12.6055 0 11.9082 0.410156 11.2246 1.16211L10.1309 2.39258C9.51562 3.0625 9.17383 3.29492 8.10742 3.29492L4.29297 3.29492C1.43555 3.29492 0 4.70312 0 7.51953L0 21.834C0 24.6504 1.43555 26.0723 4.29297 26.0723ZM16.7891 22.0391C12.6465 22.0391 9.32422 18.7305 9.32422 14.5605C9.32422 10.4043 12.6465 7.0957 16.7891 7.0957C20.9316 7.0957 24.2402 10.4043 24.2402 14.5605C24.2402 18.7305 20.918 22.0391 16.7891 22.0391ZM16.7891 19.9609C19.7695 19.9609 22.1758 17.5684 22.1758 14.5605C22.1758 11.5664 19.7695 9.16016 16.7891 9.16016C13.8086 9.16016 11.3887 11.5664 11.3887 14.5605C11.3887 17.5684 13.8223 19.9609 16.7891 19.9609Z" fill="black" fill-opacity="0.85"/>
 </g>
</svg>
