<?xml version="1.0" encoding="UTF-8"?>
<!--Generator: Apple Native CoreSVG 326-->
<!DOCTYPE svg
PUBLIC "-//W3C//DTD SVG 1.1//EN"
       "http://www.w3.org/Graphics/SVG/1.1/DTD/svg11.dtd">
<svg version="1.1" xmlns="http://www.w3.org/2000/svg" xmlns:xlink="http://www.w3.org/1999/xlink" viewBox="0 0 32.5938 25.1699">
 <g>
  <rect height="25.1699" opacity="0" width="32.5938" x="0" y="0"/>
  <path d="M4.29297 25.1699L15.2031 25.1699L15.2031 22.9688L4.32031 22.9688C2.95312 22.9688 2.20117 22.2441 2.20117 20.8223L2.20117 13.5215L0 13.5215L0 20.9453C0 23.7617 1.43555 25.1699 4.29297 25.1699ZM17.0762 25.1699L27.9453 25.1699C30.8164 25.1699 32.2383 23.7617 32.2383 20.9453L32.2383 13.5215L30.0371 13.5215L30.0371 20.8223C30.0371 22.2441 29.2715 22.9688 27.918 22.9688L17.0762 22.9688ZM30.0371 11.6621L32.2383 11.6621L32.2383 4.23828C32.2383 1.42188 30.8164 0 27.9453 0L17.0762 0L17.0762 2.20117L27.918 2.20117C29.2715 2.20117 30.0371 2.93945 30.0371 4.36133ZM0 11.6621L2.20117 11.6621L2.20117 4.36133C2.20117 2.93945 2.95312 2.20117 4.32031 2.20117L15.2031 2.20117L15.2031 0L4.29297 0C1.43555 0 0 1.42188 0 4.23828Z" fill="black" fill-opacity="0.85"/>
  <path d="M15.873 15.4082C16.5566 15.4082 16.9805 14.9707 16.9805 14.4375C16.9805 14.3828 16.9805 14.3145 16.9805 14.2734C16.9805 13.5078 17.418 13.0156 18.375 12.3867C19.7012 11.5117 20.6445 10.7188 20.6445 9.07812C20.6445 6.80859 18.6211 5.57812 16.2969 5.57812C13.9453 5.57812 12.4004 6.69922 12.0312 7.95703C11.9629 8.17578 11.9219 8.39453 11.9219 8.62695C11.9219 9.24219 12.4004 9.57031 12.8516 9.57031C13.3164 9.57031 13.6172 9.35156 13.8633 9.02344L14.1094 8.69531C14.5879 7.90234 15.2988 7.4375 16.2148 7.4375C17.459 7.4375 18.2656 8.14844 18.2656 9.1875C18.2656 10.1172 17.6914 10.5684 16.4883 11.4023C15.5176 12.0859 14.7793 12.8105 14.7793 14.1504C14.7793 14.2051 14.7793 14.2734 14.7793 14.3281C14.7793 15.0391 15.1758 15.4082 15.873 15.4082ZM15.8457 19.4824C16.6387 19.4824 17.3223 18.8535 17.3223 18.0605C17.3223 17.2676 16.6523 16.6387 15.8457 16.6387C15.0391 16.6387 14.3691 17.2812 14.3691 18.0605C14.3691 18.8398 15.0527 19.4824 15.8457 19.4824Z" fill="black" fill-opacity="0.85"/>
 </g>
</svg>
