<?xml version="1.0" encoding="UTF-8"?>
<!--Generator: Apple Native CoreSVG 326-->
<!DOCTYPE svg
PUBLIC "-//W3C//DTD SVG 1.1//EN"
       "http://www.w3.org/Graphics/SVG/1.1/DTD/svg11.dtd">
<svg version="1.1" xmlns="http://www.w3.org/2000/svg" xmlns:xlink="http://www.w3.org/1999/xlink" viewBox="0 0 35.7793 28.6699">
 <g>
  <rect height="28.6699" opacity="0" width="35.7793" x="0" y="0"/>
  <path d="M28.5195 4.26562L28.5195 7.59234C28.0999 7.50499 27.8338 7.30674 27.4531 6.89062L26.4688 5.82422C26.4185 5.76908 26.3685 5.71607 26.3184 5.66578L26.3184 4.38867C26.3184 2.9668 25.5527 2.22852 24.1992 2.22852L4.32031 2.22852C2.98047 2.22852 2.20117 2.9668 2.20117 4.38867L2.20117 17.9785C2.20117 19.4004 2.95312 20.1387 4.32031 20.1387L6.9043 20.1387L6.9043 22.3398L4.29297 22.3398C1.42188 22.3398 0 20.918 0 18.1016L0 4.26562C0 1.44922 1.42188 0.0273438 4.29297 0.0273438L24.2402 0.0273438C27.0977 0.0273438 28.5195 1.44922 28.5195 4.26562Z" fill="black" fill-opacity="0.85"/>
  <path d="M11.1973 28.6699L31.1445 28.6699C34.002 28.6699 35.4238 27.248 35.4238 24.4316L35.4238 11.8809C35.4238 9.06445 34.002 7.65625 31.1445 7.65625L29.3809 7.65625C28.3555 7.65625 28.041 7.5332 27.4531 6.89062L26.4688 5.82422C25.7715 5.05859 25.1016 4.70312 24.0352 4.70312L18.3066 4.70312C17.2266 4.70312 16.5703 5.05859 15.8594 5.82422L14.8887 6.89062C14.2871 7.5332 13.9727 7.65625 12.9473 7.65625L11.1973 7.65625C8.32617 7.65625 6.9043 9.06445 6.9043 11.8809L6.9043 24.4316C6.9043 27.248 8.32617 28.6699 11.1973 28.6699ZM11.2246 26.4688C9.85742 26.4688 9.10547 25.7305 9.10547 24.3086L9.10547 12.0039C9.10547 10.582 9.85742 9.85742 11.2246 9.85742L13.4805 9.85742C14.6562 9.85742 15.3809 9.61133 16.0781 8.85938L17.2539 7.56055C17.6914 7.10938 18.1016 6.9043 18.8398 6.9043L23.4883 6.9043C24.2402 6.9043 24.6367 7.10938 25.0742 7.56055L26.2637 8.85938C26.9609 9.61133 27.6719 9.85742 28.8477 9.85742L31.1035 9.85742C32.4707 9.85742 33.2227 10.582 33.2227 12.0039L33.2227 24.3086C33.2227 25.7305 32.4707 26.4688 31.1035 26.4688ZM21.1777 24.623C24.8281 24.623 27.7949 21.6699 27.7949 17.9922C27.7949 14.3418 24.8281 11.375 21.1777 11.375C17.5137 11.375 14.5605 14.3418 14.5605 17.9922C14.5605 21.6699 17.5137 24.623 21.1777 24.623ZM21.1777 22.5312C18.6895 22.5312 16.6523 20.4941 16.6523 17.9922C16.6523 15.5039 18.6895 13.4805 21.1777 13.4805C23.666 13.4805 25.6895 15.5039 25.6895 17.9922C25.6895 20.4941 23.666 22.5312 21.1777 22.5312ZM30.0645 14.6836C30.8984 14.6836 31.5547 14.0137 31.5547 13.1934C31.5547 12.373 30.8984 11.6895 30.0645 11.6895C29.2441 11.6895 28.5605 12.373 28.5605 13.1934C28.5605 14.0137 29.2441 14.6836 30.0645 14.6836Z" fill="black" fill-opacity="0.85"/>
 </g>
</svg>
