<?xml version="1.0" encoding="UTF-8"?>
<!--Generator: Apple Native CoreSVG 326-->
<!DOCTYPE svg
PUBLIC "-//W3C//DTD SVG 1.1//EN"
       "http://www.w3.org/Graphics/SVG/1.1/DTD/svg11.dtd">
<svg version="1.1" xmlns="http://www.w3.org/2000/svg" xmlns:xlink="http://www.w3.org/1999/xlink" viewBox="0 0 30.502 28.7246">
 <g>
  <rect height="28.7246" opacity="0" width="30.502" x="0" y="0"/>
  <path d="M5.90897 12.6624C3.68077 13.9426 2.1875 16.3453 2.1875 19.0859C2.1875 23.2148 5.50977 26.5371 9.625 26.5371C10.9918 26.5371 12.2735 26.1667 13.3709 25.514C13.8718 26.088 14.4467 26.5941 15.0779 27.0245C13.53 28.0977 11.6509 28.7246 9.625 28.7246C4.32031 28.7246 0 24.4043 0 19.0859C0 15.277 2.23893 11.9712 5.47788 10.4279C5.52581 11.2042 5.67502 11.9523 5.90897 12.6624ZM19.25 19.0859C19.25 21.5592 18.3186 23.8167 16.7792 25.5168C16.1389 25.1516 15.5631 24.6884 15.0716 24.1457C16.3005 22.8309 17.0523 21.066 17.0606 19.1251C17.8182 18.9683 18.5424 18.7202 19.2169 18.3845ZM18.7797 16.1509C18.1575 16.5176 17.474 16.7898 16.7475 16.9498C16.4185 15.853 15.8398 14.8646 15.0764 14.0495C15.567 13.5099 16.1414 13.0484 16.7798 12.6841C17.6769 13.6732 18.3678 14.8503 18.7797 16.1509ZM15.0749 11.1754C14.4448 11.6047 13.8709 12.1092 13.3708 12.6811C12.2734 12.031 10.9917 11.6621 9.625 11.6621C9.04708 11.6621 8.4848 11.7279 7.94773 11.8587C7.7394 11.1787 7.62891 10.456 7.62891 9.70703C7.62891 9.69981 7.62892 9.6926 7.62999 9.68564C8.27317 9.54646 8.9409 9.47461 9.625 9.47461C11.647 9.47461 13.5261 10.1023 15.0749 11.1754Z" fill="black" fill-opacity="0.85"/>
  <path d="M30.1465 19.0859C30.1465 24.4043 25.8262 28.7246 20.5352 28.7246C15.2168 28.7246 10.8965 24.4043 10.8965 19.0859C10.8965 18.8492 10.9051 18.6144 10.9321 18.3845C11.6059 18.719 12.3292 18.9664 13.0858 19.123C13.1042 23.2349 16.4324 26.5371 20.5352 26.5371C24.6504 26.5371 27.959 23.2012 27.959 19.0859C27.959 16.333 26.4561 13.9311 24.2281 12.6548C24.4605 11.9443 24.6086 11.1957 24.6555 10.419C27.8991 11.9587 30.1465 15.2698 30.1465 19.0859ZM22.5025 9.6797C22.5039 9.68858 22.5039 9.6978 22.5039 9.70703C22.5039 10.4543 22.3944 11.1754 22.1876 11.854C21.6575 11.7264 21.1036 11.6621 20.5352 11.6621C17.1677 11.6621 14.3221 13.8958 13.402 16.9486C12.6726 16.788 11.9865 16.5152 11.3621 16.1477C12.607 12.2838 16.2466 9.47461 20.5352 9.47461C21.2092 9.47461 21.8675 9.54473 22.5025 9.6797Z" fill="black" fill-opacity="0.85"/>
  <path d="M15.0801 19.332C20.3848 19.332 24.6914 15.0254 24.6914 9.70703C24.6914 4.40234 20.3848 0.0820312 15.0801 0.0820312C9.76172 0.0820312 5.44141 4.40234 5.44141 9.70703C5.44141 15.0254 9.76172 19.332 15.0801 19.332ZM15.0801 17.1445C10.9648 17.1445 7.62891 13.8223 7.62891 9.70703C7.62891 5.60547 10.9648 2.26953 15.0801 2.26953C19.168 2.26953 22.5039 5.60547 22.5039 9.70703C22.5039 13.8223 19.1816 17.1445 15.0801 17.1445Z" fill="black" fill-opacity="0.85"/>
 </g>
</svg>
