<?xml version="1.0" encoding="UTF-8"?>
<!--Generator: Apple Native CoreSVG 326-->
<!DOCTYPE svg
PUBLIC "-//W3C//DTD SVG 1.1//EN"
       "http://www.w3.org/Graphics/SVG/1.1/DTD/svg11.dtd">
<svg version="1.1" xmlns="http://www.w3.org/2000/svg" xmlns:xlink="http://www.w3.org/1999/xlink" viewBox="0 0 38.0488 31.5137">
 <g>
  <rect height="31.5137" opacity="0" width="38.0488" x="0" y="0"/>
  <path d="M28.7656 6.13867L28.7656 6.7572C27.5892 6.45564 26.3197 6.30273 24.9785 6.30273L18.7441 6.30273C11.0195 6.30273 5.6875 11.375 5.6875 18.9082C5.6875 20.4803 5.91829 21.9445 6.3659 23.2695L5.79688 23.2695C2.93945 23.2695 1.50391 21.8613 1.50391 19.0312L1.50391 6.13867C1.50391 3.32227 2.93945 1.90039 5.79688 1.90039L24.4727 1.90039C27.3438 1.90039 28.7656 3.32227 28.7656 6.13867Z" fill="black" fill-opacity="0.85"/>
  <path d="M18.7441 29.6406L24.9785 29.6406C31.6914 29.6406 36.1758 25.4023 36.1758 18.9082C36.1758 12.4277 31.6914 8.16211 24.9785 8.16211L18.7441 8.16211C12.0176 8.16211 7.54688 12.4277 7.54688 18.9082C7.54688 25.4023 12.0176 29.6406 18.7441 29.6406Z" fill="black" fill-opacity="0.85"/>
 </g>
</svg>
