<?xml version="1.0" encoding="UTF-8"?>
<!--Generator: Apple Native CoreSVG 326-->
<!DOCTYPE svg
PUBLIC "-//W3C//DTD SVG 1.1//EN"
       "http://www.w3.org/Graphics/SVG/1.1/DTD/svg11.dtd">
<svg version="1.1" xmlns="http://www.w3.org/2000/svg" xmlns:xlink="http://www.w3.org/1999/xlink" viewBox="0 0 30.4883 30.0371">
 <g>
  <rect height="30.0371" opacity="0" width="30.4883" x="0" y="0"/>
  <path d="M8.4082 30.0371C9.07812 30.0371 9.54297 29.6816 10.377 28.9434L15.0938 24.7461L23.8711 24.7461C27.9453 24.7461 30.1328 22.4902 30.1328 18.4844L30.1328 8.01172C30.1328 4.00586 27.9453 1.75 23.8711 1.75L6.26172 1.75C2.1875 1.75 0 3.99219 0 8.01172L0 18.4844C0 22.5039 2.1875 24.7461 6.26172 24.7461L6.91797 24.7461L6.91797 28.3008C6.91797 29.3535 7.45117 30.0371 8.4082 30.0371ZM8.96875 27.5352L8.96875 23.5703C8.96875 22.832 8.68164 22.5449 7.94336 22.5449L6.26172 22.5449C3.5 22.5449 2.20117 21.1367 2.20117 18.4707L2.20117 8.01172C2.20117 5.3457 3.5 3.95117 6.26172 3.95117L23.8711 3.95117C26.6191 3.95117 27.9316 5.3457 27.9316 8.01172L27.9316 18.4707C27.9316 21.1367 26.6191 22.5449 23.8711 22.5449L15.0117 22.5449C14.2461 22.5449 13.8633 22.6543 13.3438 23.1875Z" fill="black" fill-opacity="0.85"/>
  <path d="M6.42578 14.834L12.0586 14.834C12.4961 14.834 12.8516 14.4785 12.8516 14.0273C12.8516 13.6035 12.4961 13.248 12.0586 13.248L6.42578 13.248C5.98828 13.248 5.63281 13.6035 5.63281 14.0273C5.63281 14.4785 5.98828 14.834 6.42578 14.834ZM14.8887 14.834L23.7344 14.834C24.1719 14.834 24.5137 14.4785 24.5137 14.0273C24.5137 13.6035 24.1719 13.248 23.7344 13.248L14.8887 13.248C14.4512 13.248 14.0957 13.6035 14.0957 14.0273C14.0957 14.4785 14.4512 14.834 14.8887 14.834ZM6.42578 18.4023L8.75 18.4023C9.1875 18.4023 9.5293 18.0605 9.5293 17.623C9.5293 17.1719 9.1875 16.8164 8.75 16.8164L6.42578 16.8164C5.98828 16.8164 5.63281 17.1719 5.63281 17.623C5.63281 18.0605 5.98828 18.4023 6.42578 18.4023ZM11.5664 18.4023L18.416 18.4023C18.8535 18.4023 19.209 18.0605 19.209 17.623C19.209 17.1719 18.8535 16.8164 18.416 16.8164L11.5664 16.8164C11.1289 16.8164 10.7871 17.1719 10.7871 17.623C10.7871 18.0605 11.1289 18.4023 11.5664 18.4023ZM21.2461 18.4023L23.7344 18.4023C24.1719 18.4023 24.5137 18.0605 24.5137 17.623C24.5137 17.1719 24.1719 16.8164 23.7344 16.8164L21.2461 16.8164C20.8086 16.8164 20.4531 17.1719 20.4531 17.623C20.4531 18.0605 20.8086 18.4023 21.2461 18.4023Z" fill="black" fill-opacity="0.85"/>
 </g>
</svg>
