<?xml version="1.0" encoding="UTF-8"?>
<!--Generator: Apple Native CoreSVG 326-->
<!DOCTYPE svg
PUBLIC "-//W3C//DTD SVG 1.1//EN"
       "http://www.w3.org/Graphics/SVG/1.1/DTD/svg11.dtd">
<svg version="1.1" xmlns="http://www.w3.org/2000/svg" xmlns:xlink="http://www.w3.org/1999/xlink" viewBox="0 0 38.6504 35.3145">
 <g>
  <rect height="35.3145" opacity="0" width="38.6504" x="0" y="0"/>
  <path d="M19.1406 35.3008C26.0449 35.3008 28.998 33.7832 28.998 30.0645L28.998 6.33008C28.998 2.33789 25.3613 0 19.1406 0C12.9336 0 9.31055 2.33789 9.31055 6.33008L9.31055 30.0645C9.31055 33.7832 12.25 35.3008 19.1406 35.3008ZM19.1406 33.0312C13.8633 33.0312 11.5938 32.1426 11.5938 29.9551L11.5938 6.33008C11.5938 3.77344 14.3691 2.2832 19.1406 2.2832C23.9258 2.2832 26.7148 3.77344 26.7148 6.33008L26.7148 29.9551C26.7148 32.1426 24.4316 33.0312 19.1406 33.0312ZM19.1543 14.6836C20.3711 14.6836 22.4492 14.7793 23.1328 14.7793C24.1719 14.7793 24.6094 14.3828 24.7051 13.3164L24.9375 10.7461C25.1016 8.77734 23.7207 7.98438 19.1543 7.98438C14.5879 7.98438 13.1934 8.77734 13.3711 10.7461L13.6035 13.3164C13.6855 14.3828 14.1367 14.7793 15.1621 14.7793C15.8594 14.7793 17.8555 14.6836 19.1543 14.6836ZM19.1543 29.2715C23.748 29.2715 25.1562 28.5879 24.8691 26.5781L24.6914 25.334C24.4727 23.6934 23.1055 23.1465 19.1543 23.1465C15.1895 23.1465 13.8223 23.6934 13.6035 25.334L13.4258 26.5781C13.1523 28.5879 14.5469 29.2715 19.1543 29.2715ZM10.2402 13.7812L10.2402 10.582L8.18945 10.582C7.46484 10.582 6.89062 11.1289 6.89062 11.8398L6.89062 12.5098C6.89062 13.2207 7.46484 13.7812 8.18945 13.7812ZM28.0547 13.7812L30.1055 13.7812C30.8438 13.7812 31.4043 13.2207 31.4043 12.5098L31.4043 11.8398C31.4043 11.1289 30.8438 10.582 30.1055 10.582L28.0547 10.582Z" fill="black" fill-opacity="0.85"/>
  <path d="M38.6504 10.7461L38.6504 4.66211C38.6504 3.9375 38.0625 3.5957 37.4199 3.99219L32.5664 6.97266C31.9512 7.3418 31.9375 8.06641 32.5664 8.44922L37.4199 11.4023C38.0625 11.7988 38.6504 11.4844 38.6504 10.7461Z" fill="black" fill-opacity="0.85"/>
 </g>
</svg>
