<?xml version="1.0" encoding="UTF-8"?>
<!--Generator: Apple Native CoreSVG 326-->
<!DOCTYPE svg
PUBLIC "-//W3C//DTD SVG 1.1//EN"
       "http://www.w3.org/Graphics/SVG/1.1/DTD/svg11.dtd">
<svg version="1.1" xmlns="http://www.w3.org/2000/svg" xmlns:xlink="http://www.w3.org/1999/xlink" viewBox="0 0 35.253 32.5152">
 <g>
  <rect height="32.5152" opacity="0" width="35.253" x="0" y="0"/>
  <path d="M25.2852 26.1613L22.3365 27.4343C21.5845 27.7761 21.5025 28.405 22.1587 28.8836L24.2505 30.4148C24.6744 30.7293 24.4829 31.3855 23.9361 31.3855L21.7212 31.3855C21.2427 31.3855 20.8052 31.2488 20.4224 30.9617L19.397 30.1961C17.1958 28.5828 17.4556 26.8738 20.0533 25.7527L23.4189 24.2958ZM14.4615 19.2449L15.5005 20.0242C17.688 21.6375 17.4419 23.3464 14.8306 24.4675L8.02201 27.4207C7.27005 27.7488 7.18802 28.3914 7.84427 28.8562L9.93607 30.4011C10.3736 30.7156 10.1685 31.3718 9.62162 31.3718L7.40677 31.3718C6.94193 31.3718 6.50443 31.2351 6.12162 30.948L5.08255 30.1824C2.88138 28.5691 3.14115 26.8464 5.75248 25.7254L12.5611 22.7859C13.313 22.4441 13.3951 21.8152 12.7388 21.3367L10.647 19.8054C10.2095 19.491 10.4146 18.8347 10.9615 18.8347L13.1763 18.8347C13.6548 18.8347 14.0786 18.9714 14.4615 19.2449ZM28.7759 19.2722L29.815 20.0515C31.5767 21.3398 31.76 22.7079 30.3977 23.7767L25.4855 18.8621L27.4908 18.8621C27.9556 18.8621 28.3931 18.9851 28.7759 19.2722ZM14.3165 15.198L11.9185 15.198L11.9185 16.4832C11.9185 17.1531 11.4126 17.6589 10.7427 17.6589L9.70365 17.6589C9.02005 17.6589 8.51419 17.1531 8.51419 16.4832L8.51419 10.5222C8.51419 10.1276 8.52666 9.77316 8.56323 9.44769ZM23.9087 1.25269C25.1392 1.40308 26.1509 2.00465 26.6431 3.46754L27.5728 6.14723L28.4751 7.11793C29.4185 8.11598 29.5962 9.03199 29.5962 10.5222L29.5962 16.4832C29.5962 17.1531 29.0904 17.6589 28.4204 17.6589L27.3814 17.6589C26.6978 17.6589 26.1919 17.1531 26.1919 16.4832L26.1919 15.198L21.8233 15.198L17.9698 11.3425L21.0513 11.3425C21.5025 11.3425 21.7896 11.0418 21.7896 10.5632L21.7896 9.67457C21.7896 9.20973 21.5025 8.92262 21.0513 8.92262L17.0318 8.92262C16.5943 8.92262 16.3072 9.20973 16.3072 9.67457L16.3072 9.67906L12.8273 6.19744C12.8744 6.20948 12.9271 6.21558 12.9849 6.21558L25.1255 6.21558C25.5494 6.21558 25.6997 5.88746 25.563 5.49098L25.0025 3.82301C24.7974 3.22144 24.4693 3.01637 23.9361 2.93433C23.3208 2.86598 21.6119 2.79762 19.0552 2.79762C16.5122 2.79762 14.7759 2.86598 14.1607 2.93433C13.6275 3.01637 13.2994 3.22144 13.0943 3.82301L12.5474 5.49098C12.498 5.63431 12.4861 5.76871 12.5116 5.88159L11.1147 4.48396L11.4673 3.46754C11.9732 2.00465 12.9712 1.40308 14.2017 1.25269C14.8033 1.17066 16.7447 1.12965 19.0552 1.12965C21.3658 1.12965 23.3072 1.17066 23.9087 1.25269ZM25.522 9.4148L25.522 10.8093C25.522 11.3699 25.9322 11.7664 26.4517 11.7664C27.0122 11.7664 27.4224 11.3699 27.4224 10.8093L27.4224 9.4148C27.4224 8.86793 27.0122 8.48512 26.4517 8.48512C25.9322 8.48512 25.522 8.89527 25.522 9.4148Z" fill="#ff9500"/>
  <path d="M31.8658 30.4832C32.2759 30.8933 32.9458 30.8933 33.356 30.4832C33.7525 30.0593 33.7661 29.4031 33.356 28.9929L6.27201 1.90894C5.86185 1.49879 5.19193 1.48512 4.7681 1.90894C4.37162 2.30543 4.35794 2.98902 4.7681 3.39918Z" fill="#ff9500"/>
 </g>
</svg>
