<?xml version="1.0" encoding="UTF-8"?>
<!--Generator: Apple Native CoreSVG 326-->
<!DOCTYPE svg
PUBLIC "-//W3C//DTD SVG 1.1//EN"
       "http://www.w3.org/Graphics/SVG/1.1/DTD/svg11.dtd">
<svg version="1.1" xmlns="http://www.w3.org/2000/svg" xmlns:xlink="http://www.w3.org/1999/xlink" viewBox="0 0 49.3691 25.0332">
 <g>
  <rect height="25.0332" opacity="0" width="49.3691" x="0" y="0"/>
  <path d="M24.6777 25.0332C27.5625 25.0332 28.9707 23.666 28.9707 20.8086L28.9707 14.123C28.9707 12.168 28.4238 11.1152 26.8516 9.92578L16.2285 1.8457C14.4238 0.492188 13.0293 0.0136719 10.8008 0.0136719L4.16992 0.0136719C1.4082 0.0136719 0 1.4082 0 4.14258L0 20.8086C0 23.666 1.39453 25.0332 4.29297 25.0332ZM24.5957 12.4277L4.21094 12.4277C2.95312 12.4277 2.20117 11.7031 2.20117 10.3906L2.20117 4.25195C2.20117 2.92578 2.93945 2.21484 4.21094 2.21484L10.8008 2.21484C12.5508 2.21484 13.5625 2.51562 14.7246 3.44531L24.9102 11.2383C25.4707 11.6484 25.3203 12.4277 24.5957 12.4277Z" fill="black" fill-opacity="0.85"/>
  <path d="M35.1094 20.1113C35.5332 20.1113 35.793 19.9609 36.2168 19.5645L41.5215 14.2188L46.8125 19.5508C47.2227 19.9473 47.4824 20.0977 47.9062 20.0977C48.4941 20.0977 49.0137 19.5918 49.0137 19.0176C49.0137 18.6211 48.877 18.3613 48.5215 17.9922L43.1484 12.5781L48.5215 7.16406C48.877 6.79492 49.0137 6.53516 49.0137 6.13867C49.0137 5.56445 48.5078 5.07227 47.9199 5.07227C47.4961 5.07227 47.2363 5.22266 46.8125 5.61914L41.5078 10.9512L36.2305 5.61914C35.8203 5.22266 35.5469 5.07227 35.1367 5.07227C34.5352 5.07227 34.0293 5.56445 34.0293 6.15234C34.0293 6.5625 34.166 6.83594 34.5078 7.19141L39.8809 12.5781L34.5078 18.0059C34.1523 18.375 34.0156 18.6348 34.0156 19.0449C34.0156 19.6191 34.5215 20.1113 35.1094 20.1113Z" fill="black" fill-opacity="0.85"/>
 </g>
</svg>
