<?xml version="1.0" encoding="UTF-8"?>
<!--Generator: Apple Native CoreSVG 326-->
<!DOCTYPE svg
PUBLIC "-//W3C//DTD SVG 1.1//EN"
       "http://www.w3.org/Graphics/SVG/1.1/DTD/svg11.dtd">
<svg version="1.1" xmlns="http://www.w3.org/2000/svg" xmlns:xlink="http://www.w3.org/1999/xlink" viewBox="0 0 49.0684 40.2363">
 <g>
  <rect height="40.2363" opacity="0" width="49.0684" x="0" y="0"/>
  <path d="M42.7109 14.1367L44.8848 14.8613C47.4824 15.709 48.7129 17.2949 48.7129 19.8379L48.7129 23.625C48.7129 26.7969 47.3594 28.2188 44.3652 28.2188L43.1437 28.2188C42.4172 29.9696 40.7034 31.1719 38.6504 31.1719C36.5974 31.1719 34.8835 29.9696 34.1571 28.2188L14.5423 28.2188C13.8165 29.9696 12.1052 31.1719 10.0625 31.1719C8.00952 31.1719 6.29564 29.9696 5.56921 28.2188L4.34766 28.2188C1.38086 28.2188 0 26.8242 0 23.707L0 21.957C0 18.7305 2.2832 16.3789 6.07031 15.9141L12.127 15.1758L17.6641 11.7031C18.4138 11.2318 19.1136 10.838 19.8105 10.5142L19.8105 11.9629C19.8105 12.3105 19.8439 12.6392 19.9121 12.9439C19.5662 13.1339 19.2114 13.3442 18.8398 13.5762L13.7676 16.7754C13.1934 17.1172 12.6328 17.3086 11.8125 17.418L6.34375 18.0879C3.70508 18.4023 2.20117 19.9336 2.20117 21.957L2.20117 23.625C2.20117 25.2656 2.87109 26.0176 4.34766 26.0176L5.20997 26.0176C5.35485 23.4282 7.42986 21.4512 10.0625 21.4512C12.682 21.4512 14.7565 23.4282 14.9014 26.0176L33.7979 26.0176C33.9427 23.4282 36.0177 21.4512 38.6504 21.4512C41.283 21.4512 43.358 23.4282 43.5029 26.0176L44.3652 26.0176C45.8418 26.0176 46.5117 25.2656 46.5117 23.625L46.5117 19.8379C46.5117 18.4023 45.7871 17.5957 44.2285 17.0898L42.7793 16.625C41.959 16.3652 41.6172 16.2148 40.9746 15.6543C38.2083 13.2311 35.8625 11.8927 33.25 11.432L33.25 9.21815C37.2723 9.84723 40.3661 12.1053 42.7109 14.1367ZM7.25977 26.3184C7.25977 27.877 8.49023 29.1074 10.0625 29.1074C11.6211 29.1074 12.8516 27.877 12.8516 26.3184C12.8516 24.7461 11.6211 23.5156 10.0625 23.5156C8.49023 23.5156 7.25977 24.7461 7.25977 26.3184ZM35.8477 26.3184C35.8477 27.877 37.0918 29.1074 38.6504 29.1074C40.209 29.1074 41.4531 27.877 41.4531 26.3184C41.4531 24.7461 40.209 23.5156 38.6504 23.5156C37.0918 23.5156 35.8477 24.7461 35.8477 26.3184Z" fill="black" fill-opacity="0.85"/>
  <path d="M23.4336 13.8633L29.627 13.8633C30.7891 13.8633 31.3906 13.248 31.3906 12.0039L31.3906 7.24609C31.3906 6.01562 30.7891 5.40039 29.627 5.40039L23.4336 5.40039C22.2715 5.40039 21.6699 6.01562 21.6699 7.24609L21.6699 12.0039C21.6699 13.248 22.2715 13.8633 23.4336 13.8633ZM28.3828 6.50781L29.873 6.50781L29.873 3.77344C29.873 2.36523 30.7207 1.47656 32.0469 1.47656C33.3867 1.47656 34.2207 2.36523 34.2207 3.77344L34.2207 5.30469C34.2207 5.71484 34.5625 6.04297 34.9727 6.04297C35.3828 6.04297 35.7109 5.71484 35.7109 5.30469L35.7109 4.00586C35.7109 1.54492 34.2891 0 32.0469 0C29.832 0 28.3828 1.54492 28.3828 4.00586Z" fill="black" fill-opacity="0.85"/>
 </g>
</svg>
