<?xml version="1.0" encoding="UTF-8"?>
<!--Generator: Apple Native CoreSVG 326-->
<!DOCTYPE svg
PUBLIC "-//W3C//DTD SVG 1.1//EN"
       "http://www.w3.org/Graphics/SVG/1.1/DTD/svg11.dtd">
<svg version="1.1" xmlns="http://www.w3.org/2000/svg" xmlns:xlink="http://www.w3.org/1999/xlink" viewBox="0 0 49.0684 25.2793">
 <g>
  <rect height="25.2793" opacity="0" width="49.0684" x="0" y="0"/>
  <path d="M42.7109 6.6582L44.8848 7.38281C47.4824 8.23047 48.7129 9.81641 48.7129 12.3594L48.7129 16.1465C48.7129 19.3184 47.3594 20.7402 44.3652 20.7402L43.1437 20.7402C42.4172 22.4911 40.7034 23.6934 38.6504 23.6934C36.5974 23.6934 34.8835 22.4911 34.1571 20.7402L14.5423 20.7402C13.8165 22.4911 12.1052 23.6934 10.0625 23.6934C8.00952 23.6934 6.29564 22.4911 5.56921 20.7402L4.34766 20.7402C1.38086 20.7402 0 19.3457 0 16.2285L0 14.4785C0 11.252 2.2832 8.90039 6.07031 8.43555L10.4127 7.90622L11.9466 9.91907C11.9046 9.9268 11.859 9.93326 11.8125 9.93945L6.34375 10.6094C3.70508 10.9238 2.20117 12.4551 2.20117 14.4785L2.20117 16.1465C2.20117 17.7871 2.87109 18.5391 4.34766 18.5391L5.20997 18.5391C5.35485 15.9497 7.42986 13.9727 10.0625 13.9727C12.682 13.9727 14.7565 15.9497 14.9014 18.5391L33.7979 18.5391C33.9427 15.9497 36.0177 13.9727 38.6504 13.9727C41.283 13.9727 43.358 15.9497 43.5029 18.5391L44.3652 18.5391C45.8418 18.5391 46.5117 17.7871 46.5117 16.1465L46.5117 12.3594C46.5117 10.9238 45.7871 10.1172 44.2285 9.61133L42.7793 9.14648C41.959 8.88672 41.6172 8.73633 40.9746 8.17578C37.4473 5.08594 34.6035 3.75977 31.0215 3.75977L28.9434 3.75977C23.7754 3.75977 21.8613 4.21094 18.8398 6.09766L16.7916 7.38956L15.4401 5.61937L17.6641 4.22461C21.0137 2.11914 23.3652 1.55859 28.9434 1.55859L31.0215 1.55859C36.1484 1.55859 39.9492 4.26562 42.7109 6.6582ZM7.25977 18.8398C7.25977 20.3984 8.49023 21.6289 10.0625 21.6289C11.6211 21.6289 12.8516 20.3984 12.8516 18.8398C12.8516 17.2676 11.6211 16.0371 10.0625 16.0371C8.49023 16.0371 7.25977 17.2676 7.25977 18.8398ZM35.8477 18.8398C35.8477 20.3984 37.0918 21.6289 38.6504 21.6289C40.209 21.6289 41.4531 20.3984 41.4531 18.8398C41.4531 17.2676 40.209 16.0371 38.6504 16.0371C37.0918 16.0371 35.8477 17.2676 35.8477 18.8398Z" fill="black" fill-opacity="0.85"/>
  <path d="M4.0332 3.80078L7.39648 3.80078C8.91406 3.80078 9.48828 4.06055 10.2539 5.05859L13.9316 9.91211C15.1074 11.457 16.4199 12.127 18.334 12.127L21.3281 12.127L21.3281 13.3027C21.3281 14.2598 22.1758 14.5469 22.8867 14.082L26.332 11.8672C26.9883 11.4434 27.002 10.623 26.3184 10.1855L22.9004 7.98438C22.1758 7.50586 21.3281 7.79297 21.3281 8.76367L21.3281 9.92578L18.334 9.92578C17.0488 9.92578 16.5293 9.63867 15.6816 8.54492L11.9766 3.71875C10.8281 2.20117 9.47461 1.59961 7.39648 1.59961L4.0332 1.59961C3.43164 1.59961 2.93945 2.0918 2.93945 2.69336C2.93945 3.29492 3.43164 3.80078 4.0332 3.80078Z" fill="black" fill-opacity="0.85"/>
 </g>
</svg>
