<?xml version="1.0" encoding="UTF-8"?>
<!--Generator: Apple Native CoreSVG 326-->
<!DOCTYPE svg
PUBLIC "-//W3C//DTD SVG 1.1//EN"
       "http://www.w3.org/Graphics/SVG/1.1/DTD/svg11.dtd">
<svg version="1.1" xmlns="http://www.w3.org/2000/svg" xmlns:xlink="http://www.w3.org/1999/xlink" viewBox="0 0 39.7434 32.8194">
 <g>
  <rect height="32.8194" opacity="0" width="39.7434" x="0" y="0"/>
  <path d="M9.88437 12.2603L4.36094 26.0689C4.11484 26.6568 3.71836 27.0533 2.89805 27.0533L1.10703 27.0533C0.054296 27.0533-0.20547 26.2329 0.149999 25.5357L6.97226 12.0415C7.19101 11.6314 7.47812 11.4126 7.94297 11.4126L9.37851 11.4126C9.85703 11.4126 10.0621 11.7954 9.88437 12.2603ZM32.4156 12.0415L39.2379 25.5357C39.5934 26.2329 39.3473 27.0533 38.2809 27.0533L36.5035 27.0533C35.6832 27.0533 35.273 26.6568 35.0406 26.0689L29.5172 12.2603C29.3258 11.7954 29.5309 11.4126 30.0094 11.4126L31.4449 11.4126C31.9098 11.4126 32.2105 11.6314 32.4156 12.0415Z" fill="#ff3b30"/>
  <path d="M14.4505 14.9294C14.3112 15.1991 14.0314 15.3775 13.6988 15.3775L12.9332 15.3775C12.4547 15.3775 12.0855 15.0083 12.0855 14.5298L12.0855 12.5668ZM23.1871 3.5513C24.0758 3.64701 24.7867 4.08451 25.1559 5.13724L25.8395 7.07865L26.482 7.77591C27.1383 8.50052 27.2887 9.15677 27.2887 10.2368L27.2887 14.5298C27.2887 15.0083 26.9195 15.3775 26.441 15.3775L25.6891 15.3775C25.1969 15.3775 24.8277 15.0083 24.8277 14.5298L24.8277 13.6001L20.6232 13.6001L13.6895 6.6699L14.2184 5.13724C14.5875 4.08451 15.2984 3.64701 16.1871 3.5513C16.6246 3.49662 18.0328 3.4556 19.6871 3.4556C21.3551 3.4556 22.7633 3.49662 23.1871 3.5513ZM24.3492 9.44388L24.3492 10.4419C24.3492 10.8384 24.65 11.1255 25.0328 11.1255C25.4293 11.1255 25.7164 10.8521 25.7164 10.4419L25.7164 9.44388C25.7164 9.0474 25.4293 8.77396 25.0328 8.77396C24.65 8.77396 24.3492 9.0474 24.3492 9.44388ZM18.2242 9.07474C17.9098 9.07474 17.7047 9.27982 17.7047 9.62162L17.7047 10.2642C17.7047 10.606 17.9098 10.8247 18.2242 10.8247L21.1227 10.8247C21.4508 10.8247 21.6559 10.606 21.6559 10.2642L21.6559 9.62162C21.6559 9.27982 21.4508 9.07474 21.1227 9.07474ZM16.1598 4.75443C15.777 4.80912 15.5309 4.95951 15.3805 5.39701L14.984 6.60013C14.8883 6.88724 14.9977 7.11966 15.2984 7.11966L24.0621 7.11966C24.3766 7.11966 24.4859 6.88724 24.3902 6.60013L23.9801 5.39701C23.8297 4.95951 23.5973 4.80912 23.2145 4.75443C22.7633 4.69974 21.5191 4.64505 19.6871 4.64505C17.8551 4.64505 16.6109 4.69974 16.1598 4.75443Z" fill="#ff3b30"/>
  <path d="M25.3833 25.8513L24.2262 26.1919L27.0973 31.5786C27.3297 32.0161 26.8922 32.3443 26.5367 32.0298L21.6832 27.6548L18.7984 32.4126C18.6207 32.6861 18.2652 32.6451 18.2516 32.2622L18.2105 28.4615L13.7125 29.4732C13.234 29.5962 13.1109 29.063 13.4391 28.8443L17.0074 26.438L14.3687 26.2466C13.9449 26.2193 13.8766 25.7681 14.273 25.6177L16.6383 24.7427L12.7145 22.3775C12.3453 22.1587 12.4547 21.6802 12.9332 21.7486L17.0895 22.3365L16.1871 21.1607C15.9137 20.8052 16.1871 20.5318 16.5562 20.6958L18.1695 21.4204L16.9391 17.7701C16.8923 17.6298 16.9047 17.512 16.9533 17.4297Z" fill="#ff3b30"/>
  <path d="M32.7027 30.9087C33.1129 31.3189 33.7965 31.3326 34.193 30.9087C34.6031 30.4986 34.6031 29.8286 34.193 29.4185L6.69883 1.93802C6.28867 1.52787 5.60508 1.51419 5.19492 1.93802C4.78476 2.33451 4.78476 3.0181 5.19492 3.42826Z" fill="#ff3b30"/>
 </g>
</svg>
