<?xml version="1.0" encoding="UTF-8"?>
<!--Generator: Apple Native CoreSVG 326-->
<!DOCTYPE svg
PUBLIC "-//W3C//DTD SVG 1.1//EN"
       "http://www.w3.org/Graphics/SVG/1.1/DTD/svg11.dtd">
<svg version="1.1" xmlns="http://www.w3.org/2000/svg" xmlns:xlink="http://www.w3.org/1999/xlink" viewBox="0 0 19.1406 37.0371">
 <g>
  <rect height="37.0371" opacity="0" width="19.1406" x="0" y="0"/>
  <path d="M9.39258 34.9727C6.98633 34.9727 4.78516 34.084 3.10352 32.5801C2.51562 32.0742 1.90039 32.0332 1.50391 32.4297C1.03906 32.8809 1.06641 33.5371 1.55859 34.043C3.5957 36.0801 6.42578 37.0234 9.39258 37.0234C12.373 37.0234 15.2031 36.0801 17.2402 34.043C17.7188 33.5371 17.7461 32.8809 17.2949 32.4297C16.8848 32.0332 16.2695 32.0742 15.6816 32.5801C14 34.084 11.8125 34.9727 9.39258 34.9727Z" fill="black" fill-opacity="0.85"/>
  <path d="M9.39258 30.1738C8.20312 30.1738 7.15039 29.8047 6.33008 29.1348C5.63281 28.6426 5.05859 28.6699 4.67578 29.0664C4.25195 29.4766 4.2793 30.0781 4.7168 30.543C5.56445 31.3633 7.41016 32.2246 9.39258 32.2246C11.3887 32.2246 13.2344 31.3633 14.0684 30.543C14.5059 30.0781 14.5332 29.4766 14.1094 29.0664C13.7266 28.6699 13.1523 28.6426 12.4551 29.1348C11.6484 29.8047 10.5957 30.1738 9.39258 30.1738Z" fill="black" fill-opacity="0.85"/>
  <path d="M9.39258 26.9199C14.6426 26.9199 17.0078 25.7305 17.0078 22.709L17.0078 4.96289C17.0078 1.8457 14.123 0 9.39258 0C4.66211 0 1.79102 1.8457 1.79102 4.96289L1.79102 22.709C1.79102 25.7305 4.14258 26.9199 9.39258 26.9199ZM9.39258 24.7871C5.48242 24.7871 3.95117 24.1855 3.95117 22.6406L3.95117 4.96289C3.95117 3.17188 5.85156 2.16016 9.39258 2.16016C12.9473 2.16016 14.8477 3.17188 14.8477 4.96289L14.8477 22.6406C14.8477 24.1855 13.3164 24.7871 9.39258 24.7871ZM2.95312 10.7734L2.95312 7.92969L1.20312 7.92969C0.533203 7.92969 0 8.43555 0 9.0918L0 9.61133C0 10.2539 0.533203 10.7734 1.20312 10.7734ZM15.832 10.7734L17.582 10.7734C18.2656 10.7734 18.7852 10.2539 18.7852 9.61133L18.7852 9.0918C18.7852 8.43555 18.2656 7.92969 17.582 7.92969L15.832 7.92969ZM9.39258 11.334C10.3906 11.334 11.8809 11.416 12.3867 11.416C13.2207 11.416 13.5898 11.0742 13.6719 10.2129L13.8359 8.29883C13.9727 6.72656 12.9199 6.125 9.39258 6.125C5.86523 6.125 4.82617 6.72656 4.96289 8.29883L5.12695 10.2129C5.20898 11.0742 5.57812 11.416 6.39844 11.416C6.91797 11.416 8.46289 11.334 9.39258 11.334ZM9.39258 22.3125C12.9199 22.3125 14.041 21.793 13.7949 20.166L13.6445 19.2363C13.4395 17.9375 12.4414 17.5273 9.39258 17.5273C6.35742 17.5273 5.3457 17.9375 5.14062 19.2363L5.00391 20.166C4.75781 21.793 5.86523 22.3125 9.39258 22.3125Z" fill="black" fill-opacity="0.85"/>
 </g>
</svg>
