<?xml version="1.0" encoding="UTF-8"?>
<!--Generator: Apple Native CoreSVG 326-->
<!DOCTYPE svg
PUBLIC "-//W3C//DTD SVG 1.1//EN"
       "http://www.w3.org/Graphics/SVG/1.1/DTD/svg11.dtd">
<svg version="1.1" xmlns="http://www.w3.org/2000/svg" xmlns:xlink="http://www.w3.org/1999/xlink" viewBox="0 0 37.6797 33.05">
 <g>
  <rect height="33.05" opacity="0" width="37.6797" x="0" y="0"/>
  <path d="M37.3242 15.11L37.3242 12.8268C36.75 13.1139 36.1621 13.4283 35.5605 13.8112L30.5703 16.9557L25.1016 17.6393C21.6836 18.0494 19.6191 20.1686 19.6191 23.0807L19.6191 24.653C19.6191 27.4694 20.8633 28.7272 23.5566 28.7272L25.3066 28.7272L25.3066 26.7448L23.5566 26.7448C22.2168 26.7448 21.6016 26.0748 21.6016 24.5709L21.6016 23.0807C21.6016 21.2487 22.9688 19.8815 25.3477 19.5807L30.2832 18.9791C31.0352 18.8971 31.5273 18.7194 32.0469 18.4049L36.627 15.5201C36.8594 15.3698 37.0918 15.233 37.3242 15.11ZM37.3242 28.7272L37.3242 26.7448L31.8008 26.7448L31.8008 28.7272ZM28.6973 31.4069C31.1582 31.4069 33.0859 29.4791 33.0859 27.0182C33.0859 24.5573 31.1582 22.6295 28.6973 22.6295C26.2363 22.6295 24.3223 24.5573 24.3223 27.0182C24.3223 29.4791 26.2363 31.4069 28.6973 31.4069ZM28.6973 29.5338C27.3027 29.5338 26.1816 28.4264 26.1816 27.0182C26.1816 25.5963 27.3027 24.4889 28.6973 24.4889C30.1191 24.4889 31.2402 25.5963 31.2402 27.0182C31.2402 28.4264 30.1191 29.5338 28.6973 29.5338ZM7.60156 31.4069C10.0625 31.4069 11.9766 29.4791 11.9766 27.0182C11.9766 24.5573 10.0625 22.6295 7.60156 22.6295C5.12695 22.6295 3.19922 24.5573 3.19922 27.0182C3.19922 29.4791 5.12695 31.4069 7.60156 31.4069ZM7.60156 29.5338C6.17969 29.5338 5.05859 28.4264 5.05859 27.0182C5.05859 25.5963 6.17969 24.4889 7.60156 24.4889C8.99609 24.4889 10.1172 25.5963 10.1172 27.0182C10.1172 28.4264 8.99609 29.5338 7.60156 29.5338ZM0 26.7448L0 28.7272L4.66211 28.7272L4.66211 26.7448ZM10.9648 28.7272L12.7422 28.7272C15.4629 28.7272 16.666 27.4557 16.666 24.5709L16.666 21.1666C16.666 18.8698 15.5586 17.4205 13.2207 16.6686L11.2656 16.0397C8.70898 13.8385 5.35938 11.4323 0.943359 11.4323L0 11.4323L0 13.4283L0.943359 13.4283C4.06055 13.4283 6.57617 14.6588 9.69336 17.3932C10.2812 17.899 10.582 18.0358 11.3203 18.2545L12.6191 18.692C14.041 19.1295 14.6836 19.8815 14.6836 21.1666L14.6836 24.5709C14.6836 26.0748 14.082 26.7448 12.7422 26.7448L10.9648 26.7448Z" fill="black" fill-opacity="0.85"/>
  <path d="M19.5098 5.60803C17.7871 8.151 16.8711 11.1178 16.9121 13.9889C16.9531 14.5494 17.3633 14.9459 17.8691 14.9459C18.4023 14.9186 18.7715 14.5084 18.7715 13.9479C18.7305 11.4869 19.5234 8.84827 21.0273 6.63342C22.5449 4.40491 24.6504 2.68225 26.9609 1.80725C27.4805 1.61584 27.7402 1.08264 27.5488 0.576782C27.3711 0.0845947 26.8379-0.120483 26.3047 0.0709229C23.625 1.12366 21.2188 3.07874 19.5098 5.60803Z" fill="black" fill-opacity="0.85"/>
  <path d="M22.9688 7.95959C21.7109 9.79163 21.0547 11.9518 21.1094 14.0026C21.1367 14.5631 21.5469 14.9323 22.0664 14.9459C22.5723 14.9323 22.9688 14.5221 22.9688 13.9342C22.9277 12.3073 23.4746 10.5436 24.5273 8.97131C25.5527 7.45374 27.002 6.26428 28.5332 5.70374C29.0664 5.48499 29.2988 4.95178 29.1211 4.48694C28.916 3.99475 28.4102 3.776 27.8906 3.95374C26.0039 4.63733 24.2402 6.07288 22.9688 7.95959Z" fill="black" fill-opacity="0.85"/>
  <path d="M26.4414 10.2838C25.6484 11.4459 25.2246 12.8268 25.293 14.0026C25.293 14.5221 25.7031 14.9459 26.2227 14.9323C26.7969 14.9323 27.1797 14.4811 27.1797 13.8932C27.1387 13.0865 27.4395 12.1295 27.9863 11.3229C28.5469 10.5026 29.3262 9.85999 30.0508 9.61389C30.6113 9.40881 30.8984 8.87561 30.6934 8.32874C30.4883 7.86389 29.9688 7.64514 29.4629 7.82288C28.3145 8.2467 27.1934 9.14905 26.4414 10.2838Z" fill="black" fill-opacity="0.85"/>
 </g>
</svg>
