<?xml version="1.0" encoding="UTF-8"?>
<!--Generator: Apple Native CoreSVG 326-->
<!DOCTYPE svg
PUBLIC "-//W3C//DTD SVG 1.1//EN"
       "http://www.w3.org/Graphics/SVG/1.1/DTD/svg11.dtd">
<svg version="1.1" xmlns="http://www.w3.org/2000/svg" xmlns:xlink="http://www.w3.org/1999/xlink" viewBox="0 0 51.8848 38.9512">
 <g>
  <rect height="38.9512" opacity="0" width="51.8848" x="0" y="0"/>
  <path d="M5.27734 31.7324C5.71484 31.2402 5.57812 30.5977 5.08594 30.0371C3.25391 28 2.22852 25.334 2.22852 22.3809C2.22852 19.4414 3.25391 16.7617 5.08594 14.7246C5.57812 14.1641 5.71484 13.5352 5.27734 13.0293C4.83984 12.5234 4.07422 12.5234 3.55469 13.1113C1.28516 15.5723 0 18.8398 0 22.3809C0 25.9219 1.28516 29.2031 3.55469 31.6641C4.07422 32.2383 4.83984 32.252 5.27734 31.7324ZM46.252 31.7324C46.7031 32.252 47.4551 32.2383 47.9883 31.6641C50.2578 29.2031 51.5293 25.9219 51.5293 22.3809C51.5293 18.8398 50.2578 15.5723 47.9883 13.1113C47.4551 12.5234 46.7031 12.5234 46.252 13.0293C45.8145 13.5352 45.9512 14.1641 46.4434 14.7246C48.2891 16.7617 49.3008 19.4414 49.3008 22.3809C49.3008 25.334 48.2891 28 46.4434 30.0371C45.9512 30.5977 45.8145 31.2402 46.252 31.7324ZM25.7305 2.22852C28.6699 2.22852 31.3359 3.25391 33.373 5.08594C33.9473 5.57812 34.5762 5.71484 35.0684 5.27734C35.5879 4.83984 35.5879 4.07422 35 3.54102C32.5391 1.27148 29.2715 0 25.7305 0C22.1758 0 18.9082 1.27148 16.4473 3.54102C15.8594 4.07422 15.8594 4.83984 16.3789 5.27734C16.8711 5.71484 17.5 5.57812 18.0742 5.08594C20.1113 3.25391 22.7773 2.22852 25.7305 2.22852Z" fill="black" fill-opacity="0.85"/>
  <path d="M9.10547 27.8359C9.54297 27.3438 9.36523 26.7422 8.92773 26.1406C8.10742 25.1289 7.71094 23.8027 7.71094 22.3809C7.71094 20.959 8.10742 19.6465 8.92773 18.6211C9.36523 18.0332 9.54297 17.418 9.10547 16.9258C8.6543 16.4199 7.83398 16.4062 7.35547 17.0215C6.16602 18.498 5.48242 20.3711 5.48242 22.3809C5.48242 24.3906 6.16602 26.2637 7.35547 27.7402C7.83398 28.3691 8.6543 28.3555 9.10547 27.8359ZM42.4238 27.8359C42.875 28.3555 43.6953 28.3691 44.1875 27.7402C45.377 26.2637 46.0605 24.3906 46.0605 22.3809C46.0605 20.3711 45.377 18.498 44.1875 17.0215C43.6953 16.4062 42.875 16.4199 42.4238 16.9258C41.9863 17.418 42.1777 18.0332 42.6016 18.6211C43.4219 19.6465 43.832 20.959 43.832 22.3809C43.832 23.8027 43.4219 25.1289 42.6016 26.1406C42.1777 26.7422 41.9863 27.3438 42.4238 27.8359ZM25.7441 7.69727C27.166 7.69727 28.4922 8.10742 29.5039 8.92773C30.0918 9.36523 30.707 9.54297 31.1992 9.10547C31.7188 8.6543 31.7324 7.83398 31.1035 7.35547C29.627 6.16602 27.7539 5.46875 25.7441 5.46875C23.7344 5.46875 21.8613 6.16602 20.3848 7.35547C19.7695 7.83398 19.7832 8.6543 20.2891 9.10547C20.7812 9.54297 21.3965 9.35156 21.9844 8.92773C23.0371 8.13477 24.3223 7.69727 25.7441 7.69727Z" fill="black" fill-opacity="0.85"/>
  <path d="M25.7715 29.832C29.5859 29.832 34.5078 29.6406 36.5859 29.4082C38.1855 29.2168 39.1016 28.3281 39.1016 26.7969L39.1016 24.7598C39.1016 22.8594 38.7188 21.752 37.666 20.4121L36.7637 19.2637C36.3535 17.2949 35.6426 15.2168 35.2461 14.4238C34.6309 13.0977 33.4141 12.332 31.8965 12.127C31.1582 12.0312 28.752 11.9766 25.7715 11.9766C22.8184 11.9766 20.3984 12.0449 19.6602 12.127C18.1426 12.3184 16.9258 13.0977 16.3105 14.4238C15.9277 15.2168 15.2031 17.2949 14.793 19.2637L13.8906 20.4121C12.8516 21.752 12.4551 22.8594 12.4551 24.7598L12.4551 26.7969C12.4551 28.3281 13.3711 29.2168 14.9707 29.4082C17.0488 29.6406 21.9707 29.832 25.7715 29.832ZM25.7715 27.9727C21.9297 27.9727 17.1445 27.8086 15.3945 27.5898C14.5605 27.4805 14.3145 27.1387 14.3145 26.373L14.3145 24.7598C14.3145 23.2832 14.5195 22.627 15.3535 21.5605L16.5156 20.043C16.8027 18.4707 17.5273 16.2422 17.9785 15.2441C18.3203 14.5332 18.9219 14.1094 19.8652 14.0137C20.5762 13.918 22.7773 13.8086 25.7715 13.8086C28.7793 13.8086 31.0352 13.918 31.6504 14.0137C32.6348 14.123 33.2363 14.5469 33.5781 15.2441C34.043 16.2422 34.7539 18.4707 35.0547 20.043L36.2031 21.5605C37.0371 22.627 37.2422 23.2832 37.2422 24.7598L37.2422 26.373C37.2422 27.1387 36.9961 27.4941 36.1621 27.5898C34.4121 27.8086 29.627 27.9727 25.7715 27.9727ZM17.8145 19.0859C17.7324 19.4551 17.8828 19.6191 18.3066 19.5918C20.0566 19.4551 22.1621 19.3594 25.7715 19.3594C29.4082 19.3594 31.5 19.4551 33.25 19.5918C33.6738 19.6191 33.8242 19.4551 33.7422 19.0859C33.4688 17.8965 32.9766 16.4062 32.6211 15.791C32.334 15.2988 32.0195 15.0801 31.459 14.998C30.6523 14.8887 28.8477 14.8203 25.7715 14.8203C22.709 14.8203 20.918 14.8887 20.0977 14.998C19.5371 15.0801 19.2227 15.2988 18.9355 15.791C18.5938 16.4062 18.0879 17.8965 17.8145 19.0859ZM17.7461 26.5508C18.7441 26.5508 19.4961 25.7852 19.4961 24.7734C19.4961 23.7754 18.7441 23.0234 17.7461 23.0234C16.7344 23.0234 15.9688 23.7754 15.9688 24.7734C15.9688 25.7852 16.7344 26.5508 17.7461 26.5508ZM22.7637 26.1133L28.8066 26.1133C29.5586 26.1133 30.0781 25.5938 30.0781 24.8418C30.0781 24.0898 29.5586 23.584 28.8066 23.584L22.7637 23.584C21.998 23.584 21.4785 24.0898 21.4785 24.8418C21.4785 25.5938 21.998 26.1133 22.7637 26.1133ZM33.8242 26.5508C34.8223 26.5508 35.5879 25.7852 35.5879 24.7734C35.5879 23.7754 34.8223 23.0234 33.8242 23.0234C32.8125 23.0234 32.0605 23.7754 32.0605 24.7734C32.0605 25.7852 32.8125 26.5508 33.8242 26.5508ZM14.6973 32.7715L16.0098 32.7715C16.8301 32.7715 17.4727 32.1426 17.4727 31.3359L17.4727 28.6836L13.248 28.0684L13.248 31.3359C13.248 32.1426 13.877 32.7715 14.6973 32.7715ZM35.5332 32.7715L36.8457 32.7715C37.666 32.7715 38.2812 32.1426 38.2812 31.3359L38.2812 28.0684L34.0566 28.6836L34.0566 31.3359C34.0566 32.1426 34.6992 32.7715 35.5332 32.7715Z" fill="black" fill-opacity="0.85"/>
 </g>
</svg>
