<?xml version="1.0" encoding="UTF-8"?>
<!--Generator: Apple Native CoreSVG 326-->
<!DOCTYPE svg
PUBLIC "-//W3C//DTD SVG 1.1//EN"
       "http://www.w3.org/Graphics/SVG/1.1/DTD/svg11.dtd">
<svg version="1.1" xmlns="http://www.w3.org/2000/svg" xmlns:xlink="http://www.w3.org/1999/xlink" viewBox="0 0 27.9457 39.8262">
 <g>
  <rect height="39.8262" opacity="0" width="27.9457" x="0" y="0"/>
  <path d="M18.1838 26.9199C23.4475 26.9199 25.799 25.7305 25.799 22.709L25.799 4.96289C25.799 1.8457 22.9279 0 18.1838 0C13.467 0 10.5959 1.8457 10.5959 4.96289L10.5959 22.709C10.5959 25.7305 12.9338 26.9199 18.1838 26.9199ZM18.1975 11.252C17.1858 11.252 15.6545 11.334 15.1076 11.334C14.2736 11.334 13.8772 10.9785 13.8088 10.0898L13.6311 8.12109C13.4943 6.49414 14.5608 5.87891 18.1975 5.87891C21.8342 5.87891 22.9006 6.49414 22.7639 8.12109L22.5998 10.0898C22.5178 10.9785 22.1486 11.334 21.2873 11.334C20.7541 11.334 19.1545 11.252 18.1975 11.252ZM18.1975 22.5586C14.5608 22.5586 13.4123 22.0254 13.6721 20.3438L13.8225 19.3867C14.0275 18.0469 15.0666 17.623 18.1975 17.623C21.3283 17.623 22.3674 18.0469 22.5861 19.3867L22.7365 20.3438C22.9963 22.0254 21.8342 22.5586 18.1975 22.5586ZM11.758 10.7734L11.758 7.92969L10.008 7.92969C9.32442 7.92969 8.80489 8.43555 8.80489 9.0918L8.80489 9.61133C8.80489 10.2539 9.32442 10.7734 10.008 10.7734ZM24.6369 10.7734L26.3869 10.7734C27.0705 10.7734 27.59 10.2539 27.59 9.61133L27.59 9.0918C27.59 8.43555 27.0705 7.92969 26.3869 7.92969L24.6369 7.92969Z" fill="black" fill-opacity="0.85"/>
  <path d="M6.19356 38.7871L9.92599 35.0547C10.6233 34.3574 10.6369 33.5371 9.93966 32.8398L6.48067 29.3672C5.76974 28.6699 4.99044 28.6426 4.29317 29.3535L0.519736 33.1133C-0.150186 33.7832-0.191201 34.6309 0.506064 35.3418L3.96505 38.8008C4.66231 39.498 5.4963 39.4844 6.19356 38.7871ZM9.57052 31.6641L12.1135 31.459C12.3322 31.4453 12.5373 31.377 12.674 31.2539C12.9475 30.9805 12.9201 30.5977 12.633 30.3105L8.9963 26.6738C8.70919 26.3867 8.34005 26.373 8.06661 26.6465C7.92989 26.7695 7.86153 26.9883 7.84786 27.1934L7.64278 29.75Z" fill="black" fill-opacity="0.85"/>
 </g>
</svg>
