<?xml version="1.0" encoding="UTF-8"?>
<!--Generator: Apple Native CoreSVG 326-->
<!DOCTYPE svg
PUBLIC "-//W3C//DTD SVG 1.1//EN"
       "http://www.w3.org/Graphics/SVG/1.1/DTD/svg11.dtd">
<svg version="1.1" xmlns="http://www.w3.org/2000/svg" xmlns:xlink="http://www.w3.org/1999/xlink" viewBox="0 0 44.0234 25.416">
 <g>
  <rect height="25.416" opacity="0" width="44.0234" x="0" y="0"/>
  <path d="M21.9147 0.0812742C21.0441 0.111948 20.3924 0.149688 20.043 0.191406C18.7107 0.351684 17.5912 0.900969 16.8043 1.79235C16.5974 1.79145 16.387 1.79102 16.1738 1.79102C12.5918 1.79102 9.81641 1.91406 8.94141 2.02344C7.69727 2.17383 6.83594 2.76172 6.39844 3.70508C5.81055 4.96289 4.92188 7.72461 4.55273 9.70703L3.1582 11.5391C2.0918 12.9336 1.79102 13.8086 1.79102 15.6816L1.79102 17.541C1.79102 18.5801 2.20117 19.1816 3.36328 19.3184C4.90705 19.5127 8.31766 19.6729 11.7375 19.7516C11.8188 19.8811 11.9117 20.0014 12.0176 20.111L12.0176 21.5481C9.9006 21.5001 7.7335 21.418 5.93359 21.3123L5.93359 23.5566C5.93359 24.5684 5.14062 25.3613 4.11523 25.3613L2.51562 25.3613C1.49023 25.3613 0.697266 24.5684 0.697266 23.5566L0.697266 20.0972C0.240266 19.6034 0 18.9294 0 18.0879L0 15.6816C0 13.3711 0.464844 12.0859 1.73633 10.4453L2.88477 8.95508C3.39062 6.49414 4.29297 3.91016 4.77148 2.89844C5.49609 1.35352 6.91797 0.410156 8.73633 0.191406C9.65234 0.0820312 12.6465 0 16.1738 0C18.4504 0 20.5009 0.028255 21.9147 0.0812742ZM8.51758 15.709C8.51758 16.9531 7.56055 17.9102 6.31641 17.9102C5.07227 17.9102 4.11523 16.9531 4.11523 15.709C4.11523 14.4512 5.07227 13.5078 6.31641 13.5078C7.56055 13.5078 8.51758 14.4512 8.51758 15.709ZM14.2051 8.95508L14.1869 8.97838C10.9795 9.00944 8.85956 9.11622 7.02734 9.24219C6.50781 9.26953 6.30273 9.07812 6.41211 8.59961C6.75391 7.15039 7.36914 5.26367 7.80664 4.51172C8.16211 3.89648 8.55859 3.62305 9.26953 3.52734C10.2427 3.39403 12.3988 3.29972 15.9065 3.29536C15.4145 4.4841 14.6425 6.76817 14.2051 8.95508Z" fill="black" fill-opacity="0.85"/>
  <path d="M17.7324 8.59961C17.623 9.07812 17.8281 9.26953 18.334 9.24219C20.5215 9.0918 23.1191 8.96875 27.4941 8.96875C31.8555 8.96875 34.4531 9.0918 36.6406 9.24219C37.1602 9.26953 37.3516 9.07812 37.2422 8.59961C36.9141 7.15039 36.2988 5.26367 35.8613 4.51172C35.5059 3.89648 35.1094 3.62305 34.3984 3.52734C33.4004 3.39062 31.1582 3.29492 27.4941 3.29492C23.8164 3.29492 21.5742 3.39062 20.5898 3.52734C19.8789 3.62305 19.4688 3.89648 19.1133 4.51172C18.6895 5.26367 18.0605 7.15039 17.7324 8.59961ZM17.6367 17.9102C18.8809 17.9102 19.8242 16.9531 19.8242 15.709C19.8242 14.4512 18.8809 13.5078 17.6367 13.5078C16.3789 13.5078 15.4355 14.4512 15.4355 15.709C15.4355 16.9531 16.3789 17.9102 17.6367 17.9102ZM23.8711 17.3633L31.1035 17.3633C32.0469 17.3633 32.6895 16.7207 32.6895 15.7773C32.6895 14.8477 32.0469 14.2051 31.1035 14.2051L23.8711 14.2051C22.9414 14.2051 22.2852 14.8477 22.2852 15.7773C22.2852 16.7207 22.9414 17.3633 23.8711 17.3633ZM37.3516 17.9102C38.5957 17.9102 39.5527 16.9531 39.5527 15.709C39.5527 14.4512 38.5957 13.5078 37.3516 13.5078C36.0938 13.5078 35.1504 14.4512 35.1504 15.709C35.1504 16.9531 36.0938 17.9102 37.3516 17.9102ZM27.4941 21.6016C32.0879 21.6016 38.1855 21.3691 40.7832 21.0684C42.6289 20.8633 43.668 19.8379 43.668 18.0879L43.668 15.6816C43.668 13.3711 43.2031 12.0859 41.9316 10.4453L40.7832 8.95508C40.2773 6.49414 39.375 3.91016 38.8965 2.89844C38.1719 1.35352 36.75 0.4375 34.9316 0.191406C34.0156 0.0683594 31.0215 0 27.4941 0C23.9531 0 20.959 0.0820312 20.043 0.191406C18.2246 0.410156 16.8027 1.35352 16.0781 2.89844C15.6133 3.91016 14.6973 6.49414 14.2051 8.95508L13.043 10.4453C11.7715 12.0859 11.3066 13.3711 11.3066 15.6816L11.3066 18.0879C11.3066 19.8379 12.3457 20.8633 14.2051 21.0684C16.7891 21.3691 22.8867 21.6016 27.4941 21.6016ZM27.4941 19.8105C22.8457 19.8105 16.8711 19.5918 14.6836 19.3184C13.5215 19.1816 13.0977 18.5801 13.0977 17.541L13.0977 15.6816C13.0977 13.8086 13.4121 12.9336 14.4648 11.5391L15.873 9.70703C16.2285 7.72461 17.1309 4.96289 17.7051 3.70508C18.1562 2.76172 19.0176 2.17383 20.2617 2.02344C21.1367 1.91406 23.8984 1.79102 27.4941 1.79102C31.0762 1.79102 33.9062 1.91406 34.6992 2.02344C35.9844 2.1875 36.832 2.77539 37.2695 3.70508C37.8711 4.96289 38.7461 7.72461 39.1152 9.70703L40.5098 11.5391C41.5762 12.9336 41.877 13.8086 41.877 15.6816L41.877 17.541C41.877 18.5801 41.4668 19.1816 40.291 19.3184C38.1035 19.5918 32.1426 19.8105 27.4941 19.8105ZM13.8223 25.3613L15.4355 25.3613C16.4609 25.3613 17.2402 24.5684 17.2402 23.5566L17.2402 20.3027L12.0176 19.5508L12.0176 23.5566C12.0176 24.5684 12.7969 25.3613 13.8223 25.3613ZM39.5527 25.3613L41.1523 25.3613C42.1777 25.3613 42.9707 24.5684 42.9707 23.5566L42.9707 19.5508L37.7344 20.3027L37.7344 23.5566C37.7344 24.5684 38.5273 25.3613 39.5527 25.3613Z" fill="black" fill-opacity="0.85"/>
 </g>
</svg>
