<?xml version="1.0" encoding="UTF-8"?>
<!--Generator: Apple Native CoreSVG 326-->
<!DOCTYPE svg
PUBLIC "-//W3C//DTD SVG 1.1//EN"
       "http://www.w3.org/Graphics/SVG/1.1/DTD/svg11.dtd">
<svg version="1.1" xmlns="http://www.w3.org/2000/svg" xmlns:xlink="http://www.w3.org/1999/xlink" viewBox="0 0 39.7582 20.4941">
 <g>
  <rect height="20.4941" opacity="0" width="39.7582" x="0" y="0"/>
  <path d="M1.12127 20.4941L2.89861 20.4941C3.71892 20.4941 4.12908 20.0977 4.3615 19.5098L11.9084 0.875C12.0998 0.423828 11.881 0.0273438 11.4025 0.0273438L10.5138 0.0273438C10.0353 0.0273438 9.73455 0.259766 9.52947 0.669922L0.164234 18.9766C-0.218578 19.6738 0.054859 20.4941 1.12127 20.4941ZM36.5041 20.4941L38.2951 20.4941C39.3478 20.4941 39.6213 19.6738 39.2385 18.9766L29.8869 0.669922C29.6681 0.259766 29.3674 0.0273438 28.8888 0.0273438L28.0002 0.0273438C27.5217 0.0273438 27.3166 0.423828 27.4943 0.875L35.0412 19.5098C35.2736 20.0977 35.6838 20.4941 36.5041 20.4941Z" fill="black" fill-opacity="0.85"/>
  <path d="M11.0197 15.9688C11.0197 16.502 11.4435 16.9258 11.9767 16.9258L12.8381 16.9258C13.3849 16.9258 13.7951 16.502 13.7951 15.9688L13.7951 14.916L25.4162 14.916L25.4162 15.9688C25.4162 16.502 25.84 16.9258 26.3869 16.9258L27.2345 16.9258C27.7814 16.9258 28.2052 16.502 28.2052 15.9688L28.2052 11.1152C28.2052 9.89844 28.0275 9.16016 27.2756 8.33984L26.551 7.54688L25.7853 5.35938C25.3752 4.16992 24.5685 3.67773 23.5568 3.55469C23.0783 3.5 21.4924 3.45898 19.6056 3.45898C17.7326 3.45898 16.1467 3.5 15.6545 3.55469C14.6427 3.67773 13.8498 4.16992 13.426 5.35938L12.674 7.54688L11.9357 8.33984C11.1838 9.16016 11.0197 9.89844 11.0197 11.1152ZM14.6564 7.58789C14.3146 7.58789 14.1916 7.32812 14.301 7.01367L14.7521 5.66016C14.9162 5.1543 15.1896 4.99023 15.6271 4.93555C16.133 4.86719 17.5412 4.8125 19.6056 4.8125C21.6838 4.8125 23.0783 4.86719 23.5842 4.93555C24.0217 4.99023 24.2951 5.1543 24.4592 5.66016L24.924 7.01367C25.0334 7.32812 24.8967 7.58789 24.5549 7.58789ZM13.6447 12.127C13.1935 12.127 12.8654 11.7988 12.8654 11.3477L12.8654 10.2129C12.8654 9.77539 13.1935 9.44727 13.6447 9.44727C14.0959 9.44727 14.424 9.76172 14.424 10.2129L14.424 11.3477C14.424 11.7988 14.0959 12.127 13.6447 12.127ZM17.9513 11.7715C17.5959 11.7715 17.3635 11.5391 17.3635 11.1562L17.3635 10.418C17.3635 10.0352 17.5959 9.80273 17.9513 9.80273L21.2326 9.80273C21.6017 9.80273 21.8342 10.0352 21.8342 10.418L21.8342 11.1562C21.8342 11.5391 21.6017 11.7715 21.2326 11.7715ZM25.6349 12.127C25.2111 12.127 24.8693 11.7852 24.8693 11.3477L24.8693 10.2129C24.8693 9.77539 25.2111 9.44727 25.6349 9.44727C26.0861 9.44727 26.4142 9.76172 26.4142 10.2129L26.4142 11.3477C26.4142 11.7988 26.0861 12.127 25.6349 12.127Z" fill="black" fill-opacity="0.85"/>
 </g>
</svg>
