<?xml version="1.0" encoding="UTF-8"?>
<!--Generator: Apple Native CoreSVG 326-->
<!DOCTYPE svg
PUBLIC "-//W3C//DTD SVG 1.1//EN"
       "http://www.w3.org/Graphics/SVG/1.1/DTD/svg11.dtd">
<svg version="1.1" xmlns="http://www.w3.org/2000/svg" xmlns:xlink="http://www.w3.org/1999/xlink" viewBox="0 0 29.0117 26.127">
 <g>
  <rect height="26.127" opacity="0" width="29.0117" x="0" y="0"/>
  <path d="M3.73242 25.9766L24.9238 25.9766C27.248 25.9766 28.6562 24.3633 28.6562 22.2715C28.6562 21.6289 28.4648 20.959 28.123 20.3574L17.5137 1.87305C16.8027 0.628906 15.5859 0 14.3281 0C13.0703 0 11.8398 0.628906 11.1426 1.87305L0.533203 20.3574C0.164062 20.9727 0 21.6289 0 22.2715C0 24.3633 1.4082 25.9766 3.73242 25.9766ZM3.74609 23.8301C2.78906 23.8301 2.21484 23.0918 2.21484 22.2578C2.21484 21.998 2.26953 21.6699 2.41992 21.3828L13.0156 2.91211C13.3027 2.40625 13.8223 2.1875 14.3281 2.1875C14.834 2.1875 15.3398 2.40625 15.627 2.91211L26.2227 21.3965C26.373 21.6836 26.4414 21.998 26.4414 22.2578C26.4414 23.0918 25.8398 23.8301 24.8965 23.8301Z" fill="black" fill-opacity="0.85"/>
  <path d="M7.20508 21.2871C7.20508 21.7246 7.54688 22.0664 8.01172 22.0664L8.70898 22.0664C9.16016 22.0664 9.50195 21.7246 9.50195 21.2871L9.50195 20.4121L19.1133 20.4121L19.1133 21.2871C19.1133 21.7246 19.4551 22.0664 19.9062 22.0664L20.6172 22.0664C21.082 22.0664 21.4102 21.7246 21.4102 21.2871L21.4102 17.2949C21.4102 16.2832 21.2871 15.668 20.6582 14.998L20.0566 14.3418L19.4141 12.5234C19.0723 11.5391 18.4023 11.1289 17.582 11.0332C17.1855 10.9785 15.8594 10.9512 14.3145 10.9512C12.7559 10.9512 11.4434 10.9785 11.0469 11.0332C10.2129 11.1289 9.54297 11.5391 9.20117 12.5234L8.57227 14.3418L7.9707 14.998C7.32812 15.668 7.20508 16.2832 7.20508 17.2949ZM10.2129 14.3691C9.92578 14.3691 9.83008 14.1504 9.92578 13.8906L10.2949 12.7695C10.418 12.3457 10.6504 12.209 11.0195 12.1543C11.4297 12.1133 12.5918 12.0586 14.3145 12.0586C16.0371 12.0586 17.1719 12.1133 17.5957 12.1543C17.9648 12.209 18.1836 12.3457 18.334 12.7695L18.7031 13.8906C18.7852 14.1504 18.7031 14.3691 18.416 14.3691ZM9.39258 18.1152C9.00977 18.1152 8.72266 17.8555 8.72266 17.4727L8.72266 16.543C8.72266 16.1875 9.00977 15.9141 9.39258 15.9141C9.73438 15.9141 10.0215 16.1738 10.0215 16.543L10.0215 17.4727C10.0215 17.8555 9.73438 18.1152 9.39258 18.1152ZM12.9336 17.8281C12.6465 17.8281 12.4551 17.6504 12.4551 17.3223L12.4551 16.707C12.4551 16.3926 12.6465 16.2012 12.9336 16.2012L15.6543 16.2012C15.9551 16.2012 16.1465 16.3926 16.1465 16.707L16.1465 17.3223C16.1465 17.6504 15.9551 17.8281 15.6543 17.8281ZM19.3047 18.1152C18.9492 18.1152 18.6758 17.8555 18.6758 17.4727L18.6758 16.543C18.6758 16.1875 18.9492 15.9141 19.3047 15.9141C19.6738 15.9141 19.9473 16.1738 19.9473 16.543L19.9473 17.4727C19.9473 17.8555 19.6738 18.1152 19.3047 18.1152Z" fill="black" fill-opacity="0.85"/>
 </g>
</svg>
