<?xml version="1.0" encoding="UTF-8"?>
<!--Generator: Apple Native CoreSVG 326-->
<!DOCTYPE svg
PUBLIC "-//W3C//DTD SVG 1.1//EN"
       "http://www.w3.org/Graphics/SVG/1.1/DTD/svg11.dtd">
<svg version="1.1" xmlns="http://www.w3.org/2000/svg" xmlns:xlink="http://www.w3.org/1999/xlink" viewBox="0 0 31.6891 27.7676">
 <g>
  <rect height="27.7676" opacity="0" width="31.6891" x="0" y="0"/>
  <path d="M29.5916 21.0957L29.5916 26.8926C29.5916 27.3574 29.2498 27.6992 28.785 27.6992L28.0604 27.6992C27.5955 27.6992 27.2537 27.3574 27.2537 26.8926L27.2537 21.0957C27.2537 20.6309 27.5955 20.2891 28.0604 20.2891L28.785 20.2891C29.2498 20.2891 29.5916 20.6309 29.5916 21.0957ZM4.07989 21.0957L4.07989 26.8926C4.07989 27.3438 3.7381 27.6855 3.27325 27.6855L2.54864 27.6855C2.0838 27.6855 1.742 27.3438 1.742 26.8926L1.742 21.0957C1.742 20.6309 2.0838 20.2891 2.54864 20.2891L3.27325 20.2891C3.7381 20.2891 4.07989 20.6309 4.07989 21.0957ZM29.5916 10.9512L29.5916 16.7344C29.5916 17.1992 29.2498 17.541 28.785 17.541L28.0604 17.541C27.5955 17.541 27.2537 17.1992 27.2537 16.7344L27.2537 10.9512C27.2537 10.5 27.5955 10.1582 28.0604 10.1582L28.785 10.1582C29.2498 10.1582 29.5916 10.5 29.5916 10.9512ZM29.5916 0.806641L29.5916 6.60352C29.5916 7.06836 29.2498 7.41016 28.785 7.41016L28.0604 7.41016C27.5955 7.41016 27.2537 7.06836 27.2537 6.60352L27.2537 0.806641C27.2537 0.341797 27.5955 0 28.0604 0L28.785 0C29.2498 0 29.5916 0.341797 29.5916 0.806641ZM4.07989 0.806641L4.07989 3.50739C3.87728 3.62328 3.68787 3.74249 3.51025 3.86437C3.36188 3.96043 3.21967 4.0579 3.0822 4.15636C3.03219 4.19022 2.98484 4.22467 2.94175 4.25995C2.78911 4.37066 2.64416 4.48293 2.50507 4.59627C2.45346 4.63611 2.40464 4.67647 2.361 4.71772C2.26662 4.79552 2.17692 4.87415 2.09191 4.95354C1.96376 5.06292 1.84665 5.17412 1.742 5.28711L1.742 0.806641C1.742 0.341797 2.0838 0 2.54864 0L3.27325 0C3.7381 0 4.07989 0.341797 4.07989 0.806641Z" fill="black" fill-opacity="0.85"/>
  <path d="M16.74 24.8145C20.91 22.4082 22.2361 20.3711 20.8416 17.9648L12.6658 3.80078C11.2303 1.3125 8.09942 1.18945 4.33966 3.34961C0.552549 5.52344-0.896669 8.3125 0.552549 10.8008L8.71466 24.9648C10.1229 27.3711 12.5565 27.2207 16.74 24.8145ZM15.7557 23.1465C12.6385 24.9512 11.1072 25.1699 10.3963 23.9258L2.24786 9.83008C1.41388 8.38086 2.46661 6.68555 5.32403 5.03125C8.15411 3.4043 10.1365 3.34961 10.9705 4.78516L19.119 18.8809C19.8299 20.1387 18.8865 21.3418 15.7557 23.1465ZM9.54864 12.373C10.3279 11.9219 11.5721 11.3203 11.9822 11.0605C12.6522 10.6914 12.7752 10.2402 12.4471 9.5293L11.7088 7.92969C11.0799 6.60352 9.97247 6.60352 7.15607 8.23047C4.31232 9.87109 3.77911 10.8281 4.59942 12.0176L5.61114 13.4668C6.07599 14.1367 6.54083 14.2188 7.19708 13.8496C7.59357 13.6035 8.81036 12.8105 9.54864 12.373ZM14.6209 21.1641C17.4236 19.5371 18.0799 18.6074 17.1365 17.418L16.6033 16.748C15.8514 15.791 14.8397 15.9414 12.4197 17.3496C9.97247 18.7441 9.34357 19.5371 9.79474 20.6719L10.1092 21.4785C10.6561 22.8867 11.8045 22.791 14.6209 21.1641ZM14.4158 8.95508L15.8104 8.16211C16.3299 7.86133 16.5213 7.19141 16.2205 6.68555L15.9744 6.27539C15.6736 5.75586 15.0311 5.5918 14.4979 5.90625L13.117 6.71289ZM4.13458 14.8887L2.83575 12.6328L1.45489 13.4258C0.908018 13.7402 0.757628 14.3828 1.04474 14.9023L1.27716 15.3262C1.56427 15.832 2.22052 16.0098 2.75372 15.6953Z" fill="black" fill-opacity="0.85"/>
 </g>
</svg>
