<?xml version="1.0" encoding="UTF-8"?>
<!--Generator: Apple Native CoreSVG 326-->
<!DOCTYPE svg
PUBLIC "-//W3C//DTD SVG 1.1//EN"
       "http://www.w3.org/Graphics/SVG/1.1/DTD/svg11.dtd">
<svg version="1.1" xmlns="http://www.w3.org/2000/svg" xmlns:xlink="http://www.w3.org/1999/xlink" viewBox="0 0 32.0195 35.3145">
 <g>
  <rect height="35.3145" opacity="0" width="32.0195" x="0" y="0"/>
  <path d="M24.6504 9.5293L24.6504 12.7422L29.709 17.8008C30.1738 18.252 30.8848 18.2383 31.3359 17.8008C31.7734 17.3496 31.7734 16.625 31.3359 16.1738ZM15.832 35.3008C22.7363 35.3008 25.6758 33.7832 25.6758 30.0645L25.6758 6.33008C25.6758 2.33789 22.0527 0 15.832 0C9.625 0 5.98828 2.33789 5.98828 6.33008L5.98828 30.0645C5.98828 33.7832 8.94141 35.3008 15.832 35.3008ZM15.832 33.0312C10.5547 33.0312 8.27148 32.1426 8.27148 29.9551L8.27148 6.33008C8.27148 3.77344 11.0605 2.2832 15.832 2.2832C20.6172 2.2832 23.3926 3.77344 23.3926 6.33008L23.3926 29.9551C23.3926 32.1426 21.123 33.0312 15.832 33.0312ZM15.832 14.6836C17.0625 14.6836 19.127 14.7793 19.8242 14.7793C20.8496 14.7793 21.3008 14.3828 21.3828 13.3164L21.6152 10.7461C21.793 8.77734 20.4121 7.98438 15.832 7.98438C11.2656 7.98438 9.88477 8.77734 10.0625 10.7461L10.2812 13.3164C10.377 14.3828 10.8145 14.7793 11.8535 14.7793C12.5371 14.7793 14.5332 14.6836 15.832 14.6836ZM15.832 29.2715C20.4395 29.2715 21.8477 28.5879 21.5605 26.5781L21.3828 25.334C21.1641 23.6934 19.7969 23.1465 15.832 23.1465C11.8809 23.1465 10.5137 23.6934 10.2949 25.334L10.1172 26.5781C9.83008 28.5879 11.2383 29.2715 15.832 29.2715ZM7.01367 19.8652L0.328125 26.5098C-0.109375 26.9473-0.109375 27.6855 0.328125 28.1367C0.779297 28.5742 1.50391 28.5879 1.95508 28.1367L7.01367 23.0781ZM24.6504 19.8652L24.6504 23.0781L29.709 28.1367C30.1738 28.5879 30.8848 28.5742 31.3359 28.1367C31.7734 27.6855 31.7734 26.9473 31.3359 26.5098Z" fill="#ff3b30"/>
 </g>
</svg>
