<?xml version="1.0" encoding="UTF-8"?>
<!--Generator: Apple Native CoreSVG 326-->
<!DOCTYPE svg
PUBLIC "-//W3C//DTD SVG 1.1//EN"
       "http://www.w3.org/Graphics/SVG/1.1/DTD/svg11.dtd">
<svg version="1.1" xmlns="http://www.w3.org/2000/svg" xmlns:xlink="http://www.w3.org/1999/xlink" viewBox="0 0 31.3086 35.3145">
 <g>
  <rect height="35.3145" opacity="0" width="31.3086" x="0" y="0"/>
  <path d="M15.4766 35.3008C22.3809 35.3008 25.3203 33.7832 25.3203 30.0645L25.3203 6.33008C25.3203 2.33789 21.6973 0 15.4766 0C9.26953 0 5.63281 2.33789 5.63281 6.33008L5.63281 30.0645C5.63281 33.7832 8.58594 35.3008 15.4766 35.3008ZM15.4902 14.5605C14.1504 14.5605 12.0996 14.6562 11.375 14.6562C10.3223 14.6562 9.85742 14.2461 9.74805 13.1523L9.5293 10.5C9.33789 8.46289 10.7734 7.64258 15.4902 7.64258C20.1934 7.64258 21.6289 8.46289 21.4375 10.5L21.2188 13.1523C21.1094 14.2461 20.6582 14.6562 19.5918 14.6562C18.8809 14.6562 16.748 14.5605 15.4902 14.5605ZM15.4902 29.6133C10.7324 29.6133 9.2832 28.9023 9.58398 26.8242L9.76172 25.5391C9.99414 23.8574 11.4023 23.2832 15.4902 23.2832C19.5645 23.2832 20.9727 23.8574 21.2051 25.5391L21.3828 26.8242C21.6836 28.9023 20.2344 29.6133 15.4902 29.6133ZM24.2949 19.8652L24.2949 23.0781L29.3672 28.1367C29.8184 28.5879 30.5293 28.5742 30.9805 28.1367C31.418 27.6855 31.418 26.9473 30.9805 26.5098Z" fill="#ff3b30"/>
 </g>
</svg>
