<?xml version="1.0" encoding="UTF-8"?>
<!--Generator: Apple Native CoreSVG 326-->
<!DOCTYPE svg
PUBLIC "-//W3C//DTD SVG 1.1//EN"
       "http://www.w3.org/Graphics/SVG/1.1/DTD/svg11.dtd">
<svg version="1.1" xmlns="http://www.w3.org/2000/svg" xmlns:xlink="http://www.w3.org/1999/xlink" viewBox="0 0 37.2422 25.0332">
 <g>
  <rect height="25.0332" opacity="0" width="37.2422" x="0" y="0"/>
  <path d="M35.0957 21.6836C36.0664 21.6836 36.8867 20.8906 36.8867 19.9609C36.8867 19.0176 36.0801 18.2383 35.0957 18.2383C34.0977 18.2383 33.3047 19.0176 33.3047 19.9609C33.3047 20.8906 34.125 21.6836 35.0957 21.6836ZM35.0957 15.6133C35.7656 15.6133 36.2305 15.1484 36.2578 14.4512L36.5449 4.77148C36.5723 3.89648 35.998 3.30859 35.0957 3.30859C34.1934 3.30859 33.6055 3.89648 33.6328 4.77148L33.9199 14.4512C33.9473 15.1484 34.4258 15.6133 35.0957 15.6133Z" fill="black" fill-opacity="0.85"/>
  <path d="M24.6777 25.0332C27.5625 25.0332 28.9707 23.666 28.9707 20.8086L28.9707 14.123C28.9707 12.168 28.4238 11.1152 26.8516 9.92578L16.2285 1.8457C14.4238 0.492188 13.0293 0.0136719 10.8008 0.0136719L4.16992 0.0136719C1.4082 0.0136719 0 1.4082 0 4.14258L0 20.8086C0 23.666 1.39453 25.0332 4.29297 25.0332ZM24.5957 12.4277L4.21094 12.4277C2.95312 12.4277 2.20117 11.7031 2.20117 10.3906L2.20117 4.25195C2.20117 2.92578 2.93945 2.21484 4.21094 2.21484L10.8008 2.21484C12.5508 2.21484 13.5625 2.51562 14.7246 3.44531L24.9102 11.2383C25.4707 11.6484 25.3203 12.4277 24.5957 12.4277Z" fill="black" fill-opacity="0.85"/>
 </g>
</svg>
