<?xml version="1.0" encoding="UTF-8"?>
<!--Generator: Apple Native CoreSVG 326-->
<!DOCTYPE svg
PUBLIC "-//W3C//DTD SVG 1.1//EN"
       "http://www.w3.org/Graphics/SVG/1.1/DTD/svg11.dtd">
<svg version="1.1" xmlns="http://www.w3.org/2000/svg" xmlns:xlink="http://www.w3.org/1999/xlink" viewBox="0 0 46.9629 29.1621">
 <g>
  <rect height="29.1621" opacity="0" width="46.9629" x="0" y="0"/>
  <path d="M15.8047 3.97852L15.7107 4.19177C12.7167 4.21717 10.9667 4.30244 10.1035 4.41602C9.36523 4.51172 8.96875 4.79883 8.59961 5.44141C8.14844 6.23438 7.49219 8.18945 7.16406 9.67969C7.05469 10.1855 7.24609 10.377 7.7793 10.3496C9.3706 10.2442 11.177 10.1454 13.8193 10.096L12.9883 11.1699C11.4707 13.1387 10.8691 14.834 10.8691 17.5547L10.8691 23.3428C9.37529 23.2898 7.95807 23.2224 6.75391 23.1465L6.75391 25.4297C6.75391 26.4414 5.96094 27.2344 4.94922 27.2344L3.33594 27.2344C2.31055 27.2344 1.51758 26.4414 1.51758 25.4297L1.51758 17.5547C1.51758 15.2441 1.98242 13.959 3.25391 12.3184L4.40234 10.8281C4.9082 8.36719 5.81055 5.7832 6.28906 4.77148C7.01367 3.22656 8.43555 2.2832 10.2539 2.06445C11.1431 1.95828 13.9908 1.87787 17.3852 1.87349C16.7352 2.44206 16.1991 3.14757 15.8047 3.97852ZM4.66211 17.0352C4.66211 18.1699 5.52344 19.0449 6.67188 19.0449C7.80664 19.0449 8.68164 18.1699 8.68164 17.0352C8.68164 15.8867 7.80664 15.0254 6.67188 15.0254C5.52344 15.0254 4.66211 15.8867 4.66211 17.0352Z" fill="black" fill-opacity="0.85"/>
  <path d="M18.375 9.67969C18.7031 8.18945 19.373 6.23438 19.8242 5.44141C20.1934 4.79883 20.5898 4.51172 21.3281 4.41602C22.3535 4.2793 24.6777 4.18359 28.916 4.18359C33.1406 4.18359 35.4648 4.25195 36.5039 4.41602C37.2422 4.52539 37.625 4.79883 38.0078 5.44141C38.4727 6.2207 39.0879 8.18945 39.4434 9.67969C39.5801 10.1855 39.3613 10.377 38.8281 10.3496C36.5586 10.1992 33.8516 10.0625 28.916 10.0625C23.9668 10.0625 21.2598 10.1992 18.9902 10.3496C18.4707 10.377 18.2656 10.1855 18.375 9.67969ZM19.0586 19.7832C17.8008 19.7832 16.8574 18.8262 16.8574 17.582C16.8574 16.3242 17.8008 15.3809 19.0586 15.3809C20.3027 15.3809 21.2461 16.3242 21.2461 17.582C21.2461 18.8262 20.3027 19.7832 19.0586 19.7832ZM25.293 19.2363C24.3633 19.2363 23.7207 18.5938 23.7207 17.6504C23.7207 16.7207 24.3633 16.0781 25.293 16.0781L32.5254 16.0781C33.4688 16.0781 34.1113 16.7207 34.1113 17.6504C34.1113 18.5938 33.4688 19.2363 32.5254 19.2363ZM38.7734 19.7832C37.5293 19.7832 36.5723 18.8262 36.5723 17.582C36.5723 16.3242 37.5293 15.3809 38.7734 15.3809C40.0176 15.3809 40.9746 16.3242 40.9746 17.582C40.9746 18.8262 40.0176 19.7832 38.7734 19.7832ZM28.916 23.4746C33.5098 23.4746 39.6074 23.2422 42.2051 22.9414C44.0508 22.7363 45.0898 21.7109 45.0898 19.9609L45.0898 17.5547C45.0898 15.2441 44.625 13.959 43.3535 12.3184L42.2051 10.8281C41.6992 8.36719 40.7969 5.7832 40.3184 4.77148C39.5938 3.22656 38.1719 2.31055 36.3535 2.06445C35.4375 1.94141 32.4434 1.87305 28.916 1.87305C25.375 1.87305 22.3809 1.95508 21.4648 2.06445C19.6465 2.2832 18.2383 3.22656 17.5 4.77148C17.0352 5.7832 16.1191 8.36719 15.627 10.8281L14.4648 12.3184C13.207 13.959 12.7422 15.2441 12.7422 17.5547L12.7422 19.9609C12.7422 21.7109 13.7676 22.7363 15.627 22.9414C18.2109 23.2422 24.3223 23.4746 28.916 23.4746ZM14.5469 27.2344L16.1602 27.2344C17.1855 27.2344 17.9648 26.4414 17.9648 25.4297L17.9648 22.0254L12.7422 19.5371L12.7422 25.4297C12.7422 26.4414 13.5215 27.2344 14.5469 27.2344ZM41.6719 27.2344L43.2715 27.2344C44.2969 27.2344 45.0898 26.4414 45.0898 25.4297L45.0898 19.5371L39.8535 22.0254L39.8535 25.4297C39.8535 26.4414 40.6465 27.2344 41.6719 27.2344Z" fill="black" fill-opacity="0.85"/>
 </g>
</svg>
