<?xml version="1.0" encoding="UTF-8"?>
<!--Generator: Apple Native CoreSVG 326-->
<!DOCTYPE svg
PUBLIC "-//W3C//DTD SVG 1.1//EN"
       "http://www.w3.org/Graphics/SVG/1.1/DTD/svg11.dtd">
<svg version="1.1" xmlns="http://www.w3.org/2000/svg" xmlns:xlink="http://www.w3.org/1999/xlink" viewBox="0 0 39.7582 33.4824">
 <g>
  <rect height="33.4824" opacity="0" width="39.7582" x="0" y="0"/>
  <path d="M36.5041 26.9883L38.2951 26.9883C39.3478 26.9883 39.6213 26.168 39.2385 25.4707L29.8869 7.16406C29.6681 6.75391 29.3674 6.52148 28.8888 6.52148L28.0002 6.52148C27.5217 6.52148 27.3166 6.91797 27.4943 7.36914L35.0412 26.0039C35.2736 26.5918 35.6838 26.9883 36.5041 26.9883Z" fill="black" fill-opacity="0.85"/>
  <path d="M1.12127 26.9883L2.89861 26.9883C3.71892 26.9883 4.12908 26.5918 4.3615 26.0039L11.9084 7.36914C12.0998 6.91797 11.881 6.52148 11.4025 6.52148L10.5138 6.52148C10.0353 6.52148 9.73455 6.75391 9.52947 7.16406L0.164234 25.4707C-0.218578 26.168 0.054859 26.9883 1.12127 26.9883Z" fill="black" fill-opacity="0.85"/>
  <path d="M19.7287 1.69531C21.7521 1.69531 23.5842 2.44727 24.9924 3.70508C25.4709 4.12891 25.9767 4.15625 26.3185 3.81445C26.674 3.45898 26.6603 2.91211 26.2775 2.50195C24.5685 0.792969 22.2033 0 19.7287 0C17.2541 0 14.9025 0.792969 13.1935 2.50195C12.797 2.91211 12.7834 3.45898 13.1525 3.81445C13.4943 4.15625 13.9865 4.12891 14.4787 3.70508C15.8869 2.44727 17.7189 1.69531 19.7287 1.69531Z" fill="black" fill-opacity="0.85"/>
  <path d="M19.7287 5.70117C20.7267 5.70117 21.6154 6.01562 22.299 6.57617C22.8595 6.97266 23.3381 6.95898 23.6662 6.63086C24.008 6.28906 23.9943 5.79688 23.6252 5.41406C22.9142 4.7168 21.383 4.00586 19.7287 4.00586C18.0744 4.00586 16.5431 4.7168 15.8322 5.41406C15.4631 5.79688 15.4631 6.28906 15.8049 6.63086C16.133 6.95898 16.6115 6.97266 17.172 6.57617C17.842 6.01562 18.7306 5.70117 19.7287 5.70117Z" fill="black" fill-opacity="0.85"/>
  <path d="M11.0197 22.4629C11.0197 22.9961 11.4435 23.4199 11.9767 23.4199L12.8381 23.4199C13.3849 23.4199 13.7951 22.9961 13.7951 22.4629L13.7951 21.4102L25.4162 21.4102L25.4162 22.4629C25.4162 22.9961 25.84 23.4199 26.3869 23.4199L27.2345 23.4199C27.7814 23.4199 28.2052 22.9961 28.2052 22.4629L28.2052 17.6094C28.2052 16.3926 28.0275 15.6543 27.2756 14.834L26.551 14.041L25.7853 11.8535C25.3752 10.6641 24.5685 10.1719 23.5568 10.0488C23.0783 9.99414 21.4924 9.95312 19.6056 9.95312C17.7326 9.95312 16.1467 9.99414 15.6545 10.0488C14.6427 10.1719 13.8498 10.6641 13.426 11.8535L12.674 14.041L11.9357 14.834C11.1838 15.6543 11.0197 16.3926 11.0197 17.6094ZM14.6564 14.082C14.3146 14.082 14.1916 13.8223 14.301 13.5078L14.7521 12.1543C14.9162 11.6484 15.1896 11.4844 15.6271 11.4297C16.133 11.3613 17.5412 11.3066 19.6056 11.3066C21.6838 11.3066 23.0783 11.3613 23.5842 11.4297C24.0217 11.4844 24.2951 11.6484 24.4592 12.1543L24.924 13.5078C25.0334 13.8223 24.8967 14.082 24.5549 14.082ZM13.6447 18.6211C13.1935 18.6211 12.8654 18.293 12.8654 17.8418L12.8654 16.707C12.8654 16.2695 13.1935 15.9414 13.6447 15.9414C14.0959 15.9414 14.424 16.2559 14.424 16.707L14.424 17.8418C14.424 18.293 14.0959 18.6211 13.6447 18.6211ZM17.9513 18.2656C17.5959 18.2656 17.3635 18.0332 17.3635 17.6504L17.3635 16.9121C17.3635 16.5293 17.5959 16.2969 17.9513 16.2969L21.2326 16.2969C21.6017 16.2969 21.8342 16.5293 21.8342 16.9121L21.8342 17.6504C21.8342 18.0332 21.6017 18.2656 21.2326 18.2656ZM25.6349 18.6211C25.2111 18.6211 24.8693 18.2793 24.8693 17.8418L24.8693 16.707C24.8693 16.2695 25.2111 15.9414 25.6349 15.9414C26.0861 15.9414 26.4142 16.2559 26.4142 16.707L26.4142 17.8418C26.4142 18.293 26.0861 18.6211 25.6349 18.6211Z" fill="black" fill-opacity="0.85"/>
 </g>
</svg>
