<?xml version="1.0" encoding="UTF-8"?>
<!--Generator: Apple Native CoreSVG 326-->
<!DOCTYPE svg
PUBLIC "-//W3C//DTD SVG 1.1//EN"
       "http://www.w3.org/Graphics/SVG/1.1/DTD/svg11.dtd">
<svg version="1.1" xmlns="http://www.w3.org/2000/svg" xmlns:xlink="http://www.w3.org/1999/xlink" viewBox="0 0 24.6914 22.1621">
 <g>
  <rect height="22.1621" opacity="0" width="24.6914" x="0" y="0"/>
  <path d="M0 0.21875L0 2.43359C1.23047 2.25586 2.69336 2.20117 4.58008 2.20117L6.6582 2.20117C10.2402 2.20117 13.084 3.52734 16.6113 6.61719C17.2402 7.17773 17.5957 7.32812 18.416 7.58789L19.8516 8.05273C21.4238 8.55859 22.1348 9.36523 22.1348 10.8008L22.1348 14.5879C22.1348 16.2285 21.4785 16.9805 20.002 16.9805L18.0195 16.9805L18.0195 19.1816L20.002 19.1816C22.9961 19.1816 24.3359 17.7598 24.3359 14.5879L24.3359 10.8008C24.3359 8.25781 23.1191 6.67188 20.5215 5.82422L18.3477 5.09961C15.5859 2.74805 11.7852 0 6.6582 0L4.58008 0C2.76172 0 1.28516 0.0546875 0 0.21875ZM0 16.9805L0 19.1816L11.0332 19.1816L11.0332 16.9805ZM14.2871 22.1348C17.0078 22.1348 19.1406 20.002 19.1406 17.2812C19.1406 14.5469 17.0078 12.4141 14.2871 12.4141C11.5527 12.4141 9.41992 14.5469 9.41992 17.2812C9.41992 20.002 11.5527 22.1348 14.2871 22.1348ZM14.2871 20.0703C12.7148 20.0703 11.4844 18.8398 11.4844 17.2812C11.4844 15.709 12.7148 14.4785 14.2871 14.4785C15.8457 14.4785 17.0762 15.709 17.0762 17.2812C17.0762 18.8398 15.8457 20.0703 14.2871 20.0703Z" fill="black" fill-opacity="0.85"/>
  <path d="M7.21875 8.53125C7.5332 8.87305 7.92969 8.87305 8.24414 8.53125L10.5 5.96094C10.9648 5.45508 10.6641 4.77148 9.99414 4.77148L5.48242 4.77148C4.78516 4.77148 4.52539 5.49609 4.96289 5.96094ZM5.49609 11.2246L14.2871 11.2246C14.7109 11.2246 15.0391 10.8828 15.0391 10.459C15.0391 10.0352 14.7109 9.70703 14.2871 9.70703L5.49609 9.70703C5.07227 9.70703 4.74414 10.0352 4.74414 10.459C4.74414 10.8828 5.07227 11.2246 5.49609 11.2246Z" fill="black" fill-opacity="0.85"/>
 </g>
</svg>
