<?xml version="1.0" encoding="UTF-8"?>
<!--Generator: Apple Native CoreSVG 326-->
<!DOCTYPE svg
PUBLIC "-//W3C//DTD SVG 1.1//EN"
       "http://www.w3.org/Graphics/SVG/1.1/DTD/svg11.dtd">
<svg version="1.1" xmlns="http://www.w3.org/2000/svg" xmlns:xlink="http://www.w3.org/1999/xlink" viewBox="0 0 25.1289 35.3145">
 <g>
  <rect height="35.3145" opacity="0" width="25.1289" x="0" y="0"/>
  <path d="M23.625 28.7793C24.3223 28.7793 24.7734 28.3418 24.7734 27.6309L24.7734 15.7773C24.7734 15.0664 24.3223 14.6289 23.625 14.6289C22.9277 14.6289 22.4766 15.0664 22.4766 15.791L22.4766 27.6172C22.4766 28.3418 22.9277 28.7793 23.625 28.7793ZM23.625 19.2227L23.625 17.4316L18.7988 17.4316L18.7988 19.2227ZM9.84375 35.3008C16.748 35.3008 19.6875 33.7832 19.6875 30.0645L19.6875 6.33008C19.6875 2.33789 16.0645 0 9.84375 0C3.62305 0 0 2.33789 0 6.33008L0 30.0645C0 33.7832 2.93945 35.3008 9.84375 35.3008ZM9.84375 14.5605C8.50391 14.5605 6.45312 14.6562 5.74219 14.6562C4.67578 14.6562 4.21094 14.2461 4.11523 13.1523L3.88281 10.5C3.70508 8.46289 5.14062 7.64258 9.84375 7.64258C14.5469 7.64258 15.9824 8.46289 15.8047 10.5L15.5723 13.1523C15.4766 14.2461 15.0117 14.6562 13.959 14.6562C13.2344 14.6562 11.1016 14.5605 9.84375 14.5605ZM9.84375 29.6133C5.09961 29.6133 3.65039 28.9023 3.95117 26.8242L4.11523 25.5391C4.36133 23.8574 5.75586 23.2832 9.84375 23.2832C13.9316 23.2832 15.3398 23.8574 15.5723 25.5391L15.7363 26.8242C16.0371 28.9023 14.5879 29.6133 9.84375 29.6133Z" fill="#ff3b30"/>
 </g>
</svg>
