<?xml version="1.0" encoding="UTF-8"?>
<!--Generator: Apple Native CoreSVG 326-->
<!DOCTYPE svg
PUBLIC "-//W3C//DTD SVG 1.1//EN"
       "http://www.w3.org/Graphics/SVG/1.1/DTD/svg11.dtd">
<svg version="1.1" xmlns="http://www.w3.org/2000/svg" xmlns:xlink="http://www.w3.org/1999/xlink" viewBox="0 0 49.0684 40.2363">
 <g>
  <rect height="40.2363" opacity="0" width="49.0684" x="0" y="0"/>
  <path d="M14.8887 26.9336C14.8887 29.2305 13.084 31.0352 10.7734 31.0352C8.47656 31.0352 6.67188 29.2305 6.67188 26.9336C6.67188 24.6367 8.47656 22.832 10.7734 22.832C13.084 22.832 14.8887 24.6367 14.8887 26.9336ZM42.041 26.9336C42.041 29.2305 40.2363 31.0352 37.9258 31.0352C35.6289 31.0352 33.8242 29.2305 33.8242 26.9336C33.8242 24.6367 35.6289 22.832 37.9258 22.832C40.2363 22.832 42.041 24.6367 42.041 26.9336ZM42.7109 14.1367L44.8848 14.8613C47.4824 15.709 48.7129 17.2949 48.7129 19.8379L48.7129 23.625C48.7129 26.7969 47.3594 28.2188 44.3652 28.2188L43.4902 28.2188C43.5859 27.7949 43.6406 27.3711 43.6406 26.9336C43.6406 23.748 41.125 21.2461 37.9258 21.2461C34.7402 21.2461 32.2246 23.748 32.2246 26.9336C32.2246 27.3711 32.2793 27.7949 32.3613 28.2188L16.3242 28.2188C16.4199 27.7949 16.4746 27.3711 16.4746 26.9336C16.4746 23.748 13.9727 21.2461 10.7734 21.2461C7.57422 21.2461 5.07227 23.748 5.07227 26.9336C5.07227 27.3711 5.12695 27.7949 5.20898 28.2188L4.34766 28.2188C1.38086 28.2188 0 26.8242 0 23.707L0 21.957C0 18.7305 2.2832 16.3789 6.07031 15.9141L12.127 15.1758L17.6641 11.7031C18.4138 11.2318 19.1136 10.838 19.8105 10.5142L19.8105 11.9629C19.8105 14.2324 21.2324 15.6953 23.4336 15.6953L29.627 15.6953C31.8281 15.6953 33.25 14.2324 33.25 11.9629L33.25 9.2206C37.2723 9.85774 40.3661 12.1401 42.7109 14.1367Z" fill="black" fill-opacity="0.85"/>
  <path d="M23.4336 13.8633L29.627 13.8633C30.7891 13.8633 31.3906 13.248 31.3906 12.0039L31.3906 7.24609C31.3906 6.01562 30.7891 5.40039 29.627 5.40039L23.4336 5.40039C22.2715 5.40039 21.6699 6.01562 21.6699 7.24609L21.6699 12.0039C21.6699 13.248 22.2715 13.8633 23.4336 13.8633ZM28.3828 6.50781L29.873 6.50781L29.873 3.77344C29.873 2.36523 30.7207 1.47656 32.0469 1.47656C33.3867 1.47656 34.2207 2.36523 34.2207 3.77344L34.2207 5.30469C34.2207 5.71484 34.5625 6.04297 34.9727 6.04297C35.3828 6.04297 35.7109 5.71484 35.7109 5.30469L35.7109 4.00586C35.7109 1.54492 34.2891 0 32.0469 0C29.832 0 28.3828 1.54492 28.3828 4.00586Z" fill="black" fill-opacity="0.85"/>
 </g>
</svg>
