<?xml version="1.0" encoding="UTF-8"?>
<!--Generator: Apple Native CoreSVG 326-->
<!DOCTYPE svg
PUBLIC "-//W3C//DTD SVG 1.1//EN"
       "http://www.w3.org/Graphics/SVG/1.1/DTD/svg11.dtd">
<svg version="1.1" xmlns="http://www.w3.org/2000/svg" xmlns:xlink="http://www.w3.org/1999/xlink" viewBox="0 0 27.0783 35.4512">
 <g>
  <rect height="35.4512" opacity="0" width="27.0783" x="0" y="0"/>
  <path d="M3.42194 32.0059C5.51373 34.1113 8.17975 35.4375 11.0782 35.4375C11.7755 35.4375 12.254 34.9863 12.254 34.3438C12.254 33.7559 11.7891 33.373 11.0098 33.3184C8.76764 33.1816 6.58014 32.252 4.87116 30.5566C3.17584 28.8477 2.24616 26.6738 2.10944 24.418C2.04108 23.543 1.68561 23.2012 1.00202 23.2012C0.468813 23.2012-0.0507185 23.584 0.00396899 24.3359C0.181703 27.2344 1.3028 29.9141 3.42194 32.0059Z" fill="black" fill-opacity="0.85"/>
  <path d="M6.81256 28.6016C8.22077 30.0098 10.1348 30.707 11.3106 30.707C11.9532 30.707 12.3907 30.2969 12.3907 29.709C12.3907 29.1621 12.0079 28.7246 11.1602 28.6016C10.1075 28.4922 9.12311 28 8.26178 27.1523C7.44147 26.3184 6.96295 25.3066 6.81256 24.1445C6.68952 23.3789 6.38873 23.0645 5.71881 23.0645C5.11725 23.0645 4.63873 23.5293 4.73444 24.2676C4.91217 25.9355 5.62311 27.4121 6.81256 28.6016Z" fill="black" fill-opacity="0.85"/>
  <path d="M17.3399 26.9199C22.5899 26.9199 24.9278 25.7305 24.9278 22.709L24.9278 4.96289C24.9278 1.8457 22.0567 0 17.3399 0C12.5958 0 9.72467 1.8457 9.72467 4.96289L9.72467 22.709C9.72467 25.7305 12.0762 26.9199 17.3399 26.9199ZM17.3262 11.252C16.3692 11.252 14.7696 11.334 14.2364 11.334C13.3887 11.334 13.0059 10.9785 12.9239 10.0898L12.7598 8.12109C12.6231 6.49414 13.6895 5.87891 17.3262 5.87891C20.963 5.87891 22.0294 6.49414 21.8926 8.12109L21.7149 10.0898C21.6465 10.9785 21.2501 11.334 20.4161 11.334C19.8692 11.334 18.338 11.252 17.3262 11.252ZM17.3262 22.5586C13.6895 22.5586 12.5274 22.0254 12.8008 20.3438L12.9376 19.3867C13.1563 18.0469 14.1954 17.623 17.3262 17.623C20.4571 17.623 21.4962 18.0469 21.7012 19.3867L21.8516 20.3438C22.1114 22.0254 20.963 22.5586 17.3262 22.5586ZM23.7657 10.7734L25.5157 10.7734C26.1993 10.7734 26.7188 10.2539 26.7188 9.61133L26.7188 9.0918C26.7188 8.43555 26.1993 7.92969 25.5157 7.92969L23.7657 7.92969ZM10.8868 10.7734L10.8868 7.92969L9.13678 7.92969C8.45319 7.92969 7.93366 8.43555 7.93366 9.0918L7.93366 9.61133C7.93366 10.2539 8.45319 10.7734 9.13678 10.7734Z" fill="black" fill-opacity="0.85"/>
 </g>
</svg>
