<?xml version="1.0" encoding="UTF-8"?>
<!--Generator: Apple Native CoreSVG 326-->
<!DOCTYPE svg
PUBLIC "-//W3C//DTD SVG 1.1//EN"
       "http://www.w3.org/Graphics/SVG/1.1/DTD/svg11.dtd">
<svg version="1.1" xmlns="http://www.w3.org/2000/svg" xmlns:xlink="http://www.w3.org/1999/xlink" viewBox="0 0 31.3086 35.3145">
 <g>
  <rect height="35.3145" opacity="0" width="31.3086" x="0" y="0"/>
  <path d="M24.2949 9.5293L24.2949 12.7422L29.3672 17.8008C29.8184 18.252 30.5293 18.2383 30.9805 17.8008C31.418 17.3496 31.418 16.625 30.9805 16.1738ZM15.4766 35.3008C22.3809 35.3008 25.3203 33.7832 25.3203 30.0645L25.3203 6.33008C25.3203 2.33789 21.6973 0 15.4766 0C9.26953 0 5.63281 2.33789 5.63281 6.33008L5.63281 30.0645C5.63281 33.7832 8.58594 35.3008 15.4766 35.3008ZM15.4766 33.0312C10.1992 33.0312 7.91602 32.1426 7.91602 29.9551L7.91602 6.33008C7.91602 3.77344 10.7051 2.2832 15.4766 2.2832C20.2617 2.2832 23.0371 3.77344 23.0371 6.33008L23.0371 29.9551C23.0371 32.1426 20.7676 33.0312 15.4766 33.0312ZM15.4902 14.6836C16.707 14.6836 18.7852 14.7793 19.4688 14.7793C20.5078 14.7793 20.9453 14.3828 21.041 13.3164L21.2598 10.7461C21.4375 8.77734 20.0566 7.98438 15.4902 7.98438C10.9102 7.98438 9.5293 8.77734 9.70703 10.7461L9.92578 13.3164C10.0215 14.3828 10.4727 14.7793 11.498 14.7793C12.1953 14.7793 14.1914 14.6836 15.4902 14.6836ZM15.4902 29.2715C20.084 29.2715 21.4922 28.5879 21.2051 26.5781L21.0273 25.334C20.8086 23.6934 19.4414 23.1465 15.4902 23.1465C11.5254 23.1465 10.1582 23.6934 9.93945 25.334L9.76172 26.5781C9.47461 28.5879 10.8828 29.2715 15.4902 29.2715Z" fill="#ff3b30"/>
 </g>
</svg>
