<?xml version="1.0" encoding="UTF-8"?>
<!--Generator: Apple Native CoreSVG 326-->
<!DOCTYPE svg
PUBLIC "-//W3C//DTD SVG 1.1//EN"
       "http://www.w3.org/Graphics/SVG/1.1/DTD/svg11.dtd">
<svg version="1.1" xmlns="http://www.w3.org/2000/svg" xmlns:xlink="http://www.w3.org/1999/xlink" viewBox="0 0 45.1633 33.9733">
 <g>
  <rect height="33.9733" opacity="0" width="45.1633" x="0" y="0"/>
  <path d="M9.65488 11.0872L10.2701 11.429C10.3795 11.1009 10.5162 10.7864 10.6939 10.472C11.9791 8.24346 14.7545 7.50518 16.9967 8.79034C19.2389 10.0892 19.9771 12.8646 18.692 15.0931C18.5143 15.4075 18.3092 15.681 18.0631 15.9407L29.315 22.4349C29.4244 22.1067 29.5611 21.7786 29.7389 21.4778C31.024 19.2357 33.7994 18.4974 36.0416 19.7962C38.2838 21.0814 39.0357 23.8567 37.7369 26.0989C37.5592 26.3997 37.3541 26.6868 37.1217 26.9329L37.7369 27.2884C39.8287 28.5052 41.36 28.054 42.6451 25.8255L44.1764 23.1732C45.2018 21.3958 44.983 19.7689 43.5064 18.1282L42.276 16.7474C41.2916 13.972 39.733 10.513 36.1373 8.43487L34.6881 7.60089C30.7643 5.34503 28.8912 4.77081 25.692 4.89385L20.401 5.08526L15.8482 3.15753C13.0045 1.94073 10.4478 2.66534 9.14902 4.93487L8.43808 6.15167C7.18027 8.33917 7.57675 9.88409 9.65488 11.0872ZM13.0318 15.6673C14.6451 16.597 16.6412 16.0638 17.5709 14.4505C18.5006 12.8372 17.9674 10.8411 16.3541 9.91143C14.7271 8.98175 12.7311 9.51495 11.815 11.1282C10.8717 12.7415 11.4049 14.7376 13.0318 15.6673ZM32.0768 26.6732C33.69 27.6028 35.6861 27.0696 36.6295 25.4427C37.5455 23.8431 37.0123 21.847 35.399 20.9173C33.7857 19.9739 31.7896 20.5071 30.86 22.1204C29.9303 23.7337 30.4635 25.7298 32.0768 26.6732Z" fill="black" fill-opacity="0.85"/>
  <path d="M4.77402 6.39776L7.65879 1.4212C8.1373 0.587214 7.46738-0.151067 6.61972 0.0266669L2.21738 0.833308C1.61582 0.942683 1.34238 1.40753 1.56113 1.99542L3.05136 6.19268C3.33847 7.02667 4.2955 7.21807 4.77402 6.39776ZM0.152926 11.7982C-0.161527 12.3314 0.0298795 13.0149 0.535739 13.3021L36.0006 33.7962C36.5064 34.0833 37.19 33.9056 37.4771 33.3997C37.7916 32.8528 37.6002 32.1692 37.108 31.8821L1.62949 11.4017C1.1373 11.1009 0.440036 11.2786 0.152926 11.7982Z" fill="black" fill-opacity="0.85"/>
 </g>
</svg>
