<?xml version="1.0" encoding="UTF-8"?>
<!--Generator: Apple Native CoreSVG 326-->
<!DOCTYPE svg
PUBLIC "-//W3C//DTD SVG 1.1//EN"
       "http://www.w3.org/Graphics/SVG/1.1/DTD/svg11.dtd">
<svg version="1.1" xmlns="http://www.w3.org/2000/svg" xmlns:xlink="http://www.w3.org/1999/xlink" viewBox="0 0 28.061 30.2559">
 <g>
  <rect height="30.2559" opacity="0" width="28.061" x="0" y="0"/>
  <path d="M4.91136 15.3535C4.91136 16.0234 5.43089 16.5293 6.11449 16.5293L7.15355 16.5293C7.82347 16.5293 8.32933 16.0234 8.32933 15.3535L8.32933 14.0684L22.6028 14.0684L22.6028 15.3535C22.6028 16.0234 23.1086 16.5293 23.7785 16.5293L24.8176 16.5293C25.5012 16.5293 26.0071 16.0234 26.0071 15.3535L26.0071 9.39258C26.0071 7.90234 25.8293 6.98633 24.886 5.98828L23.9836 5.01758L23.0539 2.33789C22.5481 0.875 21.55 0.273438 20.3196 0.123047C19.718 0.0410156 17.7766 0 15.466 0C13.1555 0 11.2004 0.0410156 10.6125 0.123047C9.38207 0.273438 8.37035 0.875 7.87816 2.33789L6.94847 5.01758L6.04613 5.98828C5.10277 6.98633 4.91136 7.90234 4.91136 9.39258ZM9.39574 5.08594C8.97191 5.08594 8.82152 4.75781 8.95824 4.36133L9.50511 2.69336C9.71019 2.0918 10.0383 1.88672 10.5715 1.80469C11.1868 1.73633 12.9094 1.66797 15.466 1.66797C18.0227 1.66797 19.7317 1.73633 20.3469 1.80469C20.8801 1.88672 21.2082 2.0918 21.4133 2.69336L21.9739 4.36133C22.1106 4.75781 21.9602 5.08594 21.5364 5.08594ZM8.1516 10.6367C7.59105 10.6367 7.18089 10.2402 7.18089 9.67969L7.18089 8.28516C7.18089 7.75195 7.59105 7.35547 8.1516 7.35547C8.69847 7.35547 9.09496 7.73828 9.09496 8.28516L9.09496 9.67969C9.09496 10.2402 8.69847 10.6367 8.1516 10.6367ZM13.4289 10.2129C12.9914 10.2129 12.718 9.91211 12.718 9.43359L12.718 8.54492C12.718 8.08008 12.9914 7.79297 13.4289 7.79297L17.4621 7.79297C17.8996 7.79297 18.2004 8.08008 18.2004 8.54492L18.2004 9.43359C18.2004 9.91211 17.8996 10.2129 17.4621 10.2129ZM22.8625 10.6367C22.3293 10.6367 21.9192 10.2402 21.9192 9.67969L21.9192 8.28516C21.9192 7.76562 22.3293 7.35547 22.8625 7.35547C23.4231 7.35547 23.8196 7.73828 23.8196 8.28516L23.8196 9.67969C23.8196 10.2402 23.4231 10.6367 22.8625 10.6367ZM11.9114 18.8945L10.8723 18.1152C10.4895 17.8418 10.052 17.7051 9.58714 17.7051L7.3723 17.7051C6.82542 17.7051 6.62035 18.3613 7.05785 18.6758L9.14964 20.207C9.80589 20.6855 9.72386 21.3145 8.95824 21.6562L2.16332 24.5957C-0.461684 25.7168-0.707778 27.4395 1.47972 29.0527L2.51878 29.8184C2.9016 30.1055 3.3391 30.2422 3.81761 30.2422L6.01878 30.2422C6.57933 30.2422 6.77074 29.5859 6.34691 29.2715L4.25511 27.7266C3.59886 27.2617 3.68089 26.6191 4.43285 26.291L11.2414 23.3379C13.8528 22.2168 14.0989 20.5078 11.9114 18.8945ZM26.2258 18.9219L25.1868 18.1426C24.8039 17.8555 24.3664 17.7324 23.9016 17.7324L21.6868 17.7324C21.1399 17.7324 20.9348 18.375 21.3723 18.7031L23.4641 20.2344C24.1067 20.6992 24.0246 21.3418 23.2727 21.6699L16.4641 24.623C13.8528 25.7441 13.6067 27.4531 15.7942 29.0664L16.8332 29.832C17.216 30.1191 17.6535 30.2559 18.1184 30.2559L20.3332 30.2559C20.8801 30.2559 21.0852 29.5996 20.6477 29.2852L18.5559 27.7539C17.9133 27.2754 17.9953 26.6465 18.7473 26.3047L25.5559 23.3652C28.1672 22.2441 28.4133 20.5215 26.2258 18.9219Z" fill="#ff9500"/>
 </g>
</svg>
