<?xml version="1.0" encoding="UTF-8"?>
<!--Generator: Apple Native CoreSVG 326-->
<!DOCTYPE svg
PUBLIC "-//W3C//DTD SVG 1.1//EN"
       "http://www.w3.org/Graphics/SVG/1.1/DTD/svg11.dtd">
<svg version="1.1" xmlns="http://www.w3.org/2000/svg" xmlns:xlink="http://www.w3.org/1999/xlink" viewBox="0 0 27.0703 35.4512">
 <g>
  <rect height="35.4512" opacity="0" width="27.0703" x="0" y="0"/>
  <path d="M23.2969 32.0059C25.416 29.9141 26.5371 27.2344 26.7148 24.3359C26.7695 23.584 26.25 23.2012 25.7168 23.2012C25.0332 23.2012 24.6777 23.543 24.6094 24.418C24.4727 26.6738 23.543 28.8477 21.8477 30.5566C20.1387 32.252 17.9512 33.1816 15.709 33.3184C14.9297 33.373 14.4648 33.7559 14.4648 34.3438C14.4648 34.9863 14.9434 35.4375 15.6406 35.4375C18.5391 35.4375 21.2051 34.1113 23.2969 32.0059Z" fill="black" fill-opacity="0.85"/>
  <path d="M19.9062 28.6016C21.0957 27.4121 21.8066 25.9355 21.9844 24.2676C22.0801 23.5293 21.6016 23.0645 21 23.0645C20.3301 23.0645 20.0293 23.3789 19.9062 24.1445C19.7559 25.3066 19.2773 26.3184 18.457 27.1523C17.5957 28 16.6113 28.4922 15.5586 28.6016C14.7109 28.7246 14.3281 29.1621 14.3281 29.709C14.3281 30.2969 14.7656 30.707 15.4082 30.707C16.584 30.707 18.498 30.0098 19.9062 28.6016Z" fill="black" fill-opacity="0.85"/>
  <path d="M9.37891 26.9199C14.6426 26.9199 16.9941 25.7305 16.9941 22.709L16.9941 4.96289C16.9941 1.8457 14.123 0 9.37891 0C4.66211 0 1.79102 1.8457 1.79102 4.96289L1.79102 22.709C1.79102 25.7305 4.12891 26.9199 9.37891 26.9199ZM9.39258 11.252C8.38086 11.252 6.84961 11.334 6.30273 11.334C5.46875 11.334 5.08594 10.9785 5.00391 10.0898L4.82617 8.12109C4.67578 6.49414 5.75586 5.87891 9.39258 5.87891C13.0293 5.87891 14.0957 6.49414 13.959 8.12109L13.7949 10.0898C13.7266 10.9785 13.3301 11.334 12.4824 11.334C11.9492 11.334 10.3496 11.252 9.39258 11.252ZM9.39258 22.5586C5.75586 22.5586 4.58008 22.0254 4.86719 20.3438L5.01758 19.3867C5.23633 18.0469 6.26172 17.623 9.39258 17.623C12.5234 17.623 13.5762 18.0469 13.7812 19.3867L13.918 20.3438C14.1777 22.0254 13.0293 22.5586 9.39258 22.5586ZM2.95312 10.7734L2.95312 7.92969L1.20312 7.92969C0.519531 7.92969 0 8.43555 0 9.0918L0 9.61133C0 10.2539 0.519531 10.7734 1.20312 10.7734ZM15.832 10.7734L17.582 10.7734C18.2656 10.7734 18.7852 10.2539 18.7852 9.61133L18.7852 9.0918C18.7852 8.43555 18.2656 7.92969 17.582 7.92969L15.832 7.92969Z" fill="black" fill-opacity="0.85"/>
 </g>
</svg>
