<?xml version="1.0" encoding="UTF-8"?>
<!--Generator: Apple Native CoreSVG 326-->
<!DOCTYPE svg
PUBLIC "-//W3C//DTD SVG 1.1//EN"
       "http://www.w3.org/Graphics/SVG/1.1/DTD/svg11.dtd">
<svg version="1.1" xmlns="http://www.w3.org/2000/svg" xmlns:xlink="http://www.w3.org/1999/xlink" viewBox="0 0 33.2227 25.8535">
 <g>
  <rect height="25.8535" opacity="0" width="33.2227" x="0" y="0"/>
  <path d="M6.89062 25.8262L24.6914 25.8262C29.2988 25.8262 32.8672 22.3398 32.8672 17.8828C32.8672 13.3848 29.2305 9.99414 24.2539 9.99414C22.4355 6.38477 19.0996 4.18359 15.0527 4.18359C9.74805 4.18359 5.25 8.29883 4.77148 13.7539C2.03711 14.5332 0.191406 16.8301 0.191406 19.7285C0.191406 23.1055 2.63867 25.8262 6.89062 25.8262ZM6.86328 23.625C4.06055 23.625 2.39258 22.1074 2.39258 19.7969C2.39258 17.8281 3.65039 16.4199 5.86523 15.832C6.63086 15.6406 6.91797 15.2852 6.97266 14.4922C7.30078 9.85742 10.7734 6.38477 15.0527 6.38477C18.334 6.38477 20.8906 8.2168 22.4219 11.3613C22.7363 12.0312 23.1328 12.2637 23.9668 12.2637C28.2461 12.2637 30.666 14.8477 30.666 17.9375C30.666 21.123 28.1094 23.625 24.8418 23.625ZM1.91406 12.4414C2.9668 12.4414 3.81445 11.5938 3.81445 10.5273C3.81445 9.47461 2.9668 8.62695 1.91406 8.62695C0.847656 8.62695 0 9.47461 0 10.5273C0 11.5938 0.847656 12.4414 1.91406 12.4414ZM21.957 3.5957C22.9414 3.5957 23.748 2.78906 23.748 1.80469C23.748 0.820312 22.9414 0 21.957 0C20.9727 0 20.166 0.820312 20.166 1.80469C20.166 2.78906 20.9727 3.5957 21.957 3.5957ZM27.7129 8.32617C29.1895 8.32617 30.3789 7.13672 30.3789 5.63281C30.3789 4.14258 29.1895 2.95312 27.7129 2.95312C26.209 2.95312 25.0059 4.14258 25.0059 5.63281C25.0059 7.13672 26.209 8.32617 27.7129 8.32617Z" fill="black" fill-opacity="0.85"/>
  <path d="M12.0312 21.1094C13.8086 21.1094 14.9023 19.8242 14.9434 18.4297C14.957 17.9512 14.6699 17.623 14.2461 17.623C13.8359 17.623 13.6172 17.8555 13.5078 18.3203C13.3574 19.0176 12.9609 19.7559 12.0312 19.7559C10.6641 19.7559 10.2402 18.3066 10.2402 16.7344C10.2402 15.2578 10.6914 13.7676 12.0176 13.7676C12.9473 13.7676 13.3164 14.4922 13.4668 15.1895C13.5762 15.6543 13.7949 15.8867 14.2051 15.8867C14.6289 15.8867 14.916 15.5723 14.9023 15.0801C14.8613 13.6855 13.7676 12.4141 11.9902 12.4141C9.74805 12.4141 8.73633 14.3555 8.73633 16.7344C8.73633 19.0723 9.66602 21.1094 12.0312 21.1094ZM18.6484 21.1094C20.6309 21.1094 21.875 19.4141 21.875 16.7617C21.875 14.0957 20.6309 12.4141 18.6348 12.4141C16.6387 12.4141 15.3809 14.0957 15.3809 16.7617C15.3809 19.4141 16.6387 21.1094 18.6484 21.1094ZM18.6484 19.7559C17.5547 19.7559 16.8848 18.6484 16.8848 16.7617C16.8848 14.875 17.5547 13.7676 18.6348 13.7676C19.7148 13.7676 20.3848 14.875 20.3848 16.7617C20.3848 18.6484 19.7148 19.7559 18.6484 19.7559ZM22.791 21.6562L25.0059 21.6562C25.2793 21.6562 25.498 21.4102 25.498 21.1367C25.498 20.877 25.2656 20.6445 25.0059 20.6445L23.9531 20.6445L24.3906 20.1797C24.9375 19.6465 25.3203 19.1406 25.3203 18.5938C25.3203 17.8281 24.6914 17.2676 23.8164 17.2676C22.8867 17.2676 22.3125 17.9648 22.3125 18.5527C22.3125 18.8945 22.5586 19.0996 22.832 19.0996C23.1602 19.0996 23.3105 18.8672 23.3926 18.6758C23.4746 18.416 23.6113 18.2793 23.8301 18.2793C24.0352 18.2793 24.1855 18.4297 24.1855 18.6211C24.1855 18.9355 23.8848 19.291 23.584 19.5918L22.5312 20.6719C22.4082 20.7949 22.3262 21 22.3262 21.1641C22.3262 21.4375 22.5312 21.6562 22.791 21.6562Z" fill="black" fill-opacity="0.85"/>
 </g>
</svg>
