<?xml version="1.0" encoding="UTF-8"?>
<!--Generator: Apple Native CoreSVG 326-->
<!DOCTYPE svg
PUBLIC "-//W3C//DTD SVG 1.1//EN"
       "http://www.w3.org/Graphics/SVG/1.1/DTD/svg11.dtd">
<svg version="1.1" xmlns="http://www.w3.org/2000/svg" xmlns:xlink="http://www.w3.org/1999/xlink" viewBox="0 0 33.2227 25.8535">
 <g>
  <rect height="25.8535" opacity="0" width="33.2227" x="0" y="0"/>
  <path d="M6.89062 25.8262L24.6914 25.8262C29.2988 25.8262 32.8672 22.3398 32.8672 17.8828C32.8672 13.3848 29.2305 9.99414 24.2539 9.99414C22.4355 6.38477 19.0996 4.18359 15.0527 4.18359C9.74805 4.18359 5.25 8.29883 4.77148 13.7539C2.03711 14.5332 0.191406 16.8301 0.191406 19.7285C0.191406 23.1055 2.63867 25.8262 6.89062 25.8262ZM6.86328 23.625C4.06055 23.625 2.39258 22.1074 2.39258 19.7969C2.39258 17.8281 3.65039 16.4199 5.86523 15.832C6.63086 15.6406 6.91797 15.2852 6.97266 14.4922C7.30078 9.85742 10.7734 6.38477 15.0527 6.38477C18.334 6.38477 20.8906 8.2168 22.4219 11.3613C22.7363 12.0312 23.1328 12.2637 23.9668 12.2637C28.2461 12.2637 30.666 14.8477 30.666 17.9375C30.666 21.123 28.1094 23.625 24.8418 23.625ZM1.91406 12.4414C2.9668 12.4414 3.81445 11.5938 3.81445 10.5273C3.81445 9.47461 2.9668 8.62695 1.91406 8.62695C0.847656 8.62695 0 9.47461 0 10.5273C0 11.5938 0.847656 12.4414 1.91406 12.4414ZM21.957 3.5957C22.9414 3.5957 23.748 2.78906 23.748 1.80469C23.748 0.820312 22.9414 0 21.957 0C20.9727 0 20.166 0.820312 20.166 1.80469C20.166 2.78906 20.9727 3.5957 21.957 3.5957ZM27.7129 8.32617C29.1895 8.32617 30.3789 7.13672 30.3789 5.63281C30.3789 4.14258 29.1895 2.95312 27.7129 2.95312C26.209 2.95312 25.0059 4.14258 25.0059 5.63281C25.0059 7.13672 26.209 8.32617 27.7129 8.32617Z" fill="black" fill-opacity="0.85"/>
  <path d="M12.9336 21.1094C14.7246 21.1094 15.8047 19.8242 15.8594 18.4297C15.873 17.9512 15.5859 17.623 15.1484 17.623C14.7383 17.623 14.5332 17.8555 14.4238 18.3203C14.2734 19.0176 13.8633 19.7559 12.9336 19.7559C11.5801 19.7559 11.1562 18.3066 11.1562 16.7344C11.1562 15.2578 11.6074 13.7676 12.9199 13.7676C13.8496 13.7676 14.2188 14.4922 14.3828 15.1895C14.4922 15.6543 14.6973 15.8867 15.1074 15.8867C15.5449 15.8867 15.832 15.5723 15.8184 15.0801C15.7637 13.6855 14.6836 12.4141 12.8926 12.4141C10.6641 12.4141 9.65234 14.3555 9.65234 16.7344C9.65234 19.0723 10.5684 21.1094 12.9336 21.1094ZM19.5508 21.1094C21.5332 21.1094 22.791 19.4141 22.791 16.7617C22.791 14.0957 21.5332 12.4141 19.5508 12.4141C17.5547 12.4141 16.2832 14.0957 16.2832 16.7617C16.2832 19.4141 17.5547 21.1094 19.5508 21.1094ZM19.5508 19.7559C18.4707 19.7559 17.8008 18.6484 17.8008 16.7617C17.8008 14.875 18.4707 13.7676 19.5508 13.7676C20.6172 13.7676 21.2871 14.875 21.2871 16.7617C21.2871 18.6484 20.6172 19.7559 19.5508 19.7559Z" fill="black" fill-opacity="0.85"/>
 </g>
</svg>
