<?xml version="1.0" encoding="UTF-8"?>
<!--Generator: Apple Native CoreSVG 326-->
<!DOCTYPE svg
PUBLIC "-//W3C//DTD SVG 1.1//EN"
       "http://www.w3.org/Graphics/SVG/1.1/DTD/svg11.dtd">
<svg version="1.1" xmlns="http://www.w3.org/2000/svg" xmlns:xlink="http://www.w3.org/1999/xlink" viewBox="0 0 31.3022 28.998">
 <g>
  <rect height="28.998" opacity="0" width="31.3022" x="0" y="0"/>
  <path d="M0.229234 23.1465C1.43236 27.6035 2.6765 28.957 5.49291 28.957L21.7214 28.957C23.7449 28.957 25.0984 27.8633 25.6042 25.8125L30.7449 4.94922C31.4968 1.91406 30.0749 0 27.4089 0C24.196 0 21.5984 3.04883 22.8425 7.30078L23.1023 5.97461C19.9167 8.23047 18.2351 13.084 18.6726 18.8945L19.3015 18.0879C16.321 17.5684 12.8484 17.2812 9.40306 17.2812C2.08861 17.2812-0.891859 19.0586 0.229234 23.1465ZM2.3347 22.5586C1.73314 20.3711 3.40111 19.4824 9.40306 19.4824C14.2702 19.4824 17.7702 20.1387 19.3288 20.248C20.1628 20.2617 20.6824 19.7285 20.6687 18.8945C20.573 13.7539 21.9265 9.61133 24.3191 7.82031C24.8386 7.39648 24.948 7.12305 24.7976 6.19336C24.4285 3.62305 25.8503 2.20117 27.4089 2.20117C28.4206 2.20117 28.9675 3.03516 28.6394 4.375L23.4577 25.2793C23.2253 26.2363 22.6374 26.7559 21.7214 26.7559L5.49291 26.7559C3.96166 26.7559 3.33275 26.2637 2.3347 22.5586Z" fill="black" fill-opacity="0.85"/>
  <path d="M1.69212 9.16016C1.69212 11.1699 3.52416 13.1934 5.21947 13.1934C6.77806 13.1934 7.55736 11.7988 8.50072 9.32422L8.84252 9.25586L8.84252 11.9219C8.84252 13.0703 9.44408 13.6582 10.5515 13.6582C12.5476 13.6582 14.5847 11.8398 14.5847 10.1309C14.5847 8.55859 13.1765 7.7793 10.7019 6.84961L10.6335 6.49414L13.2995 6.49414C14.448 6.49414 15.0359 5.90625 15.0359 4.79883C15.0359 2.78906 13.2175 0.751953 11.5085 0.751953C9.94994 0.751953 9.15697 2.17383 8.22728 4.66211L7.87181 4.70312L7.87181 2.03711C7.87181 0.902344 7.29759 0.300781 6.19017 0.300781C4.16673 0.300781 2.1433 2.13281 2.1433 3.82812C2.1433 5.40039 3.56517 6.17969 6.05345 7.10938L6.0808 7.46484L3.42845 7.46484C2.28002 7.46484 1.69212 8.06641 1.69212 9.16016ZM8.364 8.35352C7.61205 8.35352 6.99681 7.73828 6.99681 6.97266C6.99681 6.2207 7.61205 5.60547 8.364 5.60547C9.11595 5.60547 9.73119 6.2207 9.73119 6.97266C9.73119 7.73828 9.11595 8.35352 8.364 8.35352Z" fill="black" fill-opacity="0.85"/>
 </g>
</svg>
