<?xml version="1.0" encoding="UTF-8"?>
<!--Generator: Apple Native CoreSVG 326-->
<!DOCTYPE svg
PUBLIC "-//W3C//DTD SVG 1.1//EN"
       "http://www.w3.org/Graphics/SVG/1.1/DTD/svg11.dtd">
<svg version="1.1" xmlns="http://www.w3.org/2000/svg" xmlns:xlink="http://www.w3.org/1999/xlink" viewBox="0 0 39.4507 28.9707">
 <g>
  <rect height="28.9707" opacity="0" width="39.4507" x="0" y="0"/>
  <path d="M0.229234 23.1328C1.43236 27.5898 2.6765 28.9434 5.49291 28.9434L21.448 28.9434C23.4714 28.9434 24.8249 27.8496 25.3308 25.7988L30.4714 4.93555C31.3054 1.53125 29.6101 0 27.6413 0C25.03 0 22.1863 2.78906 23.7859 7.30078L24.1824 5.61914C20.0671 7.7793 18.1941 12.7832 18.946 18.8945L19.4382 18.2109C16.6218 17.623 12.9441 17.2676 9.40306 17.2676C2.08861 17.2676-0.891859 19.0449 0.229234 23.1328Z" fill="black" fill-opacity="0.85"/>
  <path d="M31.9617 13.3711C31.7702 14.082 32.2624 14.5469 33.0007 14.3281L38.4285 12.7012C39.1394 12.4961 39.3171 11.7852 38.8113 11.2793L34.8874 7.15039C34.3679 6.60352 33.698 6.78125 33.5066 7.49219Z" fill="black" fill-opacity="0.85"/>
  <path d="M17.0183 8.49023L18.5632 2.59766C18.7546 1.90039 18.2624 1.42188 17.5515 1.64062L12.0827 3.28125C11.3992 3.48633 11.2077 4.18359 11.7136 4.70312L15.6511 8.80469C16.1706 9.35156 16.8269 9.21484 17.0183 8.49023Z" fill="black" fill-opacity="0.85"/>
 </g>
</svg>
