<?xml version="1.0" encoding="UTF-8"?>
<!--Generator: Apple Native CoreSVG 326-->
<!DOCTYPE svg
PUBLIC "-//W3C//DTD SVG 1.1//EN"
       "http://www.w3.org/Graphics/SVG/1.1/DTD/svg11.dtd">
<svg version="1.1" xmlns="http://www.w3.org/2000/svg" xmlns:xlink="http://www.w3.org/1999/xlink" viewBox="0 0 31.299 28.998">
 <g>
  <rect height="28.998" opacity="0" width="31.299" x="0" y="0"/>
  <path d="M30.7159 23.1465C31.837 19.0586 28.8565 17.2812 21.5421 17.2812C18.0967 17.2812 14.6241 17.5684 11.6299 18.0879L12.2725 18.8945C12.71 13.084 11.0284 8.23047 7.84284 5.97461L8.1026 7.30078C9.34674 3.04883 6.73542 0 3.52253 0C0.870182 0-0.551693 1.91406 0.20026 4.94922L5.34089 25.8125C5.84674 27.8633 7.20026 28.957 9.21003 28.957L25.4522 28.957C28.2686 28.957 29.5128 27.6035 30.7159 23.1465ZM28.6104 22.5586C27.6124 26.2637 26.9835 26.7559 25.4522 26.7559L9.21003 26.7559C8.30768 26.7559 7.71979 26.2363 7.48737 25.2793L2.30573 4.375C1.9776 3.03516 2.52448 2.20117 3.5362 2.20117C5.09479 2.20117 6.51667 3.62305 6.13385 6.19336C5.99714 7.12305 6.09284 7.39648 6.61237 7.82031C9.01862 9.61133 10.3721 13.7539 10.2628 18.8945C10.2628 19.7285 10.7823 20.2617 11.6163 20.248C13.1749 20.1387 16.6749 19.4824 21.5421 19.4824C27.544 19.4824 29.1983 20.3711 28.6104 22.5586Z" fill="black" fill-opacity="0.85"/>
 </g>
</svg>
