<?xml version="1.0" encoding="UTF-8"?>
<!--Generator: Apple Native CoreSVG 326-->
<!DOCTYPE svg
PUBLIC "-//W3C//DTD SVG 1.1//EN"
       "http://www.w3.org/Graphics/SVG/1.1/DTD/svg11.dtd">
<svg version="1.1" xmlns="http://www.w3.org/2000/svg" xmlns:xlink="http://www.w3.org/1999/xlink" viewBox="0 0 31.299 39.5527">
 <g>
  <rect height="39.5527" opacity="0" width="31.299" x="0" y="0"/>
  <path d="M30.7159 23.1465C31.837 19.0586 28.8565 17.2812 21.5421 17.2812C18.0967 17.2812 14.6241 17.5684 11.6299 18.1016L12.2725 18.8945C12.71 13.084 11.0284 8.24414 7.84284 5.97461L8.1026 7.30078C9.34674 3.04883 6.73542 0 3.52253 0C0.870182 0-0.551693 1.92773 0.20026 4.94922L5.34089 25.8125C5.84674 27.8633 7.20026 28.9707 9.21003 28.9707L25.4522 28.9707C28.2686 28.9707 29.5128 27.6035 30.7159 23.1465ZM28.6104 22.5723C27.6124 26.2637 26.9835 26.7695 25.4522 26.7695L9.21003 26.7695C8.30768 26.7695 7.71979 26.2363 7.48737 25.2793L2.30573 4.375C1.9776 3.03516 2.52448 2.20117 3.5362 2.20117C5.09479 2.20117 6.51667 3.62305 6.13385 6.19336C5.99714 7.12305 6.09284 7.39648 6.61237 7.82031C9.01862 9.61133 10.3721 13.7539 10.2628 18.9082C10.2628 19.7422 10.7823 20.2617 11.6163 20.248C13.1749 20.1387 16.6749 19.4824 21.5421 19.4824C27.544 19.4824 29.1983 20.3711 28.6104 22.5723Z" fill="black" fill-opacity="0.85"/>
  <path d="M21.0362 38.4727C21.0362 39.2109 21.6241 39.5254 22.2667 39.1289L27.1202 36.1758C27.7491 35.793 27.7354 35.0684 27.1202 34.6992L22.2667 31.7188C21.6241 31.3223 21.0362 31.6641 21.0362 32.3887Z" fill="black" fill-opacity="0.85"/>
  <path d="M13.9405 38.4727L13.9405 32.3887C13.9405 31.6641 13.3526 31.3223 12.71 31.7188L7.84284 34.6992C7.24128 35.0684 7.2276 35.793 7.84284 36.1758L12.6964 39.1289C13.3389 39.5254 13.9405 39.2109 13.9405 38.4727Z" fill="black" fill-opacity="0.85"/>
 </g>
</svg>
