<?xml version="1.0" encoding="UTF-8"?>
<!--Generator: Apple Native CoreSVG 326-->
<!DOCTYPE svg
PUBLIC "-//W3C//DTD SVG 1.1//EN"
       "http://www.w3.org/Graphics/SVG/1.1/DTD/svg11.dtd">
<svg version="1.1" xmlns="http://www.w3.org/2000/svg" xmlns:xlink="http://www.w3.org/1999/xlink" viewBox="0 0 31.0425 28.9707">
 <g>
  <rect height="28.9707" opacity="0" width="31.0425" x="0" y="0"/>
  <path d="M0.229234 23.1328C1.43236 27.5898 2.6765 28.9434 5.49291 28.9434L21.448 28.9434C23.4714 28.9434 24.8249 27.8496 25.3308 25.7988L30.4714 4.93555C31.3054 1.53125 29.6101 0 27.6413 0C25.03 0 22.1863 2.78906 23.7859 7.30078L24.1824 5.61914C20.0671 7.7793 18.1941 12.7832 18.946 18.8945L19.4382 18.2109C16.6218 17.623 12.9441 17.2676 9.40306 17.2676C2.08861 17.2676-0.891859 19.0449 0.229234 23.1328Z" fill="black" fill-opacity="0.85"/>
  <path d="M1.69212 9.14648C1.69212 11.1562 3.52416 13.1797 5.21947 13.1797C6.77806 13.1797 7.55736 11.7852 8.50072 9.31055L8.84252 9.24219L8.84252 11.9082C8.84252 13.0566 9.44408 13.6445 10.5515 13.6445C12.5476 13.6445 14.5847 11.8262 14.5847 10.1172C14.5847 8.54492 13.1765 7.76562 10.7019 6.83594L10.6335 6.48047L13.2995 6.48047C14.448 6.48047 15.0359 5.89258 15.0359 4.78516C15.0359 2.77539 13.2175 0.738281 11.5085 0.738281C9.94994 0.738281 9.15697 2.16016 8.22728 4.64844L7.87181 4.68945L7.87181 2.02344C7.87181 0.888672 7.29759 0.287109 6.19017 0.287109C4.16673 0.287109 2.1433 2.11914 2.1433 3.81445C2.1433 5.38672 3.56517 6.16602 6.05345 7.0957L6.0808 7.45117L3.42845 7.45117C2.28002 7.45117 1.69212 8.05273 1.69212 9.14648ZM8.364 8.33984C7.61205 8.33984 6.99681 7.72461 6.99681 6.95898C6.99681 6.20703 7.61205 5.5918 8.364 5.5918C9.11595 5.5918 9.73119 6.20703 9.73119 6.95898C9.73119 7.72461 9.11595 8.33984 8.364 8.33984Z" fill="black" fill-opacity="0.85"/>
 </g>
</svg>
