<?xml version="1.0" encoding="UTF-8"?>
<!--Generator: Apple Native CoreSVG 326-->
<!DOCTYPE svg
PUBLIC "-//W3C//DTD SVG 1.1//EN"
       "http://www.w3.org/Graphics/SVG/1.1/DTD/svg11.dtd">
<svg version="1.1" xmlns="http://www.w3.org/2000/svg" xmlns:xlink="http://www.w3.org/1999/xlink" viewBox="0 0 31.0425 28.9707">
 <g>
  <rect height="28.9707" opacity="0" width="31.0425" x="0" y="0"/>
  <path d="M0.229234 23.1328C1.43236 27.5898 2.6765 28.9434 5.49291 28.9434L21.448 28.9434C23.4714 28.9434 24.8249 27.8496 25.3308 25.7988L30.4714 4.93555C31.3054 1.53125 29.6101 0 27.6413 0C25.03 0 22.1863 2.78906 23.7859 7.30078L24.1824 5.61914C20.0671 7.7793 18.1941 12.7832 18.946 18.8945L19.4382 18.2109C16.6218 17.623 12.9441 17.2676 9.40306 17.2676C2.08861 17.2676-0.891859 19.0449 0.229234 23.1328Z" fill="black" fill-opacity="0.85"/>
  <path d="M3.60619 12.7285L10.1687 12.7285C10.6745 12.7285 11.0437 12.373 11.0437 11.8809C11.0437 11.375 10.6745 11.0195 10.1687 11.0195L5.53392 11.0195L5.53392 10.9785L8.50072 7.7793C9.55345 6.6582 10.3464 5.67383 10.3464 4.26562C10.3464 2.32422 8.82884 1.03906 6.44994 1.03906C4.68627 1.03906 3.10033 2.10547 2.69017 3.55469C2.64916 3.75977 2.62181 3.89648 2.62181 4.07422C2.62181 4.58008 2.94994 4.92188 3.46947 4.92188C3.93431 4.92188 4.16673 4.63477 4.39916 4.25195C4.72728 3.5 5.38353 2.7207 6.53197 2.7207C7.69408 2.7207 8.48705 3.4043 8.48705 4.40234C8.48705 5.29102 7.72142 6.04297 6.99681 6.82227L3.0183 11.1016C2.79955 11.334 2.6765 11.5801 2.6765 11.8809C2.6765 12.4004 3.03197 12.7285 3.60619 12.7285Z" fill="black" fill-opacity="0.85"/>
 </g>
</svg>
