<?xml version="1.0" encoding="UTF-8"?>
<!--Generator: Apple Native CoreSVG 326-->
<!DOCTYPE svg
PUBLIC "-//W3C//DTD SVG 1.1//EN"
       "http://www.w3.org/Graphics/SVG/1.1/DTD/svg11.dtd">
<svg version="1.1" xmlns="http://www.w3.org/2000/svg" xmlns:xlink="http://www.w3.org/1999/xlink" viewBox="0 0 31.3022 33.3544">
 <g>
  <rect height="33.3544" opacity="0" width="31.3022" x="0" y="0"/>
  <path d="M0.229234 25.3246C1.43236 29.7817 2.6765 31.1352 5.49291 31.1352L21.7214 31.1352C23.7449 31.1352 25.0984 30.0414 25.6042 27.9907L30.7449 7.12737C31.4968 4.09222 30.0749 2.17815 27.4089 2.17815C24.196 2.17815 21.5984 5.22698 22.8425 9.47893L23.1023 8.15276C19.9167 10.4086 18.2351 15.2621 18.6726 21.0727L19.3015 20.266C16.321 19.7465 12.8484 19.4594 9.40306 19.4594C2.08861 19.4594-0.891859 21.2367 0.229234 25.3246ZM2.3347 24.7367C1.73314 22.5492 3.40111 21.6606 9.40306 21.6606C14.2702 21.6606 17.7702 22.3168 19.3288 22.4262C20.1628 22.4399 20.6824 21.9067 20.6687 21.0727C20.573 15.9321 21.9265 11.7895 24.3191 9.99847C24.8386 9.57464 24.948 9.3012 24.7976 8.37151C24.4285 5.8012 25.8503 4.37933 27.4089 4.37933C28.4206 4.37933 28.9675 5.21331 28.6394 6.55315L23.4577 27.4575C23.2253 28.4145 22.6374 28.934 21.7214 28.934L5.49291 28.934C3.96166 28.934 3.33275 28.4418 2.3347 24.7367Z" fill="black" fill-opacity="0.85"/>
  <path d="M19.78 4.77581C19.5886 3.34026 20.2312 2.00042 21.4753 1.4262C21.8718 1.22112 21.9538 0.824638 21.8308 0.469169C21.6804 0.100028 21.2566-0.159737 20.7234 0.1137C19.0417 0.947685 18.03 3.05315 18.3308 5.10393C18.4128 5.58245 18.8913 5.81487 19.3425 5.66448C19.7117 5.51409 19.862 5.18597 19.78 4.77581ZM16.0339 15.2075C15.487 13.2114 16.157 10.436 18.5632 9.15081C19.0554 8.89104 19.1101 8.4262 18.9324 8.09808C18.7546 7.78362 18.3581 7.59222 17.8386 7.83831C14.9812 9.19183 13.8874 13.02 14.5847 15.6313C14.7077 16.0961 15.1863 16.2739 15.5554 16.1782C15.9109 16.0825 16.1843 15.7407 16.0339 15.2075Z" fill="black" fill-opacity="0.85"/>
 </g>
</svg>
