<?xml version="1.0" encoding="UTF-8"?>
<!--Generator: Apple Native CoreSVG 326-->
<!DOCTYPE svg
PUBLIC "-//W3C//DTD SVG 1.1//EN"
       "http://www.w3.org/Graphics/SVG/1.1/DTD/svg11.dtd">
<svg version="1.1" xmlns="http://www.w3.org/2000/svg" xmlns:xlink="http://www.w3.org/1999/xlink" viewBox="0 0 37.2559 31.8418">
 <g>
  <rect height="31.8418" opacity="0" width="37.2559" x="0" y="0"/>
  <path d="M7.35547 31.8418L8.8457 31.8418C10.3496 31.8418 11.1699 31.1445 11.1699 29.8184C11.1699 28.8887 10.4316 28.0957 9.00977 27.8223L9.00977 24.5137C9.00977 23.1328 9.2832 22.2988 10.1445 20.9453C12.6191 21.8613 14.1777 22.1484 16.1191 22.1484C18.375 22.1484 20.8359 21.793 22.1348 21.3965C22.4766 22.5449 22.791 23.8164 22.791 25.1836C22.791 26.8105 22.5996 28.4512 22.5996 29.75C22.5996 31.1445 23.3926 31.8418 24.8555 31.8418L26.4824 31.8418C27.9453 31.8418 28.8203 31.0762 28.8203 29.8184C28.8203 28.752 28.2461 28.0684 27.0156 27.8906L27.0156 26.3867C27.0156 18.8398 32.457 20.959 32.5938 11.6484C35.1094 11.457 36.9004 9.84375 36.9004 8.64062C36.9004 6.86328 35.041 5.04492 32.8809 3.5C32.457 1.95508 31.582 0.738281 30.9531 0.738281C30.3516 0.738281 29.3262 1.88672 28.8477 3.5957C27.7266 4.70312 26.7969 6.04297 26.1133 7.28711L25.5938 8.18945C25.1016 9.11914 24.6777 9.69336 24.0898 9.69336C18.5801 9.69336 16.5566 8.92773 11.457 8.92773C9.03711 8.92773 7.51953 9.74805 6.57617 10.8691C6.05664 11.457 5.70117 11.6074 4.85352 11.2656C3.17188 10.6367 1.98242 8.98242 1.98242 6.86328C1.98242 4.0332 4.22461 2.07812 7.42383 2.07812C8.64062 2.07812 9.87109 2.32422 11.3203 2.91211C12.7148 3.45898 13.3984 1.59961 12.0996 1.05273C10.418 0.382812 8.8457 0.0957031 7.42383 0.0957031C3.04883 0.0957031 0 2.87109 0 6.86328C0 9.80273 1.54492 12.1133 3.95117 13.043C4.68945 13.3438 5.00391 13.877 4.99023 14.6562C4.94922 15.5176 4.94922 16.1191 4.94922 16.5293C4.94922 21.082 2.98047 21.6973 3.52734 23.7344L5.22266 30.0371C5.55078 31.2402 6.26172 31.8418 7.35547 31.8418ZM32.6621 7.71094C32.2109 7.71094 31.8555 7.36914 31.8555 6.91797C31.8555 6.4668 32.2109 6.11133 32.6621 6.11133C33.0996 6.11133 33.4551 6.4668 33.4551 6.91797C33.4551 7.36914 33.0996 7.71094 32.6621 7.71094Z" fill="black" fill-opacity="0.85"/>
 </g>
</svg>
