<?xml version="1.0" encoding="UTF-8"?>
<!--Generator: Apple Native CoreSVG 326-->
<!DOCTYPE svg
PUBLIC "-//W3C//DTD SVG 1.1//EN"
       "http://www.w3.org/Graphics/SVG/1.1/DTD/svg11.dtd">
<svg version="1.1" xmlns="http://www.w3.org/2000/svg" xmlns:xlink="http://www.w3.org/1999/xlink" viewBox="0 0 28.2461 27.9043">
 <g>
  <rect height="27.9043" opacity="0" width="28.2461" x="0" y="0"/>
  <path d="M13.9453 27.9043C21.6426 27.9043 27.8906 21.6562 27.8906 13.959C27.8906 6.27539 21.6426 0.0136719 13.9453 0.0136719C6.26172 0.0136719 0 6.27539 0 13.959C0 21.6562 6.26172 27.9043 13.9453 27.9043Z" fill="black" fill-opacity="0.85"/>
  <path d="M8.83203 21.9844C8.29883 21.9844 7.92969 21.6836 7.7793 21.082L6.94531 17.9922C6.64453 16.9805 7.62891 16.6523 7.62891 14.4375C7.62891 14.1914 7.62891 13.8906 7.65625 13.5078C7.65625 13.1387 7.50586 12.8652 7.13672 12.7148C5.93359 12.2637 5.18164 11.1152 5.18164 9.65234C5.18164 7.68359 6.68555 6.30273 8.8457 6.30273C9.57031 6.30273 10.3359 6.43945 11.1699 6.78125C11.8262 7.05469 11.4844 8.01172 10.7734 7.72461C10.0625 7.4375 9.44727 7.31445 8.8457 7.31445C7.28711 7.31445 6.17969 8.27148 6.17969 9.65234C6.17969 10.7051 6.75391 11.498 7.57422 11.8262C8.01172 11.9766 8.18945 11.9082 8.43555 11.6074C8.90039 11.0742 9.65234 10.6641 10.8418 10.6641C13.3574 10.6641 14.3555 11.0469 17.0625 11.0469C17.3633 11.0469 17.5684 10.7734 17.8008 10.3086L18.0742 9.87109C18.4023 9.24219 18.8535 8.58594 19.4141 8.05273C19.6602 7.20508 20.166 6.63086 20.4668 6.63086C20.7676 6.63086 21.1914 7.24609 21.4102 7.99805C22.4629 8.75 23.3789 9.65234 23.3789 10.5273C23.3789 11.1289 22.4902 11.9219 21.2598 12.0176C21.1777 16.6113 18.5254 15.5723 18.5254 19.291L18.5254 20.0293C19.1133 20.1113 19.3867 20.4531 19.3867 20.9727C19.3867 21.6016 18.9629 21.9844 18.2383 21.9844L17.4453 21.9844C16.7207 21.9844 16.3379 21.6289 16.3379 20.9316C16.3379 20.3027 16.4336 19.4961 16.4336 18.6895C16.4336 18.0332 16.2695 17.3906 16.1055 16.8301C15.4629 17.0078 14.2461 17.1992 13.125 17.1992C12.1816 17.1992 11.4023 17.0625 10.1855 16.5977C9.77539 17.2812 9.625 17.6914 9.625 18.3613L9.625 20.002C10.3223 20.1113 10.7051 20.5215 10.7051 20.9727C10.7051 21.6289 10.2812 21.9844 9.55664 21.9844ZM21.2188 9.98047C21.3828 10.0215 21.5605 9.93945 21.6016 9.76172C21.6426 9.59766 21.5469 9.40625 21.3828 9.36523C21.1914 9.31055 21.0273 9.43359 20.9863 9.59766C20.9453 9.77539 21.0273 9.92578 21.2188 9.98047Z" fill="white"/>
 </g>
</svg>
