<?xml version="1.0" encoding="UTF-8"?>
<!--Generator: Apple Native CoreSVG 326-->
<!DOCTYPE svg
PUBLIC "-//W3C//DTD SVG 1.1//EN"
       "http://www.w3.org/Graphics/SVG/1.1/DTD/svg11.dtd">
<svg version="1.1" xmlns="http://www.w3.org/2000/svg" xmlns:xlink="http://www.w3.org/1999/xlink" viewBox="0 0 30.9258 30.584">
 <g>
  <rect height="30.584" opacity="0" width="30.9258" x="0" y="0"/>
  <path d="M15.2852 30.5703C23.6797 30.5703 30.5703 23.6797 30.5703 15.2852C30.5703 6.89062 23.6797 0 15.2852 0C6.89062 0 0 6.89062 0 15.2852C0 23.6797 6.89062 30.5703 15.2852 30.5703ZM15.2852 25.4844C9.65234 25.4844 5.08594 20.918 5.08594 15.2852C5.08594 9.63867 9.65234 5.08594 15.2852 5.08594C20.9316 5.08594 25.4844 9.63867 25.4844 15.2852C25.4844 20.918 20.9316 25.4844 15.2852 25.4844Z" fill="black" fill-opacity="0.85"/>
  <path d="M15.3945 21.2871C17.4453 21.2871 19.3184 20.3848 19.9746 18.5664C20.0566 18.3477 20.0977 18.1562 20.0977 17.9238C20.0977 17.4727 19.8105 17.1992 19.3594 17.1992C18.9355 17.1992 18.7168 17.4316 18.5938 17.8281C18.1836 19.0859 16.8848 19.8789 15.3945 19.8789C12.8379 19.8789 11.6895 17.6367 11.6895 15.1621C11.6895 12.6738 12.9062 10.4863 15.3809 10.4863C16.8301 10.4863 18.1152 11.3477 18.498 12.5508C18.6348 12.9609 18.8398 13.1797 19.2637 13.1797C19.7012 13.1797 20.002 12.9062 20.002 12.4551C20.002 12.1406 19.9062 11.8809 19.7969 11.6348C19.0586 9.9668 17.2949 9.06445 15.3809 9.06445C12.0039 9.06445 10.0215 11.6348 10.0215 15.1621C10.0215 18.6211 11.8809 21.2871 15.3945 21.2871ZM15.2852 22.873C15.5586 22.873 15.7363 22.6953 15.7363 22.4082L15.7363 7.9707C15.7363 7.71094 15.5586 7.50586 15.2852 7.50586C15.0254 7.50586 14.8203 7.71094 14.8203 7.9707L14.8203 22.4082C14.8203 22.6816 15.0254 22.873 15.2852 22.873Z" fill="black" fill-opacity="0.85"/>
 </g>
</svg>
