<?xml version="1.0" encoding="UTF-8"?>
<!--Generator: Apple Native CoreSVG 326-->
<!DOCTYPE svg
PUBLIC "-//W3C//DTD SVG 1.1//EN"
       "http://www.w3.org/Graphics/SVG/1.1/DTD/svg11.dtd">
<svg version="1.1" xmlns="http://www.w3.org/2000/svg" xmlns:xlink="http://www.w3.org/1999/xlink" viewBox="0 0 33.291 27.3099">
 <g>
  <rect height="27.3099" opacity="0" width="33.291" x="0" y="0"/>
  <path d="M32.9355 16.3962C32.9355 7.78289 26.3184 0.714533 17.8965 0.00359537C17.459-0.0374203 17.1309 0.277033 17.1309 0.714533L17.1309 5.18524C17.1309 5.55438 17.3906 5.84149 17.7598 5.86883C22.9961 6.51141 27.0703 10.9821 27.0703 16.3962C27.0703 18.8571 26.2227 21.1266 24.7324 23.027C24.541 23.2595 24.5547 23.5602 24.7598 23.779L28.0273 27.0329C28.3281 27.3337 28.793 27.3337 29.0664 27.0055C31.4863 24.1345 32.9355 20.4294 32.9355 16.3962Z" fill="black" fill-opacity="0.85"/>
  <path d="M0 16.3962C0 20.443 1.44922 24.1481 3.86914 27.0192C4.14258 27.3473 4.59375 27.3337 4.9082 27.0329L8.17578 23.779C8.38086 23.5602 8.39453 23.2595 8.20312 23.027C6.69922 21.1266 5.86523 18.8571 5.86523 16.3962C5.86523 10.9821 9.93945 6.51141 15.1758 5.86883C15.5449 5.84149 15.8047 5.55438 15.8047 5.18524L15.8047 0.714533C15.8047 0.277033 15.4766-0.0374203 15.0391 0.00359537C6.61719 0.714533 0 7.78289 0 16.3962Z" fill="black" fill-opacity="0.85"/>
  <path d="M16.5566 22.5895C18.6211 22.5895 20.4805 21.6872 21.1367 19.8552C21.2188 19.6501 21.2598 19.445 21.2598 19.2126C21.2598 18.7751 20.9727 18.488 20.5352 18.488C20.0977 18.488 19.8789 18.7204 19.7559 19.1169C19.3457 20.3747 18.0469 21.1677 16.5566 21.1677C14 21.1677 12.8516 18.9255 12.8516 16.4645C12.8516 13.9626 14.082 11.7751 16.543 11.7751C17.9922 11.7751 19.2773 12.6364 19.6602 13.8395C19.7969 14.2497 20.002 14.4684 20.4258 14.4684C20.8633 14.4684 21.1641 14.2087 21.1641 13.7438C21.1641 13.4294 21.082 13.1833 20.9727 12.9235C20.2207 11.2555 18.457 10.3532 16.543 10.3532C13.166 10.3532 11.1836 12.9372 11.1836 16.4645C11.1836 19.9235 13.043 22.5895 16.5566 22.5895ZM16.4473 24.1755C16.7207 24.1755 16.9121 23.9841 16.9121 23.7106L16.9121 9.25945C16.9121 8.99969 16.7207 8.79461 16.4473 8.79461C16.1875 8.79461 15.9824 8.99969 15.9824 9.25945L15.9824 23.7106C15.9824 23.9704 16.1875 24.1755 16.4473 24.1755Z" fill="black" fill-opacity="0.85"/>
 </g>
</svg>
