<?xml version="1.0" encoding="UTF-8"?>
<!--Generator: Apple Native CoreSVG 326-->
<!DOCTYPE svg
PUBLIC "-//W3C//DTD SVG 1.1//EN"
       "http://www.w3.org/Graphics/SVG/1.1/DTD/svg11.dtd">
<svg version="1.1" xmlns="http://www.w3.org/2000/svg" xmlns:xlink="http://www.w3.org/1999/xlink" viewBox="0 0 30.9258 30.584">
 <g>
  <rect height="30.584" opacity="0" width="30.9258" x="0" y="0"/>
  <path d="M15.2852 30.5703C23.6797 30.5703 30.5703 23.6797 30.5703 15.2852C30.5703 6.89062 23.6797 0 15.2852 0C6.89062 0 0 6.89062 0 15.2852C0 23.6797 6.89062 30.5703 15.2852 30.5703ZM15.2852 25.4844C9.65234 25.4844 5.08594 20.918 5.08594 15.2852C5.08594 9.63867 9.65234 5.08594 15.2852 5.08594C20.9316 5.08594 25.4844 9.63867 25.4844 15.2852C25.4844 20.918 20.9316 25.4844 15.2852 25.4844Z" fill="black" fill-opacity="0.85"/>
  <path d="M15.2852 20.002C16.4746 20.002 17.6504 19.5781 18.3887 18.8535C18.8262 18.4297 19.168 17.8008 19.168 17.3223C19.168 16.8848 18.8398 16.625 18.457 16.625C18.0742 16.625 17.9102 16.8711 17.7598 17.1445C17.2402 18.1562 16.4746 18.6758 15.2988 18.6758C13.3574 18.6758 12.4277 17.1855 12.4277 15.2031C12.4277 13.207 13.3848 11.7441 15.2852 11.7441C16.4473 11.7441 17.2949 12.2363 17.7461 13.2754C17.8828 13.6035 18.1289 13.7812 18.457 13.7812C18.8672 13.7812 19.1543 13.5215 19.1543 13.084C19.1543 12.5645 18.7852 11.9902 18.3613 11.5664C17.623 10.8145 16.4883 10.418 15.2715 10.418C12.4824 10.418 10.8418 12.4004 10.8418 15.2031C10.8418 18.2246 12.6465 20.002 15.2852 20.002ZM15.2305 21.6152C15.5039 21.6152 15.709 21.4102 15.709 21.1367L15.709 9.26953C15.709 9.00977 15.5039 8.80469 15.2305 8.80469C14.9707 8.80469 14.7656 9.00977 14.7656 9.26953L14.7656 21.1367C14.7656 21.4102 14.9707 21.6152 15.2305 21.6152Z" fill="black" fill-opacity="0.85"/>
 </g>
</svg>
