<?xml version="1.0" encoding="UTF-8"?>
<!--Generator: Apple Native CoreSVG 326-->
<!DOCTYPE svg
PUBLIC "-//W3C//DTD SVG 1.1//EN"
       "http://www.w3.org/Graphics/SVG/1.1/DTD/svg11.dtd">
<svg version="1.1" xmlns="http://www.w3.org/2000/svg" xmlns:xlink="http://www.w3.org/1999/xlink" viewBox="0 0 27.5488 24.0215">
 <g>
  <rect height="24.0215" opacity="0" width="27.5488" x="0" y="0"/>
  <path d="M4.0332 8.03906L6.33008 8.03906L6.33008 3.41797C6.33008 2.73438 6.78125 2.29688 7.4375 2.29688L19.7422 2.29688C20.4121 2.29688 20.8496 2.73438 20.8496 3.41797L20.8496 8.03906L23.1465 8.03906L23.1465 3.4043C23.1465 1.35352 21.8203 0 19.8652 0L7.32812 0C5.35938 0 4.0332 1.35352 4.0332 3.4043ZM0 17.9375C0 19.9062 1.29883 21.2051 3.24023 21.2051L23.9531 21.2051C25.8809 21.2051 27.1934 19.9062 27.1934 17.9375L27.1934 9.625C27.1934 7.66992 25.8809 6.35742 23.9531 6.35742L22.3535 6.35742C20.4121 6.35742 19.1133 7.66992 19.1133 9.625L19.1133 13.1934L8.08008 13.1934L8.08008 9.625C8.08008 7.66992 6.76758 6.35742 4.83984 6.35742L3.24023 6.35742C1.29883 6.35742 0 7.66992 0 9.625ZM2.32422 17.9102L2.32422 9.65234C2.32422 9.05078 2.73438 8.6543 3.34961 8.6543L4.73047 8.6543C5.3457 8.6543 5.75586 9.05078 5.75586 9.65234L5.75586 15.4902L21.4375 15.4902L21.4375 9.65234C21.4375 9.05078 21.8477 8.6543 22.4629 8.6543L23.8438 8.6543C24.459 8.6543 24.8691 9.05078 24.8691 9.65234L24.8691 17.9102C24.8691 18.5117 24.459 18.9082 23.8438 18.9082L3.34961 18.9082C2.73438 18.9082 2.32422 18.5117 2.32422 17.9102ZM4.97656 23.9941L5.82422 23.9941C6.5625 23.9941 7.04102 23.5293 7.04102 22.791L7.04102 19.8926L3.75977 19.8926L3.75977 22.791C3.75977 23.5293 4.23828 23.9941 4.97656 23.9941ZM21.3691 23.9941L22.2031 23.9941C22.9414 23.9941 23.4199 23.5293 23.4199 22.791L23.4199 19.8926L20.1523 19.8926L20.1523 22.791C20.1523 23.5293 20.6309 23.9941 21.3691 23.9941Z" fill="black" fill-opacity="0.85"/>
 </g>
</svg>
