<?xml version="1.0" encoding="UTF-8"?>
<!--Generator: Apple Native CoreSVG 326-->
<!DOCTYPE svg
PUBLIC "-//W3C//DTD SVG 1.1//EN"
       "http://www.w3.org/Graphics/SVG/1.1/DTD/svg11.dtd">
<svg version="1.1" xmlns="http://www.w3.org/2000/svg" xmlns:xlink="http://www.w3.org/1999/xlink" viewBox="0 0 20.125 29.627">
 <g>
  <rect height="29.627" opacity="0" width="20.125" x="0" y="0"/>
  <path d="M3.47266 10.1445L16.2969 10.1445C17.9102 10.1445 18.6758 9.40625 18.6758 7.83398L18.6758 2.31055C18.6758 0.738281 17.9102 0 16.2969 0L3.47266 0C1.85938 0 1.09375 0.738281 1.09375 2.31055L1.09375 7.83398C1.09375 9.40625 1.85938 10.1445 3.47266 10.1445ZM4.23828 7.84766C3.69141 7.84766 3.39062 7.57422 3.39062 7.04102L3.39062 3.08984C3.39062 2.58398 3.69141 2.29688 4.23828 2.29688L15.5312 2.29688C16.0781 2.29688 16.3789 2.58398 16.3789 3.08984L16.3789 7.04102C16.3789 7.57422 16.0781 7.84766 15.5312 7.84766ZM3.89648 14.752L6.50781 14.752L6.50781 8.94141L3.89648 8.94141ZM13.2617 14.752L15.873 14.752L15.873 8.94141L13.2617 8.94141ZM2.25586 20.3301L17.5137 20.3301C19.0176 20.3301 19.7695 19.6191 19.7695 18.1562L19.7695 16.0781C19.7695 14.6152 19.0176 13.9043 17.5137 13.9043L2.25586 13.9043C0.751953 13.9043 0 14.6152 0 16.0781L0 18.1562C0 19.6191 0.751953 20.3301 2.25586 20.3301ZM2.88477 18.0332C2.54297 18.0332 2.29688 17.8145 2.29688 17.5L2.29688 16.7344C2.29688 16.4199 2.54297 16.2012 2.88477 16.2012L16.8848 16.2012C17.2266 16.2012 17.4727 16.4199 17.4727 16.7344L17.4727 17.5C17.4727 17.8145 17.2266 18.0332 16.8848 18.0332ZM2.58398 29.5996L3.00781 29.5996C3.67773 29.5996 4.14258 29.1348 4.14258 28.4648L4.14258 19.6191L1.44922 19.6191L1.44922 28.4648C1.44922 29.1348 1.91406 29.5996 2.58398 29.5996ZM3.43164 23.5156L16.3379 23.5156L16.3379 21.4512L3.43164 21.4512ZM16.7617 29.5996L17.1855 29.5996C17.8555 29.5996 18.3203 29.1348 18.3203 28.4648L18.3203 19.6191L15.627 19.6191L15.627 28.4648C15.627 29.1348 16.0918 29.5996 16.7617 29.5996Z" fill="black" fill-opacity="0.85"/>
 </g>
</svg>
