<?xml version="1.0" encoding="UTF-8"?>
<!--Generator: Apple Native CoreSVG 326-->
<!DOCTYPE svg
PUBLIC "-//W3C//DTD SVG 1.1//EN"
       "http://www.w3.org/Graphics/SVG/1.1/DTD/svg11.dtd">
<svg version="1.1" xmlns="http://www.w3.org/2000/svg" xmlns:xlink="http://www.w3.org/1999/xlink" viewBox="0 0 29.75 25.4434">
 <g>
  <rect height="25.4434" opacity="0" width="29.75" x="0" y="0"/>
  <path d="M17.418 5.12695L22.9961 10.7324L25.2383 8.47656C25.7305 7.98438 26.373 8.28516 26.5508 8.98242L28.5742 16.9941C28.7383 17.623 28.1914 18.1426 27.5762 17.9785L19.5781 15.9551C18.8809 15.7773 18.5801 15.1484 19.0723 14.6562L21.3281 12.4004L15.9414 6.94531C15.8184 6.82227 15.6816 6.75391 15.5586 6.75391C15.4492 6.75391 15.3125 6.82227 15.1895 6.94531L10.1582 12.0996C9.55664 12.7148 8.95508 13.002 8.3125 13.002C7.66992 13.002 7.0957 12.7285 6.4668 12.0996L2.20117 7.77673L2.20117 4.43297L7.94336 10.2812C8.06641 10.4043 8.18945 10.4727 8.3125 10.4727C8.43555 10.4727 8.55859 10.4043 8.68164 10.2812L13.7129 5.12695C14.3008 4.51172 14.916 4.22461 15.5586 4.22461C16.2148 4.22461 16.8027 4.51172 17.418 5.12695Z" fill="black" fill-opacity="0.85"/>
  <path d="M0 24.3633C0 25.0195 0.4375 25.4434 1.09375 25.4434L28.2871 25.4434C28.8887 25.4434 29.3945 24.9648 29.3945 24.3496C29.3945 23.748 28.8887 23.2559 28.2871 23.2559L2.58398 23.2559C2.29688 23.2559 2.20117 23.1602 2.20117 22.873L2.20117 1.25781C2.20117 0.669922 1.70898 0.164062 1.10742 0.164062C0.492188 0.164062 0 0.669922 0 1.25781Z" fill="black" fill-opacity="0.85"/>
 </g>
</svg>
