<?xml version="1.0" encoding="UTF-8"?>
<!--Generator: Apple Native CoreSVG 326-->
<!DOCTYPE svg
PUBLIC "-//W3C//DTD SVG 1.1//EN"
       "http://www.w3.org/Graphics/SVG/1.1/DTD/svg11.dtd">
<svg version="1.1" xmlns="http://www.w3.org/2000/svg" xmlns:xlink="http://www.w3.org/1999/xlink" viewBox="0 0 28.2461 27.9043">
 <g>
  <rect height="27.9043" opacity="0" width="28.2461" x="0" y="0"/>
  <path d="M13.9316 14.0137C17.7598 14.0137 20.959 10.8418 20.959 7.02734C20.959 3.18555 17.7598 0.0136719 13.9316 0.0136719C10.0898 0.0136719 6.91797 3.18555 6.91797 7.02734C6.91797 10.8418 10.1172 14.0137 13.9316 14.0137ZM13.9316 11.7031C11.2793 11.7031 9.22852 9.66602 9.22852 7.02734C9.22852 4.375 11.2793 2.32422 13.9316 2.32422C16.584 2.32422 18.6484 4.375 18.6484 7.02734C18.6484 9.66602 16.584 11.7031 13.9316 11.7031ZM13.9453 27.8906C21.6426 27.8906 27.8906 21.6426 27.8906 13.9453C27.8906 6.24805 21.6426 0 13.9453 0C6.24805 0 0 6.24805 0 13.9453C0 21.6426 6.24805 27.8906 13.9453 27.8906ZM13.9453 25.5664C7.51953 25.5664 2.32422 20.3711 2.32422 13.9453C2.32422 7.51953 7.51953 2.32422 13.9453 2.32422C20.3711 2.32422 25.5664 7.51953 25.5664 13.9453C25.5664 20.3711 20.3711 25.5664 13.9453 25.5664Z" fill="black" fill-opacity="0.85"/>
 </g>
</svg>
