<?xml version="1.0" encoding="UTF-8"?>
<!--Generator: Apple Native CoreSVG 326-->
<!DOCTYPE svg
PUBLIC "-//W3C//DTD SVG 1.1//EN"
       "http://www.w3.org/Graphics/SVG/1.1/DTD/svg11.dtd">
<svg version="1.1" xmlns="http://www.w3.org/2000/svg" xmlns:xlink="http://www.w3.org/1999/xlink" viewBox="0 0 33.6191 26.5098">
 <g>
  <rect height="26.5098" opacity="0" width="33.6191" x="0" y="0"/>
  <path d="M7.12305 13.248C7.12305 13.8013 7.15825 14.3474 7.23789 14.8809C4.67726 15.1041 3.25391 16.279 3.25391 18.0879C3.25391 20.002 4.85352 21.2598 7.19141 21.2598C8.0379 21.2598 8.82848 21.1 9.53805 20.7915C9.86869 21.2763 10.2369 21.7332 10.6437 22.1544C9.50974 22.9458 8.10874 23.4199 6.64453 23.4199C3.10352 23.4199 0.683594 21.2871 0.683594 18.1152C0.683594 15.055 3.00433 13.2508 7.14134 12.8936ZM10.0697 4.98973C9.53729 5.63935 9.07038 6.34307 8.67756 7.09045C8.56703 7.08462 8.45421 7.08203 8.33984 7.08203C6.13867 7.08203 4.62109 7.95703 3.69141 10.0078C3.47266 10.459 3.13086 10.6641 2.63867 10.6641C1.98242 10.6641 1.51758 10.2129 1.51758 9.51562C1.51758 9.17383 1.64062 8.75 1.8457 8.33984C2.81641 6.26172 5.35938 4.85352 8.39453 4.85352C8.99188 4.85352 9.54844 4.89837 10.0697 4.98973Z" fill="black" fill-opacity="0.85"/>
  <path d="M20.3711 26.4961C27.6035 26.4961 33.6191 20.4805 33.6191 13.248C33.6191 6.01562 27.5898 0 20.3574 0C13.125 0 7.12305 6.01562 7.12305 13.248C7.12305 20.4805 13.1387 26.4961 20.3711 26.4961ZM20.3711 24.2676C14.2324 24.2676 9.36523 19.3867 9.36523 13.248C9.36523 7.10938 14.2188 2.21484 20.3574 2.21484C26.4961 2.21484 31.377 7.10938 31.4043 13.248C31.418 19.3867 26.5098 24.2676 20.3711 24.2676ZM21.1641 25.2656L24.0898 25.2383L24.0898 9.54297C24.0898 5.53711 21.5879 2.81641 17.3633 2.22852C16.8301 2.16016 16.2695 2.11914 15.709 2.10547L12.7559 5.11328C13.5625 4.88086 14.4375 4.75781 15.4902 4.75781C18.9492 4.75781 21 6.6582 21 9.85742L21 11.8672L13.9727 12.291C11.9355 12.4277 10.2402 12.8789 8.95508 13.6309L9.51562 16.8301C10.3496 15.5859 12.0312 14.8477 14.3555 14.6836L21 14.2461L21 16.6523C21 19.9746 18.3203 22.6133 14.7656 22.9414L17.0215 24.8691C18.8125 24.1719 20.248 22.9961 20.9863 21.5332L21.1641 21.5332Z" fill="black" fill-opacity="0.85"/>
 </g>
</svg>
