<?xml version="1.0" encoding="UTF-8"?>
<!--Generator: Apple Native CoreSVG 326-->
<!DOCTYPE svg
PUBLIC "-//W3C//DTD SVG 1.1//EN"
       "http://www.w3.org/Graphics/SVG/1.1/DTD/svg11.dtd">
<svg version="1.1" xmlns="http://www.w3.org/2000/svg" xmlns:xlink="http://www.w3.org/1999/xlink" viewBox="0 0 28.2461 27.9043">
 <g>
  <rect height="27.9043" opacity="0" width="28.2461" x="0" y="0"/>
  <path d="M13.9453 27.8906C21.6426 27.8906 27.8906 21.6426 27.8906 13.9453C27.8906 6.24805 21.6426 0 13.9453 0C6.24805 0 0 6.24805 0 13.9453C0 21.6426 6.24805 27.8906 13.9453 27.8906ZM13.9453 25.5664C7.51953 25.5664 2.32422 20.3711 2.32422 13.9453C2.32422 7.51953 7.51953 2.32422 13.9453 2.32422C20.3711 2.32422 25.5664 7.51953 25.5664 13.9453C25.5664 20.3711 20.3711 25.5664 13.9453 25.5664Z" fill="black" fill-opacity="0.85"/>
  <path d="M6.50781 19.0996C6.50781 19.7422 6.93164 20.166 7.57422 20.166L20.6035 20.166C21.0137 20.166 21.3691 19.8242 21.3691 19.4141C21.3691 19.0039 21.0137 18.6621 20.6035 18.6621L8.03906 18.6621C8.01172 18.6621 8.02539 18.6484 8.02539 18.6348L8.02539 8.08008C8.02539 7.66992 7.66992 7.32812 7.25977 7.32812C6.84961 7.32812 6.50781 7.66992 6.50781 8.08008ZM7.73828 16.0371L10.6914 13.0703C10.7734 12.9746 10.8418 12.9746 10.9102 13.0703L13.3027 15.5176C13.6445 15.832 13.9727 15.9961 14.3555 15.9961C14.752 15.9961 15.1074 15.832 15.4219 15.5176L18.0059 12.8789L18.9766 13.877C19.3184 14.2188 19.8105 14.0273 19.9473 13.5352L20.9453 9.59766C21.0684 9.16016 20.6582 8.77734 20.207 8.88672L16.2969 9.85742C15.8047 9.98047 15.5996 10.5137 15.9414 10.8281L16.9258 11.8125L14.4648 14.2871C14.3965 14.3828 14.3418 14.3828 14.2734 14.3008L11.8535 11.8125C11.5391 11.4844 11.1973 11.334 10.8008 11.334C10.3906 11.334 10.0625 11.4844 9.74805 11.8125L6.67188 14.957Z" fill="black" fill-opacity="0.85"/>
 </g>
</svg>
