<?xml version="1.0" encoding="UTF-8"?>
<!--Generator: Apple Native CoreSVG 326-->
<!DOCTYPE svg
PUBLIC "-//W3C//DTD SVG 1.1//EN"
       "http://www.w3.org/Graphics/SVG/1.1/DTD/svg11.dtd">
<svg version="1.1" xmlns="http://www.w3.org/2000/svg" xmlns:xlink="http://www.w3.org/1999/xlink" viewBox="0 0 27.8223 18.5801">
 <g>
  <rect height="18.5801" opacity="0" width="27.8223" x="0" y="0"/>
  <path d="M6.38477 18.5801C9.50195 18.5801 11.9492 17.0078 13.2754 14.3965L13.4121 14.3965C14.5742 17.0215 16.9805 18.5801 20.1934 18.5801C23.543 18.5801 26.0996 17.1445 27.1797 14.5742C27.2891 14.3008 27.3711 14.0137 27.3711 13.7949C27.3711 13.125 26.9199 12.6875 26.2363 12.6875C25.8262 12.6875 25.5254 12.8652 25.2793 13.2344C24.0352 15.4082 22.4766 16.3652 20.0977 16.3652C16.6797 16.3652 14.4922 13.8359 14.4922 10.0762L14.4922 9.89844L26.0039 9.89844C26.9199 9.89844 27.4668 9.33789 27.4668 8.38086C27.4668 3.45898 24.459 0.0136719 20.0703 0.0136719C17.1035 0.0136719 14.9023 1.46289 13.7402 3.89648L13.6309 3.89648C12.9336 1.46289 10.5684 0.0136719 7.46484 0.0136719C4.51172 0.0136719 1.95508 1.39453 1.01172 3.5C0.792969 3.91016 0.683594 4.33398 0.683594 4.68945C0.683594 5.37305 1.14844 5.82422 1.80469 5.82422C2.31055 5.82422 2.65234 5.61914 2.87109 5.16797C3.80078 3.13086 5.30469 2.25586 7.50586 2.25586C10.1719 2.25586 11.9629 3.95117 11.9629 6.39844L11.9629 7.90234L6.61719 8.18945C2.33789 8.4082 0 10.2402 0 13.2891C0 16.4883 2.50195 18.5801 6.38477 18.5801ZM6.4668 16.3926C4.11523 16.3926 2.58398 15.0801 2.58398 13.248C2.58398 11.416 4.10156 10.3496 6.89062 10.1855L11.9629 9.89844L11.9629 11.4844C11.9629 14.1914 9.55664 16.3926 6.4668 16.3926ZM14.4922 7.90234C14.6973 4.55273 16.8301 2.22852 19.8789 2.22852C22.8867 2.22852 24.8008 4.49805 24.8555 7.90234Z" fill="black" fill-opacity="0.85"/>
 </g>
</svg>
