<?xml version="1.0" encoding="UTF-8"?>
<!--Generator: Apple Native CoreSVG 326-->
<!DOCTYPE svg
PUBLIC "-//W3C//DTD SVG 1.1//EN"
       "http://www.w3.org/Graphics/SVG/1.1/DTD/svg11.dtd">
<svg version="1.1" xmlns="http://www.w3.org/2000/svg" xmlns:xlink="http://www.w3.org/1999/xlink" viewBox="0 0 33.9473 25.1973">
 <g>
  <rect height="25.1973" opacity="0" width="33.9473" x="0" y="0"/>
  <path d="M4.96289 25.1973L28.6289 25.1973C31.5 25.1973 32.9219 23.7754 32.9219 20.959L32.9219 16.9258C32.9219 16.2148 32.5254 15.8184 31.8145 15.8184C31.1035 15.8184 30.7207 16.2148 30.7207 16.9258L30.7207 20.8496C30.7207 22.2715 29.9414 22.9961 28.6016 22.9961L5.00391 22.9961C3.63672 22.9961 2.88477 22.2715 2.88477 20.8496L2.88477 16.9258C2.88477 16.2148 2.47461 15.8184 1.77734 15.8184C1.08008 15.8184 0.683594 16.2148 0.683594 16.9258L0.683594 20.959C0.683594 23.7891 2.11914 25.1973 4.96289 25.1973ZM4.96289 0.0273438C2.11914 0.0273438 0.683594 1.43555 0.683594 4.26562L0.683594 7.61523C0.683594 8.32617 1.08008 8.73633 1.77734 8.73633C2.47461 8.73633 2.88477 8.32617 2.88477 7.61523L2.88477 4.375C2.88477 2.95312 3.63672 2.22852 5.00391 2.22852L28.6016 2.22852C29.9414 2.22852 30.7207 2.95312 30.7207 4.375L30.7207 7.61523C30.7207 8.32617 31.1172 8.73633 31.8145 8.73633C32.5391 8.73633 32.9219 8.32617 32.9219 7.61523L32.9219 4.26562C32.9219 1.44922 31.5 0.0273438 28.6289 0.0273438ZM1.77734 14.041C2.76172 14.041 3.55469 13.2344 3.55469 12.25C3.55469 11.2793 2.76172 10.4863 1.77734 10.4863C0.806641 10.4863 0 11.2793 0 12.25C0 13.2344 0.806641 14.041 1.77734 14.041ZM31.8145 14.041C32.7852 14.041 33.5918 13.2344 33.5918 12.25C33.5918 11.2793 32.7852 10.4863 31.8145 10.4863C30.8301 10.4863 30.0371 11.2656 30.0371 12.25C30.0371 13.2344 30.8301 14.041 31.8145 14.041Z" fill="black" fill-opacity="0.85"/>
  <path d="M12.3184 19.0312C12.8105 19.0312 13.1523 18.7988 13.3574 18.1562L14.3555 15.2441L19.25 15.2441L20.248 18.1562C20.4531 18.7852 20.8086 19.0312 21.3008 19.0312C21.9023 19.0312 22.3125 18.6348 22.3125 18.0879C22.3125 17.8691 22.2715 17.6777 22.1621 17.377L18.334 7.05469C18.0605 6.34375 17.541 5.97461 16.7891 5.97461C16.0508 5.97461 15.5449 6.34375 15.2852 7.05469L11.4434 17.377C11.3477 17.6777 11.293 17.8691 11.293 18.0742C11.293 18.6484 11.7031 19.0312 12.3184 19.0312ZM14.916 13.6035L16.7344 8.3125L16.8848 8.3125L18.7031 13.6035Z" fill="black" fill-opacity="0.85"/>
 </g>
</svg>
