<?xml version="1.0" encoding="UTF-8"?>
<!--Generator: Apple Native CoreSVG 326-->
<!DOCTYPE svg
PUBLIC "-//W3C//DTD SVG 1.1//EN"
       "http://www.w3.org/Graphics/SVG/1.1/DTD/svg11.dtd">
<svg version="1.1" xmlns="http://www.w3.org/2000/svg" xmlns:xlink="http://www.w3.org/1999/xlink" viewBox="0 0 28.2461 27.9043">
 <g>
  <rect height="27.9043" opacity="0" width="28.2461" x="0" y="0"/>
  <path d="M13.9453 27.8906C21.6426 27.8906 27.8906 21.6426 27.8906 13.9453C27.8906 6.24805 21.6426 0 13.9453 0C6.24805 0 0 6.24805 0 13.9453C0 21.6426 6.24805 27.8906 13.9453 27.8906ZM13.9453 25.5664C7.51953 25.5664 2.32422 20.3711 2.32422 13.9453C2.32422 7.51953 7.51953 2.32422 13.9453 2.32422C20.3711 2.32422 25.5664 7.51953 25.5664 13.9453C25.5664 20.3711 20.3711 25.5664 13.9453 25.5664Z" fill="black" fill-opacity="0.85"/>
  <path d="M6.57617 19.0996C6.57617 19.7422 7 20.166 7.64258 20.166L20.6719 20.166C21.082 20.166 21.4375 19.8242 21.4375 19.4141C21.4375 19.0039 21.082 18.6621 20.6719 18.6621L8.10742 18.6621C8.08008 18.6621 8.09375 18.6758 8.09375 18.6348L8.09375 8.08008C8.09375 7.66992 7.73828 7.32812 7.32812 7.32812C6.91797 7.32812 6.57617 7.66992 6.57617 8.08008ZM7.80664 9.32422L6.74023 10.4043L9.81641 13.5488C10.1309 13.877 10.459 14.0273 10.8691 14.0273C11.2656 14.0273 11.6074 13.877 11.9219 13.5488L14.3418 11.0605C14.4102 10.9785 14.4648 10.9785 14.5332 11.0742L16.9941 13.5625L16.0098 14.5332C15.668 14.8477 15.873 15.3809 16.3652 15.5039L20.2754 16.4746C20.7266 16.5977 21.123 16.2148 21.0137 15.7773L20.0156 11.8398C19.8789 11.334 19.3867 11.1562 19.0449 11.4844L18.0742 12.4824L15.4902 9.85742C15.1758 9.5293 14.8203 9.36523 14.4238 9.36523C14.041 9.36523 13.7129 9.5293 13.3711 9.85742L10.9785 12.291C10.9102 12.3867 10.8418 12.3867 10.7598 12.291Z" fill="black" fill-opacity="0.85"/>
 </g>
</svg>
