<?xml version="1.0" encoding="UTF-8"?>
<!--Generator: Apple Native CoreSVG 326-->
<!DOCTYPE svg
PUBLIC "-//W3C//DTD SVG 1.1//EN"
       "http://www.w3.org/Graphics/SVG/1.1/DTD/svg11.dtd">
<svg version="1.1" xmlns="http://www.w3.org/2000/svg" xmlns:xlink="http://www.w3.org/1999/xlink" viewBox="0 0 34.7129 25.7715">
 <g>
  <rect height="25.7715" opacity="0" width="34.7129" x="0" y="0"/>
  <path d="M27.4258 25.5664L31.5 25.5664C33.3867 25.5664 34.3574 24.6641 34.3574 22.873L34.3574 2.70703C34.3574 0.916016 33.3867 0 31.5 0L27.4258 0C25.5664 0 24.5957 0.916016 24.5957 2.70703L24.5957 22.873C24.5957 24.6641 25.5664 25.5664 27.4258 25.5664Z" fill="black" fill-opacity="0.85"/>
  <path d="M15.1348 25.5664L19.209 25.5664C21.0957 25.5664 22.0527 24.6641 22.0527 22.873L22.0527 6.69922C22.0527 4.9082 21.0957 3.99219 19.209 3.99219L15.1348 3.99219C13.2617 3.99219 12.291 4.9082 12.291 6.69922L12.291 22.873C12.291 24.6641 13.2617 25.5664 15.1348 25.5664Z" fill="black" fill-opacity="0.85"/>
  <path d="M2.84375 25.5664L6.9043 25.5664C8.79102 25.5664 9.76172 24.6641 9.76172 22.873L9.76172 10.6777C9.76172 8.88672 8.79102 7.9707 6.9043 7.9707L2.84375 7.9707C0.970703 7.9707 0 8.88672 0 10.6777L0 22.873C0 24.6641 0.970703 25.5664 2.84375 25.5664Z" fill="black" fill-opacity="0.85"/>
 </g>
</svg>
