<?xml version="1.0" encoding="UTF-8"?>
<!--Generator: Apple Native CoreSVG 326-->
<!DOCTYPE svg
PUBLIC "-//W3C//DTD SVG 1.1//EN"
       "http://www.w3.org/Graphics/SVG/1.1/DTD/svg11.dtd">
<svg version="1.1" xmlns="http://www.w3.org/2000/svg" xmlns:xlink="http://www.w3.org/1999/xlink" viewBox="0 0 28.2461 27.9043">
 <g>
  <rect height="27.9043" opacity="0" width="28.2461" x="0" y="0"/>
  <path d="M13.9453 27.9043C21.6426 27.9043 27.8906 21.6562 27.8906 13.959C27.8906 6.27539 21.6426 0.0136719 13.9453 0.0136719C6.26172 0.0136719 0 6.27539 0 13.959C0 21.6562 6.26172 27.9043 13.9453 27.9043Z" fill="black" fill-opacity="0.85"/>
  <path d="M6.27539 19.2773L6.27539 7.92969C6.27539 7.50586 6.63086 7.13672 7.05469 7.13672C7.47852 7.13672 7.84766 7.50586 7.84766 7.92969L7.84766 13.5625L9.625 11.7715C9.95312 11.4434 10.2812 11.2656 10.7051 11.2656C11.1152 11.2656 11.4707 11.4297 11.7988 11.7715L14.2871 14.3281C14.3555 14.4102 14.4102 14.4102 14.4785 14.3145L17.0078 11.7578L15.9961 10.7598C15.6406 10.418 15.8594 9.88477 16.3652 9.76172L20.3984 8.75C20.8633 8.62695 21.2871 9.02344 21.1641 9.47461L20.1387 13.5352C20.002 14.0684 19.4688 14.2598 19.127 13.9043L18.1289 12.8789L15.4766 15.5859C15.1484 15.9141 14.7793 16.0918 14.3691 16.0918C13.9727 16.0918 13.6172 15.9277 13.2754 15.5859L10.8145 13.0566C10.7461 12.9746 10.6777 12.9746 10.5957 13.0566L7.84766 15.8184L7.84766 18.6895C7.84766 18.7852 7.875 18.8262 7.95703 18.8262L20.8086 18.8262C21.2324 18.8262 21.6016 19.1816 21.6016 19.6191C21.6016 20.043 21.2324 20.3984 20.8086 20.3984L7.38281 20.3984C6.71289 20.3984 6.27539 19.9609 6.27539 19.2773Z" fill="white"/>
 </g>
</svg>
