<?xml version="1.0" encoding="UTF-8"?>
<!--Generator: Apple Native CoreSVG 326-->
<!DOCTYPE svg
PUBLIC "-//W3C//DTD SVG 1.1//EN"
       "http://www.w3.org/Graphics/SVG/1.1/DTD/svg11.dtd">
<svg version="1.1" xmlns="http://www.w3.org/2000/svg" xmlns:xlink="http://www.w3.org/1999/xlink" viewBox="0 0 30.4883 30.2012">
 <g>
  <rect height="30.2012" opacity="0" width="30.4883" x="0" y="0"/>
  <path d="M30.1328 8.09375L30.1328 18.5664C30.1328 22.5723 27.9453 24.8145 23.8711 24.8145L14.6289 24.8145L9.69336 29.3262C9.05078 29.9277 8.6543 30.2012 8.12109 30.2012C7.3418 30.2012 6.9043 29.6406 6.9043 28.793L6.9043 24.8145L6.26172 24.8145C2.1875 24.8145 0 22.5859 0 18.5664L0 8.09375C0 4.07422 2.1875 1.83203 6.26172 1.83203L23.8711 1.83203C27.9453 1.83203 30.1328 4.08789 30.1328 8.09375ZM19.332 7.88867L13.4805 17.2676L10.7051 13.6855C10.377 13.2344 10.0625 13.1113 9.67969 13.1113C9.05078 13.1113 8.58594 13.6172 8.58594 14.2324C8.58594 14.5469 8.69531 14.8477 8.90039 15.1211L12.332 19.332C12.7012 19.8105 13.0703 20.002 13.5488 20.002C14.0137 20.002 14.4102 19.7832 14.6836 19.332L21.1094 9.21484C21.2871 8.94141 21.4648 8.61328 21.4648 8.3125C21.4648 7.66992 20.9043 7.25977 20.3027 7.25977C19.9336 7.25977 19.5781 7.47852 19.332 7.88867Z" fill="black" fill-opacity="0.85"/>
 </g>
</svg>
