<?xml version="1.0" encoding="UTF-8"?>
<!--Generator: Apple Native CoreSVG 326-->
<!DOCTYPE svg
PUBLIC "-//W3C//DTD SVG 1.1//EN"
       "http://www.w3.org/Graphics/SVG/1.1/DTD/svg11.dtd">
<svg version="1.1" xmlns="http://www.w3.org/2000/svg" xmlns:xlink="http://www.w3.org/1999/xlink" viewBox="0 0 30.4883 30.0371">
 <g>
  <rect height="30.0371" opacity="0" width="30.4883" x="0" y="0"/>
  <path d="M8.4082 30.0371C9.07812 30.0371 9.54297 29.6816 10.377 28.9434L15.0938 24.7461L23.8711 24.7461C27.9453 24.7461 30.1328 22.4902 30.1328 18.4844L30.1328 8.01172C30.1328 4.00586 27.9453 1.75 23.8711 1.75L6.26172 1.75C2.1875 1.75 0 3.99219 0 8.01172L0 18.4844C0 22.5039 2.1875 24.7461 6.26172 24.7461L6.91797 24.7461L6.91797 28.3008C6.91797 29.3535 7.45117 30.0371 8.4082 30.0371ZM8.96875 27.5352L8.96875 23.5703C8.96875 22.832 8.68164 22.5449 7.94336 22.5449L6.26172 22.5449C3.5 22.5449 2.20117 21.1367 2.20117 18.4707L2.20117 8.01172C2.20117 5.3457 3.5 3.95117 6.26172 3.95117L23.8711 3.95117C26.6191 3.95117 27.9316 5.3457 27.9316 8.01172L27.9316 18.4707C27.9316 21.1367 26.6191 22.5449 23.8711 22.5449L15.0117 22.5449C14.2461 22.5449 13.8633 22.6543 13.3438 23.1875Z" fill="black" fill-opacity="0.85"/>
  <path d="M13.5898 19.7422C14.041 19.7422 14.4238 19.5234 14.6836 19.0996L20.9316 9.26953C21.0957 9.00977 21.2734 8.69531 21.2734 8.39453C21.2734 7.7793 20.7266 7.38281 20.1523 7.38281C19.7969 7.38281 19.4551 7.60156 19.209 7.99805L13.5215 17.1035L10.8281 13.6172C10.5137 13.1797 10.1992 13.0703 9.83008 13.0703C9.22852 13.0703 8.77734 13.5488 8.77734 14.1504C8.77734 14.4512 8.88672 14.7383 9.07812 14.998L12.4141 19.0996C12.7695 19.5508 13.125 19.7422 13.5898 19.7422Z" fill="black" fill-opacity="0.85"/>
 </g>
</svg>
