<?xml version="1.0" encoding="UTF-8"?>
<!--Generator: Apple Native CoreSVG 326-->
<!DOCTYPE svg
PUBLIC "-//W3C//DTD SVG 1.1//EN"
       "http://www.w3.org/Graphics/SVG/1.1/DTD/svg11.dtd">
<svg version="1.1" xmlns="http://www.w3.org/2000/svg" xmlns:xlink="http://www.w3.org/1999/xlink" viewBox="0 0 31.0078 27.6582">
 <g>
  <rect height="27.6582" opacity="0" width="31.0078" x="0" y="0"/>
  <path d="M15.9414 22.8594L29.5312 22.8594C30.1465 22.8594 30.6523 22.3809 30.6523 21.7656C30.6523 21.1367 30.1465 20.6582 29.5312 20.6582L15.9414 20.6582C15.3125 20.6582 14.834 21.1367 14.834 21.7656C14.834 22.3809 15.3125 22.8594 15.9414 22.8594Z" fill="black" fill-opacity="0.85"/>
  <path d="M5.89258 27.6582C9.10547 27.6582 11.7852 24.9785 11.7852 21.7656C11.7852 18.5254 9.10547 15.8594 5.89258 15.8594C2.66602 15.8594 0 18.5391 0 21.7656C0 24.9785 2.67969 27.6582 5.89258 27.6582ZM5.89258 25.6621C3.77344 25.6621 1.99609 23.8711 1.99609 21.7656C1.99609 19.6465 3.78711 17.8555 5.89258 17.8555C7.99805 17.8555 9.78906 19.6465 9.78906 21.7656C9.78906 23.8711 7.99805 25.6621 5.89258 25.6621Z" fill="black" fill-opacity="0.85"/>
  <path d="M15.9414 7.05469L29.5312 7.05469C30.1465 7.05469 30.6523 6.5625 30.6523 5.94727C30.6523 5.33203 30.1465 4.85352 29.5312 4.85352L15.9414 4.85352C15.3125 4.85352 14.834 5.33203 14.834 5.94727C14.834 6.5625 15.3125 7.05469 15.9414 7.05469Z" fill="black" fill-opacity="0.85"/>
  <path d="M5.89258 11.8398C9.10547 11.8398 11.7852 9.14648 11.7852 5.93359C11.7852 2.70703 9.10547 0.0410156 5.89258 0.0410156C2.66602 0.0410156 0 2.70703 0 5.93359C0 9.14648 2.67969 11.8398 5.89258 11.8398ZM5.89258 9.84375C3.77344 9.84375 1.99609 8.05273 1.99609 5.93359C1.99609 3.81445 3.78711 2.02344 5.89258 2.02344C7.99805 2.02344 9.78906 3.82812 9.78906 5.93359C9.78906 8.05273 7.99805 9.84375 5.89258 9.84375Z" fill="black" fill-opacity="0.85"/>
 </g>
</svg>
