<?xml version="1.0" encoding="UTF-8"?>
<!--Generator: Apple Native CoreSVG 326-->
<!DOCTYPE svg
PUBLIC "-//W3C//DTD SVG 1.1//EN"
       "http://www.w3.org/Graphics/SVG/1.1/DTD/svg11.dtd">
<svg version="1.1" xmlns="http://www.w3.org/2000/svg" xmlns:xlink="http://www.w3.org/1999/xlink" viewBox="0 0 28.2461 33.2127">
 <g>
  <rect height="33.2127" opacity="0" width="28.2461" x="0" y="0"/>
  <path d="M13.9453 30.5448C21.6426 30.5448 27.8906 24.2968 27.8906 16.5995C27.8906 9.77724 22.9824 4.11708 16.584 2.91395L16.584 0.972548C16.584-0.0118272 15.9141-0.257921 15.1484 0.275282L10.8008 3.33778C10.1719 3.78895 10.1855 4.4452 10.8008 4.8827L15.1621 7.9452C15.9141 8.46474 16.584 8.21864 16.584 7.24794L16.584 5.27919C21.7246 6.46864 25.5664 11.0487 25.5664 16.5995C25.5664 23.0253 20.3711 28.2206 13.9453 28.2206C7.51953 28.2206 2.32422 23.0253 2.32422 16.5995C2.32422 12.703 4.23828 9.27138 7.13672 7.19325C7.69727 6.76942 7.875 6.12684 7.5332 5.55263C7.19141 5.00575 6.41211 4.84169 5.81055 5.30653C2.2832 7.8495 0 11.91 0 16.5995C0 24.2968 6.24805 30.5448 13.9453 30.5448Z" fill="black" fill-opacity="0.85"/>
  <path d="M12.4551 23.0936C12.9062 23.0936 13.2891 22.8749 13.5625 22.4511L19.8105 12.621C19.9609 12.3475 20.1387 12.0468 20.1387 11.746C20.1387 11.1308 19.5918 10.7343 19.0176 10.7343C18.6758 10.7343 18.334 10.953 18.0742 11.3495L12.4004 20.455L9.70703 16.9686C9.37891 16.5311 9.07812 16.4218 8.69531 16.4218C8.10742 16.4218 7.64258 16.9003 7.64258 17.5018C7.64258 17.8026 7.76562 18.0897 7.95703 18.3495L11.293 22.4511C11.6348 22.9022 12.0039 23.0936 12.4551 23.0936Z" fill="black" fill-opacity="0.85"/>
 </g>
</svg>
