<?xml version="1.0" encoding="UTF-8"?>
<!--Generator: Apple Native CoreSVG 326-->
<!DOCTYPE svg
PUBLIC "-//W3C//DTD SVG 1.1//EN"
       "http://www.w3.org/Graphics/SVG/1.1/DTD/svg11.dtd">
<svg version="1.1" xmlns="http://www.w3.org/2000/svg" xmlns:xlink="http://www.w3.org/1999/xlink" viewBox="0 0 23.3516 29.3262">
 <g>
  <rect height="29.3262" opacity="0" width="23.3516" x="0" y="0"/>
  <path d="M6.28906 19.0312L16.7344 19.0312C17.2266 19.0312 17.582 18.6484 17.582 18.1699C17.582 17.7051 17.2266 17.3496 16.7344 17.3496L6.28906 17.3496C5.79688 17.3496 5.42773 17.7051 5.42773 18.1699C5.42773 18.6484 5.79688 19.0312 6.28906 19.0312ZM6.28906 23.1328L11.2246 23.1328C11.7168 23.1328 12.0723 22.7773 12.0723 22.3125C12.0723 21.834 11.7168 21.4512 11.2246 21.4512L6.28906 21.4512C5.79688 21.4512 5.42773 21.834 5.42773 22.3125C5.42773 22.7773 5.79688 23.1328 6.28906 23.1328ZM8.54492 14.041L9.61133 14.041C9.70703 14.041 9.77539 14.082 9.85742 14.1641L10.623 14.9023C11.2246 15.5312 11.7988 15.5176 12.4004 14.9023L13.166 14.1641C13.248 14.0957 13.3027 14.041 13.4121 14.041L14.4648 14.041C15.3262 14.041 15.7363 13.6445 15.7363 12.7969L15.7363 11.7305C15.7363 11.6348 15.75 11.5527 15.832 11.4844L16.584 10.7188C17.1992 10.1172 17.1992 9.54297 16.584 8.92773L15.832 8.17578C15.75 8.10742 15.7363 8.02539 15.7363 7.92969L15.7363 6.86328C15.7363 6.00195 15.3398 5.60547 14.4648 5.60547L13.4121 5.60547C13.3027 5.60547 13.248 5.55078 13.166 5.49609L12.4004 4.75781C11.7988 4.12891 11.2246 4.14258 10.623 4.75781L9.85742 5.49609C9.78906 5.57812 9.70703 5.60547 9.61133 5.60547L8.54492 5.60547C7.68359 5.60547 7.27344 5.98828 7.27344 6.86328L7.27344 7.92969C7.27344 8.02539 7.25977 8.10742 7.17773 8.17578L6.42578 8.92773C5.81055 9.54297 5.81055 10.1172 6.42578 10.7188L7.17773 11.4844C7.25977 11.5527 7.27344 11.6348 7.27344 11.7305L7.27344 12.7969C7.27344 13.6445 7.68359 14.041 8.54492 14.041ZM10.9512 12.3867C10.7461 12.3867 10.5684 12.291 10.3906 12.0723L9.16016 10.5684C9.06445 10.459 8.99609 10.3086 8.99609 10.1582C8.99609 9.84375 9.22852 9.57031 9.58398 9.57031C9.77539 9.57031 9.92578 9.66602 10.0898 9.85742L10.9375 10.9238L12.8926 7.79297C13.002 7.61523 13.1797 7.47852 13.3848 7.47852C13.6855 7.47852 13.9727 7.69727 13.9727 8.02539C13.9727 8.17578 13.8906 8.33984 13.8223 8.44922L11.5254 12.0586C11.3887 12.291 11.1836 12.3867 10.9512 12.3867ZM0 25.0332C0 27.8906 1.4082 29.3125 4.23828 29.3125L18.7578 29.3125C21.5879 29.3125 22.9961 27.8906 22.9961 25.0332L22.9961 4.29297C22.9961 1.44922 21.5879 0 18.7578 0L4.23828 0C1.4082 0 0 1.44922 0 4.29297ZM2.20117 24.9922L2.20117 4.33398C2.20117 2.9668 2.92578 2.20117 4.34766 2.20117L18.6484 2.20117C20.0703 2.20117 20.7949 2.9668 20.7949 4.33398L20.7949 24.9922C20.7949 26.3594 20.0703 27.1113 18.6484 27.1113L4.34766 27.1113C2.92578 27.1113 2.20117 26.3594 2.20117 24.9922Z" fill="black" fill-opacity="0.85"/>
 </g>
</svg>
