<?xml version="1.0" encoding="UTF-8"?>
<!--Generator: Apple Native CoreSVG 326-->
<!DOCTYPE svg
PUBLIC "-//W3C//DTD SVG 1.1//EN"
       "http://www.w3.org/Graphics/SVG/1.1/DTD/svg11.dtd">
<svg version="1.1" xmlns="http://www.w3.org/2000/svg" xmlns:xlink="http://www.w3.org/1999/xlink" viewBox="0 0 16.1465 23.7754">
 <g>
  <rect height="23.7754" opacity="0" width="16.1465" x="0" y="0"/>
  <path d="M0 22.5039C0 23.2148 0.546875 23.7617 1.25781 23.7617C1.59961 23.7617 1.90039 23.6387 2.14648 23.3789L12.9746 12.7969C13.2344 12.5371 13.3711 12.2363 13.3711 11.8809C13.3711 11.5254 13.2344 11.2109 12.9883 10.9648L2.14648 0.369141C1.88672 0.136719 1.59961 0 1.24414 0C0.546875 0 0 0.533203 0 1.25781C0 1.59961 0.123047 1.91406 0.369141 2.14648L11.1836 12.7148L11.1836 11.0332L0.369141 21.6152C0.123047 21.8613 0 22.1621 0 22.5039ZM13.3438 22.5723C13.3438 23.2695 13.8496 23.7617 14.5605 23.7617C15.2715 23.7617 15.791 23.2695 15.791 22.5723L15.791 1.2168C15.791 0.505859 15.2715 0 14.5605 0C13.8496 0 13.3438 0.505859 13.3438 1.2168Z" fill="black" fill-opacity="0.85"/>
 </g>
</svg>
