<?xml version="1.0" encoding="UTF-8"?>
<!--Generator: Apple Native CoreSVG 326-->
<!DOCTYPE svg
PUBLIC "-//W3C//DTD SVG 1.1//EN"
       "http://www.w3.org/Graphics/SVG/1.1/DTD/svg11.dtd">
<svg version="1.1" xmlns="http://www.w3.org/2000/svg" xmlns:xlink="http://www.w3.org/1999/xlink" viewBox="0 0 25.6074 25.2793">
 <g>
  <rect height="25.2793" opacity="0" width="25.6074" x="0" y="0"/>
  <path d="M20.4668 2.51562C21.1641 2.51562 21.7246 1.95508 21.7246 1.25781C21.7246 0.560547 21.1641 0 20.4668 0C19.7695 0 19.209 0.560547 19.209 1.25781C19.209 1.95508 19.7695 2.51562 20.4668 2.51562ZM16.9531 2.51562C17.6504 2.51562 18.2109 1.95508 18.2109 1.25781C18.2109 0.560547 17.6504 0 16.9531 0C16.2559 0 15.6953 0.560547 15.6953 1.25781C15.6953 1.95508 16.2559 2.51562 16.9531 2.51562ZM13.4258 2.51562C14.123 2.51562 14.6836 1.95508 14.6836 1.25781C14.6836 0.560547 14.123 0 13.4258 0C12.7285 0 12.168 0.560547 12.168 1.25781C12.168 1.95508 12.7285 2.51562 13.4258 2.51562ZM9.91211 2.51562C10.6094 2.51562 11.1699 1.95508 11.1699 1.25781C11.1699 0.560547 10.6094 0 9.91211 0C9.21484 0 8.6543 0.560547 8.6543 1.25781C8.6543 1.95508 9.21484 2.51562 9.91211 2.51562ZM23.9941 16.5977C24.6914 16.5977 25.252 16.0371 25.252 15.3398C25.252 14.6426 24.6914 14.082 23.9941 14.082C23.2969 14.082 22.7363 14.6426 22.7363 15.3398C22.7363 16.0371 23.2969 16.5977 23.9941 16.5977ZM23.9941 13.0703C24.6914 13.0703 25.252 12.5098 25.252 11.8125C25.252 11.1152 24.6914 10.5547 23.9941 10.5547C23.2969 10.5547 22.7363 11.1152 22.7363 11.8125C22.7363 12.5098 23.2969 13.0703 23.9941 13.0703ZM23.9941 9.55664C24.6914 9.55664 25.252 8.99609 25.252 8.29883C25.252 7.60156 24.6914 7.04102 23.9941 7.04102C23.2969 7.04102 22.7363 7.60156 22.7363 8.29883C22.7363 8.99609 23.2969 9.55664 23.9941 9.55664ZM23.9941 6.0293C24.6914 6.0293 25.252 5.46875 25.252 4.77148C25.252 4.07422 24.6914 3.51367 23.9941 3.51367C23.2969 3.51367 22.7363 4.07422 22.7363 4.77148C22.7363 5.46875 23.2969 6.0293 23.9941 6.0293ZM23.9941 2.51562C24.6914 2.51562 25.252 1.95508 25.252 1.25781C25.252 0.560547 24.6914 0 23.9941 0C23.2969 0 22.7363 0.560547 22.7363 1.25781C22.7363 1.95508 23.2969 2.51562 23.9941 2.51562Z" fill="black" fill-opacity="0.85"/>
  <path d="M11.8262 11.1836C12.5234 11.1836 13.084 10.623 13.084 9.92578C13.084 9.22852 12.5234 8.66797 11.8262 8.66797C11.1289 8.66797 10.5684 9.22852 10.5684 9.92578C10.5684 10.623 11.1289 11.1836 11.8262 11.1836ZM8.29883 11.1836C8.99609 11.1836 9.55664 10.623 9.55664 9.92578C9.55664 9.22852 8.99609 8.66797 8.29883 8.66797C7.60156 8.66797 7.04102 9.22852 7.04102 9.92578C7.04102 10.623 7.60156 11.1836 8.29883 11.1836ZM4.78516 11.1836C5.48242 11.1836 6.04297 10.623 6.04297 9.92578C6.04297 9.22852 5.48242 8.66797 4.78516 8.66797C4.07422 8.66797 3.52734 9.22852 3.52734 9.92578C3.52734 10.623 4.07422 11.1836 4.78516 11.1836ZM1.25781 11.1836C1.95508 11.1836 2.51562 10.623 2.51562 9.92578C2.51562 9.22852 1.95508 8.66797 1.25781 8.66797C0.560547 8.66797 0 9.22852 0 9.92578C0 10.623 0.560547 11.1836 1.25781 11.1836ZM15.3398 25.2656C16.0371 25.2656 16.5977 24.7051 16.5977 24.0078C16.5977 23.3105 16.0371 22.75 15.3398 22.75C14.6426 22.75 14.082 23.3105 14.082 24.0078C14.082 24.7051 14.6426 25.2656 15.3398 25.2656ZM15.3398 21.752C16.0371 21.752 16.5977 21.1914 16.5977 20.4805C16.5977 19.7832 16.0371 19.2227 15.3398 19.2227C14.6426 19.2227 14.082 19.7832 14.082 20.4805C14.082 21.1914 14.6426 21.752 15.3398 21.752ZM15.3398 18.2246C16.0371 18.2246 16.5977 17.6641 16.5977 16.9668C16.5977 16.2695 16.0371 15.709 15.3398 15.709C14.6426 15.709 14.082 16.2695 14.082 16.9668C14.082 17.6641 14.6426 18.2246 15.3398 18.2246ZM15.3398 14.6973C16.0371 14.6973 16.5977 14.1504 16.5977 13.4395C16.5977 12.7422 16.0371 12.1816 15.3398 12.1816C14.6426 12.1816 14.082 12.7422 14.082 13.4395C14.082 14.1504 14.6426 14.6973 15.3398 14.6973ZM15.3398 11.1836C16.0371 11.1836 16.5977 10.623 16.5977 9.92578C16.5977 9.22852 16.0371 8.66797 15.3398 8.66797C14.6426 8.66797 14.082 9.22852 14.082 9.92578C14.082 10.623 14.6426 11.1836 15.3398 11.1836Z" fill="black" fill-opacity="0.85"/>
 </g>
</svg>
