<?xml version="1.0" encoding="UTF-8"?>
<!--Generator: Apple Native CoreSVG 326-->
<!DOCTYPE svg
PUBLIC "-//W3C//DTD SVG 1.1//EN"
       "http://www.w3.org/Graphics/SVG/1.1/DTD/svg11.dtd">
<svg version="1.1" xmlns="http://www.w3.org/2000/svg" xmlns:xlink="http://www.w3.org/1999/xlink" viewBox="0 0 18.5527 26.3457">
 <g>
  <rect height="26.3457" opacity="0" width="18.5527" x="0" y="0"/>
  <path d="M9.10547 0C8.75 0 8.43555 0.136719 8.16211 0.410156L0.355469 7.90234C0.150391 8.10742 0 8.39453 0 8.79102C0 9.50195 0.533203 10.0488 1.24414 10.0488C1.54492 10.0488 1.87305 9.9668 2.16016 9.67969L9.10547 2.88477L16.0371 9.67969C16.3379 9.95312 16.6523 10.0488 16.9531 10.0488C17.6641 10.0488 18.1973 9.50195 18.1973 8.79102C18.1973 8.39453 18.0605 8.10742 17.8418 7.90234L10.0352 0.410156C9.76172 0.136719 9.44727 0 9.10547 0ZM9.10547 26.332C9.44727 26.332 9.76172 26.1816 10.0352 25.9219L17.8418 18.4297C18.0605 18.2109 18.1973 17.9375 18.1973 17.5273C18.1973 16.8164 17.6641 16.2832 16.9531 16.2832C16.6523 16.2832 16.3379 16.3789 16.0371 16.6523L9.10547 23.4473L2.16016 16.6523C1.87305 16.3652 1.54492 16.2832 1.24414 16.2832C0.533203 16.2832 0 16.8164 0 17.5273C0 17.9375 0.150391 18.2109 0.355469 18.4297L8.16211 25.9219C8.43555 26.1816 8.75 26.332 9.10547 26.332Z" fill="black" fill-opacity="0.85"/>
 </g>
</svg>
