<?xml version="1.0" encoding="UTF-8"?>
<!--Generator: Apple Native CoreSVG 326-->
<!DOCTYPE svg
PUBLIC "-//W3C//DTD SVG 1.1//EN"
       "http://www.w3.org/Graphics/SVG/1.1/DTD/svg11.dtd">
<svg version="1.1" xmlns="http://www.w3.org/2000/svg" xmlns:xlink="http://www.w3.org/1999/xlink" viewBox="0 0 28.2461 27.9043">
 <g>
  <rect height="27.9043" opacity="0" width="28.2461" x="0" y="0"/>
  <path d="M13.9453 27.8906C21.6426 27.8906 27.8906 21.6426 27.8906 13.9453C27.8906 6.24805 21.6426 0 13.9453 0C6.24805 0 0 6.24805 0 13.9453C0 21.6426 6.24805 27.8906 13.9453 27.8906ZM13.9453 25.5664C7.51953 25.5664 2.32422 20.3711 2.32422 13.9453C2.32422 7.51953 7.51953 2.32422 13.9453 2.32422C20.3711 2.32422 25.5664 7.51953 25.5664 13.9453C25.5664 20.3711 20.3711 25.5664 13.9453 25.5664Z" fill="black" fill-opacity="0.85"/>
  <path d="M16.6387 20.7129C17.0625 20.2891 17.0488 19.6328 16.6523 19.25L11.0332 13.9453L16.6523 8.66797C17.0625 8.28516 17.0488 7.60156 16.625 7.20508C16.2422 6.83594 15.6133 6.84961 15.1895 7.24609L9.50195 12.6191C8.72266 13.3301 8.72266 14.5879 9.50195 15.2988L15.1895 20.6719C15.5723 21.0273 16.2832 21.0547 16.6387 20.7129Z" fill="black" fill-opacity="0.85"/>
 </g>
</svg>
