<?xml version="1.0" encoding="UTF-8"?>
<!--Generator: Apple Native CoreSVG 326-->
<!DOCTYPE svg
PUBLIC "-//W3C//DTD SVG 1.1//EN"
       "http://www.w3.org/Graphics/SVG/1.1/DTD/svg11.dtd">
<svg version="1.1" xmlns="http://www.w3.org/2000/svg" xmlns:xlink="http://www.w3.org/1999/xlink" viewBox="0 0 24.7324 18.6621">
 <g>
  <rect height="18.6621" opacity="0" width="24.7324" x="0" y="0"/>
  <path d="M0.861328 14.4375L10.1992 18.1016C10.8281 18.3477 11.5801 18.6484 12.1953 18.6484C12.7969 18.6484 13.5625 18.3477 14.1914 18.1016L23.5156 14.4375C24.0488 14.2324 24.377 13.7676 24.377 13.2617C24.377 12.4551 23.7891 11.8535 22.9961 11.8535C22.5859 11.8535 22.0391 12.0859 21.6973 12.209L11.2246 16.3242L13.1523 16.3242L2.67969 12.209C2.33789 12.0859 1.80469 11.8535 1.38086 11.8535C0.587891 11.8535 0 12.4551 0 13.2617C0 13.7676 0.341797 14.2324 0.861328 14.4375ZM0.861328 4.21094C0.341797 4.41602 0 4.88086 0 5.38672C0 6.19336 0.587891 6.79492 1.38086 6.79492C1.80469 6.79492 2.33789 6.5625 2.67969 6.43945L13.1523 2.32422L11.2246 2.32422L21.6973 6.43945C22.0391 6.5625 22.5859 6.79492 22.9961 6.79492C23.7891 6.79492 24.377 6.19336 24.377 5.38672C24.377 4.88086 24.0488 4.41602 23.5156 4.21094L14.1914 0.546875C13.5625 0.300781 12.7969 0 12.1953 0C11.5801 0 10.8281 0.300781 10.1992 0.546875Z" fill="black" fill-opacity="0.85"/>
 </g>
</svg>
