<?xml version="1.0" encoding="UTF-8"?>
<!--Generator: Apple Native CoreSVG 326-->
<!DOCTYPE svg
PUBLIC "-//W3C//DTD SVG 1.1//EN"
       "http://www.w3.org/Graphics/SVG/1.1/DTD/svg11.dtd">
<svg version="1.1" xmlns="http://www.w3.org/2000/svg" xmlns:xlink="http://www.w3.org/1999/xlink" viewBox="0 0 25.9492 23.7754">
 <g>
  <rect height="23.7754" opacity="0" width="25.9492" x="0" y="0"/>
  <path d="M13.4668 23.748C13.8223 23.748 14.123 23.6113 14.3555 23.3789L25.1836 12.7969C25.4434 12.5371 25.5938 12.2227 25.5938 11.8809C25.5938 11.5254 25.4434 11.1836 25.1836 10.9648L14.3555 0.369141C14.1094 0.136719 13.8223 0 13.4668 0C12.7559 0 12.209 0.546875 12.209 1.25781C12.209 1.58594 12.3594 1.91406 12.5781 2.14648L23.2695 12.6055L23.2695 11.1426L12.5781 21.6152C12.3594 21.8477 12.209 22.1621 12.209 22.5039C12.209 23.2148 12.7559 23.748 13.4668 23.748Z" fill="black" fill-opacity="0.85"/>
  <path d="M1.24414 23.748C1.59961 23.748 1.90039 23.6113 2.14648 23.3789L12.9746 12.7969C13.2344 12.5371 13.3711 12.2227 13.3711 11.8809C13.3711 11.5254 13.2344 11.1836 12.9746 10.9648L2.13281 0.369141C1.90039 0.136719 1.59961 0 1.24414 0C0.533203 0 0 0.546875 0 1.25781C0 1.58594 0.136719 1.91406 0.355469 2.14648L11.0605 12.6055L11.0605 11.1426L0.355469 21.6152C0.136719 21.8477 0 22.1621 0 22.5039C0 23.2148 0.533203 23.748 1.24414 23.748Z" fill="black" fill-opacity="0.85"/>
 </g>
</svg>
