<?xml version="1.0" encoding="UTF-8"?>
<!--Generator: Apple Native CoreSVG 326-->
<!DOCTYPE svg
PUBLIC "-//W3C//DTD SVG 1.1//EN"
       "http://www.w3.org/Graphics/SVG/1.1/DTD/svg11.dtd">
<svg version="1.1" xmlns="http://www.w3.org/2000/svg" xmlns:xlink="http://www.w3.org/1999/xlink" viewBox="0 0 25.9492 23.7754">
 <g>
  <rect height="23.7754" opacity="0" width="25.9492" x="0" y="0"/>
  <path d="M23.4473 23.3789C23.6797 23.6113 23.9941 23.748 24.3359 23.748C25.0469 23.748 25.5938 23.2148 25.5938 22.5039C25.5938 22.1621 25.4434 21.8477 25.2246 21.6152L14.5332 11.1426L14.5332 12.6055L25.2246 2.14648C25.4434 1.91406 25.5938 1.58594 25.5938 1.25781C25.5938 0.546875 25.0469 0 24.3359 0C23.9941 0 23.6934 0.136719 23.4473 0.369141L12.6191 10.9648C12.3594 11.1836 12.209 11.5254 12.209 11.8809C12.209 12.2227 12.3594 12.5371 12.6191 12.7969Z" fill="black" fill-opacity="0.85"/>
  <path d="M11.2383 23.3789C11.4707 23.6113 11.7715 23.748 12.127 23.748C12.8379 23.748 13.3711 23.2148 13.3711 22.5039C13.3711 22.1621 13.2344 21.8477 13.0156 21.6152L2.31055 11.1426L2.31055 12.6055L13.0156 2.14648C13.2344 1.91406 13.3711 1.58594 13.3711 1.25781C13.3711 0.546875 12.8379 0 12.127 0C11.7715 0 11.4707 0.136719 11.2383 0.369141L0.410156 10.9648C0.150391 11.1836 0 11.5254 0 11.8809C0 12.2227 0.136719 12.5371 0.396484 12.7969Z" fill="black" fill-opacity="0.85"/>
 </g>
</svg>
