<?xml version="1.0" encoding="UTF-8"?>
<!--Generator: Apple Native CoreSVG 326-->
<!DOCTYPE svg
PUBLIC "-//W3C//DTD SVG 1.1//EN"
       "http://www.w3.org/Graphics/SVG/1.1/DTD/svg11.dtd">
<svg version="1.1" xmlns="http://www.w3.org/2000/svg" xmlns:xlink="http://www.w3.org/1999/xlink" viewBox="0 0 24.7324 7.47852">
 <g>
  <rect height="7.47852" opacity="0" width="24.7324" x="0" y="0"/>
  <path d="M0.861328 2.58398L10.1992 6.23438C10.8281 6.48047 11.5801 6.78125 12.1953 6.78125C12.7969 6.78125 13.5625 6.48047 14.1914 6.23438L23.5156 2.58398C24.0352 2.37891 24.377 1.91406 24.377 1.4082C24.377 0.601562 23.7891 0 22.9961 0C22.5859 0 22.0391 0.232422 21.6973 0.355469L11.2246 4.4707L13.1523 4.4707L2.67969 0.355469C2.33789 0.232422 1.80469 0 1.38086 0C0.587891 0 0 0.601562 0 1.4082C0 1.91406 0.341797 2.37891 0.861328 2.58398Z" fill="black" fill-opacity="0.85"/>
 </g>
</svg>
