<?xml version="1.0" encoding="UTF-8"?>
<!--Generator: Apple Native CoreSVG 326-->
<!DOCTYPE svg
PUBLIC "-//W3C//DTD SVG 1.1//EN"
       "http://www.w3.org/Graphics/SVG/1.1/DTD/svg11.dtd">
<svg version="1.1" xmlns="http://www.w3.org/2000/svg" xmlns:xlink="http://www.w3.org/1999/xlink" viewBox="0 0 24.1035 14.5605">
 <g>
  <rect height="14.5605" opacity="0" width="24.1035" x="0" y="0"/>
  <path d="M11.8809 14.5605C12.2227 14.5605 12.5645 14.4238 12.7969 14.1641L23.3789 3.32227C23.6113 3.08984 23.748 2.78906 23.748 2.44727C23.748 1.73633 23.2148 1.18945 22.5039 1.18945C22.1621 1.18945 21.8477 1.32617 21.6152 1.54492L11.1426 12.25L12.6055 12.25L2.13281 1.54492C1.91406 1.32617 1.59961 1.18945 1.24414 1.18945C0.533203 1.18945 0 1.73633 0 2.44727C0 2.78906 0.136719 3.08984 0.369141 3.33594L10.9512 14.1641C11.2109 14.4238 11.5254 14.5605 11.8809 14.5605Z" fill="black" fill-opacity="0.85"/>
 </g>
</svg>
