<?xml version="1.0" encoding="UTF-8"?>
<!--Generator: Apple Native CoreSVG 326-->
<!DOCTYPE svg
PUBLIC "-//W3C//DTD SVG 1.1//EN"
       "http://www.w3.org/Graphics/SVG/1.1/DTD/svg11.dtd">
<svg version="1.1" xmlns="http://www.w3.org/2000/svg" xmlns:xlink="http://www.w3.org/1999/xlink" viewBox="0 0 16.1465 23.7754">
 <g>
  <rect height="23.7754" opacity="0" width="16.1465" x="0" y="0"/>
  <path d="M15.791 22.5039C15.791 22.1621 15.668 21.8613 15.4219 21.6152L4.60742 11.0332L4.60742 12.7148L15.4219 2.14648C15.668 1.91406 15.791 1.59961 15.791 1.25781C15.791 0.533203 15.2441 0 14.5469 0C14.1777 0 13.9043 0.136719 13.6445 0.369141L2.80273 10.9648C2.55664 11.2109 2.40625 11.5254 2.40625 11.8809C2.40625 12.2363 2.55664 12.5371 2.81641 12.7969L13.6445 23.3789C13.8906 23.6387 14.1777 23.7617 14.5332 23.7617C15.2441 23.7617 15.791 23.2148 15.791 22.5039ZM2.44727 22.5723L2.44727 1.2168C2.44727 0.505859 1.94141 0 1.2168 0C0.505859 0 0 0.505859 0 1.2168L0 22.5723C0 23.2695 0.505859 23.7617 1.2168 23.7617C1.94141 23.7617 2.44727 23.2695 2.44727 22.5723Z" fill="black" fill-opacity="0.85"/>
 </g>
</svg>
