<?xml version="1.0" encoding="UTF-8"?>
<!--Generator: Apple Native CoreSVG 326-->
<!DOCTYPE svg
PUBLIC "-//W3C//DTD SVG 1.1//EN"
       "http://www.w3.org/Graphics/SVG/1.1/DTD/svg11.dtd">
<svg version="1.1" xmlns="http://www.w3.org/2000/svg" xmlns:xlink="http://www.w3.org/1999/xlink" viewBox="0 0 29.9995 29.6748">
 <g>
  <rect height="29.6748" opacity="0" width="29.9995" x="0" y="0"/>
  <path d="M15.7517 0.434082C15.1912-0.126465 14.4392-0.126465 13.865 0.434082L9.2986 4.98682C8.75173 5.53369 8.75173 6.13525 9.2986 6.66846C9.84548 7.229 10.4197 7.21533 10.9939 6.65479L14.8084 2.82666L18.6228 6.65479C19.1834 7.20166 19.7849 7.21533 20.3181 6.66846C20.8513 6.13525 20.8513 5.53369 20.3045 4.98682ZM22.9978 20.3267C23.531 20.8872 24.1463 20.8599 24.6931 20.313L29.2322 15.7739C29.7791 15.2271 29.7791 14.4341 29.2459 13.9009L24.6658 9.29346C24.0916 8.71924 23.4763 8.73291 22.9705 9.27979C22.4099 9.81299 22.4099 10.4282 22.9705 10.9751L26.8259 14.8306L23.0115 18.645C22.4783 19.1919 22.4646 19.7935 22.9978 20.3267ZM13.865 29.2544C14.4256 29.8149 15.1775 29.8149 15.7517 29.2544L20.3181 24.7017C20.865 24.1548 20.865 23.5532 20.3181 23.02C19.7713 22.4595 19.197 22.4595 18.6228 23.0337L14.8084 26.8481L10.9529 22.9927C10.3787 22.4185 9.79079 22.4185 9.24391 22.979C8.72438 23.5122 8.72438 24.1138 9.27126 24.6606ZM6.6736 20.3813C7.23415 19.8481 7.24782 19.2329 6.6736 18.6724L2.81813 14.8306L6.64626 10.9888C7.19313 10.4556 7.17946 9.854 6.65993 9.3208C6.11305 8.77393 5.49782 8.7876 4.95094 9.33447L0.411881 13.8872C-0.134994 14.4341-0.134994 15.2271 0.39821 15.7603L4.97829 20.3677C5.55251 20.9419 6.16774 20.9282 6.6736 20.3813Z" fill="black" fill-opacity="0.85"/>
 </g>
</svg>
