<?xml version="1.0" encoding="UTF-8"?>
<!--Generator: Apple Native CoreSVG 326-->
<!DOCTYPE svg
PUBLIC "-//W3C//DTD SVG 1.1//EN"
       "http://www.w3.org/Graphics/SVG/1.1/DTD/svg11.dtd">
<svg version="1.1" xmlns="http://www.w3.org/2000/svg" xmlns:xlink="http://www.w3.org/1999/xlink" viewBox="0 0 33.291 27.3099">
 <g>
  <rect height="27.3099" opacity="0" width="33.291" x="0" y="0"/>
  <path d="M32.9355 16.3962C32.9355 7.78289 26.3184 0.714533 17.8965 0.00359537C17.459-0.0374203 17.1309 0.277033 17.1309 0.714533L17.1309 5.18524C17.1309 5.55438 17.3906 5.84149 17.7598 5.86883C22.9961 6.51141 27.0703 10.9821 27.0703 16.3962C27.0703 18.8571 26.2227 21.1266 24.7324 23.027C24.541 23.2595 24.5547 23.5602 24.7598 23.779L28.0273 27.0329C28.3281 27.3337 28.793 27.3337 29.0664 27.0055C31.4863 24.1345 32.9355 20.4294 32.9355 16.3962Z" fill="black" fill-opacity="0.85"/>
  <path d="M0 16.3962C0 20.443 1.44922 24.1481 3.86914 27.0192C4.14258 27.3473 4.59375 27.3337 4.9082 27.0329L8.17578 23.779C8.38086 23.5602 8.39453 23.2595 8.20312 23.027C6.69922 21.1266 5.86523 18.8571 5.86523 16.3962C5.86523 10.9821 9.93945 6.51141 15.1758 5.86883C15.5449 5.84149 15.8047 5.55438 15.8047 5.18524L15.8047 0.714533C15.8047 0.277033 15.4766-0.0374203 15.0391 0.00359537C6.61719 0.714533 0 7.78289 0 16.3962Z" fill="black" fill-opacity="0.85"/>
  <path d="M16.4473 22.986C16.9258 22.986 17.2402 22.6579 17.2402 22.1657L17.2402 17.695L21.1367 11.4196C21.2598 11.2145 21.3008 11.1188 21.3008 10.9001C21.3008 10.4626 20.959 10.1755 20.5215 10.1755C20.2207 10.1755 19.9746 10.3395 19.7969 10.6266L16.4883 16.2458L16.4336 16.2458L13.125 10.6266C12.9473 10.3395 12.7559 10.1618 12.3867 10.1618C11.9492 10.1618 11.6074 10.4489 11.6074 10.9001C11.6074 11.0505 11.6484 11.2282 11.7715 11.4333L15.668 17.695L15.668 22.1657C15.668 22.6579 15.9824 22.986 16.4473 22.986ZM12.5234 17.3805C12.5234 17.6403 12.7285 17.8454 12.9883 17.8454L19.9473 17.8454C20.207 17.8454 20.4121 17.6403 20.4121 17.3805C20.4121 17.1208 20.207 16.9157 19.9473 16.9157L12.9883 16.9157C12.7285 16.9157 12.5234 17.1208 12.5234 17.3805ZM12.5234 19.7458C12.5234 20.0055 12.7285 20.2106 12.9883 20.2106L19.9473 20.2106C20.207 20.2106 20.4121 20.0055 20.4121 19.7458C20.4121 19.486 20.207 19.2809 19.9473 19.2809L12.9883 19.2809C12.7285 19.2809 12.5234 19.486 12.5234 19.7458Z" fill="black" fill-opacity="0.85"/>
 </g>
</svg>
