<?xml version="1.0" encoding="UTF-8"?>
<!--Generator: Apple Native CoreSVG 326-->
<!DOCTYPE svg
PUBLIC "-//W3C//DTD SVG 1.1//EN"
       "http://www.w3.org/Graphics/SVG/1.1/DTD/svg11.dtd">
<svg version="1.1" xmlns="http://www.w3.org/2000/svg" xmlns:xlink="http://www.w3.org/1999/xlink" viewBox="0 0 25.5254 25.1699">
 <g>
  <rect height="25.1699" opacity="0" width="25.5254" x="0" y="0"/>
  <path d="M4.29297 25.1699L20.877 25.1699C23.748 25.1699 25.1699 23.7617 25.1699 20.9453L25.1699 4.23828C25.1699 1.42188 23.748 0 20.877 0L4.29297 0C1.43555 0 0 1.42188 0 4.23828L0 20.9453C0 23.7617 1.43555 25.1699 4.29297 25.1699ZM4.32031 22.9688C2.95312 22.9688 2.20117 22.2441 2.20117 20.8223L2.20117 4.36133C2.20117 2.93945 2.95312 2.20117 4.32031 2.20117L20.8496 2.20117C22.2031 2.20117 22.9688 2.93945 22.9688 4.36133L22.9688 20.8223C22.9688 22.2441 22.2031 22.9688 20.8496 22.9688Z" fill="black" fill-opacity="0.85"/>
  <path d="M12.5918 18.9902C13.0703 18.9902 13.3848 18.6621 13.3848 18.1699L13.3848 13.6992L17.2812 7.42383C17.4043 7.21875 17.4453 7.12305 17.4453 6.89062C17.4453 6.4668 17.1035 6.17969 16.666 6.17969C16.3652 6.17969 16.1191 6.33008 15.9414 6.61719L12.6328 12.25L12.5781 12.25L9.25586 6.61719C9.0918 6.33008 8.88672 6.16602 8.53125 6.16602C8.09375 6.16602 7.73828 6.45312 7.73828 6.89062C7.73828 7.05469 7.79297 7.23242 7.91602 7.42383L11.7988 13.6992L11.7988 18.1699C11.7988 18.6621 12.127 18.9902 12.5918 18.9902ZM8.66797 13.3848C8.66797 13.6445 8.87305 13.8496 9.13281 13.8496L16.0918 13.8496C16.3516 13.8496 16.5566 13.6445 16.5566 13.3848C16.5566 13.1113 16.3516 12.9199 16.0918 12.9199L9.13281 12.9199C8.87305 12.9199 8.66797 13.1113 8.66797 13.3848ZM8.66797 15.75C8.66797 16.0098 8.87305 16.2148 9.13281 16.2148L16.0918 16.2148C16.3516 16.2148 16.5566 16.0098 16.5566 15.75C16.5566 15.4902 16.3516 15.2852 16.0918 15.2852L9.13281 15.2852C8.87305 15.2852 8.66797 15.4902 8.66797 15.75Z" fill="black" fill-opacity="0.85"/>
 </g>
</svg>
