<?xml version="1.0" encoding="UTF-8"?>
<!--Generator: Apple Native CoreSVG 326-->
<!DOCTYPE svg
PUBLIC "-//W3C//DTD SVG 1.1//EN"
       "http://www.w3.org/Graphics/SVG/1.1/DTD/svg11.dtd">
<svg version="1.1" xmlns="http://www.w3.org/2000/svg" xmlns:xlink="http://www.w3.org/1999/xlink" viewBox="0 0 19.4277 25.5254">
 <g>
  <rect height="25.5254" opacity="0" width="19.4277" x="0" y="0"/>
  <path d="M9.5293 25.5117C10.3359 25.5117 10.8555 24.9785 10.8555 24.1445L10.8555 14.7656L18.7988 2.0918C18.9766 1.80469 19.0723 1.53125 19.0723 1.20312C19.0723 0.464844 18.4434 0 17.7188 0C17.2402 0 16.8027 0.287109 16.543 0.710938L9.59766 12.3047L9.47461 12.3047L2.5293 0.724609C2.2832 0.287109 1.83203 0 1.35352 0C0.628906 0 0 0.464844 0 1.20312C0 1.53125 0.0957031 1.80469 0.273438 2.0918L8.20312 14.7656L8.20312 24.1445C8.20312 24.9785 8.72266 25.5117 9.5293 25.5117ZM1.92773 14.1641C1.92773 14.6562 2.33789 15.0527 2.81641 15.0527L16.3652 15.0527C16.8438 15.0527 17.2539 14.6562 17.2539 14.1641C17.2539 13.6719 16.8438 13.2754 16.3652 13.2754L2.81641 13.2754C2.33789 13.2754 1.92773 13.6719 1.92773 14.1641ZM1.92773 18.8945C1.92773 19.3867 2.33789 19.7832 2.81641 19.7832L16.3652 19.7832C16.8438 19.7832 17.2539 19.3867 17.2539 18.8945C17.2539 18.4023 16.8438 18.0059 16.3652 18.0059L2.81641 18.0059C2.33789 18.0059 1.92773 18.4023 1.92773 18.8945Z" fill="black" fill-opacity="0.85"/>
 </g>
</svg>
