<?xml version="1.0" encoding="UTF-8"?>
<!--Generator: Apple Native CoreSVG 326-->
<!DOCTYPE svg
PUBLIC "-//W3C//DTD SVG 1.1//EN"
       "http://www.w3.org/Graphics/SVG/1.1/DTD/svg11.dtd">
<svg version="1.1" xmlns="http://www.w3.org/2000/svg" xmlns:xlink="http://www.w3.org/1999/xlink" viewBox="0 0 30.8848 29.1895">
 <g>
  <rect height="29.1895" opacity="0" width="30.8848" x="0" y="0"/>
  <path d="M1.81836 27.5898L28.7109 27.5898L28.7109 25.9766C28.7109 25.4297 28.3965 25.1016 27.8359 25.1016L26.9609 25.1016L26.9609 9.37891L28.1641 9.37891C28.916 9.37891 29.3535 8.83203 29.3535 8.27148C29.3535 7.86133 29.1211 7.50586 28.6152 7.21875L16.9395 0.478516C16.3926 0.164062 15.8184 0 15.2578 0C14.6973 0 14.1094 0.164062 13.5898 0.478516L1.91406 7.21875C1.39453 7.50586 1.17578 7.86133 1.17578 8.27148C1.17578 8.83203 1.61328 9.37891 2.36523 9.37891L3.56836 9.37891L3.56836 25.1016L2.70703 25.1016C2.14648 25.1016 1.81836 25.4297 1.81836 25.9766ZM1.09375 29.1758L29.4219 29.1758C30.0234 29.1758 30.5293 28.6699 30.5293 28.0684C30.5293 27.4668 30.0234 26.9746 29.4219 26.9746L1.09375 26.9746C0.492188 26.9746 0 27.4668 0 28.0684C0 28.6699 0.492188 29.1758 1.09375 29.1758Z" fill="black" fill-opacity="0.85"/>
  <path d="M15.2715 22.2305C14.793 22.2305 14.4512 21.875 14.4512 21.3828L14.4512 19.373L11.7031 19.373C11.4297 19.373 11.2246 19.1543 11.2246 18.8945C11.2246 18.6074 11.4297 18.3887 11.7031 18.3887L14.4512 18.3887L14.4512 16.9258L14.4512 16.9258L11.7031 16.9258C11.4297 16.9258 11.2246 16.7207 11.2246 16.4336C11.2246 16.1602 11.4297 15.9551 11.7031 15.9551L13.959 15.9551L10.4453 10.2949C10.3223 10.1035 10.2676 9.89844 10.2676 9.74805C10.2676 9.29688 10.6094 8.98242 11.0879 8.98242C11.457 8.98242 11.6621 9.16016 11.8398 9.46094L15.2441 15.2578L15.3125 15.2578L18.7168 9.46094C18.8945 9.16016 19.168 8.99609 19.4551 8.99609C19.9199 8.99609 20.2754 9.31055 20.2754 9.74805C20.2754 9.9668 20.2344 10.0762 20.1113 10.2812L16.5977 15.9551L18.8809 15.9551C19.1543 15.9551 19.3594 16.1602 19.3594 16.4336C19.3594 16.7207 19.1543 16.9258 18.8809 16.9258L16.0918 16.9258L16.0918 16.9258L16.0918 18.3887L18.8809 18.3887C19.1543 18.3887 19.3594 18.6074 19.3594 18.8945C19.3594 19.1543 19.1543 19.373 18.8809 19.373L16.0918 19.373L16.0918 21.3828C16.0918 21.875 15.75 22.2305 15.2715 22.2305Z" fill="white"/>
 </g>
</svg>
