<?xml version="1.0" encoding="UTF-8"?>
<!--Generator: Apple Native CoreSVG 326-->
<!DOCTYPE svg
PUBLIC "-//W3C//DTD SVG 1.1//EN"
       "http://www.w3.org/Graphics/SVG/1.1/DTD/svg11.dtd">
<svg version="1.1" xmlns="http://www.w3.org/2000/svg" xmlns:xlink="http://www.w3.org/1999/xlink" viewBox="0 0 28.4512 26.8105">
 <g>
  <rect height="26.8105" opacity="0" width="28.4512" x="0" y="0"/>
  <path d="M24.1035 26.8105C26.3047 26.8105 28.082 25.0332 28.082 22.832C28.082 20.6309 26.3047 18.8535 24.1035 18.8535C21.9023 18.8535 20.125 20.6309 20.125 22.832C20.125 25.0332 21.9023 26.8105 24.1035 26.8105Z" fill="black" fill-opacity="0.85"/>
  <path d="M14.041 26.8105C16.2422 26.8105 18.0195 25.0332 18.0195 22.832C18.0195 20.6309 16.2422 18.8535 14.041 18.8535C11.8398 18.8535 10.0625 20.6309 10.0625 22.832C10.0625 25.0332 11.8398 26.8105 14.041 26.8105Z" fill="black" fill-opacity="0.85"/>
  <path d="M3.97852 26.8105C6.17969 26.8105 7.9707 25.0332 7.9707 22.832C7.9707 20.6309 6.17969 18.8535 3.97852 18.8535C1.77734 18.8535 0 20.6309 0 22.832C0 25.0332 1.77734 26.8105 3.97852 26.8105Z" fill="black" fill-opacity="0.85"/>
  <path d="M24.1035 17.3906C26.3047 17.3906 28.082 15.6133 28.082 13.4121C28.082 11.2109 26.3047 9.43359 24.1035 9.43359C21.9023 9.43359 20.125 11.2109 20.125 13.4121C20.125 15.6133 21.9023 17.3906 24.1035 17.3906Z" fill="black" fill-opacity="0.85"/>
  <path d="M14.041 17.3906C16.2422 17.3906 18.0195 15.6133 18.0195 13.4121C18.0195 11.2109 16.2422 9.43359 14.041 9.43359C11.8398 9.43359 10.0625 11.2109 10.0625 13.4121C10.0625 15.6133 11.8398 17.3906 14.041 17.3906Z" fill="black" fill-opacity="0.85"/>
  <path d="M3.97852 17.3906C6.17969 17.3906 7.9707 15.6133 7.9707 13.4121C7.9707 11.2109 6.17969 9.43359 3.97852 9.43359C1.77734 9.43359 0 11.2109 0 13.4121C0 15.6133 1.77734 17.3906 3.97852 17.3906Z" fill="black" fill-opacity="0.85"/>
  <path d="M24.1172 7.9707C26.3184 7.9707 28.0957 6.17969 28.0957 3.99219C28.0957 1.79102 26.3184 0 24.1172 0C21.916 0 20.1387 1.79102 20.1387 3.99219C20.1387 6.17969 21.916 7.9707 24.1172 7.9707Z" fill="black" fill-opacity="0.85"/>
  <path d="M14.0547 7.9707C16.2559 7.9707 18.0332 6.17969 18.0332 3.99219C18.0332 1.79102 16.2559 0 14.0547 0C11.8535 0 10.0762 1.79102 10.0762 3.99219C10.0762 6.17969 11.8535 7.9707 14.0547 7.9707Z" fill="black" fill-opacity="0.85"/>
  <path d="M3.99219 7.9707C6.19336 7.9707 7.98438 6.17969 7.98438 3.99219C7.98438 1.79102 6.19336 0 3.99219 0C1.79102 0 0.0136719 1.79102 0.0136719 3.99219C0.0136719 6.17969 1.79102 7.9707 3.99219 7.9707Z" fill="black" fill-opacity="0.85"/>
 </g>
</svg>
