<?xml version="1.0" encoding="UTF-8"?>
<!--Generator: Apple Native CoreSVG 326-->
<!DOCTYPE svg
PUBLIC "-//W3C//DTD SVG 1.1//EN"
       "http://www.w3.org/Graphics/SVG/1.1/DTD/svg11.dtd">
<svg version="1.1" xmlns="http://www.w3.org/2000/svg" xmlns:xlink="http://www.w3.org/1999/xlink" viewBox="0 0 23.2012 30.8301">
 <g>
  <rect height="30.8301" opacity="0" width="23.2012" x="0" y="0"/>
  <path d="M3.78711 30.8027L19.0586 30.8027C21.3281 30.8027 22.8457 29.3535 22.8457 27.1934L22.8457 3.62305C22.8457 1.46289 21.3281 0 19.0586 0L3.78711 0C1.51758 0 0 1.46289 0 3.62305L0 27.1934C0 29.3535 1.51758 30.8027 3.78711 30.8027Z" fill="black" fill-opacity="0.85"/>
  <path d="M11.416 22.4082C7.56055 22.4082 4.41602 19.2773 4.41602 15.3945C4.41602 11.5391 7.56055 8.4082 11.416 8.4082C15.2852 8.4082 18.4297 11.5391 18.4297 15.3945C18.4297 19.2773 15.2852 22.4082 11.416 22.4082Z" fill="white"/>
 </g>
</svg>
