<?xml version="1.0" encoding="UTF-8"?>
<!--Generator: Apple Native CoreSVG 326-->
<!DOCTYPE svg
PUBLIC "-//W3C//DTD SVG 1.1//EN"
       "http://www.w3.org/Graphics/SVG/1.1/DTD/svg11.dtd">
<svg version="1.1" xmlns="http://www.w3.org/2000/svg" xmlns:xlink="http://www.w3.org/1999/xlink" viewBox="0 0 32.1426 32.4434">
 <g>
  <rect height="32.4434" opacity="0" width="32.1426" x="0" y="0"/>
  <path d="M15.9004 32.416C19.168 32.416 21.8477 29.7227 21.8477 26.4551C21.8477 23.2012 19.168 20.5078 15.9004 20.5078C12.6055 20.5078 9.92578 23.2012 9.92578 26.4551C9.92578 29.7227 12.6055 32.416 15.9004 32.416Z" fill="black" fill-opacity="0.85"/>
  <path d="M25.8398 22.1621C29.0938 22.1621 31.7871 19.4688 31.7871 16.2012C31.7871 12.9473 29.0938 10.2539 25.8398 10.2539C22.5449 10.2539 19.8652 12.9473 19.8652 16.2012C19.8652 19.4688 22.5449 22.1621 25.8398 22.1621ZM25.8398 20.0156C23.6797 20.0156 22.0117 18.3477 22.0117 16.2012C22.0117 14.0684 23.6797 12.3457 25.8398 12.3457C27.9727 12.3457 29.6406 14.0684 29.6406 16.2012C29.6406 18.3477 27.9727 20.0156 25.8398 20.0156Z" fill="black" fill-opacity="0.85"/>
  <path d="M5.96094 22.1621C9.22852 22.1621 11.9219 19.4688 11.9219 16.2012C11.9219 12.9473 9.22852 10.2539 5.96094 10.2539C2.66602 10.2539 0 12.9473 0 16.2012C0 19.4688 2.66602 22.1621 5.96094 22.1621ZM5.96094 20.0156C3.81445 20.0156 2.13281 18.3477 2.13281 16.2012C2.13281 14.0684 3.81445 12.3457 5.96094 12.3457C8.09375 12.3457 9.77539 14.0684 9.77539 16.2012C9.77539 18.3477 8.09375 20.0156 5.96094 20.0156Z" fill="black" fill-opacity="0.85"/>
  <path d="M15.8867 11.9082C19.1543 11.9082 21.8477 9.21484 21.8477 5.94727C21.8477 2.67969 19.1543 0 15.8867 0C12.6055 0 9.92578 2.67969 9.92578 5.94727C9.92578 9.21484 12.6055 11.9082 15.8867 11.9082ZM15.8867 9.74805C13.7402 9.74805 12.0586 8.08008 12.0586 5.94727C12.0586 3.81445 13.7402 2.0918 15.8867 2.0918C18.0332 2.0918 19.7012 3.81445 19.7012 5.94727C19.7012 8.08008 18.0332 9.74805 15.8867 9.74805Z" fill="black" fill-opacity="0.85"/>
 </g>
</svg>
