<?xml version="1.0" encoding="UTF-8"?>
<!--Generator: Apple Native CoreSVG 326-->
<!DOCTYPE svg
PUBLIC "-//W3C//DTD SVG 1.1//EN"
       "http://www.w3.org/Graphics/SVG/1.1/DTD/svg11.dtd">
<svg version="1.1" xmlns="http://www.w3.org/2000/svg" xmlns:xlink="http://www.w3.org/1999/xlink" viewBox="0 0 28.2461 27.9043">
 <g>
  <rect height="27.9043" opacity="0" width="28.2461" x="0" y="0"/>
  <path d="M13.9453 27.8906C21.6426 27.8906 27.8906 21.6426 27.8906 13.9453C27.8906 6.24805 21.6426 0 13.9453 0C6.24805 0 0 6.24805 0 13.9453C0 21.6426 6.24805 27.8906 13.9453 27.8906ZM13.9453 25.5664C7.51953 25.5664 2.32422 20.3711 2.32422 13.9453C2.32422 7.51953 7.51953 2.32422 13.9453 2.32422C20.3711 2.32422 25.5664 7.51953 25.5664 13.9453C25.5664 20.3711 20.3711 25.5664 13.9453 25.5664Z" fill="black" fill-opacity="0.85"/>
  <path d="M11.0195 11.1016C12.3457 11.1016 13.4121 10.0352 13.4121 8.70898C13.4121 7.38281 12.3457 6.33008 11.0195 6.33008C9.69336 6.33008 8.64062 7.38281 8.64062 8.70898C8.64062 10.0352 9.69336 11.1016 11.0195 11.1016ZM16.8438 11.1016C18.1699 11.1016 19.2227 10.0352 19.2227 8.70898C19.2227 7.38281 18.1699 6.33008 16.8438 6.33008C15.5176 6.33008 14.4512 7.38281 14.4512 8.70898C14.4512 10.0352 15.5176 11.1016 16.8438 11.1016ZM8.10742 16.3242C9.43359 16.3242 10.5 15.2715 10.5 13.9453C10.5 12.6191 9.43359 11.5527 8.10742 11.5527C6.79492 11.5527 5.72852 12.6191 5.72852 13.9453C5.72852 15.2715 6.79492 16.3242 8.10742 16.3242ZM13.9316 16.3242C15.2578 16.3242 16.3242 15.2715 16.3242 13.9453C16.3242 12.6191 15.2578 11.5527 13.9316 11.5527C12.6055 11.5527 11.5527 12.6191 11.5527 13.9453C11.5527 15.2715 12.6055 16.3242 13.9316 16.3242ZM19.7559 16.3242C21.082 16.3242 22.1348 15.2715 22.1348 13.9453C22.1348 12.6191 21.082 11.5527 19.7559 11.5527C18.4297 11.5527 17.3633 12.6191 17.3633 13.9453C17.3633 15.2715 18.4297 16.3242 19.7559 16.3242ZM11.0195 21.5605C12.3184 21.5605 13.3984 20.4941 13.3984 19.1816C13.3984 17.8828 12.3184 16.8027 11.0195 16.8027C9.70703 16.8027 8.64062 17.8828 8.64062 19.1816C8.64062 20.4805 9.69336 21.5605 11.0195 21.5605ZM16.8438 21.5605C18.1699 21.5605 19.2227 20.4941 19.2227 19.1816C19.2227 17.8555 18.1699 16.7891 16.8438 16.7891C15.5176 16.7891 14.4512 17.8555 14.4512 19.1816C14.4512 20.4941 15.5176 21.5605 16.8438 21.5605Z" fill="black" fill-opacity="0.85"/>
 </g>
</svg>
