<?xml version="1.0" encoding="UTF-8"?>
<!--Generator: Apple Native CoreSVG 326-->
<!DOCTYPE svg
PUBLIC "-//W3C//DTD SVG 1.1//EN"
       "http://www.w3.org/Graphics/SVG/1.1/DTD/svg11.dtd">
<svg version="1.1" xmlns="http://www.w3.org/2000/svg" xmlns:xlink="http://www.w3.org/1999/xlink" viewBox="0 0 29.5723 27.1113">
 <g>
  <rect height="27.1113" opacity="0" width="29.5723" x="0" y="0"/>
  <path d="M19.6328 27.1113C22.1621 27.1113 24.1992 25.0605 24.1992 22.5449C24.1992 20.0156 22.1621 17.9648 19.6328 17.9648C17.1035 17.9648 15.0664 20.0156 15.0664 22.5449C15.0664 25.0605 17.1035 27.1113 19.6328 27.1113Z" fill="#ffcc00"/>
  <path d="M9.58398 27.1113C12.1133 27.1113 14.1504 25.0605 14.1504 22.5449C14.1504 20.0156 12.1133 17.9648 9.58398 17.9648C7.05469 17.9648 5.01758 20.0156 5.01758 22.5449C5.01758 25.0605 7.05469 27.1113 9.58398 27.1113Z" fill="#007aff"/>
  <path d="M24.6504 18.1152C27.1797 18.1152 29.2168 16.0781 29.2168 13.5488C29.2168 11.0195 27.1797 8.98242 24.6504 8.98242C22.1211 8.98242 20.0703 11.0195 20.0703 13.5488C20.0703 16.0781 22.1211 18.1152 24.6504 18.1152Z" fill="#5856d6"/>
  <path d="M4.56641 18.1152C7.0957 18.1152 9.14648 16.0781 9.14648 13.5488C9.14648 11.0195 7.0957 8.98242 4.56641 8.98242C2.05078 8.98242 0 11.0195 0 13.5488C0 16.0781 2.05078 18.1152 4.56641 18.1152Z" fill="black" fill-opacity="0.85"/>
  <path d="M19.6328 9.13281C22.1621 9.13281 24.1992 7.0957 24.1992 4.56641C24.1992 2.03711 22.1621 0 19.6328 0C17.1035 0 15.0664 2.03711 15.0664 4.56641C15.0664 7.0957 17.1035 9.13281 19.6328 9.13281Z" fill="#ff2d55"/>
  <path d="M9.58398 9.13281C12.1133 9.13281 14.1504 7.0957 14.1504 4.56641C14.1504 2.03711 12.1133 0 9.58398 0C7.05469 0 5.01758 2.03711 5.01758 4.56641C5.01758 7.0957 7.05469 9.13281 9.58398 9.13281Z" fill="#ff9500"/>
  <path d="M14.6152 18.1152C17.1309 18.1152 19.1816 16.0781 19.1816 13.5488C19.1816 11.0195 17.1309 8.98242 14.6152 8.98242C12.0859 8.98242 10.0352 11.0195 10.0352 13.5488C10.0352 16.0781 12.0859 18.1152 14.6152 18.1152Z" fill="#28cd41"/>
 </g>
</svg>
