<?xml version="1.0" encoding="UTF-8"?>
<!--Generator: Apple Native CoreSVG 326-->
<!DOCTYPE svg
PUBLIC "-//W3C//DTD SVG 1.1//EN"
       "http://www.w3.org/Graphics/SVG/1.1/DTD/svg11.dtd">
<svg version="1.1" xmlns="http://www.w3.org/2000/svg" xmlns:xlink="http://www.w3.org/1999/xlink" viewBox="0 0 28.2461 27.9043">
 <g>
  <rect height="27.9043" opacity="0" width="28.2461" x="0" y="0"/>
  <path d="M13.9453 27.8906C21.6426 27.8906 27.8906 21.6426 27.8906 13.9453C27.8906 6.24805 21.6426 0 13.9453 0C6.24805 0 0 6.24805 0 13.9453C0 21.6426 6.24805 27.8906 13.9453 27.8906ZM13.9453 25.5664C7.51953 25.5664 2.32422 20.3711 2.32422 13.9453C2.32422 7.51953 7.51953 2.32422 13.9453 2.32422C20.3711 2.32422 25.5664 7.51953 25.5664 13.9453C25.5664 20.3711 20.3711 25.5664 13.9453 25.5664Z" fill="black" fill-opacity="0.85"/>
  <path d="M9.65234 15.6816L17.7871 15.6816C19.9199 15.6816 21.5332 14.0547 21.5332 12.0312C21.5332 9.93945 19.8242 8.42188 17.6094 8.42188C16.7891 6.80859 15.2715 5.74219 13.3848 5.74219C10.9102 5.74219 8.88672 7.68359 8.6543 10.1309C7.47852 10.4727 6.5625 11.498 6.5625 12.8789C6.5625 14.4238 7.69727 15.6816 9.65234 15.6816ZM9.17383 18.5527L18.7168 18.5527C19.0586 18.5527 19.3457 18.2793 19.3457 17.9238C19.3457 17.582 19.0586 17.3086 18.7168 17.3086L9.17383 17.3086C8.83203 17.3086 8.55859 17.582 8.55859 17.9238C8.55859 18.2793 8.83203 18.5527 9.17383 18.5527ZM9.17383 21.3281L18.7168 21.3281C19.0586 21.3281 19.3457 21.0547 19.3457 20.7129C19.3457 20.3711 19.0586 20.0977 18.7168 20.0977L9.17383 20.0977C8.83203 20.0977 8.55859 20.3711 8.55859 20.7129C8.55859 21.0547 8.83203 21.3281 9.17383 21.3281Z" fill="black" fill-opacity="0.85"/>
 </g>
</svg>
