<?xml version="1.0" encoding="UTF-8"?>
<!--Generator: Apple Native CoreSVG 326-->
<!DOCTYPE svg
PUBLIC "-//W3C//DTD SVG 1.1//EN"
       "http://www.w3.org/Graphics/SVG/1.1/DTD/svg11.dtd">
<svg version="1.1" xmlns="http://www.w3.org/2000/svg" xmlns:xlink="http://www.w3.org/1999/xlink" viewBox="0 0 32.252 31.5218">
 <g>
  <rect height="31.5218" opacity="0" width="32.252" x="0" y="0"/>
  <path d="M21.875 31.0939L25.9219 24.0939C26.1543 23.6837 26.0312 23.2189 25.6348 22.9865C25.252 22.7404 24.7598 22.8634 24.5137 23.2873L20.4941 30.2599C20.2617 30.6701 20.3848 31.1486 20.7812 31.3947C21.1777 31.6271 21.6426 31.5041 21.875 31.0939Z" fill="#55bef0"/>
  <path d="M18.7031 27.1974L20.4805 24.1076C20.7266 23.6974 20.5898 23.2189 20.1797 22.9728C19.7695 22.7404 19.3047 22.8634 19.0586 23.2873L17.2676 26.4044C17.0352 26.7873 17.1445 27.2658 17.5684 27.5119C17.9785 27.7443 18.4707 27.5939 18.7031 27.1974Z" fill="#55bef0"/>
  <path d="M11.0059 31.1076L15.0391 24.1076C15.2715 23.6974 15.1621 23.2326 14.7656 23.0001C14.3691 22.7541 13.8633 22.8771 13.6309 23.3009L9.625 30.2736C9.39258 30.6837 9.50195 31.1623 9.91211 31.4084C10.3086 31.6408 10.7734 31.5041 11.0059 31.1076Z" fill="#55bef0"/>
  <path d="M7.82031 27.2111L9.59766 24.1212C9.85742 23.7111 9.7207 23.2326 9.31055 22.9865C8.90039 22.7541 8.43555 22.8771 8.17578 23.3009L6.38477 26.4181C6.15234 26.8009 6.27539 27.2794 6.69922 27.5255C7.0957 27.758 7.58789 27.6076 7.82031 27.2111Z" fill="#55bef0"/>
  <path d="M7.46484 20.8126L24.4316 20.8126C28.916 20.8126 32.252 17.4084 32.252 13.1974C32.252 8.83609 28.6973 5.65054 24.0625 5.65054C22.3535 2.27359 19.1816 0.0997593 15.2305 0.0997593C10.0898 0.0997593 5.85156 4.13296 5.40039 9.20523C2.92578 9.92984 1.03906 12.0763 1.03906 14.9611C1.03906 18.2013 3.39062 20.8126 7.46484 20.8126Z" fill="white"/>
 </g>
</svg>
