<?xml version="1.0" encoding="UTF-8"?>
<!--Generator: Apple Native CoreSVG 326-->
<!DOCTYPE svg
PUBLIC "-//W3C//DTD SVG 1.1//EN"
       "http://www.w3.org/Graphics/SVG/1.1/DTD/svg11.dtd">
<svg version="1.1" xmlns="http://www.w3.org/2000/svg" xmlns:xlink="http://www.w3.org/1999/xlink" viewBox="0 0 41.9727 38.4316">
 <g>
  <rect height="38.4316" opacity="0" width="41.9727" x="0" y="0"/>
  <path d="M24.4453 33.6602C24.8555 33.8926 24.9922 34.3711 24.7461 34.7949L22.9551 37.8711C22.7363 38.2812 22.2305 38.418 21.834 38.1855C21.4102 37.9531 21.2871 37.4746 21.5195 37.0781L23.3105 33.9746C23.5703 33.5508 24.0352 33.4141 24.4453 33.6602Z" fill="black" fill-opacity="0.85"/>
  <path d="M20.166 29.8047C20.5762 30.0508 20.7129 30.5293 20.4668 30.9395L18.6895 34.0293C18.457 34.4258 17.9648 34.5762 17.5547 34.3438C17.1309 34.0977 17.0215 33.6191 17.2539 33.2363L19.0449 30.1191C19.291 29.6953 19.7559 29.5723 20.166 29.8047Z" fill="black" fill-opacity="0.85"/>
  <path d="M13.5762 33.6738C13.9727 33.9062 14.1094 34.3848 13.8633 34.8086L12.0859 37.8848C11.8535 38.2949 11.3613 38.4316 10.9512 38.1992C10.541 37.9668 10.418 37.4883 10.6504 37.0918L12.4414 33.9883C12.6875 33.5645 13.1523 33.4277 13.5762 33.6738Z" fill="black" fill-opacity="0.85"/>
  <path d="M9.29688 29.8184C9.70703 30.0645 9.83008 30.543 9.58398 30.9531L7.80664 34.043C7.57422 34.4395 7.08203 34.5898 6.67188 34.3574C6.26172 34.1113 6.13867 33.6328 6.37109 33.25L8.16211 30.1328C8.4082 29.709 8.87305 29.5859 9.29688 29.8184Z" fill="black" fill-opacity="0.85"/>
  <path d="M35.752 20.5215L37.8574 22.627C38.2949 23.0781 38.2949 23.8027 37.8574 24.2266C37.4199 24.6641 36.6953 24.6777 36.2578 24.2402L34.1387 22.1211C33.7012 21.6836 33.7012 20.959 34.1387 20.5215C34.5762 20.0977 35.3008 20.0977 35.752 20.5215ZM34.5762 14.1914C34.5762 17.2011 32.5792 19.7809 29.8529 20.6538C29.8453 19.9454 29.7261 19.2719 29.5104 18.6458C31.3001 17.9638 32.5664 16.2206 32.5664 14.1914C32.5664 11.5527 30.4473 9.43359 27.8223 9.43359C25.249 9.43359 23.1487 11.47 23.0722 14.0374C22.9362 14.0208 22.7958 14.0156 22.6543 14.0137C22.2903 13.3293 21.8613 12.7058 21.3729 12.1545C22.245 9.41683 24.8231 7.41016 27.8223 7.41016C31.5273 7.41016 34.5762 10.4727 34.5762 14.1914ZM41.9727 14.1914C41.9727 14.8203 41.4668 15.3262 40.8516 15.3262L37.8848 15.3262C37.2832 15.3262 36.75 14.8203 36.75 14.1914C36.75 13.5762 37.2832 13.0566 37.8848 13.0566L40.8516 13.0566C41.4668 13.0566 41.9727 13.5762 41.9727 14.1914ZM37.8574 4.15625C38.2949 4.59375 38.2949 5.33203 37.8574 5.7832L35.7656 7.875C35.3008 8.32617 34.5762 8.3125 34.1387 7.875C33.7012 7.4375 33.7012 6.71289 34.1387 6.27539L36.2578 4.15625C36.6953 3.71875 37.4199 3.71875 37.8574 4.15625ZM19.3867 4.15625L21.5059 6.27539C21.9297 6.69922 21.9297 7.45117 21.4922 7.875C21.0547 8.3125 20.3164 8.3125 19.8789 7.875L17.7871 5.76953C17.3496 5.33203 17.3633 4.59375 17.8008 4.15625C18.2383 3.71875 18.9629 3.73242 19.3867 4.15625ZM28.9707 1.13477L28.9707 4.10156C28.9707 4.7168 28.4375 5.22266 27.8223 5.22266C27.207 5.22266 26.6875 4.7168 26.6875 4.10156L26.6875 1.13477C26.6875 0.519531 27.207 0 27.8223 0C28.4375 0 28.9707 0.519531 28.9707 1.13477Z" fill="black" fill-opacity="0.85"/>
  <path d="M8.03906 27.6309L22.832 27.6309C26.7969 27.6309 29.8594 24.6367 29.8594 20.7812C29.8594 16.9531 26.7559 14.0684 22.6543 14.0137C21.0547 11.0059 18.1973 9.17383 14.8203 9.17383C10.2949 9.17383 6.50781 12.6738 6.05664 17.1582C3.77344 17.8691 2.24219 19.8516 2.24219 22.3398C2.24219 25.416 4.55273 27.6309 8.03906 27.6309ZM7.98438 25.4297C5.66016 25.4297 4.44336 24.1035 4.44336 22.3945C4.44336 20.9453 5.27734 19.6738 7.28711 19.127C7.95703 18.9629 8.18945 18.6621 8.24414 17.9648C8.57227 14.1367 11.416 11.375 14.8203 11.375C17.4727 11.375 19.5234 12.8379 20.8086 15.3809C21.0957 15.9688 21.4375 16.1738 22.1348 16.1738C25.6621 16.1738 27.6582 18.3066 27.6582 20.8496C27.6582 23.3926 25.5801 25.4297 22.873 25.4297Z" fill="black" fill-opacity="0.85"/>
 </g>
</svg>
