<?xml version="1.0" encoding="UTF-8"?>
<!--Generator: Apple Native CoreSVG 326-->
<!DOCTYPE svg
PUBLIC "-//W3C//DTD SVG 1.1//EN"
       "http://www.w3.org/Graphics/SVG/1.1/DTD/svg11.dtd">
<svg version="1.1" xmlns="http://www.w3.org/2000/svg" xmlns:xlink="http://www.w3.org/1999/xlink" viewBox="0 0 37.5213 34.4739">
 <g>
  <rect height="34.4739" opacity="0" width="37.5213" x="0" y="0"/>
  <path d="M23.7919 29.8083C24.2021 30.0543 24.3388 30.5329 24.0927 30.943L22.3017 34.0329C22.0829 34.443 21.5771 34.5797 21.1806 34.3473C20.7568 34.1012 20.6337 33.6227 20.8661 33.2399L22.6571 30.1227C22.9169 29.7125 23.3818 29.5758 23.7919 29.8083Z" fill="black" fill-opacity="0.85"/>
  <path d="M19.5126 25.9665C19.9228 26.1989 20.0595 26.6774 19.8134 27.1012L18.036 30.1774C17.8036 30.5875 17.3114 30.7243 16.9013 30.5055C16.4775 30.2594 16.3681 29.7809 16.6005 29.3844L18.3915 26.2809C18.6376 25.8571 19.1025 25.7204 19.5126 25.9665Z" fill="black" fill-opacity="0.85"/>
  <path d="M12.9228 29.8219C13.3193 30.068 13.456 30.5465 13.2099 30.9567L11.4325 34.0465C11.2001 34.4567 10.7079 34.5934 10.2978 34.361C9.88761 34.1149 9.76456 33.6364 9.99699 33.2536L11.788 30.1364C12.0341 29.7262 12.4989 29.5895 12.9228 29.8219Z" fill="black" fill-opacity="0.85"/>
  <path d="M8.64347 25.9801C9.05363 26.2125 9.17667 26.6911 8.93058 27.1149L7.15324 30.1911C6.92081 30.6012 6.42863 30.7379 6.01847 30.5192C5.60831 30.2731 5.48527 29.7946 5.71769 29.3981L7.50871 26.2946C7.7548 25.8708 8.21964 25.734 8.64347 25.9801Z" fill="black" fill-opacity="0.85"/>
  <path d="M28.372 1.54849C28.372 2.31411 27.8935 3.1481 27.8935 4.70669C27.8935 7.90591 29.7392 9.8063 33.2255 9.8063C34.6747 9.8063 35.3446 9.45083 36.165 9.45083C37.2314 9.45083 37.8193 10.4489 37.3681 11.5426C36.3624 14.1709 33.5679 16.7334 29.2 16.8244C29.1928 16.1063 29.0724 15.4246 28.8531 14.7921C28.883 14.7963 28.9146 14.7965 28.9462 14.7965C31.995 14.7965 34.415 13.2379 35.3583 11.4606L35.2626 11.3649C34.6337 11.57 33.7314 11.7477 32.7607 11.7477C28.7821 11.7477 25.9247 9.06802 25.9247 5.11685C25.9247 4.05044 26.1298 3.13442 26.3622 2.47817L26.2118 2.3688C24.4208 3.35317 22.8349 5.41763 22.8349 8.16567C22.8349 8.90942 22.927 9.61082 23.1024 10.2581C22.7471 10.1981 22.3782 10.1681 22.0009 10.1618C21.6698 9.54201 21.2848 8.97204 20.8497 8.46109C20.8398 8.383 20.8388 8.30184 20.8388 8.22036C20.8388 4.32388 23.2997 1.23403 26.1982 0.277003C27.4013-0.133154 28.372 0.413721 28.372 1.54849Z" fill="black" fill-opacity="0.85"/>
  <path d="M7.38566 23.779L22.1786 23.779C26.1298 23.779 29.206 20.7985 29.206 16.943C29.206 13.1012 26.1025 10.2301 22.0009 10.1618C20.4013 7.16763 17.5439 5.3356 14.1669 5.3356C9.64152 5.3356 5.85441 8.8356 5.40324 13.32C3.13371 14.0309 1.58878 15.9997 1.58878 18.4879C1.58878 21.5778 3.913 23.779 7.38566 23.779ZM7.33097 21.5915C5.00675 21.5915 3.77628 20.2516 3.77628 18.5426C3.77628 17.1071 4.62394 15.8219 6.63371 15.2887C7.28996 15.111 7.53605 14.8102 7.59074 14.1266C7.90519 10.2848 10.7489 7.5231 14.1669 7.5231C16.8193 7.5231 18.8837 8.98599 20.1552 11.5426C20.456 12.1305 20.7841 12.3219 21.4814 12.3219C25.0224 12.3219 27.0048 14.4547 27.0048 16.9977C27.0048 19.5543 24.9267 21.5915 22.2196 21.5915Z" fill="black" fill-opacity="0.85"/>
 </g>
</svg>
