<?xml version="1.0" encoding="UTF-8"?>
<!--Generator: Apple Native CoreSVG 326-->
<!DOCTYPE svg
PUBLIC "-//W3C//DTD SVG 1.1//EN"
       "http://www.w3.org/Graphics/SVG/1.1/DTD/svg11.dtd">
<svg version="1.1" xmlns="http://www.w3.org/2000/svg" xmlns:xlink="http://www.w3.org/1999/xlink" viewBox="0 0 28.2461 27.9043">
 <g>
  <rect height="27.9043" opacity="0" width="28.2461" x="0" y="0"/>
  <path d="M13.9453 27.9043C21.6426 27.9043 27.8906 21.6562 27.8906 13.959C27.8906 6.27539 21.6426 0.0136719 13.9453 0.0136719C6.26172 0.0136719 0 6.27539 0 13.959C0 21.6562 6.26172 27.9043 13.9453 27.9043Z" fill="black" fill-opacity="0.85"/>
  <path d="M7.30078 17.9375C5.63281 17.9375 4.51172 16.8574 4.51172 15.3809C4.51172 14.1777 5.26367 13.248 6.31641 12.8789C6.5625 10.7598 8.36719 9.0918 10.5 9.0918C12.127 9.0918 13.4668 9.98047 14.2188 11.3887C16.1875 11.4297 17.6504 12.8242 17.6504 14.6289C17.6504 16.4883 16.2012 17.9375 14.3008 17.9375ZM12.9336 8.53125L11.9355 7.51953C11.7031 7.25977 11.7031 6.83594 11.9355 6.61719C12.1953 6.37109 12.5918 6.37109 12.8516 6.61719L13.8633 7.61523C14.1094 7.84766 14.082 8.27148 13.8633 8.51758C13.6172 8.75 13.1934 8.77734 12.9336 8.53125ZM16.7344 7.30078C16.3926 7.30078 16.0918 7.01367 16.0918 6.67188L16.0918 5.26367C16.0918 4.9082 16.3926 4.62109 16.7344 4.62109C17.1035 4.62109 17.3906 4.9082 17.3906 5.26367L17.3906 6.67188C17.3906 7.01367 17.1035 7.30078 16.7344 7.30078ZM19.6328 8.51758C19.4141 8.27148 19.3867 7.84766 19.6328 7.61523L20.6445 6.61719C20.9043 6.35742 21.3008 6.37109 21.5469 6.61719C21.7793 6.83594 21.793 7.25977 21.5469 7.51953L20.5625 8.53125C20.3164 8.77734 19.8789 8.75 19.6328 8.51758ZM21.4785 12.0449C21.1504 12.0449 20.8496 11.7578 20.8496 11.4023C20.8496 11.0332 21.1504 10.7598 21.4785 10.7598L22.873 10.7598C23.2422 10.7598 23.5293 11.0332 23.5293 11.4023C23.5293 11.7578 23.2422 12.0449 22.873 12.0449ZM20.6445 16.2422L19.6328 15.2441C19.3867 14.9844 19.4141 14.5605 19.6328 14.3145C19.8926 14.082 20.3164 14.082 20.5625 14.3145L21.5469 15.2988C21.793 15.5312 21.7793 15.9551 21.5469 16.2285C21.3008 16.4473 20.9043 16.4746 20.6445 16.2422ZM20.043 11.4023C20.043 12.5098 19.4961 13.5078 18.5938 14.1504C18.3887 12.1953 16.8301 10.7188 14.8066 10.4727C14.5742 10.1172 14.3418 9.81641 14.041 9.54297C14.6152 8.68164 15.627 8.12109 16.7344 8.12109C18.5801 8.12109 20.043 9.57031 20.043 11.4023ZM7.86133 20.9316C7.72461 21.1641 7.41016 21.2461 7.16406 21.1094C6.91797 20.9863 6.83594 20.6582 6.97266 20.4121L7.76562 19.0449C7.91602 18.7988 8.2168 18.7031 8.46289 18.8535C8.73633 18.9902 8.81836 19.3047 8.6543 19.5508ZM9.66602 22.4219C9.5293 22.668 9.20117 22.7637 8.95508 22.627C8.70898 22.4766 8.59961 22.1621 8.75 21.916L9.50195 20.6172C9.66602 20.3711 9.95312 20.2891 10.2129 20.4258C10.4863 20.5625 10.541 20.8906 10.4043 21.123ZM12.4141 20.918C12.2773 21.1641 11.9766 21.2324 11.7031 21.1094C11.457 20.9727 11.4023 20.6445 11.5254 20.3984L12.3047 19.0176C12.4551 18.7852 12.7695 18.7168 13.0156 18.8535C13.2617 19.0039 13.3574 19.3047 13.2207 19.5645ZM14.2051 22.4355C14.0684 22.668 13.7539 22.7637 13.5078 22.627C13.248 22.4766 13.1523 22.1621 13.3027 21.916L14.0547 20.6172C14.2188 20.3848 14.5195 20.2891 14.752 20.4258C15.0117 20.5488 15.0938 20.8906 14.9707 21.123Z" fill="white"/>
 </g>
</svg>
