<?xml version="1.0" encoding="UTF-8"?>
<!--Generator: Apple Native CoreSVG 326-->
<!DOCTYPE svg
PUBLIC "-//W3C//DTD SVG 1.1//EN"
       "http://www.w3.org/Graphics/SVG/1.1/DTD/svg11.dtd">
<svg version="1.1" xmlns="http://www.w3.org/2000/svg" xmlns:xlink="http://www.w3.org/1999/xlink" viewBox="0 0 32.252 31.3223">
 <g>
  <rect height="31.3223" opacity="0" width="32.252" x="0" y="0"/>
  <path d="M25.6758 28.5195L7.88867 28.5195C7.41016 28.5195 7.02734 28.8887 7.02734 29.3809C7.02734 29.873 7.41016 30.2559 7.88867 30.2559L25.6758 30.2559C26.1543 30.2559 26.5371 29.873 26.5371 29.3809C26.5371 28.8887 26.1543 28.5195 25.6758 28.5195Z" fill="black" fill-opacity="0.85"/>
  <path d="M25.6758 23.8848L7.88867 23.8848C7.41016 23.8848 7.02734 24.2539 7.02734 24.7461C7.02734 25.2383 7.41016 25.6074 7.88867 25.6074L25.6758 25.6074C26.1543 25.6074 26.5371 25.2383 26.5371 24.7461C26.5371 24.2539 26.1543 23.8848 25.6758 23.8848Z" fill="black" fill-opacity="0.85"/>
  <path d="M7.46484 20.7129L24.4316 20.7129C28.916 20.7129 32.252 17.3086 32.252 13.0977C32.252 8.73633 28.6973 5.55078 24.0625 5.55078C22.3535 2.17383 19.1816 0 15.2305 0C10.0898 0 5.85156 4.0332 5.40039 9.10547C2.92578 9.83008 1.03906 11.9766 1.03906 14.8613C1.03906 18.1016 3.39062 20.7129 7.46484 20.7129ZM7.4375 18.5254C4.63477 18.5254 3.22656 16.9531 3.22656 14.9297C3.22656 13.2891 4.18359 11.8125 6.50781 11.1973C7.25977 10.9922 7.5332 10.6367 7.60156 9.87109C7.91602 5.40039 11.2656 2.1875 15.2305 2.1875C18.3066 2.1875 20.7266 3.88281 22.2031 6.9043C22.5176 7.57422 22.9277 7.80664 23.7344 7.80664C27.7812 7.80664 30.0645 10.2402 30.0645 13.1523C30.0645 16.1328 27.6855 18.5254 24.5684 18.5254Z" fill="black" fill-opacity="0.85"/>
 </g>
</svg>
