<?xml version="1.0" encoding="UTF-8"?>
<!--Generator: Apple Native CoreSVG 326-->
<!DOCTYPE svg
PUBLIC "-//W3C//DTD SVG 1.1//EN"
       "http://www.w3.org/Graphics/SVG/1.1/DTD/svg11.dtd">
<svg version="1.1" xmlns="http://www.w3.org/2000/svg" xmlns:xlink="http://www.w3.org/1999/xlink" viewBox="0 0 28.2461 27.9043">
 <g>
  <rect height="27.9043" opacity="0" width="28.2461" x="0" y="0"/>
  <path d="M13.9453 27.8906C21.6426 27.8906 27.8906 21.6426 27.8906 13.9453C27.8906 6.24805 21.6426 0 13.9453 0C6.24805 0 0 6.24805 0 13.9453C0 21.6426 6.24805 27.8906 13.9453 27.8906ZM13.9453 25.5664C7.51953 25.5664 2.32422 20.3711 2.32422 13.9453C2.32422 7.51953 7.51953 2.32422 13.9453 2.32422C20.3711 2.32422 25.5664 7.51953 25.5664 13.9453C25.5664 20.3711 20.3711 25.5664 13.9453 25.5664Z" fill="black" fill-opacity="0.85"/>
  <path d="M9.54297 15.2988L17.6914 15.2988C19.8105 15.2988 21.4375 13.6582 21.4375 11.6348C21.4375 9.54297 19.7285 8.02539 17.5137 8.02539C16.6797 6.41211 15.1621 5.3457 13.2754 5.3457C10.8145 5.3457 8.77734 7.30078 8.54492 9.73438C7.36914 10.0762 6.4668 11.1016 6.4668 12.4961C6.4668 14.041 7.58789 15.2988 9.54297 15.2988ZM11.6484 19.168C11.5391 19.373 11.6348 19.5371 11.8672 19.5371L13.2891 19.5371L12.1816 22.2441C12.127 22.3672 12.1543 22.4766 12.2363 22.5176C12.3184 22.5449 12.4141 22.5176 12.5098 22.4219L16.1875 18.6621C16.3652 18.4707 16.2969 18.2246 16.0371 18.2246L14.3691 18.2246L15.1758 16.6797C15.2578 16.502 15.2031 16.3379 14.998 16.3379L13.1797 16.3379C12.9473 16.3379 12.8379 16.4199 12.7559 16.5977Z" fill="black" fill-opacity="0.85"/>
 </g>
</svg>
