<?xml version="1.0" encoding="UTF-8"?>
<!--Generator: Apple Native CoreSVG 326-->
<!DOCTYPE svg
PUBLIC "-//W3C//DTD SVG 1.1//EN"
       "http://www.w3.org/Graphics/SVG/1.1/DTD/svg11.dtd">
<svg version="1.1" xmlns="http://www.w3.org/2000/svg" xmlns:xlink="http://www.w3.org/1999/xlink" viewBox="0 0 28.2461 27.9043">
 <g>
  <rect height="27.9043" opacity="0" width="28.2461" x="0" y="0"/>
  <path d="M13.9453 27.8906C21.6426 27.8906 27.8906 21.6426 27.8906 13.9453C27.8906 6.24805 21.6426 0 13.9453 0C6.24805 0 0 6.24805 0 13.9453C0 21.6426 6.24805 27.8906 13.9453 27.8906ZM13.9453 25.5664C7.51953 25.5664 2.32422 20.3711 2.32422 13.9453C2.32422 7.51953 7.51953 2.32422 13.9453 2.32422C20.3711 2.32422 25.5664 7.51953 25.5664 13.9453C25.5664 20.3711 20.3711 25.5664 13.9453 25.5664Z" fill="black" fill-opacity="0.85"/>
  <path d="M7.50586 17.8008L14.2871 17.8008C16.1328 17.8008 17.541 16.3926 17.541 14.5879C17.541 12.8242 16.1191 11.4707 14.2188 11.4297C13.4805 10.0625 12.1816 9.21484 10.6094 9.21484C8.53125 9.21484 6.78125 10.8281 6.54883 12.8926C5.52344 13.2344 4.79883 14.1504 4.79883 15.3125C4.79883 16.7344 5.87891 17.8008 7.50586 17.8008ZM12.9746 8.6543C13.2207 8.90039 13.6309 8.87305 13.8633 8.6543C14.082 8.42188 14.1094 8.01172 13.8633 7.7793L12.8789 6.80859C12.6328 6.57617 12.25 6.57617 12.0039 6.80859C11.7715 7.02734 11.7715 7.42383 12.0039 7.66992ZM16.6523 7.47852C17.0078 7.47852 17.2812 7.20508 17.2812 6.86328L17.2812 5.48242C17.2812 5.1543 17.0078 4.86719 16.6523 4.86719C16.3242 4.86719 16.0371 5.1543 16.0371 5.48242L16.0371 6.86328C16.0371 7.20508 16.3242 7.47852 16.6523 7.47852ZM19.4688 8.64062C19.7012 8.87305 20.125 8.90039 20.3711 8.6543L21.3281 7.66992C21.5605 7.4375 21.5469 7.02734 21.3281 6.80859C21.082 6.57617 20.6992 6.5625 20.4531 6.80859L19.4688 7.7793C19.2227 8.01172 19.25 8.4082 19.4688 8.64062ZM21.2598 12.0723L22.6133 12.0723C22.9688 12.0723 23.2422 11.7988 23.2422 11.457C23.2422 11.1016 22.9688 10.8418 22.6133 10.8418L21.2598 10.8418C20.9316 10.8418 20.6445 11.1016 20.6445 11.457C20.6445 11.7988 20.9316 12.0723 21.2598 12.0723ZM20.4531 16.1328C20.6992 16.3789 21.082 16.3516 21.3281 16.1191C21.5469 15.873 21.5605 15.4629 21.3281 15.2441L20.3711 14.2871C20.125 14.0547 19.7148 14.0547 19.4688 14.2871C19.25 14.5195 19.2227 14.9297 19.4688 15.1621ZM19.8652 11.457C19.8652 9.66602 18.4434 8.27148 16.6523 8.27148C15.5723 8.27148 14.6016 8.81836 14.041 9.65234C14.3281 9.91211 14.5605 10.1992 14.7793 10.541C16.748 10.8008 18.252 12.2227 18.457 14.1094C19.332 13.4941 19.8652 12.5371 19.8652 11.457ZM8.03906 20.6992L8.81836 19.3594C8.96875 19.1133 8.88672 18.8262 8.62695 18.6758C8.39453 18.5391 8.09375 18.6348 7.95703 18.8672L7.17773 20.207C7.05469 20.4258 7.12305 20.7539 7.36914 20.8633C7.60156 21.0137 7.90234 20.9316 8.03906 20.6992ZM9.78906 22.1484L10.5137 20.877C10.6367 20.6582 10.582 20.3438 10.3223 20.207C10.0762 20.0703 9.78906 20.1523 9.63867 20.3984L8.90039 21.6562C8.76367 21.8887 8.85938 22.2031 9.10547 22.3262C9.33789 22.4766 9.65234 22.3809 9.78906 22.1484ZM12.4551 20.6992L13.2344 19.3594C13.3711 19.127 13.2754 18.8262 13.043 18.6895C12.7969 18.5391 12.4961 18.6211 12.3594 18.8535L11.5938 20.1934C11.4707 20.4258 11.5254 20.7402 11.7715 20.877C12.0312 21 12.3184 20.918 12.4551 20.6992ZM14.1914 22.1484L14.9297 20.8906C15.0527 20.6582 14.9707 20.3301 14.7246 20.207C14.4922 20.084 14.2051 20.1523 14.0547 20.3984L13.3164 21.6562C13.166 21.9023 13.2617 22.2031 13.5215 22.3398C13.7539 22.4766 14.0547 22.3809 14.1914 22.1484Z" fill="black" fill-opacity="0.85"/>
 </g>
</svg>
