<?xml version="1.0" encoding="UTF-8"?>
<!--Generator: Apple Native CoreSVG 326-->
<!DOCTYPE svg
PUBLIC "-//W3C//DTD SVG 1.1//EN"
       "http://www.w3.org/Graphics/SVG/1.1/DTD/svg11.dtd">
<svg version="1.1" xmlns="http://www.w3.org/2000/svg" xmlns:xlink="http://www.w3.org/1999/xlink" viewBox="0 0 28.2461 27.9043">
 <g>
  <rect height="27.9043" opacity="0" width="28.2461" x="0" y="0"/>
  <path d="M13.9453 27.8906C21.6426 27.8906 27.8906 21.6426 27.8906 13.9453C27.8906 6.24805 21.6426 0 13.9453 0C6.24805 0 0 6.24805 0 13.9453C0 21.6426 6.24805 27.8906 13.9453 27.8906ZM13.9453 25.5664C7.51953 25.5664 2.32422 20.3711 2.32422 13.9453C2.32422 7.51953 7.51953 2.32422 13.9453 2.32422C20.3711 2.32422 25.5664 7.51953 25.5664 13.9453C25.5664 20.3711 20.3711 25.5664 13.9453 25.5664Z" fill="black" fill-opacity="0.85"/>
  <path d="M7.31445 19.6602L14.4785 19.6602C16.4336 19.6602 17.9102 18.1973 17.9102 16.2832C17.9102 14.4238 16.4199 13.002 14.4102 12.9609C13.6309 11.5117 12.2637 10.6094 10.5957 10.6094C8.39453 10.6094 6.54883 12.3184 6.31641 14.4922C5.22266 14.8477 4.44336 15.8184 4.44336 17.0352C4.44336 18.5527 5.60547 19.6602 7.31445 19.6602ZM13.0977 10.0215C13.3438 10.2812 13.7812 10.2539 14.041 10.0078C14.2598 9.76172 14.2734 9.33789 14.041 9.0918L12.9883 8.06641C12.7285 7.82031 12.3184 7.82031 12.0723 8.06641C11.8398 8.29883 11.8398 8.72266 12.0723 8.98242ZM16.9941 8.77734C17.3633 8.77734 17.6504 8.47656 17.6504 8.12109L17.6504 6.67188C17.6504 6.30273 17.3633 6.01562 16.9941 6.01562C16.6387 6.01562 16.3242 6.30273 16.3242 6.67188L16.3242 8.12109C16.3242 8.47656 16.6387 8.77734 16.9941 8.77734ZM19.9609 10.0078C20.207 10.2539 20.6582 10.2812 20.9043 10.0215L21.9297 8.98242C22.1621 8.72266 22.1621 8.29883 21.9297 8.06641C21.6699 7.82031 21.2461 7.80664 20.9863 8.06641L19.9609 9.0918C19.7148 9.33789 19.7285 9.76172 19.9609 10.0078ZM21.8613 13.6309L23.2832 13.6309C23.6523 13.6309 23.9395 13.3301 23.9395 12.9746C23.9395 12.6055 23.6523 12.332 23.2832 12.332L21.8613 12.332C21.4922 12.332 21.1914 12.6055 21.1914 12.9746C21.1914 13.3301 21.4922 13.6309 21.8613 13.6309ZM20.9863 17.9102C21.2461 18.1836 21.6699 18.1426 21.9297 17.8965C22.1621 17.6367 22.1758 17.2129 21.9297 16.9805L20.9043 15.9688C20.6445 15.709 20.2207 15.709 19.9609 15.9688C19.7285 16.2148 19.7148 16.625 19.9609 16.8848ZM20.3711 12.9746C20.3711 11.0879 18.8672 9.61133 16.9941 9.61133C15.832 9.61133 14.8066 10.1855 14.2188 11.0742C14.5195 11.3477 14.7793 11.6484 14.998 12.0039C17.0762 12.2773 18.6758 13.7812 18.8809 15.7773C19.8105 15.1211 20.3711 14.1094 20.3711 12.9746Z" fill="black" fill-opacity="0.85"/>
 </g>
</svg>
