<?xml version="1.0" encoding="UTF-8"?>
<!--Generator: Apple Native CoreSVG 326-->
<!DOCTYPE svg
PUBLIC "-//W3C//DTD SVG 1.1//EN"
       "http://www.w3.org/Graphics/SVG/1.1/DTD/svg11.dtd">
<svg version="1.1" xmlns="http://www.w3.org/2000/svg" xmlns:xlink="http://www.w3.org/1999/xlink" viewBox="0 0 28.2461 27.9043">
 <g>
  <rect height="27.9043" opacity="0" width="28.2461" x="0" y="0"/>
  <path d="M13.9453 27.9043C21.6426 27.9043 27.8906 21.6562 27.8906 13.959C27.8906 6.27539 21.6426 0.0136719 13.9453 0.0136719C6.26172 0.0136719 0 6.27539 0 13.959C0 21.6562 6.26172 27.9043 13.9453 27.9043Z" fill="black" fill-opacity="0.85"/>
  <path d="M7.875 17.3359C6.20703 17.3359 5.08594 16.2559 5.08594 14.7793C5.08594 13.5762 5.82422 12.6465 6.89062 12.2773C7.12305 10.1719 8.92773 8.49023 11.0742 8.49023C12.6875 8.49023 14.041 9.37891 14.8066 10.7871C16.748 10.8281 18.2109 12.2227 18.2109 14.041C18.2109 15.9004 16.7617 17.3359 14.8613 17.3359ZM22.8457 10.4453C22.8457 11.6211 21.4512 13.4258 19.1816 13.6445C18.9902 11.6484 17.459 10.1035 15.3672 9.84375C15.2305 9.66602 15.0938 9.47461 14.9434 9.29688C15.1758 7.35547 16.8438 5.79688 18.1699 5.72852C18.4297 5.72852 18.5938 5.85156 18.5938 6.07031C18.5938 6.41211 18.1016 7.05469 18.1016 7.92969C18.1016 9.44727 19.1406 10.418 20.7949 10.418C21.6973 10.418 22.2168 10.0078 22.5312 10.0078C22.7363 10.0078 22.8457 10.1719 22.8457 10.4453ZM9.66602 20.4668L10.5957 18.3066C10.6641 18.1562 10.7598 18.1016 10.9648 18.1016L12.4961 18.1016C12.6738 18.1016 12.7285 18.2246 12.6465 18.4023L11.9766 19.6738L13.3984 19.6738C13.6172 19.6738 13.6855 19.8789 13.5352 20.043L10.418 23.2148C10.2539 23.3516 10.0488 23.2422 10.1172 23.0645L11.0605 20.7812L9.84375 20.7812C9.66602 20.7812 9.58398 20.6445 9.66602 20.4668Z" fill="white"/>
 </g>
</svg>
