<?xml version="1.0" encoding="UTF-8"?>
<!--Generator: Apple Native CoreSVG 326-->
<!DOCTYPE svg
PUBLIC "-//W3C//DTD SVG 1.1//EN"
       "http://www.w3.org/Graphics/SVG/1.1/DTD/svg11.dtd">
<svg version="1.1" xmlns="http://www.w3.org/2000/svg" xmlns:xlink="http://www.w3.org/1999/xlink" viewBox="0 0 40.0586 39.8177">
 <g>
  <rect height="39.8177" opacity="0" width="40.0586" x="0" y="0"/>
  <path d="M15.9824 30.7712L14.7327 33.1501L17.4453 33.1501C17.8281 33.1501 17.9238 33.5192 17.6504 33.8063L11.8672 39.6579C11.7305 39.8083 11.5801 39.8493 11.457 39.7946C11.334 39.7399 11.293 39.5895 11.375 39.4118L13.1256 35.1735L10.8418 35.1735C10.4863 35.1735 10.3496 34.9684 10.4863 34.654L12.2363 30.6755C12.3594 30.402 12.4824 30.2653 12.8516 30.2653L15.709 30.2653C16.0098 30.2653 16.1328 30.4841 15.9824 30.7712Z" fill="black" fill-opacity="0.85"/>
  <path d="M33.8379 21.1872L35.9297 23.279C36.3672 23.7302 36.3672 24.4548 35.9297 24.8786C35.4922 25.3161 34.7812 25.3298 34.3438 24.8786L32.2246 22.7731C31.7871 22.3356 31.8008 21.6247 32.2246 21.1872C32.6484 20.7497 33.3867 20.736 33.8379 21.1872ZM32.6621 14.8708C32.6621 17.9214 30.6909 20.486 27.9387 21.3444C27.9309 20.6367 27.8118 19.9639 27.5962 19.3384C29.4075 18.6741 30.666 16.9493 30.666 14.8708C30.666 12.1911 28.5742 10.0993 25.9082 10.0993C23.2894 10.0993 21.2247 12.1176 21.1572 14.7304C21.0215 14.7138 20.8815 14.7086 20.7402 14.7067C20.3732 14.0197 19.94 13.3932 19.4466 12.8389C20.3013 10.0793 22.8571 8.08953 25.9082 8.08953C29.668 8.08953 32.6621 11.111 32.6621 14.8708ZM40.0586 14.8708C40.0586 15.4997 39.5527 16.0055 38.9375 16.0055L35.9707 16.0055C35.3691 16.0055 34.8359 15.4997 34.8359 14.8708C34.8359 14.2419 35.3691 13.736 35.9707 13.736L38.9375 13.736C39.5527 13.736 40.0586 14.2419 40.0586 14.8708ZM35.9297 4.8493C36.3672 5.2868 36.3672 6.01141 35.9297 6.46258L33.8379 8.55438C33.3867 9.00555 32.6484 8.99188 32.2246 8.55438C31.8008 8.11688 31.7871 7.40594 32.2246 6.96844L34.3438 4.8493C34.7812 4.4118 35.4922 4.4118 35.9297 4.8493ZM17.4727 4.8493L19.5918 6.96844C20.0156 7.40594 20.002 8.11688 19.5918 8.55438C19.168 8.99188 18.416 9.00555 17.9648 8.55438L15.8867 6.46258C15.4492 6.01141 15.4492 5.2868 15.8867 4.8493C16.3242 4.4118 17.0352 4.4118 17.4727 4.8493ZM27.043 1.82782L27.043 4.78094C27.043 5.39617 26.5234 5.91571 25.9082 5.91571C25.2793 5.91571 24.7598 5.39617 24.7598 4.78094L24.7598 1.82782C24.7598 1.19891 25.2793 0.69305 25.9082 0.69305C26.5234 0.69305 27.043 1.19891 27.043 1.82782Z" fill="black" fill-opacity="0.85"/>
  <path d="M6.125 28.3239L20.918 28.3239C24.8691 28.3239 27.9453 25.3298 27.9453 21.4743C27.9453 17.6462 24.8418 14.7614 20.7402 14.7067C19.1406 11.7126 16.2832 9.86688 12.9062 9.86688C8.38086 9.86688 4.59375 13.3669 4.14258 17.8513C1.87305 18.5759 0.328125 20.5446 0.328125 23.0329C0.328125 26.1091 2.65234 28.3239 6.125 28.3239ZM6.07031 26.1364C3.74609 26.1364 2.51562 24.7966 2.51562 23.0876C2.51562 21.6384 3.36328 20.3532 5.37305 19.82C6.0293 19.6423 6.27539 19.3415 6.33008 18.6579C6.64453 14.8298 9.48828 12.068 12.9062 12.068C15.5586 12.068 17.623 13.5173 18.8945 16.0739C19.1953 16.6618 19.5234 16.8669 20.2207 16.8669C23.7617 16.8669 25.7441 18.986 25.7441 21.5427C25.7441 24.0856 23.666 26.1364 20.959 26.1364Z" fill="black" fill-opacity="0.85"/>
 </g>
</svg>
