<?xml version="1.0" encoding="UTF-8"?>
<!--Generator: Apple Native CoreSVG 326-->
<!DOCTYPE svg
PUBLIC "-//W3C//DTD SVG 1.1//EN"
       "http://www.w3.org/Graphics/SVG/1.1/DTD/svg11.dtd">
<svg version="1.1" xmlns="http://www.w3.org/2000/svg" xmlns:xlink="http://www.w3.org/1999/xlink" viewBox="0 0 41.9727 28.916">
 <g>
  <rect height="28.916" opacity="0" width="41.9727" x="0" y="0"/>
  <path d="M35.752 20.5215L37.8574 22.627C38.2949 23.0781 38.2949 23.8027 37.8574 24.2266C37.4199 24.6641 36.6953 24.6914 36.2578 24.2402L34.1387 22.1348C33.7012 21.6973 33.7012 20.959 34.1387 20.5215C34.5762 20.0977 35.3008 20.0977 35.752 20.5215ZM34.5762 14.1914C34.5762 17.2011 32.5792 19.7809 29.8529 20.6538C29.8453 19.9459 29.7263 19.273 29.5109 18.6472C31.3004 17.9682 32.5664 16.2309 32.5664 14.1914C32.5664 11.5664 30.4473 9.43359 27.8223 9.43359C25.2493 9.43359 23.1491 11.4828 23.0722 14.0374C22.9362 14.0208 22.7959 14.0156 22.6543 14.0137C22.29 13.3318 21.8604 12.7094 21.3714 12.1584C22.2425 9.41875 24.8217 7.41016 27.8223 7.41016C31.5273 7.41016 34.5762 10.4727 34.5762 14.1914ZM41.9727 14.1914C41.9727 14.8203 41.4668 15.3398 40.8516 15.3398L37.8848 15.3398C37.2832 15.3398 36.75 14.8203 36.75 14.1914C36.75 13.5898 37.2832 13.0566 37.8848 13.0566L40.8516 13.0566C41.4668 13.0566 41.9727 13.5898 41.9727 14.1914ZM37.8574 4.15625C38.2949 4.60742 38.2949 5.3457 37.8574 5.7832L35.7656 7.88867C35.3008 8.33984 34.5762 8.3125 34.1387 7.88867C33.7012 7.4375 33.7012 6.71289 34.1387 6.28906L36.2578 4.15625C36.6953 3.71875 37.4199 3.73242 37.8574 4.15625ZM19.3867 4.15625L21.5059 6.28906C21.9297 6.69922 21.9297 7.45117 21.4922 7.88867C21.0547 8.3125 20.3164 8.32617 19.8789 7.88867L17.7871 5.76953C17.3496 5.3457 17.3633 4.60742 17.8008 4.15625C18.2383 3.73242 18.9629 3.73242 19.3867 4.15625ZM28.9707 1.13477L28.9707 4.11523C28.9707 4.7168 28.4375 5.23633 27.8223 5.23633C27.207 5.23633 26.6875 4.7168 26.6875 4.11523L26.6875 1.13477C26.6875 0.533203 27.207 0 27.8223 0C28.4375 0 28.9707 0.533203 28.9707 1.13477Z" fill="black" fill-opacity="0.85"/>
  <path d="M8.03906 27.6309L22.832 27.6309C26.7969 27.6309 29.8594 24.6504 29.8594 20.7812C29.8594 16.9531 26.7559 14.0684 22.6543 14.0137C21.0547 11.0195 18.1973 9.17383 14.8203 9.17383C10.2949 9.17383 6.50781 12.6738 6.05664 17.1719C3.77344 17.8828 2.24219 19.8516 2.24219 22.3398C2.24219 25.4297 4.55273 27.6309 8.03906 27.6309ZM7.98438 25.4297C5.66016 25.4297 4.44336 24.1035 4.44336 22.3945C4.44336 20.959 5.27734 19.6738 7.28711 19.1406C7.95703 18.9629 8.18945 18.6621 8.24414 17.9648C8.57227 14.1367 11.416 11.375 14.8203 11.375C17.4727 11.375 19.5234 12.8379 20.8086 15.3945C21.0957 15.9824 21.4375 16.1738 22.1348 16.1738C25.6621 16.1738 27.6582 18.3066 27.6582 20.8496C27.6582 23.3926 25.5801 25.4297 22.873 25.4297Z" fill="black" fill-opacity="0.85"/>
 </g>
</svg>
