<?xml version="1.0" encoding="UTF-8"?>
<!--Generator: Apple Native CoreSVG 326-->
<!DOCTYPE svg
PUBLIC "-//W3C//DTD SVG 1.1//EN"
       "http://www.w3.org/Graphics/SVG/1.1/DTD/svg11.dtd">
<svg version="1.1" xmlns="http://www.w3.org/2000/svg" xmlns:xlink="http://www.w3.org/1999/xlink" viewBox="0 0 28.2461 27.9043">
 <g>
  <rect height="27.9043" opacity="0" width="28.2461" x="0" y="0"/>
  <path d="M13.9453 27.8906C21.6426 27.8906 27.8906 21.6426 27.8906 13.9453C27.8906 6.24805 21.6426 0 13.9453 0C6.24805 0 0 6.24805 0 13.9453C0 21.6426 6.24805 27.8906 13.9453 27.8906ZM13.9453 25.5664C7.51953 25.5664 2.32422 20.3711 2.32422 13.9453C2.32422 7.51953 7.51953 2.32422 13.9453 2.32422C20.3711 2.32422 25.5664 7.51953 25.5664 13.9453C25.5664 20.3711 20.3711 25.5664 13.9453 25.5664Z" fill="black" fill-opacity="0.85"/>
  <path d="M9.54297 15.7773L17.6914 15.7773C19.8105 15.7773 21.4375 14.1367 21.4375 12.127C21.4375 10.0352 19.7285 8.50391 17.5137 8.50391C16.6797 6.89062 15.1621 5.83789 13.2754 5.83789C10.8145 5.83789 8.77734 7.7793 8.54492 10.2266C7.36914 10.5684 6.4668 11.5938 6.4668 12.9746C6.4668 14.5195 7.58789 15.7773 9.54297 15.7773ZM9.95312 19.6738L10.9238 17.9922C11.1016 17.7051 11.0059 17.3086 10.6914 17.1445C10.4043 16.9668 10.0215 17.0762 9.85742 17.377L8.88672 19.0449C8.70898 19.3457 8.80469 19.7422 9.11914 19.9062C9.40625 20.084 9.78906 19.9746 9.95312 19.6738ZM12.2363 21.6973L13.207 20.0293C13.3848 19.7285 13.2891 19.3457 12.9746 19.168C12.6875 19.0039 12.3047 19.1133 12.1406 19.4004L11.1562 21.082C10.9922 21.3828 11.0879 21.7656 11.4023 21.9434C11.6895 22.1074 12.0586 21.998 12.2363 21.6973ZM15.7363 19.6602L16.707 17.9785C16.8848 17.6914 16.7891 17.2949 16.4746 17.1309C16.1875 16.9531 15.8047 17.0625 15.6406 17.3633L14.6699 19.0312C14.4922 19.332 14.5879 19.7285 14.9023 19.8926C15.1895 20.0703 15.5723 19.9609 15.7363 19.6602ZM18.0195 21.6973L19.0039 20.0293C19.168 19.7285 19.0723 19.3457 18.7578 19.168C18.4707 19.0039 18.0879 19.1133 17.9238 19.4004L16.9531 21.082C16.7754 21.3828 16.8711 21.7656 17.1855 21.9434C17.4727 22.1074 17.8555 21.998 18.0195 21.6973Z" fill="black" fill-opacity="0.85"/>
 </g>
</svg>
