<?xml version="1.0" encoding="UTF-8"?>
<!--Generator: Apple Native CoreSVG 326-->
<!DOCTYPE svg
PUBLIC "-//W3C//DTD SVG 1.1//EN"
       "http://www.w3.org/Graphics/SVG/1.1/DTD/svg11.dtd">
<svg version="1.1" xmlns="http://www.w3.org/2000/svg" xmlns:xlink="http://www.w3.org/1999/xlink" viewBox="0 0 37.1658 24.2223">
 <g>
  <rect height="24.2223" opacity="0" width="37.1658" x="0" y="0"/>
  <path d="M28.0165 1.39923C28.0165 2.16485 27.538 3.01251 27.538 4.55743C27.538 7.75665 29.3837 9.67071 32.87 9.67071C34.3193 9.67071 34.9892 9.31524 35.8095 9.31524C36.8759 9.31524 37.4638 10.2996 37.0126 11.407C36.0069 14.0352 33.2127 16.5976 28.8452 16.6888C28.8389 15.9717 28.7193 15.2899 28.5009 14.6566C28.5297 14.6607 28.5602 14.6609 28.5907 14.6609C31.6396 14.6609 34.0595 13.1024 35.0028 11.325L34.9071 11.2293C34.2782 11.4344 33.3759 11.5984 32.4052 11.5984C28.4267 11.5984 25.5693 8.93243 25.5693 4.96759C25.5693 3.91485 25.7743 2.99884 26.0068 2.34259L25.8564 2.23321C24.0653 3.21759 22.4794 5.26837 22.4794 8.03009C22.4794 8.77206 22.5718 9.4726 22.7476 10.1195C22.3921 10.0602 22.023 10.0312 21.6454 10.0262C21.3145 9.40672 20.9297 8.83699 20.4948 8.32622C20.4844 8.24346 20.4833 8.15746 20.4833 8.0711C20.4833 4.17462 22.9443 1.08477 25.8427 0.141414C27.0458-0.282414 28.0165 0.278133 28.0165 1.39923Z" fill="black" fill-opacity="0.85"/>
  <path d="M7.03019 23.6434L21.8232 23.6434C25.7743 23.6434 28.8505 20.6492 28.8505 16.7938C28.8505 12.9656 25.747 10.0809 21.6454 10.0262C20.0458 7.03204 17.1884 5.20001 13.8114 5.20001C9.28605 5.20001 5.49894 8.68634 5.04777 13.1844C2.77824 13.8953 1.23331 15.8641 1.23331 18.3524C1.23331 21.4285 3.55753 23.6434 7.03019 23.6434ZM6.9755 21.4559C4.65128 21.4559 3.42081 20.116 3.42081 18.407C3.42081 16.9578 4.26847 15.6863 6.27824 15.1395C6.93449 14.9754 7.18058 14.6746 7.23527 13.9774C7.54972 10.1492 10.3935 7.38751 13.8114 7.38751C16.4638 7.38751 18.5282 8.8504 19.7997 11.3934C20.1005 11.9813 20.4286 12.1863 21.1259 12.1863C24.6669 12.1863 26.6493 14.3191 26.6493 16.8621C26.6493 19.4051 24.5712 21.4559 21.8642 21.4559Z" fill="black" fill-opacity="0.85"/>
 </g>
</svg>
