<?xml version="1.0" encoding="UTF-8"?>
<!--Generator: Apple Native CoreSVG 326-->
<!DOCTYPE svg
PUBLIC "-//W3C//DTD SVG 1.1//EN"
       "http://www.w3.org/Graphics/SVG/1.1/DTD/svg11.dtd">
<svg version="1.1" xmlns="http://www.w3.org/2000/svg" xmlns:xlink="http://www.w3.org/1999/xlink" viewBox="0 0 30.9258 30.584">
 <g>
  <rect height="30.584" opacity="0" width="30.9258" x="0" y="0"/>
  <path d="M15.2852 30.5703C23.6797 30.5703 30.5703 23.6797 30.5703 15.2852C30.5703 6.89062 23.6797 0 15.2852 0C6.89062 0 0 6.89062 0 15.2852C0 23.6797 6.89062 30.5703 15.2852 30.5703ZM15.2852 25.4844C9.65234 25.4844 5.08594 20.918 5.08594 15.2852C5.08594 9.63867 9.65234 5.08594 15.2852 5.08594C20.9316 5.08594 25.4844 9.63867 25.4844 15.2852C25.4844 20.918 20.9316 25.4844 15.2852 25.4844Z" fill="black" fill-opacity="0.85"/>
  <path d="M15.4355 21.3008C17.5273 21.3008 19.3867 20.2891 20.0156 18.498C20.0977 18.293 20.1387 18.0742 20.1387 17.8555C20.1387 17.3359 19.7832 17.1172 19.4004 17.1172C18.9766 17.1172 18.7715 17.377 18.6348 17.7598C18.1562 19.1406 16.9121 19.8789 15.4355 19.8789C12.8926 19.8789 11.7305 17.623 11.7305 15.1758C11.7305 12.6738 12.9473 10.4863 15.4219 10.4863C16.8848 10.4863 18.1699 11.375 18.5391 12.6191C18.6621 13.002 18.8398 13.248 19.3047 13.248C19.7695 13.248 20.043 12.9609 20.043 12.5234C20.043 12.3184 19.9883 12.0586 19.9062 11.8535C19.168 10.0215 17.3496 9.06445 15.4219 9.06445C12.0312 9.06445 10.0625 11.6484 10.0625 15.1758C10.0625 18.6211 11.9219 21.3008 15.4355 21.3008ZM12.1953 23.1738C12.4277 23.1738 12.5918 23.0645 12.6465 22.8184L16.3379 8.10742C16.3789 7.98438 16.3926 7.90234 16.3926 7.86133C16.3926 7.61523 16.2012 7.42383 15.9414 7.42383C15.668 7.42383 15.5176 7.54688 15.4492 7.7793L11.7578 22.4766C11.7441 22.5586 11.7305 22.6543 11.7305 22.7227C11.7305 22.9824 11.9219 23.1738 12.1953 23.1738ZM14.8203 23.1738C15.0527 23.1738 15.2168 23.0645 15.2715 22.8184L18.9629 8.10742C19.0039 7.98438 19.0176 7.90234 19.0176 7.86133C19.0176 7.61523 18.8262 7.42383 18.5664 7.42383C18.293 7.42383 18.1426 7.54688 18.0742 7.7793L14.3828 22.4766C14.3691 22.5586 14.3555 22.6543 14.3555 22.7227C14.3555 22.9824 14.5469 23.1738 14.8203 23.1738Z" fill="black" fill-opacity="0.85"/>
 </g>
</svg>
