<?xml version="1.0" encoding="UTF-8"?>
<!--Generator: Apple Native CoreSVG 326-->
<!DOCTYPE svg
PUBLIC "-//W3C//DTD SVG 1.1//EN"
       "http://www.w3.org/Graphics/SVG/1.1/DTD/svg11.dtd">
<svg version="1.1" xmlns="http://www.w3.org/2000/svg" xmlns:xlink="http://www.w3.org/1999/xlink" viewBox="0 0 28.2461 27.9043">
 <g>
  <rect height="27.9043" opacity="0" width="28.2461" x="0" y="0"/>
  <path d="M13.9453 27.8906C21.6426 27.8906 27.8906 21.6289 27.8906 13.9453C27.8906 6.24805 21.6426 0 13.9453 0C6.26172 0 0 6.24805 0 13.9453C0 21.6289 6.26172 27.8906 13.9453 27.8906Z" fill="black" fill-opacity="0.85"/>
  <path d="M13.4668 22.0801C13.1934 22.0801 12.9883 21.8887 12.9883 21.6152C12.9883 21.5469 13.002 21.4512 13.0156 21.3691L13.3438 20.0977C12.7559 20.0293 12.2227 19.8926 11.7441 19.6738L11.2383 21.7109C11.1562 21.9707 11.0059 22.0801 10.7598 22.0801C10.4863 22.0801 10.2676 21.8887 10.2676 21.6152C10.2676 21.5469 10.2812 21.4512 10.3086 21.3691L10.8555 19.168C9.33789 18.0605 8.55859 16.1055 8.55859 13.8359C8.55859 10.2949 10.459 7.69727 13.7812 7.5332L14.123 6.2207C14.1914 5.96094 14.3418 5.83789 14.6152 5.83789C14.9023 5.83789 15.0938 6.0293 15.0938 6.28906C15.0938 6.33008 15.0801 6.41211 15.0391 6.53516L14.793 7.57422C15.3398 7.64258 15.873 7.7793 16.3789 8.01172L16.8301 6.2207C16.8984 5.96094 17.0488 5.83789 17.3223 5.83789C17.6094 5.83789 17.8008 6.0293 17.8008 6.28906C17.8008 6.33008 17.7871 6.41211 17.7461 6.53516L17.2539 8.51758C17.8828 8.98242 18.4023 9.61133 18.7168 10.4043C18.7988 10.6094 18.8672 10.8828 18.8672 11.0879C18.8672 11.5527 18.5801 11.8398 18.1016 11.8398C17.6094 11.8398 17.4316 11.5938 17.3086 11.1973C17.2129 10.8418 17.0488 10.541 16.8164 10.2812L14.7246 18.6348C15.9551 18.457 16.9805 17.7188 17.3906 16.502C17.541 16.1055 17.7461 15.832 18.1973 15.832C18.5938 15.832 18.9629 16.0645 18.9629 16.5977C18.9629 16.8301 18.9219 17.0488 18.8398 17.2676C18.2109 19.0312 16.4199 20.1523 14.3555 20.1523L14.3418 20.1523L13.9453 21.7109C13.877 21.9707 13.7129 22.0801 13.4668 22.0801ZM10.2949 13.8359C10.2949 15.1621 10.6367 16.4199 11.3203 17.3359L13.3984 9.06445C11.3203 9.44727 10.2949 11.498 10.2949 13.8359ZM12.127 18.1152C12.5645 18.4023 13.0977 18.6074 13.6992 18.6621L15.9961 9.5293C15.5449 9.25586 14.998 9.06445 14.4238 9.00977Z" fill="white"/>
 </g>
</svg>
