<?xml version="1.0" encoding="UTF-8"?>
<!--Generator: Apple Native CoreSVG 326-->
<!DOCTYPE svg
PUBLIC "-//W3C//DTD SVG 1.1//EN"
       "http://www.w3.org/Graphics/SVG/1.1/DTD/svg11.dtd">
<svg version="1.1" xmlns="http://www.w3.org/2000/svg" xmlns:xlink="http://www.w3.org/1999/xlink" viewBox="0 0 33.5408 27.9043">
 <g>
  <rect height="27.9043" opacity="0" width="33.5408" x="0" y="0"/>
  <path d="M16.5995 27.8906C24.2968 27.8906 30.5448 21.6426 30.5448 13.9453C30.5448 6.24805 24.2968 0 16.5995 0C8.90224 0 2.65419 6.24805 2.65419 13.9453L4.97841 13.9453C4.97841 7.51953 10.1737 2.32422 16.5995 2.32422C23.0253 2.32422 28.2206 7.51953 28.2206 13.9453C28.2206 20.3711 23.0253 25.5664 16.5995 25.5664C12.7167 25.5664 9.2577 23.6523 7.19325 20.7539C6.76942 20.1934 6.12684 20.0156 5.55263 20.3574C5.00575 20.6992 4.84169 21.4648 5.30653 22.0664C7.83583 25.6074 11.9784 27.8906 16.5995 27.8906ZM0.972548 11.3066C-0.0118272 11.3066-0.257921 11.9766 0.275282 12.7422L3.33778 17.0898C3.78895 17.7188 4.4452 17.7051 4.8827 17.0898L7.93153 12.7285C8.46474 11.9766 8.20497 11.3066 7.24794 11.3066Z" fill="black" fill-opacity="0.85"/>
  <path d="M16.7499 19.9609C18.8417 19.9609 20.7011 18.9492 21.33 17.1582C21.412 16.9531 21.453 16.7344 21.453 16.5156C21.453 15.9961 21.0975 15.7773 20.7147 15.7773C20.2772 15.7773 20.0858 16.0371 19.9354 16.4199C19.4706 17.8008 18.2265 18.5391 16.7499 18.5391C14.2069 18.5391 13.0448 16.2832 13.0448 13.8359C13.0448 11.334 14.2616 9.14648 16.7362 9.14648C18.1991 9.14648 19.4706 10.0352 19.8534 11.2793C19.9765 11.6621 20.1542 11.9082 20.619 11.9082C21.0839 11.9082 21.3573 11.6211 21.3573 11.1836C21.3573 10.9785 21.3026 10.7188 21.2206 10.5137C20.4686 8.68164 18.664 7.72461 16.7362 7.72461C13.3456 7.72461 11.3768 10.3086 11.3768 13.8359C11.3768 17.2812 13.2362 19.9609 16.7499 19.9609ZM13.5097 21.834C13.7421 21.834 13.8925 21.7246 13.9608 21.4785L17.6522 6.76758C17.6933 6.64453 17.7069 6.5625 17.7069 6.52148C17.7069 6.27539 17.5155 6.08398 17.2421 6.08398C16.9823 6.08398 16.8319 6.20703 16.7636 6.43945L13.0722 21.1367C13.0448 21.2188 13.0311 21.3145 13.0311 21.3828C13.0311 21.6426 13.2362 21.834 13.5097 21.834ZM16.1347 21.834C16.3671 21.834 16.5311 21.7246 16.5858 21.4785L20.2772 6.76758C20.3183 6.64453 20.3319 6.5625 20.3319 6.52148C20.3319 6.27539 20.1405 6.08398 19.8671 6.08398C19.6073 6.08398 19.4569 6.20703 19.3886 6.43945L15.6972 21.1367C15.6835 21.2188 15.6698 21.3145 15.6698 21.3828C15.6698 21.6426 15.8612 21.834 16.1347 21.834Z" fill="black" fill-opacity="0.85"/>
 </g>
</svg>
