<?xml version="1.0" encoding="UTF-8"?>
<!--Generator: Apple Native CoreSVG 326-->
<!DOCTYPE svg
PUBLIC "-//W3C//DTD SVG 1.1//EN"
       "http://www.w3.org/Graphics/SVG/1.1/DTD/svg11.dtd">
<svg version="1.1" xmlns="http://www.w3.org/2000/svg" xmlns:xlink="http://www.w3.org/1999/xlink" viewBox="0 0 50.75 22.7363">
 <g>
  <rect height="22.7363" opacity="0" width="50.75" x="0" y="0"/>
  <path d="M2.98047 19.9883L6.43945 20.3848L6.6582 18.1836L3.5 17.8281C2.61133 17.7324 2.20117 17.3223 2.20117 16.5293L2.20117 14.875C2.20117 12.5234 3.78711 11.1289 6.95898 10.5273L15.7773 8.85938C16.5156 8.72266 17.0898 8.59961 17.582 8.25781L26.0586 2.55664C27.3027 1.72266 26.0859-0.123047 24.7461 0.779297L15.9824 6.63086L6.67188 8.38086C2.22852 9.21484 0 11.2656 0 14.875L0 16.6934C0 18.7441 0.916016 19.7695 2.98047 19.9883ZM10.0625 22.7363C12.7832 22.7363 14.916 20.6035 14.916 17.8828C14.916 15.1484 12.7832 13.0156 10.0625 13.0156C7.32812 13.0156 5.19531 15.1484 5.19531 17.8828C5.19531 20.6035 7.32812 22.7363 10.0625 22.7363ZM10.0625 20.6719C8.49023 20.6719 7.25977 19.4414 7.25977 17.8828C7.25977 16.3105 8.49023 15.0801 10.0625 15.0801C11.6211 15.0801 12.8516 16.3105 12.8516 17.8828C12.8516 19.4414 11.6211 20.6719 10.0625 20.6719ZM13.4668 19.7559L37.0645 19.7559L37.0645 17.5547L13.4668 17.5547ZM40.3457 22.7363C43.0664 22.7363 45.1992 20.6035 45.1992 17.8828C45.1992 15.1484 43.0664 13.0156 40.3457 13.0156C37.6113 13.0156 35.4785 15.1484 35.4785 17.8828C35.4785 20.6035 37.6113 22.7363 40.3457 22.7363ZM40.3457 20.6719C38.7734 20.6719 37.543 19.4414 37.543 17.8828C37.543 16.3105 38.7734 15.0801 40.3457 15.0801C41.9043 15.0801 43.1348 16.3105 43.1348 17.8828C43.1348 19.4414 41.9043 20.6719 40.3457 20.6719ZM44.0918 19.4277L46.4844 19.168C49.123 18.8945 50.3945 17.4316 50.3945 14.7109L50.3945 12.332C50.3945 9.0918 49.1914 7.72461 46.1016 7.13672L38.1035 5.5918C37.3105 5.44141 36.5723 5.38672 35.8203 5.44141L16.0918 6.63086L15.4492 8.87305L36.3672 7.60156L45.7051 9.40625C47.5234 9.74805 48.1934 10.541 48.1934 12.332L48.1934 14.7109C48.1934 16.1191 47.5508 16.8711 46.2109 17.0078L44.0918 17.2266Z" fill="black" fill-opacity="0.85"/>
 </g>
</svg>
