<?xml version="1.0" encoding="UTF-8"?>
<!--Generator: Apple Native CoreSVG 326-->
<!DOCTYPE svg
PUBLIC "-//W3C//DTD SVG 1.1//EN"
       "http://www.w3.org/Graphics/SVG/1.1/DTD/svg11.dtd">
<svg version="1.1" xmlns="http://www.w3.org/2000/svg" xmlns:xlink="http://www.w3.org/1999/xlink" viewBox="0 0 50.75 22.7363">
 <g>
  <rect height="22.7363" opacity="0" width="50.75" x="0" y="0"/>
  <path d="M15.3535 18.6348C15.3535 20.9316 13.5488 22.7363 11.2383 22.7363C8.94141 22.7363 7.13672 20.9316 7.13672 18.6348C7.13672 16.3379 8.94141 14.5332 11.2383 14.5332C13.5488 14.5332 15.3535 16.3379 15.3535 18.6348ZM43.4629 18.6348C43.4629 20.9316 41.6582 22.7363 39.3477 22.7363C37.0371 22.7363 35.2324 20.9316 35.2324 18.6348C35.2324 16.3379 37.0371 14.5332 39.3477 14.5332C41.6582 14.5332 43.4629 16.3379 43.4629 18.6348ZM26.0586 2.55664L20.2754 6.45312L35.8203 5.44141C36.5723 5.37305 37.3105 5.44141 38.1035 5.5918L46.1016 7.13672C49.2051 7.73828 50.3945 9.0918 50.3945 12.332L50.3945 14.7109C50.3945 17.4316 49.123 18.8945 46.4844 19.168L45.0352 19.3184C45.0488 19.1543 45.0488 19.0859 45.0488 18.9082C45.0488 15.7363 42.5332 12.9473 39.3477 12.9473C36.1621 12.9473 33.6465 15.4629 33.6465 18.6348C33.6465 19.0449 33.6875 19.4551 33.7832 19.7559L16.8438 19.7559C16.9121 19.4824 16.9395 19.0312 16.9395 18.6348C16.9395 15.4629 14.4238 12.9473 11.2383 12.9473C8.05273 12.9473 5.53711 15.4629 5.53711 18.6348C5.53711 19.1133 5.60547 19.8789 5.71484 20.3164L2.98047 19.9883C0.916016 19.7559 0 18.7441 0 16.6934L0 14.875C0 11.2656 2.22852 9.21484 6.67188 8.38086L15.9824 6.63086L24.7461 0.779297C26.0859-0.123047 27.3027 1.72266 26.0586 2.55664ZM24.4863 10.1309L21.6426 14.793C21.2598 15.4082 21.5605 15.9824 22.2715 15.9824L28.123 15.9824C28.8203 15.9824 29.1348 15.4219 28.7656 14.8066L25.8945 10.1309C25.5527 9.55664 24.8418 9.54297 24.4863 10.1309Z" fill="black" fill-opacity="0.85"/>
 </g>
</svg>
