<?xml version="1.0" encoding="UTF-8"?>
<!--Generator: Apple Native CoreSVG 326-->
<!DOCTYPE svg
PUBLIC "-//W3C//DTD SVG 1.1//EN"
       "http://www.w3.org/Graphics/SVG/1.1/DTD/svg11.dtd">
<svg version="1.1" xmlns="http://www.w3.org/2000/svg" xmlns:xlink="http://www.w3.org/1999/xlink" viewBox="0 0 44.0312 33.8722">
 <g>
  <rect height="33.8722" opacity="0" width="44.0312" x="0" y="0"/>
  <path d="M4.39937 33.1441C4.71382 33.691 5.39742 33.8687 5.88961 33.5816L41.3818 13.1011C41.874 12.8004 42.0654 12.1304 41.7783 11.6246C41.4638 11.0777 40.7666 10.9 40.2744 11.1871L4.79586 31.6675C4.29 31.9683 4.09859 32.6382 4.39937 33.1441ZM4.89156 26.8687L7.47554 25.7339L6.73726 24.107L4.3857 25.1324C3.71578 25.4332 3.26461 25.3101 2.95015 24.7496L2.28023 23.5875C1.3232 21.9468 1.88375 20.3199 3.8525 18.6109L9.36226 13.8804C9.82711 13.4703 10.1826 13.1558 10.3877 12.7183L14.0244 5.29449C14.5576 4.20074 12.958 3.40777 12.3837 4.56988L8.61031 12.2261L2.78609 17.23C0.010699 19.6089-0.727582 21.9468 0.735308 24.4898L1.47359 25.7613C2.30757 27.1968 3.34664 27.5386 4.89156 26.8687ZM10.9755 25.9254C12.8896 24.8179 13.5185 22.4664 12.4111 20.5523C11.3037 18.6382 8.95211 17.9957 7.03804 19.1031C5.12398 20.2105 4.49507 22.5757 5.58882 24.4898C6.69625 26.4039 9.06148 27.0328 10.9755 25.9254ZM10.1416 24.4761C9.04781 25.1187 7.68062 24.7496 7.03804 23.6558C6.40914 22.5484 6.77828 21.1949 7.87203 20.5523C8.96578 19.9234 10.333 20.2925 10.9619 21.3863C11.6044 22.48 11.2353 23.8472 10.1416 24.4761ZM12.1513 22.4527L28.708 12.8961L27.8193 11.3511L11.2627 20.9078ZM32.2216 13.6617C34.1357 12.5543 34.7646 10.2027 33.6572 8.28863C32.5498 6.37457 30.1982 5.73199 28.2841 6.83941C26.3701 7.94683 25.7275 10.3121 26.8349 12.2261C27.9423 14.1402 30.3076 14.7691 32.2216 13.6617ZM31.3877 12.2125C30.2802 12.8414 28.9267 12.4859 28.2841 11.3785C27.6552 10.2847 28.0244 8.91754 29.1181 8.28863C30.2119 7.65973 31.5791 8.02887 32.208 9.12262C32.8369 10.2164 32.4814 11.5836 31.3877 12.2125ZM33.5068 9.81988L35.0791 8.67144C36.8154 7.41363 37.1298 5.86871 36.0224 3.95465L35.0654 2.28668C33.7529 0.0171469 32.3447-0.447697 29.9384 0.386288L23.7041 2.53277C23.0888 2.75152 22.5556 3.01129 22.0361 3.35308L8.67867 12.1851L9.14351 14.0171L23.2939 4.65191L30.581 2.13629C31.9892 1.6441 32.7959 1.93121 33.5205 3.17535L34.4775 4.84332C35.0517 5.82769 34.9013 6.62066 34.0127 7.27691L32.6181 8.27496Z" fill="black" fill-opacity="0.85"/>
  <path d="M26.7666 33.7593C27.2451 33.7593 27.5595 33.4586 27.5595 32.9664L27.5595 30.0132L29.665 30.0132L29.665 32.9664C29.665 33.4586 29.9658 33.7593 30.458 33.7593C30.9365 33.7593 31.2509 33.4586 31.2509 32.9664L31.2509 25.8707C31.2509 25.3921 30.9365 25.0914 30.458 25.0914C29.9658 25.0914 29.665 25.3921 29.665 25.8707L29.665 28.7007L27.5595 28.7007L27.5595 25.8707C27.5595 25.3921 27.2451 25.0914 26.7666 25.0914C26.3017 25.0914 26.0009 25.3921 26.0009 25.8707L26.0009 32.9664C26.0009 33.4586 26.3017 33.7593 26.7666 33.7593ZM33.1787 33.7593L34.6962 33.7593C36.9248 33.7593 37.6767 31.6129 37.6767 29.398C37.6767 26.9781 36.8154 25.0914 34.6962 25.0914L33.1787 25.0914C32.7138 25.0914 32.3857 25.3511 32.3857 25.9117L32.3857 32.939C32.3857 33.4996 32.7138 33.7593 33.1787 33.7593ZM33.9306 32.4468L33.9306 26.4039L34.5048 26.4039C35.831 26.4039 36.0771 28.0718 36.0771 29.398C36.0771 30.7515 35.872 32.4468 34.5048 32.4468ZM41.2724 33.8277C42.1474 33.8277 42.7763 33.4175 43.1865 32.775C43.4599 32.3648 43.6787 31.7359 43.6787 31.2711C43.6787 30.8336 43.3779 30.5601 42.9404 30.5601C42.5986 30.5601 42.3252 30.8062 42.2431 31.189C42.0927 31.982 41.8466 32.4605 41.2314 32.4605C40.4794 32.4605 40.0419 31.3941 40.0419 29.4254C40.0419 27.4293 40.5478 26.3629 41.2314 26.3629C41.7919 26.3629 42.1201 26.9234 42.2158 27.6343C42.2841 28.0582 42.5712 28.3043 42.9814 28.3043C43.3916 28.3043 43.6377 28.0171 43.6377 27.5796C43.6377 27.0601 43.3916 26.3082 42.9267 25.7886C42.5029 25.2964 41.8877 25.0093 41.2177 25.0093C40.0283 25.0093 39.3037 25.775 38.9209 26.6636C38.538 27.5113 38.4423 28.4683 38.4423 29.4254C38.4423 30.5191 38.5517 31.5855 39.0439 32.4879C39.5361 33.3765 40.2744 33.8277 41.2724 33.8277Z" fill="black" fill-opacity="0.85"/>
 </g>
</svg>
