<?xml version="1.0" encoding="UTF-8"?>
<!--Generator: Apple Native CoreSVG 326-->
<!DOCTYPE svg
PUBLIC "-//W3C//DTD SVG 1.1//EN"
       "http://www.w3.org/Graphics/SVG/1.1/DTD/svg11.dtd">
<svg version="1.1" xmlns="http://www.w3.org/2000/svg" xmlns:xlink="http://www.w3.org/1999/xlink" viewBox="0 0 50.75 31.0488">
 <g>
  <rect height="31.0488" opacity="0" width="50.75" x="0" y="0"/>
  <path d="M18.4707 12.0039C18.4707 12.2972 18.4947 12.577 18.5422 12.8413L15.826 13.0064C15.8106 13.0095 15.794 13.0125 15.7773 13.0156L6.95898 14.6836C3.78711 15.2852 2.20117 16.6797 2.20117 19.0312L2.20117 20.6855C2.20117 21.4785 2.61133 21.8887 3.5 21.9844L5.20201 22.1759C5.19593 22.1315 5.19531 22.0853 5.19531 22.0391C5.19531 19.3047 7.32812 17.1719 10.0625 17.1719C12.6728 17.1719 14.7419 19.1351 14.9 21.7109L35.4945 21.7109C35.6526 19.1351 37.7223 17.1719 40.3457 17.1719C42.8064 17.1719 44.7861 18.9165 45.1363 21.275L46.2109 21.1641C47.5508 21.0273 48.1934 20.2754 48.1934 18.8672L48.1934 16.4883C48.1934 14.6973 47.5234 13.9043 45.7051 13.5625L36.3672 11.7578L31.9229 12.028C31.9238 12.0203 31.9238 12.0121 31.9238 12.0039L31.9238 9.83258L35.8203 9.59766C36.5723 9.54297 37.3105 9.59766 38.1035 9.74805L46.1016 11.293C49.1914 11.8809 50.3945 13.248 50.3945 16.4883L50.3945 18.8672C50.3945 21.5879 49.123 23.0508 46.4844 23.3242L44.9871 23.4868C44.385 25.4797 42.5601 26.8926 40.3457 26.8926C38.2823 26.8926 36.5614 25.678 35.8426 23.9121L14.5522 23.9121C13.8339 25.678 12.1156 26.8926 10.0625 26.8926C8.22591 26.8926 6.6607 25.9304 5.83445 24.4717L2.98047 24.1445C0.916016 23.9258 0 22.9004 0 20.8496L0 19.0312C0 15.4219 2.22852 13.3711 6.67188 12.5371L15.9824 10.7871L18.4707 9.12567ZM7.25977 22.0391C7.25977 23.5977 8.49023 24.8281 10.0625 24.8281C11.6211 24.8281 12.8516 23.5977 12.8516 22.0391C12.8516 20.4668 11.6211 19.2363 10.0625 19.2363C8.49023 19.2363 7.25977 20.4668 7.25977 22.0391ZM37.543 22.0391C37.543 23.5977 38.7734 24.8281 40.3457 24.8281C41.9043 24.8281 43.1348 23.5977 43.1348 22.0391C43.1348 20.4668 41.9043 19.2363 40.3457 19.2363C38.7734 19.2363 37.543 20.4668 37.543 22.0391Z" fill="black" fill-opacity="0.85"/>
  <path d="M22.1074 13.8633L28.3008 13.8633C29.4492 13.8633 30.0508 13.248 30.0508 12.0039L30.0508 7.24609C30.0508 6.01562 29.4492 5.40039 28.3008 5.40039L22.1074 5.40039C20.9453 5.40039 20.3438 6.01562 20.3438 7.24609L20.3438 12.0039C20.3438 13.248 20.9453 13.8633 22.1074 13.8633ZM21.5332 6.50781L23.0234 6.50781L23.0234 3.77344C23.0234 2.37891 23.8711 1.47656 25.1973 1.47656C26.5371 1.47656 27.3848 2.37891 27.3848 3.77344L27.3848 6.50781L28.8613 6.50781L28.8613 4.00586C28.8613 1.54492 27.4395 0 25.1973 0C22.9688 0 21.5332 1.54492 21.5332 4.00586Z" fill="black" fill-opacity="0.85"/>
 </g>
</svg>
