<?xml version="1.0" encoding="UTF-8"?>
<!--Generator: Apple Native CoreSVG 326-->
<!DOCTYPE svg
PUBLIC "-//W3C//DTD SVG 1.1//EN"
       "http://www.w3.org/Graphics/SVG/1.1/DTD/svg11.dtd">
<svg version="1.1" xmlns="http://www.w3.org/2000/svg" xmlns:xlink="http://www.w3.org/1999/xlink" viewBox="0 0 27.3711 22.7363">
 <g>
  <rect height="22.7363" opacity="0" width="27.3711" x="0" y="0"/>
  <path d="M1.81836 2.73438L6.16602 2.73438C6.68555 2.73438 7.08203 2.87109 7.39648 3.18555L12.25 8.03906L14.1641 7.06836L8.99609 1.90039C8.20312 1.10742 7.16406 0.765625 5.93359 0.765625L1.81836 0.765625C1.18945 0.765625 0.792969 1.16211 0.792969 1.75C0.792969 2.33789 1.18945 2.73438 1.81836 2.73438ZM2.98047 19.9883L6.43945 20.3848L6.6582 18.1836L3.5 17.8281C2.61133 17.7188 2.20117 17.3223 2.20117 16.5293L2.20117 14.875C2.20117 12.5234 3.78711 11.1289 6.95898 10.5273L15.7773 8.85938C16.5156 8.72266 17.0898 8.59961 17.582 8.25781L26.0586 2.55664C27.3027 1.72266 26.0859-0.123047 24.7461 0.779297L15.9824 6.63086L6.67188 8.38086C2.22852 9.21484 0 11.2656 0 14.875L0 16.6934C0 18.7441 0.916016 19.7695 2.98047 19.9883ZM10.0625 22.7363C12.7832 22.7363 14.916 20.6035 14.916 17.8828C14.916 15.1484 12.7832 13.0156 10.0625 13.0156C7.32812 13.0156 5.19531 15.1484 5.19531 17.8828C5.19531 20.6035 7.32812 22.7363 10.0625 22.7363ZM10.0625 20.6719C8.49023 20.6719 7.25977 19.4414 7.25977 17.8828C7.25977 16.3105 8.49023 15.0801 10.0625 15.0801C11.6211 15.0801 12.8516 16.3105 12.8516 17.8828C12.8516 19.4414 11.6211 20.6719 10.0625 20.6719ZM27.0156 19.7559L27.0156 17.5547L13.4668 17.5547L13.4668 19.7559ZM27.0156 8.17578L27.0156 5.97461L16.0918 6.63086L15.4492 8.87305Z" fill="black" fill-opacity="0.85"/>
 </g>
</svg>
