<?xml version="1.0" encoding="UTF-8"?>
<!--Generator: Apple Native CoreSVG 326-->
<!DOCTYPE svg
PUBLIC "-//W3C//DTD SVG 1.1//EN"
       "http://www.w3.org/Graphics/SVG/1.1/DTD/svg11.dtd">
<svg version="1.1" xmlns="http://www.w3.org/2000/svg" xmlns:xlink="http://www.w3.org/1999/xlink" viewBox="0 0 50.75 32.9288">
 <g>
  <rect height="32.9288" opacity="0" width="50.75" x="0" y="0"/>
  <path d="M2.98047 25.0845L6.43945 25.481L6.6582 23.2798L3.5 22.9244C2.61133 22.8287 2.20117 22.4185 2.20117 21.6255L2.20117 19.9712C2.20117 17.6197 3.78711 16.2252 6.95898 15.6236L15.7773 13.9556C16.5156 13.8189 17.0898 13.6959 17.582 13.3541L26.0586 7.65289C27.3027 6.8189 26.0859 4.9732 24.7461 5.87555L15.9824 11.7271L6.67188 13.4771C2.22852 14.3111 0 16.3619 0 19.9712L0 21.7896C0 23.8404 0.916016 24.8658 2.98047 25.0845ZM10.0625 27.8326C12.7832 27.8326 14.916 25.6998 14.916 22.9791C14.916 20.2447 12.7832 18.1119 10.0625 18.1119C7.32812 18.1119 5.19531 20.2447 5.19531 22.9791C5.19531 25.6998 7.32812 27.8326 10.0625 27.8326ZM10.0625 25.7681C8.49023 25.7681 7.25977 24.5377 7.25977 22.9791C7.25977 21.4068 8.49023 20.1763 10.0625 20.1763C11.6211 20.1763 12.8516 21.4068 12.8516 22.9791C12.8516 24.5377 11.6211 25.7681 10.0625 25.7681ZM13.4668 24.8521L37.0645 24.8521L37.0645 22.6509L13.4668 22.6509ZM40.3457 27.8326C43.0664 27.8326 45.1992 25.6998 45.1992 22.9791C45.1992 20.2447 43.0664 18.1119 40.3457 18.1119C37.6113 18.1119 35.4785 20.2447 35.4785 22.9791C35.4785 25.6998 37.6113 27.8326 40.3457 27.8326ZM40.3457 25.7681C38.7734 25.7681 37.543 24.5377 37.543 22.9791C37.543 21.4068 38.7734 20.1763 40.3457 20.1763C41.9043 20.1763 43.1348 21.4068 43.1348 22.9791C43.1348 24.5377 41.9043 25.7681 40.3457 25.7681ZM44.0918 24.524L46.4844 24.2642C49.123 23.9908 50.3945 22.5279 50.3945 19.8072L50.3945 17.4283C50.3945 14.188 49.1914 12.8209 46.1016 12.233L38.1035 10.688C37.3105 10.5377 36.5723 10.483 35.8203 10.5377L16.0918 11.7271L15.4492 13.9693L36.3672 12.6978L45.7051 14.5025C47.5234 14.8443 48.1934 15.6373 48.1934 17.4283L48.1934 19.8072C48.1934 21.2154 47.5508 21.9673 46.2109 22.1041L44.0918 22.3228Z" fill="black" fill-opacity="0.85"/>
  <path d="M22.1621 26.3697C21.4102 26.3697 21.0957 26.9712 21.4922 27.6138L24.459 32.4673C24.8281 33.0962 25.5664 33.0689 25.9355 32.4673L28.916 27.6138C29.3125 26.9712 28.9707 26.3697 28.2461 26.3697Z" fill="black" fill-opacity="0.85"/>
  <path d="M22.2715 21.0787L28.123 21.0787C28.8203 21.0787 29.1348 20.5181 28.7656 19.9029L25.8945 15.2271C25.5527 14.6529 24.8418 14.6392 24.4863 15.2271L21.6289 19.8892C21.2598 20.5045 21.5605 21.0787 22.2715 21.0787Z" fill="black" fill-opacity="0.85"/>
 </g>
</svg>
