<?xml version="1.0" encoding="UTF-8"?>
<!--Generator: Apple Native CoreSVG 326-->
<!DOCTYPE svg
PUBLIC "-//W3C//DTD SVG 1.1//EN"
       "http://www.w3.org/Graphics/SVG/1.1/DTD/svg11.dtd">
<svg version="1.1" xmlns="http://www.w3.org/2000/svg" xmlns:xlink="http://www.w3.org/1999/xlink" viewBox="0 0 47.6479 35.8956">
 <g>
  <rect height="35.8956" opacity="0" width="47.6479" x="0" y="0"/>
  <path d="M18.7859 25.4468C20.4128 24.5171 20.946 22.5211 20.0163 20.9078C19.0867 19.2945 17.0906 18.7613 15.4636 19.691C13.8503 20.6207 13.3171 22.6168 14.2468 24.23C15.1765 25.8433 17.1726 26.3765 18.7859 25.4468ZM38.5144 14.0582C40.1277 13.1285 40.6609 11.1324 39.7312 9.5191C38.8015 7.90582 36.8054 7.37262 35.1921 8.3023C33.5652 9.24566 33.032 11.2418 33.9617 12.8414C34.8913 14.4683 36.8874 15.0015 38.5144 14.0582ZM30.6941 2.53277C30.0788 2.75152 29.532 3.01129 29.0261 3.35308L18.5398 10.3668L21.0144 5.29449C21.5476 4.20074 19.948 3.40777 19.3738 4.56988L15.6003 12.2261L9.76244 17.23C7.00072 19.6089 6.26244 21.9468 7.72533 24.4898L8.44994 25.7613C9.28392 27.1968 10.3367 27.5386 11.8816 26.8687L13.9324 25.9937C13.6726 25.7203 13.3171 25.2144 13.1257 24.8726C11.8406 22.6578 12.5925 19.8687 14.821 18.5699C17.0495 17.2847 19.8386 18.0367 21.1238 20.2515C21.2878 20.525 21.4519 20.8668 21.5066 21.0855L33.3874 14.2222C33.2097 14.0445 33.0046 13.7711 32.8406 13.4976C31.5554 11.2691 32.3074 8.48004 34.5359 7.19488C36.7781 5.89605 39.6765 6.83941 40.9617 9.06793C41.03 9.19098 41.0574 9.24566 41.112 9.36871L42.0691 8.67144C43.8054 7.41363 44.1199 5.86871 43.0124 3.95465L42.0417 2.28668C40.7292 0.0171469 39.3484-0.447697 36.9285 0.386288Z" fill="black" fill-opacity="0.85"/>
  <path d="M6.15306 28.5367L3.29564 23.5601C2.81713 22.7125 1.84642 22.9312 1.57299 23.7515L0.069079 27.9625C-0.135999 28.5504 0.123766 29.0152 0.739001 29.1246L5.12767 29.9312C5.989 30.1089 6.64525 29.3707 6.15306 28.5367ZM8.5183 35.2359C8.84642 35.7828 9.51634 35.9605 10.0222 35.6597L46.7449 14.482C47.2507 14.1949 47.4421 13.5113 47.155 13.0054C46.8269 12.4586 46.1433 12.2808 45.6511 12.5816L8.91478 33.7593C8.42259 34.0601 8.23119 34.7437 8.5183 35.2359Z" fill="black" fill-opacity="0.85"/>
 </g>
</svg>
