<?xml version="1.0" encoding="UTF-8"?>
<!--Generator: Apple Native CoreSVG 326-->
<!DOCTYPE svg
PUBLIC "-//W3C//DTD SVG 1.1//EN"
       "http://www.w3.org/Graphics/SVG/1.1/DTD/svg11.dtd">
<svg version="1.1" xmlns="http://www.w3.org/2000/svg" xmlns:xlink="http://www.w3.org/1999/xlink" viewBox="0 0 51.1823 35.1648">
 <g>
  <rect height="35.1648" opacity="0" width="51.1823" x="0" y="0"/>
  <path d="M11.4476 28.9505C13.7581 28.9505 15.5628 27.1459 15.5628 24.849C15.5628 22.5521 13.7581 20.7474 11.4476 20.7474C9.15071 20.7474 7.34603 22.5521 7.34603 24.849C7.34603 27.1459 9.15071 28.9505 11.4476 28.9505ZM39.557 28.9505C41.8675 28.9505 43.6722 27.1459 43.6722 24.849C43.6722 22.5521 41.8675 20.7474 39.557 20.7474C37.2601 20.7474 35.4554 22.5521 35.4554 24.849C35.4554 27.1459 37.2601 28.9505 39.557 28.9505ZM38.3265 11.806C37.5335 11.6556 36.7952 11.5873 36.0296 11.6556L20.4847 12.6673L26.2679 8.77086C27.512 7.93687 26.2952 6.09117 24.9691 6.99351L16.2054 12.8451L6.88118 14.5951C2.4515 15.4291 0.209308 17.4798 0.209308 21.0892L0.209308 22.9076C0.209308 24.9584 1.12532 25.9701 3.18978 26.2025L5.92415 26.5306C5.81478 26.0931 5.74642 25.3275 5.74642 24.849C5.74642 21.6771 8.27571 19.1615 11.4476 19.1615C14.6331 19.1615 17.1624 21.6771 17.1624 24.849C17.1624 25.2455 17.1214 25.6966 17.0531 25.9701L33.9925 25.9701C33.9105 25.6693 33.8558 25.2591 33.8558 24.849C33.8558 21.6771 36.3851 19.1615 39.557 19.1615C42.7425 19.1615 45.2581 21.9505 45.2581 25.1224C45.2581 25.3002 45.2581 25.3685 45.2445 25.5326L46.7074 25.3822C49.3324 25.1087 50.6175 23.6459 50.6175 20.9252L50.6175 18.5462C50.6175 15.306 49.4144 13.9525 46.3109 13.3509Z" fill="black" fill-opacity="0.85"/>
  <path d="M35.8656 7.02086L35.8109 5.05211C38.5589 4.8607 42.0452 5.1068 44.9984 6.4193L44.2874 8.21031C43.9456 9.11266 44.4925 9.60484 45.3949 9.37242L50.4124 8.10094C51.1781 7.90953 51.3968 7.28062 50.9593 6.66539L48.0472 2.38609C47.555 1.66148 46.8441 1.64781 46.4886 2.53648L45.8187 4.2318C42.4691 2.79625 38.6273 2.55016 35.7425 2.72789L35.6878 0.950546C35.6468-0.0338293 34.9769-0.238907 34.2523 0.266952L30.0824 3.32945C29.4398 3.78062 29.4671 4.43687 30.1097 4.8607L34.43 7.77281C35.2093 8.29234 35.8792 7.99156 35.8656 7.02086Z" fill="black" fill-opacity="0.85"/>
 </g>
</svg>
