<?xml version="1.0" encoding="UTF-8"?>
<!--Generator: Apple Native CoreSVG 326-->
<!DOCTYPE svg
PUBLIC "-//W3C//DTD SVG 1.1//EN"
       "http://www.w3.org/Graphics/SVG/1.1/DTD/svg11.dtd">
<svg version="1.1" xmlns="http://www.w3.org/2000/svg" xmlns:xlink="http://www.w3.org/1999/xlink" viewBox="0 0 51.1823 35.1648">
 <g>
  <rect height="35.1648" opacity="0" width="51.1823" x="0" y="0"/>
  <path d="M3.18978 26.2025L6.64876 26.599L6.86751 24.3978L3.70931 24.0423C2.82064 23.9466 2.41048 23.5365 2.41048 22.7435L2.41048 21.0892C2.41048 18.7377 4.01009 17.3431 7.16829 16.7416L15.9867 15.0736C16.7386 14.9369 17.2992 14.8138 17.7913 14.472L26.2679 8.77086C27.512 7.93687 26.2952 6.09117 24.9691 6.99351L16.2054 12.8451L6.88118 14.5951C2.4515 15.4291 0.209308 17.4798 0.209308 21.0892L0.209308 22.9076C0.209308 24.9584 1.12532 25.9837 3.18978 26.2025ZM10.2718 28.9505C13.0062 28.9505 15.139 26.8177 15.139 24.097C15.139 21.3627 13.0062 19.2298 10.2718 19.2298C7.53743 19.2298 5.40462 21.3627 5.40462 24.097C5.40462 26.8177 7.53743 28.9505 10.2718 28.9505ZM10.2718 26.8861C8.71321 26.8861 7.46907 25.6556 7.46907 24.097C7.46907 22.5248 8.71321 21.2943 10.2718 21.2943C11.8304 21.2943 13.0745 22.5248 13.0745 24.097C13.0745 25.6556 11.8304 26.8861 10.2718 26.8861ZM13.6761 25.9701L37.2874 25.9701L37.2874 23.7689L13.6761 23.7689ZM40.555 28.9505C43.2894 28.9505 45.4222 26.8177 45.4222 24.097C45.4222 21.3627 43.2894 19.2298 40.555 19.2298C37.8206 19.2298 35.6878 21.3627 35.6878 24.097C35.6878 26.8177 37.8206 28.9505 40.555 28.9505ZM40.555 26.8861C38.9964 26.8861 37.7523 25.6556 37.7523 24.097C37.7523 22.5248 38.9964 21.2943 40.555 21.2943C42.1136 21.2943 43.3577 22.5248 43.3577 24.097C43.3577 25.6556 42.1136 26.8861 40.555 26.8861ZM44.3011 25.642L46.7074 25.3822C49.3324 25.1087 50.6175 23.6459 50.6175 20.9252L50.6175 18.5462C50.6175 15.306 49.4007 13.9388 46.3109 13.3509L38.3265 11.806C37.5335 11.6556 36.7952 11.6009 36.0296 11.6556L16.3011 12.8451L15.6722 15.0873L36.5765 13.8158L45.9281 15.6205C47.7327 15.9623 48.4163 16.7552 48.4163 18.5462L48.4163 20.9252C48.4163 22.3334 47.7601 23.0853 46.4202 23.222L44.3011 23.4408Z" fill="black" fill-opacity="0.85"/>
  <path d="M35.8656 7.02086L35.8109 5.05211C38.5589 4.8607 42.0452 5.1068 44.9984 6.4193L44.2874 8.21031C43.9456 9.11266 44.4925 9.60484 45.3949 9.37242L50.4124 8.10094C51.1781 7.90953 51.3968 7.28062 50.9593 6.66539L48.0472 2.38609C47.555 1.66148 46.8441 1.64781 46.4886 2.53648L45.8187 4.2318C42.4691 2.79625 38.6273 2.55016 35.7425 2.72789L35.6878 0.950546C35.6468-0.0338293 34.9769-0.238907 34.2523 0.266952L30.0824 3.32945C29.4398 3.78062 29.4671 4.43687 30.1097 4.8607L34.43 7.77281C35.223 8.265 35.8792 7.99156 35.8656 7.02086Z" fill="black" fill-opacity="0.85"/>
 </g>
</svg>
