<?xml version="1.0" encoding="UTF-8"?>
<!--Generator: Apple Native CoreSVG 326-->
<!DOCTYPE svg
PUBLIC "-//W3C//DTD SVG 1.1//EN"
       "http://www.w3.org/Graphics/SVG/1.1/DTD/svg11.dtd">
<svg version="1.1" xmlns="http://www.w3.org/2000/svg" xmlns:xlink="http://www.w3.org/1999/xlink" viewBox="0 0 47.6479 35.8956">
 <g>
  <rect height="35.8956" opacity="0" width="47.6479" x="0" y="0"/>
  <path d="M11.8816 26.8687L14.4656 25.7339L13.7273 24.107L11.3757 25.1324C10.7058 25.4332 10.2546 25.3101 9.94017 24.7496L9.27025 23.5875C8.31322 21.9468 8.87377 20.3199 10.8425 18.6109L16.3523 13.8804C16.8171 13.4703 17.1589 13.1558 17.3777 12.7183L21.0144 5.29449C21.5476 4.20074 19.948 3.40777 19.3738 4.56988L15.6003 12.2261L9.76244 17.23C7.00072 19.6089 6.26244 21.9468 7.72533 24.4898L8.44994 25.7613C9.28392 27.1968 10.3367 27.5386 11.8816 26.8687ZM17.9656 25.9254C19.8796 24.8179 20.5085 22.4664 19.4011 20.5523C18.2937 18.6382 15.9421 17.9957 14.0281 19.1031C12.114 20.2105 11.4851 22.5757 12.5788 24.4898C13.6863 26.4039 16.0515 27.0328 17.9656 25.9254ZM17.1316 24.4761C16.0242 25.105 14.6706 24.7496 14.0281 23.6558C13.3992 22.5484 13.7683 21.1949 14.862 20.5523C15.9558 19.9234 17.323 20.2925 17.9519 21.3863C18.5945 22.48 18.2253 23.8472 17.1316 24.4761ZM19.1413 22.4527L35.698 12.8961L34.8093 11.3511L18.2527 20.9078ZM39.2117 13.6617C41.1257 12.5543 41.7546 10.2027 40.6472 8.28863C39.5398 6.37457 37.1882 5.73199 35.2742 6.83941C33.3601 7.94683 32.7175 10.3121 33.8249 12.2261C34.9324 14.1402 37.2976 14.7691 39.2117 13.6617ZM38.364 12.2125C37.2703 12.8414 35.9031 12.4859 35.2742 11.3785C34.6453 10.2847 35.0144 8.91754 36.1081 8.28863C37.2019 7.65973 38.5691 8.02887 39.198 9.12262C39.8269 10.2164 39.4714 11.5836 38.364 12.2125ZM40.4968 9.81988L42.0691 8.67144C43.8054 7.41363 44.1199 5.86871 43.0124 3.95465L42.0417 2.28668C40.7292 0.0171469 39.3347-0.447697 36.9285 0.386288L30.6941 2.53277C30.0788 2.75152 29.532 3.01129 29.0261 3.35308L15.6687 12.1851L16.1335 14.0171L30.2839 4.65191L37.571 2.13629C38.9792 1.6441 39.7722 1.91754 40.4968 3.17535L41.4675 4.84332C42.0281 5.82769 41.8913 6.62066 41.0027 7.26324L39.5945 8.27496Z" fill="black" fill-opacity="0.85"/>
  <path d="M6.15306 28.5367L3.29564 23.5601C2.81713 22.7125 1.84642 22.9312 1.57299 23.7515L0.069079 27.9625C-0.135999 28.5504 0.123766 29.0152 0.739001 29.1246L5.12767 29.9312C5.989 30.1089 6.64525 29.3707 6.15306 28.5367ZM8.5183 35.2359C8.84642 35.7828 9.51634 35.9605 10.0222 35.6597L46.7449 14.482C47.2507 14.1949 47.4421 13.5113 47.155 13.0054C46.8269 12.4586 46.1433 12.2808 45.6511 12.5816L8.91478 33.7593C8.42259 34.0601 8.23119 34.7437 8.5183 35.2359Z" fill="black" fill-opacity="0.85"/>
 </g>
</svg>
