<?xml version="1.0" encoding="UTF-8"?>
<!--Generator: Apple Native CoreSVG 326-->
<!DOCTYPE svg
PUBLIC "-//W3C//DTD SVG 1.1//EN"
       "http://www.w3.org/Graphics/SVG/1.1/DTD/svg11.dtd">
<svg version="1.1" xmlns="http://www.w3.org/2000/svg" xmlns:xlink="http://www.w3.org/1999/xlink" viewBox="0 0 44.0312 33.8722">
 <g>
  <rect height="33.8722" opacity="0" width="44.0312" x="0" y="0"/>
  <path d="M4.39937 33.1441C4.71382 33.691 5.39742 33.8687 5.88961 33.5816L41.3818 13.1011C41.874 12.8004 42.0654 12.1304 41.7783 11.6246C41.4638 11.0777 40.7666 10.9 40.2744 11.1871L4.79586 31.6675C4.29 31.9683 4.09859 32.6382 4.39937 33.1441ZM11.8095 25.4468C13.4228 24.5171 13.956 22.5211 13.0263 20.9078C12.0966 19.2945 10.1005 18.7613 8.48726 19.691C6.86031 20.6207 6.32711 22.6168 7.25679 24.23C8.18648 25.8433 10.1826 26.3765 11.8095 25.4468ZM31.5244 14.0582C33.1377 13.1285 33.6709 11.1324 32.7412 9.5191C31.8115 7.90582 29.8154 7.37262 28.2021 8.31598C26.5752 9.24566 26.0419 11.2418 26.9716 12.8414C27.9013 14.4683 29.8974 15.0015 31.5244 14.0582ZM23.7041 2.53277C23.0888 2.75152 22.5419 3.01129 22.0361 3.35308L11.5498 10.3668L14.0244 5.29449C14.5576 4.20074 12.958 3.40777 12.3837 4.56988L8.61031 12.2261L2.78609 17.23C0.010699 19.6089-0.727582 21.9468 0.735308 24.4898L1.47359 25.7613C2.30757 27.1968 3.34664 27.5386 4.89156 26.8687L6.94234 25.9937C6.68257 25.7203 6.34078 25.2144 6.1357 24.8726C4.85054 22.6578 5.6025 19.8687 7.83101 18.5699C10.0732 17.2847 12.8623 18.0367 14.1337 20.2515C14.2978 20.5386 14.4619 20.8668 14.5302 21.0855L26.3974 14.2222C26.2197 14.0445 26.0146 13.7711 25.8505 13.4976C24.5791 11.2691 25.3173 8.48004 27.5459 7.19488C29.788 5.89605 32.6865 6.83941 33.9716 9.06793C34.04 9.19098 34.0673 9.24566 34.122 9.36871L35.0791 8.67144C36.8154 7.41363 37.1298 5.86871 36.0224 3.95465L35.0654 2.28668C33.7529 0.0171469 32.3584-0.447697 29.9384 0.386288Z" fill="black" fill-opacity="0.85"/>
  <path d="M26.7666 33.7593C27.2451 33.7593 27.5595 33.4586 27.5595 32.9664L27.5595 30.0132L29.665 30.0132L29.665 32.9664C29.665 33.4586 29.9658 33.7593 30.458 33.7593C30.9365 33.7593 31.2509 33.4586 31.2509 32.9664L31.2509 25.8707C31.2509 25.3921 30.9365 25.0914 30.458 25.0914C29.9658 25.0914 29.665 25.3921 29.665 25.8707L29.665 28.7007L27.5595 28.7007L27.5595 25.8707C27.5595 25.3921 27.2451 25.0914 26.7666 25.0914C26.3017 25.0914 26.0009 25.3921 26.0009 25.8707L26.0009 32.9664C26.0009 33.4586 26.3017 33.7593 26.7666 33.7593ZM33.1787 33.7593L34.6962 33.7593C36.9248 33.7593 37.6767 31.6129 37.6767 29.398C37.6767 26.9781 36.8154 25.0914 34.6962 25.0914L33.1787 25.0914C32.7138 25.0914 32.3857 25.3511 32.3857 25.9117L32.3857 32.939C32.3857 33.4996 32.7138 33.7593 33.1787 33.7593ZM33.9306 32.4468L33.9306 26.4039L34.5048 26.4039C35.831 26.4039 36.0771 28.0718 36.0771 29.398C36.0771 30.7515 35.872 32.4468 34.5048 32.4468ZM41.2724 33.8277C42.1474 33.8277 42.7763 33.4175 43.1865 32.775C43.4599 32.3648 43.6787 31.7359 43.6787 31.2711C43.6787 30.8336 43.3779 30.5601 42.9404 30.5601C42.5986 30.5601 42.3252 30.8062 42.2431 31.189C42.0927 31.982 41.8466 32.4605 41.2314 32.4605C40.4794 32.4605 40.0419 31.3941 40.0419 29.4254C40.0419 27.4293 40.5478 26.3629 41.2314 26.3629C41.7919 26.3629 42.1201 26.9234 42.2158 27.6343C42.2841 28.0582 42.5712 28.3043 42.9814 28.3043C43.3916 28.3043 43.6377 28.0171 43.6377 27.5796C43.6377 27.0601 43.3916 26.3082 42.9267 25.7886C42.5029 25.2964 41.8877 25.0093 41.2177 25.0093C40.0283 25.0093 39.3037 25.775 38.9209 26.6636C38.538 27.5113 38.4423 28.4683 38.4423 29.4254C38.4423 30.5191 38.5517 31.5855 39.0439 32.4879C39.5361 33.3765 40.2744 33.8277 41.2724 33.8277Z" fill="black" fill-opacity="0.85"/>
 </g>
</svg>
