<?xml version="1.0" encoding="UTF-8"?>
<!--Generator: Apple Native CoreSVG 326-->
<!DOCTYPE svg
PUBLIC "-//W3C//DTD SVG 1.1//EN"
       "http://www.w3.org/Graphics/SVG/1.1/DTD/svg11.dtd">
<svg version="1.1" xmlns="http://www.w3.org/2000/svg" xmlns:xlink="http://www.w3.org/1999/xlink" viewBox="0 0 50.75 32.9288">
 <g>
  <rect height="32.9288" opacity="0" width="50.75" x="0" y="0"/>
  <path d="M15.3535 23.731C15.3535 26.0279 13.5488 27.8326 11.2383 27.8326C8.94141 27.8326 7.13672 26.0279 7.13672 23.731C7.13672 21.4341 8.94141 19.6295 11.2383 19.6295C13.5488 19.6295 15.3535 21.4341 15.3535 23.731ZM43.4629 23.731C43.4629 26.0279 41.6582 27.8326 39.3477 27.8326C37.0371 27.8326 35.2324 26.0279 35.2324 23.731C35.2324 21.4341 37.0371 19.6295 39.3477 19.6295C41.6582 19.6295 43.4629 21.4341 43.4629 23.731ZM26.0586 7.65289L20.2754 11.5494L35.8203 10.5377C36.5723 10.4693 37.3105 10.5377 38.1035 10.688L46.1016 12.233C49.2051 12.8345 50.3945 14.188 50.3945 17.4283L50.3945 19.8072C50.3945 22.5279 49.123 23.9908 46.4844 24.2642L45.0352 24.4146C45.0488 24.2505 45.0488 24.1822 45.0488 24.0045C45.0488 20.8326 42.5332 18.0435 39.3477 18.0435C36.1621 18.0435 33.6465 20.5591 33.6465 23.731C33.6465 24.1412 33.6875 24.5513 33.7832 24.8521L16.8438 24.8521C16.9121 24.5787 16.9395 24.1275 16.9395 23.731C16.9395 20.5591 14.4238 18.0435 11.2383 18.0435C8.05273 18.0435 5.53711 20.5591 5.53711 23.731C5.53711 24.2095 5.60547 24.9752 5.71484 25.4127L2.98047 25.0845C0.916016 24.8521 0 23.8404 0 21.7896L0 19.9712C0 16.3619 2.22852 14.3111 6.67188 13.4771L15.9824 11.7271L24.7461 5.87555C26.0859 4.9732 27.3027 6.8189 26.0586 7.65289ZM24.4863 15.2271L21.6426 19.8892C21.2598 20.5045 21.5605 21.0787 22.2715 21.0787L28.123 21.0787C28.8203 21.0787 29.1348 20.5181 28.7656 19.9029L25.8945 15.2271C25.5527 14.6529 24.8418 14.6392 24.4863 15.2271Z" fill="black" fill-opacity="0.85"/>
  <path d="M28.916 27.6138L25.9355 32.4673C25.5664 33.0689 24.8281 33.0962 24.459 32.4673L21.4922 27.6138C21.0957 26.9712 21.4102 26.3697 22.1621 26.3697L28.2461 26.3697C28.9707 26.3697 29.3125 26.9712 28.916 27.6138Z" fill="black" fill-opacity="0.85"/>
 </g>
</svg>
