<?xml version="1.0" encoding="UTF-8"?>
<!--Generator: Apple Native CoreSVG 326-->
<!DOCTYPE svg
PUBLIC "-//W3C//DTD SVG 1.1//EN"
       "http://www.w3.org/Graphics/SVG/1.1/DTD/svg11.dtd">
<svg version="1.1" xmlns="http://www.w3.org/2000/svg" xmlns:xlink="http://www.w3.org/1999/xlink" viewBox="0 0 33.3457 26.8652">
 <g>
  <rect height="26.8652" opacity="0" width="33.3457" x="0" y="0"/>
  <path d="M4.07422 26.8652L28.916 26.8652C31.623 26.8652 32.9902 25.4844 32.9902 22.832L32.9902 4.04688C32.9902 1.39453 31.623 0.0136719 28.916 0.0136719L4.07422 0.0136719C1.38086 0.0136719 0 1.39453 0 4.04688L0 22.832C0 25.4844 1.38086 26.8652 4.07422 26.8652ZM8.4082 12.373C6.08398 12.373 4.18359 10.459 4.18359 8.13477C4.18359 5.81055 6.08398 3.89648 8.4082 3.89648C10.7461 3.89648 12.6465 5.81055 12.6465 8.13477C12.6465 10.459 10.7461 12.373 8.4082 12.373ZM19.3457 12.373C17.0078 12.373 15.1074 10.459 15.1074 8.13477C15.1074 5.81055 17.0078 3.89648 19.3457 3.89648C21.6836 3.89648 23.5703 5.81055 23.5703 8.13477C23.5703 10.459 21.6836 12.373 19.3457 12.373ZM8.4082 22.9414C6.08398 22.9414 4.18359 21.041 4.18359 18.7031C4.18359 16.3789 6.08398 14.4785 8.4082 14.4785C10.7461 14.4785 12.6465 16.3789 12.6465 18.7031C12.6465 21.041 10.7461 22.9414 8.4082 22.9414ZM19.3457 22.9414C17.0078 22.9414 15.1074 21.041 15.1074 18.7031C15.1074 16.3789 17.0078 14.4785 19.3457 14.4785C21.6836 14.4785 23.5703 16.3789 23.5703 18.7031C23.5703 21.041 21.6836 22.9414 19.3457 22.9414ZM28.041 8.58594C27.3438 8.58594 26.7969 8.03906 26.7969 7.3418C26.7969 6.67188 27.3438 6.11133 28.041 6.11133C28.7246 6.11133 29.2715 6.67188 29.2715 7.3418C29.2715 8.03906 28.7246 8.58594 28.041 8.58594ZM28.041 12.6328C27.3438 12.6328 26.7969 12.0996 26.7969 11.3887C26.7969 10.7188 27.3438 10.1582 28.041 10.1582C28.7246 10.1582 29.2715 10.7188 29.2715 11.3887C29.2715 12.0996 28.7246 12.6328 28.041 12.6328ZM28.041 16.707C27.3438 16.707 26.7969 16.1465 26.7969 15.4629C26.7969 14.7656 27.3438 14.2324 28.041 14.2324C28.7246 14.2324 29.2715 14.7656 29.2715 15.4629C29.2715 16.1465 28.7246 16.707 28.041 16.707ZM28.041 20.7539C27.3438 20.7539 26.7969 20.1934 26.7969 19.5098C26.7969 18.8262 27.3438 18.2793 28.041 18.2793C28.7246 18.2793 29.2715 18.8262 29.2715 19.5098C29.2715 20.1934 28.7246 20.7539 28.041 20.7539ZM8.4082 11.0195C10.0078 11.0195 11.3066 9.73438 11.3066 8.13477C11.3066 6.53516 10.0078 5.25 8.4082 5.25C6.82227 5.25 5.53711 6.53516 5.53711 8.13477C5.53711 9.73438 6.82227 11.0195 8.4082 11.0195ZM8.4082 10.3633C7.17773 10.3633 6.20703 9.39258 6.20703 8.13477C6.20703 6.87695 7.17773 5.91992 8.4082 5.91992C9.66602 5.91992 10.623 6.87695 10.623 8.13477C10.623 9.39258 9.66602 10.3633 8.4082 10.3633ZM19.3457 11.0195C20.9453 11.0195 22.2305 9.73438 22.2305 8.13477C22.2305 6.53516 20.9453 5.25 19.3457 5.25C17.7598 5.25 16.4609 6.53516 16.4609 8.13477C16.4609 9.73438 17.7598 11.0195 19.3457 11.0195ZM19.3457 10.3633C18.0879 10.3633 17.1172 9.39258 17.1172 8.13477C17.1172 6.87695 18.0879 5.91992 19.3457 5.91992C20.5898 5.91992 21.5605 6.87695 21.5605 8.13477C21.5605 9.39258 20.5898 10.3633 19.3457 10.3633ZM8.4082 21.5879C10.0078 21.5879 11.3066 20.3164 11.3066 18.7031C11.3066 17.1035 10.0078 15.832 8.4082 15.832C6.82227 15.832 5.53711 17.1035 5.53711 18.7031C5.53711 20.3164 6.82227 21.5879 8.4082 21.5879ZM8.4082 20.9316C7.17773 20.9316 6.20703 19.9609 6.20703 18.7031C6.20703 17.459 7.17773 16.4883 8.4082 16.4883C9.66602 16.4883 10.623 17.459 10.623 18.7031C10.623 19.9609 9.66602 20.9316 8.4082 20.9316ZM19.3457 21.5879C20.9453 21.5879 22.2305 20.3164 22.2305 18.7031C22.2305 17.1035 20.9453 15.832 19.3457 15.832C17.7598 15.832 16.4609 17.1035 16.4609 18.7031C16.4609 20.3164 17.7598 21.5879 19.3457 21.5879ZM19.3457 20.9316C18.0879 20.9316 17.1172 19.9609 17.1172 18.7031C17.1172 17.459 18.0879 16.4883 19.3457 16.4883C20.5898 16.4883 21.5605 17.459 21.5605 18.7031C21.5605 19.9609 20.5898 20.9316 19.3457 20.9316Z" fill="black" fill-opacity="0.85"/>
 </g>
</svg>
