<?xml version="1.0" encoding="UTF-8"?>
<!--Generator: Apple Native CoreSVG 326-->
<!DOCTYPE svg
PUBLIC "-//W3C//DTD SVG 1.1//EN"
       "http://www.w3.org/Graphics/SVG/1.1/DTD/svg11.dtd">
<svg version="1.1" xmlns="http://www.w3.org/2000/svg" xmlns:xlink="http://www.w3.org/1999/xlink" viewBox="0 0 27.8633 27.5215">
 <g>
  <rect height="27.5215" opacity="0" width="27.8633" x="0" y="0"/>
  <path d="M0 18.293C0 18.9492 0.4375 19.4004 1.09375 19.4004L2.50195 19.4004L2.50195 23.9395C2.50195 24.5957 2.93945 25.0195 3.5957 25.0195L8.12109 25.0195L8.12109 26.4277C8.12109 27.084 8.57227 27.5215 9.22852 27.5215C9.88477 27.5215 10.3223 27.084 10.3223 26.4277L10.3223 25.0195L12.6602 25.0195L12.6602 26.4277C12.6602 27.084 13.0977 27.5215 13.7539 27.5215C14.4102 27.5215 14.8613 27.084 14.8613 26.4277L14.8613 25.0195L17.1855 25.0195L17.1855 26.4277C17.1855 27.084 17.623 27.5215 18.2793 27.5215C18.9492 27.5215 19.3867 27.084 19.3867 26.4277L19.3867 25.0195L23.9121 25.0195C24.5684 25.0195 25.0059 24.5957 25.0059 23.9395L25.0059 19.3867L26.4141 19.3867C27.0703 19.3867 27.5078 18.9355 27.5078 18.2793C27.5078 17.623 27.0703 17.1855 26.4141 17.1855L25.0059 17.1855L25.0059 14.8477L26.4141 14.8477C27.0703 14.8477 27.5078 14.4102 27.5078 13.7539C27.5078 13.0977 27.0703 12.6465 26.4141 12.6465L25.0059 12.6465L25.0059 10.3223L26.4141 10.3223C27.0703 10.3223 27.5078 9.87109 27.5078 9.21484C27.5078 8.55859 27.0703 8.12109 26.4141 8.12109L25.0059 8.12109L25.0059 3.60938C25.0059 2.95312 24.5684 2.51562 23.9121 2.51562L19.3867 2.51562L19.3867 1.12109C19.3867 0.464844 18.9492 0.0136719 18.2793 0.0136719C17.623 0.0136719 17.1855 0.464844 17.1855 1.12109L17.1855 2.51562L14.8613 2.51562L14.8613 1.12109C14.8613 0.464844 14.4102 0.0136719 13.7539 0.0136719C13.0977 0.0136719 12.6602 0.464844 12.6602 1.12109L12.6602 2.51562L10.3223 2.51562L10.3223 1.12109C10.3223 0.464844 9.88477 0.0136719 9.22852 0.0136719C8.57227 0.0136719 8.12109 0.464844 8.12109 1.12109L8.12109 2.51562L3.5957 2.51562C2.93945 2.51562 2.50195 2.95312 2.50195 3.60938L2.50195 8.13477L1.09375 8.13477C0.4375 8.13477 0 8.57227 0 9.22852C0 9.88477 0.4375 10.3359 1.09375 10.3359L2.50195 10.3359L2.50195 12.6602L1.09375 12.6602C0.4375 12.6602 0 13.1113 0 13.7676C0 14.4238 0.4375 14.8613 1.09375 14.8613L2.50195 14.8613L2.50195 17.1992L1.09375 17.1992C0.4375 17.1992 0 17.6367 0 18.293ZM8.53125 20.084C7.80664 20.084 7.45117 19.7422 7.45117 18.9902L7.45117 8.54492C7.45117 7.80664 7.80664 7.46484 8.53125 7.46484L19.0039 7.46484C19.7285 7.46484 20.0703 7.80664 20.0703 8.54492L20.0703 18.9902C20.0703 19.7422 19.7285 20.084 19.0039 20.084ZM9.31055 17.8828C9.31055 18.0879 9.44727 18.2246 9.65234 18.2246L17.8691 18.2246C18.0879 18.2246 18.2109 18.0879 18.2109 17.8828L18.2109 9.66602C18.2109 9.44727 18.0879 9.32422 17.8691 9.32422L9.65234 9.32422C9.44727 9.32422 9.31055 9.44727 9.31055 9.66602Z" fill="black" fill-opacity="0.85"/>
 </g>
</svg>
