<?xml version="1.0" encoding="UTF-8"?>
<!--Generator: Apple Native CoreSVG 326-->
<!DOCTYPE svg
PUBLIC "-//W3C//DTD SVG 1.1//EN"
       "http://www.w3.org/Graphics/SVG/1.1/DTD/svg11.dtd">
<svg version="1.1" xmlns="http://www.w3.org/2000/svg" xmlns:xlink="http://www.w3.org/1999/xlink" viewBox="0 0 27.125 26.7832">
 <g>
  <rect height="26.7832" opacity="0" width="27.125" x="0" y="0"/>
  <path d="M1.09375 8.72266C1.81836 8.72266 2.20117 8.3125 2.20117 7.60156L2.20117 4.375C2.20117 2.95312 2.95312 2.22852 4.32031 2.22852L7.62891 2.22852C8.35352 2.22852 8.75 1.83203 8.75 1.12109C8.75 0.410156 8.35352 0.0273438 7.62891 0.0273438L4.29297 0.0273438C1.43555 0.0273438 0 1.43555 0 4.25195L0 7.60156C0 8.3125 0.396484 8.72266 1.09375 8.72266ZM25.6621 8.72266C26.3867 8.72266 26.7695 8.3125 26.7695 7.60156L26.7695 4.25195C26.7695 1.43555 25.334 0.0273438 22.4766 0.0273438L19.127 0.0273438C18.416 0.0273438 18.0195 0.410156 18.0195 1.12109C18.0195 1.83203 18.416 2.22852 19.127 2.22852L22.4355 2.22852C23.7891 2.22852 24.5684 2.95312 24.5684 4.375L24.5684 7.60156C24.5684 8.3125 24.9648 8.72266 25.6621 8.72266ZM4.29297 26.7832L7.62891 26.7832C8.35352 26.7832 8.75 26.3867 8.75 25.6895C8.75 24.9785 8.35352 24.582 7.62891 24.582L4.32031 24.582C2.95312 24.582 2.20117 23.8574 2.20117 22.4355L2.20117 19.209C2.20117 18.4844 1.80469 18.0879 1.09375 18.0879C0.382812 18.0879 0 18.4844 0 19.209L0 22.5449C0 25.375 1.43555 26.7832 4.29297 26.7832ZM19.127 26.7832L22.4766 26.7832C25.334 26.7832 26.7695 25.3613 26.7695 22.5449L26.7695 19.209C26.7695 18.4844 26.373 18.0879 25.6621 18.0879C24.9512 18.0879 24.5684 18.4844 24.5684 19.209L24.5684 22.4355C24.5684 23.8574 23.7891 24.582 22.4355 24.582L19.127 24.582C18.416 24.582 18.0195 24.9785 18.0195 25.6895C18.0195 26.3867 18.416 26.7832 19.127 26.7832Z" fill="black" fill-opacity="0.85"/>
  <path d="M7.68359 19.0723L19.0996 19.0723C20.4805 19.0723 21.1777 18.3887 21.1777 17.0215L21.1777 11.9355L5.60547 11.9355L5.60547 17.0215C5.60547 18.3887 6.30273 19.0723 7.68359 19.0723ZM8.32617 17.0215C7.94336 17.0215 7.68359 16.7617 7.68359 16.3789L7.68359 15.1621C7.68359 14.7793 7.94336 14.5195 8.32617 14.5195L9.93945 14.5195C10.3223 14.5195 10.5957 14.7793 10.5957 15.1621L10.5957 16.3789C10.5957 16.7617 10.3223 17.0215 9.93945 17.0215ZM5.60547 10.418L21.1777 10.418L21.1777 9.81641C21.1777 8.44922 20.4805 7.76562 19.0996 7.76562L7.68359 7.76562C6.30273 7.76562 5.60547 8.44922 5.60547 9.81641Z" fill="black" fill-opacity="0.85"/>
 </g>
</svg>
