<?xml version="1.0" encoding="UTF-8"?>
<!--Generator: Apple Native CoreSVG 326-->
<!DOCTYPE svg
PUBLIC "-//W3C//DTD SVG 1.1//EN"
       "http://www.w3.org/Graphics/SVG/1.1/DTD/svg11.dtd">
<svg version="1.1" xmlns="http://www.w3.org/2000/svg" xmlns:xlink="http://www.w3.org/1999/xlink" viewBox="0 0 32.4844 23.3652">
 <g>
  <rect height="23.3652" opacity="0" width="32.4844" x="0" y="0"/>
  <path d="M6.13867 18.5801L9.48828 18.5801C10.2949 18.5801 10.8281 18.0332 10.8281 17.2676L10.8281 14.7383C10.8281 13.959 10.2949 13.4258 9.48828 13.4258L6.13867 13.4258C5.33203 13.4258 4.79883 13.959 4.79883 14.7383L4.79883 17.2676C4.79883 18.0332 5.33203 18.5801 6.13867 18.5801ZM1.10742 8.55859L31.0352 8.55859L31.0352 5.45508L1.10742 5.45508ZM4.29297 23.3652L27.8359 23.3652C30.707 23.3652 32.1289 21.957 32.1289 19.1406L32.1289 4.25195C32.1289 1.43555 30.707 0.0136719 27.8359 0.0136719L4.29297 0.0136719C1.43555 0.0136719 0 1.43555 0 4.25195L0 19.1406C0 21.957 1.43555 23.3652 4.29297 23.3652ZM4.32031 21.1641C2.95312 21.1641 2.20117 20.4395 2.20117 19.0176L2.20117 4.375C2.20117 2.95312 2.95312 2.21484 4.32031 2.21484L27.8086 2.21484C29.1484 2.21484 29.9277 2.95312 29.9277 4.375L29.9277 19.0176C29.9277 20.4395 29.1484 21.1641 27.8086 21.1641Z" fill="black" fill-opacity="0.85"/>
 </g>
</svg>
