<?xml version="1.0" encoding="UTF-8"?>
<!--Generator: Apple Native CoreSVG 326-->
<!DOCTYPE svg
PUBLIC "-//W3C//DTD SVG 1.1//EN"
       "http://www.w3.org/Graphics/SVG/1.1/DTD/svg11.dtd">
<svg version="1.1" xmlns="http://www.w3.org/2000/svg" xmlns:xlink="http://www.w3.org/1999/xlink" viewBox="0 0 28.2461 27.9043">
 <g>
  <rect height="27.9043" opacity="0" width="28.2461" x="0" y="0"/>
  <path d="M13.9453 27.8906C21.6426 27.8906 27.8906 21.6289 27.8906 13.9453C27.8906 6.24805 21.6426 0 13.9453 0C6.26172 0 0 6.24805 0 13.9453C0 21.6289 6.26172 27.8906 13.9453 27.8906Z" fill="black" fill-opacity="0.85"/>
  <path d="M18.1426 7.73828C18.3887 7.88867 18.6211 8.08008 18.8535 8.27148L8.24414 18.8535C8.03906 18.6348 7.86133 18.416 7.71094 18.1562L9.13281 16.7344C9.33789 16.543 9.32422 16.2559 9.13281 16.0645C8.94141 15.8867 8.66797 15.8867 8.49023 16.0645L7.20508 17.3086C6.68555 16.2969 6.38477 15.1621 6.38477 13.959C6.38477 9.84375 9.81641 6.39844 13.9316 6.39844C15.1348 6.39844 16.2832 6.71289 17.3086 7.23242L16.0508 8.49023C15.8867 8.68164 15.873 8.95508 16.0508 9.13281C16.2559 9.33789 16.5293 9.33789 16.707 9.13281ZM15.5723 10.2812C15.7637 10.0898 15.7637 9.81641 15.5723 9.625C15.3945 9.44727 15.1074 9.44727 14.9297 9.625L13.918 10.6367C13.7129 10.8418 13.7129 11.1289 13.918 11.293C14.0957 11.4707 14.3691 11.4707 14.5469 11.293ZM13.4395 12.4141C13.6035 12.25 13.6035 11.9492 13.4395 11.7852C13.248 11.5801 12.9609 11.5801 12.7832 11.7852L11.7578 12.7969C11.5801 12.9883 11.5801 13.2617 11.7578 13.4668C11.9219 13.6309 12.2363 13.6309 12.4004 13.4668ZM11.2793 14.5605C11.4434 14.3828 11.457 14.1094 11.2793 13.9316C11.1016 13.7266 10.8281 13.7266 10.623 13.9316L9.61133 14.9434C9.43359 15.1211 9.43359 15.4219 9.61133 15.5859C9.80273 15.7773 10.0898 15.791 10.2676 15.5859ZM20.6582 10.5957C21.1777 11.6074 21.4922 12.7559 21.4922 13.959C21.4922 18.0742 18.0469 21.5195 13.9316 21.5195C12.7285 21.5195 11.5938 21.2051 10.5684 20.6855L11.8398 19.3867C12.0176 19.209 12.0176 18.9355 11.8398 18.7441C11.6484 18.5527 11.375 18.5527 11.1836 18.7441L9.7207 20.1797C9.47461 20.0156 9.24219 19.8379 9.03711 19.6465L19.6191 9.05078C19.8242 9.2832 20.002 9.51562 20.166 9.76172L18.7715 11.1562C18.5664 11.334 18.5664 11.6211 18.7715 11.8125C18.9492 12.0039 19.2227 12.0039 19.4141 11.8125ZM18.2793 12.9473C18.457 12.7695 18.457 12.4688 18.2793 12.2773C18.0879 12.1133 17.8008 12.0996 17.623 12.2773L16.6113 13.3301C16.4473 13.5078 16.4336 13.7812 16.6113 13.959C16.8027 14.1641 17.0625 14.1641 17.2676 13.959ZM16.1191 15.0938C16.3242 14.916 16.3242 14.6289 16.1191 14.4375C15.9551 14.2734 15.6543 14.2734 15.4902 14.4375L14.4375 15.4629C14.2734 15.6406 14.2734 15.9551 14.4375 16.1191C14.6426 16.2969 14.916 16.2969 15.1074 16.1191ZM13.9727 17.2539C14.1641 17.0488 14.1641 16.7617 13.9727 16.5977C13.7949 16.4199 13.5215 16.4199 13.3438 16.5977L12.332 17.6094C12.127 17.8008 12.127 18.0742 12.332 18.2656C12.4824 18.4434 12.7832 18.4434 12.9609 18.2656Z" fill="white"/>
 </g>
</svg>
