<?xml version="1.0" encoding="UTF-8"?>
<!--Generator: Apple Native CoreSVG 326-->
<!DOCTYPE svg
PUBLIC "-//W3C//DTD SVG 1.1//EN"
       "http://www.w3.org/Graphics/SVG/1.1/DTD/svg11.dtd">
<svg version="1.1" xmlns="http://www.w3.org/2000/svg" xmlns:xlink="http://www.w3.org/1999/xlink" viewBox="0 0 27.1113 33.3114">
 <g>
  <rect height="33.3114" opacity="0" width="27.1113" x="0" y="0"/>
  <path d="M25.0879 10.7016C25.498 10.7016 25.8535 10.3325 25.8535 9.90863L25.8535 8.24066C25.8535 4.78167 23.5703 2.49847 20.1113 2.49847L19.8652 2.49847L19.8652 0.885188C19.8652-0.0308274 19.1816-0.235906 18.498 0.269954L15.3809 2.55316C14.875 2.93597 14.8613 3.3598 15.3809 3.75628L18.498 6.02581C19.1816 6.53167 19.8652 6.31292 19.8652 5.43792L19.8652 3.93402L20.0977 3.93402C22.627 3.93402 24.2949 5.65667 24.2949 8.24066L24.2949 9.90863C24.2949 10.3325 24.6641 10.7016 25.0879 10.7016ZM1.75 22.5961C1.33984 22.5961 0.984375 22.9653 0.984375 23.3891L0.984375 25.0571C0.984375 28.516 3.26758 30.7993 6.72656 30.7993L6.97266 30.7993L6.97266 32.4125C6.97266 33.3285 7.65625 33.52 8.33984 33.0141L11.457 30.7446C11.9629 30.3618 11.9766 29.9243 11.457 29.5414L8.33984 27.2719C7.65625 26.766 6.97266 26.9848 6.97266 27.8461L6.97266 29.3637L6.74023 29.3637C4.21094 29.3637 2.54297 27.641 2.54297 25.0434L2.54297 23.3891C2.54297 22.9653 2.17383 22.5961 1.75 22.5961Z" fill="black" fill-opacity="0.85"/>
  <path d="M26.7559 21.8852C26.7559 21.2563 26.3184 20.8461 25.6758 20.8461L9.57031 20.8461C9.2832 20.8461 9.17383 20.7504 9.17383 20.4496L9.17383 4.48089C9.17383 3.7973 8.73633 3.33245 8.08008 3.33245C7.41016 3.33245 6.97266 3.7973 6.97266 4.48089L6.97266 21.8305C6.97266 22.4868 7.39648 22.9106 8.06641 22.9106L25.6758 22.9106C26.3184 22.9106 26.7559 22.5004 26.7559 21.8852ZM0 11.3305C0 11.9457 0.4375 12.3559 1.06641 12.3559L17.2676 12.3559C17.5547 12.3559 17.6641 12.4653 17.6641 12.7524L17.6641 28.8168C17.6641 29.5004 18.1016 29.9653 18.7578 29.9653C19.4277 29.9653 19.8652 29.5004 19.8652 28.8168L19.8652 11.3852C19.8652 10.7289 19.4277 10.2914 18.7715 10.2914L1.06641 10.2914C0.4375 10.2914 0 10.7153 0 11.3305Z" fill="black" fill-opacity="0.85"/>
 </g>
</svg>
