<?xml version="1.0" encoding="UTF-8"?>
<!--Generator: Apple Native CoreSVG 326-->
<!DOCTYPE svg
PUBLIC "-//W3C//DTD SVG 1.1//EN"
       "http://www.w3.org/Graphics/SVG/1.1/DTD/svg11.dtd">
<svg version="1.1" xmlns="http://www.w3.org/2000/svg" xmlns:xlink="http://www.w3.org/1999/xlink" viewBox="0 0 30.3379 30.7754">
 <g>
  <rect height="30.7754" opacity="0" width="30.3379" x="0" y="0"/>
  <path d="M29.9824 23.1738C29.9824 22.5312 29.5586 22.1348 28.8887 22.1348L9.17383 22.1348C8.87305 22.1348 8.77734 22.0391 8.77734 21.7383L8.77734 2.02344C8.77734 1.33984 8.33984 0.875 7.66992 0.875C7.01367 0.875 6.57617 1.33984 6.57617 2.02344L6.57617 23.1191C6.57617 23.7754 7 24.1992 7.65625 24.1992L28.8887 24.1992C29.5586 24.1992 29.9824 23.8027 29.9824 23.1738ZM0 8.47656C0 9.13281 0.423828 9.51562 1.08008 9.51562L20.8086 9.51562C21.1094 9.51562 21.2051 9.625 21.2051 9.91211L21.2051 29.627C21.2051 30.3105 21.6426 30.7754 22.2988 30.7754C22.9688 30.7754 23.4062 30.3105 23.4062 29.627L23.4062 8.54492C23.4062 7.88867 22.9824 7.45117 22.3262 7.45117L1.08008 7.45117C0.423828 7.45117 0 7.84766 0 8.47656Z" fill="black" fill-opacity="0.85"/>
 </g>
</svg>
