<?xml version="1.0" encoding="UTF-8"?>
<!--Generator: Apple Native CoreSVG 326-->
<!DOCTYPE svg
PUBLIC "-//W3C//DTD SVG 1.1//EN"
       "http://www.w3.org/Graphics/SVG/1.1/DTD/svg11.dtd">
<svg version="1.1" xmlns="http://www.w3.org/2000/svg" xmlns:xlink="http://www.w3.org/1999/xlink" viewBox="0 0 28.7656 28.4238">
 <g>
  <rect height="28.4238" opacity="0" width="28.7656" x="0" y="0"/>
  <path d="M0 16.9258C0 18.498 1.08008 19.5508 2.66602 19.5508L8.8457 19.5508L8.8457 25.7441C8.8457 27.3301 9.89844 28.3965 11.4707 28.3965L16.9395 28.3965C18.5117 28.3965 19.5645 27.3301 19.5645 25.7441L19.5645 19.5508L25.7578 19.5508C27.3438 19.5508 28.4102 18.498 28.4102 16.9258L28.4102 11.457C28.4102 9.88477 27.3438 8.83203 25.7578 8.83203L19.5645 8.83203L19.5645 2.65234C19.5645 1.06641 18.5117 0 16.9395 0L11.4707 0C9.89844 0 8.8457 1.06641 8.8457 2.65234L8.8457 8.83203L2.65234 8.83203C1.06641 8.83203 0 9.88477 0 11.457Z" fill="#ff3b30"/>
 </g>
</svg>
