<?xml version="1.0" encoding="UTF-8"?>
<!--Generator: Apple Native CoreSVG 326-->
<!DOCTYPE svg
PUBLIC "-//W3C//DTD SVG 1.1//EN"
       "http://www.w3.org/Graphics/SVG/1.1/DTD/svg11.dtd">
<svg version="1.1" xmlns="http://www.w3.org/2000/svg" xmlns:xlink="http://www.w3.org/1999/xlink" viewBox="0 0 30.8848 29.1895">
 <g>
  <rect height="29.1895" opacity="0" width="30.8848" x="0" y="0"/>
  <path d="M1.81836 27.5898L28.7109 27.5898L28.7109 25.9766C28.7109 25.4297 28.3965 25.1016 27.8359 25.1016L26.9609 25.1016L26.9609 9.37891L28.1641 9.37891C28.916 9.37891 29.3535 8.83203 29.3535 8.27148C29.3535 7.86133 29.1211 7.50586 28.6152 7.21875L16.9395 0.478516C16.3926 0.164062 15.8184 0 15.2578 0C14.6973 0 14.1094 0.164062 13.5898 0.478516L1.91406 7.21875C1.39453 7.50586 1.17578 7.86133 1.17578 8.27148C1.17578 8.83203 1.61328 9.37891 2.36523 9.37891L3.56836 9.37891L3.56836 25.1016L2.70703 25.1016C2.14648 25.1016 1.81836 25.4297 1.81836 25.9766ZM1.09375 29.1758L29.4219 29.1758C30.0234 29.1758 30.5293 28.6699 30.5293 28.0684C30.5293 27.4668 30.0234 26.9746 29.4219 26.9746L1.09375 26.9746C0.492188 26.9746 0 27.4668 0 28.0684C0 28.6699 0.492188 29.1758 1.09375 29.1758Z" fill="black" fill-opacity="0.85"/>
  <path d="M15.3398 21.957C11.6895 21.957 9.80273 19.1543 9.80273 15.6406C9.80273 12.0039 11.8535 9.35156 15.3398 9.35156C17.418 9.35156 19.2773 10.4453 19.9473 12.2637C20.0293 12.4824 20.0703 12.7285 20.0703 12.8926C20.0703 13.3301 19.7285 13.6172 19.3047 13.6172C18.8945 13.6172 18.6758 13.3848 18.5254 12.9746C18.1016 11.6621 16.8301 10.8145 15.3535 10.8145C12.7695 10.8145 11.5527 13.0703 11.5527 15.6406C11.5527 17.9238 12.4824 20.0293 14.5605 20.4531L14.5605 15.6543C14.5605 15.3535 14.7383 15.1621 15.0391 15.1621C15.3125 15.1621 15.5039 15.3535 15.5039 15.6543L15.5039 16.707L15.5312 16.707C15.8184 15.8184 16.6934 15.1348 17.7734 15.1348C18.0332 15.1348 18.3613 15.1895 18.5391 15.3125C18.7168 15.4082 18.8262 15.5859 18.8262 15.7773C18.8262 16.1055 18.6211 16.2422 18.334 16.2422C18.2109 16.2422 18.0195 16.1875 17.7871 16.1875C16.4609 16.1875 15.5176 17.0898 15.5176 18.4297L15.5176 20.5352C16.8984 20.4805 18.1562 19.7832 18.6074 18.375C18.7441 17.9785 18.9766 17.7461 19.4141 17.7461C19.8652 17.7461 20.166 18.0059 20.166 18.457C20.166 18.6758 20.1523 18.8535 20.0566 19.0723C19.4277 20.9316 17.4863 21.957 15.3398 21.957Z" fill="white"/>
 </g>
</svg>
