<?xml version="1.0" encoding="UTF-8"?>
<!--Generator: Apple Native CoreSVG 326-->
<!DOCTYPE svg
PUBLIC "-//W3C//DTD SVG 1.1//EN"
       "http://www.w3.org/Graphics/SVG/1.1/DTD/svg11.dtd">
<svg version="1.1" xmlns="http://www.w3.org/2000/svg" xmlns:xlink="http://www.w3.org/1999/xlink" viewBox="0 0 33.291 27.3099">
 <g>
  <rect height="27.3099" opacity="0" width="33.291" x="0" y="0"/>
  <path d="M32.9355 16.3962C32.9355 7.78289 26.3184 0.714533 17.8965 0.00359537C17.459-0.0374203 17.1309 0.277033 17.1309 0.714533L17.1309 5.18524C17.1309 5.55438 17.3906 5.84149 17.7598 5.86883C22.9961 6.51141 27.0703 10.9821 27.0703 16.3962C27.0703 18.8571 26.2227 21.1266 24.7324 23.027C24.541 23.2595 24.5547 23.5602 24.7598 23.779L28.0273 27.0329C28.3281 27.3337 28.793 27.3337 29.0664 27.0055C31.4863 24.1345 32.9355 20.4294 32.9355 16.3962Z" fill="black" fill-opacity="0.85"/>
  <path d="M0 16.3962C0 20.443 1.44922 24.1481 3.86914 27.0192C4.14258 27.3473 4.59375 27.3337 4.9082 27.0329L8.17578 23.779C8.38086 23.5602 8.39453 23.2595 8.20312 23.027C6.69922 21.1266 5.86523 18.8571 5.86523 16.3962C5.86523 10.9821 9.93945 6.51141 15.1758 5.86883C15.5449 5.84149 15.8047 5.55438 15.8047 5.18524L15.8047 0.714533C15.8047 0.277033 15.4766-0.0374203 15.0391 0.00359537C6.61719 0.714533 0 7.78289 0 16.3962Z" fill="black" fill-opacity="0.85"/>
  <path d="M16.502 22.7399C18.5801 22.7399 20.4668 21.7282 21.082 19.9372C21.1641 19.7321 21.1914 19.5407 21.1914 19.3356C21.1914 18.8981 20.9043 18.652 20.4531 18.652C20.0293 18.652 19.8105 18.8845 19.6875 19.2673C19.2363 20.6891 17.9102 21.3591 16.5156 21.3591C13.9727 21.3591 12.8242 19.1032 12.8242 16.6149C12.8242 14.113 14.0137 11.9255 16.5156 11.9255C17.9512 11.9255 19.1953 12.7458 19.6055 14.0173C19.7422 14.4274 19.9473 14.6462 20.3438 14.6462C20.7676 14.6462 21.0957 14.3591 21.0957 13.9489C21.0957 13.7985 21.0547 13.5524 20.9727 13.3473C20.3301 11.5837 18.5254 10.5173 16.502 10.5173C13.125 10.5173 11.1562 13.0876 11.1562 16.6149C11.1562 20.0192 12.9609 22.7399 16.502 22.7399ZM15.75 22.029L16.6934 22.029L16.6934 19.322C16.6934 18.0231 17.5957 17.1481 18.8945 17.1481C19.0996 17.1481 19.3047 17.2028 19.4141 17.2028C19.7012 17.2028 19.8789 17.0661 19.8789 16.7516C19.8789 16.5602 19.7832 16.3962 19.6055 16.2868C19.4414 16.1774 19.1133 16.1227 18.8672 16.1227C17.8145 16.1227 16.9805 16.779 16.707 17.654L16.666 17.654L16.666 16.6286C16.666 16.3415 16.4883 16.1364 16.2148 16.1364C15.9414 16.1364 15.75 16.3415 15.75 16.6286Z" fill="black" fill-opacity="0.85"/>
 </g>
</svg>
