<?xml version="1.0" encoding="UTF-8"?>
<!--Generator: Apple Native CoreSVG 326-->
<!DOCTYPE svg
PUBLIC "-//W3C//DTD SVG 1.1//EN"
       "http://www.w3.org/Graphics/SVG/1.1/DTD/svg11.dtd">
<svg version="1.1" xmlns="http://www.w3.org/2000/svg" xmlns:xlink="http://www.w3.org/1999/xlink" viewBox="0 0 25.5254 25.1699">
 <g>
  <rect height="25.1699" opacity="0" width="25.5254" x="0" y="0"/>
  <path d="M4.29297 25.1699L20.877 25.1699C23.748 25.1699 25.1699 23.7617 25.1699 20.9453L25.1699 4.23828C25.1699 1.42188 23.748 0 20.877 0L4.29297 0C1.43555 0 0 1.42188 0 4.23828L0 20.9453C0 23.7617 1.43555 25.1699 4.29297 25.1699Z" fill="black" fill-opacity="0.85"/>
  <path d="M12.6602 18.9355C9.00977 18.9355 7.13672 16.1191 7.13672 12.6191C7.13672 8.96875 9.17383 6.31641 12.6602 6.31641C14.7383 6.31641 16.5977 7.41016 17.2676 9.22852C17.3496 9.46094 17.4043 9.69336 17.4043 9.85742C17.4043 10.2949 17.0625 10.582 16.625 10.582C16.2148 10.582 15.9961 10.3633 15.8594 9.93945C15.4355 8.62695 14.1504 7.7793 12.6738 7.7793C10.0898 7.7793 8.87305 10.0352 8.87305 12.6191C8.87305 14.9023 9.80273 17.0078 11.8809 17.418L11.8809 12.6191C11.8809 12.332 12.0723 12.127 12.3594 12.127C12.6465 12.127 12.8242 12.332 12.8242 12.6191L12.8242 13.6855L12.8516 13.6855C13.1387 12.7832 14.0137 12.1133 15.0938 12.1133C15.3535 12.1133 15.6816 12.1543 15.8594 12.2773C16.0371 12.3867 16.1465 12.5645 16.1465 12.7422C16.1465 13.084 15.9551 13.207 15.6543 13.207C15.5449 13.207 15.3398 13.1523 15.1074 13.1523C13.7812 13.1523 12.8379 14.0684 12.8379 15.3945L12.8379 17.5C14.2188 17.459 15.4766 16.748 15.9277 15.3535C16.0645 14.9434 16.2969 14.7109 16.7344 14.7109C17.1855 14.7109 17.4863 14.9707 17.4863 15.4219C17.4863 15.6406 17.4727 15.8184 17.3906 16.0371C16.748 17.8965 14.8066 18.9355 12.6602 18.9355Z" fill="white"/>
 </g>
</svg>
