<?xml version="1.0" encoding="UTF-8"?>
<!--Generator: Apple Native CoreSVG 326-->
<!DOCTYPE svg
PUBLIC "-//W3C//DTD SVG 1.1//EN"
       "http://www.w3.org/Graphics/SVG/1.1/DTD/svg11.dtd">
<svg version="1.1" xmlns="http://www.w3.org/2000/svg" xmlns:xlink="http://www.w3.org/1999/xlink" viewBox="0 0 29.8594 29.387">
 <g>
  <rect height="29.387" opacity="0" width="29.8594" x="0" y="0"/>
  <path d="M6.57617 11.05L6.58272 11.2238C3.88415 11.8354 2.20117 12.8753 2.20117 14.0851C2.20117 16.0128 6.53516 17.5168 12.4414 17.5168C18.334 17.5168 22.668 16.0128 22.668 14.0851C22.668 12.6538 20.3123 11.4603 16.7087 10.9342C16.7174 10.2489 17.247 9.62865 17.696 8.88462C22.1229 9.69887 24.8589 11.5902 24.8679 14.0715C27.7569 14.2076 29.5039 15.8341 29.5039 18.4464C29.5039 21.1945 27.6035 22.8488 24.459 22.8488L23.5781 22.8488C21.7146 26.675 17.9438 29.0695 13.0703 29.0695L11.7988 29.0695C4.74414 29.0695 0 24.0656 0 16.9425L1.88101e-08 14.0851C0 11.5677 2.81099 9.65547 7.33885 8.85333C6.95262 9.46893 6.57617 10.1507 6.57617 11.05ZM11.7988 26.8683L13.0703 26.8683C18.7231 26.8683 22.4275 23.0996 22.6458 17.4928C20.5031 18.8889 16.9067 19.7179 12.4414 19.7179C7.97276 19.7179 4.36923 18.8876 2.22307 17.4897C2.43895 23.1105 6.13134 26.8683 11.7988 26.8683ZM24.8691 16.9425C24.8691 18.2555 24.7073 19.4971 24.3969 20.6476L24.459 20.6476C26.25 20.6476 27.3027 19.8136 27.3027 18.4464C27.3027 17.1876 26.4103 16.3925 24.8691 16.2761ZM10.9063 10.6789C9.90043 10.7213 8.95781 10.8126 8.09445 10.9456C8.09882 10.1697 8.77252 9.47826 9.24627 8.59805C10.0798 8.50767 10.9666 8.45711 11.9001 8.44913C11.4989 9.09091 11.0127 9.77021 10.9063 10.6789ZM16.0839 8.64446C15.6992 9.2493 15.2818 9.90335 15.2048 10.7608C14.3377 10.6805 13.4106 10.6398 12.4414 10.6398C12.4408 10.6398 12.4402 10.6398 12.4397 10.6398C12.5899 9.94327 13.2105 9.28768 13.6253 8.46161C14.4873 8.48795 15.309 8.54923 16.0839 8.64446Z" fill="black" fill-opacity="0.85"/>
  <path d="M9.70703 6.94839C9.70703 5.15738 8.09375 4.15933 8.09375 2.92886C8.09375 2.24527 8.27148 1.87613 8.73633 1.24722C9.37891 0.372219 8.16211-0.502781 7.50586 0.344875C6.84961 1.16519 6.57617 1.91714 6.57617 2.83316C6.57617 4.69253 8.16211 5.60855 8.16211 6.94839C8.16211 8.27456 6.57617 9.20425 6.57617 11.05C6.57617 11.9933 6.84961 12.7453 7.49219 13.5519C8.14844 14.3859 9.37891 13.5109 8.72266 12.6359C8.27148 12.0343 8.09375 11.6652 8.09375 10.9543C8.09375 9.75113 9.70703 8.75308 9.70703 6.94839ZM14.0137 6.94839C14.0137 5.15738 12.4004 4.15933 12.4004 2.92886C12.4004 2.24527 12.5781 1.87613 13.043 1.24722C13.6855 0.372219 12.4688-0.502781 11.8125 0.344875C11.1562 1.16519 10.8828 1.91714 10.8828 2.83316C10.8828 4.69253 12.4688 5.60855 12.4688 6.94839C12.4688 8.27456 10.8828 9.20425 10.8828 11.05C10.8828 11.9933 11.1562 12.7453 11.7988 13.5519C12.4551 14.3859 13.6855 13.5109 13.0293 12.6359C12.5781 12.0343 12.4004 11.6652 12.4004 10.9543C12.4004 9.75113 14.0137 8.75308 14.0137 6.94839ZM18.3203 6.94839C18.3203 5.15738 16.707 4.15933 16.707 2.92886C16.707 2.24527 16.8848 1.87613 17.3496 1.24722C17.9922 0.372219 16.7754-0.502781 16.1191 0.344875C15.4629 1.16519 15.1895 1.91714 15.1895 2.83316C15.1895 4.69253 16.7754 5.60855 16.7754 6.94839C16.7754 8.27456 15.1895 9.20425 15.1895 11.05C15.1895 11.9933 15.4629 12.7453 16.1055 13.5519C16.7617 14.3859 17.9922 13.5109 17.3359 12.6359C16.8848 12.0343 16.707 11.6652 16.707 10.9543C16.707 9.75113 18.3203 8.75308 18.3203 6.94839Z" fill="black" fill-opacity="0.85"/>
 </g>
</svg>
