<?xml version="1.0" encoding="UTF-8"?>
<!--Generator: Apple Native CoreSVG 326-->
<!DOCTYPE svg
PUBLIC "-//W3C//DTD SVG 1.1//EN"
       "http://www.w3.org/Graphics/SVG/1.1/DTD/svg11.dtd">
<svg version="1.1" xmlns="http://www.w3.org/2000/svg" xmlns:xlink="http://www.w3.org/1999/xlink" viewBox="0 0 33.291 27.4395">
 <g>
  <rect height="27.4395" opacity="0" width="33.291" x="0" y="0"/>
  <path d="M32.9355 16.4609C32.9355 12.4414 31.4863 8.73633 29.0664 5.86523C28.793 5.53711 28.3281 5.53711 28.0273 5.85156L24.8555 9.02344C24.5957 9.2832 24.582 9.65234 24.8145 9.93945C26.2227 11.7441 27.0703 14.0137 27.0703 16.4609C27.0703 18.9219 26.2227 21.1914 24.7324 23.0918C24.541 23.3242 24.5547 23.625 24.7598 23.8438L28.0137 27.0977C28.3281 27.4121 28.7793 27.4121 29.0664 27.0703C31.4863 24.1992 32.9355 20.4941 32.9355 16.4609Z" fill="black" fill-opacity="0.85"/>
  <path d="M16.4609 5.86523C18.9355 5.86523 21.2051 6.72656 23.0234 8.13477C23.2969 8.35352 23.6523 8.32617 23.9121 8.06641L27.084 4.89453C27.3984 4.58008 27.3848 4.12891 27.0566 3.85547C24.1992 1.44922 20.4941 0 16.4609 0C12.4414 0 8.73633 1.44922 5.87891 3.85547C5.55078 4.12891 5.53711 4.58008 5.85156 4.89453L9.02344 8.06641C9.2832 8.32617 9.65234 8.35352 9.95312 8.12109C11.7578 6.72656 14.0137 5.86523 16.4609 5.86523Z" fill="black" fill-opacity="0.85"/>
  <path d="M0 16.4609C0 20.4941 1.44922 24.1992 3.86914 27.0703C4.14258 27.4121 4.60742 27.4121 4.9082 27.0977L8.16211 23.8438C8.36719 23.625 8.39453 23.3242 8.20312 23.0918C6.71289 21.1914 5.86523 18.9219 5.86523 16.4609C5.86523 14.0137 6.69922 11.7441 8.12109 9.93945C8.33984 9.65234 8.33984 9.2832 8.08008 9.02344L4.9082 5.85156C4.59375 5.53711 4.14258 5.53711 3.86914 5.86523C1.44922 8.73633 0 12.4414 0 16.4609Z" fill="black" fill-opacity="0.85"/>
  <path d="M11.293 22.2441C11.7305 22.2441 12.0312 21.9297 12.0312 21.4512L12.0312 19.1406L12.8379 18.3613L15.3398 21.8613C15.5039 22.0938 15.7227 22.2441 16.0098 22.2441C16.4062 22.2441 16.7344 21.957 16.7344 21.5742C16.7344 21.3828 16.6387 21.2188 16.5156 21.041L13.9043 17.4316L16.3379 14.875C16.5156 14.6699 16.6113 14.5605 16.6113 14.3281C16.6113 13.9727 16.3242 13.6719 15.9414 13.6719C15.7363 13.6719 15.4902 13.8086 15.3535 13.959L12.0723 17.5547L12.0312 17.5547L12.0312 11.252C12.0312 10.7734 11.7305 10.4453 11.293 10.4453C10.8418 10.4453 10.5273 10.7598 10.5273 11.2383L10.5273 21.4512C10.5273 21.9297 10.8418 22.2441 11.293 22.2441ZM18.9902 22.2441C19.332 22.2441 19.7148 22.0391 19.7148 21.4512L19.7148 17.1719C19.7148 16.1875 20.084 15.1211 21.2598 15.1211C21.5332 15.1211 21.8066 15.0801 22.0117 14.957C22.1895 14.8613 22.2988 14.6973 22.2988 14.4512C22.2988 13.9453 21.916 13.6719 21.4102 13.6719C20.5352 13.6719 19.9336 14.4375 19.7285 15.3125L19.6465 15.3125L19.6465 14.4375C19.6465 14 19.3457 13.6719 18.9629 13.6719C18.5664 13.6719 18.2656 14 18.2656 14.4375L18.2656 21.4512C18.2656 21.9297 18.5254 22.2441 18.9902 22.2441ZM22.6953 22.0801C23.2559 22.0801 23.666 21.6836 23.666 21.123C23.666 20.5625 23.2559 20.1523 22.6953 20.1523C22.1211 20.1523 21.7246 20.5625 21.7246 21.123C21.7246 21.6836 22.1211 22.0801 22.6953 22.0801Z" fill="black" fill-opacity="0.85"/>
 </g>
</svg>
