<?xml version="1.0" encoding="UTF-8"?>
<!--Generator: Apple Native CoreSVG 326-->
<!DOCTYPE svg
PUBLIC "-//W3C//DTD SVG 1.1//EN"
       "http://www.w3.org/Graphics/SVG/1.1/DTD/svg11.dtd">
<svg version="1.1" xmlns="http://www.w3.org/2000/svg" xmlns:xlink="http://www.w3.org/1999/xlink" viewBox="0 0 30.8848 29.1895">
 <g>
  <rect height="29.1895" opacity="0" width="30.8848" x="0" y="0"/>
  <path d="M1.81836 25.9219L28.7109 25.9219L28.7109 25.0059C28.7109 24.459 28.3965 24.1309 27.8359 24.1309L26.9609 24.1309L26.9609 9.37891L28.1641 9.37891C28.916 9.37891 29.3535 8.83203 29.3535 8.27148C29.3535 7.86133 29.1211 7.50586 28.6152 7.21875L16.9395 0.478516C16.3926 0.164062 15.8184 0 15.2578 0C14.6973 0 14.1094 0.164062 13.5898 0.478516L1.91406 7.21875C1.39453 7.50586 1.17578 7.86133 1.17578 8.27148C1.17578 8.83203 1.61328 9.37891 2.36523 9.37891L3.56836 9.37891L3.56836 24.1309L2.70703 24.1309C2.14648 24.1309 1.81836 24.459 1.81836 25.0059ZM5.63281 24.1309L5.63281 7.62891L14.7246 2.5293C14.8887 2.43359 15.0801 2.37891 15.2578 2.37891C15.4355 2.37891 15.627 2.43359 15.8047 2.5293L24.8965 7.62891L24.8965 24.1309ZM1.09375 29.1758L29.4219 29.1758C30.0234 29.1758 30.5293 28.6699 30.5293 28.0684C30.5293 27.4668 30.0234 26.9746 29.4219 26.9746L1.09375 26.9746C0.492188 26.9746 0 27.4668 0 28.0684C0 28.6699 0.492188 29.1758 1.09375 29.1758Z" fill="black" fill-opacity="0.85"/>
  <path d="M10.5273 19.5508C10.9375 19.5508 11.2109 19.2637 11.2109 18.8262L11.2109 16.6934L11.9492 15.9688L14.2598 19.1953C14.4102 19.4141 14.6152 19.5508 14.875 19.5508C15.2441 19.5508 15.5449 19.291 15.5449 18.9355C15.5449 18.7578 15.4629 18.6074 15.3398 18.4434L12.9473 15.1211L15.1895 12.7559C15.3535 12.5781 15.4355 12.4824 15.4355 12.25C15.4355 11.9355 15.1621 11.6484 14.8203 11.6484C14.6152 11.6484 14.3965 11.7715 14.2734 11.9219L11.252 15.2305L11.2109 15.2305L11.2109 9.41992C11.2109 8.98242 10.9375 8.66797 10.5273 8.66797C10.1172 8.66797 9.83008 8.96875 9.83008 9.40625L9.83008 18.8262C9.83008 19.2637 10.1172 19.5508 10.5273 19.5508ZM17.623 19.5508C17.9375 19.5508 18.293 19.3594 18.293 18.8262L18.293 14.875C18.293 13.9727 18.6348 12.9883 19.7148 12.9883C19.9746 12.9883 20.2207 12.9609 20.4121 12.8379C20.5762 12.7559 20.6719 12.5918 20.6719 12.3594C20.6719 11.9082 20.3164 11.6484 19.8516 11.6484C19.0449 11.6484 18.4844 12.3457 18.3066 13.166L18.2246 13.166L18.2246 12.3457C18.2246 11.9629 17.9512 11.6484 17.5957 11.6484C17.2402 11.6484 16.9531 11.9629 16.9531 12.3457L16.9531 18.8262C16.9531 19.2637 17.1992 19.5508 17.623 19.5508ZM21.041 19.4004C21.5605 19.4004 21.9297 19.0312 21.9297 18.5254C21.9297 18.0059 21.5605 17.623 21.041 17.623C20.5215 17.623 20.1387 18.0059 20.1387 18.5254C20.1387 19.0312 20.5215 19.4004 21.041 19.4004Z" fill="black" fill-opacity="0.85"/>
 </g>
</svg>
