<?xml version="1.0" encoding="UTF-8"?>
<!--Generator: Apple Native CoreSVG 326-->
<!DOCTYPE svg
PUBLIC "-//W3C//DTD SVG 1.1//EN"
       "http://www.w3.org/Graphics/SVG/1.1/DTD/svg11.dtd">
<svg version="1.1" xmlns="http://www.w3.org/2000/svg" xmlns:xlink="http://www.w3.org/1999/xlink" viewBox="0 0 28.2461 27.9043">
 <g>
  <rect height="27.9043" opacity="0" width="28.2461" x="0" y="0"/>
  <path d="M13.9453 27.8906C21.6426 27.8906 27.8906 21.6289 27.8906 13.9453C27.8906 6.24805 21.6426 0 13.9453 0C6.26172 0 0 6.24805 0 13.9453C0 21.6289 6.26172 27.8906 13.9453 27.8906Z" fill="black" fill-opacity="0.85"/>
  <path d="M8.61328 19.7148C8.14844 19.7148 7.83398 19.3867 7.83398 18.8945L7.83398 8.36719C7.83398 7.875 8.14844 7.54688 8.61328 7.54688C9.07812 7.54688 9.39258 7.88867 9.39258 8.38086L9.39258 14.8613L9.43359 14.8613L12.8105 11.1836C12.9473 11.0059 13.1934 10.8828 13.4121 10.8828C13.7949 10.8828 14.1094 11.1973 14.1094 11.5527C14.1094 11.7988 14.0137 11.9219 13.8223 12.1133L11.3203 14.752L14.0137 18.4707C14.1367 18.6484 14.2188 18.8262 14.2188 19.0312C14.2188 19.4277 13.9043 19.7148 13.4805 19.7148C13.1797 19.7148 12.9609 19.5645 12.7969 19.3184L10.1992 15.7227L9.39258 16.5293L9.39258 18.8945C9.39258 19.3867 9.07812 19.7148 8.61328 19.7148ZM16.5703 19.7148C16.0781 19.7148 15.8184 19.4004 15.8184 18.8945L15.8184 11.6621C15.8184 11.2246 16.1191 10.8828 16.543 10.8828C16.9395 10.8828 17.2402 11.2246 17.2402 11.6621L17.2402 12.5781L17.3223 12.5781C17.5273 11.6621 18.1426 10.8828 19.0586 10.8828C19.5781 10.8828 19.9609 11.1699 19.9609 11.6758C19.9609 11.9219 19.8652 12.1133 19.6875 12.209C19.4688 12.3457 19.1953 12.373 18.8945 12.373C17.6914 12.373 17.2949 13.4805 17.2949 14.4785L17.2949 18.8945C17.2949 19.5098 16.8984 19.7148 16.5703 19.7148ZM20.3848 19.5508C19.7832 19.5508 19.373 19.127 19.373 18.5527C19.373 17.9648 19.7832 17.5547 20.3848 17.5547C20.959 17.5547 21.3691 17.9648 21.3691 18.5527C21.3691 19.127 20.959 19.5508 20.3848 19.5508Z" fill="white"/>
 </g>
</svg>
