<?xml version="1.0" encoding="UTF-8"?>
<!--Generator: Apple Native CoreSVG 326-->
<!DOCTYPE svg
PUBLIC "-//W3C//DTD SVG 1.1//EN"
       "http://www.w3.org/Graphics/SVG/1.1/DTD/svg11.dtd">
<svg version="1.1" xmlns="http://www.w3.org/2000/svg" xmlns:xlink="http://www.w3.org/1999/xlink" viewBox="0 0 30.3105 38.3223">
 <g>
  <rect height="38.3223" opacity="0" width="30.3105" x="0" y="0"/>
  <path d="M17.7051 7.20508C17.2812 8.13477 16.4746 9.76172 16.4746 11.6895C16.4746 15.668 19.3594 18.457 23.3926 18.457C24.0874 18.457 24.7476 18.3748 25.3613 18.2129L25.3613 28.6426C25.3613 30.9028 24.3994 32.2659 22.5039 32.6764L22.5039 34.1113C22.5039 34.7676 22.0664 35.2188 21.3965 35.2188C20.7402 35.2188 20.3027 34.7676 20.3027 34.1113L20.3027 32.8125L9.65234 32.8125L9.65234 34.1113C9.65234 34.7676 9.21484 35.2188 8.55859 35.2188C7.90234 35.2188 7.45117 34.7676 7.45117 34.1113L7.45117 32.6741C5.56073 32.2601 4.59375 30.898 4.59375 28.6426L4.59375 7.23242C4.59375 4.4707 6.05664 3.07617 8.81836 3.07617L19.9734 3.07617C19.1311 4.4572 18.2908 5.94864 17.7051 7.20508ZM9.0918 27.4805C8.59961 27.4805 8.20312 27.877 8.20312 28.3828C8.20312 28.875 8.59961 29.2715 9.0918 29.2715L13.1934 29.2715C13.6992 29.2715 14.0957 28.875 14.0957 28.3828C14.0957 27.877 13.6992 27.4805 13.1934 27.4805ZM16.7617 27.4805C16.2559 27.4805 15.8594 27.877 15.8594 28.3828C15.8594 28.875 16.2559 29.2715 16.7617 29.2715L20.8633 29.2715C21.3555 29.2715 21.752 28.875 21.752 28.3828C21.752 27.877 21.3555 27.4805 20.8633 27.4805ZM9.0918 23.9668C8.59961 23.9668 8.20312 24.3496 8.20312 24.8555C8.20312 25.3613 8.59961 25.7441 9.0918 25.7441L13.1934 25.7441C13.6992 25.7441 14.0957 25.3613 14.0957 24.8555C14.0957 24.3496 13.6992 23.9668 13.1934 23.9668ZM16.7617 23.9668C16.2559 23.9668 15.8594 24.3496 15.8594 24.8555C15.8594 25.3613 16.2559 25.7441 16.7617 25.7441L20.8633 25.7441C21.3555 25.7441 21.752 25.3613 21.752 24.8555C21.752 24.3496 21.3555 23.9668 20.8633 23.9668ZM9.0918 20.4395C8.59961 20.4395 8.20312 20.8359 8.20312 21.3281C8.20312 21.834 8.59961 22.2168 9.0918 22.2168L13.1934 22.2168C13.6992 22.2168 14.0957 21.834 14.0957 21.3281C14.0957 20.8359 13.6992 20.4395 13.1934 20.4395ZM16.7617 20.4395C16.2559 20.4395 15.8594 20.8359 15.8594 21.3281C15.8594 21.834 16.2559 22.2168 16.7617 22.2168L20.8633 22.2168C21.3555 22.2168 21.752 21.834 21.752 21.3281C21.752 20.8359 21.3555 20.4395 20.8633 20.4395ZM8.43555 9.05078C8.43555 10.1582 9.32422 11.0605 10.418 11.0605C11.5117 11.0605 12.4141 10.1582 12.4141 9.05078C12.4141 7.9707 11.5117 7.08203 10.418 7.08203C9.32422 7.08203 8.43555 7.9707 8.43555 9.05078Z" fill="black" fill-opacity="0.85"/>
  <path d="M23.3926 16.584C26.4141 16.584 28.4512 14.6289 28.4512 11.6895C28.4512 10.2266 27.8359 8.95508 27.3984 7.9707C26.5918 6.24805 25.293 4.08789 24.1582 2.35156C23.9258 2.02344 23.6934 1.87305 23.3926 1.87305C23.1055 1.87305 22.8594 2.02344 22.6406 2.35156C21.5059 4.08789 20.1934 6.24805 19.3867 7.9707C18.9629 8.95508 18.3477 10.2266 18.3477 11.6895C18.3477 14.6289 20.3711 16.584 23.3926 16.584Z" fill="black" fill-opacity="0.85"/>
 </g>
</svg>
