<?xml version="1.0" encoding="UTF-8"?>
<!--Generator: Apple Native CoreSVG 326-->
<!DOCTYPE svg
PUBLIC "-//W3C//DTD SVG 1.1//EN"
       "http://www.w3.org/Graphics/SVG/1.1/DTD/svg11.dtd">
<svg version="1.1" xmlns="http://www.w3.org/2000/svg" xmlns:xlink="http://www.w3.org/1999/xlink" viewBox="0 0 30.3105 38.3223">
 <g>
  <rect height="38.3223" opacity="0" width="30.3105" x="0" y="0"/>
  <path d="M18.6954 5.27734L8.8457 5.27734C7.56055 5.27734 6.79492 6.00195 6.79492 7.35547L6.79492 28.5332C6.79492 29.873 7.56055 30.6113 8.8457 30.6113L21.1094 30.6113C22.3945 30.6113 23.1602 29.873 23.1602 28.5332L23.1602 18.4469C23.2352 18.456 23.3137 18.457 23.3926 18.457C24.0874 18.457 24.7476 18.3748 25.3613 18.2129L25.3613 28.6426C25.3613 30.9028 24.3994 32.2659 22.5039 32.6764L22.5039 34.1113C22.5039 34.7676 22.0664 35.2188 21.3965 35.2188C20.7402 35.2188 20.3027 34.7676 20.3027 34.1113L20.3027 32.8125L9.65234 32.8125L9.65234 34.1113C9.65234 34.7676 9.21484 35.2188 8.55859 35.2188C7.90234 35.2188 7.45117 34.7676 7.45117 34.1113L7.45117 32.6741C5.56073 32.2601 4.59375 30.898 4.59375 28.6426L4.59375 7.23242C4.59375 4.4707 6.05664 3.07617 8.81836 3.07617L19.9734 3.07617C19.5338 3.79562 19.0948 4.54703 18.6954 5.27734ZM14.123 27.8086C14.123 28.2871 13.7402 28.6699 13.248 28.6699L9.26953 28.6699C8.79102 28.6699 8.4082 28.2871 8.4082 27.8086C8.4082 27.3164 8.79102 26.9336 9.26953 26.9336L13.248 26.9336C13.7402 26.9336 14.123 27.3164 14.123 27.8086ZM21.5469 27.8086C21.5469 28.2871 21.1641 28.6699 20.6855 28.6699L16.707 28.6699C16.2148 28.6699 15.832 28.2871 15.832 27.8086C15.832 27.3164 16.2148 26.9336 16.707 26.9336L20.6855 26.9336C21.1641 26.9336 21.5469 27.3164 21.5469 27.8086ZM14.123 24.3906C14.123 24.8828 13.7402 25.252 13.248 25.252L9.26953 25.252C8.79102 25.252 8.4082 24.8828 8.4082 24.3906C8.4082 23.8984 8.79102 23.5293 9.26953 23.5293L13.248 23.5293C13.7402 23.5293 14.123 23.8984 14.123 24.3906ZM21.5469 24.3906C21.5469 24.8828 21.1641 25.252 20.6855 25.252L16.707 25.252C16.2148 25.252 15.832 24.8828 15.832 24.3906C15.832 23.8984 16.2148 23.5293 16.707 23.5293L20.6855 23.5293C21.1641 23.5293 21.5469 23.8984 21.5469 24.3906ZM14.123 20.9727C14.123 21.4648 13.7402 21.834 13.248 21.834L9.26953 21.834C8.79102 21.834 8.4082 21.4648 8.4082 20.9727C8.4082 20.4941 8.79102 20.1113 9.26953 20.1113L13.248 20.1113C13.7402 20.1113 14.123 20.4941 14.123 20.9727ZM21.5469 20.9727C21.5469 21.4648 21.1641 21.834 20.6855 21.834L16.707 21.834C16.2148 21.834 15.832 21.4648 15.832 20.9727C15.832 20.4941 16.2148 20.1113 16.707 20.1113L20.6855 20.1113C21.1641 20.1113 21.5469 20.4941 21.5469 20.9727ZM12.3457 9.06445C12.3457 10.1309 11.4707 11.0059 10.418 11.0059C9.35156 11.0059 8.49023 10.1309 8.49023 9.06445C8.49023 8.01172 9.35156 7.15039 10.418 7.15039C11.4707 7.15039 12.3457 8.01172 12.3457 9.06445Z" fill="black" fill-opacity="0.85"/>
  <path d="M23.3926 16.584C26.4141 16.584 28.4512 14.6289 28.4512 11.6895C28.4512 10.2266 27.8359 8.95508 27.3984 7.9707C26.5918 6.24805 25.293 4.08789 24.1582 2.35156C23.9258 2.02344 23.6934 1.87305 23.3926 1.87305C23.1055 1.87305 22.8594 2.02344 22.6406 2.35156C21.5059 4.08789 20.1934 6.24805 19.3867 7.9707C18.9629 8.95508 18.3477 10.2266 18.3477 11.6895C18.3477 14.6289 20.3711 16.584 23.3926 16.584Z" fill="black" fill-opacity="0.85"/>
 </g>
</svg>
