<?xml version="1.0" encoding="UTF-8"?>
<!--Generator: Apple Native CoreSVG 326-->
<!DOCTYPE svg
PUBLIC "-//W3C//DTD SVG 1.1//EN"
       "http://www.w3.org/Graphics/SVG/1.1/DTD/svg11.dtd">
<svg version="1.1" xmlns="http://www.w3.org/2000/svg" xmlns:xlink="http://www.w3.org/1999/xlink" viewBox="0 0 30.6797 25.1973">
 <g>
  <rect height="25.1973" opacity="0" width="30.6797" x="0" y="0"/>
  <path d="M25.334 25.1973C28.1914 25.1973 29.627 23.7891 29.627 20.959L29.627 4.26562C29.627 1.43555 28.1914 0.0273438 25.334 0.0273438L13.4531 0.0273438C11.8535 0.0273438 10.4727 0.4375 9.35156 1.62695L1.29883 9.99414C0.410156 10.9102 0 11.7305 0 12.5918C0 13.4395 0.396484 14.2734 1.29883 15.1895L9.36523 23.5156C10.5 24.6914 11.8672 25.1836 13.4668 25.1836ZM25.3066 22.9961L13.4258 22.9961C12.3867 22.9961 11.7441 22.75 11.0195 22.0117L3.00781 13.7402C2.54297 13.2617 2.40625 12.9336 2.40625 12.5918C2.40625 12.2363 2.55664 11.9082 3.00781 11.4297L11.0059 3.13086C11.7168 2.40625 12.3867 2.22852 13.4121 2.22852L25.3066 2.22852C26.6738 2.22852 27.4258 2.95312 27.4258 4.375L27.4258 20.8496C27.4258 22.2715 26.6738 22.9961 25.3066 22.9961Z" fill="#ff3b30"/>
  <path d="M12.6602 18.3887C12.9609 18.3887 13.2344 18.2656 13.4395 18.0469L17.3223 14.1504L21.2051 18.0469C21.4102 18.252 21.6836 18.3887 21.998 18.3887C22.5996 18.3887 23.0918 17.8828 23.0918 17.2812C23.0918 16.9668 22.9688 16.707 22.7637 16.502L18.8809 12.6191L22.7773 8.70898C22.9961 8.47656 23.1055 8.24414 23.1055 7.94336C23.1055 7.32812 22.6133 6.84961 22.0117 6.84961C21.7246 6.84961 21.4785 6.94531 21.2461 7.17773L17.3223 11.0879L13.4121 7.19141C13.207 6.97266 12.9609 6.87695 12.6602 6.87695C12.0586 6.87695 11.5664 7.3418 11.5664 7.95703C11.5664 8.25781 11.6758 8.51758 11.8945 8.72266L15.7773 12.6191L11.8945 16.5156C11.6758 16.707 11.5664 16.9805 11.5664 17.2812C11.5664 17.8828 12.0586 18.3887 12.6602 18.3887Z" fill="#ff3b30"/>
 </g>
</svg>
