<?xml version="1.0" encoding="UTF-8"?>
<!--Generator: Apple Native CoreSVG 326-->
<!DOCTYPE svg
PUBLIC "-//W3C//DTD SVG 1.1//EN"
       "http://www.w3.org/Graphics/SVG/1.1/DTD/svg11.dtd">
<svg version="1.1" xmlns="http://www.w3.org/2000/svg" xmlns:xlink="http://www.w3.org/1999/xlink" viewBox="0 0 29.9688 25.1973">
 <g>
  <rect height="25.1973" opacity="0" width="29.9688" x="0" y="0"/>
  <path d="M4.63477 25.1973L16.502 25.1836C18.1016 25.1836 19.4824 24.6914 20.6035 23.5156L28.6699 15.1895C29.5723 14.2734 29.9688 13.4395 29.9688 12.5918C29.9688 11.7305 29.5723 10.9102 28.6699 9.99414L20.6172 1.62695C19.4961 0.4375 18.1152 0.0273438 16.5156 0.0273438L4.63477 0.0273438C1.79102 0.0273438 0.341797 1.43555 0.341797 4.26562L0.341797 20.959C0.341797 23.7891 1.79102 25.1973 4.63477 25.1973ZM4.67578 22.9961C3.30859 22.9961 2.54297 22.2715 2.54297 20.8496L2.54297 4.375C2.54297 2.95312 3.30859 2.22852 4.67578 2.22852L16.5566 2.22852C17.582 2.22852 18.2656 2.40625 18.9629 3.13086L26.9609 11.4297C27.4121 11.9082 27.5762 12.2363 27.5762 12.5918C27.5762 12.9336 27.4258 13.2617 26.9609 13.7402L18.9492 22.0117C18.2383 22.75 17.582 22.9961 16.543 22.9961Z" fill="#ff3b30"/>
  <path d="M7.99805 18.3887C8.3125 18.3887 8.58594 18.2656 8.79102 18.0469L12.6602 14.1504L16.5566 18.0469C16.7617 18.252 17.0215 18.3887 17.3359 18.3887C17.9512 18.3887 18.4297 17.8828 18.4297 17.2812C18.4297 16.9668 18.3203 16.707 18.1016 16.502L14.2188 12.6191L18.1152 8.70898C18.3477 8.47656 18.4434 8.24414 18.4434 7.94336C18.4434 7.32812 17.9648 6.84961 17.3496 6.84961C17.0625 6.84961 16.8301 6.94531 16.5977 7.17773L12.6602 11.0879L8.76367 7.19141C8.55859 6.97266 8.3125 6.87695 7.99805 6.87695C7.39648 6.87695 6.9043 7.3418 6.9043 7.95703C6.9043 8.25781 7.02734 8.51758 7.23242 8.72266L11.1152 12.6191L7.23242 16.5156C7.02734 16.707 6.9043 16.9805 6.9043 17.2812C6.9043 17.8828 7.39648 18.3887 7.99805 18.3887Z" fill="#ff3b30"/>
 </g>
</svg>
