<?xml version="1.0" encoding="UTF-8"?>
<!--Generator: Apple Native CoreSVG 326-->
<!DOCTYPE svg
PUBLIC "-//W3C//DTD SVG 1.1//EN"
       "http://www.w3.org/Graphics/SVG/1.1/DTD/svg11.dtd">
<svg version="1.1" xmlns="http://www.w3.org/2000/svg" xmlns:xlink="http://www.w3.org/1999/xlink" viewBox="0 0 28.2461 28.2598">
 <g>
  <rect height="28.2598" opacity="0" width="28.2461" x="0" y="0"/>
  <path d="M0.164062 21.6973L0.164062 25.8398C0.164062 27.4941 0.957031 28.2598 2.63867 28.2598L7.01367 28.2598C4.01953 26.8105 1.79102 24.6504 0.164062 21.6973ZM27.7812 21.6973C26.1543 24.6504 23.9258 26.8105 20.9453 28.2598L25.3066 28.2598C26.9883 28.2598 27.7812 27.4941 27.7812 25.8398ZM13.9453 28.0684C21.6426 28.0684 27.8906 21.8203 27.8906 14.123C27.8906 6.42578 21.6426 0.177734 13.9453 0.177734C6.24805 0.177734 0 6.42578 0 14.123C0 21.8203 6.24805 28.0684 13.9453 28.0684ZM13.9453 25.7441C7.51953 25.7441 2.32422 20.5488 2.32422 14.123C2.32422 7.69727 7.51953 2.50195 13.9453 2.50195C20.3711 2.50195 25.5664 7.69727 25.5664 14.123C25.5664 20.5488 20.3711 25.7441 13.9453 25.7441Z" fill="black" fill-opacity="0.85"/>
  <path d="M9.25586 10.7734L13.3164 14.834C13.6992 15.2305 14.2871 15.2168 14.6699 14.834L20.9043 8.59961C21.2871 8.23047 21.3008 7.62891 20.9043 7.25977C20.5078 6.89062 19.9473 6.87695 19.5645 7.25977L13.9863 12.8379L10.6094 9.43359C10.2129 9.05078 9.63867 9.05078 9.25586 9.43359C8.88672 9.80273 8.87305 10.3906 9.25586 10.7734Z" fill="black" fill-opacity="0.85"/>
 </g>
</svg>
