<?xml version="1.0" encoding="UTF-8"?>
<!--Generator: Apple Native CoreSVG 326-->
<!DOCTYPE svg
PUBLIC "-//W3C//DTD SVG 1.1//EN"
       "http://www.w3.org/Graphics/SVG/1.1/DTD/svg11.dtd">
<svg version="1.1" xmlns="http://www.w3.org/2000/svg" xmlns:xlink="http://www.w3.org/1999/xlink" viewBox="0 0 28.2461 28.2598">
 <g>
  <rect height="28.2598" opacity="0" width="28.2461" x="0" y="0"/>
  <path d="M6.98633 28.2598L2.61133 28.2598C0.929688 28.2598 0.136719 27.4941 0.136719 25.8398L0.136719 21.6973C1.76367 24.6367 3.99219 26.7969 6.98633 28.2598ZM27.7539 25.8398C27.7539 27.4941 26.9609 28.2598 25.2793 28.2598L20.918 28.2598C23.8984 26.7969 26.127 24.6367 27.7539 21.6973ZM27.8906 14.123C27.8906 21.8066 21.6426 28.0684 13.9453 28.0684C6.26172 28.0684 0 21.8066 0 14.123C0 6.42578 6.26172 0.177734 13.9453 0.177734C21.6426 0.177734 27.8906 6.42578 27.8906 14.123ZM19.6738 7.13672L13.9316 12.8789L10.4453 9.37891C10.0352 8.98242 9.44727 8.98242 9.05078 9.37891C8.66797 9.76172 8.6543 10.3633 9.05078 10.7598L13.2344 14.957C13.6309 15.3672 14.2461 15.3535 14.6426 14.957L21.0547 8.53125C21.4512 8.14844 21.4648 7.51953 21.0547 7.13672C20.6445 6.75391 20.0703 6.74023 19.6738 7.13672Z" fill="black" fill-opacity="0.85"/>
 </g>
</svg>
