<?xml version="1.0" encoding="UTF-8"?>
<!--Generator: Apple Native CoreSVG 326-->
<!DOCTYPE svg
PUBLIC "-//W3C//DTD SVG 1.1//EN"
       "http://www.w3.org/Graphics/SVG/1.1/DTD/svg11.dtd">
<svg version="1.1" xmlns="http://www.w3.org/2000/svg" xmlns:xlink="http://www.w3.org/1999/xlink" viewBox="0 0 31.3669 31.0251">
 <g>
  <rect height="31.0251" opacity="0" width="31.3669" x="0" y="0"/>
  <path d="M1.53307 12.4706C-0.49037 14.494-0.517714 16.4901 1.49205 18.4999L12.5116 29.5057C14.5213 31.5155 16.5174 31.5018 18.5409 29.4784L29.4784 18.5272C31.5018 16.5038 31.5155 14.5077 29.5194 12.4979L18.5135 1.49205C16.5038-0.517714 14.5077-0.49037 12.4842 1.53307ZM28.6307 15.5057L2.38072 15.5057C2.38072 14.9999 2.62682 14.494 3.11901 14.0018L14.0018 3.10533C14.9588 2.13463 16.0116 2.12096 17.0233 3.13268L27.8788 13.9881C28.3846 14.4803 28.6307 14.9999 28.6307 15.5057Z" fill="black" fill-opacity="0.85"/>
 </g>
</svg>
