<?xml version="1.0" encoding="UTF-8"?>
<!--Generator: Apple Native CoreSVG 326-->
<!DOCTYPE svg
PUBLIC "-//W3C//DTD SVG 1.1//EN"
       "http://www.w3.org/Graphics/SVG/1.1/DTD/svg11.dtd">
<svg version="1.1" xmlns="http://www.w3.org/2000/svg" xmlns:xlink="http://www.w3.org/1999/xlink" viewBox="0 0 28 37.6934">
 <g>
  <rect height="37.6934" opacity="0" width="28" x="0" y="0"/>
  <path d="M27.6445 25.5938C27.6445 31.3086 22.4219 33.7148 13.8223 33.7148C5.20898 33.7148 0 31.3086 0 25.5938L0 24.0352C0.943359 25.1289 2.31055 26.0312 4.0332 26.7148L4.0332 28.6973C4.0332 29.1895 4.44336 29.5859 4.93555 29.5859C5.42773 29.5859 5.82422 29.1895 5.82422 28.6973L5.82422 27.3301C6.58984 27.5488 7.38281 27.7266 8.23047 27.8633L8.23047 29.627C8.23047 30.1191 8.62695 30.5156 9.11914 30.5156C9.61133 30.5156 10.0215 30.1191 10.0215 29.627L10.0215 28.123C10.9102 28.2188 11.8535 28.2871 12.7559 28.3008L12.7559 29.9688C12.7559 30.4609 13.166 30.8711 13.6582 30.8711C14.1504 30.8711 14.5469 30.4609 14.5469 29.9688L14.5469 28.3145C15.3945 28.3008 16.4062 28.2324 17.2949 28.1504L17.2949 29.627C17.2949 30.1191 17.7051 30.5156 18.1973 30.5156C18.6895 30.5156 19.0859 30.1191 19.0859 29.627L19.0859 27.918C19.8516 27.7949 20.6992 27.6309 21.4922 27.4258L21.4922 28.6973C21.4922 29.1895 21.8887 29.5859 22.3809 29.5859C22.873 29.5859 23.2832 29.1895 23.2832 28.6973L23.2832 26.8379C25.1562 26.1406 26.6328 25.1973 27.6445 24.0352ZM27.2891 20.1387C27.2891 23.8848 21.9023 26.4414 13.8223 26.4414C5.74219 26.4414 0.355469 23.8848 0.355469 20.1387C0.355469 17.2997 3.44934 15.1438 8.46899 14.2691L11.5801 17.7734C12.7969 19.168 14.8203 19.1816 16.0508 17.7734L19.1624 14.2671C24.1899 15.1401 27.2891 17.2972 27.2891 20.1387Z" fill="black" fill-opacity="0.85"/>
  <path d="M14.6562 16.5293L18.3203 12.4004C19.0449 11.5938 18.6348 10.4316 17.4727 10.4316L14.998 10.4316L14.998 3.03516C14.998 2.37891 14.4785 1.87305 13.8359 1.87305C13.166 1.87305 12.6602 2.37891 12.6602 3.03516L12.6602 10.4316L10.1582 10.4316C9.03711 10.4316 8.55859 11.5527 9.29688 12.4004L12.9746 16.5293C13.4668 17.1035 14.1504 17.1035 14.6562 16.5293Z" fill="black" fill-opacity="0.85"/>
 </g>
</svg>
