<?xml version="1.0" encoding="UTF-8"?>
<!--Generator: Apple Native CoreSVG 326-->
<!DOCTYPE svg
PUBLIC "-//W3C//DTD SVG 1.1//EN"
       "http://www.w3.org/Graphics/SVG/1.1/DTD/svg11.dtd">
<svg version="1.1" xmlns="http://www.w3.org/2000/svg" xmlns:xlink="http://www.w3.org/1999/xlink" viewBox="0 0 31.0192 27.6582">
 <g>
  <rect height="27.6582" opacity="0" width="31.0192" x="0" y="0"/>
  <path d="M17.3622 13.8223C17.3622 22.1074 20.0145 27.6445 24.0067 27.6445C27.9989 27.6445 30.6649 22.1074 30.6649 13.8223C30.6649 5.52344 27.9989 0 24.0067 0C20.0145 0 17.3622 5.52344 17.3622 13.8223ZM19.5633 13.8223C19.5633 6.84961 21.3543 2.20117 24.0067 2.20117C26.659 2.20117 28.4637 6.84961 28.4637 13.8223C28.4637 20.7812 26.659 25.4434 24.0067 25.4434C21.3543 25.4434 19.5633 20.7812 19.5633 13.8223ZM10.4442 13.8223C10.4442 22.4219 12.8368 27.6445 18.5653 27.6445L24.0067 27.6445L24.0067 25.4434L18.5653 25.4434C14.2176 25.4434 12.6454 21.0547 12.6454 13.8223C12.6454 6.58984 14.2176 2.20117 18.5653 2.20117L24.0067 2.20117L24.0067 0L18.5653 0C12.8368 0 10.4442 5.20898 10.4442 13.8223ZM16.9383 5.82422L19.495 5.82422L19.495 4.0332L16.9383 4.0332C16.4461 4.0332 16.036 4.44336 16.036 4.93555C16.036 5.42773 16.4461 5.82422 16.9383 5.82422ZM16.0086 10.0215L18.5653 10.0215L18.5653 8.23047L16.0086 8.23047C15.5164 8.23047 15.1063 8.62695 15.1063 9.11914C15.1063 9.61133 15.5164 10.0215 16.0086 10.0215ZM15.6532 14.5469L18.2098 14.5469L18.2098 12.7559L15.6532 12.7559C15.161 12.7559 14.7645 13.166 14.7645 13.6582C14.7645 14.1504 15.161 14.5469 15.6532 14.5469ZM16.0086 19.0859L18.5653 19.0859L18.5653 17.2949L16.0086 17.2949C15.5164 17.2949 15.1063 17.7051 15.1063 18.1973C15.1063 18.6895 15.5164 19.0859 16.0086 19.0859ZM16.9383 23.2832L19.495 23.2832L19.495 21.4922L16.9383 21.4922C16.4461 21.4922 16.036 21.8887 16.036 22.3809C16.036 22.873 16.4461 23.2832 16.9383 23.2832Z" fill="black" fill-opacity="0.85"/>
  <path d="M4.12778 2.63867C3.71762 2.63867 3.28012 2.83008 3.11606 3.32227C2.21371 6.04297 1.69418 9.10547 1.69418 12.2773C1.69418 15.4355 2.20004 18.498 3.11606 21.2188L5.07114 20.5352C4.22348 18.0332 3.75864 15.2031 3.75864 12.2773C3.75864 9.33789 4.22348 6.50781 5.07114 4.00586C5.37192 3.17188 4.75668 2.63867 4.12778 2.63867ZM0.65512 20.084C-0.178864 20.3984-0.192536 21.4648 0.477386 21.875L4.78403 24.541C5.37192 24.8965 6.02817 24.6504 6.23325 24.0078L7.83285 19.2363C8.07895 18.498 7.4227 17.623 6.53403 17.9512Z" fill="black" fill-opacity="0.85"/>
 </g>
</svg>
