<?xml version="1.0" encoding="UTF-8"?>
<!--Generator: Apple Native CoreSVG 326-->
<!DOCTYPE svg
PUBLIC "-//W3C//DTD SVG 1.1//EN"
       "http://www.w3.org/Graphics/SVG/1.1/DTD/svg11.dtd">
<svg version="1.1" xmlns="http://www.w3.org/2000/svg" xmlns:xlink="http://www.w3.org/1999/xlink" viewBox="0 0 27.5625 8.98242">
 <g>
  <rect height="8.98242" opacity="0" width="27.5625" x="0" y="0"/>
  <path d="M0 1.17578C0 1.81836 0.519531 2.33789 1.16211 2.33789L26.0312 2.33789C26.6738 2.33789 27.207 1.81836 27.207 1.17578C27.207 0.533203 26.6738 0 26.0312 0L1.16211 0C0.519531 0 0 0.533203 0 1.17578ZM0 7.79297C0 8.43555 0.519531 8.96875 1.16211 8.96875L5.98828 8.96875C6.63086 8.96875 7.15039 8.43555 7.15039 7.79297C7.15039 7.15039 6.63086 6.63086 5.98828 6.63086L1.16211 6.63086C0.519531 6.63086 0 7.15039 0 7.79297ZM10.0215 7.79297C10.0215 8.43555 10.5547 8.96875 11.1973 8.96875L15.9961 8.96875C16.6387 8.96875 17.1582 8.43555 17.1582 7.79297C17.1582 7.15039 16.6387 6.63086 15.9961 6.63086L11.1973 6.63086C10.5547 6.63086 10.0215 7.15039 10.0215 7.79297ZM20.0293 7.79297C20.0293 8.43555 20.5488 8.96875 21.1914 8.96875L25.9219 8.96875C26.5645 8.96875 27.0977 8.43555 27.0977 7.79297C27.0977 7.15039 26.5645 6.63086 25.9219 6.63086L21.1914 6.63086C20.5488 6.63086 20.0293 7.15039 20.0293 7.79297Z" fill="black" fill-opacity="0.85"/>
 </g>
</svg>
