<?xml version="1.0" encoding="UTF-8"?>
<!--Generator: Apple Native CoreSVG 326-->
<!DOCTYPE svg
PUBLIC "-//W3C//DTD SVG 1.1//EN"
       "http://www.w3.org/Graphics/SVG/1.1/DTD/svg11.dtd">
<svg version="1.1" xmlns="http://www.w3.org/2000/svg" xmlns:xlink="http://www.w3.org/1999/xlink" viewBox="0 0 28.2461 27.9043">
 <g>
  <rect height="27.9043" opacity="0" width="28.2461" x="0" y="0"/>
  <path d="M13.9453 27.8906C21.6426 27.8906 27.8906 21.6426 27.8906 13.9453C27.8906 6.24805 21.6426 0 13.9453 0C6.24805 0 0 6.24805 0 13.9453C0 21.6426 6.24805 27.8906 13.9453 27.8906ZM13.9453 25.5664C7.51953 25.5664 2.32422 20.3711 2.32422 13.9453C2.32422 7.51953 7.51953 2.32422 13.9453 2.32422C20.3711 2.32422 25.5664 7.51953 25.5664 13.9453C25.5664 20.3711 20.3711 25.5664 13.9453 25.5664Z" fill="black" fill-opacity="0.85"/>
  <path d="M18.4297 6.42578L9.35156 6.42578C8.36719 6.42578 7.71094 7.10938 7.71094 8.13477L7.71094 10.0625L20.0703 10.0625L20.0703 8.13477C20.0703 7.10938 19.4141 6.42578 18.4297 6.42578ZM9.78906 8.72266C9.70703 8.43555 9.85742 8.14844 10.1309 8.05273C10.4043 7.9707 10.6914 8.12109 10.7734 8.4082C10.8555 8.66797 10.7051 8.96875 10.4316 9.05078C10.1582 9.14648 9.87109 8.98242 9.78906 8.72266ZM12.168 9.21484C11.7988 9.21484 11.5254 8.91406 11.5254 8.55859C11.5254 8.18945 11.7988 7.90234 12.168 7.90234C12.5234 7.90234 12.8105 8.18945 12.8105 8.55859C12.8105 8.91406 12.5234 9.21484 12.168 9.21484ZM7.71094 18.5801L20.0703 18.5801L20.0703 11.0332L7.71094 11.0332ZM12.168 13.1523C11.9355 13.1523 11.7852 12.9883 11.7852 12.7559C11.7852 12.5234 11.9355 12.3594 12.168 12.3594L15.6406 12.3594C15.873 12.3594 16.0234 12.5234 16.0234 12.7559C16.0234 12.9883 15.873 13.1523 15.6406 13.1523ZM20.0703 19.5508L7.71094 19.5508L7.71094 19.7012C7.71094 20.7266 8.36719 21.3965 9.35156 21.3965L18.4297 21.3965C19.4141 21.3965 20.0703 20.7266 20.0703 19.7012Z" fill="black" fill-opacity="0.85"/>
 </g>
</svg>
