<?xml version="1.0" encoding="UTF-8"?>
<!--Generator: Apple Native CoreSVG 326-->
<!DOCTYPE svg
PUBLIC "-//W3C//DTD SVG 1.1//EN"
       "http://www.w3.org/Graphics/SVG/1.1/DTD/svg11.dtd">
<svg version="1.1" xmlns="http://www.w3.org/2000/svg" xmlns:xlink="http://www.w3.org/1999/xlink" viewBox="0 0 30.9941 34.002">
 <g>
  <rect height="34.002" opacity="0" width="30.9941" x="0" y="0"/>
  <path d="M13.9919 31.2266L6.63086 31.2266C4.73047 31.2266 3.45898 29.9277 3.45898 27.9727L3.45898 27.7812L12.2279 27.7812C12.5251 29.0839 13.1409 30.2605 13.9919 31.2266ZM27.1797 19.0367C25.9437 18.2584 24.4761 17.8145 22.9004 17.8145C22.4206 17.8145 21.9509 17.8556 21.4973 17.9426C21.0445 17.8556 20.5759 17.8145 20.0977 17.8145C15.5996 17.8145 12.0039 21.4102 12.0039 25.9082C12.0039 25.9128 12.0039 25.9174 12.0046 25.9219L3.45898 25.9219L3.45898 11.2383L27.1797 11.2383ZM11.9902 13.166C11.5664 13.166 11.2793 13.4531 11.2793 13.877C11.2793 14.3008 11.5664 14.6016 11.9902 14.6016L18.6621 14.6016C19.0859 14.6016 19.3594 14.3008 19.3594 13.877C19.3594 13.4531 19.0859 13.166 18.6621 13.166ZM27.1797 5.7832L27.1797 9.37891L3.45898 9.37891L3.45898 5.7832C3.45898 3.82812 4.73047 2.51562 6.63086 2.51562L24.0215 2.51562C25.9082 2.51562 27.1797 3.82812 27.1797 5.7832ZM7.16406 6.61719C7.16406 7.28711 7.72461 7.86133 8.4082 7.86133C9.0918 7.86133 9.63867 7.28711 9.63867 6.61719C9.63867 5.91992 9.0918 5.35938 8.4082 5.35938C7.72461 5.35938 7.16406 5.91992 7.16406 6.61719ZM10.7734 6.61719C10.7734 7.28711 11.3203 7.86133 12.0039 7.86133C12.6875 7.86133 13.2344 7.28711 13.2344 6.61719C13.2344 5.91992 12.6875 5.35938 12.0039 5.35938C11.3203 5.35938 10.7734 5.91992 10.7734 6.61719Z" fill="black" fill-opacity="0.85"/>
  <path d="M29.4082 25.9082C29.4082 29.5176 26.5098 32.4023 22.9004 32.4023C22.4174 32.4023 21.9474 32.3507 21.497 32.2489C22.5714 32.019 23.5437 31.5224 24.3409 30.8283C26.5204 30.2405 28.0273 28.3177 28.0273 25.9082C28.0273 23.4867 26.5196 21.5616 24.3391 20.9741C23.5422 20.28 22.5705 19.7836 21.497 19.5539C21.9474 19.452 22.4174 19.4004 22.9004 19.4004C26.5098 19.4004 29.4082 22.2852 29.4082 25.9082Z" fill="black" fill-opacity="0.85"/>
  <path d="M20.0977 32.4023C23.6934 32.4023 26.5918 29.5176 26.5918 25.9082C26.5918 22.2852 23.6934 19.4004 20.0977 19.4004C16.4883 19.4004 13.5898 22.2852 13.5898 25.9082C13.5898 29.5176 16.4883 32.4023 20.0977 32.4023ZM20.0977 31.0215C17.1582 31.0215 14.9707 28.8203 14.9707 25.9082C14.9707 22.9824 17.1582 20.7812 20.0977 20.7812C23.0098 20.7812 25.2109 22.9824 25.2109 25.9082C25.2109 28.8203 23.0098 31.0215 20.0977 31.0215ZM20.0977 29.9961C22.3398 29.9961 24.1855 28.1641 24.1855 25.9082C24.1855 23.6523 22.3398 21.8203 20.0977 21.8203C17.8281 21.8203 15.9961 23.6523 15.9961 25.9082C15.9961 28.1641 17.8281 29.9961 20.0977 29.9961ZM20.0977 28.752C18.4297 28.752 17.2402 27.5625 17.2402 25.9082C17.2402 24.2402 18.4297 23.0645 20.0977 23.0645C21.7656 23.0645 22.9414 24.2402 22.9414 25.9082C22.9414 27.5762 21.752 28.752 20.0977 28.752Z" fill="black" fill-opacity="0.85"/>
 </g>
</svg>
