<?xml version="1.0" encoding="UTF-8"?>
<!--Generator: Apple Native CoreSVG 326-->
<!DOCTYPE svg
PUBLIC "-//W3C//DTD SVG 1.1//EN"
       "http://www.w3.org/Graphics/SVG/1.1/DTD/svg11.dtd">
<svg version="1.1" xmlns="http://www.w3.org/2000/svg" xmlns:xlink="http://www.w3.org/1999/xlink" viewBox="0 0 44.3652 28.5059">
 <g>
  <rect height="28.5059" opacity="0" width="44.3652" x="0" y="0"/>
  <path d="M32.5938 4.10156L32.5937 7.46484L30.3926 7.46484L30.3926 4.14258C30.3926 3.52734 30.0098 3.1582 29.4082 3.1582L3.18555 3.1582C2.58398 3.1582 2.20117 3.52734 2.20117 4.14258L2.20117 20.4668C2.20117 21.0684 2.58398 21.4512 3.18555 21.4512L18.5946 21.4512C18.6008 23.2491 19.2767 24.3153 20.6172 24.7256L20.6172 26.291L20.6992 26.291C21.3008 26.291 21.793 26.7832 21.793 27.3984C21.793 28.0137 21.3008 28.5059 20.6992 28.5059L11.8945 28.5059C11.293 28.5059 10.7871 28.0137 10.7871 27.3984C10.7871 26.7832 11.293 26.291 11.8945 26.291L11.9766 26.291L11.9766 23.6523L3.14453 23.6523C1.18945 23.6523 0 22.4629 0 20.4941L0 4.10156C0 2.13281 1.18945 0.957031 3.14453 0.957031L29.4355 0.957031C31.4043 0.957031 32.5938 2.13281 32.5938 4.10156Z" fill="black" fill-opacity="0.85"/>
  <path d="M18.5938 21.4238C18.5938 23.8164 19.7695 24.9238 22.1074 24.9238L40.5098 24.9238C42.8477 24.9238 44.0098 23.8164 44.0098 21.4238L44.0098 10.9785C44.0098 8.58594 42.8477 7.46484 40.5098 7.46484L22.1074 7.46484C19.7695 7.46484 18.5938 8.58594 18.5938 10.9785ZM20.7949 21.3828L20.7949 11.0195C20.7949 10.0488 21.2051 9.66602 22.1484 9.66602L40.4688 9.66602C41.3984 9.66602 41.8086 10.0488 41.8086 11.0195L41.8086 21.3828C41.8086 22.3398 41.3984 22.7227 40.4688 22.7227L22.1484 22.7227C21.2051 22.7227 20.7949 22.3398 20.7949 21.3828ZM27.6855 26.9062L34.9316 26.9062L34.9316 23.625L27.6855 23.625ZM27.6035 28.5059L35 28.5059C35.6152 28.5059 36.1074 28.0137 36.1074 27.3984C36.1074 26.7832 35.6152 26.291 35 26.291L27.6035 26.291C27.002 26.291 26.4961 26.7832 26.4961 27.3984C26.4961 28.0137 27.002 28.5059 27.6035 28.5059Z" fill="black" fill-opacity="0.85"/>
 </g>
</svg>
