<?xml version="1.0" encoding="UTF-8"?>
<!--Generator: Apple Native CoreSVG 326-->
<!DOCTYPE svg
PUBLIC "-//W3C//DTD SVG 1.1//EN"
       "http://www.w3.org/Graphics/SVG/1.1/DTD/svg11.dtd">
<svg version="1.1" xmlns="http://www.w3.org/2000/svg" xmlns:xlink="http://www.w3.org/1999/xlink" viewBox="0 0 33.0859 32.6074">
 <g>
  <rect height="32.6074" opacity="0" width="33.0859" x="0" y="0"/>
  <path d="M11.2109 14.2188L21.5195 14.2188C23.5566 14.2188 24.6504 13.1387 24.6504 11.1426L24.6504 7.32812C24.6504 5.33203 23.5566 4.25195 21.5195 4.25195L11.2109 4.25195C9.17383 4.25195 8.08008 5.33203 8.08008 7.32812L8.08008 11.1426C8.08008 13.1387 9.17383 14.2188 11.2109 14.2188ZM6.37109 32.5938L26.3594 32.5938C28.3965 32.5938 29.4902 31.5137 29.4902 29.5176L29.4902 25.7031C29.4902 23.707 28.3965 22.627 26.3594 22.627L6.37109 22.627C4.33398 22.627 3.24023 23.707 3.24023 25.7031L3.24023 29.5176C3.24023 31.5137 4.33398 32.5938 6.37109 32.5938Z" fill="black" fill-opacity="0.85"/>
  <path d="M0.957031 2.00977L31.7734 2.00977C32.3066 2.00977 32.7305 1.53125 32.7305 0.998047C32.7305 0.464844 32.3066 0 31.7734 0L0.957031 0C0.410156 0 0 0.464844 0 0.998047C0 1.53125 0.410156 2.00977 0.957031 2.00977ZM0.957031 20.3711L31.7734 20.3711C32.3066 20.3711 32.7305 19.9062 32.7305 19.373C32.7305 18.8398 32.3066 18.3613 31.7734 18.3613L0.957031 18.3613C0.410156 18.3613 0 18.8398 0 19.373C0 19.9062 0.410156 20.3711 0.957031 20.3711Z" fill="black" fill-opacity="0.85"/>
 </g>
</svg>
