<?xml version="1.0" encoding="UTF-8"?>
<!--Generator: Apple Native CoreSVG 326-->
<!DOCTYPE svg
PUBLIC "-//W3C//DTD SVG 1.1//EN"
       "http://www.w3.org/Graphics/SVG/1.1/DTD/svg11.dtd">
<svg version="1.1" xmlns="http://www.w3.org/2000/svg" xmlns:xlink="http://www.w3.org/1999/xlink" viewBox="0 0 28.2461 27.9043">
 <g>
  <rect height="27.9043" opacity="0" width="28.2461" x="0" y="0"/>
  <path d="M13.9453 27.8906C21.6426 27.8906 27.8906 21.6289 27.8906 13.9453C27.8906 6.24805 21.6426 0 13.9453 0C6.26172 0 0 6.24805 0 13.9453C0 21.6289 6.26172 27.8906 13.9453 27.8906Z" fill="black" fill-opacity="0.85"/>
  <path d="M13.918 10.4453C12.9746 10.4453 12.2363 9.76172 12.2363 8.88672C12.2363 7.88867 12.9746 7.17773 13.918 7.17773C14.957 7.17773 15.6543 7.875 15.6543 8.88672C15.6543 9.76172 14.9434 10.4453 13.918 10.4453ZM8.46289 15.1484C7.65625 15.1484 7.12305 14.7246 7.12305 13.9727C7.12305 13.207 7.62891 12.7832 8.46289 12.7832L19.4414 12.7832C20.2617 12.7832 20.7676 13.207 20.7676 13.9727C20.7676 14.7246 20.2344 15.1484 19.4414 15.1484ZM13.918 20.7402C12.9746 20.7402 12.2363 20.043 12.2363 19.168C12.2363 18.1699 12.9746 17.4727 13.918 17.4727C14.957 17.4727 15.6543 18.1699 15.6543 19.168C15.6543 20.043 14.9434 20.7402 13.918 20.7402Z" fill="white"/>
 </g>
</svg>
