<?xml version="1.0" encoding="UTF-8"?>
<!--Generator: Apple Native CoreSVG 326-->
<!DOCTYPE svg
PUBLIC "-//W3C//DTD SVG 1.1//EN"
       "http://www.w3.org/Graphics/SVG/1.1/DTD/svg11.dtd">
<svg version="1.1" xmlns="http://www.w3.org/2000/svg" xmlns:xlink="http://www.w3.org/1999/xlink" viewBox="0 0 25.5254 25.1699">
 <g>
  <rect height="25.1699" opacity="0" width="25.5254" x="0" y="0"/>
  <path d="M4.29297 25.1699L20.877 25.1699C23.748 25.1699 25.1699 23.7617 25.1699 20.9453L25.1699 4.23828C25.1699 1.42188 23.748 0 20.877 0L4.29297 0C1.43555 0 0 1.42188 0 4.23828L0 20.9453C0 23.7617 1.43555 25.1699 4.29297 25.1699ZM4.32031 22.9688C2.95312 22.9688 2.20117 22.2441 2.20117 20.8223L2.20117 4.36133C2.20117 2.93945 2.95312 2.20117 4.32031 2.20117L20.8496 2.20117C22.2031 2.20117 22.9688 2.93945 22.9688 4.36133L22.9688 20.8223C22.9688 22.2441 22.2031 22.9688 20.8496 22.9688Z" fill="black" fill-opacity="0.85"/>
  <path d="M12.5645 9.17383C13.5488 9.17383 14.2461 8.51758 14.2461 7.66992C14.2461 6.69922 13.5625 6.0293 12.5645 6.0293C11.6484 6.0293 10.9375 6.71289 10.9375 7.66992C10.9375 8.51758 11.6484 9.17383 12.5645 9.17383ZM7.27344 13.7402L17.9238 13.7402C18.6895 13.7402 19.209 13.3301 19.209 12.6055C19.209 11.8672 18.7168 11.457 17.9238 11.457L7.27344 11.457C6.48047 11.457 5.97461 11.8672 5.97461 12.6055C5.97461 13.3301 6.50781 13.7402 7.27344 13.7402ZM12.5645 19.1543C13.5488 19.1543 14.2461 18.4844 14.2461 17.6367C14.2461 16.6797 13.5625 16.0098 12.5645 16.0098C11.6484 16.0098 10.9375 16.6797 10.9375 17.6367C10.9375 18.4844 11.6484 19.1543 12.5645 19.1543Z" fill="black" fill-opacity="0.85"/>
 </g>
</svg>
