<?xml version="1.0" encoding="UTF-8"?>
<!--Generator: Apple Native CoreSVG 326-->
<!DOCTYPE svg
PUBLIC "-//W3C//DTD SVG 1.1//EN"
       "http://www.w3.org/Graphics/SVG/1.1/DTD/svg11.dtd">
<svg version="1.1" xmlns="http://www.w3.org/2000/svg" xmlns:xlink="http://www.w3.org/1999/xlink" viewBox="0 0 22.9141 20.2207">
 <g>
  <rect height="20.2207" opacity="0" width="22.9141" x="0" y="0"/>
  <path d="M11.2793 4.14258C12.4004 4.14258 13.3027 3.22656 13.3027 2.13281C13.3027 1.01172 12.4004 0.109375 11.2793 0.109375C10.1719 0.109375 9.26953 1.01172 9.26953 2.13281C9.26953 3.22656 10.1719 4.14258 11.2793 4.14258ZM11.2793 20.2207C12.4004 20.2207 13.3027 19.3184 13.3027 18.1973C13.3027 17.0898 12.4004 16.1875 11.2793 16.1875C10.1719 16.1875 9.26953 17.0898 9.26953 18.1973C9.26953 19.3184 10.1719 20.2207 11.2793 20.2207ZM1.2168 11.3477L21.3418 11.3477C21.998 11.3477 22.5586 10.7871 22.5586 10.1172C22.5586 9.44727 21.998 8.90039 21.3418 8.90039L1.2168 8.90039C0.560547 8.90039 0 9.44727 0 10.1172C0 10.7871 0.560547 11.3477 1.2168 11.3477Z" fill="black" fill-opacity="0.85"/>
 </g>
</svg>
