<?xml version="1.0" encoding="UTF-8"?>
<!--Generator: Apple Native CoreSVG 326-->
<!DOCTYPE svg
PUBLIC "-//W3C//DTD SVG 1.1//EN"
       "http://www.w3.org/Graphics/SVG/1.1/DTD/svg11.dtd">
<svg version="1.1" xmlns="http://www.w3.org/2000/svg" xmlns:xlink="http://www.w3.org/1999/xlink" viewBox="0 0 28.2461 27.9043">
 <g>
  <rect height="27.9043" opacity="0" width="28.2461" x="0" y="0"/>
  <path d="M13.9453 27.8906C21.6426 27.8906 27.8906 21.6289 27.8906 13.9453C27.8906 6.24805 21.6426 0 13.9453 0C6.26172 0 0 6.24805 0 13.9453C0 21.6289 6.26172 27.8906 13.9453 27.8906Z" fill="black" fill-opacity="0.85"/>
  <path d="M10.5957 21.5332C9.03711 21.5332 8.24414 20.7539 8.24414 19.1543L8.24414 8.36719C8.24414 6.79492 9.03711 5.98828 10.5957 5.98828L13.2754 5.98828L13.2754 11.6621C13.2754 12.6465 13.7402 13.0977 14.7109 13.0977L20.3027 13.0977L20.3027 19.1543C20.3027 20.7266 19.5234 21.5332 17.9512 21.5332ZM14.8203 11.9492C14.5605 11.9492 14.4102 11.8125 14.4102 11.5391L14.4102 6.07031C14.7246 6.11133 15.0527 6.33008 15.4082 6.69922L19.5781 10.9512C19.9473 11.3203 20.166 11.6348 20.207 11.9492Z" fill="white"/>
 </g>
</svg>
