<?xml version="1.0" encoding="UTF-8"?>
<!--Generator: Apple Native CoreSVG 326-->
<!DOCTYPE svg
PUBLIC "-//W3C//DTD SVG 1.1//EN"
       "http://www.w3.org/Graphics/SVG/1.1/DTD/svg11.dtd">
<svg version="1.1" xmlns="http://www.w3.org/2000/svg" xmlns:xlink="http://www.w3.org/1999/xlink" viewBox="0 0 38.2539 31.6504">
 <g>
  <rect height="31.6504" opacity="0" width="38.2539" x="0" y="0"/>
  <path d="M2.85742 31.5957L5.64648 31.5957C7.39648 31.5957 8.54492 30.3379 8.54492 28.998C8.54492 28.2188 8.2168 27.4121 7.4375 27.0156C10.0215 25.9766 11.6348 24.2129 12.1543 21.6562C14.1641 22.832 17.1855 23.0098 20.3301 22.6816C20.2891 24.5684 20.002 27.2617 20.002 28.4785C20.002 30.543 21.0684 31.6504 23.0781 31.6504L25.416 31.6504C27.4668 31.6504 28.5605 30.3379 28.5605 28.752C28.5605 27.6582 28.082 26.4688 26.4414 25.8125C26.5371 24.4863 27.1523 21.5332 27.5625 20.3164C28.2461 18.334 29.627 16.6387 29.627 13.8496C29.627 12.6328 29.8594 11.9766 30.0918 11.4434C31.0078 11.9902 31.8418 12.25 32.8125 12.25C35.3145 12.25 37.8984 9.63867 37.8984 6.9043C37.8984 5.40039 35.8477 4.48438 34.7129 3.75977C33.3594 2.81641 32.4434 1.57227 30.9941 0.929688L30.584 2.85742C31.6094 3.37695 32.3477 4.41602 33.5508 5.20898C34.8359 6.07031 35.7793 6.15234 35.7793 7.13672C35.7793 8.54492 34.2617 10.1172 32.8125 10.1172C32.0059 10.1172 31.3633 9.87109 30.2422 9.0918C29.7227 8.73633 29.1895 8.80469 28.875 9.29688C27.8359 10.8145 27.5078 12.0312 27.5078 13.8496C27.5078 15.8594 26.3594 17.1582 25.5117 19.7148C25.0605 21.1367 24.2949 24.6914 24.2949 26.3047C24.2949 26.7012 24.4316 27.043 24.9238 27.2207C26.2363 27.5898 26.4277 28.2051 26.4277 28.6289C26.4277 29.1895 26.0723 29.4629 25.416 29.4629L23.1465 29.4629C22.4629 29.4629 22.1484 29.1074 22.1484 28.3828C22.1484 25.7578 22.6406 22.2031 22.6406 20.9316C22.6406 20.3164 22.0801 19.9883 21.4238 20.207C17.6641 21.4648 13.7949 20.6309 11.6484 18.9219C11.0469 18.4297 10.3496 18.7988 10.3496 19.4551C10.3496 23.0371 8.64062 24.7734 4.79883 25.7578C4.00586 25.9766 4.00586 27.166 4.79883 27.3027C5.86523 27.4668 6.41211 27.959 6.41211 28.6289C6.41211 29.1621 6.00195 29.4629 5.40039 29.4629L3.11719 29.4629C2.51562 29.4629 2.11914 29.0254 2.11914 28.3828L2.11914 25.7715C2.11914 24.7324 2.5293 24.1172 4.38867 22.6406C5.81055 21.5059 6.20703 19.9609 6.20703 16.707C6.20703 15.0117 6.41211 13.084 7.13672 12.127L5.16797 9.91211C4.53906 9.20117 5.48242 8.44922 6.08398 9.14648L7.9707 11.334C8.2168 11.1426 8.57227 11.0332 9.05078 11.0059L20.6445 10.0352C25.7715 8.3125 25.5391 6.09766 27.1523 4.41602L25.8809 2.7207C23.0781 5.26367 23.666 6.69922 20.207 7.92969L9.5293 8.83203C9.14648 8.85938 8.79102 8.90039 8.46289 8.94141L7.46484 7.75195C5.37305 5.27734 1.36719 8.28516 3.66406 11.0195L4.7168 12.2773C4.30664 13.5215 4.07422 15.0117 4.07422 16.707C4.07422 19.6055 3.85547 20.3574 3.08984 20.9727C0.902344 22.6953 0 23.9805 0 25.7715L0 28.6152C0 30.3652 1.18945 31.5957 2.85742 31.5957ZM28.1777 6.27539C30.4062 6.27539 31.541 2.5293 31.541 1.46289C31.541 0.519531 31.0488 0.0136719 30.0645 0.0136719L26.3047 0.0136719C25.3203 0.0136719 24.8145 0.519531 24.8145 1.46289C24.8145 2.5293 25.9629 6.27539 28.1777 6.27539ZM28.1777 4.42969C27.4805 4.42969 26.9199 2.93945 26.7695 2.10547C26.7422 1.96875 26.8379 1.85938 26.9746 1.85938L29.3945 1.85938C29.5312 1.85938 29.627 1.96875 29.5996 2.10547C29.4492 2.93945 28.875 4.42969 28.1777 4.42969ZM31.7188 7.12305C32.2793 7.12305 32.7305 6.6582 32.7305 6.08398C32.7305 5.50977 32.2793 5.07227 31.7188 5.07227C31.1445 5.07227 30.6934 5.50977 30.6934 6.08398C30.6934 6.6582 31.1445 7.12305 31.7188 7.12305Z" fill="black" fill-opacity="0.85"/>
 </g>
</svg>
