<?xml version="1.0" encoding="UTF-8"?>
<!--Generator: Apple Native CoreSVG 326-->
<!DOCTYPE svg
PUBLIC "-//W3C//DTD SVG 1.1//EN"
       "http://www.w3.org/Graphics/SVG/1.1/DTD/svg11.dtd">
<svg version="1.1" xmlns="http://www.w3.org/2000/svg" xmlns:xlink="http://www.w3.org/1999/xlink" viewBox="0 0 28.2461 27.9043">
 <g>
  <rect height="27.9043" opacity="0" width="28.2461" x="0" y="0"/>
  <path d="M13.9453 27.8906C21.6426 27.8906 27.8906 21.6289 27.8906 13.9453C27.8906 6.24805 21.6426 0 13.9453 0C6.26172 0 0 6.24805 0 13.9453C0 21.6289 6.26172 27.8906 13.9453 27.8906Z" fill="black" fill-opacity="0.85"/>
  <path d="M6.48047 21.4785C5.7832 21.4785 5.27734 20.959 5.27734 20.2207L5.27734 18.9219C5.27734 17.9785 5.6875 17.418 6.72656 16.5977C7.17773 16.2285 7.28711 15.791 7.28711 14.3008C7.28711 13.3164 7.45117 12.5371 7.71094 11.8945L7.15039 11.2109C6.34375 10.2812 7.61523 9.13281 8.44922 10.1035L8.95508 10.7324C9.03711 10.6914 9.16016 10.6504 9.32422 10.623L15.1348 10.1719C16.5703 9.67969 16.8027 9.06445 17.3359 8.3125C17.6777 8.94141 18.1836 9.44727 18.9219 9.44727C20.084 9.44727 20.7676 8.06641 20.9453 7.19141C21.4648 7.46484 21.793 7.9707 22.3945 8.35352C23.0645 8.79102 23.625 8.83203 23.625 9.47461C23.625 10.7188 22.4766 11.8809 21.3281 11.8809C20.8086 11.8809 20.4258 11.7305 19.8789 11.416C19.7285 11.5664 19.5371 11.9629 19.5371 12.6465C19.5371 14.082 18.8809 14.9844 18.416 16.3652C18.1836 17.0215 17.7871 18.4844 17.6641 19.1816C17.623 19.332 17.7188 19.4277 17.8691 19.4824C18.5938 19.5918 18.8672 19.8379 18.8672 20.4258C18.8672 20.9863 18.4297 21.4785 17.6641 21.4785L16.5293 21.4785C15.7227 21.4785 15.2168 20.9453 15.2168 20.1113C15.2168 19.4004 15.3398 18.0332 15.3672 17.0215C13.6582 17.2539 11.9492 17.1582 10.9238 16.4336C10.7324 17.8965 9.74805 18.7852 8.06641 19.0449C7.80664 19.0859 7.80664 19.4277 8.12109 19.4824C8.76367 19.5371 9.07812 19.7969 9.07812 20.4121C9.07812 20.9863 8.62695 21.4785 7.86133 21.4785ZM21.3008 9.55664C21.5332 9.55664 21.7109 9.37891 21.7109 9.13281C21.7109 8.87305 21.5332 8.69531 21.3008 8.69531C21.0273 8.69531 20.8633 8.87305 20.8633 9.13281C20.8633 9.37891 21.0273 9.55664 21.3008 9.55664ZM18.9219 8.83203C17.9375 8.83203 17.4453 7.20508 17.4453 6.74023C17.4453 6.34375 17.6777 6.11133 18.0879 6.11133L19.7422 6.11133C20.166 6.11133 20.3848 6.34375 20.3848 6.74023C20.3848 7.20508 19.8789 8.83203 18.9219 8.83203Z" fill="white"/>
 </g>
</svg>
