<?xml version="1.0" encoding="UTF-8"?>
<!--Generator: Apple Native CoreSVG 326-->
<!DOCTYPE svg
PUBLIC "-//W3C//DTD SVG 1.1//EN"
       "http://www.w3.org/Graphics/SVG/1.1/DTD/svg11.dtd">
<svg version="1.1" xmlns="http://www.w3.org/2000/svg" xmlns:xlink="http://www.w3.org/1999/xlink" viewBox="0 0 30.9258 30.584">
 <g>
  <rect height="30.584" opacity="0" width="30.9258" x="0" y="0"/>
  <path d="M15.2852 30.5703C23.6797 30.5703 30.5703 23.6797 30.5703 15.2852C30.5703 6.89062 23.6797 0 15.2852 0C6.89062 0 0 6.89062 0 15.2852C0 23.6797 6.89062 30.5703 15.2852 30.5703ZM15.2852 25.4844C9.65234 25.4844 5.08594 20.918 5.08594 15.2852C5.08594 9.63867 9.65234 5.08594 15.2852 5.08594C20.9316 5.08594 25.4844 9.63867 25.4844 15.2852C25.4844 20.918 20.9316 25.4844 15.2852 25.4844Z" fill="black" fill-opacity="0.85"/>
  <path d="M14.3008 19.8242C15.4766 19.8242 16.5703 19.3457 17.1309 18.2793L17.1719 18.2793L17.1719 19.2227C17.1719 19.6465 17.4863 19.9746 17.9102 19.9746C18.334 19.9746 18.6484 19.6465 18.6484 19.2227L18.6484 10.4863L19.6602 10.4863C19.9062 10.4863 20.1113 10.2949 20.1113 10.0352C20.1113 9.78906 19.9062 9.59766 19.6602 9.59766L18.6484 9.59766L18.6484 9.05078C18.6484 8.57227 18.3613 8.27148 17.8828 8.27148C17.418 8.27148 17.1172 8.57227 17.1172 9.05078L17.1172 9.59766L14.5059 9.59766C14.2598 9.59766 14.0547 9.78906 14.0547 10.0352C14.0547 10.3086 14.2598 10.4863 14.5059 10.4863L17.1172 10.4863L17.1172 13.2754L17.0625 13.2754C16.584 12.2227 15.4766 11.7441 14.3008 11.7441C12.2637 11.7441 10.6094 13.3027 10.6094 15.7773C10.6094 18.0195 12.0586 19.8242 14.3008 19.8242ZM14.6836 18.5117C13.0977 18.5117 12.1816 17.3086 12.1816 15.7773C12.1816 14.1504 13.2207 13.043 14.6836 13.043C16.2285 13.043 17.1309 14.3145 17.1309 15.7773C17.1309 17.3496 16.1055 18.5117 14.6836 18.5117ZM11.3203 21.2871C11.3203 21.5469 11.5391 21.752 11.7988 21.752L18.5664 21.752C18.8262 21.752 19.0449 21.5469 19.0449 21.2871C19.0449 21.0137 18.8262 20.8223 18.5664 20.8223L11.7988 20.8223C11.5391 20.8223 11.3203 21.0137 11.3203 21.2871Z" fill="black" fill-opacity="0.85"/>
 </g>
</svg>
