<?xml version="1.0" encoding="UTF-8"?>
<!--Generator: Apple Native CoreSVG 326-->
<!DOCTYPE svg
PUBLIC "-//W3C//DTD SVG 1.1//EN"
       "http://www.w3.org/Graphics/SVG/1.1/DTD/svg11.dtd">
<svg version="1.1" xmlns="http://www.w3.org/2000/svg" xmlns:xlink="http://www.w3.org/1999/xlink" viewBox="0 0 33.291 27.3099">
 <g>
  <rect height="27.3099" opacity="0" width="33.291" x="0" y="0"/>
  <path d="M32.9355 16.3962C32.9355 7.78289 26.3184 0.714533 17.8965 0.00359537C17.459-0.0374203 17.1309 0.277033 17.1309 0.714533L17.1309 5.18524C17.1309 5.55438 17.3906 5.84149 17.7598 5.86883C22.9961 6.51141 27.0703 10.9821 27.0703 16.3962C27.0703 18.8571 26.2227 21.1266 24.7324 23.027C24.541 23.2595 24.5547 23.5602 24.7598 23.779L28.0273 27.0329C28.3281 27.3337 28.793 27.3337 29.0664 27.0055C31.4863 24.1345 32.9355 20.4294 32.9355 16.3962Z" fill="black" fill-opacity="0.85"/>
  <path d="M0 16.3962C0 20.443 1.44922 24.1481 3.86914 27.0192C4.14258 27.3473 4.59375 27.3337 4.9082 27.0329L8.17578 23.779C8.38086 23.5602 8.39453 23.2595 8.20312 23.027C6.69922 21.1266 5.86523 18.8571 5.86523 16.3962C5.86523 10.9821 9.93945 6.51141 15.1758 5.86883C15.5449 5.84149 15.8047 5.55438 15.8047 5.18524L15.8047 0.714533C15.8047 0.277033 15.4766-0.0374203 15.0391 0.00359537C6.61719 0.714533 0 7.78289 0 16.3962Z" fill="black" fill-opacity="0.85"/>
  <path d="M15.4629 21.113C16.6387 21.113 17.7324 20.6481 18.293 19.568L18.334 19.568L18.334 20.5251C18.334 20.9489 18.6484 21.2634 19.0723 21.2634C19.4961 21.2634 19.8105 20.9489 19.8105 20.5251L19.8105 11.7888L20.8223 11.7888C21.082 11.7888 21.2871 11.5837 21.2871 11.3376C21.2871 11.0778 21.082 10.9001 20.8223 10.9001L19.8105 10.9001L19.8105 10.3395C19.8105 9.86102 19.5234 9.56024 19.0449 9.56024C18.5801 9.56024 18.293 9.86102 18.293 10.3395L18.293 10.9001L15.6816 10.9001C15.4219 10.9001 15.2168 11.0778 15.2168 11.3376C15.2168 11.5973 15.4219 11.7888 15.6816 11.7888L18.293 11.7888L18.293 14.5778L18.2246 14.5778C17.7461 13.5251 16.6387 13.0329 15.4629 13.0329C13.4258 13.0329 11.7715 14.5915 11.7715 17.0661C11.7715 19.322 13.2344 21.113 15.4629 21.113ZM15.8457 19.8005C14.2734 19.8005 13.3438 18.611 13.3438 17.0661C13.3438 15.4391 14.3828 14.3317 15.8457 14.3317C17.3906 14.3317 18.293 15.6169 18.293 17.0661C18.293 18.6384 17.2812 19.8005 15.8457 19.8005ZM12.4824 22.5759C12.4824 22.8493 12.7012 23.0407 12.9609 23.0407L19.7285 23.0407C19.9883 23.0407 20.207 22.8356 20.207 22.5759C20.207 22.3161 19.9883 22.111 19.7285 22.111L12.9609 22.111C12.7012 22.111 12.4824 22.3161 12.4824 22.5759Z" fill="black" fill-opacity="0.85"/>
 </g>
</svg>
