<?xml version="1.0" encoding="UTF-8"?>
<!--Generator: Apple Native CoreSVG 326-->
<!DOCTYPE svg
PUBLIC "-//W3C//DTD SVG 1.1//EN"
       "http://www.w3.org/Graphics/SVG/1.1/DTD/svg11.dtd">
<svg version="1.1" xmlns="http://www.w3.org/2000/svg" xmlns:xlink="http://www.w3.org/1999/xlink" viewBox="0 0 21.1914 29.0254">
 <g>
  <rect height="29.0254" opacity="0" width="21.1914" x="0" y="0"/>
  <path d="M0 27.918C0 28.5195 0.492188 29.0117 1.09375 29.0117C1.70898 29.0117 2.20117 28.5195 2.20117 27.918L2.20117 2.92578C2.20117 2.48828 2.48828 2.20117 2.89844 2.20117L17.9375 2.20117C18.3477 2.20117 18.6348 2.48828 18.6348 2.92578L18.6348 27.918C18.6348 28.5195 19.127 29.0117 19.7422 29.0117C20.3438 29.0117 20.8359 28.5195 20.8359 27.918L20.8359 2.78906C20.8359 1.12109 19.7012 0 17.9785 0L2.85742 0C1.14844 0 0 1.12109 0 2.78906Z" fill="black" fill-opacity="0.85"/>
  <path d="M3.80078 28.2324C3.80078 28.4922 4.01953 28.6289 4.2793 28.5195L8.57227 26.6191C8.91406 26.4688 9.05078 26.3594 9.05078 26.0039L9.05078 6.30273C9.05078 5.96094 8.91406 5.83789 8.58594 5.70117L4.2793 3.78711C4.01953 3.67773 3.80078 3.81445 3.80078 4.08789Z" fill="black" fill-opacity="0.85"/>
 </g>
</svg>
