<?xml version="1.0" encoding="UTF-8"?>
<!--Generator: Apple Native CoreSVG 326-->
<!DOCTYPE svg
PUBLIC "-//W3C//DTD SVG 1.1//EN"
       "http://www.w3.org/Graphics/SVG/1.1/DTD/svg11.dtd">
<svg version="1.1" xmlns="http://www.w3.org/2000/svg" xmlns:xlink="http://www.w3.org/1999/xlink" viewBox="0 0 40.3047 29.0254">
 <g>
  <rect height="29.0254" opacity="0" width="40.3047" x="0" y="0"/>
  <path d="M1.09375 29.0117C1.70898 29.0117 2.20117 28.5195 2.20117 27.918L2.20117 2.92578C2.20117 2.48828 2.48828 2.20117 2.89844 2.20117L37.0508 2.20117C37.4609 2.20117 37.748 2.48828 37.748 2.92578L37.748 27.918C37.748 28.5195 38.2402 29.0117 38.8555 29.0117C39.457 29.0117 39.9492 28.5195 39.9492 27.918L39.9492 2.78906C39.9492 1.12109 38.8145 0 37.0918 0L2.85742 0C1.14844 0 0 1.12109 0 2.78906L0 27.918C0 28.5195 0.492188 29.0117 1.09375 29.0117Z" fill="black" fill-opacity="0.85"/>
  <path d="M4.26562 28.5332L35.6973 28.5332C35.9434 28.5332 36.1484 28.3145 36.1484 28.0684L36.1484 4.25195C36.1484 3.99219 35.9434 3.78711 35.6973 3.78711L4.26562 3.78711C4.00586 3.78711 3.80078 3.99219 3.80078 4.25195L3.80078 28.0684C3.80078 28.3145 4.00586 28.5332 4.26562 28.5332ZM6.13867 11.3203C5.86523 11.3203 5.66016 11.1152 5.66016 10.8418L5.66016 6.00195C5.66016 5.72852 5.86523 5.50977 6.13867 5.50977L11.0742 5.50977C11.3477 5.50977 11.5664 5.72852 11.5664 6.00195L11.5664 10.8418C11.5664 11.1152 11.3477 11.3203 11.0742 11.3203ZM13.7539 11.3203C13.4805 11.3203 13.2617 11.1152 13.2617 10.8418L13.2617 6.00195C13.2617 5.72852 13.4805 5.50977 13.7539 5.50977L18.6758 5.50977C18.9492 5.50977 19.168 5.72852 19.168 6.00195L19.168 10.8418C19.168 11.1152 18.9492 11.3203 18.6758 11.3203ZM21.3418 11.3203C21.0684 11.3203 20.8633 11.1152 20.8633 10.8418L20.8633 6.00195C20.8633 5.72852 21.0684 5.50977 21.3418 5.50977L26.25 5.50977C26.5098 5.50977 26.7285 5.72852 26.7285 6.00195L26.7285 10.8418C26.7285 11.1152 26.5098 11.3203 26.3594 11.3203ZM28.9023 11.3203C28.6289 11.3203 28.4238 11.1152 28.4238 10.8418L28.4238 6.00195C28.4238 5.72852 28.6289 5.50977 28.9023 5.50977L33.8105 5.50977C34.084 5.50977 34.2891 5.72852 34.2891 6.00195L34.2891 10.8418C34.2891 11.1152 34.084 11.3203 33.9199 11.3203ZM17.0352 26.2227C16.6387 26.2227 16.3652 25.9492 16.3652 25.5664C16.3652 25.1699 16.6387 24.8965 17.0352 24.8965L22.9277 24.8965C23.3105 24.8965 23.584 25.1699 23.584 25.5664C23.584 25.9492 23.3105 26.2227 22.9277 26.2227Z" fill="black" fill-opacity="0.85"/>
 </g>
</svg>
