<?xml version="1.0" encoding="UTF-8"?>
<!--Generator: Apple Native CoreSVG 326-->
<!DOCTYPE svg
PUBLIC "-//W3C//DTD SVG 1.1//EN"
       "http://www.w3.org/Graphics/SVG/1.1/DTD/svg11.dtd">
<svg version="1.1" xmlns="http://www.w3.org/2000/svg" xmlns:xlink="http://www.w3.org/1999/xlink" viewBox="0 0 21 20.7949">
 <g>
  <rect height="20.7949" opacity="0" width="21" x="0" y="0"/>
  <path d="M0.205078 1.09375C0.205078 1.69531 0.710938 2.20117 1.3125 2.20117C10.7598 2.20117 18.4434 9.88477 18.4434 19.332C18.4434 19.9336 18.9492 20.4395 19.5508 20.4395C20.1523 20.4395 20.6445 19.9336 20.6445 19.332C20.6445 8.68164 11.9629 0 1.3125 0C0.710938 0 0.205078 0.492188 0.205078 1.09375Z" fill="black" fill-opacity="0.85"/>
  <path d="M0.205078 6.87695C0.205078 7.47852 0.710938 7.9707 1.3125 7.9707C7.58789 7.9707 12.6738 13.0566 12.6738 19.332C12.6738 19.9336 13.166 20.4395 13.7676 20.4395C14.3691 20.4395 14.875 19.9336 14.875 19.332C14.875 11.8535 8.79102 5.76953 1.3125 5.76953C0.710938 5.76953 0.205078 6.27539 0.205078 6.87695Z" fill="black" fill-opacity="0.85"/>
  <path d="M0.205078 12.3047C0.205078 12.9062 0.710938 13.3984 1.3125 13.3984C4.58008 13.3984 7.24609 16.0645 7.24609 19.332C7.24609 19.9336 7.73828 20.4395 8.33984 20.4395C8.94141 20.4395 9.44727 19.9336 9.44727 19.332C9.44727 14.8477 5.7832 11.1973 1.3125 11.1973C0.710938 11.1973 0.205078 11.7031 0.205078 12.3047Z" fill="black" fill-opacity="0.85"/>
  <path d="M1.95508 20.6445C3.02148 20.6445 3.88281 19.7695 3.88281 18.7168C3.88281 17.6367 3.03516 16.7754 1.95508 16.7754C0.888672 16.7754 0 17.6777 0 18.7578C0 19.7695 0.916016 20.6445 1.95508 20.6445Z" fill="black" fill-opacity="0.85"/>
 </g>
</svg>
