<?xml version="1.0" encoding="UTF-8"?>
<!--Generator: Apple Native CoreSVG 326-->
<!DOCTYPE svg
PUBLIC "-//W3C//DTD SVG 1.1//EN"
       "http://www.w3.org/Graphics/SVG/1.1/DTD/svg11.dtd">
<svg version="1.1" xmlns="http://www.w3.org/2000/svg" xmlns:xlink="http://www.w3.org/1999/xlink" viewBox="0 0 43.9141 31.377">
 <g>
  <rect height="31.377" opacity="0" width="43.9141" x="0" y="0"/>
  <path d="M14.3965 17.8691L29.1484 17.8691C30.3379 17.8691 30.7344 16.9668 30.1055 15.873L25.7441 8.2168C25.2109 7.30078 24.459 6.89062 23.625 6.89062L20.166 6.89062C19.0176 6.89062 18.334 7.30078 17.8145 8.2168L13.4531 15.873C12.8242 16.9668 13.2207 17.8691 14.3965 17.8691ZM8.43555 28.7246L16.9941 25.0332L15.3945 21.5469L8.01172 24.7324C7.68359 24.8828 7.54688 24.7051 7.54688 24.4453L7.54688 22.1348C7.54688 21.4102 7.13672 20.9863 6.38477 20.9863L4.78516 20.9863C4.06055 20.9863 3.63672 21.4102 3.63672 22.1348L3.63672 25.9629C3.63672 28.6426 5.45508 30.0098 8.43555 28.7246ZM4.41602 21.4648L6.72656 21.4648L6.72656 17.6094C6.72656 16.9805 6.2207 16.4473 5.56445 16.4473C4.92188 16.4473 4.41602 16.9805 4.41602 17.6094ZM0.833984 19.5371L10.3359 19.5371C10.8418 19.5371 11.1699 19.0996 11.1699 18.6484C11.1699 18.1973 10.8418 17.7734 10.3359 17.7734L0.833984 17.7734C0.341797 17.7734 0 18.1973 0 18.6484C0 19.0996 0.341797 19.5371 0.833984 19.5371ZM19.9199 31.377L23.6387 31.377C24.4316 31.377 24.9238 30.7754 24.9238 29.9688L24.9238 26.8652L18.6348 26.8652L18.6348 29.9688C18.6348 30.7754 19.127 31.377 19.9199 31.377ZM21.793 30.0098C21.2324 30.0098 20.7539 29.5449 20.7539 28.9707C20.7539 28.4375 21.2324 27.9727 21.793 27.9727C22.3398 27.9727 22.8184 28.4375 22.8184 28.9707C22.8184 29.5449 22.3398 30.0098 21.793 30.0098ZM18.8809 27.4668L24.6914 27.4668C25.5664 27.4668 26.332 27.2344 26.7559 26.4277L29.8047 20.6309C30.0781 20.125 29.8457 19.7422 29.3535 19.7422L14.2051 19.7422C13.7266 19.7422 13.4805 20.125 13.7539 20.6309L16.8027 26.4277C17.2129 27.207 17.9922 27.4668 18.8809 27.4668ZM13.5078 12.4688L15.4082 9.14648L13.9727 8.28516C13.7539 8.13477 13.6719 8.05273 13.6719 7.80664L13.6719 6.125C13.6719 5.38672 13.248 4.97656 12.5098 4.97656L10.9238 4.97656C10.1855 4.97656 9.76172 5.38672 9.76172 6.125L9.76172 8.62695C9.76172 9.83008 10.0215 10.377 10.8145 10.8691ZM35.123 28.7246C38.1309 30.0234 39.9219 28.6426 39.9219 25.9629L39.9219 22.1348C39.9219 21.4102 39.5117 20.9863 38.7734 20.9863L37.1875 20.9863C36.4355 20.9863 36.0117 21.4102 36.0117 22.1348L36.0117 24.4453C36.0117 24.7051 35.8887 24.8828 35.5605 24.7324L28.3828 21.6289L26.4824 24.9922ZM10.5273 5.57812L12.8379 5.57812L12.8379 1.80469C12.8379 1.16211 12.332 0.628906 11.6621 0.628906C11.0332 0.628906 10.5273 1.16211 10.5273 1.80469ZM6.93164 3.58203L16.4336 3.58203C16.9258 3.58203 17.2676 3.14453 17.2676 2.69336C17.2676 2.25586 16.9258 1.81836 16.4336 1.81836L6.93164 1.81836C6.42578 1.81836 6.09766 2.25586 6.09766 2.69336C6.09766 3.14453 6.42578 3.58203 6.93164 3.58203ZM33.2227 19.5371L42.7246 19.5371C43.2305 19.5371 43.5586 19.0996 43.5586 18.6484C43.5586 18.1973 43.2305 17.7734 42.7246 17.7734L33.2227 17.7734C32.7305 17.7734 32.3887 18.1973 32.3887 18.6484C32.3887 19.0996 32.7305 19.5371 33.2227 19.5371ZM36.832 21.2188L39.1426 21.2188L39.1426 17.6094C39.1426 16.9805 38.6367 16.4473 38.0078 16.4473C37.3379 16.4473 36.832 16.9805 36.832 17.6094ZM30.0781 12.6055L32.7852 10.9785C33.6191 10.459 33.8652 9.89844 33.8652 8.6543L33.8652 6.17969C33.8652 5.41406 33.4277 4.97656 32.6621 4.97656L31.0078 4.97656C30.2285 4.97656 29.791 5.41406 29.791 6.17969L29.791 7.79297C29.791 8.05273 29.7227 8.13477 29.4766 8.29883L28.0957 9.11914ZM30.7207 5.57812L33.0312 5.57812L33.0312 1.80469C33.0312 1.16211 32.5254 0.628906 31.8828 0.628906C31.2266 0.628906 30.7207 1.16211 30.7207 1.80469ZM27.125 3.58203L36.627 3.58203C37.1191 3.58203 37.4609 3.14453 37.4609 2.69336C37.4609 2.25586 37.1191 1.81836 36.627 1.81836L27.125 1.81836C26.6191 1.81836 26.291 2.25586 26.291 2.69336C26.291 3.14453 26.6191 3.58203 27.125 3.58203Z" fill="black" fill-opacity="0.85"/>
 </g>
</svg>
