<?xml version="1.0" encoding="UTF-8"?>
<!--Generator: Apple Native CoreSVG 326-->
<!DOCTYPE svg
PUBLIC "-//W3C//DTD SVG 1.1//EN"
       "http://www.w3.org/Graphics/SVG/1.1/DTD/svg11.dtd">
<svg version="1.1" xmlns="http://www.w3.org/2000/svg" xmlns:xlink="http://www.w3.org/1999/xlink" viewBox="0 0 28.2461 27.9043">
 <g>
  <rect height="27.9043" opacity="0" width="28.2461" x="0" y="0"/>
  <path d="M13.9453 27.8906C21.6426 27.8906 27.8906 21.6289 27.8906 13.9453C27.8906 6.24805 21.6426 0 13.9453 0C6.26172 0 0 6.24805 0 13.9453C0 21.6289 6.26172 27.8906 13.9453 27.8906Z" fill="black" fill-opacity="0.85"/>
  <path d="M13.9453 20.8496C11.0605 20.8496 9.0918 18.9766 9.0918 16.1738C9.0918 14.7793 9.69336 13.5352 10.1035 12.5918C10.8828 10.9375 12.127 8.85938 13.2207 7.20508C13.4395 6.87695 13.6582 6.72656 13.9453 6.72656C14.2324 6.72656 14.4648 6.87695 14.6699 7.20508C15.7637 8.85938 17.0215 10.9375 17.7871 12.5918C18.1973 13.5352 18.7988 14.7793 18.7988 16.1738C18.7988 18.9766 16.8301 20.8496 13.9453 20.8496Z" fill="white"/>
 </g>
</svg>
