<?xml version="1.0" encoding="UTF-8"?>
<!--Generator: Apple Native CoreSVG 326-->
<!DOCTYPE svg
PUBLIC "-//W3C//DTD SVG 1.1//EN"
       "http://www.w3.org/Graphics/SVG/1.1/DTD/svg11.dtd">
<svg version="1.1" xmlns="http://www.w3.org/2000/svg" xmlns:xlink="http://www.w3.org/1999/xlink" viewBox="0 0 29.0117 26.127">
 <g>
  <rect height="26.127" opacity="0" width="29.0117" x="0" y="0"/>
  <path d="M3.73242 25.9766L24.9238 25.9766C27.248 25.9766 28.6562 24.3633 28.6562 22.2715C28.6562 21.6289 28.4648 20.959 28.123 20.3574L17.5137 1.87305C16.8027 0.628906 15.5859 0 14.3281 0C13.0703 0 11.8398 0.628906 11.1426 1.87305L0.533203 20.3574C0.164062 20.9727 0 21.6289 0 22.2715C0 24.3633 1.4082 25.9766 3.73242 25.9766Z" fill="#ffcc00"/>
  <path d="M14.3281 20.877C11.9629 20.877 10.3633 19.332 10.3633 17.0352C10.3633 15.9004 10.8418 14.875 11.1973 14.123C11.8262 12.7559 12.8652 11.0742 13.7402 9.70703C13.9043 9.44727 14.0957 9.32422 14.3281 9.32422C14.5742 9.32422 14.752 9.44727 14.916 9.70703C15.8047 11.0742 16.8438 12.7559 17.459 14.123C17.8145 14.875 18.293 15.9004 18.293 17.0352C18.293 19.332 16.707 20.877 14.3281 20.877Z" fill="#007aff"/>
 </g>
</svg>
