<?xml version="1.0" encoding="UTF-8"?>
<!--Generator: Apple Native CoreSVG 326-->
<!DOCTYPE svg
PUBLIC "-//W3C//DTD SVG 1.1//EN"
       "http://www.w3.org/Graphics/SVG/1.1/DTD/svg11.dtd">
<svg version="1.1" xmlns="http://www.w3.org/2000/svg" xmlns:xlink="http://www.w3.org/1999/xlink" viewBox="0 0 28.2461 27.9043">
 <g>
  <rect height="27.9043" opacity="0" width="28.2461" x="0" y="0"/>
  <path d="M13.9453 27.8906C21.6426 27.8906 27.8906 21.6426 27.8906 13.9453C27.8906 6.24805 21.6426 0 13.9453 0C6.24805 0 0 6.24805 0 13.9453C0 21.6426 6.24805 27.8906 13.9453 27.8906ZM13.9453 25.5664C7.51953 25.5664 2.32422 20.3711 2.32422 13.9453C2.32422 7.51953 7.51953 2.32422 13.9453 2.32422C20.3711 2.32422 25.5664 7.51953 25.5664 13.9453C25.5664 20.3711 20.3711 25.5664 13.9453 25.5664Z" fill="black" fill-opacity="0.85"/>
  <path d="M18.4297 6.42578L9.35156 6.42578C8.36719 6.42578 7.71094 7.10938 7.71094 8.13477L7.71094 10.0625L20.0703 10.0625L20.0703 8.13477C20.0703 7.10938 19.4141 6.42578 18.4297 6.42578ZM10.2812 9.21484C9.92578 9.21484 9.63867 8.91406 9.63867 8.55859C9.63867 8.18945 9.92578 7.90234 10.2812 7.90234C10.6367 7.90234 10.9238 8.18945 10.9238 8.55859C10.9238 8.91406 10.6367 9.21484 10.2812 9.21484ZM12.168 9.21484C11.7988 9.21484 11.5254 8.91406 11.5254 8.55859C11.5254 8.18945 11.7988 7.90234 12.168 7.90234C12.5234 7.90234 12.8105 8.18945 12.8105 8.55859C12.8105 8.91406 12.5234 9.21484 12.168 9.21484ZM16.1465 8.95508C15.9141 8.95508 15.75 8.79102 15.75 8.55859C15.75 8.32617 15.9141 8.16211 16.1465 8.16211L17.9102 8.16211C18.1426 8.16211 18.3066 8.32617 18.3066 8.55859C18.3066 8.79102 18.1426 8.95508 17.9102 8.95508ZM9.35156 21.3965L18.4297 21.3965C19.4141 21.3965 20.0703 20.7266 20.0703 19.7012L20.0703 11.0332L7.71094 11.0332L7.71094 19.7012C7.71094 20.7266 8.36719 21.3965 9.35156 21.3965ZM11.1152 19.332C10.5273 19.332 10.1172 18.9355 10.1172 18.3477L10.1172 13.4941C10.1172 12.9062 10.5273 12.4961 11.1152 12.4961L16.666 12.4961C17.2539 12.4961 17.6641 12.9062 17.6641 13.4941L17.6641 18.3477C17.6641 18.9355 17.2539 19.332 16.666 19.332ZM11.2383 18.498L16.543 18.498C16.7207 18.498 16.8164 18.3887 16.8164 18.2246L16.8164 13.6172C16.8164 13.4531 16.7207 13.3301 16.543 13.3301L11.2383 13.3301C11.0605 13.3301 10.9648 13.4531 10.9648 13.6172L10.9648 18.2246C10.9648 18.3887 11.0605 18.498 11.2383 18.498Z" fill="black" fill-opacity="0.85"/>
 </g>
</svg>
