<?xml version="1.0" encoding="UTF-8"?>
<!--Generator: Apple Native CoreSVG 326-->
<!DOCTYPE svg
PUBLIC "-//W3C//DTD SVG 1.1//EN"
       "http://www.w3.org/Graphics/SVG/1.1/DTD/svg11.dtd">
<svg version="1.1" xmlns="http://www.w3.org/2000/svg" xmlns:xlink="http://www.w3.org/1999/xlink" viewBox="0 0 34.9453 20.2754">
 <g>
  <rect height="20.2754" opacity="0" width="34.9453" x="0" y="0"/>
  <path d="M2.57031 17.2129L4.32031 17.2129L4.32031 15.2852L2.58398 15.2852C2.20117 15.2852 1.92773 14.998 1.92773 14.6289L1.92773 5.61914C1.92773 5.23633 2.20117 4.93555 2.58398 4.93555L4.32031 4.93555L4.32031 3.00781L2.57031 3.00781C1.12109 3.00781 0 4.12891 0 5.57812L0 14.6562C0 16.0918 1.12109 17.2129 2.57031 17.2129ZM7 20.2344L7.9707 20.2344C10.2539 20.2344 11.5801 18.8672 11.5801 16.4746L11.5801 3.78711C11.5801 1.39453 10.2676 0 7.99805 0L6.83594 0C4.73047 0 3.51367 1.39453 3.51367 3.78711L3.51367 16.4746C3.51367 18.8672 4.78516 20.2344 7 20.2344ZM7.02734 18.1699C6.125 18.1699 5.57812 17.541 5.57812 16.4746L5.57812 3.78711C5.57812 2.70703 6.07031 2.06445 6.87695 2.06445L7.95703 2.06445C8.92773 2.06445 9.51562 2.70703 9.51562 3.78711L9.51562 16.4746C9.51562 17.541 8.92773 18.1699 7.92969 18.1699ZM11.2246 8.99609L23.3652 8.99609L23.3652 6.93164L11.2246 6.93164ZM11.2246 13.2891L23.3652 13.2891L23.3652 11.2246L11.2246 11.2246ZM26.6191 20.2344L27.5898 20.2344C29.8047 20.2344 31.0762 18.8672 31.0762 16.4746L31.0762 3.78711C31.0762 1.39453 29.8594 0 27.7402 0L26.5918 0C24.3086 0 23.0098 1.39453 23.0098 3.78711L23.0098 16.4746C23.0098 18.8672 24.3359 20.2344 26.6191 20.2344ZM26.6602 18.1699C25.6621 18.1699 25.0742 17.541 25.0742 16.4746L25.0742 3.78711C25.0742 2.70703 25.6484 2.06445 26.6328 2.06445L27.7129 2.06445C28.5195 2.06445 29.0117 2.70703 29.0117 3.78711L29.0117 16.4746C29.0117 17.541 28.4648 18.1699 27.5625 18.1699ZM30.2695 17.2129L32.0195 17.2129C33.4688 17.2129 34.5898 16.0918 34.5898 14.6562L34.5898 5.57812C34.5898 4.12891 33.4688 3.00781 32.0195 3.00781L30.2695 3.00781L30.2695 4.93555L32.0059 4.93555C32.375 4.93555 32.6621 5.23633 32.6621 5.61914L32.6621 14.6289C32.6621 14.998 32.375 15.2852 32.0059 15.2852L30.2695 15.2852Z" fill="black" fill-opacity="0.85"/>
 </g>
</svg>
