<?xml version="1.0" encoding="UTF-8"?>
<!--Generator: Apple Native CoreSVG 326-->
<!DOCTYPE svg
PUBLIC "-//W3C//DTD SVG 1.1//EN"
       "http://www.w3.org/Graphics/SVG/1.1/DTD/svg11.dtd">
<svg version="1.1" xmlns="http://www.w3.org/2000/svg" xmlns:xlink="http://www.w3.org/1999/xlink" viewBox="0 0 28.2461 27.9043">
 <g>
  <rect height="27.9043" opacity="0" width="28.2461" x="0" y="0"/>
  <path d="M13.9453 27.8906C21.6426 27.8906 27.8906 21.6426 27.8906 13.9453C27.8906 6.24805 21.6426 0 13.9453 0C6.24805 0 0 6.24805 0 13.9453C0 21.6426 6.24805 27.8906 13.9453 27.8906ZM13.9453 25.5664C7.51953 25.5664 2.32422 20.3711 2.32422 13.9453C2.32422 7.51953 7.51953 2.32422 13.9453 2.32422C20.3711 2.32422 25.5664 7.51953 25.5664 13.9453C25.5664 20.3711 20.3711 25.5664 13.9453 25.5664Z" fill="black" fill-opacity="0.85"/>
  <path d="M10.7871 20.043L17.2539 20.043C17.7734 20.043 18.1562 19.7012 18.1562 19.1543C18.1562 18.5938 17.7734 18.252 17.2539 18.252L11.8945 18.252L11.8945 14.5742L16.8984 14.5742C17.418 14.5742 17.8008 14.2734 17.8008 13.7402C17.8008 13.1797 17.418 12.8652 16.8984 12.8652L11.8945 12.8652L11.8945 9.37891L17.2539 9.37891C17.7734 9.37891 18.1562 9.02344 18.1562 8.47656C18.1562 7.91602 17.7734 7.58789 17.2539 7.58789L10.7871 7.58789C10.0762 7.58789 9.70703 8.08008 9.70703 8.81836L9.70703 18.8125C9.70703 19.5508 10.0762 20.043 10.7871 20.043Z" fill="black" fill-opacity="0.85"/>
 </g>
</svg>
