<?xml version="1.0" encoding="UTF-8"?>
<!--Generator: Apple Native CoreSVG 326-->
<!DOCTYPE svg
PUBLIC "-//W3C//DTD SVG 1.1//EN"
       "http://www.w3.org/Graphics/SVG/1.1/DTD/svg11.dtd">
<svg version="1.1" xmlns="http://www.w3.org/2000/svg" xmlns:xlink="http://www.w3.org/1999/xlink" viewBox="0 0 38.6367 26.3184">
 <g>
  <rect height="26.3184" opacity="0" width="38.6367" x="0" y="0"/>
  <path d="M32.1973 22.5586C32.1973 24.7871 30.6934 26.3184 28.6016 26.3184C26.4961 26.3184 24.9922 24.8008 24.7324 22.9004C24.6641 22.3535 24.9102 21.834 25.5254 21.793C26.1133 21.752 26.4824 22.1621 26.5645 22.668C26.7559 23.8164 27.5215 24.541 28.6016 24.541C29.6816 24.541 30.4062 23.8164 30.4062 22.5586C30.4062 20.1387 26.9473 17.9512 21.0684 17.9512L18.3203 17.9512L18.3203 16.1602L21.0684 16.1602C27.9316 16.1602 32.1973 19.0176 32.1973 22.5586ZM2.46094 17.9512C1.98242 17.9512 1.57227 17.541 1.57227 17.0488C1.57227 16.5566 1.98242 16.1602 2.46094 16.1602L10.6777 16.1602L10.6777 17.9512ZM38.2812 12.4824C38.2812 14.8066 36.5039 16.5977 34.0566 16.5977C30.6797 16.5977 29.1895 13.8633 22.2168 13.8633L18.3203 13.8633L18.3203 12.0723L22.2715 12.0723C29.5996 12.0723 31.2949 14.793 33.9336 14.8066C35.5605 14.8203 36.4902 13.6855 36.4902 12.4004C36.4902 10.9102 35.4102 10.0488 34.1934 10.0488C33.6328 10.0488 33.1816 10.2402 32.8262 10.5547C32.4297 10.8418 32.0059 10.9238 31.6367 10.623C31.2812 10.3496 31.2539 9.73438 31.6914 9.36523C32.3477 8.73633 33.2227 8.32617 34.1934 8.32617C36.4219 8.32617 38.2812 9.85742 38.2812 12.4824ZM0.902344 13.8633C0.410156 13.8633 0 13.4668 0 12.9609C0 12.4688 0.410156 12.0723 0.902344 12.0723L10.6777 12.0723L10.6777 13.8633ZM10.6777 9.77539L2.46094 9.77539C1.98242 9.77539 1.57227 9.37891 1.57227 8.88672C1.57227 8.39453 1.98242 7.98438 2.46094 7.98438L10.6777 7.98438ZM31.1855 5.04492C31.1855 7.84766 29.1211 9.77539 22.6406 9.77539L18.3203 9.77539L18.3203 7.98438L22.6953 7.98438C28.1777 7.98438 29.3945 6.75391 29.3945 5.04492C29.3945 3.77344 28.5332 3.08984 27.4121 3.08984C26.5508 3.08984 25.8398 3.63672 25.5117 4.33398C25.1836 4.89453 24.6914 5.01758 24.2539 4.79883C23.7754 4.55273 23.6797 4.0332 23.9121 3.56836C24.4863 2.2832 25.8535 1.29883 27.4121 1.29883C29.5176 1.29883 31.1855 2.78906 31.1855 5.04492Z" fill="black" fill-opacity="0.85"/>
  <path d="M14.4922 22.3262C15.4766 22.3262 16.2832 21.5332 16.2832 20.6035C16.2832 19.6602 15.4902 18.8809 14.4922 18.8809C13.5078 18.8809 12.7012 19.6602 12.7012 20.6035C12.7012 21.5332 13.5215 22.3262 14.4922 22.3262ZM14.4922 16.2559C15.1621 16.2559 15.6406 15.791 15.668 15.0938L15.9551 5.41406C15.9824 4.53906 15.3945 3.95117 14.4922 3.95117C13.5898 3.95117 13.0156 4.53906 13.043 5.41406L13.3301 15.0938C13.3574 15.791 13.8223 16.2559 14.4922 16.2559Z" fill="black" fill-opacity="0.85"/>
 </g>
</svg>
