<?xml version="1.0" encoding="UTF-8"?>
<!--Generator: Apple Native CoreSVG 326-->
<!DOCTYPE svg
PUBLIC "-//W3C//DTD SVG 1.1//EN"
       "http://www.w3.org/Graphics/SVG/1.1/DTD/svg11.dtd">
<svg version="1.1" xmlns="http://www.w3.org/2000/svg" xmlns:xlink="http://www.w3.org/1999/xlink" viewBox="0 0 24.623 28.7246">
 <g>
  <rect height="28.7246" opacity="0" width="24.623" x="0" y="0"/>
  <path d="M21.7246 4.23828L21.7246 17.9922L19.5234 17.9922L19.5234 4.34766C19.5234 2.92578 18.7578 2.20117 17.4043 2.20117L6.86328 2.20117C5.49609 2.20117 4.73047 2.92578 4.73047 4.34766L4.73047 24.3223C4.73047 25.7441 5.49609 26.4688 6.86328 26.4688L17.4043 26.4688C18.7578 26.4688 19.5234 25.7441 19.5234 24.3223L19.5234 23.7754L21.7246 23.7754L21.7246 24.4316C21.7246 27.248 20.3027 28.6699 17.4453 28.6699L6.82227 28.6699C3.97852 28.6699 2.5293 27.2617 2.5293 24.4316L2.5293 4.23828C2.5293 1.4082 3.97852 0 6.82227 0L17.4453 0C20.3027 0 21.7246 1.42188 21.7246 4.23828Z" fill="black" fill-opacity="0.85"/>
  <path d="M9.59766 13.3711C9.59766 14.2871 8.87305 15.0117 7.9707 15.0117C7.06836 15.0117 6.34375 14.2871 6.34375 13.3711C6.34375 12.4824 7.06836 11.7441 7.9707 11.7441C8.87305 11.7441 9.59766 12.4824 9.59766 13.3711ZM13.7676 13.3711C13.7676 14.2871 13.0566 15.0117 12.127 15.0117C11.2246 15.0117 10.5137 14.2871 10.5137 13.3711C10.5137 12.4824 11.2246 11.7441 12.127 11.7441C13.0566 11.7441 13.7676 12.4824 13.7676 13.3711ZM17.9238 13.3711C17.9238 14.2871 17.2129 15.0117 16.3105 15.0117C15.3945 15.0117 14.6836 14.2871 14.6836 13.3711C14.6836 12.4824 15.3945 11.7441 16.3105 11.7441C17.2129 11.7441 17.9238 12.4824 17.9238 13.3711ZM9.59766 9.36523C9.59766 10.2676 8.87305 10.9922 7.9707 10.9922C7.06836 10.9922 6.34375 10.2676 6.34375 9.36523C6.34375 8.44922 7.06836 7.72461 7.9707 7.72461C8.87305 7.72461 9.59766 8.44922 9.59766 9.36523ZM13.7676 9.36523C13.7676 10.2676 13.0566 10.9922 12.127 10.9922C11.2246 10.9922 10.5137 10.2676 10.5137 9.36523C10.5137 8.44922 11.2246 7.72461 12.127 7.72461C13.0566 7.72461 13.7676 8.44922 13.7676 9.36523ZM17.9238 9.36523C17.9238 10.2676 17.2129 10.9922 16.3105 10.9922C15.3945 10.9922 14.6836 10.2676 14.6836 9.36523C14.6836 8.44922 15.3945 7.72461 16.3105 7.72461C17.2129 7.72461 17.9238 8.44922 17.9238 9.36523ZM9.59766 5.37305C9.59766 6.24805 8.87305 6.98633 7.9707 6.98633C7.06836 6.98633 6.34375 6.24805 6.34375 5.37305C6.34375 4.45703 7.06836 3.73242 7.9707 3.73242C8.87305 3.73242 9.59766 4.45703 9.59766 5.37305ZM13.7676 5.37305C13.7676 6.24805 13.0566 6.98633 12.127 6.98633C11.2246 6.98633 10.5137 6.24805 10.5137 5.37305C10.5137 4.45703 11.2246 3.73242 12.127 3.73242C13.0566 3.73242 13.7676 4.45703 13.7676 5.37305ZM17.9238 5.37305C17.9238 6.24805 17.2129 6.98633 16.3105 6.98633C15.3945 6.98633 14.6836 6.24805 14.6836 5.37305C14.6836 4.45703 15.3945 3.73242 16.3105 3.73242C17.2129 3.73242 17.9238 4.45703 17.9238 5.37305Z" fill="black" fill-opacity="0.85"/>
  <path d="M12.127 24.9102C14.3691 24.9102 16.1602 23.1191 16.1602 20.8906C16.1602 18.6758 14.3691 16.8848 12.127 16.8848C9.89844 16.8848 8.10742 18.6758 8.10742 20.8906C8.10742 23.1191 9.89844 24.9102 12.127 24.9102ZM12.373 22.4629L21.7246 22.4629C22.5859 22.4629 23.2969 21.7656 23.2969 20.8906C23.2969 20.0156 22.5859 19.3184 21.7246 19.3184L12.373 19.3184C11.5117 19.3184 10.8008 20.0156 10.8008 20.8906C10.8008 21.7656 11.5117 22.4629 12.373 22.4629Z" fill="black" fill-opacity="0.85"/>
 </g>
</svg>
