<?xml version="1.0" encoding="UTF-8"?>
<!--Generator: Apple Native CoreSVG 326-->
<!DOCTYPE svg
PUBLIC "-//W3C//DTD SVG 1.1//EN"
       "http://www.w3.org/Graphics/SVG/1.1/DTD/svg11.dtd">
<svg version="1.1" xmlns="http://www.w3.org/2000/svg" xmlns:xlink="http://www.w3.org/1999/xlink" viewBox="0 0 33.3457 23.584">
 <g>
  <rect height="23.584" opacity="0" width="33.3457" x="0" y="0"/>
  <path d="M4.29297 23.584L29.1074 23.584C31.5547 23.584 32.9902 22.1621 32.9902 19.3457L32.9902 4.25195C32.9902 1.43555 31.541 0.0136719 28.6973 0.0136719L3.88281 0.0136719C1.43555 0.0136719 0 1.43555 0 4.25195L0 19.3457C0 22.1621 1.44922 23.584 4.29297 23.584ZM4.21094 21.4922C2.85742 21.4922 2.0918 20.7402 2.0918 19.332L2.0918 4.23828C2.0918 2.84375 2.85742 2.10547 4.21094 2.10547L28.7656 2.10547C30.1191 2.10547 30.8984 2.84375 30.8984 4.25195L30.8984 19.3457C30.8984 20.7402 30.1191 21.4922 28.7656 21.4922ZM16.4883 15.3945C17.3633 15.3945 18.2109 15.0664 18.9902 14.3555L31.8555 2.77539L30.4336 1.33984L17.8008 12.7285C17.377 13.1113 16.9395 13.2891 16.4883 13.2891C16.0371 13.2891 15.5996 13.1113 15.1758 12.7285L2.54297 1.33984L1.12109 2.77539L13.9863 14.3555C14.7656 15.0664 15.6133 15.3945 16.4883 15.3945ZM2.74805 21.834L12.4551 12.1133L11.0332 10.6914L1.32617 20.3984ZM30.2559 21.8477L31.6777 20.4121L21.957 10.6914L20.5215 12.1133Z" fill="black" fill-opacity="0.85"/>
 </g>
</svg>
