<?xml version="1.0" encoding="UTF-8"?>
<!--Generator: Apple Native CoreSVG 326-->
<!DOCTYPE svg
PUBLIC "-//W3C//DTD SVG 1.1//EN"
       "http://www.w3.org/Graphics/SVG/1.1/DTD/svg11.dtd">
<svg version="1.1" xmlns="http://www.w3.org/2000/svg" xmlns:xlink="http://www.w3.org/1999/xlink" viewBox="0 0 33.332 31.623">
 <g>
  <rect height="31.623" opacity="0" width="33.332" x="0" y="0"/>
  <path d="M0.205078 29.0527L10.3496 19.9062L2.88477 12.4551C2.50195 12.0723 2.5293 11.5117 3.00781 11.1973L15.1621 2.81641C16.1328 2.14648 16.8438 2.14648 17.8145 2.81641L29.9688 11.1973C30.4473 11.5117 30.4609 12.0859 30.0918 12.4551L22.627 19.9062L32.7715 29.0527C32.9082 28.5605 32.9766 28.0137 32.9766 27.3984L32.9766 13.5352C32.9766 11.5664 32.6348 10.623 31.2676 9.66602L19.2773 1.32617C17.2129-0.123047 15.7637-0.123047 13.6992 1.32617L1.70898 9.66602C0.355469 10.623 0 11.5664 0 13.5352L0 27.3984C0 28.0137 0.0820312 28.5605 0.205078 29.0527ZM4.29297 31.623L28.6973 31.623C30.1738 31.623 31.1035 31.2539 31.7734 30.666L18.334 18.5664C17.7324 18.0195 17.1172 17.7734 16.4883 17.7734C15.8594 17.7734 15.2441 18.0195 14.6426 18.5664L1.2168 30.6523C1.88672 31.2539 2.81641 31.623 4.29297 31.623Z" fill="black" fill-opacity="0.85"/>
 </g>
</svg>
