<?xml version="1.0" encoding="UTF-8"?>
<!--Generator: Apple Native CoreSVG 326-->
<!DOCTYPE svg
PUBLIC "-//W3C//DTD SVG 1.1//EN"
       "http://www.w3.org/Graphics/SVG/1.1/DTD/svg11.dtd">
<svg version="1.1" xmlns="http://www.w3.org/2000/svg" xmlns:xlink="http://www.w3.org/1999/xlink" viewBox="0 0 33.3457 32.4434">
 <g>
  <rect height="32.4434" opacity="0" width="33.3457" x="0" y="0"/>
  <path d="M28.6973 8.87305L4.29297 8.87305C3.11719 8.87305 2.26953 9.0918 1.51758 9.58398L15.1758 21.6152C15.6133 21.998 16.0508 22.1758 16.4883 22.1758C16.9395 22.1758 17.377 21.998 17.8008 21.6152L31.459 9.58398C30.7207 9.0918 29.873 8.87305 28.6973 8.87305ZM0.355469 30.2148L10.4727 20.125L0.328125 11.1836C0.177734 11.457 0 12.1543 0 13.1113L0 28.2051C0 29.0801 0.136719 29.709 0.355469 30.2148ZM3.88281 32.4434L29.1074 32.4434C30.1055 32.4434 30.8848 32.1973 31.4043 31.8418L21 21.4375L19.0039 23.2148C18.2109 23.8984 17.3496 24.2676 16.4883 24.2676C15.6406 24.2676 14.7793 23.8984 13.9863 23.2148L11.9902 21.4375L1.58594 31.8418C2.10547 32.1973 2.87109 32.4434 3.88281 32.4434ZM32.6348 30.2148C32.8398 29.709 32.9902 29.0801 32.9902 28.2051L32.9902 13.1113C32.9902 12.1543 32.8125 11.457 32.6621 11.1836L22.5176 20.125ZM6.63086 3.34961C6.15234 2.85742 6.28906 2.25586 6.9043 1.98242L10.623 0.328125C11.3887-0.0136719 11.9082 0.382812 11.7578 1.18945L11.4707 2.625C13.6172 3.04883 15.9688 4.42969 16.4883 5.97461C17.0215 4.42969 19.373 3.04883 21.5059 2.625L21.2324 1.18945C21.082 0.382812 21.6016-0.0136719 22.3672 0.328125L26.0723 1.98242C26.7012 2.25586 26.8242 2.85742 26.3594 3.34961L23.5293 6.30273C22.9277 6.9043 22.2988 6.72656 22.1484 5.90625L21.8613 4.45703C18.9629 4.94922 17.582 6.69922 17.582 8.81836L17.582 15.1758C17.582 15.8594 17.1309 16.3242 16.4883 16.3242C15.8457 16.3242 15.4082 15.8594 15.4082 15.1758L15.4082 8.81836C15.4082 6.69922 14.0273 4.94922 11.1289 4.45703L10.8418 5.90625C10.6914 6.72656 10.0625 6.9043 9.46094 6.30273Z" fill="black" fill-opacity="0.85"/>
 </g>
</svg>
