<?xml version="1.0" encoding="UTF-8"?>
<!--Generator: Apple Native CoreSVG 326-->
<!DOCTYPE svg
PUBLIC "-//W3C//DTD SVG 1.1//EN"
       "http://www.w3.org/Graphics/SVG/1.1/DTD/svg11.dtd">
<svg version="1.1" xmlns="http://www.w3.org/2000/svg" xmlns:xlink="http://www.w3.org/1999/xlink" viewBox="0 0 33.3457 23.584">
 <g>
  <rect height="23.584" opacity="0" width="33.3457" x="0" y="0"/>
  <path d="M4.29297 23.584L29.1074 23.584C31.5547 23.584 32.9902 22.1621 32.9902 19.3457L32.9902 4.25195C32.9902 1.43555 31.541 0.0136719 28.6973 0.0136719L3.88281 0.0136719C1.43555 0.0136719 0 1.43555 0 4.25195L0 19.3457C0 22.1621 1.44922 23.584 4.29297 23.584ZM24.2812 8.90039C23.666 8.90039 23.2012 8.43555 23.2012 7.82031L23.2012 5.19531C23.2012 4.58008 23.666 4.11523 24.2812 4.11523L27.8633 4.11523C28.5059 4.11523 28.9707 4.58008 28.9707 5.19531L28.9707 7.82031C28.9707 8.43555 28.5059 8.90039 27.8633 8.90039ZM11.1152 14.2461C10.6367 14.2461 10.2402 13.8633 10.2402 13.3711C10.2402 12.8789 10.6367 12.4824 11.1152 12.4824L21.6699 12.4824C22.1621 12.4824 22.5586 12.8789 22.5586 13.3711C22.5586 13.8633 22.1621 14.2461 21.6699 14.2461ZM11.1152 17.9648C10.6367 17.9648 10.2402 17.5684 10.2402 17.0762C10.2402 16.5977 10.6367 16.2148 11.1152 16.2148L18.457 16.2148C18.9492 16.2148 19.332 16.5977 19.332 17.0762C19.332 17.5684 18.9492 17.9648 18.457 17.9648Z" fill="black" fill-opacity="0.85"/>
 </g>
</svg>
