<?xml version="1.0" encoding="UTF-8"?>
<!--Generator: Apple Native CoreSVG 326-->
<!DOCTYPE svg
PUBLIC "-//W3C//DTD SVG 1.1//EN"
       "http://www.w3.org/Graphics/SVG/1.1/DTD/svg11.dtd">
<svg version="1.1" xmlns="http://www.w3.org/2000/svg" xmlns:xlink="http://www.w3.org/1999/xlink" viewBox="0 0 19.3867 11.1152">
 <g>
  <rect height="11.1152" opacity="0" width="19.3867" x="0" y="0"/>
  <path d="M1.2168 2.47461L17.8145 2.47461C18.4707 2.47461 19.0312 1.91406 19.0312 1.24414C19.0312 0.574219 18.4707 0.0273438 17.8145 0.0273438L1.2168 0.0273438C0.560547 0.0273438 0 0.574219 0 1.24414C0 1.91406 0.560547 2.47461 1.2168 2.47461ZM1.2168 11.1152L17.8145 11.1152C18.4707 11.1152 19.0312 10.5684 19.0312 9.89844C19.0312 9.22852 18.4707 8.66797 17.8145 8.66797L1.2168 8.66797C0.560547 8.66797 0 9.22852 0 9.89844C0 10.5684 0.560547 11.1152 1.2168 11.1152Z" fill="black" fill-opacity="0.85"/>
 </g>
</svg>
