<?xml version="1.0" encoding="UTF-8"?>
<!--Generator: Apple Native CoreSVG 326-->
<!DOCTYPE svg
PUBLIC "-//W3C//DTD SVG 1.1//EN"
       "http://www.w3.org/Graphics/SVG/1.1/DTD/svg11.dtd">
<svg version="1.1" xmlns="http://www.w3.org/2000/svg" xmlns:xlink="http://www.w3.org/1999/xlink" viewBox="0 0 27.6337 27.5083">
 <g>
  <rect height="27.5083" opacity="0" width="27.6337" x="0" y="0"/>
  <path d="M1.58736 20.4055L6.87838 25.6829C8.94283 27.7337 11.2534 27.8157 13.1948 25.8743L26.3745 12.6809C27.5913 11.4778 27.5776 9.74147 26.3335 8.49733L18.7729 0.950452C17.5288-0.293689 15.8061-0.321033 14.5893 0.895764L1.40963 14.0755C-0.531781 16.0305-0.463422 18.3411 1.58736 20.4055ZM3.14595 18.8469C2.09322 17.7805 2.03853 16.5637 3.03658 15.552L16.0522 2.53639C16.4077 2.18092 16.8999 2.18092 17.2417 2.52272L24.7612 10.0422C25.103 10.384 25.0893 10.8626 24.7475 11.2044L11.7182 24.2337C10.7202 25.2454 9.50338 25.1907 8.43697 24.1243ZM3.58345 13.4055L13.8647 23.7005L15.2319 22.3333L4.97798 12.0794Z" fill="black" fill-opacity="0.85"/>
 </g>
</svg>
