<?xml version="1.0" encoding="UTF-8"?>
<!--Generator: Apple Native CoreSVG 326-->
<!DOCTYPE svg
PUBLIC "-//W3C//DTD SVG 1.1//EN"
       "http://www.w3.org/Graphics/SVG/1.1/DTD/svg11.dtd">
<svg version="1.1" xmlns="http://www.w3.org/2000/svg" xmlns:xlink="http://www.w3.org/1999/xlink" viewBox="0 0 25.7031 25.1973">
 <g>
  <rect height="25.1973" opacity="0" width="25.7031" x="0" y="0"/>
  <path d="M0 20.959C0 23.7891 1.43555 25.1973 4.29297 25.1973L5.1543 25.1973L5.1543 22.5586C5.1543 22.0664 5.53711 21.6836 6.04297 21.6836C6.54883 21.6836 6.93164 22.0664 6.93164 22.5586L6.93164 25.1973L9.58398 25.1973L9.58398 22.5586C9.58398 22.0664 9.9668 21.6836 10.4727 21.6836C10.9785 21.6836 11.3613 22.0664 11.3613 22.5586L11.3613 25.1973L14.0137 25.1973L14.0137 22.5586C14.0137 22.0664 14.3965 21.6836 14.9023 21.6836C15.4082 21.6836 15.791 22.0664 15.791 22.5586L15.791 25.1973L18.4434 25.1973L18.4434 22.5586C18.4434 22.0664 18.8262 21.6836 19.332 21.6836C19.8379 21.6836 20.2207 22.0664 20.2207 22.5586L20.2207 25.1973L21.0547 25.1973C23.9121 25.1973 25.3477 23.7754 25.3477 20.959L25.3477 4.26562C25.3477 1.44922 23.9121 0.0273438 21.0547 0.0273438L20.2207 0.0273438L20.2207 2.66602C20.2207 3.1582 19.8379 3.54102 19.332 3.54102C18.8262 3.54102 18.4434 3.1582 18.4434 2.66602L18.4434 0.0273438L15.791 0.0273438L15.791 2.66602C15.791 3.1582 15.4082 3.54102 14.9023 3.54102C14.3965 3.54102 14.0137 3.1582 14.0137 2.66602L14.0137 0.0273438L11.3613 0.0273438L11.3613 2.66602C11.3613 3.1582 10.9785 3.54102 10.4727 3.54102C9.9668 3.54102 9.58398 3.1582 9.58398 2.66602L9.58398 0.0273438L6.93164 0.0273438L6.93164 2.66602C6.93164 3.1582 6.54883 3.54102 6.04297 3.54102C5.53711 3.54102 5.1543 3.1582 5.1543 2.66602L5.1543 0.0273438L4.29297 0.0273438C1.43555 0.0273438 0 1.43555 0 4.26562ZM5.50977 16.8711L5.50977 8.35352C5.50977 7.58789 6.04297 7.08203 6.80859 7.08203L18.5391 7.08203C19.3184 7.08203 19.8242 7.58789 19.8242 8.35352L19.8242 16.8711C19.8242 17.6367 19.3184 18.1426 18.5391 18.1426L6.80859 18.1426C6.04297 18.1426 5.50977 17.6367 5.50977 16.8711Z" fill="black" fill-opacity="0.85"/>
 </g>
</svg>
