<?xml version="1.0" encoding="UTF-8"?>
<!--Generator: Apple Native CoreSVG 326-->
<!DOCTYPE svg
PUBLIC "-//W3C//DTD SVG 1.1//EN"
       "http://www.w3.org/Graphics/SVG/1.1/DTD/svg11.dtd">
<svg version="1.1" xmlns="http://www.w3.org/2000/svg" xmlns:xlink="http://www.w3.org/1999/xlink" viewBox="0 0 33.5408 27.9043">
 <g>
  <rect height="27.9043" opacity="0" width="33.5408" x="0" y="0"/>
  <path d="M16.5995 27.8906C24.2968 27.8906 30.5448 21.6426 30.5448 13.9453C30.5448 6.24805 24.2968 0 16.5995 0C8.90224 0 2.65419 6.24805 2.65419 13.9453L4.97841 13.9453C4.97841 7.51953 10.1737 2.32422 16.5995 2.32422C23.0253 2.32422 28.2206 7.51953 28.2206 13.9453C28.2206 20.3711 23.0253 25.5664 16.5995 25.5664C12.7167 25.5664 9.2577 23.6523 7.19325 20.7539C6.76942 20.1934 6.12684 20.0156 5.55263 20.3574C5.00575 20.6992 4.84169 21.4648 5.30653 22.0664C7.83583 25.6074 11.9784 27.8906 16.5995 27.8906ZM0.972548 11.3066C-0.0118272 11.3066-0.257921 11.9766 0.275282 12.7422L3.33778 17.0898C3.78895 17.7188 4.4452 17.7051 4.8827 17.0898L7.93153 12.7285C8.46474 11.9766 8.20497 11.3066 7.24794 11.3066Z" fill="black" fill-opacity="0.85"/>
  <path d="M18.2675 19.9609C18.6503 19.9609 19.1288 19.9336 19.4979 19.8516C19.9218 19.7422 20.2362 19.5508 20.2362 19.1406C20.2362 18.7031 19.9491 18.498 19.5116 18.498C19.0604 18.498 18.8964 18.5527 18.3495 18.5527C15.41 18.5527 13.6054 16.8848 13.6054 13.8906C13.6054 10.9375 15.3007 9.20117 18.3085 9.20117C18.8007 9.20117 19.2245 9.25586 19.5116 9.25586C19.9491 9.25586 20.2362 9.03711 20.2362 8.59961C20.2362 8.23047 20.0038 7.99805 19.4979 7.875C19.1835 7.80664 18.746 7.76562 18.2675 7.76562C14.8495 7.76562 11.9647 9.7207 11.9647 13.877C11.9647 17.7871 14.5487 19.9609 18.2675 19.9609ZM10.1054 12.6328C10.1054 12.8789 10.3104 13.084 10.5702 13.084L18.1308 13.084C18.3768 13.084 18.5819 12.8789 18.5819 12.6328C18.5819 12.3867 18.3768 12.1816 18.1308 12.1816L10.5702 12.1816C10.3104 12.1816 10.1054 12.3867 10.1054 12.6328ZM10.1054 15.0938C10.1054 15.3398 10.3104 15.5449 10.5702 15.5449L18.1308 15.5449C18.3768 15.5449 18.5819 15.3398 18.5819 15.0938C18.5819 14.834 18.3768 14.6289 18.1308 14.6289L10.5702 14.6289C10.3104 14.6289 10.1054 14.834 10.1054 15.0938Z" fill="black" fill-opacity="0.85"/>
 </g>
</svg>
