<?xml version="1.0" encoding="UTF-8"?>
<!--Generator: Apple Native CoreSVG 326-->
<!DOCTYPE svg
PUBLIC "-//W3C//DTD SVG 1.1//EN"
       "http://www.w3.org/Graphics/SVG/1.1/DTD/svg11.dtd">
<svg version="1.1" xmlns="http://www.w3.org/2000/svg" xmlns:xlink="http://www.w3.org/1999/xlink" viewBox="0 0 33.291 27.3099">
 <g>
  <rect height="27.3099" opacity="0" width="33.291" x="0" y="0"/>
  <path d="M32.9355 16.3962C32.9355 7.78289 26.3184 0.714533 17.8965 0.00359537C17.459-0.0374203 17.1309 0.277033 17.1309 0.714533L17.1309 5.18524C17.1309 5.55438 17.3906 5.84149 17.7598 5.86883C22.9961 6.51141 27.0703 10.9821 27.0703 16.3962C27.0703 18.8571 26.2227 21.1266 24.7324 23.027C24.541 23.2595 24.5547 23.5602 24.7598 23.779L28.0273 27.0329C28.3281 27.3337 28.793 27.3337 29.0664 27.0055C31.4863 24.1345 32.9355 20.4294 32.9355 16.3962Z" fill="black" fill-opacity="0.85"/>
  <path d="M0 16.3962C0 20.443 1.44922 24.1481 3.86914 27.0192C4.14258 27.3473 4.59375 27.3337 4.9082 27.0329L8.17578 23.779C8.38086 23.5602 8.39453 23.2595 8.20312 23.027C6.69922 21.1266 5.86523 18.8571 5.86523 16.3962C5.86523 10.9821 9.93945 6.51141 15.1758 5.86883C15.5449 5.84149 15.8047 5.55438 15.8047 5.18524L15.8047 0.714533C15.8047 0.277033 15.4766-0.0374203 15.0391 0.00359537C6.61719 0.714533 0 7.78289 0 16.3962Z" fill="black" fill-opacity="0.85"/>
  <path d="M10.7734 21.8102L14.8477 21.8102C15.2441 21.8102 15.5039 21.5641 15.5039 21.1677C15.5039 20.7575 15.2441 20.5251 14.8477 20.5251L11.5254 20.5251L11.5254 17.1071L14.6973 17.1071C15.0664 17.1071 15.3125 16.8473 15.3125 16.4919C15.3125 16.1227 15.0664 15.8903 14.6973 15.8903L11.5254 15.8903L11.5254 12.6501L14.8477 12.6501C15.2441 12.6501 15.5039 12.4177 15.5039 12.0075C15.5039 11.611 15.2441 11.3923 14.8477 11.3923L10.7734 11.3923C10.3086 11.3923 10.0488 11.6794 10.0488 12.1442L10.0488 21.0309C10.0488 21.5095 10.2949 21.8102 10.7734 21.8102ZM17.7461 21.8102L22.75 21.8102C23.1328 21.8102 23.3652 21.5368 23.3652 21.1677C23.3652 20.7848 23.1328 20.5251 22.75 20.5251L18.7168 20.5251L18.7168 20.4567L23.0098 12.7595C23.1328 12.5544 23.2285 12.363 23.2285 12.1032C23.2285 11.7067 22.9688 11.3923 22.4629 11.3923L17.7051 11.3923C17.3086 11.3923 17.0352 11.6247 17.0352 12.0075C17.0352 12.404 17.3086 12.6501 17.7051 12.6501L21.5605 12.6501L21.5605 12.7184L17.1992 20.443C17.0898 20.6481 17.0078 20.8532 17.0078 21.0856C17.0078 21.5641 17.3633 21.8102 17.7461 21.8102Z" fill="black" fill-opacity="0.85"/>
 </g>
</svg>
