<?xml version="1.0" encoding="UTF-8"?>
<!--Generator: Apple Native CoreSVG 326-->
<!DOCTYPE svg
PUBLIC "-//W3C//DTD SVG 1.1//EN"
       "http://www.w3.org/Graphics/SVG/1.1/DTD/svg11.dtd">
<svg version="1.1" xmlns="http://www.w3.org/2000/svg" xmlns:xlink="http://www.w3.org/1999/xlink" viewBox="0 0 33.291 27.4395">
 <g>
  <rect height="27.4395" opacity="0" width="33.291" x="0" y="0"/>
  <path d="M32.9355 16.4609C32.9355 12.4414 31.4863 8.73633 29.0664 5.86523C28.793 5.53711 28.3281 5.53711 28.0273 5.85156L24.8555 9.02344C24.5957 9.2832 24.582 9.65234 24.8145 9.93945C26.2227 11.7441 27.0703 14.0137 27.0703 16.4609C27.0703 18.9219 26.2227 21.1914 24.7324 23.0918C24.541 23.3242 24.5547 23.625 24.7598 23.8438L28.0137 27.0977C28.3281 27.4121 28.7793 27.4121 29.0664 27.0703C31.4863 24.1992 32.9355 20.4941 32.9355 16.4609Z" fill="black" fill-opacity="0.85"/>
  <path d="M16.4609 5.86523C18.9355 5.86523 21.2051 6.72656 23.0234 8.13477C23.2969 8.35352 23.6523 8.32617 23.9121 8.06641L27.084 4.89453C27.3984 4.58008 27.3848 4.12891 27.0566 3.85547C24.1992 1.44922 20.4941 0 16.4609 0C12.4414 0 8.73633 1.44922 5.87891 3.85547C5.55078 4.12891 5.53711 4.58008 5.85156 4.89453L9.02344 8.06641C9.2832 8.32617 9.65234 8.35352 9.95312 8.12109C11.7578 6.72656 14.0137 5.86523 16.4609 5.86523Z" fill="black" fill-opacity="0.85"/>
  <path d="M0 16.4609C0 20.4941 1.44922 24.1992 3.86914 27.0703C4.14258 27.4121 4.60742 27.4121 4.9082 27.0977L8.16211 23.8438C8.36719 23.625 8.39453 23.3242 8.20312 23.0918C6.71289 21.1914 5.86523 18.9219 5.86523 16.4609C5.86523 14.0137 6.69922 11.7441 8.12109 9.93945C8.33984 9.65234 8.33984 9.2832 8.08008 9.02344L4.9082 5.85156C4.59375 5.53711 4.14258 5.53711 3.86914 5.86523C1.44922 8.73633 0 12.4414 0 16.4609Z" fill="black" fill-opacity="0.85"/>
  <path d="M10.7734 21.875L14.8477 21.875C15.2441 21.875 15.5039 21.6289 15.5039 21.2324C15.5039 20.8223 15.2441 20.5898 14.8477 20.5898L11.5254 20.5898L11.5254 17.1719L14.6973 17.1719C15.0664 17.1719 15.3125 16.9121 15.3125 16.5566C15.3125 16.1875 15.0664 15.9551 14.6973 15.9551L11.5254 15.9551L11.5254 12.7148L14.8477 12.7148C15.2441 12.7148 15.5039 12.4824 15.5039 12.0723C15.5039 11.6758 15.2441 11.457 14.8477 11.457L10.7734 11.457C10.3086 11.457 10.0488 11.7441 10.0488 12.209L10.0488 21.0957C10.0488 21.5742 10.2949 21.875 10.7734 21.875ZM17.7461 21.875L22.75 21.875C23.1328 21.875 23.3652 21.6016 23.3652 21.2324C23.3652 20.8496 23.1328 20.5898 22.75 20.5898L18.7168 20.5898L18.7168 20.5215L23.0098 12.8242C23.1328 12.6191 23.2285 12.4277 23.2285 12.168C23.2285 11.7715 22.9688 11.457 22.4629 11.457L17.7051 11.457C17.3086 11.457 17.0352 11.6895 17.0352 12.0723C17.0352 12.4688 17.3086 12.7148 17.7051 12.7148L21.5605 12.7148L21.5605 12.7832L17.1992 20.5078C17.0898 20.7129 17.0078 20.918 17.0078 21.1504C17.0078 21.6289 17.3633 21.875 17.7461 21.875Z" fill="black" fill-opacity="0.85"/>
 </g>
</svg>
