<?xml version="1.0" encoding="UTF-8"?>
<!--Generator: Apple Native CoreSVG 326-->
<!DOCTYPE svg
PUBLIC "-//W3C//DTD SVG 1.1//EN"
       "http://www.w3.org/Graphics/SVG/1.1/DTD/svg11.dtd">
<svg version="1.1" xmlns="http://www.w3.org/2000/svg" xmlns:xlink="http://www.w3.org/1999/xlink" viewBox="0 0 25.5254 25.1699">
 <g>
  <rect height="25.1699" opacity="0" width="25.5254" x="0" y="0"/>
  <path d="M4.29297 25.1699L20.877 25.1699C23.748 25.1699 25.1699 23.7617 25.1699 20.9453L25.1699 4.23828C25.1699 1.42188 23.748 0 20.877 0L4.29297 0C1.43555 0 0 1.42188 0 4.23828L0 20.9453C0 23.7617 1.43555 25.1699 4.29297 25.1699ZM4.32031 22.9688C2.95312 22.9688 2.20117 22.2441 2.20117 20.8223L2.20117 4.36133C2.20117 2.93945 2.95312 2.20117 4.32031 2.20117L20.8496 2.20117C22.2031 2.20117 22.9688 2.93945 22.9688 4.36133L22.9688 20.8223C22.9688 22.2441 22.2031 22.9688 20.8496 22.9688Z" fill="black" fill-opacity="0.85"/>
  <path d="M6.61719 18.0742L10.8965 18.0742C11.3203 18.0742 11.5938 17.8281 11.5938 17.4043C11.5938 16.9805 11.3203 16.7344 10.8965 16.7344L7.39648 16.7344L7.39648 13.125L10.7461 13.125C11.1289 13.125 11.3887 12.8652 11.3887 12.4824C11.3887 12.0996 11.1289 11.8535 10.7461 11.8535L7.39648 11.8535L7.39648 8.43555L10.8965 8.43555C11.3203 8.43555 11.5938 8.18945 11.5938 7.76562C11.5938 7.3418 11.3203 7.10938 10.8965 7.10938L6.61719 7.10938C6.125 7.10938 5.85156 7.42383 5.85156 7.90234L5.85156 17.2676C5.85156 17.7734 6.11133 18.0742 6.61719 18.0742ZM13.959 18.0742L19.2227 18.0742C19.6191 18.0742 19.8652 17.8008 19.8652 17.4043C19.8652 17.0078 19.6191 16.7344 19.2227 16.7344L14.9844 16.7344L14.9844 16.666L19.4961 8.55859C19.6191 8.33984 19.7148 8.13477 19.7148 7.86133C19.7148 7.45117 19.4551 7.10938 18.9219 7.10938L13.9043 7.10938C13.4941 7.10938 13.207 7.35547 13.207 7.76562C13.207 8.17578 13.4941 8.43555 13.9043 8.43555L17.9648 8.43555L17.9648 8.51758L13.3848 16.6523C13.2617 16.8574 13.1797 17.0762 13.1797 17.3223C13.1797 17.8281 13.5488 18.0742 13.959 18.0742Z" fill="black" fill-opacity="0.85"/>
 </g>
</svg>
