<?xml version="1.0" encoding="UTF-8"?>
<!--Generator: Apple Native CoreSVG 326-->
<!DOCTYPE svg
PUBLIC "-//W3C//DTD SVG 1.1//EN"
       "http://www.w3.org/Graphics/SVG/1.1/DTD/svg11.dtd">
<svg version="1.1" xmlns="http://www.w3.org/2000/svg" xmlns:xlink="http://www.w3.org/1999/xlink" viewBox="0 0 36.8525 37.2423">
 <g>
  <rect height="37.2423" opacity="0" width="36.8525" x="0" y="0"/>
  <path d="M24.5991 30.6946L24.5991 31.6573L25.5631 31.6573L26.7537 32.8462C26.6986 33.4112 26.2183 33.8584 25.6655 33.8584L5.59521 33.8584C5.00732 33.8584 4.51514 33.3526 4.51514 32.7373C4.51514 32.1358 5.021 31.6573 5.59521 31.6573L6.68896 31.6573L6.68896 12.8092ZM35.1265 7.74515L35.1265 10.2198L36.0015 10.2198C36.2476 10.2198 36.4253 10.4112 36.4253 10.6983L36.4253 12.544C36.4253 13.6104 35.9604 14.5264 35.0854 15.169C34.5112 15.6338 33.5815 15.9619 33.5815 17.1924L33.5815 25.9151C33.5815 28.0093 32.8396 29.4561 31.4853 30.0818L30.1412 28.7383C31.2861 28.5551 31.9272 27.5501 31.9272 25.9151L31.9272 17.1924C31.9272 15.9619 31.0112 15.6338 30.4097 15.169C29.562 14.5264 29.0835 13.6104 29.0835 12.544L29.0835 10.6983C29.0835 10.4112 29.2476 10.2198 29.521 10.2198L30.5601 10.2198L30.5601 7.74515C30.5601 7.37601 30.8472 7.06156 31.2437 7.06156C31.6128 7.06156 31.9136 7.37601 31.9136 7.74515L31.9136 10.2198L33.7456 10.2198L33.7456 7.74515C33.7456 7.37601 34.0601 7.06156 34.4292 7.06156C34.812 7.06156 35.1265 7.37601 35.1265 7.74515ZM24.5991 6.84281L24.5991 14.5546C27.0212 15.558 28.0171 17.2736 28.0171 19.4756C28.0171 21.8033 27.7202 24.3289 27.6945 26.2927L26.0942 24.6931C26.1877 22.9265 26.3628 21.0734 26.3628 19.4756C26.3628 18.2148 25.8379 17.1235 24.5991 16.3832L24.5991 23.1988L17.1538 15.7569L20.7026 15.7569C21.7007 15.7569 22.3022 15.21 22.3022 14.294L22.3022 7.15726C22.3022 6.22757 21.7007 5.66703 20.7026 5.66703L10.5718 5.66703C9.57373 5.66703 8.97217 6.22757 8.97217 7.15726L8.97217 7.57904L6.87352 5.48136C7.28199 4.10668 8.38897 3.37015 10.1343 3.37015L21.1401 3.37015C23.3687 3.37015 24.5991 4.60062 24.5991 6.84281Z" fill="black" fill-opacity="0.85"/>
  <path d="M31.5034 35.3487C31.9272 35.7588 32.5972 35.7588 32.9937 35.3487C33.4038 34.9248 33.4175 34.2549 32.9937 33.8448L3.39404 4.27249C2.98389 3.86234 2.31396 3.86234 1.89014 4.27249C1.49365 4.66898 1.49365 5.36624 1.89014 5.76273Z" fill="black" fill-opacity="0.85"/>
 </g>
</svg>
