<?xml version="1.0" encoding="UTF-8"?>
<!--Generator: Apple Native CoreSVG 326-->
<!DOCTYPE svg
PUBLIC "-//W3C//DTD SVG 1.1//EN"
       "http://www.w3.org/Graphics/SVG/1.1/DTD/svg11.dtd">
<svg version="1.1" xmlns="http://www.w3.org/2000/svg" xmlns:xlink="http://www.w3.org/1999/xlink" viewBox="0 0 42.9434 30.502">
 <g>
  <rect height="30.502" opacity="0" width="42.9434" x="0" y="0"/>
  <path d="M20.084 29.4629L20.084 3.47266C20.084 1.23047 18.8535 0 16.625 0L5.60547 0C3.34961 0 2.16016 1.23047 2.16016 3.47266L2.16016 29.4629ZM6.04297 12.3867C5.05859 12.3867 4.45703 11.8398 4.45703 10.9238L4.45703 3.78711C4.45703 2.85742 5.05859 2.29688 6.04297 2.29688L16.1875 2.29688C17.1719 2.29688 17.7871 2.85742 17.7871 3.78711L17.7871 10.9238C17.7871 11.8398 17.1719 12.3867 16.1875 12.3867ZM0 29.3672C0 29.9824 0.478516 30.4883 1.08008 30.4883L21.1367 30.4883C21.7383 30.4883 22.2441 29.9824 22.2441 29.3672C22.2441 28.7793 21.7383 28.2871 21.1367 28.2871L1.08008 28.2871C0.492188 28.2871 0 28.7656 0 29.3672ZM27.4121 13.8223L27.4121 22.5449C27.4121 24.3633 26.6191 25.4023 25.2246 25.4023C23.9668 25.4023 23.1738 24.5684 23.1738 23.2285C23.1738 21.2188 23.502 18.5527 23.502 16.1055C23.502 13.7129 22.3262 11.8945 19.4277 10.9375L18.7578 12.4414C20.959 13.1113 21.8477 14.4648 21.8477 16.1055C21.8477 18.293 21.5195 20.959 21.5195 23.2285C21.5195 25.5801 22.9414 27.0703 25.2246 27.0703C27.6719 27.0703 29.0664 25.416 29.0664 22.5449L29.0664 13.8223C29.0664 12.5918 29.9824 12.2637 30.5703 11.7988C31.4453 11.1562 31.9102 10.2402 31.9102 9.17383L31.9102 7.32812C31.9102 7.04102 31.7324 6.84961 31.4863 6.84961L30.6113 6.84961L30.6113 4.375C30.6113 4.00586 30.2969 3.69141 29.9141 3.69141C29.5449 3.69141 29.2168 4.00586 29.2168 4.375L29.2305 6.84961L27.3984 6.84961L27.3984 4.375C27.3984 4.00586 27.0977 3.69141 26.7285 3.69141C26.332 3.69141 26.0312 4.00586 26.0312 4.375L26.0312 6.84961L24.9922 6.84961C24.7324 6.84961 24.5547 7.04102 24.5547 7.32812L24.5547 9.17383C24.5547 10.2402 25.0332 11.1562 25.8945 11.7988C26.4961 12.2637 27.4121 12.5918 27.4121 13.8223Z" fill="black" fill-opacity="0.85"/>
  <path d="M42.1914 14.5742L35.1641 10.4043C34.6309 10.0898 33.9199 10.3496 33.9199 10.9238L33.9199 19.5371C33.9199 20.125 34.5898 20.3984 35.1641 20.0566L42.1914 15.9141C42.7383 15.5996 42.7109 14.875 42.1914 14.5742Z" fill="black" fill-opacity="0.85"/>
 </g>
</svg>
