<?xml version="1.0" encoding="UTF-8"?>
<!--Generator: Apple Native CoreSVG 326-->
<!DOCTYPE svg
PUBLIC "-//W3C//DTD SVG 1.1//EN"
       "http://www.w3.org/Graphics/SVG/1.1/DTD/svg11.dtd">
<svg version="1.1" xmlns="http://www.w3.org/2000/svg" xmlns:xlink="http://www.w3.org/1999/xlink" viewBox="0 0 42.7452 30.502">
 <g>
  <rect height="30.502" opacity="0" width="42.7452" x="0" y="0"/>
  <path d="M12.0894 29.4766L14.2769 29.4766L14.2906 3.5C14.2906 2.65234 14.7007 2.20117 15.5757 2.20117L27.0601 2.20117C27.9078 2.20117 28.359 2.63867 28.359 3.5L28.359 29.4766L30.5738 29.4766L30.5738 3.47266C30.5738 1.23047 29.3433 0 27.1011 0L15.5347 0C13.2789 0 12.0894 1.23047 12.0894 3.47266ZM16.4097 12.3867L26.2261 12.3867C26.691 12.3867 27.0328 12.0449 27.0328 11.5801L27.0328 4.33398C27.0328 3.86914 26.691 3.52734 26.2261 3.52734L16.4097 3.52734C15.9449 3.52734 15.6031 3.86914 15.6031 4.33398L15.6031 11.5801C15.6031 12.0449 15.9449 12.3867 16.4097 12.3867ZM9.91559 29.3809C9.91559 29.9961 10.4078 30.502 11.0093 30.502L31.6265 30.502C32.2281 30.502 32.734 29.9961 32.734 29.3809C32.734 28.793 32.2281 28.3008 31.6265 28.3008L11.0093 28.3008C10.4215 28.3008 9.91559 28.7793 9.91559 29.3809ZM37.9019 13.8223L37.9019 22.5449C37.9019 24.3633 37.0953 25.4023 35.7144 25.4023C34.4566 25.4023 33.65 24.5684 33.65 23.2285C33.65 21.2188 33.9781 18.5527 33.9781 16.1055C33.9781 13.7129 32.8023 11.8945 29.9175 10.9375L29.2476 12.4414C31.4488 13.1113 32.3375 14.4648 32.3375 16.1055C32.3375 18.293 32.0093 20.959 32.0093 23.2285C32.0093 25.5801 33.4312 27.0703 35.7144 27.0703C38.148 27.0703 39.5562 25.416 39.5562 22.5449L39.5562 13.8223C39.5562 12.5918 40.4722 12.2637 41.0601 11.7988C41.9351 11.1562 42.3863 10.2402 42.3863 9.17383L42.3863 7.32812C42.3863 7.04102 42.2222 6.84961 41.9625 6.84961L41.1011 6.84961L41.1011 4.375C41.1011 4.00586 40.7867 3.69141 40.3902 3.69141C40.0347 3.69141 39.7066 4.00586 39.7066 4.375L39.7066 6.84961L37.8746 6.84961L37.8882 4.375C37.8882 4.00586 37.5875 3.69141 37.2047 3.69141C36.8218 3.69141 36.5211 4.00586 36.5211 4.375L36.5211 6.84961L35.482 6.84961C35.2222 6.84961 35.0445 7.04102 35.0445 7.32812L35.0445 9.17383C35.0445 10.2402 35.523 11.1562 36.3843 11.7988C36.9859 12.2637 37.9019 12.5918 37.9019 13.8223Z" fill="black" fill-opacity="0.85"/>
  <path d="M0.399968 14.5742C-0.119563 14.875-0.146907 15.5996 0.399968 15.9141L7.42731 20.0566C8.00153 20.3984 8.67145 20.125 8.67145 19.5371L8.67145 10.9238C8.67145 10.3496 7.96051 10.0898 7.42731 10.4043Z" fill="black" fill-opacity="0.85"/>
 </g>
</svg>
