<?xml version="1.0" encoding="UTF-8"?>
<!--Generator: Apple Native CoreSVG 326-->
<!DOCTYPE svg
PUBLIC "-//W3C//DTD SVG 1.1//EN"
       "http://www.w3.org/Graphics/SVG/1.1/DTD/svg11.dtd">
<svg version="1.1" xmlns="http://www.w3.org/2000/svg" xmlns:xlink="http://www.w3.org/1999/xlink" viewBox="0 0 35.998 30.502">
 <g>
  <rect height="30.502" opacity="0" width="35.998" x="0" y="0"/>
  <path d="M24.1719 29.4629L24.1719 3.47266C24.1719 1.23047 22.9414 0 20.7129 0L9.70703 0C7.45117 0 6.26172 1.23047 6.26172 3.47266L6.26172 29.4629ZM10.1445 12.3867C9.14648 12.3867 8.54492 11.8398 8.54492 10.9238L8.54492 3.78711C8.54492 2.85742 9.14648 2.29688 10.1445 2.29688L20.2754 2.29688C21.2734 2.29688 21.875 2.85742 21.875 3.78711L21.875 10.9238C21.875 11.8398 21.2734 12.3867 20.2754 12.3867ZM4.08789 29.3672C4.08789 29.9824 4.58008 30.4883 5.16797 30.4883L25.2383 30.4883C25.8262 30.4883 26.332 29.9824 26.332 29.3672C26.332 28.7793 25.8262 28.2871 25.2383 28.2871L5.16797 28.2871C4.59375 28.2871 4.08789 28.7656 4.08789 29.3672ZM31.5 13.8223L31.5 22.5449C31.5 24.3633 30.707 25.4023 29.3125 25.4023C28.0547 25.4023 27.2617 24.5684 27.2617 23.2285C27.2617 21.2188 27.5898 18.5527 27.5898 16.1055C27.5898 13.7129 26.4141 11.8945 23.5156 10.9375L22.8594 12.4414C25.0469 13.1113 25.9355 14.4648 25.9355 16.1055C25.9355 18.293 25.6074 20.959 25.6074 23.2285C25.6074 25.5801 27.043 27.0703 29.3125 27.0703C31.7598 27.0703 33.1543 25.416 33.1543 22.5449L33.1543 13.8223C33.1543 12.5918 34.084 12.2637 34.6582 11.7988C35.5332 11.1562 35.998 10.2402 35.998 9.17383L35.998 7.32812C35.998 7.04102 35.8203 6.84961 35.5742 6.84961L34.6992 6.84961L34.6992 4.375C34.6992 4.00586 34.3848 3.69141 34.002 3.69141C33.6328 3.69141 33.3184 4.00586 33.3184 4.375L33.3184 6.84961L31.4863 6.84961L31.4863 4.375C31.4863 4.00586 31.1855 3.69141 30.8164 3.69141C30.4199 3.69141 30.1328 4.00586 30.1328 4.375L30.1328 6.84961L29.0938 6.84961C28.8203 6.84961 28.6562 7.04102 28.6562 7.32812L28.6562 9.17383C28.6562 10.2402 29.1348 11.1562 29.9824 11.7988C30.584 12.2637 31.5 12.5918 31.5 13.8223Z" fill="black" fill-opacity="0.85"/>
 </g>
</svg>
