<?xml version="1.0" encoding="UTF-8"?>
<!--Generator: Apple Native CoreSVG 326-->
<!DOCTYPE svg
PUBLIC "-//W3C//DTD SVG 1.1//EN"
       "http://www.w3.org/Graphics/SVG/1.1/DTD/svg11.dtd">
<svg version="1.1" xmlns="http://www.w3.org/2000/svg" xmlns:xlink="http://www.w3.org/1999/xlink" viewBox="0 0 37.1191 30.502">
 <g>
  <rect height="30.502" opacity="0" width="37.1191" x="0" y="0"/>
  <path d="M6.82227 29.4766L9.00977 29.4766L9.02344 3.5C9.02344 2.65234 9.43359 2.20117 10.3086 2.20117L21.793 2.20117C22.6406 2.20117 23.0918 2.63867 23.0918 3.5L23.0918 29.4766L25.293 29.4766L25.293 3.47266C25.293 1.23047 24.0762 0 21.834 0L10.2676 0C8.01172 0 6.82227 1.23047 6.82227 3.47266ZM11.1426 12.3867L20.959 12.3867C21.4238 12.3867 21.7656 12.0449 21.7656 11.5801L21.7656 4.33398C21.7656 3.86914 21.4238 3.52734 20.959 3.52734L11.1426 3.52734C10.6777 3.52734 10.3359 3.86914 10.3359 4.33398L10.3359 11.5801C10.3359 12.0449 10.6777 12.3867 11.1426 12.3867ZM4.64844 29.3809C4.64844 29.9961 5.14062 30.502 5.74219 30.502L26.3594 30.502C26.9609 30.502 27.4531 29.9961 27.4531 29.3809C27.4531 28.793 26.9609 28.3008 26.3594 28.3008L5.74219 28.3008C5.1543 28.3008 4.64844 28.7793 4.64844 29.3809ZM32.6348 13.8223L32.6348 22.5449C32.6348 24.3633 31.8281 25.4023 30.4473 25.4023C29.1895 25.4023 28.3828 24.5684 28.3828 23.2285C28.3828 21.2188 28.7109 18.5527 28.7109 16.1055C28.7109 13.7129 27.5352 11.8945 24.6504 10.9375L23.9805 12.4414C26.1816 13.1113 27.0566 14.4648 27.0566 16.1055C27.0566 18.293 26.7285 20.959 26.7285 23.2285C26.7285 25.5801 28.1641 27.0703 30.4473 27.0703C32.8809 27.0703 34.2891 25.416 34.2891 22.5449L34.2891 13.8223C34.2891 12.5918 35.2051 12.2637 35.793 11.7988C36.6543 11.1562 37.1191 10.2402 37.1191 9.17383L37.1191 7.32812C37.1191 7.04102 36.9551 6.84961 36.6953 6.84961L35.8203 6.84961L35.8203 4.375C35.8203 4.00586 35.5195 3.69141 35.123 3.69141C34.7676 3.69141 34.4395 4.00586 34.4395 4.375L34.4395 6.84961L32.6074 6.84961L32.6074 4.375C32.6074 4.00586 32.3203 3.69141 31.9375 3.69141C31.5547 3.69141 31.2539 4.00586 31.2539 4.375L31.2539 6.84961L30.2148 6.84961C29.9551 6.84961 29.7773 7.04102 29.7773 7.32812L29.7773 9.17383C29.7773 10.2402 30.2559 11.1562 31.1172 11.7988C31.7051 12.2637 32.6348 12.5918 32.6348 13.8223Z" fill="black" fill-opacity="0.85"/>
 </g>
</svg>
