<?xml version="1.0" encoding="UTF-8"?>
<!--Generator: Apple Native CoreSVG 326-->
<!DOCTYPE svg
PUBLIC "-//W3C//DTD SVG 1.1//EN"
       "http://www.w3.org/Graphics/SVG/1.1/DTD/svg11.dtd">
<svg version="1.1" xmlns="http://www.w3.org/2000/svg" xmlns:xlink="http://www.w3.org/1999/xlink" viewBox="0 0 28.2461 27.9043">
 <g>
  <rect height="27.9043" opacity="0" width="28.2461" x="0" y="0"/>
  <path d="M27.8906 13.9453C27.8906 21.6289 21.6426 27.8906 13.9453 27.8906C6.26172 27.8906 0 21.6289 0 13.9453C0 6.24805 6.26172 0 13.9453 0C21.6426 0 27.8906 6.24805 27.8906 13.9453ZM10.7598 21C10.7598 22.75 12.1816 24.1719 13.9316 24.1719C15.6816 24.1719 17.1035 22.75 17.1035 21C17.1035 19.2637 15.6816 17.8281 13.9316 17.8281C12.1816 17.8281 10.7598 19.2637 10.7598 21ZM4.55273 17.4453C4.55273 18.6758 5.57812 19.7148 6.80859 19.7148C8.06641 19.7148 9.07812 18.6758 9.07812 17.4453C9.07812 16.1875 8.06641 15.1758 6.80859 15.1758C5.57812 15.1758 4.55273 16.1875 4.55273 17.4453ZM18.7852 17.4453C18.7852 18.6758 19.7969 19.7148 21.0547 19.7148C22.2988 19.7148 23.3242 18.6758 23.3242 17.4453C23.3242 16.1875 22.2988 15.1758 21.0547 15.1758C19.7969 15.1758 18.7852 16.1875 18.7852 17.4453ZM5.75586 9.63867C5.75586 11.3887 7.17773 12.7969 8.92773 12.7969C10.6914 12.7969 12.0996 11.3887 12.0996 9.63867C12.0996 7.88867 10.6914 6.4668 8.92773 6.4668C7.17773 6.4668 5.75586 7.88867 5.75586 9.63867ZM15.7637 9.63867C15.7637 11.3887 17.1855 12.7969 18.9355 12.7969C20.6855 12.7969 22.1074 11.3887 22.1074 9.63867C22.1074 7.88867 20.6855 6.4668 18.9355 6.4668C17.1855 6.4668 15.7637 7.88867 15.7637 9.63867Z" fill="black" fill-opacity="0.85"/>
 </g>
</svg>
