<?xml version="1.0" encoding="UTF-8"?>
<!--Generator: Apple Native CoreSVG 326-->
<!DOCTYPE svg
PUBLIC "-//W3C//DTD SVG 1.1//EN"
       "http://www.w3.org/Graphics/SVG/1.1/DTD/svg11.dtd">
<svg version="1.1" xmlns="http://www.w3.org/2000/svg" xmlns:xlink="http://www.w3.org/1999/xlink" viewBox="0 0 23.7207 34.8496">
 <g>
  <rect height="34.8496" opacity="0" width="23.7207" x="0" y="0"/>
  <path d="M11.7031 20.1523C17.1992 20.1523 21.7656 15.5723 21.7656 10.0762C21.7656 4.58008 17.1855 0 11.6758 0C6.17969 0 1.62695 4.58008 1.62695 10.0762C1.62695 15.5723 6.20703 20.1523 11.7031 20.1523ZM11.7031 18.1562C7.19141 18.1562 3.63672 14.5879 3.63672 10.0762C3.63672 5.57812 7.19141 1.99609 11.6758 1.99609C16.1875 1.99609 19.7695 5.57812 19.7695 10.0762C19.7695 14.5879 16.2012 18.1562 11.7031 18.1562ZM6.93164 34.8223L16.4199 34.8223C20.3438 34.8223 23.3652 31.7598 23.3652 27.877C23.3652 23.9941 20.3438 20.9316 16.4199 20.9316L6.93164 20.9316C3.02148 20.9316 0 23.9941 0 27.877C0 31.7598 3.02148 34.8223 6.93164 34.8223ZM6.93164 32.8262C4.12891 32.8262 1.96875 30.6797 1.96875 27.877C1.96875 25.0742 4.12891 22.9277 6.93164 22.9277L16.4199 22.9277C19.2363 22.9277 21.3965 25.0742 21.3965 27.877C21.3965 30.6797 19.2363 32.8262 16.4199 32.8262Z" fill="black" fill-opacity="0.85"/>
  <path d="M8.18945 9.35156C9.43359 9.35156 10.4316 8.35352 10.4316 7.10938C10.4316 5.85156 9.43359 4.85352 8.18945 4.85352C6.93164 4.85352 5.93359 5.85156 5.93359 7.10938C5.93359 8.35352 6.93164 9.35156 8.18945 9.35156ZM15.1758 9.35156C16.4336 9.35156 17.4316 8.35352 17.4316 7.10938C17.4316 5.85156 16.4336 4.85352 15.1758 4.85352C13.9316 4.85352 12.9336 5.85156 12.9336 7.10938C12.9336 8.35352 13.9316 9.35156 15.1758 9.35156ZM6.91797 13.9453C7.79297 13.9453 8.49023 13.248 8.49023 12.373C8.49023 11.498 7.79297 10.8008 6.91797 10.8008C6.04297 10.8008 5.3457 11.498 5.3457 12.373C5.3457 13.248 6.04297 13.9453 6.91797 13.9453ZM16.4473 13.9453C17.3223 13.9453 18.0195 13.248 18.0195 12.373C18.0195 11.498 17.3223 10.8008 16.4473 10.8008C15.5723 10.8008 14.875 11.498 14.875 12.373C14.875 13.248 15.5723 13.9453 16.4473 13.9453ZM11.6758 17.2266C12.9336 17.2266 13.9316 16.2285 13.9316 14.9707C13.9316 13.7266 12.9336 12.7285 11.6758 12.7285C10.4316 12.7285 9.43359 13.7266 9.43359 14.9707C9.43359 16.2285 10.4316 17.2266 11.6758 17.2266ZM6.91797 31.5273C8.94141 31.5273 10.582 29.9004 10.582 27.877C10.582 25.8535 8.94141 24.2129 6.91797 24.2129C4.89453 24.2129 3.26758 25.8535 3.26758 27.877C3.26758 29.9004 4.89453 31.5273 6.91797 31.5273ZM16.4336 31.5273C18.4707 31.5273 20.0977 29.9004 20.0977 27.877C20.0977 25.8535 18.4707 24.2129 16.4336 24.2129C14.4102 24.2129 12.7832 25.8535 12.7832 27.877C12.7832 29.9004 14.4102 31.5273 16.4336 31.5273Z" fill="black" fill-opacity="0.85"/>
 </g>
</svg>
