<?xml version="1.0" encoding="UTF-8"?>
<!--Generator: Apple Native CoreSVG 326-->
<!DOCTYPE svg
PUBLIC "-//W3C//DTD SVG 1.1//EN"
       "http://www.w3.org/Graphics/SVG/1.1/DTD/svg11.dtd">
<svg version="1.1" xmlns="http://www.w3.org/2000/svg" xmlns:xlink="http://www.w3.org/1999/xlink" viewBox="0 0 31.2812 26.6738">
 <g>
  <rect height="26.6738" opacity="0" width="31.2812" x="0" y="0"/>
  <path d="M15.4629 26.6602C24.4453 26.6602 30.9258 20.5898 30.9258 11.8672C30.9258 3.22656 26.6191 0 15.4629 0C4.29297 0 0 3.22656 0 11.8672C0 20.5898 6.48047 26.6602 15.4629 26.6602ZM15.4629 24.3223C7.39648 24.3223 2.33789 19.5918 2.33789 11.8672C2.33789 4.68945 5.64648 2.33789 15.4629 2.33789C25.2793 2.33789 28.5879 4.68945 28.5879 11.8672C28.5879 19.5918 23.5293 24.3223 15.4629 24.3223ZM6.91797 13.2207C9.9668 13.2207 12.4277 10.7598 12.4277 7.72461C12.4277 4.67578 9.9668 2.21484 6.91797 2.21484C3.88281 2.21484 1.42188 4.67578 1.42188 7.72461C1.42188 10.7598 3.88281 13.2207 6.91797 13.2207ZM6.91797 11.293C4.93555 11.293 3.34961 9.70703 3.34961 7.72461C3.34961 5.74219 4.93555 4.14258 6.91797 4.14258C8.90039 4.14258 10.5 5.74219 10.5 7.72461C10.5 9.70703 8.90039 11.293 6.91797 11.293ZM23.9941 13.2207C27.043 13.2207 29.5039 10.7598 29.5039 7.72461C29.5039 4.67578 27.043 2.21484 23.9941 2.21484C20.959 2.21484 18.498 4.67578 18.498 7.72461C18.498 10.7598 20.959 13.2207 23.9941 13.2207ZM23.9941 11.293C22.0117 11.293 20.4258 9.70703 20.4258 7.72461C20.4258 5.74219 22.0117 4.14258 23.9941 4.14258C25.9766 4.14258 27.5762 5.74219 27.5762 7.72461C27.5762 9.70703 25.9766 11.293 23.9941 11.293ZM15.4629 26.373C21.0273 26.373 25.4297 24.0488 28.0684 20.3438C24.7324 17.2949 20.3574 15.5176 15.4629 15.5176C10.5547 15.5176 6.17969 17.2949 2.84375 20.3301C5.49609 24.0488 9.89844 26.373 15.4629 26.373ZM9.33789 22.1895C8.6543 22.1895 8.10742 21.6562 8.10742 20.9727C8.10742 20.2891 8.6543 19.7559 9.33789 19.7559C10.0215 19.7559 10.5547 20.2891 10.5547 20.9727C10.5547 21.6562 10.0215 22.1895 9.33789 22.1895ZM15.4629 23.0645C14.3145 23.0645 13.3711 22.1211 13.3711 20.9727C13.3711 19.8242 14.3145 18.8809 15.4629 18.8809C16.6113 18.8809 17.5547 19.8242 17.5547 20.9727C17.5547 22.1211 16.6113 23.0645 15.4629 23.0645ZM21.5879 22.1895C20.9043 22.1895 20.3711 21.6562 20.3711 20.9727C20.3711 20.2891 20.9043 19.7559 21.5879 19.7559C22.2715 19.7559 22.8047 20.2891 22.8047 20.9727C22.8047 21.6562 22.2715 22.1895 21.5879 22.1895Z" fill="black" fill-opacity="0.85"/>
  <path d="M6.91797 9.65234C7.98438 9.65234 8.85938 8.79102 8.85938 7.72461C8.85938 6.6582 7.98438 5.7832 6.91797 5.7832C5.85156 5.7832 4.99023 6.6582 4.99023 7.72461C4.99023 8.79102 5.85156 9.65234 6.91797 9.65234ZM23.9941 9.65234C25.0605 9.65234 25.9355 8.79102 25.9355 7.72461C25.9355 6.6582 25.0605 5.7832 23.9941 5.7832C22.9277 5.7832 22.0664 6.6582 22.0664 7.72461C22.0664 8.79102 22.9277 9.65234 23.9941 9.65234Z" fill="black" fill-opacity="0.85"/>
 </g>
</svg>
