<?xml version="1.0" encoding="UTF-8"?>
<!--Generator: Apple Native CoreSVG 326-->
<!DOCTYPE svg
PUBLIC "-//W3C//DTD SVG 1.1//EN"
       "http://www.w3.org/Graphics/SVG/1.1/DTD/svg11.dtd">
<svg version="1.1" xmlns="http://www.w3.org/2000/svg" xmlns:xlink="http://www.w3.org/1999/xlink" viewBox="0 0 28.2461 27.9043">
 <g>
  <rect height="27.9043" opacity="0" width="28.2461" x="0" y="0"/>
  <path d="M13.9453 27.8906C21.6426 27.8906 27.8906 21.6426 27.8906 13.9453C27.8906 6.24805 21.6426 0 13.9453 0C6.24805 0 0 6.24805 0 13.9453C0 21.6426 6.24805 27.8906 13.9453 27.8906ZM13.9453 25.5664C7.51953 25.5664 2.32422 20.3711 2.32422 13.9453C2.32422 7.51953 7.51953 2.32422 13.9453 2.32422C20.3711 2.32422 25.5664 7.51953 25.5664 13.9453C25.5664 20.3711 20.3711 25.5664 13.9453 25.5664Z" fill="black" fill-opacity="0.85"/>
  <path d="M9.07812 12.8789C10.7871 12.8789 12.1543 11.5117 12.1543 9.81641C12.1543 8.10742 10.7871 6.74023 9.07812 6.74023C7.38281 6.74023 6.00195 8.10742 6.00195 9.81641C6.00195 11.5117 7.38281 12.8789 9.07812 12.8789ZM18.7852 12.8789C20.4805 12.8789 21.8613 11.5117 21.8613 9.81641C21.8613 8.10742 20.4805 6.74023 18.7852 6.74023C17.0898 6.74023 15.709 8.10742 15.709 9.81641C15.709 11.5117 17.0898 12.8789 18.7852 12.8789ZM13.9316 23.9121C15.627 23.9121 17.0078 22.5312 17.0078 20.8359C17.0078 19.1406 15.627 17.7598 13.9316 17.7598C12.2363 17.7598 10.8555 19.1406 10.8555 20.8359C10.8555 22.5312 12.2363 23.9121 13.9316 23.9121ZM7.02734 19.5781C8.24414 19.5781 9.22852 18.5801 9.22852 17.377C9.22852 16.1602 8.24414 15.1758 7.02734 15.1758C5.82422 15.1758 4.82617 16.1602 4.82617 17.377C4.82617 18.5801 5.82422 19.5781 7.02734 19.5781ZM20.8359 19.5781C22.0527 19.5781 23.0371 18.5801 23.0371 17.377C23.0371 16.1602 22.0527 15.1758 20.8359 15.1758C19.6191 15.1758 18.6348 16.1602 18.6348 17.377C18.6348 18.5801 19.6191 19.5781 20.8359 19.5781Z" fill="black" fill-opacity="0.85"/>
 </g>
</svg>
