<?xml version="1.0" encoding="UTF-8"?>
<!--Generator: Apple Native CoreSVG 326-->
<!DOCTYPE svg
PUBLIC "-//W3C//DTD SVG 1.1//EN"
       "http://www.w3.org/Graphics/SVG/1.1/DTD/svg11.dtd">
<svg version="1.1" xmlns="http://www.w3.org/2000/svg" xmlns:xlink="http://www.w3.org/1999/xlink" viewBox="0 0 32.7852 28.5879">
 <g>
  <rect height="28.5879" opacity="0" width="32.7852" x="0" y="0"/>
  <path d="M27.6309 1.59961C30.4609 4.26562 32.4297 8.35352 32.4297 12.8789C32.4297 21.4375 25.3066 28.5605 16.2148 28.5605C7.13672 28.5605 0 21.4375 0 12.8789C0 8.35352 1.96875 4.26562 4.79883 1.59961C5.97461 0.492188 7.24609 0 8.99609 0L23.4336 0C25.1836 0 26.4551 0.492188 27.6309 1.59961ZM8.50391 20.166C8.50391 22.0527 10.0352 23.5703 11.9219 23.5703C13.7949 23.5703 15.3262 22.0527 15.3262 20.166C15.3262 18.293 13.7949 16.748 11.9219 16.748C10.0352 16.748 8.50391 18.293 8.50391 20.166ZM17.1172 20.166C17.1172 22.0527 18.6484 23.5703 20.5215 23.5703C22.3945 23.5703 23.9258 22.0527 23.9258 20.166C23.9258 18.293 22.3945 16.748 20.5215 16.748C18.6484 16.748 17.1172 18.293 17.1172 20.166ZM4.19727 12.8516C4.19727 14.7246 5.72852 16.2559 7.60156 16.2559C9.48828 16.2559 11.0195 14.7246 11.0195 12.8516C11.0195 10.9648 9.48828 9.44727 7.60156 9.44727C5.72852 9.44727 4.19727 10.9648 4.19727 12.8516ZM12.8105 12.8516C12.8105 14.7246 14.3418 16.2559 16.2148 16.2559C18.0879 16.2559 19.6191 14.7246 19.6191 12.8516C19.6191 10.9648 18.0879 9.44727 16.2148 9.44727C14.3418 9.44727 12.8105 10.9648 12.8105 12.8516ZM21.4102 12.8516C21.4102 14.7246 22.9551 16.2559 24.8281 16.2559C26.7012 16.2559 28.2324 14.7246 28.2324 12.8516C28.2324 10.9648 26.7012 9.44727 24.8281 9.44727C22.9551 9.44727 21.4102 10.9648 21.4102 12.8516ZM9.44727 6.5625C9.44727 7.90234 10.5547 9.02344 11.9219 9.02344C13.2754 9.02344 14.3691 7.90234 14.3691 6.5625C14.3691 5.20898 13.2754 4.10156 11.9219 4.10156C10.5547 4.10156 9.44727 5.20898 9.44727 6.5625ZM18.0605 6.5625C18.0605 7.90234 19.1543 9.02344 20.5215 9.02344C21.875 9.02344 22.9824 7.90234 22.9824 6.5625C22.9824 5.20898 21.875 4.10156 20.5215 4.10156C19.1543 4.10156 18.0605 5.20898 18.0605 6.5625Z" fill="black" fill-opacity="0.85"/>
 </g>
</svg>
