<?xml version="1.0" encoding="UTF-8"?>
<!--Generator: Apple Native CoreSVG 326-->
<!DOCTYPE svg
PUBLIC "-//W3C//DTD SVG 1.1//EN"
       "http://www.w3.org/Graphics/SVG/1.1/DTD/svg11.dtd">
<svg version="1.1" xmlns="http://www.w3.org/2000/svg" xmlns:xlink="http://www.w3.org/1999/xlink" viewBox="0 0 23.7207 34.7949">
 <g>
  <rect height="34.7949" opacity="0" width="23.7207" x="0" y="0"/>
  <path d="M23.3652 27.8496C23.3652 31.7324 20.3438 34.7949 16.4199 34.7949L6.93164 34.7949C3.02148 34.7949 0 31.7324 0 27.8496C0 23.9668 3.02148 20.9043 6.93164 20.9043L16.4199 20.9043C20.3438 20.9043 23.3652 23.9668 23.3652 27.8496ZM3.00781 27.8496C3.00781 29.9414 4.68945 31.6094 6.76758 31.6094C8.85938 31.6094 10.5547 29.9414 10.5547 27.8496C10.5547 25.7578 8.85938 24.0762 6.76758 24.0762C4.68945 24.0762 3.00781 25.7578 3.00781 27.8496ZM12.8105 27.8496C12.8105 29.9414 14.4922 31.6094 16.584 31.6094C18.6758 31.6094 20.3574 29.9414 20.3574 27.8496C20.3574 25.7578 18.6758 24.0762 16.584 24.0762C14.4922 24.0762 12.8105 25.7578 12.8105 27.8496ZM19.0449 2.67969C20.8633 4.40234 22.1348 7.05469 22.1348 9.93945C22.1348 15.4629 17.5273 20.0566 11.6895 20.0566C5.83789 20.0566 1.24414 15.4629 1.24414 9.93945C1.24414 7.05469 2.50195 4.40234 4.33398 2.67969C5.09961 1.95508 5.96094 1.62695 7.0957 1.62695L16.2695 1.62695C17.418 1.62695 18.2793 1.95508 19.0449 2.67969ZM6.64453 14.6016C6.64453 15.9004 7.68359 16.9258 8.96875 16.9258C10.2539 16.9258 11.2793 15.9004 11.2793 14.6016C11.2793 13.3164 10.2539 12.291 8.96875 12.291C7.68359 12.291 6.64453 13.3164 6.64453 14.6016ZM12.0859 14.6016C12.0859 15.9004 13.1113 16.9258 14.4102 16.9258C15.6953 16.9258 16.7207 15.9004 16.7207 14.6016C16.7207 13.3164 15.6953 12.291 14.4102 12.291C13.1113 12.291 12.0859 13.3164 12.0859 14.6016ZM3.92383 9.89844C3.92383 11.1973 4.96289 12.2363 6.24805 12.2363C7.5332 12.2363 8.57227 11.1973 8.57227 9.89844C8.57227 8.62695 7.5332 7.58789 6.24805 7.58789C4.96289 7.58789 3.92383 8.62695 3.92383 9.89844ZM9.36523 9.89844C9.36523 11.1973 10.3906 12.2363 11.6895 12.2363C12.9746 12.2363 14 11.1973 14 9.89844C14 8.62695 12.9746 7.58789 11.6895 7.58789C10.3906 7.58789 9.36523 8.62695 9.36523 9.89844ZM14.8066 9.89844C14.8066 11.1973 15.832 12.2363 17.1172 12.2363C18.416 12.2363 19.4414 11.1973 19.4414 9.89844C19.4414 8.62695 18.416 7.58789 17.1172 7.58789C15.832 7.58789 14.8066 8.62695 14.8066 9.89844ZM7.3418 5.87891C7.3418 6.78125 8.06641 7.49219 8.96875 7.49219C9.87109 7.49219 10.5957 6.78125 10.5957 5.87891C10.5957 4.97656 9.87109 4.25195 8.96875 4.25195C8.06641 4.25195 7.3418 4.97656 7.3418 5.87891ZM12.7832 5.87891C12.7832 6.78125 13.5078 7.49219 14.4102 7.49219C15.2988 7.49219 16.0234 6.78125 16.0234 5.87891C16.0234 4.97656 15.2988 4.25195 14.4102 4.25195C13.5078 4.25195 12.7832 4.97656 12.7832 5.87891Z" fill="black" fill-opacity="0.85"/>
 </g>
</svg>
