<?xml version="1.0" encoding="UTF-8"?>
<!--Generator: Apple Native CoreSVG 326-->
<!DOCTYPE svg
PUBLIC "-//W3C//DTD SVG 1.1//EN"
       "http://www.w3.org/Graphics/SVG/1.1/DTD/svg11.dtd">
<svg version="1.1" xmlns="http://www.w3.org/2000/svg" xmlns:xlink="http://www.w3.org/1999/xlink" viewBox="0 0 27.0703 26.9746">
 <g>
  <rect height="26.9746" opacity="0" width="27.0703" x="0" y="0"/>
  <path d="M0 10.9102C0 16.9258 4.89453 21.8203 10.9102 21.8203C13.2891 21.8203 15.4629 21.0547 17.2539 19.7695L23.9805 26.5098C24.2949 26.8242 24.7051 26.9746 25.1426 26.9746C26.0723 26.9746 26.7148 26.2773 26.7148 25.3613C26.7148 24.9238 26.5508 24.5273 26.2637 24.2402L19.5781 17.5137C20.9863 15.6816 21.8203 13.3984 21.8203 10.9102C21.8203 4.89453 16.9258 0 10.9102 0C4.89453 0 0 4.89453 0 10.9102ZM2.33789 10.9102C2.33789 6.17969 6.17969 2.33789 10.9102 2.33789C15.6406 2.33789 19.4824 6.17969 19.4824 10.9102C19.4824 15.6406 15.6406 19.4824 10.9102 19.4824C6.17969 19.4824 2.33789 15.6406 2.33789 10.9102ZM10.9102 12.9883C11.4844 12.9883 11.8672 12.6465 11.8809 12.0039L12.0312 6.28906C12.0312 5.67383 11.5391 5.19531 10.9102 5.19531C10.2676 5.19531 9.78906 5.67383 9.78906 6.27539L9.93945 12.0039C9.93945 12.6191 10.3223 12.9883 10.9102 12.9883ZM10.9102 16.502C11.6074 16.502 12.209 15.9414 12.209 15.2441C12.209 14.5332 11.6211 13.9863 10.9102 13.9863C10.2129 13.9863 9.625 14.5469 9.625 15.2441C9.625 15.9414 10.2266 16.502 10.9102 16.502Z" fill="black" fill-opacity="0.85"/>
 </g>
</svg>
