<?xml version="1.0" encoding="UTF-8"?>
<!--Generator: Apple Native CoreSVG 326-->
<!DOCTYPE svg
PUBLIC "-//W3C//DTD SVG 1.1//EN"
       "http://www.w3.org/Graphics/SVG/1.1/DTD/svg11.dtd">
<svg version="1.1" xmlns="http://www.w3.org/2000/svg" xmlns:xlink="http://www.w3.org/1999/xlink" viewBox="0 0 28.2461 27.9043">
 <g>
  <rect height="27.9043" opacity="0" width="28.2461" x="0" y="0"/>
  <path d="M13.9453 27.8906C21.6426 27.8906 27.8906 21.6426 27.8906 13.9453C27.8906 6.24805 21.6426 0 13.9453 0C6.24805 0 0 6.24805 0 13.9453C0 21.6426 6.24805 27.8906 13.9453 27.8906ZM13.9453 25.5664C7.51953 25.5664 2.32422 20.3711 2.32422 13.9453C2.32422 7.51953 7.51953 2.32422 13.9453 2.32422C20.3711 2.32422 25.5664 7.51953 25.5664 13.9453C25.5664 20.3711 20.3711 25.5664 13.9453 25.5664Z" fill="#ff3b30"/>
  <path d="M13.9316 16.4062C14.5742 16.4062 14.957 16.0371 14.9707 15.3262L15.1758 8.10742C15.1895 7.41016 14.6426 6.89062 13.918 6.89062C13.1797 6.89062 12.6602 7.39648 12.6738 8.09375L12.8516 15.3262C12.8652 16.0234 13.248 16.4062 13.9316 16.4062ZM13.9316 20.8496C14.7109 20.8496 15.3945 20.2207 15.3945 19.4277C15.3945 18.6348 14.7246 18.0059 13.9316 18.0059C13.125 18.0059 12.4551 18.6484 12.4551 19.4277C12.4551 20.207 13.1387 20.8496 13.9316 20.8496Z" fill="#ff3b30"/>
 </g>
</svg>
