<?xml version="1.0" encoding="UTF-8"?>
<!--Generator: Apple Native CoreSVG 326-->
<!DOCTYPE svg
PUBLIC "-//W3C//DTD SVG 1.1//EN"
       "http://www.w3.org/Graphics/SVG/1.1/DTD/svg11.dtd">
<svg version="1.1" xmlns="http://www.w3.org/2000/svg" xmlns:xlink="http://www.w3.org/1999/xlink" viewBox="0 0 31.1445 30.4693">
 <g>
  <rect height="30.4693" opacity="0" width="31.1445" x="0" y="0"/>
  <path d="M15.3945 28.5579C15.7363 28.5579 16.0918 28.5442 16.4336 28.5169L17.2402 30.0481C17.418 30.3626 17.7051 30.513 18.0605 30.4583C18.4297 30.3899 18.6484 30.1575 18.7168 29.7747L18.9492 28.0794C19.6191 27.888 20.2754 27.6556 20.9043 27.3685L22.1621 28.5306C22.4492 28.7767 22.7773 28.804 23.0918 28.6263C23.4062 28.4485 23.5293 28.1341 23.4609 27.7786L23.0918 26.097C23.666 25.7005 24.2129 25.2493 24.7051 24.7571L26.291 25.3997C26.6328 25.5364 26.9473 25.4817 27.1797 25.1946C27.4121 24.9075 27.4395 24.5931 27.248 24.2649L26.3457 22.8294C26.7422 22.2552 27.084 21.6536 27.3984 20.9974L29.0938 21.0657C29.4629 21.0794 29.7363 20.9017 29.8594 20.5599C29.9824 20.2181 29.9004 19.9036 29.5996 19.6712L28.2871 18.6458C28.4648 17.9622 28.5879 17.2649 28.6562 16.5403L30.2422 16.0345C30.5977 15.9251 30.7891 15.6653 30.7891 15.2962C30.7891 14.9271 30.5977 14.6673 30.2422 14.5442L28.6699 14.0521C28.6016 13.3274 28.4785 12.6165 28.3008 11.9192L29.5996 10.9212C29.9004 10.6751 29.9824 10.3743 29.8457 10.0325C29.7363 9.69072 29.4629 9.49932 29.0801 9.51299L27.4668 9.56768C27.1523 8.91143 26.7969 8.29619 26.373 7.69463L27.248 6.32744C27.4395 5.99932 27.4121 5.68486 27.1797 5.39776C26.9473 5.11065 26.6328 5.04229 26.291 5.17901L24.7871 5.80791C24.2676 5.27471 23.707 4.79619 23.1191 4.37236L23.4609 2.81377C23.5293 2.44463 23.4062 2.14385 23.0918 1.96611C22.7773 1.77471 22.4492 1.81572 22.1621 2.06182L20.9863 3.1419C20.3301 2.84111 19.6465 2.58135 18.9219 2.37627L18.7168 0.804005C18.6484 0.434865 18.4297 0.202443 18.0605 0.134084C17.7051 0.0793961 17.418 0.216115 17.2266 0.54424L16.4883 1.95244C16.1191 1.9251 15.7637 1.91143 15.3945 1.91143C15.0254 1.91143 14.6699 1.9251 14.3008 1.95244L13.5488 0.54424C13.3711 0.216115 13.0703 0.0793961 12.7285 0.134084C12.3594 0.188771 12.1406 0.434865 12.0723 0.804005L11.8672 2.37627C11.1426 2.58135 10.459 2.84111 9.80273 3.1419L8.62695 2.06182C8.33984 1.81572 8.01172 1.77471 7.69727 1.96611C7.38281 2.14385 7.25977 2.44463 7.32812 2.81377L7.66992 4.37236C7.08203 4.79619 6.50781 5.28838 5.98828 5.80791L4.49805 5.17901C4.15625 5.04229 3.8418 5.11065 3.60938 5.39776C3.37695 5.68486 3.34961 5.99932 3.54102 6.32744L4.41602 7.69463C3.99219 8.29619 3.63672 8.91143 3.32227 9.56768L1.69531 9.52666C1.32617 9.49932 1.05273 9.69072 0.929688 10.0325C0.806641 10.3743 0.888672 10.6888 1.18945 10.9212L2.48828 11.9192C2.31055 12.6165 2.1875 13.3274 2.11914 14.0521L0.546875 14.5442C0.191406 14.6673 0 14.9271 0 15.2962C0 15.6653 0.191406 15.9251 0.546875 16.0345L2.13281 16.5403C2.20117 17.2649 2.32422 17.9622 2.50195 18.6458L1.18945 19.6712C0.888672 19.9173 0.806641 20.2044 0.943359 20.5599C1.05273 20.9017 1.32617 21.0931 1.69531 21.0657L3.39062 21.011C3.70508 21.6536 4.04688 22.2552 4.44336 22.8294L3.54102 24.2649C3.34961 24.5931 3.37695 24.9075 3.60938 25.1946C3.8418 25.4817 4.15625 25.5501 4.49805 25.3997L6.08398 24.7571C6.57617 25.2493 7.12305 25.7005 7.69727 26.097L7.32812 27.7786C7.25977 28.1478 7.38281 28.4349 7.69727 28.6263C8.01172 28.8177 8.33984 28.7767 8.62695 28.5306L9.88477 27.3685C10.5137 27.6556 11.1699 27.888 11.8398 28.0794L12.0723 29.7747C12.1406 30.1575 12.3594 30.3899 12.7285 30.4583C13.0703 30.513 13.3711 30.3626 13.5488 30.0345L14.3555 28.5169C14.7109 28.5442 15.0527 28.5579 15.3945 28.5579ZM15.3945 26.3294C9.26953 26.3294 4.29297 21.3528 4.29297 15.2278C4.29297 9.10283 9.26953 4.12627 15.3945 4.12627C21.5195 4.12627 26.4961 9.10283 26.4961 15.2278C26.4961 21.3528 21.5195 26.3294 15.3945 26.3294Z" fill="black" fill-opacity="0.85"/>
  <path d="M15.3809 17.6888C16.0371 17.6888 16.4199 17.3196 16.4336 16.6087L16.625 9.38994C16.6387 8.69268 16.0918 8.17315 15.3672 8.17315C14.6426 8.17315 14.1094 8.67901 14.123 9.37627L14.3145 16.6087C14.3281 17.306 14.7109 17.6888 15.3809 17.6888ZM15.3809 22.1321C16.1738 22.1321 16.8574 21.5032 16.8574 20.7103C16.8574 19.9173 16.1875 19.2884 15.3809 19.2884C14.5879 19.2884 13.918 19.931 13.918 20.7103C13.918 21.4896 14.6016 22.1321 15.3809 22.1321Z" fill="black" fill-opacity="0.85"/>
 </g>
</svg>
