<?xml version="1.0" encoding="UTF-8"?>
<!--Generator: Apple Native CoreSVG 326-->
<!DOCTYPE svg
PUBLIC "-//W3C//DTD SVG 1.1//EN"
       "http://www.w3.org/Graphics/SVG/1.1/DTD/svg11.dtd">
<svg version="1.1" xmlns="http://www.w3.org/2000/svg" xmlns:xlink="http://www.w3.org/1999/xlink" viewBox="0 0 24.4316 26.1816">
 <g>
  <rect height="26.1816" opacity="0" width="24.4316" x="0" y="0"/>
  <path d="M22.1484 18.6484C22.8594 18.6484 23.3652 18.1699 23.3789 17.4316L23.502 1.50391C23.502 1.50391 23.502 1.50391 23.502 1.50391C23.502 0.724609 22.8594 0.191406 22.1348 0.191406C21.3965 0.191406 20.7539 0.724609 20.7539 1.50391C20.7539 1.50391 20.7539 1.50391 20.7539 1.50391L20.9043 17.4316C20.918 18.1699 21.4238 18.6484 22.1484 18.6484ZM22.1348 26.1816C23.2148 26.1816 24.0762 25.3066 24.0762 24.2402C24.0762 23.1602 23.2148 22.2988 22.1348 22.2988C21.0547 22.2988 20.1797 23.1602 20.1797 24.2402C20.1797 25.3066 21.0547 26.1816 22.1348 26.1816Z" fill="#ff3b30"/>
  <path d="M12.0449 18.6484C12.7695 18.6484 13.2617 18.1699 13.2754 17.4316L13.3984 1.50391C13.3984 1.50391 13.3984 1.50391 13.3984 1.50391C13.3984 0.724609 12.7695 0.191406 12.0312 0.191406C11.3066 0.191406 10.6641 0.724609 10.6641 1.50391C10.6641 1.50391 10.6641 1.50391 10.6641 1.50391L10.8145 17.4316C10.8281 18.1699 11.334 18.6484 12.0449 18.6484ZM12.0312 26.1816C13.125 26.1816 13.9863 25.3066 13.9863 24.2402C13.9863 23.1602 13.125 22.2988 12.0312 22.2988C10.9648 22.2988 10.0898 23.1602 10.0898 24.2402C10.0898 25.3066 10.9648 26.1816 12.0312 26.1816Z" fill="#ff3b30"/>
  <path d="M1.95508 18.6484C2.67969 18.6484 3.17188 18.1699 3.18555 17.4316L3.30859 1.50391C3.30859 1.50391 3.30859 1.50391 3.30859 1.50391C3.30859 0.724609 2.67969 0.191406 1.94141 0.191406C1.20312 0.191406 0.574219 0.724609 0.574219 1.50391C0.574219 1.50391 0.574219 1.50391 0.574219 1.50391L0.724609 17.4316C0.738281 18.1699 1.23047 18.6484 1.95508 18.6484ZM1.94141 26.1816C3.02148 26.1816 3.88281 25.3066 3.88281 24.2402C3.88281 23.1602 3.02148 22.2988 1.94141 22.2988C0.875 22.2988 0 23.1602 0 24.2402C0 25.3066 0.875 26.1816 1.94141 26.1816Z" fill="#ff3b30"/>
 </g>
</svg>
