<?xml version="1.0" encoding="UTF-8"?>
<!--Generator: Apple Native CoreSVG 326-->
<!DOCTYPE svg
PUBLIC "-//W3C//DTD SVG 1.1//EN"
       "http://www.w3.org/Graphics/SVG/1.1/DTD/svg11.dtd">
<svg version="1.1" xmlns="http://www.w3.org/2000/svg" xmlns:xlink="http://www.w3.org/1999/xlink" viewBox="0 0 29.0117 26.127">
 <g>
  <rect height="26.127" opacity="0" width="29.0117" x="0" y="0"/>
  <path d="M3.73242 25.9766L24.9238 25.9766C27.248 25.9766 28.6562 24.3633 28.6562 22.2715C28.6562 21.6289 28.4648 20.959 28.123 20.3574L17.5137 1.87305C16.8027 0.628906 15.5859 0 14.3281 0C13.0703 0 11.8398 0.628906 11.1426 1.87305L0.533203 20.3574C0.164062 20.9727 0 21.6289 0 22.2715C0 24.3633 1.4082 25.9766 3.73242 25.9766ZM3.74609 23.8301C2.78906 23.8301 2.21484 23.0918 2.21484 22.2578C2.21484 21.998 2.26953 21.6699 2.41992 21.3828L13.0156 2.91211C13.3027 2.40625 13.8223 2.1875 14.3281 2.1875C14.834 2.1875 15.3398 2.40625 15.627 2.91211L26.2227 21.3965C26.373 21.6836 26.4414 21.998 26.4414 22.2578C26.4414 23.0918 25.8398 23.8301 24.8965 23.8301Z" fill="#ffcc00"/>
  <path d="M14.3281 16.7617C14.9844 16.7617 15.3672 16.3789 15.3809 15.668L15.5723 8.46289C15.5859 7.76562 15.0391 7.24609 14.3145 7.24609C13.5762 7.24609 13.0566 7.75195 13.0703 8.44922L13.248 15.668C13.2617 16.3652 13.6445 16.7617 14.3281 16.7617ZM14.3281 21.2051C15.1211 21.2051 15.8047 20.5762 15.8047 19.7832C15.8047 18.9766 15.1348 18.3613 14.3281 18.3613C13.5215 18.3613 12.8516 18.9902 12.8516 19.7832C12.8516 20.5625 13.5352 21.2051 14.3281 21.2051Z" fill="#ffcc00"/>
 </g>
</svg>
