<?xml version="1.0" encoding="UTF-8"?>
<!--Generator: Apple Native CoreSVG 326-->
<!DOCTYPE svg
PUBLIC "-//W3C//DTD SVG 1.1//EN"
       "http://www.w3.org/Graphics/SVG/1.1/DTD/svg11.dtd">
<svg version="1.1" xmlns="http://www.w3.org/2000/svg" xmlns:xlink="http://www.w3.org/1999/xlink" viewBox="0 0 22.4355 26.1816">
 <g>
  <rect height="26.1816" opacity="0" width="22.4355" x="0" y="0"/>
  <path d="M14 18.7031C14.9434 18.7031 15.3809 18.0469 15.3809 17.1719C15.3809 17.0215 15.3809 16.8574 15.3809 16.707C15.4082 14.9023 16.0645 14.1504 18.252 12.6465C20.5898 11.0605 22.0801 9.22852 22.0801 6.58984C22.0801 2.48828 18.7441 0.136719 14.6016 0.136719C11.5117 0.136719 8.79102 1.59961 7.62891 4.23828C7.3418 4.88086 7.21875 5.50977 7.21875 6.0293C7.21875 6.80859 7.66992 7.35547 8.50391 7.35547C9.20117 7.35547 9.67969 6.94531 9.87109 6.27539C10.582 3.67773 12.291 2.69336 14.5059 2.69336C17.1719 2.69336 19.25 4.19727 19.25 6.57617C19.25 8.53125 18.0332 9.625 16.2832 10.8555C14.1367 12.3457 12.5645 13.9453 12.5645 16.3516C12.5645 16.6387 12.5645 16.9258 12.5645 17.2129C12.5645 18.0879 13.043 18.7031 14 18.7031ZM14 26.1816C15.0801 26.1816 15.9414 25.3066 15.9414 24.2402C15.9414 23.1602 15.0801 22.2988 14 22.2988C12.9336 22.2988 12.0586 23.1602 12.0586 24.2402C12.0586 25.3066 12.9336 26.1816 14 26.1816Z" fill="black" fill-opacity="0.85"/>
  <path d="M1.95508 18.6484C2.67969 18.6484 3.17188 18.1699 3.18555 17.4316L3.30859 1.50391C3.30859 1.50391 3.30859 1.50391 3.30859 1.50391C3.30859 0.724609 2.67969 0.191406 1.94141 0.191406C1.20312 0.191406 0.574219 0.724609 0.574219 1.50391C0.574219 1.50391 0.574219 1.50391 0.574219 1.50391L0.724609 17.4316C0.738281 18.1699 1.23047 18.6484 1.95508 18.6484ZM1.94141 26.1816C3.02148 26.1816 3.88281 25.3066 3.88281 24.2402C3.88281 23.1602 3.02148 22.2988 1.94141 22.2988C0.875 22.2988 0 23.1602 0 24.2402C0 25.3066 0.875 26.1816 1.94141 26.1816Z" fill="black" fill-opacity="0.85"/>
 </g>
</svg>
