<?xml version="1.0" encoding="UTF-8"?>
<!--Generator: Apple Native CoreSVG 326-->
<!DOCTYPE svg
PUBLIC "-//W3C//DTD SVG 1.1//EN"
       "http://www.w3.org/Graphics/SVG/1.1/DTD/svg11.dtd">
<svg version="1.1" xmlns="http://www.w3.org/2000/svg" xmlns:xlink="http://www.w3.org/1999/xlink" viewBox="0 0 28.4512 27.0566">
 <g>
  <rect height="27.0566" opacity="0" width="28.4512" x="0" y="0"/>
  <path d="M9.89844 27.043L18.1973 27.043C19.9336 27.043 20.7539 26.4824 21.6562 25.5117L26.9609 19.6602C27.8496 18.6758 28.0957 18.0059 28.0957 16.6523L28.0957 10.4043C28.0957 9.03711 27.8496 8.38086 26.9609 7.39648L21.6562 1.54492C20.7539 0.574219 19.9336 0 18.1973 0L9.89844 0C8.16211 0 7.32812 0.574219 6.43945 1.54492L1.13477 7.39648C0.232422 8.38086 0 9.03711 0 10.4043L0 16.6523C0 18.0059 0.232422 18.6758 1.13477 19.6602L6.43945 25.5117C7.32812 26.4824 8.16211 27.043 9.89844 27.043Z" fill="#ff3b30"/>
  <path d="M14.0547 16.0645C13.3438 16.0645 12.9473 15.668 12.9336 14.9434L12.7559 7.49219C12.7422 6.76758 13.2754 6.24805 14.041 6.24805C14.793 6.24805 15.3535 6.78125 15.3398 7.50586L15.1484 14.9434C15.1348 15.6816 14.7383 16.0645 14.0547 16.0645ZM14.0547 20.6445C13.2344 20.6445 12.5234 19.9883 12.5234 19.1816C12.5234 18.375 13.2207 17.7051 14.0547 17.7051C14.8887 17.7051 15.5859 18.3613 15.5859 19.1816C15.5859 20.002 14.875 20.6445 14.0547 20.6445Z" fill="white"/>
 </g>
</svg>
