<?xml version="1.0" encoding="UTF-8"?>
<!--Generator: Apple Native CoreSVG 326-->
<!DOCTYPE svg
PUBLIC "-//W3C//DTD SVG 1.1//EN"
       "http://www.w3.org/Graphics/SVG/1.1/DTD/svg11.dtd">
<svg version="1.1" xmlns="http://www.w3.org/2000/svg" xmlns:xlink="http://www.w3.org/1999/xlink" viewBox="0 0 4.23828 26.1816">
 <g>
  <rect height="26.1816" opacity="0" width="4.23828" x="0" y="0"/>
  <path d="M1.95508 18.6484C2.67969 18.6484 3.17188 18.1699 3.18555 17.4316L3.30859 1.50391C3.30859 1.50391 3.30859 1.50391 3.30859 1.50391C3.30859 0.724609 2.67969 0.191406 1.94141 0.191406C1.20312 0.191406 0.574219 0.724609 0.574219 1.50391C0.574219 1.50391 0.574219 1.50391 0.574219 1.50391L0.724609 17.4316C0.738281 18.1699 1.23047 18.6484 1.95508 18.6484ZM1.94141 26.1816C3.02148 26.1816 3.88281 25.3066 3.88281 24.2402C3.88281 23.1602 3.02148 22.2988 1.94141 22.2988C0.875 22.2988 0 23.1602 0 24.2402C0 25.3066 0.875 26.1816 1.94141 26.1816Z" fill="#ff3b30"/>
 </g>
</svg>
