<?xml version="1.0" encoding="UTF-8"?>
<!--Generator: Apple Native CoreSVG 326-->
<!DOCTYPE svg
PUBLIC "-//W3C//DTD SVG 1.1//EN"
       "http://www.w3.org/Graphics/SVG/1.1/DTD/svg11.dtd">
<svg version="1.1" xmlns="http://www.w3.org/2000/svg" xmlns:xlink="http://www.w3.org/1999/xlink" viewBox="0 0 19.0176 27.5488">
 <g>
  <rect height="27.5488" opacity="0" width="19.0176" x="0" y="0"/>
  <path d="M16.2695 7.64258L16.2695 10.958C17.8369 11.1858 18.6621 12.2502 18.6621 14.1504L18.6621 23.5703C18.6621 25.7305 17.5957 26.8242 15.5859 26.8242L3.07617 26.8242C1.06641 26.8242 0 25.7305 0 23.5703L0 14.1504C0 12.2502 0.825187 11.1858 2.39258 10.958L2.39258 7.64258C2.39258 2.50195 5.75586 0 9.32422 0C12.9062 0 16.2695 2.50195 16.2695 7.64258ZM8.17578 22.4355C8.17578 23.0508 8.70898 23.5566 9.31055 23.5566C9.95312 23.5566 10.4863 23.0508 10.4863 22.4355C10.4863 21.793 9.95312 21.3008 9.31055 21.3008C8.69531 21.3008 8.17578 21.8066 8.17578 22.4355ZM8.35352 14.8477L8.49023 19.4824C8.50391 20.0156 8.80469 20.3301 9.32422 20.3301C9.84375 20.3301 10.1445 20.0156 10.1582 19.4824L10.2949 14.8613C10.3086 14.3281 9.88477 13.918 9.32422 13.918C8.75 13.918 8.33984 14.3145 8.35352 14.8477ZM4.56641 7.3418L4.56641 10.9102L14.1094 10.9102L14.1094 7.3418C14.1094 3.89648 11.8809 2.06445 9.32422 2.06445C6.76758 2.06445 4.56641 3.89648 4.56641 7.3418Z" fill="black" fill-opacity="0.85"/>
 </g>
</svg>
