<?xml version="1.0" encoding="UTF-8"?>
<!--Generator: Apple Native CoreSVG 326-->
<!DOCTYPE svg
PUBLIC "-//W3C//DTD SVG 1.1//EN"
       "http://www.w3.org/Graphics/SVG/1.1/DTD/svg11.dtd">
<svg version="1.1" xmlns="http://www.w3.org/2000/svg" xmlns:xlink="http://www.w3.org/1999/xlink" viewBox="0 0 31.8145 22.9004">
 <g>
  <rect height="22.9004" opacity="0" width="31.8145" x="0" y="0"/>
  <path d="M5.41406 22.9004L26.0449 22.9004C29.2441 22.9004 31.459 20.6992 31.459 17.5273C31.459 14.3555 29.2441 12.1406 26.0449 12.1406L5.41406 12.1406C2.21484 12.1406 0 14.3555 0 17.5273C0 20.6992 2.21484 22.9004 5.41406 22.9004ZM5.41406 10.2676L26.0449 10.2676C27.3301 10.2676 28.5059 10.5547 29.5176 11.0742L26.25 3.18555C25.4023 1.12109 23.6113 0.0136719 21.2461 0.0136719L10.2129 0.0136719C7.84766 0.0136719 6.05664 1.12109 5.20898 3.18555L1.92773 11.0742C2.95312 10.5547 4.12891 10.2676 5.41406 10.2676ZM24.0625 17.5547C24.0625 16.6113 24.8828 15.791 25.8398 15.791C26.7832 15.791 27.5898 16.6113 27.5898 17.5547C27.5898 18.5254 26.7832 19.291 25.8398 19.3047C24.8828 19.3047 24.0625 18.5391 24.0625 17.5547Z" fill="black" fill-opacity="0.85"/>
 </g>
</svg>
