<?xml version="1.0" encoding="UTF-8"?>
<!--Generator: Apple Native CoreSVG 326-->
<!DOCTYPE svg
PUBLIC "-//W3C//DTD SVG 1.1//EN"
       "http://www.w3.org/Graphics/SVG/1.1/DTD/svg11.dtd">
<svg version="1.1" xmlns="http://www.w3.org/2000/svg" xmlns:xlink="http://www.w3.org/1999/xlink" viewBox="0 0 25.5254 25.1699">
 <g>
  <rect height="25.1699" opacity="0" width="25.5254" x="0" y="0"/>
  <path d="M4.29297 25.1699L20.877 25.1699C23.748 25.1699 25.1699 23.7617 25.1699 20.9453L25.1699 4.23828C25.1699 1.42188 23.748 0 20.877 0L4.29297 0C1.43555 0 0 1.42188 0 4.23828L0 20.9453C0 23.7617 1.43555 25.1699 4.29297 25.1699ZM4.32031 22.9688C2.95312 22.9688 2.20117 22.2441 2.20117 20.8223L2.20117 4.36133C2.20117 2.93945 2.95312 2.20117 4.32031 2.20117L20.8496 2.20117C22.2031 2.20117 22.9688 2.93945 22.9688 4.36133L22.9688 20.8223C22.9688 22.2441 22.2031 22.9688 20.8496 22.9688Z" fill="black" fill-opacity="0.85"/>
  <path d="M12.5918 18.3613C18.0195 18.3613 21.793 13.959 21.793 12.5918C21.793 11.2109 18.0059 6.80859 12.5918 6.80859C7.17773 6.80859 3.37695 11.2109 3.37695 12.5918C3.37695 13.959 7.21875 18.3613 12.5918 18.3613ZM12.5918 16.3652C10.4863 16.3652 8.80469 14.6426 8.80469 12.5918C8.79102 10.4727 10.4863 8.80469 12.5918 8.80469C14.6836 8.80469 16.3789 10.4727 16.3789 12.5918C16.3789 14.6426 14.6836 16.3652 12.5918 16.3652ZM12.6191 14.2461C13.4941 14.2461 14.2598 13.4668 14.2598 12.5918C14.2598 11.7031 13.4941 10.9238 12.6191 10.9238C11.7031 10.9238 10.9238 11.7031 10.9238 12.5918C10.9238 13.4668 11.7031 14.2461 12.6191 14.2461Z" fill="black" fill-opacity="0.85"/>
 </g>
</svg>
