<?xml version="1.0" encoding="UTF-8"?>
<!--Generator: Apple Native CoreSVG 326-->
<!DOCTYPE svg
PUBLIC "-//W3C//DTD SVG 1.1//EN"
       "http://www.w3.org/Graphics/SVG/1.1/DTD/svg11.dtd">
<svg version="1.1" xmlns="http://www.w3.org/2000/svg" xmlns:xlink="http://www.w3.org/1999/xlink" viewBox="0 0 37.7207 23.4473">
 <g>
  <rect height="23.4473" opacity="0" width="37.7207" x="0" y="0"/>
  <path d="M18.6895 23.4473C29.7363 23.4473 37.3652 14.5195 37.3652 11.7305C37.3652 8.92773 29.7227 0.0136719 18.6895 0.0136719C7.79297 0.0136719 0 8.92773 0 11.7305C0 14.5195 7.7793 23.4473 18.6895 23.4473ZM18.6895 21.2871C9.67969 21.2871 2.39258 13.6582 2.39258 11.7305C2.39258 10.1035 9.67969 2.17383 18.6895 2.17383C27.6582 2.17383 34.9727 10.1035 34.9727 11.7305C34.9727 13.6582 27.6582 21.2871 18.6895 21.2871ZM18.6895 19.373C22.9277 19.373 26.3594 15.9414 26.3594 11.7031C26.3594 7.46484 22.9277 4.0332 18.6895 4.0332C14.4512 4.0332 11.0059 7.46484 11.0059 11.7031C11.0059 15.9414 14.4512 19.373 18.6895 19.373ZM18.6895 14.2598C17.2812 14.2598 16.1465 13.125 16.1465 11.7168C16.1465 10.3086 17.2812 9.17383 18.6895 9.17383C20.0977 9.17383 21.2324 10.3086 21.2324 11.7168C21.2324 13.125 20.0977 14.2598 18.6895 14.2598Z" fill="black" fill-opacity="0.85"/>
 </g>
</svg>
