<?xml version="1.0" encoding="UTF-8"?>
<!--Generator: Apple Native CoreSVG 326-->
<!DOCTYPE svg
PUBLIC "-//W3C//DTD SVG 1.1//EN"
       "http://www.w3.org/Graphics/SVG/1.1/DTD/svg11.dtd">
<svg version="1.1" xmlns="http://www.w3.org/2000/svg" xmlns:xlink="http://www.w3.org/1999/xlink" viewBox="0 0 28.2461 27.9043">
 <g>
  <rect height="27.9043" opacity="0" width="28.2461" x="0" y="0"/>
  <path d="M27.8906 13.9453C27.8906 21.6426 21.6426 27.8906 13.9453 27.8906C6.24805 27.8906 0 21.6426 0 13.9453C0 6.24805 6.24805 0 13.9453 0C21.6426 0 27.8906 6.24805 27.8906 13.9453ZM2.32422 13.9453C2.32422 20.3711 7.51953 25.5664 13.9453 25.5664C20.3711 25.5664 25.5664 20.3711 25.5664 13.9453C25.5664 7.51953 20.3711 2.32422 13.9453 2.32422C7.51953 2.32422 2.32422 7.51953 2.32422 13.9453Z" fill="black" fill-opacity="0.85"/>
  <path d="M10.3842 12.6127C10.2249 13.028 10.1415 13.4821 10.1445 13.959C10.1445 16.0098 11.8262 17.7324 13.9316 17.7324C14.3989 17.7324 14.8463 17.6465 15.2576 17.4861L17.0114 19.2399C16.068 19.547 15.0339 19.7285 13.9316 19.7285C8.55859 19.7285 4.7168 15.3262 4.7168 13.959C4.7168 13.1886 5.89977 11.4778 7.88797 10.1165ZM23.1328 13.959C23.1328 14.7165 21.9745 16.4056 20.0147 17.7603L17.487 15.2354C17.6384 14.8363 17.7188 14.4054 17.7188 13.959C17.7188 11.8398 16.0234 10.1719 13.9316 10.1719C13.4779 10.1719 13.0432 10.2493 12.6425 10.3962L10.8954 8.65093C11.8285 8.35223 12.8477 8.17578 13.9316 8.17578C19.3457 8.17578 23.1328 12.5781 23.1328 13.959Z" fill="black" fill-opacity="0.85"/>
  <path d="M19.7969 20.6445C20.0293 20.877 20.4395 20.8906 20.6719 20.6445C20.918 20.3984 20.918 20.0156 20.6719 19.7695L8.14844 7.23242C7.88867 6.98633 7.50586 6.98633 7.25977 7.23242C7.01367 7.47852 7.01367 7.875 7.25977 8.10742Z" fill="black" fill-opacity="0.85"/>
 </g>
</svg>
