<?xml version="1.0" encoding="UTF-8"?>
<!--Generator: Apple Native CoreSVG 326-->
<!DOCTYPE svg
PUBLIC "-//W3C//DTD SVG 1.1//EN"
       "http://www.w3.org/Graphics/SVG/1.1/DTD/svg11.dtd">
<svg version="1.1" xmlns="http://www.w3.org/2000/svg" xmlns:xlink="http://www.w3.org/1999/xlink" viewBox="0 0 28.6319 24.2949">
 <g>
  <rect height="24.2949" opacity="0" width="28.6319" x="0" y="0"/>
  <path d="M25.3628 16.8164C26.4702 15.627 24.8296 13.959 23.5444 15.2305C21.7398 17.0215 18.6636 18.1289 15.273 18.1289C11.5542 18.1289 8.0132 17.2676 4.62257 15.4219C3.07765 14.5742 1.92922 16.7754 3.52882 17.623C7.20656 19.5781 11.2124 20.5625 15.273 20.5625C19.4429 20.5625 23.1343 19.1953 25.3628 16.8164ZM6.00343 18.498C5.68898 19.0996 4.99172 20.2344 4.56789 20.6855C3.61086 21.6836 5.00539 22.9141 5.96242 21.875C6.82375 20.9316 7.50734 19.4824 7.76711 19.0449ZM10.7749 19.5918C10.5152 20.8086 10.105 22.1621 9.87257 22.6953C9.31203 23.9805 11.0484 24.6504 11.5952 23.3379C12.0737 22.1348 12.4019 20.3574 12.4702 19.8516ZM15.7378 19.8926C15.9155 21.1367 15.8472 22.5586 15.8062 23.1465C15.7378 24.541 17.6109 24.5684 17.6382 23.1602C17.6792 21.8613 17.5152 20.0703 17.4194 19.5645ZM20.3862 19.0039C21.0835 20.3848 21.3023 21.834 21.4253 22.4219C21.6714 23.8027 23.5034 23.1875 23.2027 21.9707C22.8335 20.4395 22.3687 18.8535 21.8491 18.0879Z" fill="black" fill-opacity="0.85"/>
  <path d="M2.89992 11.1699C5.4839 11.1699 14.1929 4.9082 18.4312 4.9082C19.9214 4.9082 21.2339 5.50977 22.6148 6.76758L26.0464 9.92578C27.1812 10.9648 28.7944 9.73438 28.1245 8.57227C27.523 7.58789 26.6069 6.2207 24.5835 3.97852C22.396 1.54492 20.3999 0 17.2691 0C13.2085 0 7.02882 2.35156 1.28664 5.40039C-1.16063 6.69922 0.165544 11.1699 2.89992 11.1699Z" fill="black" fill-opacity="0.85"/>
 </g>
</svg>
