<?xml version="1.0" encoding="UTF-8"?>
<!--Generator: Apple Native CoreSVG 326-->
<!DOCTYPE svg
PUBLIC "-//W3C//DTD SVG 1.1//EN"
       "http://www.w3.org/Graphics/SVG/1.1/DTD/svg11.dtd">
<svg version="1.1" xmlns="http://www.w3.org/2000/svg" xmlns:xlink="http://www.w3.org/1999/xlink" viewBox="0 0 28.8887 28.998">
 <g>
  <rect height="28.998" opacity="0" width="28.8887" x="0" y="0"/>
  <path d="M18.1836 12.5098L5.7832 24.8965C5.30469 25.3887 4.67578 25.5391 4.21094 25.0332C3.70508 24.4863 3.81445 23.9668 4.34766 23.4199L16.707 11.0059L15.5312 9.84375L4.48438 20.8906C0.259766 25.1152 2.29688 24.459 0 27.6992L1.23047 28.998C4.36133 26.7148 3.9375 28.957 8.23047 24.6777L19.3184 13.6582ZM21.4375 14.9844L21.8203 14.5605C22.4902 13.8633 22.5312 13.043 21.8066 12.332L21.3965 11.9355C23.4883 10.0625 25.8125 9.80273 27.248 8.33984C29.2852 6.28906 28.6289 3.41797 27.1934 1.98242C25.7715 0.533203 22.9277-0.0820312 20.8359 1.92773C19.3594 3.34961 19.1133 5.6875 17.2402 7.7793L16.8438 7.36914C16.1465 6.6582 15.3125 6.68555 14.6152 7.35547L14.2051 7.73828C13.3574 8.54492 13.5215 9.25586 14.2324 9.98047L19.1953 14.9434C19.9199 15.668 20.6445 15.8184 21.4375 14.9844Z" fill="black" fill-opacity="0.85"/>
 </g>
</svg>
