<?xml version="1.0" encoding="UTF-8"?>
<!--Generator: Apple Native CoreSVG 326-->
<!DOCTYPE svg
PUBLIC "-//W3C//DTD SVG 1.1//EN"
       "http://www.w3.org/Graphics/SVG/1.1/DTD/svg11.dtd">
<svg version="1.1" xmlns="http://www.w3.org/2000/svg" xmlns:xlink="http://www.w3.org/1999/xlink" viewBox="0 0 28.2461 27.9043">
 <g>
  <rect height="27.9043" opacity="0" width="28.2461" x="0" y="0"/>
  <path d="M13.9453 27.8906C21.6426 27.8906 27.8906 21.6426 27.8906 13.9453C27.8906 6.24805 21.6426 0 13.9453 0C6.24805 0 0 6.24805 0 13.9453C0 21.6426 6.24805 27.8906 13.9453 27.8906ZM13.9453 25.5664C7.51953 25.5664 2.32422 20.3711 2.32422 13.9453C2.32422 7.51953 7.51953 2.32422 13.9453 2.32422C20.3711 2.32422 25.5664 7.51953 25.5664 13.9453C25.5664 20.3711 20.3711 25.5664 13.9453 25.5664Z" fill="black" fill-opacity="0.85"/>
  <path d="M8.20312 20.5625C8.20312 21.3145 8.99609 21.6973 10.5137 21.6973C12.6875 21.6973 14.041 20.4258 14.3691 18.0605L14.8887 14.3145L18.5117 14.3145C19.0996 14.3145 19.5234 13.9043 19.5234 13.3574C19.5234 12.7832 19.0859 12.373 18.498 12.373L15.1758 12.373L15.4766 10.1445C15.668 8.70898 16.2148 8.12109 17.2676 8.12109C18.1152 8.12109 18.375 8.2168 18.7715 8.2168C19.3184 8.2168 19.6875 7.84766 19.6875 7.31445C19.6875 6.5625 18.8672 6.17969 17.377 6.17969C15.2031 6.17969 13.8496 7.46484 13.5352 9.80273L13.1797 12.373L10.0625 12.373C9.50195 12.373 9.06445 12.7832 9.06445 13.3574C9.06445 13.9043 9.50195 14.3145 10.0762 14.3145L12.9062 14.3145L12.4277 17.7324C12.2363 19.1543 11.6895 19.7422 10.623 19.7422C9.80273 19.7422 9.55664 19.6328 9.11914 19.6328C8.57227 19.6328 8.20312 20.0156 8.20312 20.5625Z" fill="black" fill-opacity="0.85"/>
 </g>
</svg>
