<?xml version="1.0" encoding="UTF-8"?>
<!--Generator: Apple Native CoreSVG 326-->
<!DOCTYPE svg
PUBLIC "-//W3C//DTD SVG 1.1//EN"
       "http://www.w3.org/Graphics/SVG/1.1/DTD/svg11.dtd">
<svg version="1.1" xmlns="http://www.w3.org/2000/svg" xmlns:xlink="http://www.w3.org/1999/xlink" viewBox="0 0 17.5547 24.1582">
 <g>
  <rect height="24.1582" opacity="0" width="17.5547" x="0" y="0"/>
  <path d="M3.18555 24.1582C6.28906 24.1582 8.33984 22.3809 8.83203 18.8125L10.5547 6.33008C10.8965 3.81445 11.9629 2.76172 13.8359 2.76172C15.2168 2.76172 15.6406 2.93945 16.2012 2.93945C16.7891 2.93945 17.1992 2.57031 17.1992 1.92773C17.1992 0.875 15.5996 0.587891 14.0137 0.587891C10.9102 0.587891 8.85938 2.36523 8.36719 5.93359L6.6582 18.4297C6.31641 20.9453 5.23633 21.9844 3.36328 21.9844C1.99609 21.9844 1.58594 21.8066 1.01172 21.8066C0.410156 21.8066 0 22.1758 0 22.8184C0 23.8848 1.59961 24.1582 3.18555 24.1582ZM2.48828 12.5234L15.8047 12.5234C16.4609 12.5234 16.9258 12.0723 16.9258 11.4434C16.9258 10.8145 16.4473 10.3496 15.791 10.3496L2.47461 10.3496C1.81836 10.3496 1.35352 10.8008 1.35352 11.4434C1.35352 12.0723 1.83203 12.5234 2.48828 12.5234Z" fill="black" fill-opacity="0.85"/>
 </g>
</svg>
