<?xml version="1.0" encoding="UTF-8"?>
<!--Generator: Apple Native CoreSVG 326-->
<!DOCTYPE svg
PUBLIC "-//W3C//DTD SVG 1.1//EN"
       "http://www.w3.org/Graphics/SVG/1.1/DTD/svg11.dtd">
<svg version="1.1" xmlns="http://www.w3.org/2000/svg" xmlns:xlink="http://www.w3.org/1999/xlink" viewBox="0 0 25.5254 25.1699">
 <g>
  <rect height="25.1699" opacity="0" width="25.5254" x="0" y="0"/>
  <path d="M4.29297 25.1699L20.877 25.1699C23.748 25.1699 25.1699 23.7617 25.1699 20.9453L25.1699 4.23828C25.1699 1.42188 23.748 0 20.877 0L4.29297 0C1.43555 0 0 1.42188 0 4.23828L0 20.9453C0 23.7617 1.43555 25.1699 4.29297 25.1699Z" fill="black" fill-opacity="0.85"/>
  <path d="M9.48828 19.0449C8.75 19.0449 8.36719 18.5117 8.36719 17.7598L8.36719 7.30078C8.36719 6.53516 8.75 6.01562 9.47461 6.01562L16.2559 6.01562C16.8027 6.01562 17.1992 6.35742 17.1992 6.94531C17.1992 7.50586 16.8027 7.875 16.2559 7.875L10.6367 7.875L10.6367 11.6348L15.709 11.6348C16.2559 11.6348 16.6523 11.9629 16.6523 12.5371C16.6523 13.1113 16.2559 13.3984 15.709 13.3984L10.6367 13.3984L10.6367 17.7598C10.6367 18.5391 10.2266 19.0449 9.48828 19.0449Z" fill="white"/>
 </g>
</svg>
