<?xml version="1.0" encoding="UTF-8"?>
<!--Generator: Apple Native CoreSVG 326-->
<!DOCTYPE svg
PUBLIC "-//W3C//DTD SVG 1.1//EN"
       "http://www.w3.org/Graphics/SVG/1.1/DTD/svg11.dtd">
<svg version="1.1" xmlns="http://www.w3.org/2000/svg" xmlns:xlink="http://www.w3.org/1999/xlink" viewBox="0 0 28.2461 27.9043">
 <g>
  <rect height="27.9043" opacity="0" width="28.2461" x="0" y="0"/>
  <path d="M2.33789 13.9453C2.33789 12.7012 2.5293 11.498 2.88477 10.3906L0.738281 9.48828C0.273438 10.8965 0 12.3867 0 13.9453C0 15.4902 0.273438 16.9941 0.751953 18.4023L2.88477 17.5C2.5293 16.3926 2.33789 15.1895 2.33789 13.9453ZM8.62695 3.58203L7.75195 1.47656C5.04492 2.83008 2.81641 5.05859 1.46289 7.76562L3.5957 8.6543C4.68945 6.48047 6.4668 4.70312 8.62695 3.58203ZM13.9316 2.32422C15.1758 2.32422 16.3789 2.51562 17.5137 2.88477L18.3887 0.751953C16.9805 0.273438 15.4766 0 13.9316 0C12.3867 0 10.8691 0.273438 9.46094 0.751953L10.3633 2.88477C11.4844 2.51562 12.6875 2.32422 13.9316 2.32422ZM24.2949 8.64062L26.4141 7.76562C25.0469 5.05859 22.8184 2.83008 20.1113 1.46289L19.2363 3.58203C21.3965 4.68945 23.1875 6.4668 24.2949 8.64062ZM25.5664 13.9453C25.5664 15.1895 25.375 16.3926 25.0195 17.5137L27.1387 18.416C27.6172 17.0078 27.8906 15.4902 27.8906 13.9453C27.8906 12.3867 27.6172 10.8828 27.1387 9.47461L25.0059 10.377C25.375 11.498 25.5664 12.7012 25.5664 13.9453ZM19.2363 24.2949L20.1113 26.4277C22.832 25.0605 25.0605 22.832 26.4004 20.125L24.3086 19.25C23.2012 21.4238 21.4102 23.1875 19.2363 24.2949ZM13.9453 25.5664C12.6875 25.5664 11.4844 25.375 10.3633 25.0059L9.47461 27.1387C10.8828 27.6172 12.4004 27.8906 13.9453 27.8906C15.4902 27.8906 16.9941 27.6172 18.3887 27.1523L17.5 25.0195C16.3789 25.375 15.1895 25.5664 13.9453 25.5664ZM3.5957 19.25L1.47656 20.125C2.84375 22.832 5.04492 25.0605 7.75195 26.4141L8.62695 24.2812C6.4668 23.1738 4.68945 21.4102 3.5957 19.25Z" fill="black" fill-opacity="0.85"/>
  <path d="M13.9316 23.502C19.209 23.502 23.4746 19.2227 23.4746 13.9453C23.4746 8.68164 19.209 4.40234 13.9316 4.40234C8.6543 4.40234 4.38867 8.68164 4.38867 13.9453C4.38867 19.2227 8.6543 23.502 13.9316 23.502ZM13.9316 19.6055C11.4844 19.6055 9.84375 17.9648 9.84375 17.1855C9.84375 16.9121 10.1172 16.8027 10.3496 16.9121C11.1973 17.377 12.2227 17.9102 13.9316 17.9102C15.6543 17.9102 16.666 17.377 17.5273 16.9121C17.7598 16.8027 18.0195 16.9121 18.0195 17.1855C18.0195 17.9648 16.3926 19.6055 13.9316 19.6055ZM10.459 12.6602C9.7207 12.6602 9.07812 12.0039 9.07812 11.0742C9.07812 10.1172 9.7207 9.46094 10.459 9.46094C11.1973 9.46094 11.8398 10.1172 11.8398 11.0742C11.8398 12.0039 11.1836 12.6602 10.459 12.6602ZM17.4316 12.6602C16.6934 12.6602 16.0508 12.0039 16.0508 11.0742C16.0508 10.1172 16.6934 9.46094 17.4316 9.46094C18.1699 9.46094 18.8125 10.1172 18.8125 11.0742C18.8125 12.0039 18.1562 12.6602 17.4316 12.6602Z" fill="black" fill-opacity="0.85"/>
 </g>
</svg>
