<?xml version="1.0" encoding="UTF-8"?>
<!--Generator: Apple Native CoreSVG 326-->
<!DOCTYPE svg
PUBLIC "-//W3C//DTD SVG 1.1//EN"
       "http://www.w3.org/Graphics/SVG/1.1/DTD/svg11.dtd">
<svg version="1.1" xmlns="http://www.w3.org/2000/svg" xmlns:xlink="http://www.w3.org/1999/xlink" viewBox="0 0 42.1504 21.0137">
 <g>
  <rect height="21.0137" opacity="0" width="42.1504" x="0" y="0"/>
  <path d="M7.01367 6.34375L7.01367 6.53516L4.4707 6.53516C3.00781 6.53516 2.20117 7.46484 2.20117 8.98242C2.20117 11.8401 4.1654 13.9597 7.12832 14.2289C7.27606 15.0329 7.6182 15.7802 8.1298 16.4609L7.99805 16.4609C3.19922 16.4609 0 13.3848 0 8.98242C0 6.08398 1.64062 4.33398 4.4707 4.33398L7.48328 4.33398C7.1694 4.94155 7.01367 5.61315 7.01367 6.34375ZM41.7949 8.98242C41.7949 13.3848 38.5957 16.4609 33.8105 16.4609L33.6654 16.4609C34.1768 15.7802 34.5189 15.0329 34.6666 14.2289C37.6295 13.9597 39.5938 11.8401 39.5938 8.98242C39.5938 7.46484 38.7871 6.53516 37.3242 6.53516L34.7812 6.53516L34.7812 6.34375C34.7812 5.61315 34.6255 4.94155 34.3117 4.33398L37.3242 4.33398C40.168 4.33398 41.7949 6.08398 41.7949 8.98242Z" fill="black" fill-opacity="0.85"/>
  <path d="M20.9043 20.9727C29.0117 20.9727 34.7812 17.8145 34.7812 13.1797L34.7812 6.34375C34.7812 2.24219 29.873 0 20.9043 0C11.9219 0 7.01367 2.24219 7.01367 6.34375L7.01367 13.1797C7.01367 17.8145 12.7832 20.9727 20.9043 20.9727Z" fill="black" fill-opacity="0.85"/>
  <path d="M13.4941 7.54688C13.4941 6.93164 14 6.41211 14.6289 6.41211L27.1797 6.41211C27.8223 6.41211 28.3281 6.93164 28.3281 7.54688C28.3281 8.17578 27.8223 8.69531 27.1797 8.69531L14.6289 8.69531C14 8.69531 13.4941 8.17578 13.4941 7.54688ZM13.4941 12.8242C13.4941 12.1953 14 11.6758 14.6289 11.6758L27.1797 11.6758C27.8223 11.6758 28.3281 12.1953 28.3281 12.8242C28.3281 13.4531 27.8223 13.959 27.1797 13.959L14.6289 13.959C14 13.959 13.4941 13.4531 13.4941 12.8242Z" fill="white"/>
 </g>
</svg>
