<?xml version="1.0" encoding="UTF-8"?>
<!--Generator: Apple Native CoreSVG 326-->
<!DOCTYPE svg
PUBLIC "-//W3C//DTD SVG 1.1//EN"
       "http://www.w3.org/Graphics/SVG/1.1/DTD/svg11.dtd">
<svg version="1.1" xmlns="http://www.w3.org/2000/svg" xmlns:xlink="http://www.w3.org/1999/xlink" viewBox="0 0 28.041 31.8418">
 <g>
  <rect height="31.8418" opacity="0" width="28.041" x="0" y="0"/>
  <path d="M27.6855 13.8496C27.6855 21.1367 22.0801 27.084 14.9434 27.6445L14.9434 29.1895L19.8105 29.1895C21.1094 29.1895 21.9434 29.9141 21.9434 30.9395C21.9434 31.4727 21.6152 31.8418 21.0957 31.8418L6.58984 31.8418C6.08398 31.8418 5.75586 31.4727 5.75586 30.9395C5.75586 29.9141 6.58984 29.1895 7.88867 29.1895L12.7422 29.1895L12.7422 27.6445C5.60547 27.0977 0 21.1367 0 13.8496C0 6.19336 6.19336 0 13.8496 0C21.4922 0 27.6855 6.20703 27.6855 13.8496ZM4.94922 9.35156C4.94922 11.4297 6.69922 12.5371 9.84375 13.7266C9.84375 14.0273 9.85742 14.2871 9.89844 14.5605L6.78125 14.5605C5.1543 14.5605 4.2793 15.3535 4.2793 16.9531C4.2793 19.8242 6.89062 22.7363 9.33789 22.7363C11.4297 22.7363 12.5234 20.9863 13.7266 17.8418C14.0273 17.8418 14.2871 17.8281 14.5469 17.7871L14.5469 20.9043C14.5469 22.5312 15.3535 23.4062 16.9395 23.4062C19.8242 23.4062 22.7363 20.7949 22.7363 18.3477C22.7363 16.2559 20.9727 15.1484 17.8418 13.959C17.8418 13.6582 17.8281 13.3848 17.7871 13.1387L20.9043 13.1387C22.5176 13.1387 23.3926 12.332 23.3926 10.7461C23.3926 7.86133 20.7949 4.94922 18.334 4.94922C16.2422 4.94922 15.1484 6.71289 13.959 9.85742C13.6582 9.84375 13.3984 9.85742 13.125 9.89844L13.125 6.78125C13.125 5.16797 12.3184 4.29297 10.7324 4.29297C7.86133 4.29297 4.94922 6.89062 4.94922 9.35156ZM15.8457 13.8496C15.8457 14.9434 14.9434 15.8457 13.8496 15.8457C12.7422 15.8457 11.8398 14.9434 11.8398 13.8496C11.8398 12.7422 12.7422 11.8398 13.8496 11.8398C14.9434 11.8398 15.8457 12.7422 15.8457 13.8496Z" fill="black" fill-opacity="0.85"/>
 </g>
</svg>
