<?xml version="1.0" encoding="UTF-8"?>
<!--Generator: Apple Native CoreSVG 326-->
<!DOCTYPE svg
PUBLIC "-//W3C//DTD SVG 1.1//EN"
       "http://www.w3.org/Graphics/SVG/1.1/DTD/svg11.dtd">
<svg version="1.1" xmlns="http://www.w3.org/2000/svg" xmlns:xlink="http://www.w3.org/1999/xlink" viewBox="0 0 29.5859 29.2441">
 <g>
  <rect height="29.2441" opacity="0" width="29.5859" x="0" y="0"/>
  <path d="M9.91211 15.0254C10.9648 13.1797 12.1543 11.457 13.5215 9.91211L13.5215 3.81445C13.5215 1.3125 12.25 0 9.83008 0C5.42773 0 0.970703 3.97852 0.970703 7.73828C0.970703 11.2246 4.22461 12.8926 9.91211 15.0254ZM14.2051 9.91211C16.0508 10.9648 17.7734 12.1543 19.3184 13.5215L25.416 13.5215C27.918 13.5215 29.2305 12.25 29.2305 9.83008C29.2305 5.44141 25.252 0.970703 21.4922 0.970703C18.0059 0.970703 16.3242 4.22461 14.2051 9.91211ZM19.3184 14.2051C18.2656 16.0508 17.0625 17.7734 15.709 19.3184L15.709 25.416C15.709 27.918 16.9805 29.2305 19.3867 29.2305C23.7891 29.2305 28.2598 25.252 28.2598 21.4922C28.2598 18.0059 25.0059 16.3242 19.3184 14.2051ZM15.0254 19.3184C13.166 18.2656 11.457 17.0625 9.91211 15.709L3.80078 15.709C1.3125 15.709 0 16.9805 0 19.3867C0 23.7891 3.97852 28.2598 7.73828 28.2598C11.2246 28.2598 12.8926 25.0059 15.0254 19.3184ZM14.6152 19.7148C17.4316 19.7148 19.7148 17.4316 19.7148 14.6152C19.7148 11.7988 17.4316 9.51562 14.6152 9.51562C11.7852 9.51562 9.51562 11.7988 9.51562 14.6152C9.51562 17.4316 11.7852 19.7148 14.6152 19.7148ZM14.6152 17.7871C12.8652 17.7871 11.4434 16.3652 11.4434 14.6152C11.4434 12.8652 12.8652 11.4434 14.6152 11.4434C16.3652 11.4434 17.7871 12.8652 17.7871 14.6152C17.7871 16.3652 16.3652 17.7871 14.6152 17.7871ZM14.6152 16.4883C15.6543 16.4883 16.4746 15.6543 16.4746 14.6152C16.4746 13.5762 15.6543 12.7422 14.6152 12.7422C13.5762 12.7422 12.7422 13.5762 12.7422 14.6152C12.7422 15.6543 13.5762 16.4883 14.6152 16.4883Z" fill="black" fill-opacity="0.85"/>
 </g>
</svg>
