<?xml version="1.0" encoding="UTF-8"?>
<!--Generator: Apple Native CoreSVG 326-->
<!DOCTYPE svg
PUBLIC "-//W3C//DTD SVG 1.1//EN"
       "http://www.w3.org/Graphics/SVG/1.1/DTD/svg11.dtd">
<svg version="1.1" xmlns="http://www.w3.org/2000/svg" xmlns:xlink="http://www.w3.org/1999/xlink" viewBox="0 0 28.5059 33.5645">
 <g>
  <rect height="33.5645" opacity="0" width="28.5059" x="0" y="0"/>
  <path d="M14.0684 33.5645C22.0801 33.5645 28.1504 31.8555 28.1504 28.9297C28.1504 27.084 25.7168 25.7168 21.834 24.9648L20.6582 26.8105C24.0488 27.2891 26.0859 28.1094 26.0859 28.9297C26.0859 30.1875 21.2324 31.5 14.0684 31.5C6.91797 31.5 2.06445 30.1875 2.06445 28.9297C2.06445 28.1094 4.10156 27.2891 7.49219 26.8105L6.30273 24.9648C2.43359 25.7168 0 27.084 0 28.9297C0 31.8555 6.07031 33.5645 14.0684 33.5645ZM5.25 24.4043L6.61719 27.6172C6.82227 28.082 7.38281 28.1777 7.76562 27.6309L9.46094 25.1562C9.80273 24.6777 9.66602 24.1172 9.03711 23.9941L6.0293 23.4746C5.35938 23.3516 5.04492 23.9121 5.25 24.4043ZM22.9004 24.4043C23.1055 23.9121 22.7773 23.3516 22.1211 23.4746L19.1133 23.9941C18.4844 24.1172 18.3477 24.6777 18.6758 25.1562L20.3848 27.6309C20.7676 28.1777 21.3145 28.082 21.5195 27.6172Z" fill="black" fill-opacity="0.85"/>
  <path d="M3.07617 14.6426C3.07617 17.9785 6.05664 21.4375 8.95508 21.4375C11.4707 21.4375 12.9199 19.2637 14.2871 15.5039C14.4648 15.5039 14.5742 15.4902 14.7109 15.4629L14.7109 18.9629C14.7109 20.9863 15.7363 22.0391 17.6914 22.0391C21.0137 22.0391 24.4863 19.0586 24.4863 16.1738C24.4863 13.7812 22.5176 12.1953 18.5527 10.8418C18.5527 10.6777 18.5391 10.5547 18.498 10.418L21.9844 10.418C23.9941 10.418 25.0879 9.37891 25.0879 7.4375C25.0879 4.11523 22.0801 0.642578 19.1953 0.642578C16.7344 0.642578 15.2715 2.95312 13.877 6.5625C13.6992 6.5625 13.5898 6.57617 13.4668 6.60352L13.4668 3.13086C13.4668 1.10742 12.4277 0.0273438 10.459 0.0273438C7.15039 0.0546875 3.67773 3.02148 3.67773 5.90625C3.67773 8.42188 5.86523 9.87109 9.57031 11.2383C9.57031 11.4023 9.58398 11.5254 9.61133 11.6484L6.16602 11.6484C4.14258 11.6484 3.07617 12.7012 3.07617 14.6426ZM14.082 13.1797C12.8926 13.1797 11.9355 12.209 11.9355 11.0332C11.9355 9.84375 12.8926 8.88672 14.082 8.88672C15.2578 8.88672 16.2285 9.84375 16.2285 11.0332C16.2285 12.209 15.2578 13.1797 14.082 13.1797Z" fill="black" fill-opacity="0.85"/>
 </g>
</svg>
