<?xml version="1.0" encoding="UTF-8"?>
<!--Generator: Apple Native CoreSVG 326-->
<!DOCTYPE svg
PUBLIC "-//W3C//DTD SVG 1.1//EN"
       "http://www.w3.org/Graphics/SVG/1.1/DTD/svg11.dtd">
<svg version="1.1" xmlns="http://www.w3.org/2000/svg" xmlns:xlink="http://www.w3.org/1999/xlink" viewBox="0 0 31.2402 29.9004">
 <g>
  <rect height="29.9004" opacity="0" width="31.2402" x="0" y="0"/>
  <path d="M25.4707 4.30664L25.4707 5.03125L23.3516 5.03125L23.3516 4.15625C23.3516 3.00781 22.7773 2.44727 21.6289 2.44727L9.25586 2.44727C8.12109 2.44727 7.5332 3.00781 7.5332 4.15625L7.5332 5.03125L5.41406 5.03125L5.41406 4.30664C5.41406 1.64062 6.87695 0.451172 9.2832 0.451172L21.6016 0.451172C24.1445 0.451172 25.4707 1.64062 25.4707 4.30664Z" fill="black" fill-opacity="0.85"/>
  <path d="M30.8848 9.03711L30.8848 21.834C30.8848 24.5 29.4766 25.8398 26.8242 25.8398L25.375 25.8398L25.375 23.7754L26.8516 23.7754C28.0547 23.7754 28.6836 23.1465 28.6836 21.9434L28.6836 8.92773C28.6836 7.72461 28.0547 7.0957 26.8516 7.0957L4.04688 7.0957C2.83008 7.0957 2.21484 7.72461 2.21484 8.92773L2.21484 21.9434C2.21484 23.1465 2.83008 23.7754 4.04688 23.7754L5.50977 23.7754L5.50977 25.8398L4.07422 25.8398C1.4082 25.8398 0 24.5 0 21.834L0 9.03711C0 6.38477 1.54492 5.03125 4.07422 5.03125L26.8242 5.03125C29.4766 5.03125 30.8848 6.38477 30.8848 9.03711Z" fill="black" fill-opacity="0.85"/>
  <path d="M9.95312 14.6836L9.95312 15.9414C9.95312 16.3242 9.7207 16.5566 9.33789 16.5566L8.08008 16.5566C7.71094 16.5566 7.47852 16.3242 7.47852 15.9414L7.47852 14.6836C7.47852 14.3008 7.71094 14.0684 8.08008 14.0684L9.33789 14.0684C9.7207 14.0684 9.95312 14.3008 9.95312 14.6836ZM14.4375 14.6836L14.4375 15.9414C14.4375 16.3242 14.2051 16.5566 13.8223 16.5566L12.5781 16.5566C12.1953 16.5566 11.9629 16.3242 11.9629 15.9414L11.9629 14.6836C11.9629 14.3008 12.1953 14.0684 12.5781 14.0684L13.8223 14.0684C14.2051 14.0684 14.4375 14.3008 14.4375 14.6836ZM18.9219 14.6836L18.9219 15.9414C18.9219 16.3242 18.6895 16.5566 18.3203 16.5566L17.0625 16.5566C16.6797 16.5566 16.4473 16.3242 16.4473 15.9414L16.4473 14.6836C16.4473 14.3008 16.6797 14.0684 17.0625 14.0684L18.3203 14.0684C18.6895 14.0684 18.9219 14.3008 18.9219 14.6836ZM23.4199 14.6836L23.4199 15.9414C23.4199 16.3242 23.1875 16.5566 22.8047 16.5566L21.5469 16.5566C21.1777 16.5566 20.9453 16.3242 20.9453 15.9414L20.9453 14.6836C20.9453 14.3008 21.1777 14.0684 21.5469 14.0684L22.8047 14.0684C23.1875 14.0684 23.4199 14.3008 23.4199 14.6836ZM9.95312 10.0898L9.95312 11.334C9.95312 11.7168 9.7207 11.9492 9.33789 11.9492L8.08008 11.9492C7.71094 11.9492 7.47852 11.7168 7.47852 11.334L7.47852 10.0898C7.47852 9.70703 7.71094 9.47461 8.08008 9.47461L9.33789 9.47461C9.7207 9.47461 9.95312 9.70703 9.95312 10.0898ZM14.4375 10.0898L14.4375 11.334C14.4375 11.7168 14.2051 11.9492 13.8223 11.9492L12.5781 11.9492C12.1953 11.9492 11.9629 11.7168 11.9629 11.334L11.9629 10.0898C11.9629 9.70703 12.1953 9.47461 12.5781 9.47461L13.8223 9.47461C14.2051 9.47461 14.4375 9.70703 14.4375 10.0898ZM18.9219 10.0898L18.9219 11.334C18.9219 11.7168 18.6895 11.9492 18.3203 11.9492L17.0625 11.9492C16.6797 11.9492 16.4473 11.7168 16.4473 11.334L16.4473 10.0898C16.4473 9.70703 16.6797 9.47461 17.0625 9.47461L18.3203 9.47461C18.6895 9.47461 18.9219 9.70703 18.9219 10.0898ZM23.4199 10.0898L23.4199 11.334C23.4199 11.7168 23.1875 11.9492 22.8047 11.9492L21.5469 11.9492C21.1777 11.9492 20.9453 11.7168 20.9453 11.334L20.9453 10.0898C20.9453 9.70703 21.1777 9.47461 21.5469 9.47461L22.8047 9.47461C23.1875 9.47461 23.4199 9.70703 23.4199 10.0898Z" fill="black" fill-opacity="0.85"/>
  <path d="M8.12109 29.9004L22.7637 29.9004C24.5 29.9004 25.375 29.1074 25.375 27.2891L25.375 21.5332C25.375 19.7285 24.5 18.9219 22.7637 18.9219L8.12109 18.9219C6.4668 18.9219 5.50977 19.7285 5.50977 21.5332L5.50977 27.2891C5.50977 29.1074 6.38477 29.9004 8.12109 29.9004ZM8.80469 27.8359C8.08008 27.8359 7.71094 27.4805 7.71094 26.7422L7.71094 22.0664C7.71094 21.3418 8.08008 20.9863 8.80469 20.9863L22.0938 20.9863C22.832 20.9863 23.1738 21.3418 23.1738 22.0664L23.1738 26.7422C23.1738 27.4805 22.832 27.8359 22.0938 27.8359ZM9.74805 24.3906C9.74805 24.9785 10.1992 25.4434 10.7871 25.4434L20.1113 25.4434C20.6855 25.4434 21.1367 24.9785 21.1367 24.3906C21.1367 23.8301 20.6855 23.3652 20.1113 23.3652L10.7871 23.3652C10.1992 23.3652 9.74805 23.8301 9.74805 24.3906Z" fill="black" fill-opacity="0.85"/>
 </g>
</svg>
