<?xml version="1.0" encoding="UTF-8"?>
<!--Generator: Apple Native CoreSVG 326-->
<!DOCTYPE svg
PUBLIC "-//W3C//DTD SVG 1.1//EN"
       "http://www.w3.org/Graphics/SVG/1.1/DTD/svg11.dtd">
<svg version="1.1" xmlns="http://www.w3.org/2000/svg" xmlns:xlink="http://www.w3.org/1999/xlink" viewBox="0 0 29.196 34.0293">
 <g>
  <rect height="34.0293" opacity="0" width="29.196" x="0" y="0"/>
  <path d="M14.4202 34.0293C18.1527 34.0293 18.7406 31.2539 20.9144 31.2539C23.1292 31.2539 23.4847 34.0293 27.7503 34.0293L27.8187 34.0293C28.3519 34.0293 28.7894 33.5918 28.7894 33.0586C28.7894 32.5254 28.3519 32.1016 27.8187 32.1016L27.7503 32.1016C26.2874 32.1016 25.4534 31.4863 24.4281 30.7617C23.5394 30.1191 22.432 29.3262 20.9144 29.3262C19.3421 29.3262 18.221 30.1602 17.3324 30.8301C16.389 31.541 15.6507 32.1016 14.4202 32.1016C13.1898 32.1016 12.4515 31.541 11.5081 30.8301C10.6195 30.1602 9.49837 29.3262 7.9261 29.3262C6.40853 29.3262 5.3011 30.1191 4.41243 30.7617C3.38704 31.4863 2.56673 32.1016 1.09017 32.1016L1.02181 32.1016C0.488605 32.1016 0.051105 32.5254 0.051105 33.0586C0.051105 33.5918 0.488605 34.0293 1.02181 34.0293L1.09017 34.0293C5.35579 34.0293 5.71126 31.2539 7.9261 31.2539C10.0999 31.2539 10.6878 34.0293 14.4202 34.0293ZM14.4202 30.502C15.0492 30.502 15.3636 30.3242 16.3753 29.5449C17.264 28.8887 18.8226 27.7266 20.9144 27.7266C22.1449 27.7266 23.1566 28.0684 24.3324 28.7793L28.2288 21.875C29.3909 19.8379 28.9124 18.3477 26.8753 17.418L16.9359 12.8516C16.3617 12.5918 15.555 12.1543 14.4202 12.1543C13.2992 12.1543 12.4925 12.5918 11.9046 12.8516L1.96517 17.418C-0.05827 18.3477-0.536786 19.8379 0.611652 21.875L4.50814 28.7793C5.68392 28.0684 6.69564 27.7266 7.9261 27.7266C10.0179 27.7266 11.5765 28.8887 12.4652 29.5449C13.4769 30.3242 13.7913 30.502 14.4202 30.502ZM14.4202 10.2949C15.6507 10.2949 16.4437 10.5684 17.7152 11.1562L24.8792 14.4512L23.7034 5.72852C23.4984 4.23828 22.5687 3.18555 21.0921 3.18555L7.77571 3.18555C6.29915 3.18555 5.41048 4.23828 5.16439 6.00195L3.9886 14.4375L11.1253 11.1562C12.3968 10.5684 13.1898 10.2949 14.4202 10.2949ZM8.39095 8.8457C8.06282 8.8457 7.84407 8.61328 7.84407 8.28516L7.84407 6.09766C7.84407 5.76953 8.06282 5.53711 8.39095 5.53711L12.6292 5.53711C13.0394 5.53711 13.3128 5.76953 13.3128 6.09766L13.3128 8.28516C13.3128 8.61328 13.0394 8.8457 12.6292 8.8457ZM16.0745 8.8457C15.7601 8.8457 15.5413 8.61328 15.5413 8.28516L15.5413 6.09766C15.5413 5.76953 15.7601 5.53711 16.0745 5.53711L20.3265 5.53711C20.7367 5.53711 21.0101 5.76953 21.0101 6.09766L21.0101 8.28516C21.0101 8.61328 20.7367 8.8457 20.3265 8.8457ZM8.74642 3.5957L20.1077 3.5957L20.1077 2.43359C20.1077 1.10742 19.3284 0.314453 18.0023 0.314453L10.8519 0.314453C9.52571 0.314453 8.74642 1.10742 8.74642 2.43359Z" fill="black" fill-opacity="0.85"/>
 </g>
</svg>
