<?xml version="1.0" encoding="UTF-8"?>
<!--Generator: Apple Native CoreSVG 326-->
<!DOCTYPE svg
PUBLIC "-//W3C//DTD SVG 1.1//EN"
       "http://www.w3.org/Graphics/SVG/1.1/DTD/svg11.dtd">
<svg version="1.1" xmlns="http://www.w3.org/2000/svg" xmlns:xlink="http://www.w3.org/1999/xlink" viewBox="0 0 34.6445 26.0176">
 <g>
  <rect height="26.0176" opacity="0" width="34.6445" x="0" y="0"/>
  <path d="M0 1.10742C0 1.70898 0.492188 2.20117 1.09375 2.20117L33.1953 2.20117C33.7969 2.20117 34.2891 1.70898 34.2891 1.10742C34.2891 0.505859 33.7969 0 33.1953 0L1.09375 0C0.492188 0 0 0.505859 0 1.10742ZM4.11523 14.1504L23.6797 14.1504L23.6797 18.9492C23.6797 19.9199 24.8965 20.4121 25.6074 19.6738L31.0898 14.0957C31.8828 13.2891 31.623 11.8672 30.1875 11.8672L10.623 11.8672L10.623 7.06836C10.623 6.09766 9.40625 5.60547 8.69531 6.34375L3.22656 11.9219C2.41992 12.7285 2.67969 14.1504 4.11523 14.1504ZM0 24.8965C0 25.498 0.492188 26.0039 1.09375 26.0039L33.1953 26.0039C33.7969 26.0039 34.2891 25.498 34.2891 24.8965C34.2891 24.2949 33.7969 23.8027 33.1953 23.8027L1.09375 23.8027C0.492188 23.8027 0 24.2949 0 24.8965Z" fill="black" fill-opacity="0.85"/>
 </g>
</svg>
