<?xml version="1.0" encoding="UTF-8"?>
<!--Generator: Apple Native CoreSVG 326-->
<!DOCTYPE svg
PUBLIC "-//W3C//DTD SVG 1.1//EN"
       "http://www.w3.org/Graphics/SVG/1.1/DTD/svg11.dtd">
<svg version="1.1" xmlns="http://www.w3.org/2000/svg" xmlns:xlink="http://www.w3.org/1999/xlink" viewBox="0 0 40.8495 24.0215">
 <g>
  <rect height="24.0215" opacity="0" width="40.8495" x="0" y="0"/>
  <path d="M1.29781 13.7812L17.2939 22.4355C18.5517 23.1191 19.3447 23.4883 20.247 23.4883C21.1494 23.4883 21.9423 23.1191 23.2002 22.4355L39.1963 13.7812C40.4951 13.084 40.9052 11.5117 40.0302 10.2402C35.6142 4.01953 28.3134 0 20.247 0C12.1806 0 4.87985 4.01953 0.46383 10.2402C-0.41117 11.5117-0.00101337 13.084 1.29781 13.7812ZM2.67867 12.0586C2.33688 11.8535 2.25485 11.5117 2.52828 11.1426C6.58883 5.5918 12.9189 2.20117 20.247 2.20117C27.5888 2.20117 33.9463 5.60547 37.9931 11.1699C38.2392 11.5254 38.1572 11.8535 37.8154 12.0586L21.9287 20.6309C21.2451 21 20.7802 21.1914 20.247 21.1914C19.7138 21.1914 19.249 21 18.5654 20.6309Z" fill="black" fill-opacity="0.85"/>
  <path d="M2.67867 12.0586C2.33688 11.8535 2.25485 11.5117 2.52828 11.1426C6.58883 5.5918 12.9189 2.20117 20.247 2.20117C27.5888 2.20117 33.9463 5.60547 37.9931 11.1699C38.2392 11.5254 38.1572 11.8535 37.8154 12.0586L21.9287 20.6309C21.2451 21 20.7802 21.1914 20.247 21.1914C19.7138 21.1914 19.249 21 18.5654 20.6309Z" fill="black" fill-opacity="0.25"/>
 </g>
</svg>
