<?xml version="1.0" encoding="UTF-8"?>
<!--Generator: Apple Native CoreSVG 326-->
<!DOCTYPE svg
PUBLIC "-//W3C//DTD SVG 1.1//EN"
       "http://www.w3.org/Graphics/SVG/1.1/DTD/svg11.dtd">
<svg version="1.1" xmlns="http://www.w3.org/2000/svg" xmlns:xlink="http://www.w3.org/1999/xlink" viewBox="0 0 30.0645 33.9746">
 <g>
  <rect height="33.9746" opacity="0" width="30.0645" x="0" y="0"/>
  <path d="M22.4355 6.15234C24.0625 6.15234 25.416 4.8125 25.416 3.17188C25.416 1.53125 24.0625 0.177734 22.4355 0.177734C20.7949 0.177734 19.4414 1.53125 19.4414 3.17188C19.4414 4.8125 20.7949 6.15234 22.4355 6.15234ZM17.1309 25.334C17.9238 25.334 18.5254 24.7051 18.5254 23.9395L18.5254 17.3496C18.5254 16.9668 18.4023 16.5977 18.1426 16.3652L14.5195 12.7559L17.7461 9.51562C17.9512 9.31055 18.293 9.31055 18.498 9.51562L20.7539 11.7852C21 12.0449 21.3691 12.1816 21.7246 12.1816L28.3145 12.1816C29.0938 12.1816 29.709 11.5664 29.709 10.7734C29.709 10.0078 29.0938 9.37891 28.3145 9.37891L22.2988 9.37891L17.4043 4.45703C16.7891 3.82812 15.8867 3.47266 15.0117 3.47266L9.85742 3.47266C8.46289 3.47266 8.05273 5.00391 8.92773 5.87891L11.2246 8.16211L9.37891 9.9668C8.2168 11.1152 8.2168 13.0703 9.37891 14.2051L11.8125 16.6113L11.8125 24.2676C11.8125 25.0332 12.4141 25.6621 13.207 25.6621C13.9727 25.6621 14.6016 25.0332 14.6016 24.2676L14.6016 16.8027L15.7363 17.9238L15.7363 23.9395C15.7363 24.7051 16.3652 25.334 17.1309 25.334ZM0.765625 9.7207L14.0137 9.7207L14.0137 8.20312L0.765625 8.20312C0.341797 8.20312 0 8.54492 0 8.96875C0 9.37891 0.341797 9.7207 0.765625 9.7207ZM28.916 24.6641C29.3262 24.6641 29.6816 24.3086 29.6816 23.8984L29.6816 10.8145L28.1641 10.8145L28.1641 23.8984C28.1641 24.3086 28.5059 24.6641 28.916 24.6641ZM22.3809 33.9746C22.8047 33.9746 23.1465 33.6328 23.1465 33.209C23.1465 32.7852 22.8047 32.457 22.3809 32.457C21.4375 32.457 21.1777 32.293 20.3848 31.5137L5.82422 16.9395C5.50977 16.6387 5.03125 16.6387 4.74414 16.9395C4.44336 17.2266 4.44336 17.7051 4.74414 18.0059L19.5234 32.7852C20.3848 33.6465 21.3281 33.9746 22.3809 33.9746ZM25.9219 33.2363C26.3457 33.2363 26.6738 32.8945 26.6738 32.4707C26.6738 32.0469 26.3457 31.7188 25.9219 31.7188C24.9785 31.7188 24.7051 31.5547 23.9121 30.7754L9.35156 16.2148C9.03711 15.9004 8.57227 15.9004 8.27148 16.2012C7.98438 16.502 7.98438 16.9668 8.27148 17.2676L23.0508 32.0469C23.9121 32.9082 24.8555 33.2363 25.9219 33.2363Z" fill="black" fill-opacity="0.85"/>
 </g>
</svg>
