<?xml version="1.0" encoding="UTF-8"?>
<!--Generator: Apple Native CoreSVG 326-->
<!DOCTYPE svg
PUBLIC "-//W3C//DTD SVG 1.1//EN"
       "http://www.w3.org/Graphics/SVG/1.1/DTD/svg11.dtd">
<svg version="1.1" xmlns="http://www.w3.org/2000/svg" xmlns:xlink="http://www.w3.org/1999/xlink" viewBox="0 0 26.5645 27.8496">
 <g>
  <rect height="27.8496" opacity="0" width="26.5645" x="0" y="0"/>
  <path d="M3.67773 7.47852C1.64062 7.47852 0 5.76953 0 3.78711C0 1.72266 1.64062 0.0546875 3.67773 0.0546875C5.75586 0.0546875 7.39648 1.72266 7.39648 3.78711C7.39648 5.82422 5.75586 7.47852 3.67773 7.47852ZM25.7168 27.043C25.0059 27.7812 23.7891 27.7266 22.9141 26.8242L17.0352 20.7539C16.8438 20.5488 16.707 20.4941 16.4062 20.6172L11.8125 22.3535C8.85938 23.4883 6.07031 22.5176 4.78516 20.166L1.83203 14.793C0.683594 12.7012 1.03906 10.541 3.03516 9.47461C4.96289 8.42188 6.97266 9.21484 8.13477 11.3613L11.9629 18.3477L15.2305 17.1582C16.8438 16.5703 18.1973 16.7617 19.4824 18.1016L25.5938 24.418C26.4414 25.293 26.3594 26.3867 25.7168 27.043Z" fill="black" fill-opacity="0.85"/>
  <path d="M21.3281 0C20.6719 0 20.166 0.505859 20.166 1.16211L20.166 7.45117L17.6914 7.45117C16.5156 7.45117 16.1191 8.62695 16.8301 9.41992L20.4941 13.5625C21.0137 14.1367 21.6973 14.123 22.1895 13.5625L25.8535 9.41992C26.6055 8.58594 26.1133 7.45117 24.9922 7.45117L22.4902 7.45117L22.4902 1.16211C22.4902 0.505859 21.9844 0 21.3281 0Z" fill="black" fill-opacity="0.85"/>
 </g>
</svg>
