<?xml version="1.0" encoding="UTF-8"?>
<!--Generator: Apple Native CoreSVG 326-->
<!DOCTYPE svg
PUBLIC "-//W3C//DTD SVG 1.1//EN"
       "http://www.w3.org/Graphics/SVG/1.1/DTD/svg11.dtd">
<svg version="1.1" xmlns="http://www.w3.org/2000/svg" xmlns:xlink="http://www.w3.org/1999/xlink" viewBox="0 0 28.2461 27.9043">
 <g>
  <rect height="27.9043" opacity="0" width="28.2461" x="0" y="0"/>
  <path d="M13.9453 27.8906C21.6426 27.8906 27.8906 21.6426 27.8906 13.9453C27.8906 6.24805 21.6426 0 13.9453 0C6.24805 0 0 6.24805 0 13.9453C0 21.6426 6.24805 27.8906 13.9453 27.8906ZM13.9453 25.5664C7.51953 25.5664 2.32422 20.3711 2.32422 13.9453C2.32422 7.51953 7.51953 2.32422 13.9453 2.32422C20.3711 2.32422 25.5664 7.51953 25.5664 13.9453C25.5664 20.3711 20.3711 25.5664 13.9453 25.5664Z" fill="black" fill-opacity="0.85"/>
  <path d="M12.2773 10.4453C13.1797 10.4453 13.9316 9.70703 13.9316 8.77734C13.9316 7.875 13.1797 7.13672 12.2773 7.13672C11.3613 7.13672 10.6367 7.875 10.6367 8.77734C10.6367 9.70703 11.3613 10.4453 12.2773 10.4453ZM7.91602 14.123C7.91602 14.7109 8.51758 14.998 8.99609 14.752L11.6484 13.4258C11.7715 13.3574 11.9082 13.4395 11.9492 13.5625L12.7012 16.6523L11.498 19.6602L8.66797 19.6602C8.25781 19.6602 7.91602 20.002 7.91602 20.3984C7.91602 20.8086 8.25781 21.1504 8.66797 21.1504L11.9766 21.1504C12.3047 21.1504 12.5234 21.0137 12.6875 20.7129L14.3008 17.7324L15.1895 20.0977L12.3457 22.0117C11.9902 22.2441 11.9082 22.709 12.127 23.0508C12.3594 23.3789 12.7969 23.4883 13.1523 23.2422L16.5293 20.9863C16.7891 20.8223 16.9121 20.5898 16.7891 20.1387L14.793 12.168C14.752 11.9902 14.7793 11.8398 14.9707 11.7441L19.4414 9.5293C19.8105 9.35156 19.9609 8.90039 19.7695 8.53125C19.5781 8.14844 19.1406 8.02539 18.7715 8.20312L9.40625 12.8789L9.40625 10.377C9.40625 9.9668 9.07812 9.63867 8.66797 9.63867C8.25781 9.63867 7.91602 9.9668 7.91602 10.377ZM17.623 7.56055C18.4297 7.56055 19.0723 6.91797 19.0723 6.09766C19.0723 5.29102 18.4297 4.63477 17.623 4.63477C16.8027 4.63477 16.1602 5.29102 16.1602 6.09766C16.1602 6.91797 16.8027 7.56055 17.623 7.56055Z" fill="black" fill-opacity="0.85"/>
 </g>
</svg>
