<?xml version="1.0" encoding="UTF-8"?>
<!--Generator: Apple Native CoreSVG 326-->
<!DOCTYPE svg
PUBLIC "-//W3C//DTD SVG 1.1//EN"
       "http://www.w3.org/Graphics/SVG/1.1/DTD/svg11.dtd">
<svg version="1.1" xmlns="http://www.w3.org/2000/svg" xmlns:xlink="http://www.w3.org/1999/xlink" viewBox="0 0 28.2461 27.9043">
 <g>
  <rect height="27.9043" opacity="0" width="28.2461" x="0" y="0"/>
  <path d="M13.9453 27.8906C21.6426 27.8906 27.8906 21.6426 27.8906 13.9453C27.8906 6.24805 21.6426 0 13.9453 0C6.24805 0 0 6.24805 0 13.9453C0 21.6426 6.24805 27.8906 13.9453 27.8906ZM13.9453 25.5664C7.51953 25.5664 2.32422 20.3711 2.32422 13.9453C2.32422 7.51953 7.51953 2.32422 13.9453 2.32422C20.3711 2.32422 25.5664 7.51953 25.5664 13.9453C25.5664 20.3711 20.3711 25.5664 13.9453 25.5664Z" fill="black" fill-opacity="0.85"/>
  <path d="M13.9316 9.02344C14.8477 9.02344 15.5859 8.28516 15.5859 7.38281C15.5859 6.4668 14.8477 5.72852 13.9316 5.72852C13.0156 5.72852 12.291 6.4668 12.291 7.38281C12.291 8.28516 13.0156 9.02344 13.9316 9.02344ZM20.2207 10.4316C19.9062 10.1309 19.4414 10.1172 19.127 10.4316L17.2949 12.2637L15.4492 10.418C15.0801 10.0488 14.5059 9.81641 13.9316 9.81641L8.98242 9.81641C8.62695 9.81641 8.36719 10.0215 8.24414 10.3633L7.05469 13.918C6.87695 14.4648 7.17773 14.8477 7.56055 14.9297C7.92969 15.0391 8.35352 14.8887 8.50391 14.3965L9.5293 11.3613L11.1699 11.3613C11.3203 11.3613 11.4297 11.498 11.375 11.6484L10.377 14.6699C10.0352 15.6543 10.3359 16.584 11.4297 17.0762L14.6562 18.498L15.709 22.1348C15.8457 22.6133 16.2832 22.75 16.6523 22.6543C17.0215 22.5586 17.3359 22.2168 17.1992 21.7109L16.0371 17.7051C15.9688 17.4863 15.8594 17.3223 15.627 17.2129L13.1113 16.1055L14.4375 12.0723C14.4922 11.9219 14.6973 11.8398 14.8203 11.9902L16.7344 13.918C17.0352 14.2188 17.541 14.2188 17.8418 13.918L20.2207 11.5391C20.5352 11.2246 20.5215 10.7461 20.2207 10.4316ZM10.623 17.4316L10.2539 19.6055L7.45117 21.1641C6.95898 21.4375 6.97266 21.9023 7.17773 22.2441C7.38281 22.5586 7.76562 22.7773 8.2168 22.5176L11.3477 20.7812C11.5527 20.6582 11.6484 20.5215 11.7168 20.2891L12.3867 18.252L11.1562 17.7188C10.9375 17.623 10.7734 17.5273 10.623 17.4316ZM20.8359 9.21484C21.082 9.0918 21.2324 8.8457 21.2324 8.55859L21.2324 6.20703C21.2324 5.7832 20.9316 5.44141 20.5078 5.44141L18.8262 5.44141C18.4023 5.44141 18.0879 5.7832 18.0879 6.20703L18.0879 8.55859C18.0879 8.8457 18.252 9.0918 18.498 9.21484L19.6738 9.80273ZM19.209 11.0332L20.1387 11.0332L20.1387 8.95508L19.209 8.95508Z" fill="black" fill-opacity="0.85"/>
 </g>
</svg>
