<?xml version="1.0" encoding="UTF-8"?>
<!--Generator: Apple Native CoreSVG 326-->
<!DOCTYPE svg
PUBLIC "-//W3C//DTD SVG 1.1//EN"
       "http://www.w3.org/Graphics/SVG/1.1/DTD/svg11.dtd">
<svg version="1.1" xmlns="http://www.w3.org/2000/svg" xmlns:xlink="http://www.w3.org/1999/xlink" viewBox="0 0 28.2461 27.9043">
 <g>
  <rect height="27.9043" opacity="0" width="28.2461" x="0" y="0"/>
  <path d="M13.9453 27.8906C21.6426 27.8906 27.8906 21.6426 27.8906 13.9453C27.8906 6.24805 21.6426 0 13.9453 0C6.24805 0 0 6.24805 0 13.9453C0 21.6426 6.24805 27.8906 13.9453 27.8906ZM13.9453 25.5664C7.51953 25.5664 2.32422 20.3711 2.32422 13.9453C2.32422 7.51953 7.51953 2.32422 13.9453 2.32422C20.3711 2.32422 25.5664 7.51953 25.5664 13.9453C25.5664 20.3711 20.3711 25.5664 13.9453 25.5664Z" fill="black" fill-opacity="0.85"/>
  <path d="M16.6387 10.1445C17.5684 10.1445 18.293 9.41992 18.293 8.49023C18.293 7.58789 17.5684 6.84961 16.6387 6.84961C15.7363 6.84961 14.998 7.58789 14.998 8.49023C14.998 9.41992 15.7363 10.1445 16.6387 10.1445ZM11.3613 21.6426C11.6895 21.7656 12.0996 21.6699 12.332 21.2188L14.2734 17.3633C14.4102 17.0762 14.3828 16.7207 14.123 16.4609L11.7852 14.123L14.7383 12.6602C14.875 12.5918 15.0391 12.6191 15.1348 12.7285L16.8848 14.4785C17.0215 14.6152 17.2266 14.6973 17.4316 14.6973L20.7812 14.6973C21.1914 14.6973 21.5469 14.3555 21.5469 13.9316C21.5469 13.4941 21.1914 13.1523 20.7812 13.1523L17.7598 13.1523L14.4922 9.88477C14.1094 9.50195 13.5898 9.29688 13.0293 9.29688L6.61719 9.29688C6.19336 9.29688 5.83789 9.63867 5.83789 10.0625C5.83789 10.4863 6.19336 10.8281 6.61719 10.8281L11.457 10.8281C11.5391 10.8281 11.5664 10.9648 11.498 11.0059L10.0488 11.7168C9.2832 12.0996 8.90039 12.8105 8.90039 13.5352C8.90039 14.1641 9.1875 14.7793 9.74805 15.2031L12.5781 17.2676L10.9375 20.5488C10.6777 21.0684 10.9512 21.4922 11.3613 21.6426ZM4.99023 18.5527L8.54492 18.5527C8.8457 18.5527 9.11914 18.4023 9.24219 18.1426L10.1445 16.3105L9.35156 15.7363C8.92773 15.4219 8.75 15.1484 8.6543 14.9844L7.98438 17.0215L4.99023 17.0215C4.56641 17.0215 4.22461 17.3633 4.22461 17.7871C4.22461 18.2109 4.56641 18.5527 4.99023 18.5527ZM21.0957 7.19141C20.0566 7.19141 19.2773 7.95703 19.2773 8.99609C19.2773 10.4863 20.6172 12.1816 20.7676 12.3457L21.4102 12.3457C21.5742 12.1816 22.9004 10.4863 22.9004 8.99609C22.9004 7.95703 22.1348 7.19141 21.0957 7.19141ZM21.0957 8.12109C21.6289 8.12109 21.9707 8.49023 21.9707 8.99609C21.9707 9.69336 21.4512 10.623 21.0957 11.2109C20.7266 10.623 20.2207 9.69336 20.2207 8.99609C20.2207 8.49023 20.5625 8.12109 21.0957 8.12109ZM20.6309 13.9316L21.5469 13.9316L21.5469 11.9492L20.6309 11.9492Z" fill="black" fill-opacity="0.85"/>
 </g>
</svg>
