<?xml version="1.0" encoding="UTF-8"?>
<!--Generator: Apple Native CoreSVG 326-->
<!DOCTYPE svg
PUBLIC "-//W3C//DTD SVG 1.1//EN"
       "http://www.w3.org/Graphics/SVG/1.1/DTD/svg11.dtd">
<svg version="1.1" xmlns="http://www.w3.org/2000/svg" xmlns:xlink="http://www.w3.org/1999/xlink" viewBox="0 0 28.2461 27.9043">
 <g>
  <rect height="27.9043" opacity="0" width="28.2461" x="0" y="0"/>
  <path d="M13.9453 27.8906C21.6426 27.8906 27.8906 21.6426 27.8906 13.9453C27.8906 6.24805 21.6426 0 13.9453 0C6.24805 0 0 6.24805 0 13.9453C0 21.6426 6.24805 27.8906 13.9453 27.8906ZM13.9453 25.5664C7.51953 25.5664 2.32422 20.3711 2.32422 13.9453C2.32422 7.51953 7.51953 2.32422 13.9453 2.32422C20.3711 2.32422 25.5664 7.51953 25.5664 13.9453C25.5664 20.3711 20.3711 25.5664 13.9453 25.5664Z" fill="black" fill-opacity="0.85"/>
  <path d="M13.3711 10.5C14.2734 10.5 15.0117 9.76172 15.0117 8.85938C15.0117 7.94336 14.2734 7.20508 13.3711 7.20508C12.4551 7.20508 11.7168 7.94336 11.7168 8.85938C11.7168 9.76172 12.4551 10.5 13.3711 10.5ZM20.043 22.5859C20.4668 22.5859 20.7949 22.2305 20.7949 21.8203L20.7949 18.1426C20.7949 17.8691 20.6582 17.6504 20.4668 17.4863L17.5 15.0527L16.9121 11.8672C16.8438 11.5391 16.8984 11.2246 17.0488 10.9102L19.332 6.34375C19.5234 5.96094 19.373 5.50977 18.9902 5.31836C18.6211 5.12695 18.1562 5.27734 17.9785 5.64648L15.7227 10.1445C15.5449 10.4863 15.2988 10.7051 14.9297 10.8691L10.6094 12.6738L8.87305 11.2793C8.73633 11.1699 8.59961 11.1426 8.46289 11.1289L8.46289 9.47461L7.61523 9.47461L7.61523 11.8398C7.61523 12.0996 7.69727 12.3047 7.88867 12.4688L10.0215 14.1641C10.2812 14.3691 10.582 14.3418 10.8965 14.2051L13.2617 13.2344C13.5898 13.0977 13.7676 13.2617 13.8086 13.4941L14.9707 19.9473L11.7305 21.2324C11.3477 21.3965 11.1426 21.8477 11.293 22.2441C11.4707 22.6816 11.9219 22.791 12.291 22.6543L16.1191 21.1367C16.4609 21 16.6113 20.6582 16.5977 20.3301L16.3926 17.3496C16.3652 17.0215 16.7207 16.8301 16.9805 17.0078L19.2773 18.5527L19.2773 21.8203C19.2773 22.2305 19.6191 22.5859 20.043 22.5859ZM8.03906 5.44141C6.93164 5.44141 6.07031 6.33008 6.07031 7.45117C6.07031 8.46289 6.91797 9.58398 8.03906 9.95312C9.17383 9.58398 10.0215 8.46289 10.0215 7.45117C10.0215 6.33008 9.16016 5.44141 8.03906 5.44141ZM8.03906 6.30273C8.68164 6.30273 9.17383 6.79492 9.17383 7.46484C9.17383 8.10742 8.70898 8.80469 8.03906 9.03711C7.38281 8.80469 6.91797 8.10742 6.91797 7.46484C6.91797 6.79492 7.41016 6.30273 8.03906 6.30273Z" fill="black" fill-opacity="0.85"/>
 </g>
</svg>
