<?xml version="1.0" encoding="UTF-8"?>
<!--Generator: Apple Native CoreSVG 326-->
<!DOCTYPE svg
PUBLIC "-//W3C//DTD SVG 1.1//EN"
       "http://www.w3.org/Graphics/SVG/1.1/DTD/svg11.dtd">
<svg version="1.1" xmlns="http://www.w3.org/2000/svg" xmlns:xlink="http://www.w3.org/1999/xlink" viewBox="0 0 33.2363 32.0879">
 <g>
  <rect height="32.0879" opacity="0" width="33.2363" x="0" y="0"/>
  <path d="M24.8828 15.7773C26.5371 15.7773 27.8633 14.4512 27.8633 12.7969C27.8633 11.1426 26.5371 9.80273 24.8828 9.80273C23.2148 9.80273 21.8887 11.1426 21.8887 12.7969C21.8887 14.4512 23.2148 15.7773 24.8828 15.7773ZM15.3809 26.4961L20.7676 26.4961L26.3594 20.9043C26.6328 20.6309 27.084 20.6309 27.3438 20.9043L29.6406 23.1875L27.2617 25.5801C26.0449 26.8105 27.8906 28.6699 29.1211 27.4395L32.4434 24.1309C32.9902 23.584 32.9766 22.7773 32.4434 22.2441L28.5742 18.3887C27.8223 17.6367 26.8379 17.2129 25.7852 17.2129L15.7227 17.2129L15.7227 19.8789L19.0723 19.8789C19.3184 19.8789 19.4277 20.125 19.2637 20.3027L15.3809 24.1719ZM1.90039 26.4961L16.1875 26.4961L16.1875 1.42188C16.1875 0.410156 14.7109-0.0273438 14.0684 1.13477L0.970703 24.7051C0.451172 25.6621 0.970703 26.4961 1.90039 26.4961ZM2.88477 24.9785C2.7207 24.9785 2.66602 24.8281 2.7207 24.7324L14.3418 3.78711C14.4375 3.62305 14.6699 3.66406 14.6699 3.8418L14.6699 24.9785ZM0.765625 32.0879L2.14648 32.0879C5.81055 32.0879 6.63086 29.832 9.17383 29.832C11.7031 29.832 12.5234 32.0879 16.1875 32.0879C19.8379 32.0879 20.6719 29.832 23.2012 29.832C25.7305 29.832 26.5645 32.0879 30.2148 32.0879L31.6094 32.0879C32.0332 32.0879 32.3613 31.7598 32.3613 31.3359C32.3613 30.9121 32.0332 30.5703 31.6094 30.5703L30.2148 30.5703C27.5898 30.5703 26.7012 28.3145 23.2012 28.3145C19.7012 28.3145 18.8125 30.5703 16.1875 30.5703C13.5625 30.5703 12.6738 28.3145 9.17383 28.3145C5.66016 28.3145 4.78516 30.5703 2.14648 30.5703L0.765625 30.5703C0.341797 30.5703 0 30.9121 0 31.3359C0 31.7598 0.341797 32.0879 0.765625 32.0879Z" fill="black" fill-opacity="0.85"/>
 </g>
</svg>
