<?xml version="1.0" encoding="UTF-8"?>
<!--Generator: Apple Native CoreSVG 326-->
<!DOCTYPE svg
PUBLIC "-//W3C//DTD SVG 1.1//EN"
       "http://www.w3.org/Graphics/SVG/1.1/DTD/svg11.dtd">
<svg version="1.1" xmlns="http://www.w3.org/2000/svg" xmlns:xlink="http://www.w3.org/1999/xlink" viewBox="0 0 28.2461 27.9043">
 <g>
  <rect height="27.9043" opacity="0" width="28.2461" x="0" y="0"/>
  <path d="M13.9453 27.8906C21.6426 27.8906 27.8906 21.6426 27.8906 13.9453C27.8906 6.24805 21.6426 0 13.9453 0C6.24805 0 0 6.24805 0 13.9453C0 21.6426 6.24805 27.8906 13.9453 27.8906ZM13.9453 25.5664C7.51953 25.5664 2.32422 20.3711 2.32422 13.9453C2.32422 7.51953 7.51953 2.32422 13.9453 2.32422C20.3711 2.32422 25.5664 7.51953 25.5664 13.9453C25.5664 20.3711 20.3711 25.5664 13.9453 25.5664Z" fill="black" fill-opacity="0.85"/>
  <path d="M6.87695 12.8242C7.7793 12.8242 8.51758 12.0859 8.51758 11.1699C8.51758 10.2676 7.7793 9.5293 6.87695 9.5293C5.97461 9.5293 5.22266 10.2676 5.22266 11.1699C5.22266 12.0859 5.97461 12.8242 6.87695 12.8242ZM11.8125 17.377L13.959 17.377C15.7637 17.377 16.2559 16.3379 16.1055 15.1758L15.6133 11.2246L18.5801 11.2246C19.0039 11.2246 19.3457 10.8691 19.3457 10.4316C19.3457 9.99414 19.0039 9.66602 18.5801 9.66602L14.6562 9.66602C14.2051 9.66602 13.877 9.98047 13.877 10.5L13.877 14.4922L12.5781 14.4922C11.8809 14.4922 11.3066 14.2598 10.9785 13.7266C10.9102 13.6035 10.9102 13.4121 11.0469 13.2617L12.9883 10.9512C13.4395 10.418 13.0703 9.66602 12.4277 9.66602L9.69336 9.66602C9.26953 9.66602 8.91406 9.99414 8.91406 10.4316C8.91406 10.8691 9.25586 11.2246 9.69336 11.2246L10.8008 11.2246L9.66602 12.5645C8.87305 13.5215 8.12109 14.1641 6.93164 14.7109L5.75586 15.2441L6.125 13.918C6.24805 13.5078 5.96094 13.084 5.56445 12.9746C5.14062 12.8789 4.7168 13.1387 4.60742 13.5352L3.88281 16.3926C3.69141 17.1719 4.36133 17.5684 5.03125 17.2676L7.47852 16.1875C7.71094 16.0781 7.86133 16.1055 8.05273 16.2422C8.83203 16.9258 10.0898 17.377 11.8125 17.377ZM23.9395 14.041L20.0703 14.041C20.0156 14.041 19.9336 14.0684 19.8379 14.0684L16.666 14.3418L16.7617 15.0938C16.8164 15.5176 16.8027 15.9277 16.6934 16.3105L20.1387 15.6133L23.9395 15.6133C24.377 15.6133 24.7324 15.2715 24.7324 14.834C24.7324 14.3965 24.377 14.041 23.9395 14.041Z" fill="black" fill-opacity="0.85"/>
 </g>
</svg>
