<?xml version="1.0" encoding="UTF-8"?>
<!--Generator: Apple Native CoreSVG 326-->
<!DOCTYPE svg
PUBLIC "-//W3C//DTD SVG 1.1//EN"
       "http://www.w3.org/Graphics/SVG/1.1/DTD/svg11.dtd">
<svg version="1.1" xmlns="http://www.w3.org/2000/svg" xmlns:xlink="http://www.w3.org/1999/xlink" viewBox="0 0 18.7315 30.8848">
 <g>
  <rect height="30.8848" opacity="0" width="18.7315" x="0" y="0"/>
  <path d="M9.18802 5.89258C10.8286 5.89258 12.1411 4.59375 12.1411 2.95312C12.1411 1.3125 10.8286 0 9.18802 0C7.5474 0 6.2349 1.3125 6.2349 2.95312C6.2349 4.59375 7.5474 5.89258 9.18802 5.89258ZM9.18802 19.127C9.74857 19.127 9.96732 19.5098 10.2818 20.4941C10.7466 21.875 12.1275 27.6035 12.5923 29.2852C12.8247 30.1328 13.2622 30.4883 13.9048 30.4883C14.7798 30.4883 15.313 29.6953 15.0669 28.834C14.9712 28.4648 12.9888 20.1797 12.7017 18.4707C12.4693 16.9668 12.4146 13.9316 12.4146 12.4961C12.4146 12.2773 12.6607 12.1953 12.7974 12.3867C13.8228 13.8223 15.6958 16.502 16.065 16.9395C16.4751 17.4043 17.1314 17.4863 17.6646 17.1855C18.3618 16.8164 18.5259 16.0645 18.2388 15.5449C18.1294 15.3398 17.979 15.1348 17.8423 14.9297L14.3013 9.7207C13.1802 8.06641 11.7857 7.32812 9.18802 7.32812C6.59037 7.32812 5.19583 8.06641 4.07474 9.7207L0.533725 14.9297C0.397006 15.1348 0.246615 15.3398 0.13724 15.5449C-0.149869 16.0645 0.000521687 16.8164 0.711459 17.1855C1.24466 17.4863 1.90091 17.4043 2.2974 16.9395C2.66654 16.502 4.55326 13.8359 5.57865 12.3867C5.70169 12.209 5.96146 12.2773 5.96146 12.5098C5.96146 13.9453 5.8931 16.9668 5.66068 18.4707C5.38724 20.1797 3.40482 28.4648 3.30912 28.834C3.06302 29.6953 3.59622 30.4883 4.47122 30.4883C5.1138 30.4883 5.5513 30.1328 5.78372 29.2852C6.24857 27.6035 7.62943 21.875 8.09427 20.4941C8.40872 19.5098 8.62747 19.127 9.18802 19.127Z" fill="black" fill-opacity="0.85"/>
 </g>
</svg>
