<?xml version="1.0" encoding="UTF-8"?>
<!--Generator: Apple Native CoreSVG 326-->
<!DOCTYPE svg
PUBLIC "-//W3C//DTD SVG 1.1//EN"
       "http://www.w3.org/Graphics/SVG/1.1/DTD/svg11.dtd">
<svg version="1.1" xmlns="http://www.w3.org/2000/svg" xmlns:xlink="http://www.w3.org/1999/xlink" viewBox="0 0 28.2461 27.9043">
 <g>
  <rect height="27.9043" opacity="0" width="28.2461" x="0" y="0"/>
  <path d="M13.9453 27.8906C21.6426 27.8906 27.8906 21.6289 27.8906 13.9453C27.8906 6.24805 21.6426 0 13.9453 0C6.26172 0 0 6.24805 0 13.9453C0 21.6289 6.26172 27.8906 13.9453 27.8906Z" fill="black" fill-opacity="0.85"/>
  <path d="M17.1309 9.31055C16.1875 9.31055 15.4082 8.55859 15.4082 7.61523C15.4082 6.67188 16.1875 5.90625 17.1309 5.90625C18.0605 5.90625 18.8262 6.67188 18.8262 7.61523C18.8262 8.55859 18.0605 9.31055 17.1309 9.31055ZM4.23828 16.748C4.23828 16.3105 4.56641 15.9824 4.96289 15.9824L8.02539 15.9824L8.61328 14.1094C8.72266 14.2598 8.90039 14.4238 9.10547 14.5879L10.0762 15.3535L9.21484 17.0762C9.0918 17.2949 8.8457 17.4863 8.54492 17.4863L4.96289 17.4863C4.56641 17.4863 4.23828 17.1309 4.23828 16.748ZM10.9512 20.3711C10.582 20.166 10.418 19.7148 10.6367 19.3594L12.332 16.2695L9.5293 14.0684C8.29883 13.084 8.57227 11.5117 9.87109 10.8145L10.0762 10.7188C10.1445 10.7871 10.2129 10.8555 10.2812 10.9238L12.2773 12.7969L11.6211 13.166L13.8223 15.5449C14.041 15.7773 14.1094 16.1191 13.9453 16.3926L11.9492 20.0566C11.7168 20.4668 11.2246 20.5352 10.9512 20.3711ZM10.7051 10.377C10.2129 9.91211 10.4453 9.29688 10.9102 9.13281L12.5234 8.53125C13.2891 8.23047 14.2188 8.29883 14.834 8.87305L18.0195 11.8262C18.2383 12.0176 18.334 12.209 18.334 12.4277L18.334 15.6816L21.6562 18.6211C21.9707 18.9082 22.2852 18.7305 22.2852 18.457L22.2852 18.2246C22.2852 17.9648 22.4492 17.7734 22.7227 17.7734C23.0918 17.7598 23.3242 18.1289 23.3242 18.4707C23.3516 19.209 22.8184 19.7422 22.0527 19.7695C21.6152 19.7695 21.2324 19.6191 20.9043 19.3184L17.8555 16.4746C17.7734 16.5156 17.6777 16.5566 17.582 16.5566C17.1719 16.5566 16.8438 16.2148 16.8438 15.791L16.8438 15.5176L15.6543 14.4102C15.3809 14.5195 15.0664 14.4648 14.8477 14.2598ZM14.3965 11.7852L15.873 13.166C16.0371 13.3164 16.1191 13.5352 16.1055 13.7266L16.8438 14.3555L16.8438 12.7695L15.4629 11.498C15.3535 11.3887 15.1895 11.375 15.0527 11.4434ZM17.3359 20.043C17.3359 19.4688 17.7871 18.9902 18.375 18.9902C18.9355 18.9902 19.4004 19.4688 19.4004 20.043C19.4004 20.6035 18.9355 21.0684 18.375 21.0684C17.7871 21.0684 17.3359 20.6035 17.3359 20.043Z" fill="white"/>
 </g>
</svg>
