<?xml version="1.0" encoding="UTF-8"?>
<!--Generator: Apple Native CoreSVG 326-->
<!DOCTYPE svg
PUBLIC "-//W3C//DTD SVG 1.1//EN"
       "http://www.w3.org/Graphics/SVG/1.1/DTD/svg11.dtd">
<svg version="1.1" xmlns="http://www.w3.org/2000/svg" xmlns:xlink="http://www.w3.org/1999/xlink" viewBox="0 0 28.2461 27.9043">
 <g>
  <rect height="27.9043" opacity="0" width="28.2461" x="0" y="0"/>
  <path d="M13.9453 27.8906C21.6426 27.8906 27.8906 21.6426 27.8906 13.9453C27.8906 6.24805 21.6426 0 13.9453 0C6.24805 0 0 6.24805 0 13.9453C0 21.6426 6.24805 27.8906 13.9453 27.8906ZM13.9453 25.5664C7.51953 25.5664 2.32422 20.3711 2.32422 13.9453C2.32422 7.51953 7.51953 2.32422 13.9453 2.32422C20.3711 2.32422 25.5664 7.51953 25.5664 13.9453C25.5664 20.3711 20.3711 25.5664 13.9453 25.5664Z" fill="black" fill-opacity="0.85"/>
  <path d="M9.55664 6.27539L9.70703 8.91406C9.7207 9.39258 9.91211 9.67969 10.2539 9.93945L11.8945 11.1289C12.0996 11.2656 12.1953 11.375 12.1953 11.7305L12.1953 21.5879C12.1953 21.998 12.5234 22.3125 12.9473 22.3125C13.3574 22.3125 13.6855 21.998 13.6855 21.5879L13.6855 16.2832C13.6855 16.1465 13.7949 16.0371 13.9316 16.0371C14.0684 16.0371 14.1777 16.1465 14.1777 16.2832L14.1777 21.5879C14.1777 21.998 14.5059 22.3125 14.916 22.3125C15.3398 22.3125 15.668 21.998 15.668 21.5879L15.668 12.8379C15.668 12.6875 15.7637 12.5918 15.9004 12.5918C16.0371 12.5918 16.1465 12.6875 16.1465 12.8379L16.1465 15.75C16.1465 16.1191 16.4473 16.4199 16.8164 16.4199C17.1855 16.4199 17.4727 16.1191 17.4727 15.75L17.4727 12.4961C17.4727 10.8281 16.2559 9.70703 14.4785 9.70703L12.9199 9.70703C12.4688 9.70703 12.1816 9.625 11.8125 9.37891L11.0469 8.81836L10.8828 6.20703C10.8691 5.82422 10.5547 5.53711 10.1855 5.55078C9.81641 5.5918 9.54297 5.89258 9.55664 6.27539ZM13.9316 8.85938C14.834 8.85938 15.5859 8.13477 15.5859 7.23242C15.5859 6.31641 14.834 5.57812 13.9316 5.57812C13.0293 5.57812 12.2773 6.31641 12.2773 7.23242C12.2773 8.13477 13.0293 8.85938 13.9316 8.85938Z" fill="black" fill-opacity="0.85"/>
 </g>
</svg>
