<?xml version="1.0" encoding="UTF-8"?>
<!--Generator: Apple Native CoreSVG 326-->
<!DOCTYPE svg
PUBLIC "-//W3C//DTD SVG 1.1//EN"
       "http://www.w3.org/Graphics/SVG/1.1/DTD/svg11.dtd">
<svg version="1.1" xmlns="http://www.w3.org/2000/svg" xmlns:xlink="http://www.w3.org/1999/xlink" viewBox="0 0 28.2461 27.9043">
 <g>
  <rect height="27.9043" opacity="0" width="28.2461" x="0" y="0"/>
  <path d="M13.9453 27.8906C21.6426 27.8906 27.8906 21.6289 27.8906 13.9453C27.8906 6.24805 21.6426 0 13.9453 0C6.26172 0 0 6.24805 0 13.9453C0 21.6289 6.26172 27.8906 13.9453 27.8906Z" fill="black" fill-opacity="0.85"/>
  <path d="M12.4688 7.5332C11.5391 7.5332 10.7734 6.78125 10.7734 5.85156C10.7734 4.9082 11.5391 4.14258 12.4688 4.14258C13.4121 4.14258 14.1777 4.9082 14.1777 5.85156C14.1777 6.78125 13.4121 7.5332 12.4688 7.5332ZM16.5293 19.9062C16.1465 20.084 15.5996 19.9609 15.3945 19.4141L14.1367 16.2832L10.9512 14.4375C10.2402 14.0273 9.80273 13.2207 9.87109 12.4004L10.1172 9.67969C10.1992 8.59961 11.1426 7.98438 12.2227 8.33984L15.2031 9.33789L18.1426 9.00977C19.1953 8.87305 19.4004 10.4453 18.3203 10.5684L15.2988 10.9102C15.1211 10.9238 14.9434 10.9102 14.7656 10.8691L13.166 10.3086C13.002 10.2539 12.9062 10.3086 12.8789 10.459L12.6875 13.2207L15.1895 15.0801C15.3672 15.2031 15.4492 15.2988 15.4766 15.4082L16.8574 18.8262C17.0625 19.3594 16.8574 19.7285 16.5293 19.9062ZM9.25586 21.2871C8.8457 21.123 8.58594 20.6035 8.94141 20.0977L10.8555 17.2539L10.7324 15.0938L12.5234 16.1465L12.4414 17.5C12.4141 17.6777 12.3594 17.8145 12.3047 17.9102L10.2402 20.9863C9.9668 21.3965 9.57031 21.4512 9.25586 21.2871ZM15.2852 22.3945C14.9844 22.5176 14.752 22.3262 14.6699 22.1348C14.5879 21.9023 14.6562 21.5879 14.998 21.4785L17.7461 20.5625L17.7461 11.3203L18.3613 11.252C18.5117 11.2383 18.5664 11.2246 18.7031 11.1836L18.7031 20.8359C18.7031 21.1367 18.5801 21.3008 18.334 21.3828ZM8.98242 23.1055C8.72266 23.1055 8.51758 22.873 8.51758 22.627C8.51758 22.3672 8.72266 22.1484 8.98242 22.1484L12.1816 22.1484C12.4551 22.1484 12.7012 22.3535 12.7012 22.627C12.7012 22.873 12.4551 23.1055 12.1816 23.1055Z" fill="white"/>
 </g>
</svg>
