<?xml version="1.0" encoding="UTF-8"?>
<!--Generator: Apple Native CoreSVG 326-->
<!DOCTYPE svg
PUBLIC "-//W3C//DTD SVG 1.1//EN"
       "http://www.w3.org/Graphics/SVG/1.1/DTD/svg11.dtd">
<svg version="1.1" xmlns="http://www.w3.org/2000/svg" xmlns:xlink="http://www.w3.org/1999/xlink" viewBox="0 0 26.0792 29.2441">
 <g>
  <rect height="29.2441" opacity="0" width="26.0792" x="0" y="0"/>
  <path d="M4.77496 5.97461C6.42926 5.97461 7.75543 4.64844 7.75543 2.99414C7.75543 1.33984 6.42926 0 4.77496 0C3.12066 0 1.78082 1.33984 1.78082 2.99414C1.78082 4.64844 3.12066 5.97461 4.77496 5.97461ZM9.47808 29.0254C10.148 29.2168 10.9546 28.875 11.1734 28.0547L13.2378 20.5625C13.4976 19.6055 13.1011 18.9219 12.1441 18.6484L6.12847 16.9395L6.59332 11.6621C6.62066 11.498 6.81207 11.4023 6.93512 11.5117L9.72418 13.5078C10.2164 13.8633 10.8453 13.8633 11.3511 13.5078L16.2046 10.0352C16.8336 9.59766 16.9839 8.72266 16.5328 8.09375C16.0953 7.46484 15.2203 7.32812 14.5914 7.76562L10.5445 10.6777L7.20855 8.28516C6.51129 7.76562 5.66363 7.41016 4.6109 7.41016C2.84722 7.41016 1.52105 8.51758 1.41168 10.0898L0.946834 16.5977C0.810116 18.5391 1.75347 19.9746 3.91363 20.2891L10.1617 21.1914L8.49371 27.3164C8.27496 28.1367 8.72613 28.8203 9.47808 29.0254ZM22.0015 12.1133C24.0386 12.1133 25.7203 10.4316 25.7203 8.38086C25.7203 6.33008 24.0386 4.67578 22.0015 4.67578C19.9371 4.67578 18.2691 6.33008 18.2691 8.38086C18.2691 10.4316 19.9371 12.1133 22.0015 12.1133ZM22.0015 10.5957C20.7437 10.5957 19.7867 9.63867 19.7867 8.38086C19.7867 7.15039 20.7437 6.19336 22.0015 6.19336C23.2457 6.19336 24.2027 7.15039 24.2027 8.38086C24.2027 9.63867 23.2457 10.5957 22.0015 10.5957ZM12.9644 29.1484L20.6617 29.1484C21.441 29.1484 21.6597 28.1641 21.0308 27.7402L18.3238 25.9492C18.5972 25.5117 18.775 25.0332 18.898 24.5137L22.0836 11.8125L20.566 11.457L17.3941 24.1582C16.8882 26.209 15.0972 27.6035 12.9644 27.6035C12.5269 27.6035 12.1988 27.959 12.1988 28.3828C12.1988 28.793 12.5269 29.1484 12.9644 29.1484ZM2.79254 23.9531L5.52691 23.3652C5.86871 23.3105 6.07379 22.9961 6.07379 22.6543C6.07379 22.2988 5.81402 22.0254 5.49957 21.9844L0.892147 21.1914C0.126522 21.0684-0.1059 21.7246 0.126522 22.2305L0.386287 22.7363C0.864803 23.7207 1.6441 24.1992 2.79254 23.9531ZM0.796444 29.1484L6.71637 29.1484C7.16754 29.1484 7.49566 28.793 7.49566 28.3828C7.49566 27.959 7.16754 27.6035 6.71637 27.6035C5.82769 27.6035 5.17144 27.248 4.93902 26.1816L4.13238 22.5449L2.62847 22.873L3.27105 25.8262L0.372616 27.7402C-0.269963 28.1641-0.0512126 29.1484 0.796444 29.1484Z" fill="black" fill-opacity="0.85"/>
 </g>
</svg>
