<?xml version="1.0" encoding="UTF-8"?>
<!--Generator: Apple Native CoreSVG 326-->
<!DOCTYPE svg
PUBLIC "-//W3C//DTD SVG 1.1//EN"
       "http://www.w3.org/Graphics/SVG/1.1/DTD/svg11.dtd">
<svg version="1.1" xmlns="http://www.w3.org/2000/svg" xmlns:xlink="http://www.w3.org/1999/xlink" viewBox="0 0 28.2461 27.9043">
 <g>
  <rect height="27.9043" opacity="0" width="28.2461" x="0" y="0"/>
  <path d="M13.9453 27.8906C21.6426 27.8906 27.8906 21.6289 27.8906 13.9453C27.8906 6.24805 21.6426 0 13.9453 0C6.26172 0 0 6.24805 0 13.9453C0 21.6289 6.26172 27.8906 13.9453 27.8906Z" fill="black" fill-opacity="0.85"/>
  <path d="M16.6387 9.16016C15.6953 9.16016 14.9297 8.4082 14.9297 7.46484C14.9297 6.50781 15.6953 5.75586 16.6387 5.75586C17.5684 5.75586 18.334 6.50781 18.334 7.46484C18.334 8.4082 17.5684 9.16016 16.6387 9.16016ZM3.74609 16.543C3.74609 16.1055 4.08789 15.7637 4.52539 15.7637L7.58789 15.7637L8.23047 13.7812C8.32617 13.9453 8.53125 14.1504 8.79102 14.3281L9.76172 15.0254L8.83203 16.8711C8.69531 17.1309 8.44922 17.3223 8.14844 17.3223L4.52539 17.3223C4.08789 17.3223 3.74609 16.9668 3.74609 16.543ZM9.14648 9.2832C8.68164 8.80469 8.88672 7.98438 9.66602 7.98438L12.6602 7.98438C13.207 7.98438 13.7266 8.20312 14.123 8.58594L17.6504 12.0859C17.8281 12.25 17.8828 12.4277 17.8828 12.6465L17.8828 16.1465C17.8828 16.2012 17.8691 16.2285 17.8555 16.2832L20.3984 18.8262L22.7637 18.8262C22.9961 18.8262 23.2012 19.0312 23.2012 19.2773L23.2012 19.6602C23.2012 19.8926 22.9961 20.0977 22.7637 20.0977L20.6582 20.0977C20.5078 20.0977 20.4258 20.0703 20.2617 19.9199L17.2402 16.8984C17.1855 16.9121 17.1582 16.9121 17.1035 16.9121C16.666 16.9121 16.3105 16.584 16.3105 16.1465L16.3105 15.9688L12.5918 12.25L11.4023 12.8379L13.7539 15.2168C14 15.4492 14.0547 15.8047 13.9043 16.1055L11.9629 19.9883C11.7441 20.4395 11.2109 20.5078 10.9102 20.3438C10.5273 20.1387 10.3633 19.6875 10.5547 19.3047L12.209 15.9824L9.20117 13.7812C7.86133 12.7969 8.25781 10.9375 9.69336 10.3633L10.0625 10.2266ZM13.4121 11.8398L16.3105 14.7246L16.3105 12.9609L14.7793 11.416C14.6836 11.3203 14.5059 11.2793 14.3691 11.3613Z" fill="white"/>
 </g>
</svg>
