<?xml version="1.0" encoding="UTF-8"?>
<!--Generator: Apple Native CoreSVG 326-->
<!DOCTYPE svg
PUBLIC "-//W3C//DTD SVG 1.1//EN"
       "http://www.w3.org/Graphics/SVG/1.1/DTD/svg11.dtd">
<svg version="1.1" xmlns="http://www.w3.org/2000/svg" xmlns:xlink="http://www.w3.org/1999/xlink" viewBox="0 0 31.7498 21.2871">
 <g>
  <rect height="21.2871" opacity="0" width="31.7498" x="0" y="0"/>
  <path d="M25.8554 5.97461C27.5097 5.97461 28.8359 4.64844 28.8359 2.99414C28.8359 1.33984 27.5097 0 25.8554 0C24.2011 0 22.8612 1.33984 22.8612 2.99414C22.8612 4.64844 24.2011 5.97461 25.8554 5.97461ZM1.8339 20.002L9.87297 17.9922L9.87297 19.8789C9.87297 20.6445 10.5019 21.2598 11.2538 21.2598C12.0195 21.2598 12.6484 20.6445 12.6484 19.8789L12.6484 17.4863L18.4862 16.6113C19.5663 16.4609 20.6191 15.9824 21.5077 15.3125L26.5663 11.5254C26.7577 11.3887 27.0312 11.416 27.1269 11.6484L28.6171 14.6562L28.6171 19.8789C28.6171 20.6855 29.1913 21.2598 30.0116 21.2598C30.832 21.2598 31.3925 20.6855 31.3925 19.8789L31.3925 14.3281C31.3925 14.1094 31.3515 13.877 31.2421 13.6855L28.8495 8.91406C28.371 7.95703 27.4413 7.36914 26.3749 7.36914L25.1445 7.36914C23.955 7.36914 22.7792 7.76562 21.8222 8.49023L17.8573 11.4434L12.0331 10.2812C10.8163 10.0352 9.87297 10.5684 9.87297 11.8535L9.87297 15.1211L1.16398 17.3359C0.261638 17.5547-0.0801592 18.252 0.0155439 18.8945C0.138591 19.6191 0.808513 20.2617 1.8339 20.002ZM12.6484 14.4512L12.6484 13.3984L14.5487 13.9863ZM19.2382 21.2598L24.789 21.2598C25.9374 21.2598 26.8671 20.3301 26.8671 19.168C26.8671 18.0332 25.9374 17.0898 24.789 17.0898L19.2382 17.0898C18.0761 17.0898 17.1601 18.0332 17.1601 19.168C17.1601 20.3301 18.0761 21.2598 19.2382 21.2598ZM24.789 20.2754C24.1874 20.2754 23.6952 19.7695 23.6952 19.1543C23.6952 18.5664 24.1874 18.0742 24.789 18.0742C25.4042 18.0742 25.8827 18.5664 25.8827 19.1543C25.8827 19.7695 25.4042 20.2754 24.789 20.2754Z" fill="black" fill-opacity="0.85"/>
 </g>
</svg>
