<?xml version="1.0" encoding="UTF-8"?>
<!--Generator: Apple Native CoreSVG 326-->
<!DOCTYPE svg
PUBLIC "-//W3C//DTD SVG 1.1//EN"
       "http://www.w3.org/Graphics/SVG/1.1/DTD/svg11.dtd">
<svg version="1.1" xmlns="http://www.w3.org/2000/svg" xmlns:xlink="http://www.w3.org/1999/xlink" viewBox="0 0 43.7769 28.4615">
 <g>
  <rect height="28.4615" opacity="0" width="43.7769" x="0" y="0"/>
  <path d="M7.20484 7.78444C5.15405 7.78444 3.51343 6.07546 3.51343 4.09304C3.51343 2.02858 5.15405 0.360613 7.20484 0.360613C9.26929 0.360613 10.9236 2.02858 10.9236 4.09304C10.9236 6.13014 9.26929 7.78444 7.20484 7.78444ZM29.2302 27.3489C28.5193 28.0872 27.3025 28.0325 26.4412 27.1301L20.5486 21.0598C20.3572 20.8548 20.2205 20.8001 19.9197 20.9231L15.3259 22.6594C12.3728 23.7942 9.59741 22.8235 8.29859 20.4719L5.34546 15.0989C4.19702 13.0071 4.56616 10.8469 6.54859 9.78054C8.48999 8.7278 10.4861 9.52077 11.6482 11.6673L15.49 18.6536L18.7439 17.4641C20.3572 16.8762 21.7107 17.0676 22.9959 18.4075L29.1072 24.7239C29.9548 25.5989 29.8728 26.6926 29.2302 27.3489Z" fill="black" fill-opacity="0.85"/>
  <path d="M28.4646 4.76296L32.1697 9.5071C32.3474 9.72585 32.5935 9.76686 32.8396 9.63014C33.7283 9.1653 34.9861 8.85085 35.9841 8.85085C36.9959 8.85085 38.281 9.1653 39.1423 9.63014C39.3884 9.76686 39.6619 9.72585 39.8123 9.5071L43.5447 4.76296C43.9001 4.28444 43.8455 3.80593 43.3943 3.45046C41.8767 2.28835 39.0193 1.39968 35.9841 1.39968C32.99 1.39968 30.1052 2.28835 28.6013 3.45046C28.1501 3.80593 28.0955 4.28444 28.4646 4.76296ZM32.3201 12.2825C31.8962 11.7219 31.7185 11.2024 31.7185 10.6419C31.7185 9.35671 32.7576 9.02858 32.7576 8.27663C32.7576 7.511 31.7185 7.19655 31.7185 5.87038C31.7185 5.3235 31.8962 4.80397 32.3201 4.2571C32.7986 3.68288 33.6599 4.29811 33.1951 4.89968C32.8806 5.3235 32.7986 5.55593 32.7986 5.87038C32.7986 6.80007 33.8376 7.05983 33.8376 8.27663C33.8376 9.47975 32.7986 9.75319 32.7986 10.6419C32.7986 10.9973 32.8806 11.2024 33.1951 11.6399C33.6462 12.2278 32.7849 12.8567 32.3201 12.2825ZM35.533 12.2825C35.1228 11.7219 34.9451 11.2024 34.9451 10.6419C34.9451 9.35671 35.9705 9.02858 35.9705 8.27663C35.9705 7.511 34.9451 7.19655 34.9451 5.87038C34.9451 5.3235 35.1228 4.80397 35.533 4.2571C36.0115 3.68288 36.8865 4.29811 36.4216 4.89968C36.1072 5.3235 36.0251 5.55593 36.0251 5.87038C36.0251 6.80007 37.0642 7.05983 37.0642 8.27663C37.0642 9.47975 36.0251 9.75319 36.0251 10.6419C36.0251 10.9973 36.1072 11.2024 36.4216 11.6399C36.8728 12.2278 35.9978 12.8567 35.533 12.2825ZM38.7869 12.2825C38.3494 11.7219 38.1716 11.2024 38.1716 10.6419C38.1716 9.35671 39.2107 9.02858 39.2107 8.27663C39.2107 7.511 38.1716 7.19655 38.1716 5.87038C38.1716 5.3235 38.3494 4.80397 38.7869 4.2571C39.2517 3.68288 40.113 4.29811 39.6482 4.89968C39.3611 5.3235 39.2654 5.55593 39.2654 5.87038C39.2654 6.80007 40.2908 7.05983 40.2908 8.27663C40.2908 9.47975 39.2654 9.75319 39.2654 10.6419C39.2654 10.9973 39.3611 11.2024 39.6482 11.6399C40.0994 12.2278 39.2517 12.8567 38.7869 12.2825ZM21.3279 12.0911C21.8748 12.0911 22.3259 11.6536 22.3259 11.0794L22.3259 5.74733L24.5408 5.74733C25.5662 5.74733 25.9216 4.73561 25.2927 4.03835L22.0525 0.374285C21.6013-0.131574 21.0271-0.117902 20.5759 0.374285L17.3357 4.03835C16.6794 4.76296 17.1169 5.74733 18.0876 5.74733L20.3162 5.74733L20.3162 11.0794C20.3162 11.6536 20.7537 12.0911 21.3279 12.0911Z" fill="black" fill-opacity="0.85"/>
 </g>
</svg>
