<?xml version="1.0" encoding="UTF-8"?>
<!--Generator: Apple Native CoreSVG 326-->
<!DOCTYPE svg
PUBLIC "-//W3C//DTD SVG 1.1//EN"
       "http://www.w3.org/Graphics/SVG/1.1/DTD/svg11.dtd">
<svg version="1.1" xmlns="http://www.w3.org/2000/svg" xmlns:xlink="http://www.w3.org/1999/xlink" viewBox="0 0 30.7972 29.2443">
 <g>
  <rect height="29.2443" opacity="0" width="30.7972" x="0" y="0"/>
  <path d="M5.80095 8.17588C3.75017 8.17588 2.10955 6.46689 2.10955 4.48447C2.10955 2.42002 3.75017 0.75205 5.80095 0.75205C7.86541 0.75205 9.5197 2.42002 9.5197 4.48447C9.5197 6.52158 7.86541 8.17588 5.80095 8.17588ZM27.8263 27.7403C27.1154 28.4786 25.8986 28.4239 25.0373 27.5216L19.1447 21.4513C18.9533 21.2462 18.8166 21.1915 18.5158 21.3146L13.922 23.0509C10.9689 24.1856 8.19353 23.2149 6.8947 20.8634L3.94158 15.4903C2.79314 13.3985 3.16228 11.2384 5.1447 10.172C7.08611 9.11924 9.0822 9.91221 10.2443 12.0587L14.0861 19.045L17.34 17.8556C18.9533 17.2677 20.3068 17.4591 21.592 18.7989L27.7033 25.1153C28.551 25.9903 28.4689 27.0841 27.8263 27.7403Z" fill="black" fill-opacity="0.85"/>
  <path d="M25.2013 5.61924C25.4201 5.18174 25.215 4.64853 24.7638 4.44346C24.3263 4.23838 23.7931 4.42978 23.5744 4.86728L20.2248 12.0587C20.0197 12.4962 20.2111 13.0294 20.6623 13.2345C21.1135 13.4396 21.6467 13.2481 21.8517 12.797L22.2892 11.8946L26.5138 12.1271L28.4553 13.0567C29.5217 13.5626 30.342 13.1251 30.6564 12.4142C30.9845 11.7169 30.7521 10.8282 29.8224 10.3907L27.4845 9.24228L24.8322 6.41221ZM20.5392 5.26377C21.0724 5.49619 21.4963 5.18174 21.4006 4.58018L20.8674 0.615332C20.7853 0.0547847 20.2658-0.177637 19.8146 0.150488L16.506 2.43369C16.0002 2.78916 16.1095 3.32236 16.6017 3.54111ZM18.8166 8.95518L14.8928 7.23252C14.3595 7.0001 13.9084 7.28721 14.0041 7.91611L14.5646 11.881C14.633 12.4278 15.1388 12.6739 15.59 12.3595L18.8986 10.0763C19.4045 9.70713 19.3361 9.17393 18.8166 8.95518Z" fill="black" fill-opacity="0.85"/>
 </g>
</svg>
