<?xml version="1.0" encoding="UTF-8"?>
<!--Generator: Apple Native CoreSVG 326-->
<!DOCTYPE svg
PUBLIC "-//W3C//DTD SVG 1.1//EN"
       "http://www.w3.org/Graphics/SVG/1.1/DTD/svg11.dtd">
<svg version="1.1" xmlns="http://www.w3.org/2000/svg" xmlns:xlink="http://www.w3.org/1999/xlink" viewBox="0 0 29.0117 26.127">
 <g>
  <rect height="26.127" opacity="0" width="29.0117" x="0" y="0"/>
  <path d="M3.73242 25.9766L24.9238 25.9766C27.248 25.9766 28.6562 24.3633 28.6562 22.2715C28.6562 21.6289 28.4648 20.959 28.123 20.3574L17.5137 1.87305C16.8027 0.628906 15.5859 0 14.3281 0C13.0703 0 11.8398 0.628906 11.1426 1.87305L0.533203 20.3574C0.164062 20.9727 0 21.6289 0 22.2715C0 24.3633 1.4082 25.9766 3.73242 25.9766Z" fill="black" fill-opacity="0.85"/>
  <path d="M10.8145 21.916C10.2129 22.627 9.06445 21.8066 9.77539 20.9727L11.9902 18.334L12.3457 16.6523L13.5488 18.1562L13.3711 18.6758C13.3027 18.9355 13.2617 19.0039 13.0566 19.25ZM16.2695 21.7246L14.6973 18.5391C14.6426 18.4297 14.6152 18.3477 14.4648 18.1562L12.9473 16.2695C12.3867 15.5723 12.1953 15.1621 12.2637 14.3418L12.373 12.7012C12.4004 12.5098 12.127 12.3867 11.9355 12.5781L11.3887 13.0566L11.2246 14.9844C11.1836 15.4629 10.9375 15.709 10.5137 15.6543C10.1172 15.6406 9.87109 15.3398 9.89844 14.916L10.0215 13.1387C10.0625 12.6602 10.1719 12.3594 10.5547 11.9766L11.6895 10.8691C12.4277 10.1582 12.9473 9.76172 13.7266 9.76172C14.7656 9.76172 15.4082 10.5273 15.3262 11.5664L15.1621 13.7129C15.1074 14.4922 15.0391 14.957 14.7383 15.7227L14.6973 15.9141L15.668 17.2949C15.791 17.5 15.9688 17.7461 16.0645 17.9785L17.5957 21.0684C18.1016 22.0801 16.7207 22.6406 16.2695 21.7246ZM18.8672 12.6875C19.3047 12.6875 19.5918 12.9336 19.5918 13.3438C19.5918 13.7676 19.3047 14.0137 18.8672 14.0137L17.2539 14.0137C16.8164 14.0137 16.5977 13.9316 16.3652 13.6992L15.9141 13.248L16.0371 11.4707L17.1445 12.6875ZM14.5742 9.07812C13.6992 9.07812 13.002 8.36719 13.002 7.5332C13.002 6.6582 13.6992 5.96094 14.5742 5.96094C15.4355 5.96094 16.1328 6.6582 16.1328 7.5332C16.1328 8.36719 15.4355 9.07812 14.5742 9.07812Z" fill="white"/>
 </g>
</svg>
