<?xml version="1.0" encoding="UTF-8"?>
<!--Generator: Apple Native CoreSVG 326-->
<!DOCTYPE svg
PUBLIC "-//W3C//DTD SVG 1.1//EN"
       "http://www.w3.org/Graphics/SVG/1.1/DTD/svg11.dtd">
<svg version="1.1" xmlns="http://www.w3.org/2000/svg" xmlns:xlink="http://www.w3.org/1999/xlink" viewBox="0 0 33.7559 31.7871">
 <g>
  <rect height="31.7871" opacity="0" width="33.7559" x="0" y="0"/>
  <path d="M5.74219 5.56445L13.6309 5.56445C14.1094 5.56445 14.4922 5.16797 14.4922 4.67578C14.4922 4.18359 14.1094 3.77344 13.6309 3.77344L5.74219 3.77344C5.25 3.77344 4.88086 4.18359 4.88086 4.67578C4.88086 5.16797 5.25 5.56445 5.74219 5.56445ZM0.847656 12.4141L10.2129 12.4141C10.7051 12.4141 11.0742 12.0176 11.0742 11.5254C11.0742 11.0332 10.7051 10.623 10.2129 10.623L0.847656 10.623C0.369141 10.623 0 11.0469 0 11.5254C0 12.0039 0.369141 12.4141 0.847656 12.4141ZM4.93555 19.2637L10.1445 19.2637C10.623 19.2637 10.9922 18.8672 10.9922 18.375C10.9922 17.8828 10.623 17.4727 10.1445 17.4727L4.93555 17.4727C4.44336 17.4727 4.07422 17.8828 4.07422 18.375C4.07422 18.8672 4.44336 19.2637 4.93555 19.2637ZM1.33984 26.0312L8.47656 26.0312C8.95508 26.0312 9.32422 25.6348 9.32422 25.1426C9.32422 24.6504 8.95508 24.2402 8.47656 24.2402L1.33984 24.2402C0.861328 24.2402 0.492188 24.6504 0.492188 25.1426C0.492188 25.6348 0.861328 26.0312 1.33984 26.0312Z" fill="black" fill-opacity="0.85"/>
  <path d="M16.4746 30.7207L20.7812 25.5938C21.2051 25.1016 21.2598 24.9648 21.4238 24.4453L21.7793 23.3926L19.4688 20.4941L18.7441 23.8164L14.4785 28.8613C13.1113 30.4746 15.3398 32.0605 16.4746 30.7207ZM26.9746 30.2969C27.8496 32.1016 30.502 30.9941 29.5449 29.0527L26.6191 23.1191C26.4004 22.668 26.0723 22.1895 25.8125 21.8066L23.9395 19.1543L24.0762 18.7715C24.5957 17.2949 24.7598 16.3926 24.8691 14.916L25.1562 10.7734C25.293 8.80469 24.1309 7.30078 22.1211 7.30078C20.6035 7.30078 19.5781 8.06641 18.1836 9.43359L15.9961 11.5938C15.2715 12.3047 15.0391 12.8789 14.9707 13.8086L14.7109 17.1992C14.6426 18.0469 15.1211 18.6621 15.9141 18.6895C16.707 18.7441 17.1855 18.2793 17.2676 17.3633L17.5957 13.6445L18.6484 12.6875C19.0312 12.3457 19.5371 12.5781 19.4961 12.9609L19.2637 16.1191C19.1406 17.7051 19.5098 18.457 20.6172 19.8242L23.5156 23.4746C23.8027 23.8438 23.8438 23.9941 23.9668 24.2129ZM31.9648 12.9199L28.6426 12.9199L26.4824 10.5137L26.2637 14L27.1387 14.875C27.6172 15.3535 28.0273 15.4902 28.875 15.4902L31.9648 15.4902C32.8262 15.4902 33.4004 14.998 33.4004 14.1914C33.4004 13.4258 32.8125 12.9199 31.9648 12.9199ZM23.7207 6.01562C25.3887 6.01562 26.7285 4.67578 26.7285 3.00781C26.7285 1.33984 25.3887 0 23.7207 0C22.0527 0 20.7129 1.33984 20.7129 3.00781C20.7129 4.67578 22.0527 6.01562 23.7207 6.01562Z" fill="black" fill-opacity="0.85"/>
 </g>
</svg>
