<?xml version="1.0" encoding="UTF-8"?>
<!--Generator: Apple Native CoreSVG 326-->
<!DOCTYPE svg
PUBLIC "-//W3C//DTD SVG 1.1//EN"
       "http://www.w3.org/Graphics/SVG/1.1/DTD/svg11.dtd">
<svg version="1.1" xmlns="http://www.w3.org/2000/svg" xmlns:xlink="http://www.w3.org/1999/xlink" viewBox="0 0 28.2461 27.9043">
 <g>
  <rect height="27.9043" opacity="0" width="28.2461" x="0" y="0"/>
  <path d="M13.9453 27.8906C21.6426 27.8906 27.8906 21.6426 27.8906 13.9453C27.8906 6.24805 21.6426 0 13.9453 0C6.24805 0 0 6.24805 0 13.9453C0 21.6426 6.24805 27.8906 13.9453 27.8906ZM13.9453 25.5664C7.51953 25.5664 2.32422 20.3711 2.32422 13.9453C2.32422 7.51953 7.51953 2.32422 13.9453 2.32422C20.3711 2.32422 25.5664 7.51953 25.5664 13.9453C25.5664 20.3711 20.3711 25.5664 13.9453 25.5664Z" fill="black" fill-opacity="0.85"/>
  <path d="M18.6895 10.1035C19.5918 10.1035 20.3301 9.36523 20.3301 8.46289C20.3301 7.5332 19.5918 6.80859 18.6895 6.80859C17.7598 6.80859 17.0352 7.5332 17.0352 8.46289C17.0352 9.36523 17.7598 10.1035 18.6895 10.1035ZM13.4531 20.248C13.9043 20.248 14.2598 19.8789 14.2598 19.4414L14.2598 15.9277C14.2598 15.5996 14.0957 15.3672 13.9043 15.1621L11.5664 12.8242L14.3965 12.0996C14.5332 12.0723 14.6562 12.168 14.6562 12.3184L14.6562 13.8359C14.6562 14.0273 14.7383 14.2324 14.9023 14.3965L17.2949 16.8027C17.6094 17.1172 18.1289 17.1172 18.4434 16.8027C18.7578 16.4883 18.7578 15.9688 18.4434 15.6543L16.2695 13.4941L16.2695 11.9629L17.4727 13.3438C17.623 13.5215 17.8555 13.6172 18.0742 13.6172L21.6836 13.6172C22.1348 13.6172 22.4902 13.2754 22.4902 12.8242C22.4902 12.3594 22.1348 12.0176 21.6836 12.0176L18.4434 12.0176L16.5293 9.80273C15.9277 9.11914 14.998 8.8457 14.123 9.06445L10.0078 10.1035C8.39453 10.5 8.12109 12.5098 9.39258 13.5488L12.6465 16.2012L12.6465 19.4414C12.6465 19.8789 13.0156 20.248 13.4531 20.248ZM6.4668 20.0156C6.78125 20.3164 7.30078 20.3164 7.60156 20.0156L10.4043 17.2129C10.5547 17.0625 10.5957 16.9258 10.6504 16.6797L10.8418 15.5723L9.05078 14.1094L9.05078 16.3105L6.4668 18.8672C6.15234 19.1816 6.15234 19.7012 6.4668 20.0156Z" fill="black" fill-opacity="0.85"/>
 </g>
</svg>
