<?xml version="1.0" encoding="UTF-8"?>
<!--Generator: Apple Native CoreSVG 326-->
<!DOCTYPE svg
PUBLIC "-//W3C//DTD SVG 1.1//EN"
       "http://www.w3.org/Graphics/SVG/1.1/DTD/svg11.dtd">
<svg version="1.1" xmlns="http://www.w3.org/2000/svg" xmlns:xlink="http://www.w3.org/1999/xlink" viewBox="0 0 28.2461 27.9043">
 <g>
  <rect height="27.9043" opacity="0" width="28.2461" x="0" y="0"/>
  <path d="M13.9453 27.8906C21.6426 27.8906 27.8906 21.6426 27.8906 13.9453C27.8906 6.24805 21.6426 0 13.9453 0C6.24805 0 0 6.24805 0 13.9453C0 21.6426 6.24805 27.8906 13.9453 27.8906ZM13.9453 25.5664C7.51953 25.5664 2.32422 20.3711 2.32422 13.9453C2.32422 7.51953 7.51953 2.32422 13.9453 2.32422C20.3711 2.32422 25.5664 7.51953 25.5664 13.9453C25.5664 20.3711 20.3711 25.5664 13.9453 25.5664Z" fill="black" fill-opacity="0.85"/>
  <path d="M12.6191 11.416C13.5215 11.416 14.2598 10.6914 14.2598 9.76172C14.2598 8.85938 13.5215 8.13477 12.6191 8.13477C11.7031 8.13477 10.9785 8.85938 10.9785 9.76172C10.9785 10.6914 11.7031 11.416 12.6191 11.416ZM9.00977 22.8867L12.6191 22.8867C13.0977 22.8867 13.3164 22.6543 13.3848 22.2441L14.0547 18.6074L17.1309 18.6074L16.5293 21.957C16.4473 22.5039 16.7891 22.8457 17.1855 22.8867C17.5684 22.9141 17.9785 22.75 18.0605 22.2441L18.8125 18.0332C18.9219 17.459 18.5938 17.0898 18.1562 17.0488L15.4219 16.748L15.6543 14.1504C15.668 14.0273 15.7637 13.9453 15.8867 13.9453L18.0742 13.9453C18.498 13.9453 18.8535 13.5762 18.8535 13.1523L18.8535 8.88672C18.8535 8.55859 18.6621 8.27148 18.3613 8.16211C18.0742 8.05273 17.7461 8.09375 17.5273 8.32617L13.248 12.5918C12.8652 12.9883 12.6328 13.4531 12.5781 14.0273L11.9082 21.3281L9.00977 21.3281C8.57227 21.3281 8.24414 21.6699 8.24414 22.1074C8.24414 22.5312 8.57227 22.8867 9.00977 22.8867ZM17.2949 10.7461L17.2949 12.373L15.668 12.373ZM15.7363 8.47656L17.4863 10.0352L17.8965 9.58398L16.1602 8.02539ZM11.4023 5.29102L15.3945 8.90039C15.6406 9.11914 15.9551 9.07812 16.1875 8.8457L16.5977 8.43555C16.8301 8.18945 16.7891 7.84766 16.543 7.64258L12.5371 4.01953C12.291 3.81445 11.9629 3.82812 11.7441 4.07422L11.3613 4.51172C11.1562 4.75781 11.1562 5.07227 11.4023 5.29102Z" fill="black" fill-opacity="0.85"/>
 </g>
</svg>
