<?xml version="1.0" encoding="UTF-8"?>
<!--Generator: Apple Native CoreSVG 326-->
<!DOCTYPE svg
PUBLIC "-//W3C//DTD SVG 1.1//EN"
       "http://www.w3.org/Graphics/SVG/1.1/DTD/svg11.dtd">
<svg version="1.1" xmlns="http://www.w3.org/2000/svg" xmlns:xlink="http://www.w3.org/1999/xlink" viewBox="0 0 36.9489 31.3496">
 <g>
  <rect height="31.3496" opacity="0" width="36.9489" x="0" y="0"/>
  <path d="M12.3153 29.3535L16.3348 29.3535C16.9774 29.3535 17.2781 28.916 17.1141 28.2051L15.6922 21.998L19.7938 16.9395L31.8934 14.7246L32.8504 16.5293C33.2742 17.3223 34.6278 17.0625 34.45 16.0918L33.8074 12.4141C33.7117 11.8535 33.3563 11.6348 32.8367 11.7168L24.5516 13.1797L19.4383 12.9199C17.9617 12.6465 15.5145 11.5801 14.9676 10.2266C14.8172 9.83008 15.036 9.47461 15.3914 9.40625L23.1024 8.03906C24.0594 7.875 24.4012 7.08203 24.2508 6.38477C24.1141 5.70117 23.5125 5.11328 22.5828 5.29102L1.13166 9.21484C0.242991 9.37891-0.0988054 10.1172 0.0242415 10.8145C0.16096 11.5117 0.748851 12.1133 1.69221 11.9492L7.98127 10.8008C8.54182 10.7051 8.77424 10.9238 8.8426 11.2246C9.58088 13.959 12.3016 15.9277 15.0906 16.9805L13.0535 20.4395C12.7528 20.959 12.6024 21.4648 12.7664 22.1621L13.9149 27.125L12.1375 27.6992C11.2352 27.9863 11.3582 29.3535 12.3153 29.3535ZM10.3465 5.97461C12.0145 5.97461 13.3406 4.64844 13.3406 2.98047C13.3406 1.32617 12.0145 0 10.3465 0C8.69221 0 7.36604 1.32617 7.36604 2.98047C7.36604 4.64844 8.69221 5.97461 10.3465 5.97461ZM11.5906 31.3359L16.95 31.3359C17.2235 31.3359 17.4149 31.1172 17.4149 30.8574C17.4149 30.5566 17.2235 30.3516 16.95 30.3516L11.5906 30.3516C11.3172 30.3516 11.0985 30.5566 11.0985 30.8574C11.0985 31.1172 11.3172 31.3359 11.5906 31.3359ZM36.5828 16.7891L35.6531 11.498C35.5985 11.2383 35.366 11.0742 35.1063 11.1289C34.8192 11.1699 34.6414 11.4023 34.6961 11.6758L35.6258 16.9531C35.6805 17.2266 35.9129 17.418 36.2137 17.3496C36.4598 17.3223 36.6375 17.0625 36.5828 16.7891Z" fill="black" fill-opacity="0.85"/>
 </g>
</svg>
