<?xml version="1.0" encoding="UTF-8"?>
<!--Generator: Apple Native CoreSVG 326-->
<!DOCTYPE svg
PUBLIC "-//W3C//DTD SVG 1.1//EN"
       "http://www.w3.org/Graphics/SVG/1.1/DTD/svg11.dtd">
<svg version="1.1" xmlns="http://www.w3.org/2000/svg" xmlns:xlink="http://www.w3.org/1999/xlink" viewBox="0 0 22.9688 33.3184">
 <g>
  <rect height="33.3184" opacity="0" width="22.9688" x="0" y="0"/>
  <path d="M10.9375 6.78125C12.5781 6.78125 13.918 5.45508 13.918 3.77344C13.918 2.14648 12.5781 0.806641 10.9375 0.806641C9.26953 0.806641 7.94336 2.14648 7.94336 3.77344C7.94336 5.45508 9.26953 6.78125 10.9375 6.78125ZM1.39453 32.9766C1.99609 33.291 2.87109 33.168 3.28125 32.4297L6.72656 26.2227L8.76367 21.6426C8.80469 21.5469 8.94141 21.5059 9.02344 21.5879L14.4922 25.5527L14.4922 31.7461C14.4922 32.5254 15.1074 33.1406 15.873 33.1406C16.6523 33.1406 17.2539 32.5254 17.2539 31.7461L17.2539 24.9375C17.2539 24.541 17.1445 24.1309 16.8301 23.8438L11.1289 18.457L11.6621 14.123C11.6758 13.959 11.8945 13.9453 11.9492 14.082L13.2207 17.1035C13.4395 17.6367 13.9316 17.9512 14.4922 17.9512L20.3574 17.9512C21.123 17.9512 21.7383 17.3359 21.7383 16.5703C21.7383 15.8047 21.123 15.1895 20.3574 15.1895L15.3945 15.1895L13.4258 10.5547C12.9062 9.35156 12.1406 8.66797 10.3906 8.18945L9.59766 7.9707C7.69727 7.4375 6.39844 7.35547 4.86719 8.02539L2.76172 8.92773L2.76172 3.80078C2.76172 3.04883 2.13281 2.43359 1.38086 2.43359C0.615234 2.43359 0 3.04883 0 3.80078L0 11.1973C0 12.1816 1.02539 12.7148 1.92773 12.3184L5.83789 10.6094C6.01562 10.541 6.17969 10.6504 6.15234 10.8418L4.18359 25.1152L0.847656 31.1035C0.492188 31.7461 0.724609 32.6348 1.39453 32.9766ZM19.4277 13.084L20.9453 13.084L20.9453 0.751953C20.9453 0.328125 20.6035 0 20.1797 0C19.7559 0 19.4277 0.328125 19.4277 0.751953ZM18.293 13.877L22.0664 13.877C22.5176 13.877 22.709 13.4941 22.5586 13.084C22.2168 12.0586 21.2734 11.3477 20.1797 11.3477C19.0859 11.3477 18.1426 12.0586 17.8008 13.084C17.6504 13.4941 17.8418 13.877 18.293 13.877Z" fill="black" fill-opacity="0.85"/>
 </g>
</svg>
