<?xml version="1.0" encoding="UTF-8"?>
<!--Generator: Apple Native CoreSVG 326-->
<!DOCTYPE svg
PUBLIC "-//W3C//DTD SVG 1.1//EN"
       "http://www.w3.org/Graphics/SVG/1.1/DTD/svg11.dtd">
<svg version="1.1" xmlns="http://www.w3.org/2000/svg" xmlns:xlink="http://www.w3.org/1999/xlink" viewBox="0 0 26.5648 27.9316">
 <g>
  <rect height="27.9316" opacity="0" width="26.5648" x="0" y="0"/>
  <path d="M22.5178 7.65625C24.5685 7.65625 26.2092 5.94727 26.2092 3.96484C26.2092 1.90039 24.5685 0.21875 22.5178 0.21875C20.4533 0.21875 18.799 1.90039 18.799 3.96484C18.799 5.98828 20.4533 7.65625 22.5178 7.65625ZM20.1389 21.8203C20.7404 21.3418 21.3146 20.5352 21.8615 19.5234L24.3771 14.957C25.5393 12.8516 25.1564 10.7051 23.174 9.63867C21.2463 8.57227 19.2502 9.39258 18.0744 11.5254L15.4768 16.2148ZM0.492378 27.1934C1.20332 27.9453 2.42011 27.877 3.29511 26.9883L9.17402 20.918C9.3791 20.7129 9.50214 20.6582 9.80292 20.7812L14.7658 22.6543C15.8459 23.0645 17.0217 22.9824 17.883 22.8184L14.465 18.5938L10.9787 17.3223C9.36542 16.7344 8.02558 16.9258 6.72675 18.2656L0.615425 24.582C-0.21856 25.457-0.1502 26.5508 0.492378 27.1934ZM23.092 27.3574C23.6525 26.9199 23.6935 26.2363 23.1603 25.5938L20.1389 21.8203C19.4416 22.3125 18.676 22.6543 17.883 22.8184L21.3693 27.0977C21.8752 27.7129 22.5178 27.8359 23.092 27.3574Z" fill="#ff9500"/>
  <path d="M6.95917 13.877C10.8283 13.877 13.8361 10.6914 13.8361 6.98633C13.8361 3.11719 10.8283 0 6.95917 0C3.10371 0 0.000190148 3.11719 0.000190148 6.98633C0.000190148 10.6914 3.10371 13.877 6.95917 13.877ZM6.95917 12.0859C4.15644 12.0859 1.79121 9.76172 1.79121 6.98633C1.79121 4.10156 4.08808 1.79102 6.95917 1.79102C9.8166 1.79102 12.0451 4.07422 12.0451 6.98633C12.0451 9.80273 9.76191 12.0859 6.95917 12.0859ZM1.91425 0.669922C1.57246 0.328125 0.998237 0.328125 0.65644 0.669922C0.300971 1.01172 0.300971 1.57227 0.65644 1.94141L11.9494 13.2207C12.2912 13.5625 12.8518 13.5625 13.2072 13.2207C13.5627 12.8789 13.5627 12.3047 13.2072 11.9492ZM0.65644 11.9492C0.300971 12.3047 0.300971 12.8789 0.65644 13.2207C0.998237 13.5625 1.57246 13.5625 1.91425 13.2207L13.2072 1.94141C13.5627 1.57227 13.5627 1.01172 13.2072 0.669922C12.8518 0.328125 12.2912 0.328125 11.9494 0.669922Z" fill="#ff9500"/>
 </g>
</svg>
