<?xml version="1.0" encoding="UTF-8"?>
<!--Generator: Apple Native CoreSVG 326-->
<!DOCTYPE svg
PUBLIC "-//W3C//DTD SVG 1.1//EN"
       "http://www.w3.org/Graphics/SVG/1.1/DTD/svg11.dtd">
<svg version="1.1" xmlns="http://www.w3.org/2000/svg" xmlns:xlink="http://www.w3.org/1999/xlink" viewBox="0 0 42.8381 31.7857">
 <g>
  <rect height="31.7857" opacity="0" width="42.8381" x="0" y="0"/>
  <path d="M35.3097 9.77469L35.3097 12.5227C35.3097 13.3704 34.8175 13.7395 34.2296 13.7395C33.6144 13.7395 33.1358 13.3294 33.1358 12.5227L33.1358 9.48758C33.1358 6.0286 30.921 4.21024 28.3644 4.21024C25.8077 4.21024 23.5929 6.0286 23.5929 9.48758L23.5929 13.1046C25.0633 13.3787 25.8351 14.4428 25.8351 16.2688L25.8351 25.6888C25.8351 27.8489 24.7687 28.9427 22.7589 28.9427L14.8304 28.9427C14.8387 28.6446 14.8031 28.3245 14.7198 27.9856L13.2159 21.8196C13.1476 21.4778 13.1612 21.054 13.1612 20.5071L13.7354 20.7395C15.4854 21.4095 17.1261 20.5345 17.5636 19.0032C17.9874 17.6223 17.3175 16.1184 15.7726 15.4895L12.5597 14.1634C12.7327 13.8082 12.8572 13.4287 12.9196 13.0286L21.4327 13.0286L21.4327 9.77469C21.4327 4.63407 24.7823 2.14579 28.3644 2.14579C31.9464 2.14579 35.3097 4.63407 35.3097 9.77469Z" fill="black" fill-opacity="0.85"/>
  <path d="M8.85459 14.6556C10.1124 14.6556 11.0968 13.6575 11.0968 12.4134C11.0968 11.1692 10.1124 10.1575 8.85459 10.1575C7.62412 10.1575 6.59873 11.1692 6.59873 12.4134C6.59873 13.6575 7.62412 14.6556 8.85459 14.6556ZM8.84092 22.6946C9.1417 22.6946 9.38779 22.8723 9.46982 23.2141L11.0011 29.1341C11.3565 30.4466 13.1612 29.9817 12.9698 28.7376C12.8878 28.2454 11.5753 23.2415 11.3839 22.1204C11.2472 21.3001 11.3019 19.2083 11.3019 18.2649C11.3019 18.0052 11.5343 17.8274 11.8214 17.9505L14.4327 19.0032C15.1437 19.2903 15.6358 18.9485 15.7726 18.4837C15.9229 18.0188 15.7179 17.472 15.0616 17.2122L12.2452 16.0501C11.589 15.7766 11.0011 15.6399 10.3448 15.5442C9.89365 15.763 9.38779 15.8997 8.84092 15.8997C8.29404 15.8997 7.80185 15.763 7.33701 15.5442C6.68076 15.6399 6.09287 15.7766 5.43662 16.0501L2.62021 17.2122C1.97763 17.472 1.77256 18.0188 1.92295 18.4837C2.04599 18.9485 2.53818 19.2903 3.24912 19.0032L5.87412 17.9505C6.14756 17.8274 6.37998 18.0052 6.37998 18.2649C6.37998 19.2083 6.44834 21.3001 6.31162 22.1204C6.12021 23.2415 4.79404 28.2454 4.71201 28.7376C4.5206 29.9817 6.33896 30.4466 6.68076 29.1341L8.21201 23.2141C8.30771 22.8723 8.54013 22.6946 8.84092 22.6946Z" fill="black" fill-opacity="0.85"/>
 </g>
</svg>
