<?xml version="1.0" encoding="UTF-8"?>
<!--Generator: Apple Native CoreSVG 326-->
<!DOCTYPE svg
PUBLIC "-//W3C//DTD SVG 1.1//EN"
       "http://www.w3.org/Graphics/SVG/1.1/DTD/svg11.dtd">
<svg version="1.1" xmlns="http://www.w3.org/2000/svg" xmlns:xlink="http://www.w3.org/1999/xlink" viewBox="0 0 28.7383 36.1621">
 <g>
  <rect height="36.1621" opacity="0" width="28.7383" x="0" y="0"/>
  <path d="M20.489 3.97852L7.89383 3.97852C7.9448 2.85991 8.64699 2.22852 9.81641 2.22852L18.5664 2.22852C19.7358 2.22852 20.438 2.85991 20.489 3.97852Z" fill="black" fill-opacity="0.85"/>
  <path d="M23.2851 7.88385C22.8454 7.81396 22.379 7.7793 21.8887 7.7793L6.49414 7.7793C6.00393 7.7793 5.53767 7.81374 5.09809 7.88327C5.24713 6.57013 6.13588 5.83789 7.58789 5.83789L20.8086 5.83789C22.2608 5.83789 23.1383 6.57035 23.2851 7.88385Z" fill="black" fill-opacity="0.85"/>
  <path d="M6.49414 33.9609L21.8887 33.9609C24.7461 33.9609 26.1816 32.5391 26.1816 29.7227L26.1816 14.2188C26.1816 11.4023 24.7461 9.98047 21.8887 9.98047L6.49414 9.98047C3.63672 9.98047 2.20117 11.3887 2.20117 14.2188L2.20117 29.7227C2.20117 32.5391 3.63672 33.9609 6.49414 33.9609ZM6.53516 31.7598C5.16797 31.7598 4.40234 31.0215 4.40234 29.5996L4.40234 14.3281C4.40234 12.9199 5.16797 12.1816 6.53516 12.1816L21.8613 12.1816C23.2012 12.1816 23.9805 12.9199 23.9805 14.3281L23.9805 29.5996C23.9805 31.0215 23.2012 31.7598 21.8613 31.7598Z" fill="black" fill-opacity="0.85"/>
  <path d="M16.1875 17.1855C17.0625 17.1855 17.7598 16.4746 17.7598 15.6133C17.7598 14.752 17.0625 14.0547 16.1875 14.0547C15.3262 14.0547 14.6289 14.752 14.6289 15.6133C14.6289 16.4746 15.3262 17.1855 16.1875 17.1855ZM13.7402 23.4199L16.4746 24.9648L14.7109 26.4824C14.3418 26.7969 14.3418 27.2207 14.5742 27.4805C14.8066 27.7539 15.2305 27.8086 15.627 27.4805L18.1016 25.375C18.4434 25.0742 18.375 24.4727 17.9785 24.1992L15.2852 22.4355L15.8184 20.5762C15.8867 20.3164 16.2012 20.2754 16.3516 20.5078L17.1445 21.6699C17.3223 21.9297 17.6777 22.0254 17.9785 21.9023L20.248 20.877C20.6445 20.6992 20.7949 20.3438 20.6309 19.9883C20.4531 19.6328 20.1113 19.5098 19.7012 19.6875L17.8965 20.4941L16.666 18.7715C16.0234 17.8965 15.2168 17.541 13.9043 17.6367L11.375 17.8008C10.9785 17.8281 10.7051 18.0879 10.6504 18.5117L10.3086 21.0684C10.2539 21.5059 10.4727 21.8203 10.8691 21.8613C11.252 21.9023 11.5117 21.6699 11.5801 21.2188L11.8809 19.127L12.9062 19.0586C13.125 19.0449 13.3438 19.1953 13.2617 19.4688L12.6875 21.5195C12.332 22.75 13.125 23.0781 13.7402 23.4199ZM8.94141 29.6133C9.21484 29.8457 9.61133 29.873 9.98047 29.5176L12.3047 27.207C12.4961 27.0156 12.5508 26.9746 12.6602 26.6738L13.6855 24.1172L13.4258 23.9668C12.9336 23.6934 12.5098 23.4199 12.25 23.0508L11.375 26.127L8.94141 28.5195C8.57227 28.8887 8.6543 29.3535 8.94141 29.6133Z" fill="black" fill-opacity="0.85"/>
 </g>
</svg>
