<?xml version="1.0" encoding="UTF-8"?>
<!--Generator: Apple Native CoreSVG 326-->
<!DOCTYPE svg
PUBLIC "-//W3C//DTD SVG 1.1//EN"
       "http://www.w3.org/Graphics/SVG/1.1/DTD/svg11.dtd">
<svg version="1.1" xmlns="http://www.w3.org/2000/svg" xmlns:xlink="http://www.w3.org/1999/xlink" viewBox="0 0 34.1238 27.5488">
 <g>
  <rect height="27.5488" opacity="0" width="34.1238" x="0" y="0"/>
  <path d="M24.0209 8.75L24.0209 12.0586C24.0209 13.0156 24.7318 13.7266 25.6888 13.7266L28.3002 13.7266C29.2435 13.7266 29.9545 13.0156 29.9545 12.0586L29.9545 8.75C29.9545 7.79297 29.2435 7.08203 28.3002 7.08203L25.6888 7.08203C24.7318 7.08203 24.0209 7.79297 24.0209 8.75ZM20.1927 18.4707L20.1927 21.793C20.1927 22.75 20.9037 23.4609 21.8607 23.4609L24.472 23.4609C25.4291 23.4609 26.14 22.75 26.14 21.793L26.14 18.4707C26.14 17.5137 25.4291 16.8164 24.472 16.8164L21.8607 16.8164C20.9037 16.8164 20.1927 17.5137 20.1927 18.4707ZM27.8353 18.4707L27.8353 21.793C27.8353 22.75 28.5326 23.4609 29.4896 23.4609L32.101 23.4609C33.058 23.4609 33.7689 22.75 33.7689 21.793L33.7689 18.4707C33.7689 17.5137 33.058 16.8164 32.101 16.8164L29.4896 16.8164C28.5326 16.8164 27.8353 17.5137 27.8353 18.4707ZM24.2806 5.05859L29.681 5.05859C30.0912 5.05859 30.1732 4.62109 29.8588 4.40234L27.3978 2.73438C27.1244 2.55664 26.8373 2.55664 26.5638 2.73438L24.1029 4.40234C23.7885 4.62109 23.8705 5.05859 24.2806 5.05859Z" fill="black" fill-opacity="0.85"/>
  <path d="M7.92908 6.09766C9.61072 6.09766 10.9506 4.68945 10.9506 3.0625C10.9506 1.38086 9.61072 0 7.92908 0C6.23376 0 4.90759 1.38086 4.90759 3.0625C4.90759 4.7168 6.23376 6.09766 7.92908 6.09766ZM2.10486 17.4043L10.7728 7.7793C9.92517 7.45117 8.98181 7.31445 7.92908 7.31445C4.00525 7.31445 1.70837 9.20117 1.70837 12.3594C1.70837 13.125 1.72204 14.1367 1.84509 15.1758ZM13.7533 17.4043L13.9994 15.1758C14.1224 14.1367 14.1635 13.125 14.1635 12.3594C14.1635 10.8008 13.6029 9.54297 12.5365 8.69531L5.64587 16.3516C6.42517 16.2285 7.17712 16.1738 7.92908 16.1738C9.85681 16.1738 11.7845 16.4336 13.7533 17.4043ZM4.57947 27.4805C5.37243 27.3711 5.91931 26.7969 5.80993 25.7988L5.26306 20.7539L10.5951 20.7539L10.0482 25.7988C9.93884 26.7969 10.4584 27.3711 11.2787 27.4805C12.099 27.5625 12.7279 27.043 12.8236 26.0859L13.5345 19.4277C11.7709 18.4023 9.81579 18.0059 7.92908 18.0059C6.04236 18.0059 4.07361 18.4023 2.33728 19.4277L3.03454 26.0859C3.13025 27.043 3.75915 27.5625 4.57947 27.4805ZM12.5365 8.68164L15.1342 5.79688C15.5853 5.29102 15.5443 4.73047 15.1068 4.375C14.683 4.00586 14.1635 3.99219 13.6849 4.52539L10.7728 7.7793C11.4154 8.02539 12.017 8.33984 12.5365 8.68164ZM0.409544 18.416C-0.0689714 18.7715-0.0826433 19.3457 0.136107 19.7148C0.3822 20.1113 0.874388 20.3027 1.40759 19.9883C1.72204 19.7832 2.00915 19.6055 2.33728 19.4277L2.10486 17.4043C1.48962 17.6777 0.942747 17.9922 0.409544 18.416ZM15.4349 18.416C14.9154 17.9922 14.3685 17.6777 13.7533 17.4043L13.5209 19.4277C13.849 19.6055 14.1361 19.7832 14.4369 19.9883C14.9701 20.3027 15.4486 20.125 15.6947 19.7422C15.9408 19.3594 15.9408 18.7852 15.4349 18.416Z" fill="black" fill-opacity="0.85"/>
 </g>
</svg>
