<?xml version="1.0" encoding="UTF-8"?>
<!--Generator: Apple Native CoreSVG 326-->
<!DOCTYPE svg
PUBLIC "-//W3C//DTD SVG 1.1//EN"
       "http://www.w3.org/Graphics/SVG/1.1/DTD/svg11.dtd">
<svg version="1.1" xmlns="http://www.w3.org/2000/svg" xmlns:xlink="http://www.w3.org/1999/xlink" viewBox="0 0 28.2461 27.9043">
 <g>
  <rect height="27.9043" opacity="0" width="28.2461" x="0" y="0"/>
  <path d="M13.9453 27.8906C21.6426 27.8906 27.8906 21.6289 27.8906 13.9453C27.8906 6.24805 21.6426 0 13.9453 0C6.26172 0 0 6.24805 0 13.9453C0 21.6289 6.26172 27.8906 13.9453 27.8906Z" fill="black" fill-opacity="0.85"/>
  <path d="M15.2578 7.58789C14.3145 7.58789 13.5488 6.83594 13.5488 5.87891C13.5488 4.94922 14.3145 4.18359 15.2578 4.18359C16.1875 4.18359 16.9531 4.94922 16.9531 5.87891C16.9531 6.83594 16.1875 7.58789 15.2578 7.58789ZM7.68359 16.9668C7.23242 16.9668 6.9043 16.5977 6.9043 16.1738C6.9043 15.7363 7.23242 15.3945 7.68359 15.3945L10.9102 15.3945L9.37891 13.8496C8.66797 13.125 8.69531 12.0723 9.37891 11.375L11.1152 9.65234C11.2383 9.5293 11.1836 9.35156 11.0059 9.33789L9.16016 9.0918L7.46484 10.8008C7.15039 11.1289 6.61719 11.1016 6.33008 10.8008C6.04297 10.4727 6.01562 10.0078 6.33008 9.67969L8.32617 7.71094C8.49023 7.54688 8.72266 7.45117 8.96875 7.50586L20.8086 8.99609C21.1914 9.05078 21.4922 9.39258 21.4922 9.77539C21.4922 10.2539 21.0684 10.582 20.6035 10.541L14.957 9.83008C14.834 9.80273 14.7246 9.85742 14.6562 9.92578L12.7695 11.8262L20.7266 11.8262C21.1777 11.8262 21.5332 12.1953 21.5332 12.6191C21.5332 13.0566 21.1777 13.3984 20.7266 13.3984L16.4336 13.3984L11.8262 13.6992L13.4395 15.6816C13.8359 16.1738 13.5078 16.9668 12.8242 16.9668ZM14.8613 23.2969L14.8613 15.1895C14.8613 14.9023 15.0664 14.6836 15.3398 14.6836C15.6133 14.6836 15.8184 14.9023 15.8184 15.1895L15.8184 23.2969C15.8184 23.5566 15.6133 23.7754 15.3398 23.7754C15.0664 23.7754 14.8613 23.5566 14.8613 23.2969Z" fill="white"/>
 </g>
</svg>
