<?xml version="1.0" encoding="UTF-8"?>
<!--Generator: Apple Native CoreSVG 326-->
<!DOCTYPE svg
PUBLIC "-//W3C//DTD SVG 1.1//EN"
       "http://www.w3.org/Graphics/SVG/1.1/DTD/svg11.dtd">
<svg version="1.1" xmlns="http://www.w3.org/2000/svg" xmlns:xlink="http://www.w3.org/1999/xlink" viewBox="0 0 35.0273 26.9473">
 <g>
  <rect height="26.9473" opacity="0" width="35.0273" x="0" y="0"/>
  <path d="M23.0781 5.97461C24.7324 5.97461 26.0723 4.63477 26.0723 2.98047C26.0723 1.32617 24.7324 0 23.0781 0C21.4238 0 20.0977 1.32617 20.0977 2.98047C20.0977 4.63477 21.4238 5.97461 23.0781 5.97461ZM13.4805 26.7832C14.0957 27.002 14.8613 26.8516 15.2578 26.0449L18.7578 19.0449C19.0312 18.5117 18.9629 17.8828 18.498 17.4316L14.2734 13.1934L19.6191 10.5273C19.8652 10.3906 20.1523 10.459 20.3438 10.6504L23.5293 13.8086C23.7754 14.0547 24.1309 14.2188 24.5 14.2188L30.8164 14.2188C31.582 14.2188 32.2109 13.6035 32.2109 12.8105C32.2109 12.0449 31.582 11.416 30.8164 11.416L25.0742 11.416L19.1816 5.50977C18.4844 4.8125 17.5273 4.41602 16.5293 4.41602L4.89453 4.41602C4.12891 4.41602 3.5 5.04492 3.5 5.81055C3.5 6.58984 4.12891 7.21875 4.89453 7.21875L13.6719 7.21875C13.8223 7.21875 13.877 7.45117 13.7402 7.51953L11.1289 8.81836C9.74805 9.50195 9.05078 10.8008 9.05078 12.1133C9.05078 13.248 9.55664 14.3691 10.5957 15.1211L15.7227 18.8535L12.7559 24.8008C12.291 25.7441 12.7832 26.5098 13.4805 26.7832ZM1.39453 21.2188L8.39453 21.2188C8.94141 21.2188 9.41992 20.9043 9.66602 20.4531L11.252 17.2402L9.83008 16.1875C9.32422 15.8184 8.88672 15.3672 8.55859 14.9023L7.41016 18.416L1.39453 18.416C0.628906 18.416 0 19.0449 0 19.8105C0 20.5762 0.628906 21.2188 1.39453 21.2188ZM31.4727 0.697266C29.6133 0.697266 28.2734 2.02344 28.2734 3.88281C28.2734 6.54883 30.666 9.59766 30.9121 9.85742L32.0195 9.85742C32.2793 9.59766 34.6719 6.54883 34.6719 3.88281C34.6719 2.02344 33.332 0.697266 31.4727 0.697266ZM31.4727 2.21484C32.457 2.21484 33.1543 2.92578 33.1543 3.88281C33.1543 5.20898 32.1426 6.98633 31.4727 8.06641C30.8027 6.98633 29.791 5.20898 29.791 3.88281C29.791 2.92578 30.4883 2.21484 31.4727 2.21484ZM30.707 12.8105L32.2109 12.8105L32.2109 9.31055L30.707 9.31055Z" fill="black" fill-opacity="0.85"/>
 </g>
</svg>
