<?xml version="1.0" encoding="UTF-8"?>
<!--Generator: Apple Native CoreSVG 326-->
<!DOCTYPE svg
PUBLIC "-//W3C//DTD SVG 1.1//EN"
       "http://www.w3.org/Graphics/SVG/1.1/DTD/svg11.dtd">
<svg version="1.1" xmlns="http://www.w3.org/2000/svg" xmlns:xlink="http://www.w3.org/1999/xlink" viewBox="0 0 28.2461 27.9043">
 <g>
  <rect height="27.9043" opacity="0" width="28.2461" x="0" y="0"/>
  <path d="M13.9453 27.8906C21.6426 27.8906 27.8906 21.6289 27.8906 13.9453C27.8906 6.24805 21.6426 0 13.9453 0C6.26172 0 0 6.24805 0 13.9453C0 21.6289 6.26172 27.8906 13.9453 27.8906Z" fill="black" fill-opacity="0.85"/>
  <path d="M14.4922 8.02539C13.5352 8.02539 12.7832 7.25977 12.7832 6.31641C12.7832 5.38672 13.5352 4.63477 14.4922 4.63477C15.4219 4.63477 16.1738 5.38672 16.1738 6.31641C16.1738 7.25977 15.4219 8.02539 14.4922 8.02539ZM7.31445 22.2988C6.98633 21.9844 6.98633 21.4512 7.30078 21.1504L10.3906 18.0742L9.81641 15.873C9.59766 14.9707 9.70703 14 10.1309 13.1523L11.3066 10.8008C11.4023 10.623 11.293 10.459 11.1016 10.459L9.50195 10.459L8.2168 13.0293C8.01172 13.4258 7.5332 13.5625 7.12305 13.3848C6.72656 13.1797 6.57617 12.7012 6.78125 12.3047L8.29883 9.2832C8.42188 9.00977 8.69531 8.83203 9.02344 8.83203L14.4375 8.83203C15.0664 8.83203 15.5996 9.05078 16.0645 9.51562L18.1289 11.5938L21.6973 12.6465C22.1348 12.7695 22.3809 13.2207 22.2578 13.6309C22.0801 14.1504 21.5605 14.2871 21.2461 14.1914L17.4453 13.0703C17.3359 13.0293 17.2266 12.9609 17.1309 12.8652L15.2168 10.9512C15.1074 10.8418 14.957 10.8691 14.8887 11.0059L13.1934 14.3965L15.8184 17.0078C15.9141 17.0762 15.9824 17.2129 16.0098 17.3223L17.3359 21.4922C17.4727 21.9023 17.2539 22.3535 16.8027 22.4902C16.4199 22.6133 15.9414 22.4355 15.8047 21.9707L14.5332 18.0332L12.0996 15.9141C11.9902 15.832 11.8672 15.9004 11.8809 16.0234L12.0723 18.2383C12.0996 18.5391 12.0586 18.7031 11.8398 18.9082L8.43555 22.2988C8.10742 22.6406 7.61523 22.5996 7.31445 22.2988ZM21.4785 18.7578C20.4531 18.7578 19.6328 17.9375 19.6328 16.8984C19.6328 15.9004 20.4531 15.0664 21.4785 15.0664C22.5176 15.0664 23.3105 15.9004 23.3105 16.8984C23.3105 17.9375 22.5176 18.7578 21.4785 18.7578Z" fill="white"/>
 </g>
</svg>
