<?xml version="1.0" encoding="UTF-8"?>
<!--Generator: Apple Native CoreSVG 326-->
<!DOCTYPE svg
PUBLIC "-//W3C//DTD SVG 1.1//EN"
       "http://www.w3.org/Graphics/SVG/1.1/DTD/svg11.dtd">
<svg version="1.1" xmlns="http://www.w3.org/2000/svg" xmlns:xlink="http://www.w3.org/1999/xlink" viewBox="0 0 33.5576 27.7402">
 <g>
  <rect height="27.7402" opacity="0" width="33.5576" x="0" y="0"/>
  <path d="M7.62549 5.97461C9.26611 5.97461 10.606 4.63477 10.606 2.9668C10.606 1.32617 9.26611 0 7.62549 0C5.98486 0 4.63135 1.32617 4.63135 2.9668C4.63135 4.63477 5.98486 5.97461 7.62549 5.97461ZM4.61768 23.6387C5.64307 23.2695 6.47705 22.7773 7.46143 22.3945L7.68018 20.3984C7.70752 20.248 7.9126 20.2207 7.96729 20.3438L8.80127 22.0117C9.23877 21.916 9.71729 21.8613 10.2915 21.8613C10.9614 21.8613 11.4946 21.957 11.9595 22.1348L10.5786 18.416L10.5786 10.1855C10.5786 8.66797 9.51221 7.41016 7.63916 7.41016L6.99658 7.41016C5.87549 7.41016 4.61768 7.56055 3.48291 8.66797L0.379395 11.7578C-0.126465 12.2637-0.126465 13.1387 0.379395 13.6309L4.61768 17.8145ZM4.61768 14.1367L3.1958 12.7012L4.19385 11.6895C4.35791 11.5254 4.61768 11.6211 4.61768 11.8672ZM2.06104 19.8105L31.0044 2.05078C31.3735 1.81836 31.4692 1.36719 31.2231 0.984375C31.0044 0.615234 30.5532 0.519531 30.1841 0.751953L1.25439 18.498C0.885254 18.7305 0.775879 19.1953 1.02197 19.5645C1.24072 19.9336 1.69189 20.043 2.06104 19.8105ZM1.60986 27.7266L3.00439 27.7266C6.65479 27.7266 7.48877 25.4707 10.0181 25.4707C12.5474 25.4707 13.3813 27.7266 17.0317 27.7266C20.6821 27.7266 21.5161 25.4707 24.0454 25.4707C26.5747 25.4707 27.4087 27.7266 31.0591 27.7266L32.4536 27.7266C32.8774 27.7266 33.2056 27.3984 33.2056 26.9746C33.2056 26.5508 32.8774 26.209 32.4536 26.209L31.0591 26.209C28.4341 26.209 27.5454 23.9531 24.0454 23.9531C20.5454 23.9531 19.6567 26.209 17.0317 26.209C14.4067 26.209 13.5181 23.9531 10.0181 23.9531C6.50439 23.9531 5.62939 26.209 3.00439 26.209L1.60986 26.209C1.18604 26.209 0.844238 26.5508 0.844238 26.9746C0.844238 27.3984 1.18604 27.7266 1.60986 27.7266Z" fill="black" fill-opacity="0.85"/>
 </g>
</svg>
