<?xml version="1.0" encoding="UTF-8"?>
<!--Generator: Apple Native CoreSVG 326-->
<!DOCTYPE svg
PUBLIC "-//W3C//DTD SVG 1.1//EN"
       "http://www.w3.org/Graphics/SVG/1.1/DTD/svg11.dtd">
<svg version="1.1" xmlns="http://www.w3.org/2000/svg" xmlns:xlink="http://www.w3.org/1999/xlink" viewBox="0 0 29.6863 27.9316">
 <g>
  <rect height="27.9316" opacity="0" width="29.6863" x="0" y="0"/>
  <path d="M8.36951 5.97461C10.0238 5.97461 11.35 4.63477 11.35 2.9668C11.35 1.32617 10.0238 0 8.36951 0C6.72888 0 5.37537 1.32617 5.37537 2.9668C5.37537 4.63477 6.72888 5.97461 8.36951 5.97461ZM28.5902 25.0332L19.5804 20.166L14.3715 16.543C13.9886 16.2832 13.6195 15.9414 13.3187 15.5586C13.8519 15.2305 14.0707 14.6289 13.9203 14.041L12.8949 9.88477C12.5258 8.42188 11.1996 7.41016 9.69568 7.41016L6.44177 7.41016C5.44373 7.41016 4.74646 7.65625 4.10388 8.29883L0.398804 12.0039C-0.0523682 12.4551-0.120728 13.1523 0.193726 13.6992L2.79138 18.252L2.79138 26.2637C2.79138 27.0156 3.42029 27.6582 4.18591 27.6582C4.95154 27.6582 5.58044 27.0156 5.58044 26.2637L5.58044 19.3867L13.5511 19.9609L18.3773 22.6953L27.2777 27.4805C28.098 27.918 28.891 27.5078 29.1781 26.9336C29.5199 26.25 29.2601 25.3887 28.5902 25.0332ZM3.14685 13.2344L5.5531 10.8145L7.42615 15.6406L5.94958 16.4883L5.00623 16.4883Z" fill="black" fill-opacity="0.85"/>
 </g>
</svg>
