<?xml version="1.0" encoding="UTF-8"?>
<!--Generator: Apple Native CoreSVG 326-->
<!DOCTYPE svg
PUBLIC "-//W3C//DTD SVG 1.1//EN"
       "http://www.w3.org/Graphics/SVG/1.1/DTD/svg11.dtd">
<svg version="1.1" xmlns="http://www.w3.org/2000/svg" xmlns:xlink="http://www.w3.org/1999/xlink" viewBox="0 0 28.2461 27.9043">
 <g>
  <rect height="27.9043" opacity="0" width="28.2461" x="0" y="0"/>
  <path d="M13.9453 27.8906C21.6426 27.8906 27.8906 21.6426 27.8906 13.9453C27.8906 6.24805 21.6426 0 13.9453 0C6.24805 0 0 6.24805 0 13.9453C0 21.6426 6.24805 27.8906 13.9453 27.8906ZM13.9453 25.5664C7.51953 25.5664 2.32422 20.3711 2.32422 13.9453C2.32422 7.51953 7.51953 2.32422 13.9453 2.32422C20.3711 2.32422 25.5664 7.51953 25.5664 13.9453C25.5664 20.3711 20.3711 25.5664 13.9453 25.5664Z" fill="black" fill-opacity="0.85"/>
  <path d="M13.6582 7.47852C14.5742 7.47852 15.3125 6.74023 15.3125 5.83789C15.3125 4.92188 14.5742 4.18359 13.6582 4.18359C12.7559 4.18359 12.0176 4.92188 12.0176 5.83789C12.0176 6.74023 12.7559 7.47852 13.6582 7.47852ZM7.73828 13.248C8.12109 13.3164 8.53125 13.125 8.64062 12.6738L9.2832 9.81641L10.418 9.81641C10.5684 9.81641 10.6641 9.93945 10.6367 10.0762L9.87109 13.002C9.57031 14.1914 10.3496 15.3672 11.8398 14.998L14.6016 14.3145L14.082 16.9805C14 17.4043 14.2598 17.8008 14.6699 17.8965C15.0254 17.9785 15.4902 17.7461 15.5859 17.2949L16.3516 13.4395C16.4609 12.8789 15.9961 12.4414 15.5312 12.4961L13.0703 12.7422L13.7812 9.99414C13.8223 9.88477 13.9453 9.80273 14.0547 9.85742L16.8711 10.9102C17.3906 11.1016 17.9238 10.8281 17.9238 10.2812L17.9238 6.72656C17.9238 6.30273 17.5684 5.96094 17.1309 5.96094C16.707 5.96094 16.3652 6.30273 16.3652 6.72656L16.3652 9.07812L14.916 8.53125C14.4512 8.35352 13.9453 8.25781 13.4121 8.25781L8.6543 8.25781C8.29883 8.25781 7.98438 8.51758 7.90234 8.87305L7.13672 12.332C7.04102 12.7559 7.31445 13.1797 7.73828 13.248ZM11.2109 22.5312C11.5664 22.5996 12.0176 22.3535 12.1133 21.916L12.8926 18.0605C12.9062 17.9922 12.8926 17.9102 12.8926 17.8555L12.8926 15.4219L12.0039 15.6406C11.5117 15.75 11.2109 15.7637 11.0469 15.709L11.3477 17.8691L10.6094 21.6016C10.5273 22.0254 10.7871 22.4492 11.2109 22.5312ZM14.1504 21.0547L18.1289 21.0547C18.4023 21.0547 18.5938 20.8496 18.5938 20.6035C18.5938 20.3301 18.3887 20.125 18.1289 20.125L14.1504 20.125C13.9043 20.125 13.6855 20.3164 13.6855 20.6035C13.6855 20.8496 13.9043 21.0547 14.1504 21.0547ZM13.3848 22.75L18.8945 22.75C19.1406 22.75 19.3594 22.5449 19.3594 22.2852C19.3594 22.0391 19.1406 21.8203 18.8945 21.8203L13.3848 21.8203C13.0977 21.8203 12.9199 22.0391 12.9199 22.2852C12.9199 22.5449 13.0977 22.75 13.3848 22.75Z" fill="black" fill-opacity="0.85"/>
 </g>
</svg>
