<?xml version="1.0" encoding="UTF-8"?>
<!--Generator: Apple Native CoreSVG 326-->
<!DOCTYPE svg
PUBLIC "-//W3C//DTD SVG 1.1//EN"
       "http://www.w3.org/Graphics/SVG/1.1/DTD/svg11.dtd">
<svg version="1.1" xmlns="http://www.w3.org/2000/svg" xmlns:xlink="http://www.w3.org/1999/xlink" viewBox="0 0 28.2461 27.9043">
 <g>
  <rect height="27.9043" opacity="0" width="28.2461" x="0" y="0"/>
  <path d="M13.9453 27.8906C21.6426 27.8906 27.8906 21.6426 27.8906 13.9453C27.8906 6.24805 21.6426 0 13.9453 0C6.24805 0 0 6.24805 0 13.9453C0 21.6426 6.24805 27.8906 13.9453 27.8906ZM13.9453 25.5664C7.51953 25.5664 2.32422 20.3711 2.32422 13.9453C2.32422 7.51953 7.51953 2.32422 13.9453 2.32422C20.3711 2.32422 25.5664 7.51953 25.5664 13.9453C25.5664 20.3711 20.3711 25.5664 13.9453 25.5664Z" fill="black" fill-opacity="0.85"/>
  <path d="M13.9316 8.01172C14.834 8.01172 15.5723 7.27344 15.5723 6.34375C15.5723 5.44141 14.834 4.7168 13.9316 4.7168C13.0156 4.7168 12.2773 5.44141 12.2773 6.34375C12.2773 7.27344 13.0156 8.01172 13.9316 8.01172ZM12.2773 13.6719L15.5859 13.6719L15.5859 11.8398C15.5859 11.7168 15.7773 11.6484 15.873 11.8262L17.9785 16.0918C18.1562 16.4609 18.6211 16.6387 18.9902 16.4336C19.3594 16.2559 19.5234 15.8047 19.3184 15.4219L16.5703 9.80273C16.2285 9.13281 15.6133 8.75 14.834 8.75L13.0293 8.75C12.2637 8.75 11.6348 9.13281 11.3066 9.80273L8.53125 15.4219C8.33984 15.8047 8.50391 16.2559 8.85938 16.4336C9.24219 16.6387 9.69336 16.4609 9.87109 16.0918L11.9902 11.8262C12.0859 11.6484 12.2773 11.7031 12.2773 11.8398ZM10.8691 22.9551C11.2246 23.0371 11.6348 22.8457 11.7578 22.3262L12.4688 19.0859L13.9316 16.3926L15.3945 19.0859L16.0918 22.3262C16.2148 22.8594 16.6523 23.0371 17.0352 22.9414C17.3906 22.8457 17.6641 22.5176 17.5684 21.998L16.8438 18.6484C16.8301 18.5938 16.8301 18.5391 16.8027 18.4707L15.9004 15.9141L11.9629 15.9141L11.0469 18.4707C11.0195 18.5391 11.0195 18.5938 11.0059 18.6484L10.2949 21.998C10.1719 22.5312 10.5 22.8867 10.8691 22.9551ZM6.45312 17.3359L6.91797 17.3359C7.20508 17.3359 7.41016 17.1309 7.41016 16.8301L7.41016 12.7559C7.41016 12.4551 7.20508 12.2637 6.91797 12.2637L6.45312 12.2637C6.16602 12.2637 5.96094 12.4551 5.96094 12.7559L5.96094 16.8301C5.96094 17.1309 6.16602 17.3359 6.45312 17.3359ZM20.9316 17.3359L21.3965 17.3359C21.6836 17.3359 21.8887 17.1309 21.8887 16.8301L21.8887 12.7559C21.8887 12.4551 21.6836 12.2637 21.3965 12.2637L20.9316 12.2637C20.6445 12.2637 20.4395 12.4551 20.4395 12.7559L20.4395 16.8301C20.4395 17.1309 20.6445 17.3359 20.9316 17.3359ZM5.33203 15.2578L22.5176 15.2578C22.7773 15.2578 22.9824 15.0527 22.9824 14.793C22.9824 14.5195 22.7773 14.3281 22.5176 14.3281L5.33203 14.3281C5.07227 14.3281 4.86719 14.5195 4.86719 14.793C4.86719 15.0527 5.07227 15.2578 5.33203 15.2578Z" fill="black" fill-opacity="0.85"/>
 </g>
</svg>
