<?xml version="1.0" encoding="UTF-8"?>
<!--Generator: Apple Native CoreSVG 326-->
<!DOCTYPE svg
PUBLIC "-//W3C//DTD SVG 1.1//EN"
       "http://www.w3.org/Graphics/SVG/1.1/DTD/svg11.dtd">
<svg version="1.1" xmlns="http://www.w3.org/2000/svg" xmlns:xlink="http://www.w3.org/1999/xlink" viewBox="0 0 26.7422 32.4707">
 <g>
  <rect height="32.4707" opacity="0" width="26.7422" x="0" y="0"/>
  <path d="M3.00781 5.97461C4.63477 5.97461 5.97461 4.63477 5.97461 2.9668C5.97461 1.32617 4.63477-3.55271e-15 3.00781-3.55271e-15C1.33984-3.55271e-15 0 1.32617 0 2.9668C0 4.63477 1.33984 5.97461 3.00781 5.97461ZM1.43555 17.1035L7.0957 17.1035L7.4375 17.4453C8.12109 18.1289 9.05078 18.4707 9.95312 18.4707C10.7051 18.4707 11.4297 18.2383 12.0723 17.7598L18.9082 12.6465L25.7031 8.55859C26.3594 8.17578 26.5781 7.32812 26.209 6.67187C25.7988 6.01562 24.9512 5.81055 24.2949 6.20703L11.3477 13.959L7.75195 10.3496C7.65625 10.2676 7.71094 10.1445 7.83398 10.1445L11.1289 10.1445C11.8945 10.1445 12.5234 9.5293 12.5234 8.76367L12.5234 2.7207C12.5234 1.94141 11.8945 1.32617 11.1289 1.32617C10.3633 1.32617 9.74805 1.94141 9.74805 2.7207L9.74805 7.39648L2.80273 7.39648C1.29883 7.39648 0.0546875 8.62695 0.0546875 10.1445L0.0546875 15.7227C0.0546875 16.4609 0.65625 17.1035 1.43555 17.1035ZM2.70703 14.3965L2.70703 13.084C2.70703 12.8926 2.92578 12.7969 3.0625 12.9336L4.52539 14.3965ZM10.1582 32.334C10.8691 32.4707 11.6621 32.0059 11.8125 31.2402L13.1934 24.3086C13.2344 24.1309 13.2344 23.9941 13.207 23.8027L12.9473 18.7578C12.0039 19.4687 10.9648 19.7832 9.95312 19.7832C9.83008 19.7832 9.69336 19.7832 9.55664 19.7695L10.4043 24.0352L9.07812 30.6934C8.92773 31.4453 9.41992 32.1836 10.1582 32.334ZM11.8262 4.78516C12.9746 4.78516 13.918 3.86914 13.918 2.7207C13.918 1.55859 12.9746 0.642578 11.8262 0.642578C10.6914 0.642578 9.74805 1.55859 9.74805 2.7207C9.74805 3.86914 10.6914 4.78516 11.8262 4.78516Z" fill="black" fill-opacity="0.85"/>
 </g>
</svg>
