<?xml version="1.0" encoding="UTF-8"?>
<!--Generator: Apple Native CoreSVG 326-->
<!DOCTYPE svg
PUBLIC "-//W3C//DTD SVG 1.1//EN"
       "http://www.w3.org/Graphics/SVG/1.1/DTD/svg11.dtd">
<svg version="1.1" xmlns="http://www.w3.org/2000/svg" xmlns:xlink="http://www.w3.org/1999/xlink" viewBox="0 0 28.2461 27.9043">
 <g>
  <rect height="27.9043" opacity="0" width="28.2461" x="0" y="0"/>
  <path d="M13.9453 27.8906C21.6426 27.8906 27.8906 21.6426 27.8906 13.9453C27.8906 6.24805 21.6426 0 13.9453 0C6.24805 0 0 6.24805 0 13.9453C0 21.6426 6.24805 27.8906 13.9453 27.8906ZM13.9453 25.5664C7.51953 25.5664 2.32422 20.3711 2.32422 13.9453C2.32422 7.51953 7.51953 2.32422 13.9453 2.32422C20.3711 2.32422 25.5664 7.51953 25.5664 13.9453C25.5664 20.3711 20.3711 25.5664 13.9453 25.5664Z" fill="black" fill-opacity="0.85"/>
  <path d="M10.623 21.9297L13.002 19.0859C13.2207 18.8125 13.2617 18.7441 13.3438 18.457L13.5215 17.9238L12.2637 16.3105L11.8672 18.1152L9.51562 20.9043C8.76367 21.793 9.98047 22.668 10.623 21.9297ZM16.4062 21.6973C16.8984 22.6816 18.3613 22.0801 17.8281 21L16.2148 17.7188C16.0918 17.4863 15.9277 17.2129 15.7773 17.0078L14.7383 15.5312L14.8066 15.3262C15.0938 14.5059 15.2031 14.0137 15.2441 13.1934L15.4082 10.9238C15.4766 9.81641 14.8477 8.99609 13.7266 8.99609C12.8926 8.99609 12.332 9.41992 11.5527 10.1719L10.3496 11.3613C9.95312 11.7578 9.81641 12.0859 9.78906 12.5781L9.65234 14.4648C9.61133 14.9297 9.87109 15.2578 10.3086 15.2715C10.7461 15.3125 11.0059 15.0527 11.0605 14.5469L11.2246 12.4824L11.8125 11.9766C12.0176 11.7852 12.3047 11.8945 12.291 12.127L12.1543 13.8633C12.0859 14.7246 12.3047 15.1621 12.8926 15.9141L14.5059 17.9238C14.6562 18.1152 14.6836 18.1973 14.752 18.334ZM19.1816 12.0996L17.3359 12.0996L16.1738 10.8145L16.0508 12.7148L16.5156 13.1797C16.7754 13.4395 16.9941 13.5078 17.459 13.5078L19.1816 13.5078C19.6465 13.5078 19.9473 13.248 19.9473 12.8105C19.9473 12.373 19.6465 12.0996 19.1816 12.0996ZM14.6152 8.28516C15.5312 8.28516 16.2695 7.5332 16.2695 6.61719C16.2695 5.70117 15.5312 4.96289 14.6152 4.96289C13.6855 4.96289 12.9473 5.70117 12.9473 6.61719C12.9473 7.5332 13.6855 8.28516 14.6152 8.28516Z" fill="black" fill-opacity="0.85"/>
 </g>
</svg>
