<?xml version="1.0" encoding="UTF-8"?>
<!--Generator: Apple Native CoreSVG 326-->
<!DOCTYPE svg
PUBLIC "-//W3C//DTD SVG 1.1//EN"
       "http://www.w3.org/Graphics/SVG/1.1/DTD/svg11.dtd">
<svg version="1.1" xmlns="http://www.w3.org/2000/svg" xmlns:xlink="http://www.w3.org/1999/xlink" viewBox="0 0 38.0352 29.3262">
 <g>
  <rect height="29.3262" opacity="0" width="38.0352" x="0" y="0"/>
  <path d="M14.123 4.19727C15.2852 4.19727 16.2148 3.28125 16.2148 2.10547C16.2148 0.943359 15.2852 0 14.123 0C12.9609 0 12.0176 0.943359 12.0176 2.10547C12.0176 3.28125 12.9609 4.19727 14.123 4.19727ZM1.38086 22.832L8.85938 22.832C9.26953 22.832 9.44727 22.791 9.74805 22.7227L17.3223 20.8906C17.4453 20.8633 17.5547 20.9727 17.541 21.0957L17.0352 25.2246L14.0684 23.1055C13.4395 22.6543 12.5645 22.8047 12.127 23.4336C11.6621 24.0625 11.7988 24.9375 12.4277 25.3887L17.0078 28.6152C18.0195 29.3262 19.25 29.0938 19.5098 28.0547L23.2832 12.9199C23.3379 12.7422 23.5156 12.6328 23.6934 12.6738L36.0254 15.1211C37.0781 15.3398 37.6797 14.5469 37.6797 13.7676C37.6797 13.166 37.3379 12.5508 36.5723 12.4004L24.418 9.95312C20.8086 9.24219 18.5664 8.90039 15.9961 8.90039L12.5645 8.90039L12.5645 5.40039C12.5645 4.60742 11.9355 4.00586 11.1699 4.00586C10.377 4.00586 9.76172 4.60742 9.76172 5.40039L9.76172 10.2812C9.76172 11.0469 10.377 11.6758 11.1699 11.6758L16.9395 11.6758C17.1992 11.6758 17.377 11.9082 17.3086 12.1543L16.1875 16.4746C16.0098 17.1719 15.5312 17.7051 14.8477 17.9512L8.83203 20.043L1.38086 20.043C0.601562 20.043 0 20.6719 0 21.4512C0 22.2305 0.601562 22.832 1.38086 22.832ZM21.916 8.08008C23.5566 8.08008 24.8965 6.74023 24.8965 5.07227C24.8965 3.43164 23.5566 2.10547 21.916 2.10547C20.248 2.10547 18.9219 3.43164 18.9219 5.07227C18.9219 6.74023 20.248 8.08008 21.916 8.08008Z" fill="black" fill-opacity="0.85"/>
 </g>
</svg>
