<?xml version="1.0" encoding="UTF-8"?>
<!--Generator: Apple Native CoreSVG 326-->
<!DOCTYPE svg
PUBLIC "-//W3C//DTD SVG 1.1//EN"
       "http://www.w3.org/Graphics/SVG/1.1/DTD/svg11.dtd">
<svg version="1.1" xmlns="http://www.w3.org/2000/svg" xmlns:xlink="http://www.w3.org/1999/xlink" viewBox="0 0 32.7168 18.1699">
 <g>
  <rect height="18.1699" opacity="0" width="32.7168" x="0" y="0"/>
  <path d="M23.3926 7.06836C25.0469 7.06836 26.373 5.72852 26.373 4.07422C26.373 2.41992 25.0469 1.09375 23.3926 1.09375C21.7383 1.09375 20.3984 2.41992 20.3984 4.07422C20.3984 5.72852 21.7383 7.06836 23.3926 7.06836ZM11.6895 9.00977C13.2344 9.66602 14.1094 10.7598 16.1738 10.7598C18.5938 10.7598 19.2773 9.26953 21.4238 8.72266L13.6992 0.697266C13.0977 0.0683594 12.1816-0.0136719 11.457 0.519531L6.08398 4.32031C5.16797 4.97656 5.25 5.94727 5.7832 6.53516C6.23438 7.02734 7.02734 7.21875 7.79297 6.68555L12.1543 3.60938L14.6152 6.13867C14.8887 6.42578 14.9707 6.84961 14.5469 7.13672ZM0.765625 14.3691L2.14648 14.3691C5.79688 14.3691 6.63086 12.127 9.16016 12.127C11.6895 12.127 12.5234 14.3691 16.1738 14.3691C19.8379 14.3691 20.6582 12.127 23.2012 12.127C25.7305 12.127 26.5508 14.3691 30.2148 14.3691L31.5957 14.3691C32.0195 14.3691 32.3613 14.041 32.3613 13.6172C32.3613 13.1934 32.0195 12.8516 31.5957 12.8516L30.2148 12.8516C27.5898 12.8516 26.7012 10.6094 23.2012 10.6094C19.6875 10.6094 18.7988 12.8516 16.1738 12.8516C13.5488 12.8516 12.6738 10.6094 9.16016 10.6094C5.66016 10.6094 4.77148 12.8516 2.14648 12.8516L0.765625 12.8516C0.328125 12.8516 0 13.1934 0 13.6172C0 14.041 0.328125 14.3691 0.765625 14.3691ZM1.12109 18.1699C1.57227 18.1699 1.92773 17.8145 1.92773 17.3633C1.92773 16.9258 1.57227 16.5703 1.12109 16.5703C0.683594 16.5703 0.328125 16.9258 0.328125 17.3633C0.328125 17.8145 0.683594 18.1699 1.12109 18.1699ZM3.69141 17.7051C4.12891 17.7051 4.48438 17.3633 4.48438 16.9121C4.48438 16.4609 4.12891 16.1191 3.69141 16.1191C3.24023 16.1191 2.88477 16.4609 2.88477 16.9121C2.88477 17.3633 3.24023 17.7051 3.69141 17.7051ZM6.08398 16.584C6.53516 16.584 6.89062 16.2285 6.89062 15.7773C6.89062 15.3398 6.53516 14.9844 6.08398 14.9844C5.64648 14.9844 5.29102 15.3398 5.29102 15.7773C5.29102 16.2285 5.64648 16.584 6.08398 16.584ZM8.66797 15.9688C9.11914 15.9688 9.47461 15.6133 9.47461 15.1621C9.47461 14.7246 9.11914 14.3691 8.66797 14.3691C8.23047 14.3691 7.875 14.7246 7.875 15.1621C7.875 15.6133 8.23047 15.9688 8.66797 15.9688ZM11.252 16.584C11.7031 16.584 12.0449 16.2285 12.0449 15.7773C12.0449 15.3398 11.7031 14.9844 11.252 14.9844C10.8008 14.9844 10.459 15.3398 10.459 15.7773C10.459 16.2285 10.8008 16.584 11.252 16.584ZM13.6719 17.7051C14.123 17.7051 14.4785 17.3633 14.4785 16.9121C14.4785 16.4609 14.123 16.1191 13.6719 16.1191C13.2344 16.1191 12.8789 16.4609 12.8789 16.9121C12.8789 17.3633 13.2344 17.7051 13.6719 17.7051ZM16.2012 18.1699C16.6387 18.1699 16.9941 17.8145 16.9941 17.3633C16.9941 16.9258 16.6387 16.5703 16.2012 16.5703C15.75 16.5703 15.3945 16.9258 15.3945 17.3633C15.3945 17.8145 15.75 18.1699 16.2012 18.1699ZM18.7168 17.7051C19.168 17.7051 19.5098 17.3633 19.5098 16.9121C19.5098 16.4609 19.168 16.1191 18.7168 16.1191C18.2656 16.1191 17.9238 16.4609 17.9238 16.9121C17.9238 17.3633 18.2656 17.7051 18.7168 17.7051ZM21.1367 16.584C21.5879 16.584 21.9434 16.2285 21.9434 15.7773C21.9434 15.3398 21.5879 14.9844 21.1367 14.9844C20.6992 14.9844 20.3438 15.3398 20.3438 15.7773C20.3438 16.2285 20.6992 16.584 21.1367 16.584ZM23.7207 15.9688C24.1719 15.9688 24.5137 15.6133 24.5137 15.1621C24.5137 14.7246 24.1719 14.3691 23.7207 14.3691C23.2695 14.3691 22.9277 14.7246 22.9277 15.1621C22.9277 15.6133 23.2695 15.9688 23.7207 15.9688ZM26.3047 16.584C26.7559 16.584 27.0977 16.2285 27.0977 15.7773C27.0977 15.3398 26.7559 14.9844 26.3047 14.9844C25.8535 14.9844 25.5117 15.3398 25.5117 15.7773C25.5117 16.2285 25.8535 16.584 26.3047 16.584ZM28.7109 17.7051C29.1621 17.7051 29.5039 17.3633 29.5039 16.9121C29.5039 16.4609 29.1621 16.1191 28.7109 16.1191C28.2598 16.1191 27.918 16.4609 27.918 16.9121C27.918 17.3633 28.2598 17.7051 28.7109 17.7051ZM31.2539 18.1699C31.7051 18.1699 32.0605 17.8145 32.0605 17.3633C32.0605 16.9258 31.7051 16.5703 31.2539 16.5703C30.8164 16.5703 30.4609 16.9258 30.4609 17.3633C30.4609 17.8145 30.8164 18.1699 31.2539 18.1699Z" fill="black" fill-opacity="0.85"/>
 </g>
</svg>
