<?xml version="1.0" encoding="UTF-8"?>
<!--Generator: Apple Native CoreSVG 326-->
<!DOCTYPE svg
PUBLIC "-//W3C//DTD SVG 1.1//EN"
       "http://www.w3.org/Graphics/SVG/1.1/DTD/svg11.dtd">
<svg version="1.1" xmlns="http://www.w3.org/2000/svg" xmlns:xlink="http://www.w3.org/1999/xlink" viewBox="0 0 27.1926 32.8535">
 <g>
  <rect height="32.8535" opacity="0" width="27.1926" x="0" y="0"/>
  <path d="M12.7145 5.96094C14.3551 5.96094 15.6813 4.63477 15.6813 2.9668C15.6813 1.32617 14.3551 0 12.7145 0C11.0465 0 9.72035 1.32617 9.72035 2.9668C9.72035 4.63477 11.0465 5.96094 12.7145 5.96094ZM0.491831 32.457C1.06605 32.9492 1.95472 32.9219 2.48792 32.3203L7.35511 26.7559C7.61488 26.4551 7.76527 26.127 7.80628 25.7441L8.42152 19.7559C8.43519 19.5508 8.65394 19.4688 8.79066 19.6328L12.7145 24.1582L12.7145 31.3906C12.7145 32.1699 13.3434 32.8125 14.1364 32.8125C14.902 32.8125 15.5582 32.1699 15.5582 31.3906L15.5582 23.6934C15.5582 23.3105 15.4352 23.0508 15.2575 22.791L11.1012 16.7207L13.1246 10.6777C13.234 10.3496 13.4528 10.2266 13.7809 10.2266L24.7184 10.2266C25.484 10.2266 26.1403 9.59766 26.1403 8.81836C26.1403 8.03906 25.484 7.39648 24.7184 7.39648L8.24378 7.39648C7.09535 7.39648 6.16566 7.72461 5.23597 8.64062L2.54261 11.3613C1.64027 12.2773 2.13246 13.7676 3.3766 13.7676L5.91957 13.7676L5.37269 15.3945C5.08558 16.2695 4.94886 17.1719 4.94886 18.0605L4.94886 25.2246L0.355112 30.4609C-0.164419 31.0488-0.109731 31.9375 0.491831 32.457ZM24.7184 11.6621C25.8805 11.6621 26.8375 10.7051 26.8375 9.51562C26.8375 8.35352 25.8805 7.39648 24.7184 7.39648C23.5289 7.39648 22.5719 8.35352 22.5719 9.51562C22.5719 10.7051 23.5289 11.6621 24.7184 11.6621Z" fill="black" fill-opacity="0.85"/>
 </g>
</svg>
