<?xml version="1.0" encoding="UTF-8"?>
<!--Generator: Apple Native CoreSVG 326-->
<!DOCTYPE svg
PUBLIC "-//W3C//DTD SVG 1.1//EN"
       "http://www.w3.org/Graphics/SVG/1.1/DTD/svg11.dtd">
<svg version="1.1" xmlns="http://www.w3.org/2000/svg" xmlns:xlink="http://www.w3.org/1999/xlink" viewBox="0 0 22.5178 30.1191">
 <g>
  <rect height="30.1191" opacity="0" width="22.5178" x="0" y="0"/>
  <path d="M15.7091 6.05664C17.3634 6.05664 18.6896 4.73047 18.6896 3.07617C18.6896 1.43555 17.3634 0.109375 15.7091 0.109375C14.0548 0.109375 12.7286 1.43555 12.7286 3.07617C12.7286 4.73047 14.0548 6.05664 15.7091 6.05664ZM10.6778 30.1191C16.6388 30.1191 20.6173 26.1406 20.6173 20.1797C20.6173 17.0488 19.1271 15.2168 16.338 15.2168L14.506 15.2168C14.1915 15.2168 13.9864 15.0117 14.1095 14.6289L15.3673 10.8145C15.9415 9.06445 15.1212 7.47852 13.1798 6.98633L7.53331 5.56445C6.98643 5.42773 6.57628 5.52344 6.08409 5.81055L0.601666 8.90039C-0.0409124 9.26953-0.191303 10.2129 0.259869 10.8145C0.697369 11.4297 1.47667 11.5391 2.17393 11.1836L7.20518 8.51758L10.1446 9.29688C10.7189 9.46094 10.9376 9.85742 10.7462 10.3906L9.20128 14.7246C8.49034 16.7617 9.69346 18.498 11.6622 18.498L16.7482 18.498C17.8009 18.498 18.5392 19.127 18.5392 20.1797C18.5392 24.8965 15.4083 28.041 10.6915 28.041C5.97471 28.041 2.81651 24.8965 2.81651 20.1797C2.81651 18.5527 3.29503 17.1309 4.08799 15.9414C4.97667 14.6152 3.21299 13.5078 2.28331 14.9023C1.32628 16.3652 0.738384 18.1562 0.738384 20.1797C0.738384 26.1406 4.70323 30.1191 10.6778 30.1191ZM20.6583 30.1191C21.4923 30.1191 22.1622 29.4492 22.1622 28.6152C22.1622 27.7812 21.4923 27.1113 20.6583 27.1113C19.8243 27.1113 19.1544 27.7812 19.1544 28.6152C19.1544 29.4492 19.8243 30.1191 20.6583 30.1191Z" fill="black" fill-opacity="0.85"/>
 </g>
</svg>
