<?xml version="1.0" encoding="UTF-8"?>
<!--Generator: Apple Native CoreSVG 326-->
<!DOCTYPE svg
PUBLIC "-//W3C//DTD SVG 1.1//EN"
       "http://www.w3.org/Graphics/SVG/1.1/DTD/svg11.dtd">
<svg version="1.1" xmlns="http://www.w3.org/2000/svg" xmlns:xlink="http://www.w3.org/1999/xlink" viewBox="0 0 29.0409 34.6855">
 <g>
  <rect height="34.6855" opacity="0" width="29.0409" x="0" y="0"/>
  <path d="M12.9618 9.41992C14.6025 9.41992 15.9423 8.09375 15.9423 6.43945C15.9423 4.79883 14.6025 3.45898 12.9618 3.45898C11.3075 3.45898 9.98137 4.79883 9.98137 6.43945C9.98137 8.09375 11.3075 9.41992 12.9618 9.41992ZM5.74309 30.1875L12.1279 30.1875C12.6611 30.1875 13.1943 29.9414 13.4677 29.4219L16.3798 24.0625C16.4755 23.8574 16.7489 23.8711 16.8173 24.0762L18.3486 28.1777L12.8251 31.8555C12.1825 32.293 12.0185 33.168 12.4423 33.8379C12.8661 34.4941 13.7548 34.6719 14.4111 34.2207L20.6864 30.0645C21.3154 29.6406 21.6161 28.9707 21.4384 28.2324L17.6103 13.0156C17.4736 12.5098 17.6103 12.2363 17.9931 12.0449L27.8915 7.0957C28.6025 6.74023 28.8759 5.86523 28.5341 5.16797C28.1786 4.45703 27.331 4.15625 26.6064 4.52539L6.04387 14.8203L2.76262 11.5391C2.59856 11.375 2.42082 11.2383 2.24309 11.1152L5.42863 5.52344L4.10246 4.77148L0.178634 11.6348C-0.135819 12.1953-0.0264436 12.7969 0.4384 13.2617L4.73137 17.5684C5.11418 17.9375 5.79778 18.1426 6.50871 17.7871L11.3759 15.3398C11.7177 15.1758 12.0322 15.3262 12.1005 15.6133L13.5634 21.4922L11.2255 27.3164L5.74309 27.3164C4.93645 27.3164 4.30754 27.9453 4.30754 28.752C4.30754 29.5312 4.93645 30.1875 5.74309 30.1875ZM5.83879 5.96094C7.49309 5.96094 8.81926 4.63477 8.81926 2.98047C8.81926 1.32617 7.49309 0 5.83879 0C4.18449 0 2.85832 1.32617 2.85832 2.98047C2.85832 4.63477 4.18449 5.96094 5.83879 5.96094ZM5.83879 4.44336C4.99113 4.44336 4.3759 3.81445 4.3759 2.98047C4.3759 2.14648 4.99113 1.51758 5.83879 1.51758C6.67278 1.51758 7.30168 2.14648 7.30168 2.98047C7.30168 3.81445 6.67278 4.44336 5.83879 4.44336Z" fill="black" fill-opacity="0.85"/>
 </g>
</svg>
