<?xml version="1.0" encoding="UTF-8"?>
<!--Generator: Apple Native CoreSVG 326-->
<!DOCTYPE svg
PUBLIC "-//W3C//DTD SVG 1.1//EN"
       "http://www.w3.org/Graphics/SVG/1.1/DTD/svg11.dtd">
<svg version="1.1" xmlns="http://www.w3.org/2000/svg" xmlns:xlink="http://www.w3.org/1999/xlink" viewBox="0 0 28.2461 27.9043">
 <g>
  <rect height="27.9043" opacity="0" width="28.2461" x="0" y="0"/>
  <path d="M13.9453 27.8906C21.6426 27.8906 27.8906 21.6426 27.8906 13.9453C27.8906 6.24805 21.6426 0 13.9453 0C6.24805 0 0 6.24805 0 13.9453C0 21.6426 6.24805 27.8906 13.9453 27.8906ZM13.9453 25.5664C7.51953 25.5664 2.32422 20.3711 2.32422 13.9453C2.32422 7.51953 7.51953 2.32422 13.9453 2.32422C20.3711 2.32422 25.5664 7.51953 25.5664 13.9453C25.5664 20.3711 20.3711 25.5664 13.9453 25.5664Z" fill="black" fill-opacity="0.85"/>
  <path d="M16.707 8.44922C17.6094 8.44922 18.334 7.72461 18.334 6.80859C18.334 5.89258 17.6094 5.16797 16.707 5.16797C15.791 5.16797 15.0527 5.89258 15.0527 6.80859C15.0527 7.72461 15.791 8.44922 16.707 8.44922ZM13.9043 21.752C17.1992 21.752 19.4004 19.5508 19.4004 16.2559C19.4004 14.5195 18.5938 13.5215 17.0488 13.5215L16.0234 13.5215C15.8594 13.5215 15.75 13.3984 15.8184 13.1934L16.502 11.0742C16.8301 10.1172 16.3652 9.22852 15.2988 8.96875L12.168 8.17578C11.8809 8.10742 11.6484 8.14844 11.3887 8.3125L8.35352 10.0215C7.98438 10.2266 7.91602 10.7324 8.16211 11.0742C8.39453 11.416 8.83203 11.4844 9.21484 11.2793L12.0039 9.81641L13.6309 10.2402C13.9453 10.3223 14.0547 10.5547 13.959 10.8555L13.0977 13.2344C12.7012 14.3691 13.3848 15.3262 14.4512 15.3262L17.2676 15.3262C17.8555 15.3262 18.2656 15.668 18.2656 16.2559C18.2656 18.8672 16.5293 20.6172 13.918 20.6172C11.3066 20.6172 9.55664 18.8672 9.55664 16.2422C9.55664 15.3672 9.83008 14.5742 10.2539 13.918C10.7461 13.1934 9.78906 12.5918 9.2832 13.3438C8.75 14.1641 8.42188 15.1484 8.42188 16.2422C8.42188 19.5508 10.623 21.752 13.9043 21.752ZM19.4414 21.752C19.8926 21.752 20.2617 21.3828 20.2617 20.918C20.2617 20.4531 19.8926 20.084 19.4414 20.084C18.9766 20.084 18.6074 20.4531 18.6074 20.918C18.6074 21.3828 18.9766 21.752 19.4414 21.752Z" fill="black" fill-opacity="0.85"/>
 </g>
</svg>
