<?xml version="1.0" encoding="UTF-8"?>
<!--Generator: Apple Native CoreSVG 326-->
<!DOCTYPE svg
PUBLIC "-//W3C//DTD SVG 1.1//EN"
       "http://www.w3.org/Graphics/SVG/1.1/DTD/svg11.dtd">
<svg version="1.1" xmlns="http://www.w3.org/2000/svg" xmlns:xlink="http://www.w3.org/1999/xlink" viewBox="0 0 28.2461 27.9043">
 <g>
  <rect height="27.9043" opacity="0" width="28.2461" x="0" y="0"/>
  <path d="M13.9453 27.8906C21.6426 27.8906 27.8906 21.6426 27.8906 13.9453C27.8906 6.24805 21.6426 0 13.9453 0C6.24805 0 0 6.24805 0 13.9453C0 21.6426 6.24805 27.8906 13.9453 27.8906ZM13.9453 25.5664C7.51953 25.5664 2.32422 20.3711 2.32422 13.9453C2.32422 7.51953 7.51953 2.32422 13.9453 2.32422C20.3711 2.32422 25.5664 7.51953 25.5664 13.9453C25.5664 20.3711 20.3711 25.5664 13.9453 25.5664Z" fill="black" fill-opacity="0.85"/>
  <path d="M13.7539 9.93945C14.6699 9.93945 15.3945 9.21484 15.3945 8.3125C15.3945 7.39648 14.6699 6.6582 13.7539 6.6582C12.8379 6.6582 12.1133 7.39648 12.1133 8.3125C12.1133 9.21484 12.8379 9.93945 13.7539 9.93945ZM14.5605 23.6387L18.0195 21.3418C18.375 21.1094 18.5391 20.7402 18.4297 20.3438L16.3242 11.9355C16.2559 11.6484 16.3242 11.4844 16.5293 11.4023L21.3965 8.96875C21.8066 8.76367 21.9434 8.28516 21.752 7.88867C21.5469 7.50586 21.082 7.35547 20.6855 7.54688L9.93945 12.9336L8.12109 11.1016C8.03906 11.0195 7.95703 10.9512 7.84766 10.8828L9.59766 7.80664L8.85938 7.36914L6.69922 11.1699C6.52148 11.4707 6.57617 11.8125 6.83594 12.0723L9.21484 14.4375C9.41992 14.6562 9.80273 14.7656 10.1855 14.5605L12.8789 13.2207C13.0703 13.125 13.248 13.207 13.2754 13.3711L14.0957 16.6113L12.7832 19.8242L9.77539 19.8242C9.33789 19.8242 8.98242 20.166 8.98242 20.6172C8.98242 21.0547 9.33789 21.4102 9.77539 21.4102L13.2891 21.4102C13.5898 21.4102 13.877 21.2734 14.0273 20.9863L15.6406 18.0332C15.6953 17.9238 15.8184 17.9238 15.873 18.0469L16.7344 20.3027L13.6719 22.3262C13.3301 22.5586 13.2207 23.0645 13.4668 23.4336C13.6992 23.7891 14.1777 23.8848 14.5605 23.6387ZM9.83008 8.03906C10.7324 8.03906 11.4707 7.30078 11.4707 6.38477C11.4707 5.46875 10.7324 4.74414 9.83008 4.74414C8.90039 4.74414 8.16211 5.46875 8.16211 6.38477C8.16211 7.30078 8.90039 8.03906 9.83008 8.03906ZM9.83008 7.19141C9.36523 7.19141 9.02344 6.84961 9.02344 6.38477C9.02344 5.93359 9.36523 5.5918 9.83008 5.5918C10.2949 5.5918 10.623 5.93359 10.623 6.38477C10.623 6.84961 10.2949 7.19141 9.83008 7.19141Z" fill="black" fill-opacity="0.85"/>
 </g>
</svg>
