<?xml version="1.0" encoding="UTF-8"?>
<!--Generator: Apple Native CoreSVG 326-->
<!DOCTYPE svg
PUBLIC "-//W3C//DTD SVG 1.1//EN"
       "http://www.w3.org/Graphics/SVG/1.1/DTD/svg11.dtd">
<svg version="1.1" xmlns="http://www.w3.org/2000/svg" xmlns:xlink="http://www.w3.org/1999/xlink" viewBox="0 0 28.2461 27.9043">
 <g>
  <rect height="27.9043" opacity="0" width="28.2461" x="0" y="0"/>
  <path d="M13.9453 27.8906C21.6426 27.8906 27.8906 21.6289 27.8906 13.9453C27.8906 6.24805 21.6426 0 13.9453 0C6.26172 0 0 6.24805 0 13.9453C0 21.6289 6.26172 27.8906 13.9453 27.8906Z" fill="black" fill-opacity="0.85"/>
  <path d="M13.9316 7.83398C12.9883 7.83398 12.2227 7.06836 12.2227 6.11133C12.2227 5.18164 12.9883 4.42969 13.9316 4.42969C14.8613 4.42969 15.627 5.18164 15.627 6.11133C15.627 7.06836 14.8613 7.83398 13.9316 7.83398ZM4.58008 14.8203C4.58008 14.5332 4.79883 14.3418 5.05859 14.3418L5.71484 14.3418L5.71484 12.7285C5.71484 12.4141 5.91992 12.209 6.2207 12.209L6.69922 12.209C7 12.209 7.20508 12.4141 7.20508 12.7285L7.20508 14.3418L8.92773 14.3418L11.2246 9.67969C11.5664 8.98242 12.209 8.58594 13.002 8.58594L14.8613 8.58594C15.668 8.58594 16.2969 8.98242 16.6523 9.67969L18.9492 14.3418L20.6445 14.3418L20.6445 12.7285C20.6445 12.4141 20.8496 12.209 21.1504 12.209L21.6289 12.209C21.9297 12.209 22.1348 12.4141 22.1348 12.7285L22.1348 14.3418L22.791 14.3418C23.0508 14.3418 23.2695 14.5332 23.2695 14.8203C23.2695 15.0938 23.0508 15.2988 22.791 15.2988L22.1348 15.2988L22.1348 16.9258C22.1348 17.2266 21.9297 17.4453 21.6289 17.4453L21.1504 17.4453C20.8496 17.4453 20.6445 17.2266 20.6445 16.9258L20.6445 15.2988L19.4141 15.2988L19.4824 15.4766C19.6738 15.873 19.5234 16.3379 19.1543 16.5156C18.7715 16.7207 18.293 16.543 18.1016 16.1602L17.6777 15.2988L10.1719 15.2988L9.74805 16.1602C9.55664 16.543 9.0918 16.7207 8.69531 16.5156C8.33984 16.3379 8.18945 15.873 8.36719 15.4766L8.43555 15.2988L7.20508 15.2988L7.20508 16.9258C7.20508 17.2266 7 17.4453 6.69922 17.4453L6.2207 17.4453C5.91992 17.4453 5.71484 17.2266 5.71484 16.9258L5.71484 15.2988L5.05859 15.2988C4.79883 15.2988 4.58008 15.0938 4.58008 14.8203ZM10.6504 14.3418L17.1992 14.3418L15.9277 11.7578C15.832 11.5801 15.6406 11.6484 15.6406 11.7715L15.6406 13.6582L12.2227 13.6582L12.2227 11.7715C12.2227 11.6348 12.0312 11.5801 11.9355 11.7578ZM11.8945 15.9824L15.9688 15.9824L16.8984 18.5938C16.9121 18.6758 16.9258 18.7305 16.9395 18.7988L17.6777 22.2578C17.7871 22.791 17.5 23.1328 17.1309 23.2285C16.7344 23.3242 16.2832 23.1465 16.1602 22.5859L15.4355 19.25L13.9316 16.4746L12.4277 19.25L11.6895 22.5859C11.5664 23.1328 11.1426 23.3242 10.7734 23.2422C10.3906 23.1738 10.0625 22.8047 10.1855 22.2578L10.9102 18.7988C10.9238 18.7305 10.9375 18.6895 10.9648 18.5938Z" fill="white"/>
 </g>
</svg>
