<?xml version="1.0" encoding="UTF-8"?>
<!--Generator: Apple Native CoreSVG 326-->
<!DOCTYPE svg
PUBLIC "-//W3C//DTD SVG 1.1//EN"
       "http://www.w3.org/Graphics/SVG/1.1/DTD/svg11.dtd">
<svg version="1.1" xmlns="http://www.w3.org/2000/svg" xmlns:xlink="http://www.w3.org/1999/xlink" viewBox="0 0 23.591 32.5254">
 <g>
  <rect height="32.5254" opacity="0" width="23.591" x="0" y="0"/>
  <path d="M10.647 5.97461C12.274 5.97461 13.6275 4.63477 13.6275 2.99414C13.6275 1.35352 12.274 3.55271e-15 10.647 3.55271e-15C9.00642 3.55271e-15 7.6529 1.35352 7.6529 2.99414C7.6529 4.63477 9.00642 5.97461 10.647 5.97461ZM1.41853 9.99414L5.86189 9.99414C6.06696 9.99414 6.2447 10.1582 6.21735 10.3633L5.79353 16.1328C5.64314 18.1973 6.84626 19.4824 8.59626 19.8379L14.3111 21.041L15.5416 27.166C15.7056 28 16.5533 28.3965 17.1822 28.2734C17.9478 28.123 18.44 27.3711 18.2896 26.6055L16.8951 19.5645C16.7857 19.0176 16.3209 18.6348 15.8013 18.457L11.3853 17.0762L11.7681 11.7441C11.8092 11.334 12.192 11.1836 12.5064 11.4434L14.5982 13.1797C14.858 13.3848 15.1588 13.5078 15.5006 13.5078L21.8443 13.5078C22.6236 13.5078 23.2388 12.8789 23.2388 12.0996C23.2388 11.3203 22.6236 10.7051 21.8443 10.7051L16.0064 10.7051L12.9576 8.16211C12.192 7.5332 11.4947 7.17773 10.4009 7.17773L3.31892 7.17773L4.89118 1.95508C5.10993 1.20313 4.6861 0.410156 3.94782 0.191406C3.19587-0.0273437 2.38923 0.396484 2.17048 1.14844L0.0786828 8.17578C-0.194755 9.10547 0.242745 9.99414 1.41853 9.99414ZM7.36579 32.4023C8.03571 32.6074 8.8697 32.3066 9.12946 31.4727L11.2213 24.4863C11.2759 24.2949 11.2896 24.0898 11.2896 23.8711L11.2896 21.752L8.3365 21.123C8.26814 21.1094 8.21345 21.1094 8.15876 21.0957L8.45954 23.8711L6.42243 30.666C6.20368 31.3906 6.62751 32.1836 7.36579 32.4023Z" fill="black" fill-opacity="0.85"/>
 </g>
</svg>
