<?xml version="1.0" encoding="UTF-8"?>
<!--Generator: Apple Native CoreSVG 326-->
<!DOCTYPE svg
PUBLIC "-//W3C//DTD SVG 1.1//EN"
       "http://www.w3.org/Graphics/SVG/1.1/DTD/svg11.dtd">
<svg version="1.1" xmlns="http://www.w3.org/2000/svg" xmlns:xlink="http://www.w3.org/1999/xlink" viewBox="0 0 28.2461 27.9043">
 <g>
  <rect height="27.9043" opacity="0" width="28.2461" x="0" y="0"/>
  <path d="M13.9453 27.8906C21.6426 27.8906 27.8906 21.6426 27.8906 13.9453C27.8906 6.24805 21.6426 0 13.9453 0C6.24805 0 0 6.24805 0 13.9453C0 21.6426 6.24805 27.8906 13.9453 27.8906ZM13.9453 25.5664C7.51953 25.5664 2.32422 20.3711 2.32422 13.9453C2.32422 7.51953 7.51953 2.32422 13.9453 2.32422C20.3711 2.32422 25.5664 7.51953 25.5664 13.9453C25.5664 20.3711 20.3711 25.5664 13.9453 25.5664Z" fill="black" fill-opacity="0.85"/>
  <path d="M13.9316 11.498C14.6016 11.498 15.1074 11.5254 15.4082 11.5801C15.7773 11.6484 15.9414 11.8535 15.9551 12.2363C15.9688 12.7422 15.9551 14.5332 15.832 15.3398C15.6816 16.1465 14.7656 20.0293 14.7109 20.1797C14.5742 20.6309 14.8613 21.0273 15.3125 21.0273C15.6543 21.0273 15.8867 20.8359 15.9961 20.4395C16.2012 19.6465 16.8438 16.9531 17.0625 16.3242C17.2266 15.832 17.3223 15.7227 17.5273 15.7227C17.7324 15.7227 17.8418 15.8457 17.9922 16.3242C18.2109 16.9258 18.8809 19.6328 19.0586 20.4395C19.168 20.8496 19.3867 21.0273 19.7422 21.0273C20.1797 21.0273 20.4531 20.6172 20.3301 20.1934C20.2891 20.0293 19.3594 16.1465 19.2227 15.3398C19.0996 14.5332 19.1133 12.7422 19.1133 12.209C19.1133 11.8672 19.2637 11.6211 19.5371 11.5664C19.8516 11.4707 22.2988 11.2383 22.6543 11.1016C22.9551 11.0059 23.1465 10.7598 23.1465 10.459C23.1465 10.0898 22.8594 9.78906 22.5449 9.78906C22.4355 9.78906 22.3262 9.83008 22.2168 9.84375C21.1914 10.0352 19.0586 10.1855 17.5273 10.2676C16.2695 10.3086 14.8477 10.3359 13.9727 10.3359C13.0703 10.3359 11.6211 10.3086 10.3223 10.2676C8.81836 10.1992 6.6582 10.0488 5.61914 9.84375C5.53711 9.83008 5.42773 9.78906 5.31836 9.78906C4.99023 9.78906 4.73047 10.0898 4.73047 10.459C4.73047 10.7871 4.92188 11.0605 5.22266 11.1016C5.57812 11.1973 8.01172 11.498 8.3125 11.5664C8.58594 11.6211 8.76367 11.8672 8.76367 12.209C8.76367 12.7422 8.76367 14.5332 8.62695 15.3398C8.47656 16.1465 7.56055 20.0293 7.50586 20.1797C7.38281 20.6172 7.66992 21.0273 8.10742 21.0273C8.46289 21.0273 8.66797 20.8496 8.80469 20.4395C9.00977 19.6465 9.65234 16.9531 9.88477 16.3242C10.0352 15.8457 10.1309 15.7227 10.3223 15.7227C10.5547 15.7227 10.6641 15.8457 10.8145 16.3105C11.0059 16.9258 11.7031 19.6328 11.8809 20.4395C11.9629 20.8359 12.1816 21.0273 12.5371 21.0273C12.9883 21.0273 13.2754 20.6309 13.1387 20.1934C13.0977 20.0293 12.168 16.1465 12.0312 15.3398C11.9082 14.5332 11.9082 12.7422 11.9219 12.2363C11.9355 11.8535 12.0859 11.6484 12.4551 11.5801C12.8242 11.5117 13.4121 11.4707 13.9316 11.498ZM10.3223 9.63867C11.1289 9.63867 11.7715 9.00977 11.7715 8.20312C11.7715 7.41016 11.1426 6.76758 10.3223 6.76758C9.5293 6.76758 8.88672 7.41016 8.88672 8.20312C8.88672 9.00977 9.5293 9.63867 10.3223 9.63867ZM17.5273 9.63867C18.3203 9.63867 18.9766 8.99609 18.9766 8.20312C18.9766 7.41016 18.3203 6.76758 17.5273 6.76758C16.7207 6.76758 16.0918 7.41016 16.0918 8.20312C16.0918 9.00977 16.7344 9.63867 17.5273 9.63867Z" fill="black" fill-opacity="0.85"/>
 </g>
</svg>
