<?xml version="1.0" encoding="UTF-8"?>
<!--Generator: Apple Native CoreSVG 326-->
<!DOCTYPE svg
PUBLIC "-//W3C//DTD SVG 1.1//EN"
       "http://www.w3.org/Graphics/SVG/1.1/DTD/svg11.dtd">
<svg version="1.1" xmlns="http://www.w3.org/2000/svg" xmlns:xlink="http://www.w3.org/1999/xlink" viewBox="0 0 26.5737 27.8633">
 <g>
  <rect height="27.8633" opacity="0" width="26.5737" x="0" y="0"/>
  <path d="M22.5359 7.48535C24.5866 7.48535 26.2136 5.77637 26.2136 3.79395C26.2136 1.72949 24.5866 0.0615234 22.5359 0.0615234C20.4714 0.0615234 18.8171 1.72949 18.8171 3.79395C18.8171 5.83105 20.4714 7.48535 22.5359 7.48535ZM0.510477 27.0498C1.20774 27.7881 2.42454 27.7334 3.29954 26.8311L9.17845 20.7607C9.36985 20.5557 9.52024 20.501 9.82102 20.624L14.4148 22.3604C17.3679 23.4951 20.1433 22.5244 21.4421 20.1729L24.3952 14.7998C25.5437 12.708 25.1745 10.5479 23.1784 9.48145C21.2507 8.42871 19.2546 9.22168 18.0788 11.3682L14.2507 18.3545L10.9831 17.165C9.36985 16.5771 8.03001 16.7686 6.74485 18.1084L0.633523 24.4248C-0.227805 25.2998-0.145773 26.3936 0.510477 27.0498Z" fill="black" fill-opacity="0.85"/>
  <path d="M4.89915 13.9932C5.54173 13.9932 6.04759 13.4873 6.04759 12.8311L6.04759 6.52832L8.53587 6.52832C9.69798 6.52832 10.0945 5.36621 9.38352 4.57324L5.71946 0.430664C5.19993-0.143555 4.53001-0.143555 4.03782 0.430664L0.360086 4.57324C-0.391867 5.40723 0.10032 6.52832 1.22141 6.52832L3.72337 6.52832L3.72337 12.8311C3.72337 13.4873 4.2429 13.9932 4.89915 13.9932Z" fill="black" fill-opacity="0.85"/>
 </g>
</svg>
