<?xml version="1.0" encoding="UTF-8"?>
<!--Generator: Apple Native CoreSVG 326-->
<!DOCTYPE svg
PUBLIC "-//W3C//DTD SVG 1.1//EN"
       "http://www.w3.org/Graphics/SVG/1.1/DTD/svg11.dtd">
<svg version="1.1" xmlns="http://www.w3.org/2000/svg" xmlns:xlink="http://www.w3.org/1999/xlink" viewBox="0 0 28.2461 27.9043">
 <g>
  <rect height="27.9043" opacity="0" width="28.2461" x="0" y="0"/>
  <path d="M13.9453 27.8906C21.6426 27.8906 27.8906 21.6289 27.8906 13.9453C27.8906 6.24805 21.6426 0 13.9453 0C6.26172 0 0 6.24805 0 13.9453C0 21.6289 6.26172 27.8906 13.9453 27.8906Z" fill="black" fill-opacity="0.85"/>
  <path d="M5.93359 13.3164C5.5918 12.9746 5.57812 12.4414 5.93359 12.0996C6.26172 11.7441 6.82227 11.7441 7.16406 12.0996L9.07812 14.0137L11.0469 11.6211C11.375 11.2246 11.8672 10.9785 12.4004 10.9785L15.4766 10.9785C16.0098 10.9785 16.502 11.2246 16.8164 11.6211L18.7852 14.0137L20.6992 12.0996C21.041 11.7441 21.6016 11.7441 21.9297 12.0996C22.2852 12.4414 22.2715 12.9746 21.9297 13.3164L19.332 15.9414C18.9766 16.2969 18.3887 16.2969 18.0469 15.8594L16.3789 13.8496C16.2832 13.7266 16.1191 13.7812 16.1191 13.9453L16.1191 17.4043L19.0449 17.0625C20.084 16.9531 20.3984 18.4434 19.4277 18.7441L16.0781 19.8516C16.2422 20.5488 15.6543 21.1367 14.957 20.9316L13.9453 20.5898L12.9062 20.9316C12.2227 21.1367 11.6211 20.5488 11.7852 19.8516L8.44922 18.7441C7.47852 18.4434 7.80664 16.9531 8.81836 17.0625L11.7578 17.4043L11.7578 13.9453C11.7578 13.7812 11.5801 13.7266 11.4844 13.8496L9.84375 15.8594C9.47461 16.2969 8.90039 16.2969 8.54492 15.9414ZM13.9453 10.1445C12.9883 10.1445 12.2227 9.39258 12.2227 8.43555C12.2227 7.50586 12.9883 6.74023 13.9453 6.74023C14.875 6.74023 15.6406 7.50586 15.6406 8.43555C15.6406 9.39258 14.875 10.1445 13.9453 10.1445Z" fill="white"/>
 </g>
</svg>
