<?xml version="1.0" encoding="UTF-8"?>
<!--Generator: Apple Native CoreSVG 326-->
<!DOCTYPE svg
PUBLIC "-//W3C//DTD SVG 1.1//EN"
       "http://www.w3.org/Graphics/SVG/1.1/DTD/svg11.dtd">
<svg version="1.1" xmlns="http://www.w3.org/2000/svg" xmlns:xlink="http://www.w3.org/1999/xlink" viewBox="0 0 34.1454 27.7402">
 <g>
  <rect height="27.7402" opacity="0" width="34.1454" x="0" y="0"/>
  <path d="M26.3286 7.42383C28.3657 7.42383 30.0063 5.71484 30.0063 3.73242C30.0063 1.66797 28.3657 0 26.3286 0C24.2504 0 22.6098 1.66797 22.6098 3.73242C22.6098 5.76953 24.2504 7.42383 26.3286 7.42383ZM4.28949 26.9883C5.00043 27.7266 6.21722 27.6719 7.09222 26.7695L12.9711 20.6992C13.1625 20.4941 13.2993 20.4395 13.6137 20.5625L18.2075 22.2988C21.1469 23.4336 23.936 22.4629 25.2211 20.1113L28.1743 14.7383C29.3227 12.6465 28.9672 10.4863 26.9711 9.41992C25.0434 8.36719 23.0336 9.16016 21.8715 11.3066L18.0434 18.293L14.7758 17.1035C13.1625 16.5156 11.809 16.707 10.5239 18.0469L4.41254 24.3633C3.56488 25.2383 3.64691 26.332 4.28949 26.9883Z" fill="black" fill-opacity="0.85"/>
  <path d="M0.297303 4.41602L4.74066 10.0762C4.93207 10.3223 5.23285 10.377 5.53363 10.2129C6.58637 9.65234 8.10394 9.26953 9.2934 9.26953C10.4965 9.26953 12.0141 9.65234 13.0668 10.2129C13.3539 10.377 13.6684 10.3223 13.8598 10.0762L18.3032 4.41602C18.7543 3.8418 18.686 3.25391 18.1254 2.83008C16.3344 1.44922 12.9164 0.382812 9.2934 0.382812C5.68402 0.382812 2.26605 1.44922 0.461365 2.83008C-0.08551 3.25391-0.153869 3.8418 0.297303 4.41602ZM4.90472 13.3711C4.39887 12.7148 4.18012 12.0996 4.18012 11.4297C4.18012 9.88477 5.43793 9.50195 5.43793 8.58594C5.43793 7.66992 4.18012 7.30078 4.18012 5.72852C4.18012 5.07227 4.39887 4.4707 4.9184 3.80078C5.47894 3.10352 6.49066 3.8418 5.94379 4.56641C5.57465 5.07227 5.47894 5.35938 5.47894 5.72852C5.47894 6.83594 6.72308 7.13672 6.72308 8.58594C6.72308 10.0488 5.47894 10.3359 5.47894 11.4297C5.47894 11.8262 5.57465 12.0996 5.94379 12.6055C6.49066 13.3164 5.46527 14.0547 4.90472 13.3711ZM8.76019 13.3711C8.25433 12.7148 8.03558 12.0996 8.03558 11.4297C8.03558 9.88477 9.27972 9.50195 9.27972 8.58594C9.27972 7.66992 8.03558 7.30078 8.03558 5.72852C8.03558 5.07227 8.24066 4.4707 8.76019 3.80078C9.32074 3.10352 10.3461 3.8418 9.79926 4.56641C9.43012 5.07227 9.33441 5.35938 9.33441 5.72852C9.33441 6.83594 10.5649 7.13672 10.5649 8.58594C10.5649 10.0488 9.33441 10.3359 9.33441 11.4297C9.33441 11.8262 9.43012 12.0996 9.79926 12.6055C10.3325 13.3164 9.32074 14.0547 8.76019 13.3711ZM12.6293 13.3711C12.1098 12.7148 11.9047 12.0996 11.9047 11.4297C11.9047 9.88477 13.1489 9.50195 13.1489 8.58594C13.1489 7.66992 11.9047 7.30078 11.9047 5.72852C11.9047 5.07227 12.1098 4.4707 12.6293 3.80078C13.1899 3.10352 14.2153 3.8418 13.6684 4.56641C13.2856 5.07227 13.2036 5.35938 13.2036 5.72852C13.2036 6.83594 14.434 7.13672 14.434 8.58594C14.434 10.0488 13.2036 10.3359 13.2036 11.4297C13.2036 11.8262 13.2856 12.0996 13.6547 12.6055C14.2016 13.3164 13.1762 14.0547 12.6293 13.3711Z" fill="black" fill-opacity="0.85"/>
 </g>
</svg>
