<?xml version="1.0" encoding="UTF-8"?>
<!--Generator: Apple Native CoreSVG 326-->
<!DOCTYPE svg
PUBLIC "-//W3C//DTD SVG 1.1//EN"
       "http://www.w3.org/Graphics/SVG/1.1/DTD/svg11.dtd">
<svg version="1.1" xmlns="http://www.w3.org/2000/svg" xmlns:xlink="http://www.w3.org/1999/xlink" viewBox="0 0 19.7006 36.873">
 <g>
  <rect height="36.873" opacity="0" width="19.7006" x="0" y="0"/>
  <path d="M15.1892 9.65234C16.8298 9.65234 18.156 8.3125 18.156 6.64453C18.156 5.01758 16.8298 3.67773 15.1892 3.67773C13.5212 3.67773 12.1813 5.01758 12.1813 6.64453C12.1813 8.3125 13.5212 9.65234 15.1892 9.65234ZM8.29853 36.7227C9.05048 36.7227 9.67939 36.1074 9.67939 35.3418L9.67939 28.5195L12.8786 23.8027C13.0017 23.6113 13.2751 23.666 13.3024 23.9121L13.7946 28.123C13.822 28.3555 13.863 28.4785 13.9724 28.7383L16.6657 35.834C16.9938 36.6953 17.7868 36.873 18.4294 36.6406C19.072 36.3945 19.5642 35.7383 19.236 34.8633L16.5837 27.8086L16.5837 14.793C16.5837 13.3301 15.9685 11.8125 14.5602 11.2383L13.6989 10.8828C12.113 10.2266 10.6227 10.418 9.2829 11.375L6.04267 13.7129L2.41962 12.1816L9.61103 2.21484L12.0036 2.21484C12.6188 2.21484 13.1247 1.70898 13.1247 1.10742C13.1247 0.478516 12.6188 0 12.0036 0L9.73408 0C9.48798 0 9.24189 0.109375 9.0915 0.314453L0.286811 12.5098C-0.191705 13.166-0.0823301 14.123 0.696967 14.4512L5.67353 16.584C5.89228 16.666 6.04267 16.6797 6.35712 16.6797L9.65204 16.6797C10.1716 16.6797 10.3493 17.0215 10.3493 17.4043L10.3493 21.1914L7.05439 27.4395C6.93134 27.6719 6.904 27.8496 6.904 28.1094L6.904 35.3418C6.904 36.1074 7.51923 36.7227 8.29853 36.7227Z" fill="black" fill-opacity="0.85"/>
 </g>
</svg>
