<?xml version="1.0" encoding="UTF-8"?>
<!--Generator: Apple Native CoreSVG 326-->
<!DOCTYPE svg
PUBLIC "-//W3C//DTD SVG 1.1//EN"
       "http://www.w3.org/Graphics/SVG/1.1/DTD/svg11.dtd">
<svg version="1.1" xmlns="http://www.w3.org/2000/svg" xmlns:xlink="http://www.w3.org/1999/xlink" viewBox="0 0 44.4967 27.7402">
 <g>
  <rect height="27.7402" opacity="0" width="44.4967" x="0" y="0"/>
  <path d="M36.5765 7.42383C38.6272 7.42383 40.2679 5.71484 40.2679 3.73242C40.2679 1.66797 38.6272 0 36.5765 0C34.512 0 32.8577 1.66797 32.8577 3.73242C32.8577 5.76953 34.512 7.42383 36.5765 7.42383ZM14.5511 26.9883C15.262 27.7266 16.4788 27.6719 17.3401 26.7695L23.2327 20.6992C23.4241 20.4941 23.5608 20.4395 23.8616 20.5625L28.4554 22.2988C31.4085 23.4336 34.1839 22.4629 35.4827 20.1113L38.4358 14.7383C39.5843 12.6465 39.2151 10.4863 37.2327 9.41992C35.2913 8.36719 33.2952 9.16016 32.1331 11.3066L28.2913 18.293L25.0374 17.1035C23.4104 16.5156 22.0706 16.707 20.7854 18.0469L14.6741 24.3633C13.8265 25.2383 13.9085 26.332 14.5511 26.9883Z" fill="black" fill-opacity="0.85"/>
  <path d="M0.236614 4.40234L3.95536 9.14648C4.11943 9.36523 4.37919 9.40625 4.61161 9.26953C5.50029 8.80469 6.77177 8.49023 7.76982 8.49023C8.78154 8.49023 10.053 8.80469 10.9143 9.26953C11.1741 9.40625 11.4339 9.36523 11.5843 9.14648L15.3167 4.40234C15.6858 3.92383 15.6175 3.44531 15.18 3.08984C13.6624 1.92773 10.7913 1.03906 7.76982 1.03906C4.762 1.03906 1.89091 1.92773 0.387005 3.08984C-0.0778388 3.44531-0.118854 3.92383 0.236614 4.40234ZM4.09208 11.9219C3.66825 11.3613 3.49052 10.8418 3.49052 10.2812C3.49052 8.99609 4.52958 8.66797 4.52958 7.91602C4.52958 7.15039 3.49052 6.83594 3.49052 5.50977C3.49052 4.96289 3.66825 4.44336 4.09208 3.89648C4.5706 3.32227 5.43193 3.9375 4.96708 4.53906C4.6663 4.96289 4.58427 5.19531 4.58427 5.50977C4.58427 6.43945 5.60966 6.69922 5.60966 7.91602C5.60966 9.11914 4.58427 9.39258 4.58427 10.2812C4.58427 10.6367 4.6663 10.8418 4.96708 11.2793C5.41825 11.8672 4.5706 12.4961 4.09208 11.9219ZM7.30497 11.9219C6.90849 11.3613 6.71708 10.8418 6.71708 10.2812C6.71708 8.99609 7.75615 8.66797 7.75615 7.91602C7.75615 7.15039 6.71708 6.83594 6.71708 5.50977C6.71708 4.96289 6.89482 4.44336 7.30497 3.89648C7.78349 3.32227 8.65849 3.9375 8.20732 4.53906C7.89286 4.96289 7.81083 5.19531 7.81083 5.50977C7.81083 6.43945 8.8499 6.69922 8.8499 7.91602C8.8499 9.11914 7.81083 9.39258 7.81083 10.2812C7.81083 10.6367 7.89286 10.8418 8.19365 11.2793C8.64482 11.8672 7.78349 12.4961 7.30497 11.9219ZM10.5589 11.9219C10.1351 11.3613 9.94365 10.8418 9.94365 10.2812C9.94365 8.99609 10.9964 8.66797 10.9964 7.91602C10.9964 7.15039 9.94365 6.83594 9.94365 5.50977C9.94365 4.96289 10.1214 4.44336 10.5726 3.89648C11.0374 3.32227 11.8851 3.9375 11.4339 4.53906C11.1331 4.96289 11.0374 5.19531 11.0374 5.50977C11.0374 6.43945 12.0765 6.69922 12.0765 7.91602C12.0765 9.11914 11.0374 9.39258 11.0374 10.2812C11.0374 10.6367 11.1331 10.8418 11.4202 11.2793C11.8851 11.8672 11.0237 12.4961 10.5589 11.9219ZM20.471 5.38672C20.471 5.90625 20.8675 6.27539 21.3323 6.27539L25.0511 6.27539L25.0511 8.17578C25.0511 9.02344 25.9261 9.39258 26.555 8.81836L29.6722 6.04297C30.1233 5.66016 30.096 5.1543 29.6722 4.78516L26.555 1.98242C25.9534 1.43555 25.0511 1.76367 25.0511 2.625L25.0511 4.52539L21.3323 4.52539C20.8538 4.52539 20.471 4.92188 20.471 5.38672ZM17.9143 6.80859C17.4222 6.80859 17.053 7.19141 17.053 7.69727L17.053 11.4023L15.1526 11.4023C14.2366 11.4023 13.9358 12.291 14.4827 12.8926L17.2991 16.0234C17.6956 16.4336 18.1878 16.4746 18.5706 16.0371L21.3323 12.8652C21.8792 12.2363 21.5511 11.4023 20.7034 11.4023L18.803 11.4023L18.803 7.69727C18.803 7.20508 18.3792 6.82227 17.9143 6.80859Z" fill="black" fill-opacity="0.85"/>
 </g>
</svg>
