<?xml version="1.0" encoding="UTF-8"?>
<!--Generator: Apple Native CoreSVG 326-->
<!DOCTYPE svg
PUBLIC "-//W3C//DTD SVG 1.1//EN"
       "http://www.w3.org/Graphics/SVG/1.1/DTD/svg11.dtd">
<svg version="1.1" xmlns="http://www.w3.org/2000/svg" xmlns:xlink="http://www.w3.org/1999/xlink" viewBox="0 0 43.7769 38.8691">
 <g>
  <rect height="38.8691" opacity="0" width="43.7769" x="0" y="0"/>
  <path d="M7.20484 12.9883C5.15405 12.9883 3.51343 11.2793 3.51343 9.29688C3.51343 7.23242 5.15405 5.56445 7.20484 5.56445C9.26929 5.56445 10.9236 7.23242 10.9236 9.29688C10.9236 11.334 9.26929 12.9883 7.20484 12.9883ZM29.2302 32.5527C28.5193 33.291 27.3025 33.2363 26.4412 32.334L20.5486 26.2637C20.3572 26.0586 20.2205 26.0039 19.9197 26.127L15.3259 27.8633C12.3728 28.998 9.59741 28.0273 8.29859 25.6758L5.34546 20.3027C4.19702 18.2109 4.56616 16.0508 6.54859 14.9844C8.48999 13.9316 10.4861 14.7246 11.6482 16.8711L15.49 23.8574L18.7439 22.668C20.3572 22.0801 21.7107 22.2715 22.9959 23.6113L29.1072 29.9277C29.9548 30.8027 29.8728 31.8965 29.2302 32.5527Z" fill="black" fill-opacity="0.85"/>
  <path d="M28.4646 9.9668L32.1697 14.7109C32.3474 14.9297 32.5935 14.9707 32.8396 14.834C33.7283 14.3691 34.9861 14.0547 35.9841 14.0547C36.9959 14.0547 38.281 14.3691 39.1423 14.834C39.3884 14.9707 39.6619 14.9297 39.8123 14.7109L43.5447 9.9668C43.9001 9.48828 43.8455 9.00977 43.3943 8.6543C41.8767 7.49219 39.0193 6.60352 35.9841 6.60352C32.99 6.60352 30.1052 7.49219 28.6013 8.6543C28.1501 9.00977 28.0955 9.48828 28.4646 9.9668ZM32.3201 17.4863C31.8962 16.9258 31.7185 16.4063 31.7185 15.8457C31.7185 14.5605 32.7576 14.2324 32.7576 13.4805C32.7576 12.7148 31.7185 12.4004 31.7185 11.0742C31.7185 10.5273 31.8962 10.0078 32.3201 9.46094C32.7986 8.88672 33.6599 9.50195 33.1951 10.1035C32.8806 10.5273 32.7986 10.7598 32.7986 11.0742C32.7986 12.0039 33.8376 12.2637 33.8376 13.4805C33.8376 14.6836 32.7986 14.957 32.7986 15.8457C32.7986 16.2012 32.8806 16.4063 33.1951 16.8438C33.6462 17.4316 32.7849 18.0605 32.3201 17.4863ZM35.533 17.4863C35.1228 16.9258 34.9451 16.4063 34.9451 15.8457C34.9451 14.5605 35.9705 14.2324 35.9705 13.4805C35.9705 12.7148 34.9451 12.4004 34.9451 11.0742C34.9451 10.5273 35.1228 10.0078 35.533 9.46094C36.0115 8.88672 36.8865 9.50195 36.4216 10.1035C36.1072 10.5273 36.0251 10.7598 36.0251 11.0742C36.0251 12.0039 37.0642 12.2637 37.0642 13.4805C37.0642 14.6836 36.0251 14.957 36.0251 15.8457C36.0251 16.2012 36.1072 16.4063 36.4216 16.8438C36.8728 17.4316 35.9978 18.0605 35.533 17.4863ZM38.7869 17.4863C38.3494 16.9258 38.1716 16.4063 38.1716 15.8457C38.1716 14.5605 39.2107 14.2324 39.2107 13.4805C39.2107 12.7148 38.1716 12.4004 38.1716 11.0742C38.1716 10.5273 38.3494 10.0078 38.7869 9.46094C39.2517 8.88672 40.113 9.50195 39.6482 10.1035C39.3611 10.5273 39.2654 10.7598 39.2654 11.0742C39.2654 12.0039 40.2908 12.2637 40.2908 13.4805C40.2908 14.6836 39.2654 14.957 39.2654 15.8457C39.2654 16.2012 39.3611 16.4063 39.6482 16.8438C40.0994 17.4316 39.2517 18.0605 38.7869 17.4863ZM25.8533 9.54297C26.3455 9.57031 26.7146 9.16016 26.7146 8.66797L26.7283 4.94922L28.6287 4.94922C29.5037 4.94922 29.8318 4.06055 29.2849 3.47266L26.4822 0.328125C26.0994-0.109375 25.5935-0.109375 25.197 0.328125L22.449 3.47266C21.8748 4.11523 22.2166 4.94922 23.0779 4.94922L24.9919 4.94922L24.9919 8.66797C24.9919 9.16016 25.3748 9.54297 25.8533 9.54297ZM23.3103 10.9512C23.3103 10.4863 22.9275 10.0898 22.4353 10.0898L18.7302 10.0898L18.7302 8.18945C18.7302 7.32813 17.8279 7 17.2263 7.54688L14.1091 10.3496C13.6853 10.7188 13.658 11.2246 14.1091 11.6074L17.2263 14.3828C17.8552 14.957 18.7302 14.5879 18.7302 13.7402L18.7302 11.8398L22.4353 11.8398C22.9138 11.8398 23.3103 11.4707 23.3103 10.9512Z" fill="black" fill-opacity="0.85"/>
 </g>
</svg>
