<?xml version="1.0" encoding="UTF-8"?>
<!--Generator: Apple Native CoreSVG 326-->
<!DOCTYPE svg
PUBLIC "-//W3C//DTD SVG 1.1//EN"
       "http://www.w3.org/Graphics/SVG/1.1/DTD/svg11.dtd">
<svg version="1.1" xmlns="http://www.w3.org/2000/svg" xmlns:xlink="http://www.w3.org/1999/xlink" viewBox="0 0 26.5681 27.7402">
 <g>
  <rect height="27.7402" opacity="0" width="26.5681" x="0" y="0"/>
  <path d="M22.5331 7.42383C24.5838 7.42383 26.2108 5.71484 26.2108 3.73242C26.2108 1.66797 24.5838 0 22.5331 0C20.4686 0 18.8143 1.66797 18.8143 3.73242C18.8143 5.76953 20.4686 7.42383 22.5331 7.42383ZM0.507672 26.9883C1.20494 27.7266 2.42173 27.6719 3.29673 26.7695L9.17564 20.6992C9.36705 20.4941 9.51744 20.4395 9.81822 20.5625L14.412 22.2988C17.3651 23.4336 20.1405 22.4629 21.4393 20.1113L24.3924 14.7383C25.5409 12.6465 25.1717 10.4863 23.1756 9.41992C21.2479 8.36719 19.2518 9.16016 18.076 11.3066L14.2479 18.293L10.9803 17.1035C9.36705 16.5156 8.0272 16.707 6.74205 18.0469L0.630719 24.3633C-0.230609 25.2383-0.148578 26.332 0.507672 26.9883Z" fill="black" fill-opacity="0.85"/>
  <path d="M2.44908 13.207C2.94127 13.207 3.28306 12.9609 3.50181 12.332L4.49986 9.41992L9.38072 9.41992L10.3924 12.332C10.5975 12.9609 10.9393 13.207 11.4452 13.207C12.0467 13.207 12.4432 12.8105 12.4432 12.2637C12.4432 12.0449 12.4022 11.8535 12.3065 11.5527L8.4647 1.23047C8.20494 0.519531 7.67173 0.150391 6.93345 0.150391C6.19517 0.150391 5.67564 0.519531 5.41588 1.23047L1.58775 11.5527C1.47838 11.8535 1.43736 12.0449 1.43736 12.25C1.43736 12.8242 1.83384 13.207 2.44908 13.207ZM5.04673 7.7793L6.86509 2.48828L7.01548 2.48828L8.83384 7.7793Z" fill="black" fill-opacity="0.85"/>
 </g>
</svg>
