<?xml version="1.0" encoding="UTF-8"?>
<!--Generator: Apple Native CoreSVG 326-->
<!DOCTYPE svg
PUBLIC "-//W3C//DTD SVG 1.1//EN"
       "http://www.w3.org/Graphics/SVG/1.1/DTD/svg11.dtd">
<svg version="1.1" xmlns="http://www.w3.org/2000/svg" xmlns:xlink="http://www.w3.org/1999/xlink" viewBox="0 0 28.2461 27.9043">
 <g>
  <rect height="27.9043" opacity="0" width="28.2461" x="0" y="0"/>
  <path d="M13.9453 27.8906C21.6426 27.8906 27.8906 21.6289 27.8906 13.9453C27.8906 6.24805 21.6426 0 13.9453 0C6.26172 0 0 6.24805 0 13.9453C0 21.6289 6.26172 27.8906 13.9453 27.8906Z" fill="black" fill-opacity="0.85"/>
  <path d="M15.1484 7.12305C14.2734 7.12305 13.5762 6.45312 13.5762 5.57812C13.5762 4.70312 14.2734 3.99219 15.1484 3.99219C15.9961 3.99219 16.707 4.70312 16.707 5.57812C16.707 6.45312 15.9961 7.12305 15.1484 7.12305ZM5.76953 21.2051C5.76953 20.959 5.93359 20.7949 6.16602 20.7676L20.8086 19.8516C21.3965 19.8242 21.834 20.1387 21.834 20.7129C21.834 21.2188 21.4512 21.6016 20.959 21.6016L6.16602 21.6016C5.93359 21.6016 5.76953 21.4102 5.76953 21.2051ZM7.84766 19.6328C7.56055 19.3867 7.49219 18.9355 7.86133 18.5527L10.3086 16.1191L11.1973 12.9609C11.4844 13.4941 12.0039 13.8223 12.3457 14.0273L12.5508 14.1367L11.5938 16.6797C11.457 16.9805 11.416 17.0352 11.2383 17.2266L8.91406 19.5371C8.53125 19.9062 8.12109 19.8789 7.84766 19.6328ZM9.22852 11.0332L9.57031 8.47656C9.625 8.06641 9.89844 7.80664 10.2949 7.76562L12.8379 7.58789C14.1504 7.49219 14.957 7.86133 15.6133 8.75L16.8574 10.4727L18.6621 9.66602C19.0723 9.48828 19.4277 9.59766 19.5918 9.9668C19.7695 10.3223 19.6191 10.6777 19.2227 10.8691L16.9395 11.8809C16.625 12.0039 16.2832 11.9219 16.1055 11.6348L15.3125 10.4863C15.1484 10.2402 14.8477 10.2812 14.7793 10.5547L14.2461 12.4277L16.9395 14.2051C17.3359 14.4785 17.4043 15.0801 17.0625 15.3809L14.5605 17.4863C14.1777 17.8145 13.7402 17.7734 13.5078 17.5C13.2754 17.2539 13.2754 16.8438 13.6582 16.4883L15.4219 14.957L12.6875 13.4258C12.0586 13.0703 11.2656 12.7285 11.6074 11.5254L12.209 9.46094C12.291 9.17383 12.0586 9.02344 11.8398 9.03711L10.8145 9.10547L10.5 11.1973C10.4316 11.6348 10.1992 11.8809 9.78906 11.8535C9.37891 11.7988 9.17383 11.498 9.22852 11.0332ZM19.9062 19.2363L21.0684 12.5645L20.1934 12.9746C19.9336 13.0977 19.6328 12.9883 19.5371 12.7559C19.4277 12.5098 19.5098 12.2227 19.7832 12.0996L23.4062 10.4043C23.6387 10.2812 23.9531 10.3906 24.0625 10.6367C24.1582 10.8691 24.0625 11.1699 23.8164 11.293L22.1484 12.0723L20.9043 19.1816C20.8223 19.1816 20.7812 19.1816 20.6719 19.1816Z" fill="white"/>
 </g>
</svg>
