<?xml version="1.0" encoding="UTF-8"?>
<!--Generator: Apple Native CoreSVG 326-->
<!DOCTYPE svg
PUBLIC "-//W3C//DTD SVG 1.1//EN"
       "http://www.w3.org/Graphics/SVG/1.1/DTD/svg11.dtd">
<svg version="1.1" xmlns="http://www.w3.org/2000/svg" xmlns:xlink="http://www.w3.org/1999/xlink" viewBox="0 0 33.3047 30.8916">
 <g>
  <rect height="30.8916" opacity="0" width="33.3047" x="0" y="0"/>
  <path d="M12.5918 15.0288C14.2324 15.0288 15.5723 13.7026 15.5723 12.0347C15.5723 10.394 14.2324 9.0542 12.5918 9.0542C10.9238 9.0542 9.59766 10.394 9.59766 12.0347C9.59766 13.7026 10.9238 15.0288 12.5918 15.0288ZM14.0137 25.5288C14.6973 25.1187 15.4082 24.7632 16.1465 24.4761L16.1465 19.2808C16.1465 19.0894 16.2969 18.939 16.4883 18.939L18.2246 18.939C18.9902 18.939 19.6191 18.3101 19.6191 17.5444L19.6191 9.04053L16.8301 11.2827L16.8301 16.1636L11.9219 16.1636C10.6914 16.1636 9.84375 17.0112 9.84375 18.228L9.84375 20.8394C11.3613 21.9741 12.7969 23.4917 14.0137 25.5288ZM21.7246 16.1226C22.4902 16.1226 23.1191 15.521 23.1191 14.7417L23.1191 5.58154L20.3164 8.37061L20.3164 14.7417C20.3164 15.521 20.959 16.1226 21.7246 16.1226ZM16.8301 12.2808L18.375 12.2808L18.375 10.9683L28.0273 1.31592C28.3281 1.01514 28.3281 0.536621 28.0273 0.23584C27.7266-0.0786133 27.2344-0.0786133 26.9336 0.23584L17.2266 9.9292C16.9395 10.2026 16.8301 10.5308 16.8301 10.9819ZM0.765625 21.7007C4.89453 21.7007 9.50195 23.2729 12.1543 30.1089C12.4141 30.8198 13.2207 30.9565 13.6992 30.478C16.7617 27.4019 20.3027 26.3901 25.3887 27.8257C25.8125 27.9351 26.1406 27.7573 26.3184 27.3472C27.3711 24.9136 29.5586 23.6831 32.1836 23.6831C32.6074 23.6831 32.9492 23.355 32.9492 22.9312C32.9492 22.5073 32.6074 22.1655 32.1836 22.1655C29.2852 22.1655 26.5781 23.5874 25.1836 26.1987C20.2617 24.9819 16.4062 25.98 13.2617 28.8101C10.2539 21.8784 5.05859 20.1831 0.765625 20.1831C0.328125 20.1831 0 20.5249 0 20.9487C0 21.3726 0.328125 21.7007 0.765625 21.7007Z" fill="black" fill-opacity="0.85"/>
 </g>
</svg>
