<?xml version="1.0" encoding="UTF-8"?>
<!--Generator: Apple Native CoreSVG 326-->
<!DOCTYPE svg
PUBLIC "-//W3C//DTD SVG 1.1//EN"
       "http://www.w3.org/Graphics/SVG/1.1/DTD/svg11.dtd">
<svg version="1.1" xmlns="http://www.w3.org/2000/svg" xmlns:xlink="http://www.w3.org/1999/xlink" viewBox="0 0 26.8127 32.7105">
 <g>
  <rect height="32.7105" opacity="0" width="26.8127" x="0" y="0"/>
  <path d="M11.4444 7.81716C13.0987 7.81716 14.4386 6.47731 14.4386 4.85036C14.4386 3.20974 13.0987 1.86989 11.4444 1.86989C9.8038 1.86989 8.47763 3.20974 8.47763 4.85036C8.47763 6.47731 9.8038 7.81716 11.4444 7.81716ZM22.0401 9.2527L6.52255 9.2527L6.94638 9.58083C7.6163 9.33474 7.87607 8.69216 7.72568 8.13161C7.54795 7.5027 6.94638 6.98317 5.93466 7.21559L1.90146 8.14528C-0.696195 8.74684-0.627836 12.0828 2.0792 12.0828L6.48154 12.0828C6.87802 12.0828 7.19248 12.4109 7.19248 12.8074L7.19248 18.5769L2.96787 22.7742C2.39365 23.3484 2.01084 23.9363 1.77841 24.825L0.178805 30.8269C-0.0946329 31.8523 0.50693 32.4949 1.21787 32.6043C1.90146 32.7273 2.65341 32.3992 2.88584 31.5515L4.40341 25.9187C4.5538 25.3855 4.66318 25.1668 5.07334 24.825L8.38193 21.9949C9.05185 21.448 10.1866 21.5437 10.6515 22.3504L12.6612 25.8504L15.8468 31.8523C16.3116 32.741 17.3097 32.8367 17.9522 32.4265C18.5128 32.0574 18.7452 31.3054 18.3351 30.5398L15.1358 24.4422L13.3175 20.2996C13.0167 19.6023 12.8526 18.8367 12.8526 18.0437L12.8526 12.8074C12.8526 12.4109 13.1671 12.0828 13.5772 12.0828L22.0401 12.0828C22.8331 12.0828 23.462 11.4539 23.462 10.6883C23.462 9.89528 22.8331 9.2527 22.0401 9.2527ZM24.8976 10.6883C24.8976 13.6961 24.3097 16.5125 22.8331 20.2722C22.669 20.7097 22.8468 21.1472 23.2296 21.3113C23.6397 21.4754 24.0499 21.325 24.255 20.9148C25.8272 17.4558 26.4561 14.489 26.4561 10.6883C26.4561 7.01052 25.8272 4.03005 24.2413 0.461688C24.0499 0.051532 23.6397-0.0988586 23.2296 0.0652039C22.8331 0.229266 22.669 0.666766 22.8331 1.10427C24.3097 4.89138 24.8976 7.69411 24.8976 10.6883Z" fill="black" fill-opacity="0.85"/>
 </g>
</svg>
