<?xml version="1.0" encoding="UTF-8"?>
<!--Generator: Apple Native CoreSVG 326-->
<!DOCTYPE svg
PUBLIC "-//W3C//DTD SVG 1.1//EN"
       "http://www.w3.org/Graphics/SVG/1.1/DTD/svg11.dtd">
<svg version="1.1" xmlns="http://www.w3.org/2000/svg" xmlns:xlink="http://www.w3.org/1999/xlink" viewBox="0 0 28.2461 27.9043">
 <g>
  <rect height="27.9043" opacity="0" width="28.2461" x="0" y="0"/>
  <path d="M13.9453 27.8906C21.6426 27.8906 27.8906 21.6289 27.8906 13.9453C27.8906 6.24805 21.6426 0 13.9453 0C6.26172 0 0 6.24805 0 13.9453C0 21.6289 6.26172 27.8906 13.9453 27.8906Z" fill="black" fill-opacity="0.85"/>
  <path d="M13.9316 11.4297C13.3984 11.416 12.7832 11.457 12.4141 11.5254C12.0312 11.5938 11.8809 11.7852 11.8672 12.1953C11.8535 12.7012 11.8535 14.5605 11.9766 15.3809C12.1133 16.2285 13.0703 20.2344 13.1113 20.3984C13.2617 20.8496 12.9609 21.2598 12.4961 21.2598C12.127 21.2598 11.8945 21.0547 11.8125 20.6582C11.6348 19.8242 10.9102 17.0352 10.7188 16.3926C10.5684 15.9141 10.4453 15.7773 10.2129 15.7773C10.0078 15.7773 9.91211 15.9141 9.76172 16.4199C9.51562 17.0488 8.85938 19.8379 8.64062 20.6582C8.50391 21.0684 8.29883 21.2598 7.92969 21.2598C7.47852 21.2598 7.17773 20.8359 7.30078 20.3848C7.35547 20.2344 8.3125 16.2285 8.46289 15.3809C8.59961 14.5605 8.59961 12.7012 8.59961 12.1543C8.59961 11.7988 8.42188 11.5664 8.13477 11.498C7.83398 11.4297 5.31836 11.1289 4.94922 11.0332C4.64844 10.9922 4.44336 10.7051 4.44336 10.3496C4.44336 9.9668 4.7168 9.67969 5.04492 9.67969C5.16797 9.67969 5.27734 9.70703 5.35938 9.73438C6.43945 9.93945 8.6543 10.0898 10.2129 10.1719C11.5527 10.1992 13.043 10.2402 13.9727 10.2402C14.875 10.2402 16.3379 10.1992 17.6367 10.1719C19.2227 10.0625 21.4102 9.91211 22.4766 9.73438C22.5859 9.70703 22.6953 9.67969 22.8184 9.67969C23.1328 9.67969 23.4336 9.98047 23.4336 10.3496C23.4336 10.6777 23.2422 10.9375 22.9277 11.0332C22.5586 11.1699 20.0293 11.416 19.7148 11.498C19.4277 11.5664 19.2773 11.8125 19.2773 12.1543C19.2773 12.7012 19.2637 14.5605 19.3867 15.3809C19.5234 16.2285 20.4805 20.2344 20.5352 20.3984C20.6582 20.8359 20.3711 21.2598 19.9199 21.2598C19.5508 21.2598 19.332 21.0684 19.2227 20.6582C19.0312 19.8242 18.3477 17.0352 18.1152 16.4199C17.9648 15.9141 17.8555 15.7773 17.6367 15.7773C17.4316 15.7773 17.3359 15.9004 17.1582 16.4199C16.9395 17.0488 16.2695 19.8379 16.0645 20.6582C15.9551 21.0547 15.709 21.2598 15.3535 21.2598C14.8887 21.2598 14.5879 20.8496 14.7383 20.3848C14.793 20.2344 15.7363 16.2285 15.8867 15.3809C16.0098 14.5605 16.0371 12.7012 16.0098 12.1953C15.9961 11.7852 15.832 11.5938 15.4492 11.5254C15.1484 11.4707 14.6289 11.4297 13.9316 11.4297ZM10.2129 9.51562C9.39258 9.51562 8.72266 8.85938 8.72266 8.02539C8.72266 7.21875 9.39258 6.5625 10.2129 6.5625C11.0605 6.5625 11.7031 7.21875 11.7031 8.02539C11.7031 8.85938 11.0469 9.51562 10.2129 9.51562ZM17.6367 9.51562C16.8164 9.51562 16.1602 8.85938 16.1602 8.02539C16.1602 7.21875 16.8027 6.5625 17.6367 6.5625C18.457 6.5625 19.1406 7.21875 19.1406 8.02539C19.1406 8.8457 18.457 9.51562 17.6367 9.51562Z" fill="white"/>
 </g>
</svg>
