<?xml version="1.0" encoding="UTF-8"?>
<!--Generator: Apple Native CoreSVG 326-->
<!DOCTYPE svg
PUBLIC "-//W3C//DTD SVG 1.1//EN"
       "http://www.w3.org/Graphics/SVG/1.1/DTD/svg11.dtd">
<svg version="1.1" xmlns="http://www.w3.org/2000/svg" xmlns:xlink="http://www.w3.org/1999/xlink" viewBox="0 0 28.2461 27.9043">
 <g>
  <rect height="27.9043" opacity="0" width="28.2461" x="0" y="0"/>
  <path d="M13.9453 27.8906C21.6426 27.8906 27.8906 21.6426 27.8906 13.9453C27.8906 6.24805 21.6426 0 13.9453 0C6.24805 0 0 6.24805 0 13.9453C0 21.6426 6.24805 27.8906 13.9453 27.8906ZM13.9453 25.5664C7.51953 25.5664 2.32422 20.3711 2.32422 13.9453C2.32422 7.51953 7.51953 2.32422 13.9453 2.32422C20.3711 2.32422 25.5664 7.51953 25.5664 13.9453C25.5664 20.3711 20.3711 25.5664 13.9453 25.5664Z" fill="black" fill-opacity="0.85"/>
  <path d="M13.9316 10.418C14.834 10.418 15.5723 9.66602 15.5723 8.75C15.5723 7.86133 14.834 7.10938 13.9316 7.10938C13.0156 7.10938 12.2773 7.86133 12.2773 8.75C12.2773 9.66602 13.0156 10.418 13.9316 10.418ZM6.9043 17.3906L10.7051 17.7188C11.375 17.7734 11.5254 17.8145 12.168 17.9922L16.7891 19.3047L20.4395 20.6445C20.7949 20.7676 21.3008 20.6445 21.4375 20.1934C21.5605 19.7832 21.3691 19.332 20.9863 19.1953L17.3359 17.8691C17.2676 17.8555 17.1309 17.7871 17.0762 17.7734L13.8633 16.5977C14.2871 15.7773 14.8613 14.4648 15.0117 13.0293C15.0254 12.8652 15.1348 12.7695 15.2988 12.7695L20.8223 12.7695C21.2598 12.7695 21.5879 12.4277 21.5879 12.0039C21.5879 11.5801 21.2598 11.2383 20.8223 11.2383L14.752 11.2383C13.7402 11.2383 13.6445 11.2246 12.5371 10.9238L6.78125 9.33789C6.38477 9.22852 5.96094 9.46094 5.83789 9.88477C5.71484 10.2812 5.96094 10.7051 6.38477 10.8281L11.7305 12.3047C11.8672 12.3457 11.9629 12.4414 11.9492 12.6055C11.7715 13.959 11.1152 15.2715 10.7598 15.8594L7.73828 15.8594L7.73828 12.7695C7.73828 12.3594 7.38281 12.0039 6.97266 12.0039C6.53516 12.0039 6.19336 12.3594 6.19336 12.7695L6.19336 16.625C6.19336 17.0625 6.39844 17.3633 6.9043 17.3906Z" fill="black" fill-opacity="0.85"/>
 </g>
</svg>
