<?xml version="1.0" encoding="UTF-8"?>
<!--Generator: Apple Native CoreSVG 326-->
<!DOCTYPE svg
PUBLIC "-//W3C//DTD SVG 1.1//EN"
       "http://www.w3.org/Graphics/SVG/1.1/DTD/svg11.dtd">
<svg version="1.1" xmlns="http://www.w3.org/2000/svg" xmlns:xlink="http://www.w3.org/1999/xlink" viewBox="0 0 28.2461 27.9043">
 <g>
  <rect height="27.9043" opacity="0" width="28.2461" x="0" y="0"/>
  <path d="M13.9453 27.8906C21.6426 27.8906 27.8906 21.6426 27.8906 13.9453C27.8906 6.24805 21.6426 0 13.9453 0C6.24805 0 0 6.24805 0 13.9453C0 21.6426 6.24805 27.8906 13.9453 27.8906ZM13.9453 25.5664C7.51953 25.5664 2.32422 20.3711 2.32422 13.9453C2.32422 7.51953 7.51953 2.32422 13.9453 2.32422C20.3711 2.32422 25.5664 7.51953 25.5664 13.9453C25.5664 20.3711 20.3711 25.5664 13.9453 25.5664Z" fill="black" fill-opacity="0.85"/>
  <path d="M8.81836 9.2832C9.7207 9.2832 10.459 8.54492 10.459 7.62891C10.459 6.72656 9.7207 5.98828 8.81836 5.98828C7.91602 5.98828 7.16406 6.72656 7.16406 7.62891C7.16406 8.54492 7.91602 9.2832 8.81836 9.2832ZM7.15039 18.9492C7.51953 18.7031 7.98438 18.4297 8.73633 18.2656L8.85938 17.2539C8.85938 17.1719 8.98242 17.1582 8.99609 17.2129L9.47461 18.1562C9.67969 18.1426 9.89844 18.1289 10.1309 18.1289C10.541 18.1289 10.8965 18.1562 11.2246 18.1973L10.4453 16.1602L10.4453 11.6074C10.4453 10.7734 9.87109 10.0762 8.81836 10.0762L8.47656 10.0762C7.84766 10.0762 7.15039 10.1582 6.53516 10.7734L4.8125 12.4824C4.52539 12.7559 4.53906 13.248 4.8125 13.5215L7.15039 15.832ZM7.15039 13.7949L6.38477 13.002L6.91797 12.4551C7.01367 12.3594 7.15039 12.4141 7.15039 12.5371ZM5.75586 16.9395L20.1934 8.09375C20.3984 7.9707 20.4531 7.69727 20.3164 7.47852C20.1934 7.27344 19.9336 7.21875 19.7285 7.35547L5.29102 16.2012C5.08594 16.3379 5.03125 16.5977 5.1543 16.8027C5.29102 17.0078 5.53711 17.0762 5.75586 16.9395ZM14.0137 21.3555C16.0918 21.3555 16.5293 20.1113 17.8965 20.1113C19.2637 20.1113 19.7148 21.3555 21.7793 21.3555L21.8066 21.3555C22.0664 21.3555 22.2852 21.1367 22.2852 20.8906C22.2852 20.6445 22.0664 20.4258 21.8066 20.4258L21.7793 20.4258C20.3438 20.4258 19.8652 19.168 17.8965 19.168C15.9277 19.168 15.4355 20.4258 14.0137 20.4258C12.5918 20.4258 12.1133 19.168 10.1309 19.168C8.17578 19.168 7.66992 20.4258 6.26172 20.4258L6.2207 20.4258C5.94727 20.4258 5.75586 20.6445 5.75586 20.8906C5.75586 21.1367 5.94727 21.3555 6.2207 21.3555L6.26172 21.3555C8.3125 21.3555 8.77734 20.1113 10.1309 20.1113C11.498 20.1113 11.9492 21.3555 14.0137 21.3555Z" fill="black" fill-opacity="0.85"/>
 </g>
</svg>
