<?xml version="1.0" encoding="UTF-8"?>
<!--Generator: Apple Native CoreSVG 326-->
<!DOCTYPE svg
PUBLIC "-//W3C//DTD SVG 1.1//EN"
       "http://www.w3.org/Graphics/SVG/1.1/DTD/svg11.dtd">
<svg version="1.1" xmlns="http://www.w3.org/2000/svg" xmlns:xlink="http://www.w3.org/1999/xlink" viewBox="0 0 28.6016 30.3926">
 <g>
  <rect height="30.3926" opacity="0" width="28.6016" x="0" y="0"/>
  <path d="M19.209 5.97461C20.8633 5.97461 22.1758 4.64844 22.1758 2.98047C22.1758 1.32617 20.8633 0 19.209 0C17.541 0 16.2012 1.32617 16.2012 2.98047C16.2012 4.64844 17.541 5.97461 19.209 5.97461ZM9.89844 30.3789C10.6641 30.3789 11.3203 29.75 11.3203 28.9707L11.3203 16.1328C14.4375 15.627 17.1445 13.5625 18.4434 10.7461C18.5527 10.459 18.8809 10.3223 19.4277 10.5137L26.3457 12.8379C27.3027 13.1523 27.959 12.6328 28.1641 11.9629C28.3828 11.2793 28.1367 10.4453 27.248 10.1582L6.52148 3.24023C5.56445 2.91211 4.89453 3.44531 4.68945 4.11523C4.4707 4.79883 4.73047 5.61914 5.61914 5.91992L13.0703 8.4082C13.4121 8.53125 13.5898 8.94141 13.3711 9.29688C12.5781 10.541 11.4023 11.293 9.89844 11.293L2.83008 11.293L2.83008 4.19727C2.83008 3.36328 2.26953 2.78906 1.4082 2.78906C0.560547 2.78906 0 3.36328 0 4.19727L0 12.5918C0 13.5215 0.464844 13.959 1.17578 14.082L7.4375 15.1211L8.49023 21.3008L8.49023 28.9707C8.49023 29.75 9.11914 30.3789 9.89844 30.3789Z" fill="black" fill-opacity="0.85"/>
 </g>
</svg>
