<?xml version="1.0" encoding="UTF-8"?>
<!--Generator: Apple Native CoreSVG 326-->
<!DOCTYPE svg
PUBLIC "-//W3C//DTD SVG 1.1//EN"
       "http://www.w3.org/Graphics/SVG/1.1/DTD/svg11.dtd">
<svg version="1.1" xmlns="http://www.w3.org/2000/svg" xmlns:xlink="http://www.w3.org/1999/xlink" viewBox="0 0 28.2461 27.9043">
 <g>
  <rect height="27.9043" opacity="0" width="28.2461" x="0" y="0"/>
  <path d="M13.9453 27.8906C21.6426 27.8906 27.8906 21.6289 27.8906 13.9453C27.8906 6.24805 21.6426 0 13.9453 0C6.26172 0 0 6.24805 0 13.9453C0 21.6289 6.26172 27.8906 13.9453 27.8906Z" fill="black" fill-opacity="0.85"/>
  <path d="M11.4707 9.69336C10.5 9.69336 9.76172 8.92773 9.76172 7.9707C9.76172 7.04102 10.5 6.27539 11.4707 6.27539C12.4004 6.27539 13.1523 7.04102 13.1523 7.9707C13.1523 8.92773 12.4004 9.69336 11.4707 9.69336ZM7.3418 15.5996L8.09375 12.7422C8.46289 11.4023 9.73438 10.5137 11.293 10.5137L18.1699 10.5137C18.6074 10.5137 18.9766 10.8555 18.9766 11.293C18.9766 11.7441 18.6074 12.0996 18.1699 12.0996L11.8672 12.0996C11.4707 12.0996 11.1152 12.373 11.0059 12.7695L10.3633 14.998L13.5215 13.6309C13.8633 13.4668 14.2188 13.4805 14.5332 13.6582L19.4277 16.1055C19.9609 16.3926 20.084 16.8848 19.8926 17.2402C19.7285 17.5957 19.2773 17.8281 18.7031 17.5273L14.0137 15.1895L9.78906 17.4453C9.46094 17.623 9.13281 17.7051 8.81836 17.7051C7.80664 17.7051 7 16.8848 7.3418 15.5996ZM7.0957 20.248C6.80859 20.248 6.61719 20.043 6.61719 19.7559C6.61719 19.4961 6.80859 19.2773 7.0957 19.2773L20.7812 19.2773C21.0684 19.2773 21.2598 19.4961 21.2598 19.7559C21.2598 20.043 21.0684 20.248 20.7812 20.248Z" fill="white"/>
 </g>
</svg>
