<?xml version="1.0" encoding="UTF-8"?>
<!--Generator: Apple Native CoreSVG 326-->
<!DOCTYPE svg
PUBLIC "-//W3C//DTD SVG 1.1//EN"
       "http://www.w3.org/Graphics/SVG/1.1/DTD/svg11.dtd">
<svg version="1.1" xmlns="http://www.w3.org/2000/svg" xmlns:xlink="http://www.w3.org/1999/xlink" viewBox="0 0 31.3669 31.0251">
 <g>
  <rect height="31.0251" opacity="0" width="31.3669" x="0" y="0"/>
  <path d="M1.53307 18.5272L12.4842 29.4784C14.5077 31.5018 16.5038 31.5155 18.5135 29.5194L29.5194 18.4999C31.5155 16.5038 31.5018 14.494 29.4784 12.4706L18.5409 1.53307C16.5174-0.49037 14.5213-0.517714 12.5116 1.49205L1.49205 12.4979C-0.517714 14.5077-0.49037 16.5038 1.53307 18.5272ZM3.11901 17.0096C2.13463 16.0253 2.12096 14.9999 3.13268 13.9881L13.9881 3.13268C14.9999 2.12096 16.0253 2.13463 17.0096 3.11901L27.8924 14.0018C28.8631 14.9725 28.8905 16.0116 27.8788 17.0233L17.0233 27.8788C16.0116 28.8905 14.9725 28.8631 14.0018 27.9061Z" fill="black" fill-opacity="0.85"/>
  <path d="M12.1971 23.4901L14.576 20.6463C14.8085 20.3729 14.8358 20.3046 14.9315 20.0174L15.1092 19.4842L13.8378 17.871L13.4549 19.6756L11.1034 22.4647C10.3378 23.3534 11.5682 24.2284 12.1971 23.4901ZM17.994 23.2577C18.4725 24.2421 19.9491 23.6405 19.4022 22.5604L17.8026 19.2792C17.6796 19.0467 17.5018 18.7733 17.3514 18.5682L16.326 17.0917L16.3944 16.8866C16.6815 16.0663 16.7772 15.5741 16.8319 14.7538L16.996 12.4842C17.0643 11.3768 16.4217 10.5565 15.3006 10.5565C14.4803 10.5565 13.9198 10.9803 13.1405 11.7323L11.9237 12.9217C11.5272 13.3182 11.4042 13.6463 11.3631 14.1385L11.2264 16.0253C11.1991 16.4901 11.4588 16.8182 11.8827 16.8319C12.3338 16.8729 12.5936 16.6131 12.6346 16.1073L12.8124 14.0428L13.4003 13.537C13.6053 13.3456 13.8924 13.4549 13.8651 13.6874L13.7421 15.4237C13.6737 16.285 13.8788 16.7225 14.4803 17.4745L16.0799 19.4842C16.244 19.6756 16.2577 19.7577 16.326 19.8944ZM20.7557 13.66L18.9237 13.66L17.7616 12.3749L17.6249 14.2753L18.0897 14.7401C18.3495 14.9999 18.5819 15.0682 19.0467 15.0682L20.7557 15.0682C21.2206 15.0682 21.535 14.8085 21.535 14.371C21.535 13.9335 21.2206 13.66 20.7557 13.66ZM16.203 9.84557C17.119 9.84557 17.8573 9.09361 17.8573 8.1776C17.8573 7.26158 17.119 6.5233 16.203 6.5233C15.2733 6.5233 14.535 7.26158 14.535 8.1776C14.535 9.09361 15.2733 9.84557 16.203 9.84557Z" fill="black" fill-opacity="0.85"/>
 </g>
</svg>
