<?xml version="1.0" encoding="UTF-8"?>
<!--Generator: Apple Native CoreSVG 326-->
<!DOCTYPE svg
PUBLIC "-//W3C//DTD SVG 1.1//EN"
       "http://www.w3.org/Graphics/SVG/1.1/DTD/svg11.dtd">
<svg version="1.1" xmlns="http://www.w3.org/2000/svg" xmlns:xlink="http://www.w3.org/1999/xlink" viewBox="0 0 27.1523 35.565">
 <g>
  <rect height="35.565" opacity="0" width="27.1523" x="0" y="0"/>
  <path d="M23.8301 13.2229C25.4707 13.2229 26.7969 11.8831 26.7969 10.2151C26.7969 8.5745 25.4707 7.24833 23.8301 7.24833C22.1621 7.24833 20.8223 8.5745 20.8223 10.2151C20.8223 11.8831 22.1621 13.2229 23.8301 13.2229ZM11.5938 23.9417L16.666 27.6468L13.7129 33.5393C13.3711 34.2093 13.6445 35.0706 14.3418 35.4261C14.9707 35.7268 15.8184 35.5491 16.1875 34.7972L19.6465 27.8792C19.9473 27.264 19.8379 26.6487 19.3594 26.1839L16.748 23.7366L21.1914 23.7366C21.998 23.7366 22.5859 23.1077 22.5859 22.3421L22.5859 16.7776C22.5859 14.4944 20.7402 12.6214 18.4297 12.6214L13.3027 12.6214L14.1914 9.50419C14.3965 8.77958 14 8.01396 13.248 7.79521C12.5098 7.57646 11.7441 8.01396 11.5391 8.73857L10.1582 13.6058C9.89844 14.5354 10.4453 15.3831 11.4297 15.3831L16.4199 15.3831C16.4746 15.3831 16.5156 15.4651 16.4609 15.5061L12.1133 17.7073C9.66602 18.9378 9.36523 22.3011 11.5938 23.9417ZM16.8574 21.0159L19.6191 19.7034C19.7422 19.6487 19.8926 19.7308 19.8926 19.8675L19.8926 21.0159ZM9.57031 23.6956L8.38086 27.1956L1.42188 27.1956C0.628906 27.1956 0 27.8245 0 28.5901C0 29.3831 0.628906 30.012 1.42188 30.012L9.37891 30.012C9.89844 30.012 10.418 29.7112 10.6504 29.2054L12.2363 26.0335L10.8145 25.0081C10.3086 24.6253 9.88477 24.1741 9.57031 23.6956ZM12.3047 6.15458L13.4258 6.15458C14.2461 5.15654 15.1895 3.4749 15.1895 2.3538C15.1895 0.972942 14.2324 0.0159109 12.8789 0.0159109C11.498 0.0159109 10.5273 0.972942 10.5273 2.3538C10.5273 3.59794 11.4707 5.26591 12.3047 6.15458ZM12.0859 20.5101L13.6309 20.5101L13.6309 5.64872L12.0859 5.64872Z" fill="black" fill-opacity="0.85"/>
 </g>
</svg>
