<?xml version="1.0" encoding="UTF-8"?>
<!--Generator: Apple Native CoreSVG 326-->
<!DOCTYPE svg
PUBLIC "-//W3C//DTD SVG 1.1//EN"
       "http://www.w3.org/Graphics/SVG/1.1/DTD/svg11.dtd">
<svg version="1.1" xmlns="http://www.w3.org/2000/svg" xmlns:xlink="http://www.w3.org/1999/xlink" viewBox="0 0 28.2461 27.9043">
 <g>
  <rect height="27.9043" opacity="0" width="28.2461" x="0" y="0"/>
  <path d="M13.9453 27.8906C21.6426 27.8906 27.8906 21.6426 27.8906 13.9453C27.8906 6.24805 21.6426 0 13.9453 0C6.24805 0 0 6.24805 0 13.9453C0 21.6426 6.24805 27.8906 13.9453 27.8906ZM13.9453 25.5664C7.51953 25.5664 2.32422 20.3711 2.32422 13.9453C2.32422 7.51953 7.51953 2.32422 13.9453 2.32422C20.3711 2.32422 25.5664 7.51953 25.5664 13.9453C25.5664 20.3711 20.3711 25.5664 13.9453 25.5664Z" fill="black" fill-opacity="0.85"/>
  <path d="M18.1562 8.53125C19.0586 8.53125 19.7832 7.79297 19.7832 6.87695C19.7832 5.97461 19.0586 5.23633 18.1562 5.23633C17.2266 5.23633 16.502 5.97461 16.502 6.87695C16.502 7.79297 17.2266 8.53125 18.1562 8.53125ZM12.3047 14.9023L16.1602 17.8281L14.957 21.5059C14.793 22.0391 15.1211 22.4082 15.5176 22.5039C15.8867 22.5859 16.2832 22.4355 16.4609 21.9434L17.7871 17.8145C17.8965 17.5137 17.8281 17.1855 17.623 16.9941L15.0527 14.4102L18.0059 11.4297C18.1289 11.3066 18.3203 11.3066 18.4707 11.4297L19.4961 12.4551L18.0879 13.8496C17.7734 14.1641 17.7871 14.6562 18.0879 14.957C18.3613 15.2441 18.8672 15.2715 19.1816 14.957L21.1367 13.0156C21.4512 12.7012 21.4375 12.209 21.1367 11.8945L19.25 9.99414C18.7988 9.54297 18.252 9.32422 17.6094 9.32422L8.54492 9.32422C8.12109 9.32422 7.76562 9.66602 7.76562 10.1035C7.76562 10.5273 8.12109 10.8828 8.54492 10.8828L13.7539 10.8828C14.0137 10.8828 14.1367 11.1699 13.9453 11.3477L12.4414 12.8652C11.7578 13.5352 11.8535 14.5469 12.3047 14.9023ZM12.0996 15.5586L11.7168 17.9238L8.09375 17.9238C7.65625 17.9238 7.30078 18.2793 7.30078 18.7031C7.30078 19.1406 7.65625 19.4824 8.09375 19.4824L12.332 19.4824C12.7422 19.4824 13.0293 19.2773 13.125 18.9219L13.7539 16.8301ZM7.76562 13.5078C8.69531 13.5078 9.46094 12.7285 9.46094 11.7988C9.46094 10.8691 8.69531 10.1035 7.76562 10.1035C6.83594 10.1035 6.07031 10.8691 6.07031 11.7988C6.07031 12.7285 6.83594 13.5078 7.76562 13.5078Z" fill="black" fill-opacity="0.85"/>
 </g>
</svg>
