<?xml version="1.0" encoding="UTF-8"?>
<!--Generator: Apple Native CoreSVG 326-->
<!DOCTYPE svg
PUBLIC "-//W3C//DTD SVG 1.1//EN"
       "http://www.w3.org/Graphics/SVG/1.1/DTD/svg11.dtd">
<svg version="1.1" xmlns="http://www.w3.org/2000/svg" xmlns:xlink="http://www.w3.org/1999/xlink" viewBox="0 0 28.2461 27.9043">
 <g>
  <rect height="27.9043" opacity="0" width="28.2461" x="0" y="0"/>
  <path d="M13.9453 27.8906C21.6426 27.8906 27.8906 21.6426 27.8906 13.9453C27.8906 6.24805 21.6426 0 13.9453 0C6.24805 0 0 6.24805 0 13.9453C0 21.6426 6.24805 27.8906 13.9453 27.8906ZM13.9453 25.5664C7.51953 25.5664 2.32422 20.3711 2.32422 13.9453C2.32422 7.51953 7.51953 2.32422 13.9453 2.32422C20.3711 2.32422 25.5664 7.51953 25.5664 13.9453C25.5664 20.3711 20.3711 25.5664 13.9453 25.5664Z" fill="black" fill-opacity="0.85"/>
  <path d="M17.0352 9.43359C17.9375 9.43359 18.6758 8.70898 18.6758 7.79297C18.6758 6.87695 17.9375 6.13867 17.0352 6.13867C16.1191 6.13867 15.3672 6.87695 15.3672 7.79297C15.3672 8.70898 16.1191 9.43359 17.0352 9.43359ZM10.8008 10.4727L14.8203 14.2324C15.1211 14.5195 15.5859 14.4922 15.8594 14.2051C16.1328 13.9043 16.1191 13.4668 15.8184 13.1797L14.3828 11.8398L15.0117 11.5117C15.1484 11.4434 15.3125 11.457 15.4082 11.5664L16.748 12.7969L16.748 15.7227C16.748 16.1328 17.0762 16.4609 17.4727 16.4609C17.8691 16.4609 18.1973 16.1328 18.1973 15.7227L18.1973 12.4551C18.1973 12.25 18.1016 12.0586 17.8965 11.8809L14.8066 9.00977C14.2051 8.46289 13.3027 8.39453 12.5645 8.68164L11.0059 9.25586C10.5547 9.41992 10.3223 10.0215 10.8008 10.4727ZM10.1855 10.8008L9.99414 10.8965C8.73633 11.5664 8.46289 13.0977 9.66602 14.0547L12.373 16.1875L10.7188 19.1816C10.5273 19.5234 10.6777 19.9609 11.0332 20.166C11.3066 20.3164 11.7852 20.2617 12.0039 19.8516L13.9453 16.3242C14.0957 16.0371 14.041 15.709 13.8223 15.4766L11.6895 13.1797L12.332 12.8242L10.3906 11.0059C10.3359 10.9512 10.2402 10.8555 10.1855 10.8008ZM5.23633 17.3633L8.70898 17.3633C8.99609 17.3633 9.24219 17.1855 9.35156 16.9668L10.1855 15.2988L9.25586 14.5605C9.05078 14.3965 8.87305 14.2324 8.77734 14.0957L8.20312 15.9141L5.23633 15.9141C4.83984 15.9141 4.52539 16.2285 4.52539 16.6523C4.52539 17.0215 4.83984 17.3633 5.23633 17.3633ZM21.8066 19.5781C22.5449 19.5508 23.0645 19.0312 23.0371 18.3203C23.0371 17.9922 22.8047 17.6367 22.4492 17.6504C22.1895 17.6504 22.0254 17.8281 22.0254 18.0879L22.0254 18.3066C22.0254 18.5801 21.7246 18.7441 21.4238 18.4707L13.3984 11.375L12.8242 11.7988L20.6855 19.1406C21.0137 19.4277 21.3828 19.5781 21.8066 19.5781ZM18.2383 20.8359C18.7852 20.8359 19.2363 20.3848 19.2363 19.8379C19.2363 19.291 18.7852 18.8262 18.2383 18.8262C17.6641 18.8262 17.2266 19.291 17.2266 19.8379C17.2266 20.3848 17.6641 20.8359 18.2383 20.8359Z" fill="black" fill-opacity="0.85"/>
 </g>
</svg>
