<?xml version="1.0" encoding="UTF-8"?>
<!--Generator: Apple Native CoreSVG 326-->
<!DOCTYPE svg
PUBLIC "-//W3C//DTD SVG 1.1//EN"
       "http://www.w3.org/Graphics/SVG/1.1/DTD/svg11.dtd">
<svg version="1.1" xmlns="http://www.w3.org/2000/svg" xmlns:xlink="http://www.w3.org/1999/xlink" viewBox="0 0 30.584 26.1816">
 <g>
  <rect height="26.1816" opacity="0" width="30.584" x="0" y="0"/>
  <path d="M17.2949 5.97461C18.9355 5.97461 20.2754 4.64844 20.2754 2.98047C20.2754 1.33984 18.9355 0 17.2949 0C15.627 0 14.3008 1.33984 14.3008 2.98047C14.3008 4.64844 15.627 5.97461 17.2949 5.97461ZM19.4414 15.3945C20.248 15.3945 20.8906 14.7656 20.8906 13.959C20.8906 13.1523 20.248 12.5234 19.4414 12.5234L14.4238 12.5234L14.4238 7.38281C14.4238 5.67383 12.9883 4.58008 11.4023 4.9082L2.95312 6.6582C-0.109375 7.28711-0.943359 10.9102 1.27148 12.8652L6.53516 17.4863L6.53516 24.7324C6.53516 25.5117 7.19141 26.168 7.9707 26.168C8.75 26.168 9.40625 25.5117 9.40625 24.7324L9.40625 16.9395C9.40625 16.4336 9.29688 16.1602 8.98242 15.8184L4.93555 11.7441C4.70312 11.5117 4.82617 11.1973 5.09961 11.1426L10.7871 10.0898C11.3477 9.98047 11.5527 10.1719 11.5527 10.6641L11.5527 13.959C11.5527 14.7656 12.209 15.3945 12.9883 15.3945ZM27.166 20.8223L29.1621 20.8223C29.8457 20.8223 30.2969 20.3711 30.2969 19.6875L30.2969 7.41016C30.2969 6.76758 29.8457 6.31641 29.1895 6.31641L27.1113 6.31641C22.2305 6.31641 19.2773 7.58789 16.1738 11.1973L18.1836 11.1973C18.2383 11.1973 18.2793 11.1973 18.334 11.1973C20.7812 8.79102 23.2969 7.88867 27.1113 7.88867L28.7109 7.88867L28.7109 19.2227L27.166 19.2227C26.6602 19.2227 26.2773 18.9766 26.0586 18.5527L24.8145 16.0645C24.5957 15.6543 24.1992 15.5586 23.8711 15.668C23.4609 15.8047 23.1465 16.2422 23.4062 16.7754L24.6504 19.2773C25.1289 20.2207 26.0859 20.8223 27.166 20.8223ZM10.7324 20.0566C12.0449 19.1133 13.0977 17.9375 14.041 16.7207L12.9883 16.7207C12.6875 16.7207 12.3867 16.666 12.0996 16.5566C11.6758 17.0762 11.2246 17.541 10.7324 17.9922ZM0.806641 22.2578L3.1582 22.2578C3.88281 22.2578 4.56641 22.2168 5.20898 22.1211L5.20898 20.5352C4.58008 20.6309 3.88281 20.6855 3.1582 20.6855L0.806641 20.6855C0.355469 20.6855 0 21.0137 0 21.4785C0 21.8887 0.355469 22.2578 0.806641 22.2578Z" fill="black" fill-opacity="0.85"/>
 </g>
</svg>
