<?xml version="1.0" encoding="UTF-8"?>
<!--Generator: Apple Native CoreSVG 326-->
<!DOCTYPE svg
PUBLIC "-//W3C//DTD SVG 1.1//EN"
       "http://www.w3.org/Graphics/SVG/1.1/DTD/svg11.dtd">
<svg version="1.1" xmlns="http://www.w3.org/2000/svg" xmlns:xlink="http://www.w3.org/1999/xlink" viewBox="0 0 28.2461 27.9043">
 <g>
  <rect height="27.9043" opacity="0" width="28.2461" x="0" y="0"/>
  <path d="M13.9453 27.8906C21.6426 27.8906 27.8906 21.6426 27.8906 13.9453C27.8906 6.24805 21.6426 0 13.9453 0C6.24805 0 0 6.24805 0 13.9453C0 21.6426 6.24805 27.8906 13.9453 27.8906ZM13.9453 25.5664C7.51953 25.5664 2.32422 20.3711 2.32422 13.9453C2.32422 7.51953 7.51953 2.32422 13.9453 2.32422C20.3711 2.32422 25.5664 7.51953 25.5664 13.9453C25.5664 20.3711 20.3711 25.5664 13.9453 25.5664Z" fill="black" fill-opacity="0.85"/>
  <path d="M16.0234 9.2832C16.9395 9.2832 17.6777 8.53125 17.6777 7.62891C17.6777 6.74023 16.9395 5.98828 16.0234 5.98828C15.1211 5.98828 14.3828 6.74023 14.3828 7.62891C14.3828 8.53125 15.1211 9.2832 16.0234 9.2832ZM18.1426 22.3672C18.4707 22.2305 18.7168 21.8887 18.5938 21.4375L17.459 17.459C17.4043 17.2676 17.2949 17.1309 17.1172 17.0215L14.7383 15.627L15.8594 12.2637C15.9414 12.0039 16.2285 11.9766 16.4199 12.168L18.0879 13.8359C18.2383 13.9863 18.416 14.0684 18.6211 14.0684C18.8125 14.0684 19.0176 14 19.168 13.8359L21.4375 11.5664C21.7383 11.2656 21.752 10.8008 21.4375 10.5C21.1367 10.1992 20.6855 10.1855 20.3711 10.5L18.6211 12.25L17.1582 10.7324C16.502 10.0352 15.791 9.89844 14.3828 9.89844L7.39648 9.89844C6.97266 9.89844 6.63086 10.2402 6.63086 10.6641C6.63086 11.0742 6.97266 11.416 7.39648 11.416L12.5371 11.416C12.7695 11.416 12.9746 11.5938 12.8652 11.8945L11.9766 14.5332C11.6484 15.4902 12.1133 16.4746 13.0156 16.8711L16.0781 18.2246L17.1445 21.8477C17.3086 22.3672 17.7734 22.5039 18.1426 22.3672ZM8.51758 22.0938C8.72266 22.3809 9.10547 22.5449 9.5293 22.3125L12.9062 20.4258C13.084 20.3438 13.207 20.1934 13.2754 19.9883L13.9316 18.0059L12.7559 17.4863C12.4824 17.3633 12.3594 17.2949 12.332 17.2539L11.8945 19.2637L8.79102 20.9863C8.3125 21.2461 8.28516 21.7656 8.51758 22.0938ZM18.9902 15.8184L23.4336 15.8184L23.4336 14.875L18.9902 14.875C18.7441 14.875 18.5254 15.1074 18.5254 15.3398C18.5254 15.5996 18.7441 15.8184 18.9902 15.8184ZM7.61523 10.2539L8.47656 10.2539L8.47656 9.0918L7.61523 9.0918ZM8.03906 6.24805C7.25977 6.24805 6.63086 6.87695 6.63086 7.68359C6.63086 8.4082 7.25977 9.26953 8.03906 9.46094C8.8457 9.26953 9.47461 8.4082 9.47461 7.68359C9.47461 6.87695 8.8457 6.24805 8.03906 6.24805Z" fill="black" fill-opacity="0.85"/>
 </g>
</svg>
