<?xml version="1.0" encoding="UTF-8"?>
<!--Generator: Apple Native CoreSVG 326-->
<!DOCTYPE svg
PUBLIC "-//W3C//DTD SVG 1.1//EN"
       "http://www.w3.org/Graphics/SVG/1.1/DTD/svg11.dtd">
<svg version="1.1" xmlns="http://www.w3.org/2000/svg" xmlns:xlink="http://www.w3.org/1999/xlink" viewBox="0 0 26.6239 27.5215">
 <g>
  <rect height="27.5215" opacity="0" width="26.6239" x="0" y="0"/>
  <path d="M20.2436 12.1816L20.2436 15.5039C20.2436 16.4609 20.9408 17.1582 21.8979 17.1582L24.5229 17.1582C25.4662 17.1582 26.1772 16.4609 26.1772 15.5039L26.1772 12.1816C26.1772 11.2246 25.4662 10.5137 24.5229 10.5137L21.8979 10.5137C20.9408 10.5137 20.2436 11.2246 20.2436 12.1816ZM23.2104 15.2168C22.4447 15.2168 21.7748 14.5879 21.7748 13.7949C21.7748 13.0293 22.4447 12.3867 23.2104 12.3867C23.976 12.3867 24.6322 13.0293 24.6322 13.7949C24.6322 14.5879 23.976 15.2168 23.2104 15.2168ZM20.5033 8.46289L25.9037 8.46289C26.3139 8.46289 26.3822 8.02539 26.0815 7.82031L23.6205 6.13867C23.3471 5.96094 23.06 5.96094 22.7729 6.13867L20.3256 7.82031C20.0111 8.02539 20.0932 8.46289 20.5033 8.46289Z" fill="black" fill-opacity="0.85"/>
  <path d="M7.92521 6.09766C9.59318 6.09766 10.9467 4.68945 10.9467 3.0625C10.9467 1.38086 9.59318 0 7.92521 0C6.2299 0 4.90372 1.38086 4.90372 3.0625C4.90372 4.7168 6.2299 6.09766 7.92521 6.09766ZM2.08732 17.4043L10.7826 7.7793C9.9213 7.45117 8.99162 7.31445 7.92521 7.31445C4.01505 7.31445 1.69083 9.20117 1.69083 12.3594C1.69083 13.125 1.73185 14.1367 1.8549 15.1758ZM13.7494 17.4043L13.9955 15.1758C14.1186 14.1367 14.1596 13.125 14.1596 12.3594C14.1596 10.8008 13.599 9.54297 12.5463 8.69531L5.65568 16.3516C6.4213 16.2285 7.17326 16.1738 7.92521 16.1738C9.85294 16.1738 11.7807 16.4336 13.7494 17.4043ZM4.5756 27.4805C5.36857 27.3711 5.92912 26.7969 5.80607 25.7988L5.25919 20.7539L10.5912 20.7539L10.0443 25.7988C9.94865 26.7969 10.4682 27.3711 11.2611 27.4805C12.0815 27.5625 12.7104 27.043 12.8197 26.0859L13.5307 19.4277C11.7533 18.4023 9.79826 18.0059 7.92521 18.0059C6.03849 18.0059 4.08341 18.4023 2.33341 19.4277L3.01701 26.0859C3.12638 27.043 3.75529 27.5625 4.5756 27.4805ZM12.5463 8.68164L15.1303 5.79688C15.5678 5.29102 15.5404 4.73047 15.1029 4.375C14.6928 4.00586 14.1596 3.99219 13.6811 4.52539L10.7826 7.7793C11.4115 8.02539 11.9994 8.33984 12.5463 8.68164ZM0.41935 18.416C-0.0728378 18.7715-0.0865097 19.3457 0.145912 19.7148C0.364662 20.1113 0.870522 20.3027 1.39005 19.9883C1.71818 19.7832 2.00529 19.6055 2.33341 19.4277L2.08732 17.4043C1.48576 17.6777 0.938881 17.9922 0.41935 18.416ZM15.4447 18.416C14.9115 17.9922 14.3647 17.6777 13.7494 17.4043L13.517 19.4277C13.8451 19.6055 14.1322 19.7832 14.4467 19.9883C14.9662 20.3027 15.4584 20.125 15.6908 19.7422C15.9369 19.3594 15.9369 18.7852 15.4447 18.416Z" fill="black" fill-opacity="0.85"/>
 </g>
</svg>
