<?xml version="1.0" encoding="UTF-8"?>
<!--Generator: Apple Native CoreSVG 326-->
<!DOCTYPE svg
PUBLIC "-//W3C//DTD SVG 1.1//EN"
       "http://www.w3.org/Graphics/SVG/1.1/DTD/svg11.dtd">
<svg version="1.1" xmlns="http://www.w3.org/2000/svg" xmlns:xlink="http://www.w3.org/1999/xlink" viewBox="0 0 28.4588 32.1699">
 <g>
  <rect height="32.1699" opacity="0" width="28.4588" x="0" y="0"/>
  <path d="M14.9745 10.3633L17.0781 13.4577C16.5272 13.4685 15.9748 13.6907 15.5761 14.1367C15.2912 14.4423 15.0966 14.8049 15.0053 15.1864C14.4586 14.4189 13.8919 13.6191 13.4706 13.0293C13.3339 12.8379 13.0878 12.9199 13.0878 13.1387C13.0878 14.5742 13.1561 17.6094 13.3886 19.1133C13.662 20.8223 15.6444 29.1074 15.7401 29.4766C15.9862 30.3379 15.453 31.1309 14.578 31.1309C13.9354 31.1309 13.4979 30.7754 13.2655 29.9277C12.8007 28.2461 11.4198 22.5176 10.955 21.1367C10.6405 20.1523 10.4218 19.7695 9.86122 19.7695C9.30067 19.7695 9.08192 20.1523 8.76747 21.1367C8.30262 22.5176 6.92177 28.2461 6.45692 29.9277C6.2245 30.7754 5.787 31.1309 5.14442 31.1309C4.26942 31.1309 3.73622 30.3379 3.98231 29.4766C4.07802 29.1074 6.06044 20.8223 6.34755 19.1133C6.57997 17.6094 6.63466 14.5879 6.63466 13.1523C6.63466 12.9199 6.37489 12.8516 6.25184 13.0293C5.22645 14.4785 3.35341 17.1445 2.98427 17.582C2.57411 18.0469 1.91786 18.1289 1.38466 17.8281C0.68739 17.459 0.523328 16.707 0.810437 16.1875C0.919812 15.9824 1.0702 15.7773 1.20692 15.5723L4.74794 10.3633C5.86903 8.70898 7.26356 7.9707 9.86122 7.9707C12.4589 7.9707 13.8534 8.70898 14.9745 10.3633ZM12.8143 3.5957C12.8143 5.23633 11.5018 6.53516 9.86122 6.53516C8.22059 6.53516 6.90809 5.23633 6.90809 3.5957C6.90809 1.95508 8.22059 0.642578 9.86122 0.642578C11.5018 0.642578 12.8143 1.95508 12.8143 3.5957Z" fill="black" fill-opacity="0.85"/>
  <path d="M21.3593 15.9824C22.5624 15.9824 23.5604 14.998 23.5604 13.7949C23.5604 12.5918 22.5624 11.6074 21.3593 11.6074C20.1561 11.6074 19.1718 12.5918 19.1718 13.7949C19.1718 14.998 20.1561 15.9824 21.3593 15.9824ZM18.3241 31.1309C18.8436 31.1309 19.2811 30.8301 19.4452 30.1465C19.7323 29.1211 20.5663 25.5938 20.8397 24.7324C21.0311 24.1719 21.0722 24.1309 21.2225 24.1309C21.3729 24.1309 21.414 24.1719 21.6054 24.7324C21.8651 25.5938 22.7128 29.1211 22.9999 30.1465C23.164 30.8301 23.6015 31.1309 24.121 31.1309C24.9003 31.1309 25.3515 30.4062 25.16 29.6953C25.0917 29.4629 23.9022 24.3906 23.7108 23.3242C23.6151 22.668 23.5604 21.5195 23.5604 21.041C23.5604 20.8223 23.8065 20.7539 23.9296 20.9316L25.6796 23.4609C26.0487 23.9941 26.6503 24.0078 27.0468 23.7207C27.4022 23.4746 27.58 22.9688 27.2382 22.4492L24.9823 18.9492C24.1893 17.7461 22.9589 17.2676 21.7011 17.2676L21.2225 17.2676C20.3065 17.2676 19.91 16.9805 19.2948 16.3242L17.8456 14.7793C17.4765 14.3965 16.7518 14.3828 16.3417 14.8613C15.9725 15.2441 15.8495 15.8047 16.164 16.2832C16.3143 16.5156 17.5722 17.9238 18.5565 19.1543C18.7753 19.4277 18.8983 19.6875 18.8983 20.084C18.8983 20.7676 18.871 22.4766 18.7343 23.3242C18.5429 24.3906 17.3534 29.4629 17.285 29.6953C17.0936 30.4062 17.5448 31.1309 18.3241 31.1309Z" fill="black" fill-opacity="0.85"/>
 </g>
</svg>
