<?xml version="1.0" encoding="UTF-8"?>
<!--Generator: Apple Native CoreSVG 326-->
<!DOCTYPE svg
PUBLIC "-//W3C//DTD SVG 1.1//EN"
       "http://www.w3.org/Graphics/SVG/1.1/DTD/svg11.dtd">
<svg version="1.1" xmlns="http://www.w3.org/2000/svg" xmlns:xlink="http://www.w3.org/1999/xlink" viewBox="0 0 28.2461 27.9043">
 <g>
  <rect height="27.9043" opacity="0" width="28.2461" x="0" y="0"/>
  <path d="M13.9453 27.8906C21.6426 27.8906 27.8906 21.6426 27.8906 13.9453C27.8906 6.24805 21.6426 0 13.9453 0C6.24805 0 0 6.24805 0 13.9453C0 21.6426 6.24805 27.8906 13.9453 27.8906ZM13.9453 25.5664C7.51953 25.5664 2.32422 20.3711 2.32422 13.9453C2.32422 7.51953 7.51953 2.32422 13.9453 2.32422C20.3711 2.32422 25.5664 7.51953 25.5664 13.9453C25.5664 20.3711 20.3711 25.5664 13.9453 25.5664Z" fill="black" fill-opacity="0.85"/>
  <path d="M9.67969 9.46094C10.541 9.46094 11.2383 8.76367 11.2383 7.90234C11.2383 7.05469 10.541 6.35742 9.67969 6.35742C8.81836 6.35742 8.12109 7.05469 8.12109 7.90234C8.12109 8.76367 8.81836 9.46094 9.67969 9.46094ZM18.7852 9.14648C19.6465 9.14648 20.3438 8.44922 20.3438 7.58789C20.3438 6.72656 19.6465 6.0293 18.7852 6.0293C17.9375 6.0293 17.2266 6.72656 17.2266 7.58789C17.2266 8.44922 17.9375 9.14648 18.7852 9.14648ZM5.33203 11.3887L6.91797 11.5117C7.02734 11.5117 7.10938 11.5938 7.10938 11.7168L7.10938 14.6152C7.10938 15.1895 7.28711 15.7637 7.64258 16.2148L9.50195 18.6074L8.55859 21.7656C8.43555 22.1758 8.66797 22.6133 9.07812 22.7363C9.46094 22.8457 9.89844 22.668 10.0352 22.2168L11.1016 18.6621C11.1289 18.5938 11.1426 18.5391 11.1426 18.4707L14.0137 22.1074C14.2871 22.4492 14.7793 22.5039 15.0938 22.2441C15.4492 21.9707 15.5176 21.4922 15.2305 21.1504L10.0898 14.6426L10.3223 12.332C10.3359 12.168 10.5 12.0859 10.6367 12.1543L12.4277 13.043C12.5508 13.1113 12.7695 13.166 12.9473 13.166L15.6953 13.166C15.8867 13.166 16.0508 13.1113 16.2012 12.9883L17.5 11.8535C17.623 11.7441 17.8008 11.7988 17.8555 11.9629L18.5938 14L15.4902 14.834C15.1895 14.9297 14.957 15.1895 14.916 15.5176L14.5742 19.0723C14.5195 19.5781 14.957 19.9199 15.3398 19.9199C15.7363 19.9199 16.0781 19.6328 16.1055 19.2227L16.4062 16.2695L18.5664 15.9414L17.541 18.0059C17.418 18.2383 17.3496 18.4844 17.459 18.7168L18.8809 22.2715C19.0586 22.709 19.5234 22.8594 19.8926 22.709C20.2891 22.5449 20.4805 22.0938 20.3301 21.7109L19.0586 18.5391L20.8086 16.0371C21.2461 15.4219 21.4102 14.6289 21.2734 13.877L21.0137 12.373C20.9727 12.1816 21.1367 12.0586 21.3145 12.1133L22.2168 12.4141C22.8184 12.6055 23.2969 12.25 23.2285 11.6348L22.9141 8.46289C22.873 8.01172 22.4766 7.71094 22.0664 7.76562C21.6562 7.79297 21.3145 8.17578 21.3691 8.61328L21.5742 10.5684L19.4277 9.84375C18.5527 9.55664 17.6094 9.7207 16.8984 10.3359L15.4082 11.6074L13.0293 11.6074L10.7324 10.459C10.3906 10.2812 10.0352 10.1992 9.65234 10.1582L6.42578 9.91211L7.04102 8.08008C7.17773 7.64258 6.97266 7.23242 6.5625 7.08203C6.15234 6.95898 5.71484 7.17773 5.57812 7.57422L4.64844 10.3633C4.4707 10.8555 4.82617 11.3477 5.33203 11.3887Z" fill="black" fill-opacity="0.85"/>
 </g>
</svg>
