<?xml version="1.0" encoding="UTF-8"?>
<!--Generator: Apple Native CoreSVG 326-->
<!DOCTYPE svg
PUBLIC "-//W3C//DTD SVG 1.1//EN"
       "http://www.w3.org/Graphics/SVG/1.1/DTD/svg11.dtd">
<svg version="1.1" xmlns="http://www.w3.org/2000/svg" xmlns:xlink="http://www.w3.org/1999/xlink" viewBox="0 0 28.2461 27.9043">
 <g>
  <rect height="27.9043" opacity="0" width="28.2461" x="0" y="0"/>
  <path d="M13.9453 27.8906C21.6426 27.8906 27.8906 21.6289 27.8906 13.9453C27.8906 6.24805 21.6426 0 13.9453 0C6.26172 0 0 6.24805 0 13.9453C0 21.6289 6.26172 27.8906 13.9453 27.8906Z" fill="black" fill-opacity="0.85"/>
  <path d="M13.959 9.13281C12.9062 9.13281 12.0312 8.27148 12.0312 7.21875C12.0312 6.13867 12.9062 5.27734 13.959 5.27734C15.0254 5.27734 15.873 6.13867 15.873 7.21875C15.873 8.27148 15.0254 9.13281 13.959 9.13281ZM13.9453 15.9688C13.6855 15.9688 13.4941 16.1191 13.4121 16.4199L12.0996 21.4512C11.8125 22.5859 10.2676 22.1895 10.418 21.123C10.4863 20.7129 11.6211 16.4473 11.7852 15.4902C11.8945 14.7793 11.8535 13.002 11.8535 12.209C11.8535 11.9629 11.6484 11.8398 11.4023 11.9355L9.17383 12.8379C8.58594 13.084 8.16211 12.7832 8.05273 12.373C7.91602 11.9902 8.09375 11.5254 8.64062 11.3066L11.0469 10.2949C11.6074 10.0898 12.0996 9.95312 12.6602 9.88477C13.0566 10.0762 13.4805 10.1719 13.9453 10.1719C14.4102 10.1719 14.8477 10.0762 15.2305 9.88477C15.791 9.95312 16.2832 10.0898 16.8438 10.2949L19.25 11.3066C19.8105 11.5254 19.9746 11.9902 19.8516 12.373C19.7422 12.7832 19.3184 13.084 18.7305 12.8379L16.4883 11.9355C16.2422 11.8398 16.0508 11.9629 16.0508 12.209C16.0508 13.002 15.9961 14.7793 16.1191 15.4902C16.2695 16.4473 17.4043 20.7129 17.4727 21.123C17.623 22.1895 16.0781 22.5859 15.791 21.4512L14.4785 16.4199C14.3965 16.1191 14.2051 15.9688 13.9453 15.9688Z" fill="white"/>
 </g>
</svg>
