<?xml version="1.0" encoding="UTF-8"?>
<!--Generator: Apple Native CoreSVG 326-->
<!DOCTYPE svg
PUBLIC "-//W3C//DTD SVG 1.1//EN"
       "http://www.w3.org/Graphics/SVG/1.1/DTD/svg11.dtd">
<svg version="1.1" xmlns="http://www.w3.org/2000/svg" xmlns:xlink="http://www.w3.org/1999/xlink" viewBox="0 0 26.5645 27.9316">
 <g>
  <rect height="27.9316" opacity="0" width="26.5645" x="0" y="0"/>
  <path d="M3.67773 7.65625C5.75586 7.65625 7.39648 5.98828 7.39648 3.96484C7.39648 1.90039 5.75586 0.21875 3.67773 0.21875C1.64062 0.21875 0 1.90039 0 3.96484C0 5.94727 1.64062 7.65625 3.67773 7.65625ZM6.07031 21.8203L10.7324 16.2148L8.13477 11.5254C6.95898 9.39258 4.96289 8.57227 3.03516 9.63867C1.03906 10.7051 0.669922 12.8516 1.83203 14.957L4.34766 19.5234C4.89453 20.5352 5.45508 21.3418 6.07031 21.8203ZM25.7031 27.1934C26.3594 26.5508 26.4277 25.457 25.5801 24.582L19.4824 18.2656C18.1836 16.9258 16.8301 16.7344 15.2305 17.3223L11.7441 18.5938L8.32617 22.8184C9.1875 22.9824 10.3496 23.0645 11.4434 22.6543L16.4062 20.7812C16.707 20.6582 16.8301 20.7129 17.0352 20.918L22.9141 26.9883C23.7891 27.877 25.0059 27.9453 25.7031 27.1934ZM3.10352 27.3574C3.69141 27.8359 4.33398 27.7129 4.83984 27.0977L8.32617 22.8184C7.5332 22.6543 6.76758 22.3125 6.07031 21.8203L3.03516 25.5938C2.51562 26.2363 2.55664 26.9199 3.10352 27.3574Z" fill="#ff9500"/>
  <path d="M19.2363 13.877C23.1055 13.877 26.1953 10.6914 26.1953 6.98633C26.1953 3.11719 23.1055 0 19.2363 0C15.3809 0 12.3594 3.11719 12.3594 6.98633C12.3594 10.6914 15.3809 13.877 19.2363 13.877Z" fill="#ff9500"/>
 </g>
</svg>
