<?xml version="1.0" encoding="UTF-8"?>
<!--Generator: Apple Native CoreSVG 326-->
<!DOCTYPE svg
PUBLIC "-//W3C//DTD SVG 1.1//EN"
       "http://www.w3.org/Graphics/SVG/1.1/DTD/svg11.dtd">
<svg version="1.1" xmlns="http://www.w3.org/2000/svg" xmlns:xlink="http://www.w3.org/1999/xlink" viewBox="0 0 28.2461 27.9043">
 <g>
  <rect height="27.9043" opacity="0" width="28.2461" x="0" y="0"/>
  <path d="M13.9453 27.8906C21.6426 27.8906 27.8906 21.6426 27.8906 13.9453C27.8906 6.24805 21.6426 0 13.9453 0C6.24805 0 0 6.24805 0 13.9453C0 21.6426 6.24805 27.8906 13.9453 27.8906ZM13.9453 25.5664C7.51953 25.5664 2.32422 20.3711 2.32422 13.9453C2.32422 7.51953 7.51953 2.32422 13.9453 2.32422C20.3711 2.32422 25.5664 7.51953 25.5664 13.9453C25.5664 20.3711 20.3711 25.5664 13.9453 25.5664Z" fill="black" fill-opacity="0.85"/>
  <path d="M14.5059 7.69727C15.4082 7.69727 16.1465 6.95898 16.1465 6.04297C16.1465 5.14062 15.4082 4.40234 14.5059 4.40234C13.5762 4.40234 12.8516 5.14062 12.8516 6.04297C12.8516 6.95898 13.5762 7.69727 14.5059 7.69727ZM16.2559 12.1133C16.584 12.4414 17.1719 12.4141 17.4316 11.9902L19.2773 9.03711C19.8379 8.13477 18.498 7.42383 17.9922 8.24414L16.666 10.377L15.6133 9.33789C14.6289 8.33984 13.5215 8.13477 12.0039 8.3125L9.32422 8.61328C8.96875 8.64062 8.69531 8.94141 8.6543 9.25586L8.27148 12.2227C8.14844 13.1797 9.65234 13.4258 9.77539 12.4141L10.0762 10.0352L11.4707 9.87109C11.6758 9.85742 11.8125 9.99414 11.7852 10.2129L11.416 13.1113C11.2383 14.4785 12.0449 15.2715 13.3984 15.1758L16.1738 14.9844L15.3398 18.0059C15.0664 19.0312 16.543 19.3867 16.8027 18.4023L17.8828 14.3555C18.0332 13.8496 17.6777 13.4258 17.1035 13.4258L14.2461 13.4258L14.6016 10.9375C14.6426 10.6914 14.8477 10.6914 14.998 10.8418ZM12.168 15.668L11.9766 18.4434L10.5684 21.998C10.3223 22.627 10.7734 23.0645 11.2383 23.0645C11.5391 23.0645 11.8125 22.9004 11.9766 22.5312L13.4258 18.8945C13.4395 18.8262 13.4531 18.7715 13.4668 18.7168L13.918 15.8047L13.4531 15.8457C12.9883 15.873 12.6465 15.832 12.168 15.668Z" fill="black" fill-opacity="0.85"/>
 </g>
</svg>
