<?xml version="1.0" encoding="UTF-8"?>
<!--Generator: Apple Native CoreSVG 326-->
<!DOCTYPE svg
PUBLIC "-//W3C//DTD SVG 1.1//EN"
       "http://www.w3.org/Graphics/SVG/1.1/DTD/svg11.dtd">
<svg version="1.1" xmlns="http://www.w3.org/2000/svg" xmlns:xlink="http://www.w3.org/1999/xlink" viewBox="0 0 33.8755 39.1998">
 <g>
  <rect height="39.1998" opacity="0" width="33.8755" x="0" y="0"/>
  <path d="M26.3167 13.1536C28.3538 13.1536 29.9944 11.4446 29.9944 9.46223C29.9944 7.39777 28.3538 5.7298 26.3167 5.7298C24.2385 5.7298 22.5979 7.39777 22.5979 9.46223C22.5979 11.4993 24.2385 13.1536 26.3167 13.1536ZM4.27761 32.7181C4.98855 33.4564 6.20534 33.4017 7.08034 32.4993L12.9593 26.429C13.1507 26.2239 13.2874 26.1693 13.6018 26.2923L18.1819 28.0286C21.135 29.1634 23.9241 28.1927 25.2093 25.8411L28.1624 20.4681C29.3108 18.3763 28.9553 16.2161 26.9593 15.1497C25.0315 14.097 23.0218 14.89 21.8596 17.0364L18.0315 24.0228L14.7639 22.8333C13.1507 22.2454 11.7971 22.4368 10.512 23.7767L4.40066 30.0931C3.553 30.9681 3.63503 32.0618 4.27761 32.7181Z" fill="black" fill-opacity="0.85"/>
  <path d="M0.285423 8.71027C0.681907 9.10676 1.32449 9.10676 1.72097 8.71027L5.49441 4.92316L7.01199 6.44074C7.68191 7.11066 8.67995 6.72785 8.72097 5.75715L9.02175 1.02668C9.04909 0.384101 8.65261-0.0260557 7.99636 0.00128807L3.25222 0.288397C2.3362 0.343085 1.88503 1.28644 2.5823 1.99738L4.0862 3.51496L0.299095 7.2884C-0.0973896 7.68488-0.0973896 8.32746 0.285423 8.71027ZM5.15261 11.1849C5.15261 11.7591 5.59011 12.2103 6.16433 12.2103L11.5237 12.2103L11.5237 14.3431C11.5237 15.3001 12.4944 15.7239 13.219 15.0814L16.76 11.9368C17.2385 11.4857 17.2385 10.9251 16.76 10.4876L13.219 7.34308C12.5218 6.72785 11.5237 7.06965 11.5237 8.08137L11.5237 10.2005L6.16433 10.2005C5.59011 10.2005 5.15261 10.638 5.15261 11.1849Z" fill="black" fill-opacity="0.85"/>
 </g>
</svg>
