<?xml version="1.0" encoding="UTF-8"?>
<!--Generator: Apple Native CoreSVG 326-->
<!DOCTYPE svg
PUBLIC "-//W3C//DTD SVG 1.1//EN"
       "http://www.w3.org/Graphics/SVG/1.1/DTD/svg11.dtd">
<svg version="1.1" xmlns="http://www.w3.org/2000/svg" xmlns:xlink="http://www.w3.org/1999/xlink" viewBox="0 0 28.2461 27.9043">
 <g>
  <rect height="27.9043" opacity="0" width="28.2461" x="0" y="0"/>
  <path d="M13.9453 27.8906C21.6426 27.8906 27.8906 21.6426 27.8906 13.9453C27.8906 6.24805 21.6426 0 13.9453 0C6.24805 0 0 6.24805 0 13.9453C0 21.6426 6.24805 27.8906 13.9453 27.8906ZM13.9453 25.5664C7.51953 25.5664 2.32422 20.3711 2.32422 13.9453C2.32422 7.51953 7.51953 2.32422 13.9453 2.32422C20.3711 2.32422 25.5664 7.51953 25.5664 13.9453C25.5664 20.3711 20.3711 25.5664 13.9453 25.5664Z" fill="black" fill-opacity="0.85"/>
  <path d="M18.7305 12.1406C19.6328 12.1406 20.3848 11.4023 20.3848 10.5C20.3848 9.57031 19.6328 8.8457 18.7305 8.8457C17.8145 8.8457 17.0762 9.57031 17.0762 10.5C17.0762 11.4023 17.8145 12.1406 18.7305 12.1406ZM13.4805 18.1152L16.4609 18.1152L19.5508 14.957C19.6875 14.8066 19.9473 14.8203 20.084 14.957L21.3555 16.2422L20.0566 17.541C19.373 18.2246 20.3984 19.25 21.082 18.5801L22.9004 16.748C23.2012 16.4336 23.1875 16.0098 22.9004 15.709L20.7676 13.5898C20.3438 13.166 19.8105 12.9336 19.2363 12.9336L13.6719 12.9336L13.6719 14.4102L15.5176 14.4102C15.6543 14.4102 15.7227 14.5332 15.627 14.6289L13.4805 16.7754ZM6.31641 18.1152L13.9863 18.1152L13.9863 4.52539C13.9863 3.92383 13.0977 3.66406 12.7148 4.36133L5.74219 17.0625C5.45508 17.5957 5.76953 18.1152 6.31641 18.1152ZM6.83594 17.1855C6.78125 17.1855 6.78125 17.1582 6.80859 17.1172L12.9746 5.83789C13.002 5.75586 13.0566 5.7832 13.0566 5.83789L13.0566 17.1855ZM6.125 21.1914L6.16602 21.1914C8.24414 21.1914 8.68164 19.9609 10.0488 19.9609C11.416 19.9609 11.8672 21.1914 13.9316 21.1914C15.9961 21.1914 16.4336 19.9609 17.8008 19.9609C19.1816 19.9609 19.6191 21.1914 21.6836 21.1914L21.7246 21.1914C21.9707 21.1914 22.1895 20.9727 22.1895 20.7266C22.1895 20.4805 21.9707 20.2617 21.7246 20.2617L21.6836 20.2617C20.2617 20.2617 19.7695 19.0312 17.8008 19.0312C15.8457 19.0312 15.3398 20.2617 13.9316 20.2617C12.4961 20.2617 12.0176 19.0312 10.0488 19.0312C8.08008 19.0312 7.58789 20.2617 6.16602 20.2617L6.125 20.2617C5.87891 20.2617 5.66016 20.4805 5.66016 20.7266C5.66016 20.9727 5.87891 21.1914 6.125 21.1914Z" fill="black" fill-opacity="0.85"/>
 </g>
</svg>
