<?xml version="1.0" encoding="UTF-8"?>
<!--Generator: Apple Native CoreSVG 326-->
<!DOCTYPE svg
PUBLIC "-//W3C//DTD SVG 1.1//EN"
       "http://www.w3.org/Graphics/SVG/1.1/DTD/svg11.dtd">
<svg version="1.1" xmlns="http://www.w3.org/2000/svg" xmlns:xlink="http://www.w3.org/1999/xlink" viewBox="0 0 28.2461 27.9043">
 <g>
  <rect height="27.9043" opacity="0" width="28.2461" x="0" y="0"/>
  <path d="M13.9453 27.8906C21.6426 27.8906 27.8906 21.6426 27.8906 13.9453C27.8906 6.24805 21.6426 0 13.9453 0C6.24805 0 0 6.24805 0 13.9453C0 21.6426 6.24805 27.8906 13.9453 27.8906ZM13.9453 25.5664C7.51953 25.5664 2.32422 20.3711 2.32422 13.9453C2.32422 7.51953 7.51953 2.32422 13.9453 2.32422C20.3711 2.32422 25.5664 7.51953 25.5664 13.9453C25.5664 20.3711 20.3711 25.5664 13.9453 25.5664Z" fill="black" fill-opacity="0.85"/>
  <path d="M13.7266 18.0879C14.123 18.0879 14.4648 17.7461 14.4648 17.3359L14.4648 13.5352C14.4648 13.3574 14.3965 13.1797 14.2598 13.0293L12.2773 10.8281C12.1543 10.6914 12.2363 10.4727 12.4277 10.4727L14.8613 10.4727C15.1484 10.4727 15.2441 10.6914 15.2441 10.8965L15.2441 12.7832C15.2441 13.1797 15.5859 13.5352 15.9961 13.5352L19.0449 13.5352C19.4551 13.5352 19.7832 13.1797 19.7832 12.7832C19.7832 12.3594 19.4551 12.0176 19.0449 12.0176L16.7617 12.0176L16.7617 9.35156C16.7617 8.50391 16.0781 7.83398 15.2441 7.83398L11.5254 7.83398C10.7598 7.83398 10.0762 8.29883 9.77539 8.99609C9.48828 9.7207 9.63867 10.5273 10.1855 11.0742L12.9609 13.8633L12.9609 17.3359C12.9609 17.7461 13.3027 18.0879 13.7266 18.0879ZM8.70898 20.6309C10.7461 20.6309 12.4004 19.0039 12.4004 16.9531C12.4004 14.916 10.7461 13.2754 8.70898 13.2754C6.67188 13.2754 5.04492 14.916 5.04492 16.9531C5.04492 19.0039 6.67188 20.6309 8.70898 20.6309ZM8.70898 19.6875C7.19141 19.6875 5.97461 18.4844 5.97461 16.9531C5.97461 15.4355 7.19141 14.2051 8.70898 14.2051C10.2266 14.2051 11.4707 15.4355 11.4707 16.9531C11.4707 18.4844 10.2266 19.6875 8.70898 19.6875ZM20.5352 14.9707C21.082 15.4629 21.4512 16.1875 21.4512 16.9941C21.4512 18.5117 20.2344 19.7285 18.7031 19.7285C17.1855 19.7285 15.9551 18.5117 15.9551 16.9941C15.9551 16.625 16.0234 16.2559 16.1738 15.9004C16.3242 15.5586 16.1738 15.3125 15.9414 15.2305C15.7227 15.1348 15.4629 15.2031 15.3535 15.5039C15.1348 15.9688 15.0254 16.4746 15.0254 16.9941C15.0254 19.0449 16.666 20.6719 18.7031 20.6719C20.7539 20.6719 22.3945 19.0449 22.3945 16.9941C22.3945 15.9004 21.8887 14.9023 21.123 14.2188C20.877 14 20.5898 14.0957 20.4395 14.2461C20.2754 14.4375 20.248 14.6973 20.5352 14.9707ZM19.168 9.87109C20.084 9.87109 20.8086 9.11914 20.8086 8.2168C20.8086 7.30078 20.084 6.5625 19.168 6.5625C18.252 6.5625 17.5137 7.30078 17.5137 8.2168C17.5137 9.11914 18.252 9.87109 19.168 9.87109Z" fill="black" fill-opacity="0.85"/>
 </g>
</svg>
