<?xml version="1.0" encoding="UTF-8"?>
<!--Generator: Apple Native CoreSVG 326-->
<!DOCTYPE svg
PUBLIC "-//W3C//DTD SVG 1.1//EN"
       "http://www.w3.org/Graphics/SVG/1.1/DTD/svg11.dtd">
<svg version="1.1" xmlns="http://www.w3.org/2000/svg" xmlns:xlink="http://www.w3.org/1999/xlink" viewBox="0 0 28.2461 27.9043">
 <g>
  <rect height="27.9043" opacity="0" width="28.2461" x="0" y="0"/>
  <path d="M13.9453 27.8906C21.6426 27.8906 27.8906 21.6289 27.8906 13.9453C27.8906 6.24805 21.6426 0 13.9453 0C6.26172 0 0 6.24805 0 13.9453C0 21.6289 6.26172 27.8906 13.9453 27.8906Z" fill="black" fill-opacity="0.85"/>
  <path d="M14.0684 7.64258C13.125 7.64258 12.3594 6.87695 12.3594 5.93359C12.3594 5.00391 13.125 4.23828 14.0684 4.23828C14.998 4.23828 15.75 5.00391 15.75 5.93359C15.75 6.87695 14.998 7.64258 14.0684 7.64258ZM7.31445 21.2598L9.63867 18.6074L9.63867 14.5195C9.63867 14.0273 9.7207 13.5078 9.87109 13.0156L10.1992 12.0859L8.75 12.0859C8.03906 12.0859 7.75195 11.2383 8.27148 10.7188L9.80273 9.16016C10.3223 8.64062 10.8691 8.46289 11.5117 8.46289L20.9043 8.46289C21.5469 8.46289 22.1074 9.00977 22.1074 9.65234C22.1074 10.3359 21.5469 10.8828 20.9043 10.8828C20.3711 10.8828 19.9199 10.541 19.7422 10.0625L14.6562 10.0625C14.4922 10.0625 14.3555 10.1309 14.3008 10.3223L13.1387 13.7676L15.5039 17.2266C15.6133 17.377 15.6816 17.5137 15.6816 17.7324L15.6816 21.9844C15.6816 22.4219 15.2988 22.791 14.8887 22.791C14.4375 22.791 14.0684 22.4219 14.0684 21.9844L14.0684 18.0059L11.8398 15.4219C11.7578 15.3262 11.6348 15.3809 11.6211 15.4766L11.252 18.9082C11.2383 19.1133 11.1562 19.3047 11.0059 19.4688L8.53125 22.3125C8.2168 22.6543 7.71094 22.668 7.38281 22.4082C7.04102 22.0938 7.01367 21.6016 7.31445 21.2598Z" fill="white"/>
 </g>
</svg>
