<?xml version="1.0" encoding="UTF-8"?>
<!--Generator: Apple Native CoreSVG 326-->
<!DOCTYPE svg
PUBLIC "-//W3C//DTD SVG 1.1//EN"
       "http://www.w3.org/Graphics/SVG/1.1/DTD/svg11.dtd">
<svg version="1.1" xmlns="http://www.w3.org/2000/svg" xmlns:xlink="http://www.w3.org/1999/xlink" viewBox="0 0 44.4967 28.4512">
 <g>
  <rect height="28.4512" opacity="0" width="44.4967" x="0" y="0"/>
  <path d="M36.5765 7.7793C38.6272 7.7793 40.2679 6.07031 40.2679 4.08789C40.2679 2.02344 38.6272 0.355469 36.5765 0.355469C34.512 0.355469 32.8577 2.02344 32.8577 4.08789C32.8577 6.125 34.512 7.7793 36.5765 7.7793ZM14.5511 27.3438C15.262 28.082 16.4788 28.0273 17.3401 27.125L23.2327 21.0547C23.4241 20.8496 23.5608 20.7949 23.8616 20.918L28.4554 22.6543C31.4085 23.7891 34.1839 22.8184 35.4827 20.4668L38.4358 15.0938C39.5843 13.002 39.2151 10.8418 37.2327 9.77539C35.2913 8.72266 33.2952 9.51562 32.1331 11.6621L28.2913 18.6484L25.0374 17.459C23.4104 16.8711 22.0706 17.0625 20.7854 18.4023L14.6741 24.7188C13.8265 25.5938 13.9085 26.6875 14.5511 27.3438Z" fill="black" fill-opacity="0.85"/>
  <path d="M0.236614 4.75781L3.95536 9.50195C4.11943 9.7207 4.37919 9.76172 4.61161 9.625C5.50029 9.16016 6.77177 8.8457 7.76982 8.8457C8.78154 8.8457 10.053 9.16016 10.9143 9.625C11.1741 9.76172 11.4339 9.7207 11.5843 9.50195L15.3167 4.75781C15.6858 4.2793 15.6175 3.80078 15.18 3.44531C13.6624 2.2832 10.7913 1.39453 7.76982 1.39453C4.762 1.39453 1.89091 2.2832 0.387005 3.44531C-0.0778388 3.80078-0.118854 4.2793 0.236614 4.75781ZM4.09208 12.2773C3.66825 11.7168 3.49052 11.1973 3.49052 10.6367C3.49052 9.35156 4.52958 9.02344 4.52958 8.27148C4.52958 7.50586 3.49052 7.19141 3.49052 5.86523C3.49052 5.31836 3.66825 4.79883 4.09208 4.25195C4.5706 3.67773 5.43193 4.29297 4.96708 4.89453C4.6663 5.31836 4.58427 5.55078 4.58427 5.86523C4.58427 6.79492 5.60966 7.05469 5.60966 8.27148C5.60966 9.47461 4.58427 9.74805 4.58427 10.6367C4.58427 10.9922 4.6663 11.1973 4.96708 11.6348C5.41825 12.2227 4.5706 12.8516 4.09208 12.2773ZM7.30497 12.2773C6.90849 11.7168 6.71708 11.1973 6.71708 10.6367C6.71708 9.35156 7.75615 9.02344 7.75615 8.27148C7.75615 7.50586 6.71708 7.19141 6.71708 5.86523C6.71708 5.31836 6.89482 4.79883 7.30497 4.25195C7.78349 3.67773 8.65849 4.29297 8.20732 4.89453C7.89286 5.31836 7.81083 5.55078 7.81083 5.86523C7.81083 6.79492 8.8499 7.05469 8.8499 8.27148C8.8499 9.47461 7.81083 9.74805 7.81083 10.6367C7.81083 10.9922 7.89286 11.1973 8.19365 11.6348C8.64482 12.2227 7.78349 12.8516 7.30497 12.2773ZM10.5589 12.2773C10.1351 11.7168 9.94365 11.1973 9.94365 10.6367C9.94365 9.35156 10.9964 9.02344 10.9964 8.27148C10.9964 7.50586 9.94365 7.19141 9.94365 5.86523C9.94365 5.31836 10.1214 4.79883 10.5726 4.25195C11.0374 3.67773 11.8851 4.29297 11.4339 4.89453C11.1331 5.31836 11.0374 5.55078 11.0374 5.86523C11.0374 6.79492 12.0765 7.05469 12.0765 8.27148C12.0765 9.47461 11.0374 9.74805 11.0374 10.6367C11.0374 10.9922 11.1331 11.1973 11.4202 11.6348C11.8851 12.2227 11.0237 12.8516 10.5589 12.2773ZM22.4534 0C21.9065 0 21.4554 0.4375 21.4554 1.01172L21.4554 6.33008L19.2405 6.33008C18.2151 6.33008 17.8597 7.35547 18.4886 8.05273L21.7288 11.7168C22.1663 12.209 22.7542 12.209 23.2054 11.7168L26.4456 8.05273C27.1018 7.32812 26.6643 6.33008 25.6936 6.33008L23.4651 6.33008L23.4651 1.01172C23.4651 0.4375 23.0276 0 22.4534 0Z" fill="black" fill-opacity="0.85"/>
 </g>
</svg>
