<?xml version="1.0" encoding="UTF-8"?>
<!--Generator: Apple Native CoreSVG 326-->
<!DOCTYPE svg
PUBLIC "-//W3C//DTD SVG 1.1//EN"
       "http://www.w3.org/Graphics/SVG/1.1/DTD/svg11.dtd">
<svg version="1.1" xmlns="http://www.w3.org/2000/svg" xmlns:xlink="http://www.w3.org/1999/xlink" viewBox="0 0 20.084 34.5116">
 <g>
  <rect height="34.5116" opacity="0" width="20.084" x="0" y="0"/>
  <path d="M8.44922 13.7353C10.0762 13.7353 11.4023 12.4091 11.4023 10.7412C11.4023 9.10053 10.0762 7.77435 8.44922 7.77435C6.78125 7.77435 5.45508 9.10053 5.45508 10.7412C5.45508 12.4091 6.78125 13.7353 8.44922 13.7353ZM1.39453 34.5029L8.44922 34.5029C9.29688 34.5029 9.69336 34.0927 9.83008 33.3408L11.0332 26.7509L16.6113 26.7509L15.5176 32.8212C15.3535 33.7919 15.9961 34.4345 16.707 34.5029C17.3906 34.5712 18.1426 34.2431 18.3066 33.3408L19.6738 25.7255C19.8516 24.6591 19.2363 24.0165 18.4707 23.9345L13.5078 23.3876L13.9316 18.6845C13.9453 18.4521 14.1367 18.3017 14.3555 18.3017L18.3203 18.3017C19.0859 18.3017 19.7285 17.6454 19.7285 16.8798L19.7285 9.12787C19.7285 8.55365 19.373 8.03412 18.8398 7.82904C18.3203 7.61029 17.7188 7.70599 17.3086 8.11615L9.58398 15.8681C8.90039 16.5517 8.46289 17.413 8.36719 18.4658L7.15039 31.6865L1.39453 31.6865C0.615234 31.6865 0 32.3017 0 33.081C0 33.8603 0.615234 34.5029 1.39453 34.5029ZM16.9121 12.5322L16.9121 15.4579L13.959 15.4579ZM14.082 8.38959L17.2539 11.2197L17.9922 10.3994L14.8613 7.5556ZM6.24805 2.6474L13.4668 9.15521C13.9043 9.5517 14.4785 9.49701 14.9023 9.05951L15.627 8.32123C16.0645 7.88373 15.9824 7.26849 15.5586 6.87201L8.29883 0.336854C7.86133-0.0596305 7.24609-0.0186149 6.84961 0.418885L6.16602 1.21185C5.7832 1.64935 5.79688 2.23724 6.24805 2.6474Z" fill="black" fill-opacity="0.85"/>
 </g>
</svg>
