<?xml version="1.0" encoding="UTF-8"?>
<!--Generator: Apple Native CoreSVG 326-->
<!DOCTYPE svg
PUBLIC "-//W3C//DTD SVG 1.1//EN"
       "http://www.w3.org/Graphics/SVG/1.1/DTD/svg11.dtd">
<svg version="1.1" xmlns="http://www.w3.org/2000/svg" xmlns:xlink="http://www.w3.org/1999/xlink" viewBox="0 0 28.2461 27.9043">
 <g>
  <rect height="27.9043" opacity="0" width="28.2461" x="0" y="0"/>
  <path d="M13.9453 27.8906C21.6426 27.8906 27.8906 21.6426 27.8906 13.9453C27.8906 6.24805 21.6426 0 13.9453 0C6.24805 0 0 6.24805 0 13.9453C0 21.6426 6.24805 27.8906 13.9453 27.8906ZM13.9453 25.5664C7.51953 25.5664 2.32422 20.3711 2.32422 13.9453C2.32422 7.51953 7.51953 2.32422 13.9453 2.32422C20.3711 2.32422 25.5664 7.51953 25.5664 13.9453C25.5664 20.3711 20.3711 25.5664 13.9453 25.5664Z" fill="black" fill-opacity="0.85"/>
  <path d="M15.9688 8.16211C16.8848 8.16211 17.623 7.4375 17.623 6.50781C17.623 5.60547 16.8848 4.88086 15.9688 4.88086C15.0664 4.88086 14.3281 5.60547 14.3281 6.50781C14.3281 7.4375 15.0664 8.16211 15.9688 8.16211ZM7.79297 15.9824L12.127 15.9824L16.1602 16.5566C17.6641 16.7617 18.7441 16.1055 18.7441 14.6699L18.7441 11.9492C18.7441 11.8125 18.8809 11.7578 18.9902 11.8672L19.7148 12.6191L19.7148 15.2031C19.7148 15.6406 20.084 15.9824 20.5078 15.9824C20.9453 15.9824 21.2871 15.6406 21.2871 15.2031L21.2871 12.2773C21.2871 12.0723 21.2188 11.8809 21.0547 11.7305L19.1406 9.83008C18.5801 9.26953 17.8555 8.95508 17.0488 8.95508L9.59766 8.95508C9.1875 8.95508 8.81836 9.32422 8.81836 9.73438C8.81836 10.1719 9.16016 10.5273 9.59766 10.5273L15.3398 10.5273C15.5586 10.5273 15.7227 10.7051 15.7227 10.9102L15.7227 14.4102L7.79297 14.4102C7.35547 14.4102 7 14.7656 7 15.2031C7 15.6406 7.35547 15.9824 7.79297 15.9824ZM18.5117 22.668C18.8262 22.3672 18.8262 21.875 18.5117 21.5605L16.0234 19.0312L16.9395 17.2539C16.666 17.2676 16.3652 17.2539 16.0645 17.2129L14.998 17.0625L14.3145 18.9219C14.2051 19.209 14.2734 19.5234 14.5059 19.7422L17.4316 22.668C17.7324 22.9824 18.2109 22.9824 18.5117 22.668ZM5.52344 12.6465C6.49414 13.6309 7.60156 13.5215 8.01172 13.1113C8.42188 12.6875 8.44922 11.6758 7.47852 10.6914C6.48047 9.70703 5.45508 9.7207 5.04492 10.1582C4.63477 10.5547 4.52539 11.6484 5.52344 12.6465Z" fill="black" fill-opacity="0.85"/>
 </g>
</svg>
