<?xml version="1.0" encoding="UTF-8"?>
<!--Generator: Apple Native CoreSVG 326-->
<!DOCTYPE svg
PUBLIC "-//W3C//DTD SVG 1.1//EN"
       "http://www.w3.org/Graphics/SVG/1.1/DTD/svg11.dtd">
<svg version="1.1" xmlns="http://www.w3.org/2000/svg" xmlns:xlink="http://www.w3.org/1999/xlink" viewBox="0 0 32.9902 33.1816">
 <g>
  <rect height="33.1816" opacity="0" width="32.9902" x="0" y="0"/>
  <path d="M16.3242 5.97461C17.9648 5.97461 19.3184 4.64844 19.3184 2.9668C19.3184 1.32617 17.9648 0 16.3242 0C14.6699 0 13.3438 1.32617 13.3438 2.9668C13.3438 4.64844 14.6699 5.97461 16.3242 5.97461ZM13.3301 16.2012L19.3457 16.2012L19.3457 12.9336C19.3457 12.7012 19.7148 12.5918 19.8516 12.8789L23.666 20.6309C24.0078 21.3145 24.8281 21.6016 25.5117 21.2461C26.168 20.918 26.4551 20.084 26.1133 19.4004L21.0957 9.24219C20.4941 8.03906 19.373 7.32812 17.9648 7.32812L14.6973 7.32812C13.2891 7.32812 12.168 8.03906 11.5664 9.24219L6.54883 19.4004C6.20703 20.084 6.49414 20.918 7.15039 21.2461C7.83398 21.6016 8.64062 21.3145 8.98242 20.6309L12.8242 12.8789C12.9609 12.5918 13.3301 12.6738 13.3301 12.9199ZM10.7871 33.0586C11.4434 33.1953 12.1953 32.8535 12.4004 31.9238L13.6855 26.0449L16.3242 21.1777L18.9766 26.0449L20.2617 31.9238C20.4668 32.8945 21.2871 33.2227 21.957 33.0449C22.5996 32.8672 23.1191 32.252 22.9141 31.3223L21.6152 25.2656C21.6016 25.1426 21.5879 25.0605 21.5332 24.9375L19.9199 20.3574L12.7559 20.3574L11.1152 24.9375C11.0742 25.0605 11.0605 25.1426 11.0332 25.2656L9.73438 31.3223C9.5293 32.293 10.1172 32.9219 10.7871 33.0586ZM2.80273 22.873L3.5957 22.873C4.14258 22.873 4.51172 22.4902 4.51172 21.9434L4.51172 14.6016C4.51172 14.0547 4.14258 13.6855 3.5957 13.6855L2.80273 13.6855C2.25586 13.6855 1.88672 14.0547 1.88672 14.6016L1.88672 21.9434C1.88672 22.4902 2.25586 22.873 2.80273 22.873ZM29.0391 22.873L29.8457 22.873C30.3926 22.873 30.748 22.4902 30.748 21.9434L30.748 14.6016C30.748 14.0547 30.3926 13.6855 29.8457 13.6855L29.0391 13.6855C28.4922 13.6855 28.123 14.0547 28.123 14.6016L28.123 21.9434C28.123 22.4902 28.4922 22.873 29.0391 22.873ZM0.765625 19.0312L31.8828 19.0312C32.3066 19.0312 32.6348 18.7031 32.6348 18.2793C32.6348 17.8555 32.3066 17.5137 31.8828 17.5137L0.765625 17.5137C0.328125 17.5137 0 17.8555 0 18.2793C0 18.7031 0.328125 19.0312 0.765625 19.0312Z" fill="black" fill-opacity="0.85"/>
 </g>
</svg>
