<?xml version="1.0" encoding="UTF-8"?>
<!--Generator: Apple Native CoreSVG 326-->
<!DOCTYPE svg
PUBLIC "-//W3C//DTD SVG 1.1//EN"
       "http://www.w3.org/Graphics/SVG/1.1/DTD/svg11.dtd">
<svg version="1.1" xmlns="http://www.w3.org/2000/svg" xmlns:xlink="http://www.w3.org/1999/xlink" viewBox="0 0 33.3629 31.7857">
 <g>
  <rect height="31.7857" opacity="0" width="33.3629" x="0" y="0"/>
  <path d="M23.449 9.76102L23.449 13.0764C25.0164 13.3042 25.8416 14.3686 25.8416 16.2688L25.8416 25.6888C25.8416 27.8489 24.7752 28.9427 22.7654 28.9427L14.8233 28.9427C14.8315 28.6446 14.796 28.3245 14.7127 27.9856L13.2088 21.8196C13.1268 21.4778 13.1541 21.054 13.1541 20.5071L13.7283 20.7395C15.4783 21.4095 17.119 20.5345 17.5565 19.0032C17.9803 17.6223 17.3104 16.1184 15.7654 15.4895L12.5525 14.1634C12.7256 13.8082 12.8501 13.4287 12.9125 13.0286L21.2889 13.0286L21.2889 9.46024C21.2889 6.01493 19.0604 4.1829 16.5037 4.1829C13.9471 4.1829 11.7459 6.01493 11.7459 9.46024L11.7459 9.47903C11.1902 8.92395 10.4749 8.52826 9.6701 8.3667C10.2146 4.16493 13.2641 2.11844 16.5037 2.11844C20.0858 2.11844 23.449 4.6204 23.449 9.76102Z" fill="black" fill-opacity="0.85"/>
  <path d="M8.84747 14.6556C10.119 14.6556 11.1033 13.6575 11.1033 12.4134C11.1033 11.1692 10.119 10.1575 8.84747 10.1575C7.617 10.1575 6.59161 11.1692 6.59161 12.4134C6.59161 13.6575 7.617 14.6556 8.84747 14.6556ZM8.84747 22.6946C9.13458 22.6946 9.38067 22.8723 9.47638 23.2141L11.0076 29.1341C11.3494 30.4466 13.1541 29.9817 12.9764 28.7376C12.8807 28.2454 11.5682 23.2415 11.3768 22.1204C11.24 21.3001 11.3084 19.2083 11.3084 18.2649C11.3084 18.0052 11.5408 17.8274 11.8143 17.9505L14.4256 19.0032C15.1365 19.2903 15.6287 18.9485 15.7654 18.4837C15.9158 18.0188 15.7108 17.472 15.0545 17.2122L12.2518 16.0501C11.5818 15.7766 11.0076 15.6399 10.3514 15.5442C9.88653 15.763 9.39435 15.8997 8.84747 15.8997C8.28692 15.8997 7.79474 15.763 7.32989 15.5442C6.67364 15.6399 6.08575 15.7766 5.4295 16.0501L2.62677 17.2122C1.97052 17.472 1.76544 18.0188 1.91583 18.4837C2.05255 18.9485 2.54474 19.2903 3.25567 19.0032L5.867 17.9505C6.14044 17.8274 6.37286 18.0052 6.37286 18.2649C6.37286 19.2083 6.44122 21.3001 6.3045 22.1204C6.1131 23.2415 4.8006 28.2454 4.70489 28.7376C4.52716 29.9817 6.33185 30.4466 6.67364 29.1341L8.20489 23.2141C8.3006 22.8723 8.54669 22.6946 8.84747 22.6946Z" fill="black" fill-opacity="0.85"/>
 </g>
</svg>
