<?xml version="1.0" encoding="UTF-8"?>
<!--Generator: Apple Native CoreSVG 326-->
<!DOCTYPE svg
PUBLIC "-//W3C//DTD SVG 1.1//EN"
       "http://www.w3.org/Graphics/SVG/1.1/DTD/svg11.dtd">
<svg version="1.1" xmlns="http://www.w3.org/2000/svg" xmlns:xlink="http://www.w3.org/1999/xlink" viewBox="0 0 26.5645 27.7402">
 <g>
  <rect height="27.7402" opacity="0" width="26.5645" x="0" y="0"/>
  <path d="M3.67773 7.42383C5.75586 7.42383 7.39648 5.76953 7.39648 3.73242C7.39648 1.66797 5.75586 0 3.67773 0C1.64062 0 0 1.66797 0 3.73242C0 5.71484 1.64062 7.42383 3.67773 7.42383ZM25.7168 26.9883C26.3594 26.332 26.4414 25.2383 25.5938 24.3633L19.4824 18.0469C18.1973 16.707 16.8438 16.5156 15.2305 17.1035L11.9629 18.293L8.13477 11.3066C6.97266 9.16016 4.96289 8.36719 3.03516 9.41992C1.03906 10.4863 0.683594 12.6465 1.83203 14.7383L4.78516 20.1113C6.07031 22.4629 8.85938 23.4336 11.8125 22.2988L16.4062 20.5625C16.707 20.4395 16.8438 20.4941 17.0352 20.6992L22.9141 26.7695C23.7891 27.6719 25.0059 27.7266 25.7168 26.9883Z" fill="black" fill-opacity="0.85"/>
 </g>
</svg>
