<?xml version="1.0" encoding="UTF-8"?>
<!--Generator: Apple Native CoreSVG 326-->
<!DOCTYPE svg
PUBLIC "-//W3C//DTD SVG 1.1//EN"
       "http://www.w3.org/Graphics/SVG/1.1/DTD/svg11.dtd">
<svg version="1.1" xmlns="http://www.w3.org/2000/svg" xmlns:xlink="http://www.w3.org/1999/xlink" viewBox="0 0 20.9434 32.0879">
 <g>
  <rect height="32.0879" opacity="0" width="20.9434" x="0" y="0"/>
  <path d="M8.57128 5.94727C10.2119 5.94727 11.5518 4.60742 11.5518 2.98047C11.5518 1.33984 10.2119 0 8.57128 0C6.93066 0 5.59082 1.33984 5.59082 2.98047C5.59082 4.60742 6.93066 5.94727 8.57128 5.94727ZM0.668941 12.9609C-0.944341 15.2031 0.477534 18.2383 3.67675 17.7598L8.69433 17.0078L6.75293 22.7773C6.09668 24.6914 8.77636 25.4844 9.37793 23.6797L11.9619 15.8457C12.2764 14.9023 11.6885 13.9727 10.5811 13.9727L5.63183 13.9727L8.22949 10.5137C8.48925 10.1582 8.65332 10.1172 8.99511 10.1172L19.2217 10.1172C19.9736 10.1172 20.5889 9.51562 20.5889 8.75C20.5889 7.99805 19.9873 7.38281 19.2217 7.38281L6.21972 7.38281C5.26269 7.38281 4.333 7.875 3.73144 8.69531ZM1.87207 31.0352C1.87207 31.6641 2.30957 32.0742 2.95214 32.0742L13.2061 32.0742C13.8486 32.0742 14.2725 31.6641 14.2725 31.0352L14.2725 26.9199C14.2725 26.3047 13.8486 25.8945 13.2061 25.8945L2.95214 25.8945C2.30957 25.8945 1.87207 26.3047 1.87207 26.9199Z" fill="black" fill-opacity="0.85"/>
 </g>
</svg>
