<?xml version="1.0" encoding="UTF-8"?>
<!--Generator: Apple Native CoreSVG 326-->
<!DOCTYPE svg
PUBLIC "-//W3C//DTD SVG 1.1//EN"
       "http://www.w3.org/Graphics/SVG/1.1/DTD/svg11.dtd">
<svg version="1.1" xmlns="http://www.w3.org/2000/svg" xmlns:xlink="http://www.w3.org/1999/xlink" viewBox="0 0 28.2461 27.9043">
 <g>
  <rect height="27.9043" opacity="0" width="28.2461" x="0" y="0"/>
  <path d="M13.9453 27.8906C21.6426 27.8906 27.8906 21.6426 27.8906 13.9453C27.8906 6.24805 21.6426 0 13.9453 0C6.24805 0 0 6.24805 0 13.9453C0 21.6426 6.24805 27.8906 13.9453 27.8906ZM13.9453 25.5664C7.51953 25.5664 2.32422 20.3711 2.32422 13.9453C2.32422 7.51953 7.51953 2.32422 13.9453 2.32422C20.3711 2.32422 25.5664 7.51953 25.5664 13.9453C25.5664 20.3711 20.3711 25.5664 13.9453 25.5664Z" fill="black" fill-opacity="0.85"/>
  <path d="M6.76758 7.12305L7.30078 7.12305C7.28711 6.83594 7.3418 6.52148 7.49219 6.24805L6.76758 6.24805C6.53516 6.24805 6.34375 6.43945 6.34375 6.68555C6.34375 6.93164 6.53516 7.12305 6.76758 7.12305ZM10.5547 7.12305L17.6777 7.12305L18.1562 6.42578C18.1973 6.35742 18.2109 6.31641 18.252 6.24805L9.98047 6.24805C10.0352 6.33008 10.0625 6.37109 10.1035 6.42578ZM20.9453 7.12305L21.3008 7.12305C21.5469 7.12305 21.7246 6.93164 21.7246 6.68555C21.7246 6.43945 21.5469 6.24805 21.3008 6.24805L20.7539 6.24805C20.9043 6.49414 20.9727 6.80859 20.9453 7.12305ZM14.1914 11.1699C15.0938 11.1699 15.8457 10.4453 15.8457 9.5293C15.8457 8.61328 15.0938 7.875 14.1914 7.875C13.2754 7.875 12.5234 8.61328 12.5234 9.5293C12.5234 10.4453 13.2754 11.1699 14.1914 11.1699ZM10.3086 17.6777C11.2246 18.7715 12.7012 18.6074 13.4531 17.5L20.1797 7.42383C20.4258 7.06836 20.3164 6.57617 19.9473 6.33008C19.6055 6.08398 19.0996 6.19336 18.8535 6.5625L15.8047 11.1426C15.4355 11.6895 14.834 11.9629 14.1914 11.9629C13.5078 11.9629 12.7969 11.6348 12.3594 10.9922L9.39258 6.5625C9.16016 6.19336 8.66797 6.08398 8.29883 6.33008C7.92969 6.57617 7.84766 7.06836 8.09375 7.42383L11.7305 12.8789C11.8945 13.125 12.0449 13.2344 11.7305 13.7266L10.8281 15.0938L8.55859 13.125C8.23047 12.8516 7.73828 12.8242 7.39648 13.1797L4.59375 15.9824C4.29297 16.3105 4.29297 16.7891 4.59375 17.0898C4.94922 17.418 5.40039 17.3633 5.70117 17.0898L7.95703 14.8477ZM11.9082 23.3105C12.1406 22.9414 12.0586 22.4902 11.6758 22.2441L9.20117 20.5898L10.7734 18.8535C10.4316 18.7031 10.1035 18.4434 9.80273 18.1016L9.26953 17.459L7.35547 20.2891C7.12305 20.6445 7.19141 21.1504 7.57422 21.3828L10.8281 23.5293C11.2109 23.7754 11.6758 23.6523 11.9082 23.3105Z" fill="black" fill-opacity="0.85"/>
 </g>
</svg>
