<?xml version="1.0" encoding="UTF-8"?>
<!--Generator: Apple Native CoreSVG 326-->
<!DOCTYPE svg
PUBLIC "-//W3C//DTD SVG 1.1//EN"
       "http://www.w3.org/Graphics/SVG/1.1/DTD/svg11.dtd">
<svg version="1.1" xmlns="http://www.w3.org/2000/svg" xmlns:xlink="http://www.w3.org/1999/xlink" viewBox="0 0 28.2461 27.9043">
 <g>
  <rect height="27.9043" opacity="0" width="28.2461" x="0" y="0"/>
  <path d="M13.9453 27.8906C21.6426 27.8906 27.8906 21.6426 27.8906 13.9453C27.8906 6.24805 21.6426 0 13.9453 0C6.24805 0 0 6.24805 0 13.9453C0 21.6426 6.24805 27.8906 13.9453 27.8906ZM13.9453 25.5664C7.51953 25.5664 2.32422 20.3711 2.32422 13.9453C2.32422 7.51953 7.51953 2.32422 13.9453 2.32422C20.3711 2.32422 25.5664 7.51953 25.5664 13.9453C25.5664 20.3711 20.3711 25.5664 13.9453 25.5664Z" fill="black" fill-opacity="0.85"/>
  <path d="M13.918 7.9707C14.8203 7.9707 15.5586 7.21875 15.5586 6.30273C15.5586 5.41406 14.8203 4.66211 13.918 4.66211C13.002 4.66211 12.2637 5.41406 12.2637 6.30273C12.2637 7.21875 13.002 7.9707 13.918 7.9707ZM17.377 22.6406C17.8145 22.6406 18.1562 22.2988 18.1562 21.8613L18.1562 17.5957C18.1562 17.4043 18.0605 17.1309 17.8145 16.9805L15.0527 15.1621L15.0527 10.4863C15.0527 10.3906 15.1348 10.2949 15.2441 10.2949L21.2324 10.2949C21.6699 10.2949 22.0117 9.95312 22.0117 9.5293C22.0117 9.11914 21.6699 8.76367 21.2324 8.76367L12.7148 8.76367C12.0039 8.76367 11.6074 9.02344 11.2383 9.47461L9.22852 11.9355C8.73633 12.5371 9.11914 13.3848 9.76172 13.3848L11.9766 13.3848L11.9766 14.4512C11.9766 15.1621 12.373 15.8184 13.002 16.1465L16.6113 18.0879L16.6113 21.8613C16.6113 22.2988 16.9531 22.6406 17.377 22.6406ZM11.1973 11.8945L12.0176 10.8555L12.0176 11.8945ZM8.70898 22.3809C8.98242 22.6953 9.47461 22.7363 9.80273 22.4355L12.8242 19.7969C12.9746 19.6602 13.0293 19.5918 13.084 19.4551L13.918 17.3906L12.6875 16.7207C12.4961 16.6113 12.3594 16.5293 12.3184 16.4883L11.6895 18.7441L8.77734 21.2871C8.46289 21.5605 8.42188 22.0664 8.70898 22.3809Z" fill="black" fill-opacity="0.85"/>
 </g>
</svg>
