<?xml version="1.0" encoding="UTF-8"?>
<!--Generator: Apple Native CoreSVG 326-->
<!DOCTYPE svg
PUBLIC "-//W3C//DTD SVG 1.1//EN"
       "http://www.w3.org/Graphics/SVG/1.1/DTD/svg11.dtd">
<svg version="1.1" xmlns="http://www.w3.org/2000/svg" xmlns:xlink="http://www.w3.org/1999/xlink" viewBox="0 0 33.4004 34.6309">
 <g>
  <rect height="34.6309" opacity="0" width="33.4004" x="0" y="0"/>
  <path d="M25.1506 3.91016L7.89434 3.91016C7.95046 2.79901 8.65169 2.16016 9.81641 2.16016L23.2285 2.16016C24.3932 2.16016 25.0945 2.79901 25.1506 3.91016Z" fill="black" fill-opacity="0.85"/>
  <path d="M27.9473 7.81549C27.5075 7.7456 27.0411 7.71094 26.5508 7.71094L6.49414 7.71094C6.00391 7.71094 5.53762 7.74558 5.09803 7.81545C5.24689 6.50197 6.13568 5.76953 7.58789 5.76953L25.4707 5.76953C26.9229 5.76953 27.8005 6.50199 27.9473 7.81549Z" fill="black" fill-opacity="0.85"/>
  <path d="M4.62109 32.3887L28.4375 32.3887C29.9551 32.3887 30.9121 31.4316 30.9121 29.9551L30.9121 12.3594C30.9121 10.8828 29.9551 9.91211 28.4375 9.91211L4.62109 9.91211C3.08984 9.91211 2.13281 10.8828 2.13281 12.3594L2.13281 29.9551C2.13281 31.4316 3.08984 32.3887 4.62109 32.3887ZM4.58008 14.4648C4.21094 14.4648 3.97852 14.2188 3.97852 13.9043L3.97852 12.5234C3.97852 12.1406 4.22461 11.8809 4.62109 11.8809L6.16602 11.8809C6.50781 11.8809 6.72656 12.127 6.72656 12.4824L6.72656 13.9043C6.72656 14.2188 6.50781 14.4648 6.16602 14.4648ZM4.58008 18.498C4.21094 18.498 3.97852 18.2383 3.97852 17.9512L3.97852 16.5293C3.97852 16.2012 4.21094 15.9414 4.58008 15.9414L6.16602 15.9414C6.50781 15.9414 6.72656 16.2012 6.72656 16.5293L6.72656 17.9512C6.72656 18.2383 6.50781 18.498 6.16602 18.498ZM4.58008 22.4492C4.21094 22.4492 3.97852 22.1758 3.97852 21.8477L3.97852 20.4941C3.97852 20.1113 4.21094 19.8652 4.58008 19.8652L6.16602 19.8652C6.50781 19.8652 6.72656 20.1113 6.72656 20.4941L6.72656 21.8477C6.72656 22.1758 6.50781 22.4492 6.16602 22.4492ZM4.58008 26.373C4.21094 26.373 3.97852 26.1133 3.97852 25.8125L3.97852 24.418C3.97852 24.0625 4.21094 23.8301 4.58008 23.8301L6.16602 23.8301C6.50781 23.8301 6.72656 24.0625 6.72656 24.418L6.72656 25.8125C6.72656 26.1133 6.50781 26.373 6.16602 26.373ZM4.62109 30.4199C4.22461 30.4199 3.97852 30.1602 3.97852 29.791L3.97852 28.4238C3.97852 28.0684 4.21094 27.8359 4.58008 27.8359L6.16602 27.8359C6.50781 27.8359 6.72656 28.0684 6.72656 28.4238L6.72656 29.8457C6.72656 30.1738 6.50781 30.4199 6.16602 30.4199ZM26.8926 14.4648C26.5508 14.4648 26.3184 14.2188 26.3184 13.9043L26.3184 12.4824C26.3184 12.127 26.5508 11.8809 26.8926 11.8809L28.4238 11.8809C28.8203 11.8809 29.0664 12.1406 29.0664 12.5234L29.0664 13.9043C29.0664 14.2188 28.834 14.4648 28.4648 14.4648ZM26.8926 18.498C26.5508 18.498 26.3184 18.2383 26.3184 17.9512L26.3184 16.5293C26.3184 16.2012 26.5508 15.9414 26.8926 15.9414L28.4648 15.9414C28.834 15.9414 29.0664 16.2012 29.0664 16.5293L29.0664 17.9512C29.0664 18.2383 28.834 18.498 28.4648 18.498ZM26.8926 22.4492C26.5508 22.4492 26.3184 22.1758 26.3184 21.8477L26.3184 20.4941C26.3184 20.1113 26.5508 19.8652 26.8926 19.8652L28.4648 19.8652C28.834 19.8652 29.0664 20.1113 29.0664 20.4941L29.0664 21.8477C29.0664 22.1758 28.834 22.4492 28.4648 22.4492ZM26.8926 26.373C26.5508 26.373 26.3184 26.1133 26.3184 25.8125L26.3184 24.418C26.3184 24.0625 26.5508 23.8301 26.8926 23.8301L28.4648 23.8301C28.834 23.8301 29.0664 24.0625 29.0664 24.418L29.0664 25.8125C29.0664 26.1133 28.834 26.373 28.4648 26.373ZM26.8926 30.4199C26.5508 30.4199 26.3184 30.1738 26.3184 29.8457L26.3184 28.4238C26.3184 28.0684 26.5508 27.8359 26.8926 27.8359L28.4648 27.8359C28.834 27.8359 29.0664 28.0684 29.0664 28.4238L29.0664 29.791C29.0664 30.1602 28.8203 30.4199 28.4238 30.4199ZM8.13477 21.1504C8.13477 20.6309 8.54492 20.2207 9.06445 20.2207L24.0078 20.2207C24.5273 20.2207 24.9238 20.6309 24.9238 21.1504C24.9238 21.6562 24.5273 22.0801 24.0078 22.0801L9.06445 22.0801C8.54492 22.0801 8.13477 21.6562 8.13477 21.1504Z" fill="black" fill-opacity="0.85"/>
 </g>
</svg>
