<?xml version="1.0" encoding="UTF-8"?>
<!--Generator: Apple Native CoreSVG 326-->
<!DOCTYPE svg
PUBLIC "-//W3C//DTD SVG 1.1//EN"
       "http://www.w3.org/Graphics/SVG/1.1/DTD/svg11.dtd">
<svg version="1.1" xmlns="http://www.w3.org/2000/svg" xmlns:xlink="http://www.w3.org/1999/xlink" viewBox="0 0 28.2461 27.9043">
 <g>
  <rect height="27.9043" opacity="0" width="28.2461" x="0" y="0"/>
  <path d="M13.9453 27.8906C21.6426 27.8906 27.8906 21.6426 27.8906 13.9453C27.8906 6.24805 21.6426 0 13.9453 0C6.24805 0 0 6.24805 0 13.9453C0 21.6426 6.24805 27.8906 13.9453 27.8906ZM13.9453 25.5664C7.51953 25.5664 2.32422 20.3711 2.32422 13.9453C2.32422 7.51953 7.51953 2.32422 13.9453 2.32422C20.3711 2.32422 25.5664 7.51953 25.5664 13.9453C25.5664 20.3711 20.3711 25.5664 13.9453 25.5664Z" fill="black" fill-opacity="0.85"/>
  <path d="M7.50586 20.043L20.3984 20.043C21.2051 20.043 21.7383 19.5234 21.7383 18.7305L21.7383 9.20117C21.7383 8.39453 21.2051 7.88867 20.3984 7.88867L7.50586 7.88867C6.68555 7.88867 6.16602 8.39453 6.16602 9.20117L6.16602 18.7305C6.16602 19.5234 6.68555 20.043 7.50586 20.043ZM7.65625 18.9219C7.38281 18.9219 7.23242 18.7441 7.23242 18.4844L7.23242 17.582C7.23242 17.3359 7.38281 17.1855 7.64258 17.1855L8.68164 17.1855C8.91406 17.1855 9.06445 17.3359 9.06445 17.582L9.06445 18.5117C9.06445 18.7441 8.91406 18.9219 8.68164 18.9219ZM7.64258 16.1328C7.38281 16.1328 7.23242 15.9551 7.23242 15.75L7.23242 14.834C7.23242 14.5742 7.38281 14.4238 7.64258 14.4238L8.68164 14.4238C8.91406 14.4238 9.06445 14.5742 9.06445 14.834L9.06445 15.75C9.06445 15.9551 8.91406 16.1328 8.68164 16.1328ZM7.64258 13.4121C7.38281 13.4121 7.23242 13.2344 7.23242 13.0293L7.23242 12.0996C7.23242 11.8535 7.38281 11.6895 7.64258 11.6895L8.68164 11.6895C8.91406 11.6895 9.06445 11.8535 9.06445 12.0996L9.06445 13.0293C9.06445 13.2344 8.91406 13.4121 8.68164 13.4121ZM7.64258 10.7051C7.38281 10.7051 7.23242 10.5273 7.23242 10.3223L7.23242 9.40625C7.23242 9.17383 7.38281 8.99609 7.64258 8.99609L8.68164 8.99609C8.91406 8.99609 9.06445 9.17383 9.06445 9.40625L9.06445 10.3223C9.06445 10.5273 8.91406 10.7051 8.68164 10.7051ZM19.209 18.9219C18.9902 18.9219 18.8398 18.7441 18.8398 18.5117L18.8398 17.582C18.8398 17.3359 18.9902 17.1855 19.209 17.1855L20.2617 17.1855C20.5215 17.1855 20.6719 17.3359 20.6719 17.582L20.6719 18.4844C20.6719 18.7441 20.5215 18.9219 20.248 18.9219ZM19.209 16.1328C18.9902 16.1328 18.8398 15.9551 18.8398 15.75L18.8398 14.834C18.8398 14.5742 18.9902 14.4238 19.209 14.4238L20.2617 14.4238C20.5215 14.4238 20.6719 14.5742 20.6719 14.834L20.6719 15.75C20.6719 15.9551 20.5215 16.1328 20.2617 16.1328ZM19.209 13.4121C18.9902 13.4121 18.8398 13.2344 18.8398 13.0293L18.8398 12.0996C18.8398 11.8535 18.9902 11.6895 19.209 11.6895L20.2617 11.6895C20.5215 11.6895 20.6719 11.8535 20.6719 12.0996L20.6719 13.0293C20.6719 13.2344 20.5215 13.4121 20.2617 13.4121ZM19.209 10.7051C18.9902 10.7051 18.8398 10.5273 18.8398 10.3223L18.8398 9.40625C18.8398 9.17383 18.9902 8.99609 19.209 8.99609L20.2617 8.99609C20.5215 8.99609 20.6719 9.17383 20.6719 9.40625L20.6719 10.3223C20.6719 10.5273 20.5215 10.7051 20.2617 10.7051ZM10.7461 13.3984C10.4863 13.3984 10.3496 13.2207 10.3496 13.0156L10.3496 9.40625C10.3496 9.17383 10.4863 8.99609 10.7461 8.99609L17.1719 8.99609C17.3906 8.99609 17.541 9.17383 17.541 9.40625L17.541 13.0156C17.541 13.2207 17.3906 13.3984 17.1719 13.3984ZM10.7461 18.9219C10.4863 18.9219 10.3496 18.7441 10.3496 18.5391L10.3496 14.916C10.3496 14.6973 10.4863 14.5059 10.7461 14.5059L17.1719 14.5059C17.3906 14.5059 17.541 14.6973 17.541 14.916L17.541 18.5391C17.541 18.7441 17.3906 18.9219 17.1719 18.9219Z" fill="black" fill-opacity="0.85"/>
 </g>
</svg>
