<?xml version="1.0" encoding="UTF-8"?>
<!--Generator: Apple Native CoreSVG 326-->
<!DOCTYPE svg
PUBLIC "-//W3C//DTD SVG 1.1//EN"
       "http://www.w3.org/Graphics/SVG/1.1/DTD/svg11.dtd">
<svg version="1.1" xmlns="http://www.w3.org/2000/svg" xmlns:xlink="http://www.w3.org/1999/xlink" viewBox="0 0 28.2461 27.9043">
 <g>
  <rect height="27.9043" opacity="0" width="28.2461" x="0" y="0"/>
  <path d="M13.9453 27.8906C21.6426 27.8906 27.8906 21.6426 27.8906 13.9453C27.8906 6.24805 21.6426 0 13.9453 0C6.24805 0 0 6.24805 0 13.9453C0 21.6426 6.24805 27.8906 13.9453 27.8906ZM13.9453 25.5664C7.51953 25.5664 2.32422 20.3711 2.32422 13.9453C2.32422 7.51953 7.51953 2.32422 13.9453 2.32422C20.3711 2.32422 25.5664 7.51953 25.5664 13.9453C25.5664 20.3711 20.3711 25.5664 13.9453 25.5664Z" fill="black" fill-opacity="0.85"/>
  <path d="M5.76953 17.459C5.7832 17.7324 5.94727 17.8555 6.2207 17.8555C7.72461 17.8281 8.96875 17.1309 10.0625 15.8457C11.2246 16.9941 12.5645 17.6914 13.9727 18.0059L13.7539 19.7969C13.6992 20.248 13.9453 20.4941 14.4648 20.4258C16.0234 20.166 17.7324 19.0723 18.6484 17.7461C20.9043 17.0625 22.9961 15.6406 22.9961 13.9316C22.9961 12.291 21.082 10.9238 18.9219 10.1855C18.1289 7.54688 14.6426 6.33008 12.168 7.69727C11.9082 7.83398 11.8809 8.05273 12.0859 8.33984C12.6602 9.0918 12.8516 9.5293 12.9746 10.1445C11.9082 10.541 10.9375 11.1426 10.0625 12.0312C8.96875 10.7461 7.72461 10.0215 6.2207 10.0215C5.94727 10.0215 5.7832 10.1445 5.76953 10.3906C5.63281 11.7031 6.23438 13.0977 7.17773 13.9316C6.23438 14.752 5.64648 16.1602 5.76953 17.459ZM19.7012 14.3828C19.291 14.3828 18.9629 14.0684 18.9629 13.6582C18.9629 13.248 19.291 12.9336 19.7012 12.9336C20.0977 12.9336 20.4258 13.248 20.4258 13.6582C20.4258 14.0684 20.0977 14.3828 19.7012 14.3828Z" fill="black" fill-opacity="0.85"/>
 </g>
</svg>
