<?xml version="1.0" encoding="UTF-8"?>
<!--Generator: Apple Native CoreSVG 326-->
<!DOCTYPE svg
PUBLIC "-//W3C//DTD SVG 1.1//EN"
       "http://www.w3.org/Graphics/SVG/1.1/DTD/svg11.dtd">
<svg version="1.1" xmlns="http://www.w3.org/2000/svg" xmlns:xlink="http://www.w3.org/1999/xlink" viewBox="0 0 30.2798 35.2939">
 <g>
  <rect height="35.2939" opacity="0" width="30.2798" x="0" y="0"/>
  <path d="M21.7472 24.2544C17.224 24.0892 14.1029 21.7964 9.23365 21.7964C7.22389 21.7964 5.93873 22.2886 5.59693 22.439L5.59693 30.0405C5.59693 30.6147 5.13209 31.0659 4.55787 31.0659C3.99732 31.0659 3.51881 30.6011 3.51881 30.0405L3.51881 7.31787C3.51881 6.90615 3.58618 6.55282 3.71179 6.25007ZM22.0989 6.71631C24.4504 6.71631 25.7083 6.14209 26.3782 6.14209C27.1712 6.14209 27.8001 6.56592 27.8001 7.3042L27.8001 21.1812C27.8001 21.7123 27.6903 22.1459 27.4915 22.5007L9.2271 4.24682C14.2011 4.29834 17.3418 6.71631 22.0989 6.71631Z" fill="#ff9500"/>
  <path d="M26.884 27.1421C27.3079 27.5522 27.9778 27.5522 28.3743 27.1421C28.7844 26.7183 28.7981 26.062 28.3743 25.6519L4.62623 1.90381C4.21607 1.49365 3.53248 1.49365 3.12232 1.90381C2.72584 2.30029 2.72584 2.99756 3.12232 3.39404Z" fill="#ff9500"/>
 </g>
</svg>
