<?xml version="1.0" encoding="UTF-8"?>
<!--Generator: Apple Native CoreSVG 326-->
<!DOCTYPE svg
PUBLIC "-//W3C//DTD SVG 1.1//EN"
       "http://www.w3.org/Graphics/SVG/1.1/DTD/svg11.dtd">
<svg version="1.1" xmlns="http://www.w3.org/2000/svg" xmlns:xlink="http://www.w3.org/1999/xlink" viewBox="0 0 52.3844 31.537">
 <g>
  <rect height="31.537" opacity="0" width="52.3844" x="0" y="0"/>
  <path d="M25.0886 20.6369L20.0672 29.3241C19.7937 29.83 19.1785 29.9941 18.6727 29.707C18.1805 29.4198 18.0027 28.7773 18.2898 28.2851L23.9014 18.5824ZM35.4207 1.61125C36.2273 1.70695 37.3074 2.13078 38.2918 2.705C41.7098 4.68742 42.9949 7.73625 46.3172 9.65031C47.7664 10.4843 49.0379 10.7987 49.6394 11.1405C50.3367 11.5507 50.6648 12.2343 50.2273 12.9862L44.7312 22.5155C44.116 23.582 43.2547 23.8827 42.2703 23.787C41.4637 23.6913 40.3973 23.2675 39.4129 22.6796C35.9949 20.6972 34.6961 17.662 31.3875 15.7343C30.2664 15.1054 29.2684 14.7636 28.6258 14.5175L28.1229 15.3874L26.9364 13.3348L32.9734 2.89641C33.5887 1.83 34.45 1.51555 35.4207 1.61125ZM36.241 17.1562C37.198 18.1952 38.1277 19.248 39.2898 20.123L41.0672 17.0468C39.8504 16.1581 38.9344 15.2968 37.95 14.203ZM41.0672 17.0468C41.3269 17.2382 41.5867 17.3886 41.9285 17.58C42.9129 18.1542 43.8016 18.5234 44.5398 18.7148L46.4129 15.4882C45.8523 15.3378 44.8816 14.996 43.7879 14.3534C43.4871 14.1894 43.2137 13.9843 42.9266 13.8202ZM31.3191 9.88273L29.7059 12.6581C30.5809 12.9042 31.6473 13.5058 32.4129 13.9433C32.6453 14.08 32.8641 14.203 33.0828 14.3534L34.8602 11.2909C34.5184 11.0448 34.2859 10.8808 33.8348 10.6347C32.6863 9.97844 31.784 9.8007 31.3191 9.88273ZM34.8602 11.2909C36.0769 12.1933 36.8973 13.1093 37.95 14.203L39.8094 10.9628C38.825 9.93742 37.9773 8.96672 36.7332 8.07805ZM39.8094 10.9628C40.7664 12.0155 41.7234 12.9726 42.9266 13.8202L44.5535 10.9902C43.282 10.1425 42.325 9.1718 41.409 8.20109ZM33.1785 6.65617C33.6707 6.56047 34.5594 6.7382 35.6941 7.39445C35.9812 7.57219 36.4051 7.84562 36.7332 8.07805L38.3602 5.22062C38.0184 4.97453 37.6492 4.72844 37.2527 4.49602C36.8973 4.29094 35.8719 3.70305 34.9012 3.66203Z" fill="black" fill-opacity="0.85"/>
  <path d="M33.3562 29.707C33.8348 29.4198 34.0125 28.7773 33.7254 28.2851L19.0555 2.89641C18.4402 1.83 17.5789 1.51555 16.5945 1.61125C15.7879 1.70695 14.7078 2.13078 13.7371 2.705C10.3191 4.68742 9.02031 7.73625 5.69804 9.65031C4.24882 10.4843 2.97734 10.7987 2.37578 11.1405C1.67851 11.5507 1.36406 12.2343 1.78789 12.9862L7.28398 22.5155C7.89921 23.582 8.76054 23.8827 9.74492 23.787C10.5516 23.6913 11.6316 23.2675 12.6023 22.6796C16.034 20.6972 17.3191 17.662 20.6414 15.7343C21.7488 15.1054 22.7605 14.7636 23.4031 14.5175L31.948 29.3241C32.2352 29.83 32.8504 29.9941 33.3562 29.707ZM15.282 8.07805L13.6551 5.22062C13.9969 4.97453 14.366 4.72844 14.7625 4.49602C15.118 4.29094 16.1434 3.70305 17.1277 3.66203L18.8504 6.65617C18.3582 6.56047 17.4559 6.7382 16.3211 7.39445C16.034 7.57219 15.6102 7.84562 15.282 8.07805ZM18.9324 14.3534L17.1551 11.2909C17.4969 11.0448 17.743 10.8808 18.1805 10.6347C19.3426 9.97844 20.2312 9.8007 20.7098 9.88273L22.3094 12.6581C21.4344 12.9042 20.368 13.5058 19.6023 13.9433C19.3699 14.08 19.1512 14.203 18.9324 14.3534ZM14.0652 14.203L12.2059 10.9628C13.1902 9.93742 14.0516 8.96672 15.282 8.07805L17.1551 11.2909C15.9519 12.1933 15.1316 13.1093 14.0652 14.203ZM9.10234 13.8202L7.47539 10.9902C8.74687 10.1425 9.7039 9.1718 10.6062 8.20109L12.2059 10.9628C11.2488 12.0155 10.3055 12.9726 9.10234 13.8202ZM12.7391 20.123L10.9617 17.0468C12.1648 16.1581 13.0809 15.2968 14.0652 14.203L15.7742 17.1562C14.8172 18.1952 13.9012 19.248 12.7391 20.123ZM7.47539 18.7148L5.61601 15.4882C6.17656 15.3378 7.13359 14.996 8.24101 14.3534C8.54179 14.1894 8.80156 13.9843 9.10234 13.8202L10.9617 17.0468C10.7019 17.2382 10.4422 17.3886 10.1004 17.58C9.10234 18.1542 8.22734 18.5234 7.47539 18.7148Z" fill="black" fill-opacity="0.85"/>
 </g>
</svg>
