<?xml version="1.0" encoding="UTF-8"?>
<!--Generator: Apple Native CoreSVG 326-->
<!DOCTYPE svg
PUBLIC "-//W3C//DTD SVG 1.1//EN"
       "http://www.w3.org/Graphics/SVG/1.1/DTD/svg11.dtd">
<svg version="1.1" xmlns="http://www.w3.org/2000/svg" xmlns:xlink="http://www.w3.org/1999/xlink" viewBox="0 0 25.3203 26.8379">
 <g>
  <rect height="26.8379" opacity="0" width="25.3203" x="0" y="0"/>
  <path d="M2.07812 26.8379C2.65234 26.8379 3.11719 26.3867 3.11719 25.8125L3.11719 18.2109C3.45898 18.0605 4.74414 17.5684 6.75391 17.5684C11.8125 17.5684 14.9844 20.043 19.7969 20.043C21.9297 20.043 22.7227 19.8105 23.7617 19.3457C24.7051 18.9219 25.3203 18.2109 25.3203 16.9531L25.3203 3.07617C25.3203 2.33789 24.6914 1.91406 23.8984 1.91406C23.2285 1.91406 21.9707 2.48828 19.6191 2.48828C14.8066 2.48828 11.6484 0.0136719 6.57617 0.0136719C4.44336 0.0136719 3.63672 0.246094 2.59766 0.710938C1.6543 1.13477 1.03906 1.8457 1.03906 3.08984L1.03906 25.8125C1.03906 26.373 1.51758 26.8379 2.07812 26.8379ZM19.7969 17.9785C15.2441 17.9785 12.0176 15.5039 6.75391 15.5039C5.25 15.5039 3.88281 15.6816 3.11719 15.9961L3.11719 3.1582C3.30859 2.70703 4.44336 2.07812 6.57617 2.07812C11.3887 2.07812 14.6016 4.55273 19.6191 4.55273C21.1094 4.55273 22.3398 4.375 23.2559 4.11523L23.2559 16.8984C23.0645 17.3496 21.9297 17.9785 19.7969 17.9785Z" fill="#ff9500"/>
 </g>
</svg>
