<?xml version="1.0" encoding="UTF-8"?>
<!--Generator: Apple Native CoreSVG 326-->
<!DOCTYPE svg
PUBLIC "-//W3C//DTD SVG 1.1//EN"
       "http://www.w3.org/Graphics/SVG/1.1/DTD/svg11.dtd">
<svg version="1.1" xmlns="http://www.w3.org/2000/svg" xmlns:xlink="http://www.w3.org/1999/xlink" viewBox="0 0 28.2461 27.9043">
 <g>
  <rect height="27.9043" opacity="0" width="28.2461" x="0" y="0"/>
  <path d="M13.9453 27.9043C21.6426 27.9043 27.8906 21.6562 27.8906 13.959C27.8906 6.27539 21.6426 0.0136719 13.9453 0.0136719C6.26172 0.0136719 0 6.27539 0 13.959C0 21.6562 6.26172 27.9043 13.9453 27.9043Z" fill="#ff9500"/>
  <path d="M14.9788 17.2939C13.6925 16.933 12.4821 16.4473 10.9102 16.4473C10.0352 16.4473 9.48828 16.6113 9.21484 16.7207L9.21484 20.877C9.21484 21.2461 8.96875 21.5332 8.58594 21.5332C8.23047 21.5332 7.91602 21.2324 7.91602 20.877L7.91602 10.2385ZM7.94336 7.04102L20.877 19.9746C21.123 20.2344 21.123 20.6172 20.877 20.877C20.6309 21.123 20.207 21.123 19.9746 20.877L7.02734 7.94336C6.79492 7.69727 6.78125 7.28711 7.02734 7.04102C7.28711 6.78125 7.69727 6.78125 7.94336 7.04102ZM17.3633 8.64062C18.5254 8.64062 19.1406 8.33984 19.5508 8.33984C20.125 8.33984 20.3438 8.64062 20.3438 9.06445L20.3438 15.9961C20.3438 16.5979 20.1039 16.9959 19.5904 17.2798L9.75729 7.44674C10.0379 7.40401 10.3821 7.38281 10.8418 7.38281C13.3711 7.38281 14.9707 8.64062 17.3633 8.64062Z" fill="white"/>
 </g>
</svg>
