<?xml version="1.0" encoding="UTF-8"?>
<!--Generator: Apple Native CoreSVG 326-->
<!DOCTYPE svg
PUBLIC "-//W3C//DTD SVG 1.1//EN"
       "http://www.w3.org/Graphics/SVG/1.1/DTD/svg11.dtd">
<svg version="1.1" xmlns="http://www.w3.org/2000/svg" xmlns:xlink="http://www.w3.org/1999/xlink" viewBox="0 0 25.3203 26.8379">
 <g>
  <rect height="26.8379" opacity="0" width="25.3203" x="0" y="0"/>
  <path d="M2.07812 26.8379C2.65234 26.8379 3.11719 26.3867 3.11719 25.8125L3.11719 18.2109C3.45898 18.0605 4.74414 17.5684 6.75391 17.5684C11.8125 17.5684 14.9844 20.043 19.7969 20.043C21.9297 20.043 22.7227 19.8105 23.7617 19.3457C24.7051 18.9219 25.3203 18.2109 25.3203 16.9531L25.3203 3.07617C25.3203 2.33789 24.6914 1.91406 23.8984 1.91406C23.2285 1.91406 21.9707 2.48828 19.6191 2.48828C14.8066 2.48828 11.6484 0.0136719 6.57617 0.0136719C4.44336 0.0136719 3.63672 0.246094 2.59766 0.710938C1.6543 1.13477 1.03906 1.8457 1.03906 3.08984L1.03906 25.8125C1.03906 26.373 1.51758 26.8379 2.07812 26.8379ZM3.11719 11.9629L3.11719 7.32812C3.30859 6.87695 4.44336 6.24805 6.57617 6.24805C7.01367 6.24805 7.61523 6.27539 8.09375 6.33008L8.09375 2.16016C9.93945 2.35156 11.5664 2.88477 13.2344 3.37695L13.2344 7.54688C14.9297 8.06641 16.5156 8.50391 18.3613 8.66797L18.3613 4.49805C18.7715 4.53906 19.1816 4.55273 19.6191 4.55273C21.1094 4.55273 22.3398 4.375 23.2559 4.11523L23.2559 8.28516C22.5723 8.47656 21.2598 8.72266 19.6191 8.72266C19.1953 8.72266 18.7578 8.69531 18.3613 8.66797L18.3613 13.3027C18.7578 13.3438 19.1406 13.3574 19.6191 13.3574C21.1094 13.3574 22.3398 13.1797 23.2559 12.9199L23.2559 16.8984C23.0645 17.3496 21.9297 17.9785 19.7969 17.9785C19.3047 17.9785 18.8262 17.9512 18.3613 17.8965L18.3613 13.3027C16.5156 13.0977 14.9844 12.7559 13.2344 12.1816L13.2344 16.6523C11.6484 16.1738 10.0078 15.709 8.09375 15.5449L8.09375 10.9648C7.57422 10.9102 7.21875 10.8828 6.57617 10.8828C4.44336 10.8828 3.30859 11.5117 3.11719 11.9629ZM8.09375 10.9648C9.98047 11.1699 11.416 11.6484 13.2344 12.1816L13.2344 7.54688C11.5254 7.04102 9.99414 6.52148 8.09375 6.33008Z" fill="black" fill-opacity="0.85"/>
 </g>
</svg>
