<?xml version="1.0" encoding="UTF-8"?>
<!--Generator: Apple Native CoreSVG 326-->
<!DOCTYPE svg
PUBLIC "-//W3C//DTD SVG 1.1//EN"
       "http://www.w3.org/Graphics/SVG/1.1/DTD/svg11.dtd">
<svg version="1.1" xmlns="http://www.w3.org/2000/svg" xmlns:xlink="http://www.w3.org/1999/xlink" viewBox="0 0 28.2461 27.9043">
 <g>
  <rect height="27.9043" opacity="0" width="28.2461" x="0" y="0"/>
  <path d="M13.9453 27.8906C21.6426 27.8906 27.8906 21.6426 27.8906 13.9453C27.8906 6.24805 21.6426 0 13.9453 0C6.24805 0 0 6.24805 0 13.9453C0 21.6426 6.24805 27.8906 13.9453 27.8906ZM13.9453 25.5664C7.51953 25.5664 2.32422 20.3711 2.32422 13.9453C2.32422 7.51953 7.51953 2.32422 13.9453 2.32422C20.3711 2.32422 25.5664 7.51953 25.5664 13.9453C25.5664 20.3711 20.3711 25.5664 13.9453 25.5664Z" fill="black" fill-opacity="0.85"/>
  <path d="M8.73633 21.3008C9.10547 21.3008 9.35156 21.0137 9.35156 20.6719L9.35156 16.6387C9.61133 16.5293 10.1445 16.3652 10.9922 16.3652C13.4258 16.3652 14.957 17.5684 17.3223 17.5684C18.3613 17.5684 18.7852 17.459 19.3047 17.2129C19.8789 16.9531 20.1387 16.5566 20.1387 15.9414L20.1387 9.20117C20.1387 8.80469 19.9336 8.51758 19.373 8.51758C18.9766 8.51758 18.375 8.80469 17.2539 8.80469C14.9297 8.80469 13.3848 7.58789 10.9238 7.58789C9.85742 7.58789 9.43359 7.71094 8.94141 7.92969C8.38086 8.17578 8.09375 8.61328 8.09375 9.20117L8.09375 20.6719C8.09375 21 8.39453 21.3008 8.73633 21.3008ZM9.14648 13.5215L9.14648 11.2383C9.25586 11.0195 9.81641 10.7051 10.8691 10.7051C11.0879 10.7051 11.375 10.7188 11.6074 10.7461L11.6074 8.69531C12.5234 8.77734 13.3301 9.03711 14.1504 9.29688L14.1504 11.3477C14.9844 11.6074 15.7773 11.8125 16.6934 11.8945L16.6934 9.84375C16.8848 9.85742 17.0898 9.85742 17.3086 9.85742C18.0332 9.85742 18.6484 9.78906 19.1133 9.65234L19.1133 11.7031C18.7578 11.7988 18.1016 11.9219 17.3086 11.9219C17.0762 11.9219 16.8711 11.9082 16.6934 11.8945L16.6934 14.1914C16.8711 14.2051 17.0625 14.2188 17.3086 14.2188C18.0332 14.2188 18.6484 14.1367 19.1133 14L19.1133 15.9551C19.0039 16.1875 18.4434 16.502 17.3906 16.502C17.1309 16.502 16.8984 16.4883 16.6934 16.4473L16.6934 14.1914C15.7773 14.0957 15.0117 13.918 14.1504 13.6309L14.1504 15.8457C13.3711 15.5996 12.5508 15.3672 11.6074 15.2988L11.6074 13.043C11.375 13.0156 11.1973 12.9883 10.8691 12.9883C9.81641 12.9883 9.25586 13.3027 9.14648 13.5215ZM11.6074 13.043C12.5508 13.1387 13.248 13.3711 14.1504 13.6309L14.1504 11.3477C13.3027 11.0879 12.5508 10.8418 11.6074 10.7461Z" fill="black" fill-opacity="0.85"/>
 </g>
</svg>
