<?xml version="1.0" encoding="UTF-8"?>
<!--Generator: Apple Native CoreSVG 326-->
<!DOCTYPE svg
PUBLIC "-//W3C//DTD SVG 1.1//EN"
       "http://www.w3.org/Graphics/SVG/1.1/DTD/svg11.dtd">
<svg version="1.1" xmlns="http://www.w3.org/2000/svg" xmlns:xlink="http://www.w3.org/1999/xlink" viewBox="0 0 26.4961 28.6973">
 <g>
  <rect height="28.6973" opacity="0" width="26.4961" x="0" y="0"/>
  <path d="M3.73242 28.6699L22.4082 28.6699C24.7324 28.6699 26.1406 27.0566 26.1406 24.9648C26.1406 24.2676 25.7988 23.3379 25.1562 22.4082L17.7598 11.7988L16.0098 13.0156L23.666 23.9941C23.9121 24.3633 23.9258 24.6914 23.9258 24.9512C23.9258 25.7852 23.3379 26.5234 22.3945 26.5234L3.74609 26.5234C2.78906 26.5234 2.21484 25.7852 2.21484 24.9512C2.21484 24.6914 2.22852 24.3633 2.47461 23.9941L10.1172 13.0156L8.38086 11.7988L0.861328 22.5723C0.287109 23.3926 0 24.2676 0 24.9648C0 27.0566 1.4082 28.6699 3.73242 28.6699ZM7.92969 13.0156L10.1172 13.0156L10.1172 1.14844L7.92969 1.14844ZM18.2109 13.0156L18.2109 1.14844L16.0098 1.14844L16.0098 13.0156ZM7.83398 2.29688L18.293 2.29688C18.9766 2.29688 19.4551 1.76367 19.4551 1.13477C19.4551 0.505859 18.9766 0 18.293 0L7.83398 0C7.15039 0 6.68555 0.505859 6.68555 1.13477C6.68555 1.76367 7.15039 2.29688 7.83398 2.29688ZM8.96875 5.83789L12.6055 5.83789C13.0566 5.83789 13.3984 5.49609 13.3984 5.03125C13.3984 4.60742 13.0293 4.23828 12.5918 4.23828L8.96875 4.23828ZM8.98242 9.74805L12.6191 9.74805C13.0703 9.74805 13.4121 9.39258 13.4121 8.92773C13.4121 8.50391 13.043 8.14844 12.6055 8.14844L8.98242 8.14844ZM8.98242 13.6445L12.6191 13.6445C13.0703 13.6445 13.4121 13.3027 13.4121 12.8379C13.4121 12.4141 13.0566 12.0449 12.6191 12.0449L8.98242 12.0449Z" fill="#8e8e93"/>
 </g>
</svg>
