<?xml version="1.0" encoding="UTF-8"?>
<!--Generator: Apple Native CoreSVG 326-->
<!DOCTYPE svg
PUBLIC "-//W3C//DTD SVG 1.1//EN"
       "http://www.w3.org/Graphics/SVG/1.1/DTD/svg11.dtd">
<svg version="1.1" xmlns="http://www.w3.org/2000/svg" xmlns:xlink="http://www.w3.org/1999/xlink" viewBox="0 0 28.2461 27.9043">
 <g>
  <rect height="27.9043" opacity="0" width="28.2461" x="0" y="0"/>
  <path d="M13.9453 27.8906C21.6426 27.8906 27.8906 21.6426 27.8906 13.9453C27.8906 6.24805 21.6426 0 13.9453 0C6.24805 0 0 6.24805 0 13.9453C0 21.6426 6.24805 27.8906 13.9453 27.8906ZM13.9453 25.5664C7.51953 25.5664 2.32422 20.3711 2.32422 13.9453C2.32422 7.51953 7.51953 2.32422 13.9453 2.32422C20.3711 2.32422 25.5664 7.51953 25.5664 13.9453C25.5664 20.3711 20.3711 25.5664 13.9453 25.5664Z" fill="black" fill-opacity="0.85"/>
  <path d="M10.2949 6.87695L17.5957 6.87695L17.5957 6.61719C17.5957 5.64648 17.1172 5.1543 16.1465 5.1543L11.7305 5.1543C10.7734 5.1543 10.2949 5.64648 10.2949 6.61719ZM13.2344 22.7363L14.6426 22.7363C15.5723 22.7363 16.0781 22.2305 16.0781 21.2734L16.0781 12.6602C16.0781 11.8262 16.2559 11.2656 16.5566 10.8008L16.9805 10.1445C17.3496 9.57031 17.5957 9.06445 17.5957 8.4082L17.5957 7.71094L10.2949 7.71094L10.2949 8.4082C10.2949 9.06445 10.541 9.57031 10.9102 10.1445L11.334 10.8008C11.6348 11.2656 11.8262 11.8262 11.8262 12.6602L11.8262 21.2734C11.8262 22.2305 12.3184 22.7363 13.2344 22.7363ZM12.6328 15.5996L12.6328 13.3574C12.6328 12.6328 13.207 12.0449 13.9453 12.0449C14.6836 12.0449 15.2578 12.6328 15.2578 13.3574L15.2578 15.5996C15.2578 16.3379 14.6836 16.9121 13.9453 16.9121C13.207 16.9121 12.6328 16.3379 12.6328 15.5996ZM13.9453 12.5234C13.4668 12.5234 13.1113 12.8926 13.1113 13.3574C13.1113 13.8223 13.4805 14.2051 13.9453 14.2051C14.4238 14.2051 14.7793 13.8223 14.7793 13.3574C14.7793 12.8926 14.4512 12.5234 13.9453 12.5234Z" fill="black" fill-opacity="0.85"/>
 </g>
</svg>
