<?xml version="1.0" encoding="UTF-8"?>
<!--Generator: Apple Native CoreSVG 326-->
<!DOCTYPE svg
PUBLIC "-//W3C//DTD SVG 1.1//EN"
       "http://www.w3.org/Graphics/SVG/1.1/DTD/svg11.dtd">
<svg version="1.1" xmlns="http://www.w3.org/2000/svg" xmlns:xlink="http://www.w3.org/1999/xlink" viewBox="0 0 25.5254 25.1699">
 <g>
  <rect height="25.1699" opacity="0" width="25.5254" x="0" y="0"/>
  <path d="M4.29297 25.1699L20.877 25.1699C23.748 25.1699 25.1699 23.7617 25.1699 20.9453L25.1699 4.23828C25.1699 1.42188 23.748 0 20.877 0L4.29297 0C1.43555 0 0 1.42188 0 4.23828L0 20.9453C0 23.7617 1.43555 25.1699 4.29297 25.1699ZM4.32031 22.9688C2.95312 22.9688 2.20117 22.2441 2.20117 20.8223L2.20117 4.36133C2.20117 2.93945 2.95312 2.20117 4.32031 2.20117L20.8496 2.20117C22.2031 2.20117 22.9688 2.93945 22.9688 4.36133L22.9688 20.8223C22.9688 22.2441 22.2031 22.9688 20.8496 22.9688Z" fill="black" fill-opacity="0.85"/>
  <path d="M9.2832 18.7031C11.4297 18.7031 12.4688 17.5957 12.8105 15.5039L13.248 12.8516L16.1875 12.8516C16.5293 12.8516 16.7754 12.6328 16.7754 12.3047C16.7754 11.9902 16.5293 11.7578 16.1875 11.7578L13.4258 11.7578L13.7676 9.73438C13.9863 8.44922 14.6426 7.82031 15.9277 7.82031C16.4336 7.82031 16.7754 7.92969 17.0762 7.92969C17.4863 7.92969 17.7051 7.72461 17.7051 7.35547C17.7051 7.01367 17.4316 6.79492 17.1035 6.67188C16.7344 6.50781 16.1738 6.45312 15.8047 6.45312C13.7129 6.45312 12.5645 7.54688 12.2227 9.61133L11.8535 11.7578L9.0918 11.7578C8.76367 11.7578 8.51758 11.9902 8.51758 12.3047C8.51758 12.6328 8.76367 12.8516 9.0918 12.8516L11.6895 12.8516L11.2656 15.3262C11.0469 16.6523 10.4863 17.3496 9.13281 17.3496C8.58594 17.3496 8.42188 17.2676 7.92969 17.2676C7.58789 17.2676 7.36914 17.5 7.36914 17.8008C7.36914 18.1699 7.58789 18.375 7.92969 18.5117C8.32617 18.6895 8.85938 18.7031 9.2832 18.7031Z" fill="black" fill-opacity="0.85"/>
 </g>
</svg>
