<?xml version="1.0" encoding="UTF-8"?>
<!--Generator: Apple Native CoreSVG 326-->
<!DOCTYPE svg
PUBLIC "-//W3C//DTD SVG 1.1//EN"
       "http://www.w3.org/Graphics/SVG/1.1/DTD/svg11.dtd">
<svg version="1.1" xmlns="http://www.w3.org/2000/svg" xmlns:xlink="http://www.w3.org/1999/xlink" viewBox="0 0 33.291 27.4395">
 <g>
  <rect height="27.4395" opacity="0" width="33.291" x="0" y="0"/>
  <path d="M32.9355 16.4609C32.9355 12.4414 31.4863 8.73633 29.0664 5.86523C28.793 5.53711 28.3281 5.53711 28.0273 5.85156L24.8555 9.02344C24.5957 9.2832 24.582 9.65234 24.8145 9.93945C26.2227 11.7441 27.0703 14.0137 27.0703 16.4609C27.0703 18.9219 26.2227 21.1914 24.7324 23.0918C24.541 23.3242 24.5547 23.625 24.7598 23.8438L28.0137 27.0977C28.3281 27.4121 28.7793 27.4121 29.0664 27.0703C31.4863 24.1992 32.9355 20.4941 32.9355 16.4609Z" fill="black" fill-opacity="0.85"/>
  <path d="M16.4609 5.86523C18.9355 5.86523 21.2051 6.72656 23.0234 8.13477C23.2969 8.35352 23.6523 8.32617 23.9121 8.06641L27.084 4.89453C27.3984 4.58008 27.3848 4.12891 27.0566 3.85547C24.1992 1.44922 20.4941 0 16.4609 0C12.4414 0 8.73633 1.44922 5.87891 3.85547C5.55078 4.12891 5.53711 4.58008 5.85156 4.89453L9.02344 8.06641C9.2832 8.32617 9.65234 8.35352 9.95312 8.12109C11.7578 6.72656 14.0137 5.86523 16.4609 5.86523Z" fill="black" fill-opacity="0.85"/>
  <path d="M0 16.4609C0 20.4941 1.44922 24.1992 3.86914 27.0703C4.14258 27.4121 4.60742 27.4121 4.9082 27.0977L8.16211 23.8438C8.36719 23.625 8.39453 23.3242 8.20312 23.0918C6.71289 21.1914 5.86523 18.9219 5.86523 16.4609C5.86523 14.0137 6.69922 11.7441 8.12109 9.93945C8.33984 9.65234 8.33984 9.2832 8.08008 9.02344L4.9082 5.85156C4.59375 5.53711 4.14258 5.53711 3.86914 5.86523C1.44922 8.73633 0 12.4414 0 16.4609Z" fill="black" fill-opacity="0.85"/>
  <path d="M13.1387 22.7773C15.2852 22.7773 16.3242 21.6699 16.666 19.5781L17.1035 16.9121L20.0566 16.9121C20.3848 16.9121 20.6309 16.6934 20.6309 16.3789C20.6309 16.0508 20.3848 15.8184 20.0566 15.8184L17.2812 15.8184L17.623 13.7949C17.8418 12.5098 18.498 11.8809 19.7969 11.8809C20.2891 11.8809 20.6309 11.9902 20.9316 11.9902C21.3418 11.9902 21.5605 11.7852 21.5605 11.4297C21.5605 11.0879 21.2871 10.8555 20.9727 10.7324C20.5898 10.5684 20.0293 10.5273 19.6602 10.5273C17.582 10.5273 16.4199 11.6074 16.0781 13.6719L15.7227 15.8184L12.9609 15.8184C12.6191 15.8184 12.373 16.0508 12.373 16.3789C12.373 16.6934 12.6191 16.9121 12.9609 16.9121L15.5449 16.9121L15.1211 19.3867C14.9023 20.7129 14.3418 21.4102 12.9883 21.4102C12.4414 21.4102 12.2773 21.3281 11.7852 21.3281C11.4434 21.3281 11.2246 21.5605 11.2246 21.875C11.2246 22.2305 11.4434 22.4355 11.7988 22.5859C12.1816 22.75 12.7148 22.7773 13.1387 22.7773Z" fill="black" fill-opacity="0.85"/>
 </g>
</svg>
