<?xml version="1.0" encoding="UTF-8"?>
<!--Generator: Apple Native CoreSVG 326-->
<!DOCTYPE svg
PUBLIC "-//W3C//DTD SVG 1.1//EN"
       "http://www.w3.org/Graphics/SVG/1.1/DTD/svg11.dtd">
<svg version="1.1" xmlns="http://www.w3.org/2000/svg" xmlns:xlink="http://www.w3.org/1999/xlink" viewBox="0 0 22.5039 20.3301">
 <g>
  <rect height="20.3301" opacity="0" width="22.5039" x="0" y="0"/>
  <path d="M3.37695 20.3301C4.06055 20.3301 4.52539 19.8516 4.52539 19.127L4.52539 7.69727L6.78125 7.69727C7.38281 7.69727 7.7793 7.31445 7.7793 6.72656C7.7793 6.15234 7.36914 5.75586 6.78125 5.75586L4.52539 5.75586L4.52539 4.16992C4.52539 2.66602 5.07227 2.02344 6.37109 2.02344C6.75391 2.02344 7.04102 1.99609 7.23242 1.92773C7.64258 1.77734 7.83398 1.53125 7.83398 1.12109C7.83398 0.423828 7.16406 0.0273438 5.93359 0.0273438C3.51367 0.0273438 2.22852 1.43555 2.22852 4.07422L2.22852 5.75586L0.998047 5.75586C0.410156 5.75586 0 6.15234 0 6.72656C0 7.31445 0.396484 7.69727 0.998047 7.69727L2.22852 7.69727L2.22852 19.127C2.22852 19.8516 2.69336 20.3301 3.37695 20.3301ZM11.2246 20.3301C11.8945 20.3301 12.3867 19.8242 12.3867 19.1133L12.3867 11.5938C12.3867 9.03711 13.9316 7.3418 16.3105 7.3418C18.5801 7.3418 19.8516 8.69531 19.8516 11.1016L19.8516 19.1133C19.8516 19.8379 20.3301 20.3301 21 20.3301C21.6699 20.3301 22.1484 19.8242 22.1484 19.1133L22.1484 10.7734C22.1484 7.38281 20.1523 5.27734 16.9121 5.27734C14.7109 5.27734 12.8789 6.50781 12.2637 8.35352L12.2637 8.35352L12.2637 6.45312C12.2637 5.76953 11.7988 5.27734 11.1699 5.27734C10.541 5.27734 10.0762 5.76953 10.0762 6.45312L10.0762 19.1133C10.0762 19.8242 10.5547 20.3301 11.2246 20.3301Z" fill="black" fill-opacity="0.85"/>
 </g>
</svg>
