<?xml version="1.0" encoding="UTF-8"?>
<!--Generator: Apple Native CoreSVG 326-->
<!DOCTYPE svg
PUBLIC "-//W3C//DTD SVG 1.1//EN"
       "http://www.w3.org/Graphics/SVG/1.1/DTD/svg11.dtd">
<svg version="1.1" xmlns="http://www.w3.org/2000/svg" xmlns:xlink="http://www.w3.org/1999/xlink" viewBox="0 0 31.4043 25.1973">
 <g>
  <rect height="25.1973" opacity="0" width="31.4043" x="0" y="0"/>
  <path d="M4.29297 25.0195L27.166 25.0195C29.6133 25.0195 31.0488 23.5977 31.0488 20.7812L31.0488 6.74023C31.0488 3.92383 29.5996 2.50195 26.7559 2.50195L13.6309 2.50195C12.7012 2.50195 12.1406 2.2832 11.457 1.69531L10.623 1.01172C9.7207 0.246094 9.02344 0 7.66992 0L3.77344 0C1.38086 0 0 1.36719 0 4.11523L0 20.7812C0 23.6113 1.43555 25.0195 4.29297 25.0195ZM4.32031 22.8184C2.95312 22.8184 2.20117 22.0938 2.20117 20.6719L2.20117 4.23828C2.20117 2.88477 2.91211 2.1875 4.22461 2.1875L7.10938 2.1875C8.01172 2.1875 8.55859 2.41992 9.25586 3.00781L10.0898 3.70508C10.9785 4.44336 11.7031 4.70312 13.0566 4.70312L26.7148 4.70312C28.0684 4.70312 28.8477 5.44141 28.8477 6.86328L28.8477 20.6855C28.8477 22.0938 28.0684 22.8184 26.7148 22.8184ZM1.33984 9.70703L29.6953 9.70703L29.6953 7.64258L1.33984 7.64258Z" fill="#5856d6"/>
 </g>
</svg>
