<?xml version="1.0" encoding="UTF-8"?>
<!--Generator: Apple Native CoreSVG 326-->
<!DOCTYPE svg
PUBLIC "-//W3C//DTD SVG 1.1//EN"
       "http://www.w3.org/Graphics/SVG/1.1/DTD/svg11.dtd">
<svg version="1.1" xmlns="http://www.w3.org/2000/svg" xmlns:xlink="http://www.w3.org/1999/xlink" viewBox="0 0 28.2461 27.9043">
 <g>
  <rect height="27.9043" opacity="0" width="28.2461" x="0" y="0"/>
  <path d="M13.9453 27.8906C21.6426 27.8906 27.8906 21.6426 27.8906 13.9453C27.8906 6.24805 21.6426 0 13.9453 0C6.24805 0 0 6.24805 0 13.9453C0 21.6426 6.24805 27.8906 13.9453 27.8906ZM13.9453 25.5664C7.51953 25.5664 2.32422 20.3711 2.32422 13.9453C2.32422 7.51953 7.51953 2.32422 13.9453 2.32422C20.3711 2.32422 25.5664 7.51953 25.5664 13.9453C25.5664 20.3711 20.3711 25.5664 13.9453 25.5664Z" fill="#ff9500"/>
  <path d="M11.0469 22.9004C11.6895 22.9004 12.0996 22.5449 12.0859 21.916L11.9355 13.248C11.9355 12.9746 12.0449 12.7695 12.291 12.6602C13.3027 12.2227 13.7676 11.7578 13.6855 10.3906L13.4668 5.66016C13.4531 5.31836 13.2617 5.11328 12.9473 5.11328C12.6465 5.11328 12.4551 5.33203 12.4551 5.67383L12.5234 10.2949C12.5234 10.5547 12.332 10.7324 12.0859 10.7324C11.8125 10.7324 11.6211 10.5547 11.6211 10.3086L11.5664 5.55078C11.5664 5.20898 11.3477 5.01758 11.0469 5.01758C10.7324 5.01758 10.5273 5.20898 10.5273 5.55078L10.4453 10.3086C10.4453 10.5547 10.2676 10.7324 10.0078 10.7324C9.76172 10.7324 9.57031 10.5547 9.57031 10.2949L9.63867 5.67383C9.63867 5.33203 9.44727 5.11328 9.14648 5.11328C8.83203 5.11328 8.62695 5.31836 8.61328 5.66016L8.4082 10.3906C8.35352 11.7578 8.79102 12.2227 9.81641 12.6602C10.0488 12.7695 10.1582 12.9746 10.1582 13.248L10.0078 21.916C9.99414 22.5449 10.4043 22.9004 11.0469 22.9004ZM16.4062 16.3379L16.2285 21.875C16.2012 22.5449 16.625 22.9004 17.2539 22.9004C17.9238 22.9004 18.3203 22.5723 18.3203 21.957L18.3203 5.5918C18.3203 5.19531 18.0332 5.01758 17.7734 5.01758C17.4727 5.01758 17.2812 5.18164 17.0352 5.53711C15.791 7.27344 14.9707 10.541 14.9707 13.6172L14.9707 14.1367C14.9707 14.6836 15.1758 15.0527 15.5586 15.3262L16.0098 15.6406C16.2832 15.832 16.4062 16.0371 16.4062 16.3379Z" fill="#ff9500"/>
 </g>
</svg>
