<?xml version="1.0" encoding="UTF-8"?>
<!--Generator: Apple Native CoreSVG 326-->
<!DOCTYPE svg
PUBLIC "-//W3C//DTD SVG 1.1//EN"
       "http://www.w3.org/Graphics/SVG/1.1/DTD/svg11.dtd">
<svg version="1.1" xmlns="http://www.w3.org/2000/svg" xmlns:xlink="http://www.w3.org/1999/xlink" viewBox="0 0 39.7578 20.9043">
 <g>
  <rect height="20.9043" opacity="0" width="39.7578" x="0" y="0"/>
  <path d="M0 18.9902C0 20.2754 0.738281 20.8906 1.62695 20.8906C2.00977 20.8906 2.41992 20.7676 2.81641 20.5488L17.1719 12.1816C18.2109 11.5801 18.6074 11.1289 18.6074 10.4453C18.6074 9.76172 18.2109 9.31055 17.1719 8.70898L2.81641 0.341797C2.41992 0.109375 2.00977 0 1.62695 0C0.738281 0 0 0.601562 0 1.88672ZM2.20117 17.9102L2.20117 2.98047C2.20117 2.81641 2.29688 2.70703 2.44727 2.70703C2.50195 2.70703 2.55664 2.7207 2.59766 2.76172L15.3672 10.2402C15.4629 10.2949 15.5039 10.3633 15.5039 10.4453C15.5039 10.5137 15.4629 10.5957 15.3672 10.6504L2.59766 18.1289C2.55664 18.1562 2.50195 18.1836 2.44727 18.1836C2.29688 18.1836 2.20117 18.0605 2.20117 17.9102ZM18.5391 18.9902C18.5391 20.2754 19.2773 20.8906 20.1523 20.8906C20.5488 20.8906 20.959 20.7676 21.3555 20.5488L35.7109 12.1816C36.7363 11.5801 37.1328 11.1289 37.1328 10.4453C37.1328 9.76172 36.7363 9.31055 35.7109 8.70898L21.3555 0.341797C20.959 0.109375 20.5488 0 20.1523 0C19.2773 0 18.5391 0.601562 18.5391 1.88672ZM20.7402 17.9102L20.7402 2.98047C20.7402 2.81641 20.8359 2.70703 20.9727 2.70703C21.041 2.70703 21.082 2.7207 21.1367 2.76172L33.9062 10.2402C34.002 10.2949 34.043 10.3633 34.043 10.4453C34.043 10.5137 34.002 10.5957 33.9062 10.6504L21.1367 18.1289C21.082 18.1562 21.041 18.1836 20.9727 18.1836C20.8359 18.1836 20.7402 18.0605 20.7402 17.9102ZM38.2402 20.8906C38.8965 20.8906 39.4023 20.3848 39.4023 19.7422L39.4023 1.14844C39.4023 0.505859 38.8965 0 38.2402 0C37.584 0 37.0645 0.505859 37.0645 1.14844L37.0645 19.7422C37.0645 20.3848 37.584 20.8906 38.2402 20.8906Z" fill="black" fill-opacity="0.85"/>
 </g>
</svg>
