<?xml version="1.0" encoding="UTF-8"?>
<!--Generator: Apple Native CoreSVG 326-->
<!DOCTYPE svg
PUBLIC "-//W3C//DTD SVG 1.1//EN"
       "http://www.w3.org/Graphics/SVG/1.1/DTD/svg11.dtd">
<svg version="1.1" xmlns="http://www.w3.org/2000/svg" xmlns:xlink="http://www.w3.org/1999/xlink" viewBox="0 0 30.4336 20.9043">
 <g>
  <rect height="20.9043" opacity="0" width="30.4336" x="0" y="0"/>
  <path d="M6.37109 20.8906C7.02734 20.8906 7.5332 20.3848 7.5332 19.7422L7.5332 1.14844C7.5332 0.505859 7.02734 0 6.37109 0C5.71484 0 5.19531 0.505859 5.19531 1.14844L5.19531 19.7422C5.19531 20.3848 5.71484 20.8906 6.37109 20.8906ZM11.8262 18.9902C11.8262 20.2754 12.5645 20.8906 13.4531 20.8906C13.8496 20.8906 14.2461 20.7676 14.6426 20.5488L28.998 12.1816C30.0371 11.5801 30.4336 11.1289 30.4336 10.4453C30.4336 9.76172 30.0371 9.31055 28.998 8.70898L14.6426 0.341797C14.2461 0.109375 13.8496 0 13.4531 0C12.5645 0 11.8262 0.601562 11.8262 1.88672ZM14.0273 17.9102L14.0273 2.98047C14.0273 2.81641 14.1367 2.70703 14.2734 2.70703C14.3281 2.70703 14.3828 2.7207 14.4238 2.76172L27.1934 10.2402C27.2891 10.2949 27.3301 10.3633 27.3301 10.4453C27.3301 10.5137 27.2891 10.5957 27.1934 10.6504L14.4238 18.1289C14.3828 18.1562 14.3281 18.1836 14.2734 18.1836C14.1367 18.1836 14.0273 18.0605 14.0273 17.9102Z" fill="black" fill-opacity="0.85"/>
 </g>
</svg>
