<?xml version="1.0" encoding="UTF-8"?>
<!--Generator: Apple Native CoreSVG 326-->
<!DOCTYPE svg
PUBLIC "-//W3C//DTD SVG 1.1//EN"
       "http://www.w3.org/Graphics/SVG/1.1/DTD/svg11.dtd">
<svg version="1.1" xmlns="http://www.w3.org/2000/svg" xmlns:xlink="http://www.w3.org/1999/xlink" viewBox="0 0 25.6484 20.9043">
 <g>
  <rect height="20.9043" opacity="0" width="25.6484" x="0" y="0"/>
  <path d="M0 18.9902C0 20.2754 0.738281 20.8906 1.62695 20.8906C2.00977 20.8906 2.41992 20.7676 2.81641 20.5488L17.1719 12.1816C18.2109 11.5801 18.6074 11.1289 18.6074 10.4453C18.6074 9.76172 18.2109 9.31055 17.1719 8.70898L2.81641 0.341797C2.41992 0.109375 2.00977 0 1.62695 0C0.738281 0 0 0.601562 0 1.88672ZM20.3574 20.8086L23.4609 20.8086C24.6641 20.8086 25.293 20.1797 25.293 18.9766L25.293 1.90039C25.293 0.642578 24.6641 0.0683594 23.4609 0.0683594L20.3574 0.0683594C19.1543 0.0683594 18.5391 0.697266 18.5391 1.90039L18.5391 18.9766C18.5391 20.1797 19.1543 20.8086 20.3574 20.8086Z" fill="black" fill-opacity="0.85"/>
 </g>
</svg>
