<?xml version="1.0" encoding="UTF-8"?>
<!--Generator: Apple Native CoreSVG 326-->
<!DOCTYPE svg
PUBLIC "-//W3C//DTD SVG 1.1//EN"
       "http://www.w3.org/Graphics/SVG/1.1/DTD/svg11.dtd">
<svg version="1.1" xmlns="http://www.w3.org/2000/svg" xmlns:xlink="http://www.w3.org/1999/xlink" viewBox="0 0 34.5898 27.0293">
 <g>
  <rect height="27.0293" opacity="0" width="34.5898" x="0" y="0"/>
  <path d="M15.9277 27.0293C25.2383 27.0293 32.2793 20.6582 34.1934 12.0859C34.4258 11.0879 33.7832 10.3496 32.7441 10.3496L20.248 10.3496L20.248 12.4551L33.0039 12.4551L32.1562 11.7168C30.2969 19.5234 23.9668 24.9375 15.9277 24.9375C7.64258 24.9375 2.07812 19.7695 2.07812 12.373C2.07812 6.39844 6.31641 2.10547 11.9219 2.10547C16.2559 2.10547 19.3457 4.92188 19.3457 8.88672C19.3457 12.168 17.2812 14.5469 14.3828 14.5469C11.9355 14.5469 10.2402 12.9336 10.2402 10.8691C10.2402 9.22852 11.3203 7.98438 12.8516 7.98438C14.082 7.98438 14.8066 8.72266 14.8066 9.69336C14.8066 10.4453 14.3691 10.9648 13.7129 10.9648C13.1797 10.9648 13.002 10.7051 12.8516 10.4453C12.7148 10.1992 12.5098 10.0488 12.1543 10.0488C11.7305 10.0488 11.293 10.3906 11.293 11.0195C11.293 11.9082 12.0996 13.0703 13.6992 13.0703C15.4902 13.0703 16.9121 11.7305 16.9121 9.69336C16.9121 7.56055 15.1348 5.87891 12.8516 5.87891C10.2812 5.87891 8.13477 8.08008 8.13477 10.8691C8.13477 14.0957 10.7734 16.6387 14.3828 16.6387C19.5098 16.6387 21.4375 12.0586 21.4375 8.88672C21.4375 3.73242 17.4453 0.0136719 11.9219 0.0136719C5.12695 0.0136719 0 5.19531 0 12.373C0 20.959 6.41211 27.0293 15.9277 27.0293ZM18.5254 2.55664L13.6172 7.47852L14.7383 8.59961L19.6465 3.69141ZM11.252 0.464844L11.252 7.56055L12.8242 7.56055L12.8242 0.464844ZM4.33398 3.5957L9.51562 8.79102L10.623 7.65625L5.45508 2.46094ZM1.57227 11.6348L9.17383 11.6348L9.17383 10.0488L1.57227 10.0488ZM4.38867 20.9863L10.6777 14.7109L9.55664 13.5898L3.28125 19.8652ZM13.166 25.7988L14.752 25.7988L14.752 15.9414L13.166 15.9414ZM25.334 23.0508L26.4414 21.916L18.2793 13.7402L17.1582 14.8613Z" fill="black" fill-opacity="0.85"/>
 </g>
</svg>
