<?xml version="1.0" encoding="UTF-8"?>
<!--Generator: Apple Native CoreSVG 326-->
<!DOCTYPE svg
PUBLIC "-//W3C//DTD SVG 1.1//EN"
       "http://www.w3.org/Graphics/SVG/1.1/DTD/svg11.dtd">
<svg version="1.1" xmlns="http://www.w3.org/2000/svg" xmlns:xlink="http://www.w3.org/1999/xlink" viewBox="0 0 34.5898 27.0293">
 <g>
  <rect height="27.0293" opacity="0" width="34.5898" x="0" y="0"/>
  <path d="M14.3828 16.4883C18.3066 16.4883 21.3555 13.3848 21.3555 9.00977C21.3555 6.94531 20.7676 5.08594 19.6875 3.63672L17.0762 6.26172C17.7324 7.06836 18.1152 8.10742 18.1152 9.22852C18.1152 11.6348 16.4336 13.3711 14.2461 13.3711C12.4824 13.3711 11.0879 12.209 11.0879 10.8691C11.0879 10.418 11.457 10.1309 11.8535 10.1309C12.168 10.1309 12.4551 10.3223 12.5645 10.7461C12.7422 11.3887 13.2891 11.8809 14.1641 11.8809C15.5723 11.8809 16.4473 10.8828 16.4473 9.33789C16.4473 7.47852 14.875 6.0293 12.8516 6.0293C10.3633 6.0293 8.28516 8.16211 8.28516 10.8691C8.28516 14.0137 10.8555 16.4883 14.3828 16.4883ZM12.8242 4.32031C13.877 4.33398 14.9844 4.62109 15.8867 5.18164L18.6211 2.46094C17.1582 1.09375 15.1484 0.21875 12.8242 0.0683594ZM8.80469 5.83789C9.51562 5.23633 10.3359 4.78516 11.2383 4.53906L11.2383 0.0273438C8.92773 0.136719 6.83594 0.875 5.08594 2.0918ZM0.191406 10.0488L6.6582 10.0488C6.75391 8.96875 7.16406 7.88867 7.76562 7.01367L3.8418 3.07617C1.95508 4.8125 0.642578 7.21875 0.191406 10.0488ZM0 12.3594C0 15.5586 0.875 18.375 2.46094 20.6855L8.02539 15.1074C7.25977 14.0957 6.78125 12.9062 6.63086 11.6348L0.0136719 11.6348C0 11.8945 0 12.127 0 12.3594ZM3.43164 21.957C5.74219 24.5684 9.0918 26.3184 13.166 26.8516L13.166 18.0879C11.5801 17.8828 10.1855 17.2266 9.10547 16.2559ZM14.7656 27.002C15.1211 27.0293 15.5039 27.0293 15.873 27.0293C19.8105 27.0293 23.3379 25.9082 26.2637 23.9121L19.1406 16.8301C17.9648 17.6094 16.4883 18.1152 14.7656 18.1836ZM27.5215 22.9961C30.8574 20.3027 33.209 16.3926 34.1934 12.0859C34.4531 11.0059 33.6055 10.3496 32.7441 10.3496L22.9551 10.3496C22.8047 12.1816 21.957 14.2734 20.3574 15.832Z" fill="black" fill-opacity="0.85"/>
 </g>
</svg>
