<?xml version="1.0" encoding="UTF-8"?>
<!--Generator: Apple Native CoreSVG 326-->
<!DOCTYPE svg
PUBLIC "-//W3C//DTD SVG 1.1//EN"
       "http://www.w3.org/Graphics/SVG/1.1/DTD/svg11.dtd">
<svg version="1.1" xmlns="http://www.w3.org/2000/svg" xmlns:xlink="http://www.w3.org/1999/xlink" viewBox="0 0 30.8848 29.1895">
 <g>
  <rect height="29.1895" opacity="0" width="30.8848" x="0" y="0"/>
  <path d="M1.81836 27.5898L28.7109 27.5898L28.7109 25.9766C28.7109 25.4297 28.3965 25.1016 27.8359 25.1016L26.9609 25.1016L26.9609 9.37891L28.1641 9.37891C28.916 9.37891 29.3535 8.83203 29.3535 8.27148C29.3535 7.86133 29.1211 7.50586 28.6152 7.21875L16.9395 0.478516C16.3926 0.164062 15.8184 0 15.2578 0C14.6973 0 14.1094 0.164062 13.5898 0.478516L1.91406 7.21875C1.39453 7.50586 1.17578 7.86133 1.17578 8.27148C1.17578 8.83203 1.61328 9.37891 2.36523 9.37891L3.56836 9.37891L3.56836 25.1016L2.70703 25.1016C2.14648 25.1016 1.81836 25.4297 1.81836 25.9766ZM1.09375 29.1758L29.4219 29.1758C30.0234 29.1758 30.5293 28.6699 30.5293 28.0684C30.5293 27.4668 30.0234 26.9746 29.4219 26.9746L1.09375 26.9746C0.492188 26.9746 0 27.4668 0 28.0684C0 28.6699 0.492188 29.1758 1.09375 29.1758Z" fill="black" fill-opacity="0.85"/>
  <path d="M12.8926 22.1895C12.373 22.1895 12.0312 21.834 12.0312 21.3281L12.0312 19.8379L10.6777 19.8379C10.4043 19.8379 10.1992 19.6465 10.1992 19.373C10.1992 19.0996 10.4043 18.9082 10.6777 18.9082L12.0312 18.9082L12.0312 10.2129C12.0312 9.66602 12.3594 9.33789 12.8926 9.33789L18.8809 9.33789C19.332 9.33789 19.6465 9.63867 19.6465 10.0762C19.6465 10.5 19.332 10.8008 18.8809 10.8008L13.7266 10.8008L13.7266 14.8887L18.3887 14.8887C18.8262 14.8887 19.1406 15.2031 19.1406 15.6133C19.1406 16.0234 18.8262 16.3379 18.3887 16.3379L13.7266 16.3379L13.7266 18.9082L16.7344 18.9082C17.0078 18.9082 17.1992 19.0996 17.1992 19.373C17.1992 19.6465 17.0078 19.8379 16.7344 19.8379L13.7266 19.8379L13.7266 21.3281C13.7266 21.834 13.3711 22.1895 12.8926 22.1895Z" fill="white"/>
 </g>
</svg>
