<?xml version="1.0" encoding="UTF-8"?>
<!--Generator: Apple Native CoreSVG 326-->
<!DOCTYPE svg
PUBLIC "-//W3C//DTD SVG 1.1//EN"
       "http://www.w3.org/Graphics/SVG/1.1/DTD/svg11.dtd">
<svg version="1.1" xmlns="http://www.w3.org/2000/svg" xmlns:xlink="http://www.w3.org/1999/xlink" viewBox="0 0 42.5879 27.4668">
 <g>
  <rect height="27.4668" opacity="0" width="42.5879" x="0" y="0"/>
  <path d="M0 15.2988C0 22.5996 6.86328 27.4668 17.2402 27.4668C27.6309 27.4668 34.4941 22.5996 34.4941 15.2988C34.4941 12.2363 27.3984 9.74805 17.2402 9.74805C7.0957 9.74805 0 12.2363 0 15.2988ZM2.20117 15.2988C2.20117 13.8223 9.36523 11.8125 17.2402 11.8125C25.1152 11.8125 32.293 13.8223 32.293 15.2988C32.293 16.7207 25.5664 18.7441 17.2402 18.7441C8.91406 18.7441 2.20117 16.7207 2.20117 15.2988ZM31.6094 13.8086L40.6328 8.28516C44.4062 5.98828 40.9062 0.451172 36.3125 3.74609L25.7715 11.334ZM9.29688 18.9355L24.0215 18.9902C24.0352 16.1465 21.6973 14.2871 19.0039 14.2871C17.2266 14.2871 15.668 15.0801 14.752 16.3105C14.2734 16.1465 13.8359 16.0781 13.3027 16.0781C11.3066 16.0781 9.65234 17.3223 9.29688 18.9355Z" fill="black" fill-opacity="0.85"/>
 </g>
</svg>
