<?xml version="1.0" encoding="UTF-8"?>
<!--Generator: Apple Native CoreSVG 326-->
<!DOCTYPE svg
PUBLIC "-//W3C//DTD SVG 1.1//EN"
       "http://www.w3.org/Graphics/SVG/1.1/DTD/svg11.dtd">
<svg version="1.1" xmlns="http://www.w3.org/2000/svg" xmlns:xlink="http://www.w3.org/1999/xlink" viewBox="0 0 24.7188 36.8184">
 <g>
  <rect height="36.8184" opacity="0" width="24.7188" x="0" y="0"/>
  <path d="M1.03906 36.8184C1.64062 36.8184 2.10547 36.3535 2.10547 35.7793L2.10547 25.1836C2.10547 24.5957 1.64062 24.1172 1.03906 24.1172C0.451172 24.1172 0 24.5957 0 25.1836L0 35.7793C0 36.3535 0.451172 36.8184 1.03906 36.8184ZM5.35938 29.0664C6.05664 29.0664 6.60352 28.5059 6.60352 27.8223C6.60352 27.125 6.05664 26.5645 5.35938 26.5645C4.67578 26.5645 4.11523 27.125 4.11523 27.8223C4.11523 28.5059 4.67578 29.0664 5.35938 29.0664ZM9.87109 29.0664C10.5684 29.0664 11.1152 28.5059 11.1152 27.8223C11.1152 27.125 10.5684 26.5645 9.87109 26.5645C9.17383 26.5645 8.61328 27.125 8.61328 27.8223C8.61328 28.5059 9.17383 29.0664 9.87109 29.0664ZM14.3828 29.0664C15.0664 29.0664 15.6133 28.5059 15.6133 27.8223C15.6133 27.125 15.0664 26.5645 14.3828 26.5645C13.6855 26.5645 13.125 27.125 13.125 27.8223C13.125 28.5059 13.6855 29.0664 14.3828 29.0664ZM18.8809 29.0664C19.5645 29.0664 20.125 28.5059 20.125 27.8223C20.125 27.125 19.5645 26.5645 18.8809 26.5645C18.1836 26.5645 17.623 27.125 17.623 27.8223C17.623 28.5059 18.1836 29.0664 18.8809 29.0664ZM5.35938 34.4668C6.05664 34.4668 6.60352 33.9062 6.60352 33.209C6.60352 32.498 6.05664 31.9512 5.35938 31.9512C4.67578 31.9512 4.11523 32.5117 4.11523 33.209C4.11523 33.9062 4.67578 34.4668 5.35938 34.4668ZM9.87109 34.4668C10.5684 34.4668 11.1152 33.9062 11.1152 33.209C11.1152 32.498 10.5684 31.9512 9.87109 31.9512C9.17383 31.9512 8.61328 32.5117 8.61328 33.209C8.61328 33.9062 9.17383 34.4668 9.87109 34.4668ZM14.3828 34.4668C15.0664 34.4668 15.6133 33.9062 15.6133 33.209C15.6133 32.498 15.0664 31.9512 14.3828 31.9512C13.6855 31.9512 13.125 32.5117 13.125 33.209C13.125 33.9062 13.6855 34.4668 14.3828 34.4668ZM18.8809 34.4668C19.5645 34.4668 20.125 33.9062 20.125 33.209C20.125 32.498 19.5645 31.9512 18.8809 31.9512C18.1836 31.9512 17.623 32.5117 17.623 33.209C17.623 33.9062 18.1836 34.4668 18.8809 34.4668ZM23.1875 36.7637C23.7754 36.7637 24.2402 36.2988 24.2402 35.7246L24.2402 25.2246C24.2402 24.6367 23.7754 24.1582 23.1875 24.1582C22.6133 24.1582 22.1348 24.6367 22.1348 25.2246L22.1348 35.7246C22.1348 36.2988 22.6133 36.7637 23.1875 36.7637Z" fill="black" fill-opacity="0.85"/>
  <path d="M17.7461 21.5059L17.7461 2.78906C17.7461 1.16211 16.8711 0.287109 15.2578 0.287109L7.32812 0.287109C5.70117 0.287109 4.85352 1.17578 4.85352 2.78906L4.85352 21.5059ZM7.64258 9.21484C6.91797 9.21484 6.50781 8.81836 6.50781 8.14844L6.50781 3.00781C6.50781 2.35156 6.91797 1.94141 7.64258 1.94141L14.9434 1.94141C15.668 1.94141 16.0918 2.35156 16.0918 3.00781L16.0918 8.14844C16.0918 8.81836 15.668 9.21484 14.9434 9.21484ZM3.18555 21.4375C3.18555 21.9434 3.5957 22.3262 4.06055 22.3262L18.5117 22.3262C19.0039 22.3262 19.4004 21.9434 19.4004 21.4375C19.4004 20.959 19.0039 20.5625 18.5117 20.5625L4.06055 20.5625C3.5957 20.5625 3.18555 20.9453 3.18555 21.4375ZM21.4648 19.8789C23.3242 19.8789 24.3633 18.6211 24.3633 16.4473C24.3633 13.9863 23.8984 11.1289 22.9688 6.63086L22.75 5.60547C22.5449 4.63477 22.2305 3.80078 21.6562 3.07617L20.5352 1.69531C19.9609 0.957031 18.8398 1.81836 19.4688 2.57031L20.8496 4.32031C20.918 4.40234 20.918 4.52539 20.8496 4.64844L20.0293 6.16602C19.7832 6.63086 19.8516 6.94531 20.207 7.35547L22.0391 9.2832C22.6406 12.0449 22.9824 14.5195 22.9824 16.4473C22.9824 17.7871 22.4492 18.4844 21.4648 18.4844C20.5898 18.4844 20.0703 17.9648 20.0703 17.0078C20.0703 15.5859 20.3164 13.6582 20.3164 11.8945C20.3164 10.0898 19.4141 8.73633 17.2266 8.03906L16.6797 9.31055C18.293 9.77539 18.9219 10.6914 18.9219 11.8945C18.9219 13.4395 18.6895 15.3672 18.6895 17.0078C18.6895 18.7578 19.7832 19.8789 21.4648 19.8789Z" fill="black" fill-opacity="0.85"/>
 </g>
</svg>
