<?xml version="1.0" encoding="UTF-8"?>
<!--Generator: Apple Native CoreSVG 326-->
<!DOCTYPE svg
PUBLIC "-//W3C//DTD SVG 1.1//EN"
       "http://www.w3.org/Graphics/SVG/1.1/DTD/svg11.dtd">
<svg version="1.1" xmlns="http://www.w3.org/2000/svg" xmlns:xlink="http://www.w3.org/1999/xlink" viewBox="0 0 36.8525 37.2423">
 <g>
  <rect height="37.2423" opacity="0" width="36.8525" x="0" y="0"/>
  <path d="M24.5991 30.6946L24.5991 31.6573L25.5631 31.6573L26.7537 32.8462C26.6986 33.4112 26.2183 33.8584 25.6655 33.8584L5.59521 33.8584C5.00732 33.8584 4.51514 33.3526 4.51514 32.7373C4.51514 32.1358 5.021 31.6573 5.59521 31.6573L6.68896 31.6573L6.68896 12.8092ZM28.3726 5.39359L29.9175 7.32132C30.7241 8.33304 31.1343 9.42679 31.4214 10.7803L31.7085 12.2159C32.9937 18.4366 33.6636 22.3877 33.6636 25.8194C33.6636 27.9945 32.8996 29.4724 31.5006 30.097L30.1458 28.7428C31.3444 28.5714 32.0093 27.5447 32.0093 25.8194C32.0093 23.126 31.5308 19.6807 30.6694 15.7979L28.1265 13.0909C27.6479 12.5577 27.5796 12.1748 27.8804 11.6006L29.0425 9.46781C29.1519 9.2764 29.1382 9.05765 29.0151 8.89359L27.0737 6.47367C26.3218 5.53031 27.6753 4.51859 28.3726 5.39359ZM24.5991 6.84281L24.5991 14.5546C27.0212 15.558 28.0171 17.2736 28.0171 19.4756C28.0171 21.8033 27.7202 24.3289 27.6945 26.2927L26.0942 24.6931C26.1877 22.9265 26.3628 21.0734 26.3628 19.4756C26.3628 18.2148 25.8379 17.1235 24.5991 16.3832L24.5991 23.1988L17.1538 15.7569L20.7026 15.7569C21.7007 15.7569 22.3022 15.21 22.3022 14.294L22.3022 7.15726C22.3022 6.22757 21.7007 5.66703 20.7026 5.66703L10.5718 5.66703C9.57373 5.66703 8.97217 6.22757 8.97217 7.15726L8.97217 7.57904L6.87352 5.48136C7.28199 4.10668 8.38897 3.37015 10.1343 3.37015L21.1401 3.37015C23.3687 3.37015 24.5991 4.60062 24.5991 6.84281Z" fill="black" fill-opacity="0.85"/>
  <path d="M31.5034 35.3487C31.9272 35.7588 32.5972 35.7588 32.9937 35.3487C33.4038 34.9248 33.4175 34.2549 32.9937 33.8448L3.39404 4.27249C2.98389 3.86234 2.31396 3.86234 1.89014 4.27249C1.49365 4.66898 1.49365 5.36624 1.89014 5.76273Z" fill="black" fill-opacity="0.85"/>
 </g>
</svg>
