<?xml version="1.0" encoding="UTF-8"?>
<!--Generator: Apple Native CoreSVG 326-->
<!DOCTYPE svg
PUBLIC "-//W3C//DTD SVG 1.1//EN"
       "http://www.w3.org/Graphics/SVG/1.1/DTD/svg11.dtd">
<svg version="1.1" xmlns="http://www.w3.org/2000/svg" xmlns:xlink="http://www.w3.org/1999/xlink" viewBox="0 0 30.4746 30.502">
 <g>
  <rect height="30.502" opacity="0" width="30.4746" x="0" y="0"/>
  <path d="M21.4102 29.4629L21.4102 3.47266C21.4102 1.23047 20.1797 0 17.9512 0L6.94531 0C4.68945 0 3.5 1.23047 3.5 3.47266L3.5 29.4629ZM7.38281 12.3867C6.38477 12.3867 5.7832 11.8398 5.7832 10.9238L5.7832 3.78711C5.7832 2.85742 6.38477 2.29688 7.38281 2.29688L17.5137 2.29688C18.5117 2.29688 19.1133 2.85742 19.1133 3.78711L19.1133 10.9238C19.1133 11.8398 18.5117 12.3867 17.5137 12.3867ZM1.32617 29.3672C1.32617 29.9824 1.81836 30.4883 2.40625 30.4883L22.4766 30.4883C23.0645 30.4883 23.5703 29.9824 23.5703 29.3672C23.5703 28.7793 23.0645 28.2871 22.4766 28.2871L2.40625 28.2871C1.83203 28.2871 1.32617 28.7656 1.32617 29.3672ZM26.5781 27.0703C29.0664 27.0703 30.4746 25.4023 30.4746 22.4492C30.4746 19.0176 29.8047 15.0664 28.5195 8.8457L28.2324 7.41016C27.9453 6.05664 27.5352 4.96289 26.7285 3.95117L25.1836 2.02344C24.4863 1.14844 23.1328 2.16016 23.8848 3.10352L25.8262 5.52344C25.9492 5.6875 25.9629 5.90625 25.8535 6.09766L24.6914 8.23047C24.3906 8.80469 24.459 9.1875 24.9375 9.7207L27.4805 12.4277C28.3418 16.3105 28.8203 19.7559 28.8203 22.4492C28.8203 24.3496 28.0137 25.4023 26.5781 25.4023C25.3203 25.4023 24.5 24.582 24.5 23.2285C24.5 21.2188 24.8281 18.5527 24.8281 16.1055C24.8281 13.7129 23.6523 11.8945 20.7539 10.9375L20.0977 12.4414C22.2852 13.1113 23.1738 14.4648 23.1738 16.1055C23.1738 18.293 22.8457 20.959 22.8457 23.2285C22.8457 25.5938 24.3086 27.0703 26.5781 27.0703Z" fill="black" fill-opacity="0.85"/>
 </g>
</svg>
