<?xml version="1.0" encoding="UTF-8"?>
<!--Generator: Apple Native CoreSVG 326-->
<!DOCTYPE svg
PUBLIC "-//W3C//DTD SVG 1.1//EN"
       "http://www.w3.org/Graphics/SVG/1.1/DTD/svg11.dtd">
<svg version="1.1" xmlns="http://www.w3.org/2000/svg" xmlns:xlink="http://www.w3.org/1999/xlink" viewBox="0 0 36.8457 20.2207">
 <g>
  <rect height="20.2207" opacity="0" width="36.8457" x="0" y="0"/>
  <path d="M18.1836 20.2207C18.6484 20.2207 18.9766 19.9609 18.9766 19.4961C18.9766 19.291 18.9355 19.1816 18.7852 18.8945C17.1172 16.3105 16.1602 13.3438 16.1602 10.1309C16.1602 7.02734 17.0625 3.92383 18.7852 1.32617C18.9355 1.03906 18.9766 0.929688 18.9766 0.724609C18.9766 0.287109 18.6484 0 18.1836 0C17.7324 0 17.377 0.205078 16.9395 0.806641C14.875 3.41797 13.8496 6.67188 13.8496 10.1172C13.8496 13.5625 14.8477 16.7207 16.9395 19.4141C17.377 20.0156 17.7324 20.2207 18.1836 20.2207ZM21.0547 16.5977C21.4922 16.5977 21.8066 16.4473 22.1484 15.9551L25.1426 11.6895L25.1973 11.6895L28.2598 16.0234C28.6016 16.502 28.9297 16.5977 29.2578 16.5977C29.9141 16.5977 30.3379 16.1328 30.3379 15.5723C30.3379 15.3125 30.2695 15.0664 30.0918 14.834L26.5918 10.0762L30.0918 5.38672C30.2559 5.1543 30.3516 4.9082 30.3516 4.62109C30.3516 4.0332 29.8594 3.62305 29.2988 3.62305C28.8066 3.62305 28.5332 3.86914 28.2734 4.26562L25.3887 8.49023L25.3203 8.49023L22.4219 4.25195C22.1484 3.85547 21.834 3.62305 21.3145 3.62305C20.6719 3.62305 20.1934 4.12891 20.1934 4.67578C20.1934 5.07227 20.3164 5.31836 20.4941 5.55078L23.8301 10.0078L20.2891 14.8887C20.0977 15.1484 20.0566 15.3809 20.0566 15.6543C20.0566 16.1875 20.5078 16.5977 21.0547 16.5977ZM32.1562 20.2207C32.6074 20.2207 32.9629 20.0156 33.4004 19.4141C35.4922 16.7207 36.4902 13.5625 36.4902 10.1172C36.4902 6.67188 35.4648 3.41797 33.4004 0.806641C32.9629 0.205078 32.6074 0 32.1562 0C31.6914 0 31.3633 0.287109 31.3633 0.724609C31.3633 0.929688 31.4043 1.03906 31.5547 1.32617C33.2773 3.92383 34.1797 7.02734 34.1797 10.1309C34.1797 13.3438 33.2227 16.3105 31.5547 18.8945C31.4043 19.1816 31.3633 19.291 31.3633 19.4961C31.3633 19.9336 31.6914 20.2207 32.1562 20.2207Z" fill="black" fill-opacity="0.85"/>
  <path d="M1.8457 20.1934C4.52539 20.1934 5.75586 19.0449 6.41211 15.9688L7.9707 8.49023L10.4453 8.49023C11.2383 8.49023 11.7441 8.06641 11.7441 7.38281C11.7441 6.79492 11.3613 6.42578 10.7324 6.42578L8.4082 6.42578L8.79102 4.56641C9.16016 2.83008 9.70703 2.11914 11.2109 2.11914C11.4434 2.11914 11.6621 2.10547 11.8125 2.0918C12.4824 2.02344 12.7969 1.70898 12.7969 1.12109C12.7969 0.355469 12.1543 0.0136719 10.8418 0.0136719C8.23047 0.0136719 6.89062 1.3125 6.27539 4.23828L5.82422 6.42578L4.12891 6.42578C3.32227 6.42578 2.81641 6.84961 2.81641 7.5332C2.81641 8.12109 3.19922 8.49023 3.8418 8.49023L5.38672 8.49023L3.88281 15.6406C3.5 17.4316 2.93945 18.0879 1.47656 18.0879C1.28516 18.0879 1.09375 18.1016 0.970703 18.1152C0.341797 18.1973 0 18.5391 0 19.1133C0 19.8516 0.628906 20.1934 1.8457 20.1934Z" fill="black" fill-opacity="0.85"/>
 </g>
</svg>
