<?xml version="1.0" encoding="UTF-8"?>
<!--Generator: Apple Native CoreSVG 326-->
<!DOCTYPE svg
PUBLIC "-//W3C//DTD SVG 1.1//EN"
       "http://www.w3.org/Graphics/SVG/1.1/DTD/svg11.dtd">
<svg version="1.1" xmlns="http://www.w3.org/2000/svg" xmlns:xlink="http://www.w3.org/1999/xlink" viewBox="0 0 28.2461 27.9043">
 <g>
  <rect height="27.9043" opacity="0" width="28.2461" x="0" y="0"/>
  <path d="M13.9453 27.8906C21.6426 27.8906 27.8906 21.6426 27.8906 13.9453C27.8906 6.24805 21.6426 0 13.9453 0C6.24805 0 0 6.24805 0 13.9453C0 21.6426 6.24805 27.8906 13.9453 27.8906ZM13.9453 25.5664C7.51953 25.5664 2.32422 20.3711 2.32422 13.9453C2.32422 7.51953 7.51953 2.32422 13.9453 2.32422C20.3711 2.32422 25.5664 7.51953 25.5664 13.9453C25.5664 20.3711 20.3711 25.5664 13.9453 25.5664Z" fill="black" fill-opacity="0.85"/>
  <path d="M13.9863 20.3574C17.3223 20.3574 19.3047 18.4023 19.3047 15.5859L19.3047 14.5879C19.3047 13.8496 18.8672 13.4121 18.1562 13.4121L14.6289 13.4121C14.1367 13.4121 13.8359 13.7402 13.8359 14.2051C13.8359 14.6152 14.1367 14.9844 14.6289 14.9844L17.1309 14.9844L17.1309 15.873C17.1309 17.4863 16.0645 18.5527 14.0137 18.5527C11.8125 18.5527 10.3496 16.6797 10.3496 13.8223C10.3496 10.9922 11.7988 9.07812 13.9727 9.07812C15.5176 9.07812 16.666 9.81641 17.2266 11.1699C17.4453 11.6348 17.7188 11.8262 18.1289 11.8262C18.7031 11.8262 19.0723 11.4707 19.0723 10.8965C19.0723 10.6641 19.0449 10.4863 18.9492 10.2676C18.3066 8.54492 16.4883 7.27344 13.9453 7.27344C10.4043 7.27344 8.13477 9.83008 8.13477 13.8223C8.13477 17.8281 10.4043 20.3574 13.9863 20.3574Z" fill="black" fill-opacity="0.85"/>
 </g>
</svg>
