<?xml version="1.0" encoding="UTF-8"?>
<!--Generator: Apple Native CoreSVG 326-->
<!DOCTYPE svg
PUBLIC "-//W3C//DTD SVG 1.1//EN"
       "http://www.w3.org/Graphics/SVG/1.1/DTD/svg11.dtd">
<svg version="1.1" xmlns="http://www.w3.org/2000/svg" xmlns:xlink="http://www.w3.org/1999/xlink" viewBox="0 0 25.5254 25.1699">
 <g>
  <rect height="25.1699" opacity="0" width="25.5254" x="0" y="0"/>
  <path d="M4.29297 25.1699L20.877 25.1699C23.748 25.1699 25.1699 23.7617 25.1699 20.9453L25.1699 4.23828C25.1699 1.42188 23.748 0 20.877 0L4.29297 0C1.43555 0 0 1.42188 0 4.23828L0 20.9453C0 23.7617 1.43555 25.1699 4.29297 25.1699ZM4.32031 22.9688C2.95312 22.9688 2.20117 22.2441 2.20117 20.8223L2.20117 4.36133C2.20117 2.93945 2.95312 2.20117 4.32031 2.20117L20.8496 2.20117C22.2031 2.20117 22.9688 2.93945 22.9688 4.36133L22.9688 20.8223C22.9688 22.2441 22.2031 22.9688 20.8496 22.9688Z" fill="black" fill-opacity="0.85"/>
  <path d="M12.6465 18.9902C15.9824 18.9902 17.9648 17.0352 17.9648 14.2188L17.9648 13.2207C17.9648 12.4824 17.5273 12.0449 16.8164 12.0449L13.3027 12.0449C12.7969 12.0449 12.4961 12.373 12.4961 12.8379C12.4961 13.248 12.7969 13.6172 13.3027 13.6172L15.791 13.6172L15.791 14.5059C15.791 16.1191 14.7383 17.1855 12.6738 17.1855C10.4727 17.1855 9.00977 15.3125 9.00977 12.4551C9.00977 9.625 10.459 7.71094 12.6328 7.71094C14.1777 7.71094 15.3262 8.44922 15.8867 9.80273C16.1191 10.2676 16.3789 10.459 16.8027 10.459C17.3633 10.459 17.7324 10.1035 17.7324 9.5293C17.7324 9.29688 17.7051 9.11914 17.6094 8.90039C16.9668 7.17773 15.1484 5.90625 12.6055 5.90625C9.06445 5.90625 6.79492 8.46289 6.79492 12.4551C6.79492 16.4609 9.06445 18.9902 12.6465 18.9902Z" fill="black" fill-opacity="0.85"/>
 </g>
</svg>
