<?xml version="1.0" encoding="UTF-8"?>
<!--Generator: Apple Native CoreSVG 326-->
<!DOCTYPE svg
PUBLIC "-//W3C//DTD SVG 1.1//EN"
       "http://www.w3.org/Graphics/SVG/1.1/DTD/svg11.dtd">
<svg version="1.1" xmlns="http://www.w3.org/2000/svg" xmlns:xlink="http://www.w3.org/1999/xlink" viewBox="0 0 39.8262 24.7871">
 <g>
  <rect height="24.7871" opacity="0" width="39.8262" x="0" y="0"/>
  <path d="M0 19.5098C0 22.709 2.07812 24.7871 5.20898 24.7871C6.79492 24.7871 8.36719 24.1035 9.51562 22.6816L11.9902 19.6875C12.3457 19.2637 12.7559 19.0586 13.166 19.0586L26.3047 19.0586C26.7148 19.0586 27.125 19.2637 27.4805 19.6875L29.9551 22.6816C31.1035 24.1035 32.6758 24.7871 34.2617 24.7871C37.3926 24.7871 39.4707 22.709 39.4707 19.5098C39.4707 18.1426 39.1562 16.5703 38.623 14.8066C37.7891 12.0039 36.3262 8.18945 34.9316 5.23633C33.7559 2.77539 33.1543 1.6543 30.2559 0.998047C27.6855 0.410156 24.1172 0.0136719 19.7422 0.0136719C15.3672 0.0136719 11.7852 0.410156 9.21484 0.998047C6.31641 1.6543 5.71484 2.77539 4.53906 5.23633C3.14453 8.18945 1.68164 12.0039 0.847656 14.8066C0.314453 16.5703 0 18.1426 0 19.5098ZM2.0918 19.5918C2.0918 18.7305 2.2832 17.6914 2.7207 16.2012C3.63672 13.0566 5.22266 8.98242 6.60352 5.96094C7.27344 4.49805 7.64258 3.60938 9.41992 3.19922C11.8945 2.61133 15.4219 2.21484 19.7422 2.21484C24.0488 2.21484 27.5762 2.61133 30.0508 3.19922C31.8281 3.60938 32.1836 4.49805 32.8672 5.96094C34.2754 8.98242 35.793 13.0703 36.75 16.2012C37.2012 17.6914 37.3789 18.7305 37.3789 19.5918C37.3789 21.4785 36.0527 22.668 34.2891 22.668C33.25 22.668 32.2383 22.1211 31.4453 21.1504L28.875 18.0469C28.2188 17.2539 27.6719 16.8574 26.4004 16.8574L13.0703 16.8574C11.7988 16.8574 11.252 17.2539 10.5957 18.0469L8.02539 21.1504C7.23242 22.1211 6.2207 22.668 5.18164 22.668C3.41797 22.668 2.0918 21.4785 2.0918 19.5918Z" fill="black" fill-opacity="0.85"/>
  <path d="M8.66797 9.65234C8.66797 10.3633 9.0918 10.8008 9.80273 10.8008L12.2637 10.8008L12.2637 13.1934C12.2637 13.8906 12.6602 14.3281 13.3438 14.3281C14.0137 14.3281 14.4238 13.8906 14.4238 13.1934L14.4238 10.8008L16.7344 10.8008C17.5 10.8008 17.9512 10.3633 17.9512 9.65234C17.9512 8.96875 17.5 8.54492 16.7344 8.54492L14.4238 8.54492L14.4238 6.15234C14.4238 5.45508 14.0137 5.03125 13.3438 5.03125C12.6602 5.03125 12.2637 5.45508 12.2637 6.15234L12.2637 8.54492L9.80273 8.54492C9.0918 8.54492 8.66797 8.96875 8.66797 9.65234ZM28.2324 9.51562C29.3398 9.51562 30.2285 8.62695 30.2285 7.5332C30.2285 6.42578 29.3398 5.53711 28.2324 5.53711C27.1387 5.53711 26.2363 6.42578 26.2363 7.5332C26.2363 8.62695 27.1387 9.51562 28.2324 9.51562ZM24.2129 13.5625C25.3066 13.5625 26.209 12.6738 26.209 11.5801C26.209 10.4727 25.3066 9.58398 24.2129 9.58398C23.1191 9.58398 22.2168 10.4727 22.2168 11.5801C22.2168 12.6738 23.1191 13.5625 24.2129 13.5625Z" fill="black" fill-opacity="0.85"/>
 </g>
</svg>
