<?xml version="1.0" encoding="UTF-8"?>
<!--Generator: Apple Native CoreSVG 326-->
<!DOCTYPE svg
PUBLIC "-//W3C//DTD SVG 1.1//EN"
       "http://www.w3.org/Graphics/SVG/1.1/DTD/svg11.dtd">
<svg version="1.1" xmlns="http://www.w3.org/2000/svg" xmlns:xlink="http://www.w3.org/1999/xlink" viewBox="0 0 28.2461 27.9043">
 <g>
  <rect height="27.9043" opacity="0" width="28.2461" x="0" y="0"/>
  <path d="M13.9453 27.9043C21.6426 27.9043 27.8906 21.6562 27.8906 13.959C27.8906 6.27539 21.6426 0.0136719 13.9453 0.0136719C6.26172 0.0136719 0 6.27539 0 13.959C0 21.6562 6.26172 27.9043 13.9453 27.9043Z" fill="black" fill-opacity="0.85"/>
  <path d="M7.25977 18.9629C5.81055 18.9629 4.85352 18.0059 4.85352 16.543C4.85352 15.9277 5.01758 15.2031 5.25 14.3691C5.64648 13.1113 6.30273 11.3477 6.95898 9.98047C7.49219 8.8457 7.76562 8.33984 9.0918 8.03906C10.2812 7.76562 11.9219 7.58789 13.9316 7.58789C15.9414 7.58789 17.582 7.76562 18.7715 8.03906C20.0977 8.33984 20.3711 8.8457 20.9043 9.98047C21.5605 11.3477 22.2305 13.1113 22.6133 14.3691C22.8594 15.2031 23.0098 15.9277 23.0098 16.543C23.0098 18.0059 22.0527 18.9629 20.6035 18.9629C19.7559 18.9629 19.168 18.6484 18.6484 18.0059L17.5 16.6113C17.3359 16.4199 17.1582 16.3379 16.9531 16.3379L10.9102 16.3379C10.7051 16.3379 10.5273 16.4199 10.3633 16.6113L9.22852 18.0059C8.69531 18.6484 8.10742 18.9629 7.25977 18.9629ZM8.66797 12.0039C8.66797 12.3594 8.87305 12.5918 9.22852 12.5918L10.3633 12.5918L10.3633 13.7129C10.3633 14.0547 10.5684 14.2598 10.8965 14.2598C11.2383 14.2598 11.4434 14.0547 11.4434 13.7129L11.4434 12.5918L12.5234 12.5918C12.9062 12.5918 13.125 12.3594 13.125 12.0039C13.125 11.6621 12.9062 11.457 12.5234 11.457L11.4434 11.457L11.4434 10.3496C11.4434 9.99414 11.2383 9.77539 10.8965 9.77539C10.5684 9.77539 10.3633 9.99414 10.3633 10.3496L10.3633 11.457L9.22852 11.457C8.87305 11.457 8.66797 11.6621 8.66797 12.0039ZM17.9648 11.9355C18.4844 11.9355 18.9082 11.5254 18.9082 10.9922C18.9082 10.4863 18.4844 10.0625 17.9648 10.0625C17.459 10.0625 17.0215 10.4863 17.0215 10.9922C17.0215 11.5254 17.459 11.9355 17.9648 11.9355ZM16.0645 13.8633C16.584 13.8633 17.0078 13.4395 17.0078 12.9199C17.0078 12.4141 16.584 11.9902 16.0645 11.9902C15.5449 11.9902 15.1211 12.4141 15.1211 12.9199C15.1211 13.4395 15.5449 13.8633 16.0645 13.8633Z" fill="white"/>
 </g>
</svg>
