<?xml version="1.0" encoding="UTF-8"?>
<!--Generator: Apple Native CoreSVG 326-->
<!DOCTYPE svg
PUBLIC "-//W3C//DTD SVG 1.1//EN"
       "http://www.w3.org/Graphics/SVG/1.1/DTD/svg11.dtd">
<svg version="1.1" xmlns="http://www.w3.org/2000/svg" xmlns:xlink="http://www.w3.org/1999/xlink" viewBox="0 0 39.8262 24.7871">
 <g>
  <rect height="24.7871" opacity="0" width="39.8262" x="0" y="0"/>
  <path d="M8.32617 9.65234C8.32617 8.94141 8.76367 8.50391 9.50195 8.50391L12.0312 8.50391L12.0312 6.04297C12.0312 5.31836 12.4414 4.88086 13.1523 4.88086C13.8496 4.88086 14.2734 5.31836 14.2734 6.04297L14.2734 8.50391L16.6387 8.50391C17.4316 8.50391 17.9102 8.94141 17.9102 9.65234C17.9102 10.3906 17.4316 10.8418 16.6387 10.8418L14.2734 10.8418L14.2734 13.3027C14.2734 14.0273 13.8496 14.4785 13.1523 14.4785C12.4414 14.4785 12.0312 14.0273 12.0312 13.3027L12.0312 10.8418L9.50195 10.8418C8.76367 10.8418 8.32617 10.3906 8.32617 9.65234ZM28.5059 9.51562C27.3848 9.51562 26.4414 8.59961 26.4414 7.46484C26.4414 6.31641 27.3848 5.40039 28.5059 5.40039C29.6543 5.40039 30.5703 6.31641 30.5703 7.46484C30.5703 8.59961 29.6543 9.51562 28.5059 9.51562ZM24.3633 13.6855C23.2422 13.6855 22.2988 12.7695 22.2988 11.6348C22.2988 10.5 23.2422 9.57031 24.3633 9.57031C25.498 9.57031 26.4277 10.5 26.4277 11.6348C26.4277 12.7695 25.498 13.6855 24.3633 13.6855ZM5.20898 24.7871C7.08203 24.7871 8.36719 24.1035 9.51562 22.6816L11.9902 19.6875C12.3457 19.2637 12.7559 19.0586 13.166 19.0586L26.3047 19.0586C26.7148 19.0586 27.125 19.2637 27.4805 19.6875L29.9551 22.6816C31.1035 24.1035 32.3887 24.7871 34.2617 24.7871C37.3926 24.7871 39.4707 22.709 39.4707 19.5098C39.4707 18.1426 39.1562 16.5703 38.623 14.8066C37.7891 12.0039 36.3262 8.18945 34.9316 5.23633C33.7559 2.77539 33.1543 1.6543 30.2559 0.998047C27.6855 0.410156 24.1172 0.0136719 19.7422 0.0136719C15.3672 0.0136719 11.7852 0.410156 9.21484 0.998047C6.31641 1.6543 5.71484 2.77539 4.53906 5.23633C3.14453 8.18945 1.68164 12.0039 0.847656 14.8066C0.314453 16.5703 0 18.1426 0 19.5098C0 22.709 2.07812 24.7871 5.20898 24.7871Z" fill="black" fill-opacity="0.85"/>
 </g>
</svg>
