<?xml version="1.0" encoding="UTF-8"?>
<!--Generator: Apple Native CoreSVG 326-->
<!DOCTYPE svg
PUBLIC "-//W3C//DTD SVG 1.1//EN"
       "http://www.w3.org/Graphics/SVG/1.1/DTD/svg11.dtd">
<svg version="1.1" xmlns="http://www.w3.org/2000/svg" xmlns:xlink="http://www.w3.org/1999/xlink" viewBox="0 0 44.0866 42.4512">
 <g>
  <rect height="42.4512" opacity="0" width="44.0866" x="0" y="0"/>
  <path d="M21.7767 5.72852C23.1849 5.90625 24.306 6.60352 24.8939 8.27148L25.7995 10.8724C25.076 10.8919 24.3692 10.9812 23.6802 11.1245C23.7595 10.9812 23.7633 10.7859 23.6908 10.5684L23.0345 8.66797C22.8021 7.95703 22.4329 7.72461 21.804 7.64258C21.0931 7.54688 19.138 7.46484 16.2396 7.46484C13.3411 7.46484 11.3724 7.54688 10.6615 7.64258C10.0462 7.72461 9.66341 7.95703 9.43099 8.66797L8.78841 10.5684C8.63802 11.0195 8.81575 11.375 9.29427 11.375L22.6474 11.375C20.4051 11.9566 18.356 13.0423 16.6172 14.4922L13.9154 14.4922C13.4232 14.4922 13.0951 14.8203 13.0951 15.3398L13.0951 16.3789C13.0951 16.9258 13.4232 17.2539 13.9154 17.2539L14.0203 17.2539C13.0175 18.5673 12.2299 20.048 11.7029 21.6426L8.10482 21.6426L8.10482 23.1055C8.10482 23.8574 7.51693 24.4453 6.7513 24.4453L5.56185 24.4453C4.79622 24.4453 4.20833 23.8574 4.20833 23.1055L4.20833 16.3379C4.20833 14.6152 4.45443 13.5898 5.50716 12.4414L6.51888 11.334L7.58528 8.27148C8.17318 6.60352 9.29427 5.90625 10.7025 5.72852C11.3861 5.66016 13.6146 5.5918 16.2396 5.5918C18.8646 5.5918 21.0931 5.66016 21.7767 5.72852ZM6.80599 15.0664L6.80599 16.666C6.80599 17.2812 7.25716 17.7324 7.88607 17.7324C8.5013 17.7324 8.96614 17.2812 8.96614 16.666L8.96614 15.0664C8.96614 14.4375 8.5013 14 7.88607 14C7.25716 14 6.80599 14.4512 6.80599 15.0664Z" fill="black" fill-opacity="0.85"/>
  <path d="M40.5892 26.6328C40.5892 19.0176 34.2865 12.6875 26.6576 12.6875C19.0423 12.6875 12.7259 19.0176 12.7259 26.6328C12.7259 30.2148 14.1204 33.5098 16.39 35.9844C16.9915 36.6543 18.0443 36.8184 18.8509 36.0117L20.7786 34.0977C21.2161 33.6738 21.2025 32.9629 20.7786 32.5391C20.3548 32.1152 19.6439 32.1152 19.2201 32.5391L17.7298 34.043C16.0618 32.0332 15.0638 29.4629 15.0638 26.6328C15.0638 20.1797 20.2044 15.0117 26.6576 15.0117C33.1107 15.0117 38.2513 20.1797 38.2513 26.6328C38.2513 29.4629 37.2533 32.0332 35.599 34.043L34.0951 32.5391C33.6712 32.1152 32.9603 32.1152 32.5365 32.5391C32.1126 32.9629 32.1126 33.6738 32.5365 34.0977L34.4642 36.0117C35.2708 36.8184 36.3236 36.6543 36.9251 35.9844C39.1947 33.5098 40.5892 30.2148 40.5892 26.6328ZM36.0911 25.5391C35.4896 25.5391 34.9837 26.0312 34.9837 26.6328C34.9837 27.2344 35.4896 27.7402 36.0911 27.7402L39.4271 27.7402L39.4271 25.5391ZM27.765 17.1855L27.765 13.8496L25.5638 13.8496L25.5638 17.1855C25.5638 17.7871 26.056 18.2793 26.6576 18.2793C27.2591 18.2793 27.765 17.7871 27.765 17.1855ZM20.7376 19.1816L18.3724 16.8164L16.8275 18.375L19.179 20.7266C19.6029 21.1641 20.3138 21.1504 20.7376 20.7266C21.1615 20.3027 21.1751 19.5918 20.7376 19.1816ZM17.1966 25.5391L13.8607 25.5391L13.8607 27.7402L17.1966 27.7402C17.7982 27.7402 18.2904 27.2344 18.2904 26.6328C18.2904 26.0312 17.7982 25.5391 17.1966 25.5391Z" fill="black" fill-opacity="0.85"/>
  <path d="M24.9212 28.3691C25.8099 29.2715 27.1087 29.2715 27.9974 28.3691C28.1615 28.2051 28.4212 27.8496 28.5853 27.6309L33.179 21C33.4115 20.6719 33.3431 20.3438 33.1517 20.1387C32.9466 19.9473 32.6185 19.8789 32.2904 20.1113L25.6595 24.7051C25.4408 24.8691 25.0853 25.1289 24.9212 25.293C24.0189 26.1953 24.0189 27.4805 24.9212 28.3691Z" fill="black" fill-opacity="0.85"/>
  <path d="M39.9329 9.48828C39.4818 9.02344 38.9076 9.2832 38.7982 9.84375L37.8138 14.6289C37.6908 15.2441 38.0736 15.6543 38.7025 15.5176L43.4876 14.5469C44.0618 14.4238 44.3079 13.8496 43.8431 13.3984Z" fill="black" fill-opacity="0.85"/>
 </g>
</svg>
