<?xml version="1.0" encoding="UTF-8"?>
<!--Generator: Apple Native CoreSVG 326-->
<!DOCTYPE svg
PUBLIC "-//W3C//DTD SVG 1.1//EN"
       "http://www.w3.org/Graphics/SVG/1.1/DTD/svg11.dtd">
<svg version="1.1" xmlns="http://www.w3.org/2000/svg" xmlns:xlink="http://www.w3.org/1999/xlink" viewBox="0 0 34.4974 31.018">
 <g>
  <rect height="31.018" opacity="0" width="34.4974" x="0" y="0"/>
  <path d="M31.0094 17.3752C31.0094 9.75997 24.693 3.42989 17.0778 3.42989C9.44888 3.42989 3.14614 9.75997 3.14614 17.3752C3.14614 20.9572 4.54067 24.2522 6.8102 26.7268C7.41177 27.3967 8.4645 27.5608 9.27114 26.7541L11.1989 24.84C11.6227 24.4162 11.6227 23.7053 11.1989 23.2815C10.775 22.8576 10.0641 22.8576 9.64028 23.2815L8.13638 24.7854C6.46841 22.7756 5.48403 20.219 5.48403 17.3752C5.48403 10.9358 10.6247 5.75411 17.0778 5.75411C23.5172 5.75411 28.6715 10.9358 28.6715 17.3752C28.6715 20.219 27.6735 22.7756 26.0055 24.7854L24.5016 23.2815C24.0915 22.8576 23.3805 22.8576 22.943 23.2815C22.5329 23.7053 22.5192 24.4162 22.943 24.84L24.8844 26.7541C25.6911 27.5608 26.7438 27.3967 27.3454 26.7268C29.6149 24.2522 31.0094 20.9572 31.0094 17.3752ZM26.4977 16.2815C25.8961 16.2815 25.404 16.7736 25.404 17.3752C25.404 17.9768 25.8961 18.4826 26.4977 18.4826L29.8336 18.4826L29.8336 16.2815ZM18.1715 7.92794L18.1715 4.592L15.9704 4.592L15.9704 7.92794C15.9704 8.5295 16.4762 9.03536 17.0778 9.03536C17.6793 9.03536 18.1715 8.5295 18.1715 7.92794ZM11.1579 9.92403L8.79263 7.5588L7.23403 9.11739L9.59927 11.4826C10.0231 11.9065 10.734 11.9065 11.1579 11.4826C11.5817 11.0451 11.5817 10.3479 11.1579 9.92403ZM7.60317 16.2815L4.26723 16.2815L4.26723 18.4826L7.60317 18.4826C8.20473 18.4826 8.71059 17.9768 8.71059 17.3752C8.71059 16.7736 8.20473 16.2815 7.60317 16.2815Z" fill="black" fill-opacity="0.85"/>
  <path d="M15.3278 19.1252C16.2301 20.0139 17.5153 20.0139 18.4176 19.1252C18.5817 18.9475 18.8415 18.592 18.9918 18.3733L23.5993 11.7424C23.818 11.4143 23.7633 11.0998 23.5719 10.8811C23.3532 10.6897 23.0387 10.6213 22.7106 10.8537L16.0797 15.4611C15.861 15.6115 15.4918 15.8713 15.3278 16.0354C14.4391 16.9377 14.4391 18.2229 15.3278 19.1252Z" fill="black" fill-opacity="0.85"/>
  <path d="M30.3532 0.230672C29.902-0.2205 29.3278 0.0392657 29.2047 0.586141L28.234 5.38497C28.0973 5.98653 28.4938 6.39669 29.1227 6.25997L33.9079 5.28927C34.4684 5.16622 34.7145 4.60567 34.2633 4.14083Z" fill="black" fill-opacity="0.85"/>
 </g>
</svg>
