<?xml version="1.0" encoding="UTF-8"?>
<!--Generator: Apple Native CoreSVG 326-->
<!DOCTYPE svg
PUBLIC "-//W3C//DTD SVG 1.1//EN"
       "http://www.w3.org/Graphics/SVG/1.1/DTD/svg11.dtd">
<svg version="1.1" xmlns="http://www.w3.org/2000/svg" xmlns:xlink="http://www.w3.org/1999/xlink" viewBox="0 0 28.2461 27.9043">
 <g>
  <rect height="27.9043" opacity="0" width="28.2461" x="0" y="0"/>
  <path d="M27.8906 13.9453C27.8906 21.6289 21.6426 27.8906 13.9453 27.8906C6.26172 27.8906 0 21.6289 0 13.9453C0 6.24805 6.26172 0 13.9453 0C21.6426 0 27.8906 6.24805 27.8906 13.9453ZM7.25977 8.03906L11.9629 15.0527C12.4141 15.75 13.1113 16.2148 13.9453 16.2148C15.2168 16.2148 16.2422 15.2031 16.2422 13.9453C16.2422 13.166 15.8594 12.4961 15.2578 12.0723L8.20312 7.08203C7.50586 6.58984 6.78125 7.31445 7.25977 8.03906Z" fill="black" fill-opacity="0.85"/>
 </g>
</svg>
