<?xml version="1.0" encoding="UTF-8"?>
<!--Generator: Apple Native CoreSVG 326-->
<!DOCTYPE svg
PUBLIC "-//W3C//DTD SVG 1.1//EN"
       "http://www.w3.org/Graphics/SVG/1.1/DTD/svg11.dtd">
<svg version="1.1" xmlns="http://www.w3.org/2000/svg" xmlns:xlink="http://www.w3.org/1999/xlink" viewBox="0 0 28.2461 27.9043">
 <g>
  <rect height="27.9043" opacity="0" width="28.2461" x="0" y="0"/>
  <path d="M13.9453 27.8906C21.6426 27.8906 27.8906 21.6426 27.8906 13.9453C27.8906 6.24805 21.6426 0 13.9453 0C6.24805 0 0 6.24805 0 13.9453C0 21.6426 6.24805 27.8906 13.9453 27.8906ZM13.9453 25.5664C7.51953 25.5664 2.32422 20.3711 2.32422 13.9453C2.32422 7.51953 7.51953 2.32422 13.9453 2.32422C20.3711 2.32422 25.5664 7.51953 25.5664 13.9453C25.5664 20.3711 20.3711 25.5664 13.9453 25.5664Z" fill="#8e8e93"/>
  <path d="M13.9316 21.6152C14.1094 21.6152 14.2598 21.6152 14.4375 21.6016L14.8066 22.3535C14.957 22.5996 15.1758 22.709 15.4629 22.668C15.7363 22.627 15.9414 22.4219 15.9824 22.1348L16.0781 21.3145C16.4062 21.2324 16.7207 21.1094 17.0352 20.9727L17.6367 21.5469C17.8418 21.7383 18.1016 21.752 18.3477 21.6152C18.5938 21.4785 18.7305 21.2188 18.6621 20.9453L18.4707 20.1387C18.7441 19.9336 19.0039 19.7285 19.2363 19.4961L20.0156 19.8105C20.2754 19.9199 20.5352 19.8652 20.7129 19.6465C20.8906 19.4414 20.9316 19.127 20.7676 18.9082L20.3164 18.2109C20.5078 17.9375 20.6719 17.6504 20.8223 17.3359L21.6426 17.3906C21.9297 17.4043 22.1621 17.2402 22.2578 16.9805C22.3535 16.7207 22.2715 16.4336 22.0527 16.2695L21.3965 15.7637C21.4648 15.4492 21.5332 15.1211 21.5605 14.793L22.3672 14.5332C22.6406 14.4512 22.791 14.2188 22.791 13.9453C22.791 13.6719 22.627 13.4395 22.3672 13.3574L21.5605 13.0977C21.5332 12.7695 21.4648 12.4414 21.3965 12.127L22.0664 11.6348C22.2852 11.4434 22.3398 11.1973 22.2578 10.9238C22.1758 10.6641 21.9434 10.5 21.6426 10.4863L20.8223 10.5547C20.6719 10.2539 20.5078 9.9668 20.3301 9.67969L20.7812 8.99609C20.918 8.73633 20.9043 8.47656 20.7266 8.25781C20.5488 8.03906 20.2754 7.9707 20.002 8.06641L19.25 8.4082C19.0039 8.17578 18.7578 7.95703 18.4707 7.75195L18.6758 6.95898C18.7168 6.6582 18.6211 6.42578 18.375 6.27539C18.1289 6.13867 17.8418 6.13867 17.6367 6.34375L17.0488 6.91797C16.7344 6.79492 16.4062 6.6582 16.0781 6.5625L15.9961 5.75586C15.9277 5.46875 15.7637 5.27734 15.4766 5.22266C15.2031 5.18164 14.957 5.27734 14.8066 5.53711L14.4375 6.28906C14.2734 6.27539 14.1094 6.26172 13.9316 6.26172C13.7539 6.26172 13.6035 6.27539 13.4258 6.28906L13.0566 5.53711C12.9199 5.29102 12.6738 5.18164 12.4141 5.22266C12.127 5.27734 11.9219 5.45508 11.8809 5.75586L11.7988 6.5625C11.4707 6.6582 11.1426 6.78125 10.8418 6.91797L10.2402 6.34375C10.0352 6.15234 9.74805 6.13867 9.51562 6.26172C9.26953 6.41211 9.13281 6.6582 9.20117 6.94531L9.39258 7.75195C9.13281 7.94336 8.85938 8.16211 8.62695 8.39453L7.86133 8.08008C7.60156 7.95703 7.32812 8.03906 7.15039 8.24414C6.97266 8.46289 6.94531 8.75 7.0957 8.98242L7.54688 9.67969C7.35547 9.95312 7.19141 10.2402 7.04102 10.541L6.2207 10.5C5.93359 10.4863 5.70117 10.6641 5.61914 10.9102C5.50977 11.1699 5.5918 11.4434 5.81055 11.6211L6.48047 12.1133C6.39844 12.4414 6.34375 12.7695 6.30273 13.0977L5.50977 13.3574C5.23633 13.4395 5.07227 13.6719 5.07227 13.9453C5.07227 14.2188 5.23633 14.4512 5.50977 14.5332L6.30273 14.793C6.34375 15.1211 6.39844 15.4492 6.48047 15.7637L5.81055 16.2695C5.57812 16.4609 5.49609 16.6934 5.5918 16.9531C5.71484 17.2129 5.93359 17.4043 6.2207 17.3906L7.04102 17.3223C7.19141 17.6367 7.35547 17.9375 7.56055 18.2109L7.0957 18.9082C6.91797 19.168 6.95898 19.4141 7.12305 19.6191C7.32812 19.8379 7.58789 19.9336 7.86133 19.8105L8.61328 19.4824C8.85938 19.7148 9.11914 19.9336 9.39258 20.1387L9.20117 20.9453C9.13281 21.2324 9.25586 21.4648 9.48828 21.6152C9.73438 21.7383 10.0352 21.7383 10.2402 21.5332L10.8418 20.9727C11.1426 21.1094 11.457 21.2188 11.7852 21.3145L11.8809 22.1348C11.9219 22.4219 12.1133 22.6133 12.373 22.668C12.6465 22.709 12.9062 22.5996 13.0566 22.3535L13.4258 21.6016C13.5898 21.6152 13.7539 21.6152 13.9316 21.6152ZM13.9316 20.0977C10.5273 20.0977 7.76562 17.3496 7.76562 13.9453C7.76562 10.541 10.5273 7.7793 13.9316 7.7793C17.3359 7.7793 20.0977 10.541 20.0977 13.9453C20.0977 17.3496 17.3359 20.0977 13.9316 20.0977ZM12.4277 12.7559L13.6309 12.0859L10.8965 7.42383L9.70703 8.09375ZM15.0527 13.2617L15.0527 14.6152L21.0957 14.6152L21.0957 13.2617ZM13.6445 15.832L12.4551 15.1348L9.61133 19.7422L10.8008 20.4531ZM13.9316 16.1328C15.1348 16.1328 16.1191 15.1484 16.1191 13.9453C16.1191 12.7422 15.1348 11.7578 13.9316 11.7578C12.7285 11.7578 11.7441 12.7422 11.7441 13.9453C11.7441 15.1484 12.7285 16.1328 13.9316 16.1328ZM13.9316 14.7383C13.4941 14.7383 13.1387 14.3828 13.1387 13.9453C13.1387 13.5078 13.4941 13.1523 13.9316 13.1523C14.3691 13.1523 14.7246 13.5078 14.7246 13.9453C14.7246 14.3828 14.3691 14.7383 13.9316 14.7383Z" fill="#8e8e93"/>
 </g>
</svg>
