<?xml version="1.0" encoding="UTF-8"?>
<!--Generator: Apple Native CoreSVG 326-->
<!DOCTYPE svg
PUBLIC "-//W3C//DTD SVG 1.1//EN"
       "http://www.w3.org/Graphics/SVG/1.1/DTD/svg11.dtd">
<svg version="1.1" xmlns="http://www.w3.org/2000/svg" xmlns:xlink="http://www.w3.org/1999/xlink" viewBox="0 0 28.2461 27.9043">
 <g>
  <rect height="27.9043" opacity="0" width="28.2461" x="0" y="0"/>
  <path d="M13.9453 27.9043C21.6426 27.9043 27.8906 21.6562 27.8906 13.959C27.8906 6.27539 21.6426 0.0136719 13.9453 0.0136719C6.26172 0.0136719 0 6.27539 0 13.959C0 21.6562 6.26172 27.9043 13.9453 27.9043Z" fill="#ff3b30"/>
  <path d="M8.18945 19.168L8.18945 14.6426L13.3711 14.6426L13.3711 20.959L10.0488 20.959C8.88672 20.959 8.18945 20.3438 8.18945 19.168ZM14.5195 20.959L14.5195 14.6426L19.7012 14.6426L19.7012 19.168C19.7012 20.3438 19.0039 20.959 17.8418 20.959ZM7.19141 12.8379L7.19141 11.1426C7.19141 10.4043 7.64258 10.0898 8.38086 10.0898L10.0078 10.0898C9.59766 9.70703 9.36523 9.16016 9.36523 8.55859C9.36523 7.19141 10.4316 6.2207 11.7852 6.2207C12.7695 6.2207 13.5762 6.76758 13.9453 7.72461C14.3145 6.76758 15.1348 6.2207 16.1191 6.2207C17.459 6.2207 18.5254 7.19141 18.5254 8.55859C18.5254 9.16016 18.3066 9.70703 17.8828 10.0898L19.5234 10.0898C20.2891 10.0898 20.6992 10.4043 20.6992 11.1426L20.6992 12.8379C20.6992 13.6035 20.2891 13.8906 19.5234 13.8906L14.5195 13.8906L14.5195 10.0898L15.6133 10.0898C16.7207 10.0898 17.377 9.40625 17.377 8.61328C17.377 7.84766 16.8164 7.38281 16.0508 7.38281C15.1895 7.38281 14.5195 8.03906 14.5195 9.07812L14.5195 10.0898L13.3711 10.0898L13.3711 9.07812C13.3711 8.03906 12.7012 7.38281 11.8535 7.38281C11.0879 7.38281 10.5137 7.84766 10.5137 8.61328C10.5137 9.40625 11.1699 10.0898 12.2773 10.0898L13.3711 10.0898L13.3711 13.8906L8.38086 13.8906C7.61523 13.8906 7.19141 13.6035 7.19141 12.8379Z" fill="white"/>
 </g>
</svg>
