<?xml version="1.0" encoding="UTF-8"?>
<!--Generator: Apple Native CoreSVG 326-->
<!DOCTYPE svg
PUBLIC "-//W3C//DTD SVG 1.1//EN"
       "http://www.w3.org/Graphics/SVG/1.1/DTD/svg11.dtd">
<svg version="1.1" xmlns="http://www.w3.org/2000/svg" xmlns:xlink="http://www.w3.org/1999/xlink" viewBox="0 0 26.6191 30.2012">
 <g>
  <rect height="30.2012" opacity="0" width="26.6191" x="0" y="0"/>
  <path d="M1.95508 25.1836C1.95508 27.4668 3.29492 28.6562 5.57812 28.6562L12.0039 28.6562L12.0039 16.3789L1.95508 16.3789ZM14.2461 28.6562L20.6855 28.6562C22.9551 28.6562 24.3086 27.4668 24.3086 25.1836L24.3086 16.3789L14.2461 16.3789ZM0 12.8789C0 14.3418 0.820312 14.916 2.29688 14.916L12.0039 14.916L12.0039 7.51953L9.87109 7.51953C7.72461 7.51953 6.4668 6.16602 6.4668 4.66211C6.4668 3.1582 7.56055 2.2832 9.06445 2.2832C10.6914 2.2832 12.0039 3.51367 12.0039 5.53711L12.0039 7.51953L14.2461 7.51953L14.2461 5.53711C14.2461 3.51367 15.5586 2.2832 17.1855 2.2832C18.6895 2.2832 19.7832 3.1582 19.7832 4.66211C19.7832 6.16602 18.5391 7.51953 16.3789 7.51953L14.2461 7.51953L14.2461 14.916L23.9668 14.916C25.4434 14.916 26.2637 14.3418 26.2637 12.8789L26.2637 9.55664C26.2637 8.09375 25.4434 7.51953 23.9668 7.51953L20.7949 7.51953C21.5879 6.76758 22.0664 5.74219 22.0664 4.53906C22.0664 1.88672 19.9746 0 17.3223 0C15.4082 0 13.8223 1.05273 13.125 2.88477C12.4277 1.05273 10.8555 0 8.92773 0C6.28906 0 4.18359 1.88672 4.18359 4.53906C4.18359 5.74219 4.66211 6.76758 5.46875 7.51953L2.29688 7.51953C0.888672 7.51953 0 8.09375 0 9.55664Z" fill="#ff3b30"/>
 </g>
</svg>
