<?xml version="1.0" encoding="UTF-8"?>
<!--Generator: Apple Native CoreSVG 326-->
<!DOCTYPE svg
PUBLIC "-//W3C//DTD SVG 1.1//EN"
       "http://www.w3.org/Graphics/SVG/1.1/DTD/svg11.dtd">
<svg version="1.1" xmlns="http://www.w3.org/2000/svg" xmlns:xlink="http://www.w3.org/1999/xlink" viewBox="0 0 32.4844 23.3652">
 <g>
  <rect height="23.3652" opacity="0" width="32.4844" x="0" y="0"/>
  <path d="M0.833984 11.457L0.833984 12.9609L13.918 12.9609C13.1113 14.6289 10.4863 17.0898 8.58594 17.2949C7.88867 17.3633 7.49219 17.8008 7.49219 18.457C7.49219 19.0586 7.9707 19.6191 8.75 19.5098C10.8555 19.1816 14.2324 16.7344 15.1348 13.918L15.2305 13.918L15.2305 23.0645L16.8848 23.0645L16.8848 13.918L16.9941 13.918C17.8965 16.7344 21.2734 19.1816 23.3789 19.5098C24.1582 19.6191 24.6367 19.0586 24.6367 18.457C24.6367 17.8008 24.2402 17.3633 23.5293 17.2949C21.6426 17.0898 19.0039 14.6289 18.2109 12.9609L31.1582 12.9609L31.1582 11.457L21.5332 11.457C23.2695 10.6777 24.4727 9.25586 24.4727 7.5332C24.4727 5.53711 23.0098 4.07422 21.041 4.07422C19.332 4.07422 17.7871 5.1543 16.8848 6.9043L16.8848 0.246094L15.2305 0.246094L15.2305 6.9043C14.3418 5.1543 12.7969 4.07422 11.0742 4.07422C9.11914 4.07422 7.64258 5.53711 7.64258 7.5332C7.64258 9.25586 8.85938 10.6777 10.582 11.457ZM14.5742 11.252C11.8809 11.252 9.57031 9.40625 9.57031 7.68359C9.57031 6.64453 10.1992 6.01562 11.1836 6.01562C13.207 6.01562 14.9844 8.27148 14.9844 10.8691L14.9844 11.252ZM17.541 11.252L17.1309 11.252L17.1309 10.8691C17.1309 8.27148 18.9082 6.01562 20.9316 6.01562C21.9297 6.01562 22.5449 6.64453 22.5449 7.68359C22.5449 9.40625 20.248 11.252 17.541 11.252ZM4.29297 23.3652L27.8359 23.3652C30.707 23.3652 32.1289 21.957 32.1289 19.1406L32.1289 4.25195C32.1289 1.43555 30.707 0.0136719 27.8359 0.0136719L4.29297 0.0136719C1.43555 0.0136719 0 1.43555 0 4.25195L0 19.1406C0 21.957 1.43555 23.3652 4.29297 23.3652ZM4.32031 21.1641C2.95312 21.1641 2.20117 20.4395 2.20117 19.0176L2.20117 4.375C2.20117 2.95312 2.95312 2.21484 4.32031 2.21484L27.8086 2.21484C29.1484 2.21484 29.9277 2.95312 29.9277 4.375L29.9277 19.0176C29.9277 20.4395 29.1484 21.1641 27.8086 21.1641Z" fill="black" fill-opacity="0.85"/>
 </g>
</svg>
