<?xml version="1.0" encoding="UTF-8"?>
<!--Generator: Apple Native CoreSVG 326-->
<!DOCTYPE svg
PUBLIC "-//W3C//DTD SVG 1.1//EN"
       "http://www.w3.org/Graphics/SVG/1.1/DTD/svg11.dtd">
<svg version="1.1" xmlns="http://www.w3.org/2000/svg" xmlns:xlink="http://www.w3.org/1999/xlink" viewBox="0 0 28.2461 27.9043">
 <g>
  <rect height="27.9043" opacity="0" width="28.2461" x="0" y="0"/>
  <path d="M15.1895 22.4219C16.3789 22.4219 17.1035 21.3281 17.1035 18.7578C17.1035 16.6113 19.4688 14.7246 20.3574 14.7246C21.5879 14.7246 21.8613 18.6758 25.8809 18.8398C26.4141 17.2402 26.7969 15.5859 26.7695 13.9453C26.6465 6.27539 20.248 0.888672 13.918 0.970703C11.4297 0.998047 9.02344 1.80469 6.86328 3.39062C7.62891 4.48438 7.7793 4.58008 7.7793 4.99023C7.7793 5.49609 6.79492 5.66016 6.63086 6.54883C6.52148 7.0957 6.13867 7.49219 5.67383 7.49219C5.1543 7.49219 4.44336 6.95898 4.2793 5.60547C2.14648 7.66992 1.09375 10.623 1.09375 13.918C1.09375 16.2148 1.69531 18.498 3.13086 20.7129C5.35938 20.3301 6.08398 19.4551 6.08398 17.7461C6.08398 16.0645 7.41016 16.0098 7.41016 14.6289C7.41016 14.041 6.82227 13.6035 5.6875 12.6465L4.78516 11.8945C4.62109 11.7578 4.55273 11.5801 4.55273 11.3887C4.55273 11.0332 4.8125 10.6914 5.20898 10.6914C5.46875 10.6914 5.63281 10.8555 6.31641 11.4434C7.28711 12.2637 7.73828 12.6602 8.28516 12.6602C8.85938 12.6602 9.10547 12.2773 9.48828 12.2773C9.80273 12.2773 9.99414 12.4688 10.1309 12.8379L10.5957 14.0957C11.1289 15.6406 12.373 15.4355 12.6602 17.0898C13.3301 21.1367 13.9316 22.4219 15.1895 22.4219ZM13.9453 27.8906C21.6426 27.8906 27.8906 21.6426 27.8906 13.9453C27.8906 6.24805 21.6426 0 13.9453 0C6.24805 0 0 6.24805 0 13.9453C0 21.6426 6.24805 27.8906 13.9453 27.8906ZM13.9453 26.0312C7.27344 26.0312 1.85938 20.6172 1.85938 13.9453C1.85938 7.27344 7.27344 1.85938 13.9453 1.85938C20.6172 1.85938 26.0312 7.27344 26.0312 13.9453C26.0312 20.6172 20.6172 26.0312 13.9453 26.0312Z" fill="black" fill-opacity="0.85"/>
 </g>
</svg>
