<?xml version="1.0" encoding="UTF-8"?>
<!--Generator: Apple Native CoreSVG 326-->
<!DOCTYPE svg
PUBLIC "-//W3C//DTD SVG 1.1//EN"
       "http://www.w3.org/Graphics/SVG/1.1/DTD/svg11.dtd">
<svg version="1.1" xmlns="http://www.w3.org/2000/svg" xmlns:xlink="http://www.w3.org/1999/xlink" viewBox="0 0 40.3108 24.9785">
 <g>
  <rect height="24.9785" opacity="0" width="40.3108" x="0" y="0"/>
  <path d="M35.9532 2.20117C36.8146 2.20117 37.6622 2.31055 38.4825 2.51562C40.0001 2.89844 40.629 0.806641 38.9747 0.355469C38.1954 0.150391 37.0743 0 35.9532 0C28.256 0 21.9122 7.02734 21.9122 15.4902C21.9122 21.1367 24.3048 24.9648 27.9552 24.9648C31.6192 24.9648 34.0118 21.1367 34.0118 15.4902C34.0118 7.02734 27.6817 0 19.9708 0C12.2599 0 5.94347 7.02734 5.94347 15.4902C5.94347 21.1367 8.33604 24.9648 12.0001 24.9648C15.6368 24.9648 18.0294 21.1367 18.0294 15.4902C18.0294 7.02734 11.6993 0 4.00206 0C2.88097 0 1.75987 0.150391 0.980576 0.355469C-0.673721 0.806641-0.0448146 2.89844 1.45909 2.51562C2.29308 2.31055 3.14073 2.20117 4.00206 2.20117C10.4552 2.20117 15.8282 8.23047 15.8282 15.4902C15.8282 19.8789 14.256 22.7637 12.0001 22.7637C9.73058 22.7637 8.14464 19.8652 8.14464 15.4902C8.14464 8.23047 13.5177 2.20117 19.9708 2.20117C26.4376 2.20117 31.8107 8.23047 31.8107 15.4902C31.8107 19.8652 30.211 22.7637 27.9552 22.7637C25.6993 22.7637 24.1134 19.8789 24.1134 15.4902C24.1134 8.23047 29.4864 2.20117 35.9532 2.20117Z" fill="black" fill-opacity="0.85"/>
 </g>
</svg>
