<?xml version="1.0" encoding="UTF-8"?>
<!--Generator: Apple Native CoreSVG 326-->
<!DOCTYPE svg
PUBLIC "-//W3C//DTD SVG 1.1//EN"
       "http://www.w3.org/Graphics/SVG/1.1/DTD/svg11.dtd">
<svg version="1.1" xmlns="http://www.w3.org/2000/svg" xmlns:xlink="http://www.w3.org/1999/xlink" viewBox="0 0 37.5293 39.6074">
 <g>
  <rect height="39.6074" opacity="0" width="37.5293" x="0" y="0"/>
  <path d="M18.5801 24.5C19.7559 24.5137 20.918 24.2129 22.3672 23.5566L35.834 17.4043C36.7227 16.9941 37.1738 16.2012 37.1738 15.3809C37.1738 14.5742 36.7227 13.7812 35.834 13.3711L22.3672 7.21875C20.918 6.5625 19.7559 6.26172 18.5801 6.27539C17.418 6.26172 16.2559 6.5625 14.793 7.21875L1.33984 13.3711C0.451172 13.7812 0 14.5742 0 15.3809C0 16.2012 0.451172 16.9941 1.33984 17.4043L14.793 23.5566C16.2559 24.2129 17.418 24.5137 18.5801 24.5ZM18.5801 22.3398C17.6777 22.3398 16.7891 22.1074 15.627 21.5742L3.03516 15.8457C2.78906 15.7363 2.67969 15.5723 2.67969 15.3809C2.67969 15.2031 2.78906 15.0391 3.03516 14.9297L15.627 9.20117C16.7891 8.66797 17.6777 8.43555 18.5801 8.43555C19.4961 8.43555 20.3711 8.66797 21.5469 9.20117L34.1387 14.9297C34.3711 15.0391 34.4941 15.2031 34.4941 15.3809C34.4941 15.5723 34.3711 15.7363 34.1387 15.8457L21.5469 21.5742C20.3711 22.1074 19.4961 22.3398 18.5801 22.3398ZM5.33203 25.6621C5.33203 29.75 10.5273 33.209 18.5801 33.209C26.6465 33.209 31.8418 29.75 31.8418 25.6621L31.8418 18.4434L29.6406 18.4434L29.6406 25.6621C29.6406 28.5195 25.3203 31.1445 18.5801 31.1445C11.8535 31.1445 7.5332 28.5195 7.5332 25.6621L7.5332 18.4434L5.33203 18.4434ZM18.6348 16.9395C20.1113 16.9395 21.5332 16.2695 21.5332 15.3809C21.5332 14.5195 20.1113 13.8633 18.6348 13.8633C17.1719 13.8633 15.7227 14.5195 15.7227 15.3809C15.7227 16.2695 17.1719 16.9395 18.6348 16.9395ZM10.3223 20.5488L18.4297 16.2559L17.6777 14.8477L8.54492 19.6055ZM8.54492 33.9609L10.3223 33.9609L10.3223 20.5488L8.54492 19.6738ZM7.46484 34.2344L7.46484 37.8301C7.46484 38.9102 8.16211 39.6074 9.24219 39.6074L9.61133 39.6074C10.6914 39.6074 11.3887 38.9102 11.3887 37.8301L11.3887 34.2344C11.3887 33.1543 10.6914 32.457 9.61133 32.457L9.24219 32.457C8.16211 32.457 7.46484 33.1543 7.46484 34.2344Z" fill="black" fill-opacity="0.85"/>
 </g>
</svg>
