<?xml version="1.0" encoding="UTF-8"?>
<!--Generator: Apple Native CoreSVG 326-->
<!DOCTYPE svg
PUBLIC "-//W3C//DTD SVG 1.1//EN"
       "http://www.w3.org/Graphics/SVG/1.1/DTD/svg11.dtd">
<svg version="1.1" xmlns="http://www.w3.org/2000/svg" xmlns:xlink="http://www.w3.org/1999/xlink" viewBox="0 0 37.0371 39.6074">
 <g>
  <rect height="39.6074" opacity="0" width="37.0371" x="0" y="0"/>
  <path d="M35.3828 13.5898L21.998 7.46484C20.6035 6.83594 19.4688 6.53516 18.334 6.5625C17.2129 6.53516 16.0781 6.83594 14.6699 7.46484L1.29883 13.5898C0.423828 13.9863 0 14.6836 0 15.3809C0 16.0781 0.423828 16.7617 1.29883 17.1719L6.93164 19.7422L15.5859 15.6816C15.5039 15.5859 15.4766 15.4766 15.4766 15.3809C15.4766 14.5195 16.9258 13.8633 18.3887 13.8633C19.8652 13.8633 21.2871 14.5195 21.2871 15.3809C21.2871 16.2695 19.8652 16.9395 18.3887 16.9395C17.9375 16.9395 17.4863 16.8711 17.0898 16.7617L8.83203 20.6309L14.6699 23.3105C16.0781 23.9531 17.2129 24.2266 18.334 24.2129C19.4688 24.2266 20.6035 23.9531 21.998 23.3105L35.3828 17.1719C36.2578 16.7617 36.6816 16.0781 36.6816 15.3809C36.6816 14.6836 36.2578 13.9863 35.3828 13.5898ZM8.77734 22.6543L8.77734 30.9668C11.0742 32.3613 14.3555 33.209 18.334 33.209C26.4004 33.209 31.5957 29.75 31.5957 25.6621L31.5957 20.959L22.7773 24.9922C21.1777 25.7305 19.7285 26.0996 18.334 26.0859C16.9531 26.0996 15.4902 25.7305 13.8906 24.9922ZM5.08594 20.959L5.08594 25.6621C5.08594 26.8516 5.76953 28.3281 7 29.5859L7 21.8477ZM7 34.1387L8.77734 34.1387L8.77734 30.9668C8.09375 30.5566 7.49219 30.0918 7 29.5859ZM5.91992 34.2344L5.91992 37.8301C5.91992 38.9102 6.61719 39.6074 7.69727 39.6074L8.06641 39.6074C9.14648 39.6074 9.84375 38.9102 9.84375 37.8301L9.84375 34.2344C9.84375 33.1543 9.14648 32.457 8.06641 32.457L7.69727 32.457C6.61719 32.457 5.91992 33.1543 5.91992 34.2344Z" fill="black" fill-opacity="0.85"/>
 </g>
</svg>
