<?xml version="1.0" encoding="UTF-8"?>
<!--Generator: Apple Native CoreSVG 326-->
<!DOCTYPE svg
PUBLIC "-//W3C//DTD SVG 1.1//EN"
       "http://www.w3.org/Graphics/SVG/1.1/DTD/svg11.dtd">
<svg version="1.1" xmlns="http://www.w3.org/2000/svg" xmlns:xlink="http://www.w3.org/1999/xlink" viewBox="0 0 28.2461 27.9043">
 <g>
  <rect height="27.9043" opacity="0" width="28.2461" x="0" y="0"/>
  <path d="M13.9453 27.8906C21.6426 27.8906 27.8906 21.6426 27.8906 13.9453C27.8906 6.24805 21.6426 0 13.9453 0C6.24805 0 0 6.24805 0 13.9453C0 21.6426 6.24805 27.8906 13.9453 27.8906ZM13.9453 25.5664C7.51953 25.5664 2.32422 20.3711 2.32422 13.9453C2.32422 7.51953 7.51953 2.32422 13.9453 2.32422C20.3711 2.32422 25.5664 7.51953 25.5664 13.9453C25.5664 20.3711 20.3711 25.5664 13.9453 25.5664Z" fill="black" fill-opacity="0.85"/>
  <path d="M21.9297 10.7734L15.6406 7.91602C14.998 7.62891 14.4648 7.47852 13.9316 7.49219C13.3984 7.47852 12.8789 7.62891 12.2227 7.91602L5.94727 10.7734C5.53711 10.9648 5.33203 11.3066 5.33203 11.6211C5.33203 11.9492 5.53711 12.2637 5.94727 12.4551L8.55859 13.6445L12.5918 11.7715C12.5645 11.7168 12.5508 11.6758 12.5508 11.6211C12.5508 11.1836 13.2617 10.8828 13.959 10.8828C14.6562 10.8828 15.3535 11.1836 15.3535 11.6211C15.3535 12.0723 14.6562 12.3867 13.959 12.3867C13.7402 12.3867 13.5352 12.3594 13.3438 12.3047L9.5293 14.0957L12.2227 15.3262C12.8789 15.6406 13.3984 15.7637 13.9316 15.75C14.4648 15.7637 14.998 15.6406 15.6406 15.3262L21.9297 12.4551C22.3398 12.2637 22.5312 11.9492 22.5312 11.6211C22.5312 11.3066 22.3398 10.9648 21.9297 10.7734ZM13.9316 19.9609C17.7188 19.9609 20.125 18.334 20.125 16.4336L20.125 14.2734L16.0098 16.1602C15.2578 16.502 14.5742 16.6797 13.9316 16.6523C13.2891 16.6797 12.6055 16.502 11.8535 16.1602L9.48828 15.0801L9.48828 18.9219C10.5684 19.5645 12.0859 19.9609 13.9316 19.9609ZM7.73828 14.2734L7.73828 16.4336C7.73828 16.9805 8.05273 17.6504 8.58594 18.2246L8.58594 14.6562ZM8.58594 20.166L9.48828 20.166L9.48828 18.9219C9.14648 18.7168 8.85938 18.4844 8.58594 18.2246ZM8.13477 20.1523L8.13477 21.5332C8.13477 22.0254 8.44922 22.3535 8.95508 22.3535L9.11914 22.3535C9.625 22.3535 9.95312 22.0254 9.95312 21.5332L9.95312 20.1523C9.95312 19.6465 9.625 19.332 9.11914 19.332L8.95508 19.332C8.44922 19.332 8.13477 19.6465 8.13477 20.1523Z" fill="black" fill-opacity="0.85"/>
 </g>
</svg>
