<?xml version="1.0" encoding="UTF-8"?>
<!--Generator: Apple Native CoreSVG 326-->
<!DOCTYPE svg
PUBLIC "-//W3C//DTD SVG 1.1//EN"
       "http://www.w3.org/Graphics/SVG/1.1/DTD/svg11.dtd">
<svg version="1.1" xmlns="http://www.w3.org/2000/svg" xmlns:xlink="http://www.w3.org/1999/xlink" viewBox="0 0 30.9258 30.584">
 <g>
  <rect height="30.584" opacity="0" width="30.9258" x="0" y="0"/>
  <path d="M15.2852 30.5703C23.6797 30.5703 30.5703 23.6797 30.5703 15.2852C30.5703 6.89062 23.6797 0 15.2852 0C6.89062 0 0 6.89062 0 15.2852C0 23.6797 6.89062 30.5703 15.2852 30.5703ZM15.2852 25.4844C9.65234 25.4844 5.08594 20.918 5.08594 15.2852C5.08594 9.63867 9.65234 5.08594 15.2852 5.08594C20.9316 5.08594 25.4844 9.63867 25.4844 15.2852C25.4844 20.918 20.9316 25.4844 15.2852 25.4844Z" fill="black" fill-opacity="0.85"/>
  <path d="M15.3672 21.3281C18.4023 21.3281 20.166 19.5098 20.166 16.3926L20.166 15.8047C20.166 15.2852 19.8516 14.957 19.373 14.957L15.6406 14.957L15.6406 16.2695L18.6074 16.2695L18.6074 16.7344C18.6074 18.6484 17.4316 19.9199 15.3809 19.9199C12.9062 19.9199 11.6895 17.7734 11.6895 15.2031C11.6895 12.7832 12.7969 10.5137 15.3535 10.5137C16.748 10.5137 18.0469 11.3066 18.4434 12.5781C18.6074 12.9883 18.7852 13.1797 19.2227 13.1797C19.6465 13.1797 19.9336 12.8926 19.9336 12.4688C19.9336 12.3047 19.9199 12.0723 19.8105 11.8398C19.1406 10.0488 17.1992 9.11914 15.3535 9.11914C11.8672 9.11914 10.0078 11.7852 10.0078 15.2168C10.0078 18.7715 11.9766 21.3281 15.3672 21.3281ZM15.3125 22.9141C15.5723 22.9141 15.7637 22.7227 15.7637 22.4492L15.7637 8.02539C15.7637 7.73828 15.5723 7.54688 15.3125 7.54688C15.0254 7.54688 14.834 7.73828 14.834 8.02539L14.834 22.4492C14.834 22.7227 15.0254 22.9141 15.3125 22.9141Z" fill="black" fill-opacity="0.85"/>
 </g>
</svg>
