<?xml version="1.0" encoding="UTF-8"?>
<!--Generator: Apple Native CoreSVG 326-->
<!DOCTYPE svg
PUBLIC "-//W3C//DTD SVG 1.1//EN"
       "http://www.w3.org/Graphics/SVG/1.1/DTD/svg11.dtd">
<svg version="1.1" xmlns="http://www.w3.org/2000/svg" xmlns:xlink="http://www.w3.org/1999/xlink" viewBox="0 0 25.5254 25.1699">
 <g>
  <rect height="25.1699" opacity="0" width="25.5254" x="0" y="0"/>
  <path d="M4.29297 25.1699L20.877 25.1699C23.748 25.1699 25.1699 23.7617 25.1699 20.9453L25.1699 4.23828C25.1699 1.42188 23.748 0 20.877 0L4.29297 0C1.43555 0 0 1.42188 0 4.23828L0 20.9453C0 23.7617 1.43555 25.1699 4.29297 25.1699ZM4.32031 22.9688C2.95312 22.9688 2.20117 22.2441 2.20117 20.8223L2.20117 4.36133C2.20117 2.93945 2.95312 2.20117 4.32031 2.20117L20.8496 2.20117C22.2031 2.20117 22.9688 2.93945 22.9688 4.36133L22.9688 20.8223C22.9688 22.2441 22.2031 22.9688 20.8496 22.9688Z" fill="black" fill-opacity="0.85"/>
  <path d="M12.6738 18.6211C15.709 18.6211 17.4727 16.8027 17.4727 13.6855L17.4727 13.0977C17.4727 12.5781 17.1582 12.25 16.6797 12.25L12.9473 12.25L12.9473 13.5625L15.9141 13.5625L15.9141 14.0273C15.9141 15.9414 14.7383 17.2129 12.6875 17.2129C10.2129 17.2129 8.99609 15.0664 8.99609 12.4961C8.99609 10.0762 10.1035 7.80664 12.6602 7.80664C14.0547 7.80664 15.3535 8.59961 15.75 9.87109C15.9141 10.2812 16.0918 10.4727 16.5293 10.4727C16.9531 10.4727 17.2402 10.1855 17.2402 9.76172C17.2402 9.59766 17.2266 9.36523 17.1172 9.13281C16.4473 7.3418 14.5059 6.41211 12.6602 6.41211C9.17383 6.41211 7.31445 9.07812 7.31445 12.5098C7.31445 16.0645 9.2832 18.6211 12.6738 18.6211ZM12.6191 20.207C12.8789 20.207 13.0703 20.0156 13.0703 19.7422L13.0703 5.31836C13.0703 5.03125 12.8789 4.83984 12.6191 4.83984C12.332 4.83984 12.1406 5.03125 12.1406 5.31836L12.1406 19.7422C12.1406 20.0156 12.332 20.207 12.6191 20.207Z" fill="black" fill-opacity="0.85"/>
 </g>
</svg>
