<?xml version="1.0" encoding="UTF-8"?>
<!--Generator: Apple Native CoreSVG 326-->
<!DOCTYPE svg
PUBLIC "-//W3C//DTD SVG 1.1//EN"
       "http://www.w3.org/Graphics/SVG/1.1/DTD/svg11.dtd">
<svg version="1.1" xmlns="http://www.w3.org/2000/svg" xmlns:xlink="http://www.w3.org/1999/xlink" viewBox="0 0 36.8404 30.5293">
 <g>
  <rect height="30.5293" opacity="0" width="36.8404" x="0" y="0"/>
  <path d="M31.2854 1.27148L31.4905 4.64844C31.5178 4.9082 31.3948 5.05859 31.1214 5.25C30.7932 5.45508 30.7385 5.61914 30.7385 6.16602L30.7385 14.2324C33.0354 14.5059 34.3479 15.6953 34.3479 17.5684C34.3479 18.7031 33.9514 19.5371 33.9514 20.4531C33.9514 21.6426 35.7835 22.3398 35.7835 25.1562C35.7835 27.9727 33.4046 29.75 29.6585 29.75C27.4203 29.75 25.6701 29.1155 24.6295 28.0002C24.9692 27.549 25.2374 27.0424 25.4229 26.4857C26.053 27.5793 27.5392 28.2051 29.6585 28.2051C32.5296 28.2051 34.2385 27.0566 34.2385 25.1562C34.2385 22.9551 32.3928 22.0938 32.3928 20.4258C32.3928 19.4688 32.803 18.457 32.803 17.5684C32.803 16.1191 31.5178 15.668 29.6585 15.668C27.7991 15.668 26.5139 16.1191 26.5139 17.5684C26.5139 18.457 26.9241 19.4688 26.9241 20.4258C26.9241 21.4605 26.2137 22.1849 25.6747 23.1116C25.5556 22.3617 25.333 21.7593 25.0919 21.2714C25.2571 21.0027 25.3655 20.7425 25.3655 20.4531C25.3655 19.5371 24.969 18.7031 24.969 17.5684C24.969 15.6953 26.2815 14.5059 28.5647 14.2324L28.5647 6.16602C28.5647 5.63281 28.51 5.46875 28.1956 5.25C27.9221 5.05859 27.7991 4.9082 27.8264 4.64844L28.0315 1.27148C28.0452 0.970703 28.2639 0.751953 28.5237 0.751953L30.7796 0.751953C31.053 0.751953 31.2717 0.970703 31.2854 1.27148ZM31.9827 24.8145C31.9827 25.1426 31.7092 25.4023 31.3811 25.4023L27.9085 25.4023C27.5803 25.4023 27.3069 25.1426 27.3069 24.8145C27.3069 24.4863 27.594 24.1992 27.9085 24.1992L31.3811 24.1992C31.7092 24.1992 31.9827 24.4727 31.9827 24.8145ZM31.135 20.0566C31.135 20.8633 30.4788 21.5332 29.6585 21.5332C28.8245 21.5332 28.1682 20.8633 28.1682 20.0566C28.1682 19.2363 28.8382 18.5664 29.6585 18.5664C30.4788 18.5664 31.135 19.2363 31.135 20.0566Z" fill="black" fill-opacity="0.85"/>
  <path d="M19.5276 0.970703L20.6897 1.99609C20.9085 2.1875 21.0042 2.43359 20.9905 2.69336L20.7171 5.48242C20.6624 5.90625 20.5667 6.08398 20.2522 6.17969C20.0335 6.24805 20.0335 6.27539 20.0335 6.67188L20.0198 15.0254C20.0198 15.668 20.0882 16.1328 20.3479 16.1328C20.512 16.1328 20.7444 15.873 20.9905 15.4902C21.305 14.957 21.8382 14.4648 22.6995 14.4648C23.6428 14.4648 24.3128 15.1895 24.3128 16.2012C24.3128 17.582 23.3831 18.4434 23.3831 19.4961C23.3831 20.3711 25.0784 21.6289 25.0784 24.3496C25.0784 27.6445 22.6448 29.832 18.9397 29.832C17.7828 29.832 16.7481 29.6172 15.8729 29.2204C16.104 28.7222 16.1549 28.1257 16.0114 27.533C16.761 28.0072 17.7524 28.2598 18.9397 28.2598C21.7971 28.2598 23.5198 26.7969 23.5198 24.3496C23.5198 21.834 21.8382 21.0137 21.8382 19.5098C21.8382 18.1016 22.7815 17.2812 22.7815 16.1875C22.7815 16.0645 22.6858 15.9688 22.5901 15.9688C21.9749 15.9688 21.6467 17.623 20.3069 17.623C19.6917 17.623 19.2132 17.2676 18.9944 16.5566L18.885 16.5566C18.68 17.2539 18.2151 17.623 17.5999 17.623C16.2327 17.623 15.9046 15.9688 15.2893 15.9688C15.1936 15.9688 15.0979 16.0645 15.0979 16.1875C15.0979 17.2812 16.0413 18.1016 16.0413 19.5098C16.0413 20.8881 14.6287 21.6923 14.3964 23.7576L13.4473 21.6188C13.9258 20.6402 14.4964 20.0037 14.4964 19.4961C14.4964 18.4434 13.5667 17.582 13.5667 16.2012C13.5667 15.1895 14.2366 14.4648 15.18 14.4648C16.0413 14.4648 16.5745 14.957 16.9026 15.4902C17.135 15.873 17.3675 16.1328 17.5452 16.1328C17.7913 16.1328 17.8733 15.627 17.8733 15.0254L17.846 6.67188C17.846 6.28906 17.8186 6.2207 17.6409 6.17969C17.3264 6.08398 17.2034 5.89258 17.176 5.48242L16.9026 2.69336C16.8753 2.44727 16.9983 2.17383 17.1897 1.99609L18.3655 0.970703C18.5159 0.833984 18.721 0.751953 18.9397 0.751953C19.1721 0.751953 19.3635 0.833984 19.5276 0.970703ZM17.7503 19.9609C18.0374 20.0566 18.1741 20.3848 18.0784 20.6719L16.9436 23.7891C16.8342 24.0762 16.5198 24.2266 16.2327 24.1172C15.9456 24.0215 15.8089 23.6934 15.9046 23.4199L17.0393 20.2891C17.1487 20.002 17.4632 19.8516 17.7503 19.9609ZM20.8538 20.2891L21.9885 23.4199C22.0842 23.6934 21.9339 24.0215 21.6467 24.1172C21.3596 24.2266 21.0452 24.0762 20.9358 23.7891L19.801 20.6719C19.7053 20.3848 19.8557 20.0566 20.1428 19.9609C20.43 19.8516 20.7444 20.002 20.8538 20.2891Z" fill="black" fill-opacity="0.85"/>
  <path d="M0.906513 27.2754C0.400653 28.4238 0.824481 29.791 2.32839 29.791C2.84792 29.791 3.29909 29.5859 3.99636 29.0117L7.74245 25.8809C7.89284 25.7578 7.98854 25.7168 8.04323 25.7168C8.11159 25.7168 8.19362 25.7578 8.34401 25.8809L12.0901 29.0117C12.801 29.5859 13.2385 29.791 13.7717 29.791C15.262 29.791 15.6995 28.4238 15.18 27.2754L9.15065 13.6445L9.15065 7.30078C9.15065 4.18359 9.67018 1.85938 9.67018 1.42188C9.67018 1.01172 9.42409 0.751953 9.02761 0.751953C8.76784 0.751953 8.54909 0.902344 8.20729 1.27148L5.18581 4.73047C4.91237 5.04492 4.98073 5.44141 5.3362 5.61914C6.52565 6.16602 6.96315 6.33008 6.96315 7.30078L6.96315 13.6035ZM2.32839 27.8223L7.9612 14.9434L8.12526 14.9434L13.7717 27.8223C13.9221 28.1641 13.6487 28.3418 13.3889 28.123L9.178 24.6094C8.7405 24.2539 8.38503 24.0762 8.04323 24.0762C7.71511 24.0762 7.35964 24.2539 6.90847 24.6094L2.69753 28.123C2.45143 28.3418 2.178 28.1641 2.32839 27.8223ZM9.47878 21.5742C9.83425 21.5742 10.135 21.2871 10.135 20.9316C10.135 20.5625 9.84792 20.248 9.47878 20.248C9.12331 20.248 8.82253 20.5762 8.82253 20.9316C8.82253 21.2734 9.12331 21.5742 9.47878 21.5742ZM10.2034 23.2969C10.5589 23.2969 10.8733 22.9961 10.8733 22.6406C10.8733 22.2715 10.5589 21.9707 10.2034 21.9707C9.84792 21.9707 9.53347 22.2852 9.53347 22.6406C9.53347 22.9961 9.84792 23.2969 10.2034 23.2969ZM10.9007 25.0059C11.2698 25.0059 11.5842 24.6914 11.5842 24.3496C11.5842 23.9941 11.2835 23.6797 10.9007 23.6797C10.5725 23.6797 10.2717 23.9941 10.2717 24.3496C10.2717 24.7051 10.5452 25.0059 10.9007 25.0059Z" fill="black" fill-opacity="0.85"/>
 </g>
</svg>
