<?xml version="1.0" encoding="UTF-8"?>
<!--Generator: Apple Native CoreSVG 326-->
<!DOCTYPE svg
PUBLIC "-//W3C//DTD SVG 1.1//EN"
       "http://www.w3.org/Graphics/SVG/1.1/DTD/svg11.dtd">
<svg version="1.1" xmlns="http://www.w3.org/2000/svg" xmlns:xlink="http://www.w3.org/1999/xlink" viewBox="0 0 28.2461 27.9043">
 <g>
  <rect height="27.9043" opacity="0" width="28.2461" x="0" y="0"/>
  <path d="M13.9453 27.8906C21.6426 27.8906 27.8906 21.6289 27.8906 13.9453C27.8906 6.24805 21.6426 0 13.9453 0C6.26172 0 0 6.24805 0 13.9453C0 21.6289 6.26172 27.8906 13.9453 27.8906Z" fill="black" fill-opacity="0.85"/>
  <path d="M9.48828 20.4121C8.79102 20.4121 8.38086 19.9336 8.38086 19.1406L8.38086 8.49023C8.38086 7.69727 8.79102 7.21875 9.48828 7.21875C10.2266 7.21875 10.6367 7.68359 10.6367 8.49023L10.6367 12.7285L17.2266 12.7285L17.2266 8.49023C17.2266 7.69727 17.6504 7.21875 18.3477 7.21875C19.0859 7.21875 19.4961 7.68359 19.4961 8.49023L19.4961 19.1406C19.4961 19.9473 19.0859 20.4121 18.3477 20.4121C17.6504 20.4121 17.2266 19.9336 17.2266 19.1406L17.2266 14.5059L10.6367 14.5059L10.6367 19.1406C10.6367 19.9473 10.2266 20.4121 9.48828 20.4121Z" fill="white"/>
 </g>
</svg>
