<?xml version="1.0" encoding="UTF-8"?>
<!--Generator: Apple Native CoreSVG 326-->
<!DOCTYPE svg
PUBLIC "-//W3C//DTD SVG 1.1//EN"
       "http://www.w3.org/Graphics/SVG/1.1/DTD/svg11.dtd">
<svg version="1.1" xmlns="http://www.w3.org/2000/svg" xmlns:xlink="http://www.w3.org/1999/xlink" viewBox="0 0 33.0176 32.334">
 <g>
  <rect height="32.334" opacity="0" width="33.0176" x="0" y="0"/>
  <path d="M30.8027 12.4277L30.8027 26.2637C30.8027 29.0801 29.3672 30.502 26.5098 30.502L12.7832 30.502C9.93945 30.502 8.49023 29.0801 8.49023 26.2637L8.49023 26.0312L19.8789 26.0312C23.7617 26.0312 26.0312 23.7891 26.0312 19.9336L26.0312 8.18945L26.5098 8.18945C29.3672 8.18945 30.8027 9.59766 30.8027 12.4277Z" fill="black" fill-opacity="0.85"/>
  <path d="M24.1719 6.09766L24.1719 19.9336C24.1719 22.75 22.7363 24.1719 19.8789 24.1719L6.15234 24.1719C3.30859 24.1719 1.85938 22.75 1.85938 19.9336L1.85938 6.09766C1.85938 3.28125 3.30859 1.85938 6.15234 1.85938L19.8789 1.85938C22.7363 1.85938 24.1719 3.28125 24.1719 6.09766ZM16.2969 7.56055L16.2969 11.8125L9.70703 11.8125L9.70703 7.56055C9.70703 6.75391 9.29688 6.30273 8.57227 6.30273C7.86133 6.30273 7.45117 6.76758 7.45117 7.56055L7.45117 18.2109C7.45117 19.0176 7.86133 19.4824 8.57227 19.4824C9.29688 19.4824 9.70703 19.0312 9.70703 18.2109L9.70703 13.5762L16.2969 13.5762L16.2969 18.2109C16.2969 19.0176 16.7207 19.4824 17.418 19.4824C18.1562 19.4824 18.5664 19.0312 18.5664 18.2109L18.5664 7.56055C18.5664 6.75391 18.1562 6.30273 17.418 6.30273C16.7207 6.30273 16.2969 6.76758 16.2969 7.56055Z" fill="black" fill-opacity="0.85"/>
 </g>
</svg>
