<?xml version="1.0" encoding="UTF-8"?>
<!--Generator: Apple Native CoreSVG 326-->
<!DOCTYPE svg
PUBLIC "-//W3C//DTD SVG 1.1//EN"
       "http://www.w3.org/Graphics/SVG/1.1/DTD/svg11.dtd">
<svg version="1.1" xmlns="http://www.w3.org/2000/svg" xmlns:xlink="http://www.w3.org/1999/xlink" viewBox="0 0 28.2461 27.9043">
 <g>
  <rect height="27.9043" opacity="0" width="28.2461" x="0" y="0"/>
  <path d="M13.9453 27.9043C21.6426 27.9043 27.8906 21.6562 27.8906 13.959C27.8906 6.27539 21.6426 0.0136719 13.9453 0.0136719C6.26172 0.0136719 0 6.27539 0 13.959C0 21.6562 6.26172 27.9043 13.9453 27.9043Z" fill="black" fill-opacity="0.85"/>
  <path d="M7.49219 21.4238L6.30273 20.2344C5.64648 19.5781 5.71484 18.8535 6.45312 18.1973L14.0547 11.5664L16.2148 13.6992L9.54297 21.3008C8.90039 22.0254 8.14844 22.0801 7.49219 21.4238ZM20.3164 15.2168L19.7832 14.7246C19.5098 14.4648 19.4551 14.2598 19.4961 13.9453L19.5781 13.1113L19.0449 12.5645L17.8965 12.7969C17.4316 12.8789 17.1035 12.8242 16.8027 12.5098L15.2031 10.9238C14.8066 10.5273 14.6973 10.0898 14.9297 9.46094L15.4766 7.99805C14.4375 7.38281 13.207 7.45117 11.8125 7.86133C11.5664 7.9707 11.293 7.875 11.1152 7.72461C10.8965 7.46484 10.8418 7.0957 11.1836 6.74023C13.2344 4.68945 16.9395 4.9082 18.9355 6.89062L20.3711 8.32617C20.918 8.8457 21.0957 9.36523 20.9727 9.87109L20.7266 10.8828L21.2734 11.4023L22.1074 11.3203C22.4355 11.293 22.5859 11.334 22.873 11.6211L23.4062 12.1406C23.707 12.4551 23.7207 12.8242 23.4336 13.0977L21.2734 15.2441C20.959 15.5312 20.6172 15.5039 20.3164 15.2168Z" fill="white"/>
 </g>
</svg>
