<?xml version="1.0" encoding="UTF-8"?>
<!--Generator: Apple Native CoreSVG 326-->
<!DOCTYPE svg
PUBLIC "-//W3C//DTD SVG 1.1//EN"
       "http://www.w3.org/Graphics/SVG/1.1/DTD/svg11.dtd">
<svg version="1.1" xmlns="http://www.w3.org/2000/svg" xmlns:xlink="http://www.w3.org/1999/xlink" viewBox="0 0 23.6627 30.2012">
 <g>
  <rect height="30.2012" opacity="0" width="23.6627" x="0" y="0"/>
  <path d="M11.0247 29.2305C15.3724 29.2305 18.0657 27.4121 19.8704 23.7617C20.9095 21.7383 21.7161 19.3047 22.5774 16.4883C22.9329 15.3398 23.4524 13.877 23.4524 13.2207C23.4524 12.4824 22.9056 11.9902 22.1399 11.9902C21.2649 11.9902 20.7591 12.5371 20.1165 13.8359L18.2298 17.8281C18.0247 18.2656 17.806 18.4297 17.5872 18.4297C17.3138 18.4297 17.054 18.2656 17.1224 17.7871L18.7767 3.52734C18.8724 2.625 18.2845 2.10547 17.6146 1.96875C16.8899 1.83203 16.0696 2.1875 15.9192 3.07617L14.1829 13.6992C13.8138 13.5625 13.4036 13.4531 12.9661 13.3711L12.9661 1.42188C12.9661 0.642578 12.3099 0 11.5032 0C10.6966 0 10.0403 0.642578 10.0403 1.42188L10.0403 13.2207C9.60284 13.248 9.16534 13.3164 8.74151 13.3848L7.3333 2.88477C7.21026 1.92773 6.43096 1.57227 5.69268 1.69531C4.99541 1.80469 4.33916 2.39258 4.44854 3.29492L5.81573 14.3145C5.36455 14.5332 4.96807 14.7656 4.58526 15.0117L2.84893 6.54883C2.65752 5.61914 1.8919 5.27734 1.19463 5.38672C0.511038 5.50977-0.117868 6.09766 0.0188509 7.04102L1.65948 19.6328C2.43877 25.6348 5.59698 29.2305 11.0247 29.2305Z" fill="black" fill-opacity="0.85"/>
 </g>
</svg>
