<?xml version="1.0" encoding="UTF-8"?>
<!--Generator: Apple Native CoreSVG 326-->
<!DOCTYPE svg
PUBLIC "-//W3C//DTD SVG 1.1//EN"
       "http://www.w3.org/Graphics/SVG/1.1/DTD/svg11.dtd">
<svg version="1.1" xmlns="http://www.w3.org/2000/svg" xmlns:xlink="http://www.w3.org/1999/xlink" viewBox="0 0 28.2051 30.5293">
 <g>
  <rect height="30.5293" opacity="0" width="28.2051" x="0" y="0"/>
  <path d="M0 20.1387C0 24.5547 2.88477 28.2734 6.37109 28.2734L10.7324 28.2734C12.4688 29.1895 14.5742 29.7227 16.9258 29.7227L18.7578 29.7227C20.3984 29.7227 21.8203 29.627 22.7637 29.3945C24.5957 28.9434 25.7441 27.6719 25.7441 26.0586C25.7441 25.7168 25.6895 25.416 25.6074 25.1152C26.5098 24.4316 27.0156 23.4336 27.0156 22.3398C27.0156 21.8066 26.9062 21.2734 26.7148 20.8496C27.3301 20.2207 27.6719 19.3047 27.6719 18.3477C27.6719 17.7324 27.5215 17.0762 27.2617 16.5977C27.6309 16.0645 27.8496 15.3125 27.8496 14.5195C27.8496 12.5508 26.3047 10.9922 24.3359 10.9922L19.3457 10.9922C19.0449 10.9922 18.8535 10.8555 18.8535 10.5957C18.8535 9.17383 21.0957 5.83789 21.0957 3.1582C21.0957 1.3125 19.8105 0 18.0469 0C16.748 0 15.873 0.669922 15.0117 2.31055C13.4121 5.38672 11.498 8.14844 8.38086 11.9492L5.87891 11.9492C2.625 11.9492 0 15.627 0 20.1387ZM7.69727 20.0703C7.69727 17.2129 8.33984 15.3945 10.1172 13.002C12.0996 10.3496 14.8477 7.17773 16.8301 3.24023C17.3223 2.24219 17.6504 2.02344 18.1289 2.02344C18.6895 2.02344 19.0723 2.41992 19.0723 3.1582C19.0723 5.29102 16.8301 8.51758 16.8301 10.5957C16.8301 12.0996 18.0605 13.0156 19.6328 13.0156L24.3359 13.0156C25.1836 13.0156 25.8262 13.6582 25.8262 14.5195C25.8262 15.1484 25.6211 15.5449 25.1152 16.0645C24.8691 16.2832 24.8418 16.5566 25.0469 16.8164C25.4707 17.4453 25.6484 17.8281 25.6484 18.3477C25.6484 18.9629 25.3613 19.4961 24.7598 19.9473C24.4316 20.207 24.2949 20.5488 24.4863 20.959C24.8281 21.5742 24.9922 21.8613 24.9922 22.3398C24.9922 23.0371 24.541 23.5703 23.584 24.0625C23.2832 24.2402 23.2148 24.4863 23.3379 24.7734C23.666 25.5938 23.707 25.7168 23.707 26.0586C23.707 26.6875 23.2422 27.1934 22.2852 27.4395C21.5059 27.6309 20.2617 27.7129 18.7715 27.7129L17.0762 27.7129C11.4434 27.7129 7.69727 24.5137 7.69727 20.0703ZM2.02344 20.1387C2.02344 16.7344 3.85547 13.9727 5.87891 13.9727C6.27539 13.9727 6.67188 13.9727 7.06836 13.9727C6.09766 15.8047 5.67383 17.7188 5.67383 20.0293C5.67383 22.4766 6.54883 24.6094 8.12109 26.2363C7.5332 26.2363 6.95898 26.2363 6.37109 26.2363C4.06055 26.2363 2.02344 23.4473 2.02344 20.1387Z" fill="black" fill-opacity="0.85"/>
 </g>
</svg>
