<?xml version="1.0" encoding="UTF-8"?>
<!--Generator: Apple Native CoreSVG 326-->
<!DOCTYPE svg
PUBLIC "-//W3C//DTD SVG 1.1//EN"
       "http://www.w3.org/Graphics/SVG/1.1/DTD/svg11.dtd">
<svg version="1.1" xmlns="http://www.w3.org/2000/svg" xmlns:xlink="http://www.w3.org/1999/xlink" viewBox="0 0 28.5987 29.0801">
 <g>
  <rect height="29.0801" opacity="0" width="28.5987" x="0" y="0"/>
  <path d="M5.59037 10.1855L7.79154 10.1855L7.79154 8.23047C7.79154 4.8125 10.5396 2.20117 14.1216 2.20117C17.7036 2.20117 20.4517 4.8125 20.4517 8.23047L20.4517 10.1855L22.6529 10.1855L22.6529 8.23047C22.6529 3.56836 18.9615 0 14.1216 0C9.29545 0 5.59037 3.56836 5.59037 8.23047ZM4.56498 29.0664L23.6783 29.0664C27.0142 29.0664 28.6001 27.125 28.1763 23.5703L27.0005 13.4531C26.7134 11.0059 25.2369 9.67969 22.8579 9.67969L5.38529 9.67969C3.00638 9.67969 1.54349 11.0059 1.25638 13.4531L0.0669307 23.5703C-0.356897 27.125 1.24271 29.0664 4.56498 29.0664ZM4.56498 26.8652C2.84232 26.8652 2.00834 25.7988 2.24076 23.8301L3.43021 13.7129C3.56693 12.5234 4.25052 11.8809 5.38529 11.8809L22.8579 11.8809C24.0064 11.8809 24.69 12.5234 24.8267 13.7129L26.0025 23.8301C26.2349 25.7988 25.4009 26.8652 23.6783 26.8652ZM12.8638 21.1094L15.3794 21.1094C16.3091 21.1094 16.856 20.5898 16.856 19.6602L16.856 18.6758C20.5201 18.0605 23.938 16.0918 25.4419 12.3184L23.4185 11.4023C21.9966 15.2168 18.2642 16.707 14.1216 16.707C9.97904 16.707 6.24662 15.2168 4.82474 11.4023L2.81498 12.3184C4.30521 16.0918 7.72318 18.0605 11.3872 18.6758L11.3872 19.6602C11.3872 20.5898 11.9341 21.1094 12.8638 21.1094Z" fill="black" fill-opacity="0.85"/>
 </g>
</svg>
