<?xml version="1.0" encoding="UTF-8"?>
<!--Generator: Apple Native CoreSVG 326-->
<!DOCTYPE svg
PUBLIC "-//W3C//DTD SVG 1.1//EN"
       "http://www.w3.org/Graphics/SVG/1.1/DTD/svg11.dtd">
<svg version="1.1" xmlns="http://www.w3.org/2000/svg" xmlns:xlink="http://www.w3.org/1999/xlink" viewBox="0 0 31.2598 25">
 <g>
  <rect height="25" opacity="0" width="31.2598" x="0" y="0"/>
  <path d="M3.44827 0.379858C1.90335 2.14353 0.713898 4.30369 0.0439763 6.55955C-0.297821 7.749 1.45218 8.36423 1.86234 6.99705C2.45023 5.0283 3.50296 3.16892 4.87015 1.61033C5.77249 0.584936 4.35062-0.631861 3.44827 0.379858ZM3.44827 19.9306C4.35062 20.956 5.77249 19.7392 4.87015 18.7002C3.50296 17.1552 2.45023 15.2959 1.86234 13.3271C1.45218 11.9463-0.297821 12.5615 0.0439763 13.7646C0.713898 16.0205 1.90335 18.1806 3.44827 19.9306Z" fill="black" fill-opacity="0.85"/>
  <path d="M24.4619 23.8818C29.8897 21.9267 31.8721 16.1435 30.4639 10.9209L29.3565 6.7783C28.5225 3.68845 26.6221 3.05955 24.0928 3.87986L24.9268 5.43845C26.6084 4.83689 27.3057 5.97165 27.5518 6.874L28.6866 11.29C29.835 15.6924 28.3858 20.4228 23.8741 22.0771C20.0186 23.4717 15.2334 22.5556 11.6787 18.8095L6.94827 13.8056C5.88187 12.6845 7.13968 11.4131 8.41116 12.4385L10.7354 14.2978C12.4444 15.665 13.7295 16.499 15.2881 16.499C18.0909 16.499 19.5948 14.6533 19.5948 12.1103C19.5948 10.5791 18.6787 8.07712 17.6534 6.72361C16.71 5.4658 15.5616 5.28806 13.6338 5.76658L10.3389 6.58689C8.94437 6.91501 8.28812 4.94626 9.73734 4.52244L14.4951 3.18259C17.5303 2.32126 19.1162 4.13962 20.7705 6.84665C21.3037 7.72165 22.753 7.12009 22.2061 6.0947C20.2647 2.52634 17.6397 0.420873 13.9483 1.54197L8.94437 3.04587C5.64945 4.03025 6.77054 9.2529 11.0498 8.20017L14.3584 7.39353C15.1924 7.18845 15.6709 7.25681 16.0674 7.76267C16.9971 9.02048 17.8311 11.1806 17.8311 12.2334C17.8311 13.7783 16.9698 14.79 14.9463 14.79C13.9619 14.79 13.1826 14.2705 12.0342 13.2998L9.32718 11.0166C6.96195 9.00681 2.84671 11.9599 5.63577 14.9404L10.2979 19.917C14.085 23.9775 19.5948 25.6455 24.4619 23.8818ZM24.3662 6.20408C24.626 7.0654 26.0752 6.874 25.7471 5.73923C24.626 1.88376 20.9893 1.61033 18.9522 2.70408L19.9776 4.04392C21.3174 3.44236 23.628 3.70212 24.3662 6.20408Z" fill="black" fill-opacity="0.85"/>
 </g>
</svg>
