<?xml version="1.0" encoding="UTF-8"?>
<!--Generator: Apple Native CoreSVG 326-->
<!DOCTYPE svg
PUBLIC "-//W3C//DTD SVG 1.1//EN"
       "http://www.w3.org/Graphics/SVG/1.1/DTD/svg11.dtd">
<svg version="1.1" xmlns="http://www.w3.org/2000/svg" xmlns:xlink="http://www.w3.org/1999/xlink" viewBox="0 0 32.897 29.2132">
 <g>
  <rect height="29.2132" opacity="0" width="32.897" x="0" y="0"/>
  <path d="M8.27273 4.89273L8.81563 6.38629C4.75611 9.27382 3.31391 13.1538 3.21414 17.3068C3.20047 17.799 2.87234 18.1818 2.38016 18.1818C1.90164 18.1818 1.50516 17.7716 1.50516 17.2795C1.50516 12.3775 3.49245 7.74057 8.20246 4.66898Z" fill="black" fill-opacity="0.85"/>
  <path d="M24.8977 26.6857C30.4759 24.6623 32.3352 20.0275 30.1614 14.0529L29.2591 11.592C28.4387 9.33609 26.8528 8.35172 25.6223 8.78922C25.3489 8.89859 25.2532 9.10367 25.3489 9.36344L25.7454 10.4572C25.9368 10.9767 25.7591 11.3185 25.4583 11.4416C25.1165 11.5509 24.761 11.4005 24.5833 10.881L24.3235 10.1701C23.8313 8.83023 22.6692 8.26969 21.5208 8.69351C20.9876 8.88492 20.8372 9.1857 21.0012 9.6232L21.5481 11.1134C21.7259 11.633 21.5618 11.9748 21.2473 12.0978C20.9192 12.2209 20.5637 12.0568 20.3723 11.5373L19.8665 10.1701C19.3333 8.66617 18.1985 8.28336 17.0911 8.69351C16.5989 8.87125 16.4212 9.19937 16.5716 9.6232L17.638 12.5353C17.8294 13.0548 17.6516 13.3966 17.3372 13.5197C17.0091 13.6427 16.6536 13.4787 16.4622 12.9591L12.9212 3.21109C12.5657 2.25406 11.718 1.87125 10.9251 2.15836C10.0501 2.47281 9.68094 3.3068 10.0364 4.26383L15.2317 18.5373C15.3548 18.8927 15.2044 19.1525 14.972 19.2345C14.7669 19.3166 14.5345 19.2482 14.261 18.9474L10.7337 15.174C10.2141 14.6271 9.68094 14.4904 9.10672 14.7091C8.23172 15.0236 7.87625 15.8302 8.14969 16.5685C8.25906 16.8556 8.40945 17.0744 8.54617 17.2521L12.8802 22.7072C16.5579 27.3009 20.7962 28.1759 24.8977 26.6857Z" fill="black" fill-opacity="0.85"/>
 </g>
</svg>
