<?xml version="1.0" encoding="UTF-8"?>
<!--Generator: Apple Native CoreSVG 326-->
<!DOCTYPE svg
PUBLIC "-//W3C//DTD SVG 1.1//EN"
       "http://www.w3.org/Graphics/SVG/1.1/DTD/svg11.dtd">
<svg version="1.1" xmlns="http://www.w3.org/2000/svg" xmlns:xlink="http://www.w3.org/1999/xlink" viewBox="0 0 31.7734 37.4746">
 <g>
  <rect height="37.4746" opacity="0" width="31.7734" x="0" y="0"/>
  <path d="M6.125 12.2637C6.125 11.7715 5.71484 11.375 5.22266 11.375L0.902344 11.375C0.396484 11.375 0 11.7715 0 12.2637C0 12.7559 0.396484 13.166 0.902344 13.166L5.22266 13.166C5.71484 13.166 6.125 12.7559 6.125 12.2637ZM7.88867 7.94336C8.23047 7.58789 8.24414 7.01367 7.88867 6.67188L4.83984 3.58203C4.48438 3.24023 3.92383 3.25391 3.56836 3.58203C3.22656 3.95117 3.21289 4.51172 3.56836 4.85352L6.61719 7.94336C6.98633 8.28516 7.5332 8.27148 7.88867 7.94336ZM12.2773 6.125C12.7695 6.125 13.166 5.71484 13.166 5.22266L13.1797 0.888672C13.1797 0.396484 12.7695 3.55271e-15 12.2773 3.55271e-15C11.7852 3.55271e-15 11.3887 0.396484 11.3887 0.888672L11.375 5.22266C11.375 5.71484 11.7852 6.125 12.2773 6.125ZM16.666 7.94336C17.0215 8.27148 17.5684 8.28516 17.9238 7.94336L20.9863 4.86719C21.3418 4.52539 21.3281 3.95117 20.9863 3.5957C20.6309 3.26758 20.0703 3.25391 19.7148 3.5957L16.666 6.67188C16.3105 7.01367 16.3242 7.58789 16.666 7.94336Z" fill="black" fill-opacity="0.85"/>
  <path d="M25.0469 34.9863C30.4746 33.0176 32.7852 28.0273 30.6113 22.0254L29.5859 19.209C28.5059 16.2559 26.4688 15.0391 24.0762 15.873C23.4473 15.0391 22.4492 14.752 21.3828 15.1348C20.9863 15.2852 20.6445 15.4766 20.3164 15.7363C19.6191 14.8203 18.5391 14.4922 17.418 14.9023C17.1172 15.0117 16.8301 15.1758 16.5566 15.3672L14.998 11.1016C14.4102 9.47461 12.9473 8.79102 11.416 9.33789C9.88477 9.89844 9.20117 11.3613 9.78906 12.9883L13.6992 23.707C13.7129 23.7754 13.6992 23.8301 13.6309 23.8574C13.5762 23.8711 13.5352 23.8574 13.4941 23.8027L11.8945 22.0664C11.0879 21.2188 10.1582 20.9727 9.22852 21.3008C7.98438 21.7383 7.16406 22.9414 7.68359 24.3496C7.82031 24.7461 8.10742 25.2246 8.4082 25.6074L12.9883 31.1445C16.4609 35.3418 20.5078 36.6406 25.0469 34.9863ZM24.459 33.1953C20.877 34.5078 17.5137 33.8379 14.3555 30.0234L9.77539 24.5137C9.63867 24.3496 9.54297 24.1992 9.46094 23.9668C9.29688 23.5156 9.48828 23.0234 10.0215 22.832C10.4453 22.6816 10.7871 22.8457 11.1289 23.2148L14.3008 26.4688C14.834 27.0156 15.2988 27.0703 15.75 26.9199C16.2832 26.7148 16.5156 26.1543 16.3105 25.5664L11.457 12.25C11.252 11.7031 11.4844 11.1973 12.0312 10.9922C12.5508 10.8008 13.0566 11.0469 13.248 11.6074L16.707 21.1094C16.8848 21.5605 17.377 21.752 17.8281 21.5879C18.2656 21.4375 18.5117 20.959 18.3477 20.5078L17.0898 17.0898C17.2812 16.9121 17.541 16.7207 17.8008 16.6523C18.4434 16.4063 18.9766 16.6797 19.2227 17.3633L20.3027 20.3438C20.4805 20.8223 20.9863 21 21.4238 20.8496C21.8613 20.6855 22.1211 20.2344 21.9434 19.7559L21.0547 17.3223C21.2324 17.1445 21.5059 16.9668 21.752 16.8711C22.4082 16.6387 22.9414 16.9121 23.1875 17.582L23.9258 19.6055C24.0898 20.0703 24.5957 20.248 25.0332 20.084C25.457 19.9336 25.7168 19.4688 25.5527 19.0039L25.0195 17.5273C26.1543 17.1035 27.2207 18.0469 27.9727 20.0977L28.8203 22.4355C30.707 27.6035 29.0117 31.5273 24.459 33.1953Z" fill="black" fill-opacity="0.85"/>
 </g>
</svg>
