<?xml version="1.0" encoding="UTF-8"?>
<!--Generator: Apple Native CoreSVG 326-->
<!DOCTYPE svg
PUBLIC "-//W3C//DTD SVG 1.1//EN"
       "http://www.w3.org/Graphics/SVG/1.1/DTD/svg11.dtd">
<svg version="1.1" xmlns="http://www.w3.org/2000/svg" xmlns:xlink="http://www.w3.org/1999/xlink" viewBox="0 0 26.6459 26.7122">
 <g>
  <rect height="26.7122" opacity="0" width="26.6459" x="0" y="0"/>
  <path d="M23.2556 23.6989C26.6599 20.2946 27.2067 16.07 24.8688 11.1481L21.7927 4.66761C21.5876 4.21644 21.3142 3.8473 21.0271 3.56019C20.0017 2.5348 18.5114 2.58949 17.5271 3.57386C16.8571 4.24378 16.6521 5.24183 17.0896 6.32191L18.0056 8.50941C18.0329 8.5641 18.0329 8.61878 17.9919 8.6598C17.9372 8.70081 17.8825 8.68714 17.8278 8.64613L10.0759 0.894174C8.95478-0.240592 7.53291-0.240592 6.45283 0.839487C6.05635 1.2223 5.8376 1.72816 5.82393 2.24769C4.70283 1.38636 3.45869 1.41371 2.50166 2.37074C1.5583 3.3141 1.53096 4.59925 2.3376 5.693C1.84541 5.693 1.38057 5.91175 1.0251 6.26722C0.0270501 7.26527 0.0543939 8.63246 1.1208 9.69886L2.20088 10.7789C1.66768 10.7653 1.13447 11.0114 0.724316 11.4215C-0.287403 12.4332-0.232715 13.8688 0.847363 14.9489L9.15986 23.2614C13.6853 27.7868 19.1677 27.7868 23.2556 23.6989ZM21.8747 22.4137C18.4567 25.8317 14.1638 25.7223 10.281 21.8258L2.26924 13.8141C1.84541 13.4039 1.83174 12.8434 2.22822 12.4469C2.62471 12.0504 3.19893 12.0504 3.60908 12.4606L8.5583 17.3961C8.91377 17.7516 9.4333 17.7106 9.74775 17.3961C10.0896 17.068 10.1306 16.5348 9.7751 16.1793L2.39228 8.78285C1.98213 8.37269 1.95478 7.82581 2.35127 7.42933C2.74775 7.01917 3.33564 7.01917 3.7458 7.42933L10.6364 14.3336C10.9919 14.6891 11.5251 14.6344 11.8396 14.32C12.1677 13.9918 12.2224 13.4586 11.8669 13.1032L3.77314 5.00941C3.36299 4.59925 3.33564 4.02503 3.7458 3.62855C4.12861 3.23206 4.7165 3.24574 5.12666 3.65589L13.2204 11.7496C13.5485 12.0914 14.0817 12.0778 14.4099 11.7496C14.7517 11.4078 14.779 10.861 14.4509 10.5328L7.54658 3.62855C7.13643 3.21839 7.12275 2.65785 7.51924 2.24769C7.92939 1.85121 8.48994 1.86488 8.9001 2.27503L18.4157 11.7907C18.8942 12.2828 19.4685 12.2692 19.8649 11.8727C20.2067 11.5309 20.3571 11.0797 20.0837 10.3688L18.3747 5.88441C18.1423 5.26917 18.361 4.77699 18.8259 4.55824C19.3454 4.32581 19.8103 4.57191 20.111 5.21449L23.2829 11.9137C25.3884 16.3981 24.5681 19.7067 21.8747 22.4137Z" fill="black" fill-opacity="0.85"/>
 </g>
</svg>
