<?xml version="1.0" encoding="UTF-8"?>
<!--Generator: Apple Native CoreSVG 326-->
<!DOCTYPE svg
PUBLIC "-//W3C//DTD SVG 1.1//EN"
       "http://www.w3.org/Graphics/SVG/1.1/DTD/svg11.dtd">
<svg version="1.1" xmlns="http://www.w3.org/2000/svg" xmlns:xlink="http://www.w3.org/1999/xlink" viewBox="0 0 26.6328 34.7676">
 <g>
  <rect height="34.7676" opacity="0" width="26.6328" x="0" y="0"/>
  <path d="M6.83594 0C3.0625 0 0 3.0625 0 6.83594C0 8.46289 0.574219 9.9668 1.51758 11.1426C1.75 11.4297 2.02344 11.5391 2.2832 11.5391C2.95312 11.5391 3.52734 10.7461 2.95312 10.0625C2.21484 9.1875 1.79102 8.06641 1.79102 6.83594C1.79102 4.04688 4.04688 1.79102 6.83594 1.79102C9.625 1.79102 11.8672 4.04688 11.8672 6.83594C11.8672 6.91797 11.8672 7 11.8672 7.12305C11.8809 7.73828 12.3047 8.01172 12.7422 8.01172C13.166 8.01172 13.6035 7.71094 13.6445 7.23242C13.6582 7.13672 13.6582 7.01367 13.6582 6.83594C13.6582 3.0625 10.6094 0 6.83594 0Z" fill="black" fill-opacity="0.85"/>
  <path d="M20.125 29.4629C25.7031 27.4395 27.5625 22.8047 25.3887 16.8301L24.5 14.3691C23.666 12.1133 22.0938 11.1289 20.8633 11.5664C20.5762 11.6758 20.4805 11.8809 20.5762 12.1406L20.9727 13.2344C21.1641 13.7539 21 14.0957 20.6855 14.2188C20.3574 14.3281 20.002 14.1777 19.8105 13.6582L19.5508 12.9473C19.0586 11.6074 17.8965 11.0469 16.748 11.4707C16.2285 11.6621 16.0645 11.9629 16.2285 12.4004L16.7754 13.8906C16.9531 14.4102 16.7891 14.752 16.4883 14.875C16.1465 14.998 15.791 14.834 15.5996 14.3145L15.1074 12.9473C14.5605 11.4434 13.4395 11.0605 12.3184 11.4707C11.8262 11.6484 11.6484 11.9766 11.7988 12.4004L12.8652 15.3125C13.0566 15.832 12.8789 16.1738 12.5781 16.2969C12.2363 16.4199 11.8809 16.2559 11.6895 15.7363L8.14844 5.98828C7.80664 5.03125 6.95898 4.64844 6.15234 4.93555C5.29102 5.25 4.92188 6.08398 5.26367 7.04102L10.459 21.3145C10.582 21.6699 10.4316 21.9297 10.2129 22.0117C9.99414 22.0938 9.76172 22.0254 9.48828 21.7246L5.97461 17.9512C5.45508 17.4043 4.9082 17.2676 4.33398 17.4863C3.45898 17.8008 3.11719 18.6074 3.37695 19.3457C3.48633 19.6328 3.63672 19.8516 3.77344 20.0293L8.12109 25.4844C11.7852 30.0781 16.0234 30.9531 20.125 29.4629Z" fill="black" fill-opacity="0.85"/>
 </g>
</svg>
