<?xml version="1.0" encoding="UTF-8"?>
<!--Generator: Apple Native CoreSVG 326-->
<!DOCTYPE svg
PUBLIC "-//W3C//DTD SVG 1.1//EN"
       "http://www.w3.org/Graphics/SVG/1.1/DTD/svg11.dtd">
<svg version="1.1" xmlns="http://www.w3.org/2000/svg" xmlns:xlink="http://www.w3.org/1999/xlink" viewBox="0 0 27.3027 28.7793">
 <g>
  <rect height="28.7793" opacity="0" width="27.3027" x="0" y="0"/>
  <path d="M0 19.2363C0 23.2832 2.5293 26.6738 5.91992 26.6738L8.32617 26.6738C5.86523 24.8828 4.85352 22.1758 4.85352 19.0996C4.86719 15.6816 6.19336 13.2344 7.36914 11.7578L5.41406 11.7578C2.36523 11.7578 0 15.0391 0 19.2363ZM6.74023 19.127C6.74023 24.1172 10.6367 27.9727 16.9941 27.9727L18.8535 27.9727C20.6172 27.9727 21.9297 27.8496 22.668 27.6445C23.7344 27.3848 24.7598 26.7285 24.7598 25.4434C24.7598 24.9102 24.623 24.5273 24.459 24.2402C24.3496 24.0625 24.377 23.9258 24.541 23.8574C25.3887 23.502 26.0859 22.709 26.0859 21.6289C26.0859 21.0137 25.9082 20.4668 25.6074 20.0977C25.457 19.8926 25.4707 19.7012 25.7305 19.5645C26.332 19.209 26.7695 18.4434 26.7695 17.5547C26.7695 16.9121 26.5645 16.2422 26.209 15.9141C25.9902 15.7227 26.0312 15.5859 26.25 15.3809C26.6738 15.0254 26.9473 14.4102 26.9473 13.6309C26.9473 12.3184 25.9219 11.2383 24.5684 11.2383L19.7559 11.2383C18.5391 11.2383 17.7324 10.6094 17.7324 9.59766C17.7324 7.7793 20.0156 4.41602 20.0156 2.00977C20.0156 0.738281 19.1953 0 18.1289 0C17.1445 0 16.666 0.669922 16.1465 1.69531C14.1094 5.64648 11.4023 8.8457 9.33789 11.5801C7.58789 13.9043 6.74023 15.9141 6.74023 19.127Z" fill="black" fill-opacity="0.85"/>
 </g>
</svg>
