<?xml version="1.0" encoding="UTF-8"?>
<!--Generator: Apple Native CoreSVG 326-->
<!DOCTYPE svg
PUBLIC "-//W3C//DTD SVG 1.1//EN"
       "http://www.w3.org/Graphics/SVG/1.1/DTD/svg11.dtd">
<svg version="1.1" xmlns="http://www.w3.org/2000/svg" xmlns:xlink="http://www.w3.org/1999/xlink" viewBox="0 0 28.2461 27.9043">
 <g>
  <rect height="27.9043" opacity="0" width="28.2461" x="0" y="0"/>
  <path d="M13.9453 27.9043C21.6426 27.9043 27.8906 21.6562 27.8906 13.959C27.8906 6.27539 21.6426 0.0136719 13.9453 0.0136719C6.26172 0.0136719 0 6.27539 0 13.959C0 21.6562 6.26172 27.9043 13.9453 27.9043Z" fill="black" fill-opacity="0.85"/>
  <path d="M13.8906 14.2734C11.5391 14.2734 9.44727 13.3438 8.25781 10.9238C8.54492 10.7598 8.91406 10.6777 9.32422 10.6777L9.43359 10.6777L9.43359 9.93945C9.43359 7.49219 11.375 5.63281 13.8906 5.63281C16.4062 5.63281 18.3477 7.49219 18.3477 9.93945L18.3477 10.6777L18.457 10.6777C18.8809 10.6777 19.2363 10.7598 19.5098 10.9238C18.334 13.3438 16.2422 14.2734 13.8906 14.2734ZM10.6367 10.6777L17.1445 10.6777L17.1445 9.93945C17.1445 8.16211 15.7363 6.82227 13.8906 6.82227C12.0449 6.82227 10.6367 8.16211 10.6367 9.93945ZM6.60352 17.8691L7.20508 12.6191C7.24609 12.291 7.3418 12.0176 7.47852 11.7852C8.6543 13.9316 10.4863 15.0254 12.4551 15.3672L12.4551 15.832C12.4551 16.3379 12.7422 16.625 13.248 16.625L14.5332 16.625C15.0391 16.625 15.3262 16.3379 15.3262 15.832L15.3262 15.3672C17.2949 15.0254 19.1133 13.9316 20.3027 11.7852C20.4395 12.0176 20.5352 12.291 20.5762 12.6191L21.1777 17.8691C21.3828 19.7148 20.5762 20.7129 18.8535 20.7129L8.92773 20.7129C7.20508 20.7129 6.39844 19.7148 6.60352 17.8691Z" fill="white"/>
 </g>
</svg>
