<?xml version="1.0" encoding="UTF-8"?>
<!--Generator: Apple Native CoreSVG 326-->
<!DOCTYPE svg
PUBLIC "-//W3C//DTD SVG 1.1//EN"
       "http://www.w3.org/Graphics/SVG/1.1/DTD/svg11.dtd">
<svg version="1.1" xmlns="http://www.w3.org/2000/svg" xmlns:xlink="http://www.w3.org/1999/xlink" viewBox="0 0 31.1778 25">
 <g>
  <rect height="25" opacity="0" width="31.1778" x="0" y="0"/>
  <path d="M3.44827 0.379858C1.90335 2.14353 0.713898 4.30369 0.0439763 6.55955C-0.297821 7.749 1.45218 8.36423 1.86234 6.99705C2.45023 5.0283 3.50296 3.16892 4.87015 1.61033C5.77249 0.584936 4.35062-0.631861 3.44827 0.379858ZM3.44827 19.9306C4.35062 20.956 5.77249 19.7392 4.87015 18.7002C3.50296 17.1552 2.45023 15.2959 1.86234 13.3271C1.45218 11.9463-0.297821 12.5615 0.0439763 13.7646C0.713898 16.0205 1.90335 18.1806 3.44827 19.9306Z" fill="black" fill-opacity="0.85"/>
  <path d="M20.0186 24.6748C25.0909 24.6748 30.8194 21.4482 30.8194 14.4345C30.8194 11.0576 29.042 3.64744 26.7451 3.64744C26.3487 3.64744 26.0752 3.89353 26.1709 4.16697L26.4717 5.05564C26.7451 5.88962 25.6787 6.23142 25.3643 5.43845L24.8448 4.16697C24.0928 2.34861 22.3155 2.18455 21.3448 2.62205C21.0987 2.74509 21.0576 2.95017 21.1534 3.11423C21.6045 3.92087 21.9737 4.70017 22.3428 5.50681C22.753 6.42283 21.5088 7.01072 21.003 6.04001C20.6885 5.42478 20.2784 4.67283 19.8682 4.16697C18.3643 2.19822 15.8076 1.65134 13.0323 2.37595L8.79398 3.48337C6.01859 4.22165 7.16702 7.51658 9.73734 6.98337L13.8662 6.14939C15.1241 5.88962 16.2041 6.20408 16.8057 6.98337C17.7354 8.22751 18.6924 10.1552 18.6924 11.5498C18.6924 13.4912 17.5166 15.7881 15.042 15.7881C13.8252 15.7881 12.4034 15.2275 11.0225 13.874L8.35648 11.2627C6.71585 9.64939 3.85843 11.7549 5.74515 13.956L10.2432 19.2334C13.4698 23.0205 16.7373 24.6748 20.0186 24.6748Z" fill="black" fill-opacity="0.85"/>
 </g>
</svg>
