<?xml version="1.0" encoding="UTF-8"?>
<!--Generator: Apple Native CoreSVG 326-->
<!DOCTYPE svg
PUBLIC "-//W3C//DTD SVG 1.1//EN"
       "http://www.w3.org/Graphics/SVG/1.1/DTD/svg11.dtd">
<svg version="1.1" xmlns="http://www.w3.org/2000/svg" xmlns:xlink="http://www.w3.org/1999/xlink" viewBox="0 0 41.3164 31.459">
 <g>
  <rect height="31.459" opacity="0" width="41.3164" x="0" y="0"/>
  <path d="M21.4648 28.4102C22.4219 28.4102 23.2695 27.959 25.0605 27.959C26.8652 27.959 27.3574 28.4102 28.6973 28.4102C30.7207 28.4102 31.7871 27.5762 31.7871 26.1543C31.7871 23.748 29.1758 22.1348 25.0469 22.1348C23.0234 22.1348 22.1211 22.3262 20.9727 22.6133L19.4961 19.25C18.0469 16.0234 15.709 13.918 12.4004 13.918L10.7871 13.918C10.2539 13.918 9.89844 13.6855 9.89844 13.166C9.89844 12.3184 11.0332 12.1133 12.2773 12.1133C16.2832 12.1133 19.2363 14.3145 21.041 18.7441L21.9844 21.0273C22.9004 20.8359 23.8984 20.7402 24.9102 20.7402C25.7168 20.7402 26.4551 20.7949 27.2344 20.9043C28.0684 20.2891 29.0117 19.6465 30.3926 19.0449C31.9238 20.084 33.6738 20.7539 35.4922 20.7539C39.2656 20.7539 40.9609 19.9336 40.9609 16.3652C40.9609 12.0586 37.8438 8.83203 33.7012 8.8457L30.0371 3.96484C28 1.27148 25.5254 0 23.0918 0C21.0957 0 18.1289 1.14844 18.1289 2.76172C18.1289 3.85547 20.3438 5.38672 22.0527 6.43945L29.9277 11.252C29.3125 11.8398 28.7656 12.1543 28.082 12.1543C27.0293 12.1543 25.9219 11.5117 24.2676 10.5547C20.0566 8.12109 16.8027 5.83789 12.4277 5.83789C7.875 5.83789 4.41602 8.44922 2.57031 13.5352C1.10742 13.5352 0 14.4922 0 15.9004C0 17.4863 1.25781 18.4844 2.98047 18.4844C4.97656 21.2734 8.24414 22.3945 12.1133 22.3945C12.3184 22.3945 12.5234 22.3809 12.7285 22.3809L18.2656 26.9746C19.6465 28.2051 20.4258 28.4102 21.4648 28.4102ZM11.5801 29.4902C14.2188 29.4902 15.832 28.9844 17.1445 28.082L12.9062 24.5547C12.7148 24.5684 12.4824 24.5957 12.1953 24.5957C11.5117 24.5957 10.5 24.3906 9.29688 24.3906C7.76562 24.3906 6.82227 25.2109 6.82227 26.4414C6.82227 28.2734 8.68164 29.4902 11.5801 29.4902ZM35.1777 15.709C34.5625 15.709 34.0703 15.1895 34.0703 14.5879C34.0703 13.9727 34.5762 13.4258 35.1914 13.4258C35.8203 13.4258 36.3125 13.918 36.3125 14.5332C36.3125 15.1484 35.8066 15.709 35.1777 15.709Z" fill="black" fill-opacity="0.85"/>
 </g>
</svg>
