<?xml version="1.0" encoding="UTF-8"?>
<!--Generator: Apple Native CoreSVG 326-->
<!DOCTYPE svg
PUBLIC "-//W3C//DTD SVG 1.1//EN"
       "http://www.w3.org/Graphics/SVG/1.1/DTD/svg11.dtd">
<svg version="1.1" xmlns="http://www.w3.org/2000/svg" xmlns:xlink="http://www.w3.org/1999/xlink" viewBox="0 0 28.2461 27.9043">
 <g>
  <rect height="27.9043" opacity="0" width="28.2461" x="0" y="0"/>
  <path d="M13.9453 27.8906C21.6426 27.8906 27.8906 21.6289 27.8906 13.9453C27.8906 6.24805 21.6426 0 13.9453 0C6.26172 0 0 6.24805 0 13.9453C0 21.6289 6.26172 27.8906 13.9453 27.8906Z" fill="black" fill-opacity="0.85"/>
  <path d="M14.4102 19.9883C13.9043 19.9883 13.5625 19.8926 12.8789 19.3047L10.1992 17.0898C10.1172 17.0898 10.0078 17.1035 9.91211 17.1035C8.05273 17.1035 6.4668 16.584 5.49609 15.2305C4.67578 15.2168 4.06055 14.7383 4.06055 13.9863C4.06055 13.3027 4.59375 12.8516 5.30469 12.8379C6.19336 10.377 7.875 9.10547 10.0625 9.10547C12.168 9.10547 13.7402 10.2402 15.7637 11.4023C16.5566 11.8672 17.0898 12.168 17.6094 12.168C17.9375 12.168 18.1973 12.0176 18.498 11.7305L14.7109 9.41992C13.877 8.91406 12.8105 8.17578 12.8105 7.64258C12.8105 6.84961 14.2324 6.30273 15.2031 6.30273C16.3652 6.30273 17.5547 6.94531 18.5254 8.2168L20.3164 10.5957C22.3125 10.5684 23.8164 12.127 23.8164 14.1914C23.8164 15.9141 22.9961 16.3242 21.1914 16.3242C20.2891 16.3242 19.4551 15.9961 18.7168 15.4902C18.0469 15.7773 17.5957 16.0918 17.1855 16.3789C16.8164 16.3379 16.4746 16.3105 16.0918 16.3105C15.5996 16.3105 15.1074 16.3516 14.6699 16.4336L14.2188 15.3398C13.3301 13.207 11.9082 12.1543 9.98047 12.1543C9.39258 12.1543 8.8457 12.25 8.8457 12.6602C8.8457 12.9199 9.00977 13.0156 9.26953 13.0156L10.0488 13.0156C11.6484 13.0156 12.7832 14.0137 13.4668 15.5996L14.1641 17.2129C14.7246 17.0762 15.1758 16.9941 16.1465 16.9941C18.1289 16.9941 19.3867 17.7461 19.3867 18.9219C19.3867 19.6191 18.8809 19.9883 17.9102 19.9883C17.2539 19.9883 17.0215 19.7695 16.1602 19.7695C15.2852 19.7695 14.875 19.9883 14.4102 19.9883ZM9.65234 20.5215C8.24414 20.5215 7.35547 19.9473 7.35547 19.0586C7.35547 18.457 7.80664 18.0742 8.54492 18.0742C9.13281 18.0742 9.625 18.1699 9.93945 18.1699C10.0898 18.1699 10.1855 18.1426 10.2949 18.1426L12.332 19.8379C11.6895 20.2754 10.9238 20.5215 9.65234 20.5215ZM21.0273 13.8906C21.3145 13.8906 21.5605 13.6035 21.5605 13.3027C21.5605 13.0293 21.3281 12.7832 21.041 12.7832C20.7402 12.7832 20.4941 13.043 20.4941 13.3574C20.4941 13.6172 20.7266 13.8906 21.0273 13.8906Z" fill="white"/>
 </g>
</svg>
