<?xml version="1.0" encoding="UTF-8"?>
<!--Generator: Apple Native CoreSVG 326-->
<!DOCTYPE svg
PUBLIC "-//W3C//DTD SVG 1.1//EN"
       "http://www.w3.org/Graphics/SVG/1.1/DTD/svg11.dtd">
<svg version="1.1" xmlns="http://www.w3.org/2000/svg" xmlns:xlink="http://www.w3.org/1999/xlink" viewBox="0 0 38.2676 24.5137">
 <g>
  <rect height="24.5137" opacity="0" width="38.2676" x="0" y="0"/>
  <path d="M18.9629 24.1582C30.3242 24.1582 37.9121 20.2344 37.9121 14.9023C37.9121 10.7324 33.4004 7.80664 27.6992 6.97266L27.6172 9.02344C31.6777 9.55664 35.7383 11.8535 35.7383 14.7656C35.7383 18.8809 28.6836 22.0254 18.9629 22.0254C9.24219 22.0254 2.1875 18.8809 2.1875 14.7656C2.1875 11.8535 6.23438 9.55664 10.2949 9.02344L10.2129 6.97266C4.52539 7.80664 0 10.7324 0 14.9023C0 20.2344 7.60156 24.1582 18.9629 24.1582ZM18.9629 17.0625C22.75 17.0625 25.8945 16.0098 27.877 14.5195C28.3555 14.1504 28.5742 13.7402 28.6289 13.0977C29.4355 4.88086 25.8535 0 18.9629 0C12.0586 0 8.47656 4.88086 9.2832 13.0977C9.35156 13.7402 9.57031 14.1641 10.0625 14.5332C12.0586 16.0234 15.1758 17.0625 18.9629 17.0625ZM18.9629 12.6465C15.5996 12.6465 12.9746 11.7441 11.416 10.6777C11.252 5.12695 14.1641 2.13281 18.9629 2.13281C23.748 2.13281 26.6738 5.12695 26.5371 10.6641C24.9512 11.7441 22.3125 12.6465 18.9629 12.6465Z" fill="black" fill-opacity="0.85"/>
 </g>
</svg>
