<?xml version="1.0" encoding="UTF-8"?>
<!--Generator: Apple Native CoreSVG 326-->
<!DOCTYPE svg
PUBLIC "-//W3C//DTD SVG 1.1//EN"
       "http://www.w3.org/Graphics/SVG/1.1/DTD/svg11.dtd">
<svg version="1.1" xmlns="http://www.w3.org/2000/svg" xmlns:xlink="http://www.w3.org/1999/xlink" viewBox="0 0 29.0117 26.127">
 <g>
  <rect height="26.127" opacity="0" width="29.0117" x="0" y="0"/>
  <path d="M3.73242 25.9766L24.9238 25.9766C27.248 25.9766 28.6562 24.3633 28.6562 22.2715C28.6562 21.6289 28.4648 20.959 28.123 20.3574L17.5137 1.87305C16.8027 0.628906 15.5859 0 14.3281 0C13.0703 0 11.8398 0.628906 11.1426 1.87305L0.533203 20.3574C0.164062 20.9727 0 21.6289 0 22.2715C0 24.3633 1.4082 25.9766 3.73242 25.9766Z" fill="#ff3b30"/>
  <path d="M5.44141 22.0527C4.86719 22.0527 4.53906 21.5332 4.83984 20.9863L13.7129 5.49609C14 4.97656 14.6426 4.97656 14.9297 5.49609L23.8027 20.9863C24.0898 21.5059 23.7754 22.0527 23.2012 22.0527ZM8.39453 19.8379L20.248 19.8379C20.3984 19.8379 20.4941 19.6875 20.4121 19.5234L14.4922 9.20117C14.4238 9.05078 14.2324 9.05078 14.1641 9.20117L8.23047 19.5098C8.14844 19.6738 8.24414 19.8379 8.39453 19.8379Z" fill="white"/>
 </g>
</svg>
