<?xml version="1.0" encoding="UTF-8"?>
<!--Generator: Apple Native CoreSVG 326-->
<!DOCTYPE svg
PUBLIC "-//W3C//DTD SVG 1.1//EN"
       "http://www.w3.org/Graphics/SVG/1.1/DTD/svg11.dtd">
<svg version="1.1" xmlns="http://www.w3.org/2000/svg" xmlns:xlink="http://www.w3.org/1999/xlink" viewBox="0 0 36.3672 24.3641">
 <g>
  <rect height="24.3641" opacity="0" width="36.3672" x="0" y="0"/>
  <path d="M1.09375 5.87246C0.505859 5.87246 0 6.37832 0 6.97988C0 7.58144 0.519531 8.07363 1.09375 8.07363L11.498 8.0873C11.5938 7.36269 11.6895 6.61074 11.8398 5.87246ZM1.09375 11.0678C0.505859 11.0678 0 11.601 0 12.1889C0 12.7904 0.505859 13.2689 1.09375 13.2689L11.3203 13.2689C11.3066 12.8725 11.3066 11.4779 11.3203 11.0678ZM1.09375 16.2768C0.505859 16.2768 0 16.7963 0 17.3842C0 17.9857 0.505859 18.4779 1.09375 18.4779L11.8398 18.4916C11.6895 17.7396 11.5938 17.0014 11.498 16.2904ZM4.73047 22.4291C3.58203 23.5365 5.07227 25.0541 6.24805 23.9877C8.94141 21.4584 9.48828 16.7553 7.69727 12.2436L7.4375 11.5873C5.93359 7.77285 6.19336 3.91738 8.16211 1.92129C9.31055 0.813864 7.83398-0.703714 6.63086 0.362692C3.9375 2.90566 3.4043 7.58144 5.19531 12.0932L5.46875 12.7494C6.98633 16.5912 6.71289 20.4193 4.73047 22.4291Z" fill="#28cd41"/>
  <path d="M13.166 12.1752C13.1387 14.8139 13.3574 17.3432 14.082 19.9271C14.916 22.7436 16.502 23.7416 19.8379 23.7416L20.6035 23.7416C28.752 23.7416 36.0117 18.4232 36.0117 12.1752C36.0117 5.92714 28.752 0.581442 20.6035 0.581442L19.8379 0.581442C16.5156 0.581442 14.9297 1.59316 14.082 4.40957C13.3574 7.00722 13.1387 9.53652 13.166 12.1752ZM15.3672 12.1752C15.3535 9.23574 15.5996 7.1166 16.2012 5.0248C16.6934 3.38418 17.6914 2.76894 19.8379 2.76894L20.6035 2.76894C27.4805 2.76894 33.8105 7.18496 33.8105 12.1752C33.8105 17.1654 27.4805 21.5541 20.6035 21.5541L19.8379 21.5541C17.6641 21.5541 16.6797 20.9389 16.2012 19.3256C15.5996 17.2338 15.3535 15.1146 15.3672 12.1752Z" fill="#28cd41"/>
 </g>
</svg>
