<?xml version="1.0" encoding="UTF-8"?>
<!--Generator: Apple Native CoreSVG 326-->
<!DOCTYPE svg
PUBLIC "-//W3C//DTD SVG 1.1//EN"
       "http://www.w3.org/Graphics/SVG/1.1/DTD/svg11.dtd">
<svg version="1.1" xmlns="http://www.w3.org/2000/svg" xmlns:xlink="http://www.w3.org/1999/xlink" viewBox="0 0 40.2637 23.2012">
 <g>
  <rect height="23.2012" opacity="0" width="40.2637" x="0" y="0"/>
  <path d="M1.35352 5.50977C2.07812 5.50977 2.67969 4.9082 2.67969 4.15625C2.67969 3.43164 2.07812 2.83008 1.35352 2.83008C0.601562 2.83008 0 3.41797 0 4.15625C0 4.9082 0.601562 5.50977 1.35352 5.50977ZM1.35352 12.9473C2.07812 12.9473 2.67969 12.3457 2.67969 11.5938C2.67969 10.8555 2.07812 10.2539 1.35352 10.2539C0.601562 10.2539 0 10.8555 0 11.5938C0 12.3457 0.601562 12.9473 1.35352 12.9473ZM1.35352 20.3711C2.07812 20.3711 2.67969 19.7695 2.67969 19.0176C2.67969 18.293 2.07812 17.6914 1.35352 17.6914C0.601562 17.6914 0 18.293 0 19.0176C0 19.7695 0.601562 20.3711 1.35352 20.3711Z" fill="black" fill-opacity="0.85"/>
  <path d="M6.19336 6.15234C7.28711 6.15234 8.17578 5.26367 8.17578 4.15625C8.17578 3.07617 7.28711 2.1875 6.19336 2.1875C5.09961 2.1875 4.21094 3.07617 4.21094 4.15625C4.21094 5.26367 5.09961 6.15234 6.19336 6.15234ZM6.19336 13.5898C7.28711 13.5898 8.17578 12.7012 8.17578 11.5938C8.17578 10.5 7.28711 9.61133 6.19336 9.61133C5.09961 9.61133 4.21094 10.5 4.21094 11.5938C4.21094 12.7012 5.09961 13.5898 6.19336 13.5898ZM6.19336 21.0137C7.28711 21.0137 8.17578 20.125 8.17578 19.0176C8.17578 17.9375 7.28711 17.0488 6.19336 17.0488C5.09961 17.0488 4.21094 17.9375 4.21094 19.0176C4.21094 20.125 5.09961 21.0137 6.19336 21.0137Z" fill="black" fill-opacity="0.85"/>
  <path d="M12.3867 6.83594C13.8496 6.83594 15.0527 5.64648 15.0527 4.15625C15.0527 2.69336 13.8496 1.50391 12.3867 1.50391C10.9102 1.50391 9.70703 2.69336 9.70703 4.15625C9.70703 5.64648 10.9102 6.83594 12.3867 6.83594ZM12.3867 14.2734C13.8496 14.2734 15.0527 13.0703 15.0527 11.5938C15.0527 10.1309 13.8496 8.92773 12.3867 8.92773C10.9102 8.92773 9.70703 10.1309 9.70703 11.5938C9.70703 13.0703 10.9102 14.2734 12.3867 14.2734ZM12.3867 21.6973C13.8496 21.6973 15.0527 20.5078 15.0527 19.0176C15.0527 17.5547 13.8496 16.3652 12.3867 16.3652C10.9102 16.3652 9.70703 17.5547 9.70703 19.0176C9.70703 20.5078 10.9102 21.6973 12.3867 21.6973Z" fill="black" fill-opacity="0.85"/>
  <path d="M17.0625 11.5938C17.0352 14.2324 17.2539 16.7617 17.9785 19.3457C18.8125 22.1621 20.3984 23.1602 23.7344 23.1602L24.5 23.1602C32.6484 23.1602 39.9082 17.8418 39.9082 11.5938C39.9082 5.3457 32.6484 0 24.5 0L23.7344 0C20.4121 0 18.8262 1.01172 17.9785 3.82812C17.2539 6.42578 17.0352 8.95508 17.0625 11.5938Z" fill="black" fill-opacity="0.85"/>
 </g>
</svg>
