<?xml version="1.0" encoding="UTF-8"?>
<!--Generator: Apple Native CoreSVG 326-->
<!DOCTYPE svg
PUBLIC "-//W3C//DTD SVG 1.1//EN"
       "http://www.w3.org/Graphics/SVG/1.1/DTD/svg11.dtd">
<svg version="1.1" xmlns="http://www.w3.org/2000/svg" xmlns:xlink="http://www.w3.org/1999/xlink" viewBox="0 0 28.2461 27.9043">
 <g>
  <rect height="27.9043" opacity="0" width="28.2461" x="0" y="0"/>
  <path d="M13.9453 27.8906C21.6426 27.8906 27.8906 21.6426 27.8906 13.9453C27.8906 6.24805 21.6426 0 13.9453 0C6.24805 0 0 6.24805 0 13.9453C0 21.6426 6.24805 27.8906 13.9453 27.8906ZM13.9453 25.5664C7.51953 25.5664 2.32422 20.3711 2.32422 13.9453C2.32422 7.51953 7.51953 2.32422 13.9453 2.32422C20.3711 2.32422 25.5664 7.51953 25.5664 13.9453C25.5664 20.3711 20.3711 25.5664 13.9453 25.5664Z" fill="black" fill-opacity="0.85"/>
  <path d="M6.54883 13.918C6.54883 16.4883 7.16406 18.4707 8.2168 20.2891C8.49023 20.7402 9.00977 20.877 9.48828 20.6172C9.92578 20.3848 10.0625 19.8379 9.81641 19.3457C8.91406 17.6914 8.39453 16.1465 8.39453 13.918C8.39453 10.2539 10.6094 7.83398 13.9453 7.83398C17.2949 7.83398 19.5371 10.2676 19.5371 13.918C19.5371 16.1328 19.0176 17.7051 18.0879 19.3457C17.8281 19.8242 17.9785 20.3711 18.416 20.6172C18.8809 20.877 19.4141 20.7402 19.6875 20.2891C20.7539 18.416 21.3828 16.4473 21.3828 13.918C21.3828 9.17383 18.3887 5.98828 13.9453 5.98828C9.51562 5.98828 6.54883 9.16016 6.54883 13.918ZM8.96875 19.9883C9.22852 20.8906 10.0352 21.3418 10.9238 21.0547C11.8398 20.8086 12.2773 20.0156 12.0039 19.1133L11.0195 15.7363C10.7461 14.8203 9.9668 14.3828 9.06445 14.6562C8.16211 14.9023 7.71094 15.6953 7.98438 16.584ZM18.9219 19.9883L19.9062 16.584C20.1797 15.6816 19.7422 14.9023 18.8262 14.6562C17.9375 14.3828 17.1582 14.8203 16.8848 15.7363L15.8867 19.127C15.627 20.043 16.0508 20.8086 16.9668 21.0547C17.8691 21.3281 18.6621 20.8906 18.9219 19.9883Z" fill="black" fill-opacity="0.85"/>
 </g>
</svg>
