<?xml version="1.0" encoding="UTF-8"?>
<!--Generator: Apple Native CoreSVG 326-->
<!DOCTYPE svg
PUBLIC "-//W3C//DTD SVG 1.1//EN"
       "http://www.w3.org/Graphics/SVG/1.1/DTD/svg11.dtd">
<svg version="1.1" xmlns="http://www.w3.org/2000/svg" xmlns:xlink="http://www.w3.org/1999/xlink" viewBox="0 0 28.2461 27.9043">
 <g>
  <rect height="27.9043" opacity="0" width="28.2461" x="0" y="0"/>
  <path d="M13.9453 27.9043C21.6426 27.9043 27.8906 21.6562 27.8906 13.959C27.8906 6.27539 21.6426 0.0136719 13.9453 0.0136719C6.26172 0.0136719 0 6.27539 0 13.959C0 21.6562 6.26172 27.9043 13.9453 27.9043Z" fill="black" fill-opacity="0.85"/>
  <path d="M13.9453 7.19141C10.5547 7.19141 8.33984 9.39258 8.33984 12.7559L8.33984 12.9473C8.43555 12.9199 8.54492 12.9062 8.6543 12.9062C9.31055 12.9062 9.81641 13.3984 9.81641 14.0547L9.81641 18.2793C9.81641 18.9355 9.31055 19.4277 8.6543 19.4277C8.17578 19.4277 7.79297 19.1816 7.61523 18.8125C7 18.8125 6.17969 18.416 6.17969 17.4453L6.16602 14.6973C6.16602 14.2598 6.34375 13.8633 6.6582 13.6172L6.6582 12.7559C6.6582 8.39453 9.58398 5.48242 13.9453 5.48242C18.3203 5.48242 21.2461 8.39453 21.2461 12.7559L21.2461 13.6172C21.5469 13.8633 21.7383 14.2598 21.7383 14.6973L21.7383 17.5957C21.7383 18.1699 21.4102 18.6074 20.8496 18.7578L20.8496 19.0449C20.8496 20.2754 20.2344 20.7402 19.3594 20.9043L15.75 21.5195C15.5996 21.793 15.3398 21.998 15.0254 22.0391L13.6582 22.2988C13.1113 22.4082 12.5645 22.0117 12.4824 21.4785C12.373 20.918 12.7422 20.3711 13.3027 20.2891L14.6699 20.0293C14.9707 19.9883 15.2578 20.084 15.4902 20.2617L19.1133 19.6328C19.4141 19.5781 19.5098 19.5508 19.5508 19.4277C19.4688 19.4277 19.3594 19.4277 19.25 19.4277C18.5801 19.4277 18.0879 18.9219 18.0879 18.2793L18.0879 14.0547C18.0879 13.4258 18.5801 12.9062 19.25 12.9062C19.3594 12.9062 19.4688 12.9199 19.5645 12.9609L19.5645 12.7559C19.5645 9.39258 17.3496 7.19141 13.9453 7.19141Z" fill="white"/>
 </g>
</svg>
