<?xml version="1.0" encoding="UTF-8"?>
<!--Generator: Apple Native CoreSVG 326-->
<!DOCTYPE svg
PUBLIC "-//W3C//DTD SVG 1.1//EN"
       "http://www.w3.org/Graphics/SVG/1.1/DTD/svg11.dtd">
<svg version="1.1" xmlns="http://www.w3.org/2000/svg" xmlns:xlink="http://www.w3.org/1999/xlink" viewBox="0 0 28.2461 27.9043">
 <g>
  <rect height="27.9043" opacity="0" width="28.2461" x="0" y="0"/>
  <path d="M13.9453 27.8906C21.6426 27.8906 27.8906 21.6426 27.8906 13.9453C27.8906 6.24805 21.6426 0 13.9453 0C6.24805 0 0 6.24805 0 13.9453C0 21.6426 6.24805 27.8906 13.9453 27.8906ZM13.9453 25.5664C7.51953 25.5664 2.32422 20.3711 2.32422 13.9453C2.32422 7.51953 7.51953 2.32422 13.9453 2.32422C20.3711 2.32422 25.5664 7.51953 25.5664 13.9453C25.5664 20.3711 20.3711 25.5664 13.9453 25.5664Z" fill="black" fill-opacity="0.85"/>
  <path d="M13.9453 7.38281C17.2539 7.38281 19.4004 9.51562 19.4004 12.7832L19.4004 12.9609C19.3047 12.9336 19.1953 12.9199 19.0996 12.9199C18.4434 12.9199 17.9785 13.4121 17.9785 14.041L17.9785 18.1289C17.9785 18.7578 18.4434 19.25 19.0996 19.25C19.1953 19.25 19.3047 19.25 19.3867 19.25C19.3457 19.373 19.25 19.3867 18.9629 19.4277L15.4492 20.043C15.2305 19.8652 14.9434 19.7832 14.6562 19.8379L13.3301 20.0703C12.7832 20.166 12.4277 20.6855 12.5371 21.2324C12.6191 21.7383 13.1387 22.1348 13.6719 22.0254L14.998 21.7793C15.2988 21.7246 15.5586 21.5332 15.6953 21.2734L19.1953 20.6719C20.043 20.5215 20.6445 20.0703 20.6445 18.8672L20.6445 18.5938C21.1777 18.457 21.4922 18.0332 21.4922 17.4727L21.4922 14.6562C21.4922 14.2324 21.3145 13.8359 21.0273 13.6035L21.0273 12.7832C21.0273 8.55859 18.1836 5.72852 13.9453 5.72852C9.7207 5.72852 6.87695 8.55859 6.87695 12.7832L6.87695 13.6035C6.57617 13.8359 6.41211 14.2324 6.41211 14.6562L6.42578 17.3359C6.42578 18.2656 7.20508 18.6484 7.80664 18.6484C7.9707 19.0039 8.33984 19.25 8.80469 19.25C9.44727 19.25 9.92578 18.7715 9.92578 18.1289L9.92578 14.041C9.92578 13.3984 9.44727 12.9199 8.80469 12.9199C8.70898 12.9199 8.59961 12.9336 8.50391 12.9473L8.50391 12.7832C8.50391 9.51562 10.6504 7.38281 13.9453 7.38281Z" fill="black" fill-opacity="0.85"/>
 </g>
</svg>
