<?xml version="1.0" encoding="UTF-8"?>
<!--Generator: Apple Native CoreSVG 326-->
<!DOCTYPE svg
PUBLIC "-//W3C//DTD SVG 1.1//EN"
       "http://www.w3.org/Graphics/SVG/1.1/DTD/svg11.dtd">
<svg version="1.1" xmlns="http://www.w3.org/2000/svg" xmlns:xlink="http://www.w3.org/1999/xlink" viewBox="0 0 25.5254 25.1699">
 <g>
  <rect height="25.1699" opacity="0" width="25.5254" x="0" y="0"/>
  <path d="M4.29297 25.1699L20.877 25.1699C23.748 25.1699 25.1699 23.7617 25.1699 20.9453L25.1699 4.23828C25.1699 1.42188 23.748 0 20.877 0L4.29297 0C1.43555 0 0 1.42188 0 4.23828L0 20.9453C0 23.7617 1.43555 25.1699 4.29297 25.1699Z" fill="#ff3b30"/>
  <path d="M9.20117 6.34375C10.7188 6.34375 11.8809 7.20508 12.5918 8.49023C13.3027 7.20508 14.4785 6.34375 15.9824 6.34375C18.3613 6.34375 20.0977 8.14844 20.0977 10.6504C20.0977 14.3418 16.1602 17.7188 13.2891 19.5918C13.0703 19.7559 12.8105 19.9336 12.6191 19.9336C12.4414 19.9336 12.127 19.7422 11.8809 19.5918C8.99609 17.7598 5.08594 14.3418 5.08594 10.6504C5.08594 8.14844 6.80859 6.34375 9.20117 6.34375Z" fill="white"/>
 </g>
</svg>
