<?xml version="1.0" encoding="UTF-8"?>
<!--Generator: Apple Native CoreSVG 326-->
<!DOCTYPE svg
PUBLIC "-//W3C//DTD SVG 1.1//EN"
       "http://www.w3.org/Graphics/SVG/1.1/DTD/svg11.dtd">
<svg version="1.1" xmlns="http://www.w3.org/2000/svg" xmlns:xlink="http://www.w3.org/1999/xlink" viewBox="0 0 25.5254 25.1699">
 <g>
  <rect height="25.1699" opacity="0" width="25.5254" x="0" y="0"/>
  <path d="M4.29297 25.1699L20.877 25.1699C23.748 25.1699 25.1699 23.7617 25.1699 20.9453L25.1699 4.23828C25.1699 1.42188 23.748 0 20.877 0L4.29297 0C1.43555 0 0 1.42188 0 4.23828L0 20.9453C0 23.7617 1.43555 25.1699 4.29297 25.1699ZM4.32031 22.9688C2.95312 22.9688 2.20117 22.2441 2.20117 20.8223L2.20117 4.36133C2.20117 2.93945 2.95312 2.20117 4.32031 2.20117L20.8496 2.20117C22.2031 2.20117 22.9688 2.93945 22.9688 4.36133L22.9688 20.8223C22.9688 22.2441 22.2031 22.9688 20.8496 22.9688Z" fill="black" fill-opacity="0.85"/>
  <path d="M6.87695 4.51172C5.75586 4.51172 4.92188 5.38672 4.92188 6.58984C4.92188 8.36719 6.83594 9.92578 8.18945 10.8691C8.32617 10.9648 8.46289 11.0332 8.54492 11.0332C8.64062 11.0332 8.75 10.9512 8.87305 10.8691C10.2539 10.0215 12.127 8.36719 12.127 6.58984C12.127 5.38672 11.293 4.51172 10.1445 4.51172C9.44727 4.51172 8.85938 4.93555 8.53125 5.56445C8.18945 4.93555 7.62891 4.51172 6.87695 4.51172ZM5.7832 15.3125L19.25 15.3125C19.7285 15.3125 20.0977 14.9434 20.0977 14.4648C20.0977 14 19.7285 13.6309 19.25 13.6309L5.7832 13.6309C5.29102 13.6309 4.92188 14 4.92188 14.4648C4.92188 14.9434 5.29102 15.3125 5.7832 15.3125ZM5.7832 19.9883L15.6543 19.9883C16.1328 19.9883 16.502 19.6191 16.502 19.1543C16.502 18.6758 16.1328 18.3066 15.6543 18.3066L5.7832 18.3066C5.29102 18.3066 4.92188 18.6758 4.92188 19.1543C4.92188 19.6191 5.29102 19.9883 5.7832 19.9883Z" fill="black" fill-opacity="0.85"/>
 </g>
</svg>
