<?xml version="1.0" encoding="UTF-8"?>
<!--Generator: Apple Native CoreSVG 326-->
<!DOCTYPE svg
PUBLIC "-//W3C//DTD SVG 1.1//EN"
       "http://www.w3.org/Graphics/SVG/1.1/DTD/svg11.dtd">
<svg version="1.1" xmlns="http://www.w3.org/2000/svg" xmlns:xlink="http://www.w3.org/1999/xlink" viewBox="0 0 33.2705 31.3223">
 <g>
  <rect height="31.3223" opacity="0" width="33.2705" x="0" y="0"/>
  <path d="M21.5858 25.319C20.3246 26.3264 18.9395 27.3082 17.4487 28.2598C17.1479 28.4375 16.7378 28.6289 16.4507 28.6289C16.1772 28.6289 15.7534 28.4375 15.4663 28.2598C7.75537 23.3379 2.87451 17.6094 2.87451 11.7852C2.87451 10.2165 3.22353 8.79716 3.84597 7.59891ZM30.0405 11.7852C30.0405 15.1747 28.3874 18.5318 25.4762 21.7151L7.77987 4.02855C8.61391 3.69909 9.52744 3.52734 10.4897 3.52734C13.1694 3.52734 15.2339 5.01758 16.4507 7.25977C17.6948 5.00391 19.7456 3.52734 22.4116 3.52734C26.7183 3.52734 30.0405 6.94531 30.0405 11.7852Z" fill="#ff3b30"/>
  <path d="M26.5679 28.041C26.978 28.4648 27.6616 28.4648 28.0581 28.041C28.4683 27.6309 28.4683 26.9746 28.0581 26.5508L3.39404 1.90039C2.98389 1.49023 2.31396 1.49023 1.89014 1.90039C1.49365 2.29688 1.49365 2.99414 1.89014 3.39062Z" fill="#ff3b30"/>
 </g>
</svg>
