<?xml version="1.0" encoding="UTF-8"?>
<!--Generator: Apple Native CoreSVG 326-->
<!DOCTYPE svg
PUBLIC "-//W3C//DTD SVG 1.1//EN"
       "http://www.w3.org/Graphics/SVG/1.1/DTD/svg11.dtd">
<svg version="1.1" xmlns="http://www.w3.org/2000/svg" xmlns:xlink="http://www.w3.org/1999/xlink" viewBox="0 0 31.0352 29.7637">
 <g>
  <rect height="29.7637" opacity="0" width="31.0352" x="0" y="0"/>
  <path d="M10.0352 22.9688C10.0352 26.7559 12.373 29.1484 16.0645 29.1484C18.7988 29.1484 20.8633 27.9453 22.1484 25.6211L23.3789 23.4199C26.2637 18.1562 31.0352 17.459 31.0352 10.6914C31.0352 4.2793 26.8926 0 20.6719 0C14.3145 0 10.0352 4.30664 10.0352 10.7324ZM14.0273 19.1816C14.0273 16.543 16.9258 16.8711 16.9258 15.3535C16.9258 13.9863 14.0273 12.9883 14.0273 9.93945C14.0273 6.45312 16.6934 3.95117 20.6582 3.95117C24.6367 3.95117 27.2891 6.61719 27.2891 10.582C27.2891 11.1699 26.8105 11.6621 26.2227 11.6621C25.6484 11.6621 25.1426 11.1699 25.1426 10.582C25.1426 7.875 23.3926 6.09766 20.6582 6.09766C17.9648 6.09766 16.1738 7.72461 16.1738 9.93945C16.1738 12.7969 20.3711 13.4531 20.3711 17.5273C20.3711 19.7969 18.9219 21.6152 16.7891 21.6289C15.1484 21.6289 14.0273 20.6445 14.0273 19.1816Z" fill="black" fill-opacity="0.85"/>
  <path d="M2.99414 6.48047C4.25195 6.48047 5.29102 5.45508 5.29102 4.19727C5.29102 2.92578 4.25195 1.90039 2.99414 1.90039C1.72266 1.90039 0.697266 2.92578 0.697266 4.19727C0.697266 5.45508 1.72266 6.48047 2.99414 6.48047Z" fill="black" fill-opacity="0.85"/>
  <path d="M2.99414 13.5898C4.25195 13.5898 5.29102 12.5645 5.29102 11.3066C5.29102 10.0352 4.25195 9.00977 2.99414 9.00977C1.72266 9.00977 0.697266 10.0352 0.697266 11.3066C0.697266 12.5645 1.72266 13.5898 2.99414 13.5898Z" fill="black" fill-opacity="0.85"/>
  <path d="M2.99414 20.7266C4.25195 20.7266 5.29102 19.7012 5.29102 18.4434C5.29102 17.1719 4.25195 16.1465 2.99414 16.1465C1.72266 16.1465 0.697266 17.1719 0.697266 18.4434C0.697266 19.7012 1.72266 20.7266 2.99414 20.7266Z" fill="black" fill-opacity="0.85"/>
  <path d="M2.99414 27.8359C4.25195 27.8359 5.29102 26.8105 5.29102 25.5527C5.29102 24.2812 4.25195 23.2559 2.99414 23.2559C1.72266 23.2559 0.697266 24.2812 0.697266 25.5527C0.697266 26.8105 1.72266 27.8359 2.99414 27.8359Z" fill="black" fill-opacity="0.85"/>
 </g>
</svg>
