<?xml version="1.0" encoding="UTF-8"?>
<!--Generator: Apple Native CoreSVG 326-->
<!DOCTYPE svg
PUBLIC "-//W3C//DTD SVG 1.1//EN"
       "http://www.w3.org/Graphics/SVG/1.1/DTD/svg11.dtd">
<svg version="1.1" xmlns="http://www.w3.org/2000/svg" xmlns:xlink="http://www.w3.org/1999/xlink" viewBox="0 0 18.252 35.6426">
 <g>
  <rect height="35.6426" opacity="0" width="18.252" x="0" y="0"/>
  <path d="M4.82617 7.90234C4.82617 5.89258 3.02148 4.77148 3.02148 3.39062C3.02148 2.625 3.22656 2.20117 3.73242 1.50391C4.45703 0.533203 3.11719-0.451172 2.39258 0.492188C1.6543 1.4082 1.33984 2.25586 1.33984 3.28125C1.33984 5.37305 3.11719 6.39844 3.11719 7.90234C3.11719 9.37891 1.33984 10.418 1.33984 12.4961C1.33984 13.5215 1.6543 14.3691 2.37891 15.2852C3.10352 16.2148 4.44336 15.2305 3.71875 14.2734C3.22656 13.5898 3.02148 13.166 3.02148 12.373C3.02148 11.0332 4.82617 9.89844 4.82617 7.90234ZM10.7051 7.90234C10.7051 5.89258 8.90039 4.77148 8.90039 3.39062C8.90039 2.625 9.0918 2.20117 9.61133 1.50391C10.3359 0.533203 8.99609-0.451172 8.24414 0.492188C7.5332 1.4082 7.20508 2.25586 7.20508 3.28125C7.20508 5.37305 8.96875 6.39844 8.96875 7.90234C8.96875 9.37891 7.20508 10.418 7.20508 12.4961C7.20508 13.5215 7.5332 14.3691 8.24414 15.2852C8.96875 16.2148 10.3223 15.2305 9.59766 14.2734C9.0918 13.5898 8.90039 13.166 8.90039 12.373C8.90039 11.0332 10.7051 9.89844 10.7051 7.90234ZM16.5566 7.90234C16.5566 5.89258 14.752 4.77148 14.752 3.39062C14.752 2.625 14.957 2.20117 15.4766 1.50391C16.2012 0.533203 14.8477-0.451172 14.1094 0.492188C13.3848 1.4082 13.0703 2.25586 13.0703 3.28125C13.0703 5.37305 14.8477 6.39844 14.8477 7.90234C14.8477 9.37891 13.0703 10.418 13.0703 12.4961C13.0703 13.5215 13.3848 14.3691 14.0957 15.2852C14.834 16.2148 16.1875 15.2305 15.4629 14.2734C14.957 13.5898 14.752 13.166 14.752 12.373C14.752 11.0332 16.5566 9.89844 16.5566 7.90234Z" fill="black" fill-opacity="0.85"/>
  <path d="M11.8945 35.6426C14.5742 35.6426 17.2949 33.1816 17.2949 30.8984C17.2949 28.793 15.4082 27.7676 12.0859 26.4961L12.0039 26.0176L15.5723 26.0176C17.1172 26.0176 17.8965 25.2383 17.8965 23.7344C17.8965 21.0547 15.4629 18.3203 13.166 18.3203C11.0605 18.3203 10.0352 20.2207 8.76367 23.5566L8.29883 23.625L8.29883 20.0293C8.29883 18.5117 7.50586 17.7188 6.01562 17.7188C3.32227 17.7188 0.601562 20.166 0.601562 22.4492C0.601562 24.541 2.50195 25.5938 5.83789 26.8516L5.87891 27.3164L2.31055 27.3164C0.792969 27.3164 0 28.123 0 29.5996C0 32.3066 2.44727 35.0137 4.73047 35.0137C6.82227 35.0137 7.875 33.1406 9.11914 29.8184L9.59766 29.7363L9.59766 33.3047C9.59766 34.8359 10.3906 35.6426 11.8945 35.6426ZM8.94141 28.5059C7.92969 28.5059 7.10938 27.6855 7.10938 26.6738C7.10938 25.6621 7.92969 24.8418 8.94141 24.8418C9.95312 24.8418 10.7734 25.6621 10.7734 26.6738C10.7734 27.6855 9.95312 28.5059 8.94141 28.5059Z" fill="black" fill-opacity="0.85"/>
 </g>
</svg>
