<?xml version="1.0" encoding="UTF-8"?>
<!--Generator: Apple Native CoreSVG 326-->
<!DOCTYPE svg
PUBLIC "-//W3C//DTD SVG 1.1//EN"
       "http://www.w3.org/Graphics/SVG/1.1/DTD/svg11.dtd">
<svg version="1.1" xmlns="http://www.w3.org/2000/svg" xmlns:xlink="http://www.w3.org/1999/xlink" viewBox="0 0 40.0123 21.0957">
 <g>
  <rect height="21.0957" opacity="0" width="40.0123" x="0" y="0"/>
  <path d="M20.5257 5.31836L23.2874 11.4707L25.5706 6.57617C25.8987 5.86523 26.8421 5.85156 27.1975 6.61719L28.6525 9.76172L35.2853 9.76172L33.8172 11.6348L28.0862 11.6348C27.6487 11.6348 27.4436 11.416 27.2796 11.0605L26.3772 9.10547L23.9846 14.3008C23.7112 14.9023 22.9046 14.9023 22.6038 14.2598L19.8284 8.10742L17.053 14.2598C16.7522 14.9023 15.9456 14.9023 15.6585 14.3008L13.2659 9.10547L12.3772 11.0605C12.2132 11.416 11.9944 11.6348 11.5569 11.6348L5.83108 11.6348L4.36047 9.76172L11.0043 9.76172L12.4593 6.61719C12.8147 5.85156 13.7444 5.86523 14.0725 6.57617L16.3557 11.4707L19.1311 5.31836C19.4319 4.67578 20.2112 4.67578 20.5257 5.31836Z" fill="black" fill-opacity="0.85"/>
  <path d="M19.8284 18.7031C22.5218 18.7031 25.6663 19.5234 28.0042 20.7402C28.6331 21.082 29.3304 20.9453 29.7405 20.4121L39.0511 8.55859C39.9671 7.38281 39.8167 6.13867 38.6546 5.22266C34.8401 2.2832 27.5257 0 19.8284 0C12.1311 0 4.81668 2.2832 0.988554 5.22266C-0.173555 6.13867-0.323946 7.38281 0.605742 8.55859L9.91629 20.4121C10.3264 20.9453 11.01 21.082 11.6389 20.7402C13.9768 19.5234 17.135 18.7031 19.8284 18.7031ZM19.8284 16.502C17.3264 16.502 14.4417 17.1582 11.6526 18.3066C11.3108 18.4434 11.1604 18.416 10.887 18.0742L2.79324 7.76562C2.53348 7.42383 2.57449 7.0957 2.94363 6.84961C7.64676 3.88281 13.6761 2.20117 19.8284 2.20117C25.9807 2.20117 32.01 3.88281 36.7132 6.84961C37.0823 7.0957 37.1233 7.42383 36.8499 7.76562L28.7698 18.0742C28.4964 18.416 28.346 18.4434 28.0042 18.3066C25.2151 17.1582 22.3167 16.502 19.8284 16.502Z" fill="black" fill-opacity="0.85"/>
 </g>
</svg>
