<?xml version="1.0" encoding="UTF-8"?>
<!--Generator: Apple Native CoreSVG 326-->
<!DOCTYPE svg
PUBLIC "-//W3C//DTD SVG 1.1//EN"
       "http://www.w3.org/Graphics/SVG/1.1/DTD/svg11.dtd">
<svg version="1.1" xmlns="http://www.w3.org/2000/svg" xmlns:xlink="http://www.w3.org/1999/xlink" viewBox="0 0 35.4047 32.8535">
 <g>
  <rect height="32.8535" opacity="0" width="35.4047" x="0" y="0"/>
  <path d="M6.23163 32.8535L14.7082 32.8535C16.5949 32.8535 17.8117 31.6504 17.8117 29.8047L17.8117 3.04883C17.8117 1.20312 16.5949 0 14.7082 0L6.23163 0C4.34491 0 3.12811 1.20312 3.12811 3.04883L3.12811 29.8047C3.12811 31.6504 4.34491 32.8535 6.23163 32.8535ZM6.27264 30.6523C5.68475 30.6523 5.32928 30.2832 5.32928 29.6816L5.32928 3.17188C5.32928 2.57031 5.68475 2.20117 6.27264 2.20117L14.6672 2.20117C15.2551 2.20117 15.6105 2.57031 15.6105 3.17188L15.6105 29.6816C15.6105 30.2832 15.2551 30.6523 14.6672 30.6523ZM13.5461 10.8418C13.9289 10.8418 14.2297 10.5273 14.2297 10.1445L14.2297 4.74414C14.2297 4.36133 13.9289 4.04688 13.5461 4.04688C13.1496 4.04688 12.8488 4.36133 12.8488 4.74414L12.8488 10.1445C12.8488 10.5273 13.1496 10.8418 13.5461 10.8418ZM10.7297 10.8418C11.0988 10.8418 11.4133 10.5273 11.4133 10.1445L11.4133 4.74414C11.4133 4.36133 11.0988 4.04688 10.7297 4.04688C10.3332 4.04688 10.0187 4.36133 10.0187 4.74414L10.0187 10.1445C10.0187 10.5273 10.3332 10.8418 10.7297 10.8418ZM13.5461 19.7695C13.9289 19.7695 14.2297 19.4688 14.2297 19.0723L14.2297 13.6719C14.2297 13.2891 13.9289 12.9883 13.5461 12.9883C13.1496 12.9883 12.8488 13.2891 12.8488 13.6719L12.8488 19.0723C12.8488 19.4688 13.1496 19.7695 13.5461 19.7695ZM10.7297 19.7695C11.0988 19.7695 11.4133 19.4688 11.4133 19.0723L11.4133 13.6719C11.4133 13.2891 11.0988 12.9883 10.7297 12.9883C10.3332 12.9883 10.0187 13.2891 10.0187 13.6719L10.0187 19.0723C10.0187 19.4688 10.3332 19.7695 10.7297 19.7695ZM13.5461 28.7246C13.9289 28.7246 14.2297 28.4102 14.2297 28.041L14.2297 22.6406C14.2297 22.2441 13.9289 21.9434 13.5461 21.9434C13.1496 21.9434 12.8488 22.2441 12.8488 22.6406L12.8488 28.041C12.8488 28.4102 13.1496 28.7246 13.5461 28.7246ZM10.7297 28.7246C11.0988 28.7246 11.4133 28.4102 11.4133 28.041L11.4133 22.6406C11.4133 22.2441 11.0988 21.9434 10.7297 21.9434C10.3332 21.9434 10.0187 22.2441 10.0187 22.6406L10.0187 28.041C10.0187 28.4102 10.3332 28.7246 10.7297 28.7246Z" fill="black" fill-opacity="0.85"/>
  <path d="M23.2121 14.7793C26.8625 14.7793 28.7492 11.8125 31.9348 11.8125C32.673 11.8125 33.3019 11.9629 34.0812 12.4004C34.5734 12.6738 35.0109 12.4824 35.2297 12.168C35.5031 11.7715 35.4758 11.1699 34.8742 10.8281C33.9719 10.2949 32.9875 10.0352 31.9348 10.0352C28.2297 10.0352 26.343 13.0156 23.2121 13.0156C22.4738 13.0156 21.8449 12.8516 21.0519 12.4004C20.5871 12.1406 20.1359 12.3184 19.9035 12.6738C19.6574 13.0566 19.6848 13.6582 20.259 13.9863C21.1613 14.5469 22.1594 14.7793 23.2121 14.7793ZM23.2258 18.7988C26.8625 18.7988 28.7629 15.832 31.9348 15.832C32.6867 15.832 33.3156 15.9824 34.0949 16.4199C34.5734 16.6934 35.0246 16.502 35.2433 16.1875C35.5031 15.791 35.4894 15.1895 34.9015 14.8477C33.9855 14.3145 32.9875 14.0547 31.9348 14.0547C28.2433 14.0547 26.3566 17.0352 23.2258 17.0352C22.4738 17.0352 21.8449 16.8711 21.0656 16.4336C20.6008 16.1602 20.1359 16.3379 19.9035 16.6934C19.6574 17.0762 19.6848 17.6777 20.2726 18.0059C21.175 18.5664 22.173 18.7988 23.2258 18.7988ZM23.2121 22.8184C26.8625 22.8184 28.7492 19.8516 31.9348 19.8516C32.673 19.8516 33.3019 20.002 34.0812 20.4531C34.5734 20.7266 35.0109 20.5215 35.2297 20.207C35.5031 19.8105 35.4758 19.209 34.8742 18.8672C33.9719 18.334 32.9875 18.0742 31.9348 18.0742C28.2297 18.0742 26.343 21.0547 23.2121 21.0547C22.4738 21.0547 21.8449 20.8906 21.0519 20.4531C20.5871 20.1797 20.1359 20.3574 19.9035 20.7129C19.6574 21.0957 19.6848 21.7109 20.259 22.0391C21.1613 22.5859 22.1594 22.8184 23.2121 22.8184Z" fill="black" fill-opacity="0.85"/>
 </g>
</svg>
