<?xml version="1.0" encoding="UTF-8"?>
<!--Generator: Apple Native CoreSVG 326-->
<!DOCTYPE svg
PUBLIC "-//W3C//DTD SVG 1.1//EN"
       "http://www.w3.org/Graphics/SVG/1.1/DTD/svg11.dtd">
<svg version="1.1" xmlns="http://www.w3.org/2000/svg" xmlns:xlink="http://www.w3.org/1999/xlink" viewBox="0 0 31.9045 27.4395">
 <g>
  <rect height="27.4395" opacity="0" width="31.9045" x="0" y="0"/>
  <path d="M18.0919 27.3711C18.6935 27.2754 18.9532 26.8379 18.8575 26.2637C18.6251 24.9648 18.4337 23.8574 18.4064 22.0391C18.379 20.5762 18.4064 18.7988 18.4747 16.9668C20.3751 17.3223 22.4669 18.0469 25.1466 18.0469C29.4122 18.0469 31.2306 17.1719 31.422 16.0098C31.5587 15.6133 31.4083 15.2715 30.6153 14.4512C29.9728 13.7949 29.5626 12.7148 29.3165 11.3613C28.4689 6.63086 25.1466 2.59766 19.9513 0.888672L19.9513 3.81445C19.9513 4.40234 19.5411 4.82617 19.0079 4.82617C18.4747 4.82617 18.0782 4.40234 18.0782 3.8418L18.0782 0.396484C17.381 0.246094 16.67 0.150391 15.9591 0.0820312L15.9591 4.45703C15.9591 5.04492 15.5353 5.45508 15.0157 5.45508C14.4825 5.45508 14.0724 5.04492 14.0724 4.48438L14.0724 0C13.3204 0.0136719 12.6642 0.0273438 11.9532 0.136719L11.9532 3.80078C11.9532 4.38867 11.5567 4.8125 11.0372 4.8125C10.4903 4.8125 10.0939 4.38867 10.0939 3.82812L10.0939 0.478516C4.81651 1.80469 1.22081 5.6875 0.250104 10.1719L4.77549 12.2227C5.29503 12.4551 5.52745 12.9883 5.29503 13.4531C5.07628 13.9453 4.54307 14.1504 4.05089 13.918L0.00401056 12.1133C-0.0233332 13.5215 0.0860418 15.1621 0.427839 16.4336C0.892682 18.2109 3.94151 20.3027 6.08799 20.3027C7.71495 20.3027 8.89073 19.7832 10.0118 19.1133L16.5607 23.584C16.6427 24.7188 16.7521 25.5117 16.9571 26.5918C17.0528 27.1387 17.5724 27.4531 18.0919 27.3711ZM11.7892 18.0605C13.0607 17.3496 14.4278 16.7207 16.4239 16.7207L16.4923 16.7207C16.4376 18.3066 16.3966 19.8242 16.4376 21.1914Z" fill="black" fill-opacity="0.85"/>
 </g>
</svg>
