<?xml version="1.0" encoding="UTF-8"?>
<!--Generator: Apple Native CoreSVG 326-->
<!DOCTYPE svg
PUBLIC "-//W3C//DTD SVG 1.1//EN"
       "http://www.w3.org/Graphics/SVG/1.1/DTD/svg11.dtd">
<svg version="1.1" xmlns="http://www.w3.org/2000/svg" xmlns:xlink="http://www.w3.org/1999/xlink" viewBox="0 0 27.7949 30.7822">
 <g>
  <rect height="30.7822" opacity="0" width="27.7949" x="0" y="0"/>
  <path d="M25.8809 24.2026C26.8652 23.6421 27.4395 22.644 27.4395 21.5093L27.4395 9.25928C27.4395 8.12451 26.8652 7.12646 25.8809 6.55225L15.2852 0.440918C14.2871-0.146973 13.1523-0.146973 12.168 0.440918L1.55859 6.55225C0.574219 7.12646 0 8.12451 0 9.25928L0 21.5093C0 22.644 0.574219 23.6421 1.55859 24.2026L12.168 30.3413C13.1523 30.9155 14.2871 30.9155 15.2852 30.3413ZM13.7266 28.4546C13.4395 28.4546 13.166 28.3726 12.9199 28.2222L3.00781 22.4937C2.50195 22.1929 2.20117 21.687 2.20117 21.1128L2.20117 9.65576C2.20117 9.08154 2.50195 8.57568 3.00781 8.2749L12.9199 2.54639C13.166 2.396 13.4395 2.31396 13.7266 2.31396Z" fill="black" fill-opacity="0.85"/>
 </g>
</svg>
