<?xml version="1.0" encoding="UTF-8"?>
<!--Generator: Apple Native CoreSVG 326-->
<!DOCTYPE svg
PUBLIC "-//W3C//DTD SVG 1.1//EN"
       "http://www.w3.org/Graphics/SVG/1.1/DTD/svg11.dtd">
<svg version="1.1" xmlns="http://www.w3.org/2000/svg" xmlns:xlink="http://www.w3.org/1999/xlink" viewBox="0 0 41.1387 18.2246">
 <g>
  <rect height="18.2246" opacity="0" width="41.1387" x="0" y="0"/>
  <path d="M4.22461 15.9277L36.5449 15.9277C39.3477 15.9277 40.7832 14.5059 40.7832 11.7578L40.7832 4.16992C40.7832 1.42188 39.3477 0 36.5449 0L4.22461 0C1.44922 0 0 1.42188 0 4.16992L0 11.7578C0 14.5059 1.44922 15.9277 4.22461 15.9277ZM7.75195 11.0059C6.04297 11.0059 4.67578 9.63867 4.67578 7.94336C4.67578 6.23438 6.04297 4.86719 7.75195 4.86719C9.43359 4.86719 10.8008 6.23438 10.8008 7.94336C10.8008 9.63867 9.43359 11.0059 7.75195 11.0059ZM14.7383 11.0195C14.041 11.0195 13.5762 10.5684 13.5762 9.87109L13.5762 6.07031C13.5762 5.37305 14.041 4.9082 14.7383 4.9082L26.0312 4.9082C26.7422 4.9082 27.1934 5.37305 27.1934 6.07031L27.1934 9.87109C27.1934 10.5684 26.7422 11.0195 26.0312 11.0195ZM33.0312 11.0059C31.3496 11.0059 29.9824 9.63867 29.9824 7.94336C29.9824 6.23438 31.3496 4.86719 33.0312 4.86719C34.7266 4.86719 36.0938 6.23438 36.0938 7.94336C36.0938 9.63867 34.7266 11.0059 33.0312 11.0059ZM10.1309 15.0801L3.03516 15.0801L3.03516 17.0898C3.03516 17.7598 3.48633 18.2109 4.15625 18.2109L9.00977 18.2109C9.69336 18.2109 10.1309 17.7598 10.1309 17.0898ZM30.6523 15.0801L30.6523 17.0898C30.6523 17.7598 31.0898 18.2109 31.7734 18.2109L36.6133 18.2109C37.2969 18.2109 37.748 17.7598 37.748 17.0898L37.748 15.0801Z" fill="black" fill-opacity="0.85"/>
 </g>
</svg>
