<?xml version="1.0" encoding="UTF-8"?>
<!--Generator: Apple Native CoreSVG 326-->
<!DOCTYPE svg
PUBLIC "-//W3C//DTD SVG 1.1//EN"
       "http://www.w3.org/Graphics/SVG/1.1/DTD/svg11.dtd">
<svg version="1.1" xmlns="http://www.w3.org/2000/svg" xmlns:xlink="http://www.w3.org/1999/xlink" viewBox="0 0 36.5586 35.5332">
 <g>
  <rect height="35.5332" opacity="0" width="36.5586" x="0" y="0"/>
  <path d="M20.2617 5.1543L20.2617 9.32422L18.1426 9.32422C15.8047 9.32422 13.7266 9.63867 12.1406 11.2246C11.5893 11.7759 11.1949 12.3851 10.9178 13.044C10.9109 13.043 10.9037 13.043 10.8965 13.043C8.05273 13.043 5.75586 15.3398 5.75586 18.1836C5.75586 20.8013 7.72095 22.9628 10.2676 23.2685L10.2676 26.7285L4.86719 26.7285C2.65234 26.7285 1.50391 25.5664 1.50391 23.3379L1.50391 5.1543C1.50391 2.93945 2.65234 1.77734 4.86719 1.77734L16.8984 1.77734C19.1133 1.77734 20.2617 2.93945 20.2617 5.1543ZM10.2676 17.1992L10.2676 20.2725C9.36178 20.0167 8.70898 19.1909 8.70898 18.1973C8.70898 17.2053 9.37464 16.3654 10.2945 16.1162C10.2748 16.4695 10.2676 16.8311 10.2676 17.1992ZM8.14844 8.01172C8.14844 9.5293 9.37891 10.7461 10.8828 10.7461C12.3867 10.7461 13.6172 9.5293 13.6172 8.01172C13.6172 6.50781 12.4004 5.27734 10.8828 5.27734C9.37891 5.27734 8.14844 6.50781 8.14844 8.01172ZM12.25 7.99805C12.25 8.76367 11.6621 9.36523 10.8828 9.36523C10.1172 9.36523 9.51562 8.76367 9.51562 7.99805C9.51562 7.20508 10.1172 6.61719 10.8828 6.61719C11.6484 6.61719 12.25 7.23242 12.25 7.99805Z" fill="black" fill-opacity="0.85"/>
  <path d="M18.1699 33.6738L28.6836 33.6738C30.5977 33.6738 32.2383 33.4961 33.3867 32.3477C34.5352 31.1719 34.6992 29.5723 34.6992 27.6445L34.6992 17.2266C34.6992 15.2988 34.5352 13.6855 33.3867 12.5371C32.2246 11.3887 30.5977 11.1973 28.6836 11.1973L18.1426 11.1973C16.2422 11.1973 14.6152 11.3887 13.4668 12.5371C12.3184 13.6992 12.1406 15.2988 12.1406 17.1992L12.1406 27.6445C12.1406 29.5723 12.3184 31.1855 13.4668 32.3477C14.6152 33.4961 16.2422 33.6738 18.1699 33.6738ZM18.1973 19.8926C18.1699 19.0312 18.8809 18.1836 19.8105 18.1289C19.8789 18.9766 19.1543 20.002 18.1973 19.8926ZM21.4102 23.9258C21.2461 24.5273 20.8496 25.2246 20.3301 25.7441C20.1797 25.8809 19.9473 25.9902 19.6602 25.9902C19.4004 25.9902 19.2363 25.8945 18.9902 25.8125C18.8535 25.7715 18.6484 25.6621 18.3887 25.6621C17.8145 25.6621 17.5547 26.0039 17.0898 26.0039C16.7617 26.0039 16.502 25.8125 16.1465 25.416C15.4766 24.6777 15.0254 23.502 15.0254 22.4766C15.0254 21.8477 15.1895 21.2734 15.5859 20.7812C15.9141 20.3574 16.4199 20.1113 17.0352 20.1113C17.5957 20.1113 17.9375 20.4531 18.2383 20.4531C18.5938 20.4531 19.0039 20.0977 19.7285 20.0977C20.3574 20.0977 20.8906 20.3438 21.2324 20.8496C20.7676 21.1094 20.6035 21.4375 20.5078 21.7109C20.3574 22.0938 20.3301 22.5586 20.5078 23.0234C20.6855 23.4473 20.959 23.7344 21.4102 23.9258ZM24.5957 18.7031L24.5957 20.0977L25.7168 20.0977L25.7168 21.0137L24.5957 21.0137L24.5957 24.2539C24.5957 24.7871 24.8281 25.0059 25.3066 25.0059C25.416 25.0059 25.6348 25.0059 25.7031 24.9648L25.7031 25.9492C25.5938 25.9629 25.3066 25.9902 25.0469 25.9902C23.8438 25.9902 23.3789 25.5664 23.3789 24.4043L23.3789 21.0137L22.5723 21.0137L22.5723 20.0977L23.3789 20.0977L23.3789 18.7031ZM29.6816 25.9492L28.4102 25.9492L26.2637 20.0977L27.5352 20.0977L29.0527 24.7871L30.4746 20.0977L31.7871 20.0977Z" fill="black" fill-opacity="0.85"/>
 </g>
</svg>
