<?xml version="1.0" encoding="UTF-8"?>
<!--Generator: Apple Native CoreSVG 326-->
<!DOCTYPE svg
PUBLIC "-//W3C//DTD SVG 1.1//EN"
       "http://www.w3.org/Graphics/SVG/1.1/DTD/svg11.dtd">
<svg version="1.1" xmlns="http://www.w3.org/2000/svg" xmlns:xlink="http://www.w3.org/1999/xlink" viewBox="0 0 29.0938 28.3145">
 <g>
  <rect height="28.3145" opacity="0" width="29.0938" x="0" y="0"/>
  <path d="M3.88281 3.88281L3.88281 24.418C3.88281 27.002 5.16797 28.3008 7.72461 28.3008L21.0137 28.3008C23.5703 28.3008 24.8555 27.002 24.8555 24.418L24.8555 3.88281C24.8555 1.29883 23.5703 0 21.0137 0L7.72461 0C5.16797 0 3.88281 1.29883 3.88281 3.88281ZM14.3691 10.3496C12.5918 10.3496 11.1699 8.92773 11.1699 7.15039C11.1699 5.35938 12.6055 3.95117 14.3691 3.96484C16.1465 3.97852 17.5547 5.37305 17.5684 7.15039C17.5957 8.92773 16.1328 10.3496 14.3691 10.3496ZM14.3691 8.77734C15.2715 8.77734 15.9961 8.03906 15.9961 7.15039C15.9961 6.24805 15.2578 5.52344 14.3691 5.52344C13.4531 5.52344 12.7422 6.20703 12.7422 7.15039C12.7422 8.03906 13.4668 8.77734 14.3691 8.77734ZM1.06641 19.4141C0.492188 19.4141 0 18.9082 0 18.3203C0 17.7324 0.492188 17.2402 1.06641 17.2402L12.9336 17.2402L14.793 17.3223L14 16.5703L12.1406 14.8613C11.9219 14.6699 11.8125 14.3828 11.8125 14.123C11.8125 13.5488 12.2227 13.125 12.7695 13.125C13.0703 13.125 13.2891 13.2344 13.4941 13.4395L17.4316 17.5273C17.6914 17.8008 17.7871 18.0469 17.7871 18.3203C17.7871 18.5938 17.6914 18.8398 17.4316 19.1133L13.4941 23.1875C13.2891 23.4062 13.0703 23.5156 12.7695 23.5156C12.2227 23.5156 11.8125 23.0918 11.8125 22.5176C11.8125 22.2578 11.9219 21.9707 12.1406 21.7793L14 20.0703L14.793 19.3184L12.9336 19.4004Z" fill="black" fill-opacity="0.85"/>
 </g>
</svg>
