<?xml version="1.0" encoding="UTF-8"?>
<!--Generator: Apple Native CoreSVG 326-->
<!DOCTYPE svg
PUBLIC "-//W3C//DTD SVG 1.1//EN"
       "http://www.w3.org/Graphics/SVG/1.1/DTD/svg11.dtd">
<svg version="1.1" xmlns="http://www.w3.org/2000/svg" xmlns:xlink="http://www.w3.org/1999/xlink" viewBox="0 0 39.2383 34.084">
 <g>
  <rect height="34.084" opacity="0" width="39.2383" x="0" y="0"/>
  <path d="M20.3711 4.89453L20.3711 8.21334C19.6293 8.35723 18.9367 8.54215 18.293 8.76719L18.293 4.93555C18.293 3.77344 17.6504 3.10352 16.4336 3.10352L5.45508 3.10352C4.23828 3.10352 3.58203 3.77344 3.58203 4.93555L3.58203 21.0273C3.58203 22.1895 4.23828 22.8594 5.45508 22.8594L10.8613 22.8594C10.9529 23.5693 11.1141 24.2631 11.329 24.9375L5.33203 24.9375C2.80273 24.9375 1.50391 23.625 1.50391 21.0684L1.50391 4.89453C1.50391 2.35156 2.80273 1.02539 5.33203 1.02539L16.543 1.02539C19.0723 1.02539 20.3711 2.35156 20.3711 4.89453ZM13.6064 12.0418C12.9813 12.7825 12.4573 13.6083 12.0362 14.4944C11.7163 14.3011 11.3402 14.1914 10.9375 14.1914C9.74805 14.1914 8.79102 15.1484 8.79102 16.3379C8.79102 17.4777 9.67748 18.4119 10.8285 18.4653C10.716 19.1558 10.6641 19.8625 10.6641 20.5762C10.6641 20.843 10.6713 21.109 10.7053 21.3711C8.02339 21.2556 5.89258 19.0485 5.89258 16.3379C5.89258 13.5352 8.14844 11.2793 10.9375 11.2793C11.9199 11.2793 12.8351 11.5565 13.6064 12.0418ZM13.6992 7.42383C13.6992 8.95508 12.4414 10.1992 10.9238 10.1992C9.40625 10.1992 8.14844 8.95508 8.14844 7.42383C8.14844 5.90625 9.40625 4.66211 10.9238 4.66211C12.4551 4.66211 13.6992 5.90625 13.6992 7.42383ZM9.51562 7.42383C9.51562 8.20312 10.1582 8.83203 10.9238 8.83203C11.7031 8.83203 12.332 8.20312 12.332 7.42383C12.332 6.6582 11.7031 6.0293 10.9238 6.0293C10.1582 6.0293 9.51562 6.6582 9.51562 7.42383Z" fill="black" fill-opacity="0.85"/>
  <path d="M24.9512 32.2246C29.5586 32.2246 31.4863 31.623 33.291 29.9277C35.8613 27.5898 37.3789 24.1719 37.3789 20.5762C37.3789 17.6641 36.3809 14.8887 34.5898 12.8652C34.0566 12.1816 33.1406 12.0449 32.3613 12.5098C30.8438 13.6309 28.957 14.4102 24.9512 14.4102C20.959 14.4102 19.0586 13.6309 17.541 12.5098C16.7617 12.0449 15.8594 12.168 15.3125 12.8652C13.5215 14.8887 12.5234 17.6504 12.5234 20.5762C12.5234 24.1719 14.0273 27.5898 16.5977 29.9277C18.416 31.623 20.3574 32.2246 24.9512 32.2246ZM24.9512 29.8867C21.0684 29.8867 19.5781 29.5176 18.1973 28.2051C16.0645 26.2637 14.875 23.5156 14.875 20.5762C14.875 18.1152 15.7363 15.7227 17.5273 13.8223L15.791 14.3008C17.6504 15.873 20.7129 16.748 24.9512 16.748C29.2031 16.748 32.2656 15.873 34.125 14.2871L32.3613 13.8223C34.1797 15.709 35.041 18.1016 35.041 20.5762C35.041 23.5156 33.8242 26.2637 31.7051 28.2051C30.3105 29.5176 28.834 29.8867 24.9512 29.8867Z" fill="black" fill-opacity="0.85"/>
  <path d="M24.9512 12.8516C28.3691 12.8516 30.8027 12.168 30.8027 11.2656C30.8027 10.3496 28.3691 9.67969 24.9512 9.67969C21.5195 9.67969 19.0996 10.3496 19.0996 11.2656C19.0996 12.168 21.5195 12.8516 24.9512 12.8516Z" fill="black" fill-opacity="0.85"/>
 </g>
</svg>
