<?xml version="1.0" encoding="UTF-8"?>
<!--Generator: Apple Native CoreSVG 326-->
<!DOCTYPE svg
PUBLIC "-//W3C//DTD SVG 1.1//EN"
       "http://www.w3.org/Graphics/SVG/1.1/DTD/svg11.dtd">
<svg version="1.1" xmlns="http://www.w3.org/2000/svg" xmlns:xlink="http://www.w3.org/1999/xlink" viewBox="0 0 39.4023 34.084">
 <g>
  <rect height="34.084" opacity="0" width="39.4023" x="0" y="0"/>
  <path d="M20.5215 4.19727L20.5215 8.21627C17.6358 8.78472 15.4679 9.95193 14.041 11.7031C13.8899 11.8741 13.7438 12.0495 13.6137 12.238C12.866 11.8181 12.0041 11.5801 11.0879 11.5801C8.2168 11.5801 5.87891 13.918 5.87891 16.8027C5.87891 19.6245 8.11578 21.9099 10.9021 22.0024C10.9945 23.0057 11.1936 23.9898 11.4931 24.9375L4.8125 24.9375C2.74805 24.9375 1.66797 23.8438 1.66797 21.7656L1.66797 4.19727C1.66797 2.11914 2.74805 1.02539 4.8125 1.02539L17.377 1.02539C19.4414 1.02539 20.5215 2.11914 20.5215 4.19727ZM12.0553 14.8C11.4631 16.0937 11.0797 17.5036 10.9279 18.9685C9.78676 18.8886 8.90039 17.9381 8.90039 16.7754C8.90039 15.5586 9.87109 14.5742 11.0879 14.5742C11.4356 14.5742 11.7644 14.6546 12.0553 14.8ZM8.2168 6.86328C8.2168 8.43555 9.50195 9.73438 11.0879 9.73438C12.6738 9.73438 13.9727 8.43555 13.9727 6.86328C13.9727 5.27734 12.6738 3.99219 11.0879 3.99219C9.50195 3.99219 8.2168 5.27734 8.2168 6.86328ZM12.5508 6.86328C12.5508 7.65625 11.8945 8.32617 11.0879 8.32617C10.2812 8.32617 9.63867 7.65625 9.63867 6.86328C9.63867 6.05664 10.2812 5.41406 11.0879 5.41406C11.8945 5.41406 12.5508 6.05664 12.5508 6.86328Z" fill="black" fill-opacity="0.85"/>
  <path d="M25.1152 32.0605C29.6406 32.0605 31.5547 31.4863 33.3457 29.8047C35.875 27.4941 37.3789 24.1309 37.3789 20.5762C37.3789 17.6504 36.3672 14.9297 34.4258 12.7012C33.9746 12.127 33.4961 12.0996 32.9902 12.4414C31.1445 13.8496 29.1348 14.5742 25.1152 14.5742C21.0957 14.5742 19.0723 13.8496 17.2402 12.4414C16.748 12.0996 16.2559 12.127 15.791 12.7012C13.8633 14.9297 12.8516 17.6504 12.8516 20.5762C12.8516 24.1309 14.3418 27.4941 16.8711 29.8047C18.6758 31.4863 20.6035 32.0605 25.1152 32.0605Z" fill="black" fill-opacity="0.85"/>
  <path d="M25.1152 12.8516C28.5332 12.8516 30.9668 12.168 30.9668 11.2656C30.9668 10.3496 28.5332 9.67969 25.1152 9.67969C21.6836 9.67969 19.2637 10.3496 19.2637 11.2656C19.2637 12.168 21.6836 12.8516 25.1152 12.8516Z" fill="black" fill-opacity="0.85"/>
 </g>
</svg>
