<?xml version="1.0" encoding="UTF-8"?>
<!--Generator: Apple Native CoreSVG 326-->
<!DOCTYPE svg
PUBLIC "-//W3C//DTD SVG 1.1//EN"
       "http://www.w3.org/Graphics/SVG/1.1/DTD/svg11.dtd">
<svg version="1.1" xmlns="http://www.w3.org/2000/svg" xmlns:xlink="http://www.w3.org/1999/xlink" viewBox="0 0 28.4648 21.5059">
 <g>
  <rect height="21.5059" opacity="0" width="28.4648" x="0" y="0"/>
  <path d="M14.041 12.7422C21.9297 12.7422 28.1094 9.89844 28.1094 6.27539C28.1094 2.77539 21.9297 0 14.041 0C6.16602 0 0 2.77539 0 6.27539C0 9.89844 6.16602 12.7422 14.041 12.7422ZM14.041 21.4922C21.9844 21.4922 28.1094 17.9375 28.1094 13.5762L28.1094 10.3633C25.416 13.0293 20.0293 14.6152 14.041 14.6152C8.09375 14.6152 2.70703 13.043 0 10.3633L0 13.5762C0 17.9375 6.11133 21.4922 14.041 21.4922Z" fill="black" fill-opacity="0.85"/>
 </g>
</svg>
