<?xml version="1.0" encoding="UTF-8"?>
<!--Generator: Apple Native CoreSVG 326-->
<!DOCTYPE svg
PUBLIC "-//W3C//DTD SVG 1.1//EN"
       "http://www.w3.org/Graphics/SVG/1.1/DTD/svg11.dtd">
<svg version="1.1" xmlns="http://www.w3.org/2000/svg" xmlns:xlink="http://www.w3.org/1999/xlink" viewBox="0 0 32.1152 28.0957">
 <g>
  <rect height="28.0957" opacity="0" width="32.1152" x="0" y="0"/>
  <path d="M1.06641 16.8301C0.492188 16.8301 0 16.3242 0 15.7363C0 15.1484 0.492188 14.6562 1.06641 14.6562L12.4551 14.6562L14.3145 14.7383L13.5215 13.9863L11.6484 12.2773C11.4297 12.0859 11.334 11.7988 11.334 11.5391C11.334 10.9648 11.7305 10.541 12.291 10.541C12.5781 10.541 12.7969 10.6504 13.002 10.8555L16.9395 14.9434C17.1992 15.2168 17.3086 15.4629 17.3086 15.7363C17.3086 16.0098 17.1992 16.2559 16.9395 16.5293L13.002 20.6035C12.7969 20.8223 12.5781 20.9316 12.291 20.9316C11.7305 20.9316 11.334 20.5078 11.334 19.9336C11.334 19.6738 11.4297 19.3867 11.6484 19.1953L13.5215 17.4863L14.3008 16.7344L12.4551 16.8164ZM15.8867 28.0957C23.4199 28.0957 26.8789 25.416 26.8789 19.3184L26.8789 8.91406C26.8789 6.34375 26.2637 4.60742 25.293 3.37695C24.9648 2.9668 24.4453 2.93945 24.0352 3.26758C22.7363 4.41602 19.3047 5.40039 15.8867 5.40039C12.4551 5.40039 9.03711 4.41602 7.72461 3.26758C7.31445 2.93945 6.79492 2.9668 6.4668 3.37695C5.49609 4.60742 4.88086 6.34375 4.88086 8.91406L4.88086 19.3184C4.88086 25.416 8.33984 28.0957 15.8867 28.0957ZM15.8867 3.52734C19.4961 3.52734 22.2031 2.76172 22.2031 1.77734C22.2031 0.765625 19.4961 0.0136719 15.8867 0.0136719C12.2637 0.0136719 9.55664 0.765625 9.55664 1.77734C9.55664 2.76172 12.2637 3.52734 15.8867 3.52734Z" fill="black" fill-opacity="0.85"/>
 </g>
</svg>
