<?xml version="1.0" encoding="UTF-8"?>
<!--Generator: Apple Native CoreSVG 326-->
<!DOCTYPE svg
PUBLIC "-//W3C//DTD SVG 1.1//EN"
       "http://www.w3.org/Graphics/SVG/1.1/DTD/svg11.dtd">
<svg version="1.1" xmlns="http://www.w3.org/2000/svg" xmlns:xlink="http://www.w3.org/1999/xlink" viewBox="0 0 27.2754 24.7598">
 <g>
  <rect height="24.7598" opacity="0" width="27.2754" x="0" y="0"/>
  <path d="M13.4668 24.7598C18.4297 24.7598 20.5215 24.1309 22.5039 22.2852C25.293 19.7422 26.9199 16.0645 26.9199 12.1543C26.9199 8.99609 25.8672 5.98828 23.8984 3.78711C23.3652 3.10352 22.4629 2.98047 21.6973 3.45898C20.0156 4.68945 17.7598 5.52344 13.4668 5.52344C9.16016 5.52344 6.9043 4.68945 5.23633 3.45898C4.4707 2.98047 3.55469 3.10352 3.02148 3.78711C1.06641 5.98828 0 8.99609 0 12.1543C0 16.0645 1.62695 19.7422 4.41602 22.2852C6.39844 24.1309 8.49023 24.7598 13.4668 24.7598ZM13.4668 22.5586C9.11914 22.5586 7.46484 22.1211 5.90625 20.6719C3.54102 18.498 2.20117 15.4219 2.20117 12.1543C2.20117 9.55664 3.04883 7.06836 4.82617 5.05859L3.82812 5.31836C6.0293 7.01367 9.51562 7.72461 13.4668 7.72461C17.4043 7.72461 20.8906 7.01367 23.0918 5.31836L22.0938 5.05859C23.8711 7.06836 24.7188 9.55664 24.7188 12.1543C24.7188 15.4219 23.3789 18.498 21.0137 20.6719C19.4688 22.1211 17.8008 22.5586 13.4668 22.5586Z" fill="black" fill-opacity="0.85"/>
  <path d="M13.4668 3.66406C17.2676 3.66406 19.9199 2.89844 19.9199 1.91406C19.9199 0.916016 17.2676 0.177734 13.4668 0.177734C9.65234 0.177734 7 0.916016 7 1.91406C7 2.89844 9.65234 3.66406 13.4668 3.66406Z" fill="black" fill-opacity="0.85"/>
 </g>
</svg>
