<?xml version="1.0" encoding="UTF-8"?>
<!--Generator: Apple Native CoreSVG 326-->
<!DOCTYPE svg
PUBLIC "-//W3C//DTD SVG 1.1//EN"
       "http://www.w3.org/Graphics/SVG/1.1/DTD/svg11.dtd">
<svg version="1.1" xmlns="http://www.w3.org/2000/svg" xmlns:xlink="http://www.w3.org/1999/xlink" viewBox="0 0 49.6836 25.5266">
 <g>
  <rect height="25.5266" opacity="0" width="49.6836" x="0" y="0"/>
  <path d="M37.0371 6.57678C37.3242 7.08264 38.0078 7.26038 38.5273 6.95959L47.0723 2.03772C47.5918 1.75061 47.7832 1.06702 47.4688 0.533813C47.1816 0.0279532 46.4844-0.149781 45.9785 0.137328L37.4199 5.0592C36.9141 5.34631 36.7227 6.04358 37.0371 6.57678ZM37.2695 12.7565C37.2695 13.358 37.7617 13.8502 38.3633 13.8502L48.2207 13.8502C48.8223 13.8502 49.3281 13.358 49.3281 12.7565C49.3281 12.1549 48.8223 11.649 48.2207 11.649L38.3633 11.649C37.7617 11.649 37.2695 12.1549 37.2695 12.7565ZM37.0371 18.9362C36.7227 19.4694 36.9141 20.1393 37.4199 20.4537L45.9785 25.3756C46.4844 25.6764 47.1816 25.485 47.4688 24.9791C47.7832 24.4459 47.5918 23.776 47.0723 23.4615L38.5273 18.5397C38.0078 18.2389 37.3242 18.4303 37.0371 18.9362Z" fill="black" fill-opacity="0.85"/>
  <path d="M1.09375 17.1178L13.2207 17.1178C14.752 17.1178 16.4609 17.3639 18.1973 17.8698C21.8066 18.9088 25.2109 21.069 28.4785 24.4186C30.4199 26.5104 33.4688 25.444 33.4688 22.5592L33.4688 2.95373C33.4688 0.0689688 30.4199-0.997437 28.4785 1.09436C23.6797 6.07092 18.1016 8.39514 13.2207 8.39514L1.09375 8.39514ZM1.09375 18.7311C1.70898 18.7311 2.20117 18.2252 2.20117 17.6237L2.20117 7.86194C2.20117 7.26038 1.70898 6.76819 1.09375 6.76819C0.492188 6.76819 0 7.26038 0 7.86194L0 17.6237C0 18.2252 0.492188 18.7311 1.09375 18.7311ZM3.81445 19.2506C3.81445 21.4655 5.63281 23.2701 7.84766 23.2701L15.5996 23.2701C17.8145 23.2701 19.6328 21.4655 19.6328 19.2506C19.6328 17.0358 17.8145 15.2174 15.5996 15.2174L7.84766 15.2174C5.63281 15.2174 3.81445 17.0358 3.81445 19.2506ZM6.01562 19.2506C6.01562 18.2526 6.84961 17.4186 7.84766 17.4186L15.5996 17.4186C16.5977 17.4186 17.4316 18.2526 17.4316 19.2506C17.4316 20.2487 16.5977 21.0553 15.5996 21.0553L7.84766 21.0553C6.84961 21.0553 6.01562 20.2487 6.01562 19.2506Z" fill="black" fill-opacity="0.85"/>
 </g>
</svg>
