<?xml version="1.0" encoding="UTF-8"?>
<!--Generator: Apple Native CoreSVG 326-->
<!DOCTYPE svg
PUBLIC "-//W3C//DTD SVG 1.1//EN"
       "http://www.w3.org/Graphics/SVG/1.1/DTD/svg11.dtd">
<svg version="1.1" xmlns="http://www.w3.org/2000/svg" xmlns:xlink="http://www.w3.org/1999/xlink" viewBox="0 0 33.8242 25.5254">
 <g>
  <rect height="25.5254" opacity="0" width="33.8242" x="0" y="0"/>
  <path d="M1.09375 17.1172L13.2207 17.1172C14.752 17.1172 16.4609 17.3633 18.1973 17.8692C21.8066 18.9082 25.2109 21.0684 28.4785 24.418C30.4199 26.5098 33.4688 25.4434 33.4688 22.5586L33.4688 2.95314C33.4688 0.0683725 30.4199-0.998034 28.4785 1.09376C23.6797 6.07033 18.1016 8.39454 13.2207 8.39454L1.09375 8.39454ZM1.09375 18.7305C1.70898 18.7305 2.20117 18.2246 2.20117 17.6231L2.20117 7.86134C2.20117 7.25978 1.70898 6.76759 1.09375 6.76759C0.492188 6.76759 0 7.25978 0 7.86134L0 17.6231C0 18.2246 0.492188 18.7305 1.09375 18.7305ZM3.81445 19.25C3.81445 21.4649 5.63281 23.2695 7.84766 23.2695L15.5996 23.2695C17.8145 23.2695 19.6328 21.4649 19.6328 19.25C19.6328 17.0352 17.8145 15.2168 15.5996 15.2168L7.84766 15.2168C5.63281 15.2168 3.81445 17.0352 3.81445 19.25ZM6.01562 19.25C6.01562 18.252 6.84961 17.418 7.84766 17.418L15.5996 17.418C16.5977 17.418 17.4316 18.252 17.4316 19.25C17.4316 20.2481 16.5977 21.0547 15.5996 21.0547L7.84766 21.0547C6.84961 21.0547 6.01562 20.2481 6.01562 19.25Z" fill="black" fill-opacity="0.85"/>
 </g>
</svg>
