<?xml version="1.0" encoding="UTF-8"?>
<!--Generator: Apple Native CoreSVG 326-->
<!DOCTYPE svg
PUBLIC "-//W3C//DTD SVG 1.1//EN"
       "http://www.w3.org/Graphics/SVG/1.1/DTD/svg11.dtd">
<svg version="1.1" xmlns="http://www.w3.org/2000/svg" xmlns:xlink="http://www.w3.org/1999/xlink" viewBox="0 0 16.3789 25.1699">
 <g>
  <rect height="25.1699" opacity="0" width="16.3789" x="0" y="0"/>
  <path d="M2.22852 25.1426L13.7949 25.1426C15.1758 25.1426 16.0234 24.3633 16.0234 22.9004L16.0234 22.627C16.0234 19.332 12.5371 15.832 10.623 13.9316C9.69336 13.002 9.76172 12.0449 10.623 11.1836C12.5371 9.29688 16.0234 5.81055 16.0234 2.48828L16.0234 2.25586C16.0234 0.792969 15.1758 0 13.7949 0L2.22852 0C0.847656 0 0 0.792969 0 2.25586L0 2.48828C0 5.81055 3.5 9.29688 5.40039 11.1836C6.27539 12.0449 6.34375 13.002 5.40039 13.9316C3.5 15.832 0 19.332 0 22.627L0 22.9004C0 24.3633 0.847656 25.1426 2.22852 25.1426ZM3.28125 23.2832C2.69336 23.2832 2.55664 22.5996 2.95312 22.2305L7.31445 18.0742C7.47852 17.9238 7.54688 17.8555 7.54688 17.6367L7.54688 11.5801C7.54688 10.9512 7.42383 10.6367 6.95898 10.2402C6.04297 9.46094 4.75781 8.33984 3.91016 7.45117C3.55469 7.0957 3.74609 6.6582 4.16992 6.6582L11.8535 6.6582C12.2773 6.6582 12.4688 7.0957 12.1133 7.45117C11.2793 8.33984 9.99414 9.46094 9.06445 10.2402C8.59961 10.6367 8.49023 10.9512 8.49023 11.5801L8.49023 17.6367C8.49023 17.8555 8.54492 17.9238 8.70898 18.0742L13.0703 22.2305C13.4668 22.5996 13.3301 23.2832 12.7422 23.2832Z" fill="#5856d6"/>
  <path d="M3.28125 23.2832C2.69336 23.2832 2.55664 22.5996 2.95312 22.2305L7.31445 18.0742C7.47852 17.9238 7.54688 17.8555 7.54688 17.6367L7.54688 11.5801C7.54688 10.9512 7.42383 10.6367 6.95898 10.2402C6.04297 9.46094 4.75781 8.33984 3.91016 7.45117C3.55469 7.0957 3.74609 6.6582 4.16992 6.6582L11.8535 6.6582C12.2773 6.6582 12.4688 7.0957 12.1133 7.45117C11.2793 8.33984 9.99414 9.46094 9.06445 10.2402C8.59961 10.6367 8.49023 10.9512 8.49023 11.5801L8.49023 17.6367C8.49023 17.8555 8.54492 17.9238 8.70898 18.0742L13.0703 22.2305C13.4668 22.5996 13.3301 23.2832 12.7422 23.2832Z" fill="white"/>
 </g>
</svg>
