<?xml version="1.0" encoding="UTF-8"?>
<!--Generator: Apple Native CoreSVG 326-->
<!DOCTYPE svg
PUBLIC "-//W3C//DTD SVG 1.1//EN"
       "http://www.w3.org/Graphics/SVG/1.1/DTD/svg11.dtd">
<svg version="1.1" xmlns="http://www.w3.org/2000/svg" xmlns:xlink="http://www.w3.org/1999/xlink" viewBox="0 0 16.3789 25.1699">
 <g>
  <rect height="25.1699" opacity="0" width="16.3789" x="0" y="0"/>
  <path d="M2.22852 25.1426L13.7949 25.1426C15.1758 25.1426 16.0234 24.3633 16.0234 22.9004L16.0234 22.627C16.0234 19.332 12.5371 15.832 10.623 13.9316C9.76172 13.0703 9.69336 12.1133 10.623 11.1836C12.5371 9.29688 16.0234 5.81055 16.0234 2.48828L16.0234 2.25586C16.0234 0.792969 15.1758 0 13.7949 0L2.22852 0C0.847656 0 0 0.792969 0 2.25586L0 2.48828C0 5.81055 3.5 9.29688 5.40039 11.1836C6.34375 12.1133 6.27539 13.0703 5.40039 13.9316C3.5 15.832 0 19.332 0 22.627L0 22.9004C0 24.3633 0.847656 25.1426 2.22852 25.1426ZM8.95508 10.4453C8.27148 11.0059 7.75195 11.0059 7.06836 10.4453C6.04297 9.57031 3.13086 6.57617 2.24219 5.00391C2.00977 4.56641 2.13281 4.22461 2.55664 4.22461L13.4668 4.22461C13.8906 4.22461 14.0273 4.56641 13.7812 5.00391C12.8926 6.57617 9.99414 9.57031 8.95508 10.4453Z" fill="#5856d6"/>
  <path d="M8.95508 10.4453C8.27148 11.0059 7.75195 11.0059 7.06836 10.4453C6.04297 9.57031 3.13086 6.57617 2.24219 5.00391C2.00977 4.56641 2.13281 4.22461 2.55664 4.22461L13.4668 4.22461C13.8906 4.22461 14.0273 4.56641 13.7812 5.00391C12.8926 6.57617 9.99414 9.57031 8.95508 10.4453Z" fill="white"/>
 </g>
</svg>
