<?xml version="1.0" encoding="UTF-8"?>
<!--Generator: Apple Native CoreSVG 326-->
<!DOCTYPE svg
PUBLIC "-//W3C//DTD SVG 1.1//EN"
       "http://www.w3.org/Graphics/SVG/1.1/DTD/svg11.dtd">
<svg version="1.1" xmlns="http://www.w3.org/2000/svg" xmlns:xlink="http://www.w3.org/1999/xlink" viewBox="0 0 60.0094 27.5488">
 <g>
  <rect height="27.5488" opacity="0" width="60.0094" x="0" y="0"/>
  <path d="M13.0994 22.75C13.0994 23.9035 13.4069 24.899 13.9641 25.6758L7.48027 25.6758C5.57988 25.6758 4.48613 24.623 4.48613 22.75L4.48613 18.3613L13.0994 18.3613Z" fill="black" fill-opacity="0.85"/>
  <path d="M18.1002 8.03906L11.5955 13.1523C11.5094 13.2204 11.4288 13.2904 11.3548 13.3624C11.3297 13.3844 11.3066 13.407 11.2869 13.4307C11.2336 13.4804 11.1858 13.5319 11.1429 13.5847C11.1178 13.6101 11.0957 13.6364 11.0766 13.6634C11.0313 13.7156 10.9909 13.7691 10.9557 13.8239C10.9359 13.8473 10.9195 13.8714 10.9048 13.896C10.8524 13.9734 10.8061 14.0521 10.7645 14.1317C10.7633 14.1339 10.7622 14.1361 10.7614 14.1384C10.7207 14.216 10.6848 14.2946 10.6544 14.3739C10.6423 14.4007 10.632 14.4278 10.6248 14.4553C10.6023 14.5103 10.5843 14.5659 10.5704 14.622C10.5593 14.6526 10.5511 14.6836 10.5457 14.7147C10.5303 14.7691 10.5187 14.8238 10.5114 14.8787C10.5035 14.9082 10.4988 14.9378 10.4959 14.9675C10.4849 15.0378 10.4779 15.1081 10.475 15.1785C10.4716 15.2074 10.4703 15.2364 10.4717 15.2652C10.4684 15.3286 10.469 15.3918 10.4727 15.4548C10.4728 15.4923 10.4753 15.5297 10.4812 15.5667C10.4829 15.6106 10.4877 15.6541 10.495 15.6973C10.4982 15.7393 10.5047 15.7808 10.5144 15.8217C10.5198 15.859 10.5272 15.896 10.5371 15.9325C10.5441 15.9781 10.5551 16.0229 10.5687 16.067C10.5747 16.0902 10.5812 16.1133 10.5897 16.1359C10.6222 16.2564 10.6652 16.3741 10.7172 16.4883L2.99589 16.4883C1.83378 16.4883 1.51933 15.1758 2.28496 14.6289L11.076 8.49023C11.5135 8.18945 12.0193 8.03906 12.6072 8.03906Z" fill="black" fill-opacity="0.85"/>
  <path d="M55.1678 22.75C55.1678 24.623 54.0603 25.6758 52.1736 25.6758L45.6928 25.6758C46.2491 24.899 46.5545 23.9035 46.5545 22.75L46.5545 18.3613L55.1678 18.3613Z" fill="black" fill-opacity="0.85"/>
  <path d="M48.5643 8.49023L57.3689 14.6289C58.1346 15.1758 57.8201 16.4883 56.658 16.4883L48.9356 16.4883C48.9906 16.3673 49.0356 16.2424 49.0695 16.1146C49.0747 16.1008 49.0787 16.0867 49.0824 16.0726C49.0965 16.0267 49.1079 15.9802 49.1151 15.9329C49.1246 15.8983 49.1316 15.8633 49.1368 15.8279C49.1467 15.7859 49.1534 15.7434 49.1567 15.7005C49.1638 15.6587 49.1685 15.6166 49.1702 15.5743C49.1763 15.5362 49.1789 15.4977 49.179 15.4591C49.1825 15.4012 49.1832 15.343 49.1801 15.2848C49.182 15.2556 49.1809 15.2264 49.1781 15.1971C49.1749 15.1228 49.1677 15.0483 49.1563 14.9741C49.1534 14.9447 49.1487 14.9153 49.1409 14.8861C49.1336 14.8312 49.1221 14.7764 49.1067 14.722C49.1013 14.6909 49.0931 14.66 49.082 14.6294C49.0683 14.5738 49.0505 14.5186 49.0281 14.464C49.0209 14.4363 49.0105 14.4089 48.9982 14.3819C48.9691 14.3058 48.9347 14.2304 48.8955 14.156C48.8937 14.1507 48.891 14.1455 48.8882 14.1404C48.8468 14.0611 48.8006 13.9827 48.7483 13.9057C48.7338 13.8816 48.7176 13.8578 48.6981 13.8348C48.6628 13.78 48.6222 13.7264 48.5767 13.6742C48.5577 13.6473 48.5358 13.6213 48.5107 13.5961C48.4678 13.5435 48.42 13.4922 48.3667 13.4427C48.3471 13.4191 48.324 13.3967 48.2989 13.3748C48.225 13.3032 48.1444 13.2337 48.0584 13.166L48.041 13.1523L41.5379 8.03906L47.0467 8.03906C47.6209 8.03906 48.1268 8.18945 48.5643 8.49023Z" fill="black" fill-opacity="0.85"/>
  <path d="M44.2029 17.6367C44.3663 17.7656 44.5307 17.8762 44.6951 17.9649L44.6951 22.75C44.6951 24.623 43.6014 25.6758 41.701 25.6758L17.9393 25.6758C16.0662 25.6758 14.9588 24.623 14.9588 22.75L14.9588 17.962C15.1232 17.8741 15.2875 17.7645 15.451 17.6367L29.8475 6.38477ZM27.2088 16.5156C26.6619 16.5156 26.2654 16.8984 26.2654 17.459L26.2654 23.543L33.3885 23.543L33.3885 17.459C33.3885 16.8984 33.0193 16.5156 32.4451 16.5156Z" fill="black" fill-opacity="0.85"/>
  <path d="M14.3025 16.1738L29.2185 4.48438C29.615 4.16992 30.0525 4.16992 30.449 4.48438L45.3514 16.1738C46.6639 17.2129 48.0037 15.4766 46.91 14.6289L31.5428 2.55664C30.3943 1.64062 29.2459 1.64062 28.0975 2.55664L12.7439 14.6289C11.6502 15.4766 12.99 17.2129 14.3025 16.1738Z" fill="black" fill-opacity="0.85"/>
 </g>
</svg>
