<?xml version="1.0" encoding="UTF-8"?>
<!--Generator: Apple Native CoreSVG 326-->
<!DOCTYPE svg
PUBLIC "-//W3C//DTD SVG 1.1//EN"
       "http://www.w3.org/Graphics/SVG/1.1/DTD/svg11.dtd">
<svg version="1.1" xmlns="http://www.w3.org/2000/svg" xmlns:xlink="http://www.w3.org/1999/xlink" viewBox="0 0 28.2461 27.9043">
 <g>
  <rect height="27.9043" opacity="0" width="28.2461" x="0" y="0"/>
  <path d="M13.9453 27.8906C21.6426 27.8906 27.8906 21.6426 27.8906 13.9453C27.8906 6.24805 21.6426 0 13.9453 0C6.24805 0 0 6.24805 0 13.9453C0 21.6426 6.24805 27.8906 13.9453 27.8906ZM13.9453 25.5664C7.51953 25.5664 2.32422 20.3711 2.32422 13.9453C2.32422 7.51953 7.51953 2.32422 13.9453 2.32422C20.3711 2.32422 25.5664 7.51953 25.5664 13.9453C25.5664 20.3711 20.3711 25.5664 13.9453 25.5664Z" fill="black" fill-opacity="0.85"/>
  <path d="M7.7793 14.2598L13.6992 9.61133C13.7539 9.55664 13.8633 9.5293 13.918 9.5293C13.9863 9.5293 14.082 9.55664 14.1504 9.61133L20.0703 14.2598C20.6172 14.6973 21.1914 13.9727 20.7266 13.6035L14.6426 8.79102C14.4375 8.64062 14.1641 8.53125 13.918 8.53125C13.6719 8.53125 13.4258 8.62695 13.207 8.79102L7.10938 13.6035C6.64453 13.9727 7.21875 14.6973 7.7793 14.2598ZM9.21484 18.0059L18.6211 18.0059C19.3594 18.0059 19.7969 17.582 19.7969 16.8301L19.7969 14.9707C19.6191 14.8887 19.4551 14.7793 19.2363 14.6289L13.918 10.4453L8.58594 14.6289C8.38086 14.7793 8.23047 14.8887 8.03906 14.9707L8.03906 16.8301C8.03906 17.582 8.47656 18.0059 9.21484 18.0059ZM12.5098 17.1035L12.4961 14.752C12.4961 14.5195 12.6602 14.3691 12.8926 14.3691L14.9707 14.3691C15.1895 14.3691 15.3398 14.5195 15.3398 14.752L15.3398 17.1035ZM6.61719 12.9746L9.10547 11.0332L7.875 11.0332C7.65625 11.0332 7.45117 11.0742 7.28711 11.1973L3.78711 13.6172C3.5 13.8359 3.62305 14.3418 4.07422 14.3418L6.24805 14.3418C6.07031 13.8906 6.11133 13.3574 6.61719 12.9746ZM7.23242 16.8301L7.23242 15.1074L4.64844 15.1211L4.64844 16.8301C4.64844 17.582 5.08594 18.0059 5.83789 18.0059L7.56055 18.0059C7.35547 17.6777 7.23242 17.2949 7.23242 16.8301ZM21.2188 12.9746C21.7383 13.3574 21.7793 13.8906 21.6016 14.3418L23.7754 14.3418C24.2266 14.3418 24.3496 13.8633 24.0352 13.6172L20.5488 11.1973C20.3848 11.0742 20.207 11.0332 19.9609 11.0332L18.7305 11.0332ZM20.6035 16.8301C20.6035 17.2949 20.4941 17.6777 20.2754 18.0059L21.998 18.0059C22.75 18.0059 23.1875 17.582 23.1875 16.8301L23.1875 15.1211L20.6035 15.1074Z" fill="black" fill-opacity="0.85"/>
 </g>
</svg>
