<?xml version="1.0" encoding="UTF-8"?>
<!--Generator: Apple Native CoreSVG 326-->
<!DOCTYPE svg
PUBLIC "-//W3C//DTD SVG 1.1//EN"
       "http://www.w3.org/Graphics/SVG/1.1/DTD/svg11.dtd">
<svg version="1.1" xmlns="http://www.w3.org/2000/svg" xmlns:xlink="http://www.w3.org/1999/xlink" viewBox="0 0 56.2824 23.8027">
 <g>
  <rect height="23.8027" opacity="0" width="56.2824" x="0" y="0"/>
  <path d="M16.8793 8.03906L10.7301 8.03906C10.525 8.03906 10.443 8.05273 10.2926 8.14844L3.62071 12.7422L10.8979 12.7422L10.8805 12.7559C10.0637 13.3889 10.5964 14.5175 11.4711 14.6152L4.75547 14.6152L4.75547 20.3574C4.75547 21.2188 5.20664 21.6699 6.04063 21.6699L13.1729 21.6699C13.4456 23.0453 14.4755 23.8027 16.0758 23.8027L5.6168 23.8027C3.71641 23.8027 2.60899 22.75 2.60899 20.877L2.60899 14.6152L1.13242 14.6152C-0.0296848 14.6152-0.344138 13.3027 0.407815 12.7559L9.2125 6.61719C9.65 6.31641 10.1559 6.16602 10.7301 6.16602L19.2614 6.16602ZM13.0953 14.6152L11.7185 14.6152C11.9484 14.5902 12.1937 14.493 12.4391 14.3008L13.0953 13.7812Z" fill="black" fill-opacity="0.85"/>
  <path d="M46.7145 6.61719L55.5191 12.7559C56.2848 13.3027 55.9566 14.6152 54.8082 14.6152L53.318 14.6152L53.318 20.877C53.318 22.75 52.2105 23.8027 50.3102 23.8027L39.8375 23.8027C41.4494 23.8027 42.4712 23.0453 42.7412 21.6699L49.8863 21.6699C50.7203 21.6699 51.1715 21.2188 51.1715 20.3574L51.1715 14.6152L44.4422 14.6152C45.3169 14.5175 45.8496 13.3889 45.0328 12.7559L45.0154 12.7422L52.3063 12.7422L45.6344 8.14844C45.484 8.05273 45.402 8.03906 45.1969 8.03906L39.034 8.03906L36.6518 6.16602L45.2105 6.16602C45.7711 6.16602 46.2906 6.31641 46.7145 6.61719ZM43.4742 14.3008C43.7196 14.493 43.9649 14.5902 44.1948 14.6152L42.818 14.6152L42.818 13.7812Z" fill="black" fill-opacity="0.85"/>
  <path d="M12.4391 14.3008L27.3414 2.61133C27.5191 2.47461 27.7516 2.37891 27.9566 2.37891C28.1754 2.37891 28.4078 2.47461 28.5855 2.61133L43.4742 14.3008C44.8004 15.3398 46.1266 13.6035 45.0328 12.7559L29.6793 0.683594C29.1188 0.246094 28.5582 0 27.9566 0C27.3688 0 26.7945 0.246094 26.234 0.683594L10.8805 12.7559C9.78672 13.6035 11.1129 15.3398 12.4391 14.3008ZM16.0758 23.8027L39.8375 23.8027C41.7379 23.8027 42.818 22.75 42.818 20.877L42.818 11.7988L40.6852 11.6895L40.6852 20.3574C40.6852 21.2188 40.2477 21.6699 39.4 21.6699L16.5133 21.6699C15.6656 21.6699 15.2281 21.2188 15.2281 20.3574L15.2281 11.6895L13.0953 11.7988L13.0953 20.877C13.0953 22.75 14.1891 23.8027 16.0758 23.8027ZM24.3883 22.3125L31.525 22.3125L31.525 15.5859C31.525 15.0254 31.1422 14.6426 30.5816 14.6426L25.3453 14.6426C24.7984 14.6426 24.3883 15.0254 24.3883 15.5859Z" fill="black" fill-opacity="0.85"/>
 </g>
</svg>
