<?xml version="1.0" encoding="UTF-8"?>
<!--Generator: Apple Native CoreSVG 326-->
<!DOCTYPE svg
PUBLIC "-//W3C//DTD SVG 1.1//EN"
       "http://www.w3.org/Graphics/SVG/1.1/DTD/svg11.dtd">
<svg version="1.1" xmlns="http://www.w3.org/2000/svg" xmlns:xlink="http://www.w3.org/1999/xlink" viewBox="0 0 33.5408 27.9043">
 <g>
  <rect height="27.9043" opacity="0" width="33.5408" x="0" y="0"/>
  <path d="M16.5995 27.8906C24.2968 27.8906 30.5448 21.6426 30.5448 13.9453C30.5448 6.24805 24.2968 0 16.5995 0C8.90224 0 2.65419 6.24805 2.65419 13.9453L4.97841 13.9453C4.97841 7.51953 10.1737 2.32422 16.5995 2.32422C23.0253 2.32422 28.2206 7.51953 28.2206 13.9453C28.2206 20.3711 23.0253 25.5664 16.5995 25.5664C12.7167 25.5664 9.2577 23.6523 7.19325 20.7539C6.76942 20.1934 6.12684 20.0156 5.55263 20.3574C5.00575 20.6992 4.84169 21.4648 5.30653 22.0664C7.83583 25.6074 11.9784 27.8906 16.5995 27.8906ZM0.972548 11.3066C-0.0118272 11.3066-0.257921 11.9766 0.275282 12.7422L3.33778 17.0898C3.78895 17.7188 4.4452 17.7051 4.8827 17.0898L7.93153 12.7285C8.46474 11.9766 8.20497 11.3066 7.24794 11.3066Z" fill="black" fill-opacity="0.85"/>
  <path d="M16.5311 7.66992C15.3964 7.66992 13.9882 7.98438 13.1132 9.2832C12.9218 9.57031 12.8397 9.83008 12.8397 10.1582C12.8397 10.5547 13.0995 10.8145 13.5233 10.8145C13.8788 10.8145 14.0702 10.6641 14.2206 10.3496C14.6991 9.40625 15.5878 9.02344 16.5585 9.02344C17.7616 9.02344 18.9511 9.57031 18.9511 10.7734C18.9511 11.3203 18.664 12.0176 17.8847 12.2637L19.1835 12.6055C19.9354 12.25 20.496 11.5391 20.496 10.6641C20.496 8.61328 18.5136 7.66992 16.5311 7.66992ZM11.664 12.5781C11.664 12.8379 11.8554 13.0293 12.1015 13.0293L21.0702 13.0293C21.3436 13.0293 21.535 12.8379 21.535 12.5781C21.535 12.3047 21.3436 12.1133 21.0702 12.1133L12.1015 12.1133C11.8554 12.1133 11.664 12.3047 11.664 12.5781ZM11.664 14.793C11.664 15.0527 11.8554 15.2441 12.1015 15.2441L21.0702 15.2441C21.3436 15.2441 21.535 15.0527 21.535 14.793C21.535 14.5195 21.3436 14.3281 21.0702 14.3281L12.1015 14.3281C11.8554 14.3281 11.664 14.5195 11.664 14.793ZM16.5995 20.0293C18.1991 20.0293 19.6483 19.4551 20.3593 18.2109C20.5233 17.9512 20.66 17.6094 20.66 17.3359C20.66 16.9258 20.3593 16.666 19.9354 16.666C19.58 16.666 19.3749 16.8301 19.2108 17.1582C18.746 18.2246 17.7753 18.6621 16.5995 18.6621C15.287 18.6621 14.0429 18.0195 14.0429 16.8984C14.0429 15.8867 14.6991 15.2441 15.7108 14.9844L14.1796 14.7246C13.1679 15.0801 12.4706 15.9688 12.4706 16.9805C12.4706 19.0312 14.6171 20.0293 16.5995 20.0293Z" fill="black" fill-opacity="0.85"/>
 </g>
</svg>
