<?xml version="1.0" encoding="UTF-8"?>
<!--Generator: Apple Native CoreSVG 326-->
<!DOCTYPE svg
PUBLIC "-//W3C//DTD SVG 1.1//EN"
       "http://www.w3.org/Graphics/SVG/1.1/DTD/svg11.dtd">
<svg version="1.1" xmlns="http://www.w3.org/2000/svg" xmlns:xlink="http://www.w3.org/1999/xlink" viewBox="0 0 33.291 27.3099">
 <g>
  <rect height="27.3099" opacity="0" width="33.291" x="0" y="0"/>
  <path d="M32.9355 16.3962C32.9355 7.78289 26.3184 0.714533 17.8965 0.00359537C17.459-0.0374203 17.1309 0.277033 17.1309 0.714533L17.1309 5.18524C17.1309 5.55438 17.3906 5.84149 17.7598 5.86883C22.9961 6.51141 27.0703 10.9821 27.0703 16.3962C27.0703 18.8571 26.2227 21.1266 24.7324 23.027C24.541 23.2595 24.5547 23.5602 24.7598 23.779L28.0273 27.0329C28.3281 27.3337 28.793 27.3337 29.0664 27.0055C31.4863 24.1345 32.9355 20.4294 32.9355 16.3962Z" fill="black" fill-opacity="0.85"/>
  <path d="M0 16.3962C0 20.443 1.44922 24.1481 3.86914 27.0192C4.14258 27.3473 4.59375 27.3337 4.9082 27.0329L8.17578 23.779C8.38086 23.5602 8.39453 23.2595 8.20312 23.027C6.69922 21.1266 5.86523 18.8571 5.86523 16.3962C5.86523 10.9821 9.93945 6.51141 15.1758 5.86883C15.5449 5.84149 15.8047 5.55438 15.8047 5.18524L15.8047 0.714533C15.8047 0.277033 15.4766-0.0374203 15.0391 0.00359537C6.61719 0.714533 0 7.78289 0 16.3962Z" fill="black" fill-opacity="0.85"/>
  <path d="M16.3789 10.2985C15.2578 10.2985 13.8359 10.613 12.9609 11.9118C12.7695 12.1989 12.6875 12.4587 12.6875 12.7868C12.6875 13.1833 12.9473 13.4567 13.3848 13.4567C13.7266 13.4567 13.918 13.2927 14.082 12.9919C14.5469 12.0485 15.4355 11.652 16.4199 11.652C17.6094 11.652 18.7988 12.2126 18.7988 13.402C18.7988 13.9489 18.5117 14.6598 17.7324 14.8923L19.0312 15.2341C19.7969 14.8786 20.3574 14.1677 20.3574 13.3063C20.3574 11.2555 18.3613 10.2985 16.3789 10.2985ZM11.5117 15.2067C11.5117 15.4802 11.7031 15.6579 11.9629 15.6579L20.9316 15.6579C21.1914 15.6579 21.3828 15.4802 21.3828 15.2067C21.3828 14.9333 21.1914 14.7419 20.9316 14.7419L11.9629 14.7419C11.7031 14.7419 11.5117 14.9333 11.5117 15.2067ZM11.5117 17.4216C11.5117 17.6813 11.7031 17.8727 11.9629 17.8727L20.9316 17.8727C21.1914 17.8727 21.3828 17.6813 21.3828 17.4216C21.3828 17.1481 21.1914 16.9567 20.9316 16.9567L11.9629 16.9567C11.7031 16.9567 11.5117 17.1481 11.5117 17.4216ZM16.4473 22.6579C18.0469 22.6579 19.4961 22.0837 20.2207 20.8532C20.3711 20.5798 20.5078 20.238 20.5078 19.9645C20.5078 19.568 20.207 19.3083 19.7832 19.3083C19.4277 19.3083 19.2227 19.4723 19.0723 19.8005C18.5938 20.8532 17.623 21.3044 16.4473 21.3044C15.1348 21.3044 13.8906 20.6481 13.8906 19.527C13.8906 18.5153 14.5469 17.8864 15.5586 17.613L14.0273 17.3532C13.0156 17.7087 12.3184 18.611 12.3184 19.6091C12.3184 21.6598 14.4648 22.6579 16.4473 22.6579Z" fill="black" fill-opacity="0.85"/>
 </g>
</svg>
