<?xml version="1.0" encoding="UTF-8"?>
<!--Generator: Apple Native CoreSVG 326-->
<!DOCTYPE svg
PUBLIC "-//W3C//DTD SVG 1.1//EN"
       "http://www.w3.org/Graphics/SVG/1.1/DTD/svg11.dtd">
<svg version="1.1" xmlns="http://www.w3.org/2000/svg" xmlns:xlink="http://www.w3.org/1999/xlink" viewBox="0 0 17.7734 28.5332">
 <g>
  <rect height="28.5332" opacity="0" width="17.7734" x="0" y="0"/>
  <path d="M0 27.4805C0 28.0547 0.451172 28.5195 1.05273 28.5195C9.25586 28.5195 15.6816 22.9414 15.6816 14.2598C15.6816 10.4316 12.5234 7.27344 8.70898 7.27344C7.31445 7.27344 6.01562 7.73828 4.99023 8.51758C6.98633 4.4707 11.252 2.06445 16.3652 2.06445C16.9668 2.06445 17.418 1.59961 17.418 1.02539C17.418 0.451172 16.9668 0 16.3652 0C8.16211 0 1.75 5.56445 1.75 14.2598C1.75 18.0742 4.9082 21.2324 8.70898 21.2324C10.1172 21.2324 11.4023 20.7676 12.4277 20.002C10.4316 24.0488 6.15234 26.4551 1.05273 26.4551C0.451172 26.4551 0 26.9062 0 27.4805ZM6.72656 14.2598C6.72656 13.166 7.62891 12.2773 8.70898 12.2773C9.80273 12.2773 10.6914 13.166 10.6914 14.2598C10.6914 15.3262 9.80273 16.2422 8.70898 16.2422C7.62891 16.2422 6.72656 15.3398 6.72656 14.2598Z" fill="white"/>
 </g>
</svg>
