<?xml version="1.0" encoding="UTF-8"?>
<!--Generator: Apple Native CoreSVG 326-->
<!DOCTYPE svg
PUBLIC "-//W3C//DTD SVG 1.1//EN"
       "http://www.w3.org/Graphics/SVG/1.1/DTD/svg11.dtd">
<svg version="1.1" xmlns="http://www.w3.org/2000/svg" xmlns:xlink="http://www.w3.org/1999/xlink" viewBox="0 0 34.7266 32.2793">
 <g>
  <rect height="32.2793" opacity="0" width="34.7266" x="0" y="0"/>
  <path d="M7.35112 12.1595C7.13423 12.7675 7.01367 13.4889 7.01367 14.3281C7.01367 14.5059 6.94531 14.6016 6.75391 14.6016C3.85547 14.6016 2.20117 16.7754 2.20117 19.5098C2.20117 22.2988 4.74414 24.7051 8.18945 24.7051L19.9118 24.7051L22.1156 26.9062L8.18945 26.9062C3.51367 26.9062 0 23.5293 0 19.5098C0 16.1738 1.92773 13.4121 5.01758 12.9199C5.03383 12.0098 5.2533 11.1716 5.62866 10.4391ZM30.0508 13.6445C32.7168 14.7656 34.3711 17.2539 34.3711 20.125C34.3711 23.1587 32.2704 25.7118 29.2886 26.5822L27.3937 24.6886C30.1205 24.5251 32.1699 22.5562 32.1699 20.125C32.1699 17.6504 30.5703 15.832 28.082 15.2852C27.918 15.2441 27.8496 15.1484 27.8633 14.9707C27.918 14.3281 27.959 13.5898 27.918 12.9609C27.6855 8.90039 24.582 5.3457 20.0977 5.3457C16.5566 5.3457 14.5195 7.28711 13.1934 9.65234C13.1113 9.80273 13.0156 9.84375 12.8516 9.78906C12.683 9.73397 12.5136 9.68669 12.344 9.64785L10.0429 7.34809C10.7225 7.26481 11.4242 7.31784 12.1133 7.51953C13.7539 5.12695 16.3926 3.14453 20.0977 3.14453C25.6895 3.14453 30.0781 7.54688 30.0508 13.6445Z" fill="#55bef0"/>
  <path d="M27.8359 30.3789C28.2598 30.7891 28.916 30.7891 29.3262 30.3789C29.7363 29.9688 29.75 29.2988 29.3262 28.8887L6.52148 6.08398C6.09766 5.66016 5.41406 5.6875 5.01758 6.08398C4.62109 6.48047 4.63477 7.19141 5.01758 7.57422Z" fill="#55bef0"/>
 </g>
</svg>
