<?xml version="1.0" encoding="UTF-8"?>
<!--Generator: Apple Native CoreSVG 326-->
<!DOCTYPE svg
PUBLIC "-//W3C//DTD SVG 1.1//EN"
       "http://www.w3.org/Graphics/SVG/1.1/DTD/svg11.dtd">
<svg version="1.1" xmlns="http://www.w3.org/2000/svg" xmlns:xlink="http://www.w3.org/1999/xlink" viewBox="0 0 31.9651 23.6934">
 <g>
  <rect height="23.6934" opacity="0" width="31.9651" x="0" y="0"/>
  <path d="M13.3849 2.20117L30.5021 2.20117C31.1173 2.20117 31.6095 1.72266 31.6095 1.10742C31.6095 0.492188 31.1173 0 30.5021 0L13.3849 0C12.756 0 12.2775 0.492188 12.2775 1.10742C12.2775 1.72266 12.756 2.20117 13.3849 2.20117ZM13.3849 9.36523L30.5021 9.36523C31.1173 9.36523 31.6095 8.87305 31.6095 8.25781C31.6095 7.64258 31.1173 7.16406 30.5021 7.16406L13.3849 7.16406C12.756 7.16406 12.2775 7.64258 12.2775 8.25781C12.2775 8.87305 12.756 9.36523 13.3849 9.36523ZM13.3849 16.5156L30.5021 16.5156C31.1173 16.5156 31.6095 16.0371 31.6095 15.4219C31.6095 14.793 31.1173 14.3145 30.5021 14.3145L13.3849 14.3145C12.756 14.3145 12.2775 14.793 12.2775 15.4219C12.2775 16.0371 12.756 16.5156 13.3849 16.5156ZM13.3849 23.666L23.5158 23.666C24.131 23.666 24.6368 23.1875 24.6368 22.5723C24.6368 21.957 24.131 21.4648 23.5158 21.4648L13.3849 21.4648C12.756 21.4648 12.2775 21.957 12.2775 22.5723C12.2775 23.1875 12.756 23.666 13.3849 23.666Z" fill="black" fill-opacity="0.5"/>
  <path d="M2.14661 15.9961L6.672 12.9746C7.47864 12.4277 7.4513 11.2656 6.672 10.7188L2.14661 7.64258C1.09388 6.93164-0.0135466 7.32812 0.000125315 8.58594L0.000125315 15.0664C-0.0135466 16.2832 1.13489 16.6523 2.14661 15.9961Z" fill="black" fill-opacity="0.85"/>
 </g>
</svg>
