<?xml version="1.0" encoding="UTF-8"?>
<!--Generator: Apple Native CoreSVG 326-->
<!DOCTYPE svg
PUBLIC "-//W3C//DTD SVG 1.1//EN"
       "http://www.w3.org/Graphics/SVG/1.1/DTD/svg11.dtd">
<svg version="1.1" xmlns="http://www.w3.org/2000/svg" xmlns:xlink="http://www.w3.org/1999/xlink" viewBox="0 0 17.1992 24.9785">
 <g>
  <rect height="24.9785" opacity="0" width="17.1992" x="0" y="0"/>
  <path d="M12.0039 24.9512C12.7148 24.9512 13.2344 24.459 13.2344 23.7617C13.2344 23.3242 13.0293 22.9961 12.6738 22.6543L3.86914 14.5059L5.63281 14.5059C9.89844 14.5059 13.3027 12.4277 13.8496 8.14844L15.9414 8.14844C16.4609 8.14844 16.8438 7.76562 16.8438 7.25977C16.8438 6.74023 16.4609 6.35742 15.9414 6.35742L13.877 6.35742C13.7129 4.42969 12.9062 2.84375 11.5254 1.77734L15.9414 1.79102C16.4609 1.79102 16.8438 1.4082 16.8438 0.902344C16.8438 0.382812 16.4609 0.0136719 15.9414 0.0136719L0.970703 0C0.382812 0 0.0136719 0.423828 0.0136719 1.10742L0.0136719 1.29883C0.0136719 1.95508 0.382812 2.36523 0.970703 2.36523L5.60547 2.36523C8.49023 2.36523 10.7051 3.5957 11.0605 6.35742L0.902344 6.35742C0.382812 6.35742 0 6.74023 0 7.25977C0 7.76562 0.382812 8.14844 0.902344 8.14844L11.0742 8.14844C10.7188 10.9922 8.38086 12.0996 5.50977 12.0996L1.57227 12.0996C0.779297 12.0996 0.0820312 12.5918 0.0820312 13.4805L0.0820312 13.5488C0.0820312 14.2188 0.396484 14.6426 0.902344 15.1211L10.7324 24.2949C11.1289 24.6777 11.4707 24.9512 12.0039 24.9512Z" fill="black" fill-opacity="0.85"/>
 </g>
</svg>
