<?xml version="1.0" encoding="UTF-8"?>
<!--Generator: Apple Native CoreSVG 326-->
<!DOCTYPE svg
PUBLIC "-//W3C//DTD SVG 1.1//EN"
       "http://www.w3.org/Graphics/SVG/1.1/DTD/svg11.dtd">
<svg version="1.1" xmlns="http://www.w3.org/2000/svg" xmlns:xlink="http://www.w3.org/1999/xlink" viewBox="0 0 28.2461 27.9043">
 <g>
  <rect height="27.9043" opacity="0" width="28.2461" x="0" y="0"/>
  <path d="M13.9453 27.8906C21.6426 27.8906 27.8906 21.6289 27.8906 13.9453C27.8906 6.24805 21.6426 0 13.9453 0C6.26172 0 0 6.24805 0 13.9453C0 21.6289 6.26172 27.8906 13.9453 27.8906Z" fill="black" fill-opacity="0.85"/>
  <path d="M12.4551 15.1484L11.7305 15.1484L15.9277 19.0723C16.1328 19.2637 16.2695 19.4551 16.2695 19.7285C16.2695 20.125 15.9551 20.4531 15.5449 20.4531C15.1758 20.4531 14.9844 20.2754 14.752 20.0566L9.92578 15.5449C9.59766 15.2578 9.43359 15.0117 9.43359 14.6016L9.43359 14.5605C9.43359 14.0957 9.76172 13.7676 10.3086 13.7676L12.2637 13.7676C13.6992 13.7676 14.793 13.248 14.9844 11.8262L9.89844 11.8262C9.625 11.8262 9.40625 11.6211 9.40625 11.3613C9.40625 11.1016 9.625 10.8965 9.89844 10.8965L14.9844 10.8965C14.7793 9.51562 13.6582 8.94141 12.2637 8.94141L9.9668 8.94141C9.59766 8.94141 9.39258 8.69531 9.39258 8.3125L9.39258 8.2168C9.39258 7.82031 9.59766 7.57422 9.9668 7.57422L17.7734 7.57422C18.0605 7.57422 18.252 7.7793 18.252 8.05273C18.252 8.29883 18.0605 8.51758 17.7734 8.51758L15.5176 8.51758C16.2422 9.10547 16.625 9.9668 16.707 10.8965L17.7734 10.8965C18.0605 10.8965 18.252 11.1016 18.252 11.3613C18.252 11.6211 18.0605 11.8262 17.7734 11.8262L16.6797 11.8262C16.3789 13.9863 14.6836 15.1484 12.4551 15.1484Z" fill="white"/>
 </g>
</svg>
