<?xml version="1.0" encoding="UTF-8"?>
<!--Generator: Apple Native CoreSVG 326-->
<!DOCTYPE svg
PUBLIC "-//W3C//DTD SVG 1.1//EN"
       "http://www.w3.org/Graphics/SVG/1.1/DTD/svg11.dtd">
<svg version="1.1" xmlns="http://www.w3.org/2000/svg" xmlns:xlink="http://www.w3.org/1999/xlink" viewBox="0 0 35.998 16.3105">
 <g>
  <rect height="16.3105" opacity="0" width="35.998" x="0" y="0"/>
  <path d="M0 8.14844C0 13.0977 3.10352 16.2969 7.65625 16.2969C10.1309 16.2969 12.1816 15.2441 14.4375 13.0703L17.8281 9.81641L21.2051 13.0703C23.4746 15.2441 25.5254 16.2969 27.9863 16.2969C32.5391 16.2969 35.6426 13.0977 35.6426 8.14844C35.6426 3.19922 32.5391 0 27.9863 0C25.5254 0 23.4746 1.05273 21.2051 3.22656L17.8281 6.48047L14.4375 3.22656C12.1816 1.05273 10.1309 0 7.65625 0C3.10352 0 0 3.19922 0 8.14844ZM2.47461 8.14844C2.47461 4.68945 4.59375 2.47461 7.65625 2.47461C9.40625 2.47461 10.9375 3.32227 12.7012 4.97656L16.0918 8.14844L12.6875 11.3203C10.9238 12.9609 9.40625 13.8223 7.65625 13.8223C4.59375 13.8223 2.47461 11.6074 2.47461 8.14844ZM19.5508 8.14844L22.9414 4.97656C24.7051 3.32227 26.2363 2.47461 27.9863 2.47461C31.0625 2.47461 33.168 4.68945 33.168 8.14844C33.168 11.6074 31.0625 13.8223 27.9863 13.8223C26.2363 13.8223 24.7188 12.9609 22.9551 11.3203Z" fill="black" fill-opacity="0.85"/>
 </g>
</svg>
