<?xml version="1.0" encoding="UTF-8"?>
<!--Generator: Apple Native CoreSVG 326-->
<!DOCTYPE svg
PUBLIC "-//W3C//DTD SVG 1.1//EN"
       "http://www.w3.org/Graphics/SVG/1.1/DTD/svg11.dtd">
<svg version="1.1" xmlns="http://www.w3.org/2000/svg" xmlns:xlink="http://www.w3.org/1999/xlink" viewBox="0 0 25.5254 25.1699">
 <g>
  <rect height="25.1699" opacity="0" width="25.5254" x="0" y="0"/>
  <path d="M4.29297 25.1699L20.877 25.1699C23.748 25.1699 25.1699 23.7617 25.1699 20.9453L25.1699 4.23828C25.1699 1.42188 23.748 0 20.877 0L4.29297 0C1.43555 0 0 1.42188 0 4.23828L0 20.9453C0 23.7617 1.43555 25.1699 4.29297 25.1699ZM4.32031 22.9688C2.95312 22.9688 2.20117 22.2441 2.20117 20.8223L2.20117 4.36133C2.20117 2.93945 2.95312 2.20117 4.32031 2.20117L20.8496 2.20117C22.2031 2.20117 22.9688 2.93945 22.9688 4.36133L22.9688 20.8223C22.9688 22.2441 22.2031 22.9688 20.8496 22.9688Z" fill="#007aff"/>
  <path d="M10.2129 20.2344L15.7773 20.2344C16.3379 20.2344 16.7754 19.8242 16.7754 19.2637C16.7754 18.7305 16.3379 18.3066 15.7773 18.3066L14.082 18.3066L14.082 11.3477C14.082 10.6094 13.7129 10.1172 13.0156 10.1172L10.4453 10.1172C9.88477 10.1172 9.44727 10.541 9.44727 11.0742C9.44727 11.6348 9.88477 12.0449 10.4453 12.0449L11.9082 12.0449L11.9082 18.3066L10.2129 18.3066C9.65234 18.3066 9.21484 18.7305 9.21484 19.2637C9.21484 19.8242 9.65234 20.2344 10.2129 20.2344ZM12.4824 7.84766C13.4805 7.84766 14.2598 7.05469 14.2598 6.05664C14.2598 5.05859 13.4805 4.26562 12.4824 4.26562C11.498 4.26562 10.7051 5.05859 10.7051 6.05664C10.7051 7.05469 11.498 7.84766 12.4824 7.84766Z" fill="#007aff"/>
 </g>
</svg>
