<?xml version="1.0" encoding="UTF-8"?>
<!--Generator: Apple Native CoreSVG 326-->
<!DOCTYPE svg
PUBLIC "-//W3C//DTD SVG 1.1//EN"
       "http://www.w3.org/Graphics/SVG/1.1/DTD/svg11.dtd">
<svg version="1.1" xmlns="http://www.w3.org/2000/svg" xmlns:xlink="http://www.w3.org/1999/xlink" viewBox="0 0 25.5254 25.1699">
 <g>
  <rect height="25.1699" opacity="0" width="25.5254" x="0" y="0"/>
  <path d="M4.29297 25.1699L20.877 25.1699C23.748 25.1699 25.1699 23.7617 25.1699 20.9453L25.1699 4.23828C25.1699 1.42188 23.748 0 20.877 0L4.29297 0C1.43555 0 0 1.42188 0 4.23828L0 20.9453C0 23.7617 1.43555 25.1699 4.29297 25.1699Z" fill="#007aff"/>
  <path d="M10.1309 20.4941C9.54297 20.4941 9.0918 20.0703 9.0918 19.4824C9.0918 18.9355 9.54297 18.4844 10.1309 18.4844L11.8672 18.4844L11.8672 12.0586L10.3633 12.0586C9.78906 12.0586 9.33789 11.6348 9.33789 11.0469C9.33789 10.5 9.78906 10.0488 10.3633 10.0488L13.0156 10.0488C13.7402 10.0488 14.123 10.5684 14.123 11.334L14.123 18.4844L15.8594 18.4844C16.4473 18.4844 16.8984 18.9355 16.8984 19.4824C16.8984 20.0703 16.4473 20.4941 15.8594 20.4941ZM12.4688 7.72461C11.4434 7.72461 10.623 6.9043 10.623 5.86523C10.623 4.82617 11.4434 4.00586 12.4688 4.00586C13.4941 4.00586 14.3008 4.82617 14.3008 5.86523C14.3008 6.9043 13.4941 7.72461 12.4688 7.72461Z" fill="white"/>
 </g>
</svg>
