<?xml version="1.0" encoding="UTF-8"?>
<!--Generator: Apple Native CoreSVG 326-->
<!DOCTYPE svg
PUBLIC "-//W3C//DTD SVG 1.1//EN"
       "http://www.w3.org/Graphics/SVG/1.1/DTD/svg11.dtd">
<svg version="1.1" xmlns="http://www.w3.org/2000/svg" xmlns:xlink="http://www.w3.org/1999/xlink" viewBox="0 0 30.4883 30.2012">
 <g>
  <rect height="30.2012" opacity="0" width="30.4883" x="0" y="0"/>
  <path d="M30.1328 8.09375L30.1328 18.5664C30.1328 22.5723 27.9453 24.8145 23.8711 24.8145L14.6289 24.8145L9.69336 29.3262C9.05078 29.9277 8.6543 30.2012 8.12109 30.2012C7.3418 30.2012 6.9043 29.6406 6.9043 28.793L6.9043 24.8145L6.26172 24.8145C2.1875 24.8145 0 22.5859 0 18.5664L0 8.09375C0 4.07422 2.1875 1.83203 6.26172 1.83203L23.8711 1.83203C27.9453 1.83203 30.1328 4.08789 30.1328 8.09375ZM13.0156 10.9922C12.4824 10.9922 12.0586 11.4023 12.0586 11.9082C12.0586 12.4551 12.4824 12.8379 13.0156 12.8379L14.4102 12.8379L14.4102 18.7988L12.7969 18.7988C12.25 18.7988 11.8398 19.209 11.8398 19.7148C11.8398 20.2617 12.25 20.6582 12.7969 20.6582L18.1016 20.6582C18.6484 20.6582 19.0586 20.2617 19.0586 19.7148C19.0586 19.209 18.6484 18.7988 18.1016 18.7988L16.4883 18.7988L16.4883 12.168C16.4883 11.4707 16.1328 10.9922 15.4766 10.9922ZM13.248 7.10938C13.248 8.06641 14.0137 8.83203 14.957 8.83203C15.9141 8.83203 16.666 8.06641 16.666 7.10938C16.666 6.15234 15.9141 5.38672 14.957 5.38672C14.0137 5.38672 13.248 6.15234 13.248 7.10938Z" fill="black" fill-opacity="0.85"/>
 </g>
</svg>
