<?xml version="1.0" encoding="UTF-8"?>
<!--Generator: Apple Native CoreSVG 326-->
<!DOCTYPE svg
PUBLIC "-//W3C//DTD SVG 1.1//EN"
       "http://www.w3.org/Graphics/SVG/1.1/DTD/svg11.dtd">
<svg version="1.1" xmlns="http://www.w3.org/2000/svg" xmlns:xlink="http://www.w3.org/1999/xlink" viewBox="0 0 32.5938 25.1699">
 <g>
  <rect height="25.1699" opacity="0" width="32.5938" x="0" y="0"/>
  <path d="M4.29297 25.1699L27.9453 25.1699C30.8164 25.1699 32.2383 23.7617 32.2383 20.9453L32.2383 4.23828C32.2383 1.42188 30.8164 0 27.9453 0L4.29297 0C1.43555 0 0 1.42188 0 4.23828L0 20.9453C0 23.7617 1.43555 25.1699 4.29297 25.1699ZM4.32031 22.9688C2.95312 22.9688 2.20117 22.2441 2.20117 20.8223L2.20117 4.36133C2.20117 2.93945 2.95312 2.20117 4.32031 2.20117L27.918 2.20117C29.2715 2.20117 30.0371 2.93945 30.0371 4.36133L30.0371 20.8223C30.0371 22.2441 29.2715 22.9688 27.918 22.9688Z" fill="black" fill-opacity="0.85"/>
  <path d="M8.62695 18.8262L23.6113 18.8262C24.5684 18.8262 24.9648 18.4297 24.9648 17.4453L24.9648 7.73828C24.9648 6.75391 24.5684 6.34375 23.6113 6.34375L8.62695 6.34375C7.68359 6.34375 7.27344 6.75391 7.27344 7.73828L7.27344 17.4453C7.27344 18.4297 7.68359 18.8262 8.62695 18.8262Z" fill="black" fill-opacity="0.85"/>
 </g>
</svg>
