<?xml version="1.0" encoding="UTF-8"?>
<!--Generator: Apple Native CoreSVG 326-->
<!DOCTYPE svg
PUBLIC "-//W3C//DTD SVG 1.1//EN"
       "http://www.w3.org/Graphics/SVG/1.1/DTD/svg11.dtd">
<svg version="1.1" xmlns="http://www.w3.org/2000/svg" xmlns:xlink="http://www.w3.org/1999/xlink" viewBox="0 0 24.9102 32.1426">
 <g>
  <rect height="32.1426" opacity="0" width="24.9102" x="0" y="0"/>
  <path d="M12.2773 32.1289C19.7148 32.1289 24.5547 27.4941 24.5547 20.1113L24.5547 12.0176C24.5547 4.63477 19.7148 0 12.2773 0C4.83984 0 0 4.63477 0 12.0176L0 20.1113C0 27.4941 4.83984 32.1289 12.2773 32.1289ZM12.2773 29.9141C6.17969 29.9141 2.22852 26.332 2.22852 20.5215L2.22852 11.6074C2.22852 5.79688 6.17969 2.20117 12.2773 2.20117C18.375 2.20117 22.3262 5.79688 22.3262 11.6074L22.3262 20.5215C22.3262 26.332 18.375 29.9141 12.2773 29.9141Z" fill="black" fill-opacity="0.85"/>
  <path d="M12.2773 28.0547C6.9043 28.0547 4.10156 25.498 4.10156 20.5215L4.10156 11.6074C4.10156 6.63086 6.9043 4.07422 12.2773 4.07422C17.6504 4.07422 20.4531 6.63086 20.4531 11.6074L20.4531 20.5215C20.4531 25.498 17.6504 28.0547 12.2773 28.0547Z" fill="black" fill-opacity="0.85"/>
 </g>
</svg>
