<?xml version="1.0" encoding="UTF-8"?>
<!--Generator: Apple Native CoreSVG 326-->
<!DOCTYPE svg
PUBLIC "-//W3C//DTD SVG 1.1//EN"
       "http://www.w3.org/Graphics/SVG/1.1/DTD/svg11.dtd">
<svg version="1.1" xmlns="http://www.w3.org/2000/svg" xmlns:xlink="http://www.w3.org/1999/xlink" viewBox="0 0 25.5254 25.1973">
 <g>
  <rect height="25.1973" opacity="0" width="25.5254" x="0" y="0"/>
  <path d="M0 7.23242L2.20117 7.23242L2.20117 4.375C2.20117 2.95312 2.95312 2.22852 4.32031 2.22852L7.15039 2.22852L7.15039 0.0273438L4.29297 0.0273438C1.43555 0.0273438 0 1.43555 0 4.26562ZM9.02344 2.22852L16.1465 2.22852L16.1465 0.0273438L9.02344 0.0273438ZM22.9688 7.23242L25.1699 7.23242L25.1699 4.26562C25.1699 1.44922 23.7344 0.0273438 20.877 0.0273438L18.0195 0.0273438L18.0195 2.22852L20.8496 2.22852C22.2031 2.22852 22.9688 2.95312 22.9688 4.375ZM22.9688 16.1191L25.1699 16.1191L25.1699 9.10547L22.9688 9.10547ZM18.0195 25.1973L20.877 25.1973C23.7344 25.1973 25.1699 23.7754 25.1699 20.959L25.1699 17.9922L22.9688 17.9922L22.9688 20.8496C22.9688 22.2715 22.2031 22.9961 20.8496 22.9961L18.0195 22.9961ZM9.02344 25.1973L16.1465 25.1973L16.1465 22.9961L9.02344 22.9961ZM4.29297 25.1973L7.15039 25.1973L7.15039 22.9961L4.32031 22.9961C2.95312 22.9961 2.20117 22.2715 2.20117 20.8496L2.20117 17.9922L0 17.9922L0 20.959C0 23.7891 1.43555 25.1973 4.29297 25.1973ZM0 16.1191L2.20117 16.1191L2.20117 9.10547L0 9.10547Z" fill="black" fill-opacity="0.85"/>
  <path d="M5.37305 21.1094L19.8242 21.1094C20.6719 21.1094 21.1094 20.6582 21.1094 19.7832L21.1094 5.40039C21.1094 4.52539 20.6719 4.07422 19.8242 4.07422L5.37305 4.07422C4.51172 4.07422 4.07422 4.52539 4.07422 5.40039L4.07422 19.7832C4.07422 20.6582 4.51172 21.1094 5.37305 21.1094Z" fill="black" fill-opacity="0.85"/>
 </g>
</svg>
