<?xml version="1.0" encoding="UTF-8"?>
<!--Generator: Apple Native CoreSVG 326-->
<!DOCTYPE svg
PUBLIC "-//W3C//DTD SVG 1.1//EN"
       "http://www.w3.org/Graphics/SVG/1.1/DTD/svg11.dtd">
<svg version="1.1" xmlns="http://www.w3.org/2000/svg" xmlns:xlink="http://www.w3.org/1999/xlink" viewBox="0 0 32.5938 25.1699">
 <g>
  <rect height="25.1699" opacity="0" width="32.5938" x="0" y="0"/>
  <path d="M4.29297 25.1699L27.9453 25.1699C30.8164 25.1699 32.2383 23.7617 32.2383 20.9453L32.2383 4.23828C32.2383 1.42188 30.8164 0 27.9453 0L4.29297 0C1.43555 0 0 1.42188 0 4.23828L0 20.9453C0 23.7617 1.43555 25.1699 4.29297 25.1699ZM4.32031 22.9688C2.95312 22.9688 2.20117 22.2441 2.20117 20.8223L2.20117 4.36133C2.20117 2.93945 2.95312 2.20117 4.32031 2.20117L27.918 2.20117C29.2715 2.20117 30.0371 2.93945 30.0371 4.36133L30.0371 20.8223C30.0371 22.2441 29.2715 22.9688 27.918 22.9688Z" fill="black" fill-opacity="0.85"/>
  <path d="M17.2949 21.1094L26.9746 21.1094C27.8359 21.1094 28.1777 20.7539 28.1777 19.8789L28.1777 5.30469C28.1777 4.42969 27.8359 4.07422 26.9746 4.07422L17.2949 4.07422C16.4336 4.07422 16.0918 4.42969 16.0918 5.30469L16.0918 19.8789C16.0918 20.7539 16.4336 21.1094 17.2949 21.1094Z" fill="black" fill-opacity="0.85"/>
  <path d="M4.66211 12.5781C4.67578 13.0703 5.07227 13.5078 5.55078 13.5078L9.37891 13.5078L11.4023 13.4258L10.2676 14.5059L8.79102 15.9688C8.61328 16.1328 8.53125 16.3789 8.53125 16.6113C8.53125 17.1035 8.87305 17.459 9.33789 17.459C9.61133 17.459 9.81641 17.3496 9.99414 17.1309L13.6309 13.248C13.8633 13.002 13.9316 12.8242 13.9316 12.5781C13.9316 12.3457 13.8633 12.1543 13.6309 11.9082L9.99414 8.02539C9.81641 7.82031 9.61133 7.71094 9.33789 7.71094C8.87305 7.71094 8.53125 8.06641 8.53125 8.55859C8.53125 8.79102 8.61328 9.03711 8.79102 9.20117L10.2676 10.6504L11.4023 11.7305L9.37891 11.6621L5.55078 11.6621C5.07227 11.6621 4.64844 12.0859 4.66211 12.5781Z" fill="black" fill-opacity="0.85"/>
 </g>
</svg>
