<?xml version="1.0" encoding="UTF-8"?>
<!--Generator: Apple Native CoreSVG 326-->
<!DOCTYPE svg
PUBLIC "-//W3C//DTD SVG 1.1//EN"
       "http://www.w3.org/Graphics/SVG/1.1/DTD/svg11.dtd">
<svg version="1.1" xmlns="http://www.w3.org/2000/svg" xmlns:xlink="http://www.w3.org/1999/xlink" viewBox="0 0 32.5938 25.1973">
 <g>
  <rect height="25.1973" opacity="0" width="32.5938" x="0" y="0"/>
  <path d="M10.8418 21.9434L21.4102 21.9434C21.7793 21.9434 22.0391 21.6973 22.0391 21.3145C22.0391 20.9316 21.7793 20.6719 21.4102 20.6719L10.8418 20.6719C10.4727 20.6719 10.1992 20.9316 10.1992 21.3145C10.1992 21.6973 10.4727 21.9434 10.8418 21.9434ZM4.29297 25.1973L27.9453 25.1973C30.8164 25.1973 32.2383 23.7754 32.2383 20.959L32.2383 4.26562C32.2383 1.44922 30.8164 0.0273438 27.9453 0.0273438L4.29297 0.0273438C1.43555 0.0273438 0 1.43555 0 4.26562L0 20.959C0 23.7891 1.43555 25.1973 4.29297 25.1973ZM4.32031 22.9961C2.95312 22.9961 2.20117 22.2715 2.20117 20.8496L2.20117 4.375C2.20117 2.95312 2.95312 2.22852 4.32031 2.22852L27.918 2.22852C29.2715 2.22852 30.0371 2.95312 30.0371 4.375L30.0371 20.8496C30.0371 22.2715 29.2715 22.9961 27.918 22.9961Z" fill="black" fill-opacity="0.85"/>
 </g>
</svg>
