<?xml version="1.0" encoding="UTF-8"?>
<!--Generator: Apple Native CoreSVG 326-->
<!DOCTYPE svg
PUBLIC "-//W3C//DTD SVG 1.1//EN"
       "http://www.w3.org/Graphics/SVG/1.1/DTD/svg11.dtd">
<svg version="1.1" xmlns="http://www.w3.org/2000/svg" xmlns:xlink="http://www.w3.org/1999/xlink" viewBox="0 0 32.5938 25.1973">
 <g>
  <rect height="25.1973" opacity="0" width="32.5938" x="0" y="0"/>
  <path d="M4.29297 25.1973L27.9453 25.1973C30.8164 25.1973 32.2383 23.7754 32.2383 20.959L32.2383 4.26562C32.2383 1.44922 30.8164 0.0273438 27.9453 0.0273438L4.29297 0.0273438C1.43555 0.0273438 0 1.43555 0 4.26562L0 20.959C0 23.7891 1.43555 25.1973 4.29297 25.1973ZM2.50195 13.3574C2.0918 13.3711 1.75 13.0156 1.73633 12.5918C1.72266 12.1953 2.07812 11.8535 2.48828 11.8535C2.91211 11.8535 3.24023 12.1953 3.24023 12.5918C3.24023 13.0156 2.89844 13.3438 2.50195 13.3574ZM4.63477 22.9961L4.63477 2.22852L27.6035 2.22852L27.6035 22.9961ZM29.6816 13.7812C29.0254 13.7812 28.5195 13.248 28.5195 12.5918C28.5195 11.9492 29.0391 11.416 29.6953 11.416C30.3516 11.416 30.8711 11.9492 30.8711 12.5918C30.8711 13.248 30.3516 13.7812 29.6816 13.7812Z" fill="black" fill-opacity="0.85"/>
 </g>
</svg>
