<?xml version="1.0" encoding="UTF-8"?>
<!--Generator: Apple Native CoreSVG 326-->
<!DOCTYPE svg
PUBLIC "-//W3C//DTD SVG 1.1//EN"
       "http://www.w3.org/Graphics/SVG/1.1/DTD/svg11.dtd">
<svg version="1.1" xmlns="http://www.w3.org/2000/svg" xmlns:xlink="http://www.w3.org/1999/xlink" viewBox="0 0 23.2012 30.8301">
 <g>
  <rect height="30.8301" opacity="0" width="23.2012" x="0" y="0"/>
  <path d="M3.78711 30.8027L19.0586 30.8027C21.3281 30.8027 22.8457 29.3535 22.8457 27.1934L22.8457 3.62305C22.8457 1.46289 21.3281 0 19.0586 0L3.78711 0C1.51758 0 0 1.46289 0 3.62305L0 27.1934C0 29.3535 1.51758 30.8027 3.78711 30.8027ZM2.20117 26.168L2.20117 4.64844L20.6445 4.64844L20.6445 26.168ZM11.4434 29.4492C10.7734 29.4492 10.2539 28.916 10.2539 28.2598C10.2539 27.6172 10.7734 27.084 11.4434 27.084C12.0859 27.084 12.6191 27.6172 12.6191 28.2598C12.6191 28.916 12.0859 29.4492 11.4434 29.4492ZM11.416 3.25391C11.0059 3.25391 10.6777 2.91211 10.6777 2.50195C10.6777 2.10547 11.0059 1.75 11.416 1.75C11.8262 1.75 12.168 2.10547 12.168 2.50195C12.168 2.91211 11.8262 3.25391 11.416 3.25391Z" fill="black" fill-opacity="0.85"/>
 </g>
</svg>
