<?xml version="1.0" encoding="UTF-8"?>
<!--Generator: Apple Native CoreSVG 326-->
<!DOCTYPE svg
PUBLIC "-//W3C//DTD SVG 1.1//EN"
       "http://www.w3.org/Graphics/SVG/1.1/DTD/svg11.dtd">
<svg version="1.1" xmlns="http://www.w3.org/2000/svg" xmlns:xlink="http://www.w3.org/1999/xlink" viewBox="0 0 40.8105 33.7149">
 <g>
  <rect height="33.7149" opacity="0" width="40.8105" x="0" y="0"/>
  <path d="M7.76666 6.55674C6.82082 6.76636 6.30273 7.46418 6.30273 8.63383L6.30273 25.1084C6.30273 26.5303 7.06836 27.2549 8.43555 27.2549L25.527 27.2549C25.5763 28.099 25.819 28.8428 26.2208 29.4561L8.39453 29.4561C5.55078 29.4561 4.10156 28.0479 4.10156 25.2178L4.10156 8.52445C4.10156 6.65484 4.73403 5.40577 5.98727 4.77734ZM25.5117 26.2022L14.9434 26.2022C14.5742 26.2022 14.3008 25.9561 14.3008 25.5733C14.3008 25.1905 14.5742 24.9307 14.9434 24.9307L25.5117 24.9307ZM36.3535 8.52445L36.3535 8.85596C36.3273 8.85276 36.2994 8.85258 36.2715 8.85258L34.1523 8.85258L34.1523 8.63383C34.1523 7.21195 33.373 6.48734 32.0195 6.48734L14.5742 6.48734L12.373 4.28617L32.0605 4.28617C34.918 4.28617 36.3535 5.70804 36.3535 8.52445Z" fill="black" fill-opacity="0.85"/>
  <path d="M30.666 29.4561L30.0508 29.4561C28.3555 29.4561 27.3711 28.5264 27.3711 26.8995L27.3711 26.1612ZM38.9375 13.2823L38.9375 26.8995C38.9375 28.1292 38.3829 28.9606 37.3792 29.2924L35.752 27.6651L36.2441 27.6651C36.8457 27.6651 37.1465 27.3506 37.1465 26.7217L37.1465 13.46C37.1465 12.8311 36.8457 12.503 36.2441 12.503L30.0781 12.503C29.4766 12.503 29.1621 12.8311 29.1621 13.46L29.1621 21.0752L27.3711 19.2842L27.3711 13.2823C27.3711 11.6553 28.3555 10.712 30.0508 10.712L36.2715 10.712C37.9668 10.712 38.9375 11.6553 38.9375 13.2823ZM35.4922 26.4893C35.4922 26.7579 35.3008 26.9427 35.0522 26.9654L34.1113 26.0245L35 26.0245C35.2734 26.0245 35.4922 26.2295 35.4922 26.4893ZM34.8496 13.8155C34.8496 14.1846 34.5625 14.458 34.207 14.458L32.0605 14.458C31.7051 14.458 31.4316 14.1846 31.4316 13.8155C31.4316 13.4737 31.7051 13.2002 32.0605 13.2002L34.207 13.2002C34.5625 13.2002 34.8496 13.4737 34.8496 13.8155Z" fill="black" fill-opacity="0.85"/>
  <path d="M35.0273 32.2041C35.5332 32.6963 36.3398 32.71 36.832 32.2178C37.3379 31.712 37.3516 30.8916 36.8594 30.3995L8.01172 1.53812C7.51953 1.03226 6.69922 1.03226 6.19336 1.53812C5.70117 2.03031 5.70117 2.86429 6.19336 3.34281Z" fill="black" fill-opacity="0.85"/>
 </g>
</svg>
