<?xml version="1.0" encoding="UTF-8"?>
<!--Generator: Apple Native CoreSVG 326-->
<!DOCTYPE svg
PUBLIC "-//W3C//DTD SVG 1.1//EN"
       "http://www.w3.org/Graphics/SVG/1.1/DTD/svg11.dtd">
<svg version="1.1" xmlns="http://www.w3.org/2000/svg" xmlns:xlink="http://www.w3.org/1999/xlink" viewBox="0 0 40.8105 28.9434">
 <g>
  <rect height="28.9434" opacity="0" width="40.8105" x="0" y="0"/>
  <path d="M36.3535 6.13867L36.3535 6.47018C36.3273 6.46698 36.2994 6.4668 36.2715 6.4668L34.1523 6.4668L34.1523 6.24805C34.1523 4.82617 33.373 4.10156 32.0195 4.10156L8.43555 4.10156C7.06836 4.10156 6.30273 4.82617 6.30273 6.24805L6.30273 22.7227C6.30273 24.1445 7.06836 24.8691 8.43555 24.8691L25.527 24.8691C25.5763 25.7133 25.819 26.457 26.2208 27.0703L8.39453 27.0703C5.55078 27.0703 4.10156 25.6621 4.10156 22.832L4.10156 6.13867C4.10156 3.30859 5.55078 1.90039 8.39453 1.90039L32.0605 1.90039C34.918 1.90039 36.3535 3.32227 36.3535 6.13867ZM25.5117 23.8164L14.9434 23.8164C14.5742 23.8164 14.3008 23.5703 14.3008 23.1875C14.3008 22.8047 14.5742 22.5449 14.9434 22.5449L25.5117 22.5449Z" fill="black" fill-opacity="0.85"/>
  <path d="M30.0508 27.0703L36.2715 27.0703C37.9668 27.0703 38.9375 26.1406 38.9375 24.5137L38.9375 10.8965C38.9375 9.26953 37.9668 8.32617 36.2715 8.32617L30.0508 8.32617C28.3555 8.32617 27.3711 9.26953 27.3711 10.8965L27.3711 24.5137C27.3711 26.1406 28.3555 27.0703 30.0508 27.0703ZM30.0781 25.2793C29.4766 25.2793 29.1621 24.9648 29.1621 24.3359L29.1621 11.0742C29.1621 10.4453 29.4766 10.1172 30.0781 10.1172L36.2441 10.1172C36.8457 10.1172 37.1465 10.4453 37.1465 11.0742L37.1465 24.3359C37.1465 24.9648 36.8457 25.2793 36.2441 25.2793ZM31.2949 24.582L35 24.582C35.2734 24.582 35.4922 24.3906 35.4922 24.1035C35.4922 23.8438 35.2734 23.6387 35 23.6387L31.2949 23.6387C31.0215 23.6387 30.8301 23.8438 30.8301 24.1035C30.8301 24.4043 30.9941 24.582 31.2949 24.582ZM32.0605 12.0723L34.207 12.0723C34.5625 12.0723 34.8496 11.7988 34.8496 11.4297C34.8496 11.0879 34.5625 10.8145 34.207 10.8145L32.0605 10.8145C31.7051 10.8145 31.4316 11.0879 31.4316 11.4297C31.4316 11.7988 31.7051 12.0723 32.0605 12.0723Z" fill="black" fill-opacity="0.85"/>
 </g>
</svg>
