<?xml version="1.0" encoding="UTF-8"?>
<!--Generator: Apple Native CoreSVG 326-->
<!DOCTYPE svg
PUBLIC "-//W3C//DTD SVG 1.1//EN"
       "http://www.w3.org/Graphics/SVG/1.1/DTD/svg11.dtd">
<svg version="1.1" xmlns="http://www.w3.org/2000/svg" xmlns:xlink="http://www.w3.org/1999/xlink" viewBox="0 0 32.5938 31.6094">
 <g>
  <rect height="31.6094" opacity="0" width="32.5938" x="0" y="0"/>
  <path d="M1.12109 4.5459L4.63477 8.0614L4.63477 26.2021L22.7661 26.2021L24.9661 28.4033L4.29297 28.4033C1.43555 28.4033 0 26.9951 0 24.165L0 7.47168C0 6.12082 0.327072 5.09391 0.983599 4.39331ZM32.2383 7.47168L32.2383 24.165C32.2383 25.4989 31.9194 26.5199 31.2745 27.2213C31.2392 27.1757 31.1996 27.1327 31.1582 27.0908L27.6035 23.5343L27.6035 5.43457L9.51321 5.43457L7.31319 3.2334L27.9453 3.2334C30.8164 3.2334 32.2383 4.65527 32.2383 7.47168ZM28.5195 15.7979C28.5195 16.4541 29.0254 16.9873 29.6816 16.9873C30.3516 16.9873 30.8711 16.4541 30.8711 15.7979C30.8711 15.1553 30.3516 14.6221 29.6953 14.6221C29.0391 14.6221 28.5195 15.1553 28.5195 15.7979ZM1.73633 15.7979C1.75 16.2217 2.0918 16.5771 2.50195 16.5635C2.89844 16.5498 3.24023 16.2217 3.24023 15.7979C3.24023 15.4014 2.91211 15.0596 2.48828 15.0596C2.07812 15.0596 1.72266 15.4014 1.73633 15.7979Z" fill="black" fill-opacity="0.85"/>
  <path d="M28.5195 29.7021C28.9297 30.1123 29.6133 30.1123 30.0098 29.7021C30.4199 29.292 30.4336 28.6221 30.0234 28.2119L3.75977 1.93457C3.34961 1.52441 2.67969 1.51074 2.25586 1.93457C1.85938 2.33105 1.85938 3.02832 2.25586 3.4248Z" fill="black" fill-opacity="0.85"/>
 </g>
</svg>
