<?xml version="1.0" encoding="UTF-8"?>
<!--Generator: Apple Native CoreSVG 326-->
<!DOCTYPE svg
PUBLIC "-//W3C//DTD SVG 1.1//EN"
       "http://www.w3.org/Graphics/SVG/1.1/DTD/svg11.dtd">
<svg version="1.1" xmlns="http://www.w3.org/2000/svg" xmlns:xlink="http://www.w3.org/1999/xlink" viewBox="0 0 31.5479 31.2368">
 <g>
  <rect height="31.2368" opacity="0" width="31.5479" x="0" y="0"/>
  <path d="M6.38818 10.1731L6.38818 26.3713L22.5778 26.3713L26.0974 29.8927C25.4323 30.5994 24.4406 31.0061 23.2456 31.0061L7.96045 31.0061C5.70459 31.0061 4.18701 29.5569 4.18701 27.3967L4.18701 7.97081ZM14.4272 28.4631C14.4272 29.1194 14.9604 29.6526 15.6167 29.6526C16.2729 29.6526 16.7925 29.1194 16.7925 28.4631C16.7925 27.8206 16.2729 27.2874 15.6167 27.2874C14.9604 27.2874 14.4272 27.8206 14.4272 28.4631ZM27.0327 3.82642L27.0327 23.3207L24.8315 21.1184L24.8315 4.85182L8.57355 4.85182L5.08312 1.35954C5.74483 0.627653 6.74558 0.203378 7.96045 0.203378L23.2456 0.203378C25.5015 0.203378 27.0327 1.66627 27.0327 3.82642ZM14.8511 2.70533C14.8511 3.11549 15.1929 3.45728 15.603 3.45728C15.9995 3.45728 16.355 3.11549 16.355 2.70533C16.355 2.30885 15.9995 1.95338 15.603 1.95338C15.1929 1.95338 14.8511 2.30885 14.8511 2.70533Z" fill="black" fill-opacity="0.85"/>
  <path d="M27.7847 29.3245C28.1948 29.7483 28.8784 29.7483 29.2749 29.3245C29.6851 28.9143 29.6987 28.2581 29.2886 27.8342L3.40771 1.93971C2.99756 1.52955 2.31396 1.51588 1.90381 1.93971C1.50732 2.33619 1.50732 3.01978 1.90381 3.42994Z" fill="black" fill-opacity="0.85"/>
 </g>
</svg>
