<?xml version="1.0" encoding="UTF-8"?>
<!--Generator: Apple Native CoreSVG 326-->
<!DOCTYPE svg
PUBLIC "-//W3C//DTD SVG 1.1//EN"
       "http://www.w3.org/Graphics/SVG/1.1/DTD/svg11.dtd">
<svg version="1.1" xmlns="http://www.w3.org/2000/svg" xmlns:xlink="http://www.w3.org/1999/xlink" viewBox="0 0 28.834 28.9707">
 <g>
  <rect height="28.9707" opacity="0" width="28.834" x="0" y="0"/>
  <path d="M23.0234 3.55469L23.0234 25.3887C23.0234 27.5215 21.5332 28.9434 19.3047 28.9434L9.17383 28.9434C6.94531 28.9434 5.45508 27.5215 5.45508 25.3887L5.45508 18.1152L7.65625 18.1152L7.65625 25.0332C7.65625 26.127 8.29883 26.7422 9.46094 26.7422L19.0312 26.7422C20.1797 26.7422 20.8223 26.127 20.8223 25.0332L20.8223 3.91016C20.8223 2.81641 20.1797 2.20117 19.0312 2.20117L9.46094 2.20117C8.29883 2.20117 7.65625 2.81641 7.65625 3.91016L7.65625 10.8145L5.45508 10.8145L5.45508 3.55469C5.45508 1.42188 6.94531 0 9.17383 0L19.3047 0C21.5332 0 23.0234 1.42188 23.0234 3.55469Z" fill="black" fill-opacity="0.85"/>
  <path d="M0 14.4648C0 15.0527 0.478516 15.5449 1.05273 15.5449L12.0176 15.5449L14.0684 15.4629L13.2617 16.2422L11.0059 18.3477C10.7871 18.5391 10.6777 18.8398 10.6777 19.0996C10.6777 19.6738 11.0742 20.084 11.6348 20.084C11.9219 20.084 12.1543 19.9746 12.3594 19.7695L16.6934 15.2578C16.9805 14.9844 17.0625 14.7383 17.0625 14.4648C17.0625 14.1777 16.9805 13.9453 16.6934 13.6719L12.3594 9.16016C12.1543 8.95508 11.9219 8.8457 11.6348 8.8457C11.0742 8.8457 10.6777 9.26953 10.6777 9.84375C10.6777 10.1035 10.7871 10.3906 11.0059 10.582L13.2617 12.6875L14.0684 13.4668L12.0176 13.3711L1.05273 13.3711C0.478516 13.3711 0 13.877 0 14.4648Z" fill="black" fill-opacity="0.85"/>
 </g>
</svg>
