<?xml version="1.0" encoding="UTF-8"?>
<!--Generator: Apple Native CoreSVG 326-->
<!DOCTYPE svg
PUBLIC "-//W3C//DTD SVG 1.1//EN"
       "http://www.w3.org/Graphics/SVG/1.1/DTD/svg11.dtd">
<svg version="1.1" xmlns="http://www.w3.org/2000/svg" xmlns:xlink="http://www.w3.org/1999/xlink" viewBox="0 0 36.6543 28.9707">
 <g>
  <rect height="28.9707" opacity="0" width="36.6543" x="0" y="0"/>
  <path d="M14.4102 25.4023C14.4102 27.5352 15.9004 28.957 18.1289 28.957L28.2598 28.957C30.4883 28.957 31.9785 27.5352 31.9785 25.4023L31.9785 3.55469C31.9785 1.42188 30.4883 0 28.2598 0L18.1289 0C15.9004 0 14.4102 1.42188 14.4102 3.55469ZM16.6113 24.3223L16.6113 4.63477L29.7773 4.63477L29.7773 24.3223ZM23.2148 27.6035C22.5586 27.6035 22.0254 27.0703 22.0254 26.4141C22.0254 25.7715 22.5586 25.2383 23.2148 25.2383C23.8574 25.2383 24.3906 25.7715 24.3906 26.4141C24.3906 27.0703 23.8574 27.6035 23.2148 27.6035ZM20.6035 2.39258C20.6035 2.07812 20.8223 1.87305 21.123 1.87305L25.2793 1.87305C25.5801 1.87305 25.7988 2.07812 25.7988 2.39258C25.7988 2.70703 25.5801 2.89844 25.2793 2.89844L21.123 2.89844C20.8223 2.89844 20.6035 2.70703 20.6035 2.39258Z" fill="black" fill-opacity="0.85"/>
  <path d="M0 9.17383C0 9.76172 0.478516 10.2266 1.06641 10.2266L6.43945 10.2266L6.43945 12.5234C6.43945 13.5352 7.47852 13.9727 8.23047 13.3027L12.0449 9.93945C12.5645 9.48828 12.5645 8.8457 12.0449 8.39453L8.23047 5.01758C7.51953 4.375 6.43945 4.74414 6.43945 5.81055L6.43945 8.10742L1.06641 8.10742C0.478516 8.10742 0 8.58594 0 9.17383Z" fill="black" fill-opacity="0.85"/>
 </g>
</svg>
