<?xml version="1.0" encoding="UTF-8"?>
<!--Generator: Apple Native CoreSVG 326-->
<!DOCTYPE svg
PUBLIC "-//W3C//DTD SVG 1.1//EN"
       "http://www.w3.org/Graphics/SVG/1.1/DTD/svg11.dtd">
<svg version="1.1" xmlns="http://www.w3.org/2000/svg" xmlns:xlink="http://www.w3.org/1999/xlink" viewBox="0 0 28.2461 27.9043">
 <g>
  <rect height="27.9043" opacity="0" width="28.2461" x="0" y="0"/>
  <path d="M13.9453 27.9043C21.6426 27.9043 27.8906 21.6562 27.8906 13.959C27.8906 6.27539 21.6426 0.0136719 13.9453 0.0136719C6.26172 0.0136719 0 6.27539 0 13.959C0 21.6562 6.26172 27.9043 13.9453 27.9043Z" fill="black" fill-opacity="0.85"/>
  <path d="M8.55859 20.6582L8.55859 7.27344C8.55859 5.94727 9.47461 5.07227 10.8555 5.07227L17.0352 5.07227C18.416 5.07227 19.332 5.94727 19.332 7.27344L19.332 20.6582C19.332 21.9707 18.416 22.8594 17.0352 22.8594L10.8555 22.8594C9.47461 22.8594 8.55859 21.9707 8.55859 20.6582ZM9.93945 19.9883L17.9512 19.9883L17.9512 7.94336L9.93945 7.94336ZM13.959 21.998C14.3418 21.998 14.6562 21.6699 14.6562 21.2734C14.6562 20.8906 14.3418 20.5488 13.959 20.5488C13.5625 20.5488 13.2344 20.8906 13.2344 21.2734C13.2344 21.6699 13.5625 21.998 13.959 21.998ZM12.332 6.5625C12.332 6.75391 12.4824 6.9043 12.6738 6.9043L15.2305 6.9043C15.4219 6.9043 15.5586 6.75391 15.5586 6.5625C15.5586 6.34375 15.4219 6.2207 15.2305 6.2207L12.6738 6.2207C12.4824 6.2207 12.332 6.34375 12.332 6.5625Z" fill="white"/>
 </g>
</svg>
