<?xml version="1.0" encoding="UTF-8"?>
<!--Generator: Apple Native CoreSVG 326-->
<!DOCTYPE svg
PUBLIC "-//W3C//DTD SVG 1.1//EN"
       "http://www.w3.org/Graphics/SVG/1.1/DTD/svg11.dtd">
<svg version="1.1" xmlns="http://www.w3.org/2000/svg" xmlns:xlink="http://www.w3.org/1999/xlink" viewBox="0 0 28.2461 27.9043">
 <g>
  <rect height="27.9043" opacity="0" width="28.2461" x="0" y="0"/>
  <path d="M13.9453 27.9043C21.6426 27.9043 27.8906 21.6562 27.8906 13.959C27.8906 6.27539 21.6426 0.0136719 13.9453 0.0136719C6.26172 0.0136719 0 6.27539 0 13.959C0 21.6562 6.26172 27.9043 13.9453 27.9043Z" fill="black" fill-opacity="0.85"/>
  <path d="M5.72852 18.1426C5.53711 18.4023 5.18164 18.4023 4.9082 18.1289C3.88281 17.0215 3.33594 15.5312 3.33594 13.959C3.33594 12.4004 3.88281 10.9102 4.9082 9.78906C5.18164 9.51562 5.53711 9.51562 5.72852 9.77539C5.91992 10.0078 5.86523 10.2949 5.64648 10.5684C4.8125 11.498 4.375 12.6738 4.375 13.959C4.375 15.2441 4.8125 16.4199 5.64648 17.3496C5.86523 17.623 5.91992 17.9238 5.72852 18.1426ZM22.1211 18.1426C21.9297 17.9238 21.9844 17.623 22.2168 17.3496C23.0371 16.4199 23.4883 15.2441 23.4883 13.959C23.4883 12.6738 23.0371 11.498 22.2168 10.5684C21.9844 10.2949 21.9297 10.0078 22.1211 9.77539C22.3262 9.51562 22.6816 9.51562 22.9414 9.78906C23.9668 10.9102 24.5273 12.4004 24.5273 13.959C24.5273 15.5312 23.9668 17.0215 22.9414 18.1289C22.6816 18.4023 22.3262 18.4023 22.1211 18.1426Z" fill="white"/>
  <path d="M7.76562 16.4062C7.54688 16.666 7.16406 16.666 6.91797 16.3789C6.38477 15.709 6.08398 14.875 6.08398 13.959C6.08398 13.0566 6.38477 12.209 6.91797 11.5527C7.16406 11.2656 7.54688 11.252 7.76562 11.5117C7.95703 11.7441 7.88867 12.0176 7.66992 12.3047C7.32812 12.7422 7.15039 13.3301 7.15039 13.959C7.15039 14.5879 7.32812 15.1621 7.66992 15.6133C7.88867 15.9004 7.95703 16.1738 7.76562 16.4062ZM20.084 16.4062C19.8926 16.1738 19.9609 15.9004 20.1797 15.6133C20.5215 15.1621 20.7129 14.5879 20.7129 13.959C20.7129 13.3301 20.5215 12.7422 20.1797 12.3047C19.9609 12.0176 19.8926 11.7441 20.084 11.5117C20.3027 11.252 20.6992 11.2656 20.9316 11.5527C21.4648 12.209 21.7793 13.0566 21.7793 13.959C21.7793 14.875 21.4648 15.709 20.9316 16.3789C20.6992 16.666 20.3027 16.666 20.084 16.4062Z" fill="white"/>
  <path d="M11.1562 22.0391C9.89844 22.0391 9.05078 21.2188 9.05078 20.002L9.05078 7.91602C9.05078 6.68555 9.89844 5.87891 11.1562 5.87891L16.7344 5.87891C17.9922 5.87891 18.8398 6.68555 18.8398 7.91602L18.8398 20.002C18.8398 21.2188 17.9922 22.0391 16.7344 22.0391ZM11.3066 20.7812L16.584 20.7812C17.2266 20.7812 17.582 20.4258 17.582 19.8242L17.582 8.08008C17.582 7.47852 17.2266 7.13672 16.584 7.13672L15.6406 7.13672C15.5312 7.13672 15.4766 7.19141 15.4766 7.30078L15.4766 7.46484C15.4766 7.79297 15.2715 8.03906 14.9434 8.03906L12.9473 8.03906C12.6191 8.03906 12.4141 7.79297 12.4141 7.46484L12.4141 7.30078C12.4141 7.20508 12.3867 7.13672 12.2363 7.13672L11.3066 7.13672C10.6641 7.13672 10.3086 7.47852 10.3086 8.08008L10.3086 19.8242C10.3086 20.4258 10.6641 20.7812 11.3066 20.7812ZM12.3594 20.2344C12.127 20.2344 11.9766 20.084 11.9766 19.8516C11.9766 19.6191 12.127 19.4688 12.3594 19.4688L15.5586 19.4688C15.7773 19.4688 15.9141 19.6191 15.9141 19.8516C15.9141 20.084 15.7773 20.2344 15.5586 20.2344Z" fill="white"/>
 </g>
</svg>
