<?xml version="1.0" encoding="UTF-8"?>
<!--Generator: Apple Native CoreSVG 326-->
<!DOCTYPE svg
PUBLIC "-//W3C//DTD SVG 1.1//EN"
       "http://www.w3.org/Graphics/SVG/1.1/DTD/svg11.dtd">
<svg version="1.1" xmlns="http://www.w3.org/2000/svg" xmlns:xlink="http://www.w3.org/1999/xlink" viewBox="0 0 27.4258 29.4082">
 <g>
  <rect height="29.4082" opacity="0" width="27.4258" x="0" y="0"/>
  <path d="M1.87305 3.52734L1.87305 25.8535C1.87305 27.4151 2.70671 28.6795 3.98491 29.1621L3.71875 29.1621C1.49023 29.1621 0 27.7402 0 25.6074L0 3.77344C0 1.64062 1.49023 0.21875 3.71875 0.21875L3.98491 0.21875C2.70671 0.701322 1.87305 1.96576 1.87305 3.52734Z" fill="black" fill-opacity="0.85"/>
  <path d="M6.54883 3.52734L6.54883 25.8535C6.54883 27.4151 7.38249 28.6795 8.66069 29.1621L8.39453 29.1621C6.16602 29.1621 4.67578 27.7402 4.67578 25.6074L4.67578 3.77344C4.67578 1.64062 6.16602 0.21875 8.39453 0.21875L8.66069 0.21875C7.38249 0.701322 6.54883 1.96576 6.54883 3.52734Z" fill="black" fill-opacity="0.85"/>
  <path d="M9.50195 25.6211C9.50195 27.7539 10.9922 29.1758 13.2207 29.1758L23.3516 29.1758C25.5801 29.1758 27.0703 27.7539 27.0703 25.6211L27.0703 3.77344C27.0703 1.64062 25.5801 0.21875 23.3516 0.21875L13.2207 0.21875C10.9922 0.21875 9.50195 1.64062 9.50195 3.77344ZM11.7031 24.541L11.7031 4.85352L24.8691 4.85352L24.8691 24.541ZM18.3066 27.8223C17.6367 27.8223 17.1035 27.2891 17.1035 26.6328C17.1035 25.9902 17.6367 25.457 18.3066 25.457C18.9492 25.457 19.4824 25.9902 19.4824 26.6328C19.4824 27.2891 18.9492 27.8223 18.3066 27.8223ZM15.6953 2.61133C15.6953 2.29688 15.9141 2.0918 16.2148 2.0918L20.3711 2.0918C20.6719 2.0918 20.8906 2.29688 20.8906 2.61133C20.8906 2.92578 20.6719 3.11719 20.3711 3.11719L16.2148 3.11719C15.9141 3.11719 15.6953 2.92578 15.6953 2.61133Z" fill="black" fill-opacity="0.85"/>
 </g>
</svg>
