<?xml version="1.0" encoding="UTF-8"?>
<!--Generator: Apple Native CoreSVG 326-->
<!DOCTYPE svg
PUBLIC "-//W3C//DTD SVG 1.1//EN"
       "http://www.w3.org/Graphics/SVG/1.1/DTD/svg11.dtd">
<svg version="1.1" xmlns="http://www.w3.org/2000/svg" xmlns:xlink="http://www.w3.org/1999/xlink" viewBox="0 0 44.0781 28.9707">
 <g>
  <rect height="28.9707" opacity="0" width="44.0781" x="0" y="0"/>
  <path d="M5.27734 23.8301C5.71484 23.3379 5.57812 22.6953 5.08594 22.1348C3.25391 20.0977 2.22852 17.418 2.22852 14.4785C2.22852 11.5391 3.25391 8.85938 5.08594 6.82227C5.57812 6.26172 5.71484 5.61914 5.27734 5.12695C4.83984 4.60742 4.07422 4.62109 3.55469 5.19531C1.28516 7.65625 0 10.9375 0 14.4785C0 18.0195 1.28516 21.2871 3.55469 23.7617C4.07422 24.3359 4.83984 24.3359 5.27734 23.8301ZM38.4453 23.8301C38.8828 24.3359 39.6484 24.3359 40.1816 23.7617C42.4512 21.2871 43.7227 18.0195 43.7227 14.4785C43.7227 10.9375 42.4512 7.65625 40.1816 5.19531C39.6484 4.62109 38.8828 4.60742 38.4453 5.12695C38.0078 5.61914 38.1445 6.26172 38.6367 6.82227C40.4688 8.85938 41.4941 11.5391 41.4941 14.4785C41.4941 17.418 40.4688 20.0977 38.6367 22.1348C38.1445 22.6953 38.0078 23.3379 38.4453 23.8301Z" fill="black" fill-opacity="0.85"/>
  <path d="M9.10547 19.9336C9.54297 19.4414 9.36523 18.8262 8.92773 18.2383C8.10742 17.2129 7.71094 15.9004 7.71094 14.4785C7.71094 13.0566 8.10742 11.7305 8.92773 10.7188C9.36523 10.1309 9.54297 9.51562 9.10547 9.02344C8.6543 8.50391 7.83398 8.50391 7.35547 9.11914C6.16602 10.5957 5.48242 12.4688 5.48242 14.4785C5.48242 16.4883 6.16602 18.3613 7.35547 19.8379C7.83398 20.4531 8.6543 20.4395 9.10547 19.9336ZM34.6172 19.9336C35.0684 20.4395 35.8887 20.4531 36.3672 19.8379C37.5566 18.3613 38.2539 16.4883 38.2539 14.4785C38.2539 12.4688 37.5566 10.5957 36.3672 9.11914C35.8887 8.50391 35.0684 8.50391 34.6172 9.02344C34.1797 9.51562 34.3711 10.1309 34.7949 10.7188C35.6152 11.7305 36.0254 13.0566 36.0254 14.4785C36.0254 15.9004 35.6152 17.2129 34.7949 18.2383C34.3711 18.8262 34.1797 19.4414 34.6172 19.9336Z" fill="black" fill-opacity="0.85"/>
  <path d="M16.8027 28.9434L26.9336 28.9434C29.1621 28.9434 30.6523 27.5215 30.6523 25.3887L30.6523 3.55469C30.6523 1.42188 29.1621 0 26.9336 0L16.8027 0C14.5742 0 13.084 1.42188 13.084 3.55469L13.084 25.3887C13.084 27.5215 14.5742 28.9434 16.8027 28.9434ZM17.0898 26.7422C15.9277 26.7422 15.2852 26.127 15.2852 25.0332L15.2852 3.91016C15.2852 2.81641 15.9277 2.20117 17.0898 2.20117L18.8398 2.20117C19.0586 2.20117 19.168 2.31055 19.168 2.51562L19.168 2.83008C19.168 3.4043 19.5508 3.78711 20.1113 3.78711L23.6523 3.78711C24.2129 3.78711 24.582 3.4043 24.582 2.83008L24.582 2.51562C24.582 2.31055 24.6914 2.20117 24.9102 2.20117L26.6602 2.20117C27.8086 2.20117 28.4512 2.81641 28.4512 3.91016L28.4512 25.0332C28.4512 26.127 27.8086 26.7422 26.6602 26.7422ZM18.9766 25.7441L24.7871 25.7441C25.1562 25.7441 25.416 25.4844 25.416 25.1016C25.416 24.7188 25.1562 24.4727 24.7871 24.4727L18.9766 24.4727C18.6074 24.4727 18.334 24.7188 18.334 25.1016C18.334 25.4844 18.6074 25.7441 18.9766 25.7441Z" fill="black" fill-opacity="0.85"/>
 </g>
</svg>
