<?xml version="1.0" encoding="UTF-8"?>
<!--Generator: Apple Native CoreSVG 326-->
<!DOCTYPE svg
PUBLIC "-//W3C//DTD SVG 1.1//EN"
       "http://www.w3.org/Graphics/SVG/1.1/DTD/svg11.dtd">
<svg version="1.1" xmlns="http://www.w3.org/2000/svg" xmlns:xlink="http://www.w3.org/1999/xlink" viewBox="0 0 19.4414 17.8965">
 <g>
  <rect height="17.8965" opacity="0" width="19.4414" x="0" y="0"/>
  <path d="M0 14.5879C0 16.6113 1.23047 17.8965 3.13086 17.8965L15.9551 17.8965C17.8555 17.8965 19.0859 16.6113 19.0859 14.5879L19.0859 3.30859C19.0859 1.28516 17.8145 0 15.9551 0L3.13086 0C1.23047 0 0 1.28516 0 3.30859ZM2.20117 14.3145L2.20117 3.58203C2.20117 2.7207 2.69336 2.20117 3.5 2.20117L15.5859 2.20117C16.3789 2.20117 16.8848 2.7207 16.8848 3.58203L16.8848 14.3145C16.8848 15.1758 16.3789 15.6953 15.5859 15.6953L3.5 15.6953C2.69336 15.6953 2.20117 15.1758 2.20117 14.3145ZM9.54297 14.2461C12.4688 14.2461 14.8477 11.8672 14.8477 8.94141C14.8477 6.01562 12.4688 3.63672 9.54297 3.63672C6.61719 3.63672 4.23828 6.01562 4.23828 8.94141C4.23828 11.8672 6.61719 14.2461 9.54297 14.2461ZM9.54297 12.4961C7.56055 12.4961 5.98828 10.9238 5.98828 8.94141C5.98828 6.95898 7.56055 5.38672 9.54297 5.38672C11.5254 5.38672 13.0977 6.95898 13.0977 8.94141C13.0977 10.9238 11.5254 12.4961 9.54297 12.4961Z" fill="black" fill-opacity="0.85"/>
 </g>
</svg>
