<?xml version="1.0" encoding="UTF-8"?>
<!--Generator: Apple Native CoreSVG 326-->
<!DOCTYPE svg
PUBLIC "-//W3C//DTD SVG 1.1//EN"
       "http://www.w3.org/Graphics/SVG/1.1/DTD/svg11.dtd">
<svg version="1.1" xmlns="http://www.w3.org/2000/svg" xmlns:xlink="http://www.w3.org/1999/xlink" viewBox="0 0 20.6172 36.2988">
 <g>
  <rect height="36.2988" opacity="0" width="20.6172" x="0" y="0"/>
  <path d="M3.77344 30.0508L16.4883 30.0508C18.8809 30.0508 20.2617 28.6289 20.2617 26.209L20.2617 6.68555C20.2617 4.25195 18.8809 2.84375 16.4883 2.84375L12.8789 2.84375L12.8789 2.73438C12.8789 1.12109 11.7715 0.0136719 10.1309 0C8.49023 0.0136719 7.38281 1.12109 7.38281 2.73438L7.38281 2.84375L3.77344 2.84375C1.38086 2.84375 0 4.25195 0 6.68555L0 26.209C0 28.6289 1.38086 30.0508 3.77344 30.0508ZM3.88281 27.7812C2.85742 27.7812 2.2832 27.1934 2.2832 26.1816L2.2832 6.71289C2.2832 5.70117 2.85742 5.11328 3.88281 5.11328L16.3789 5.11328C17.4043 5.11328 17.9785 5.70117 17.9785 6.71289L17.9785 26.1816C17.9785 27.1934 17.4043 27.7812 16.3789 27.7812ZM10.1309 3.77344C9.57031 3.77344 9.13281 3.32227 9.13281 2.76172C9.13281 2.21484 9.57031 1.76367 10.1309 1.76367C10.6914 1.76367 11.1289 2.21484 11.1289 2.76172C11.1289 3.32227 10.6914 3.77344 10.1309 3.77344ZM13.3164 36.0664L19.2773 36.0664C19.8242 36.0664 20.2617 35.6289 20.2617 35.082C20.2617 34.5215 19.8242 34.0703 19.2773 34.0703L13.3164 34.0703C11.7441 34.0703 10.9375 33.4141 10.9375 31.8418L10.9375 28.5469L8.94141 28.5469L8.94141 31.8418C8.94141 34.5215 10.6367 36.0664 13.3164 36.0664Z" fill="black" fill-opacity="0.25"/>
  <path d="M5.5918 25.8535L14.6973 25.8535C15.5312 25.8535 16.0781 25.3203 16.0781 24.5L16.0781 9.77539C16.0781 8.95508 15.5312 8.42188 14.6973 8.42188L5.5918 8.42188C4.75781 8.42188 4.21094 8.95508 4.21094 9.77539L4.21094 24.5C4.21094 25.3203 4.75781 25.8535 5.5918 25.8535Z" fill="#af52de"/>
  <path d="M8.44922 23.1738C8.03906 23.1738 7.7793 22.8867 7.7793 22.5176C7.7793 22.1348 8.03906 21.834 8.44922 21.834L11.8398 21.834C12.2363 21.834 12.5098 22.1348 12.5098 22.5176C12.5098 22.8867 12.2363 23.1738 11.8398 23.1738ZM7.41016 20.3164C7 20.3164 6.72656 20.0293 6.72656 19.6465C6.72656 19.2773 7 18.9766 7.41016 18.9766L12.9199 18.9766C13.3027 18.9766 13.5898 19.2773 13.5898 19.6465C13.5898 20.0293 13.3027 20.3164 12.9199 20.3164ZM10.1309 17.0762C8.95508 17.0762 7.9707 16.1602 7.9707 14.957C7.9707 14.3008 8.3125 13.6445 8.64062 13.0566L9.74805 11.0059C9.98047 10.5684 10.2812 10.5547 10.5137 11.0059L11.6211 13.0566C11.9492 13.6445 12.291 14.3008 12.291 14.957C12.291 16.1602 11.3203 17.0762 10.1309 17.0762Z" fill="white"/>
 </g>
</svg>
