<?xml version="1.0" encoding="UTF-8"?>
<!--Generator: Apple Native CoreSVG 326-->
<!DOCTYPE svg
PUBLIC "-//W3C//DTD SVG 1.1//EN"
       "http://www.w3.org/Graphics/SVG/1.1/DTD/svg11.dtd">
<svg version="1.1" xmlns="http://www.w3.org/2000/svg" xmlns:xlink="http://www.w3.org/1999/xlink" viewBox="0 0 25.5254 25.1699">
 <g>
  <rect height="25.1699" opacity="0" width="25.5254" x="0" y="0"/>
  <path d="M4.29297 25.1699L20.877 25.1699C23.748 25.1699 25.1699 23.7617 25.1699 20.9453L25.1699 4.23828C25.1699 1.42188 23.748 0 20.877 0L4.29297 0C1.43555 0 0 1.42188 0 4.23828L0 20.9453C0 23.7617 1.43555 25.1699 4.29297 25.1699ZM4.32031 22.9688C2.95312 22.9688 2.20117 22.2441 2.20117 20.8223L2.20117 4.36133C2.20117 2.93945 2.95312 2.20117 4.32031 2.20117L20.8496 2.20117C22.2031 2.20117 22.9688 2.93945 22.9688 4.36133L22.9688 20.8223C22.9688 22.2441 22.2031 22.9688 20.8496 22.9688Z" fill="black" fill-opacity="0.85"/>
  <path d="M11.9355 18.9766C14.6152 18.9766 16.0645 17.541 16.0645 14.9434L16.0645 7.28711C16.0645 6.53516 15.6816 6.05664 14.957 6.05664C14.2598 6.05664 13.877 6.5625 13.877 7.28711L13.877 14.916C13.877 16.2832 13.1797 17.1035 12.0449 17.1035C11.0195 17.1035 10.3359 16.5977 9.99414 15.709C9.76172 15.1895 9.46094 14.9707 8.99609 14.9707C8.39453 14.9707 7.98438 15.3945 7.98438 15.9824C7.98438 16.2148 8.02539 16.4199 8.09375 16.625C8.57227 18.0469 10.0488 18.9766 11.9355 18.9766Z" fill="black" fill-opacity="0.85"/>
 </g>
</svg>
