<?xml version="1.0" encoding="UTF-8"?>
<!--Generator: Apple Native CoreSVG 326-->
<!DOCTYPE svg
PUBLIC "-//W3C//DTD SVG 1.1//EN"
       "http://www.w3.org/Graphics/SVG/1.1/DTD/svg11.dtd">
<svg version="1.1" xmlns="http://www.w3.org/2000/svg" xmlns:xlink="http://www.w3.org/1999/xlink" viewBox="0 0 33.0176 32.334">
 <g>
  <rect height="32.334" opacity="0" width="33.0176" x="0" y="0"/>
  <path d="M30.8027 12.4277L30.8027 26.2637C30.8027 29.0801 29.3672 30.502 26.5098 30.502L12.7832 30.502C9.93945 30.502 8.49023 29.0801 8.49023 26.2637L8.49023 26.0312L19.8789 26.0312C23.7617 26.0312 26.0312 23.7891 26.0312 19.9336L26.0312 8.18945L26.5098 8.18945C29.3672 8.18945 30.8027 9.59766 30.8027 12.4277Z" fill="black" fill-opacity="0.85"/>
  <path d="M24.1719 6.09766L24.1719 19.9336C24.1719 22.75 22.7363 24.1719 19.8789 24.1719L6.15234 24.1719C3.30859 24.1719 1.85938 22.75 1.85938 19.9336L1.85938 6.09766C1.85938 3.28125 3.30859 1.85938 6.15234 1.85938L19.8789 1.85938C22.7363 1.85938 24.1719 3.28125 24.1719 6.09766ZM14.3418 7.56055L14.3418 15.4355C14.3418 16.8301 13.6172 17.6777 12.4551 17.6777C11.4023 17.6777 10.7051 17.1582 10.3496 16.2422C10.1035 15.709 9.78906 15.4766 9.31055 15.4766C8.68164 15.4766 8.25781 15.9141 8.25781 16.5293C8.25781 16.7754 8.29883 16.9805 8.38086 17.1992C8.87305 18.6621 10.3906 19.6191 12.3457 19.6191C15.1211 19.6191 16.6113 18.1426 16.6113 15.4629L16.6113 7.56055C16.6113 6.78125 16.2148 6.30273 15.4629 6.30273C14.7383 6.30273 14.3418 6.80859 14.3418 7.56055Z" fill="black" fill-opacity="0.85"/>
 </g>
</svg>
