<?xml version="1.0" encoding="UTF-8"?>
<!--Generator: Apple Native CoreSVG 326-->
<!DOCTYPE svg
PUBLIC "-//W3C//DTD SVG 1.1//EN"
       "http://www.w3.org/Graphics/SVG/1.1/DTD/svg11.dtd">
<svg version="1.1" xmlns="http://www.w3.org/2000/svg" xmlns:xlink="http://www.w3.org/1999/xlink" viewBox="0 0 29.2852 28.6699">
 <g>
  <rect height="28.6699" opacity="0" width="29.2852" x="0" y="0"/>
  <path d="M28.9297 10.5957L28.9297 24.4316C28.9297 27.248 27.5078 28.6699 24.6504 28.6699L10.9238 28.6699C8.06641 28.6699 6.63086 27.248 6.63086 24.4316L6.63086 22.3398L8.83203 22.3398L8.83203 24.3086C8.83203 25.7305 9.61133 26.4688 10.9512 26.4688L24.6094 26.4688C25.9766 26.4688 26.7285 25.7305 26.7285 24.3086L26.7285 10.7188C26.7285 9.29688 25.9766 8.55859 24.6094 8.55859L22.2988 8.55859L22.2988 6.35742L24.6504 6.35742C27.5078 6.35742 28.9297 7.76562 28.9297 10.5957Z" fill="black" fill-opacity="0.85"/>
  <path d="M18.0195 0.0273438L4.29297 0.0273438C1.43555 0.0273438 0 1.44922 0 4.26562L0 18.1016C0 20.918 1.43555 22.3398 4.29297 22.3398L18.0195 22.3398C20.877 22.3398 22.2988 20.918 22.2988 18.1016L22.2988 4.26562C22.2988 1.44922 20.877 0.0273438 18.0195 0.0273438ZM17.9785 2.22852C19.3457 2.22852 20.0977 2.9668 20.0977 4.38867L20.0977 17.9785C20.0977 19.4004 19.3457 20.1387 17.9785 20.1387L4.32031 20.1387C2.98047 20.1387 2.20117 19.4004 2.20117 17.9785L2.20117 4.38867C2.20117 2.9668 2.98047 2.22852 4.32031 2.22852Z" fill="black" fill-opacity="0.85"/>
  <path d="M10.5 17.582C13.1934 17.582 14.6289 16.1465 14.6289 13.5625L14.6289 5.89258C14.6289 5.14062 14.2461 4.67578 13.5215 4.67578C12.8242 4.67578 12.4414 5.16797 12.4414 5.89258L12.4414 13.5352C12.4414 14.8887 11.7441 15.709 10.6094 15.709C9.58398 15.709 8.90039 15.2031 8.55859 14.3145C8.32617 13.7949 8.02539 13.5762 7.56055 13.5762C6.95898 13.5762 6.54883 14 6.54883 14.5879C6.54883 14.8203 6.58984 15.0254 6.6582 15.2305C7.13672 16.6523 8.61328 17.582 10.5 17.582Z" fill="black" fill-opacity="0.85"/>
 </g>
</svg>
