<?xml version="1.0" encoding="UTF-8"?>
<!--Generator: Apple Native CoreSVG 326-->
<!DOCTYPE svg
PUBLIC "-//W3C//DTD SVG 1.1//EN"
       "http://www.w3.org/Graphics/SVG/1.1/DTD/svg11.dtd">
<svg version="1.1" xmlns="http://www.w3.org/2000/svg" xmlns:xlink="http://www.w3.org/1999/xlink" viewBox="0 0 25.5254 25.1699">
 <g>
  <rect height="25.1699" opacity="0" width="25.5254" x="0" y="0"/>
  <path d="M4.29297 25.1699L20.877 25.1699C23.748 25.1699 25.1699 23.7617 25.1699 20.9453L25.1699 4.23828C25.1699 1.42188 23.748 0 20.877 0L4.29297 0C1.43555 0 0 1.42188 0 4.23828L0 20.9453C0 23.7617 1.43555 25.1699 4.29297 25.1699Z" fill="black" fill-opacity="0.85"/>
  <path d="M8.91406 19.0449C8.2168 19.0449 7.79297 18.5664 7.79297 17.7598L7.79297 7.13672C7.79297 6.33008 8.2168 5.85156 8.91406 5.85156C9.65234 5.85156 10.0625 6.33008 10.0625 7.13672L10.0625 11.9629L10.1445 11.9629L15.6953 6.30273C16.0234 5.98828 16.2695 5.85156 16.6113 5.85156C17.1992 5.85156 17.6504 6.28906 17.6504 6.82227C17.6504 7.13672 17.5547 7.36914 17.3086 7.64258L13.4395 11.6074L17.6504 17.1172C17.8418 17.3906 17.9648 17.6914 17.9648 17.9785C17.9648 18.5938 17.5137 19.0449 16.8711 19.0449C16.4746 19.0449 16.1738 18.8672 15.8867 18.4844L11.7852 13.0703L10.0625 14.8477L10.0625 17.7598C10.0625 18.5664 9.65234 19.0449 8.91406 19.0449Z" fill="white"/>
 </g>
</svg>
