<?xml version="1.0" encoding="UTF-8"?>
<!--Generator: Apple Native CoreSVG 326-->
<!DOCTYPE svg
PUBLIC "-//W3C//DTD SVG 1.1//EN"
       "http://www.w3.org/Graphics/SVG/1.1/DTD/svg11.dtd">
<svg version="1.1" xmlns="http://www.w3.org/2000/svg" xmlns:xlink="http://www.w3.org/1999/xlink" viewBox="0 0 38.9922 22.5176">
 <g>
  <rect height="22.5176" opacity="0" width="38.9922" x="0" y="0"/>
  <path d="M7.13672 19.209L10.8008 21.957C11.5254 22.5039 12.4551 22.2168 12.4551 21.2324L12.4551 19.3047L31.3223 19.3047L31.3223 21.2324C31.3223 22.1895 32.2383 22.5312 32.9902 21.957L36.6543 19.209C37.1602 18.8398 37.1465 18.1289 36.6543 17.7734L32.9902 15.0527C32.2383 14.4785 31.3223 14.8203 31.3223 15.7637L31.3223 17.7188L12.4551 17.7188L12.4551 15.7637C12.4551 14.8203 11.5527 14.4785 10.8008 15.0527L7.13672 17.7734C6.63086 18.1426 6.63086 18.8398 7.13672 19.209Z" fill="black" fill-opacity="0.85"/>
  <path d="M18.4434 10.3906L24.3496 10.3906C27.5488 10.3906 28.5332 9.37891 29.8184 7.36914L30.5293 6.01562C31.5957 3.55469 32.5117 2.31055 34.1113 2.31055C35.7109 2.31055 36.8047 4.06055 36.8047 5.76953C36.8047 7.39648 35.8613 8.02539 34.3984 8.02539C32.3066 8.02539 30.4609 6.83594 29.668 5.46875L28.8477 7.49219C29.5996 9.00977 31.6777 10.3906 34.248 10.3906C36.873 10.3906 38.6367 8.76367 38.6367 5.74219C38.6367 2.88477 36.8867 0 34.3164 0C32.3887 0 31.0762 1.18945 29.9141 3.5L29.1348 5.03125C28.1914 6.91797 27.2891 7.95703 24.6504 7.95703L18.7441 7.95703C15.4492 7.95703 14.7793 6.78125 14.1367 4.53906C13.4668 2.2832 12.168 0 9.76172 0C6.83594 0 4.99023 3.18555 4.41602 6.42578L6.08398 6.91797C6.67188 4.01953 8.10742 2.31055 9.625 2.31055C11.2246 2.31055 12.1133 3.91016 12.3594 5.30469C12.6738 7.25977 11.416 8.08008 9.98047 8.08008C8.08008 8.08008 6.42578 7.04102 5.74219 5.70117L4.4707 7.45117C5.20898 8.91406 7.15039 10.3906 9.74805 10.3906C12.168 10.3906 13.9863 8.99609 13.7949 6.28906L13.0977 6.67188C13.5488 8.8457 14.9434 10.3906 18.4434 10.3906ZM0.984375 20.2617C1.53125 20.2617 1.92773 19.8516 1.92773 19.2773L1.92773 10.1172C1.92773 8.57227 2.46094 8.33984 3.74609 8.14844L5.97461 7.80664L5.48242 5.66016L3.62305 5.98828C1.13477 6.39844 0 7.21875 0 10.1172L0.0136719 19.291C0.0136719 19.8652 0.423828 20.2617 0.984375 20.2617Z" fill="black" fill-opacity="0.85"/>
 </g>
</svg>
