<?xml version="1.0" encoding="UTF-8"?>
<!--Generator: Apple Native CoreSVG 326-->
<!DOCTYPE svg
PUBLIC "-//W3C//DTD SVG 1.1//EN"
       "http://www.w3.org/Graphics/SVG/1.1/DTD/svg11.dtd">
<svg version="1.1" xmlns="http://www.w3.org/2000/svg" xmlns:xlink="http://www.w3.org/1999/xlink" viewBox="0 0 43.9072 35.179">
 <g>
  <rect height="35.179" opacity="0" width="43.9072" x="0" y="0"/>
  <path d="M33.9165 0.492815C35.6802 2.87172 36.6919 6.20766 36.6919 9.58461C36.6919 12.9616 35.6665 16.2702 33.9165 18.6764C33.5474 19.2096 32.9185 19.319 32.4126 18.9772C31.9067 18.6354 31.8384 17.9928 32.2212 17.4323C33.6841 15.3131 34.5728 12.5104 34.5728 9.58461C34.5728 6.6725 33.7114 3.8561 32.2212 1.73696C31.8247 1.17641 31.9067 0.53383 32.4126 0.192034C32.9185-0.149763 33.5474-0.0267164 33.9165 0.492815Z" fill="black" fill-opacity="0.85"/>
  <path d="M28.8169 4.07485C29.8696 5.46938 30.4985 7.49281 30.4985 9.58461C30.4985 11.6764 29.8696 13.7135 28.8169 15.108C28.4478 15.6276 27.8052 15.737 27.3403 15.4225C26.7935 15.026 26.7114 14.3561 27.1353 13.7819C27.9146 12.6745 28.3794 11.1705 28.3794 9.58461C28.3794 7.99867 27.9282 6.4811 27.1353 5.38735C26.6978 4.8268 26.7935 4.15688 27.3403 3.77406C27.8052 3.44594 28.4478 3.54164 28.8169 4.07485Z" fill="black" fill-opacity="0.85"/>
  <path d="M18.7233 25.4204L17.7427 26.401L20.4224 29.0534C20.6958 29.3405 20.7095 29.737 20.4224 30.0377L16.0884 34.3717C15.8013 34.6588 15.3364 34.5905 15.1177 34.358L12.8345 32.0612C12.5747 31.8014 12.4653 31.5416 12.4653 31.1998L12.4653 19.1694ZM24.3188 9.52992C24.3188 12.9363 22.3745 15.8226 18.84 17.5785L7.49971 6.24444C8.78669 3.05064 11.9117 0.82094 15.5962 0.82094C20.436 0.82094 24.3188 4.71742 24.3188 9.52992ZM13.313 6.54946C13.313 7.80727 14.3247 8.83266 15.5962 8.83266C16.8677 8.83266 17.8931 7.80727 17.8931 6.54946C17.8931 5.27797 16.8677 4.26625 15.5962 4.26625C14.311 4.26625 13.313 5.27797 13.313 6.54946Z" fill="black" fill-opacity="0.85"/>
  <path d="M2.03369 6.26235L26.7661 30.9674C27.1763 31.3776 27.8599 31.3776 28.2563 30.9674C28.6528 30.5436 28.6665 29.8873 28.2563 29.4772L3.5376 4.77211C3.12744 4.36196 2.45752 4.36196 2.03369 4.77211C1.63721 5.1686 1.63721 5.86586 2.03369 6.26235Z" fill="black" fill-opacity="0.85"/>
 </g>
</svg>
