<?xml version="1.0" encoding="UTF-8"?>
<!--Generator: Apple Native CoreSVG 326-->
<!DOCTYPE svg
PUBLIC "-//W3C//DTD SVG 1.1//EN"
       "http://www.w3.org/Graphics/SVG/1.1/DTD/svg11.dtd">
<svg version="1.1" xmlns="http://www.w3.org/2000/svg" xmlns:xlink="http://www.w3.org/1999/xlink" viewBox="0 0 34.427 18.3066">
 <g>
  <rect height="18.3066" opacity="0" width="34.427" x="0" y="0"/>
  <path d="M0.39709 8.20312C-0.0950974 8.76367-0.163457 9.55664 0.383418 10.0898L4.59436 14.3145C5.14123 14.8613 5.97522 14.834 6.49475 14.3008L8.60022 12.1953L11.6901 15.2715C12.2096 15.8047 13.0436 15.791 13.5768 15.2578L16.4615 12.4004C18.2526 16.1602 21.3287 18.2793 24.9518 18.2793C30.0104 18.2793 34.0709 14.2051 34.0709 9.14648C34.0709 4.07422 30.024 0 24.9518 0C21.3014 0 18.0338 2.10547 16.5846 5.42773L3.66467 5.42773C3.2135 5.42773 2.69397 5.56445 2.35217 5.97461ZM2.54357 9.14648L4.06115 7.64258L18.1569 7.64258C18.8951 4.41602 21.6569 2.1875 24.9518 2.1875C28.7799 2.1875 31.8697 5.29102 31.8697 9.14648C31.8697 12.9883 28.7936 16.0781 24.9518 16.0781C21.6979 16.0781 18.8951 13.8359 18.0748 10.4043L15.2994 10.4043L12.6197 13.084L9.74865 10.1855L7.49279 10.1855L5.56506 12.127ZM25.3619 9.14648C25.3619 10.377 26.36 11.375 27.5904 11.375C28.8209 11.375 29.8053 10.377 29.8053 9.14648C29.8053 7.90234 28.8209 6.93164 27.5904 6.93164C26.36 6.93164 25.3619 7.91602 25.3619 9.14648Z" fill="black" fill-opacity="0.85"/>
 </g>
</svg>
