<?xml version="1.0" encoding="UTF-8"?>
<!--Generator: Apple Native CoreSVG 326-->
<!DOCTYPE svg
PUBLIC "-//W3C//DTD SVG 1.1//EN"
       "http://www.w3.org/Graphics/SVG/1.1/DTD/svg11.dtd">
<svg version="1.1" xmlns="http://www.w3.org/2000/svg" xmlns:xlink="http://www.w3.org/1999/xlink" viewBox="0 0 34.096 17.4863">
 <g>
  <rect height="17.4863" opacity="0" width="34.096" x="0" y="0"/>
  <path d="M33.7413 8.73633C33.7413 3.88281 29.8585 0 25.0324 0C21.3683 0 18.1554 2.1875 16.8566 5.60547L3.36243 5.60547C3.00696 5.60547 2.76087 5.71484 2.48743 5.97461L0.190556 8.25781C-0.0281944 8.47656-0.0965538 8.94141 0.190556 9.22852L4.52454 13.5625C4.82532 13.8496 5.22181 13.8359 5.50891 13.5625L8.16126 10.8828L11.839 14.5605C12.1124 14.834 12.5089 14.834 12.8097 14.5332L16.4874 10.8828C18.1691 15.1074 21.2863 17.459 25.0324 17.459C29.8449 17.459 33.7413 13.5762 33.7413 8.73633ZM25.7159 8.73633C25.7159 7.46484 26.7413 6.45312 28.0128 6.45312C29.2843 6.45312 30.296 7.45117 30.296 8.73633C30.296 10.0078 29.2843 11.0332 28.0128 11.0332C26.7413 11.0332 25.7159 10.0078 25.7159 8.73633Z" fill="black" fill-opacity="0.85"/>
 </g>
</svg>
