<?xml version="1.0" encoding="UTF-8"?>
<!--Generator: Apple Native CoreSVG 326-->
<!DOCTYPE svg
PUBLIC "-//W3C//DTD SVG 1.1//EN"
       "http://www.w3.org/Graphics/SVG/1.1/DTD/svg11.dtd">
<svg version="1.1" xmlns="http://www.w3.org/2000/svg" xmlns:xlink="http://www.w3.org/1999/xlink" viewBox="0 0 26.0424 38.1309">
 <g>
  <rect height="38.1309" opacity="0" width="26.0424" x="0" y="0"/>
  <path d="M21.696 37.8711C22.3386 38.0898 23.0222 37.9531 23.323 37.2969L25.5788 32.4297C25.8659 31.8008 25.5925 31.1445 24.9636 30.8438L22.5437 29.7227L24.2116 26.1816C24.4851 25.5938 24.2253 24.8828 23.6101 24.5957L20.3152 23.0508C22.9402 20.3848 23.8015 17.1445 22.6941 14.0684C21.1355 9.80273 16.4187 7.64258 12.1667 9.21484C7.88742 10.7461 5.71359 15.4219 7.25851 19.6875C8.37961 22.7637 11.155 24.8691 14.4089 25.0742L18.3737 35.9434C18.5105 36.3262 18.7839 36.7637 19.2351 36.9277ZM21.8327 35.7383L20.1374 34.9316L15.8034 23.0508C12.8093 23.4062 10.1433 21.7246 9.14523 19.0039C7.96945 15.791 9.63742 12.2363 12.8503 11.0605C16.1042 9.87109 19.6452 11.5527 20.7937 14.7656C21.8054 17.5 20.7663 20.5488 18.1003 22.3398L18.9343 24.6094L22.0652 26.0859L20.5066 29.3535L21.2175 31.2949L23.4187 32.3203ZM3.04758 37.5156L7.88742 35.2461C8.53 34.9453 8.74875 34.2344 8.44797 33.6328L7.3132 31.2129L10.8816 29.5723C11.4831 29.2988 11.7155 28.5879 11.4421 27.9727L9.91086 24.6641C10.9226 24.5684 11.8933 24.3496 12.7546 24.0078L10.5808 22.6543C10.0066 22.7363 9.41867 22.75 8.66672 22.6953L7.8464 24.9785L9.29562 28.123L6.0007 29.627L5.28976 31.582L6.31515 33.7695L2.91086 35.3691L2.11789 33.6465L6.45187 21.7793C3.93625 20.1523 2.95187 17.1035 3.94992 14.3965C5.05734 11.3477 8.2839 9.70703 11.3601 10.541L14.0261 9.5293C13.5612 9.24219 13.0827 9.00977 12.5495 8.81836C8.2839 7.25977 3.60812 9.41992 2.0632 13.6992C0.928435 16.7754 1.73508 20.1797 4.07297 22.4355L0.121795 33.291C-0.0149241 33.7012-0.0696116 34.1797 0.135467 34.5898L1.43429 36.9141C1.76242 37.5156 2.405 37.8027 3.04758 37.5156ZM14.8464 16.5566C15.8991 16.1738 16.4187 15.0117 16.0359 13.9863C15.6667 12.9609 14.5183 12.4277 13.4792 12.7969C12.4402 13.166 11.9343 14.3145 12.3034 15.3398C12.6862 16.3789 13.8073 16.9395 14.8464 16.5566ZM4.11398 7.98438C4.11398 8.94141 4.29172 9.88477 4.61984 10.7324L6.42453 9.99414C6.17844 9.36523 6.06906 8.69531 6.06906 7.98438C6.06906 4.63477 8.70773 1.95508 12.0437 1.95508C15.3796 1.95508 18.073 4.63477 18.073 7.98438C18.073 10.8418 16.1042 13.207 13.4519 13.8223L13.821 15.75C17.362 14.9297 20.0417 11.7168 20.0417 7.98438C20.0417 3.60938 16.4323 0 12.0573 0C7.69601 0 4.11398 3.60938 4.11398 7.98438Z" fill="black" fill-opacity="0.85"/>
 </g>
</svg>
