<?xml version="1.0" encoding="UTF-8"?>
<!--Generator: Apple Native CoreSVG 326-->
<!DOCTYPE svg
PUBLIC "-//W3C//DTD SVG 1.1//EN"
       "http://www.w3.org/Graphics/SVG/1.1/DTD/svg11.dtd">
<svg version="1.1" xmlns="http://www.w3.org/2000/svg" xmlns:xlink="http://www.w3.org/1999/xlink" viewBox="0 0 30.1875 35.179">
 <g>
  <rect height="35.179" opacity="0" width="30.1875" x="0" y="0"/>
  <path d="M25.5527 18.9772C26.0586 19.319 26.6875 19.2096 27.043 18.6764C28.793 16.2702 29.832 12.9616 29.832 9.58461C29.832 6.20766 28.8066 2.87172 27.043 0.492815C26.6875-0.0267164 26.0586-0.149763 25.5527 0.192034C25.0469 0.53383 24.9648 1.17641 25.3613 1.73696C26.8516 3.8561 27.7129 6.6725 27.7129 9.58461C27.7129 12.5104 26.8242 15.3131 25.3613 17.4323C24.9785 17.9928 25.0469 18.6354 25.5527 18.9772Z" fill="black" fill-opacity="0.85"/>
  <path d="M20.4805 15.4225C20.9453 15.737 21.5879 15.6276 21.957 15.108C22.9961 13.7135 23.625 11.6764 23.625 9.58461C23.625 7.49281 22.9961 5.46938 21.957 4.07485C21.5879 3.54164 20.9453 3.44594 20.4805 3.77406C19.9336 4.15688 19.8379 4.8268 20.2617 5.38735C21.0684 6.4811 21.5059 7.99867 21.5059 9.58461C21.5059 11.1705 21.0547 12.6745 20.2617 13.7819C19.8516 14.3561 19.9336 15.026 20.4805 15.4225Z" fill="black" fill-opacity="0.85"/>
  <path d="M8.73633 0.82094C3.86914 0.82094 0 4.69008 0 9.52992C0 13.1803 2.1875 16.4069 5.60547 17.7057L5.60547 31.1998C5.60547 31.5416 5.71484 31.8014 5.96094 32.0612L8.24414 34.358C8.47656 34.5905 8.94141 34.6588 9.22852 34.3717L13.5625 30.0377C13.8496 29.737 13.8359 29.3405 13.5625 29.0534L10.8691 26.401L14.5605 22.7233C14.8203 22.4498 14.8203 22.0534 14.5332 21.7526L10.8828 18.0748C15.1074 16.3932 17.459 13.276 17.459 9.52992C17.459 4.71742 13.5625 0.82094 8.73633 0.82094ZM8.73633 8.83266C7.46484 8.83266 6.45312 7.80727 6.45312 6.54946C6.45312 5.27797 7.45117 4.26625 8.73633 4.26625C9.99414 4.26625 11.0195 5.27797 11.0195 6.54946C11.0195 7.80727 9.99414 8.83266 8.73633 8.83266Z" fill="black" fill-opacity="0.85"/>
 </g>
</svg>
