<?xml version="1.0" encoding="UTF-8"?>
<!--Generator: Apple Native CoreSVG 326-->
<!DOCTYPE svg
PUBLIC "-//W3C//DTD SVG 1.1//EN"
       "http://www.w3.org/Graphics/SVG/1.1/DTD/svg11.dtd">
<svg version="1.1" xmlns="http://www.w3.org/2000/svg" xmlns:xlink="http://www.w3.org/1999/xlink" viewBox="0 0 18.6348 34.248">
 <g>
  <rect height="34.248" opacity="0" width="18.6348" x="0" y="0"/>
  <path d="M8.18945 33.6875C8.76367 34.166 9.54297 34.2344 10.0898 33.7012L14.3145 29.4766C14.8477 28.9297 14.8203 28.1094 14.3008 27.5762L12.1816 25.4707L15.2715 22.3945C15.8047 21.875 15.7773 21.041 15.2578 20.4941L12.4004 17.623C16.1602 15.8184 18.2793 12.7559 18.2793 9.11914C18.2793 4.07422 14.1914 0 9.14648 0C4.06055 0 0 4.04688 0 9.11914C0 12.7832 2.10547 16.0371 5.42773 17.5L5.42773 30.4062C5.42773 30.8574 5.56445 31.377 5.96094 31.7324ZM9.14648 31.5273L7.62891 30.0234L7.62891 15.9141C4.41602 15.1895 2.1875 12.4141 2.1875 9.11914C2.1875 5.29102 5.29102 2.20117 9.14648 2.20117C12.9883 2.20117 16.0781 5.29102 16.0781 9.11914C16.0781 12.3867 13.8359 15.1895 10.4043 16.0098L10.4043 18.7715L13.084 21.4648L10.1855 24.3223L10.1855 26.5918L12.127 28.5059ZM9.14648 8.70898C10.3633 8.70898 11.3613 7.71094 11.3613 6.48047C11.3613 5.26367 10.3633 4.2793 9.14648 4.2793C7.90234 4.2793 6.93164 5.26367 6.93164 6.48047C6.93164 7.71094 7.91602 8.70898 9.14648 8.70898Z" fill="black" fill-opacity="0.85"/>
 </g>
</svg>
