<?xml version="1.0" encoding="UTF-8"?>
<!--Generator: Apple Native CoreSVG 326-->
<!DOCTYPE svg
PUBLIC "-//W3C//DTD SVG 1.1//EN"
       "http://www.w3.org/Graphics/SVG/1.1/DTD/svg11.dtd">
<svg version="1.1" xmlns="http://www.w3.org/2000/svg" xmlns:xlink="http://www.w3.org/1999/xlink" viewBox="0 0 34.7676 21.6152">
 <g>
  <rect height="21.6152" opacity="0" width="34.7676" x="0" y="0"/>
  <path d="M34.4121 4.22461L34.4121 17.3633C34.4121 20.1797 32.9629 21.6016 30.1191 21.6016L4.29297 21.6016C1.42188 21.6016 0 20.1797 0 17.3633L0 4.22461C0 1.4082 1.42188 0 4.29297 0L30.1191 0C32.9629 0 34.4121 1.42188 34.4121 4.22461ZM12.8789 14.0684C12.6328 14.0684 12.4688 14.2461 12.4688 14.5195L12.4688 16.1055C12.4688 16.3926 12.6328 16.5566 12.8789 16.5566L13.9316 16.5566C14.1777 16.5566 14.3418 16.3926 14.3418 16.1055L14.3418 14.5195C14.3418 14.2461 14.1777 14.0684 13.9316 14.0684ZM15.9824 14.0684C15.7363 14.0684 15.5586 14.2461 15.5586 14.5195L15.5586 16.1055C15.5586 16.3926 15.7363 16.5566 15.9824 16.5566L26.3047 16.5566C26.5508 16.5566 26.7148 16.3926 26.7148 16.1055L26.7148 14.5195C26.7148 14.2461 26.5508 14.0684 26.3047 14.0684ZM28.3691 14.0684C28.0957 14.0684 27.9453 14.2461 27.9453 14.5195L27.9453 16.1055C27.9453 16.3926 28.0957 16.5566 28.3691 16.5566L29.3809 16.5566C29.6543 16.5566 29.8047 16.3926 29.8047 16.1055L29.8047 14.5195C29.8047 14.2461 29.6543 14.0684 29.3809 14.0684ZM4.59375 6.5625L4.59375 15.0254C4.59375 15.791 5.41406 15.9688 5.89258 15.5176L10.0215 11.5801C10.541 11.0879 10.541 10.5 10.0215 10.0078L5.89258 6.08398C5.41406 5.63281 4.59375 5.81055 4.59375 6.5625ZM12.8789 9.54297C12.6328 9.54297 12.4688 9.69336 12.4688 9.99414L12.4688 11.5664C12.4688 11.8672 12.6328 12.0176 12.8789 12.0176L13.9316 12.0176C14.1777 12.0176 14.3418 11.8672 14.3418 11.5664L14.3418 9.99414C14.3418 9.69336 14.1777 9.54297 13.9316 9.54297ZM15.9824 9.54297C15.7363 9.54297 15.5586 9.69336 15.5586 9.99414L15.5586 11.5664C15.5586 11.8672 15.7363 12.0176 15.9824 12.0176L17.0215 12.0176C17.2676 12.0176 17.4316 11.8672 17.4316 11.5664L17.4316 9.99414C17.4316 9.69336 17.2676 9.54297 17.0215 9.54297ZM19.0859 9.54297C18.8125 9.54297 18.6621 9.69336 18.6621 9.99414L18.6621 11.5664C18.6621 11.8672 18.8125 12.0176 19.0859 12.0176L20.125 12.0176C20.3574 12.0176 20.5352 11.8672 20.5352 11.5664L20.5352 9.99414C20.5352 9.69336 20.3574 9.54297 20.125 9.54297ZM22.1758 9.54297C21.9023 9.54297 21.752 9.69336 21.752 9.99414L21.752 11.5664C21.752 11.8672 21.9023 12.0176 22.1758 12.0176L23.1875 12.0176C23.4609 12.0176 23.6113 11.8672 23.6113 11.5664L23.6113 9.99414C23.6113 9.69336 23.4609 9.54297 23.1875 9.54297ZM25.252 9.54297C25.0059 9.54297 24.8555 9.69336 24.8555 9.99414L24.8555 11.5664C24.8555 11.8672 25.0059 12.0176 25.252 12.0176L26.3047 12.0176C26.5508 12.0176 26.7148 11.8672 26.7148 11.5664L26.7148 9.99414C26.7148 9.69336 26.5508 9.54297 26.3047 9.54297ZM28.3691 9.54297C28.0957 9.54297 27.9453 9.69336 27.9453 9.99414L27.9453 11.5664C27.9453 11.8672 28.0957 12.0176 28.3691 12.0176L29.3809 12.0176C29.6543 12.0176 29.8047 11.8672 29.8047 11.5664L29.8047 9.99414C29.8047 9.69336 29.6543 9.54297 29.3809 9.54297ZM12.8789 5.00391C12.6328 5.00391 12.4688 5.16797 12.4688 5.45508L12.4688 7.04102C12.4688 7.31445 12.6328 7.49219 12.8789 7.49219L13.9316 7.49219C14.1777 7.49219 14.3418 7.31445 14.3418 7.04102L14.3418 5.45508C14.3418 5.16797 14.1777 5.00391 13.9316 5.00391ZM15.9824 5.00391C15.7363 5.00391 15.5586 5.16797 15.5586 5.45508L15.5586 7.04102C15.5586 7.31445 15.7363 7.49219 15.9824 7.49219L17.0215 7.49219C17.2676 7.49219 17.4316 7.31445 17.4316 7.04102L17.4316 5.45508C17.4316 5.16797 17.2676 5.00391 17.0215 5.00391ZM19.0859 5.00391C18.8125 5.00391 18.6621 5.16797 18.6621 5.45508L18.6621 7.04102C18.6621 7.31445 18.8125 7.49219 19.0859 7.49219L20.125 7.49219C20.3574 7.49219 20.5352 7.31445 20.5352 7.04102L20.5352 5.45508C20.5352 5.16797 20.3574 5.00391 20.125 5.00391ZM22.1758 5.00391C21.9023 5.00391 21.752 5.16797 21.752 5.45508L21.752 7.04102C21.752 7.31445 21.9023 7.49219 22.1758 7.49219L23.1875 7.49219C23.4609 7.49219 23.6113 7.31445 23.6113 7.04102L23.6113 5.45508C23.6113 5.16797 23.4609 5.00391 23.1875 5.00391ZM25.252 5.00391C25.0059 5.00391 24.8555 5.16797 24.8555 5.45508L24.8555 7.04102C24.8555 7.31445 25.0059 7.49219 25.252 7.49219L26.3047 7.49219C26.5508 7.49219 26.7148 7.31445 26.7148 7.04102L26.7148 5.45508C26.7148 5.16797 26.5508 5.00391 26.3047 5.00391ZM28.3691 5.00391C28.0957 5.00391 27.9453 5.16797 27.9453 5.45508L27.9453 7.04102C27.9453 7.31445 28.0957 7.49219 28.3691 7.49219L29.3809 7.49219C29.6543 7.49219 29.8047 7.31445 29.8047 7.04102L29.8047 5.45508C29.8047 5.16797 29.6543 5.00391 29.3809 5.00391Z" fill="black" fill-opacity="0.85"/>
 </g>
</svg>
