<?xml version="1.0" encoding="UTF-8"?>
<!--Generator: Apple Native CoreSVG 326-->
<!DOCTYPE svg
PUBLIC "-//W3C//DTD SVG 1.1//EN"
       "http://www.w3.org/Graphics/SVG/1.1/DTD/svg11.dtd">
<svg version="1.1" xmlns="http://www.w3.org/2000/svg" xmlns:xlink="http://www.w3.org/1999/xlink" viewBox="0 0 33.291 27.3099">
 <g>
  <rect height="27.3099" opacity="0" width="33.291" x="0" y="0"/>
  <path d="M32.9355 16.3962C32.9355 7.78289 26.3184 0.714533 17.8965 0.00359537C17.459-0.0374203 17.1309 0.277033 17.1309 0.714533L17.1309 5.18524C17.1309 5.55438 17.3906 5.84149 17.7598 5.86883C22.9961 6.51141 27.0703 10.9821 27.0703 16.3962C27.0703 18.8571 26.2227 21.1266 24.7324 23.027C24.541 23.2595 24.5547 23.5602 24.7598 23.779L28.0273 27.0329C28.3281 27.3337 28.793 27.3337 29.0664 27.0055C31.4863 24.1345 32.9355 20.4294 32.9355 16.3962Z" fill="black" fill-opacity="0.85"/>
  <path d="M0 16.3962C0 20.443 1.44922 24.1481 3.86914 27.0192C4.14258 27.3473 4.59375 27.3337 4.9082 27.0329L8.17578 23.779C8.38086 23.5602 8.39453 23.2595 8.20312 23.027C6.69922 21.1266 5.86523 18.8571 5.86523 16.3962C5.86523 10.9821 9.93945 6.51141 15.1758 5.86883C15.5449 5.84149 15.8047 5.55438 15.8047 5.18524L15.8047 0.714533C15.8047 0.277033 15.4766-0.0374203 15.0391 0.00359537C6.61719 0.714533 0 7.78289 0 16.3962Z" fill="black" fill-opacity="0.85"/>
  <path d="M13.3711 22.863C13.8633 22.863 14.1641 22.5348 14.1641 22.0427L14.1641 16.943L15.0391 16.943L19.2637 22.4528C19.4414 22.7126 19.6465 22.863 19.9609 22.863C20.4805 22.863 20.6992 22.4528 20.6992 22.1657C20.6992 21.947 20.6172 21.7829 20.4805 21.6052L16.7891 16.943L20.5625 16.943C20.8223 16.943 21.0273 16.738 21.0273 16.4782C21.0273 16.2184 20.8223 16.027 20.5625 16.027L16.8164 16.027L20.4941 11.488C20.6172 11.3102 20.6855 11.1325 20.6855 10.9684C20.6855 10.5583 20.3574 10.2712 19.9609 10.2712C19.7012 10.2712 19.4414 10.4626 19.291 10.6677L15.0527 16.027L14.1641 16.027L14.1641 11.0778C14.1641 10.572 13.8633 10.2712 13.3711 10.2712C12.8789 10.2712 12.5645 10.572 12.5645 11.0778L12.5645 16.027L11.6211 16.027C11.3613 16.027 11.1699 16.2048 11.1699 16.4919C11.1699 16.7516 11.3613 16.943 11.6211 16.943L12.5645 16.943L12.5645 22.0427C12.5645 22.5348 12.8789 22.863 13.3711 22.863Z" fill="black" fill-opacity="0.85"/>
 </g>
</svg>
