<?xml version="1.0" encoding="UTF-8"?>
<!--Generator: Apple Native CoreSVG 326-->
<!DOCTYPE svg
PUBLIC "-//W3C//DTD SVG 1.1//EN"
       "http://www.w3.org/Graphics/SVG/1.1/DTD/svg11.dtd">
<svg version="1.1" xmlns="http://www.w3.org/2000/svg" xmlns:xlink="http://www.w3.org/1999/xlink" viewBox="0 0 19.6328 25.2246">
 <g>
  <rect height="25.2246" opacity="0" width="19.6328" x="0" y="0"/>
  <path d="M17.3906 25.2109C18.0742 25.2109 18.6484 24.7051 18.6484 24.0078C18.6484 23.6797 18.5391 23.3926 18.293 23.0918L9.70703 12.5098L18.2793 2.0918C18.4707 1.85938 18.6348 1.49023 18.6348 1.17578C18.6348 0.519531 18.1016 0 17.3906 0C16.9258 0 16.543 0.287109 16.2559 0.65625L6.67188 12.5098L16.2559 24.541C16.584 24.9512 16.9121 25.2109 17.3906 25.2109ZM4.16992 25.2109C4.96289 25.2109 5.52344 24.623 5.52344 23.8164L5.52344 1.38086C5.52344 0.574219 4.94922 0 4.16992 0C3.39062 0 2.80273 0.574219 2.80273 1.38086L2.80273 23.8164C2.80273 24.623 3.39062 25.2109 4.16992 25.2109ZM0 12.4961C0 13.0156 0.382812 13.3984 0.902344 13.3984L18.3613 13.3984C18.8809 13.3984 19.2773 13.0156 19.2773 12.4961C19.2773 11.9766 18.8809 11.5938 18.3613 11.5938L0.902344 11.5938C0.382812 11.5938 0 11.9766 0 12.4961Z" fill="black" fill-opacity="0.85"/>
 </g>
</svg>
