<?xml version="1.0" encoding="UTF-8"?>
<!--Generator: Apple Native CoreSVG 326-->
<!DOCTYPE svg
PUBLIC "-//W3C//DTD SVG 1.1//EN"
       "http://www.w3.org/Graphics/SVG/1.1/DTD/svg11.dtd">
<svg version="1.1" xmlns="http://www.w3.org/2000/svg" xmlns:xlink="http://www.w3.org/1999/xlink" viewBox="0 0 33.5408 27.9043">
 <g>
  <rect height="27.9043" opacity="0" width="33.5408" x="0" y="0"/>
  <path d="M16.5995 27.8906C24.2968 27.8906 30.5448 21.6426 30.5448 13.9453C30.5448 6.24805 24.2968 0 16.5995 0C8.90224 0 2.65419 6.24805 2.65419 13.9453L4.97841 13.9453C4.97841 7.51953 10.1737 2.32422 16.5995 2.32422C23.0253 2.32422 28.2206 7.51953 28.2206 13.9453C28.2206 20.3711 23.0253 25.5664 16.5995 25.5664C12.7167 25.5664 9.2577 23.6523 7.19325 20.7539C6.76942 20.1934 6.12684 20.0156 5.55263 20.3574C5.00575 20.6992 4.84169 21.4648 5.30653 22.0664C7.83583 25.6074 11.9784 27.8906 16.5995 27.8906ZM0.972548 11.3066C-0.0118272 11.3066-0.257921 11.9766 0.275282 12.7422L3.33778 17.0898C3.78895 17.7188 4.4452 17.7051 4.8827 17.0898L7.93153 12.7285C8.46474 11.9766 8.20497 11.3066 7.24794 11.3066Z" fill="black" fill-opacity="0.85"/>
  <path d="M13.5233 20.2207C14.0018 20.2207 14.3163 19.9062 14.3163 19.4004L14.3163 14.3145L15.1913 14.3145L19.4159 19.8242C19.5936 20.0703 19.7987 20.2207 20.1132 20.2207C20.6327 20.2207 20.8515 19.8242 20.8515 19.5234C20.8515 19.3184 20.7694 19.1543 20.6327 18.9766L16.9276 14.3145L20.7147 14.3145C20.9745 14.3145 21.1796 14.1094 21.1796 13.8359C21.1796 13.5762 20.9745 13.3848 20.7147 13.3848L16.955 13.3848L20.6327 8.8457C20.7558 8.68164 20.8378 8.50391 20.8378 8.33984C20.8378 7.92969 20.5097 7.62891 20.1132 7.62891C19.8397 7.62891 19.5936 7.82031 19.4433 8.02539L15.205 13.3848L14.3163 13.3848L14.3163 8.43555C14.3163 7.94336 14.0018 7.62891 13.5233 7.62891C13.0311 7.62891 12.7167 7.94336 12.7167 8.43555L12.7167 13.3848L11.7733 13.3848C11.4999 13.3848 11.3222 13.5762 11.3222 13.8496C11.3222 14.123 11.4999 14.3145 11.7733 14.3145L12.7167 14.3145L12.7167 19.4004C12.7167 19.9062 13.0311 20.2207 13.5233 20.2207Z" fill="black" fill-opacity="0.85"/>
 </g>
</svg>
