<?xml version="1.0" encoding="UTF-8"?>
<!--Generator: Apple Native CoreSVG 326-->
<!DOCTYPE svg
PUBLIC "-//W3C//DTD SVG 1.1//EN"
       "http://www.w3.org/Graphics/SVG/1.1/DTD/svg11.dtd">
<svg version="1.1" xmlns="http://www.w3.org/2000/svg" xmlns:xlink="http://www.w3.org/1999/xlink" viewBox="0 0 38.1035 20.8223">
 <g>
  <rect height="20.8223" opacity="0" width="38.1035" x="0" y="0"/>
  <path d="M1.25781 20.8223C2.02344 20.8223 2.51562 20.3711 2.51562 19.5098L2.51562 14.0273L4.15625 11.375L8.68164 19.8242C9.00977 20.4531 9.31055 20.7539 9.95312 20.7539C10.623 20.7539 11.1152 20.2617 11.1152 19.6055C11.1152 19.2637 10.9102 18.8809 10.7598 18.5938L5.75586 9.35156L10.1445 2.20117C10.3086 1.92773 10.459 1.6543 10.459 1.28516C10.459 0.560547 9.92578 0.0957031 9.31055 0.0957031C8.70898 0.0957031 8.4082 0.451172 8.10742 0.943359L2.54297 10.3086L2.51562 10.3086L2.51562 1.33984C2.51562 0.519531 2.03711 0.0410156 1.2168 0.0410156C0.587891 0.0410156 0 0.410156 0 1.33984L0 19.5098C0 20.3711 0.546875 20.8223 1.25781 20.8223ZM14.8613 20.7539C15.5586 20.7539 16.1191 20.3574 16.1191 19.4414L16.1191 13.2344L18.6074 13.2344C21.9844 13.2344 23.8164 10.2812 23.8164 6.76758C23.8164 3.44531 22.1211 0.314453 18.7031 0.314453L14.8477 0.314453C14.0547 0.314453 13.6172 0.847656 13.6172 1.62695L13.6172 19.4414C13.6172 20.2617 14.0547 20.7539 14.8613 20.7539ZM16.1191 11.0605L16.1191 2.50195L18.1152 2.50195C20.3984 2.50195 21.3418 4.33398 21.3418 6.76758C21.3418 9.13281 20.4258 11.0605 18.1152 11.0605ZM28 20.8223C28.875 20.8223 29.2441 20.1934 29.2441 19.4277L29.2441 11.3203L35.2324 11.3203L35.2324 19.4277C35.2324 20.248 35.6562 20.8223 36.4766 20.8223C37.2969 20.8223 37.748 20.248 37.748 19.4277L37.748 1.43555C37.748 0.615234 37.2969 0.0410156 36.4766 0.0410156C35.6562 0.0410156 35.2324 0.615234 35.2324 1.43555L35.2324 9.0918L29.2441 9.0918L29.2441 1.43555C29.2441 0.669922 28.875 0.0410156 28 0.0410156C27.1797 0.0410156 26.7422 0.615234 26.7422 1.43555L26.7422 19.4277C26.7422 20.248 27.1797 20.8223 28 20.8223Z" fill="black" fill-opacity="0.85"/>
 </g>
</svg>
