<?xml version="1.0" encoding="UTF-8"?>
<!--Generator: Apple Native CoreSVG 326-->
<!DOCTYPE svg
PUBLIC "-//W3C//DTD SVG 1.1//EN"
       "http://www.w3.org/Graphics/SVG/1.1/DTD/svg11.dtd">
<svg version="1.1" xmlns="http://www.w3.org/2000/svg" xmlns:xlink="http://www.w3.org/1999/xlink" viewBox="0 0 28.2461 27.9043">
 <g>
  <rect height="27.9043" opacity="0" width="28.2461" x="0" y="0"/>
  <path d="M13.9453 27.8906C21.6426 27.8906 27.8906 21.6289 27.8906 13.9453C27.8906 6.24805 21.6426 0 13.9453 0C6.26172 0 0 6.24805 0 13.9453C0 21.6289 6.26172 27.8906 13.9453 27.8906Z" fill="black" fill-opacity="0.85"/>
  <path d="M5.94727 18.5527C5.55078 18.5527 5.1543 18.3203 5.1543 17.7051L5.1543 10.1992C5.1543 9.67969 5.44141 9.35156 5.94727 9.35156C6.49414 9.35156 6.76758 9.66602 6.76758 10.1992L6.76758 13.6035L6.86328 13.6035L8.94141 9.85742C9.10547 9.55664 9.26953 9.36523 9.69336 9.36523C10.1582 9.36523 10.4043 9.74805 10.4043 10.1035C10.4043 10.3359 10.3633 10.4863 10.2402 10.6914L8.57227 13.5488L10.4863 17.2129C10.5684 17.3633 10.623 17.582 10.623 17.7734C10.623 18.252 10.2539 18.5254 9.89844 18.5254C9.5293 18.5254 9.22852 18.334 9.0918 18.0332L7.38281 14.6836L6.78125 15.75L6.78125 17.7051C6.78125 18.2246 6.48047 18.5527 5.94727 18.5527ZM12.1543 18.5254C11.6621 18.5254 11.3477 18.1836 11.3477 17.6777L11.3477 10.3359C11.3477 9.81641 11.6484 9.48828 12.1543 9.48828L14.0137 9.48828C15.5723 9.48828 16.4062 10.8418 16.4062 12.4824C16.4062 14.0137 15.5996 15.4766 13.918 15.4766L12.9746 15.4766L12.9746 17.6777C12.9746 18.1836 12.6602 18.5254 12.1543 18.5254ZM12.9746 14.1777L13.5762 14.1777C14.4785 14.1777 14.8066 13.3984 14.8066 12.4824C14.8066 11.5664 14.4922 10.7871 13.5898 10.7871L12.9746 10.7871ZM18.0605 18.5527C17.5137 18.5527 17.2402 18.2109 17.2402 17.6641L17.2402 10.2129C17.2402 9.66602 17.5137 9.35156 18.0605 9.35156C18.5801 9.35156 18.8535 9.66602 18.8535 10.2129L18.8535 13.1934L21.041 13.1934L21.041 10.2129C21.041 9.66602 21.3281 9.35156 21.8477 9.35156C22.3945 9.35156 22.668 9.66602 22.668 10.2129L22.668 17.6641C22.668 18.2109 22.3945 18.5527 21.8477 18.5527C21.3145 18.5527 21.041 18.2109 21.041 17.6641L21.041 14.5605L18.8535 14.5605L18.8535 17.6641C18.8535 18.2109 18.5938 18.5527 18.0605 18.5527Z" fill="white"/>
 </g>
</svg>
