<?xml version="1.0" encoding="UTF-8"?>
<!--Generator: Apple Native CoreSVG 326-->
<!DOCTYPE svg
PUBLIC "-//W3C//DTD SVG 1.1//EN"
       "http://www.w3.org/Graphics/SVG/1.1/DTD/svg11.dtd">
<svg version="1.1" xmlns="http://www.w3.org/2000/svg" xmlns:xlink="http://www.w3.org/1999/xlink" viewBox="0 0 31.8008 40.8037">
 <g>
  <rect height="40.8037" opacity="0" width="31.8008" x="0" y="0"/>
  <path d="M31.4453 20.395C31.4453 27.2401 27.0597 33.0653 20.9478 35.2072C21.1398 34.4202 21.0029 33.6279 20.6062 32.9975C25.6676 31.057 29.2441 26.1589 29.2441 20.395C29.2441 12.9028 23.2012 6.85986 15.7227 6.85986C8.23047 6.85986 2.20117 12.9028 2.20117 20.395C2.20117 26.1513 5.76018 31.044 10.8133 32.9901C10.4131 33.621 10.2721 34.4127 10.4588 35.1935C4.3611 33.0393 0 27.2168 0 20.395C0 11.7134 7.04102 4.65869 15.7227 4.65869C24.3906 4.65869 31.4453 11.7134 31.4453 20.395Z" fill="black" fill-opacity="0.85"/>
  <path d="M13.248 33.561C12.2637 33.561 11.9766 34.5317 12.5098 35.2563L14.9844 38.5513C15.3672 39.0571 16.0645 39.0708 16.4609 38.5513L18.8945 35.27C19.4688 34.5181 19.127 33.561 18.1699 33.561Z" fill="black" fill-opacity="0.85"/>
  <path d="M15.7227 9.47119C9.69336 9.47119 4.8125 14.3657 4.8125 20.395C4.8125 26.438 9.69336 31.3052 15.7227 31.3052C21.752 31.3052 26.6328 26.438 26.6328 20.395C26.6328 14.3657 21.752 9.47119 15.7227 9.47119ZM15.7227 11.6724C20.5488 11.6724 24.4316 15.5552 24.4316 20.395C24.4316 25.2212 20.5488 29.104 15.7227 29.104C10.8828 29.104 7.01367 25.2212 7.01367 20.395C7.01367 15.5552 10.8828 11.6724 15.7227 11.6724ZM13.6992 25.6313L18.6758 25.6313C19.168 25.6313 19.5781 25.2896 19.5781 24.77C19.5781 24.2505 19.168 23.8813 18.6758 23.8813L14.7656 23.8813L14.7656 16.1157C14.7656 15.4321 14.3555 14.9673 13.6992 14.9673C13.0566 14.9673 12.7012 15.4458 12.7012 16.1157L12.7012 24.4966C12.7012 25.1665 13.0566 25.6313 13.6992 25.6313Z" fill="black" fill-opacity="0.85"/>
 </g>
</svg>
