<?xml version="1.0" encoding="UTF-8"?>
<!--Generator: Apple Native CoreSVG 326-->
<!DOCTYPE svg
PUBLIC "-//W3C//DTD SVG 1.1//EN"
       "http://www.w3.org/Graphics/SVG/1.1/DTD/svg11.dtd">
<svg version="1.1" xmlns="http://www.w3.org/2000/svg" xmlns:xlink="http://www.w3.org/1999/xlink" viewBox="0 0 31.8965 23.8574">
 <g>
  <rect height="23.8574" opacity="0" width="31.8965" x="0" y="0"/>
  <path d="M11.4707 0C3.54102 0 0 3.65039 0 11.1152L0 19.6875C0 22.4492 1.42188 23.8438 4.19727 23.8438L27.3438 23.8438C30.1191 23.8438 31.541 22.4355 31.541 19.6875L31.541 11.1152C31.541 3.65039 28 0 20.0703 0Z" fill="black" fill-opacity="0.85"/>
  <path d="M10.2676 17.6504C9.61133 17.6504 9.25586 17.2402 9.25586 16.5703L9.25586 7.0957C9.25586 6.52148 9.7207 6.05664 10.2812 6.05664C10.8418 6.05664 11.3203 6.52148 11.3203 7.0957L11.3203 15.9277L14.3281 15.9277C14.793 15.9277 15.1758 16.3242 15.1758 16.7891C15.1758 17.2539 14.793 17.6504 14.3281 17.6504ZM17.2676 17.6367C16.6113 17.6367 16.2969 17.2812 16.2969 16.8027C16.2969 16.3652 16.5703 16.0098 16.8438 15.6816L19.2773 12.5508C20.0156 11.5938 20.8086 10.4453 20.8086 9.32422C20.8086 8.32617 20.3301 7.57422 19.4961 7.57422C18.6895 7.57422 18.3477 8.17578 18.0742 9.11914C17.9238 9.57031 17.6504 9.78906 17.1855 9.78906C16.625 9.78906 16.3242 9.41992 16.3242 8.91406C16.3242 7.42383 17.7051 5.93359 19.5098 5.93359C21.4512 5.93359 22.7363 7.31445 22.7363 9.22852C22.7363 10.4727 22.2852 11.498 20.8633 13.2617L18.8262 15.8457L18.8262 15.9688L22.1621 15.9688C22.6406 15.9688 22.9688 16.2832 22.9688 16.8027C22.9688 17.2949 22.6543 17.6367 22.1621 17.6367Z" fill="white"/>
 </g>
</svg>
