<?xml version="1.0" encoding="UTF-8"?>
<!--Generator: Apple Native CoreSVG 326-->
<!DOCTYPE svg
PUBLIC "-//W3C//DTD SVG 1.1//EN"
       "http://www.w3.org/Graphics/SVG/1.1/DTD/svg11.dtd">
<svg version="1.1" xmlns="http://www.w3.org/2000/svg" xmlns:xlink="http://www.w3.org/1999/xlink" viewBox="0 0 28.2461 27.9043">
 <g>
  <rect height="27.9043" opacity="0" width="28.2461" x="0" y="0"/>
  <path d="M13.9453 27.8906C21.6426 27.8906 27.8906 21.6426 27.8906 13.9453C27.8906 6.24805 21.6426 0 13.9453 0C6.24805 0 0 6.24805 0 13.9453C0 21.6426 6.24805 27.8906 13.9453 27.8906ZM13.9453 25.5664C7.51953 25.5664 2.32422 20.3711 2.32422 13.9453C2.32422 7.51953 7.51953 2.32422 13.9453 2.32422C20.3711 2.32422 25.5664 7.51953 25.5664 13.9453C25.5664 20.3711 20.3711 25.5664 13.9453 25.5664Z" fill="black" fill-opacity="0.85"/>
  <path d="M8.59961 19.4824L12.5371 19.4824C12.9883 19.4824 13.3574 19.1133 13.3574 18.6484C13.3574 18.1973 12.9883 17.8281 12.5371 17.8281L9.61133 17.8281L9.61133 9.24219C9.61133 8.70898 9.16016 8.25781 8.61328 8.25781C8.08008 8.25781 7.62891 8.70898 7.62891 9.24219L7.62891 18.457C7.62891 19.0996 7.9707 19.4824 8.59961 19.4824ZM15.3809 19.4688L20.125 19.4688C20.6035 19.4688 20.9043 19.1543 20.9043 18.6758C20.9043 18.1562 20.5898 17.8691 20.125 17.8691L16.8848 17.8691L16.8848 17.7598L18.8672 15.2305C20.248 13.5352 20.6992 12.5234 20.6992 11.3203C20.6992 9.47461 19.4414 8.13477 17.5547 8.13477C15.8047 8.13477 14.4785 9.58398 14.4785 11.0059C14.4785 11.5117 14.7656 11.8672 15.2988 11.8672C15.75 11.8672 16.0234 11.6621 16.1602 11.2109C16.4199 10.2949 16.7617 9.7207 17.541 9.7207C18.3613 9.7207 18.8262 10.4453 18.8262 11.416C18.8262 12.5098 18.0605 13.6172 17.3359 14.5469L14.9707 17.582C14.7109 17.9102 14.4512 18.252 14.4512 18.6758C14.4512 19.1406 14.752 19.4688 15.3809 19.4688Z" fill="black" fill-opacity="0.85"/>
 </g>
</svg>
