<?xml version="1.0" encoding="UTF-8"?>
<!--Generator: Apple Native CoreSVG 326-->
<!DOCTYPE svg
PUBLIC "-//W3C//DTD SVG 1.1//EN"
       "http://www.w3.org/Graphics/SVG/1.1/DTD/svg11.dtd">
<svg version="1.1" xmlns="http://www.w3.org/2000/svg" xmlns:xlink="http://www.w3.org/1999/xlink" viewBox="0 0 35.7383 24.6018">
 <g>
  <rect height="24.6018" opacity="0" width="35.7383" x="0" y="0"/>
  <path d="M35.3828 13.8527L35.3828 5.2804C35.3828 2.81947 33.7285 1.1515 31.2539 1.1515L4.10156 1.16517C1.6543 1.16517 0 2.84681 0 5.32142L0 13.8527C0 17.3937 1.51758 19.5675 5.16797 20.6476L17.0078 24.0929C20.1797 25.0226 22.2168 24.6535 25.0469 23.1906L32.7305 19.2394C34.9043 18.1183 35.3828 16.7785 35.3828 13.8527Z" fill="black" fill-opacity="0.85"/>
  <path d="M11.6348 17.5304C10.9922 17.5304 10.623 17.1202 10.623 16.4503L10.623 6.97572C10.623 6.41517 11.0879 5.95033 11.6484 5.95033C12.209 5.95033 12.6738 6.41517 12.6738 6.97572L12.6738 15.7941L15.6816 15.7941C16.1465 15.7941 16.543 16.1906 16.543 16.6554C16.543 17.1339 16.1465 17.5304 15.6816 17.5304ZM21.1914 17.7628C19.6738 17.7628 18.2383 17.0382 17.8281 15.7257C17.7598 15.4933 17.7188 15.2472 17.7188 14.9874C17.7188 14.4269 18.0879 14.0988 18.6348 14.0988C19.0859 14.0988 19.4004 14.3312 19.5371 14.796C19.7148 15.4249 20.166 16.1085 21.1914 16.1085C22.2305 16.1085 22.75 15.2882 22.75 14.3175C22.75 13.087 22.0938 12.4445 20.8906 12.4445L20.5488 12.4445C20.0703 12.4445 19.7695 12.1574 19.7695 11.6925C19.7695 11.2277 20.0566 10.9406 20.5488 10.9406L20.877 10.9406C21.9297 10.9406 22.5039 10.1886 22.5039 9.16322C22.5039 8.23353 22.0664 7.50892 21.1367 7.50892C20.3438 7.50892 19.8926 8.04212 19.6738 8.87611C19.5371 9.35462 19.2637 9.54603 18.7715 9.54603C18.2109 9.54603 17.8965 9.16322 17.8965 8.71204C17.8965 8.46595 17.9238 8.21986 18.0195 7.94642C18.4023 6.70228 19.6875 5.88197 21.1367 5.88197C22.9688 5.88197 24.4316 6.98939 24.4316 8.94447C24.4316 10.1202 23.8027 11.255 22.5312 11.5968L22.5312 11.6515C23.7207 11.7745 24.7734 12.6359 24.7734 14.3859C24.7734 16.4913 23.2148 17.7628 21.1914 17.7628Z" fill="white"/>
 </g>
</svg>
