<?xml version="1.0" encoding="UTF-8"?>
<!--Generator: Apple Native CoreSVG 326-->
<!DOCTYPE svg
PUBLIC "-//W3C//DTD SVG 1.1//EN"
       "http://www.w3.org/Graphics/SVG/1.1/DTD/svg11.dtd">
<svg version="1.1" xmlns="http://www.w3.org/2000/svg" xmlns:xlink="http://www.w3.org/1999/xlink" viewBox="0 0 28.2461 27.9043">
 <g>
  <rect height="27.9043" opacity="0" width="28.2461" x="0" y="0"/>
  <path d="M13.9453 27.9043C21.6426 27.9043 27.8906 21.6562 27.8906 13.959C27.8906 6.27539 21.6426 0.0136719 13.9453 0.0136719C6.26172 0.0136719 0 6.27539 0 13.959C0 21.6562 6.26172 27.9043 13.9453 27.9043Z" fill="black" fill-opacity="0.85"/>
  <path d="M13.9453 10.5137C12.6328 10.5137 11.3613 10.2812 10.5137 9.89844C10.0215 9.66602 9.87109 9.36523 9.87109 8.94141C9.87109 7.95703 10.4316 7.06836 11.4434 6.50781L11.4707 6.30273C11.5117 6.04297 11.4023 5.85156 11.0879 5.75586L10.541 5.57812C9.78906 5.37305 10.1719 4.18359 10.9512 4.4707L11.5664 4.7168C12.2227 4.94922 12.6191 5.40039 12.5918 6.00195L12.5781 6.07031C13.002 5.96094 13.4531 5.90625 13.9453 5.90625C14.4238 5.90625 14.875 5.96094 15.2988 6.07031L15.2988 6.00195C15.2715 5.38672 15.668 4.94922 16.3105 4.7168L16.9395 4.4707C17.7188 4.18359 18.1016 5.37305 17.3359 5.57812L16.8027 5.75586C16.4746 5.85156 16.3652 6.04297 16.4199 6.30273L16.4473 6.50781C17.4453 7.06836 18.0059 7.95703 18.0059 8.94141C18.0059 9.36523 17.8555 9.66602 17.3633 9.89844C16.5156 10.2812 15.2441 10.5137 13.9453 10.5137ZM13.9453 12.7695C13.6582 12.7695 13.4395 12.9746 13.4395 13.248L13.4395 21.9844C13.4395 22.3809 13.1797 22.5586 12.6602 22.5176C11.0469 22.3125 9.73438 21.5605 8.77734 20.4121L7.73828 21.2871C7.4375 21.5469 7.04102 21.5742 6.80859 21.2598C6.57617 21 6.6582 20.6172 6.95898 20.3574L8.09375 19.4004C7.56055 18.4023 7.24609 17.1992 7.21875 15.8867L5.87891 15.8867C5.48242 15.8867 5.25 15.6406 5.25 15.2852C5.25 14.916 5.48242 14.6836 5.87891 14.6836L7.28711 14.6699C7.42383 13.6445 7.72461 12.5918 8.17578 11.7852L6.98633 10.7734C6.68555 10.541 6.60352 10.1445 6.82227 9.85742C7.06836 9.55664 7.45117 9.59766 7.76562 9.84375L8.92773 10.8281C9.35156 10.4727 9.63867 10.459 9.88477 10.582C11.0332 11.0879 12.4824 11.4023 13.9453 11.4023C15.4082 11.4023 16.8574 11.0879 17.9922 10.582C18.2383 10.4727 18.5391 10.4727 18.9629 10.8281L20.125 9.84375C20.4395 9.59766 20.8086 9.55664 21.0547 9.85742C21.2871 10.1445 21.1914 10.541 20.9043 10.7734L19.7148 11.7852C20.1523 12.5918 20.4668 13.6445 20.5898 14.6699L21.998 14.6836C22.4082 14.6836 22.6406 14.916 22.6406 15.2852C22.6406 15.6406 22.4082 15.8867 21.998 15.8867L20.6719 15.8867C20.6445 17.1992 20.3301 18.4023 19.7832 19.4004L20.9316 20.3574C21.2324 20.6172 21.3145 21 21.082 21.2598C20.8359 21.5742 20.4531 21.5469 20.1523 21.2871L19.0996 20.4121C18.1562 21.5605 16.8301 22.3125 15.2305 22.5176C14.7109 22.5586 14.4375 22.3809 14.4375 21.9844L14.4375 13.248C14.4375 12.9746 14.2188 12.7695 13.9453 12.7695ZM9.44727 14.2598C9.44727 14.8887 9.98047 15.4355 10.623 15.4355C11.252 15.4355 11.7715 14.8887 11.7715 14.2598C11.7715 13.6309 11.252 13.0977 10.623 13.0977C9.98047 13.0977 9.44727 13.6309 9.44727 14.2598ZM9.46094 18.2109C9.46094 18.9355 10.0625 19.5234 10.7871 19.5234C11.498 19.5234 12.127 18.9355 12.127 18.2109C12.127 17.4863 11.498 16.8848 10.7871 16.8848C10.0625 16.8848 9.46094 17.4863 9.46094 18.2109ZM18.4434 14.2598C18.4434 13.6309 17.9102 13.0977 17.2676 13.0977C16.6387 13.0977 16.1055 13.6309 16.1055 14.2598C16.1055 14.8887 16.6387 15.4355 17.2676 15.4355C17.9102 15.4355 18.4434 14.8887 18.4434 14.2598ZM18.416 18.2109C18.416 17.4863 17.8281 16.8848 17.0898 16.8848C16.3926 16.8848 15.7637 17.4863 15.7637 18.2109C15.7637 18.9355 16.3926 19.5234 17.0898 19.5234C17.8281 19.5234 18.416 18.9355 18.416 18.2109Z" fill="white"/>
 </g>
</svg>
