<?xml version="1.0" encoding="UTF-8"?>
<!--Generator: Apple Native CoreSVG 326-->
<!DOCTYPE svg
PUBLIC "-//W3C//DTD SVG 1.1//EN"
       "http://www.w3.org/Graphics/SVG/1.1/DTD/svg11.dtd">
<svg version="1.1" xmlns="http://www.w3.org/2000/svg" xmlns:xlink="http://www.w3.org/1999/xlink" viewBox="0 0 28.2461 27.9043">
 <g>
  <rect height="27.9043" opacity="0" width="28.2461" x="0" y="0"/>
  <path d="M27.8906 13.9453C27.8906 21.6426 21.6426 27.8906 13.9453 27.8906C6.24805 27.8906 0 21.6426 0 13.9453C0 6.24805 6.24805 0 13.9453 0C21.6426 0 27.8906 6.24805 27.8906 13.9453ZM2.32422 13.9453C2.32422 20.3711 7.51953 25.5664 13.9453 25.5664C20.3711 25.5664 25.5664 20.3711 25.5664 13.9453C25.5664 7.51953 20.3711 2.32422 13.9453 2.32422C7.51953 2.32422 2.32422 7.51953 2.32422 13.9453Z" fill="black" fill-opacity="0.85"/>
  <path d="M15.7016 17.9301C15.6972 17.9685 15.6953 18.0075 15.6953 18.0469C15.6953 18.7578 16.2969 19.332 16.9941 19.332C17.0292 19.332 17.064 19.3306 17.0982 19.3267L18.4612 20.6897C17.5984 21.5108 16.4833 22.0562 15.1758 22.2168C14.6699 22.2715 14.4102 22.0938 14.4102 21.7109L14.4102 16.6387ZM7.51449 9.74301L10.8698 13.0983C10.8161 13.0884 10.761 13.084 10.7051 13.084C10.0898 13.084 9.57031 13.6035 9.57031 14.2188C9.57031 14.834 10.0898 15.3535 10.7051 15.3535C11.3203 15.3535 11.8398 14.834 11.8398 14.2188C11.8398 14.163 11.8354 14.1078 11.8254 14.0539L13.4531 15.6816L13.4531 21.7109C13.4531 22.0938 13.1934 22.2715 12.6875 22.2168C11.1289 22.0254 9.84375 21.2871 8.92773 20.1934L7.90234 21.041C7.61523 21.2871 7.24609 21.3008 7.01367 21.0137C6.78125 20.7402 6.86328 20.3711 7.15039 20.1387L8.25781 19.1953C7.73828 18.2383 7.4375 17.0762 7.41016 15.791L6.125 15.791C5.72852 15.791 5.49609 15.5586 5.49609 15.2031C5.49609 14.8613 5.72852 14.6289 6.125 14.6289L7.47852 14.6152C7.60156 13.6309 7.90234 12.6055 8.33984 11.8125L7.17773 10.8418C6.89062 10.6094 6.80859 10.2266 7.04102 9.93945C7.17079 9.78678 7.33892 9.72361 7.51449 9.74301ZM9.59766 18.0469C9.59766 18.7578 10.1719 19.332 10.8828 19.332C11.5664 19.332 12.168 18.7578 12.168 18.0469C12.168 17.3496 11.5664 16.7617 10.8828 16.7617C10.1719 16.7617 9.59766 17.3496 9.59766 18.0469ZM20.8223 9.93945C21.0547 10.2266 20.9727 10.5957 20.6855 10.8418L19.5371 11.8125C19.9609 12.6055 20.2617 13.6309 20.3848 14.6152L21.752 14.6289C22.1348 14.6289 22.3672 14.8613 22.3672 15.2031C22.3672 15.5586 22.1348 15.791 21.752 15.791L20.4531 15.791C20.4373 16.5358 20.3296 17.2392 20.1381 17.8836L17.5397 15.288C17.9767 15.1318 18.293 14.7052 18.293 14.2188C18.293 13.6035 17.7871 13.084 17.1719 13.084C16.6756 13.084 16.256 13.416 16.1022 13.8521L13.6982 11.4507C13.7757 11.4561 13.8536 11.457 13.9316 11.457C15.3535 11.457 16.7617 11.1426 17.8691 10.6504C18.1152 10.541 18.3887 10.5547 18.7988 10.8965L19.9336 9.93945C20.2344 9.67969 20.5898 9.65234 20.8223 9.93945ZM17.2266 5.7832L16.707 5.97461C16.3789 6.07031 16.2969 6.23438 16.3379 6.50781L16.3652 6.71289C17.3359 7.23242 17.8828 8.09375 17.8828 9.06445C17.8828 9.47461 17.7324 9.77539 17.2539 9.99414C16.4336 10.3633 15.2031 10.5957 13.9316 10.5957C13.5382 10.5957 13.1487 10.5735 12.7759 10.5294L10.2281 7.98433C10.4763 7.469 10.9092 7.02805 11.498 6.71289L11.5254 6.50781C11.5801 6.23438 11.4844 6.07031 11.1562 5.97461L10.6367 5.7832C9.89844 5.5918 10.2676 4.45703 11.0195 4.7168L11.6211 4.96289C12.2637 5.19531 12.6465 5.63281 12.6191 6.20703L12.6191 6.28906C13.0293 6.17969 13.4668 6.125 13.9316 6.125C14.3965 6.125 14.8477 6.17969 15.2578 6.28906L15.2441 6.20703C15.2168 5.61914 15.5996 5.19531 16.2422 4.96289L16.8438 4.7168C17.5957 4.45703 17.9648 5.5918 17.2266 5.7832Z" fill="black" fill-opacity="0.85"/>
  <path d="M19.7969 20.6445C20.0293 20.877 20.4395 20.8906 20.6719 20.6445C20.918 20.3984 20.918 20.0156 20.6719 19.7695L8.14844 7.23242C7.88867 6.98633 7.50586 6.98633 7.25977 7.23242C7.01367 7.47852 7.01367 7.875 7.25977 8.10742Z" fill="black" fill-opacity="0.85"/>
 </g>
</svg>
