<?xml version="1.0" encoding="UTF-8"?>
<!--Generator: Apple Native CoreSVG 326-->
<!DOCTYPE svg
PUBLIC "-//W3C//DTD SVG 1.1//EN"
       "http://www.w3.org/Graphics/SVG/1.1/DTD/svg11.dtd">
<svg version="1.1" xmlns="http://www.w3.org/2000/svg" xmlns:xlink="http://www.w3.org/1999/xlink" viewBox="0 0 35.1709 37.1774">
 <g>
  <rect height="37.1774" opacity="0" width="35.1709" x="0" y="0"/>
  <path d="M8.1346 30.8076L6.30615 32.3494C5.78662 32.7733 5.14404 32.828 4.72021 32.3221C4.31006 31.8162 4.46045 31.16 4.95264 30.7498L6.96493 29.0604C7.30185 29.6902 7.69263 30.2747 8.1346 30.8076ZM5.40381 22.451L5.41298 22.7011L3.05225 22.7108C2.36865 22.7108 1.91748 22.2869 1.91748 21.658C1.91748 21.0428 2.36865 20.619 3.03857 20.619L5.53461 20.6088C5.44823 21.2444 5.40381 21.8667 5.40381 22.451ZM31.7905 20.619C32.4604 20.619 32.9116 21.0428 32.9116 21.658C32.9116 22.2869 32.4604 22.7108 31.7769 22.7108L29.4161 22.7011C29.4247 22.6204 29.4253 22.5359 29.4253 22.451C29.4253 21.8667 29.3809 21.2444 29.2945 20.6088ZM8.01431 14.2029C7.70886 14.5421 7.42485 14.9533 7.16598 15.4173L5.00732 13.5916C4.51514 13.1815 4.35107 12.5115 4.76123 12.0194C4.95323 11.7826 5.20215 11.6686 5.46469 11.6592ZM30.0679 12.0194C30.478 12.5115 30.314 13.1815 29.8218 13.5916L27.6631 15.4173C27.3319 14.8235 26.9594 14.3163 26.5542 13.9334C26.4935 13.8783 26.4345 13.8269 26.3774 13.7797L28.4819 11.992C28.9878 11.5682 29.6577 11.5135 30.0679 12.0194Z" fill="black" fill-opacity="0.85"/>
  <path d="M21.748 27.9048C21.2694 28.1568 20.9487 28.6552 20.9487 29.2323C20.9487 30.0662 21.6187 30.7362 22.4663 30.7362C23.0421 30.7362 23.5397 30.4168 23.7924 29.9444L25.7044 31.852C24.1215 33.3376 22.0792 34.3016 19.7046 34.6053C18.7749 34.7147 18.3101 34.3865 18.3101 33.6756L18.3101 24.4748ZM10.761 16.9432C10.4975 17.2512 10.3394 17.6524 10.3394 18.0897C10.3394 19.033 11.1187 19.8533 12.0894 19.8533C12.5289 19.8533 12.932 19.688 13.2405 19.417L16.519 22.6879L16.519 33.6756C16.519 34.3865 16.0542 34.7147 15.1245 34.6053C9.24561 33.8533 5.40381 29.0545 5.40381 22.451C5.40381 19.6479 6.42618 15.9703 8.01604 14.2046ZM10.8589 29.2323C10.8589 30.0662 11.5288 30.7362 12.3628 30.7362C13.2104 30.7362 13.8804 30.0662 13.8804 29.2323C13.8804 28.3983 13.2104 27.7283 12.3628 27.7283C11.5288 27.7283 10.8589 28.3983 10.8589 29.2323ZM26.5542 13.9334C28.2905 15.574 29.4253 19.4979 29.4253 22.451C29.4253 24.1991 29.1561 25.8206 28.6441 27.2691L26.013 24.6416C26.1667 24.3525 26.2534 24.0212 26.2534 23.6678C26.2534 22.5467 25.3374 21.6307 24.2026 21.6307C23.8562 21.6307 23.528 21.7182 23.2401 21.8726L16.1146 14.757C16.5413 14.7927 16.9736 14.8084 17.4077 14.8084C20.0464 14.8084 22.603 14.2342 24.6265 13.3319C25.146 13.1131 25.6655 13.1268 26.5542 13.9334ZM8.57568 23.6678C8.57568 24.8162 9.4917 25.7323 10.6265 25.7323C11.7476 25.7323 12.6772 24.8162 12.6772 23.6678C12.6772 22.5467 11.7476 21.6307 10.6265 21.6307C9.4917 21.6307 8.57568 22.5467 8.57568 23.6678ZM20.9761 18.0897C20.9761 19.0467 21.769 19.8533 22.7397 19.8533C23.7104 19.8533 24.4897 19.033 24.4897 18.0897C24.4897 17.119 23.7104 16.326 22.7397 16.326C21.769 16.326 20.9761 17.119 20.9761 18.0897Z" fill="black" fill-opacity="0.85"/>
  <path d="M23.437 4.36311L22.5073 4.70491C21.9194 4.90999 21.687 5.22444 21.7964 5.70296L21.876 6.04151C23.6497 7.01528 24.6812 8.59385 24.6812 10.3924C24.6812 11.1307 24.394 11.7049 23.519 12.1014C22.0151 12.7987 19.7456 13.2225 17.4077 13.2225C16.3435 13.2225 15.2908 13.1336 14.3217 12.9666L10.3676 9.01807C10.7467 7.79798 11.6488 6.75402 12.9535 6.0396L13.0327 5.70296C13.1421 5.22444 12.9097 4.90999 12.3218 4.70491L11.3921 4.36311C10.0796 3.96663 10.7222 1.99788 12.0757 2.46272L13.1558 2.90022C14.36 3.32595 14.9798 4.1521 14.9944 5.26387C15.7309 5.08613 16.54 4.99202 17.4077 4.99202C18.2809 4.99202 19.0946 5.08674 19.8347 5.26572C19.8486 4.15301 20.4685 3.32619 21.6733 2.90022L22.7534 2.46272C24.1069 1.99788 24.7495 3.96663 23.437 4.36311Z" fill="black" fill-opacity="0.85"/>
  <path d="M1.90381 5.83967L31.394 35.2615C31.8042 35.6717 32.4878 35.6717 32.8843 35.2615C33.2944 34.8514 33.2944 34.1815 32.8843 33.7713L3.40771 4.34944C3.01123 3.93928 2.32764 3.92561 1.90381 4.34944C1.50732 4.74592 1.50732 5.44319 1.90381 5.83967Z" fill="black" fill-opacity="0.85"/>
 </g>
</svg>
