<?xml version="1.0" encoding="UTF-8"?>
<!--Generator: Apple Native CoreSVG 326-->
<!DOCTYPE svg
PUBLIC "-//W3C//DTD SVG 1.1//EN"
       "http://www.w3.org/Graphics/SVG/1.1/DTD/svg11.dtd">
<svg version="1.1" xmlns="http://www.w3.org/2000/svg" xmlns:xlink="http://www.w3.org/1999/xlink" viewBox="0 0 21.4913 33.0996">
 <g>
  <rect height="33.0996" opacity="0" width="21.4913" x="0" y="0"/>
  <path d="M10.5679 16.1602C13.562 16.1602 16.5562 15.9688 19.0171 15.5996C20.9175 15.3262 21.6148 13.877 20.7945 11.9902L16.7339 2.84375C15.8863 0.916016 14.4781 0 12.3316 0L8.79057 0C6.65775 0 5.24955 0.916016 4.40189 2.84375L0.341346 11.9902C-0.478966 13.877 0.204628 15.3262 2.11869 15.5996C4.56596 15.9688 7.5601 16.1602 10.5679 16.1602ZM10.5679 14.1504C8.07963 14.1504 5.60502 14.0137 2.88432 13.6992C2.11869 13.6172 1.99564 13.166 2.32377 12.4277L6.20658 3.66406C6.71244 2.5293 7.54642 1.99609 8.79057 1.99609L12.3316 1.99609C13.5757 1.99609 14.4234 2.5293 14.9292 3.66406L18.812 12.4277C19.1402 13.166 19.0035 13.6172 18.2515 13.6992C15.5308 14.0137 13.0425 14.1504 10.5679 14.1504ZM9.41947 18.1973L11.7027 18.1973L11.7027 15.5586L9.41947 15.5586ZM8.46244 33.0859L12.6597 33.0859C16.187 33.0859 18.2652 31.2676 18.2652 28.1914C18.2652 26.2637 17.6636 23.3926 16.6109 20.4941C15.9956 18.8125 14.6695 17.8281 12.7828 17.8281L8.33939 17.8281C6.45267 17.8281 5.1265 18.8125 4.51127 20.4941C3.47221 23.3926 2.85697 26.2637 2.85697 28.1914C2.85697 31.2676 4.9351 33.0859 8.46244 33.0859ZM8.46244 31.0898C6.17924 31.0898 4.83939 30.0098 4.83939 28.1914C4.83939 26.4688 5.41361 23.8574 6.37064 21.1777C6.67142 20.3301 7.314 19.8242 8.33939 19.8242L12.7828 19.8242C13.8081 19.8242 14.4507 20.3301 14.7515 21.1777C15.7085 23.8574 16.2828 26.4688 16.2828 28.1914C16.2828 30.0098 14.9429 31.0898 12.6597 31.0898Z" fill="black" fill-opacity="0.85"/>
 </g>
</svg>
