<?xml version="1.0" encoding="UTF-8"?>
<!--Generator: Apple Native CoreSVG 326-->
<!DOCTYPE svg
PUBLIC "-//W3C//DTD SVG 1.1//EN"
       "http://www.w3.org/Graphics/SVG/1.1/DTD/svg11.dtd">
<svg version="1.1" xmlns="http://www.w3.org/2000/svg" xmlns:xlink="http://www.w3.org/1999/xlink" viewBox="0 0 25.6211 32.416">
 <g>
  <rect height="32.416" opacity="0" width="25.6211" x="0" y="0"/>
  <path d="M14.082 16.8301L24.8555 6.05664C25.6758 5.25 25.2109 4.25195 24.0762 3.89648C21.4785 3.0625 18.6758 2.83008 15.0117 3.04883L14.2871 2.2832C13.125 1.03906 11.4707 1.03906 10.2402 2.24219C9.05078 3.47266 9.02344 5.16797 10.2812 6.28906L11.0469 6.98633C10.8145 10.6094 11.0332 13.4258 11.8672 16.0645C12.2363 17.2129 13.2207 17.6914 14.082 16.8301ZM10.8691 4.32031L12.3184 2.85742L9.87109 0.4375C9.46094 0.0273438 8.83203 0.0273438 8.42188 0.4375C8.02539 0.833984 8.01172 1.46289 8.42188 1.87305ZM20.2617 15.9688C22.2852 15.9688 23.9531 14.2871 23.9531 12.291C23.9531 11.416 23.6387 10.5684 23.0234 9.89844L17.8691 15.0527C18.5391 15.6543 19.3867 15.9688 20.2617 15.9688ZM2.58398 18.6348L12.9609 9.0918L11.457 7.50586L1.09375 17.0352ZM2.13281 19.6875C3.32227 19.6875 4.26562 18.7578 4.26562 17.5547C4.26562 16.3652 3.32227 15.4219 2.13281 15.4219C0.929688 15.4219 0 16.3652 0 17.5547C0 18.7578 0.929688 19.6875 2.13281 19.6875ZM7.68359 24.541L9.24219 22.9961L2.44727 16.2285L0.902344 17.7734ZM8.09375 25.9629C9.2832 25.9629 10.2266 25.0332 10.2266 23.8301C10.2266 22.6406 9.26953 21.6973 8.09375 21.6973C6.89062 21.6973 5.96094 22.6406 5.96094 23.8301C5.96094 25.0332 6.89062 25.9629 8.09375 25.9629ZM6.98633 30.4883L9.1875 30.4883L9.1875 23.8848L6.98633 23.8848ZM1.57227 32.416L16.1191 32.416C16.625 32.416 16.9668 32.0469 16.9668 31.5137C16.9668 30.4883 16.0781 29.7637 14.6973 29.7637L2.99414 29.7637C1.61328 29.7637 0.724609 30.4883 0.724609 31.5137C0.724609 32.0469 1.06641 32.416 1.57227 32.416Z" fill="black" fill-opacity="0.85"/>
 </g>
</svg>
