<?xml version="1.0" encoding="UTF-8"?>
<!--Generator: Apple Native CoreSVG 326-->
<!DOCTYPE svg
PUBLIC "-//W3C//DTD SVG 1.1//EN"
       "http://www.w3.org/Graphics/SVG/1.1/DTD/svg11.dtd">
<svg version="1.1" xmlns="http://www.w3.org/2000/svg" xmlns:xlink="http://www.w3.org/1999/xlink" viewBox="0 0 21.6016 29.3262">
 <g>
  <rect height="29.3262" opacity="0" width="21.6016" x="0" y="0"/>
  <path d="M0 25.0332C0 27.8906 1.4082 29.3125 4.23828 29.3125L17.0215 29.3125C19.8379 29.3125 21.2461 27.8906 21.2461 25.0332L21.2461 4.29297C21.2461 1.44922 19.8379 0 17.0215 0L4.23828 0C1.4082 0 0 1.44922 0 4.29297ZM2.20117 24.9922L2.20117 4.33398C2.20117 2.9668 2.92578 2.20117 4.34766 2.20117L16.8984 2.20117C18.3203 2.20117 19.0449 2.9668 19.0449 4.33398L19.0449 24.9922C19.0449 26.3594 18.3203 27.1113 16.8984 27.1113L4.34766 27.1113C2.92578 27.1113 2.20117 26.3594 2.20117 24.9922ZM7.36914 5.53711L13.8906 5.53711C14.3828 5.53711 14.7793 5.14062 14.7793 4.64844C14.7793 4.15625 14.3828 3.75977 13.8906 3.75977L7.36914 3.75977C6.89062 3.75977 6.48047 4.15625 6.48047 4.64844C6.48047 5.14062 6.89062 5.53711 7.36914 5.53711Z" fill="black" fill-opacity="0.85"/>
 </g>
</svg>
