<?xml version="1.0" encoding="UTF-8"?>
<!--Generator: Apple Native CoreSVG 326-->
<!DOCTYPE svg
PUBLIC "-//W3C//DTD SVG 1.1//EN"
       "http://www.w3.org/Graphics/SVG/1.1/DTD/svg11.dtd">
<svg version="1.1" xmlns="http://www.w3.org/2000/svg" xmlns:xlink="http://www.w3.org/1999/xlink" viewBox="0 0 39.7852 31.6777">
 <g>
  <rect height="31.6777" opacity="0" width="39.7852" x="0" y="0"/>
  <path d="M34.8906 7.62891L34.8906 23.8574L37.8848 23.8574C38.7324 23.8574 39.4297 24.5547 39.4297 25.416C39.4297 26.2773 38.7324 26.9746 37.8848 26.9746L1.54492 26.9746C0.697266 26.9746 0 26.2773 0 25.416C0 24.5547 0.697266 23.8574 1.54492 23.8574L4.53906 23.8574L4.53906 7.62891C4.53906 5.71484 5.66016 4.73047 7.46484 4.73047L16.0645 4.73047L16.0645 6.93164L8.05273 6.93164C7.17773 6.93164 6.74023 7.36914 6.74023 8.24414L6.74023 23.8574L32.6895 23.8574L32.6895 8.24414C32.6895 7.36914 32.252 6.93164 31.377 6.93164L23.3652 6.93164L23.3652 4.73047L31.9648 4.73047C33.8652 4.73047 34.8906 5.71484 34.8906 7.62891Z" fill="black" fill-opacity="0.85"/>
  <path d="M19.7148 0C19.127 0 18.6348 0.492188 18.6348 1.06641L18.6348 13.2344L18.7168 15.2715L17.9375 14.4648L15.832 12.209C15.6406 11.9902 15.3398 11.8809 15.0801 11.8809C14.5059 11.8809 14.0957 12.291 14.0957 12.8379C14.0957 13.1387 14.2051 13.3574 14.4102 13.5625L18.9219 17.9102C19.1953 18.1836 19.4414 18.2656 19.7148 18.2656C19.9883 18.2656 20.2344 18.1836 20.5078 17.9102L25.0059 13.5625C25.2109 13.3574 25.334 13.1387 25.334 12.8379C25.334 12.291 24.9102 11.8809 24.3359 11.8809C24.0762 11.8809 23.7891 11.9902 23.5977 12.209L21.4785 14.4648L20.7129 15.2715L20.7949 13.2344L20.7949 1.06641C20.7949 0.492188 20.3027 0 19.7148 0Z" fill="black" fill-opacity="0.85"/>
 </g>
</svg>
