<?xml version="1.0" encoding="UTF-8"?>
<!--Generator: Apple Native CoreSVG 326-->
<!DOCTYPE svg
PUBLIC "-//W3C//DTD SVG 1.1//EN"
       "http://www.w3.org/Graphics/SVG/1.1/DTD/svg11.dtd">
<svg version="1.1" xmlns="http://www.w3.org/2000/svg" xmlns:xlink="http://www.w3.org/1999/xlink" viewBox="0 0 28.2461 27.9043">
 <g>
  <rect height="27.9043" opacity="0" width="28.2461" x="0" y="0"/>
  <path d="M13.9453 27.8906C21.6426 27.8906 27.8906 21.6426 27.8906 13.9453C27.8906 6.24805 21.6426 0 13.9453 0C6.24805 0 0 6.24805 0 13.9453C0 21.6426 6.24805 27.8906 13.9453 27.8906ZM13.9453 25.5664C7.51953 25.5664 2.32422 20.3711 2.32422 13.9453C2.32422 7.51953 7.51953 2.32422 13.9453 2.32422C20.3711 2.32422 25.5664 7.51953 25.5664 13.9453C25.5664 20.3711 20.3711 25.5664 13.9453 25.5664Z" fill="black" fill-opacity="0.85"/>
  <path d="M8.80469 20.0293L18.1836 20.0293C18.5801 20.0293 18.8672 19.7559 18.8672 19.373C18.8672 18.9902 18.5801 18.7168 18.1836 18.7168L15.1074 18.7168C11.8945 18.7168 9.70703 16.3379 9.70703 13.5898C9.70703 10.8418 11.5801 9.26953 14.0137 9.26953C16.3516 9.26953 18.2109 10.8828 18.2793 13.002C18.293 13.4668 18.5664 13.7812 19.0176 13.7812C19.4688 13.7812 19.7559 13.4531 19.7559 13.002C19.7422 10.0762 17.0488 7.875 14.0137 7.875C10.7188 7.875 8.14844 10.1309 8.14844 13.3438C8.14844 15.5312 9.21484 17.6914 11.2656 18.6895L11.2656 18.7305L8.80469 18.7305C8.4082 18.7305 8.12109 18.9902 8.12109 19.373C8.12109 19.7559 8.4082 20.0293 8.80469 20.0293ZM12.6465 13.6172C12.9199 13.6172 13.1113 13.4258 13.1113 13.1523L13.1113 6.72656C13.1113 6.4668 12.9199 6.27539 12.6465 6.27539C12.3867 6.27539 12.1953 6.4668 12.1953 6.72656L12.1953 13.1523C12.1953 13.4258 12.3867 13.6172 12.6465 13.6172ZM15.4082 13.6172C15.6816 13.6172 15.873 13.4258 15.873 13.1523L15.873 6.72656C15.873 6.4668 15.6816 6.27539 15.4082 6.27539C15.1484 6.27539 14.957 6.4668 14.957 6.72656L14.957 13.1523C14.957 13.4258 15.1484 13.6172 15.4082 13.6172Z" fill="black" fill-opacity="0.85"/>
 </g>
</svg>
