<?xml version="1.0" encoding="UTF-8"?>
<!--Generator: Apple Native CoreSVG 326-->
<!DOCTYPE svg
PUBLIC "-//W3C//DTD SVG 1.1//EN"
       "http://www.w3.org/Graphics/SVG/1.1/DTD/svg11.dtd">
<svg version="1.1" xmlns="http://www.w3.org/2000/svg" xmlns:xlink="http://www.w3.org/1999/xlink" viewBox="0 0 30.8848 29.1895">
 <g>
  <rect height="29.1895" opacity="0" width="30.8848" x="0" y="0"/>
  <path d="M1.81836 25.9219L28.7109 25.9219L28.7109 25.0059C28.7109 24.459 28.3965 24.1309 27.8359 24.1309L26.9609 24.1309L26.9609 9.37891L28.1641 9.37891C28.916 9.37891 29.3535 8.83203 29.3535 8.27148C29.3535 7.86133 29.1211 7.50586 28.6152 7.21875L16.9395 0.478516C16.3926 0.164062 15.8184 0 15.2578 0C14.6973 0 14.1094 0.164062 13.5898 0.478516L1.91406 7.21875C1.39453 7.50586 1.17578 7.86133 1.17578 8.27148C1.17578 8.83203 1.61328 9.37891 2.36523 9.37891L3.56836 9.37891L3.56836 24.1309L2.70703 24.1309C2.14648 24.1309 1.81836 24.459 1.81836 25.0059ZM5.63281 24.1309L5.63281 7.62891L14.7246 2.5293C14.8887 2.43359 15.0801 2.37891 15.2578 2.37891C15.4355 2.37891 15.627 2.43359 15.8047 2.5293L24.8965 7.62891L24.8965 24.1309ZM1.09375 29.1758L29.4219 29.1758C30.0234 29.1758 30.5293 28.6699 30.5293 28.0684C30.5293 27.4668 30.0234 26.9746 29.4219 26.9746L1.09375 26.9746C0.492188 26.9746 0 27.4668 0 28.0684C0 28.6699 0.492188 29.1758 1.09375 29.1758Z" fill="black" fill-opacity="0.85"/>
  <path d="M10.1445 20.4668L19.5234 20.4668C19.9199 20.4668 20.207 20.1934 20.207 19.8105C20.207 19.4277 19.9199 19.1543 19.5234 19.1543L16.4473 19.1543C13.2344 19.1543 11.0469 16.7891 11.0469 14.041C11.0469 11.2793 12.9199 9.70703 15.3535 9.70703C17.6914 9.70703 19.5508 11.3203 19.6191 13.4395C19.6328 13.9043 19.9062 14.2324 20.3574 14.2324C20.8086 14.2324 21.0957 13.8906 21.0957 13.4395C21.082 10.5137 18.3887 8.3125 15.3535 8.3125C12.0586 8.3125 9.48828 10.5684 9.48828 13.7812C9.48828 15.9688 10.5547 18.1289 12.6055 19.127L12.6055 19.168L10.1445 19.168C9.74805 19.168 9.46094 19.4277 9.46094 19.8105C9.46094 20.1934 9.74805 20.4668 10.1445 20.4668ZM13.9863 14.0547C14.2598 14.0547 14.4512 13.877 14.4512 13.5898L14.4512 7.16406C14.4512 6.9043 14.2598 6.71289 13.9863 6.71289C13.7266 6.71289 13.5352 6.9043 13.5352 7.16406L13.5352 13.5898C13.5352 13.877 13.7266 14.0547 13.9863 14.0547ZM16.748 14.0547C17.0215 14.0547 17.2129 13.877 17.2129 13.5898L17.2129 7.16406C17.2129 6.9043 17.0215 6.71289 16.748 6.71289C16.4883 6.71289 16.2969 6.9043 16.2969 7.16406L16.2969 13.5898C16.2969 13.877 16.4883 14.0547 16.748 14.0547Z" fill="black" fill-opacity="0.85"/>
 </g>
</svg>
