<?xml version="1.0" encoding="UTF-8"?>
<!--Generator: Apple Native CoreSVG 326-->
<!DOCTYPE svg
PUBLIC "-//W3C//DTD SVG 1.1//EN"
       "http://www.w3.org/Graphics/SVG/1.1/DTD/svg11.dtd">
<svg version="1.1" xmlns="http://www.w3.org/2000/svg" xmlns:xlink="http://www.w3.org/1999/xlink" viewBox="0 0 33.5408 27.9043">
 <g>
  <rect height="27.9043" opacity="0" width="33.5408" x="0" y="0"/>
  <path d="M16.5995 27.8906C24.2968 27.8906 30.5448 21.6426 30.5448 13.9453C30.5448 6.24805 24.2968 0 16.5995 0C8.90224 0 2.65419 6.24805 2.65419 13.9453L4.97841 13.9453C4.97841 7.51953 10.1737 2.32422 16.5995 2.32422C23.0253 2.32422 28.2206 7.51953 28.2206 13.9453C28.2206 20.3711 23.0253 25.5664 16.5995 25.5664C12.7167 25.5664 9.2577 23.6523 7.19325 20.7539C6.76942 20.1934 6.12684 20.0156 5.55263 20.3574C5.00575 20.6992 4.84169 21.4648 5.30653 22.0664C7.83583 25.6074 11.9784 27.8906 16.5995 27.8906ZM0.972548 11.3066C-0.0118272 11.3066-0.257921 11.9766 0.275282 12.7422L3.33778 17.0898C3.78895 17.7188 4.4452 17.7051 4.8827 17.0898L7.93153 12.7285C8.46474 11.9766 8.20497 11.3066 7.24794 11.3066Z" fill="black" fill-opacity="0.85"/>
  <path d="M11.4725 20.0293L20.8515 20.0293C21.2479 20.0293 21.535 19.7559 21.535 19.373C21.535 18.9902 21.2479 18.7168 20.8515 18.7168L17.7753 18.7168C14.5624 18.7168 12.3749 16.3379 12.3749 13.5898C12.3749 10.8418 14.2479 9.26953 16.6815 9.26953C19.0194 9.26953 20.8788 10.8828 20.9472 13.002C20.9608 13.4668 21.2343 13.7812 21.6854 13.7812C22.1366 13.7812 22.4237 13.4531 22.4237 13.002C22.41 10.0762 19.7167 7.875 16.6815 7.875C13.3866 7.875 10.8163 10.1309 10.8163 13.3438C10.8163 15.5312 11.8827 17.6914 13.9335 18.6895L13.9335 18.7305L11.4725 18.7305C11.0761 18.7305 10.789 18.9902 10.789 19.373C10.789 19.7559 11.0761 20.0293 11.4725 20.0293ZM15.3143 13.6172C15.5878 13.6172 15.7792 13.4258 15.7792 13.1523L15.7792 6.72656C15.7792 6.4668 15.5878 6.27539 15.3143 6.27539C15.0546 6.27539 14.8632 6.4668 14.8632 6.72656L14.8632 13.1523C14.8632 13.4258 15.0546 13.6172 15.3143 13.6172ZM18.0761 13.6172C18.3495 13.6172 18.5409 13.4258 18.5409 13.1523L18.5409 6.72656C18.5409 6.4668 18.3495 6.27539 18.0761 6.27539C17.8163 6.27539 17.6249 6.4668 17.6249 6.72656L17.6249 13.1523C17.6249 13.4258 17.8163 13.6172 18.0761 13.6172Z" fill="black" fill-opacity="0.85"/>
 </g>
</svg>
