<?xml version="1.0" encoding="UTF-8"?>
<!--Generator: Apple Native CoreSVG 326-->
<!DOCTYPE svg
PUBLIC "-//W3C//DTD SVG 1.1//EN"
       "http://www.w3.org/Graphics/SVG/1.1/DTD/svg11.dtd">
<svg version="1.1" xmlns="http://www.w3.org/2000/svg" xmlns:xlink="http://www.w3.org/1999/xlink" viewBox="0 0 30.9258 30.584">
 <g>
  <rect height="30.584" opacity="0" width="30.9258" x="0" y="0"/>
  <path d="M15.2852 30.5703C23.6797 30.5703 30.5703 23.6797 30.5703 15.2852C30.5703 6.89062 23.6797 0 15.2852 0C6.89062 0 0 6.89062 0 15.2852C0 23.6797 6.89062 30.5703 15.2852 30.5703ZM15.2852 25.4844C9.65234 25.4844 5.08594 20.918 5.08594 15.2852C5.08594 9.63867 9.65234 5.08594 15.2852 5.08594C20.9316 5.08594 25.4844 9.63867 25.4844 15.2852C25.4844 20.918 20.9316 25.4844 15.2852 25.4844Z" fill="black" fill-opacity="0.85"/>
  <path d="M10.1582 21.3691L19.5371 21.3691C19.9336 21.3691 20.2207 21.0957 20.2207 20.7129C20.2207 20.3301 19.9336 20.0566 19.5371 20.0566L16.4746 20.0566C13.248 20.0566 11.0605 17.6777 11.0605 14.9297C11.0605 12.1816 12.9473 10.6094 15.3672 10.6094C17.7188 10.6094 19.5645 12.2227 19.6328 14.3418C19.6465 14.8066 19.9199 15.1211 20.3711 15.1211C20.8223 15.1211 21.1094 14.793 21.1094 14.3418C21.0957 11.416 18.4023 9.21484 15.3672 9.21484C12.0723 9.21484 9.50195 11.4707 9.50195 14.6836C9.50195 16.8711 10.5684 19.0312 12.6328 20.0293L12.6328 20.0703L10.1582 20.0703C9.76172 20.0703 9.48828 20.3301 9.48828 20.7129C9.48828 21.0957 9.76172 21.3691 10.1582 21.3691ZM14 14.957C14.2734 14.957 14.4648 14.7656 14.4648 14.4922L14.4648 8.06641C14.4648 7.80664 14.2734 7.61523 14 7.61523C13.7402 7.61523 13.5488 7.80664 13.5488 8.06641L13.5488 14.4922C13.5488 14.7656 13.7402 14.957 14 14.957ZM16.7617 14.957C17.0488 14.957 17.2266 14.7656 17.2266 14.4922L17.2266 8.06641C17.2266 7.80664 17.0488 7.61523 16.7617 7.61523C16.502 7.61523 16.3105 7.80664 16.3105 8.06641L16.3105 14.4922C16.3105 14.7656 16.502 14.957 16.7617 14.957Z" fill="black" fill-opacity="0.85"/>
 </g>
</svg>
