<?xml version="1.0" encoding="UTF-8"?>
<!--Generator: Apple Native CoreSVG 326-->
<!DOCTYPE svg
PUBLIC "-//W3C//DTD SVG 1.1//EN"
       "http://www.w3.org/Graphics/SVG/1.1/DTD/svg11.dtd">
<svg version="1.1" xmlns="http://www.w3.org/2000/svg" xmlns:xlink="http://www.w3.org/1999/xlink" viewBox="0 0 30.8848 29.1895">
 <g>
  <rect height="29.1895" opacity="0" width="30.8848" x="0" y="0"/>
  <path d="M1.81836 27.5898L28.7109 27.5898L28.7109 25.9766C28.7109 25.4297 28.3965 25.1016 27.8359 25.1016L26.9609 25.1016L26.9609 9.37891L28.1641 9.37891C28.916 9.37891 29.3535 8.83203 29.3535 8.27148C29.3535 7.86133 29.1211 7.50586 28.6152 7.21875L16.9395 0.478516C16.3926 0.164062 15.8184 0 15.2578 0C14.6973 0 14.1094 0.164062 13.5898 0.478516L1.91406 7.21875C1.39453 7.50586 1.17578 7.86133 1.17578 8.27148C1.17578 8.83203 1.61328 9.37891 2.36523 9.37891L3.56836 9.37891L3.56836 25.1016L2.70703 25.1016C2.14648 25.1016 1.81836 25.4297 1.81836 25.9766ZM1.09375 29.1758L29.4219 29.1758C30.0234 29.1758 30.5293 28.6699 30.5293 28.0684C30.5293 27.4668 30.0234 26.9746 29.4219 26.9746L1.09375 26.9746C0.492188 26.9746 0 27.4668 0 28.0684C0 28.6699 0.492188 29.1758 1.09375 29.1758Z" fill="black" fill-opacity="0.85"/>
  <path d="M9.98047 21.916C9.57031 21.916 9.26953 21.6289 9.26953 21.2324C9.26953 20.8359 9.57031 20.5762 9.98047 20.5762L12.5098 20.5762L12.5098 20.5352C10.4043 19.4824 9.29688 17.2539 9.29688 14.998C9.29688 12.332 11.0195 10.2949 13.4805 9.625L13.4805 8.18945C13.4805 7.90234 13.6719 7.72461 13.9453 7.72461C14.2324 7.72461 14.4238 7.90234 14.4238 8.18945L14.4238 9.43359C14.7383 9.39258 15.0391 9.36523 15.3535 9.36523C15.6816 9.36523 16.0098 9.39258 16.3242 9.43359L16.3242 8.18945C16.3242 7.90234 16.5293 7.72461 16.7891 7.72461C17.0762 7.72461 17.2812 7.90234 17.2812 8.18945L17.2812 9.65234C19.5508 10.3633 21.2734 12.2773 21.2871 14.6562C21.2871 15.1348 20.9863 15.4766 20.5215 15.4766C20.0566 15.4766 19.7695 15.1484 19.7559 14.6562C19.7012 13.0977 18.7168 11.8125 17.2812 11.2109L17.2812 14.8203C17.2812 15.1074 17.0762 15.2988 16.7891 15.2988C16.5293 15.2988 16.3242 15.1074 16.3242 14.8203L16.3242 10.9102C16.0098 10.8418 15.6816 10.8145 15.3535 10.8145C15.0391 10.8145 14.7383 10.8418 14.4238 10.8828L14.4238 14.8203C14.4238 15.1074 14.2324 15.2988 13.9453 15.2988C13.6719 15.2988 13.4805 15.1074 13.4805 14.8203L13.4805 11.1699C11.9492 11.7715 10.9238 13.207 10.9238 15.2715C10.9238 18.1016 13.166 20.5625 16.4883 20.5625L19.6602 20.5625C20.0703 20.5625 20.3711 20.8359 20.3711 21.2324C20.3711 21.6289 20.0703 21.916 19.6602 21.916Z" fill="white"/>
 </g>
</svg>
