<?xml version="1.0" encoding="UTF-8"?>
<!--Generator: Apple Native CoreSVG 326-->
<!DOCTYPE svg
PUBLIC "-//W3C//DTD SVG 1.1//EN"
       "http://www.w3.org/Graphics/SVG/1.1/DTD/svg11.dtd">
<svg version="1.1" xmlns="http://www.w3.org/2000/svg" xmlns:xlink="http://www.w3.org/1999/xlink" viewBox="0 0 33.291 27.4395">
 <g>
  <rect height="27.4395" opacity="0" width="33.291" x="0" y="0"/>
  <path d="M32.9355 16.4609C32.9355 12.4414 31.4863 8.73633 29.0664 5.86523C28.793 5.53711 28.3281 5.53711 28.0273 5.85156L24.8555 9.02344C24.5957 9.2832 24.582 9.65234 24.8145 9.93945C26.2227 11.7441 27.0703 14.0137 27.0703 16.4609C27.0703 18.9219 26.2227 21.1914 24.7324 23.0918C24.541 23.3242 24.5547 23.625 24.7598 23.8438L28.0137 27.0977C28.3281 27.4121 28.7793 27.4121 29.0664 27.0703C31.4863 24.1992 32.9355 20.4941 32.9355 16.4609Z" fill="black" fill-opacity="0.85"/>
  <path d="M16.4609 5.86523C18.9355 5.86523 21.2051 6.72656 23.0234 8.13477C23.2969 8.35352 23.6523 8.32617 23.9121 8.06641L27.084 4.89453C27.3984 4.58008 27.3848 4.12891 27.0566 3.85547C24.1992 1.44922 20.4941 0 16.4609 0C12.4414 0 8.73633 1.44922 5.87891 3.85547C5.55078 4.12891 5.53711 4.58008 5.85156 4.89453L9.02344 8.06641C9.2832 8.32617 9.65234 8.35352 9.95312 8.12109C11.7578 6.72656 14.0137 5.86523 16.4609 5.86523Z" fill="black" fill-opacity="0.85"/>
  <path d="M0 16.4609C0 20.4941 1.44922 24.1992 3.86914 27.0703C4.14258 27.4121 4.60742 27.4121 4.9082 27.0977L8.16211 23.8438C8.36719 23.625 8.39453 23.3242 8.20312 23.0918C6.71289 21.1914 5.86523 18.9219 5.86523 16.4609C5.86523 14.0137 6.69922 11.7441 8.12109 9.93945C8.33984 9.65234 8.33984 9.2832 8.08008 9.02344L4.9082 5.85156C4.59375 5.53711 4.14258 5.53711 3.86914 5.86523C1.44922 8.73633 0 12.4414 0 16.4609Z" fill="black" fill-opacity="0.85"/>
  <path d="M11.3203 22.7227L20.6992 22.7227C21.0957 22.7227 21.3828 22.4492 21.3828 22.0664C21.3828 21.6836 21.0957 21.4102 20.6992 21.4102L17.6367 21.4102C14.4102 21.4102 12.2227 19.0449 12.2227 16.2969C12.2227 13.5352 14.1094 11.9629 16.5293 11.9629C18.8809 11.9629 20.7266 13.5762 20.7949 15.6953C20.8086 16.1602 21.082 16.4883 21.5469 16.4883C21.9844 16.4883 22.2715 16.1465 22.2715 15.6953C22.2578 12.7695 19.5645 10.5684 16.5293 10.5684C13.2344 10.5684 10.6777 12.8242 10.6777 16.0371C10.6777 18.2246 11.7305 20.3848 13.7949 21.3828L13.7949 21.4238L11.3203 21.4238C10.9238 21.4238 10.6504 21.6836 10.6504 22.0664C10.6504 22.4492 10.9238 22.7227 11.3203 22.7227ZM15.1621 16.3242C15.4492 16.3242 15.6406 16.1328 15.6406 15.8457L15.6406 9.41992C15.6406 9.16016 15.4492 8.96875 15.1621 8.96875C14.9023 8.96875 14.7109 9.16016 14.7109 9.41992L14.7109 15.8457C14.7109 16.1328 14.9023 16.3242 15.1621 16.3242ZM17.9375 16.3242C18.2109 16.3242 18.4023 16.1328 18.4023 15.8457L18.4023 9.41992C18.4023 9.16016 18.2109 8.96875 17.9375 8.96875C17.6641 8.96875 17.4727 9.16016 17.4727 9.41992L17.4727 15.8457C17.4727 16.1328 17.6641 16.3242 17.9375 16.3242Z" fill="black" fill-opacity="0.85"/>
 </g>
</svg>
