<?xml version="1.0" encoding="UTF-8"?>
<!--Generator: Apple Native CoreSVG 326-->
<!DOCTYPE svg
PUBLIC "-//W3C//DTD SVG 1.1//EN"
       "http://www.w3.org/Graphics/SVG/1.1/DTD/svg11.dtd">
<svg version="1.1" xmlns="http://www.w3.org/2000/svg" xmlns:xlink="http://www.w3.org/1999/xlink" viewBox="0 0 28.5332 30.8301">
 <g>
  <rect height="30.8301" opacity="0" width="28.5332" x="0" y="0"/>
  <path d="M0 15.4082C0 21.6836 5.38672 25.2109 12.1133 25.2109C12.7422 25.2109 13.3848 25.1836 14.0137 25.1289L13.5352 23.1191C13.0977 23.1465 12.6738 23.1602 12.25 23.1602C6.68555 23.1602 2.06445 20.5898 2.06445 15.4219C2.06445 9.46094 8.90039 5.27734 15.4492 5.27734C21.1777 5.27734 26.1133 8.83203 26.1133 14.2324C26.1133 19.209 20.7539 23.4746 15.6816 23.4746C14.7109 23.4746 14 23.0918 14 22.4355C14 21.2871 15.5859 20.5215 17.5684 20.5215C19.9199 20.5215 21.7109 22.2441 21.7109 24.6094C21.7109 26.25 20.7812 27.8496 19.2637 28.8203C18.8672 29.1074 18.5664 29.3945 18.5664 29.8867C18.5664 30.3926 18.9766 30.8301 19.6328 30.8301C19.9199 30.8301 20.0977 30.748 20.3711 30.584C22.4629 29.2168 23.7754 26.9336 23.7754 24.5684C23.7754 21.0684 20.9727 18.4434 17.418 18.4434C14.2734 18.4434 11.9219 20.084 11.9219 22.5039C11.9219 24.3359 13.4395 25.5254 15.6816 25.5254C21.8613 25.5254 28.1777 20.3984 28.1777 14.2461C28.1777 7.73828 22.3672 3.21289 15.4355 3.21289C7.84766 3.21289 0 8.18945 0 15.4082Z" fill="black" fill-opacity="0.85"/>
 </g>
</svg>
