<?xml version="1.0" encoding="UTF-8"?>
<!--Generator: Apple Native CoreSVG 326-->
<!DOCTYPE svg
PUBLIC "-//W3C//DTD SVG 1.1//EN"
       "http://www.w3.org/Graphics/SVG/1.1/DTD/svg11.dtd">
<svg version="1.1" xmlns="http://www.w3.org/2000/svg" xmlns:xlink="http://www.w3.org/1999/xlink" viewBox="0 0 14.4856 29.8574">
 <g>
  <rect height="29.8574" opacity="0" width="14.4856" x="0" y="0"/>
  <path d="M9.62169 27.5C8.82872 27.4316 7.84435 27.6504 7.17443 28.0605C6.88732 28.2246 6.8463 28.4844 7.09239 28.7031C7.70763 29.2636 8.65099 29.6875 9.45763 29.7422C10.2916 29.8515 11.2897 29.5918 11.9596 29.0859C12.1783 28.9355 12.192 28.7031 11.9869 28.5117C11.3854 27.9511 10.442 27.5547 9.62169 27.5ZM12.4928 22.8789C12.0553 23.5488 11.8092 24.5332 11.8365 25.3261C11.8912 26.1601 12.274 27.1172 12.8072 27.7051C12.985 27.9101 13.2037 27.9101 13.3815 27.6914C13.9147 27.0625 14.2018 26.0644 14.1197 25.2168C14.0651 24.4238 13.6686 23.4804 13.1217 22.8515C12.9166 22.6054 12.6705 22.6191 12.4928 22.8789ZM5.76622 23.7949C5.01427 23.5215 3.98888 23.4941 3.22325 23.7265C2.92247 23.8222 2.84044 24.0547 3.0045 24.3281C3.45568 25.0254 4.26232 25.6679 5.01427 25.9414C5.77989 26.2558 6.81896 26.2558 7.59825 25.9277C7.85802 25.832 7.92638 25.6269 7.77599 25.3808C7.33849 24.6836 6.53185 24.0547 5.76622 23.7949ZM9.70372 20.0761C9.11583 20.6094 8.60997 21.4844 8.45958 22.2636C8.28185 23.084 8.40489 24.1094 8.77404 24.8066C8.88341 25.0664 9.10216 25.1074 9.33458 24.9433C9.99083 24.4648 10.524 23.5761 10.6608 22.7285C10.8248 21.9492 10.6881 20.9238 10.319 20.1855C10.1959 19.8847 9.93614 19.8437 9.70372 20.0761ZM0.0103633 18.5039C0.119738 19.2969 0.598254 20.2265 1.18614 20.8008C1.76036 21.4023 2.70372 21.8125 3.55138 21.8398C3.82482 21.8535 3.97521 21.6758 3.93419 21.4023C3.79747 20.5683 3.31896 19.6797 2.73107 19.1465C2.14318 18.5859 1.24083 18.1484 0.447863 18.0527C0.119738 18.0117-0.0443242 18.1894 0.0103633 18.5039ZM7.84435 17.3281C7.09239 17.5879 6.28575 18.1894 5.82091 18.832C5.32872 19.4746 5.04161 20.4453 5.06896 21.2929C5.0963 21.5527 5.27404 21.6894 5.54747 21.6484C6.36779 21.457 7.22911 20.8691 7.66661 20.1582C8.11779 19.4609 8.41857 18.4902 8.36388 17.6836C8.36388 17.3554 8.1588 17.2187 7.84435 17.3281ZM5.56114 14.1289C4.91857 14.6484 4.38536 15.5234 4.2213 16.3301C4.18029 16.5761 4.317 16.7676 4.57677 16.7812C5.42443 16.8086 6.39513 16.4394 7.01036 15.8926C7.6256 15.3594 8.17247 14.4707 8.35021 13.6777C8.39122 13.3769 8.22716 13.1719 7.92638 13.1855C7.10607 13.2539 6.16271 13.6094 5.56114 14.1289ZM0.0240352 12.3379C-0.0579961 13.1445 0.160754 14.1426 0.598254 14.8535C1.00841 15.5918 1.81505 16.2344 2.60802 16.4531C2.85411 16.5351 3.07286 16.3984 3.10021 16.125C3.18224 15.3457 2.94982 14.3476 2.51232 13.6367C2.07482 12.9531 1.29552 12.2969 0.57091 12.0097C0.283801 11.8867 0.0513789 12.0097 0.0240352 12.3379ZM6.3131 9.53513C5.5338 9.80857 4.72716 10.4238 4.28966 11.1347C4.13927 11.3535 4.2213 11.5859 4.46739 11.6953C5.24669 12.0097 6.27208 12.0097 7.05138 11.6953C7.84435 11.3945 8.66466 10.7383 9.06114 10.041C9.22521 9.7949 9.14318 9.56248 8.84239 9.46677C8.0631 9.24802 7.05138 9.2617 6.3131 9.53513ZM1.71935 5.9531C1.36388 6.70506 1.22716 7.71677 1.37755 8.50974C1.52794 9.34373 2.06114 10.2187 2.74474 10.7109C2.94982 10.875 3.16857 10.8066 3.30529 10.5605C3.66075 9.84959 3.7838 8.83787 3.60607 8.03123C3.442 7.23826 2.92247 6.36326 2.34825 5.81638C2.1295 5.62498 1.86974 5.67967 1.71935 5.9531ZM8.78771 5.59763C7.98107 5.74802 7.09239 6.26756 6.58654 6.89646C6.42247 7.08787 6.46349 7.32029 6.68224 7.47068C7.40685 7.89451 8.43224 8.03123 9.23888 7.81248C10.0455 7.63474 10.9342 7.10154 11.4537 6.49998C11.6588 6.25388 11.6041 6.00779 11.317 5.88474C10.5924 5.55662 9.59435 5.43357 8.78771 5.59763ZM4.7545 1.3867C4.28966 2.08396 4.01622 3.08201 4.07091 3.87498C4.08458 4.70896 4.49474 5.65232 5.0963 6.25388C5.30138 6.44529 5.5338 6.41795 5.68419 6.1992C6.13536 5.50193 6.4088 4.50388 6.34044 3.71092C6.28575 2.93162 5.91661 2.00193 5.39708 1.35935C5.17833 1.11326 4.93224 1.1406 4.7545 1.3867ZM11.8092 0.00583726C11.0162 0.128884 10.1139 0.6074 9.53966 1.16795C8.96544 1.72849 8.51427 2.67185 8.41857 3.46482C8.39122 3.73826 8.54161 3.90232 8.81505 3.88865C9.64904 3.84763 10.5787 3.41013 11.1529 2.76756C11.6998 2.19334 12.151 1.27732 12.274 0.457009C12.3014 0.142556 12.1373-0.0351784 11.8092 0.00583726Z" fill="black" fill-opacity="0.85"/>
 </g>
</svg>
