<?xml version="1.0" encoding="UTF-8"?>
<!--Generator: Apple Native CoreSVG 326-->
<!DOCTYPE svg
PUBLIC "-//W3C//DTD SVG 1.1//EN"
       "http://www.w3.org/Graphics/SVG/1.1/DTD/svg11.dtd">
<svg version="1.1" xmlns="http://www.w3.org/2000/svg" xmlns:xlink="http://www.w3.org/1999/xlink" viewBox="0 0 28.2461 27.9043">
 <g>
  <rect height="27.9043" opacity="0" width="28.2461" x="0" y="0"/>
  <path d="M13.9453 27.8906C21.6426 27.8906 27.8906 21.6289 27.8906 13.9453C27.8906 6.24805 21.6426 0 13.9453 0C6.26172 0 0 6.24805 0 13.9453C0 21.6289 6.26172 27.8906 13.9453 27.8906Z" fill="#28cd41"/>
  <path d="M7.08203 8.58594C7.16406 8.14844 7.54688 8.12109 7.82031 8.39453C8.75 9.33789 9.89844 9.46094 10.9238 9.46094C11.8672 9.46094 13.0293 9.20117 14.0684 9.20117C17.1035 9.20117 19.2773 10.6914 19.2773 13.7949C19.2773 14.082 19.2637 14.3828 19.2363 14.5742C19.1816 14.7793 18.9355 14.9023 18.7168 14.6836C15.9551 12.1953 13.2344 13.7949 10.9648 11.8125C10.7188 11.6211 10.5 11.7988 10.582 12.0039C11.6758 14.8613 15.9141 13.3438 18.7168 15.9141C19.3867 16.5156 20.6445 18.0605 20.6445 18.9355C20.6445 19.4961 20.248 19.9062 19.7832 19.9062C19.5781 19.9062 19.3457 19.7969 19.2637 19.4961C18.9219 18.4023 18.6211 17.6094 18.0742 16.8848C17.459 17.6641 16.1465 18.5801 14.041 18.5801C9.70703 18.5801 6.87695 15.4082 6.87695 10.6504C6.87695 10.0762 6.95898 9.22852 7.08203 8.58594Z" fill="white"/>
 </g>
</svg>
