<?xml version="1.0" encoding="UTF-8"?>
<!--Generator: Apple Native CoreSVG 326-->
<!DOCTYPE svg
PUBLIC "-//W3C//DTD SVG 1.1//EN"
       "http://www.w3.org/Graphics/SVG/1.1/DTD/svg11.dtd">
<svg version="1.1" xmlns="http://www.w3.org/2000/svg" xmlns:xlink="http://www.w3.org/1999/xlink" viewBox="0 0 19.1953 18.1699">
 <g>
  <rect height="18.1699" opacity="0" width="19.1953" x="0" y="0"/>
  <path d="M17.6914 18.1699C18.3613 18.1699 18.8398 17.6914 18.8398 16.9395C18.8398 16.3105 18.5254 15.9551 17.9512 15.6816L3.22656 9.13281L3.22656 8.98242L17.9512 2.48828C18.5254 2.21484 18.8398 1.85938 18.8398 1.23047C18.8398 0.505859 18.3477 0.0136719 17.6367 0.0136719C17.2676 0.0136719 17.0352 0.109375 16.7617 0.246094L1.39453 7.31445C0.601562 7.66992 0 8.29883 0 9.16016C0 10.0352 0.601562 10.6367 1.39453 11.0059L16.7617 17.9102C17.0488 18.0469 17.2949 18.1699 17.6914 18.1699Z" fill="black" fill-opacity="0.85"/>
 </g>
</svg>
