<?xml version="1.0" encoding="UTF-8"?>
<!--Generator: Apple Native CoreSVG 326-->
<!DOCTYPE svg
PUBLIC "-//W3C//DTD SVG 1.1//EN"
       "http://www.w3.org/Graphics/SVG/1.1/DTD/svg11.dtd">
<svg version="1.1" xmlns="http://www.w3.org/2000/svg" xmlns:xlink="http://www.w3.org/1999/xlink" viewBox="0 0 35.041 22.5723">
 <g>
  <rect height="22.5723" opacity="0" width="35.041" x="0" y="0"/>
  <path d="M4.29297 22.5723L30.3926 22.5723C33.2637 22.5723 34.6855 21.1504 34.6855 18.334L34.6855 4.25195C34.6855 1.43555 33.2637 0.0136719 30.3926 0.0136719L4.29297 0.0136719C1.43555 0.0136719 0 1.42188 0 4.25195L0 18.334C0 21.1504 1.43555 22.5723 4.29297 22.5723ZM4.32031 20.3711C2.95312 20.3711 2.20117 19.6328 2.20117 18.2109L2.20117 4.36133C2.20117 2.93945 2.95312 2.21484 4.32031 2.21484L30.3652 2.21484C31.7051 2.21484 32.4844 2.93945 32.4844 4.36133L32.4844 18.2109C32.4844 19.6328 31.7051 20.3711 30.3652 20.3711Z" fill="black" fill-opacity="0.85"/>
  <path d="M4.60742 15.832C5.05859 15.832 5.3457 15.5312 5.41406 15.1074L5.72852 13.6445L7.56055 13.6445L7.86133 15.1211C7.94336 15.5723 8.2168 15.832 8.68164 15.832C9.13281 15.832 9.44727 15.4902 9.44727 15.0391C9.44727 14.916 9.43359 14.7109 9.40625 14.6016L7.79297 7.71094C7.66992 7.12305 7.27344 6.75391 6.60352 6.75391C6.0293 6.75391 5.63281 7.08203 5.48242 7.72461L3.88281 14.5879C3.85547 14.7109 3.81445 14.9023 3.81445 15.0391C3.81445 15.4902 4.08789 15.832 4.60742 15.832ZM5.90625 12.373L6.63086 8.87305L7.36914 12.373ZM11.0605 15.832C11.5527 15.832 11.8535 15.5312 11.8535 15.0117L11.8535 12.8379L12.7695 12.8379C14.3145 12.8379 15.2578 11.5527 15.2578 9.87109C15.2578 8.36719 14.4648 6.87695 12.8789 6.87695L11.0605 6.87695C10.541 6.87695 10.2812 7.24609 10.2812 7.69727L10.2812 15.0117C10.2812 15.5312 10.5684 15.832 11.0605 15.832ZM11.8535 11.5801L11.8535 8.14844L12.4688 8.14844C13.3574 8.14844 13.6582 8.96875 13.6582 9.87109C13.6582 10.7871 13.3301 11.5801 12.4688 11.5801ZM18.4707 15.8047C18.9629 15.8047 19.3047 15.4355 19.3047 14.9434L19.3047 7.65625C19.3047 7.15039 18.9219 6.76758 18.4023 6.76758C18.0332 6.76758 17.7324 6.91797 17.3359 7.23242L16.3379 8.10742C16.1191 8.29883 15.9688 8.53125 15.9688 8.75C15.9688 9.11914 16.2559 9.39258 16.6113 9.39258C16.748 9.39258 16.9258 9.32422 17.0352 9.24219L17.6777 8.70898L17.6777 14.9434C17.6777 15.4355 18.0059 15.8047 18.4707 15.8047ZM21.082 15.709L24.3359 15.709C24.6914 15.709 25.0059 15.3809 25.0059 14.998C25.0059 14.6016 24.6914 14.3008 24.3359 14.3008L22.2852 14.3008L23.584 12.3867C24.2676 11.4297 24.8828 10.3906 24.8828 9.24219C24.8828 7.73828 24.0352 6.68555 22.5859 6.68555C21.2051 6.68555 20.3164 8.09375 20.3164 9.07812C20.3164 9.48828 20.5898 9.81641 21.0273 9.81641C21.4375 9.81641 21.6699 9.58398 21.7793 9.10547C21.9023 8.51758 22.0938 8.08008 22.5723 8.08008C23.1055 8.08008 23.3242 8.59961 23.3242 9.26953C23.3242 10.0488 22.9004 10.8691 22.2715 11.7852L20.6445 14.2051C20.3848 14.5742 20.3301 14.7793 20.3301 14.9844C20.3301 15.4355 20.6582 15.709 21.082 15.709ZM28.1504 15.873C29.668 15.873 30.6523 14.7109 30.6523 13.207C30.6523 12.25 30.2559 11.3887 29.5039 11.0879C30.0645 10.7051 30.4336 9.92578 30.4336 9.13281C30.4336 7.90234 29.6816 6.71289 28.0957 6.71289C26.7832 6.71289 25.7988 7.71094 25.7988 8.96875C25.7988 9.37891 26.0859 9.67969 26.4961 9.67969C26.8789 9.67969 27.1387 9.48828 27.2617 9.0918C27.4121 8.47656 27.6582 8.09375 28.0957 8.09375C28.6016 8.09375 28.8887 8.54492 28.8887 9.25586C28.8887 9.89844 28.6152 10.5273 27.918 10.5273L27.6719 10.5273C27.2891 10.5273 27.0156 10.8008 27.0156 11.1699C27.0156 11.5527 27.2891 11.8398 27.6719 11.8398L27.918 11.8398C28.7383 11.8398 29.0527 12.291 29.0527 13.166C29.0527 13.9453 28.7793 14.4648 28.1504 14.4648C27.6719 14.4648 27.3301 14.1504 27.1523 13.4531C27.0566 13.1934 26.8652 12.8789 26.4277 12.8789C25.9082 12.8789 25.6758 13.2754 25.6758 13.6172C25.6758 14.4785 26.4141 15.873 28.1504 15.873Z" fill="black" fill-opacity="0.85"/>
 </g>
</svg>
