<?xml version="1.0" encoding="UTF-8"?>
<!--Generator: Apple Native CoreSVG 326-->
<!DOCTYPE svg
PUBLIC "-//W3C//DTD SVG 1.1//EN"
       "http://www.w3.org/Graphics/SVG/1.1/DTD/svg11.dtd">
<svg version="1.1" xmlns="http://www.w3.org/2000/svg" xmlns:xlink="http://www.w3.org/1999/xlink" viewBox="0 0 28.2461 27.9043">
 <g>
  <rect height="27.9043" opacity="0" width="28.2461" x="0" y="0"/>
  <path d="M13.959 19.0176C11.1426 19.0176 8.88672 16.748 8.88672 13.9453C8.88672 11.1426 11.1426 8.87305 13.959 8.87305C16.7617 8.87305 19.0176 11.1426 19.0176 13.9453C19.0176 16.748 16.7617 19.0176 13.959 19.0176ZM4.56641 7.0957C5.26367 6.11133 6.09766 5.26367 7.06836 4.56641L9.77539 7.27344C8.77734 7.91602 7.88867 8.77734 7.25977 9.78906ZM23.3242 7.10938L20.6172 9.80273C20.002 8.79102 19.1133 7.92969 18.1152 7.28711L20.8223 4.58008C21.793 5.27734 22.627 6.13867 23.3242 7.10938ZM23.3242 20.7539C22.6406 21.7246 21.793 22.5859 20.8359 23.2832L18.1152 20.5762C19.127 19.9336 20.002 19.0723 20.6309 18.0605ZM4.58008 20.7676L7.27344 18.0742C7.90234 19.0859 8.77734 19.9473 9.77539 20.5898L7.06836 23.2969C6.11133 22.5996 5.26367 21.752 4.58008 20.7676ZM13.9453 27.9043C21.6426 27.9043 27.8906 21.6562 27.8906 13.959C27.8906 6.27539 21.6426 0.0136719 13.9453 0.0136719C6.26172 0.0136719 0 6.27539 0 13.959C0 21.6562 6.26172 27.9043 13.9453 27.9043Z" fill="black" fill-opacity="0.85"/>
 </g>
</svg>
