<?xml version="1.0" encoding="UTF-8"?>
<!--Generator: Apple Native CoreSVG 326-->
<!DOCTYPE svg
PUBLIC "-//W3C//DTD SVG 1.1//EN"
       "http://www.w3.org/Graphics/SVG/1.1/DTD/svg11.dtd">
<svg version="1.1" xmlns="http://www.w3.org/2000/svg" xmlns:xlink="http://www.w3.org/1999/xlink" viewBox="0 0 44.9668 32.5254">
 <g>
  <rect height="32.5254" opacity="0" width="44.9668" x="0" y="0"/>
  <path d="M22.2988 32.5254C28.2734 32.5254 32.7988 29.7227 32.7988 25.9902C32.7988 22.2441 28.2734 19.4551 22.2988 19.4551C16.3105 19.4551 11.7715 22.2305 11.7715 25.9902C11.7715 29.7363 16.3105 32.5254 22.2988 32.5254ZM22.2852 29.8457C18.4844 29.8457 15.6953 28.2734 15.6953 26.1406C15.6953 24.0215 18.4844 22.4355 22.2852 22.4355C26.0996 22.4355 28.9023 24.0215 28.9023 26.1406C28.9023 28.2734 26.0996 29.8457 22.2852 29.8457ZM22.2852 26.7695C24.2539 26.7695 26.0586 25.9902 26.9336 24.7871C25.9629 24.0625 24.1855 23.5977 22.2852 23.5977C20.3711 23.5977 18.5938 24.0625 17.623 24.8281C18.5117 25.9902 20.3301 26.7695 22.2852 26.7695Z" fill="black" fill-opacity="0.85"/>
  <path d="M34.1113 18.8809C40.0586 18.8809 44.6113 16.0918 44.6113 12.3594C44.6113 8.61328 40.0586 5.81055 34.1113 5.81055C28.1094 5.81055 23.584 8.59961 23.584 12.3594C23.584 16.1055 28.1094 18.8809 34.1113 18.8809ZM34.084 16.2012C30.2832 16.2012 27.4941 14.6289 27.4941 12.5234C27.4941 10.377 30.2832 8.80469 34.084 8.80469C37.9121 8.80469 40.6875 10.377 40.6875 12.5234C40.6875 14.6289 37.9121 16.2012 34.084 16.2012ZM34.0977 13.1523C36.0527 13.1523 37.8574 12.3457 38.7461 11.1426C37.7617 10.4316 35.9844 9.95312 34.0977 9.95312C32.1562 9.95312 30.3926 10.4316 29.4355 11.1836C30.3242 12.3457 32.1289 13.1523 34.0977 13.1523Z" fill="black" fill-opacity="0.85"/>
  <path d="M10.5273 18.8809C16.502 18.8809 21.0273 16.0918 21.0273 12.3594C21.0273 8.61328 16.502 5.81055 10.5273 5.81055C4.53906 5.81055 0 8.59961 0 12.3594C0 16.1055 4.53906 18.8809 10.5273 18.8809ZM10.5137 16.2012C6.71289 16.2012 3.92383 14.6289 3.92383 12.5234C3.92383 10.377 6.71289 8.80469 10.5137 8.80469C14.3418 8.80469 17.1309 10.377 17.1309 12.5234C17.1309 14.6289 14.3418 16.2012 10.5137 16.2012ZM10.5137 13.1523C12.4824 13.1523 14.2734 12.3457 15.1621 11.1426C14.1914 10.4316 12.4141 9.95312 10.5137 9.95312C8.58594 9.95312 6.82227 10.4316 5.85156 11.1836C6.75391 12.3457 8.55859 13.1523 10.5137 13.1523Z" fill="black" fill-opacity="0.85"/>
 </g>
</svg>
