<?xml version="1.0" encoding="UTF-8"?>
<!--Generator: Apple Native CoreSVG 326-->
<!DOCTYPE svg
PUBLIC "-//W3C//DTD SVG 1.1//EN"
       "http://www.w3.org/Graphics/SVG/1.1/DTD/svg11.dtd">
<svg version="1.1" xmlns="http://www.w3.org/2000/svg" xmlns:xlink="http://www.w3.org/1999/xlink" viewBox="0 0 27.6309 28.7793">
 <g>
  <rect height="28.7793" opacity="0" width="27.6309" x="0" y="0"/>
  <path d="M13.6309 28.7656C21.834 28.7656 27.2754 25.9629 27.2754 21.6152L27.2754 7.66992C27.2754 3.00781 21.8203 0 13.6309 0C5.45508 0 0 3.00781 0 7.66992L0 21.6152C0 25.9629 5.44141 28.7656 13.6309 28.7656ZM13.6309 26.5645C6.82227 26.5645 2.20117 24.4863 2.20117 21.6152L2.20117 7.66992C2.20117 4.4707 6.79492 2.20117 13.6309 2.20117C20.4805 2.20117 25.0742 4.4707 25.0742 7.66992L25.0742 21.6152C25.0742 24.4863 20.4395 26.5645 13.6309 26.5645ZM13.6309 16.666C20.4395 16.666 25.0742 18.7441 25.0742 21.6152L27.2754 21.6152C27.2754 17.2676 21.834 14.4648 13.6309 14.4648C5.44141 14.4648 0 17.2676 0 21.6152L2.20117 21.6152C2.20117 18.7441 6.82227 16.666 13.6309 16.666ZM13.6309 22.2715C16.7344 22.2715 19.25 20.6172 19.332 18.6074C17.7324 18.2109 15.791 17.9785 13.6309 17.9785C11.4844 17.9785 9.5293 18.2109 7.94336 18.6074C8.02539 20.6172 10.5273 22.2715 13.6309 22.2715Z" fill="black" fill-opacity="0.85"/>
 </g>
</svg>
