<?xml version="1.0" encoding="UTF-8"?>
<!--Generator: Apple Native CoreSVG 326-->
<!DOCTYPE svg
PUBLIC "-//W3C//DTD SVG 1.1//EN"
       "http://www.w3.org/Graphics/SVG/1.1/DTD/svg11.dtd">
<svg version="1.1" xmlns="http://www.w3.org/2000/svg" xmlns:xlink="http://www.w3.org/1999/xlink" viewBox="0 0 28.2461 27.8496">
 <g>
  <rect height="27.8496" opacity="0" width="28.2461" x="0" y="0"/>
  <path d="M27.8906 13.918C27.8906 11.6895 27.3438 9.59766 26.373 7.73828L26.373 20.1113C27.3438 18.252 27.8906 16.1328 27.8906 13.918Z" fill="#af52de"/>
  <path d="M23.4473 24.0625C23.9941 23.5566 24.5 22.9961 24.9648 22.4082L24.9648 5.44141C24.5 4.85352 23.9941 4.2793 23.4473 3.77344Z" fill="#5856d6"/>
  <path d="M20.5078 26.1816C21.041 25.9082 21.5469 25.5801 22.0254 25.2383L22.0254 2.59766C21.5469 2.25586 21.041 1.92773 20.5078 1.6543Z" fill="#3e33f1"/>
  <path d="M17.582 27.3711C18.0879 27.2207 18.6074 27.0566 19.0996 26.8516L19.0996 0.984375C18.6074 0.779297 18.0879 0.615234 17.582 0.478516Z" fill="#007aff"/>
  <path d="M14.6426 27.8359C15.1621 27.8223 15.668 27.7676 16.1602 27.6855L16.1602 0.164062C15.668 0.0683594 15.1621 0.0136719 14.6426 0Z" fill="#00c7be"/>
  <path d="M11.7305 27.6855C12.2227 27.7676 12.7285 27.8223 13.248 27.8359L13.248 0C12.7285 0.0136719 12.2227 0.0683594 11.7305 0.150391Z" fill="#57df24"/>
  <path d="M8.79102 26.8516C9.2832 27.0566 9.80273 27.2207 10.3086 27.3711L10.3086 0.464844C9.80273 0.601562 9.2832 0.779297 8.79102 0.970703Z" fill="#ecf701"/>
  <path d="M5.86523 25.2383C6.35742 25.5801 6.84961 25.9082 7.38281 26.1816L7.38281 1.64062C6.84961 1.91406 6.35742 2.24219 5.86523 2.58398Z" fill="#ffcc00"/>
  <path d="M2.92578 22.4082C3.39062 22.9961 3.89648 23.5566 4.44336 24.0625L4.44336 3.75977C3.89648 4.26562 3.39062 4.83984 2.92578 5.42773Z" fill="#ff9500"/>
  <path d="M0 13.918C0 16.1328 0.546875 18.252 1.51758 20.1113L1.51758 7.72461C0.546875 9.58398 0 11.6895 0 13.918Z" fill="#ff3b30"/>
 </g>
</svg>
