<?xml version="1.0" encoding="UTF-8"?>
<!--Generator: Apple Native CoreSVG 326-->
<!DOCTYPE svg
PUBLIC "-//W3C//DTD SVG 1.1//EN"
       "http://www.w3.org/Graphics/SVG/1.1/DTD/svg11.dtd">
<svg version="1.1" xmlns="http://www.w3.org/2000/svg" xmlns:xlink="http://www.w3.org/1999/xlink" viewBox="0 0 32.7031 47.7285">
 <g>
  <rect height="47.7285" opacity="0" width="32.7031" x="0" y="0"/>
  <path d="M3.78711 17.3633C4.42969 17.3633 4.99023 16.8301 4.99023 16.1875C4.99023 15.5312 4.42969 14.998 3.78711 14.998L1.16211 14.998C0.533203 14.998 0 15.5449 0 16.1875C0 16.8164 0.533203 17.3633 1.16211 17.3633ZM6.58984 8.27148C7.04102 8.72266 7.79297 8.73633 8.24414 8.27148C8.70898 7.80664 8.69531 7.06836 8.24414 6.61719L6.39844 4.74414C5.96094 4.29297 5.19531 4.29297 4.73047 4.74414C4.2793 5.22266 4.2793 5.94727 4.73047 6.39844ZM14.998 3.81445C14.998 4.44336 15.5312 4.99023 16.1738 4.99023C16.8301 4.99023 17.3633 4.44336 17.3633 3.81445L17.3633 1.18945C17.3633 0.546875 16.8164 0 16.1738 0C15.5312 0 14.998 0.546875 14.998 1.18945ZM24.0898 6.61719C23.6387 7.06836 23.625 7.80664 24.0898 8.27148C24.5684 8.73633 25.293 8.72266 25.7441 8.27148L27.6172 6.39844C28.0684 5.94727 28.0684 5.22266 27.6172 4.74414C27.1387 4.29297 26.4141 4.29297 25.9629 4.74414ZM31.1582 17.3633C31.8008 17.3633 32.3477 16.8164 32.3477 16.1875C32.3477 15.5449 31.8008 14.998 31.1582 14.998L28.5332 14.998C27.9043 14.998 27.3574 15.5312 27.3574 16.1875C27.3574 16.8301 27.9043 17.3633 28.5332 17.3633Z" fill="black" fill-opacity="0.85"/>
  <path d="M16.1738 7.5332C11.334 7.5332 7.54688 11.0469 7.54688 15.5176C7.54688 20.4668 10.5 21.6973 11.3203 30.2422C11.375 30.7207 11.6348 31.0215 12.1406 31.0215L20.207 31.0215C20.7129 31.0215 20.9727 30.7207 21.0137 30.2422C21.8477 21.6973 24.8145 20.4668 24.8145 15.5176C24.8145 11.0469 21 7.5332 16.1738 7.5332ZM12.0996 33.8105L20.248 33.8105C20.6992 33.8105 21.041 33.4824 21.041 33.0312C21.041 32.5801 20.6992 32.252 20.248 32.252L12.0996 32.252C11.6621 32.252 11.3203 32.5801 11.3203 33.0312C11.3203 33.4824 11.6621 33.8105 12.0996 33.8105ZM16.1738 37.5566C18.1836 37.5566 19.8926 36.5449 19.9883 35.041L12.3594 35.041C12.4414 36.5449 14.1504 37.5566 16.1738 37.5566Z" fill="black" fill-opacity="0.85"/>
 </g>
</svg>
