<?xml version="1.0" encoding="UTF-8"?>
<!--Generator: Apple Native CoreSVG 326-->
<!DOCTYPE svg
PUBLIC "-//W3C//DTD SVG 1.1//EN"
       "http://www.w3.org/Graphics/SVG/1.1/DTD/svg11.dtd">
<svg version="1.1" xmlns="http://www.w3.org/2000/svg" xmlns:xlink="http://www.w3.org/1999/xlink" viewBox="0 0 25.5254 25.1699">
 <g>
  <rect height="25.1699" opacity="0" width="25.5254" x="0" y="0"/>
  <path d="M4.29297 25.1699L20.877 25.1699C23.748 25.1699 25.1699 23.7617 25.1699 20.9453L25.1699 4.23828C25.1699 1.42188 23.748 0 20.877 0L4.29297 0C1.43555 0 0 1.42188 0 4.23828L0 20.9453C0 23.7617 1.43555 25.1699 4.29297 25.1699Z" fill="black" fill-opacity="0.85"/>
  <path d="M8.83203 5.23633L16.3379 5.23633C16.9395 5.23633 17.377 5.67383 17.377 6.28906L17.377 18.9082C17.377 19.5098 16.9395 19.9473 16.3379 19.9473L8.83203 19.9473C8.23047 19.9473 7.79297 19.5098 7.79297 18.9082L7.79297 6.28906C7.79297 5.67383 8.23047 5.23633 8.83203 5.23633ZM9.85742 13.9043C9.58398 13.9043 9.39258 14.0957 9.39258 14.3828L9.39258 17.8691C9.39258 18.1562 9.58398 18.3477 9.85742 18.3477L15.3125 18.3477C15.5859 18.3477 15.7773 18.1562 15.7773 17.8691L15.7773 14.3828C15.7773 14.0957 15.5859 13.9043 15.3125 13.9043Z" fill="white"/>
 </g>
</svg>
