<?xml version="1.0" encoding="UTF-8"?>
<!--Generator: Apple Native CoreSVG 326-->
<!DOCTYPE svg
PUBLIC "-//W3C//DTD SVG 1.1//EN"
       "http://www.w3.org/Graphics/SVG/1.1/DTD/svg11.dtd">
<svg version="1.1" xmlns="http://www.w3.org/2000/svg" xmlns:xlink="http://www.w3.org/1999/xlink" viewBox="0 0 23.6934 23.0918">
 <g>
  <rect height="23.0918" opacity="0" width="23.6934" x="0" y="0"/>
  <path d="M0.710938 2.69336L22.6133 2.69336C23.0508 2.69336 23.3379 2.41992 23.3379 1.98242L23.3379 1.32617C23.3379 0.902344 23.0508 0.628906 22.6133 0.628906L0.710938 0.628906C0.273438 0.628906 0 0.902344 0 1.32617L0 1.98242C0 2.41992 0.273438 2.69336 0.710938 2.69336ZM1.06641 11.3613L22.2715 11.3613C22.9277 11.3613 23.3379 10.9648 23.3379 10.3086L23.3379 8.01172C23.3379 7.3418 22.9277 6.94531 22.2715 6.94531L1.06641 6.94531C0.396484 6.94531 0 7.3418 0 8.01172L0 10.3086C0 10.9648 0.396484 11.3613 1.06641 11.3613ZM1.06641 23.0918L22.2715 23.0918C22.9277 23.0918 23.3379 22.6953 23.3379 22.0254L23.3379 16.5977C23.3379 15.9277 22.9277 15.5312 22.2715 15.5312L1.06641 15.5312C0.396484 15.5312 0 15.9277 0 16.5977L0 22.0254C0 22.6953 0.396484 23.0918 1.06641 23.0918Z" fill="black" fill-opacity="0.85"/>
 </g>
</svg>
