<?xml version="1.0" encoding="UTF-8"?>
<!--Generator: Apple Native CoreSVG 326-->
<!DOCTYPE svg
PUBLIC "-//W3C//DTD SVG 1.1//EN"
       "http://www.w3.org/Graphics/SVG/1.1/DTD/svg11.dtd">
<svg version="1.1" xmlns="http://www.w3.org/2000/svg" xmlns:xlink="http://www.w3.org/1999/xlink" viewBox="0 0 24.8828 28.5605">
 <g>
  <rect height="28.5605" opacity="0" width="24.8828" x="0" y="0"/>
  <path d="M5.44141 1.39453C5.44141 2.29688 5.91992 2.77539 6.82227 2.77539L17.6914 2.77539C18.6074 2.77539 19.0859 2.29688 19.0859 1.39453C19.0859 0.478516 18.6074 0 17.6914 0L6.82227 0C5.91992 0 5.44141 0.478516 5.44141 1.39453ZM8.90039 7.83398C8.90039 8.73633 9.36523 9.21484 10.2812 9.21484L14.2461 9.21484C15.1484 9.21484 15.627 8.73633 15.627 7.83398C15.627 6.93164 15.1484 6.45312 14.2461 6.45312L10.2812 6.45312C9.36523 6.45312 8.90039 6.93164 8.90039 7.83398ZM0 14.2734C0 15.1895 0.478516 15.6543 1.39453 15.6543L23.1328 15.6543C24.0488 15.6543 24.5273 15.1895 24.5273 14.2734C24.5273 13.3574 24.0488 12.8789 23.1328 12.8789L1.39453 12.8789C0.478516 12.8789 0 13.3574 0 14.2734ZM8.90039 20.6992C8.90039 21.6152 9.36523 22.0938 10.2812 22.0938L14.2461 22.0938C15.1484 22.0938 15.627 21.6152 15.627 20.6992C15.627 19.8105 15.1484 19.332 14.2461 19.332L10.2812 19.332C9.36523 19.332 8.90039 19.8105 8.90039 20.6992ZM5.44141 27.1523C5.44141 28.0684 5.91992 28.5469 6.82227 28.5469L17.6914 28.5469C18.6074 28.5469 19.0859 28.0684 19.0859 27.1523C19.0859 26.2363 18.6074 25.7578 17.6914 25.7578L6.82227 25.7578C5.91992 25.7578 5.44141 26.2363 5.44141 27.1523Z" fill="black" fill-opacity="0.85"/>
 </g>
</svg>
