<?xml version="1.0" encoding="UTF-8"?>
<!--Generator: Apple Native CoreSVG 326-->
<!DOCTYPE svg
PUBLIC "-//W3C//DTD SVG 1.1//EN"
       "http://www.w3.org/Graphics/SVG/1.1/DTD/svg11.dtd">
<svg version="1.1" xmlns="http://www.w3.org/2000/svg" xmlns:xlink="http://www.w3.org/1999/xlink" viewBox="0 0 28.2461 27.9043">
 <g>
  <rect height="27.9043" opacity="0" width="28.2461" x="0" y="0"/>
  <path d="M13.9453 27.8906C17.0215 27.8906 19.8926 26.8516 22.2168 25.1152C18.6484 24.6641 15.873 22.9414 14.2324 20.0977C13.4395 18.7031 13.0566 17.3496 12.9062 15.8457C12.0039 16.5293 11.2793 17.2949 10.6641 18.334C9.07812 21.041 9.35156 24.2539 11.3887 27.6172C12.2227 27.7949 13.0703 27.8906 13.9453 27.8906ZM8.43555 26.7285C7.01367 23.3926 7.0957 20.084 8.75 17.2402C9.5293 15.9141 10.4727 14.916 11.6484 14.041C10.5684 13.6035 9.61133 13.4121 8.50391 13.4121C5.40039 13.4121 2.74805 15.2441 0.875 18.7578C2.20117 22.3125 4.96289 25.2246 8.43555 26.7285ZM0.123047 15.7637C2.31055 12.8242 5.19531 11.2109 8.50391 11.2109C10.0352 11.2109 11.3613 11.5254 12.7148 12.127C12.5781 10.8828 12.2637 9.92578 11.6895 8.92773C10.1445 6.23438 7.24609 4.86719 3.33594 4.99023C1.25781 7.41016 0 10.541 0 13.9453C0 14.5605 0.0546875 15.1621 0.123047 15.7637ZM14.916 11.9219C15.9277 11.1836 16.5977 10.4316 17.1719 9.46094C18.7441 6.78125 18.4707 3.5957 16.4062 0.246094C15.6133 0.0820312 14.7793 0 13.9316 0C10.8008 0 7.875 1.08008 5.53711 2.87109C9.13281 3.29492 11.9492 4.97656 13.6035 7.84766C14.3555 9.17383 14.752 10.459 14.916 11.9219ZM19.4688 14.6016C22.5586 14.6016 25.1973 12.8105 27.0566 9.39258C25.7988 5.70117 22.9551 2.65234 19.3457 1.12109C20.7812 4.44336 20.7266 7.71094 19.0723 10.541C18.2656 11.9492 17.2539 12.9473 16.0234 13.8223C17.1035 14.3008 18.1562 14.6016 19.4688 14.6016ZM24.4453 22.9961C26.5781 20.5625 27.8906 17.3906 27.8906 13.9453C27.8906 13.4121 27.8633 12.9062 27.7949 12.3867C25.6074 15.2441 22.7363 16.8027 19.4688 16.8027C17.8555 16.8027 16.4746 16.4473 15.1074 15.832C15.2441 16.9395 15.5312 17.9512 16.1465 19.0176C17.6777 21.6973 20.5762 23.0781 24.4453 22.9961Z" fill="black" fill-opacity="0.85"/>
 </g>
</svg>
