<?xml version="1.0" encoding="UTF-8"?>
<!--Generator: Apple Native CoreSVG 326-->
<!DOCTYPE svg
PUBLIC "-//W3C//DTD SVG 1.1//EN"
       "http://www.w3.org/Graphics/SVG/1.1/DTD/svg11.dtd">
<svg version="1.1" xmlns="http://www.w3.org/2000/svg" xmlns:xlink="http://www.w3.org/1999/xlink" viewBox="0 0 27.9043 19.9746">
 <g>
  <rect height="19.9746" opacity="0" width="27.9043" x="0" y="0"/>
  <path d="M7.76562 19.3594L26.4277 19.3594C27.043 19.3594 27.5488 18.8809 27.5488 18.252C27.5488 17.6367 27.043 17.1582 26.4277 17.1582L7.76562 17.1582C7.13672 17.1582 6.6582 17.6367 6.6582 18.252C6.6582 18.8809 7.13672 19.3594 7.76562 19.3594Z" fill="black" fill-opacity="0.5"/>
  <path d="M1.72266 19.9746C2.67969 19.9746 3.44531 19.209 3.44531 18.252C3.44531 17.3086 2.67969 16.543 1.72266 16.543C0.765625 16.543 0 17.3086 0 18.252C0 19.209 0.765625 19.9746 1.72266 19.9746Z" fill="black" fill-opacity="0.85"/>
  <path d="M7.76562 11.0879L26.4277 11.0879C27.043 11.0879 27.5488 10.6094 27.5488 9.99414C27.5488 9.37891 27.043 8.88672 26.4277 8.88672L7.76562 8.88672C7.13672 8.88672 6.6582 9.37891 6.6582 9.99414C6.6582 10.6094 7.13672 11.0879 7.76562 11.0879Z" fill="black" fill-opacity="0.5"/>
  <path d="M1.72266 11.7168C2.67969 11.7168 3.44531 10.9512 3.44531 9.99414C3.44531 9.03711 2.67969 8.27148 1.72266 8.27148C0.765625 8.27148 0 9.03711 0 9.99414C0 10.9512 0.765625 11.7168 1.72266 11.7168Z" fill="black" fill-opacity="0.85"/>
  <path d="M7.76562 2.83008L26.4277 2.83008C27.043 2.83008 27.5488 2.35156 27.5488 1.72266C27.5488 1.10742 27.043 0.628906 26.4277 0.628906L7.76562 0.628906C7.13672 0.628906 6.6582 1.10742 6.6582 1.72266C6.6582 2.35156 7.13672 2.83008 7.76562 2.83008Z" fill="black" fill-opacity="0.5"/>
  <path d="M1.72266 3.44531C2.67969 3.44531 3.44531 2.67969 3.44531 1.72266C3.44531 0.779297 2.67969 0 1.72266 0C0.765625 0 0 0.779297 0 1.72266C0 2.67969 0.765625 3.44531 1.72266 3.44531Z" fill="black" fill-opacity="0.85"/>
 </g>
</svg>
