<?xml version="1.0" encoding="UTF-8"?>
<!--Generator: Apple Native CoreSVG 326-->
<!DOCTYPE svg
PUBLIC "-//W3C//DTD SVG 1.1//EN"
       "http://www.w3.org/Graphics/SVG/1.1/DTD/svg11.dtd">
<svg version="1.1" xmlns="http://www.w3.org/2000/svg" xmlns:xlink="http://www.w3.org/1999/xlink" viewBox="0 0 27.9043 19.2637">
 <g>
  <rect height="19.2637" opacity="0" width="27.9043" x="0" y="0"/>
  <path d="M9.13281 19.0039L26.4277 19.0039C27.043 19.0039 27.5488 18.5254 27.5488 17.9102C27.5488 17.2812 27.043 16.8027 26.4277 16.8027L9.13281 16.8027C8.50391 16.8027 8.02539 17.2812 8.02539 17.9102C8.02539 18.5254 8.50391 19.0039 9.13281 19.0039Z" fill="black" fill-opacity="0.5"/>
  <path d="M1.35352 19.2637L3.69141 19.2637C4.44336 19.2637 5.05859 18.6484 5.05859 17.9102C5.05859 17.1445 4.44336 16.543 3.69141 16.543L1.35352 16.543C0.601562 16.543 0 17.1445 0 17.9102C0 18.6484 0.601562 19.2637 1.35352 19.2637Z" fill="black" fill-opacity="0.85"/>
  <path d="M9.13281 10.7461L26.4277 10.7461C27.043 10.7461 27.5488 10.2539 27.5488 9.63867C27.5488 9.02344 27.043 8.54492 26.4277 8.54492L9.13281 8.54492C8.50391 8.54492 8.02539 9.02344 8.02539 9.63867C8.02539 10.2539 8.50391 10.7461 9.13281 10.7461Z" fill="black" fill-opacity="0.5"/>
  <path d="M1.35352 11.0059L3.69141 11.0059C4.44336 11.0059 5.05859 10.3906 5.05859 9.63867C5.05859 8.88672 4.44336 8.28516 3.69141 8.28516L1.35352 8.28516C0.601562 8.28516 0 8.88672 0 9.63867C0 10.3906 0.601562 11.0059 1.35352 11.0059Z" fill="black" fill-opacity="0.85"/>
  <path d="M9.13281 2.47461L26.4277 2.47461C27.043 2.47461 27.5488 1.99609 27.5488 1.38086C27.5488 0.751953 27.043 0.273438 26.4277 0.273438L9.13281 0.273438C8.50391 0.273438 8.02539 0.751953 8.02539 1.38086C8.02539 1.99609 8.50391 2.47461 9.13281 2.47461Z" fill="black" fill-opacity="0.5"/>
  <path d="M1.35352 2.73438L3.69141 2.73438C4.44336 2.73438 5.05859 2.11914 5.05859 1.38086C5.05859 0.615234 4.44336 0.0136719 3.69141 0.0136719L1.35352 0.0136719C0.601562 0.0136719 0 0.615234 0 1.38086C0 2.11914 0.601562 2.73438 1.35352 2.73438Z" fill="black" fill-opacity="0.85"/>
 </g>
</svg>
