<?xml version="1.0" encoding="UTF-8"?>
<!--Generator: Apple Native CoreSVG 326-->
<!DOCTYPE svg
PUBLIC "-//W3C//DTD SVG 1.1//EN"
       "http://www.w3.org/Graphics/SVG/1.1/DTD/svg11.dtd">
<svg version="1.1" xmlns="http://www.w3.org/2000/svg" xmlns:xlink="http://www.w3.org/1999/xlink" viewBox="0 0 33.4551 23.6934">
 <g>
  <rect height="23.6934" opacity="0" width="33.4551" x="0" y="0"/>
  <path d="M1.09375 2.20117L26.4277 2.20117C27.043 2.20117 27.5488 1.72266 27.5488 1.10742C27.5488 0.492188 27.043 0 26.4277 0L1.09375 0C0.478516 0 0 0.492188 0 1.10742C0 1.72266 0.478516 2.20117 1.09375 2.20117ZM1.09375 9.36523L9.50195 9.36523C10.1309 9.36523 10.623 8.87305 10.623 8.25781C10.623 7.64258 10.1309 7.16406 9.50195 7.16406L1.09375 7.16406C0.478516 7.16406 0 7.64258 0 8.25781C0 8.87305 0.478516 9.36523 1.09375 9.36523ZM1.09375 16.5156L9.50195 16.5156C10.1309 16.5156 10.623 16.0371 10.623 15.4219C10.623 14.793 10.1309 14.3145 9.50195 14.3145L1.09375 14.3145C0.478516 14.3145 0 14.793 0 15.4219C0 16.0371 0.478516 16.5156 1.09375 16.5156ZM1.09375 23.666L9.50195 23.666C10.1309 23.666 10.623 23.1875 10.623 22.5723C10.623 21.957 10.1309 21.4648 9.50195 21.4648L1.09375 21.4648C0.478516 21.4648 0 21.957 0 22.5723C0 23.1875 0.478516 23.666 1.09375 23.666Z" fill="black" fill-opacity="0.85"/>
  <path d="M15.0527 23.4336L31.2402 23.4336C32.375 23.4336 33.0996 22.7227 33.0996 21.6016L33.0996 9.16016C33.0996 8.06641 32.375 7.3418 31.2402 7.3418L15.0527 7.3418C13.918 7.3418 13.1934 8.06641 13.1934 9.16016L13.1934 21.6016C13.1934 22.7227 13.918 23.4336 15.0527 23.4336ZM15.1621 11.252C14.8887 11.252 14.7109 11.0605 14.7109 10.8008L14.7109 9.29688C14.7109 9.02344 14.8887 8.83203 15.1621 8.83203L16.4473 8.83203C16.7344 8.83203 16.9121 9.02344 16.9121 9.29688L16.9121 10.8008C16.9121 11.0605 16.7344 11.252 16.4473 11.252ZM15.1621 14.8066C14.8887 14.8066 14.7109 14.6152 14.7109 14.3828L14.7109 12.8652C14.7109 12.5918 14.8887 12.4004 15.1621 12.4004L16.4473 12.4004C16.7344 12.4004 16.9121 12.5918 16.9121 12.8652L16.9121 14.3828C16.9121 14.6152 16.7344 14.8066 16.4473 14.8066ZM15.1621 18.3613C14.8887 18.3613 14.7109 18.1836 14.7109 17.9375L14.7109 16.4199C14.7109 16.1465 14.8887 15.9551 15.1621 15.9551L16.4473 15.9551C16.7344 15.9551 16.9121 16.1465 16.9121 16.4199L16.9121 17.9375C16.9121 18.1836 16.7344 18.3613 16.4473 18.3613ZM15.1621 21.9297C14.8887 21.9297 14.7109 21.752 14.7109 21.4922L14.7109 19.9746C14.7109 19.7012 14.8887 19.5098 15.1621 19.5098L16.4473 19.5098C16.7344 19.5098 16.9121 19.7012 16.9121 19.9746L16.9121 21.4922C16.9121 21.752 16.7344 21.9297 16.4473 21.9297ZM29.8457 11.252C29.5586 11.252 29.3809 11.0605 29.3809 10.8008L29.3809 9.29688C29.3809 9.02344 29.5586 8.83203 29.8457 8.83203L31.1309 8.83203C31.4043 8.83203 31.582 9.02344 31.582 9.29688L31.582 10.8008C31.582 11.0605 31.4043 11.252 31.1309 11.252ZM29.8457 14.8066C29.5586 14.8066 29.3809 14.6152 29.3809 14.3828L29.3809 12.8652C29.3809 12.5918 29.5586 12.4004 29.8457 12.4004L31.1309 12.4004C31.4043 12.4004 31.582 12.5918 31.582 12.8652L31.582 14.3828C31.582 14.6152 31.4043 14.8066 31.1309 14.8066ZM29.8457 18.3613C29.5586 18.3613 29.3809 18.1836 29.3809 17.9375L29.3809 16.4199C29.3809 16.1465 29.5586 15.9551 29.8457 15.9551L31.1309 15.9551C31.4043 15.9551 31.582 16.1465 31.582 16.4199L31.582 17.9375C31.582 18.1836 31.4043 18.3613 31.1309 18.3613ZM29.8457 21.9297C29.5586 21.9297 29.3809 21.752 29.3809 21.4922L29.3809 19.9746C29.3809 19.7012 29.5586 19.5098 29.8457 19.5098L31.1309 19.5098C31.4043 19.5098 31.582 19.7012 31.582 19.9746L31.582 21.4922C31.582 21.752 31.4043 21.9297 31.1309 21.9297ZM18.8125 21.3828C18.5527 21.3828 18.3887 21.2188 18.3887 20.9453L18.3887 16.8711C18.3887 16.584 18.5527 16.4199 18.8125 16.4199L27.4805 16.4199C27.7402 16.4199 27.9043 16.584 27.9043 16.8711L27.9043 20.9453C27.9043 21.2188 27.7402 21.3828 27.4805 21.3828ZM18.8125 14.3691C18.5527 14.3691 18.3887 14.2051 18.3887 13.9316L18.3887 9.81641C18.3887 9.54297 18.5527 9.37891 18.8125 9.37891L27.4805 9.37891C27.7402 9.37891 27.9043 9.54297 27.9043 9.81641L27.9043 13.9316C27.9043 14.2051 27.7402 14.3691 27.4805 14.3691Z" fill="black" fill-opacity="0.85"/>
 </g>
</svg>
