<?xml version="1.0" encoding="UTF-8"?>
<!--Generator: Apple Native CoreSVG 326-->
<!DOCTYPE svg
PUBLIC "-//W3C//DTD SVG 1.1//EN"
       "http://www.w3.org/Graphics/SVG/1.1/DTD/svg11.dtd">
<svg version="1.1" xmlns="http://www.w3.org/2000/svg" xmlns:xlink="http://www.w3.org/1999/xlink" viewBox="0 0 28.2039 29.333">
 <g>
  <rect height="29.333" opacity="0" width="28.2039" x="0" y="0"/>
  <path d="M8.76138 11.0128L3.5404 13.4019C3.48571 13.4292 3.49939 13.4839 3.55407 13.4839L11.1922 13.4405L14.2204 16.4648L14.1771 24.1206C14.1771 24.1753 14.2181 24.189 14.2455 24.1343L16.6561 18.8973L18.2759 20.515L15.5853 26.3081C14.6693 28.2905 12.0853 27.9077 12.0717 25.7476L12.0443 15.8628C12.0443 15.6987 12.0033 15.6577 11.8392 15.6577L1.8861 15.6167C-0.19202 15.603-0.725223 13.0737 1.1615 12.1987L7.16369 9.41723ZM25.6752 4.5835L20.6541 15.3945L19.0205 13.7608L23.2826 4.50146C23.3373 4.39209 23.2826 4.36475 23.2006 4.40576L13.9145 8.65487L12.2977 7.03805L23.0228 2.06787C25.0189 1.12451 26.6185 2.56006 25.6752 4.5835Z" fill="#007aff"/>
  <path d="M24.4584 24.4487C24.8685 24.8589 25.5521 24.8589 25.9486 24.4487C26.3451 24.0386 26.3588 23.3687 25.9486 22.9585L4.89392 1.90381C4.49743 1.49365 3.81384 1.49365 3.39001 1.90381C2.99353 2.30029 2.99353 2.99756 3.39001 3.39404Z" fill="#007aff"/>
 </g>
</svg>
