<?xml version="1.0" encoding="UTF-8"?>
<!--Generator: Apple Native CoreSVG 326-->
<!DOCTYPE svg
PUBLIC "-//W3C//DTD SVG 1.1//EN"
       "http://www.w3.org/Graphics/SVG/1.1/DTD/svg11.dtd">
<svg version="1.1" xmlns="http://www.w3.org/2000/svg" xmlns:xlink="http://www.w3.org/1999/xlink" viewBox="0 0 28.2461 27.9043">
 <g>
  <rect height="27.9043" opacity="0" width="28.2461" x="0" y="0"/>
  <path d="M13.9453 27.8906C21.6426 27.8906 27.8906 21.6289 27.8906 13.9453C27.8906 6.24805 21.6426 0 13.9453 0C6.26172 0 0 6.24805 0 13.9453C0 21.6289 6.26172 27.8906 13.9453 27.8906Z" fill="#007aff"/>
  <path d="M6.23438 15.1074C5.00391 15.1074 4.85352 13.7949 5.76953 13.3574L19.0859 7.04102C20.1934 6.52148 21.123 7.45117 20.6172 8.54492L14.3555 21.8887C13.9316 22.791 12.5918 22.668 12.5918 21.4102L12.5918 15.5723C12.5918 15.2988 12.4141 15.1211 12.1406 15.1211Z" fill="white"/>
 </g>
</svg>
