<?xml version="1.0" encoding="UTF-8"?>
<!--Generator: Apple Native CoreSVG 326-->
<!DOCTYPE svg
PUBLIC "-//W3C//DTD SVG 1.1//EN"
       "http://www.w3.org/Graphics/SVG/1.1/DTD/svg11.dtd">
<svg version="1.1" xmlns="http://www.w3.org/2000/svg" xmlns:xlink="http://www.w3.org/1999/xlink" viewBox="0 0 19.0312 35.3965">
 <g>
  <rect height="35.3965" opacity="0" width="19.0312" x="0" y="0"/>
  <path d="M1.64062 33.5234C2.2832 33.5234 2.95312 33.1543 3.48633 32.6484L8.96875 27.4531C9.11914 27.3027 9.22852 27.2344 9.33789 27.2344C9.44727 27.2344 9.55664 27.3027 9.70703 27.4531L15.1895 32.6484C15.7227 33.1543 16.3789 33.5234 17.0352 33.5234C17.9648 33.5234 18.6758 32.6621 18.6758 31.7461C18.6758 31.1992 18.457 30.5977 18.1699 29.832L11.2246 11.9082C10.7598 10.7188 10.1172 10.2129 9.33789 10.2129C8.55859 10.2129 7.91602 10.7188 7.45117 11.9082L0.505859 29.832C0.21875 30.5977 0 31.1992 0 31.7461C0 32.6621 0.697266 33.5234 1.64062 33.5234ZM2.51562 30.543C2.47461 30.4883 2.46094 30.4336 2.48828 30.3379L9.13281 13.3027C9.17383 13.1934 9.24219 13.0977 9.33789 13.0977C9.44727 13.0977 9.48828 13.207 9.54297 13.3027L16.1875 30.3379C16.2148 30.4336 16.2148 30.502 16.1602 30.543C16.1328 30.5566 16.0781 30.5977 15.9961 30.5156L10.4043 25.4434C10.0078 25.0742 9.67969 24.8691 9.33789 24.8691C8.99609 24.8691 8.66797 25.0742 8.27148 25.4434L2.67969 30.5156C2.63867 30.5566 2.55664 30.5977 2.51562 30.543ZM9.33789 8.33984C9.99414 8.33984 10.4316 7.875 10.4316 7.15039L10.4316 1.17578C10.4316 0.451172 9.99414 0 9.33789 0C8.68164 0 8.23047 0.451172 8.23047 1.17578L8.23047 7.15039C8.23047 7.875 8.68164 8.33984 9.33789 8.33984Z" fill="#007aff"/>
 </g>
</svg>
