<?xml version="1.0" encoding="UTF-8"?>
<!--Generator: Apple Native CoreSVG 326-->
<!DOCTYPE svg
PUBLIC "-//W3C//DTD SVG 1.1//EN"
       "http://www.w3.org/Graphics/SVG/1.1/DTD/svg11.dtd">
<svg version="1.1" xmlns="http://www.w3.org/2000/svg" xmlns:xlink="http://www.w3.org/1999/xlink" viewBox="0 0 25.5664 25.2246">
 <g>
  <rect height="25.2246" opacity="0" width="25.5664" x="0" y="0"/>
  <path d="M23.6113 1.61328C22.2168 0.21875 20.248 0 17.9102 0L7.25977 0C4.96289 0 2.99414 0.21875 1.59961 1.61328C0.205078 3.00781 0 4.96289 0 7.25977L0 17.9102C0 20.248 0.205078 22.2031 1.59961 23.5977C2.99414 24.9922 4.96289 25.2109 7.28711 25.2109L17.9102 25.2109C20.248 25.2109 22.2168 24.9922 23.6113 23.5977C25.0059 22.2031 25.2109 20.248 25.2109 17.9102L25.2109 7.28711C25.2109 4.94922 25.0059 3.00781 23.6113 1.61328Z" fill="black" fill-opacity="0.85"/>
  <path d="M4.88086 13.7676C3.63672 13.7676 3.5 12.4551 4.40234 12.0176L17.7188 5.70117C18.8262 5.18164 19.7559 6.11133 19.25 7.20508L12.9883 20.5488C12.5645 21.4512 11.2383 21.3281 11.2383 20.0703L11.2246 14.2324C11.2246 13.959 11.0469 13.7812 10.7871 13.7812Z" fill="white"/>
 </g>
</svg>
