<?xml version="1.0" encoding="UTF-8"?>
<!--Generator: Apple Native CoreSVG 326-->
<!DOCTYPE svg
PUBLIC "-//W3C//DTD SVG 1.1//EN"
       "http://www.w3.org/Graphics/SVG/1.1/DTD/svg11.dtd">
<svg version="1.1" xmlns="http://www.w3.org/2000/svg" xmlns:xlink="http://www.w3.org/1999/xlink" viewBox="0 0 21.998 29.2988">
 <g>
  <rect height="29.2988" opacity="0" width="21.998" x="0" y="0"/>
  <path d="M1.49023 28.4375C2.16016 28.4375 2.61133 28.1914 3.28125 27.5352L10.6367 20.248C10.7051 20.1797 10.7598 20.125 10.8281 20.125C10.8828 20.125 10.9512 20.1797 11.0195 20.248L18.3613 27.5352C19.0449 28.1914 19.4824 28.4375 20.1523 28.4375C21.082 28.4375 21.6426 27.7266 21.6426 26.7969C21.6426 26.2773 21.4375 25.6621 21.2324 25.1016L12.6875 1.75C12.25 0.546875 11.6074 0 10.8281 0C10.0352 0 9.40625 0.546875 8.96875 1.75L0.410156 25.1016C0.21875 25.6621 0 26.2773 0 26.7969C0 27.7266 0.560547 28.4375 1.49023 28.4375ZM2.43359 25.457C2.39258 25.4297 2.37891 25.375 2.40625 25.293L10.6914 2.9668C10.7324 2.85742 10.7734 2.81641 10.8281 2.81641C10.8691 2.81641 10.9238 2.85742 10.9512 2.9668L19.2363 25.293C19.2637 25.375 19.25 25.4297 19.2227 25.457C19.1953 25.4707 19.1406 25.457 19.0996 25.4297L11.5117 17.7324C11.2656 17.4863 11.0195 17.4316 10.8281 17.4316C10.623 17.4316 10.377 17.4863 10.1445 17.7324L2.55664 25.4297C2.51562 25.457 2.46094 25.4707 2.43359 25.457Z" fill="#007aff"/>
 </g>
</svg>
