<?xml version="1.0" encoding="UTF-8"?>
<!--Generator: Apple Native CoreSVG 326-->
<!DOCTYPE svg
PUBLIC "-//W3C//DTD SVG 1.1//EN"
       "http://www.w3.org/Graphics/SVG/1.1/DTD/svg11.dtd">
<svg version="1.1" xmlns="http://www.w3.org/2000/svg" xmlns:xlink="http://www.w3.org/1999/xlink" viewBox="0 0 39.7852 22.2715">
 <g>
  <rect height="22.2715" opacity="0" width="39.7852" x="0" y="0"/>
  <path d="M0 20.7129C0 21.5742 0.697266 22.2715 1.54492 22.2715L37.8848 22.2715C38.7324 22.2715 39.4297 21.5742 39.4297 20.7129C39.4297 19.8516 38.7324 19.1543 37.8848 19.1543L34.8906 19.1543L34.8906 2.92578C34.8906 1.01172 33.8652 0.0273438 31.9648 0.0273438L7.46484 0.0273438C5.66016 0.0273438 4.53906 1.01172 4.53906 2.92578L4.53906 19.1543L1.54492 19.1543C0.697266 19.1543 0 19.8516 0 20.7129ZM6.74023 19.1543L6.74023 3.54102C6.74023 2.66602 7.17773 2.22852 8.05273 2.22852L31.377 2.22852C32.252 2.22852 32.6895 2.66602 32.6895 3.54102L32.6895 19.1543Z" fill="black" fill-opacity="0.85"/>
  <path d="M14.8203 14.3008C14.8203 15.0801 15.1895 15.4629 15.9277 15.4629L20.5625 15.4629C21.3008 15.4629 21.6699 15.0801 21.6699 14.3008L21.6699 10.7461C21.6699 9.9668 21.3008 9.57031 20.5625 9.57031L15.9277 9.57031C15.1895 9.57031 14.8203 9.9668 14.8203 10.7461ZM19.5098 10.3633L20.8633 10.3633L20.8633 8.42188C20.8633 7.41016 21.4102 6.75391 22.3398 6.75391C23.2695 6.75391 23.8027 7.41016 23.8027 8.42188L23.8027 9.39258C23.8027 9.76172 24.1172 10.0762 24.4863 10.0762C24.8555 10.0762 25.1562 9.76172 25.1562 9.39258L25.1562 8.42188C25.1562 6.69922 24.0488 5.44141 22.3398 5.44141C20.6172 5.44141 19.5098 6.69922 19.5098 8.54492Z" fill="black" fill-opacity="0.85"/>
 </g>
</svg>
