<?xml version="1.0" encoding="UTF-8"?>
<!--Generator: Apple Native CoreSVG 326-->
<!DOCTYPE svg
PUBLIC "-//W3C//DTD SVG 1.1//EN"
       "http://www.w3.org/Graphics/SVG/1.1/DTD/svg11.dtd">
<svg version="1.1" xmlns="http://www.w3.org/2000/svg" xmlns:xlink="http://www.w3.org/1999/xlink" viewBox="0 0 28.2461 27.9043">
 <g>
  <rect height="27.9043" opacity="0" width="28.2461" x="0" y="0"/>
  <path d="M13.9453 27.8906C21.6426 27.8906 27.8906 21.6426 27.8906 13.9453C27.8906 6.24805 21.6426 0 13.9453 0C6.24805 0 0 6.24805 0 13.9453C0 21.6426 6.24805 27.8906 13.9453 27.8906ZM13.9453 25.5664C7.51953 25.5664 2.32422 20.3711 2.32422 13.9453C2.32422 7.51953 7.51953 2.32422 13.9453 2.32422C20.3711 2.32422 25.5664 7.51953 25.5664 13.9453C25.5664 20.3711 20.3711 25.5664 13.9453 25.5664Z" fill="#8e8e93"/>
  <path d="M8.99609 19.332C8.99609 20.3574 9.44727 20.8359 10.3906 20.8359L17.4727 20.8359C18.416 20.8359 18.8672 20.3574 18.8672 19.332L18.8672 13.8906C18.8672 12.9336 18.4707 12.4688 17.6641 12.4141L17.6641 10.7871C17.6641 8.27148 16.1602 6.58984 13.9316 6.58984C11.7031 6.58984 10.1992 8.27148 10.1992 10.7871L10.1992 12.4141C9.39258 12.4688 8.99609 12.9336 8.99609 13.8906ZM11.6211 12.4004L11.6211 10.6367C11.6211 9.03711 12.5508 7.9707 13.9316 7.9707C15.3125 7.9707 16.2422 9.03711 16.2422 10.6367L16.2422 12.4004Z" fill="#8e8e93"/>
 </g>
</svg>
