<?xml version="1.0" encoding="UTF-8"?>
<!--Generator: Apple Native CoreSVG 326-->
<!DOCTYPE svg
PUBLIC "-//W3C//DTD SVG 1.1//EN"
       "http://www.w3.org/Graphics/SVG/1.1/DTD/svg11.dtd">
<svg version="1.1" xmlns="http://www.w3.org/2000/svg" xmlns:xlink="http://www.w3.org/1999/xlink" viewBox="0 0 17.9238 28.9707">
 <g>
  <rect height="28.9707" opacity="0" width="17.9238" x="0" y="0"/>
  <path d="M0 25.3887C0 27.5215 1.49023 28.9434 3.71875 28.9434L13.8496 28.9434C16.0781 28.9434 17.5684 27.5215 17.5684 25.3887L17.5684 3.55469C17.5684 1.42188 16.0781 0 13.8496 0L3.71875 0C1.49023 0 0 1.42188 0 3.55469ZM2.20117 25.0332L2.20117 3.91016C2.20117 2.81641 2.84375 2.20117 4.00586 2.20117L13.5762 2.20117C14.7246 2.20117 15.3672 2.81641 15.3672 3.91016L15.3672 25.0332C15.3672 26.127 14.7246 26.7422 13.5762 26.7422L4.00586 26.7422C2.84375 26.7422 2.20117 26.127 2.20117 25.0332Z" fill="black" fill-opacity="0.85"/>
  <path d="M3.88281 17.9512C3.88281 18.7305 4.25195 19.1133 4.99023 19.1133L9.625 19.1133C10.377 19.1133 10.7461 18.7305 10.7461 17.9512L10.7461 14.3965C10.7461 13.6172 10.377 13.2207 9.625 13.2207L4.99023 13.2207C4.25195 13.2207 3.88281 13.6172 3.88281 14.3965ZM8.57227 14.0137L9.92578 14.0137L9.92578 12.0723C9.92578 11.0605 10.4727 10.4043 11.4023 10.4043C12.332 10.4043 12.8652 11.0605 12.8652 12.0723L12.8652 13.043C12.8652 13.4121 13.1797 13.7266 13.5488 13.7266C13.918 13.7266 14.2188 13.4121 14.2188 13.043L14.2188 12.0723C14.2188 10.3496 13.1113 9.0918 11.4023 9.0918C9.69336 9.0918 8.57227 10.3496 8.57227 12.1953Z" fill="black" fill-opacity="0.85"/>
 </g>
</svg>
