<?xml version="1.0" encoding="UTF-8"?>
<!--Generator: Apple Native CoreSVG 326-->
<!DOCTYPE svg
PUBLIC "-//W3C//DTD SVG 1.1//EN"
       "http://www.w3.org/Graphics/SVG/1.1/DTD/svg11.dtd">
<svg version="1.1" xmlns="http://www.w3.org/2000/svg" xmlns:xlink="http://www.w3.org/1999/xlink" viewBox="0 0 28.4922 27.4941">
 <g>
  <rect height="27.4941" opacity="0" width="28.4922" x="0" y="0"/>
  <path d="M3.07617 26.7969L15.5859 26.7969C17.5957 26.7969 18.6621 25.7031 18.6621 23.543L18.6621 14.123C18.6621 11.9766 17.5957 10.8828 15.5859 10.8828L3.07617 10.8828C1.06641 10.8828 0 11.9766 0 14.123L0 23.543C0 25.7031 1.06641 26.7969 3.07617 26.7969ZM3.14453 24.7324C2.55664 24.7324 2.21484 24.3633 2.21484 23.6934L2.21484 13.9727C2.21484 13.3027 2.55664 12.9473 3.14453 12.9473L15.5176 12.9473C16.1191 12.9473 16.4473 13.3027 16.4473 13.9727L16.4473 23.6934C16.4473 24.3633 16.1191 24.7324 15.5176 24.7324ZM14.2598 11.9492L16.4199 11.9492L16.4199 7.3418C16.4199 3.88281 18.6348 2.06445 21.1914 2.06445C23.748 2.06445 25.9629 3.88281 25.9629 7.3418L25.9629 10.377C25.9629 11.1836 26.4414 11.5938 27.0566 11.5938C27.6445 11.5938 28.1367 11.2246 28.1367 10.377L28.1367 7.62891C28.1367 2.48828 24.7598 0 21.1914 0C17.6094 0 14.2598 2.48828 14.2598 7.62891Z" fill="black" fill-opacity="0.85"/>
 </g>
</svg>
