<?xml version="1.0" encoding="UTF-8"?>
<!--Generator: Apple Native CoreSVG 326-->
<!DOCTYPE svg
PUBLIC "-//W3C//DTD SVG 1.1//EN"
       "http://www.w3.org/Graphics/SVG/1.1/DTD/svg11.dtd">
<svg version="1.1" xmlns="http://www.w3.org/2000/svg" xmlns:xlink="http://www.w3.org/1999/xlink" viewBox="0 0 34.3711 27.7129">
 <g>
  <rect height="27.7129" opacity="0" width="34.3711" x="0" y="0"/>
  <path d="M27.2617 4.23828L27.2617 6.33008L25.0605 6.33008L25.0605 4.36133C25.0605 2.93945 24.2812 2.20117 22.9277 2.20117L4.32031 2.20117C2.95312 2.20117 2.20117 2.93945 2.20117 4.36133L2.20117 17.0215C2.20117 18.4434 2.95312 19.168 4.32031 19.168L6.75391 19.168L6.75391 21.3691L4.29297 21.3691C1.42188 21.3691 0 19.9609 0 17.1309L0 4.23828C0 1.42188 1.42188 0 4.29297 0L22.9688 0C25.8125 0 27.2617 1.42188 27.2617 4.23828Z" fill="black" fill-opacity="0.85"/>
  <path d="M11.0469 27.6992L29.7227 27.6992C32.5664 27.6992 34.0156 26.2773 34.0156 23.4609L34.0156 10.5684C34.0156 7.75195 32.5664 6.33008 29.7227 6.33008L11.0469 6.33008C8.17578 6.33008 6.75391 7.75195 6.75391 10.5684L6.75391 23.4609C6.75391 26.291 8.17578 27.6992 11.0469 27.6992ZM11.0742 25.498C9.70703 25.498 8.95508 24.7734 8.95508 23.3516L8.95508 10.6914C8.95508 9.26953 9.70703 8.53125 11.0742 8.53125L29.6816 8.53125C31.0352 8.53125 31.8145 9.26953 31.8145 10.6914L31.8145 23.3516C31.8145 24.7734 31.0352 25.498 29.6816 25.498Z" fill="black" fill-opacity="0.85"/>
  <path d="M15.4492 22.4082C15.4492 23.4336 15.9004 23.9121 16.8438 23.9121L23.9258 23.9121C24.8828 23.9121 25.334 23.4336 25.334 22.4082L25.334 16.9668C25.334 16.0098 24.9375 15.5312 24.1172 15.4766L24.1172 13.8633C24.1172 11.3477 22.6133 9.66602 20.3848 9.66602C18.1699 9.66602 16.6523 11.3477 16.6523 13.8633L16.6523 15.4766C15.8457 15.5312 15.4492 16.0098 15.4492 16.9668ZM18.0742 15.4629L18.0742 13.7129C18.0742 12.0996 19.0039 11.0469 20.3848 11.0469C21.7793 11.0469 22.6953 12.0996 22.6953 13.7129L22.6953 15.4629Z" fill="black" fill-opacity="0.85"/>
 </g>
</svg>
