<?xml version="1.0" encoding="UTF-8"?>
<!--Generator: Apple Native CoreSVG 326-->
<!DOCTYPE svg
PUBLIC "-//W3C//DTD SVG 1.1//EN"
       "http://www.w3.org/Graphics/SVG/1.1/DTD/svg11.dtd">
<svg version="1.1" xmlns="http://www.w3.org/2000/svg" xmlns:xlink="http://www.w3.org/1999/xlink" viewBox="0 0 37.4062 31.4316">
 <g>
  <rect height="31.4316" opacity="0" width="37.4062" x="0" y="0"/>
  <path d="M28.7793 6.09766L28.7793 6.33008L12.5645 6.33008C8.66797 6.33008 6.41211 8.57227 6.41211 12.4277L6.41211 23.2285L5.81055 23.2285C2.95312 23.2285 1.51758 21.8203 1.51758 18.9902L1.51758 6.09766C1.51758 3.28125 2.95312 1.85938 5.81055 1.85938L24.4863 1.85938C27.3438 1.85938 28.7793 3.28125 28.7793 6.09766Z" fill="black" fill-opacity="0.85"/>
  <path d="M35.5332 12.4277L35.5332 25.3203C35.5332 28.1367 34.0977 29.5586 31.2402 29.5586L12.5645 29.5586C9.70703 29.5586 8.27148 28.1504 8.27148 25.3203L8.27148 12.4277C8.27148 9.61133 9.70703 8.18945 12.5645 8.18945L31.2402 8.18945C34.0977 8.18945 35.5332 9.61133 35.5332 12.4277ZM18.0469 15.6543L18.0469 17.3086C17.2266 17.3633 16.8164 17.8555 16.8164 18.8535L16.8164 24.459C16.8164 25.5117 17.2812 26.0039 18.252 26.0039L25.5527 26.0039C26.5371 26.0039 27.002 25.5117 27.002 24.459L27.002 18.8535C27.002 17.8555 26.5918 17.3633 25.7578 17.3086L25.7578 15.6543C25.7578 13.0566 24.1992 11.3066 21.9023 11.3066C19.6191 11.3066 18.0469 13.0566 18.0469 15.6543ZM24.2812 15.4902L24.2812 17.2949L19.5234 17.2949L19.5234 15.4902C19.5234 13.8359 20.4805 12.7285 21.9023 12.7285C23.3379 12.7285 24.2812 13.8359 24.2812 15.4902Z" fill="black" fill-opacity="0.85"/>
 </g>
</svg>
