<?xml version="1.0" encoding="UTF-8"?>
<!--Generator: Apple Native CoreSVG 326-->
<!DOCTYPE svg
PUBLIC "-//W3C//DTD SVG 1.1//EN"
       "http://www.w3.org/Graphics/SVG/1.1/DTD/svg11.dtd">
<svg version="1.1" xmlns="http://www.w3.org/2000/svg" xmlns:xlink="http://www.w3.org/1999/xlink" viewBox="0 0 28.2461 27.9043">
 <g>
  <rect height="27.9043" opacity="0" width="28.2461" x="0" y="0"/>
  <path d="M13.9453 27.9043C21.6426 27.9043 27.8906 21.6562 27.8906 13.959C27.8906 6.27539 21.6426 0.0136719 13.9453 0.0136719C6.26172 0.0136719 0 6.27539 0 13.959C0 21.6562 6.26172 27.9043 13.9453 27.9043Z" fill="#8e8e93"/>
  <path d="M8.85938 19.5508L8.85938 13.9316C8.85938 12.9336 9.26953 12.4551 10.0898 12.4004L10.0898 10.7324C10.0898 8.13477 11.6484 6.39844 13.9453 6.39844C16.2422 6.39844 17.8008 8.13477 17.8008 10.7324L17.8008 12.4004C18.6211 12.4551 19.0312 12.9336 19.0312 13.9316L19.0312 19.5508C19.0312 20.6035 18.5664 21.082 17.5957 21.082L10.2949 21.082C9.32422 21.082 8.85938 20.6035 8.85938 19.5508ZM11.5664 12.3867L16.3242 12.3867L16.3242 10.5684C16.3242 8.92773 15.3672 7.82031 13.9453 7.82031C12.5234 7.82031 11.5664 8.92773 11.5664 10.5684Z" fill="white"/>
 </g>
</svg>
