<?xml version="1.0" encoding="UTF-8"?>
<!--Generator: Apple Native CoreSVG 326-->
<!DOCTYPE svg
PUBLIC "-//W3C//DTD SVG 1.1//EN"
       "http://www.w3.org/Graphics/SVG/1.1/DTD/svg11.dtd">
<svg version="1.1" xmlns="http://www.w3.org/2000/svg" xmlns:xlink="http://www.w3.org/1999/xlink" viewBox="0 0 34.3711 27.7129">
 <g>
  <rect height="27.7129" opacity="0" width="34.3711" x="0" y="0"/>
  <path d="M2.20117 17.0215C2.20117 18.4434 2.95312 19.168 4.32031 19.168L6.75391 19.168L6.75391 21.3691L4.29297 21.3691C1.42188 21.3691 0 19.9609 0 17.1309L0 14.998L2.20117 14.998ZM2.20117 13.8086L0 13.8086L0 7.57422L2.20117 7.57422ZM6.33008 2.20117L4.32031 2.20117C2.95312 2.20117 2.20117 2.93945 2.20117 4.36133L2.20117 6.38477L0 6.38477L0 4.23828C0 1.42188 1.42188 0 4.29297 0L6.33008 0ZM27.248 4.23828L27.248 6.33008L25.0469 6.33008L25.0469 4.36133C25.0469 2.93945 24.2812 2.20117 22.9141 2.20117L20.918 2.20117L20.918 0L22.9551 0C25.8125 0 27.248 1.42188 27.248 4.23828ZM19.7148 2.20117L14.2188 2.20117L14.2188 0L19.7148 0ZM13.0293 2.20117L7.51953 2.20117L7.51953 0L13.0293 0Z" fill="black" fill-opacity="0.85"/>
  <path d="M11.0469 27.6992L29.7227 27.6992C32.5664 27.6992 34.0156 26.2773 34.0156 23.4609L34.0156 10.5684C34.0156 7.75195 32.5664 6.33008 29.7227 6.33008L11.0469 6.33008C8.17578 6.33008 6.75391 7.75195 6.75391 10.5684L6.75391 23.4609C6.75391 26.291 8.17578 27.6992 11.0469 27.6992ZM11.0742 25.498C9.70703 25.498 8.95508 24.7734 8.95508 23.3516L8.95508 10.6914C8.95508 9.26953 9.70703 8.53125 11.0742 8.53125L29.6816 8.53125C31.0352 8.53125 31.8145 9.26953 31.8145 10.6914L31.8145 23.3516C31.8145 24.7734 31.0352 25.498 29.6816 25.498Z" fill="black" fill-opacity="0.85"/>
  <path d="M17.541 23.4062L23.2422 23.4062C24.3086 23.4062 24.8691 22.8457 24.8691 21.6973L24.8691 17.3086C24.8691 16.1738 24.3086 15.5996 23.2422 15.5996L17.541 15.5996C16.4746 15.5996 15.9141 16.1738 15.9141 17.3086L15.9141 21.6973C15.9141 22.8457 16.4746 23.4062 17.541 23.4062ZM17.0215 16.625L18.3887 16.625L18.3887 14.1094C18.3887 12.8105 19.168 11.9902 20.3984 11.9902C21.6152 11.9902 22.4082 12.8105 22.4082 14.1094L22.4082 16.625L23.7754 16.625L23.7754 14.3145C23.7754 12.0586 22.4629 10.623 20.3984 10.623C18.3477 10.623 17.0215 12.0586 17.0215 14.3145Z" fill="black" fill-opacity="0.85"/>
 </g>
</svg>
