<?xml version="1.0" encoding="UTF-8"?>
<!--Generator: Apple Native CoreSVG 326-->
<!DOCTYPE svg
PUBLIC "-//W3C//DTD SVG 1.1//EN"
       "http://www.w3.org/Graphics/SVG/1.1/DTD/svg11.dtd">
<svg version="1.1" xmlns="http://www.w3.org/2000/svg" xmlns:xlink="http://www.w3.org/1999/xlink" viewBox="0 0 23.2012 30.8301">
 <g>
  <rect height="30.8301" opacity="0" width="23.2012" x="0" y="0"/>
  <path d="M0 27.1934C0 29.3535 1.51758 30.8027 3.78711 30.8027L19.0586 30.8027C21.3281 30.8027 22.8457 29.3535 22.8457 27.1934L22.8457 3.62305C22.8457 1.46289 21.3281 0 19.0586 0L3.78711 0C1.51758 0 0 1.46289 0 3.62305ZM2.20117 26.8242L2.20117 3.99219C2.20117 2.87109 2.88477 2.20117 4.06055 2.20117L18.7852 2.20117C19.9473 2.20117 20.6445 2.87109 20.6445 3.99219L20.6445 26.8242C20.6445 27.9453 19.9473 28.6016 18.7852 28.6016L4.06055 28.6016C2.88477 28.6016 2.20117 27.9453 2.20117 26.8242Z" fill="black" fill-opacity="0.85"/>
  <path d="M9.10547 20.0566L13.7539 20.0566C14.5059 20.0566 14.8887 19.6465 14.8887 18.8535L14.8887 15.2305C14.8887 14.6016 14.6426 14.2188 14.1641 14.082L14.1641 13.2344C14.1641 11.416 13.0566 10.1719 11.4297 10.1719C9.80273 10.1719 8.69531 11.416 8.69531 13.2344L8.69531 14.0957C8.2168 14.2188 7.9707 14.6016 7.9707 15.2305L7.9707 18.8535C7.9707 19.6465 8.35352 20.0566 9.10547 20.0566ZM10.0488 14.0273L10.0488 13.1113C10.0488 12.1133 10.582 11.4707 11.4297 11.4707C12.2637 11.4707 12.8105 12.1133 12.8105 13.1113L12.8105 14.0273Z" fill="black" fill-opacity="0.85"/>
 </g>
</svg>
