<?xml version="1.0" encoding="UTF-8"?>
<!--Generator: Apple Native CoreSVG 326-->
<!DOCTYPE svg
PUBLIC "-//W3C//DTD SVG 1.1//EN"
       "http://www.w3.org/Graphics/SVG/1.1/DTD/svg11.dtd">
<svg version="1.1" xmlns="http://www.w3.org/2000/svg" xmlns:xlink="http://www.w3.org/1999/xlink" viewBox="0 0 25.5254 25.1699">
 <g>
  <rect height="25.1699" opacity="0" width="25.5254" x="0" y="0"/>
  <path d="M4.29297 25.1699L20.877 25.1699C23.748 25.1699 25.1699 23.7617 25.1699 20.9453L25.1699 4.23828C25.1699 1.42188 23.748 0 20.877 0L4.29297 0C1.43555 0 0 1.42188 0 4.23828L0 20.9453C0 23.7617 1.43555 25.1699 4.29297 25.1699Z" fill="#8e8e93"/>
  <path d="M7.50586 18.1562L7.50586 12.5508C7.50586 11.5527 7.91602 11.0605 8.73633 11.0059L8.73633 9.35156C8.73633 6.75391 10.2949 5.01758 12.5918 5.01758C14.8887 5.01758 16.4473 6.75391 16.4473 9.35156L16.4473 11.0059C17.2812 11.0605 17.6914 11.5527 17.6914 12.5508L17.6914 18.1562C17.6914 19.209 17.2266 19.7012 16.2422 19.7012L8.94141 19.7012C7.9707 19.7012 7.50586 19.209 7.50586 18.1562ZM10.2129 10.9922L14.9707 10.9922L14.9707 9.1875C14.9707 7.54688 14.0137 6.43945 12.5918 6.43945C11.1699 6.43945 10.2129 7.54688 10.2129 9.1875Z" fill="white"/>
 </g>
</svg>
