<?xml version="1.0" encoding="UTF-8"?>
<!--Generator: Apple Native CoreSVG 326-->
<!DOCTYPE svg
PUBLIC "-//W3C//DTD SVG 1.1//EN"
       "http://www.w3.org/Graphics/SVG/1.1/DTD/svg11.dtd">
<svg version="1.1" xmlns="http://www.w3.org/2000/svg" xmlns:xlink="http://www.w3.org/1999/xlink" viewBox="0 0 20.7676 29.2715">
 <g>
  <rect height="29.2715" opacity="0" width="20.7676" x="0" y="0"/>
  <path d="M0.943359 20.166C0.943359 22.2852 1.77734 23.8438 3.32227 24.6914C4.07422 25.0879 4.51172 25.5938 4.78516 26.5098L5.22266 27.9727C5.48242 28.8477 6.09766 29.2715 7.01367 29.2715L13.3301 29.2715C14.2734 29.2715 14.8477 28.8613 15.1074 27.9727L15.5586 26.5098C15.832 25.5938 16.2695 25.0879 17.0215 24.6914C18.5664 23.8438 19.4004 22.2852 19.4004 20.166L19.4004 9.10547C19.4004 6.98633 18.5664 5.44141 17.0215 4.58008C16.2695 4.18359 15.832 3.67773 15.5586 2.77539L15.1074 1.29883C14.875 0.4375 14.2598 0 13.3301 0L7.01367 0C6.09766 0 5.48242 0.423828 5.22266 1.29883L4.78516 2.77539C4.52539 3.66406 4.08789 4.19727 3.32227 4.58008C1.79102 5.40039 0.943359 6.95898 0.943359 9.10547ZM2.93945 19.8789L2.93945 9.40625C2.93945 7.36914 4.12891 6.13867 6.125 6.13867L14.2188 6.13867C16.2148 6.13867 17.4043 7.36914 17.4043 9.40625L17.4043 19.8789C17.4043 21.9023 16.2148 23.1328 14.2188 23.1328L6.125 23.1328C4.12891 23.1328 2.93945 21.9023 2.93945 19.8789ZM19.0996 13.6719L19.5918 13.6719C20.3027 13.6719 20.7676 13.1934 20.7676 12.4141L20.7676 10.5684C20.7676 9.78906 20.3027 9.31055 19.5918 9.31055L19.0996 9.31055Z" fill="black" fill-opacity="0.85"/>
  <path d="M7.875 19.2773L12.5371 19.2773C13.3027 19.2773 13.6855 18.8809 13.6855 18.0879L13.6855 14.4512C13.6855 13.8223 13.4258 13.4395 12.9609 13.2891L12.9609 12.4414C12.9609 10.623 11.8535 9.36523 10.2129 9.36523C8.57227 9.36523 7.46484 10.623 7.46484 12.4414L7.46484 13.3027C7 13.4395 6.74023 13.8223 6.74023 14.4512L6.74023 18.0879C6.74023 18.8809 7.12305 19.2773 7.875 19.2773ZM8.83203 13.248L8.83203 12.3184C8.83203 11.334 9.36523 10.6777 10.2129 10.6777C11.0469 10.6777 11.5938 11.334 11.5938 12.3184L11.5938 13.248Z" fill="black" fill-opacity="0.85"/>
 </g>
</svg>
