<?xml version="1.0" encoding="UTF-8"?>
<!--Generator: Apple Native CoreSVG 326-->
<!DOCTYPE svg
PUBLIC "-//W3C//DTD SVG 1.1//EN"
       "http://www.w3.org/Graphics/SVG/1.1/DTD/svg11.dtd">
<svg version="1.1" xmlns="http://www.w3.org/2000/svg" xmlns:xlink="http://www.w3.org/1999/xlink" viewBox="0 0 25.5254 25.1699">
 <g>
  <rect height="25.1699" opacity="0" width="25.5254" x="0" y="0"/>
  <path d="M4.29297 25.1699L20.877 25.1699C23.748 25.1699 25.1699 23.7617 25.1699 20.9453L25.1699 4.23828C25.1699 1.42188 23.748 0 20.877 0L4.29297 0C1.43555 0 0 1.42188 0 4.23828L0 20.9453C0 23.7617 1.43555 25.1699 4.29297 25.1699Z" fill="black" fill-opacity="0.85"/>
  <path d="M7.10938 19.127C6.48047 19.127 6.09766 18.6895 6.09766 17.9648L6.09766 7.16406C6.09766 6.38477 6.63086 5.85156 7.42383 5.85156C8.10742 5.85156 8.55859 6.16602 8.80469 6.76758L12.5645 16.1328L12.6328 16.1328L16.3652 6.76758C16.625 6.16602 17.0762 5.85156 17.7598 5.85156C18.5391 5.85156 19.0859 6.38477 19.0859 7.16406L19.0859 17.9648C19.0859 18.7031 18.7031 19.127 18.0332 19.127C17.418 19.127 17.0352 18.6895 17.0352 17.9648L17.0352 9.85742L16.9121 9.85742L13.6582 17.9512C13.4531 18.457 13.0977 18.6895 12.5781 18.6895C12.0586 18.6895 11.7168 18.457 11.498 17.9512L8.27148 9.85742L8.14844 9.85742L8.14844 17.9648C8.14844 18.7031 7.75195 19.127 7.10938 19.127Z" fill="white"/>
 </g>
</svg>
