<?xml version="1.0" encoding="UTF-8"?>
<!--Generator: Apple Native CoreSVG 326-->
<!DOCTYPE svg
PUBLIC "-//W3C//DTD SVG 1.1//EN"
       "http://www.w3.org/Graphics/SVG/1.1/DTD/svg11.dtd">
<svg version="1.1" xmlns="http://www.w3.org/2000/svg" xmlns:xlink="http://www.w3.org/1999/xlink" viewBox="0 0 28.6016 32.3066">
 <g>
  <rect height="32.3066" opacity="0" width="28.6016" x="0" y="0"/>
  <path d="M0 29.9277C0 31.3633 0.875 32.3066 2.22852 32.3066L5.1543 32.3066C5.96094 32.3066 6.54883 31.8828 6.78125 31.1309L7.45117 28.8203L20.7949 28.8203L21.4648 31.1309C21.6973 31.8828 22.2988 32.3066 23.1055 32.3066L26.0176 32.3066C27.3711 32.3066 28.2461 31.3633 28.2461 29.9277L28.2461 2.39258C28.2461 0.957031 27.3711 0.0136719 26.0176 0.0136719L23.1055 0.0136719C22.2988 0.0136719 21.6973 0.4375 21.4648 1.18945L20.7949 3.5L7.45117 3.5L6.78125 1.18945C6.54883 0.4375 5.96094 0.0136719 5.1543 0.0136719L2.22852 0.0136719C0.875 0.0136719 0 0.957031 0 2.39258ZM12.5781 20.918C11.9219 20.918 11.4707 20.3027 10.9512 19.5645C10.3359 18.6895 9.84375 17.3496 9.84375 16.0645C9.84375 13.9863 11.1699 12.9062 12.4961 12.9062C13.207 12.9062 13.7676 13.3574 14.2051 13.3574C14.6289 13.3574 15.2852 12.8789 16.0781 12.8789C16.3926 12.8789 17.459 12.9062 18.1836 13.9316C18.1152 13.9727 17.0352 14.6016 17.0352 15.9551C17.0352 17.5273 18.416 18.0742 18.457 18.0879C18.4434 18.1426 18.252 18.8672 17.7324 19.6055C17.2812 20.2344 16.8027 20.918 16.0781 20.918C15.3672 20.918 15.1621 20.4941 14.3281 20.4941C13.5488 20.4941 13.2344 20.918 12.5781 20.918ZM14.2734 12.7832C14.2051 12.7832 14.1641 12.7695 14.1367 12.7422C14.123 12.7285 14.123 12.6465 14.123 12.5645C14.123 12.0176 14.3691 11.457 14.6836 11.1152C15.0801 10.6777 15.7227 10.3359 16.2559 10.3223C16.2695 10.377 16.2695 10.4453 16.2695 10.5273C16.2695 11.0742 16.0371 11.6211 15.7227 12.0176C15.3672 12.4551 14.752 12.7832 14.2734 12.7832Z" fill="black" fill-opacity="0.85"/>
 </g>
</svg>
