<?xml version="1.0" encoding="UTF-8"?>
<!--Generator: Apple Native CoreSVG 326-->
<!DOCTYPE svg
PUBLIC "-//W3C//DTD SVG 1.1//EN"
       "http://www.w3.org/Graphics/SVG/1.1/DTD/svg11.dtd">
<svg version="1.1" xmlns="http://www.w3.org/2000/svg" xmlns:xlink="http://www.w3.org/1999/xlink" viewBox="0 0 28.6016 35.916">
 <g>
  <rect height="35.916" opacity="0" width="28.6016" x="0" y="0"/>
  <path d="M12.6328 21.6836C13.2617 21.6836 13.5625 21.2734 14.3281 21.2734C15.1348 21.2734 15.3262 21.6836 16.0098 21.6836C16.7207 21.6836 17.1855 21.0273 17.623 20.4121C18.1289 19.7012 18.293 18.9902 18.3203 18.9492C18.2793 18.9219 16.9395 18.4023 16.9395 16.8848C16.9395 15.5586 17.9922 14.957 18.0605 14.916C17.3496 13.918 16.3105 13.8906 16.0098 13.8906C15.2305 13.8906 14.6152 14.3691 14.2051 14.3691C13.7812 14.3691 13.2207 13.918 12.5508 13.918C11.2656 13.918 9.98047 14.9707 9.98047 16.9805C9.98047 18.2246 10.4453 19.5371 11.0469 20.3848C11.5527 21.082 11.9902 21.6836 12.6328 21.6836ZM14.2734 13.8086C14.7246 13.8086 15.3262 13.4805 15.6543 13.0566C15.9824 12.6738 16.2012 12.1543 16.2012 11.6211C16.2012 11.5391 16.2012 11.4707 16.1738 11.416C15.6543 11.4434 15.0527 11.7578 14.6562 12.1816C14.3555 12.5234 14.123 13.0566 14.123 13.5898C14.123 13.6719 14.123 13.7539 14.1367 13.7676C14.1641 13.7949 14.2051 13.8086 14.2734 13.8086ZM4.29297 30.2969L23.9531 30.2969C26.8105 30.2969 28.2461 28.875 28.2461 26.0723L28.2461 8.12109C28.2461 5.29102 26.8105 3.88281 23.9531 3.88281L4.29297 3.88281C1.42188 3.88281 0 5.29102 0 8.12109L0 26.0723C0 28.8887 1.42188 30.2969 4.29297 30.2969ZM4.32031 28.0957C2.95312 28.0957 2.20117 27.3711 2.20117 25.9492L2.20117 8.23047C2.20117 6.80859 2.95312 6.08398 4.32031 6.08398L23.9258 6.08398C25.293 6.08398 26.0449 6.80859 26.0449 8.23047L26.0449 25.9492C26.0449 27.3711 25.2793 28.0957 23.9258 28.0957ZM3.67773 34.3574L8.66797 34.3574C9.24219 34.3574 9.69336 33.8926 9.69336 33.3184C9.69336 32.7441 9.24219 32.2793 8.66797 32.2793L3.67773 32.2793C3.11719 32.2793 2.65234 32.7441 2.65234 33.3184C2.65234 33.8926 3.11719 34.3574 3.67773 34.3574ZM5.14062 33.25L7.20508 33.25L7.20508 29.1348L5.14062 29.1348ZM19.5781 34.3574L24.5684 34.3574C25.1426 34.3574 25.5938 33.8926 25.5938 33.3184C25.5938 32.7441 25.1426 32.2793 24.5684 32.2793L19.5781 32.2793C19.0176 32.2793 18.5527 32.7441 18.5527 33.3184C18.5527 33.8926 19.0176 34.3574 19.5781 34.3574ZM21.041 33.25L23.1055 33.25L23.1055 29.1348L21.041 29.1348ZM5.14062 4.94922L7.20508 4.94922L7.20508 1.02539C7.20508 0.464844 6.75391 0 6.17969 0C5.60547 0 5.14062 0.464844 5.14062 1.02539ZM21.041 4.94922L23.1055 4.94922L23.1055 1.02539C23.1055 0.464844 22.6543 0 22.0801 0C21.4922 0 21.041 0.464844 21.041 1.02539Z" fill="black" fill-opacity="0.85"/>
 </g>
</svg>
