<?xml version="1.0" encoding="UTF-8"?>
<!--Generator: Apple Native CoreSVG 326-->
<!DOCTYPE svg
PUBLIC "-//W3C//DTD SVG 1.1//EN"
       "http://www.w3.org/Graphics/SVG/1.1/DTD/svg11.dtd">
<svg version="1.1" xmlns="http://www.w3.org/2000/svg" xmlns:xlink="http://www.w3.org/1999/xlink" viewBox="0 0 24.2949 32.0605">
 <g>
  <rect height="32.0605" opacity="0" width="24.2949" x="0" y="0"/>
  <path d="M19.2773 4.75781L20.8359 4.75781C21.4375 4.75781 21.7383 5.08594 21.7383 5.7832L21.7383 26.6191C21.7383 27.4395 21.6152 27.7402 20.8359 28.082C18.1152 29.2715 14.2871 30.0371 10.6777 30.0371C8.57227 30.0371 6.54883 29.9004 4.45703 29.5449L4.45703 29.7227C10.2402 29.8047 15.7637 28.1777 18.2793 26.25C19.25 25.5117 19.5371 25.0195 19.5371 23.8164L19.5371 2.00977C19.5371 0.65625 18.8535 0 17.6504 0C17.2402 0 16.748 0.0957031 16.1602 0.287109C12.0312 1.64062 8.25781 2.50195 3.41797 2.50195L2.32422 2.50195C0.847656 2.50195 0 3.36328 0 4.70312L0 28.1641C0 29.2305 0.232422 29.873 1.24414 30.3652C3.58203 31.377 7.08203 32.0469 10.6777 32.0469C14.5059 32.0469 18.8125 31.4727 21.9023 29.9688C23.543 29.1895 23.9395 28.4648 23.9395 26.7695L23.9395 5.7832C23.9395 3.56836 22.9551 2.55664 20.8223 2.55664L19.2773 2.55664ZM2.20117 27.1387L2.20117 5.29102C2.20117 4.9082 2.40625 4.67578 2.76172 4.67578L3.51367 4.67578C8.29883 4.67578 12.7695 3.71875 16.584 2.51562C17.0488 2.36523 17.3359 2.48828 17.3359 2.91211L17.3359 23.3379C17.3359 24.0762 17.2402 24.377 16.543 24.8281C13.6992 26.7285 9.0918 27.9043 2.67969 27.6309C2.33789 27.6172 2.20117 27.4668 2.20117 27.1387ZM4.99023 8.28516L4.99023 12.7695C4.99023 12.9883 5.14062 13.084 5.31836 13.084C8.53125 13.084 11.7852 12.5098 14.2461 11.5254C14.3691 11.4707 14.4375 11.3477 14.4375 11.2246L14.4375 6.54883C14.4375 6.23438 14.1504 6.16602 14 6.23438C11.1699 7.25977 8.4082 7.80664 5.31836 7.92969C5.12695 7.94336 4.99023 8.09375 4.99023 8.28516Z" fill="black" fill-opacity="0.85"/>
 </g>
</svg>
