<?xml version="1.0" encoding="UTF-8"?>
<!--Generator: Apple Native CoreSVG 326-->
<!DOCTYPE svg
PUBLIC "-//W3C//DTD SVG 1.1//EN"
       "http://www.w3.org/Graphics/SVG/1.1/DTD/svg11.dtd">
<svg version="1.1" xmlns="http://www.w3.org/2000/svg" xmlns:xlink="http://www.w3.org/1999/xlink" viewBox="0 0 17.1756 30.9395">
 <g>
  <rect height="30.9395" opacity="0" width="17.1756" x="0" y="0"/>
  <path d="M8.41007 30.9121C13.1679 30.9121 16.0116 28.6152 16.4491 23.9531C16.955 18.3887 16.9413 12.7422 16.4218 6.69922C16.0253 2.31055 13.1679 0 8.41007 0C3.65225 0 0.794832 2.31055 0.398347 6.69922C-0.121184 12.7422-0.134856 18.3887 0.371003 23.9531C0.808503 28.6152 3.65225 30.9121 8.41007 30.9121ZM8.39639 25.3887C7.97257 25.3887 7.82218 25.6074 7.48038 25.6074C7.13858 25.6074 6.91983 25.293 6.64639 24.9102C6.31827 24.4453 6.07218 23.7617 6.07218 23.1055C6.07218 22.0391 6.76944 21.4922 7.45303 21.4922C7.78116 21.4922 8.04093 21.7109 8.32803 21.7109C8.61514 21.7109 8.86124 21.4922 9.29874 21.4922C9.44913 21.4922 10.0097 21.4922 10.3651 21.998C10.3378 22.0254 9.79093 22.3398 9.79093 23.0508C9.79093 23.8438 10.4882 24.1172 10.5019 24.1445C10.5019 24.1582 10.4062 24.541 10.1327 24.9238C9.9003 25.2656 9.65421 25.6074 9.29874 25.6074C8.9296 25.6074 8.82022 25.3887 8.39639 25.3887ZM8.27335 21.4102C8.27335 20.6719 8.80655 20.125 9.3671 20.125C9.47647 20.7402 8.9296 21.4375 8.27335 21.4102Z" fill="black" fill-opacity="0.85"/>
 </g>
</svg>
