<?xml version="1.0" encoding="UTF-8"?>
<!--Generator: Apple Native CoreSVG 326-->
<!DOCTYPE svg
PUBLIC "-//W3C//DTD SVG 1.1//EN"
       "http://www.w3.org/Graphics/SVG/1.1/DTD/svg11.dtd">
<svg version="1.1" xmlns="http://www.w3.org/2000/svg" xmlns:xlink="http://www.w3.org/1999/xlink" viewBox="0 0 19.7695 28.0684">
 <g>
  <rect height="28.0684" opacity="0" width="19.7695" x="0" y="0"/>
  <path d="M3.80078 28.0547L15.6133 28.0547C17.8965 28.0547 19.4141 26.6055 19.4141 24.459L19.4141 3.5957C19.4141 1.43555 17.8965 0 15.6133 0L3.80078 0C1.51758 0 0 1.43555 0 3.5957L0 24.459C0 26.6055 1.51758 28.0547 3.80078 28.0547ZM9.7207 23.3242C9.22852 23.3242 8.81836 22.9277 8.81836 22.4355L8.81836 19.8105C8.81836 19.3184 9.22852 18.9219 9.7207 18.9219C10.2129 18.9219 10.6094 19.3184 10.6094 19.8105L10.6094 22.4355C10.6094 22.9277 10.2129 23.3242 9.7207 23.3242ZM9.7207 16.666C5.6875 16.666 2.41992 13.3848 2.41992 9.36523C2.41992 5.3457 5.6875 2.07812 9.7207 2.07812C13.7266 2.07812 17.0078 5.3457 17.0078 9.36523C17.0078 13.3848 13.7266 16.666 9.7207 16.666ZM9.7207 14.9434C12.7832 14.9434 15.2852 12.4414 15.2852 9.36523C15.2852 6.28906 12.7832 3.80078 9.7207 3.80078C6.63086 3.80078 4.14258 6.28906 4.14258 9.36523C4.14258 12.4414 6.63086 14.9434 9.7207 14.9434Z" fill="black" fill-opacity="0.85"/>
 </g>
</svg>
