<?xml version="1.0" encoding="UTF-8"?>
<!--Generator: Apple Native CoreSVG 326-->
<!DOCTYPE svg
PUBLIC "-//W3C//DTD SVG 1.1//EN"
       "http://www.w3.org/Graphics/SVG/1.1/DTD/svg11.dtd">
<svg version="1.1" xmlns="http://www.w3.org/2000/svg" xmlns:xlink="http://www.w3.org/1999/xlink" viewBox="0 0 33.4004 34.6309">
 <g>
  <rect height="34.6309" opacity="0" width="33.4004" x="0" y="0"/>
  <path d="M25.1506 3.91016L7.89434 3.91016C7.95046 2.79901 8.65169 2.16016 9.81641 2.16016L23.2285 2.16016C24.3932 2.16016 25.0945 2.79901 25.1506 3.91016Z" fill="black" fill-opacity="0.85"/>
  <path d="M27.9473 7.81549C27.5075 7.7456 27.0411 7.71094 26.5508 7.71094L6.49414 7.71094C6.00391 7.71094 5.53762 7.74558 5.09803 7.81545C5.24689 6.50197 6.13568 5.76953 7.58789 5.76953L25.4707 5.76953C26.9229 5.76953 27.8005 6.50199 27.9473 7.81549Z" fill="black" fill-opacity="0.85"/>
  <path d="M6.49414 32.4297L26.5508 32.4297C29.4082 32.4297 30.8438 31.0078 30.8438 28.1914L30.8438 14.1504C30.8438 11.334 29.4082 9.91211 26.5508 9.91211L6.49414 9.91211C3.63672 9.91211 2.20117 11.334 2.20117 14.1504L2.20117 28.1914C2.20117 31.0078 3.63672 32.4297 6.49414 32.4297ZM7.94336 17.2812C7.36914 17.2812 6.97266 16.8301 6.97266 16.2969C6.97266 15.7637 7.36914 15.3125 7.94336 15.3125L16.8848 15.3125C17.418 15.3125 17.8555 15.7637 17.8555 16.2969C17.8555 16.8301 17.418 17.2812 16.8848 17.2812ZM7.94336 20.9727C7.36914 20.9727 6.97266 20.5488 6.97266 20.0156C6.97266 19.4551 7.36914 19.0312 7.94336 19.0312L14.3418 19.0312C14.875 19.0312 15.2988 19.4551 15.2988 20.0156C15.2988 20.5488 14.875 20.9727 14.3418 20.9727ZM23.2969 21.3418C21.4512 21.3418 19.9609 19.8652 19.9609 18.0195C19.9609 16.1738 21.4512 14.6973 23.2969 14.6973C25.1289 14.6973 26.6191 16.1738 26.6191 18.0195C26.6191 19.8652 25.1289 21.3418 23.2969 21.3418Z" fill="black" fill-opacity="0.85"/>
 </g>
</svg>
