<?xml version="1.0" encoding="UTF-8"?>
<!--Generator: Apple Native CoreSVG 326-->
<!DOCTYPE svg
PUBLIC "-//W3C//DTD SVG 1.1//EN"
       "http://www.w3.org/Graphics/SVG/1.1/DTD/svg11.dtd">
<svg version="1.1" xmlns="http://www.w3.org/2000/svg" xmlns:xlink="http://www.w3.org/1999/xlink" viewBox="0 0 33.5408 27.9043">
 <g>
  <rect height="27.9043" opacity="0" width="33.5408" x="0" y="0"/>
  <path d="M16.5995 27.8906C24.2968 27.8906 30.5448 21.6426 30.5448 13.9453C30.5448 6.24805 24.2968 0 16.5995 0C8.90224 0 2.65419 6.24805 2.65419 13.9453L4.97841 13.9453C4.97841 7.51953 10.1737 2.32422 16.5995 2.32422C23.0253 2.32422 28.2206 7.51953 28.2206 13.9453C28.2206 20.3711 23.0253 25.5664 16.5995 25.5664C12.7167 25.5664 9.2577 23.6523 7.19325 20.7539C6.76942 20.1934 6.12684 20.0156 5.55263 20.3574C5.00575 20.6992 4.84169 21.4648 5.30653 22.0664C7.83583 25.6074 11.9784 27.8906 16.5995 27.8906ZM0.972548 11.3066C-0.0118272 11.3066-0.257921 11.9766 0.275282 12.7422L3.33778 17.0898C3.78895 17.7188 4.4452 17.7051 4.8827 17.0898L7.93153 12.7285C8.46474 11.9766 8.20497 11.3066 7.24794 11.3066Z" fill="black" fill-opacity="0.85"/>
  <path d="M10.2011 18.5664C10.5975 18.5664 10.8436 18.3066 10.8436 17.9102L10.8436 14.8613L12.2245 14.8613L13.6054 18.1016C13.7284 18.416 13.9335 18.5664 14.2343 18.5664C14.6444 18.5664 14.8768 18.3066 14.8768 17.9922C14.8768 17.8281 14.8358 17.7324 14.7401 17.5L13.455 14.5879C14.3026 14.2188 14.9042 13.3711 14.9042 12.127C14.9042 10.4727 13.8788 9.44727 12.1698 9.44727L10.1874 9.44727C9.80458 9.44727 9.55849 9.70703 9.55849 10.1035L9.55849 17.9102C9.55849 18.3066 9.79091 18.5664 10.2011 18.5664ZM10.8436 13.8359L10.8436 10.5L12.0468 10.5C13.0585 10.5 13.619 11.1562 13.619 12.1543C13.619 13.166 13.0858 13.8359 12.0604 13.8359ZM16.7225 18.5801C17.078 18.5801 17.3104 18.334 17.3104 17.9785L17.3104 11.3887L17.3788 11.3887L19.1835 17.8008C19.2792 18.1426 19.4843 18.4297 19.9081 18.4297C20.3046 18.4297 20.5097 18.1699 20.6327 17.7734L22.4374 11.3887L22.5058 11.3887L22.5058 17.9785C22.5058 18.334 22.7382 18.5801 23.08 18.5801C23.4218 18.5801 23.6542 18.334 23.6542 17.9785L23.6542 10.2266C23.6542 9.66602 23.2987 9.32422 22.7518 9.32422C22.2733 9.32422 21.9452 9.61133 21.8085 10.0762L19.9628 16.7344L19.8671 16.7344L17.994 10.0762C17.871 9.61133 17.5292 9.32422 17.0643 9.32422C16.5038 9.32422 16.1483 9.66602 16.1483 10.2266L16.1483 17.9785C16.1483 18.334 16.3808 18.5801 16.7225 18.5801Z" fill="black" fill-opacity="0.85"/>
 </g>
</svg>
