<?xml version="1.0" encoding="UTF-8"?>
<!--Generator: Apple Native CoreSVG 326-->
<!DOCTYPE svg
PUBLIC "-//W3C//DTD SVG 1.1//EN"
       "http://www.w3.org/Graphics/SVG/1.1/DTD/svg11.dtd">
<svg version="1.1" xmlns="http://www.w3.org/2000/svg" xmlns:xlink="http://www.w3.org/1999/xlink" viewBox="0 0 30.9258 30.584">
 <g>
  <rect height="30.584" opacity="0" width="30.9258" x="0" y="0"/>
  <path d="M15.2852 30.5703C23.6797 30.5703 30.5703 23.6797 30.5703 15.2852C30.5703 6.89062 23.6797 0 15.2852 0C6.89062 0 0 6.89062 0 15.2852C0 23.6797 6.89062 30.5703 15.2852 30.5703ZM15.2852 25.4844C9.65234 25.4844 5.08594 20.918 5.08594 15.2852C5.08594 9.63867 9.65234 5.08594 15.2852 5.08594C20.9316 5.08594 25.4844 9.63867 25.4844 15.2852C25.4844 20.918 20.9316 25.4844 15.2852 25.4844Z" fill="black" fill-opacity="0.85"/>
  <path d="M8.68164 20.0703C9.0918 20.0703 9.33789 19.7969 9.33789 19.3867L9.33789 16.2285L10.7598 16.2285L12.1953 19.5781C12.3184 19.9062 12.5371 20.0703 12.8516 20.0703C13.2617 20.0703 13.5078 19.7969 13.5078 19.4688C13.5078 19.3047 13.4668 19.1953 13.3574 18.9629L12.0449 15.9551C12.9199 15.5723 13.5352 14.6973 13.5352 13.4121C13.5352 11.6895 12.4824 10.623 10.7051 10.623L8.66797 10.623C8.27148 10.623 8.01172 10.8965 8.01172 11.3066L8.01172 19.3867C8.01172 19.7969 8.25781 20.0703 8.68164 20.0703ZM9.33789 15.1758L9.33789 11.7305L10.582 11.7305C11.6211 11.7305 12.209 12.3867 12.209 13.4395C12.209 14.4785 11.6621 15.1758 10.5957 15.1758ZM15.4219 20.084C15.791 20.084 16.0234 19.8242 16.0234 19.4551L16.0234 12.6328L16.0918 12.6328L17.9648 19.2773C18.0605 19.6191 18.2793 19.9199 18.7168 19.9199C19.127 19.9199 19.3457 19.6602 19.4688 19.25L21.3281 12.6328L21.3965 12.6328L21.3965 19.4551C21.3965 19.8242 21.6289 20.084 21.998 20.084C22.3535 20.084 22.5859 19.8242 22.5859 19.4551L22.5859 11.4297C22.5859 10.8555 22.2305 10.5 21.6562 10.5C21.1641 10.5 20.8223 10.8008 20.6855 11.293L18.7852 18.1699L18.6758 18.1699L16.7344 11.2793C16.6113 10.8145 16.2559 10.5 15.7773 10.5C15.1895 10.5 14.8203 10.8555 14.8203 11.4297L14.8203 19.4551C14.8203 19.8242 15.0664 20.084 15.4219 20.084Z" fill="black" fill-opacity="0.85"/>
 </g>
</svg>
