<?xml version="1.0" encoding="UTF-8"?>
<!--Generator: Apple Native CoreSVG 326-->
<!DOCTYPE svg
PUBLIC "-//W3C//DTD SVG 1.1//EN"
       "http://www.w3.org/Graphics/SVG/1.1/DTD/svg11.dtd">
<svg version="1.1" xmlns="http://www.w3.org/2000/svg" xmlns:xlink="http://www.w3.org/1999/xlink" viewBox="0 0 28.793 26.9746">
 <g>
  <rect height="26.9746" opacity="0" width="28.793" x="0" y="0"/>
  <path d="M1.54492 26.4414C1.88672 26.4414 2.24219 26.3184 2.67969 26.0723L9.63867 22.3262L17.1992 26.5645C17.6914 26.8379 18.2246 26.9746 18.7305 26.9746C19.209 26.9746 19.6875 26.8516 20.0977 26.6191L27.248 22.5586C28.0684 22.1074 28.4375 21.4512 28.4375 20.5352L28.4375 2.11914C28.4375 1.10742 27.877 0.546875 26.8926 0.546875C26.5508 0.546875 26.1953 0.65625 25.7441 0.902344L18.498 4.93555L11.0742 0.382812C10.6504 0.136719 10.1719 0 9.69336 0C9.20117 0 8.70898 0.136719 8.28516 0.382812L1.17578 4.42969C0.369141 4.89453 0 5.55078 0 6.4668L0 24.8555C0 25.8672 0.560547 26.4414 1.54492 26.4414ZM8.75 20.1523L2.58398 23.543C2.51562 23.5703 2.44727 23.6113 2.37891 23.6113C2.26953 23.6113 2.20117 23.5293 2.20117 23.3926L2.20117 7C2.20117 6.67188 2.32422 6.43945 2.65234 6.24805L8.25781 2.9668C8.43555 2.87109 8.58594 2.78906 8.75 2.69336ZM10.9512 20.3711L10.9512 2.98047C11.0879 3.0625 11.252 3.14453 11.3887 3.22656L17.4863 6.94531L17.4863 24.0352C17.2949 23.9258 17.0898 23.8301 16.8848 23.7207ZM19.6875 24.2812L19.6875 6.80859L25.8535 3.44531C25.9219 3.4043 25.9902 3.37695 26.0449 3.37695C26.168 3.37695 26.2363 3.45898 26.2363 3.5957L26.2363 19.9883C26.2363 20.3301 26.0996 20.5625 25.7852 20.7539L20.3027 23.9395C20.0977 24.0625 19.8926 24.1855 19.6875 24.2812Z" fill="black" fill-opacity="0.85"/>
 </g>
</svg>
