<?xml version="1.0" encoding="UTF-8"?>
<!--Generator: Apple Native CoreSVG 326-->
<!DOCTYPE svg
PUBLIC "-//W3C//DTD SVG 1.1//EN"
       "http://www.w3.org/Graphics/SVG/1.1/DTD/svg11.dtd">
<svg version="1.1" xmlns="http://www.w3.org/2000/svg" xmlns:xlink="http://www.w3.org/1999/xlink" viewBox="0 0 28.2461 27.9043">
 <g>
  <rect height="27.9043" opacity="0" width="28.2461" x="0" y="0"/>
  <path d="M13.9453 27.8906C21.6426 27.8906 27.8906 21.6426 27.8906 13.9453C27.8906 6.24805 21.6426 0 13.9453 0C6.24805 0 0 6.24805 0 13.9453C0 21.6426 6.24805 27.8906 13.9453 27.8906ZM13.9453 25.5664C7.51953 25.5664 2.32422 20.3711 2.32422 13.9453C2.32422 7.51953 7.51953 2.32422 13.9453 2.32422C20.3711 2.32422 25.5664 7.51953 25.5664 13.9453C25.5664 20.3711 20.3711 25.5664 13.9453 25.5664Z" fill="black" fill-opacity="0.85"/>
  <path d="M6.50781 19.8516C6.50781 20.3848 6.79492 20.6855 7.31445 20.6855C7.50586 20.6855 7.68359 20.6172 7.91602 20.4941L10.9102 18.8672L10.9102 7.06836C10.7871 7.12305 10.6504 7.19141 10.5 7.27344L7.12305 9.20117C6.67188 9.46094 6.50781 9.76172 6.50781 10.2676ZM11.8809 18.7305L15.4766 20.7539C15.5859 20.8223 15.709 20.8633 15.8047 20.8906L15.8047 9.25586L12.291 7.10938C12.1543 7.02734 12.0312 6.97266 11.8809 6.94531ZM16.7754 20.8633C16.8438 20.8496 16.9121 20.8223 16.9941 20.7812L20.6992 18.6758C21.1504 18.416 21.3281 18.1152 21.3281 17.623L21.3281 7.99805C21.3281 7.47852 21.0273 7.19141 20.5215 7.19141C20.3301 7.19141 20.1523 7.25977 19.9199 7.38281L16.7754 9.11914Z" fill="black" fill-opacity="0.85"/>
 </g>
</svg>
