<?xml version="1.0" encoding="UTF-8"?>
<!--Generator: Apple Native CoreSVG 326-->
<!DOCTYPE svg
PUBLIC "-//W3C//DTD SVG 1.1//EN"
       "http://www.w3.org/Graphics/SVG/1.1/DTD/svg11.dtd">
<svg version="1.1" xmlns="http://www.w3.org/2000/svg" xmlns:xlink="http://www.w3.org/1999/xlink" viewBox="0 0 28.2461 27.9043">
 <g>
  <rect height="27.9043" opacity="0" width="28.2461" x="0" y="0"/>
  <path d="M13.9453 27.8906C21.6426 27.8906 27.8906 21.6426 27.8906 13.9453C27.8906 6.24805 21.6426 0 13.9453 0C6.24805 0 0 6.24805 0 13.9453C0 21.6426 6.24805 27.8906 13.9453 27.8906ZM13.9453 25.5664C7.51953 25.5664 2.32422 20.3711 2.32422 13.9453C2.32422 7.51953 7.51953 2.32422 13.9453 2.32422C20.3711 2.32422 25.5664 7.51953 25.5664 13.9453C25.5664 20.3711 20.3711 25.5664 13.9453 25.5664Z" fill="#ff3b30"/>
  <path d="M10.8145 8.83203C10.8145 10.2129 11.7305 11.3887 12.9883 11.7852L12.9883 18.6621C12.9883 20.6582 13.3164 22.4355 13.9316 22.4355C14.5605 22.4355 14.8613 20.6855 14.8613 18.6621L14.8613 11.7852C16.1328 11.4023 17.0488 10.2266 17.0488 8.83203C17.0488 7.10938 15.6543 5.71484 13.9316 5.71484C12.2227 5.71484 10.8145 7.10938 10.8145 8.83203ZM12.1406 8.02539C12.127 7.49219 12.6055 7.02734 13.125 7.02734C13.6719 7.02734 14.123 7.49219 14.123 8.02539C14.123 8.55859 13.6719 9.02344 13.125 9.02344C12.6055 9.02344 12.1406 8.55859 12.1406 8.02539Z" fill="#ff3b30"/>
 </g>
</svg>
