<?xml version="1.0" encoding="UTF-8"?>
<!--Generator: Apple Native CoreSVG 326-->
<!DOCTYPE svg
PUBLIC "-//W3C//DTD SVG 1.1//EN"
       "http://www.w3.org/Graphics/SVG/1.1/DTD/svg11.dtd">
<svg version="1.1" xmlns="http://www.w3.org/2000/svg" xmlns:xlink="http://www.w3.org/1999/xlink" viewBox="0 0 10.623 30.0371">
 <g>
  <rect height="30.0371" opacity="0" width="10.623" x="0" y="0"/>
  <path d="M0 5.1543C0 7.56055 1.62695 9.57031 3.85547 10.1309L3.85547 22.8184C3.85547 26.8516 4.58008 29.0527 5.12695 29.0527C5.6875 29.0527 6.39844 26.8652 6.39844 22.8184L6.39844 10.1309C8.62695 9.58398 10.2676 7.56055 10.2676 5.1543C10.2676 2.32422 7.98438 0 5.12695 0C2.2832 0 0 2.32422 0 5.1543Z" fill="#ff3b30"/>
  <path d="M3.66406 5.44141C2.7207 5.44141 1.90039 4.62109 1.90039 3.66406C1.90039 2.7207 2.7207 1.91406 3.66406 1.91406C4.62109 1.91406 5.41406 2.7207 5.41406 3.66406C5.41406 4.62109 4.62109 5.44141 3.66406 5.44141Z" fill="white"/>
 </g>
</svg>
