<?xml version="1.0" encoding="UTF-8"?>
<!--Generator: Apple Native CoreSVG 326-->
<!DOCTYPE svg
PUBLIC "-//W3C//DTD SVG 1.1//EN"
       "http://www.w3.org/Graphics/SVG/1.1/DTD/svg11.dtd">
<svg version="1.1" xmlns="http://www.w3.org/2000/svg" xmlns:xlink="http://www.w3.org/1999/xlink" viewBox="0 0 28.2461 27.9043">
 <g>
  <rect height="27.9043" opacity="0" width="28.2461" x="0" y="0"/>
  <path d="M13.9453 27.8906C21.6426 27.8906 27.8906 21.6426 27.8906 13.9453C27.8906 6.24805 21.6426 0 13.9453 0C6.24805 0 0 6.24805 0 13.9453C0 21.6426 6.24805 27.8906 13.9453 27.8906ZM13.9453 25.5664C7.51953 25.5664 2.32422 20.3711 2.32422 13.9453C2.32422 7.51953 7.51953 2.32422 13.9453 2.32422C20.3711 2.32422 25.5664 7.51953 25.5664 13.9453C25.5664 20.3711 20.3711 25.5664 13.9453 25.5664Z" fill="#ff3b30"/>
  <path d="M11.0879 8.23047C11.0879 9.5293 11.9629 10.6367 13.166 10.9785L13.166 15.6133C13.166 17.7598 13.5352 18.9902 13.9316 18.9902C14.3418 18.9902 14.7109 17.7871 14.7109 15.6133L14.7109 10.9785C15.9004 10.6367 16.7754 9.5293 16.7754 8.23047C16.7754 6.6582 15.5176 5.38672 13.9316 5.38672C12.3457 5.38672 11.0879 6.6582 11.0879 8.23047ZM13.1387 8.35352C12.6738 8.35352 12.2227 7.94336 12.2227 7.4375C12.2227 6.93164 12.6738 6.52148 13.1387 6.52148C13.6582 6.52148 14.0684 6.93164 14.0684 7.4375C14.0684 7.94336 13.6582 8.35352 13.1387 8.35352ZM13.9316 21.6699C18.375 21.6699 20.9863 20.1113 20.9863 18.4297C20.9863 16.3789 17.7324 15.1895 15.6816 15.2031L15.6816 16.4609C17.1035 16.4473 19.332 17.2129 19.332 18.252C19.332 19.4551 17.0762 20.3301 13.9316 20.3301C10.7734 20.3301 8.54492 19.4551 8.54492 18.252C8.54492 17.2129 10.7598 16.4473 12.1816 16.4609L12.1816 15.2031C10.1309 15.1895 6.87695 16.3789 6.87695 18.4297C6.87695 20.1113 9.48828 21.6699 13.9316 21.6699Z" fill="#ff3b30"/>
 </g>
</svg>
