<?xml version="1.0" encoding="UTF-8"?>
<!--Generator: Apple Native CoreSVG 326-->
<!DOCTYPE svg
PUBLIC "-//W3C//DTD SVG 1.1//EN"
       "http://www.w3.org/Graphics/SVG/1.1/DTD/svg11.dtd">
<svg version="1.1" xmlns="http://www.w3.org/2000/svg" xmlns:xlink="http://www.w3.org/1999/xlink" viewBox="0 0 27.959 32.0435">
 <g>
  <rect height="32.0435" opacity="0" width="27.959" x="0" y="0"/>
  <path d="M14.2598 16.3567L27.5625 8.7278L27.5625 8.57741C27.4258 7.49733 26.9199 6.93679 25.9355 6.36257L16.2559 0.811787C14.6016-0.145244 13.002-0.131572 11.3477 0.811787L1.68164 6.32155C0.697266 6.8821 0.177734 7.46999 0.0273438 8.64577L0.0273438 8.79616L13.3848 16.3704C13.6309 16.5208 14.0137 16.5071 14.2598 16.3567ZM14.1504 13.6633C13.9453 13.7727 13.6719 13.7727 13.4531 13.6633L3.60938 8.03054C3.45898 7.94851 3.44531 7.79812 3.5957 7.71608L12.2637 2.78054C13.3164 2.17897 14.2871 2.1653 15.3535 2.78054L24.0078 7.74343C24.1719 7.82546 24.1719 8.00319 24.0215 8.08522ZM1.91406 25.6126L12.6738 31.7102C13.4395 32.1477 14.1641 32.1614 14.9434 31.7102L25.6895 25.5579C26.9473 24.8333 27.6035 24.177 27.6035 22.2219L27.6035 10.5872L14.5605 18.0247C14.1094 18.2844 13.5352 18.2844 13.084 18.0383L0 10.6145L0 22.2219C0 24.177 0.669922 24.9016 1.91406 25.6126ZM1.70898 15.2219C1.28516 14.9758 0.943359 14.4563 0.943359 14.0325C0.943359 13.6223 1.27148 13.4856 1.68164 13.718C2.0918 13.9641 2.44727 14.4973 2.44727 14.9075C2.44727 15.3176 2.10547 15.4544 1.70898 15.2219ZM5.79688 17.3958L3.19922 15.9055L3.19922 14.593L5.79688 16.0833ZM7.49219 18.5305C7.06836 18.2844 6.74023 17.7512 6.74023 17.3411C6.74023 16.9309 7.06836 16.7805 7.47852 17.0266C7.88867 17.2591 8.23047 17.7923 8.23047 18.2024C8.23047 18.6126 7.90234 18.763 7.49219 18.5305ZM11.5801 20.718L8.98242 19.2278L8.98242 17.9153L11.5801 19.4055ZM15.791 20.9915C15.3809 21.2239 15.0527 21.0872 15.0527 20.677C15.0527 20.2669 15.4219 19.72 15.8184 19.4876C16.2285 19.2415 16.5566 19.3782 16.5566 19.7883C16.5566 20.1985 16.2148 20.7454 15.791 20.9915ZM17.459 27.3762L17.459 19.1731C17.459 18.7493 17.5273 18.5716 17.8828 18.3665L20.1113 17.095C20.4395 16.9173 20.7676 17.0676 20.7676 17.4231L20.7676 25.4895ZM22.2852 17.2727C21.875 17.5051 21.5469 17.3821 21.5469 16.9719C21.5469 16.5618 21.8887 16.0149 22.3125 15.7688C22.7227 15.5364 23.0508 15.6731 23.0508 16.0833C23.0508 16.4934 22.6953 17.0403 22.2852 17.2727ZM26.5371 14.7161L23.9395 16.1926L23.9395 14.8938L26.5371 13.4173Z" fill="black" fill-opacity="0.85"/>
 </g>
</svg>
