<?xml version="1.0" encoding="UTF-8"?>
<!--Generator: Apple Native CoreSVG 326-->
<!DOCTYPE svg
PUBLIC "-//W3C//DTD SVG 1.1//EN"
       "http://www.w3.org/Graphics/SVG/1.1/DTD/svg11.dtd">
<svg version="1.1" xmlns="http://www.w3.org/2000/svg" xmlns:xlink="http://www.w3.org/1999/xlink" viewBox="0 0 34.5762 27.9043">
 <g>
  <rect height="27.9043" opacity="0" width="34.5762" x="0" y="0"/>
  <path d="M17.1172 27.8906C24.8145 27.8906 31.0625 21.6289 31.0625 13.9453C31.0625 6.24805 24.8145 0 17.1172 0C9.41992 0 3.17188 6.24805 3.17188 13.9453L4.63477 13.9453L2.06445 10.2949C1.8457 9.98047 1.53125 9.77539 1.12109 9.77539C0.492188 9.77539 0 10.2266 0 10.8555C0 11.1289 0.0820312 11.3887 0.246094 11.5938L3.13086 15.1348C3.55469 15.6816 3.91016 15.873 4.45703 15.873C4.8125 15.873 5.08594 15.7773 5.42773 15.5312L8.99609 12.8926C9.29688 12.6738 9.46094 12.3457 9.46094 11.9902C9.46094 11.3477 8.95508 10.8828 8.38086 10.8828C8.12109 10.8828 7.88867 10.9648 7.68359 11.1152L4.07422 13.9453L5.49609 13.9453C5.49609 7.51953 10.6914 2.32422 17.1172 2.32422C23.543 2.32422 28.7383 7.51953 28.7383 13.9453C28.7383 20.3711 23.543 25.5664 17.1172 25.5664C12.8652 25.5664 9.83008 23.3105 8.33984 21.5742C8.03906 21.2188 7.68359 21.082 7.3418 21.082C6.78125 21.082 6.26172 21.5195 6.26172 22.1484C6.26172 22.4629 6.35742 22.8047 6.6582 23.1602C8.2168 24.9922 11.8398 27.8906 17.1172 27.8906Z" fill="black" fill-opacity="0.85"/>
  <path d="M13.6035 18.4297C13.6035 19.0449 14.2871 19.332 14.8887 18.9766L22.2031 14.6426C22.7363 14.3281 22.7227 13.5762 22.2031 13.2617L14.8887 8.92773C14.3281 8.59961 13.6035 8.8457 13.6035 9.47461Z" fill="black" fill-opacity="0.85"/>
 </g>
</svg>
