<?xml version="1.0" encoding="UTF-8"?>
<!--Generator: Apple Native CoreSVG 326-->
<!DOCTYPE svg
PUBLIC "-//W3C//DTD SVG 1.1//EN"
       "http://www.w3.org/Graphics/SVG/1.1/DTD/svg11.dtd">
<svg version="1.1" xmlns="http://www.w3.org/2000/svg" xmlns:xlink="http://www.w3.org/1999/xlink" viewBox="0 0 28.2461 27.9043">
 <g>
  <rect height="27.9043" opacity="0" width="28.2461" x="0" y="0"/>
  <path d="M13.9453 27.9043C21.6426 27.9043 27.8906 21.6562 27.8906 13.959C27.8906 6.27539 21.6426 0.0136719 13.9453 0.0136719C6.26172 0.0136719 0 6.27539 0 13.959C0 21.6562 6.26172 27.9043 13.9453 27.9043Z" fill="#28cd41"/>
  <path d="M13.9453 19.9062C13.6309 19.9062 13.3438 19.8926 13.0703 19.8789C12.9199 19.8652 12.8379 19.9062 12.6875 20.0156C11.293 20.8496 9.88477 21.4375 9.10547 21.4375C8.49023 21.4375 8.38086 20.959 8.77734 20.4941C9.06445 20.166 9.47461 19.7285 9.70703 19.2637C9.78906 19.1133 9.78906 18.9492 9.61133 18.8535C7.54688 17.6504 6.15234 15.75 6.15234 13.5352C6.15234 10.0215 9.57031 7.17773 13.9453 7.17773C18.3203 7.17773 21.7383 10.0215 21.7383 13.5352C21.7383 17.0488 18.3203 19.9062 13.9453 19.9062Z" fill="white"/>
 </g>
</svg>
