<?xml version="1.0" encoding="UTF-8"?>
<!--Generator: Apple Native CoreSVG 326-->
<!DOCTYPE svg
PUBLIC "-//W3C//DTD SVG 1.1//EN"
       "http://www.w3.org/Graphics/SVG/1.1/DTD/svg11.dtd">
<svg version="1.1" xmlns="http://www.w3.org/2000/svg" xmlns:xlink="http://www.w3.org/1999/xlink" viewBox="0 0 19.9199 30.9395">
 <g>
  <rect height="30.9395" opacity="0" width="19.9199" x="0" y="0"/>
  <path d="M0 14.3145C0 19.6738 3.54102 23.4336 8.75 23.8711L8.75 27.0566L3.67773 27.0566C3.10352 27.0566 2.63867 27.5215 2.63867 28.0957C2.63867 28.6699 3.10352 29.1211 3.67773 29.1211L15.8867 29.1211C16.4609 29.1211 16.9258 28.6699 16.9258 28.0957C16.9258 27.5215 16.4609 27.0566 15.8867 27.0566L10.8145 27.0566L10.8145 23.8711C16.0371 23.4336 19.5645 19.6738 19.5645 14.3145L19.5645 11.5391C19.5645 10.9648 19.1133 10.5137 18.5391 10.5137C17.9648 10.5137 17.5 10.9648 17.5 11.5391L17.5 14.2324C17.5 18.8945 14.4648 21.9844 9.78906 21.9844C5.09961 21.9844 2.06445 18.8945 2.06445 14.2324L2.06445 11.5391C2.06445 10.9648 1.61328 10.5137 1.02539 10.5137C0.451172 10.5137 0 10.9648 0 11.5391ZM9.78906 19.0449C12.5098 19.0449 14.3418 17.0078 14.3418 14.0957L14.3418 4.94922C14.3418 2.02344 12.5098 0 9.78906 0C7.05469 0 5.22266 2.02344 5.22266 4.94922L5.22266 14.0957C5.22266 17.0078 7.05469 19.0449 9.78906 19.0449Z" fill="#ff9500"/>
 </g>
</svg>
