<?xml version="1.0" encoding="UTF-8"?>
<!--Generator: Apple Native CoreSVG 326-->
<!DOCTYPE svg
PUBLIC "-//W3C//DTD SVG 1.1//EN"
       "http://www.w3.org/Graphics/SVG/1.1/DTD/svg11.dtd">
<svg version="1.1" xmlns="http://www.w3.org/2000/svg" xmlns:xlink="http://www.w3.org/1999/xlink" viewBox="0 0 32.2246 20.6035">
 <g>
  <rect height="20.6035" opacity="0" width="32.2246" x="0" y="0"/>
  <path d="M2.74805 20.6035L21.5742 20.6035L21.5742 0.0136719L2.74805 0.0136719C1.10742 0.0136719 0 1.14844 0 2.87109L0 17.7461C0 19.4688 1.10742 20.6035 2.74805 20.6035ZM4.19727 17.2812C3.39062 17.2812 2.87109 16.7617 2.87109 15.9551L2.87109 4.66211C2.87109 3.85547 3.39062 3.33594 4.19727 3.33594L17.8008 3.33594C18.6074 3.33594 19.127 3.85547 19.127 4.66211L19.127 15.9551C19.127 16.7617 18.6074 17.2812 17.8008 17.2812ZM4.75781 15.7637L17.2266 15.7637C17.4453 15.7637 17.6094 15.6133 17.6094 15.3945L17.6094 5.22266C17.6094 5.00391 17.4453 4.85352 17.2266 4.85352L4.75781 4.85352C4.55273 4.85352 4.38867 5.00391 4.38867 5.22266L4.38867 15.3945C4.38867 15.6133 4.55273 15.7637 4.75781 15.7637ZM23.0918 14.2188L31.8691 14.2188L31.8691 2.87109C31.8691 1.14844 30.7617 0.0136719 29.1211 0.0136719L23.0918 0.0136719ZM25.3477 6.08398C25.1973 6.08398 25.0742 5.97461 25.0742 5.82422L25.0742 3.60938C25.0742 3.47266 25.1973 3.33594 25.3477 3.33594L29.4082 3.33594C29.5586 3.33594 29.6816 3.47266 29.6816 3.60938L29.6816 5.82422C29.6816 5.97461 29.5586 6.08398 29.4082 6.08398ZM25.7988 8.58594C25.375 8.58594 25.0742 8.29883 25.0742 7.875C25.0742 7.4375 25.375 7.15039 25.7988 7.15039L28.957 7.15039C29.3809 7.15039 29.6816 7.4375 29.6816 7.875C29.6816 8.29883 29.3809 8.58594 28.957 8.58594ZM25.7988 11.1016C25.375 11.1016 25.0742 10.8145 25.0742 10.377C25.0742 9.95312 25.375 9.67969 25.7988 9.67969L28.957 9.67969C29.3809 9.67969 29.6816 9.95312 29.6816 10.377C29.6816 10.8145 29.3809 11.1016 28.957 11.1016ZM23.0918 20.6035L29.1211 20.6035C30.7617 20.6035 31.8691 19.4688 31.8691 17.7461L31.8691 15.7363L23.0918 15.7363Z" fill="black" fill-opacity="0.85"/>
 </g>
</svg>
