<?xml version="1.0" encoding="UTF-8"?>
<!--Generator: Apple Native CoreSVG 326-->
<!DOCTYPE svg
PUBLIC "-//W3C//DTD SVG 1.1//EN"
       "http://www.w3.org/Graphics/SVG/1.1/DTD/svg11.dtd">
<svg version="1.1" xmlns="http://www.w3.org/2000/svg" xmlns:xlink="http://www.w3.org/1999/xlink" viewBox="0 0 32.7988 21.1504">
 <g>
  <rect height="21.1504" opacity="0" width="32.7988" x="0" y="0"/>
  <path d="M3.21289 21.1504L29.2305 21.1504C31.1582 21.1504 32.4434 19.8652 32.4434 17.9375L32.4434 3.22656C32.4434 1.29883 31.1582 0.0136719 29.2305 0.0136719L3.21289 0.0136719C1.28516 0.0136719 0 1.29883 0 3.22656L0 17.9375C0 19.8652 1.28516 21.1504 3.21289 21.1504ZM3.24023 18.9492C2.61133 18.9492 2.20117 18.5117 2.20117 17.8418L2.20117 3.32227C2.20117 2.65234 2.61133 2.21484 3.24023 2.21484L29.2031 2.21484C29.832 2.21484 30.2422 2.65234 30.2422 3.32227L30.2422 17.8418C30.2422 18.5117 29.832 18.9492 29.2031 18.9492ZM5.09961 17.3359L18.5527 17.3359C19.332 17.3359 19.8379 16.8301 19.8379 16.0508L19.8379 5.11328C19.8379 4.33398 19.332 3.82812 18.5527 3.82812L5.09961 3.82812C4.32031 3.82812 3.81445 4.33398 3.81445 5.11328L3.81445 16.0508C3.81445 16.8301 4.32031 17.3359 5.09961 17.3359ZM5.70117 15.8184C5.49609 15.8184 5.33203 15.668 5.33203 15.4492L5.33203 5.71484C5.33203 5.49609 5.49609 5.3457 5.70117 5.3457L17.9512 5.3457C18.1562 5.3457 18.3203 5.49609 18.3203 5.71484L18.3203 15.4492C18.3203 15.668 18.1562 15.8184 17.9512 15.8184ZM21.6016 19.9746L23.1191 19.9746L23.1191 1.17578L21.6016 1.17578ZM22.4355 15.4355L31.3633 15.4355L31.3633 13.918L22.4355 13.918ZM24.7051 6.49414L28.6562 6.49414C28.793 6.49414 28.916 6.38477 28.916 6.24805L28.916 4.08789C28.916 3.95117 28.793 3.82812 28.6562 3.82812L24.7051 3.82812C24.5684 3.82812 24.4453 3.95117 24.4453 4.08789L24.4453 6.24805C24.4453 6.38477 24.5684 6.49414 24.7051 6.49414ZM25.1426 8.77734L28.2188 8.77734C28.6289 8.77734 28.916 8.50391 28.916 8.09375C28.916 7.66992 28.6289 7.39648 28.2188 7.39648L25.1426 7.39648C24.7324 7.39648 24.4453 7.66992 24.4453 8.09375C24.4453 8.50391 24.7324 8.77734 25.1426 8.77734ZM25.1426 11.0879L28.2188 11.0879C28.6289 11.0879 28.916 10.8008 28.916 10.3906C28.916 9.98047 28.6289 9.70703 28.2188 9.70703L25.1426 9.70703C24.7324 9.70703 24.4453 9.98047 24.4453 10.3906C24.4453 10.8008 24.7324 11.0879 25.1426 11.0879Z" fill="black" fill-opacity="0.85"/>
 </g>
</svg>
