<?xml version="1.0" encoding="UTF-8"?>
<!--Generator: Apple Native CoreSVG 326-->
<!DOCTYPE svg
PUBLIC "-//W3C//DTD SVG 1.1//EN"
       "http://www.w3.org/Graphics/SVG/1.1/DTD/svg11.dtd">
<svg version="1.1" xmlns="http://www.w3.org/2000/svg" xmlns:xlink="http://www.w3.org/1999/xlink" viewBox="0 0 28.2461 27.9043">
 <g>
  <rect height="27.9043" opacity="0" width="28.2461" x="0" y="0"/>
  <path d="M13.9453 27.8906C21.6426 27.8906 27.8906 21.6289 27.8906 13.9453C27.8906 6.24805 21.6426 0 13.9453 0C6.26172 0 0 6.24805 0 13.9453C0 21.6289 6.26172 27.8906 13.9453 27.8906Z" fill="#ff9500"/>
  <path d="M10.3633 22.4082C9.95312 22.4082 9.59766 22.0664 9.59766 21.6562C9.59766 21.2461 9.95312 20.8906 10.3633 20.8906L13.1934 20.8906L13.1934 19.4688C10.3906 19.1543 8.50391 17.0215 8.50391 14.1504L8.50391 12.332C8.50391 11.9355 8.8457 11.5938 9.24219 11.5938C9.65234 11.5938 9.99414 11.9355 9.99414 12.332L9.99414 14.1504C9.99414 16.4609 11.6211 18.0879 13.9453 18.0879C16.2695 18.0879 17.9102 16.4609 17.9102 14.1504L17.9102 12.332C17.9102 11.9355 18.2383 11.5938 18.6484 11.5938C19.0449 11.5938 19.4004 11.9355 19.4004 12.332L19.4004 14.1504C19.4004 17.0215 17.5137 19.1406 14.7246 19.4688L14.7246 20.8906L17.541 20.8906C17.9512 20.8906 18.293 21.2461 18.293 21.6562C18.293 22.0527 17.9375 22.4082 17.541 22.4082ZM13.9453 16.666C12.5645 16.666 11.6074 15.5859 11.6074 14.1504L11.6074 8.10742C11.6074 6.68555 12.5645 5.63281 13.9453 5.63281C15.3262 5.63281 16.2832 6.68555 16.2832 8.10742L16.2832 14.1504C16.2832 15.5859 15.3262 16.666 13.9453 16.666Z" fill="white"/>
 </g>
</svg>
