<?xml version="1.0" encoding="UTF-8"?>
<!--Generator: Apple Native CoreSVG 326-->
<!DOCTYPE svg
PUBLIC "-//W3C//DTD SVG 1.1//EN"
       "http://www.w3.org/Graphics/SVG/1.1/DTD/svg11.dtd">
<svg version="1.1" xmlns="http://www.w3.org/2000/svg" xmlns:xlink="http://www.w3.org/1999/xlink" viewBox="0 0 28.998 28.6699">
 <g>
  <rect height="28.6699" opacity="0" width="28.998" x="0" y="0"/>
  <path d="M14.3008 22.9824C19.0859 22.9824 22.9688 19.0996 22.9688 14.3145C22.9688 9.54297 19.0859 5.66016 14.3008 5.66016C9.5293 5.66016 5.64648 9.54297 5.64648 14.3145C5.64648 19.0996 9.5293 22.9824 14.3008 22.9824ZM14.3281 2.84375C15.1074 2.84375 15.7363 2.21484 15.7363 1.42188C15.7363 0.628906 15.1074 0 14.3281 0C13.5352 0 12.9062 0.628906 12.9062 1.42188C12.9062 2.21484 13.5352 2.84375 14.3281 2.84375ZM20.7676 4.58008C21.5469 4.58008 22.1758 3.95117 22.1758 3.1582C22.1758 2.36523 21.5469 1.73633 20.7676 1.73633C19.9746 1.73633 19.3457 2.36523 19.3457 3.1582C19.3457 3.95117 19.9746 4.58008 20.7676 4.58008ZM25.498 9.29688C26.2773 9.29688 26.9062 8.66797 26.9062 7.875C26.9062 7.08203 26.2773 6.45312 25.498 6.45312C24.7051 6.45312 24.0762 7.08203 24.0762 7.875C24.0762 8.66797 24.7051 9.29688 25.498 9.29688ZM27.2344 15.75C28.0137 15.75 28.6426 15.1211 28.6426 14.3281C28.6426 13.5352 28.0137 12.9062 27.2344 12.9062C26.4414 12.9062 25.8125 13.5352 25.8125 14.3281C25.8125 15.1211 26.4414 15.75 27.2344 15.75ZM25.498 22.2031C26.2773 22.2031 26.9062 21.5742 26.9062 20.7812C26.9062 19.9883 26.2773 19.3594 25.498 19.3594C24.7051 19.3594 24.0762 19.9883 24.0762 20.7812C24.0762 21.5742 24.7051 22.2031 25.498 22.2031ZM20.7676 26.9199C21.5469 26.9199 22.1758 26.291 22.1758 25.498C22.1758 24.7051 21.5469 24.0762 20.7676 24.0762C19.9746 24.0762 19.3457 24.7051 19.3457 25.498C19.3457 26.291 19.9746 26.9199 20.7676 26.9199ZM14.3281 28.6562C15.1074 28.6562 15.7363 28.0137 15.7363 27.2344C15.7363 26.4414 15.1074 25.8125 14.3281 25.8125C13.5352 25.8125 12.9062 26.4414 12.9062 27.2344C12.9062 28.0137 13.5352 28.6562 14.3281 28.6562ZM7.88867 26.9199C8.66797 26.9199 9.31055 26.291 9.31055 25.498C9.31055 24.7051 8.66797 24.0762 7.88867 24.0762C7.0957 24.0762 6.4668 24.7051 6.4668 25.498C6.4668 26.291 7.0957 26.9199 7.88867 26.9199ZM3.1582 22.2031C3.9375 22.2031 4.58008 21.5742 4.58008 20.7812C4.58008 19.9883 3.9375 19.3594 3.1582 19.3594C2.36523 19.3594 1.73633 19.9883 1.73633 20.7812C1.73633 21.5742 2.36523 22.2031 3.1582 22.2031ZM1.42188 15.75C2.21484 15.75 2.84375 15.1211 2.84375 14.3281C2.84375 13.5352 2.21484 12.9062 1.42188 12.9062C0.628906 12.9062 0 13.5352 0 14.3281C0 15.1211 0.628906 15.75 1.42188 15.75ZM3.1582 9.29688C3.9375 9.29688 4.58008 8.66797 4.58008 7.875C4.58008 7.08203 3.9375 6.45312 3.1582 6.45312C2.36523 6.45312 1.73633 7.08203 1.73633 7.875C1.73633 8.66797 2.36523 9.29688 3.1582 9.29688ZM7.88867 4.58008C8.66797 4.58008 9.31055 3.95117 9.31055 3.1582C9.31055 2.36523 8.66797 1.73633 7.88867 1.73633C7.0957 1.73633 6.4668 2.36523 6.4668 3.1582C6.4668 3.95117 7.0957 4.58008 7.88867 4.58008Z" fill="black" fill-opacity="0.85"/>
 </g>
</svg>
