<?xml version="1.0" encoding="UTF-8"?>
<!--Generator: Apple Native CoreSVG 326-->
<!DOCTYPE svg
PUBLIC "-//W3C//DTD SVG 1.1//EN"
       "http://www.w3.org/Graphics/SVG/1.1/DTD/svg11.dtd">
<svg version="1.1" xmlns="http://www.w3.org/2000/svg" xmlns:xlink="http://www.w3.org/1999/xlink" viewBox="0 0 28.2461 27.9043">
 <g>
  <rect height="27.9043" opacity="0" width="28.2461" x="0" y="0"/>
  <path d="M13.9453 27.8906C21.6426 27.8906 27.8906 21.6289 27.8906 13.9453C27.8906 6.24805 21.6426 0 13.9453 0C6.26172 0 0 6.24805 0 13.9453C0 21.6289 6.26172 27.8906 13.9453 27.8906Z" fill="#ff9500"/>
  <path d="M9.28875 11.5962L9.99238 12.299C9.99387 12.3099 9.99414 12.3209 9.99414 12.332L9.99414 14.1504C9.99414 16.4609 11.6211 18.0879 13.9453 18.0879C14.5121 18.0879 15.0383 17.9911 15.509 17.8098L16.6122 18.9119C16.0485 19.1971 15.4141 19.3876 14.7246 19.4688L14.7246 20.8906L17.541 20.8906C17.9512 20.8906 18.293 21.2461 18.293 21.6562C18.293 22.0527 17.9375 22.4082 17.541 22.4082L10.3633 22.4082C9.95312 22.4082 9.59766 22.0664 9.59766 21.6562C9.59766 21.2461 9.95312 20.8906 10.3633 20.8906L13.1934 20.8906L13.1934 19.4688C10.3906 19.1543 8.50391 17.0215 8.50391 14.1504L8.50391 12.332C8.50391 11.9355 8.8457 11.5938 9.24219 11.5938C9.25788 11.5938 9.27348 11.5943 9.28875 11.5962ZM7.94336 7.01367L20.877 19.9609C21.123 20.207 21.123 20.6035 20.877 20.8633C20.6309 21.1094 20.207 21.0957 19.9746 20.8633L7.02734 7.91602C6.79492 7.68359 6.78125 7.27344 7.02734 7.01367C7.28711 6.76758 7.69727 6.76758 7.94336 7.01367ZM14.3314 16.6335C14.2079 16.656 14.0786 16.666 13.9453 16.666C12.5645 16.666 11.6074 15.5859 11.6074 14.1504L11.6074 13.9124ZM19.4004 12.332L19.4004 14.1504C19.4004 15.0341 19.2217 15.8465 18.8916 16.5566L17.7338 15.4C17.8495 15.0137 17.9102 14.5947 17.9102 14.1504L17.9102 12.332C17.9102 11.9355 18.2383 11.5938 18.6484 11.5938C19.0449 11.5938 19.4004 11.9355 19.4004 12.332ZM16.2832 8.10742L16.2832 13.9509L11.6074 9.28008L11.6074 8.10742C11.6074 6.68555 12.5645 5.63281 13.9453 5.63281C15.3262 5.63281 16.2832 6.68555 16.2832 8.10742Z" fill="white"/>
 </g>
</svg>
