<?xml version="1.0" encoding="UTF-8"?>
<!--Generator: Apple Native CoreSVG 326-->
<!DOCTYPE svg
PUBLIC "-//W3C//DTD SVG 1.1//EN"
       "http://www.w3.org/Graphics/SVG/1.1/DTD/svg11.dtd">
<svg version="1.1" xmlns="http://www.w3.org/2000/svg" xmlns:xlink="http://www.w3.org/1999/xlink" viewBox="0 0 29.1211 31.2129">
 <g>
  <rect height="31.2129" opacity="0" width="29.1211" x="0" y="0"/>
  <path d="M2.29688 7.20508C3.55469 7.20508 4.58008 6.17969 4.58008 4.92188C4.58008 3.65039 3.55469 2.625 2.29688 2.625C1.02539 2.625 0 3.65039 0 4.92188C0 6.17969 1.02539 7.20508 2.29688 7.20508Z" fill="#ff9500"/>
  <path d="M2.29688 14.3145C3.55469 14.3145 4.58008 13.2891 4.58008 12.0312C4.58008 10.7598 3.55469 9.73438 2.29688 9.73438C1.02539 9.73438 0 10.7598 0 12.0312C0 13.2891 1.02539 14.3145 2.29688 14.3145Z" fill="#ff9500"/>
  <path d="M2.29688 21.4512C3.55469 21.4512 4.58008 20.4258 4.58008 19.168C4.58008 17.8965 3.55469 16.8711 2.29688 16.8711C1.02539 16.8711 0 17.8965 0 19.168C0 20.4258 1.02539 21.4512 2.29688 21.4512Z" fill="#ff9500"/>
  <path d="M2.29688 28.5605C3.55469 28.5605 4.58008 27.5352 4.58008 26.2773C4.58008 25.0059 3.55469 23.9805 2.29688 23.9805C1.02539 23.9805 0 25.0059 0 26.2773C0 27.5352 1.02539 28.5605 2.29688 28.5605Z" fill="#ff9500"/>
  <path d="M9.20117 14.4512C9.20117 19.8105 12.7285 23.5703 17.9512 24.0078L17.9512 27.1934L12.8789 27.1934C12.3047 27.1934 11.8398 27.6582 11.8398 28.2324C11.8398 28.8066 12.3047 29.2578 12.8789 29.2578L25.0879 29.2578C25.6621 29.2578 26.127 28.8066 26.127 28.2324C26.127 27.6582 25.6621 27.1934 25.0879 27.1934L20.0156 27.1934L20.0156 24.0078C25.2246 23.5703 28.7656 19.8105 28.7656 14.4512L28.7656 11.6758C28.7656 11.1016 28.3145 10.6504 27.7266 10.6504C27.1523 10.6504 26.7012 11.1016 26.7012 11.6758L26.7012 14.3691C26.7012 19.0312 23.666 22.1211 18.9766 22.1211C14.3008 22.1211 11.2656 19.0312 11.2656 14.3691L11.2656 11.6758C11.2656 11.1016 10.8008 10.6504 10.2266 10.6504C9.65234 10.6504 9.20117 11.1016 9.20117 11.6758ZM14.0137 13.959C14.0137 17.1035 16.0371 19.3184 18.9766 19.3184C21.9297 19.3184 23.9531 17.1035 23.9531 13.959L23.9531 5.35938C23.9531 2.20117 21.9297 0 18.9766 0C16.0371 0 14.0137 2.20117 14.0137 5.35938ZM16.0781 13.959L16.0781 5.35938C16.0781 3.33594 17.2266 2.03711 18.9766 2.03711C20.7266 2.03711 21.8887 3.33594 21.8887 5.35938L21.8887 13.959C21.8887 15.9824 20.7266 17.2812 18.9766 17.2812C17.2266 17.2812 16.0781 15.9824 16.0781 13.959Z" fill="#ff9500"/>
 </g>
</svg>
