<?xml version="1.0" encoding="UTF-8"?>
<!--Generator: Apple Native CoreSVG 326-->
<!DOCTYPE svg
PUBLIC "-//W3C//DTD SVG 1.1//EN"
       "http://www.w3.org/Graphics/SVG/1.1/DTD/svg11.dtd">
<svg version="1.1" xmlns="http://www.w3.org/2000/svg" xmlns:xlink="http://www.w3.org/1999/xlink" viewBox="0 0 28.2461 27.9043">
 <g>
  <rect height="27.9043" opacity="0" width="28.2461" x="0" y="0"/>
  <path d="M13.9453 27.8906C21.6426 27.8906 27.8906 21.6426 27.8906 13.9453C27.8906 6.24805 21.6426 0 13.9453 0C6.24805 0 0 6.24805 0 13.9453C0 21.6426 6.24805 27.8906 13.9453 27.8906ZM13.9453 25.5664C7.51953 25.5664 2.32422 20.3711 2.32422 13.9453C2.32422 7.51953 7.51953 2.32422 13.9453 2.32422C20.3711 2.32422 25.5664 7.51953 25.5664 13.9453C25.5664 20.3711 20.3711 25.5664 13.9453 25.5664Z" fill="#ff9500"/>
  <path d="M10.459 22.1621L17.418 22.1621C17.8008 22.1621 18.1426 21.8066 18.1426 21.4238C18.1426 21.0273 17.8145 20.6855 17.418 20.6855L14.6836 20.6855L14.6836 19.3047C17.3906 18.9902 19.2227 16.9258 19.2227 14.1504L19.2227 12.3867C19.2227 12.0039 18.8809 11.6758 18.498 11.6758C18.1016 11.6758 17.7734 12.0039 17.7734 12.3867L17.7734 14.1504C17.7734 16.3926 16.1875 17.9648 13.9316 17.9648C11.6758 17.9648 10.1035 16.3926 10.1035 14.1504L10.1035 12.3867C10.1035 12.0039 9.76172 11.6758 9.36523 11.6758C8.98242 11.6758 8.6543 12.0039 8.6543 12.3867L8.6543 14.1504C8.6543 16.9258 10.4863 19.0039 13.207 19.3047L13.207 20.6855L10.459 20.6855C10.0625 20.6855 9.7207 21.0273 9.7207 21.4238C9.7207 21.8203 10.0625 22.1621 10.459 22.1621ZM13.9316 16.584C15.2715 16.584 16.2012 15.5449 16.2012 14.1504L16.2012 8.28516C16.2012 6.9043 15.2715 5.87891 13.9316 5.87891C12.5918 5.87891 11.6621 6.9043 11.6621 8.28516L11.6621 14.1504C11.6621 15.5449 12.5918 16.584 13.9316 16.584Z" fill="#ff9500"/>
 </g>
</svg>
