<?xml version="1.0" encoding="UTF-8"?>
<!--Generator: Apple Native CoreSVG 326-->
<!DOCTYPE svg
PUBLIC "-//W3C//DTD SVG 1.1//EN"
       "http://www.w3.org/Graphics/SVG/1.1/DTD/svg11.dtd">
<svg version="1.1" xmlns="http://www.w3.org/2000/svg" xmlns:xlink="http://www.w3.org/1999/xlink" viewBox="0 0 33.5408 27.9043">
 <g>
  <rect height="27.9043" opacity="0" width="33.5408" x="0" y="0"/>
  <path d="M16.5995 27.8906C24.2968 27.8906 30.5448 21.6426 30.5448 13.9453C30.5448 6.24805 24.2968 0 16.5995 0C8.90224 0 2.65419 6.24805 2.65419 13.9453L4.97841 13.9453C4.97841 7.51953 10.1737 2.32422 16.5995 2.32422C23.0253 2.32422 28.2206 7.51953 28.2206 13.9453C28.2206 20.3711 23.0253 25.5664 16.5995 25.5664C12.7167 25.5664 9.2577 23.6523 7.19325 20.7539C6.76942 20.1934 6.12684 20.0156 5.55263 20.3574C5.00575 20.6992 4.84169 21.4648 5.30653 22.0664C7.83583 25.6074 11.9784 27.8906 16.5995 27.8906ZM0.972548 11.3066C-0.0118272 11.3066-0.257921 11.9766 0.275282 12.7422L3.33778 17.0898C3.78895 17.7188 4.4452 17.7051 4.8827 17.0898L7.93153 12.7285C8.46474 11.9766 8.20497 11.3066 7.24794 11.3066Z" fill="black" fill-opacity="0.85"/>
  <path d="M12.2929 18.4023C12.7714 18.4023 13.0175 18.0742 13.0175 17.6641L13.0175 12.7012C13.0175 11.6621 13.496 10.6504 14.5624 10.6504C15.5331 10.6504 15.9296 11.3887 15.9296 12.3184L15.9296 17.6641C15.9296 18.0879 16.2167 18.4023 16.6132 18.4023C17.0507 18.4023 17.3378 18.0879 17.3378 17.6641L17.3378 12.6055C17.3378 11.6074 17.83 10.6504 18.869 10.6504C19.8808 10.6504 20.2499 11.4297 20.2499 12.4414L20.2499 17.6641C20.2499 18.0879 20.537 18.4023 20.9608 18.4023C21.3983 18.4023 21.6854 18.0879 21.6854 17.6641L21.6854 12.0859C21.6854 10.582 20.9472 9.35156 19.2929 9.35156C18.1444 9.35156 17.2831 10.0352 17.0643 11.0332L17.0097 11.0332C16.7772 9.95312 16.08 9.35156 14.9725 9.35156C13.9061 9.35156 13.2362 10.0215 13.0038 10.9922L12.9491 10.9922L12.9491 10.0898C12.9491 9.65234 12.6893 9.36523 12.2655 9.36523C11.8417 9.36523 11.5819 9.65234 11.5819 10.0898L11.5819 17.6641C11.5819 18.0742 11.828 18.4023 12.2929 18.4023ZM12.6893 21.8477C12.9218 21.8477 13.0311 21.7383 13.1405 21.4922L19.5936 6.72656C19.6347 6.64453 19.6483 6.54883 19.6483 6.4668C19.6483 6.20703 19.4706 6.04297 19.2108 6.04297C18.9784 6.04297 18.8554 6.19336 18.7597 6.39844L12.3065 21.1641C12.2655 21.2598 12.2518 21.3418 12.2518 21.4375C12.2518 21.6836 12.4296 21.8477 12.6893 21.8477Z" fill="black" fill-opacity="0.85"/>
 </g>
</svg>
