<?xml version="1.0" encoding="UTF-8"?>
<!--Generator: Apple Native CoreSVG 326-->
<!DOCTYPE svg
PUBLIC "-//W3C//DTD SVG 1.1//EN"
       "http://www.w3.org/Graphics/SVG/1.1/DTD/svg11.dtd">
<svg version="1.1" xmlns="http://www.w3.org/2000/svg" xmlns:xlink="http://www.w3.org/1999/xlink" viewBox="0 0 30.9258 30.584">
 <g>
  <rect height="30.584" opacity="0" width="30.9258" x="0" y="0"/>
  <path d="M15.2852 30.5703C23.6797 30.5703 30.5703 23.6797 30.5703 15.2852C30.5703 6.89062 23.6797 0 15.2852 0C6.89062 0 0 6.89062 0 15.2852C0 23.6797 6.89062 30.5703 15.2852 30.5703ZM15.2852 25.4844C9.65234 25.4844 5.08594 20.918 5.08594 15.2852C5.08594 9.63867 9.65234 5.08594 15.2852 5.08594C20.9316 5.08594 25.4844 9.63867 25.4844 15.2852C25.4844 20.918 20.9316 25.4844 15.2852 25.4844Z" fill="black" fill-opacity="0.85"/>
  <path d="M10.9785 19.7422C11.457 19.7422 11.7031 19.4141 11.7031 19.0039L11.7031 14.041C11.7031 13.002 12.1953 11.9902 13.248 11.9902C14.2188 11.9902 14.6152 12.7285 14.6152 13.6582L14.6152 19.0039C14.6152 19.4277 14.9023 19.7422 15.2988 19.7422C15.7363 19.7422 16.0234 19.4277 16.0234 19.0039L16.0234 13.9453C16.0234 12.9473 16.5156 11.9902 17.5547 11.9902C18.5801 11.9902 18.9355 12.7695 18.9355 13.7812L18.9355 19.0039C18.9355 19.4277 19.2227 19.7422 19.6465 19.7422C20.084 19.7422 20.3711 19.4277 20.3711 19.0039L20.3711 13.4258C20.3711 11.9219 19.6328 10.6914 17.9785 10.6914C16.8301 10.6914 15.9824 11.375 15.75 12.373L15.6953 12.373C15.4629 11.293 14.7793 10.6914 13.6582 10.6914C12.5918 10.6914 11.9219 11.3613 11.6895 12.332L11.6348 12.332L11.6348 11.4297C11.6348 10.9922 11.375 10.7051 10.9512 10.7051C10.5273 10.7051 10.2676 10.9922 10.2676 11.4297L10.2676 19.0039C10.2676 19.4141 10.5137 19.7422 10.9785 19.7422ZM11.375 23.1875C11.6074 23.1875 11.7168 23.0781 11.8262 22.832L18.2793 8.06641C18.3203 7.98438 18.334 7.88867 18.334 7.80664C18.334 7.54688 18.1562 7.38281 17.8965 7.38281C17.6641 7.38281 17.541 7.5332 17.4453 7.73828L10.9922 22.5039C10.9512 22.5996 10.9375 22.6816 10.9375 22.7773C10.9375 23.0234 11.1289 23.1875 11.375 23.1875Z" fill="black" fill-opacity="0.85"/>
 </g>
</svg>
