<?xml version="1.0" encoding="UTF-8"?>
<!--Generator: Apple Native CoreSVG 326-->
<!DOCTYPE svg
PUBLIC "-//W3C//DTD SVG 1.1//EN"
       "http://www.w3.org/Graphics/SVG/1.1/DTD/svg11.dtd">
<svg version="1.1" xmlns="http://www.w3.org/2000/svg" xmlns:xlink="http://www.w3.org/1999/xlink" viewBox="0 0 32.5938 30.4199">
 <g>
  <rect height="30.4199" opacity="0" width="32.5938" x="0" y="0"/>
  <path d="M21.9023 7.04102L10.3086 7.04102L10.3086 5.52344C10.3086 4.58008 9.77539 4.04688 8.83203 4.04688L6.125 4.04688C5.19531 4.04688 4.66211 4.58008 4.66211 5.52344L4.66211 7.04102L4.29297 7.04102C1.43555 7.04102 0 8.46289 0 11.2793L0 22.6953C0 25.5254 1.43555 26.9336 4.29297 26.9336L27.9453 26.9336C30.8027 26.9336 32.2383 25.5117 32.2383 22.6953L32.2383 11.2793C32.2383 8.46289 30.7891 7.04102 27.9316 7.04102L27.5352 7.04102L27.5352 5.52344C27.5352 4.58008 27.002 4.04688 26.0723 4.04688L23.3652 4.04688C22.4355 4.04688 21.9023 4.58008 21.9023 5.52344ZM5.12695 18.0059C4.64844 18.0059 4.2793 17.6094 4.2793 17.1309C4.2793 16.666 4.64844 16.2832 5.12695 16.2832L9.58398 16.2832C10.0625 16.2832 10.4453 16.666 10.4453 17.1309C10.4453 17.6094 10.0625 18.0059 9.58398 18.0059ZM16.1465 20.877C15.1211 20.877 14.2598 20.0293 14.2598 19.0586C14.2598 18.0469 15.1074 17.2539 16.1465 17.2539C17.1992 17.2539 18.0469 18.0469 18.0469 19.0586C18.0469 20.0293 17.1855 20.877 16.1465 20.877ZM24.2676 20.4805C23.7891 20.4805 23.4199 20.1113 23.4199 19.6055L23.4199 18.0059L21.8066 18.0059C21.3145 18.0059 20.918 17.623 20.918 17.1445C20.918 16.6797 21.3008 16.2832 21.8066 16.2832L23.4199 16.2832L23.4199 14.6836C23.4199 14.1777 23.7891 13.8086 24.2676 13.8086C24.7461 13.8086 25.1289 14.1777 25.1289 14.6836L25.1289 16.2832L26.7285 16.2832C27.2207 16.2832 27.6172 16.6797 27.6172 17.1445C27.6172 17.623 27.2207 18.0059 26.7285 18.0059L25.1289 18.0059L25.1289 19.6055C25.1289 20.1113 24.7461 20.4805 24.2676 20.4805ZM16.1465 14.9297C15.4492 14.9297 14.9434 14.4102 14.916 13.6855L14.6152 1.53125C14.5879 0.615234 15.2031 0 16.1465 0C17.1035 0 17.7188 0.615234 17.6914 1.53125L17.3906 13.6855C17.3633 14.4102 16.8574 14.9297 16.1465 14.9297Z" fill="#ff3b30"/>
 </g>
</svg>
