<?xml version="1.0" encoding="UTF-8"?>
<!--Generator: Apple Native CoreSVG 326-->
<!DOCTYPE svg
PUBLIC "-//W3C//DTD SVG 1.1//EN"
       "http://www.w3.org/Graphics/SVG/1.1/DTD/svg11.dtd">
<svg version="1.1" xmlns="http://www.w3.org/2000/svg" xmlns:xlink="http://www.w3.org/1999/xlink" viewBox="0 0 39.7031 30.3105">
 <g>
  <rect height="30.3105" opacity="0" width="39.7031" x="0" y="0"/>
  <path d="M39.3477 15.2305L39.3477 28.0957C39.3477 29.3262 38.5684 30.0234 37.2285 30.0234L10.4863 30.0234C9.23022 30.0234 8.4945 29.383 8.47823 28.2461L36.832 28.2461C37.2969 28.2461 37.5566 28.0137 37.5566 27.5352L37.5566 13.4189C38.6895 13.4869 39.3477 14.1332 39.3477 15.2305Z" fill="#ff3b30"/>
  <path d="M35.8477 10.3086L35.8477 24.6094C35.8477 25.8398 35.0684 26.5371 33.7285 26.5371L6.11133 26.5371C4.82617 26.5371 4.08789 25.8809 4.08789 24.7188L4.08789 24.5957L33.168 24.5957C33.6328 24.5957 33.8926 24.3633 33.8926 23.8848L33.8926 8.49163C35.1258 8.50525 35.8477 9.17297 35.8477 10.3086Z" fill="#ff3b30"/>
  <path d="M4.29297 22.5312L27.5488 22.5312C30.8711 22.5312 31.8418 21.5879 31.8418 18.293L31.8418 7.24609C31.8418 4.42969 30.3789 3.00781 27.5352 3.00781L26.3457 3.00781L26.3457 1.47656C26.3457 0.546875 25.7988 0 24.8691 0L22.0254 0C21.0957 0 20.5625 0.546875 20.5625 1.47656L20.5625 3.00781L11.2793 3.00781L11.2793 1.47656C11.2793 0.546875 10.7461 0 9.80273 0L6.95898 0C6.0293 0 5.49609 0.546875 5.49609 1.47656L5.49609 3.00781L4.29297 3.00781C1.43555 3.00781 0 4.42969 0 7.24609L0 18.293C0 21.123 1.43555 22.5312 4.29297 22.5312ZM4.32031 20.3301C2.95312 20.3301 2.20117 19.5918 2.20117 18.1836L2.20117 7.35547C2.20117 5.94727 2.98047 5.20898 4.32031 5.20898L27.4941 5.20898C28.8477 5.20898 29.627 5.94727 29.627 7.35547L29.627 18.1836C29.627 19.8379 29.1484 20.3301 27.5078 20.3301Z" fill="#ff3b30"/>
  <path d="M6.71289 13.6445L11.6211 13.6445C12.1133 13.6445 12.5234 13.2344 12.5234 12.7285C12.5234 12.2363 12.1133 11.8398 11.6211 11.8398L6.71289 11.8398C6.20703 11.8398 5.81055 12.2363 5.81055 12.7285C5.81055 13.2344 6.20703 13.6445 6.71289 13.6445ZM22.668 16.4062C23.1738 16.4062 23.5703 16.0098 23.5703 15.5039L23.5703 13.6445L25.4434 13.6445C25.9355 13.6445 26.3457 13.2344 26.3457 12.7285C26.3457 12.2363 25.9355 11.8398 25.4434 11.8398L23.5703 11.8398L23.5703 9.9668C23.5703 9.46094 23.1738 9.07812 22.668 9.07812C22.1621 9.07812 21.7793 9.46094 21.7793 9.9668L21.7793 11.8398L19.8926 11.8398C19.4004 11.8398 19.0039 12.2363 19.0039 12.7285C19.0039 13.2344 19.4004 13.6445 19.8926 13.6445L21.7793 13.6445L21.7793 15.5039C21.7793 16.0098 22.1621 16.4062 22.668 16.4062Z" fill="#ff3b30"/>
 </g>
</svg>
