<?xml version="1.0" encoding="UTF-8"?>
<!--Generator: Apple Native CoreSVG 326-->
<!DOCTYPE svg
PUBLIC "-//W3C//DTD SVG 1.1//EN"
       "http://www.w3.org/Graphics/SVG/1.1/DTD/svg11.dtd">
<svg version="1.1" xmlns="http://www.w3.org/2000/svg" xmlns:xlink="http://www.w3.org/1999/xlink" viewBox="0 0 39.7031 39.7715">
 <g>
  <rect height="39.7715" opacity="0" width="39.7031" x="0" y="0"/>
  <path d="M39.3477 19.9609L39.3477 32.8262C39.3477 34.0566 38.5684 34.7539 37.2285 34.7539L10.4863 34.7539C9.23022 34.7539 8.4945 34.1134 8.47823 32.9766L36.832 32.9766C37.2969 32.9766 37.5566 32.7441 37.5566 32.2656L37.5566 18.1494C38.6895 18.2174 39.3477 18.8637 39.3477 19.9609Z" fill="#ff3b30"/>
  <path d="M35.8477 15.0391L35.8477 29.3398C35.8477 30.5703 35.0684 31.2676 33.7285 31.2676L6.11133 31.2676C4.82617 31.2676 4.08789 30.6113 4.08789 29.4492L4.08789 29.3262L33.168 29.3262C33.6328 29.3262 33.8926 29.0938 33.8926 28.6152L33.8926 13.2221C35.1258 13.2357 35.8477 13.9034 35.8477 15.0391Z" fill="#ff3b30"/>
  <path d="M4.29297 27.2617L27.5488 27.2617C30.8711 27.2617 31.8418 26.3184 31.8418 23.0234L31.8418 11.9766C31.8418 9.16016 30.3789 7.73828 27.5352 7.73828L27.1387 7.73828L27.1387 6.20703C27.1387 5.27734 26.6055 4.73047 25.6621 4.73047L22.9688 4.73047C22.0254 4.73047 21.4922 5.27734 21.4922 6.20703L21.4922 7.73828L10.3086 7.73828L10.3086 6.20703C10.3086 5.27734 9.77539 4.73047 8.83203 4.73047L6.125 4.73047C5.19531 4.73047 4.66211 5.27734 4.66211 6.20703L4.66211 7.73828L4.29297 7.73828C1.43555 7.73828 0 9.16016 0 11.9766L0 23.0234C0 25.8535 1.43555 27.2617 4.29297 27.2617ZM4.59375 18.334C4.11523 18.334 3.74609 17.9375 3.74609 17.459C3.74609 16.9941 4.11523 16.6113 4.59375 16.6113L9.06445 16.6113C9.5293 16.6113 9.91211 16.9941 9.91211 17.459C9.91211 17.9375 9.5293 18.334 9.06445 18.334ZM24.9238 20.8086C24.4453 20.8086 24.0762 20.4395 24.0762 19.9336L24.0762 18.334L22.4629 18.334C21.9844 18.334 21.5879 17.9375 21.5879 17.459C21.5879 16.9941 21.9707 16.6113 22.4629 16.6113L24.0762 16.6113L24.0762 15.0117C24.0762 14.5059 24.4453 14.123 24.9238 14.123C25.416 14.123 25.7988 14.5059 25.7988 15.0117L25.7988 16.6113L27.3984 16.6113C27.877 16.6113 28.2734 16.9941 28.2734 17.459C28.2734 17.9375 27.877 18.334 27.3984 18.334L25.7988 18.334L25.7988 19.9336C25.7988 20.4395 25.416 20.8086 24.9238 20.8086ZM16.0371 15.1074C15.3125 15.1074 14.793 14.5742 14.752 13.8223L14.4512 1.58594C14.4238 0.628906 15.0527 0 16.0371 0C17.0215 0 17.6641 0.628906 17.6367 1.58594L17.3223 13.8223C17.2949 14.5742 16.7754 15.1074 16.0371 15.1074ZM16.0371 21.2461C14.9707 21.2461 14.082 20.3711 14.082 19.373C14.082 18.3203 14.957 17.4863 16.0371 17.4863C17.1309 17.4863 18.0059 18.3203 18.0059 19.373C18.0059 20.3711 17.1172 21.2461 16.0371 21.2461Z" fill="#ff3b30"/>
 </g>
</svg>
