<?xml version="1.0" encoding="UTF-8"?>
<!--Generator: Apple Native CoreSVG 326-->
<!DOCTYPE svg
PUBLIC "-//W3C//DTD SVG 1.1//EN"
       "http://www.w3.org/Graphics/SVG/1.1/DTD/svg11.dtd">
<svg version="1.1" xmlns="http://www.w3.org/2000/svg" xmlns:xlink="http://www.w3.org/1999/xlink" viewBox="0 0 39.7031 42.8613">
 <g>
  <rect height="42.8613" opacity="0" width="39.7031" x="0" y="0"/>
  <path d="M39.3477 21.5059L39.3477 34.3711C39.3477 35.6016 38.5684 36.2988 37.2285 36.2988L10.4863 36.2988C9.23022 36.2988 8.4945 35.6584 8.47823 34.5215L36.832 34.5215C37.2969 34.5215 37.5566 34.2891 37.5566 33.8105L37.5566 19.6943C38.6895 19.7623 39.3477 20.4086 39.3477 21.5059Z" fill="#ff3b30"/>
  <path d="M35.8477 16.584L35.8477 30.8848C35.8477 32.1152 35.0684 32.8125 33.7285 32.8125L6.11133 32.8125C4.82617 32.8125 4.08789 32.1562 4.08789 30.9941L4.08789 30.8711L33.168 30.8711C33.6328 30.8711 33.8926 30.6387 33.8926 30.1602L33.8926 14.767C35.1258 14.7806 35.8477 15.4484 35.8477 16.584Z" fill="#ff3b30"/>
  <path d="M10.3086 7.75195L10.3086 9.2832L12.7872 9.2832L12.8404 11.4844L4.32031 11.4844C2.98047 11.4844 2.20117 12.2227 2.20117 13.6309L2.20117 24.459C2.20117 25.8672 2.95312 26.6055 4.32031 26.6055L27.5078 26.6055C29.1484 26.6055 29.627 26.1133 29.627 24.459L29.627 13.6309C29.627 12.2227 28.8477 11.4844 27.4941 11.4844L19.2475 11.4844L19.3007 9.2832L21.4922 9.2832L21.4922 7.75195C21.4922 6.82227 22.0254 6.27539 22.9688 6.27539L25.6621 6.27539C26.6055 6.27539 27.1387 6.82227 27.1387 7.75195L27.1387 9.2832L27.5352 9.2832C30.3789 9.2832 31.8418 10.7051 31.8418 13.5215L31.8418 24.5684C31.8418 27.8633 30.8711 28.8066 27.5488 28.8066L4.29297 28.8066C1.43555 28.8066 0 27.3984 0 24.5684L0 13.5215C0 10.7051 1.43555 9.2832 4.29297 9.2832L4.66211 9.2832L4.66211 7.75195C4.66211 6.82227 5.19531 6.27539 6.125 6.27539L8.83203 6.27539C9.77539 6.27539 10.3086 6.82227 10.3086 7.75195ZM24.8281 16.625L24.8281 18.1836L26.3867 18.1836C26.8516 18.1836 27.2344 18.5527 27.2344 19.0039C27.2344 19.4688 26.8516 19.8516 26.3867 19.8516L24.8281 19.8516L24.8281 21.4102C24.8281 21.8887 24.459 22.2441 23.9941 22.2441C23.5293 22.2441 23.1738 21.8887 23.1738 21.4102L23.1738 19.8516L21.6016 19.8516C21.1367 19.8516 20.7539 19.4688 20.7539 19.0039C20.7539 18.5527 21.123 18.1836 21.6016 18.1836L23.1738 18.1836L23.1738 16.625C23.1738 16.1465 23.5293 15.7773 23.9941 15.7773C24.459 15.7773 24.8281 16.1465 24.8281 16.625ZM10.623 19.0039C10.623 19.4688 10.2402 19.8516 9.78906 19.8516L5.46875 19.8516C5.00391 19.8516 4.64844 19.4688 4.64844 19.0039C4.64844 18.5527 5.00391 18.1836 5.46875 18.1836L9.78906 18.1836C10.2402 18.1836 10.623 18.5527 10.623 19.0039Z" fill="#ff3b30"/>
  <path d="M16.0371 16.8027C16.748 16.8027 17.2539 16.2832 17.2812 15.5586L17.582 3.4043C17.6094 2.48828 16.9941 1.87305 16.0371 1.87305C15.0938 1.87305 14.4785 2.48828 14.5059 3.4043L14.8066 15.5586C14.834 16.2832 15.3398 16.8027 16.0371 16.8027ZM16.0371 22.75C17.0762 22.75 17.9375 21.9023 17.9375 20.9316C17.9375 19.9199 17.0898 19.1133 16.0371 19.1133C14.998 19.1133 14.1504 19.9199 14.1504 20.9316C14.1504 21.9023 15.0117 22.75 16.0371 22.75Z" fill="#ff3b30"/>
 </g>
</svg>
