<?xml version="1.0" encoding="UTF-8"?>
<!--Generator: Apple Native CoreSVG 326-->
<!DOCTYPE svg
PUBLIC "-//W3C//DTD SVG 1.1//EN"
       "http://www.w3.org/Graphics/SVG/1.1/DTD/svg11.dtd">
<svg version="1.1" xmlns="http://www.w3.org/2000/svg" xmlns:xlink="http://www.w3.org/1999/xlink" viewBox="0 0 32.5938 23.4473">
 <g>
  <rect height="23.4473" opacity="0" width="32.5938" x="0" y="0"/>
  <path d="M4.29297 23.4473L27.9453 23.4473C30.8164 23.4473 32.2383 22.0254 32.2383 19.209L32.2383 7.73828C32.2383 4.93555 30.8164 3.51367 27.9453 3.51367L26.4277 3.51367L26.4277 1.68164C26.4277 0.642578 25.8262 0.0136719 24.7734 0.0136719L22.0391 0.0136719C21 0.0136719 20.3984 0.642578 20.3984 1.68164L20.3984 3.51367L11.8535 3.51367L11.8535 1.68164C11.8535 0.642578 11.252 0.0136719 10.1992 0.0136719L7.46484 0.0136719C6.41211 0.0136719 5.81055 0.642578 5.81055 1.68164L5.81055 3.51367L4.29297 3.51367C1.43555 3.51367 0 4.92188 0 7.73828L0 19.209C0 22.0391 1.43555 23.4473 4.29297 23.4473ZM2.20117 19.0996L2.20117 7.86133C2.20117 6.43945 2.95312 5.71484 4.32031 5.71484L27.918 5.71484C29.2715 5.71484 30.0371 6.43945 30.0371 7.86133L30.0371 19.0996C30.0371 20.5078 29.2715 21.2461 27.918 21.2461L4.32031 21.2461C2.95312 21.2461 2.20117 20.5078 2.20117 19.0996Z" fill="#ff3b30"/>
  <path d="M6.98633 14.4648L12.6875 14.4648C13.248 14.4648 13.6855 14.0273 13.6855 13.4668C13.6855 12.8926 13.248 12.4551 12.6875 12.4551L6.98633 12.4551C6.42578 12.4551 5.97461 12.8926 5.97461 13.4668C5.97461 14.0273 6.42578 14.4648 6.98633 14.4648ZM22.3809 17.582C22.9414 17.582 23.3789 17.1445 23.3789 16.584L23.3789 14.4648L25.498 14.4648C26.0586 14.4648 26.5098 14.0273 26.5098 13.4668C26.5098 12.8926 26.0586 12.4551 25.498 12.4551L23.3789 12.4551L23.3789 10.3359C23.3789 9.77539 22.9414 9.32422 22.3809 9.32422C21.8203 9.32422 21.3691 9.77539 21.3691 10.3359L21.3691 12.4551L19.25 12.4551C18.6895 12.4551 18.252 12.8926 18.252 13.4668C18.252 14.0273 18.6895 14.4648 19.25 14.4648L21.3691 14.4648L21.3691 16.584C21.3691 17.1445 21.8203 17.582 22.3809 17.582Z" fill="#ff3b30"/>
 </g>
</svg>
