<?xml version="1.0" encoding="UTF-8"?>
<!--Generator: Apple Native CoreSVG 326-->
<!DOCTYPE svg
PUBLIC "-//W3C//DTD SVG 1.1//EN"
       "http://www.w3.org/Graphics/SVG/1.1/DTD/svg11.dtd">
<svg version="1.1" xmlns="http://www.w3.org/2000/svg" xmlns:xlink="http://www.w3.org/1999/xlink" viewBox="0 0 26.2227 25.8262">
 <g>
  <rect height="25.8262" opacity="0" width="26.2227" x="0" y="0"/>
  <path d="M0.970703 7.75195L8.46289 7.75195C8.99609 7.75195 9.43359 7.32812 9.43359 6.79492C9.43359 6.26172 8.99609 5.82422 8.46289 5.82422L0.970703 5.82422C0.423828 5.82422 0 6.26172 0 6.79492C0 7.32812 0.423828 7.75195 0.970703 7.75195ZM4.92188 25.8262C5.37305 25.8262 5.63281 25.6348 5.98828 25.1289L14 13.248L21.793 1.73633C21.9844 1.47656 22.0527 1.24414 22.0527 0.970703C22.0527 0.423828 21.5742 0 21.0137 0C20.5352 0 20.2754 0.150391 19.8926 0.710938L12.0723 12.3184L4.10156 24.0625C3.92383 24.3223 3.82812 24.541 3.82812 24.8418C3.82812 25.4297 4.32031 25.8262 4.92188 25.8262ZM16.4336 19.8516C16.4336 20.3848 16.8574 20.8086 17.3906 20.8086L20.1934 20.8086L20.1934 23.6113C20.1934 24.1445 20.6172 24.5684 21.1504 24.5684C21.6836 24.5684 22.1211 24.1445 22.1211 23.6113L22.1211 20.8086L24.8965 20.8086C25.4297 20.8086 25.8672 20.3848 25.8672 19.8516C25.8672 19.3184 25.4297 18.8809 24.8965 18.8809L22.1211 18.8809L22.1211 16.1055C22.1211 15.5586 21.6699 15.1348 21.1504 15.1348C20.6035 15.1348 20.1934 15.5723 20.1934 16.1055L20.1934 18.8809L17.3906 18.8809C16.8574 18.8809 16.4336 19.3184 16.4336 19.8516Z" fill="black" fill-opacity="0.85"/>
 </g>
</svg>
