<?xml version="1.0" encoding="UTF-8"?>
<!--Generator: Apple Native CoreSVG 326-->
<!DOCTYPE svg
PUBLIC "-//W3C//DTD SVG 1.1//EN"
       "http://www.w3.org/Graphics/SVG/1.1/DTD/svg11.dtd">
<svg version="1.1" xmlns="http://www.w3.org/2000/svg" xmlns:xlink="http://www.w3.org/1999/xlink" viewBox="0 0 46.9219 21.1777">
 <g>
  <rect height="21.1777" opacity="0" width="46.9219" x="0" y="0"/>
  <path d="M37.3789 5.35938L36.9688 9.36523C36.8594 10.4316 37.4199 10.9238 38.5684 10.9238L42.0957 10.9238C43.0391 10.9238 43.709 11.6074 43.709 12.5371L43.709 19.0859C43.709 20.5488 42.5742 21.1367 41.1523 20.7812C39.4707 20.3574 37.6797 20.1523 35.5742 20.1523L14.8066 20.1523C9.86994 20.1523 6.69304 17.9917 5.83929 13.8359L8.14218 13.8359C8.97238 16.5435 11.3093 17.9512 14.7656 17.9512L30.3652 17.9512C32.8809 17.9512 33.8652 17.1172 34.125 14.8203L35.2051 5.11328C35.4238 3.1582 34.4668 2.20117 32.1016 2.20117C27.8086 2.20117 19.9883 2.41992 15.5039 2.92578C11.8982 3.34297 9.46163 5.06636 8.40576 7.83398L6.0616 7.83398C7.19082 3.80785 10.4051 1.31493 15.3125 0.710938C19.8652 0.177734 27.7949 0.0136719 32.1016 0C35.8203 0 37.7207 2.02344 37.3789 5.35938Z" fill="black" fill-opacity="0.85"/>
  <path d="M1.16211 7.69727C1.16211 10.377 2.83008 11.9766 5.66016 11.9766L12.9199 11.9766L12.9199 13.5488C12.9199 14.4785 13.5762 14.8066 14.3418 14.2734L18.1562 11.6758C18.7852 11.252 18.7852 10.5 18.1562 10.0762L14.3691 7.47852C13.5762 6.91797 12.9199 7.27344 12.9199 8.20312L12.9199 9.69336L5.66016 9.69336C4.29297 9.69336 3.48633 8.95508 3.48633 7.69727L3.48633 5.89258C3.48633 5.25 2.9668 4.7168 2.32422 4.7168C1.68164 4.7168 1.16211 5.25 1.16211 5.89258Z" fill="black" fill-opacity="0.85"/>
 </g>
</svg>
