<?xml version="1.0" encoding="UTF-8"?>
<!--Generator: Apple Native CoreSVG 326-->
<!DOCTYPE svg
PUBLIC "-//W3C//DTD SVG 1.1//EN"
       "http://www.w3.org/Graphics/SVG/1.1/DTD/svg11.dtd">
<svg version="1.1" xmlns="http://www.w3.org/2000/svg" xmlns:xlink="http://www.w3.org/1999/xlink" viewBox="0 0 38.4727 29.1105">
 <g>
  <rect height="29.1105" opacity="0" width="38.4727" x="0" y="0"/>
  <path d="M31.7871 9.32575L31.377 13.3316C31.2676 14.398 31.8281 14.8902 32.9629 14.8902L36.5039 14.8902C37.4473 14.8902 38.1172 15.5738 38.1172 16.5035L38.1172 23.0523C38.1172 24.5152 36.9824 25.1031 35.5469 24.7476C33.8789 24.3238 32.0879 24.1187 29.9824 24.1187L23.2241 24.1187C23.5623 23.4236 24.0159 22.7457 24.3179 21.9175L24.7734 21.9175C27.2891 21.9175 28.2734 21.0836 28.5332 18.7867L29.6133 9.07966C29.832 7.12458 28.875 6.16755 26.5098 6.16755C22.2168 6.16755 14.3965 6.3863 9.91211 6.89216C4.94922 7.46638 2.20117 10.5152 2.20117 15.3414C2.20117 19.648 4.78516 21.9175 9.17383 21.9175L9.68244 21.9175C9.34433 22.6428 8.87962 23.294 8.56427 24.0972C3.11202 23.8846 0 20.8781 0 15.3414C0 9.24372 3.5 5.44294 9.7207 4.67731C14.2598 4.14411 22.2031 3.98005 26.5098 3.96638C30.2285 3.96638 32.1289 5.98981 31.7871 9.32575ZM21.5961 24.1187L16.6922 24.1187C17.0329 23.4236 17.4898 22.7457 17.794 21.9175L22.7148 21.9175C22.3761 22.6493 21.9094 23.3057 21.5961 24.1187ZM15.0858 24.1187L10.1741 24.1187C10.5172 23.4236 10.9774 22.7457 11.2838 21.9175L16.1965 21.9175C15.8602 22.6493 15.3969 23.3057 15.0858 24.1187Z" fill="black" fill-opacity="0.85"/>
  <path d="M10.4727 27.8922C9.92578 27.1539 9.70703 26.7027 9.70703 25.855C9.70703 23.859 11.6211 22.7242 11.6211 20.0855C11.6211 17.7066 9.84375 17.1187 9.84375 14.2886L9.84375 13.7828L8.33984 13.7828L8.33984 14.2886C8.33984 17.8433 10.1172 18.2535 10.1172 20.0855C10.1172 22.3961 8.20312 23.3121 8.20312 25.9644C8.20312 27.0582 8.54492 27.8785 9.25586 28.7808C9.88477 29.5875 11.1426 28.7672 10.4727 27.8922ZM6.63086 13.564C6.38477 13.9332 6.60352 14.4527 7.0957 14.4527L11.0605 14.4527C11.5664 14.4527 11.7988 13.9468 11.5254 13.564L9.61133 10.7066C9.46094 10.4879 9.31055 10.4058 9.07812 10.4058C8.85938 10.4058 8.69531 10.5015 8.54492 10.7066ZM16.9941 27.8922C16.4336 27.1539 16.2285 26.7027 16.2285 25.855C16.2285 23.859 18.1289 22.7242 18.1289 20.0855C18.1289 17.7066 16.3652 17.1187 16.3652 14.2886L16.3652 13.7828L14.8613 13.7828L14.8613 14.2886C14.8613 17.8433 16.625 18.2535 16.625 20.0855C16.625 22.3961 14.7383 23.3121 14.7383 25.9644C14.7383 27.0582 15.0801 27.8785 15.791 28.7808C16.4199 29.5875 17.6504 28.7672 16.9941 27.8922ZM13.1387 13.564C12.8926 13.9332 13.125 14.4527 13.6309 14.4527L17.5684 14.4527C18.0879 14.4527 18.3203 13.9332 18.0605 13.564L16.1328 10.7066C15.9824 10.5015 15.832 10.4058 15.5996 10.4058C15.3809 10.4058 15.2168 10.5015 15.0664 10.7066ZM23.5293 27.8922C22.9688 27.1539 22.7637 26.7027 22.7637 25.855C22.7637 23.859 24.6504 22.7242 24.6504 20.0855C24.6504 17.7066 22.873 17.1187 22.873 14.2886L22.873 13.7828L21.3691 13.7828L21.3691 14.2886C21.3691 17.8433 23.1465 18.2535 23.1465 20.0855C23.1465 22.3961 21.2461 23.3121 21.2461 25.9644C21.2461 27.0582 21.5879 27.8785 22.2988 28.7808C22.9277 29.5875 24.1719 28.7672 23.5293 27.8922ZM19.6738 13.564C19.4277 13.9332 19.6465 14.4527 20.1387 14.4527L24.1035 14.4527C24.623 14.4527 24.8418 13.9332 24.582 13.564L22.6543 10.7066C22.5176 10.5015 22.3398 10.4058 22.1211 10.4058C21.8887 10.4058 21.752 10.4879 21.6016 10.7066Z" fill="black" fill-opacity="0.85"/>
 </g>
</svg>
