<?xml version="1.0" encoding="UTF-8"?>
<!--Generator: Apple Native CoreSVG 326-->
<!DOCTYPE svg
PUBLIC "-//W3C//DTD SVG 1.1//EN"
       "http://www.w3.org/Graphics/SVG/1.1/DTD/svg11.dtd">
<svg version="1.1" xmlns="http://www.w3.org/2000/svg" xmlns:xlink="http://www.w3.org/1999/xlink" viewBox="0 0 38.4727 21.1777">
 <g>
  <rect height="21.1777" opacity="0" width="38.4727" x="0" y="0"/>
  <path d="M31.7871 5.35938L31.377 9.36523C31.2676 10.4316 31.8281 10.9238 32.9629 10.9238L36.5039 10.9238C37.4473 10.9238 38.1172 11.6074 38.1172 12.5371L38.1172 19.0859C38.1172 20.5488 36.9824 21.1367 35.5469 20.7812C33.8789 20.3574 32.0879 20.1523 29.9824 20.1523L9.21484 20.1523C3.36328 20.1523 0 17.1309 0 11.375C0 5.27734 3.5 1.47656 9.7207 0.710938C14.2598 0.177734 22.2031 0.0136719 26.5098 0C30.2285 0 32.1289 2.02344 31.7871 5.35938ZM9.91211 2.92578C4.94922 3.5 2.20117 6.54883 2.20117 11.375C2.20117 15.6816 4.78516 17.9512 9.17383 17.9512L24.7734 17.9512C27.2891 17.9512 28.2734 17.1172 28.5332 14.8203L29.6133 5.11328C29.832 3.1582 28.875 2.20117 26.5098 2.20117C22.2168 2.20117 14.3965 2.41992 9.91211 2.92578Z" fill="black" fill-opacity="0.85"/>
 </g>
</svg>
