<?xml version="1.0" encoding="UTF-8"?>
<!--Generator: Apple Native CoreSVG 326-->
<!DOCTYPE svg
PUBLIC "-//W3C//DTD SVG 1.1//EN"
       "http://www.w3.org/Graphics/SVG/1.1/DTD/svg11.dtd">
<svg version="1.1" xmlns="http://www.w3.org/2000/svg" xmlns:xlink="http://www.w3.org/1999/xlink" viewBox="0 0 27.8086 27.7129">
 <g>
  <rect height="27.7129" opacity="0" width="27.8086" x="0" y="0"/>
  <path d="M21.4238 18.5664C13.8906 18.5664 9.26953 14.0273 9.26953 6.74023C9.26953 4.66211 9.67969 2.83008 10.1855 1.8457C10.3906 1.44922 10.4316 1.25781 10.4316 0.984375C10.4316 0.533203 10.0078 0 9.43359 0C9.32422 0 9.06445 0.0410156 8.68164 0.191406C3.62305 2.24219 0 7.45117 0 13.3164C0 21.2324 6.42578 27.6445 14.3281 27.6445C19.8516 27.6445 24.8418 24.541 27.2617 19.4277C27.4395 19.0723 27.4531 18.7715 27.4531 18.6211C27.4531 18.0605 26.9746 17.6777 26.5508 17.6777C26.332 17.6777 26.168 17.6914 25.8398 17.8145C24.7324 18.2656 23.0645 18.5664 21.4238 18.5664ZM2.14648 13.2207C2.14648 8.96875 4.36133 4.94922 7.90234 2.69336C7.46484 3.96484 7.23242 5.37305 7.23242 6.93164C7.23242 15.4766 12.3867 20.5625 21.1094 20.5625C22.5176 20.5625 23.707 20.3984 24.8418 20.002C22.7637 23.4336 18.8125 25.5254 14.4238 25.5254C7.39648 25.5254 2.14648 20.2891 2.14648 13.2207Z" fill="black" fill-opacity="0.85"/>
 </g>
</svg>
