<?xml version="1.0" encoding="UTF-8"?>
<!--Generator: Apple Native CoreSVG 326-->
<!DOCTYPE svg
PUBLIC "-//W3C//DTD SVG 1.1//EN"
       "http://www.w3.org/Graphics/SVG/1.1/DTD/svg11.dtd">
<svg version="1.1" xmlns="http://www.w3.org/2000/svg" xmlns:xlink="http://www.w3.org/1999/xlink" viewBox="0 0 28.2461 27.9043">
 <g>
  <rect height="27.9043" opacity="0" width="28.2461" x="0" y="0"/>
  <path d="M13.9453 27.9043C21.6426 27.9043 27.8906 21.6562 27.8906 13.959C27.8906 6.27539 21.6426 0.0136719 13.9453 0.0136719C6.26172 0.0136719 0 6.27539 0 13.959C0 21.6562 6.26172 27.9043 13.9453 27.9043Z" fill="black" fill-opacity="0.85"/>
  <path d="M8.38086 15.4082C7.57422 14.3281 7.15039 13.002 7.15039 11.5254C7.15039 8.73633 8.70898 6.31641 11.0195 5.37305C11.3613 5.22266 11.7031 5.26367 11.8535 5.45508C11.9902 5.66016 12.0176 5.94727 11.8535 6.23438C11.6074 6.71289 11.4844 7.61523 11.4844 8.49023C11.4844 11.6895 13.5488 13.7266 16.8574 13.7266C17.6641 13.7266 18.3613 13.6172 18.9219 13.3848C19.2227 13.2754 19.4688 13.3164 19.6055 13.4395C19.7969 13.6309 19.8242 13.918 19.6738 14.2598C19.4824 14.6836 19.291 15.0664 19.0039 15.4082ZM6.04297 17.9785C5.61914 17.9785 5.22266 17.6367 5.22266 17.1992C5.22266 16.7617 5.60547 16.4336 6.04297 16.4336L21.834 16.4336C22.2852 16.4336 22.668 16.7617 22.668 17.1992C22.668 17.6367 22.2715 17.9785 21.834 17.9785ZM7.04102 20.4941C6.67188 20.4941 6.35742 20.1797 6.35742 19.8105C6.35742 19.4414 6.67188 19.1406 7.04102 19.1406C7.41016 19.1406 7.71094 19.4414 7.71094 19.8105C7.71094 20.1797 7.41016 20.4941 7.04102 20.4941ZM10.5 20.4941C10.1309 20.4941 9.83008 20.1797 9.83008 19.8105C9.83008 19.4414 10.1309 19.1406 10.5 19.1406C10.8691 19.1406 11.1699 19.4414 11.1699 19.8105C11.1699 20.1797 10.8691 20.4941 10.5 20.4941ZM13.959 20.4941C13.5898 20.4941 13.2754 20.1797 13.2754 19.8105C13.2754 19.4414 13.5898 19.1406 13.959 19.1406C14.3281 19.1406 14.6426 19.4414 14.6426 19.8105C14.6426 20.1797 14.3281 20.4941 13.959 20.4941ZM17.418 20.4941C17.0488 20.4941 16.748 20.1797 16.748 19.8105C16.748 19.4414 17.0488 19.1406 17.418 19.1406C17.7871 19.1406 18.0879 19.4414 18.0879 19.8105C18.0879 20.1797 17.7871 20.4941 17.418 20.4941ZM20.877 20.4941C20.5215 20.4941 20.207 20.1797 20.207 19.8105C20.207 19.4414 20.5215 19.1406 20.877 19.1406C21.2461 19.1406 21.5469 19.4414 21.5469 19.8105C21.5469 20.1797 21.2461 20.4941 20.877 20.4941ZM8.75 22.3809C8.39453 22.3809 8.08008 22.0801 8.08008 21.7109C8.08008 21.3555 8.39453 21.041 8.75 21.041C9.11914 21.041 9.43359 21.3555 9.43359 21.7109C9.43359 22.0801 9.11914 22.3809 8.75 22.3809ZM12.2227 22.3809C11.8535 22.3809 11.5527 22.0801 11.5527 21.7109C11.5527 21.3555 11.8535 21.041 12.2227 21.041C12.5918 21.041 12.8926 21.3555 12.8926 21.7109C12.8926 22.0801 12.5918 22.3809 12.2227 22.3809ZM15.6816 22.3809C15.3125 22.3809 14.998 22.0801 14.998 21.7109C14.998 21.3555 15.3125 21.041 15.6816 21.041C16.0508 21.041 16.3516 21.3555 16.3516 21.7109C16.3516 22.0801 16.0508 22.3809 15.6816 22.3809ZM19.1406 22.3809C18.7715 22.3809 18.457 22.0801 18.457 21.7109C18.457 21.3555 18.7715 21.041 19.1406 21.041C19.4961 21.041 19.8105 21.3555 19.8105 21.7109C19.8105 22.0801 19.4961 22.3809 19.1406 22.3809Z" fill="white"/>
 </g>
</svg>
