<?xml version="1.0" encoding="UTF-8"?>
<!--Generator: Apple Native CoreSVG 326-->
<!DOCTYPE svg
PUBLIC "-//W3C//DTD SVG 1.1//EN"
       "http://www.w3.org/Graphics/SVG/1.1/DTD/svg11.dtd">
<svg version="1.1" xmlns="http://www.w3.org/2000/svg" xmlns:xlink="http://www.w3.org/1999/xlink" viewBox="0 0 28.2461 27.9043">
 <g>
  <rect height="27.9043" opacity="0" width="28.2461" x="0" y="0"/>
  <path d="M25.5664 13.9453C25.5801 20.4121 20.4121 25.5664 13.9453 25.5664C13.5215 25.5664 13.0977 25.5391 12.6738 25.4844C16.502 23.1465 18.6484 19.0859 18.6484 13.9453C18.6484 8.79102 16.4883 4.7168 12.6328 2.40625C13.0703 2.35156 13.4941 2.32422 13.9316 2.32422C20.3984 2.32422 25.5527 7.47852 25.5664 13.9453ZM13.9453 27.8906C21.6426 27.8906 27.8906 21.6289 27.8906 13.9453C27.8906 6.24805 21.6426 0 13.9453 0C6.26172 0 0 6.24805 0 13.9453C0 21.6289 6.26172 27.8906 13.9453 27.8906Z" fill="black" fill-opacity="0.85"/>
 </g>
</svg>
