<?xml version="1.0" encoding="UTF-8"?>
<!--Generator: Apple Native CoreSVG 326-->
<!DOCTYPE svg
PUBLIC "-//W3C//DTD SVG 1.1//EN"
       "http://www.w3.org/Graphics/SVG/1.1/DTD/svg11.dtd">
<svg version="1.1" xmlns="http://www.w3.org/2000/svg" xmlns:xlink="http://www.w3.org/1999/xlink" viewBox="0 0 28.2461 27.9043">
 <g>
  <rect height="27.9043" opacity="0" width="28.2461" x="0" y="0"/>
  <path d="M13.9453 27.8906C21.6426 27.8906 27.8906 21.6426 27.8906 13.9453C27.8906 6.24805 21.6426 0 13.9453 0C6.24805 0 0 6.24805 0 13.9453C0 21.6426 6.24805 27.8906 13.9453 27.8906ZM13.9453 25.5664C7.51953 25.5664 2.32422 20.3711 2.32422 13.9453C2.32422 7.51953 7.51953 2.32422 13.9453 2.32422C20.3711 2.32422 25.5664 7.51953 25.5664 13.9453C25.5664 20.3711 20.3711 25.5664 13.9453 25.5664Z" fill="black" fill-opacity="0.85"/>
  <path d="M17.2266 5.83789C16.8164 5.83789 16.5156 6.17969 16.5156 6.58984L16.5156 9.625L16.543 10.0898L16.4746 10.0078L15.5449 9.10547C15.4082 8.98242 15.2305 8.90039 15.0664 8.90039C14.7109 8.90039 14.4375 9.16016 14.4375 9.50195C14.4375 9.67969 14.4922 9.84375 14.6562 9.99414L16.748 11.9355C16.9121 12.0859 17.0488 12.168 17.2266 12.168C17.3906 12.168 17.541 12.0859 17.6914 11.9355L19.7832 9.99414C19.9473 9.83008 20.002 9.67969 20.002 9.50195C20.002 9.16016 19.7422 8.90039 19.373 8.90039C19.2227 8.90039 19.0039 8.96875 18.8945 9.0918L18.0605 9.95312L17.8965 10.1309L17.9238 9.625L17.9238 6.58984C17.9238 6.17969 17.623 5.83789 17.2266 5.83789ZM6.78125 20.1934L21.082 20.1934C21.4785 20.1934 21.834 19.8789 21.834 19.4824C21.834 19.0859 21.4922 18.7852 21.082 18.7852L6.78125 18.7852C6.38477 18.7852 6.0293 19.0859 6.0293 19.4824C6.0293 19.8789 6.39844 20.1934 6.78125 20.1934ZM9.2832 17.8008L19.0176 17.8008C19.291 17.4727 19.4824 17.1035 19.6602 16.707C19.7832 16.4062 19.7559 16.1602 19.5918 15.9688C19.4551 15.8594 19.2363 15.8184 18.9629 15.9277C18.4434 16.1328 17.8008 16.2422 17.0625 16.2422C14.0273 16.2422 12.0996 14.3691 12.0996 11.4023C12.0996 10.623 12.2227 9.77539 12.4551 9.33789C12.6055 9.06445 12.5781 8.80469 12.4551 8.62695C12.3047 8.44922 12.0176 8.4082 11.6895 8.55859C9.57031 9.41992 8.13477 11.6348 8.13477 14.1914C8.13477 15.5723 8.55859 16.8027 9.2832 17.8008Z" fill="black" fill-opacity="0.85"/>
 </g>
</svg>
