<?xml version="1.0" encoding="UTF-8"?>
<!--Generator: Apple Native CoreSVG 326-->
<!DOCTYPE svg
PUBLIC "-//W3C//DTD SVG 1.1//EN"
       "http://www.w3.org/Graphics/SVG/1.1/DTD/svg11.dtd">
<svg version="1.1" xmlns="http://www.w3.org/2000/svg" xmlns:xlink="http://www.w3.org/1999/xlink" viewBox="0 0 39.1289 35.9707">
 <g>
  <rect height="35.9707" opacity="0" width="39.1289" x="0" y="0"/>
  <path d="M15.4629 12.2773C15.0664 13.1113 14.7793 14.7383 14.7793 16.2148C14.7793 22.0117 18.2109 25.4434 24.0078 25.4434C25.4844 25.4434 27.084 25.1426 27.9453 24.7734C28.9844 24.3086 29.8457 25.1016 29.4219 26.168C28.8072 27.6664 27.8359 28.9856 26.6078 30.0508L22.6915 30.0508C24.2457 29.4153 25.6066 28.3992 26.6602 27.0977C25.8125 27.3848 24.6641 27.4805 23.4609 27.4805C17.0762 27.4805 12.7422 23.1328 12.7422 16.7617C12.7422 15.5449 12.8516 14.3965 13.125 13.5625C10.8418 15.4219 9.43359 18.2246 9.43359 21.3691C9.43359 25.3783 11.6677 28.6453 15.0276 30.0508L10.9835 30.0508C8.69422 28.0034 7.30078 24.9934 7.30078 21.5332C7.30078 16.6934 10.0215 12.4688 14.0684 10.8008C15.1484 10.3633 16.0508 11.0469 15.4629 12.2773Z" fill="black" fill-opacity="0.85"/>
  <path d="M3.0625 32.2383L35.7246 32.2383C36.3672 32.2383 36.9141 31.7461 36.9141 31.1445C36.9141 30.543 36.3672 30.0508 35.7246 30.0508L3.0625 30.0508C2.40625 30.0508 1.87305 30.543 1.87305 31.1445C1.87305 31.7461 2.40625 32.2383 3.0625 32.2383Z" fill="black" fill-opacity="0.85"/>
  <path d="M26.3047 16.6523C26.9062 16.6523 27.4258 16.1055 27.4258 15.4355L27.4258 8.53125L27.2617 6.4668L28.2598 7.62891L29.9824 9.36523C30.1738 9.55664 30.4473 9.67969 30.707 9.67969C31.2539 9.67969 31.6367 9.29688 31.6367 8.76367C31.6367 8.47656 31.541 8.25781 31.3086 8.03906L27.043 4.06055C26.7559 3.80078 26.5645 3.70508 26.3047 3.70508C26.0586 3.70508 25.8535 3.80078 25.5664 4.06055L21.3008 8.03906C21.0684 8.25781 20.9727 8.47656 20.9727 8.76367C20.9727 9.29688 21.3555 9.67969 21.9023 9.67969C22.1758 9.67969 22.4355 9.55664 22.6406 9.36523L24.4863 7.49219L25.3477 6.4668L25.1973 8.53125L25.1973 15.4355C25.1973 16.1055 25.7031 16.6523 26.3047 16.6523Z" fill="black" fill-opacity="0.85"/>
 </g>
</svg>
