<?xml version="1.0" encoding="UTF-8"?>
<!--Generator: Apple Native CoreSVG 326-->
<!DOCTYPE svg
PUBLIC "-//W3C//DTD SVG 1.1//EN"
       "http://www.w3.org/Graphics/SVG/1.1/DTD/svg11.dtd">
<svg version="1.1" xmlns="http://www.w3.org/2000/svg" xmlns:xlink="http://www.w3.org/1999/xlink" viewBox="0 0 36.3125 31.7871">
 <g>
  <rect height="31.7871" opacity="0" width="36.3125" x="0" y="0"/>
  <path d="M15.3672 1.96875C15.6406 2.25586 15.6406 2.74805 15.3945 3.22656C15.0117 3.99219 14.7656 5.45508 14.7656 6.82227C14.7656 11.9766 18.1289 15.2441 23.4062 15.2441C24.7324 15.2441 25.8262 15.0664 26.7422 14.7109C27.207 14.5332 27.6309 14.5742 27.8633 14.8203C28.1504 15.1074 28.1914 15.5723 27.959 16.1055C27.6674 16.7558 27.3178 17.3749 26.9099 17.9512L9.74723 17.9512C8.45258 16.1537 7.79297 13.9455 7.79297 11.7031C7.79297 7.23242 10.3359 3.33594 14.0547 1.81836C14.6289 1.58594 15.0801 1.66797 15.3672 1.96875Z" fill="white"/>
  <path d="M3.0625 26.5371L30.8301 26.5371C31.3223 26.5371 31.6914 26.1543 31.6914 25.6621C31.6914 25.1699 31.3223 24.8008 30.8301 24.8008L3.0625 24.8008C2.58398 24.8008 2.20117 25.1699 2.20117 25.6621C2.20117 26.1543 2.58398 26.5371 3.0625 26.5371ZM5.12695 31.7871L32.8945 31.7871C33.373 31.7871 33.7559 31.418 33.7559 30.9258C33.7559 30.4199 33.373 30.0508 32.8945 30.0508L5.12695 30.0508C4.64844 30.0508 4.26562 30.4199 4.26562 30.9258C4.26562 31.418 4.64844 31.7871 5.12695 31.7871ZM5.12695 21.2734L32.8945 21.2734C33.373 21.2734 33.7559 20.9043 33.7559 20.4121C33.7559 19.9199 33.373 19.5508 32.8945 19.5508L5.12695 19.5508C4.64844 19.5508 4.26562 19.9199 4.26562 20.4121C4.26562 20.9043 4.64844 21.2734 5.12695 21.2734Z" fill="white"/>
 </g>
</svg>
