<?xml version="1.0" encoding="UTF-8"?>
<!--Generator: Apple Native CoreSVG 326-->
<!DOCTYPE svg
PUBLIC "-//W3C//DTD SVG 1.1//EN"
       "http://www.w3.org/Graphics/SVG/1.1/DTD/svg11.dtd">
<svg version="1.1" xmlns="http://www.w3.org/2000/svg" xmlns:xlink="http://www.w3.org/1999/xlink" viewBox="0 0 28.2461 27.9043">
 <g>
  <rect height="27.9043" opacity="0" width="28.2461" x="0" y="0"/>
  <path d="M13.9453 27.8906C21.6426 27.8906 27.8906 21.6426 27.8906 13.9453C27.8906 6.24805 21.6426 0 13.9453 0C6.24805 0 0 6.24805 0 13.9453C0 21.6426 6.24805 27.8906 13.9453 27.8906ZM13.9453 25.5664C7.51953 25.5664 2.32422 20.3711 2.32422 13.9453C2.32422 7.51953 7.51953 2.32422 13.9453 2.32422C20.3711 2.32422 25.5664 7.51953 25.5664 13.9453C25.5664 20.3711 20.3711 25.5664 13.9453 25.5664Z" fill="black" fill-opacity="0.85"/>
  <path d="M17.2266 12.168C17.623 12.168 17.9238 11.8125 17.9238 11.4023L17.9238 8.38086L17.8965 7.875L18.0605 8.03906L18.8945 8.90039C19.0039 9.03711 19.2227 9.10547 19.373 9.10547C19.7422 9.10547 20.002 8.8457 20.002 8.49023C20.002 8.32617 19.9473 8.16211 19.7832 8.01172L17.6914 6.05664C17.541 5.90625 17.3906 5.83789 17.2266 5.83789C17.0488 5.83789 16.9121 5.90625 16.748 6.05664L14.6562 8.01172C14.4922 8.16211 14.4375 8.32617 14.4375 8.49023C14.4375 8.8457 14.7109 9.10547 15.0664 9.10547C15.2305 9.10547 15.4082 9.02344 15.5449 8.90039L16.4746 7.98438L16.543 7.91602L16.5156 8.38086L16.5156 11.4023C16.5156 11.8125 16.8164 12.168 17.2266 12.168ZM6.78125 20.1934L21.082 20.1934C21.4785 20.1934 21.834 19.8789 21.834 19.4824C21.834 19.0859 21.4922 18.7852 21.082 18.7852L6.78125 18.7852C6.38477 18.7852 6.0293 19.0859 6.0293 19.4824C6.0293 19.8789 6.39844 20.1934 6.78125 20.1934ZM9.2832 17.8008L19.0176 17.8008C19.291 17.4727 19.4824 17.1035 19.6602 16.707C19.7832 16.4062 19.7559 16.1602 19.5918 15.9688C19.4551 15.8594 19.2363 15.8184 18.9629 15.9277C18.4434 16.1328 17.8008 16.2422 17.0625 16.2422C14.0273 16.2422 12.0996 14.3691 12.0996 11.4023C12.0996 10.623 12.2227 9.77539 12.4551 9.33789C12.6055 9.06445 12.5781 8.80469 12.4551 8.62695C12.3047 8.44922 12.0176 8.4082 11.6895 8.55859C9.57031 9.41992 8.13477 11.6348 8.13477 14.1914C8.13477 15.5723 8.55859 16.8027 9.2832 17.8008Z" fill="black" fill-opacity="0.85"/>
 </g>
</svg>
