<?xml version="1.0" encoding="UTF-8"?>
<!--Generator: Apple Native CoreSVG 326-->
<!DOCTYPE svg
PUBLIC "-//W3C//DTD SVG 1.1//EN"
       "http://www.w3.org/Graphics/SVG/1.1/DTD/svg11.dtd">
<svg version="1.1" xmlns="http://www.w3.org/2000/svg" xmlns:xlink="http://www.w3.org/1999/xlink" viewBox="0 0 35.8226 33.4277">
 <g>
  <rect height="33.4277" opacity="0" width="35.8226" x="0" y="0"/>
  <path d="M0.999207 33.4277L2.61249 33.4277C3.35077 33.4277 3.71991 33.0723 3.92499 32.5391C6.18085 26.9609 8.45038 21.3555 10.7199 15.7773C10.884 15.3535 10.6926 15.0117 10.2687 15.0117L9.4621 15.0117C9.03827 15.0117 8.76483 15.2168 8.5871 15.5859C5.75702 21.0684 2.96796 26.5645 0.137879 32.0605C-0.190246 32.6895 0.0558481 33.4277 0.999207 33.4277ZM32.8547 33.4277L34.4543 33.4277C35.4113 33.4277 35.6574 32.6895 35.3156 32.0605C32.5129 26.5645 29.6965 21.0684 26.8937 15.5859C26.7023 15.2168 26.4289 15.0117 26.0051 15.0117L25.1984 15.0117C24.7746 15.0117 24.5832 15.3535 24.7473 15.7773C27.0031 21.3555 29.2863 26.9609 31.5422 32.5391C31.7473 33.0723 32.1164 33.4277 32.8547 33.4277ZM17.4465 18.3613L17.9933 18.3613C18.4992 18.3613 18.882 17.9922 18.882 17.4727C18.882 16.9531 18.882 16.4199 18.882 15.9004C18.882 15.3809 18.4992 15.0117 17.9933 15.0117L17.4465 15.0117C16.9406 15.0117 16.5578 15.3809 16.5578 15.9004C16.5578 16.4199 16.5578 16.9531 16.5578 17.4727C16.5578 17.9922 16.9406 18.3613 17.4465 18.3613ZM17.4465 25.3887L17.9933 25.3887C18.4992 25.3887 18.882 25.0059 18.882 24.5C18.882 23.625 18.882 22.75 18.882 21.8887C18.882 21.3691 18.4992 21 17.9933 21L17.4465 21C16.9406 21 16.5578 21.3691 16.5578 21.8887C16.5578 22.75 16.5578 23.625 16.5578 24.5C16.5578 25.0059 16.9406 25.3887 17.4465 25.3887ZM17.4465 33.4277L17.9933 33.4277C18.4992 33.4277 18.882 33.0449 18.882 32.5391C18.882 31.3496 18.882 30.1875 18.882 28.998C18.882 28.4922 18.4992 28.1094 17.9933 28.1094L17.4465 28.1094C16.9406 28.1094 16.5578 28.4922 16.5578 28.998C16.5578 30.1875 16.5578 31.3496 16.5578 32.5391C16.5578 33.0449 16.9406 33.4277 17.4465 33.4277Z" fill="black" fill-opacity="0.85"/>
  <path d="M22.8742 11.0879C25.2805 11.0879 27.3312 9.625 28.0558 7.82031C28.1652 7.56055 28.1242 7.21875 27.8098 7.21875C27.673 7.17773 27.5773 7.19141 27.3859 7.24609C26.9894 7.35547 26.3742 7.49219 25.7316 7.49219C22.7512 7.49219 20.7824 5.60547 20.7824 2.57031C20.7824 1.95508 20.9738 1.05273 21.1516 0.587891C21.2609 0.314453 21.1926 0.0136719 20.8234 0.0136719C20.7414 0.0136719 20.6183 0.0410156 20.468 0.109375C18.4582 0.943359 17.091 3.1582 17.091 5.45508C17.091 8.76367 19.6203 11.0879 22.8742 11.0879Z" fill="black" fill-opacity="0.85"/>
 </g>
</svg>
