<?xml version="1.0" encoding="UTF-8"?>
<!--Generator: Apple Native CoreSVG 326-->
<!DOCTYPE svg
PUBLIC "-//W3C//DTD SVG 1.1//EN"
       "http://www.w3.org/Graphics/SVG/1.1/DTD/svg11.dtd">
<svg version="1.1" xmlns="http://www.w3.org/2000/svg" xmlns:xlink="http://www.w3.org/1999/xlink" viewBox="0 0 37.0098 32.8809">
 <g>
  <rect height="32.8809" opacity="0" width="37.0098" x="0" y="0"/>
  <path d="M14.6426 2.51562C14.916 2.80273 14.9297 3.29492 14.6699 3.77344C14.3008 4.53906 14.041 6.00195 14.041 7.36914C14.041 12.5234 17.4043 15.791 22.6953 15.791C24.0215 15.791 25.1016 15.6133 26.0176 15.2578C26.4961 15.0801 26.9062 15.1211 27.1387 15.3672C27.4258 15.6543 27.4668 16.1191 27.2344 16.6523C26.6544 17.9574 25.8389 19.1369 24.7878 20.0977L20.8064 20.0977C22.4118 19.514 23.6753 18.5284 24.4727 17.582C23.8574 17.7051 23.0371 17.8008 22.2578 17.8008C16.1738 17.8008 12.0586 13.8086 12.0586 7.86133C12.0586 6.83594 12.1816 5.85156 12.4004 5.07227C10.3906 6.76758 9.14648 9.26953 9.14648 12.0996C9.14648 15.8583 11.2245 18.9244 14.6054 20.0977L10.4631 20.0977C8.2328 18.1139 7.08203 15.2118 7.08203 12.25C7.08203 7.7793 9.61133 3.88281 13.3438 2.36523C13.9043 2.13281 14.3555 2.21484 14.6426 2.51562Z" fill="black" fill-opacity="0.85"/>
  <path d="M5.63281 26.25C6.0293 26.25 6.33008 25.9355 6.33008 25.5527C6.33008 25.1562 6.0293 24.8418 5.63281 24.8418C5.23633 24.8418 4.93555 25.1562 4.93555 25.5527C4.93555 25.9355 5.23633 26.25 5.63281 26.25ZM11.4023 26.25C11.7988 26.25 12.1133 25.9355 12.1133 25.5527C12.1133 25.1562 11.7988 24.8418 11.4023 24.8418C11.0195 24.8418 10.7051 25.1562 10.7051 25.5527C10.7051 25.9355 11.0195 26.25 11.4023 26.25ZM17.1855 26.25C17.582 26.25 17.8828 25.9355 17.8828 25.5527C17.8828 25.1562 17.582 24.8418 17.1855 24.8418C16.7891 24.8418 16.4883 25.1562 16.4883 25.5527C16.4883 25.9355 16.7891 26.25 17.1855 26.25ZM22.9551 26.25C23.3516 26.25 23.666 25.9355 23.666 25.5527C23.666 25.1562 23.3516 24.8418 22.9551 24.8418C22.5723 24.8418 22.2578 25.1562 22.2578 25.5527C22.2578 25.9355 22.5723 26.25 22.9551 26.25ZM28.7383 26.25C29.1348 26.25 29.4355 25.9355 29.4355 25.5527C29.4355 25.1562 29.1348 24.8418 28.7383 24.8418C28.3418 24.8418 28.041 25.1562 28.041 25.5527C28.041 25.9355 28.3418 26.25 28.7383 26.25ZM3.88281 29.5586C4.2793 29.5586 4.59375 29.2578 4.59375 28.8613C4.59375 28.4648 4.2793 28.1641 3.88281 28.1641C3.5 28.1641 3.18555 28.4648 3.18555 28.8613C3.18555 29.2578 3.5 29.5586 3.88281 29.5586ZM9.66602 29.5586C10.0488 29.5586 10.3633 29.2578 10.3633 28.8613C10.3633 28.4648 10.0488 28.1641 9.66602 28.1641C9.26953 28.1641 8.96875 28.4648 8.96875 28.8613C8.96875 29.2578 9.26953 29.5586 9.66602 29.5586ZM15.4355 29.5586C15.832 29.5586 16.1465 29.2578 16.1465 28.8613C16.1465 28.4648 15.832 28.1641 15.4355 28.1641C15.0527 28.1641 14.7383 28.4648 14.7383 28.8613C14.7383 29.2578 15.0527 29.5586 15.4355 29.5586ZM21.2188 29.5586C21.6016 29.5586 21.916 29.2578 21.916 28.8613C21.916 28.4648 21.6016 28.1641 21.2188 28.1641C20.8223 28.1641 20.5078 28.4648 20.5078 28.8613C20.5078 29.2578 20.8223 29.5586 21.2188 29.5586ZM26.9883 29.5586C27.3848 29.5586 27.6992 29.2578 27.6992 28.8613C27.6992 28.4648 27.3848 28.1641 26.9883 28.1641C26.6055 28.1641 26.291 28.4648 26.291 28.8613C26.291 29.2578 26.6055 29.5586 26.9883 29.5586ZM32.7715 29.5586C33.1543 29.5586 33.4688 29.2578 33.4688 28.8613C33.4688 28.4648 33.1543 28.1641 32.7715 28.1641C32.375 28.1641 32.0605 28.4648 32.0605 28.8613C32.0605 29.2578 32.375 29.5586 32.7715 29.5586ZM7.91602 32.8809C8.3125 32.8809 8.61328 32.5664 8.61328 32.1836C8.61328 31.7871 8.3125 31.4727 7.91602 31.4727C7.51953 31.4727 7.21875 31.7871 7.21875 32.1836C7.21875 32.5664 7.51953 32.8809 7.91602 32.8809ZM13.6992 32.8809C14.082 32.8809 14.3965 32.5664 14.3965 32.1836C14.3965 31.7871 14.082 31.4727 13.6992 31.4727C13.3027 31.4727 12.9883 31.7871 12.9883 32.1836C12.9883 32.5664 13.3027 32.8809 13.6992 32.8809ZM19.4688 32.8809C19.8652 32.8809 20.166 32.5664 20.166 32.1836C20.166 31.7871 19.8652 31.4727 19.4688 31.4727C19.0723 31.4727 18.7715 31.7871 18.7715 32.1836C18.7715 32.5664 19.0723 32.8809 19.4688 32.8809ZM25.252 32.8809C25.6348 32.8809 25.9492 32.5664 25.9492 32.1836C25.9492 31.7871 25.6348 31.4727 25.252 31.4727C24.8555 31.4727 24.541 31.7871 24.541 32.1836C24.541 32.5664 24.8555 32.8809 25.252 32.8809ZM31.0215 32.8809C31.418 32.8809 31.7188 32.5664 31.7188 32.1836C31.7188 31.7871 31.418 31.4727 31.0215 31.4727C30.625 31.4727 30.3242 31.7871 30.3242 32.1836C30.3242 32.5664 30.625 32.8809 31.0215 32.8809ZM4.40234 21.8203L32.1699 21.8203C32.6621 21.8203 33.0312 21.4512 33.0312 20.959C33.0312 20.4668 32.6621 20.0977 32.1699 20.0977L4.40234 20.0977C3.92383 20.0977 3.54102 20.4668 3.54102 20.959C3.54102 21.4512 3.92383 21.8203 4.40234 21.8203Z" fill="black" fill-opacity="0.85"/>
 </g>
</svg>
