<?xml version="1.0" encoding="UTF-8"?>
<!--Generator: Apple Native CoreSVG 326-->
<!DOCTYPE svg
PUBLIC "-//W3C//DTD SVG 1.1//EN"
       "http://www.w3.org/Graphics/SVG/1.1/DTD/svg11.dtd">
<svg version="1.1" xmlns="http://www.w3.org/2000/svg" xmlns:xlink="http://www.w3.org/1999/xlink" viewBox="0 0 35.4264 17.4863">
 <g>
  <rect height="17.4863" opacity="0" width="35.4264" x="0" y="0"/>
  <path d="M0.958306 8.16211C5.85284 14.0547 10.6653 17.4863 17.5286 17.4863C24.4056 17.4863 29.2181 14.0547 34.1126 8.16211C35.7396 6.19336 35.3021 3.88281 32.7454 3.58203C28.7942 3.13086 27.4954 0.0273438 23.3255 0.0273438C20.0442 0.0273438 18.1028 2.47461 17.5286 2.47461C16.9681 2.47461 15.0267 0.0273438 11.7454 0.0273438C7.57549 0.0273438 6.27667 3.13086 2.32549 3.58203C-0.231147 3.88281-0.668647 6.19336 0.958306 8.16211ZM2.09307 6.76758C1.60088 6.20703 1.7376 5.57812 2.46221 5.45508L3.50128 5.25C7.64385 4.4707 9.22979 2.13281 11.8821 2.13281C13.2767 2.13281 14.2747 2.81641 15.2181 3.5C16.1204 4.15625 16.7493 4.58008 17.5286 4.58008C18.3216 4.58008 18.9368 4.15625 19.8528 3.5C20.7962 2.81641 21.7942 2.13281 23.1888 2.13281C25.8411 2.13281 27.4271 4.4707 31.5696 5.25L32.6087 5.45508C33.3333 5.57812 33.47 6.20703 32.9778 6.76758C29.136 10.7871 24.3919 15.3809 17.5286 15.3809C10.679 15.3809 5.93487 10.7871 2.09307 6.76758ZM17.5286 10.0352C19.4017 10.0352 19.7435 8.49023 22.5735 8.49023C25.431 8.50391 28.9446 9.77539 33.4017 6.4668C34.1399 5.91992 33.6614 5.25 33.0189 5.55078C30.2024 7.01367 27.1673 6.98633 24.5149 6.71289C23.804 6.61719 23.1067 6.52148 22.4368 6.52148C20.3177 6.52148 19.1829 7.27344 18.4173 7.71094C17.9114 8.01172 17.7474 8.06641 17.5286 8.06641C17.3235 8.06641 17.1458 8.01172 16.6399 7.71094C15.888 7.27344 14.7532 6.52148 12.6341 6.52148C11.9642 6.52148 11.2806 6.63086 10.597 6.69922C7.93096 6.98633 4.88213 7 2.05206 5.55078C1.40948 5.25 0.930963 5.91992 1.66924 6.4668C6.12628 9.76172 9.63995 8.50391 12.4974 8.49023C15.3274 8.49023 15.6692 10.0352 17.5286 10.0352Z" fill="black" fill-opacity="0.85"/>
 </g>
</svg>
