<?xml version="1.0" encoding="UTF-8"?>
<!--Generator: Apple Native CoreSVG 326-->
<!DOCTYPE svg
PUBLIC "-//W3C//DTD SVG 1.1//EN"
       "http://www.w3.org/Graphics/SVG/1.1/DTD/svg11.dtd">
<svg version="1.1" xmlns="http://www.w3.org/2000/svg" xmlns:xlink="http://www.w3.org/1999/xlink" viewBox="0 0 28.2461 27.9043">
 <g>
  <rect height="27.9043" opacity="0" width="28.2461" x="0" y="0"/>
  <path d="M13.9453 27.8906C21.6426 27.8906 27.8906 21.6426 27.8906 13.9453C27.8906 6.24805 21.6426 0 13.9453 0C6.24805 0 0 6.24805 0 13.9453C0 21.6426 6.24805 27.8906 13.9453 27.8906ZM13.9453 25.5664C7.51953 25.5664 2.32422 20.3711 2.32422 13.9453C2.32422 7.51953 7.51953 2.32422 13.9453 2.32422C20.3711 2.32422 25.5664 7.51953 25.5664 13.9453C25.5664 20.3711 20.3711 25.5664 13.9453 25.5664Z" fill="black" fill-opacity="0.85"/>
  <path d="M5.20898 18.4023C5.66016 18.4023 5.90625 18.1152 5.90625 17.6504L5.90625 11.8398L5.96094 11.8398L7.13672 17.4453C7.23242 17.9102 7.49219 18.2383 7.95703 18.2383C8.43555 18.2383 8.68164 17.9102 8.77734 17.4453L9.95312 11.8398L10.0078 11.8398L10.0078 17.6504C10.0078 18.1016 10.2539 18.4023 10.6914 18.4023C11.1426 18.4023 11.4023 18.1152 11.4023 17.6504L11.4023 10.582C11.4023 9.88477 10.9512 9.47461 10.2539 9.47461C9.625 9.47461 9.25586 9.74805 9.13281 10.3906L7.9707 16.1465L7.95703 16.1465L6.75391 10.3906C6.61719 9.70703 6.2207 9.47461 5.64648 9.47461C4.83984 9.47461 4.49805 10.0078 4.49805 10.582L4.49805 17.6504C4.49805 18.1016 4.75781 18.4023 5.20898 18.4023ZM13.2617 18.375C13.7266 18.375 14.0547 18.1152 14.0547 17.5547L14.0547 15.4082L14.9707 15.4082C16.5703 15.4082 17.377 14.0273 17.377 12.5098C17.377 10.9648 16.5977 9.61133 15.0664 9.61133L13.2617 9.61133C12.8242 9.61133 12.4961 9.85742 12.4961 10.4316L12.4961 17.5547C12.4961 18.1562 12.8789 18.375 13.2617 18.375ZM14.0547 14.1641L14.0547 10.8691L14.6562 10.8691C15.5312 10.8691 15.832 11.6348 15.832 12.5098C15.832 13.3848 15.5312 14.1641 14.6426 14.1641ZM18.9766 18.4023C19.4961 18.4023 19.7695 18.0469 19.7695 17.541L19.7695 14.5195L21.875 14.5195L21.875 17.541C21.875 17.9922 22.1211 18.4023 22.668 18.4023C23.1738 18.4023 23.4473 18.0742 23.4473 17.541L23.4473 10.3086C23.4473 9.77539 23.1602 9.47461 22.668 9.47461C22.1348 9.47461 21.875 9.81641 21.875 10.3086L21.875 13.207L19.7695 13.207L19.7695 10.3086C19.7695 9.80273 19.4961 9.47461 18.9766 9.47461C18.4707 9.47461 18.1973 9.80273 18.1973 10.3086L18.1973 17.541C18.1973 18.0469 18.4707 18.4023 18.9766 18.4023Z" fill="black" fill-opacity="0.85"/>
 </g>
</svg>
