<?xml version="1.0" encoding="UTF-8"?>
<!--Generator: Apple Native CoreSVG 326-->
<!DOCTYPE svg
PUBLIC "-//W3C//DTD SVG 1.1//EN"
       "http://www.w3.org/Graphics/SVG/1.1/DTD/svg11.dtd">
<svg version="1.1" xmlns="http://www.w3.org/2000/svg" xmlns:xlink="http://www.w3.org/1999/xlink" viewBox="0 0 42.5195 20.7949">
 <g>
  <rect height="20.7949" opacity="0" width="42.5195" x="0" y="0"/>
  <path d="M1.16211 20.7812C1.91406 20.7812 2.32422 20.2754 2.32422 19.5508L2.32422 3.91016L2.29688 3.91016L5.63281 18.9766C5.81055 19.8242 6.33008 20.4668 7.21875 20.4668C8.09375 20.4668 8.59961 19.8105 8.79102 18.9355L12.127 3.91016L12.0859 3.91016L12.0859 19.5508C12.0859 20.248 12.4688 20.7812 13.248 20.7812C14 20.7812 14.4238 20.3164 14.4238 19.5508L14.4238 1.90039C14.4238 0.833984 13.6855 0 12.4961 0C11.4434 0 10.8145 0.574219 10.582 1.6543L7.21875 17.1035L7.25977 17.1035L3.82812 1.6543C3.58203 0.574219 2.98047 0 1.90039 0C0.710938 0 0 0.847656 0 1.90039L0 19.5508C0 20.2207 0.369141 20.7812 1.16211 20.7812ZM19.291 20.7129C20.043 20.7129 20.5488 20.2617 20.5488 19.4004L20.5488 13.207L23.0234 13.207C26.4688 13.207 28.2598 10.1719 28.2598 6.72656C28.2598 3.30859 26.4824 0.259766 23.1328 0.259766L19.2637 0.259766C18.4707 0.259766 18.0332 0.806641 18.0332 1.58594L18.0332 19.4004C18.0332 20.2207 18.4707 20.7129 19.291 20.7129ZM20.5488 11.0195L20.5488 2.47461L22.5449 2.47461C24.8281 2.47461 25.7578 4.36133 25.7578 6.72656C25.7578 9.0918 24.8555 11.0195 22.5449 11.0195ZM32.4297 20.7812C33.2773 20.7812 33.6738 20.1523 33.6738 19.3867L33.6738 11.2793L39.6348 11.2793L39.6348 19.3867C39.6348 20.207 40.0723 20.7812 40.9062 20.7812C41.7266 20.7812 42.1641 20.207 42.1641 19.3867L42.1641 1.39453C42.1641 0.560547 41.7266 0 40.9062 0C40.0723 0 39.6348 0.560547 39.6348 1.39453L39.6348 9.05078L33.6738 9.05078L33.6738 1.39453C33.6738 0.615234 33.2773 0 32.4297 0C31.5957 0 31.1582 0.560547 31.1582 1.39453L31.1582 19.3867C31.1582 20.207 31.5957 20.7812 32.4297 20.7812Z" fill="black" fill-opacity="0.85"/>
 </g>
</svg>
