<?xml version="1.0" encoding="UTF-8"?>
<!--Generator: Apple Native CoreSVG 326-->
<!DOCTYPE svg
PUBLIC "-//W3C//DTD SVG 1.1//EN"
       "http://www.w3.org/Graphics/SVG/1.1/DTD/svg11.dtd">
<svg version="1.1" xmlns="http://www.w3.org/2000/svg" xmlns:xlink="http://www.w3.org/1999/xlink" viewBox="0 0 34.5352 27.3574">
 <g>
  <rect height="27.3574" opacity="0" width="34.5352" x="0" y="0"/>
  <path d="M25.0742 26.2227C25.0742 26.8379 24.5684 27.3301 23.9668 27.3301L10.2129 27.3301C9.61133 27.3301 9.10547 26.8379 9.10547 26.2227C9.10547 25.6074 9.61133 25.1152 10.2129 25.1152L23.9668 25.1152C24.5684 25.1152 25.0742 25.6074 25.0742 26.2227ZM34.1797 3.51367L34.1797 19.1816C34.1797 21.5605 33.0039 22.6953 30.666 22.6953L3.51367 22.6953C1.18945 22.6953 0 21.5605 0 19.1816L0 3.51367C0 1.13477 1.18945 0 3.51367 0L30.666 0C33.0039 0 34.1797 1.13477 34.1797 3.51367ZM21.3691 4.11523L17.1582 5.16797C16.4609 5.3457 16.2969 5.48242 16.2969 6.33008L16.2969 12.7832C16.2969 13.4258 16.2422 13.5625 15.5312 13.7402L14.2051 14.0957C12.9062 14.4238 11.8125 15.2031 11.8125 16.6113C11.8125 17.8281 12.7285 18.7168 14.1641 18.7168C16.2148 18.7168 17.6094 17.2539 17.6094 15.1758L17.6094 10.2539C17.6094 9.7207 17.7324 9.58398 18.0605 9.51562L21.4238 8.69531C22.1211 8.53125 22.3125 8.38086 22.3125 7.54688L22.3125 4.7168C22.3125 4.16992 22.1348 3.92383 21.3691 4.11523Z" fill="black" fill-opacity="0.85"/>
 </g>
</svg>
