<?xml version="1.0" encoding="UTF-8"?>
<!--Generator: Apple Native CoreSVG 326-->
<!DOCTYPE svg
PUBLIC "-//W3C//DTD SVG 1.1//EN"
       "http://www.w3.org/Graphics/SVG/1.1/DTD/svg11.dtd">
<svg version="1.1" xmlns="http://www.w3.org/2000/svg" xmlns:xlink="http://www.w3.org/1999/xlink" viewBox="0 0 31.8281 27.3027">
 <g>
  <rect height="27.3027" opacity="0" width="31.8281" x="0" y="0"/>
  <path d="M22.5449 23.707C22.5449 25.8125 24.1582 27.2754 26.4414 27.2754C28.4512 27.2754 31.4727 25.7852 31.4727 21.793L31.4727 7.90234C31.4727 7.41016 31.0488 6.98633 30.5566 6.98633C30.0508 6.98633 29.627 7.41016 29.627 7.90234L29.627 17.9648C29.627 18.6484 29.3535 19.0859 28.7656 19.1953L26.5781 19.6602C23.8301 20.2344 22.5449 21.6289 22.5449 23.707Z" fill="black" fill-opacity="0.85"/>
  <path d="M12.4141 16.7344C12.4141 18.8262 14.041 20.3027 16.3105 20.3027C18.334 20.3027 21.3418 18.8125 21.3418 14.8066L21.3418 0.916016C21.3418 0.423828 20.9316 0 20.4258 0C19.9199 0 19.4961 0.423828 19.4961 0.916016L19.4961 10.9922C19.4961 11.6621 19.2363 12.0996 18.6348 12.2227L16.4609 12.6738C13.6992 13.248 12.4141 14.6426 12.4141 16.7344Z" fill="black" fill-opacity="0.85"/>
  <path d="M0 23.707C0 25.8125 1.62695 27.2754 3.89648 27.2754C5.91992 27.2754 8.92773 25.7852 8.92773 21.793L8.92773 7.90234C8.92773 7.39648 8.51758 6.98633 8.01172 6.98633C7.50586 6.98633 7.08203 7.39648 7.08203 7.90234L7.08203 17.9648C7.08203 18.6348 6.82227 19.0859 6.2207 19.1953L4.04688 19.6465C1.28516 20.2344 0 21.6152 0 23.707Z" fill="black" fill-opacity="0.85"/>
 </g>
</svg>
