<?xml version="1.0" encoding="UTF-8"?>
<!--Generator: Apple Native CoreSVG 326-->
<!DOCTYPE svg
PUBLIC "-//W3C//DTD SVG 1.1//EN"
       "http://www.w3.org/Graphics/SVG/1.1/DTD/svg11.dtd">
<svg version="1.1" xmlns="http://www.w3.org/2000/svg" xmlns:xlink="http://www.w3.org/1999/xlink" viewBox="0 0 28.2461 27.9043">
 <g>
  <rect height="27.9043" opacity="0" width="28.2461" x="0" y="0"/>
  <path d="M13.9453 27.8906C21.6426 27.8906 27.8906 21.6289 27.8906 13.9453C27.8906 6.24805 21.6426 0 13.9453 0C6.26172 0 0 6.24805 0 13.9453C0 21.6289 6.26172 27.8906 13.9453 27.8906Z" fill="black" fill-opacity="0.85"/>
  <path d="M14.1504 10.4316C14.041 9.54297 14.3965 8.68164 15.1895 7.88867L19.4141 12.127C18.6484 12.9062 17.7598 13.2754 16.8711 13.1797L14.793 15.0938L14.793 20.4121C14.793 20.877 14.4375 21.2324 13.9863 21.2324C13.5078 21.2324 13.166 20.877 13.166 20.4121L13.166 16.625L9.65234 19.8652C9.31055 20.1797 8.85938 20.207 8.51758 19.9336L7.39648 20.7812C7.19141 20.9316 6.97266 20.9043 6.78125 20.7402L6.5625 20.5352C6.37109 20.3711 6.37109 20.1113 6.52148 19.9062L7.36914 18.8125C7.08203 18.457 7.0957 18.0059 7.4375 17.6367ZM8.51758 18.3477L8.98242 18.8125L15.4766 12.6328C15.3398 12.5234 15.1895 12.4004 15.0527 12.2637C14.8887 12.0996 14.7793 11.9629 14.6973 11.7988ZM20.2207 7.08203C21.5195 8.35352 21.4648 10.0762 20.125 11.4023L15.9004 7.17773C17.2266 5.85156 18.9355 5.79688 20.2207 7.08203Z" fill="white"/>
 </g>
</svg>
