<?xml version="1.0" encoding="UTF-8"?>
<!--Generator: Apple Native CoreSVG 326-->
<!DOCTYPE svg
PUBLIC "-//W3C//DTD SVG 1.1//EN"
       "http://www.w3.org/Graphics/SVG/1.1/DTD/svg11.dtd">
<svg version="1.1" xmlns="http://www.w3.org/2000/svg" xmlns:xlink="http://www.w3.org/1999/xlink" viewBox="0 0 39.0742 15.6543">
 <g>
  <rect height="15.6543" opacity="0" width="39.0742" x="0" y="0"/>
  <path d="M10.5684 15.6543C14.2461 15.6543 17.3906 14.4512 19.3594 12.291C21.3281 14.4512 24.4727 15.6543 28.1504 15.6543C34.0977 15.6543 38.7188 12.0449 38.7188 7.39648C38.7188 5.45508 37.9121 4.30664 36.4902 4.30664C35.9023 4.30664 35.3965 4.55273 34.9316 5.05859C34.3574 5.6875 33.4824 6.125 32.4844 6.125C29.0527 6.125 28.2598 1.4082 22.6406 1.4082C21.3828 1.4082 20.2617 1.76367 19.3594 2.40625C18.457 1.76367 17.3359 1.4082 16.0781 1.4082C10.459 1.4082 9.66602 6.125 6.23438 6.125C5.23633 6.125 4.36133 5.6875 3.78711 5.05859C3.32227 4.55273 2.81641 4.30664 2.22852 4.30664C0.806641 4.30664 0 5.45508 0 7.39648C0 12.0449 4.62109 15.6543 10.5684 15.6543ZM10.5684 13.4531C5.86523 13.4531 2.20117 10.7734 2.20117 7.38281C2.20117 7 2.54297 6.97266 2.76172 7.12305C3.58203 7.90234 4.89453 8.32617 6.23438 8.32617C8.62695 8.32617 10.2129 6.98633 11.5664 5.82422C12.9609 4.64844 14.1367 3.60938 16.0781 3.60938C17.377 3.60938 18.3887 4.18359 18.9082 5.12695C19.1133 5.52344 19.6055 5.53711 19.7969 5.12695C20.3164 4.18359 21.3418 3.60938 22.6406 3.60938C24.582 3.60938 25.7578 4.64844 27.1523 5.82422C28.5059 6.98633 30.0918 8.32617 32.4844 8.32617C33.8242 8.32617 35.1367 7.88867 35.998 7.06836C36.2305 6.9043 36.5176 6.91797 36.5176 7.38281C36.5176 10.7734 32.8535 13.4531 28.1504 13.4531C24.0898 13.4531 21.0547 11.8262 19.9062 9.1875C19.6875 8.68164 19.0312 8.66797 18.8125 9.1875C17.6777 11.8262 14.6426 13.4531 10.5684 13.4531Z" fill="black" fill-opacity="0.85"/>
 </g>
</svg>
