<?xml version="1.0" encoding="UTF-8"?>
<!--Generator: Apple Native CoreSVG 326-->
<!DOCTYPE svg
PUBLIC "-//W3C//DTD SVG 1.1//EN"
       "http://www.w3.org/Graphics/SVG/1.1/DTD/svg11.dtd">
<svg version="1.1" xmlns="http://www.w3.org/2000/svg" xmlns:xlink="http://www.w3.org/1999/xlink" viewBox="0 0 28.2461 27.9043">
 <g>
  <rect height="27.9043" opacity="0" width="28.2461" x="0" y="0"/>
  <path d="M13.9453 27.8906C21.6426 27.8906 27.8906 21.6426 27.8906 13.9453C27.8906 6.24805 21.6426 0 13.9453 0C6.24805 0 0 6.24805 0 13.9453C0 21.6426 6.24805 27.8906 13.9453 27.8906ZM13.9453 25.5664C7.51953 25.5664 2.32422 20.3711 2.32422 13.9453C2.32422 7.51953 7.51953 2.32422 13.9453 2.32422C20.3711 2.32422 25.5664 7.51953 25.5664 13.9453C25.5664 20.3711 20.3711 25.5664 13.9453 25.5664Z" fill="black" fill-opacity="0.85"/>
  <path d="M6.72656 13.3301L6.72656 19.0723C6.72656 19.5645 7.06836 19.8516 7.51953 19.8516C7.9707 19.8379 8.32617 19.5508 8.32617 19.0723L8.32617 12.1133L8.01172 12.1133C7.23242 12.1133 6.72656 12.5645 6.72656 13.3301ZM8.90039 20.8496L19.0996 20.8496C20.4531 20.8496 21.123 20.1934 21.123 18.8672L21.123 9.03711C21.123 7.69727 20.4531 7.05469 19.0996 7.05469L11.5938 7.05469C10.2402 7.05469 9.57031 7.69727 9.57031 9.03711L9.57031 19.5098C9.57031 20.1934 9.40625 20.5762 8.90039 20.8496ZM12.1953 10.9102C11.9355 10.9102 11.7441 10.7324 11.7441 10.4727C11.7441 10.2402 11.9219 10.0625 12.1953 10.0625L18.5117 10.0625C18.7578 10.0625 18.9355 10.2402 18.9355 10.4727C18.9355 10.7324 18.7578 10.9102 18.5117 10.9102ZM12.1953 13.1797C11.9355 13.1797 11.7441 13.002 11.7441 12.7559C11.7441 12.5098 11.9219 12.332 12.1953 12.332L18.5117 12.332C18.7578 12.332 18.9355 12.5098 18.9355 12.7559C18.9355 13.002 18.7578 13.1797 18.5117 13.1797ZM16.1875 15.4902C15.9277 15.4902 15.75 15.3125 15.75 15.0801C15.75 14.834 15.9277 14.6289 16.1875 14.6289L18.5117 14.6289C18.7578 14.6289 18.9355 14.834 18.9355 15.0801C18.9355 15.3125 18.7578 15.4902 18.5117 15.4902ZM16.1875 17.7734C15.9277 17.7734 15.75 17.5957 15.75 17.3496C15.75 17.1035 15.9277 16.9258 16.1875 16.9258L18.5117 16.9258C18.7578 16.9258 18.9355 17.1035 18.9355 17.3496C18.9355 17.5957 18.7578 17.7734 18.5117 17.7734ZM12.4961 17.7734C12.0176 17.7734 11.7441 17.5 11.7441 17.0215L11.7441 15.3945C11.7441 14.9297 12.0176 14.6289 12.4961 14.6289L14.1094 14.6289C14.5879 14.6289 14.875 14.9297 14.875 15.3945L14.875 17.0215C14.875 17.5 14.5879 17.7734 14.1094 17.7734Z" fill="black" fill-opacity="0.85"/>
 </g>
</svg>
