<?xml version="1.0" encoding="UTF-8"?>
<!--Generator: Apple Native CoreSVG 326-->
<!DOCTYPE svg
PUBLIC "-//W3C//DTD SVG 1.1//EN"
       "http://www.w3.org/Graphics/SVG/1.1/DTD/svg11.dtd">
<svg version="1.1" xmlns="http://www.w3.org/2000/svg" xmlns:xlink="http://www.w3.org/1999/xlink" viewBox="0 0 31.4453 29.3262">
 <g>
  <rect height="29.3262" opacity="0" width="31.4453" x="0" y="0"/>
  <path d="M0 25.1836C0 27.9043 1.35352 29.3125 4.12891 29.3125L26.7969 29.3125C29.668 29.3125 31.0898 27.9043 31.0898 25.0879L31.0898 4.23828C31.0898 1.42188 29.668 0 26.7969 0L10.3223 0C7.46484 0 6.0293 1.42188 6.0293 4.23828L6.0293 10.7598L2.76172 10.7598C1.02539 10.7598 0 11.7031 0 13.3301ZM2.20117 25.1836L2.20117 13.7539C2.20117 13.248 2.50195 12.9609 3.00781 12.9609L6.0293 12.9609L6.0293 25.1836C6.0293 26.3184 5.19531 27.1113 4.12891 27.1113C3.04883 27.1113 2.20117 26.2773 2.20117 25.1836ZM7.76562 27.1113C8.06641 26.5234 8.23047 25.8398 8.23047 25.0469L8.23047 4.36133C8.23047 2.93945 8.99609 2.20117 10.3633 2.20117L26.7559 2.20117C28.123 2.20117 28.8887 2.93945 28.8887 4.36133L28.8887 24.9648C28.8887 26.3867 28.123 27.1113 26.7559 27.1113ZM11.7852 8.14844L25.3613 8.14844C25.8398 8.14844 26.209 7.76562 26.209 7.28711C26.209 6.82227 25.8398 6.4668 25.3613 6.4668L11.7852 6.4668C11.293 6.4668 10.9238 6.82227 10.9238 7.28711C10.9238 7.76562 11.293 8.14844 11.7852 8.14844ZM11.7852 12.9609L25.3613 12.9609C25.8398 12.9609 26.209 12.5918 26.209 12.127C26.209 11.6484 25.8398 11.2793 25.3613 11.2793L11.7852 11.2793C11.293 11.2793 10.9238 11.6484 10.9238 12.127C10.9238 12.5918 11.293 12.9609 11.7852 12.9609ZM12.5918 22.709L16.1328 22.709C17.1719 22.709 17.8008 22.0801 17.8008 21.041L17.8008 17.7871C17.8008 16.7344 17.1719 16.1055 16.1328 16.1055L12.5918 16.1055C11.5391 16.1055 10.9102 16.7344 10.9102 17.7871L10.9102 21.041C10.9102 22.0801 11.5391 22.709 12.5918 22.709ZM20.2617 17.7871L25.3477 17.7871C25.8398 17.7871 26.1953 17.4316 26.1953 16.9668C26.1953 16.4746 25.8398 16.1055 25.3477 16.1055L20.2617 16.1055C19.7695 16.1055 19.4141 16.4746 19.4141 16.9668C19.4141 17.4316 19.7695 17.7871 20.2617 17.7871ZM20.2617 22.709L25.3477 22.709C25.8398 22.709 26.1953 22.3535 26.1953 21.8887C26.1953 21.4102 25.8398 21.0273 25.3477 21.0273L20.2617 21.0273C19.7695 21.0273 19.4141 21.4102 19.4141 21.8887C19.4141 22.3535 19.7695 22.709 20.2617 22.709Z" fill="black" fill-opacity="0.85"/>
 </g>
</svg>
