<?xml version="1.0" encoding="UTF-8"?>
<!--Generator: Apple Native CoreSVG 326-->
<!DOCTYPE svg
PUBLIC "-//W3C//DTD SVG 1.1//EN"
       "http://www.w3.org/Graphics/SVG/1.1/DTD/svg11.dtd">
<svg version="1.1" xmlns="http://www.w3.org/2000/svg" xmlns:xlink="http://www.w3.org/1999/xlink" viewBox="0 0 28.2461 27.9043">
 <g>
  <rect height="27.9043" opacity="0" width="28.2461" x="0" y="0"/>
  <path d="M13.9453 27.9043C21.6426 27.9043 27.8906 21.6562 27.8906 13.959C27.8906 6.27539 21.6426 0.0136719 13.9453 0.0136719C6.26172 0.0136719 0 6.27539 0 13.959C0 21.6562 6.26172 27.9043 13.9453 27.9043Z" fill="black" fill-opacity="0.85"/>
  <path d="M6.61719 13.3301C6.61719 12.5645 7.10938 12.0996 7.90234 12.0996L8.23047 12.0996L8.23047 19.168C8.23047 19.6465 7.875 19.9609 7.42383 19.9609C6.95898 19.9609 6.61719 19.6602 6.61719 19.168ZM8.81836 20.9727C9.33789 20.6855 9.50195 20.3164 9.50195 19.6191L9.50195 8.98242C9.50195 7.62891 10.1719 6.95898 11.5391 6.95898L19.1816 6.95898C20.5488 6.95898 21.2324 7.62891 21.2324 8.98242L21.2324 18.9492C21.2324 20.3164 20.5488 20.9727 19.1816 20.9727ZM12.1543 10.8828L18.5664 10.8828C18.8398 10.8828 19.0176 10.6914 19.0176 10.4316C19.0176 10.1992 18.8398 10.0215 18.5664 10.0215L12.1543 10.0215C11.8945 10.0215 11.7168 10.1992 11.7168 10.4316C11.7168 10.6914 11.8945 10.8828 12.1543 10.8828ZM12.1543 13.1934L18.5664 13.1934C18.8398 13.1934 19.0176 13.002 19.0176 12.7559C19.0176 12.4961 18.8398 12.3184 18.5664 12.3184L12.1543 12.3184C11.8945 12.3184 11.7168 12.4961 11.7168 12.7559C11.7168 13.002 11.8945 13.1934 12.1543 13.1934ZM16.2148 15.5312L18.5664 15.5312C18.8398 15.5312 19.0176 15.3398 19.0176 15.1074C19.0176 14.8613 18.8398 14.6699 18.5664 14.6699L16.2148 14.6699C15.9551 14.6699 15.7773 14.8613 15.7773 15.1074C15.7773 15.3398 15.9551 15.5312 16.2148 15.5312ZM16.2148 17.8555L18.5664 17.8555C18.8398 17.8555 19.0176 17.6777 19.0176 17.418C19.0176 17.1719 18.8398 16.9805 18.5664 16.9805L16.2148 16.9805C15.9551 16.9805 15.7773 17.1719 15.7773 17.418C15.7773 17.6777 15.9551 17.8555 16.2148 17.8555ZM12.4551 17.8555L14.0957 17.8555C14.5879 17.8555 14.8887 17.5684 14.8887 17.0762L14.8887 15.4492C14.8887 14.957 14.5879 14.6699 14.0957 14.6699L12.4551 14.6699C11.9902 14.6699 11.7031 14.957 11.7031 15.4492L11.7031 17.0762C11.7031 17.5684 11.9902 17.8555 12.4551 17.8555Z" fill="white"/>
 </g>
</svg>
