<?xml version="1.0" encoding="UTF-8"?>
<!--Generator: Apple Native CoreSVG 326-->
<!DOCTYPE svg
PUBLIC "-//W3C//DTD SVG 1.1//EN"
       "http://www.w3.org/Graphics/SVG/1.1/DTD/svg11.dtd">
<svg version="1.1" xmlns="http://www.w3.org/2000/svg" xmlns:xlink="http://www.w3.org/1999/xlink" viewBox="0 0 25.5664 25.2246">
 <g>
  <rect height="25.2246" opacity="0" width="25.5664" x="0" y="0"/>
  <path d="M23.6113 1.61328C22.2168 0.21875 20.248 0 17.9102 0L7.25977 0C4.96289 0 2.99414 0.21875 1.59961 1.61328C0.205078 3.00781 0 4.96289 0 7.25977L0 17.9102C0 20.248 0.205078 22.2031 1.59961 23.5977C2.99414 24.9922 4.96289 25.2109 7.28711 25.2109L17.9102 25.2109C20.248 25.2109 22.2168 24.9922 23.6113 23.5977C25.0059 22.2031 25.2109 20.248 25.2109 17.9102L25.2109 7.28711C25.2109 4.94922 25.0059 3.00781 23.6113 1.61328ZM23.0098 6.91797L23.0098 18.293C23.0098 19.7012 22.832 21.1641 21.998 21.9844C21.1777 22.8184 19.7012 23.0098 18.293 23.0098L6.91797 23.0098C5.50977 23.0098 4.0332 22.8184 3.19922 21.9844C2.37891 21.1641 2.20117 19.7012 2.20117 18.293L2.20117 6.95898C2.20117 5.50977 2.37891 4.04688 3.19922 3.21289C4.0332 2.39258 5.52344 2.20117 6.95898 2.20117L18.293 2.20117C19.7012 2.20117 21.1777 2.39258 21.998 3.22656C22.832 4.04688 23.0098 5.50977 23.0098 6.91797Z" fill="black" fill-opacity="0.85"/>
  <path d="M12.6055 19.9336C16.666 19.9336 19.9336 16.6523 19.9336 12.6055C19.9336 8.55859 16.666 5.27734 12.6055 5.27734C8.55859 5.27734 5.29102 8.55859 5.29102 12.6055C5.29102 16.6523 8.55859 19.9336 12.6055 19.9336ZM12.6191 17.9512C9.66602 17.9512 7.28711 15.5586 7.28711 12.6055C7.28711 9.65234 9.66602 7.25977 12.6191 7.25977C15.5859 7.25977 17.9648 9.65234 17.9648 12.6055C17.9648 15.5586 15.5859 17.9512 12.6191 17.9512ZM16.4062 17.8555L17.8691 16.4062L8.80469 7.3418L7.3418 8.80469Z" fill="black" fill-opacity="0.85"/>
 </g>
</svg>
