<?xml version="1.0" encoding="UTF-8"?>
<!--Generator: Apple Native CoreSVG 326-->
<!DOCTYPE svg
PUBLIC "-//W3C//DTD SVG 1.1//EN"
       "http://www.w3.org/Graphics/SVG/1.1/DTD/svg11.dtd">
<svg version="1.1" xmlns="http://www.w3.org/2000/svg" xmlns:xlink="http://www.w3.org/1999/xlink" viewBox="0 0 28.2461 27.9043">
 <g>
  <rect height="27.9043" opacity="0" width="28.2461" x="0" y="0"/>
  <path d="M13.9453 27.8906C21.6426 27.8906 27.8906 21.6289 27.8906 13.9453C27.8906 6.24805 21.6426 0 13.9453 0C6.26172 0 0 6.24805 0 13.9453C0 21.6289 6.26172 27.8906 13.9453 27.8906Z" fill="black" fill-opacity="0.85"/>
  <path d="M19.2363 15.4766C19.9883 15.4766 20.4805 15.8594 20.4805 16.584C20.4805 17.2949 19.9609 17.6504 19.2363 17.6504L12.5918 17.6504L10.8145 20.084C10.3906 20.6719 9.78906 20.8633 9.21484 20.4395C8.64062 20.0156 8.61328 19.4004 9.06445 18.7988L9.88477 17.6504L8.64062 17.6504C7.91602 17.6504 7.39648 17.2949 7.39648 16.584C7.39648 15.8594 7.88867 15.4766 8.64062 15.4766L11.4844 15.4766L13.7266 12.4414L8.64062 12.4414C7.91602 12.4414 7.39648 12.0859 7.39648 11.3613C7.39648 10.6367 7.88867 10.2676 8.64062 10.2676L15.3125 10.2676L17.0762 7.875C17.5137 7.25977 18.0879 7.10938 18.6758 7.5332C19.2637 7.95703 19.25 8.57227 18.7988 9.16016L17.9922 10.2676L19.2363 10.2676C19.9883 10.2676 20.4805 10.6367 20.4805 11.3613C20.4805 12.0859 19.9609 12.4414 19.2363 12.4414L16.4199 12.4414L14.1777 15.4766Z" fill="white"/>
 </g>
</svg>
