<?xml version="1.0" encoding="UTF-8"?>
<!--Generator: Apple Native CoreSVG 326-->
<!DOCTYPE svg
PUBLIC "-//W3C//DTD SVG 1.1//EN"
       "http://www.w3.org/Graphics/SVG/1.1/DTD/svg11.dtd">
<svg version="1.1" xmlns="http://www.w3.org/2000/svg" xmlns:xlink="http://www.w3.org/1999/xlink" viewBox="0 0 27.6035 25.1973">
 <g>
  <rect height="25.1973" opacity="0" width="27.6035" x="0" y="0"/>
  <path d="M4.29297 25.1973L22.9688 25.1973C25.8262 25.1973 27.248 23.7754 27.248 20.959L27.248 4.26562C27.248 1.44922 25.8262 0.0273438 22.9688 0.0273438L4.29297 0.0273438C1.43555 0.0273438 0 1.43555 0 4.26562L0 20.959C0 23.7891 1.43555 25.1973 4.29297 25.1973ZM4.08789 22.9961C2.87109 22.9961 2.20117 22.3535 2.20117 21.082L2.20117 8.18945C2.20117 6.93164 2.87109 6.27539 4.08789 6.27539L23.1465 6.27539C24.3633 6.27539 25.0469 6.93164 25.0469 8.18945L25.0469 21.082C25.0469 22.3535 24.3633 22.9961 23.1465 22.9961Z" fill="black" fill-opacity="0.85"/>
 </g>
</svg>
