<?xml version="1.0" encoding="UTF-8"?>
<!--Generator: Apple Native CoreSVG 326-->
<!DOCTYPE svg
PUBLIC "-//W3C//DTD SVG 1.1//EN"
       "http://www.w3.org/Graphics/SVG/1.1/DTD/svg11.dtd">
<svg version="1.1" xmlns="http://www.w3.org/2000/svg" xmlns:xlink="http://www.w3.org/1999/xlink" viewBox="0 0 25.5254 25.1699">
 <g>
  <rect height="25.1699" opacity="0" width="25.5254" x="0" y="0"/>
  <path d="M4.29297 25.1699L20.877 25.1699C23.748 25.1699 25.1699 23.7617 25.1699 20.9453L25.1699 4.23828C25.1699 1.42188 23.748 0 20.877 0L4.29297 0C1.43555 0 0 1.42188 0 4.23828L0 20.9453C0 23.7617 1.43555 25.1699 4.29297 25.1699Z" fill="black" fill-opacity="0.85"/>
  <path d="M17.8828 14.1094C18.6348 14.1094 19.127 14.4922 19.127 15.2168C19.127 15.9277 18.6074 16.2832 17.8828 16.2832L11.2383 16.2832L9.46094 18.7168C9.03711 19.3047 8.43555 19.4961 7.86133 19.0723C7.28711 18.6484 7.25977 18.0332 7.71094 17.4316L8.53125 16.2832L7.28711 16.2832C6.5625 16.2832 6.04297 15.9277 6.04297 15.2168C6.04297 14.4922 6.53516 14.1094 7.28711 14.1094L10.1309 14.1094L12.373 11.0742L7.28711 11.0742C6.5625 11.0742 6.04297 10.7188 6.04297 9.99414C6.04297 9.26953 6.53516 8.90039 7.28711 8.90039L13.959 8.90039L15.7227 6.50781C16.1602 5.89258 16.7344 5.74219 17.3223 6.16602C17.9102 6.58984 17.8965 7.20508 17.459 7.79297L16.6523 8.90039L17.8828 8.90039C18.6348 8.90039 19.127 9.26953 19.127 9.99414C19.127 10.7188 18.6074 11.0742 17.8828 11.0742L15.0664 11.0742L12.8242 14.1094Z" fill="white"/>
 </g>
</svg>
