<?xml version="1.0" encoding="UTF-8"?>
<!--Generator: Apple Native CoreSVG 326-->
<!DOCTYPE svg
PUBLIC "-//W3C//DTD SVG 1.1//EN"
       "http://www.w3.org/Graphics/SVG/1.1/DTD/svg11.dtd">
<svg version="1.1" xmlns="http://www.w3.org/2000/svg" xmlns:xlink="http://www.w3.org/1999/xlink" viewBox="0 0 42.0957 20.2754">
 <g>
  <rect height="20.2754" opacity="0" width="42.0957" x="0" y="0"/>
  <path d="M34.5488 20.2344C38.7324 20.2344 41.7402 17.7871 41.7402 14.4512C41.7402 11.7441 39.7852 9.9668 36.6816 9.76172L36.6816 9.70703C39.2793 9.26953 40.8926 7.5332 40.8926 5.09961C40.8926 2.14648 38.2129 0 34.4805 0C31.6641 0 29.3945 1.24414 28.4238 3.28125C28.1641 3.78711 28.0547 4.25195 28.0547 4.78516C28.0547 5.42773 28.4922 5.86523 29.1211 5.86523C29.7363 5.86523 30.0098 5.60547 30.2148 4.97656C30.8027 3.18555 32.3203 2.16016 34.3984 2.16016C36.8457 2.16016 38.418 3.44531 38.418 5.41406C38.418 7.46484 36.7363 8.81836 34.2891 8.81836L32.7852 8.81836C32.1289 8.81836 31.7051 9.21484 31.7051 9.84375C31.7051 10.459 32.1289 10.8691 32.7852 10.8691L34.3164 10.8691C37.3516 10.8691 39.1562 12.1543 39.1562 14.4375C39.1562 16.543 37.2695 18.0195 34.5625 18.0195C32.1973 18.0195 30.5156 16.9805 29.9004 15.1758C29.6816 14.5879 29.3535 14.3145 28.7656 14.3145C28.0684 14.3145 27.6035 14.7656 27.6035 15.4766C27.6035 15.9551 27.7266 16.3926 27.9863 16.8711C29.1211 19.0312 31.5 20.2344 34.5488 20.2344Z" fill="black" fill-opacity="0.85"/>
  <path d="M13.207 19.9336L24.5684 19.9336C25.252 19.9336 25.7031 19.4961 25.7031 18.8398C25.7031 18.1836 25.252 17.7324 24.5684 17.7324L15.4629 17.7324L15.4629 17.6641L20.8086 12.4277C24.0352 9.26953 25.0195 7.62891 25.0195 5.53711C25.0195 2.39258 22.2441 0 18.5391 0C15.627 0 13.1387 1.58594 12.3047 3.99219C12.1406 4.44336 12.0723 4.83984 12.0723 5.18164C12.0723 5.86523 12.4824 6.31641 13.1523 6.31641C13.7949 6.31641 14.0684 6.01562 14.2734 5.33203C14.3828 4.9082 14.5332 4.51172 14.752 4.16992C15.4766 2.93945 16.8301 2.17383 18.5391 2.17383C20.7402 2.17383 22.5176 3.73242 22.5176 5.67383C22.5176 7.24609 21.8613 8.29883 19.168 10.9785L12.7695 17.377C12.1953 17.9375 12.0039 18.293 12.0039 18.7852C12.0039 19.4961 12.4824 19.9336 13.207 19.9336Z" fill="black" fill-opacity="0.85"/>
  <path d="M6.97266 20.207C7.72461 20.207 8.2168 19.7148 8.2168 18.9629L8.2168 1.49023C8.2168 0.601562 7.65625 0.109375 6.80859 0.109375C6.17969 0.109375 5.83789 0.300781 5.26367 0.669922L0.710938 3.62305C0.177734 3.97852 0 4.29297 0 4.74414C0 5.30469 0.410156 5.71484 1.01172 5.71484C1.38086 5.71484 1.55859 5.60547 1.80469 5.44141L5.70117 2.99414L5.75586 2.99414L5.75586 18.9629C5.75586 19.7148 6.2207 20.207 6.97266 20.207Z" fill="black" fill-opacity="0.85"/>
 </g>
</svg>
