<?xml version="1.0" encoding="UTF-8"?>
<!--Generator: Apple Native CoreSVG 326-->
<!DOCTYPE svg
PUBLIC "-//W3C//DTD SVG 1.1//EN"
       "http://www.w3.org/Graphics/SVG/1.1/DTD/svg11.dtd">
<svg version="1.1" xmlns="http://www.w3.org/2000/svg" xmlns:xlink="http://www.w3.org/1999/xlink" viewBox="0 0 25.5254 25.1699">
 <g>
  <rect height="25.1699" opacity="0" width="25.5254" x="0" y="0"/>
  <path d="M4.29297 25.1699L20.877 25.1699C23.748 25.1699 25.1699 23.7617 25.1699 20.9453L25.1699 4.23828C25.1699 1.42188 23.748 0 20.877 0L4.29297 0C1.43555 0 0 1.42188 0 4.23828L0 20.9453C0 23.7617 1.43555 25.1699 4.29297 25.1699ZM4.32031 22.9688C2.95312 22.9688 2.20117 22.2441 2.20117 20.8223L2.20117 4.36133C2.20117 2.93945 2.95312 2.20117 4.32031 2.20117L20.8496 2.20117C22.2031 2.20117 22.9688 2.93945 22.9688 4.36133L22.9688 20.8223C22.9688 22.2441 22.2031 22.9688 20.8496 22.9688Z" fill="black" fill-opacity="0.85"/>
  <path d="M12.5918 18.9902C16.0918 18.9902 18.5117 16.3105 18.5117 12.4551C18.5117 8.58594 16.0918 5.90625 12.5918 5.90625C9.10547 5.90625 6.68555 8.58594 6.68555 12.4551C6.68555 16.3105 9.10547 18.9902 12.5918 18.9902ZM12.5918 17.2676C10.3359 17.2676 8.85938 15.3672 8.85938 12.4551C8.85938 9.5293 10.3359 7.62891 12.5918 7.62891C14.8477 7.62891 16.3242 9.5293 16.3242 12.4551C16.3242 15.3672 14.8477 17.2676 12.5918 17.2676Z" fill="black" fill-opacity="0.85"/>
 </g>
</svg>
