<?xml version="1.0" encoding="UTF-8"?>
<!--Generator: Apple Native CoreSVG 326-->
<!DOCTYPE svg
PUBLIC "-//W3C//DTD SVG 1.1//EN"
       "http://www.w3.org/Graphics/SVG/1.1/DTD/svg11.dtd">
<svg version="1.1" xmlns="http://www.w3.org/2000/svg" xmlns:xlink="http://www.w3.org/1999/xlink" viewBox="0 0 27.9043 26.5098">
 <g>
  <rect height="26.5098" opacity="0" width="27.9043" x="0" y="0"/>
  <path d="M9.625 26.4961L17.9238 26.4961C19.6602 26.4961 20.4805 25.9355 21.3828 24.9648L26.4141 19.3867C27.3164 18.3887 27.5488 17.7324 27.5488 16.3789L27.5488 10.1309C27.5488 8.76367 27.3164 8.12109 26.4141 7.12305L21.3828 1.54492C20.4805 0.574219 19.6602 0 17.9238 0L9.625 0C7.88867 0 7.05469 0.574219 6.16602 1.54492L1.13477 7.12305C0.232422 8.12109 0 8.76367 0 10.1309L0 16.3789C0 17.7324 0.232422 18.3887 1.13477 19.3867L6.16602 24.9648C7.05469 25.9355 7.88867 26.4961 9.625 26.4961ZM25.0195 13.248L25.0195 16.1191C25.0195 17.1172 24.8965 17.459 24.3496 18.0605L19.7012 23.1875C18.9355 24.0078 18.5527 24.3086 17.1855 24.3086L10.3633 24.3086C8.99609 24.3086 8.59961 24.0078 7.84766 23.1875L3.18555 18.0605C2.65234 17.459 2.5293 17.1172 2.5293 16.1191L2.5293 13.248Z" fill="black" fill-opacity="0.85"/>
 </g>
</svg>
