<?xml version="1.0" encoding="UTF-8"?>
<!--Generator: Apple Native CoreSVG 326-->
<!DOCTYPE svg
PUBLIC "-//W3C//DTD SVG 1.1//EN"
       "http://www.w3.org/Graphics/SVG/1.1/DTD/svg11.dtd">
<svg version="1.1" xmlns="http://www.w3.org/2000/svg" xmlns:xlink="http://www.w3.org/1999/xlink" viewBox="0 0 28.4512 27.0566">
 <g>
  <rect height="27.0566" opacity="0" width="28.4512" x="0" y="0"/>
  <path d="M9.89844 27.043L18.1973 27.043C19.9336 27.043 20.7539 26.4824 21.6562 25.5117L26.9609 19.6602C27.8496 18.6758 28.0957 18.0059 28.0957 16.6523L28.0957 10.4043C28.0957 9.03711 27.8496 8.38086 26.9609 7.39648L21.6562 1.54492C20.7539 0.574219 19.9336 0 18.1973 0L9.89844 0C8.16211 0 7.32812 0.574219 6.43945 1.54492L1.13477 7.39648C0.232422 8.38086 0 9.03711 0 10.4043L0 16.6523C0 18.0059 0.232422 18.6758 1.13477 19.6602L6.43945 25.5117C7.32812 26.4824 8.16211 27.043 9.89844 27.043Z" fill="black" fill-opacity="0.85"/>
 </g>
</svg>
