<?xml version="1.0" encoding="UTF-8"?>
<!--Generator: Apple Native CoreSVG 326-->
<!DOCTYPE svg
PUBLIC "-//W3C//DTD SVG 1.1//EN"
       "http://www.w3.org/Graphics/SVG/1.1/DTD/svg11.dtd">
<svg version="1.1" xmlns="http://www.w3.org/2000/svg" xmlns:xlink="http://www.w3.org/1999/xlink" viewBox="0 0 48.6481 21.5605">
 <g>
  <rect height="21.5605" opacity="0" width="48.6481" x="0" y="0"/>
  <path d="M0.781102 7.76562L7.79477 18.5527C8.62876 19.8242 9.74985 20.2754 11.4315 20.2754L23.244 20.2754C25.3221 20.2754 26.662 19.7422 27.619 18.5391L36.8202 6.74023L42.1249 5.3457L44.0116 6.95898C45.1327 7.92969 46.5956 6.49414 45.4608 5.48242L43.3963 3.67773C42.9588 3.29492 42.5624 3.14453 41.6874 3.37695L25.1854 7.76562L22.9432 5.5918C22.328 5.00391 21.6717 4.85352 20.8377 4.85352L11.4315 4.85352C11.035 4.85352 10.6795 4.88086 10.3514 4.94922L4.29477 2.66602C1.04087 1.43555-1.28335 4.63477 0.781102 7.76562ZM9.28501 16.0645L9.28501 9.06445C9.28501 7.62891 10.0506 6.84961 11.4725 6.84961L20.3456 6.84961C20.9608 6.84961 21.3846 6.9043 21.8905 7.38281L23.9959 9.41992C24.3924 9.83008 24.8163 9.95312 25.4588 9.77539L33.6209 7.61523L26.5252 16.6797C25.6502 17.8008 24.6385 18.2793 23.244 18.2793L11.4725 18.2793C10.0506 18.2793 9.28501 17.5 9.28501 16.0645ZM2.10727 6.2207C1.42368 5.14062 2.21665 4.0332 3.41977 4.4707L8.0272 6.24805C7.54868 6.9043 7.28891 7.80664 7.28891 8.95508L7.28891 14.1914ZM11.1854 0.998047C11.1854 1.54492 11.6502 1.99609 12.1971 1.99609L20.2772 1.99609C20.8241 1.99609 21.2889 1.54492 21.2889 0.998047C21.2889 0.451172 20.8241 0 20.2772 0L12.1971 0C11.6502 0 11.1854 0.451172 11.1854 0.998047ZM15.2323 6.17969L17.2284 6.17969L17.2284 0.806641L15.2323 0.806641ZM44.9139 21.5469C46.7596 21.5469 48.2909 20.084 48.2909 18.2246C48.2909 17.1719 47.7713 16.1738 47.2518 15.2168L45.2284 11.457C45.16 11.3203 45.037 11.252 44.9139 11.252C44.7635 11.252 44.6815 11.3203 44.6131 11.4707L42.5624 15.2168C42.0565 16.1738 41.537 17.1719 41.537 18.2246C41.537 20.084 43.0545 21.5469 44.9139 21.5469Z" fill="#ff3b30"/>
 </g>
</svg>
