<?xml version="1.0" encoding="UTF-8"?>
<!--Generator: Apple Native CoreSVG 326-->
<!DOCTYPE svg
PUBLIC "-//W3C//DTD SVG 1.1//EN"
       "http://www.w3.org/Graphics/SVG/1.1/DTD/svg11.dtd">
<svg version="1.1" xmlns="http://www.w3.org/2000/svg" xmlns:xlink="http://www.w3.org/1999/xlink" viewBox="0 0 28.2461 27.9043">
 <g>
  <rect height="27.9043" opacity="0" width="28.2461" x="0" y="0"/>
  <path d="M8.91406 16.2695L8.59961 15.1348L1.02539 17.5957L1.39453 18.7168ZM9.69336 17.9102L8.95508 16.9805L2.80273 21.5059L3.51367 22.4629ZM12.8105 19.5645L11.7305 19.0859L9.2832 26.6055L10.4043 26.9883ZM15.1074 8.49023L16.2422 8.83203L18.6211 1.50391L17.5 1.12109ZM18.1699 10.2402L18.9082 11.1562L25.1016 6.57617L24.3906 5.64648ZM19.0039 11.8262L19.4141 12.9199L26.8789 10.5137L26.5098 9.37891ZM13.9453 20.248C17.4316 20.248 20.248 17.4316 20.248 13.9453C20.248 10.459 17.4316 7.64258 13.9453 7.64258C10.459 7.64258 7.64258 10.459 7.64258 13.9453C7.64258 17.4316 10.459 20.248 13.9453 20.248ZM13.9453 18.8398C11.252 18.8398 9.05078 16.6387 9.05078 13.9453C9.05078 11.2383 11.252 9.05078 13.9453 9.05078C16.6523 9.05078 18.8398 11.2383 18.8398 13.9453C18.8398 16.6387 16.6523 18.8398 13.9453 18.8398ZM13.9453 17.2676C15.791 17.2676 17.2676 15.7773 17.2676 13.9453C17.2676 12.0996 15.791 10.623 13.9453 10.623C12.0996 10.623 10.623 12.0996 10.623 13.9453C10.623 15.7773 12.0996 17.2676 13.9453 17.2676ZM13.9453 15.7363C12.9473 15.7363 12.1543 14.9297 12.1543 13.9453C12.1543 12.9473 12.9473 12.1543 13.9453 12.1543C14.9434 12.1543 15.7363 12.9473 15.7363 13.9453C15.7363 14.9297 14.9434 15.7363 13.9453 15.7363ZM13.9453 27.8906C21.6426 27.8906 27.8906 21.6426 27.8906 13.9453C27.8906 6.24805 21.6426 0 13.9453 0C6.24805 0 0 6.24805 0 13.9453C0 21.6426 6.24805 27.8906 13.9453 27.8906ZM13.9453 25.5664C7.51953 25.5664 2.32422 20.3711 2.32422 13.9453C2.32422 7.51953 7.51953 2.32422 13.9453 2.32422C20.3711 2.32422 25.5664 7.51953 25.5664 13.9453C25.5664 20.3711 20.3711 25.5664 13.9453 25.5664Z" fill="black" fill-opacity="0.85"/>
 </g>
</svg>
