<?xml version="1.0" encoding="UTF-8"?>
<!--Generator: Apple Native CoreSVG 326-->
<!DOCTYPE svg
PUBLIC "-//W3C//DTD SVG 1.1//EN"
       "http://www.w3.org/Graphics/SVG/1.1/DTD/svg11.dtd">
<svg version="1.1" xmlns="http://www.w3.org/2000/svg" xmlns:xlink="http://www.w3.org/1999/xlink" viewBox="0 0 32.5938 24.5684">
 <g>
  <rect height="24.5684" opacity="0" width="32.5938" x="0" y="0"/>
  <path d="M10.7734 24.541L21.4648 24.541C29.3945 24.541 32.2383 21.6016 32.2383 14.2871L32.2383 10.2676C32.2383 2.95312 29.3945 0 21.4648 0L10.7734 0C2.84375 0 0 2.95312 0 10.2676L0 14.2871C0 21.6016 2.84375 24.541 10.7734 24.541Z" fill="black" fill-opacity="0.85"/>
  <path d="M9.67969 18.1152C9.02344 18.1152 8.6543 17.7188 8.6543 17.0488L8.6543 7.64258C8.6543 6.94531 9.07812 6.54883 9.66602 6.54883L12.3184 6.54883C14.3828 6.54883 15.5996 8.24414 15.5996 10.3906C15.5996 12.5645 14.3555 14.2051 12.1953 14.2051L10.7051 14.2051L10.7051 17.0488C10.7051 17.7051 10.3633 18.1152 9.67969 18.1152ZM10.7051 12.5781L11.7852 12.5781C13.043 12.5781 13.5488 11.6484 13.5488 10.3906C13.5488 9.06445 12.9746 8.23047 11.7988 8.23047L10.7051 8.23047ZM17.9512 17.9785C17.3086 17.9785 17.0078 17.6367 17.0078 17.1582C17.0078 16.7207 17.2676 16.3652 17.5273 16.0234L19.9746 12.9062C20.7266 11.9492 21.5059 10.8008 21.5059 9.66602C21.5059 8.66797 21.041 7.92969 20.1797 7.92969C19.3867 7.92969 19.0312 8.51758 18.7578 9.46094C18.6211 9.92578 18.334 10.1445 17.8691 10.1445C17.3359 10.1445 17.0215 9.77539 17.0215 9.24219C17.0215 7.7793 18.3887 6.28906 20.1934 6.28906C22.1484 6.28906 23.4473 7.66992 23.4473 9.57031C23.4473 10.8145 22.9824 11.8535 21.5605 13.6035L19.5098 16.2012L19.5098 16.3242L22.8457 16.3242C23.3242 16.3242 23.6523 16.6113 23.6523 17.1582C23.6523 17.6504 23.3516 17.9785 22.8457 17.9785Z" fill="white"/>
 </g>
</svg>
