<?xml version="1.0" encoding="UTF-8"?>
<!--Generator: Apple Native CoreSVG 326-->
<!DOCTYPE svg
PUBLIC "-//W3C//DTD SVG 1.1//EN"
       "http://www.w3.org/Graphics/SVG/1.1/DTD/svg11.dtd">
<svg version="1.1" xmlns="http://www.w3.org/2000/svg" xmlns:xlink="http://www.w3.org/1999/xlink" viewBox="0 0 32.5938 24.5684">
 <g>
  <rect height="24.5684" opacity="0" width="32.5938" x="0" y="0"/>
  <path d="M10.7734 24.541L21.4648 24.541C29.3945 24.541 32.2383 21.6016 32.2383 14.2871L32.2383 10.2676C32.2383 2.95312 29.3945 0 21.4648 0L10.7734 0C2.84375 0 0 2.95312 0 10.2676L0 14.2871C0 21.6016 2.84375 24.541 10.7734 24.541ZM10.7734 22.3398C4.32031 22.3398 2.20117 20.248 2.20117 14.2871L2.20117 10.2676C2.20117 4.30664 4.32031 2.20117 10.7734 2.20117L21.4648 2.20117C27.918 2.20117 30.0371 4.30664 30.0371 10.2676L30.0371 14.2871C30.0371 20.248 27.918 22.3398 21.4648 22.3398Z" fill="black" fill-opacity="0.85"/>
  <path d="M9.88477 17.9375C10.541 17.9375 10.8691 17.541 10.8691 16.9121L10.8691 14.1367L12.3184 14.1367C14.4102 14.1367 15.6133 12.5508 15.6133 10.4453C15.6133 8.36719 14.4375 6.72656 12.4414 6.72656L9.87109 6.72656C9.29688 6.72656 8.88672 7.10938 8.88672 7.7793L8.88672 16.9121C8.88672 17.5547 9.24219 17.9375 9.88477 17.9375ZM10.8691 12.5645L10.8691 8.33984L11.9355 8.33984C13.084 8.33984 13.6309 9.16016 13.6309 10.4453C13.6309 11.6621 13.1387 12.5645 11.9219 12.5645ZM17.8965 17.8008L22.6406 17.8008C23.1191 17.8008 23.4199 17.4863 23.4199 17.0078C23.4199 16.4883 23.1055 16.2012 22.6406 16.2012L19.4004 16.2012L19.4004 16.0918L21.3965 13.5625C22.7637 11.8672 23.2148 10.8555 23.2148 9.65234C23.2148 7.80664 21.957 6.4668 20.0703 6.4668C18.3203 6.4668 16.9941 7.91602 16.9941 9.33789C16.9941 9.84375 17.2949 10.1992 17.8145 10.1992C18.2656 10.1992 18.5391 9.99414 18.6758 9.54297C18.9355 8.62695 19.2773 8.05273 20.0566 8.05273C20.8906 8.05273 21.3418 8.77734 21.3418 9.74805C21.3418 10.8418 20.5898 11.9492 19.8652 12.8789L17.4863 15.9141C17.2266 16.2422 16.9805 16.584 16.9805 17.0078C16.9805 17.4727 17.2676 17.8008 17.8965 17.8008Z" fill="black" fill-opacity="0.85"/>
 </g>
</svg>
