<?xml version="1.0" encoding="UTF-8"?>
<!--Generator: Apple Native CoreSVG 326-->
<!DOCTYPE svg
PUBLIC "-//W3C//DTD SVG 1.1//EN"
       "http://www.w3.org/Graphics/SVG/1.1/DTD/svg11.dtd">
<svg version="1.1" xmlns="http://www.w3.org/2000/svg" xmlns:xlink="http://www.w3.org/1999/xlink" viewBox="0 0 32.5938 24.5684">
 <g>
  <rect height="24.5684" opacity="0" width="32.5938" x="0" y="0"/>
  <path d="M10.7734 24.541L21.4648 24.541C29.3945 24.541 32.2383 21.6016 32.2383 14.2871L32.2383 10.2676C32.2383 2.95312 29.3945 0 21.4648 0L10.7734 0C2.84375 0 0 2.95312 0 10.2676L0 14.2871C0 21.6016 2.84375 24.541 10.7734 24.541Z" fill="black" fill-opacity="0.85"/>
  <path d="M9.55664 18.1152C8.88672 18.1152 8.51758 17.7188 8.51758 17.0488L8.51758 7.64258C8.51758 6.94531 8.94141 6.54883 9.54297 6.54883L12.1953 6.54883C14.2734 6.54883 15.4766 8.24414 15.4766 10.3906C15.4766 12.5645 14.2324 14.2051 12.0859 14.2051L10.5957 14.2051L10.5957 17.0488C10.5957 17.7051 10.2402 18.1152 9.55664 18.1152ZM10.5957 12.5645L11.6621 12.5645C12.9062 12.5645 13.4258 11.6484 13.4258 10.3906C13.4258 9.06445 12.8516 8.2168 11.6758 8.2168L10.5957 8.2168ZM20.3984 18.2246C18.8809 18.2246 17.4453 17.5 17.0488 16.1875C16.9805 15.9551 16.9258 15.709 16.9258 15.4492C16.9258 14.9023 17.2949 14.5605 17.8555 14.5605C18.3066 14.5605 18.6211 14.793 18.7441 15.2578C18.9355 15.9004 19.373 16.584 20.3984 16.584C21.4512 16.584 21.9707 15.75 21.9707 14.7793C21.9707 13.5625 21.3008 12.9062 20.1113 12.9062L19.7559 12.9062C19.291 12.9062 18.9766 12.6328 18.9766 12.168C18.9766 11.7031 19.2773 11.4023 19.7559 11.4023L20.0977 11.4023C21.1504 11.4023 21.7109 10.6504 21.7109 9.625C21.7109 8.69531 21.2734 7.98438 20.3438 7.98438C19.5645 7.98438 19.1133 8.50391 18.8809 9.33789C18.7441 9.83008 18.457 10.0078 17.9785 10.0078C17.4316 10.0078 17.1172 9.63867 17.1172 9.17383C17.1172 8.92773 17.1445 8.68164 17.2129 8.4082C17.623 7.16406 18.8809 6.34375 20.3438 6.34375C22.1895 6.34375 23.6387 7.45117 23.6387 9.40625C23.6387 10.582 23.0234 11.7305 21.752 12.0723L21.752 12.1133C22.9277 12.2363 23.9805 13.0977 23.9805 14.8477C23.9805 16.9531 22.4219 18.2246 20.3984 18.2246Z" fill="white"/>
 </g>
</svg>
