<?xml version="1.0" encoding="UTF-8"?>
<!--Generator: Apple Native CoreSVG 326-->
<!DOCTYPE svg
PUBLIC "-//W3C//DTD SVG 1.1//EN"
       "http://www.w3.org/Graphics/SVG/1.1/DTD/svg11.dtd">
<svg version="1.1" xmlns="http://www.w3.org/2000/svg" xmlns:xlink="http://www.w3.org/1999/xlink" viewBox="0 0 32.5938 24.5684">
 <g>
  <rect height="24.5684" opacity="0" width="32.5938" x="0" y="0"/>
  <path d="M10.7734 24.541L21.4648 24.541C29.3945 24.541 32.2383 21.6016 32.2383 14.2871L32.2383 10.2676C32.2383 2.95312 29.3945 0 21.4648 0L10.7734 0C2.84375 0 0 2.95312 0 10.2676L0 14.2871C0 21.6016 2.84375 24.541 10.7734 24.541Z" fill="black" fill-opacity="0.85"/>
  <path d="M9.66602 18.1152C8.99609 18.1152 8.61328 17.7188 8.61328 17.0488L8.61328 7.64258C8.61328 6.94531 9.05078 6.54883 9.65234 6.54883L12.291 6.54883C14.3555 6.54883 15.5723 8.24414 15.5723 10.3906C15.5723 12.5645 14.3145 14.2051 12.168 14.2051L10.6777 14.2051L10.6777 17.0488C10.6777 17.7051 10.3223 18.1152 9.66602 18.1152ZM10.6777 12.5645L11.7578 12.5645C13.0156 12.5645 13.5215 11.6484 13.5215 10.3906C13.5215 9.06445 12.9609 8.2168 11.7715 8.2168L10.6777 8.2168ZM21.998 18.1562C21.5469 18.1562 21.0137 17.8965 21.0137 17.1445L21.0137 15.75L17.8691 15.75C17.1719 15.75 16.707 15.2852 16.707 14.6016C16.707 14.1641 16.7891 13.7949 17.0215 13.248L19.5234 7.7793C19.9199 6.9043 20.3984 6.39844 21.3965 6.39844C22.3262 6.39844 22.9551 6.94531 22.9551 7.92969L22.9551 14.1094L23.4609 14.1094C24.0215 14.1094 24.2676 14.4648 24.2676 14.916C24.2676 15.3945 24.0078 15.75 23.4609 15.75L22.9551 15.75L22.9551 17.1445C22.9551 17.8281 22.5312 18.1562 21.998 18.1562ZM21.0547 14.1504L21.0547 8.17578L21 8.17578L18.4434 14.0547L18.4434 14.1504Z" fill="white"/>
 </g>
</svg>
