<?xml version="1.0" encoding="UTF-8"?>
<!--Generator: Apple Native CoreSVG 326-->
<!DOCTYPE svg
PUBLIC "-//W3C//DTD SVG 1.1//EN"
       "http://www.w3.org/Graphics/SVG/1.1/DTD/svg11.dtd">
<svg version="1.1" xmlns="http://www.w3.org/2000/svg" xmlns:xlink="http://www.w3.org/1999/xlink" viewBox="0 0 28.2461 27.9043">
 <g>
  <rect height="27.9043" opacity="0" width="28.2461" x="0" y="0"/>
  <path d="M13.9453 27.9043C21.6426 27.9043 27.8906 21.6562 27.8906 13.959C27.8906 6.27539 21.6426 0.0136719 13.9453 0.0136719C6.26172 0.0136719 0 6.27539 0 13.959C0 21.6562 6.26172 27.9043 13.9453 27.9043Z" fill="#8e8e93"/>
  <path d="M7.72461 21.0684C5.83789 19.1953 5.83789 16.3105 7.7793 14.3691L15.5996 6.54883C17.0898 5.05859 19.127 5.04492 20.5488 6.42578C21.9434 7.83398 21.9023 9.85742 20.3984 11.3477L12.7695 18.9766C11.8809 19.8652 10.582 19.9199 9.76172 19.0586C8.95508 18.2246 8.98242 16.8711 9.84375 16.0234L15.1348 10.7051C15.4629 10.3906 15.9141 10.3633 16.2422 10.6914C16.584 11.0059 16.543 11.457 16.2148 11.7852L10.9102 17.0762C10.6504 17.3359 10.6367 17.6777 10.8965 17.9102C11.1562 18.1426 11.4434 18.1426 11.7168 17.8691L19.3047 10.2949C20.1523 9.43359 20.2207 8.29883 19.4551 7.54688C18.7168 6.80859 17.541 6.84961 16.707 7.69727L8.94141 15.4629C7.62891 16.7891 7.58789 18.6348 8.90039 19.9199C10.1719 21.1914 12.0312 21.1777 13.3438 19.8652L19.0312 14.1777C19.332 13.877 19.8652 13.8633 20.1797 14.1641C20.4805 14.4375 20.4531 14.998 20.166 15.2852L14.3965 21.041C12.4688 22.9551 9.73438 23.0234 7.72461 21.0684Z" fill="white"/>
 </g>
</svg>
