<?xml version="1.0" encoding="UTF-8"?>
<!--Generator: Apple Native CoreSVG 326-->
<!DOCTYPE svg
PUBLIC "-//W3C//DTD SVG 1.1//EN"
       "http://www.w3.org/Graphics/SVG/1.1/DTD/svg11.dtd">
<svg version="1.1" xmlns="http://www.w3.org/2000/svg" xmlns:xlink="http://www.w3.org/1999/xlink" viewBox="0 0 26.4083 29.6827">
 <g>
  <rect height="29.6827" opacity="0" width="26.4083" x="0" y="0"/>
  <path d="M22.2823 15.6685L12.2334 25.7173C9.62212 28.3423 6.10844 28.0826 3.86626 25.813C1.6104 23.5708 1.35063 20.0845 3.96196 17.4595L17.6749 3.7603C19.2471 2.18804 21.5577 1.96929 23.0616 3.45952C24.5518 4.9771 24.3331 7.27397 22.7745 8.84624L9.37602 22.2447C8.7061 22.9419 7.88579 22.7369 7.42094 22.272C6.9561 21.7935 6.76469 21.0005 7.43462 20.3033L16.7999 10.9654C17.21 10.5416 17.2374 9.93999 16.8409 9.54351C16.4444 9.16069 15.8428 9.18804 15.4327 9.59819L6.04008 18.9908C4.64555 20.3853 4.70024 22.5181 5.93071 23.7486C7.27055 25.0884 9.29399 25.0611 10.7022 23.6529L24.1553 10.1998C26.712 7.64311 26.6026 4.27983 24.3741 2.05132C22.2002-0.12251 18.7823-0.286573 16.2256 2.27007L2.44438 16.065C-0.932571 19.4419-0.672806 24.2681 2.37602 27.3169C5.42485 30.3521 10.251 30.6119 13.628 27.2486L23.7452 17.1314C24.1416 16.7349 24.1416 16.0103 23.7315 15.6412C23.335 15.2173 22.6924 15.272 22.2823 15.6685Z" fill="#8e8e93"/>
 </g>
</svg>
