<?xml version="1.0" encoding="UTF-8"?>
<!--Generator: Apple Native CoreSVG 326-->
<!DOCTYPE svg
PUBLIC "-//W3C//DTD SVG 1.1//EN"
       "http://www.w3.org/Graphics/SVG/1.1/DTD/svg11.dtd">
<svg version="1.1" xmlns="http://www.w3.org/2000/svg" xmlns:xlink="http://www.w3.org/1999/xlink" viewBox="0 0 22.5176 25.8262">
 <g>
  <rect height="25.8262" opacity="0" width="22.5176" x="0" y="0"/>
  <path d="M0 7.15039C0 11.2656 2.89844 13.9863 7.30078 13.9863L9.51562 13.9863L9.51562 24.5684C9.51562 25.334 9.99414 25.8262 10.7734 25.8262C11.5391 25.8262 12.0449 25.334 12.0449 24.5684L12.0449 2.85742L15.0117 2.85742L15.0117 24.5684C15.0117 25.334 15.4902 25.8262 16.2559 25.8262C17.0352 25.8262 17.541 25.334 17.541 24.5684L17.541 2.85742L19.8516 2.85742C20.6309 2.85742 21.123 2.33789 21.123 1.57227C21.123 0.806641 20.6309 0.328125 19.8516 0.328125L7.23242 0.328125C2.87109 0.328125 0 3.03516 0 7.15039Z" fill="black" fill-opacity="0.85"/>
 </g>
</svg>
