<?xml version="1.0" encoding="UTF-8"?>
<!--Generator: Apple Native CoreSVG 326-->
<!DOCTYPE svg
PUBLIC "-//W3C//DTD SVG 1.1//EN"
       "http://www.w3.org/Graphics/SVG/1.1/DTD/svg11.dtd">
<svg version="1.1" xmlns="http://www.w3.org/2000/svg" xmlns:xlink="http://www.w3.org/1999/xlink" viewBox="0 0 42.1367 28.8488">
 <g>
  <rect height="28.8488" opacity="0" width="42.1367" x="0" y="0"/>
  <path d="M29.3945 26.0523L40.6055 26.0523L37.5566 11.4508C37.3379 10.3434 36.709 9.82382 35.6699 9.82382L34.3027 9.82382C33.25 9.82382 32.6211 10.3434 32.3887 11.4508ZM29.2168 27.4195L40.7422 27.4195C41.3164 27.4195 41.7812 26.9547 41.7812 26.3805C41.7812 25.8062 41.3164 25.3551 40.7422 25.3551L29.2168 25.3551C28.6426 25.3551 28.1914 25.8062 28.1914 26.3805C28.1914 26.9547 28.6426 27.4195 29.2168 27.4195Z" fill="black" fill-opacity="0.85"/>
  <path d="M23.9668 19.0797C24.418 19.5855 25.1699 19.5855 25.7031 19.0113C27.9727 16.5504 29.2578 13.2691 29.2578 9.72812C29.2578 6.1871 27.9727 2.90585 25.7031 0.444913C25.1699-0.129306 24.418-0.142978 23.9668 0.376554C23.5293 0.868741 23.666 1.51132 24.1582 2.07187C26.0039 4.10898 27.0293 6.78866 27.0293 9.72812C27.0293 12.6676 26.0039 15.3473 24.1582 17.3844C23.666 17.9449 23.5293 18.5875 23.9668 19.0797Z" fill="black" fill-opacity="0.85"/>
  <path d="M20.1387 15.1832C20.5898 15.6891 21.4102 15.7027 21.9023 15.0875C23.0918 13.6109 23.7754 11.7379 23.7754 9.72812C23.7754 7.71835 23.0918 5.8453 21.9023 4.36874C21.4102 3.75351 20.5898 3.75351 20.1387 4.27304C19.7012 4.76523 19.8926 5.38046 20.3164 5.96835C21.1367 6.98007 21.5469 8.30624 21.5469 9.72812C21.5469 11.15 21.1367 12.4625 20.3164 13.4879C19.8926 14.0758 19.7012 14.691 20.1387 15.1832Z" fill="black" fill-opacity="0.85"/>
  <path d="M1.68164 27.4195C2.70703 27.4195 3.37695 26.7223 3.37695 25.6832L3.37695 17.9586L8.95508 17.9586C13.8906 17.9586 17.3223 14.568 17.3223 9.72812C17.3223 4.86093 13.9043 1.51132 8.96875 1.51132L1.68164 1.51132C0.669922 1.51132 0 2.19491 0 3.24765L0 25.6832C0 26.7359 0.669922 27.4195 1.68164 27.4195ZM3.37695 14.8414L3.37695 4.60116L8.33984 4.60116C11.8535 4.60116 13.877 6.46054 13.877 9.72812C13.877 12.9684 11.8535 14.8414 8.33984 14.8414Z" fill="black" fill-opacity="0.85"/>
 </g>
</svg>
