<?xml version="1.0" encoding="UTF-8"?>
<!--Generator: Apple Native CoreSVG 326-->
<!DOCTYPE svg
PUBLIC "-//W3C//DTD SVG 1.1//EN"
       "http://www.w3.org/Graphics/SVG/1.1/DTD/svg11.dtd">
<svg version="1.1" xmlns="http://www.w3.org/2000/svg" xmlns:xlink="http://www.w3.org/1999/xlink" viewBox="0 0 28.2461 27.9043">
 <g>
  <rect height="27.9043" opacity="0" width="28.2461" x="0" y="0"/>
  <path d="M13.9453 27.8906C21.6426 27.8906 27.8906 21.6289 27.8906 13.9453C27.8906 6.24805 21.6426 0 13.9453 0C6.26172 0 0 6.24805 0 13.9453C0 21.6289 6.26172 27.8906 13.9453 27.8906Z" fill="black" fill-opacity="0.85"/>
  <path d="M10.9238 20.4121C10.1992 20.4121 9.80273 19.8789 9.80273 19.127L9.80273 8.66797C9.80273 7.90234 10.1855 7.38281 10.9102 7.38281L14.8477 7.38281C17.582 7.38281 19.4414 9.13281 19.4414 11.7305C19.4414 14.3281 17.5957 16.0508 14.834 16.0508L12.0723 16.0508L12.0723 19.127C12.0723 19.9062 11.6758 20.4121 10.9238 20.4121ZM12.0723 14.3281L14.5332 14.3281C16.1875 14.3281 17.1992 13.3301 17.1992 11.7305C17.1992 10.1172 16.1738 9.11914 14.5332 9.11914L12.0723 9.11914Z" fill="white"/>
 </g>
</svg>
