<?xml version="1.0" encoding="UTF-8"?>
<!--Generator: Apple Native CoreSVG 326-->
<!DOCTYPE svg
PUBLIC "-//W3C//DTD SVG 1.1//EN"
       "http://www.w3.org/Graphics/SVG/1.1/DTD/svg11.dtd">
<svg version="1.1" xmlns="http://www.w3.org/2000/svg" xmlns:xlink="http://www.w3.org/1999/xlink" viewBox="0 0 43.668 19.3367">
 <g>
  <rect height="19.3367" opacity="0" width="43.668" x="0" y="0"/>
  <path d="M20.6172 9.66149C20.6172 5.72399 16.4199 1.93688 12.1816 1.93688L11.7715 1.93688C9.78906 1.93688 8.88672 2.68884 8.36719 4.68493C8.03906 6.06579 7.86133 7.61071 7.86133 9.66149C7.86133 11.6986 8.03906 13.2435 8.36719 14.6517C8.88672 16.6342 9.78906 17.3724 11.7715 17.3724L12.1816 17.3724C16.4199 17.3724 20.6172 13.599 20.6172 9.66149ZM18.5391 9.66149C18.5391 12.683 15.627 15.2943 12.1816 15.2943L11.7715 15.2943C10.9648 15.2943 10.623 15.0345 10.3633 14.1732C10.0898 12.8881 9.92578 11.5482 9.92578 9.66149C9.92578 7.7611 10.0898 6.43493 10.3633 5.16345C10.623 4.28845 10.9648 4.01501 11.7715 4.01501L12.1816 4.01501C15.627 4.01501 18.5391 6.64001 18.5391 9.66149ZM22.6953 9.66149C22.6953 13.599 26.8926 17.3724 31.1445 17.3724L31.541 17.3724C33.5371 17.3724 34.4395 16.6342 34.959 14.6517C35.2734 13.2435 35.4512 11.6986 35.4512 9.66149C35.4512 7.61071 35.2734 6.06579 34.959 4.68493C34.4395 2.68884 33.5371 1.93688 31.541 1.93688L31.1445 1.93688C26.8926 1.93688 22.6953 5.72399 22.6953 9.66149ZM24.7734 9.66149C24.7734 6.64001 27.6992 4.01501 31.1445 4.01501L31.541 4.01501C32.3613 4.01501 32.6895 4.28845 32.9492 5.16345C33.2363 6.43493 33.3867 7.7611 33.3867 9.66149C33.3867 11.5482 33.2363 12.8881 32.9492 14.1732C32.6895 15.0345 32.3613 15.2943 31.541 15.2943L31.1445 15.2943C27.6992 15.2943 24.7734 12.683 24.7734 9.66149ZM4.53906 3.89196C5.04492 4.19274 5.64648 4.04235 5.94727 3.50915C6.24805 3.03063 6.08398 2.40173 5.57812 2.11462L2.16016 0.145869C1.66797-0.154912 1.06641 0.022822 0.779297 0.556025C0.478516 1.03454 0.628906 1.6361 1.14844 1.92321ZM4.94922 8.62243L1.01172 8.62243C0.423828 8.62243 0 9.05993 0 9.64782C0 10.2357 0.423828 10.6732 1.01172 10.6732L4.94922 10.6732C5.53711 10.6732 5.97461 10.2357 5.97461 9.64782C5.97461 9.05993 5.53711 8.62243 4.94922 8.62243ZM4.53906 15.4037L1.14844 17.3724C0.628906 17.6732 0.478516 18.2611 0.779297 18.7533C1.06641 19.2728 1.66797 19.4506 2.16016 19.1634L5.57812 17.1947C6.08398 16.8939 6.24805 16.2787 5.94727 15.7865C5.64648 15.267 5.04492 15.1166 4.53906 15.4037ZM38.7734 3.89196L42.1777 1.92321C42.6836 1.6361 42.834 1.03454 42.5469 0.556025C42.2461 0.022822 41.6582-0.154912 41.1523 0.145869L37.7344 2.11462C37.2422 2.40173 37.0781 3.03063 37.3789 3.50915C37.666 4.04235 38.2676 4.19274 38.7734 3.89196ZM38.377 8.62243C37.7891 8.62243 37.3379 9.05993 37.3379 9.64782C37.3379 10.2357 37.7891 10.6732 38.377 10.6732L42.3008 10.6732C42.8887 10.6732 43.3125 10.2357 43.3125 9.64782C43.3125 9.05993 42.8887 8.62243 42.3008 8.62243ZM38.7734 15.4037C38.2676 15.1166 37.666 15.267 37.3789 15.7865C37.0781 16.2787 37.2422 16.8939 37.7344 17.1947L41.1523 19.1634C41.6582 19.4506 42.2461 19.2728 42.5469 18.7533C42.834 18.2611 42.6836 17.6732 42.1777 17.3724Z" fill="#28cd41"/>
 </g>
</svg>
