<?xml version="1.0" encoding="UTF-8"?>
<!--Generator: Apple Native CoreSVG 326-->
<!DOCTYPE svg
PUBLIC "-//W3C//DTD SVG 1.1//EN"
       "http://www.w3.org/Graphics/SVG/1.1/DTD/svg11.dtd">
<svg version="1.1" xmlns="http://www.w3.org/2000/svg" xmlns:xlink="http://www.w3.org/1999/xlink" viewBox="0 0 28.2461 27.9043">
 <g>
  <rect height="27.9043" opacity="0" width="28.2461" x="0" y="0"/>
  <path d="M13.9453 27.8906C21.6426 27.8906 27.8906 21.6289 27.8906 13.9453C27.8906 6.24805 21.6426 0 13.9453 0C6.26172 0 0 6.24805 0 13.9453C0 21.6289 6.26172 27.8906 13.9453 27.8906Z" fill="black" fill-opacity="0.85"/>
  <path d="M9.9668 19.4414C9.26953 19.4414 8.95508 19.0586 8.95508 18.5117L8.95508 9.35156C8.95508 8.81836 9.26953 8.43555 9.9668 8.43555L11.3477 8.43555C12.0586 8.43555 12.373 8.81836 12.373 9.35156L12.373 18.5117C12.373 19.0586 12.0586 19.4414 11.3477 19.4414ZM16.5703 19.4414C15.8594 19.4414 15.5449 19.0586 15.5449 18.5117L15.5449 9.35156C15.5449 8.81836 15.8594 8.43555 16.5703 8.43555L17.9512 8.43555C18.6348 8.43555 18.9492 8.81836 18.9492 9.35156L18.9492 18.5117C18.9492 19.0586 18.6348 19.4414 17.9512 19.4414Z" fill="white"/>
 </g>
</svg>
