<?xml version="1.0" encoding="UTF-8"?>
<!--Generator: Apple Native CoreSVG 326-->
<!DOCTYPE svg
PUBLIC "-//W3C//DTD SVG 1.1//EN"
       "http://www.w3.org/Graphics/SVG/1.1/DTD/svg11.dtd">
<svg version="1.1" xmlns="http://www.w3.org/2000/svg" xmlns:xlink="http://www.w3.org/1999/xlink" viewBox="0 0 32.5938 25.1699">
 <g>
  <rect height="25.1699" opacity="0" width="32.5938" x="0" y="0"/>
  <path d="M4.29297 25.1699L27.9453 25.1699C30.8164 25.1699 32.2383 23.7617 32.2383 20.9453L32.2383 4.23828C32.2383 1.42188 30.8164 0 27.9453 0L4.29297 0C1.43555 0 0 1.42188 0 4.23828L0 20.9453C0 23.7617 1.43555 25.1699 4.29297 25.1699ZM4.32031 22.9688C2.95312 22.9688 2.20117 22.2441 2.20117 20.8223L2.20117 4.36133C2.20117 2.93945 2.95312 2.20117 4.32031 2.20117L27.918 2.20117C29.2715 2.20117 30.0371 2.93945 30.0371 4.36133L30.0371 20.8223C30.0371 22.2441 29.2715 22.9688 27.918 22.9688Z" fill="black" fill-opacity="0.85"/>
  <path d="M12.2773 17.9102L13.6172 17.9102C14.2871 17.9102 14.6016 17.541 14.6016 17.0078L14.6016 8.12109C14.6016 7.60156 14.2871 7.23242 13.6172 7.23242L12.2773 7.23242C11.5938 7.23242 11.2793 7.60156 11.2793 8.12109L11.2793 17.0078C11.2793 17.541 11.5938 17.9102 12.2773 17.9102ZM18.6621 17.9102L20.0156 17.9102C20.6719 17.9102 20.9863 17.541 20.9863 17.0078L20.9863 8.12109C20.9863 7.60156 20.6719 7.23242 20.0156 7.23242L18.6621 7.23242C17.9922 7.23242 17.6641 7.60156 17.6641 8.12109L17.6641 17.0078C17.6641 17.541 17.9922 17.9102 18.6621 17.9102Z" fill="black" fill-opacity="0.85"/>
 </g>
</svg>
