<?xml version="1.0" encoding="UTF-8"?>
<!--Generator: Apple Native CoreSVG 326-->
<!DOCTYPE svg
PUBLIC "-//W3C//DTD SVG 1.1//EN"
       "http://www.w3.org/Graphics/SVG/1.1/DTD/svg11.dtd">
<svg version="1.1" xmlns="http://www.w3.org/2000/svg" xmlns:xlink="http://www.w3.org/1999/xlink" viewBox="0 0 28.2461 27.9043">
 <g>
  <rect height="27.9043" opacity="0" width="28.2461" x="0" y="0"/>
  <path d="M13.9453 27.8906C21.6426 27.8906 27.8906 21.6426 27.8906 13.9453C27.8906 6.24805 21.6426 0 13.9453 0C6.24805 0 0 6.24805 0 13.9453C0 21.6426 6.24805 27.8906 13.9453 27.8906ZM13.9453 25.5664C7.51953 25.5664 2.32422 20.3711 2.32422 13.9453C2.32422 7.51953 7.51953 2.32422 13.9453 2.32422C20.3711 2.32422 25.5664 7.51953 25.5664 13.9453C25.5664 20.3711 20.3711 25.5664 13.9453 25.5664Z" fill="black" fill-opacity="0.85"/>
  <path d="M10.0762 19.2773L11.416 19.2773C12.0996 19.2773 12.4141 18.9082 12.4141 18.375L12.4141 9.48828C12.4141 8.96875 12.0996 8.59961 11.416 8.59961L10.0762 8.59961C9.40625 8.59961 9.0918 8.96875 9.0918 9.48828L9.0918 18.375C9.0918 18.9082 9.40625 19.2773 10.0762 19.2773ZM16.4746 19.2773L17.8145 19.2773C18.4707 19.2773 18.7852 18.9082 18.7852 18.375L18.7852 9.48828C18.7852 8.96875 18.4707 8.59961 17.8145 8.59961L16.4746 8.59961C15.791 8.59961 15.4766 8.96875 15.4766 9.48828L15.4766 18.375C15.4766 18.9082 15.791 19.2773 16.4746 19.2773Z" fill="black" fill-opacity="0.85"/>
 </g>
</svg>
