<?xml version="1.0" encoding="UTF-8"?>
<!--Generator: Apple Native CoreSVG 326-->
<!DOCTYPE svg
PUBLIC "-//W3C//DTD SVG 1.1//EN"
       "http://www.w3.org/Graphics/SVG/1.1/DTD/svg11.dtd">
<svg version="1.1" xmlns="http://www.w3.org/2000/svg" xmlns:xlink="http://www.w3.org/1999/xlink" viewBox="0 0 32.5938 25.1699">
 <g>
  <rect height="25.1699" opacity="0" width="32.5938" x="0" y="0"/>
  <path d="M4.29297 25.1699L27.9453 25.1699C30.8164 25.1699 32.2383 23.7617 32.2383 20.9453L32.2383 4.23828C32.2383 1.42188 30.8164 0 27.9453 0L4.29297 0C1.43555 0 0 1.42188 0 4.23828L0 20.9453C0 23.7617 1.43555 25.1699 4.29297 25.1699Z" fill="black" fill-opacity="0.85"/>
  <path d="M12.1543 18.0879C11.4434 18.0879 11.1289 17.7051 11.1289 17.1582L11.1289 7.99805C11.1289 7.46484 11.4434 7.08203 12.1543 7.08203L13.5352 7.08203C14.2324 7.08203 14.5469 7.46484 14.5469 7.99805L14.5469 17.1582C14.5469 17.7051 14.2324 18.0879 13.5352 18.0879ZM18.7441 18.0879C18.0469 18.0879 17.7188 17.7051 17.7188 17.1582L17.7188 7.99805C17.7188 7.46484 18.0469 7.08203 18.7441 7.08203L20.1387 7.08203C20.8223 7.08203 21.1367 7.46484 21.1367 7.99805L21.1367 17.1582C21.1367 17.7051 20.8223 18.0879 20.1387 18.0879Z" fill="white"/>
 </g>
</svg>
