<?xml version="1.0" encoding="UTF-8"?>
<!--Generator: Apple Native CoreSVG 326-->
<!DOCTYPE svg
PUBLIC "-//W3C//DTD SVG 1.1//EN"
       "http://www.w3.org/Graphics/SVG/1.1/DTD/svg11.dtd">
<svg version="1.1" xmlns="http://www.w3.org/2000/svg" xmlns:xlink="http://www.w3.org/1999/xlink" viewBox="0 0 29.9141 29.0254">
 <g>
  <rect height="29.0254" opacity="0" width="29.9141" x="0" y="0"/>
  <path d="M9.48828 28.957C10.8555 28.957 11.7988 28.6289 12.5781 28.3008C13.3848 27.959 14 27.6035 14.7656 27.6035C15.5176 27.6035 16.1328 27.959 16.9531 28.3008C17.7324 28.6289 18.6621 28.957 20.0293 28.957C22.9824 28.957 25.2246 26.8242 25.2246 24.0215C25.2246 21.2461 23.6523 19.9473 22.2715 18.8398C21.5469 18.2793 20.9043 17.7734 20.5352 17.1445C20.1797 16.5566 19.8926 15.9004 19.6055 15.2441C18.7168 13.1797 17.7598 11.0469 14.7656 11.0469C11.7578 11.0469 10.8145 13.1797 9.92578 15.2305C9.625 15.9004 9.35156 16.543 9.00977 17.1172C8.62695 17.7461 7.9707 18.2793 7.25977 18.8398C5.87891 19.9473 4.30664 21.2598 4.30664 24.0215C4.30664 26.8242 6.54883 28.957 9.48828 28.957ZM9.48828 26.9746C7.62891 26.9746 6.28906 25.7441 6.28906 24.0215C6.28906 20.8223 8.92773 21.0957 10.6094 18.2246C11.8535 16.1191 12.2773 13.0293 14.7656 13.0293C17.2539 13.0293 17.6641 16.1191 18.9219 18.252C20.6035 21.0957 23.2422 20.8223 23.2422 24.0215C23.2422 25.7441 21.9023 26.9746 20.0293 26.9746C18.1289 26.9746 16.8848 25.6348 14.7656 25.6348C12.6465 25.6348 11.4023 26.9746 9.48828 26.9746ZM0 13.0703C0 16.1738 1.44922 18.252 3.66406 18.252C5.86523 18.252 7.3418 16.1738 7.3418 13.0703C7.3418 9.9668 5.86523 7.88867 3.66406 7.88867C1.44922 7.88867 0 9.9668 0 13.0703ZM1.90039 13.0703C1.90039 11.1016 2.59766 9.78906 3.66406 9.78906C4.73047 9.78906 5.44141 11.1016 5.44141 13.0703C5.44141 15.0391 4.73047 16.3516 3.66406 16.3516C2.59766 16.3516 1.90039 15.0391 1.90039 13.0703ZM6.64453 5.16797C6.64453 8.28516 8.10742 10.3359 10.3086 10.3359C12.5234 10.3359 13.9863 8.25781 13.9863 5.16797C13.9863 2.06445 12.5234 0 10.3086 0C8.10742 0 6.64453 2.06445 6.64453 5.16797ZM8.54492 5.16797C8.54492 3.21289 9.24219 1.90039 10.3086 1.90039C11.375 1.90039 12.0859 3.21289 12.0859 5.16797C12.0859 7.13672 11.375 8.43555 10.3086 8.43555C9.24219 8.43555 8.54492 7.13672 8.54492 5.16797ZM15.5723 5.16797C15.5723 8.25781 17.0352 10.3359 19.25 10.3359C21.4512 10.3359 22.9141 8.28516 22.9141 5.16797C22.9141 2.06445 21.4512 0 19.25 0C17.0352 0 15.5723 2.06445 15.5723 5.16797ZM17.4727 5.16797C17.4727 3.21289 18.1836 1.90039 19.25 1.90039C20.3164 1.90039 21.0137 3.21289 21.0137 5.16797C21.0137 7.13672 20.3164 8.43555 19.25 8.43555C18.1836 8.43555 17.4727 7.13672 17.4727 5.16797ZM22.2168 13.0703C22.2168 16.1738 23.6934 18.252 25.8945 18.252C28.1094 18.252 29.5586 16.1738 29.5586 13.0703C29.5586 9.9668 28.1094 7.88867 25.8945 7.88867C23.6934 7.88867 22.2168 9.9668 22.2168 13.0703ZM24.1172 13.0703C24.1172 11.1016 24.8281 9.78906 25.8945 9.78906C26.9609 9.78906 27.6582 11.1016 27.6582 13.0703C27.6582 15.0391 26.9609 16.3516 25.8945 16.3516C24.8281 16.3516 24.1172 15.0391 24.1172 13.0703Z" fill="black" fill-opacity="0.85"/>
 </g>
</svg>
