<?xml version="1.0" encoding="UTF-8"?>
<!--Generator: Apple Native CoreSVG 326-->
<!DOCTYPE svg
PUBLIC "-//W3C//DTD SVG 1.1//EN"
       "http://www.w3.org/Graphics/SVG/1.1/DTD/svg11.dtd">
<svg version="1.1" xmlns="http://www.w3.org/2000/svg" xmlns:xlink="http://www.w3.org/1999/xlink" viewBox="0 0 27.6309 24.1582">
 <g>
  <rect height="24.1582" opacity="0" width="27.6309" x="0" y="0"/>
  <path d="M26.9062 7.12305C27.3848 11.1699 27.3848 14.1504 27.0293 17.1582C26.4824 21.9023 24.8965 24.1582 20.3301 24.1582L4.33398 24.1582C1.61328 24.1582 0 22.5723 0 19.8652L0 7.20508C0 4.21094 1.69531 2.40625 4.89453 2.05078L18.1426 0.546875C23.5293-0.0273438 26.3457 2.07812 26.9062 7.12305ZM6.13867 16.8164C5.61914 16.8164 5.20898 17.2266 5.20898 17.7324C5.20898 18.2656 5.61914 18.6758 6.13867 18.6758L20.9453 18.6758C21.4648 18.6758 21.875 18.2656 21.875 17.7324C21.875 17.2266 21.4648 16.8164 20.9453 16.8164ZM6.13867 12.1406C5.61914 12.1406 5.20898 12.5645 5.20898 13.0703C5.20898 13.5762 5.61914 13.9863 6.13867 13.9863L20.9453 13.9863C21.4648 13.9863 21.875 13.5762 21.875 13.0703C21.875 12.5645 21.4648 12.1406 20.9453 12.1406ZM6.13867 7.45117C5.61914 7.45117 5.20898 7.875 5.20898 8.39453C5.20898 8.90039 5.61914 9.31055 6.13867 9.31055L20.9453 9.31055C21.4648 9.31055 21.875 8.90039 21.875 8.39453C21.875 7.875 21.4648 7.45117 20.9453 7.45117Z" fill="black" fill-opacity="0.85"/>
 </g>
</svg>
