<?xml version="1.0" encoding="UTF-8"?>
<!--Generator: Apple Native CoreSVG 326-->
<!DOCTYPE svg
PUBLIC "-//W3C//DTD SVG 1.1//EN"
       "http://www.w3.org/Graphics/SVG/1.1/DTD/svg11.dtd">
<svg version="1.1" xmlns="http://www.w3.org/2000/svg" xmlns:xlink="http://www.w3.org/1999/xlink" viewBox="0 0 17.5839 25.8262">
 <g>
  <rect height="25.8262" opacity="0" width="17.5839" x="0" y="0"/>
  <path d="M1.10154 25.8262C1.74412 25.8262 2.05857 25.4844 2.16795 24.9238L4.87498 11.1426L3.50779 12.25L13.707 12.25L12.3398 11.1426L15.0469 24.9238C15.1562 25.4844 15.4707 25.8262 16.1133 25.8262C17.0293 25.8262 17.3437 25.1973 17.1933 24.459L14.6367 11.4434C14.4726 10.582 13.748 9.95312 12.914 9.95312L4.31443 9.95312C3.48045 9.95312 2.75584 10.582 2.59178 11.4434L0.0351372 24.459C-0.115253 25.1973 0.212872 25.8262 1.10154 25.8262ZM4.01365 11.0605L13.2148 11.0605L9.81053 0.902344C9.60545 0.328125 9.22264 0 8.63475 0C8.01951 0 7.59568 0.328125 7.40428 0.902344Z" fill="black" fill-opacity="0.85"/>
 </g>
</svg>
