<?xml version="1.0" encoding="UTF-8"?>
<!--Generator: Apple Native CoreSVG 326-->
<!DOCTYPE svg
PUBLIC "-//W3C//DTD SVG 1.1//EN"
       "http://www.w3.org/Graphics/SVG/1.1/DTD/svg11.dtd">
<svg version="1.1" xmlns="http://www.w3.org/2000/svg" xmlns:xlink="http://www.w3.org/1999/xlink" viewBox="0 0 24.2812 30.7754">
 <g>
  <rect height="30.7754" opacity="0" width="24.2812" x="0" y="0"/>
  <path d="M0 3.5L3.43164 3.5L3.43164 1.54492C3.43164 0.560547 2.92578 0 2.03711 0L1.36719 0C0.492188 0 0 0.587891 0 1.54492ZM0 27.1934L1.24414 30.2559C1.38086 30.5703 1.88672 30.5977 2.03711 30.2695L3.43164 27.1934L3.43164 5.09961L0 5.09961ZM13.7949 30.5566L20.5762 30.5566C22.5586 30.5566 23.9258 29.1895 23.9258 27.207L23.9258 3.56836C23.9258 1.57227 22.5586 0.191406 20.5762 0.191406L13.7949 0.191406C11.8125 0.191406 10.459 1.55859 10.459 3.55469L10.459 27.1934C10.459 29.1895 11.8125 30.5566 13.7949 30.5566ZM14.1641 28.5605C13.125 28.5605 12.4551 27.8906 12.4551 26.8926L12.4551 3.86914C12.4551 2.87109 13.125 2.20117 14.1641 2.20117L20.2207 2.20117C21.2461 2.20117 21.916 2.87109 21.916 3.86914L21.916 26.8789C21.916 27.877 21.2461 28.5605 20.2207 28.5605ZM22.627 4.94922L22.627 3.91016L16.0918 3.91016C15.8184 3.91016 15.5859 4.12891 15.5859 4.42969C15.5859 4.70312 15.8047 4.94922 16.0781 4.94922ZM22.627 7.12305L22.627 6.11133L18.2656 6.11133C17.9785 6.11133 17.7734 6.31641 17.7734 6.63086C17.7734 6.9043 17.9648 7.12305 18.252 7.12305ZM22.627 9.32422L22.627 8.3125L18.2656 8.3125C17.9785 8.3125 17.7734 8.51758 17.7734 8.83203C17.7734 9.10547 17.9648 9.32422 18.252 9.32422ZM22.627 11.5117L22.627 10.4863L18.2656 10.4863C17.9785 10.4863 17.7734 10.6914 17.7734 10.9922C17.7734 11.293 17.9648 11.5117 18.252 11.5117ZM22.627 13.6992L22.627 12.6738L18.2656 12.6738C17.9785 12.6738 17.7734 12.8926 17.7734 13.207C17.7734 13.4668 17.9648 13.6992 18.252 13.6992ZM22.627 15.873L22.627 14.875L16.0918 14.875C15.8184 14.875 15.5859 15.0801 15.5859 15.3809C15.5859 15.668 15.8047 15.873 16.0781 15.873ZM22.627 18.0879L22.627 17.0625L18.2656 17.0625C17.9785 17.0625 17.7734 17.2676 17.7734 17.5684C17.7734 17.8555 17.9648 18.0879 18.252 18.0879ZM22.627 20.2754L22.627 19.2637L18.2656 19.2637C17.9785 19.2637 17.7734 19.4551 17.7734 19.7695C17.7734 20.043 17.9648 20.2754 18.252 20.2754ZM22.627 22.4492L22.627 21.4375L18.2656 21.4375C17.9785 21.4375 17.7734 21.6562 17.7734 21.9434C17.7734 22.2168 17.9648 22.4492 18.252 22.4492ZM22.627 24.6367L22.627 23.625L18.2656 23.625C17.9785 23.625 17.7734 23.8164 17.7734 24.1172C17.7734 24.418 17.9648 24.6367 18.252 24.6367ZM22.627 26.8242L22.627 25.7988L16.0918 25.7988C15.8184 25.7988 15.5859 26.0176 15.5859 26.3184C15.5859 26.5918 15.8047 26.8242 16.0781 26.8242Z" fill="black" fill-opacity="0.85"/>
 </g>
</svg>
