<?xml version="1.0" encoding="UTF-8"?>
<!--Generator: Apple Native CoreSVG 326-->
<!DOCTYPE svg
PUBLIC "-//W3C//DTD SVG 1.1//EN"
       "http://www.w3.org/Graphics/SVG/1.1/DTD/svg11.dtd">
<svg version="1.1" xmlns="http://www.w3.org/2000/svg" xmlns:xlink="http://www.w3.org/1999/xlink" viewBox="0 0 29.9584 29.2441">
 <g>
  <rect height="29.2441" opacity="0" width="29.9584" x="0" y="0"/>
  <path d="M0.261413 13.7539L4.29462 26.291C4.90985 28.2461 6.26337 29.2441 8.34149 29.2441L21.2751 29.2441C23.3532 29.2441 24.7067 28.2461 25.322 26.291L29.3278 13.8086C29.9704 11.7852 29.4782 10.1855 27.8376 8.98242L17.3649 1.28516C15.6423 0.0136719 13.9743 0.0136719 12.2516 1.28516L1.77899 8.98242C0.138366 10.1855-0.367493 11.7715 0.261413 13.7539ZM14.8083 2.54297C15.1911 2.54297 15.5876 2.69336 16.0388 3.03516L26.4977 10.7461C27.4001 11.416 27.6052 12.0586 27.2634 13.125L23.2575 25.6211C22.9157 26.6602 22.3825 27.043 21.2751 27.043L14.8083 27.043Z" fill="black" fill-opacity="0.85"/>
 </g>
</svg>
