<?xml version="1.0" encoding="UTF-8"?>
<!--Generator: Apple Native CoreSVG 326-->
<!DOCTYPE svg
PUBLIC "-//W3C//DTD SVG 1.1//EN"
       "http://www.w3.org/Graphics/SVG/1.1/DTD/svg11.dtd">
<svg version="1.1" xmlns="http://www.w3.org/2000/svg" xmlns:xlink="http://www.w3.org/1999/xlink" viewBox="0 0 28.2461 27.9043">
 <g>
  <rect height="27.9043" opacity="0" width="28.2461" x="0" y="0"/>
  <path d="M13.9453 27.8906C21.6426 27.8906 27.8906 21.6426 27.8906 13.9453C27.8906 6.24805 21.6426 0 13.9453 0C6.24805 0 0 6.24805 0 13.9453C0 21.6426 6.24805 27.8906 13.9453 27.8906ZM13.9453 25.5664C7.51953 25.5664 2.32422 20.3711 2.32422 13.9453C2.32422 7.51953 7.51953 2.32422 13.9453 2.32422C20.3711 2.32422 25.5664 7.51953 25.5664 13.9453C25.5664 20.3711 20.3711 25.5664 13.9453 25.5664ZM23.2969 22.9551L23.2559 22.8047C22.5859 20.7949 18.9766 18.5938 13.9453 18.5938C8.92773 18.5938 5.31836 20.7949 4.63477 22.791L4.59375 22.9551C7.05469 25.3887 11.2793 26.8105 13.9453 26.8105C16.625 26.8105 20.8086 25.4023 23.2969 22.9551ZM13.9453 16.2695C16.584 16.2969 18.6348 14.0547 18.6348 11.1152C18.6348 8.35352 16.5703 6.07031 13.9453 6.07031C11.3203 6.07031 9.24219 8.35352 9.25586 11.1152C9.26953 14.0547 11.3203 16.2422 13.9453 16.2695Z" fill="black" fill-opacity="0.85"/>
 </g>
</svg>
