<?xml version="1.0" encoding="UTF-8"?>
<!--Generator: Apple Native CoreSVG 326-->
<!DOCTYPE svg
PUBLIC "-//W3C//DTD SVG 1.1//EN"
       "http://www.w3.org/Graphics/SVG/1.1/DTD/svg11.dtd">
<svg version="1.1" xmlns="http://www.w3.org/2000/svg" xmlns:xlink="http://www.w3.org/1999/xlink" viewBox="0 0 48.877 22.4629">
 <g>
  <rect height="22.4629" opacity="0" width="48.877" x="0" y="0"/>
  <path d="M10.1309 11.2246C13.002 11.2246 15.3809 8.66797 15.3809 5.53711C15.3809 2.44727 13.0293 0 10.1309 0C7.24609 0 4.89453 2.48828 4.89453 5.55078C4.89453 8.68164 7.25977 11.2246 10.1309 11.2246ZM3.00781 22.3809L17.2402 22.3809C19.2227 22.3809 20.248 21.7383 20.248 20.3438C20.248 17.1992 16.5977 12.6328 10.1172 12.6328C3.65039 12.6328 0 17.1992 0 20.3438C0 21.7383 1.01172 22.3809 3.00781 22.3809ZM38.418 11.293C41.2891 11.293 43.6543 8.73633 43.6543 5.60547C43.6543 2.51562 41.3164 0.0683594 38.418 0.0683594C35.5332 0.0683594 33.168 2.55664 33.168 5.61914C33.168 8.75 35.5332 11.293 38.418 11.293ZM31.2949 22.4492L45.5137 22.4492C47.5098 22.4492 48.5215 21.8066 48.5215 20.4121C48.5215 17.2676 44.8848 12.7012 38.4043 12.7012C31.9238 12.7012 28.2871 17.2676 28.2871 20.4121C28.2871 21.8066 29.2988 22.4492 31.2949 22.4492Z" fill="black" fill-opacity="0.85"/>
  <path d="M19.7422 11.3477C20.3848 11.3477 20.918 10.8145 20.918 10.1719C20.918 9.5293 20.3848 8.99609 19.7422 8.99609C19.0996 8.99609 18.5664 9.5293 18.5664 10.1719C18.5664 10.8145 19.0996 11.3477 19.7422 11.3477ZM24.2812 11.3477C24.9238 11.3477 25.457 10.8145 25.457 10.1719C25.457 9.5293 24.9238 8.99609 24.2812 8.99609C23.6387 8.99609 23.1055 9.5293 23.1055 10.1719C23.1055 10.8145 23.6387 11.3477 24.2812 11.3477ZM28.793 11.3477C29.4355 11.3477 29.9688 10.8145 29.9688 10.1719C29.9688 9.5293 29.4355 8.99609 28.793 8.99609C28.1504 8.99609 27.6172 9.5293 27.6172 10.1719C27.6172 10.8145 28.1504 11.3477 28.793 11.3477Z" fill="black" fill-opacity="0.85"/>
 </g>
</svg>
