<?xml version="1.0" encoding="UTF-8"?>
<!--Generator: Apple Native CoreSVG 326-->
<!DOCTYPE svg
PUBLIC "-//W3C//DTD SVG 1.1//EN"
       "http://www.w3.org/Graphics/SVG/1.1/DTD/svg11.dtd">
<svg version="1.1" xmlns="http://www.w3.org/2000/svg" xmlns:xlink="http://www.w3.org/1999/xlink" viewBox="0 0 28.2461 27.9043">
 <g>
  <rect height="27.9043" opacity="0" width="28.2461" x="0" y="0"/>
  <path d="M13.9453 27.8906C21.6426 27.8906 27.8906 21.6426 27.8906 13.9453C27.8906 6.24805 21.6426 0 13.9453 0C6.24805 0 0 6.24805 0 13.9453C0 21.6426 6.24805 27.8906 13.9453 27.8906ZM13.9453 25.5664C7.51953 25.5664 2.32422 20.3711 2.32422 13.9453C2.32422 7.51953 7.51953 2.32422 13.9453 2.32422C20.3711 2.32422 25.5664 7.51953 25.5664 13.9453C25.5664 20.3711 20.3711 25.5664 13.9453 25.5664Z" fill="black" fill-opacity="0.85"/>
  <path d="M7.06836 13.9453C7.06836 13.1387 7.19141 12.3867 7.42383 11.6758L5.86523 11.0332C5.53711 11.9219 5.33203 12.9199 5.33203 13.9453C5.33203 14.957 5.53711 15.9551 5.86523 16.8574L7.42383 16.2148C7.19141 15.5039 7.06836 14.7383 7.06836 13.9453ZM10.9512 7.72461L10.2676 6.16602C8.49023 7.02734 7.02734 8.50391 6.16602 10.2812L7.73828 10.9375C8.39453 9.54297 9.54297 8.4082 10.9512 7.72461ZM13.9316 7.04102C14.7246 7.04102 15.5039 7.17773 16.2148 7.42383L16.8438 5.86523C15.9551 5.53711 14.957 5.33203 13.9316 5.33203C12.9336 5.33203 11.9082 5.53711 11.0195 5.86523L11.6621 7.42383C12.373 7.17773 13.1387 7.04102 13.9316 7.04102ZM20.1523 10.9375L21.7246 10.2812C20.8496 8.50391 19.3867 7.02734 17.5957 6.15234L16.9531 7.72461C18.334 8.39453 19.4824 9.54297 20.1523 10.9375ZM20.8496 13.9453C20.8496 14.7383 20.7129 15.5039 20.4668 16.2148L22.0254 16.8574C22.3535 15.9551 22.5586 14.957 22.5586 13.9453C22.5586 12.9199 22.3535 11.9355 22.0254 11.0332L20.4668 11.6758C20.7129 12.3867 20.8496 13.1387 20.8496 13.9453ZM13.9453 22.5449C17.3223 22.5449 20.3164 20.5078 21.7383 17.6094L20.1523 16.9395C19.8789 17.5 19.5781 17.9922 19.1816 18.4297C18.2793 17.4727 16.3789 16.5977 13.9453 16.5977C11.5117 16.5977 9.625 17.4727 8.70898 18.416C8.3125 17.9922 8.01172 17.5 7.75195 16.9395L6.17969 17.6094C7.57422 20.5078 10.582 22.5449 13.9453 22.5449ZM13.9453 15.5176C15.6133 15.5312 16.9531 14.0957 16.9531 12.2363C16.9531 10.4727 15.6133 9.00977 13.9453 9.00977C12.2773 9.00977 10.9238 10.4727 10.9512 12.2363C10.9512 14.0957 12.2637 15.5039 13.9453 15.5176Z" fill="black" fill-opacity="0.85"/>
 </g>
</svg>
