<?xml version="1.0" encoding="UTF-8"?>
<!--Generator: Apple Native CoreSVG 326-->
<!DOCTYPE svg
PUBLIC "-//W3C//DTD SVG 1.1//EN"
       "http://www.w3.org/Graphics/SVG/1.1/DTD/svg11.dtd">
<svg version="1.1" xmlns="http://www.w3.org/2000/svg" xmlns:xlink="http://www.w3.org/1999/xlink" viewBox="0 0 31.3394 31.1993">
 <g>
  <rect height="31.1993" opacity="0" width="31.3394" x="0" y="0"/>
  <path d="M16.0625 19.39C15.8806 19.3703 15.6877 19.3662 15.492 19.3662C9.21656 19.3662 5.7439 23.5498 5.7439 25.8057C5.7439 26.0928 5.8943 26.1885 6.24976 26.1885L22.8611 26.1885L24.8912 28.2186C24.6399 28.2417 24.3687 28.253 24.0779 28.253L6.90601 28.253C4.62281 28.253 3.54273 27.5694 3.54273 26.0655C3.54273 22.7228 7.48351 17.9872 14.0452 17.3727ZM21.3982 9.1807C21.3982 11.2999 20.4408 13.1872 18.9668 14.3508L17.4676 12.8517C18.5027 12.0874 19.197 10.7356 19.197 9.1807C19.197 6.78812 17.5427 4.9971 15.492 4.9971C13.9939 4.9971 12.6831 6.00132 12.1055 7.48957L10.4951 5.87918C11.539 4.10619 13.3953 2.93265 15.492 2.93265C18.7732 2.93265 21.3982 5.6807 21.3982 9.1807Z" fill="black" fill-opacity="0.85"/>
  <path d="M27.7966 28.6494C28.2068 29.0596 28.8904 29.0459 29.2869 28.6358C29.697 28.2119 29.697 27.5557 29.2869 27.1455L4.21265 2.05765C3.8025 1.64749 3.1189 1.64749 2.70875 2.05765C2.29859 2.45413 2.29859 3.1514 2.70875 3.54788Z" fill="black" fill-opacity="0.85"/>
 </g>
</svg>
