<?xml version="1.0" encoding="UTF-8"?>
<!--Generator: Apple Native CoreSVG 326-->
<!DOCTYPE svg
PUBLIC "-//W3C//DTD SVG 1.1//EN"
       "http://www.w3.org/Graphics/SVG/1.1/DTD/svg11.dtd">
<svg version="1.1" xmlns="http://www.w3.org/2000/svg" xmlns:xlink="http://www.w3.org/1999/xlink" viewBox="0 0 33.4277 32.8809">
 <g>
  <rect height="32.8809" opacity="0" width="33.4277" x="0" y="0"/>
  <path d="M17.5684 27.1758L17.5684 31.6094C17.5684 32.2793 17.1719 32.6895 16.543 32.6895C15.8867 32.6895 15.5039 32.2793 15.5039 31.6094L15.5039 26.8144ZM17.5684 15.3125L26.0996 15.3125L26.0996 17.377L17.5684 17.377L17.5684 25.1165L15.5039 24.7585L15.5039 17.377L6.97266 17.377L6.97266 15.3125L15.5039 15.3125L15.5039 7.93689L17.5684 7.58069ZM4.9082 17.377L1.09375 17.377C0.410156 17.377 0 16.9805 0 16.3516C0 15.6953 0.410156 15.3125 1.09375 15.3125L4.9082 15.3125ZM33.0723 16.3516C33.0723 16.9805 32.6621 17.377 31.9785 17.377L28.1641 17.377L28.1641 15.3125L31.9785 15.3125C32.6621 15.3125 33.0723 15.6953 33.0723 16.3516ZM17.5684 1.09375L17.5684 5.51952L15.5039 5.88283L15.5039 1.09375C15.5039 0.410156 15.8867 0 16.543 0C17.1719 0 17.5684 0.410156 17.5684 1.09375Z" fill="black" fill-opacity="0.85"/>
  <path d="M9.07812 25.6895L23.9941 28.3008C26.6055 28.7656 28.1641 27.125 28.1641 24.1992L28.1641 8.50391C28.1641 5.42773 26.7148 3.91016 23.9941 4.38867L9.07812 7.01367C6.35742 7.49219 4.9082 8.81836 4.9082 11.1152L4.9082 21.5742C4.9082 23.8574 6.35742 25.2109 9.07812 25.6895ZM8.96875 23.625C7.66992 23.4062 6.97266 22.75 6.97266 21.6016L6.97266 11.0879C6.97266 9.93945 7.66992 9.2832 8.96875 9.06445L24.1035 6.45312C25.4023 6.23438 26.0996 6.95898 26.0996 8.47656L26.0996 24.2266C26.0996 25.6758 25.3613 26.4551 24.1035 26.25Z" fill="black" fill-opacity="0.85"/>
 </g>
</svg>
