<?xml version="1.0" encoding="UTF-8"?>
<!--Generator: Apple Native CoreSVG 326-->
<!DOCTYPE svg
PUBLIC "-//W3C//DTD SVG 1.1//EN"
       "http://www.w3.org/Graphics/SVG/1.1/DTD/svg11.dtd">
<svg version="1.1" xmlns="http://www.w3.org/2000/svg" xmlns:xlink="http://www.w3.org/1999/xlink" viewBox="0 0 57.7773 28.3965">
 <g>
  <rect height="28.3965" opacity="0" width="57.7773" x="0" y="0"/>
  <path d="M55.5488 24.7188C55.5488 25.8535 54.6738 26.5371 53.2246 26.5371L41.6045 26.5371C41.9182 26.0038 42.082 25.3836 42.082 24.7188C42.082 22.3232 40.6506 19.6376 38.1204 17.6226C39.7804 16.8238 41.7774 16.3242 44.0508 16.3242C51.1465 16.3242 55.5488 21.1914 55.5488 24.7188ZM49.5195 7.83398C49.5195 11.252 46.9902 13.877 44.0645 13.877C41.125 13.877 38.5957 11.252 38.5957 7.86133C38.5957 4.51172 41.1387 1.95508 44.0645 1.95508C46.9766 1.95508 49.5195 4.45703 49.5195 7.83398Z" fill="black" fill-opacity="0.85"/>
  <path d="M40.209 24.7188C40.209 25.8535 39.3477 26.5371 37.8848 26.5371L26.2641 26.5371C26.5784 26.0038 26.7422 25.3836 26.7422 24.7188C26.7422 22.3246 25.3087 19.6408 22.7798 17.6261C24.4409 16.8253 26.4387 16.3242 28.7109 16.3242C35.8066 16.3242 40.209 21.1914 40.209 24.7188ZM34.1797 7.83398C34.1797 11.252 31.6504 13.877 28.7246 13.877C25.7852 13.877 23.2559 11.252 23.2559 7.86133C23.2559 4.51172 25.7988 1.95508 28.7246 1.95508C31.6367 1.95508 34.1797 4.45703 34.1797 7.83398Z" fill="black" fill-opacity="0.85"/>
  <path d="M13.3711 13.877C16.3105 13.877 18.8398 11.252 18.8398 7.83398C18.8398 4.45703 16.2969 1.95508 13.3711 1.95508C10.4453 1.95508 7.90234 4.51172 7.90234 7.86133C7.90234 11.252 10.4453 13.877 13.3711 13.877ZM4.19727 26.5371L22.5312 26.5371C23.9941 26.5371 24.8691 25.8535 24.8691 24.7188C24.8691 21.1914 20.4531 16.3242 13.3711 16.3242C6.27539 16.3242 1.85938 21.1914 1.85938 24.7188C1.85938 25.8535 2.73438 26.5371 4.19727 26.5371Z" fill="black" fill-opacity="0.85"/>
 </g>
</svg>
