<?xml version="1.0" encoding="UTF-8"?>
<!--Generator: Apple Native CoreSVG 326-->
<!DOCTYPE svg
PUBLIC "-//W3C//DTD SVG 1.1//EN"
       "http://www.w3.org/Graphics/SVG/1.1/DTD/svg11.dtd">
<svg version="1.1" xmlns="http://www.w3.org/2000/svg" xmlns:xlink="http://www.w3.org/1999/xlink" viewBox="0 0 28.2461 27.9043">
 <g>
  <rect height="27.9043" opacity="0" width="28.2461" x="0" y="0"/>
  <path d="M2.33789 13.9453C2.33789 12.7012 2.5293 11.498 2.88477 10.3906L0.738281 9.48828C0.273438 10.8965 0 12.3867 0 13.9453C0 15.4902 0.273438 16.9941 0.751953 18.4023L2.88477 17.5C2.5293 16.3926 2.33789 15.1895 2.33789 13.9453ZM8.62695 3.58203L7.75195 1.47656C5.04492 2.83008 2.81641 5.05859 1.46289 7.76562L3.5957 8.6543C4.68945 6.48047 6.4668 4.70312 8.62695 3.58203ZM13.9316 2.32422C15.1758 2.32422 16.3789 2.51562 17.5137 2.88477L18.3887 0.751953C16.9805 0.273438 15.4766 0 13.9316 0C12.3867 0 10.8691 0.273438 9.46094 0.751953L10.3633 2.88477C11.4844 2.51562 12.6875 2.32422 13.9316 2.32422ZM24.2949 8.64062L26.4141 7.76562C25.0469 5.05859 22.8184 2.83008 20.1113 1.46289L19.2363 3.58203C21.3965 4.68945 23.1875 6.4668 24.2949 8.64062ZM25.5664 13.9453C25.5664 15.1895 25.375 16.3926 25.0195 17.5137L27.1387 18.416C27.6172 17.0078 27.8906 15.4902 27.8906 13.9453C27.8906 12.3867 27.6172 10.8828 27.1387 9.47461L25.0059 10.377C25.375 11.498 25.5664 12.7012 25.5664 13.9453ZM13.9453 27.8906C19.3047 27.8906 24.0898 24.7324 26.4141 20.125L24.2949 19.25C23.8164 20.1523 23.2559 20.9863 22.5859 21.7246C21.2188 20.1113 18.0742 18.5938 13.9453 18.5938C9.81641 18.5938 6.67188 20.1113 5.30469 21.7246C4.64844 20.9727 4.06055 20.1523 3.5957 19.25L1.47656 20.125C3.80078 24.7324 8.58594 27.8906 13.9453 27.8906ZM13.9453 16.2695C16.5703 16.2969 18.6348 14.0547 18.6348 11.1152C18.6348 8.35352 16.5703 6.07031 13.9453 6.07031C11.3203 6.07031 9.24219 8.35352 9.25586 11.1152C9.26953 14.0547 11.3203 16.2422 13.9453 16.2695Z" fill="black" fill-opacity="0.85"/>
 </g>
</svg>
