<?xml version="1.0" encoding="UTF-8"?>
<!--Generator: Apple Native CoreSVG 326-->
<!DOCTYPE svg
PUBLIC "-//W3C//DTD SVG 1.1//EN"
       "http://www.w3.org/Graphics/SVG/1.1/DTD/svg11.dtd">
<svg version="1.1" xmlns="http://www.w3.org/2000/svg" xmlns:xlink="http://www.w3.org/1999/xlink" viewBox="0 0 32.5938 25.1699">
 <g>
  <rect height="25.1699" opacity="0" width="32.5938" x="0" y="0"/>
  <path d="M32.2383 4.23828L32.2383 20.9453C32.2383 23.7617 30.8164 25.1699 27.9453 25.1699L4.29297 25.1699C1.43555 25.1699 0 23.7617 0 20.9453L0 4.23828C0 1.42188 1.43555 0 4.29297 0L27.9453 0C30.8164 0 32.2383 1.42188 32.2383 4.23828ZM5.64648 6.68555C4.29297 6.68555 3.63672 7.3418 3.63672 8.66797L3.63672 16.5293C3.63672 17.8418 4.29297 18.5117 5.64648 18.5117L13.4395 18.5117C14.793 18.5117 15.4629 17.8418 15.4629 16.5293L15.4629 8.66797C15.4629 7.35547 14.793 6.68555 13.4395 6.68555ZM17.7324 12.6055C17.7324 16.0645 20.043 18.3613 23.4883 18.3613C24.3906 18.3613 25.2656 18.2656 25.8125 18.0469C26.1953 17.8828 26.4277 17.6504 26.4277 17.2812C26.4277 16.9258 26.168 16.6387 25.7988 16.6387C25.6621 16.6387 25.5391 16.6797 25.3477 16.707C24.9238 16.7754 24.5273 16.9395 23.6523 16.9395C20.9043 16.9395 19.2227 15.2988 19.2227 12.6191C19.2227 9.99414 20.9453 8.18945 23.4473 8.18945C25.9355 8.18945 27.6172 9.76172 27.6172 12.0996C27.6172 13.4941 27.1934 14.3555 26.5234 14.3555C26.0996 14.3555 25.9355 14.1777 25.9355 13.7812L25.9355 10.2812C25.9355 9.85742 25.6348 9.5293 25.2246 9.5293C24.9102 9.5293 24.623 9.76172 24.541 10.0352L24.541 10.1445C24.1992 9.76172 23.7344 9.5293 23.0645 9.5293C21.5742 9.5293 20.5078 10.8281 20.5078 12.6191C20.5078 14.4648 21.5742 15.7227 23.1055 15.7227C23.7891 15.7227 24.377 15.4219 24.7871 14.8887C25.0879 15.4219 25.6895 15.7227 26.3867 15.7227C27.9727 15.7227 29.0117 14.2598 29.0117 12.0176C29.0117 8.94141 26.7148 6.80859 23.4473 6.80859C20.0566 6.80859 17.7324 9.16016 17.7324 12.6055ZM13.8223 17.1855L5.27734 17.1855C5.70117 15.9141 7.27344 14.7383 9.55664 14.7383C11.8125 14.7383 13.3984 15.9141 13.8223 17.1855ZM24.582 12.5508C24.582 13.6309 24.0898 14.2871 23.3242 14.2871C22.5586 14.2871 22.0938 13.6582 22.0938 12.5918C22.0938 11.5391 22.5723 10.9238 23.3379 10.9238C24.1035 10.9238 24.582 11.5391 24.582 12.5508ZM11.7578 11.3203C11.7578 12.6875 10.7734 13.7402 9.54297 13.7402C8.3125 13.7402 7.3418 12.6875 7.3418 11.3203C7.3418 10.0215 8.3125 8.96875 9.54297 8.96875C10.7734 8.96875 11.7578 10.0215 11.7578 11.3203Z" fill="black" fill-opacity="0.85"/>
 </g>
</svg>
