<?xml version="1.0" encoding="UTF-8"?>
<!--Generator: Apple Native CoreSVG 326-->
<!DOCTYPE svg
PUBLIC "-//W3C//DTD SVG 1.1//EN"
       "http://www.w3.org/Graphics/SVG/1.1/DTD/svg11.dtd">
<svg version="1.1" xmlns="http://www.w3.org/2000/svg" xmlns:xlink="http://www.w3.org/1999/xlink" viewBox="0 0 30.4883 30.2012">
 <g>
  <rect height="30.2012" opacity="0" width="30.4883" x="0" y="0"/>
  <path d="M30.1328 8.09375L30.1328 18.5664C30.1328 22.5723 27.9453 24.8145 23.8711 24.8145L14.6289 24.8145L9.69336 29.3262C9.05078 29.9277 8.6543 30.2012 8.12109 30.2012C7.3418 30.2012 6.9043 29.6406 6.9043 28.793L6.9043 24.8145L6.26172 24.8145C2.1875 24.8145 0 22.5859 0 18.5664L0 8.09375C0 4.07422 2.1875 1.83203 6.26172 1.83203L23.8711 1.83203C27.9453 1.83203 30.1328 4.08789 30.1328 8.09375ZM8.09375 19.5918C8.09375 20.084 8.33984 20.4395 8.88672 20.4395L21.2598 20.4395C21.8066 20.4395 22.0664 20.084 22.0664 19.5918C22.0664 18.1152 19.8379 14.2598 15.0801 14.2598C10.3223 14.2598 8.09375 18.1152 8.09375 19.5918ZM11.5938 9.35156C11.5938 11.5254 13.1523 13.1387 15.0801 13.1523C16.9941 13.166 18.5527 11.5254 18.5527 9.35156C18.5527 7.32812 16.9941 5.63281 15.0801 5.63281C13.1523 5.63281 11.5938 7.32812 11.5938 9.35156Z" fill="black" fill-opacity="0.85"/>
 </g>
</svg>
