<?xml version="1.0" encoding="UTF-8"?>
<!--Generator: Apple Native CoreSVG 326-->
<!DOCTYPE svg
PUBLIC "-//W3C//DTD SVG 1.1//EN"
       "http://www.w3.org/Graphics/SVG/1.1/DTD/svg11.dtd">
<svg version="1.1" xmlns="http://www.w3.org/2000/svg" xmlns:xlink="http://www.w3.org/1999/xlink" viewBox="0 0 24.4043 29.2988">
 <g>
  <rect height="29.2988" opacity="0" width="24.4043" x="0" y="0"/>
  <path d="M12.0176 9.91211C14.6152 9.91211 16.6523 7.69727 16.6523 4.88086C16.6523 2.16016 14.6016 0 12.0176 0C9.43359 0 7.38281 2.17383 7.39648 4.9082C7.39648 7.71094 9.41992 9.91211 12.0176 9.91211ZM12.0176 7.98438C10.5273 7.98438 9.43359 6.69922 9.43359 4.9082C9.43359 3.18555 10.541 1.92773 12.0176 1.92773C13.4941 1.92773 14.6152 3.18555 14.6152 4.88086C14.6152 6.68555 13.5078 7.98438 12.0176 7.98438ZM4.4707 19.8242L19.5645 19.8242C20.6992 19.8242 21.3555 19.168 21.3555 18.1152C21.3555 15.3125 17.8008 11.2383 12.0176 11.2383C6.2207 11.2383 2.67969 15.3125 2.67969 18.1152C2.67969 19.168 3.32227 19.8242 4.4707 19.8242ZM5.12695 17.8965C4.83984 17.8965 4.7168 17.8008 4.74414 17.5957C5.00391 15.9824 7.5332 13.166 12.0176 13.166C16.4883 13.166 19.0312 15.9824 19.291 17.5957C19.3184 17.8008 19.1816 17.8965 18.9082 17.8965ZM1.09375 29.2988L22.9551 29.2988C23.5566 29.2988 24.0488 28.8066 24.0488 28.2051C24.0488 27.6035 23.5566 27.0977 22.9551 27.0977L22.1074 27.0977L22.1074 23.9121C22.1074 22.4766 21.4375 21.6973 19.8926 21.6973L4.15625 21.6973C2.625 21.6973 1.94141 22.4766 1.94141 23.9121L1.94141 27.0977L1.09375 27.0977C0.492188 27.0977 0 27.6035 0 28.2051C0 28.8066 0.492188 29.2988 1.09375 29.2988ZM9.33789 26.332C8.87305 26.332 8.54492 25.9766 8.54492 25.5117C8.54492 25.0605 8.87305 24.7188 9.33789 24.7188L14.7383 24.7188C15.1895 24.7188 15.5312 25.0605 15.5312 25.5117C15.5312 25.9766 15.1895 26.332 14.7383 26.332Z" fill="black" fill-opacity="0.85"/>
 </g>
</svg>
