<?xml version="1.0" encoding="UTF-8"?>
<!--Generator: Apple Native CoreSVG 326-->
<!DOCTYPE svg
PUBLIC "-//W3C//DTD SVG 1.1//EN"
       "http://www.w3.org/Graphics/SVG/1.1/DTD/svg11.dtd">
<svg version="1.1" xmlns="http://www.w3.org/2000/svg" xmlns:xlink="http://www.w3.org/1999/xlink" viewBox="0 0 33.7285 34.1113">
 <g>
  <rect height="34.1113" opacity="0" width="33.7285" x="0" y="0"/>
  <path d="M23.9941 5.40039L24.3888 7.64258L13.0156 7.64258C9.41992 7.64258 7.27344 9.73438 7.27344 13.3438L7.27344 27.3623C5.59595 27.2401 4.58281 26.18 4.22461 24.1719L1.61328 9.33789C1.16211 6.82227 2.22852 5.3457 4.75781 4.89453L19.5098 2.29688C22.0664 1.85938 23.543 2.88477 23.9941 5.40039Z" fill="black" fill-opacity="0.85"/>
  <path d="M13.0156 32.2383L27.9863 32.2383C30.5703 32.2383 31.8691 30.9531 31.8691 28.4102L31.8691 13.3438C31.8691 10.8008 30.5703 9.51562 27.9863 9.51562L13.0156 9.51562C10.4453 9.51562 9.13281 10.7871 9.13281 13.3438L9.13281 28.4102C9.13281 30.9668 10.4453 32.2383 13.0156 32.2383ZM12.1816 30.1738C13.125 27.248 16.4609 24.9922 20.5078 24.9922C24.5547 24.9922 27.877 27.248 28.8203 30.1738ZM20.4941 22.9414C18.1426 22.9414 16.2832 20.959 16.2832 18.3203C16.2832 15.832 18.1426 13.7949 20.4941 13.7949C22.8594 13.7949 24.7188 15.832 24.7188 18.3203C24.7188 20.959 22.8594 22.9414 20.4941 22.9414Z" fill="black" fill-opacity="0.85"/>
 </g>
</svg>
