<?xml version="1.0" encoding="UTF-8"?>
<!--Generator: Apple Native CoreSVG 326-->
<!DOCTYPE svg
PUBLIC "-//W3C//DTD SVG 1.1//EN"
       "http://www.w3.org/Graphics/SVG/1.1/DTD/svg11.dtd">
<svg version="1.1" xmlns="http://www.w3.org/2000/svg" xmlns:xlink="http://www.w3.org/1999/xlink" viewBox="0 0 23.3516 29.3262">
 <g>
  <rect height="29.3262" opacity="0" width="23.3516" x="0" y="0"/>
  <path d="M0 28.2324C0 28.8887 0.4375 29.3125 1.09375 29.3125L21.9023 29.3125C22.5586 29.3125 22.9961 28.8887 22.9961 28.2324L22.9961 1.09375C22.9961 0.4375 22.5586 0 21.9023 0L1.09375 0C0.4375 0 0 0.4375 0 1.09375ZM2.20117 26.7148L2.20117 2.61133C2.20117 2.31055 2.31055 2.20117 2.59766 2.20117L20.3984 2.20117C20.6855 2.20117 20.7949 2.31055 20.7949 2.61133L20.7949 26.7148C20.7949 27.0156 20.6855 27.1113 20.3984 27.1113L2.59766 27.1113C2.31055 27.1113 2.20117 27.0156 2.20117 26.7148Z" fill="black" fill-opacity="0.85"/>
  <path d="M3.67773 24.8418C3.67773 25.3477 3.96484 25.6484 4.4707 25.6484L18.5254 25.6484C19.0312 25.6484 19.3184 25.3477 19.3184 24.8418L19.3184 4.48438C19.3184 3.97852 19.0312 3.67773 18.5254 3.67773L4.4707 3.67773C3.96484 3.67773 3.67773 3.97852 3.67773 4.48438ZM5.05859 23.9531L5.05859 5.37305C5.05859 5.16797 5.1543 5.05859 5.35938 5.05859L17.6367 5.05859C17.8418 5.05859 17.9375 5.16797 17.9375 5.37305L17.9375 23.9531C17.9375 24.1582 17.8418 24.2676 17.6367 24.2676L5.35938 24.2676C5.1543 24.2676 5.05859 24.1582 5.05859 23.9531ZM5.00391 24.8828L17.9648 24.8828C18.5254 24.8828 18.7852 24.5273 18.7852 24.0078C18.7852 22.4629 16.4609 18.4297 11.4844 18.4297C6.52148 18.4297 4.18359 22.4629 4.18359 24.0078C4.18359 24.5273 4.44336 24.8828 5.00391 24.8828ZM11.4844 17.2676C13.5078 17.2812 15.1211 15.5723 15.1211 13.3027C15.1211 11.1699 13.5078 9.40625 11.4844 9.40625C9.47461 9.40625 7.84766 11.1699 7.84766 13.3027C7.84766 15.5723 9.47461 17.2539 11.4844 17.2676Z" fill="black" fill-opacity="0.85"/>
 </g>
</svg>
