<?xml version="1.0" encoding="UTF-8"?>
<!--Generator: Apple Native CoreSVG 326-->
<!DOCTYPE svg
PUBLIC "-//W3C//DTD SVG 1.1//EN"
       "http://www.w3.org/Graphics/SVG/1.1/DTD/svg11.dtd">
<svg version="1.1" xmlns="http://www.w3.org/2000/svg" xmlns:xlink="http://www.w3.org/1999/xlink" viewBox="0 0 28.2461 27.9043">
 <g>
  <rect height="27.9043" opacity="0" width="28.2461" x="0" y="0"/>
  <path d="M13.9453 27.8906C21.6426 27.8906 27.8906 21.6426 27.8906 13.9453C27.8906 6.24805 21.6426 0 13.9453 0C6.24805 0 0 6.24805 0 13.9453C0 21.6426 6.24805 27.8906 13.9453 27.8906ZM13.9453 25.5664C7.51953 25.5664 2.32422 20.3711 2.32422 13.9453C2.32422 7.51953 7.51953 2.32422 13.9453 2.32422C20.3711 2.32422 25.5664 7.51953 25.5664 13.9453C25.5664 20.3711 20.3711 25.5664 13.9453 25.5664Z" fill="black" fill-opacity="0.85"/>
  <path d="M10.7734 19.0723C13.0566 19.0723 14.123 17.6641 14.123 15.8867C14.123 14.0137 13.002 13.3164 11.5391 12.7559L10.7598 12.4551C9.77539 12.0859 9.10547 11.6484 9.10547 10.5957C9.10547 9.66602 9.66602 8.95508 10.7051 8.95508C11.6211 8.95508 12.25 9.48828 12.4961 10.4863C12.5918 10.8691 12.8516 11.0332 13.2207 11.0332C13.6172 11.0332 13.877 10.7461 13.877 10.3496C13.877 10.2402 13.8633 10.0898 13.8223 9.9668C13.4805 8.53125 12.291 7.64258 10.7324 7.64258C8.68164 7.64258 7.57422 9.02344 7.57422 10.6914C7.57422 12.3457 8.54492 13.248 10.1035 13.8086L10.8828 14.0957C11.8809 14.4512 12.5918 14.9707 12.5918 16.0371C12.5918 16.9941 11.9629 17.7598 10.8008 17.7598C9.77539 17.7598 9.10547 17.1992 8.87305 16.1738C8.76367 15.791 8.53125 15.6133 8.14844 15.6133C7.75195 15.6133 7.46484 15.9141 7.46484 16.3379C7.46484 16.5156 7.50586 16.7207 7.54688 16.8574C7.99805 18.293 9.16016 19.0723 10.7734 19.0723ZM15.1758 21.6562C15.5859 21.6562 15.8047 21.4238 15.873 20.9727L17.9785 8.73633C18.0059 8.64062 18.0332 8.49023 18.0332 8.29883C18.0332 7.91602 17.7734 7.64258 17.377 7.64258C16.9531 7.64258 16.748 7.88867 16.666 8.33984L14.5605 20.5625C14.5469 20.6582 14.5195 20.8086 14.5195 21C14.5195 21.3828 14.7793 21.6562 15.1758 21.6562ZM19.8379 18.9492C20.3984 18.9492 20.8223 18.5391 20.8223 18.0059C20.8223 17.4727 20.3984 17.0488 19.8379 17.0488C19.3047 17.0488 18.8945 17.4727 18.8945 18.0059C18.8945 18.5391 19.3047 18.9492 19.8379 18.9492Z" fill="black" fill-opacity="0.85"/>
 </g>
</svg>
