<?xml version="1.0" encoding="UTF-8"?>
<!--Generator: Apple Native CoreSVG 326-->
<!DOCTYPE svg
PUBLIC "-//W3C//DTD SVG 1.1//EN"
       "http://www.w3.org/Graphics/SVG/1.1/DTD/svg11.dtd">
<svg version="1.1" xmlns="http://www.w3.org/2000/svg" xmlns:xlink="http://www.w3.org/1999/xlink" viewBox="0 0 33.291 27.4395">
 <g>
  <rect height="27.4395" opacity="0" width="33.291" x="0" y="0"/>
  <path d="M32.9355 16.4609C32.9355 12.4414 31.4863 8.73633 29.0664 5.86523C28.793 5.53711 28.3281 5.53711 28.0273 5.85156L24.8555 9.02344C24.5957 9.2832 24.582 9.65234 24.8145 9.93945C26.2227 11.7441 27.0703 14.0137 27.0703 16.4609C27.0703 18.9219 26.2227 21.1914 24.7324 23.0918C24.541 23.3242 24.5547 23.625 24.7598 23.8438L28.0137 27.0977C28.3281 27.4121 28.7793 27.4121 29.0664 27.0703C31.4863 24.1992 32.9355 20.4941 32.9355 16.4609Z" fill="black" fill-opacity="0.85"/>
  <path d="M16.4609 5.86523C18.9355 5.86523 21.2051 6.72656 23.0234 8.13477C23.2969 8.35352 23.6523 8.32617 23.9121 8.06641L27.084 4.89453C27.3984 4.58008 27.3848 4.12891 27.0566 3.85547C24.1992 1.44922 20.4941 0 16.4609 0C12.4414 0 8.73633 1.44922 5.87891 3.85547C5.55078 4.12891 5.53711 4.58008 5.85156 4.89453L9.02344 8.06641C9.2832 8.32617 9.65234 8.35352 9.95312 8.12109C11.7578 6.72656 14.0137 5.86523 16.4609 5.86523Z" fill="black" fill-opacity="0.85"/>
  <path d="M0 16.4609C0 20.4941 1.44922 24.1992 3.86914 27.0703C4.14258 27.4121 4.60742 27.4121 4.9082 27.0977L8.16211 23.8438C8.36719 23.625 8.39453 23.3242 8.20312 23.0918C6.71289 21.1914 5.86523 18.9219 5.86523 16.4609C5.86523 14.0137 6.69922 11.7441 8.12109 9.93945C8.33984 9.65234 8.33984 9.2832 8.08008 9.02344L4.9082 5.85156C4.59375 5.53711 4.14258 5.53711 3.86914 5.86523C1.44922 8.73633 0 12.4414 0 16.4609Z" fill="black" fill-opacity="0.85"/>
  <path d="M13.2891 21.7793C15.5723 21.7793 16.6523 20.3711 16.6523 18.5801C16.6523 16.7207 15.5176 16.0098 14.0547 15.4629L13.2754 15.1621C12.3047 14.793 11.6348 14.3418 11.6348 13.2891C11.6348 12.3594 12.1816 11.6621 13.2344 11.6621C14.1367 11.6621 14.7656 12.1816 15.0117 13.1797C15.1074 13.5625 15.3672 13.7266 15.7363 13.7266C16.1328 13.7266 16.3926 13.4531 16.3926 13.043C16.3926 12.9336 16.3789 12.7969 16.3516 12.6602C16.0098 11.2246 14.8066 10.3359 13.248 10.3359C11.2109 10.3359 10.0898 11.7305 10.0898 13.3984C10.0898 15.0391 11.0742 15.9551 12.6191 16.5156L13.4121 16.7891C14.4102 17.1445 15.1074 17.6777 15.1074 18.7305C15.1074 19.6875 14.4785 20.4531 13.3301 20.4531C12.291 20.4531 11.6348 19.8926 11.3887 18.8672C11.293 18.4844 11.0469 18.3066 10.6777 18.3066C10.2676 18.3066 9.99414 18.6211 9.99414 19.0449C9.99414 19.209 10.0215 19.4141 10.0625 19.5645C10.5137 20.9863 11.6758 21.7793 13.2891 21.7793ZM17.6914 24.3496C18.1152 24.3496 18.3203 24.1172 18.4023 23.666L20.5078 11.4297C20.5215 11.3477 20.5488 11.1836 20.5488 11.0059C20.5488 10.623 20.2891 10.3496 19.8926 10.3496C19.4824 10.3496 19.2637 10.582 19.1953 11.0332L17.0898 23.2695C17.0762 23.3516 17.0352 23.5156 17.0352 23.6934C17.0352 24.0762 17.2949 24.3496 17.6914 24.3496ZM22.3535 21.6562C22.9141 21.6562 23.3379 21.2461 23.3379 20.6992C23.3379 20.166 22.9141 19.7422 22.3535 19.7422C21.8203 19.7422 21.4102 20.166 21.4102 20.6992C21.4102 21.2461 21.8203 21.6562 22.3535 21.6562Z" fill="black" fill-opacity="0.85"/>
 </g>
</svg>
