<?xml version="1.0" encoding="UTF-8"?>
<!--Generator: Apple Native CoreSVG 326-->
<!DOCTYPE svg
PUBLIC "-//W3C//DTD SVG 1.1//EN"
       "http://www.w3.org/Graphics/SVG/1.1/DTD/svg11.dtd">
<svg version="1.1" xmlns="http://www.w3.org/2000/svg" xmlns:xlink="http://www.w3.org/1999/xlink" viewBox="0 0 28.2461 27.9043">
 <g>
  <rect height="27.9043" opacity="0" width="28.2461" x="0" y="0"/>
  <path d="M13.9453 27.8906C21.6426 27.8906 27.8906 21.6289 27.8906 13.9453C27.8906 6.24805 21.6426 0 13.9453 0C6.26172 0 0 6.24805 0 13.9453C0 21.6289 6.26172 27.8906 13.9453 27.8906Z" fill="black" fill-opacity="0.85"/>
  <path d="M10.6641 19.209C8.99609 19.209 7.80664 18.4023 7.3418 16.9258C7.30078 16.7891 7.24609 16.5703 7.24609 16.3926C7.24609 15.9551 7.54688 15.6406 7.9707 15.6406C8.35352 15.6406 8.59961 15.8184 8.70898 16.2148C8.95508 17.2812 9.63867 17.8555 10.6914 17.8555C11.8945 17.8555 12.5371 17.0625 12.5371 16.0781C12.5371 14.9844 11.7988 14.4512 10.7734 14.082L9.9668 13.7812C8.36719 13.207 7.36914 12.2773 7.36914 10.5684C7.36914 8.8457 8.50391 7.42383 10.623 7.42383C12.2363 7.42383 13.4668 8.33984 13.8086 9.81641C13.8496 9.95312 13.8633 10.1035 13.8633 10.2129C13.8633 10.623 13.6035 10.9238 13.1934 10.9238C12.8105 10.9238 12.5371 10.7598 12.4414 10.3633C12.1816 9.33789 11.5391 8.79102 10.5957 8.79102C9.5293 8.79102 8.95508 9.51562 8.95508 10.4727C8.95508 11.5527 9.63867 12.0039 10.6504 12.3867L11.457 12.7012C12.9609 13.2754 14.123 13.9863 14.123 15.9277C14.123 17.7598 13.0293 19.209 10.6641 19.209ZM15.2031 21.875C14.793 21.875 14.5332 21.5879 14.5332 21.1914C14.5332 21 14.5605 20.8359 14.5742 20.7402L16.7344 8.14844C16.8301 7.68359 17.0352 7.42383 17.4727 7.42383C17.8828 7.42383 18.1562 7.71094 18.1562 8.10742C18.1562 8.29883 18.1289 8.46289 18.1016 8.55859L15.9277 21.1504C15.8594 21.6289 15.627 21.875 15.2031 21.875ZM20.0156 19.0859C19.4688 19.0859 19.0449 18.6621 19.0449 18.1016C19.0449 17.5547 19.4688 17.1172 20.0156 17.1172C20.6035 17.1172 21.041 17.5547 21.041 18.1016C21.041 18.6621 20.6035 19.0859 20.0156 19.0859Z" fill="white"/>
 </g>
</svg>
