<?xml version="1.0" encoding="UTF-8"?>
<!--Generator: Apple Native CoreSVG 326-->
<!DOCTYPE svg
PUBLIC "-//W3C//DTD SVG 1.1//EN"
       "http://www.w3.org/Graphics/SVG/1.1/DTD/svg11.dtd">
<svg version="1.1" xmlns="http://www.w3.org/2000/svg" xmlns:xlink="http://www.w3.org/1999/xlink" viewBox="0 0 30.8848 29.1895">
 <g>
  <rect height="29.1895" opacity="0" width="30.8848" x="0" y="0"/>
  <path d="M1.81836 27.5898L28.7109 27.5898L28.7109 25.9766C28.7109 25.4297 28.3965 25.1016 27.8359 25.1016L26.9609 25.1016L26.9609 9.37891L28.1641 9.37891C28.916 9.37891 29.3535 8.83203 29.3535 8.27148C29.3535 7.86133 29.1211 7.50586 28.6152 7.21875L16.9395 0.478516C16.3926 0.164062 15.8184 0 15.2578 0C14.6973 0 14.1094 0.164062 13.5898 0.478516L1.91406 7.21875C1.39453 7.50586 1.17578 7.86133 1.17578 8.27148C1.17578 8.83203 1.61328 9.37891 2.36523 9.37891L3.56836 9.37891L3.56836 25.1016L2.70703 25.1016C2.14648 25.1016 1.81836 25.4297 1.81836 25.9766ZM1.09375 29.1758L29.4219 29.1758C30.0234 29.1758 30.5293 28.6699 30.5293 28.0684C30.5293 27.4668 30.0234 26.9746 29.4219 26.9746L1.09375 26.9746C0.492188 26.9746 0 27.4668 0 28.0684C0 28.6699 0.492188 29.1758 1.09375 29.1758Z" fill="black" fill-opacity="0.85"/>
  <path d="M12.4414 22.0938C11.9219 22.0938 11.6074 21.7656 11.6074 21.2461L11.6074 13.7266L10.7051 13.7266C10.4316 13.7266 10.2129 13.5215 10.2129 13.2617C10.2129 12.9883 10.4316 12.7832 10.7051 12.7832L11.6074 12.7832L11.6074 10.1035C11.6074 9.57031 11.9219 9.24219 12.4551 9.24219L15.8867 9.24219C18.1152 9.24219 19.7559 10.5957 19.9883 12.7832L20.6719 12.7832C20.959 12.7832 21.1777 12.9883 21.1777 13.2617C21.1777 13.5078 20.959 13.7266 20.6719 13.7266L20.002 13.7266C19.8379 15.9688 18.1836 17.459 15.8594 17.459L13.2754 17.459L13.2754 21.2461C13.2754 21.7656 12.9473 22.0938 12.4414 22.0938ZM13.2754 16.0918L15.4355 16.0918C17.1035 16.0918 18.1562 15.2715 18.293 13.7266L13.2754 13.7266ZM13.2754 12.7832L18.2793 12.7832C18.0742 11.334 16.9941 10.623 15.4629 10.623L13.2754 10.623Z" fill="white"/>
 </g>
</svg>
