<?xml version="1.0" encoding="UTF-8"?>
<!--Generator: Apple Native CoreSVG 326-->
<!DOCTYPE svg
PUBLIC "-//W3C//DTD SVG 1.1//EN"
       "http://www.w3.org/Graphics/SVG/1.1/DTD/svg11.dtd">
<svg version="1.1" xmlns="http://www.w3.org/2000/svg" xmlns:xlink="http://www.w3.org/1999/xlink" viewBox="0 0 30.9258 30.584">
 <g>
  <rect height="30.584" opacity="0" width="30.9258" x="0" y="0"/>
  <path d="M15.2852 30.5703C23.6797 30.5703 30.5703 23.6797 30.5703 15.2852C30.5703 6.89062 23.6797 0 15.2852 0C6.89062 0 0 6.89062 0 15.2852C0 23.6797 6.89062 30.5703 15.2852 30.5703ZM15.2852 25.4844C9.65234 25.4844 5.08594 20.918 5.08594 15.2852C5.08594 9.63867 9.65234 5.08594 15.2852 5.08594C20.9316 5.08594 25.4844 9.63867 25.4844 15.2852C25.4844 20.918 20.9316 25.4844 15.2852 25.4844Z" fill="black" fill-opacity="0.85"/>
  <path d="M12.5508 21.5605C13.043 21.5605 13.3574 21.2598 13.3574 20.7539L13.3574 17.0762L15.8594 17.0762C18.2383 17.0762 19.9062 15.4629 19.9062 13.084C19.9062 10.6504 18.2109 9.11914 15.8867 9.11914L12.5645 9.11914C12.0586 9.11914 11.7441 9.43359 11.7441 9.93945L11.7441 20.7539C11.7441 21.2598 12.0586 21.5605 12.5508 21.5605ZM13.3574 15.75L13.3574 10.4453L15.4766 10.4453C17.1309 10.4453 18.2656 11.3066 18.2656 13.084C18.2656 14.834 17.1992 15.75 15.4629 15.75ZM10.4043 13.002C10.4043 13.2754 10.6094 13.4668 10.8691 13.4668L20.5352 13.4668C20.8086 13.4668 21.0137 13.2617 21.0137 13.002C21.0137 12.7559 20.8086 12.5508 20.5352 12.5508L10.8691 12.5508C10.6094 12.5508 10.4043 12.7559 10.4043 13.002Z" fill="black" fill-opacity="0.85"/>
 </g>
</svg>
