<?xml version="1.0" encoding="UTF-8"?>
<!--Generator: Apple Native CoreSVG 326-->
<!DOCTYPE svg
PUBLIC "-//W3C//DTD SVG 1.1//EN"
       "http://www.w3.org/Graphics/SVG/1.1/DTD/svg11.dtd">
<svg version="1.1" xmlns="http://www.w3.org/2000/svg" xmlns:xlink="http://www.w3.org/1999/xlink" viewBox="0 0 33.5408 27.9043">
 <g>
  <rect height="27.9043" opacity="0" width="33.5408" x="0" y="0"/>
  <path d="M16.5995 27.8906C24.2968 27.8906 30.5448 21.6426 30.5448 13.9453C30.5448 6.24805 24.2968 0 16.5995 0C8.90224 0 2.65419 6.24805 2.65419 13.9453L4.97841 13.9453C4.97841 7.51953 10.1737 2.32422 16.5995 2.32422C23.0253 2.32422 28.2206 7.51953 28.2206 13.9453C28.2206 20.3711 23.0253 25.5664 16.5995 25.5664C12.7167 25.5664 9.2577 23.6523 7.19325 20.7539C6.76942 20.1934 6.12684 20.0156 5.55263 20.3574C5.00575 20.6992 4.84169 21.4648 5.30653 22.0664C7.83583 25.6074 11.9784 27.8906 16.5995 27.8906ZM0.972548 11.3066C-0.0118272 11.3066-0.257921 11.9766 0.275282 12.7422L3.33778 17.0898C3.78895 17.7188 4.4452 17.7051 4.8827 17.0898L7.93153 12.7285C8.46474 11.9766 8.20497 11.3066 7.24794 11.3066Z" fill="black" fill-opacity="0.85"/>
  <path d="M13.8651 20.2207C14.3573 20.2207 14.6718 19.9199 14.6718 19.4141L14.6718 15.7363L17.1737 15.7363C19.5526 15.7363 21.2206 14.123 21.2206 11.7441C21.2206 9.31055 19.5253 7.7793 17.2011 7.7793L13.8788 7.7793C13.3729 7.7793 13.0585 8.09375 13.0585 8.59961L13.0585 19.4141C13.0585 19.9199 13.3729 20.2207 13.8651 20.2207ZM14.6718 14.4102L14.6718 9.10547L16.7909 9.10547C18.4452 9.10547 19.5663 9.9668 19.5663 11.7441C19.5663 13.4941 18.5136 14.4102 16.7772 14.4102ZM11.7186 11.6621C11.7186 11.9355 11.9237 12.127 12.1835 12.127L21.8495 12.127C22.1229 12.127 22.328 11.9219 22.328 11.6621C22.328 11.416 22.1229 11.2109 21.8495 11.2109L12.1835 11.2109C11.9237 11.2109 11.7186 11.416 11.7186 11.6621Z" fill="black" fill-opacity="0.85"/>
 </g>
</svg>
