<?xml version="1.0" encoding="UTF-8"?>
<!--Generator: Apple Native CoreSVG 326-->
<!DOCTYPE svg
PUBLIC "-//W3C//DTD SVG 1.1//EN"
       "http://www.w3.org/Graphics/SVG/1.1/DTD/svg11.dtd">
<svg version="1.1" xmlns="http://www.w3.org/2000/svg" xmlns:xlink="http://www.w3.org/1999/xlink" viewBox="0 0 28.2461 27.9043">
 <g>
  <rect height="27.9043" opacity="0" width="28.2461" x="0" y="0"/>
  <path d="M13.9453 27.8906C21.6426 27.8906 27.8906 21.6426 27.8906 13.9453C27.8906 6.24805 21.6426 0 13.9453 0C6.24805 0 0 6.24805 0 13.9453C0 21.6426 6.24805 27.8906 13.9453 27.8906ZM13.9453 25.5664C7.51953 25.5664 2.32422 20.3711 2.32422 13.9453C2.32422 7.51953 7.51953 2.32422 13.9453 2.32422C20.3711 2.32422 25.5664 7.51953 25.5664 13.9453C25.5664 20.3711 20.3711 25.5664 13.9453 25.5664Z" fill="black" fill-opacity="0.85"/>
  <path d="M11.1973 20.2207C11.6895 20.2207 12.0039 19.9199 12.0039 19.4141L12.0039 15.7363L14.5059 15.7363C16.8848 15.7363 18.5527 14.123 18.5527 11.7441C18.5527 9.31055 16.8574 7.7793 14.5332 7.7793L11.2109 7.7793C10.7051 7.7793 10.3906 8.09375 10.3906 8.59961L10.3906 19.4141C10.3906 19.9199 10.7051 20.2207 11.1973 20.2207ZM12.0039 14.4102L12.0039 9.10547L14.123 9.10547C15.7773 9.10547 16.8984 9.9668 16.8984 11.7441C16.8984 13.4941 15.8457 14.4102 14.1094 14.4102ZM9.05078 11.6621C9.05078 11.9355 9.25586 12.127 9.51562 12.127L19.1816 12.127C19.4551 12.127 19.6602 11.9219 19.6602 11.6621C19.6602 11.416 19.4551 11.2109 19.1816 11.2109L9.51562 11.2109C9.25586 11.2109 9.05078 11.416 9.05078 11.6621Z" fill="black" fill-opacity="0.85"/>
 </g>
</svg>
