<?xml version="1.0" encoding="UTF-8"?>
<!--Generator: Apple Native CoreSVG 326-->
<!DOCTYPE svg
PUBLIC "-//W3C//DTD SVG 1.1//EN"
       "http://www.w3.org/Graphics/SVG/1.1/DTD/svg11.dtd">
<svg version="1.1" xmlns="http://www.w3.org/2000/svg" xmlns:xlink="http://www.w3.org/1999/xlink" viewBox="0 0 28.2461 27.9043">
 <g>
  <rect height="27.9043" opacity="0" width="28.2461" x="0" y="0"/>
  <path d="M13.9453 27.8906C21.6426 27.8906 27.8906 21.6289 27.8906 13.9453C27.8906 6.24805 21.6426 0 13.9453 0C6.26172 0 0 6.24805 0 13.9453C0 21.6289 6.26172 27.8906 13.9453 27.8906Z" fill="black" fill-opacity="0.85"/>
  <path d="M11.1152 20.4258C10.5957 20.4258 10.2812 20.1113 10.2812 19.5781L10.2812 12.0723L9.37891 12.0723C9.10547 12.0723 8.88672 11.8672 8.88672 11.5938C8.88672 11.334 9.10547 11.1152 9.37891 11.1152L10.2812 11.1152L10.2812 8.43555C10.2812 7.90234 10.5957 7.57422 11.1289 7.57422L14.5605 7.57422C16.7891 7.57422 18.4297 8.92773 18.6621 11.1152L19.3457 11.1152C19.6328 11.1152 19.8516 11.334 19.8516 11.5938C19.8516 11.8535 19.6328 12.0723 19.3457 12.0723L18.6895 12.0723C18.5117 14.3145 16.8574 15.791 14.5332 15.791L11.9492 15.791L11.9492 19.5781C11.9492 20.1113 11.6211 20.4258 11.1152 20.4258ZM11.9492 14.4238L14.1094 14.4238C15.7773 14.4238 16.8301 13.6035 16.9668 12.0723L11.9492 12.0723ZM11.9492 11.1152L16.9531 11.1152C16.748 9.66602 15.668 8.95508 14.1367 8.95508L11.9492 8.95508Z" fill="white"/>
 </g>
</svg>
