<?xml version="1.0" encoding="UTF-8"?>
<!--Generator: Apple Native CoreSVG 326-->
<!DOCTYPE svg
PUBLIC "-//W3C//DTD SVG 1.1//EN"
       "http://www.w3.org/Graphics/SVG/1.1/DTD/svg11.dtd">
<svg version="1.1" xmlns="http://www.w3.org/2000/svg" xmlns:xlink="http://www.w3.org/1999/xlink" viewBox="0 0 21.1504 24.9785">
 <g>
  <rect height="24.9785" opacity="0" width="21.1504" x="0" y="0"/>
  <path d="M4.06055 24.9375C4.83984 24.9375 5.41406 24.3496 5.41406 23.5566L5.41406 16.2832L10.5957 16.2832C15.3672 16.2832 18.6211 12.8516 18.6211 8.12109C18.6211 3.41797 15.4082 0 10.623 0L4.06055 0C3.25391 0 2.69336 0.587891 2.69336 1.4082L2.69336 23.5566C2.69336 24.3496 3.26758 24.9375 4.06055 24.9375ZM5.41406 13.918L5.41406 2.36523L9.98047 2.36523C13.6992 2.36523 15.873 4.55273 15.873 8.12109C15.873 11.7441 13.6719 13.918 9.98047 13.918ZM0 5.97461C0 6.49414 0.382812 6.86328 0.902344 6.86328L19.8926 6.86328C20.4121 6.86328 20.7949 6.48047 20.7949 5.97461C20.7949 5.46875 20.4121 5.08594 19.8926 5.08594L0.902344 5.08594C0.382812 5.08594 0 5.46875 0 5.97461ZM0 10.3359C0 10.8555 0.382812 11.2246 0.902344 11.2246L19.8926 11.2246C20.4121 11.2246 20.7949 10.8418 20.7949 10.3359C20.7949 9.83008 20.4121 9.44727 19.8926 9.44727L0.902344 9.44727C0.382812 9.44727 0 9.83008 0 10.3359Z" fill="black" fill-opacity="0.85"/>
 </g>
</svg>
