<?xml version="1.0" encoding="UTF-8"?>
<!--Generator: Apple Native CoreSVG 326-->
<!DOCTYPE svg
PUBLIC "-//W3C//DTD SVG 1.1//EN"
       "http://www.w3.org/Graphics/SVG/1.1/DTD/svg11.dtd">
<svg version="1.1" xmlns="http://www.w3.org/2000/svg" xmlns:xlink="http://www.w3.org/1999/xlink" viewBox="0 0 25.5254 25.1699">
 <g>
  <rect height="25.1699" opacity="0" width="25.5254" x="0" y="0"/>
  <path d="M4.29297 25.1699L20.877 25.1699C23.748 25.1699 25.1699 23.7617 25.1699 20.9453L25.1699 4.23828C25.1699 1.42188 23.748 0 20.877 0L4.29297 0C1.43555 0 0 1.42188 0 4.23828L0 20.9453C0 23.7617 1.43555 25.1699 4.29297 25.1699Z" fill="black" fill-opacity="0.85"/>
  <path d="M9.78906 19.0449C9.26953 19.0449 8.96875 18.7305 8.96875 18.1973L8.96875 12.0723L8.02539 12.0723C7.75195 12.0723 7.5332 11.8809 7.5332 11.6074C7.5332 11.3477 7.75195 11.1426 8.02539 11.1426L8.96875 11.1426L8.96875 9.84375L8.02539 9.84375C7.75195 9.84375 7.5332 9.63867 7.5332 9.36523C7.5332 9.10547 7.75195 8.90039 8.02539 8.90039L8.96875 8.90039L8.96875 7.05469C8.96875 6.52148 9.26953 6.19336 9.78906 6.19336L13.2207 6.19336C15.2168 6.19336 16.584 7.32812 17.1309 8.90039L18.0195 8.90039C18.293 8.90039 18.5117 9.10547 18.5117 9.36523C18.5117 9.625 18.293 9.84375 18.0195 9.84375L17.3359 9.84375C17.3633 10.0352 17.377 10.2539 17.377 10.459C17.377 10.7051 17.3633 10.9238 17.3359 11.1426L18.0195 11.1426C18.293 11.1426 18.5117 11.3477 18.5117 11.6074C18.5117 11.8535 18.293 12.0723 18.0195 12.0723L17.1172 12.0723C16.5566 13.6719 15.1484 14.7656 13.1934 14.7656L10.623 14.7656L10.623 18.1973C10.623 18.7305 10.2949 19.0449 9.78906 19.0449ZM10.623 13.3984L12.8242 13.3984C14 13.3984 14.875 12.9199 15.3262 12.0723L10.623 12.0723ZM10.623 11.1426L15.6406 11.1426C15.6816 10.9238 15.6953 10.7051 15.6953 10.459C15.6953 10.2402 15.6816 10.0352 15.6406 9.84375L10.623 9.84375ZM10.623 8.90039L15.3398 8.90039C14.8887 8.03906 14 7.57422 12.8242 7.57422L10.623 7.57422Z" fill="white"/>
 </g>
</svg>
