<?xml version="1.0" encoding="UTF-8"?>
<!--Generator: Apple Native CoreSVG 326-->
<!DOCTYPE svg
PUBLIC "-//W3C//DTD SVG 1.1//EN"
       "http://www.w3.org/Graphics/SVG/1.1/DTD/svg11.dtd">
<svg version="1.1" xmlns="http://www.w3.org/2000/svg" xmlns:xlink="http://www.w3.org/1999/xlink" viewBox="0 0 30.8848 29.1895">
 <g>
  <rect height="29.1895" opacity="0" width="30.8848" x="0" y="0"/>
  <path d="M1.81836 25.9219L28.7109 25.9219L28.7109 25.0059C28.7109 24.459 28.3965 24.1309 27.8359 24.1309L26.9609 24.1309L26.9609 9.37891L28.1641 9.37891C28.916 9.37891 29.3535 8.83203 29.3535 8.27148C29.3535 7.86133 29.1211 7.50586 28.6152 7.21875L16.9395 0.478516C16.3926 0.164062 15.8184 0 15.2578 0C14.6973 0 14.1094 0.164062 13.5898 0.478516L1.91406 7.21875C1.39453 7.50586 1.17578 7.86133 1.17578 8.27148C1.17578 8.83203 1.61328 9.37891 2.36523 9.37891L3.56836 9.37891L3.56836 24.1309L2.70703 24.1309C2.14648 24.1309 1.81836 24.459 1.81836 25.0059ZM5.63281 24.1309L5.63281 7.62891L14.7246 2.5293C14.8887 2.43359 15.0801 2.37891 15.2578 2.37891C15.4355 2.37891 15.627 2.43359 15.8047 2.5293L24.8965 7.62891L24.8965 24.1309ZM1.09375 29.1758L29.4219 29.1758C30.0234 29.1758 30.5293 28.6699 30.5293 28.0684C30.5293 27.4668 30.0234 26.9746 29.4219 26.9746L1.09375 26.9746C0.492188 26.9746 0 27.4668 0 28.0684C0 28.6699 0.492188 29.1758 1.09375 29.1758Z" fill="black" fill-opacity="0.85"/>
  <path d="M12.5508 20.6582C13.0566 20.6582 13.3711 20.3438 13.3711 19.8516L13.3711 16.502L15.8594 16.502C18.3477 16.502 19.9199 14.6973 19.9199 12.3457C19.9199 10.0762 18.4297 8.20312 15.8867 8.20312L12.5645 8.20312C12.0723 8.20312 11.7578 8.53125 11.7578 9.02344L11.7578 19.8516C11.7578 20.3438 12.0723 20.6582 12.5508 20.6582ZM13.3711 15.1758L13.3711 9.54297L15.5039 9.54297C17.2266 9.54297 18.293 10.541 18.293 12.3457C18.293 14.0957 17.2539 15.1758 15.5039 15.1758ZM10.3906 11.2793C10.3906 11.5391 10.5957 11.7305 10.8555 11.7305L20.5488 11.7305C20.8086 11.7305 21.0137 11.5254 21.0137 11.2793C21.0137 11.0332 20.8086 10.8281 20.5488 10.8281L10.8555 10.8281C10.5957 10.8281 10.3906 11.0332 10.3906 11.2793ZM10.3906 13.4395C10.3906 13.7129 10.5957 13.9043 10.8555 13.9043L20.5488 13.9043C20.8086 13.9043 21.0137 13.6992 21.0137 13.4395C21.0137 13.1934 20.8086 12.9883 20.5488 12.9883L10.8555 12.9883C10.5957 12.9883 10.3906 13.1934 10.3906 13.4395Z" fill="black" fill-opacity="0.85"/>
 </g>
</svg>
