<?xml version="1.0" encoding="UTF-8"?>
<!--Generator: Apple Native CoreSVG 326-->
<!DOCTYPE svg
PUBLIC "-//W3C//DTD SVG 1.1//EN"
       "http://www.w3.org/Graphics/SVG/1.1/DTD/svg11.dtd">
<svg version="1.1" xmlns="http://www.w3.org/2000/svg" xmlns:xlink="http://www.w3.org/1999/xlink" viewBox="0 0 25.5254 25.1699">
 <g>
  <rect height="25.1699" opacity="0" width="25.5254" x="0" y="0"/>
  <path d="M4.29297 25.1699L20.877 25.1699C23.748 25.1699 25.1699 23.7617 25.1699 20.9453L25.1699 4.23828C25.1699 1.42188 23.748 0 20.877 0L4.29297 0C1.43555 0 0 1.42188 0 4.23828L0 20.9453C0 23.7617 1.43555 25.1699 4.29297 25.1699ZM4.32031 22.9688C2.95312 22.9688 2.20117 22.2441 2.20117 20.8223L2.20117 4.36133C2.20117 2.93945 2.95312 2.20117 4.32031 2.20117L20.8496 2.20117C22.2031 2.20117 22.9688 2.93945 22.9688 4.36133L22.9688 20.8223C22.9688 22.2441 22.2031 22.9688 20.8496 22.9688Z" fill="black" fill-opacity="0.85"/>
  <path d="M9.88477 18.8398C10.377 18.8398 10.6914 18.5391 10.6914 18.0332L10.6914 14.6973L13.1797 14.6973C15.668 14.6973 17.2402 12.8789 17.2402 10.5273C17.2402 8.25781 15.75 6.39844 13.207 6.39844L9.88477 6.39844C9.39258 6.39844 9.0918 6.71289 9.0918 7.21875L9.0918 18.0332C9.0918 18.5391 9.39258 18.8398 9.88477 18.8398ZM10.6914 13.3711L10.6914 7.72461L12.8242 7.72461C14.5469 7.72461 15.6133 8.73633 15.6133 10.5273C15.6133 12.291 14.5742 13.3711 12.8242 13.3711ZM7.71094 9.46094C7.71094 9.73438 7.91602 9.92578 8.17578 9.92578L17.8691 9.92578C18.1289 9.92578 18.334 9.7207 18.334 9.46094C18.334 9.21484 18.1289 9.00977 17.8691 9.00977L8.17578 9.00977C7.91602 9.00977 7.71094 9.21484 7.71094 9.46094ZM7.71094 11.6348C7.71094 11.8945 7.91602 12.0859 8.17578 12.0859L17.8691 12.0859C18.1289 12.0859 18.334 11.8809 18.334 11.6348C18.334 11.3887 18.1289 11.1836 17.8691 11.1836L8.17578 11.1836C7.91602 11.1836 7.71094 11.3887 7.71094 11.6348Z" fill="black" fill-opacity="0.85"/>
 </g>
</svg>
