<?xml version="1.0" encoding="UTF-8"?>
<!--Generator: Apple Native CoreSVG 326-->
<!DOCTYPE svg
PUBLIC "-//W3C//DTD SVG 1.1//EN"
       "http://www.w3.org/Graphics/SVG/1.1/DTD/svg11.dtd">
<svg version="1.1" xmlns="http://www.w3.org/2000/svg" xmlns:xlink="http://www.w3.org/1999/xlink" viewBox="0 0 28.2461 27.9043">
 <g>
  <rect height="27.9043" opacity="0" width="28.2461" x="0" y="0"/>
  <path d="M13.9453 27.8906C21.6426 27.8906 27.8906 21.6426 27.8906 13.9453C27.8906 6.24805 21.6426 0 13.9453 0C6.24805 0 0 6.24805 0 13.9453C0 21.6426 6.24805 27.8906 13.9453 27.8906ZM13.9453 25.5664C7.51953 25.5664 2.32422 20.3711 2.32422 13.9453C2.32422 7.51953 7.51953 2.32422 13.9453 2.32422C20.3711 2.32422 25.5664 7.51953 25.5664 13.9453C25.5664 20.3711 20.3711 25.5664 13.9453 25.5664Z" fill="#ff3b30"/>
  <path d="M13.959 10.4863C10.8145 10.4863 7.80664 11.1699 6.28906 12.6875C5.61914 13.3711 5.25 14.2051 5.27734 15.0664C5.29102 15.6816 5.44141 16.3789 5.79688 16.7344C6.08398 17.0215 6.49414 17.0078 7.10938 16.8984L9.24219 16.5566C9.74805 16.4609 10.0352 16.3105 10.2402 16.1055C10.418 15.9141 10.5 15.75 10.5957 15.3672L10.9648 14.0137C11.0059 13.9043 11.0195 13.8086 11.0879 13.7539C11.1836 13.6582 11.293 13.6035 11.375 13.5625C11.9766 13.3711 12.9062 13.248 13.9043 13.248C14.916 13.248 15.9141 13.3711 16.543 13.5898C16.6797 13.6582 16.7617 13.6992 16.8711 13.7949C16.9395 13.8633 16.9668 13.9316 17.0215 14.082L17.4043 15.3945C17.541 15.8457 17.6367 15.9961 17.8008 16.1738C17.9922 16.3652 18.1836 16.4609 18.7441 16.5566L20.9727 16.9258C21.5879 17.0352 21.916 16.9805 22.1484 16.748C22.4492 16.4473 22.6406 15.9961 22.6816 15.1621C22.7227 14.3008 22.3945 13.3984 21.6836 12.7012C20.166 11.1973 17.0898 10.4863 13.959 10.4863Z" fill="#ff3b30"/>
 </g>
</svg>
