<?xml version="1.0" encoding="UTF-8"?>
<!--Generator: Apple Native CoreSVG 326-->
<!DOCTYPE svg
PUBLIC "-//W3C//DTD SVG 1.1//EN"
       "http://www.w3.org/Graphics/SVG/1.1/DTD/svg11.dtd">
<svg version="1.1" xmlns="http://www.w3.org/2000/svg" xmlns:xlink="http://www.w3.org/1999/xlink" viewBox="0 0 28.2461 27.9043">
 <g>
  <rect height="27.9043" opacity="0" width="28.2461" x="0" y="0"/>
  <path d="M13.9453 27.8906C21.6426 27.8906 27.8906 21.6426 27.8906 13.9453C27.8906 6.24805 21.6426 0 13.9453 0C6.24805 0 0 6.24805 0 13.9453C0 21.6426 6.24805 27.8906 13.9453 27.8906ZM13.9453 25.5664C7.51953 25.5664 2.32422 20.3711 2.32422 13.9453C2.32422 7.51953 7.51953 2.32422 13.9453 2.32422C20.3711 2.32422 25.5664 7.51953 25.5664 13.9453C25.5664 20.3711 20.3711 25.5664 13.9453 25.5664Z" fill="black" fill-opacity="0.85"/>
  <path d="M6.41211 7.51953C6.04297 7.51953 5.79688 7.79297 5.79688 8.16211L5.79688 19.7559C5.79688 20.125 6.04297 20.3848 6.41211 20.3848L21.4512 20.3848C21.834 20.3848 22.0801 20.125 22.0801 19.7559L22.0801 8.16211C22.0801 7.79297 21.834 7.51953 21.4512 7.51953ZM6.9043 19.1133L6.9043 8.79102C6.9043 8.68164 6.93164 8.66797 7.04102 8.66797L20.8223 8.66797C20.9453 8.66797 20.959 8.68164 20.959 8.79102L20.959 19.1133C20.959 19.2363 20.9453 19.25 20.8223 19.25L7.04102 19.25C6.93164 19.25 6.9043 19.2363 6.9043 19.1133ZM7.72461 17.9375C7.72461 18.252 7.91602 18.4434 8.2168 18.4434L19.6465 18.4434C19.9609 18.4434 20.1387 18.252 20.1387 17.9375L20.1387 9.9668C20.1387 9.66602 19.9609 9.47461 19.6465 9.47461L8.2168 9.47461C7.91602 9.47461 7.72461 9.66602 7.72461 9.9668ZM8.59961 16.3516L8.59961 10.4043C8.59961 10.3496 8.61328 10.3496 8.64062 10.3496L19.2227 10.3496C19.2773 10.3496 19.2637 10.3496 19.2637 10.4043L19.2637 16.3652L16.502 13.7812C16.2559 13.5625 15.9551 13.4395 15.6543 13.4395C15.3262 13.4395 15.0527 13.5352 14.793 13.7539L12.4961 15.832L11.5801 15.0117C11.3613 14.8066 11.0742 14.6836 10.8145 14.6836C10.541 14.6836 10.3086 14.8066 10.0762 14.998ZM10.2949 12.6738C10.2949 13.3984 10.8965 14 11.6348 14C12.373 14 12.9746 13.3984 12.9746 12.6738C12.9746 11.9219 12.373 11.334 11.6348 11.334C10.8965 11.334 10.2949 11.9219 10.2949 12.6738Z" fill="black" fill-opacity="0.85"/>
 </g>
</svg>
