<?xml version="1.0" encoding="UTF-8"?>
<!--Generator: Apple Native CoreSVG 326-->
<!DOCTYPE svg
PUBLIC "-//W3C//DTD SVG 1.1//EN"
       "http://www.w3.org/Graphics/SVG/1.1/DTD/svg11.dtd">
<svg version="1.1" xmlns="http://www.w3.org/2000/svg" xmlns:xlink="http://www.w3.org/1999/xlink" viewBox="0 0 28.2461 27.9043">
 <g>
  <rect height="27.9043" opacity="0" width="28.2461" x="0" y="0"/>
  <path d="M13.9453 27.9043C21.6426 27.9043 27.8906 21.6562 27.8906 13.959C27.8906 6.27539 21.6426 0.0136719 13.9453 0.0136719C6.26172 0.0136719 0 6.27539 0 13.959C0 21.6562 6.26172 27.9043 13.9453 27.9043Z" fill="black" fill-opacity="0.85"/>
  <path d="M13.7539 14.0547L9.40625 9.70703L11.6758 7.41016C13.043 6.04297 14.8066 6.01562 16.1328 7.3418C17.459 8.62695 17.4453 10.418 16.0645 11.7715ZM12.9473 14.8887L10.6367 17.1855C9.26953 18.5391 7.51953 18.5801 6.19336 17.2812C4.89453 15.9688 4.93555 14.2051 6.30273 12.8379L8.58594 10.5137ZM22.1758 16.7207L14.5469 16.7207C14.8203 14.8887 16.4199 13.4395 18.3477 13.4395C20.3027 13.4395 21.916 14.8887 22.1758 16.7207ZM22.1758 17.8691C21.916 19.7012 20.3164 21.1504 18.3477 21.1504C16.4062 21.1504 14.8203 19.7012 14.5469 17.8691Z" fill="white"/>
 </g>
</svg>
