<?xml version="1.0" encoding="UTF-8"?>
<!--Generator: Apple Native CoreSVG 326-->
<!DOCTYPE svg
PUBLIC "-//W3C//DTD SVG 1.1//EN"
       "http://www.w3.org/Graphics/SVG/1.1/DTD/svg11.dtd">
<svg version="1.1" xmlns="http://www.w3.org/2000/svg" xmlns:xlink="http://www.w3.org/1999/xlink" viewBox="0 0 27.3939 27.0558">
 <g>
  <rect height="27.0558" opacity="0" width="27.3939" x="0" y="0"/>
  <path d="M2.13738 24.8824C5.03582 27.7671 9.09636 27.7945 12.3093 24.5816L24.6003 12.2906C27.7995 9.09136 27.7721 5.03081 24.8874 2.13237C21.9889-0.752391 17.9284-0.766063 14.7292 2.43316L2.43816 14.7105C-0.774729 17.9234-0.747385 21.9839 2.13738 24.8824ZM3.5866 23.4468C1.52215 21.396 1.78191 18.525 4.01043 16.2691L16.2741 4.00542C18.4889 1.77691 21.3737 1.53081 23.4518 3.58159C25.5163 5.6187 25.2839 8.50347 23.0143 10.7593L10.7643 23.023C8.54949 25.2378 5.65105 25.4976 3.5866 23.4468ZM8.76824 10.2125L16.8483 18.2925L18.3112 16.8296L10.2175 8.74956Z" fill="black" fill-opacity="0.85"/>
 </g>
</svg>
