<?xml version="1.0" encoding="UTF-8"?>
<!--Generator: Apple Native CoreSVG 326-->
<!DOCTYPE svg
PUBLIC "-//W3C//DTD SVG 1.1//EN"
       "http://www.w3.org/Graphics/SVG/1.1/DTD/svg11.dtd">
<svg version="1.1" xmlns="http://www.w3.org/2000/svg" xmlns:xlink="http://www.w3.org/1999/xlink" viewBox="0 0 32.5646 28.041">
 <g>
  <rect height="28.041" opacity="0" width="32.5646" x="0" y="0"/>
  <path d="M32.21 19.8652C31.7315 16.3926 28.7374 13.6992 25.1143 13.6992C21.4913 13.6992 18.5108 16.3926 18.0323 19.8652ZM32.21 21.8613L18.0323 21.8613C18.5245 25.3477 21.4913 28.041 25.1143 28.041C28.7647 28.041 31.7315 25.3477 32.21 21.8613Z" fill="#59adc4" fill-opacity="0.5"/>
  <path d="M14.3545 16.3516L6.24713 8.24414L1.95416 12.5508C-0.602481 15.0938-0.643497 18.3887 1.7901 20.8086C4.23736 23.2422 7.51861 23.1875 10.0479 20.6582Z" fill="#59adc4"/>
  <path d="M15.7901 14.9023L20.0831 10.6094C22.6397 8.06641 22.6807 4.77148 20.2471 2.35156C17.7999-0.0820312 14.5186-0.0136719 11.9893 2.51562L7.69635 6.80859Z" fill="#93f8ad"/>
 </g>
</svg>
