<?xml version="1.0" encoding="UTF-8"?>
<!--Generator: Apple Native CoreSVG 326-->
<!DOCTYPE svg
PUBLIC "-//W3C//DTD SVG 1.1//EN"
       "http://www.w3.org/Graphics/SVG/1.1/DTD/svg11.dtd">
<svg version="1.1" xmlns="http://www.w3.org/2000/svg" xmlns:xlink="http://www.w3.org/1999/xlink" viewBox="0 0 28.2461 27.9043">
 <g>
  <rect height="27.9043" opacity="0" width="28.2461" x="0" y="0"/>
  <path d="M13.9453 27.8906C21.6426 27.8906 27.8906 21.6426 27.8906 13.9453C27.8906 6.24805 21.6426 0 13.9453 0C6.24805 0 0 6.24805 0 13.9453C0 21.6426 6.24805 27.8906 13.9453 27.8906ZM13.9453 25.5664C7.51953 25.5664 2.32422 20.3711 2.32422 13.9453C2.32422 7.51953 7.51953 2.32422 13.9453 2.32422C20.3711 2.32422 25.5664 7.51953 25.5664 13.9453C25.5664 20.3711 20.3711 25.5664 13.9453 25.5664Z" fill="black" fill-opacity="0.85"/>
  <path d="M19.8242 8.06641C18.2383 6.50781 16.1602 6.50781 14.5605 8.13477L11.7441 10.9512L16.9121 16.1328L19.7422 13.3164C21.3828 11.6895 21.4102 9.58398 19.8242 8.06641ZM8.03906 19.8516C9.61133 21.3828 11.7031 21.3555 13.3164 19.7285L16.1328 16.9121L10.9648 11.7441L8.14844 14.5742C6.52148 16.2148 6.49414 18.293 8.03906 19.8516Z" fill="black" fill-opacity="0.85"/>
 </g>
</svg>
