<?xml version="1.0" encoding="UTF-8"?>
<!--Generator: Apple Native CoreSVG 326-->
<!DOCTYPE svg
PUBLIC "-//W3C//DTD SVG 1.1//EN"
       "http://www.w3.org/Graphics/SVG/1.1/DTD/svg11.dtd">
<svg version="1.1" xmlns="http://www.w3.org/2000/svg" xmlns:xlink="http://www.w3.org/1999/xlink" viewBox="0 0 21.5879 32.7168">
 <g>
  <rect height="32.7168" opacity="0" width="21.5879" x="0" y="0"/>
  <path d="M0 20.5762C0 21.7383 0.779297 22.5039 2.00977 22.5039L9.40625 22.5039L9.40625 28.8887C9.40625 30.9805 10.2812 32.7168 10.623 32.7168C10.9512 32.7168 11.8262 30.9805 11.8262 28.8887L11.8262 22.5039L19.2227 22.5039C20.4531 22.5039 21.2324 21.7383 21.2324 20.5762C21.2324 17.6914 18.9219 14.6426 15.0801 13.248L14.6289 6.97266C16.625 5.83789 18.2656 4.55273 18.9766 3.63672C19.332 3.17188 19.5098 2.70703 19.5098 2.29688C19.5098 1.46289 18.8672 0.847656 17.9102 0.847656L3.33594 0.847656C2.36523 0.847656 1.73633 1.46289 1.73633 2.29688C1.73633 2.70703 1.90039 3.17188 2.25586 3.63672C2.9668 4.55273 4.60742 5.83789 6.60352 6.97266L6.15234 13.248C2.31055 14.6426 0 17.6914 0 20.5762Z" fill="#ff9500"/>
 </g>
</svg>
