<?xml version="1.0" encoding="UTF-8"?>
<!--Generator: Apple Native CoreSVG 326-->
<!DOCTYPE svg
PUBLIC "-//W3C//DTD SVG 1.1//EN"
       "http://www.w3.org/Graphics/SVG/1.1/DTD/svg11.dtd">
<svg version="1.1" xmlns="http://www.w3.org/2000/svg" xmlns:xlink="http://www.w3.org/1999/xlink" viewBox="0 0 28.2461 27.9043">
 <g>
  <rect height="27.9043" opacity="0" width="28.2461" x="0" y="0"/>
  <path d="M13.9453 27.9043C21.6426 27.9043 27.8906 21.6562 27.8906 13.959C27.8906 6.27539 21.6426 0.0136719 13.9453 0.0136719C6.26172 0.0136719 0 6.27539 0 13.959C0 21.6562 6.26172 27.9043 13.9453 27.9043Z" fill="#ff9500"/>
  <path d="M8.4082 16.625C8.4082 15.1211 9.61133 13.5078 11.6211 12.7969L11.8535 9.48828C10.8418 8.91406 9.99414 8.25781 9.625 7.7793C9.41992 7.51953 9.31055 7.25977 9.31055 7.02734C9.31055 6.58984 9.65234 6.27539 10.1582 6.27539L17.7598 6.27539C18.2656 6.27539 18.6074 6.58984 18.6074 7.02734C18.6074 7.25977 18.498 7.51953 18.3066 7.76562C17.9375 8.24414 17.0898 8.91406 16.0645 9.48828L16.2832 12.7969C18.3066 13.5078 19.5098 15.1211 19.5098 16.625C19.5098 17.2402 19.0996 17.6367 18.4707 17.6367L14.834 17.6367L14.834 20.1387C14.834 21.6699 14.2188 22.9551 13.959 22.9551C13.6992 22.9551 13.084 21.6699 13.084 20.1387L13.084 17.6367L9.43359 17.6367C8.80469 17.6367 8.4082 17.2402 8.4082 16.625Z" fill="white"/>
 </g>
</svg>
