<?xml version="1.0" encoding="UTF-8"?>
<!--Generator: Apple Native CoreSVG 326-->
<!DOCTYPE svg
PUBLIC "-//W3C//DTD SVG 1.1//EN"
       "http://www.w3.org/Graphics/SVG/1.1/DTD/svg11.dtd">
<svg version="1.1" xmlns="http://www.w3.org/2000/svg" xmlns:xlink="http://www.w3.org/1999/xlink" viewBox="0 0 31.4795 32.7168">
 <g>
  <rect height="32.7168" opacity="0" width="31.4795" x="0" y="0"/>
  <path d="M10.6495 15.6117C8.54094 16.6896 7.28383 18.3813 7.09912 19.8926C7.04443 20.2617 7.19482 20.4395 7.49561 20.4395L15.4826 20.4395L17.5493 22.5039L16.7651 22.5039L16.7651 28.8887C16.7651 30.9805 15.9038 32.7168 15.562 32.7168C15.2202 32.7168 14.3589 30.9805 14.3589 28.8887L14.3589 22.5039L6.94873 22.5039C5.71826 22.5039 4.93896 21.7383 4.93896 20.5762C4.93896 18.1565 6.56891 15.722 9.21011 14.1739ZM24.4487 2.29688C24.4487 2.69336 24.2847 3.1582 23.9292 3.62305C23.2183 4.55273 21.5776 5.83789 19.8413 6.97266L20.2907 13.385C23.8636 14.788 26.1714 17.6926 26.1714 20.5762C26.1714 21.4723 25.708 22.1327 24.9302 22.3862L22.9824 20.4395L23.6147 20.4395C23.9292 20.4395 24.0796 20.2617 24.0249 19.8926C23.7572 17.7021 21.2256 15.1325 17.1394 14.5997L15.0555 12.517C15.2197 12.4993 15.3902 12.4961 15.562 12.4961C16.4369 12.4961 17.2783 12.5789 18.0729 12.7409L17.6675 5.96094C17.6538 5.76953 17.6812 5.70117 17.8042 5.63281C19.8687 4.58008 21.4409 3.33594 21.5503 3.0625C21.6597 2.88477 21.5503 2.77539 21.3999 2.77539L9.71045 2.77539C9.57373 2.77539 9.45068 2.88477 9.56006 3.0625C9.66943 3.33594 11.2554 4.58008 13.3062 5.63281C13.4429 5.70117 13.4702 5.76953 13.4565 5.96094L13.1695 10.632L11.1538 8.61741L11.269 6.97266C9.54639 5.83789 7.89209 4.55273 7.19482 3.62305C6.83936 3.1582 6.67529 2.69336 6.67529 2.29688C6.67529 1.46289 7.3042 0.847656 8.2749 0.847656L22.8491 0.847656C23.8062 0.847656 24.4487 1.46289 24.4487 2.29688Z" fill="#ff9500"/>
  <path d="M1.90381 4.62109L26.6226 29.3125C27.0464 29.7227 27.7163 29.7227 28.1128 29.3125C28.5229 28.9023 28.5366 28.2324 28.1128 27.8223L3.40771 3.13086C2.99756 2.7207 2.31396 2.70703 1.90381 3.13086C1.50732 3.52734 1.50732 4.21094 1.90381 4.62109Z" fill="#ff9500"/>
 </g>
</svg>
