<?xml version="1.0" encoding="UTF-8"?>
<!--Generator: Apple Native CoreSVG 326-->
<!DOCTYPE svg
PUBLIC "-//W3C//DTD SVG 1.1//EN"
       "http://www.w3.org/Graphics/SVG/1.1/DTD/svg11.dtd">
<svg version="1.1" xmlns="http://www.w3.org/2000/svg" xmlns:xlink="http://www.w3.org/1999/xlink" viewBox="0 0 35.7793 28.6699">
 <g>
  <rect height="28.6699" opacity="0" width="35.7793" x="0" y="0"/>
  <path d="M28.5195 4.26562L28.5195 11.334L26.3184 11.334L26.3184 4.38867C26.3184 2.9668 25.5527 2.22852 24.1992 2.22852L4.32031 2.22852C2.95312 2.22852 2.20117 2.9668 2.20117 4.38867L2.20117 17.9785C2.20117 19.4004 2.98047 20.1387 4.32031 20.1387L13.4121 20.1387L13.4121 22.3398L4.29297 22.3398C1.42188 22.3398 0 20.918 0 18.1016L0 4.26562C0 1.44922 1.42188 0.0273438 4.29297 0.0273438L24.2402 0.0273438C27.0977 0.0273438 28.5195 1.44922 28.5195 4.26562Z" fill="black" fill-opacity="0.85"/>
  <path d="M5.26367 4.53906L10.2129 5.30469C10.623 5.35938 11.0879 5.89258 10.5547 6.41211L9.05078 7.92969L11.293 10.1719C11.6211 10.5 11.6211 11.0469 11.293 11.375C10.9512 11.7031 10.418 11.7031 10.0898 11.375L7.84766 9.13281L6.33008 10.6367C5.81055 11.1699 5.27734 10.7051 5.22266 10.2949L4.44336 5.3457C4.41602 5.11328 4.49805 4.88086 4.63477 4.73047C4.79883 4.58008 5.03125 4.49805 5.26367 4.53906Z" fill="black" fill-opacity="0.85"/>
  <path d="M17.7051 28.6699L31.1445 28.6699C33.9883 28.6699 35.4238 27.248 35.4238 24.4316L35.4238 15.5723C35.4238 12.7559 33.9883 11.334 31.1445 11.334L17.7051 11.334C14.8477 11.334 13.4121 12.7422 13.4121 15.5723L13.4121 24.4316C13.4121 27.248 14.8477 28.6699 17.7051 28.6699Z" fill="black" fill-opacity="0.85"/>
 </g>
</svg>
