<?xml version="1.0" encoding="UTF-8"?>
<!--Generator: Apple Native CoreSVG 326-->
<!DOCTYPE svg
PUBLIC "-//W3C//DTD SVG 1.1//EN"
       "http://www.w3.org/Graphics/SVG/1.1/DTD/svg11.dtd">
<svg version="1.1" xmlns="http://www.w3.org/2000/svg" xmlns:xlink="http://www.w3.org/1999/xlink" viewBox="0 0 32.5938 25.1973">
 <g>
  <rect height="25.1973" opacity="0" width="32.5938" x="0" y="0"/>
  <path d="M4.29297 25.1973L27.9453 25.1973C30.8164 25.1973 32.2383 23.7754 32.2383 20.959L32.2383 4.26562C32.2383 1.44922 30.8164 0.0273438 27.9453 0.0273438L4.29297 0.0273438C1.43555 0.0273438 0 1.43555 0 4.26562L0 20.959C0 23.7891 1.43555 25.1973 4.29297 25.1973ZM4.32031 22.9961C2.95312 22.9961 2.20117 22.2715 2.20117 20.8496L2.20117 4.375C2.20117 2.95312 2.95312 2.22852 4.32031 2.22852L27.918 2.22852C29.2715 2.22852 30.0371 2.95312 30.0371 4.375L30.0371 20.8496C30.0371 22.2715 29.2715 22.9961 27.918 22.9961Z" fill="black" fill-opacity="0.85"/>
  <path d="M6.01562 15.8594L13.5625 15.8594C14.2871 15.8594 14.7793 15.3672 14.7793 14.6152L14.7793 10.6094C14.7793 9.84375 14.2871 9.36523 13.5625 9.36523L6.01562 9.36523C5.27734 9.36523 4.79883 9.84375 4.79883 10.6094L4.79883 14.6152C4.79883 15.3672 5.27734 15.8594 6.01562 15.8594ZM18.4023 15.8594L25.9629 15.8594C26.6875 15.8594 27.1797 15.3672 27.1797 14.6152L27.1797 10.6094C27.1797 9.84375 26.6875 9.36523 25.9629 9.36523L18.4023 9.36523C17.6777 9.36523 17.1855 9.84375 17.1855 10.6094L17.1855 14.6152C17.1855 15.3672 17.6777 15.8594 18.4023 15.8594Z" fill="black" fill-opacity="0.85"/>
 </g>
</svg>
