<?xml version="1.0" encoding="UTF-8"?>
<!--Generator: Apple Native CoreSVG 326-->
<!DOCTYPE svg
PUBLIC "-//W3C//DTD SVG 1.1//EN"
       "http://www.w3.org/Graphics/SVG/1.1/DTD/svg11.dtd">
<svg version="1.1" xmlns="http://www.w3.org/2000/svg" xmlns:xlink="http://www.w3.org/1999/xlink" viewBox="0 0 22.9551 22.9824">
 <g>
  <rect height="22.9824" opacity="0" width="22.9551" x="0" y="0"/>
  <path d="M2.54297 20.9727C2.54297 22.3262 3.32227 22.9688 4.25195 22.9688C4.66211 22.9688 5.08594 22.832 5.50977 22.6133L21.4375 13.3027C22.5723 12.6465 22.9551 12.1953 22.9551 11.4844C22.9551 10.7598 22.5723 10.3223 21.4375 9.66602L5.50977 0.355469C5.08594 0.123047 4.66211 0 4.25195 0C3.32227 0 2.54297 0.642578 2.54297 1.99609ZM4.74414 20.002L4.74414 2.9668C4.74414 2.7207 4.96289 2.61133 5.16797 2.73438L19.7832 11.2656C19.8789 11.3066 19.9336 11.4023 19.9336 11.4844C19.9336 11.5664 19.8789 11.6484 19.7832 11.7031L5.16797 20.2344C4.96289 20.3574 4.74414 20.248 4.74414 20.002Z" fill="black" fill-opacity="0.85"/>
 </g>
</svg>
