<?xml version="1.0" encoding="UTF-8"?>
<!--Generator: Apple Native CoreSVG 326-->
<!DOCTYPE svg
PUBLIC "-//W3C//DTD SVG 1.1//EN"
       "http://www.w3.org/Graphics/SVG/1.1/DTD/svg11.dtd">
<svg version="1.1" xmlns="http://www.w3.org/2000/svg" xmlns:xlink="http://www.w3.org/1999/xlink" viewBox="0 0 28.2461 27.9043">
 <g>
  <rect height="27.9043" opacity="0" width="28.2461" x="0" y="0"/>
  <path d="M13.9453 27.8906C21.6426 27.8906 27.8906 21.6426 27.8906 13.9453C27.8906 6.24805 21.6426 0 13.9453 0C6.24805 0 0 6.24805 0 13.9453C0 21.6426 6.24805 27.8906 13.9453 27.8906ZM13.9453 25.5664C7.51953 25.5664 2.32422 20.3711 2.32422 13.9453C2.32422 7.51953 7.51953 2.32422 13.9453 2.32422C20.3711 2.32422 25.5664 7.51953 25.5664 13.9453C25.5664 20.3711 20.3711 25.5664 13.9453 25.5664Z" fill="black" fill-opacity="0.85"/>
  <path d="M6.54883 19.0859L13.3711 14.6699C13.9043 14.3008 13.9043 13.6035 13.3711 13.2617L6.54883 8.81836C5.98828 8.46289 5.23633 8.76367 5.23633 9.39258L5.23633 18.5254C5.23633 19.168 5.94727 19.4688 6.54883 19.0859ZM15.7227 19.0723L17.0078 19.0723C17.6641 19.0723 17.9512 18.7168 17.9512 18.2109L17.9512 9.67969C17.9512 9.16016 17.6641 8.81836 17.0078 8.81836L15.7227 8.81836C15.0801 8.81836 14.7656 9.16016 14.7656 9.67969L14.7656 18.2109C14.7656 18.7168 15.0801 19.0723 15.7227 19.0723ZM20.4668 19.0723L21.752 19.0723C22.3809 19.0723 22.6816 18.7168 22.6816 18.2109L22.6816 9.67969C22.6816 9.16016 22.3809 8.81836 21.752 8.81836L20.4668 8.81836C19.8242 8.81836 19.5098 9.16016 19.5098 9.67969L19.5098 18.2109C19.5098 18.7168 19.8242 19.0723 20.4668 19.0723Z" fill="black" fill-opacity="0.85"/>
 </g>
</svg>
