<?xml version="1.0" encoding="UTF-8"?>
<!--Generator: Apple Native CoreSVG 326-->
<!DOCTYPE svg
PUBLIC "-//W3C//DTD SVG 1.1//EN"
       "http://www.w3.org/Graphics/SVG/1.1/DTD/svg11.dtd">
<svg version="1.1" xmlns="http://www.w3.org/2000/svg" xmlns:xlink="http://www.w3.org/1999/xlink" viewBox="0 0 32.9492 28.5059">
 <g>
  <rect height="28.5059" opacity="0" width="32.9492" x="0" y="0"/>
  <path d="M3.14453 23.6523L29.4355 23.6523C31.4043 23.6523 32.5938 22.4629 32.5938 20.4941L32.5938 4.10156C32.5938 2.13281 31.4043 0.957031 29.4355 0.957031L3.14453 0.957031C1.18945 0.957031 0 2.13281 0 4.10156L0 20.4941C0 22.4629 1.18945 23.6523 3.14453 23.6523ZM2.78906 17.623C2.37891 17.623 2.20117 17.4727 2.20117 17.0352L2.20117 4.14258C2.20117 3.52734 2.58398 3.1582 3.18555 3.1582L29.4082 3.1582C30.0098 3.1582 30.3926 3.52734 30.3926 4.14258L30.3926 17.0352C30.3926 17.4727 30.2012 17.623 29.791 17.623ZM11.9766 26.9062L20.6172 26.9062L20.6172 23.4746L11.9766 23.4746ZM11.8945 28.5059L20.6992 28.5059C21.3008 28.5059 21.793 28.0137 21.793 27.3984C21.793 26.7832 21.3008 26.291 20.6992 26.291L11.8945 26.291C11.293 26.291 10.7871 26.7832 10.7871 27.3984C10.7871 28.0137 11.293 28.5059 11.8945 28.5059Z" fill="black" fill-opacity="0.85"/>
  <path d="M12.9062 14.9023C12.9062 15.4629 13.4941 15.6816 13.959 15.4082L21.2871 11.1016C21.7383 10.8281 21.7246 10.2266 21.2734 9.9668L13.959 5.66016C13.4941 5.38672 12.9062 5.5918 12.9062 6.16602Z" fill="black" fill-opacity="0.85"/>
 </g>
</svg>
