<?xml version="1.0" encoding="UTF-8"?>
<!--Generator: Apple Native CoreSVG 326-->
<!DOCTYPE svg
PUBLIC "-//W3C//DTD SVG 1.1//EN"
       "http://www.w3.org/Graphics/SVG/1.1/DTD/svg11.dtd">
<svg version="1.1" xmlns="http://www.w3.org/2000/svg" xmlns:xlink="http://www.w3.org/1999/xlink" viewBox="0 0 35.2051 20.9043">
 <g>
  <rect height="20.9043" opacity="0" width="35.2051" x="0" y="0"/>
  <path d="M0 18.9902C0 20.2754 0.738281 20.8906 1.62695 20.8906C2.00977 20.8906 2.41992 20.7676 2.81641 20.5488L17.1719 12.1816C18.2109 11.5801 18.6074 11.1289 18.6074 10.4453C18.6074 9.76172 18.2109 9.31055 17.1719 8.70898L2.81641 0.341797C2.41992 0.109375 2.00977 0 1.62695 0C0.738281 0 0 0.601562 0 1.88672ZM2.20117 17.9102L2.20117 2.98047C2.20117 2.81641 2.29688 2.70703 2.44727 2.70703C2.50195 2.70703 2.55664 2.7207 2.59766 2.76172L15.3672 10.2402C15.4629 10.2949 15.5039 10.3633 15.5039 10.4453C15.5039 10.5137 15.4629 10.5957 15.3672 10.6504L2.59766 18.1289C2.55664 18.1562 2.50195 18.1836 2.44727 18.1836C2.29688 18.1836 2.20117 18.0605 2.20117 17.9102ZM24.6367 20.8906C25.293 20.8906 25.8125 20.3848 25.8125 19.7422L25.8125 1.14844C25.8125 0.505859 25.293 0 24.6367 0C23.9805 0 23.4746 0.505859 23.4746 1.14844L23.4746 19.7422C23.4746 20.3848 23.9805 20.8906 24.6367 20.8906ZM33.6738 20.8906C34.3301 20.8906 34.8496 20.3848 34.8496 19.7422L34.8496 1.14844C34.8496 0.505859 34.3301 0 33.6738 0C33.0176 0 32.5117 0.505859 32.5117 1.14844L32.5117 19.7422C32.5117 20.3848 33.0176 20.8906 33.6738 20.8906Z" fill="black" fill-opacity="0.85"/>
 </g>
</svg>
