<?xml version="1.0" encoding="UTF-8"?>
<!--Generator: Apple Native CoreSVG 326-->
<!DOCTYPE svg
PUBLIC "-//W3C//DTD SVG 1.1//EN"
       "http://www.w3.org/Graphics/SVG/1.1/DTD/svg11.dtd">
<svg version="1.1" xmlns="http://www.w3.org/2000/svg" xmlns:xlink="http://www.w3.org/1999/xlink" viewBox="0 0 34.5352 27.3574">
 <g>
  <rect height="27.3574" opacity="0" width="34.5352" x="0" y="0"/>
  <path d="M25.0742 26.2227C25.0742 26.8379 24.5684 27.3301 23.9668 27.3301L10.2129 27.3301C9.61133 27.3301 9.10547 26.8379 9.10547 26.2227C9.10547 25.6074 9.61133 25.1152 10.2129 25.1152L23.9668 25.1152C24.5684 25.1152 25.0742 25.6074 25.0742 26.2227ZM34.1797 3.51367L34.1797 19.1816C34.1797 21.5605 33.0039 22.6953 30.666 22.6953L3.51367 22.6953C1.18945 22.6953 0 21.5605 0 19.1816L0 3.51367C0 1.13477 1.18945 0 3.51367 0L30.666 0C33.0039 0 34.1797 1.13477 34.1797 3.51367ZM12.4961 5.56445L12.4961 17.1445C12.4961 17.8828 13.2754 18.1426 13.8633 17.8008L23.3516 12.209C24.0352 11.8125 24.0078 10.8828 23.3379 10.4863L13.8633 4.9082C13.2754 4.56641 12.4961 4.82617 12.4961 5.56445Z" fill="black" fill-opacity="0.85"/>
 </g>
</svg>
