<?xml version="1.0" encoding="UTF-8"?>
<!--Generator: Apple Native CoreSVG 326-->
<!DOCTYPE svg
PUBLIC "-//W3C//DTD SVG 1.1//EN"
       "http://www.w3.org/Graphics/SVG/1.1/DTD/svg11.dtd">
<svg version="1.1" xmlns="http://www.w3.org/2000/svg" xmlns:xlink="http://www.w3.org/1999/xlink" viewBox="0 0 28.2461 27.9043">
 <g>
  <rect height="27.9043" opacity="0" width="28.2461" x="0" y="0"/>
  <path d="M13.9453 27.8906C21.6426 27.8906 27.8906 21.6426 27.8906 13.9453C27.8906 6.24805 21.6426 0 13.9453 0C6.24805 0 0 6.24805 0 13.9453C0 21.6426 6.24805 27.8906 13.9453 27.8906ZM13.9453 25.5664C7.51953 25.5664 2.32422 20.3711 2.32422 13.9453C2.32422 7.51953 7.51953 2.32422 13.9453 2.32422C20.3711 2.32422 25.5664 7.51953 25.5664 13.9453C25.5664 20.3711 20.3711 25.5664 13.9453 25.5664Z" fill="black" fill-opacity="0.85"/>
  <path d="M9.1875 11.3203C9.1875 11.8398 9.61133 12.2637 10.1445 12.2637L13.0156 12.2637L13.0156 15.1348C13.0156 15.6406 13.4395 16.0781 13.959 16.0781C14.4785 16.0781 14.916 15.6406 14.916 15.1348L14.916 12.2637L17.7598 12.2637C18.2793 12.2637 18.7168 11.8398 18.7168 11.3203C18.7168 10.8008 18.2793 10.3633 17.7598 10.3633L14.916 10.3633L14.916 7.49219C14.916 6.97266 14.4785 6.54883 13.959 6.54883C13.4395 6.54883 13.0156 6.97266 13.0156 7.49219L13.0156 10.3633L10.1445 10.3633C9.61133 10.3633 9.1875 10.8008 9.1875 11.3203ZM9.1875 19.4824C9.1875 19.9609 9.61133 20.4395 10.1582 20.4395L17.7461 20.4395C18.2793 20.4395 18.7168 19.9609 18.7168 19.4824C18.7168 18.9766 18.2793 18.5391 17.7461 18.5391L10.1582 18.5391C9.61133 18.5391 9.1875 18.9766 9.1875 19.4824Z" fill="black" fill-opacity="0.85"/>
 </g>
</svg>
