<?xml version="1.0" encoding="UTF-8"?>
<!--Generator: Apple Native CoreSVG 326-->
<!DOCTYPE svg
PUBLIC "-//W3C//DTD SVG 1.1//EN"
       "http://www.w3.org/Graphics/SVG/1.1/DTD/svg11.dtd">
<svg version="1.1" xmlns="http://www.w3.org/2000/svg" xmlns:xlink="http://www.w3.org/1999/xlink" viewBox="0 0 30.4883 30.2012">
 <g>
  <rect height="30.2012" opacity="0" width="30.4883" x="0" y="0"/>
  <path d="M30.1328 8.09375L30.1328 18.5664C30.1328 22.5723 27.9453 24.8145 23.8711 24.8145L14.6289 24.8145L9.69336 29.3262C9.05078 29.9277 8.6543 30.2012 8.12109 30.2012C7.3418 30.2012 6.9043 29.6406 6.9043 28.793L6.9043 24.8145L6.26172 24.8145C2.1875 24.8145 0 22.5859 0 18.5664L0 8.09375C0 4.07422 2.1875 1.83203 6.26172 1.83203L23.8711 1.83203C27.9453 1.83203 30.1328 4.08789 30.1328 8.09375ZM13.8906 7.84766L13.8906 12.127L9.61133 12.127C8.90039 12.127 8.39453 12.6191 8.39453 13.3301C8.39453 14.0273 8.90039 14.4922 9.61133 14.4922L13.8906 14.4922L13.8906 18.7852C13.8906 19.4824 14.3691 19.9883 15.0527 19.9883C15.7773 19.9883 16.2559 19.4961 16.2559 18.7852L16.2559 14.4922L20.5488 14.4922C21.2461 14.4922 21.752 14.0273 21.752 13.3301C21.752 12.6191 21.2598 12.127 20.5488 12.127L16.2559 12.127L16.2559 7.84766C16.2559 7.13672 15.7773 6.63086 15.0527 6.63086C14.3691 6.63086 13.8906 7.13672 13.8906 7.84766Z" fill="black" fill-opacity="0.85"/>
 </g>
</svg>
