<?xml version="1.0" encoding="UTF-8"?>
<!--Generator: Apple Native CoreSVG 326-->
<!DOCTYPE svg
PUBLIC "-//W3C//DTD SVG 1.1//EN"
       "http://www.w3.org/Graphics/SVG/1.1/DTD/svg11.dtd">
<svg version="1.1" xmlns="http://www.w3.org/2000/svg" xmlns:xlink="http://www.w3.org/1999/xlink" viewBox="0 0 28.2461 27.9043">
 <g>
  <rect height="27.9043" opacity="0" width="28.2461" x="0" y="0"/>
  <path d="M13.9453 27.9043C21.6426 27.9043 27.8906 21.6562 27.8906 13.959C27.8906 6.27539 21.6426 0.0136719 13.9453 0.0136719C6.26172 0.0136719 0 6.27539 0 13.959C0 21.6562 6.26172 27.9043 13.9453 27.9043Z" fill="black" fill-opacity="0.85"/>
  <path d="M10.0352 12.25C9.48828 12.25 9.05078 11.7988 9.05078 11.2656C9.05078 10.7324 9.48828 10.2812 10.0352 10.2812L12.9883 10.2812L12.9883 7.31445C12.9883 6.79492 13.4395 6.34375 13.9727 6.34375C14.5059 6.34375 14.9707 6.78125 14.9707 7.31445L14.9707 10.2812L17.8965 10.2812C18.4297 10.2812 18.8809 10.7324 18.8809 11.2656C18.8809 11.7988 18.4297 12.25 17.8965 12.25L14.9707 12.25L14.9707 15.2031C14.9707 15.7363 14.5059 16.1875 13.9727 16.1875C13.4395 16.1875 12.9883 15.7227 12.9883 15.2031L12.9883 12.25ZM10.0488 20.6719C9.48828 20.6719 9.05078 20.1934 9.05078 19.7012C9.05078 19.168 9.48828 18.7031 10.0488 18.7031L17.8828 18.7031C18.4297 18.7031 18.8809 19.168 18.8809 19.7012C18.8809 20.1934 18.4297 20.6719 17.8828 20.6719Z" fill="white"/>
 </g>
</svg>
