<?xml version="1.0" encoding="UTF-8"?>
<!--Generator: Apple Native CoreSVG 326-->
<!DOCTYPE svg
PUBLIC "-//W3C//DTD SVG 1.1//EN"
       "http://www.w3.org/Graphics/SVG/1.1/DTD/svg11.dtd">
<svg version="1.1" xmlns="http://www.w3.org/2000/svg" xmlns:xlink="http://www.w3.org/1999/xlink" viewBox="0 0 34.3711 27.7129">
 <g>
  <rect height="27.7129" opacity="0" width="34.3711" x="0" y="0"/>
  <path d="M27.2617 4.23828L27.2617 6.33008L25.0605 6.33008L25.0605 4.36133C25.0605 2.93945 24.2812 2.20117 22.9277 2.20117L4.32031 2.20117C2.95312 2.20117 2.20117 2.93945 2.20117 4.36133L2.20117 17.0215C2.20117 18.4434 2.95312 19.168 4.32031 19.168L6.75391 19.168L6.75391 21.3691L4.29297 21.3691C1.42188 21.3691 0 19.9609 0 17.1309L0 4.23828C0 1.42188 1.42188 0 4.29297 0L22.9688 0C25.8125 0 27.2617 1.42188 27.2617 4.23828Z" fill="black" fill-opacity="0.85"/>
  <path d="M11.0469 27.6992L29.7227 27.6992C32.5664 27.6992 34.0156 26.2773 34.0156 23.4609L34.0156 10.5684C34.0156 7.75195 32.5664 6.33008 29.7227 6.33008L11.0469 6.33008C8.17578 6.33008 6.75391 7.75195 6.75391 10.5684L6.75391 23.4609C6.75391 26.291 8.17578 27.6992 11.0469 27.6992ZM11.0742 25.498C9.70703 25.498 8.95508 24.7734 8.95508 23.3516L8.95508 10.6914C8.95508 9.26953 9.70703 8.53125 11.0742 8.53125L29.6816 8.53125C31.0352 8.53125 31.8145 9.26953 31.8145 10.6914L31.8145 23.3516C31.8145 24.7734 31.0352 25.498 29.6816 25.498Z" fill="black" fill-opacity="0.85"/>
  <path d="M14.0547 17.0215C14.0547 17.6777 14.5332 18.1426 15.2305 18.1426L19.25 18.1426L19.25 22.1758C19.25 22.8594 19.7012 23.3379 20.3711 23.3379C21.0547 23.3379 21.5332 22.8594 21.5332 22.1758L21.5332 18.1426L25.5664 18.1426C26.25 18.1426 26.7285 17.6777 26.7285 17.0215C26.7285 16.3242 26.25 15.8594 25.5664 15.8594L21.5332 15.8594L21.5332 11.8398C21.5332 11.1289 21.0547 10.6641 20.3711 10.6641C19.7012 10.6641 19.25 11.1426 19.25 11.8398L19.25 15.8594L15.2305 15.8594C14.5195 15.8594 14.0547 16.3242 14.0547 17.0215Z" fill="black" fill-opacity="0.85"/>
 </g>
</svg>
