<?xml version="1.0" encoding="UTF-8"?>
<!--Generator: Apple Native CoreSVG 326-->
<!DOCTYPE svg
PUBLIC "-//W3C//DTD SVG 1.1//EN"
       "http://www.w3.org/Graphics/SVG/1.1/DTD/svg11.dtd">
<svg version="1.1" xmlns="http://www.w3.org/2000/svg" xmlns:xlink="http://www.w3.org/1999/xlink" viewBox="0 0 32.3066 32.3887">
 <g>
  <rect height="32.3887" opacity="0" width="32.3066" x="0" y="0"/>
  <path d="M23.8164 6.125L23.8164 6.35742L12.4277 6.35742C8.54492 6.35742 6.27539 8.58594 6.27539 12.4551L6.27539 24.1992L5.79688 24.1992C2.93945 24.1992 1.50391 22.7773 1.50391 19.9609L1.50391 6.125C1.50391 3.30859 2.93945 1.88672 5.79688 1.88672L19.5234 1.88672C22.3672 1.88672 23.8164 3.30859 23.8164 6.125Z" fill="black" fill-opacity="0.85"/>
  <path d="M30.4473 12.4551L30.4473 26.291C30.4473 29.1074 28.998 30.5293 26.1543 30.5293L12.4277 30.5293C9.57031 30.5293 8.13477 29.1074 8.13477 26.291L8.13477 12.4551C8.13477 9.625 9.57031 8.2168 12.4277 8.2168L26.1543 8.2168C28.998 8.2168 30.4473 9.63867 30.4473 12.4551ZM18.1152 13.9043L18.1152 18.1836L13.8359 18.1836C13.1113 18.1836 12.6191 18.6758 12.6191 19.3867C12.6191 20.084 13.125 20.5488 13.8359 20.5488L18.1152 20.5488L18.1152 24.8418C18.1152 25.5391 18.5801 26.0449 19.2773 26.0449C19.9883 26.0449 20.4805 25.5527 20.4805 24.8418L20.4805 20.5488L24.7734 20.5488C25.4707 20.5488 25.9766 20.084 25.9766 19.3867C25.9766 18.6758 25.4707 18.1836 24.7734 18.1836L20.4805 18.1836L20.4805 13.9043C20.4805 13.1934 19.9883 12.6875 19.2773 12.6875C18.5801 12.6875 18.1152 13.1934 18.1152 13.9043Z" fill="black" fill-opacity="0.85"/>
 </g>
</svg>
