<?xml version="1.0" encoding="UTF-8"?>
<!--Generator: Apple Native CoreSVG 326-->
<!DOCTYPE svg
PUBLIC "-//W3C//DTD SVG 1.1//EN"
       "http://www.w3.org/Graphics/SVG/1.1/DTD/svg11.dtd">
<svg version="1.1" xmlns="http://www.w3.org/2000/svg" xmlns:xlink="http://www.w3.org/1999/xlink" viewBox="0 0 46.1426 31.8418">
 <g>
  <rect height="31.8418" opacity="0" width="46.1426" x="0" y="0"/>
  <path d="M22.0938 12.8926L22.0938 14.2188C22.0938 18.0742 24.3496 20.3164 28.2461 20.3164L38.418 20.3164L38.418 24.1035C38.418 26.9199 36.9961 28.3418 34.5352 28.3418L11.6621 28.3418C8.81836 28.3418 7.36914 26.9336 7.36914 24.1035L7.36914 12.8926ZM17.9922 4.33398L18.8262 5.01758C19.5234 5.60547 20.0703 5.82422 21 5.82422L22.1044 5.82422C22.0952 5.91577 22.0938 6.01302 22.0938 6.11133L22.0938 11.1016L7.36914 11.1016L7.36914 7.4375C7.36914 4.68945 8.75 3.32227 11.1426 3.32227L15.0391 3.32227C16.3926 3.32227 17.0898 3.56836 17.9922 4.33398Z" fill="black" fill-opacity="0.85"/>
  <path d="M44.2832 6.11133L44.2832 14.2188C44.2832 17.0352 42.834 18.457 39.9902 18.457L28.2461 18.457C25.3887 18.457 23.9531 17.0352 23.9531 14.2188L23.9531 6.11133C23.9531 3.28125 25.3887 1.87305 28.2461 1.87305L39.9902 1.87305C42.834 1.87305 44.2832 3.28125 44.2832 6.11133ZM33.2773 6.64453L33.2773 9.32422L30.6113 9.32422C30.1055 9.32422 29.7637 9.65234 29.7637 10.1582C29.7637 10.6641 30.1055 10.9922 30.6113 10.9922L33.2773 10.9922L33.2773 13.6719C33.2773 14.1777 33.6055 14.5059 34.125 14.5059C34.6309 14.5059 34.959 14.1777 34.959 13.6719L34.959 10.9922L37.625 10.9922C38.1309 10.9922 38.459 10.6641 38.459 10.1582C38.459 9.65234 38.1309 9.32422 37.625 9.32422L34.959 9.32422L34.959 6.64453C34.959 6.15234 34.6309 5.81055 34.125 5.81055C33.6055 5.81055 33.2773 6.15234 33.2773 6.64453Z" fill="black" fill-opacity="0.85"/>
 </g>
</svg>
