<?xml version="1.0" encoding="UTF-8"?>
<!--Generator: Apple Native CoreSVG 326-->
<!DOCTYPE svg
PUBLIC "-//W3C//DTD SVG 1.1//EN"
       "http://www.w3.org/Graphics/SVG/1.1/DTD/svg11.dtd">
<svg version="1.1" xmlns="http://www.w3.org/2000/svg" xmlns:xlink="http://www.w3.org/1999/xlink" viewBox="0 0 30.4883 30.0371">
 <g>
  <rect height="30.0371" opacity="0" width="30.4883" x="0" y="0"/>
  <path d="M8.4082 30.0371C9.07812 30.0371 9.54297 29.6816 10.377 28.9434L15.0938 24.7461L23.8711 24.7461C27.9453 24.7461 30.1328 22.4902 30.1328 18.4844L30.1328 8.01172C30.1328 4.00586 27.9453 1.75 23.8711 1.75L6.26172 1.75C2.1875 1.75 0 3.99219 0 8.01172L0 18.4844C0 22.5039 2.1875 24.7461 6.26172 24.7461L6.91797 24.7461L6.91797 28.3008C6.91797 29.3535 7.45117 30.0371 8.4082 30.0371ZM8.96875 27.5352L8.96875 23.5703C8.96875 22.832 8.68164 22.5449 7.94336 22.5449L6.26172 22.5449C3.5 22.5449 2.20117 21.1367 2.20117 18.4707L2.20117 8.01172C2.20117 5.3457 3.5 3.95117 6.26172 3.95117L23.8711 3.95117C26.6191 3.95117 27.9316 5.3457 27.9316 8.01172L27.9316 18.4707C27.9316 21.1367 26.6191 22.5449 23.8711 22.5449L15.0117 22.5449C14.2461 22.5449 13.8633 22.6543 13.3438 23.1875Z" fill="black" fill-opacity="0.85"/>
  <path d="M8.73633 13.248C8.73633 13.918 9.21484 14.3691 9.91211 14.3691L13.9316 14.3691L13.9316 18.4023C13.9316 19.0859 14.3965 19.5645 15.0527 19.5645C15.75 19.5645 16.2148 19.0996 16.2148 18.4023L16.2148 14.3691L20.248 14.3691C20.9316 14.3691 21.4102 13.918 21.4102 13.248C21.4102 12.5645 20.9453 12.0859 20.248 12.0859L16.2148 12.0859L16.2148 8.06641C16.2148 7.36914 15.75 6.89062 15.0527 6.89062C14.3965 6.89062 13.9316 7.36914 13.9316 8.06641L13.9316 12.0859L9.91211 12.0859C9.21484 12.0859 8.73633 12.5645 8.73633 13.248Z" fill="black" fill-opacity="0.85"/>
 </g>
</svg>
