<?xml version="1.0" encoding="UTF-8"?>
<!--Generator: Apple Native CoreSVG 326-->
<!DOCTYPE svg
PUBLIC "-//W3C//DTD SVG 1.1//EN"
       "http://www.w3.org/Graphics/SVG/1.1/DTD/svg11.dtd">
<svg version="1.1" xmlns="http://www.w3.org/2000/svg" xmlns:xlink="http://www.w3.org/1999/xlink" viewBox="0 0 22.9141 22.5723">
 <g>
  <rect height="22.5723" opacity="0" width="22.9141" x="0" y="0"/>
  <path d="M0 11.2793C0 11.9492 0.560547 12.4961 1.2168 12.4961L10.0625 12.4961L10.0625 21.3418C10.0625 21.998 10.6094 22.5586 11.2793 22.5586C11.9492 22.5586 12.5098 21.998 12.5098 21.3418L12.5098 12.4961L21.3418 12.4961C21.998 12.4961 22.5586 11.9492 22.5586 11.2793C22.5586 10.6094 21.998 10.0488 21.3418 10.0488L12.5098 10.0488L12.5098 1.2168C12.5098 0.560547 11.9492 0 11.2793 0C10.6094 0 10.0625 0.560547 10.0625 1.2168L10.0625 10.0488L1.2168 10.0488C0.560547 10.0488 0 10.6094 0 11.2793Z" fill="#28cd41"/>
 </g>
</svg>
