<?xml version="1.0" encoding="UTF-8"?>
<!--Generator: Apple Native CoreSVG 326-->
<!DOCTYPE svg
PUBLIC "-//W3C//DTD SVG 1.1//EN"
       "http://www.w3.org/Graphics/SVG/1.1/DTD/svg11.dtd">
<svg version="1.1" xmlns="http://www.w3.org/2000/svg" xmlns:xlink="http://www.w3.org/1999/xlink" viewBox="0 0 24.582 30.2832">
 <g>
  <rect height="30.2832" opacity="0" width="24.582" x="0" y="0"/>
  <path d="M19.0449 0.546875L23.3926 3.62305C24.0352 4.07422 24.0215 4.73047 23.3926 5.16797L19.0312 8.24414C18.293 8.77734 17.623 8.51758 17.623 7.56055L17.623 5.49609L7.20508 5.49609C4.12891 5.49609 2.20117 6.94531 2.20117 9.22852C2.20117 11.5527 4.26562 13.125 8.38086 13.5488L16.1738 14.3691C21.4785 14.9023 24.2266 17.3359 24.2266 21.0547C24.2266 24.6914 21.4375 26.9883 17.0215 26.9883L8.66937 26.9883C8.76834 26.6315 8.81836 26.2551 8.81836 25.8672C8.81836 25.4942 8.77159 25.1317 8.67851 24.7871L17.0215 24.7871C20.0977 24.7871 22.0254 23.3379 22.0254 21.0547C22.0254 18.7305 19.9473 17.1582 15.8457 16.7344L8.02539 15.9141C2.73438 15.3809 0 12.9473 0 9.22852C0 5.5918 2.78906 3.29492 7.20508 3.29492L17.623 3.29492L17.623 1.24414C17.623 0.259766 18.293 0.0136719 19.0449 0.546875Z" fill="black" fill-opacity="0.85"/>
  <path d="M4.41602 30.2832C6.84961 30.2832 8.81836 28.3008 8.81836 25.8672C8.81836 23.4473 6.84961 21.4648 4.41602 21.4648C1.98242 21.4648 0.0136719 23.4473 0.0136719 25.8672C0.0136719 28.3008 1.98242 30.2832 4.41602 30.2832Z" fill="black" fill-opacity="0.85"/>
 </g>
</svg>
