<?xml version="1.0" encoding="UTF-8"?>
<!--Generator: Apple Native CoreSVG 326-->
<!DOCTYPE svg
PUBLIC "-//W3C//DTD SVG 1.1//EN"
       "http://www.w3.org/Graphics/SVG/1.1/DTD/svg11.dtd">
<svg version="1.1" xmlns="http://www.w3.org/2000/svg" xmlns:xlink="http://www.w3.org/1999/xlink" viewBox="0 0 30.8848 29.1895">
 <g>
  <rect height="29.1895" opacity="0" width="30.8848" x="0" y="0"/>
  <path d="M1.81836 27.5898L28.7109 27.5898L28.7109 25.9766C28.7109 25.4297 28.3965 25.1016 27.8359 25.1016L26.9609 25.1016L26.9609 9.37891L28.1641 9.37891C28.916 9.37891 29.3535 8.83203 29.3535 8.27148C29.3535 7.86133 29.1211 7.50586 28.6152 7.21875L16.9395 0.478516C16.3926 0.164062 15.8184 0 15.2578 0C14.6973 0 14.1094 0.164062 13.5898 0.478516L1.91406 7.21875C1.39453 7.50586 1.17578 7.86133 1.17578 8.27148C1.17578 8.83203 1.61328 9.37891 2.36523 9.37891L3.56836 9.37891L3.56836 25.1016L2.70703 25.1016C2.14648 25.1016 1.81836 25.4297 1.81836 25.9766ZM1.09375 29.1758L29.4219 29.1758C30.0234 29.1758 30.5293 28.6699 30.5293 28.0684C30.5293 27.4668 30.0234 26.9746 29.4219 26.9746L1.09375 26.9746C0.492188 26.9746 0 27.4668 0 28.0684C0 28.6699 0.492188 29.1758 1.09375 29.1758Z" fill="black" fill-opacity="0.85"/>
  <path d="M10.5957 21.3691C10.1855 21.3691 9.88477 21.0957 9.88477 20.6719C9.88477 20.4531 9.99414 20.248 10.1309 20.0293L13.8223 14.2461L13.8223 14.082L10.5273 14.082C10.1719 14.082 9.88477 13.8359 9.88477 13.4668C9.88477 13.1113 10.1719 12.8516 10.5273 12.8516L14.8887 12.8516C15.4629 12.8516 15.668 13.207 15.668 13.5898C15.668 13.877 15.5586 14.0684 15.4082 14.3418L11.8809 19.9883L11.8809 20.1387L15.0801 20.1387C15.4629 20.1387 15.75 20.3984 15.75 20.7402C15.75 21.1094 15.4629 21.3691 15.0801 21.3691ZM16.2559 16.1738C16.2559 15.9414 16.3926 15.709 16.666 15.5586L17.7598 14.9707L17.7598 10.1855C17.7598 9.65234 18.0605 9.35156 18.5527 9.35156C19.0312 9.35156 19.332 9.65234 19.332 10.1992L19.332 14.1367L20.0156 13.7676C20.5078 13.5215 20.959 13.9043 20.959 14.3281C20.959 14.5469 20.8359 14.7656 20.5488 14.9297L19.332 15.5723L19.332 20.6992C19.332 21.2188 19.0312 21.5332 18.5527 21.5332C18.0605 21.5332 17.7598 21.2188 17.7598 20.6992L17.7598 16.3926L17.2402 16.666C16.6934 16.9668 16.2559 16.584 16.2559 16.1738Z" fill="white"/>
 </g>
</svg>
