<?xml version="1.0" encoding="UTF-8"?>
<!--Generator: Apple Native CoreSVG 326-->
<!DOCTYPE svg
PUBLIC "-//W3C//DTD SVG 1.1//EN"
       "http://www.w3.org/Graphics/SVG/1.1/DTD/svg11.dtd">
<svg version="1.1" xmlns="http://www.w3.org/2000/svg" xmlns:xlink="http://www.w3.org/1999/xlink" viewBox="0 0 30.9258 30.584">
 <g>
  <rect height="30.584" opacity="0" width="30.9258" x="0" y="0"/>
  <path d="M15.2852 30.5703C23.6797 30.5703 30.5703 23.6797 30.5703 15.2852C30.5703 6.89062 23.6797 0 15.2852 0C6.89062 0 0 6.89062 0 15.2852C0 23.6797 6.89062 30.5703 15.2852 30.5703ZM15.2852 25.4844C9.65234 25.4844 5.08594 20.918 5.08594 15.2852C5.08594 9.63867 9.65234 5.08594 15.2852 5.08594C20.9316 5.08594 25.4844 9.63867 25.4844 15.2852C25.4844 20.918 20.9316 25.4844 15.2852 25.4844Z" fill="black" fill-opacity="0.85"/>
  <path d="M10.7734 20.877L15.1211 20.877C15.4766 20.877 15.75 20.6172 15.75 20.2754C15.75 19.9336 15.4766 19.6738 15.1211 19.6738L12.0039 19.6738L12.0039 19.5234L15.4219 14.041C15.5723 13.7812 15.6953 13.5898 15.6953 13.3301C15.6953 12.9473 15.4766 12.6055 14.9297 12.6055L10.6914 12.6055C10.3496 12.6055 10.0762 12.8516 10.0762 13.1934C10.0762 13.5488 10.3496 13.7949 10.6914 13.7949L13.8906 13.7949L13.8906 13.9453L10.3086 19.5781C10.1719 19.7969 10.0762 19.9746 10.0762 20.1934C10.0762 20.6035 10.3633 20.877 10.7734 20.877ZM18.4707 21.0273C18.9355 21.0273 19.2227 20.7129 19.2227 20.2207L19.2227 10.0215C19.2227 9.51562 18.9355 9.20117 18.4707 9.20117C17.9922 9.20117 17.7051 9.51562 17.7051 10.0078L17.7051 20.2207C17.7051 20.7129 17.9922 21.0273 18.4707 21.0273ZM17.1992 16.3105L20.3984 14.6152C20.6855 14.4648 20.7949 14.2461 20.7949 14.0273C20.7949 13.6309 20.3711 13.248 19.8926 13.4941L16.6387 15.2305C16.3789 15.3672 16.2422 15.5996 16.2422 15.8184C16.2422 16.2285 16.666 16.584 17.1992 16.3105Z" fill="black" fill-opacity="0.85"/>
 </g>
</svg>
