<?xml version="1.0" encoding="UTF-8"?>
<!--Generator: Apple Native CoreSVG 326-->
<!DOCTYPE svg
PUBLIC "-//W3C//DTD SVG 1.1//EN"
       "http://www.w3.org/Graphics/SVG/1.1/DTD/svg11.dtd">
<svg version="1.1" xmlns="http://www.w3.org/2000/svg" xmlns:xlink="http://www.w3.org/1999/xlink" viewBox="0 0 28.2461 27.9043">
 <g>
  <rect height="27.9043" opacity="0" width="28.2461" x="0" y="0"/>
  <path d="M13.9453 27.8906C21.6426 27.8906 27.8906 21.6289 27.8906 13.9453C27.8906 6.24805 21.6426 0 13.9453 0C6.26172 0 0 6.24805 0 13.9453C0 21.6289 6.26172 27.8906 13.9453 27.8906Z" fill="black" fill-opacity="0.85"/>
  <path d="M9.26953 19.7148C8.85938 19.7148 8.55859 19.4277 8.55859 19.0039C8.55859 18.7852 8.66797 18.5938 8.80469 18.375L12.4961 12.5781L12.4961 12.4141L9.20117 12.4141C8.8457 12.4141 8.55859 12.168 8.55859 11.7988C8.55859 11.4434 8.8457 11.1836 9.20117 11.1836L13.5625 11.1836C14.1367 11.1836 14.3418 11.5391 14.3418 11.9355C14.3418 12.209 14.2324 12.4004 14.082 12.6738L10.5547 18.3203L10.5547 18.4707L13.7539 18.4707C14.1367 18.4707 14.4238 18.7441 14.4238 19.0723C14.4238 19.4414 14.1367 19.7148 13.7539 19.7148ZM14.9297 14.5059C14.9297 14.2734 15.0664 14.041 15.3398 13.8906L16.4336 13.3164L16.4336 8.51758C16.4336 7.99805 16.7344 7.68359 17.2266 7.68359C17.7051 7.68359 18.0059 7.99805 18.0059 8.53125L18.0059 12.4824L18.6895 12.0996C19.1816 11.8535 19.6328 12.25 19.6328 12.6602C19.6328 12.8789 19.5098 13.1113 19.2227 13.2617L18.0059 13.9043L18.0059 19.0312C18.0059 19.5508 17.7051 19.8652 17.2266 19.8652C16.7344 19.8652 16.4336 19.5508 16.4336 19.0312L16.4336 14.7246L15.9141 15.0117C15.3672 15.2988 14.9297 14.9297 14.9297 14.5059Z" fill="white"/>
 </g>
</svg>
