<?xml version="1.0" encoding="UTF-8"?>
<!--Generator: Apple Native CoreSVG 326-->
<!DOCTYPE svg
PUBLIC "-//W3C//DTD SVG 1.1//EN"
       "http://www.w3.org/Graphics/SVG/1.1/DTD/svg11.dtd">
<svg version="1.1" xmlns="http://www.w3.org/2000/svg" xmlns:xlink="http://www.w3.org/1999/xlink" viewBox="0 0 30.8848 29.1895">
 <g>
  <rect height="29.1895" opacity="0" width="30.8848" x="0" y="0"/>
  <path d="M1.81836 25.9219L28.7109 25.9219L28.7109 25.0059C28.7109 24.459 28.3965 24.1309 27.8359 24.1309L26.9609 24.1309L26.9609 9.37891L28.1641 9.37891C28.916 9.37891 29.3535 8.83203 29.3535 8.27148C29.3535 7.86133 29.1211 7.50586 28.6152 7.21875L16.9395 0.478516C16.3926 0.164062 15.8184 0 15.2578 0C14.6973 0 14.1094 0.164062 13.5898 0.478516L1.91406 7.21875C1.39453 7.50586 1.17578 7.86133 1.17578 8.27148C1.17578 8.83203 1.61328 9.37891 2.36523 9.37891L3.56836 9.37891L3.56836 24.1309L2.70703 24.1309C2.14648 24.1309 1.81836 24.459 1.81836 25.0059ZM5.63281 24.1309L5.63281 7.62891L14.7246 2.5293C14.8887 2.43359 15.0801 2.37891 15.2578 2.37891C15.4355 2.37891 15.627 2.43359 15.8047 2.5293L24.8965 7.62891L24.8965 24.1309ZM1.09375 29.1758L29.4219 29.1758C30.0234 29.1758 30.5293 28.6699 30.5293 28.0684C30.5293 27.4668 30.0234 26.9746 29.4219 26.9746L1.09375 26.9746C0.492188 26.9746 0 27.4668 0 28.0684C0 28.6699 0.492188 29.1758 1.09375 29.1758Z" fill="black" fill-opacity="0.85"/>
  <path d="M10.7461 19.9746L15.0938 19.9746C15.4629 19.9746 15.7363 19.7285 15.7363 19.373C15.7363 19.0312 15.4629 18.7852 15.0938 18.7852L11.9902 18.7852L11.9902 18.6348L15.4082 13.1387C15.5586 12.8926 15.668 12.7012 15.668 12.4277C15.668 12.0449 15.4629 11.7031 14.9023 11.7031L10.6777 11.7031C10.3359 11.7031 10.0625 11.9629 10.0625 12.3047C10.0625 12.6465 10.3359 12.9062 10.6777 12.9062L13.877 12.9062L13.877 13.0566L10.2949 18.6758C10.1582 18.8945 10.0625 19.0859 10.0625 19.3047C10.0625 19.7012 10.3496 19.9746 10.7461 19.9746ZM18.457 20.125C18.9219 20.125 19.209 19.8242 19.209 19.332L19.209 9.11914C19.209 8.61328 18.9219 8.3125 18.457 8.3125C17.9785 8.3125 17.6914 8.61328 17.6914 9.10547L17.6914 19.332C17.6914 19.8242 17.9785 20.125 18.457 20.125ZM17.1855 15.4082L20.3848 13.7129C20.6719 13.5625 20.7812 13.3438 20.7812 13.125C20.7812 12.7285 20.3574 12.3457 19.8789 12.6055L16.625 14.3281C16.3652 14.4785 16.2285 14.7109 16.2285 14.916C16.2285 15.3262 16.6523 15.6816 17.1855 15.4082Z" fill="black" fill-opacity="0.85"/>
 </g>
</svg>
