<?xml version="1.0" encoding="UTF-8"?>
<!--Generator: Apple Native CoreSVG 326-->
<!DOCTYPE svg
PUBLIC "-//W3C//DTD SVG 1.1//EN"
       "http://www.w3.org/Graphics/SVG/1.1/DTD/svg11.dtd">
<svg version="1.1" xmlns="http://www.w3.org/2000/svg" xmlns:xlink="http://www.w3.org/1999/xlink" viewBox="0 0 29.75 38.2949">
 <g>
  <rect height="38.2949" opacity="0" width="29.75" x="0" y="0"/>
  <path d="M9.51562 15.8594L11.1836 34.2344L9.29688 34.2344C7.3418 34.2344 6.38477 33.0996 6.01562 31.1582L3.32227 16.9805C2.83008 14.3555 4.62109 13.002 6.39844 13.002C7.875 13.002 9.35156 13.9316 9.51562 15.8594ZM17.9785 15.9824L17.0392 26.5206C15.2595 27.3908 14.1504 29.1885 14.1504 31.1855C14.1504 32.3126 14.5001 33.3663 15.1245 34.2344L12.9746 34.2344L11.334 15.9824C11.1152 13.5215 13.1797 12.5508 14.6562 12.5508C16.1328 12.5508 18.1973 13.5215 17.9785 15.9824ZM25.9902 16.9805L24.6944 23.8365C23.9276 23.362 23.0107 23.0918 22.0117 23.0918C20.8994 23.0918 19.8825 23.429 19.0631 24.01L19.7969 15.8594C19.9746 13.9316 21.4512 13.002 22.9141 13.002C24.6914 13.002 26.4961 14.3555 25.9902 16.9805ZM15.7637 4.01953C16.1465 3.9375 16.6113 3.96484 16.9531 4.06055C17.6094 3.45898 18.4707 3.13086 19.4141 3.13086C20.8906 3.13086 21.957 4.01953 22.5312 5.3457C24.6914 5.40039 26.209 7.05469 26.209 9.40625C26.209 10.3086 25.9219 11.1152 25.4434 11.7988C24.6641 11.375 23.7617 11.1562 22.8867 11.1562C21.4238 11.1562 19.9746 11.7168 19.0312 12.8789C18.0605 11.4707 16.3652 10.6914 14.6562 10.6914C12.9473 10.6914 11.252 11.4707 10.2812 12.8789C9.33789 11.7168 7.90234 11.1562 6.4668 11.1562C5.53711 11.1562 4.62109 11.3887 3.82812 11.8262C3.4043 11.1562 3.22656 10.4863 3.22656 9.76172C3.22656 7.66992 4.94922 5.94727 7.02734 6.01562C7.02734 5.08594 7.90234 4.12891 8.95508 4.22461C9.1875 3.03516 10.4727 1.8457 12.4141 1.8457C13.877 1.8457 15.1621 2.69336 15.7637 4.01953Z" fill="black" fill-opacity="0.85"/>
  <path d="M22.0117 36.4219C23.3379 36.4219 24.5547 35.6699 25.1426 34.5215C26.9746 34.1113 27.8906 32.6758 27.8906 31.1992C27.8906 29.6816 26.9199 28.2461 25.1426 27.959C25.0879 26.2227 23.7754 24.9648 22.0117 24.9648C20.2754 24.9648 18.9766 26.1816 18.8945 27.8633C17.0488 28.1504 16.0234 29.6406 16.0234 31.1855C16.0234 32.7168 17.0352 34.166 18.8809 34.5488C19.4277 35.6699 20.6445 36.4219 22.0117 36.4219Z" fill="black" fill-opacity="0.85"/>
 </g>
</svg>
