<?xml version="1.0" encoding="UTF-8"?>
<!--Generator: Apple Native CoreSVG 326-->
<!DOCTYPE svg
PUBLIC "-//W3C//DTD SVG 1.1//EN"
       "http://www.w3.org/Graphics/SVG/1.1/DTD/svg11.dtd">
<svg version="1.1" xmlns="http://www.w3.org/2000/svg" xmlns:xlink="http://www.w3.org/1999/xlink" viewBox="0 0 26.3867 25.1973">
 <g>
  <rect height="25.1973" opacity="0" width="26.3867" x="0" y="0"/>
  <path d="M26.0312 4.26562L26.0312 20.959C26.0312 23.7754 24.5957 25.1973 21.7383 25.1973L4.29297 25.1973C1.43555 25.1973 0 23.7891 0 20.959L0 4.26562C0 1.43555 1.43555 0.0273438 4.29297 0.0273438L21.7383 0.0273438C24.5957 0.0273438 26.0312 1.44922 26.0312 4.26562ZM6.05664 17.1719C6.05664 18.3477 7.01367 19.3047 8.18945 19.3047C9.35156 19.3047 10.2949 18.3477 10.2949 17.1719C10.2949 16.0234 9.35156 15.0527 8.18945 15.0527C7.01367 15.0527 6.05664 16.0234 6.05664 17.1719ZM15.7363 17.1719C15.7363 18.3477 16.6797 19.3047 17.8555 19.3047C19.0039 19.3047 19.9746 18.3477 19.9746 17.1719C19.9746 16.0234 19.0039 15.0527 17.8555 15.0527C16.6797 15.0527 15.7363 16.0234 15.7363 17.1719ZM10.8828 7.98438C10.8828 9.16016 11.8398 10.1172 13.0156 10.1172C14.1777 10.1172 15.1348 9.16016 15.1348 7.98438C15.1348 6.82227 14.1777 5.87891 13.0156 5.87891C11.8398 5.87891 10.8828 6.82227 10.8828 7.98438Z" fill="black" fill-opacity="0.85"/>
 </g>
</svg>
