<?xml version="1.0" encoding="UTF-8"?>
<!--Generator: Apple Native CoreSVG 326-->
<!DOCTYPE svg
PUBLIC "-//W3C//DTD SVG 1.1//EN"
       "http://www.w3.org/Graphics/SVG/1.1/DTD/svg11.dtd">
<svg version="1.1" xmlns="http://www.w3.org/2000/svg" xmlns:xlink="http://www.w3.org/1999/xlink" viewBox="0 0 25.5254 25.1699">
 <g>
  <rect height="25.1699" opacity="0" width="25.5254" x="0" y="0"/>
  <path d="M4.29297 25.1699L20.877 25.1699C23.748 25.1699 25.1699 23.7617 25.1699 20.9453L25.1699 4.23828C25.1699 1.42188 23.748 0 20.877 0L4.29297 0C1.43555 0 0 1.42188 0 4.23828L0 20.9453C0 23.7617 1.43555 25.1699 4.29297 25.1699ZM4.32031 22.9688C2.95312 22.9688 2.20117 22.2441 2.20117 20.8223L2.20117 4.36133C2.20117 2.93945 2.95312 2.20117 4.32031 2.20117L20.8496 2.20117C22.2031 2.20117 22.9688 2.93945 22.9688 4.36133L22.9688 20.8223C22.9688 22.2441 22.2031 22.9688 20.8496 22.9688Z" fill="black" fill-opacity="0.85"/>
  <path d="M7.95703 8.36719C7.0957 8.36719 6.76758 8.75 6.31641 9.21484L3.88281 11.6621C3.4043 12.1543 3.39062 12.9746 3.88281 13.4668L6.31641 15.9414C6.76758 16.4062 7.21875 16.7891 7.95703 16.7891L17.2129 16.7891C17.9512 16.7891 18.4023 16.4062 18.8535 15.9414L21.2871 13.4668C21.7793 12.9746 21.7793 12.1543 21.2871 11.6621L18.8535 9.21484C18.4023 8.75 18.0742 8.36719 17.2129 8.36719ZM7.65625 11.2246C8.39453 11.2246 9.00977 11.8535 9.00977 12.5781C9.00977 13.3027 8.39453 13.918 7.65625 13.918C6.93164 13.918 6.31641 13.3027 6.31641 12.5781C6.31641 11.8535 6.93164 11.2246 7.65625 11.2246ZM12.5918 12.209C13.3164 12.209 13.9316 12.8242 13.9316 13.5625C13.9316 14.2871 13.3164 14.9023 12.5918 14.9023C11.8535 14.9023 11.2383 14.2871 11.2383 13.5625C11.2383 12.8242 11.8535 12.209 12.5918 12.209ZM17.5137 11.2246C18.2383 11.2246 18.8535 11.8535 18.8535 12.5781C18.8535 13.3027 18.2383 13.918 17.5137 13.918C16.7754 13.918 16.1738 13.3027 16.1738 12.5781C16.1738 11.8535 16.7754 11.2246 17.5137 11.2246Z" fill="black" fill-opacity="0.85"/>
 </g>
</svg>
