<?xml version="1.0" encoding="UTF-8"?>
<!--Generator: Apple Native CoreSVG 326-->
<!DOCTYPE svg
PUBLIC "-//W3C//DTD SVG 1.1//EN"
       "http://www.w3.org/Graphics/SVG/1.1/DTD/svg11.dtd">
<svg version="1.1" xmlns="http://www.w3.org/2000/svg" xmlns:xlink="http://www.w3.org/1999/xlink" viewBox="0 0 25.5254 25.1699">
 <g>
  <rect height="25.1699" opacity="0" width="25.5254" x="0" y="0"/>
  <path d="M4.29297 25.1699L20.877 25.1699C23.748 25.1699 25.1699 23.7617 25.1699 20.9453L25.1699 4.23828C25.1699 1.42188 23.748 0 20.877 0L4.29297 0C1.43555 0 0 1.42188 0 4.23828L0 20.9453C0 23.7617 1.43555 25.1699 4.29297 25.1699ZM4.32031 22.9688C2.95312 22.9688 2.20117 22.2441 2.20117 20.8223L2.20117 4.36133C2.20117 2.93945 2.95312 2.20117 4.32031 2.20117L20.8496 2.20117C22.2031 2.20117 22.9688 2.93945 22.9688 4.36133L22.9688 20.8223C22.9688 22.2441 22.2031 22.9688 20.8496 22.9688Z" fill="black" fill-opacity="0.85"/>
  <path d="M7.36914 19.0039L17.8828 19.0039C18.6211 19.0039 19.168 18.457 19.168 17.7188L19.168 7.46484C19.168 6.72656 18.6211 6.17969 17.8828 6.17969L7.36914 6.17969C6.63086 6.17969 6.08398 6.72656 6.08398 7.46484L6.08398 17.7188C6.08398 18.457 6.63086 19.0039 7.36914 19.0039ZM12.3047 11.5938C11.9766 11.5938 11.7441 11.3887 11.7441 11.0469L11.7441 8.80469C11.7441 8.47656 11.9766 8.24414 12.3047 8.24414L12.9199 8.24414C13.248 8.24414 13.5078 8.47656 13.5078 8.80469L13.5078 11.0469C13.5078 11.3887 13.248 11.5938 12.9199 11.5938ZM8.6543 16.8164C8.3125 16.8164 8.09375 16.584 8.09375 16.2559L8.09375 15.627C8.09375 15.2988 8.3125 15.0527 8.6543 15.0527L10.7871 15.0527C11.1152 15.0527 11.334 15.2988 11.334 15.627L11.334 16.2559C11.334 16.584 11.1152 16.8164 10.7871 16.8164ZM14.4785 16.8164C14.1367 16.8164 13.918 16.584 13.918 16.2559L13.918 15.627C13.918 15.2988 14.1367 15.0527 14.4785 15.0527L16.5977 15.0527C16.9395 15.0527 17.1582 15.2988 17.1582 15.627L17.1582 16.2559C17.1582 16.584 16.9395 16.8164 16.5977 16.8164Z" fill="black" fill-opacity="0.85"/>
 </g>
</svg>
