<?xml version="1.0" encoding="UTF-8"?>
<!--Generator: Apple Native CoreSVG 326-->
<!DOCTYPE svg
PUBLIC "-//W3C//DTD SVG 1.1//EN"
       "http://www.w3.org/Graphics/SVG/1.1/DTD/svg11.dtd">
<svg version="1.1" xmlns="http://www.w3.org/2000/svg" xmlns:xlink="http://www.w3.org/1999/xlink" viewBox="0 0 26.3867 25.1973">
 <g>
  <rect height="25.1973" opacity="0" width="26.3867" x="0" y="0"/>
  <path d="M4.29297 25.1973L21.7383 25.1973C24.5957 25.1973 26.0312 23.7754 26.0312 20.959L26.0312 4.26562C26.0312 1.44922 24.5957 0.0273438 21.7383 0.0273438L4.29297 0.0273438C1.43555 0.0273438 0 1.43555 0 4.26562L0 20.959C0 23.7891 1.43555 25.1973 4.29297 25.1973ZM4.32031 22.9961C2.95312 22.9961 2.20117 22.2715 2.20117 20.8496L2.20117 4.375C2.20117 2.95312 2.95312 2.22852 4.32031 2.22852L21.6973 2.22852C23.0508 2.22852 23.8301 2.95312 23.8301 4.375L23.8301 20.8496C23.8301 22.2715 23.0508 22.9961 21.6973 22.9961Z" fill="black" fill-opacity="0.85"/>
  <path d="M12.4551 10.9785L13.5625 10.9785C14.0273 10.9785 14.3281 10.6641 14.3281 10.1992L14.3281 6.20703C14.3281 5.74219 14.0273 5.42773 13.5625 5.42773L12.4551 5.42773C12.0039 5.42773 11.6895 5.74219 11.6895 6.20703L11.6895 10.1992C11.6895 10.6641 12.0039 10.9785 12.4551 10.9785ZM6.43945 19.0449L10.0078 19.0449C10.4727 19.0449 10.7734 18.7441 10.7734 18.2793L10.7734 17.1719C10.7734 16.707 10.4727 16.4062 10.0078 16.4062L6.43945 16.4062C5.97461 16.4062 5.67383 16.7207 5.67383 17.1719L5.67383 18.2793C5.67383 18.7441 5.97461 19.0449 6.43945 19.0449ZM16.0234 19.0449L19.5781 19.0449C20.0566 19.0449 20.3574 18.7441 20.3574 18.2793L20.3574 17.1719C20.3574 16.7207 20.043 16.4062 19.5781 16.4062L16.0234 16.4062C15.5586 16.4062 15.2441 16.707 15.2441 17.1719L15.2441 18.2793C15.2441 18.7441 15.5586 19.0449 16.0234 19.0449Z" fill="black" fill-opacity="0.85"/>
 </g>
</svg>
