<?xml version="1.0" encoding="UTF-8"?>
<!--Generator: Apple Native CoreSVG 326-->
<!DOCTYPE svg
PUBLIC "-//W3C//DTD SVG 1.1//EN"
       "http://www.w3.org/Graphics/SVG/1.1/DTD/svg11.dtd">
<svg version="1.1" xmlns="http://www.w3.org/2000/svg" xmlns:xlink="http://www.w3.org/1999/xlink" viewBox="0 0 25.5254 25.1699">
 <g>
  <rect height="25.1699" opacity="0" width="25.5254" x="0" y="0"/>
  <path d="M4.29297 25.1699L20.877 25.1699C23.748 25.1699 25.1699 23.7617 25.1699 20.9453L25.1699 4.23828C25.1699 1.42188 23.748 0 20.877 0L4.29297 0C1.43555 0 0 1.42188 0 4.23828L0 20.9453C0 23.7617 1.43555 25.1699 4.29297 25.1699Z" fill="black" fill-opacity="0.85"/>
  <path d="M7.82031 8.23047L17.3496 8.23047C18.252 8.23047 18.5938 8.62695 19.0586 9.10547L21.5605 11.6348C22.0664 12.1406 22.0664 12.9883 21.5605 13.4941L19.0586 16.0508C18.5938 16.5293 18.1152 16.9258 17.3496 16.9258L7.82031 16.9258C7.05469 16.9258 6.57617 16.5293 6.11133 16.0508L3.60938 13.4941C3.10352 12.9883 3.11719 12.1406 3.60938 11.6348L6.11133 9.10547C6.57617 8.62695 6.91797 8.23047 7.82031 8.23047ZM7.50586 11.1836C6.75391 11.1836 6.11133 11.8262 6.11133 12.5781C6.11133 13.3301 6.75391 13.959 7.50586 13.959C8.25781 13.959 8.90039 13.3301 8.90039 12.5781C8.90039 11.8262 8.25781 11.1836 7.50586 11.1836ZM12.5918 12.1953C11.8262 12.1953 11.1973 12.8379 11.1973 13.5898C11.1973 14.3418 11.8262 14.9844 12.5918 14.9844C13.3438 14.9844 13.9727 14.3418 13.9727 13.5898C13.9727 12.8379 13.3438 12.1953 12.5918 12.1953ZM17.6641 11.1836C16.9121 11.1836 16.2832 11.8262 16.2832 12.5781C16.2832 13.3301 16.9121 13.959 17.6641 13.959C18.416 13.959 19.0586 13.3301 19.0586 12.5781C19.0586 11.8262 18.416 11.1836 17.6641 11.1836Z" fill="white"/>
 </g>
</svg>
