<?xml version="1.0" encoding="UTF-8"?>
<!--Generator: Apple Native CoreSVG 326-->
<!DOCTYPE svg
PUBLIC "-//W3C//DTD SVG 1.1//EN"
       "http://www.w3.org/Graphics/SVG/1.1/DTD/svg11.dtd">
<svg version="1.1" xmlns="http://www.w3.org/2000/svg" xmlns:xlink="http://www.w3.org/1999/xlink" viewBox="0 0 26.3867 25.1973">
 <g>
  <rect height="25.1973" opacity="0" width="26.3867" x="0" y="0"/>
  <path d="M4.29297 25.1973L21.7383 25.1973C24.5957 25.1973 26.0312 23.7754 26.0312 20.959L26.0312 4.26562C26.0312 1.44922 24.5957 0.0273438 21.7383 0.0273438L4.29297 0.0273438C1.43555 0.0273438 0 1.43555 0 4.26562L0 20.959C0 23.7891 1.43555 25.1973 4.29297 25.1973ZM4.32031 22.9961C2.95312 22.9961 2.20117 22.2715 2.20117 20.8496L2.20117 4.375C2.20117 2.95312 2.95312 2.22852 4.32031 2.22852L21.6973 2.22852C23.0508 2.22852 23.8301 2.95312 23.8301 4.375L23.8301 20.8496C23.8301 22.2715 23.0508 22.9961 21.6973 22.9961Z" fill="black" fill-opacity="0.85"/>
  <path d="M8.27148 12.4688C8.94141 12.4688 9.48828 11.9492 9.48828 11.252L9.48828 7.01367C9.48828 6.34375 8.94141 5.79688 8.27148 5.79688C7.58789 5.79688 7.06836 6.34375 7.06836 7.01367L7.06836 11.252C7.06836 11.9492 7.58789 12.4688 8.27148 12.4688ZM11.3887 20.1934L14.6426 20.1934C15.0664 20.1934 15.2852 19.9883 15.2852 19.5645L15.2852 18.0195C15.2852 16.748 14.2871 15.7363 13.0156 15.7363C11.7305 15.7363 10.7461 16.748 10.7461 18.0195L10.7461 19.5645C10.7461 19.9883 10.9648 20.1934 11.3887 20.1934ZM17.7324 12.4688C18.416 12.4688 18.9629 11.9492 18.9629 11.252L18.9629 7.01367C18.9629 6.34375 18.416 5.79688 17.7324 5.79688C17.0488 5.79688 16.5293 6.34375 16.5293 7.01367L16.5293 11.252C16.5293 11.9492 17.0488 12.4688 17.7324 12.4688Z" fill="black" fill-opacity="0.85"/>
 </g>
</svg>
