<?xml version="1.0" encoding="UTF-8"?>
<!--Generator: Apple Native CoreSVG 326-->
<!DOCTYPE svg
PUBLIC "-//W3C//DTD SVG 1.1//EN"
       "http://www.w3.org/Graphics/SVG/1.1/DTD/svg11.dtd">
<svg version="1.1" xmlns="http://www.w3.org/2000/svg" xmlns:xlink="http://www.w3.org/1999/xlink" viewBox="0 0 36.2578 21.3965">
 <g>
  <rect height="21.3965" opacity="0" width="36.2578" x="0" y="0"/>
  <path d="M30.543 2.17383L34.9727 7.9707C36.2168 9.58398 36.2031 11.7168 34.9863 13.3164L30.5566 19.168C29.4629 20.6035 27.9863 21.3691 26.2363 21.3691L9.66602 21.3691C7.91602 21.3691 6.43945 20.6035 5.3457 19.168L0.916016 13.3164C-0.300781 11.7168-0.314453 9.58398 0.929688 7.9707L5.35938 2.17383C6.54883 0.669922 7.79297 0 9.66602 0L26.2363 0C28.1094 0 29.3535 0.669922 30.543 2.17383ZM15.5039 13.9727C15.5039 15.3262 16.6113 16.4199 17.9512 16.4199C19.291 16.4199 20.3984 15.3262 20.3984 13.9727C20.3984 12.6328 19.291 11.5254 17.9512 11.5254C16.6113 11.5254 15.5039 12.6328 15.5039 13.9727ZM6.125 10.623C6.125 11.9629 7.21875 13.084 8.57227 13.084C9.91211 13.084 11.0195 11.9629 11.0195 10.623C11.0195 9.2832 9.91211 8.17578 8.57227 8.17578C7.21875 8.17578 6.125 9.2832 6.125 10.623ZM24.8828 10.623C24.8828 11.9629 25.9902 13.084 27.3301 13.084C28.6836 13.084 29.7773 11.9629 29.7773 10.623C29.7773 9.2832 28.6836 8.17578 27.3301 8.17578C25.9902 8.17578 24.8828 9.2832 24.8828 10.623Z" fill="black" fill-opacity="0.85"/>
 </g>
</svg>
