<?xml version="1.0" encoding="UTF-8"?>
<!--Generator: Apple Native CoreSVG 326-->
<!DOCTYPE svg
PUBLIC "-//W3C//DTD SVG 1.1//EN"
       "http://www.w3.org/Graphics/SVG/1.1/DTD/svg11.dtd">
<svg version="1.1" xmlns="http://www.w3.org/2000/svg" xmlns:xlink="http://www.w3.org/1999/xlink" viewBox="0 0 26.3867 25.1973">
 <g>
  <rect height="25.1973" opacity="0" width="26.3867" x="0" y="0"/>
  <path d="M26.0312 4.26562L26.0312 20.959C26.0312 23.7754 24.5957 25.1973 21.7383 25.1973L4.29297 25.1973C1.43555 25.1973 0 23.7891 0 20.959L0 4.26562C0 1.43555 1.43555 0.0273438 4.29297 0.0273438L21.7383 0.0273438C24.5957 0.0273438 26.0312 1.44922 26.0312 4.26562ZM12.4414 13.9316C11.9766 13.9316 11.6484 14.2598 11.6484 14.7383L11.6484 18.8535C11.6484 19.332 11.9629 19.6465 12.4414 19.6465L13.5762 19.6465C14.0547 19.6465 14.3691 19.3457 14.3691 18.8535L14.3691 14.7383C14.3691 14.2598 14.0547 13.9316 13.5762 13.9316ZM9.06445 6.89062L5.75586 10.1855C5.41406 10.5273 5.41406 10.9785 5.74219 11.3203L6.5625 12.127C6.89062 12.4688 7.3418 12.4688 7.68359 12.127L10.9922 8.83203C11.334 8.47656 11.334 8.03906 10.9922 7.69727L10.1855 6.87695C9.84375 6.54883 9.41992 6.54883 9.06445 6.89062ZM15.8457 6.87695L15.0391 7.69727C14.6973 8.03906 14.6973 8.47656 15.0391 8.83203L18.3477 12.127C18.6895 12.4688 19.127 12.4688 19.4688 12.127L20.2891 11.3066C20.6172 10.9785 20.6172 10.541 20.2617 10.1855L16.9668 6.89062C16.625 6.54883 16.1875 6.54883 15.8457 6.87695Z" fill="black" fill-opacity="0.85"/>
 </g>
</svg>
