<?xml version="1.0" encoding="UTF-8"?>
<!--Generator: Apple Native CoreSVG 326-->
<!DOCTYPE svg
PUBLIC "-//W3C//DTD SVG 1.1//EN"
       "http://www.w3.org/Graphics/SVG/1.1/DTD/svg11.dtd">
<svg version="1.1" xmlns="http://www.w3.org/2000/svg" xmlns:xlink="http://www.w3.org/1999/xlink" viewBox="0 0 28.2461 27.9043">
 <g>
  <rect height="27.9043" opacity="0" width="28.2461" x="0" y="0"/>
  <path d="M13.9453 27.8906C21.6426 27.8906 27.8906 21.6426 27.8906 13.9453C27.8906 6.24805 21.6426 0 13.9453 0C6.24805 0 0 6.24805 0 13.9453C0 21.6426 6.24805 27.8906 13.9453 27.8906ZM13.9453 25.5664C7.51953 25.5664 2.32422 20.3711 2.32422 13.9453C2.32422 7.51953 7.51953 2.32422 13.9453 2.32422C20.3711 2.32422 25.5664 7.51953 25.5664 13.9453C25.5664 20.3711 20.3711 25.5664 13.9453 25.5664Z" fill="black" fill-opacity="0.85"/>
  <path d="M8.36719 16.5293C9.80273 16.5293 10.9512 15.3672 10.9512 13.9453C10.9512 12.5234 9.80273 11.3613 8.36719 11.3613C6.94531 11.3613 5.79688 12.5234 5.79688 13.9453C5.79688 15.3672 6.94531 16.5293 8.36719 16.5293ZM19.5234 16.5293C20.9453 16.5293 22.0938 15.3672 22.0938 13.9453C22.0938 12.5234 20.9453 11.3613 19.5234 11.3613C18.0879 11.3613 16.9395 12.5234 16.9395 13.9453C16.9395 15.3672 18.0879 16.5293 19.5234 16.5293ZM12.3184 19.0312C11.8945 19.0312 11.6758 19.2363 11.6758 19.6602L11.6758 20.6582C11.6758 21.9297 12.6602 22.9277 13.9453 22.9277C15.2168 22.9277 16.2148 21.916 16.2148 20.6582L16.2148 19.6602C16.2148 19.2363 15.9961 19.0312 15.5723 19.0312Z" fill="black" fill-opacity="0.85"/>
 </g>
</svg>
