<?xml version="1.0" encoding="UTF-8"?>
<!--Generator: Apple Native CoreSVG 326-->
<!DOCTYPE svg
PUBLIC "-//W3C//DTD SVG 1.1//EN"
       "http://www.w3.org/Graphics/SVG/1.1/DTD/svg11.dtd">
<svg version="1.1" xmlns="http://www.w3.org/2000/svg" xmlns:xlink="http://www.w3.org/1999/xlink" viewBox="0 0 26.3867 25.1973">
 <g>
  <rect height="25.1973" opacity="0" width="26.3867" x="0" y="0"/>
  <path d="M4.29297 25.1973L21.7383 25.1973C24.5957 25.1973 26.0312 23.7754 26.0312 20.959L26.0312 4.26562C26.0312 1.44922 24.5957 0.0273438 21.7383 0.0273438L4.29297 0.0273438C1.43555 0.0273438 0 1.43555 0 4.26562L0 20.959C0 23.7891 1.43555 25.1973 4.29297 25.1973ZM4.32031 22.9961C2.95312 22.9961 2.20117 22.2715 2.20117 20.8496L2.20117 4.375C2.20117 2.95312 2.95312 2.22852 4.32031 2.22852L21.6973 2.22852C23.0508 2.22852 23.8301 2.95312 23.8301 4.375L23.8301 20.8496C23.8301 22.2715 23.0508 22.9961 21.6973 22.9961Z" fill="black" fill-opacity="0.85"/>
  <path d="M13.0156 10.9375C14.4238 10.9375 15.5586 9.80273 15.5586 8.39453C15.5586 6.98633 14.4238 5.85156 13.0156 5.85156C11.6074 5.85156 10.4727 6.98633 10.4727 8.39453C10.4727 9.80273 11.6074 10.9375 13.0156 10.9375ZM8.33984 19.3457C9.46094 19.3457 10.377 18.4297 10.377 17.2812C10.377 16.1602 9.46094 15.2441 8.33984 15.2441C7.19141 15.2441 6.27539 16.1602 6.27539 17.2812C6.27539 18.4297 7.19141 19.3457 8.33984 19.3457ZM17.7051 19.3457C18.8262 19.3457 19.7559 18.4297 19.7559 17.2812C19.7559 16.1602 18.8262 15.2441 17.7051 15.2441C16.5703 15.2441 15.6543 16.1602 15.6543 17.2812C15.6543 18.4297 16.5703 19.3457 17.7051 19.3457Z" fill="black" fill-opacity="0.85"/>
 </g>
</svg>
