<?xml version="1.0" encoding="UTF-8"?>
<!--Generator: Apple Native CoreSVG 326-->
<!DOCTYPE svg
PUBLIC "-//W3C//DTD SVG 1.1//EN"
       "http://www.w3.org/Graphics/SVG/1.1/DTD/svg11.dtd">
<svg version="1.1" xmlns="http://www.w3.org/2000/svg" xmlns:xlink="http://www.w3.org/1999/xlink" viewBox="0 0 29.6543 23.5293">
 <g>
  <rect height="23.5293" opacity="0" width="29.6543" x="0" y="0"/>
  <path d="M7.24609 23.502L22.0391 23.502C23.0371 23.502 23.9668 23.1602 24.6504 22.5039C27.5762 19.7285 29.2988 15.709 29.2988 11.7578C29.2988 7.80664 27.5762 3.78711 24.6504 1.01172C23.9668 0.355469 23.0371 0 22.0391 0L7.24609 0C6.20703 0 5.22266 0.396484 4.51172 1.12109C1.69531 3.88281 0 7.86133 0 11.7578C0 15.709 1.72266 19.7285 4.64844 22.5039C5.33203 23.1602 6.24805 23.502 7.24609 23.502ZM7.24609 21.3691C6.78125 21.3691 6.43945 21.2461 6.16602 20.9727C3.69141 18.6348 2.20117 15.2031 2.20117 11.8262C2.20117 8.44922 3.70508 4.97656 6.19336 2.65234C6.4668 2.39258 6.79492 2.26953 7.24609 2.26953L22.0391 2.26953C22.5039 2.26953 22.8594 2.40625 23.1328 2.67969C25.5938 5.01758 27.0977 8.44922 27.0977 11.8262C27.0977 15.2031 25.5938 18.6348 23.1328 20.9727C22.8594 21.2461 22.5039 21.3691 22.0391 21.3691Z" fill="black" fill-opacity="0.85"/>
  <path d="M8.94141 17.2812C9.61133 17.2812 10.1582 16.7754 10.1582 16.0918L10.1582 7.57422C10.1582 6.89062 9.61133 6.34375 8.94141 6.34375C8.25781 6.34375 7.75195 6.89062 7.75195 7.57422L7.75195 16.0918C7.75195 16.7754 8.25781 17.2812 8.94141 17.2812ZM20.3438 17.2812C21.0273 17.2812 21.5469 16.7617 21.5469 16.0781L21.5469 7.57422C21.5469 6.89062 21.0273 6.34375 20.3438 6.34375C19.6602 6.34375 19.1406 6.89062 19.1406 7.57422L19.1406 16.0781C19.1406 16.748 19.6602 17.2812 20.3438 17.2812Z" fill="black" fill-opacity="0.85"/>
 </g>
</svg>
