<?xml version="1.0" encoding="UTF-8"?>
<!--Generator: Apple Native CoreSVG 326-->
<!DOCTYPE svg
PUBLIC "-//W3C//DTD SVG 1.1//EN"
       "http://www.w3.org/Graphics/SVG/1.1/DTD/svg11.dtd">
<svg version="1.1" xmlns="http://www.w3.org/2000/svg" xmlns:xlink="http://www.w3.org/1999/xlink" viewBox="0 0 26.3867 25.1973">
 <g>
  <rect height="25.1973" opacity="0" width="26.3867" x="0" y="0"/>
  <path d="M4.29297 25.1973L21.7383 25.1973C24.5957 25.1973 26.0312 23.7754 26.0312 20.959L26.0312 4.26562C26.0312 1.44922 24.5957 0.0273438 21.7383 0.0273438L4.29297 0.0273438C1.43555 0.0273438 0 1.43555 0 4.26562L0 20.959C0 23.7891 1.43555 25.1973 4.29297 25.1973ZM4.32031 22.9961C2.95312 22.9961 2.20117 22.2715 2.20117 20.8496L2.20117 4.375C2.20117 2.95312 2.95312 2.22852 4.32031 2.22852L21.6973 2.22852C23.0508 2.22852 23.8301 2.95312 23.8301 4.375L23.8301 20.8496C23.8301 22.2715 23.0508 22.9961 21.6973 22.9961Z" fill="black" fill-opacity="0.85"/>
  <path d="M8.33984 19.0996C9.46094 19.0996 10.377 18.1699 10.377 17.0352C10.377 15.9141 9.46094 14.9844 8.33984 14.9844C7.19141 14.9844 6.27539 15.9141 6.27539 17.0352C6.27539 18.1699 7.19141 19.0996 8.33984 19.0996ZM17.7051 19.0996C18.8262 19.0996 19.7559 18.1699 19.7559 17.0352C19.7559 15.9141 18.8262 14.9844 17.7051 14.9844C16.5703 14.9844 15.6543 15.9141 15.6543 17.0352C15.6543 18.1699 16.5703 19.0996 17.7051 19.0996ZM13.0156 10.1855C14.1367 10.1855 15.0664 9.26953 15.0664 8.12109C15.0664 7 14.1367 6.08398 13.0156 6.08398C11.8809 6.08398 10.9512 7 10.9512 8.12109C10.9512 9.26953 11.8809 10.1855 13.0156 10.1855Z" fill="black" fill-opacity="0.85"/>
 </g>
</svg>
