<?xml version="1.0" encoding="UTF-8"?>
<!--Generator: Apple Native CoreSVG 326-->
<!DOCTYPE svg
PUBLIC "-//W3C//DTD SVG 1.1//EN"
       "http://www.w3.org/Graphics/SVG/1.1/DTD/svg11.dtd">
<svg version="1.1" xmlns="http://www.w3.org/2000/svg" xmlns:xlink="http://www.w3.org/1999/xlink" viewBox="0 0 28.0832 24.1582">
 <g>
  <rect height="24.1582" opacity="0" width="28.0832" x="0" y="0"/>
  <path d="M21.985 23.7344C22.4772 24.2129 23.1744 24.2129 23.6529 23.7344C26.1549 21.2051 27.7272 17.7324 27.7272 13.9453C27.7272 6.33008 21.4107 0 13.7955 0C7.05528 0 1.35411 4.96289 0.164654 11.3887C-0.0130803 12.1406 0.465435 12.7559 1.1627 12.8105C1.79161 12.8652 2.29747 12.4551 2.43419 11.8262C3.39122 6.41211 8.08067 2.32422 13.7955 2.32422C20.2486 2.32422 25.3893 7.50586 25.3893 13.9453C25.3893 17.0898 24.1451 19.9336 22.149 22.0391C21.6432 22.5859 21.5201 23.2832 21.985 23.7344ZM3.95176 23.7344C4.41661 24.2129 5.11387 24.2129 5.61973 23.7344C6.08458 23.2832 5.96153 22.5859 5.442 22.0391C3.80137 20.3164 2.68028 18.0879 2.32481 15.5859C2.24278 14.957 1.77794 14.5195 1.14903 14.5195C0.438092 14.5332-0.0951116 15.1211 0.0142634 15.9004C0.438092 18.9082 1.87364 21.6562 3.95176 23.7344Z" fill="black" fill-opacity="0.85"/>
  <path d="M12.4557 15.6953C13.3443 16.584 14.6432 16.584 15.5318 15.6953C16.4342 14.793 16.4342 13.5078 15.5318 12.6055C15.3678 12.4414 15.0123 12.1816 14.7936 12.0312L8.1627 7.42383C7.83458 7.19141 7.50645 7.25977 7.30137 7.45117C7.10997 7.66992 7.04161 7.98438 7.27403 8.3125L11.8678 14.9434C12.0318 15.1621 12.2916 15.5176 12.4557 15.6953Z" fill="black" fill-opacity="0.85"/>
 </g>
</svg>
