<?xml version="1.0" encoding="UTF-8"?>
<!--Generator: Apple Native CoreSVG 326-->
<!DOCTYPE svg
PUBLIC "-//W3C//DTD SVG 1.1//EN"
       "http://www.w3.org/Graphics/SVG/1.1/DTD/svg11.dtd">
<svg version="1.1" xmlns="http://www.w3.org/2000/svg" xmlns:xlink="http://www.w3.org/1999/xlink" viewBox="0 0 25.5254 25.1699">
 <g>
  <rect height="25.1699" opacity="0" width="25.5254" x="0" y="0"/>
  <path d="M4.29297 25.1699L20.877 25.1699C23.748 25.1699 25.1699 23.7617 25.1699 20.9453L25.1699 4.23828C25.1699 1.42188 23.748 0 20.877 0L4.29297 0C1.43555 0 0 1.42188 0 4.23828L0 20.9453C0 23.7617 1.43555 25.1699 4.29297 25.1699ZM4.32031 22.9688C2.95312 22.9688 2.20117 22.2441 2.20117 20.8223L2.20117 4.36133C2.20117 2.93945 2.95312 2.20117 4.32031 2.20117L20.8496 2.20117C22.2031 2.20117 22.9688 2.93945 22.9688 4.36133L22.9688 20.8223C22.9688 22.2441 22.2031 22.9688 20.8496 22.9688Z" fill="black" fill-opacity="0.85"/>
  <path d="M8.25781 18.8398L16.9121 18.8398C17.3086 18.8398 17.6914 18.7168 17.9785 18.4297C19.4961 17.0078 20.5352 14.8477 20.5352 12.5918C20.5352 10.3359 19.4961 8.17578 17.9785 6.76758C17.6914 6.48047 17.3086 6.35742 16.9121 6.35742L8.25781 6.35742C7.86133 6.35742 7.49219 6.4668 7.20508 6.72656C5.6875 8.14844 4.63477 10.3223 4.63477 12.5918C4.63477 14.8477 5.67383 17.0078 7.19141 18.4297C7.47852 18.7168 7.86133 18.8398 8.25781 18.8398ZM9.25586 15.7773C8.83203 15.7773 8.49023 15.4355 8.49023 14.998L8.49023 10.1719C8.49023 9.73438 8.83203 9.40625 9.25586 9.40625C9.69336 9.40625 10.0352 9.73438 10.0352 10.1719L10.0352 14.998C10.0352 15.4355 9.69336 15.7773 9.25586 15.7773ZM15.9141 15.7773C15.4766 15.7773 15.1484 15.4355 15.1484 14.998L15.1484 10.1719C15.1484 9.73438 15.4766 9.40625 15.9141 9.40625C16.3516 9.40625 16.6797 9.73438 16.6797 10.1719L16.6797 14.998C16.6797 15.4355 16.3516 15.7773 15.9141 15.7773Z" fill="black" fill-opacity="0.85"/>
 </g>
</svg>
