<?xml version="1.0" encoding="UTF-8"?>
<!--Generator: Apple Native CoreSVG 326-->
<!DOCTYPE svg
PUBLIC "-//W3C//DTD SVG 1.1//EN"
       "http://www.w3.org/Graphics/SVG/1.1/DTD/svg11.dtd">
<svg version="1.1" xmlns="http://www.w3.org/2000/svg" xmlns:xlink="http://www.w3.org/1999/xlink" viewBox="0 0 25.5254 25.1699">
 <g>
  <rect height="25.1699" opacity="0" width="25.5254" x="0" y="0"/>
  <path d="M4.29297 25.1699L20.877 25.1699C23.748 25.1699 25.1699 23.7617 25.1699 20.9453L25.1699 4.23828C25.1699 1.42188 23.748 0 20.877 0L4.29297 0C1.43555 0 0 1.42188 0 4.23828L0 20.9453C0 23.7617 1.43555 25.1699 4.29297 25.1699Z" fill="black" fill-opacity="0.85"/>
  <path d="M7.20508 19.209C6.43945 19.209 5.87891 18.6484 5.87891 17.8828L5.87891 7.30078C5.87891 6.53516 6.43945 5.97461 7.20508 5.97461L18.0469 5.97461C18.8125 5.97461 19.373 6.53516 19.373 7.30078L19.373 17.8828C19.373 18.6484 18.8125 19.209 18.0469 19.209ZM12.291 11.5664L12.9336 11.5664C13.2754 11.5664 13.5352 11.3477 13.5352 10.9922L13.5352 8.68164C13.5352 8.33984 13.2754 8.10742 12.9336 8.10742L12.291 8.10742C11.9492 8.10742 11.7168 8.33984 11.7168 8.68164L11.7168 10.9922C11.7168 11.3477 11.9492 11.5664 12.291 11.5664ZM8.53125 16.9531L10.7324 16.9531C11.0605 16.9531 11.293 16.7207 11.293 16.3789L11.293 15.7227C11.293 15.3809 11.0605 15.1348 10.7324 15.1348L8.53125 15.1348C8.17578 15.1348 7.94336 15.3809 7.94336 15.7227L7.94336 16.3789C7.94336 16.7207 8.17578 16.9531 8.53125 16.9531ZM14.5469 16.9531L16.7207 16.9531C17.0762 16.9531 17.3086 16.7207 17.3086 16.3789L17.3086 15.7227C17.3086 15.3809 17.0762 15.1348 16.7207 15.1348L14.5469 15.1348C14.1914 15.1348 13.959 15.3809 13.959 15.7227L13.959 16.3789C13.959 16.7207 14.1914 16.9531 14.5469 16.9531Z" fill="white"/>
 </g>
</svg>
