<?xml version="1.0" encoding="UTF-8"?>
<!--Generator: Apple Native CoreSVG 326-->
<!DOCTYPE svg
PUBLIC "-//W3C//DTD SVG 1.1//EN"
       "http://www.w3.org/Graphics/SVG/1.1/DTD/svg11.dtd">
<svg version="1.1" xmlns="http://www.w3.org/2000/svg" xmlns:xlink="http://www.w3.org/1999/xlink" viewBox="0 0 33.6328 23.3926">
 <g>
  <rect height="23.3926" opacity="0" width="33.6328" x="0" y="0"/>
  <path d="M23.5566 15.1621L26.7695 15.1621C27.4258 15.1621 27.8496 14.7383 27.8496 14.0957L27.8496 1.05273C27.8496 0.423828 27.4258 0 26.7695 0L23.5566 0C21.3965 0 19.4141 0.888672 17.9512 2.70703C17.377 3.39062 17.2266 3.5 16.4473 3.5L13.3574 3.5C12.0449 3.5 11.1152 4.34766 11.1152 5.57812L11.1152 9.58398C11.1152 10.8008 12.0449 11.6621 13.3574 11.6621L16.4473 11.6621C17.2266 11.6621 17.377 11.7715 17.9512 12.4277C19.4277 14.2598 21.4102 15.1621 23.5566 15.1621ZM23.5566 13.0977C21.9297 13.0977 20.6992 12.5234 19.5645 11.1562C18.6484 10.0352 17.8418 9.59766 16.4473 9.59766L13.7676 9.59766C13.4121 9.59766 13.1797 9.37891 13.1797 9.03711L13.1797 6.04297C13.1797 5.74219 13.3574 5.56445 13.6855 5.56445L16.4473 5.56445C17.8418 5.56445 18.6484 5.14062 19.5645 3.99219C20.6992 2.625 21.916 2.06445 23.5566 2.06445L25.293 2.06445C25.6074 2.06445 25.7852 2.22852 25.7852 2.51562L25.7852 12.6191C25.7852 12.9199 25.6074 13.0977 25.293 13.0977ZM27.4395 6.00195L31.9785 6.00195C32.7031 6.00195 33.2773 5.44141 33.2773 4.70312C33.2773 3.97852 32.7031 3.4043 31.9785 3.4043L27.4395 3.4043ZM27.4395 11.7578L31.9785 11.7578C32.7031 11.7578 33.2773 11.1699 33.2773 10.459C33.2773 9.7207 32.7031 9.14648 31.9785 9.14648L27.4395 9.14648ZM0 23.3789L11.293 23.3789C14.4922 23.3789 16.5566 21.3965 16.5566 18.6211C16.5566 15.832 14.4922 13.8223 11.293 13.8223L5.11328 13.8223C3.28125 13.8223 2.20117 12.7422 2.20117 11.2246C2.20117 9.7207 3.30859 8.66797 5.11328 8.66797L12.1406 8.66797L12.1406 6.4668L5.26367 6.4668C2.05078 6.4668 0 8.44922 0 11.2246C0 14.0137 2.05078 16.0234 5.26367 16.0234L11.4434 16.0234C13.2754 16.0234 14.3555 17.1035 14.3555 18.6211C14.3555 20.125 13.248 21.1777 11.4434 21.1777L0 21.1777Z" fill="black" fill-opacity="0.85"/>
 </g>
</svg>
