<?xml version="1.0" encoding="UTF-8"?>
<!--Generator: Apple Native CoreSVG 326-->
<!DOCTYPE svg
PUBLIC "-//W3C//DTD SVG 1.1//EN"
       "http://www.w3.org/Graphics/SVG/1.1/DTD/svg11.dtd">
<svg version="1.1" xmlns="http://www.w3.org/2000/svg" xmlns:xlink="http://www.w3.org/1999/xlink" viewBox="0 0 25.5254 25.1699">
 <g>
  <rect height="25.1699" opacity="0" width="25.5254" x="0" y="0"/>
  <path d="M4.29297 25.1699L20.877 25.1699C23.748 25.1699 25.1699 23.7617 25.1699 20.9453L25.1699 4.23828C25.1699 1.42188 23.748 0 20.877 0L4.29297 0C1.43555 0 0 1.42188 0 4.23828L0 20.9453C0 23.7617 1.43555 25.1699 4.29297 25.1699ZM4.32031 22.9688C2.95312 22.9688 2.20117 22.2441 2.20117 20.8223L2.20117 4.36133C2.20117 2.93945 2.95312 2.20117 4.32031 2.20117L20.8496 2.20117C22.2031 2.20117 22.9688 2.93945 22.9688 4.36133L22.9688 20.8223C22.9688 22.2441 22.2031 22.9688 20.8496 22.9688Z" fill="black" fill-opacity="0.85"/>
  <path d="M7.36914 19.0039L17.8828 19.0039C18.6211 19.0039 19.168 18.457 19.168 17.7188L19.168 7.46484C19.168 6.72656 18.6211 6.17969 17.8828 6.17969L7.36914 6.17969C6.63086 6.17969 6.08398 6.72656 6.08398 7.46484L6.08398 17.7188C6.08398 18.457 6.63086 19.0039 7.36914 19.0039ZM8.10742 11.9082C7.875 11.6758 7.875 11.4023 8.10742 11.1699L10.0625 9.22852C10.2949 8.98242 10.582 8.98242 10.8008 9.21484L11.2793 9.69336C11.5391 9.92578 11.5254 10.2266 11.2793 10.459L9.33789 12.3867C9.0918 12.6465 8.80469 12.6465 8.59961 12.3867ZM16.6523 12.3867C16.4473 12.6465 16.1465 12.6328 15.9141 12.3867L13.959 10.459C13.7129 10.2266 13.7129 9.92578 13.959 9.69336L14.4512 9.20117C14.6699 8.96875 14.9707 8.98242 15.1895 9.21484L17.1445 11.1699C17.377 11.4023 17.377 11.6758 17.1445 11.9082ZM12.2773 17.0078C11.9766 17.0078 11.7441 16.8027 11.7441 16.502L11.7441 14.0684C11.7441 13.7539 11.9766 13.5215 12.2773 13.5215L12.9609 13.5215C13.2617 13.5215 13.5078 13.7539 13.5078 14.0684L13.5078 16.502C13.5078 16.8164 13.2754 17.0078 12.9609 17.0078Z" fill="black" fill-opacity="0.85"/>
 </g>
</svg>
