<?xml version="1.0" encoding="UTF-8"?>
<!--Generator: Apple Native CoreSVG 326-->
<!DOCTYPE svg
PUBLIC "-//W3C//DTD SVG 1.1//EN"
       "http://www.w3.org/Graphics/SVG/1.1/DTD/svg11.dtd">
<svg version="1.1" xmlns="http://www.w3.org/2000/svg" xmlns:xlink="http://www.w3.org/1999/xlink" viewBox="0 0 31.4453 29.1074">
 <g>
  <rect height="29.1074" opacity="0" width="31.4453" x="0" y="0"/>
  <path d="M15.5449 29.0801C22.1074 29.0801 28.1641 24.7871 28.1641 20.084L28.1641 18.7852L29.3535 18.7852C30.3926 18.7852 31.0898 18.0879 31.0898 17.0625L31.0898 12.0312C31.0898 10.9922 30.3926 10.2949 29.3535 10.2949L28.1641 10.2949L28.1641 9.00977C28.1641 4.30664 22.1074 0 15.5449 0C8.98242 0 2.92578 4.30664 2.92578 9.00977L2.92578 10.2949L1.73633 10.2949C0.697266 10.2949 0 10.9922 0 12.0312L0 17.0625C0 18.0879 0.697266 18.7852 1.73633 18.7852L2.92578 18.7852L2.92578 20.084C2.92578 24.7871 8.98242 29.0801 15.5449 29.0801ZM15.5449 26.8789C10.1035 26.8789 5.12695 23.4336 5.12695 20.084L5.12695 9.00977C5.12695 5.66016 10.1035 2.20117 15.5449 2.20117C20.9863 2.20117 25.9629 5.66016 25.9629 9.00977L25.9629 20.084C25.9629 23.4336 20.9863 26.8789 15.5449 26.8789Z" fill="black" fill-opacity="0.85"/>
  <path d="M9.20117 17.1309C10.6367 17.1309 11.7852 15.9688 11.7852 14.5469C11.7852 13.125 10.6367 11.9629 9.20117 11.9629C7.7793 11.9629 6.63086 13.125 6.63086 14.5469C6.63086 15.9688 7.7793 17.1309 9.20117 17.1309ZM21.875 17.1309C23.3105 17.1309 24.459 15.9688 24.459 14.5469C24.459 13.125 23.3105 11.9629 21.875 11.9629C20.4531 11.9629 19.3047 13.125 19.3047 14.5469C19.3047 15.9688 20.4531 17.1309 21.875 17.1309Z" fill="black" fill-opacity="0.85"/>
 </g>
</svg>
