<?xml version="1.0" encoding="UTF-8"?>
<!--Generator: Apple Native CoreSVG 326-->
<!DOCTYPE svg
PUBLIC "-//W3C//DTD SVG 1.1//EN"
       "http://www.w3.org/Graphics/SVG/1.1/DTD/svg11.dtd">
<svg version="1.1" xmlns="http://www.w3.org/2000/svg" xmlns:xlink="http://www.w3.org/1999/xlink" viewBox="0 0 31.2402 29.9004">
 <g>
  <rect height="29.9004" opacity="0" width="31.2402" x="0" y="0"/>
  <path d="M25.4707 4.30664L25.4707 5.03125L23.3516 5.03125L23.3516 4.15625C23.3516 3.00781 22.7773 2.44727 21.6289 2.44727L9.25586 2.44727C8.12109 2.44727 7.5332 3.00781 7.5332 4.15625L7.5332 5.03125L5.41406 5.03125L5.41406 4.30664C5.41406 1.64062 6.87695 0.451172 9.2832 0.451172L21.6016 0.451172C24.1445 0.451172 25.4707 1.64062 25.4707 4.30664Z" fill="black" fill-opacity="0.85"/>
  <path d="M30.8848 9.03711L30.8848 21.834C30.8848 24.5 29.4766 25.8398 26.8242 25.8398L25.375 25.8398L25.375 23.7754L26.8516 23.7754C28.0547 23.7754 28.6836 23.1465 28.6836 21.9434L28.6836 8.92773C28.6836 7.72461 28.0547 7.0957 26.8516 7.0957L4.04688 7.0957C2.83008 7.0957 2.21484 7.72461 2.21484 8.92773L2.21484 21.9434C2.21484 23.1465 2.83008 23.7754 4.04688 23.7754L5.50977 23.7754L5.50977 25.8398L4.07422 25.8398C1.4082 25.8398 0 24.5 0 21.834L0 9.03711C0 6.38477 1.54492 5.03125 4.07422 5.03125L26.8242 5.03125C29.4766 5.03125 30.8848 6.38477 30.8848 9.03711ZM25.4844 10.3359C25.4844 11.2793 24.7051 12.0449 23.7891 12.0449C22.8457 12.0449 22.0801 11.2793 22.0801 10.3359C22.0801 9.41992 22.8457 8.64062 23.7891 8.64062C24.7051 8.64062 25.4844 9.41992 25.4844 10.3359Z" fill="black" fill-opacity="0.85"/>
  <path d="M8.12109 29.9004L22.7637 29.9004C24.5 29.9004 25.375 29.1074 25.375 27.2891L25.375 16.1328C25.375 14.3145 24.5 13.5215 22.7637 13.5215L8.12109 13.5215C6.4668 13.5215 5.50977 14.3145 5.50977 16.1328L5.50977 27.2891C5.50977 29.1074 6.38477 29.9004 8.12109 29.9004ZM8.80469 27.8359C8.08008 27.8359 7.71094 27.4805 7.71094 26.7422L7.71094 16.666C7.71094 15.9277 8.08008 15.5859 8.80469 15.5859L22.0938 15.5859C22.832 15.5859 23.1738 15.9277 23.1738 16.666L23.1738 26.7422C23.1738 27.4805 22.832 27.8359 22.0938 27.8359ZM11.0742 19.168C11.7578 19.168 12.3184 18.6348 12.3184 17.9375C12.3184 17.2539 11.7578 16.7207 11.0742 16.7207C10.4043 16.7207 9.84375 17.2539 9.84375 17.9375C9.84375 18.6348 10.4043 19.168 11.0742 19.168ZM11.0742 22.9277C11.7578 22.9277 12.3184 22.3945 12.3184 21.7109C12.3184 21.0273 11.7578 20.4805 11.0742 20.4805C10.4043 20.4805 9.84375 21.0273 9.84375 21.7109C9.84375 22.3945 10.4043 22.9277 11.0742 22.9277ZM11.0742 26.7012C11.7578 26.7012 12.3184 26.168 12.3184 25.4707C12.3184 24.7871 11.7578 24.2539 11.0742 24.2539C10.4043 24.2539 9.84375 24.7871 9.84375 25.4707C9.84375 26.168 10.4043 26.7012 11.0742 26.7012ZM19.8242 19.168C20.5078 19.168 21.0547 18.6348 21.0547 17.9375C21.0547 17.2539 20.5078 16.7207 19.8242 16.7207C19.1406 16.7207 18.5938 17.2539 18.5938 17.9375C18.5938 18.6348 19.1406 19.168 19.8242 19.168ZM19.8242 22.9277C20.5078 22.9277 21.0547 22.3945 21.0547 21.7109C21.0547 21.0273 20.5078 20.4805 19.8242 20.4805C19.1406 20.4805 18.5938 21.0273 18.5938 21.7109C18.5938 22.3945 19.1406 22.9277 19.8242 22.9277ZM19.8242 26.7012C20.5078 26.7012 21.0547 26.168 21.0547 25.4707C21.0547 24.7871 20.5078 24.2539 19.8242 24.2539C19.1406 24.2539 18.5938 24.7871 18.5938 25.4707C18.5938 26.168 19.1406 26.7012 19.8242 26.7012Z" fill="black" fill-opacity="0.85"/>
 </g>
</svg>
