<?xml version="1.0" encoding="UTF-8"?>
<!--Generator: Apple Native CoreSVG 326-->
<!DOCTYPE svg
PUBLIC "-//W3C//DTD SVG 1.1//EN"
       "http://www.w3.org/Graphics/SVG/1.1/DTD/svg11.dtd">
<svg version="1.1" xmlns="http://www.w3.org/2000/svg" xmlns:xlink="http://www.w3.org/1999/xlink" viewBox="0 0 34.8086 33.6191">
 <g>
  <rect height="33.6191" opacity="0" width="34.8086" x="0" y="0"/>
  <path d="M27.1797 5.25L27.1797 5.50977L7.27344 5.50977L7.27344 5.25C7.27344 3.22656 8.95508 2.31055 11.0742 2.31055L23.3926 2.31055C25.6211 2.31055 27.1797 3.22656 27.1797 5.25Z" fill="black" fill-opacity="0.85"/>
  <path d="M32.5801 11.3887L32.5801 22.5176C32.5801 25.1836 31.1719 26.5234 28.5195 26.5234L28.0957 26.5234L28.0957 18.9355C28.0957 17.1309 26.7422 15.7773 24.9375 15.7773L9.51562 15.7773C7.72461 15.7773 6.35742 17.1309 6.35742 18.9355L6.35742 26.5234L5.93359 26.5234C3.28125 26.5234 1.87305 25.1836 1.87305 22.5176L1.87305 11.3887C1.87305 8.72266 3.41797 7.36914 5.93359 7.36914L28.5195 7.36914C31.1719 7.36914 32.5801 8.72266 32.5801 11.3887ZM23.8848 11.8945C23.8848 12.8652 24.6777 13.6445 25.6484 13.6445C26.5918 13.6445 27.3984 12.8516 27.3984 11.8945C27.3984 10.9375 26.5918 10.1309 25.6484 10.1309C24.6777 10.1309 23.8848 10.9375 23.8848 11.8945Z" fill="black" fill-opacity="0.85"/>
  <path d="M8.23047 29.9141C8.23047 31.0215 8.96875 31.7598 10.0625 31.7598L24.3906 31.7598C25.498 31.7598 26.2363 31.0215 26.2363 29.9141L26.2363 18.9355C26.2363 18.1562 25.7168 17.6504 24.9375 17.6504L9.51562 17.6504C8.75 17.6504 8.23047 18.1562 8.23047 18.9355ZM12.9746 29.6953C12.3047 29.6953 11.7441 29.1621 11.7441 28.4648C11.7441 27.7812 12.3047 27.248 12.9746 27.248C13.6582 27.248 14.2188 27.7812 14.2188 28.4648C14.2188 29.1621 13.6582 29.6953 12.9746 29.6953ZM12.9746 25.9219C12.3047 25.9219 11.7441 25.3887 11.7441 24.7051C11.7441 24.0078 12.3047 23.4746 12.9746 23.4746C13.6582 23.4746 14.2188 24.0078 14.2188 24.7051C14.2188 25.3887 13.6582 25.9219 12.9746 25.9219ZM12.9746 22.1621C12.3047 22.1621 11.7441 21.6289 11.7441 20.9316C11.7441 20.248 12.3047 19.7148 12.9746 19.7148C13.6582 19.7148 14.2188 20.248 14.2188 20.9316C14.2188 21.6289 13.6582 22.1621 12.9746 22.1621ZM21.4922 29.6953C20.8223 29.6953 20.2617 29.1621 20.2617 28.4648C20.2617 27.7812 20.8223 27.248 21.4922 27.248C22.1758 27.248 22.7363 27.7812 22.7363 28.4648C22.7363 29.1621 22.1758 29.6953 21.4922 29.6953ZM21.4922 25.9219C20.8223 25.9219 20.2617 25.3887 20.2617 24.7051C20.2617 24.0078 20.8223 23.4746 21.4922 23.4746C22.1758 23.4746 22.7363 24.0078 22.7363 24.7051C22.7363 25.3887 22.1758 25.9219 21.4922 25.9219ZM21.4922 22.1621C20.8223 22.1621 20.2617 21.6289 20.2617 20.9316C20.2617 20.248 20.8223 19.7148 21.4922 19.7148C22.1758 19.7148 22.7363 20.248 22.7363 20.9316C22.7363 21.6289 22.1758 22.1621 21.4922 22.1621Z" fill="black" fill-opacity="0.85"/>
 </g>
</svg>
