<?xml version="1.0" encoding="UTF-8"?>
<!--Generator: Apple Native CoreSVG 326-->
<!DOCTYPE svg
PUBLIC "-//W3C//DTD SVG 1.1//EN"
       "http://www.w3.org/Graphics/SVG/1.1/DTD/svg11.dtd">
<svg version="1.1" xmlns="http://www.w3.org/2000/svg" xmlns:xlink="http://www.w3.org/1999/xlink" viewBox="0 0 20.1797 26.0449">
 <g>
  <rect height="26.0449" opacity="0" width="20.1797" x="0" y="0"/>
  <path d="M0 20.0703C0 20.3984 0.150391 20.6992 0.369141 20.918L4.83984 25.375C5.27734 25.8262 5.75586 26.0312 6.24805 26.0312C6.72656 26.0312 7.19141 25.8125 7.62891 25.375L12.1133 20.9043C12.3457 20.6719 12.4824 20.3711 12.4824 20.0566C12.4824 19.4414 11.9902 18.9766 11.4434 18.9766C11.0332 18.9766 10.7734 19.127 10.541 19.3457L9.36523 20.5215L7.27344 22.9141L7.41016 18.498L7.41016 8.12109C7.41016 4.66211 9.32422 2.33789 12.4961 2.33789C15.4629 2.33789 17.5273 4.40234 17.5273 7.50586C17.5273 10.5 15.5039 12.6055 12.7148 12.6055C11.7441 12.6055 11.498 12.4004 11.0195 12.4004C10.4316 12.4004 9.95312 12.7969 9.95312 13.4121C9.95312 13.8223 10.1582 14.1367 10.459 14.3691C10.9785 14.7793 11.8535 14.9297 12.6465 14.9297C16.9941 14.9297 19.8242 11.8945 19.8242 7.50586C19.8242 2.99414 16.8438 0 12.4961 0C8.06641 0 5.05859 2.95312 5.05859 8.2168L5.05859 18.5117L5.19531 22.9141L3.10352 20.5352L1.92773 19.3594C1.70898 19.1406 1.44922 18.9902 1.03906 18.9902C0.478516 18.9902 0 19.4551 0 20.0703Z" fill="black" fill-opacity="0.85"/>
 </g>
</svg>
