<?xml version="1.0" encoding="UTF-8"?>
<!--Generator: Apple Native CoreSVG 326-->
<!DOCTYPE svg
PUBLIC "-//W3C//DTD SVG 1.1//EN"
       "http://www.w3.org/Graphics/SVG/1.1/DTD/svg11.dtd">
<svg version="1.1" xmlns="http://www.w3.org/2000/svg" xmlns:xlink="http://www.w3.org/1999/xlink" viewBox="0 0 28.2461 27.9043">
 <g>
  <rect height="27.9043" opacity="0" width="28.2461" x="0" y="0"/>
  <path d="M13.9453 27.8906C21.6426 27.8906 27.8906 21.6426 27.8906 13.9453C27.8906 6.24805 21.6426 0 13.9453 0C6.24805 0 0 6.24805 0 13.9453C0 21.6426 6.24805 27.8906 13.9453 27.8906ZM13.9453 25.5664C7.51953 25.5664 2.32422 20.3711 2.32422 13.9453C2.32422 7.51953 7.51953 2.32422 13.9453 2.32422C20.3711 2.32422 25.5664 7.51953 25.5664 13.9453C25.5664 20.3711 20.3711 25.5664 13.9453 25.5664Z" fill="black" fill-opacity="0.85"/>
  <path d="M7.94336 17.7324C7.94336 17.9375 8.05273 18.1699 8.2168 18.3477L10.8555 20.9727C11.1699 21.2598 11.4844 21.4102 11.7852 21.4102C12.0996 21.4102 12.4141 21.2734 12.7148 20.9727L15.3672 18.334C15.5449 18.1426 15.6406 17.9375 15.6406 17.7324C15.6406 17.2812 15.2852 16.9258 14.8477 16.9258C14.5742 16.9258 14.3828 17.0078 14.1914 17.1992L13.5215 17.8965L12.5781 18.9629L12.6465 16.8027L12.6465 11.252C12.6465 9.1875 13.6445 8.03906 15.4766 8.03906C17.1582 8.03906 18.293 9.20117 18.2793 10.9238C18.2656 12.6055 17.1719 13.7676 15.5996 13.7676C15.2168 13.7676 15.0254 13.6719 14.7793 13.6719C14.3418 13.6719 14.0137 13.9863 14.0137 14.3965C14.0137 14.6426 14.1094 14.8477 14.2598 14.998C14.5332 15.2715 15.0254 15.4082 15.5449 15.4082C18.1973 15.4082 19.9473 13.6172 19.9473 10.9238C19.9473 8.18945 18.1289 6.33008 15.4766 6.33008C12.7012 6.33008 10.9238 8.18945 10.9238 11.1152L10.9238 16.8164L10.9922 18.9629L10.0625 17.9102L9.37891 17.2129C9.1875 17.0078 8.96875 16.9258 8.72266 16.9258C8.28516 16.9258 7.94336 17.2812 7.94336 17.7324Z" fill="black" fill-opacity="0.85"/>
 </g>
</svg>
