<?xml version="1.0" encoding="UTF-8"?>
<!--Generator: Apple Native CoreSVG 326-->
<!DOCTYPE svg
PUBLIC "-//W3C//DTD SVG 1.1//EN"
       "http://www.w3.org/Graphics/SVG/1.1/DTD/svg11.dtd">
<svg version="1.1" xmlns="http://www.w3.org/2000/svg" xmlns:xlink="http://www.w3.org/1999/xlink" viewBox="0 0 40.6055 26.4824">
 <g>
  <rect height="26.4824" opacity="0" width="40.6055" x="0" y="0"/>
  <path d="M12.4824 26.4277L17.0215 26.4277C18.1562 26.4277 18.8809 25.6758 18.8809 24.7324C18.8809 24.2129 18.6621 23.6797 18.1699 23.1465C17.5684 22.4902 17.1992 21.7246 17.1992 20.9316C17.1992 19.3457 18.334 18.0469 20.125 18.0469C21.916 18.0469 23.0508 19.3457 23.0508 20.9316C23.0508 21.7246 22.668 22.4902 22.0664 23.1465C21.5879 23.6797 21.3691 24.2129 21.3691 24.7324C21.3691 25.6758 22.0938 26.4277 23.2285 26.4277L27.7539 26.4277C30.502 26.4277 31.9375 25.0195 31.9375 22.3125L31.9375 17.4863C31.9375 17.2676 32.0879 17.1582 32.334 17.3359C33.209 17.9512 34.207 18.3887 35.3418 18.3887C37.9258 18.3887 40.25 16.3105 40.25 13.2617C40.25 10.2266 37.9258 8.14844 35.3418 8.14844C34.207 8.14844 33.209 8.58594 32.334 9.20117C32.0879 9.37891 31.9375 9.26953 31.9375 9.05078L31.9375 4.11523C31.9375 1.4082 30.502 0 27.7539 0L23.2285 0C22.0938 0 21.3691 0.751953 21.3691 1.69531C21.3691 2.21484 21.5879 2.74805 22.0664 3.28125C22.668 3.95117 23.0508 4.70312 23.0508 5.50977C23.0508 7.06836 21.8887 8.38086 20.125 8.38086C18.3613 8.38086 17.1992 7.06836 17.1992 5.50977C17.1992 4.70312 17.5684 3.95117 18.1699 3.28125C18.6621 2.74805 18.8809 2.21484 18.8809 1.69531C18.8809 0.751953 18.1562 0 17.0215 0L12.4824 0C9.74805 0 8.3125 1.4082 8.3125 4.11523L8.3125 9.05078C8.3125 9.26953 8.16211 9.37891 7.91602 9.20117C7.04102 8.58594 6.04297 8.14844 4.89453 8.14844C2.32422 8.14844 0 10.2266 0 13.2617C0 16.3105 2.32422 18.3887 4.89453 18.3887C6.04297 18.3887 7.04102 17.9512 7.91602 17.3359C8.16211 17.1582 8.3125 17.2676 8.3125 17.4863L8.3125 22.3125C8.3125 25.0195 9.74805 26.4277 12.4824 26.4277ZM12.5234 24.2266C11.2656 24.2266 10.5137 23.5156 10.5137 22.2031L10.5137 16.3789C10.5137 15.2305 9.76172 14.5059 8.81836 14.5059C8.29883 14.5059 7.76562 14.7246 7.23242 15.2168C6.5625 15.8184 5.81055 16.2012 5.00391 16.2012C3.44531 16.2012 2.13281 15.0391 2.13281 13.2617C2.13281 11.498 3.44531 10.3359 5.00391 10.3359C5.81055 10.3359 6.5625 10.7188 7.23242 11.3203C7.76562 11.8125 8.29883 12.0312 8.81836 12.0312C9.76172 12.0312 10.5137 11.3066 10.5137 10.1582L10.5137 4.22461C10.5137 2.92578 11.2656 2.20117 12.5234 2.20117L15.668 2.20117C16.3105 2.20117 16.1055 2.5293 15.9414 2.78906C15.4082 3.62305 15.0117 4.53906 15.0117 5.61914C15.0117 8.18945 17.0762 10.5137 20.125 10.5137C23.1738 10.5137 25.2383 8.18945 25.2383 5.61914C25.2383 4.53906 24.8418 3.62305 24.3086 2.78906C24.1445 2.5293 23.9395 2.20117 24.582 2.20117L27.7266 2.20117C28.9844 2.20117 29.7363 2.92578 29.7363 4.22461L29.7363 10.1582C29.7363 11.3066 30.4883 12.0312 31.4316 12.0312C31.9512 12.0312 32.4844 11.8125 33.0176 11.3203C33.6738 10.7188 34.4395 10.3359 35.2324 10.3359C36.8047 10.3359 38.1172 11.498 38.1172 13.2617C38.1172 15.0391 36.8047 16.2012 35.2324 16.2012C34.4395 16.2012 33.6738 15.8184 33.0176 15.2168C32.4844 14.7246 31.9512 14.5059 31.4316 14.5059C30.4883 14.5059 29.7363 15.2305 29.7363 16.3789L29.7363 22.2031C29.7363 23.5156 28.9844 24.2266 27.7266 24.2266L24.582 24.2266C23.9395 24.2266 24.1445 23.8984 24.3086 23.6387C24.8418 22.8047 25.2383 21.8887 25.2383 20.8223C25.2383 18.2109 23.2012 15.9141 20.125 15.9141C17.0488 15.9141 15.0117 18.2109 15.0117 20.8223C15.0117 21.8887 15.4082 22.8047 15.9414 23.6387C16.1055 23.8984 16.3105 24.2266 15.668 24.2266Z" fill="black" fill-opacity="0.85"/>
 </g>
</svg>
