<?xml version="1.0" encoding="UTF-8"?>
<!--Generator: Apple Native CoreSVG 326-->
<!DOCTYPE svg
PUBLIC "-//W3C//DTD SVG 1.1//EN"
       "http://www.w3.org/Graphics/SVG/1.1/DTD/svg11.dtd">
<svg version="1.1" xmlns="http://www.w3.org/2000/svg" xmlns:xlink="http://www.w3.org/1999/xlink" viewBox="0 0 28.4362 31.7632">
 <g>
  <rect height="31.7632" opacity="0" width="28.4362" x="0" y="0"/>
  <path d="M0.341145 23.5857C-0.287761 24.6795-0.0553394 25.8963 1.10677 26.4021L13.1243 31.5701C13.7259 31.8299 14.3275 31.8299 14.9701 31.5564L26.974 26.4021C28.1361 25.8963 28.3685 24.6795 27.7396 23.5857L15.3255 1.9158C14.9427 1.24588 14.4779 1.12284 14.0404 1.12284C13.5892 1.12284 13.1243 1.24588 12.7415 1.9158ZM2.55599 23.9959L13.7806 4.51346C13.849 4.40409 13.931 4.3494 14.0404 4.3494C14.1497 4.3494 14.2318 4.39041 14.2865 4.51346L25.5247 23.9959C25.7298 24.365 25.6068 24.6658 25.2786 24.8162L14.5326 29.6697C14.1497 29.8474 13.931 29.8474 13.5755 29.6971L2.78841 24.8162C2.47396 24.6658 2.35091 24.365 2.55599 23.9959ZM13.0013 30.7224L15.0658 30.7224L15.0658 3.20096L13.0013 3.20096Z" fill="black" fill-opacity="0.85"/>
 </g>
</svg>
