<?xml version="1.0" encoding="UTF-8"?>
<!--Generator: Apple Native CoreSVG 326-->
<!DOCTYPE svg
PUBLIC "-//W3C//DTD SVG 1.1//EN"
       "http://www.w3.org/Graphics/SVG/1.1/DTD/svg11.dtd">
<svg version="1.1" xmlns="http://www.w3.org/2000/svg" xmlns:xlink="http://www.w3.org/1999/xlink" viewBox="0 0 28.2461 27.9043">
 <g>
  <rect height="27.9043" opacity="0" width="28.2461" x="0" y="0"/>
  <path d="M13.9453 27.8906C21.6426 27.8906 27.8906 21.6426 27.8906 13.9453C27.8906 6.24805 21.6426 0 13.9453 0C6.24805 0 0 6.24805 0 13.9453C0 21.6426 6.24805 27.8906 13.9453 27.8906ZM13.9453 25.5664C7.51953 25.5664 2.32422 20.3711 2.32422 13.9453C2.32422 7.51953 7.51953 2.32422 13.9453 2.32422C20.3711 2.32422 25.5664 7.51953 25.5664 13.9453C25.5664 20.3711 20.3711 25.5664 13.9453 25.5664Z" fill="black" fill-opacity="0.85"/>
  <path d="M13.9316 20.3574C14.7246 20.3574 15.4629 20.2207 16.1191 19.9609L17.0762 21.2461C17.3359 21.6152 17.5957 21.7383 17.9375 21.7383C18.416 21.7383 18.7441 21.4102 18.7441 20.9316C18.7441 20.6855 18.6758 20.5215 18.416 20.1797L17.5957 19.0859C19.0039 17.9512 19.8516 16.0918 19.8516 13.8223C19.8516 9.9668 17.4316 7.27344 13.9316 7.27344C10.4316 7.27344 8.01172 9.9668 8.01172 13.8223C8.01172 17.6641 10.4316 20.3574 13.9316 20.3574ZM13.9316 18.6348C11.6758 18.6348 10.1992 16.7344 10.1992 13.8223C10.1992 10.8965 11.6758 8.99609 13.9316 8.99609C16.1875 8.99609 17.6777 10.8965 17.6777 13.8223C17.6777 15.4082 17.2266 16.707 16.4336 17.5273L15.6543 16.4746C15.4355 16.1875 15.2305 16.0918 14.916 16.0918C14.4648 16.0918 14.0957 16.4336 14.0957 16.8711C14.0957 17.1035 14.1641 17.2949 14.3555 17.5547L15.0254 18.4707C14.6973 18.5801 14.3281 18.6348 13.9316 18.6348Z" fill="black" fill-opacity="0.85"/>
 </g>
</svg>
