<?xml version="1.0" encoding="UTF-8"?>
<!--Generator: Apple Native CoreSVG 326-->
<!DOCTYPE svg
PUBLIC "-//W3C//DTD SVG 1.1//EN"
       "http://www.w3.org/Graphics/SVG/1.1/DTD/svg11.dtd">
<svg version="1.1" xmlns="http://www.w3.org/2000/svg" xmlns:xlink="http://www.w3.org/1999/xlink" viewBox="0 0 25.5254 25.1699">
 <g>
  <rect height="25.1699" opacity="0" width="25.5254" x="0" y="0"/>
  <path d="M4.29297 25.1699L20.877 25.1699C23.748 25.1699 25.1699 23.7617 25.1699 20.9453L25.1699 4.23828C25.1699 1.42188 23.748 0 20.877 0L4.29297 0C1.43555 0 0 1.42188 0 4.23828L0 20.9453C0 23.7617 1.43555 25.1699 4.29297 25.1699ZM4.32031 22.9688C2.95312 22.9688 2.20117 22.2441 2.20117 20.8223L2.20117 4.36133C2.20117 2.93945 2.95312 2.20117 4.32031 2.20117L20.8496 2.20117C22.2031 2.20117 22.9688 2.93945 22.9688 4.36133L22.9688 20.8223C22.9688 22.2441 22.2031 22.9688 20.8496 22.9688Z" fill="#ff9500"/>
  <path d="M12.3184 15.4082C13.0156 15.4082 13.4258 14.9707 13.4258 14.4375C13.4258 14.3828 13.4258 14.3145 13.4258 14.2734C13.4258 13.5078 13.877 13.0156 14.8203 12.3867C16.1465 11.5117 17.0898 10.7188 17.0898 9.07812C17.0898 6.80859 15.0664 5.57812 12.7422 5.57812C10.4043 5.57812 8.85938 6.69922 8.47656 7.95703C8.4082 8.17578 8.36719 8.39453 8.36719 8.62695C8.36719 9.24219 8.8457 9.57031 9.29688 9.57031C9.77539 9.57031 10.0625 9.35156 10.3086 9.02344L10.5547 8.69531C11.0332 7.90234 11.7578 7.4375 12.6602 7.4375C13.9043 7.4375 14.7109 8.14844 14.7109 9.1875C14.7109 10.1172 14.1367 10.5684 12.9473 11.4023C11.9629 12.0859 11.2246 12.8105 11.2246 14.1504C11.2246 14.2051 11.2246 14.2734 11.2246 14.3281C11.2246 15.0391 11.6211 15.4082 12.3184 15.4082ZM12.291 19.4824C13.084 19.4824 13.7676 18.8535 13.7676 18.0605C13.7676 17.2676 13.0977 16.6387 12.291 16.6387C11.4844 16.6387 10.8145 17.2812 10.8145 18.0605C10.8145 18.8398 11.498 19.4824 12.291 19.4824Z" fill="#ff9500"/>
 </g>
</svg>
