<?xml version="1.0" encoding="UTF-8"?>
<!--Generator: Apple Native CoreSVG 326-->
<!DOCTYPE svg
PUBLIC "-//W3C//DTD SVG 1.1//EN"
       "http://www.w3.org/Graphics/SVG/1.1/DTD/svg11.dtd">
<svg version="1.1" xmlns="http://www.w3.org/2000/svg" xmlns:xlink="http://www.w3.org/1999/xlink" viewBox="0 0 30.4883 30.0371">
 <g>
  <rect height="30.0371" opacity="0" width="30.4883" x="0" y="0"/>
  <path d="M8.4082 30.0371C9.07812 30.0371 9.54297 29.6816 10.377 28.9434L15.0938 24.7461L23.8711 24.7461C27.9453 24.7461 30.1328 22.4902 30.1328 18.4844L30.1328 8.01172C30.1328 4.00586 27.9453 1.75 23.8711 1.75L6.26172 1.75C2.1875 1.75 0 3.99219 0 8.01172L0 18.4844C0 22.5039 2.1875 24.7461 6.26172 24.7461L6.91797 24.7461L6.91797 28.3008C6.91797 29.3535 7.45117 30.0371 8.4082 30.0371ZM8.96875 27.5352L8.96875 23.5703C8.96875 22.832 8.68164 22.5449 7.94336 22.5449L6.26172 22.5449C3.5 22.5449 2.20117 21.1367 2.20117 18.4707L2.20117 8.01172C2.20117 5.3457 3.5 3.95117 6.26172 3.95117L23.8711 3.95117C26.6191 3.95117 27.9316 5.3457 27.9316 8.01172L27.9316 18.4707C27.9316 21.1367 26.6191 22.5449 23.8711 22.5449L15.0117 22.5449C14.2461 22.5449 13.8633 22.6543 13.3438 23.1875Z" fill="black" fill-opacity="0.85"/>
  <path d="M14.8066 16.0781C15.4902 16.0781 15.9004 15.6406 15.9004 15.1074C15.9004 15.0527 15.9004 14.9844 15.9004 14.9434C15.9004 14.1777 16.3516 13.6855 17.3086 13.0566C18.6348 12.1816 19.5781 11.3887 19.5781 9.74805C19.5781 7.47852 17.5547 6.26172 15.2305 6.26172C12.8789 6.26172 11.334 7.36914 10.9512 8.62695C10.8828 8.8457 10.8418 9.06445 10.8418 9.29688C10.8418 9.91211 11.3203 10.2402 11.7852 10.2402C12.25 10.2402 12.5371 10.0215 12.7832 9.69336L13.0293 9.36523C13.5078 8.57227 14.2324 8.10742 15.1348 8.10742C16.3926 8.10742 17.1992 8.81836 17.1992 9.85742C17.1992 10.7871 16.625 11.2383 15.4219 12.0723C14.4512 12.7559 13.7129 13.4805 13.7129 14.8203C13.7129 14.875 13.7129 14.9434 13.7129 14.998C13.7129 15.709 14.0957 16.0781 14.8066 16.0781ZM14.7656 20.1523C15.5586 20.1523 16.2422 19.5371 16.2422 18.7305C16.2422 17.9375 15.5723 17.3223 14.7656 17.3223C13.9727 17.3223 13.3027 17.9512 13.3027 18.7305C13.3027 19.5234 13.9863 20.1523 14.7656 20.1523Z" fill="black" fill-opacity="0.85"/>
 </g>
</svg>
