<?xml version="1.0" encoding="UTF-8"?>
<!--Generator: Apple Native CoreSVG 326-->
<!DOCTYPE svg
PUBLIC "-//W3C//DTD SVG 1.1//EN"
       "http://www.w3.org/Graphics/SVG/1.1/DTD/svg11.dtd">
<svg version="1.1" xmlns="http://www.w3.org/2000/svg" xmlns:xlink="http://www.w3.org/1999/xlink" viewBox="0 0 15.2168 26.1816">
 <g>
  <rect height="26.1816" opacity="0" width="15.2168" x="0" y="0"/>
  <path d="M6.76758 18.7031C7.72461 18.7031 8.16211 18.0469 8.16211 17.1719C8.16211 17.0215 8.16211 16.8574 8.16211 16.707C8.18945 14.9023 8.83203 14.1504 11.0195 12.6465C13.3711 11.0605 14.8613 9.22852 14.8613 6.58984C14.8613 2.48828 11.5254 0.136719 7.36914 0.136719C4.2793 0.136719 1.57227 1.59961 0.410156 4.23828C0.123047 4.88086 0 5.50977 0 6.0293C0 6.80859 0.451172 7.35547 1.28516 7.35547C1.98242 7.35547 2.44727 6.94531 2.65234 6.27539C3.34961 3.67773 5.07227 2.69336 7.27344 2.69336C9.93945 2.69336 12.0312 4.19727 12.0312 6.57617C12.0312 8.53125 10.8145 9.625 9.06445 10.8555C6.91797 12.3457 5.3457 13.9453 5.3457 16.3516C5.3457 16.6387 5.3457 16.9258 5.3457 17.2129C5.3457 18.0879 5.82422 18.7031 6.76758 18.7031ZM6.76758 26.1816C7.86133 26.1816 8.72266 25.3066 8.72266 24.2402C8.72266 23.1602 7.86133 22.2988 6.76758 22.2988C5.70117 22.2988 4.82617 23.1602 4.82617 24.2402C4.82617 25.3066 5.70117 26.1816 6.76758 26.1816Z" fill="#ff9500"/>
 </g>
</svg>
