<?xml version="1.0" encoding="UTF-8"?>
<!--Generator: Apple Native CoreSVG 326-->
<!DOCTYPE svg
PUBLIC "-//W3C//DTD SVG 1.1//EN"
       "http://www.w3.org/Graphics/SVG/1.1/DTD/svg11.dtd">
<svg version="1.1" xmlns="http://www.w3.org/2000/svg" xmlns:xlink="http://www.w3.org/1999/xlink" viewBox="0 0 35.7109 22.4902">
 <g>
  <rect height="22.4902" opacity="0" width="35.7109" x="0" y="0"/>
  <path d="M7.21875 22.4766L21.5059 22.4766C24.8418 22.4766 26.8379 20.5352 26.8379 17.1992L26.8379 5.26367C26.8379 1.94141 24.8418 0 21.5059 0L7.21875 0C4.0332 0 1.88672 1.94141 1.88672 5.26367L1.88672 17.1992C1.88672 20.5352 3.88281 22.4766 7.21875 22.4766ZM7.60156 20.4121C5.35938 20.4121 4.08789 19.25 4.08789 16.8848L4.08789 5.5918C4.08789 3.21289 5.35938 2.05078 7.60156 2.05078L21.123 2.05078C23.3516 2.05078 24.6367 3.21289 24.6367 5.5918L24.6367 16.8848C24.6367 19.25 23.3516 20.4121 21.123 20.4121ZM26.5234 7.41016L26.5234 10.0078L33.0312 4.63477C33.1543 4.53906 33.2363 4.4707 33.3594 4.4707C33.5234 4.4707 33.5918 4.60742 33.5918 4.79883L33.5918 17.6777C33.5918 17.8691 33.5234 17.9922 33.3594 17.9922C33.2363 17.9922 33.1543 17.9238 33.0312 17.8418L26.5234 12.4688L26.5234 15.0527L32.0059 19.7012C32.5527 20.1523 33.1543 20.4668 33.7148 20.4668C34.918 20.4668 35.7109 19.5781 35.7109 18.3066L35.7109 4.16992C35.7109 2.89844 34.918 2.00977 33.7148 2.00977C33.1543 2.00977 32.5527 2.32422 32.0059 2.77539Z" fill="black" fill-opacity="0.85"/>
  <path d="M14 13.877C14.6152 13.877 14.998 13.4941 14.998 12.9883C14.998 12.9473 14.998 12.8926 14.998 12.8379C14.998 12.1406 15.3945 11.7168 16.2695 11.1426C17.4727 10.3496 18.3203 9.625 18.3203 8.13477C18.3203 6.07031 16.4883 4.97656 14.3691 4.97656C12.2363 4.97656 10.8691 5.97461 10.5 7.10938C10.4316 7.31445 10.4043 7.51953 10.4043 7.73828C10.4043 8.28516 10.8418 8.58594 11.252 8.58594C11.9492 8.58594 12.0723 8.20312 12.4688 7.73828C12.8789 7.06836 13.4805 6.6582 14.3008 6.6582C15.4355 6.6582 16.1602 7.28711 16.1602 8.23047C16.1602 9.07812 15.6406 9.48828 14.5605 10.2402C13.6719 10.8691 13.002 11.5254 13.002 12.7285C13.002 12.7832 13.002 12.8516 13.002 12.8926C13.002 13.5488 13.3574 13.877 14 13.877ZM13.959 17.5684C14.6699 17.5684 15.2988 17.0078 15.2988 16.2832C15.2988 15.5723 14.6836 14.998 13.959 14.998C13.2344 14.998 12.6328 15.5723 12.6328 16.2832C12.6328 16.9941 13.248 17.5684 13.959 17.5684Z" fill="black" fill-opacity="0.85"/>
 </g>
</svg>
