<?xml version="1.0" encoding="UTF-8"?>
<!--Generator: Apple Native CoreSVG 326-->
<!DOCTYPE svg
PUBLIC "-//W3C//DTD SVG 1.1//EN"
       "http://www.w3.org/Graphics/SVG/1.1/DTD/svg11.dtd">
<svg version="1.1" xmlns="http://www.w3.org/2000/svg" xmlns:xlink="http://www.w3.org/1999/xlink" viewBox="0 0 30.4473 18.9629">
 <g>
  <rect height="18.9629" opacity="0" width="30.4473" x="0" y="0"/>
  <path d="M13.6719 12.3867C13.6719 8.75 10.9785 5.85156 7.50586 5.85156C5.87891 5.85156 4.33398 6.49414 3.19922 7.75195L2.83008 7.75195C3.62305 5.16797 6.0293 3.00781 9.02344 2.11914C9.44727 1.98242 9.76172 1.85938 9.95312 1.69531C10.1719 1.51758 10.2949 1.29883 10.2949 0.984375C10.2949 0.410156 9.85742 0.0136719 9.21484 0.0136719C8.79102 0.0136719 8.46289 0.0957031 7.875 0.287109C5.98828 0.902344 4.29297 1.98242 2.98047 3.36328C1.13477 5.27734 0 7.83398 0 10.8691C0 15.9961 3.25391 18.9629 7.06836 18.9629C10.8281 18.9629 13.6719 16.0918 13.6719 12.3867ZM30.0918 12.3867C30.0918 8.75 27.3848 5.85156 23.9258 5.85156C22.2988 5.85156 20.7402 6.49414 19.6191 7.75195L19.25 7.75195C20.043 5.16797 22.4492 3.00781 25.4297 2.11914C25.8535 1.98242 26.1816 1.85938 26.373 1.69531C26.5918 1.51758 26.7012 1.29883 26.7012 0.984375C26.7012 0.410156 26.2773 0.0136719 25.6348 0.0136719C25.1973 0.0136719 24.8828 0.0957031 24.2812 0.287109C22.4082 0.902344 20.6992 1.98242 19.3867 3.36328C17.5547 5.27734 16.4199 7.83398 16.4199 10.8691C16.4199 15.9961 19.6738 18.9629 23.4883 18.9629C27.248 18.9629 30.0918 16.0918 30.0918 12.3867Z" fill="black" fill-opacity="0.85"/>
 </g>
</svg>
