<?xml version="1.0" encoding="UTF-8"?>
<!--Generator: Apple Native CoreSVG 326-->
<!DOCTYPE svg
PUBLIC "-//W3C//DTD SVG 1.1//EN"
       "http://www.w3.org/Graphics/SVG/1.1/DTD/svg11.dtd">
<svg version="1.1" xmlns="http://www.w3.org/2000/svg" xmlns:xlink="http://www.w3.org/1999/xlink" viewBox="0 0 32.0605 35.3418">
 <g>
  <rect height="35.3418" opacity="0" width="32.0605" x="0" y="0"/>
  <path d="M15.8594 26.7012C17.7661 26.7012 19.5331 26.5223 21.1367 26.1843L21.1367 26.8652C21.1367 29.4902 19.168 31.0488 15.8594 31.0488C12.5371 31.0488 10.5684 29.4902 10.5684 26.8652L10.5684 26.1826C12.1754 26.5217 13.9471 26.7012 15.8594 26.7012Z" fill="black" fill-opacity="0.85"/>
  <path d="M29.8457 16.0234C29.8457 20.9043 24.5957 24.8418 15.8594 24.8418C7.10938 24.8418 1.87305 20.9043 1.87305 16.0234C1.87305 11.1562 7.10938 7.21875 15.832 7.21875C24.5957 7.21875 29.8457 11.1562 29.8457 16.0234ZM13.6172 11.6621C13.0977 11.6621 12.7695 12.0312 12.7695 12.6328L12.7695 19.291C12.7695 19.8652 13.0977 20.2344 13.6172 20.2344C14.1504 20.2344 14.4922 19.8652 14.4922 19.291L14.4922 17.1992L15.9277 17.1992L17.4727 19.7148C17.7051 20.1113 17.9375 20.2617 18.293 20.2617C18.7305 20.2617 19.0996 19.9473 19.0996 19.4961C19.0996 19.2637 19.0312 19.0859 18.9082 18.8945L17.6367 16.9121C18.6621 16.502 19.291 15.5586 19.291 14.4512C19.291 12.7559 18.0605 11.6621 16.1875 11.6621ZM17.582 14.4785C17.582 15.3535 17.0078 15.8594 15.9824 15.8594L14.4922 15.8594L14.4922 13.0566L16.0098 13.0566C16.9941 13.0566 17.582 13.6035 17.582 14.4785Z" fill="black" fill-opacity="0.85"/>
  <path d="M12.5234 1.66797L15.2441 5.33203C15.6133 5.83789 16.3105 5.83789 16.6797 5.33203L19.4277 1.66797C19.9746 0.943359 19.6875 0 18.7031 0L13.2207 0C12.291 0 11.9492 0.916016 12.5234 1.66797Z" fill="black" fill-opacity="0.85"/>
 </g>
</svg>
