<?xml version="1.0" encoding="UTF-8"?>
<!--Generator: Apple Native CoreSVG 326-->
<!DOCTYPE svg
PUBLIC "-//W3C//DTD SVG 1.1//EN"
       "http://www.w3.org/Graphics/SVG/1.1/DTD/svg11.dtd">
<svg version="1.1" xmlns="http://www.w3.org/2000/svg" xmlns:xlink="http://www.w3.org/1999/xlink" viewBox="0 0 41.1729 31.4863">
 <g>
  <rect height="31.4863" opacity="0" width="41.1729" x="0" y="0"/>
  <path d="M36.145 15.7363C36.145 24.418 29.0903 31.4453 20.4087 31.4453C13.5852 31.4453 7.76139 27.0904 5.60847 20.9939C6.39146 21.1804 7.18321 21.0417 7.81357 20.6437C9.75965 25.6932 14.6524 29.2441 20.4087 29.2441C27.9009 29.2441 33.9438 23.2285 33.9438 15.7363C33.9438 8.24414 27.9009 2.20117 20.4087 2.20117C14.6552 2.20117 9.75144 5.77782 7.80782 10.8456C7.17808 10.448 6.38663 10.3083 5.60022 10.498C7.74697 4.38264 13.5767 0 20.4087 0C29.0903 0 36.145 7.05469 36.145 15.7363Z" fill="black" fill-opacity="0.85"/>
  <path d="M5.53369 12.5508L2.25244 14.998C1.73291 15.3809 1.74658 16.0918 2.25244 16.4746L5.54736 18.9355C6.27197 19.4824 7.24268 19.1816 7.24268 18.2109L7.24268 13.2754C7.24268 12.332 6.28564 11.9902 5.53369 12.5508Z" fill="black" fill-opacity="0.85"/>
  <path d="M20.4087 26.6465C26.438 26.6465 31.3325 21.7656 31.3325 15.7363C31.3325 9.69336 26.438 4.8125 20.4087 4.8125C14.3794 4.8125 9.49854 9.69336 9.49854 15.7363C9.49854 21.7656 14.3794 26.6465 20.4087 26.6465ZM17.5103 21.1367C16.8267 21.1367 16.4438 20.6719 16.4438 19.9746L16.4438 11.3477C16.4438 10.6504 16.813 10.1445 17.4966 10.1445L20.8188 10.1445C23.2524 10.1445 24.8247 11.5664 24.8247 13.7266C24.8247 15.1484 23.9634 16.3926 22.6646 16.8984L24.2915 19.4414C24.4556 19.6875 24.5513 19.9336 24.5513 20.207C24.5513 20.7402 24.1138 21.1367 23.5122 21.1367C23.0474 21.1367 22.7329 20.9453 22.4321 20.4668L20.5181 17.2539L18.6313 17.2539L18.6313 19.9746C18.6313 20.6855 18.2075 21.1367 17.5103 21.1367ZM18.6313 15.5586L20.5591 15.5586C21.8989 15.5586 22.6646 14.957 22.6646 13.7676C22.6646 12.5645 21.8579 11.8809 20.6001 11.8809L18.6313 11.8809Z" fill="black" fill-opacity="0.85"/>
 </g>
</svg>
