<?xml version="1.0" encoding="UTF-8"?>
<!--Generator: Apple Native CoreSVG 326-->
<!DOCTYPE svg
PUBLIC "-//W3C//DTD SVG 1.1//EN"
       "http://www.w3.org/Graphics/SVG/1.1/DTD/svg11.dtd">
<svg version="1.1" xmlns="http://www.w3.org/2000/svg" xmlns:xlink="http://www.w3.org/1999/xlink" viewBox="0 0 41.1729 31.4863">
 <g>
  <rect height="31.4863" opacity="0" width="41.1729" x="0" y="0"/>
  <path d="M36.145 15.7363C36.145 24.418 29.0903 31.4453 20.4087 31.4453C13.5852 31.4453 7.76139 27.0904 5.60847 20.9939C6.39146 21.1804 7.18321 21.0417 7.81357 20.6437C9.75965 25.6932 14.6524 29.2441 20.4087 29.2441C27.9009 29.2441 33.9438 23.2285 33.9438 15.7363C33.9438 8.24414 27.9009 2.20117 20.4087 2.20117C14.6552 2.20117 9.75144 5.77782 7.80782 10.8456C7.17808 10.448 6.38663 10.3083 5.60022 10.498C7.74697 4.38264 13.5767 0 20.4087 0C29.0903 0 36.145 7.05469 36.145 15.7363Z" fill="black" fill-opacity="0.85"/>
  <path d="M5.53369 12.5508L2.25244 14.998C1.73291 15.3809 1.74658 16.0918 2.25244 16.4746L5.54736 18.9355C6.27197 19.4824 7.24268 19.1816 7.24268 18.2109L7.24268 13.2754C7.24268 12.332 6.28564 11.9902 5.53369 12.5508Z" fill="black" fill-opacity="0.85"/>
  <path d="M20.4087 26.6465C26.438 26.6465 31.3325 21.7656 31.3325 15.7363C31.3325 9.69336 26.438 4.8125 20.4087 4.8125C14.3794 4.8125 9.49854 9.69336 9.49854 15.7363C9.49854 21.7656 14.3794 26.6465 20.4087 26.6465ZM20.4087 24.4453C15.5825 24.4453 11.6997 20.5625 11.6997 15.7363C11.6997 10.8965 15.5825 7.01367 20.4087 7.01367C25.2485 7.01367 29.1313 10.8965 29.1313 15.7363C29.1313 20.5625 25.2485 24.4453 20.4087 24.4453ZM17.606 20.9727C18.2759 20.9727 18.686 20.5352 18.686 19.8516L18.686 17.1992L20.5181 17.1992L22.3911 20.3164C22.6782 20.7812 22.979 20.9727 23.4302 20.9727C24.0044 20.9727 24.4282 20.5898 24.4282 20.0703C24.4282 19.8105 24.3325 19.5781 24.1821 19.332L22.5962 16.8574C23.854 16.3652 24.688 15.1621 24.688 13.7812C24.688 11.6895 23.1704 10.3086 20.8188 10.3086L17.5923 10.3086C16.936 10.3086 16.5806 10.8008 16.5806 11.4707L16.5806 19.8516C16.5806 20.5215 16.9497 20.9727 17.606 20.9727ZM18.686 15.5586L18.686 11.9902L20.6001 11.9902C21.8306 11.9902 22.6099 12.6465 22.6099 13.8223C22.6099 14.9707 21.8579 15.5586 20.5591 15.5586Z" fill="black" fill-opacity="0.85"/>
 </g>
</svg>
