<?xml version="1.0" encoding="UTF-8"?>
<!--Generator: Apple Native CoreSVG 326-->
<!DOCTYPE svg
PUBLIC "-//W3C//DTD SVG 1.1//EN"
       "http://www.w3.org/Graphics/SVG/1.1/DTD/svg11.dtd">
<svg version="1.1" xmlns="http://www.w3.org/2000/svg" xmlns:xlink="http://www.w3.org/1999/xlink" viewBox="0 0 31.8008 40.8037">
 <g>
  <rect height="40.8037" opacity="0" width="31.8008" x="0" y="0"/>
  <path d="M31.4453 20.395C31.4453 27.2401 27.0597 33.0653 20.9478 35.2072C21.1398 34.4202 21.0029 33.6279 20.6062 32.9975C25.6676 31.057 29.2441 26.1589 29.2441 20.395C29.2441 12.9028 23.2012 6.85986 15.7227 6.85986C8.23047 6.85986 2.20117 12.9028 2.20117 20.395C2.20117 26.1513 5.76018 31.044 10.8133 32.9901C10.4131 33.621 10.2721 34.4127 10.4588 35.1935C4.3611 33.0393 0 27.2168 0 20.395C0 11.7134 7.04102 4.65869 15.7227 4.65869C24.3906 4.65869 31.4453 11.7134 31.4453 20.395Z" fill="black" fill-opacity="0.85"/>
  <path d="M13.248 33.561C12.2637 33.561 11.9766 34.5317 12.5098 35.2563L14.9844 38.5513C15.3672 39.0571 16.0645 39.0708 16.4609 38.5513L18.8945 35.27C19.4688 34.5181 19.127 33.561 18.1699 33.561Z" fill="black" fill-opacity="0.85"/>
  <path d="M15.7227 9.47119C9.69336 9.47119 4.8125 14.3657 4.8125 20.395C4.8125 26.438 9.69336 31.3052 15.7227 31.3052C21.752 31.3052 26.6328 26.438 26.6328 20.395C26.6328 14.3657 21.752 9.47119 15.7227 9.47119ZM12.8105 25.7954C12.127 25.7954 11.7441 25.3306 11.7441 24.6333L11.7441 16.0063C11.7441 15.3091 12.1133 14.8032 12.7969 14.8032L16.1191 14.8032C18.5527 14.8032 20.125 16.2251 20.125 18.3853C20.125 19.8071 19.2637 21.0513 17.9648 21.5571L19.5918 24.1001C19.7559 24.3462 19.8516 24.5923 19.8516 24.8657C19.8516 25.3989 19.4141 25.7954 18.8125 25.7954C18.3477 25.7954 18.0332 25.604 17.7324 25.1255L15.8184 21.9126L13.9316 21.9126L13.9316 24.6333C13.9316 25.3442 13.5078 25.7954 12.8105 25.7954ZM13.9316 20.2173L15.8594 20.2173C17.1992 20.2173 17.9648 19.6157 17.9648 18.4263C17.9648 17.2231 17.1582 16.5396 15.9004 16.5396L13.9316 16.5396Z" fill="black" fill-opacity="0.85"/>
 </g>
</svg>
