<?xml version="1.0" encoding="UTF-8"?>
<!--Generator: Apple Native CoreSVG 326-->
<!DOCTYPE svg
PUBLIC "-//W3C//DTD SVG 1.1//EN"
       "http://www.w3.org/Graphics/SVG/1.1/DTD/svg11.dtd">
<svg version="1.1" xmlns="http://www.w3.org/2000/svg" xmlns:xlink="http://www.w3.org/1999/xlink" viewBox="0 0 31.8008 40.8311">
 <g>
  <rect height="40.8311" opacity="0" width="31.8008" x="0" y="0"/>
  <path d="M31.4453 20.4087C31.4453 29.0903 24.3906 36.1313 15.7227 36.1313C7.04102 36.1313 0 29.0767 0 20.4087C0 13.5752 4.36231 7.74971 10.4613 5.59573C10.2714 6.37732 10.4093 7.17089 10.8079 7.80379C5.75766 9.75511 2.20117 14.6545 2.20117 20.4087C2.20117 27.9009 8.23047 33.9302 15.7227 33.9302C23.2012 33.9302 29.2441 27.9009 29.2441 20.4087C29.2441 14.6475 25.6709 9.74321 20.6133 7.79702C21.0105 7.16449 21.1468 6.37102 20.9518 5.58588C27.0616 7.73251 31.4453 13.5651 31.4453 20.4087Z" fill="black" fill-opacity="0.85"/>
  <path d="M13.248 7.229L18.1699 7.229C19.127 7.229 19.4688 6.28564 18.8945 5.53369L16.4609 2.25244C16.0645 1.73291 15.3672 1.73291 14.9844 2.25244L12.5098 5.54736C11.9766 6.27197 12.2637 7.229 13.248 7.229Z" fill="black" fill-opacity="0.85"/>
  <path d="M15.7227 31.3325C21.752 31.3325 26.6328 26.438 26.6328 20.4087C26.6328 14.3657 21.752 9.49854 15.7227 9.49854C9.69336 9.49854 4.8125 14.3657 4.8125 20.4087C4.8125 26.438 9.69336 31.3325 15.7227 31.3325ZM12.8105 25.8091C12.127 25.8091 11.7441 25.3442 11.7441 24.647L11.7441 16.02C11.7441 15.3228 12.1133 14.8169 12.7969 14.8169L16.1191 14.8169C18.5527 14.8169 20.125 16.2388 20.125 18.3989C20.125 19.8208 19.2637 21.0649 17.9648 21.5708L19.5918 24.1138C19.7559 24.3599 19.8516 24.606 19.8516 24.8794C19.8516 25.4126 19.4141 25.8091 18.8125 25.8091C18.3477 25.8091 18.0332 25.6177 17.7324 25.1392L15.8184 21.9263L13.9316 21.9263L13.9316 24.647C13.9316 25.3579 13.5078 25.8091 12.8105 25.8091ZM13.9316 20.231L15.8594 20.231C17.1992 20.231 17.9648 19.6294 17.9648 18.4399C17.9648 17.2368 17.1582 16.5532 15.9004 16.5532L13.9316 16.5532Z" fill="black" fill-opacity="0.85"/>
 </g>
</svg>
