<?xml version="1.0" encoding="UTF-8"?>
<!--Generator: Apple Native CoreSVG 326-->
<!DOCTYPE svg
PUBLIC "-//W3C//DTD SVG 1.1//EN"
       "http://www.w3.org/Graphics/SVG/1.1/DTD/svg11.dtd">
<svg version="1.1" xmlns="http://www.w3.org/2000/svg" xmlns:xlink="http://www.w3.org/1999/xlink" viewBox="0 0 25.5254 25.1699">
 <g>
  <rect height="25.1699" opacity="0" width="25.5254" x="0" y="0"/>
  <path d="M4.29297 25.1699L20.877 25.1699C23.748 25.1699 25.1699 23.7617 25.1699 20.9453L25.1699 4.23828C25.1699 1.42188 23.748 0 20.877 0L4.29297 0C1.43555 0 0 1.42188 0 4.23828L0 20.9453C0 23.7617 1.43555 25.1699 4.29297 25.1699Z" fill="black" fill-opacity="0.85"/>
  <path d="M8.96875 19.0449C8.25781 19.0449 7.86133 18.5254 7.86133 17.7734L7.86133 7.30078C7.86133 6.53516 8.24414 6.01562 8.95508 6.01562L13.0293 6.01562C15.8867 6.01562 17.6914 7.62891 17.6914 10.1719C17.6914 11.9219 16.625 13.3984 14.9707 13.9453L17.0898 17.2539C17.2539 17.541 17.3359 17.7598 17.3359 18.0742C17.3359 18.6484 16.9121 19.0449 16.3105 19.0449C15.8047 19.0449 15.5176 18.8398 15.1758 18.293L12.7422 14.2734L10.1172 14.2734L10.1172 17.7734C10.1172 18.5527 9.7207 19.0449 8.96875 19.0449ZM10.1172 12.6191L12.6875 12.6191C14.3828 12.6191 15.4629 11.7578 15.4629 10.2266C15.4629 8.6543 14.3555 7.75195 12.7422 7.75195L10.1172 7.75195Z" fill="white"/>
 </g>
</svg>
