<?xml version="1.0" encoding="UTF-8"?>
<!--Generator: Apple Native CoreSVG 326-->
<!DOCTYPE svg
PUBLIC "-//W3C//DTD SVG 1.1//EN"
       "http://www.w3.org/Graphics/SVG/1.1/DTD/svg11.dtd">
<svg version="1.1" xmlns="http://www.w3.org/2000/svg" xmlns:xlink="http://www.w3.org/1999/xlink" viewBox="0 0 28.2461 27.9043">
 <g>
  <rect height="27.9043" opacity="0" width="28.2461" x="0" y="0"/>
  <path d="M13.9453 27.8906C21.6426 27.8906 27.8906 21.6289 27.8906 13.9453C27.8906 6.24805 21.6426 0 13.9453 0C6.26172 0 0 6.24805 0 13.9453C0 21.6289 6.26172 27.8906 13.9453 27.8906Z" fill="black" fill-opacity="0.85"/>
  <path d="M8.73633 19.5508C8.09375 19.5508 7.72461 19.1406 7.72461 18.5117L7.72461 9.57031C7.72461 8.92773 8.08008 8.54492 8.72266 8.54492L10.9785 8.54492C13.0703 8.54492 14.3691 9.70703 14.3691 11.8945C14.3691 13.1113 13.9043 14.2734 12.8379 14.834L14.0957 17.8691C14.2461 18.1699 14.3145 18.4434 14.3145 18.5938C14.3145 19.2773 13.8359 19.5508 13.3984 19.5508C12.8516 19.5508 12.5371 19.25 12.373 18.7441L10.9648 15.2305L9.70703 15.2305L9.70703 18.5117C9.70703 19.1543 9.33789 19.5508 8.73633 19.5508ZM9.70703 13.7949L10.8145 13.7949C11.8945 13.7949 12.3867 13.002 12.3867 11.9492C12.3867 10.8691 11.8398 10.1172 10.8145 10.1172L9.70703 10.1172ZM18.9902 19.5098C18.4434 19.5098 18.0059 19.0723 18.0059 18.5117L18.0059 10.4043L16.7617 11.3887C16.6387 11.498 16.502 11.5527 16.2969 11.5527C15.8867 11.5527 15.5996 11.2656 15.5996 10.8418C15.5996 10.5 15.7773 10.2266 16.0234 10.0625L17.4863 8.90039C17.8145 8.66797 18.2656 8.35352 18.8398 8.35352C19.5371 8.35352 19.9609 8.76367 19.9609 9.46094L19.9609 18.5117C19.9609 19.0723 19.5234 19.5098 18.9902 19.5098Z" fill="white"/>
 </g>
</svg>
