<?xml version="1.0" encoding="UTF-8"?>
<!--Generator: Apple Native CoreSVG 326-->
<!DOCTYPE svg
PUBLIC "-//W3C//DTD SVG 1.1//EN"
       "http://www.w3.org/Graphics/SVG/1.1/DTD/svg11.dtd">
<svg version="1.1" xmlns="http://www.w3.org/2000/svg" xmlns:xlink="http://www.w3.org/1999/xlink" viewBox="0 0 24.6777 29.3809">
 <g>
  <rect height="29.3809" opacity="0" width="24.6777" x="0" y="0"/>
  <path d="M16.1738 29.3672C21.123 29.3672 24.3223 26.1816 24.3223 21.2324L24.3223 14.4922C24.3223 12.6191 23.7344 11.1152 22.5723 10.0488L13.9453 2.10547C12.25 0.560547 10.459 0 8.32617 0L4.10156 0C1.64062 0 0 1.66797 0 4.14258L0 25.2656C0 27.8359 1.55859 29.3672 4.14258 29.3672ZM16.1328 27.166L4.19727 27.166C2.76172 27.166 2.20117 26.6738 2.20117 25.2246L2.20117 4.16992C2.20117 2.99414 2.9668 2.20117 4.15625 2.20117L8.27148 2.20117C9.9668 2.20117 11.2109 2.61133 12.4277 3.71875L21.041 11.6348C21.793 12.3184 22.1211 13.1523 22.1211 14.5195L22.1211 21.1914C22.1211 25.0195 19.9473 27.166 16.1328 27.166Z" fill="black" fill-opacity="0.85"/>
  <path d="M6.2207 22.75C6.78125 22.75 7.12305 22.3672 7.12305 21.7793L7.12305 18.6895L8.32617 18.6895L9.63867 21.9844C9.81641 22.4629 10.0898 22.75 10.5957 22.75C11.0195 22.75 11.457 22.4902 11.457 21.8477C11.457 21.7109 11.3887 21.4512 11.2656 21.1641L10.0625 18.3066C11.0879 17.7734 11.5254 16.6797 11.5254 15.5449C11.5254 13.4941 10.2949 12.4004 8.33984 12.4004L6.19336 12.4004C5.60547 12.4004 5.27734 12.7559 5.27734 13.3574L5.27734 21.7793C5.27734 22.3535 5.60547 22.75 6.2207 22.75ZM7.12305 17.3359L7.12305 13.8496L8.16211 13.8496C9.13281 13.8496 9.65234 14.5742 9.65234 15.5859C9.65234 16.584 9.20117 17.3359 8.16211 17.3359ZM13.7402 22.5723L18.1152 22.5723C18.5527 22.5723 18.8262 22.2715 18.8262 21.834C18.8262 21.3555 18.5391 21.0957 18.1152 21.0957L15.1211 21.0957L15.1211 20.9863L16.9531 18.6621C18.2246 17.0898 18.6348 16.1738 18.6348 15.0527C18.6348 13.3574 17.4863 12.1133 15.7363 12.1133C14.123 12.1133 12.9062 13.4531 12.9062 14.7656C12.9062 15.2305 13.1797 15.5586 13.6582 15.5586C14.082 15.5586 14.3281 15.3672 14.4648 14.957C14.6973 14.1094 15.0117 13.5762 15.7363 13.5762C16.4883 13.5762 16.9121 14.2598 16.9121 15.1348C16.9121 16.1465 16.2148 17.1719 15.5449 18.0195L13.3574 20.8359C13.125 21.123 12.8926 21.4375 12.8926 21.834C12.8926 22.2578 13.166 22.5723 13.7402 22.5723Z" fill="black" fill-opacity="0.85"/>
 </g>
</svg>
