<?xml version="1.0" encoding="UTF-8"?>
<!--Generator: Apple Native CoreSVG 326-->
<!DOCTYPE svg
PUBLIC "-//W3C//DTD SVG 1.1//EN"
       "http://www.w3.org/Graphics/SVG/1.1/DTD/svg11.dtd">
<svg version="1.1" xmlns="http://www.w3.org/2000/svg" xmlns:xlink="http://www.w3.org/1999/xlink" viewBox="0 0 35.7383 24.6018">
 <g>
  <rect height="24.6018" opacity="0" width="35.7383" x="0" y="0"/>
  <path d="M0 13.8527C0 16.7785 0.478516 18.1183 2.65234 19.2394L10.3496 23.1906C13.1797 24.6535 15.2031 25.0226 18.375 24.0929L30.2148 20.6476C33.8652 19.5675 35.3828 17.3937 35.3828 13.8527L35.3828 5.32142C35.3828 2.84681 33.7422 1.16517 31.2812 1.16517L4.12891 1.1515C1.66797 1.1515 0 2.81947 0 5.2804ZM2.20117 13.8527L2.20117 5.32142C2.20117 4.13197 2.98047 3.35267 4.16992 3.35267L31.2539 3.36634C32.416 3.36634 33.1816 4.15931 33.1816 5.36243L33.1816 13.8527C33.1816 16.341 32.1562 17.8312 29.5859 18.5831L18.375 21.9054C15.5312 22.7531 13.877 22.507 11.5254 21.3175L4.04688 17.5031C2.58398 16.7648 2.20117 15.8761 2.20117 13.8527Z" fill="black" fill-opacity="0.85"/>
  <path d="M11.0059 17.216C11.6211 17.216 11.9902 16.8058 11.9902 16.1769L11.9902 12.8136L13.2891 12.8136L14.7246 16.3956C14.916 16.9152 15.2168 17.216 15.7637 17.216C16.2148 17.216 16.6934 16.9425 16.6934 16.2452C16.6934 16.0949 16.6113 15.8214 16.4883 15.507L15.1895 12.4035C16.2832 11.8292 16.7617 10.6398 16.7617 9.40931C16.7617 7.18079 15.4355 5.99134 13.3027 5.99134L10.9922 5.99134C10.3496 5.99134 9.98047 6.38783 9.98047 7.0304L9.98047 16.1769C9.98047 16.7921 10.3496 17.216 11.0059 17.216ZM11.9902 11.3507L11.9902 7.57728L13.125 7.57728C14.1777 7.57728 14.7383 8.35658 14.7383 9.45033C14.7383 10.5304 14.2461 11.3507 13.125 11.3507ZM21.6562 17.2706C23.6113 17.2706 25.1289 16.0402 25.1289 13.9894C25.1289 12.2941 24.1035 11.4601 22.9551 11.337L22.9551 11.296C24.1992 10.9679 24.8008 9.86048 24.8008 8.71204C24.8008 6.82533 23.3789 5.74525 21.6016 5.74525C20.1934 5.74525 18.9766 6.53822 18.5801 7.75501C18.498 8.01478 18.4707 8.26087 18.4707 8.49329C18.4707 8.94447 18.7715 9.29993 19.3184 9.29993C19.7832 9.29993 20.0566 9.1222 20.1797 8.64368C20.3984 7.83704 20.8359 7.33118 21.6016 7.33118C22.5039 7.33118 22.9414 8.02845 22.9414 8.93079C22.9414 9.92884 22.3809 10.6535 21.3555 10.6535L21.0273 10.6535C20.5625 10.6535 20.2754 10.9406 20.2754 11.3781C20.2754 11.8429 20.5762 12.1027 21.0273 12.1027L21.3691 12.1027C22.5312 12.1027 23.1738 12.7452 23.1738 13.9347C23.1738 14.8781 22.6816 15.6847 21.6562 15.6847C20.6582 15.6847 20.2207 15.0148 20.0566 14.3859C19.9199 13.9484 19.6328 13.716 19.1953 13.716C18.6484 13.716 18.293 14.0304 18.293 14.5773C18.293 14.8234 18.334 15.0695 18.4023 15.2882C18.7988 16.5597 20.1797 17.2706 21.6562 17.2706Z" fill="black" fill-opacity="0.85"/>
 </g>
</svg>
