<?xml version="1.0" encoding="UTF-8"?>
<!--Generator: Apple Native CoreSVG 326-->
<!DOCTYPE svg
PUBLIC "-//W3C//DTD SVG 1.1//EN"
       "http://www.w3.org/Graphics/SVG/1.1/DTD/svg11.dtd">
<svg version="1.1" xmlns="http://www.w3.org/2000/svg" xmlns:xlink="http://www.w3.org/1999/xlink" viewBox="0 0 40.3184 20.9043">
 <g>
  <rect height="20.9043" opacity="0" width="40.3184" x="0" y="0"/>
  <path d="M19.9746 0C8.91406 0 0 8.92773 0 19.9883C0 20.4941 0.396484 20.8906 0.888672 20.8906C1.39453 20.8906 1.79102 20.4941 1.79102 19.9883C1.79102 9.95312 9.92578 1.79102 19.9746 1.79102C30.0234 1.79102 38.1719 9.95312 38.1719 19.9883C38.1719 20.4941 38.5684 20.8906 39.0742 20.8906C39.5664 20.8906 39.9629 20.4941 39.9629 19.9883C39.9629 8.92773 31.0352 0 19.9746 0Z" fill="#ff3b30"/>
  <path d="M19.9746 2.99414C10.5684 2.99414 2.99414 10.582 2.99414 19.9883C2.99414 20.4941 3.37695 20.8906 3.86914 20.8906C4.375 20.8906 4.78516 20.4941 4.78516 19.9883C4.78516 11.6074 11.5801 4.78516 19.9746 4.78516C28.3691 4.78516 35.1914 11.6074 35.1914 19.9883C35.1914 20.4941 35.5742 20.8906 36.0801 20.8906C36.5723 20.8906 36.9824 20.4941 36.9824 19.9883C36.9824 10.582 29.3945 2.99414 19.9746 2.99414Z" fill="#ffab2c"/>
  <path d="M19.9746 5.97461C12.2227 5.97461 5.98828 12.2363 5.98828 19.9883C5.98828 20.4941 6.37109 20.8906 6.86328 20.8906C7.36914 20.8906 7.7793 20.4941 7.7793 19.9883C7.7793 13.2617 13.2344 7.76562 19.9746 7.76562C26.7285 7.76562 32.1973 13.2617 32.1973 19.9883C32.1973 20.4941 32.5801 20.8906 33.0859 20.8906C33.5781 20.8906 33.9883 20.4941 33.9883 19.9883C33.9883 12.2363 27.7266 5.97461 19.9746 5.97461Z" fill="#baeb00"/>
  <path d="M19.9746 8.96875C13.8633 8.96875 8.96875 13.877 8.96875 19.9883C8.96875 20.4941 9.36523 20.8906 9.85742 20.8906C10.3633 20.8906 10.7598 20.4941 10.7598 19.9883C10.7598 14.9023 14.8887 10.7598 19.9746 10.7598C25.0605 10.7598 29.2031 14.9023 29.2031 19.9883C29.2031 20.4941 29.5859 20.8906 30.1055 20.8906C30.5977 20.8906 30.9941 20.4941 30.9941 19.9883C30.9941 13.877 26.0859 8.96875 19.9746 8.96875Z" fill="#55bef0"/>
  <path d="M19.9746 11.9629C15.5312 11.9629 11.9629 15.5449 11.9629 19.9883C11.9629 20.4941 12.3457 20.8906 12.8516 20.8906C13.3574 20.8906 13.7539 20.4941 13.7539 19.9883C13.7539 16.5566 16.5293 13.7539 19.9746 13.7539C23.4199 13.7539 26.209 16.5566 26.209 19.9883C26.209 20.4941 26.6055 20.8906 27.1113 20.8906C27.6035 20.8906 28 20.4941 28 19.9883C28 15.5449 24.4316 11.9629 19.9746 11.9629Z" fill="#af52de"/>
 </g>
</svg>
