<?xml version="1.0" encoding="UTF-8"?>
<!--Generator: Apple Native CoreSVG 326-->
<!DOCTYPE svg
PUBLIC "-//W3C//DTD SVG 1.1//EN"
       "http://www.w3.org/Graphics/SVG/1.1/DTD/svg11.dtd">
<svg version="1.1" xmlns="http://www.w3.org/2000/svg" xmlns:xlink="http://www.w3.org/1999/xlink" viewBox="0 0 31.8965 23.8574">
 <g>
  <rect height="23.8574" opacity="0" width="31.8965" x="0" y="0"/>
  <path d="M11.4707 23.8438L20.0703 23.8438C28 23.8438 31.541 20.1934 31.541 12.7285L31.541 4.14258C31.541 1.39453 30.1191 0 27.3438 0L4.19727 0C1.42188 0 0 1.39453 0 4.14258L0 12.7285C0 20.1934 3.54102 23.8438 11.4707 23.8438ZM11.4707 21.6426C5.01758 21.6426 2.20117 18.8398 2.20117 12.8652L2.20117 4.26562C2.20117 2.89844 2.91211 2.20117 4.25195 2.20117L27.2891 2.20117C28.6016 2.20117 29.3398 2.89844 29.3398 4.26562L29.3398 12.8652C29.3398 18.8398 26.5234 21.6426 20.0566 21.6426Z" fill="black" fill-opacity="0.85"/>
  <path d="M9.32422 17.6504C9.93945 17.6504 10.3223 17.2402 10.3223 16.5977L10.3223 13.2344L11.6074 13.2344L13.043 16.8164C13.2344 17.3359 13.5352 17.6504 14.082 17.6504C14.5332 17.6504 15.0254 17.377 15.0254 16.6797C15.0254 16.5156 14.9297 16.2422 14.8066 15.9277L13.5078 12.8242C14.6016 12.25 15.0801 11.0742 15.0801 9.83008C15.0801 7.60156 13.7539 6.41211 11.6211 6.41211L9.31055 6.41211C8.66797 6.41211 8.3125 6.80859 8.3125 7.45117L8.3125 16.5977C8.3125 17.2266 8.66797 17.6504 9.32422 17.6504ZM10.3223 11.7715L10.3223 7.99805L11.4434 7.99805C12.4961 7.99805 13.0566 8.77734 13.0566 9.87109C13.0566 10.9648 12.5645 11.7715 11.4434 11.7715ZM17.8965 17.4727L20.7949 17.4727C22.7227 17.4727 23.8438 16.1875 23.8438 14.3555C23.8438 13.0156 23.0371 11.7988 21.7383 11.6621L21.7383 11.5938C22.7773 11.416 23.502 10.2539 23.502 9.17383C23.502 7.41016 22.3262 6.41211 20.7129 6.41211L17.8965 6.41211C17.2539 6.41211 16.9121 6.86328 16.9121 7.45117L16.9121 16.4336C16.9121 17.0625 17.2676 17.4727 17.8965 17.4727ZM18.8672 11.1016L18.8672 7.92969L20.1387 7.92969C21.1777 7.92969 21.5879 8.58594 21.5879 9.47461C21.5879 10.4863 21 11.1016 19.9883 11.1016ZM18.8672 15.9551L18.8672 12.4414L20.1387 12.4414C21.1367 12.4414 21.834 12.9883 21.834 14.1914C21.834 15.2988 21.2871 15.9551 20.1934 15.9551Z" fill="black" fill-opacity="0.85"/>
 </g>
</svg>
