<?xml version="1.0" encoding="UTF-8"?>
<!--Generator: Apple Native CoreSVG 326-->
<!DOCTYPE svg
PUBLIC "-//W3C//DTD SVG 1.1//EN"
       "http://www.w3.org/Graphics/SVG/1.1/DTD/svg11.dtd">
<svg version="1.1" xmlns="http://www.w3.org/2000/svg" xmlns:xlink="http://www.w3.org/1999/xlink" viewBox="0 0 28.2461 27.9043">
 <g>
  <rect height="27.9043" opacity="0" width="28.2461" x="0" y="0"/>
  <path d="M13.9453 27.8906C21.6426 27.8906 27.8906 21.6289 27.8906 13.9453C27.8906 6.24805 21.6426 0 13.9453 0C6.26172 0 0 6.24805 0 13.9453C0 21.6289 6.26172 27.8906 13.9453 27.8906Z" fill="black" fill-opacity="0.85"/>
  <path d="M4.93555 13.9453C4.93555 11.6758 6.75391 9.83008 9.02344 9.83008C11.3066 9.83008 13.1387 11.6758 13.1387 13.9453C13.1387 14.8887 12.8242 15.791 12.2227 16.4883L15.6543 16.4883C15.0527 15.791 14.7383 14.8887 14.7383 13.9453C14.7383 11.6758 16.584 9.83008 18.8535 9.83008C21.123 9.83008 22.9551 11.6758 22.9551 13.9453C22.9551 16.2148 21.123 18.0605 18.8535 18.0605L9.02344 18.0605C6.75391 18.0605 4.93555 16.2148 4.93555 13.9453ZM6.49414 13.9316C6.49414 15.3398 7.62891 16.4883 9.03711 16.4883C10.4453 16.4883 11.5664 15.3535 11.5664 13.9316C11.5664 12.5371 10.4316 11.4023 9.03711 11.4023C7.64258 11.4023 6.49414 12.5371 6.49414 13.9316ZM16.3105 13.9316C16.3105 15.3535 17.4316 16.4883 18.8398 16.4883C20.248 16.4883 21.3828 15.3398 21.3828 13.9316C21.3828 12.5371 20.2344 11.4023 18.8398 11.4023C17.4453 11.4023 16.3105 12.5371 16.3105 13.9316Z" fill="white"/>
 </g>
</svg>
