<?xml version="1.0" encoding="UTF-8"?>
<!--Generator: Apple Native CoreSVG 326-->
<!DOCTYPE svg
PUBLIC "-//W3C//DTD SVG 1.1//EN"
       "http://www.w3.org/Graphics/SVG/1.1/DTD/svg11.dtd">
<svg version="1.1" xmlns="http://www.w3.org/2000/svg" xmlns:xlink="http://www.w3.org/1999/xlink" viewBox="0 0 36.3501 35.4991">
 <g>
  <rect height="35.4991" opacity="0" width="36.3501" x="0" y="0"/>
  <path d="M3.74163 6.64427C3.38105 7.00637 3.19068 7.54541 3.19068 8.25443L3.19068 20.9146C3.19068 22.3365 3.95631 23.0611 5.32349 23.0611L7.74342 23.0611L7.74342 25.2622L5.28248 25.2622C2.42506 25.2622 0.989511 23.854 0.989511 21.024L0.989511 8.13138C0.989511 6.72706 1.34642 5.66945 2.05891 4.96231ZM28.2512 8.13138L28.2512 10.2232L26.0501 10.2232L26.0501 8.25443C26.0501 6.83255 25.2708 6.09427 23.9309 6.09427L10.7078 6.09427L8.50764 3.8931L23.9583 3.8931C26.8157 3.8931 28.2512 5.31497 28.2512 8.13138Z" fill="black" fill-opacity="0.85"/>
  <path d="M10.3071 13.2068C10.0683 13.5518 9.94459 14.0129 9.94459 14.5845L9.94459 27.2447C9.94459 28.6665 10.7102 29.3911 12.0774 29.3911L26.4988 29.3911L28.701 31.5923L12.0364 31.5923C9.17896 31.5923 7.74342 30.1841 7.74342 27.354L7.74342 14.4615C7.74342 13.196 8.03324 12.212 8.61423 11.5147ZM35.0051 14.4615L35.0051 27.354C35.0051 28.3655 34.82 29.197 34.4472 29.8444L32.6892 28.0856C32.7656 27.8412 32.804 27.5601 32.804 27.2447L32.804 14.5845C32.804 13.1626 32.0247 12.4243 30.6848 12.4243L17.035 12.4243L14.8349 10.2232L30.7122 10.2232C33.5696 10.2232 35.0051 11.6451 35.0051 14.4615Z" fill="black" fill-opacity="0.85"/>
  <path d="M32.9544 33.6021C33.3782 34.0122 34.0481 34.0122 34.4446 33.6021C34.8547 33.1783 34.8547 32.522 34.4446 32.1118L4.28443 1.92435C3.87428 1.52787 3.20435 1.51419 2.78053 1.92435C2.38404 2.33451 2.38404 3.0181 2.78053 3.41458Z" fill="black" fill-opacity="0.85"/>
 </g>
</svg>
