<?xml version="1.0" encoding="UTF-8"?>
<!--Generator: Apple Native CoreSVG 326-->
<!DOCTYPE svg
PUBLIC "-//W3C//DTD SVG 1.1//EN"
       "http://www.w3.org/Graphics/SVG/1.1/DTD/svg11.dtd">
<svg version="1.1" xmlns="http://www.w3.org/2000/svg" xmlns:xlink="http://www.w3.org/1999/xlink" viewBox="0 0 37.0371 31.2949">
 <g>
  <rect height="31.2949" opacity="0" width="37.0371" x="0" y="0"/>
  <path d="M4.29297 13.6719L14.041 13.6719C16.8984 13.6719 18.334 12.25 18.334 9.43359L18.334 4.22461C18.334 1.4082 16.8984 0 14.041 0L4.29297 0C1.43555 0 0 1.4082 0 4.22461L0 9.43359C0 12.25 1.43555 13.6719 4.29297 13.6719ZM4.32031 11.4707C2.95312 11.4707 2.20117 10.7324 2.20117 9.31055L2.20117 4.34766C2.20117 2.92578 2.95312 2.20117 4.32031 2.20117L14.0137 2.20117C15.3672 2.20117 16.1328 2.92578 16.1328 4.34766L16.1328 9.31055C16.1328 10.7324 15.3672 11.4707 14.0137 11.4707ZM22.627 31.2812L32.3887 31.2812C35.2324 31.2812 36.6816 29.8594 36.6816 27.043L36.6816 21.8477C36.6816 19.0312 35.2324 17.6094 32.3887 17.6094L22.627 17.6094C19.7832 17.6094 18.334 19.0176 18.334 21.8477L18.334 27.043C18.334 29.873 19.7832 31.2812 22.627 31.2812ZM22.668 29.0801C21.3008 29.0801 20.5352 28.3555 20.5352 26.9336L20.5352 21.957C20.5352 20.5488 21.3008 19.8105 22.668 19.8105L32.3477 19.8105C33.7012 19.8105 34.4805 20.5488 34.4805 21.957L34.4805 26.9336C34.4805 28.3555 33.7012 29.0801 32.3477 29.0801Z" fill="black" fill-opacity="0.85"/>
  <path d="M29.2441 15.0527C29.668 15.6406 30.1465 15.627 30.5703 15.0527L33.1133 11.5938C33.6738 10.8418 33.4551 10.0762 32.4434 10.0762L30.6387 10.0762L30.6387 9.78906C30.6387 5.86523 28 3.25391 24.0898 3.25391L22.0391 3.25391C21.5742 3.25391 21.1914 3.65039 21.1914 4.11523C21.1914 4.58008 21.5742 4.96289 22.0391 4.96289L24.0762 4.96289C26.9883 4.96289 29.0527 6.83594 29.0527 9.80273L29.0527 10.0762L27.3848 10.0762C26.4004 10.0762 26.168 10.8418 26.7285 11.5938ZM12.5781 28.0273L14.6289 28.0273C15.0938 28.0273 15.4902 27.6309 15.4902 27.166C15.4902 26.7012 15.0938 26.3184 14.6289 26.3184L12.5918 26.3184C9.67969 26.3184 7.61523 24.4316 7.61523 21.4648L7.61523 21.2051L9.29688 21.2051C10.2676 21.2051 10.5 20.4395 9.95312 19.6738L7.42383 16.2285C7 15.6406 6.52148 15.6543 6.09766 16.2285L3.56836 19.6738C2.99414 20.4395 3.22656 21.2051 4.22461 21.2051L6.0293 21.2051L6.0293 21.4785C6.0293 25.416 8.66797 28.0273 12.5781 28.0273Z" fill="black" fill-opacity="0.85"/>
 </g>
</svg>
