<?xml version="1.0" encoding="UTF-8"?>
<!--Generator: Apple Native CoreSVG 326-->
<!DOCTYPE svg
PUBLIC "-//W3C//DTD SVG 1.1//EN"
       "http://www.w3.org/Graphics/SVG/1.1/DTD/svg11.dtd">
<svg version="1.1" xmlns="http://www.w3.org/2000/svg" xmlns:xlink="http://www.w3.org/1999/xlink" viewBox="0 0 24.6777 29.3809">
 <g>
  <rect height="29.3809" opacity="0" width="24.6777" x="0" y="0"/>
  <path d="M8.13477 29.3672L20.1523 29.3672C22.75 29.3672 24.3086 27.8359 24.3086 25.2656L24.3223 4.14258C24.3223 1.66797 22.6543 0 20.1934 0L15.9961 0C13.8496 0 12.0586 0.560547 10.377 2.10547L1.73633 10.0488C0.574219 11.1152 0 12.6191 0 14.4922L0 21.2324C0 26.1816 3.18555 29.3672 8.13477 29.3672ZM8.18945 27.166C4.36133 27.166 2.20117 25.0195 2.20117 21.1914L2.20117 14.5195C2.20117 13.1523 2.51562 12.3184 3.26758 11.6348L11.8945 3.71875C13.1113 2.61133 14.3555 2.20117 16.0508 2.20117L20.1523 2.20117C21.3418 2.20117 22.1211 2.99414 22.1211 4.16992L22.1074 25.2246C22.1074 26.6738 21.5332 27.166 20.1113 27.166Z" fill="black" fill-opacity="0.85"/>
  <path d="M9.80273 23.9531L17.7188 23.9531C18.7852 23.9531 19.332 23.4199 19.332 22.3398L19.332 16.8164C19.332 15.7637 18.7852 15.2168 17.7188 15.2168L9.80273 15.2168C8.70898 15.2168 8.17578 15.7637 8.17578 16.8164L8.17578 22.3398C8.17578 23.4199 8.70898 23.9531 9.80273 23.9531ZM5.57812 19.8652C5.57812 20.918 6.125 21.4648 7.19141 21.4648L7.30078 21.4648L7.30078 16.8164C7.30078 15.2852 8.20312 14.3418 9.80273 14.3418L16.7344 14.3418L16.7344 14.2871C16.707 13.2754 16.1738 12.7559 15.1074 12.7559L7.19141 12.7559C6.125 12.7559 5.57812 13.2891 5.57812 14.3691Z" fill="black" fill-opacity="0.85"/>
 </g>
</svg>
