<?xml version="1.0" encoding="UTF-8"?>
<!--Generator: Apple Native CoreSVG 326-->
<!DOCTYPE svg
PUBLIC "-//W3C//DTD SVG 1.1//EN"
       "http://www.w3.org/Graphics/SVG/1.1/DTD/svg11.dtd">
<svg version="1.1" xmlns="http://www.w3.org/2000/svg" xmlns:xlink="http://www.w3.org/1999/xlink" viewBox="0 0 16.8027 25.1973">
 <g>
  <rect height="25.1973" opacity="0" width="16.8027" x="0" y="0"/>
  <path d="M4.29297 25.1973L12.1543 25.1973C15.0254 25.1973 16.4473 23.7754 16.4473 20.959L16.4473 4.26562C16.4473 1.44922 15.0254 0.0273438 12.1543 0.0273438L4.29297 0.0273438C1.43555 0.0273438 0 1.43555 0 4.26562L0 20.959C0 23.7891 1.43555 25.1973 4.29297 25.1973ZM4.32031 22.9961C2.95312 22.9961 2.20117 22.2715 2.20117 20.8496L2.20117 4.375C2.20117 2.95312 2.95312 2.22852 4.32031 2.22852L12.127 2.22852C13.4668 2.22852 14.2461 2.95312 14.2461 4.375L14.2461 20.8496C14.2461 22.2715 13.4668 22.9961 12.127 22.9961Z" fill="black" fill-opacity="0.85"/>
 </g>
</svg>
