<?xml version="1.0" encoding="UTF-8"?>
<!--Generator: Apple Native CoreSVG 326-->
<!DOCTYPE svg
PUBLIC "-//W3C//DTD SVG 1.1//EN"
       "http://www.w3.org/Graphics/SVG/1.1/DTD/svg11.dtd">
<svg version="1.1" xmlns="http://www.w3.org/2000/svg" xmlns:xlink="http://www.w3.org/1999/xlink" viewBox="0 0 26.2227 34.4395">
 <g>
  <rect height="34.4395" opacity="0" width="26.2227" x="0" y="0"/>
  <path d="M4.29297 26.168L21.5742 26.168C24.4453 26.168 25.8672 24.7461 25.8672 21.9297L25.8672 12.5098C25.8672 9.69336 24.4453 8.27148 21.5742 8.27148L4.29297 8.27148C1.42188 8.27148 0 9.67969 0 12.5098L0 21.9297C0 24.7598 1.42188 26.168 4.29297 26.168ZM4.32031 23.9668C2.95312 23.9668 2.20117 23.2285 2.20117 21.8203L2.20117 12.6191C2.20117 11.1973 2.95312 10.4727 4.32031 10.4727L21.5469 10.4727C22.9004 10.4727 23.666 11.1973 23.666 12.6191L23.666 21.8203C23.666 23.2285 22.9004 23.9668 21.5469 23.9668Z" fill="black" fill-opacity="0.85"/>
  <path d="M9.88477 0C9.14648 0 8.83203 0.601562 9.22852 1.24414L12.1953 6.09766C12.5645 6.71289 13.3027 6.69922 13.6719 6.09766L16.6523 1.23047C17.0488 0.587891 16.707 0 15.9824 0ZM9.88477 34.4395L15.9824 34.4395C16.707 34.4395 17.0488 33.8379 16.6523 33.1953L13.6719 28.3418C13.3027 27.7402 12.5645 27.7129 12.1953 28.3418L9.22852 33.1953C8.83203 33.8379 9.14648 34.4395 9.88477 34.4395Z" fill="black" fill-opacity="0.85"/>
 </g>
</svg>
