<?xml version="1.0" encoding="UTF-8"?>
<!--Generator: Apple Native CoreSVG 326-->
<!DOCTYPE svg
PUBLIC "-//W3C//DTD SVG 1.1//EN"
       "http://www.w3.org/Graphics/SVG/1.1/DTD/svg11.dtd">
<svg version="1.1" xmlns="http://www.w3.org/2000/svg" xmlns:xlink="http://www.w3.org/1999/xlink" viewBox="0 0 25.293 29.9551">
 <g>
  <rect height="29.9551" opacity="0" width="25.293" x="0" y="0"/>
  <path d="M13.5625 23.7995C14.4208 24.1171 15.1085 24.8019 15.4315 25.6621L23.8301 25.6621C24.4316 25.6621 24.9375 26.1543 24.9375 26.7559C24.9375 27.3574 24.4316 27.8633 23.8301 27.8633L15.444 27.8633C14.9999 29.0776 13.8263 29.9551 12.4688 29.9551C11.1005 29.9551 9.92454 29.0776 9.48003 27.8633L1.09375 27.8633C0.492188 27.8633 0 27.3574 0 26.7559C0 26.1543 0.492188 25.6621 1.09375 25.6621L9.49252 25.6621C9.81505 24.8041 10.5014 24.1205 11.3613 23.8019L11.3613 20.4805L13.5625 20.4805Z" fill="black" fill-opacity="0.85"/>
  <path d="M4.29297 20.4805L20.6445 20.4805C23.502 20.4805 24.9375 19.0586 24.9375 16.2422L24.9375 4.25195C24.9375 1.43555 23.502 0.0136719 20.6445 0.0136719L4.29297 0.0136719C1.42188 0.0136719 0 1.43555 0 4.25195L0 16.2422C0 19.0586 1.42188 20.4805 4.29297 20.4805ZM4.32031 18.2793C2.98047 18.2793 2.20117 17.5547 2.20117 16.1328L2.20117 4.36133C2.20117 2.95312 2.98047 2.21484 4.32031 2.21484L20.6035 2.21484C21.957 2.21484 22.7363 2.95312 22.7363 4.36133L22.7363 16.1328C22.7363 17.5547 21.957 18.2793 20.6035 18.2793Z" fill="black" fill-opacity="0.85"/>
 </g>
</svg>
