<?xml version="1.0" encoding="UTF-8"?>
<!--Generator: Apple Native CoreSVG 326-->
<!DOCTYPE svg
PUBLIC "-//W3C//DTD SVG 1.1//EN"
       "http://www.w3.org/Graphics/SVG/1.1/DTD/svg11.dtd">
<svg version="1.1" xmlns="http://www.w3.org/2000/svg" xmlns:xlink="http://www.w3.org/1999/xlink" viewBox="0 0 32.293 37.748">
 <g>
  <rect height="37.748" opacity="0" width="32.293" x="0" y="0"/>
  <path d="M22.668 5.19531L22.9426 6.75391L13.2891 6.75391C9.43359 6.75391 7.19141 9.00977 7.19141 12.9062L7.19141 30.6492C5.95645 30.1906 5.17421 29.0709 4.85352 27.3027L1.62695 8.90039C1.12109 6.07031 2.26953 4.42969 5.04492 3.9375L17.7461 1.69531C20.5215 1.2168 22.1621 2.37891 22.668 5.19531Z" fill="black" fill-opacity="0.85"/>
  <path d="M30.4199 12.9062C30.4199 10.0488 29.0117 8.61328 26.1953 8.61328L13.2891 8.61328C10.4727 8.61328 9.05078 10.0488 9.05078 12.9062L9.05078 31.582C9.05078 34.4395 10.4727 35.875 13.2891 35.875L26.1953 35.875C28.998 35.875 30.4199 34.4395 30.4199 31.582Z" fill="black" fill-opacity="0.85"/>
 </g>
</svg>
