<?xml version="1.0" encoding="UTF-8"?>
<!--Generator: Apple Native CoreSVG 326-->
<!DOCTYPE svg
PUBLIC "-//W3C//DTD SVG 1.1//EN"
       "http://www.w3.org/Graphics/SVG/1.1/DTD/svg11.dtd">
<svg version="1.1" xmlns="http://www.w3.org/2000/svg" xmlns:xlink="http://www.w3.org/1999/xlink" viewBox="0 0 30.4883 30.2012">
 <g>
  <rect height="30.2012" opacity="0" width="30.4883" x="0" y="0"/>
  <path d="M30.1328 8.09375L30.1328 18.5664C30.1328 22.5723 27.9453 24.8145 23.8711 24.8145L14.6289 24.8145L9.69336 29.3262C9.05078 29.9277 8.6543 30.2012 8.12109 30.2012C7.3418 30.2012 6.9043 29.6406 6.9043 28.793L6.9043 24.8145L6.26172 24.8145C2.1875 24.8145 0 22.5859 0 18.5664L0 8.09375C0 4.07422 2.1875 1.83203 6.26172 1.83203L23.8711 1.83203C27.9453 1.83203 30.1328 4.08789 30.1328 8.09375ZM8.66797 14.5332C7.65625 14.5332 7.15039 15.0391 7.15039 16.0508L7.15039 17.9512C7.15039 18.9766 7.65625 19.4824 8.66797 19.4824L13.9863 19.4824C14.998 19.4824 15.5039 18.9766 15.5039 17.9512L15.5039 16.0508C15.5039 15.0391 14.998 14.5332 13.9863 14.5332ZM18.6211 8.12109C17.5957 8.12109 17.0762 8.62695 17.0762 9.63867L17.0762 17.1172C17.0762 18.1426 17.5957 18.6348 18.6211 18.6348L23.0098 18.6348C24.0352 18.6348 24.541 18.1426 24.541 17.1172L24.541 9.63867C24.541 8.62695 24.0352 8.12109 23.0098 8.12109ZM6.97266 7.16406C5.93359 7.16406 5.41406 7.65625 5.41406 8.66797L5.41406 11.4707C5.41406 12.4961 5.93359 12.9883 6.97266 12.9883L13.1523 12.9883C14.1641 12.9883 14.6836 12.4961 14.6836 11.4707L14.6836 8.66797C14.6836 7.65625 14.1641 7.16406 13.1523 7.16406Z" fill="black" fill-opacity="0.85"/>
 </g>
</svg>
