<?xml version="1.0" encoding="UTF-8"?>
<!--Generator: Apple Native CoreSVG 326-->
<!DOCTYPE svg
PUBLIC "-//W3C//DTD SVG 1.1//EN"
       "http://www.w3.org/Graphics/SVG/1.1/DTD/svg11.dtd">
<svg version="1.1" xmlns="http://www.w3.org/2000/svg" xmlns:xlink="http://www.w3.org/1999/xlink" viewBox="0 0 28.2734 38.6514">
 <g>
  <rect height="38.6514" opacity="0" width="28.2734" x="0" y="0"/>
  <path d="M27.1387 10.6919C27.5488 10.6919 27.918 10.3228 27.918 9.89896L27.918 8.23099C27.918 4.772 25.6211 2.4888 22.1621 2.4888L21.916 2.4888L21.916 0.875518C21.916-0.0404975 21.2324-0.231904 20.5488 0.273956L17.4453 2.54349C16.9258 2.9263 16.9121 3.3638 17.4453 3.74661L20.5488 6.01614C21.2324 6.522 21.916 6.31692 21.916 5.44192L21.916 3.92435L22.1484 3.92435C24.6914 3.92435 26.3594 5.647 26.3594 8.24466L26.3594 9.89896C26.3594 10.3228 26.7148 10.6919 27.1387 10.6919ZM0.779297 27.9458C0.369141 27.9458 0 28.3013 0 28.7251L0 30.4068C0 33.8658 2.2832 36.149 5.74219 36.149L5.98828 36.149L5.98828 37.7622C5.98828 38.6783 6.68555 38.8697 7.36914 38.3638L10.4727 36.0806C10.9922 35.7115 11.0059 35.274 10.4727 34.8775L7.36914 32.6216C6.68555 32.1158 5.98828 32.3208 5.98828 33.1958L5.98828 34.7134L5.75586 34.7134C3.22656 34.7134 1.55859 32.9908 1.55859 30.3931L1.55859 28.7251C1.55859 28.3013 1.20312 27.9458 0.779297 27.9458Z" fill="black" fill-opacity="0.85"/>
  <path d="M8.49023 30.1607L19.4141 30.1607C21.0684 30.1607 22.2988 29.0259 22.2988 27.44L22.2988 11.1978C22.2988 9.61185 21.0684 8.46341 19.4141 8.46341L8.49023 8.46341C6.83594 8.46341 5.63281 9.61185 5.63281 11.1978L5.63281 27.44C5.63281 29.0259 6.83594 30.1607 8.49023 30.1607ZM8.68164 28.0962C8.10742 28.0962 7.69727 27.7271 7.69727 27.1939L7.69727 11.4439C7.69727 10.897 8.10742 10.5142 8.68164 10.5142L19.2227 10.5142C19.8242 10.5142 20.248 10.897 20.248 11.4439L20.248 27.1939C20.248 27.7271 19.8242 28.0962 19.2227 28.0962Z" fill="black" fill-opacity="0.85"/>
 </g>
</svg>
