<?xml version="1.0" encoding="UTF-8"?>
<!--Generator: Apple Native CoreSVG 326-->
<!DOCTYPE svg
PUBLIC "-//W3C//DTD SVG 1.1//EN"
       "http://www.w3.org/Graphics/SVG/1.1/DTD/svg11.dtd">
<svg version="1.1" xmlns="http://www.w3.org/2000/svg" xmlns:xlink="http://www.w3.org/1999/xlink" viewBox="0 0 32.5938 25.1973">
 <g>
  <rect height="25.1973" opacity="0" width="32.5938" x="0" y="0"/>
  <path d="M0 13.7129L0 11.5117L15.0254 11.5117L15.0254 0.0273438L17.2266 0.0273438L17.2266 11.5117L32.2383 11.5117L32.2383 13.7129L17.2266 13.7129L17.2266 25.1973L15.0254 25.1973L15.0254 13.7129ZM4.29297 25.1973L27.9453 25.1973C30.8164 25.1973 32.2383 23.7754 32.2383 20.959L32.2383 4.25195C32.2383 1.43555 30.8164 0.0273438 27.9453 0.0273438L4.29297 0.0273438C1.43555 0.0273438 0 1.43555 0 4.25195L0 20.959C0 23.7754 1.43555 25.1973 4.29297 25.1973Z" fill="black" fill-opacity="0.85"/>
 </g>
</svg>
