<?xml version="1.0" encoding="UTF-8"?>
<!--Generator: Apple Native CoreSVG 326-->
<!DOCTYPE svg
PUBLIC "-//W3C//DTD SVG 1.1//EN"
       "http://www.w3.org/Graphics/SVG/1.1/DTD/svg11.dtd">
<svg version="1.1" xmlns="http://www.w3.org/2000/svg" xmlns:xlink="http://www.w3.org/1999/xlink" viewBox="0 0 25.5254 19.0449">
 <g>
  <rect height="19.0449" opacity="0" width="25.5254" x="0" y="0"/>
  <path d="M0 4.29297L0 14.752C0 17.6094 1.42188 19.0449 4.23828 19.0449L20.9316 19.0449C23.748 19.0449 25.1699 17.6094 25.1699 14.752L25.1699 4.29297C25.1699 1.44922 23.7617 0 20.9316 0L4.23828 0C1.4082 0 0 1.44922 0 4.29297ZM2.20117 4.33398C2.20117 2.9668 2.92578 2.20117 4.34766 2.20117L20.8223 2.20117C22.2441 2.20117 22.9688 2.9668 22.9688 4.33398L22.9688 14.7109C22.9688 16.0645 22.2441 16.8438 20.8223 16.8438L4.34766 16.8438C2.92578 16.8438 2.20117 16.0645 2.20117 14.7109Z" fill="black" fill-opacity="0.85"/>
 </g>
</svg>
