<?xml version="1.0" encoding="UTF-8"?>
<!--Generator: Apple Native CoreSVG 326-->
<!DOCTYPE svg
PUBLIC "-//W3C//DTD SVG 1.1//EN"
       "http://www.w3.org/Graphics/SVG/1.1/DTD/svg11.dtd">
<svg version="1.1" xmlns="http://www.w3.org/2000/svg" xmlns:xlink="http://www.w3.org/1999/xlink" viewBox="0 0 34.6172 26.3184">
 <g>
  <rect height="26.3184" opacity="0" width="34.6172" x="0" y="0"/>
  <path d="M2.36523 7.75195L7.875 7.75195C9.36523 7.75195 10.2402 6.87695 10.2402 5.33203L10.2402 2.41992C10.2402 0.875 9.36523 0 7.875 0L2.36523 0C0.875 0 0 0.875 0 2.41992L0 5.33203C0 6.87695 0.875 7.75195 2.36523 7.75195ZM14.3691 7.75195L19.8789 7.75195C21.3691 7.75195 22.2305 6.87695 22.2305 5.33203L22.2305 2.41992C22.2305 0.875 21.3691 0 19.8789 0L14.3691 0C12.8652 0 12.0039 0.875 12.0039 2.41992L12.0039 5.33203C12.0039 6.87695 12.8652 7.75195 14.3691 7.75195ZM26.3867 7.75195L31.8965 7.75195C33.3867 7.75195 34.2617 6.87695 34.2617 5.33203L34.2617 2.41992C34.2617 0.875 33.3867 0 31.8965 0L26.3867 0C24.8965 0 24.0215 0.875 24.0215 2.41992L24.0215 5.33203C24.0215 6.87695 24.8965 7.75195 26.3867 7.75195ZM2.36523 17.0078L7.875 17.0078C9.36523 17.0078 10.2402 16.1465 10.2402 14.6016L10.2402 11.6758C10.2402 10.1309 9.36523 9.25586 7.875 9.25586L2.36523 9.25586C0.875 9.25586 0 10.1309 0 11.6758L0 14.6016C0 16.1465 0.875 17.0078 2.36523 17.0078ZM14.3691 17.0078L19.8789 17.0078C21.3691 17.0078 22.2305 16.1465 22.2305 14.6016L22.2305 11.6758C22.2305 10.1309 21.3691 9.25586 19.8789 9.25586L14.3691 9.25586C12.8652 9.25586 12.0039 10.1309 12.0039 11.6758L12.0039 14.6016C12.0039 16.1465 12.8652 17.0078 14.3691 17.0078ZM26.3867 17.0078L31.8965 17.0078C33.3867 17.0078 34.2617 16.1465 34.2617 14.6016L34.2617 11.6758C34.2617 10.1309 33.3867 9.25586 31.8965 9.25586L26.3867 9.25586C24.8965 9.25586 24.0215 10.1309 24.0215 11.6758L24.0215 14.6016C24.0215 16.1465 24.8965 17.0078 26.3867 17.0078ZM2.36523 26.2637L7.875 26.2637C9.36523 26.2637 10.2402 25.3887 10.2402 23.8438L10.2402 20.9316C10.2402 19.3867 9.36523 18.5117 7.875 18.5117L2.36523 18.5117C0.875 18.5117 0 19.3867 0 20.9316L0 23.8438C0 25.3887 0.875 26.2637 2.36523 26.2637ZM14.3691 26.2637L19.8789 26.2637C21.3691 26.2637 22.2305 25.3887 22.2305 23.8438L22.2305 20.9316C22.2305 19.3867 21.3691 18.5117 19.8789 18.5117L14.3691 18.5117C12.8652 18.5117 12.0039 19.3867 12.0039 20.9316L12.0039 23.8438C12.0039 25.3887 12.8652 26.2637 14.3691 26.2637ZM26.3867 26.2637L31.8965 26.2637C33.3867 26.2637 34.2617 25.3887 34.2617 23.8438L34.2617 20.9316C34.2617 19.3867 33.3867 18.5117 31.8965 18.5117L26.3867 18.5117C24.8965 18.5117 24.0215 19.3867 24.0215 20.9316L24.0215 23.8438C24.0215 25.3887 24.8965 26.2637 26.3867 26.2637Z" fill="black" fill-opacity="0.85"/>
 </g>
</svg>
