<?xml version="1.0" encoding="UTF-8"?>
<!--Generator: Apple Native CoreSVG 326-->
<!DOCTYPE svg
PUBLIC "-//W3C//DTD SVG 1.1//EN"
       "http://www.w3.org/Graphics/SVG/1.1/DTD/svg11.dtd">
<svg version="1.1" xmlns="http://www.w3.org/2000/svg" xmlns:xlink="http://www.w3.org/1999/xlink" viewBox="0 0 20.043 30.9668">
 <g>
  <rect height="30.9668" opacity="0" width="20.043" x="0" y="0"/>
  <path d="M3.1582 30.9395L16.5156 30.9395C18.416 30.9395 19.6875 29.6406 19.6875 27.6719L19.6875 3.26758C19.6875 1.29883 18.416 0 16.5156 0L3.1582 0C1.27148 0 0 1.29883 0 3.26758L0 27.6719C0 29.6406 1.27148 30.9395 3.1582 30.9395ZM3.26758 28.7383C2.625 28.7383 2.20117 28.3145 2.20117 27.6582L2.20117 3.29492C2.20117 2.63867 2.625 2.20117 3.26758 2.20117L16.4199 2.20117C17.0488 2.20117 17.4863 2.63867 17.4863 3.29492L17.4863 27.6582C17.4863 28.3145 17.0488 28.7383 16.4199 28.7383ZM4.74414 8.2168C5.1543 8.2168 5.42773 7.92969 5.42773 7.51953L5.42773 4.49805C5.42773 4.08789 5.1543 3.80078 4.74414 3.80078C4.33398 3.80078 4.04688 4.08789 4.04688 4.49805L4.04688 7.51953C4.04688 7.92969 4.33398 8.2168 4.74414 8.2168ZM1.62695 12.1133L18.0742 12.1133L18.0742 10.3223L1.62695 10.3223ZM4.74414 17.8281C5.1543 17.8281 5.42773 17.5547 5.42773 17.1445L5.42773 14.1094C5.42773 13.6992 5.1543 13.4258 4.74414 13.4258C4.33398 13.4258 4.04688 13.6992 4.04688 14.1094L4.04688 17.1445C4.04688 17.5547 4.33398 17.8281 4.74414 17.8281ZM1.62695 26.7422L18.0742 26.7422L18.0742 24.9512L1.62695 24.9512Z" fill="black" fill-opacity="0.85"/>
 </g>
</svg>
