<?xml version="1.0" encoding="UTF-8"?>
<!--Generator: Apple Native CoreSVG 326-->
<!DOCTYPE svg
PUBLIC "-//W3C//DTD SVG 1.1//EN"
       "http://www.w3.org/Graphics/SVG/1.1/DTD/svg11.dtd">
<svg version="1.1" xmlns="http://www.w3.org/2000/svg" xmlns:xlink="http://www.w3.org/1999/xlink" viewBox="0 0 28.2461 27.9043">
 <g>
  <rect height="27.9043" opacity="0" width="28.2461" x="0" y="0"/>
  <path d="M13.9453 27.8906C21.6426 27.8906 27.8906 21.6289 27.8906 13.9453C27.8906 6.24805 21.6426 0 13.9453 0C6.26172 0 0 6.24805 0 13.9453C0 21.6289 6.26172 27.8906 13.9453 27.8906Z" fill="black" fill-opacity="0.85"/>
  <path d="M4.88086 13.9043L4.88086 13.0703C4.88086 10.7734 6.49414 9.32422 9.00977 9.32422L12.4414 9.32422L12.4414 7.60156C12.4414 7.19141 12.7012 6.93164 13.125 6.93164C13.3164 6.93164 13.4941 6.98633 13.6445 7.10938L16.7207 9.66602C17.0898 9.95312 17.0898 10.3906 16.7207 10.6914L13.6445 13.248C13.4941 13.3574 13.3164 13.4258 13.125 13.4258C12.7012 13.4258 12.4414 13.1797 12.4414 12.7695L12.4414 11.0059L8.8457 11.0059C7.46484 11.0059 6.5625 11.8945 6.5625 13.1934L6.5625 13.9043C6.5625 14.3691 6.17969 14.752 5.71484 14.752C5.25 14.752 4.88086 14.3691 4.88086 13.9043ZM21.7246 14.752L21.7246 15.5859C21.7246 17.8691 20.1113 19.332 17.582 19.332L12.4004 19.332L12.4004 21.082C12.4004 21.4922 12.1543 21.7383 11.7168 21.7383C11.5254 21.7383 11.3477 21.6836 11.1973 21.5605L8.12109 19.0176C7.76562 18.7305 7.75195 18.2656 8.10742 17.9922L11.1973 15.4355C11.3477 15.3125 11.5254 15.2578 11.7168 15.2578C12.1406 15.2578 12.4004 15.5039 12.4004 15.9141L12.4004 17.6504L17.7461 17.6504C19.127 17.6504 20.0293 16.7754 20.0293 15.4629L20.0293 14.752C20.0293 14.2871 20.4121 13.918 20.877 13.918C21.3418 13.918 21.7246 14.2871 21.7246 14.752ZM20.877 12.4277C20.3301 12.4277 19.9746 12.0723 19.9746 11.5254L19.9746 8.59961L20.0977 8.59961L19.2637 9.26953C19.127 9.37891 18.9766 9.41992 18.8262 9.41992C18.4707 9.41992 18.2109 9.16016 18.2109 8.83203C18.2109 8.59961 18.2793 8.43555 18.4844 8.27148L19.5781 7.45117C19.9883 7.12305 20.2891 7.01367 20.7129 7.01367C21.3281 7.01367 21.752 7.42383 21.752 8.06641L21.752 11.5254C21.752 12.0723 21.4102 12.4277 20.877 12.4277Z" fill="white"/>
 </g>
</svg>
