<?xml version="1.0" encoding="UTF-8"?>
<!--Generator: Apple Native CoreSVG 326-->
<!DOCTYPE svg
PUBLIC "-//W3C//DTD SVG 1.1//EN"
       "http://www.w3.org/Graphics/SVG/1.1/DTD/svg11.dtd">
<svg version="1.1" xmlns="http://www.w3.org/2000/svg" xmlns:xlink="http://www.w3.org/1999/xlink" viewBox="0 0 28.2461 27.9043">
 <g>
  <rect height="27.9043" opacity="0" width="28.2461" x="0" y="0"/>
  <path d="M13.9453 27.8906C21.6426 27.8906 27.8906 21.6426 27.8906 13.9453C27.8906 6.24805 21.6426 0 13.9453 0C6.24805 0 0 6.24805 0 13.9453C0 21.6426 6.24805 27.8906 13.9453 27.8906ZM13.9453 25.5664C7.51953 25.5664 2.32422 20.3711 2.32422 13.9453C2.32422 7.51953 7.51953 2.32422 13.9453 2.32422C20.3711 2.32422 25.5664 7.51953 25.5664 13.9453C25.5664 20.3711 20.3711 25.5664 13.9453 25.5664Z" fill="black" fill-opacity="0.85"/>
  <path d="M5.12695 13.918C5.12695 14.3691 5.48242 14.7383 5.93359 14.7383C6.38477 14.7383 6.75391 14.3691 6.75391 13.918L6.75391 13.2344C6.75391 11.9629 7.62891 11.1016 8.96875 11.1016L12.4551 11.1016L12.4551 12.8105C12.4551 13.207 12.7148 13.4531 13.1113 13.4531C13.3027 13.4531 13.4805 13.3848 13.6172 13.2754L16.5977 10.8008C16.9531 10.5137 16.9531 10.0898 16.5977 9.81641L13.6172 7.32812C13.4805 7.21875 13.3027 7.16406 13.1113 7.16406C12.7148 7.16406 12.4551 7.41016 12.4551 7.80664L12.4551 9.48828L9.13281 9.48828C6.68555 9.48828 5.12695 10.8828 5.12695 13.1113ZM21.4512 14.7383C21.4512 14.2871 21.082 13.9316 20.6309 13.9316C20.1797 13.9316 19.8105 14.2871 19.8105 14.7383L19.8105 15.4219C19.8105 16.707 18.9355 17.5547 17.5957 17.5547L12.4141 17.5547L12.4141 15.873C12.4141 15.4766 12.1543 15.2305 11.7578 15.2305C11.5664 15.2305 11.3887 15.2852 11.252 15.4082L8.25781 17.8828C7.91602 18.1426 7.92969 18.5938 8.27148 18.8672L11.252 21.3418C11.3887 21.4512 11.5664 21.5059 11.7578 21.5059C12.168 21.5059 12.4141 21.2734 12.4141 20.877L12.4141 19.168L17.4316 19.168C19.8926 19.168 21.4512 17.7598 21.4512 15.5449ZM20.6309 12.4824C21.1504 12.4824 21.4785 12.1406 21.4785 11.6074L21.4785 8.25781C21.4785 7.64258 21.0684 7.23242 20.4668 7.23242C20.0566 7.23242 19.7695 7.3418 19.373 7.65625L18.3203 8.46289C18.1152 8.61328 18.0469 8.77734 18.0469 8.99609C18.0469 9.31055 18.3066 9.57031 18.6484 9.57031C18.7852 9.57031 18.9355 9.5293 19.0723 9.41992L19.8789 8.77734L19.7559 8.77734L19.7559 11.6074C19.7559 12.1406 20.0977 12.4824 20.6309 12.4824Z" fill="black" fill-opacity="0.85"/>
 </g>
</svg>
