<?xml version="1.0" encoding="UTF-8"?>
<!--Generator: Apple Native CoreSVG 326-->
<!DOCTYPE svg
PUBLIC "-//W3C//DTD SVG 1.1//EN"
       "http://www.w3.org/Graphics/SVG/1.1/DTD/svg11.dtd">
<svg version="1.1" xmlns="http://www.w3.org/2000/svg" xmlns:xlink="http://www.w3.org/1999/xlink" viewBox="0 0 28.2461 27.9043">
 <g>
  <rect height="27.9043" opacity="0" width="28.2461" x="0" y="0"/>
  <path d="M13.9453 27.8906C21.6426 27.8906 27.8906 21.6426 27.8906 13.9453C27.8906 6.24805 21.6426 0 13.9453 0C6.24805 0 0 6.24805 0 13.9453C0 21.6426 6.24805 27.8906 13.9453 27.8906ZM13.9453 25.5664C7.51953 25.5664 2.32422 20.3711 2.32422 13.9453C2.32422 7.51953 7.51953 2.32422 13.9453 2.32422C20.3711 2.32422 25.5664 7.51953 25.5664 13.9453C25.5664 20.3711 20.3711 25.5664 13.9453 25.5664Z" fill="black" fill-opacity="0.85"/>
  <path d="M5.37305 12.7012L5.37305 13.5488C5.37305 14.041 5.7832 14.4512 6.27539 14.4512C6.79492 14.4512 7.19141 14.041 7.19141 13.5488L7.19141 12.7969C7.19141 11.5254 8.09375 10.6777 9.43359 10.6777L14.793 10.6777L14.793 12.373C14.793 12.8379 15.0938 13.125 15.5312 13.125C15.7227 13.125 15.9277 13.043 16.1055 12.9199L19.1953 10.3496C19.5781 10.0352 19.5781 9.54297 19.1953 9.22852L16.1055 6.64453C15.9277 6.52148 15.7227 6.43945 15.5312 6.43945C15.0938 6.43945 14.793 6.72656 14.793 7.17773L14.793 8.87305L9.57031 8.87305C7.02734 8.87305 5.37305 10.3906 5.37305 12.7012ZM22.5039 15.2305L22.5039 14.3965C22.5039 13.877 22.1211 13.4941 21.6016 13.4941C21.0684 13.4941 20.6855 13.877 20.6855 14.3965L20.6855 15.1348C20.6855 16.4199 19.7832 17.2676 18.4434 17.2676L13.084 17.2676L13.084 15.5723C13.084 15.1211 12.7969 14.834 12.3457 14.834C12.1543 14.834 11.9492 14.916 11.7852 15.0391L8.68164 17.5957C8.29883 17.9102 8.28516 18.4297 8.68164 18.7305L11.7852 21.3145C11.9492 21.4375 12.1543 21.5195 12.3457 21.5195C12.7969 21.5195 13.084 21.2324 13.084 20.7676L13.084 19.0723L18.3066 19.0723C20.8496 19.0723 22.5039 17.5547 22.5039 15.2305Z" fill="black" fill-opacity="0.85"/>
 </g>
</svg>
