<?xml version="1.0" encoding="UTF-8"?>
<!--Generator: Apple Native CoreSVG 326-->
<!DOCTYPE svg
PUBLIC "-//W3C//DTD SVG 1.1//EN"
       "http://www.w3.org/Graphics/SVG/1.1/DTD/svg11.dtd">
<svg version="1.1" xmlns="http://www.w3.org/2000/svg" xmlns:xlink="http://www.w3.org/1999/xlink" viewBox="0 0 46.5527 26.6738">
 <g>
  <rect height="26.6738" opacity="0" width="46.5527" x="0" y="0"/>
  <path d="M44.3926 22.5039C45.377 22.5039 46.1973 21.7109 46.1973 20.7812C46.1973 19.8379 45.3906 19.0586 44.3926 19.0586C43.4082 19.0586 42.6016 19.8379 42.6016 20.7812C42.6016 21.7109 43.4219 22.5039 44.3926 22.5039ZM44.3926 16.4336C45.0625 16.4336 45.541 15.9688 45.5684 15.2715L45.8555 5.5918C45.8828 4.7168 45.2949 4.12891 44.3926 4.12891C43.5039 4.12891 42.916 4.7168 42.9434 5.5918L43.2305 15.2715C43.2578 15.9688 43.7227 16.4336 44.3926 16.4336Z" fill="black" fill-opacity="0.85"/>
  <path d="M19.5098 26.6602C26.8789 26.6602 32.8535 20.6855 32.8535 13.3301C32.8535 5.96094 26.8789 0 19.5098 0C12.1543 0 6.17969 5.96094 6.17969 13.3301C6.17969 20.6855 12.1543 26.6602 19.5098 26.6602ZM19.5098 24.3359C13.4395 24.3359 8.50391 19.4004 8.50391 13.3301C8.50391 7.24609 13.4395 2.31055 19.5098 2.31055C25.5938 2.31055 30.5293 7.24609 30.5293 13.3301C30.5293 19.4004 25.5938 24.3359 19.5098 24.3359ZM0 13.3301C0 17.6641 1.4082 21.6426 3.78711 24.8828C4.21094 25.4707 4.93555 25.5254 5.48242 25.0879C5.97461 24.6641 6.04297 24.0078 5.64648 23.4609C3.56836 20.6309 2.33789 17.1172 2.33789 13.3301C2.33789 9.5293 3.56836 6.0293 5.64648 3.17188C6.04297 2.65234 5.98828 1.98242 5.48242 1.55859C4.93555 1.12109 4.21094 1.18945 3.78711 1.76367C1.4082 5.00391 0 8.99609 0 13.3301ZM39.0195 13.3301C39.0195 8.99609 37.625 5.00391 35.2324 1.76367C34.8086 1.18945 34.084 1.12109 33.5371 1.55859C33.0312 1.98242 32.9902 2.65234 33.373 3.17188C35.4648 6.0293 36.6816 9.5293 36.6816 13.3301C36.6816 17.1172 35.4648 20.6309 33.373 23.4609C32.9902 24.0078 33.0449 24.6641 33.5371 25.0879C34.084 25.5254 34.8086 25.4707 35.2324 24.8828C37.625 21.6426 39.0195 17.6641 39.0195 13.3301ZM10.6777 13.3301C10.6777 15.8184 12.25 17.4863 14.6016 17.4863C15.8457 17.4863 16.8984 16.9531 18.0332 15.873L19.5371 14.4375L21.0273 15.873C22.2031 16.9805 23.2285 17.4863 24.459 17.4863C26.8105 17.4863 28.3965 15.8184 28.3965 13.3301C28.3965 10.8418 26.8105 9.17383 24.459 9.17383C23.2285 9.17383 22.1895 9.66602 21.0273 10.7871L19.5371 12.2227L18.0332 10.7871C16.9121 9.70703 15.8594 9.17383 14.6016 9.17383C12.25 9.17383 10.6777 10.8418 10.6777 13.3301ZM12.291 13.3301C12.291 11.7852 13.207 10.7734 14.6016 10.7734C15.3535 10.7734 16.0098 11.1152 16.9121 11.9629L18.375 13.3301L16.9121 14.6973C16.0371 15.5176 15.3672 15.873 14.6016 15.873C13.207 15.873 12.291 14.875 12.291 13.3301ZM20.6855 13.3301L22.1621 11.9629C23.0508 11.1152 23.7207 10.7734 24.459 10.7734C25.8535 10.7734 26.7832 11.7852 26.7832 13.3301C26.7832 14.8613 25.8535 15.873 24.459 15.873C23.6934 15.873 23.0234 15.5176 22.1621 14.6973Z" fill="black" fill-opacity="0.85"/>
 </g>
</svg>
