<?xml version="1.0" encoding="UTF-8"?>
<!--Generator: Apple Native CoreSVG 326-->
<!DOCTYPE svg
PUBLIC "-//W3C//DTD SVG 1.1//EN"
       "http://www.w3.org/Graphics/SVG/1.1/DTD/svg11.dtd">
<svg version="1.1" xmlns="http://www.w3.org/2000/svg" xmlns:xlink="http://www.w3.org/1999/xlink" viewBox="0 0 29.2031 26.4277">
 <g>
  <rect height="26.4277" opacity="0" width="29.2031" x="0" y="0"/>
  <path d="M19.5098 25.1016C19.8105 25.1016 20.166 24.9648 20.3984 24.7324L28.4375 16.8438C28.7109 16.584 28.8477 16.2559 28.8477 15.9277C28.8477 15.5859 28.7109 15.2715 28.4375 15.0117L20.3984 7.12305C20.166 6.89062 19.8105 6.74023 19.5098 6.74023C18.7852 6.74023 18.3066 7.24609 18.3066 7.94336C18.3066 8.29883 18.416 8.57227 18.6348 8.79102L22.5723 12.6328L25.9629 15.5176L26.1953 14.8887L21.957 14.7109L4.51172 14.7109C3.0625 14.7109 2.43359 14.082 2.43359 12.5918L2.43359 4.51172C2.43359 3.0625 3.0625 2.43359 4.51172 2.43359L12.168 2.43359C12.9199 2.43359 13.4121 1.88672 13.4121 1.2168C13.4121 0.546875 12.9199 0 12.168 0L4.51172 0C1.32617 0 0 1.32617 0 4.51172L0 12.5918C0 15.6816 1.32617 17.1445 4.51172 17.1445L21.957 17.1445L26.1953 16.9531L25.9629 16.3242L22.5723 19.2227L18.6348 23.0645C18.416 23.2832 18.3066 23.543 18.3066 23.8984C18.3066 24.6094 18.7852 25.1016 19.5098 25.1016Z" fill="black" fill-opacity="0.85"/>
 </g>
</svg>
