<?xml version="1.0" encoding="UTF-8"?>
<!--Generator: Apple Native CoreSVG 326-->
<!DOCTYPE svg
PUBLIC "-//W3C//DTD SVG 1.1//EN"
       "http://www.w3.org/Graphics/SVG/1.1/DTD/svg11.dtd">
<svg version="1.1" xmlns="http://www.w3.org/2000/svg" xmlns:xlink="http://www.w3.org/1999/xlink" viewBox="0 0 14.0137 20.2207">
 <g>
  <rect height="20.2207" opacity="0" width="14.0137" x="0" y="0"/>
  <path d="M1.20312 20.2207C1.92773 20.2207 2.39258 19.7422 2.39258 18.9902L2.39258 12.2637L6.76758 12.2637C6.87695 12.2637 7.01367 12.2637 7.12305 12.2637L11.1562 19.4824C11.4434 20.0156 11.7852 20.2207 12.291 20.2207C12.9746 20.2207 13.5078 19.7559 13.5078 19.0996C13.5078 18.8398 13.4121 18.5938 13.2617 18.3066L9.58398 11.8672C12.0996 11.0879 13.5898 8.96875 13.5898 6.23438C13.5898 2.625 11.0605 0.328125 7.19141 0.328125L1.20312 0.328125C0.505859 0.328125 0 0.833984 0 1.54492L0 18.9902C0 19.7422 0.464844 20.2207 1.20312 20.2207ZM2.39258 10.1035L2.39258 2.50195L6.93164 2.50195C9.59766 2.50195 11.1289 3.88281 11.1289 6.30273C11.1289 8.73633 9.66602 10.1035 7.01367 10.1035Z" fill="black" fill-opacity="0.85"/>
 </g>
</svg>
