<?xml version="1.0" encoding="UTF-8"?>
<!--Generator: Apple Native CoreSVG 326-->
<!DOCTYPE svg
PUBLIC "-//W3C//DTD SVG 1.1//EN"
       "http://www.w3.org/Graphics/SVG/1.1/DTD/svg11.dtd">
<svg version="1.1" xmlns="http://www.w3.org/2000/svg" xmlns:xlink="http://www.w3.org/1999/xlink" viewBox="0 0 34.8536 20.4941">
 <g>
  <rect height="20.4941" opacity="0" width="34.8536" x="0" y="0"/>
  <path d="M0.904328 20.4941L2.55862 20.4941C3.25589 20.4941 3.58402 20.166 3.69339 19.6875C5.27933 13.4258 5.3887 6.97266 3.31058 0.601562C3.17386 0.177734 2.88675 0.0273438 2.43558 0.0273438L1.90237 0.0273438C1.47855 0.0273438 1.15042 0.287109 1.27347 0.833984C2.80472 7.5332 2.35355 13.2344 0.0840155 19.2637C-0.162078 19.9473 0.138703 20.4941 0.904328 20.4941ZM31.9805 20.4941L33.4981 20.4941C34.3457 20.4941 34.6055 19.9062 34.4551 19.2637C32.5274 10.377 27.4961 4.33398 22.6289 0.492188C22.1367 0.0957031 21.8633 0.0273438 21.5215 0.0273438L20.9063 0.0273438C20.4961 0.0273438 20.2227 0.519531 20.5645 0.875C26.5801 7 29.4102 12.5645 30.6407 19.373C30.75 20.002 31.0235 20.4941 31.9805 20.4941ZM13.4141 3.58203L13.9473 3.58203C14.5625 3.58203 14.795 3.00781 14.4532 2.50195C13.8516 1.59961 13.2364 0.833984 12.7578 0.341797C12.5254 0.0957031 12.3203 0.0273438 11.9375 0.0273438L11.5274 0.0273438C11.0625 0.0273438 10.7617 0.423828 11.0625 0.875C11.7461 1.91406 12.1289 2.57031 12.3887 3.03516C12.6211 3.45898 12.8946 3.58203 13.4141 3.58203ZM15.9571 10.2812L17.0508 10.2812C17.7071 10.2812 17.8985 9.84375 17.7207 9.32422C17.3926 8.36719 17.0235 7.42383 16.7364 6.75391C16.5176 6.31641 16.2989 6.15234 15.7793 6.15234L14.9453 6.15234C14.4258 6.15234 14.0567 6.45312 14.2891 7.0957C14.5899 7.99805 14.836 8.87305 14.9727 9.50195C15.1094 9.99414 15.3692 10.2812 15.9571 10.2812ZM17.3242 20.4941L18.4043 20.4941C19.0196 20.4941 19.334 20.166 19.3203 19.5234C19.2657 17.6777 19.0332 15.2988 18.6504 13.7812C18.5137 13.2344 18.1582 13.0293 17.666 13.0293L16.8457 13.0293C16.2032 13.0293 15.9024 13.2617 16.0117 14.0547C16.1895 15.4219 16.3262 17.4316 16.3672 19.5371C16.3672 20.1934 16.709 20.4941 17.3242 20.4941Z" fill="black" fill-opacity="0.85"/>
 </g>
</svg>
