<?xml version="1.0" encoding="UTF-8"?>
<!--Generator: Apple Native CoreSVG 326-->
<!DOCTYPE svg
PUBLIC "-//W3C//DTD SVG 1.1//EN"
       "http://www.w3.org/Graphics/SVG/1.1/DTD/svg11.dtd">
<svg version="1.1" xmlns="http://www.w3.org/2000/svg" xmlns:xlink="http://www.w3.org/1999/xlink" viewBox="0 0 33.8652 34.6176">
 <g>
  <rect height="34.6176" opacity="0" width="33.8652" x="0" y="0"/>
  <path d="M33.0039 12.1477C33.4688 12.1477 33.8652 11.7648 33.8652 11.3L33.8652 9.24922C33.8652 5.33907 31.2539 2.7004 27.3301 2.7004L27.043 2.7004L27.043 0.977741C27.043-0.0339782 26.2773-0.2664 25.5117 0.307819L22.0664 2.83712C21.4922 3.26094 21.4785 3.75313 22.0664 4.17696L25.5117 6.69258C26.2773 7.25313 27.043 7.02071 27.043 6.03633L27.043 4.28633L27.3164 4.28633C30.2832 4.28633 32.1562 6.33712 32.1562 9.24922L32.1562 11.3C32.1562 11.7648 32.5391 12.1477 33.0039 12.1477Z" fill="black" fill-opacity="0.85"/>
  <path d="M9.98047 29.8938L23.5293 29.8938C25.8672 29.8938 27.043 28.7863 27.043 26.3938L27.043 12.8723C27.043 10.4797 25.8672 9.3586 23.5293 9.3586L9.98047 9.3586C7.64258 9.3586 6.4668 10.4797 6.4668 12.8723L6.4668 26.3938C6.4668 28.7863 7.64258 29.8938 9.98047 29.8938Z" fill="black" fill-opacity="0.85"/>
 </g>
</svg>
