<?xml version="1.0" encoding="UTF-8"?>
<!--Generator: Apple Native CoreSVG 326-->
<!DOCTYPE svg
PUBLIC "-//W3C//DTD SVG 1.1//EN"
       "http://www.w3.org/Graphics/SVG/1.1/DTD/svg11.dtd">
<svg version="1.1" xmlns="http://www.w3.org/2000/svg" xmlns:xlink="http://www.w3.org/1999/xlink" viewBox="0 0 34.5488 34.6176">
 <g>
  <rect height="34.6176" opacity="0" width="34.5488" x="0" y="0"/>
  <path d="M0.847656 12.1477C1.3125 12.1477 1.70898 11.7648 1.70898 11.3L1.70898 9.24922C1.70898 6.33712 3.58203 4.28633 6.54883 4.28633L6.80859 4.28633L6.80859 6.03633C6.80859 7.02071 7.57422 7.25313 8.33984 6.69258L11.7852 4.17696C12.373 3.75313 12.3594 3.26094 11.7852 2.83712L8.33984 0.307819C7.57422-0.2664 6.80859-0.0339782 6.80859 0.977741L6.80859 2.7004L6.53516 2.7004C2.59766 2.7004 0 5.33907 0 9.24922L0 11.3C0 11.7648 0.382812 12.1477 0.847656 12.1477Z" fill="black" fill-opacity="0.85"/>
  <path d="M23.8711 29.8938C26.209 29.8938 27.3848 28.7863 27.3848 26.3938L27.3848 12.8723C27.3848 10.4797 26.209 9.3586 23.8711 9.3586L10.3223 9.3586C7.98438 9.3586 6.80859 10.4797 6.80859 12.8723L6.80859 26.3938C6.80859 28.7863 7.98438 29.8938 10.3223 29.8938Z" fill="black" fill-opacity="0.85"/>
 </g>
</svg>
