<?xml version="1.0" encoding="UTF-8"?>
<!--Generator: Apple Native CoreSVG 326-->
<!DOCTYPE svg
PUBLIC "-//W3C//DTD SVG 1.1//EN"
       "http://www.w3.org/Graphics/SVG/1.1/DTD/svg11.dtd">
<svg version="1.1" xmlns="http://www.w3.org/2000/svg" xmlns:xlink="http://www.w3.org/1999/xlink" viewBox="0 0 35.7383 24.6018">
 <g>
  <rect height="24.6018" opacity="0" width="35.7383" x="0" y="0"/>
  <path d="M0 13.8527C0 16.7785 0.478516 18.1183 2.65234 19.2394L10.3496 23.1906C13.1797 24.6535 15.2031 25.0226 18.375 24.0929L30.2148 20.6476C33.8652 19.5675 35.3828 17.3937 35.3828 13.8527L35.3828 5.32142C35.3828 2.84681 33.7422 1.16517 31.2812 1.16517L4.12891 1.1515C1.66797 1.1515 0 2.81947 0 5.2804ZM2.20117 13.8527L2.20117 5.32142C2.20117 4.13197 2.98047 3.35267 4.16992 3.35267L31.2539 3.36634C32.416 3.36634 33.1816 4.15931 33.1816 5.36243L33.1816 13.8527C33.1816 16.341 32.1562 17.8312 29.5859 18.5831L18.375 21.9054C15.5312 22.7531 13.877 22.507 11.5254 21.3175L4.04688 17.5031C2.58398 16.7648 2.20117 15.8761 2.20117 13.8527Z" fill="black" fill-opacity="0.85"/>
  <path d="M7.79297 16.8878C8.39453 16.8878 8.75 16.4913 8.75 15.8761L8.75 12.6495L9.99414 12.6495L11.3613 16.0949C11.5527 16.587 11.8398 16.8878 12.373 16.8878C12.7969 16.8878 13.2617 16.6281 13.2617 15.9445C13.2617 15.8077 13.1797 15.5343 13.0566 15.2335L11.8125 12.2531C12.8789 11.7062 13.3301 10.5714 13.3301 9.36829C13.3301 7.23548 12.0586 6.10072 10.0078 6.10072L7.7793 6.10072C7.16406 6.10072 6.82227 6.46986 6.82227 7.08509L6.82227 15.8761C6.82227 16.4777 7.16406 16.8878 7.79297 16.8878ZM8.75 11.2413L8.75 7.61829L9.83008 7.61829C10.8418 7.61829 11.3887 8.35658 11.3887 9.40931C11.3887 10.462 10.9102 11.2413 9.83008 11.2413ZM18.0332 16.9425C20.0703 16.9425 21.3281 15.7941 21.3281 13.7843C21.3281 12.089 20.4805 11.296 18.9355 10.7218L18.2109 10.4347C17.3496 10.1066 16.7344 9.6554 16.7344 8.73939C16.7344 7.94642 17.2129 7.38587 17.9922 7.38587C18.8125 7.38587 19.2363 7.97376 19.4004 8.65736C19.5234 9.10853 19.8379 9.28626 20.2617 9.28626C20.7812 9.28626 21.0957 8.95814 21.0957 8.47962C21.0957 8.35658 21.082 8.2472 21.0273 7.98743C20.6309 6.5929 19.4414 5.82728 17.9922 5.82728C16.1738 5.82728 14.8613 6.98939 14.8613 8.88978C14.8613 10.5441 15.8594 11.4327 17.1992 11.9523L17.9238 12.2257C18.7988 12.5675 19.4551 12.9777 19.4551 13.9484C19.4551 14.796 18.9355 15.3839 18.0605 15.3839C17.1992 15.3839 16.6797 14.8097 16.5293 14.0988C16.4199 13.6339 16.0781 13.4288 15.6543 13.4288C15.1348 13.4288 14.8066 13.798 14.8066 14.3038C14.8066 14.5363 14.8203 14.6183 14.9023 14.8507C15.2988 16.2316 16.543 16.9425 18.0332 16.9425ZM23.9258 16.7238L26.7148 16.7238C28.5742 16.7238 29.6543 15.4796 29.6543 13.716C29.6543 12.4308 28.875 11.255 27.6309 11.132L27.6309 11.0636C28.6289 10.8995 29.3125 9.77845 29.3125 8.73939C29.3125 7.05775 28.1914 6.08704 26.6465 6.08704L23.9258 6.08704C23.3105 6.08704 22.9824 6.52454 22.9824 7.09876L22.9824 15.7257C22.9824 16.3273 23.3242 16.7238 23.9258 16.7238ZM24.8691 10.5988L24.8691 7.54993L26.0996 7.54993C27.084 7.54993 27.4805 8.17884 27.4805 9.0265C27.4805 10.0109 26.9199 10.5988 25.9492 10.5988ZM24.8691 15.2609L24.8691 11.8839L26.0859 11.8839C27.0566 11.8839 27.7266 12.4035 27.7266 13.5656C27.7266 14.6183 27.1934 15.2609 26.1406 15.2609Z" fill="black" fill-opacity="0.85"/>
 </g>
</svg>
