<?xml version="1.0" encoding="UTF-8"?>
<!--Generator: Apple Native CoreSVG 326-->
<!DOCTYPE svg
PUBLIC "-//W3C//DTD SVG 1.1//EN"
       "http://www.w3.org/Graphics/SVG/1.1/DTD/svg11.dtd">
<svg version="1.1" xmlns="http://www.w3.org/2000/svg" xmlns:xlink="http://www.w3.org/1999/xlink" viewBox="0 0 31.8965 23.8574">
 <g>
  <rect height="23.8574" opacity="0" width="31.8965" x="0" y="0"/>
  <path d="M11.4707 0C3.54102 0 0 3.65039 0 11.1152L0 19.6875C0 22.4492 1.42188 23.8438 4.19727 23.8438L27.3438 23.8438C30.1191 23.8438 31.541 22.4355 31.541 19.6875L31.541 11.1152C31.541 3.65039 28 0 20.0703 0Z" fill="black" fill-opacity="0.85"/>
  <path d="M9.63867 17.5957C8.98242 17.5957 8.61328 17.1719 8.61328 16.543L8.61328 7.49219C8.61328 6.84961 8.96875 6.4668 9.625 6.4668L11.9082 6.4668C14.0273 6.4668 15.3535 7.64258 15.3535 9.84375C15.3535 11.0742 14.875 12.25 13.7812 12.8242L15.0664 15.873C15.1895 16.1875 15.2715 16.4746 15.2715 16.625C15.2715 17.3223 14.793 17.5957 14.3555 17.5957C13.7949 17.5957 13.5078 17.2949 13.3027 16.7754L11.8945 13.2344L10.623 13.2344L10.623 16.543C10.623 17.1855 10.2539 17.5957 9.63867 17.5957ZM10.623 11.7578L11.7305 11.7578C12.8379 11.7578 13.3301 10.9648 13.3301 9.88477C13.3301 8.80469 12.7695 8.03906 11.7305 8.03906L10.623 8.03906ZM19.9609 17.582C19.4141 17.582 18.9766 17.1309 18.9766 16.584L18.9766 8.09375L17.2812 8.09375C16.8164 8.09375 16.4609 7.72461 16.4609 7.25977C16.4609 6.80859 16.8164 6.45312 17.2812 6.45312L22.5996 6.45312C23.0508 6.45312 23.4062 6.80859 23.4062 7.25977C23.4062 7.72461 23.0508 8.09375 22.5996 8.09375L20.959 8.09375L20.959 16.584C20.959 17.1309 20.5078 17.582 19.9609 17.582Z" fill="white"/>
 </g>
</svg>
