<?xml version="1.0" encoding="UTF-8"?>
<!--Generator: Apple Native CoreSVG 326-->
<!DOCTYPE svg
PUBLIC "-//W3C//DTD SVG 1.1//EN"
       "http://www.w3.org/Graphics/SVG/1.1/DTD/svg11.dtd">
<svg version="1.1" xmlns="http://www.w3.org/2000/svg" xmlns:xlink="http://www.w3.org/1999/xlink" viewBox="0 0 33.291 27.4395">
 <g>
  <rect height="27.4395" opacity="0" width="33.291" x="0" y="0"/>
  <path d="M32.9355 16.4609C32.9355 12.4414 31.4863 8.73633 29.0664 5.86523C28.793 5.53711 28.3281 5.53711 28.0273 5.85156L24.8555 9.02344C24.5957 9.2832 24.582 9.65234 24.8145 9.93945C26.2227 11.7441 27.0703 14.0137 27.0703 16.4609C27.0703 18.9219 26.2227 21.1914 24.7324 23.0918C24.541 23.3242 24.5547 23.625 24.7598 23.8438L28.0137 27.0977C28.3281 27.4121 28.7793 27.4121 29.0664 27.0703C31.4863 24.1992 32.9355 20.4941 32.9355 16.4609Z" fill="black" fill-opacity="0.85"/>
  <path d="M16.4609 5.86523C18.9355 5.86523 21.2051 6.72656 23.0234 8.13477C23.2969 8.35352 23.6523 8.32617 23.9121 8.06641L27.084 4.89453C27.3984 4.58008 27.3848 4.12891 27.0566 3.85547C24.1992 1.44922 20.4941 0 16.4609 0C12.4414 0 8.73633 1.44922 5.87891 3.85547C5.55078 4.12891 5.53711 4.58008 5.85156 4.89453L9.02344 8.06641C9.2832 8.32617 9.65234 8.35352 9.95312 8.12109C11.7578 6.72656 14.0137 5.86523 16.4609 5.86523Z" fill="black" fill-opacity="0.85"/>
  <path d="M0 16.4609C0 20.4941 1.44922 24.1992 3.86914 27.0703C4.14258 27.4121 4.60742 27.4121 4.9082 27.0977L8.16211 23.8438C8.36719 23.625 8.39453 23.3242 8.20312 23.0918C6.71289 21.1914 5.86523 18.9219 5.86523 16.4609C5.86523 14.0137 6.69922 11.7441 8.12109 9.93945C8.33984 9.65234 8.33984 9.2832 8.08008 9.02344L4.9082 5.85156C4.59375 5.53711 4.14258 5.53711 3.86914 5.86523C1.44922 8.73633 0 12.4414 0 16.4609Z" fill="black" fill-opacity="0.85"/>
  <path d="M14.1094 22.9414C14.6152 22.9414 14.916 22.6133 14.916 22.1211L14.916 20.7676L18.1973 20.7676C18.4707 20.7676 18.6348 20.6035 18.6348 20.3164C18.6348 20.043 18.4707 19.8652 18.1973 19.8652L14.916 19.8652L14.916 18.1016L17.3633 18.1016C19.9336 18.1016 21.3418 16.3789 21.3418 14.3281C21.3418 12.1953 19.8789 10.5273 17.4043 10.5273L14.123 10.5273C13.6582 10.5273 13.3301 10.8691 13.3301 11.3613L13.3301 17.1719L11.9082 17.1719C11.6211 17.1719 11.457 17.3633 11.457 17.6367C11.457 17.9238 11.6211 18.1016 11.9082 18.1016L13.3301 18.1016L13.3301 19.8652L11.9082 19.8652C11.6211 19.8652 11.457 20.043 11.457 20.3164C11.457 20.6035 11.6211 20.7676 11.9082 20.7676L13.3301 20.7676L13.3301 22.1211C13.3301 22.6133 13.6309 22.9414 14.1094 22.9414ZM14.916 16.7617L14.916 11.8945L16.9805 11.8945C18.9219 11.8945 19.7012 12.9746 19.7012 14.3281C19.7012 15.9004 18.6484 16.7617 16.9805 16.7617Z" fill="black" fill-opacity="0.85"/>
 </g>
</svg>
