<?xml version="1.0" encoding="UTF-8"?>
<!--Generator: Apple Native CoreSVG 326-->
<!DOCTYPE svg
PUBLIC "-//W3C//DTD SVG 1.1//EN"
       "http://www.w3.org/Graphics/SVG/1.1/DTD/svg11.dtd">
<svg version="1.1" xmlns="http://www.w3.org/2000/svg" xmlns:xlink="http://www.w3.org/1999/xlink" viewBox="0 0 30.8848 29.1895">
 <g>
  <rect height="29.1895" opacity="0" width="30.8848" x="0" y="0"/>
  <path d="M1.81836 25.9219L28.7109 25.9219L28.7109 25.0059C28.7109 24.459 28.3965 24.1309 27.8359 24.1309L26.9609 24.1309L26.9609 9.37891L28.1641 9.37891C28.916 9.37891 29.3535 8.83203 29.3535 8.27148C29.3535 7.86133 29.1211 7.50586 28.6152 7.21875L16.9395 0.478516C16.3926 0.164062 15.8184 0 15.2578 0C14.6973 0 14.1094 0.164062 13.5898 0.478516L1.91406 7.21875C1.39453 7.50586 1.17578 7.86133 1.17578 8.27148C1.17578 8.83203 1.61328 9.37891 2.36523 9.37891L3.56836 9.37891L3.56836 24.1309L2.70703 24.1309C2.14648 24.1309 1.81836 24.459 1.81836 25.0059ZM5.63281 24.1309L5.63281 7.62891L14.7246 2.5293C14.8887 2.43359 15.0801 2.37891 15.2578 2.37891C15.4355 2.37891 15.627 2.43359 15.8047 2.5293L24.8965 7.62891L24.8965 24.1309ZM1.09375 29.1758L29.4219 29.1758C30.0234 29.1758 30.5293 28.6699 30.5293 28.0684C30.5293 27.4668 30.0234 26.9746 29.4219 26.9746L1.09375 26.9746C0.492188 26.9746 0 27.4668 0 28.0684C0 28.6699 0.492188 29.1758 1.09375 29.1758Z" fill="black" fill-opacity="0.85"/>
  <path d="M12.9336 20.6855C13.4395 20.6855 13.7402 20.3574 13.7402 19.8652L13.7402 18.5117L17.0215 18.5117C17.2812 18.5117 17.459 18.3477 17.459 18.0605C17.459 17.7871 17.2812 17.6094 17.0215 17.6094L13.7402 17.6094L13.7402 15.8457L16.1875 15.8457C18.7441 15.8457 20.166 14.123 20.166 12.0723C20.166 9.93945 18.7031 8.27148 16.2148 8.27148L12.9473 8.27148C12.4688 8.27148 12.1406 8.61328 12.1406 9.10547L12.1406 14.916L10.7324 14.916C10.4453 14.916 10.2676 15.1074 10.2676 15.3809C10.2676 15.668 10.4453 15.8457 10.7324 15.8457L12.1406 15.8457L12.1406 17.6094L10.7324 17.6094C10.4453 17.6094 10.2676 17.7871 10.2676 18.0605C10.2676 18.3477 10.4453 18.5117 10.7324 18.5117L12.1406 18.5117L12.1406 19.8652C12.1406 20.3574 12.4414 20.6855 12.9336 20.6855ZM13.7402 14.5059L13.7402 9.63867L15.8047 9.63867C17.7461 9.63867 18.5254 10.7188 18.5254 12.0723C18.5254 13.6445 17.4727 14.5059 15.8047 14.5059Z" fill="black" fill-opacity="0.85"/>
 </g>
</svg>
