<?xml version="1.0" encoding="UTF-8"?>
<!--Generator: Apple Native CoreSVG 326-->
<!DOCTYPE svg
PUBLIC "-//W3C//DTD SVG 1.1//EN"
       "http://www.w3.org/Graphics/SVG/1.1/DTD/svg11.dtd">
<svg version="1.1" xmlns="http://www.w3.org/2000/svg" xmlns:xlink="http://www.w3.org/1999/xlink" viewBox="0 0 25.5254 25.1699">
 <g>
  <rect height="25.1699" opacity="0" width="25.5254" x="0" y="0"/>
  <path d="M4.29297 25.1699L20.877 25.1699C23.748 25.1699 25.1699 23.7617 25.1699 20.9453L25.1699 4.23828C25.1699 1.42188 23.748 0 20.877 0L4.29297 0C1.43555 0 0 1.42188 0 4.23828L0 20.9453C0 23.7617 1.43555 25.1699 4.29297 25.1699ZM4.32031 22.9688C2.95312 22.9688 2.20117 22.2441 2.20117 20.8223L2.20117 4.36133C2.20117 2.93945 2.95312 2.20117 4.32031 2.20117L20.8496 2.20117C22.2031 2.20117 22.9688 2.93945 22.9688 4.36133L22.9688 20.8223C22.9688 22.2441 22.2031 22.9688 20.8496 22.9688Z" fill="black" fill-opacity="0.85"/>
  <path d="M7.28711 18.1562C7.7793 18.1562 8.06641 17.8418 8.06641 17.3496L8.06641 13.6445L9.74805 13.6445L11.416 17.5957C11.5801 17.9648 11.7988 18.1562 12.1953 18.1562C12.6328 18.1562 12.9746 17.8691 12.9746 17.4316C12.9746 17.2402 12.8926 17.0762 12.7969 16.8574L11.252 13.3164C12.4414 12.7969 13.002 11.6074 13.002 10.3223C13.002 8.49023 11.9492 7.05469 9.67969 7.05469L7.27344 7.05469C6.80859 7.05469 6.50781 7.36914 6.50781 7.84766L6.50781 17.3496C6.50781 17.8418 6.79492 18.1562 7.28711 18.1562ZM8.06641 12.4004L8.06641 8.35352L9.5293 8.35352C10.7598 8.35352 11.4434 9.13281 11.4434 10.3496C11.4434 11.5938 10.8008 12.4004 9.54297 12.4004ZM17.0215 18.1699C18.6074 18.1699 19.9473 17.2812 19.9473 15.6543C19.9473 14.3281 19.168 13.7676 17.8555 13.4121L16.7617 13.1113C16.1328 12.9473 15.6406 12.6191 15.6406 11.9766C15.6406 11.2246 16.2285 10.7598 16.9805 10.7598C17.7734 10.7598 18.2656 11.1973 18.5527 11.8398C18.6484 12.0312 18.8535 12.168 19.0859 12.168C19.5098 12.168 19.6738 11.9082 19.6738 11.6211C19.6738 11.5254 19.6465 11.375 19.6055 11.252C19.3184 10.2812 18.2656 9.625 17.0215 9.625C15.2988 9.625 14.1641 10.582 14.1641 12.0449C14.1641 13.3164 15.0117 14 16.2285 14.3145L17.3359 14.6016C18.0195 14.7793 18.457 15.1211 18.457 15.8047C18.457 16.543 17.9102 17.0352 17.0898 17.0352C16.1875 17.0352 15.7227 16.7344 15.2852 15.9414C15.1211 15.6406 14.875 15.5176 14.6426 15.5176C14.2871 15.5176 14.0273 15.7637 14.0273 16.1191C14.0273 16.2148 14.0684 16.3379 14.0957 16.4746C14.4648 17.6367 15.7773 18.1699 17.0215 18.1699Z" fill="black" fill-opacity="0.85"/>
 </g>
</svg>
