<?xml version="1.0" encoding="UTF-8"?>
<!--Generator: Apple Native CoreSVG 326-->
<!DOCTYPE svg
PUBLIC "-//W3C//DTD SVG 1.1//EN"
       "http://www.w3.org/Graphics/SVG/1.1/DTD/svg11.dtd">
<svg version="1.1" xmlns="http://www.w3.org/2000/svg" xmlns:xlink="http://www.w3.org/1999/xlink" viewBox="0 0 28.2461 27.9043">
 <g>
  <rect height="27.9043" opacity="0" width="28.2461" x="0" y="0"/>
  <path d="M13.9453 27.8906C21.6426 27.8906 27.8906 21.6289 27.8906 13.9453C27.8906 6.24805 21.6426 0 13.9453 0C6.26172 0 0 6.24805 0 13.9453C0 21.6289 6.26172 27.8906 13.9453 27.8906Z" fill="black" fill-opacity="0.85"/>
  <path d="M8.44922 19.7012C7.94336 19.7012 7.64258 19.373 7.64258 18.8535L7.64258 9.06445C7.64258 8.57227 7.94336 8.24414 8.43555 8.24414L10.9238 8.24414C13.2617 8.24414 14.3555 9.73438 14.3555 11.6211C14.3555 12.9473 13.7812 14.1641 12.5508 14.7109L14.1367 18.3477C14.2324 18.5801 14.3281 18.7441 14.3281 18.9492C14.3281 19.4004 13.9727 19.7012 13.5215 19.7012C13.1113 19.7012 12.8652 19.4961 12.7148 19.1133L10.9922 15.0527L9.26953 15.0527L9.26953 18.8535C9.26953 19.373 8.96875 19.7012 8.44922 19.7012ZM9.26953 13.7539L10.7871 13.7539C12.0586 13.7539 12.7422 12.9336 12.7422 11.6484C12.7422 10.3906 12.0312 9.59766 10.7734 9.59766L9.26953 9.59766ZM18.498 19.7148C17.1992 19.7148 15.8594 19.1543 15.4766 17.9648C15.4492 17.8145 15.4082 17.6914 15.4082 17.5957C15.4082 17.2266 15.668 16.9668 16.0371 16.9668C16.2832 16.9668 16.543 17.1035 16.707 17.4043C17.1582 18.2246 17.6367 18.5391 18.5664 18.5391C19.4141 18.5391 19.9746 18.0332 19.9746 17.2676C19.9746 16.5703 19.5234 16.2148 18.8125 16.0371L17.6777 15.7363C16.4062 15.4082 15.5449 14.7109 15.5449 13.3984C15.5449 11.8809 16.7207 10.8965 18.498 10.8965C19.7695 10.8965 20.8633 11.5664 21.1641 12.5781C21.2051 12.7012 21.2324 12.8516 21.2324 12.9609C21.2324 13.248 21.0684 13.5215 20.6172 13.5215C20.3848 13.5215 20.166 13.3848 20.0703 13.1797C19.7695 12.5234 19.2637 12.0723 18.457 12.0723C17.6777 12.0723 17.0625 12.5508 17.0625 13.3301C17.0625 13.9863 17.582 14.3281 18.2246 14.4922L19.3594 14.8066C20.7129 15.1621 21.5195 15.75 21.5195 17.1172C21.5195 18.7988 20.125 19.7148 18.498 19.7148Z" fill="white"/>
 </g>
</svg>
