<?xml version="1.0" encoding="UTF-8"?>
<!--Generator: Apple Native CoreSVG 326-->
<!DOCTYPE svg
PUBLIC "-//W3C//DTD SVG 1.1//EN"
       "http://www.w3.org/Graphics/SVG/1.1/DTD/svg11.dtd">
<svg version="1.1" xmlns="http://www.w3.org/2000/svg" xmlns:xlink="http://www.w3.org/1999/xlink" viewBox="0 0 30.8342 30.5061">
 <g>
  <rect height="30.5061" opacity="0" width="30.8342" x="0" y="0"/>
  <path d="M11.172 5.90832C12.088 5.49817 13.0587 5.2384 14.0841 5.11535C14.3712 5.08801 14.5763 4.86926 14.5763 4.58215L14.5763 0.56262C14.5763 0.220824 14.3165-0.0252702 13.9747 0.0157454C12.1154 0.166136 10.338 0.671995 8.71106 1.43762C8.41028 1.58801 8.31457 1.94348 8.47864 2.23059L10.4747 5.6759C10.6114 5.922 10.8986 6.0177 11.172 5.90832Z" fill="black" fill-opacity="0.85"/>
  <path d="M7.04309 9.1759C7.64465 8.36926 8.35559 7.65832 9.1759 7.05676C9.40832 6.87903 9.46301 6.57825 9.32629 6.33215L7.3302 2.88684C7.16614 2.59973 6.81067 2.5177 6.52356 2.7091C5.03332 3.76184 3.74817 5.047 2.7091 6.5509C2.5177 6.83801 2.58606 7.17981 2.88684 7.35754L6.34582 9.32629C6.59192 9.47668 6.86535 9.422 7.04309 9.1759Z" fill="black" fill-opacity="0.85"/>
  <path d="M5.10168 14.0841C5.22473 13.0724 5.4845 12.088 5.88098 11.1993C6.00403 10.9259 5.922 10.6388 5.66223 10.4884L2.20325 8.50598C1.90246 8.32825 1.56067 8.43762 1.42395 8.7384C0.658324 10.3654 0.166136 12.1154 0.00207356 13.9884C-0.0115983 14.3302 0.220824 14.5763 0.56262 14.5763L4.58215 14.5763C4.86926 14.5763 5.08801 14.3849 5.10168 14.0841Z" fill="black" fill-opacity="0.85"/>
  <path d="M5.88098 19.3204C5.49817 18.4181 5.2384 17.4337 5.11535 16.4083C5.08801 16.1075 4.86926 15.9161 4.58215 15.9161L0.56262 15.9161C0.220824 15.9161-0.0252702 16.1622 0.00207356 16.504C0.152464 18.3907 0.658324 20.1544 1.43762 21.7814C1.57434 22.0958 1.90246 22.2052 2.21692 22.0275L5.66223 20.0177C5.922 19.8673 6.00403 19.5802 5.88098 19.3204Z" fill="black" fill-opacity="0.85"/>
  <path d="M9.1759 23.4493C8.36926 22.8614 7.64465 22.1505 7.05676 21.3302C6.87903 21.0978 6.59192 21.0294 6.33215 21.1798L2.88684 23.1486C2.58606 23.3263 2.5177 23.6818 2.69543 23.9689C3.74817 25.4591 5.047 26.7443 6.53723 27.797C6.82434 27.9884 7.17981 27.9064 7.34387 27.6193L9.32629 24.1603C9.46301 23.9142 9.40832 23.6271 9.1759 23.4493Z" fill="black" fill-opacity="0.85"/>
  <path d="M14.0841 25.3907C13.0724 25.2677 12.088 25.0079 11.1857 24.6251C10.9259 24.4884 10.6251 24.5841 10.4884 24.8302L8.49231 28.2755C8.32825 28.5763 8.42395 28.9318 8.7384 29.0685C10.3517 29.8341 12.1154 30.34 13.9747 30.504C14.3165 30.5177 14.5763 30.2853 14.5763 29.9435L14.5763 25.9239C14.5763 25.6368 14.3712 25.4181 14.0841 25.3907Z" fill="black" fill-opacity="0.85"/>
  <path d="M19.3068 24.6114C18.4181 25.0079 17.4337 25.2677 16.3947 25.3907C16.1075 25.4181 15.9025 25.6368 15.9025 25.9239L15.9025 29.9435C15.9025 30.2853 16.1622 30.5314 16.504 30.504C18.3634 30.3536 20.1544 29.8341 21.7677 29.0685C22.0685 28.9318 22.1642 28.5763 22.0001 28.2755L20.004 24.8302C19.8673 24.5841 19.5802 24.4884 19.3068 24.6114Z" fill="black" fill-opacity="0.85"/>
  <path d="M23.4493 21.3302C22.8478 22.1368 22.1232 22.8341 21.3165 23.4493C21.0841 23.6271 21.0157 23.9279 21.1525 24.1603L23.1486 27.6056C23.3126 27.8927 23.6681 27.9884 23.9552 27.797C25.4591 26.7443 26.7306 25.4454 27.7833 23.9689C27.9747 23.6818 27.879 23.3263 27.5919 23.1486L24.1466 21.1661C23.9142 21.0157 23.6271 21.0978 23.4493 21.3302Z" fill="black" fill-opacity="0.85"/>
  <path d="M25.3907 16.4083C25.2677 17.4337 25.0079 18.4181 24.5978 19.3204C24.4884 19.5802 24.5704 19.8536 24.8302 20.004L28.2755 21.9864C28.5763 22.1642 28.9181 22.0822 29.0685 21.754C29.8204 20.1407 30.3263 18.3771 30.4767 16.504C30.4904 16.1622 30.2579 15.9161 29.9161 15.9161L25.9103 15.9161C25.6232 15.9161 25.4044 16.1075 25.3907 16.4083Z" fill="black" fill-opacity="0.85"/>
  <path d="M24.5978 11.1857C24.9806 12.088 25.2677 13.0724 25.3771 14.0841C25.4044 14.3849 25.6232 14.5763 25.9103 14.5763L29.9161 14.5763C30.2579 14.5763 30.504 14.3302 30.4767 13.9884C30.3263 12.129 29.8204 10.3517 29.0685 8.7384C28.9181 8.42395 28.5626 8.32825 28.2755 8.50598L24.8165 10.5021C24.5704 10.6525 24.4884 10.9259 24.5978 11.1857Z" fill="black" fill-opacity="0.85"/>
  <path d="M21.3165 7.05676C22.1232 7.65832 22.8341 8.35559 23.4493 9.1759C23.6271 9.40832 23.9142 9.49035 24.1466 9.33996L27.5919 7.35754C27.8927 7.17981 27.9747 6.83801 27.797 6.5509C26.7443 5.047 25.4454 3.74817 23.9552 2.7091C23.6681 2.5177 23.3126 2.59973 23.1486 2.90051L21.1661 6.33215C21.0157 6.59192 21.0704 6.87903 21.3165 7.05676Z" fill="black" fill-opacity="0.85"/>
  <path d="M16.3947 5.11535C17.4337 5.22473 18.3907 5.49817 19.3068 5.90832C19.5802 6.0177 19.8673 5.922 20.004 5.6759L22.0001 2.23059C22.1642 1.94348 22.0548 1.58801 21.7404 1.43762C20.1271 0.671995 18.3771 0.166136 16.504 0.0157454C16.1622-0.0115983 15.9025 0.234495 15.9025 0.576292L15.9025 4.58215C15.9025 4.86926 16.1075 5.08801 16.3947 5.11535Z" fill="black" fill-opacity="0.85"/>
  <path d="M9.92785 20.8243C10.4064 20.8243 10.7072 20.5099 10.7072 20.0177L10.7072 16.3126L12.3751 16.3126L14.0568 20.2638C14.2072 20.6329 14.4396 20.8243 14.8361 20.8243C15.2736 20.8243 15.6017 20.5372 15.6017 20.0997C15.6017 19.9083 15.5333 19.7443 15.4376 19.5255L13.8927 15.9845C15.0822 15.465 15.6427 14.2755 15.6427 12.9904C15.6427 11.1583 14.59 9.72278 12.3204 9.72278L9.91418 9.72278C9.43567 9.72278 9.13489 10.0372 9.13489 10.5157L9.13489 20.0177C9.13489 20.5099 9.43567 20.8243 9.92785 20.8243ZM10.7072 15.0685L10.7072 11.0216L12.17 11.0216C13.3868 11.0216 14.0841 11.8009 14.0841 13.0177C14.0841 14.2618 13.4279 15.0685 12.1837 15.0685ZM19.6622 20.838C21.2482 20.838 22.588 19.9493 22.588 18.3224C22.588 16.9962 21.8087 16.4357 20.4962 16.0802L19.3888 15.7794C18.7736 15.6154 18.2677 15.2872 18.2677 14.6447C18.2677 13.8927 18.8693 13.4279 19.6075 13.4279C20.4142 13.4279 20.9064 13.8654 21.1935 14.5079C21.2892 14.6993 21.4943 14.8361 21.713 14.8361C22.1505 14.8361 22.3146 14.5763 22.3146 14.2892C22.3146 14.1935 22.2872 14.0431 22.2462 13.92C21.9591 12.9493 20.9064 12.2931 19.6622 12.2931C17.9259 12.2931 16.8048 13.2501 16.8048 14.713C16.8048 15.9845 17.6388 16.6681 18.8556 16.9825L19.9767 17.2697C20.6466 17.4474 21.0978 17.7892 21.0978 18.4728C21.0978 19.2111 20.5509 19.7032 19.7169 19.7032C18.8282 19.7032 18.3497 19.4025 17.9122 18.6095C17.7482 18.3087 17.5157 18.1857 17.2833 18.1857C16.9279 18.1857 16.6681 18.4318 16.6681 18.7872C16.6681 18.8829 16.6954 19.006 16.7364 19.1427C17.1056 20.3048 18.4044 20.838 19.6622 20.838Z" fill="black" fill-opacity="0.85"/>
 </g>
</svg>
