<?xml version="1.0" encoding="UTF-8"?>
<!--Generator: Apple Native CoreSVG 326-->
<!DOCTYPE svg
PUBLIC "-//W3C//DTD SVG 1.1//EN"
       "http://www.w3.org/Graphics/SVG/1.1/DTD/svg11.dtd">
<svg version="1.1" xmlns="http://www.w3.org/2000/svg" xmlns:xlink="http://www.w3.org/1999/xlink" viewBox="0 0 33.291 27.4395">
 <g>
  <rect height="27.4395" opacity="0" width="33.291" x="0" y="0"/>
  <path d="M32.9355 16.4609C32.9355 12.4414 31.4863 8.73633 29.0664 5.86523C28.793 5.53711 28.3281 5.53711 28.0273 5.85156L24.8555 9.02344C24.5957 9.2832 24.582 9.65234 24.8145 9.93945C26.2227 11.7441 27.0703 14.0137 27.0703 16.4609C27.0703 18.9219 26.2227 21.1914 24.7324 23.0918C24.541 23.3242 24.5547 23.625 24.7598 23.8438L28.0137 27.0977C28.3281 27.4121 28.7793 27.4121 29.0664 27.0703C31.4863 24.1992 32.9355 20.4941 32.9355 16.4609Z" fill="black" fill-opacity="0.85"/>
  <path d="M16.4609 5.86523C18.9355 5.86523 21.2051 6.72656 23.0234 8.13477C23.2969 8.35352 23.6523 8.32617 23.9121 8.06641L27.084 4.89453C27.3984 4.58008 27.3848 4.12891 27.0566 3.85547C24.1992 1.44922 20.4941 0 16.4609 0C12.4414 0 8.73633 1.44922 5.87891 3.85547C5.55078 4.12891 5.53711 4.58008 5.85156 4.89453L9.02344 8.06641C9.2832 8.32617 9.65234 8.35352 9.95312 8.12109C11.7578 6.72656 14.0137 5.86523 16.4609 5.86523Z" fill="black" fill-opacity="0.85"/>
  <path d="M0 16.4609C0 20.4941 1.44922 24.1992 3.86914 27.0703C4.14258 27.4121 4.60742 27.4121 4.9082 27.0977L8.16211 23.8438C8.36719 23.625 8.39453 23.3242 8.20312 23.0918C6.71289 21.1914 5.86523 18.9219 5.86523 16.4609C5.86523 14.0137 6.69922 11.7441 8.12109 9.93945C8.33984 9.65234 8.33984 9.2832 8.08008 9.02344L4.9082 5.85156C4.59375 5.53711 4.14258 5.53711 3.86914 5.86523C1.44922 8.73633 0 12.4414 0 16.4609Z" fill="black" fill-opacity="0.85"/>
  <path d="M11.1426 22.2305C11.6348 22.2305 11.9219 21.9023 11.9219 21.4102L11.9219 17.7188L13.6035 17.7188L15.2852 21.6562C15.4355 22.0254 15.668 22.2305 16.0508 22.2305C16.4883 22.2305 16.8301 21.9434 16.8301 21.4922C16.8301 21.3008 16.748 21.1504 16.666 20.9316L15.1074 17.377C16.3105 16.8574 16.8711 15.668 16.8711 14.3965C16.8711 12.5645 15.8184 11.1152 13.5352 11.1152L11.1289 11.1152C10.6641 11.1152 10.3633 11.4297 10.3633 11.9082L10.3633 21.4102C10.3633 21.9023 10.6504 22.2305 11.1426 22.2305ZM11.9219 16.4609L11.9219 12.4141L13.3848 12.4141C14.6152 12.4141 15.2988 13.1934 15.2988 14.4238C15.2988 15.6543 14.6562 16.4609 13.3984 16.4609ZM20.877 22.2441C22.4629 22.2441 23.8027 21.3418 23.8027 19.7148C23.8027 18.4023 23.0234 17.8281 21.7246 17.4727L20.6172 17.1719C20.002 17.0078 19.4961 16.6934 19.4961 16.0371C19.4961 15.2852 20.084 14.8203 20.8359 14.8203C21.6289 14.8203 22.1211 15.2578 22.4082 15.9004C22.5039 16.1055 22.709 16.2422 22.9414 16.2422C23.3652 16.2422 23.5293 15.9824 23.5293 15.6816C23.5293 15.5859 23.502 15.4355 23.4609 15.3125C23.1738 14.3555 22.1211 13.6855 20.877 13.6855C19.1543 13.6855 18.0195 14.6426 18.0195 16.1191C18.0195 17.3906 18.8672 18.0605 20.084 18.375L21.2051 18.6758C21.875 18.8535 22.3262 19.1816 22.3262 19.8652C22.3262 20.6035 21.7793 21.0957 20.9453 21.0957C20.0566 21.0957 19.5781 20.7949 19.1406 20.002C18.9766 19.7012 18.7305 19.5781 18.498 19.5781C18.1426 19.5781 17.8828 19.8242 17.8828 20.1797C17.8828 20.2891 17.9238 20.4121 17.9648 20.5352C18.3203 21.7109 19.6328 22.2441 20.877 22.2441Z" fill="black" fill-opacity="0.85"/>
 </g>
</svg>
