<?xml version="1.0" encoding="UTF-8"?>
<!--Generator: Apple Native CoreSVG 326-->
<!DOCTYPE svg
PUBLIC "-//W3C//DTD SVG 1.1//EN"
       "http://www.w3.org/Graphics/SVG/1.1/DTD/svg11.dtd">
<svg version="1.1" xmlns="http://www.w3.org/2000/svg" xmlns:xlink="http://www.w3.org/1999/xlink" viewBox="0 0 25.5254 25.1699">
 <g>
  <rect height="25.1699" opacity="0" width="25.5254" x="0" y="0"/>
  <path d="M4.29297 25.1699L20.877 25.1699C23.748 25.1699 25.1699 23.7617 25.1699 20.9453L25.1699 4.23828C25.1699 1.42188 23.748 0 20.877 0L4.29297 0C1.43555 0 0 1.42188 0 4.23828L0 20.9453C0 23.7617 1.43555 25.1699 4.29297 25.1699ZM4.32031 22.9688C2.95312 22.9688 2.20117 22.2441 2.20117 20.8223L2.20117 4.36133C2.20117 2.93945 2.95312 2.20117 4.32031 2.20117L20.8496 2.20117C22.2031 2.20117 22.9688 2.93945 22.9688 4.36133L22.9688 20.8223C22.9688 22.2441 22.2031 22.9688 20.8496 22.9688Z" fill="black" fill-opacity="0.85"/>
  <path d="M12.4551 18.9902C15.5176 18.9902 17.5273 17.5 17.5273 15.1484C17.5273 13.3438 16.2148 12.3457 13.8086 11.7031L11.9766 11.2109C10.6641 10.8691 10.1172 10.3633 10.1172 9.5293C10.1172 8.38086 11.0605 7.65625 12.5098 7.65625C13.8906 7.65625 14.7656 8.20312 15.2305 9.33789C15.4219 9.78906 15.709 10.0352 16.2422 10.0352C16.7891 10.0352 17.1992 9.7207 17.1992 9.0918C17.1992 8.91406 17.1582 8.68164 17.0762 8.43555C16.5566 6.98633 14.916 5.91992 12.6055 5.91992C9.80273 5.91992 7.84766 7.47852 7.84766 9.65234C7.84766 11.375 8.96875 12.3594 11.0879 12.9473L13.0703 13.5078C14.6973 13.959 15.2578 14.3691 15.2578 15.3262C15.2578 16.543 14.0957 17.2129 12.5918 17.2129C11.1562 17.2129 10.1582 16.6523 9.67969 15.5586C9.43359 15.0527 9.14648 14.8203 8.6543 14.8203C8.06641 14.8203 7.66992 15.2031 7.66992 15.8047C7.66992 16.0098 7.72461 16.2285 7.82031 16.4746C8.3125 17.7871 9.9668 18.9902 12.4551 18.9902Z" fill="black" fill-opacity="0.85"/>
 </g>
</svg>
