<?xml version="1.0" encoding="UTF-8"?>
<!--Generator: Apple Native CoreSVG 326-->
<!DOCTYPE svg
PUBLIC "-//W3C//DTD SVG 1.1//EN"
       "http://www.w3.org/Graphics/SVG/1.1/DTD/svg11.dtd">
<svg version="1.1" xmlns="http://www.w3.org/2000/svg" xmlns:xlink="http://www.w3.org/1999/xlink" viewBox="0 0 25.5254 25.1699">
 <g>
  <rect height="25.1699" opacity="0" width="25.5254" x="0" y="0"/>
  <path d="M4.29297 25.1699L20.877 25.1699C23.748 25.1699 25.1699 23.7617 25.1699 20.9453L25.1699 4.23828C25.1699 1.42188 23.748 0 20.877 0L4.29297 0C1.43555 0 0 1.42188 0 4.23828L0 20.9453C0 23.7617 1.43555 25.1699 4.29297 25.1699Z" fill="black" fill-opacity="0.85"/>
  <path d="M12.4551 19.1953C9.88477 19.1953 8.17578 17.9512 7.66992 16.6113C7.56055 16.3516 7.50586 16.1191 7.50586 15.9004C7.50586 15.2852 7.91602 14.8887 8.53125 14.8887C9.03711 14.8887 9.33789 15.1348 9.59766 15.6543C10.0898 16.7754 11.1152 17.3496 12.5918 17.3496C14.1367 17.3496 15.3262 16.666 15.3262 15.4219C15.3262 14.4375 14.752 14.0137 13.084 13.5488L11.0332 12.9609C8.8457 12.3594 7.69727 11.3477 7.69727 9.57031C7.69727 7.31445 9.70703 5.71484 12.6055 5.71484C14.9844 5.71484 16.6797 6.80859 17.2129 8.3125C17.3086 8.55859 17.3496 8.80469 17.3496 8.98242C17.3496 9.63867 16.9258 9.9668 16.3516 9.9668C15.8047 9.9668 15.5039 9.70703 15.3125 9.24219C14.8203 8.06641 13.9316 7.50586 12.5098 7.50586C11.0195 7.50586 10.0488 8.25781 10.0488 9.43359C10.0488 10.2949 10.6094 10.8145 11.9629 11.1699L13.8496 11.6758C16.3242 12.332 17.6914 13.3711 17.6914 15.2305C17.6914 17.6641 15.6133 19.1953 12.4551 19.1953Z" fill="white"/>
 </g>
</svg>
