<?xml version="1.0" encoding="UTF-8"?>
<!--Generator: Apple Native CoreSVG 326-->
<!DOCTYPE svg
PUBLIC "-//W3C//DTD SVG 1.1//EN"
       "http://www.w3.org/Graphics/SVG/1.1/DTD/svg11.dtd">
<svg version="1.1" xmlns="http://www.w3.org/2000/svg" xmlns:xlink="http://www.w3.org/1999/xlink" viewBox="0 0 28.2461 27.9043">
 <g>
  <rect height="27.9043" opacity="0" width="28.2461" x="0" y="0"/>
  <path d="M13.9453 27.8906C21.6426 27.8906 27.8906 21.6289 27.8906 13.9453C27.8906 6.24805 21.6426 0 13.9453 0C6.26172 0 0 6.24805 0 13.9453C0 21.6289 6.26172 27.8906 13.9453 27.8906Z" fill="black" fill-opacity="0.85"/>
  <path d="M8.06641 21.0684C7.12305 21.5195 6.39844 20.7812 6.83594 19.8516L10.8008 11.7578C11.0332 11.2793 11.334 10.9785 11.7715 10.7734L19.8379 6.83594C20.8359 6.35742 21.5332 7.0957 21.0684 8.05273L17.1309 16.1328C16.9121 16.5703 16.5977 16.8984 16.1465 17.1035ZM13.959 15.6953C14.916 15.6953 15.6953 14.916 15.6953 13.959C15.6953 13.002 14.916 12.2363 13.959 12.2363C13.0156 12.2363 12.2363 13.002 12.2363 13.959C12.2363 14.916 13.0156 15.6953 13.959 15.6953Z" fill="white"/>
 </g>
</svg>
