<?xml version="1.0" encoding="UTF-8"?>
<!--Generator: Apple Native CoreSVG 326-->
<!DOCTYPE svg
PUBLIC "-//W3C//DTD SVG 1.1//EN"
       "http://www.w3.org/Graphics/SVG/1.1/DTD/svg11.dtd">
<svg version="1.1" xmlns="http://www.w3.org/2000/svg" xmlns:xlink="http://www.w3.org/1999/xlink" viewBox="0 0 28.2461 27.9043">
 <g>
  <rect height="27.9043" opacity="0" width="28.2461" x="0" y="0"/>
  <path d="M13.9453 27.9043C21.6426 27.9043 27.8906 21.6562 27.8906 13.959C27.8906 6.27539 21.6426 0.0136719 13.9453 0.0136719C6.26172 0.0136719 0 6.27539 0 13.959C0 21.6562 6.26172 27.9043 13.9453 27.9043Z" fill="black" fill-opacity="0.85"/>
  <path d="M9.5293 21.9707C8.87305 21.9707 8.51758 21.7246 8.28516 21.1094L7.76562 19.6875C7.57422 19.1816 7.86133 18.7578 8.43555 18.7578C9.76172 18.7578 11.1426 18.7578 12.5098 18.7305L12.6191 17.5273C11.2793 17.6367 9.84375 17.623 8.54492 17.4727C7.91602 17.418 7.72461 16.9121 8.10742 16.3652L13.3711 9.02344L13.6309 6.20703C13.6719 5.57812 14.1777 5.22266 14.7383 5.22266C15.0254 5.22266 15.3262 5.29102 15.6543 5.46875C19.3594 7.42383 20.5488 10.5 20.5488 13.207C20.5488 14.2461 20.4258 15.2031 20.0703 16.0918C19.7695 16.9121 19.3184 17.2676 18.416 17.4043C17.2949 17.582 15.5312 17.6641 13.7812 17.5L13.6719 18.7031C15.5039 18.6348 17.3223 18.5254 19.0176 18.293C19.5508 18.2246 19.7832 18.5254 19.7832 18.8672C19.7832 19.4277 18.7988 20.8906 18.1426 21.4785C17.7461 21.834 17.3906 21.9707 16.8574 21.9707ZM13.8906 16.2285C14.9707 15.0664 15.5996 13.2344 15.5996 11.1426C15.5996 9.57031 15.3398 7.82031 14.8477 6.41211C14.8066 6.33008 14.7246 6.33008 14.7246 6.42578Z" fill="white"/>
 </g>
</svg>
