<?xml version="1.0" encoding="UTF-8"?>
<!--Generator: Apple Native CoreSVG 326-->
<!DOCTYPE svg
PUBLIC "-//W3C//DTD SVG 1.1//EN"
       "http://www.w3.org/Graphics/SVG/1.1/DTD/svg11.dtd">
<svg version="1.1" xmlns="http://www.w3.org/2000/svg" xmlns:xlink="http://www.w3.org/1999/xlink" viewBox="0 0 28.957 25.9355">
 <g>
  <rect height="25.9355" opacity="0" width="28.957" x="0" y="0"/>
  <path d="M3.48633 20.8906L4.59375 22.7773L14.3418 17.8828L24.0898 22.7773L25.1973 20.8906L15.4492 15.9961L15.4492 4.45703L13.248 4.45703L13.248 15.9961ZM0.0273438 22.8457C0.0273438 23.4062 0.259766 23.8164 0.751953 24.0898L3.48633 25.6895C3.8418 25.9082 4.08789 25.9492 4.56641 25.6758L7.23242 24.1309C7.72461 23.8574 7.82031 23.625 7.80664 23.1738L7.82031 20.002C7.82031 19.4551 7.57422 19.0586 7.10938 18.7852L4.36133 17.1855C4.00586 16.9941 3.70508 16.9258 3.24023 17.1855L0.533203 18.7578C0.0683594 19.0176 0 19.291 0 19.6738ZM20.7949 23.1875C20.7812 23.6387 20.877 23.8711 21.3691 24.1445L24.0352 25.6895C24.5137 25.9629 24.7598 25.9219 25.1152 25.7031L27.8496 24.1035C28.3418 23.8301 28.5742 23.4199 28.5742 22.8594L28.6016 19.6875C28.6016 19.3047 28.5332 19.0312 28.0684 18.7715L25.3613 17.1992C24.8965 16.9395 24.5957 17.0078 24.2402 17.1992L21.4922 18.7988C21.0273 19.0723 20.7812 19.4688 20.7812 20.0156ZM10.8555 6.79492L13.6172 8.38086C14.082 8.64062 14.5332 8.64062 14.998 8.38086L17.7598 6.79492C18.1426 6.57617 18.3066 6.37109 18.3066 5.81055L18.3066 2.7207C18.3066 2.17383 18.1426 1.98242 17.7871 1.77734L15.0254 0.205078C14.5332-0.0683594 14.0684-0.0683594 13.5898 0.205078L10.8281 1.77734C10.4863 1.96875 10.2949 2.17383 10.2949 2.7207L10.2949 5.81055C10.2949 6.37109 10.5 6.58984 10.8555 6.79492Z" fill="black" fill-opacity="0.85"/>
 </g>
</svg>
