<?xml version="1.0" encoding="UTF-8"?>
<!--Generator: Apple Native CoreSVG 326-->
<!DOCTYPE svg
PUBLIC "-//W3C//DTD SVG 1.1//EN"
       "http://www.w3.org/Graphics/SVG/1.1/DTD/svg11.dtd">
<svg version="1.1" xmlns="http://www.w3.org/2000/svg" xmlns:xlink="http://www.w3.org/1999/xlink" viewBox="0 0 32.4844 25.1973">
 <g>
  <rect height="25.1973" opacity="0" width="32.4844" x="0" y="0"/>
  <path d="M0 20.9727C0 23.7891 1.43555 25.1973 4.29297 25.1973L27.8359 25.1973C30.6797 25.1973 32.1289 23.7754 32.1289 20.9727L32.1289 16.4883C32.1289 15.5859 31.8555 14.5742 31.1309 13.7949L25.9492 8.28516C24.7051 6.97266 23.748 6.2207 21.9023 6.2207L9.9668 6.2207C8.36719 6.2207 7.42383 6.97266 6.17969 8.28516L0.998047 13.7949C0.273438 14.5742 0 15.5859 0 16.4883ZM3.04883 14.9297L7.98438 9.43359C8.68164 8.66797 9.1875 8.24414 10.0078 8.24414L22.1074 8.24414C22.9277 8.24414 23.4473 8.6543 24.1445 9.43359L29.0801 14.9297C29.4492 15.3535 29.2441 15.9824 28.5605 15.9824L3.56836 15.9824C2.88477 15.9824 2.67969 15.3535 3.04883 14.9297ZM2.05078 1.96875L6.34375 6.30273C7.57422 7.56055 8.20312 7.9707 9.74805 7.9707L22.2578 7.9707C23.9121 7.9707 24.5547 7.56055 25.7852 6.30273L30.0781 1.96875C30.7754 1.27148 30.4336 0.0136719 29.2168 0.0136719L2.91211 0.0136719C1.69531 0.0136719 1.35352 1.27148 2.05078 1.96875ZM7.80664 14.0137C7.91602 14.3418 8.28516 14.4922 8.62695 14.3691L14.916 12.0723C15.2715 11.9492 15.4355 11.6211 15.3125 11.2656C15.1895 10.9238 14.8477 10.7734 14.4922 10.9102L8.20312 13.207C7.84766 13.3301 7.68359 13.6582 7.80664 14.0137ZM8.01172 11.5117C8.13477 11.8672 8.49023 12.0039 8.83203 11.8809L13.166 10.3086C13.5078 10.1855 13.6992 9.84375 13.5625 9.50195C13.4395 9.14648 13.084 9.02344 12.7559 9.14648L8.4082 10.7188C8.05273 10.8418 7.88867 11.1836 8.01172 11.5117ZM21.834 20.5762C21.834 20.1387 22.1621 19.8242 22.6133 19.8242L26.3867 19.8242C26.8242 19.8242 27.1523 20.1387 27.1523 20.5762C27.1523 21.0137 26.8242 21.3145 26.3867 21.3145L22.6133 21.3145C22.1895 21.3145 21.834 21.0137 21.834 20.5762Z" fill="black" fill-opacity="0.85"/>
 </g>
</svg>
