<?xml version="1.0" encoding="UTF-8"?>
<!--Generator: Apple Native CoreSVG 326-->
<!DOCTYPE svg
PUBLIC "-//W3C//DTD SVG 1.1//EN"
       "http://www.w3.org/Graphics/SVG/1.1/DTD/svg11.dtd">
<svg version="1.1" xmlns="http://www.w3.org/2000/svg" xmlns:xlink="http://www.w3.org/1999/xlink" viewBox="0 0 37.8984 29.9004">
 <g>
  <rect height="29.9004" opacity="0" width="37.8984" x="0" y="0"/>
  <path d="M36.2852 21.9023C35.7246 23.9531 33.4961 24.2949 30.0918 23.0918L19.2931 19.2098L25.2513 16.0463ZM12.2637 7.57422C12.2637 8.72266 12.3184 9.17383 13.1523 9.625L16.4497 11.375C15.5437 11.9794 14.9547 12.7805 14.5781 13.8647C14.3697 13.7124 14.1058 13.5582 13.7676 13.3848L11.6348 12.25C11.293 12.0859 11.1016 12.0312 10.8418 12.0312C9.70703 12.0312 9.29688 13.0977 6.74023 13.0977C3.69141 13.0977 1.24414 10.6367 1.24414 7.57422C1.24414 4.49805 3.69141 2.02344 6.74023 2.02344C9.80273 2.02344 12.2637 4.48438 12.2637 7.57422ZM3.48633 7.57422C3.48633 9.39258 4.94922 10.8691 6.74023 10.8691C8.58594 10.8691 10.0352 9.39258 10.0352 7.57422C10.0352 5.74219 8.58594 4.26562 6.74023 4.26562C4.94922 4.26562 3.48633 5.74219 3.48633 7.57422Z" fill="black" fill-opacity="0.85"/>
  <path d="M6.74023 28.6562C9.80273 28.6562 12.2637 26.1953 12.2637 23.1055C12.2637 21.9707 12.3184 21.5195 13.1523 21.0684L36.2852 8.77734C35.7246 6.72656 33.4961 6.38477 30.0918 7.58789L18.416 11.7852C16.7754 12.373 16.0371 13.166 15.627 14.6973L15.3535 15.6953C15.1621 16.4062 14.834 16.7617 13.7676 17.3086L11.6348 18.4297C11.293 18.6074 11.1016 18.6621 10.8418 18.6621C9.70703 18.6621 9.29688 17.5957 6.74023 17.5957C3.69141 17.5957 1.24414 20.0566 1.24414 23.1055C1.24414 26.1816 3.69141 28.6562 6.74023 28.6562ZM6.74023 26.4141C4.94922 26.4141 3.48633 24.9512 3.48633 23.1055C3.48633 21.3008 4.94922 19.8242 6.74023 19.8242C8.58594 19.8242 10.0352 21.3008 10.0352 23.1055C10.0352 24.9512 8.58594 26.4141 6.74023 26.4141ZM18.7305 15.75C18.1152 15.75 17.582 15.2441 17.582 14.6152C17.582 13.959 18.1152 13.4668 18.7305 13.4668C19.3594 13.4668 19.8926 13.959 19.8926 14.6152C19.8926 15.2441 19.3594 15.75 18.7305 15.75Z" fill="black" fill-opacity="0.85"/>
 </g>
</svg>
