<?xml version="1.0" encoding="UTF-8"?>
<!--Generator: Apple Native CoreSVG 326-->
<!DOCTYPE svg
PUBLIC "-//W3C//DTD SVG 1.1//EN"
       "http://www.w3.org/Graphics/SVG/1.1/DTD/svg11.dtd">
<svg version="1.1" xmlns="http://www.w3.org/2000/svg" xmlns:xlink="http://www.w3.org/1999/xlink" viewBox="0 0 35.4102 27.4668">
 <g>
  <rect height="27.4668" opacity="0" width="35.4102" x="0" y="0"/>
  <path d="M5.07227 27.4668C7.86133 27.4668 10.1309 25.1973 10.1309 22.4082C10.1309 19.6055 7.86133 17.3359 5.07227 17.3359C2.26953 17.3359 0 19.6055 0 22.4082C0 25.1973 2.26953 27.4668 5.07227 27.4668ZM5.07227 25.6211C3.28125 25.6211 1.8457 24.1855 1.8457 22.4082C1.8457 20.6172 3.28125 19.1816 5.07227 19.1816C6.84961 19.1816 8.28516 20.6172 8.28516 22.4082C8.27148 24.1992 6.84961 25.6074 5.07227 25.6211ZM5.07227 23.8438C5.86523 23.8438 6.50781 23.2012 6.50781 22.4082C6.50781 21.6152 5.87891 20.959 5.07227 20.959C4.25195 20.959 3.63672 21.6016 3.62305 22.4082C3.60938 23.2012 4.23828 23.8438 5.07227 23.8438ZM29.9824 27.4668C32.7852 27.4668 35.0547 25.1973 35.0547 22.4082C35.0547 19.6055 32.7852 17.3359 29.9824 17.3359C27.1934 17.3359 24.9102 19.6055 24.9102 22.4082C24.9102 25.1973 27.1934 27.4668 29.9824 27.4668ZM29.9824 25.6211C28.2051 25.6211 26.7559 24.1855 26.7559 22.4082C26.7559 20.6172 28.2051 19.1816 29.9824 19.1816C31.7734 19.1816 33.209 20.6172 33.209 22.4082C33.209 24.1855 31.7734 25.6211 29.9824 25.6211ZM29.9824 23.8438C30.7754 23.8438 31.4316 23.2012 31.4316 22.4082C31.4316 21.6152 30.7891 20.959 29.9824 20.959C29.1758 20.959 28.5469 21.6016 28.5332 22.4082C28.5195 23.2012 29.1621 23.8438 29.9824 23.8438ZM5.48242 23.4336L19.8242 23.4336C20.3984 23.4336 20.7539 23.2695 21.2598 22.7227L28.0137 15.3125L27.3438 12.7695L19.8379 21.2051C19.7148 21.3418 19.6465 21.3691 19.4961 21.3691L5.48242 21.3691ZM19.127 1.06641C19.127 1.64062 19.5918 2.0918 20.166 2.0918L23.707 2.0918C23.8301 2.0918 23.8848 2.13281 23.9121 2.22852L28.8887 22.7773L30.8574 22.2715L25.5391 0.916016C25.3887 0.328125 24.9375 0.0273438 24.0898 0.0273438L20.166 0.0273438C19.5918 0.0273438 19.127 0.492188 19.127 1.06641Z" fill="black" fill-opacity="0.85"/>
 </g>
</svg>
