<?xml version="1.0" encoding="UTF-8"?>
<!--Generator: Apple Native CoreSVG 326-->
<!DOCTYPE svg
PUBLIC "-//W3C//DTD SVG 1.1//EN"
       "http://www.w3.org/Graphics/SVG/1.1/DTD/svg11.dtd">
<svg version="1.1" xmlns="http://www.w3.org/2000/svg" xmlns:xlink="http://www.w3.org/1999/xlink" viewBox="0 0 34.7249 34.8275">
 <g>
  <rect height="34.8275" opacity="0" width="34.7249" x="0" y="0"/>
  <path d="M13.2609 13.4421C12.5363 14.153 12.5499 15.069 13.2472 15.7526L19.0851 21.6042C19.7824 22.3014 20.671 22.2878 21.3956 21.5768L23.6105 19.3757C23.0773 18.7604 23.091 17.8854 23.6925 17.2839C24.2667 16.7097 25.1417 16.6686 25.757 17.2018L32.8117 10.1608C34.8761 8.11004 34.8898 5.90887 32.8663 3.8991L30.9386 1.97137C28.9015-0.0657392 26.7277-0.0247236 24.6769 2.02606L17.6359 9.08075C18.1691 9.69598 18.1417 10.5847 17.5538 11.1452C16.9386 11.7331 16.091 11.7604 15.462 11.2272ZM15.0109 14.1393L15.8585 13.278C16.8702 13.4968 17.7999 13.1686 18.6202 12.362C19.4542 11.5417 19.755 10.5847 19.5226 9.61395L26.0167 3.13348C27.1925 1.97137 28.4913 1.97137 29.6535 3.13348L31.7042 5.18426C32.8663 6.3327 32.8663 7.6452 31.6906 8.82098L25.2238 15.3288C24.2394 15.0964 23.3097 15.3972 22.4757 16.2175C21.6691 17.0378 21.3273 17.9538 21.546 18.9929L20.6984 19.8405C20.4113 20.1276 20.0558 20.1413 19.755 19.8542L14.9972 15.0827C14.6964 14.7956 14.7238 14.4401 15.0109 14.1393ZM22.4347 9.81903C22.2023 10.0651 22.1886 10.4069 22.4484 10.653C22.6261 10.8307 23.0089 10.8581 23.214 10.6393L27.8214 5.9909C28.0265 5.78582 28.0402 5.44403 27.8214 5.22528C27.6163 5.0202 27.2609 5.00653 27.0421 5.22528ZM24.212 11.6374C23.9933 11.8561 23.9933 12.2116 24.212 12.4167C24.4308 12.6218 24.7863 12.6218 25.005 12.403L29.6261 7.79559C29.8585 7.57684 29.8449 7.24871 29.6124 7.01629C29.4074 6.78387 29.0519 6.81121 28.8468 7.01629ZM3.34876 26.3893L0.204232 31.0651C-0.0418622 31.4206-0.0828779 31.7761 0.176888 32.0358L2.78822 34.6608C3.04798 34.9069 3.40345 34.8659 3.77259 34.6335L8.44837 31.4889C8.85853 31.2155 9.13197 30.7917 9.20033 30.3405L9.41908 28.905L18.5382 19.8132L17.3624 18.6237L7.75111 28.2487L7.45033 29.9304L3.47181 32.9655L1.85853 31.3659L4.89368 27.3737L6.589 27.0729L16.214 17.4616L15.0382 16.2995L5.91908 25.405L4.4972 25.6374C4.03236 25.7057 3.60853 25.9792 3.34876 26.3893Z" fill="black" fill-opacity="0.85"/>
 </g>
</svg>
