<?xml version="1.0" encoding="UTF-8"?>
<!--Generator: Apple Native CoreSVG 326-->
<!DOCTYPE svg
PUBLIC "-//W3C//DTD SVG 1.1//EN"
       "http://www.w3.org/Graphics/SVG/1.1/DTD/svg11.dtd">
<svg version="1.1" xmlns="http://www.w3.org/2000/svg" xmlns:xlink="http://www.w3.org/1999/xlink" viewBox="0 0 29.3511 27.7051">
 <g>
  <rect height="27.7051" opacity="0" width="29.3511" x="0" y="0"/>
  <path d="M0.600338 17.5918C1.31128 18.3028 2.74682 18.4805 3.85424 17.4824C4.22339 17.1543 4.98901 16.334 6.4519 14.8711C13.4382 7.78909 18.0457 3.14065 19.03 4.02932C19.823 4.72659 17.4031 8.14456 15.1062 11.3164C10.7996 17.3184 7.36792 21.4746 9.91089 24.0176C11.948 26.0547 15.1199 24.0039 20.0007 19.7246C22.7488 17.3047 24.8132 15.3496 25.4148 15.9649C25.866 16.4024 25.1687 17.5645 24.1433 19.3418C22.8171 21.6114 21.1628 24.0449 22.7488 25.6309C23.8425 26.711 25.9617 26.2461 28.573 23.6895C29.0378 23.2246 29.1472 22.7051 28.7781 22.336C28.4226 21.9942 27.9304 22.0489 27.5613 22.3907C25.6609 24.25 24.4167 24.8379 24.1023 24.5098C23.7332 24.1543 24.4031 22.9375 25.7976 20.4903C27.5613 17.4004 28.5046 15.459 27.0144 14.0098C25.0183 12.0684 22.6531 14.1465 18.2781 17.9883C14.1628 21.6114 12.9597 22.1992 12.4402 21.6934C11.7429 20.9824 12.8093 19.7246 17.4167 13.2852C21.7234 7.25589 24.2253 3.49612 21.8874 1.24026C18.7019-1.86325 14.6003 0.584011 3.36206 11.6992C1.87182 13.1758 1.05151 13.9551 0.723385 14.3106C-0.329349 15.4727-0.110599 16.8809 0.600338 17.5918Z" fill="black" fill-opacity="0.85"/>
 </g>
</svg>
