<?xml version="1.0" encoding="UTF-8"?>
<!--Generator: Apple Native CoreSVG 326-->
<!DOCTYPE svg
PUBLIC "-//W3C//DTD SVG 1.1//EN"
       "http://www.w3.org/Graphics/SVG/1.1/DTD/svg11.dtd">
<svg version="1.1" xmlns="http://www.w3.org/2000/svg" xmlns:xlink="http://www.w3.org/1999/xlink" viewBox="0 0 29.5176 29.0527">
 <g>
  <rect height="29.0527" opacity="0" width="29.5176" x="0" y="0"/>
  <path d="M0 6.61719C0 7.4375 0.546875 7.9707 1.39453 7.9707L4.94922 7.9707L4.94922 24.7461C4.94922 27.6172 6.35742 29.0391 9.22852 29.0391L24.8555 29.0391C27.4531 29.0391 29.1621 27.2617 29.1621 24.5684L29.1621 20.8496C29.1621 20.0293 28.6152 19.4961 27.7676 19.4961L26.6328 19.4961L26.6328 4.29297C26.6328 1.43555 25.2109 0 22.3945 0L3.58203 0C1.44922 0 0 1.44922 0 3.73242ZM7.15039 24.7598L7.15039 3.73242C7.15039 3.17188 7.0957 2.65234 6.98633 2.20117L22.2715 2.20117C23.6934 2.20117 24.4316 2.95312 24.4316 4.32031L24.4316 19.4961L12.6875 19.4961C11.8398 19.4961 11.2793 20.0293 11.2793 20.8496L11.2793 24.7598C11.2793 26.0039 10.418 26.8379 9.22852 26.8379C8.01172 26.8379 7.15039 25.9629 7.15039 24.7598ZM2.20117 5.76953L2.20117 3.73242C2.20117 2.77539 2.78906 2.20117 3.58203 2.20117C4.40234 2.20117 4.94922 2.77539 4.94922 3.73242L4.94922 5.76953ZM12.9473 26.8379C13.2891 26.2363 13.4805 25.498 13.4805 24.6094L13.4805 21.6973L26.9609 21.6973L26.9609 24.5684C26.9609 25.9219 26.1133 26.8379 24.8555 26.8379ZM11.0879 12.7559L15.9961 12.7559C16.4883 12.7559 16.8438 12.4004 16.8438 11.9355C16.8438 11.457 16.4883 11.0742 15.9961 11.0742L11.0879 11.0742C10.5957 11.0742 10.2266 11.457 10.2266 11.9355C10.2266 12.4004 10.5957 12.7559 11.0879 12.7559ZM11.0879 7.98438L20.4941 7.98438C20.9863 7.98438 21.3418 7.61523 21.3418 7.13672C21.3418 6.67188 20.9863 6.30273 20.4941 6.30273L11.0879 6.30273C10.5957 6.30273 10.2266 6.67188 10.2266 7.13672C10.2266 7.61523 10.5957 7.98438 11.0879 7.98438Z" fill="black" fill-opacity="0.85"/>
 </g>
</svg>
