<?xml version="1.0" encoding="UTF-8"?>
<!--Generator: Apple Native CoreSVG 326-->
<!DOCTYPE svg
PUBLIC "-//W3C//DTD SVG 1.1//EN"
       "http://www.w3.org/Graphics/SVG/1.1/DTD/svg11.dtd">
<svg version="1.1" xmlns="http://www.w3.org/2000/svg" xmlns:xlink="http://www.w3.org/1999/xlink" viewBox="0 0 23.3516 29.3262">
 <g>
  <rect height="29.3262" opacity="0" width="23.3516" x="0" y="0"/>
  <path d="M4.23828 29.3262L18.7578 29.3262C21.5879 29.3262 22.9961 27.9043 22.9961 25.0469L22.9961 4.30664C22.9961 1.46289 21.5742 0.0136719 18.7578 0.0136719L9.625 0.0136719C8.39453 0.0136719 7.61523 0.314453 6.82227 1.12109L1.01172 6.91797C0.246094 7.69727 0 8.36719 0 9.7207L0 25.0469C0 27.8906 1.4082 29.3262 4.23828 29.3262ZM8.73633 5.56445C8.73633 5.05859 9.13281 4.66211 9.63867 4.66211C10.1309 4.66211 10.5137 5.04492 10.5137 5.56445L10.5137 10.0078C10.5137 10.5137 10.1309 10.9102 9.63867 10.9102C9.13281 10.9102 8.73633 10.5137 8.73633 10.0078ZM11.6211 5.56445C11.6211 5.05859 12.0176 4.66211 12.5371 4.66211C13.0293 4.66211 13.4258 5.05859 13.4258 5.56445L13.4258 10.0078C13.4258 10.5137 13.0156 10.9102 12.5371 10.9102C12.0312 10.9102 11.6211 10.5137 11.6211 10.0078ZM14.5332 5.56445C14.5332 5.05859 14.9297 4.66211 15.4219 4.66211C15.9277 4.66211 16.3105 5.04492 16.3105 5.56445L16.3242 10.0078C16.3242 10.5 15.9141 10.9102 15.4219 10.9102C14.9434 10.9102 14.5332 10.5137 14.5332 10.0078ZM17.4453 5.56445C17.4453 5.05859 17.8281 4.66211 18.334 4.66211C18.8262 4.66211 19.209 5.04492 19.209 5.56445L19.209 9.99414C19.209 10.5137 18.8262 10.9102 18.334 10.9102C17.8418 10.9102 17.4453 10.5137 17.4453 9.99414Z" fill="black" fill-opacity="0.85"/>
 </g>
</svg>
