<?xml version="1.0" encoding="UTF-8"?>
<!--Generator: Apple Native CoreSVG 326-->
<!DOCTYPE svg
PUBLIC "-//W3C//DTD SVG 1.1//EN"
       "http://www.w3.org/Graphics/SVG/1.1/DTD/svg11.dtd">
<svg version="1.1" xmlns="http://www.w3.org/2000/svg" xmlns:xlink="http://www.w3.org/1999/xlink" viewBox="0 0 33.5781 23.7207">
 <g>
  <rect height="23.7207" opacity="0" width="33.5781" x="0" y="0"/>
  <path d="M29.1211 15.5723C29.4902 16.0098 30.1465 16.0098 30.584 15.5176C32.293 13.6035 33.2227 11.1289 33.2227 8.42188C33.2227 5.71484 32.293 3.22656 30.584 1.3125C30.1602 0.833984 29.5176 0.833984 29.1484 1.24414C28.7656 1.66797 28.8613 2.20117 29.2715 2.67969C30.6387 4.23828 31.3496 6.23438 31.3496 8.42188C31.3496 10.5957 30.6387 12.6055 29.2715 14.1504C28.8613 14.6289 28.7656 15.1484 29.1211 15.5723Z" fill="black" fill-opacity="0.85"/>
  <path d="M25.9902 12.6191C26.3594 13.043 27.0566 13.0703 27.4668 12.5234C28.3418 11.375 28.8613 9.95312 28.8613 8.42188C28.8613 6.89062 28.3418 5.45508 27.4668 4.32031C27.0566 3.77344 26.373 3.78711 26.0039 4.21094C25.6074 4.62109 25.7578 5.12695 26.1133 5.61914C26.7012 6.45312 26.9883 7.39648 26.9883 8.42188C26.9883 9.43359 26.7012 10.3906 26.1133 11.2246C25.7715 11.7031 25.6074 12.209 25.9902 12.6191Z" fill="black" fill-opacity="0.85"/>
  <path d="M4.29297 23.707L19.0449 23.707C21.916 23.707 23.3379 22.2852 23.3379 19.4688L23.3379 4.23828C23.3379 1.42188 21.916 0 19.0449 0L4.29297 0C1.43555 0 0 1.4082 0 4.23828L0 19.4688C0 22.2852 1.43555 23.707 4.29297 23.707ZM4.32031 21.5059C2.95312 21.5059 2.20117 20.7676 2.20117 19.3457L2.20117 4.34766C2.20117 2.93945 2.95312 2.20117 4.32031 2.20117L19.0176 2.20117C20.3574 2.20117 21.1367 2.93945 21.1367 4.34766L21.1367 19.3457C21.1367 20.7676 20.3574 21.5059 19.0176 21.5059ZM11.0332 12.4824C11.498 12.4824 11.8672 12.127 11.8672 11.6621L11.8672 5.19531C11.8672 4.73047 11.498 4.375 11.0332 4.375C10.5684 4.375 10.2129 4.73047 10.2129 5.19531L10.2129 11.6621C10.2129 12.127 10.5684 12.4824 11.0332 12.4824ZM14.5059 12.4824C14.9707 12.4824 15.3398 12.127 15.3398 11.6621L15.3398 5.19531C15.3398 4.73047 14.9707 4.375 14.5059 4.375C14.041 4.375 13.6855 4.73047 13.6855 5.19531L13.6855 11.6621C13.6855 12.127 14.041 12.4824 14.5059 12.4824ZM17.9922 12.4824C18.457 12.4824 18.8125 12.127 18.8125 11.6621L18.8125 5.19531C18.8125 4.73047 18.457 4.375 17.9922 4.375C17.5273 4.375 17.1582 4.73047 17.1582 5.19531L17.1582 11.6621C17.1582 12.127 17.5273 12.4824 17.9922 12.4824Z" fill="black" fill-opacity="0.85"/>
 </g>
</svg>
