<?xml version="1.0" encoding="UTF-8"?>
<!--Generator: Apple Native CoreSVG 326-->
<!DOCTYPE svg
PUBLIC "-//W3C//DTD SVG 1.1//EN"
       "http://www.w3.org/Graphics/SVG/1.1/DTD/svg11.dtd">
<svg version="1.1" xmlns="http://www.w3.org/2000/svg" xmlns:xlink="http://www.w3.org/1999/xlink" viewBox="0 0 19.25 22.3135">
 <g>
  <rect height="22.3135" opacity="0" width="19.25" x="0" y="0"/>
  <path d="M0 21.2808L3.44531 22.1968C4.89453 22.5933 5.76953 21.9644 5.76953 20.5425L5.76953 15.8804L11.8809 15.8804L11.8809 12.0659L1.28516 12.0659L1.28516 20.0093C1.28516 20.7886 0.779297 21.2808 0 21.2808ZM1.28516 9.79641L5.76953 9.79641L5.76953 4.30031C5.76953 3.01516 5.18164 2.41359 4.01953 2.09914L0.751953 1.22414C1.08008 1.44289 1.28516 1.79836 1.28516 2.29055ZM13.125 21.2808L16.5703 22.1968C18.0195 22.5933 18.8945 21.9644 18.8945 20.5425L18.8945 4.30031C18.8945 3.01516 18.293 2.39992 17.1309 2.08547L13.877 1.22414C14.2051 1.44289 14.4102 1.79836 14.4102 2.29055L14.4102 20.0093C14.4102 20.7886 13.9043 21.2808 13.125 21.2808Z" fill="black" fill-opacity="0.85"/>
 </g>
</svg>
