<?xml version="1.0" encoding="UTF-8"?>
<!--Generator: Apple Native CoreSVG 326-->
<!DOCTYPE svg
PUBLIC "-//W3C//DTD SVG 1.1//EN"
       "http://www.w3.org/Graphics/SVG/1.1/DTD/svg11.dtd">
<svg version="1.1" xmlns="http://www.w3.org/2000/svg" xmlns:xlink="http://www.w3.org/1999/xlink" viewBox="0 0 34.0977 32.6007">
 <g>
  <rect height="32.6007" opacity="0" width="34.0977" x="0" y="0"/>
  <path d="M6.67188 18.9185L6.67188 21.7486C6.67188 23.0337 6.01562 23.6763 4.7168 23.6763L1.95508 23.6763C0.65625 23.6763 0 23.0337 0 21.7486L0 18.9185C0 17.6333 0.65625 17.0044 1.95508 17.0044L4.7168 17.0044C6.01562 17.0044 6.67188 17.647 6.67188 18.9185Z" fill="black" fill-opacity="0.85"/>
  <path d="M10.3997 13.8052L5.5918 13.8052C4.29297 13.8052 3.63672 13.1763 3.63672 11.8911L3.63672 7.0388ZM17.4863 5.24662L17.4863 7.15662C15.8751 7.27155 14.3945 8.03509 13.3162 9.22369L7.43392 3.33255L15.5176 3.33255C16.8301 3.33255 17.4863 3.97513 17.4863 5.24662Z" fill="black" fill-opacity="0.85"/>
  <path d="M33.7422 11.1939L33.7422 19.1646C33.7422 20.4361 33.0859 21.0786 31.7734 21.0786L27.7402 21.0786C26.4414 21.0786 25.7852 20.4361 25.7852 19.1646L25.7852 11.1939C25.7852 9.9224 26.4414 9.27982 27.7402 9.27982L31.7734 9.27982C33.0859 9.27982 33.7422 9.9224 33.7422 11.1939Z" fill="black" fill-opacity="0.85"/>
  <path d="M25.8099 29.2231C25.7026 29.2353 25.5889 29.2408 25.4707 29.2408L10.3633 29.2408C9.16016 29.2408 8.43555 28.6802 8.43555 27.7505C8.43555 24.9222 11.866 21.0492 17.4309 20.84ZM22.4219 13.8326C22.4219 15.1364 21.9735 16.2997 21.2496 17.1692L14.6339 10.5434C15.4673 9.57936 16.6537 8.99271 17.9238 8.99271C20.3301 8.99271 22.4219 11.0572 22.4219 13.8326Z" fill="black" fill-opacity="0.85"/>
  <path d="M29.5449 30.7036C29.9551 31.1138 30.6387 31.1138 31.0352 30.7036C31.4316 30.2798 31.4453 29.6372 31.0352 29.2134L3.9375 2.08841C3.51367 1.66458 2.85742 1.67826 2.43359 2.08841C2.03711 2.4849 2.03711 3.18216 2.43359 3.57865Z" fill="black" fill-opacity="0.85"/>
 </g>
</svg>
