<?xml version="1.0" encoding="UTF-8"?>
<!--Generator: Apple Native CoreSVG 326-->
<!DOCTYPE svg
PUBLIC "-//W3C//DTD SVG 1.1//EN"
       "http://www.w3.org/Graphics/SVG/1.1/DTD/svg11.dtd">
<svg version="1.1" xmlns="http://www.w3.org/2000/svg" xmlns:xlink="http://www.w3.org/1999/xlink" viewBox="0 0 28.2461 27.9043">
 <g>
  <rect height="27.9043" opacity="0" width="28.2461" x="0" y="0"/>
  <path d="M13.9453 27.8906C21.6426 27.8906 27.8906 21.6426 27.8906 13.9453C27.8906 6.24805 21.6426 0 13.9453 0C6.24805 0 0 6.24805 0 13.9453C0 21.6426 6.24805 27.8906 13.9453 27.8906ZM13.9453 25.5664C7.51953 25.5664 2.32422 20.3711 2.32422 13.9453C2.32422 7.51953 7.51953 2.32422 13.9453 2.32422C20.3711 2.32422 25.5664 7.51953 25.5664 13.9453C25.5664 20.3711 20.3711 25.5664 13.9453 25.5664Z" fill="black" fill-opacity="0.85"/>
  <path d="M8.88672 20.084C9.29688 20.084 9.55664 19.8105 9.55664 19.373L9.55664 9.43359L12.5918 9.43359C14.1504 9.43359 14.9434 9.84375 14.9434 11.6211L14.9434 15.7363C14.9434 16.1738 15.1895 16.4609 15.627 16.4609C16.0371 16.4609 16.2969 16.1738 16.2969 15.7363L16.2969 11.3477C16.2969 9.0918 15.3125 7.94336 13.043 7.94336L9.22852 7.94336C8.58594 7.94336 8.18945 8.33984 8.18945 8.98242L8.18945 19.373C8.18945 19.8105 8.46289 20.084 8.88672 20.084ZM12.5645 19.9609L16.5293 19.9609C18.8945 19.9609 19.6738 18.6758 19.6738 16.3242L19.6738 8.55859C19.6738 8.10742 19.4141 7.82031 18.9902 7.82031C18.5664 7.82031 18.293 8.10742 18.293 8.55859L18.293 16.2559C18.293 18.0195 17.9102 18.457 16.1602 18.457L12.9336 18.457L12.9336 12.1543C12.9336 11.7168 12.6738 11.4434 12.2637 11.4434C11.8398 11.4434 11.5664 11.7168 11.5664 12.1543L11.5664 18.9766C11.5664 19.6055 11.9766 19.9609 12.5645 19.9609Z" fill="black" fill-opacity="0.85"/>
 </g>
</svg>
