<?xml version="1.0" encoding="UTF-8"?>
<!--Generator: Apple Native CoreSVG 326-->
<!DOCTYPE svg
PUBLIC "-//W3C//DTD SVG 1.1//EN"
       "http://www.w3.org/Graphics/SVG/1.1/DTD/svg11.dtd">
<svg version="1.1" xmlns="http://www.w3.org/2000/svg" xmlns:xlink="http://www.w3.org/1999/xlink" viewBox="0 0 33.5408 27.9043">
 <g>
  <rect height="27.9043" opacity="0" width="33.5408" x="0" y="0"/>
  <path d="M16.5995 27.8906C24.2968 27.8906 30.5448 21.6426 30.5448 13.9453C30.5448 6.24805 24.2968 0 16.5995 0C8.90224 0 2.65419 6.24805 2.65419 13.9453L4.97841 13.9453C4.97841 7.51953 10.1737 2.32422 16.5995 2.32422C23.0253 2.32422 28.2206 7.51953 28.2206 13.9453C28.2206 20.3711 23.0253 25.5664 16.5995 25.5664C12.7167 25.5664 9.2577 23.6523 7.19325 20.7539C6.76942 20.1934 6.12684 20.0156 5.55263 20.3574C5.00575 20.6992 4.84169 21.4648 5.30653 22.0664C7.83583 25.6074 11.9784 27.8906 16.5995 27.8906ZM0.972548 11.3066C-0.0118272 11.3066-0.257921 11.9766 0.275282 12.7422L3.33778 17.0898C3.78895 17.7188 4.4452 17.7051 4.8827 17.0898L7.93153 12.7285C8.46474 11.9766 8.20497 11.3066 7.24794 11.3066Z" fill="black" fill-opacity="0.85"/>
  <path d="M11.5546 20.084C11.9647 20.084 12.2245 19.8105 12.2245 19.373L12.2245 9.43359L15.2597 9.43359C16.8183 9.43359 17.6112 9.84375 17.6112 11.6211L17.6112 15.7363C17.6112 16.1738 17.8573 16.4609 18.2948 16.4609C18.705 16.4609 18.9647 16.1738 18.9647 15.7363L18.9647 11.3477C18.9647 9.0918 17.9804 7.94336 15.7108 7.94336L11.8964 7.94336C11.2538 7.94336 10.8573 8.33984 10.8573 8.98242L10.8573 19.373C10.8573 19.8105 11.1308 20.084 11.5546 20.084ZM15.2323 19.9609L19.1972 19.9609C21.5624 19.9609 22.3417 18.6758 22.3417 16.3242L22.3417 8.55859C22.3417 8.10742 22.0819 7.82031 21.6581 7.82031C21.2343 7.82031 20.9608 8.10742 20.9608 8.55859L20.9608 16.2559C20.9608 18.0195 20.578 18.457 18.828 18.457L15.6015 18.457L15.6015 12.1543C15.6015 11.7168 15.3417 11.4434 14.9315 11.4434C14.5077 11.4434 14.2343 11.7168 14.2343 12.1543L14.2343 18.9766C14.2343 19.6055 14.6444 19.9609 15.2323 19.9609Z" fill="black" fill-opacity="0.85"/>
 </g>
</svg>
