<?xml version="1.0" encoding="UTF-8"?>
<!--Generator: Apple Native CoreSVG 326-->
<!DOCTYPE svg
PUBLIC "-//W3C//DTD SVG 1.1//EN"
       "http://www.w3.org/Graphics/SVG/1.1/DTD/svg11.dtd">
<svg version="1.1" xmlns="http://www.w3.org/2000/svg" xmlns:xlink="http://www.w3.org/1999/xlink" viewBox="0 0 23.0781 28.3418">
 <g>
  <rect height="28.3418" opacity="0" width="23.0781" x="0" y="0"/>
  <path d="M11.3613 28.3418C11.5801 28.3418 11.9355 28.2598 12.2773 28.0684C20.0566 23.707 22.7227 21.8613 22.7227 16.8711L22.7227 6.41211C22.7227 4.97656 22.1074 4.52539 20.9453 4.0332C19.332 3.36328 14.123 1.49023 12.5098 0.929688C12.1406 0.806641 11.7441 0.724609 11.3613 0.724609C10.9785 0.724609 10.582 0.833984 10.2266 0.929688C8.61328 1.39453 3.39062 3.37695 1.77734 4.0332C0.628906 4.51172 0 4.97656 0 6.41211L0 16.8711C0 21.8613 2.67969 23.6934 10.4453 28.0684C10.8008 28.2598 11.1426 28.3418 11.3613 28.3418ZM11.3613 25.8672C11.1426 25.8672 10.9238 25.7852 10.5137 25.5391C4.19727 21.7109 2.17383 20.5898 2.17383 16.3652L2.17383 6.83594C2.17383 6.37109 2.25586 6.19336 2.63867 6.04297C4.7168 5.22266 8.75 3.86914 10.8145 3.04883C11.0332 2.95312 11.2109 2.92578 11.3613 2.92578C11.5117 2.92578 11.6895 2.9668 11.9082 3.04883C13.9727 3.86914 17.9785 5.31836 20.0977 6.04297C20.4668 6.17969 20.5488 6.37109 20.5488 6.83594L20.5488 16.3652C20.5488 20.5898 18.5254 21.6973 12.209 25.5391C11.8125 25.7852 11.5801 25.8672 11.3613 25.8672Z" fill="black" fill-opacity="0.85"/>
 </g>
</svg>
