<?xml version="1.0" encoding="UTF-8"?>
<!--Generator: Apple Native CoreSVG 326-->
<!DOCTYPE svg
PUBLIC "-//W3C//DTD SVG 1.1//EN"
       "http://www.w3.org/Graphics/SVG/1.1/DTD/svg11.dtd">
<svg version="1.1" xmlns="http://www.w3.org/2000/svg" xmlns:xlink="http://www.w3.org/1999/xlink" viewBox="0 0 29.7637 25.5527">
 <g>
  <rect height="25.5527" opacity="0" width="29.7637" x="0" y="0"/>
  <path d="M10.4863 25.375L18.9219 25.375C20.8359 25.375 21.8613 24.2539 21.8613 22.4492L21.8613 16.3242L27.4121 16.3242C28.5332 16.3242 29.4082 15.6406 29.4082 14.6016C29.4082 13.959 29.0801 13.4805 28.5879 12.9883L16.3926 0.833984C15.8594 0.300781 15.3125 0 14.6973 0C14.0957 0 13.5352 0.300781 13.0156 0.833984L0.820312 12.9883C0.287109 13.5078 0 13.959 0 14.6016C0 15.6406 0.875 16.3242 1.98242 16.3242L7.54688 16.3242L7.54688 22.4492C7.54688 24.2539 8.57227 25.375 10.4863 25.375ZM10.7051 23.2559C10.1855 23.2559 9.83008 22.9004 9.83008 22.3945L9.83008 14.7246C9.83008 14.3828 9.70703 14.2598 9.37891 14.2598L3.0625 14.2598C2.9668 14.2598 2.91211 14.2188 2.91211 14.1504C2.91211 14.0957 2.93945 14.0547 2.99414 13.9863L14.4102 2.63867C14.5195 2.5293 14.6152 2.50195 14.6973 2.50195C14.793 2.50195 14.8887 2.5293 14.9844 2.63867L26.4004 13.9863C26.4688 14.0547 26.4824 14.0957 26.4824 14.1504C26.4824 14.2188 26.4414 14.2598 26.332 14.2598L20.0293 14.2598C19.7012 14.2598 19.5781 14.3828 19.5781 14.7246L19.5781 22.3945C19.5781 22.8867 19.209 23.2559 18.7031 23.2559Z" fill="black" fill-opacity="0.85"/>
 </g>
</svg>
