<?xml version="1.0" encoding="UTF-8"?>
<!--Generator: Apple Native CoreSVG 326-->
<!DOCTYPE svg
PUBLIC "-//W3C//DTD SVG 1.1//EN"
       "http://www.w3.org/Graphics/SVG/1.1/DTD/svg11.dtd">
<svg version="1.1" xmlns="http://www.w3.org/2000/svg" xmlns:xlink="http://www.w3.org/1999/xlink" viewBox="0 0 40.2227 30.0918">
 <g>
  <rect height="30.0918" opacity="0" width="40.2227" x="0" y="0"/>
  <path d="M27.8086 0.984375L37.4883 6.48047C38.6367 7.13672 39.1562 8.02539 39.1562 9.44727L39.1562 20.2754C39.1562 22.2305 38.5 22.9551 37.2422 23.666L26.4824 29.7637C25.7168 30.2012 24.9922 30.2012 24.2266 29.7637L13.4668 23.666C12.2227 22.9551 11.5527 22.2305 11.5527 20.2754L11.5527 19.8379L13.6309 19.8379L13.6309 20.207C13.6309 20.959 13.9043 21.4238 14.6836 21.8613L24.2812 27.3164L24.2812 15.9688L13.6309 9.88477L13.6309 13.6309L11.5527 13.6309L11.5527 9.44727C11.5527 8.02539 12.0723 7.13672 13.2344 6.48047L22.9004 0.984375C24.5547 0.0410156 26.1543 0.0410156 27.8086 0.984375ZM26.4277 15.9688L26.4277 27.3164L36.0254 21.8613C36.8047 21.4238 37.0781 20.959 37.0781 20.207L37.0781 9.88477ZM14.8066 8.08008L25.3613 14.0547L29.5859 11.6621L19.0312 5.66016ZM23.8027 2.93945L21.1914 4.42969L31.7871 10.418L35.9023 8.08008L26.9062 2.93945C25.8398 2.32422 24.8691 2.33789 23.8027 2.93945Z" fill="black" fill-opacity="0.85"/>
  <path d="M17.3633 16.7344C17.3633 16.1465 16.8711 15.6543 16.2969 15.6543L5.04492 15.6543L2.99414 15.7363L3.81445 14.9707L6.07031 12.8516C6.28906 12.6602 6.38477 12.3594 6.38477 12.0996C6.38477 11.5254 5.98828 11.1152 5.42773 11.1152C5.14062 11.1152 4.92188 11.2383 4.7168 11.4434L0.369141 15.9414C0.0957031 16.2285 0 16.4609 0 16.7344C0 17.0215 0.0957031 17.2539 0.369141 17.5273L4.7168 22.0391C4.92188 22.2441 5.14062 22.3535 5.42773 22.3535C5.98828 22.3535 6.38477 21.9297 6.38477 21.3555C6.38477 21.0957 6.28906 20.8086 6.07031 20.6172L3.81445 18.5117L3.00781 17.7461L5.04492 17.8281L16.2969 17.8281C16.8711 17.8281 17.3633 17.3223 17.3633 16.7344Z" fill="black" fill-opacity="0.85"/>
 </g>
</svg>
