<?xml version="1.0" encoding="UTF-8"?>
<!--Generator: Apple Native CoreSVG 326-->
<!DOCTYPE svg
PUBLIC "-//W3C//DTD SVG 1.1//EN"
       "http://www.w3.org/Graphics/SVG/1.1/DTD/svg11.dtd">
<svg version="1.1" xmlns="http://www.w3.org/2000/svg" xmlns:xlink="http://www.w3.org/1999/xlink" viewBox="0 0 28.2461 27.9043">
 <g>
  <rect height="27.9043" opacity="0" width="28.2461" x="0" y="0"/>
  <path d="M13.9453 27.8906C21.6426 27.8906 27.8906 21.6289 27.8906 13.9453C27.8906 6.24805 21.6426 0 13.9453 0C6.26172 0 0 6.24805 0 13.9453C0 21.6289 6.26172 27.8906 13.9453 27.8906Z" fill="black" fill-opacity="0.85"/>
  <path d="M14.4512 21.957L14.4512 14.3965L21.3555 10.4453C21.4102 10.6094 21.4238 10.8008 21.4238 11.0059L21.4238 16.748C21.4238 17.8145 21.0273 18.1973 20.3711 18.5938L14.5879 21.8887C14.5469 21.916 14.5059 21.9434 14.4512 21.957ZM13.4395 21.957C13.3848 21.9434 13.3438 21.916 13.2891 21.8887L7.51953 18.5938C6.84961 18.1973 6.49414 17.8145 6.49414 16.748L6.49414 11.0059C6.49414 10.8008 6.49414 10.6094 6.53516 10.4453L13.4395 14.3965ZM13.9453 13.5215L7.01367 9.58398C7.10938 9.47461 7.24609 9.37891 7.42383 9.29688L10.1309 7.75195L17.0898 11.7305ZM18.1152 11.1562L11.1152 7.17773L12.6191 6.33008C13.0703 6.07031 13.5215 5.93359 13.9453 5.93359C14.3828 5.93359 14.834 6.07031 15.2852 6.33008L20.4668 9.29688C20.6309 9.37891 20.7812 9.47461 20.877 9.58398Z" fill="white"/>
 </g>
</svg>
