<?xml version="1.0" encoding="UTF-8"?>
<!--Generator: Apple Native CoreSVG 326-->
<!DOCTYPE svg
PUBLIC "-//W3C//DTD SVG 1.1//EN"
       "http://www.w3.org/Graphics/SVG/1.1/DTD/svg11.dtd">
<svg version="1.1" xmlns="http://www.w3.org/2000/svg" xmlns:xlink="http://www.w3.org/1999/xlink" viewBox="0 0 49.7793 28.3145">
 <g>
  <rect height="28.3145" opacity="0" width="49.7793" x="0" y="0"/>
  <path d="M4.18359 18.6211L5.42773 18.6211L5.42773 20.5215C5.42892 20.7744 5.43711 21.02 5.46077 21.2493C3.51527 21.1059 1.59847 20.1863 0.902344 17.6504C1.96875 18.4297 2.92578 18.6211 4.18359 18.6211ZM20.4941 3.34961L24.6454 5.74935C22.4711 5.53508 20.3761 6.41498 18.6348 8.66797C17.3223 10.3633 16.4609 10.8281 15.2715 10.8281C13.9863 10.8281 13.3574 10.6641 12.4414 10.2539C8.88672 8.68164 5.42773 10.8418 5.42773 14.4785L5.42773 17.0352L4.18359 17.0352C2.46094 17.0352 1.53125 16.7207 0.65625 15.7363C0.65625 15.6406 0.642578 15.5312 0.642578 15.4219L0.642578 9.29688C0.642578 6.79492 2.93945 5.85156 5.03125 6.76758C6.13867 7.27344 7.13672 7.50586 8.61328 7.50586C10.2812 7.50586 11.8945 6.64453 13.4668 4.63477C15.4766 2.03711 17.8691 1.8457 20.4941 3.34961ZM40.7285 9.625C41.2102 10.1388 41.3359 10.7553 41.095 11.3895C39.6292 11.546 38.1096 11.7578 37.584 11.7578C36.6953 11.7578 35.9434 11.5391 34.959 10.9512L30.669 8.43516C31.937 8.43128 35.2657 7.90234 36.75 7.90234C38.5957 7.90234 39.9492 8.70898 40.7285 9.625Z" fill="black" fill-opacity="0.85"/>
  <path d="M10.8418 22.2168L34.6445 22.2168C38.0625 22.2168 39.6211 21.8066 41.5762 20.7676L45.5684 18.6621C47.8105 17.459 48.4121 15.9004 47.3867 14.8066C46.6074 13.8906 45.2539 13.084 43.4082 13.084C41.918 13.084 38.5684 13.6172 37.3105 13.6172C36.4219 13.6172 36.0254 13.5898 35.3828 13.2891L33.0586 16.4336C32.7852 16.8027 32.3066 16.8574 31.9512 16.543C31.623 16.2832 31.582 15.832 31.8555 15.4492L33.9746 12.5234L32.2656 11.5254L29.873 14.8613C29.5859 15.2578 29.1211 15.2852 28.752 14.957C28.4102 14.7109 28.3555 14.2734 28.6426 13.8633L30.9121 10.7324L29.2031 9.73438L26.6465 13.2891C26.3867 13.6309 25.8672 13.6582 25.5254 13.3984C25.1973 13.1387 25.1699 12.6191 25.416 12.291L27.8359 8.94141L27.1387 8.53125C24.5137 7.02734 22.1211 7.21875 20.1113 9.81641C18.5391 11.8262 16.9395 12.6875 15.2715 12.6875C13.7949 12.6875 12.7832 12.4551 11.6895 11.9492C9.58398 11.0332 7.30078 11.9766 7.30078 14.4785L7.30078 20.6035C7.30078 20.7129 7.30078 20.8223 7.30078 20.918C8.17578 21.9023 9.10547 22.2168 10.8418 22.2168ZM46.293 20.0703L42.3281 22.1484C40.0723 23.3516 38.2129 23.8027 34.6445 23.8027L10.8418 23.8027C9.57031 23.8027 8.61328 23.6113 7.56055 22.832C8.32617 25.6211 10.5547 26.4551 12.7012 26.4551L34.4531 26.4551C38.8418 26.4551 41.3848 25.7852 44.8027 23.8848C47.5234 22.3672 48.7812 20.4941 48.7812 18.334C48.7812 18.0469 48.7539 17.7734 48.7266 17.5137C48.4668 18.5527 47.8516 19.2363 46.293 20.0703Z" fill="black" fill-opacity="0.85"/>
 </g>
</svg>
