<?xml version="1.0" encoding="UTF-8"?>
<!--Generator: Apple Native CoreSVG 326-->
<!DOCTYPE svg
PUBLIC "-//W3C//DTD SVG 1.1//EN"
       "http://www.w3.org/Graphics/SVG/1.1/DTD/svg11.dtd">
<svg version="1.1" xmlns="http://www.w3.org/2000/svg" xmlns:xlink="http://www.w3.org/1999/xlink" viewBox="0 0 25.6895 31.8691">
 <g>
  <rect height="31.8691" opacity="0" width="25.6895" x="0" y="0"/>
  <path d="M22.2578 8.98242C19.4688 7.9707 15.4219 11.2656 14.2188 14.5469C13.6582 16.1191 13.0566 19.4004 13.3711 22.3262L20.4805 24.9102C22.6133 22.873 24.2676 20.002 24.8418 18.4023C26.0312 15.1348 25.0469 10.0078 22.2578 8.98242ZM14.1914 31.1719C16.2012 31.8965 18.0059 30.2969 19.0312 27.4805C19.127 27.207 19.2363 26.7969 19.3184 26.4688L13.3027 24.2676C13.1387 24.5684 12.9609 24.9512 12.8652 25.2246C11.8398 28.0547 12.1953 30.4336 14.1914 31.1719Z" fill="black" fill-opacity="0.85"/>
  <path d="M5.64648 0C2.69336 0 0 4.49805 0 7.98438C0 9.65234 0.560547 12.9336 1.87305 15.5723L9.43359 15.5723C10.7324 12.9336 11.3066 9.65234 11.3066 7.98438C11.3066 4.49805 8.61328 0 5.64648 0ZM5.66016 23.6113C7.79297 23.6113 8.94141 21.4922 8.94141 18.4844C8.94141 18.1973 8.91406 17.7734 8.85938 17.4453L2.46094 17.4453C2.40625 17.7734 2.37891 18.1973 2.37891 18.4844C2.37891 21.4922 3.52734 23.6113 5.66016 23.6113Z" fill="black" fill-opacity="0.85"/>
 </g>
</svg>
