<?xml version="1.0" encoding="UTF-8"?>
<!--Generator: Apple Native CoreSVG 326-->
<!DOCTYPE svg
PUBLIC "-//W3C//DTD SVG 1.1//EN"
       "http://www.w3.org/Graphics/SVG/1.1/DTD/svg11.dtd">
<svg version="1.1" xmlns="http://www.w3.org/2000/svg" xmlns:xlink="http://www.w3.org/1999/xlink" viewBox="0 0 48.4941 24.5957">
 <g>
  <rect height="24.5957" opacity="0" width="48.4941" x="0" y="0"/>
  <path d="M19.8516 1.47656L27.1797 5.76953C28.4785 6.50781 28.752 6.5625 30.0098 6.5625C31.2676 6.5625 34.6172 6.0293 36.1074 6.0293C39.3066 6.0293 41.4805 8.16211 41.4805 11.2793C41.4805 11.2853 41.4805 11.2913 41.4798 11.2971C40.7901 11.3578 39.996 11.4497 39.2362 11.5352C39.2374 11.5276 39.2379 11.5197 39.2383 11.5117C39.2383 11.252 39.2246 10.9922 39.1836 10.7598C39.1213 11.0667 39.0243 11.3317 38.8703 11.576C37.9702 11.6759 37.1526 11.7578 36.6543 11.7578C36.4615 11.7578 36.2917 11.7565 36.1395 11.7511L36.2852 11.6758C37.7891 10.8828 38.3633 10.1172 38.3633 9.57031C38.3633 8.57227 37.1875 8.23047 36.0938 8.23047C34.7989 8.23047 31.508 8.74943 30.0713 8.76238L26.4961 6.67188C25.2173 5.92868 23.9876 5.59863 22.8301 5.76369L18.7305 3.39062C16.8164 2.2832 15.9141 2.36523 14.5605 4.10156C12.6465 6.57617 10.2812 7.83398 7.9707 7.83398C6.04297 7.83398 4.59375 7.39648 3.25391 6.80859C2.74805 6.5625 2.20117 6.76758 2.20117 7.41016L2.20117 13.5488C2.20117 13.6445 2.20117 13.7539 2.21484 13.8496C2.625 14.1914 3.29492 14.3281 4.51172 14.3281L6.6582 14.3281L6.6582 15.8594L4.51172 15.8594C3.65039 15.8594 3.03516 15.7637 2.46094 15.5039C2.89844 16.8574 3.9375 17.1992 5.38672 17.1992L6.6582 17.1992L6.6582 18.7441C6.6582 18.9718 6.66498 19.1912 6.68006 19.4004L5.40039 19.4004C2.76172 19.4004 0 18.1426 0 13.5488L0 7.42383C0 4.92188 2.2832 3.97852 4.38867 4.89453C5.48242 5.40039 6.49414 5.63281 7.9707 5.63281C9.63867 5.63281 11.252 4.77148 12.8242 2.76172C14.8203 0.164062 17.2402-0.0410156 19.8516 1.47656Z" fill="black" fill-opacity="0.85"/>
  <path d="M26.4961 6.67188C23.8848 5.1543 21.4785 5.35938 19.4688 7.95703C17.8965 9.9668 16.2832 10.8281 14.6152 10.8281C13.1387 10.8281 12.1406 10.5957 11.0332 10.0898C8.94141 9.17383 6.6582 10.1172 6.6582 12.6191L6.6582 18.7441C6.6582 23.3379 9.41992 24.5957 12.0586 24.5957L33.7969 24.5957C38.1992 24.5957 40.7285 23.9258 44.1602 22.0254C46.8809 20.5078 48.1387 18.6348 48.1387 16.4746C48.1387 13.3574 45.9512 11.2246 42.752 11.2246C41.2754 11.2246 37.9258 11.7578 36.6543 11.7578C35.4102 11.7578 35.123 11.7031 33.8379 10.9648ZM8.87305 19.0449C8.85938 18.9492 8.85938 18.8535 8.85938 18.7441L8.85938 12.6055C8.85938 11.9629 9.40625 11.7578 9.91211 12.0039C11.252 12.5918 12.6875 13.0293 14.6152 13.0293C16.9395 13.0293 19.3047 11.7715 21.2188 9.29688C22.5723 7.56055 23.4746 7.47852 25.3887 8.58594L32.7441 12.8516C34.4121 13.8223 35.1504 13.959 36.6543 13.959C38.0625 13.959 41.4258 13.4258 42.7383 13.4258C43.8457 13.4258 45.0078 13.7676 45.0078 14.7656C45.0078 15.3262 44.4336 16.0781 42.9434 16.8711L40.4961 18.1289C38.5957 19.1406 37.1191 19.5234 33.7969 19.5234L11.1562 19.5234C9.95312 19.5234 9.26953 19.3867 8.87305 19.0449ZM9.10547 20.6992C9.69336 20.959 10.2949 21.0547 11.1562 21.0547L33.7969 21.0547C37.2559 21.0547 39.0605 20.5898 41.2344 19.4551L43.668 18.2246C45.1172 17.459 45.6367 16.8984 45.8281 15.9551C45.8691 16.1875 45.8965 16.4473 45.8828 16.707C45.8145 18.0469 44.9668 19.0723 43.1074 20.1113C39.9766 21.8477 37.8984 22.3945 33.7969 22.3945L12.0449 22.3945C10.582 22.3945 9.55664 22.0527 9.10547 20.6992ZM26.6055 8.13477L24.1855 11.457C23.9258 11.7852 23.9668 12.2773 24.2812 12.5234C24.6094 12.7832 25.1152 12.7559 25.3613 12.4277L27.7949 9.0918ZM29.6953 9.70703L27.3027 12.9883C27.0293 13.3574 27.084 13.7949 27.3984 14.041C27.7812 14.3418 28.2188 14.3281 28.4922 13.9453L30.8848 10.6641ZM32.7715 11.293L30.4199 14.5195C30.1465 14.875 30.1875 15.3262 30.502 15.5723C30.8574 15.873 31.3086 15.832 31.582 15.4766L33.9609 12.2363Z" fill="black" fill-opacity="0.85"/>
 </g>
</svg>
