<?xml version="1.0" encoding="UTF-8"?>
<!--Generator: Apple Native CoreSVG 326-->
<!DOCTYPE svg
PUBLIC "-//W3C//DTD SVG 1.1//EN"
       "http://www.w3.org/Graphics/SVG/1.1/DTD/svg11.dtd">
<svg version="1.1" xmlns="http://www.w3.org/2000/svg" xmlns:xlink="http://www.w3.org/1999/xlink" viewBox="0 0 22.5312 29.5996">
 <g>
  <rect height="29.5996" opacity="0" width="22.5312" x="0" y="0"/>
  <path d="M4.22461 29.4082C4.75781 29.4082 5.19531 28.9707 5.19531 28.4375C5.19531 27.9043 4.75781 27.4668 4.22461 27.4668C3.69141 27.4668 3.25391 27.9043 3.25391 28.4375C3.25391 28.9707 3.69141 29.4082 4.22461 29.4082ZM8.79102 29.4082C9.32422 29.4082 9.76172 28.9707 9.76172 28.4375C9.76172 27.9043 9.32422 27.4668 8.79102 27.4668C8.25781 27.4668 7.82031 27.9043 7.82031 28.4375C7.82031 28.9707 8.25781 29.4082 8.79102 29.4082ZM13.3438 29.4082C13.877 29.4082 14.3145 28.9707 14.3145 28.4375C14.3145 27.9043 13.877 27.4668 13.3438 27.4668C12.8105 27.4668 12.373 27.9043 12.373 28.4375C12.373 28.9707 12.8105 29.4082 13.3438 29.4082Z" fill="black" fill-opacity="0.85"/>
  <path d="M4.22461 25.334C4.75781 25.334 5.19531 24.8965 5.19531 24.3633C5.19531 23.8301 4.75781 23.3926 4.22461 23.3926C3.69141 23.3926 3.25391 23.8301 3.25391 24.3633C3.25391 24.8965 3.69141 25.334 4.22461 25.334ZM8.79102 25.334C9.32422 25.334 9.76172 24.8965 9.76172 24.3633C9.76172 23.8301 9.32422 23.3926 8.79102 23.3926C8.25781 23.3926 7.82031 23.8301 7.82031 24.3633C7.82031 24.8965 8.25781 25.334 8.79102 25.334ZM13.3438 25.334C13.877 25.334 14.3145 24.8965 14.3145 24.3633C14.3145 23.8301 13.877 23.3926 13.3438 23.3926C12.8105 23.3926 12.373 23.8301 12.373 24.3633C12.373 24.8965 12.8105 25.334 13.3438 25.334Z" fill="black" fill-opacity="0.85"/>
  <path d="M4.22461 21.2461C4.75781 21.2461 5.19531 20.8223 5.19531 20.2754C5.19531 19.7422 4.75781 19.3047 4.22461 19.3047C3.69141 19.3047 3.25391 19.7422 3.25391 20.2754C3.25391 20.8223 3.69141 21.2461 4.22461 21.2461ZM8.79102 21.2461C9.32422 21.2461 9.76172 20.8223 9.76172 20.2754C9.76172 19.7422 9.32422 19.3047 8.79102 19.3047C8.25781 19.3047 7.82031 19.7422 7.82031 20.2754C7.82031 20.8223 8.25781 21.2461 8.79102 21.2461ZM13.3438 21.2461C13.877 21.2461 14.3145 20.8223 14.3145 20.2754C14.3145 19.7422 13.877 19.3047 13.3438 19.3047C12.8105 19.3047 12.373 19.7422 12.373 20.2754C12.373 20.8223 12.8105 21.2461 13.3438 21.2461Z" fill="black" fill-opacity="0.85"/>
  <path d="M15.2578 0L11.5527 0C9.22852 0 7.7793 1.42188 7.7793 3.69141L7.7793 6.09766L9.84375 6.09766L9.84375 3.69141C9.84375 2.69336 10.4863 2.07812 11.5527 2.07812L15.2578 2.07812C18.2109 2.07812 20.1113 4.12891 20.1113 7.30078L20.1113 28.5195C20.1113 29.1348 20.5352 29.5723 21.1367 29.5723C21.7383 29.5723 22.1758 29.1348 22.1758 28.5195L22.1758 7.30078C22.1758 2.85742 19.4824 0 15.2578 0ZM0 16.707C0 17.1992 0.410156 17.5957 0.902344 17.5957L16.7207 17.5957C17.2129 17.5957 17.6094 17.1992 17.6094 16.707C17.6094 16.2148 17.2266 15.8047 16.748 15.8047L16.666 15.8047C16.5566 12.8652 14.6836 10.3223 12.0996 9.11914L12.0996 8.06641C12.0996 6.17969 10.7324 4.78516 8.80469 4.78516C6.87695 4.78516 5.50977 6.17969 5.50977 8.06641L5.50977 9.11914C2.92578 10.3223 1.05273 12.8652 0.943359 15.8047L0.875 15.8047C0.396484 15.8047 0 16.2148 0 16.707Z" fill="black" fill-opacity="0.85"/>
 </g>
</svg>
