<?xml version="1.0" encoding="UTF-8"?>
<!--Generator: Apple Native CoreSVG 326-->
<!DOCTYPE svg
PUBLIC "-//W3C//DTD SVG 1.1//EN"
       "http://www.w3.org/Graphics/SVG/1.1/DTD/svg11.dtd">
<svg version="1.1" xmlns="http://www.w3.org/2000/svg" xmlns:xlink="http://www.w3.org/1999/xlink" viewBox="0 0 28.2461 27.9043">
 <g>
  <rect height="27.9043" opacity="0" width="28.2461" x="0" y="0"/>
  <path d="M13.9453 27.8906C21.6426 27.8906 27.8906 21.6289 27.8906 13.9453C27.8906 6.24805 21.6426 0 13.9453 0C6.26172 0 0 6.24805 0 13.9453C0 21.6289 6.26172 27.8906 13.9453 27.8906Z" fill="black" fill-opacity="0.85"/>
  <path d="M5.23633 17.7188C5.23633 17.2539 5.63281 16.8848 6.13867 16.8848L7.83398 16.8848C8.53125 16.8848 8.96875 16.666 9.55664 15.9551L11.2793 13.9453L9.55664 11.9355C8.98242 11.2383 8.53125 11.0059 7.83398 11.0059L6.13867 11.0059C5.63281 11.0059 5.23633 10.6367 5.23633 10.1719C5.23633 9.67969 5.60547 9.33789 6.13867 9.33789L7.80664 9.33789C9.06445 9.33789 9.85742 9.69336 10.7871 10.7734L12.3867 12.6465L13.9863 10.7734C14.9297 9.69336 15.709 9.33789 16.9805 9.33789L18.293 9.33789L18.293 7.7793C18.293 7.35547 18.5527 7.0957 18.9766 7.0957C19.168 7.0957 19.3594 7.16406 19.4961 7.27344L22.2988 9.58398C22.627 9.87109 22.6133 10.3633 22.2852 10.6367L19.5098 12.9062C19.4004 13.043 19.1816 13.1113 18.9766 13.1113C18.5664 13.1113 18.293 12.8379 18.293 12.4141L18.293 11.0059L17.0352 11.0059C16.2559 11.0059 15.8184 11.2383 15.2305 11.9355L13.5078 13.9453L15.2305 15.9551C15.8184 16.6523 16.2559 16.8848 17.0352 16.8848L18.293 16.8848L18.293 15.5176C18.293 15.0938 18.5664 14.8203 18.9766 14.8203C19.1816 14.8203 19.4004 14.8887 19.5098 15.0254L22.2988 17.3223C22.627 17.5957 22.627 18.0742 22.2852 18.3613L19.4961 20.6582C19.3594 20.7676 19.168 20.8359 18.9766 20.8359C18.5527 20.8359 18.293 20.5762 18.293 20.1523L18.293 18.5527L16.9805 18.5527C15.709 18.5527 14.9297 18.1973 13.9863 17.1172L12.3867 15.2441L10.7871 17.1172C9.85742 18.1973 9.06445 18.5527 7.80664 18.5527L6.13867 18.5527C5.60547 18.5527 5.23633 18.1973 5.23633 17.7188Z" fill="white"/>
 </g>
</svg>
