<?xml version="1.0" encoding="UTF-8"?>
<!--Generator: Apple Native CoreSVG 326-->
<!DOCTYPE svg
PUBLIC "-//W3C//DTD SVG 1.1//EN"
       "http://www.w3.org/Graphics/SVG/1.1/DTD/svg11.dtd">
<svg version="1.1" xmlns="http://www.w3.org/2000/svg" xmlns:xlink="http://www.w3.org/1999/xlink" viewBox="0 0 28.2461 27.9043">
 <g>
  <rect height="27.9043" opacity="0" width="28.2461" x="0" y="0"/>
  <path d="M13.9453 27.8906C21.6426 27.8906 27.8906 21.6426 27.8906 13.9453C27.8906 6.24805 21.6426 0 13.9453 0C6.24805 0 0 6.24805 0 13.9453C0 21.6426 6.24805 27.8906 13.9453 27.8906ZM13.9453 25.5664C7.51953 25.5664 2.32422 20.3711 2.32422 13.9453C2.32422 7.51953 7.51953 2.32422 13.9453 2.32422C20.3711 2.32422 25.5664 7.51953 25.5664 13.9453C25.5664 20.3711 20.3711 25.5664 13.9453 25.5664Z" fill="black" fill-opacity="0.85"/>
  <path d="M5.48242 17.6094C5.48242 18.0742 5.85156 18.416 6.35742 18.416L7.98438 18.416C9.21484 18.416 9.9668 18.0605 10.8691 17.0215L15.1758 11.9902C15.75 11.3203 16.1875 11.0879 16.9395 11.0879L18.1426 11.0879L18.1426 12.4551C18.1426 12.8652 18.416 13.1387 18.8125 13.1387C19.0176 13.1387 19.209 13.0703 19.332 12.9336L22.0117 10.7324C22.3262 10.4727 22.3398 9.99414 22.0254 9.7207L19.3184 7.47852C19.1816 7.36914 19.0039 7.30078 18.8125 7.30078C18.4023 7.30078 18.1426 7.56055 18.1426 7.9707L18.1426 9.47461L16.8848 9.47461C15.6543 9.47461 14.8887 9.83008 13.9863 10.8691L9.69336 15.9004C9.10547 16.584 8.68164 16.8027 8.01172 16.8027L6.35742 16.8027C5.86523 16.8027 5.48242 17.1582 5.48242 17.6094ZM5.48242 10.2812C5.48242 10.7324 5.86523 11.0879 6.35742 11.0879L8.01172 11.0879C8.68164 11.0879 9.11914 11.3203 9.69336 11.9902L13.9863 17.0215C14.8887 18.0605 15.6543 18.416 16.8848 18.416L18.1426 18.416L18.1426 19.9609C18.1426 20.3711 18.4023 20.6309 18.8125 20.6309C19.0039 20.6309 19.1816 20.5625 19.3184 20.4531L22.0117 18.2246C22.3398 17.9512 22.3398 17.4863 22.0254 17.2266L19.332 14.998C19.209 14.8613 19.0176 14.793 18.8125 14.793C18.416 14.793 18.1426 15.0664 18.1426 15.4766L18.1426 16.8027L16.9395 16.8027C16.1875 16.8027 15.75 16.5703 15.1758 15.9004L10.8691 10.8691C9.9668 9.83008 9.21484 9.47461 7.98438 9.47461L6.35742 9.47461C5.85156 9.47461 5.48242 9.81641 5.48242 10.2812Z" fill="black" fill-opacity="0.85"/>
 </g>
</svg>
