<?xml version="1.0" encoding="UTF-8"?>
<!--Generator: Apple Native CoreSVG 326-->
<!DOCTYPE svg
PUBLIC "-//W3C//DTD SVG 1.1//EN"
       "http://www.w3.org/Graphics/SVG/1.1/DTD/svg11.dtd">
<svg version="1.1" xmlns="http://www.w3.org/2000/svg" xmlns:xlink="http://www.w3.org/1999/xlink" viewBox="0 0 32.5938 25.1973">
 <g>
  <rect height="25.1973" opacity="0" width="32.5938" x="0" y="0"/>
  <path d="M4.29297 25.1973L27.9453 25.1973C30.8164 25.1973 32.2383 23.7754 32.2383 20.959L32.2383 4.26562C32.2383 1.44922 30.8164 0.0273438 27.9453 0.0273438L4.29297 0.0273438C1.43555 0.0273438 0 1.43555 0 4.26562L0 20.959C0 23.7891 1.43555 25.1973 4.29297 25.1973ZM4.32031 22.9961C2.95312 22.9961 2.20117 22.2715 2.20117 20.8496L2.20117 4.375C2.20117 2.95312 2.95312 2.22852 4.32031 2.22852L27.918 2.22852C29.2715 2.22852 30.0371 2.95312 30.0371 4.375L30.0371 20.8496C30.0371 22.2715 29.2715 22.9961 27.918 22.9961ZM10.418 23.4199L12.5645 23.4199L12.5645 1.81836L10.418 1.81836ZM7.79297 7.30078C8.20312 7.30078 8.57227 6.93164 8.57227 6.53516C8.57227 6.125 8.20312 5.76953 7.79297 5.76953L4.85352 5.76953C4.44336 5.76953 4.08789 6.125 4.08789 6.53516C4.08789 6.93164 4.44336 7.30078 4.85352 7.30078ZM7.79297 10.8418C8.20312 10.8418 8.57227 10.4727 8.57227 10.0625C8.57227 9.65234 8.20312 9.31055 7.79297 9.31055L4.85352 9.31055C4.44336 9.31055 4.08789 9.65234 4.08789 10.0625C4.08789 10.4727 4.44336 10.8418 4.85352 10.8418ZM7.79297 14.3691C8.20312 14.3691 8.57227 14.0273 8.57227 13.6172C8.57227 13.207 8.20312 12.8516 7.79297 12.8516L4.85352 12.8516C4.44336 12.8516 4.08789 13.207 4.08789 13.6172C4.08789 14.0273 4.44336 14.3691 4.85352 14.3691Z" fill="black" fill-opacity="0.85"/>
 </g>
</svg>
