<?xml version="1.0" encoding="UTF-8"?>
<!--Generator: Apple Native CoreSVG 326-->
<!DOCTYPE svg
PUBLIC "-//W3C//DTD SVG 1.1//EN"
       "http://www.w3.org/Graphics/SVG/1.1/DTD/svg11.dtd">
<svg version="1.1" xmlns="http://www.w3.org/2000/svg" xmlns:xlink="http://www.w3.org/1999/xlink" viewBox="0 0 28.2461 27.9043">
 <g>
  <rect height="27.9043" opacity="0" width="28.2461" x="0" y="0"/>
  <path d="M13.9453 27.8906C21.6426 27.8906 27.8906 21.6426 27.8906 13.9453C27.8906 6.24805 21.6426 0 13.9453 0C6.24805 0 0 6.24805 0 13.9453C0 21.6426 6.24805 27.8906 13.9453 27.8906ZM13.9453 25.5664C7.51953 25.5664 2.32422 20.3711 2.32422 13.9453C2.32422 7.51953 7.51953 2.32422 13.9453 2.32422C20.3711 2.32422 25.5664 7.51953 25.5664 13.9453C25.5664 20.3711 20.3711 25.5664 13.9453 25.5664Z" fill="black" fill-opacity="0.85"/>
  <path d="M7.10938 14.0137C7.10938 15.0254 7.66992 15.5859 8.69531 15.5859L13.1797 15.5859L13.1797 20.5898L11.0059 20.5898C10.5957 20.5898 10.2402 20.9453 10.2402 21.3555C10.2402 21.7656 10.5957 22.1074 11.0059 22.1074L16.8574 22.1074C17.2676 22.1074 17.623 21.752 17.623 21.3555C17.623 20.9453 17.2676 20.5898 16.8574 20.5898L14.6973 20.5898L14.6973 15.5859L19.168 15.5859C20.1934 15.5859 20.7676 15.0254 20.7676 14.0137L20.7676 9.36523C20.7676 8.35352 20.1934 7.79297 19.168 7.79297L14.6973 7.79297L14.6973 6.53516C14.6973 6.125 14.3418 5.7832 13.9316 5.7832C13.5215 5.7832 13.1797 6.125 13.1797 6.53516L13.1797 7.79297L8.69531 7.79297C7.66992 7.79297 7.10938 8.35352 7.10938 9.36523ZM11.7031 12.5781L13.5078 10.0078C13.7402 9.66602 14.1367 9.65234 14.3828 10.0078L16.1738 12.5781C16.4746 13.0156 16.3242 13.3848 15.791 13.3848L12.1133 13.3848C11.5391 13.3848 11.4023 13.0156 11.7031 12.5781Z" fill="black" fill-opacity="0.85"/>
 </g>
</svg>
