<?xml version="1.0" encoding="UTF-8"?>
<!--Generator: Apple Native CoreSVG 326-->
<!DOCTYPE svg
PUBLIC "-//W3C//DTD SVG 1.1//EN"
       "http://www.w3.org/Graphics/SVG/1.1/DTD/svg11.dtd">
<svg version="1.1" xmlns="http://www.w3.org/2000/svg" xmlns:xlink="http://www.w3.org/1999/xlink" viewBox="0 0 28.2461 27.9043">
 <g>
  <rect height="27.9043" opacity="0" width="28.2461" x="0" y="0"/>
  <path d="M13.9453 27.8906C21.6426 27.8906 27.8906 21.6426 27.8906 13.9453C27.8906 6.24805 21.6426 0 13.9453 0C6.24805 0 0 6.24805 0 13.9453C0 21.6426 6.24805 27.8906 13.9453 27.8906ZM13.9453 25.5664C7.51953 25.5664 2.32422 20.3711 2.32422 13.9453C2.32422 7.51953 7.51953 2.32422 13.9453 2.32422C20.3711 2.32422 25.5664 7.51953 25.5664 13.9453C25.5664 20.3711 20.3711 25.5664 13.9453 25.5664Z" fill="black" fill-opacity="0.85"/>
  <path d="M11.5938 12.168L13.166 12.168L13.166 13.2891L9.74805 13.2891C9.35156 13.2891 9.07812 13.3984 8.81836 13.6309L7.49219 14.916C6.97266 15.4082 6.97266 15.8867 7.49219 16.3789L8.81836 17.6504C9.07812 17.8965 9.36523 18.0059 9.74805 18.0059L13.166 18.0059L13.166 20.2344L11.4707 20.2344C11.0605 20.2344 10.7324 20.5625 10.7324 20.9863C10.7324 21.4102 11.0605 21.752 11.4707 21.752L16.3516 21.752C16.7754 21.752 17.1172 21.4102 17.1172 20.9863C17.1172 20.5625 16.7754 20.2344 16.3516 20.2344L14.6836 20.2344L14.6836 18.0059L16.2422 18.0059C16.8574 18.0059 17.2266 17.6504 17.2266 17.0215L17.2266 14.2598C17.2266 13.6309 16.8574 13.2891 16.2422 13.2891L14.6836 13.2891L14.6836 12.168L18.0879 12.168C18.4707 12.168 18.7578 12.0586 19.0176 11.8125L20.3574 10.541C20.8633 10.0625 20.8633 9.58398 20.3438 9.07812L19.0176 7.79297C18.7578 7.56055 18.4844 7.45117 18.0879 7.45117L14.6836 7.45117L14.6836 6.31641C14.6836 5.90625 14.3418 5.55078 13.918 5.55078C13.4941 5.55078 13.166 5.90625 13.166 6.31641L13.166 7.45117L11.5938 7.45117C10.9785 7.45117 10.6094 7.79297 10.6094 8.43555L10.6094 11.1973C10.6094 11.8125 10.9785 12.168 11.5938 12.168Z" fill="black" fill-opacity="0.85"/>
 </g>
</svg>
