<?xml version="1.0" encoding="UTF-8"?>
<!--Generator: Apple Native CoreSVG 326-->
<!DOCTYPE svg
PUBLIC "-//W3C//DTD SVG 1.1//EN"
       "http://www.w3.org/Graphics/SVG/1.1/DTD/svg11.dtd">
<svg version="1.1" xmlns="http://www.w3.org/2000/svg" xmlns:xlink="http://www.w3.org/1999/xlink" viewBox="0 0 28.2461 27.9043">
 <g>
  <rect height="27.9043" opacity="0" width="28.2461" x="0" y="0"/>
  <path d="M13.9453 27.9043C21.6426 27.9043 27.8906 21.6562 27.8906 13.959C27.8906 6.27539 21.6426 0.0136719 13.9453 0.0136719C6.26172 0.0136719 0 6.27539 0 13.959C0 21.6562 6.26172 27.9043 13.9453 27.9043Z" fill="black" fill-opacity="0.85"/>
  <path d="M8.88672 15.4902C7.92969 15.4902 7.39648 14.9707 7.39648 14.041L7.39648 10.1035C7.39648 9.17383 7.92969 8.66797 8.88672 8.66797L13.125 8.66797L13.125 7.0957C13.125 6.64453 13.4668 6.28906 13.918 6.28906C14.3418 6.28906 14.6973 6.64453 14.6973 7.0957L14.6973 8.66797L18.1016 8.66797C18.7305 8.66797 19.0312 8.8457 19.373 9.20117L21.2461 10.9785C22.0391 11.7168 22.0117 12.4414 21.2598 13.166L19.373 14.957C19.0312 15.2988 18.7305 15.4902 18.1016 15.4902L14.6973 15.4902L14.6973 20.043L16.625 20.043C17.0625 20.043 17.418 20.3984 17.418 20.8359C17.418 21.2598 17.0625 21.6152 16.625 21.6152L11.1973 21.6152C10.7598 21.6152 10.4043 21.2598 10.4043 20.8359C10.4043 20.3984 10.7598 20.043 11.1973 20.043L13.125 20.043L13.125 15.4902Z" fill="white"/>
 </g>
</svg>
