<?xml version="1.0" encoding="UTF-8"?>
<!--Generator: Apple Native CoreSVG 326-->
<!DOCTYPE svg
PUBLIC "-//W3C//DTD SVG 1.1//EN"
       "http://www.w3.org/Graphics/SVG/1.1/DTD/svg11.dtd">
<svg version="1.1" xmlns="http://www.w3.org/2000/svg" xmlns:xlink="http://www.w3.org/1999/xlink" viewBox="0 0 28.2461 27.9043">
 <g>
  <rect height="27.9043" opacity="0" width="28.2461" x="0" y="0"/>
  <path d="M13.9453 27.9043C21.6426 27.9043 27.8906 21.6562 27.8906 13.959C27.8906 6.27539 21.6426 0.0136719 13.9453 0.0136719C6.26172 0.0136719 0 6.27539 0 13.959C0 21.6562 6.26172 27.9043 13.9453 27.9043Z" fill="black" fill-opacity="0.85"/>
  <path d="M11.5254 12.1543C10.8828 12.1543 10.5137 11.7852 10.5137 11.1426L10.5137 8.28516C10.5137 7.62891 10.8828 7.27344 11.5254 7.27344L13.1387 7.27344L13.1387 6.11133C13.1387 5.6875 13.4941 5.33203 13.9316 5.33203C14.3691 5.33203 14.7109 5.6875 14.7109 6.11133L14.7109 7.27344L18.2246 7.27344C18.6348 7.27344 18.9219 7.38281 19.168 7.62891L20.5352 8.95508C21.0957 9.47461 21.0957 9.9668 20.5488 10.459L19.168 11.7715C18.9219 12.0449 18.6211 12.1543 18.2246 12.1543L14.7109 12.1543L14.7109 13.2891L16.3242 13.2891C16.9668 13.2891 17.3496 13.6582 17.3496 14.3008L17.3496 17.1445C17.3496 17.8008 16.9668 18.1562 16.3242 18.1562L14.7109 18.1562L14.7109 20.4395L16.4336 20.4395C16.8711 20.4395 17.2129 20.7949 17.2129 21.2324C17.2129 21.6562 16.8711 22.0117 16.4336 22.0117L11.416 22.0117C10.9922 22.0117 10.6367 21.6562 10.6367 21.2324C10.6367 20.7949 10.9922 20.4395 11.416 20.4395L13.1387 20.4395L13.1387 18.1562L9.625 18.1562C9.22852 18.1562 8.92773 18.0469 8.68164 17.7871L7.30078 16.4746C6.75391 15.9688 6.76758 15.4902 7.31445 14.9707L8.68164 13.6445C8.92773 13.3984 9.21484 13.2891 9.625 13.2891L13.1387 13.2891L13.1387 12.1543Z" fill="white"/>
 </g>
</svg>
