<?xml version="1.0" encoding="UTF-8"?>
<!--Generator: Apple Native CoreSVG 326-->
<!DOCTYPE svg
PUBLIC "-//W3C//DTD SVG 1.1//EN"
       "http://www.w3.org/Graphics/SVG/1.1/DTD/svg11.dtd">
<svg version="1.1" xmlns="http://www.w3.org/2000/svg" xmlns:xlink="http://www.w3.org/1999/xlink" viewBox="0 0 23.3516 29.3262">
 <g>
  <rect height="29.3262" opacity="0" width="23.3516" x="0" y="0"/>
  <path d="M0 25.0469C0 27.9043 1.4082 29.3262 4.23828 29.3262L18.7578 29.3262C21.5879 29.3262 22.9961 27.8906 22.9961 25.0469L22.9961 9.7207C22.9961 8.36719 22.75 7.69727 21.9844 6.91797L16.1738 1.12109C15.3809 0.314453 14.6016 0.0136719 13.3711 0.0136719L4.23828 0.0136719C1.42188 0.0136719 0 1.46289 0 4.30664ZM2.20117 25.0059L2.20117 4.34766C2.20117 2.99414 2.92578 2.21484 4.34766 2.21484L13.2891 2.21484C14.0684 2.21484 14.5879 2.41992 15.0801 2.93945L20.166 8.08008C20.6445 8.55859 20.7949 8.99609 20.7949 9.88477L20.7949 25.0059C20.7949 26.373 20.0703 27.125 18.6484 27.125L4.33398 27.125C2.92578 27.125 2.20117 26.373 2.20117 25.0059Z" fill="black" fill-opacity="0.85"/>
  <path d="M4.97656 22.9141C4.97656 24.0898 5.70117 24.8145 6.86328 24.8145L8.72266 24.8145L8.72266 18.0332C8.72266 17.8965 8.64062 17.8281 8.50391 17.8281L4.97656 17.8281ZM4.97656 16.3105L9.41992 16.3105C9.93945 16.3105 10.2402 16.625 10.2402 17.1309L10.2402 24.8145L12.8652 24.8145L12.8652 12.6875L6.86328 12.6875C5.70117 12.6875 4.97656 13.4121 4.97656 14.6016ZM14.3828 24.8145L16.1465 24.8145C17.3086 24.8145 18.0469 24.0898 18.0469 22.9141L18.0469 14.6016C18.0469 13.4121 17.3086 12.6875 16.1465 12.6875L14.3828 12.6875Z" fill="black" fill-opacity="0.85"/>
 </g>
</svg>
