<?xml version="1.0" encoding="UTF-8"?>
<!--Generator: Apple Native CoreSVG 326-->
<!DOCTYPE svg
PUBLIC "-//W3C//DTD SVG 1.1//EN"
       "http://www.w3.org/Graphics/SVG/1.1/DTD/svg11.dtd">
<svg version="1.1" xmlns="http://www.w3.org/2000/svg" xmlns:xlink="http://www.w3.org/1999/xlink" viewBox="0 0 33.291 27.3099">
 <g>
  <rect height="27.3099" opacity="0" width="33.291" x="0" y="0"/>
  <path d="M32.9355 16.3962C32.9355 7.78289 26.3184 0.714533 17.8965 0.00359537C17.459-0.0374203 17.1309 0.277033 17.1309 0.714533L17.1309 5.18524C17.1309 5.55438 17.3906 5.84149 17.7598 5.86883C22.9961 6.51141 27.0703 10.9821 27.0703 16.3962C27.0703 18.8571 26.2227 21.1266 24.7324 23.027C24.541 23.2595 24.5547 23.5602 24.7598 23.779L28.0273 27.0329C28.3281 27.3337 28.793 27.3337 29.0664 27.0055C31.4863 24.1345 32.9355 20.4294 32.9355 16.3962Z" fill="black" fill-opacity="0.85"/>
  <path d="M0 16.3962C0 20.443 1.44922 24.1481 3.86914 27.0192C4.14258 27.3473 4.59375 27.3337 4.9082 27.0329L8.17578 23.779C8.38086 23.5602 8.39453 23.2595 8.20312 23.027C6.69922 21.1266 5.86523 18.8571 5.86523 16.3962C5.86523 10.9821 9.93945 6.51141 15.1758 5.86883C15.5449 5.84149 15.8047 5.55438 15.8047 5.18524L15.8047 0.714533C15.8047 0.277033 15.4766-0.0374203 15.0391 0.00359537C6.61719 0.714533 0 7.78289 0 16.3962Z" fill="black" fill-opacity="0.85"/>
  <path d="M12.6875 22.1384C14.9707 22.1384 16.0508 20.7302 16.0508 18.9391C16.0508 17.0798 14.916 16.3688 13.4531 15.822L12.6738 15.5212C11.6895 15.152 11.0195 14.7009 11.0195 13.6481C11.0195 12.7184 11.5801 12.0212 12.6191 12.0212C13.5352 12.0212 14.1641 12.5407 14.4102 13.5388C14.5059 13.9216 14.7656 14.0856 15.1348 14.0856C15.5312 14.0856 15.791 13.8122 15.791 13.402C15.791 13.3063 15.7773 13.1559 15.7363 13.0192C15.4082 11.5837 14.2051 10.695 12.6465 10.695C10.5957 10.695 9.48828 12.0895 9.48828 13.7575C9.48828 15.3981 10.4727 16.3141 12.0176 16.8747L12.7969 17.1481C13.7949 17.5036 14.5059 18.0368 14.5059 19.0895C14.5059 20.0466 13.877 20.8122 12.7285 20.8122C11.6895 20.8122 11.0195 20.2516 10.7871 19.2263C10.6914 18.8434 10.4453 18.6794 10.0762 18.6794C9.66602 18.6794 9.37891 18.9802 9.37891 19.404C9.37891 19.568 9.41992 19.7731 9.46094 19.9235C9.91211 21.3454 11.0742 22.1384 12.6875 22.1384ZM20.3574 21.7282C22.2715 21.7282 23.6113 20.6891 23.6113 18.9118C23.6113 17.2985 22.5996 16.6286 21.2461 15.9997L20.248 15.5348C19.373 15.111 18.6758 14.6188 18.6758 13.7575C18.6758 12.8141 19.3867 12.3493 20.3301 12.3493C21.4102 12.3493 21.834 13.0192 22.0117 13.9216C22.0938 14.236 22.2988 14.4684 22.7363 14.4684C23.1465 14.4684 23.4199 14.2223 23.4199 13.7985C23.4199 13.6345 23.4062 13.5251 23.3789 13.3884C23.0098 11.7614 21.793 11.1188 20.3301 11.1188C18.6211 11.1188 17.2129 12.0485 17.2129 13.8532C17.2129 15.3708 18.1152 16.0954 19.5098 16.7653L20.4941 17.2302C21.3691 17.654 22.1348 18.0778 22.1348 19.0485C22.1348 19.9645 21.4785 20.4841 20.3711 20.4841C19.1953 20.4841 18.6758 19.9235 18.5117 18.8708C18.457 18.57 18.2109 18.3102 17.8008 18.3102C17.3906 18.3102 17.1035 18.57 17.1035 18.9938C17.1035 19.1032 17.1172 19.2399 17.1445 19.3903C17.5 21.072 18.8535 21.7282 20.3574 21.7282ZM20.3438 23.1638C20.5488 23.1638 20.7266 22.986 20.7266 22.7809L20.7266 10.0798C20.7266 9.87469 20.5488 9.69695 20.3438 9.69695C20.125 9.69695 19.9609 9.87469 19.9609 10.0798L19.9609 22.7809C19.9609 22.986 20.125 23.1638 20.3438 23.1638Z" fill="black" fill-opacity="0.85"/>
 </g>
</svg>
