<?xml version="1.0" encoding="UTF-8"?>
<!--Generator: Apple Native CoreSVG 326-->
<!DOCTYPE svg
PUBLIC "-//W3C//DTD SVG 1.1//EN"
       "http://www.w3.org/Graphics/SVG/1.1/DTD/svg11.dtd">
<svg version="1.1" xmlns="http://www.w3.org/2000/svg" xmlns:xlink="http://www.w3.org/1999/xlink" viewBox="0 0 25.5254 25.1699">
 <g>
  <rect height="25.1699" opacity="0" width="25.5254" x="0" y="0"/>
  <path d="M4.29297 25.1699L20.877 25.1699C23.748 25.1699 25.1699 23.7617 25.1699 20.9453L25.1699 4.23828C25.1699 1.42188 23.748 0 20.877 0L4.29297 0C1.43555 0 0 1.42188 0 4.23828L0 20.9453C0 23.7617 1.43555 25.1699 4.29297 25.1699ZM4.32031 22.9688C2.95312 22.9688 2.20117 22.2441 2.20117 20.8223L2.20117 4.36133C2.20117 2.93945 2.95312 2.20117 4.32031 2.20117L20.8496 2.20117C22.2031 2.20117 22.9688 2.93945 22.9688 4.36133L22.9688 20.8223C22.9688 22.2441 22.2031 22.9688 20.8496 22.9688Z" fill="black" fill-opacity="0.85"/>
  <path d="M8.83203 18.1289C11.1152 18.1289 12.1816 16.7344 12.1816 14.9434C12.1816 13.0703 11.0605 12.373 9.59766 11.8125L8.81836 11.5117C7.83398 11.1426 7.16406 10.7051 7.16406 9.65234C7.16406 8.72266 7.72461 8.01172 8.76367 8.01172C9.67969 8.01172 10.3086 8.54492 10.5547 9.54297C10.6504 9.92578 10.9102 10.0898 11.2793 10.0898C11.6758 10.0898 11.9355 9.80273 11.9355 9.40625C11.9355 9.29688 11.9219 9.14648 11.8809 9.02344C11.5391 7.58789 10.3496 6.69922 8.77734 6.69922C6.74023 6.69922 5.63281 8.08008 5.63281 9.74805C5.63281 11.4023 6.60352 12.3047 8.16211 12.8652L8.94141 13.1523C9.93945 13.5078 10.6504 14.0273 10.6504 15.0938C10.6504 16.0508 10.0215 16.8164 8.85938 16.8164C7.83398 16.8164 7.16406 16.2559 6.93164 15.2305C6.82227 14.8477 6.58984 14.6699 6.20703 14.6699C5.81055 14.6699 5.52344 14.9707 5.52344 15.3945C5.52344 15.5723 5.55078 15.7773 5.60547 15.9141C6.05664 17.3496 7.21875 18.1289 8.83203 18.1289ZM16.502 17.7324C18.4023 17.7324 19.7559 16.6934 19.7559 14.916C19.7559 13.2891 18.7441 12.6328 17.3906 12.0039L16.3926 11.5254C15.5176 11.1152 14.8203 10.6094 14.8203 9.76172C14.8203 8.80469 15.5312 8.33984 16.4746 8.33984C17.541 8.33984 17.9785 9.02344 18.1562 9.91211C18.2246 10.2402 18.4434 10.459 18.8809 10.459C19.291 10.459 19.5645 10.2266 19.5645 9.80273C19.5645 9.625 19.5508 9.51562 19.5234 9.39258C19.1543 7.75195 17.9375 7.10938 16.4746 7.10938C14.7656 7.10938 13.3438 8.05273 13.3438 9.84375C13.3438 11.375 14.2598 12.0996 15.6543 12.7695L16.6387 13.2344C17.5137 13.6582 18.2656 14.082 18.2656 15.0527C18.2656 15.9688 17.623 16.4883 16.5156 16.4883C15.3398 16.4883 14.8203 15.9141 14.6562 14.8613C14.5879 14.5742 14.3555 14.3008 13.9453 14.3008C13.5352 14.3008 13.2344 14.5742 13.2344 14.998C13.2344 15.0938 13.248 15.2441 13.2891 15.3809C13.6445 17.0762 14.998 17.7324 16.502 17.7324ZM16.4746 19.1543C16.6934 19.1543 16.8711 18.9766 16.8711 18.7715L16.8711 6.08398C16.8711 5.87891 16.6934 5.70117 16.4746 5.70117C16.2695 5.70117 16.0918 5.87891 16.0918 6.08398L16.0918 18.7715C16.0918 18.9766 16.2695 19.1543 16.4746 19.1543Z" fill="black" fill-opacity="0.85"/>
 </g>
</svg>
