<?xml version="1.0" encoding="UTF-8"?>
<!--Generator: Apple Native CoreSVG 326-->
<!DOCTYPE svg
PUBLIC "-//W3C//DTD SVG 1.1//EN"
       "http://www.w3.org/Graphics/SVG/1.1/DTD/svg11.dtd">
<svg version="1.1" xmlns="http://www.w3.org/2000/svg" xmlns:xlink="http://www.w3.org/1999/xlink" viewBox="0 0 34.5625 30.8301">
 <g>
  <rect height="30.8301" opacity="0" width="34.5625" x="0" y="0"/>
  <path d="M7.92969 28.4512C12.5371 28.4512 15.8457 25.8672 15.8457 21.2324C15.8457 17.1035 13.1797 15.3672 9.46094 14.2188L7.38281 13.5762C4.97656 12.8379 3.04883 11.5938 3.04883 9.00977C3.04883 6.23438 5.23633 4.70312 7.72461 4.70312C10.0898 4.70312 12.209 5.94727 12.7695 8.64062C12.9336 9.33789 13.3574 9.69336 14.0547 9.69336C14.7383 9.69336 15.2852 9.25586 15.2852 8.46289C15.2852 8.25781 15.2305 7.9707 15.1758 7.69727C14.3691 4.21094 11.2793 2.2832 7.76562 2.2832C3.55469 2.2832 0.355469 5.01758 0.355469 9.16016C0.355469 13.043 2.83008 14.998 6.54883 16.1465L8.62695 16.7891C11.1973 17.5684 13.1387 18.7988 13.1387 21.5059C13.1387 24.3086 10.8965 26.0176 8.03906 26.0176C5.19531 26.0176 3.03516 24.5684 2.47461 21.8203C2.2832 21.0547 1.85938 20.7539 1.2168 20.7539C0.492188 20.7539 0 21.2734 0 22.0117C0 22.4902 0.0683594 22.832 0.164062 23.1875C1.05273 26.5098 4.19727 28.4512 7.92969 28.4512ZM26.6465 27.5488C30.8301 27.5488 34.207 25.3477 34.207 21.123C34.207 17.3906 31.6914 15.8867 28.3965 14.5605L26.0449 13.6172C24.0078 12.8242 21.916 11.6348 21.916 9.26953C21.916 6.83594 24.1035 5.52344 26.5645 5.52344C29.1348 5.52344 30.7207 6.93164 31.2539 9.47461C31.4453 10.1719 31.8691 10.5957 32.5801 10.5957C33.3457 10.5957 33.8242 10.1035 33.8242 9.35156C33.8242 9.17383 33.8105 8.85938 33.7559 8.53125C33.0176 4.97656 30.0781 3.18555 26.5645 3.18555C22.627 3.18555 19.291 5.42773 19.291 9.41992C19.291 12.8379 21.6836 14.6152 24.9375 15.9141L27.2891 16.8574C29.5996 17.7598 31.582 18.8398 31.582 21.3555C31.582 23.9395 29.5176 25.2109 26.6465 25.2109C23.7891 25.2109 21.957 23.9121 21.4785 21.1094C21.3281 20.4121 20.8633 19.9609 20.1387 19.9609C19.4551 19.9609 18.8809 20.4121 18.8809 21.2188C18.8809 21.3828 18.9082 21.5469 18.9219 21.6973C19.5918 25.7305 22.832 27.5488 26.6465 27.5488ZM26.5234 30.8164C27.0156 30.8164 27.4121 30.4199 27.4121 29.9277L27.4121 0.888672C27.4121 0.396484 27.0156 0 26.5234 0C26.0312 0 25.6348 0.396484 25.6348 0.888672L25.6348 29.9277C25.6348 30.4199 26.0312 30.8164 26.5234 30.8164Z" fill="black" fill-opacity="0.85"/>
 </g>
</svg>
