<?xml version="1.0" encoding="UTF-8"?>
<!--Generator: Apple Native CoreSVG 326-->
<!DOCTYPE svg
PUBLIC "-//W3C//DTD SVG 1.1//EN"
       "http://www.w3.org/Graphics/SVG/1.1/DTD/svg11.dtd">
<svg version="1.1" xmlns="http://www.w3.org/2000/svg" xmlns:xlink="http://www.w3.org/1999/xlink" viewBox="0 0 30.8848 29.1895">
 <g>
  <rect height="29.1895" opacity="0" width="30.8848" x="0" y="0"/>
  <path d="M1.81836 27.5898L28.7109 27.5898L28.7109 25.9766C28.7109 25.4297 28.3965 25.1016 27.8359 25.1016L26.9609 25.1016L26.9609 9.37891L28.1641 9.37891C28.916 9.37891 29.3535 8.83203 29.3535 8.27148C29.3535 7.86133 29.1211 7.50586 28.6152 7.21875L16.9395 0.478516C16.3926 0.164062 15.8184 0 15.2578 0C14.6973 0 14.1094 0.164062 13.5898 0.478516L1.91406 7.21875C1.39453 7.50586 1.17578 7.86133 1.17578 8.27148C1.17578 8.83203 1.61328 9.37891 2.36523 9.37891L3.56836 9.37891L3.56836 25.1016L2.70703 25.1016C2.14648 25.1016 1.81836 25.4297 1.81836 25.9766ZM1.09375 29.1758L29.4219 29.1758C30.0234 29.1758 30.5293 28.6699 30.5293 28.0684C30.5293 27.4668 30.0234 26.9746 29.4219 26.9746L1.09375 26.9746C0.492188 26.9746 0 27.4668 0 28.0684C0 28.6699 0.492188 29.1758 1.09375 29.1758Z" fill="black" fill-opacity="0.85"/>
  <path d="M11.3887 21.3418C9.7207 21.3418 8.53125 20.5352 8.06641 19.0586C8.01172 18.9219 7.9707 18.6895 7.9707 18.5254C7.9707 18.0879 8.27148 17.7734 8.68164 17.7734C9.07812 17.7734 9.32422 17.9512 9.43359 18.3477C9.67969 19.3867 10.3633 19.9883 11.416 19.9883C12.6191 19.9883 13.2617 19.1953 13.2617 18.2109C13.2617 17.1172 12.5234 16.584 11.498 16.2148L10.6777 15.9141C9.0918 15.3398 8.09375 14.3965 8.09375 12.7012C8.09375 10.9785 9.22852 9.54297 11.334 9.54297C12.9609 9.54297 14.1914 10.4727 14.5332 11.9492C14.5605 12.0859 14.5879 12.2363 14.5879 12.3457C14.5879 12.7559 14.3281 13.043 13.918 13.043C13.5352 13.043 13.2617 12.8926 13.1523 12.4824C12.8926 11.4434 12.2637 10.9102 11.3203 10.9102C10.2539 10.9102 9.67969 11.6484 9.67969 12.5918C9.67969 13.6855 10.3633 14.1367 11.3613 14.5195L12.1816 14.8203C13.6855 15.4082 14.8477 16.1191 14.8477 18.0605C14.8477 19.8926 13.7539 21.3418 11.3887 21.3418ZM19.2773 22.3945C19.0586 22.3945 18.8809 22.2168 18.8809 21.998L18.8809 20.9043C17.5 20.7949 16.3242 20.084 15.9688 18.5117C15.9414 18.375 15.9277 18.2109 15.9277 18.1016C15.9277 17.6777 16.2422 17.3906 16.666 17.3906C17.0762 17.3906 17.3359 17.6777 17.4043 17.9785C17.5547 18.9082 17.9785 19.4824 18.8809 19.6055L18.8809 16.0371L18.4297 15.8047C16.9805 15.1074 16.0508 14.3828 16.0508 12.7969C16.0508 11.0879 17.3086 10.1309 18.8809 9.99414L18.8809 8.92773C18.8809 8.69531 19.0586 8.51758 19.2773 8.51758C19.4824 8.51758 19.6738 8.69531 19.6738 8.92773L19.6738 9.99414C21 10.1172 22.0664 10.7871 22.4082 12.3184C22.4492 12.4551 22.4629 12.5781 22.4629 12.7422C22.4629 13.1797 22.1758 13.4395 21.752 13.4395C21.3008 13.4395 21.082 13.207 21 12.8652C20.8496 12.0723 20.4805 11.4434 19.6738 11.293L19.6738 14.752L20.2207 15.0117C21.6152 15.668 22.668 16.3516 22.668 18.0059C22.668 19.7422 21.4375 20.7812 19.6738 20.918L19.6738 21.998C19.6738 22.2168 19.4824 22.3945 19.2773 22.3945ZM17.5684 12.7012C17.5684 13.4805 18.1289 13.9727 18.8809 14.3828L18.8809 11.2793C18.1152 11.3887 17.5684 11.8809 17.5684 12.7012ZM19.6738 19.6191C20.6035 19.5098 21.123 19.0039 21.123 18.1562C21.123 17.2539 20.4805 16.8164 19.6738 16.4199Z" fill="white"/>
 </g>
</svg>
