<?xml version="1.0" encoding="UTF-8"?>
<!--Generator: Apple Native CoreSVG 326-->
<!DOCTYPE svg
PUBLIC "-//W3C//DTD SVG 1.1//EN"
       "http://www.w3.org/Graphics/SVG/1.1/DTD/svg11.dtd">
<svg version="1.1" xmlns="http://www.w3.org/2000/svg" xmlns:xlink="http://www.w3.org/1999/xlink" viewBox="0 0 28.2461 27.9043">
 <g>
  <rect height="27.9043" opacity="0" width="28.2461" x="0" y="0"/>
  <path d="M13.9453 27.8906C21.6426 27.8906 27.8906 21.6426 27.8906 13.9453C27.8906 6.24805 21.6426 0 13.9453 0C6.24805 0 0 6.24805 0 13.9453C0 21.6426 6.24805 27.8906 13.9453 27.8906ZM13.9453 25.5664C7.51953 25.5664 2.32422 20.3711 2.32422 13.9453C2.32422 7.51953 7.51953 2.32422 13.9453 2.32422C20.3711 2.32422 25.5664 7.51953 25.5664 13.9453C25.5664 20.3711 20.3711 25.5664 13.9453 25.5664Z" fill="black" fill-opacity="0.85"/>
  <path d="M10.1719 19.4961C12.4551 19.4961 13.5215 18.1016 13.5215 16.3105C13.5215 14.4375 12.4004 13.7402 10.9375 13.1797L10.1445 12.8789C9.17383 12.5098 8.50391 12.0723 8.50391 11.0195C8.50391 10.0898 9.06445 9.37891 10.1035 9.37891C11.0195 9.37891 11.6348 9.91211 11.8809 10.9102C11.9902 11.293 12.25 11.457 12.6191 11.457C13.0156 11.457 13.2754 11.1699 13.2754 10.7734C13.2754 10.6641 13.248 10.5137 13.2207 10.3906C12.8789 8.95508 11.6895 8.06641 10.1172 8.06641C8.08008 8.06641 6.97266 9.44727 6.97266 11.1152C6.97266 12.7695 7.94336 13.6719 9.50195 14.2324L10.2812 14.5195C11.2793 14.875 11.9902 15.3945 11.9902 16.4609C11.9902 17.418 11.3613 18.1836 10.1992 18.1836C9.17383 18.1836 8.50391 17.623 8.27148 16.5977C8.16211 16.2148 7.92969 16.0371 7.54688 16.0371C7.15039 16.0371 6.86328 16.3379 6.86328 16.7617C6.86328 16.9395 6.89062 17.1445 6.94531 17.2812C7.39648 18.7168 8.55859 19.4961 10.1719 19.4961ZM17.8418 19.0996C19.7422 19.0996 21.0957 18.0605 21.0957 16.2832C21.0957 14.6562 20.084 14 18.7305 13.3711L17.7324 12.8926C16.8574 12.4824 16.1602 11.9766 16.1602 11.1289C16.1602 10.1719 16.8711 9.70703 17.8145 9.70703C18.8809 9.70703 19.3184 10.3906 19.4961 11.2793C19.5645 11.6074 19.7832 11.8262 20.2207 11.8262C20.6309 11.8262 20.9043 11.5938 20.9043 11.1699C20.9043 10.9922 20.8906 10.8828 20.8633 10.7598C20.4941 9.11914 19.2637 8.47656 17.8145 8.47656C16.1055 8.47656 14.6836 9.41992 14.6836 11.2109C14.6836 12.7422 15.5859 13.4668 16.9941 14.1367L17.9785 14.6016C18.8535 15.0254 19.6055 15.4492 19.6055 16.4199C19.6055 17.3359 18.9629 17.8555 17.8555 17.8555C16.6797 17.8555 16.1602 17.2812 15.9961 16.2285C15.9277 15.9414 15.6953 15.668 15.2852 15.668C14.875 15.668 14.5742 15.9414 14.5742 16.3652C14.5742 16.4609 14.5879 16.6113 14.6289 16.748C14.9844 18.4434 16.3379 19.0996 17.8418 19.0996ZM17.8145 20.5215C18.0332 20.5215 18.1973 20.3438 18.1973 20.1387L18.1973 7.45117C18.1973 7.24609 18.0332 7.06836 17.8145 7.06836C17.6094 7.06836 17.4316 7.24609 17.4316 7.45117L17.4316 20.1387C17.4316 20.3438 17.6094 20.5215 17.8145 20.5215Z" fill="black" fill-opacity="0.85"/>
 </g>
</svg>
