<?xml version="1.0" encoding="UTF-8"?>
<!--Generator: Apple Native CoreSVG 326-->
<!DOCTYPE svg
PUBLIC "-//W3C//DTD SVG 1.1//EN"
       "http://www.w3.org/Graphics/SVG/1.1/DTD/svg11.dtd">
<svg version="1.1" xmlns="http://www.w3.org/2000/svg" xmlns:xlink="http://www.w3.org/1999/xlink" viewBox="0 0 30.5156 30.1841">
 <g>
  <rect height="30.1841" opacity="0" width="30.5156" x="0" y="0"/>
  <path d="M2.05078 28.1008C4.77148 30.8215 8.95508 30.8489 11.6621 28.1555L28.1094 11.7083C30.8438 8.97388 30.8438 4.76294 28.1094 2.04224C25.3887-0.678464 21.1777-0.678464 18.457 2.02857L2.05078 18.4485C-0.683594 21.1692-0.683594 25.3801 2.05078 28.1008ZM21 6.67701C20.6035 6.28052 20.6035 5.63794 21 5.24146C21.3965 4.8313 22.0664 4.8313 22.4629 5.24146C22.873 5.63794 22.873 6.28052 22.4629 6.67701C22.0664 7.08716 21.3965 7.08716 21 6.67701ZM23.4609 9.13794C23.0645 8.74146 23.0645 8.07154 23.4609 7.67505C23.8574 7.27857 24.5 7.27857 24.9102 7.67505C25.3066 8.07154 25.3066 8.74146 24.9102 9.13794C24.5 9.5481 23.8574 9.5481 23.4609 9.13794ZM18.5664 9.13794C18.1699 8.74146 18.1699 8.07154 18.5801 7.66138C18.9766 7.2649 19.6191 7.2649 20.0156 7.66138C20.4121 8.07154 20.4121 8.74146 20.0156 9.13794C19.6191 9.53443 18.9766 9.53443 18.5664 9.13794ZM21 11.5715C20.6035 11.1751 20.6035 10.5188 21 10.1223C21.4102 9.71216 22.0801 9.71216 22.4766 10.1223C22.873 10.5188 22.873 11.1751 22.4766 11.5715C22.0801 11.968 21.4102 11.968 21 11.5715ZM7.80664 19.884C7.41016 19.4876 7.41016 18.8313 7.80664 18.4348C8.20312 18.0383 8.85938 18.0383 9.25586 18.4348C9.66602 18.8313 9.66602 19.4876 9.25586 19.884C8.85938 20.2942 8.20312 20.2942 7.80664 19.884ZM10.2539 22.345C9.85742 21.9348 9.85742 21.2786 10.2539 20.8684C10.6504 20.4719 11.3066 20.4719 11.7031 20.8684C12.1133 21.2786 12.1133 21.9348 11.7031 22.345C11.3066 22.7415 10.6504 22.7415 10.2539 22.345ZM5.35938 22.3313C4.96289 21.9348 4.96289 21.2786 5.35938 20.8684C5.76953 20.4583 6.41211 20.4583 6.82227 20.8684C7.21875 21.2786 7.21875 21.9348 6.82227 22.3313C6.41211 22.7278 5.75586 22.7278 5.35938 22.3313ZM7.80664 24.7786C7.41016 24.3821 7.41016 23.7258 7.80664 23.3293C8.20312 22.9192 8.87305 22.9192 9.26953 23.3293C9.66602 23.7258 9.66602 24.3821 9.26953 24.7786C8.87305 25.1751 8.20312 25.1751 7.80664 24.7786ZM13.8223 4.51685L14.2188 4.89966C14.7109 5.40552 15.4629 5.40552 15.9688 4.89966L18.2383 2.6438C18.7578 2.13794 18.7578 1.38599 18.2383 0.88013L17.8418 0.483646C17.3496-0.00854169 16.5977-0.00854169 16.0918 0.497318L13.8223 2.75318C13.3164 3.25904 13.3164 4.01099 13.8223 4.51685ZM25.2383 15.9329L25.6211 16.3157C26.1406 16.8079 26.8789 16.8079 27.3848 16.3157L29.6543 14.0461C30.1602 13.554 30.1602 12.802 29.6543 12.2961L29.2715 11.8997C28.7656 11.4075 28.0137 11.4075 27.5215 11.8997L25.2383 14.1692C24.7324 14.6751 24.7324 15.427 25.2383 15.9329ZM0.628906 17.7102L1.02539 18.1067C1.53125 18.5989 2.26953 18.5989 2.77539 18.1067L5.04492 15.8372C5.53711 15.3313 5.53711 14.593 5.04492 14.0735L4.64844 13.7043C4.14258 13.1848 3.39062 13.1848 2.89844 13.7043L0.628906 15.9465C0.123047 16.4524 0.123047 17.218 0.628906 17.7102ZM12.0312 29.1399L12.4277 29.5227C12.9336 30.0286 13.6855 30.0286 14.1777 29.5364L16.4473 27.2668C16.9531 26.7473 16.9531 26.009 16.4473 25.5032L16.0645 25.1067C15.5586 24.6008 14.8066 24.6008 14.3008 25.1067L12.0312 27.3762C11.5391 27.8821 11.5391 28.6477 12.0312 29.1399Z" fill="black" fill-opacity="0.85"/>
 </g>
</svg>
