<?xml version="1.0" encoding="UTF-8"?>
<!--Generator: Apple Native CoreSVG 326-->
<!DOCTYPE svg
PUBLIC "-//W3C//DTD SVG 1.1//EN"
       "http://www.w3.org/Graphics/SVG/1.1/DTD/svg11.dtd">
<svg version="1.1" xmlns="http://www.w3.org/2000/svg" xmlns:xlink="http://www.w3.org/1999/xlink" viewBox="0 0 38.1514 37.8096">
 <g>
  <rect height="37.8096" opacity="0" width="38.1514" x="0" y="0"/>
  <path d="M1.37061 22.0151C-0.461426 23.8472-0.447754 26.7183 1.35693 28.564C3.18896 30.355 6.07373 30.3687 7.90576 28.5366L28.5503 7.90576C30.3823 6.06006 30.355 3.18896 28.564 1.35693C26.7319-0.447754 23.8472-0.461426 22.0151 1.37061ZM2.84717 23.4917L23.4917 2.84717C24.5171 1.82178 26.103 1.82178 27.0874 2.8335C28.0991 3.81787 28.0854 5.40381 27.0737 6.4292L6.4292 27.0601C5.40381 28.0854 3.81787 28.0854 2.8335 27.0874C1.82178 26.0894 1.82178 24.5171 2.84717 23.4917ZM14.5093 14.1948L15.7397 15.3979C16.1499 15.7944 16.7651 15.8081 17.1616 15.3979C17.5581 15.0288 17.5581 14.4136 17.1616 14.0034L15.9175 12.7729C15.5347 12.3901 14.9058 12.3765 14.5093 12.7729C14.1128 13.1421 14.0991 13.7847 14.5093 14.1948ZM10.2573 18.4194L11.4878 19.6772C11.8706 20.0737 12.5132 20.0464 12.9097 19.6772C13.2925 19.2808 13.3062 18.6519 12.9097 18.2554L11.6792 17.0112C11.2827 16.6284 10.6401 16.6284 10.2573 17.0112C9.86084 17.4214 9.87451 18.0366 10.2573 18.4194ZM9.25928 29.8901C7.42725 31.7222 7.44092 34.6069 9.23193 36.439C11.0776 38.2437 13.9487 38.2573 15.7808 36.4253L36.4253 15.7808C38.2573 13.9487 38.2437 11.064 36.439 9.23193C34.6069 7.44092 31.7358 7.41357 29.8901 9.24561ZM10.7358 31.3667L31.3667 10.7222C32.3921 9.71045 33.978 9.69678 34.9624 10.7085C35.9741 11.6929 35.9741 13.2788 34.9487 14.3042L14.3042 34.9487C13.2788 35.9741 11.7065 35.9741 10.7085 34.9624C9.71045 33.978 9.71045 32.3921 10.7358 31.3667ZM22.3979 22.0698L23.6147 23.2729C24.0249 23.6831 24.6538 23.6831 25.0366 23.2729C25.4468 22.9038 25.4331 22.2749 25.0366 21.8921L23.8062 20.6479C23.4097 20.2651 22.7808 20.2378 22.3979 20.6479C22.0015 21.0171 21.9878 21.6733 22.3979 22.0698ZM18.1323 26.3081L19.3765 27.5522C19.7593 27.9487 20.3882 27.9214 20.7983 27.5522C21.1812 27.1694 21.1948 26.5405 20.7983 26.1304L19.5542 24.8999C19.1714 24.5034 18.5288 24.5034 18.1323 24.8999C17.7495 25.2964 17.7632 25.9116 18.1323 26.3081Z" fill="black" fill-opacity="0.85"/>
 </g>
</svg>
