<?xml version="1.0" encoding="UTF-8"?>
<!--Generator: Apple Native CoreSVG 326-->
<!DOCTYPE svg
PUBLIC "-//W3C//DTD SVG 1.1//EN"
       "http://www.w3.org/Graphics/SVG/1.1/DTD/svg11.dtd">
<svg version="1.1" xmlns="http://www.w3.org/2000/svg" xmlns:xlink="http://www.w3.org/1999/xlink" viewBox="0 0 33.7148 25.4434">
 <g>
  <rect height="25.4434" opacity="0" width="33.7148" x="0" y="0"/>
  <path d="M21.0137 16.1191L30.0098 16.1191C32.1426 16.1191 33.3594 14.916 33.3594 12.8379L33.3594 3.81445C33.3594 1.72266 32.1426 0.519531 30.0098 0.519531L21.0137 0.519531C18.8945 0.519531 17.6777 1.72266 17.6777 3.81445L17.6777 12.8379C17.6777 14.916 18.8945 16.1191 21.0137 16.1191ZM21.041 13.959C20.2344 13.959 19.8379 13.5625 19.8379 12.7422L19.8379 3.89648C19.8379 3.07617 20.2344 2.67969 21.041 2.67969L29.9824 2.67969C30.8164 2.67969 31.1992 3.07617 31.1992 3.89648L31.1992 12.7422C31.1992 13.5625 30.8164 13.959 29.9824 13.959Z" fill="black" fill-opacity="0.85"/>
  <path d="M3.24023 15.9414L12.0586 15.9414C14.123 15.9414 15.3262 14.7656 15.3262 12.7285L15.3262 3.91016C15.3262 1.87305 14.123 0.697266 12.0586 0.697266L3.24023 0.697266C1.18945 0.697266 0 1.85938 0 3.91016L0 12.7285C0 14.7793 1.18945 15.9414 3.24023 15.9414ZM1.03906 21.0547C0.478516 21.0547 0 21.5469 0 22.1621C0 22.7773 0.478516 23.2559 1.03906 23.2559L5.45508 23.2559L5.45508 21.0547ZM7.83398 25.4434C9.63867 25.4434 11.1152 23.9668 11.1152 22.1621C11.1152 20.3438 9.63867 18.8672 7.83398 18.8672C6.0293 18.8672 4.55273 20.3438 4.55273 22.1621C4.55273 23.9668 6.0293 25.4434 7.83398 25.4434ZM7.83398 23.7617C6.93164 23.7617 6.23438 23.0508 6.23438 22.1484C6.23438 21.2461 6.93164 20.5488 7.83398 20.5488C8.72266 20.5488 9.43359 21.2461 9.43359 22.1484C9.43359 23.0508 8.72266 23.7617 7.83398 23.7617ZM10.0078 21.0547L10.0078 23.2559L32.252 23.2559C32.8672 23.2559 33.3594 22.7773 33.3594 22.1621C33.3594 21.5469 32.8672 21.0547 32.252 21.0547Z" fill="black" fill-opacity="0.85"/>
 </g>
</svg>
