<?xml version="1.0" encoding="UTF-8"?>
<!--Generator: Apple Native CoreSVG 326-->
<!DOCTYPE svg
PUBLIC "-//W3C//DTD SVG 1.1//EN"
       "http://www.w3.org/Graphics/SVG/1.1/DTD/svg11.dtd">
<svg version="1.1" xmlns="http://www.w3.org/2000/svg" xmlns:xlink="http://www.w3.org/1999/xlink" viewBox="0 0 26.4414 30.6387">
 <g>
  <rect height="30.6387" opacity="0" width="26.4414" x="0" y="0"/>
  <path d="M18.252 30.5977C20.0566 30.5977 21.5332 29.1211 21.5332 27.3164C21.5332 25.498 20.0566 24.0215 18.252 24.0215C16.4336 24.0215 14.957 25.498 14.957 27.3164C14.957 29.1211 16.4336 30.5977 18.252 30.5977ZM18.252 28.916C17.3496 28.916 16.6523 28.2051 16.6523 27.3027C16.6523 26.4004 17.3496 25.7031 18.252 25.7031C19.1543 25.7031 19.8516 26.4004 19.8516 27.3027C19.8516 28.2051 19.1543 28.916 18.252 28.916ZM16.0781 26.209L1.09375 26.209C0.478516 26.209 0 26.7012 0 27.3164C0 27.9316 0.478516 28.4102 1.09375 28.4102L16.0781 28.4102ZM25.0332 26.209L20.6172 26.209L20.6172 28.4102L25.0332 28.4102C25.5938 28.4102 26.0859 27.9316 26.0859 27.3164C26.0859 26.7012 25.5938 26.209 25.0332 26.209Z" fill="black" fill-opacity="0.85"/>
  <path d="M13.1387 16.7207C16.0918 16.7207 18.5391 14.2598 18.5391 11.3066C18.5391 8.32617 16.0918 5.86523 13.1387 5.86523C10.1719 5.86523 7.72461 8.32617 7.72461 11.3066C7.72461 14.2598 10.1719 16.7207 13.1387 16.7207ZM13.1387 0C12.5508 0 12.0449 0.519531 12.0449 1.10742L12.0449 3.29492C12.0449 3.88281 12.5508 4.38867 13.1387 4.38867C13.7266 4.38867 14.2461 3.88281 14.2461 3.29492L14.2461 1.10742C14.2461 0.519531 13.7266 0 13.1387 0ZM21.123 3.30859C20.6855 2.88477 19.9883 2.88477 19.5781 3.30859L18.0059 4.89453C17.582 5.31836 17.6094 6.0293 18.0059 6.43945C18.4297 6.84961 19.1406 6.86328 19.5645 6.43945L21.123 4.85352C21.5332 4.41602 21.5469 3.73242 21.123 3.30859ZM24.3906 11.3066C24.3906 10.6777 23.9121 10.1992 23.3242 10.1992L21.123 10.1992C20.5352 10.1992 20.043 10.7051 20.043 11.3066C20.043 11.8945 20.5352 12.3867 21.123 12.3867L23.3242 12.3867C23.9121 12.3867 24.3906 11.9219 24.3906 11.3066ZM21.123 19.291C21.5605 18.8262 21.5469 18.1699 21.123 17.7461L19.5508 16.1738C19.1133 15.7363 18.4297 15.7637 18.0059 16.1738C17.5957 16.5977 17.582 17.2949 18.0059 17.7188L19.5781 19.291C20.002 19.7012 20.6855 19.6875 21.123 19.291ZM13.1387 22.5996C13.7266 22.5996 14.2461 22.0801 14.2461 21.4785L14.2461 19.3047C14.2461 18.7168 13.7266 18.2109 13.1387 18.2109C12.5508 18.2109 12.0449 18.7168 12.0449 19.3047L12.0449 21.4785C12.0449 22.0801 12.5508 22.5996 13.1387 22.5996ZM5.1543 19.2773C5.56445 19.6875 6.28906 19.7012 6.69922 19.291L8.27148 17.7188C8.68164 17.3086 8.66797 16.6113 8.27148 16.1738C7.84766 15.7637 7.13672 15.75 6.71289 16.1738L5.1543 17.7461C4.74414 18.1562 4.74414 18.8262 5.1543 19.2773ZM1.88672 11.3066C1.88672 11.9219 2.36523 12.3867 2.95312 12.3867L5.1543 12.3867C5.74219 12.3867 6.24805 11.8945 6.24805 11.3066C6.24805 10.7051 5.74219 10.1992 5.1543 10.1992L2.95312 10.1992C2.36523 10.1992 1.88672 10.6777 1.88672 11.3066ZM5.16797 3.30859C4.77148 3.73242 4.74414 4.42969 5.1543 4.85352L6.71289 6.43945C7.13672 6.86328 7.83398 6.84961 8.27148 6.43945C8.66797 6.00195 8.68164 5.30469 8.27148 4.89453L6.69922 3.30859C6.30273 2.91211 5.5918 2.89844 5.16797 3.30859Z" fill="black" fill-opacity="0.85"/>
 </g>
</svg>
