<?xml version="1.0" encoding="UTF-8"?>
<!--Generator: Apple Native CoreSVG 326-->
<!DOCTYPE svg
PUBLIC "-//W3C//DTD SVG 1.1//EN"
       "http://www.w3.org/Graphics/SVG/1.1/DTD/svg11.dtd">
<svg version="1.1" xmlns="http://www.w3.org/2000/svg" xmlns:xlink="http://www.w3.org/1999/xlink" viewBox="0 0 27.9043 23.3105">
 <g>
  <rect height="23.3105" opacity="0" width="27.9043" x="0" y="0"/>
  <path d="M18.6758 23.3105C20.4805 23.3105 21.957 21.834 21.957 20.0293C21.957 18.2246 20.4805 16.748 18.6758 16.748C16.8711 16.748 15.3809 18.2246 15.3809 20.0293C15.3809 21.834 16.8711 23.3105 18.6758 23.3105ZM18.6758 21.6289C17.7734 21.6289 17.0762 20.918 17.0762 20.0293C17.0762 19.1133 17.7734 18.4297 18.6758 18.4297C19.5781 18.4297 20.2754 19.1133 20.2754 20.0293C20.2754 20.918 19.5781 21.6289 18.6758 21.6289ZM16.502 18.9219L1.09375 18.9219C0.478516 18.9219 0 19.4141 0 20.0293C0 20.6445 0.478516 21.123 1.09375 21.123L16.502 21.123ZM26.4961 18.9219L21.0547 18.9219L21.0547 21.123L26.4961 21.123C27.0566 21.123 27.5488 20.6445 27.5488 20.0293C27.5488 19.4141 27.0566 18.9219 26.4961 18.9219ZM9.02344 14.9707C10.8281 14.9707 12.3047 13.4805 12.3047 11.6758C12.3047 9.87109 10.8281 8.39453 9.02344 8.39453C7.21875 8.39453 5.74219 9.87109 5.74219 11.6758C5.74219 13.4805 7.21875 14.9707 9.02344 14.9707ZM9.02344 13.2754C8.13477 13.2754 7.42383 12.5645 7.42383 11.6758C7.42383 10.7734 8.13477 10.0762 9.02344 10.0762C9.92578 10.0762 10.623 10.7734 10.623 11.6758C10.623 12.5645 9.92578 13.2754 9.02344 13.2754ZM1.03906 10.5684C0.478516 10.5684 0 11.0605 0 11.6758C0 12.291 0.478516 12.7695 1.03906 12.7695L6.67188 12.7695L6.67188 10.5684ZM26.4414 10.5684L11.1973 10.5684L11.1973 12.7695L26.4414 12.7695C27.0566 12.7695 27.5488 12.291 27.5488 11.6758C27.5488 11.0605 27.0566 10.5684 26.4414 10.5684ZM18.6758 6.60352C20.4805 6.60352 21.957 5.12695 21.957 3.32227C21.957 1.51758 20.4805 0.0273438 18.6758 0.0273438C16.8711 0.0273438 15.3809 1.51758 15.3809 3.32227C15.3809 5.12695 16.8711 6.60352 18.6758 6.60352ZM18.6758 4.92188C17.7734 4.92188 17.0762 4.21094 17.0762 3.30859C17.0762 2.40625 17.7734 1.70898 18.6758 1.70898C19.5781 1.70898 20.2754 2.40625 20.2754 3.30859C20.2754 4.21094 19.5781 4.92188 18.6758 4.92188ZM16.5703 2.22852L1.09375 2.22852C0.478516 2.22852 0 2.70703 0 3.32227C0 3.9375 0.478516 4.42969 1.09375 4.42969L16.5703 4.42969ZM26.4961 2.22852L20.8633 2.22852L20.8633 4.42969L26.4961 4.42969C27.0566 4.42969 27.5488 3.9375 27.5488 3.32227C27.5488 2.70703 27.0566 2.22852 26.4961 2.22852Z" fill="black" fill-opacity="0.85"/>
 </g>
</svg>
