<?xml version="1.0" encoding="UTF-8"?>
<!--Generator: Apple Native CoreSVG 326-->
<!DOCTYPE svg
PUBLIC "-//W3C//DTD SVG 1.1//EN"
       "http://www.w3.org/Graphics/SVG/1.1/DTD/svg11.dtd">
<svg version="1.1" xmlns="http://www.w3.org/2000/svg" xmlns:xlink="http://www.w3.org/1999/xlink" viewBox="0 0 39.7434 20.4941">
 <g>
  <rect height="20.4941" opacity="0" width="39.7434" x="0" y="0"/>
  <path d="M9.02305 3.66406L10.0074 3.66406C10.6227 3.66406 10.8824 3.43164 11.0875 2.91211L11.8941 0.875C12.0855 0.423828 11.8805 0.0273438 11.402 0.0273438L10.4996 0.0273438C10.0348 0.0273438 9.74766 0.259766 9.52891 0.669922L8.44883 2.74805C8.23008 3.1582 8.44883 3.66406 9.02305 3.66406ZM5.27695 11.2656L6.79453 11.2656C7.42344 11.2656 7.79258 11.0469 8.025 10.459L9.21445 7.5332C9.40586 7.05469 9.10508 6.58984 8.57187 6.58984L7.21836 6.58984C6.75351 6.58984 6.3707 6.82227 6.15195 7.24609L4.63437 10.1992C4.36094 10.7188 4.68906 11.2656 5.27695 11.2656ZM1.10703 20.4941L2.89805 20.4941C3.71836 20.4941 4.12851 20.0977 4.34726 19.5098L6.01523 15.4219C6.26133 14.8203 5.87851 14.2324 5.22226 14.2324L3.67734 14.2324C2.81601 14.2324 2.39219 14.5605 2.09141 15.1348L0.149999 18.9766C-0.20547 19.6738 0.054296 20.4941 1.10703 20.4941ZM29.3805 3.66406L30.3648 3.66406C30.9391 3.66406 31.1578 3.1582 30.9391 2.74805L29.859 0.669922C29.6539 0.259766 29.3531 0.0273438 28.8883 0.0273438L27.9859 0.0273438C27.5074 0.0273438 27.3023 0.423828 27.4937 0.875L28.3004 2.91211C28.5055 3.43164 28.7652 3.66406 29.3805 3.66406ZM32.607 11.2656L34.1109 11.2656C34.6988 11.2656 35.027 10.7188 34.7672 10.1992L33.2496 7.24609C33.0172 6.82227 32.6344 6.58984 32.1695 6.58984L30.816 6.58984C30.2828 6.58984 29.982 7.05469 30.1734 7.5332L31.3629 10.459C31.609 11.0469 31.9645 11.2656 32.607 11.2656ZM36.4898 20.4941L38.2809 20.4941C39.3473 20.4941 39.5934 19.6738 39.2379 18.9766L37.2965 15.1348C36.9957 14.5605 36.5719 14.2324 35.7105 14.2324L34.1793 14.2324C33.5094 14.2324 33.1266 14.8203 33.3727 15.4219L35.0406 19.5098C35.273 20.0977 35.6695 20.4941 36.4898 20.4941Z" fill="black" fill-opacity="0.85"/>
  <path d="M19.7008 19.4824C20.1383 19.4824 20.4391 19.168 20.4391 18.7031L20.4391 17.1992L21.6148 17.8691C22.025 18.1016 22.4352 18.0059 22.6402 17.6367C22.8453 17.2949 22.7086 16.8711 22.3258 16.6387L20.4391 15.5859L20.4391 14.6289L20.2887 11.9902L22.5445 13.4258L23.3375 13.9043L23.3375 16.0781C23.3375 16.5156 23.6109 16.8438 24.0211 16.8438C24.4449 16.8438 24.7184 16.543 24.7184 16.0781L24.732 14.6973L26.0445 15.4629C26.4273 15.6953 26.8512 15.5996 27.0836 15.2168C27.3023 14.8203 27.193 14.3965 26.7965 14.1641L25.484 13.4121L26.6461 12.7285C27.0426 12.4824 27.193 12.0996 26.9879 11.7441C26.7691 11.3887 26.3316 11.293 25.9488 11.5117L24.0895 12.6055L23.2691 12.127L20.8766 10.9375L23.2691 9.74805L24.0895 9.25586L25.9488 10.3633C26.3316 10.5684 26.7828 10.4863 26.9879 10.1445C27.193 9.76172 27.0426 9.39258 26.6461 9.13281L25.484 8.44922L26.7965 7.71094C27.193 7.47852 27.3023 7.06836 27.0836 6.6582C26.8785 6.27539 26.4273 6.17969 26.0445 6.39844L24.732 7.16406L24.7184 5.79688C24.7184 5.3457 24.4449 5.01758 24.0348 5.01758C23.6109 5.01758 23.3375 5.35938 23.3375 5.79688L23.3375 7.95703L22.5445 8.43555L20.2887 9.88477L20.4391 7.24609L20.4391 6.28906L22.3258 5.23633C22.7086 5.00391 22.8453 4.58008 22.6402 4.23828C22.4352 3.86914 22.025 3.77344 21.6148 4.00586L20.4391 4.67578L20.4391 3.17188C20.4391 2.69336 20.1383 2.39258 19.7008 2.39258C19.2633 2.39258 18.9488 2.70703 18.9488 3.17188L18.9488 4.68945L17.7594 4.00586C17.3492 3.78711 16.9527 3.86914 16.7477 4.23828C16.5426 4.58008 16.6793 5.00391 17.0621 5.22266L18.9488 6.28906L18.9488 7.24609L19.0992 9.88477L16.8707 8.44922L16.0504 7.95703L16.0641 5.79688C16.0641 5.35938 15.777 5.01758 15.3668 5.01758C14.943 5.01758 14.6695 5.33203 14.6695 5.79688L14.6559 7.16406L13.3434 6.39844C12.9469 6.16602 12.5094 6.28906 12.3043 6.6582C12.0719 7.05469 12.2086 7.47852 12.5914 7.71094L13.9039 8.44922L12.7418 9.13281C12.3453 9.37891 12.2086 9.74805 12.4 10.1445C12.6051 10.4863 13.0562 10.582 13.4527 10.3633L15.2984 9.26953L16.1324 9.74805L18.5113 10.9375L16.1324 12.127L15.2984 12.6055L13.4527 11.5117C13.0562 11.293 12.6051 11.375 12.4137 11.7168C12.2223 12.0996 12.3316 12.4961 12.7418 12.7285L13.9039 13.4121L12.5914 14.1641C12.2086 14.3965 12.0855 14.8203 12.3043 15.2168C12.523 15.5996 12.9469 15.6953 13.3434 15.4629L14.6559 14.7109L14.6695 16.0781C14.6695 16.543 14.943 16.8438 15.3668 16.8438C15.777 16.8438 16.0641 16.5156 16.0641 16.0781L16.0504 13.9043L16.8707 13.4258L19.0992 11.9902L18.9488 14.6289L18.9488 15.5859L17.0621 16.6523C16.6793 16.8711 16.5426 17.2949 16.7477 17.6367C16.9527 18.0059 17.3492 18.0879 17.7594 17.8691L18.9488 17.1855L18.9488 18.7031C18.9488 19.1543 19.2633 19.4824 19.7008 19.4824Z" fill="black" fill-opacity="0.85"/>
 </g>
</svg>
