<?xml version="1.0" encoding="UTF-8"?>
<!--Generator: Apple Native CoreSVG 326-->
<!DOCTYPE svg
PUBLIC "-//W3C//DTD SVG 1.1//EN"
       "http://www.w3.org/Graphics/SVG/1.1/DTD/svg11.dtd">
<svg version="1.1" xmlns="http://www.w3.org/2000/svg" xmlns:xlink="http://www.w3.org/1999/xlink" viewBox="0 0 28.2461 27.9043">
 <g>
  <rect height="27.9043" opacity="0" width="28.2461" x="0" y="0"/>
  <path d="M13.9453 27.8906C21.6426 27.8906 27.8906 21.6289 27.8906 13.9453C27.8906 6.24805 21.6426 0 13.9453 0C6.26172 0 0 6.24805 0 13.9453C0 21.6289 6.26172 27.8906 13.9453 27.8906Z" fill="black" fill-opacity="0.85"/>
  <path d="M13.9453 21.5059C9.77539 21.5059 6.39844 18.1289 6.39844 13.959C6.39844 9.78906 9.77539 6.39844 13.9453 6.39844C18.1152 6.39844 21.5059 9.78906 21.5059 13.959C21.5059 18.1289 18.1152 21.5059 13.9453 21.5059ZM8.57227 17.4453L10.7461 17.4043L11.8535 15.9551L11.1973 13.9043L9.16016 13.0703L7.54688 14C7.56055 15.2715 7.92969 16.4336 8.57227 17.4453ZM8.90039 9.9668L9.48828 11.8809L11.5391 12.7148L13.3574 11.334L13.3574 9.17383L11.7578 7.91602C10.623 8.3125 9.65234 9.05078 8.90039 9.9668ZM19.0039 9.9668C18.2793 9.05078 17.2812 8.3125 16.1465 7.91602L14.5879 9.14648L14.5879 11.334L16.3789 12.7148L18.4297 11.8809ZM19.332 17.4727C19.9746 16.4746 20.3574 15.2715 20.3711 14L18.7578 13.0703L16.7207 13.9043L16.0645 15.9688L17.1719 17.4316ZM13.959 20.3574C14.5742 20.3574 15.1758 20.2754 15.7363 20.0977L16.2012 18.1699L15.1895 16.8574L12.7012 16.8574L11.7168 18.1289L12.1816 20.0977C12.7422 20.2617 13.3438 20.3574 13.959 20.3574Z" fill="white"/>
 </g>
</svg>
