<?xml version="1.0" encoding="UTF-8"?>
<!--Generator: Apple Native CoreSVG 326-->
<!DOCTYPE svg
PUBLIC "-//W3C//DTD SVG 1.1//EN"
       "http://www.w3.org/Graphics/SVG/1.1/DTD/svg11.dtd">
<svg version="1.1" xmlns="http://www.w3.org/2000/svg" xmlns:xlink="http://www.w3.org/1999/xlink" viewBox="0 0 42.0684 24.0215">
 <g>
  <rect height="24.0215" opacity="0" width="42.0684" x="0" y="0"/>
  <path d="M8.6543 12.4688L20.0293 12.4688L20.0293 2.9668C20.0293 1.17578 18.8672 0 17.1582 0L6.75391 0C5.03125 0 3.88281 1.17578 3.88281 2.9668L3.88281 5.48242L4.26562 5.48242C6.82227 5.48242 8.6543 7.32812 8.6543 9.91211ZM21.6836 12.4688L33.0586 12.4688L33.0586 9.91211C33.0586 7.32812 34.9043 5.48242 37.4473 5.48242L37.8301 5.48242L37.8301 2.9668C37.8301 1.17578 36.6816 0 34.959 0L24.5547 0C22.8457 0 21.6836 1.17578 21.6836 2.9668ZM0 18.2246C0 19.9336 1.12109 21.0684 2.80273 21.0684L38.9102 21.0684C40.5918 21.0684 41.7129 19.9336 41.7129 18.2246L41.7129 9.91211C41.7129 8.2168 40.5918 7.06836 38.9102 7.06836L37.4473 7.06836C35.7793 7.06836 34.6582 8.2168 34.6582 9.91211L34.6582 14.0547L7.06836 14.0547L7.06836 9.91211C7.06836 8.2168 5.93359 7.06836 4.26562 7.06836L2.80273 7.06836C1.12109 7.06836 0 8.2168 0 9.91211ZM4.82617 23.9941L5.6875 23.9941C6.42578 23.9941 6.89062 23.5293 6.89062 22.791L6.89062 19.8926L3.62305 19.8926L3.62305 22.791C3.62305 23.5293 4.08789 23.9941 4.82617 23.9941ZM36.0254 23.9941L36.8867 23.9941C37.625 23.9941 38.0898 23.5293 38.0898 22.791L38.0898 19.8926L34.8223 19.8926L34.8223 22.791C34.8223 23.5293 35.3008 23.9941 36.0254 23.9941Z" fill="black" fill-opacity="0.85"/>
 </g>
</svg>
