<?xml version="1.0" encoding="UTF-8"?>
<!--Generator: Apple Native CoreSVG 326-->
<!DOCTYPE svg
PUBLIC "-//W3C//DTD SVG 1.1//EN"
       "http://www.w3.org/Graphics/SVG/1.1/DTD/svg11.dtd">
<svg version="1.1" xmlns="http://www.w3.org/2000/svg" xmlns:xlink="http://www.w3.org/1999/xlink" viewBox="0 0 34.5352 27.3574">
 <g>
  <rect height="27.3574" opacity="0" width="34.5352" x="0" y="0"/>
  <path d="M25.0742 26.2227C25.0742 26.8379 24.5684 27.3301 23.9668 27.3301L10.2129 27.3301C9.61133 27.3301 9.10547 26.8379 9.10547 26.2227C9.10547 25.6074 9.61133 25.1152 10.2129 25.1152L23.9668 25.1152C24.5684 25.1152 25.0742 25.6074 25.0742 26.2227ZM34.1797 3.51367L34.1797 19.1816C34.1797 21.5605 33.0039 22.6953 30.666 22.6953L3.51367 22.6953C1.18945 22.6953 0 21.5605 0 19.1816L0 3.51367C0 1.13477 1.18945 0 3.51367 0L30.666 0C33.0039 0 34.1797 1.13477 34.1797 3.51367ZM11.8535 13.2891C11.4434 15.2852 11.6211 15.3809 9.37891 15.75C9.17383 15.7773 9.05078 15.9414 9.05078 16.1328C9.05078 16.3516 9.17383 16.4883 9.40625 16.5293C11.6211 16.8574 11.4434 16.9531 11.8535 18.9629C11.9219 19.1816 12.0312 19.332 12.25 19.332C12.4414 19.332 12.5918 19.1953 12.6465 19.0039C13.0293 16.9531 12.8926 16.8574 15.1348 16.5293C15.3262 16.4883 15.4629 16.3242 15.4629 16.1328C15.4629 15.9414 15.3262 15.7773 15.1348 15.75C12.8926 15.3809 13.0293 15.2852 12.6465 13.2891C12.5918 13.0703 12.4551 12.9199 12.25 12.9199C12.0449 12.9199 11.9219 13.0566 11.8535 13.2891ZM17.2676 4.56641C16.4883 8.72266 16.1191 9.46094 11.8125 10.0488C11.5254 10.0898 11.3477 10.3086 11.3477 10.5684C11.3477 10.8418 11.5254 11.0332 11.8125 11.0742C16.1328 11.5117 16.666 12.4277 17.2676 16.5566C17.3086 16.8301 17.5 17.0215 17.8008 17.0215C18.0605 17.0215 18.252 16.8301 18.3066 16.5703C19.0859 12.4277 19.4688 11.6621 23.7754 11.0742C24.0488 11.0469 24.2402 10.8418 24.2402 10.5684C24.2402 10.3086 24.0488 10.0898 23.7754 10.0488C19.4824 9.46094 18.9219 8.6543 18.3066 4.58008C18.2656 4.30664 18.0605 4.11523 17.8008 4.11523C17.5273 4.11523 17.3359 4.29297 17.2676 4.56641Z" fill="black" fill-opacity="0.85"/>
 </g>
</svg>
