<?xml version="1.0" encoding="UTF-8"?>
<!--Generator: Apple Native CoreSVG 326-->
<!DOCTYPE svg
PUBLIC "-//W3C//DTD SVG 1.1//EN"
       "http://www.w3.org/Graphics/SVG/1.1/DTD/svg11.dtd">
<svg version="1.1" xmlns="http://www.w3.org/2000/svg" xmlns:xlink="http://www.w3.org/1999/xlink" viewBox="0 0 33.4004 34.6309">
 <g>
  <rect height="34.6309" opacity="0" width="33.4004" x="0" y="0"/>
  <path d="M25.1506 3.91016L7.89434 3.91016C7.95046 2.79901 8.65169 2.16016 9.81641 2.16016L23.2285 2.16016C24.3932 2.16016 25.0945 2.79901 25.1506 3.91016Z" fill="black" fill-opacity="0.85"/>
  <path d="M27.9473 7.81549C27.5075 7.7456 27.0411 7.71094 26.5508 7.71094L6.49414 7.71094C6.00391 7.71094 5.53762 7.74558 5.09803 7.81545C5.24689 6.50197 6.13568 5.76953 7.58789 5.76953L25.4707 5.76953C26.9229 5.76953 27.8005 6.50199 27.9473 7.81549Z" fill="black" fill-opacity="0.85"/>
  <path d="M6.49414 32.4297L26.5508 32.4297C29.4082 32.4297 30.8438 31.0078 30.8438 28.1914L30.8438 14.1504C30.8438 11.334 29.4082 9.91211 26.5508 9.91211L6.49414 9.91211C3.63672 9.91211 2.20117 11.334 2.20117 14.1504L2.20117 28.1914C2.20117 31.0078 3.63672 32.4297 6.49414 32.4297ZM6.53516 30.2285C5.16797 30.2285 4.40234 29.4902 4.40234 28.0684L4.40234 14.2734C4.40234 12.8516 5.16797 12.1133 6.53516 12.1133L26.5234 12.1133C27.8633 12.1133 28.6426 12.8516 28.6426 14.2734L28.6426 28.0684C28.6426 29.4902 27.8633 30.2285 26.5234 30.2285Z" fill="black" fill-opacity="0.85"/>
  <path d="M17.1855 26.6875C17.4453 26.6875 17.623 26.5098 17.6777 26.25C18.4297 22.2305 18.7988 21.4785 22.9824 20.918C23.2559 20.877 23.4473 20.6855 23.4473 20.4258C23.4473 20.166 23.2559 19.9746 22.9824 19.9199C18.8125 19.3594 18.2793 18.5664 17.6777 14.6152C17.6367 14.3418 17.4453 14.1641 17.1855 14.1641C16.9395 14.1641 16.7344 14.3281 16.6797 14.6016C15.9277 18.6348 15.5586 19.3594 11.375 19.9199C11.1016 19.9746 10.9238 20.166 10.9238 20.4258C10.9238 20.6855 11.1016 20.877 11.375 20.918C15.5723 21.3418 16.0918 22.2305 16.6797 26.2363C16.7207 26.5098 16.9121 26.6875 17.1855 26.6875ZM11.8125 28.916C11.9902 28.916 12.1406 28.793 12.1816 28.6152C12.5645 26.6191 12.4277 26.5234 14.6016 26.1953C14.793 26.168 14.916 26.0039 14.916 25.8125C14.916 25.6348 14.793 25.4707 14.6016 25.4434C12.4277 25.0879 12.5645 24.9922 12.1816 23.0645C12.1406 22.8594 12.0039 22.709 11.8125 22.709C11.6211 22.709 11.4844 22.8457 11.4297 23.0645C11.0332 24.9922 11.1973 25.0879 9.02344 25.4434C8.81836 25.4707 8.70898 25.6348 8.70898 25.8125C8.70898 26.0312 8.81836 26.168 9.05078 26.1953C11.1973 26.5234 11.0332 26.6191 11.4297 28.5742C11.4844 28.7793 11.6074 28.916 11.8125 28.916Z" fill="black" fill-opacity="0.85"/>
 </g>
</svg>
