<?xml version="1.0" encoding="UTF-8"?>
<!--Generator: Apple Native CoreSVG 326-->
<!DOCTYPE svg
PUBLIC "-//W3C//DTD SVG 1.1//EN"
       "http://www.w3.org/Graphics/SVG/1.1/DTD/svg11.dtd">
<svg version="1.1" xmlns="http://www.w3.org/2000/svg" xmlns:xlink="http://www.w3.org/1999/xlink" viewBox="0 0 34.1797 24.1309">
 <g>
  <rect height="24.1309" opacity="0" width="34.1797" x="0" y="0"/>
  <path d="M21.8066 13.207L32.5254 13.207C33.291 13.207 33.8242 12.7969 33.8242 12.0723C33.8242 11.334 33.332 10.9102 32.5254 10.9102L21.8066 10.9102C21.0137 10.9102 20.4941 11.334 20.4941 12.0723C20.4941 12.7969 21.041 13.207 21.8066 13.207Z" fill="black" fill-opacity="0.85"/>
  <path d="M14.7383 24.1309C15.6406 24.1309 16.2832 23.4883 16.2832 22.5996L16.2832 1.62695C16.2832 0.738281 15.6406 0.0136719 14.7109 0.0136719C14.0684 0.0136719 13.6309 0.287109 12.9473 0.957031L7.10938 6.42578C7.02734 6.50781 6.9043 6.54883 6.76758 6.54883L2.85742 6.54883C0.998047 6.54883 0 7.57422 0 9.54297L0 14.6289C0 16.6113 0.998047 17.623 2.85742 17.623L6.76758 17.623C6.9043 17.623 7.02734 17.6641 7.10938 17.7461L12.9473 23.2695C13.5625 23.8711 14.0957 24.1309 14.7383 24.1309Z" fill="black" fill-opacity="0.85"/>
 </g>
</svg>
