<?xml version="1.0" encoding="UTF-8"?>
<!--Generator: Apple Native CoreSVG 326-->
<!DOCTYPE svg
PUBLIC "-//W3C//DTD SVG 1.1//EN"
       "http://www.w3.org/Graphics/SVG/1.1/DTD/svg11.dtd">
<svg version="1.1" xmlns="http://www.w3.org/2000/svg" xmlns:xlink="http://www.w3.org/1999/xlink" viewBox="0 0 30.8711 24.1309">
 <g>
  <rect height="24.1309" opacity="0" width="30.8711" x="0" y="0"/>
  <path d="M26.2363 21.4512C26.7422 21.793 27.3711 21.6699 27.7402 21.1504C29.4902 18.7441 30.5156 15.4355 30.5156 12.0586C30.5156 8.68164 29.5039 5.3457 27.7402 2.9668C27.3711 2.44727 26.7422 2.32422 26.2363 2.66602C25.7305 3.00781 25.6484 3.65039 26.0449 4.21094C27.5352 6.31641 28.3965 9.14648 28.3965 12.0586C28.3965 14.9707 27.5078 17.7734 26.0449 19.9062C25.6621 20.4668 25.7305 21.1094 26.2363 21.4512Z" fill="black" fill-opacity="0.85"/>
  <path d="M21.1777 17.8828C21.6289 18.1973 22.2715 18.1016 22.6406 17.5684C23.6934 16.1875 24.3223 14.1504 24.3223 12.0586C24.3223 9.9668 23.6934 7.94336 22.6406 6.54883C22.2715 6.01562 21.6289 5.90625 21.1777 6.23438C20.6172 6.61719 20.5352 7.30078 20.959 7.86133C21.752 8.95508 22.2031 10.4727 22.2031 12.0586C22.2031 13.6445 21.7383 15.1484 20.959 16.2559C20.5488 16.8301 20.6172 17.4863 21.1777 17.8828Z" fill="black" fill-opacity="0.85"/>
  <path d="M14.7383 24.1309C15.6406 24.1309 16.2832 23.4883 16.2832 22.5996L16.2832 1.62695C16.2832 0.738281 15.6406 0.0136719 14.7109 0.0136719C14.0684 0.0136719 13.6445 0.300781 12.9473 0.957031L7.10938 6.42578C7.02734 6.50781 6.9043 6.54883 6.76758 6.54883L2.85742 6.54883C0.998047 6.54883 0 7.57422 0 9.54297L0 14.6289C0 16.6113 0.998047 17.623 2.85742 17.623L6.76758 17.623C6.9043 17.623 7.02734 17.6641 7.10938 17.7461L12.9473 23.2695C13.5625 23.8711 14.0957 24.1309 14.7383 24.1309Z" fill="black" fill-opacity="0.85"/>
 </g>
</svg>
