<?xml version="1.0" encoding="UTF-8"?>
<!--Generator: Apple Native CoreSVG 326-->
<!DOCTYPE svg
PUBLIC "-//W3C//DTD SVG 1.1//EN"
       "http://www.w3.org/Graphics/SVG/1.1/DTD/svg11.dtd">
<svg version="1.1" xmlns="http://www.w3.org/2000/svg" xmlns:xlink="http://www.w3.org/1999/xlink" viewBox="0 0 37.0508 26.4247">
 <g>
  <rect height="26.4247" opacity="0" width="37.0508" x="0" y="0"/>
  <path d="M31.3633 26.2211C31.8281 26.5629 32.498 26.4262 32.8672 25.8793C35.2598 22.4203 36.6953 18.0317 36.6953 13.2055C36.6953 8.36565 35.2188 4.00433 32.8672 0.531669C32.498-0.0288778 31.8281-0.151925 31.3633 0.189872C30.8438 0.545341 30.7754 1.18792 31.1445 1.74847C33.2637 4.87933 34.6035 8.81683 34.6035 13.2055C34.6035 17.5805 33.2637 21.5453 31.1445 24.6625C30.7754 25.2231 30.8438 25.8657 31.3633 26.2211Z" fill="black" fill-opacity="0.85"/>
  <path d="M26.2363 22.5981C26.7422 22.9399 27.3711 22.8168 27.7402 22.2973C29.4902 19.891 30.5156 16.5825 30.5156 13.2055C30.5156 9.82854 29.5039 6.49261 27.7402 4.1137C27.3711 3.59417 26.7422 3.47112 26.2363 3.81292C25.7305 4.15472 25.6484 4.79729 26.0449 5.35784C27.5352 7.46331 28.3965 10.2934 28.3965 13.2055C28.3965 16.1176 27.5078 18.9203 26.0449 21.0532C25.6621 21.6137 25.7305 22.2563 26.2363 22.5981Z" fill="black" fill-opacity="0.85"/>
  <path d="M21.1777 19.0297C21.6289 19.3442 22.2715 19.2485 22.6406 18.7153C23.6934 17.3344 24.3223 15.2973 24.3223 13.2055C24.3223 11.1137 23.6934 9.09026 22.6406 7.69573C22.2715 7.16253 21.6289 7.05315 21.1777 7.38128C20.6172 7.76409 20.5352 8.44768 20.959 9.00823C21.752 10.102 22.2031 11.6196 22.2031 13.2055C22.2031 14.7914 21.7383 16.2953 20.959 17.4028C20.5488 17.977 20.6172 18.6332 21.1777 19.0297Z" fill="black" fill-opacity="0.85"/>
  <path d="M2.77539 18.77L6.69922 18.77C6.82227 18.77 6.93164 18.811 7.02734 18.893L13.1934 24.4164C13.8496 25.0043 14.3555 25.2778 15.0117 25.2778C15.8867 25.2778 16.5566 24.6352 16.5566 23.7465L16.5566 2.77386C16.5566 1.88518 15.8867 1.16058 14.9844 1.16058C14.3281 1.16058 13.9043 1.46136 13.1934 2.10393L7.02734 7.57268C6.93164 7.65472 6.82227 7.69573 6.69922 7.69573L2.77539 7.69573C0.916016 7.69573 0 8.63909 0 10.6215L0 15.8578C0 17.8403 0.929688 18.77 2.77539 18.77ZM2.87109 16.7739C2.36523 16.7739 2.13281 16.5414 2.13281 16.0356L2.13281 10.4438C2.13281 9.92425 2.36523 9.69183 2.87109 9.69183L7.24609 9.69183C7.60156 9.69183 7.875 9.62347 8.18945 9.33636L14.0137 4.04534C14.082 3.97698 14.1504 3.93597 14.2461 3.93597C14.3418 3.93597 14.4238 4.00433 14.4238 4.12737L14.4238 22.2973C14.4238 22.4203 14.3418 22.5024 14.2461 22.5024C14.1777 22.5024 14.0957 22.4614 14.0137 22.393L8.18945 17.1293C7.875 16.8559 7.60156 16.7739 7.24609 16.7739Z" fill="black" fill-opacity="0.85"/>
 </g>
</svg>
