<?xml version="1.0" encoding="UTF-8"?>
<!--Generator: Apple Native CoreSVG 326-->
<!DOCTYPE svg
PUBLIC "-//W3C//DTD SVG 1.1//EN"
       "http://www.w3.org/Graphics/SVG/1.1/DTD/svg11.dtd">
<svg version="1.1" xmlns="http://www.w3.org/2000/svg" xmlns:xlink="http://www.w3.org/1999/xlink" viewBox="0 0 25.5254 25.1699">
 <g>
  <rect height="25.1699" opacity="0" width="25.5254" x="0" y="0"/>
  <path d="M4.29297 25.1699L20.877 25.1699C23.748 25.1699 25.1699 23.7617 25.1699 20.9453L25.1699 4.23828C25.1699 1.42188 23.748 0 20.877 0L4.29297 0C1.43555 0 0 1.42188 0 4.23828L0 20.9453C0 23.7617 1.43555 25.1699 4.29297 25.1699ZM4.32031 22.9688C2.95312 22.9688 2.20117 22.2441 2.20117 20.8223L2.20117 4.36133C2.20117 2.93945 2.95312 2.20117 4.32031 2.20117L20.8496 2.20117C22.2031 2.20117 22.9688 2.93945 22.9688 4.36133L22.9688 20.8223C22.9688 22.2441 22.2031 22.9688 20.8496 22.9688Z" fill="black" fill-opacity="0.85"/>
  <path d="M15.1074 19.127C15.5859 19.127 15.9277 18.7852 15.9277 18.293L15.9277 6.9043C15.9277 6.43945 15.5859 6.04297 15.0938 6.04297C14.7383 6.04297 14.5059 6.19336 14.1094 6.54883L10.9648 9.51562C10.9238 9.57031 10.8281 9.58398 10.7598 9.58398L8.64062 9.58398C7.62891 9.58398 7.08203 10.1445 7.08203 11.2109L7.08203 13.9727C7.08203 15.0391 7.62891 15.5996 8.64062 15.5996L10.7598 15.5996C10.8281 15.5996 10.9238 15.627 10.9648 15.668L14.1094 18.6621C14.4648 18.9902 14.752 19.127 15.1074 19.127Z" fill="black" fill-opacity="0.85"/>
 </g>
</svg>
