<?xml version="1.0" encoding="UTF-8"?>
<!--Generator: Apple Native CoreSVG 326-->
<!DOCTYPE svg
PUBLIC "-//W3C//DTD SVG 1.1//EN"
       "http://www.w3.org/Graphics/SVG/1.1/DTD/svg11.dtd">
<svg version="1.1" xmlns="http://www.w3.org/2000/svg" xmlns:xlink="http://www.w3.org/1999/xlink" viewBox="0 0 37.0508 26.4247">
 <g>
  <rect height="26.4247" opacity="0" width="37.0508" x="0" y="0"/>
  <path d="M31.3633 26.2211C31.8281 26.5629 32.498 26.4262 32.8672 25.8793C35.2598 22.4203 36.6953 18.0317 36.6953 13.2055C36.6953 8.36565 35.2188 4.00433 32.8672 0.531669C32.498-0.0288778 31.8281-0.151925 31.3633 0.189872C30.8438 0.545341 30.7754 1.18792 31.1445 1.74847C33.2637 4.87933 34.6035 8.81683 34.6035 13.2055C34.6035 17.5805 33.2637 21.5453 31.1445 24.6625C30.7754 25.2231 30.8438 25.8657 31.3633 26.2211Z" fill="black" fill-opacity="0.85"/>
  <path d="M26.2363 22.5981C26.7422 22.9399 27.3711 22.8168 27.7402 22.2973C29.4902 19.891 30.5156 16.5825 30.5156 13.2055C30.5156 9.82854 29.5039 6.49261 27.7402 4.1137C27.3711 3.59417 26.7422 3.47112 26.2363 3.81292C25.7305 4.15472 25.6484 4.79729 26.0449 5.35784C27.5352 7.46331 28.3965 10.2934 28.3965 13.2055C28.3965 16.1176 27.5078 18.9203 26.0449 21.0532C25.6621 21.6137 25.7305 22.2563 26.2363 22.5981Z" fill="black" fill-opacity="0.85"/>
  <path d="M21.1641 19.0297C21.6152 19.3442 22.2578 19.2485 22.627 18.7153C23.6797 17.3344 24.3086 15.2973 24.3086 13.2055C24.3086 11.1137 23.6797 9.09026 22.627 7.69573C22.2578 7.16253 21.6152 7.05315 21.1641 7.38128C20.6035 7.76409 20.5215 8.44768 20.9453 9.00823C21.7383 10.102 22.1895 11.6196 22.1895 13.2055C22.1895 14.7914 21.7246 16.2953 20.9453 17.4028C20.5352 17.977 20.6035 18.6332 21.1641 19.0297Z" fill="black" fill-opacity="0.85"/>
  <path d="M14.7383 25.2778C15.6406 25.2778 16.2832 24.6352 16.2832 23.7465L16.2832 2.77386C16.2832 1.88518 15.6406 1.16058 14.7109 1.16058C14.0684 1.16058 13.6309 1.43401 12.9473 2.10393L7.10938 7.57268C7.02734 7.65472 6.9043 7.69573 6.76758 7.69573L2.85742 7.69573C0.998047 7.69573 0 8.72112 0 10.6899L0 15.7758C0 17.7582 0.998047 18.77 2.85742 18.77L6.76758 18.77C6.9043 18.77 7.02734 18.811 7.10938 18.893L12.9473 24.4164C13.5625 25.018 14.0957 25.2778 14.7383 25.2778Z" fill="black" fill-opacity="0.85"/>
 </g>
</svg>
