<?xml version="1.0" encoding="UTF-8"?>
<!--Generator: Apple Native CoreSVG 326-->
<!DOCTYPE svg
PUBLIC "-//W3C//DTD SVG 1.1//EN"
       "http://www.w3.org/Graphics/SVG/1.1/DTD/svg11.dtd">
<svg version="1.1" xmlns="http://www.w3.org/2000/svg" xmlns:xlink="http://www.w3.org/1999/xlink" viewBox="0 0 19.8105 24.1309">
 <g>
  <rect height="24.1309" opacity="0" width="19.8105" x="0" y="0"/>
  <path d="M2.78906 17.623L6.69922 17.623C6.82227 17.623 6.93164 17.6641 7.02734 17.7461L13.1934 23.2695C13.8496 23.8574 14.3555 24.1309 15.0117 24.1309C15.9004 24.1309 16.5566 23.4883 16.5566 22.5996L16.5566 1.62695C16.5566 0.738281 15.9004 0.0136719 14.9844 0.0136719C14.3281 0.0136719 13.918 0.314453 13.1934 0.957031L7.02734 6.42578C6.93164 6.50781 6.82227 6.54883 6.69922 6.54883L2.78906 6.54883C0.929688 6.54883 0 7.49219 0 9.47461L0 14.7109C0 16.6934 0.929688 17.623 2.78906 17.623ZM2.88477 15.627C2.36523 15.627 2.13281 15.3945 2.13281 14.8887L2.13281 9.29688C2.13281 8.77734 2.36523 8.54492 2.88477 8.54492L7.25977 8.54492C7.61523 8.54492 7.875 8.47656 8.18945 8.18945L14.0137 2.89844C14.082 2.83008 14.1641 2.78906 14.2461 2.78906C14.3418 2.78906 14.4238 2.85742 14.4238 2.98047L14.4238 21.1504C14.4238 21.2734 14.3418 21.3555 14.2461 21.3555C14.1777 21.3555 14.0957 21.3145 14.0273 21.2461L8.18945 15.9824C7.875 15.709 7.61523 15.627 7.25977 15.627Z" fill="black" fill-opacity="0.85"/>
 </g>
</svg>
