<?xml version="1.0" encoding="UTF-8"?>
<!--Generator: Apple Native CoreSVG 326-->
<!DOCTYPE svg
PUBLIC "-//W3C//DTD SVG 1.1//EN"
       "http://www.w3.org/Graphics/SVG/1.1/DTD/svg11.dtd">
<svg version="1.1" xmlns="http://www.w3.org/2000/svg" xmlns:xlink="http://www.w3.org/1999/xlink" viewBox="0 0 28.2461 27.9043">
 <g>
  <rect height="27.9043" opacity="0" width="28.2461" x="0" y="0"/>
  <path d="M27.8906 13.9453C27.8906 21.6426 21.6426 27.8906 13.9453 27.8906C6.24805 27.8906 0 21.6426 0 13.9453C0 6.24805 6.24805 0 13.9453 0C21.6426 0 27.8906 6.24805 27.8906 13.9453ZM2.32422 13.9453C2.32422 20.3711 7.51953 25.5664 13.9453 25.5664C20.3711 25.5664 25.5664 20.3711 25.5664 13.9453C25.5664 7.51953 20.3711 2.32422 13.9453 2.32422C7.51953 2.32422 2.32422 7.51953 2.32422 13.9453Z" fill="black" fill-opacity="0.85"/>
  <path d="M17.2676 19.4961L17.2676 19.6602C17.2676 20.1523 16.9121 20.4941 16.4336 20.4941C16.0781 20.4941 15.791 20.3574 15.4492 20.0293L12.3047 17.0352C12.2637 16.9941 12.168 16.9668 12.0996 16.9668L9.98047 16.9668C8.95508 16.9668 8.42188 16.4062 8.42188 15.3398L8.42188 12.5781C8.42188 11.9385 8.61371 11.4808 8.98997 11.2185ZM17.2676 8.27148L17.2676 15.0162L12.729 10.4825L15.4492 7.91602C15.832 7.56055 16.0645 7.41016 16.4199 7.41016C16.9121 7.41016 17.2676 7.80664 17.2676 8.27148Z" fill="black" fill-opacity="0.85"/>
  <path d="M19.7969 20.6445C20.0293 20.877 20.4395 20.8906 20.6719 20.6445C20.918 20.3984 20.918 20.0156 20.6719 19.7695L8.14844 7.23242C7.88867 6.98633 7.50586 6.98633 7.25977 7.23242C7.01367 7.47852 7.01367 7.875 7.25977 8.10742Z" fill="black" fill-opacity="0.85"/>
 </g>
</svg>
