<?xml version="1.0" encoding="UTF-8"?>
<!--Generator: Apple Native CoreSVG 326-->
<!DOCTYPE svg
PUBLIC "-//W3C//DTD SVG 1.1//EN"
       "http://www.w3.org/Graphics/SVG/1.1/DTD/svg11.dtd">
<svg version="1.1" xmlns="http://www.w3.org/2000/svg" xmlns:xlink="http://www.w3.org/1999/xlink" viewBox="0 0 28.2461 27.9043">
 <g>
  <rect height="27.9043" opacity="0" width="28.2461" x="0" y="0"/>
  <path d="M13.9453 27.8906C21.6426 27.8906 27.8906 21.6426 27.8906 13.9453C27.8906 6.24805 21.6426 0 13.9453 0C6.24805 0 0 6.24805 0 13.9453C0 21.6426 6.24805 27.8906 13.9453 27.8906ZM13.9453 25.5664C7.51953 25.5664 2.32422 20.3711 2.32422 13.9453C2.32422 7.51953 7.51953 2.32422 13.9453 2.32422C20.3711 2.32422 25.5664 7.51953 25.5664 13.9453C25.5664 20.3711 20.3711 25.5664 13.9453 25.5664Z" fill="black" fill-opacity="0.85"/>
  <path d="M19.0176 18.8262C19.373 19.0449 19.7695 18.9766 20.002 18.6484C20.918 17.3496 21.4375 15.6816 21.4375 13.9316C21.4375 12.2227 20.9453 10.5547 20.002 9.22852C19.7559 8.88672 19.3457 8.80469 19.0176 9.02344C18.6895 9.26953 18.6348 9.69336 18.8809 10.0488C19.6191 11.0879 20.0293 12.4688 20.0293 13.9316C20.0293 15.3809 19.6191 16.8164 18.8809 17.8145C18.6211 18.1699 18.6621 18.6074 19.0176 18.8262Z" fill="black" fill-opacity="0.85"/>
  <path d="M16.5977 17.0215C16.8984 17.2539 17.3359 17.1582 17.582 16.8438C18.1426 16.1191 18.457 15.0391 18.457 13.9316C18.457 12.8516 18.1289 11.7715 17.582 11.0332C17.3496 10.7051 16.8984 10.623 16.5977 10.8555C16.2559 11.1152 16.1875 11.5391 16.4473 11.8945C16.8027 12.373 17.0352 13.1387 17.0352 13.9316C17.0352 14.6973 16.8027 15.4629 16.4336 15.9824C16.1875 16.3516 16.2422 16.748 16.5977 17.0215Z" fill="black" fill-opacity="0.85"/>
  <path d="M13.4941 20.0977C13.9453 20.0977 14.2734 19.7695 14.2734 19.3184L14.2734 8.59961C14.2734 8.14844 13.9453 7.7793 13.4805 7.7793C13.1523 7.7793 12.9336 7.92969 12.5781 8.25781L9.59766 11.0742C9.55664 11.1152 9.48828 11.1289 9.41992 11.1289L7.41016 11.1289C6.48047 11.1289 5.96094 11.6484 5.96094 12.6465L5.96094 15.2578C5.96094 16.2422 6.48047 16.7617 7.41016 16.7617L9.41992 16.7617C9.48828 16.7617 9.55664 16.7891 9.59766 16.8301L12.5781 19.6738C12.8926 19.9609 13.166 20.0977 13.4941 20.0977Z" fill="black" fill-opacity="0.85"/>
 </g>
</svg>
