<?xml version="1.0" encoding="UTF-8"?>
<!--Generator: Apple Native CoreSVG 326-->
<!DOCTYPE svg
PUBLIC "-//W3C//DTD SVG 1.1//EN"
       "http://www.w3.org/Graphics/SVG/1.1/DTD/svg11.dtd">
<svg version="1.1" xmlns="http://www.w3.org/2000/svg" xmlns:xlink="http://www.w3.org/1999/xlink" viewBox="0 0 29.1211 22.3262">
 <g>
  <rect height="22.3262" opacity="0" width="29.1211" x="0" y="0"/>
  <path d="M11.2246 5.79688L17.5273 5.79688C18.5391 5.79688 19.2363 5.08594 19.2363 4.07422L19.2363 2.91211C19.2363 1.20312 18.0059 0.0136719 16.2012 0.0136719L12.5508 0.0136719C10.7461 0.0136719 9.51562 1.20312 9.51562 2.91211L9.51562 4.07422C9.51562 5.08594 10.2129 5.79688 11.2246 5.79688ZM11.6895 3.85547C11.5391 3.85547 11.4434 3.77344 11.4434 3.62305L11.4434 2.91211C11.4434 2.26953 11.8398 1.94141 12.5508 1.94141L16.2012 1.94141C16.9121 1.94141 17.3086 2.26953 17.3086 2.91211L17.3086 3.62305C17.3086 3.77344 17.2129 3.85547 17.0762 3.85547ZM11.2383 13.7539L17.5273 13.7539C18.5391 13.7539 19.2363 13.0566 19.2363 12.0312L19.2363 9.55664C19.2363 8.54492 18.5391 7.84766 17.5273 7.84766L11.2383 7.84766C10.2266 7.84766 9.51562 8.54492 9.51562 9.55664L9.51562 12.0312C9.51562 13.0566 10.2266 13.7539 11.2383 13.7539ZM11.6895 11.8262C11.5391 11.8262 11.4434 11.7305 11.4434 11.5801L11.4434 10.0078C11.4434 9.87109 11.5391 9.77539 11.6895 9.77539L17.0762 9.77539C17.2129 9.77539 17.3086 9.87109 17.3086 10.0078L17.3086 11.5801C17.3086 11.7305 17.2129 11.8262 17.0762 11.8262ZM11.7031 8.95508L13.6309 8.95508L13.6309 4.99023L11.7031 4.99023ZM15.1348 8.95508L17.0625 8.95508L17.0625 4.99023L15.1348 4.99023ZM11.7031 21.0137L13.6309 21.0137L13.6309 13.207L11.7031 13.207ZM15.1348 21.0137L17.0625 21.0137L17.0625 13.207L15.1348 13.207ZM1.09375 22.3262L27.6582 22.3262C28.2598 22.3262 28.7656 21.834 28.7656 21.2188C28.7656 20.6172 28.2598 20.125 27.6582 20.125L1.09375 20.125C0.492188 20.125 0 20.6172 0 21.2188C0 21.834 0.492188 22.3262 1.09375 22.3262Z" fill="black" fill-opacity="0.85"/>
 </g>
</svg>
