<?xml version="1.0" encoding="UTF-8"?>
<!--Generator: Apple Native CoreSVG 326-->
<!DOCTYPE svg
PUBLIC "-//W3C//DTD SVG 1.1//EN"
       "http://www.w3.org/Graphics/SVG/1.1/DTD/svg11.dtd">
<svg version="1.1" xmlns="http://www.w3.org/2000/svg" xmlns:xlink="http://www.w3.org/1999/xlink" viewBox="0 0 24.623 32.1152">
 <g>
  <rect height="32.1152" opacity="0" width="24.623" x="0" y="0"/>
  <path d="M0 26.4688C0 29.2988 1.43555 30.707 4.29297 30.707L19.9746 30.707C22.832 30.707 24.2676 29.2852 24.2676 26.4688L24.2676 12.9883C24.2676 10.1719 22.832 8.75 19.9746 8.75L4.29297 8.75C1.43555 8.75 0 10.1582 0 12.9883ZM12.127 20.002C11.5391 20.002 11.0469 19.5234 11.0469 18.9492L11.0469 5.03125L11.1289 2.99414L10.3633 3.80078L8.24414 6.05664C8.05273 6.27539 7.75195 6.38477 7.49219 6.38477C6.91797 6.38477 6.50781 5.97461 6.50781 5.42773C6.50781 5.12695 6.63086 4.9082 6.83594 4.70312L11.334 0.355469C11.6211 0.0820312 11.8535 0 12.127 0C12.4141 0 12.6465 0.0820312 12.9199 0.355469L17.4316 4.70312C17.6367 4.9082 17.7461 5.12695 17.7461 5.42773C17.7461 5.97461 17.3223 6.38477 16.748 6.38477C16.4883 6.38477 16.2012 6.27539 16.0098 6.05664L13.9043 3.80078L13.1387 2.99414L13.2207 5.03125L13.2207 18.9492C13.2207 19.5234 12.7148 20.002 12.127 20.002Z" fill="black" fill-opacity="0.85"/>
 </g>
</svg>
