<?xml version="1.0" encoding="UTF-8"?>
<!--Generator: Apple Native CoreSVG 326-->
<!DOCTYPE svg
PUBLIC "-//W3C//DTD SVG 1.1//EN"
       "http://www.w3.org/Graphics/SVG/1.1/DTD/svg11.dtd">
<svg version="1.1" xmlns="http://www.w3.org/2000/svg" xmlns:xlink="http://www.w3.org/1999/xlink" viewBox="0 0 25.5254 25.1699">
 <g>
  <rect height="25.1699" opacity="0" width="25.5254" x="0" y="0"/>
  <path d="M4.29297 25.1699L20.877 25.1699C23.748 25.1699 25.1699 23.7617 25.1699 20.9453L25.1699 4.23828C25.1699 1.42188 23.748 0 20.877 0L4.29297 0C1.43555 0 0 1.42188 0 4.23828L0 20.9453C0 23.7617 1.43555 25.1699 4.29297 25.1699ZM4.32031 22.9688C2.95312 22.9688 2.20117 22.2441 2.20117 20.8223L2.20117 4.36133C2.20117 2.93945 2.95312 2.20117 4.32031 2.20117L20.8496 2.20117C22.2031 2.20117 22.9688 2.93945 22.9688 4.36133L22.9688 20.8223C22.9688 22.2441 22.2031 22.9688 20.8496 22.9688Z" fill="black" fill-opacity="0.85"/>
  <path d="M4.26562 7.51953C4.26562 8.10742 4.63477 8.47656 5.22266 8.47656L7.50586 8.47656C8.09375 8.47656 8.46289 8.10742 8.46289 7.51953L8.46289 5.22266C8.46289 4.63477 8.09375 4.26562 7.50586 4.26562L5.22266 4.26562C4.63477 4.26562 4.26562 4.63477 4.26562 5.22266ZM10.5 7.51953C10.5 8.10742 10.8691 8.47656 11.457 8.47656L13.7402 8.47656C14.3418 8.47656 14.7109 8.10742 14.7109 7.51953L14.7109 5.22266C14.7109 4.63477 14.3418 4.26562 13.7402 4.26562L11.457 4.26562C10.8691 4.26562 10.5 4.63477 10.5 5.22266ZM16.7207 7.51953C16.7207 8.10742 17.0898 8.47656 17.6777 8.47656L19.9609 8.47656C20.5488 8.47656 20.918 8.10742 20.918 7.51953L20.918 5.22266C20.918 4.63477 20.5488 4.26562 19.9609 4.26562L17.6777 4.26562C17.0898 4.26562 16.7207 4.63477 16.7207 5.22266ZM4.26562 13.7402C4.26562 14.3281 4.63477 14.6973 5.22266 14.6973L7.50586 14.6973C8.09375 14.6973 8.46289 14.3281 8.46289 13.7402L8.46289 11.4434C8.46289 10.8555 8.09375 10.4863 7.50586 10.4863L5.22266 10.4863C4.63477 10.4863 4.26562 10.8555 4.26562 11.4434ZM10.5 13.7402C10.5 14.3281 10.8691 14.6973 11.457 14.6973L13.7402 14.6973C14.3418 14.6973 14.7109 14.3281 14.7109 13.7402L14.7109 11.4434C14.7109 10.8555 14.3418 10.4863 13.7402 10.4863L11.457 10.4863C10.8691 10.4863 10.5 10.8555 10.5 11.4434ZM16.7207 13.7402C16.7207 14.3281 17.0898 14.6973 17.6777 14.6973L19.9609 14.6973C20.5488 14.6973 20.918 14.3281 20.918 13.7402L20.918 11.4434C20.918 10.8555 20.5488 10.4863 19.9609 10.4863L17.6777 10.4863C17.0898 10.4863 16.7207 10.8555 16.7207 11.4434ZM4.26562 19.9609C4.26562 20.5488 4.63477 20.918 5.22266 20.918L7.50586 20.918C8.09375 20.918 8.46289 20.5488 8.46289 19.9609L8.46289 17.6641C8.46289 17.0762 8.09375 16.707 7.50586 16.707L5.22266 16.707C4.63477 16.707 4.26562 17.0762 4.26562 17.6641ZM10.5 19.9609C10.5 20.5488 10.8691 20.918 11.457 20.918L13.7402 20.918C14.3418 20.918 14.7109 20.5488 14.7109 19.9609L14.7109 17.6641C14.7109 17.0762 14.3418 16.707 13.7402 16.707L11.457 16.707C10.8691 16.707 10.5 17.0762 10.5 17.6641ZM16.7207 19.9609C16.7207 20.5488 17.0898 20.918 17.6777 20.918L19.9609 20.918C20.5488 20.918 20.918 20.5488 20.918 19.9609L20.918 17.6641C20.918 17.0762 20.5488 16.707 19.9609 16.707L17.6777 16.707C17.0898 16.707 16.7207 17.0762 16.7207 17.6641Z" fill="black" fill-opacity="0.85"/>
 </g>
</svg>
