<?xml version="1.0" encoding="UTF-8"?>
<!--Generator: Apple Native CoreSVG 326-->
<!DOCTYPE svg
PUBLIC "-//W3C//DTD SVG 1.1//EN"
       "http://www.w3.org/Graphics/SVG/1.1/DTD/svg11.dtd">
<svg version="1.1" xmlns="http://www.w3.org/2000/svg" xmlns:xlink="http://www.w3.org/1999/xlink" viewBox="0 0 25.5254 25.1973">
 <g>
  <rect height="25.1973" opacity="0" width="25.5254" x="0" y="0"/>
  <path d="M11.0332 12.6055L0.451172 2.02344C0.150391 2.625 0 3.37695 0 4.26562L0 20.959C0 21.8477 0.150391 22.5859 0.451172 23.2012ZM12.5918 11.0605L23.1738 0.478516C22.5586 0.164062 21.793 0.0273438 20.877 0.0273438L4.29297 0.0273438C3.37695 0.0273438 2.625 0.164062 1.99609 0.464844ZM14.1367 12.6055L24.7188 23.2012C25.0332 22.5859 25.1699 21.8477 25.1699 20.959L25.1699 4.26562C25.1699 3.37695 25.0332 2.625 24.7188 2.02344ZM12.5918 14.1641L1.99609 24.7461C2.625 25.0469 3.37695 25.1973 4.29297 25.1973L20.877 25.1973C21.793 25.1973 22.5586 25.0469 23.1738 24.7461Z" fill="black" fill-opacity="0.85"/>
 </g>
</svg>
