<?xml version="1.0" encoding="UTF-8"?>
<!--Generator: Apple Native CoreSVG 326-->
<!DOCTYPE svg
PUBLIC "-//W3C//DTD SVG 1.1//EN"
       "http://www.w3.org/Graphics/SVG/1.1/DTD/svg11.dtd">
<svg version="1.1" xmlns="http://www.w3.org/2000/svg" xmlns:xlink="http://www.w3.org/1999/xlink" viewBox="0 0 25.6348 25.2793">
 <g>
  <rect height="25.2793" opacity="0" width="25.6348" x="0" y="0"/>
  <path d="M1.17578 9.99414C1.81836 9.99414 2.35156 9.46094 2.35156 8.81836C2.35156 8.17578 1.81836 7.64258 1.17578 7.64258C0.533203 7.64258 0 8.17578 0 8.81836C0 9.46094 0.533203 9.99414 1.17578 9.99414ZM1.17578 6.16602C1.81836 6.16602 2.35156 5.63281 2.35156 4.99023C2.35156 4.34766 1.81836 3.81445 1.17578 3.81445C0.533203 3.81445 0 4.34766 0 4.99023C0 5.63281 0.533203 6.16602 1.17578 6.16602ZM1.17578 2.35156C1.81836 2.35156 2.35156 1.81836 2.35156 1.17578C2.35156 0.533203 1.81836 0 1.17578 0C0.533203 0 0 0.533203 0 1.17578C0 1.81836 0.533203 2.35156 1.17578 2.35156ZM5.00391 2.35156C5.64648 2.35156 6.17969 1.81836 6.17969 1.17578C6.17969 0.533203 5.64648 0 5.00391 0C4.36133 0 3.82812 0.533203 3.82812 1.17578C3.82812 1.81836 4.36133 2.35156 5.00391 2.35156ZM8.81836 2.35156C9.46094 2.35156 9.99414 1.81836 9.99414 1.17578C9.99414 0.533203 9.46094 0 8.81836 0C8.17578 0 7.64258 0.533203 7.64258 1.17578C7.64258 1.81836 8.17578 2.35156 8.81836 2.35156ZM12.6465 2.35156C13.2891 2.35156 13.8223 1.81836 13.8223 1.17578C13.8223 0.533203 13.2891 0 12.6465 0C12.0039 0 11.4707 0.533203 11.4707 1.17578C11.4707 1.81836 12.0039 2.35156 12.6465 2.35156ZM16.4609 2.35156C17.1035 2.35156 17.6367 1.81836 17.6367 1.17578C17.6367 0.533203 17.1035 0 16.4609 0C15.8184 0 15.2852 0.533203 15.2852 1.17578C15.2852 1.81836 15.8184 2.35156 16.4609 2.35156ZM20.2891 2.35156C20.9316 2.35156 21.4648 1.81836 21.4648 1.17578C21.4648 0.533203 20.9316 0 20.2891 0C19.6465 0 19.1133 0.533203 19.1133 1.17578C19.1133 1.81836 19.6465 2.35156 20.2891 2.35156ZM24.1035 2.35156C24.7461 2.35156 25.2793 1.81836 25.2793 1.17578C25.2793 0.533203 24.7461 0 24.1035 0C23.4609 0 22.9277 0.533203 22.9277 1.17578C22.9277 1.81836 23.4609 2.35156 24.1035 2.35156ZM24.1035 6.16602C24.7461 6.16602 25.2793 5.63281 25.2793 4.99023C25.2793 4.34766 24.7461 3.81445 24.1035 3.81445C23.4609 3.81445 22.9277 4.34766 22.9277 4.99023C22.9277 5.63281 23.4609 6.16602 24.1035 6.16602ZM24.1035 9.99414C24.7461 9.99414 25.2793 9.46094 25.2793 8.81836C25.2793 8.17578 24.7461 7.64258 24.1035 7.64258C23.4609 7.64258 22.9277 8.17578 22.9277 8.81836C22.9277 9.46094 23.4609 9.99414 24.1035 9.99414ZM24.1035 13.8086C24.7461 13.8086 25.2793 13.2754 25.2793 12.6328C25.2793 11.9902 24.7461 11.457 24.1035 11.457C23.4609 11.457 22.9277 11.9902 22.9277 12.6328C22.9277 13.2754 23.4609 13.8086 24.1035 13.8086ZM24.1035 17.6367C24.7461 17.6367 25.2793 17.1035 25.2793 16.4609C25.2793 15.8184 24.7461 15.2852 24.1035 15.2852C23.4609 15.2852 22.9277 15.8184 22.9277 16.4609C22.9277 17.1035 23.4609 17.6367 24.1035 17.6367ZM24.1035 21.4512C24.7461 21.4512 25.2793 20.918 25.2793 20.2754C25.2793 19.6328 24.7461 19.0996 24.1035 19.0996C23.4609 19.0996 22.9277 19.6328 22.9277 20.2754C22.9277 20.918 23.4609 21.4512 24.1035 21.4512ZM24.1035 25.2793C24.7461 25.2793 25.2793 24.7461 25.2793 24.1035C25.2793 23.4609 24.7461 22.9277 24.1035 22.9277C23.4609 22.9277 22.9277 23.4609 22.9277 24.1035C22.9277 24.7461 23.4609 25.2793 24.1035 25.2793ZM20.2891 25.2793C20.9316 25.2793 21.4648 24.7461 21.4648 24.1035C21.4648 23.4609 20.9316 22.9277 20.2891 22.9277C19.6465 22.9277 19.1133 23.4609 19.1133 24.1035C19.1133 24.7461 19.6465 25.2793 20.2891 25.2793ZM16.4609 25.2793C17.1035 25.2793 17.6367 24.7461 17.6367 24.1035C17.6367 23.4609 17.1035 22.9277 16.4609 22.9277C15.8184 22.9277 15.2852 23.4609 15.2852 24.1035C15.2852 24.7461 15.8184 25.2793 16.4609 25.2793Z" fill="black" fill-opacity="0.85"/>
  <path d="M1.09375 25.2246L12.7285 25.2246C13.3848 25.2246 13.8086 24.8008 13.8086 24.1445L13.8086 14.7383L12.9336 15.5996C12.6191 15.9141 12.25 16.1191 11.8535 16.2285L11.8535 22.873C11.8535 23.1738 11.7578 23.2695 11.457 23.2695L2.35156 23.2695C2.06445 23.2695 1.95508 23.1738 1.95508 22.873L1.95508 13.7812C1.95508 13.4805 2.06445 13.3848 2.35156 13.3848L8.88672 13.3848C8.96875 12.9473 9.1875 12.5234 9.5293 12.1816L10.2949 11.4297L1.09375 11.4297C0.4375 11.4297 0 11.8535 0 12.5098L0 24.1445C0 24.8008 0.4375 25.2246 1.09375 25.2246Z" fill="black" fill-opacity="0.85"/>
  <path d="M10.6504 14.4648C10.9785 14.8203 11.498 14.793 11.8262 14.4648L16.7617 9.61133L17.9785 10.8555C18.4023 11.2793 19.0586 11.0332 19.1953 10.418L20.1387 6.00195C20.2617 5.42773 19.7695 4.96289 19.1953 5.09961L14.793 6.01562C14.1641 6.15234 13.9316 6.76758 14.3691 7.20508L15.5996 8.44922L10.6504 13.3027C10.3359 13.6309 10.3496 14.1367 10.6504 14.4648Z" fill="black" fill-opacity="0.85"/>
 </g>
</svg>
