<?xml version="1.0" encoding="UTF-8"?>
<!--Generator: Apple Native CoreSVG 326-->
<!DOCTYPE svg
PUBLIC "-//W3C//DTD SVG 1.1//EN"
       "http://www.w3.org/Graphics/SVG/1.1/DTD/svg11.dtd">
<svg version="1.1" xmlns="http://www.w3.org/2000/svg" xmlns:xlink="http://www.w3.org/1999/xlink" viewBox="0 0 25.5254 25.1973">
 <g>
  <rect height="25.1973" opacity="0" width="25.5254" x="0" y="0"/>
  <path d="M0 24.0898C0 24.7461 0.4375 25.1699 1.09375 25.1699L24.0898 25.1699C24.7461 25.1699 25.1699 24.7461 25.1699 24.0898L25.1699 1.09375C25.1699 0.4375 24.7461 0 24.0898 0L1.09375 0C0.4375 0 0 0.4375 0 1.09375ZM2.20117 22.5723L2.20117 2.59766C2.20117 2.31055 2.31055 2.20117 2.59766 2.20117L22.5723 2.20117C22.873 2.20117 22.9688 2.31055 22.9688 2.59766L22.9688 22.5723C22.9688 22.873 22.873 22.9688 22.5723 22.9688L2.59766 22.9688C2.31055 22.9688 2.20117 22.873 2.20117 22.5723Z" fill="black" fill-opacity="0.85"/>
  <path d="M5.71484 6.89062C6.38477 6.89062 6.89062 6.38477 6.89062 5.71484C6.89062 5.04492 6.38477 4.53906 5.71484 4.53906C5.04492 4.53906 4.53906 5.04492 4.53906 5.71484C4.53906 6.38477 5.04492 6.89062 5.71484 6.89062ZM9.16016 6.89062C9.83008 6.89062 10.3359 6.38477 10.3359 5.71484C10.3359 5.04492 9.83008 4.53906 9.16016 4.53906C8.49023 4.53906 7.98438 5.04492 7.98438 5.71484C7.98438 6.38477 8.49023 6.89062 9.16016 6.89062ZM12.5918 6.89062C13.2617 6.89062 13.7676 6.38477 13.7676 5.71484C13.7676 5.04492 13.2617 4.53906 12.5918 4.53906C11.9219 4.53906 11.416 5.04492 11.416 5.71484C11.416 6.38477 11.9219 6.89062 12.5918 6.89062ZM16.0371 6.89062C16.707 6.89062 17.2129 6.38477 17.2129 5.71484C17.2129 5.04492 16.707 4.53906 16.0371 4.53906C15.3672 4.53906 14.8613 5.04492 14.8613 5.71484C14.8613 6.38477 15.3672 6.89062 16.0371 6.89062ZM19.4688 6.89062C20.1523 6.89062 20.6582 6.38477 20.6582 5.71484C20.6582 5.04492 20.1523 4.53906 19.4688 4.53906C18.7988 4.53906 18.293 5.04492 18.293 5.71484C18.293 6.38477 18.7988 6.89062 19.4688 6.89062ZM19.4688 10.3223C20.1523 10.3223 20.6582 9.81641 20.6582 9.14648C20.6582 8.47656 20.1523 7.9707 19.4688 7.9707C18.7988 7.9707 18.293 8.47656 18.293 9.14648C18.293 9.81641 18.7988 10.3223 19.4688 10.3223ZM19.4688 13.7676C20.1523 13.7676 20.6582 13.2617 20.6582 12.5918C20.6582 11.9219 20.1523 11.416 19.4688 11.416C18.7988 11.416 18.293 11.9219 18.293 12.5918C18.293 13.2617 18.7988 13.7676 19.4688 13.7676ZM19.4688 17.1992C20.1523 17.1992 20.6582 16.6934 20.6582 16.0234C20.6582 15.3535 20.1523 14.8477 19.4688 14.8477C18.7988 14.8477 18.293 15.3535 18.293 16.0234C18.293 16.6934 18.7988 17.1992 19.4688 17.1992ZM19.4688 20.6445C20.1523 20.6445 20.6582 20.1387 20.6582 19.4688C20.6582 18.7988 20.1523 18.293 19.4688 18.293C18.7988 18.293 18.293 18.7988 18.293 19.4688C18.293 20.1387 18.7988 20.6445 19.4688 20.6445ZM16.0371 20.6445C16.707 20.6445 17.2129 20.1387 17.2129 19.4688C17.2129 18.7988 16.707 18.293 16.0371 18.293C15.3672 18.293 14.8613 18.7988 14.8613 19.4688C14.8613 20.1387 15.3672 20.6445 16.0371 20.6445ZM12.5918 20.6445C13.2617 20.6445 13.7676 20.1387 13.7676 19.4688C13.7676 18.7988 13.2617 18.293 12.5918 18.293C11.9219 18.293 11.416 18.7988 11.416 19.4688C11.416 20.1387 11.9219 20.6445 12.5918 20.6445ZM9.16016 20.6445C9.83008 20.6445 10.3359 20.1387 10.3359 19.4688C10.3359 18.7988 9.83008 18.293 9.16016 18.293C8.49023 18.293 7.98438 18.7988 7.98438 19.4688C7.98438 20.1387 8.49023 20.6445 9.16016 20.6445ZM5.71484 20.6445C6.38477 20.6445 6.89062 20.1387 6.89062 19.4688C6.89062 18.7988 6.38477 18.293 5.71484 18.293C5.04492 18.293 4.53906 18.7988 4.53906 19.4688C4.53906 20.1387 5.04492 20.6445 5.71484 20.6445ZM5.71484 17.1992C6.38477 17.1992 6.89062 16.6934 6.89062 16.0234C6.89062 15.3535 6.38477 14.8477 5.71484 14.8477C5.04492 14.8477 4.53906 15.3535 4.53906 16.0234C4.53906 16.6934 5.04492 17.1992 5.71484 17.1992ZM5.71484 13.7676C6.38477 13.7676 6.89062 13.2617 6.89062 12.5918C6.89062 11.9219 6.38477 11.416 5.71484 11.416C5.04492 11.416 4.53906 11.9219 4.53906 12.5918C4.53906 13.2617 5.04492 13.7676 5.71484 13.7676ZM5.71484 10.3223C6.38477 10.3223 6.89062 9.81641 6.89062 9.14648C6.89062 8.47656 6.38477 7.9707 5.71484 7.9707C5.04492 7.9707 4.53906 8.47656 4.53906 9.14648C4.53906 9.81641 5.04492 10.3223 5.71484 10.3223Z" fill="black" fill-opacity="0.85"/>
 </g>
</svg>
