<?xml version="1.0" encoding="UTF-8"?>
<!--Generator: Apple Native CoreSVG 326-->
<!DOCTYPE svg
PUBLIC "-//W3C//DTD SVG 1.1//EN"
       "http://www.w3.org/Graphics/SVG/1.1/DTD/svg11.dtd">
<svg version="1.1" xmlns="http://www.w3.org/2000/svg" xmlns:xlink="http://www.w3.org/1999/xlink" viewBox="0 0 31.2881 30.9292">
 <g>
  <rect height="30.9292" opacity="0" width="31.2881" x="0" y="0"/>
  <path d="M5.08936 8.83828L5.08936 23.7019C5.08936 25.1238 5.84131 25.8484 7.2085 25.8484L22.1085 25.8484L24.2934 28.0321C24.1233 28.0439 23.9471 28.0496 23.7651 28.0496L7.16748 28.0496C4.32373 28.0496 2.88818 26.6414 2.88818 23.825L2.88818 7.11793C2.88818 6.95819 2.8928 6.80293 2.90344 6.65354ZM28.0581 7.11793L28.0581 23.825C28.0581 23.9844 28.0535 24.1393 28.0429 24.2882L25.8569 22.1023L25.8569 7.24098C25.8569 5.8191 25.0776 5.08082 23.7241 5.08082L8.83545 5.08082L6.65093 2.8963C6.81761 2.8852 6.98979 2.87965 7.16748 2.87965L23.7651 2.87965C26.6226 2.87965 28.0581 4.30152 28.0581 7.11793Z" fill="black" fill-opacity="0.85"/>
  <path d="M27.5386 29.0066C27.9487 29.4168 28.6323 29.4168 29.0288 29.0066C29.439 28.5964 29.439 27.9265 29.0288 27.5164L3.40771 1.90894C2.99756 1.49879 2.31396 1.48512 1.90381 1.90894C1.49365 2.30543 1.49365 2.98902 1.90381 3.39918Z" fill="black" fill-opacity="0.85"/>
 </g>
</svg>
