<?xml version="1.0" encoding="UTF-8"?>
<!--Generator: Apple Native CoreSVG 326-->
<!DOCTYPE svg
PUBLIC "-//W3C//DTD SVG 1.1//EN"
       "http://www.w3.org/Graphics/SVG/1.1/DTD/svg11.dtd">
<svg version="1.1" xmlns="http://www.w3.org/2000/svg" xmlns:xlink="http://www.w3.org/1999/xlink" viewBox="0 0 25.6348 25.2793">
 <g>
  <rect height="25.2793" opacity="0" width="25.6348" x="0" y="0"/>
  <path d="M1.17578 2.35156C1.81836 2.35156 2.35156 1.81836 2.35156 1.17578C2.35156 0.533203 1.81836 0 1.17578 0C0.533203 0 0 0.533203 0 1.17578C0 1.81836 0.533203 2.35156 1.17578 2.35156ZM4.99023 2.35156C5.64648 2.35156 6.16602 1.81836 6.16602 1.17578C6.16602 0.533203 5.64648 0 4.99023 0C4.34766 0 3.81445 0.533203 3.81445 1.17578C3.81445 1.81836 4.34766 2.35156 4.99023 2.35156ZM8.81836 2.35156C9.46094 2.35156 9.99414 1.81836 9.99414 1.17578C9.99414 0.533203 9.46094 0 8.81836 0C8.17578 0 7.64258 0.533203 7.64258 1.17578C7.64258 1.81836 8.17578 2.35156 8.81836 2.35156ZM12.6328 2.35156C13.2754 2.35156 13.8086 1.81836 13.8086 1.17578C13.8086 0.533203 13.2754 0 12.6328 0C11.9902 0 11.457 0.533203 11.457 1.17578C11.457 1.81836 11.9902 2.35156 12.6328 2.35156ZM16.4609 2.35156C17.1035 2.35156 17.6367 1.81836 17.6367 1.17578C17.6367 0.533203 17.1035 0 16.4609 0C15.8184 0 15.2852 0.533203 15.2852 1.17578C15.2852 1.81836 15.8184 2.35156 16.4609 2.35156ZM20.2754 2.35156C20.918 2.35156 21.4512 1.81836 21.4512 1.17578C21.4512 0.533203 20.918 0 20.2754 0C19.6328 0 19.0996 0.533203 19.0996 1.17578C19.0996 1.81836 19.6328 2.35156 20.2754 2.35156ZM24.1035 2.35156C24.7461 2.35156 25.2793 1.81836 25.2793 1.17578C25.2793 0.533203 24.7461 0 24.1035 0C23.4609 0 22.9277 0.533203 22.9277 1.17578C22.9277 1.81836 23.4609 2.35156 24.1035 2.35156ZM24.1035 6.16602C24.7461 6.16602 25.2793 5.63281 25.2793 4.99023C25.2793 4.34766 24.7461 3.81445 24.1035 3.81445C23.4609 3.81445 22.9277 4.34766 22.9277 4.99023C22.9277 5.63281 23.4609 6.16602 24.1035 6.16602ZM24.1035 9.98047C24.7461 9.98047 25.2793 9.46094 25.2793 8.80469C25.2793 8.16211 24.7461 7.62891 24.1035 7.62891C23.4609 7.62891 22.9277 8.16211 22.9277 8.80469C22.9277 9.46094 23.4609 9.98047 24.1035 9.98047ZM24.1035 13.8086C24.7461 13.8086 25.2793 13.2754 25.2793 12.6328C25.2793 11.9902 24.7461 11.457 24.1035 11.457C23.4609 11.457 22.9277 11.9902 22.9277 12.6328C22.9277 13.2754 23.4609 13.8086 24.1035 13.8086ZM24.1035 17.623C24.7461 17.623 25.2793 17.0898 25.2793 16.4473C25.2793 15.8047 24.7461 15.2715 24.1035 15.2715C23.4609 15.2715 22.9277 15.8047 22.9277 16.4473C22.9277 17.0898 23.4609 17.623 24.1035 17.623ZM24.1035 21.4512C24.7461 21.4512 25.2793 20.918 25.2793 20.2754C25.2793 19.6328 24.7461 19.0996 24.1035 19.0996C23.4609 19.0996 22.9277 19.6328 22.9277 20.2754C22.9277 20.918 23.4609 21.4512 24.1035 21.4512ZM24.1035 25.2656C24.7461 25.2656 25.2793 24.7324 25.2793 24.0898C25.2793 23.4473 24.7461 22.9141 24.1035 22.9141C23.4609 22.9141 22.9277 23.4473 22.9277 24.0898C22.9277 24.7324 23.4609 25.2656 24.1035 25.2656ZM20.2754 25.2656C20.918 25.2656 21.4512 24.7324 21.4512 24.0898C21.4512 23.4473 20.918 22.9141 20.2754 22.9141C19.6328 22.9141 19.0996 23.4473 19.0996 24.0898C19.0996 24.7324 19.6328 25.2656 20.2754 25.2656ZM16.4609 25.2656C17.1035 25.2656 17.6367 24.7324 17.6367 24.0898C17.6367 23.4473 17.1035 22.9141 16.4609 22.9141C15.8184 22.9141 15.2852 23.4473 15.2852 24.0898C15.2852 24.7324 15.8184 25.2656 16.4609 25.2656ZM12.6328 25.2656C13.2754 25.2656 13.8086 24.7324 13.8086 24.0898C13.8086 23.4473 13.2754 22.9141 12.6328 22.9141C11.9902 22.9141 11.457 23.4473 11.457 24.0898C11.457 24.7324 11.9902 25.2656 12.6328 25.2656ZM8.81836 25.2656C9.46094 25.2656 9.99414 24.7324 9.99414 24.0898C9.99414 23.4473 9.46094 22.9141 8.81836 22.9141C8.17578 22.9141 7.64258 23.4473 7.64258 24.0898C7.64258 24.7324 8.17578 25.2656 8.81836 25.2656ZM4.99023 25.2656C5.64648 25.2656 6.16602 24.7324 6.16602 24.0898C6.16602 23.4473 5.64648 22.9141 4.99023 22.9141C4.34766 22.9141 3.81445 23.4473 3.81445 24.0898C3.81445 24.7324 4.34766 25.2656 4.99023 25.2656ZM1.17578 25.2656C1.81836 25.2656 2.35156 24.7324 2.35156 24.0898C2.35156 23.4473 1.81836 22.9141 1.17578 22.9141C0.533203 22.9141 0 23.4473 0 24.0898C0 24.7324 0.533203 25.2656 1.17578 25.2656ZM1.17578 21.4512C1.81836 21.4512 2.35156 20.918 2.35156 20.2754C2.35156 19.6328 1.81836 19.0996 1.17578 19.0996C0.533203 19.0996 0 19.6328 0 20.2754C0 20.918 0.533203 21.4512 1.17578 21.4512ZM1.17578 17.623C1.81836 17.623 2.35156 17.0898 2.35156 16.4473C2.35156 15.8047 1.81836 15.2715 1.17578 15.2715C0.533203 15.2715 0 15.8047 0 16.4473C0 17.0898 0.533203 17.623 1.17578 17.623ZM1.17578 13.8086C1.81836 13.8086 2.35156 13.2754 2.35156 12.6328C2.35156 11.9902 1.81836 11.457 1.17578 11.457C0.533203 11.457 0 11.9902 0 12.6328C0 13.2754 0.533203 13.8086 1.17578 13.8086ZM1.17578 9.98047C1.81836 9.98047 2.35156 9.46094 2.35156 8.80469C2.35156 8.16211 1.81836 7.62891 1.17578 7.62891C0.533203 7.62891 0 8.16211 0 8.80469C0 9.46094 0.533203 9.98047 1.17578 9.98047ZM1.17578 6.16602C1.81836 6.16602 2.35156 5.63281 2.35156 4.99023C2.35156 4.34766 1.81836 3.81445 1.17578 3.81445C0.533203 3.81445 0 4.34766 0 4.99023C0 5.63281 0.533203 6.16602 1.17578 6.16602ZM12.6328 6.16602C13.2754 6.16602 13.8086 5.63281 13.8086 4.99023C13.8086 4.34766 13.2754 3.81445 12.6328 3.81445C11.9902 3.81445 11.457 4.34766 11.457 4.99023C11.457 5.63281 11.9902 6.16602 12.6328 6.16602ZM12.6328 9.98047C13.2754 9.98047 13.8086 9.46094 13.8086 8.80469C13.8086 8.16211 13.2754 7.62891 12.6328 7.62891C11.9902 7.62891 11.457 8.16211 11.457 8.80469C11.457 9.46094 11.9902 9.98047 12.6328 9.98047ZM12.6328 13.8086C13.2754 13.8086 13.8086 13.2754 13.8086 12.6328C13.8086 11.9902 13.2754 11.457 12.6328 11.457C11.9902 11.457 11.457 11.9902 11.457 12.6328C11.457 13.2754 11.9902 13.8086 12.6328 13.8086ZM12.6328 17.623C13.2754 17.623 13.8086 17.0898 13.8086 16.4473C13.8086 15.8047 13.2754 15.2715 12.6328 15.2715C11.9902 15.2715 11.457 15.8047 11.457 16.4473C11.457 17.0898 11.9902 17.623 12.6328 17.623ZM12.6328 21.4512C13.2754 21.4512 13.8086 20.918 13.8086 20.2754C13.8086 19.6328 13.2754 19.0996 12.6328 19.0996C11.9902 19.0996 11.457 19.6328 11.457 20.2754C11.457 20.918 11.9902 21.4512 12.6328 21.4512ZM4.99023 13.8086C5.64648 13.8086 6.16602 13.2754 6.16602 12.6328C6.16602 11.9902 5.64648 11.457 4.99023 11.457C4.34766 11.457 3.81445 11.9902 3.81445 12.6328C3.81445 13.2754 4.34766 13.8086 4.99023 13.8086ZM8.81836 13.8086C9.46094 13.8086 9.99414 13.2754 9.99414 12.6328C9.99414 11.9902 9.46094 11.457 8.81836 11.457C8.17578 11.457 7.64258 11.9902 7.64258 12.6328C7.64258 13.2754 8.17578 13.8086 8.81836 13.8086ZM16.4609 13.8086C17.1035 13.8086 17.6367 13.2754 17.6367 12.6328C17.6367 11.9902 17.1035 11.457 16.4609 11.457C15.8184 11.457 15.2852 11.9902 15.2852 12.6328C15.2852 13.2754 15.8184 13.8086 16.4609 13.8086ZM20.2754 13.8086C20.918 13.8086 21.4512 13.2754 21.4512 12.6328C21.4512 11.9902 20.918 11.457 20.2754 11.457C19.6328 11.457 19.0996 11.9902 19.0996 12.6328C19.0996 13.2754 19.6328 13.8086 20.2754 13.8086Z" fill="black" fill-opacity="0.85"/>
 </g>
</svg>
