<?xml version="1.0" encoding="UTF-8"?>
<!--Generator: Apple Native CoreSVG 326-->
<!DOCTYPE svg
PUBLIC "-//W3C//DTD SVG 1.1//EN"
       "http://www.w3.org/Graphics/SVG/1.1/DTD/svg11.dtd">
<svg version="1.1" xmlns="http://www.w3.org/2000/svg" xmlns:xlink="http://www.w3.org/1999/xlink" viewBox="0 0 35.1777 36.3535">
 <g>
  <rect height="36.3535" opacity="0" width="35.1777" x="0" y="0"/>
  <path d="M32.9492 18.6211L32.9492 32.1152C32.9492 34.9316 31.5273 36.3535 28.6699 36.3535L12.9883 36.3535C10.1309 36.3535 8.69531 34.9453 8.69531 32.1152L8.69531 31.8828L21.834 31.8828C25.7305 31.8828 27.9863 29.627 27.9863 25.7715L27.9863 14.3828L28.6699 14.3828C31.5273 14.3828 32.9492 15.8047 32.9492 18.6211Z" fill="black" fill-opacity="0.85"/>
  <path d="M6.15234 30.0098L21.834 30.0098C24.7051 30.0098 26.127 28.5879 26.127 25.7715L26.127 12.2773C26.127 9.46094 24.7051 8.03906 21.834 8.03906L6.15234 8.03906C3.30859 8.03906 1.85938 9.44727 1.85938 12.2773L1.85938 25.7715C1.85938 28.6016 3.30859 30.0098 6.15234 30.0098ZM14 0.765625C14.5879 0.765625 15.0801 1.24414 15.0801 1.81836L15.0801 15.7227L14.998 17.7734L15.7637 16.9668L17.8828 14.7109C18.0742 14.4922 18.3613 14.3828 18.6211 14.3828C19.1816 14.3828 19.6191 14.793 19.6191 15.3398C19.6191 15.6406 19.4961 15.8594 19.291 16.0645L14.793 20.4121C14.5195 20.6855 14.2734 20.7676 14 20.7676C13.7129 20.7676 13.4805 20.6855 13.207 20.4121L8.69531 16.0645C8.49023 15.8594 8.38086 15.6406 8.38086 15.3398C8.38086 14.793 8.79102 14.3828 9.35156 14.3828C9.625 14.3828 9.92578 14.4922 10.1172 14.7109L12.2227 16.9668L13.002 17.7734L12.9062 15.7227L12.9062 1.81836C12.9062 1.24414 13.4121 0.765625 14 0.765625Z" fill="black" fill-opacity="0.85"/>
 </g>
</svg>
