<?xml version="1.0" encoding="UTF-8"?>
<!--Generator: Apple Native CoreSVG 326-->
<!DOCTYPE svg
PUBLIC "-//W3C//DTD SVG 1.1//EN"
       "http://www.w3.org/Graphics/SVG/1.1/DTD/svg11.dtd">
<svg version="1.1" xmlns="http://www.w3.org/2000/svg" xmlns:xlink="http://www.w3.org/1999/xlink" viewBox="0 0 39.252 25.1973">
 <g>
  <rect height="25.1973" opacity="0" width="39.252" x="0" y="0"/>
  <path d="M30.0508 25.1973L36.2852 25.1973C38.0215 25.1973 38.8965 24.3359 38.8965 22.5312L38.8965 16.4062C38.8965 14.6152 38.0215 13.7402 36.2852 13.7402L30.0508 13.7402C28.3145 13.7402 27.4395 14.6152 27.4395 16.4062L27.4395 22.5312C27.4395 24.3359 28.3145 25.1973 30.0508 25.1973Z" fill="black" fill-opacity="0.85"/>
  <path d="M16.3379 25.1973L22.5586 25.1973C24.2949 25.1973 25.1699 24.3359 25.1699 22.5312L25.1699 16.4062C25.1699 14.6152 24.2949 13.7402 22.5586 13.7402L16.3379 13.7402C14.5879 13.7402 13.7129 14.6152 13.7129 16.4062L13.7129 22.5312C13.7129 24.3359 14.5879 25.1973 16.3379 25.1973Z" fill="black" fill-opacity="0.85"/>
  <path d="M2.61133 25.1973L8.8457 25.1973C10.582 25.1973 11.457 24.3359 11.457 22.5312L11.457 16.4062C11.457 14.6152 10.582 13.7402 8.8457 13.7402L2.61133 13.7402C0.875 13.7402 0 14.6152 0 16.4062L0 22.5312C0 24.3359 0.875 25.1973 2.61133 25.1973Z" fill="black" fill-opacity="0.85"/>
  <path d="M30.0508 11.4844L36.2852 11.4844C38.0215 11.4844 38.8965 10.6094 38.8965 8.80469L38.8965 2.69336C38.8965 0.888672 38.0215 0.0273438 36.2852 0.0273438L30.0508 0.0273438C28.3145 0.0273438 27.4395 0.888672 27.4395 2.69336L27.4395 8.80469C27.4395 10.6094 28.3145 11.4844 30.0508 11.4844Z" fill="black" fill-opacity="0.85"/>
  <path d="M16.3379 11.4844L22.5586 11.4844C24.2949 11.4844 25.1699 10.6094 25.1699 8.80469L25.1699 2.69336C25.1699 0.888672 24.2949 0.0273438 22.5586 0.0273438L16.3379 0.0273438C14.5879 0.0273438 13.7129 0.888672 13.7129 2.69336L13.7129 8.80469C13.7129 10.6094 14.5879 11.4844 16.3379 11.4844Z" fill="black" fill-opacity="0.85"/>
  <path d="M2.61133 11.4844L8.8457 11.4844C10.582 11.4844 11.457 10.6094 11.457 8.80469L11.457 2.69336C11.457 0.888672 10.582 0.0273438 8.8457 0.0273438L2.61133 0.0273438C0.875 0.0273438 0 0.888672 0 2.69336L0 8.80469C0 10.6094 0.875 11.4844 2.61133 11.4844Z" fill="black" fill-opacity="0.85"/>
 </g>
</svg>
