<?xml version="1.0" encoding="UTF-8"?>
<!--Generator: Apple Native CoreSVG 326-->
<!DOCTYPE svg
PUBLIC "-//W3C//DTD SVG 1.1//EN"
       "http://www.w3.org/Graphics/SVG/1.1/DTD/svg11.dtd">
<svg version="1.1" xmlns="http://www.w3.org/2000/svg" xmlns:xlink="http://www.w3.org/1999/xlink" viewBox="0 0 28.2461 27.9043">
 <g>
  <rect height="27.9043" opacity="0" width="28.2461" x="0" y="0"/>
  <path d="M13.9453 27.8906C21.6426 27.8906 27.8906 21.6426 27.8906 13.9453C27.8906 6.24805 21.6426 0 13.9453 0C6.24805 0 0 6.24805 0 13.9453C0 21.6426 6.24805 27.8906 13.9453 27.8906ZM13.9453 25.5664C7.51953 25.5664 2.32422 20.3711 2.32422 13.9453C2.32422 7.51953 7.51953 2.32422 13.9453 2.32422C20.3711 2.32422 25.5664 7.51953 25.5664 13.9453C25.5664 20.3711 20.3711 25.5664 13.9453 25.5664Z" fill="black" fill-opacity="0.85"/>
  <path d="M9.76172 20.4531L17.8691 20.4531C19.1816 20.4531 19.9746 19.6738 19.9746 18.1699L19.9746 11.0469L18.5664 12.4688L18.5664 18.1016C18.5664 18.7305 18.252 19.0312 17.8555 19.0312L9.77539 19.0312C9.1875 19.0312 8.87305 18.7305 8.87305 18.1016L8.87305 10.2676C8.87305 9.63867 9.1875 9.32422 9.77539 9.32422L15.5039 9.32422L16.9258 7.90234L9.76172 7.90234C8.24414 7.90234 7.45117 8.70898 7.45117 10.2129L7.45117 18.1699C7.45117 19.6738 8.24414 20.4531 9.76172 20.4531ZM12.3457 15.9551L13.7266 15.3809L20.002 9.10547L18.8125 7.94336L12.5508 14.2188L11.9219 15.5176C11.7988 15.791 12.0859 16.0508 12.3457 15.9551ZM20.5898 8.51758L21.1641 7.875C21.4648 7.56055 21.4512 7.15039 21.1914 6.87695L21.0137 6.72656C20.7402 6.43945 20.3027 6.4668 20.002 6.75391L19.4141 7.32812Z" fill="black" fill-opacity="0.85"/>
 </g>
</svg>
