<?xml version="1.0" encoding="UTF-8"?>
<!--Generator: Apple Native CoreSVG 326-->
<!DOCTYPE svg
PUBLIC "-//W3C//DTD SVG 1.1//EN"
       "http://www.w3.org/Graphics/SVG/1.1/DTD/svg11.dtd">
<svg version="1.1" xmlns="http://www.w3.org/2000/svg" xmlns:xlink="http://www.w3.org/1999/xlink" viewBox="0 0 25.5938 25.334">
 <g>
  <rect height="25.334" opacity="0" width="25.5938" x="0" y="0"/>
  <path d="M4.96289 2.35156C5.60547 2.35156 6.13867 1.81836 6.13867 1.17578C6.13867 0.533203 5.60547 0 4.96289 0C4.32031 0 3.78711 0.533203 3.78711 1.17578C3.78711 1.81836 4.32031 2.35156 4.96289 2.35156ZM8.77734 2.35156C9.41992 2.35156 9.95312 1.81836 9.95312 1.17578C9.95312 0.533203 9.41992 0 8.77734 0C8.13477 0 7.60156 0.533203 7.60156 1.17578C7.60156 1.81836 8.13477 2.35156 8.77734 2.35156ZM12.6055 2.35156C13.248 2.35156 13.7812 1.81836 13.7812 1.17578C13.7812 0.533203 13.248 0 12.6055 0C11.9629 0 11.4297 0.533203 11.4297 1.17578C11.4297 1.81836 11.9629 2.35156 12.6055 2.35156ZM16.4199 2.35156C17.0625 2.35156 17.5957 1.81836 17.5957 1.17578C17.5957 0.533203 17.0625 0 16.4199 0C15.7773 0 15.2441 0.533203 15.2441 1.17578C15.2441 1.81836 15.7773 2.35156 16.4199 2.35156ZM20.248 2.35156C20.8906 2.35156 21.4238 1.81836 21.4238 1.17578C21.4238 0.533203 20.8906 0 20.248 0C19.6055 0 19.0723 0.533203 19.0723 1.17578C19.0723 1.81836 19.6055 2.35156 20.248 2.35156ZM24.0625 2.35156C24.7051 2.35156 25.2383 1.81836 25.2383 1.17578C25.2383 0.533203 24.7051 0 24.0625 0C23.4199 0 22.8867 0.533203 22.8867 1.17578C22.8867 1.81836 23.4199 2.35156 24.0625 2.35156ZM24.0625 6.16602C24.7051 6.16602 25.2383 5.63281 25.2383 4.99023C25.2383 4.34766 24.7051 3.81445 24.0625 3.81445C23.4199 3.81445 22.8867 4.34766 22.8867 4.99023C22.8867 5.63281 23.4199 6.16602 24.0625 6.16602ZM24.0625 9.99414C24.7051 9.99414 25.2383 9.46094 25.2383 8.81836C25.2383 8.17578 24.7051 7.64258 24.0625 7.64258C23.4199 7.64258 22.8867 8.17578 22.8867 8.81836C22.8867 9.46094 23.4199 9.99414 24.0625 9.99414ZM24.0625 13.8086C24.7051 13.8086 25.2383 13.2754 25.2383 12.6328C25.2383 11.9902 24.7051 11.457 24.0625 11.457C23.4199 11.457 22.8867 11.9902 22.8867 12.6328C22.8867 13.2754 23.4199 13.8086 24.0625 13.8086ZM24.0625 17.6367C24.7051 17.6367 25.2383 17.1035 25.2383 16.4609C25.2383 15.8184 24.7051 15.2852 24.0625 15.2852C23.4199 15.2852 22.8867 15.8184 22.8867 16.4609C22.8867 17.1035 23.4199 17.6367 24.0625 17.6367ZM24.0625 21.4512C24.7051 21.4512 25.2383 20.918 25.2383 20.2754C25.2383 19.6328 24.7051 19.0996 24.0625 19.0996C23.4199 19.0996 22.8867 19.6328 22.8867 20.2754C22.8867 20.918 23.4199 21.4512 24.0625 21.4512ZM1.09375 25.2656L24.1445 25.2656C24.7598 25.2656 25.2383 24.7871 25.2383 24.1719C25.2383 23.5566 24.7598 23.0781 24.1445 23.0781L2.58398 23.0781C2.29688 23.0781 2.1875 22.9688 2.1875 22.6816L2.1875 1.08008C2.1875 0.478516 1.70898 0 1.08008 0C0.478516 0 0 0.478516 0 1.08008L0 24.1719C0 24.8281 0.4375 25.2656 1.09375 25.2656Z" fill="black" fill-opacity="0.85"/>
  <path d="M5.1543 19.127C5.01758 19.7148 5.49609 20.1523 6.08398 20.0293L10.4863 19.0996C11.1152 18.9766 11.3477 18.3477 10.9238 17.9238L9.67969 16.6797L16.7207 9.73438L17.9375 10.9785C18.375 11.4023 19.0312 11.1699 19.1543 10.541L20.0977 6.125C20.2344 5.55078 19.7422 5.09961 19.1543 5.22266L14.7656 6.15234C14.123 6.27539 13.9043 6.9043 14.3281 7.32812L15.5723 8.57227L8.51758 15.5176L7.31445 14.2734C6.87695 13.8496 6.2207 14.0957 6.09766 14.7109Z" fill="black" fill-opacity="0.85"/>
 </g>
</svg>
