<?xml version="1.0" encoding="UTF-8"?>
<!--Generator: Apple Native CoreSVG 326-->
<!DOCTYPE svg
PUBLIC "-//W3C//DTD SVG 1.1//EN"
       "http://www.w3.org/Graphics/SVG/1.1/DTD/svg11.dtd">
<svg version="1.1" xmlns="http://www.w3.org/2000/svg" xmlns:xlink="http://www.w3.org/1999/xlink" viewBox="0 0 31.4453 40.291">
 <g>
  <rect height="40.291" opacity="0" width="31.4453" x="0" y="0"/>
  <path d="M31.0898 20.5898L31.0898 34.084C31.0898 36.9004 29.6543 38.3223 26.7969 38.3223L11.1152 38.3223C8.25781 38.3223 6.82227 36.9141 6.82227 34.084L6.82227 31.9648L9.02344 31.9648L9.02344 33.9746C9.02344 35.3965 9.77539 36.1211 11.1426 36.1211L26.7559 36.1211C28.1094 36.1211 28.8887 35.3965 28.8887 33.9746L28.8887 20.6992C28.8887 19.2773 28.1094 18.5527 26.7559 18.5527L24.2676 18.5527L24.2676 16.3516L26.7969 16.3516C29.6543 16.3516 31.0898 17.7734 31.0898 20.5898Z" fill="black" fill-opacity="0.85"/>
  <path d="M24.2676 14.2324L24.2676 27.7266C24.2676 30.543 22.832 31.9648 19.9746 31.9648L4.29297 31.9648C1.43555 31.9648 0 30.5566 0 27.7266L0 14.2324C0 11.4023 1.44922 9.99414 4.29297 9.99414L8.47656 9.99414L8.47656 12.1953L4.33398 12.1953C2.9668 12.1953 2.20117 12.9199 2.20117 14.3418L2.20117 27.6172C2.20117 29.0391 2.95312 29.7637 4.32031 29.7637L19.9336 29.7637C21.2871 29.7637 22.0664 29.0391 22.0664 27.6172L22.0664 14.3418C22.0664 12.9199 21.2871 12.1953 19.9336 12.1953L15.7773 12.1953L15.7773 9.99414L19.9746 9.99414C22.832 9.99414 24.2676 11.416 24.2676 14.2324Z" fill="black" fill-opacity="0.85"/>
  <path d="M12.1406 2.7207C11.5527 2.7207 11.0469 3.19922 11.0469 3.77344L11.0469 17.6777L11.1289 19.7285L10.3633 18.9219L8.24414 16.666C8.05273 16.4473 7.76562 16.3379 7.49219 16.3379C6.91797 16.3379 6.50781 16.748 6.50781 17.2949C6.50781 17.5957 6.63086 17.8145 6.83594 18.0195L11.3477 22.3672C11.6211 22.6406 11.8535 22.7227 12.1406 22.7227C12.4141 22.7227 12.6465 22.6406 12.9199 22.3672L17.4316 18.0195C17.6367 17.8145 17.7598 17.5957 17.7598 17.2949C17.7598 16.748 17.3223 16.3379 16.7617 16.3379C16.4883 16.3379 16.2148 16.4473 16.0234 16.666L13.9043 18.9219L13.1387 19.7285L13.2207 17.6777L13.2207 3.77344C13.2207 3.19922 12.7285 2.7207 12.1406 2.7207Z" fill="black" fill-opacity="0.85"/>
 </g>
</svg>
