<?xml version="1.0" encoding="UTF-8"?>
<!--Generator: Apple Native CoreSVG 326-->
<!DOCTYPE svg
PUBLIC "-//W3C//DTD SVG 1.1//EN"
       "http://www.w3.org/Graphics/SVG/1.1/DTD/svg11.dtd">
<svg version="1.1" xmlns="http://www.w3.org/2000/svg" xmlns:xlink="http://www.w3.org/1999/xlink" viewBox="0 0 27.3301 31.1906">
 <g>
  <rect height="31.1906" opacity="0" width="27.3301" x="0" y="0"/>
  <path d="M14.3418 0.344308L25.293 6.67439C26.5098 7.38532 26.9746 8.19196 26.9746 9.61384L26.9746 22.0006C26.9746 24.2974 25.6074 25.0357 23.6797 23.9283L21.5195 22.6813L21.5195 20.04L24.541 21.7818C24.6641 21.8502 24.7461 21.8092 24.7461 21.6724L24.7461 9.69587C24.7461 9.10798 24.582 8.91657 24.1445 8.65681L13.7266 2.64118C13.5898 2.55915 13.4941 2.62751 13.4941 2.76423L13.4941 6.15998L11.2656 4.87461L11.2656 2.01228C11.2656 0.0708702 12.9883-0.421317 14.3418 0.344308Z" fill="black" fill-opacity="0.85"/>
  <path d="M8.88672 3.50251L19.8379 9.81892C21.0684 10.5435 21.5195 11.3502 21.5195 12.7584L21.5195 25.1588C21.5195 27.442 20.1523 28.1802 18.2246 27.0865L15.709 25.6292L15.709 22.9796L19.0859 24.9263C19.209 24.9947 19.291 24.9537 19.291 24.817L19.291 12.8404C19.291 12.2525 19.127 12.0611 18.6895 11.8013L8.27148 5.78571C8.14844 5.70368 8.03906 5.78571 8.03906 5.90876L8.03906 9.78917L5.81055 8.50102L5.81055 5.15681C5.81055 3.22907 7.5332 2.72321 8.88672 3.50251Z" fill="black" fill-opacity="0.85"/>
  <path d="M15.709 16.1763C15.709 14.7681 15.2441 13.9615 14.0273 13.2506L3.07617 6.92048C1.72266 6.15485 0 6.64704 0 8.57478L0 21.317C0 22.7662 0.369141 23.5455 1.70898 24.3111L12.4141 30.5045C14.3418 31.6119 15.709 30.8599 15.709 28.5767ZM12.8789 15.2193C13.3164 15.4791 13.4805 15.6705 13.4805 16.2584L13.4805 28.2349C13.4805 28.3717 13.3984 28.4263 13.2754 28.358L2.81641 22.315C2.35156 22.0416 2.22852 21.8228 2.22852 21.2759L2.22852 9.32673C2.22852 9.20368 2.32422 9.13532 2.46094 9.20368Z" fill="black" fill-opacity="0.85"/>
 </g>
</svg>
