<?xml version="1.0" encoding="UTF-8"?>
<!--Generator: Apple Native CoreSVG 326-->
<!DOCTYPE svg
PUBLIC "-//W3C//DTD SVG 1.1//EN"
       "http://www.w3.org/Graphics/SVG/1.1/DTD/svg11.dtd">
<svg version="1.1" xmlns="http://www.w3.org/2000/svg" xmlns:xlink="http://www.w3.org/1999/xlink" viewBox="0 0 26.6875 26.373">
 <g>
  <rect height="26.373" opacity="0" width="26.6875" x="0" y="0"/>
  <path d="M1.09375 26.3457C1.70898 26.3457 2.20117 25.8398 2.20117 25.2383L2.20117 20.6309L6.98633 20.6309C7.76562 20.6309 8.33984 20.0566 8.33984 19.2773L8.33984 14.4922L13.125 14.4922C13.9043 14.4922 14.4922 13.918 14.4922 13.1387L14.4922 8.35352L19.2637 8.35352C20.0566 8.35352 20.6309 7.7793 20.6309 7L20.6309 2.20117L25.2246 2.20117C25.8398 2.20117 26.332 1.70898 26.332 1.10742C26.332 0.505859 25.8398 0 25.2246 0L19.7832 0C19.0039 0 18.4297 0.587891 18.4297 1.36719L18.4297 6.15234L13.6445 6.15234C12.8652 6.15234 12.291 6.72656 12.291 7.50586L12.291 12.291L7.49219 12.291C6.71289 12.291 6.13867 12.8652 6.13867 13.6582L6.13867 18.4297L1.35352 18.4297C0.574219 18.4297 0 19.0176 0 19.7969L0 25.2383C0 25.8398 0.492188 26.3457 1.09375 26.3457Z" fill="black" fill-opacity="0.85"/>
 </g>
</svg>
