<?xml version="1.0" encoding="UTF-8"?>
<!--Generator: Apple Native CoreSVG 326-->
<!DOCTYPE svg
PUBLIC "-//W3C//DTD SVG 1.1//EN"
       "http://www.w3.org/Graphics/SVG/1.1/DTD/svg11.dtd">
<svg version="1.1" xmlns="http://www.w3.org/2000/svg" xmlns:xlink="http://www.w3.org/1999/xlink" viewBox="0 0 28.2461 27.9043">
 <g>
  <rect height="27.9043" opacity="0" width="28.2461" x="0" y="0"/>
  <path d="M13.9453 27.8906C21.6426 27.8906 27.8906 21.6426 27.8906 13.9453C27.8906 6.24805 21.6426 0 13.9453 0C6.24805 0 0 6.24805 0 13.9453C0 21.6426 6.24805 27.8906 13.9453 27.8906ZM13.9453 25.5664C7.51953 25.5664 2.32422 20.3711 2.32422 13.9453C2.32422 7.51953 7.51953 2.32422 13.9453 2.32422C20.3711 2.32422 25.5664 7.51953 25.5664 13.9453C25.5664 20.3711 20.3711 25.5664 13.9453 25.5664Z" fill="black" fill-opacity="0.85"/>
  <path d="M7.58789 10.3496C7.15039 11.1836 7.27344 11.5938 8.03906 12.0176L11.4844 13.877L8.02539 15.8867C7.24609 16.3379 7.13672 16.748 7.60156 17.5684L7.62891 17.623C8.09375 18.457 8.51758 18.5664 9.29688 18.0879L12.6191 16.1738L12.6191 20.0156C12.6191 20.9453 12.9336 21.2461 13.9043 21.2461L13.9863 21.2461C14.9297 21.2461 15.2441 20.9453 15.2441 20.0156L15.2441 16.1738L18.5664 18.0879C19.3867 18.5938 19.7969 18.4707 20.2344 17.623L20.2617 17.5684C20.6855 16.7344 20.5898 16.3242 19.8379 15.8867L16.3789 13.877L19.8242 12.0176C20.6035 11.5938 20.7129 11.1836 20.2754 10.3496L20.2344 10.2539C19.8105 9.40625 19.3867 9.2832 18.5391 9.78906L15.2441 11.7031L15.2441 7.86133C15.2441 6.95898 14.9297 6.6582 13.9863 6.6582L13.9043 6.6582C12.9336 6.6582 12.6191 6.95898 12.6191 7.86133L12.6191 11.7031L9.32422 9.78906C8.47656 9.29688 8.05273 9.40625 7.62891 10.2539Z" fill="black" fill-opacity="0.85"/>
 </g>
</svg>
