<?xml version="1.0" encoding="UTF-8"?>
<!--Generator: Apple Native CoreSVG 326-->
<!DOCTYPE svg
PUBLIC "-//W3C//DTD SVG 1.1//EN"
       "http://www.w3.org/Graphics/SVG/1.1/DTD/svg11.dtd">
<svg version="1.1" xmlns="http://www.w3.org/2000/svg" xmlns:xlink="http://www.w3.org/1999/xlink" viewBox="0 0 26.4688 28.6426">
 <g>
  <rect height="28.6426" opacity="0" width="26.4688" x="0" y="0"/>
  <path d="M12.9473 28.6426L13.125 28.6426C15.0254 28.6426 15.75 28.041 15.75 26.1543L15.75 16.9395L13.9727 17.9102L21.9844 22.5449C22.5859 22.8594 23.0645 23.0645 23.502 23.0645C24.2539 23.0645 24.7734 22.5449 25.4023 21.6016L25.498 21.4512C25.9082 20.8359 26.1133 20.2754 26.1133 19.8105C26.1133 19.0449 25.5801 18.4707 24.6367 17.9512L16.4746 13.2344L16.4746 15.1895L24.623 10.6914C25.5801 10.1855 26.0723 9.625 26.0723 8.85938C26.0723 8.39453 25.8672 7.86133 25.5254 7.24609L25.4297 7.06836C24.8145 6.07031 24.2539 5.56445 23.5156 5.56445C23.0781 5.56445 22.5723 5.76953 21.9707 6.08398L13.9863 10.7188L15.75 11.6895L15.75 2.48828C15.75 0.601562 15.0254 0 13.125 0L12.9473 0C11.0469 0 10.3223 0.601562 10.3223 2.48828L10.3223 11.6895L12.127 10.7188L4.11523 6.08398C3.51367 5.74219 2.95312 5.52344 2.48828 5.52344C1.73633 5.52344 1.12109 6.04297 0.642578 7.0957L0.560547 7.24609C0.259766 7.875 0.0683594 8.42188 0.0683594 8.88672C0.0683594 9.61133 0.519531 10.1719 1.47656 10.7051L9.63867 15.1895L9.63867 13.2344L1.46289 17.9512C0.519531 18.4707 0 19.0312 0 19.7832C0 20.248 0.21875 20.8086 0.574219 21.4375L0.65625 21.5605C1.23047 22.5586 1.77734 23.0781 2.55664 23.0781C2.99414 23.0781 3.51367 22.8594 4.10156 22.5449L12.127 17.9102L10.3223 16.9395L10.3223 26.1543C10.3223 28.041 11.0469 28.6426 12.9473 28.6426Z" fill="black" fill-opacity="0.85"/>
 </g>
</svg>
