<?xml version="1.0" encoding="UTF-8"?>
<!--Generator: Apple Native CoreSVG 326-->
<!DOCTYPE svg
PUBLIC "-//W3C//DTD SVG 1.1//EN"
       "http://www.w3.org/Graphics/SVG/1.1/DTD/svg11.dtd">
<svg version="1.1" xmlns="http://www.w3.org/2000/svg" xmlns:xlink="http://www.w3.org/1999/xlink" viewBox="0 0 32.3066 32.3887">
 <g>
  <rect height="32.3887" opacity="0" width="32.3066" x="0" y="0"/>
  <path d="M23.8164 6.125L23.8164 6.35742L12.4277 6.35742C8.54492 6.35742 6.27539 8.58594 6.27539 12.4551L6.27539 24.1992L5.79688 24.1992C2.93945 24.1992 1.50391 22.7773 1.50391 19.9609L1.50391 6.125C1.50391 3.30859 2.93945 1.88672 5.79688 1.88672L19.5234 1.88672C22.3672 1.88672 23.8164 3.30859 23.8164 6.125Z" fill="black" fill-opacity="0.85"/>
  <path d="M30.4473 12.4551L30.4473 26.291C30.4473 29.1074 28.998 30.5293 26.1543 30.5293L12.4277 30.5293C9.57031 30.5293 8.13477 29.1074 8.13477 26.291L8.13477 12.4551C8.13477 9.625 9.57031 8.2168 12.4277 8.2168L26.1543 8.2168C28.998 8.2168 30.4473 9.63867 30.4473 12.4551ZM18.6211 13.0703L17.377 16.9531L13.3164 16.9258C12.4688 16.9121 12.2637 17.8008 12.8926 18.252L16.2012 20.6172L14.9023 24.4863C14.6426 25.2656 15.3535 25.7852 16.0234 25.2793L19.291 22.8867L22.5723 25.2793C23.2422 25.7852 23.9531 25.2656 23.6934 24.4863L22.3945 20.6172L25.7031 18.252C26.3184 17.8145 26.127 16.9121 25.2793 16.9258L21.2051 16.9531L19.9746 13.0703C19.7285 12.3047 18.8672 12.3047 18.6211 13.0703Z" fill="black" fill-opacity="0.85"/>
 </g>
</svg>
