<?xml version="1.0" encoding="UTF-8"?>
<!--Generator: Apple Native CoreSVG 326-->
<!DOCTYPE svg
PUBLIC "-//W3C//DTD SVG 1.1//EN"
       "http://www.w3.org/Graphics/SVG/1.1/DTD/svg11.dtd">
<svg version="1.1" xmlns="http://www.w3.org/2000/svg" xmlns:xlink="http://www.w3.org/1999/xlink" viewBox="0 0 40.7422 27.9043">
 <g>
  <rect height="27.9043" opacity="0" width="40.7422" x="0" y="0"/>
  <path d="M13.9453 27.8906C21.6426 27.8906 27.8906 21.6426 27.8906 13.9453C27.8906 6.24805 21.6426 0 13.9453 0C6.24805 0 0 6.24805 0 13.9453C0 21.6426 6.24805 27.8906 13.9453 27.8906ZM4.32031 7.50586C6.33008 4.38867 9.87109 2.32422 13.918 2.32422C17.9512 2.32422 21.4922 4.38867 23.5156 7.49219C24.0625 8.27148 23.8027 9.14648 22.873 9.14648L4.96289 9.14648C4.04688 9.14648 3.77344 8.27148 4.32031 7.50586ZM13.918 17.6641C12.2363 17.6641 10.8828 16.3105 10.8828 14.6152C10.8828 12.9473 12.2363 11.5938 13.918 11.5938C15.5996 11.5938 16.9531 12.9473 16.9531 14.6152C16.9531 16.3105 15.5996 17.6641 13.918 17.6641ZM2.7207 16.9941C2.48828 16.1465 2.9668 15.7637 3.67773 15.8594C7.58789 16.3105 10.623 19.7422 10.4863 23.7617C10.4863 24.459 9.95312 24.9238 9.22852 24.5684C5.98828 23.1191 3.62305 20.3574 2.7207 16.9941ZM25.1289 16.9941C24.2402 20.3574 21.8613 23.1191 18.6348 24.5684C17.8965 24.9238 17.377 24.459 17.3633 23.7617C17.2402 19.7559 20.2617 16.3105 24.1855 15.8594C24.8965 15.7637 25.3613 16.1465 25.1289 16.9941Z" fill="black" fill-opacity="0.85"/>
  <path d="M39.6484 13.2891L32.6211 9.11914C32.0879 8.80469 31.377 9.06445 31.377 9.63867L31.377 18.252C31.377 18.8398 32.0469 19.1133 32.6211 18.7715L39.6484 14.6289C40.1953 14.3145 40.168 13.5898 39.6484 13.2891Z" fill="black" fill-opacity="0.85"/>
 </g>
</svg>
