<?xml version="1.0" encoding="UTF-8"?>
<!--Generator: Apple Native CoreSVG 326-->
<!DOCTYPE svg
PUBLIC "-//W3C//DTD SVG 1.1//EN"
       "http://www.w3.org/Graphics/SVG/1.1/DTD/svg11.dtd">
<svg version="1.1" xmlns="http://www.w3.org/2000/svg" xmlns:xlink="http://www.w3.org/1999/xlink" viewBox="0 0 30.8848 29.1895">
 <g>
  <rect height="29.1895" opacity="0" width="30.8848" x="0" y="0"/>
  <path d="M1.81836 25.9219L28.7109 25.9219L28.7109 25.0059C28.7109 24.459 28.3965 24.1309 27.8359 24.1309L26.9609 24.1309L26.9609 9.37891L28.1641 9.37891C28.916 9.37891 29.3535 8.83203 29.3535 8.27148C29.3535 7.86133 29.1211 7.50586 28.6152 7.21875L16.9395 0.478516C16.3926 0.164062 15.8184 0 15.2578 0C14.6973 0 14.1094 0.164062 13.5898 0.478516L1.91406 7.21875C1.39453 7.50586 1.17578 7.86133 1.17578 8.27148C1.17578 8.83203 1.61328 9.37891 2.36523 9.37891L3.56836 9.37891L3.56836 24.1309L2.70703 24.1309C2.14648 24.1309 1.81836 24.459 1.81836 25.0059ZM5.63281 24.1309L5.63281 7.62891L14.7246 2.5293C14.8887 2.43359 15.0801 2.37891 15.2578 2.37891C15.4355 2.37891 15.627 2.43359 15.8047 2.5293L24.8965 7.62891L24.8965 24.1309ZM1.09375 29.1758L29.4219 29.1758C30.0234 29.1758 30.5293 28.6699 30.5293 28.0684C30.5293 27.4668 30.0234 26.9746 29.4219 26.9746L1.09375 26.9746C0.492188 26.9746 0 27.4668 0 28.0684C0 28.6699 0.492188 29.1758 1.09375 29.1758Z" fill="black" fill-opacity="0.85"/>
  <path d="M10.8965 20.4395L19.0176 20.4395C19.4277 20.4395 19.7559 20.1523 19.7559 19.7559C19.7559 19.373 19.4277 19.0723 19.0176 19.0723L12.7012 19.0723L12.7012 19.0312C13.7812 18.6074 14.2871 17.3633 14.2871 16.1738C14.2871 15.709 14.2461 15.2988 14.1641 14.9434L17.6504 14.9434C17.9922 14.9434 18.252 14.6973 18.252 14.3828C18.252 14.0684 17.9922 13.8223 17.6504 13.8223L13.8496 13.8223C13.6582 13.0293 13.6172 12.6055 13.6172 12.1133C13.6172 10.541 14.8066 9.65234 16.5293 9.65234C17.1445 9.65234 17.5684 9.73438 17.9238 9.81641C18.1699 9.87109 18.4023 9.92578 18.5664 9.92578C18.9492 9.92578 19.1816 9.7207 19.1816 9.33789C19.1816 8.98242 18.9082 8.76367 18.5801 8.62695C17.8418 8.35352 17.3086 8.28516 16.3652 8.28516C13.7402 8.28516 11.9629 9.73438 11.9629 12.1543C11.9629 12.6738 12.0449 13.1797 12.2363 13.8223L10.7871 13.8223C10.4453 13.8223 10.1855 14.0684 10.1855 14.3828C10.1855 14.6973 10.4453 14.9434 10.7871 14.9434L12.5371 14.9434C12.6465 15.3945 12.7148 15.832 12.7148 16.2285C12.7148 17.541 12.0449 18.498 10.8281 18.9492C10.4453 19.0859 10.1992 19.332 10.1992 19.7285C10.1992 20.1387 10.4863 20.4395 10.8965 20.4395Z" fill="black" fill-opacity="0.85"/>
 </g>
</svg>
