<?xml version="1.0" encoding="UTF-8"?>
<!--Generator: Apple Native CoreSVG 326-->
<!DOCTYPE svg
PUBLIC "-//W3C//DTD SVG 1.1//EN"
       "http://www.w3.org/Graphics/SVG/1.1/DTD/svg11.dtd">
<svg version="1.1" xmlns="http://www.w3.org/2000/svg" xmlns:xlink="http://www.w3.org/1999/xlink" viewBox="0 0 30.9258 30.584">
 <g>
  <rect height="30.584" opacity="0" width="30.9258" x="0" y="0"/>
  <path d="M15.2852 30.5703C23.6797 30.5703 30.5703 23.6797 30.5703 15.2852C30.5703 6.89062 23.6797 0 15.2852 0C6.89062 0 0 6.89062 0 15.2852C0 23.6797 6.89062 30.5703 15.2852 30.5703ZM15.2852 25.4844C9.65234 25.4844 5.08594 20.918 5.08594 15.2852C5.08594 9.63867 9.65234 5.08594 15.2852 5.08594C20.9316 5.08594 25.4844 9.63867 25.4844 15.2852C25.4844 20.918 20.9316 25.4844 15.2852 25.4844Z" fill="black" fill-opacity="0.85"/>
  <path d="M10.9102 21.3281L19.0312 21.3281C19.4414 21.3281 19.7695 21.0547 19.7695 20.6582C19.7695 20.2754 19.4414 19.9746 19.0312 19.9746L12.7148 19.9746L12.7148 19.9199C13.7949 19.5098 14.3008 18.2656 14.3008 17.0762C14.3008 16.5977 14.2734 16.1875 14.1777 15.832L17.6641 15.832C18.0059 15.832 18.2656 15.5859 18.2656 15.2715C18.2656 14.9707 18.0059 14.7246 17.6641 14.7246L13.877 14.7246C13.6855 13.9316 13.6309 13.5078 13.6309 13.0156C13.6309 11.4434 14.8203 10.5547 16.543 10.5547C17.1582 10.5547 17.582 10.623 17.9375 10.7188C18.1836 10.7734 18.416 10.8281 18.5801 10.8281C18.9629 10.8281 19.1953 10.623 19.1953 10.2402C19.1953 9.87109 18.9219 9.65234 18.5938 9.5293C17.8555 9.24219 17.3223 9.1875 16.3789 9.1875C13.7539 9.1875 11.9902 10.623 11.9902 13.0566C11.9902 13.5762 12.0586 14.082 12.25 14.7246L10.8008 14.7246C10.459 14.7246 10.1992 14.9707 10.1992 15.2715C10.1992 15.5859 10.459 15.832 10.8008 15.832L12.5508 15.832C12.6602 16.2969 12.7422 16.7207 12.7422 17.1309C12.7422 18.4297 12.0723 19.4004 10.8418 19.8516C10.459 19.9883 10.2129 20.2207 10.2129 20.6309C10.2129 21.041 10.5 21.3281 10.9102 21.3281Z" fill="black" fill-opacity="0.85"/>
 </g>
</svg>
