<?xml version="1.0" encoding="UTF-8"?>
<!--Generator: Apple Native CoreSVG 326-->
<!DOCTYPE svg
PUBLIC "-//W3C//DTD SVG 1.1//EN"
       "http://www.w3.org/Graphics/SVG/1.1/DTD/svg11.dtd">
<svg version="1.1" xmlns="http://www.w3.org/2000/svg" xmlns:xlink="http://www.w3.org/1999/xlink" viewBox="0 0 28.2461 27.9043">
 <g>
  <rect height="27.9043" opacity="0" width="28.2461" x="0" y="0"/>
  <path d="M13.9453 27.8906C21.6426 27.8906 27.8906 21.6426 27.8906 13.9453C27.8906 6.26172 21.6426 0 13.9453 0C6.26172 0 0 6.26172 0 13.9453C0 21.6426 6.26172 27.8906 13.9453 27.8906Z" fill="black" fill-opacity="0.85"/>
  <path d="M9.44727 20.1797C9.02344 20.1797 8.72266 19.8789 8.72266 19.4551C8.72266 19.0449 8.98242 18.7988 9.37891 18.6484C10.623 18.1836 11.334 17.1992 11.334 15.8457C11.334 15.4355 11.252 14.9844 11.1289 14.5059L9.32422 14.5059C8.96875 14.5059 8.70898 14.2734 8.70898 13.9453C8.70898 13.6172 8.96875 13.3711 9.32422 13.3711L10.8281 13.3711C10.623 12.7012 10.5547 12.1816 10.5547 11.6484C10.5547 9.14648 12.373 7.65625 15.0801 7.65625C16.0645 7.65625 16.6113 7.72461 17.377 8.01172C17.7051 8.13477 17.9922 8.36719 17.9922 8.73633C17.9922 9.13281 17.7461 9.35156 17.3496 9.35156C17.1855 9.35156 16.9395 9.29688 16.6934 9.24219C16.3242 9.16016 15.8867 9.06445 15.2578 9.06445C13.4805 9.06445 12.25 9.98047 12.25 11.6074C12.25 12.1133 12.291 12.5508 12.4961 13.3711L16.4062 13.3711C16.7617 13.3711 17.0352 13.6172 17.0352 13.9453C17.0352 14.2734 16.7617 14.5059 16.4062 14.5059L12.8242 14.5059C12.9062 14.875 12.9473 15.3125 12.9473 15.791C12.9473 17.0215 12.4277 18.293 11.3066 18.7441L11.3066 18.7852L17.8145 18.7852C18.2383 18.7852 18.5801 19.0859 18.5801 19.4824C18.5801 19.8926 18.2383 20.1797 17.8145 20.1797Z" fill="white"/>
 </g>
</svg>
