<?xml version="1.0" encoding="UTF-8"?>
<!--Generator: Apple Native CoreSVG 326-->
<!DOCTYPE svg
PUBLIC "-//W3C//DTD SVG 1.1//EN"
       "http://www.w3.org/Graphics/SVG/1.1/DTD/svg11.dtd">
<svg version="1.1" xmlns="http://www.w3.org/2000/svg" xmlns:xlink="http://www.w3.org/1999/xlink" viewBox="0 0 33.5408 27.9043">
 <g>
  <rect height="27.9043" opacity="0" width="33.5408" x="0" y="0"/>
  <path d="M16.5995 27.8906C24.2968 27.8906 30.5448 21.6426 30.5448 13.9453C30.5448 6.24805 24.2968 0 16.5995 0C8.90224 0 2.65419 6.24805 2.65419 13.9453L4.97841 13.9453C4.97841 7.51953 10.1737 2.32422 16.5995 2.32422C23.0253 2.32422 28.2206 7.51953 28.2206 13.9453C28.2206 20.3711 23.0253 25.5664 16.5995 25.5664C12.7167 25.5664 9.2577 23.6523 7.19325 20.7539C6.76942 20.1934 6.12684 20.0156 5.55263 20.3574C5.00575 20.6992 4.84169 21.4648 5.30653 22.0664C7.83583 25.6074 11.9784 27.8906 16.5995 27.8906ZM0.972548 11.3066C-0.0118272 11.3066-0.257921 11.9766 0.275282 12.7422L3.33778 17.0898C3.78895 17.7188 4.4452 17.7051 4.8827 17.0898L7.93153 12.7285C8.46474 11.9766 8.20497 11.3066 7.24794 11.3066Z" fill="black" fill-opacity="0.85"/>
  <path d="M12.2245 19.9883L20.3456 19.9883C20.7558 19.9883 21.0839 19.7148 21.0839 19.3184C21.0839 18.9355 20.7558 18.6348 20.3456 18.6348L14.0292 18.6348L14.0292 18.5801C15.1093 18.1699 15.6151 16.9258 15.6151 15.7363C15.6151 15.2578 15.5741 14.8477 15.4921 14.4922L18.9784 14.4922C19.3202 14.4922 19.58 14.2461 19.58 13.9316C19.58 13.6309 19.3202 13.3848 18.9784 13.3848L15.1776 13.3848C14.9862 12.5918 14.9452 12.168 14.9452 11.6758C14.9452 10.1035 16.1347 9.21484 17.8573 9.21484C18.4725 9.21484 18.8964 9.2832 19.2518 9.37891C19.4979 9.43359 19.7304 9.48828 19.8944 9.48828C20.2772 9.48828 20.5097 9.2832 20.5097 8.90039C20.5097 8.53125 20.2362 8.3125 19.9081 8.18945C19.1698 7.90234 18.6366 7.84766 17.6933 7.84766C15.0683 7.84766 13.3046 9.2832 13.3046 11.7168C13.3046 12.2363 13.3729 12.7422 13.5643 13.3848L12.1151 13.3848C11.7733 13.3848 11.5136 13.6309 11.5136 13.9316C11.5136 14.2461 11.7733 14.4922 12.1151 14.4922L13.8651 14.4922C13.9745 14.957 14.0565 15.3809 14.0565 15.791C14.0565 17.0898 13.3729 18.0605 12.1561 18.5117C11.7733 18.6484 11.5272 18.8809 11.5272 19.291C11.5272 19.7012 11.8143 19.9883 12.2245 19.9883Z" fill="black" fill-opacity="0.85"/>
 </g>
</svg>
