<?xml version="1.0" encoding="UTF-8"?>
<!--Generator: Apple Native CoreSVG 326-->
<!DOCTYPE svg
PUBLIC "-//W3C//DTD SVG 1.1//EN"
       "http://www.w3.org/Graphics/SVG/1.1/DTD/svg11.dtd">
<svg version="1.1" xmlns="http://www.w3.org/2000/svg" xmlns:xlink="http://www.w3.org/1999/xlink" viewBox="0 0 25.5254 25.1699">
 <g>
  <rect height="25.1699" opacity="0" width="25.5254" x="0" y="0"/>
  <path d="M4.29297 25.1699L20.877 25.1699C23.748 25.1699 25.1699 23.7617 25.1699 20.9453L25.1699 4.23828C25.1699 1.42188 23.748 0 20.877 0L4.29297 0C1.43555 0 0 1.42188 0 4.23828L0 20.9453C0 23.7617 1.43555 25.1699 4.29297 25.1699ZM4.32031 22.9688C2.95312 22.9688 2.20117 22.2441 2.20117 20.8223L2.20117 4.36133C2.20117 2.93945 2.95312 2.20117 4.32031 2.20117L20.8496 2.20117C22.2031 2.20117 22.9688 2.93945 22.9688 4.36133L22.9688 20.8223C22.9688 22.2441 22.2031 22.9688 20.8496 22.9688Z" fill="black" fill-opacity="0.85"/>
  <path d="M8.2168 18.6211L16.3379 18.6211C16.748 18.6211 17.0762 18.3477 17.0762 17.9512C17.0762 17.5684 16.748 17.2676 16.3379 17.2676L10.0215 17.2676L10.0215 17.2129C11.1016 16.8027 11.6074 15.5586 11.6074 14.3691C11.6074 13.8906 11.5801 13.4805 11.4844 13.125L14.9707 13.125C15.3125 13.125 15.5723 12.8789 15.5723 12.5645C15.5723 12.2637 15.3125 12.0176 14.9707 12.0176L11.1836 12.0176C10.9922 11.2246 10.9375 10.8008 10.9375 10.3086C10.9375 8.73633 12.127 7.84766 13.8496 7.84766C14.4648 7.84766 14.8887 7.91602 15.2441 8.01172C15.4902 8.06641 15.7227 8.12109 15.8867 8.12109C16.2695 8.12109 16.502 7.91602 16.502 7.5332C16.502 7.16406 16.2285 6.94531 15.9004 6.82227C15.1621 6.53516 14.6289 6.48047 13.6855 6.48047C11.0605 6.48047 9.29688 7.91602 9.29688 10.3496C9.29688 10.8691 9.36523 11.375 9.55664 12.0176L8.10742 12.0176C7.76562 12.0176 7.50586 12.2637 7.50586 12.5645C7.50586 12.8789 7.76562 13.125 8.10742 13.125L9.85742 13.125C9.9668 13.5898 10.0488 14.0137 10.0488 14.4238C10.0488 15.7227 9.37891 16.6934 8.14844 17.1445C7.76562 17.2812 7.51953 17.5137 7.51953 17.9238C7.51953 18.334 7.80664 18.6211 8.2168 18.6211Z" fill="black" fill-opacity="0.85"/>
 </g>
</svg>
