<?xml version="1.0" encoding="UTF-8"?>
<!--Generator: Apple Native CoreSVG 326-->
<!DOCTYPE svg
PUBLIC "-//W3C//DTD SVG 1.1//EN"
       "http://www.w3.org/Graphics/SVG/1.1/DTD/svg11.dtd">
<svg version="1.1" xmlns="http://www.w3.org/2000/svg" xmlns:xlink="http://www.w3.org/1999/xlink" viewBox="0 0 19.2637 24.377">
 <g>
  <rect height="24.377" opacity="0" width="19.2637" x="0" y="0"/>
  <path d="M1.47656 24.2812L17.7324 24.2812C18.4297 24.2812 18.9766 23.8438 18.9766 23.1465C18.9766 22.4082 18.3887 21.9707 17.7324 21.9707L4.4707 21.9707L4.4707 21.8887C6.71289 21.123 7.875 18.5801 7.875 16.0371C7.875 14.957 7.72461 14.0684 7.51953 13.248L14.793 13.248C15.4082 13.248 15.8867 12.8379 15.8867 12.2227C15.8867 11.6074 15.4082 11.2109 14.793 11.2109L6.95898 11.2109C6.67188 10.1719 6.41211 8.99609 6.41211 7.54688C6.41211 4.19727 8.96875 2.37891 12.4824 2.37891C13.6172 2.37891 14.834 2.54297 15.75 2.84375C16.1055 2.93945 16.3926 2.99414 16.6523 2.99414C17.3223 2.99414 17.7188 2.61133 17.7188 1.95508C17.7188 1.28516 17.2539 0.943359 16.6387 0.669922C15.2168 0.109375 13.7402 0 12.2637 0C7.32812 0 3.63672 2.66602 3.63672 7.72461C3.63672 8.83203 3.85547 9.89844 4.19727 11.2109L1.18945 11.2109C0.574219 11.2109 0.0957031 11.6074 0.0957031 12.2227C0.0957031 12.8652 0.601562 13.248 1.18945 13.248L4.7168 13.248C5.07227 14.4648 5.19531 15.3262 5.19531 16.1465C5.19531 18.7168 3.77344 20.959 1.12109 21.7246C0.451172 21.9434 0 22.3398 0 23.1055C0 23.8301 0.574219 24.2812 1.47656 24.2812Z" fill="black" fill-opacity="0.85"/>
 </g>
</svg>
