<?xml version="1.0" encoding="UTF-8"?>
<!--Generator: Apple Native CoreSVG 326-->
<!DOCTYPE svg
PUBLIC "-//W3C//DTD SVG 1.1//EN"
       "http://www.w3.org/Graphics/SVG/1.1/DTD/svg11.dtd">
<svg version="1.1" xmlns="http://www.w3.org/2000/svg" xmlns:xlink="http://www.w3.org/1999/xlink" viewBox="0 0 28.2461 33.4277">
 <g>
  <rect height="33.4277" opacity="0" width="28.2461" x="0" y="0"/>
  <path d="M13.9453 30.6523C21.5742 30.6523 27.8906 24.3223 27.8906 16.707C27.8906 9.07812 21.5605 2.76172 13.9316 2.76172C6.31641 2.76172 0 9.07812 0 16.707C0 24.3223 6.33008 30.6523 13.9453 30.6523ZM13.9453 28.3281C7.49219 28.3281 2.33789 23.1602 2.33789 16.707C2.33789 10.2539 7.47852 5.08594 13.9316 5.08594C20.3848 5.08594 25.5527 10.2539 25.5664 16.707C25.5801 23.1602 20.3984 28.3281 13.9453 28.3281ZM12.4688 3.60938L15.3945 3.60938L15.3945 1.50391C15.3945 0.683594 14.752 0 13.9316 0C13.1387 0 12.4688 0.683594 12.4688 1.50391ZM22.4629 6.5625L24.5 8.6543L26.0039 7.12305C26.3184 6.80859 26.4961 6.38477 26.4961 6.01562C26.4961 5.25 25.8809 4.63477 25.0879 4.63477C24.623 4.63477 24.2949 4.77148 23.9668 5.08594Z" fill="#ff9500"/>
  <path d="M13.9453 18.9219C15.1621 18.9219 16.1465 17.9375 16.1465 16.7207C16.1465 15.8594 15.6543 15.1074 14.8887 14.7383L14.8887 7.94336C14.8887 7.41016 14.4648 7 13.9316 7C13.3984 7 12.9883 7.41016 12.9883 7.94336L12.9883 14.7246C12.2363 15.1211 11.7441 15.8594 11.7441 16.7207C11.7441 17.9375 12.7148 18.9219 13.9453 18.9219Z" fill="black" fill-opacity="0.85"/>
 </g>
</svg>
