<?xml version="1.0" encoding="UTF-8"?>
<!--Generator: Apple Native CoreSVG 326-->
<!DOCTYPE svg
PUBLIC "-//W3C//DTD SVG 1.1//EN"
       "http://www.w3.org/Graphics/SVG/1.1/DTD/svg11.dtd">
<svg version="1.1" xmlns="http://www.w3.org/2000/svg" xmlns:xlink="http://www.w3.org/1999/xlink" viewBox="0 0 28.2461 27.9043">
 <g>
  <rect height="27.9043" opacity="0" width="28.2461" x="0" y="0"/>
  <path d="M13.9453 27.8906C21.6426 27.8906 27.8906 21.6426 27.8906 13.9453C27.8906 6.24805 21.6426 0 13.9453 0C6.24805 0 0 6.24805 0 13.9453C0 21.6426 6.24805 27.8906 13.9453 27.8906ZM13.9453 25.5664C7.51953 25.5664 2.32422 20.3711 2.32422 13.9453C2.32422 7.51953 7.51953 2.32422 13.9453 2.32422C20.3711 2.32422 25.5664 7.51953 25.5664 13.9453C25.5664 20.3711 20.3711 25.5664 13.9453 25.5664Z" fill="black" fill-opacity="0.85"/>
  <path d="M6.26172 10.7598L21.4785 10.7598L19.4961 7.10938C19.1953 6.54883 18.6348 6.2207 18.0059 6.2207L9.74805 6.2207C9.10547 6.2207 8.54492 6.54883 8.24414 7.10938ZM8.44922 13.7402C9.20117 13.7402 9.85742 13.3984 10.2676 12.8379C10.6504 13.3984 11.3066 13.7402 12.0723 13.7402C12.8242 13.7402 13.4668 13.3984 13.877 12.8379C14.2871 13.3984 14.916 13.7402 15.6816 13.7402C16.4473 13.7402 17.0898 13.3984 17.4863 12.8379C17.8965 13.3984 18.5527 13.7402 19.3047 13.7402C20.5762 13.7402 21.6016 12.7422 21.6016 11.8398L21.6016 11.7031L6.15234 11.7031L6.15234 11.9766C6.15234 12.8789 7.17773 13.7402 8.44922 13.7402ZM8.61328 21.6562L19.2227 21.6562C20.2207 21.6562 20.7949 21.0957 20.7949 20.1113L20.7949 14.3418C20.3848 14.5605 19.8789 14.7109 19.3457 14.7109C18.6484 14.7109 18.0332 14.4785 17.541 14.0957C17.0352 14.4785 16.4062 14.7109 15.7227 14.7109C15.0391 14.7109 14.4102 14.4785 13.918 14.0957C13.4258 14.4785 12.7969 14.7109 12.1133 14.7109C11.416 14.7109 10.7871 14.4785 10.3086 14.0957C9.80273 14.4785 9.1875 14.7109 8.49023 14.7109C7.95703 14.7109 7.46484 14.5879 7.02734 14.3828L7.02734 20.1113C7.02734 21.0957 7.61523 21.6562 8.61328 21.6562ZM11.2656 20.2754L11.2656 16.5977C11.2656 16.2832 11.4844 16.0645 11.8125 16.0645L16.0508 16.0645C16.3652 16.0645 16.5703 16.2832 16.5703 16.5977L16.5703 20.2754Z" fill="black" fill-opacity="0.85"/>
 </g>
</svg>
