<?xml version="1.0" encoding="UTF-8"?>
<!--Generator: Apple Native CoreSVG 326-->
<!DOCTYPE svg
PUBLIC "-//W3C//DTD SVG 1.1//EN"
       "http://www.w3.org/Graphics/SVG/1.1/DTD/svg11.dtd">
<svg version="1.1" xmlns="http://www.w3.org/2000/svg" xmlns:xlink="http://www.w3.org/1999/xlink" viewBox="0 0 28.2461 27.9043">
 <g>
  <rect height="27.9043" opacity="0" width="28.2461" x="0" y="0"/>
  <path d="M13.9453 27.8906C21.6426 27.8906 27.8906 21.6289 27.8906 13.9453C27.8906 6.24805 21.6426 0 13.9453 0C6.26172 0 0 6.24805 0 13.9453C0 21.6289 6.26172 27.8906 13.9453 27.8906Z" fill="black" fill-opacity="0.85"/>
  <path d="M6.04297 10.6504L8.08008 6.89062C8.39453 6.31641 8.96875 5.97461 9.63867 5.97461L18.1426 5.97461C18.7988 5.97461 19.373 6.31641 19.6875 6.89062L21.7246 10.6504ZM8.29883 13.7266C6.98633 13.7266 5.93359 12.8379 5.93359 11.9082L5.93359 11.6211L21.8477 11.6211L21.8477 11.7715C21.8477 12.7012 20.7949 13.7266 19.4824 13.7266C18.7031 13.7266 18.0332 13.3711 17.6094 12.7969C17.1992 13.3711 16.543 13.7266 15.75 13.7266C14.957 13.7266 14.3145 13.3711 13.8906 12.7969C13.4668 13.3711 12.8105 13.7266 12.0312 13.7266C11.2383 13.7266 10.5684 13.3711 10.1719 12.7969C9.74805 13.3711 9.07812 13.7266 8.29883 13.7266ZM8.46289 21.9023C7.4375 21.9023 6.82227 21.3145 6.82227 20.3027L6.82227 14.3965C7.27344 14.6016 7.79297 14.7383 8.33984 14.7383C9.05078 14.7383 9.69336 14.4922 10.2129 14.0957C10.7051 14.4922 11.3477 14.7383 12.0723 14.7383C12.7695 14.7383 13.4258 14.4922 13.9316 14.0957C14.4375 14.4922 15.0938 14.7383 15.791 14.7383C16.502 14.7383 17.1445 14.4922 17.6641 14.0957C18.1699 14.4922 18.8125 14.7383 19.5234 14.7383C20.0703 14.7383 20.6035 14.5742 21.0273 14.3555L21.0273 20.3027C21.0273 21.3145 20.4258 21.9023 19.4004 21.9023ZM11.1973 20.4668L16.666 20.4668L16.666 16.6797C16.666 16.3516 16.4609 16.1328 16.1328 16.1328L11.7578 16.1328C11.416 16.1328 11.1973 16.3516 11.1973 16.6797Z" fill="white"/>
 </g>
</svg>
