<?xml version="1.0" encoding="UTF-8"?>
<!--Generator: Apple Native CoreSVG 326-->
<!DOCTYPE svg
PUBLIC "-//W3C//DTD SVG 1.1//EN"
       "http://www.w3.org/Graphics/SVG/1.1/DTD/svg11.dtd">
<svg version="1.1" xmlns="http://www.w3.org/2000/svg" xmlns:xlink="http://www.w3.org/1999/xlink" viewBox="0 0 26.127 25.7168">
 <g>
  <rect height="25.7168" opacity="0" width="26.127" x="0" y="0"/>
  <path d="M0 15.4082C0 18.6758 2.58398 21.2051 5.83789 21.2051C7.65625 21.2051 9.5293 20.6035 10.3223 19.0039L10.459 19.0039C10.4727 20.8223 8.47656 22.3262 7.65625 23.1738C6.67188 24.1992 7.27344 25.6211 8.54492 25.6211L17.2266 25.6211C18.498 25.6211 19.0859 24.1992 18.1152 23.1738C17.2949 22.3262 15.2988 20.8223 15.3125 19.0039L15.4492 19.0039C16.2422 20.6035 18.1152 21.2051 19.9199 21.2051C23.1875 21.2051 25.7715 18.6758 25.7715 15.4082C25.7715 12.127 23.2969 9.35156 20.0293 9.35156C18.7715 9.35156 17.4863 9.77539 16.4883 10.5684C18.1836 9.1875 18.7715 7.45117 18.7715 5.89258C18.7715 2.625 16.1328 0 12.8789 0C9.63867 0 7 2.625 7 5.89258C7 7.45117 7.58789 9.1875 9.2832 10.5684C8.28516 9.77539 7 9.35156 5.74219 9.35156C2.47461 9.35156 0 12.127 0 15.4082Z" fill="black" fill-opacity="0.85"/>
 </g>
</svg>
