<?xml version="1.0" encoding="UTF-8"?>
<!--Generator: Apple Native CoreSVG 326-->
<!DOCTYPE svg
PUBLIC "-//W3C//DTD SVG 1.1//EN"
       "http://www.w3.org/Graphics/SVG/1.1/DTD/svg11.dtd">
<svg version="1.1" xmlns="http://www.w3.org/2000/svg" xmlns:xlink="http://www.w3.org/1999/xlink" viewBox="0 0 36.9961 34.6855">
 <g>
  <rect height="34.6855" opacity="0" width="36.9961" x="0" y="0"/>
  <path d="M25.7988 16.666C25.7988 18.2728 25.275 19.7739 24.3853 21L21.3143 21C22.6913 20.0462 23.5977 18.4551 23.5977 16.666C23.5977 13.7676 21.2188 11.3887 18.3203 11.3887C15.4219 11.3887 13.043 13.7676 13.043 16.666C13.043 18.4551 13.9493 20.0462 15.3263 21L12.2553 21C11.3656 19.7739 10.8418 18.2728 10.8418 16.666C10.8418 12.5645 14.2324 9.17383 18.3203 9.17383C22.4082 9.17383 25.7988 12.5645 25.7988 16.666ZM8.35352 16.3105C8.36719 16.9258 7.83398 17.418 7.12305 17.418L3.75977 17.418C3.0625 17.418 2.54297 16.9258 2.54297 16.3105C2.54297 15.6953 3.0625 15.2031 3.75977 15.2031L7.12305 15.2031C7.83398 15.2031 8.33984 15.709 8.35352 16.3105ZM34.0977 16.3105C34.0977 16.9258 33.5918 17.418 32.8809 17.418L29.5176 17.418C28.8066 17.418 28.3008 16.9258 28.2871 16.3105C28.2734 15.6953 28.8066 15.2031 29.5176 15.2031L32.8809 15.2031C33.5918 15.2031 34.0977 15.709 34.0977 16.3105ZM8.80469 5.57812L11.1973 7.95703C11.6895 8.46289 11.6895 9.17383 11.2656 9.61133C10.8418 10.0488 10.1172 10.0352 9.61133 9.5293L7.23242 7.15039C6.72656 6.64453 6.72656 5.93359 7.16406 5.50977C7.60156 5.08594 8.29883 5.07227 8.80469 5.57812ZM29.4766 5.50977C29.9004 5.94727 29.9141 6.64453 29.4082 7.15039L27.0293 9.5293C26.5234 10.0352 25.7988 10.0352 25.375 9.61133C24.9375 9.1875 24.9512 8.46289 25.4434 7.95703L27.8223 5.57812C28.3418 5.07227 29.0527 5.07227 29.4766 5.50977ZM19.4277 2.10547L19.4277 5.46875C19.4277 6.16602 18.9355 6.69922 18.3203 6.69922C17.7051 6.69922 17.2129 6.16602 17.2129 5.46875L17.2129 2.10547C17.2129 1.39453 17.7051 0.888672 18.3203 0.888672C18.9355 0.888672 19.4277 1.39453 19.4277 2.10547Z" fill="black" fill-opacity="0.85"/>
  <path d="M10.7461 29.5586C11.0059 29.5586 11.1699 29.3262 11.1562 29.0664L11.0742 27.7676L12.1543 28.5059C12.3594 28.6426 12.6602 28.5879 12.7969 28.3828C12.9199 28.1777 12.8516 27.8496 12.5918 27.7402L11.416 27.166L12.6055 26.5781C12.8516 26.4551 12.9062 26.1543 12.8105 25.9492C12.6875 25.7305 12.3594 25.6895 12.1543 25.8262L11.0742 26.5781L11.1699 25.2656C11.1973 24.9922 11.0059 24.7734 10.7461 24.7734C10.459 24.7734 10.2949 24.9922 10.3086 25.2656L10.3906 26.5781L9.29688 25.8262C9.0918 25.6895 8.80469 25.7168 8.66797 25.9492C8.54492 26.1543 8.59961 26.4414 8.85938 26.5781L10.0488 27.166L8.85938 27.7402C8.59961 27.8633 8.53125 28.1641 8.6543 28.3828C8.77734 28.6016 9.0918 28.6426 9.29688 28.5059L10.3906 27.7676L10.3223 29.0664C10.3086 29.3262 10.459 29.5586 10.7461 29.5586ZM18.3203 29.5586C18.5664 29.5586 18.7441 29.3262 18.7305 29.0664L18.6484 27.7676L19.7285 28.5059C19.9336 28.6426 20.2344 28.5879 20.3711 28.3828C20.4941 28.1777 20.4258 27.8496 20.1523 27.7402L18.9902 27.166L20.166 26.5781C20.4258 26.4551 20.4805 26.1543 20.3848 25.9492C20.2617 25.7305 19.9336 25.6895 19.7285 25.8262L18.6484 26.5781L18.7441 25.2656C18.7715 24.9922 18.5664 24.7734 18.3203 24.7734C18.0332 24.7734 17.8691 24.9922 17.8828 25.2656L17.9648 26.5781L16.8711 25.8262C16.666 25.6895 16.3789 25.7168 16.2422 25.9492C16.1191 26.1543 16.1738 26.4414 16.4336 26.5781L17.623 27.166L16.4336 27.7402C16.1738 27.8633 16.1055 28.1641 16.2285 28.3828C16.3516 28.6016 16.666 28.6426 16.8711 28.5059L17.9648 27.7676L17.8965 29.0664C17.8828 29.3262 18.0332 29.5586 18.3203 29.5586ZM25.8945 29.5586C26.1406 29.5586 26.3184 29.3262 26.3047 29.0664L26.2227 27.7676L27.3027 28.5059C27.5078 28.6426 27.8086 28.5879 27.9453 28.3828C28.0684 28.1777 28 27.8496 27.7266 27.7402L26.5645 27.166L27.7402 26.5781C28 26.4551 28.0547 26.1543 27.959 25.9492C27.8359 25.7305 27.5078 25.6895 27.3027 25.8262L26.2227 26.5781L26.3184 25.2656C26.3457 24.9922 26.1406 24.7734 25.8945 24.7734C25.6074 24.7734 25.4434 24.9922 25.457 25.2656L25.5391 26.5781L24.4453 25.8262C24.2402 25.6895 23.9531 25.7168 23.8164 25.9492C23.6934 26.1543 23.748 26.4414 24.0078 26.5781L25.1836 27.166L24.0078 27.7402C23.748 27.8633 23.6797 28.1641 23.8027 28.3828C23.9258 28.6016 24.2402 28.6426 24.4453 28.5059L25.5391 27.7676L25.4707 29.0664C25.457 29.3262 25.6074 29.5586 25.8945 29.5586ZM7.7793 34.6855C8.03906 34.6855 8.20312 34.4531 8.18945 34.1934L8.10742 32.8945L9.1875 33.6328C9.39258 33.7695 9.69336 33.7148 9.83008 33.5098C9.9668 33.3047 9.88477 32.9902 9.625 32.8672L8.44922 32.293L9.63867 31.7051C9.88477 31.582 9.95312 31.2812 9.84375 31.0762C9.7207 30.8574 9.39258 30.8164 9.1875 30.9531L8.10742 31.7051L8.20312 30.3926C8.23047 30.1191 8.03906 29.9004 7.7793 29.9004C7.49219 29.9004 7.32812 30.1191 7.3418 30.3926L7.42383 31.7051L6.33008 30.9531C6.125 30.8164 5.83789 30.8438 5.70117 31.0762C5.57812 31.2812 5.63281 31.5684 5.89258 31.7051L7.08203 32.293L5.89258 32.8672C5.63281 32.9902 5.56445 33.291 5.6875 33.5098C5.81055 33.7285 6.125 33.7695 6.33008 33.6328L7.42383 32.8945L7.35547 34.1934C7.3418 34.4531 7.49219 34.6855 7.7793 34.6855ZM15.3535 34.6855C15.6133 34.6855 15.7773 34.4531 15.7637 34.1934L15.6816 32.8945L16.7617 33.6328C16.9668 33.7695 17.2676 33.7148 17.4043 33.5098C17.5273 33.3047 17.459 32.9902 17.1855 32.8672L16.0234 32.293L17.1992 31.7051C17.459 31.582 17.5137 31.2812 17.418 31.0762C17.2949 30.8574 16.9668 30.8164 16.7617 30.9531L15.6816 31.7051L15.7773 30.3926C15.8047 30.1191 15.6133 29.9004 15.3535 29.9004C15.0664 29.9004 14.9023 30.1191 14.916 30.3926L14.998 31.7051L13.9043 30.9531C13.6992 30.8164 13.4121 30.8438 13.2754 31.0762C13.1523 31.2812 13.207 31.5684 13.4668 31.7051L14.6562 32.293L13.4668 32.8672C13.207 32.9902 13.1387 33.291 13.2617 33.5098C13.3848 33.7285 13.6992 33.7695 13.9043 33.6328L14.998 32.8945L14.9297 34.1934C14.916 34.4531 15.0664 34.6855 15.3535 34.6855ZM22.9277 34.6855C23.1738 34.6855 23.3516 34.4531 23.3379 34.1934L23.2559 32.8945L24.3359 33.6328C24.541 33.7695 24.8418 33.7148 24.9785 33.5098C25.1016 33.3047 25.0332 32.9902 24.7598 32.8672L23.5977 32.293L24.7734 31.7051C25.0332 31.582 25.0879 31.2812 24.9922 31.0762C24.8691 30.8574 24.541 30.8164 24.3359 30.9531L23.2559 31.7051L23.3516 30.3926C23.3789 30.1191 23.1738 29.9004 22.9277 29.9004C22.6406 29.9004 22.4766 30.1191 22.4902 30.3926L22.5723 31.7051L21.4785 30.9531C21.2734 30.8164 20.9863 30.8438 20.8496 31.0762C20.7266 31.2812 20.7812 31.5684 21.041 31.7051L22.2168 32.293L21.041 32.8672C20.7812 32.9902 20.7129 33.291 20.8359 33.5098C20.959 33.7285 21.2734 33.7695 21.4785 33.6328L22.5723 32.8945L22.5039 34.1934C22.4902 34.4531 22.6406 34.6855 22.9277 34.6855ZM4.40234 22.7227L32.1699 22.7227C32.6621 22.7227 33.0312 22.3535 33.0312 21.8613C33.0312 21.3691 32.6621 21 32.1699 21L4.40234 21C3.92383 21 3.54102 21.3691 3.54102 21.8613C3.54102 22.3535 3.92383 22.7227 4.40234 22.7227Z" fill="black" fill-opacity="0.85"/>
 </g>
</svg>
