<?xml version="1.0" encoding="UTF-8"?>
<!--Generator: Apple Native CoreSVG 326-->
<!DOCTYPE svg
PUBLIC "-//W3C//DTD SVG 1.1//EN"
       "http://www.w3.org/Graphics/SVG/1.1/DTD/svg11.dtd">
<svg version="1.1" xmlns="http://www.w3.org/2000/svg" xmlns:xlink="http://www.w3.org/1999/xlink" viewBox="0 0 35.3965 24.4863">
 <g>
  <rect height="24.4863" opacity="0" width="35.3965" x="0" y="0"/>
  <path d="M24.9238 15.75C24.9238 11.7031 21.5742 8.32617 17.5273 8.32617C13.4668 8.32617 10.1172 11.7031 10.1172 15.75C10.1172 16.748 10.3223 17.6914 10.7051 18.5527L24.3359 18.5527C24.7188 17.6914 24.9238 16.748 24.9238 15.75ZM2.9668 16.5293L6.33008 16.5293C7.04102 16.5293 7.57422 16.0371 7.56055 15.4219C7.54688 14.8066 7.02734 14.3145 6.33008 14.3145L2.9668 14.3145C2.25586 14.3145 1.75 14.8066 1.75 15.4219C1.75 16.0371 2.25586 16.5293 2.9668 16.5293ZM8.81836 8.64062C9.31055 9.14648 10.0488 9.16016 10.4727 8.72266C10.8965 8.28516 10.8965 7.56055 10.3906 7.06836L8.01172 4.68945C7.50586 4.16992 6.80859 4.19727 6.37109 4.62109C5.93359 5.04492 5.91992 5.75586 6.43945 6.26172ZM24.5684 8.72266C25.0059 9.14648 25.7305 9.14648 26.2227 8.64062L28.6016 6.26172C29.1211 5.75586 29.0938 5.05859 28.6699 4.62109C28.2461 4.18359 27.5352 4.16992 27.0293 4.68945L24.6504 7.06836C24.1445 7.56055 24.1309 8.29883 24.5684 8.72266ZM28.7109 16.5293L32.0742 16.5293C32.7852 16.5293 33.291 16.0371 33.291 15.4219C33.291 14.8066 32.7852 14.3145 32.0742 14.3145L28.7109 14.3145C28.0137 14.3145 27.4668 14.8066 27.4805 15.4219C27.4941 16.0371 28.0137 16.5293 28.7109 16.5293ZM17.5273 5.81055C18.1289 5.79688 18.6348 5.27734 18.6348 4.58008L18.6348 1.2168C18.6348 0.505859 18.1289 0 17.5273 0C16.9121 0 16.4062 0.505859 16.4062 1.2168L16.4062 4.58008C16.4062 5.27734 16.9121 5.82422 17.5273 5.81055Z" fill="#ffcc00"/>
  <path d="M1.18945 22.3398L33.8516 22.3398C34.4941 22.3398 35.041 21.8477 35.041 21.2461C35.041 20.6445 34.4941 20.1523 33.8516 20.1523L1.18945 20.1523C0.546875 20.1523 0 20.6445 0 21.2461C0 21.8477 0.546875 22.3398 1.18945 22.3398Z" fill="white"/>
 </g>
</svg>
