<?xml version="1.0" encoding="UTF-8"?>
<!--Generator: Apple Native CoreSVG 326-->
<!DOCTYPE svg
PUBLIC "-//W3C//DTD SVG 1.1//EN"
       "http://www.w3.org/Graphics/SVG/1.1/DTD/svg11.dtd">
<svg version="1.1" xmlns="http://www.w3.org/2000/svg" xmlns:xlink="http://www.w3.org/1999/xlink" viewBox="0 0 28.2461 27.9043">
 <g>
  <rect height="27.9043" opacity="0" width="28.2461" x="0" y="0"/>
  <path d="M13.9453 27.8906C21.6426 27.8906 27.8906 21.6426 27.8906 13.9453C27.8906 6.24805 21.6426 0 13.9453 0C6.24805 0 0 6.24805 0 13.9453C0 21.6426 6.24805 27.8906 13.9453 27.8906ZM13.9453 25.5664C7.51953 25.5664 2.32422 20.3711 2.32422 13.9453C2.32422 7.51953 7.51953 2.32422 13.9453 2.32422C20.3711 2.32422 25.5664 7.51953 25.5664 13.9453C25.5664 20.3711 20.3711 25.5664 13.9453 25.5664Z" fill="black" fill-opacity="0.85"/>
  <path d="M8.88672 13.6719C8.88672 13.248 8.51758 12.9199 8.05273 12.9199L6.28906 12.9199C5.82422 12.9199 5.46875 13.2617 5.46875 13.6719C5.46875 14.082 5.82422 14.4375 6.28906 14.4375L8.05273 14.4375C8.53125 14.4375 8.88672 14.1094 8.88672 13.6719ZM10.3633 10.2812C10.6777 9.98047 10.6504 9.48828 10.3223 9.17383L9.05078 7.90234C8.70898 7.54688 8.23047 7.57422 7.94336 7.86133C7.64258 8.16211 7.65625 8.62695 7.99805 8.98242L9.25586 10.2402C9.58398 10.5547 10.0625 10.5957 10.3633 10.2812ZM13.9316 8.36719C14.3555 8.36719 14.6973 7.98438 14.6973 7.5332L14.6973 5.76953C14.6973 5.29102 14.3418 4.94922 13.9316 4.94922C13.5215 4.94922 13.1797 5.29102 13.1797 5.76953L13.1797 7.5332C13.1797 7.99805 13.5078 8.36719 13.9316 8.36719ZM17.5137 10.2812C17.8145 10.582 18.293 10.5684 18.6211 10.2402L19.8652 8.98242C20.207 8.62695 20.2207 8.17578 19.9336 7.86133C19.6328 7.56055 19.1406 7.56055 18.8125 7.90234L17.541 9.17383C17.1992 9.50195 17.1992 9.98047 17.5137 10.2812ZM18.9766 13.6719C18.9766 14.0957 19.3457 14.4375 19.8105 14.4375L21.5879 14.4375C22.0527 14.4375 22.3945 14.0957 22.3945 13.6719C22.3945 13.2617 22.0527 12.9199 21.5879 12.9199L19.8105 12.9199C19.3457 12.9199 18.9766 13.248 18.9766 13.6719ZM10.0898 15.1074L17.7734 15.1074C17.9102 14.7109 18.0059 14.2734 18.0059 13.8496C18.0059 11.6211 16.1602 9.76172 13.9316 9.76172C11.7168 9.76172 9.85742 11.6211 9.85742 13.8496C9.85742 14.2734 9.95312 14.7109 10.0898 15.1074ZM6.27539 17.5957L21.6016 17.5957C22.0117 17.5957 22.3945 17.2676 22.3945 16.8438C22.3945 16.4062 22.0254 16.1055 21.6016 16.1055L6.27539 16.1055C5.85156 16.1055 5.46875 16.4199 5.46875 16.8438C5.46875 17.2676 5.86523 17.5957 6.27539 17.5957ZM7.23242 20.0293C7.60156 20.0293 7.88867 19.7285 7.88867 19.373C7.88867 19.0176 7.60156 18.7168 7.23242 18.7168C6.87695 18.7168 6.58984 19.0176 6.58984 19.373C6.58984 19.7285 6.87695 20.0293 7.23242 20.0293ZM10.5957 20.0293C10.9512 20.0293 11.252 19.7285 11.252 19.373C11.252 19.0176 10.9512 18.7168 10.5957 18.7168C10.2402 18.7168 9.93945 19.0176 9.93945 19.373C9.93945 19.7285 10.2402 20.0293 10.5957 20.0293ZM13.9453 20.0293C14.3145 20.0293 14.6016 19.7285 14.6016 19.373C14.6016 19.0176 14.3145 18.7168 13.9453 18.7168C13.5898 18.7168 13.3027 19.0176 13.3027 19.373C13.3027 19.7285 13.5898 20.0293 13.9453 20.0293ZM17.3086 20.0293C17.6641 20.0293 17.9512 19.7285 17.9512 19.373C17.9512 19.0176 17.6641 18.7168 17.3086 18.7168C16.9531 18.7168 16.6523 19.0176 16.6523 19.373C16.6523 19.7285 16.9531 20.0293 17.3086 20.0293ZM20.6582 20.0293C21.0137 20.0293 21.3145 19.7285 21.3145 19.373C21.3145 19.0176 21.0137 18.7168 20.6582 18.7168C20.3027 18.7168 20.002 19.0176 20.002 19.373C20.002 19.7285 20.3027 20.0293 20.6582 20.0293ZM8.90039 21.8613C9.26953 21.8613 9.55664 21.5742 9.55664 21.2188C9.55664 20.8633 9.26953 20.5625 8.90039 20.5625C8.54492 20.5625 8.25781 20.8633 8.25781 21.2188C8.25781 21.5742 8.54492 21.8613 8.90039 21.8613ZM12.2637 21.8613C12.6191 21.8613 12.9199 21.5742 12.9199 21.2188C12.9199 20.8633 12.6191 20.5625 12.2637 20.5625C11.9082 20.5625 11.6074 20.8633 11.6074 21.2188C11.6074 21.5742 11.9082 21.8613 12.2637 21.8613ZM15.6133 21.8613C15.9824 21.8613 16.2695 21.5742 16.2695 21.2188C16.2695 20.8633 15.9824 20.5625 15.6133 20.5625C15.2578 20.5625 14.9707 20.8633 14.9707 21.2188C14.9707 21.5742 15.2578 21.8613 15.6133 21.8613ZM18.9766 21.8613C19.332 21.8613 19.6191 21.5742 19.6191 21.2188C19.6191 20.8633 19.332 20.5625 18.9766 20.5625C18.6074 20.5625 18.3203 20.8633 18.3203 21.2188C18.3203 21.5742 18.6074 21.8613 18.9766 21.8613Z" fill="black" fill-opacity="0.85"/>
 </g>
</svg>
