<?xml version="1.0" encoding="UTF-8"?>
<!--Generator: Apple Native CoreSVG 326-->
<!DOCTYPE svg
PUBLIC "-//W3C//DTD SVG 1.1//EN"
       "http://www.w3.org/Graphics/SVG/1.1/DTD/svg11.dtd">
<svg version="1.1" xmlns="http://www.w3.org/2000/svg" xmlns:xlink="http://www.w3.org/1999/xlink" viewBox="0 0 27.4121 27.084">
 <g>
  <rect height="27.084" opacity="0" width="27.4121" x="0" y="0"/>
  <path d="M13.5352 2.84375C14.3145 2.84375 14.957 2.21484 14.957 1.42188C14.957 0.628906 14.3145 0 13.5352 0C12.7422 0 12.1133 0.628906 12.1133 1.42188C12.1133 2.21484 12.7422 2.84375 13.5352 2.84375ZM22.1074 6.38477C22.8867 6.38477 23.5156 5.75586 23.5156 4.96289C23.5156 4.16992 22.8867 3.54102 22.1074 3.54102C21.3145 3.54102 20.6855 4.16992 20.6855 4.96289C20.6855 5.75586 21.3145 6.38477 22.1074 6.38477ZM25.6484 14.957C26.4277 14.957 27.0566 14.3281 27.0566 13.5352C27.0566 12.7422 26.4277 12.1133 25.6484 12.1133C24.8555 12.1133 24.2266 12.7422 24.2266 13.5352C24.2266 14.3281 24.8555 14.957 25.6484 14.957ZM22.1074 23.5293C22.8867 23.5293 23.5156 22.9004 23.5156 22.1074C23.5156 21.3145 22.8867 20.6855 22.1074 20.6855C21.3145 20.6855 20.6855 21.3145 20.6855 22.1074C20.6855 22.9004 21.3145 23.5293 22.1074 23.5293ZM13.5352 27.0703C14.3145 27.0703 14.957 26.4414 14.957 25.6484C14.957 24.8555 14.3145 24.2266 13.5352 24.2266C12.7422 24.2266 12.1133 24.8555 12.1133 25.6484C12.1133 26.4414 12.7422 27.0703 13.5352 27.0703ZM4.96289 23.5293C5.75586 23.5293 6.38477 22.9004 6.38477 22.1074C6.38477 21.3145 5.75586 20.6855 4.96289 20.6855C4.16992 20.6855 3.54102 21.3145 3.54102 22.1074C3.54102 22.9004 4.16992 23.5293 4.96289 23.5293ZM1.42188 14.957C2.21484 14.957 2.84375 14.3281 2.84375 13.5352C2.84375 12.7422 2.21484 12.1133 1.42188 12.1133C0.628906 12.1133 0 12.7422 0 13.5352C0 14.3281 0.628906 14.957 1.42188 14.957ZM4.96289 6.38477C5.75586 6.38477 6.38477 5.75586 6.38477 4.96289C6.38477 4.16992 5.75586 3.54102 4.96289 3.54102C4.16992 3.54102 3.54102 4.16992 3.54102 4.96289C3.54102 5.75586 4.16992 6.38477 4.96289 6.38477Z" fill="black" fill-opacity="0.85"/>
  <path d="M13.5352 20.4941C17.377 20.4941 20.4941 17.377 20.4941 13.5352C20.4941 9.69336 17.377 6.5625 13.5352 6.5625C9.69336 6.5625 6.5625 9.69336 6.5625 13.5352C6.5625 17.377 9.69336 20.4941 13.5352 20.4941Z" fill="black" fill-opacity="0.85"/>
 </g>
</svg>
