<?xml version="1.0" encoding="UTF-8"?>
<!--Generator: Apple Native CoreSVG 326-->
<!DOCTYPE svg
PUBLIC "-//W3C//DTD SVG 1.1//EN"
       "http://www.w3.org/Graphics/SVG/1.1/DTD/svg11.dtd">
<svg version="1.1" xmlns="http://www.w3.org/2000/svg" xmlns:xlink="http://www.w3.org/1999/xlink" viewBox="0 0 38.3906 32.9082">
 <g>
  <rect height="32.9082" opacity="0" width="38.3906" x="0" y="0"/>
  <path d="M26.4961 15.7773C26.4961 17.3841 25.9723 18.8853 25.0826 20.1113L22.0115 20.1113C23.3886 19.1575 24.2949 17.5664 24.2949 15.7773C24.2949 12.8789 21.916 10.5 19.0176 10.5C16.1191 10.5 13.7402 12.8789 13.7402 15.7773C13.7402 17.5664 14.6466 19.1575 16.0236 20.1113L12.9564 20.1113C12.065 18.8853 11.5391 17.3841 11.5391 15.7773C11.5391 11.6758 14.9434 8.28516 19.0176 8.28516C23.1055 8.28516 26.4961 11.6758 26.4961 15.7773ZM9.05078 15.4219C9.06445 16.0371 8.53125 16.5293 7.82031 16.5293L4.45703 16.5293C3.75977 16.5293 3.24023 16.0371 3.24023 15.4219C3.24023 14.8066 3.75977 14.3145 4.45703 14.3145L7.82031 14.3145C8.53125 14.3145 9.03711 14.8203 9.05078 15.4219ZM34.7949 15.4219C34.7949 16.0371 34.2891 16.5293 33.5781 16.5293L30.2148 16.5293C29.5039 16.5293 28.998 16.0371 28.9844 15.4219C28.9707 14.8066 29.5039 14.3145 30.2148 14.3145L33.5781 14.3145C34.2891 14.3145 34.7949 14.8203 34.7949 15.4219ZM9.51562 4.68945L11.8945 7.06836C12.3867 7.57422 12.3867 8.28516 11.9629 8.72266C11.5527 9.16016 10.8145 9.14648 10.3086 8.64062L7.92969 6.26172C7.42383 5.75586 7.42383 5.04492 7.875 4.62109C8.29883 4.19727 8.99609 4.18359 9.51562 4.68945ZM30.1738 4.62109C30.5977 5.05859 30.6113 5.75586 30.1055 6.26172L27.7266 8.64062C27.2207 9.14648 26.5098 9.14648 26.0723 8.72266C25.6348 8.29883 25.6484 7.57422 26.1543 7.06836L28.5332 4.68945C29.0391 4.18359 29.75 4.18359 30.1738 4.62109ZM20.125 1.2168L20.125 4.58008C20.125 5.27734 19.6328 5.79688 19.0176 5.81055C18.4023 5.82422 17.9102 5.27734 17.9102 4.58008L17.9102 1.2168C17.9102 0.505859 18.4023 0 19.0176 0C19.6328 0 20.125 0.505859 20.125 1.2168Z" fill="black" fill-opacity="0.85"/>
  <path d="M4.10156 27.0977L31.8691 27.0977C32.3613 27.0977 32.7305 26.7148 32.7305 26.2227C32.7305 25.7305 32.3613 25.3613 31.8691 25.3613L4.10156 25.3613C3.62305 25.3613 3.24023 25.7305 3.24023 26.2227C3.24023 26.7148 3.62305 27.0977 4.10156 27.0977ZM6.16602 32.3477L33.9336 32.3477C34.4121 32.3477 34.7949 31.9785 34.7949 31.4863C34.7949 30.9805 34.4121 30.6113 33.9336 30.6113L6.16602 30.6113C5.6875 30.6113 5.30469 30.9805 5.30469 31.4863C5.30469 31.9785 5.6875 32.3477 6.16602 32.3477ZM6.16602 21.834L33.9336 21.834C34.4121 21.834 34.7949 21.4648 34.7949 20.9727C34.7949 20.4805 34.4121 20.1113 33.9336 20.1113L6.16602 20.1113C5.6875 20.1113 5.30469 20.4805 5.30469 20.9727C5.30469 21.4648 5.6875 21.834 6.16602 21.834Z" fill="black" fill-opacity="0.85"/>
 </g>
</svg>
