<?xml version="1.0" encoding="UTF-8"?>
<!--Generator: Apple Native CoreSVG 326-->
<!DOCTYPE svg
PUBLIC "-//W3C//DTD SVG 1.1//EN"
       "http://www.w3.org/Graphics/SVG/1.1/DTD/svg11.dtd">
<svg version="1.1" xmlns="http://www.w3.org/2000/svg" xmlns:xlink="http://www.w3.org/1999/xlink" viewBox="0 0 42.6152 14.2598">
 <g>
  <rect height="14.2598" opacity="0" width="42.6152" x="0" y="0"/>
  <path d="M21.1367 5.11328C21.6016 5.11328 22.0117 5.38672 22.2441 5.89258L23.7207 9.16016C25.3613 12.7285 28.3555 14.2461 31.6504 14.2461C36.4629 14.2461 39.8535 11.2793 40.6328 6.05664L40.8926 4.36133C41.166 2.51562 42.2598 1.92773 42.2598 1.13477C42.2598 0.4375 41.7539 0 40.8105 0C36.5039 0 32.5938 0.21875 30.2695 0.560547C25.3887 1.28516 23.4746 2.5293 21.1367 2.5293C18.7852 2.5293 16.8711 1.28516 11.9902 0.560547C9.66602 0.21875 5.75586 0 1.46289 0C0.519531 0 0 0.4375 0 1.13477C0 1.92773 1.10742 2.51562 1.38086 4.36133L1.64062 6.05664C2.40625 11.2793 5.79688 14.2461 10.623 14.2461C13.918 14.2461 16.9121 12.7285 18.5391 9.16016L20.0293 5.89258C20.248 5.38672 20.6582 5.11328 21.1367 5.11328ZM10.6367 12.1816C6.125 12.1816 3.63672 9.0918 3.63672 4.68945C3.63672 3.14453 4.93555 2.40625 7.82031 2.40625C13.9316 2.40625 16.9395 3.58203 16.9395 5.89258C16.9395 9.37891 14.6152 12.1816 10.6367 12.1816ZM31.623 12.1816C27.6582 12.1816 25.3203 9.37891 25.3203 5.89258C25.3203 3.58203 28.3281 2.40625 34.4395 2.40625C37.3379 2.40625 38.623 3.14453 38.623 4.68945C38.623 9.0918 36.1348 12.1816 31.623 12.1816Z" fill="black" fill-opacity="0.85"/>
  <path d="M10.6367 12.1816C6.125 12.1816 3.63672 9.0918 3.63672 4.68945C3.63672 3.14453 4.93555 2.40625 7.82031 2.40625C13.9316 2.40625 16.9395 3.58203 16.9395 5.89258C16.9395 9.37891 14.6152 12.1816 10.6367 12.1816ZM31.623 12.1816C27.6582 12.1816 25.3203 9.37891 25.3203 5.89258C25.3203 3.58203 28.3281 2.40625 34.4395 2.40625C37.3379 2.40625 38.623 3.14453 38.623 4.68945C38.623 9.0918 36.1348 12.1816 31.623 12.1816Z" fill="black" fill-opacity="0.2125"/>
 </g>
</svg>
