<?xml version="1.0" encoding="UTF-8"?>
<!--Generator: Apple Native CoreSVG 326-->
<!DOCTYPE svg
PUBLIC "-//W3C//DTD SVG 1.1//EN"
       "http://www.w3.org/Graphics/SVG/1.1/DTD/svg11.dtd">
<svg version="1.1" xmlns="http://www.w3.org/2000/svg" xmlns:xlink="http://www.w3.org/1999/xlink" viewBox="0 0 28.2461 27.9043">
 <g>
  <rect height="27.9043" opacity="0" width="28.2461" x="0" y="0"/>
  <path d="M13.9453 27.8906C21.6426 27.8906 27.8906 21.6426 27.8906 13.9453C27.8906 6.24805 21.6426 0 13.9453 0C6.24805 0 0 6.24805 0 13.9453C0 21.6426 6.24805 27.8906 13.9453 27.8906ZM13.9453 25.5664C7.51953 25.5664 2.32422 20.3711 2.32422 13.9453C2.32422 7.51953 7.51953 2.32422 13.9453 2.32422C20.3711 2.32422 25.5664 7.51953 25.5664 13.9453C25.5664 20.3711 20.3711 25.5664 13.9453 25.5664Z" fill="black" fill-opacity="0.85"/>
  <path d="M6.79492 16.7754L8.46289 16.7754C8.88672 16.7754 9.22852 16.4746 9.22852 16.0645C9.22852 15.668 8.88672 15.3672 8.46289 15.3672L6.79492 15.3672C6.35742 15.3672 6.0293 15.6816 6.0293 16.0645C6.0293 16.4473 6.35742 16.7754 6.79492 16.7754ZM9.57031 12.8652C9.87109 13.166 10.3359 13.1934 10.6094 12.9062C10.8965 12.6191 10.8555 12.168 10.5684 11.8672L9.37891 10.6777C9.06445 10.3633 8.61328 10.3906 8.33984 10.6504C8.06641 10.9375 8.06641 11.3613 8.38086 11.6758ZM13.9316 11.1152C14.3281 11.1152 14.6426 10.7734 14.6426 10.3633L14.6426 7.84766L14.6016 7.3418L14.7793 7.51953L15.6133 8.38086C15.7227 8.50391 15.9277 8.58594 16.0918 8.58594C16.4473 8.58594 16.707 8.3125 16.707 7.9707C16.707 7.79297 16.666 7.64258 16.4883 7.47852L14.4102 5.53711C14.2461 5.38672 14.0957 5.31836 13.9316 5.31836C13.7676 5.31836 13.6172 5.38672 13.4531 5.53711L11.375 7.47852C11.2109 7.64258 11.1562 7.79297 11.1562 7.9707C11.1562 8.3125 11.416 8.58594 11.7715 8.58594C11.9355 8.58594 12.127 8.50391 12.2637 8.38086L13.1934 7.46484L13.2617 7.38281L13.2207 7.84766L13.2207 10.3633C13.2207 10.7734 13.5352 11.1152 13.9316 11.1152ZM17.2812 12.9062C17.5547 13.1797 17.9922 13.1797 18.3066 12.8652L19.4824 11.6758C19.7832 11.3613 19.7969 10.9375 19.5234 10.6504C19.25 10.3633 18.7988 10.377 18.4844 10.6777L17.3086 11.8672C16.9941 12.1816 16.9805 12.6191 17.2812 12.9062ZM19.4141 16.7754L21.0684 16.7754C21.5195 16.7754 21.834 16.4609 21.834 16.0645C21.834 15.6816 21.5195 15.3672 21.0684 15.3672L19.4141 15.3672C18.9902 15.3672 18.6348 15.668 18.6348 16.0645C18.6348 16.4746 18.9902 16.7754 19.4141 16.7754ZM17.7324 16.2285C17.7324 14.1504 16.0098 12.4141 13.9316 12.4141C11.8672 12.4141 10.1309 14.1504 10.1309 16.2285C10.1309 16.6387 10.2129 17.0352 10.3496 17.4316L17.5137 17.4316C17.6504 17.0352 17.7324 16.6387 17.7324 16.2285ZM6.78125 19.6602L21.082 19.6602C21.4785 19.6602 21.834 19.3594 21.834 18.9629C21.834 18.5664 21.4922 18.2656 21.082 18.2656L6.78125 18.2656C6.38477 18.2656 6.0293 18.5664 6.0293 18.9629C6.0293 19.3594 6.39844 19.6602 6.78125 19.6602Z" fill="black" fill-opacity="0.85"/>
 </g>
</svg>
