<?xml version="1.0" encoding="UTF-8"?>
<!--Generator: Apple Native CoreSVG 326-->
<!DOCTYPE svg
PUBLIC "-//W3C//DTD SVG 1.1//EN"
       "http://www.w3.org/Graphics/SVG/1.1/DTD/svg11.dtd">
<svg version="1.1" xmlns="http://www.w3.org/2000/svg" xmlns:xlink="http://www.w3.org/1999/xlink" viewBox="0 0 48.8496 40.2363">
 <g>
  <rect height="40.2363" opacity="0" width="48.8496" x="0" y="0"/>
  <path d="M14.5332 27.084C14.5332 29.1211 12.9199 30.7344 10.8691 30.7344C8.8457 30.7344 7.21875 29.1074 7.21875 27.084C7.21875 25.0469 8.8457 23.4199 10.8691 23.4199C12.9062 23.4199 14.5332 25.0469 14.5332 27.084ZM42.082 27.084C42.082 29.1074 40.4551 30.7344 38.418 30.7344C36.3945 30.7344 34.7676 29.1074 34.7676 27.084C34.7676 25.0605 36.4082 23.4199 38.418 23.4199C40.4551 23.4199 42.082 25.0469 42.082 27.084ZM46.1699 12.1953L46.7852 13.0977C47.8652 14.6562 48.4941 16.6113 48.4941 18.3203L48.4941 24.1582C48.4941 26.8652 47.4141 28.0957 45.0215 28.0957L43.5723 28.0957C43.6406 27.7676 43.668 27.4395 43.668 27.084C43.668 24.1719 41.3301 21.834 38.418 21.834C35.5332 21.834 33.168 24.1855 33.168 27.084C33.168 27.4395 33.209 27.7676 33.2637 28.0957L16.0234 28.0957C16.0918 27.7676 16.1191 27.4395 16.1191 27.084C16.1191 24.1719 13.7812 21.834 10.8691 21.834C7.9707 21.834 5.61914 24.1719 5.61914 27.084C5.61914 27.4395 5.66016 27.7676 5.71484 28.0957L3.48633 28.0957C1.3125 28.0957 0 26.7559 0 24.5273L0 22.1758C0 18.4297 2.31055 16.2969 6.97266 15.7227L12.0723 15.0938L17.582 11.6348C18.3657 11.1454 19.0895 10.7405 19.8105 10.4104L19.8105 12.0039C19.8105 14.2734 21.2324 15.7227 23.4336 15.7227L29.627 15.7227C31.8281 15.7227 33.25 14.2734 33.25 12.0039L33.25 8.99609L39.498 8.99609C42.6699 8.99609 44.5977 9.91211 46.1699 12.1953Z" fill="black" fill-opacity="0.85"/>
  <path d="M23.4336 13.8633L29.627 13.8633C30.7891 13.8633 31.3906 13.248 31.3906 12.0039L31.3906 7.24609C31.3906 6.01562 30.7891 5.40039 29.627 5.40039L23.4336 5.40039C22.2715 5.40039 21.6699 6.01562 21.6699 7.24609L21.6699 12.0039C21.6699 13.248 22.2715 13.8633 23.4336 13.8633ZM22.8594 6.50781L24.3496 6.50781L24.3496 3.77344C24.3496 2.36523 25.1973 1.47656 26.5234 1.47656C27.8633 1.47656 28.7109 2.36523 28.7109 3.77344L28.7109 6.50781L30.1875 6.50781L30.1875 4.00586C30.1875 1.54492 28.7656 0 26.5234 0C24.3086 0 22.8594 1.54492 22.8594 4.00586Z" fill="black" fill-opacity="0.85"/>
 </g>
</svg>
