<?xml version="1.0" encoding="UTF-8"?>
<!--Generator: Apple Native CoreSVG 326-->
<!DOCTYPE svg
PUBLIC "-//W3C//DTD SVG 1.1//EN"
       "http://www.w3.org/Graphics/SVG/1.1/DTD/svg11.dtd">
<svg version="1.1" xmlns="http://www.w3.org/2000/svg" xmlns:xlink="http://www.w3.org/1999/xlink" viewBox="0 0 25.7578 24.7051">
 <g>
  <rect height="24.7051" opacity="0" width="25.7578" x="0" y="0"/>
  <path d="M25.4023 2.81641L25.4023 0.519531C23.4336 0.970703 21.8066 1.72266 19.8516 2.93945L13.6172 6.84961L7.84766 7.54688C2.625 8.17578 0.123047 10.5137 0.123047 14.6699L0.123047 17.3086C0.123047 19.7559 1.51758 21.1914 3.91016 21.1914L8.57227 21.1914L8.57227 18.9902L4.04688 18.9902C2.9668 18.9902 2.33789 18.2246 2.33789 17.0078L2.33789 14.6699C2.33789 11.8398 4.23828 10.2402 8.13477 9.74805L14.3828 8.95508L21.0273 4.8125C22.5859 3.8418 23.8711 3.21289 25.4023 2.81641ZM25.4023 21.1914L25.4023 18.9902L16.0371 18.9902L16.0371 21.1914ZM12.2227 24.7051C15.1211 24.7051 17.3496 22.4766 17.3496 19.5781C17.3496 16.6934 15.1211 14.4512 12.2227 14.4512C9.33789 14.4512 7.0957 16.6934 7.0957 19.5781C7.0957 22.4766 9.33789 24.7051 12.2227 24.7051ZM12.2227 22.4902C10.582 22.4902 9.29688 21.2188 9.29688 19.5781C9.29688 17.9375 10.582 16.6523 12.2227 16.6523C13.8633 16.6523 15.1348 17.9375 15.1348 19.5781C15.1348 21.2188 13.8633 22.4902 12.2227 22.4902ZM1.01172 1.96875L6.13867 1.96875C6.68555 1.96875 7.0957 2.0918 7.4375 2.43359L13.3438 8.33984L15.2031 7.31445L9.02344 1.13477C8.23047 0.328125 7.17773 0 5.91992 0L1.01172 0C0.382812 0 0 0.382812 0 0.970703C0 1.55859 0.382812 1.96875 1.01172 1.96875Z" fill="black" fill-opacity="0.85"/>
 </g>
</svg>
