<?xml version="1.0" encoding="UTF-8"?>
<!--Generator: Apple Native CoreSVG 326-->
<!DOCTYPE svg
PUBLIC "-//W3C//DTD SVG 1.1//EN"
       "http://www.w3.org/Graphics/SVG/1.1/DTD/svg11.dtd">
<svg version="1.1" xmlns="http://www.w3.org/2000/svg" xmlns:xlink="http://www.w3.org/1999/xlink" viewBox="0 0 52.0488 30.3379">
 <g>
  <rect height="30.3379" opacity="0" width="52.0488" x="0" y="0"/>
  <path d="M42.1094 4.96289L43.709 6.23438L47.4551 2.40625C47.7695 2.0918 48.1523 1.96875 48.5898 1.96875L50.668 1.96875C51.2969 1.96875 51.6934 1.55859 51.6934 0.970703C51.6934 0.382812 51.2969 0 50.668 0L48.8223 0C47.6602 0 46.6484 0.328125 45.8691 1.12109ZM10.8691 25.7852C12.9199 25.7852 14.5332 24.1719 14.5332 22.1348C14.5332 20.0977 12.9062 18.4707 10.8691 18.4707C8.8457 18.4707 7.21875 20.0977 7.21875 22.1348C7.21875 24.1582 8.8457 25.7852 10.8691 25.7852ZM38.418 25.7852C40.4551 25.7852 42.082 24.1582 42.082 22.1348C42.082 20.0977 40.4551 18.4707 38.418 18.4707C36.4082 18.4707 34.7676 20.1113 34.7676 22.1348C34.7676 24.1582 36.3945 25.7852 38.418 25.7852ZM46.7852 8.14844L46.1699 7.24609C44.5977 4.96289 42.6699 4.04688 39.498 4.04688L28.8203 4.04688C23.1875 4.04688 20.9316 4.59375 17.582 6.68555L12.0723 10.1445L6.97266 10.7734C2.31055 11.3477 0 13.4805 0 17.2266L0 19.5781C0 21.8066 1.3125 23.1465 3.48633 23.1465L5.71484 23.1465C5.66016 22.8184 5.61914 22.4902 5.61914 22.1348C5.61914 19.2227 7.9707 16.8848 10.8691 16.8848C13.7812 16.8848 16.1191 19.2227 16.1191 22.1348C16.1191 22.4902 16.0918 22.8184 16.0234 23.1465L33.2637 23.1465C33.209 22.8184 33.168 22.4902 33.168 22.1348C33.168 19.2363 35.5332 16.8848 38.418 16.8848C41.3301 16.8848 43.668 19.2227 43.668 22.1348C43.668 22.4902 43.6406 22.8184 43.5723 23.1465L45.0215 23.1465C47.4141 23.1465 48.4941 21.916 48.4941 19.209L48.4941 13.3711C48.4941 11.6621 47.8652 9.70703 46.7852 8.14844Z" fill="#ff3b30"/>
 </g>
</svg>
