<?xml version="1.0" encoding="UTF-8"?>
<!--Generator: Apple Native CoreSVG 326-->
<!DOCTYPE svg
PUBLIC "-//W3C//DTD SVG 1.1//EN"
       "http://www.w3.org/Graphics/SVG/1.1/DTD/svg11.dtd">
<svg version="1.1" xmlns="http://www.w3.org/2000/svg" xmlns:xlink="http://www.w3.org/1999/xlink" viewBox="0 0 48.8496 22.2441">
 <g>
  <rect height="22.2441" opacity="0" width="48.8496" x="0" y="0"/>
  <path d="M1.01172 1.99609L5.37305 1.99609C5.87891 1.99609 6.27539 2.11914 6.60352 2.44727L11.457 7.28711L13.3164 6.26172L8.20312 1.14844C7.41016 0.355469 6.37109 0.0273438 5.12695 0.0273438L1.01172 0.0273438C0.382812 0.0273438 0 0.410156 0 0.998047C0 1.58594 0.382812 1.99609 1.01172 1.99609ZM3.48633 19.0996L7.73828 19.0996L7.73828 16.8984L3.60938 16.8984C2.7207 16.8984 2.20117 16.2969 2.20117 15.2578L2.20117 13.1797C2.20117 10.7324 3.8418 9.35156 7.25977 8.91406L12.8242 8.2168L18.7578 4.52539C21.7793 2.63867 23.5703 2.20117 28.8203 2.20117L39.498 2.20117C41.8633 2.20117 43.2305 2.85742 44.3516 4.45703L44.9668 5.3457C45.8008 6.54883 46.293 8.02539 46.293 9.32422L46.293 15.2988C46.293 16.3926 45.8691 16.8984 44.8984 16.8984L41.5352 16.8984L41.5352 19.0996L45.0215 19.0996C47.4141 19.0996 48.4941 17.8691 48.4941 15.1621L48.4941 9.32422C48.4941 7.61523 47.8652 5.66016 46.7852 4.10156L46.1699 3.19922C44.5977 0.916016 42.6699 0 39.498 0L28.8203 0C23.1875 0 20.9316 0.546875 17.582 2.63867L12.0723 6.09766L6.97266 6.72656C2.31055 7.30078 0 9.43359 0 13.1797L0 15.5312C0 17.7598 1.3125 19.0996 3.48633 19.0996ZM14.1504 19.0996L35.2461 19.0996L35.2461 16.8984L14.1504 16.8984ZM10.8691 22.2168C13.4941 22.2168 15.5449 20.166 15.5449 17.541C15.5449 14.916 13.4941 12.8652 10.8691 12.8652C8.24414 12.8652 6.19336 14.916 6.19336 17.541C6.19336 20.166 8.24414 22.2168 10.8691 22.2168ZM10.8691 20.0156C9.47461 20.0156 8.39453 18.9355 8.39453 17.541C8.39453 16.1465 9.47461 15.0664 10.8691 15.0664C12.2637 15.0664 13.3438 16.1465 13.3438 17.541C13.3438 18.9355 12.2637 20.0156 10.8691 20.0156ZM38.4863 22.2168C41.1113 22.2168 43.1621 20.166 43.1621 17.541C43.1621 14.916 41.1113 12.8652 38.4863 12.8652C35.8613 12.8652 33.8105 14.916 33.8105 17.541C33.8105 20.166 35.8613 22.2168 38.4863 22.2168ZM38.4863 20.0156C37.0918 20.0156 36.0117 18.9355 36.0117 17.541C36.0117 16.1465 37.0918 15.0664 38.4863 15.0664C39.8809 15.0664 40.9609 16.1465 40.9609 17.541C40.9609 18.9355 39.8809 20.0156 38.4863 20.0156Z" fill="#ff3b30"/>
 </g>
</svg>
