<?xml version="1.0" encoding="UTF-8"?>
<!--Generator: Apple Native CoreSVG 326-->
<!DOCTYPE svg
PUBLIC "-//W3C//DTD SVG 1.1//EN"
       "http://www.w3.org/Graphics/SVG/1.1/DTD/svg11.dtd">
<svg version="1.1" xmlns="http://www.w3.org/2000/svg" xmlns:xlink="http://www.w3.org/1999/xlink" viewBox="0 0 48.8496 34.1113">
 <g>
  <rect height="34.1113" opacity="0" width="48.8496" x="0" y="0"/>
  <path d="M10.8691 27.6719C12.9199 27.6719 14.5332 26.0586 14.5332 24.0215C14.5332 21.9844 12.9062 20.3574 10.8691 20.3574C8.8457 20.3574 7.21875 21.9844 7.21875 24.0215C7.21875 26.0449 8.8457 27.6719 10.8691 27.6719ZM38.418 27.6719C40.4551 27.6719 42.082 26.0449 42.082 24.0215C42.082 21.9844 40.4551 20.3574 38.418 20.3574C36.4082 20.3574 34.7676 21.998 34.7676 24.0215C34.7676 26.0449 36.3945 27.6719 38.418 27.6719ZM46.7852 10.0352L46.1699 9.13281C44.5977 6.84961 42.6699 5.93359 39.498 5.93359L28.8203 5.93359C23.1875 5.93359 20.9316 6.48047 17.582 8.57227L12.0723 12.0312L6.97266 12.6602C2.31055 13.2344 0 15.3672 0 19.1133L0 21.4648C0 23.6934 1.3125 25.0332 3.48633 25.0332L5.71484 25.0332C5.66016 24.7051 5.61914 24.377 5.61914 24.0215C5.61914 21.1094 7.9707 18.7715 10.8691 18.7715C13.7812 18.7715 16.1191 21.1094 16.1191 24.0215C16.1191 24.377 16.0918 24.7051 16.0234 25.0332L33.2637 25.0332C33.209 24.7051 33.168 24.377 33.168 24.0215C33.168 21.123 35.5332 18.7715 38.418 18.7715C41.3301 18.7715 43.668 21.1094 43.668 24.0215C43.668 24.377 43.6406 24.7051 43.5723 25.0332L45.0215 25.0332C47.4141 25.0332 48.4941 23.8027 48.4941 21.0957L48.4941 15.2578C48.4941 13.5488 47.8652 11.5938 46.7852 10.0352ZM27.0156 18.9766C26.0039 18.9766 25.1562 18.1426 25.1562 17.1719C25.1562 16.2012 25.9766 15.3945 27.0156 15.3945C28.041 15.3945 28.875 16.2012 28.875 17.1719C28.875 18.1426 28.0273 18.9766 27.0156 18.9766ZM27.0156 12.7012C26.3184 12.7012 25.8262 12.209 25.7988 11.4844L25.5117 1.50391C25.4844 0.601562 26.0859 0 27.0156 0C27.9453 0 28.5469 0.601562 28.5195 1.50391L28.2188 11.4844C28.1914 12.209 27.7129 12.7012 27.0156 12.7012Z" fill="#ff3b30"/>
 </g>
</svg>
