<?xml version="1.0" encoding="UTF-8"?>
<!--Generator: Apple Native CoreSVG 326-->
<!DOCTYPE svg
PUBLIC "-//W3C//DTD SVG 1.1//EN"
       "http://www.w3.org/Graphics/SVG/1.1/DTD/svg11.dtd">
<svg version="1.1" xmlns="http://www.w3.org/2000/svg" xmlns:xlink="http://www.w3.org/1999/xlink" viewBox="0 0 48.8496 25.2793">
 <g>
  <rect height="25.2793" opacity="0" width="48.8496" x="0" y="0"/>
  <path d="M46.1699 4.7168L46.7852 5.61914C47.8652 7.17773 48.4941 9.13281 48.4941 10.8418L48.4941 16.6797C48.4941 19.3867 47.4141 20.6172 45.0215 20.6172L42.9009 20.6172C42.2774 22.453 40.5613 23.7344 38.4863 23.7344C36.4114 23.7344 34.6952 22.453 34.0718 20.6172L15.2837 20.6172C14.6602 22.453 12.9441 23.7344 10.8691 23.7344C8.79421 23.7344 7.07806 22.453 6.45457 20.6172L3.48633 20.6172C1.3125 20.6172 0 19.2773 0 17.0488L0 14.6973C0 10.9512 2.31055 8.81836 6.97266 8.24414L10.3526 7.82731L11.8946 9.85086L7.25977 10.4316C3.8418 10.8691 2.20117 12.25 2.20117 14.6973L2.20117 16.7754C2.20117 17.8145 2.7207 18.416 3.60938 18.416L6.24037 18.416C6.5397 16.1055 8.46324 14.3828 10.8691 14.3828C13.275 14.3828 15.1986 16.1055 15.4979 18.416L33.8576 18.416C34.1569 16.1055 36.0804 14.3828 38.4863 14.3828C40.8922 14.3828 42.8158 16.1055 43.1151 18.416L44.8984 18.416C45.8691 18.416 46.293 17.9102 46.293 16.8164L46.293 10.8418C46.293 9.54297 45.8008 8.06641 44.9668 6.86328L44.3516 5.97461C43.2305 4.375 41.8633 3.71875 39.498 3.71875L28.8203 3.71875C23.5703 3.71875 21.7793 4.15625 18.7578 6.04297L16.7277 7.30593L15.379 5.53929L17.582 4.15625C20.9316 2.06445 23.1875 1.51758 28.8203 1.51758L39.498 1.51758C42.6699 1.51758 44.5977 2.43359 46.1699 4.7168ZM8.39453 19.0586C8.39453 20.4531 9.47461 21.5332 10.8691 21.5332C12.2637 21.5332 13.3438 20.4531 13.3438 19.0586C13.3438 17.6641 12.2637 16.584 10.8691 16.584C9.47461 16.584 8.39453 17.6641 8.39453 19.0586ZM36.0117 19.0586C36.0117 20.4531 37.0918 21.5332 38.4863 21.5332C39.8809 21.5332 40.9609 20.4531 40.9609 19.0586C40.9609 17.6641 39.8809 16.584 38.4863 16.584C37.0918 16.584 36.0117 17.6641 36.0117 19.0586Z" fill="black" fill-opacity="0.85"/>
  <path d="M4.0332 3.80078L7.39648 3.80078C8.91406 3.80078 9.48828 4.06055 10.2539 5.05859L13.9316 9.91211C15.1074 11.457 16.4199 12.127 18.334 12.127L21.3281 12.127L21.3281 13.3027C21.3281 14.2598 22.1758 14.5469 22.8867 14.082L26.332 11.8672C26.9883 11.4434 27.002 10.623 26.3184 10.1855L22.9004 7.98438C22.1758 7.50586 21.3281 7.79297 21.3281 8.76367L21.3281 9.92578L18.334 9.92578C17.0488 9.92578 16.5293 9.63867 15.6816 8.54492L11.9766 3.71875C10.8281 2.20117 9.47461 1.59961 7.39648 1.59961L4.0332 1.59961C3.43164 1.59961 2.93945 2.0918 2.93945 2.69336C2.93945 3.29492 3.43164 3.80078 4.0332 3.80078Z" fill="black" fill-opacity="0.85"/>
 </g>
</svg>
