<?xml version="1.0" encoding="UTF-8"?>
<!--Generator: Apple Native CoreSVG 326-->
<!DOCTYPE svg
PUBLIC "-//W3C//DTD SVG 1.1//EN"
       "http://www.w3.org/Graphics/SVG/1.1/DTD/svg11.dtd">
<svg version="1.1" xmlns="http://www.w3.org/2000/svg" xmlns:xlink="http://www.w3.org/1999/xlink" viewBox="0 0 48.8496 33.8038">
 <g>
  <rect height="33.8038" opacity="0" width="48.8496" x="0" y="0"/>
  <path d="M14.5332 23.8677C14.5332 25.9048 12.9199 27.5181 10.8691 27.5181C8.8457 27.5181 7.21875 25.8912 7.21875 23.8677C7.21875 21.8306 8.8457 20.2037 10.8691 20.2037C12.9062 20.2037 14.5332 21.8306 14.5332 23.8677ZM42.082 23.8677C42.082 25.8912 40.4551 27.5181 38.418 27.5181C36.3945 27.5181 34.7676 25.8912 34.7676 23.8677C34.7676 21.8443 36.4082 20.2037 38.418 20.2037C40.4551 20.2037 42.082 21.8306 42.082 23.8677ZM46.1699 8.97906L46.7852 9.8814C47.8652 11.44 48.4941 13.3951 48.4941 15.1041L48.4941 20.942C48.4941 23.649 47.4141 24.8795 45.0215 24.8795L43.5723 24.8795C43.6406 24.5513 43.668 24.2232 43.668 23.8677C43.668 20.9556 41.3301 18.6177 38.418 18.6177C35.5332 18.6177 33.168 20.9693 33.168 23.8677C33.168 24.2232 33.209 24.5513 33.2637 24.8795L16.0234 24.8795C16.0918 24.5513 16.1191 24.2232 16.1191 23.8677C16.1191 20.9556 13.7812 18.6177 10.8691 18.6177C7.9707 18.6177 5.61914 20.9556 5.61914 23.8677C5.61914 24.2232 5.66016 24.5513 5.71484 24.8795L3.48633 24.8795C1.3125 24.8795 0 23.5396 0 21.3111L0 18.9595C0 15.2134 2.31055 13.0806 6.97266 12.5064L12.0723 11.8775L17.582 8.41851C20.9316 6.32672 23.1875 5.77984 28.8203 5.77984L39.498 5.77984C42.6699 5.77984 44.5977 6.69586 46.1699 8.97906ZM23.8164 15.0357L20.8633 19.8892C20.4668 20.5318 20.7812 21.1334 21.5195 21.1334L27.6035 21.1334C28.3281 21.1334 28.6699 20.5455 28.2734 19.9029L25.293 15.0357C24.9238 14.4341 24.1992 14.4205 23.8164 15.0357Z" fill="black" fill-opacity="0.85"/>
  <path d="M28.2734 28.4888L25.293 33.3423C24.9238 33.9439 24.1992 33.9712 23.8164 33.3423L20.8633 28.4888C20.4668 27.8462 20.7812 27.2447 21.5195 27.2447L27.6035 27.2447C28.3281 27.2447 28.6699 27.8462 28.2734 28.4888Z" fill="black" fill-opacity="0.85"/>
 </g>
</svg>
