<?xml version="1.0" encoding="UTF-8"?>
<!--Generator: Apple Native CoreSVG 326-->
<!DOCTYPE svg
PUBLIC "-//W3C//DTD SVG 1.1//EN"
       "http://www.w3.org/Graphics/SVG/1.1/DTD/svg11.dtd">
<svg version="1.1" xmlns="http://www.w3.org/2000/svg" xmlns:xlink="http://www.w3.org/1999/xlink" viewBox="0 0 31.0625 31.5684">
 <g>
  <rect height="31.5684" opacity="0" width="31.0625" x="0" y="0"/>
  <path d="M27.4258 11.0605L30.0234 15.5312C31.2539 17.6504 30.8438 19.373 28.6836 20.6172L12.6465 29.8867C12.5243 29.9571 12.4036 30.0219 12.285 30.0793C12.5203 29.6933 12.6769 29.2314 12.7533 28.6948C13.1735 28.3687 13.5531 27.9071 13.8906 27.3164L14.4748 26.3039L20.4191 22.8684L18.4366 19.4376L19.7042 17.2406L22.3181 21.7709L27.5078 18.7715C28.2871 18.3066 28.5742 17.418 28.1094 16.6113L25.5527 12.168C25.0605 11.334 24.0898 11.0469 23.3105 11.498L22.8713 11.7515L24.0352 9.73438C24.2064 9.44086 24.3444 9.15589 24.4463 8.88028C25.6169 8.90982 26.6157 9.64942 27.4258 11.0605Z" fill="black" fill-opacity="0.85"/>
  <path d="M18.1426 2.0918L22.6133 4.67578C24.7734 5.91992 25.2793 7.60156 24.0352 9.73438L13.8906 27.3164C13.5531 27.9071 13.1735 28.3687 12.7533 28.6948C12.7917 28.4355 12.8105 28.158 12.8105 27.8633L12.8105 24.7857L13.0867 24.3069L12.8105 24.1476L12.8105 21.5926L14.1918 22.3907L17.9767 15.8278L12.8105 12.847L12.8105 10.3093L19.0725 13.9277L22.0664 8.73633C22.5312 7.92969 22.2852 7.02734 21.5059 6.5625L17.0625 4.00586C16.2285 3.52734 15.2441 3.73242 14.793 4.52539L12.8105 7.96087L12.8105 3.67773C12.8105 3.64369 12.8103 3.60988 12.8072 3.57873L12.9473 3.33594C14.1641 1.23047 15.9277 0.820312 18.1426 2.0918Z" fill="black" fill-opacity="0.85"/>
  <path d="M3.88281 31.5547L9.05078 31.5547C11.5254 31.5547 12.8105 30.2969 12.8105 27.8633L12.8105 3.67773C12.8105 1.24414 11.5254 0 9.05078 0L3.88281 0C1.32617 0 0 1.24414 0 3.67773L0 27.8633C0 30.2969 1.32617 31.5547 3.88281 31.5547ZM3.91016 29.3535C2.93945 29.3535 2.20117 28.6699 2.20117 27.7539L2.20117 3.78711C2.20117 2.87109 2.93945 2.20117 3.91016 2.20117L9.02344 2.20117C9.93945 2.20117 10.6094 2.87109 10.6094 3.78711L10.6094 27.7539C10.6094 28.6699 9.93945 29.3535 9.02344 29.3535ZM1.13477 11.9902L11.6758 11.9902L11.6758 9.78906L1.13477 9.78906ZM1.13477 21.7656L11.6758 21.7656L11.6758 19.5645L1.13477 19.5645Z" fill="black" fill-opacity="0.85"/>
 </g>
</svg>
