<?xml version="1.0" encoding="UTF-8"?>
<!--Generator: Apple Native CoreSVG 326-->
<!DOCTYPE svg
PUBLIC "-//W3C//DTD SVG 1.1//EN"
       "http://www.w3.org/Graphics/SVG/1.1/DTD/svg11.dtd">
<svg version="1.1" xmlns="http://www.w3.org/2000/svg" xmlns:xlink="http://www.w3.org/1999/xlink" viewBox="0 0 33.6738 35.3145">
 <g>
  <rect height="35.3145" opacity="0" width="33.6738" x="0" y="0"/>
  <path d="M22.9551 26.2227L16.3304 30.0424L20.7365 22.3853ZM28.5879 13.6172L30.8848 17.6094C31.9648 19.4551 31.4863 21.3008 29.6816 22.3398L24.5684 25.293L21.8125 20.5153L26.5371 12.3047C26.6149 12.1689 26.6869 12.0331 26.7482 11.8973C27.4614 12.1852 28.0972 12.7629 28.5879 13.6172Z" fill="black" fill-opacity="0.85"/>
  <path d="M15.5176 27.6719L15.4355 27.8176L15.4355 27.6246ZM21.041 18.1152L16.4609 26.0586L15.4355 25.4657L15.4355 14.8819ZM19.6191 4.375L23.6113 6.68555C25.4707 7.75195 25.9766 9.57031 24.9375 11.375L21.9707 16.502L15.4355 12.7235L15.4355 5.27734C15.4355 5.08055 15.427 4.88765 15.4099 4.699C16.4792 3.60427 18.0306 3.45118 19.6191 4.375Z" fill="black" fill-opacity="0.85"/>
  <path d="M1.85938 11.1973L13.5762 11.1973L13.5762 5.27734C13.5762 3.18555 12.2363 1.87305 10.1035 1.87305L5.46875 1.87305C3.25391 1.87305 1.85938 3.18555 1.85938 5.27734ZM1.85938 22.2305L13.5762 22.2305L13.5762 13.0566L1.85938 13.0566ZM5.46875 33.4277L10.1035 33.4277C12.2363 33.4277 13.5762 32.1016 13.5762 30.0098L13.5762 24.1035L1.85938 24.1035L1.85938 30.0098C1.85938 32.1016 3.25391 33.4277 5.46875 33.4277Z" fill="black" fill-opacity="0.85"/>
 </g>
</svg>
