<?xml version="1.0" encoding="UTF-8"?>
<!--Generator: Apple Native CoreSVG 326-->
<!DOCTYPE svg
PUBLIC "-//W3C//DTD SVG 1.1//EN"
       "http://www.w3.org/Graphics/SVG/1.1/DTD/svg11.dtd">
<svg version="1.1" xmlns="http://www.w3.org/2000/svg" xmlns:xlink="http://www.w3.org/1999/xlink" viewBox="0 0 30.8848 29.1895">
 <g>
  <rect height="29.1895" opacity="0" width="30.8848" x="0" y="0"/>
  <path d="M1.81836 25.9219L28.7109 25.9219L28.7109 25.0059C28.7109 24.459 28.3965 24.1309 27.8359 24.1309L26.9609 24.1309L26.9609 9.37891L28.1641 9.37891C28.916 9.37891 29.3535 8.83203 29.3535 8.27148C29.3535 7.86133 29.1211 7.50586 28.6152 7.21875L16.9395 0.478516C16.3926 0.164062 15.8184 0 15.2578 0C14.6973 0 14.1094 0.164062 13.5898 0.478516L1.91406 7.21875C1.39453 7.50586 1.17578 7.86133 1.17578 8.27148C1.17578 8.83203 1.61328 9.37891 2.36523 9.37891L3.56836 9.37891L3.56836 24.1309L2.70703 24.1309C2.14648 24.1309 1.81836 24.459 1.81836 25.0059ZM5.63281 24.1309L5.63281 7.62891L14.7246 2.5293C14.8887 2.43359 15.0801 2.37891 15.2578 2.37891C15.4355 2.37891 15.627 2.43359 15.8047 2.5293L24.8965 7.62891L24.8965 24.1309ZM1.09375 29.1758L29.4219 29.1758C30.0234 29.1758 30.5293 28.6699 30.5293 28.0684C30.5293 27.4668 30.0234 26.9746 29.4219 26.9746L1.09375 26.9746C0.492188 26.9746 0 27.4668 0 28.0684C0 28.6699 0.492188 29.1758 1.09375 29.1758Z" fill="black" fill-opacity="0.85"/>
  <path d="M10.7461 19.9883C11.1836 19.9883 11.4844 19.6738 11.4844 19.1953L11.4844 16.8848L12.291 16.1055L14.793 19.6055C14.957 19.8379 15.1758 19.9883 15.4629 19.9883C15.8594 19.9883 16.1738 19.7012 16.1738 19.3184C16.1738 19.127 16.0918 18.9629 15.9688 18.7852L13.3574 15.1758L15.791 12.6191C15.9688 12.4141 16.0645 12.3047 16.0645 12.0723C16.0645 11.7168 15.7773 11.416 15.3945 11.416C15.1758 11.416 14.9434 11.5527 14.8066 11.7031L11.5254 15.2988L11.4844 15.2988L11.4844 8.99609C11.4844 8.51758 11.1836 8.18945 10.7461 8.18945C10.2949 8.18945 9.98047 8.50391 9.98047 8.98242L9.98047 19.1953C9.98047 19.6738 10.2949 19.9883 10.7461 19.9883ZM18.4434 19.9883C18.7852 19.9883 19.168 19.7832 19.168 19.1953L19.168 14.916C19.168 13.9316 19.5371 12.8652 20.7129 12.8652C20.9863 12.8652 21.2598 12.8242 21.4648 12.7012C21.6426 12.6055 21.752 12.4414 21.752 12.1953C21.752 11.6895 21.3691 11.416 20.8633 11.416C19.9883 11.416 19.3867 12.1816 19.1816 13.0566L19.0996 13.0566L19.0996 12.1816C19.0996 11.7441 18.7988 11.416 18.416 11.416C18.0195 11.416 17.7188 11.7441 17.7188 12.1816L17.7188 19.1953C17.7188 19.6738 17.9785 19.9883 18.4434 19.9883Z" fill="black" fill-opacity="0.85"/>
 </g>
</svg>
