<?xml version="1.0" encoding="UTF-8"?>
<!--Generator: Apple Native CoreSVG 326-->
<!DOCTYPE svg
PUBLIC "-//W3C//DTD SVG 1.1//EN"
       "http://www.w3.org/Graphics/SVG/1.1/DTD/svg11.dtd">
<svg version="1.1" xmlns="http://www.w3.org/2000/svg" xmlns:xlink="http://www.w3.org/1999/xlink" viewBox="0 0 28.2461 27.9043">
 <g>
  <rect height="27.9043" opacity="0" width="28.2461" x="0" y="0"/>
  <path d="M13.9453 27.8906C21.6426 27.8906 27.8906 21.6426 27.8906 13.9453C27.8906 6.24805 21.6426 0 13.9453 0C6.24805 0 0 6.24805 0 13.9453C0 21.6426 6.24805 27.8906 13.9453 27.8906ZM13.9453 25.5664C7.51953 25.5664 2.32422 20.3711 2.32422 13.9453C2.32422 7.51953 7.51953 2.32422 13.9453 2.32422C20.3711 2.32422 25.5664 7.51953 25.5664 13.9453C25.5664 20.3711 20.3711 25.5664 13.9453 25.5664Z" fill="black" fill-opacity="0.85"/>
  <path d="M9.40625 19.5508C9.84375 19.5508 10.1445 19.2227 10.1445 18.7578L10.1445 16.4473L10.9512 15.668L13.4531 19.168C13.6172 19.4004 13.8359 19.5508 14.123 19.5508C14.5195 19.5508 14.8477 19.2637 14.8477 18.8809C14.8477 18.6895 14.752 18.5117 14.6289 18.3477L12.0176 14.7383L14.4512 12.168C14.6289 11.9766 14.7246 11.8672 14.7246 11.6211C14.7246 11.2793 14.4375 10.9785 14.0547 10.9785C13.8496 10.9785 13.6035 11.1016 13.4668 11.2656L10.1855 14.8477L10.1445 14.8477L10.1445 8.54492C10.1445 8.08008 9.84375 7.73828 9.40625 7.73828C8.95508 7.73828 8.64062 8.06641 8.64062 8.53125L8.64062 18.7578C8.64062 19.2227 8.95508 19.5508 9.40625 19.5508ZM17.1035 19.5508C17.4453 19.5508 17.8281 19.3457 17.8281 18.7578L17.8281 14.4648C17.8281 13.4941 18.1973 12.4141 19.373 12.4141C19.6465 12.4141 19.9199 12.3867 20.125 12.2637C20.3027 12.168 20.4121 11.9902 20.4121 11.7441C20.4121 11.252 20.0293 10.9785 19.5234 10.9785C18.6484 10.9785 18.0469 11.7305 17.8418 12.6191L17.7598 12.6191L17.7598 11.7305C17.7598 11.3066 17.459 10.9785 17.0762 10.9785C16.6797 10.9785 16.3789 11.3066 16.3789 11.7305L16.3789 18.7578C16.3789 19.2363 16.6387 19.5508 17.1035 19.5508Z" fill="black" fill-opacity="0.85"/>
 </g>
</svg>
