<?xml version="1.0" encoding="UTF-8"?>
<!--Generator: Apple Native CoreSVG 326-->
<!DOCTYPE svg
PUBLIC "-//W3C//DTD SVG 1.1//EN"
       "http://www.w3.org/Graphics/SVG/1.1/DTD/svg11.dtd">
<svg version="1.1" xmlns="http://www.w3.org/2000/svg" xmlns:xlink="http://www.w3.org/1999/xlink" viewBox="0 0 30.6797 27.1934">
 <g>
  <rect height="27.1934" opacity="0" width="30.6797" x="0" y="0"/>
  <path d="M0 17.3633C2.29688 21.1094 8.28516 26.8789 16.3652 26.8789C21.5059 26.8789 22.9277 24.4863 25.9082 24.4863C28.3965 24.4863 29.3809 26.1543 29.7637 26.8105C29.873 27.0156 30.0645 27.1523 30.1738 26.7559C30.2422 26.4688 30.3242 26.0859 30.3242 25.6211C30.3242 24.3086 29.9141 21.8066 27.7266 19.0586C28.2051 17.7188 28.2598 16.2285 28.2598 15.3535C28.2598 11.375 26.0176 4.45703 18.6074 0C20.1523 2.17383 22.2168 5.49609 22.2168 10.0898C22.2168 11.7578 21.7656 13.5898 21.3965 14.5059C17.3633 12.168 9.65234 5.74219 6.57617 2.46094C9.05078 6.26172 11.9766 9.70703 15.2305 13.3164C10.8555 10.541 6.78125 7.45117 2.99414 4.06055C6.63086 9.33789 11.2246 14.5332 17.2949 19.4414C15.5586 20.4121 13.7812 21.1641 10.7188 21.1641C7.01367 21.1641 2.47461 19.373 0 17.3633Z" fill="black" fill-opacity="0.85"/>
 </g>
</svg>
