<?xml version="1.0" encoding="UTF-8"?>
<!--Generator: Apple Native CoreSVG 326-->
<!DOCTYPE svg
PUBLIC "-//W3C//DTD SVG 1.1//EN"
       "http://www.w3.org/Graphics/SVG/1.1/DTD/svg11.dtd">
<svg version="1.1" xmlns="http://www.w3.org/2000/svg" xmlns:xlink="http://www.w3.org/1999/xlink" viewBox="0 0 20.3984 30.2559">
 <g>
  <rect height="30.2559" opacity="0" width="20.3984" x="0" y="0"/>
  <path d="M20.043 4.29297L20.043 25.9629C20.043 28.8203 18.6211 30.2422 15.8047 30.2422L4.23828 30.2422C1.4082 30.2422 0 28.8203 0 25.9629L0 4.29297C0 1.44922 1.4082 0 4.23828 0L15.8047 0C18.6211 0 20.043 1.44922 20.043 4.29297ZM5.12695 17.6367C4.23828 17.6367 3.86914 17.9922 3.86914 18.8672L3.86914 25.2793C3.86914 26.168 4.23828 26.5098 5.12695 26.5098L14.8477 26.5098C15.75 26.5098 16.1191 26.168 16.1191 25.2793L16.1191 18.8672C16.1191 17.9922 15.75 17.6367 14.8477 17.6367ZM5.12695 3.74609C4.23828 3.74609 3.86914 4.08789 3.86914 4.97656L3.86914 11.3887C3.86914 12.2637 4.23828 12.6191 5.12695 12.6191L14.8477 12.6191C15.75 12.6191 16.1191 12.2637 16.1191 11.3887L16.1191 4.97656C16.1191 4.08789 15.75 3.74609 14.8477 3.74609Z" fill="black" fill-opacity="0.85"/>
 </g>
</svg>
