<?xml version="1.0" encoding="UTF-8"?>
<!--Generator: Apple Native CoreSVG 326-->
<!DOCTYPE svg
PUBLIC "-//W3C//DTD SVG 1.1//EN"
       "http://www.w3.org/Graphics/SVG/1.1/DTD/svg11.dtd">
<svg version="1.1" xmlns="http://www.w3.org/2000/svg" xmlns:xlink="http://www.w3.org/1999/xlink" viewBox="0 0 30.895 31.9204">
 <g>
  <rect height="31.9204" opacity="0" width="30.895" x="0" y="0"/>
  <path d="M7.63813 12.7752L3.12915 17.2795C2.15845 18.2502 2.13111 19.303 3.14283 20.301L11.6194 28.7776C12.6174 29.7893 13.6702 29.7756 14.6409 28.7913L19.1508 24.2813L20.712 25.8416L16.1174 30.4456C14.1624 32.4006 12.1526 32.428 10.1428 30.4319L1.48853 21.7913C-0.507564 19.7952-0.48022 17.7717 1.47486 15.8167L6.08147 11.2195ZM26.0159 2.76001L29.1604 5.90455C30.1995 6.94361 30.5413 7.39478 30.5413 8.844L30.5413 14.0393C30.5413 15.4749 30.4729 16.0627 29.4475 17.0881L24.4611 22.0848L22.9038 20.5284L27.9026 15.5295C28.176 15.2561 28.3401 14.969 28.3401 14.5178L28.3401 8.7483C28.3401 8.32447 28.1897 8.03736 27.9026 7.75025L24.1838 4.0315C23.8831 3.74439 23.6096 3.58033 23.1721 3.58033L17.4163 3.58033C16.9514 3.58033 16.678 3.75806 16.3909 4.0315L11.393 9.02423L9.83824 7.47037L14.846 2.4729C15.8713 1.44751 16.4456 1.37915 17.8811 1.37915L23.0901 1.37915C24.5393 1.37915 24.9905 1.73462 26.0159 2.76001ZM23.3635 10.4436C23.3635 11.4827 22.5569 12.3167 21.4905 12.3167C20.4241 12.3167 19.6174 11.4827 19.6174 10.4436C19.6174 9.39087 20.4241 8.57056 21.4905 8.57056C22.5569 8.57056 23.3635 9.39087 23.3635 10.4436Z" fill="black" fill-opacity="0.85"/>
  <path d="M26.385 29.2561C26.8088 29.6663 27.4788 29.6663 27.8752 29.2561C28.2717 28.846 28.2854 28.176 27.8752 27.7659L4.14087 4.0315C3.73072 3.62134 3.0608 3.60767 2.63697 4.0315C2.24048 4.42798 2.24048 5.11158 2.63697 5.52173Z" fill="black" fill-opacity="0.85"/>
 </g>
</svg>
