<?xml version="1.0" encoding="UTF-8"?>
<!--Generator: Apple Native CoreSVG 326-->
<!DOCTYPE svg
PUBLIC "-//W3C//DTD SVG 1.1//EN"
       "http://www.w3.org/Graphics/SVG/1.1/DTD/svg11.dtd">
<svg version="1.1" xmlns="http://www.w3.org/2000/svg" xmlns:xlink="http://www.w3.org/1999/xlink" viewBox="0 0 25.5254 25.1699">
 <g>
  <rect height="25.1699" opacity="0" width="25.5254" x="0" y="0"/>
  <path d="M4.29297 25.1699L20.877 25.1699C23.748 25.1699 25.1699 23.7617 25.1699 20.9453L25.1699 4.23828C25.1699 1.42188 23.748 0 20.877 0L4.29297 0C1.43555 0 0 1.42188 0 4.23828L0 20.9453C0 23.7617 1.43555 25.1699 4.29297 25.1699ZM4.32031 22.9688C2.95312 22.9688 2.20117 22.2441 2.20117 20.8223L2.20117 4.36133C2.20117 2.93945 2.95312 2.20117 4.32031 2.20117L20.8496 2.20117C22.2031 2.20117 22.9688 2.93945 22.9688 4.36133L22.9688 20.8223C22.9688 22.2441 22.2031 22.9688 20.8496 22.9688Z" fill="black" fill-opacity="0.85"/>
  <path d="M9.77539 19.6875C10.6094 20.5078 11.4297 20.5215 12.2773 19.6738L18.8809 13.1113C19.4141 12.6055 19.7969 12.2363 19.7969 11.4023L19.7969 8.83203C19.7969 8.2168 19.6328 7.86133 19.2227 7.4375L18.0332 6.26172C17.6094 5.85156 17.2539 5.5918 16.6387 5.5918L13.9863 5.5918C13.166 5.5918 12.7832 5.97461 12.2637 6.50781L5.71484 13.125C4.88086 13.9727 4.88086 14.7793 5.70117 15.5996ZM15.0254 10.3633C14.6426 9.99414 14.6426 9.36523 15.0254 8.98242C15.3945 8.59961 16.0234 8.59961 16.3926 8.98242C16.7754 9.35156 16.7754 9.9668 16.3926 10.3496C16.0098 10.7461 15.4082 10.7461 15.0254 10.3633Z" fill="black" fill-opacity="0.85"/>
 </g>
</svg>
