<?xml version="1.0" encoding="UTF-8"?>
<!--Generator: Apple Native CoreSVG 326-->
<!DOCTYPE svg
PUBLIC "-//W3C//DTD SVG 1.1//EN"
       "http://www.w3.org/Graphics/SVG/1.1/DTD/svg11.dtd">
<svg version="1.1" xmlns="http://www.w3.org/2000/svg" xmlns:xlink="http://www.w3.org/1999/xlink" viewBox="0 0 36.3672 24.3641">
 <g>
  <rect height="24.3641" opacity="0" width="36.3672" x="0" y="0"/>
  <path d="M22.8457 12.1752C22.873 9.53652 22.6543 7.00722 21.9297 4.40957C21.082 1.59316 19.4961 0.581442 16.1738 0.581442L15.4082 0.581442C7.25977 0.581442 0 5.92714 0 12.1752C0 18.4232 7.25977 23.7416 15.4082 23.7416L16.1738 23.7416C19.5098 23.7416 21.0957 22.7436 21.9297 19.9271C22.6543 17.3432 22.873 14.8139 22.8457 12.1752ZM34.918 5.87246L24.1719 5.87246C24.3223 6.61074 24.4316 7.36269 24.5137 8.0873L34.918 8.07363C35.4922 8.07363 36.0117 7.58144 36.0117 6.97988C36.0117 6.37832 35.5059 5.87246 34.918 5.87246ZM34.918 11.0678L24.7051 11.0678C24.7188 11.4779 24.7188 12.8725 24.7051 13.2689L34.918 13.2689C35.5059 13.2689 36.0117 12.7904 36.0117 12.1889C36.0117 11.601 35.5059 11.0678 34.918 11.0678ZM34.918 16.2768L24.5137 16.2904C24.4316 17.0014 24.3223 17.7396 24.1719 18.4916L34.918 18.4779C35.5059 18.4779 36.0117 17.9857 36.0117 17.3842C36.0117 16.7963 35.5059 16.2768 34.918 16.2768ZM27.8496 22.4291C26.7148 23.5365 28.2051 25.0541 29.3809 23.9877C32.0742 21.4584 32.6211 16.7553 30.8301 12.2436L30.5703 11.5873C29.0527 7.77285 29.3125 3.91738 31.2812 1.92129C32.4434 0.813864 30.9531-0.703714 29.7637 0.362692C27.0566 2.90566 26.5371 7.58144 28.3281 12.0932L28.5879 12.7494C30.1055 16.5912 29.832 20.4193 27.8496 22.4291Z" fill="#ff9500"/>
 </g>
</svg>
