<?xml version="1.0" encoding="UTF-8"?>
<!--Generator: Apple Native CoreSVG 326-->
<!DOCTYPE svg
PUBLIC "-//W3C//DTD SVG 1.1//EN"
       "http://www.w3.org/Graphics/SVG/1.1/DTD/svg11.dtd">
<svg version="1.1" xmlns="http://www.w3.org/2000/svg" xmlns:xlink="http://www.w3.org/1999/xlink" viewBox="0 0 29.4264 33.7012">
 <g>
  <rect height="33.7012" opacity="0" width="29.4264" x="0" y="0"/>
  <path d="M14.5218 19.0859C19.6214 19.0859 23.764 14.9434 23.764 9.84375C23.764 9.65234 23.764 9.47461 23.7503 9.2832C26.0335 9.05078 27.8109 7.12305 27.8109 4.77148C27.8109 2.2832 25.7874 0.259766 23.2855 0.259766C21.7816 0.259766 20.4417 0.998047 19.6214 2.14648C18.1585 1.16211 16.4085 0.601562 14.5218 0.601562C12.6351 0.601562 10.8851 1.16211 9.42219 2.14648C8.60188 0.998047 7.26204 0.259766 5.75813 0.259766C3.25618 0.259766 1.23274 2.2832 1.23274 4.77148C1.23274 7.12305 3.01008 9.05078 5.29329 9.2832C5.27961 9.47461 5.27961 9.65234 5.27961 9.84375C5.27961 14.9434 9.42219 19.0859 14.5218 19.0859ZM10.9534 9.22852C10.3245 9.22852 9.77766 8.69531 9.77766 8.03906C9.77766 7.38281 10.3245 6.84961 10.9534 6.84961C11.6097 6.84961 12.1429 7.38281 12.1429 8.03906C12.1429 8.69531 11.6097 9.22852 10.9534 9.22852ZM18.1038 9.22852C17.4476 9.22852 16.9144 8.69531 16.9144 8.03906C16.9144 7.38281 17.4476 6.84961 18.1038 6.84961C18.7327 6.84961 19.2796 7.38281 19.2796 8.03906C19.2796 8.69531 18.7327 9.22852 18.1038 9.22852ZM5.75813 2.21484C6.66047 2.21484 7.45344 2.67969 7.90461 3.4043C6.85188 4.4707 6.04524 5.82422 5.63508 7.31445C5.53938 7.31445 5.45735 7.30078 5.38899 7.28711C4.14485 7.10938 3.20149 6.05664 3.20149 4.77148C3.20149 3.36328 4.34993 2.21484 5.75813 2.21484ZM23.2855 2.21484C24.6937 2.21484 25.8421 3.36328 25.8421 4.77148C25.8421 6.04297 24.8988 7.12305 23.6546 7.28711C23.5726 7.30078 23.4632 7.31445 23.4085 7.31445C22.9984 5.82422 22.1917 4.4707 21.139 3.4043C21.5902 2.67969 22.3831 2.21484 23.2855 2.21484ZM14.5491 17.9375C12.1976 17.9375 10.3245 16.0508 10.3245 13.7129C10.3245 11.3887 12.2113 9.48828 14.5491 9.48828C16.8734 9.48828 18.7738 11.375 18.7738 13.7129C18.7738 16.0371 16.8597 17.9375 14.5491 17.9375ZM14.5218 14.2461C15.3421 14.2461 16.6546 13.0156 16.6546 12.6738C16.6546 12.1133 15.7523 11.334 14.5218 11.334C13.2913 11.334 12.348 12.1133 12.348 12.6738C12.348 13.0156 13.7152 14.2461 14.5218 14.2461ZM26.3206 17.1582L21.3031 14.8887L15.8343 18.5391L13.2366 18.5391L7.7679 14.8887L2.75032 17.1582C0.357739 18.2383-0.65398 21.0957 0.43977 23.4609C1.00032 24.6367 1.97102 25.4844 3.1468 25.8809C3.87141 23.2422 5.8675 21.3691 8.28743 21.3691C11.3499 21.3691 13.7425 24.377 13.7425 28.1367C13.7425 29.8047 13.264 31.3223 12.4847 32.5117C13.7698 32.6895 15.2874 32.6758 16.5863 32.5117C15.807 31.3223 15.3284 29.8047 15.3284 28.1367C15.3284 24.377 17.721 21.3691 20.7835 21.3691C23.2034 21.3691 25.1995 23.2422 25.9241 25.8809C27.0999 25.4844 28.0706 24.6367 28.6312 23.4609C29.7249 21.0957 28.7132 18.2383 26.3206 17.1582ZM8.28743 33.7012C10.6527 33.7012 12.4984 31.2129 12.4984 28.1367C12.4984 25.1016 10.6527 22.6133 8.28743 22.6133C5.92219 22.6133 4.07649 25.1016 4.07649 28.1367C4.07649 31.2129 5.92219 33.7012 8.28743 33.7012ZM20.7835 33.7012C23.1488 33.7012 24.9945 31.2129 24.9945 28.1367C24.9945 25.1016 23.1488 22.6133 20.7835 22.6133C18.4183 22.6133 16.5726 25.1016 16.5726 28.1367C16.5726 31.2129 18.4183 33.7012 20.7835 33.7012Z" fill="black" fill-opacity="0.85"/>
 </g>
</svg>
