<?xml version="1.0" encoding="UTF-8"?>
<!--Generator: Apple Native CoreSVG 326-->
<!DOCTYPE svg
PUBLIC "-//W3C//DTD SVG 1.1//EN"
       "http://www.w3.org/Graphics/SVG/1.1/DTD/svg11.dtd">
<svg version="1.1" xmlns="http://www.w3.org/2000/svg" xmlns:xlink="http://www.w3.org/1999/xlink" viewBox="0 0 28.2461 27.9043">
 <g>
  <rect height="27.9043" opacity="0" width="28.2461" x="0" y="0"/>
  <path d="M13.9453 27.8906C21.6426 27.8906 27.8906 21.6426 27.8906 13.9453C27.8906 6.24805 21.6426 0 13.9453 0C6.24805 0 0 6.24805 0 13.9453C0 21.6426 6.24805 27.8906 13.9453 27.8906ZM13.9453 25.5664C7.51953 25.5664 2.32422 20.3711 2.32422 13.9453C2.32422 7.51953 7.51953 2.32422 13.9453 2.32422C20.3711 2.32422 25.5664 7.51953 25.5664 13.9453C25.5664 20.3711 20.3711 25.5664 13.9453 25.5664Z" fill="#28cd41"/>
  <path d="M13.9316 7.05469C11.293 7.05469 8.28516 7.5332 6.82227 9.05078C6.24805 9.59766 5.91992 10.3223 5.91992 11.2246C5.91992 11.8398 6.11133 12.7422 6.82227 12.8105C7.01367 12.8789 7.21875 12.8516 7.46484 12.8242L9.46094 12.4824C10.1582 12.373 10.4727 12.127 10.6641 11.457L10.9922 10.2402C11.0742 10.0215 11.1289 9.92578 11.4297 9.83008C11.9629 9.625 12.8652 9.51562 13.9316 9.51562C14.998 9.51562 15.9004 9.625 16.4336 9.83008C16.748 9.92578 16.7891 10.0215 16.8711 10.2402L17.1992 11.457C17.3906 12.127 17.7051 12.373 18.4023 12.4824L20.3984 12.8242C20.6445 12.8516 20.8496 12.8789 21.041 12.8105C21.752 12.7422 21.9434 11.8398 21.9434 11.2246C21.9434 10.3223 21.6152 9.59766 21.041 9.05078C19.5781 7.5332 16.584 7.05469 13.9316 7.05469ZM7.61523 17.0215L8.90039 17.0215C9.40625 17.0215 9.67969 16.748 9.67969 16.2285L9.67969 14.9434C9.67969 14.4512 9.40625 14.1504 8.90039 14.1504L7.61523 14.1504C7.10938 14.1504 6.82227 14.4512 6.82227 14.9434L6.82227 16.2285C6.82227 16.748 7.10938 17.0215 7.61523 17.0215ZM11.4023 17.0215L12.6875 17.0215C13.1797 17.0215 13.4668 16.748 13.4668 16.2285L13.4668 14.9434C13.4668 14.4512 13.1797 14.1504 12.6875 14.1504L11.4023 14.1504C10.8828 14.1504 10.582 14.4512 10.582 14.9434L10.582 16.2285C10.582 16.748 10.8828 17.0215 11.4023 17.0215ZM15.1484 17.0215L16.4473 17.0215C16.9395 17.0215 17.2402 16.748 17.2402 16.2285L17.2402 14.9434C17.2402 14.4512 16.9395 14.1504 16.4473 14.1504L15.1484 14.1504C14.6562 14.1504 14.3555 14.4512 14.3555 14.9434L14.3555 16.2285C14.3555 16.748 14.6562 17.0215 15.1484 17.0215ZM18.9082 17.0215L20.207 17.0215C20.7266 17.0215 21.0137 16.748 21.0137 16.2285L21.0137 14.9434C21.0137 14.4512 20.7266 14.1504 20.207 14.1504L18.9082 14.1504C18.4297 14.1504 18.1289 14.4512 18.1289 14.9434L18.1289 16.2285C18.1289 16.748 18.4297 17.0215 18.9082 17.0215ZM7.58789 20.8223L8.88672 20.8223C9.40625 20.8223 9.67969 20.5215 9.67969 20.0156L9.67969 18.7168C9.67969 18.2246 9.40625 17.9238 8.88672 17.9238L7.58789 17.9238C7.0957 17.9238 6.82227 18.2246 6.82227 18.7168L6.82227 20.0156C6.82227 20.5215 7.0957 20.8223 7.58789 20.8223ZM11.375 20.8223L16.4609 20.8223C16.9668 20.8223 17.2539 20.5215 17.2539 20.0156L17.2539 18.7168C17.2539 18.2246 16.9668 17.9238 16.4609 17.9238L11.375 17.9238C10.8691 17.9238 10.582 18.2246 10.582 18.7168L10.582 20.0156C10.582 20.5215 10.8691 20.8223 11.375 20.8223ZM18.9492 20.8223L20.2344 20.8223C20.7402 20.8223 21.0137 20.5215 21.0137 20.0156L21.0137 18.7168C21.0137 18.2246 20.7402 17.9238 20.2344 17.9238L18.9492 17.9238C18.4434 17.9238 18.1426 18.2246 18.1426 18.7168L18.1426 20.0156C18.1426 20.5215 18.4434 20.8223 18.9492 20.8223Z" fill="#28cd41"/>
 </g>
</svg>
