<?xml version="1.0" encoding="UTF-8"?>
<!--Generator: Apple Native CoreSVG 326-->
<!DOCTYPE svg
PUBLIC "-//W3C//DTD SVG 1.1//EN"
       "http://www.w3.org/Graphics/SVG/1.1/DTD/svg11.dtd">
<svg version="1.1" xmlns="http://www.w3.org/2000/svg" xmlns:xlink="http://www.w3.org/1999/xlink" viewBox="0 0 31.0488 25.6621">
 <g>
  <rect height="25.6621" opacity="0" width="31.0488" x="0" y="0"/>
  <path d="M3.25391 18.416L5.71484 18.416C6.67188 18.416 7.21875 17.8691 7.21875 16.8984L7.21875 14.4238C7.21875 13.4531 6.67188 12.9062 5.71484 12.9062L3.25391 12.9062C2.2832 12.9062 1.72266 13.4531 1.72266 14.4238L1.72266 16.8984C1.72266 17.8691 2.2832 18.416 3.25391 18.416ZM10.4727 18.416L12.9473 18.416C13.9043 18.416 14.4512 17.8691 14.4512 16.8984L14.4512 14.4238C14.4512 13.4531 13.9043 12.9062 12.9473 12.9062L10.4727 12.9062C9.50195 12.9062 8.92773 13.4531 8.92773 14.4238L8.92773 16.8984C8.92773 17.8691 9.50195 18.416 10.4727 18.416ZM17.6914 18.416L20.1387 18.416C21.1094 18.416 21.6836 17.8691 21.6836 16.8984L21.6836 14.4238C21.6836 13.4531 21.1094 12.9062 20.1387 12.9062L17.6914 12.9062C16.7207 12.9062 16.1738 13.4531 16.1738 14.4238L16.1738 16.8984C16.1738 17.8691 16.7207 18.416 17.6914 18.416ZM24.8965 18.416L27.3574 18.416C28.3281 18.416 28.916 17.8691 28.916 16.8984L28.916 14.4238C28.916 13.4531 28.3281 12.9062 27.3574 12.9062L24.8965 12.9062C23.9395 12.9062 23.3926 13.4531 23.3926 14.4238L23.3926 16.8984C23.3926 17.8691 23.9395 18.416 24.8965 18.416ZM3.21289 25.6484L5.6875 25.6484C6.6582 25.6484 7.21875 25.1016 7.21875 24.1309L7.21875 21.6426C7.21875 20.6855 6.6582 20.125 5.6875 20.125L3.21289 20.125C2.26953 20.125 1.72266 20.6855 1.72266 21.6426L1.72266 24.1309C1.72266 25.1016 2.26953 25.6484 3.21289 25.6484ZM10.4453 25.6484L20.1797 25.6484C21.1641 25.6484 21.6973 25.1016 21.6973 24.1309L21.6973 21.6426C21.6973 20.6855 21.1641 20.125 20.1797 20.125L10.4453 20.125C9.47461 20.125 8.92773 20.6855 8.92773 21.6426L8.92773 24.1309C8.92773 25.1016 9.47461 25.6484 10.4453 25.6484ZM24.9512 25.6484L27.4121 25.6484C28.3828 25.6484 28.916 25.1016 28.916 24.1309L28.916 21.6426C28.916 20.6855 28.3828 20.125 27.4121 20.125L24.9512 20.125C23.9668 20.125 23.4062 20.6855 23.4062 21.6426L23.4062 24.1309C23.4062 25.1016 23.9668 25.6484 24.9512 25.6484ZM15.3398 0C10.2812 0 4.52539 0.902344 1.72266 3.78711C0.642578 4.88086 0 6.24805 0 7.98438C0 9.16016 0.369141 10.9102 1.76367 11.0332C2.13281 11.1426 2.50195 11.1016 2.9668 11.0332L6.79492 10.3906C8.12109 10.1719 8.73633 9.67969 9.0918 8.39453L9.73438 6.125C9.85742 5.66016 9.98047 5.49609 10.541 5.29102C11.5801 4.9082 13.3027 4.70312 15.3398 4.70312C17.3906 4.70312 19.0996 4.9082 20.1387 5.29102C20.6992 5.49609 20.8359 5.66016 20.959 6.125L21.6016 8.39453C21.957 9.67969 22.5723 10.1719 23.8984 10.3906L27.7266 11.0332C28.1914 11.1016 28.5469 11.1426 28.9297 11.0332C30.3105 10.9102 30.6934 9.16016 30.6934 7.98438C30.6934 6.24805 30.0371 4.88086 28.9707 3.78711C26.1543 0.902344 20.3984 0 15.3398 0Z" fill="#28cd41"/>
 </g>
</svg>
