<?xml version="1.0" encoding="UTF-8"?>
<!--Generator: Apple Native CoreSVG 326-->
<!DOCTYPE svg
PUBLIC "-//W3C//DTD SVG 1.1//EN"
       "http://www.w3.org/Graphics/SVG/1.1/DTD/svg11.dtd">
<svg version="1.1" xmlns="http://www.w3.org/2000/svg" xmlns:xlink="http://www.w3.org/1999/xlink" viewBox="0 0 28.2461 27.9043">
 <g>
  <rect height="27.9043" opacity="0" width="28.2461" x="0" y="0"/>
  <path d="M13.9453 27.8906C21.6426 27.8906 27.8906 21.6289 27.8906 13.9453C27.8906 6.24805 21.6426 0 13.9453 0C6.26172 0 0 6.24805 0 13.9453C0 21.6289 6.26172 27.8906 13.9453 27.8906Z" fill="black" fill-opacity="0.85"/>
  <path d="M13.959 20.5488C13.4941 20.5488 13.1387 20.1934 13.1387 19.6875L13.1387 11.416L9.77539 11.416C9.39258 11.416 9.11914 11.1289 9.11914 10.7734C9.11914 10.418 9.39258 10.1309 9.77539 10.1309L18.1152 10.1309C18.498 10.1309 18.7715 10.418 18.7715 10.7734C18.7715 11.1289 18.498 11.416 18.1152 11.416L14.7793 11.416L14.7793 19.6875C14.7793 20.1934 14.4375 20.5488 13.959 20.5488ZM9.07812 8.09375C9.07812 7.83398 9.29688 7.61523 9.55664 7.61523L18.293 7.61523C18.5527 7.61523 18.7715 7.83398 18.7715 8.09375C18.7715 8.35352 18.5527 8.57227 18.293 8.57227L9.55664 8.57227C9.29688 8.57227 9.07812 8.36719 9.07812 8.09375Z" fill="white"/>
 </g>
</svg>
