<?xml version="1.0" encoding="UTF-8"?>
<!--Generator: Apple Native CoreSVG 326-->
<!DOCTYPE svg
PUBLIC "-//W3C//DTD SVG 1.1//EN"
       "http://www.w3.org/Graphics/SVG/1.1/DTD/svg11.dtd">
<svg version="1.1" xmlns="http://www.w3.org/2000/svg" xmlns:xlink="http://www.w3.org/1999/xlink" viewBox="0 0 28.2461 27.9043">
 <g>
  <rect height="27.9043" opacity="0" width="28.2461" x="0" y="0"/>
  <path d="M13.9453 27.8906C21.6426 27.8906 27.8906 21.6426 27.8906 13.9453C27.8906 6.24805 21.6426 0 13.9453 0C6.24805 0 0 6.24805 0 13.9453C0 21.6426 6.24805 27.8906 13.9453 27.8906ZM13.9453 25.5664C7.51953 25.5664 2.32422 20.3711 2.32422 13.9453C2.32422 7.51953 7.51953 2.32422 13.9453 2.32422C20.3711 2.32422 25.5664 7.51953 25.5664 13.9453C25.5664 20.3711 20.3711 25.5664 13.9453 25.5664Z" fill="black" fill-opacity="0.85"/>
  <path d="M20.3574 7.47852C18.5938 5.72852 15.5586 5.96094 13.5352 7.9707C12.373 9.16016 11.8672 10.6504 11.8672 12.0723C11.8398 14.1914 11.6211 15.3945 9.65234 17.3359L10.5 18.1836C12.4551 16.2148 13.6172 16.0371 15.75 15.9824C17.1992 15.9414 18.6621 15.4766 19.8516 14.3008C21.875 12.2637 22.1211 9.22852 20.3574 7.47852ZM19.4961 8.32617C20.8086 9.63867 20.6035 11.8535 19.0039 13.4395C17.3906 15.0391 15.1895 15.2578 13.8906 13.9453C12.5645 12.6465 12.7832 10.4316 14.4102 8.83203C15.9961 7.23242 18.1973 7.01367 19.4961 8.32617ZM6.64453 20.6992L7.10938 21.1777C7.4375 21.5059 7.91602 21.5059 8.24414 21.1777L10.9512 18.457C11.2793 18.1152 11.2793 17.6641 10.9512 17.3223L10.4863 16.8574C10.1719 16.5293 9.69336 16.5293 9.36523 16.8574L6.64453 19.5918C6.33008 19.9199 6.31641 20.3711 6.64453 20.6992ZM19.9336 13.125L20.6035 12.4141L15.4902 7.28711L14.793 7.98438ZM17.9922 15.0254L18.7168 14.3555L13.5762 9.21484L12.8789 9.89844ZM12.8242 12.5781L13.248 13.5488L19.0176 7.7793L18.1836 7.23242ZM14.4922 14.6289L15.3809 15.0938L20.6855 9.80273L20.125 8.95508Z" fill="black" fill-opacity="0.85"/>
 </g>
</svg>
