<?xml version="1.0" encoding="UTF-8"?>
<!--Generator: Apple Native CoreSVG 326-->
<!DOCTYPE svg
PUBLIC "-//W3C//DTD SVG 1.1//EN"
       "http://www.w3.org/Graphics/SVG/1.1/DTD/svg11.dtd">
<svg version="1.1" xmlns="http://www.w3.org/2000/svg" xmlns:xlink="http://www.w3.org/1999/xlink" viewBox="0 0 39.6905 28.3145">
 <g>
  <rect height="28.3145" opacity="0" width="39.6905" x="0" y="0"/>
  <path d="M12.0318 3.91016L17.2264 14.324L16.0605 16.6597L10.5689 5.61914C10.5415 5.57812 10.5005 5.53711 10.4595 5.53711C10.4185 5.53711 10.3775 5.57812 10.3501 5.61914L2.47512 21.4512C2.42043 21.5469 2.44777 21.6426 2.57082 21.6426L5.45846 21.6426L9.84426 12.4551C9.98098 12.1543 10.2134 12.0176 10.4595 12.0176C10.7193 12.0176 10.9517 12.1543 11.0884 12.4551L14.5399 19.7062L12.5293 23.7344L1.58645 23.7344C0.123555 23.7344-0.327617 22.3672 0.23293 21.2598L8.88723 3.91016C9.21535 3.28125 9.80324 2.85742 10.4595 2.85742C11.1157 2.85742 11.7036 3.28125 12.0318 3.91016ZM8.83496 21.6426L12.084 21.6426L10.4595 14.6152Z" fill="black" fill-opacity="0.85"/>
  <path d="M13.1802 28.3145L37.5298 28.3145C39.2251 28.3145 39.7036 26.7695 39.0474 25.4707L27.1802 1.66797C26.7974 0.902344 26.1001 0.451172 25.3618 0.451172C24.6099 0.451172 23.9126 0.902344 23.5435 1.66797L11.6626 25.4707C11.0064 26.7695 11.4849 28.3145 13.1802 28.3145ZM14.0825 26.2227C13.7954 26.2227 13.7407 26.0039 13.8638 25.7441L25.1704 3.07617C25.2525 2.91211 25.4575 2.91211 25.5396 3.07617L36.8462 25.7441C36.9829 26.0176 36.9282 26.2227 36.6685 26.2227ZM17.979 27.2344L22.8872 27.2344L25.3618 16.5293L27.8228 27.2344L32.731 27.2344L26.2232 13.5625C26.0318 13.166 25.7036 12.9746 25.3618 12.9746C25.0064 12.9746 24.6782 13.166 24.4868 13.5625Z" fill="black" fill-opacity="0.85"/>
 </g>
</svg>
