<?xml version="1.0" encoding="UTF-8"?>
<!--Generator: Apple Native CoreSVG 326-->
<!DOCTYPE svg
PUBLIC "-//W3C//DTD SVG 1.1//EN"
       "http://www.w3.org/Graphics/SVG/1.1/DTD/svg11.dtd">
<svg version="1.1" xmlns="http://www.w3.org/2000/svg" xmlns:xlink="http://www.w3.org/1999/xlink" viewBox="0 0 41.3848 28.2324">
 <g>
  <rect height="28.2324" opacity="0" width="41.3848" x="0" y="0"/>
  <path d="M8.33984 28.2324L32.6758 28.2324C34.3848 28.2324 34.8633 26.6875 34.207 25.3887L27.3574 11.6484L38.7324 27.5488C39.0742 28.0273 39.498 28.1914 39.8945 28.1914C40.4824 28.1914 41.0293 27.8496 41.0293 27.043L41.0293 22.9551C41.0293 22.4492 40.6055 22.0254 40.0996 22.0254C39.5938 22.0254 39.1836 22.4492 39.1836 22.9551L39.1836 25.0469L22.1621 1.27148C21.2734 0.0136719 19.7422 0.0410156 18.8535 1.27148L1.8457 25.0469L1.8457 22.9551C1.8457 22.4492 1.43555 22.0254 0.929688 22.0254C0.410156 22.0254 0 22.4492 0 22.9551L0 27.043C0 27.8496 0.546875 28.1914 1.13477 28.1914C1.53125 28.1914 1.95508 28.0273 2.29688 27.5488L13.6719 11.6484L6.82227 25.3887C6.16602 26.6875 6.63086 28.2324 8.33984 28.2324ZM9.2832 26.1406C9.0918 26.1406 9.03711 25.9766 9.11914 25.8125L20.3301 3.03516C20.4121 2.85742 20.6035 2.85742 20.6992 3.03516L31.9102 25.8125C31.9922 25.9766 31.9238 26.1406 31.7461 26.1406ZM13.7129 26.4414L18.293 26.4414L20.5078 16.748L22.7227 26.4414L27.3027 26.4414L21.3418 13.877C21.1641 13.4941 20.8359 13.3027 20.5078 13.3027C20.1797 13.3027 19.8516 13.4941 19.6602 13.877Z" fill="black" fill-opacity="0.85"/>
 </g>
</svg>
