<?xml version="1.0" encoding="UTF-8"?>
<!--Generator: Apple Native CoreSVG 326-->
<!DOCTYPE svg
PUBLIC "-//W3C//DTD SVG 1.1//EN"
       "http://www.w3.org/Graphics/SVG/1.1/DTD/svg11.dtd">
<svg version="1.1" xmlns="http://www.w3.org/2000/svg" xmlns:xlink="http://www.w3.org/1999/xlink" viewBox="0 0 27.9043 23.6934">
 <g>
  <rect height="23.6934" opacity="0" width="27.9043" x="0" y="0"/>
  <path d="M26.4414 2.20117C27.0566 2.20117 27.5488 1.72266 27.5488 1.10742C27.5488 0.492188 27.0566 0 26.4414 0L1.10742 0C0.492188 0 0 0.492188 0 1.10742C0 1.72266 0.492188 2.20117 1.10742 2.20117ZM26.4414 9.36523C27.0566 9.36523 27.5488 8.87305 27.5488 8.25781C27.5488 7.64258 27.0566 7.16406 26.4414 7.16406L11.2109 7.16406C10.582 7.16406 10.0898 7.64258 10.0898 8.25781C10.0898 8.87305 10.582 9.36523 11.2109 9.36523ZM26.4414 16.5156C27.0566 16.5156 27.5488 16.0371 27.5488 15.4219C27.5488 14.793 27.0566 14.3145 26.4414 14.3145L1.10742 14.3145C0.492188 14.3145 0 14.793 0 15.4219C0 16.0371 0.492188 16.5156 1.10742 16.5156ZM26.4414 23.666C27.0566 23.666 27.5488 23.1875 27.5488 22.5723C27.5488 21.957 27.0566 21.4648 26.4414 21.4648L11.2109 21.4648C10.582 21.4648 10.0898 21.957 10.0898 22.5723C10.0898 23.1875 10.582 23.666 11.2109 23.666Z" fill="black" fill-opacity="0.85"/>
 </g>
</svg>
