<?xml version="1.0" encoding="UTF-8"?>
<!--Generator: Apple Native CoreSVG 326-->
<!DOCTYPE svg
PUBLIC "-//W3C//DTD SVG 1.1//EN"
       "http://www.w3.org/Graphics/SVG/1.1/DTD/svg11.dtd">
<svg version="1.1" xmlns="http://www.w3.org/2000/svg" xmlns:xlink="http://www.w3.org/1999/xlink" viewBox="0 0 27.9043 23.6934">
 <g>
  <rect height="23.6934" opacity="0" width="27.9043" x="0" y="0"/>
  <path d="M1.09375 2.20117L16.3242 2.20117C16.9395 2.20117 17.4316 1.72266 17.4316 1.10742C17.4316 0.492188 16.9395 0 16.3242 0L1.09375 0C0.478516 0 0 0.492188 0 1.10742C0 1.72266 0.478516 2.20117 1.09375 2.20117ZM20.5488 2.20117L26.4277 2.20117C27.043 2.20117 27.5488 1.72266 27.5488 1.10742C27.5488 0.492188 27.043 0 26.4277 0L20.5488 0C19.9336 0 19.4551 0.492188 19.4551 1.10742C19.4551 1.72266 19.9336 2.20117 20.5488 2.20117ZM1.09375 9.36523L4.11523 9.36523C4.74414 9.36523 5.23633 8.87305 5.23633 8.25781C5.23633 7.64258 4.74414 7.16406 4.11523 7.16406L1.09375 7.16406C0.478516 7.16406 0 7.64258 0 8.25781C0 8.87305 0.478516 9.36523 1.09375 9.36523ZM8.35352 9.36523L15.2715 9.36523C15.9004 9.36523 16.3926 8.87305 16.3926 8.25781C16.3926 7.64258 15.9004 7.16406 15.2715 7.16406L8.35352 7.16406C7.73828 7.16406 7.25977 7.64258 7.25977 8.25781C7.25977 8.87305 7.73828 9.36523 8.35352 9.36523ZM19.5098 9.36523L26.4277 9.36523C27.043 9.36523 27.5488 8.87305 27.5488 8.25781C27.5488 7.64258 27.043 7.16406 26.4277 7.16406L19.5098 7.16406C18.8945 7.16406 18.4023 7.64258 18.4023 8.25781C18.4023 8.87305 18.8945 9.36523 19.5098 9.36523ZM1.10742 16.4746L6.98633 16.4746C7.60156 16.4746 8.09375 15.9961 8.09375 15.3809C8.09375 14.752 7.60156 14.2734 6.98633 14.2734L1.10742 14.2734C0.492188 14.2734 0 14.752 0 15.3809C0 15.9961 0.492188 16.4746 1.10742 16.4746ZM11.2246 16.4746L26.4414 16.4746C27.0566 16.4746 27.5488 15.9961 27.5488 15.3809C27.5488 14.752 27.0566 14.2734 26.4414 14.2734L11.2246 14.2734C10.5957 14.2734 10.1035 14.752 10.1035 15.3809C10.1035 15.9961 10.5957 16.4746 11.2246 16.4746ZM1.09375 23.666L15.5859 23.666C16.2012 23.666 16.6934 23.1875 16.6934 22.5723C16.6934 21.957 16.2012 21.4648 15.5859 21.4648L1.09375 21.4648C0.478516 21.4648 0 21.957 0 22.5723C0 23.1875 0.478516 23.666 1.09375 23.666Z" fill="black" fill-opacity="0.85"/>
 </g>
</svg>
