<?xml version="1.0" encoding="UTF-8"?>
<!--Generator: Apple Native CoreSVG 326-->
<!DOCTYPE svg
PUBLIC "-//W3C//DTD SVG 1.1//EN"
       "http://www.w3.org/Graphics/SVG/1.1/DTD/svg11.dtd">
<svg version="1.1" xmlns="http://www.w3.org/2000/svg" xmlns:xlink="http://www.w3.org/1999/xlink" viewBox="0 0 30.4883 30.2012">
 <g>
  <rect height="30.2012" opacity="0" width="30.4883" x="0" y="0"/>
  <path d="M30.1328 8.09375L30.1328 18.5664C30.1328 22.5723 27.9453 24.8145 23.8711 24.8145L14.6289 24.8145L9.69336 29.3262C9.05078 29.9277 8.6543 30.2012 8.12109 30.2012C7.3418 30.2012 6.9043 29.6406 6.9043 28.793L6.9043 24.8145L6.26172 24.8145C2.1875 24.8145 0 22.5859 0 18.5664L0 8.09375C0 4.07422 2.1875 1.83203 6.26172 1.83203L23.8711 1.83203C27.9453 1.83203 30.1328 4.08789 30.1328 8.09375ZM7.80664 16.9668C7.35547 16.9668 6.98633 17.3359 6.98633 17.8008C6.98633 18.252 7.35547 18.6074 7.80664 18.6074L17.1445 18.6074C17.5957 18.6074 17.9512 18.252 17.9512 17.8008C17.9512 17.3359 17.5957 16.9668 17.1445 16.9668ZM7.80664 12.3867C7.35547 12.3867 6.98633 12.7559 6.98633 13.1934C6.98633 13.6582 7.35547 14.0273 7.80664 14.0273L22.1621 14.0273C22.6133 14.0273 22.9688 13.6582 22.9688 13.1934C22.9688 12.7559 22.6133 12.3867 22.1621 12.3867ZM7.80664 7.80664C7.35547 7.80664 6.98633 8.17578 6.98633 8.61328C6.98633 9.07812 7.35547 9.43359 7.80664 9.43359L22.1621 9.43359C22.6133 9.43359 22.9688 9.07812 22.9688 8.61328C22.9688 8.17578 22.6133 7.80664 22.1621 7.80664Z" fill="black" fill-opacity="0.85"/>
 </g>
</svg>
