<?xml version="1.0" encoding="UTF-8"?>
<!--Generator: Apple Native CoreSVG 326-->
<!DOCTYPE svg
PUBLIC "-//W3C//DTD SVG 1.1//EN"
       "http://www.w3.org/Graphics/SVG/1.1/DTD/svg11.dtd">
<svg version="1.1" xmlns="http://www.w3.org/2000/svg" xmlns:xlink="http://www.w3.org/1999/xlink" viewBox="0 0 27.9043 23.6934">
 <g>
  <rect height="23.6934" opacity="0" width="27.9043" x="0" y="0"/>
  <path d="M1.09375 2.20117L26.4277 2.20117C27.043 2.20117 27.5488 1.72266 27.5488 1.10742C27.5488 0.492188 27.043 0 26.4277 0L1.09375 0C0.478516 0 0 0.492188 0 1.10742C0 1.72266 0.478516 2.20117 1.09375 2.20117ZM16.625 16.5156L26.4277 16.5156C27.043 16.5156 27.5488 16.0371 27.5488 15.4219C27.5488 14.793 27.043 14.3145 26.4277 14.3145L16.625 14.3145C16.0098 14.3145 15.5312 14.793 15.5312 15.4219C15.5312 16.0371 16.0098 16.5156 16.625 16.5156ZM1.09375 23.6797L26.4277 23.6797C27.043 23.6797 27.5488 23.2012 27.5488 22.5859C27.5488 21.9707 27.043 21.4785 26.4277 21.4785L1.09375 21.4785C0.478516 21.4785 0 21.9707 0 22.5859C0 23.2012 0.478516 23.6797 1.09375 23.6797Z" fill="black" fill-opacity="0.85"/>
  <path d="M1.72266 10.4727L25.8125 10.4727C26.9609 10.4727 27.5488 9.91211 27.5488 8.76367L27.5488 7.73828C27.5488 6.61719 26.9609 6.04297 25.8125 6.04297L1.72266 6.04297C0.574219 6.04297 0 6.61719 0 7.73828L0 8.76367C0 9.91211 0.574219 10.4727 1.72266 10.4727ZM1.72266 17.6367L11.9355 17.6367C13.084 17.6367 13.6582 17.0625 13.6582 15.9141L13.6582 14.9023C13.6582 13.7812 13.084 13.1934 11.9355 13.1934L1.72266 13.1934C0.574219 13.1934 0 13.7812 0 14.9023L0 15.9141C0 17.0625 0.574219 17.6367 1.72266 17.6367Z" fill="black" fill-opacity="0.85"/>
 </g>
</svg>
