<?xml version="1.0" encoding="UTF-8"?>
<!--Generator: Apple Native CoreSVG 326-->
<!DOCTYPE svg
PUBLIC "-//W3C//DTD SVG 1.1//EN"
       "http://www.w3.org/Graphics/SVG/1.1/DTD/svg11.dtd">
<svg version="1.1" xmlns="http://www.w3.org/2000/svg" xmlns:xlink="http://www.w3.org/1999/xlink" viewBox="0 0 24.6641 27.084">
 <g>
  <rect height="27.084" opacity="0" width="24.6641" x="0" y="0"/>
  <path d="M1.14844 23.625C1.87305 23.625 2.22852 23.3516 2.48828 22.5859L4.25195 17.7598L12.3184 17.7598L14.082 22.5859C14.3418 23.3516 14.6973 23.625 15.4082 23.625C16.1328 23.625 16.5977 23.1875 16.5977 22.5039C16.5977 22.2715 16.5566 22.0527 16.4473 21.7656L10.0352 4.68945C9.7207 3.85547 9.16016 3.43164 8.28516 3.43164C7.4375 3.43164 6.86328 3.8418 6.5625 4.67578L0.150391 21.7793C0.0410156 22.0664 0 22.2852 0 22.5176C0 23.2012 0.4375 23.625 1.14844 23.625ZM4.92188 15.6816L8.24414 6.48047L8.3125 6.48047L11.6348 15.6816Z" fill="black" fill-opacity="0.85"/>
  <path d="M23.2969 27.084C23.9121 27.084 24.3086 26.6875 24.3086 26.1133L24.3086 16.7617C24.3086 16.0781 23.8848 15.668 23.2148 15.668C22.6133 15.668 22.3125 15.8867 21.916 16.1738L19.7285 17.6641C19.3457 17.9375 19.1816 18.1699 19.1816 18.4707C19.1816 18.9219 19.5234 19.2637 19.9473 19.2637C20.2207 19.2637 20.3984 19.1816 20.6719 18.9902L22.2578 17.9238L22.2988 17.9238L22.2988 26.1133C22.2988 26.6875 22.709 27.084 23.2969 27.084Z" fill="black" fill-opacity="0.85"/>
 </g>
</svg>
