<?xml version="1.0" encoding="UTF-8"?>
<!--Generator: Apple Native CoreSVG 326-->
<!DOCTYPE svg
PUBLIC "-//W3C//DTD SVG 1.1//EN"
       "http://www.w3.org/Graphics/SVG/1.1/DTD/svg11.dtd">
<svg version="1.1" xmlns="http://www.w3.org/2000/svg" xmlns:xlink="http://www.w3.org/1999/xlink" viewBox="0 0 31.5205 31.1821">
 <g>
  <rect height="31.1821" opacity="0" width="31.5205" x="0" y="0"/>
  <path d="M12.8678 16.76L10.2573 16.76C9.73779 16.76 9.36865 17.1428 9.36865 17.635C9.36865 18.1135 9.73779 18.4963 10.2573 18.4963L14.606 18.4963L25.6287 29.5073C24.9498 29.9977 24.0265 30.2405 22.8628 30.2405L8.32959 30.2405C5.51318 30.2405 4.09131 28.8186 4.09131 25.9612L4.09131 7.99285ZM27.0874 5.22096L27.0874 23.1721L17.4897 13.5745L20.9487 13.5745C21.4409 13.5745 21.8237 13.178 21.8237 12.6858C21.8237 12.2073 21.4409 11.8381 20.9487 11.8381L15.7534 11.8381L12.5679 8.6526L20.9487 8.6526C21.4409 8.6526 21.8237 8.25611 21.8237 7.76392C21.8237 7.28541 21.4409 6.91627 20.9487 6.91627L10.8315 6.91627L5.57452 1.65925C6.25447 1.17162 7.17481 0.927987 8.32959 0.927987L22.8628 0.927987C25.6792 0.927987 27.0874 2.37721 27.0874 5.22096Z" fill="black" fill-opacity="0.85"/>
  <path d="M27.6616 29.1467C28.0854 29.5569 28.7554 29.5569 29.1519 29.1467C29.562 28.7229 29.562 28.053 29.1519 27.6428L3.51709 2.02174C3.10693 1.61158 2.43701 1.59791 2.01318 2.02174C1.6167 2.41822 1.6167 3.11549 2.01318 3.51197Z" fill="black" fill-opacity="0.85"/>
 </g>
</svg>
