<?xml version="1.0" encoding="UTF-8"?>
<!--Generator: Apple Native CoreSVG 326-->
<!DOCTYPE svg
PUBLIC "-//W3C//DTD SVG 1.1//EN"
       "http://www.w3.org/Graphics/SVG/1.1/DTD/svg11.dtd">
<svg version="1.1" xmlns="http://www.w3.org/2000/svg" xmlns:xlink="http://www.w3.org/1999/xlink" viewBox="0 0 31.5205 31.1821">
 <g>
  <rect height="31.1821" opacity="0" width="31.5205" x="0" y="0"/>
  <path d="M6.29248 10.1917L6.29248 25.9202C6.29248 27.2874 7.03076 28.0393 8.45264 28.0393L22.7397 28.0393C23.2088 28.0393 23.602 27.9575 23.9166 27.7971L25.6287 29.5073C24.9498 29.9977 24.0265 30.2405 22.8628 30.2405L8.32959 30.2405C5.51318 30.2405 4.09131 28.8186 4.09131 25.9612L4.09131 7.99285ZM27.0874 5.22096L27.0874 23.1721L24.8862 20.971L24.8862 5.26197C24.8862 3.89478 24.1616 3.12916 22.7397 3.12916L8.45264 3.12916C7.98943 3.12916 7.59876 3.21041 7.28392 3.36864L5.57452 1.65925C6.25447 1.17162 7.17481 0.927987 8.32959 0.927987L22.8628 0.927987C25.6792 0.927987 27.0874 2.37721 27.0874 5.22096ZM14.4965 18.387L10.4214 18.387C9.91553 18.387 9.56006 18.0315 9.56006 17.5667C9.56006 17.0745 9.91553 16.7053 10.4214 16.7053L12.8131 16.7053ZM21.6323 12.7678C21.6323 13.2463 21.2632 13.6155 20.7847 13.6155L17.5308 13.6155L15.8491 11.9338L20.7847 11.9338C21.2632 11.9338 21.6323 12.303 21.6323 12.7678ZM21.6323 7.99635C21.6323 8.47486 21.2632 8.844 20.7847 8.844L12.7593 8.844L11.0776 7.16236L20.7847 7.16236C21.2632 7.16236 21.6323 7.5315 21.6323 7.99635Z" fill="black" fill-opacity="0.85"/>
  <path d="M27.6616 29.1467C28.0854 29.5569 28.7554 29.5569 29.1519 29.1467C29.562 28.7229 29.562 28.053 29.1519 27.6428L3.51709 2.02174C3.10693 1.61158 2.43701 1.59791 2.01318 2.02174C1.6167 2.41822 1.6167 3.11549 2.01318 3.51197Z" fill="black" fill-opacity="0.85"/>
 </g>
</svg>
