<?xml version="1.0" encoding="UTF-8"?>
<!--Generator: Apple Native CoreSVG 326-->
<!DOCTYPE svg
PUBLIC "-//W3C//DTD SVG 1.1//EN"
       "http://www.w3.org/Graphics/SVG/1.1/DTD/svg11.dtd">
<svg version="1.1" xmlns="http://www.w3.org/2000/svg" xmlns:xlink="http://www.w3.org/1999/xlink" viewBox="0 0 28.4785 34.877">
 <g>
  <rect height="34.877" opacity="0" width="28.4785" x="0" y="0"/>
  <path d="M18.9219 33.8516C18.9219 34.4258 18.457 34.877 17.8828 34.877L1.02539 34.877C0.451172 34.877 0 34.4258 0 33.8516C0 33.2773 0.451172 32.8125 1.02539 32.8125L17.8828 32.8125C18.457 32.8125 18.9219 33.2773 18.9219 33.8516ZM28.123 27.4258C28.123 28.0137 27.6582 28.4648 27.084 28.4648L1.02539 28.4648C0.451172 28.4648 0 28.0137 0 27.4258C0 26.8516 0.451172 26.4004 1.02539 26.4004L27.084 26.4004C27.6582 26.4004 28.123 26.8516 28.123 27.4258Z" fill="black" fill-opacity="0.85"/>
  <path d="M28.123 3.78711L28.123 18.293C28.123 20.7812 26.8652 22.0254 24.3223 22.0254L3.80078 22.0254C1.27148 22.0254 0 20.7676 0 18.293L0 3.78711C0 1.3125 1.28516 0.0273438 3.80078 0.0273438L24.3223 0.0273438C26.8652 0.0273438 28.123 1.29883 28.123 3.78711ZM16.9395 11.3066L11.2109 16.3926L8.94141 14.3281C8.4082 13.8496 7.80664 13.6035 7.21875 13.6035C6.68555 13.6035 6.11133 13.8359 5.5918 14.3008L2.07812 17.5273L2.07812 18.1016C2.07812 19.2773 2.76172 19.9609 3.92383 19.9609L24.2676 19.9609C25.4023 19.9609 26.1133 19.2773 26.1133 18.1289L26.1133 16.4336L20.7539 11.334C20.2207 10.8008 19.5098 10.5547 18.8672 10.5547C18.1699 10.5547 17.5273 10.8008 16.9395 11.3066ZM6.00195 8.36719C6.00195 9.99414 7.32812 11.3203 8.95508 11.3203C10.5684 11.3203 11.8945 9.99414 11.8945 8.36719C11.8945 6.75391 10.5684 5.42773 8.95508 5.42773C7.32812 5.42773 6.00195 6.75391 6.00195 8.36719Z" fill="black" fill-opacity="0.85"/>
 </g>
</svg>
