<?xml version="1.0" encoding="UTF-8"?>
<!--Generator: Apple Native CoreSVG 326-->
<!DOCTYPE svg
PUBLIC "-//W3C//DTD SVG 1.1//EN"
       "http://www.w3.org/Graphics/SVG/1.1/DTD/svg11.dtd">
<svg version="1.1" xmlns="http://www.w3.org/2000/svg" xmlns:xlink="http://www.w3.org/1999/xlink" viewBox="0 0 41.6992 29.1954">
 <g>
  <rect height="29.1954" opacity="0" width="41.6992" x="0" y="0"/>
  <path d="M9.74805 17.0655C9.13281 17.0655 8.6543 17.544 8.6543 18.1729C8.6543 18.7881 9.13281 19.2666 9.74805 19.2666L35.082 19.2666C35.6973 19.2666 36.1895 18.7881 36.1895 18.1729C36.1895 17.544 35.6973 17.0655 35.082 17.0655ZM9.74805 9.91507C9.13281 9.91507 8.6543 10.3936 8.6543 11.0088C8.6543 11.6241 9.13281 12.1162 9.74805 12.1162L35.082 12.1162C35.6973 12.1162 36.1895 11.6241 36.1895 11.0088C36.1895 10.3936 35.6973 9.91507 35.082 9.91507ZM9.74805 2.751C9.13281 2.751 8.6543 3.24319 8.6543 3.85843C8.6543 4.47366 9.13281 4.95218 9.74805 4.95218L35.082 4.95218C35.6973 4.95218 36.1895 4.47366 36.1895 3.85843C36.1895 3.24319 35.6973 2.751 35.082 2.751Z" fill="black" fill-opacity="0.85"/>
  <path d="M1.23047 21.6045C0.587891 21.208 0 21.5225 0 22.2608L0 28.3448C0 29.083 0.587891 29.4248 1.23047 29.0283L6.08398 26.0479C6.69922 25.6651 6.71289 24.9405 6.08398 24.5576ZM10.377 23.1084C9.22852 23.1084 8.6543 23.669 8.6543 24.8174L8.6543 25.8428C8.6543 26.9639 9.22852 27.5381 10.377 27.5381L34.4668 27.5381C35.6152 27.5381 36.1895 26.9639 36.1895 25.8428L36.1895 24.8174C36.1895 23.669 35.6152 23.1084 34.4668 23.1084Z" fill="black" fill-opacity="0.85"/>
 </g>
</svg>
