<?xml version="1.0" encoding="UTF-8"?>
<!--Generator: Apple Native CoreSVG 326-->
<!DOCTYPE svg
PUBLIC "-//W3C//DTD SVG 1.1//EN"
       "http://www.w3.org/Graphics/SVG/1.1/DTD/svg11.dtd">
<svg version="1.1" xmlns="http://www.w3.org/2000/svg" xmlns:xlink="http://www.w3.org/1999/xlink" viewBox="0 0 29.8047 25.0059">
 <g>
  <rect height="25.0059" opacity="0" width="29.8047" x="0" y="0"/>
  <path d="M4.44336 2.20117L25.0059 2.20117C25.6211 2.20117 26.1133 1.70898 26.1133 1.09375C26.1133 0.478516 25.6211 0 25.0059 0L4.44336 0C3.81445 0 3.33594 0.478516 3.33594 1.09375C3.33594 1.70898 3.81445 2.20117 4.44336 2.20117ZM4.44336 19.7012L25.0059 19.7012C25.6211 19.7012 26.1133 19.2227 26.1133 18.5938C26.1133 17.9785 25.6211 17.5 25.0059 17.5L4.44336 17.5C3.81445 17.5 3.33594 17.9785 3.33594 18.5938C3.33594 19.2227 3.81445 19.7012 4.44336 19.7012ZM4.44336 24.9922L25.0059 24.9922C25.6211 24.9922 26.1133 24.5137 26.1133 23.8984C26.1133 23.2695 25.6211 22.791 25.0059 22.791L4.44336 22.791C3.81445 22.791 3.33594 23.2695 3.33594 23.8984C3.33594 24.5137 3.81445 24.9922 4.44336 24.9922Z" fill="black" fill-opacity="0.85"/>
  <path d="M4.44336 10.9922L25.0059 10.9922C25.6211 10.9922 26.1133 10.5 26.1133 9.88477C26.1133 9.26953 25.6211 8.79102 25.0059 8.79102L4.44336 8.79102C3.82812 8.79102 3.33594 9.26953 3.33594 9.88477C3.33594 10.5 3.82812 10.9922 4.44336 10.9922ZM4.44336 14.2871L25.0195 14.2871C27.5078 14.2871 29.4492 12.332 29.4492 9.84375C29.4492 7.35547 27.5078 5.40039 25.0195 5.40039L4.44336 5.40039C1.95508 5.40039 0 7.35547 0 9.84375C0 12.332 1.95508 14.2871 4.44336 14.2871ZM4.44336 12.7695C2.80273 12.7695 1.51758 11.4844 1.51758 9.84375C1.51758 8.2168 2.80273 6.91797 4.44336 6.91797L25.0195 6.91797C26.6465 6.91797 27.9316 8.2168 27.9316 9.84375C27.9316 11.4844 26.6465 12.7695 25.0195 12.7695Z" fill="black" fill-opacity="0.85"/>
 </g>
</svg>
