<?xml version="1.0" encoding="UTF-8"?>
<!--Generator: Apple Native CoreSVG 326-->
<!DOCTYPE svg
PUBLIC "-//W3C//DTD SVG 1.1//EN"
       "http://www.w3.org/Graphics/SVG/1.1/DTD/svg11.dtd">
<svg version="1.1" xmlns="http://www.w3.org/2000/svg" xmlns:xlink="http://www.w3.org/1999/xlink" viewBox="0 0 20.7266 25.416">
 <g>
  <rect height="25.416" opacity="0" width="20.7266" x="0" y="0"/>
  <path d="M1.14844 22.791C1.87305 22.791 2.22852 22.5176 2.48828 21.752L4.25195 16.9258L12.3184 16.9258L14.082 21.752C14.3418 22.5176 14.6973 22.791 15.4082 22.791C16.1328 22.791 16.5977 22.3535 16.5977 21.6699C16.5977 21.4375 16.5566 21.2188 16.4473 20.9316L10.0352 3.85547C9.7207 3.02148 9.16016 2.59766 8.28516 2.59766C7.4375 2.59766 6.86328 3.00781 6.5625 3.8418L0.150391 20.9453C0.0410156 21.2324 0 21.4512 0 21.6836C0 22.3672 0.4375 22.791 1.14844 22.791ZM4.92188 14.8477L8.24414 5.64648L8.3125 5.64648L11.6348 14.8477Z" fill="black" fill-opacity="0.85"/>
  <path d="M19.373 11.4297C19.9746 11.4297 20.3711 11.0332 20.3711 10.459L20.3711 1.10742C20.3711 0.423828 19.9609 0 19.291 0C18.6895 0 18.3887 0.232422 17.9922 0.505859L15.8047 2.00977C15.4082 2.26953 15.2578 2.51562 15.2578 2.80273C15.2578 3.26758 15.5996 3.60938 16.0234 3.60938C16.2969 3.60938 16.4609 3.52734 16.7344 3.33594L18.334 2.26953L18.375 2.26953L18.375 10.459C18.375 11.0332 18.7852 11.4297 19.373 11.4297Z" fill="black" fill-opacity="0.85"/>
 </g>
</svg>
