<?xml version="1.0" encoding="UTF-8"?>
<!--Generator: Apple Native CoreSVG 326-->
<!DOCTYPE svg
PUBLIC "-//W3C//DTD SVG 1.1//EN"
       "http://www.w3.org/Graphics/SVG/1.1/DTD/svg11.dtd">
<svg version="1.1" xmlns="http://www.w3.org/2000/svg" xmlns:xlink="http://www.w3.org/1999/xlink" viewBox="0 0 46.1836 28.7793">
 <g>
  <rect height="28.7793" opacity="0" width="46.1836" x="0" y="0"/>
  <path d="M1.66797 28.7793C2.58398 28.7793 3.32227 28.041 3.32227 27.125C3.32227 26.209 2.58398 25.457 1.66797 25.457C0.738281 25.457 0 26.209 0 27.125C0 28.041 0.738281 28.7793 1.66797 28.7793ZM8.75 28.7793C9.66602 28.7793 10.418 28.041 10.418 27.125C10.418 26.209 9.66602 25.457 8.75 25.457C7.83398 25.457 7.0957 26.209 7.0957 27.125C7.0957 28.041 7.83398 28.7793 8.75 28.7793ZM15.8457 28.7793C16.7617 28.7793 17.5 28.041 17.5 27.125C17.5 26.209 16.7617 25.457 15.8457 25.457C14.9297 25.457 14.1777 26.209 14.1777 27.125C14.1777 28.041 14.9297 28.7793 15.8457 28.7793ZM22.9277 28.7793C23.8438 28.7793 24.5957 28.041 24.5957 27.125C24.5957 26.209 23.8438 25.457 22.9277 25.457C22.0117 25.457 21.2734 26.209 21.2734 27.125C21.2734 28.041 22.0117 28.7793 22.9277 28.7793ZM30.0234 28.7793C30.9395 28.7793 31.6777 28.041 31.6777 27.125C31.6777 26.209 30.9395 25.457 30.0234 25.457C29.1074 25.457 28.3555 26.209 28.3555 27.125C28.3555 28.041 29.1074 28.7793 30.0234 28.7793ZM37.1055 28.7793C38.0215 28.7793 38.7734 28.041 38.7734 27.125C38.7734 26.209 38.0215 25.457 37.1055 25.457C36.1895 25.457 35.4512 26.209 35.4512 27.125C35.4512 28.041 36.1895 28.7793 37.1055 28.7793ZM44.1738 28.7793C45.0898 28.7793 45.8281 28.041 45.8281 27.125C45.8281 26.209 45.0898 25.457 44.1738 25.457C43.2578 25.457 42.5059 26.209 42.5059 27.125C42.5059 28.041 43.2578 28.7793 44.1738 28.7793Z" fill="#ff3b30"/>
  <path d="M1.28516 20.2344C1.79102 20.2344 2.29688 19.9336 2.55664 19.2227L4.33398 14.3418L12.4824 14.3418L14.2461 19.2227C14.5195 19.9473 14.998 20.2344 15.5039 20.2344C16.0918 20.2344 16.666 19.7969 16.666 19.1406C16.666 18.9082 16.6113 18.7168 16.5156 18.416L10.0898 1.35352C9.78906 0.533203 9.25586 0.136719 8.4082 0.136719C7.56055 0.136719 7.04102 0.533203 6.74023 1.33984L0.314453 18.4297C0.21875 18.7305 0.177734 18.9219 0.177734 19.1543C0.177734 19.8242 0.710938 20.2344 1.28516 20.2344ZM4.94922 12.3867L8.3125 3.07617L8.47656 3.07617L11.8398 12.3867ZM19.7695 20.2344C20.4121 20.2344 20.9043 19.7832 20.9043 19.0723L20.9043 17.1855L20.9453 17.1855C21.7109 19.0586 23.4746 20.248 25.6895 20.248C29.3398 20.248 31.7461 17.3496 31.7461 12.8926C31.7461 8.42188 29.3262 5.52344 25.7168 5.52344C23.5566 5.52344 21.7793 6.69922 21 8.57227L20.959 8.57227L20.959 1.80469C20.959 1.05273 20.4941 0.574219 19.8105 0.574219C19.127 0.574219 18.6484 1.05273 18.6484 1.80469L18.6484 19.0723C18.6484 19.7969 19.0996 20.2344 19.7695 20.2344ZM25.2109 18.2383C22.7227 18.2383 20.9727 16.1328 20.9727 12.8926C20.9727 9.65234 22.7227 7.54688 25.2109 7.54688C27.7676 7.54688 29.3535 9.59766 29.3535 12.8926C29.3535 16.2012 27.7539 18.2383 25.2109 18.2383ZM39.9219 20.248C42.5332 20.248 44.7891 18.7988 45.5547 16.7617C45.6504 16.5293 45.6914 16.2969 45.6914 16.1055C45.6914 15.5176 45.2539 15.1074 44.6797 15.1074C44.1738 15.1074 43.9004 15.3125 43.5859 15.9004C42.9023 17.4043 41.7266 18.2383 39.9355 18.2383C37.3516 18.2383 35.6836 16.2148 35.6836 12.8926C35.6836 9.59766 37.3652 7.5332 39.9355 7.5332C41.6309 7.5332 42.8613 8.32617 43.5586 9.89844C43.8457 10.459 44.1465 10.6504 44.6387 10.6504C45.2266 10.6504 45.6367 10.2539 45.6367 9.67969C45.6367 9.50195 45.6094 9.29688 45.5547 9.11914C44.8711 7.05469 42.5879 5.52344 39.8809 5.52344C35.9023 5.52344 33.3047 8.44922 33.3047 12.9062C33.3047 17.3906 35.9297 20.248 39.9219 20.248Z" fill="black" fill-opacity="0.85"/>
 </g>
</svg>
