<?xml version="1.0" encoding="UTF-8"?>
<!--Generator: Apple Native CoreSVG 326-->
<!DOCTYPE svg
PUBLIC "-//W3C//DTD SVG 1.1//EN"
       "http://www.w3.org/Graphics/SVG/1.1/DTD/svg11.dtd">
<svg version="1.1" xmlns="http://www.w3.org/2000/svg" xmlns:xlink="http://www.w3.org/1999/xlink" viewBox="0 0 28.4785 34.8496">
 <g>
  <rect height="34.8496" opacity="0" width="28.4785" x="0" y="0"/>
  <path d="M1.02539 28.4375L27.084 28.4375C27.6582 28.4375 28.123 27.9863 28.123 27.3984C28.123 26.8242 27.6582 26.373 27.084 26.373L1.02539 26.373C0.451172 26.373 0 26.8242 0 27.3984C0 27.9863 0.451172 28.4375 1.02539 28.4375ZM1.02539 34.8496L17.8828 34.8496C18.457 34.8496 18.9219 34.3984 18.9219 33.8242C18.9219 33.25 18.457 32.7852 17.8828 32.7852L1.02539 32.7852C0.451172 32.7852 0 33.25 0 33.8242C0 34.3984 0.451172 34.8496 1.02539 34.8496Z" fill="black" fill-opacity="0.85"/>
  <path d="M3.80078 22.0117L24.3223 22.0117C26.8652 22.0117 28.123 20.7676 28.123 18.2793L28.123 3.77344C28.123 1.28516 26.8652 0.0136719 24.3223 0.0136719L3.80078 0.0136719C1.28516 0.0136719 0 1.29883 0 3.77344L0 18.2793C0 20.7539 1.27148 22.0117 3.80078 22.0117ZM3.82812 19.9336C2.67969 19.9336 2.06445 19.332 2.06445 18.1562L2.06445 3.88281C2.06445 2.7207 2.67969 2.07812 3.82812 2.07812L24.3086 2.07812C25.4434 2.07812 26.0586 2.70703 26.0586 3.88281L26.0586 18.1562C26.0586 19.3184 25.4434 19.9336 24.3086 19.9336ZM26.8242 17.623L19.7832 10.9922C19.25 10.5137 18.6211 10.2676 17.9785 10.2676C17.3359 10.2676 16.7617 10.5 16.2012 10.9785L10.8418 15.7773L8.6543 13.7812C8.16211 13.3301 7.61523 13.0977 7.02734 13.0977C6.50781 13.0977 6.01562 13.3301 5.50977 13.7812L1.01172 17.8555C1.08008 19.9883 1.95508 21.082 3.73242 21.082L23.6113 21.082C25.7578 21.082 26.8242 19.8926 26.8242 17.623Z" fill="black" fill-opacity="0.85"/>
  <path d="M8.90039 11.1289C10.4316 11.1289 11.7031 9.85742 11.7031 8.3125C11.7031 6.78125 10.4316 5.52344 8.90039 5.52344C7.35547 5.52344 6.11133 6.78125 6.11133 8.3125C6.11133 9.85742 7.35547 11.1289 8.90039 11.1289Z" fill="black" fill-opacity="0.85"/>
 </g>
</svg>
