<?xml version="1.0" encoding="UTF-8"?>
<!--Generator: Apple Native CoreSVG 326-->
<!DOCTYPE svg
PUBLIC "-//W3C//DTD SVG 1.1//EN"
       "http://www.w3.org/Graphics/SVG/1.1/DTD/svg11.dtd">
<svg version="1.1" xmlns="http://www.w3.org/2000/svg" xmlns:xlink="http://www.w3.org/1999/xlink" viewBox="0 0 31.6914 20.2207">
 <g>
  <rect height="20.2207" opacity="0" width="31.6914" x="0" y="0"/>
  <path d="M24.1309 20.1934C26.2363 20.1934 28.2051 19.0449 29.0527 17.2676L29.1074 17.2676L29.1074 19.0723C29.1074 19.7559 29.5723 20.207 30.2148 20.207C30.8711 20.207 31.3359 19.7559 31.3359 19.0176L31.3359 9.88477C31.3359 6.9043 29.1484 4.99023 25.6758 4.99023C23.1055 4.99023 20.959 6.125 20.1797 7.88867C20.0293 8.2168 19.9199 8.54492 19.9199 8.8457C19.9199 9.44727 20.3711 9.84375 20.959 9.84375C21.3828 9.84375 21.7109 9.67969 21.916 9.29688C22.6816 7.71094 23.8438 6.95898 25.6211 6.95898C27.7539 6.95898 29.0254 8.16211 29.0254 10.0762L29.0254 11.252L24.6094 11.498C21.1504 11.6895 19.2227 13.2891 19.2227 15.832C19.2227 18.4434 21.2324 20.1934 24.1309 20.1934ZM24.6914 18.293C22.8457 18.293 21.5879 17.2812 21.5879 15.7773C21.5879 14.3281 22.75 13.3574 24.8965 13.2207L29.0254 12.9609L29.0254 14.4102C29.0254 16.584 27.0977 18.293 24.6914 18.293Z" fill="black" fill-opacity="0.85"/>
  <path d="M1.14844 20.1934C1.87305 20.1934 2.22852 19.9199 2.48828 19.1543L4.25195 14.3281L12.3184 14.3281L14.082 19.1543C14.3418 19.9199 14.6973 20.1934 15.4082 20.1934C16.1328 20.1934 16.5977 19.7559 16.5977 19.0723C16.5977 18.8398 16.5566 18.6211 16.4473 18.334L10.0352 1.25781C9.7207 0.423828 9.16016 0 8.28516 0C7.4375 0 6.86328 0.410156 6.5625 1.24414L0.150391 18.3477C0.0410156 18.6348 0 18.8535 0 19.0859C0 19.7695 0.4375 20.1934 1.14844 20.1934ZM4.92188 12.25L8.24414 3.04883L8.3125 3.04883L11.6348 12.25Z" fill="black" fill-opacity="0.85"/>
 </g>
</svg>
