<?xml version="1.0" encoding="UTF-8"?>
<!--Generator: Apple Native CoreSVG 326-->
<!DOCTYPE svg
PUBLIC "-//W3C//DTD SVG 1.1//EN"
       "http://www.w3.org/Graphics/SVG/1.1/DTD/svg11.dtd">
<svg version="1.1" xmlns="http://www.w3.org/2000/svg" xmlns:xlink="http://www.w3.org/1999/xlink" viewBox="0 0 33.0522 34.7655">
 <g>
  <rect height="34.7655" opacity="0" width="33.0522" x="0" y="0"/>
  <path d="M19.9099 2.82906L22.2068 11.415C22.256 11.5998 22.3015 11.7831 22.3305 11.96C21.6879 12.6765 21.0384 13.4237 20.41 14.1824C20.3667 13.4867 20.2384 12.7529 20.033 11.9892L17.7497 3.45797C17.4763 2.47359 16.8201 2.07711 15.8357 2.35055L3.48998 5.64547C2.49194 5.91891 2.1228 6.58883 2.38256 7.5732L4.66577 16.1181C6.01928 21.1494 9.61498 23.3779 14.5095 22.0654C15.1018 21.9061 15.6517 21.7112 16.1563 21.4812C16.1433 21.5795 16.1385 21.6787 16.1365 21.7783C15.1521 21.915 14.2361 22.3798 13.4841 23.2138C13.0256 23.6997 12.753 24.1975 12.5862 24.6879C7.72486 25.0411 3.98148 22.242 2.49194 16.706L0.195062 8.10641C-0.447516 5.71383 0.509515 4.16891 2.88842 3.52633L15.2888 0.204062C17.654-0.438516 19.2673 0.436484 19.9099 2.82906ZM17.8044 14.6005C17.7361 16.747 16.1912 18.5654 13.7439 19.2216C11.283 19.8779 9.04077 19.0712 7.906 17.2529C7.52319 16.6787 7.86498 16.2412 8.37084 16.3095C9.79272 16.5009 11.3787 16.2275 12.8279 15.831C14.2634 15.4482 15.7947 14.9013 16.9294 14.0127C17.3396 13.7119 17.8455 13.917 17.8044 14.6005ZM9.69702 11.1005C9.82006 11.5517 9.69702 11.8798 9.40991 11.9619C9.05444 12.0576 8.61694 11.6337 7.74194 11.8662C6.86694 12.0986 6.70287 12.6865 6.36108 12.7822C6.07397 12.8642 5.80053 12.6318 5.69116 12.1806C5.39037 11.0732 6.0603 9.96578 7.16772 9.67867C8.27514 9.37789 9.39623 9.99312 9.69702 11.1005ZM17.1892 9.10445C17.3122 9.55562 17.2029 9.88375 16.9158 9.96578C16.5603 10.0478 16.1228 9.61031 15.2478 9.85641C14.3728 10.0888 14.2087 10.6767 13.8669 10.7724C13.5525 10.8545 13.2927 10.622 13.1697 10.1709C12.8689 9.07711 13.5525 7.96969 14.6599 7.66891C15.7673 7.36812 16.9021 7.99703 17.1892 9.10445Z" fill="black" fill-opacity="0.85"/>
  <path d="M9.50561 31.8271C12.6228 34.7666 18.0232 34.7666 20.8533 31.7587C22.4529 30.0771 23.0134 28.0537 22.4802 26.1943C23.738 25.7295 24.7361 24.8134 25.7888 23.3369C29.3298 18.2509 32.1462 9.73336 32.4607 8.83102C33.4997 5.91891 30.738 3.77242 28.2634 5.86422C27.5115 6.52047 21.2497 12.5771 17.7087 17.6904C16.6833 19.167 16.1638 20.4384 16.1365 21.7783C15.1521 21.915 14.2361 22.3798 13.4841 23.2138C11.6521 25.1552 12.7869 27.288 11.7888 28.3681C10.8865 29.2978 9.86108 29.0517 9.23217 29.749C8.76733 30.2822 8.71264 31.0888 9.50561 31.8271ZM18.3376 21.997C18.2966 21.0947 18.6794 20.124 19.5134 18.9482C23.0408 13.9853 29.1247 8.12008 29.6306 7.60055C30.0271 7.17672 30.615 7.5732 30.3689 8.13375C30.1091 8.72164 27.4431 17.1298 23.9705 22.0791C23.0955 23.3505 22.3162 23.9521 21.4412 24.2255C21.0994 23.788 20.6755 23.3642 20.1833 22.9814C19.6091 22.5576 18.9802 22.2021 18.3376 21.997ZM23.9021 22.5166L25.5564 21.7646C24.9138 19.2216 21.947 17.1025 19.3767 17.3349L19.1033 19.167C20.8122 18.8115 23.6013 20.7666 23.9021 22.5166ZM19.3904 24.9365C21.031 26.413 20.9216 28.5732 19.3494 30.2959C17.613 32.2509 14.4685 32.7841 12.2263 31.1435C12.0076 30.9795 11.9939 30.788 12.0896 30.6377C12.2537 30.4326 13.0056 30.2548 13.4841 29.5712C14.5505 28.04 13.7849 26.2353 15.0701 24.7724C16.1638 23.5693 17.9548 23.624 19.3904 24.9365Z" fill="black" fill-opacity="0.85"/>
 </g>
</svg>
