<?xml version="1.0" encoding="UTF-8"?>
<!--Generator: Apple Native CoreSVG 326-->
<!DOCTYPE svg
PUBLIC "-//W3C//DTD SVG 1.1//EN"
       "http://www.w3.org/Graphics/SVG/1.1/DTD/svg11.dtd">
<svg version="1.1" xmlns="http://www.w3.org/2000/svg" xmlns:xlink="http://www.w3.org/1999/xlink" viewBox="0 0 39.375 26.6738">
 <g>
  <rect height="26.6738" opacity="0" width="39.375" x="0" y="0"/>
  <path d="M0 13.3301C0 17.6641 1.4082 21.6426 3.78711 24.8828C4.21094 25.4707 4.93555 25.5254 5.48242 25.0879C5.97461 24.6641 6.04297 24.0078 5.64648 23.4609C3.56836 20.6309 2.33789 17.1172 2.33789 13.3301C2.33789 9.5293 3.56836 6.0293 5.64648 3.17188C6.04297 2.65234 5.98828 1.98242 5.48242 1.55859C4.93555 1.12109 4.21094 1.18945 3.78711 1.76367C1.4082 5.00391 0 8.99609 0 13.3301ZM39.0195 13.3301C39.0195 8.99609 37.625 5.00391 35.2324 1.76367C34.8086 1.18945 34.084 1.12109 33.5371 1.55859C33.0312 1.98242 32.9902 2.65234 33.373 3.17188C35.4648 6.0293 36.6816 9.5293 36.6816 13.3301C36.6816 17.1172 35.4648 20.6309 33.373 23.4609C32.9902 24.0078 33.0449 24.6641 33.5371 25.0879C34.084 25.5254 34.8086 25.4707 35.2324 24.8828C37.625 21.6426 39.0195 17.6641 39.0195 13.3301Z" fill="#ff3b30"/>
  <path d="M19.5098 26.6602C26.8789 26.6602 32.8535 20.6855 32.8535 13.3301C32.8535 5.96094 26.8789 0 19.5098 0C12.1543 0 6.17969 5.96094 6.17969 13.3301C6.17969 20.6855 12.1543 26.6602 19.5098 26.6602ZM19.5098 24.3359C13.4395 24.3359 8.50391 19.4004 8.50391 13.3301C8.50391 7.24609 13.4395 2.31055 19.5098 2.31055C25.5938 2.31055 30.5293 7.24609 30.5293 13.3301C30.5293 19.4004 25.5938 24.3359 19.5098 24.3359Z" fill="#ff3b30"/>
  <path d="M18.9902 20.7266C20.7266 20.7266 22.1348 19.332 22.1348 17.5684C22.1348 16.3516 21.4375 15.3535 20.4395 14.8066C20.125 14.6426 20.002 14.4375 20.002 13.9316L20.002 7.32812C20.002 6.76758 19.5508 6.30273 18.9902 6.30273C18.416 6.30273 17.9648 6.76758 17.9648 7.32812L17.9648 13.9316C17.9648 14.4375 17.8555 14.6426 17.5273 14.8066C16.5293 15.3535 15.8457 16.3516 15.8457 17.5684C15.8457 19.332 17.2402 20.7266 18.9902 20.7266ZM22.2852 9.14648L24.7871 9.14648C25.1562 9.14648 25.457 8.8457 25.457 8.46289C25.457 8.09375 25.1562 7.79297 24.7871 7.79297L22.2852 7.79297C21.916 7.79297 21.6016 8.09375 21.6016 8.46289C21.6016 8.8457 21.916 9.14648 22.2852 9.14648ZM22.2852 11.5664L24.7871 11.5664C25.1562 11.5664 25.457 11.252 25.457 10.8828C25.457 10.5137 25.1562 10.2129 24.7871 10.2129L22.2852 10.2129C21.916 10.2129 21.6016 10.5137 21.6016 10.8828C21.6016 11.252 21.916 11.5664 22.2852 11.5664ZM22.2852 14L24.7871 14C25.1562 14 25.457 13.6855 25.457 13.3027C25.457 12.9473 25.1562 12.6465 24.7871 12.6465L22.2852 12.6465C21.916 12.6465 21.6016 12.9473 21.6016 13.3027C21.6016 13.6855 21.916 14 22.2852 14Z" fill="#ff3b30"/>
 </g>
</svg>
