<?xml version="1.0" encoding="UTF-8"?>
<!--Generator: Apple Native CoreSVG 326-->
<!DOCTYPE svg
PUBLIC "-//W3C//DTD SVG 1.1//EN"
       "http://www.w3.org/Graphics/SVG/1.1/DTD/svg11.dtd">
<svg version="1.1" xmlns="http://www.w3.org/2000/svg" xmlns:xlink="http://www.w3.org/1999/xlink" viewBox="0 0 28.2461 27.9043">
 <g>
  <rect height="27.9043" opacity="0" width="28.2461" x="0" y="0"/>
  <path d="M13.9453 27.9043C21.6426 27.9043 27.8906 21.6562 27.8906 13.959C27.8906 6.27539 21.6426 0.0136719 13.9453 0.0136719C6.26172 0.0136719 0 6.27539 0 13.959C0 21.6562 6.26172 27.9043 13.9453 27.9043Z" fill="black" fill-opacity="0.85"/>
  <path d="M10.2812 22.4355C8.09375 22.4355 6.34375 20.6855 6.34375 18.5117C6.34375 17.3633 6.80859 16.3516 7.71094 15.5449C7.875 15.4219 7.90234 15.3398 7.90234 15.1348L7.90234 8.24414C7.90234 6.69922 8.85938 5.64648 10.2812 5.64648C11.6895 5.64648 12.6738 6.69922 12.6738 8.24414L12.6602 15.1348C12.6602 15.3398 12.6875 15.4219 12.8242 15.5449C13.7266 16.3516 14.2051 17.3633 14.2051 18.5117C14.2051 20.6855 12.4551 22.4355 10.2812 22.4355ZM10.2812 21.2734C11.7988 21.2734 13.0293 20.043 13.0293 18.5117C13.0293 17.582 12.6055 16.7617 11.8125 16.2422C11.5664 16.0781 11.4844 15.9141 11.4844 15.5996L11.4844 8.28516C11.4844 7.41016 11.0059 6.83594 10.2812 6.83594C9.5293 6.83594 9.05078 7.41016 9.05078 8.28516L9.05078 15.5996C9.05078 15.9141 8.96875 16.0781 8.72266 16.2422C7.94336 16.7617 7.51953 17.582 7.51953 18.5117C7.51953 20.043 8.73633 21.2734 10.2812 21.2734ZM10.2812 8.85938C9.9668 8.85938 9.73438 8.61328 9.73438 8.29883C9.73438 8.01172 9.9668 7.76562 10.2812 7.76562C10.582 7.76562 10.8145 8.01172 10.8145 8.29883C10.8145 8.61328 10.582 8.85938 10.2812 8.85938ZM10.2812 10.7461C9.9668 10.7461 9.73438 10.5 9.73438 10.1992C9.73438 9.89844 9.9668 9.66602 10.2812 9.66602C10.582 9.66602 10.8145 9.89844 10.8145 10.1992C10.8145 10.5 10.582 10.7461 10.2812 10.7461ZM10.2812 12.6328C9.9668 12.6328 9.73438 12.373 9.73438 12.0586C9.73438 11.7852 9.9668 11.5254 10.2812 11.5254C10.582 11.5254 10.8145 11.7852 10.8145 12.0586C10.8145 12.373 10.582 12.6328 10.2812 12.6328ZM10.2676 20.3438C9.25586 20.3438 8.43555 19.5234 8.43555 18.498C8.43555 17.7871 8.83203 17.1855 9.40625 16.8984C9.65234 16.748 9.73438 16.6797 9.73438 16.3242L9.73438 13.959C9.73438 13.6719 9.9668 13.4258 10.2812 13.4258C10.582 13.4258 10.8145 13.6719 10.8145 13.959L10.8145 16.3242C10.8145 16.6797 10.8828 16.7617 11.1152 16.8984C11.7031 17.2129 12.1133 17.7871 12.1133 18.498C12.1133 19.5098 11.293 20.3438 10.2676 20.3438ZM17.8418 8.55859C16.9395 8.55859 16.2012 7.82031 16.2012 6.91797C16.2012 6.00195 16.9395 5.27734 17.8418 5.27734C18.7578 5.27734 19.4824 6.00195 19.4824 6.91797C19.4824 7.82031 18.7578 8.55859 17.8418 8.55859ZM18.8262 22.0527C18.416 22.0527 18.1016 21.7383 18.1016 21.3145L18.1016 15.9824C18.1016 15.832 17.9785 15.7363 17.8418 15.7363C17.7051 15.7363 17.582 15.832 17.582 15.9824L17.582 21.3145C17.582 21.7383 17.2812 22.0527 16.8574 22.0527C16.4473 22.0527 16.1191 21.7383 16.1191 21.3145L16.1191 12.5371C16.1191 12.4004 16.0234 12.291 15.873 12.291C15.75 12.291 15.627 12.4004 15.627 12.5371L15.627 15.4219C15.627 15.791 15.3262 16.1055 14.957 16.1055C14.6152 16.1055 14.3008 15.791 14.3008 15.4219L14.3008 12.1816C14.3008 10.5273 15.5312 9.41992 17.3086 9.41992L18.3887 9.41992C20.166 9.41992 21.3965 10.5273 21.3965 12.1816L21.3965 15.4219C21.3965 15.791 21.082 16.1055 20.7129 16.1055C20.3711 16.1055 20.0566 15.791 20.0566 15.4219L20.0566 12.5371C20.0566 12.4004 19.9336 12.291 19.8105 12.291C19.6738 12.291 19.5645 12.4004 19.5645 12.5371L19.5645 21.3145C19.5645 21.7383 19.2363 22.0527 18.8262 22.0527Z" fill="white"/>
 </g>
</svg>
