<?xml version="1.0" encoding="UTF-8"?>
<!--Generator: Apple Native CoreSVG 326-->
<!DOCTYPE svg
PUBLIC "-//W3C//DTD SVG 1.1//EN"
       "http://www.w3.org/Graphics/SVG/1.1/DTD/svg11.dtd">
<svg version="1.1" xmlns="http://www.w3.org/2000/svg" xmlns:xlink="http://www.w3.org/1999/xlink" viewBox="0 0 29.0938 34.7402">
 <g>
  <rect height="34.7402" opacity="0" width="29.0938" x="0" y="0"/>
  <path d="M24.377 29.5859C25.4023 30.3242 26.2227 30.9258 27.6992 30.9258L27.7676 30.9258C28.3008 30.9258 28.7383 31.3633 28.7383 31.8965C28.7383 32.4297 28.3008 32.8535 27.7676 32.8535L27.6992 32.8535C23.4336 32.8535 23.0781 30.0781 20.8633 30.0781C18.6895 30.0781 18.0879 32.8535 14.3691 32.8535C10.6367 32.8535 10.0488 30.0781 7.875 30.0781C5.66016 30.0781 5.29102 32.8535 1.03906 32.8535L0.970703 32.8535C0.423828 32.8535 0 32.4297 0 31.8965C0 31.3633 0.423828 30.9258 0.970703 30.9258L1.03906 30.9258C2.50195 30.9258 3.33594 30.3242 4.36133 29.5859C5.25 28.9434 6.35742 28.1504 7.875 28.1504C9.44727 28.1504 10.5684 28.998 11.457 29.6543C12.4004 30.3789 13.1387 30.9258 14.3691 30.9258C15.5859 30.9258 16.3379 30.3789 17.2812 29.6543C18.1699 28.998 19.291 28.1504 20.8633 28.1504C22.3809 28.1504 23.4883 28.9434 24.377 29.5859ZM8.0027 22.016C7.99851 22.0592 7.99805 22.1037 7.99805 22.1484C7.99805 22.7823 8.08917 23.3943 8.26245 23.9704C8.13873 23.9501 8.00992 23.9395 7.875 23.9395C5.66016 23.9395 5.29102 26.7148 1.03906 26.7148L0.970703 26.7148C0.423828 26.7148 0 26.291 0 25.7578C0 25.2246 0.423828 24.7871 0.970703 24.7871L1.03906 24.7871C2.50195 24.7871 3.33594 24.1855 4.36133 23.4473C5.25 22.8047 6.35742 22.0117 7.875 22.0117C7.91834 22.0117 7.96133 22.0124 8.0027 22.016ZM24.377 23.4473C25.4023 24.1855 26.2227 24.7871 27.6992 24.7871L27.7676 24.7871C28.3008 24.7871 28.7383 25.2246 28.7383 25.7578C28.7383 26.291 28.3008 26.7148 27.7676 26.7148L27.6992 26.7148C23.4336 26.7148 23.0781 23.9395 20.8633 23.9395C20.7377 23.9395 20.6173 23.9487 20.5025 23.9683C20.6762 23.3928 20.7676 22.7815 20.7676 22.1484C20.7676 22.1034 20.7671 22.0585 20.7628 22.0151C20.7953 22.0121 20.8292 22.0117 20.8633 22.0117C22.3809 22.0117 23.4883 22.8047 24.377 23.4473Z" fill="black" fill-opacity="0.85"/>
  <path d="M14.3691 26.6738C16.8848 26.6738 18.8945 24.6641 18.8945 22.1484C18.8945 20.3984 17.8965 19.0039 16.5703 18.2656C16.0781 17.9922 15.8594 17.5957 15.8594 16.8848L15.8594 3.33594C15.8594 2.5293 15.1895 1.85938 14.3828 1.85938C13.5625 1.85938 12.9062 2.5293 12.9062 3.33594L12.9062 16.8848C12.9062 17.5684 12.6602 17.9512 12.1543 18.2383C10.8418 18.9766 9.85742 20.3984 9.85742 22.1484C9.85742 24.6641 11.8672 26.6738 14.3691 26.6738ZM19.5781 4.82617L22.5449 4.82617C23.0234 4.82617 23.3516 4.45703 23.3516 4.0332C23.3516 3.60938 23.0234 3.22656 22.5449 3.22656L19.5781 3.22656C19.0996 3.22656 18.7715 3.60938 18.7715 4.0332C18.7715 4.45703 19.0996 4.82617 19.5781 4.82617ZM19.5781 8.66797L22.5449 8.66797C23.0234 8.66797 23.3516 8.28516 23.3516 7.86133C23.3516 7.4375 23.0234 7.06836 22.5449 7.06836L19.5781 7.06836C19.0996 7.06836 18.7715 7.4375 18.7715 7.86133C18.7715 8.28516 19.0996 8.66797 19.5781 8.66797ZM19.5781 12.4961L22.5449 12.4961C23.0234 12.4961 23.3516 12.127 23.3516 11.7031C23.3516 11.2793 23.0234 10.9102 22.5449 10.9102L19.5781 10.9102C19.0996 10.9102 18.7715 11.2793 18.7715 11.7031C18.7715 12.127 19.0996 12.4961 19.5781 12.4961ZM19.5781 16.3379L22.5449 16.3379C23.0234 16.3379 23.3516 15.9688 23.3516 15.5449C23.3516 15.1211 23.0234 14.752 22.5449 14.752L19.5781 14.752C19.0996 14.752 18.7715 15.1211 18.7715 15.5449C18.7715 15.9688 19.0996 16.3379 19.5781 16.3379Z" fill="black" fill-opacity="0.85"/>
 </g>
</svg>
