<?xml version="1.0" encoding="UTF-8"?>
<!--Generator: Apple Native CoreSVG 326-->
<!DOCTYPE svg
PUBLIC "-//W3C//DTD SVG 1.1//EN"
       "http://www.w3.org/Graphics/SVG/1.1/DTD/svg11.dtd">
<svg version="1.1" xmlns="http://www.w3.org/2000/svg" xmlns:xlink="http://www.w3.org/1999/xlink" viewBox="0 0 28.2461 27.9043">
 <g>
  <rect height="27.9043" opacity="0" width="28.2461" x="0" y="0"/>
  <path d="M13.9453 27.8906C21.6426 27.8906 27.8906 21.6289 27.8906 13.9453C27.8906 6.24805 21.6426 0 13.9453 0C6.26172 0 0 6.24805 0 13.9453C0 21.6289 6.26172 27.8906 13.9453 27.8906Z" fill="black" fill-opacity="0.85"/>
  <path d="M13.9453 21.957C9.55664 21.957 5.93359 18.334 5.93359 13.9453C5.93359 11.9902 6.67188 10.1582 7.86133 8.77734C8.24414 8.32617 8.85938 8.27148 9.24219 8.66797C9.61133 9.03711 9.57031 9.58398 9.25586 9.9668C8.33984 11.0469 7.79297 12.4004 7.79297 13.9453C7.79297 17.3906 10.5 20.0977 13.9453 20.0977C17.4043 20.0977 20.084 17.3906 20.084 13.9453C20.084 10.7598 17.8281 8.23047 14.7656 7.84766L14.7656 9.06445C14.7656 9.54297 14.4102 9.93945 13.918 9.93945C13.4121 9.93945 13.0703 9.54297 13.0703 9.06445L13.0703 6.83594C13.0703 6.31641 13.3711 5.93359 13.959 5.93359C18.334 5.93359 21.957 9.55664 21.957 13.9453C21.957 18.334 18.334 21.957 13.9453 21.957ZM15.2852 15.1621C14.5879 15.8457 13.6035 15.709 13.0566 14.875L10.582 11.1973C10.2129 10.6504 10.7871 10.1035 11.3477 10.4453L15.0254 12.9199C15.832 13.4805 15.9688 14.4375 15.2852 15.1621Z" fill="white"/>
 </g>
</svg>
