<?xml version="1.0" encoding="UTF-8"?>
<!--Generator: Apple Native CoreSVG 326-->
<!DOCTYPE svg
PUBLIC "-//W3C//DTD SVG 1.1//EN"
       "http://www.w3.org/Graphics/SVG/1.1/DTD/svg11.dtd">
<svg version="1.1" xmlns="http://www.w3.org/2000/svg" xmlns:xlink="http://www.w3.org/1999/xlink" viewBox="0 0 28.1641 27.2207">
 <g>
  <rect height="27.2207" opacity="0" width="28.1641" x="0" y="0"/>
  <path d="M0 13.6445C0 16.7754 1.18945 19.2637 2.44727 21.2188C3.13086 22.2852 3.52734 23.3242 3.52734 24.1172L3.52734 26.127C3.52734 26.6875 4.00586 27.1797 4.58008 27.1797C5.1543 27.1797 5.64648 26.6875 5.64648 26.127L5.64648 25.3613L7.35547 25.3613L7.35547 26.127C7.35547 26.6875 7.84766 27.1797 8.42188 27.1797C8.99609 27.1797 9.47461 26.6875 9.47461 26.127L9.47461 25.3613L11.0195 25.3613L11.0195 26.127C11.0195 26.6875 11.5254 27.1797 12.0996 27.1797C12.6738 27.1797 13.1523 26.6875 13.1523 26.127L13.1523 25.3613L14.6426 25.3613L14.6426 26.127C14.6426 26.6875 15.1348 27.1797 15.6953 27.1797C16.2695 27.1797 16.7754 26.6875 16.7754 26.127L16.7754 25.3613L18.3203 25.3613L18.3203 26.127C18.3203 26.6875 18.7988 27.1797 19.373 27.1797C19.9473 27.1797 20.4395 26.6875 20.4395 26.127L20.4395 25.3613L22.1484 25.3613L22.1484 26.127C22.1484 26.6875 22.6406 27.1797 23.2148 27.1797C23.7891 27.1797 24.2812 26.6875 24.2812 26.127L24.2812 24.1309C24.2812 23.3926 24.7188 22.2988 25.4844 21.0273C26.6602 19.1133 27.8086 16.6797 27.8086 13.6445C27.8086 10.1719 26.4688 7.24609 24.623 4.9082C23.8711 3.92383 23.8301 3.66406 23.8301 3.02148L23.8301 1.06641C23.8301 0.492188 23.3242 0 22.75 0C22.1758 0 21.6973 0.492188 21.6973 1.06641L21.6973 3.17188C21.6973 4.7168 21.9297 4.94922 22.8184 6.09766C24.3633 8.09375 25.6074 10.5547 25.6074 13.6445C25.6074 17.418 23.6797 20.125 20.8496 21.752L6.94531 21.752C4.12891 20.125 2.20117 17.418 2.20117 13.6445C2.20117 10.5547 3.44531 8.09375 4.97656 6.09766C5.87891 4.94922 6.11133 4.7168 6.11133 3.17188L6.11133 1.06641C6.11133 0.492188 5.61914 0 5.05859 0C4.48438 0 3.97852 0.492188 3.97852 1.06641L3.97852 3.02148C3.97852 3.66406 3.9375 3.92383 3.17188 4.9082C1.33984 7.24609 0 10.1719 0 13.6445Z" fill="black" fill-opacity="0.85"/>
 </g>
</svg>
