<?xml version="1.0" encoding="UTF-8"?>
<!--Generator: Apple Native CoreSVG 326-->
<!DOCTYPE svg
PUBLIC "-//W3C//DTD SVG 1.1//EN"
       "http://www.w3.org/Graphics/SVG/1.1/DTD/svg11.dtd">
<svg version="1.1" xmlns="http://www.w3.org/2000/svg" xmlns:xlink="http://www.w3.org/1999/xlink" viewBox="0 0 19.8105 32.9902">
 <g>
  <rect height="32.9902" opacity="0" width="19.8105" x="0" y="0"/>
  <path d="M1.32617 2.20117L18.1289 2.20117C18.7305 2.20117 19.2227 1.69531 19.2227 1.09375C19.2227 0.492188 18.7305 0 18.1289 0L1.32617 0C0.724609 0 0.21875 0.492188 0.21875 1.09375C0.21875 1.69531 0.724609 2.20117 1.32617 2.20117ZM1.98242 13.6172L4.11523 12.7148L3.69141 5.66016L15.7637 5.66016L15.3398 12.7148L17.459 13.6172L18.1152 3.71875L1.32617 3.71875ZM9.7207 18.3887C15.4629 18.3887 19.4551 16.9258 19.4551 14.8203C19.4551 12.7695 15.4629 11.3477 9.7207 11.3477C3.99219 11.3477 0 12.7695 0 14.8203C0 16.9258 3.99219 18.3887 9.7207 18.3887ZM9.7207 16.5293C5.52344 16.5293 2.7207 15.8457 2.7207 14.8203C2.7207 13.8633 5.52344 13.207 9.7207 13.207C13.9316 13.207 16.7344 13.8633 16.7344 14.8203C16.7344 15.8457 13.9316 16.5293 9.7207 16.5293ZM9.16016 24.7871L10.2949 24.7871C15.7227 24.7871 19.4551 20.7266 19.4551 14.8203L17.4316 14.8203C17.4316 19.4961 14.5332 22.6953 10.2949 22.6953L9.16016 22.6953C4.92188 22.6953 2.02344 19.4961 2.02344 14.8203L0 14.8203C0 20.7266 3.73242 24.7871 9.16016 24.7871ZM9.9668 32.9902C12.4688 32.9902 15.4219 32.3887 16.7207 31.0898C17.0625 30.7344 17.0762 30.2695 16.9395 29.7773L14.6836 22.3262L12.7148 23.4473L14.998 30.9531L15.0938 29.5586C14.2051 30.3516 12.1133 30.7891 9.9668 30.7891C7.82031 30.7891 5.72852 30.3516 4.83984 29.5586L4.94922 30.9531L7.21875 23.4473L5.26367 22.3262L2.99414 29.7773C2.85742 30.2695 2.87109 30.7344 3.22656 31.0898C4.53906 32.3887 7.47852 32.9902 9.9668 32.9902Z" fill="black" fill-opacity="0.85"/>
 </g>
</svg>
