<?xml version="1.0" encoding="UTF-8"?>
<!--Generator: Apple Native CoreSVG 326-->
<!DOCTYPE svg
PUBLIC "-//W3C//DTD SVG 1.1//EN"
       "http://www.w3.org/Graphics/SVG/1.1/DTD/svg11.dtd">
<svg version="1.1" xmlns="http://www.w3.org/2000/svg" xmlns:xlink="http://www.w3.org/1999/xlink" viewBox="0 0 19.3594 33.0723">
 <g>
  <rect height="33.0723" opacity="0" width="19.3594" x="0" y="0"/>
  <path d="M1.10742 2.24219L17.9102 2.24219C18.5117 2.24219 19.0039 1.73633 19.0039 1.13477C19.0039 0.533203 18.5117 0.0410156 17.9102 0.0410156L1.10742 0.0410156C0.505859 0.0410156 0 0.533203 0 1.13477C0 1.73633 0.505859 2.24219 1.10742 2.24219ZM17.3906 11.3066L17.8965 3.75977L1.10742 3.75977L1.61328 11.3066C3.56836 10.5 6.33008 10.0625 9.51562 10.0625C12.6875 10.0625 15.4492 10.5 17.3906 11.3066ZM9.51562 18.3613C15.0527 18.3613 19.0039 16.9531 19.0039 14.957C19.0039 12.9746 15.0117 11.5801 9.51562 11.5801C4.00586 11.5801 0 12.9746 0 14.957C0 16.9531 4.00586 18.3613 9.51562 18.3613ZM9.51562 16.3516C5.57812 16.3516 3.00781 15.7637 3.00781 14.957C3.00781 14.1777 5.57812 13.6035 9.51562 13.6035C13.4395 13.6035 15.9961 14.1777 15.9961 14.957C15.9961 15.7637 13.4395 16.3516 9.51562 16.3516ZM9.03711 24.8691L9.9668 24.8691C14.5605 24.8691 18.0605 22.1895 18.8535 17.7324C17.0078 19.0586 13.6855 19.8105 9.51562 19.8105C5.35938 19.8105 2.00977 19.0586 0.150391 17.7188C0.929688 22.1895 4.44336 24.8691 9.03711 24.8691ZM9.50195 33.0723C11.7305 33.0723 14.6836 32.4707 15.9824 31.1719C16.3242 30.8164 16.3516 30.3516 16.2012 29.8594L14.8613 25.3887C13.3711 26.0449 11.6621 26.3867 9.9668 26.3867L8.98242 26.3867C7.31445 26.3867 5.64648 26.0586 4.15625 25.416L2.80273 29.8594C2.66602 30.3516 2.67969 30.8164 3.03516 31.1719C4.34766 32.4707 7.28711 33.0723 9.50195 33.0723Z" fill="black" fill-opacity="0.85"/>
 </g>
</svg>
