<?xml version="1.0" encoding="UTF-8"?>
<!--Generator: Apple Native CoreSVG 326-->
<!DOCTYPE svg
PUBLIC "-//W3C//DTD SVG 1.1//EN"
       "http://www.w3.org/Graphics/SVG/1.1/DTD/svg11.dtd">
<svg version="1.1" xmlns="http://www.w3.org/2000/svg" xmlns:xlink="http://www.w3.org/1999/xlink" viewBox="0 0 28.2461 27.9043">
 <g>
  <rect height="27.9043" opacity="0" width="28.2461" x="0" y="0"/>
  <path d="M13.9453 27.8906C21.6426 27.8906 27.8906 21.6426 27.8906 13.9453C27.8906 6.24805 21.6426 0 13.9453 0C6.24805 0 0 6.24805 0 13.9453C0 21.6426 6.24805 27.8906 13.9453 27.8906ZM13.9453 25.5664C7.51953 25.5664 2.32422 20.3711 2.32422 13.9453C2.32422 7.51953 7.51953 2.32422 13.9453 2.32422C20.3711 2.32422 25.5664 7.51953 25.5664 13.9453C25.5664 20.3711 20.3711 25.5664 13.9453 25.5664Z" fill="black" fill-opacity="0.85"/>
  <path d="M9.48828 6.9043L18.375 6.9043C18.7031 6.9043 18.9629 6.63086 18.9629 6.31641C18.9629 6.00195 18.7031 5.72852 18.375 5.72852L9.48828 5.72852C9.16016 5.72852 8.90039 6.00195 8.90039 6.31641C8.90039 6.63086 9.17383 6.9043 9.48828 6.9043ZM13.9453 10.9785C15.6133 10.9785 17.0488 11.1973 18.0605 11.6211L18.3477 7.73828L9.51562 7.73828L9.80273 11.6211C10.8281 11.2109 12.2773 10.9785 13.9453 10.9785ZM13.9316 15.3945C16.8574 15.3945 18.9355 14.6426 18.9355 13.5898C18.9355 12.5508 16.8301 11.8125 13.9316 11.8125C11.0469 11.8125 8.92773 12.5508 8.92773 13.5898C8.92773 14.6426 11.0469 15.3945 13.9316 15.3945ZM13.9316 14.3008C11.8672 14.3008 10.5273 14 10.5273 13.5898C10.5273 13.1934 11.8672 12.8926 13.9316 12.8926C16.0098 12.8926 17.3359 13.1934 17.3359 13.5898C17.3359 14 16.0098 14.3008 13.9316 14.3008ZM13.6855 18.7852L14.1777 18.7852C16.5566 18.7852 18.375 17.418 18.8262 15.1211C17.8281 15.8047 16.0918 16.2012 13.9316 16.2012C11.7852 16.2012 10.0352 15.8047 9.03711 15.1074C9.47461 17.418 11.3066 18.7852 13.6855 18.7852ZM13.9316 23.0918C15.1074 23.0918 16.6523 22.7773 17.3359 22.1211C17.5137 21.9297 17.5137 21.6836 17.4453 21.4102L16.7344 19.0723C15.9688 19.4277 15.0664 19.6191 14.1777 19.6191L13.6582 19.6191C12.7969 19.6191 11.8945 19.4277 11.1289 19.0859L10.418 21.4102C10.3496 21.6836 10.3633 21.9297 10.541 22.1211C11.2109 22.7773 12.7559 23.0918 13.9316 23.0918Z" fill="black" fill-opacity="0.85"/>
 </g>
</svg>
