<?xml version="1.0" encoding="UTF-8"?>
<!--Generator: Apple Native CoreSVG 326-->
<!DOCTYPE svg
PUBLIC "-//W3C//DTD SVG 1.1//EN"
       "http://www.w3.org/Graphics/SVG/1.1/DTD/svg11.dtd">
<svg version="1.1" xmlns="http://www.w3.org/2000/svg" xmlns:xlink="http://www.w3.org/1999/xlink" viewBox="0 0 28.2461 27.9043">
 <g>
  <rect height="27.9043" opacity="0" width="28.2461" x="0" y="0"/>
  <path d="M13.9453 27.8906C21.6426 27.8906 27.8906 21.6426 27.8906 13.9453C27.8906 6.24805 21.6426 0 13.9453 0C6.24805 0 0 6.24805 0 13.9453C0 21.6426 6.24805 27.8906 13.9453 27.8906ZM13.9453 25.5664C7.51953 25.5664 2.32422 20.3711 2.32422 13.9453C2.32422 7.51953 7.51953 2.32422 13.9453 2.32422C20.3711 2.32422 25.5664 7.51953 25.5664 13.9453C25.5664 20.3711 20.3711 25.5664 13.9453 25.5664Z" fill="black" fill-opacity="0.85"/>
  <path d="M13.8223 12.7012C18.4023 12.7012 21.1367 11.5391 21.1367 9.84375C21.1367 8.29883 18.9629 7.38281 15.9414 7.38281C13.6992 7.38281 11.9219 7.80664 10.5957 8.43555C10.1582 8.64062 10.0625 9.0918 10.2266 9.40625C10.4043 9.76172 10.8555 9.85742 11.2246 9.69336C12.4004 9.20117 13.8633 8.72266 15.8867 8.72266C18.3477 8.72266 19.7012 9.26953 19.7012 9.83008C19.7012 10.5 17.5273 11.3203 13.7676 11.3203C10.0488 11.3203 8.18945 10.6094 8.18945 9.31055C8.18945 8.53125 8.88672 7.71094 10.9922 7.05469C11.416 6.9043 11.6348 6.53516 11.5117 6.15234C11.375 5.7832 11.0332 5.63281 10.541 5.76953C8.01172 6.53516 6.74023 7.88867 6.74023 9.33789C6.74023 11.5527 9.24219 12.7012 13.8223 12.7012ZM14.041 15.1484C16.3926 15.1484 18.5664 14.7656 20.084 14.123C20.4531 13.9863 20.6172 13.6035 20.4531 13.2617C20.2754 12.9473 19.9199 12.8652 19.5234 13.0156C18.1699 13.5488 16.1875 13.8906 14.041 13.8906C12.4414 13.8906 10.6504 13.6992 9.22852 13.2891C8.83203 13.1797 8.47656 13.3164 8.36719 13.6719C8.27148 14.0273 8.46289 14.3828 8.87305 14.4922C10.4043 14.9297 12.373 15.1484 14.041 15.1484ZM14.5469 17.5547C16.5293 17.541 18.375 17.2676 20.0566 16.707C20.5215 16.5293 20.6172 16.1191 20.4941 15.832C20.3711 15.4902 20.0156 15.3809 19.5781 15.5312C17.9375 16.0645 16.2969 16.3242 14.5469 16.3242C13.7949 16.3242 13.0293 16.2695 12.4277 16.1875C11.9902 16.1328 11.7168 16.3242 11.6348 16.6523C11.5664 16.9941 11.7578 17.3223 12.2227 17.418C12.8105 17.5137 13.6309 17.5684 14.5469 17.5547ZM13.8633 19.8516C15.2305 20.002 16.8848 19.9746 18.3066 19.5781C18.7168 19.4551 18.8809 19.0859 18.7715 18.7715C18.6484 18.416 18.3203 18.2656 17.8828 18.3887C16.6934 18.7031 15.3262 18.7988 14.0547 18.6211C13.6309 18.5938 13.3164 18.7988 13.2617 19.1543C13.2344 19.4961 13.4121 19.7969 13.8633 19.8516ZM13.3438 22.2031C13.8359 22.2578 14.3828 22.2578 14.8887 22.2031C15.3125 22.1348 15.5039 21.8613 15.4902 21.5195C15.4355 21.2051 15.1895 20.959 14.7383 21.0137C14.3281 21.0684 13.8906 21.082 13.4805 21.0137C13.043 20.959 12.7832 21.2188 12.7422 21.5059C12.7012 21.834 12.8789 22.1348 13.3438 22.2031Z" fill="black" fill-opacity="0.85"/>
 </g>
</svg>
