<?xml version="1.0" encoding="UTF-8"?>
<!--Generator: Apple Native CoreSVG 326-->
<!DOCTYPE svg
PUBLIC "-//W3C//DTD SVG 1.1//EN"
       "http://www.w3.org/Graphics/SVG/1.1/DTD/svg11.dtd">
<svg version="1.1" xmlns="http://www.w3.org/2000/svg" xmlns:xlink="http://www.w3.org/1999/xlink" viewBox="0 0 45.4043 27.1113">
 <g>
  <rect height="27.1113" opacity="0" width="45.4043" x="0" y="0"/>
  <path d="M16.4609 13.3164C20.2344 13.3027 23.3652 11.9766 25.8398 9.26953C23.3242 6.07031 20.6445 4.56641 16.5566 4.55273C12.4824 4.53906 9.84375 5.85156 7.17773 9.32422C9.69336 12.0449 12.9473 13.3301 16.4609 13.3164ZM7.58789 21.6152C9.63867 19.6465 11.3066 16.543 11.5664 14.1367C9.73438 13.4531 7.49219 12.1406 6.17969 10.7324C5.53711 11.7305 4.85352 12.8105 4.25195 14.0137C2.98047 16.5566 1.53125 17.7324 0.601562 18.6074C0.232422 18.9492 0 19.3457 0 19.8789C0 20.6719 0.847656 21.1094 2.33789 21.1094L3.97852 21.1094C5.52344 21.1094 6.57617 21.3008 7.58789 21.6152ZM16.4336 24.7598C19.5645 24.7598 21.7656 23.1191 23.6113 22.2031C21.5195 20.2207 20.1797 17.2949 19.9746 14.6016C18.8398 14.916 17.6914 15.0664 16.502 15.0664C15.3125 15.0801 14.1641 14.916 13.0566 14.6289C12.8379 17.1445 11.4707 20.1934 9.37891 22.2715C11.1562 22.9688 13.3027 24.7598 16.4336 24.7598ZM25.2109 21.5469C26.4551 21.2461 27.5488 21.0684 29.1484 21.0684C30.4609 21.0684 31.7324 20.8633 32.3613 20.5078C30.8574 18.5527 28.1641 12.7832 26.7559 10.5957C25.3477 12.0586 23.0645 13.4805 21.4922 14.0957C21.7383 16.5566 23.0918 19.4141 25.2109 21.5469Z" fill="black" fill-opacity="0.85"/>
  <path d="M3.82812 27.084C6.20703 27.084 8.64062 26.0312 9.78906 24.4316C8.44922 23.543 6.75391 22.709 5.14062 22.6406C4.41602 22.832 3.60938 22.873 2.77539 23.0371C1.59961 23.2559 0.533203 23.7344 0.533203 24.8691C0.533203 26.3047 1.96875 27.084 3.82812 27.084ZM28.5742 27.1113C30.4336 27.1113 31.8691 26.332 31.8691 24.8965C31.8691 23.7754 30.8027 22.8867 29.627 22.791C28.7793 22.75 28.123 22.7363 27.2617 22.6816C25.6895 22.7637 23.9941 23.5977 22.6133 24.459C23.7617 26.0723 26.1953 27.1113 28.5742 27.1113ZM33.7148 19.9062C35.6426 19.0176 36.5312 17.9102 39.1562 17.9102C42.7246 17.9102 45.0488 16.625 45.0488 14.6016C45.0488 9.93945 42.5742 6.76758 38.8555 6.76758C35.6289 6.76758 33.6191 8.69531 32.8398 11.7988C32.2656 13.9453 31.5137 14.7383 30.8164 15.3398C31.4727 16.2969 32.5938 18.2656 33.7148 19.9062ZM39.1836 13.2344C38.5273 13.2344 38.0078 12.7012 38.0078 12.0586C38.0078 11.4297 38.5273 10.8965 39.1836 10.8965C39.8125 10.8965 40.3457 11.4297 40.3457 12.0586C40.3457 12.7012 39.8125 13.2344 39.1836 13.2344Z" fill="black" fill-opacity="0.85"/>
 </g>
</svg>
