<?xml version="1.0" encoding="UTF-8"?>
<!--Generator: Apple Native CoreSVG 326-->
<!DOCTYPE svg
PUBLIC "-//W3C//DTD SVG 1.1//EN"
       "http://www.w3.org/Graphics/SVG/1.1/DTD/svg11.dtd">
<svg version="1.1" xmlns="http://www.w3.org/2000/svg" xmlns:xlink="http://www.w3.org/1999/xlink" viewBox="0 0 37.7617 28.4512">
 <g>
  <rect height="28.4512" opacity="0" width="37.7617" x="0" y="0"/>
  <path d="M0 9.78906C0 11.252 1.17578 12.4141 2.625 12.4141L5.70117 12.4141C6.39844 12.4141 6.80859 12.6738 7.23242 13.3574L12.4277 21.6016C13.7539 23.6934 15.1074 24.4453 18.0605 24.4453L34.7812 24.4453C36.2441 24.4453 37.4062 23.2832 37.4062 21.8203C37.4062 20.3711 36.2441 19.1953 34.7812 19.1953L17.9785 19.1953C17.2266 19.1953 16.7754 19.0176 16.4883 18.5254L11.1699 9.83008C10.0762 8.05273 8.51758 7.16406 6.64453 7.16406L2.625 7.16406C1.17578 7.16406 0 8.33984 0 9.78906ZM22.8594 14.4512L29.791 14.4512C30.2422 14.4512 30.6797 14.3145 31.0352 14.0547C32.8945 12.5918 34.1523 10.3633 34.1523 7.84766C34.1523 3.58203 30.5977 0.0136719 26.332 0.0136719C22.0801 0.0136719 18.5391 3.58203 18.5391 7.84766C18.5391 10.3633 19.7559 12.5918 21.6016 14.041C21.9707 14.3281 22.4219 14.4512 22.8594 14.4512ZM23.5703 17.9512L29.0391 17.9512L29.0391 14.1504L23.5703 14.1504ZM26.332 28.4512C27.918 28.4512 29.0391 27.3164 29.0391 25.7168L29.0391 25.6895L23.5703 25.6895L23.5703 25.7168C23.5703 27.3164 24.7324 28.4512 26.332 28.4512Z" fill="black" fill-opacity="0.85"/>
 </g>
</svg>
