<?xml version="1.0" encoding="UTF-8"?>
<!--Generator: Apple Native CoreSVG 326-->
<!DOCTYPE svg
PUBLIC "-//W3C//DTD SVG 1.1//EN"
       "http://www.w3.org/Graphics/SVG/1.1/DTD/svg11.dtd">
<svg version="1.1" xmlns="http://www.w3.org/2000/svg" xmlns:xlink="http://www.w3.org/1999/xlink" viewBox="0 0 32.792 31.9751">
 <g>
  <rect height="31.9751" opacity="0" width="32.792" x="0" y="0"/>
  <path d="M6.54496 9.53832C5.37804 11.3284 4.52197 13.4587 4.52197 16.0217C4.52197 19.7952 6.43604 22.5022 9.26611 24.1292L21.1434 24.1292L26.2694 29.2525C26.0744 29.439 25.8097 29.5569 25.522 29.5569C24.9614 29.5569 24.4692 29.0647 24.4692 28.5042L24.4692 27.7385L22.7466 27.7385L22.7466 28.5042C22.7466 29.0647 22.2681 29.5569 21.6938 29.5569C21.1196 29.5569 20.6274 29.0647 20.6274 28.5042L20.6274 27.7385L19.0825 27.7385L19.0825 28.5042C19.0825 29.0647 18.5903 29.5569 18.0161 29.5569C17.4556 29.5569 16.9497 29.0647 16.9497 28.5042L16.9497 27.7385L15.4731 27.7385L15.4731 28.5042C15.4731 29.0647 14.9946 29.5569 14.4204 29.5569C13.8462 29.5569 13.3403 29.0647 13.3403 28.5042L13.3403 27.7385L11.7954 27.7385L11.7954 28.5042C11.7954 29.0647 11.3169 29.5569 10.729 29.5569C10.1685 29.5569 9.67627 29.0647 9.67627 28.5042L9.67627 27.7385L7.95361 27.7385L7.95361 28.5042C7.95361 29.0647 7.4751 29.5569 6.90088 29.5569C6.32666 29.5569 5.83447 29.0647 5.83447 28.5042L5.83447 26.4944C5.83447 25.7014 5.45166 24.6624 4.76807 23.596C3.49658 21.6409 2.3208 19.1526 2.3208 16.0217C2.3208 12.882 3.41606 10.1893 4.98472 7.9789ZM26.1372 3.44361L26.1372 5.39869C26.1372 6.04127 26.1782 6.30103 26.9438 7.28541C28.7759 9.6233 30.1294 12.5491 30.1294 16.0217C30.1294 18.8973 29.0986 21.2328 27.9902 23.0974L26.2751 21.3823C27.3161 19.9358 27.9282 18.1481 27.9282 16.0217C27.9282 12.9319 26.6841 10.471 25.1392 8.47486C24.2505 7.32642 24.0044 7.094 24.0044 5.54908L24.0044 3.44361C24.0044 2.86939 24.4966 2.37721 25.0708 2.37721C25.645 2.37721 26.1372 2.86939 26.1372 3.44361Z" fill="black" fill-opacity="0.85"/>
  <path d="M13.2583 16.2482L13.2583 20.7385C13.2583 21.3264 12.9165 21.7503 12.3286 21.7503C11.7407 21.7503 11.4126 21.3264 11.4126 20.7385L11.4126 14.4034ZM18.3485 21.3358C17.9529 21.0844 17.6221 20.746 17.3517 20.3395ZM23.5122 18.4963C23.5122 18.5337 23.5108 18.5729 23.5075 18.6147L22.5361 17.6433C22.5768 17.6376 22.6198 17.635 22.6646 17.635C23.1021 17.635 23.5122 17.9221 23.5122 18.4963ZM23.4302 12.7678C23.4849 12.9729 23.5122 13.1643 23.5122 13.3694C23.5122 13.8069 23.2114 14.2034 22.6919 14.2034C22.2271 14.2034 21.9126 13.9299 21.8169 13.4378C21.6118 12.385 21.0786 11.592 20.1216 11.592C19.256 11.592 18.6814 12.2882 18.3848 13.492L16.9979 12.1051C17.5804 10.8504 18.5693 9.97877 20.1079 9.97877C21.6938 9.97877 23.1294 11.1682 23.4302 12.7678ZM15.7455 10.8527L15.1422 10.2494C15.4599 10.3174 15.688 10.5322 15.7455 10.8527Z" fill="black" fill-opacity="0.85"/>
  <path d="M29.2817 29.8167C29.6919 30.2405 30.3755 30.2405 30.772 29.8167C31.1821 29.4065 31.1821 28.7503 30.772 28.3264L4.46729 2.02174C4.05713 1.61158 3.38721 1.61158 2.96338 2.02174C2.56689 2.43189 2.55322 3.10181 2.96338 3.51197Z" fill="black" fill-opacity="0.85"/>
 </g>
</svg>
