<?xml version="1.0" encoding="UTF-8"?>
<!--Generator: Apple Native CoreSVG 326-->
<!DOCTYPE svg
PUBLIC "-//W3C//DTD SVG 1.1//EN"
       "http://www.w3.org/Graphics/SVG/1.1/DTD/svg11.dtd">
<svg version="1.1" xmlns="http://www.w3.org/2000/svg" xmlns:xlink="http://www.w3.org/1999/xlink" viewBox="0 0 25.1836 34.4668">
 <g>
  <rect height="34.4668" opacity="0" width="25.1836" x="0" y="0"/>
  <path d="M5.04492 28.875L19.7832 28.875C22.9414 28.875 24.8281 26.7148 24.8281 23.6523L24.8281 15.2988C24.8281 11.6348 24.3496 7.86133 23.7344 5.37305C23.0508 2.47461 21.041 0.574219 18.3203 0.273438C17.418 0.177734 15.0254 0 12.4141 0C9.5293 0 7.39648 0.177734 6.50781 0.273438C3.77344 0.574219 1.77734 2.47461 1.09375 5.37305C0.464844 7.86133 0 11.5117 0 15.1758L0 23.6523C0 26.7148 1.88672 28.875 5.04492 28.875ZM5.33203 27.084C2.88477 27.084 1.79102 25.6484 1.79102 23.6523L1.79102 15.1758C1.79102 11.6348 2.25586 8.13477 2.83008 5.76953C3.34961 3.60938 4.74414 2.26953 6.68555 2.06445C7.61523 1.95508 9.65234 1.79102 12.4141 1.79102C14.9023 1.79102 17.1992 1.95508 18.1289 2.06445C20.084 2.26953 21.4785 3.60938 21.998 5.76953C22.5723 8.13477 23.0371 11.7578 23.0371 15.2988L23.0371 23.6523C23.0371 25.6484 21.9434 27.084 19.4824 27.084ZM8.91406 5.38672L15.9004 5.38672C16.4199 5.38672 16.748 5.04492 16.748 4.53906C16.748 4.0332 16.4199 3.71875 15.9004 3.71875L8.91406 3.71875C8.4082 3.71875 8.08008 4.0332 8.08008 4.53906C8.08008 5.04492 8.4082 5.38672 8.91406 5.38672ZM12.4141 19.2773C15.8457 19.25 18.4844 19.1133 19.9609 18.9355C20.7812 18.8262 21.0957 18.293 21.0957 17.5273L21.0957 14.3828C21.0957 11.6211 20.7949 9.39258 20.5762 8.42188C20.4395 7.82031 20.0566 7.38281 19.4414 7.31445C17.9375 7.12305 16.3105 7.02734 12.4141 7.01367C8.50391 7.02734 6.87695 7.12305 5.33203 7.31445C4.74414 7.38281 4.375 7.82031 4.23828 8.42188C4.01953 9.39258 3.71875 11.6211 3.71875 14.3828L3.71875 17.5273C3.71875 18.293 4.0332 18.8262 4.85352 18.9355C6.33008 19.1133 8.96875 19.25 12.4141 19.2773ZM6.05664 24.9512C7.12305 24.9512 7.94336 24.1582 7.94336 23.0645C7.94336 21.9844 7.15039 21.2051 6.05664 21.2051C4.97656 21.2051 4.19727 21.9844 4.19727 23.0645C4.19727 24.1582 4.97656 24.9512 6.05664 24.9512ZM18.7441 24.9648C19.7969 24.9648 20.6309 24.1445 20.6309 23.0645C20.6309 21.998 19.8105 21.1914 18.7441 21.1914C17.6641 21.1914 16.8438 21.998 16.8438 23.0645C16.8438 24.1445 17.6641 24.9648 18.7441 24.9648ZM2.99414 34.3164L3.75977 34.3164C4.12891 34.3164 4.34766 34.1797 4.55273 33.8516L8.43555 27.5898L5.82422 27.5898L2.37891 33.127C2.02344 33.7012 2.35156 34.3164 2.99414 34.3164ZM4.19727 32.5938L20.6719 32.5938L20.6719 30.543L4.19727 30.543ZM21.123 34.3164L21.8887 34.3164C22.5176 34.3164 22.8047 33.6875 22.4629 33.127L19.0449 27.5898L16.4336 27.5898L20.3164 33.8516C20.5215 34.1797 20.7402 34.3164 21.123 34.3164Z" fill="black" fill-opacity="0.85"/>
 </g>
</svg>
