<?xml version="1.0" encoding="UTF-8"?>
<!--Generator: Apple Native CoreSVG 326-->
<!DOCTYPE svg
PUBLIC "-//W3C//DTD SVG 1.1//EN"
       "http://www.w3.org/Graphics/SVG/1.1/DTD/svg11.dtd">
<svg version="1.1" xmlns="http://www.w3.org/2000/svg" xmlns:xlink="http://www.w3.org/1999/xlink" viewBox="0 0 28.2461 27.9043">
 <g>
  <rect height="27.9043" opacity="0" width="28.2461" x="0" y="0"/>
  <path d="M13.9453 27.9043C21.6426 27.9043 27.8906 21.6562 27.8906 13.959C27.8906 6.27539 21.6426 0.0136719 13.9453 0.0136719C6.26172 0.0136719 0 6.27539 0 13.959C0 21.6562 6.26172 27.9043 13.9453 27.9043Z" fill="#ff3b30"/>
  <path d="M10.779 13.1033L11.0059 19.6055C11.0059 19.8789 11.2383 20.084 11.5254 20.084C11.8262 20.084 12.0176 19.8789 12.0176 19.6055L11.8367 14.1609L13.4121 15.7363L13.4121 19.6055C13.4121 19.8789 13.6035 20.084 13.918 20.084C14.2461 20.084 14.4512 19.8789 14.4512 19.6055L14.4512 16.7754L15.8786 18.2028L15.832 19.6055C15.832 19.8789 16.0234 20.084 16.3242 20.084C16.6113 20.084 16.8438 19.8789 16.8438 19.6055L16.8585 19.1827L19.051 21.3752C18.8309 21.9566 18.3102 22.2715 17.5957 22.2715L10.3086 22.2715C9.35156 22.2715 8.79102 21.7383 8.75 20.7812L8.31443 10.6386ZM7.94336 7.04102L20.877 19.9746C21.123 20.2344 21.123 20.6172 20.877 20.877C20.6309 21.123 20.207 21.123 19.9746 20.877L7.02734 7.94336C6.79492 7.69727 6.78125 7.28711 7.02734 7.04102C7.28711 6.78125 7.69727 6.78125 7.94336 7.04102ZM17.377 7.30078L17.377 8.43555L20.7402 8.43555C21.0957 8.43555 21.3691 8.70898 21.3555 9.05078C21.3418 9.37891 21.0957 9.63867 20.7402 9.63867L19.6328 9.63867L19.3251 17.0146L17.0147 14.7042L17.1309 11.375C17.1309 11.0742 16.9531 10.8828 16.625 10.8828C16.3242 10.8828 16.1055 11.0605 16.1055 11.375L16.0277 13.7171L14.4512 12.1406L14.4512 11.375C14.4512 11.0742 14.2461 10.8828 13.918 10.8828C13.693 10.8828 13.531 10.9808 13.4576 11.147L10.5137 8.20312L10.5137 7.30078C10.5137 6.125 11.2793 5.38672 12.5098 5.38672L15.3535 5.38672C16.5977 5.38672 17.377 6.125 17.377 7.30078ZM12.5918 6.76758C12.209 6.76758 11.9492 7 11.9492 7.36914L11.9492 8.43555L15.9141 8.43555L15.9141 7.36914C15.9141 7 15.6543 6.76758 15.2715 6.76758Z" fill="white"/>
 </g>
</svg>
