<?xml version="1.0" encoding="UTF-8"?>
<!--Generator: Apple Native CoreSVG 326-->
<!DOCTYPE svg
PUBLIC "-//W3C//DTD SVG 1.1//EN"
       "http://www.w3.org/Graphics/SVG/1.1/DTD/svg11.dtd">
<svg version="1.1" xmlns="http://www.w3.org/2000/svg" xmlns:xlink="http://www.w3.org/1999/xlink" viewBox="0 0 25.5254 25.1699">
 <g>
  <rect height="25.1699" opacity="0" width="25.5254" x="0" y="0"/>
  <path d="M4.29297 25.1699L20.877 25.1699C23.748 25.1699 25.1699 23.7617 25.1699 20.9453L25.1699 4.23828C25.1699 1.42188 23.748 0 20.877 0L4.29297 0C1.43555 0 0 1.42188 0 4.23828L0 20.9453C0 23.7617 1.43555 25.1699 4.29297 25.1699Z" fill="#ff3b30"/>
  <path d="M8.95508 20.8906C7.99805 20.8906 7.4375 20.3574 7.41016 19.4004L6.91797 8.25781L5.76953 8.25781C5.44141 8.25781 5.16797 7.99805 5.16797 7.66992C5.16797 7.32812 5.44141 7.05469 5.76953 7.05469L9.16016 7.05469L9.16016 5.91992C9.16016 4.74414 9.92578 4.00586 11.1699 4.00586L14.0137 4.00586C15.2441 4.00586 16.0371 4.74414 16.0371 5.91992L16.0371 7.05469L19.4004 7.05469C19.7422 7.05469 20.0156 7.32812 20.002 7.66992C19.9883 7.99805 19.7422 8.25781 19.4004 8.25781L18.293 8.25781L17.8145 19.4004C17.7734 20.3574 17.1855 20.8906 16.2422 20.8906ZM10.1719 18.7031C10.4863 18.7031 10.6641 18.498 10.6641 18.2246L10.3906 9.99414C10.3906 9.67969 10.1719 9.50195 9.88477 9.50195C9.55664 9.50195 9.36523 9.69336 9.36523 9.99414L9.65234 18.2246C9.65234 18.498 9.88477 18.7031 10.1719 18.7031ZM12.5781 18.7031C12.8926 18.7031 13.0977 18.498 13.0977 18.2246L13.0977 9.99414C13.0977 9.69336 12.8926 9.50195 12.5781 9.50195C12.25 9.50195 12.0586 9.69336 12.0586 9.99414L12.0586 18.2246C12.0586 18.498 12.2637 18.7031 12.5781 18.7031ZM14.9707 18.7031C15.2578 18.7031 15.4902 18.498 15.4902 18.2246L15.7773 9.99414C15.7773 9.69336 15.5996 9.50195 15.2715 9.50195C14.9707 9.50195 14.7656 9.67969 14.752 9.99414L14.4785 18.2246C14.4785 18.498 14.6699 18.7031 14.9707 18.7031ZM10.5957 7.05469L14.5605 7.05469L14.5605 5.98828C14.5605 5.61914 14.3008 5.38672 13.918 5.38672L11.2383 5.38672C10.8555 5.38672 10.5957 5.61914 10.5957 5.98828Z" fill="white"/>
 </g>
</svg>
