<?xml version="1.0" encoding="UTF-8"?>
<!--Generator: Apple Native CoreSVG 326-->
<!DOCTYPE svg
PUBLIC "-//W3C//DTD SVG 1.1//EN"
       "http://www.w3.org/Graphics/SVG/1.1/DTD/svg11.dtd">
<svg version="1.1" xmlns="http://www.w3.org/2000/svg" xmlns:xlink="http://www.w3.org/1999/xlink" viewBox="0 0 25.5254 25.498">
 <g>
  <rect height="25.498" opacity="0" width="25.5254" x="0" y="0"/>
  <path d="M4.29297 25.498L20.877 25.498C23.748 25.498 25.1699 24.0762 25.1699 21.2598L25.1699 4.56641C25.1699 1.75 23.748 0.328125 20.877 0.328125L4.29297 0.328125C1.43555 0.328125 0 1.73633 0 4.56641L0 21.2598C0 24.0898 1.43555 25.498 4.29297 25.498ZM4.32031 23.2969C2.95312 23.2969 2.20117 22.5586 2.20117 21.1504L2.20117 4.67578C2.20117 3.25391 2.95312 2.5293 4.32031 2.5293L20.8496 2.5293C22.2031 2.5293 22.9688 3.25391 22.9688 4.67578L22.9688 21.1504C22.9688 22.5586 22.2031 23.2969 20.8496 23.2969Z" fill="#ff3b30"/>
  <path d="M9.06445 20.9453L16.1328 20.9453C17.0488 20.9453 17.6094 20.4395 17.6504 19.5098L18.1152 8.70898L19.1953 8.70898C19.5234 8.70898 19.7695 8.43555 19.7832 8.12109C19.7969 7.80664 19.5234 7.5332 19.1953 7.5332L15.9277 7.5332L15.9277 6.42578C15.9277 5.30469 15.1621 4.59375 13.9727 4.59375L11.2109 4.59375C10.0078 4.59375 9.26953 5.30469 9.26953 6.42578L9.26953 7.5332L5.97461 7.5332C5.66016 7.5332 5.38672 7.80664 5.38672 8.12109C5.38672 8.43555 5.66016 8.70898 5.97461 8.70898L7.0957 8.70898L7.57422 19.5098C7.60156 20.4395 8.13477 20.9453 9.06445 20.9453ZM10.2402 18.8398C9.9668 18.8398 9.74805 18.6484 9.74805 18.375L9.46094 10.3906C9.46094 10.0898 9.65234 9.89844 9.9668 9.89844C10.2402 9.89844 10.459 10.0898 10.459 10.377L10.7188 18.3613C10.7188 18.6348 10.5547 18.8398 10.2402 18.8398ZM12.5781 18.8262C12.2773 18.8262 12.0723 18.6348 12.0723 18.3613L12.0723 10.377C12.0723 10.0898 12.2637 9.89844 12.5781 9.89844C12.8789 9.89844 13.084 10.0898 13.084 10.377L13.084 18.3613C13.084 18.6348 12.8789 18.8262 12.5781 18.8262ZM14.9023 18.8398C14.6016 18.8398 14.4238 18.6348 14.4238 18.3613L14.6836 10.377C14.6973 10.0898 14.9023 9.89844 15.1895 9.89844C15.5039 9.89844 15.6816 10.0898 15.6816 10.3906L15.3945 18.375C15.3945 18.6484 15.1758 18.8398 14.9023 18.8398ZM10.6504 7.5332L10.6504 6.50781C10.6504 6.15234 10.9102 5.91992 11.2793 5.91992L13.877 5.91992C14.2461 5.91992 14.5059 6.15234 14.5059 6.50781L14.5059 7.5332Z" fill="#ff3b30"/>
 </g>
</svg>
