<?xml version="1.0" encoding="UTF-8"?>
<!--Generator: Apple Native CoreSVG 326-->
<!DOCTYPE svg
PUBLIC "-//W3C//DTD SVG 1.1//EN"
       "http://www.w3.org/Graphics/SVG/1.1/DTD/svg11.dtd">
<svg version="1.1" xmlns="http://www.w3.org/2000/svg" xmlns:xlink="http://www.w3.org/1999/xlink" viewBox="0 0 25.5254 25.498">
 <g>
  <rect height="25.498" opacity="0" width="25.5254" x="0" y="0"/>
  <path d="M25.1699 4.56641L25.1699 21.2598C25.1699 24.0762 23.748 25.498 20.877 25.498L4.29297 25.498C1.43555 25.498 0 24.0898 0 21.2598L0 4.56641C0 1.73633 1.43555 0.328125 4.29297 0.328125L20.877 0.328125C23.748 0.328125 25.1699 1.75 25.1699 4.56641ZM4.32031 2.5293C2.95312 2.5293 2.20117 3.25391 2.20117 4.67578L2.20117 21.1504C2.20117 22.5586 2.95312 23.2969 4.32031 23.2969L20.8496 23.2969C22.2031 23.2969 22.9688 22.5586 22.9688 21.1504L22.9688 4.67578C22.9688 3.25391 22.2031 2.5293 20.8496 2.5293Z" fill="#ff3b30"/>
  <path d="M9.5196 12.1036L9.73438 18.375C9.74805 18.6484 9.95312 18.8398 10.2266 18.8398C10.541 18.8398 10.7188 18.6348 10.7051 18.3613L10.5345 13.1185L12.0723 14.6563L12.0723 18.3613C12.0723 18.6348 12.2637 18.8262 12.5645 18.8262C12.8652 18.8262 13.084 18.6348 13.084 18.3613L13.084 15.668L14.4665 17.0505L14.4238 18.3613C14.4102 18.6348 14.5879 18.8398 14.9023 18.8398C15.1758 18.8398 15.3809 18.6484 15.3945 18.375L15.4077 17.9916L17.5236 20.1076C17.3128 20.6543 16.8172 20.9453 16.1328 20.9453L9.06445 20.9453C8.13477 20.9453 7.60156 20.4395 7.56055 19.5098L7.1264 9.71038ZM15.9141 6.42578L15.9141 7.5332L19.1816 7.5332C19.5098 7.5332 19.7969 7.80664 19.7832 8.12109C19.7695 8.43555 19.5098 8.70898 19.1816 8.70898L18.1016 8.70898L17.7919 15.9051L15.5557 13.669L15.668 10.3906C15.6816 10.0898 15.4902 9.89844 15.1895 9.89844C14.8887 9.89844 14.6836 10.0898 14.6836 10.377L14.6073 12.7206L13.084 11.1973L13.084 10.377C13.084 10.0898 12.8789 9.89844 12.5645 9.89844C12.3163 9.89844 12.1533 10.0176 12.096 10.2093L9.25586 7.36914L9.25586 6.42578C9.25586 5.30469 9.99414 4.59375 11.1973 4.59375L13.959 4.59375C15.1484 4.59375 15.9141 5.30469 15.9141 6.42578ZM11.2656 5.91992C10.8965 5.91992 10.6367 6.15234 10.6367 6.50781L10.6367 7.5332L14.5059 7.5332L14.5059 6.50781C14.5059 6.15234 14.2461 5.91992 13.877 5.91992Z" fill="#ff3b30"/>
  <path d="M18.416 19.6191C18.6484 19.8516 19.0586 19.8652 19.291 19.6191C19.5371 19.373 19.5371 18.9902 19.291 18.7441L6.75391 6.20703C6.50781 5.96094 6.125 5.96094 5.86523 6.20703C5.63281 6.45312 5.63281 6.84961 5.86523 7.08203Z" fill="#ff3b30"/>
 </g>
</svg>
