<?xml version="1.0" encoding="UTF-8"?>
<!--Generator: Apple Native CoreSVG 326-->
<!DOCTYPE svg
PUBLIC "-//W3C//DTD SVG 1.1//EN"
       "http://www.w3.org/Graphics/SVG/1.1/DTD/svg11.dtd">
<svg version="1.1" xmlns="http://www.w3.org/2000/svg" xmlns:xlink="http://www.w3.org/1999/xlink" viewBox="0 0 25.5254 25.1699">
 <g>
  <rect height="25.1699" opacity="0" width="25.5254" x="0" y="0"/>
  <path d="M4.29297 25.1699L20.877 25.1699C23.748 25.1699 25.1699 23.7617 25.1699 20.9453L25.1699 4.23828C25.1699 1.42188 23.748 0 20.877 0L4.29297 0C1.43555 0 0 1.42188 0 4.23828L0 20.9453C0 23.7617 1.43555 25.1699 4.29297 25.1699Z" fill="#ff3b30"/>
  <path d="M9.42255 11.7194L9.63867 18.2246C9.65234 18.498 9.87109 18.7031 10.1582 18.7031C10.4727 18.7031 10.6641 18.498 10.6504 18.2246L10.469 12.7659L12.0586 14.3555L12.0586 18.2246C12.0586 18.498 12.25 18.7031 12.5645 18.7031C12.8789 18.7031 13.0977 18.498 13.0977 18.2246L13.0977 15.3945L14.5251 16.822L14.4785 18.2246C14.4648 18.498 14.6562 18.7031 14.9707 18.7031C15.2578 18.7031 15.4766 18.498 15.4902 18.2246L15.5043 17.8012L17.6929 19.9898C17.4801 20.574 16.9586 20.8906 16.2422 20.8906L8.95508 20.8906C7.99805 20.8906 7.4375 20.3574 7.39648 19.4004L6.94789 9.24477ZM6.57617 5.64648L19.5234 18.5938C19.7695 18.8398 19.7695 19.2363 19.5234 19.4961C19.2773 19.7422 18.8535 19.7285 18.6211 19.4961L5.66016 6.54883C5.42773 6.31641 5.42773 5.90625 5.66016 5.64648C5.93359 5.40039 6.33008 5.40039 6.57617 5.64648ZM16.0234 5.91992L16.0234 7.05469L19.3867 7.05469C19.7285 7.05469 20.0156 7.32812 20.002 7.66992C19.9883 7.99805 19.7285 8.25781 19.3867 8.25781L18.2793 8.25781L17.9628 15.6273L15.6532 13.3201L15.7637 9.99414C15.7773 9.69336 15.5859 9.50195 15.2715 9.50195C14.957 9.50195 14.752 9.67969 14.752 9.99414L14.674 12.3419L13.0977 10.7673L13.0977 9.99414C13.0977 9.69336 12.8926 9.50195 12.5645 9.50195C12.3277 9.50195 12.1692 9.60162 12.0998 9.77052L9.14648 6.8203L9.14648 5.91992C9.14648 4.74414 9.91211 4.00586 11.1562 4.00586L14 4.00586C15.2305 4.00586 16.0234 4.74414 16.0234 5.91992ZM11.2246 5.38672C10.8418 5.38672 10.582 5.61914 10.582 5.98828L10.582 7.05469L14.5605 7.05469L14.5605 5.98828C14.5605 5.61914 14.3008 5.38672 13.918 5.38672Z" fill="white"/>
 </g>
</svg>
