<?xml version="1.0" encoding="UTF-8"?>
<!--Generator: Apple Native CoreSVG 326-->
<!DOCTYPE svg
PUBLIC "-//W3C//DTD SVG 1.1//EN"
       "http://www.w3.org/Graphics/SVG/1.1/DTD/svg11.dtd">
<svg version="1.1" xmlns="http://www.w3.org/2000/svg" xmlns:xlink="http://www.w3.org/1999/xlink" viewBox="0 0 30.0166 32.8809">
 <g>
  <rect height="32.8809" opacity="0" width="30.0166" x="0" y="0"/>
  <path d="M6.56744 10.758L7.35889 26.9883C7.3999 27.7949 7.98779 28.3828 8.76709 28.3828L20.894 28.3828C21.7007 28.3828 22.2886 27.8086 22.3159 26.9883L22.3375 26.5193L24.2347 28.4153C23.7645 29.6786 22.6329 30.4473 21.1128 30.4473L8.57568 30.4473C6.59326 30.4473 5.30811 29.1895 5.2124 27.2344L4.32344 8.51529ZM11.3667 15.5546L11.6382 25.2383C11.6519 25.7168 11.3101 26.0449 10.7905 26.0449C10.2847 26.0449 9.94287 25.7305 9.9292 25.2383L9.60812 13.797ZM15.7261 19.9115L15.7261 25.2383C15.7261 25.7168 15.3569 26.0449 14.8374 26.0449C14.3179 26.0449 13.9624 25.7168 13.9624 25.2383L13.9624 18.1489ZM19.7814 23.9645L19.7456 25.2383C19.7319 25.7305 19.3901 26.0449 18.8979 26.0449C18.3784 26.0449 18.0366 25.7168 18.0503 25.2383L18.1323 22.3164ZM20.812 3.18555L20.812 5.27734L27.0601 5.27734C27.6206 5.27734 28.0718 5.74219 28.0718 6.30273C28.0718 6.86328 27.6206 7.3418 27.0601 7.3418L25.4208 7.3418L24.7509 21.4366L22.6673 19.3518L23.22 7.3418L10.664 7.3418L8.60074 5.27734L8.83545 5.27734L8.83545 3.18555C8.83545 1.20312 10.1343 0 12.2261 0L17.4214 0C19.5269 0 20.812 1.20312 20.812 3.18555ZM20.1558 10.623L19.9861 16.6691L18.3371 15.0191L18.4604 10.623C18.4741 10.1309 18.8159 9.81641 19.3081 9.81641C19.8276 9.81641 20.1694 10.1445 20.1558 10.623ZM15.7261 10.623L15.7261 12.4067L13.9624 10.642L13.9624 10.623C13.9624 10.1445 14.3179 9.81641 14.8374 9.81641C15.3569 9.81641 15.7261 10.1445 15.7261 10.623ZM12.3765 2.03711C11.5562 2.03711 11.0093 2.54297 11.0093 3.32227L11.0093 5.27734L18.6382 5.27734L18.6382 3.32227C18.6382 2.54297 18.0913 2.03711 17.271 2.03711Z" fill="#ff3b30"/>
  <path d="M26.2671 28.2051C26.6909 28.6152 27.3608 28.6152 27.7573 28.2051C28.1675 27.7812 28.1812 27.125 27.7573 26.7148L3.40771 2.33789C2.99756 1.92773 2.31396 1.92773 1.90381 2.33789C1.50732 2.73438 1.50732 3.43164 1.90381 3.82812Z" fill="#ff3b30"/>
 </g>
</svg>
