<?xml version="1.0" encoding="UTF-8"?>
<!--Generator: Apple Native CoreSVG 326-->
<!DOCTYPE svg
PUBLIC "-//W3C//DTD SVG 1.1//EN"
       "http://www.w3.org/Graphics/SVG/1.1/DTD/svg11.dtd">
<svg version="1.1" xmlns="http://www.w3.org/2000/svg" xmlns:xlink="http://www.w3.org/1999/xlink" viewBox="0 0 30.0166 32.8809">
 <g>
  <rect height="32.8809" opacity="0" width="30.0166" x="0" y="0"/>
  <path d="M9.44293 13.6319L9.76514 25.457C9.77881 25.9766 10.1343 26.291 10.6675 26.291C11.2007 26.291 11.5562 25.9629 11.5425 25.457L11.2609 15.4489L13.9351 18.1215L13.9351 25.457C13.9351 25.9629 14.3042 26.291 14.8374 26.291C15.3706 26.291 15.7534 25.9629 15.7534 25.457L15.7534 19.9389L18.2316 22.4157L18.146 25.457C18.1323 25.9629 18.4878 26.291 19.021 26.291C19.5405 26.291 19.896 25.9766 19.9097 25.457L19.9459 24.1289L24.2347 28.4153C23.7645 29.6786 22.6329 30.4473 21.1128 30.4473L8.57568 30.4473C6.59326 30.4473 5.30811 29.1895 5.2124 27.2344L4.3247 8.51655ZM20.812 3.18555L20.812 5.27734L27.0601 5.27734C27.6206 5.27734 28.0718 5.74219 28.0718 6.30273C28.0718 6.86328 27.6206 7.3418 27.0601 7.3418L25.4195 7.3418L24.7506 21.4363L20.1448 16.8279L20.3198 10.4043C20.3335 9.89844 19.9917 9.57031 19.4448 9.57031C18.939 9.57031 18.5835 9.88477 18.5698 10.4043L18.4371 15.1192L15.7534 12.434L15.7534 10.4043C15.7534 9.89844 15.3706 9.57031 14.8374 9.57031C14.3042 9.57031 13.9351 9.89844 13.9351 10.4043L13.9351 10.6147L8.60074 5.27734L8.83545 5.27734L8.83545 3.18555C8.83545 1.20312 10.1343 0 12.2261 0L17.4214 0C19.5269 0 20.812 1.20312 20.812 3.18555ZM12.3765 2.03711C11.5562 2.03711 11.0093 2.54297 11.0093 3.32227L11.0093 5.27734L18.6382 5.27734L18.6382 3.32227C18.6382 2.54297 18.0913 2.03711 17.271 2.03711Z" fill="#ff3b30"/>
  <path d="M26.2671 28.2051C26.6909 28.6152 27.3608 28.6152 27.7573 28.2051C28.1675 27.7812 28.1812 27.125 27.7573 26.7148L3.40771 2.33789C2.99756 1.92773 2.31396 1.92773 1.90381 2.33789C1.50732 2.73438 1.50732 3.43164 1.90381 3.82812Z" fill="#ff3b30"/>
 </g>
</svg>
