<?xml version="1.0" encoding="UTF-8"?>
<!--Generator: Apple Native CoreSVG 326-->
<!DOCTYPE svg
PUBLIC "-//W3C//DTD SVG 1.1//EN"
       "http://www.w3.org/Graphics/SVG/1.1/DTD/svg11.dtd">
<svg version="1.1" xmlns="http://www.w3.org/2000/svg" xmlns:xlink="http://www.w3.org/1999/xlink" viewBox="0 0 26.8242 32.8809">
 <g>
  <rect height="32.8809" opacity="0" width="26.8242" x="0" y="0"/>
  <path d="M9.06445 26.291C8.53125 26.291 8.18945 25.9766 8.16211 25.457L7.75195 10.4043C7.73828 9.89844 8.08008 9.57031 8.62695 9.57031C9.13281 9.57031 9.48828 9.88477 9.50195 10.3906L9.93945 25.457C9.95312 25.9629 9.59766 26.291 9.06445 26.291ZM13.2344 26.291C12.7012 26.291 12.332 25.9629 12.332 25.457L12.332 10.4043C12.332 9.89844 12.7012 9.57031 13.2344 9.57031C13.7676 9.57031 14.1504 9.89844 14.1504 10.4043L14.1504 25.457C14.1504 25.9629 13.7676 26.291 13.2344 26.291ZM17.418 26.291C16.8848 26.291 16.5293 25.9629 16.543 25.457L16.9668 10.4043C16.9805 9.88477 17.3359 9.57031 17.8418 9.57031C18.3887 9.57031 18.7305 9.89844 18.7168 10.4043L18.3066 25.457C18.2793 25.9766 17.9375 26.291 17.418 26.291ZM7.23242 6.24805L9.40625 6.24805L9.40625 3.32227C9.40625 2.54297 9.95312 2.03711 10.7734 2.03711L15.668 2.03711C16.4883 2.03711 17.0352 2.54297 17.0352 3.32227L17.0352 6.24805L19.209 6.24805L19.209 3.18555C19.209 1.20312 17.9238 0 15.8184 0L10.623 0C8.51758 0 7.23242 1.20312 7.23242 3.18555ZM1.02539 7.3418L25.457 7.3418C26.0176 7.3418 26.4688 6.86328 26.4688 6.30273C26.4688 5.74219 26.0176 5.27734 25.457 5.27734L1.02539 5.27734C0.478516 5.27734 0 5.74219 0 6.30273C0 6.87695 0.478516 7.3418 1.02539 7.3418ZM6.97266 30.4473L19.5098 30.4473C21.4648 30.4473 22.7773 29.1758 22.873 27.2207L23.8301 7.05469L2.63867 7.05469L3.60938 27.2344C3.70508 29.1895 4.99023 30.4473 6.97266 30.4473Z" fill="#ff3b30"/>
 </g>
</svg>
