<?xml version="1.0" encoding="UTF-8"?>
<!--Generator: Apple Native CoreSVG 326-->
<!DOCTYPE svg
PUBLIC "-//W3C//DTD SVG 1.1//EN"
       "http://www.w3.org/Graphics/SVG/1.1/DTD/svg11.dtd">
<svg version="1.1" xmlns="http://www.w3.org/2000/svg" xmlns:xlink="http://www.w3.org/1999/xlink" viewBox="0 0 28.2461 27.9043">
 <g>
  <rect height="27.9043" opacity="0" width="28.2461" x="0" y="0"/>
  <path d="M13.9453 27.9043C21.6426 27.9043 27.8906 21.6562 27.8906 13.959C27.8906 6.27539 21.6426 0.0136719 13.9453 0.0136719C6.26172 0.0136719 0 6.27539 0 13.959C0 21.6562 6.26172 27.9043 13.9453 27.9043Z" fill="black" fill-opacity="0.85"/>
  <path d="M7.90234 19.6738C6.43945 19.6738 5.70117 18.9355 5.70117 17.5137L5.70117 13.6445C5.70117 12.9883 5.81055 12.7148 6.11133 12.3047L8.58594 8.95508C9.39258 7.83398 9.88477 7.57422 11.1152 7.57422L16.8027 7.57422C18.0332 7.57422 18.5117 7.83398 19.332 8.95508L21.8066 12.3047C22.1074 12.7148 22.2168 12.9883 22.2168 13.6445L22.2168 17.5137C22.2168 18.9355 21.4922 19.6738 20.0156 19.6738ZM7.68359 13.1797L11.7305 13.1797C12.0996 13.1797 12.3047 13.4668 12.3047 13.7539L12.3047 13.9316C12.3047 14.9023 12.9336 15.5176 13.959 15.5176C14.9844 15.5176 15.6543 14.9023 15.6543 13.9316L15.6543 13.7539C15.6543 13.4668 15.8184 13.1797 16.1875 13.1797L20.2344 13.1797C20.4531 13.1797 20.5078 12.9746 20.4121 12.8516L17.9648 9.5293C17.6914 9.14648 17.3906 8.98242 16.8984 8.98242L11.0332 8.98242C10.541 8.98242 10.2402 9.13281 9.95312 9.5293L7.51953 12.8516C7.42383 13.002 7.46484 13.1797 7.68359 13.1797Z" fill="white"/>
 </g>
</svg>
