<?xml version="1.0" encoding="UTF-8"?>
<!--Generator: Apple Native CoreSVG 326-->
<!DOCTYPE svg
PUBLIC "-//W3C//DTD SVG 1.1//EN"
       "http://www.w3.org/Graphics/SVG/1.1/DTD/svg11.dtd">
<svg version="1.1" xmlns="http://www.w3.org/2000/svg" xmlns:xlink="http://www.w3.org/1999/xlink" viewBox="0 0 36.3262 34.9316">
 <g>
  <rect height="34.9316" opacity="0" width="36.3262" x="0" y="0"/>
  <path d="M5.04237 22.5156C5.05705 22.517 5.07158 22.5176 5.08594 22.5176L13.7676 22.5176C14.4785 22.5176 14.8066 23.0508 14.8066 23.625L14.8066 23.666C14.8066 25.252 16.0508 26.9336 17.9922 26.9336C19.9199 26.9336 21.1641 25.252 21.1641 23.666L21.1641 23.625C21.1641 23.0508 21.5059 22.5176 22.2031 22.5176L30.9121 22.5176C30.9628 22.5176 31.0102 22.5154 31.0544 22.5113C32.1789 22.4915 33.141 22.1813 33.908 21.6334C34.082 22.133 34.1113 22.7304 34.1113 23.4746L34.1113 29.0664C34.1113 31.7188 32.6758 33.1133 29.8184 33.1133L6.15234 33.1133C3.30859 33.1133 1.87305 31.7051 1.87305 29.0664L1.87305 23.4746C1.87305 22.7262 1.89778 22.1263 2.07036 21.6248C2.86636 22.1946 3.87085 22.5096 5.04237 22.5156Z" fill="black" fill-opacity="0.85"/>
  <path d="M6.15234 20.6445L29.8184 20.6445C32.6758 20.6445 34.1113 19.25 34.1113 16.5977L34.1113 11.0195C34.1113 9.77539 34.0293 8.94141 33.332 8.27148L28.4785 3.69141C27.002 2.31055 25.9219 1.85938 23.9121 1.85938L12.0723 1.85938C10.0488 1.85938 8.96875 2.31055 7.49219 3.69141L2.63867 8.27148C1.94141 8.94141 1.87305 9.77539 1.87305 11.0195L1.87305 16.5977C1.87305 19.25 3.30859 20.6445 6.15234 20.6445ZM17.9922 14.4648C16.0508 14.4648 14.8066 12.7969 14.8066 11.2109L14.8066 11.1562C14.8066 10.5957 14.4785 10.0488 13.7676 10.0488L4.55273 10.0488C4.15625 10.0488 4.06055 9.69336 4.34766 9.41992L9.1875 4.85352C10.0215 4.07422 10.5547 3.78711 11.8672 3.78711L24.1172 3.78711C25.416 3.78711 25.9492 4.07422 26.7969 4.85352L31.6367 9.41992C31.9238 9.69336 31.8145 10.0488 31.4316 10.0488L22.2031 10.0488C21.5059 10.0488 21.1641 10.5957 21.1641 11.1562L21.1641 11.2109C21.1641 12.7969 19.9199 14.4648 17.9922 14.4648Z" fill="black" fill-opacity="0.85"/>
 </g>
</svg>
