<?xml version="1.0" encoding="UTF-8"?>
<!--Generator: Apple Native CoreSVG 326-->
<!DOCTYPE svg
PUBLIC "-//W3C//DTD SVG 1.1//EN"
       "http://www.w3.org/Graphics/SVG/1.1/DTD/svg11.dtd">
<svg version="1.1" xmlns="http://www.w3.org/2000/svg" xmlns:xlink="http://www.w3.org/1999/xlink" viewBox="0 0 35.7383 35.8613">
 <g>
  <rect height="35.8613" opacity="0" width="35.7383" x="0" y="0"/>
  <path d="M17.6914 35.8613C19.0039 35.8613 19.8652 35.4512 19.8652 34.7949C19.8652 33.9336 19.6191 31.4863 19.6191 29.5449C19.6191 27.1523 21.5332 23.1191 24.0215 18.3613L22.2031 17.377C20.3027 20.8223 19.5918 22.2031 18.8125 23.9395L18.7441 17.4043L16.543 17.2812L16.5703 23.9531C15.8047 22.2168 14.9844 20.6855 13.3027 17.7871L11.9082 19.6465C13.8359 23.1191 15.7637 27.1523 15.7637 29.5449C15.7637 31.4863 15.5176 33.9336 15.5176 34.7949C15.5176 35.4512 16.3789 35.8613 17.6914 35.8613Z" fill="#a2845e"/>
  <path d="M0 21.6152C0 24.9102 2.21484 27.1934 5.41406 27.1934C6.42578 27.1934 7.50586 26.9336 8.66797 26.3594C9.51562 27.125 11.5938 28.2051 14.0137 28.3008C13.5352 26.127 12.0449 23.1191 11.1426 21.4648C13.248 21.2734 14.4375 20.1387 14.9844 18.5801C15.7363 19.127 16.5977 19.4141 17.6914 19.4141C18.7852 19.4141 19.6465 19.127 20.3984 18.5801C20.9453 20.1387 22.1348 21.2734 24.2402 21.4648C23.3379 23.1191 21.8477 26.127 21.3691 28.3008C23.7891 28.2051 25.8672 27.125 26.7148 26.3594C27.877 26.9336 28.957 27.1934 29.9688 27.1934C33.168 27.1934 35.3828 24.9102 35.3828 21.6152C35.3828 19.9473 34.6992 18.1836 33.127 16.6113C34.3711 15.3125 34.877 13.7676 34.877 12.25C34.877 8.98242 32.3613 5.96094 29.2168 5.5918C29.0801 2.43359 25.5664 0.177734 22.2031 0.177734C20.4805 0.177734 18.8809 0.710938 17.6914 1.94141C16.502 0.710938 14.9023 0.177734 13.1797 0.177734C9.81641 0.177734 6.30273 2.43359 6.16602 5.5918C3.02148 5.96094 0.492188 8.98242 0.492188 12.25C0.492188 13.7676 1.01172 15.3125 2.25586 16.6113C0.683594 18.1836 0 19.9473 0 21.6152Z" fill="#28cd41"/>
 </g>
</svg>
