<?xml version="1.0" encoding="UTF-8"?>
<!--Generator: Apple Native CoreSVG 326-->
<!DOCTYPE svg
PUBLIC "-//W3C//DTD SVG 1.1//EN"
       "http://www.w3.org/Graphics/SVG/1.1/DTD/svg11.dtd">
<svg version="1.1" xmlns="http://www.w3.org/2000/svg" xmlns:xlink="http://www.w3.org/1999/xlink" viewBox="0 0 48.5762 36.0801">
 <g>
  <rect height="36.0801" opacity="0" width="48.5762" x="0" y="0"/>
  <path d="M3.24023 26.4551L4.7168 26.4551C4.62109 26.0039 4.58008 25.6758 4.58008 25.2109C4.58008 22.3672 6.83594 20.2617 9.55664 20.2617C12.4414 20.2617 14.5605 22.4766 14.5605 25.252C14.5605 25.6758 14.5195 26.0039 14.4102 26.4551L31.541 26.4551C31.4727 26.0586 31.418 25.6758 31.418 25.2109C31.418 22.3672 33.6738 20.2617 36.4082 20.2617C39.293 20.2617 41.4121 22.4766 41.4121 25.252C41.4121 25.7168 41.3711 26.0449 41.248 26.4551L44.9805 26.4551C47.0039 26.4551 48.2207 25.2109 48.2207 23.1328L48.2207 18.1426C48.2207 16.0781 47.0039 14.8203 44.9805 14.8203L34.6172 14.8203L34.3164 12.2227C34.0156 9.70703 32.6211 8.43555 30.1055 8.43555L24.9648 8.43555C20.877 8.43555 18.375 9.06445 15.5312 10.8418L10.3359 14.1094L5.60547 14.834C1.75 15.4355 0 17.0762 0 20.0566L0 23.1328C0 25.2109 1.2168 26.4551 3.24023 26.4551ZM9.55664 28.6562C11.457 28.6562 12.9746 27.1523 12.9746 25.252C12.9746 23.3652 11.457 21.8613 9.55664 21.8613C7.66992 21.8613 6.16602 23.3652 6.16602 25.252C6.16602 27.1387 7.66992 28.6562 9.55664 28.6562ZM36.4082 28.6562C38.3086 28.6562 39.8125 27.1387 39.8125 25.252C39.8125 23.3652 38.3086 21.8613 36.4082 21.8613C34.5352 21.8613 33.0039 23.3789 33.0039 25.252C33.0039 27.1387 34.5215 28.6562 36.4082 28.6562Z" fill="black" fill-opacity="0.85"/>
  <path d="M19.9336 6.42578L31.6367 6.42578C32.7305 6.42578 33.332 5.71484 33.332 4.60742L33.332 3.0625C33.332 1.01172 32.3203 0 30.0234 0L28.7793 0C26.5508 0 25.2109 0.300781 22.5996 1.73633L19.5645 3.54102C18.7305 4.00586 18.416 4.44336 18.416 5.03125C18.416 5.93359 18.8672 6.42578 19.9336 6.42578Z" fill="black" fill-opacity="0.85"/>
 </g>
</svg>
