<?xml version="1.0" encoding="UTF-8"?>
<!--Generator: Apple Native CoreSVG 326-->
<!DOCTYPE svg
PUBLIC "-//W3C//DTD SVG 1.1//EN"
       "http://www.w3.org/Graphics/SVG/1.1/DTD/svg11.dtd">
<svg version="1.1" xmlns="http://www.w3.org/2000/svg" xmlns:xlink="http://www.w3.org/1999/xlink" viewBox="0 0 24.9512 24.7051">
 <g>
  <rect height="24.7051" opacity="0" width="24.9512" x="0" y="0"/>
  <path d="M24.5957 21.6699L24.5957 0.382812C22.5039 0.806641 20.7129 1.58594 18.7988 2.78906L12.5098 6.74023L6.76758 7.61523C2.10547 8.33984 0 10.3223 0 13.9316L0 17.6504C0 20.166 1.46289 21.6699 3.92383 21.6699L5.85156 21.6699C5.72852 21.2051 5.64648 20.7266 5.64648 20.2207C5.64648 16.9531 8.29883 14.3145 11.5801 14.3145C14.834 14.3145 17.4727 16.9531 17.4727 20.2207C17.4727 20.7266 17.4043 21.2188 17.3086 21.6699ZM11.5801 24.5273C13.9727 24.5273 15.873 22.627 15.873 20.2207C15.873 17.8281 13.959 15.9004 11.5801 15.9004C9.16016 15.9004 7.25977 17.8281 7.25977 20.2207C7.25977 22.6133 9.16016 24.5273 11.5801 24.5273ZM1.66797 1.96875L6.16602 1.96875C6.68555 1.96875 7.08203 2.0918 7.39648 2.41992L13.043 8.05273L14.9023 7.02734L8.99609 1.12109C8.20312 0.328125 7.16406 0 5.93359 0L1.66797 0C1.03906 0 0.65625 0.382812 0.65625 0.970703C0.65625 1.55859 1.03906 1.96875 1.66797 1.96875Z" fill="black" fill-opacity="0.85"/>
 </g>
</svg>
