<?xml version="1.0" encoding="UTF-8"?>
<!--Generator: Apple Native CoreSVG 326-->
<!DOCTYPE svg
PUBLIC "-//W3C//DTD SVG 1.1//EN"
       "http://www.w3.org/Graphics/SVG/1.1/DTD/svg11.dtd">
<svg version="1.1" xmlns="http://www.w3.org/2000/svg" xmlns:xlink="http://www.w3.org/1999/xlink" viewBox="0 0 52.1992 25.2793">
 <g>
  <rect height="25.2793" opacity="0" width="52.1992" x="0" y="0"/>
  <path d="M36.9004 5.5918L37.1602 7.83398L48.3711 7.83398C50.5449 7.83398 51.8438 9.17383 51.8438 11.4023L51.8438 17.0488C51.8438 19.2773 50.5449 20.6172 48.3711 20.6172L43.5572 20.6172C42.9337 22.453 41.2175 23.7344 39.1426 23.7344C37.0676 23.7344 35.3515 22.453 34.728 20.6172L14.6958 20.6172C14.0723 22.453 12.3562 23.7344 10.2812 23.7344C8.20632 23.7344 6.49017 22.453 5.86668 20.6172L3.48633 20.6172C1.3125 20.6172 0 19.2773 0 17.0488L0 14.0137C0 10.8008 1.87305 9.02344 6.01562 8.39453L9.60161 7.84654L11.1262 9.84725L6.30273 10.582C3.44531 11.0195 2.20117 12.0586 2.20117 14.0137L2.20117 16.7754C2.20117 17.8145 2.7207 18.416 3.60938 18.416L5.65248 18.416C5.95181 16.1055 7.87535 14.3828 10.2812 14.3828C12.6872 14.3828 14.6107 16.1055 14.91 18.416L34.5138 18.416C34.8131 16.1055 36.7367 14.3828 39.1426 14.3828C41.5485 14.3828 43.472 16.1055 43.7713 18.416L48.248 18.416C49.123 18.416 49.6426 17.8145 49.6426 16.7754L49.6426 11.6758C49.6426 10.6504 49.123 10.0352 48.248 10.0352L35.1504 10.0352L34.6992 5.89258C34.5352 4.45703 33.7148 3.71875 32.252 3.71875L26.8516 3.71875C22.9277 3.71875 20.5762 4.32031 17.8828 5.98828L15.8992 7.22354L14.5547 5.46242L16.707 4.11523C19.7422 2.20117 22.4492 1.51758 26.8516 1.51758L32.375 1.51758C35.0684 1.51758 36.5859 2.88477 36.9004 5.5918ZM7.80664 19.0586C7.80664 20.4531 8.88672 21.5332 10.2812 21.5332C11.6758 21.5332 12.7559 20.4531 12.7559 19.0586C12.7559 17.6641 11.6758 16.584 10.2812 16.584C8.88672 16.584 7.80664 17.6641 7.80664 19.0586ZM36.668 19.0586C36.668 20.4531 37.748 21.5332 39.1426 21.5332C40.5371 21.5332 41.6172 20.4531 41.6172 19.0586C41.6172 17.6641 40.5371 16.584 39.1426 16.584C37.748 16.584 36.668 17.6641 36.668 19.0586Z" fill="black" fill-opacity="0.85"/>
  <path d="M3.26758 3.80078L6.63086 3.80078C8.14844 3.80078 8.72266 4.06055 9.48828 5.05859L13.166 9.91211C14.3418 11.457 15.6543 12.127 17.5684 12.127L20.5625 12.127L20.5625 13.3027C20.5625 14.2598 21.4102 14.5469 22.1211 14.082L25.5664 11.8672C26.2227 11.4434 26.2363 10.623 25.5527 10.1855L22.1348 7.98438C21.4102 7.50586 20.5625 7.79297 20.5625 8.76367L20.5625 9.92578L17.5684 9.92578C16.2832 9.92578 15.7637 9.63867 14.916 8.54492L11.2109 3.71875C10.0625 2.20117 8.70898 1.59961 6.63086 1.59961L3.26758 1.59961C2.66602 1.59961 2.17383 2.0918 2.17383 2.69336C2.17383 3.29492 2.66602 3.80078 3.26758 3.80078Z" fill="black" fill-opacity="0.85"/>
 </g>
</svg>
