<?xml version="1.0" encoding="UTF-8"?>
<!--Generator: Apple Native CoreSVG 326-->
<!DOCTYPE svg
PUBLIC "-//W3C//DTD SVG 1.1//EN"
       "http://www.w3.org/Graphics/SVG/1.1/DTD/svg11.dtd">
<svg version="1.1" xmlns="http://www.w3.org/2000/svg" xmlns:xlink="http://www.w3.org/1999/xlink" viewBox="0 0 52.1992 22.2441">
 <g>
  <rect height="22.2441" opacity="0" width="52.1992" x="0" y="0"/>
  <path d="M3.48633 19.0996L7.15039 19.0996L7.15039 16.8984L3.60938 16.8984C2.7207 16.8984 2.20117 16.2969 2.20117 15.2578L2.20117 12.4961C2.20117 10.541 3.44531 9.50195 6.30273 9.06445L11.8672 8.2168L17.8828 4.4707C20.5762 2.80273 22.9277 2.20117 26.8516 2.20117L32.252 2.20117C33.7148 2.20117 34.5352 2.93945 34.6992 4.375L35.1504 8.51758L48.248 8.51758C49.123 8.51758 49.6426 9.13281 49.6426 10.1582L49.6426 15.2578C49.6426 16.2969 49.123 16.8984 48.248 16.8984L42.793 16.8984L42.793 19.0996L48.3711 19.0996C50.5449 19.0996 51.8438 17.7598 51.8438 15.5312L51.8438 9.88477C51.8438 7.65625 50.5449 6.31641 48.3711 6.31641L37.1602 6.31641L36.9004 4.07422C36.5859 1.36719 35.0684 0 32.375 0L26.8516 0C22.4492 0 19.7422 0.683594 16.707 2.59766L11.1152 6.09766L6.01562 6.87695C1.87305 7.50586 0 9.2832 0 12.4961L0 15.5312C0 17.7598 1.3125 19.0996 3.48633 19.0996ZM13.5625 19.0996L35.9297 19.0996L35.9297 16.8984L13.5625 16.8984ZM10.2812 22.2168C12.9062 22.2168 14.957 20.166 14.957 17.541C14.957 14.916 12.9062 12.8652 10.2812 12.8652C7.65625 12.8652 5.60547 14.916 5.60547 17.541C5.60547 20.166 7.65625 22.2168 10.2812 22.2168ZM10.2812 20.0156C8.88672 20.0156 7.80664 18.9355 7.80664 17.541C7.80664 16.1465 8.88672 15.0664 10.2812 15.0664C11.6758 15.0664 12.7559 16.1465 12.7559 17.541C12.7559 18.9355 11.6758 20.0156 10.2812 20.0156ZM39.1426 22.2168C41.7676 22.2168 43.8184 20.166 43.8184 17.541C43.8184 14.916 41.7676 12.8652 39.1426 12.8652C36.5176 12.8652 34.4668 14.916 34.4668 17.541C34.4668 20.166 36.5176 22.2168 39.1426 22.2168ZM39.1426 20.0156C37.748 20.0156 36.668 18.9355 36.668 17.541C36.668 16.1465 37.748 15.0664 39.1426 15.0664C40.5371 15.0664 41.6172 16.1465 41.6172 17.541C41.6172 18.9355 40.5371 20.0156 39.1426 20.0156Z" fill="black" fill-opacity="0.85"/>
 </g>
</svg>
