<?xml version="1.0" encoding="UTF-8"?>
<!--Generator: Apple Native CoreSVG 326-->
<!DOCTYPE svg
PUBLIC "-//W3C//DTD SVG 1.1//EN"
       "http://www.w3.org/Graphics/SVG/1.1/DTD/svg11.dtd">
<svg version="1.1" xmlns="http://www.w3.org/2000/svg" xmlns:xlink="http://www.w3.org/1999/xlink" viewBox="0 0 52.1992 33.8038">
 <g>
  <rect height="33.8038" opacity="0" width="52.1992" x="0" y="0"/>
  <path d="M13.9453 23.8677C13.9453 25.9048 12.332 27.5181 10.2812 27.5181C8.25781 27.5181 6.63086 25.8912 6.63086 23.8677C6.63086 21.8306 8.25781 20.2037 10.2812 20.2037C12.3184 20.2037 13.9453 21.8306 13.9453 23.8677ZM42.8066 23.8677C42.8066 25.8912 41.1797 27.5181 39.1426 27.5181C37.1055 27.5181 35.4785 25.8912 35.4785 23.8677C35.4785 21.8443 37.1191 20.2037 39.1426 20.2037C41.1797 20.2037 42.8066 21.8306 42.8066 23.8677ZM36.9004 9.85406L37.2285 12.6431L48.3711 12.6431C50.5449 12.6431 51.8438 13.983 51.8438 16.2115L51.8438 21.5845C51.8438 23.813 50.5449 25.1529 48.3711 25.1529L44.2285 25.1529C44.3379 24.7291 44.3926 24.3189 44.3926 23.8677C44.3926 20.9556 42.0547 18.6177 39.1426 18.6177C36.2441 18.6177 33.8926 20.9693 33.8926 23.8677C33.8926 24.3189 33.9473 24.7291 34.0566 25.1529L15.3809 25.1529C15.4766 24.7427 15.5312 24.3189 15.5312 23.8677C15.5312 20.9556 13.1934 18.6177 10.2812 18.6177C7.38281 18.6177 5.03125 20.9556 5.03125 23.8677C5.03125 24.3189 5.09961 24.7291 5.19531 25.1529L3.48633 25.1529C1.3125 25.1529 0 23.813 0 21.5845L0 18.2759C0 15.063 1.87305 13.2857 6.01562 12.6568L11.1152 11.8775L16.707 8.3775C19.7422 6.46344 22.4492 5.77984 26.8516 5.77984L32.375 5.77984C35.0684 5.77984 36.5859 7.14703 36.9004 9.85406ZM24.1035 15.0357L21.1504 19.8892C20.7539 20.5318 21.0684 21.1334 21.8066 21.1334L27.9043 21.1334C28.6289 21.1334 28.9707 20.5455 28.5742 19.9029L25.5938 15.0357C25.2109 14.4341 24.4863 14.4205 24.1035 15.0357Z" fill="black" fill-opacity="0.85"/>
  <path d="M28.5742 28.4888L25.5938 33.3423C25.2109 33.9439 24.4863 33.9712 24.1035 33.3423L21.1504 28.4888C20.7539 27.8462 21.0684 27.2447 21.8066 27.2447L27.9043 27.2447C28.6289 27.2447 28.9707 27.8462 28.5742 28.4888Z" fill="black" fill-opacity="0.85"/>
 </g>
</svg>
