<?xml version="1.0" encoding="UTF-8"?>
<!--Generator: Apple Native CoreSVG 326-->
<!DOCTYPE svg
PUBLIC "-//W3C//DTD SVG 1.1//EN"
       "http://www.w3.org/Graphics/SVG/1.1/DTD/svg11.dtd">
<svg version="1.1" xmlns="http://www.w3.org/2000/svg" xmlns:xlink="http://www.w3.org/1999/xlink" viewBox="0 0 47.6105 35.9505">
 <g>
  <rect height="35.9505" opacity="0" width="47.6105" x="0" y="0"/>
  <path d="M9.108 11.0368L11.6783 12.527L12.567 10.9821L10.0787 9.54653C9.46347 9.19106 9.34043 8.54848 9.76425 7.82387L10.8717 5.89614C11.6646 4.52895 12.9635 4.29653 15.1373 5.14419L19.3893 6.81215L25.1314 6.62075C27.6881 6.52505 29.5885 7.07192 32.3502 8.65786L36.1236 10.8454C37.1627 11.4332 37.4361 12.2809 36.9713 13.3473L35.6041 16.4508L44.7916 21.7555C45.4068 22.111 45.5299 22.7399 45.1061 23.4645L43.0416 27.0465C42.6314 27.7711 42.0162 27.9899 41.401 27.6344L37.5728 25.4196L36.6705 26.9645L40.5943 29.2204C42.1119 30.0954 43.5748 29.6852 44.4771 28.1266L46.7603 24.1754C47.6627 22.6032 47.2936 21.1403 45.7623 20.2516L37.901 15.7125L38.6256 14.0309C39.5143 12.0075 38.9947 10.4352 37.108 9.34145L33.2389 7.11294C30.1353 5.32192 27.9752 4.72036 25.0631 4.81606L19.7311 5.02114L15.8346 3.50356C12.6627 2.25942 10.6393 2.75161 9.34043 5.00747L8.10996 7.12661C7.20761 8.6852 7.57675 10.1618 9.108 11.0368ZM16.1764 15.1247L31.8717 24.1891L32.7603 22.6442L17.065 13.5797ZM12.608 15.986C14.4537 17.0524 16.7232 16.4372 17.7896 14.6051C18.8424 12.7594 18.2408 10.4899 16.3951 9.42348C14.5631 8.35708 12.2936 8.97231 11.2271 10.818C10.1607 12.65 10.776 14.9196 12.608 15.986ZM13.4967 14.4411C12.526 13.8805 12.1978 12.6774 12.7721 11.7067C13.3326 10.7223 14.5357 10.4079 15.5064 10.9684C16.4908 11.529 16.8053 12.7321 16.2447 13.7028C15.6842 14.6872 14.4811 15.0016 13.4967 14.4411ZM32.8561 27.6754C34.7018 28.7418 36.9713 28.1266 38.024 26.2946C39.0904 24.4489 38.4889 22.1793 36.6432 21.1129C34.7975 20.0465 32.5279 20.6618 31.4615 22.4938C30.4088 24.3395 31.0103 26.609 32.8561 27.6754ZM33.7447 26.1305C32.774 25.57 32.4459 24.3668 33.0064 23.3961C33.5807 22.4118 34.7701 22.0973 35.7545 22.6579C36.7252 23.2184 37.0533 24.4215 36.4791 25.3922C35.9186 26.3766 34.7291 26.6911 33.7447 26.1305Z" fill="black" fill-opacity="0.85"/>
  <path d="M4.77402 6.78481L7.65879 1.80825C8.1373 0.987936 7.46738 0.249655 6.61972 0.413717L2.21738 1.22036C1.61582 1.32973 1.34238 1.79458 1.56113 2.38247L3.05136 6.5934C3.33847 7.41372 4.2955 7.6188 4.77402 6.78481ZM0.152926 12.1852C-0.161527 12.7321 0.0298795 13.402 0.535739 13.7028L38.7896 35.8102C39.2818 36.0973 39.9654 35.9332 40.2662 35.4137C40.5807 34.8668 40.3893 34.1969 39.8834 33.8961L1.62949 11.7887C1.1373 11.5016 0.440036 11.6793 0.152926 12.1852Z" fill="black" fill-opacity="0.85"/>
 </g>
</svg>
