<?xml version="1.0" encoding="UTF-8"?>
<!--Generator: Apple Native CoreSVG 326-->
<!DOCTYPE svg
PUBLIC "-//W3C//DTD SVG 1.1//EN"
       "http://www.w3.org/Graphics/SVG/1.1/DTD/svg11.dtd">
<svg version="1.1" xmlns="http://www.w3.org/2000/svg" xmlns:xlink="http://www.w3.org/1999/xlink" viewBox="0 0 25.0879 24.7051">
 <g>
  <rect height="24.7051" opacity="0" width="25.0879" x="0" y="0"/>
  <path d="M24.7324 2.7207L24.7324 0.4375C22.627 0.888672 20.7949 1.66797 18.8535 2.88477L12.5508 6.84961L6.76758 7.71094C2.11914 8.4082 0.123047 10.3359 0.123047 13.9043L0.123047 17.3086C0.123047 19.7559 1.51758 21.1914 3.91016 21.1914L7.90234 21.1914L7.90234 18.9902L4.04688 18.9902C2.9668 18.9902 2.33789 18.2246 2.33789 17.0078L2.33789 13.9043C2.33789 11.6348 3.78711 10.4043 7.05469 9.91211L13.2891 8.96875L20.0293 4.77148C21.5879 3.80078 23.0645 3.13086 24.7324 2.7207ZM24.7324 21.1914L24.7324 18.9902L15.3809 18.9902L15.3809 21.1914ZM11.5664 24.7051C14.4512 24.7051 16.6797 22.4766 16.6797 19.5781C16.6797 16.6934 14.4512 14.4648 11.5664 14.4648C8.6543 14.4648 6.42578 16.6934 6.42578 19.5781C6.42578 22.4766 8.6543 24.7051 11.5664 24.7051ZM11.5664 22.4902C9.92578 22.4902 8.64062 21.2188 8.64062 19.5781C8.64062 17.9375 9.92578 16.666 11.5664 16.666C13.1934 16.666 14.4785 17.9375 14.4785 19.5781C14.4785 21.2188 13.1934 22.4902 11.5664 22.4902ZM1.01172 1.96875L5.50977 1.96875C6.0293 1.96875 6.42578 2.0918 6.74023 2.41992L12.3867 8.05273L14.2461 7.02734L8.33984 1.12109C7.54688 0.328125 6.50781 0 5.27734 0L1.01172 0C0.382812 0 0 0.382812 0 0.970703C0 1.55859 0.382812 1.96875 1.01172 1.96875Z" fill="black" fill-opacity="0.85"/>
 </g>
</svg>
