<?xml version="1.0" encoding="UTF-8"?>
<!--Generator: Apple Native CoreSVG 326-->
<!DOCTYPE svg
PUBLIC "-//W3C//DTD SVG 1.1//EN"
       "http://www.w3.org/Graphics/SVG/1.1/DTD/svg11.dtd">
<svg version="1.1" xmlns="http://www.w3.org/2000/svg" xmlns:xlink="http://www.w3.org/1999/xlink" viewBox="0 0 36.3496 29.8457">
 <g>
  <rect height="29.8457" opacity="0" width="36.3496" x="0" y="0"/>
  <path d="M11.0449 29.8457L24.9492 29.8457C27.4785 29.8457 28.709 28.6289 28.75 26.1133L28.9277 12.6875L32.2773 13.4531C33.5488 13.7402 34.3691 13.2207 34.6836 11.9082L35.9004 7.05469C36.2285 5.75586 35.7363 4.85352 34.4922 4.33398L24.8672 0.232422C24.3203-0.0136719 23.8144 0 23.3086 0.246094C21.5039 1.10742 20.041 1.54492 18.0039 1.54492C15.9531 1.54492 14.4902 1.10742 12.6855 0.246094C12.1797 0 11.6738-0.0136719 11.1269 0.232422L1.50194 4.33398C0.257799 4.85352-0.220716 5.75586 0.0937369 7.05469L1.31053 11.9082C1.62499 13.2207 2.4453 13.7402 3.71678 13.4531L7.08007 12.6875L7.24413 26.1133C7.28514 28.6289 8.51561 29.8457 11.0449 29.8457ZM18.0039 5.81055C15.666 5.81055 14.0254 4.60742 13.3281 2.625C14.7637 3.17188 16.3769 3.47266 18.0039 3.47266C19.6172 3.47266 21.2441 3.17188 22.666 2.625C21.9824 4.58008 20.3691 5.81055 18.0039 5.81055Z" fill="black" fill-opacity="0.85"/>
 </g>
</svg>
