<?xml version="1.0" encoding="UTF-8"?>
<!--Generator: Apple Native CoreSVG 326-->
<!DOCTYPE svg
PUBLIC "-//W3C//DTD SVG 1.1//EN"
       "http://www.w3.org/Graphics/SVG/1.1/DTD/svg11.dtd">
<svg version="1.1" xmlns="http://www.w3.org/2000/svg" xmlns:xlink="http://www.w3.org/1999/xlink" viewBox="0 0 19.4961 24.8418">
 <g>
  <rect height="24.8418" opacity="0" width="19.4961" x="0" y="0"/>
  <path d="M9.57031 24.8418C10.377 24.8418 10.9238 24.2812 10.9238 23.4746L10.9238 2.48828L17.8555 2.48828C18.6074 2.48828 19.1406 1.96875 19.1406 1.25781C19.1406 0.560547 18.6074 0.0546875 17.8555 0.0546875L1.29883 0.0546875C0.546875 0.0546875 0 0.560547 0 1.25781C0 1.96875 0.546875 2.48828 1.29883 2.48828L8.23047 2.48828L8.23047 23.4746C8.23047 24.2812 8.77734 24.8418 9.57031 24.8418ZM3.82812 14.5605C3.99219 14.5605 4.15625 14.5332 4.33398 14.4512L15.5449 9.84375C15.9824 9.66602 16.2012 9.36523 16.2012 8.94141C16.2012 8.49023 15.9004 8.09375 15.3398 8.09375C15.1895 8.09375 15.0117 8.13477 14.8203 8.20312L3.60938 12.8105C3.18555 12.9746 2.98047 13.2754 2.98047 13.6992C2.98047 14.1914 3.33594 14.5605 3.82812 14.5605ZM3.82812 19.9883C3.99219 19.9883 4.15625 19.9609 4.33398 19.8789L15.5449 15.2578C15.9824 15.0801 16.2012 14.7793 16.2012 14.3691C16.2012 13.918 15.9004 13.5215 15.3398 13.5215C15.1895 13.5215 15.0117 13.5488 14.8203 13.6309L3.60938 18.2383C3.18555 18.4023 2.98047 18.7031 2.98047 19.127C2.98047 19.6191 3.33594 19.9883 3.82812 19.9883Z" fill="black" fill-opacity="0.85"/>
 </g>
</svg>
