<?xml version="1.0" encoding="UTF-8"?>
<!--Generator: Apple Native CoreSVG 326-->
<!DOCTYPE svg
PUBLIC "-//W3C//DTD SVG 1.1//EN"
       "http://www.w3.org/Graphics/SVG/1.1/DTD/svg11.dtd">
<svg version="1.1" xmlns="http://www.w3.org/2000/svg" xmlns:xlink="http://www.w3.org/1999/xlink" viewBox="0 0 33.5408 27.9043">
 <g>
  <rect height="27.9043" opacity="0" width="33.5408" x="0" y="0"/>
  <path d="M16.5995 27.8906C24.2968 27.8906 30.5448 21.6426 30.5448 13.9453C30.5448 6.24805 24.2968 0 16.5995 0C8.90224 0 2.65419 6.24805 2.65419 13.9453L4.97841 13.9453C4.97841 7.51953 10.1737 2.32422 16.5995 2.32422C23.0253 2.32422 28.2206 7.51953 28.2206 13.9453C28.2206 20.3711 23.0253 25.5664 16.5995 25.5664C12.7167 25.5664 9.2577 23.6523 7.19325 20.7539C6.76942 20.1934 6.12684 20.0156 5.55263 20.3574C5.00575 20.6992 4.84169 21.4648 5.30653 22.0664C7.83583 25.6074 11.9784 27.8906 16.5995 27.8906ZM0.972548 11.3066C-0.0118272 11.3066-0.257921 11.9766 0.275282 12.7422L3.33778 17.0898C3.78895 17.7188 4.4452 17.7051 4.8827 17.0898L7.93153 12.7285C8.46474 11.9766 8.20497 11.3066 7.24794 11.3066Z" fill="black" fill-opacity="0.85"/>
  <path d="M16.5995 20.4668C17.1054 20.4668 17.3925 20.166 17.3925 19.6738L17.3925 9.48828L20.7147 9.48828C21.1659 9.48828 21.4667 9.1875 21.4667 8.79102C21.4667 8.36719 21.1522 8.09375 20.7147 8.09375L12.4843 8.09375C12.0331 8.09375 11.7323 8.36719 11.7323 8.79102C11.7323 9.21484 12.0468 9.48828 12.4843 9.48828L15.7929 9.48828L15.7929 19.6738C15.7929 20.166 16.1073 20.4668 16.5995 20.4668ZM13.6737 15.3809C13.7558 15.3809 13.8378 15.3672 13.9198 15.3398L19.6347 13.0293C19.8671 12.9336 19.9765 12.7969 19.9765 12.5781C19.9765 12.2637 19.7714 12.127 19.539 12.127C19.4569 12.127 19.3749 12.1406 19.2792 12.168L13.5507 14.4785C13.3319 14.5879 13.2225 14.7383 13.2225 14.9434C13.2225 15.1895 13.4003 15.3809 13.6737 15.3809ZM13.6737 18.0742C13.7558 18.0742 13.8378 18.0605 13.9198 18.0195L19.6347 15.709C19.8671 15.6133 19.9765 15.4766 19.9765 15.2578C19.9765 14.957 19.7714 14.8066 19.539 14.8066C19.4569 14.8066 19.3749 14.834 19.2792 14.8613L13.5507 17.1719C13.3319 17.2676 13.2225 17.418 13.2225 17.623C13.2225 17.8691 13.4003 18.0742 13.6737 18.0742Z" fill="black" fill-opacity="0.85"/>
 </g>
</svg>
