<?xml version="1.0" encoding="UTF-8"?>
<!--Generator: Apple Native CoreSVG 326-->
<!DOCTYPE svg
PUBLIC "-//W3C//DTD SVG 1.1//EN"
       "http://www.w3.org/Graphics/SVG/1.1/DTD/svg11.dtd">
<svg version="1.1" xmlns="http://www.w3.org/2000/svg" xmlns:xlink="http://www.w3.org/1999/xlink" viewBox="0 0 28.2461 27.9043">
 <g>
  <rect height="27.9043" opacity="0" width="28.2461" x="0" y="0"/>
  <path d="M13.9453 27.8906C21.6426 27.8906 27.8906 21.6289 27.8906 13.9453C27.8906 6.24805 21.6426 0 13.9453 0C6.26172 0 0 6.24805 0 13.9453C0 21.6289 6.26172 27.8906 13.9453 27.8906Z" fill="black" fill-opacity="0.85"/>
  <path d="M13.959 20.6582C13.4531 20.6582 13.125 20.3574 13.125 19.8379L13.125 17.377L11.1973 18.1426C11.1152 18.1836 11.0195 18.1973 10.9375 18.1973C10.6641 18.1973 10.4727 17.9922 10.4727 17.7324C10.4727 17.5137 10.582 17.3633 10.8145 17.2676L13.125 16.3379L13.125 14.5879L11.1973 15.3809C11.1152 15.4082 11.0195 15.4219 10.9375 15.4219C10.6641 15.4219 10.4727 15.2168 10.4727 14.9707C10.4727 14.752 10.582 14.6016 10.8145 14.4785L13.125 13.5488L13.125 9.33789L9.7207 9.33789C9.25586 9.33789 8.94141 9.05078 8.94141 8.61328C8.94141 8.17578 9.24219 7.90234 9.7207 7.90234L18.1973 7.90234C18.6621 7.90234 18.9766 8.17578 18.9766 8.61328C18.9766 9.02344 18.6758 9.33789 18.1973 9.33789L14.7793 9.33789L14.7793 12.8926L16.7207 12.1133C16.8164 12.0723 16.9121 12.0586 16.9941 12.0586C17.2266 12.0586 17.4453 12.1953 17.4453 12.5234C17.4453 12.7559 17.3359 12.8926 17.0898 12.9883L14.7793 13.9316L14.7793 15.668L16.7207 14.875C16.8164 14.8477 16.9121 14.8203 16.9941 14.8203C17.2266 14.8203 17.4453 14.9844 17.4453 15.2852C17.4453 15.5176 17.3359 15.6543 17.0898 15.7637L14.7793 16.6934L14.7793 19.8379C14.7793 20.3574 14.4785 20.6582 13.959 20.6582Z" fill="white"/>
 </g>
</svg>
