<?xml version="1.0" encoding="UTF-8"?>
<!--Generator: Apple Native CoreSVG 326-->
<!DOCTYPE svg
PUBLIC "-//W3C//DTD SVG 1.1//EN"
       "http://www.w3.org/Graphics/SVG/1.1/DTD/svg11.dtd">
<svg version="1.1" xmlns="http://www.w3.org/2000/svg" xmlns:xlink="http://www.w3.org/1999/xlink" viewBox="0 0 29.2031 28.9707">
 <g>
  <rect height="28.9707" opacity="0" width="29.2031" x="0" y="0"/>
  <path d="M7.4375 14.3691L7.4375 19.5508L2.00977 24.9922L3.96484 26.9336L9.29688 21.6152L14.6836 21.6016C15.5586 21.6016 16.4883 21.2871 17.1309 20.6582L28.4512 9.50195C28.998 8.95508 28.9707 8.08008 28.4512 7.54688C27.918 7 27.0293 7 26.4961 7.54688L15.6133 18.4434C15.2168 18.8262 14.7383 19.0586 14.1777 19.0586L10.3633 19.0586L10.1582 18.8125L10.1582 14.7109C10.1582 14.1504 10.377 13.6582 10.7598 13.2754L21.5059 2.55664C22.0391 2.00977 22.0254 1.13477 21.5059 0.587891C20.9727 0.0546875 20.084 0.0410156 19.5508 0.601562L8.39453 11.9219C7.72461 12.6055 7.45117 13.4805 7.4375 14.3691ZM2.55664 28.9707C3.97852 28.9707 5.12695 27.8086 5.12695 26.4004C5.12695 24.9785 3.97852 23.8164 2.55664 23.8301C1.14844 23.8301 0 24.9785 0 26.4004C0 27.8086 1.14844 28.9707 2.55664 28.9707Z" fill="black" fill-opacity="0.85"/>
 </g>
</svg>
