<?xml version="1.0" encoding="UTF-8"?>
<!--Generator: Apple Native CoreSVG 326-->
<!DOCTYPE svg
PUBLIC "-//W3C//DTD SVG 1.1//EN"
       "http://www.w3.org/Graphics/SVG/1.1/DTD/svg11.dtd">
<svg version="1.1" xmlns="http://www.w3.org/2000/svg" xmlns:xlink="http://www.w3.org/1999/xlink" viewBox="0 0 25.5254 25.1699">
 <g>
  <rect height="25.1699" opacity="0" width="25.5254" x="0" y="0"/>
  <path d="M4.29297 25.1699L20.877 25.1699C23.748 25.1699 25.1699 23.7617 25.1699 20.9453L25.1699 4.23828C25.1699 1.42188 23.748 0 20.877 0L4.29297 0C1.43555 0 0 1.42188 0 4.23828L0 20.9453C0 23.7617 1.43555 25.1699 4.29297 25.1699ZM4.32031 22.9688C2.95312 22.9688 2.20117 22.2441 2.20117 20.8223L2.20117 4.36133C2.20117 2.93945 2.95312 2.20117 4.32031 2.20117L20.8496 2.20117C22.2031 2.20117 22.9688 2.93945 22.9688 4.36133L22.9688 20.8223C22.9688 22.2441 22.2031 22.9688 20.8496 22.9688Z" fill="black" fill-opacity="0.85"/>
  <path d="M10.9785 18.5527L11.1426 18.5527C12.7695 18.5527 14.5059 17.9375 15.5859 16.8848C16.4746 15.9824 17.1445 14.752 17.1445 13.5762C17.1445 13.1387 16.9121 12.8105 16.4062 12.8105C15.9551 12.8105 15.709 13.084 15.6543 13.5488C15.5312 14.4102 15.1621 15.1621 14.6289 15.7227C13.8496 16.584 12.6875 17.0215 11.5254 17.0215L11.5254 12.6465L14.3418 11.5117C14.5605 11.416 14.6836 11.2656 14.6836 11.0742C14.6836 10.7871 14.4922 10.6094 14.2324 10.6094C14.1504 10.6094 14.0684 10.6367 13.9863 10.6641L11.5254 11.6621L11.5254 9.98047L14.3418 8.83203C14.5605 8.75 14.6836 8.58594 14.6836 8.36719C14.6836 8.18945 14.5879 7.92969 14.2461 7.92969C14.1641 7.92969 14.082 7.95703 13.9863 7.99805L11.5254 8.99609L11.5254 7.10938C11.5254 6.63086 11.2109 6.28906 10.7324 6.28906C10.2539 6.28906 9.92578 6.63086 9.92578 7.10938L9.92578 9.63867L8.18945 10.3359C7.9707 10.418 7.875 10.5547 7.875 10.7734C7.875 11.0332 8.06641 11.2246 8.3125 11.2246C8.38086 11.2246 8.47656 11.2109 8.57227 11.1699L9.92578 10.623L9.92578 12.3184L8.18945 13.0156C7.9707 13.1113 7.875 13.2344 7.875 13.4531C7.875 13.6992 8.06641 13.9043 8.3125 13.9043C8.38086 13.9043 8.49023 13.877 8.57227 13.8496L9.92578 13.2891L9.92578 17.541C9.92578 18.1562 10.3633 18.5527 10.9785 18.5527Z" fill="black" fill-opacity="0.85"/>
 </g>
</svg>
