<?xml version="1.0" encoding="UTF-8"?>
<!--Generator: Apple Native CoreSVG 326-->
<!DOCTYPE svg
PUBLIC "-//W3C//DTD SVG 1.1//EN"
       "http://www.w3.org/Graphics/SVG/1.1/DTD/svg11.dtd">
<svg version="1.1" xmlns="http://www.w3.org/2000/svg" xmlns:xlink="http://www.w3.org/1999/xlink" viewBox="0 0 28.2461 27.9043">
 <g>
  <rect height="27.9043" opacity="0" width="28.2461" x="0" y="0"/>
  <path d="M13.9453 27.8906C21.6426 27.8906 27.8906 21.6289 27.8906 13.9453C27.8906 6.24805 21.6426 0 13.9453 0C6.26172 0 0 6.24805 0 13.9453C0 21.6289 6.26172 27.8906 13.9453 27.8906Z" fill="black" fill-opacity="0.85"/>
  <path d="M12.291 20.1113C11.6348 20.1113 11.1836 19.7012 11.1836 19.0723L11.1836 14.6836L9.80273 15.2578C9.7207 15.2852 9.59766 15.3125 9.5293 15.3125C9.26953 15.3125 9.07812 15.1074 9.07812 14.8477C9.07812 14.6289 9.17383 14.4922 9.40625 14.3965L11.1836 13.6855L11.1836 11.9355L9.80273 12.4961C9.70703 12.5371 9.59766 12.5508 9.5293 12.5508C9.26953 12.5508 9.07812 12.3594 9.07812 12.0859C9.07812 11.8672 9.17383 11.7168 9.40625 11.6348L11.1836 10.9102L11.1836 8.3125C11.1836 7.82031 11.5391 7.46484 12.0312 7.46484C12.5234 7.46484 12.8516 7.82031 12.8516 8.3125L12.8516 10.2539L15.3809 9.22852C15.4902 9.1875 15.5723 9.14648 15.6543 9.14648C15.9961 9.14648 16.1055 9.41992 16.1055 9.61133C16.1055 9.83008 15.9824 10.0078 15.75 10.0898L12.8516 11.2656L12.8516 13.002L15.3809 11.9766C15.4766 11.9492 15.5586 11.9219 15.6406 11.9219C15.9141 11.9219 16.1055 12.0996 16.1055 12.4004C16.1055 12.5918 15.9824 12.7559 15.75 12.8516L12.8516 14.0137L12.8516 18.5254C14.0547 18.5254 15.2305 18.0742 16.0508 17.1855C16.5977 16.6113 16.9805 15.8457 17.1035 14.957C17.1582 14.4785 17.4043 14.1914 17.8828 14.1914C18.4023 14.1914 18.6484 14.5332 18.6484 14.9844C18.6484 16.1875 17.9512 17.459 17.0352 18.3887C15.9277 19.4824 14.1367 20.1113 12.4551 20.1113Z" fill="white"/>
 </g>
</svg>
