<?xml version="1.0" encoding="UTF-8"?>
<!--Generator: Apple Native CoreSVG 326-->
<!DOCTYPE svg
PUBLIC "-//W3C//DTD SVG 1.1//EN"
       "http://www.w3.org/Graphics/SVG/1.1/DTD/svg11.dtd">
<svg version="1.1" xmlns="http://www.w3.org/2000/svg" xmlns:xlink="http://www.w3.org/1999/xlink" viewBox="0 0 18.457 24.5137">
 <g>
  <rect height="24.5137" opacity="0" width="18.457" x="0" y="0"/>
  <path d="M5.82422 24.4863L6.08398 24.4863C9.59766 24.4863 12.6465 23.3105 14.916 21.0957C16.8027 19.2637 18.1016 16.7891 18.1016 14.3145C18.1016 13.6035 17.7324 13.002 16.8848 13.002C16.0508 13.002 15.709 13.5215 15.5859 14.3145C15.3535 16.2559 14.5059 17.9238 13.2754 19.1953C11.6484 20.8906 9.39258 21.834 6.82227 21.834L6.82227 12.8516L12.6055 10.4043C13.043 10.2266 13.248 9.95312 13.248 9.5293C13.248 9.06445 12.9473 8.68164 12.3867 8.68164C12.2363 8.68164 12.0859 8.70898 11.8945 8.79102L6.82227 10.9102L6.82227 7.42383L12.6055 5.00391C13.043 4.82617 13.248 4.53906 13.248 4.11523C13.248 3.5957 12.9062 3.25391 12.3867 3.25391C12.2363 3.25391 12.0859 3.29492 11.8945 3.36328L6.82227 5.49609L6.82227 1.39453C6.82227 0.574219 6.26172 0 5.45508 0C4.66211 0 4.11523 0.574219 4.11523 1.39453L4.11523 6.60352L0.615234 8.05273C0.205078 8.2168 0 8.51758 0 8.92773C0 9.46094 0.355469 9.80273 0.847656 9.80273C0.998047 9.80273 1.17578 9.77539 1.35352 9.69336L4.11523 8.54492L4.11523 12.0176L0.615234 13.4668C0.205078 13.6445 0 13.9316 0 14.3418C0 14.875 0.355469 15.2305 0.847656 15.2305C0.998047 15.2305 1.17578 15.1895 1.35352 15.1211L4.11523 13.9453L4.11523 22.7773C4.11523 23.7754 4.70312 24.4863 5.82422 24.4863Z" fill="black" fill-opacity="0.85"/>
 </g>
</svg>
