<?xml version="1.0" encoding="UTF-8"?>
<!--Generator: Apple Native CoreSVG 326-->
<!DOCTYPE svg
PUBLIC "-//W3C//DTD SVG 1.1//EN"
       "http://www.w3.org/Graphics/SVG/1.1/DTD/svg11.dtd">
<svg version="1.1" xmlns="http://www.w3.org/2000/svg" xmlns:xlink="http://www.w3.org/1999/xlink" viewBox="0 0 33.5408 27.9043">
 <g>
  <rect height="27.9043" opacity="0" width="33.5408" x="0" y="0"/>
  <path d="M16.5995 27.8906C24.2968 27.8906 30.5448 21.6426 30.5448 13.9453C30.5448 6.24805 24.2968 0 16.5995 0C8.90224 0 2.65419 6.24805 2.65419 13.9453L4.97841 13.9453C4.97841 7.51953 10.1737 2.32422 16.5995 2.32422C23.0253 2.32422 28.2206 7.51953 28.2206 13.9453C28.2206 20.3711 23.0253 25.5664 16.5995 25.5664C12.7167 25.5664 9.2577 23.6523 7.19325 20.7539C6.76942 20.1934 6.12684 20.0156 5.55263 20.3574C5.00575 20.6992 4.84169 21.4648 5.30653 22.0664C7.83583 25.6074 11.9784 27.8906 16.5995 27.8906ZM0.972548 11.3066C-0.0118272 11.3066-0.257921 11.9766 0.275282 12.7422L3.33778 17.0898C3.78895 17.7188 4.4452 17.7051 4.8827 17.0898L7.93153 12.7285C8.46474 11.9766 8.20497 11.3066 7.24794 11.3066Z" fill="black" fill-opacity="0.85"/>
  <path d="M14.9862 19.9199L15.1503 19.9199C16.7772 19.9199 18.5136 19.3047 19.5936 18.252C20.4823 17.3496 21.1522 16.1191 21.1522 14.9434C21.1522 14.5059 20.9198 14.1777 20.414 14.1777C19.9491 14.1777 19.7167 14.4512 19.662 14.916C19.539 15.7773 19.1698 16.5293 18.6366 17.0898C17.8436 17.9512 16.6952 18.3887 15.5331 18.3887L15.5331 14.0137L18.3495 12.8789C18.5683 12.7832 18.6913 12.6328 18.6913 12.4414C18.6913 12.1543 18.4999 11.9766 18.2401 11.9766C18.1581 11.9766 18.0761 12.0039 17.994 12.0312L15.5331 13.0293L15.5331 11.3477L18.3495 10.1992C18.5683 10.1172 18.6913 9.95312 18.6913 9.73438C18.6913 9.55664 18.5819 9.29688 18.2538 9.29688C18.1718 9.29688 18.0897 9.32422 17.994 9.36523L15.5331 10.3633L15.5331 8.47656C15.5331 7.99805 15.2186 7.65625 14.7401 7.65625C14.2616 7.65625 13.9198 7.99805 13.9198 8.47656L13.9198 11.0059L12.1972 11.7031C11.9784 11.7852 11.8827 11.9219 11.8827 12.1406C11.8827 12.4004 12.0741 12.5918 12.3202 12.5918C12.3886 12.5918 12.4843 12.5781 12.58 12.5371L13.9198 11.9902L13.9198 13.6855L12.1972 14.3828C11.9784 14.4785 11.8827 14.6016 11.8827 14.8203C11.8827 15.0664 12.0741 15.2715 12.3202 15.2715C12.3886 15.2715 12.4979 15.2441 12.58 15.2168L13.9198 14.6562L13.9198 18.9082C13.9198 19.5234 14.3573 19.9199 14.9862 19.9199Z" fill="black" fill-opacity="0.85"/>
 </g>
</svg>
