<?xml version="1.0" encoding="UTF-8"?>
<!--Generator: Apple Native CoreSVG 326-->
<!DOCTYPE svg
PUBLIC "-//W3C//DTD SVG 1.1//EN"
       "http://www.w3.org/Graphics/SVG/1.1/DTD/svg11.dtd">
<svg version="1.1" xmlns="http://www.w3.org/2000/svg" xmlns:xlink="http://www.w3.org/1999/xlink" viewBox="0 0 34.5352 35.9058">
 <g>
  <rect height="35.9058" opacity="0" width="34.5352" x="0" y="0"/>
  <path d="M25.0742 30.4968C25.0742 31.1121 24.5684 31.6043 23.9668 31.6043L10.2129 31.6043C9.61133 31.6043 9.10547 31.1121 9.10547 30.4968C9.10547 29.8816 9.61133 29.3894 10.2129 29.3894L23.9668 29.3894C24.5684 29.3894 25.0742 29.8816 25.0742 30.4968ZM1.83203 4.98512L23.805 26.9695L3.51367 26.9695C1.18945 26.9695 0 25.8347 0 23.4558L0 7.78785C0 6.20906 0.523891 5.17825 1.55888 4.66669C1.63874 4.77927 1.73088 4.88518 1.83203 4.98512ZM34.1797 7.78785L34.1797 23.4558C34.1797 25.3607 33.4258 26.4679 31.9229 26.8314L9.38904 4.27418L30.666 4.27418C33.0039 4.27418 34.1797 5.40894 34.1797 7.78785Z" fill="black" fill-opacity="0.85"/>
  <path d="M29.5312 30.0457C29.9414 30.4558 30.6113 30.4558 31.0215 30.0457C31.418 29.6355 31.4316 28.9656 31.0215 28.5554L4.64844 2.18238C4.25195 1.77222 3.56836 1.75855 3.14453 2.18238C2.74805 2.57887 2.74805 3.27613 3.14453 3.67262Z" fill="black" fill-opacity="0.85"/>
 </g>
</svg>
