<?xml version="1.0" encoding="UTF-8"?>
<!--Generator: Apple Native CoreSVG 326-->
<!DOCTYPE svg
PUBLIC "-//W3C//DTD SVG 1.1//EN"
       "http://www.w3.org/Graphics/SVG/1.1/DTD/svg11.dtd">
<svg version="1.1" xmlns="http://www.w3.org/2000/svg" xmlns:xlink="http://www.w3.org/1999/xlink" viewBox="0 0 27.6172 32.334">
 <g>
  <rect height="32.334" opacity="0" width="27.6172" x="0" y="0"/>
  <path d="M12.4961 4.08789L14.7656 4.08789L14.7656 1.14844C14.7656 0.519531 14.2598 0 13.6309 0C13.002 0 12.4961 0.519531 12.4961 1.14844ZM1.13477 17.3496C1.53125 17.3496 1.91406 17.0898 2.21484 16.6387C3.13086 15.2578 4.08789 14.6836 5.38672 14.6836C6.6582 14.6836 7.51953 15.2578 8.29883 16.625C8.59961 17.1309 8.88672 17.3496 9.26953 17.3496C9.66602 17.3496 9.9668 17.1309 10.2402 16.625C10.9785 15.3672 12.3184 14.6016 13.6309 14.6016C14.9434 14.6016 16.2832 15.3672 17.0215 16.625C17.2949 17.1309 17.582 17.3496 17.9922 17.3496C18.375 17.3496 18.6621 17.1309 18.9492 16.625C19.7422 15.2578 20.6035 14.6836 21.875 14.6836C23.1738 14.6836 24.1309 15.2578 25.0332 16.6387C25.334 17.0898 25.7168 17.3496 26.127 17.3496C26.8105 17.3496 27.2617 16.7891 27.2617 16.0508C27.2617 10.623 22.9824 3.00781 13.6309 3.00781C4.2793 3.00781 0 10.623 0 16.0508C0 16.7891 0.451172 17.3496 1.13477 17.3496ZM10.418 31.6094C12.8926 31.6094 14.7656 29.7363 14.7656 27.248L14.7656 13.9453L12.4961 13.9453L12.4961 27.248C12.4961 28.4375 11.6348 29.2988 10.418 29.2988C9.22852 29.2988 8.38086 28.4375 8.38086 27.248C8.38086 26.4551 7.90234 25.9219 7.20508 25.9219C6.52148 25.9219 6.07031 26.4551 6.07031 27.248C6.07031 29.7363 7.95703 31.6094 10.418 31.6094Z" fill="black" fill-opacity="0.85"/>
 </g>
</svg>
