<?xml version="1.0" encoding="UTF-8"?>
<!--Generator: Apple Native CoreSVG 326-->
<!DOCTYPE svg
PUBLIC "-//W3C//DTD SVG 1.1//EN"
       "http://www.w3.org/Graphics/SVG/1.1/DTD/svg11.dtd">
<svg version="1.1" xmlns="http://www.w3.org/2000/svg" xmlns:xlink="http://www.w3.org/1999/xlink" viewBox="0 0 27.6172 32.334">
 <g>
  <rect height="32.334" opacity="0" width="27.6172" x="0" y="0"/>
  <path d="M12.4961 4.08789L14.7656 4.08789L14.7656 1.14844C14.7656 0.519531 14.2598 0 13.6309 0C13.002 0 12.4961 0.519531 12.4961 1.14844ZM1.13477 17.3496C1.53125 17.3496 1.91406 17.0898 2.21484 16.6387C3.13086 15.2578 4.08789 14.6836 5.38672 14.6836C6.6582 14.6836 7.51953 15.2578 8.29883 16.625C8.59961 17.1309 8.88672 17.3496 9.26953 17.3496C9.66602 17.3496 9.9668 17.1309 10.2402 16.625C10.9785 15.3672 12.3184 14.6016 13.6309 14.6016C14.9434 14.6016 16.2832 15.3672 17.0215 16.625C17.2949 17.1309 17.582 17.3496 17.9922 17.3496C18.375 17.3496 18.6621 17.1309 18.9492 16.625C19.7422 15.2578 20.6035 14.6836 21.875 14.6836C23.1738 14.6836 24.1309 15.2578 25.0332 16.6387C25.334 17.0898 25.7168 17.3496 26.127 17.3496C26.8105 17.3496 27.2617 16.7891 27.2617 16.0508C27.2617 10.623 22.9824 3.00781 13.6309 3.00781C4.2793 3.00781 0 10.623 0 16.0508C0 16.7891 0.451172 17.3496 1.13477 17.3496ZM13.6309 12.4688C11.9766 12.4688 10.3906 13.207 9.39258 14.4238C9.32422 14.5195 9.26953 14.5195 9.20117 14.4238C8.29883 13.1797 7.02734 12.5508 5.38672 12.5508C3.63672 12.5508 2.17383 13.2617 0.970703 14.7383L2.21484 14.8477C2.84375 9.50195 7.4375 5.14062 13.6309 5.14062C19.8105 5.14062 24.4043 9.47461 25.0332 14.8203L26.2773 14.7109C25.0742 13.2617 23.625 12.5508 21.875 12.5508C20.2344 12.5508 18.9629 13.1797 18.0469 14.4238C17.9922 14.5195 17.9375 14.5059 17.8691 14.4238C16.8711 13.207 15.2715 12.4688 13.6309 12.4688ZM10.418 31.6094C12.8926 31.6094 14.7656 29.7363 14.7656 27.248L14.7656 13.9453L12.4961 13.9453L12.4961 27.248C12.4961 28.4375 11.6348 29.2988 10.418 29.2988C9.22852 29.2988 8.38086 28.4375 8.38086 27.248C8.38086 26.4551 7.90234 25.9219 7.20508 25.9219C6.52148 25.9219 6.07031 26.4551 6.07031 27.248C6.07031 29.7363 7.95703 31.6094 10.418 31.6094Z" fill="black" fill-opacity="0.85"/>
 </g>
</svg>
