<?xml version="1.0" encoding="UTF-8"?>
<!--Generator: Apple Native CoreSVG 326-->
<!DOCTYPE svg
PUBLIC "-//W3C//DTD SVG 1.1//EN"
       "http://www.w3.org/Graphics/SVG/1.1/DTD/svg11.dtd">
<svg version="1.1" xmlns="http://www.w3.org/2000/svg" xmlns:xlink="http://www.w3.org/1999/xlink" viewBox="0 0 18.3203 31.2402">
 <g>
  <rect height="31.2402" opacity="0" width="18.3203" x="0" y="0"/>
  <path d="M17.9648 8.55859L17.9648 22.668C17.9648 27.6855 14.2598 31.2266 8.98242 31.2266C3.71875 31.2266 0 27.6855 0 22.668L0 8.55859C0 3.52734 3.71875 0 8.98242 0C14.2598 0 17.9648 3.52734 17.9648 8.55859ZM3.74609 22.0391C3.74609 24.9648 6.05664 27.2754 8.98242 27.2754C11.9082 27.2754 14.2051 24.9648 14.2051 22.0391C14.2051 19.1133 11.9082 16.8164 8.98242 16.8164C6.05664 16.8164 3.74609 19.1133 3.74609 22.0391ZM12.3457 22.0391C12.3457 23.9531 10.8828 25.416 8.98242 25.416C7.06836 25.416 5.60547 23.9531 5.60547 22.0391C5.60547 20.125 7.06836 18.6621 8.98242 18.6621C10.8828 18.6621 12.3457 20.125 12.3457 22.0391ZM3.74609 9.14648C3.74609 12.0723 6.05664 14.3691 8.98242 14.3691C11.9082 14.3691 14.2051 12.0723 14.2051 9.14648C14.2051 6.2207 11.9082 3.91016 8.98242 3.91016C6.05664 3.91016 3.74609 6.2207 3.74609 9.14648ZM10.8965 9.14648C10.8965 10.2402 10.0625 11.0879 8.98242 11.0879C7.90234 11.0879 7.05469 10.2402 7.05469 9.14648C7.05469 8.05273 7.90234 7.20508 8.98242 7.20508C10.0625 7.20508 10.8965 8.05273 10.8965 9.14648Z" fill="black" fill-opacity="0.85"/>
 </g>
</svg>
