<?xml version="1.0" encoding="UTF-8"?>
<!--Generator: Apple Native CoreSVG 326-->
<!DOCTYPE svg
PUBLIC "-//W3C//DTD SVG 1.1//EN"
       "http://www.w3.org/Graphics/SVG/1.1/DTD/svg11.dtd">
<svg version="1.1" xmlns="http://www.w3.org/2000/svg" xmlns:xlink="http://www.w3.org/1999/xlink" viewBox="0 0 41.1387 18.2246">
 <g>
  <rect height="18.2246" opacity="0" width="41.1387" x="0" y="0"/>
  <path d="M20.3711 15.9004C24.8555 15.9004 28.3145 12.4277 28.3145 7.9707C28.3145 3.5 24.8555 0.0273438 20.3711 0.0273438C15.9141 0.0273438 12.4551 3.5 12.4551 7.9707C12.4551 12.4277 15.9141 15.9004 20.3711 15.9004ZM20.3711 13.6035C17.2266 13.6035 14.7383 11.1152 14.7383 7.9707C14.7383 4.8125 17.2266 2.32422 20.3711 2.32422C23.543 2.32422 26.0176 4.8125 26.0176 7.9707C26.0176 11.1152 23.543 13.6035 20.3711 13.6035ZM20.3711 12.4551C22.8867 12.4551 24.8691 10.4863 24.8691 7.9707C24.8691 5.45508 22.8867 3.47266 20.3711 3.47266C17.8555 3.47266 15.8867 5.45508 15.8867 7.9707C15.8867 10.4863 17.8555 12.4551 20.3711 12.4551ZM10.8555 7.9707C10.8555 4.59375 12.5234 1.68164 15.0938 0L4.22461 0C1.44922 0 0 1.4082 0 4.16992L0 11.7441C0 14.4922 1.44922 15.9141 4.22461 15.9141L15.0527 15.9141C12.5098 14.2188 10.8555 11.3203 10.8555 7.9707ZM36.5449 0L25.6758 0C28.2324 1.68164 29.9141 4.59375 29.9141 7.9707C29.9141 11.3203 28.2598 14.2188 25.7031 15.9141L36.5449 15.9141C39.3477 15.9141 40.7832 14.4922 40.7832 11.7441L40.7832 4.16992C40.7832 1.4082 39.3477 0 36.5449 0ZM32.3887 5.19531C32.3887 4.63477 32.7852 4.22461 33.3457 4.22461L36.7773 4.22461C37.3379 4.22461 37.748 4.63477 37.748 5.19531C37.748 5.75586 37.3379 6.15234 36.7773 6.15234L33.3457 6.15234C32.7852 6.15234 32.3887 5.75586 32.3887 5.19531ZM32.3887 8.51758C32.3887 7.95703 32.7852 7.56055 33.3457 7.56055L36.7773 7.56055C37.3379 7.56055 37.748 7.95703 37.748 8.51758C37.748 9.07812 37.3379 9.48828 36.7773 9.48828L33.3457 9.48828C32.7852 9.48828 32.3887 9.07812 32.3887 8.51758ZM10.1309 15.0801L3.03516 15.0801L3.03516 17.0898C3.03516 17.7598 3.48633 18.2109 4.15625 18.2109L9.00977 18.2109C9.69336 18.2109 10.1309 17.7598 10.1309 17.0898ZM30.6523 15.0801L30.6523 17.0898C30.6523 17.7598 31.0898 18.2109 31.7734 18.2109L36.6133 18.2109C37.2969 18.2109 37.748 17.7598 37.748 17.0898L37.748 15.0801Z" fill="black" fill-opacity="0.85"/>
 </g>
</svg>
