<?xml version="1.0" encoding="UTF-8"?>
<!--Generator: Apple Native CoreSVG 326-->
<!DOCTYPE svg
PUBLIC "-//W3C//DTD SVG 1.1//EN"
       "http://www.w3.org/Graphics/SVG/1.1/DTD/svg11.dtd">
<svg version="1.1" xmlns="http://www.w3.org/2000/svg" xmlns:xlink="http://www.w3.org/1999/xlink" viewBox="0 0 28.2461 27.9043">
 <g>
  <rect height="27.9043" opacity="0" width="28.2461" x="0" y="0"/>
  <path d="M27.8906 13.9453C27.8906 21.6426 21.6426 27.8906 13.9453 27.8906C6.24805 27.8906 0 21.6426 0 13.9453C0 6.24805 6.24805 0 13.9453 0C21.6426 0 27.8906 6.24805 27.8906 13.9453ZM2.32422 13.9453C2.32422 20.3711 7.51953 25.5664 13.9453 25.5664C20.3711 25.5664 25.5664 20.3711 25.5664 13.9453C25.5664 7.51953 20.3711 2.32422 13.9453 2.32422C7.51953 2.32422 2.32422 7.51953 2.32422 13.9453Z" fill="#28cd41"/>
  <path d="M16.8385 19.067C16.4822 19.3297 16.008 19.4688 15.4355 19.4688L8.20312 19.4688C6.84961 19.4688 6.0293 18.6758 6.0293 17.3223L6.0293 10.5957C6.0293 9.86919 6.28139 9.30812 6.71762 8.94613ZM22.668 10.4316L22.668 17.4727C22.668 18.0469 22.3262 18.4297 21.793 18.4297C21.5469 18.4297 21.2871 18.293 21.041 18.0879L18.375 15.832L18.375 12.0859L21.041 9.81641C21.2734 9.625 21.5469 9.48828 21.793 9.48828C22.3262 9.48828 22.668 9.87109 22.668 10.4316ZM17.6094 10.5957L17.6094 15.3576L10.7071 8.46289L15.5039 8.46289C16.8711 8.46289 17.6094 9.24219 17.6094 10.5957Z" fill="#28cd41"/>
  <path d="M19.7969 20.6445C20.0293 20.877 20.4395 20.8906 20.6719 20.6445C20.918 20.3984 20.918 20.0156 20.6719 19.7695L8.14844 7.23242C7.88867 6.98633 7.50586 6.98633 7.25977 7.23242C7.01367 7.47852 7.01367 7.875 7.25977 8.10742Z" fill="#28cd41"/>
 </g>
</svg>
