<?xml version="1.0" encoding="UTF-8"?>
<!--Generator: Apple Native CoreSVG 326-->
<!DOCTYPE svg
PUBLIC "-//W3C//DTD SVG 1.1//EN"
       "http://www.w3.org/Graphics/SVG/1.1/DTD/svg11.dtd">
<svg version="1.1" xmlns="http://www.w3.org/2000/svg" xmlns:xlink="http://www.w3.org/1999/xlink" viewBox="0 0 30.4883 30.2012">
 <g>
  <rect height="30.2012" opacity="0" width="30.4883" x="0" y="0"/>
  <path d="M30.1328 8.09375L30.1328 18.5664C30.1328 22.5723 27.9453 24.8145 23.8711 24.8145L14.6289 24.8145L9.69336 29.3262C9.05078 29.9277 8.6543 30.2012 8.12109 30.2012C7.3418 30.2012 6.9043 29.6406 6.9043 28.793L6.9043 24.8145L6.26172 24.8145C2.1875 24.8145 0 22.5859 0 18.5664L0 8.09375C0 4.07422 2.1875 1.83203 6.26172 1.83203L23.8711 1.83203C27.9453 1.83203 30.1328 4.08789 30.1328 8.09375ZM9.1875 7.64258C7.84766 7.64258 6.94531 8.44922 6.94531 9.85742L6.94531 16.7891C6.94531 18.1836 7.79297 19.0039 9.1875 19.0039L16.6387 19.0039C18.0469 19.0039 18.8809 18.1836 18.8809 16.7891L18.8809 9.85742C18.8809 8.44922 18.1289 7.64258 16.707 7.64258ZM22.4219 9.03711L19.6738 11.4023L19.6738 15.2441L22.4219 17.5957C22.6816 17.8145 22.9551 17.9375 23.2012 17.9375C23.748 17.9375 24.1035 17.541 24.1035 16.9531L24.1035 9.67969C24.1035 9.10547 23.748 8.72266 23.2012 8.72266C22.9551 8.72266 22.6543 8.8457 22.4219 9.03711Z" fill="black" fill-opacity="0.85"/>
 </g>
</svg>
