<?xml version="1.0" encoding="UTF-8"?>
<!--Generator: Apple Native CoreSVG 326-->
<!DOCTYPE svg
PUBLIC "-//W3C//DTD SVG 1.1//EN"
       "http://www.w3.org/Graphics/SVG/1.1/DTD/svg11.dtd">
<svg version="1.1" xmlns="http://www.w3.org/2000/svg" xmlns:xlink="http://www.w3.org/1999/xlink" viewBox="0 0 32.498 20.1934">
 <g>
  <rect height="20.1934" opacity="0" width="32.498" x="0" y="0"/>
  <path d="M17.6367 19.8652L23.0508 19.8652C28.5469 19.8652 32.1426 15.9414 32.1426 10.0488C32.1426 4.19727 28.5469 0.314453 23.0508 0.314453L17.6367 0.314453C16.8848 0.314453 16.4062 0.806641 16.4062 1.57227L16.4062 18.5938C16.4062 19.373 16.8848 19.8652 17.6367 19.8652ZM18.8809 17.623L18.8809 2.5293L22.8867 2.5293C26.9746 2.5293 29.6133 5.53711 29.6133 10.0625C29.6133 14.6016 26.9746 17.623 22.8867 17.623Z" fill="black" fill-opacity="0.85"/>
  <path d="M1.20312 19.8926L12.5645 19.8926C13.248 19.8926 13.6855 19.4551 13.6855 18.7852C13.6855 18.1289 13.248 17.6914 12.5645 17.6914L3.45898 17.6914L3.45898 17.623L8.79102 12.4277C12.0449 9.26953 13.0156 7.62891 13.0156 5.52344C13.0156 2.39258 10.2266 0 6.52148 0C3.62305 0 1.12109 1.57227 0.300781 3.97852C0.136719 4.44336 0.0683594 4.82617 0.0683594 5.16797C0.0683594 5.85156 0.464844 6.30273 1.13477 6.30273C1.77734 6.30273 2.05078 6.00195 2.25586 5.31836C2.36523 4.89453 2.51562 4.51172 2.73438 4.15625C3.47266 2.93945 4.8125 2.16016 6.52148 2.16016C8.73633 2.16016 10.5 3.71875 10.5 5.66016C10.5 7.23242 9.87109 8.29883 7.16406 10.9648L0.765625 17.3223C0.191406 17.8965 0 18.2383 0 18.7441C0 19.4551 0.478516 19.8926 1.20312 19.8926Z" fill="black" fill-opacity="0.85"/>
 </g>
</svg>
