<?xml version="1.0" encoding="UTF-8"?>
<!--Generator: Apple Native CoreSVG 326-->
<!DOCTYPE svg
PUBLIC "-//W3C//DTD SVG 1.1//EN"
       "http://www.w3.org/Graphics/SVG/1.1/DTD/svg11.dtd">
<svg version="1.1" xmlns="http://www.w3.org/2000/svg" xmlns:xlink="http://www.w3.org/1999/xlink" viewBox="0 0 52.0898 22.0527">
 <g>
  <rect height="22.0527" opacity="0" width="52.0898" x="0" y="0"/>
  <path d="M45.2402 10.9512C45.2402 16.9668 41.4395 21.5469 36.3945 21.5469C31.1992 21.5469 28.4785 17.1445 25.8672 17.1445C23.2422 17.1445 20.5352 21.5469 15.3262 21.5469C11.2562 21.5469 7.98247 18.5497 6.88214 14.2187L9.09436 14.2187C9.97213 17.4566 12.2374 19.3457 15.3262 19.3457C20.1113 19.3457 21.9297 14.9434 25.8672 14.9434C29.8047 14.9434 31.623 19.3457 36.3945 19.3457C40.4277 19.3457 43.0391 16.1465 43.0391 10.9512C43.0391 3.00781 36.3262 2.20117 25.8672 2.20117C16.7441 2.20117 10.4742 2.82368 9.01403 8.23047L6.76532 8.23047C8.26893 0.893438 16.2518 0 25.8672 0C36.5723 0 45.2402 1.09375 45.2402 10.9512Z" fill="black" fill-opacity="0.85"/>
  <path d="M3.00781 12.3047L14.3965 12.3047L16.2559 12.2227L15.4629 12.9746L13.6035 14.6836C13.3848 14.875 13.2754 15.1621 13.2754 15.4219C13.2754 15.9824 13.6855 16.4199 14.2324 16.4199C14.5332 16.4199 14.752 16.2969 14.957 16.0918L18.8945 12.0176C19.1543 11.7441 19.25 11.498 19.25 11.2246C19.25 10.9375 19.1543 10.7051 18.8945 10.4316L14.957 6.34375C14.752 6.13867 14.5332 6.0293 14.2324 6.0293C13.6855 6.0293 13.2754 6.45312 13.2754 7.01367C13.2754 7.28711 13.3848 7.57422 13.6035 7.76562L15.4629 9.47461L16.2559 10.2266L14.3965 10.1445L3.00781 10.1309C2.43359 10.1309 1.95508 10.6367 1.95508 11.2246C1.95508 11.8125 2.43359 12.3047 3.00781 12.3047Z" fill="black" fill-opacity="0.85"/>
 </g>
</svg>
