<?xml version="1.0" encoding="UTF-8"?>
<!--Generator: Apple Native CoreSVG 326-->
<!DOCTYPE svg
PUBLIC "-//W3C//DTD SVG 1.1//EN"
       "http://www.w3.org/Graphics/SVG/1.1/DTD/svg11.dtd">
<svg version="1.1" xmlns="http://www.w3.org/2000/svg" xmlns:xlink="http://www.w3.org/1999/xlink" viewBox="0 0 28.2461 27.9043">
 <g>
  <rect height="27.9043" opacity="0" width="28.2461" x="0" y="0"/>
  <path d="M27.8906 13.9453C27.8906 21.6426 21.6426 27.8906 13.9453 27.8906C6.24805 27.8906 0 21.6426 0 13.9453C0 6.24805 6.24805 0 13.9453 0C21.6426 0 27.8906 6.24805 27.8906 13.9453ZM2.32422 13.9453C2.32422 20.3711 7.51953 25.5664 13.9453 25.5664C20.3711 25.5664 25.5664 20.3711 25.5664 13.9453C25.5664 7.51953 20.3711 2.32422 13.9453 2.32422C7.51953 2.32422 2.32422 7.51953 2.32422 13.9453Z" fill="black" fill-opacity="0.85"/>
  <path d="M8.39017 10.6187C6.94887 11.123 6.16602 12.0859 6.16602 13.8906C6.16602 16.2422 7.24609 17.5684 9.02344 17.5684C10.8499 17.5684 11.7202 15.9088 13.3415 15.57L15.6678 17.8963C14.9867 17.4268 14.4448 16.9941 13.9316 16.9941C12.8242 16.9941 11.5527 19.0586 9.02344 19.0586C6.53516 19.0586 4.68945 16.7891 4.68945 13.8906C4.68945 11.5693 5.6804 10.2486 7.28076 9.50928ZM23.1738 13.8906C23.1738 15.9589 22.234 17.7069 20.7887 18.5335L19.701 17.4469C20.9604 17.0757 21.6973 15.8329 21.6973 13.8906C21.6973 10.418 18.7988 10.0625 13.9316 10.0625C13.3693 10.0625 12.8332 10.0672 12.328 10.082L10.9237 8.67924C11.8674 8.59549 12.8816 8.57227 13.9316 8.57227C18.9629 8.57227 23.1738 9.10547 23.1738 13.8906Z" fill="black" fill-opacity="0.85"/>
  <path d="M19.7969 20.6445C20.0293 20.877 20.4395 20.8906 20.6719 20.6445C20.918 20.3984 20.918 20.0156 20.6719 19.7695L8.14844 7.23242C7.88867 6.98633 7.50586 6.98633 7.25977 7.23242C7.01367 7.47852 7.01367 7.875 7.25977 8.10742Z" fill="black" fill-opacity="0.85"/>
 </g>
</svg>
