<?xml version="1.0" encoding="UTF-8"?>
<!--Generator: Apple Native CoreSVG 326-->
<!DOCTYPE svg
PUBLIC "-//W3C//DTD SVG 1.1//EN"
       "http://www.w3.org/Graphics/SVG/1.1/DTD/svg11.dtd">
<svg version="1.1" xmlns="http://www.w3.org/2000/svg" xmlns:xlink="http://www.w3.org/1999/xlink" viewBox="0 0 28.2461 27.9043">
 <g>
  <rect height="27.9043" opacity="0" width="28.2461" x="0" y="0"/>
  <path d="M13.9453 27.8906C21.6426 27.8906 27.8906 21.6289 27.8906 13.9453C27.8906 6.24805 21.6426 0 13.9453 0C6.26172 0 0 6.24805 0 13.9453C0 21.6289 6.26172 27.8906 13.9453 27.8906Z" fill="black" fill-opacity="0.85"/>
  <path d="M7.94336 7.01367L20.877 19.9609C21.123 20.207 21.123 20.6035 20.877 20.8633C20.6309 21.1094 20.207 21.0957 19.9746 20.8633L7.02734 7.91602C6.79492 7.68359 6.78125 7.27344 7.02734 7.01367C7.28711 6.76758 7.69727 6.76758 7.94336 7.01367ZM8.22249 10.531C6.74742 11.0517 5.94727 12.0417 5.94727 13.8906C5.94727 16.3105 7.05469 17.6777 8.88672 17.6777C10.7664 17.6777 11.6545 15.9778 13.3142 15.6173L15.7013 18.002C15.0131 17.5247 14.4639 17.0898 13.9453 17.0898C12.8105 17.0898 11.498 19.2227 8.88672 19.2227C6.31641 19.2227 4.41602 16.8848 4.41602 13.8906C4.41602 11.5068 5.43341 10.1468 7.0739 9.38365ZM23.4746 13.8906C23.4746 16.0263 22.5078 17.828 21.0177 18.6804L19.8891 17.553C21.1871 17.1712 21.9434 15.8903 21.9434 13.8906C21.9434 10.3223 18.9629 9.95312 13.9453 9.95312C13.3688 9.95312 12.8191 9.958 12.3012 9.97308L10.8453 8.51876C11.8189 8.43212 12.8645 8.4082 13.9453 8.4082C19.127 8.4082 23.4746 8.95508 23.4746 13.8906Z" fill="white"/>
 </g>
</svg>
