<?xml version="1.0" encoding="UTF-8"?>
<!--Generator: Apple Native CoreSVG 326-->
<!DOCTYPE svg
PUBLIC "-//W3C//DTD SVG 1.1//EN"
       "http://www.w3.org/Graphics/SVG/1.1/DTD/svg11.dtd">
<svg version="1.1" xmlns="http://www.w3.org/2000/svg" xmlns:xlink="http://www.w3.org/1999/xlink" viewBox="0 0 48.1797 22.0527">
 <g>
  <rect height="22.0527" opacity="0" width="48.1797" x="0" y="0"/>
  <path d="M1.05273 12.3047C0.478516 12.3047 0 11.8125 0 11.2246C0 10.6367 0.478516 10.1309 1.05273 10.1309L12.4414 10.1445L14.3008 10.2266L13.5078 9.47461L11.6484 7.76562C11.4297 7.57422 11.3203 7.28711 11.3203 7.01367C11.3203 6.45312 11.7305 6.0293 12.2773 6.0293C12.5781 6.0293 12.7969 6.13867 13.002 6.34375L16.9395 10.4316C17.1992 10.7051 17.2949 10.9375 17.2949 11.2246C17.2949 11.498 17.1992 11.7441 16.9395 12.0176L13.002 16.0918C12.7969 16.2969 12.5781 16.4199 12.2773 16.4199C11.7305 16.4199 11.3203 15.9824 11.3203 15.4219C11.3203 15.1621 11.4297 14.875 11.6484 14.6836L13.5078 12.9746L14.3008 12.2227L12.4414 12.3047ZM23.9121 17.1445C26.5234 17.1445 29.2441 21.5469 34.4395 21.5469C39.4844 21.5469 43.2852 16.9668 43.2852 10.9512C43.2852 1.09375 34.6172 0 23.9121 0C13.207 0 4.52539 1.10742 4.52539 10.9512C4.52539 16.9668 8.33984 21.5469 13.3711 21.5469C18.5801 21.5469 21.2871 17.1445 23.9121 17.1445Z" fill="black" fill-opacity="0.85"/>
 </g>
</svg>
