<?xml version="1.0" encoding="UTF-8"?>
<!--Generator: Apple Native CoreSVG 326-->
<!DOCTYPE svg
PUBLIC "-//W3C//DTD SVG 1.1//EN"
       "http://www.w3.org/Graphics/SVG/1.1/DTD/svg11.dtd">
<svg version="1.1" xmlns="http://www.w3.org/2000/svg" xmlns:xlink="http://www.w3.org/1999/xlink" viewBox="0 0 28.2461 27.9043">
 <g>
  <rect height="27.9043" opacity="0" width="28.2461" x="0" y="0"/>
  <path d="M13.9453 27.8906C21.6426 27.8906 27.8906 21.6426 27.8906 13.9453C27.8906 6.24805 21.6426 0 13.9453 0C6.24805 0 0 6.24805 0 13.9453C0 21.6426 6.24805 27.8906 13.9453 27.8906ZM13.9453 25.5664C7.51953 25.5664 2.32422 20.3711 2.32422 13.9453C2.32422 7.51953 7.51953 2.32422 13.9453 2.32422C20.3711 2.32422 25.5664 7.51953 25.5664 13.9453C25.5664 20.3711 20.3711 25.5664 13.9453 25.5664Z" fill="black" fill-opacity="0.85"/>
  <path d="M13.9453 5.50977C9.2832 5.50977 5.50977 9.2832 5.50977 13.9453C5.50977 18.6074 9.2832 22.3809 13.9453 22.3809C18.6074 22.3809 22.3809 18.6074 22.3809 13.9453C22.3809 9.2832 18.6074 5.50977 13.9453 5.50977ZM7.47852 13.9453C7.47852 13.1797 7.61523 12.4277 7.86133 11.7441L20.0566 11.7441C20.3027 12.4277 20.4395 13.1797 20.4395 13.9453C20.4395 17.5273 17.541 20.4258 13.959 20.4258C10.377 20.4258 7.47852 17.5273 7.47852 13.9453ZM8.88672 9.93945C10.0488 8.43555 11.8945 7.46484 13.959 7.46484C16.0234 7.46484 17.8691 8.43555 19.0449 9.93945Z" fill="black" fill-opacity="0.85"/>
 </g>
</svg>
