<?xml version="1.0" encoding="UTF-8"?>
<!--Generator: Apple Native CoreSVG 326-->
<!DOCTYPE svg
PUBLIC "-//W3C//DTD SVG 1.1//EN"
       "http://www.w3.org/Graphics/SVG/1.1/DTD/svg11.dtd">
<svg version="1.1" xmlns="http://www.w3.org/2000/svg" xmlns:xlink="http://www.w3.org/1999/xlink" viewBox="0 0 32.9629 28.2324">
 <g>
  <rect height="28.2324" opacity="0" width="32.9629" x="0" y="0"/>
  <path d="M4.14258 28.2324L26.127 28.2324C28.875 28.2324 30.2559 26.8516 30.2559 24.1582L30.2559 20.207L28.041 20.207L28.041 24.0352C28.041 25.3613 27.3301 26.0176 26.0859 26.0176L4.16992 26.0176C2.91211 26.0176 2.22852 25.3613 2.22852 24.0352L2.22852 10.1309C2.22852 8.81836 2.91211 8.13477 4.16992 8.13477L26.0859 8.13477C27.3301 8.13477 28.041 8.81836 28.041 10.1309L28.041 13.4531L30.2559 13.4531L30.2559 10.0078C30.2559 7.31445 28.875 5.91992 26.127 5.91992L10.9375 5.91992C10.7051 5.91992 10.6777 5.70117 10.9238 5.64648L21.4922 2.7207C22.8047 2.33789 23.4883 2.81641 23.4883 4.01953L23.4883 6.86328L25.7168 6.67188L25.7168 4.21094C25.7168 0.984375 23.502-0.0136719 20.5078 0.847656L2.98047 5.94727C0.929688 6.5625 0 7.80664 0 10.0078L0 24.1582C0 26.8652 1.4082 28.2324 4.14258 28.2324ZM24.9102 18.4297C25.6758 18.4297 26.291 17.8145 26.291 17.0488C26.291 16.2832 25.6758 15.668 24.9102 15.668C24.1445 15.668 23.5293 16.2832 23.5293 17.0488C23.5293 17.8145 24.1445 18.4297 24.9102 18.4297ZM24.7734 21.3555L29.832 21.3555C31.541 21.3555 32.6074 20.1523 32.6074 18.5801L32.6074 15.5449C32.6074 13.9727 31.541 12.7832 29.832 12.7832L24.7734 12.7832C22.0117 12.7832 20.166 14.2051 20.166 17.0625C20.166 19.9336 22.0117 21.3555 24.7734 21.3555ZM24.9102 19.5234C22.9961 19.5234 22.0938 18.5938 22.0938 17.0625C22.0938 15.5312 22.9961 14.6016 24.9102 14.6016L29.3535 14.6016C30.2969 14.6016 30.7891 15.1348 30.7891 16.0234L30.7891 18.1016C30.7891 18.9902 30.2969 19.5234 29.3535 19.5234Z" fill="black" fill-opacity="0.85"/>
 </g>
</svg>
