<?xml version="1.0" encoding="UTF-8"?>
<!--Generator: Apple Native CoreSVG 326-->
<!DOCTYPE svg
PUBLIC "-//W3C//DTD SVG 1.1//EN"
       "http://www.w3.org/Graphics/SVG/1.1/DTD/svg11.dtd">
<svg version="1.1" xmlns="http://www.w3.org/2000/svg" xmlns:xlink="http://www.w3.org/1999/xlink" viewBox="0 0 28.752 28.8887">
 <g>
  <rect height="28.8887" opacity="0" width="28.752" x="0" y="0"/>
  <path d="M19.127 9.89844C19.3184 9.89844 19.4688 9.76172 19.5098 9.55664C20.1113 6.48047 20.5215 5.81055 23.707 5.3457C23.9258 5.31836 24.0625 5.1543 24.0625 4.96289C24.0625 4.74414 23.9258 4.58008 23.707 4.55273C20.5215 4.08789 19.9746 3.34961 19.5098 0.369141C19.4688 0.136719 19.3184 0 19.127 0C18.9082 0 18.7578 0.136719 18.7168 0.355469C18.1152 3.4043 17.7051 4.08789 14.5332 4.55273C14.3008 4.58008 14.1641 4.74414 14.1641 4.96289C14.1641 5.1543 14.3008 5.30469 14.5332 5.3457C17.7051 5.81055 18.2383 6.48047 18.7168 9.54297C18.7441 9.76172 18.8809 9.89844 19.127 9.89844ZM3.88281 21.1094C4.08789 21.1094 4.22461 20.9727 4.25195 20.7812C4.66211 18.2109 4.66211 18.0195 7.45117 17.582C7.64258 17.5547 7.7793 17.4316 7.7793 17.2266C7.7793 17.0215 7.64258 16.8984 7.45117 16.8711C4.66211 16.4336 4.66211 16.2422 4.25195 13.6719C4.22461 13.4805 4.08789 13.3438 3.88281 13.3438C3.69141 13.3438 3.55469 13.4805 3.52734 13.6719C3.11719 16.2422 3.11719 16.4336 0.328125 16.8711C0.136719 16.8984 0 17.0215 0 17.2266C0 17.4316 0.136719 17.5547 0.328125 17.582C3.11719 18.0195 3.11719 18.2109 3.52734 20.7812C3.55469 20.9727 3.69141 21.1094 3.88281 21.1094ZM8.44922 24.9648C8.61328 24.9648 8.72266 24.8418 8.76367 24.6777C9.00977 23.1602 8.94141 23.0918 10.6777 22.7773C10.8418 22.7363 10.9512 22.6133 10.9512 22.4629C10.9512 22.3125 10.8418 22.1758 10.6777 22.1484C8.95508 21.834 9.03711 21.793 8.76367 20.2344C8.72266 20.084 8.59961 19.9609 8.44922 19.9609C8.28516 19.9609 8.17578 20.084 8.13477 20.2617C7.80664 21.793 7.94336 21.875 6.23438 22.1484C6.05664 22.1758 5.94727 22.2988 5.94727 22.4629C5.94727 22.6133 6.05664 22.7363 6.2207 22.7773C7.94336 23.0918 7.80664 23.1602 8.13477 24.6777C8.17578 24.8418 8.28516 24.9648 8.44922 24.9648Z" fill="black" fill-opacity="0.85"/>
  <path d="M26.373 26.4961C26.9609 25.8809 26.9609 24.9512 26.3594 24.3359L8.88672 6.84961C8.28516 6.23438 7.28711 6.23438 6.71289 6.84961C6.125 7.46484 6.125 8.39453 6.72656 9.00977L24.1992 26.4961C24.8008 27.1113 25.7988 27.0977 26.373 26.4961ZM25.5801 25.6895C25.3887 25.8809 25.0879 25.8809 24.8965 25.6895L12.373 13.166L13.0566 12.4961L25.5801 25.0195C25.7715 25.2109 25.7715 25.498 25.5801 25.6895Z" fill="black" fill-opacity="0.85"/>
 </g>
</svg>
