<?xml version="1.0" encoding="UTF-8"?>
<!--Generator: Apple Native CoreSVG 326-->
<!DOCTYPE svg
PUBLIC "-//W3C//DTD SVG 1.1//EN"
       "http://www.w3.org/Graphics/SVG/1.1/DTD/svg11.dtd">
<svg version="1.1" xmlns="http://www.w3.org/2000/svg" xmlns:xlink="http://www.w3.org/1999/xlink" viewBox="0 0 35.7656 35.3965">
 <g>
  <rect height="35.3965" opacity="0" width="35.7656" x="0" y="0"/>
  <path d="M12.7012 9.91211L14.7793 9.91211L14.7793 5.50977C14.7793 4.94922 15.0801 4.64844 15.6543 4.64844L19.7832 4.64844C20.3574 4.64844 20.6582 4.94922 20.6582 5.50977L20.6582 9.91211L22.7363 9.91211L22.7363 5.33203C22.7363 3.60938 21.6973 2.57031 19.9746 2.57031L15.4629 2.57031C13.7402 2.57031 12.7012 3.60938 12.7012 5.33203ZM17.6914 27.8633C23.2422 27.8633 27.8633 23.2422 27.8633 17.6914C27.8633 12.1406 23.2559 7.51953 17.7051 7.51953C12.1406 7.51953 7.51953 12.1406 7.51953 17.6914C7.51953 23.2422 12.1406 27.8633 17.6914 27.8633ZM17.7188 25.6621C13.3711 25.6621 9.74805 22.0391 9.74805 17.6914C9.74805 13.3574 13.3711 9.7207 17.7051 9.7207C22.0527 9.7207 25.6895 13.3438 25.6895 17.6914C25.6895 22.0391 22.0664 25.6621 17.7188 25.6621ZM28.1367 8.92773L30.2148 6.83594C30.666 6.38477 30.666 5.61914 30.2148 5.16797C29.7637 4.7168 29.0117 4.7168 28.5605 5.16797L26.4551 7.25977C26.0039 7.69727 26.0039 8.47656 26.4551 8.92773C26.9062 9.37891 27.6855 9.37891 28.1367 8.92773ZM31.2812 18.8672L34.2207 18.8672C34.8633 18.8672 35.4102 18.334 35.4102 17.6914C35.4102 17.0488 34.8633 16.502 34.2207 16.502L31.2812 16.502C30.6387 16.502 30.0918 17.0488 30.0918 17.6914C30.0918 18.334 30.6387 18.8672 31.2812 18.8672ZM26.4551 28.123L28.5605 30.2012C29.0117 30.6523 29.7637 30.6523 30.2148 30.2012C30.666 29.75 30.666 28.9844 30.2148 28.5469L28.1367 26.4414C27.6855 25.9902 26.9062 25.9902 26.4551 26.4414C26.0039 26.8926 26.0039 27.6719 26.4551 28.123ZM18.9082 31.2676C18.9082 30.625 18.3613 30.0918 17.7188 30.0918C17.0762 30.0918 16.543 30.625 16.543 31.2676L16.543 34.2207C16.543 34.8633 17.0762 35.3965 17.7188 35.3965C18.3613 35.3965 18.9082 34.8633 18.9082 34.2207ZM8.94141 28.123C9.39258 27.6719 9.39258 26.8926 8.94141 26.4414C8.49023 25.9902 7.72461 25.9902 7.27344 26.4414L5.18164 28.5469C4.73047 28.9844 4.73047 29.75 5.18164 30.2012C5.63281 30.6523 6.39844 30.6523 6.84961 30.2012ZM4.12891 18.8672C4.77148 18.8672 5.31836 18.334 5.31836 17.6914C5.31836 17.0488 4.77148 16.502 4.12891 16.502L1.17578 16.502C0.533203 16.502 0 17.0488 0 17.6914C0 18.334 0.533203 18.8672 1.17578 18.8672ZM7.27344 8.92773C7.72461 9.37891 8.49023 9.37891 8.94141 8.92773C9.39258 8.47656 9.39258 7.69727 8.94141 7.25977L6.84961 5.16797C6.39844 4.7168 5.63281 4.7168 5.18164 5.16797C4.73047 5.61914 4.73047 6.38477 5.18164 6.83594Z" fill="black" fill-opacity="0.85"/>
 </g>
</svg>
