<?xml version="1.0" encoding="UTF-8"?>
<!--Generator: Apple Native CoreSVG 326-->
<!DOCTYPE svg
PUBLIC "-//W3C//DTD SVG 1.1//EN"
       "http://www.w3.org/Graphics/SVG/1.1/DTD/svg11.dtd">
<svg version="1.1" xmlns="http://www.w3.org/2000/svg" xmlns:xlink="http://www.w3.org/1999/xlink" viewBox="0 0 29.0938 28.2598">
 <g>
  <rect height="28.2598" opacity="0" width="29.0938" x="0" y="0"/>
  <path d="M24.377 13.1797C25.4023 13.918 26.2227 14.5195 27.6992 14.5195L27.7676 14.5195C28.3008 14.5195 28.7383 14.957 28.7383 15.4902C28.7383 16.0234 28.3008 16.4473 27.7676 16.4473L27.6992 16.4473C23.4336 16.4473 23.0781 13.6719 20.8633 13.6719C20.3319 13.6719 19.8945 13.8377 19.483 14.0897L18.2992 12.5404C19.0013 12.106 19.836 11.7441 20.8633 11.7441C22.3809 11.7441 23.4883 12.5371 24.377 13.1797ZM10.4216 12.5295L9.23743 14.0809C8.8318 13.8335 8.39958 13.6719 7.875 13.6719C5.66016 13.6719 5.29102 16.4473 1.03906 16.4473L0.970703 16.4473C0.423828 16.4473 0 16.0234 0 15.4902C0 14.957 0.423828 14.5195 0.970703 14.5195L1.03906 14.5195C2.50195 14.5195 3.33594 13.918 4.36133 13.1797C5.25 12.5371 6.35742 11.7441 7.875 11.7441C8.89372 11.7441 9.72304 12.1 10.4216 12.5295Z" fill="black" fill-opacity="0.85"/>
  <path d="M24.377 4.92188C25.4023 5.64648 26.2227 6.26172 27.6992 6.26172L27.7676 6.26172C28.3008 6.26172 28.7383 6.68555 28.7383 7.21875C28.7383 7.75195 28.3008 8.18945 27.7676 8.18945L27.6992 8.18945C23.4336 8.18945 23.0781 5.41406 20.8633 5.41406C18.6895 5.41406 18.0879 8.18945 14.3691 8.18945C10.6367 8.18945 10.0488 5.41406 7.875 5.41406C5.66016 5.41406 5.29102 8.18945 1.03906 8.18945L0.970703 8.18945C0.423828 8.18945 0 7.75195 0 7.21875C0 6.68555 0.423828 6.26172 0.970703 6.26172L1.03906 6.26172C2.50195 6.26172 3.33594 5.64648 4.36133 4.92188C5.25 4.2793 6.35742 3.48633 7.875 3.48633C9.44727 3.48633 10.5684 4.32031 11.457 4.99023C12.4004 5.70117 13.1387 6.26172 14.3691 6.26172C15.5859 6.26172 16.3379 5.70117 17.2812 4.99023C18.1699 4.32031 19.291 3.48633 20.8633 3.48633C22.3809 3.48633 23.4883 4.2793 24.377 4.92188Z" fill="black" fill-opacity="0.85"/>
  <path d="M10.7598 17.1582L13.2754 17.1582L13.2754 25.6074C13.2754 26.1816 13.7676 26.6738 14.3555 26.6738C14.9434 26.6738 15.4492 26.1816 15.4492 25.6074L15.4492 17.1582L17.9512 17.1582C18.8125 17.1582 19.168 16.3105 18.6758 15.668L15.1621 11.0605C14.6699 10.4316 14.0547 10.418 13.5488 11.0605L10.0352 15.6543C9.5293 16.3105 9.88477 17.1582 10.7598 17.1582Z" fill="black" fill-opacity="0.85"/>
 </g>
</svg>
