<?xml version="1.0" encoding="UTF-8"?>
<!--Generator: Apple Native CoreSVG 326-->
<!DOCTYPE svg
PUBLIC "-//W3C//DTD SVG 1.1//EN"
       "http://www.w3.org/Graphics/SVG/1.1/DTD/svg11.dtd">
<svg version="1.1" xmlns="http://www.w3.org/2000/svg" xmlns:xlink="http://www.w3.org/1999/xlink" viewBox="0 0 20.0977 32.5108">
 <g>
  <rect height="32.5108" opacity="0" width="20.0977" x="0" y="0"/>
  <path d="M0 16.2622C0 22.0318 1.80469 27.4185 5.00391 31.8892C6.04297 33.3111 7.98438 32.0396 6.94531 30.6177C3.95117 26.5025 2.35156 21.5533 2.35156 16.2622C2.35156 10.9712 3.95117 6.00833 6.94531 1.8931C8.01172 0.457549 5.98828-0.745576 5.00391 0.635283C1.80469 5.09231 0 10.479 0 16.2622Z" fill="black" fill-opacity="0.85"/>
  <path d="M7.45117 16.2622C7.45117 20.5552 8.80469 24.5747 11.2383 27.8423C12.3184 29.3189 14.2324 27.9107 13.1934 26.5708C10.9785 23.645 9.78906 20.0767 9.78906 16.2622C9.78906 12.4478 10.9785 8.87942 13.1934 5.95364C14.2324 4.6138 12.3184 3.2056 11.2383 4.66849C8.80469 7.93606 7.45117 11.9693 7.45117 16.2622Z" fill="black" fill-opacity="0.85"/>
  <path d="M14.875 16.2622C14.875 19.0786 15.8457 21.7036 17.5684 23.7408C18.6895 25.0669 20.3438 23.563 19.5098 22.4829C17.8555 20.4048 17.2129 18.6685 17.2129 16.2622C17.2129 13.856 17.8555 12.1197 19.5098 10.0415C20.3438 8.94778 18.7031 7.4302 17.5684 8.77005C15.8457 10.8208 14.875 13.4458 14.875 16.2622Z" fill="black" fill-opacity="0.85"/>
 </g>
</svg>
