<?xml version="1.0" encoding="UTF-8"?>
<!--Generator: Apple Native CoreSVG 326-->
<!DOCTYPE svg
PUBLIC "-//W3C//DTD SVG 1.1//EN"
       "http://www.w3.org/Graphics/SVG/1.1/DTD/svg11.dtd">
<svg version="1.1" xmlns="http://www.w3.org/2000/svg" xmlns:xlink="http://www.w3.org/1999/xlink" viewBox="0 0 28.2461 27.9043">
 <g>
  <rect height="27.9043" opacity="0" width="28.2461" x="0" y="0"/>
  <path d="M13.9453 27.9043C21.6426 27.9043 27.8906 21.6562 27.8906 13.959C27.8906 6.27539 21.6426 0.0136719 13.9453 0.0136719C6.26172 0.0136719 0 6.27539 0 13.959C0 21.6562 6.26172 27.9043 13.9453 27.9043Z" fill="black" fill-opacity="0.85"/>
  <path d="M19.8652 13.959C19.8652 17.1855 18.9219 20.3301 17.1855 22.791C16.8438 23.2695 16.2559 23.3789 15.832 23.0781C15.3809 22.7363 15.2988 22.1621 15.627 21.6973C17.1309 19.5645 17.9648 16.7891 17.9648 13.959C17.9648 11.0879 17.1445 8.33984 15.627 6.2207C15.2988 5.74219 15.3809 5.16797 15.832 4.83984C16.2695 4.51172 16.8574 4.62109 17.1855 5.11328C18.9219 7.61523 19.8652 10.7324 19.8652 13.959Z" fill="white"/>
  <path d="M15.4629 13.959C15.4629 16.2969 14.7656 18.5801 13.5078 20.3438C13.166 20.7949 12.6055 20.918 12.168 20.5898C11.7305 20.2891 11.6211 19.6875 11.9629 19.1953C12.9609 17.8145 13.5352 15.9141 13.5352 13.959C13.5352 11.9902 12.9609 10.0898 11.9629 8.70898C11.6211 8.2168 11.7305 7.61523 12.168 7.31445C12.6055 7 13.166 7.10938 13.5078 7.57422C14.7656 9.2832 15.4629 11.5664 15.4629 13.959Z" fill="white"/>
  <path d="M11.0469 13.959C11.0469 15.4355 10.6094 16.8984 9.87109 17.8828C9.55664 18.3203 8.96875 18.4434 8.53125 18.1426C8.05273 17.7871 7.95703 17.1992 8.3125 16.6934C8.81836 15.9961 9.11914 14.9844 9.11914 13.959C9.11914 12.8926 8.81836 11.8809 8.3125 11.2109C7.94336 10.7051 8.03906 10.0898 8.53125 9.74805C8.96875 9.46094 9.54297 9.58398 9.87109 10.0078C10.6094 11.0605 11.0469 12.5234 11.0469 13.959Z" fill="white"/>
 </g>
</svg>
