<?xml version="1.0" encoding="UTF-8"?>
<!--Generator: Apple Native CoreSVG 326-->
<!DOCTYPE svg
PUBLIC "-//W3C//DTD SVG 1.1//EN"
       "http://www.w3.org/Graphics/SVG/1.1/DTD/svg11.dtd">
<svg version="1.1" xmlns="http://www.w3.org/2000/svg" xmlns:xlink="http://www.w3.org/1999/xlink" viewBox="0 0 32.5938 25.1699">
 <g>
  <rect height="25.1699" opacity="0" width="32.5938" x="0" y="0"/>
  <path d="M4.29297 25.1699L27.9453 25.1699C30.8164 25.1699 32.2383 23.7617 32.2383 20.9453L32.2383 4.23828C32.2383 1.42188 30.8164 0 27.9453 0L4.29297 0C1.43555 0 0 1.42188 0 4.23828L0 20.9453C0 23.7617 1.43555 25.1699 4.29297 25.1699ZM4.32031 22.9688C2.95312 22.9688 2.20117 22.2441 2.20117 20.8223L2.20117 4.36133C2.20117 2.93945 2.95312 2.20117 4.32031 2.20117L27.918 2.20117C29.2715 2.20117 30.0371 2.93945 30.0371 4.36133L30.0371 20.8223C30.0371 22.2441 29.2715 22.9688 27.918 22.9688Z" fill="black" fill-opacity="0.25"/>
  <path d="M2.21484 13.7812L5.49609 13.7812C6.05664 13.7812 6.31641 13.5215 6.50781 13.043L8.24414 8.8457L11.416 19.0312C11.6484 19.7832 12.8652 19.7695 13.1113 18.9902L14.7656 13.7812L17.9922 13.7812C18.5527 13.7812 18.7988 13.5215 19.0039 13.043L20.7949 8.8457L23.9805 19.0312C24.2129 19.7832 25.4297 19.7695 25.6621 18.9902L27.3301 13.7812L30.0508 13.7812L30.0508 12.0176L26.8379 12.0176C26.2773 12.0176 25.9902 12.291 25.8262 12.7559L24.8145 15.6133L21.6289 5.98828C21.3828 5.25 20.2754 5.25 19.9609 6.0293L17.5 12.0176L14.2734 12.0176C13.7266 12.0176 13.4395 12.291 13.2617 12.7559L12.25 15.6133L9.06445 5.98828C8.83203 5.25 7.71094 5.25 7.39648 6.0293L4.93555 12.0176L2.21484 12.0176Z" fill="#ff2d55"/>
 </g>
</svg>
