<?xml version="1.0" encoding="UTF-8"?>
<!--Generator: Apple Native CoreSVG 326-->
<!DOCTYPE svg
PUBLIC "-//W3C//DTD SVG 1.1//EN"
       "http://www.w3.org/Graphics/SVG/1.1/DTD/svg11.dtd">
<svg version="1.1" xmlns="http://www.w3.org/2000/svg" xmlns:xlink="http://www.w3.org/1999/xlink" viewBox="0 0 32.0708 29.856">
 <g>
  <rect height="29.856" opacity="0" width="32.0708" x="0" y="0"/>
  <path d="M28.4563 11.6672L28.4563 18.1887C28.4563 18.7903 27.9778 19.2825 27.3489 19.2825C26.72 19.2825 26.2551 18.7903 26.2551 18.1887L26.2551 11.6672C26.2551 11.0657 26.72 10.5598 27.3489 10.5598C27.9778 10.5598 28.4563 11.0657 28.4563 11.6672Z" fill="black" fill-opacity="0.85"/>
  <path d="M23.8626 4.77662L23.8626 17.8647L21.6614 15.6648L21.6614 4.77662C21.6614 4.17506 22.1262 3.6692 22.7551 3.6692C23.3704 3.6692 23.8626 4.17506 23.8626 4.77662Z" fill="black" fill-opacity="0.85"/>
  <path d="M19.2551 20.7637L19.2551 22.1262C19.2551 22.7415 18.7766 23.22 18.1614 23.22C17.5188 23.22 17.054 22.7415 17.054 22.1262L17.054 18.5637ZM19.2551 8.9192L19.2551 13.2599L17.054 11.06L17.054 8.9192C17.054 8.30396 17.5188 7.81178 18.1614 7.81178C18.7766 7.81178 19.2551 8.30396 19.2551 8.9192Z" fill="black" fill-opacity="0.85"/>
  <path d="M14.6614 16.1725L14.6614 28.1008C14.6614 28.7161 14.1829 29.2083 13.5403 29.2083C12.9251 29.2083 12.4602 28.7161 12.4602 28.1008L12.4602 13.9725ZM14.6614 1.75514L14.6614 8.66871L12.4602 6.46876L12.4602 1.75514C12.4602 1.1399 12.9251 0.647713 13.5403 0.647713C14.1829 0.647713 14.6614 1.1399 14.6614 1.75514Z" fill="black" fill-opacity="0.85"/>
  <path d="M10.0676 11.5813L10.0676 22.5911C10.0676 23.2063 9.57545 23.6985 8.94654 23.6985C8.33131 23.6985 7.86646 23.2063 7.86646 22.5911L7.86646 9.38134Z" fill="black" fill-opacity="0.85"/>
  <path d="M5.46021 12.8567L5.46021 16.9993C5.46021 17.6145 4.9817 18.1067 4.35279 18.1067C3.72389 18.1067 3.25904 17.6145 3.25904 16.9993L3.25904 12.8567C3.25904 12.2415 3.72389 11.7356 4.35279 11.7356C4.9817 11.7356 5.46021 12.2415 5.46021 12.8567Z" fill="black" fill-opacity="0.85"/>
  <path d="M28.6751 27.9231C29.0852 28.3333 29.7688 28.3333 30.1653 27.9231C30.5754 27.4993 30.5754 26.843 30.1653 26.4329L5.65162 1.90553C5.24146 1.49537 4.55787 1.49537 4.14771 1.90553C3.73756 2.30201 3.73756 2.99928 4.14771 3.39576Z" fill="black" fill-opacity="0.85"/>
 </g>
</svg>
