<?xml version="1.0" encoding="UTF-8"?>
<!--Generator: Apple Native CoreSVG 326-->
<!DOCTYPE svg
PUBLIC "-//W3C//DTD SVG 1.1//EN"
       "http://www.w3.org/Graphics/SVG/1.1/DTD/svg11.dtd">
<svg version="1.1" xmlns="http://www.w3.org/2000/svg" xmlns:xlink="http://www.w3.org/1999/xlink" viewBox="0 0 32.5938 25.1699">
 <g>
  <rect height="25.1699" opacity="0" width="32.5938" x="0" y="0"/>
  <path d="M0 13.7949L0 12.0312L4.93555 12.0312L7.38281 6.04297C7.71094 5.25 8.81836 5.26367 9.06445 6.00195L12.2363 15.627L13.2617 12.7695C13.4258 12.291 13.7129 12.0312 14.2734 12.0312L17.4863 12.0312L19.9473 6.04297C20.2617 5.25 21.3828 5.26367 21.6152 6.00195L24.8008 15.627L25.8125 12.7695C25.9902 12.291 26.2773 12.0312 26.8242 12.0312L32.2383 12.0312L32.2383 13.7949L27.3164 13.7949L25.6621 19.0039C25.416 19.7695 24.1992 19.7969 23.9668 19.0449L20.7949 8.85938L18.9902 13.0566C18.7988 13.5352 18.5391 13.7949 17.9785 13.7949L14.752 13.7949L13.0977 19.0039C12.8516 19.7695 11.6484 19.7969 11.416 19.0449L8.23047 8.85938L6.50781 13.0566C6.30273 13.5352 6.04297 13.7949 5.22266 13.7949ZM4.29297 25.1699L27.9453 25.1699C30.8164 25.1699 32.2383 23.7617 32.2383 20.9453L32.2383 4.23828C32.2383 1.42188 30.8164 0 27.9453 0L4.29297 0C1.43555 0 0 1.42188 0 4.23828L0 20.9453C0 23.7617 1.43555 25.1699 4.29297 25.1699Z" fill="black" fill-opacity="0.85"/>
 </g>
</svg>
