<?xml version="1.0" encoding="UTF-8"?>
<!--Generator: Apple Native CoreSVG 326-->
<!DOCTYPE svg
PUBLIC "-//W3C//DTD SVG 1.1//EN"
       "http://www.w3.org/Graphics/SVG/1.1/DTD/svg11.dtd">
<svg version="1.1" xmlns="http://www.w3.org/2000/svg" xmlns:xlink="http://www.w3.org/1999/xlink" viewBox="0 0 28.2461 27.9043">
 <g>
  <rect height="27.9043" opacity="0" width="28.2461" x="0" y="0"/>
  <path d="M13.9453 27.8906C21.6426 27.8906 27.8906 21.6426 27.8906 13.9453C27.8906 6.24805 21.6426 0 13.9453 0C6.24805 0 0 6.24805 0 13.9453C0 21.6426 6.24805 27.8906 13.9453 27.8906ZM13.9453 25.5664C7.51953 25.5664 2.32422 20.3711 2.32422 13.9453C2.32422 7.51953 7.51953 2.32422 13.9453 2.32422C20.3711 2.32422 25.5664 7.51953 25.5664 13.9453C25.5664 20.3711 20.3711 25.5664 13.9453 25.5664Z" fill="black" fill-opacity="0.85"/>
  <path d="M19.6738 13.9316C19.6738 10.8145 18.7441 7.7793 17.0762 5.35938C16.748 4.89453 16.1875 4.78516 15.75 5.08594C15.3125 5.40039 15.2441 5.97461 15.5723 6.42578C17.0215 8.49023 17.8418 11.1562 17.8418 13.9316C17.8418 16.6797 17.0078 19.3867 15.5723 21.4375C15.2441 21.9023 15.3125 22.4629 15.75 22.7773C16.1738 23.0781 16.7344 22.9551 17.0762 22.5176C18.7441 20.1113 19.6738 17.0762 19.6738 13.9316Z" fill="black" fill-opacity="0.85"/>
  <path d="M15.3945 13.9316C15.3945 11.6074 14.7246 9.40625 13.5078 7.73828C13.1797 7.30078 12.6328 7.19141 12.1953 7.50586C11.7852 7.79297 11.6895 8.36719 12.0176 8.8457C12.9883 10.1855 13.5352 12.0312 13.5352 13.9316C13.5352 15.8457 12.9883 17.6914 12.0176 19.0312C11.6895 19.5098 11.7852 20.084 12.1953 20.3711C12.6328 20.6719 13.1797 20.5762 13.5078 20.125C14.7246 18.4297 15.3945 16.2148 15.3945 13.9316Z" fill="black" fill-opacity="0.85"/>
  <path d="M11.1152 13.9316C11.1152 12.5371 10.6914 11.1289 9.9668 10.1172C9.65234 9.70703 9.0918 9.58398 8.66797 9.85742C8.18945 10.1855 8.10742 10.7871 8.47656 11.2793C8.96875 11.9082 9.25586 12.9062 9.25586 13.9316C9.25586 14.9297 8.96875 15.9277 8.47656 16.5977C8.12109 17.0898 8.20312 17.6641 8.66797 18.0059C9.0918 18.293 9.66602 18.1699 9.9668 17.7461C10.6914 16.7891 11.1152 15.3672 11.1152 13.9316Z" fill="black" fill-opacity="0.85"/>
 </g>
</svg>
