<?xml version="1.0" encoding="UTF-8"?>
<!--Generator: Apple Native CoreSVG 326-->
<!DOCTYPE svg
PUBLIC "-//W3C//DTD SVG 1.1//EN"
       "http://www.w3.org/Graphics/SVG/1.1/DTD/svg11.dtd">
<svg version="1.1" xmlns="http://www.w3.org/2000/svg" xmlns:xlink="http://www.w3.org/1999/xlink" viewBox="0 0 28.2461 27.9043">
 <g>
  <rect height="27.9043" opacity="0" width="28.2461" x="0" y="0"/>
  <path d="M13.9453 27.9043C21.6426 27.9043 27.8906 21.6562 27.8906 13.959C27.8906 6.27539 21.6426 0.0136719 13.9453 0.0136719C6.26172 0.0136719 0 6.27539 0 13.959C0 21.6562 6.26172 27.9043 13.9453 27.9043Z" fill="black" fill-opacity="0.85"/>
  <path d="M21.1094 16.5977C20.6172 16.5977 20.248 16.2285 20.248 15.75L20.248 12.1543C20.248 11.6758 20.6172 11.293 21.1094 11.293C21.5879 11.293 21.9434 11.6621 21.9434 12.1543L21.9434 15.75C21.9434 16.2422 21.5879 16.5977 21.1094 16.5977Z" fill="white"/>
  <path d="M18.2383 19.7832C17.7461 19.7832 17.377 19.4141 17.377 18.9492L17.377 8.95508C17.377 8.49023 17.7461 8.10742 18.2383 8.10742C18.7168 8.10742 19.0859 8.49023 19.0859 8.95508L19.0859 18.9492C19.0859 19.4141 18.7168 19.7832 18.2383 19.7832Z" fill="white"/>
  <path d="M15.3672 17.1582C14.9023 17.1582 14.5195 16.7891 14.5195 16.3105L14.5195 11.5801C14.5195 11.1152 14.9023 10.7461 15.3672 10.7461C15.8457 10.7461 16.2148 11.1152 16.2148 11.5801L16.2148 16.3105C16.2148 16.7891 15.8457 17.1582 15.3672 17.1582Z" fill="white"/>
  <path d="M12.5234 21.752C12.0312 21.752 11.6621 21.3965 11.6621 20.9043L11.6621 7C11.6621 6.52148 12.0449 6.15234 12.5234 6.15234C12.9883 6.15234 13.3574 6.52148 13.3574 7L13.3574 20.9043C13.3574 21.3828 12.9883 21.752 12.5234 21.752Z" fill="white"/>
  <path d="M9.65234 18.4434C9.17383 18.4434 8.80469 18.0742 8.80469 17.5684L8.80469 10.3086C8.80469 9.83008 9.17383 9.46094 9.65234 9.46094C10.1445 9.46094 10.5137 9.83008 10.5137 10.3086L10.5137 17.5684C10.5137 18.0742 10.1445 18.4434 9.65234 18.4434Z" fill="white"/>
  <path d="M6.78125 16.0371C6.33008 16.0371 5.94727 15.668 5.94727 15.1758L5.94727 12.7012C5.94727 12.2363 6.31641 11.8672 6.78125 11.8672C7.27344 11.8672 7.64258 12.2363 7.64258 12.7012L7.64258 15.1758C7.64258 15.668 7.27344 16.0371 6.78125 16.0371Z" fill="white"/>
 </g>
</svg>
