<?xml version="1.0" encoding="UTF-8"?>
<!--Generator: Apple Native CoreSVG 326-->
<!DOCTYPE svg
PUBLIC "-//W3C//DTD SVG 1.1//EN"
       "http://www.w3.org/Graphics/SVG/1.1/DTD/svg11.dtd">
<svg version="1.1" xmlns="http://www.w3.org/2000/svg" xmlns:xlink="http://www.w3.org/1999/xlink" viewBox="0 0 28.2461 27.9043">
 <g>
  <rect height="27.9043" opacity="0" width="28.2461" x="0" y="0"/>
  <path d="M13.9453 27.8906C21.6426 27.8906 27.8906 21.6426 27.8906 13.9453C27.8906 6.24805 21.6426 0 13.9453 0C6.24805 0 0 6.24805 0 13.9453C0 21.6426 6.24805 27.8906 13.9453 27.8906ZM13.9453 25.5664C7.51953 25.5664 2.32422 20.3711 2.32422 13.9453C2.32422 7.51953 7.51953 2.32422 13.9453 2.32422C20.3711 2.32422 25.5664 7.51953 25.5664 13.9453C25.5664 20.3711 20.3711 25.5664 13.9453 25.5664Z" fill="black" fill-opacity="0.85"/>
  <path d="M20.877 16.502C21.3418 16.502 21.6836 16.1602 21.6836 15.6816L21.6836 12.1816C21.6836 11.7031 21.3418 11.3613 20.877 11.3613C20.3984 11.3613 20.043 11.7168 20.043 12.1816L20.043 15.6816C20.043 16.1465 20.3984 16.502 20.877 16.502Z" fill="black" fill-opacity="0.85"/>
  <path d="M18.0879 19.5918C18.5527 19.5918 18.9082 19.2363 18.9082 18.7715L18.9082 9.0918C18.9082 8.62695 18.5527 8.27148 18.0879 8.27148C17.623 8.27148 17.2676 8.62695 17.2676 9.0918L17.2676 18.7715C17.2676 19.2363 17.623 19.5918 18.0879 19.5918Z" fill="black" fill-opacity="0.85"/>
  <path d="M15.3125 17.0352C15.7773 17.0352 16.1328 16.6797 16.1328 16.2285L16.1328 11.6348C16.1328 11.1836 15.7773 10.8145 15.3125 10.8145C14.8613 10.8145 14.4922 11.1836 14.4922 11.6348L14.4922 16.2285C14.4922 16.6797 14.8613 17.0352 15.3125 17.0352Z" fill="black" fill-opacity="0.85"/>
  <path d="M12.5508 21.5059C13.002 21.5059 13.3574 21.1504 13.3574 20.6719L13.3574 7.19141C13.3574 6.72656 13.002 6.37109 12.5508 6.37109C12.0859 6.37109 11.7168 6.72656 11.7168 7.19141L11.7168 20.6719C11.7168 21.1641 12.0723 21.5059 12.5508 21.5059Z" fill="black" fill-opacity="0.85"/>
  <path d="M9.77539 18.293C10.2402 18.293 10.5957 17.9238 10.5957 17.459L10.5957 10.3906C10.5957 9.92578 10.2402 9.57031 9.77539 9.57031C9.31055 9.57031 8.95508 9.92578 8.95508 10.3906L8.95508 17.459C8.95508 17.9238 9.31055 18.293 9.77539 18.293Z" fill="black" fill-opacity="0.85"/>
  <path d="M6.98633 15.9551C7.46484 15.9551 7.82031 15.5859 7.82031 15.1348L7.82031 12.7285C7.82031 12.2773 7.46484 11.9082 6.98633 11.9082C6.53516 11.9082 6.17969 12.2773 6.17969 12.7285L6.17969 15.1348C6.17969 15.5859 6.54883 15.9551 6.98633 15.9551Z" fill="black" fill-opacity="0.85"/>
 </g>
</svg>
