<?xml version="1.0" encoding="UTF-8"?>
<!--Generator: Apple Native CoreSVG 326-->
<!DOCTYPE svg
PUBLIC "-//W3C//DTD SVG 1.1//EN"
       "http://www.w3.org/Graphics/SVG/1.1/DTD/svg11.dtd">
<svg version="1.1" xmlns="http://www.w3.org/2000/svg" xmlns:xlink="http://www.w3.org/1999/xlink" viewBox="0 0 28.2461 27.9043">
 <g>
  <rect height="27.9043" opacity="0" width="28.2461" x="0" y="0"/>
  <path d="M13.9453 27.8906C21.6426 27.8906 27.8906 21.6426 27.8906 13.9453C27.8906 6.24805 21.6426 0 13.9453 0C6.24805 0 0 6.24805 0 13.9453C0 21.6426 6.24805 27.8906 13.9453 27.8906ZM13.9453 25.5664C7.51953 25.5664 2.32422 20.3711 2.32422 13.9453C2.32422 7.51953 7.51953 2.32422 13.9453 2.32422C20.3711 2.32422 25.5664 7.51953 25.5664 13.9453C25.5664 20.3711 20.3711 25.5664 13.9453 25.5664Z" fill="black" fill-opacity="0.85"/>
  <path d="M13.9316 19.5918C17.0625 19.5918 20.084 18.6758 22.5176 16.9941C22.9688 16.666 23.0918 16.1055 22.7773 15.6816C22.4629 15.2441 21.9023 15.1621 21.4375 15.4902C19.3867 16.9531 16.707 17.7598 13.9316 17.7598C11.1836 17.7598 8.49023 16.9395 6.42578 15.4902C5.97461 15.1621 5.40039 15.2441 5.08594 15.6816C4.79883 16.0918 4.9082 16.6523 5.35938 16.9941C7.75195 18.6758 10.8008 19.5918 13.9316 19.5918Z" fill="black" fill-opacity="0.85"/>
  <path d="M13.9316 15.3125C16.2559 15.3125 18.4707 14.6426 20.125 13.4258C20.5762 13.0977 20.6719 12.5508 20.3711 12.127C20.084 11.7031 19.5098 11.6074 19.0312 11.9355C17.6777 12.9062 15.8457 13.4531 13.9316 13.4531C12.0312 13.4531 10.1855 12.9062 8.8457 11.9355C8.36719 11.6074 7.7793 11.7031 7.50586 12.127C7.19141 12.5508 7.30078 13.0977 7.73828 13.4258C9.44727 14.6426 11.6484 15.3125 13.9316 15.3125Z" fill="black" fill-opacity="0.85"/>
  <path d="M13.9316 11.0332C15.3262 11.0332 16.748 10.6094 17.7461 9.89844C18.1699 9.57031 18.2793 9.02344 18.0059 8.59961C17.6777 8.12109 17.0898 8.03906 16.5977 8.39453C15.9551 8.88672 14.957 9.17383 13.9316 9.17383C12.9336 9.17383 11.9355 8.88672 11.2793 8.39453C10.7871 8.05273 10.1992 8.13477 9.87109 8.59961C9.58398 9.02344 9.70703 9.58398 10.1309 9.89844C11.0879 10.6094 12.4961 11.0332 13.9316 11.0332Z" fill="black" fill-opacity="0.85"/>
 </g>
</svg>
