<?xml version="1.0" encoding="UTF-8"?>
<!--Generator: Apple Native CoreSVG 326-->
<!DOCTYPE svg
PUBLIC "-//W3C//DTD SVG 1.1//EN"
       "http://www.w3.org/Graphics/SVG/1.1/DTD/svg11.dtd">
<svg version="1.1" xmlns="http://www.w3.org/2000/svg" xmlns:xlink="http://www.w3.org/1999/xlink" viewBox="0 0 28.2461 27.9043">
 <g>
  <rect height="27.9043" opacity="0" width="28.2461" x="0" y="0"/>
  <path d="M13.9453 27.9043C21.6426 27.9043 27.8906 21.6562 27.8906 13.959C27.8906 6.27539 21.6426 0.0136719 13.9453 0.0136719C6.26172 0.0136719 0 6.27539 0 13.959C0 21.6562 6.26172 27.9043 13.9453 27.9043Z" fill="black" fill-opacity="0.85"/>
  <path d="M8.08008 13.959C8.08008 10.7324 9.03711 7.61523 10.7598 5.11328C11.0879 4.62109 11.6758 4.51172 12.127 4.83984C12.5781 5.16797 12.6465 5.74219 12.3184 6.2207C10.8145 8.33984 9.98047 11.0879 9.98047 13.959C9.98047 16.7891 10.8281 19.5645 12.3184 21.6973C12.6465 22.1621 12.5781 22.7363 12.127 23.0781C11.6895 23.3789 11.1016 23.2695 10.7598 22.791C9.03711 20.3301 8.08008 17.1855 8.08008 13.959Z" fill="white"/>
  <path d="M12.4824 13.959C12.4824 11.5664 13.1797 9.2832 14.4375 7.57422C14.7793 7.10938 15.3398 7 15.791 7.31445C16.2148 7.61523 16.3242 8.2168 15.9824 8.70898C14.9844 10.0898 14.4102 11.9902 14.4102 13.959C14.4102 15.9141 14.9844 17.8145 15.9824 19.1953C16.3242 19.6875 16.2148 20.2891 15.791 20.5898C15.3398 20.918 14.7793 20.7949 14.4375 20.3438C13.1797 18.5801 12.4824 16.2969 12.4824 13.959Z" fill="white"/>
  <path d="M16.8984 13.959C16.8984 12.5234 17.3359 11.0605 18.0879 10.0078C18.4023 9.58398 18.9902 9.46094 19.4277 9.74805C19.9199 10.0898 20.0156 10.7051 19.6328 11.2109C19.127 11.8809 18.8262 12.8926 18.8262 13.959C18.8262 14.9844 19.127 15.9961 19.6328 16.6934C20.002 17.1992 19.9062 17.7871 19.4277 18.1426C18.9902 18.4434 18.3887 18.3203 18.0879 17.8828C17.3359 16.8984 16.8984 15.4355 16.8984 13.959Z" fill="white"/>
 </g>
</svg>
