<?xml version="1.0" encoding="UTF-8"?>
<!--Generator: Apple Native CoreSVG 326-->
<!DOCTYPE svg
PUBLIC "-//W3C//DTD SVG 1.1//EN"
       "http://www.w3.org/Graphics/SVG/1.1/DTD/svg11.dtd">
<svg version="1.1" xmlns="http://www.w3.org/2000/svg" xmlns:xlink="http://www.w3.org/1999/xlink" viewBox="0 0 28.2461 27.9043">
 <g>
  <rect height="27.9043" opacity="0" width="28.2461" x="0" y="0"/>
  <path d="M13.9453 27.9043C21.6426 27.9043 27.8906 21.6562 27.8906 13.959C27.8906 6.27539 21.6426 0.0136719 13.9453 0.0136719C6.26172 0.0136719 0 6.27539 0 13.959C0 21.6562 6.26172 27.9043 13.9453 27.9043Z" fill="#007aff"/>
  <path d="M6.125 13.043L5.08594 11.9629C4.9082 11.7852 4.88086 11.5527 5.03125 11.3477C6.94531 8.99609 10.4727 7.4375 13.959 7.4375C17.4316 7.4375 20.959 9.00977 22.873 11.3477C23.0371 11.5527 23.0098 11.7852 22.832 11.9629L21.7793 13.0293C21.5742 13.248 21.2871 13.248 21.082 13.043C19.2363 11.0469 16.748 10.0078 13.959 10.0078C11.1562 10.0078 8.69531 11.0605 6.84961 13.0293C6.63086 13.2617 6.30273 13.2754 6.125 13.043Z" fill="white"/>
  <path d="M9.35156 16.2695L8.16211 15.0664C7.99805 14.8887 7.9707 14.6699 8.12109 14.4785C9.40625 12.9336 11.6484 11.9355 13.959 11.9355C16.2559 11.9355 18.498 12.9199 19.7832 14.4785C19.9473 14.6562 19.9336 14.9023 19.7559 15.0664L18.5527 16.2695C18.3477 16.4883 18.0742 16.502 17.8555 16.2559C16.8848 15.1895 15.3809 14.5059 13.959 14.5195C12.5098 14.5059 11.0332 15.1895 10.0762 16.2422C9.84375 16.5156 9.57031 16.4883 9.35156 16.2695Z" fill="white"/>
  <path d="M13.959 20.5215C13.7402 20.5215 13.5762 20.4395 13.2617 20.125L11.375 18.293C11.2246 18.1426 11.1836 17.9512 11.293 17.7734C11.8809 16.9668 12.9199 16.4473 13.959 16.4473C14.9844 16.4473 16.0234 16.9531 16.584 17.7051C16.7344 17.8965 16.6934 18.1426 16.543 18.293L14.6699 20.125C14.3281 20.4531 14.1777 20.5215 13.959 20.5215Z" fill="white"/>
 </g>
</svg>
