<?xml version="1.0" encoding="UTF-8"?>
<!--Generator: Apple Native CoreSVG 326-->
<!DOCTYPE svg
PUBLIC "-//W3C//DTD SVG 1.1//EN"
       "http://www.w3.org/Graphics/SVG/1.1/DTD/svg11.dtd">
<svg version="1.1" xmlns="http://www.w3.org/2000/svg" xmlns:xlink="http://www.w3.org/1999/xlink" viewBox="0 0 41.7676 28.2598">
 <g>
  <rect height="28.2598" opacity="0" width="41.7676" x="0" y="0"/>
  <path d="M41.4121 21.5742C41.4121 22.5039 40.5918 23.2969 39.6211 23.2969C38.6367 23.2969 37.8164 22.5039 37.8164 21.5742C37.8164 20.6309 38.623 19.8516 39.6211 19.8516C40.6055 19.8516 41.4121 20.6309 41.4121 21.5742ZM41.0703 6.38477L40.7832 16.0645C40.7559 16.7617 40.291 17.2266 39.6211 17.2266C38.9512 17.2266 38.4727 16.7617 38.4453 16.0645L38.1582 6.38477C38.1309 5.50977 38.7188 4.92188 39.6211 4.92188C40.5098 4.92188 41.0977 5.50977 41.0703 6.38477Z" fill="black" fill-opacity="0.85"/>
  <path d="M3.43069 4.50721C2.63046 4.77674 2.20117 5.46082 2.20117 6.53516L2.20117 16.543C2.20117 17.9648 2.95312 18.7031 4.32031 18.7031L11.6845 18.7031L12.9643 20.9043L4.29297 20.9043C1.43555 20.9043 0 19.4824 0 16.666L0 6.41211C0 4.36039 0.754492 3.05599 2.26228 2.49765ZM33.4961 6.41211L33.4961 16.666C33.4961 19.4824 32.0742 20.9043 29.2031 20.9043L15.5223 20.9043L14.241 18.7031L29.1621 18.7031C30.5156 18.7031 31.2949 17.9648 31.2949 16.543L31.2949 6.53516C31.2949 5.11328 30.5156 4.375 29.1621 4.375L5.90057 4.375L4.61927 2.17383L29.2031 2.17383C32.0742 2.17383 33.4961 3.5957 33.4961 6.41211Z" fill="black" fill-opacity="0.85"/>
  <path d="M16.7207 28.2598C18.4023 28.2598 19.8105 26.8652 19.8105 25.1836C19.8105 23.4746 18.416 22.0938 16.7207 22.0938C15.0391 22.0938 13.6445 23.4746 13.6445 25.1836C13.6445 26.8789 15.0254 28.2598 16.7207 28.2598ZM16.7207 26.4414C16.0234 26.4414 15.4492 25.8672 15.4492 25.1836C15.4492 24.4727 16.0234 23.8848 16.7207 23.8848C17.418 23.8848 18.0059 24.4727 18.0059 25.1836C18.0059 25.8672 17.418 26.4414 16.7207 26.4414ZM14.6973 23.8848L16.6523 22.8457L3.75977 0.697266C3.47266 0.191406 2.84375-0.0136719 2.22852 0.300781C1.66797 0.574219 1.54492 1.28516 1.85938 1.80469Z" fill="black" fill-opacity="0.85"/>
 </g>
</svg>
