<?xml version="1.0" encoding="UTF-8"?>
<!--Generator: Apple Native CoreSVG 326-->
<!DOCTYPE svg
PUBLIC "-//W3C//DTD SVG 1.1//EN"
       "http://www.w3.org/Graphics/SVG/1.1/DTD/svg11.dtd">
<svg version="1.1" xmlns="http://www.w3.org/2000/svg" xmlns:xlink="http://www.w3.org/1999/xlink" viewBox="0 0 41.3027 29.0254">
 <g>
  <rect height="29.0254" opacity="0" width="41.3027" x="0" y="0"/>
  <path d="M9.07812 27.877L11.2793 27.877L11.2793 2.57031C11.2793 2.35156 11.4297 2.20117 11.6348 2.20117L29.3125 2.20117C29.5176 2.20117 29.6543 2.35156 29.6543 2.57031L29.6543 27.877L31.8691 27.877L31.8691 27.207L39.0195 27.8086C40.3184 27.9316 40.9473 27.0566 40.9473 25.9355L40.9473 2.40625C40.9473 1.28516 40.3184 0.423828 39.0195 0.533203L31.5547 1.16211L31.5273 0.916016C31.2266 0.341797 30.5566 0 29.7637 0L11.1836 0C10.3633 0 9.7207 0.341797 9.41992 0.916016L9.39258 1.16211L1.91406 0.533203C0.628906 0.423828 0 1.28516 0 2.40625L0 25.9355C0 27.0566 0.628906 27.9316 1.91406 27.8086L9.07812 27.207ZM2.0918 25.457L2.0918 19.8242C2.0918 19.7012 2.1875 19.5918 2.32422 19.5918L9.07812 19.4277L9.07812 25.2383L2.37891 25.7031C2.21484 25.7168 2.0918 25.6484 2.0918 25.457ZM2.0918 17.2402L2.0918 11.1152C2.0918 10.9785 2.1875 10.8828 2.32422 10.8828L9.07812 11.0469L9.07812 17.3086L2.32422 17.4727C2.1875 17.4727 2.0918 17.3633 2.0918 17.2402ZM2.0918 8.53125L2.0918 2.88477C2.0918 2.70703 2.21484 2.63867 2.37891 2.65234L9.07812 3.11719L9.07812 8.92773L2.32422 8.76367C2.1875 8.76367 2.0918 8.6543 2.0918 8.53125ZM31.8691 25.2383L31.8691 19.4277L38.623 19.5918C38.7598 19.5918 38.8555 19.7012 38.8555 19.8242L38.8555 25.457C38.8555 25.6484 38.7324 25.7168 38.5684 25.7031ZM31.8691 17.3086L31.8691 11.0469L38.6094 10.8828C38.7598 10.8828 38.8555 10.9785 38.8555 11.1152L38.8555 17.2402C38.8555 17.3633 38.7598 17.4727 38.6094 17.4727ZM31.8691 8.92773L31.8691 3.11719L38.5684 2.65234C38.7324 2.63867 38.8555 2.70703 38.8555 2.88477L38.8555 8.53125C38.8555 8.6543 38.7598 8.76367 38.623 8.76367ZM7.24609 27.877C7.24609 28.4922 7.75195 29.0117 8.38086 29.0117L32.5938 29.0117C33.2227 29.0117 33.7422 28.4922 33.7422 27.877C33.7422 27.248 33.2227 26.7422 32.5938 26.7422L8.38086 26.7422C7.75195 26.7422 7.24609 27.248 7.24609 27.877ZM19.8652 27.877L21.6562 27.877L21.6562 1.13477L19.8652 1.13477Z" fill="black" fill-opacity="0.85"/>
 </g>
</svg>
