<?xml version="1.0" encoding="UTF-8"?>
<!--Generator: Apple Native CoreSVG 326-->
<!DOCTYPE svg
PUBLIC "-//W3C//DTD SVG 1.1//EN"
       "http://www.w3.org/Graphics/SVG/1.1/DTD/svg11.dtd">
<svg version="1.1" xmlns="http://www.w3.org/2000/svg" xmlns:xlink="http://www.w3.org/1999/xlink" viewBox="0 0 32.6348 32.6895">
 <g>
  <rect height="32.6895" opacity="0" width="32.6348" x="0" y="0"/>
  <path d="M3.45133 10.1165C2.63284 10.3434 2.20117 10.9936 2.20117 12.0586L2.20117 21.2461C2.20117 22.5996 2.89844 23.2832 4.19727 23.2832L11.1118 23.2832L12.3925 25.4844L4.16992 25.4844C1.4082 25.4844 0 24.1035 0 21.3691L0 11.9355C0 9.91735 0.767141 8.63651 2.28191 8.10649ZM32.2793 11.9355L32.2793 21.3691C32.2793 24.1035 30.8848 25.4844 28.1094 25.4844L14.9558 25.4844L13.673 23.2832L28.082 23.2832C29.3535 23.2832 30.0781 22.5996 30.0781 21.2461L30.0781 12.0586C30.0781 10.7051 29.3535 10.0215 28.082 10.0215L19.1133 10.0215L19.1133 7.82031L28.1094 7.82031C30.8848 7.82031 32.2793 9.21484 32.2793 11.9355ZM13.166 10.0215L5.94422 10.0215L4.6614 7.82031L13.166 7.82031Z" fill="black" fill-opacity="0.85"/>
  <path d="M17.2402 14.3691L17.2402 17.7188C17.2402 18.3203 16.7344 18.8262 16.1328 18.8262C15.5449 18.8262 15.0254 18.3203 15.0254 17.7188L15.0254 14.3691C15.0254 13.7676 15.5449 13.248 16.1328 13.248C16.7344 13.248 17.2402 13.7676 17.2402 14.3691ZM17.2402 7.13672L17.2402 10.5C17.2402 11.1016 16.7344 11.5938 16.1328 11.5938C15.5449 11.5938 15.0254 11.1016 15.0254 10.5L15.0254 7.13672C15.0254 6.53516 15.5449 6.0293 16.1328 6.0293C16.7344 6.0293 17.2402 6.53516 17.2402 7.13672ZM6.69922 0.998047C6.82227 1.59961 6.45312 2.10547 5.86523 2.35156C4.83984 2.69336 3.95117 3.34961 3.22656 4.19727C2.83008 4.67578 2.24219 4.82617 1.72266 4.49805C1.16211 4.16992 0.970703 3.43164 1.47656 2.84375C2.44727 1.64062 3.73242 0.710938 5.08594 0.273438C5.87891-0.0136719 6.54883 0.314453 6.69922 0.998047ZM27.1934 0.273438C28.5469 0.710938 29.832 1.64062 30.8027 2.84375C31.3086 3.43164 31.1172 4.16992 30.5566 4.49805C30.0371 4.82617 29.4492 4.67578 29.0527 4.19727C28.3281 3.34961 27.4395 2.69336 26.4141 2.35156C25.8262 2.10547 25.4434 1.59961 25.5801 0.998047C25.7305 0.314453 26.4004-0.0136719 27.1934 0.273438ZM11.293 0.287109C12.6328 0.710938 13.918 1.62695 14.9023 2.83008C15.3535 3.41797 15.2305 4.14258 14.6699 4.4707C14.123 4.78516 13.5488 4.70312 13.125 4.18359C12.4141 3.34961 11.5117 2.69336 10.5137 2.35156C9.91211 2.10547 9.58398 1.61328 9.66602 1.02539C9.80273 0.369141 10.4453-0.0273438 11.293 0.287109ZM22.6133 1.02539C22.6953 1.61328 22.3672 2.10547 21.7656 2.35156C20.7539 2.69336 19.8516 3.34961 19.1543 4.18359C18.7168 4.70312 18.1426 4.78516 17.6094 4.4707C17.0352 4.14258 16.9258 3.41797 17.377 2.83008C18.3477 1.62695 19.6465 0.710938 20.9863 0.287109C21.834-0.0273438 22.4766 0.369141 22.6133 1.02539Z" fill="black" fill-opacity="0.85"/>
  <path d="M16.1055 32.6895C17.7461 32.6895 19.127 31.3223 19.127 29.6816C19.127 28.0273 17.7598 26.6738 16.1055 26.6738C14.4785 26.6738 13.1113 28.0273 13.1113 29.6816C13.1113 31.3359 14.4648 32.6895 16.1055 32.6895ZM16.1055 30.8438C15.4629 30.8438 14.9434 30.3242 14.9434 29.6816C14.9434 29.0254 15.4629 28.4922 16.1055 28.4922C16.7617 28.4922 17.2949 29.0254 17.2949 29.6816C17.2949 30.3242 16.7617 30.8438 16.1055 30.8438ZM14.1504 28.5059L16.1191 27.4805L3.89648 6.50781C3.60938 6.00195 2.99414 5.81055 2.37891 6.09766C1.81836 6.39844 1.69531 7.0957 1.99609 7.61523Z" fill="black" fill-opacity="0.85"/>
 </g>
</svg>
