<?xml version="1.0" encoding="UTF-8"?>
<!--Generator: Apple Native CoreSVG 326-->
<!DOCTYPE svg
PUBLIC "-//W3C//DTD SVG 1.1//EN"
       "http://www.w3.org/Graphics/SVG/1.1/DTD/svg11.dtd">
<svg version="1.1" xmlns="http://www.w3.org/2000/svg" xmlns:xlink="http://www.w3.org/1999/xlink" viewBox="0 0 23.748 29.0254">
 <g>
  <rect height="29.0254" opacity="0" width="23.748" x="0" y="0"/>
  <path d="M0 26.2227C0 27.8906 1.14844 29.0117 2.85742 29.0117L20.5352 29.0117C22.2578 29.0117 23.3926 27.8906 23.3926 26.2227L23.3926 2.78906C23.3926 1.12109 22.2578 0 20.5352 0L2.85742 0C1.14844 0 0 1.12109 0 2.78906ZM2.20117 26.0859L2.20117 2.92578C2.20117 2.48828 2.48828 2.20117 2.89844 2.20117L20.4941 2.20117C20.918 2.20117 21.1914 2.48828 21.1914 2.92578L21.1914 26.0859C21.1914 26.5234 20.918 26.8105 20.4941 26.8105L2.89844 26.8105C2.48828 26.8105 2.20117 26.5234 2.20117 26.0859Z" fill="black" fill-opacity="0.85"/>
  <path d="M4.26562 8.46289L19.1406 8.46289C19.4004 8.46289 19.6055 8.25781 19.6055 8.01172L19.6055 4.25195C19.6055 3.99219 19.4004 3.78711 19.1406 3.78711L4.26562 3.78711C4.00586 3.78711 3.80078 3.99219 3.80078 4.25195L3.80078 8.01172C3.80078 8.25781 4.00586 8.46289 4.26562 8.46289ZM9.625 6.78125C9.22852 6.78125 8.95508 6.52148 8.95508 6.125C8.95508 5.72852 9.22852 5.46875 9.625 5.46875L13.7812 5.46875C14.1777 5.46875 14.4375 5.72852 14.4375 6.125C14.4375 6.52148 14.1777 6.78125 13.7812 6.78125Z" fill="black" fill-opacity="0.85"/>
 </g>
</svg>
