<?xml version="1.0" encoding="UTF-8"?>
<!--Generator: Apple Native CoreSVG 326-->
<!DOCTYPE svg
PUBLIC "-//W3C//DTD SVG 1.1//EN"
       "http://www.w3.org/Graphics/SVG/1.1/DTD/svg11.dtd">
<svg version="1.1" xmlns="http://www.w3.org/2000/svg" xmlns:xlink="http://www.w3.org/1999/xlink" viewBox="0 0 47.8326 28.2324">
 <g>
  <rect height="28.2324" opacity="0" width="47.8326" x="0" y="0"/>
  <path d="M46.4339 21.5605C46.4339 22.4902 45.6136 23.2832 44.6429 23.2832C43.6585 23.2832 42.8518 22.4902 42.8518 21.5605C42.8518 20.6172 43.6448 19.8379 44.6429 19.8379C45.6272 19.8379 46.4339 20.6172 46.4339 21.5605ZM46.0921 6.37109L45.805 16.0508C45.7776 16.748 45.3128 17.2129 44.6429 17.2129C43.9729 17.2129 43.4944 16.748 43.4671 16.0508L43.18 6.37109C43.1526 5.49609 43.7405 4.9082 44.6429 4.9082C45.5452 4.9082 46.1194 5.49609 46.0921 6.37109Z" fill="black" fill-opacity="0.85"/>
  <path d="M38.6546 6.68555C39.8167 7.58789 39.9671 8.83203 39.0374 10.0078L29.7405 21.875C29.3304 22.4082 28.6331 22.5312 28.0042 22.2031C25.6663 20.9727 22.5218 20.166 19.8284 20.166C19.3197 20.166 18.7943 20.1948 18.2584 20.2584L17.065 18.205C18.0207 18.0461 18.9482 17.9648 19.8284 17.9648C22.3167 17.9648 25.2014 18.6211 27.9905 19.7559C28.3323 19.8926 28.4964 19.8652 28.7561 19.5234L36.8499 9.22852C37.1096 8.87305 37.0686 8.55859 36.6995 8.29883C31.9964 5.33203 25.9807 3.65039 19.8284 3.65039C16.2735 3.65039 12.7686 4.20934 9.5454 5.26749L8.31833 3.15631C11.7285 2.09839 15.724 1.44922 19.8284 1.44922C27.512 1.44922 34.8264 3.73242 38.6546 6.68555ZM7.43227 6.03284C5.83472 6.65923 4.33199 7.42303 2.94363 8.29883C2.57449 8.55859 2.53348 8.87305 2.79324 9.22852L10.887 19.5234C11.1468 19.8652 11.3108 19.8926 11.6526 19.7559C12.6937 19.3323 13.7481 18.9754 14.7909 18.6947L15.9276 20.6506C14.3933 21.0013 12.8973 21.5408 11.6389 22.2031C11.01 22.5312 10.3128 22.4082 9.90262 21.875L0.605742 10.0078C-0.323946 8.83203-0.173555 7.58789 0.988554 6.68555C2.33404 5.6476 4.1102 4.69242 6.18891 3.89342Z" fill="black" fill-opacity="0.85"/>
  <path d="M17.7913 23.8574L19.7464 22.8184L6.88113 0.683594C6.58035 0.177734 5.95145-0.0273438 5.34988 0.287109C4.78934 0.560547 4.65262 1.27148 4.96707 1.79102ZM19.8284 28.2324C21.4964 28.2324 22.9046 26.8379 22.9046 25.1562C22.9046 23.4473 21.51 22.0664 19.8284 22.0664C18.1331 22.0664 16.7386 23.4473 16.7386 25.1562C16.7386 26.8516 18.1194 28.2324 19.8284 28.2324ZM19.8284 26.4141C19.1175 26.4141 18.5569 25.8398 18.5569 25.1562C18.5569 24.4453 19.1175 23.8574 19.8284 23.8574C20.512 23.8574 21.0999 24.4453 21.0999 25.1562C21.0999 25.8398 20.512 26.4141 19.8284 26.4141Z" fill="black" fill-opacity="0.85"/>
 </g>
</svg>
