<?xml version="1.0" encoding="UTF-8"?>
<!--Generator: Apple Native CoreSVG 326-->
<!DOCTYPE svg
PUBLIC "-//W3C//DTD SVG 1.1//EN"
       "http://www.w3.org/Graphics/SVG/1.1/DTD/svg11.dtd">
<svg version="1.1" xmlns="http://www.w3.org/2000/svg" xmlns:xlink="http://www.w3.org/1999/xlink" viewBox="0 0 40.0123 27.3366">
 <g>
  <rect height="27.3366" opacity="0" width="40.0123" x="0" y="0"/>
  <path d="M38.6546 11.638C39.8167 12.5404 39.9671 13.7845 39.0511 14.9603L29.7405 26.8275C29.3304 27.3607 28.6331 27.4837 28.0042 27.1556C25.6663 25.9251 22.5218 25.1185 19.8284 25.1185C17.135 25.1185 13.9768 25.9251 11.6389 27.1556C11.01 27.4837 10.3401 27.3607 9.91629 26.8275L0.605742 14.9603C-0.323946 13.7845-0.173555 12.5404 0.988554 11.638C5.08778 8.44716 11.1114 6.893 16.8616 6.5068L16.8616 8.75414C11.8529 9.11911 7.26898 10.5073 2.94363 13.265C2.57449 13.5111 2.53348 13.8255 2.79324 14.181L5.61996 17.7765C6.49137 17.5554 7.25068 17.1058 7.78348 16.5052C8.08426 16.1498 8.41238 16.1634 8.72684 16.5052C9.54715 17.4212 10.7639 17.9408 12.1038 17.9408C13.43 17.9408 14.6468 17.4212 15.4807 16.5052C15.7815 16.1634 16.1096 16.1498 16.4241 16.5052C16.5557 16.6556 16.7018 16.7967 16.8616 16.9265L16.8616 18.4876C16.8616 20.1146 18.2014 21.4544 19.8284 21.4544C21.469 21.4544 22.7952 20.1146 22.7952 18.4876L22.7952 16.915C22.9497 16.7885 23.0912 16.6513 23.219 16.5052C23.5335 16.1498 23.8616 16.1634 24.1624 16.5052C24.9964 17.4212 26.2132 17.9408 27.5393 17.9408C28.8792 17.9408 30.096 17.4212 30.9163 16.5052C31.2307 16.1634 31.5589 16.1498 31.8596 16.5052C32.3933 17.1067 33.1541 17.5568 34.0271 17.7776L36.8499 14.181C37.1233 13.8255 37.0823 13.5111 36.7132 13.265C32.8132 10.7571 27.9937 9.18812 22.7952 8.76835L22.7952 6.50561C28.5925 6.89148 34.5838 8.45374 38.6546 11.638Z" fill="black" fill-opacity="0.85"/>
  <path d="M19.8284 19.5951C20.43 19.5951 20.9221 19.0892 20.9221 18.4876L20.9221 15.0013C20.9221 14.3998 20.43 13.8939 19.8284 13.8939C19.2268 13.8939 18.721 14.3998 18.721 15.0013L18.721 18.4876C18.721 19.0892 19.2268 19.5951 19.8284 19.5951ZM19.8284 12.0619C20.43 12.0619 20.9221 11.5697 20.9221 10.9681L20.9221 7.46811C20.9221 6.86655 20.43 6.37436 19.8284 6.37436C19.2268 6.37436 18.721 6.86655 18.721 7.46811L18.721 10.9681C18.721 11.5697 19.2268 12.0619 19.8284 12.0619ZM4.84402 4.4603C5.36355 4.76108 5.95145 4.61069 6.34793 4.13217C7.09988 3.2435 8.04324 2.57358 9.12332 2.19077C9.71121 1.97202 10.0804 1.46616 9.9573 0.850922C9.80691 0.167328 9.13699-0.147125 8.33035 0.126313C6.93582 0.604828 5.60965 1.54819 4.59793 2.79233C4.10574 3.39389 4.28348 4.1185 4.84402 4.4603ZM18.2698 4.43295C18.8304 4.09116 18.9671 3.38022 18.4886 2.77866C17.4768 1.53452 16.137 0.604828 14.7698 0.139984C13.9085-0.160797 13.2659 0.222016 13.1429 0.878266C13.0471 1.47983 13.3889 1.97202 13.9768 2.19077C15.0432 2.57358 15.9866 3.2435 16.7249 4.1185C17.1624 4.63803 17.7366 4.73373 18.2698 4.43295ZM21.3733 4.43295C21.9202 4.73373 22.4807 4.63803 22.9319 4.1185C23.6565 3.2435 24.5999 2.57358 25.6663 2.19077C26.2679 1.97202 26.6096 1.47983 26.5003 0.878266C26.3909 0.222016 25.7483-0.160797 24.887 0.139984C23.5061 0.604828 22.1663 1.53452 21.1546 2.77866C20.6761 3.38022 20.8128 4.09116 21.3733 4.43295ZM34.8128 4.4603C35.3733 4.1185 35.5511 3.39389 35.0589 2.79233C34.0471 1.54819 32.721 0.604828 31.3128 0.126313C30.5061-0.147125 29.8362 0.167328 29.6995 0.850922C29.5628 1.46616 29.9456 1.97202 30.5335 2.19077C31.6136 2.57358 32.5569 3.2435 33.2952 4.13217C33.7054 4.61069 34.2796 4.76108 34.8128 4.4603Z" fill="black" fill-opacity="0.85"/>
 </g>
</svg>
