<?xml version="1.0" encoding="UTF-8"?>
<!--Generator: Apple Native CoreSVG 326-->
<!DOCTYPE svg
PUBLIC "-//W3C//DTD SVG 1.1//EN"
       "http://www.w3.org/Graphics/SVG/1.1/DTD/svg11.dtd">
<svg version="1.1" xmlns="http://www.w3.org/2000/svg" xmlns:xlink="http://www.w3.org/1999/xlink" viewBox="0 0 39.9986 29.8184">
 <g>
  <rect height="29.8184" opacity="0" width="39.9986" x="0" y="0"/>
  <path d="M38.6546 5.23633C39.8167 6.13867 39.9671 7.38281 39.0511 8.55859L30.5135 19.4492C30.563 19.1575 30.5882 18.8449 30.5882 18.5117C30.5882 17.639 30.3918 16.9678 30.1179 16.3615L36.8499 7.7793C37.1233 7.42383 37.0686 7.10938 36.7132 6.84961C32.01 3.88281 25.9807 2.20117 19.8284 2.20117C13.6624 2.20117 7.64676 3.88281 2.94363 6.84961C2.57449 7.10938 2.53348 7.42383 2.79324 7.7793L11.1331 18.4023C11.3382 18.6621 11.4749 18.6758 11.7483 18.5664C12.2446 18.3562 12.7448 18.1625 13.2455 17.9925C13.278 18.1534 13.2932 18.3264 13.2932 18.5117C13.2932 19.2592 13.1264 19.8832 12.8807 20.4576C12.4991 20.6174 12.1398 20.7908 11.803 20.9727C11.1741 21.3145 10.4905 21.1777 10.0804 20.6445L0.605742 8.55859C-0.323946 7.38281-0.173555 6.13867 0.988554 5.23633C4.81668 2.2832 12.1311 0 19.8284 0C27.5257 0 34.8264 2.2832 38.6546 5.23633ZM27.8264 18.5391C28.1682 18.6758 28.3323 18.6484 28.5921 18.3066L28.7668 18.0839C28.7872 18.2188 28.7971 18.3612 28.7971 18.5117C28.7971 19.5361 28.4856 20.3287 28.0945 21.0834C28.009 21.0553 27.924 21.0182 27.8401 20.9727C26.4244 20.2036 24.5953 19.5854 22.789 19.2426C22.8212 19.0127 22.8362 18.7683 22.8362 18.5117C22.8362 17.9263 22.7473 17.4315 22.6029 16.9886C24.3009 17.2759 26.1025 17.8077 27.8264 18.5391ZM20.5327 16.7577C20.8284 17.2872 21.0452 17.8121 21.0452 18.5117C21.0452 18.679 21.0368 18.84 21.0205 18.9953C20.6104 18.9541 20.2121 18.9355 19.8284 18.9355C18.3143 18.9355 16.5842 19.2219 14.9658 19.7068C15.0418 19.3396 15.0843 18.9429 15.0843 18.5117C15.0843 18.1203 15.0445 17.7693 14.9731 17.4492C16.6826 16.9826 18.3486 16.7344 19.8284 16.7344C20.0574 16.7344 20.2911 16.7404 20.5327 16.7577Z" fill="black" fill-opacity="0.85"/>
  <path d="M9.15066 10.7324C8.84988 11.1699 9.10965 11.7852 9.71121 11.7852L14.428 11.7852C15.0296 11.7852 15.2893 11.1699 14.9886 10.7324L12.6917 7.3418C12.5276 7.0957 12.3225 6.97266 12.0628 6.97266C11.803 6.97266 11.5979 7.0957 11.4339 7.3418ZM13.7307 27.7949C13.0745 26.9062 12.8284 26.3594 12.8284 25.3613C12.8284 22.9688 15.0843 21.6562 15.0843 18.5117C15.0843 15.6543 12.9651 14.957 12.9651 11.5938L12.9651 11.0195L11.1741 11.0195L11.1741 11.5938C11.1741 15.8457 13.2932 16.3242 13.2932 18.5117C13.2932 21.2598 11.0374 22.3398 11.0374 25.498C11.0374 26.7832 11.4339 27.7676 12.2952 28.8613C13.0335 29.8047 14.5237 28.8477 13.7307 27.7949ZM16.9026 10.7324C16.6018 11.1699 16.8616 11.7852 17.4632 11.7852L22.18 11.7852C22.7815 11.7852 23.0413 11.1699 22.7405 10.7324L20.4573 7.3418C20.2932 7.0957 20.0882 6.97266 19.8284 6.97266C19.5686 6.97266 19.3636 7.0957 19.1995 7.3418ZM21.4964 27.7949C20.8264 26.9062 20.5804 26.3594 20.5804 25.3613C20.5804 22.9688 22.8362 21.6562 22.8362 18.5117C22.8362 15.6543 20.7171 14.957 20.7171 11.5938L20.7171 11.0195L18.9261 11.0195L18.9261 11.5938C18.9261 15.8457 21.0452 16.3242 21.0452 18.5117C21.0452 21.2598 18.7893 22.3398 18.7893 25.498C18.7893 26.7832 19.1995 27.7676 20.0471 28.8613C20.7991 29.8047 22.2757 28.8477 21.4964 27.7949ZM24.6682 10.7324C24.3675 11.1699 24.6272 11.7852 25.2288 11.7852L29.9319 11.7852C30.5335 11.7852 30.8069 11.1699 30.4925 10.7324L28.2093 7.3418C28.0452 7.0957 27.8401 6.97266 27.5804 6.97266C27.3206 6.97266 27.1155 7.0957 26.9514 7.3418ZM29.2483 27.7949C28.5784 26.9062 28.346 26.3594 28.346 25.3613C28.346 22.9688 30.5882 21.6562 30.5882 18.5117C30.5882 15.6543 28.4827 14.957 28.4827 11.5938L28.4827 11.0195L26.6917 11.0195L26.6917 11.5938C26.6917 15.8457 28.7971 16.3242 28.7971 18.5117C28.7971 21.2598 26.555 22.3398 26.555 25.498C26.555 26.7832 26.9514 27.7676 27.7991 28.8613C28.5511 29.8047 30.0413 28.8477 29.2483 27.7949Z" fill="black" fill-opacity="0.85"/>
 </g>
</svg>
