<?xml version="1.0" encoding="UTF-8"?>
<!--Generator: Apple Native CoreSVG 326-->
<!DOCTYPE svg
PUBLIC "-//W3C//DTD SVG 1.1//EN"
       "http://www.w3.org/Graphics/SVG/1.1/DTD/svg11.dtd">
<svg version="1.1" xmlns="http://www.w3.org/2000/svg" xmlns:xlink="http://www.w3.org/1999/xlink" viewBox="0 0 28.5742 28.8887">
 <g>
  <rect height="28.8887" opacity="0" width="28.5742" x="0" y="0"/>
  <path d="M24.3223 24.5547C24.6094 24.5547 24.8418 24.2949 24.8145 23.9941L24.7324 22.8594L25.6895 23.502C25.9082 23.6523 26.2637 23.5977 26.4277 23.3379C26.6055 23.0781 26.4824 22.709 26.1816 22.5996L25.1699 22.0801L26.209 21.5605C26.4688 21.4375 26.5918 21.1094 26.4414 20.8223C26.3047 20.5762 25.9219 20.4941 25.6758 20.6719L24.7324 21.3145L24.8281 20.1934C24.8555 19.8926 24.623 19.6191 24.3223 19.6191C23.9941 19.6191 23.7617 19.8652 23.7891 20.1797L23.8711 21.3281L22.9004 20.6719C22.6543 20.5078 22.3125 20.5625 22.1758 20.8223C22.0117 21.1094 22.1211 21.4238 22.3945 21.5605L23.4199 22.0801L22.4082 22.5859C22.1211 22.709 21.998 23.0508 22.1621 23.3379C22.2988 23.584 22.6543 23.6523 22.9004 23.4883L23.8711 22.8457L23.8027 23.9941C23.7891 24.3086 24.0078 24.5547 24.3223 24.5547Z" fill="white"/>
  <path d="M24.3223 4.94922C24.6094 4.94922 24.8418 4.68945 24.8145 4.375L24.7324 3.24023L25.6895 3.88281C25.9082 4.0332 26.2637 3.97852 26.4277 3.73242C26.6055 3.47266 26.4824 3.10352 26.1816 2.98047L25.1699 2.47461L26.209 1.95508C26.4688 1.81836 26.5918 1.49023 26.4414 1.2168C26.3047 0.970703 25.9219 0.888672 25.6758 1.06641L24.7324 1.70898L24.8281 0.587891C24.8555 0.273438 24.623 0 24.3223 0C23.9941 0 23.7617 0.246094 23.7891 0.574219L23.8711 1.72266L22.9004 1.06641C22.6543 0.902344 22.3125 0.957031 22.1758 1.2168C22.0117 1.49023 22.1211 1.81836 22.3945 1.95508L23.4199 2.47461L22.4082 2.98047C22.1211 3.10352 21.998 3.44531 22.1621 3.73242C22.2988 3.97852 22.6543 4.04688 22.9004 3.88281L23.8711 3.24023L23.8027 4.375C23.7891 4.70312 24.0078 4.94922 24.3223 4.94922Z" fill="white"/>
  <path d="M1.75 10.541C3.71875 9.91211 5.75586 9.58398 7.69727 9.58398C10.2129 9.58398 12.0586 9.99414 14.4375 9.99414C16.8984 9.99414 18.4297 8.32617 18.4297 6.15234C18.4297 3.92383 16.7207 2.32422 14.6152 2.32422C13.0566 2.32422 11.6895 3.30859 11.1152 4.60742C10.8965 5.05859 10.9785 5.57812 11.457 5.82422C11.8945 6.04297 12.4277 5.90625 12.7148 5.35938C13.0156 4.66211 13.7539 4.11523 14.6152 4.11523C15.75 4.11523 16.6387 4.9082 16.6387 6.15234C16.6387 7.39648 15.7773 8.2168 14.4375 8.2168C12.168 8.2168 10.2949 7.80664 7.69727 7.80664C5.46875 7.80664 3.21289 8.20312 1.20312 8.8457C0.628906 9.00977 0.410156 9.50195 0.546875 9.9668C0.683594 10.4453 1.13477 10.7188 1.75 10.541ZM23.1328 16.9395C26.3184 16.9395 28.5742 14.916 28.5742 12.0859C28.5742 9.29688 26.4277 7.27344 23.7617 7.27344C21.2871 7.27344 19.4551 8.99609 19.127 11.252C19.0449 11.8262 19.3594 12.2773 19.8516 12.3457C20.3574 12.4141 20.7949 12.0996 20.9043 11.457C21.1367 10.0215 22.3262 9.05078 23.7617 9.05078C25.4297 9.05078 26.7832 10.2949 26.7832 12.0859C26.7832 13.9043 25.3477 15.1621 23.1328 15.1621C18.9629 15.1621 14.4648 12.7832 8.99609 12.7832C6.17969 12.7832 3.60938 13.2344 1.20312 14.082C0.642578 14.2871 0.410156 14.7656 0.546875 15.2305C0.683594 15.709 1.14844 15.9961 1.75 15.791C3.97852 14.9434 6.30273 14.5742 8.99609 14.5742C14.4512 14.5742 18.5254 16.9395 23.1328 16.9395ZM14.4512 26.5781C16.5566 26.5781 18.1836 25.0195 18.1836 22.791C18.1836 19.5645 14.8887 17.7598 8.81836 17.7598C6.27539 17.7598 3.52734 18.252 1.20312 19.0449C0.642578 19.25 0.410156 19.7285 0.546875 20.1934C0.683594 20.6719 1.14844 20.959 1.75 20.7539C3.92383 19.9746 6.35742 19.5508 8.81836 19.5508C13.7812 19.5508 16.4062 20.7949 16.4062 22.791C16.4062 24.0352 15.5312 24.8008 14.4512 24.8008C13.3711 24.8008 12.7148 24.0762 12.5234 22.9277C12.4414 22.4219 12.0723 21.998 11.4844 22.0391C10.8691 22.0801 10.623 22.5996 10.7051 23.1602C10.9512 25.0605 12.3594 26.5781 14.4512 26.5781Z" fill="white"/>
 </g>
</svg>
