<?xml version="1.0" encoding="UTF-8"?>
<!--Generator: Apple Native CoreSVG 326-->
<!DOCTYPE svg
PUBLIC "-//W3C//DTD SVG 1.1//EN"
       "http://www.w3.org/Graphics/SVG/1.1/DTD/svg11.dtd">
<svg version="1.1" xmlns="http://www.w3.org/2000/svg" xmlns:xlink="http://www.w3.org/1999/xlink" viewBox="0 0 31.2129 25.1152">
 <g>
  <rect height="25.1152" opacity="0" width="31.2129" x="0" y="0"/>
  <path d="M8.32617 25.0879C9.22852 25.0879 9.92578 24.5547 10.1582 23.666L15.3398 4.59375L15.5039 4.59375L20.6992 23.666C20.9316 24.5547 21.6289 25.0879 22.5039 25.0879C23.4883 25.0879 24.1855 24.5273 24.377 23.6113L28.8613 1.98242C28.916 1.72266 28.9434 1.50391 28.9434 1.23047C28.9434 0.464844 28.3281 0 27.5762 0C26.8652 0 26.3457 0.410156 26.2227 1.12109L22.4492 21.3965L22.3125 21.3965L16.8574 1.20312C16.6523 0.451172 16.1738 0.0546875 15.4492 0.0546875C14.6699 0.0546875 14.1641 0.464844 13.9727 1.25781L8.53125 21.3965L8.39453 21.3965L4.60742 1.10742C4.48438 0.355469 3.92383 0 3.28125 0C2.50195 0 1.90039 0.478516 1.90039 1.2168C1.90039 1.42188 1.94141 1.76367 1.98242 1.99609L6.4668 23.6113C6.6582 24.5273 7.35547 25.0879 8.32617 25.0879ZM0 12.4277C0 12.9473 0.396484 13.3301 0.929688 13.3301L29.9277 13.3301C30.4609 13.3301 30.8574 12.9473 30.8574 12.4277C30.8574 11.9082 30.4609 11.5254 29.9277 11.5254L0.929688 11.5254C0.396484 11.5254 0 11.9082 0 12.4277Z" fill="black" fill-opacity="0.85"/>
 </g>
</svg>
