<?xml version="1.0" encoding="UTF-8"?>
<!--Generator: Apple Native CoreSVG 326-->
<!DOCTYPE svg
PUBLIC "-//W3C//DTD SVG 1.1//EN"
       "http://www.w3.org/Graphics/SVG/1.1/DTD/svg11.dtd">
<svg version="1.1" xmlns="http://www.w3.org/2000/svg" xmlns:xlink="http://www.w3.org/1999/xlink" viewBox="0 0 30.8848 29.1895">
 <g>
  <rect height="29.1895" opacity="0" width="30.8848" x="0" y="0"/>
  <path d="M1.81836 27.5898L28.7109 27.5898L28.7109 25.9766C28.7109 25.4297 28.3965 25.1016 27.8359 25.1016L26.9609 25.1016L26.9609 9.37891L28.1641 9.37891C28.916 9.37891 29.3535 8.83203 29.3535 8.27148C29.3535 7.86133 29.1211 7.50586 28.6152 7.21875L16.9395 0.478516C16.3926 0.164062 15.8184 0 15.2578 0C14.6973 0 14.1094 0.164062 13.5898 0.478516L1.91406 7.21875C1.39453 7.50586 1.17578 7.86133 1.17578 8.27148C1.17578 8.83203 1.61328 9.37891 2.36523 9.37891L3.56836 9.37891L3.56836 25.1016L2.70703 25.1016C2.14648 25.1016 1.81836 25.4297 1.81836 25.9766ZM1.09375 29.1758L29.4219 29.1758C30.0234 29.1758 30.5293 28.6699 30.5293 28.0684C30.5293 27.4668 30.0234 26.9746 29.4219 26.9746L1.09375 26.9746C0.492188 26.9746 0 27.4668 0 28.0684C0 28.6699 0.492188 29.1758 1.09375 29.1758Z" fill="black" fill-opacity="0.85"/>
  <path d="M11.6621 22.1484C11.0605 22.1484 10.6504 21.8066 10.5547 21.2461L9.50195 16.0918L7.75195 16.0918C7.46484 16.0918 7.25977 15.8867 7.25977 15.6133C7.25977 15.3262 7.46484 15.1484 7.75195 15.1484L9.31055 15.1484L8.33984 10.3633C8.29883 10.1992 8.28516 10.0352 8.28516 9.93945C8.28516 9.48828 8.62695 9.20117 9.10547 9.20117C9.51562 9.20117 9.84375 9.47461 9.91211 9.87109L10.8418 15.1484L13.0566 15.1484L14.4238 9.9668C14.5469 9.48828 14.8477 9.21484 15.2852 9.21484C15.75 9.21484 16.0234 9.47461 16.1328 9.93945L17.5 15.1484L19.7012 15.1484L20.6309 9.87109C20.7129 9.43359 21.0684 9.20117 21.4375 9.20117C21.8613 9.20117 22.2441 9.46094 22.2441 9.95312C22.2441 10.1035 22.2305 10.2402 22.2168 10.3496L21.2461 15.1484L22.8047 15.1484C23.0918 15.1484 23.2969 15.3262 23.2969 15.6133C23.2969 15.8867 23.0918 16.0918 22.8047 16.0918L21.0547 16.0918L20.002 21.2461C19.8926 21.834 19.4961 22.1484 18.8945 22.1484C18.334 22.1484 17.9648 21.834 17.8008 21.2734L16.4473 16.0918L14.0957 16.0918L12.7285 21.2734C12.5781 21.8203 12.168 22.1484 11.6621 22.1484ZM11.0059 16.0918L11.7031 20.002L11.7852 20.002L12.8242 16.0918ZM14.3418 15.1484L16.2012 15.1484L15.3262 11.8125L15.2305 11.8125ZM17.7461 16.0918L18.7715 20.002L18.8398 20.002L19.5371 16.0918Z" fill="white"/>
 </g>
</svg>
