<?xml version="1.0" encoding="UTF-8"?>
<!--Generator: Apple Native CoreSVG 326-->
<!DOCTYPE svg
PUBLIC "-//W3C//DTD SVG 1.1//EN"
       "http://www.w3.org/Graphics/SVG/1.1/DTD/svg11.dtd">
<svg version="1.1" xmlns="http://www.w3.org/2000/svg" xmlns:xlink="http://www.w3.org/1999/xlink" viewBox="0 0 28.2461 27.9043">
 <g>
  <rect height="27.9043" opacity="0" width="28.2461" x="0" y="0"/>
  <path d="M13.9453 27.8906C21.6426 27.8906 27.8906 21.6426 27.8906 13.9453C27.8906 6.24805 21.6426 0 13.9453 0C6.24805 0 0 6.24805 0 13.9453C0 21.6426 6.24805 27.8906 13.9453 27.8906ZM13.9453 25.5664C7.51953 25.5664 2.32422 20.3711 2.32422 13.9453C2.32422 7.51953 7.51953 2.32422 13.9453 2.32422C20.3711 2.32422 25.5664 7.51953 25.5664 13.9453C25.5664 20.3711 20.3711 25.5664 13.9453 25.5664Z" fill="black" fill-opacity="0.85"/>
  <path d="M10.4316 20.2891C10.9375 20.2891 11.3203 19.9609 11.457 19.4414L13.8906 10.2676L13.9863 10.2676L16.4062 19.4414C16.543 19.9883 16.8984 20.2891 17.459 20.2891C18.0195 20.2891 18.4023 19.9746 18.5117 19.4141L20.6582 8.8457C20.6719 8.75 20.6855 8.59961 20.6855 8.46289C20.6855 7.98438 20.3164 7.73828 19.9062 7.73828C19.5508 7.73828 19.209 7.9707 19.1406 8.38086L17.4043 18.2109L17.3223 18.2109L14.7656 8.44922C14.6562 7.99805 14.3965 7.76562 13.9453 7.76562C13.5215 7.76562 13.2344 8.01172 13.1113 8.47656L10.5547 18.2109L10.4727 18.2109L8.73633 8.38086C8.68164 7.99805 8.35352 7.73828 7.95703 7.73828C7.49219 7.73828 7.16406 8.01172 7.16406 8.46289C7.16406 8.55859 7.17773 8.70898 7.21875 8.85938L9.36523 19.4141C9.46094 19.9473 9.85742 20.2891 10.4316 20.2891ZM6.16602 13.9453C6.16602 14.2188 6.37109 14.4238 6.64453 14.4238L21.2324 14.4238C21.5059 14.4238 21.7109 14.2188 21.7109 13.9453C21.7109 13.6855 21.5059 13.4941 21.2324 13.4941L6.64453 13.4941C6.37109 13.4941 6.16602 13.6855 6.16602 13.9453Z" fill="black" fill-opacity="0.85"/>
 </g>
</svg>
