<?xml version="1.0" encoding="UTF-8"?>
<!--Generator: Apple Native CoreSVG 326-->
<!DOCTYPE svg
PUBLIC "-//W3C//DTD SVG 1.1//EN"
       "http://www.w3.org/Graphics/SVG/1.1/DTD/svg11.dtd">
<svg version="1.1" xmlns="http://www.w3.org/2000/svg" xmlns:xlink="http://www.w3.org/1999/xlink" viewBox="0 0 28.2461 27.9043">
 <g>
  <rect height="27.9043" opacity="0" width="28.2461" x="0" y="0"/>
  <path d="M13.9453 27.9043C21.6426 27.9043 27.8906 21.6562 27.8906 13.959C27.8906 6.27539 21.6426 0.0136719 13.9453 0.0136719C6.26172 0.0136719 0 6.27539 0 13.959C0 21.6562 6.26172 27.9043 13.9453 27.9043Z" fill="#ff3b30"/>
  <path d="M6.84961 17.1719C6.11133 17.1719 5.55078 16.625 5.55078 15.873L5.55078 12.0039C5.55078 11.252 6.11133 10.7051 6.84961 10.7051L21.0684 10.7051C21.8066 10.7051 22.3535 11.252 22.3535 12.0039L22.3535 15.8594C22.3535 16.6113 21.8066 17.1719 21.0684 17.1719Z" fill="white"/>
 </g>
</svg>
