<?xml version="1.0" encoding="UTF-8"?>
<!--Generator: Apple Native CoreSVG 326-->
<!DOCTYPE svg
PUBLIC "-//W3C//DTD SVG 1.1//EN"
       "http://www.w3.org/Graphics/SVG/1.1/DTD/svg11.dtd">
<svg version="1.1" xmlns="http://www.w3.org/2000/svg" xmlns:xlink="http://www.w3.org/1999/xlink" viewBox="0 0 28.4512 27.0566">
 <g>
  <rect height="27.0566" opacity="0" width="28.4512" x="0" y="0"/>
  <path d="M9.89844 27.043L18.1973 27.043C19.9336 27.043 20.7539 26.4824 21.6562 25.5117L26.9609 19.6602C27.8496 18.6758 28.0957 18.0059 28.0957 16.6523L28.0957 10.4043C28.0957 9.03711 27.8496 8.38086 26.9609 7.39648L21.6562 1.54492C20.7539 0.574219 19.9336 0 18.1973 0L9.89844 0C8.16211 0 7.32812 0.574219 6.43945 1.54492L1.13477 7.39648C0.232422 8.38086 0 9.03711 0 10.4043L0 16.6523C0 18.0059 0.232422 18.6758 1.13477 19.6602L6.43945 25.5117C7.32812 26.4824 8.16211 27.043 9.89844 27.043Z" fill="#ff3b30"/>
  <path d="M9.46094 19.2637C8.83203 19.2637 8.32617 18.7578 8.32617 18.1289C8.32617 17.8281 8.44922 17.541 8.66797 17.3359L12.4551 13.5352L8.66797 9.74805C8.44922 9.5293 8.32617 9.25586 8.32617 8.95508C8.32617 8.3125 8.83203 7.83398 9.46094 7.83398C9.77539 7.83398 10.0215 7.94336 10.2402 8.14844L14.0547 11.9492L17.8965 8.13477C18.1289 7.90234 18.375 7.80664 18.6758 7.80664C19.3047 7.80664 19.7969 8.29883 19.7969 8.92773C19.7969 9.24219 19.7148 9.48828 19.4688 9.73438L15.668 13.5352L19.4551 17.3223C19.6875 17.5273 19.7832 17.8145 19.7832 18.1289C19.7832 18.7578 19.291 19.2637 18.6484 19.2637C18.334 19.2637 18.0469 19.1543 17.8418 18.9355L14.0547 15.1348L10.2812 18.9355C10.0625 19.1543 9.77539 19.2637 9.46094 19.2637Z" fill="white"/>
 </g>
</svg>
