<?xml version="1.0" encoding="UTF-8"?>
<!--Generator: Apple Native CoreSVG 326-->
<!DOCTYPE svg
PUBLIC "-//W3C//DTD SVG 1.1//EN"
       "http://www.w3.org/Graphics/SVG/1.1/DTD/svg11.dtd">
<svg version="1.1" xmlns="http://www.w3.org/2000/svg" xmlns:xlink="http://www.w3.org/1999/xlink" viewBox="0 0 25.7852 25.1699">
 <g>
  <rect height="25.1699" opacity="0" width="25.7852" x="0" y="0"/>
  <path d="M16.502 24.9785L22.7227 24.9785C24.459 24.9785 25.334 24.1172 25.334 22.3125L25.334 16.2012C25.334 14.3965 24.459 13.5352 22.7227 13.5352L16.502 13.5352C14.7656 13.5352 13.8906 14.3965 13.8906 16.2012L13.8906 22.3125C13.8906 24.1172 14.7656 24.9785 16.502 24.9785Z" fill="black" fill-opacity="0.85"/>
  <path d="M5.89258 25.1699C9.14648 25.1699 11.7715 22.5312 11.7715 19.2773C11.7715 16.0234 9.14648 13.3984 5.89258 13.3984C2.63867 13.3984 0 16.0234 0 19.2773C0 22.5312 2.63867 25.1699 5.89258 25.1699Z" fill="black" fill-opacity="0.85"/>
  <path d="M15.2168 10.8555L24.0078 10.8555C25.2383 10.8555 25.7305 9.81641 25.1426 8.76367L20.8359 1.10742C20.2207 0.0136719 18.9902 0.0273438 18.3887 1.10742L14.0957 8.76367C13.5215 9.78906 13.9727 10.8555 15.2168 10.8555Z" fill="black" fill-opacity="0.85"/>
  <path d="M9.55664 10.5547C9.92578 10.9375 10.5273 10.8965 10.8828 10.5273C11.252 10.1582 11.293 9.57031 10.9238 9.20117L2.1875 0.478516C1.83203 0.123047 1.23047 0.150391 0.861328 0.519531C0.505859 0.875 0.464844 1.49023 0.820312 1.8457ZM2.20117 10.5547L10.9375 1.8457C11.293 1.49023 11.252 0.875 10.8965 0.519531C10.541 0.150391 9.92578 0.123047 9.57031 0.478516L0.833984 9.20117C0.464844 9.57031 0.505859 10.1582 0.875 10.5273C1.24414 10.8965 1.83203 10.9375 2.20117 10.5547Z" fill="black" fill-opacity="0.85"/>
 </g>
</svg>
