<?xml version="1.0" encoding="UTF-8"?>
<!--Generator: Apple Native CoreSVG 326-->
<!DOCTYPE svg
PUBLIC "-//W3C//DTD SVG 1.1//EN"
       "http://www.w3.org/Graphics/SVG/1.1/DTD/svg11.dtd">
<svg version="1.1" xmlns="http://www.w3.org/2000/svg" xmlns:xlink="http://www.w3.org/1999/xlink" viewBox="0 0 28.2461 27.9043">
 <g>
  <rect height="27.9043" opacity="0" width="28.2461" x="0" y="0"/>
  <path d="M13.9453 27.8906C21.6426 27.8906 27.8906 21.6426 27.8906 13.9453C27.8906 6.24805 21.6426 0 13.9453 0C6.24805 0 0 6.24805 0 13.9453C0 21.6426 6.24805 27.8906 13.9453 27.8906ZM13.9453 25.5664C7.51953 25.5664 2.32422 20.3711 2.32422 13.9453C2.32422 7.51953 7.51953 2.32422 13.9453 2.32422C20.3711 2.32422 25.5664 7.51953 25.5664 13.9453C25.5664 20.3711 20.3711 25.5664 13.9453 25.5664Z" fill="#ff3b30"/>
  <path d="M9.26953 19.7285C9.58398 19.7285 9.85742 19.6055 10.0625 19.3867L13.9316 15.5039L17.8281 19.3867C18.0332 19.5918 18.293 19.7285 18.6074 19.7285C19.209 19.7285 19.7012 19.2363 19.7012 18.6211C19.7012 18.3066 19.5918 18.0605 19.373 17.8418L15.4902 13.959L19.3867 10.0488C19.6191 9.81641 19.7148 9.58398 19.7148 9.2832C19.7148 8.68164 19.2227 8.18945 18.6211 8.18945C18.334 8.18945 18.1016 8.29883 17.8691 8.53125L13.9316 12.4277L10.0352 8.54492C9.83008 8.32617 9.58398 8.2168 9.26953 8.2168C8.66797 8.2168 8.17578 8.69531 8.17578 9.29688C8.17578 9.59766 8.29883 9.85742 8.50391 10.0625L12.3867 13.959L8.50391 17.8555C8.29883 18.0605 8.17578 18.3203 8.17578 18.6211C8.17578 19.2363 8.66797 19.7285 9.26953 19.7285Z" fill="#ff3b30"/>
 </g>
</svg>
