<?xml version="1.0" encoding="UTF-8"?>
<!--Generator: Apple Native CoreSVG 326-->
<!DOCTYPE svg
PUBLIC "-//W3C//DTD SVG 1.1//EN"
       "http://www.w3.org/Graphics/SVG/1.1/DTD/svg11.dtd">
<svg version="1.1" xmlns="http://www.w3.org/2000/svg" xmlns:xlink="http://www.w3.org/1999/xlink" viewBox="0 0 32.5938 25.1699">
 <g>
  <rect height="25.1699" opacity="0" width="32.5938" x="0" y="0"/>
  <path d="M4.29297 25.1699L27.9453 25.1699C30.8164 25.1699 32.2383 23.7617 32.2383 20.9453L32.2383 4.23828C32.2383 1.42188 30.8164 0 27.9453 0L4.29297 0C1.43555 0 0 1.42188 0 4.23828L0 20.9453C0 23.7617 1.43555 25.1699 4.29297 25.1699ZM4.32031 22.9688C2.95312 22.9688 2.20117 22.2441 2.20117 20.8223L2.20117 4.36133C2.20117 2.93945 2.95312 2.20117 4.32031 2.20117L27.918 2.20117C29.2715 2.20117 30.0371 2.93945 30.0371 4.36133L30.0371 20.8223C30.0371 22.2441 29.2715 22.9688 27.918 22.9688Z" fill="#ff3b30"/>
  <path d="M11.4707 18.3613C11.7715 18.3613 12.0449 18.2383 12.25 18.0195L16.1328 14.1367L20.0156 18.0195C20.2207 18.2246 20.4941 18.3613 20.8086 18.3613C21.4102 18.3613 21.9023 17.8691 21.9023 17.2539C21.9023 16.9395 21.7793 16.6934 21.5742 16.4746L17.6914 12.5918L21.5879 8.68164C21.8066 8.44922 21.916 8.2168 21.916 7.91602C21.916 7.31445 21.4238 6.82227 20.8223 6.82227C20.5352 6.82227 20.2891 6.93164 20.0566 7.16406L16.1328 11.0605L12.2227 7.17773C12.0176 6.95898 11.7715 6.84961 11.4707 6.84961C10.8555 6.84961 10.377 7.32812 10.377 7.92969C10.377 8.23047 10.4863 8.49023 10.7051 8.69531L14.5879 12.5918L10.7051 16.4883C10.4863 16.6934 10.377 16.9531 10.377 17.2539C10.377 17.8691 10.8555 18.3613 11.4707 18.3613Z" fill="#ff3b30"/>
 </g>
</svg>
