<?xml version="1.0" encoding="UTF-8"?>
<!--Generator: Apple Native CoreSVG 326-->
<!DOCTYPE svg
PUBLIC "-//W3C//DTD SVG 1.1//EN"
       "http://www.w3.org/Graphics/SVG/1.1/DTD/svg11.dtd">
<svg version="1.1" xmlns="http://www.w3.org/2000/svg" xmlns:xlink="http://www.w3.org/1999/xlink" viewBox="0 0 25.5254 25.1699">
 <g>
  <rect height="25.1699" opacity="0" width="25.5254" x="0" y="0"/>
  <path d="M4.29297 25.1699L20.877 25.1699C23.748 25.1699 25.1699 23.7617 25.1699 20.9453L25.1699 4.23828C25.1699 1.42188 23.748 0 20.877 0L4.29297 0C1.43555 0 0 1.42188 0 4.23828L0 20.9453C0 23.7617 1.43555 25.1699 4.29297 25.1699ZM4.32031 22.9688C2.95312 22.9688 2.20117 22.2441 2.20117 20.8223L2.20117 4.36133C2.20117 2.93945 2.95312 2.20117 4.32031 2.20117L20.8496 2.20117C22.2031 2.20117 22.9688 2.93945 22.9688 4.36133L22.9688 20.8223C22.9688 22.2441 22.2031 22.9688 20.8496 22.9688Z" fill="black" fill-opacity="0.85"/>
  <path d="M12.5918 18.8398C13.3027 18.8398 13.6992 18.375 13.6992 17.6094L13.6992 14.041L17.541 7.64258C17.6641 7.45117 17.7188 7.23242 17.7188 7.04102C17.7188 6.48047 17.3086 6.05664 16.7344 6.05664C16.2695 6.05664 16.0098 6.23438 15.7227 6.74023L12.6602 11.9902L12.5645 11.9902L9.50195 6.74023C9.21484 6.2207 8.95508 6.05664 8.46289 6.05664C7.90234 6.05664 7.46484 6.49414 7.46484 7.01367C7.46484 7.21875 7.51953 7.42383 7.64258 7.64258L11.5117 14.0684L11.5117 17.6094C11.5117 18.3477 11.8945 18.8398 12.5918 18.8398Z" fill="black" fill-opacity="0.85"/>
 </g>
</svg>
