<?xml version="1.0" encoding="UTF-8"?>
<!--Generator: Apple Native CoreSVG 326-->
<!DOCTYPE svg
PUBLIC "-//W3C//DTD SVG 1.1//EN"
       "http://www.w3.org/Graphics/SVG/1.1/DTD/svg11.dtd">
<svg version="1.1" xmlns="http://www.w3.org/2000/svg" xmlns:xlink="http://www.w3.org/1999/xlink" viewBox="0 0 30.9258 30.584">
 <g>
  <rect height="30.584" opacity="0" width="30.9258" x="0" y="0"/>
  <path d="M15.2852 30.5703C23.6797 30.5703 30.5703 23.6797 30.5703 15.2852C30.5703 6.89062 23.6797 0 15.2852 0C6.89062 0 0 6.89062 0 15.2852C0 23.6797 6.89062 30.5703 15.2852 30.5703ZM15.2852 25.4844C9.65234 25.4844 5.08594 20.918 5.08594 15.2852C5.08594 9.63867 9.65234 5.08594 15.2852 5.08594C20.9316 5.08594 25.4844 9.63867 25.4844 15.2852C25.4844 20.918 20.9316 25.4844 15.2852 25.4844Z" fill="black" fill-opacity="0.85"/>
  <path d="M15.2852 21.6973C15.7637 21.6973 16.0781 21.3691 16.0781 20.877L16.0781 16.4062L19.9746 10.1309C20.0977 9.92578 20.1387 9.83008 20.1387 9.59766C20.1387 9.17383 19.7969 8.88672 19.3457 8.88672C19.0586 8.88672 18.8125 9.03711 18.6348 9.32422L15.3262 14.957L15.2715 14.957L11.9492 9.32422C11.7852 9.03711 11.5801 8.87305 11.2246 8.87305C10.7871 8.87305 10.4316 9.16016 10.4316 9.59766C10.4316 9.76172 10.4863 9.93945 10.6094 10.1309L14.4922 16.4062L14.4922 20.877C14.4922 21.3691 14.8203 21.6973 15.2852 21.6973ZM11.3613 16.0918C11.3613 16.3516 11.5664 16.5566 11.8262 16.5566L18.7852 16.5566C19.0449 16.5566 19.25 16.3516 19.25 16.0918C19.25 15.8184 19.0449 15.627 18.7852 15.627L11.8262 15.627C11.5664 15.627 11.3613 15.8184 11.3613 16.0918ZM11.3613 18.457C11.3613 18.7168 11.5664 18.9219 11.8262 18.9219L18.7852 18.9219C19.0449 18.9219 19.25 18.7168 19.25 18.457C19.25 18.1973 19.0449 17.9922 18.7852 17.9922L11.8262 17.9922C11.5664 17.9922 11.3613 18.1973 11.3613 18.457Z" fill="black" fill-opacity="0.85"/>
 </g>
</svg>
