<?xml version="1.0" encoding="UTF-8"?>
<!--Generator: Apple Native CoreSVG 326-->
<!DOCTYPE svg
PUBLIC "-//W3C//DTD SVG 1.1//EN"
       "http://www.w3.org/Graphics/SVG/1.1/DTD/svg11.dtd">
<svg version="1.1" xmlns="http://www.w3.org/2000/svg" xmlns:xlink="http://www.w3.org/1999/xlink" viewBox="0 0 28.2461 27.9043">
 <g>
  <rect height="27.9043" opacity="0" width="28.2461" x="0" y="0"/>
  <path d="M13.9453 27.8906C21.6426 27.8906 27.8906 21.6426 27.8906 13.9453C27.8906 6.24805 21.6426 0 13.9453 0C6.24805 0 0 6.24805 0 13.9453C0 21.6426 6.24805 27.8906 13.9453 27.8906ZM13.9453 25.5664C7.51953 25.5664 2.32422 20.3711 2.32422 13.9453C2.32422 7.51953 7.51953 2.32422 13.9453 2.32422C20.3711 2.32422 25.5664 7.51953 25.5664 13.9453C25.5664 20.3711 20.3711 25.5664 13.9453 25.5664Z" fill="black" fill-opacity="0.85"/>
  <path d="M13.9316 20.3574C14.3965 20.3574 14.7246 20.0293 14.7246 19.5371L14.7246 15.0664L18.6211 8.79102C18.7441 8.58594 18.7852 8.49023 18.7852 8.25781C18.7852 7.83398 18.4297 7.54688 17.9922 7.54688C17.7051 7.54688 17.459 7.69727 17.2812 7.98438L13.9727 13.6172L13.918 13.6172L10.5957 7.98438C10.4316 7.69727 10.2266 7.5332 9.87109 7.5332C9.41992 7.5332 9.07812 7.82031 9.07812 8.25781C9.07812 8.42188 9.13281 8.59961 9.25586 8.79102L13.1387 15.0664L13.1387 19.5371C13.1387 20.0293 13.4668 20.3574 13.9316 20.3574ZM10.0078 14.752C10.0078 15.0117 10.2129 15.2168 10.4727 15.2168L17.4316 15.2168C17.6914 15.2168 17.8965 15.0117 17.8965 14.752C17.8965 14.4785 17.6914 14.2871 17.4316 14.2871L10.4727 14.2871C10.2129 14.2871 10.0078 14.4785 10.0078 14.752ZM10.0078 17.1172C10.0078 17.377 10.2129 17.582 10.4727 17.582L17.4316 17.582C17.6914 17.582 17.8965 17.377 17.8965 17.1172C17.8965 16.8574 17.6914 16.6523 17.4316 16.6523L10.4727 16.6523C10.2129 16.6523 10.0078 16.8574 10.0078 17.1172Z" fill="black" fill-opacity="0.85"/>
 </g>
</svg>
