<?xml version="1.0" encoding="UTF-8"?>
<!--Generator: Apple Native CoreSVG 326-->
<!DOCTYPE svg
PUBLIC "-//W3C//DTD SVG 1.1//EN"
       "http://www.w3.org/Graphics/SVG/1.1/DTD/svg11.dtd">
<svg version="1.1" xmlns="http://www.w3.org/2000/svg" xmlns:xlink="http://www.w3.org/1999/xlink" viewBox="0 0 29.0117 26.127">
 <g>
  <rect height="26.127" opacity="0" width="29.0117" x="0" y="0"/>
  <path d="M3.73242 0C1.4082 0 0 1.62695 0 3.71875C0 4.34766 0.164062 5.00391 0.533203 5.63281L11.1426 24.1172C11.8398 25.3477 13.0703 25.9766 14.3281 25.9766C15.5859 25.9766 16.8027 25.3477 17.5137 24.1172L28.123 5.63281C28.4648 5.01758 28.6562 4.34766 28.6562 3.71875C28.6562 1.62695 27.248 0 24.9238 0Z" fill="#ff3b30"/>
  <path d="M5.44141 3.92383L23.2012 3.92383C23.7754 3.92383 24.0898 4.4707 23.8027 4.99023L14.9297 20.4805C14.6426 21.0137 14 21.0137 13.7129 20.4805L4.83984 4.99023C4.53906 4.45703 4.86719 3.92383 5.44141 3.92383Z" fill="white"/>
 </g>
</svg>
