<?xml version="1.0" encoding="UTF-8"?>
<!--Generator: Apple Native CoreSVG 326-->
<!DOCTYPE svg
PUBLIC "-//W3C//DTD SVG 1.1//EN"
       "http://www.w3.org/Graphics/SVG/1.1/DTD/svg11.dtd">
<svg version="1.1" xmlns="http://www.w3.org/2000/svg" xmlns:xlink="http://www.w3.org/1999/xlink" viewBox="0 0 23.3516 31.9785">
 <g>
  <rect height="31.9785" opacity="0" width="23.3516" x="0" y="0"/>
  <path d="M0 26.3594C0 29.2168 1.4082 30.6387 4.23828 30.6387L18.7578 30.6387C21.5879 30.6387 22.9961 29.2168 22.9961 26.3594L22.9961 5.61914C22.9961 2.77539 21.5879 1.32617 18.7578 1.32617L4.23828 1.32617C1.4082 1.32617 0 2.77539 0 5.61914ZM2.20117 26.3184L2.20117 5.66016C2.20117 4.29297 2.92578 3.52734 4.34766 3.52734L18.6484 3.52734C20.0703 3.52734 20.7949 4.29297 20.7949 5.66016L20.7949 26.3184C20.7949 27.6855 20.0703 28.4375 18.6484 28.4375L4.34766 28.4375C2.92578 28.4375 2.20117 27.6855 2.20117 26.3184ZM10.6504 29.627L12.3457 29.627L12.3457 10.2129L10.6504 10.2129ZM11.498 10.7324C13.5762 10.7324 14.8066 9.5293 14.8066 7.54688C14.8066 7.16406 14.7656 6.78125 14.6836 6.39844L13.3984 0.792969C13.2754 0.314453 12.8652 0 12.3594 0L10.6367 0C10.1309 0 9.7207 0.314453 9.59766 0.792969L8.3125 6.39844C8.23047 6.78125 8.18945 7.16406 8.18945 7.54688C8.18945 9.5293 9.41992 10.7324 11.498 10.7324ZM11.498 8.91406C10.6504 8.91406 10.0078 8.25781 10.0078 7.41016C10.0078 6.57617 10.6641 5.91992 11.498 5.91992C12.332 5.91992 12.9883 6.57617 12.9883 7.41016C12.9883 8.25781 12.3594 8.91406 11.498 8.91406ZM11.498 13.9043L14.7246 13.9043C15.2031 13.9043 15.5723 13.5352 15.5723 13.0566C15.5723 12.5918 15.2031 12.2227 14.7246 12.2227L11.498 12.2227ZM8.27148 15.7637L11.498 15.7637L11.498 14.082L8.27148 14.082C7.79297 14.082 7.42383 14.4375 7.42383 14.9023C7.42383 15.3809 7.79297 15.7637 8.27148 15.7637ZM11.498 17.6094L14.7246 17.6094C15.2031 17.6094 15.5723 17.2402 15.5723 16.7617C15.5723 16.2969 15.2031 15.9277 14.7246 15.9277L11.498 15.9277ZM8.27148 19.4688L11.498 19.4688L11.498 17.7871L8.27148 17.7871C7.79297 17.7871 7.42383 18.1426 7.42383 18.6074C7.42383 19.0859 7.79297 19.4688 8.27148 19.4688ZM11.498 21.3145L14.7246 21.3145C15.2031 21.3145 15.5723 20.9453 15.5723 20.4668C15.5723 20.002 15.2031 19.6328 14.7246 19.6328L11.498 19.6328ZM8.27148 23.1738L11.498 23.1738L11.498 21.4922L8.27148 21.4922C7.79297 21.4922 7.42383 21.8477 7.42383 22.3125C7.42383 22.791 7.79297 23.1738 8.27148 23.1738ZM11.498 25.0195L14.7246 25.0195C15.2031 25.0195 15.5723 24.6504 15.5723 24.1719C15.5723 23.707 15.2031 23.3379 14.7246 23.3379L11.498 23.3379ZM8.27148 26.8789L11.498 26.8789L11.498 25.1973L8.27148 25.1973C7.79297 25.1973 7.42383 25.5664 7.42383 26.0312C7.42383 26.5098 7.79297 26.8789 8.27148 26.8789Z" fill="black" fill-opacity="0.85"/>
 </g>
</svg>
