<?xml version="1.0" encoding="UTF-8"?>
<!--Generator: Apple Native CoreSVG 326-->
<!DOCTYPE svg
PUBLIC "-//W3C//DTD SVG 1.1//EN"
       "http://www.w3.org/Graphics/SVG/1.1/DTD/svg11.dtd">
<svg version="1.1" xmlns="http://www.w3.org/2000/svg" xmlns:xlink="http://www.w3.org/1999/xlink" viewBox="0 0 28.2461 27.9043">
 <g>
  <rect height="27.9043" opacity="0" width="28.2461" x="0" y="0"/>
  <path d="M13.9453 27.8906C21.6426 27.8906 27.8906 21.6426 27.8906 13.9453C27.8906 6.24805 21.6426 0 13.9453 0C6.24805 0 0 6.24805 0 13.9453C0 21.6426 6.24805 27.8906 13.9453 27.8906ZM13.9453 25.5664C7.51953 25.5664 2.32422 20.3711 2.32422 13.9453C2.32422 7.51953 7.51953 2.32422 13.9453 2.32422C20.3711 2.32422 25.5664 7.51953 25.5664 13.9453C25.5664 20.3711 20.3711 25.5664 13.9453 25.5664Z" fill="white" fill-opacity="0.85"/>
  <path d="M13.9316 20.4531C16.8301 20.4531 18.7715 17.8418 18.7715 13.9453C18.7715 10.0488 16.8301 7.4375 13.9316 7.4375C11.0469 7.4375 9.10547 10.0488 9.10547 13.9453C9.10547 17.8418 11.0469 20.4531 13.9316 20.4531ZM13.9316 18.7031C12.291 18.7031 11.1973 16.8027 11.1973 13.9453C11.1973 11.0879 12.291 9.1875 13.9316 9.1875C15.5723 9.1875 16.666 11.0879 16.666 13.9453C16.666 16.8027 15.5723 18.7031 13.9316 18.7031Z" fill="white" fill-opacity="0.85"/>
 </g>
</svg>
