<svg version="1.1" xmlns="http://www.w3.org/2000/svg" xmlns:xlink="http://www.w3.org/1999/xlink" viewBox="0 0 28.2461 27.9043">
 <g>
  
  <path d="M13.9453 27.8906C21.6426 27.8906 27.8906 21.6426 27.8906 13.9453C27.8906 6.24805 21.6426 0 13.9453 0C6.24805 0 0 6.24805 0 13.9453C0 21.6426 6.24805 27.8906 13.9453 27.8906ZM13.9453 25.5664C7.51953 25.5664 2.32422 20.3711 2.32422 13.9453C2.32422 7.51953 7.51953 2.32422 13.9453 2.32422C20.3711 2.32422 25.5664 7.51953 25.5664 13.9453C25.5664 20.3711 20.3711 25.5664 13.9453 25.5664Z" style="fill:var(--color-0,hsl(0 0 0/0.85))"></path>
  <path d="M9.59766 19.7559C12.3184 19.7559 13.1387 16.6934 13.1387 13.9453C13.1387 11.1973 12.3184 8.13477 9.59766 8.13477C6.87695 8.13477 6.05664 11.1973 6.05664 13.9453C6.05664 16.6934 6.87695 19.7559 9.59766 19.7559ZM9.59766 18.1289C8.47656 18.1289 8.05273 16.3105 8.05273 13.9453C8.05273 11.5664 8.47656 9.74805 9.59766 9.74805C10.7188 9.74805 11.1426 11.5664 11.1426 13.9453C11.1426 16.3105 10.7188 18.1289 9.59766 18.1289ZM18.2656 19.7559C20.9863 19.7559 21.8066 16.6934 21.8066 13.9453C21.8066 11.1973 20.9863 8.13477 18.2656 8.13477C15.5449 8.13477 14.7246 11.1973 14.7246 13.9453C14.7246 16.6934 15.5449 19.7559 18.2656 19.7559ZM18.2656 18.1289C17.1445 18.1289 16.7207 16.3105 16.7207 13.9453C16.7207 11.5664 17.1445 9.74805 18.2656 9.74805C19.3867 9.74805 19.8105 11.5664 19.8105 13.9453C19.8105 16.3105 19.3867 18.1289 18.2656 18.1289Z" style="fill:var(--color-1,hsl(0 0 0/0.85))"></path>
 </g>
</svg>