<?xml version="1.0" encoding="UTF-8"?>
<!--Generator: Apple Native CoreSVG 326-->
<!DOCTYPE svg
PUBLIC "-//W3C//DTD SVG 1.1//EN"
       "http://www.w3.org/Graphics/SVG/1.1/DTD/svg11.dtd">
<svg version="1.1" xmlns="http://www.w3.org/2000/svg" xmlns:xlink="http://www.w3.org/1999/xlink" viewBox="0 0 28.2461 27.9043">
 <g>
  <rect height="27.9043" opacity="0" width="28.2461" x="0" y="0"/>
  <path d="M13.9453 27.8906C21.6426 27.8906 27.8906 21.6289 27.8906 13.9453C27.8906 6.24805 21.6426 0 13.9453 0C6.26172 0 0 6.24805 0 13.9453C0 21.6289 6.26172 27.8906 13.9453 27.8906Z" fill="white" fill-opacity="0.85"/>
  <path d="M10.4863 19.9336C7.68359 19.9336 6.83594 16.7891 6.83594 13.9453C6.83594 11.1016 7.68359 7.95703 10.4863 7.95703C13.3027 7.95703 14.1504 11.1016 14.1504 13.9453C14.1504 16.7891 13.3027 19.9336 10.4863 19.9336ZM10.4863 18.252C11.6348 18.252 12.0723 16.3926 12.0723 13.9453C12.0723 11.4844 11.6348 9.63867 10.4863 9.63867C9.33789 9.63867 8.90039 11.4844 8.90039 13.9453C8.90039 16.3926 9.33789 18.252 10.4863 18.252ZM18.9766 19.7969C18.3887 19.7969 17.9238 19.332 17.9238 18.7578L17.9238 10.2129L16.625 11.252C16.4883 11.3613 16.3516 11.4297 16.1328 11.4297C15.6953 11.4297 15.3945 11.1152 15.3945 10.6777C15.3945 10.3086 15.5996 10.0352 15.8457 9.84375L17.4043 8.64062C17.7188 8.39453 18.2109 8.06641 18.7988 8.06641C19.5371 8.06641 19.9883 8.49023 19.9883 9.21484L19.9883 18.7578C19.9883 19.332 19.5234 19.7969 18.9766 19.7969Z" fill="white"/>
 </g>
</svg>
