<svg version="1.1" xmlns="http://www.w3.org/2000/svg" xmlns:xlink="http://www.w3.org/1999/xlink" viewBox="0 0 28.2461 27.9043">
 <g>
  
  <path d="M13.9453 27.8906C21.6426 27.8906 27.8906 21.6426 27.8906 13.9453C27.8906 6.24805 21.6426 0 13.9453 0C6.24805 0 0 6.24805 0 13.9453C0 21.6426 6.24805 27.8906 13.9453 27.8906ZM13.9453 25.5664C7.51953 25.5664 2.32422 20.3711 2.32422 13.9453C2.32422 7.51953 7.51953 2.32422 13.9453 2.32422C20.3711 2.32422 25.5664 7.51953 25.5664 13.9453C25.5664 20.3711 20.3711 25.5664 13.9453 25.5664Z" style="fill:var(--color-0,hsl(0 0 0/0.85))"></path>
  <path d="M10.5684 19.7559C13.2891 19.7559 14.1094 16.6934 14.1094 13.9453C14.1094 11.1973 13.2891 8.13477 10.5684 8.13477C7.84766 8.13477 7.02734 11.1973 7.02734 13.9453C7.02734 16.6934 7.84766 19.7559 10.5684 19.7559ZM10.5684 18.1289C9.44727 18.1289 9.02344 16.3105 9.02344 13.9453C9.02344 11.5664 9.44727 9.74805 10.5684 9.74805C11.6895 9.74805 12.1133 11.5664 12.1133 13.9453C12.1133 16.3105 11.6895 18.1289 10.5684 18.1289ZM18.7852 19.6191C19.3184 19.6191 19.7695 19.168 19.7695 18.6211L19.7695 9.35156C19.7695 8.6543 19.332 8.24414 18.6211 8.24414C18.0469 8.24414 17.582 8.55859 17.2676 8.80469L15.7637 9.9668C15.5176 10.1582 15.3262 10.418 15.3262 10.7734C15.3262 11.1973 15.6133 11.498 16.0371 11.498C16.2422 11.498 16.3789 11.4297 16.5156 11.334L17.7734 10.3223L17.7734 18.6211C17.7734 19.168 18.2246 19.6191 18.7852 19.6191Z" style="fill:var(--color-1,hsl(0 0 0/0.85))"></path>
 </g>
</svg>