<svg version="1.1" xmlns="http://www.w3.org/2000/svg" xmlns:xlink="http://www.w3.org/1999/xlink" viewBox="0 0 25.5254 25.1699">
 <g>
  
  <path d="M4.29297 25.1699L20.877 25.1699C23.748 25.1699 25.1699 23.7617 25.1699 20.9453L25.1699 4.23828C25.1699 1.42188 23.748 0 20.877 0L4.29297 0C1.43555 0 0 1.42188 0 4.23828L0 20.9453C0 23.7617 1.43555 25.1699 4.29297 25.1699ZM4.32031 22.9688C2.95312 22.9688 2.20117 22.2441 2.20117 20.8223L2.20117 4.36133C2.20117 2.93945 2.95312 2.20117 4.32031 2.20117L20.8496 2.20117C22.2031 2.20117 22.9688 2.93945 22.9688 4.36133L22.9688 20.8223C22.9688 22.2441 22.2031 22.9688 20.8496 22.9688Z" style="fill:var(--color-0,hsl(0 0 0/0.85))"></path>
  <path d="M9.22852 18.3887C11.9492 18.3887 12.7695 15.3262 12.7695 12.5781C12.7695 9.83008 11.9492 6.76758 9.22852 6.76758C6.50781 6.76758 5.6875 9.83008 5.6875 12.5781C5.6875 15.3262 6.50781 18.3887 9.22852 18.3887ZM9.22852 16.7617C8.10742 16.7617 7.68359 14.9434 7.68359 12.5781C7.68359 10.1992 8.10742 8.38086 9.22852 8.38086C10.3496 8.38086 10.7734 10.1992 10.7734 12.5781C10.7734 14.9434 10.3496 16.7617 9.22852 16.7617ZM17.4453 18.252C17.9785 18.252 18.4297 17.8008 18.4297 17.2539L18.4297 7.98438C18.4297 7.28711 17.9922 6.87695 17.2812 6.87695C16.707 6.87695 16.2422 7.19141 15.9277 7.4375L14.4238 8.59961C14.1777 8.79102 13.9863 9.05078 13.9863 9.40625C13.9863 9.83008 14.2734 10.1309 14.6973 10.1309C14.9023 10.1309 15.0391 10.0625 15.1758 9.9668L16.4336 8.95508L16.4336 17.2539C16.4336 17.8008 16.8848 18.252 17.4453 18.252Z" style="fill:var(--color-1,hsl(0 0 0/0.85))"></path>
 </g>
</svg>