<?xml version="1.0" encoding="UTF-8"?>
<!--Generator: Apple Native CoreSVG 326-->
<!DOCTYPE svg
PUBLIC "-//W3C//DTD SVG 1.1//EN"
       "http://www.w3.org/Graphics/SVG/1.1/DTD/svg11.dtd">
<svg version="1.1" xmlns="http://www.w3.org/2000/svg" xmlns:xlink="http://www.w3.org/1999/xlink" viewBox="0 0 25.5254 25.1699">
 <g>
  <rect height="25.1699" opacity="0" width="25.5254" x="0" y="0"/>
  <path d="M4.29297 25.1699L20.877 25.1699C23.748 25.1699 25.1699 23.7617 25.1699 20.9453L25.1699 4.23828C25.1699 1.42188 23.748 0 20.877 0L4.29297 0C1.43555 0 0 1.42188 0 4.23828L0 20.9453C0 23.7617 1.43555 25.1699 4.29297 25.1699Z" fill="white" fill-opacity="0.85"/>
  <path d="M8.3125 18.5664C5.49609 18.5664 4.66211 15.4219 4.66211 12.5781C4.66211 9.73438 5.49609 6.58984 8.3125 6.58984C11.1289 6.58984 11.9629 9.73438 11.9629 12.5781C11.9629 15.4219 11.1289 18.5664 8.3125 18.5664ZM8.3125 16.8848C9.46094 16.8848 9.89844 15.0254 9.89844 12.5781C9.89844 10.1172 9.46094 8.27148 8.3125 8.27148C7.17773 8.27148 6.74023 10.1172 6.74023 12.5781C6.74023 15.0254 7.17773 16.8848 8.3125 16.8848ZM14.4512 18.2793C13.7949 18.2793 13.4805 17.9375 13.4805 17.459C13.4805 17.0078 13.7539 16.6523 14.0137 16.3242L16.4609 13.1934C17.1992 12.25 17.9922 11.1016 17.9922 9.9668C17.9922 8.96875 17.5137 8.23047 16.6797 8.23047C15.8594 8.23047 15.5312 8.81836 15.2578 9.76172C15.1211 10.2266 14.8203 10.4316 14.3555 10.4316C13.8086 10.4316 13.4941 10.0762 13.4941 9.54297C13.4941 8.08008 14.8887 6.58984 16.6797 6.58984C18.6211 6.58984 19.9199 7.9707 19.9199 9.87109C19.9199 11.1152 19.4414 12.1543 18.0469 13.9043L15.9961 16.502L15.9961 16.6113L19.3457 16.6113C19.8242 16.6113 20.1387 16.9121 20.1387 17.459C20.1387 17.9512 19.8379 18.2793 19.3457 18.2793Z" fill="white"/>
 </g>
</svg>
