<svg version="1.1" xmlns="http://www.w3.org/2000/svg" xmlns:xlink="http://www.w3.org/1999/xlink" viewBox="0 0 28.2461 27.9316">
 <g>
  
  <path d="M13.9453 27.8906C21.6426 27.8906 27.8906 21.6289 27.8906 13.9453C27.8906 6.24805 21.6426 0 13.9453 0C6.26172 0 0 6.24805 0 13.9453C0 21.6289 6.26172 27.8906 13.9453 27.8906Z" style="fill:var(--color-0,hsl(0 0 0/0.85))"></path>
  <path d="M9.46094 19.9336C6.64453 19.9336 5.81055 16.7891 5.81055 13.9453C5.81055 11.1016 6.64453 7.95703 9.46094 7.95703C12.2773 7.95703 13.1113 11.1016 13.1113 13.9453C13.1113 16.7891 12.2773 19.9336 9.46094 19.9336ZM9.46094 18.252C10.5957 18.252 11.0332 16.3926 11.0332 13.9453C11.0332 11.4844 10.5957 9.625 9.46094 9.625C8.3125 9.625 7.875 11.4844 7.875 13.9453C7.875 16.3926 8.3125 18.252 9.46094 18.252ZM18.1699 19.8926C16.6523 19.8926 15.2031 19.168 14.8066 17.8555C14.7383 17.623 14.6973 17.377 14.6973 17.1172C14.6973 16.5566 15.0664 16.2285 15.6133 16.2285C16.0781 16.2285 16.3789 16.4609 16.5156 16.9258C16.6934 17.5684 17.1445 18.252 18.1699 18.252C19.209 18.252 19.7285 17.418 19.7285 16.4609C19.7285 15.2305 19.0723 14.5742 17.8691 14.5742L17.5273 14.5742C17.0625 14.5742 16.748 14.2871 16.748 13.8223C16.748 13.3711 17.0488 13.0703 17.5273 13.0703L17.8555 13.0703C18.9082 13.0703 19.4824 12.3184 19.4824 11.293C19.4824 10.3633 19.0449 9.65234 18.1152 9.65234C17.3223 9.65234 16.8711 10.1719 16.6523 11.0059C16.5156 11.498 16.2285 11.6758 15.75 11.6758C15.1895 11.6758 14.875 11.3066 14.875 10.8418C14.875 10.6094 14.9023 10.3496 14.9844 10.0762C15.3945 8.83203 16.666 8.01172 18.1152 8.01172C19.9473 8.01172 21.4102 9.11914 21.4102 11.0742C21.4102 12.25 20.7812 13.3984 19.5098 13.7402L19.5098 13.7812C20.6992 13.9043 21.7383 14.7656 21.7383 16.5156C21.7383 18.6211 20.1934 19.8926 18.1699 19.8926Z" style="fill:var(--color-1,white)"></path>
 </g>
</svg>