<svg version="1.1" xmlns="http://www.w3.org/2000/svg" xmlns:xlink="http://www.w3.org/1999/xlink" viewBox="0 0 25.5254 25.1699">
 <g>
  
  <path d="M4.29297 25.1699L20.877 25.1699C23.748 25.1699 25.1699 23.7617 25.1699 20.9453L25.1699 4.23828C25.1699 1.42188 23.748 0 20.877 0L4.29297 0C1.43555 0 0 1.42188 0 4.23828L0 20.9453C0 23.7617 1.43555 25.1699 4.29297 25.1699ZM4.32031 22.9688C2.95312 22.9688 2.20117 22.2441 2.20117 20.8223L2.20117 4.36133C2.20117 2.93945 2.95312 2.20117 4.32031 2.20117L20.8496 2.20117C22.2031 2.20117 22.9688 2.93945 22.9688 4.36133L22.9688 20.8223C22.9688 22.2441 22.2031 22.9688 20.8496 22.9688Z" style="fill:var(--color-0,hsl(0 0 0/0.85))"></path>
  <path d="M8.24414 18.3887C10.9648 18.3887 11.7852 15.3262 11.7852 12.5781C11.7852 9.83008 10.9648 6.76758 8.24414 6.76758C5.50977 6.76758 4.70312 9.83008 4.70312 12.5781C4.70312 15.3262 5.50977 18.3887 8.24414 18.3887ZM8.24414 16.7617C7.12305 16.7617 6.69922 14.9434 6.69922 12.5781C6.69922 10.1992 7.12305 8.38086 8.24414 8.38086C9.36523 8.38086 9.78906 10.1992 9.78906 12.5781C9.78906 14.9434 9.36523 16.7617 8.24414 16.7617ZM16.6797 18.3477C18.6348 18.3477 20.1523 17.1172 20.1523 15.0664C20.1523 13.3711 19.127 12.5371 17.9785 12.4141L17.9785 12.373C19.2227 12.0449 19.8242 10.9375 19.8242 9.78906C19.8242 7.90234 18.4023 6.82227 16.625 6.82227C15.2168 6.82227 13.9863 7.61523 13.6035 8.83203C13.5215 9.0918 13.4941 9.33789 13.4941 9.57031C13.4941 10.0215 13.7949 10.377 14.3281 10.377C14.8066 10.377 15.0664 10.1992 15.2031 9.7207C15.4219 8.91406 15.8594 8.4082 16.625 8.4082C17.5273 8.4082 17.9648 9.10547 17.9648 10.0078C17.9648 11.0059 17.4043 11.7305 16.3789 11.7305L16.0508 11.7305C15.5859 11.7305 15.2988 12.0176 15.2988 12.4688C15.2988 12.9199 15.5996 13.1797 16.0508 13.1797L16.3926 13.1797C17.5547 13.1797 18.1973 13.8223 18.1973 15.0117C18.1973 15.9551 17.6914 16.7617 16.6797 16.7617C15.6816 16.7617 15.2441 16.0918 15.0664 15.4629C14.9434 15.0254 14.6562 14.793 14.2051 14.793C13.6719 14.793 13.3164 15.1211 13.3164 15.6543C13.3164 15.9004 13.3574 16.1465 13.4258 16.3652C13.8223 17.6367 15.2031 18.3477 16.6797 18.3477Z" style="fill:var(--color-1,hsl(0 0 0/0.85))"></path>
 </g>
</svg>