<svg version="1.1" xmlns="http://www.w3.org/2000/svg" xmlns:xlink="http://www.w3.org/1999/xlink" viewBox="0 0 28.2461 27.9043">
 <g>
  
  <path d="M13.9453 27.8906C21.6426 27.8906 27.8906 21.6289 27.8906 13.9453C27.8906 6.24805 21.6426 0 13.9453 0C6.26172 0 0 6.24805 0 13.9453C0 21.6289 6.26172 27.8906 13.9453 27.8906Z" style="fill:var(--color-0,hsl(0 0 0/0.85))"></path>
  <path d="M9.44727 19.9336C6.61719 19.9336 5.7832 16.7891 5.7832 13.9453C5.7832 11.1016 6.61719 7.95703 9.44727 7.95703C12.25 7.95703 13.084 11.1016 13.084 13.9453C13.084 16.7891 12.25 19.9336 9.44727 19.9336ZM9.44727 18.252C10.582 18.252 11.0195 16.3926 11.0195 13.9453C11.0195 11.4844 10.582 9.63867 9.44727 9.63867C8.29883 9.63867 7.86133 11.4844 7.86133 13.9453C7.86133 16.3926 8.29883 18.252 9.44727 18.252ZM19.9062 19.8242C19.4551 19.8242 18.9355 19.5645 18.9355 18.8262L18.9355 17.418L15.7773 17.418C15.0938 17.418 14.6152 16.9531 14.6152 16.2695C14.6152 15.832 14.7109 15.4629 14.9297 14.916L17.4453 9.44727C17.8418 8.57227 18.3066 8.06641 19.3184 8.06641C20.2344 8.06641 20.877 8.61328 20.877 9.59766L20.877 15.7773L21.3828 15.7773C21.9434 15.7773 22.1895 16.1328 22.1895 16.584C22.1895 17.0625 21.916 17.418 21.3828 17.418L20.877 17.418L20.877 18.8262C20.877 19.4961 20.4395 19.8242 19.9062 19.8242ZM18.9766 15.8184L18.9766 9.84375L18.9219 9.84375L16.3652 15.7227L16.3652 15.8184Z" style="fill:var(--color-1,white)"></path>
 </g>
</svg>