<?xml version="1.0" encoding="UTF-8"?>
<!--Generator: Apple Native CoreSVG 326-->
<!DOCTYPE svg
PUBLIC "-//W3C//DTD SVG 1.1//EN"
       "http://www.w3.org/Graphics/SVG/1.1/DTD/svg11.dtd">
<svg version="1.1" xmlns="http://www.w3.org/2000/svg" xmlns:xlink="http://www.w3.org/1999/xlink" viewBox="0 0 25.5254 25.1699">
 <g>
  <rect height="25.1699" opacity="0" width="25.5254" x="0" y="0"/>
  <path d="M4.29297 25.1699L20.877 25.1699C23.748 25.1699 25.1699 23.7617 25.1699 20.9453L25.1699 4.23828C25.1699 1.42188 23.748 0 20.877 0L4.29297 0C1.43555 0 0 1.42188 0 4.23828L0 20.9453C0 23.7617 1.43555 25.1699 4.29297 25.1699Z" fill="white" fill-opacity="0.85"/>
  <path d="M8.17578 18.5664C5.37305 18.5664 4.52539 15.4219 4.52539 12.5781C4.52539 9.73438 5.37305 6.58984 8.17578 6.58984C10.9922 6.58984 11.8398 9.73438 11.8398 12.5781C11.8398 15.4219 10.9922 18.5664 8.17578 18.5664ZM8.17578 16.8848C9.32422 16.8848 9.76172 15.0254 9.76172 12.5781C9.76172 10.1172 9.32422 8.27148 8.17578 8.27148C7.02734 8.27148 6.58984 10.1172 6.58984 12.5781C6.58984 15.0254 7.02734 16.8848 8.17578 16.8848ZM16.8984 18.5664C15.627 18.5664 14.3828 17.8281 13.877 16.6797C13.7539 16.4062 13.6719 16.0918 13.6719 15.7637C13.6719 15.2441 14.0137 14.916 14.5195 14.916C14.9023 14.916 15.2168 15.1348 15.3809 15.5859C15.6406 16.3516 16.0918 16.9121 16.8711 16.9121C17.9102 16.9121 18.3203 15.7227 18.3203 14.5469C18.3203 13.5078 17.9238 12.2637 16.8984 12.2637C16.3242 12.2637 15.9688 12.5918 15.6543 13.0566C15.3535 13.4395 15.1348 13.5898 14.7656 13.5898C14.0957 13.5898 13.8223 13.1113 13.8223 12.5781C13.8223 12.3867 13.8223 12.168 13.8496 11.9492L14.082 8.09375C14.123 7.36914 14.4648 6.87695 15.1895 6.87695L19.0723 6.87695C19.5371 6.87695 19.8652 7.24609 19.8652 7.71094C19.8652 8.2168 19.5508 8.55859 19.0723 8.55859L15.7637 8.55859L15.5449 11.9766L15.5996 11.9766C15.9551 11.1562 16.7344 10.7734 17.5547 10.7734C19.373 10.7734 20.3027 12.5508 20.3027 14.4922C20.3027 16.7207 19.0996 18.5664 16.8984 18.5664Z" fill="white"/>
 </g>
</svg>
