<?xml version="1.0" encoding="UTF-8"?>
<!--Generator: Apple Native CoreSVG 326-->
<!DOCTYPE svg
PUBLIC "-//W3C//DTD SVG 1.1//EN"
       "http://www.w3.org/Graphics/SVG/1.1/DTD/svg11.dtd">
<svg version="1.1" xmlns="http://www.w3.org/2000/svg" xmlns:xlink="http://www.w3.org/1999/xlink" viewBox="0 0 28.2461 27.9043">
 <g>
  <rect height="27.9043" opacity="0" width="28.2461" x="0" y="0"/>
  <path d="M13.9453 27.8906C21.6426 27.8906 27.8906 21.6426 27.8906 13.9453C27.8906 6.24805 21.6426 0 13.9453 0C6.24805 0 0 6.24805 0 13.9453C0 21.6426 6.24805 27.8906 13.9453 27.8906ZM13.9453 25.5664C7.51953 25.5664 2.32422 20.3711 2.32422 13.9453C2.32422 7.51953 7.51953 2.32422 13.9453 2.32422C20.3711 2.32422 25.5664 7.51953 25.5664 13.9453C25.5664 20.3711 20.3711 25.5664 13.9453 25.5664Z" fill="white" fill-opacity="0.85"/>
  <path d="M9.43359 19.7559C12.1543 19.7559 12.9746 16.6934 12.9746 13.9453C12.9746 11.1973 12.1543 8.13477 9.43359 8.13477C6.69922 8.13477 5.89258 11.1973 5.89258 13.9453C5.89258 16.6934 6.69922 19.7559 9.43359 19.7559ZM9.43359 18.1289C8.3125 18.1289 7.88867 16.3105 7.88867 13.9453C7.88867 11.5664 8.3125 9.74805 9.43359 9.74805C10.5547 9.74805 10.9785 11.5664 10.9785 13.9453C10.9785 16.3105 10.5547 18.1289 9.43359 18.1289ZM18.1562 19.7559C20.248 19.7559 21.4512 18.0059 21.4512 15.8594C21.4512 14.0137 20.5488 12.2637 18.7441 12.2637C17.6367 12.2637 16.7891 13.002 16.4883 14.1777L16.4336 14.1777C16.4336 14.123 16.4336 14.0684 16.4336 14.0273C16.4336 12.5098 16.6113 9.76172 18.1426 9.76172C18.7578 9.76172 19.168 10.1992 19.4141 10.7734C19.6055 11.1973 19.8652 11.3887 20.3027 11.3887C20.8496 11.3887 21.0957 11.0195 21.0957 10.5684C21.0957 10.418 21.0684 10.2539 21.0273 10.0762C20.7402 8.90039 19.5508 8.16211 18.1836 8.16211C15.3809 8.16211 14.5605 11.3066 14.5605 14.082C14.5605 16.666 15.3945 19.7559 18.1562 19.7559ZM18.1289 18.1562C17.1035 18.1562 16.6934 16.8711 16.6934 15.8867C16.6934 14.8887 17.1445 13.7539 18.1289 13.7539C19.1406 13.7539 19.5645 14.9297 19.5371 15.9414C19.5371 16.9395 19.0859 18.1562 18.1289 18.1562Z" fill="white" fill-opacity="0.85"/>
 </g>
</svg>
