<svg version="1.1" xmlns="http://www.w3.org/2000/svg" xmlns:xlink="http://www.w3.org/1999/xlink" viewBox="0 0 25.5254 25.1699">
 <g>
  
  <path d="M4.29297 25.1699L20.877 25.1699C23.748 25.1699 25.1699 23.7617 25.1699 20.9453L25.1699 4.23828C25.1699 1.42188 23.748 0 20.877 0L4.29297 0C1.43555 0 0 1.42188 0 4.23828L0 20.9453C0 23.7617 1.43555 25.1699 4.29297 25.1699Z" style="fill:var(--color-0,hsl(0 0 0/0.85))"></path>
  <path d="M7.95703 18.5664C5.1543 18.5664 4.30664 15.4219 4.30664 12.5781C4.30664 9.73438 5.1543 6.58984 7.95703 6.58984C10.7598 6.58984 11.6074 9.73438 11.6074 12.5781C11.6074 15.4219 10.7598 18.5664 7.95703 18.5664ZM7.95703 16.8848C9.10547 16.8848 9.54297 15.0254 9.54297 12.5781C9.54297 10.1172 9.10547 8.27148 7.95703 8.27148C6.80859 8.27148 6.37109 10.1172 6.37109 12.5781C6.37109 15.0254 6.80859 16.8848 7.95703 16.8848ZM16.9805 18.5664C14.1094 18.5664 13.248 15.3809 13.248 12.7148C13.248 9.85742 14.0957 6.61719 16.9941 6.61719C18.4023 6.61719 19.6328 7.36914 19.9199 8.58594C19.9746 8.76367 20.002 8.94141 20.002 9.0918C20.002 9.55664 19.7559 9.93945 19.168 9.93945C18.7168 9.93945 18.457 9.74805 18.252 9.31055C18.0195 8.72266 17.582 8.27148 16.9531 8.27148C15.3809 8.27148 15.1895 11.1016 15.1895 12.6602C15.1895 12.7012 15.1895 12.7559 15.1895 12.8105L15.2441 12.8105C15.5723 11.6074 16.4336 10.8418 17.5684 10.8418C19.4414 10.8418 20.3574 12.6465 20.3574 14.5469C20.3574 16.7617 19.127 18.5664 16.9805 18.5664ZM16.9531 16.9121C17.9102 16.9121 18.375 15.668 18.375 14.6426C18.4023 13.6035 17.9785 12.3867 16.9395 12.3867C15.9277 12.3867 15.4629 13.5488 15.4629 14.5879C15.4629 15.5859 15.873 16.9121 16.9531 16.9121Z" style="fill:var(--color-1,white)"></path>
 </g>
</svg>