<?xml version="1.0" encoding="UTF-8"?>
<!--Generator: Apple Native CoreSVG 326-->
<!DOCTYPE svg
PUBLIC "-//W3C//DTD SVG 1.1//EN"
       "http://www.w3.org/Graphics/SVG/1.1/DTD/svg11.dtd">
<svg version="1.1" xmlns="http://www.w3.org/2000/svg" xmlns:xlink="http://www.w3.org/1999/xlink" viewBox="0 0 28.2461 27.9043">
 <g>
  <rect height="27.9043" opacity="0" width="28.2461" x="0" y="0"/>
  <path d="M13.9453 27.8906C21.6426 27.8906 27.8906 21.6289 27.8906 13.9453C27.8906 6.24805 21.6426 0 13.9453 0C6.26172 0 0 6.24805 0 13.9453C0 21.6289 6.26172 27.8906 13.9453 27.8906Z" fill="white" fill-opacity="0.85"/>
  <path d="M10.0215 19.9336C7.20508 19.9336 6.37109 16.7891 6.37109 13.9453C6.37109 11.1016 7.20508 7.95703 10.0215 7.95703C12.8379 7.95703 13.6855 11.1016 13.6855 13.9453C13.6855 16.7891 12.8379 19.9336 10.0215 19.9336ZM10.0215 18.252C11.1699 18.252 11.6074 16.3926 11.6074 13.9453C11.6074 11.4844 11.1699 9.63867 10.0215 9.63867C8.87305 9.63867 8.43555 11.4844 8.43555 13.9453C8.43555 16.3926 8.87305 18.252 10.0215 18.252ZM16.8984 19.8379C16.2148 19.8379 15.9688 19.373 15.9688 18.9629C15.9688 18.6211 16.0098 18.4434 16.1328 18.1289L19.25 10.0488L19.25 9.92578L15.627 9.92578C15.1484 9.92578 14.8203 9.57031 14.8203 9.07812C14.8203 8.59961 15.1484 8.24414 15.627 8.24414L20.1934 8.24414C20.8223 8.24414 21.3145 8.68164 21.3145 9.33789C21.3145 9.74805 21.2188 10.0898 21.0547 10.5273L17.8418 19.1133C17.6504 19.6328 17.418 19.8379 16.8984 19.8379Z" fill="white"/>
 </g>
</svg>
