<svg version="1.1" xmlns="http://www.w3.org/2000/svg" xmlns:xlink="http://www.w3.org/1999/xlink" viewBox="0 0 28.2461 27.9043">
 <g>
  
  <path d="M13.9453 27.8906C21.6426 27.8906 27.8906 21.6289 27.8906 13.9453C27.8906 6.24805 21.6426 0 13.9453 0C6.26172 0 0 6.24805 0 13.9453C0 21.6289 6.26172 27.8906 13.9453 27.8906Z" style="fill:var(--color-0,hsl(0 0 0/0.85))"></path>
  <path d="M9.47461 19.9336C6.6582 19.9336 5.81055 16.7891 5.81055 13.9453C5.81055 11.1016 6.6582 7.95703 9.47461 7.95703C12.2773 7.95703 13.125 11.1016 13.125 13.9453C13.125 16.7891 12.2773 19.9336 9.47461 19.9336ZM9.47461 18.252C10.623 18.252 11.0605 16.3926 11.0605 13.9453C11.0605 11.4844 10.623 9.63867 9.47461 9.63867C8.32617 9.63867 7.88867 11.4844 7.88867 13.9453C7.88867 16.3926 8.32617 18.252 9.47461 18.252ZM18.3887 19.8926C16.3379 19.8926 14.752 18.6621 14.752 16.5703C14.752 15.0391 15.668 13.9316 16.8848 13.6582L16.8848 13.6172C15.9688 13.3438 15.0664 12.4961 15.0664 11.0605C15.0664 9.07812 16.6523 8.01172 18.3887 8.01172C20.3984 8.01172 21.752 9.24219 21.752 11.0742C21.752 12.4141 20.9043 13.3301 19.9609 13.6172L19.9609 13.6582C21.082 13.918 22.0664 15.0254 22.0664 16.5703C22.0664 18.498 20.6309 19.8926 18.3887 19.8926ZM18.4023 12.9746C19.291 12.9746 19.7559 12.1953 19.7559 11.2656C19.7559 10.3633 19.3184 9.5293 18.4023 9.5293C17.5273 9.5293 17.0488 10.3633 17.0488 11.2656C17.0488 12.0996 17.5 12.9746 18.4023 12.9746ZM18.4023 18.3613C19.4277 18.3613 19.9336 17.459 19.9336 16.4062C19.9336 15.3398 19.4004 14.5059 18.4023 14.5059C17.377 14.5059 16.8711 15.3945 16.8711 16.4062C16.8711 17.459 17.377 18.3613 18.4023 18.3613Z" style="fill:var(--color-1,white)"></path>
 </g>
</svg>