<svg version="1.1" xmlns="http://www.w3.org/2000/svg" xmlns:xlink="http://www.w3.org/1999/xlink" viewBox="0 0 25.5254 25.1699">
 <g>
  
  <path d="M4.29297 25.1699L20.877 25.1699C23.748 25.1699 25.1699 23.7617 25.1699 20.9453L25.1699 4.23828C25.1699 1.42188 23.748 0 20.877 0L4.29297 0C1.43555 0 0 1.42188 0 4.23828L0 20.9453C0 23.7617 1.43555 25.1699 4.29297 25.1699ZM4.32031 22.9688C2.95312 22.9688 2.20117 22.2441 2.20117 20.8223L2.20117 4.36133C2.20117 2.93945 2.95312 2.20117 4.32031 2.20117L20.8496 2.20117C22.2031 2.20117 22.9688 2.93945 22.9688 4.36133L22.9688 20.8223C22.9688 22.2441 22.2031 22.9688 20.8496 22.9688Z" style="fill:var(--color-0,hsl(0 0 0/0.85))"></path>
  <path d="M8.25781 18.3887C10.9785 18.3887 11.7988 15.3262 11.7988 12.5781C11.7988 9.83008 10.9785 6.76758 8.25781 6.76758C5.53711 6.76758 4.7168 9.83008 4.7168 12.5781C4.7168 15.3262 5.53711 18.3887 8.25781 18.3887ZM8.25781 16.7617C7.13672 16.7617 6.71289 14.9434 6.71289 12.5781C6.71289 10.1992 7.13672 8.38086 8.25781 8.38086C9.37891 8.38086 9.80273 10.1992 9.80273 12.5781C9.80273 14.9434 9.37891 16.7617 8.25781 16.7617ZM16.9121 18.3477C19.0723 18.3477 20.4531 16.9941 20.4531 15.1211C20.4531 13.6309 19.5098 12.5508 18.416 12.3047L18.416 12.2637C19.332 11.9766 20.1523 11.0879 20.1523 9.78906C20.1523 8.02539 18.8398 6.82227 16.9121 6.82227C15.2168 6.82227 13.6855 7.86133 13.6855 9.77539C13.6855 11.1699 14.5605 11.9902 15.4355 12.2637L15.4355 12.3047C14.2598 12.5645 13.3711 13.6445 13.3711 15.1211C13.3711 17.1445 14.9023 18.3477 16.9121 18.3477ZM16.9121 11.6348C16.0371 11.6348 15.5859 10.7871 15.5859 9.98047C15.5859 9.10547 16.0645 8.28516 16.9121 8.28516C17.8008 8.28516 18.2246 9.10547 18.2246 9.98047C18.2246 10.8828 17.7734 11.6348 16.9121 11.6348ZM16.9121 16.8711C15.9141 16.8711 15.4219 15.9824 15.4219 14.9707C15.4219 13.9863 15.9277 13.1113 16.9121 13.1113C17.8828 13.1113 18.4023 13.9316 18.4023 14.9707C18.4023 15.9824 17.9102 16.8711 16.9121 16.8711Z" style="fill:var(--color-1,hsl(0 0 0/0.85))"></path>
 </g>
</svg>