<?xml version="1.0" encoding="UTF-8"?>
<!--Generator: Apple Native CoreSVG 326-->
<!DOCTYPE svg
PUBLIC "-//W3C//DTD SVG 1.1//EN"
       "http://www.w3.org/Graphics/SVG/1.1/DTD/svg11.dtd">
<svg version="1.1" xmlns="http://www.w3.org/2000/svg" xmlns:xlink="http://www.w3.org/1999/xlink" viewBox="0 0 28.2461 27.9043">
 <g>
  <rect height="27.9043" opacity="0" width="28.2461" x="0" y="0"/>
  <path d="M13.9453 27.8906C21.6426 27.8906 27.8906 21.6289 27.8906 13.9453C27.8906 6.24805 21.6426 0 13.9453 0C6.26172 0 0 6.24805 0 13.9453C0 21.6289 6.26172 27.8906 13.9453 27.8906Z" fill="white" fill-opacity="0.85"/>
  <path d="M9.55664 19.9336C6.75391 19.9336 5.90625 16.7891 5.90625 13.9453C5.90625 11.1016 6.75391 7.95703 9.55664 7.95703C12.373 7.95703 13.2207 11.1016 13.2207 13.9453C13.2207 16.7891 12.373 19.9336 9.55664 19.9336ZM9.55664 18.252C10.7051 18.252 11.1426 16.3926 11.1426 13.9453C11.1426 11.4844 10.7051 9.63867 9.55664 9.63867C8.4082 9.63867 7.9707 11.4844 7.9707 13.9453C7.9707 16.3926 8.4082 18.252 9.55664 18.252ZM17.5684 15.709C15.709 15.709 14.793 13.9043 14.793 12.0039C14.793 9.78906 16.0371 7.98438 18.1836 7.98438C21.0273 7.98438 21.8887 11.1699 21.8887 13.8359C21.8887 16.7207 21.041 19.9199 18.1562 19.9199C16.748 19.9199 15.5176 19.1816 15.2168 17.9512C15.1621 17.7871 15.1348 17.6094 15.1348 17.4453C15.1348 16.9805 15.3809 16.584 15.9824 16.584C16.3926 16.584 16.6797 16.7617 16.8848 17.2266C17.1445 17.8281 17.5684 18.2656 18.1973 18.2656C19.7695 18.2656 19.9473 15.4492 19.9473 13.8906C19.9473 13.8496 19.9473 13.7949 19.9473 13.7402L19.9062 13.7402C19.5918 14.9434 18.7168 15.709 17.5684 15.709ZM18.2109 14.1504C19.2227 14.1504 19.6875 13.002 19.6875 11.9082C19.6875 10.8555 19.2637 9.63867 18.2109 9.63867C17.2266 9.63867 16.748 10.8555 16.748 11.9082C16.748 12.9609 17.1719 14.1504 18.2109 14.1504Z" fill="white"/>
 </g>
</svg>
