<?xml version="1.0" encoding="UTF-8"?>
<!--Generator: Apple Native CoreSVG 326-->
<!DOCTYPE svg
PUBLIC "-//W3C//DTD SVG 1.1//EN"
       "http://www.w3.org/Graphics/SVG/1.1/DTD/svg11.dtd">
<svg version="1.1" xmlns="http://www.w3.org/2000/svg" xmlns:xlink="http://www.w3.org/1999/xlink" viewBox="0 0 25.5254 25.1699">
 <g>
  <rect height="25.1699" opacity="0" width="25.5254" x="0" y="0"/>
  <path d="M4.29297 25.1699L20.877 25.1699C23.748 25.1699 25.1699 23.7617 25.1699 20.9453L25.1699 4.23828C25.1699 1.42188 23.748 0 20.877 0L4.29297 0C1.43555 0 0 1.42188 0 4.23828L0 20.9453C0 23.7617 1.43555 25.1699 4.29297 25.1699Z" fill="white" fill-opacity="0.85"/>
  <path d="M8.20312 18.5664C5.40039 18.5664 4.55273 15.4219 4.55273 12.5781C4.55273 9.73438 5.40039 6.58984 8.20312 6.58984C11.0195 6.58984 11.8672 9.73438 11.8672 12.5781C11.8672 15.4219 11.0195 18.5664 8.20312 18.5664ZM8.20312 16.8848C9.35156 16.8848 9.78906 15.0254 9.78906 12.5781C9.78906 10.1172 9.35156 8.27148 8.20312 8.27148C7.05469 8.27148 6.61719 10.1172 6.61719 12.5781C6.61719 15.0254 7.05469 16.8848 8.20312 16.8848ZM16.2148 14.3418C14.3555 14.3418 13.4395 12.5371 13.4395 10.6367C13.4395 8.42188 14.6836 6.61719 16.8301 6.61719C19.6875 6.61719 20.5352 9.80273 20.5352 12.4688C20.5352 15.3535 19.6875 18.5527 16.8027 18.5527C15.3945 18.5527 14.1641 17.8145 13.8633 16.584C13.8223 16.4199 13.7812 16.2422 13.7812 16.0781C13.7812 15.6133 14.0273 15.2168 14.6289 15.2168C15.0527 15.2168 15.3262 15.3945 15.5312 15.8594C15.791 16.4609 16.2148 16.8984 16.8438 16.8984C18.416 16.8984 18.6074 14.082 18.6074 12.5234C18.6074 12.4824 18.6074 12.4277 18.6074 12.373L18.5527 12.373C18.2383 13.5762 17.377 14.3418 16.2148 14.3418ZM16.8574 12.7832C17.8691 12.7832 18.334 11.6348 18.334 10.541C18.334 9.48828 17.9102 8.27148 16.8574 8.27148C15.873 8.27148 15.3945 9.48828 15.3945 10.541C15.3945 11.5938 15.8184 12.7832 16.8574 12.7832Z" fill="white"/>
 </g>
</svg>
