<?xml version="1.0" encoding="UTF-8"?>
<!--Generator: Apple Native CoreSVG 326-->
<!DOCTYPE svg
PUBLIC "-//W3C//DTD SVG 1.1//EN"
       "http://www.w3.org/Graphics/SVG/1.1/DTD/svg11.dtd">
<svg version="1.1" xmlns="http://www.w3.org/2000/svg" xmlns:xlink="http://www.w3.org/1999/xlink" viewBox="0 0 25.5254 25.1699">
 <g>
  <rect height="25.1699" opacity="0" width="25.5254" x="0" y="0"/>
  <path d="M4.29297 25.1699L20.877 25.1699C23.748 25.1699 25.1699 23.7617 25.1699 20.9453L25.1699 4.23828C25.1699 1.42188 23.748 0 20.877 0L4.29297 0C1.43555 0 0 1.42188 0 4.23828L0 20.9453C0 23.7617 1.43555 25.1699 4.29297 25.1699ZM4.32031 22.9688C2.95312 22.9688 2.20117 22.2441 2.20117 20.8223L2.20117 4.36133C2.20117 2.93945 2.95312 2.20117 4.32031 2.20117L20.8496 2.20117C22.2031 2.20117 22.9688 2.93945 22.9688 4.36133L22.9688 20.8223C22.9688 22.2441 22.2031 22.9688 20.8496 22.9688Z" fill="white" fill-opacity="0.85"/>
  <path d="M8.33984 18.3887C11.0605 18.3887 11.8809 15.3262 11.8809 12.5781C11.8809 9.83008 11.0605 6.76758 8.33984 6.76758C5.61914 6.76758 4.79883 9.83008 4.79883 12.5781C4.79883 15.3262 5.61914 18.3887 8.33984 18.3887ZM8.33984 16.7617C7.21875 16.7617 6.79492 14.9434 6.79492 12.5781C6.79492 10.1992 7.21875 8.38086 8.33984 8.38086C9.46094 8.38086 9.88477 10.1992 9.88477 12.5781C9.88477 14.9434 9.46094 16.7617 8.33984 16.7617ZM16.1055 14.2871C17.2266 14.2871 18.0605 13.5488 18.375 12.373L18.4297 12.373C18.4297 12.4277 18.4297 12.4824 18.4297 12.5234C18.4297 14.041 18.2383 16.7754 16.707 16.7754C16.0918 16.7754 15.6816 16.3516 15.4355 15.7637C15.2305 15.3125 14.9707 15.1348 14.5605 15.1348C13.9863 15.1348 13.7402 15.5176 13.7402 15.9688C13.7402 16.1328 13.7812 16.2969 13.8223 16.4609C14.1094 17.6504 15.2988 18.375 16.666 18.375C19.4688 18.375 20.2891 15.2715 20.2891 12.4688C20.2891 9.88477 19.4688 6.79492 16.6934 6.79492C14.6152 6.79492 13.4121 8.54492 13.4121 10.6914C13.4121 12.5371 14.3008 14.2871 16.1055 14.2871ZM16.7207 12.7832C15.709 12.7832 15.2988 11.6211 15.2988 10.6094C15.2988 9.58398 15.7637 8.38086 16.7207 8.38086C17.7461 8.38086 18.1699 9.58398 18.1699 10.6094C18.1699 11.6621 17.7051 12.7832 16.7207 12.7832Z" fill="white" fill-opacity="0.85"/>
 </g>
</svg>
