<svg version="1.1" xmlns="http://www.w3.org/2000/svg" xmlns:xlink="http://www.w3.org/1999/xlink" viewBox="0 0 25.5254 25.1699">
 <g>
  
  <path d="M4.29297 25.1699L20.877 25.1699C23.748 25.1699 25.1699 23.7617 25.1699 20.9453L25.1699 4.23828C25.1699 1.42188 23.748 0 20.877 0L4.29297 0C1.43555 0 0 1.42188 0 4.23828L0 20.9453C0 23.7617 1.43555 25.1699 4.29297 25.1699Z" style="fill:var(--color-0,hsl(0 0 0/0.85))"></path>
  <path d="M12.5918 19.291C9.61133 19.291 7.61523 16.5977 7.61523 12.5781C7.61523 8.55859 9.61133 5.86523 12.5918 5.86523C15.5859 5.86523 17.582 8.55859 17.582 12.5781C17.582 16.5977 15.5859 19.291 12.5918 19.291ZM12.5918 17.4727C14.2734 17.4727 15.4082 15.5176 15.4082 12.5781C15.4082 9.63867 14.2734 7.68359 12.5918 7.68359C10.9238 7.68359 9.77539 9.63867 9.77539 12.5781C9.77539 15.5176 10.9238 17.4727 12.5918 17.4727Z" style="fill:var(--color-1,white)"></path>
 </g>
</svg>