<svg version="1.1" xmlns="http://www.w3.org/2000/svg" xmlns:xlink="http://www.w3.org/1999/xlink" viewBox="0 0 25.5254 25.1699">
 <g>
  
  <path d="M4.29297 25.1699L20.877 25.1699C23.748 25.1699 25.1699 23.7617 25.1699 20.9453L25.1699 4.23828C25.1699 1.42188 23.748 0 20.877 0L4.29297 0C1.43555 0 0 1.42188 0 4.23828L0 20.9453C0 23.7617 1.43555 25.1699 4.29297 25.1699ZM4.32031 22.9688C2.95312 22.9688 2.20117 22.2441 2.20117 20.8223L2.20117 4.36133C2.20117 2.93945 2.95312 2.20117 4.32031 2.20117L20.8496 2.20117C22.2031 2.20117 22.9688 2.93945 22.9688 4.36133L22.9688 20.8223C22.9688 22.2441 22.2031 22.9688 20.8496 22.9688Z" style="fill:var(--color-0,hsl(0 0 0/0.85))"></path>
  <path d="M12.5918 19.0859C15.4902 19.0859 17.4316 16.4746 17.4316 12.5781C17.4316 8.68164 15.4902 6.07031 12.5918 6.07031C9.70703 6.07031 7.76562 8.68164 7.76562 12.5781C7.76562 16.4746 9.70703 19.0859 12.5918 19.0859ZM12.5918 17.3359C10.9648 17.3359 9.85742 15.4355 9.85742 12.5781C9.85742 9.7207 10.9648 7.82031 12.5918 7.82031C14.2324 7.82031 15.3262 9.7207 15.3262 12.5781C15.3262 15.4355 14.2324 17.3359 12.5918 17.3359Z" style="fill:var(--color-1,hsl(0 0 0/0.85))"></path>
 </g>
</svg>