<?xml version="1.0" encoding="UTF-8"?>
<!--Generator: Apple Native CoreSVG 326-->
<!DOCTYPE svg
PUBLIC "-//W3C//DTD SVG 1.1//EN"
       "http://www.w3.org/Graphics/SVG/1.1/DTD/svg11.dtd">
<svg version="1.1" xmlns="http://www.w3.org/2000/svg" xmlns:xlink="http://www.w3.org/1999/xlink" viewBox="0 0 28.2461 27.9043">
 <g>
  <rect height="27.9043" opacity="0" width="28.2461" x="0" y="0"/>
  <path d="M13.9453 27.8906C21.6426 27.8906 27.8906 21.6289 27.8906 13.9453C27.8906 6.24805 21.6426 0 13.9453 0C6.26172 0 0 6.24805 0 13.9453C0 21.6289 6.26172 27.8906 13.9453 27.8906Z" fill="white" fill-opacity="0.85"/>
  <path d="M14.7109 20.6582C14 20.6582 13.5898 20.1797 13.5898 19.3867L13.5898 9.69336L13.4941 9.69336L11.6758 10.8965C11.3477 11.1152 11.1973 11.1426 10.9785 11.1426C10.5273 11.1426 10.1719 10.7324 10.1719 10.2949C10.1719 9.93945 10.3086 9.73438 10.6094 9.50195L13.1523 7.7793C13.7539 7.36914 14.123 7.23242 14.6562 7.23242C15.4082 7.23242 15.8457 7.68359 15.8457 8.50391L15.8457 19.3867C15.8457 20.1797 15.4355 20.6582 14.7109 20.6582Z" fill="white"/>
 </g>
</svg>
