<?xml version="1.0" encoding="UTF-8"?>
<!--Generator: Apple Native CoreSVG 326-->
<!DOCTYPE svg
PUBLIC "-//W3C//DTD SVG 1.1//EN"
       "http://www.w3.org/Graphics/SVG/1.1/DTD/svg11.dtd">
<svg version="1.1" xmlns="http://www.w3.org/2000/svg" xmlns:xlink="http://www.w3.org/1999/xlink" viewBox="0 0 25.5254 20.6309">
 <g>
  <rect height="20.6309" opacity="0" width="25.5254" x="0" y="0"/>
  <path d="M0 19.5234C0 20.125 0.492188 20.6309 1.09375 20.6309C1.70898 20.6309 2.20117 20.125 2.20117 19.5234L2.20117 1.12109C2.20117 0.519531 1.70898 0.0273438 1.09375 0.0273438C0.492188 0.0273438 0 0.519531 0 1.12109ZM22.9688 19.5234C22.9688 20.125 23.4746 20.6309 24.0762 20.6309C24.6777 20.6309 25.1699 20.125 25.1699 19.5234L25.1699 1.12109C25.1699 0.519531 24.6777 0.0273438 24.0762 0.0273438C23.4746 0.0273438 22.9688 0.519531 22.9688 1.12109Z" fill="white" fill-opacity="0.85"/>
  <path d="M13.2617 16.707C13.9316 16.707 14.3418 16.2285 14.3418 15.5586L14.3418 5.72852C14.3418 4.94922 13.8633 4.51172 13.0977 4.51172C12.4824 4.51172 12.0312 4.77148 11.5391 5.1543L9.77539 6.45312C9.47461 6.68555 9.2832 6.94531 9.2832 7.32812C9.2832 7.76562 9.61133 8.12109 10.0625 8.12109C10.2812 8.12109 10.4316 8.05273 10.6094 7.91602L12.1543 6.75391L12.1816 6.75391L12.1816 15.5586C12.1816 16.2422 12.5918 16.707 13.2617 16.707Z" fill="white" fill-opacity="0.85"/>
 </g>
</svg>
