<?xml version="1.0" encoding="UTF-8"?>
<!--Generator: Apple Native CoreSVG 326-->
<!DOCTYPE svg
PUBLIC "-//W3C//DTD SVG 1.1//EN"
       "http://www.w3.org/Graphics/SVG/1.1/DTD/svg11.dtd">
<svg version="1.1" xmlns="http://www.w3.org/2000/svg" xmlns:xlink="http://www.w3.org/1999/xlink" viewBox="0 0 25.5254 25.1699">
 <g>
  <rect height="25.1699" opacity="0" width="25.5254" x="0" y="0"/>
  <path d="M4.29297 25.1699L20.877 25.1699C23.748 25.1699 25.1699 23.7617 25.1699 20.9453L25.1699 4.23828C25.1699 1.42188 23.748 0 20.877 0L4.29297 0C1.43555 0 0 1.42188 0 4.23828L0 20.9453C0 23.7617 1.43555 25.1699 4.29297 25.1699Z" fill="white" fill-opacity="0.85"/>
  <path d="M13.3574 19.291C12.6465 19.291 12.2363 18.8125 12.2363 18.0195L12.2363 8.32617L12.1406 8.32617L10.3223 9.5293C9.99414 9.74805 9.84375 9.77539 9.625 9.77539C9.17383 9.77539 8.81836 9.36523 8.81836 8.92773C8.81836 8.57227 8.95508 8.36719 9.25586 8.13477L11.7988 6.41211C12.4004 6.00195 12.7695 5.86523 13.3027 5.86523C14.0684 5.86523 14.5059 6.31641 14.5059 7.13672L14.5059 18.0195C14.5059 18.8125 14.082 19.291 13.3574 19.291Z" fill="white"/>
 </g>
</svg>
