<?xml version="1.0" encoding="UTF-8"?>
<!--Generator: Apple Native CoreSVG 326-->
<!DOCTYPE svg
PUBLIC "-//W3C//DTD SVG 1.1//EN"
       "http://www.w3.org/Graphics/SVG/1.1/DTD/svg11.dtd">
<svg version="1.1" xmlns="http://www.w3.org/2000/svg" xmlns:xlink="http://www.w3.org/1999/xlink" viewBox="0 0 28.2461 27.9043">
 <g>
  <rect height="27.9043" opacity="0" width="28.2461" x="0" y="0"/>
  <path d="M13.9453 27.8906C21.6426 27.8906 27.8906 21.6426 27.8906 13.9453C27.8906 6.24805 21.6426 0 13.9453 0C6.24805 0 0 6.24805 0 13.9453C0 21.6426 6.24805 27.8906 13.9453 27.8906ZM13.9453 25.5664C7.51953 25.5664 2.32422 20.3711 2.32422 13.9453C2.32422 7.51953 7.51953 2.32422 13.9453 2.32422C20.3711 2.32422 25.5664 7.51953 25.5664 13.9453C25.5664 20.3711 20.3711 25.5664 13.9453 25.5664Z" fill="white" fill-opacity="0.85"/>
  <path d="M10.3223 19.6191C10.8555 19.6191 11.3066 19.168 11.3066 18.6211L11.3066 9.35156C11.3066 8.6543 10.8691 8.24414 10.1719 8.24414C9.59766 8.24414 9.13281 8.55859 8.80469 8.80469L7.30078 9.9668C7.06836 10.1582 6.87695 10.418 6.87695 10.7734C6.87695 11.1973 7.16406 11.498 7.57422 11.498C7.79297 11.498 7.92969 11.4297 8.06641 11.334L9.32422 10.3223L9.32422 18.6211C9.32422 19.168 9.77539 19.6191 10.3223 19.6191ZM17.0215 19.7559C19.7422 19.7559 20.5625 16.6934 20.5625 13.9453C20.5625 11.1973 19.7422 8.13477 17.0215 8.13477C14.3008 8.13477 13.4805 11.1973 13.4805 13.9453C13.4805 16.6934 14.3008 19.7559 17.0215 19.7559ZM17.0215 18.1289C15.9004 18.1289 15.4766 16.3105 15.4766 13.9453C15.4766 11.5664 15.9004 9.74805 17.0215 9.74805C18.1426 9.74805 18.5664 11.5664 18.5664 13.9453C18.5664 16.3105 18.1426 18.1289 17.0215 18.1289Z" fill="white" fill-opacity="0.85"/>
 </g>
</svg>
