<?xml version="1.0" encoding="UTF-8"?>
<!--Generator: Apple Native CoreSVG 326-->
<!DOCTYPE svg
PUBLIC "-//W3C//DTD SVG 1.1//EN"
       "http://www.w3.org/Graphics/SVG/1.1/DTD/svg11.dtd">
<svg version="1.1" xmlns="http://www.w3.org/2000/svg" xmlns:xlink="http://www.w3.org/1999/xlink" viewBox="0 0 25.5254 20.6309">
 <g>
  <rect height="20.6309" opacity="0" width="25.5254" x="0" y="0"/>
  <path d="M0 19.5234C0 20.125 0.492188 20.6309 1.09375 20.6309C1.70898 20.6309 2.20117 20.125 2.20117 19.5234L2.20117 1.12109C2.20117 0.519531 1.70898 0.0273438 1.09375 0.0273438C0.492188 0.0273438 0 0.519531 0 1.12109ZM22.9688 19.5234C22.9688 20.125 23.4746 20.6309 24.0762 20.6309C24.6777 20.6309 25.1699 20.125 25.1699 19.5234L25.1699 1.12109C25.1699 0.519531 24.6777 0.0273438 24.0762 0.0273438C23.4746 0.0273438 22.9688 0.519531 22.9688 1.12109Z" fill="white" fill-opacity="0.85"/>
  <path d="M8.73633 16.2559C9.36523 16.2559 9.74805 15.8184 9.74805 15.1895L9.74805 6.0293C9.74805 5.31836 9.29688 4.89453 8.57227 4.89453C7.99805 4.89453 7.58789 5.1543 7.12305 5.49609L5.48242 6.71289C5.20898 6.93164 5.03125 7.16406 5.03125 7.51953C5.03125 7.94336 5.33203 8.25781 5.74219 8.25781C5.94727 8.25781 6.09766 8.20312 6.26172 8.08008L7.69727 7L7.72461 7L7.72461 15.1895C7.72461 15.8184 8.10742 16.2559 8.73633 16.2559ZM16.0508 16.3652C18.9082 16.3652 19.9199 13.4258 19.9199 10.5547C19.9199 7.71094 18.9082 4.79883 16.0508 4.79883C13.1934 4.79883 12.1953 7.72461 12.1953 10.5684C12.1953 13.4395 13.207 16.3652 16.0508 16.3652ZM16.0508 14.7246C14.8477 14.7246 14.2324 12.9336 14.2324 10.5684C14.2324 8.2168 14.8477 6.43945 16.0508 6.43945C17.2676 6.43945 17.8691 8.23047 17.8691 10.5684C17.8691 12.9336 17.2676 14.7246 16.0508 14.7246Z" fill="white" fill-opacity="0.85"/>
 </g>
</svg>
