<?xml version="1.0" encoding="UTF-8"?>
<!--Generator: Apple Native CoreSVG 326-->
<!DOCTYPE svg
PUBLIC "-//W3C//DTD SVG 1.1//EN"
       "http://www.w3.org/Graphics/SVG/1.1/DTD/svg11.dtd">
<svg version="1.1" xmlns="http://www.w3.org/2000/svg" xmlns:xlink="http://www.w3.org/1999/xlink" viewBox="0 0 28.2461 27.9043">
 <g>
  <rect height="27.9043" opacity="0" width="28.2461" x="0" y="0"/>
  <path d="M13.9453 27.8906C21.6426 27.8906 27.8906 21.6289 27.8906 13.9453C27.8906 6.24805 21.6426 0 13.9453 0C6.26172 0 0 6.24805 0 13.9453C0 21.6289 6.26172 27.8906 13.9453 27.8906Z" fill="white" fill-opacity="0.85"/>
  <path d="M11.1562 19.7969C10.582 19.7969 10.1172 19.332 10.1172 18.7578L10.1172 10.2129L8.81836 11.252C8.68164 11.3613 8.53125 11.4297 8.32617 11.4297C7.88867 11.4297 7.58789 11.1152 7.58789 10.6777C7.58789 10.3086 7.7793 10.0352 8.03906 9.84375L9.58398 8.64062C9.91211 8.39453 10.3906 8.06641 10.9922 8.06641C11.7305 8.06641 12.1816 8.49023 12.1816 9.21484L12.1816 18.7578C12.1816 19.332 11.7168 19.7969 11.1562 19.7969ZM17.6641 19.7969C17.0898 19.7969 16.625 19.332 16.625 18.7578L16.625 10.2129L15.3262 11.252C15.1895 11.3613 15.0391 11.4297 14.8203 11.4297C14.3965 11.4297 14.0957 11.1152 14.0957 10.6777C14.0957 10.3086 14.3008 10.0352 14.5469 9.84375L16.0918 8.64062C16.4199 8.39453 16.8984 8.06641 17.5 8.06641C18.2383 8.06641 18.6895 8.49023 18.6895 9.21484L18.6895 18.7578C18.6895 19.332 18.2246 19.7969 17.6641 19.7969Z" fill="white"/>
 </g>
</svg>
