<svg version="1.1" xmlns="http://www.w3.org/2000/svg" xmlns:xlink="http://www.w3.org/1999/xlink" viewBox="0 0 28.2461 27.9043">
 <g>
  
  <path d="M13.9453 27.8906C21.6426 27.8906 27.8906 21.6426 27.8906 13.9453C27.8906 6.24805 21.6426 0 13.9453 0C6.24805 0 0 6.24805 0 13.9453C0 21.6426 6.24805 27.8906 13.9453 27.8906ZM13.9453 25.5664C7.51953 25.5664 2.32422 20.3711 2.32422 13.9453C2.32422 7.51953 7.51953 2.32422 13.9453 2.32422C20.3711 2.32422 25.5664 7.51953 25.5664 13.9453C25.5664 20.3711 20.3711 25.5664 13.9453 25.5664Z" style="fill:var(--color-0,hsl(0 0 0/0.85))"></path>
  <path d="M11.2109 19.6191C11.7441 19.6191 12.1953 19.168 12.1953 18.6211L12.1953 9.35156C12.1953 8.6543 11.7578 8.24414 11.0469 8.24414C10.4727 8.24414 10.0078 8.55859 9.69336 8.80469L8.18945 9.9668C7.94336 10.1582 7.75195 10.418 7.75195 10.7734C7.75195 11.1973 8.03906 11.498 8.46289 11.498C8.66797 11.498 8.80469 11.4297 8.94141 11.334L10.1992 10.3223L10.1992 18.6211C10.1992 19.168 10.6504 19.6191 11.2109 19.6191ZM17.5137 19.6191C18.0469 19.6191 18.498 19.168 18.498 18.6211L18.498 9.35156C18.498 8.6543 18.0605 8.24414 17.3496 8.24414C16.7754 8.24414 16.3105 8.55859 15.9961 8.80469L14.4922 9.9668C14.2461 10.1582 14.0547 10.418 14.0547 10.7734C14.0547 11.1973 14.3418 11.498 14.752 11.498C14.9707 11.498 15.1074 11.4297 15.2441 11.334L16.502 10.3223L16.502 18.6211C16.502 19.168 16.9531 19.6191 17.5137 19.6191Z" style="fill:var(--color-1,hsl(0 0 0/0.85))"></path>
 </g>
</svg>