<?xml version="1.0" encoding="UTF-8"?>
<!--Generator: Apple Native CoreSVG 326-->
<!DOCTYPE svg
PUBLIC "-//W3C//DTD SVG 1.1//EN"
       "http://www.w3.org/Graphics/SVG/1.1/DTD/svg11.dtd">
<svg version="1.1" xmlns="http://www.w3.org/2000/svg" xmlns:xlink="http://www.w3.org/1999/xlink" viewBox="0 0 28.2461 27.9043">
 <g>
  <rect height="27.9043" opacity="0" width="28.2461" x="0" y="0"/>
  <path d="M13.9453 27.8906C21.6426 27.8906 27.8906 21.6289 27.8906 13.9453C27.8906 6.24805 21.6426 0 13.9453 0C6.26172 0 0 6.24805 0 13.9453C0 21.6289 6.26172 27.8906 13.9453 27.8906Z" fill="white" fill-opacity="0.85"/>
  <path d="M10.2812 19.7969C9.70703 19.7969 9.24219 19.332 9.24219 18.7715L9.24219 10.2129L7.95703 11.2656C7.80664 11.3613 7.66992 11.4297 7.4375 11.4297C7.01367 11.4297 6.71289 11.1152 6.71289 10.6777C6.71289 10.3086 6.91797 10.0352 7.16406 9.84375L8.70898 8.6543C9.05078 8.39453 9.5293 8.06641 10.1172 8.06641C10.8555 8.06641 11.3066 8.49023 11.3066 9.21484L11.3066 18.7715C11.3066 19.332 10.8418 19.7969 10.2812 19.7969ZM14.4102 19.6465C13.7676 19.6465 13.4531 19.3047 13.4531 18.8262C13.4531 18.3887 13.7266 18.0332 13.9863 17.6914L16.4336 14.5742C17.1719 13.6172 17.9648 12.4688 17.9648 11.334C17.9648 10.3359 17.4863 9.59766 16.6523 9.59766C15.832 9.59766 15.4766 10.1855 15.2305 11.1289C15.0664 11.5938 14.793 11.8125 14.3145 11.8125C13.7812 11.8125 13.4668 11.4434 13.4668 10.9102C13.4668 9.44727 14.834 7.95703 16.6523 7.95703C18.5938 7.95703 19.8926 9.33789 19.8926 11.2383C19.8926 12.4824 19.4277 13.5215 18.0195 15.2715L15.9688 17.8691L15.9688 17.9922L19.3047 17.9922C19.7969 17.9922 20.1113 18.2793 20.1113 18.8262C20.1113 19.3184 19.8105 19.6465 19.3047 19.6465Z" fill="white"/>
 </g>
</svg>
