<svg version="1.1" xmlns="http://www.w3.org/2000/svg" xmlns:xlink="http://www.w3.org/1999/xlink" viewBox="0 0 28.2461 27.9043">
 <g>
  
  <path d="M13.9453 27.8906C21.6426 27.8906 27.8906 21.6426 27.8906 13.9453C27.8906 6.24805 21.6426 0 13.9453 0C6.24805 0 0 6.24805 0 13.9453C0 21.6426 6.24805 27.8906 13.9453 27.8906ZM13.9453 25.5664C7.51953 25.5664 2.32422 20.3711 2.32422 13.9453C2.32422 7.51953 7.51953 2.32422 13.9453 2.32422C20.3711 2.32422 25.5664 7.51953 25.5664 13.9453C25.5664 20.3711 20.3711 25.5664 13.9453 25.5664Z" style="fill:var(--color-0,hsl(0 0 0/0.85))"></path>
  <path d="M10.3633 19.6191C10.9102 19.6191 11.3613 19.168 11.3613 18.6211L11.3613 9.35156C11.3613 8.6543 10.9238 8.24414 10.2129 8.24414C9.63867 8.24414 9.17383 8.55859 8.8457 8.80469L7.3418 9.9668C7.10938 10.1582 6.91797 10.418 6.91797 10.7734C6.91797 11.1973 7.20508 11.498 7.61523 11.498C7.83398 11.498 7.9707 11.4297 8.10742 11.334L9.36523 10.3223L9.36523 18.6211C9.36523 19.168 9.81641 19.6191 10.3633 19.6191ZM14.3555 19.4688L19.0996 19.4688C19.5918 19.4688 19.8789 19.1543 19.8789 18.6758C19.8789 18.1562 19.5781 17.8691 19.0996 17.8691L15.8594 17.8691L15.8594 17.7598L17.8555 15.2305C19.2227 13.5352 19.6738 12.5234 19.6738 11.3203C19.6738 9.47461 18.416 8.13477 16.5293 8.13477C14.7793 8.13477 13.4531 9.58398 13.4531 11.0059C13.4531 11.5117 13.7539 11.8672 14.2734 11.8672C14.7246 11.8672 14.998 11.6621 15.1484 11.2109C15.3945 10.2949 15.7363 9.7207 16.5293 9.7207C17.3496 9.7207 17.8145 10.4453 17.8145 11.416C17.8145 12.5098 17.0488 13.6172 16.3242 14.5469L13.9453 17.582C13.6992 17.9102 13.4395 18.252 13.4395 18.6758C13.4395 19.1406 13.7402 19.4688 14.3555 19.4688Z" style="fill:var(--color-1,hsl(0 0 0/0.85))"></path>
 </g>
</svg>