<svg version="1.1" xmlns="http://www.w3.org/2000/svg" xmlns:xlink="http://www.w3.org/1999/xlink" viewBox="0 0 25.5254 25.1699">
 <g>
  
  <path d="M4.29297 25.1699L20.877 25.1699C23.748 25.1699 25.1699 23.7617 25.1699 20.9453L25.1699 4.23828C25.1699 1.42188 23.748 0 20.877 0L4.29297 0C1.43555 0 0 1.42188 0 4.23828L0 20.9453C0 23.7617 1.43555 25.1699 4.29297 25.1699ZM4.32031 22.9688C2.95312 22.9688 2.20117 22.2441 2.20117 20.8223L2.20117 4.36133C2.20117 2.93945 2.95312 2.20117 4.32031 2.20117L20.8496 2.20117C22.2031 2.20117 22.9688 2.93945 22.9688 4.36133L22.9688 20.8223C22.9688 22.2441 22.2031 22.9688 20.8496 22.9688Z" style="fill:var(--color-0,hsl(0 0 0/0.85))"></path>
  <path d="M9.02344 18.252C9.57031 18.252 10.0215 17.8008 10.0215 17.2539L10.0215 7.98438C10.0215 7.28711 9.58398 6.87695 8.87305 6.87695C8.29883 6.87695 7.83398 7.19141 7.51953 7.4375L6.01562 8.59961C5.76953 8.79102 5.57812 9.05078 5.57812 9.40625C5.57812 9.83008 5.86523 10.1309 6.27539 10.1309C6.49414 10.1309 6.63086 10.0625 6.76758 9.9668L8.02539 8.95508L8.02539 17.2539C8.02539 17.8008 8.47656 18.252 9.02344 18.252ZM13.0293 18.1016L17.7734 18.1016C18.252 18.1016 18.5391 17.7871 18.5391 17.3086C18.5391 16.7891 18.2383 16.502 17.7734 16.502L14.5195 16.502L14.5195 16.3926L16.5156 13.8633C17.8828 12.168 18.334 11.1562 18.334 9.95312C18.334 8.10742 17.0762 6.76758 15.1895 6.76758C13.4531 6.76758 12.1133 8.2168 12.1133 9.63867C12.1133 10.1445 12.4141 10.5 12.9336 10.5C13.3848 10.5 13.6719 10.2949 13.8086 9.84375C14.0684 8.92773 14.3965 8.35352 15.1895 8.35352C16.0098 8.35352 16.4746 9.07812 16.4746 10.0488C16.4746 11.1426 15.709 12.25 14.9844 13.1797L12.6055 16.2148C12.3594 16.543 12.0996 16.8848 12.0996 17.3086C12.0996 17.7734 12.4004 18.1016 13.0293 18.1016Z" style="fill:var(--color-1,hsl(0 0 0/0.85))"></path>
 </g>
</svg>