<svg version="1.1" xmlns="http://www.w3.org/2000/svg" xmlns:xlink="http://www.w3.org/1999/xlink" viewBox="0 0 28.2461 27.9043">
 <g>
  
  <path d="M13.9453 27.8906C21.6426 27.8906 27.8906 21.6289 27.8906 13.9453C27.8906 6.24805 21.6426 0 13.9453 0C6.26172 0 0 6.24805 0 13.9453C0 21.6289 6.26172 27.8906 13.9453 27.8906Z" style="fill:var(--color-0,hsl(0 0 0/0.85))"></path>
  <path d="M9.83008 19.7969C9.25586 19.7969 8.79102 19.332 8.79102 18.7578L8.79102 10.2129L7.50586 11.252C7.35547 11.3613 7.21875 11.4297 6.98633 11.4297C6.5625 11.4297 6.26172 11.1152 6.26172 10.6777C6.26172 10.3086 6.4668 10.0352 6.72656 9.84375L8.25781 8.64062C8.59961 8.39453 9.07812 8.06641 9.66602 8.06641C10.4043 8.06641 10.8555 8.49023 10.8555 9.21484L10.8555 18.7578C10.8555 19.332 10.3906 19.7969 9.83008 19.7969ZM18.252 19.8242C17.8145 19.8242 17.2812 19.5645 17.2812 18.8262L17.2812 17.418L14.123 17.418C13.4395 17.418 12.9609 16.9531 12.9609 16.2695C12.9609 15.832 13.043 15.4629 13.2891 14.916L15.791 9.44727C16.2012 8.57227 16.666 8.06641 17.6641 8.06641C18.5801 8.06641 19.2227 8.61328 19.2227 9.59766L19.2227 15.7773L19.7285 15.7773C20.2891 15.7773 20.5352 16.1328 20.5352 16.584C20.5352 17.0625 20.2754 17.418 19.7285 17.418L19.2227 17.418L19.2227 18.8262C19.2227 19.4961 18.7988 19.8242 18.252 19.8242ZM17.3223 15.8184L17.3223 9.84375L17.2676 9.84375L14.7109 15.7227L14.7109 15.8184Z" style="fill:var(--color-1,white)"></path>
 </g>
</svg>