<svg version="1.1" xmlns="http://www.w3.org/2000/svg" xmlns:xlink="http://www.w3.org/1999/xlink" viewBox="0 0 28.2461 27.9043">
 <g>
  
  <path d="M13.9453 27.8906C21.6426 27.8906 27.8906 21.6426 27.8906 13.9453C27.8906 6.24805 21.6426 0 13.9453 0C6.24805 0 0 6.24805 0 13.9453C0 21.6426 6.24805 27.8906 13.9453 27.8906ZM13.9453 25.5664C7.51953 25.5664 2.32422 20.3711 2.32422 13.9453C2.32422 7.51953 7.51953 2.32422 13.9453 2.32422C20.3711 2.32422 25.5664 7.51953 25.5664 13.9453C25.5664 20.3711 20.3711 25.5664 13.9453 25.5664Z" style="fill:var(--color-0,hsl(0 0 0/0.85))"></path>
  <path d="M9.92578 19.6191C10.4727 19.6191 10.9238 19.168 10.9238 18.6211L10.9238 9.35156C10.9238 8.6543 10.4863 8.24414 9.77539 8.24414C9.20117 8.24414 8.73633 8.55859 8.4082 8.80469L6.9043 9.9668C6.67188 10.1582 6.48047 10.418 6.48047 10.7734C6.48047 11.1973 6.76758 11.498 7.17773 11.498C7.39648 11.498 7.5332 11.4297 7.66992 11.334L8.92773 10.3223L8.92773 18.6211C8.92773 19.168 9.37891 19.6191 9.92578 19.6191ZM18.0879 19.6465C18.6074 19.6465 19.0312 19.332 19.0312 18.6758L19.0312 17.3086L19.5098 17.3086C20.043 17.3086 20.2891 16.9668 20.2891 16.502C20.2891 16.0645 20.0566 15.7227 19.5098 15.7227L19.0312 15.7227L19.0312 9.7207C19.0312 8.77734 18.4023 8.24414 17.5137 8.24414C16.5566 8.24414 16.1055 8.73633 15.709 9.58398L13.2754 14.8887C13.043 15.4219 12.9609 15.7773 12.9609 16.2012C12.9609 16.8574 13.4258 17.3086 14.082 17.3086L17.1445 17.3086L17.1445 18.6758C17.1445 19.4004 17.6641 19.6465 18.0879 19.6465ZM17.1855 15.7637L14.6426 15.7637L14.6426 15.668L17.1309 9.9668L17.1855 9.9668Z" style="fill:var(--color-1,hsl(0 0 0/0.85))"></path>
 </g>
</svg>