<svg version="1.1" xmlns="http://www.w3.org/2000/svg" xmlns:xlink="http://www.w3.org/1999/xlink" viewBox="0 0 25.5254 25.1699">
 <g>
  
  <path d="M4.29297 25.1699L20.877 25.1699C23.748 25.1699 25.1699 23.7617 25.1699 20.9453L25.1699 4.23828C25.1699 1.42188 23.748 0 20.877 0L4.29297 0C1.43555 0 0 1.42188 0 4.23828L0 20.9453C0 23.7617 1.43555 25.1699 4.29297 25.1699Z" style="fill:var(--color-0,hsl(0 0 0/0.85))"></path>
  <path d="M8.49023 18.4297C7.90234 18.4297 7.4375 17.9648 7.4375 17.3906L7.4375 8.8457L6.15234 9.88477C6.00195 9.99414 5.86523 10.0625 5.63281 10.0625C5.20898 10.0625 4.9082 9.74805 4.9082 9.31055C4.9082 8.94141 5.11328 8.66797 5.37305 8.47656L6.91797 7.27344C7.24609 7.02734 7.72461 6.69922 8.3125 6.69922C9.05078 6.69922 9.50195 7.12305 9.50195 7.84766L9.50195 17.3906C9.50195 17.9648 9.03711 18.4297 8.49023 18.4297ZM16.9121 18.457C16.4609 18.457 15.9277 18.1973 15.9277 17.459L15.9277 16.0508L12.7695 16.0508C12.0859 16.0508 11.6074 15.5859 11.6074 14.9023C11.6074 14.4648 11.6895 14.0957 11.9355 13.5488L14.4512 8.08008C14.8477 7.20508 15.3125 6.69922 16.3105 6.69922C17.2266 6.69922 17.8828 7.24609 17.8828 8.23047L17.8828 14.4102L18.375 14.4102C18.9355 14.4102 19.1816 14.7656 19.1816 15.2168C19.1816 15.6953 18.9219 16.0508 18.375 16.0508L17.8828 16.0508L17.8828 17.459C17.8828 18.1289 17.4453 18.457 16.9121 18.457ZM15.9688 14.4512L15.9688 8.47656L15.9141 8.47656L13.3574 14.3555L13.3574 14.4512Z" style="fill:var(--color-1,white)"></path>
 </g>
</svg>