<?xml version="1.0" encoding="UTF-8"?>
<!--Generator: Apple Native CoreSVG 326-->
<!DOCTYPE svg
PUBLIC "-//W3C//DTD SVG 1.1//EN"
       "http://www.w3.org/Graphics/SVG/1.1/DTD/svg11.dtd">
<svg version="1.1" xmlns="http://www.w3.org/2000/svg" xmlns:xlink="http://www.w3.org/1999/xlink" viewBox="0 0 28.2461 27.9043">
 <g>
  <rect height="27.9043" opacity="0" width="28.2461" x="0" y="0"/>
  <path d="M13.9453 27.8906C21.6426 27.8906 27.8906 21.6289 27.8906 13.9453C27.8906 6.24805 21.6426 0 13.9453 0C6.26172 0 0 6.24805 0 13.9453C0 21.6289 6.26172 27.8906 13.9453 27.8906Z" fill="white" fill-opacity="0.85"/>
  <path d="M10.1172 19.7969C9.55664 19.7969 9.0918 19.332 9.0918 18.7578L9.0918 10.2129L7.79297 11.252C7.65625 11.3613 7.51953 11.4297 7.28711 11.4297C6.86328 11.4297 6.5625 11.1152 6.5625 10.6777C6.5625 10.3086 6.76758 10.0352 7 9.84375L8.54492 8.64062C8.88672 8.39453 9.37891 8.06641 9.9668 8.06641C10.6914 8.06641 11.1426 8.49023 11.1426 9.21484L11.1426 18.7578C11.1426 19.332 10.6777 19.7969 10.1172 19.7969ZM16.8438 19.9336C15.5586 19.9336 14.3008 19.1953 13.8223 18.0469C13.6992 17.7734 13.6172 17.459 13.6172 17.1309C13.6172 16.6113 13.9453 16.2832 14.4648 16.2832C14.8477 16.2832 15.1621 16.4883 15.3262 16.9395C15.5859 17.7188 16.0234 18.2793 16.8164 18.2793C17.8555 18.2793 18.2656 17.0898 18.2656 15.9141C18.2656 14.875 17.8691 13.6309 16.8301 13.6309C16.2695 13.6309 15.9141 13.959 15.5996 14.4238C15.2988 14.8066 15.0664 14.957 14.6836 14.957C14.041 14.957 13.7676 14.4785 13.7676 13.9453C13.7676 13.7539 13.7676 13.5352 13.7812 13.3164L14 9.46094C14.0684 8.72266 14.3828 8.24414 15.1348 8.24414L19.0176 8.24414C19.4824 8.24414 19.7969 8.61328 19.7969 9.07812C19.7969 9.58398 19.4961 9.91211 19.0176 9.91211L15.709 9.91211L15.4629 13.3301L15.5449 13.3301C15.9004 12.5234 16.666 12.1406 17.5 12.1406C19.3184 12.1406 20.248 13.918 20.248 15.8594C20.248 18.0879 19.0312 19.9336 16.8438 19.9336Z" fill="white"/>
 </g>
</svg>
