<svg version="1.1" xmlns="http://www.w3.org/2000/svg" xmlns:xlink="http://www.w3.org/1999/xlink" viewBox="0 0 25.5254 25.1699">
 <g>
  
  <path d="M4.29297 25.1699L20.877 25.1699C23.748 25.1699 25.1699 23.7617 25.1699 20.9453L25.1699 4.23828C25.1699 1.42188 23.748 0 20.877 0L4.29297 0C1.43555 0 0 1.42188 0 4.23828L0 20.9453C0 23.7617 1.43555 25.1699 4.29297 25.1699ZM4.32031 22.9688C2.95312 22.9688 2.20117 22.2441 2.20117 20.8223L2.20117 4.36133C2.20117 2.93945 2.95312 2.20117 4.32031 2.20117L20.8496 2.20117C22.2031 2.20117 22.9688 2.93945 22.9688 4.36133L22.9688 20.8223C22.9688 22.2441 22.2031 22.9688 20.8496 22.9688Z" style="fill:var(--color-0,hsl(0 0 0/0.85))"></path>
  <path d="M8.87305 18.252C9.41992 18.252 9.87109 17.8008 9.87109 17.2539L9.87109 7.98438C9.87109 7.28711 9.43359 6.87695 8.72266 6.87695C8.14844 6.87695 7.68359 7.19141 7.35547 7.4375L5.85156 8.59961C5.61914 8.79102 5.42773 9.05078 5.42773 9.40625C5.42773 9.83008 5.71484 10.1309 6.125 10.1309C6.34375 10.1309 6.48047 10.0625 6.61719 9.9668L7.875 8.95508L7.875 17.2539C7.875 17.8008 8.32617 18.252 8.87305 18.252ZM15.3809 18.3887C17.5 18.3887 18.6758 16.5977 18.6758 14.4375C18.6758 12.5508 17.7734 10.8281 16.0098 10.8281C15.2031 10.8281 14.4648 11.1973 14.1094 11.9902L14.0547 11.9902L14.2734 8.66797L17.4863 8.66797C17.9512 8.66797 18.2383 8.33984 18.2383 7.86133C18.2383 7.41016 17.9375 7.05469 17.4863 7.05469L13.7266 7.05469C13.0156 7.05469 12.6875 7.51953 12.6465 8.23047L12.4141 11.9766C12.4004 12.1816 12.4004 12.4004 12.4004 12.5781C12.4004 13.0977 12.6602 13.5625 13.2891 13.5625C13.6719 13.5625 13.877 13.4121 14.1641 13.043C14.4785 12.5918 14.8203 12.2637 15.3672 12.2637C16.3789 12.2637 16.7617 13.4805 16.7617 14.4922C16.7617 15.627 16.3652 16.7891 15.3535 16.7891C14.5879 16.7891 14.1504 16.2422 13.9043 15.4902C13.7402 15.0527 13.4395 14.8477 13.0703 14.8477C12.5645 14.8477 12.25 15.1621 12.25 15.668C12.25 15.9824 12.332 16.2832 12.4551 16.5566C12.9336 17.6641 14.1367 18.3887 15.3809 18.3887Z" style="fill:var(--color-1,hsl(0 0 0/0.85))"></path>
 </g>
</svg>