<svg version="1.1" xmlns="http://www.w3.org/2000/svg" xmlns:xlink="http://www.w3.org/1999/xlink" viewBox="0 0 25.5254 25.1699">
 <g>
  
  <path d="M4.29297 25.1699L20.877 25.1699C23.748 25.1699 25.1699 23.7617 25.1699 20.9453L25.1699 4.23828C25.1699 1.42188 23.748 0 20.877 0L4.29297 0C1.43555 0 0 1.42188 0 4.23828L0 20.9453C0 23.7617 1.43555 25.1699 4.29297 25.1699ZM4.32031 22.9688C2.95312 22.9688 2.20117 22.2441 2.20117 20.8223L2.20117 4.36133C2.20117 2.93945 2.95312 2.20117 4.32031 2.20117L20.8496 2.20117C22.2031 2.20117 22.9688 2.93945 22.9688 4.36133L22.9688 20.8223C22.9688 22.2441 22.2031 22.9688 20.8496 22.9688Z" style="fill:var(--color-0,hsl(0 0 0/0.85))"></path>
  <path d="M9.5293 18.252C10.0625 18.252 10.5137 17.8008 10.5137 17.2539L10.5137 7.98438C10.5137 7.28711 10.0762 6.87695 9.37891 6.87695C8.80469 6.87695 8.33984 7.19141 8.01172 7.4375L6.50781 8.59961C6.27539 8.79102 6.08398 9.05078 6.08398 9.40625C6.08398 9.83008 6.37109 10.1309 6.78125 10.1309C7 10.1309 7.12305 10.0625 7.27344 9.9668L8.51758 8.95508L8.51758 17.2539C8.51758 17.8008 8.96875 18.252 9.5293 18.252ZM14.4785 18.293C14.9844 18.293 15.2031 18.0879 15.3945 17.5957L18.5117 9.25586C18.6621 8.83203 18.7715 8.50391 18.7715 8.10742C18.7715 7.47852 18.2793 7.05469 17.6777 7.05469L13.2617 7.05469C12.7969 7.05469 12.4688 7.39648 12.4688 7.86133C12.4688 8.32617 12.7969 8.66797 13.2617 8.66797L16.7754 8.66797L16.7754 8.79102L13.7402 16.6387C13.6172 16.9395 13.5762 17.1172 13.5762 17.4453C13.5762 17.8418 13.8223 18.293 14.4785 18.293Z" style="fill:var(--color-1,hsl(0 0 0/0.85))"></path>
 </g>
</svg>