<svg version="1.1" xmlns="http://www.w3.org/2000/svg" xmlns:xlink="http://www.w3.org/1999/xlink" viewBox="0 0 25.5254 25.1699">
 <g>
  
  <path d="M4.29297 25.1699L20.877 25.1699C23.748 25.1699 25.1699 23.7617 25.1699 20.9453L25.1699 4.23828C25.1699 1.42188 23.748 0 20.877 0L4.29297 0C1.43555 0 0 1.42188 0 4.23828L0 20.9453C0 23.7617 1.43555 25.1699 4.29297 25.1699Z" style="fill:var(--color-0,hsl(0 0 0/0.85))"></path>
  <path d="M9.43359 18.4297C8.85938 18.4297 8.39453 17.9648 8.39453 17.3906L8.39453 8.8457L7.10938 9.88477C6.95898 9.99414 6.82227 10.0625 6.60352 10.0625C6.17969 10.0625 5.87891 9.74805 5.87891 9.31055C5.87891 8.94141 6.07031 8.66797 6.31641 8.47656L7.86133 7.27344C8.20312 7.02734 8.68164 6.69922 9.2832 6.69922C10.0078 6.69922 10.459 7.12305 10.459 7.84766L10.459 17.3906C10.459 17.9648 9.99414 18.4297 9.43359 18.4297ZM14.5469 18.4707C13.877 18.4707 13.6172 18.0059 13.6172 17.5957C13.6172 17.2539 13.6582 17.0762 13.7812 16.7617L16.9121 8.68164L16.9121 8.55859L13.2891 8.55859C12.8105 8.55859 12.4688 8.20312 12.4688 7.71094C12.4688 7.23242 12.8105 6.87695 13.2891 6.87695L17.8418 6.87695C18.4707 6.87695 18.9766 7.31445 18.9766 7.9707C18.9766 8.38086 18.8672 8.72266 18.7168 9.16016L15.5039 17.7461C15.2988 18.2656 15.0801 18.4707 14.5469 18.4707Z" style="fill:var(--color-1,white)"></path>
 </g>
</svg>