<?xml version="1.0" encoding="UTF-8"?>
<!--Generator: Apple Native CoreSVG 326-->
<!DOCTYPE svg
PUBLIC "-//W3C//DTD SVG 1.1//EN"
       "http://www.w3.org/Graphics/SVG/1.1/DTD/svg11.dtd">
<svg version="1.1" xmlns="http://www.w3.org/2000/svg" xmlns:xlink="http://www.w3.org/1999/xlink" viewBox="0 0 28.2461 27.9043">
 <g>
  <rect height="27.9043" opacity="0" width="28.2461" x="0" y="0"/>
  <path d="M13.9453 27.8906C21.6426 27.8906 27.8906 21.6289 27.8906 13.9453C27.8906 6.24805 21.6426 0 13.9453 0C6.26172 0 0 6.24805 0 13.9453C0 21.6289 6.26172 27.8906 13.9453 27.8906Z" fill="white" fill-opacity="0.85"/>
  <path d="M10.1309 19.7969C9.54297 19.7969 9.07812 19.332 9.07812 18.7578L9.07812 10.2129L7.79297 11.252C7.64258 11.3613 7.51953 11.4297 7.28711 11.4297C6.86328 11.4297 6.57617 11.1152 6.57617 10.6777C6.57617 10.3086 6.76758 10.0352 7.01367 9.84375L8.55859 8.64062C8.90039 8.39453 9.37891 8.06641 9.9668 8.06641C10.6914 8.06641 11.1562 8.49023 11.1562 9.21484L11.1562 18.7578C11.1562 19.332 10.6777 19.7969 10.1309 19.7969ZM17.0078 19.8926C14.9434 19.8926 13.3574 18.6621 13.3574 16.5703C13.3574 15.0391 14.2871 13.9316 15.4902 13.6582L15.4902 13.6172C14.5742 13.3438 13.6855 12.4961 13.6855 11.0605C13.6855 9.07812 15.2715 8.01172 17.0078 8.01172C19.0039 8.01172 20.3711 9.24219 20.3711 11.0742C20.3711 12.4141 19.5234 13.3301 18.5801 13.6172L18.5801 13.6582C19.7012 13.918 20.6719 15.0254 20.6719 16.5703C20.6719 18.498 19.25 19.8926 17.0078 19.8926ZM17.0215 12.9746C17.9102 12.9746 18.375 12.1953 18.375 11.2656C18.375 10.3633 17.9375 9.5293 17.0215 9.5293C16.1465 9.5293 15.6543 10.3633 15.6543 11.2656C15.6543 12.0996 16.1191 12.9746 17.0215 12.9746ZM17.0215 18.3613C18.0469 18.3613 18.5527 17.4453 18.5527 16.4062C18.5527 15.3398 18.0195 14.4922 17.0215 14.4922C15.9961 14.4922 15.4902 15.3945 15.4902 16.4062C15.4902 17.4453 15.9961 18.3613 17.0215 18.3613Z" fill="white"/>
 </g>
</svg>
