<?xml version="1.0" encoding="UTF-8"?>
<!--Generator: Apple Native CoreSVG 326-->
<!DOCTYPE svg
PUBLIC "-//W3C//DTD SVG 1.1//EN"
       "http://www.w3.org/Graphics/SVG/1.1/DTD/svg11.dtd">
<svg version="1.1" xmlns="http://www.w3.org/2000/svg" xmlns:xlink="http://www.w3.org/1999/xlink" viewBox="0 0 28.2461 27.9043">
 <g>
  <rect height="27.9043" opacity="0" width="28.2461" x="0" y="0"/>
  <path d="M13.9453 27.8906C21.6426 27.8906 27.8906 21.6426 27.8906 13.9453C27.8906 6.24805 21.6426 0 13.9453 0C6.24805 0 0 6.24805 0 13.9453C0 21.6426 6.24805 27.8906 13.9453 27.8906ZM13.9453 25.5664C7.51953 25.5664 2.32422 20.3711 2.32422 13.9453C2.32422 7.51953 7.51953 2.32422 13.9453 2.32422C20.3711 2.32422 25.5664 7.51953 25.5664 13.9453C25.5664 20.3711 20.3711 25.5664 13.9453 25.5664Z" fill="white" fill-opacity="0.85"/>
  <path d="M10.2266 19.6191C10.7734 19.6191 11.2246 19.168 11.2246 18.6211L11.2246 9.35156C11.2246 8.6543 10.7871 8.24414 10.0762 8.24414C9.50195 8.24414 9.03711 8.55859 8.72266 8.80469L7.21875 9.9668C6.97266 10.1582 6.78125 10.418 6.78125 10.7734C6.78125 11.1973 7.06836 11.498 7.47852 11.498C7.69727 11.498 7.83398 11.4297 7.9707 11.334L9.22852 10.3223L9.22852 18.6211C9.22852 19.168 9.67969 19.6191 10.2266 19.6191ZM16.0234 15.6543C17.1309 15.6543 17.9648 14.916 18.2793 13.7402L18.334 13.7402C18.334 13.7949 18.334 13.8496 18.334 13.8906C18.334 15.4082 18.1426 18.1426 16.6113 18.1426C16.0098 18.1426 15.5859 17.7188 15.3535 17.1309C15.1484 16.6797 14.875 16.502 14.4648 16.502C13.9043 16.502 13.6582 16.8848 13.6582 17.3359C13.6582 17.5 13.6855 17.6641 13.7266 17.8281C14.0273 19.0176 15.2168 19.7422 16.584 19.7422C19.3867 19.7422 20.1934 16.6387 20.1934 13.8359C20.1934 11.252 19.373 8.16211 16.5977 8.16211C14.5195 8.16211 13.3164 9.91211 13.3164 12.0586C13.3164 13.9043 14.2051 15.6543 16.0234 15.6543ZM16.625 14.1504C15.6133 14.1504 15.2168 12.9883 15.2168 11.9766C15.2168 10.9512 15.668 9.74805 16.625 9.74805C17.6641 9.74805 18.0742 10.9512 18.0742 11.9766C18.0742 13.0293 17.623 14.1504 16.625 14.1504Z" fill="white" fill-opacity="0.85"/>
 </g>
</svg>
