<svg version="1.1" xmlns="http://www.w3.org/2000/svg" xmlns:xlink="http://www.w3.org/1999/xlink" viewBox="0 0 25.5254 25.1699">
 <g>
  
  <path d="M4.29297 25.1699L20.877 25.1699C23.748 25.1699 25.1699 23.7617 25.1699 20.9453L25.1699 4.23828C25.1699 1.42188 23.748 0 20.877 0L4.29297 0C1.43555 0 0 1.42188 0 4.23828L0 20.9453C0 23.7617 1.43555 25.1699 4.29297 25.1699ZM4.32031 22.9688C2.95312 22.9688 2.20117 22.2441 2.20117 20.8223L2.20117 4.36133C2.20117 2.93945 2.95312 2.20117 4.32031 2.20117L20.8496 2.20117C22.2031 2.20117 22.9688 2.93945 22.9688 4.36133L22.9688 20.8223C22.9688 22.2441 22.2031 22.9688 20.8496 22.9688Z" style="fill:var(--color-0,hsl(0 0 0/0.85))"></path>
  <path d="M13.3027 19.0859C14 19.0859 14.4102 18.6211 14.4102 17.8555L14.4102 7.30078C14.4102 6.50781 13.9863 6.07031 13.248 6.07031C12.7422 6.07031 12.3867 6.20703 11.7988 6.60352L9.33789 8.27148C9.03711 8.47656 8.91406 8.69531 8.91406 9.03711C8.91406 9.46094 9.25586 9.85742 9.69336 9.85742C9.89844 9.85742 10.0488 9.81641 10.3633 9.61133L12.127 8.44922L12.2227 8.44922L12.2227 17.8555C12.2227 18.6211 12.6191 19.0859 13.3027 19.0859Z" style="fill:var(--color-1,hsl(0 0 0/0.85))"></path>
 </g>
</svg>