<?xml version="1.0" encoding="UTF-8"?>
<!--Generator: Apple Native CoreSVG 326-->
<!DOCTYPE svg
PUBLIC "-//W3C//DTD SVG 1.1//EN"
       "http://www.w3.org/Graphics/SVG/1.1/DTD/svg11.dtd">
<svg version="1.1" xmlns="http://www.w3.org/2000/svg" xmlns:xlink="http://www.w3.org/1999/xlink" viewBox="0 0 28.2461 27.9043">
 <g>
  <rect height="27.9043" opacity="0" width="28.2461" x="0" y="0"/>
  <path d="M13.9453 27.8906C21.6426 27.8906 27.8906 21.6289 27.8906 13.9453C27.8906 6.24805 21.6426 0 13.9453 0C6.26172 0 0 6.24805 0 13.9453C0 21.6289 6.26172 27.8906 13.9453 27.8906Z" fill="white" fill-opacity="0.85"/>
  <path d="M10.7461 20.3438C10.1172 20.3438 9.73438 19.9883 9.73438 19.4141C9.73438 19.127 9.87109 18.8398 10.1035 18.5664L14.6152 13.7402C15.4492 12.8652 16.3105 12.0039 16.3105 10.9785C16.3105 9.81641 15.4219 9.03711 14.082 9.03711C12.7285 9.03711 11.9766 9.93945 11.6074 10.7871C11.3613 11.1836 11.1016 11.498 10.6094 11.498C10.0488 11.498 9.67969 11.1426 9.67969 10.5957C9.67969 10.4043 9.69336 10.2402 9.76172 10.0215C10.2266 8.44922 11.9902 7.23242 13.9863 7.23242C16.5977 7.23242 18.3203 8.66797 18.3203 10.8008C18.3203 12.373 17.4453 13.4941 16.2012 14.8203L12.8652 18.3887L12.8652 18.4844L17.9922 18.4844C18.5527 18.4844 18.9492 18.8262 18.9492 19.4141C18.9492 19.9883 18.5527 20.3438 17.9922 20.3438Z" fill="white"/>
 </g>
</svg>
