<?xml version="1.0" encoding="UTF-8"?>
<!--Generator: Apple Native CoreSVG 326-->
<!DOCTYPE svg
PUBLIC "-//W3C//DTD SVG 1.1//EN"
       "http://www.w3.org/Graphics/SVG/1.1/DTD/svg11.dtd">
<svg version="1.1" xmlns="http://www.w3.org/2000/svg" xmlns:xlink="http://www.w3.org/1999/xlink" viewBox="0 0 25.5254 20.6309">
 <g>
  <rect height="20.6309" opacity="0" width="25.5254" x="0" y="0"/>
  <path d="M0 19.5234C0 20.125 0.492188 20.6309 1.09375 20.6309C1.70898 20.6309 2.20117 20.125 2.20117 19.5234L2.20117 1.12109C2.20117 0.519531 1.70898 0.0273438 1.09375 0.0273438C0.492188 0.0273438 0 0.519531 0 1.12109ZM22.9688 19.5234C22.9688 20.125 23.4746 20.6309 24.0762 20.6309C24.6777 20.6309 25.1699 20.125 25.1699 19.5234L25.1699 1.12109C25.1699 0.519531 24.6777 0.0273438 24.0762 0.0273438C23.4746 0.0273438 22.9688 0.519531 22.9688 1.12109Z" fill="white" fill-opacity="0.85"/>
  <path d="M9.84375 16.666L15.5586 16.666C16.1055 16.666 16.4473 16.3242 16.4473 15.7773C16.4473 15.2441 16.1055 14.916 15.5586 14.916L11.5664 14.916L11.5664 14.793L13.877 12.2227C14.4375 11.5938 14.875 11.0469 15.2168 10.5957C15.8184 9.76172 16.1602 8.96875 16.1602 7.95703C16.1602 5.81055 14.5605 4.52539 12.4688 4.52539C10.7188 4.52539 9.2832 5.6875 8.92773 7.02734C8.88672 7.23242 8.8457 7.42383 8.8457 7.61523C8.8457 8.17578 9.20117 8.53125 9.76172 8.53125C10.2402 8.53125 10.541 8.28516 10.7188 7.83398C10.9785 6.86328 11.5391 6.23438 12.4688 6.23438C13.4941 6.23438 14.0684 7.02734 14.0684 8.03906C14.0684 8.79102 13.8086 9.35156 13.3848 9.9668C13.125 10.3359 12.7559 10.8008 12.291 11.3477L9.40625 14.6016C9.0918 14.9297 8.81836 15.2715 8.81836 15.7637C8.81836 16.2012 9.06445 16.666 9.84375 16.666Z" fill="white" fill-opacity="0.85"/>
 </g>
</svg>
