<?xml version="1.0" encoding="UTF-8"?>
<!--Generator: Apple Native CoreSVG 326-->
<!DOCTYPE svg
PUBLIC "-//W3C//DTD SVG 1.1//EN"
       "http://www.w3.org/Graphics/SVG/1.1/DTD/svg11.dtd">
<svg version="1.1" xmlns="http://www.w3.org/2000/svg" xmlns:xlink="http://www.w3.org/1999/xlink" viewBox="0 0 28.2461 27.9043">
 <g>
  <rect height="27.9043" opacity="0" width="28.2461" x="0" y="0"/>
  <path d="M13.9453 27.8906C21.6426 27.8906 27.8906 21.6426 27.8906 13.9453C27.8906 6.24805 21.6426 0 13.9453 0C6.24805 0 0 6.24805 0 13.9453C0 21.6426 6.24805 27.8906 13.9453 27.8906ZM13.9453 25.5664C7.51953 25.5664 2.32422 20.3711 2.32422 13.9453C2.32422 7.51953 7.51953 2.32422 13.9453 2.32422C20.3711 2.32422 25.5664 7.51953 25.5664 13.9453C25.5664 20.3711 20.3711 25.5664 13.9453 25.5664Z" fill="white" fill-opacity="0.85"/>
  <path d="M7.5332 19.4688L12.2773 19.4688C12.7695 19.4688 13.0566 19.1543 13.0566 18.6758C13.0566 18.1562 12.7559 17.8691 12.2773 17.8691L9.03711 17.8691L9.03711 17.7598L11.0332 15.2305C12.4004 13.5352 12.8516 12.5234 12.8516 11.3203C12.8516 9.47461 11.5938 8.13477 9.70703 8.13477C7.95703 8.13477 6.63086 9.58398 6.63086 11.0059C6.63086 11.5117 6.93164 11.8672 7.45117 11.8672C7.90234 11.8672 8.17578 11.6621 8.3125 11.2109C8.57227 10.2949 8.91406 9.7207 9.69336 9.7207C10.5273 9.7207 10.9785 10.4453 10.9785 11.416C10.9785 12.5098 10.2266 13.6172 9.50195 14.5469L7.12305 17.582C6.86328 17.9102 6.61719 18.252 6.61719 18.6758C6.61719 19.1406 6.91797 19.4688 7.5332 19.4688ZM18.0332 19.7559C20.7539 19.7559 21.5605 16.6934 21.5605 13.9453C21.5605 11.1973 20.7539 8.13477 18.0332 8.13477C15.2988 8.13477 14.4922 11.1973 14.4922 13.9453C14.4922 16.6934 15.2988 19.7559 18.0332 19.7559ZM18.0332 18.1289C16.9121 18.1289 16.4883 16.3105 16.4883 13.9453C16.4883 11.5664 16.9121 9.74805 18.0332 9.74805C19.1406 9.74805 19.5645 11.5664 19.5645 13.9453C19.5645 16.3105 19.1406 18.1289 18.0332 18.1289Z" fill="white" fill-opacity="0.85"/>
 </g>
</svg>
