<?xml version="1.0" encoding="UTF-8"?>
<!--Generator: Apple Native CoreSVG 326-->
<!DOCTYPE svg
PUBLIC "-//W3C//DTD SVG 1.1//EN"
       "http://www.w3.org/Graphics/SVG/1.1/DTD/svg11.dtd">
<svg version="1.1" xmlns="http://www.w3.org/2000/svg" xmlns:xlink="http://www.w3.org/1999/xlink" viewBox="0 0 25.5254 25.1699">
 <g>
  <rect height="25.1699" opacity="0" width="25.5254" x="0" y="0"/>
  <path d="M4.29297 25.1699L20.877 25.1699C23.748 25.1699 25.1699 23.7617 25.1699 20.9453L25.1699 4.23828C25.1699 1.42188 23.748 0 20.877 0L4.29297 0C1.43555 0 0 1.42188 0 4.23828L0 20.9453C0 23.7617 1.43555 25.1699 4.29297 25.1699ZM4.32031 22.9688C2.95312 22.9688 2.20117 22.2441 2.20117 20.8223L2.20117 4.36133C2.20117 2.93945 2.95312 2.20117 4.32031 2.20117L20.8496 2.20117C22.2031 2.20117 22.9688 2.93945 22.9688 4.36133L22.9688 20.8223C22.9688 22.2441 22.2031 22.9688 20.8496 22.9688Z" fill="white" fill-opacity="0.85"/>
  <path d="M6.19336 18.1016L10.9375 18.1016C11.4297 18.1016 11.7168 17.7871 11.7168 17.3086C11.7168 16.7891 11.416 16.502 10.9375 16.502L7.69727 16.502L7.69727 16.3926L9.69336 13.8633C11.0605 12.168 11.5117 11.1562 11.5117 9.95312C11.5117 8.10742 10.2539 6.76758 8.36719 6.76758C6.61719 6.76758 5.29102 8.2168 5.29102 9.63867C5.29102 10.1445 5.5918 10.5 6.11133 10.5C6.5625 10.5 6.83594 10.2949 6.98633 9.84375C7.23242 8.92773 7.57422 8.35352 8.35352 8.35352C9.1875 8.35352 9.63867 9.07812 9.63867 10.0488C9.63867 11.1426 8.88672 12.25 8.16211 13.1797L5.7832 16.2148C5.52344 16.543 5.27734 16.8848 5.27734 17.3086C5.27734 17.7734 5.57812 18.1016 6.19336 18.1016ZM16.6934 18.3887C19.4141 18.3887 20.2207 15.3262 20.2207 12.5781C20.2207 9.83008 19.4141 6.76758 16.6934 6.76758C13.959 6.76758 13.1523 9.83008 13.1523 12.5781C13.1523 15.3262 13.959 18.3887 16.6934 18.3887ZM16.6934 16.7617C15.5723 16.7617 15.1484 14.9434 15.1484 12.5781C15.1484 10.1992 15.5723 8.38086 16.6934 8.38086C17.8145 8.38086 18.2246 10.1992 18.2246 12.5781C18.2246 14.9434 17.8145 16.7617 16.6934 16.7617Z" fill="white" fill-opacity="0.85"/>
 </g>
</svg>
