<?xml version="1.0" encoding="UTF-8"?>
<!--Generator: Apple Native CoreSVG 326-->
<!DOCTYPE svg
PUBLIC "-//W3C//DTD SVG 1.1//EN"
       "http://www.w3.org/Graphics/SVG/1.1/DTD/svg11.dtd">
<svg version="1.1" xmlns="http://www.w3.org/2000/svg" xmlns:xlink="http://www.w3.org/1999/xlink" viewBox="0 0 25.5254 25.1699">
 <g>
  <rect height="25.1699" opacity="0" width="25.5254" x="0" y="0"/>
  <path d="M4.29297 25.1699L20.877 25.1699C23.748 25.1699 25.1699 23.7617 25.1699 20.9453L25.1699 4.23828C25.1699 1.42188 23.748 0 20.877 0L4.29297 0C1.43555 0 0 1.42188 0 4.23828L0 20.9453C0 23.7617 1.43555 25.1699 4.29297 25.1699Z" fill="white" fill-opacity="0.85"/>
  <path d="M5.98828 18.2793C5.3457 18.2793 5.03125 17.9375 5.03125 17.459C5.03125 17.0078 5.29102 16.6523 5.56445 16.3242L8.01172 13.1934C8.75 12.25 9.5293 11.1016 9.5293 9.9668C9.5293 8.96875 9.06445 8.23047 8.2168 8.23047C7.41016 8.23047 7.05469 8.81836 6.80859 9.76172C6.64453 10.2266 6.37109 10.4316 5.89258 10.4316C5.35938 10.4316 5.04492 10.0762 5.04492 9.54297C5.04492 8.08008 6.42578 6.58984 8.23047 6.58984C10.1719 6.58984 11.4707 7.9707 11.4707 9.87109C11.4707 11.1152 11.0059 12.1543 9.59766 13.9043L7.54688 16.502L7.54688 16.6113L10.8828 16.6113C11.375 16.6113 11.6895 16.9121 11.6895 17.459C11.6895 17.9512 11.3887 18.2793 10.8828 18.2793ZM16.8164 18.5664C14 18.5664 13.166 15.4219 13.166 12.5781C13.166 9.73438 14 6.58984 16.8164 6.58984C19.6328 6.58984 20.4668 9.73438 20.4668 12.5781C20.4668 15.4219 19.6328 18.5664 16.8164 18.5664ZM16.8164 16.8848C17.9648 16.8848 18.3887 15.0254 18.3887 12.5781C18.3887 10.1172 17.9648 8.27148 16.8164 8.27148C15.668 8.27148 15.2305 10.1172 15.2305 12.5781C15.2305 15.0254 15.668 16.8848 16.8164 16.8848Z" fill="white"/>
 </g>
</svg>
