<?xml version="1.0" encoding="UTF-8"?>
<!--Generator: Apple Native CoreSVG 326-->
<!DOCTYPE svg
PUBLIC "-//W3C//DTD SVG 1.1//EN"
       "http://www.w3.org/Graphics/SVG/1.1/DTD/svg11.dtd">
<svg version="1.1" xmlns="http://www.w3.org/2000/svg" xmlns:xlink="http://www.w3.org/1999/xlink" viewBox="0 0 28.2461 27.9043">
 <g>
  <rect height="27.9043" opacity="0" width="28.2461" x="0" y="0"/>
  <path d="M13.9453 27.8906C21.6426 27.8906 27.8906 21.6426 27.8906 13.9453C27.8906 6.24805 21.6426 0 13.9453 0C6.24805 0 0 6.24805 0 13.9453C0 21.6426 6.24805 27.8906 13.9453 27.8906ZM13.9453 25.5664C7.51953 25.5664 2.32422 20.3711 2.32422 13.9453C2.32422 7.51953 7.51953 2.32422 13.9453 2.32422C20.3711 2.32422 25.5664 7.51953 25.5664 13.9453C25.5664 20.3711 20.3711 25.5664 13.9453 25.5664Z" fill="white" fill-opacity="0.85"/>
  <path d="M8.53125 19.4688L13.2754 19.4688C13.7539 19.4688 14.0547 19.1543 14.0547 18.6758C14.0547 18.1562 13.7402 17.8691 13.2754 17.8691L10.0352 17.8691L10.0352 17.7598L12.0312 15.2305C13.3984 13.5352 13.8496 12.5234 13.8496 11.3203C13.8496 9.47461 12.5918 8.13477 10.7051 8.13477C8.95508 8.13477 7.62891 9.58398 7.62891 11.0059C7.62891 11.5117 7.92969 11.8672 8.44922 11.8672C8.90039 11.8672 9.17383 11.6621 9.31055 11.2109C9.57031 10.2949 9.91211 9.7207 10.6914 9.7207C11.5254 9.7207 11.9766 10.4453 11.9766 11.416C11.9766 12.5098 11.2246 13.6172 10.5 14.5469L8.12109 17.582C7.86133 17.9102 7.61523 18.252 7.61523 18.6758C7.61523 19.1406 7.91602 19.4688 8.53125 19.4688ZM18.6211 19.6191C19.168 19.6191 19.6191 19.168 19.6191 18.6211L19.6191 9.35156C19.6191 8.6543 19.1816 8.24414 18.4707 8.24414C17.8965 8.24414 17.4316 8.55859 17.1035 8.80469L15.5996 9.9668C15.3672 10.1582 15.1758 10.418 15.1758 10.7734C15.1758 11.1973 15.4629 11.498 15.873 11.498C16.0918 11.498 16.2285 11.4297 16.3652 11.334L17.623 10.3223L17.623 18.6211C17.623 19.168 18.0742 19.6191 18.6211 19.6191Z" fill="white" fill-opacity="0.85"/>
 </g>
</svg>
