<?xml version="1.0" encoding="UTF-8"?>
<!--Generator: Apple Native CoreSVG 326-->
<!DOCTYPE svg
PUBLIC "-//W3C//DTD SVG 1.1//EN"
       "http://www.w3.org/Graphics/SVG/1.1/DTD/svg11.dtd">
<svg version="1.1" xmlns="http://www.w3.org/2000/svg" xmlns:xlink="http://www.w3.org/1999/xlink" viewBox="0 0 25.5254 25.1699">
 <g>
  <rect height="25.1699" opacity="0" width="25.5254" x="0" y="0"/>
  <path d="M4.29297 25.1699L20.877 25.1699C23.748 25.1699 25.1699 23.7617 25.1699 20.9453L25.1699 4.23828C25.1699 1.42188 23.748 0 20.877 0L4.29297 0C1.43555 0 0 1.42188 0 4.23828L0 20.9453C0 23.7617 1.43555 25.1699 4.29297 25.1699ZM4.32031 22.9688C2.95312 22.9688 2.20117 22.2441 2.20117 20.8223L2.20117 4.36133C2.20117 2.93945 2.95312 2.20117 4.32031 2.20117L20.8496 2.20117C22.2031 2.20117 22.9688 2.93945 22.9688 4.36133L22.9688 20.8223C22.9688 22.2441 22.2031 22.9688 20.8496 22.9688Z" fill="white" fill-opacity="0.85"/>
  <path d="M7.19141 18.1016L11.9355 18.1016C12.4277 18.1016 12.7148 17.7871 12.7148 17.3086C12.7148 16.7891 12.4141 16.502 11.9355 16.502L8.69531 16.502L8.69531 16.3926L10.6914 13.8633C12.0586 12.168 12.5098 11.1562 12.5098 9.95312C12.5098 8.10742 11.252 6.76758 9.36523 6.76758C7.61523 6.76758 6.28906 8.2168 6.28906 9.63867C6.28906 10.1445 6.58984 10.5 7.10938 10.5C7.56055 10.5 7.83398 10.2949 7.9707 9.84375C8.23047 8.92773 8.57227 8.35352 9.35156 8.35352C10.1855 8.35352 10.6367 9.07812 10.6367 10.0488C10.6367 11.1426 9.88477 12.25 9.16016 13.1797L6.78125 16.2148C6.52148 16.543 6.27539 16.8848 6.27539 17.3086C6.27539 17.7734 6.57617 18.1016 7.19141 18.1016ZM17.2812 18.252C17.8281 18.252 18.2793 17.8008 18.2793 17.2539L18.2793 7.98438C18.2793 7.28711 17.8418 6.87695 17.1309 6.87695C16.5566 6.87695 16.0918 7.19141 15.7773 7.4375L14.2734 8.59961C14.0273 8.79102 13.8359 9.05078 13.8359 9.40625C13.8359 9.83008 14.123 10.1309 14.5332 10.1309C14.752 10.1309 14.8887 10.0625 15.0254 9.9668L16.2832 8.95508L16.2832 17.2539C16.2832 17.8008 16.7344 18.252 17.2812 18.252Z" fill="white" fill-opacity="0.85"/>
 </g>
</svg>
