<?xml version="1.0" encoding="UTF-8"?>
<!--Generator: Apple Native CoreSVG 326-->
<!DOCTYPE svg
PUBLIC "-//W3C//DTD SVG 1.1//EN"
       "http://www.w3.org/Graphics/SVG/1.1/DTD/svg11.dtd">
<svg version="1.1" xmlns="http://www.w3.org/2000/svg" xmlns:xlink="http://www.w3.org/1999/xlink" viewBox="0 0 28.2461 27.9043">
 <g>
  <rect height="27.9043" opacity="0" width="28.2461" x="0" y="0"/>
  <path d="M13.9453 27.8906C21.6426 27.8906 27.8906 21.6289 27.8906 13.9453C27.8906 6.24805 21.6426 0 13.9453 0C6.26172 0 0 6.24805 0 13.9453C0 21.6289 6.26172 27.8906 13.9453 27.8906Z" fill="white" fill-opacity="0.85"/>
  <path d="M7.61523 19.6465C6.97266 19.6465 6.6582 19.3047 6.6582 18.8262C6.6582 18.3887 6.93164 18.0332 7.17773 17.6914L9.625 14.5742C10.377 13.6172 11.1699 12.4688 11.1699 11.3477C11.1699 10.3359 10.6914 9.59766 9.84375 9.59766C9.03711 9.59766 8.68164 10.1855 8.43555 11.1289C8.27148 11.5938 7.98438 11.8125 7.51953 11.8125C6.98633 11.8125 6.67188 11.4434 6.67188 10.9238C6.67188 9.44727 8.03906 7.95703 9.84375 7.95703C11.7988 7.95703 13.0977 9.33789 13.0977 11.2383C13.0977 12.4824 12.6328 13.5215 11.2246 15.2852L9.16016 17.8691L9.16016 17.9922L12.4961 17.9922C13.002 17.9922 13.3027 18.293 13.3027 18.8262C13.3027 19.3184 13.0156 19.6465 12.4961 19.6465ZM15.709 19.6465C15.0527 19.6465 14.752 19.3047 14.752 18.8262C14.752 18.3887 15.0117 18.0332 15.2715 17.6914L17.7188 14.5742C18.457 13.6172 19.25 12.4688 19.25 11.3477C19.25 10.3359 18.7715 9.59766 17.9375 9.59766C17.1172 9.59766 16.7891 10.1855 16.5156 11.1289C16.3789 11.5938 16.0781 11.8125 15.6133 11.8125C15.0664 11.8125 14.7793 11.4434 14.7793 10.9238C14.7793 9.44727 16.1465 7.95703 17.9375 7.95703C19.8789 7.95703 21.1777 9.33789 21.1777 11.2383C21.1777 12.4824 20.7129 13.5215 19.3047 15.2852L17.2539 17.8691L17.2539 17.9922L20.6035 17.9922C21.082 17.9922 21.3965 18.293 21.3965 18.8262C21.3965 19.3184 21.0957 19.6465 20.6035 19.6465Z" fill="white"/>
 </g>
</svg>
