<?xml version="1.0" encoding="UTF-8"?>
<!--Generator: Apple Native CoreSVG 326-->
<!DOCTYPE svg
PUBLIC "-//W3C//DTD SVG 1.1//EN"
       "http://www.w3.org/Graphics/SVG/1.1/DTD/svg11.dtd">
<svg version="1.1" xmlns="http://www.w3.org/2000/svg" xmlns:xlink="http://www.w3.org/1999/xlink" viewBox="0 0 25.5254 25.1699">
 <g>
  <rect height="25.1699" opacity="0" width="25.5254" x="0" y="0"/>
  <path d="M4.29297 25.1699L20.877 25.1699C23.748 25.1699 25.1699 23.7617 25.1699 20.9453L25.1699 4.23828C25.1699 1.42188 23.748 0 20.877 0L4.29297 0C1.43555 0 0 1.42188 0 4.23828L0 20.9453C0 23.7617 1.43555 25.1699 4.29297 25.1699ZM4.32031 22.9688C2.95312 22.9688 2.20117 22.2441 2.20117 20.8223L2.20117 4.36133C2.20117 2.93945 2.95312 2.20117 4.32031 2.20117L20.8496 2.20117C22.2031 2.20117 22.9688 2.93945 22.9688 4.36133L22.9688 20.8223C22.9688 22.2441 22.2031 22.9688 20.8496 22.9688Z" fill="white" fill-opacity="0.85"/>
  <path d="M6.4668 18.1016L11.2109 18.1016C11.6895 18.1016 11.9766 17.7871 11.9766 17.3086C11.9766 16.7891 11.6758 16.502 11.2109 16.502L7.95703 16.502L7.95703 16.3926L9.95312 13.8633C11.3203 12.168 11.7715 11.1562 11.7715 9.95312C11.7715 8.10742 10.5137 6.76758 8.62695 6.76758C6.87695 6.76758 5.55078 8.2168 5.55078 9.63867C5.55078 10.1445 5.85156 10.5 6.37109 10.5C6.82227 10.5 7.0957 10.2949 7.24609 9.84375C7.50586 8.92773 7.83398 8.35352 8.62695 8.35352C9.44727 8.35352 9.91211 9.07812 9.91211 10.0488C9.91211 11.1426 9.14648 12.25 8.42188 13.1797L6.04297 16.2148C5.79688 16.543 5.53711 16.8848 5.53711 17.3086C5.53711 17.7734 5.83789 18.1016 6.4668 18.1016ZM14.3008 18.1016L19.0449 18.1016C19.5234 18.1016 19.8242 17.7871 19.8242 17.3086C19.8242 16.7891 19.5098 16.502 19.0449 16.502L15.791 16.502L15.791 16.3926L17.7871 13.8633C19.168 12.168 19.6055 11.1562 19.6055 9.95312C19.6055 8.10742 18.3613 6.76758 16.4746 6.76758C14.7246 6.76758 13.3984 8.2168 13.3984 9.63867C13.3984 10.1445 13.6855 10.5 14.2051 10.5C14.6562 10.5 14.9434 10.2949 15.0801 9.84375C15.3398 8.92773 15.6816 8.35352 16.4609 8.35352C17.2812 8.35352 17.7461 9.07812 17.7461 10.0488C17.7461 11.1426 16.9805 12.25 16.2559 13.1797L13.8906 16.2148C13.6309 16.543 13.3711 16.8848 13.3711 17.3086C13.3711 17.7734 13.6719 18.1016 14.3008 18.1016Z" fill="white" fill-opacity="0.85"/>
 </g>
</svg>
