<svg version="1.1" xmlns="http://www.w3.org/2000/svg" xmlns:xlink="http://www.w3.org/1999/xlink" viewBox="0 0 25.5254 25.1699">
 <g>
  
  <path d="M4.29297 25.1699L20.877 25.1699C23.748 25.1699 25.1699 23.7617 25.1699 20.9453L25.1699 4.23828C25.1699 1.42188 23.748 0 20.877 0L4.29297 0C1.43555 0 0 1.42188 0 4.23828L0 20.9453C0 23.7617 1.43555 25.1699 4.29297 25.1699Z" style="fill:var(--color-0,hsl(0 0 0/0.85))"></path>
  <path d="M6.27539 18.2793C5.61914 18.2793 5.30469 17.9375 5.30469 17.459C5.30469 17.0215 5.57812 16.666 5.82422 16.3242L8.27148 13.207C9.02344 12.25 9.81641 11.1016 9.81641 9.98047C9.81641 8.96875 9.33789 8.23047 8.49023 8.23047C7.68359 8.23047 7.3418 8.81836 7.08203 9.76172C6.93164 10.2266 6.63086 10.4453 6.16602 10.4453C5.63281 10.4453 5.31836 10.0762 5.31836 9.55664C5.31836 8.08008 6.69922 6.58984 8.49023 6.58984C10.4453 6.58984 11.7441 7.9707 11.7441 9.87109C11.7441 11.1152 11.2793 12.1543 9.87109 13.918L7.80664 16.502L7.80664 16.625L11.1562 16.625C11.6484 16.625 11.9492 16.9258 11.9492 17.459C11.9492 17.9512 11.6621 18.2793 11.1562 18.2793ZM14.3555 18.2793C13.6992 18.2793 13.3984 17.9375 13.3984 17.459C13.3984 17.0215 13.6582 16.666 13.9316 16.3242L16.3652 13.207C17.1035 12.25 17.8965 11.1016 17.8965 9.98047C17.8965 8.96875 17.418 8.23047 16.584 8.23047C15.7773 8.23047 15.4355 8.81836 15.1621 9.76172C15.0254 10.2266 14.7246 10.4453 14.2598 10.4453C13.7129 10.4453 13.4258 10.0762 13.4258 9.55664C13.4258 8.08008 14.793 6.58984 16.5977 6.58984C18.5391 6.58984 19.8242 7.9707 19.8242 9.87109C19.8242 11.1152 19.373 12.1543 17.9512 13.918L15.9004 16.502L15.9004 16.625L19.25 16.625C19.7285 16.625 20.0566 16.9258 20.0566 17.459C20.0566 17.9512 19.7422 18.2793 19.25 18.2793Z" style="fill:var(--color-1,white)"></path>
 </g>
</svg>