<?xml version="1.0" encoding="UTF-8"?>
<!--Generator: Apple Native CoreSVG 326-->
<!DOCTYPE svg
PUBLIC "-//W3C//DTD SVG 1.1//EN"
       "http://www.w3.org/Graphics/SVG/1.1/DTD/svg11.dtd">
<svg version="1.1" xmlns="http://www.w3.org/2000/svg" xmlns:xlink="http://www.w3.org/1999/xlink" viewBox="0 0 25.5254 25.1699">
 <g>
  <rect height="25.1699" opacity="0" width="25.5254" x="0" y="0"/>
  <path d="M4.29297 25.1699L20.877 25.1699C23.748 25.1699 25.1699 23.7617 25.1699 20.9453L25.1699 4.23828C25.1699 1.42188 23.748 0 20.877 0L4.29297 0C1.43555 0 0 1.42188 0 4.23828L0 20.9453C0 23.7617 1.43555 25.1699 4.29297 25.1699Z" fill="white" fill-opacity="0.85"/>
  <path d="M6.00195 18.2793C5.35938 18.2793 5.05859 17.9375 5.05859 17.459C5.05859 17.0078 5.31836 16.666 5.57812 16.3242L8.02539 13.1934C8.77734 12.25 9.57031 11.1016 9.57031 9.9668C9.57031 8.96875 9.0918 8.23047 8.24414 8.23047C7.42383 8.23047 7.08203 8.81836 6.82227 9.76172C6.67188 10.2266 6.38477 10.4453 5.91992 10.4453C5.37305 10.4453 5.07227 10.0762 5.07227 9.54297C5.07227 8.08008 6.43945 6.58984 8.24414 6.58984C10.1855 6.58984 11.498 7.9707 11.498 9.87109C11.498 11.1152 11.0195 12.1543 9.61133 13.9043L7.56055 16.502L7.56055 16.6113L10.9102 16.6113C11.3887 16.6113 11.7031 16.9121 11.7031 17.459C11.7031 17.9512 11.4023 18.2793 10.9102 18.2793ZM16.6523 18.5254C15.1484 18.5254 13.6992 17.8008 13.3027 16.4883C13.2207 16.2559 13.1934 16.0098 13.1934 15.75C13.1934 15.2031 13.5625 14.8613 14.123 14.8613C14.5742 14.8613 14.875 15.0938 15.0117 15.5586C15.1758 16.2012 15.6406 16.8848 16.666 16.8848C17.7051 16.8848 18.2246 16.0645 18.2246 15.0938C18.2246 13.8633 17.5684 13.207 16.3652 13.207L16.0234 13.207C15.5586 13.207 15.2305 12.9336 15.2305 12.4688C15.2305 12.0039 15.5449 11.7031 16.0234 11.7031L16.3516 11.7031C17.418 11.7031 17.9785 10.9512 17.9785 9.92578C17.9785 8.99609 17.541 8.28516 16.6113 8.28516C15.8047 8.28516 15.3809 8.80469 15.1484 9.63867C15.0117 10.1309 14.7246 10.3086 14.2461 10.3086C13.6855 10.3086 13.3848 9.93945 13.3848 9.47461C13.3848 9.24219 13.4121 8.98242 13.4805 8.70898C13.8906 7.46484 15.1484 6.64453 16.6113 6.64453C18.4434 6.64453 19.9062 7.75195 19.9062 9.70703C19.9062 10.8828 19.2773 12.0312 18.0059 12.373L18.0059 12.4141C19.1953 12.5371 20.2344 13.3984 20.2344 15.1484C20.2344 17.2676 18.6895 18.5254 16.6523 18.5254Z" fill="white"/>
 </g>
</svg>
