<svg version="1.1" xmlns="http://www.w3.org/2000/svg" xmlns:xlink="http://www.w3.org/1999/xlink" viewBox="0 0 28.2461 27.9043">
 <g>
  
  <path d="M13.9453 27.8906C21.6426 27.8906 27.8906 21.6426 27.8906 13.9453C27.8906 6.24805 21.6426 0 13.9453 0C6.24805 0 0 6.24805 0 13.9453C0 21.6426 6.24805 27.8906 13.9453 27.8906ZM13.9453 25.5664C7.51953 25.5664 2.32422 20.3711 2.32422 13.9453C2.32422 7.51953 7.51953 2.32422 13.9453 2.32422C20.3711 2.32422 25.5664 7.51953 25.5664 13.9453C25.5664 20.3711 20.3711 25.5664 13.9453 25.5664Z" style="fill:var(--color-0,hsl(0 0 0/0.85))"></path>
  <path d="M7.51953 19.4688L12.2637 19.4688C12.7559 19.4688 13.043 19.1543 13.043 18.6758C13.043 18.1562 12.7422 17.8691 12.2637 17.8691L9.02344 17.8691L9.02344 17.7598L11.0195 15.2305C12.3867 13.5352 12.8379 12.5234 12.8379 11.3203C12.8379 9.47461 11.5801 8.13477 9.69336 8.13477C7.94336 8.13477 6.61719 9.58398 6.61719 11.0059C6.61719 11.5117 6.91797 11.8672 7.4375 11.8672C7.88867 11.8672 8.16211 11.6621 8.3125 11.2109C8.55859 10.2949 8.90039 9.7207 9.69336 9.7207C10.5137 9.7207 10.9785 10.4453 10.9785 11.416C10.9785 12.5098 10.2129 13.6172 9.48828 14.5469L7.10938 17.582C6.86328 17.9102 6.60352 18.252 6.60352 18.6758C6.60352 19.1406 6.9043 19.4688 7.51953 19.4688ZM19.3594 19.6465C19.8652 19.6465 20.2891 19.332 20.2891 18.6758L20.2891 17.3086L20.7676 17.3086C21.3008 17.3086 21.5469 16.9668 21.5469 16.502C21.5469 16.0645 21.3145 15.7227 20.7676 15.7227L20.2891 15.7227L20.2891 9.7207C20.2891 8.77734 19.6602 8.24414 18.7715 8.24414C17.8145 8.24414 17.3633 8.73633 16.9805 9.58398L14.5332 14.8887C14.3008 15.4219 14.2188 15.7773 14.2188 16.2012C14.2188 16.8574 14.6836 17.3086 15.3398 17.3086L18.4023 17.3086L18.4023 18.6758C18.4023 19.4004 18.9219 19.6465 19.3594 19.6465ZM18.4434 15.7637L15.9004 15.7637L15.9004 15.668L18.3887 9.9668L18.4434 9.9668Z" style="fill:var(--color-1,hsl(0 0 0/0.85))"></path>
 </g>
</svg>