<?xml version="1.0" encoding="UTF-8"?>
<!--Generator: Apple Native CoreSVG 326-->
<!DOCTYPE svg
PUBLIC "-//W3C//DTD SVG 1.1//EN"
       "http://www.w3.org/Graphics/SVG/1.1/DTD/svg11.dtd">
<svg version="1.1" xmlns="http://www.w3.org/2000/svg" xmlns:xlink="http://www.w3.org/1999/xlink" viewBox="0 0 25.5254 25.1699">
 <g>
  <rect height="25.1699" opacity="0" width="25.5254" x="0" y="0"/>
  <path d="M4.29297 25.1699L20.877 25.1699C23.748 25.1699 25.1699 23.7617 25.1699 20.9453L25.1699 4.23828C25.1699 1.42188 23.748 0 20.877 0L4.29297 0C1.43555 0 0 1.42188 0 4.23828L0 20.9453C0 23.7617 1.43555 25.1699 4.29297 25.1699ZM4.32031 22.9688C2.95312 22.9688 2.20117 22.2441 2.20117 20.8223L2.20117 4.36133C2.20117 2.93945 2.95312 2.20117 4.32031 2.20117L20.8496 2.20117C22.2031 2.20117 22.9688 2.93945 22.9688 4.36133L22.9688 20.8223C22.9688 22.2441 22.2031 22.9688 20.8496 22.9688Z" fill="white" fill-opacity="0.85"/>
  <path d="M6.13867 18.1016L10.8828 18.1016C11.375 18.1016 11.6621 17.7871 11.6621 17.3086C11.6621 16.7891 11.3613 16.502 10.8828 16.502L7.64258 16.502L7.64258 16.3926L9.63867 13.8633C11.0059 12.168 11.457 11.1562 11.457 9.95312C11.457 8.10742 10.1992 6.76758 8.3125 6.76758C6.5625 6.76758 5.23633 8.2168 5.23633 9.63867C5.23633 10.1445 5.53711 10.5 6.05664 10.5C6.50781 10.5 6.78125 10.2949 6.93164 9.84375C7.17773 8.92773 7.51953 8.35352 8.29883 8.35352C9.13281 8.35352 9.59766 9.07812 9.59766 10.0488C9.59766 11.1426 8.83203 12.25 8.10742 13.1797L5.72852 16.2148C5.48242 16.543 5.22266 16.8848 5.22266 17.3086C5.22266 17.7734 5.52344 18.1016 6.13867 18.1016ZM16.4746 18.3887C18.6074 18.3887 19.7695 16.5977 19.7695 14.4375C19.7695 12.5508 18.8672 10.8281 17.1035 10.8281C16.3105 10.8281 15.5586 11.1973 15.2031 11.9902L15.1484 11.9902L15.3672 8.66797L18.5801 8.66797C19.0586 8.66797 19.3457 8.33984 19.3457 7.86133C19.3457 7.41016 19.0312 7.05469 18.5801 7.05469L14.8203 7.05469C14.1094 7.05469 13.7812 7.51953 13.7402 8.23047L13.5215 11.9766C13.4941 12.1816 13.4941 12.4004 13.4941 12.5781C13.4941 13.0977 13.7539 13.5625 14.3965 13.5625C14.7656 13.5625 14.9707 13.4121 15.2578 13.043C15.5723 12.5918 15.9141 12.2637 16.4746 12.2637C17.4727 12.2637 17.8691 13.4805 17.8691 14.4922C17.8691 15.627 17.459 16.7891 16.4473 16.7891C15.6816 16.7891 15.2441 16.2422 14.998 15.4902C14.834 15.0527 14.5332 14.8477 14.1641 14.8477C13.6719 14.8477 13.3574 15.1621 13.3574 15.668C13.3574 15.9824 13.4258 16.2832 13.5488 16.5566C14.0273 17.6641 15.2305 18.3887 16.4746 18.3887Z" fill="white" fill-opacity="0.85"/>
 </g>
</svg>
