<svg version="1.1" xmlns="http://www.w3.org/2000/svg" xmlns:xlink="http://www.w3.org/1999/xlink" viewBox="0 0 28.2461 27.9043">
 <g>
  
  <path d="M13.9453 27.8906C21.6426 27.8906 27.8906 21.6289 27.8906 13.9453C27.8906 6.24805 21.6426 0 13.9453 0C6.26172 0 0 6.24805 0 13.9453C0 21.6289 6.26172 27.8906 13.9453 27.8906Z" style="fill:var(--color-0,hsl(0 0 0/0.85))"></path>
  <path d="M7.28711 19.6465C6.6582 19.6465 6.34375 19.3047 6.34375 18.8262C6.34375 18.375 6.58984 18.0195 6.86328 17.6914L9.31055 14.5605C10.0625 13.6172 10.8418 12.4688 10.8418 11.334C10.8418 10.3359 10.377 9.59766 9.51562 9.59766C8.72266 9.59766 8.36719 10.1855 8.09375 11.1289C7.95703 11.5938 7.66992 11.7988 7.20508 11.7988C6.67188 11.7988 6.35742 11.4434 6.35742 10.9102C6.35742 9.44727 7.72461 7.95703 9.5293 7.95703C11.4844 7.95703 12.7832 9.33789 12.7832 11.2383C12.7832 12.4824 12.3184 13.5215 10.8965 15.2715L8.8457 17.8691L8.8457 17.9785L12.1816 17.9785C12.6738 17.9785 12.9883 18.2793 12.9883 18.8262C12.9883 19.3184 12.6875 19.6465 12.1816 19.6465ZM17.9512 19.9336C16.6797 19.9336 15.4355 19.1953 14.9434 18.0469C14.8066 17.7734 14.7246 17.459 14.7246 17.1309C14.7246 16.6113 15.0664 16.2832 15.5723 16.2832C15.9551 16.2832 16.2695 16.502 16.4336 16.9531C16.6934 17.7188 17.1445 18.2793 17.9238 18.2793C18.9629 18.2793 19.373 17.0898 19.373 15.9141C19.373 14.875 18.9766 13.6309 17.9512 13.6309C17.377 13.6309 17.0352 13.959 16.707 14.4238C16.4062 14.8066 16.2012 14.957 15.8047 14.957C15.1484 14.957 14.875 14.4785 14.875 13.9453C14.875 13.7539 14.875 13.5352 14.8887 13.3164L15.1348 9.46094C15.1758 8.73633 15.5176 8.24414 16.2559 8.24414L20.125 8.24414C20.6035 8.24414 20.918 8.61328 20.918 9.07812C20.918 9.58398 20.6172 9.92578 20.125 9.92578L16.8164 9.92578L16.5977 13.3438L16.6523 13.3438C17.0215 12.5234 17.7734 12.1406 18.6074 12.1406C20.4258 12.1406 21.3555 13.918 21.3555 15.8594C21.3555 18.0879 20.1523 19.9336 17.9512 19.9336Z" style="fill:var(--color-1,white)"></path>
 </g>
</svg>