<svg version="1.1" xmlns="http://www.w3.org/2000/svg" xmlns:xlink="http://www.w3.org/1999/xlink" viewBox="0 0 28.2461 27.9043">
 <g>
  
  <path d="M13.9453 27.8906C21.6426 27.8906 27.8906 21.6426 27.8906 13.9453C27.8906 6.24805 21.6426 0 13.9453 0C6.24805 0 0 6.24805 0 13.9453C0 21.6426 6.24805 27.8906 13.9453 27.8906ZM13.9453 25.5664C7.51953 25.5664 2.32422 20.3711 2.32422 13.9453C2.32422 7.51953 7.51953 2.32422 13.9453 2.32422C20.3711 2.32422 25.5664 7.51953 25.5664 13.9453C25.5664 20.3711 20.3711 25.5664 13.9453 25.5664Z" style="fill:var(--color-0,hsl(0 0 0/0.85))"></path>
  <path d="M7.47852 19.4688L12.2227 19.4688C12.7148 19.4688 13.002 19.1543 13.002 18.6758C13.002 18.1562 12.7012 17.8691 12.2227 17.8691L8.98242 17.8691L8.98242 17.7598L10.9785 15.2305C12.3457 13.5352 12.7969 12.5234 12.7969 11.3203C12.7969 9.47461 11.5391 8.13477 9.65234 8.13477C7.90234 8.13477 6.57617 9.58398 6.57617 11.0059C6.57617 11.5117 6.87695 11.8672 7.39648 11.8672C7.84766 11.8672 8.12109 11.6621 8.25781 11.2109C8.51758 10.2949 8.85938 9.7207 9.63867 9.7207C10.4727 9.7207 10.9238 10.4453 10.9238 11.416C10.9238 12.5098 10.1719 13.6172 9.44727 14.5469L7.06836 17.582C6.80859 17.9102 6.5625 18.252 6.5625 18.6758C6.5625 19.1406 6.86328 19.4688 7.47852 19.4688ZM17.8145 19.7559C19.9473 19.7559 21.1094 17.9648 21.1094 15.8047C21.1094 13.918 20.207 12.1953 18.4434 12.1953C17.6367 12.1953 16.8984 12.5645 16.543 13.3574L16.4883 13.3574L16.707 10.0352L19.9199 10.0352C20.3848 10.0352 20.6855 9.70703 20.6855 9.22852C20.6855 8.77734 20.3711 8.42188 19.9199 8.42188L16.1602 8.42188C15.4492 8.42188 15.1211 8.88672 15.0801 9.59766L14.8477 13.3438C14.834 13.5488 14.834 13.7676 14.834 13.9453C14.834 14.4648 15.0938 14.9297 15.7227 14.9297C16.1055 14.9297 16.3105 14.7793 16.5977 14.4102C16.9121 13.959 17.2539 13.6309 17.8145 13.6309C18.8125 13.6309 19.1953 14.8477 19.1953 15.8594C19.1953 16.9941 18.7988 18.1562 17.7871 18.1562C17.0215 18.1562 16.584 17.6094 16.3379 16.8574C16.1738 16.4199 15.873 16.2148 15.5039 16.2148C15.0117 16.2148 14.6836 16.5293 14.6836 17.0352C14.6836 17.3496 14.7656 17.6504 14.8887 17.9238C15.3672 19.0312 16.5703 19.7559 17.8145 19.7559Z" style="fill:var(--color-1,hsl(0 0 0/0.85))"></path>
 </g>
</svg>