<svg version="1.1" xmlns="http://www.w3.org/2000/svg" xmlns:xlink="http://www.w3.org/1999/xlink" viewBox="0 0 25.5254 25.1699">
 <g>
  
  <path d="M4.29297 25.1699L20.877 25.1699C23.748 25.1699 25.1699 23.7617 25.1699 20.9453L25.1699 4.23828C25.1699 1.42188 23.748 0 20.877 0L4.29297 0C1.43555 0 0 1.42188 0 4.23828L0 20.9453C0 23.7617 1.43555 25.1699 4.29297 25.1699Z" style="fill:var(--color-0,hsl(0 0 0/0.85))"></path>
  <path d="M5.93359 18.2793C5.30469 18.2793 4.99023 17.9375 4.99023 17.459C4.99023 17.0078 5.25 16.6523 5.50977 16.3242L7.95703 13.1934C8.70898 12.25 9.50195 11.1016 9.50195 9.9668C9.50195 8.96875 9.02344 8.23047 8.17578 8.23047C7.36914 8.23047 7.01367 8.81836 6.75391 9.76172C6.60352 10.2266 6.31641 10.4316 5.85156 10.4316C5.31836 10.4316 5.00391 10.0762 5.00391 9.54297C5.00391 8.08008 6.37109 6.58984 8.17578 6.58984C10.1309 6.58984 11.4297 7.9707 11.4297 9.87109C11.4297 11.1152 10.9648 12.1543 9.54297 13.9043L7.49219 16.502L7.49219 16.6113L10.8281 16.6113C11.3203 16.6113 11.6348 16.9121 11.6348 17.459C11.6348 17.9512 11.334 18.2793 10.8281 18.2793ZM16.5977 18.5664C15.3262 18.5664 14.082 17.8281 13.5898 16.6797C13.4531 16.4062 13.3848 16.0918 13.3848 15.7637C13.3848 15.2441 13.7129 14.916 14.2188 14.916C14.6016 14.916 14.916 15.1348 15.0801 15.5859C15.3398 16.3516 15.791 16.9121 16.5703 16.9121C17.6094 16.9121 18.0332 15.7227 18.0332 14.5469C18.0332 13.5078 17.623 12.2637 16.5977 12.2637C16.0234 12.2637 15.6816 12.5918 15.3535 13.0566C15.0527 13.4395 14.8477 13.5898 14.4648 13.5898C13.7949 13.5898 13.5215 13.1113 13.5215 12.5781C13.5215 12.3867 13.5215 12.168 13.5488 11.9492L13.7812 8.09375C13.8223 7.36914 14.1641 6.87695 14.9023 6.87695L18.7715 6.87695C19.25 6.87695 19.5645 7.24609 19.5645 7.71094C19.5645 8.2168 19.2773 8.55859 18.7715 8.55859L15.4629 8.55859L15.2441 11.9766L15.2988 11.9766C15.668 11.1562 16.4336 10.7734 17.2539 10.7734C19.0723 10.7734 20.002 12.5508 20.002 14.4922C20.002 16.7207 18.7988 18.5664 16.5977 18.5664Z" style="fill:var(--color-1,white)"></path>
 </g>
</svg>