<svg version="1.1" xmlns="http://www.w3.org/2000/svg" xmlns:xlink="http://www.w3.org/1999/xlink" viewBox="0 0 25.5254 25.1699">
 <g>
  
  <path d="M4.29297 25.1699L20.877 25.1699C23.748 25.1699 25.1699 23.7617 25.1699 20.9453L25.1699 4.23828C25.1699 1.42188 23.748 0 20.877 0L4.29297 0C1.43555 0 0 1.42188 0 4.23828L0 20.9453C0 23.7617 1.43555 25.1699 4.29297 25.1699ZM4.32031 22.9688C2.95312 22.9688 2.20117 22.2441 2.20117 20.8223L2.20117 4.36133C2.20117 2.93945 2.95312 2.20117 4.32031 2.20117L20.8496 2.20117C22.2031 2.20117 22.9688 2.93945 22.9688 4.36133L22.9688 20.8223C22.9688 22.2441 22.2031 22.9688 20.8496 22.9688Z" style="fill:var(--color-0,hsl(0 0 0/0.85))"></path>
  <path d="M6.80859 18.1016L11.5527 18.1016C12.0312 18.1016 12.3184 17.7871 12.3184 17.3086C12.3184 16.7891 12.0176 16.502 11.5527 16.502L8.29883 16.502L8.29883 16.3926L10.2949 13.8633C11.6621 12.168 12.1133 11.1562 12.1133 9.95312C12.1133 8.10742 10.8555 6.76758 8.96875 6.76758C7.21875 6.76758 5.89258 8.2168 5.89258 9.63867C5.89258 10.1445 6.19336 10.5 6.71289 10.5C7.16406 10.5 7.4375 10.2949 7.58789 9.84375C7.84766 8.92773 8.17578 8.35352 8.96875 8.35352C9.78906 8.35352 10.2539 9.07812 10.2539 10.0488C10.2539 11.1426 9.48828 12.25 8.76367 13.1797L6.38477 16.2148C6.13867 16.543 5.87891 16.8848 5.87891 17.3086C5.87891 17.7734 6.17969 18.1016 6.80859 18.1016ZM15.5039 18.293C16.0098 18.293 16.2422 18.0879 16.4199 17.5957L19.5371 9.25586C19.6875 8.83203 19.7969 8.50391 19.7969 8.10742C19.7969 7.47852 19.3184 7.05469 18.7031 7.05469L14.2871 7.05469C13.8223 7.05469 13.4941 7.39648 13.4941 7.86133C13.4941 8.32617 13.8223 8.66797 14.2871 8.66797L17.8008 8.66797L17.8008 8.79102L14.7793 16.6387C14.6562 16.9395 14.6016 17.1172 14.6016 17.4453C14.6016 17.8418 14.8613 18.293 15.5039 18.293Z" style="fill:var(--color-1,hsl(0 0 0/0.85))"></path>
 </g>
</svg>