<svg version="1.1" xmlns="http://www.w3.org/2000/svg" xmlns:xlink="http://www.w3.org/1999/xlink" viewBox="0 0 25.5254 25.1699">
 <g>
  
  <path d="M4.29297 25.1699L20.877 25.1699C23.748 25.1699 25.1699 23.7617 25.1699 20.9453L25.1699 4.23828C25.1699 1.42188 23.748 0 20.877 0L4.29297 0C1.43555 0 0 1.42188 0 4.23828L0 20.9453C0 23.7617 1.43555 25.1699 4.29297 25.1699ZM4.32031 22.9688C2.95312 22.9688 2.20117 22.2441 2.20117 20.8223L2.20117 4.36133C2.20117 2.93945 2.95312 2.20117 4.32031 2.20117L20.8496 2.20117C22.2031 2.20117 22.9688 2.93945 22.9688 4.36133L22.9688 20.8223C22.9688 22.2441 22.2031 22.9688 20.8496 22.9688Z" style="fill:var(--color-0,hsl(0 0 0/0.85))"></path>
  <path d="M6.08398 18.1016L10.8281 18.1016C11.3066 18.1016 11.6074 17.7871 11.6074 17.3086C11.6074 16.7891 11.293 16.502 10.8281 16.502L7.58789 16.502L7.58789 16.3926L9.58398 13.8633C10.9512 12.168 11.4023 11.1562 11.4023 9.95312C11.4023 8.10742 10.1445 6.76758 8.25781 6.76758C6.50781 6.76758 5.18164 8.2168 5.18164 9.63867C5.18164 10.1445 5.46875 10.5 6.00195 10.5C6.45312 10.5 6.72656 10.2949 6.86328 9.84375C7.12305 8.92773 7.46484 8.35352 8.24414 8.35352C9.06445 8.35352 9.5293 9.07812 9.5293 10.0488C9.5293 11.1426 8.77734 12.25 8.03906 13.1797L5.67383 16.2148C5.41406 16.543 5.16797 16.8848 5.16797 17.3086C5.16797 17.7734 5.45508 18.1016 6.08398 18.1016ZM16.5566 18.3477C18.7305 18.3477 20.1113 16.9941 20.1113 15.1211C20.1113 13.6309 19.168 12.5508 18.0742 12.3047L18.0742 12.2637C18.9902 11.9766 19.7969 11.0879 19.7969 9.78906C19.7969 8.02539 18.4844 6.82227 16.5566 6.82227C14.875 6.82227 13.3438 7.86133 13.3438 9.77539C13.3438 11.1699 14.2051 11.9902 15.0801 12.2637L15.0801 12.3047C13.918 12.5645 13.0293 13.6445 13.0293 15.1211C13.0293 17.1445 14.5605 18.3477 16.5566 18.3477ZM16.5703 11.6348C15.6953 11.6348 15.2441 10.7871 15.2441 9.98047C15.2441 9.10547 15.7227 8.28516 16.5703 8.28516C17.4453 8.28516 17.8828 9.10547 17.8828 9.98047C17.8828 10.8828 17.4316 11.6348 16.5703 11.6348ZM16.5703 16.8711C15.5723 16.8711 15.0801 15.9824 15.0801 14.9707C15.0801 13.9863 15.5723 13.1113 16.5703 13.1113C17.541 13.1113 18.0605 13.9316 18.0605 14.9707C18.0605 15.9824 17.5684 16.8711 16.5703 16.8711Z" style="fill:var(--color-1,hsl(0 0 0/0.85))"></path>
 </g>
</svg>