<?xml version="1.0" encoding="UTF-8"?>
<!--Generator: Apple Native CoreSVG 326-->
<!DOCTYPE svg
PUBLIC "-//W3C//DTD SVG 1.1//EN"
       "http://www.w3.org/Graphics/SVG/1.1/DTD/svg11.dtd">
<svg version="1.1" xmlns="http://www.w3.org/2000/svg" xmlns:xlink="http://www.w3.org/1999/xlink" viewBox="0 0 28.2461 27.9043">
 <g>
  <rect height="27.9043" opacity="0" width="28.2461" x="0" y="0"/>
  <path d="M13.9453 27.8906C21.6426 27.8906 27.8906 21.6426 27.8906 13.9453C27.8906 6.24805 21.6426 0 13.9453 0C6.24805 0 0 6.24805 0 13.9453C0 21.6426 6.24805 27.8906 13.9453 27.8906ZM13.9453 25.5664C7.51953 25.5664 2.32422 20.3711 2.32422 13.9453C2.32422 7.51953 7.51953 2.32422 13.9453 2.32422C20.3711 2.32422 25.5664 7.51953 25.5664 13.9453C25.5664 20.3711 20.3711 25.5664 13.9453 25.5664Z" fill="white" fill-opacity="0.85"/>
  <path d="M7.54688 19.4688L12.291 19.4688C12.7695 19.4688 13.0566 19.1543 13.0566 18.6758C13.0566 18.1562 12.7559 17.8691 12.291 17.8691L9.03711 17.8691L9.03711 17.7598L11.0332 15.2305C12.4141 13.5352 12.8516 12.5234 12.8516 11.3203C12.8516 9.47461 11.6074 8.13477 9.70703 8.13477C7.9707 8.13477 6.64453 9.58398 6.64453 11.0059C6.64453 11.5117 6.93164 11.8672 7.45117 11.8672C7.90234 11.8672 8.18945 11.6621 8.32617 11.2109C8.58594 10.2949 8.91406 9.7207 9.70703 9.7207C10.5273 9.7207 10.9922 10.4453 10.9922 11.416C10.9922 12.5098 10.2266 13.6172 9.50195 14.5469L7.13672 17.582C6.87695 17.9102 6.61719 18.252 6.61719 18.6758C6.61719 19.1406 6.91797 19.4688 7.54688 19.4688ZM17.1582 15.6543C18.2793 15.6543 19.1133 14.916 19.4277 13.7402L19.4824 13.7402C19.4824 13.7949 19.4824 13.8496 19.4824 13.8906C19.4824 15.4082 19.291 18.1426 17.7598 18.1426C17.1445 18.1426 16.7344 17.7188 16.4883 17.1309C16.2969 16.6797 16.0234 16.502 15.6133 16.502C15.0391 16.502 14.793 16.8848 14.793 17.3359C14.793 17.5 14.834 17.6641 14.875 17.8281C15.1621 19.0176 16.3516 19.7422 17.7188 19.7422C20.5215 19.7422 21.3418 16.6387 21.3418 13.8359C21.3418 11.252 20.5215 8.16211 17.7461 8.16211C15.668 8.16211 14.4648 9.91211 14.4648 12.0586C14.4648 13.9043 15.3535 15.6543 17.1582 15.6543ZM17.7734 14.1504C16.7617 14.1504 16.3516 12.9883 16.3516 11.9766C16.3516 10.9512 16.8164 9.74805 17.7734 9.74805C18.7988 9.74805 19.2227 10.9512 19.2227 11.9766C19.2227 13.0293 18.7578 14.1504 17.7734 14.1504Z" fill="white" fill-opacity="0.85"/>
 </g>
</svg>
