<svg version="1.1" xmlns="http://www.w3.org/2000/svg" xmlns:xlink="http://www.w3.org/1999/xlink" viewBox="0 0 28.2461 27.9043">
 <g>
  
  <path d="M13.9453 27.8906C21.6426 27.8906 27.8906 21.6426 27.8906 13.9453C27.8906 6.24805 21.6426 0 13.9453 0C6.24805 0 0 6.24805 0 13.9453C0 21.6426 6.24805 27.8906 13.9453 27.8906ZM13.9453 25.5664C7.51953 25.5664 2.32422 20.3711 2.32422 13.9453C2.32422 7.51953 7.51953 2.32422 13.9453 2.32422C20.3711 2.32422 25.5664 7.51953 25.5664 13.9453C25.5664 20.3711 20.3711 25.5664 13.9453 25.5664Z" style="fill:var(--color-0,hsl(0 0 0/0.85))"></path>
  <path d="M10.8281 20.1387L17.8555 20.1387C18.3887 20.1387 18.7715 19.7969 18.7715 19.25C18.7715 18.6758 18.3887 18.3477 17.8555 18.3477L12.8652 18.3477L12.8652 18.252L16.1191 14.793C17.3223 13.4941 18.1699 12.4141 18.1699 10.8965C18.1699 8.81836 16.502 7.4375 13.9727 7.4375C12.0312 7.4375 10.3223 8.61328 9.87109 10.1445C9.81641 10.3496 9.80273 10.5137 9.80273 10.6914C9.80273 11.2246 10.1582 11.5664 10.6914 11.5664C11.1699 11.5664 11.416 11.2656 11.6621 10.8828C12.0176 10.0488 12.7422 9.17383 14.0684 9.17383C15.3672 9.17383 16.2285 9.92578 16.2285 11.0605C16.2285 12.0586 15.3945 12.8926 14.5879 13.7402L10.2129 18.4297C9.98047 18.6895 9.85742 18.9629 9.85742 19.25C9.85742 19.7969 10.2266 20.1387 10.8281 20.1387Z" style="fill:var(--color-1,hsl(0 0 0/0.85))"></path>
 </g>
</svg>