<?xml version="1.0" encoding="UTF-8"?>
<!--Generator: Apple Native CoreSVG 326-->
<!DOCTYPE svg
PUBLIC "-//W3C//DTD SVG 1.1//EN"
       "http://www.w3.org/Graphics/SVG/1.1/DTD/svg11.dtd">
<svg version="1.1" xmlns="http://www.w3.org/2000/svg" xmlns:xlink="http://www.w3.org/1999/xlink" viewBox="0 0 28.2461 27.9043">
 <g>
  <rect height="27.9043" opacity="0" width="28.2461" x="0" y="0"/>
  <path d="M13.9453 27.8906C21.6426 27.8906 27.8906 21.6289 27.8906 13.9453C27.8906 6.24805 21.6426 0 13.9453 0C6.26172 0 0 6.24805 0 13.9453C0 21.6289 6.26172 27.8906 13.9453 27.8906Z" fill="white" fill-opacity="0.85"/>
  <path d="M6.71289 19.6465C6.07031 19.6465 5.76953 19.3047 5.76953 18.8262C5.76953 18.3887 6.01562 18.0332 6.28906 17.6914L8.73633 14.5742C9.48828 13.6172 10.2676 12.4688 10.2676 11.334C10.2676 10.3359 9.80273 9.59766 8.94141 9.59766C8.13477 9.59766 7.79297 10.1855 7.51953 11.1289C7.38281 11.5938 7.0957 11.8125 6.63086 11.8125C6.08398 11.8125 5.7832 11.4434 5.7832 10.9102C5.7832 9.44727 7.15039 7.95703 8.95508 7.95703C10.8965 7.95703 12.209 9.33789 12.209 11.2383C12.209 12.4824 11.7441 13.5215 10.3223 15.2715L8.27148 17.8691L8.27148 17.9922L11.6074 17.9922C12.0996 17.9922 12.4141 18.2793 12.4141 18.8262C12.4141 19.3184 12.1133 19.6465 11.6074 19.6465ZM15.2031 19.8242C14.6426 19.8242 14.1777 19.3594 14.1777 18.7852L14.1777 9.0918C14.1777 8.51758 14.6426 8.05273 15.2031 8.05273C15.7637 8.05273 16.2422 8.51758 16.2422 9.0918L16.2422 12.9883L19.7148 12.9883L19.7148 9.0918C19.7148 8.51758 20.1797 8.05273 20.7539 8.05273C21.3008 8.05273 21.7656 8.51758 21.7656 9.0918L21.7656 18.7852C21.7656 19.3594 21.3008 19.8242 20.7539 19.8242C20.1797 19.8242 19.7148 19.3594 19.7148 18.7852L19.7148 14.7109L16.2422 14.7109L16.2422 18.7852C16.2422 19.3594 15.7637 19.8242 15.2031 19.8242Z" fill="white"/>
 </g>
</svg>
