<?xml version="1.0" encoding="UTF-8"?>
<!--Generator: Apple Native CoreSVG 326-->
<!DOCTYPE svg
PUBLIC "-//W3C//DTD SVG 1.1//EN"
       "http://www.w3.org/Graphics/SVG/1.1/DTD/svg11.dtd">
<svg version="1.1" xmlns="http://www.w3.org/2000/svg" xmlns:xlink="http://www.w3.org/1999/xlink" viewBox="0 0 28.2461 27.9043">
 <g>
  <rect height="27.9043" opacity="0" width="28.2461" x="0" y="0"/>
  <path d="M13.9453 27.8906C21.6426 27.8906 27.8906 21.6426 27.8906 13.9453C27.8906 6.24805 21.6426 0 13.9453 0C6.24805 0 0 6.24805 0 13.9453C0 21.6426 6.24805 27.8906 13.9453 27.8906ZM13.9453 25.5664C7.51953 25.5664 2.32422 20.3711 2.32422 13.9453C2.32422 7.51953 7.51953 2.32422 13.9453 2.32422C20.3711 2.32422 25.5664 7.51953 25.5664 13.9453C25.5664 20.3711 20.3711 25.5664 13.9453 25.5664Z" fill="white" fill-opacity="0.85"/>
  <path d="M6.91797 19.4688L11.6621 19.4688C12.1543 19.4688 12.4414 19.1543 12.4414 18.6758C12.4414 18.1562 12.1406 17.8691 11.6621 17.8691L8.42188 17.8691L8.42188 17.7598L10.418 15.2305C11.7852 13.5352 12.2363 12.5234 12.2363 11.3203C12.2363 9.47461 10.9785 8.13477 9.0918 8.13477C7.3418 8.13477 6.01562 9.58398 6.01562 11.0059C6.01562 11.5117 6.31641 11.8672 6.83594 11.8672C7.28711 11.8672 7.56055 11.6621 7.69727 11.2109C7.95703 10.2949 8.29883 9.7207 9.07812 9.7207C9.91211 9.7207 10.3633 10.4453 10.3633 11.416C10.3633 12.5098 9.61133 13.6172 8.88672 14.5469L6.50781 17.582C6.24805 17.9102 6.00195 18.252 6.00195 18.6758C6.00195 19.1406 6.30273 19.4688 6.91797 19.4688ZM15.1484 19.6465C15.6816 19.6465 16.1465 19.1953 16.1465 18.6348L16.1465 14.6836L19.5234 14.6836L19.5234 18.6348C19.5234 19.1953 19.9746 19.6465 20.5215 19.6465C21.0547 19.6465 21.5059 19.1953 21.5059 18.6348L21.5059 9.22852C21.5059 8.68164 21.0547 8.23047 20.5215 8.23047C19.9746 8.23047 19.5234 8.68164 19.5234 9.22852L19.5234 13.0156L16.1465 13.0156L16.1465 9.22852C16.1465 8.68164 15.6816 8.23047 15.1484 8.23047C14.6016 8.23047 14.1504 8.68164 14.1504 9.22852L14.1504 18.6348C14.1504 19.1953 14.6016 19.6465 15.1484 19.6465Z" fill="white" fill-opacity="0.85"/>
 </g>
</svg>
