<?xml version="1.0" encoding="UTF-8"?>
<!--Generator: Apple Native CoreSVG 326-->
<!DOCTYPE svg
PUBLIC "-//W3C//DTD SVG 1.1//EN"
       "http://www.w3.org/Graphics/SVG/1.1/DTD/svg11.dtd">
<svg version="1.1" xmlns="http://www.w3.org/2000/svg" xmlns:xlink="http://www.w3.org/1999/xlink" viewBox="0 0 28.2461 27.9043">
 <g>
  <rect height="27.9043" opacity="0" width="28.2461" x="0" y="0"/>
  <path d="M13.9453 27.8906C21.6426 27.8906 27.8906 21.6289 27.8906 13.9453C27.8906 6.24805 21.6426 0 13.9453 0C6.26172 0 0 6.24805 0 13.9453C0 21.6289 6.26172 27.8906 13.9453 27.8906Z" fill="white" fill-opacity="0.85"/>
  <path d="M13.9863 20.6582C11.6758 20.6582 9.84375 19.5508 9.41992 17.9238C9.37891 17.7188 9.35156 17.5957 9.35156 17.3906C9.35156 16.8164 9.76172 16.4199 10.3359 16.4199C10.8281 16.4199 11.1152 16.6523 11.3066 17.1445C11.6484 18.1152 12.4961 18.8535 14.0273 18.8535C15.668 18.8535 16.7754 18.0332 16.7754 16.7617C16.7754 15.4902 15.6816 14.6152 14.0957 14.6152L13.1387 14.6152C12.6191 14.6152 12.25 14.2461 12.25 13.7539C12.25 13.2207 12.6191 12.8652 13.1387 12.8652L14.0273 12.8652C15.3672 12.8652 16.3516 12.0176 16.3516 10.8555C16.3516 9.7207 15.4766 9.02344 14.0684 9.02344C12.7559 9.02344 11.8809 9.67969 11.5664 10.7324C11.4023 11.2246 11.1016 11.4707 10.5957 11.4707C10.0352 11.4707 9.63867 11.0879 9.63867 10.5273C9.63867 10.3223 9.65234 10.1719 9.69336 9.9668C10.0762 8.29883 11.8125 7.23242 14.1094 7.23242C16.6387 7.23242 18.4434 8.64062 18.4434 10.6094C18.4434 12.0859 17.3496 13.3848 15.9277 13.5898L15.9277 13.6992C17.6367 13.8633 18.8945 15.1895 18.8945 16.8438C18.8945 19.0723 17.0215 20.6582 13.9863 20.6582Z" fill="white"/>
 </g>
</svg>
