<?xml version="1.0" encoding="UTF-8"?>
<!--Generator: Apple Native CoreSVG 326-->
<!DOCTYPE svg
PUBLIC "-//W3C//DTD SVG 1.1//EN"
       "http://www.w3.org/Graphics/SVG/1.1/DTD/svg11.dtd">
<svg version="1.1" xmlns="http://www.w3.org/2000/svg" xmlns:xlink="http://www.w3.org/1999/xlink" viewBox="0 0 25.5254 25.1699">
 <g>
  <rect height="25.1699" opacity="0" width="25.5254" x="0" y="0"/>
  <path d="M4.29297 25.1699L20.877 25.1699C23.748 25.1699 25.1699 23.7617 25.1699 20.9453L25.1699 4.23828C25.1699 1.42188 23.748 0 20.877 0L4.29297 0C1.43555 0 0 1.42188 0 4.23828L0 20.9453C0 23.7617 1.43555 25.1699 4.29297 25.1699ZM4.32031 22.9688C2.95312 22.9688 2.20117 22.2441 2.20117 20.8223L2.20117 4.36133C2.20117 2.93945 2.95312 2.20117 4.32031 2.20117L20.8496 2.20117C22.2031 2.20117 22.9688 2.93945 22.9688 4.36133L22.9688 20.8223C22.9688 22.2441 22.2031 22.9688 20.8496 22.9688Z" fill="white" fill-opacity="0.85"/>
  <path d="M8.35352 18.334C10.3223 18.334 11.8262 17.1035 11.8262 15.0527C11.8262 13.3574 10.8145 12.5234 9.65234 12.4004L9.65234 12.3457C10.8965 12.0176 11.498 10.9238 11.498 9.77539C11.498 7.88867 10.0898 6.80859 8.29883 6.80859C6.89062 6.80859 5.67383 7.60156 5.27734 8.81836C5.19531 9.07812 5.16797 9.32422 5.16797 9.55664C5.16797 9.99414 5.46875 10.3633 6.01562 10.3633C6.48047 10.3633 6.75391 10.1719 6.87695 9.70703C7.0957 8.90039 7.5332 8.38086 8.29883 8.38086C9.20117 8.38086 9.63867 9.0918 9.63867 9.99414C9.63867 10.9922 9.07812 11.7168 8.05273 11.7168L7.72461 11.7168C7.25977 11.7168 6.97266 12.0039 6.97266 12.4414C6.97266 12.8926 7.27344 13.166 7.72461 13.166L8.06641 13.166C9.22852 13.166 9.87109 13.7949 9.87109 14.998C9.87109 15.9414 9.37891 16.7344 8.35352 16.7344C7.36914 16.7344 6.91797 16.0645 6.75391 15.4492C6.61719 15.0117 6.33008 14.7793 5.89258 14.7793C5.3457 14.7793 4.99023 15.0938 4.99023 15.6406C4.99023 15.8867 5.03125 16.1328 5.09961 16.3516C5.49609 17.623 6.89062 18.334 8.35352 18.334ZM16.8027 18.375C19.5234 18.375 20.3301 15.3125 20.3301 12.5645C20.3301 9.81641 19.5234 6.75391 16.8027 6.75391C14.0684 6.75391 13.2617 9.81641 13.2617 12.5645C13.2617 15.3125 14.0684 18.375 16.8027 18.375ZM16.8027 16.748C15.6816 16.748 15.2578 14.9297 15.2578 12.5645C15.2578 10.1855 15.6816 8.36719 16.8027 8.36719C17.9238 8.36719 18.334 10.1855 18.334 12.5645C18.334 14.9297 17.9238 16.748 16.8027 16.748Z" fill="white" fill-opacity="0.85"/>
 </g>
</svg>
