<svg version="1.1" xmlns="http://www.w3.org/2000/svg" xmlns:xlink="http://www.w3.org/1999/xlink" viewBox="0 0 28.2461 27.9043">
 <g>
  
  <path d="M13.9453 27.8906C21.6426 27.8906 27.8906 21.6289 27.8906 13.9453C27.8906 6.24805 21.6426 0 13.9453 0C6.26172 0 0 6.24805 0 13.9453C0 21.6289 6.26172 27.8906 13.9453 27.8906Z" style="fill:var(--color-0,hsl(0 0 0/0.85))"></path>
  <path d="M9.57031 19.8789C8.03906 19.8789 6.61719 19.1543 6.20703 17.8418C6.13867 17.6094 6.09766 17.3633 6.09766 17.1035C6.09766 16.543 6.4668 16.2148 7.02734 16.2148C7.47852 16.2148 7.7793 16.4473 7.92969 16.9121C8.09375 17.541 8.54492 18.2246 9.57031 18.2246C10.623 18.2246 11.1289 17.4043 11.1289 16.4473C11.1289 15.2031 10.4727 14.5605 9.26953 14.5605L8.92773 14.5605C8.44922 14.5605 8.14844 14.2734 8.14844 13.8086C8.14844 13.3574 8.43555 13.0566 8.92773 13.0566L9.25586 13.0566C10.3086 13.0566 10.8828 12.3047 10.8828 11.2793C10.8828 10.3496 10.4453 9.63867 9.51562 9.63867C8.72266 9.63867 8.27148 10.1582 8.05273 10.9922C7.91602 11.4707 7.64258 11.6621 7.15039 11.6621C6.58984 11.6621 6.27539 11.2793 6.27539 10.8281C6.27539 10.5957 6.30273 10.3359 6.38477 10.0625C6.79492 8.81836 8.05273 7.99805 9.51562 7.99805C11.3477 7.99805 12.8105 9.10547 12.8105 11.0605C12.8105 12.2363 12.1953 13.3711 10.9102 13.7129L10.9102 13.7676C12.0996 13.8906 13.1523 14.752 13.1523 16.502C13.1523 18.6074 11.5938 19.8789 9.57031 19.8789ZM18.2793 19.9199C15.4629 19.9199 14.6289 16.7754 14.6289 13.9316C14.6289 11.0879 15.4629 7.94336 18.2793 7.94336C21.0957 7.94336 21.9297 11.0879 21.9297 13.9316C21.9297 16.7754 21.0957 19.9199 18.2793 19.9199ZM18.2793 18.2383C19.4277 18.2383 19.8652 16.3789 19.8652 13.9316C19.8652 11.4707 19.4277 9.61133 18.2793 9.61133C17.1445 9.61133 16.707 11.4707 16.707 13.9316C16.707 16.3789 17.1445 18.2383 18.2793 18.2383Z" style="fill:var(--color-1,white)"></path>
 </g>
</svg>