<?xml version="1.0" encoding="UTF-8"?>
<!--Generator: Apple Native CoreSVG 326-->
<!DOCTYPE svg
PUBLIC "-//W3C//DTD SVG 1.1//EN"
       "http://www.w3.org/Graphics/SVG/1.1/DTD/svg11.dtd">
<svg version="1.1" xmlns="http://www.w3.org/2000/svg" xmlns:xlink="http://www.w3.org/1999/xlink" viewBox="0 0 28.2461 27.9043">
 <g>
  <rect height="27.9043" opacity="0" width="28.2461" x="0" y="0"/>
  <path d="M13.9453 27.8906C21.6426 27.8906 27.8906 21.6426 27.8906 13.9453C27.8906 6.24805 21.6426 0 13.9453 0C6.24805 0 0 6.24805 0 13.9453C0 21.6426 6.24805 27.8906 13.9453 27.8906ZM13.9453 25.5664C7.51953 25.5664 2.32422 20.3711 2.32422 13.9453C2.32422 7.51953 7.51953 2.32422 13.9453 2.32422C20.3711 2.32422 25.5664 7.51953 25.5664 13.9453C25.5664 20.3711 20.3711 25.5664 13.9453 25.5664Z" fill="white" fill-opacity="0.85"/>
  <path d="M10.7188 19.7148C12.6738 19.7148 14.1914 18.4844 14.1914 16.4336C14.1914 14.7383 13.166 13.9043 12.0176 13.7812L12.0176 13.7402C13.248 13.4121 13.8633 12.3047 13.8633 11.1562C13.8633 9.26953 12.4414 8.18945 10.6641 8.18945C9.25586 8.18945 8.02539 8.98242 7.64258 10.1992C7.56055 10.459 7.5332 10.7051 7.5332 10.9375C7.5332 11.3887 7.83398 11.7441 8.36719 11.7441C8.83203 11.7441 9.10547 11.5664 9.24219 11.0879C9.46094 10.2812 9.89844 9.77539 10.6641 9.77539C11.5664 9.77539 11.9902 10.4727 11.9902 11.375C11.9902 12.373 11.4434 13.0977 10.418 13.0977L10.0898 13.0977C9.625 13.0977 9.33789 13.3848 9.33789 13.8359C9.33789 14.2871 9.63867 14.5469 10.0898 14.5469L10.4316 14.5469C11.5938 14.5469 12.2363 15.1895 12.2363 16.3789C12.2363 17.3223 11.7305 18.1289 10.7188 18.1289C9.7207 18.1289 9.2832 17.459 9.10547 16.8301C8.98242 16.3926 8.68164 16.1602 8.24414 16.1602C7.71094 16.1602 7.35547 16.4883 7.35547 17.0215C7.35547 17.2676 7.39648 17.5137 7.46484 17.7324C7.86133 19.0039 9.24219 19.7148 10.7188 19.7148ZM18.7852 19.6191C19.3184 19.6191 19.7695 19.168 19.7695 18.6211L19.7695 9.35156C19.7695 8.6543 19.332 8.24414 18.6211 8.24414C18.0469 8.24414 17.582 8.55859 17.2676 8.80469L15.7637 9.9668C15.5176 10.1582 15.3262 10.418 15.3262 10.7734C15.3262 11.1973 15.6133 11.498 16.0234 11.498C16.2422 11.498 16.3789 11.4297 16.5156 11.334L17.7734 10.3223L17.7734 18.6211C17.7734 19.168 18.2246 19.6191 18.7852 19.6191Z" fill="white" fill-opacity="0.85"/>
 </g>
</svg>
