<?xml version="1.0" encoding="UTF-8"?>
<!--Generator: Apple Native CoreSVG 326-->
<!DOCTYPE svg
PUBLIC "-//W3C//DTD SVG 1.1//EN"
       "http://www.w3.org/Graphics/SVG/1.1/DTD/svg11.dtd">
<svg version="1.1" xmlns="http://www.w3.org/2000/svg" xmlns:xlink="http://www.w3.org/1999/xlink" viewBox="0 0 28.2461 27.9043">
 <g>
  <rect height="27.9043" opacity="0" width="28.2461" x="0" y="0"/>
  <path d="M13.9453 27.8906C21.6426 27.8906 27.8906 21.6289 27.8906 13.9453C27.8906 6.24805 21.6426 0 13.9453 0C6.26172 0 0 6.24805 0 13.9453C0 21.6289 6.26172 27.8906 13.9453 27.8906Z" fill="white" fill-opacity="0.85"/>
  <path d="M9.74805 19.8926C8.2168 19.8926 6.79492 19.168 6.38477 17.8555C6.31641 17.623 6.27539 17.377 6.27539 17.1172C6.27539 16.5703 6.64453 16.2285 7.19141 16.2285C7.64258 16.2285 7.95703 16.4609 8.08008 16.9258C8.27148 17.5684 8.72266 18.252 9.74805 18.252C10.7871 18.252 11.3066 17.4316 11.3066 16.4609C11.3066 15.2305 10.6367 14.5742 9.44727 14.5742L9.0918 14.5742C8.62695 14.5742 8.3125 14.3008 8.3125 13.8359C8.3125 13.3711 8.61328 13.0703 9.0918 13.0703L9.43359 13.0703C10.4863 13.0703 11.0469 12.3184 11.0469 11.293C11.0469 10.3633 10.6094 9.65234 9.67969 9.65234C8.90039 9.65234 8.44922 10.1719 8.23047 11.0059C8.08008 11.498 7.79297 11.6758 7.31445 11.6758C6.76758 11.6758 6.45312 11.3066 6.45312 10.8418C6.45312 10.6094 6.48047 10.3496 6.54883 10.0762C6.95898 8.83203 8.23047 8.01172 9.67969 8.01172C11.5254 8.01172 12.9883 9.11914 12.9883 11.0742C12.9883 12.25 12.3594 13.3984 11.0879 13.7402L11.0879 13.7812C12.2637 13.9043 13.3164 14.7656 13.3164 16.5156C13.3164 18.6348 11.7578 19.8926 9.74805 19.8926ZM15.7227 19.6465C15.0938 19.6465 14.7793 19.3047 14.7793 18.8262C14.7793 18.375 15.0527 18.0332 15.2988 17.6914L17.7461 14.5605C18.498 13.6172 19.291 12.4688 19.291 11.334C19.291 10.3359 18.8125 9.59766 17.9512 9.59766C17.1582 9.59766 16.8027 10.1855 16.5566 11.1289C16.3926 11.5938 16.1055 11.8125 15.6406 11.8125C15.1074 11.8125 14.793 11.4434 14.793 10.9102C14.793 9.44727 16.1602 7.95703 17.9648 7.95703C19.9199 7.95703 21.2188 9.33789 21.2188 11.2383C21.2188 12.4824 20.7539 13.5215 19.3457 15.2715L17.2812 17.8691L17.2812 17.9785L20.6172 17.9785C21.123 17.9785 21.4238 18.2793 21.4238 18.8262C21.4238 19.3184 21.1367 19.6465 20.6172 19.6465Z" fill="white"/>
 </g>
</svg>
