<svg version="1.1" xmlns="http://www.w3.org/2000/svg" xmlns:xlink="http://www.w3.org/1999/xlink" viewBox="0 0 28.2461 27.9043">
 <g>
  
  <path d="M13.9453 27.8906C21.6426 27.8906 27.8906 21.6426 27.8906 13.9453C27.8906 6.24805 21.6426 0 13.9453 0C6.24805 0 0 6.24805 0 13.9453C0 21.6426 6.24805 27.8906 13.9453 27.8906ZM13.9453 25.5664C7.51953 25.5664 2.32422 20.3711 2.32422 13.9453C2.32422 7.51953 7.51953 2.32422 13.9453 2.32422C20.3711 2.32422 25.5664 7.51953 25.5664 13.9453C25.5664 20.3711 20.3711 25.5664 13.9453 25.5664Z" style="fill:var(--color-0,hsl(0 0 0/0.85))"></path>
  <path d="M9.81641 19.7148C11.7715 19.7148 13.2891 18.4844 13.2891 16.4336C13.2891 14.7383 12.2637 13.9043 11.1152 13.7812L11.1152 13.7402C12.3457 13.4121 12.9609 12.3047 12.9609 11.1562C12.9609 9.26953 11.5391 8.18945 9.76172 8.18945C8.35352 8.18945 7.12305 8.98242 6.74023 10.1992C6.6582 10.459 6.63086 10.7051 6.63086 10.9375C6.63086 11.3887 6.93164 11.7441 7.46484 11.7441C7.94336 11.7441 8.20312 11.5664 8.33984 11.0879C8.55859 10.2812 8.99609 9.77539 9.76172 9.77539C10.6641 9.77539 11.0879 10.4727 11.0879 11.375C11.0879 12.373 10.541 13.0977 9.51562 13.0977L9.1875 13.0977C8.72266 13.0977 8.43555 13.3848 8.43555 13.8359C8.43555 14.2871 8.73633 14.5469 9.1875 14.5469L9.5293 14.5469C10.6914 14.5469 11.334 15.1895 11.334 16.3789C11.334 17.3223 10.8281 18.1289 9.81641 18.1289C8.81836 18.1289 8.38086 17.459 8.20312 16.8301C8.08008 16.3926 7.7793 16.1602 7.3418 16.1602C6.80859 16.1602 6.45312 16.4883 6.45312 17.0215C6.45312 17.2676 6.49414 17.5137 6.5625 17.7324C6.95898 19.0039 8.33984 19.7148 9.81641 19.7148ZM18.0879 19.7148C20.0566 19.7148 21.5605 18.4844 21.5605 16.4336C21.5605 14.7383 20.5488 13.9043 19.3867 13.7812L19.3867 13.7402C20.6309 13.4121 21.2324 12.3047 21.2324 11.1562C21.2324 9.26953 19.8242 8.18945 18.0332 8.18945C16.625 8.18945 15.4082 8.98242 15.0117 10.1992C14.9434 10.459 14.9023 10.7051 14.9023 10.9375C14.9023 11.3887 15.2031 11.7441 15.75 11.7441C16.2148 11.7441 16.4883 11.5664 16.625 11.0879C16.8301 10.2812 17.2676 9.77539 18.0332 9.77539C18.9355 9.77539 19.373 10.4727 19.373 11.375C19.373 12.373 18.8125 13.0977 17.7871 13.0977L17.459 13.0977C17.0078 13.0977 16.707 13.3848 16.707 13.8359C16.707 14.2871 17.0078 14.5469 17.459 14.5469L17.8145 14.5469C18.9766 14.5469 19.6055 15.1895 19.6055 16.3789C19.6055 17.3223 19.1133 18.1289 18.0879 18.1289C17.1035 18.1289 16.6523 17.459 16.4883 16.8301C16.3516 16.3926 16.0645 16.1602 15.627 16.1602C15.0938 16.1602 14.7246 16.4883 14.7246 17.0215C14.7246 17.2676 14.7656 17.5137 14.834 17.7324C15.2305 19.0039 16.625 19.7148 18.0879 19.7148Z" style="fill:var(--color-1,hsl(0 0 0/0.85))"></path>
 </g>
</svg>