<svg version="1.1" xmlns="http://www.w3.org/2000/svg" xmlns:xlink="http://www.w3.org/1999/xlink" viewBox="0 0 25.5254 25.1699">
 <g>
  
  <path d="M4.29297 25.1699L20.877 25.1699C23.748 25.1699 25.1699 23.7617 25.1699 20.9453L25.1699 4.23828C25.1699 1.42188 23.748 0 20.877 0L4.29297 0C1.43555 0 0 1.42188 0 4.23828L0 20.9453C0 23.7617 1.43555 25.1699 4.29297 25.1699Z" style="fill:var(--color-0,hsl(0 0 0/0.85))"></path>
  <path d="M8.33984 18.5254C6.82227 18.5254 5.38672 17.8008 4.97656 16.4883C4.9082 16.2559 4.86719 16.0098 4.86719 15.75C4.86719 15.2031 5.23633 14.8613 5.79688 14.8613C6.26172 14.8613 6.54883 15.0938 6.69922 15.5586C6.86328 16.2012 7.31445 16.8848 8.33984 16.8848C9.39258 16.8848 9.89844 16.0508 9.89844 15.0801C9.89844 13.8633 9.24219 13.207 8.03906 13.207L7.69727 13.207C7.23242 13.207 6.91797 12.9336 6.91797 12.4688C6.91797 12.0039 7.21875 11.7031 7.69727 11.7031L8.02539 11.7031C9.0918 11.7031 9.66602 10.9512 9.66602 9.92578C9.66602 8.99609 9.21484 8.28516 8.28516 8.28516C7.49219 8.28516 7.05469 8.80469 6.82227 9.63867C6.68555 10.1309 6.41211 10.3086 5.93359 10.3086C5.35938 10.3086 5.05859 9.93945 5.05859 9.47461C5.05859 9.22852 5.08594 8.98242 5.16797 8.70898C5.56445 7.46484 6.83594 6.64453 8.28516 6.64453C10.1172 6.64453 11.5938 7.75195 11.5938 9.70703C11.5938 10.8828 10.9648 12.0312 9.67969 12.373L9.67969 12.4141C10.8691 12.5371 11.9219 13.3984 11.9219 15.1484C11.9219 17.2539 10.3633 18.5254 8.33984 18.5254ZM16.8848 18.5254C15.3672 18.5254 13.9316 17.8008 13.5215 16.4883C13.4531 16.2559 13.4121 16.0098 13.4121 15.75C13.4121 15.2031 13.7949 14.8613 14.3418 14.8613C14.793 14.8613 15.1074 15.0938 15.2305 15.5586C15.4082 16.2012 15.873 16.8848 16.8984 16.8848C17.9375 16.8848 18.457 16.0508 18.457 15.0801C18.457 13.8633 17.7871 13.207 16.5977 13.207L16.2422 13.207C15.7637 13.207 15.4492 12.9336 15.4492 12.4688C15.4492 12.0039 15.7637 11.7031 16.2422 11.7031L16.5703 11.7031C17.623 11.7031 18.1973 10.9512 18.1973 9.92578C18.1973 8.99609 17.7598 8.28516 16.8301 8.28516C16.0371 8.28516 15.5996 8.80469 15.3809 9.63867C15.2305 10.1309 14.9434 10.3086 14.4648 10.3086C13.9043 10.3086 13.6035 9.93945 13.6035 9.47461C13.6035 9.22852 13.6309 8.98242 13.6992 8.70898C14.1094 7.46484 15.3672 6.64453 16.8301 6.64453C18.6758 6.64453 20.125 7.75195 20.125 9.70703C20.125 10.8828 19.5098 12.0312 18.2246 12.373L18.2246 12.4141C19.4141 12.5371 20.4668 13.3984 20.4668 15.1484C20.4668 17.2539 18.9082 18.5254 16.8848 18.5254Z" style="fill:var(--color-1,white)"></path>
 </g>
</svg>