<?xml version="1.0" encoding="UTF-8"?>
<!--Generator: Apple Native CoreSVG 326-->
<!DOCTYPE svg
PUBLIC "-//W3C//DTD SVG 1.1//EN"
       "http://www.w3.org/Graphics/SVG/1.1/DTD/svg11.dtd">
<svg version="1.1" xmlns="http://www.w3.org/2000/svg" xmlns:xlink="http://www.w3.org/1999/xlink" viewBox="0 0 25.5254 25.1699">
 <g>
  <rect height="25.1699" opacity="0" width="25.5254" x="0" y="0"/>
  <path d="M4.29297 25.1699L20.877 25.1699C23.748 25.1699 25.1699 23.7617 25.1699 20.9453L25.1699 4.23828C25.1699 1.42188 23.748 0 20.877 0L4.29297 0C1.43555 0 0 1.42188 0 4.23828L0 20.9453C0 23.7617 1.43555 25.1699 4.29297 25.1699ZM4.32031 22.9688C2.95312 22.9688 2.20117 22.2441 2.20117 20.8223L2.20117 4.36133C2.20117 2.93945 2.95312 2.20117 4.32031 2.20117L20.8496 2.20117C22.2031 2.20117 22.9688 2.93945 22.9688 4.36133L22.9688 20.8223C22.9688 22.2441 22.2031 22.9688 20.8496 22.9688Z" fill="white" fill-opacity="0.85"/>
  <path d="M8.16211 18.3477C10.1309 18.3477 11.6348 17.1172 11.6348 15.0664C11.6348 13.3711 10.623 12.5371 9.46094 12.4141L9.46094 12.373C10.7051 12.0449 11.3066 10.9375 11.3066 9.78906C11.3066 7.90234 9.89844 6.82227 8.10742 6.82227C6.69922 6.82227 5.48242 7.61523 5.08594 8.83203C5.01758 9.0918 4.97656 9.33789 4.97656 9.57031C4.97656 10.0215 5.27734 10.377 5.82422 10.377C6.28906 10.377 6.5625 10.1992 6.69922 9.7207C6.9043 8.91406 7.3418 8.4082 8.10742 8.4082C9.00977 8.4082 9.44727 9.10547 9.44727 10.0078C9.44727 11.0059 8.88672 11.7305 7.86133 11.7305L7.5332 11.7305C7.08203 11.7305 6.78125 12.0176 6.78125 12.4688C6.78125 12.9199 7.08203 13.1797 7.5332 13.1797L7.88867 13.1797C9.05078 13.1797 9.67969 13.8223 9.67969 15.0117C9.67969 15.9551 9.1875 16.7617 8.17578 16.7617C7.17773 16.7617 6.72656 16.0918 6.5625 15.4629C6.42578 15.0254 6.13867 14.793 5.70117 14.793C5.16797 14.793 4.79883 15.1211 4.79883 15.6543C4.79883 15.9004 4.83984 16.1465 4.9082 16.3652C5.30469 17.6367 6.69922 18.3477 8.16211 18.3477ZM18.1426 18.2793C18.6484 18.2793 19.0723 17.9648 19.0723 17.3086L19.0723 15.9414L19.5645 15.9414C20.084 15.9414 20.3438 15.5996 20.3438 15.1348C20.3438 14.6973 20.1113 14.3555 19.5645 14.3555L19.0723 14.3555L19.0723 8.35352C19.0723 7.41016 18.457 6.87695 17.5547 6.87695C16.5977 6.87695 16.1465 7.36914 15.7637 8.2168L13.3164 13.5215C13.0977 14.0547 13.0156 14.4102 13.0156 14.834C13.0156 15.4902 13.4668 15.9414 14.1367 15.9414L17.1992 15.9414L17.1992 17.3086C17.1992 18.0332 17.7051 18.2793 18.1426 18.2793ZM17.2402 14.3965L14.6973 14.3965L14.6973 14.3008L17.1855 8.59961L17.2402 8.59961Z" fill="white" fill-opacity="0.85"/>
 </g>
</svg>
