<?xml version="1.0" encoding="UTF-8"?>
<!--Generator: Apple Native CoreSVG 326-->
<!DOCTYPE svg
PUBLIC "-//W3C//DTD SVG 1.1//EN"
       "http://www.w3.org/Graphics/SVG/1.1/DTD/svg11.dtd">
<svg version="1.1" xmlns="http://www.w3.org/2000/svg" xmlns:xlink="http://www.w3.org/1999/xlink" viewBox="0 0 25.5254 25.1699">
 <g>
  <rect height="25.1699" opacity="0" width="25.5254" x="0" y="0"/>
  <path d="M4.29297 25.1699L20.877 25.1699C23.748 25.1699 25.1699 23.7617 25.1699 20.9453L25.1699 4.23828C25.1699 1.42188 23.748 0 20.877 0L4.29297 0C1.43555 0 0 1.42188 0 4.23828L0 20.9453C0 23.7617 1.43555 25.1699 4.29297 25.1699Z" fill="white" fill-opacity="0.85"/>
  <path d="M8.02539 18.5254C6.50781 18.5254 5.07227 17.8008 4.66211 16.4883C4.59375 16.2559 4.55273 16.0098 4.55273 15.75C4.55273 15.2031 4.93555 14.8613 5.48242 14.8613C5.93359 14.8613 6.23438 15.0938 6.37109 15.5586C6.54883 16.2012 7.01367 16.8848 8.03906 16.8848C9.07812 16.8848 9.58398 16.0508 9.58398 15.0801C9.58398 13.8633 8.92773 13.207 7.73828 13.207L7.36914 13.207C6.9043 13.207 6.58984 12.9336 6.58984 12.4688C6.58984 12.0039 6.9043 11.7031 7.36914 11.7031L7.71094 11.7031C8.76367 11.7031 9.33789 10.9512 9.33789 9.92578C9.33789 8.99609 8.88672 8.28516 7.9707 8.28516C7.17773 8.28516 6.72656 8.80469 6.52148 9.63867C6.37109 10.1309 6.08398 10.3086 5.60547 10.3086C5.04492 10.3086 4.73047 9.93945 4.73047 9.47461C4.73047 9.22852 4.77148 8.98242 4.83984 8.70898C5.25 7.46484 6.50781 6.64453 7.9707 6.64453C9.81641 6.64453 11.2656 7.75195 11.2656 9.70703C11.2656 10.8828 10.6504 12.0312 9.36523 12.373L9.36523 12.4141C10.5547 12.5371 11.6074 13.3984 11.6074 15.1484C11.6074 17.2539 10.0488 18.5254 8.02539 18.5254ZM18.3203 18.457C17.8691 18.457 17.3496 18.1973 17.3496 17.4453L17.3496 16.0508L14.1914 16.0508C13.4941 16.0508 13.0293 15.5859 13.0293 14.9023C13.0293 14.4648 13.1113 14.0957 13.3438 13.5488L15.8594 8.08008C16.2559 7.20508 16.7207 6.69922 17.7051 6.69922C18.6484 6.69922 19.291 7.24609 19.291 8.23047L19.291 14.4102L19.7832 14.4102C20.3574 14.4102 20.5898 14.7656 20.5898 15.2168C20.5898 15.6953 20.3301 16.0508 19.7832 16.0508L19.291 16.0508L19.291 17.4453C19.291 18.1289 18.8398 18.457 18.3203 18.457ZM17.3906 14.4512L17.3906 8.47656L17.3359 8.47656L14.7656 14.3555L14.7656 14.4512Z" fill="white"/>
 </g>
</svg>
