<svg version="1.1" xmlns="http://www.w3.org/2000/svg" xmlns:xlink="http://www.w3.org/1999/xlink" viewBox="0 0 28.2461 27.9043">
 <g>
  
  <path d="M13.9453 27.8906C21.6426 27.8906 27.8906 21.6426 27.8906 13.9453C27.8906 6.24805 21.6426 0 13.9453 0C6.24805 0 0 6.24805 0 13.9453C0 21.6426 6.24805 27.8906 13.9453 27.8906ZM13.9453 25.5664C7.51953 25.5664 2.32422 20.3711 2.32422 13.9453C2.32422 7.51953 7.51953 2.32422 13.9453 2.32422C20.3711 2.32422 25.5664 7.51953 25.5664 13.9453C25.5664 20.3711 20.3711 25.5664 13.9453 25.5664Z" style="fill:var(--color-0,hsl(0 0 0/0.85))"></path>
  <path d="M9.50195 19.7148C11.4707 19.7148 12.9746 18.4844 12.9746 16.4336C12.9746 14.7383 11.9629 13.9043 10.8008 13.7812L10.8008 13.7402C12.0449 13.4121 12.6465 12.3047 12.6465 11.1562C12.6465 9.26953 11.2383 8.18945 9.44727 8.18945C8.03906 8.18945 6.82227 8.98242 6.42578 10.1992C6.35742 10.459 6.31641 10.7051 6.31641 10.9375C6.31641 11.3887 6.61719 11.7441 7.16406 11.7441C7.62891 11.7441 7.90234 11.5664 8.03906 11.0879C8.24414 10.2812 8.68164 9.77539 9.44727 9.77539C10.3496 9.77539 10.7871 10.4727 10.7871 11.375C10.7871 12.373 10.2266 13.0977 9.20117 13.0977L8.87305 13.0977C8.4082 13.0977 8.12109 13.3848 8.12109 13.8359C8.12109 14.2871 8.42188 14.5469 8.87305 14.5469L9.22852 14.5469C10.377 14.5469 11.0195 15.1895 11.0195 16.3789C11.0195 17.3223 10.5273 18.1289 9.50195 18.1289C8.51758 18.1289 8.06641 17.459 7.90234 16.8301C7.76562 16.3926 7.47852 16.1602 7.04102 16.1602C6.49414 16.1602 6.13867 16.4883 6.13867 17.0215C6.13867 17.2676 6.17969 17.5137 6.24805 17.7324C6.64453 19.0039 8.03906 19.7148 9.50195 19.7148ZM19.4824 19.6465C19.9883 19.6465 20.4121 19.332 20.4121 18.6758L20.4121 17.3086L20.9043 17.3086C21.4238 17.3086 21.6699 16.9668 21.6699 16.502C21.6699 16.0645 21.4512 15.7227 20.9043 15.7227L20.4121 15.7227L20.4121 9.7207C20.4121 8.77734 19.7969 8.24414 18.8945 8.24414C17.9375 8.24414 17.4863 8.73633 17.1035 9.58398L14.6562 14.8887C14.4238 15.4219 14.3555 15.7773 14.3555 16.2012C14.3555 16.8574 14.8066 17.3086 15.4766 17.3086L18.5391 17.3086L18.5391 18.6758C18.5391 19.4004 19.0449 19.6465 19.4824 19.6465ZM18.5801 15.7637L16.0371 15.7637L16.0371 15.668L18.5254 9.9668L18.5801 9.9668Z" style="fill:var(--color-1,hsl(0 0 0/0.85))"></path>
 </g>
</svg>