<?xml version="1.0" encoding="UTF-8"?>
<!--Generator: Apple Native CoreSVG 326-->
<!DOCTYPE svg
PUBLIC "-//W3C//DTD SVG 1.1//EN"
       "http://www.w3.org/Graphics/SVG/1.1/DTD/svg11.dtd">
<svg version="1.1" xmlns="http://www.w3.org/2000/svg" xmlns:xlink="http://www.w3.org/1999/xlink" viewBox="0 0 28.2461 27.9043">
 <g>
  <rect height="27.9043" opacity="0" width="28.2461" x="0" y="0"/>
  <path d="M13.9453 27.8906C21.6426 27.8906 27.8906 21.6289 27.8906 13.9453C27.8906 6.24805 21.6426 0 13.9453 0C6.26172 0 0 6.24805 0 13.9453C0 21.6289 6.26172 27.8906 13.9453 27.8906Z" fill="white" fill-opacity="0.85"/>
  <path d="M9.65234 19.8926C8.14844 19.8926 6.69922 19.168 6.30273 17.8555C6.2207 17.623 6.17969 17.377 6.17969 17.1172C6.17969 16.5703 6.54883 16.2285 7.12305 16.2285C7.57422 16.2285 7.875 16.4609 8.01172 16.9121C8.17578 17.5684 8.64062 18.252 9.65234 18.252C10.7051 18.252 11.2109 17.418 11.2109 16.4473C11.2109 15.2305 10.5547 14.5742 9.37891 14.5742L9.00977 14.5742C8.54492 14.5742 8.23047 14.3008 8.23047 13.8359C8.23047 13.3711 8.53125 13.0703 9.00977 13.0703L9.35156 13.0703C10.4043 13.0703 10.9785 12.3184 10.9785 11.293C10.9785 10.3633 10.5273 9.65234 9.59766 9.65234C8.81836 9.65234 8.36719 10.1719 8.14844 11.0059C8.01172 11.498 7.72461 11.6758 7.24609 11.6758C6.67188 11.6758 6.37109 11.3066 6.37109 10.8418C6.37109 10.5957 6.41211 10.3496 6.48047 10.0762C6.89062 8.83203 8.14844 8.01172 9.59766 8.01172C11.4434 8.01172 12.9062 9.11914 12.9062 11.0742C12.9062 12.25 12.2773 13.3984 11.0059 13.7266L11.0059 13.7812C12.1953 13.9043 13.248 14.7656 13.248 16.5156C13.248 18.6211 11.6895 19.8926 9.65234 19.8926ZM18.2246 19.9336C16.9531 19.9336 15.6953 19.1953 15.2031 18.0469C15.0938 17.7734 14.998 17.459 14.998 17.1309C14.998 16.6113 15.3262 16.2832 15.8594 16.2832C16.2285 16.2832 16.543 16.4883 16.707 16.9531C16.9668 17.7188 17.4043 18.2793 18.1973 18.2793C19.2363 18.2793 19.6602 17.0898 19.6602 15.9141C19.6602 14.875 19.2637 13.6309 18.2246 13.6309C17.6641 13.6309 17.3086 13.959 16.9805 14.4238C16.6934 14.8066 16.4609 14.957 16.0781 14.957C15.4219 14.957 15.1484 14.4785 15.1484 13.9453C15.1484 13.7539 15.1621 13.5352 15.1758 13.3164L15.3945 9.46094C15.4492 8.72266 15.7773 8.24414 16.5293 8.24414L20.3984 8.24414C20.877 8.24414 21.1914 8.61328 21.1914 9.07812C21.1914 9.58398 20.8906 9.92578 20.3984 9.92578L17.0898 9.92578L16.8574 13.3301L16.9258 13.3301C17.2812 12.5234 18.0605 12.1406 18.8945 12.1406C20.6992 12.1406 21.6426 13.918 21.6426 15.8594C21.6426 18.0879 20.4258 19.9336 18.2246 19.9336Z" fill="white"/>
 </g>
</svg>
