<?xml version="1.0" encoding="UTF-8"?>
<!--Generator: Apple Native CoreSVG 326-->
<!DOCTYPE svg
PUBLIC "-//W3C//DTD SVG 1.1//EN"
       "http://www.w3.org/Graphics/SVG/1.1/DTD/svg11.dtd">
<svg version="1.1" xmlns="http://www.w3.org/2000/svg" xmlns:xlink="http://www.w3.org/1999/xlink" viewBox="0 0 25.5254 25.1699">
 <g>
  <rect height="25.1699" opacity="0" width="25.5254" x="0" y="0"/>
  <path d="M4.29297 25.1699L20.877 25.1699C23.748 25.1699 25.1699 23.7617 25.1699 20.9453L25.1699 4.23828C25.1699 1.42188 23.748 0 20.877 0L4.29297 0C1.43555 0 0 1.42188 0 4.23828L0 20.9453C0 23.7617 1.43555 25.1699 4.29297 25.1699ZM4.32031 22.9688C2.95312 22.9688 2.20117 22.2441 2.20117 20.8223L2.20117 4.36133C2.20117 2.93945 2.95312 2.20117 4.32031 2.20117L20.8496 2.20117C22.2031 2.20117 22.9688 2.93945 22.9688 4.36133L22.9688 20.8223C22.9688 22.2441 22.2031 22.9688 20.8496 22.9688Z" fill="white" fill-opacity="0.85"/>
  <path d="M8.43555 18.3477C10.4043 18.3477 11.9082 17.1172 11.9082 15.0664C11.9082 13.3711 10.8965 12.5371 9.73438 12.4141L9.73438 12.373C10.9785 12.0449 11.5801 10.9375 11.5801 9.78906C11.5801 7.90234 10.1719 6.82227 8.38086 6.82227C6.97266 6.82227 5.75586 7.61523 5.35938 8.83203C5.29102 9.0918 5.25 9.33789 5.25 9.57031C5.25 10.0215 5.55078 10.377 6.09766 10.377C6.5625 10.377 6.83594 10.1992 6.97266 9.7207C7.17773 8.91406 7.61523 8.4082 8.38086 8.4082C9.29688 8.4082 9.7207 9.10547 9.7207 10.0078C9.7207 11.0059 9.16016 11.7305 8.13477 11.7305L7.80664 11.7305C7.35547 11.7305 7.05469 12.0176 7.05469 12.4688C7.05469 12.9199 7.35547 13.1797 7.80664 13.1797L8.16211 13.1797C9.32422 13.1797 9.95312 13.8223 9.95312 15.0117C9.95312 15.9551 9.46094 16.7617 8.44922 16.7617C7.45117 16.7617 7 16.0918 6.83594 15.4629C6.69922 15.0254 6.41211 14.793 5.97461 14.793C5.44141 14.793 5.07227 15.1211 5.07227 15.6543C5.07227 15.9004 5.11328 16.1465 5.18164 16.3652C5.57812 17.6367 6.97266 18.3477 8.43555 18.3477ZM16.7344 18.3887C18.8672 18.3887 20.043 16.5977 20.043 14.4375C20.043 12.5508 19.1406 10.8281 17.377 10.8281C16.5703 10.8281 15.832 11.1973 15.4766 11.9902L15.4082 11.9902L15.6406 8.66797L18.8398 8.66797C19.3184 8.66797 19.6055 8.33984 19.6055 7.86133C19.6055 7.41016 19.3047 7.05469 18.8398 7.05469L15.0938 7.05469C14.3691 7.05469 14.0547 7.51953 14 8.23047L13.7812 11.9766C13.7676 12.1816 13.7676 12.4004 13.7676 12.5781C13.7676 13.0977 14.0273 13.5625 14.6562 13.5625C15.0254 13.5625 15.2441 13.4121 15.5312 13.043C15.8457 12.5918 16.1875 12.2637 16.7344 12.2637C17.7461 12.2637 18.1289 13.4805 18.1289 14.4922C18.1289 15.627 17.7324 16.7891 16.707 16.7891C15.9551 16.7891 15.5176 16.2422 15.2715 15.4902C15.1074 15.0527 14.8066 14.8477 14.4375 14.8477C13.9316 14.8477 13.6172 15.1621 13.6172 15.668C13.6172 15.9824 13.6992 16.2832 13.8086 16.5566C14.2871 17.6641 15.5039 18.3887 16.7344 18.3887Z" fill="white" fill-opacity="0.85"/>
 </g>
</svg>
