<svg version="1.1" xmlns="http://www.w3.org/2000/svg" xmlns:xlink="http://www.w3.org/1999/xlink" viewBox="0 0 28.2461 27.9043">
 <g>
  
  <path d="M13.9453 27.8906C21.6426 27.8906 27.8906 21.6426 27.8906 13.9453C27.8906 6.24805 21.6426 0 13.9453 0C6.24805 0 0 6.24805 0 13.9453C0 21.6426 6.24805 27.8906 13.9453 27.8906ZM13.9453 25.5664C7.51953 25.5664 2.32422 20.3711 2.32422 13.9453C2.32422 7.51953 7.51953 2.32422 13.9453 2.32422C20.3711 2.32422 25.5664 7.51953 25.5664 13.9453C25.5664 20.3711 20.3711 25.5664 13.9453 25.5664Z" style="fill:var(--color-0,hsl(0 0 0/0.85))"></path>
  <path d="M9.77539 19.7148C11.7441 19.7148 13.248 18.4844 13.248 16.4336C13.248 14.7383 12.2363 13.9043 11.0742 13.7812L11.0742 13.7402C12.3184 13.4121 12.9199 12.3047 12.9199 11.1562C12.9199 9.26953 11.5117 8.18945 9.7207 8.18945C8.3125 8.18945 7.0957 8.98242 6.69922 10.1992C6.63086 10.459 6.58984 10.7051 6.58984 10.9375C6.58984 11.3887 6.89062 11.7441 7.4375 11.7441C7.90234 11.7441 8.17578 11.5664 8.3125 11.0879C8.51758 10.2812 8.95508 9.77539 9.7207 9.77539C10.623 9.77539 11.0605 10.4727 11.0605 11.375C11.0605 12.373 10.5 13.0977 9.47461 13.0977L9.14648 13.0977C8.68164 13.0977 8.39453 13.3848 8.39453 13.8359C8.39453 14.2871 8.69531 14.5469 9.14648 14.5469L9.50195 14.5469C10.6504 14.5469 11.293 15.1895 11.293 16.3789C11.293 17.3223 10.8008 18.1289 9.77539 18.1289C8.79102 18.1289 8.33984 17.459 8.17578 16.8301C8.03906 16.3926 7.75195 16.1602 7.31445 16.1602C6.76758 16.1602 6.41211 16.4883 6.41211 17.0215C6.41211 17.2676 6.45312 17.5137 6.52148 17.7324C6.91797 19.0039 8.3125 19.7148 9.77539 19.7148ZM18.0742 19.7559C20.207 19.7559 21.3828 17.9648 21.3828 15.8047C21.3828 13.918 20.4668 12.1953 18.7168 12.1953C17.9102 12.1953 17.1582 12.5645 16.8164 13.3574L16.748 13.3574L16.9668 10.0352L20.1797 10.0352C20.6582 10.0352 20.9453 9.70703 20.9453 9.22852C20.9453 8.77734 20.6445 8.42188 20.1797 8.42188L16.4336 8.42188C15.709 8.42188 15.3945 8.88672 15.3398 9.59766L15.1211 13.3438C15.1074 13.5488 15.0938 13.7676 15.0938 13.9453C15.0938 14.4648 15.3672 14.9297 15.9961 14.9297C16.3652 14.9297 16.584 14.7793 16.8711 14.4102C17.1855 13.959 17.5273 13.6309 18.0742 13.6309C19.0859 13.6309 19.4688 14.8477 19.4688 15.8594C19.4688 16.9941 19.0586 18.1562 18.0469 18.1562C17.2812 18.1562 16.8574 17.6094 16.5977 16.8574C16.4473 16.4199 16.1328 16.2148 15.7773 16.2148C15.2715 16.2148 14.957 16.5293 14.957 17.0352C14.957 17.3496 15.0391 17.6504 15.1484 17.9238C15.627 19.0312 16.8438 19.7559 18.0742 19.7559Z" style="fill:var(--color-1,hsl(0 0 0/0.85))"></path>
 </g>
</svg>