<?xml version="1.0" encoding="UTF-8"?>
<!--Generator: Apple Native CoreSVG 326-->
<!DOCTYPE svg
PUBLIC "-//W3C//DTD SVG 1.1//EN"
       "http://www.w3.org/Graphics/SVG/1.1/DTD/svg11.dtd">
<svg version="1.1" xmlns="http://www.w3.org/2000/svg" xmlns:xlink="http://www.w3.org/1999/xlink" viewBox="0 0 25.5254 25.1699">
 <g>
  <rect height="25.1699" opacity="0" width="25.5254" x="0" y="0"/>
  <path d="M4.29297 25.1699L20.877 25.1699C23.748 25.1699 25.1699 23.7617 25.1699 20.9453L25.1699 4.23828C25.1699 1.42188 23.748 0 20.877 0L4.29297 0C1.43555 0 0 1.42188 0 4.23828L0 20.9453C0 23.7617 1.43555 25.1699 4.29297 25.1699ZM4.32031 22.9688C2.95312 22.9688 2.20117 22.2441 2.20117 20.8223L2.20117 4.36133C2.20117 2.93945 2.95312 2.20117 4.32031 2.20117L20.8496 2.20117C22.2031 2.20117 22.9688 2.93945 22.9688 4.36133L22.9688 20.8223C22.9688 22.2441 22.2031 22.9688 20.8496 22.9688Z" fill="white" fill-opacity="0.85"/>
  <path d="M8.29883 18.3477C10.2676 18.3477 11.7715 17.1172 11.7715 15.0664C11.7715 13.3711 10.7598 12.5371 9.61133 12.4141L9.61133 12.373C10.8418 12.0449 11.4434 10.9375 11.4434 9.78906C11.4434 7.90234 10.0352 6.82227 8.25781 6.82227C6.83594 6.82227 5.61914 7.61523 5.22266 8.83203C5.1543 9.0918 5.12695 9.33789 5.12695 9.57031C5.12695 10.0215 5.42773 10.377 5.96094 10.377C6.42578 10.377 6.69922 10.1992 6.83594 9.7207C7.05469 8.91406 7.47852 8.4082 8.25781 8.4082C9.16016 8.4082 9.58398 9.10547 9.58398 10.0078C9.58398 11.0059 9.03711 11.7305 8.01172 11.7305L7.68359 11.7305C7.21875 11.7305 6.91797 12.0176 6.91797 12.4688C6.91797 12.9199 7.23242 13.1797 7.68359 13.1797L8.02539 13.1797C9.1875 13.1797 9.83008 13.8223 9.83008 15.0117C9.83008 15.9551 9.32422 16.7617 8.3125 16.7617C7.31445 16.7617 6.86328 16.0918 6.69922 15.4629C6.57617 15.0254 6.27539 14.793 5.83789 14.793C5.30469 14.793 4.94922 15.1211 4.94922 15.6543C4.94922 15.9004 4.97656 16.1465 5.05859 16.3652C5.44141 17.6367 6.83594 18.3477 8.29883 18.3477ZM16.8438 18.3887C18.9219 18.3887 20.125 16.6387 20.125 14.4922C20.125 12.6465 19.2227 10.8965 17.418 10.8965C16.3105 10.8965 15.4629 11.6348 15.1621 12.8105L15.1074 12.8105C15.1074 12.7559 15.1074 12.7012 15.1074 12.6602C15.1074 11.1426 15.2852 8.39453 16.8164 8.39453C17.4316 8.39453 17.8418 8.83203 18.0879 9.40625C18.2793 9.83008 18.5391 10.0215 18.9766 10.0215C19.5234 10.0215 19.7695 9.65234 19.7695 9.20117C19.7695 9.05078 19.7422 8.88672 19.7012 8.70898C19.4141 7.5332 18.2246 6.79492 16.8574 6.79492C14.0547 6.79492 13.2344 9.93945 13.2344 12.7148C13.2344 15.2988 14.0684 18.3887 16.8438 18.3887ZM16.8164 16.7891C15.7773 16.7891 15.3672 15.5039 15.3672 14.5195C15.3672 13.5215 15.8184 12.3867 16.8027 12.3867C17.8145 12.3867 18.2383 13.5625 18.2109 14.5742C18.2109 15.5723 17.7598 16.7891 16.8164 16.7891Z" fill="white" fill-opacity="0.85"/>
 </g>
</svg>
