<svg version="1.1" xmlns="http://www.w3.org/2000/svg" xmlns:xlink="http://www.w3.org/1999/xlink" viewBox="0 0 28.2461 27.9043">
 <g>
  
  <path d="M13.9453 27.8906C21.6426 27.8906 27.8906 21.6289 27.8906 13.9453C27.8906 6.24805 21.6426 0 13.9453 0C6.26172 0 0 6.24805 0 13.9453C0 21.6289 6.26172 27.8906 13.9453 27.8906Z" style="fill:var(--color-0,hsl(0 0 0/0.85))"></path>
  <path d="M9.51562 19.8926C8.01172 19.8926 6.5625 19.168 6.15234 17.8555C6.08398 17.623 6.05664 17.377 6.05664 17.1172C6.05664 16.5703 6.42578 16.2285 6.97266 16.2285C7.4375 16.2285 7.73828 16.4609 7.875 16.9258C8.03906 17.5684 8.50391 18.252 9.5293 18.252C10.5684 18.252 11.0879 17.418 11.0879 16.4473C11.0879 15.2305 10.4316 14.5742 9.22852 14.5742L8.88672 14.5742C8.42188 14.5742 8.09375 14.3008 8.09375 13.8359C8.09375 13.3711 8.4082 13.0703 8.88672 13.0703L9.21484 13.0703C10.2676 13.0703 10.8418 12.3184 10.8418 11.293C10.8418 10.3633 10.4043 9.65234 9.47461 9.65234C8.66797 9.65234 8.24414 10.1719 8.01172 11.0059C7.875 11.498 7.58789 11.6758 7.10938 11.6758C6.53516 11.6758 6.23438 11.3066 6.23438 10.8418C6.23438 10.5957 6.27539 10.3496 6.34375 10.0762C6.75391 8.83203 8.01172 8.01172 9.47461 8.01172C11.3066 8.01172 12.7695 9.11914 12.7695 11.0742C12.7695 12.25 12.1406 13.3984 10.8691 13.7402L10.8691 13.7812C12.0586 13.9043 13.0977 14.7656 13.0977 16.5156C13.0977 18.6211 11.5527 19.8926 9.51562 19.8926ZM18.3203 19.9336C15.4766 19.9336 14.6152 16.748 14.6152 14.082C14.6152 11.2246 15.4629 7.98438 18.3477 7.98438C19.7559 7.98438 20.9863 8.73633 21.2871 9.95312C21.3281 10.1309 21.3555 10.3086 21.3555 10.459C21.3555 10.9238 21.0957 11.3066 20.5352 11.3066C20.084 11.3066 19.8105 11.1152 19.6191 10.6777C19.3594 10.0898 18.9355 9.63867 18.3066 9.63867C16.7344 9.63867 16.5566 12.4688 16.5566 14.0273C16.5566 14.0684 16.5566 14.123 16.5566 14.1777L16.5977 14.1777C16.9121 12.9746 17.7871 12.209 18.9355 12.209C20.7949 12.209 21.7109 14.0137 21.7109 15.9141C21.7109 18.1289 20.4805 19.9336 18.3203 19.9336ZM18.293 18.2793C19.2773 18.2793 19.7422 17.0352 19.7422 16.0098C19.7695 14.9707 19.332 13.7539 18.293 13.7539C17.2812 13.7539 16.8164 14.916 16.8164 15.9414C16.8164 16.9531 17.2402 18.2793 18.293 18.2793Z" style="fill:var(--color-1,white)"></path>
 </g>
</svg>