<svg version="1.1" xmlns="http://www.w3.org/2000/svg" xmlns:xlink="http://www.w3.org/1999/xlink" viewBox="0 0 25.5254 25.1699">
 <g>
  
  <path d="M4.29297 25.1699L20.877 25.1699C23.748 25.1699 25.1699 23.7617 25.1699 20.9453L25.1699 4.23828C25.1699 1.42188 23.748 0 20.877 0L4.29297 0C1.43555 0 0 1.42188 0 4.23828L0 20.9453C0 23.7617 1.43555 25.1699 4.29297 25.1699Z" style="fill:var(--color-0,hsl(0 0 0/0.85))"></path>
  <path d="M8.79102 18.5254C7.28711 18.5254 5.83789 17.8008 5.44141 16.4883C5.35938 16.2559 5.33203 16.0098 5.33203 15.75C5.33203 15.2031 5.70117 14.8613 6.24805 14.8613C6.71289 14.8613 7.01367 15.0938 7.15039 15.5586C7.31445 16.2012 7.7793 16.8848 8.80469 16.8848C9.84375 16.8848 10.3633 16.0508 10.3633 15.0801C10.3633 13.8633 9.70703 13.207 8.50391 13.207L8.16211 13.207C7.69727 13.207 7.36914 12.9336 7.36914 12.4688C7.36914 12.0039 7.68359 11.7031 8.16211 11.7031L8.49023 11.7031C9.54297 11.7031 10.1172 10.9512 10.1172 9.92578C10.1172 8.99609 9.67969 8.28516 8.75 8.28516C7.94336 8.28516 7.51953 8.80469 7.28711 9.63867C7.15039 10.1309 6.86328 10.3086 6.38477 10.3086C5.82422 10.3086 5.50977 9.93945 5.50977 9.47461C5.50977 9.22852 5.55078 8.98242 5.61914 8.70898C6.0293 7.46484 7.28711 6.64453 8.75 6.64453C10.582 6.64453 12.0449 7.75195 12.0449 9.70703C12.0449 10.8828 11.416 12.0312 10.1445 12.373L10.1445 12.4141C11.334 12.5371 12.373 13.3984 12.373 15.1484C12.373 17.2539 10.8281 18.5254 8.79102 18.5254ZM15.6953 18.4707C15.0117 18.4707 14.7656 18.0059 14.7656 17.5957C14.7656 17.2539 14.8203 17.0762 14.9297 16.7617L18.0605 8.68164L18.0605 8.55859L14.4375 8.55859C13.959 8.55859 13.6172 8.20312 13.6172 7.71094C13.6172 7.23242 13.959 6.87695 14.4375 6.87695L18.9902 6.87695C19.6191 6.87695 20.125 7.31445 20.125 7.9707C20.125 8.38086 20.0156 8.72266 19.8516 9.16016L16.6387 17.7461C16.4473 18.2656 16.2148 18.4707 15.6953 18.4707Z" style="fill:var(--color-1,white)"></path>
 </g>
</svg>