<svg version="1.1" xmlns="http://www.w3.org/2000/svg" xmlns:xlink="http://www.w3.org/1999/xlink" viewBox="0 0 25.5254 25.1699">
 <g>
  
  <path d="M4.29297 25.1699L20.877 25.1699C23.748 25.1699 25.1699 23.7617 25.1699 20.9453L25.1699 4.23828C25.1699 1.42188 23.748 0 20.877 0L4.29297 0C1.43555 0 0 1.42188 0 4.23828L0 20.9453C0 23.7617 1.43555 25.1699 4.29297 25.1699ZM4.32031 22.9688C2.95312 22.9688 2.20117 22.2441 2.20117 20.8223L2.20117 4.36133C2.20117 2.93945 2.95312 2.20117 4.32031 2.20117L20.8496 2.20117C22.2031 2.20117 22.9688 2.93945 22.9688 4.36133L22.9688 20.8223C22.9688 22.2441 22.2031 22.9688 20.8496 22.9688Z" style="fill:var(--color-0,hsl(0 0 0/0.85))"></path>
  <path d="M8.91406 18.3477C10.8828 18.3477 12.3867 17.1172 12.3867 15.0664C12.3867 13.3711 11.375 12.5371 10.2266 12.4141L10.2266 12.373C11.457 12.0449 12.0586 10.9375 12.0586 9.78906C12.0586 7.90234 10.6504 6.82227 8.87305 6.82227C7.45117 6.82227 6.23438 7.61523 5.83789 8.83203C5.76953 9.0918 5.74219 9.33789 5.74219 9.57031C5.74219 10.0215 6.04297 10.377 6.57617 10.377C7.04102 10.377 7.31445 10.1992 7.45117 9.7207C7.66992 8.91406 8.09375 8.4082 8.87305 8.4082C9.77539 8.4082 10.1992 9.10547 10.1992 10.0078C10.1992 11.0059 9.63867 11.7305 8.62695 11.7305L8.29883 11.7305C7.83398 11.7305 7.5332 12.0176 7.5332 12.4688C7.5332 12.9199 7.84766 13.1797 8.29883 13.1797L8.64062 13.1797C9.80273 13.1797 10.4453 13.8223 10.4453 15.0117C10.4453 15.9551 9.93945 16.7617 8.92773 16.7617C7.92969 16.7617 7.47852 16.0918 7.31445 15.4629C7.19141 15.0254 6.89062 14.793 6.45312 14.793C5.91992 14.793 5.56445 15.1211 5.56445 15.6543C5.56445 15.9004 5.5918 16.1465 5.67383 16.3652C6.05664 17.6367 7.45117 18.3477 8.91406 18.3477ZM15.5996 18.293C16.1055 18.293 16.3242 18.0879 16.5156 17.5957L19.6328 9.25586C19.7832 8.83203 19.8926 8.50391 19.8926 8.10742C19.8926 7.47852 19.4004 7.05469 18.7988 7.05469L14.3828 7.05469C13.918 7.05469 13.5898 7.39648 13.5898 7.86133C13.5898 8.32617 13.918 8.66797 14.3828 8.66797L17.8965 8.66797L17.8965 8.79102L14.8613 16.6387C14.752 16.9395 14.6973 17.1172 14.6973 17.4453C14.6973 17.8418 14.9434 18.293 15.5996 18.293Z" style="fill:var(--color-1,hsl(0 0 0/0.85))"></path>
 </g>
</svg>