<?xml version="1.0" encoding="UTF-8"?>
<!--Generator: Apple Native CoreSVG 326-->
<!DOCTYPE svg
PUBLIC "-//W3C//DTD SVG 1.1//EN"
       "http://www.w3.org/Graphics/SVG/1.1/DTD/svg11.dtd">
<svg version="1.1" xmlns="http://www.w3.org/2000/svg" xmlns:xlink="http://www.w3.org/1999/xlink" viewBox="0 0 25.5254 25.1699">
 <g>
  <rect height="25.1699" opacity="0" width="25.5254" x="0" y="0"/>
  <path d="M4.29297 25.1699L20.877 25.1699C23.748 25.1699 25.1699 23.7617 25.1699 20.9453L25.1699 4.23828C25.1699 1.42188 23.748 0 20.877 0L4.29297 0C1.43555 0 0 1.42188 0 4.23828L0 20.9453C0 23.7617 1.43555 25.1699 4.29297 25.1699Z" fill="white" fill-opacity="0.85"/>
  <path d="M8.16211 18.5254C6.64453 18.5254 5.20898 17.8008 4.79883 16.4883C4.73047 16.2559 4.70312 16.0098 4.70312 15.75C4.70312 15.2031 5.07227 14.8613 5.61914 14.8613C6.07031 14.8613 6.38477 15.0938 6.50781 15.5586C6.68555 16.2012 7.15039 16.8848 8.17578 16.8848C9.21484 16.8848 9.73438 16.0508 9.73438 15.0801C9.73438 13.8633 9.07812 13.207 7.875 13.207L7.5332 13.207C7.05469 13.207 6.74023 12.9336 6.74023 12.4688C6.74023 12.0039 7.04102 11.7031 7.5332 11.7031L7.86133 11.7031C8.90039 11.7031 9.47461 10.9512 9.47461 9.92578C9.47461 8.99609 9.05078 8.28516 8.12109 8.28516C7.31445 8.28516 6.87695 8.80469 6.6582 9.63867C6.50781 10.1309 6.23438 10.3086 5.74219 10.3086C5.19531 10.3086 4.88086 9.93945 4.88086 9.47461C4.88086 9.22852 4.9082 8.98242 4.97656 8.70898C5.38672 7.46484 6.64453 6.64453 8.12109 6.64453C9.95312 6.64453 11.4023 7.75195 11.4023 9.70703C11.4023 10.8828 10.7871 12.0312 9.51562 12.373L9.51562 12.4141C10.7051 12.5371 11.7441 13.3984 11.7441 15.1484C11.7441 17.2539 10.1855 18.5254 8.16211 18.5254ZM16.8848 18.5254C14.8203 18.5254 13.2344 17.2949 13.2344 15.2031C13.2344 13.6719 14.1504 12.5645 15.3535 12.291L15.3535 12.25C14.4512 11.9766 13.5625 11.1289 13.5625 9.69336C13.5625 7.71094 15.1484 6.64453 16.8848 6.64453C18.8672 6.64453 20.2207 7.875 20.2207 9.70703C20.2207 11.0469 19.3867 11.9629 18.4434 12.25L18.4434 12.291C19.5781 12.5508 20.5488 13.6582 20.5488 15.2031C20.5488 17.1309 19.127 18.5254 16.8848 18.5254ZM16.8984 11.6074C17.7871 11.6074 18.2383 10.8281 18.2383 9.89844C18.2383 8.99609 17.8008 8.16211 16.8984 8.16211C16.0234 8.16211 15.5312 8.99609 15.5312 9.89844C15.5312 10.7324 15.9961 11.6074 16.8984 11.6074ZM16.8984 16.9941C17.9238 16.9941 18.4297 16.0781 18.4297 15.0391C18.4297 13.9727 17.8965 13.125 16.8984 13.125C15.873 13.125 15.3672 14.0273 15.3672 15.0391C15.3672 16.0781 15.873 16.9941 16.8984 16.9941Z" fill="white"/>
 </g>
</svg>
