<?xml version="1.0" encoding="UTF-8"?>
<!--Generator: Apple Native CoreSVG 326-->
<!DOCTYPE svg
PUBLIC "-//W3C//DTD SVG 1.1//EN"
       "http://www.w3.org/Graphics/SVG/1.1/DTD/svg11.dtd">
<svg version="1.1" xmlns="http://www.w3.org/2000/svg" xmlns:xlink="http://www.w3.org/1999/xlink" viewBox="0 0 28.2461 27.9043">
 <g>
  <rect height="27.9043" opacity="0" width="28.2461" x="0" y="0"/>
  <path d="M13.9453 27.8906C21.6426 27.8906 27.8906 21.6426 27.8906 13.9453C27.8906 6.24805 21.6426 0 13.9453 0C6.24805 0 0 6.24805 0 13.9453C0 21.6426 6.24805 27.8906 13.9453 27.8906ZM13.9453 25.5664C7.51953 25.5664 2.32422 20.3711 2.32422 13.9453C2.32422 7.51953 7.51953 2.32422 13.9453 2.32422C20.3711 2.32422 25.5664 7.51953 25.5664 13.9453C25.5664 20.3711 20.3711 25.5664 13.9453 25.5664Z" fill="white" fill-opacity="0.85"/>
  <path d="M9.65234 19.7148C11.6074 19.7148 13.1113 18.4844 13.1113 16.4336C13.1113 14.7383 12.0996 13.9043 10.9512 13.7812L10.9512 13.7402C12.1816 13.4121 12.7832 12.3047 12.7832 11.1562C12.7832 9.26953 11.375 8.18945 9.59766 8.18945C8.17578 8.18945 6.95898 8.98242 6.5625 10.1992C6.49414 10.459 6.4668 10.7051 6.4668 10.9375C6.4668 11.3887 6.76758 11.7441 7.30078 11.7441C7.76562 11.7441 8.03906 11.5664 8.17578 11.0879C8.39453 10.2812 8.81836 9.77539 9.59766 9.77539C10.5 9.77539 10.9238 10.4727 10.9238 11.375C10.9238 12.373 10.377 13.0977 9.35156 13.0977L9.02344 13.0977C8.55859 13.0977 8.27148 13.3848 8.27148 13.8359C8.27148 14.2871 8.57227 14.5469 9.02344 14.5469L9.36523 14.5469C10.5273 14.5469 11.1699 15.1895 11.1699 16.3789C11.1699 17.3223 10.6641 18.1289 9.65234 18.1289C8.6543 18.1289 8.20312 17.459 8.03906 16.8301C7.91602 16.3926 7.61523 16.1602 7.17773 16.1602C6.64453 16.1602 6.28906 16.4883 6.28906 17.0215C6.28906 17.2676 6.33008 17.5137 6.39844 17.7324C6.78125 19.0039 8.17578 19.7148 9.65234 19.7148ZM17.2266 15.6543C18.334 15.6543 19.168 14.916 19.4824 13.7402L19.5371 13.7402C19.5371 13.7949 19.5371 13.8496 19.5371 13.8906C19.5371 15.4082 19.3457 18.1426 17.8145 18.1426C17.1992 18.1426 16.7891 17.7188 16.543 17.1309C16.3516 16.6797 16.0781 16.502 15.668 16.502C15.0938 16.502 14.8477 16.8848 14.8477 17.3359C14.8477 17.5 14.8887 17.6641 14.9297 17.8281C15.2305 19.0176 16.4062 19.7422 17.7871 19.7422C20.5898 19.7422 21.3965 16.6387 21.3965 13.8359C21.3965 11.252 20.5762 8.16211 17.8008 8.16211C15.7227 8.16211 14.5195 9.91211 14.5195 12.0586C14.5195 13.9043 15.4082 15.6543 17.2266 15.6543ZM17.8281 14.1504C16.8164 14.1504 16.4062 12.9883 16.4062 11.9766C16.4062 10.9512 16.8711 9.74805 17.8281 9.74805C18.8535 9.74805 19.2773 10.9512 19.2773 11.9766C19.2773 13.0293 18.8125 14.1504 17.8281 14.1504Z" fill="white" fill-opacity="0.85"/>
 </g>
</svg>
