<?xml version="1.0" encoding="UTF-8"?>
<!--Generator: Apple Native CoreSVG 326-->
<!DOCTYPE svg
PUBLIC "-//W3C//DTD SVG 1.1//EN"
       "http://www.w3.org/Graphics/SVG/1.1/DTD/svg11.dtd">
<svg version="1.1" xmlns="http://www.w3.org/2000/svg" xmlns:xlink="http://www.w3.org/1999/xlink" viewBox="0 0 25.5254 25.1699">
 <g>
  <rect height="25.1699" opacity="0" width="25.5254" x="0" y="0"/>
  <path d="M4.29297 25.1699L20.877 25.1699C23.748 25.1699 25.1699 23.7617 25.1699 20.9453L25.1699 4.23828C25.1699 1.42188 23.748 0 20.877 0L4.29297 0C1.43555 0 0 1.42188 0 4.23828L0 20.9453C0 23.7617 1.43555 25.1699 4.29297 25.1699ZM4.32031 22.9688C2.95312 22.9688 2.20117 22.2441 2.20117 20.8223L2.20117 4.36133C2.20117 2.93945 2.95312 2.20117 4.32031 2.20117L20.8496 2.20117C22.2031 2.20117 22.9688 2.93945 22.9688 4.36133L22.9688 20.8223C22.9688 22.2441 22.2031 22.9688 20.8496 22.9688Z" fill="white" fill-opacity="0.85"/>
  <path d="M14.3828 19.0859C15.0254 19.0859 15.4082 18.6621 15.4082 17.9375L15.4082 16.2559L16.4473 16.2559C16.9805 16.2559 17.3496 15.9004 17.3496 15.3672C17.3496 14.834 16.9941 14.4648 16.4473 14.4648L15.4082 14.4648L15.4082 7.50586C15.4082 6.64453 14.7383 6.07031 13.7676 6.07031C12.8105 6.07031 12.209 6.41211 11.6758 7.23242C10.2539 9.36523 8.55859 11.8809 7.42383 13.7266C7.15039 14.1777 7.05469 14.5059 7.05469 14.916C7.05469 15.7227 7.61523 16.2559 8.47656 16.2559L13.3848 16.2559L13.3848 17.9375C13.3848 18.6484 13.7676 19.0859 14.3828 19.0859ZM13.3848 14.4648L9.06445 14.4648L9.06445 14.3828C10.1035 12.5918 11.8535 9.99414 13.2891 7.83398L13.3848 7.83398Z" fill="white" fill-opacity="0.85"/>
 </g>
</svg>
