<?xml version="1.0" encoding="UTF-8"?>
<!--Generator: Apple Native CoreSVG 326-->
<!DOCTYPE svg
PUBLIC "-//W3C//DTD SVG 1.1//EN"
       "http://www.w3.org/Graphics/SVG/1.1/DTD/svg11.dtd">
<svg version="1.1" xmlns="http://www.w3.org/2000/svg" xmlns:xlink="http://www.w3.org/1999/xlink" viewBox="0 0 28.2461 27.9043">
 <g>
  <rect height="27.9043" opacity="0" width="28.2461" x="0" y="0"/>
  <path d="M13.9453 27.8906C21.6426 27.8906 27.8906 21.6289 27.8906 13.9453C27.8906 6.24805 21.6426 0 13.9453 0C6.26172 0 0 6.24805 0 13.9453C0 21.6289 6.26172 27.8906 13.9453 27.8906Z" fill="white" fill-opacity="0.85"/>
  <path d="M10.7461 19.8242C10.2949 19.8242 9.77539 19.5645 9.77539 18.8262L9.77539 17.418L6.61719 17.418C5.93359 17.418 5.45508 16.9531 5.45508 16.2695C5.45508 15.832 5.55078 15.4629 5.76953 14.916L8.28516 9.44727C8.68164 8.57227 9.14648 8.06641 10.1582 8.06641C11.0742 8.06641 11.7168 8.61328 11.7168 9.59766L11.7168 15.7773L12.2227 15.7773C12.7832 15.7773 13.0293 16.1328 13.0293 16.584C13.0293 17.0625 12.7559 17.418 12.2227 17.418L11.7168 17.418L11.7168 18.8262C11.7168 19.4961 11.2793 19.8242 10.7461 19.8242ZM9.81641 15.8184L9.81641 9.84375L9.76172 9.84375L7.20508 15.7227L7.20508 15.8184ZM18.1152 19.9336C15.3125 19.9336 14.4648 16.7891 14.4648 13.9453C14.4648 11.1016 15.3125 7.95703 18.1152 7.95703C20.9316 7.95703 21.7793 11.1016 21.7793 13.9453C21.7793 16.7891 20.9316 19.9336 18.1152 19.9336ZM18.1152 18.252C19.2637 18.252 19.7012 16.3926 19.7012 13.9453C19.7012 11.4844 19.2637 9.63867 18.1152 9.63867C16.9668 9.63867 16.5293 11.4844 16.5293 13.9453C16.5293 16.3926 16.9668 18.252 18.1152 18.252Z" fill="white"/>
 </g>
</svg>
