<?xml version="1.0" encoding="UTF-8"?>
<!--Generator: Apple Native CoreSVG 326-->
<!DOCTYPE svg
PUBLIC "-//W3C//DTD SVG 1.1//EN"
       "http://www.w3.org/Graphics/SVG/1.1/DTD/svg11.dtd">
<svg version="1.1" xmlns="http://www.w3.org/2000/svg" xmlns:xlink="http://www.w3.org/1999/xlink" viewBox="0 0 28.2461 27.9043">
 <g>
  <rect height="27.9043" opacity="0" width="28.2461" x="0" y="0"/>
  <path d="M13.9453 27.8906C21.6426 27.8906 27.8906 21.6426 27.8906 13.9453C27.8906 6.24805 21.6426 0 13.9453 0C6.24805 0 0 6.24805 0 13.9453C0 21.6426 6.24805 27.8906 13.9453 27.8906ZM13.9453 25.5664C7.51953 25.5664 2.32422 20.3711 2.32422 13.9453C2.32422 7.51953 7.51953 2.32422 13.9453 2.32422C20.3711 2.32422 25.5664 7.51953 25.5664 13.9453C25.5664 20.3711 20.3711 25.5664 13.9453 25.5664Z" fill="white" fill-opacity="0.85"/>
  <path d="M10.8281 19.6465C11.334 19.6465 11.7578 19.332 11.7578 18.6758L11.7578 17.3086L12.25 17.3086C12.7695 17.3086 13.0293 16.9668 13.0293 16.502C13.0293 16.0645 12.7969 15.7227 12.25 15.7227L11.7578 15.7227L11.7578 9.7207C11.7578 8.77734 11.1426 8.24414 10.2539 8.24414C9.2832 8.24414 8.83203 8.73633 8.44922 9.58398L6.00195 14.8887C5.7832 15.4219 5.70117 15.7773 5.70117 16.2012C5.70117 16.8574 6.15234 17.3086 6.82227 17.3086L9.88477 17.3086L9.88477 18.6758C9.88477 19.4004 10.3906 19.6465 10.8281 19.6465ZM9.92578 15.7637L7.38281 15.7637L7.38281 15.668L9.87109 9.9668L9.92578 9.9668ZM17.9648 19.7559C20.6855 19.7559 21.5059 16.6934 21.5059 13.9453C21.5059 11.1973 20.6855 8.13477 17.9648 8.13477C15.2441 8.13477 14.4238 11.1973 14.4238 13.9453C14.4238 16.6934 15.2441 19.7559 17.9648 19.7559ZM17.9648 18.1289C16.8438 18.1289 16.4199 16.3105 16.4199 13.9453C16.4199 11.5664 16.8438 9.74805 17.9648 9.74805C19.0859 9.74805 19.5098 11.5664 19.5098 13.9453C19.5098 16.3105 19.0859 18.1289 17.9648 18.1289Z" fill="white" fill-opacity="0.85"/>
 </g>
</svg>
