<svg version="1.1" xmlns="http://www.w3.org/2000/svg" xmlns:xlink="http://www.w3.org/1999/xlink" viewBox="0 0 25.5254 25.1699">
 <g>
  
  <path d="M4.29297 25.1699L20.877 25.1699C23.748 25.1699 25.1699 23.7617 25.1699 20.9453L25.1699 4.23828C25.1699 1.42188 23.748 0 20.877 0L4.29297 0C1.43555 0 0 1.42188 0 4.23828L0 20.9453C0 23.7617 1.43555 25.1699 4.29297 25.1699Z" style="fill:var(--color-0,hsl(0 0 0/0.85))"></path>
  <path d="M9.66602 18.457C9.21484 18.457 8.68164 18.2109 8.68164 17.459L8.68164 16.0508L5.52344 16.0508C4.83984 16.0508 4.36133 15.5859 4.36133 14.9023C4.36133 14.4648 4.44336 14.0957 4.68945 13.5488L7.20508 8.09375C7.60156 7.20508 8.06641 6.69922 9.06445 6.69922C9.98047 6.69922 10.6367 7.25977 10.6367 8.23047L10.6367 14.4102L11.1289 14.4102C11.6895 14.4102 11.9355 14.7656 11.9355 15.2168C11.9355 15.6953 11.6758 16.0508 11.1289 16.0508L10.6367 16.0508L10.6367 17.459C10.6367 18.1289 10.1992 18.457 9.66602 18.457ZM8.72266 14.4512L8.72266 8.47656L8.66797 8.47656L6.11133 14.3555L6.11133 14.4512ZM14.2734 18.2793C13.6172 18.2793 13.3301 17.9375 13.3301 17.459C13.3301 17.0215 13.5762 16.666 13.8496 16.3242L16.2832 13.207C17.0352 12.25 17.8145 11.1016 17.8145 9.9668C17.8145 8.96875 17.3496 8.23047 16.502 8.23047C15.6953 8.23047 15.3535 8.81836 15.0801 9.76172C14.9434 10.2266 14.6562 10.4453 14.1914 10.4453C13.6445 10.4453 13.3438 10.0762 13.3438 9.54297C13.3438 8.08008 14.7109 6.58984 16.5156 6.58984C18.457 6.58984 19.7559 7.9707 19.7559 9.87109C19.7559 11.1152 19.291 12.1543 17.8828 13.9043L15.832 16.502L15.832 16.625L19.168 16.625C19.6465 16.625 19.9746 16.9121 19.9746 17.459C19.9746 17.9512 19.6602 18.2793 19.168 18.2793Z" style="fill:var(--color-1,white)"></path>
 </g>
</svg>