<?xml version="1.0" encoding="UTF-8"?>
<!--Generator: Apple Native CoreSVG 326-->
<!DOCTYPE svg
PUBLIC "-//W3C//DTD SVG 1.1//EN"
       "http://www.w3.org/Graphics/SVG/1.1/DTD/svg11.dtd">
<svg version="1.1" xmlns="http://www.w3.org/2000/svg" xmlns:xlink="http://www.w3.org/1999/xlink" viewBox="0 0 25.5254 25.1699">
 <g>
  <rect height="25.1699" opacity="0" width="25.5254" x="0" y="0"/>
  <path d="M4.29297 25.1699L20.877 25.1699C23.748 25.1699 25.1699 23.7617 25.1699 20.9453L25.1699 4.23828C25.1699 1.42188 23.748 0 20.877 0L4.29297 0C1.43555 0 0 1.42188 0 4.23828L0 20.9453C0 23.7617 1.43555 25.1699 4.29297 25.1699ZM4.32031 22.9688C2.95312 22.9688 2.20117 22.2441 2.20117 20.8223L2.20117 4.36133C2.20117 2.93945 2.95312 2.20117 4.32031 2.20117L20.8496 2.20117C22.2031 2.20117 22.9688 2.93945 22.9688 4.36133L22.9688 20.8223C22.9688 22.2441 22.2031 22.9688 20.8496 22.9688Z" fill="white" fill-opacity="0.85"/>
  <path d="M9.65234 18.2793C10.1582 18.2793 10.582 17.9648 10.582 17.3086L10.582 15.9414L11.0742 15.9414C11.5938 15.9414 11.8535 15.5996 11.8535 15.1348C11.8535 14.6973 11.6211 14.3555 11.0742 14.3555L10.582 14.3555L10.582 8.35352C10.582 7.41016 9.9668 6.87695 9.07812 6.87695C8.10742 6.87695 7.65625 7.36914 7.27344 8.2168L4.82617 13.5215C4.60742 14.0547 4.52539 14.4102 4.52539 14.834C4.52539 15.4902 4.97656 15.9414 5.64648 15.9414L8.70898 15.9414L8.70898 17.3086C8.70898 18.0332 9.21484 18.2793 9.65234 18.2793ZM8.75 14.3965L6.20703 14.3965L6.20703 14.3008L8.69531 8.59961L8.75 8.59961ZM16.5977 18.3477C18.5664 18.3477 20.0703 17.1172 20.0703 15.0664C20.0703 13.3711 19.0586 12.5371 17.9102 12.4141L17.9102 12.373C19.1406 12.0449 19.7422 10.9375 19.7422 9.78906C19.7422 7.90234 18.334 6.82227 16.5566 6.82227C15.1348 6.82227 13.918 7.61523 13.5215 8.83203C13.4531 9.0918 13.4258 9.33789 13.4258 9.57031C13.4258 10.0215 13.7266 10.377 14.2598 10.377C14.7246 10.377 14.998 10.1992 15.1348 9.7207C15.3535 8.91406 15.7773 8.4082 16.5566 8.4082C17.459 8.4082 17.8828 9.10547 17.8828 10.0078C17.8828 11.0059 17.3359 11.7305 16.3105 11.7305L15.9824 11.7305C15.5176 11.7305 15.2168 12.0176 15.2168 12.4688C15.2168 12.9199 15.5312 13.1797 15.9824 13.1797L16.3242 13.1797C17.4863 13.1797 18.1289 13.8223 18.1289 15.0117C18.1289 15.9551 17.623 16.7617 16.6113 16.7617C15.6133 16.7617 15.1621 16.0918 14.998 15.4629C14.875 15.0254 14.5742 14.793 14.1367 14.793C13.6035 14.793 13.248 15.1211 13.248 15.6543C13.248 15.9004 13.2754 16.1465 13.3574 16.3652C13.7402 17.6367 15.1348 18.3477 16.5977 18.3477Z" fill="white" fill-opacity="0.85"/>
 </g>
</svg>
