<svg version="1.1" xmlns="http://www.w3.org/2000/svg" xmlns:xlink="http://www.w3.org/1999/xlink" viewBox="0 0 25.5254 25.1699">
 <g>
  
  <path d="M4.29297 25.1699L20.877 25.1699C23.748 25.1699 25.1699 23.7617 25.1699 20.9453L25.1699 4.23828C25.1699 1.42188 23.748 0 20.877 0L4.29297 0C1.43555 0 0 1.42188 0 4.23828L0 20.9453C0 23.7617 1.43555 25.1699 4.29297 25.1699Z" style="fill:var(--color-0,hsl(0 0 0/0.85))"></path>
  <path d="M9.57031 18.457C9.11914 18.457 8.58594 18.1973 8.58594 17.4453L8.58594 16.0508L5.44141 16.0508C4.74414 16.0508 4.2793 15.5859 4.2793 14.9023C4.2793 14.4648 4.36133 14.0957 4.58008 13.5488L7.0957 8.08008C7.49219 7.20508 7.9707 6.69922 8.96875 6.69922C9.89844 6.69922 10.5273 7.24609 10.5273 8.23047L10.5273 14.4102L11.0332 14.4102C11.5938 14.4102 11.8398 14.7656 11.8398 15.2168C11.8398 15.6953 11.5664 16.0508 11.0332 16.0508L10.5273 16.0508L10.5273 17.4453C10.5273 18.1289 10.0898 18.457 9.57031 18.457ZM8.62695 14.4512L8.62695 8.47656L8.57227 8.47656L6.01562 14.3555L6.01562 14.4512ZM16.7344 18.5254C15.2305 18.5254 13.7812 17.8008 13.3848 16.4883C13.3027 16.2559 13.2754 16.0098 13.2754 15.75C13.2754 15.2031 13.6445 14.8613 14.1914 14.8613C14.6562 14.8613 14.957 15.0938 15.0938 15.5586C15.2578 16.2012 15.7227 16.8848 16.748 16.8848C17.7871 16.8848 18.3066 16.0508 18.3066 15.0801C18.3066 13.8633 17.6504 13.207 16.4473 13.207L16.1055 13.207C15.6406 13.207 15.3125 12.9336 15.3125 12.4688C15.3125 12.0039 15.627 11.7031 16.1055 11.7031L16.4336 11.7031C17.5 11.7031 18.0605 10.9512 18.0605 9.92578C18.0605 8.99609 17.623 8.28516 16.6934 8.28516C15.8867 8.28516 15.4629 8.80469 15.2305 9.63867C15.0938 10.1309 14.8066 10.3086 14.3281 10.3086C13.7676 10.3086 13.4531 9.93945 13.4531 9.47461C13.4531 9.22852 13.4941 8.98242 13.5625 8.70898C13.9727 7.46484 15.2305 6.64453 16.6934 6.64453C18.5254 6.64453 19.9883 7.75195 19.9883 9.70703C19.9883 10.8828 19.3594 12.0312 18.0879 12.373L18.0879 12.4141C19.2773 12.5371 20.3164 13.3984 20.3164 15.1484C20.3164 17.2539 18.7715 18.5254 16.7344 18.5254Z" style="fill:var(--color-1,white)"></path>
 </g>
</svg>