<?xml version="1.0" encoding="UTF-8"?>
<!--Generator: Apple Native CoreSVG 326-->
<!DOCTYPE svg
PUBLIC "-//W3C//DTD SVG 1.1//EN"
       "http://www.w3.org/Graphics/SVG/1.1/DTD/svg11.dtd">
<svg version="1.1" xmlns="http://www.w3.org/2000/svg" xmlns:xlink="http://www.w3.org/1999/xlink" viewBox="0 0 28.2461 27.9043">
 <g>
  <rect height="27.9043" opacity="0" width="28.2461" x="0" y="0"/>
  <path d="M13.9453 27.8906C21.6426 27.8906 27.8906 21.6426 27.8906 13.9453C27.8906 6.24805 21.6426 0 13.9453 0C6.24805 0 0 6.24805 0 13.9453C0 21.6426 6.24805 27.8906 13.9453 27.8906ZM13.9453 25.5664C7.51953 25.5664 2.32422 20.3711 2.32422 13.9453C2.32422 7.51953 7.51953 2.32422 13.9453 2.32422C20.3711 2.32422 25.5664 7.51953 25.5664 13.9453C25.5664 20.3711 20.3711 25.5664 13.9453 25.5664Z" fill="white" fill-opacity="0.85"/>
  <path d="M10.8281 19.6465C11.334 19.6465 11.7578 19.332 11.7578 18.6758L11.7578 17.3086L12.2363 17.3086C12.7695 17.3086 13.0156 16.9668 13.0156 16.502C13.0156 16.0645 12.7969 15.7227 12.2363 15.7227L11.7578 15.7227L11.7578 9.7207C11.7578 8.77734 11.1426 8.24414 10.2402 8.24414C9.2832 8.24414 8.83203 8.73633 8.44922 9.58398L6.00195 14.8887C5.76953 15.4219 5.70117 15.7773 5.70117 16.2012C5.70117 16.8574 6.15234 17.3086 6.82227 17.3086L9.87109 17.3086L9.87109 18.6758C9.87109 19.4004 10.3906 19.6465 10.8281 19.6465ZM9.91211 15.7637L7.38281 15.7637L7.38281 15.668L9.87109 9.9668L9.91211 9.9668ZM19.4551 19.6465C19.9609 19.6465 20.3848 19.332 20.3848 18.6758L20.3848 17.3086L20.877 17.3086C21.3965 17.3086 21.6426 16.9668 21.6426 16.502C21.6426 16.0645 21.4238 15.7227 20.877 15.7227L20.3848 15.7227L20.3848 9.7207C20.3848 8.77734 19.7695 8.24414 18.8672 8.24414C17.9102 8.24414 17.459 8.73633 17.0762 9.58398L14.6289 14.8887C14.3965 15.4219 14.3281 15.7773 14.3281 16.2012C14.3281 16.8574 14.7793 17.3086 15.4492 17.3086L18.5117 17.3086L18.5117 18.6758C18.5117 19.4004 19.0176 19.6465 19.4551 19.6465ZM18.5527 15.7637L16.0098 15.7637L16.0098 15.668L18.498 9.9668L18.5527 9.9668Z" fill="white" fill-opacity="0.85"/>
 </g>
</svg>
