<svg version="1.1" xmlns="http://www.w3.org/2000/svg" xmlns:xlink="http://www.w3.org/1999/xlink" viewBox="0 0 28.2461 27.9043">
 <g>
  
  <path d="M13.9453 27.8906C21.6426 27.8906 27.8906 21.6289 27.8906 13.9453C27.8906 6.24805 21.6426 0 13.9453 0C6.26172 0 0 6.24805 0 13.9453C0 21.6289 6.26172 27.8906 13.9453 27.8906Z" style="fill:var(--color-0,hsl(0 0 0/0.85))"></path>
  <path d="M10.7461 19.8242C10.2949 19.8242 9.76172 19.5645 9.76172 18.8125L9.76172 17.418L6.61719 17.418C5.91992 17.418 5.45508 16.9531 5.45508 16.2695C5.45508 15.832 5.52344 15.4629 5.76953 14.916L8.28516 9.44727C8.68164 8.57227 9.14648 8.06641 10.1445 8.06641C11.0742 8.06641 11.7168 8.61328 11.7168 9.59766L11.7168 15.7773L12.209 15.7773C12.7832 15.7773 13.0156 16.1328 13.0156 16.584C13.0156 17.0625 12.7559 17.418 12.209 17.418L11.7168 17.418L11.7168 18.8125C11.7168 19.4961 11.2793 19.8242 10.7461 19.8242ZM9.80273 15.8184L9.80273 9.84375L9.76172 9.84375L7.20508 15.7227L7.20508 15.8184ZM19.6602 19.8242C19.1953 19.8242 18.6758 19.5645 18.6758 18.8125L18.6758 17.418L15.5176 17.418C14.834 17.418 14.3555 16.9531 14.3555 16.2695C14.3555 15.832 14.4375 15.4629 14.6699 14.916L17.1855 9.44727C17.582 8.57227 18.0469 8.06641 19.0449 8.06641C19.9746 8.06641 20.6172 8.61328 20.6172 9.59766L20.6172 15.7773L21.123 15.7773C21.6836 15.7773 21.916 16.1328 21.916 16.584C21.916 17.0625 21.6562 17.418 21.123 17.418L20.6172 17.418L20.6172 18.8125C20.6172 19.4961 20.1797 19.8242 19.6602 19.8242ZM18.7031 15.8184L18.7031 9.84375L18.6621 9.84375L16.1055 15.7227L16.1055 15.8184Z" style="fill:var(--color-1,white)"></path>
 </g>
</svg>