<svg version="1.1" xmlns="http://www.w3.org/2000/svg" xmlns:xlink="http://www.w3.org/1999/xlink" viewBox="0 0 25.5254 25.1699">
 <g>
  
  <path d="M4.29297 25.1699L20.877 25.1699C23.748 25.1699 25.1699 23.7617 25.1699 20.9453L25.1699 4.23828C25.1699 1.42188 23.748 0 20.877 0L4.29297 0C1.43555 0 0 1.42188 0 4.23828L0 20.9453C0 23.7617 1.43555 25.1699 4.29297 25.1699ZM4.32031 22.9688C2.95312 22.9688 2.20117 22.2441 2.20117 20.8223L2.20117 4.36133C2.20117 2.93945 2.95312 2.20117 4.32031 2.20117L20.8496 2.20117C22.2031 2.20117 22.9688 2.93945 22.9688 4.36133L22.9688 20.8223C22.9688 22.2441 22.2031 22.9688 20.8496 22.9688Z" style="fill:var(--color-0,hsl(0 0 0/0.85))"></path>
  <path d="M9.48828 18.2793C9.99414 18.2793 10.418 17.9648 10.418 17.3086L10.418 15.9414L10.9102 15.9414C11.4297 15.9414 11.6758 15.5996 11.6758 15.1348C11.6758 14.6973 11.457 14.3555 10.9102 14.3555L10.418 14.3555L10.418 8.35352C10.418 7.41016 9.80273 6.87695 8.90039 6.87695C7.94336 6.87695 7.49219 7.36914 7.10938 8.2168L4.66211 13.5215C4.44336 14.0547 4.36133 14.4102 4.36133 14.834C4.36133 15.4902 4.8125 15.9414 5.48242 15.9414L8.54492 15.9414L8.54492 17.3086C8.54492 18.0332 9.05078 18.2793 9.48828 18.2793ZM8.58594 14.3965L6.04297 14.3965L6.04297 14.3008L8.53125 8.59961L8.58594 8.59961ZM18.1152 18.2793C18.6211 18.2793 19.0449 17.9648 19.0449 17.3086L19.0449 15.9414L19.5371 15.9414C20.0566 15.9414 20.3027 15.5996 20.3027 15.1348C20.3027 14.6973 20.084 14.3555 19.5371 14.3555L19.0449 14.3555L19.0449 8.35352C19.0449 7.41016 18.4297 6.87695 17.5273 6.87695C16.5703 6.87695 16.1191 7.36914 15.7363 8.2168L13.2891 13.5215C13.0703 14.0547 12.9883 14.4102 12.9883 14.834C12.9883 15.4902 13.4395 15.9414 14.1094 15.9414L17.1719 15.9414L17.1719 17.3086C17.1719 18.0332 17.6777 18.2793 18.1152 18.2793ZM17.2129 14.3965L14.6699 14.3965L14.6699 14.3008L17.1582 8.59961L17.2129 8.59961Z" style="fill:var(--color-1,hsl(0 0 0/0.85))"></path>
 </g>
</svg>