<?xml version="1.0" encoding="UTF-8"?>
<!--Generator: Apple Native CoreSVG 326-->
<!DOCTYPE svg
PUBLIC "-//W3C//DTD SVG 1.1//EN"
       "http://www.w3.org/Graphics/SVG/1.1/DTD/svg11.dtd">
<svg version="1.1" xmlns="http://www.w3.org/2000/svg" xmlns:xlink="http://www.w3.org/1999/xlink" viewBox="0 0 28.2461 33.2127">
 <g>
  <rect height="33.2127" opacity="0" width="28.2461" x="0" y="0"/>
  <path d="M13.9453 30.5448C21.6426 30.5448 27.8906 24.2968 27.8906 16.5995C27.8906 9.77724 22.9824 4.11708 16.584 2.91395L16.584 0.972548C16.584-0.0118272 15.9141-0.257921 15.1484 0.275282L10.8008 3.33778C10.1719 3.78895 10.1855 4.4452 10.8008 4.8827L15.1621 7.9452C15.9141 8.46474 16.584 8.21864 16.584 7.24794L16.584 5.27919C21.7246 6.46864 25.5664 11.0487 25.5664 16.5995C25.5664 23.0253 20.3711 28.2206 13.9453 28.2206C7.51953 28.2206 2.32422 23.0253 2.32422 16.5995C2.32422 12.703 4.23828 9.27138 7.13672 7.19325C7.69727 6.76942 7.875 6.12684 7.5332 5.55263C7.19141 5.00575 6.41211 4.84169 5.81055 5.30653C2.2832 7.8495 0 11.91 0 16.5995C0 24.2968 6.24805 30.5448 13.9453 30.5448Z" fill="white" fill-opacity="0.85"/>
  <path d="M10.8008 22.2186C11.2793 22.2186 11.7031 21.9452 11.7031 21.289L11.7031 20.0311L12.25 20.0311C12.7832 20.0311 13.0156 19.6893 13.0156 19.2792C13.0156 18.828 12.7559 18.5136 12.25 18.5136L11.7031 18.5136L11.7031 12.9081C11.7031 12.0058 11.1016 11.5272 10.2129 11.5272C9.32422 11.5272 8.87305 12.0058 8.46289 12.7987C7.65625 14.2069 6.4668 16.3944 5.83789 17.6933C5.66016 18.1171 5.49609 18.5546 5.49609 19.0194C5.49609 19.621 5.93359 20.0311 6.57617 20.0311L9.91211 20.0311L9.91211 21.289C9.91211 21.9315 10.3359 22.2186 10.8008 22.2186ZM9.93945 18.5683L7.12305 18.5683L7.12305 18.4725C7.86133 16.8183 8.99609 14.7128 9.88477 13.1268L9.93945 13.1268ZM17.9512 22.328C20.084 22.328 21.4102 20.7421 21.4102 18.6093C21.4102 16.7772 20.3711 15.205 18.5664 15.205C17.6504 15.205 16.8984 15.6151 16.5156 16.3261L16.4609 16.3261L16.707 13.2089L20.1934 13.2089C20.6445 13.2089 20.9453 12.9081 20.9453 12.4433C20.9453 11.9784 20.6445 11.6776 20.1934 11.6776L16.2148 11.6776C15.5039 11.6776 15.1758 12.0468 15.1348 12.7714L14.834 16.7499C14.793 17.3515 15.1074 17.8026 15.709 17.8026C16.1602 17.8026 16.3516 17.6386 16.625 17.3104C16.9531 16.8729 17.418 16.5995 17.9648 16.5995C19.0312 16.5995 19.5781 17.5702 19.5781 18.6503C19.5781 19.8261 18.9902 20.7831 17.9375 20.7831C17.1309 20.7831 16.584 20.2636 16.3105 19.5526C16.1191 19.1698 15.8457 18.9784 15.4902 18.9784C15.0117 18.9784 14.7109 19.2792 14.7109 19.7714C14.7109 19.9218 14.7246 20.0858 14.7793 20.2499C15.1211 21.5487 16.625 22.328 17.9512 22.328Z" fill="white" fill-opacity="0.85"/>
 </g>
</svg>
