<svg version="1.1" xmlns="http://www.w3.org/2000/svg" xmlns:xlink="http://www.w3.org/1999/xlink" viewBox="0 0 28.2461 27.9043">
 <g>
  
  <path d="M13.9453 27.8906C21.6426 27.8906 27.8906 21.6289 27.8906 13.9453C27.8906 6.24805 21.6426 0 13.9453 0C6.26172 0 0 6.24805 0 13.9453C0 21.6289 6.26172 27.8906 13.9453 27.8906Z" style="fill:var(--color-0,hsl(0 0 0/0.85))"></path>
  <path d="M11.0059 19.8242C10.5684 19.8242 10.0215 19.5645 10.0215 18.8125L10.0215 17.418L6.87695 17.418C6.19336 17.418 5.71484 16.9531 5.71484 16.2695C5.71484 15.832 5.79688 15.4629 6.04297 14.916L8.55859 9.44727C8.95508 8.57227 9.41992 8.06641 10.4043 8.06641C11.334 8.06641 11.9766 8.61328 11.9766 9.59766L11.9766 15.7773L12.4688 15.7773C13.043 15.7773 13.2754 16.1328 13.2754 16.584C13.2754 17.0625 13.0293 17.418 12.4688 17.418L11.9766 17.418L11.9766 18.8125C11.9766 19.4961 11.5391 19.8242 11.0059 19.8242ZM10.0625 15.8184L10.0625 9.84375L10.0078 9.84375L7.45117 15.7227L7.45117 15.8184ZM18.1836 19.9336C16.9258 19.9336 15.668 19.1953 15.1621 18.0469C15.0527 17.7734 14.9707 17.459 14.9707 17.1309C14.9707 16.6113 15.2988 16.2832 15.8184 16.2832C16.1875 16.2832 16.5156 16.4883 16.666 16.9395C16.9258 17.7188 17.377 18.2793 18.1562 18.2793C19.1953 18.2793 19.6191 17.0898 19.6191 15.9141C19.6191 14.875 19.2227 13.6309 18.1836 13.6309C17.623 13.6309 17.2676 13.959 16.9531 14.4238C16.6523 14.8066 16.4336 14.957 16.0508 14.957C15.3945 14.957 15.1074 14.4785 15.1074 13.9453C15.1074 13.7539 15.1211 13.5352 15.1348 13.3164L15.3672 9.46094C15.4219 8.72266 15.75 8.24414 16.4883 8.24414L20.3574 8.24414C20.8359 8.24414 21.1504 8.61328 21.1504 9.07812C21.1504 9.58398 20.8496 9.91211 20.3574 9.91211L17.0488 9.91211L16.8301 13.3301L16.8984 13.3301C17.2539 12.5234 18.0195 12.1406 18.8398 12.1406C20.6582 12.1406 21.5879 13.918 21.5879 15.8594C21.5879 18.0879 20.3848 19.9336 18.1836 19.9336Z" style="fill:var(--color-1,white)"></path>
 </g>
</svg>