<?xml version="1.0" encoding="UTF-8"?>
<!--Generator: Apple Native CoreSVG 326-->
<!DOCTYPE svg
PUBLIC "-//W3C//DTD SVG 1.1//EN"
       "http://www.w3.org/Graphics/SVG/1.1/DTD/svg11.dtd">
<svg version="1.1" xmlns="http://www.w3.org/2000/svg" xmlns:xlink="http://www.w3.org/1999/xlink" viewBox="0 0 28.2461 27.9043">
 <g>
  <rect height="27.9043" opacity="0" width="28.2461" x="0" y="0"/>
  <path d="M13.9453 27.8906C21.6426 27.8906 27.8906 21.6426 27.8906 13.9453C27.8906 6.24805 21.6426 0 13.9453 0C6.24805 0 0 6.24805 0 13.9453C0 21.6426 6.24805 27.8906 13.9453 27.8906ZM13.9453 25.5664C7.51953 25.5664 2.32422 20.3711 2.32422 13.9453C2.32422 7.51953 7.51953 2.32422 13.9453 2.32422C20.3711 2.32422 25.5664 7.51953 25.5664 13.9453C25.5664 20.3711 20.3711 25.5664 13.9453 25.5664Z" fill="white" fill-opacity="0.85"/>
  <path d="M10.8145 19.6465C11.334 19.6465 11.7578 19.332 11.7578 18.6758L11.7578 17.3086L12.2363 17.3086C12.7695 17.3086 13.0156 16.9668 13.0156 16.502C13.0156 16.0645 12.7832 15.7227 12.2363 15.7227L11.7578 15.7227L11.7578 9.7207C11.7578 8.77734 11.1289 8.24414 10.2402 8.24414C9.2832 8.24414 8.83203 8.73633 8.44922 9.58398L6.00195 14.8887C5.76953 15.4219 5.6875 15.7773 5.6875 16.2012C5.6875 16.8574 6.15234 17.3086 6.80859 17.3086L9.87109 17.3086L9.87109 18.6758C9.87109 19.4004 10.3906 19.6465 10.8145 19.6465ZM9.91211 15.7637L7.36914 15.7637L7.36914 15.668L9.85742 9.9668L9.91211 9.9668ZM18.0332 19.7559C20.1113 19.7559 21.3145 18.0059 21.3145 15.8594C21.3145 14.0137 20.4258 12.2637 18.6074 12.2637C17.5 12.2637 16.666 13.002 16.3516 14.1777L16.2969 14.1777C16.2969 14.123 16.2969 14.0684 16.2969 14.0273C16.2969 12.5098 16.4883 9.76172 18.0059 9.76172C18.6348 9.76172 19.0449 10.1992 19.2773 10.7734C19.4688 11.1973 19.7285 11.3887 20.1797 11.3887C20.7266 11.3887 20.959 11.0195 20.959 10.5684C20.959 10.418 20.9453 10.2539 20.8906 10.0762C20.6035 8.90039 19.4277 8.16211 18.0469 8.16211C15.2441 8.16211 14.4375 11.3066 14.4375 14.082C14.4375 16.666 15.2578 19.7559 18.0332 19.7559ZM18.0059 18.1562C16.9668 18.1562 16.5566 16.8711 16.5566 15.8867C16.5566 14.8887 17.0215 13.7539 18.0059 13.7539C19.0176 13.7539 19.4414 14.9297 19.4141 15.9414C19.4141 16.9395 18.9629 18.1562 18.0059 18.1562Z" fill="white" fill-opacity="0.85"/>
 </g>
</svg>
