<?xml version="1.0" encoding="UTF-8"?>
<!--Generator: Apple Native CoreSVG 326-->
<!DOCTYPE svg
PUBLIC "-//W3C//DTD SVG 1.1//EN"
       "http://www.w3.org/Graphics/SVG/1.1/DTD/svg11.dtd">
<svg version="1.1" xmlns="http://www.w3.org/2000/svg" xmlns:xlink="http://www.w3.org/1999/xlink" viewBox="0 0 25.5254 25.1699">
 <g>
  <rect height="25.1699" opacity="0" width="25.5254" x="0" y="0"/>
  <path d="M4.29297 25.1699L20.877 25.1699C23.748 25.1699 25.1699 23.7617 25.1699 20.9453L25.1699 4.23828C25.1699 1.42188 23.748 0 20.877 0L4.29297 0C1.43555 0 0 1.42188 0 4.23828L0 20.9453C0 23.7617 1.43555 25.1699 4.29297 25.1699ZM4.32031 22.9688C2.95312 22.9688 2.20117 22.2441 2.20117 20.8223L2.20117 4.36133C2.20117 2.93945 2.95312 2.20117 4.32031 2.20117L20.8496 2.20117C22.2031 2.20117 22.9688 2.93945 22.9688 4.36133L22.9688 20.8223C22.9688 22.2441 22.2031 22.9688 20.8496 22.9688Z" fill="white" fill-opacity="0.85"/>
  <path d="M9.48828 18.2793C9.99414 18.2793 10.418 17.9648 10.418 17.3086L10.418 15.9414L10.8965 15.9414C11.4297 15.9414 11.6758 15.5996 11.6758 15.1348C11.6758 14.6973 11.4434 14.3555 10.8965 14.3555L10.418 14.3555L10.418 8.35352C10.418 7.41016 9.78906 6.87695 8.90039 6.87695C7.94336 6.87695 7.49219 7.36914 7.10938 8.2168L4.66211 13.5215C4.42969 14.0547 4.34766 14.4102 4.34766 14.834C4.34766 15.4902 4.8125 15.9414 5.48242 15.9414L8.53125 15.9414L8.53125 17.3086C8.53125 18.0332 9.05078 18.2793 9.48828 18.2793ZM8.57227 14.3965L6.04297 14.3965L6.04297 14.3008L8.51758 8.59961L8.57227 8.59961ZM16.6934 18.3887C18.7852 18.3887 19.9746 16.6387 19.9746 14.4922C19.9746 12.6465 19.0859 10.8965 17.2676 10.8965C16.1602 10.8965 15.3262 11.6348 15.0117 12.8105L14.957 12.8105C14.957 12.7559 14.957 12.7012 14.957 12.6602C14.957 11.1426 15.1484 8.39453 16.666 8.39453C17.2949 8.39453 17.7051 8.83203 17.9375 9.40625C18.1289 9.83008 18.4023 10.0215 18.8398 10.0215C19.3867 10.0215 19.6191 9.65234 19.6191 9.20117C19.6191 9.05078 19.6055 8.88672 19.5645 8.70898C19.2637 7.5332 18.0879 6.79492 16.7207 6.79492C13.918 6.79492 13.0977 9.93945 13.0977 12.7148C13.0977 15.2988 13.918 18.3887 16.6934 18.3887ZM16.666 16.7891C15.6406 16.7891 15.2168 15.5039 15.2168 14.5195C15.2168 13.5215 15.6816 12.3867 16.666 12.3867C17.6777 12.3867 18.1016 13.5625 18.0742 14.5742C18.0742 15.5723 17.623 16.7891 16.666 16.7891Z" fill="white" fill-opacity="0.85"/>
 </g>
</svg>
