<?xml version="1.0" encoding="UTF-8"?>
<!--Generator: Apple Native CoreSVG 326-->
<!DOCTYPE svg
PUBLIC "-//W3C//DTD SVG 1.1//EN"
       "http://www.w3.org/Graphics/SVG/1.1/DTD/svg11.dtd">
<svg version="1.1" xmlns="http://www.w3.org/2000/svg" xmlns:xlink="http://www.w3.org/1999/xlink" viewBox="0 0 25.5254 25.1699">
 <g>
  <rect height="25.1699" opacity="0" width="25.5254" x="0" y="0"/>
  <path d="M4.29297 25.1699L20.877 25.1699C23.748 25.1699 25.1699 23.7617 25.1699 20.9453L25.1699 4.23828C25.1699 1.42188 23.748 0 20.877 0L4.29297 0C1.43555 0 0 1.42188 0 4.23828L0 20.9453C0 23.7617 1.43555 25.1699 4.29297 25.1699Z" fill="white" fill-opacity="0.85"/>
  <path d="M10.1035 18.457C9.65234 18.457 9.11914 18.1973 9.11914 17.4453L9.11914 16.0508L5.97461 16.0508C5.27734 16.0508 4.8125 15.5859 4.8125 14.9023C4.8125 14.4648 4.89453 14.0957 5.12695 13.5488L7.62891 8.08008C8.02539 7.20508 8.50391 6.69922 9.50195 6.69922C10.4316 6.69922 11.0605 7.24609 11.0605 8.23047L11.0605 14.4102L11.5664 14.4102C12.1406 14.4102 12.373 14.7656 12.373 15.2168C12.373 15.6953 12.1133 16.0508 11.5664 16.0508L11.0605 16.0508L11.0605 17.4453C11.0605 18.1289 10.623 18.457 10.1035 18.457ZM9.16016 14.4512L9.16016 8.47656L9.10547 8.47656L6.54883 14.3555L6.54883 14.4512ZM15.5039 18.4707C14.8477 18.4707 14.5742 18.0059 14.5742 17.5957C14.5742 17.2539 14.6289 17.0762 14.7383 16.7617L17.8691 8.68164L17.8691 8.55859L14.2461 8.55859C13.7676 8.55859 13.4258 8.20312 13.4258 7.71094C13.4258 7.23242 13.7676 6.87695 14.2461 6.87695L18.7988 6.87695C19.4414 6.87695 19.9336 7.31445 19.9336 7.9707C19.9336 8.38086 19.8242 8.72266 19.6738 9.16016L16.4609 17.7461C16.2559 18.2656 16.0371 18.4707 15.5039 18.4707Z" fill="white"/>
 </g>
</svg>
