<svg version="1.1" xmlns="http://www.w3.org/2000/svg" xmlns:xlink="http://www.w3.org/1999/xlink" viewBox="0 0 28.2461 27.9043">
 <g>
  
  <path d="M13.9453 27.8906C21.6426 27.8906 27.8906 21.6426 27.8906 13.9453C27.8906 6.24805 21.6426 0 13.9453 0C6.24805 0 0 6.24805 0 13.9453C0 21.6426 6.24805 27.8906 13.9453 27.8906ZM13.9453 25.5664C7.51953 25.5664 2.32422 20.3711 2.32422 13.9453C2.32422 7.51953 7.51953 2.32422 13.9453 2.32422C20.3711 2.32422 25.5664 7.51953 25.5664 13.9453C25.5664 20.3711 20.3711 25.5664 13.9453 25.5664Z" style="fill:var(--color-0,hsl(0 0 0/0.85))"></path>
  <path d="M11.5117 19.6465C12.0176 19.6465 12.4414 19.332 12.4414 18.6758L12.4414 17.3086L12.9336 17.3086C13.4531 17.3086 13.7129 16.9668 13.7129 16.502C13.7129 16.0645 13.4805 15.7227 12.9336 15.7227L12.4414 15.7227L12.4414 9.7207C12.4414 8.77734 11.8262 8.24414 10.9238 8.24414C9.9668 8.24414 9.51562 8.73633 9.13281 9.58398L6.68555 14.8887C6.4668 15.4219 6.38477 15.7773 6.38477 16.2012C6.38477 16.8574 6.83594 17.3086 7.50586 17.3086L10.5684 17.3086L10.5684 18.6758C10.5684 19.4004 11.0742 19.6465 11.5117 19.6465ZM10.6094 15.7637L8.06641 15.7637L8.06641 15.668L10.5547 9.9668L10.6094 9.9668ZM16.748 19.6602C17.2539 19.6602 17.4727 19.4551 17.6641 18.9629L20.7812 10.623C20.9316 10.1992 21.041 9.87109 21.041 9.47461C21.041 8.8457 20.5488 8.42188 19.9473 8.42188L15.5312 8.42188C15.0664 8.42188 14.7383 8.76367 14.7383 9.22852C14.7383 9.69336 15.0664 10.0352 15.5312 10.0352L19.0449 10.0352L19.0449 10.1582L16.0098 18.0059C15.9004 18.3066 15.8457 18.4844 15.8457 18.8125C15.8457 19.209 16.0918 19.6602 16.748 19.6602Z" style="fill:var(--color-1,hsl(0 0 0/0.85))"></path>
 </g>
</svg>