<svg version="1.1" xmlns="http://www.w3.org/2000/svg" xmlns:xlink="http://www.w3.org/1999/xlink" viewBox="0 0 25.5254 25.1699">
 <g>
  
  <path d="M4.29297 25.1699L20.877 25.1699C23.748 25.1699 25.1699 23.7617 25.1699 20.9453L25.1699 4.23828C25.1699 1.42188 23.748 0 20.877 0L4.29297 0C1.43555 0 0 1.42188 0 4.23828L0 20.9453C0 23.7617 1.43555 25.1699 4.29297 25.1699ZM4.32031 22.9688C2.95312 22.9688 2.20117 22.2441 2.20117 20.8223L2.20117 4.36133C2.20117 2.93945 2.95312 2.20117 4.32031 2.20117L20.8496 2.20117C22.2031 2.20117 22.9688 2.93945 22.9688 4.36133L22.9688 20.8223C22.9688 22.2441 22.2031 22.9688 20.8496 22.9688Z" style="fill:var(--color-0,hsl(0 0 0/0.85))"></path>
  <path d="M10.1719 18.2793C10.6777 18.2793 11.1016 17.9648 11.1016 17.3086L11.1016 15.9414L11.5938 15.9414C12.1133 15.9414 12.373 15.5996 12.373 15.1348C12.373 14.6973 12.1406 14.3555 11.5938 14.3555L11.1016 14.3555L11.1016 8.35352C11.1016 7.41016 10.4863 6.87695 9.59766 6.87695C8.62695 6.87695 8.17578 7.36914 7.79297 8.2168L5.3457 13.5215C5.12695 14.0547 5.04492 14.4102 5.04492 14.834C5.04492 15.4902 5.49609 15.9414 6.16602 15.9414L9.22852 15.9414L9.22852 17.3086C9.22852 18.0332 9.73438 18.2793 10.1719 18.2793ZM9.26953 14.3965L6.72656 14.3965L6.72656 14.3008L9.21484 8.59961L9.26953 8.59961ZM15.4082 18.293C15.9141 18.293 16.1328 18.0879 16.3242 17.5957L19.4414 9.25586C19.5918 8.83203 19.7012 8.50391 19.7012 8.10742C19.7012 7.47852 19.2227 7.05469 18.6074 7.05469L14.1914 7.05469C13.7266 7.05469 13.3984 7.39648 13.3984 7.86133C13.3984 8.32617 13.7266 8.66797 14.1914 8.66797L17.7051 8.66797L17.7051 8.79102L14.6699 16.6387C14.5605 16.9395 14.5059 17.1172 14.5059 17.4453C14.5059 17.8418 14.7656 18.293 15.4082 18.293Z" style="fill:var(--color-1,hsl(0 0 0/0.85))"></path>
 </g>
</svg>