<svg version="1.1" xmlns="http://www.w3.org/2000/svg" xmlns:xlink="http://www.w3.org/1999/xlink" viewBox="0 0 25.5254 25.1699">
 <g>
  
  <path d="M4.29297 25.1699L20.877 25.1699C23.748 25.1699 25.1699 23.7617 25.1699 20.9453L25.1699 4.23828C25.1699 1.42188 23.748 0 20.877 0L4.29297 0C1.43555 0 0 1.42188 0 4.23828L0 20.9453C0 23.7617 1.43555 25.1699 4.29297 25.1699ZM4.32031 22.9688C2.95312 22.9688 2.20117 22.2441 2.20117 20.8223L2.20117 4.36133C2.20117 2.93945 2.95312 2.20117 4.32031 2.20117L20.8496 2.20117C22.2031 2.20117 22.9688 2.93945 22.9688 4.36133L22.9688 20.8223C22.9688 22.2441 22.2031 22.9688 20.8496 22.9688Z" style="fill:var(--color-0,hsl(0 0 0/0.85))"></path>
  <path d="M9.48828 18.2793C9.99414 18.2793 10.418 17.9648 10.418 17.3086L10.418 15.9414L10.9102 15.9414C11.4297 15.9414 11.6758 15.5996 11.6758 15.1348C11.6758 14.6973 11.457 14.3555 10.9102 14.3555L10.418 14.3555L10.418 8.35352C10.418 7.41016 9.80273 6.87695 8.90039 6.87695C7.94336 6.87695 7.49219 7.36914 7.10938 8.2168L4.66211 13.5215C4.44336 14.0547 4.36133 14.4102 4.36133 14.834C4.36133 15.4902 4.8125 15.9414 5.48242 15.9414L8.54492 15.9414L8.54492 17.3086C8.54492 18.0332 9.05078 18.2793 9.48828 18.2793ZM8.58594 14.3965L6.04297 14.3965L6.04297 14.3008L8.53125 8.59961L8.58594 8.59961ZM16.5977 18.3477C18.7578 18.3477 20.1523 16.9941 20.1523 15.1211C20.1523 13.6309 19.1953 12.5508 18.1016 12.3047L18.1016 12.2637C19.0176 11.9766 19.8379 11.0879 19.8379 9.78906C19.8379 8.02539 18.5254 6.82227 16.5977 6.82227C14.9023 6.82227 13.3711 7.86133 13.3711 9.77539C13.3711 11.1699 14.2461 11.9902 15.1211 12.2637L15.1211 12.3047C13.959 12.5645 13.0566 13.6445 13.0566 15.1211C13.0566 17.1445 14.5879 18.3477 16.5977 18.3477ZM16.5977 11.6348C15.7227 11.6348 15.2852 10.7871 15.2852 9.98047C15.2852 9.10547 15.75 8.28516 16.5977 8.28516C17.4863 8.28516 17.9102 9.10547 17.9102 9.98047C17.9102 10.8828 17.459 11.6348 16.5977 11.6348ZM16.5977 16.8711C15.5996 16.8711 15.1074 15.9824 15.1074 14.9707C15.1074 13.9863 15.6133 13.1113 16.5977 13.1113C17.5684 13.1113 18.1016 13.9316 18.1016 14.9707C18.1016 15.9824 17.6094 16.8711 16.5977 16.8711Z" style="fill:var(--color-1,hsl(0 0 0/0.85))"></path>
 </g>
</svg>