<svg version="1.1" xmlns="http://www.w3.org/2000/svg" xmlns:xlink="http://www.w3.org/1999/xlink" viewBox="0 0 25.5254 25.1699">
 <g>
  
  <path d="M4.29297 25.1699L20.877 25.1699C23.748 25.1699 25.1699 23.7617 25.1699 20.9453L25.1699 4.23828C25.1699 1.42188 23.748 0 20.877 0L4.29297 0C1.43555 0 0 1.42188 0 4.23828L0 20.9453C0 23.7617 1.43555 25.1699 4.29297 25.1699Z" style="fill:var(--color-0,hsl(0 0 0/0.85))"></path>
  <path d="M9.39258 18.457C8.94141 18.457 8.42188 18.1973 8.42188 17.4453L8.42188 16.0508L5.26367 16.0508C4.58008 16.0508 4.10156 15.5859 4.10156 14.9023C4.10156 14.4648 4.19727 14.0957 4.41602 13.5488L6.93164 8.08008C7.32812 7.20508 7.79297 6.69922 8.79102 6.69922C9.7207 6.69922 10.3633 7.24609 10.3633 8.23047L10.3633 14.4102L10.8691 14.4102C11.4297 14.4102 11.6621 14.7656 11.6621 15.2168C11.6621 15.6953 11.4023 16.0508 10.8691 16.0508L10.3633 16.0508L10.3633 17.4453C10.3633 18.1289 9.92578 18.457 9.39258 18.457ZM8.46289 14.4512L8.46289 8.47656L8.4082 8.47656L5.85156 14.3555L5.85156 14.4512ZM16.7344 18.5254C14.6699 18.5254 13.084 17.2949 13.084 15.2031C13.084 13.6719 14.0137 12.5645 15.2168 12.291L15.2168 12.25C14.3145 11.9766 13.3984 11.1289 13.3984 9.69336C13.3984 7.71094 14.9844 6.64453 16.7344 6.64453C18.7305 6.64453 20.084 7.875 20.084 9.70703C20.084 11.0469 19.2363 11.9629 18.293 12.25L18.293 12.291C19.4141 12.5508 20.3984 13.6582 20.3984 15.2031C20.3984 17.1309 18.9629 18.5254 16.7344 18.5254ZM16.7344 11.6074C17.623 11.6074 18.0879 10.8281 18.0879 9.89844C18.0879 8.99609 17.6504 8.16211 16.7344 8.16211C15.8594 8.16211 15.3945 8.99609 15.3945 9.89844C15.3945 10.7324 15.832 11.6074 16.7344 11.6074ZM16.7344 16.9941C17.7734 16.9941 18.2793 16.0781 18.2793 15.0391C18.2793 13.9727 17.7324 13.125 16.7344 13.125C15.7227 13.125 15.2031 14.0273 15.2031 15.0391C15.2031 16.0781 15.709 16.9941 16.7344 16.9941Z" style="fill:var(--color-1,white)"></path>
 </g>
</svg>