<svg version="1.1" xmlns="http://www.w3.org/2000/svg" xmlns:xlink="http://www.w3.org/1999/xlink" viewBox="0 0 25.5254 25.1699">
 <g>
  
  <path d="M4.29297 25.1699L20.877 25.1699C23.748 25.1699 25.1699 23.7617 25.1699 20.9453L25.1699 4.23828C25.1699 1.42188 23.748 0 20.877 0L4.29297 0C1.43555 0 0 1.42188 0 4.23828L0 20.9453C0 23.7617 1.43555 25.1699 4.29297 25.1699Z" style="fill:var(--color-0,hsl(0 0 0/0.85))"></path>
  <path d="M9.625 18.457C9.17383 18.457 8.62695 18.1973 8.62695 17.4453L8.62695 16.0508L5.48242 16.0508C4.79883 16.0508 4.32031 15.5859 4.32031 14.9023C4.32031 14.4648 4.40234 14.0957 4.63477 13.5488L7.15039 8.08008C7.54688 7.20508 8.02539 6.69922 9.00977 6.69922C9.93945 6.69922 10.582 7.24609 10.582 8.23047L10.582 14.4102L11.0742 14.4102C11.6348 14.4102 11.8809 14.7656 11.8809 15.2168C11.8809 15.6953 11.6211 16.0508 11.0742 16.0508L10.582 16.0508L10.582 17.4453C10.582 18.1289 10.1445 18.457 9.625 18.457ZM8.66797 14.4512L8.66797 8.47656L8.61328 8.47656L6.05664 14.3555L6.05664 14.4512ZM16.0645 14.3418C14.1914 14.3418 13.2754 12.5371 13.2754 10.6367C13.2754 8.42188 14.5195 6.61719 16.666 6.61719C19.5234 6.61719 20.3711 9.80273 20.3711 12.4688C20.3711 15.3535 19.5371 18.5527 16.6523 18.5527C15.2305 18.5527 14.0137 17.8145 13.6992 16.584C13.6582 16.4199 13.6172 16.2422 13.6172 16.0781C13.6172 15.6133 13.877 15.2168 14.4648 15.2168C14.8887 15.2168 15.1758 15.3945 15.3672 15.8594C15.627 16.4609 16.0508 16.8984 16.6797 16.8984C18.252 16.8984 18.4434 14.082 18.4434 12.5234C18.4434 12.4824 18.4434 12.4277 18.4434 12.373L18.3887 12.373C18.0742 13.5762 17.2129 14.3418 16.0645 14.3418ZM16.6934 12.7832C17.7051 12.7832 18.1836 11.6348 18.1836 10.541C18.1836 9.48828 17.7461 8.27148 16.6934 8.27148C15.709 8.27148 15.2305 9.48828 15.2305 10.541C15.2305 11.5801 15.6543 12.7832 16.6934 12.7832Z" style="fill:var(--color-1,white)"></path>
 </g>
</svg>