<svg version="1.1" xmlns="http://www.w3.org/2000/svg" xmlns:xlink="http://www.w3.org/1999/xlink" viewBox="0 0 28.2461 27.9043">
 <g>
  
  <path d="M13.9453 27.8906C21.6426 27.8906 27.8906 21.6426 27.8906 13.9453C27.8906 6.24805 21.6426 0 13.9453 0C6.24805 0 0 6.24805 0 13.9453C0 21.6426 6.24805 27.8906 13.9453 27.8906ZM13.9453 25.5664C7.51953 25.5664 2.32422 20.3711 2.32422 13.9453C2.32422 7.51953 7.51953 2.32422 13.9453 2.32422C20.3711 2.32422 25.5664 7.51953 25.5664 13.9453C25.5664 20.3711 20.3711 25.5664 13.9453 25.5664Z" style="fill:var(--color-0,hsl(0 0 0/0.85))"></path>
  <path d="M10.4316 19.6465C10.9512 19.6465 11.375 19.332 11.375 18.6758L11.375 17.3086L11.8535 17.3086C12.3867 17.3086 12.6328 16.9668 12.6328 16.502C12.6328 16.0645 12.4004 15.7227 11.8535 15.7227L11.375 15.7227L11.375 9.7207C11.375 8.77734 10.7461 8.24414 9.85742 8.24414C8.90039 8.24414 8.44922 8.73633 8.05273 9.58398L5.61914 14.8887C5.38672 15.4219 5.30469 15.7773 5.30469 16.2012C5.30469 16.8574 5.76953 17.3086 6.42578 17.3086L9.48828 17.3086L9.48828 18.6758C9.48828 19.4004 10.0078 19.6465 10.4316 19.6465ZM9.5293 15.7637L6.98633 15.7637L6.98633 15.668L9.47461 9.9668L9.5293 9.9668ZM14.8066 19.6602C15.3262 19.6602 15.6816 19.4004 15.791 18.7578L16.2285 16.8848L19.3047 16.8848L19.7559 18.7715C19.8926 19.4688 20.3027 19.6602 20.7812 19.6602C21.3145 19.6602 21.6973 19.25 21.6973 18.7168C21.6973 18.4707 21.6562 18.3066 21.6016 18.0879L19.3047 9.48828C19.0859 8.62695 18.5391 8.25781 17.7598 8.25781C16.9531 8.25781 16.4609 8.68164 16.2559 9.48828L13.959 18.1016C13.918 18.2656 13.8633 18.5527 13.8633 18.7168C13.8633 19.2773 14.2324 19.6602 14.8066 19.6602ZM16.584 15.3809L17.6914 10.5273L17.8008 10.5273L18.9492 15.3809Z" style="fill:var(--color-1,hsl(0 0 0/0.85))"></path>
 </g>
</svg>