<svg version="1.1" xmlns="http://www.w3.org/2000/svg" xmlns:xlink="http://www.w3.org/1999/xlink" viewBox="0 0 28.2461 27.9043">
 <g>
  
  <path d="M13.9453 27.8906C21.6426 27.8906 27.8906 21.6426 27.8906 13.9453C27.8906 6.24805 21.6426 0 13.9453 0C6.24805 0 0 6.24805 0 13.9453C0 21.6426 6.24805 27.8906 13.9453 27.8906ZM13.9453 25.5664C7.51953 25.5664 2.32422 20.3711 2.32422 13.9453C2.32422 7.51953 7.51953 2.32422 13.9453 2.32422C20.3711 2.32422 25.5664 7.51953 25.5664 13.9453C25.5664 20.3711 20.3711 25.5664 13.9453 25.5664Z" style="fill:var(--color-0,hsl(0 0 0/0.85))"></path>
  <path d="M10.2539 19.6465C10.7734 19.6465 11.1836 19.332 11.1836 18.6758L11.1836 17.3086L11.6758 17.3086C12.209 17.3086 12.4551 16.9668 12.4551 16.502C12.4551 16.0645 12.2227 15.7227 11.6758 15.7227L11.1836 15.7227L11.1836 9.7207C11.1836 8.77734 10.5684 8.24414 9.67969 8.24414C8.70898 8.24414 8.25781 8.73633 7.875 9.58398L5.44141 14.8887C5.20898 15.4219 5.12695 15.7773 5.12695 16.2012C5.12695 16.8574 5.57812 17.3086 6.24805 17.3086L9.31055 17.3086L9.31055 18.6758C9.31055 19.4004 9.81641 19.6465 10.2539 19.6465ZM9.35156 15.7637L6.80859 15.7637L6.80859 15.668L9.29688 9.9668L9.35156 9.9668ZM15.1348 19.6465C15.6816 19.6465 16.1328 19.1953 16.1328 18.6348L16.1328 14.6836L19.5098 14.6836L19.5098 18.6348C19.5098 19.1953 19.9609 19.6465 20.5078 19.6465C21.041 19.6465 21.5059 19.1953 21.5059 18.6348L21.5059 9.22852C21.5059 8.68164 21.041 8.23047 20.5078 8.23047C19.9609 8.23047 19.5098 8.68164 19.5098 9.22852L19.5098 13.0156L16.1328 13.0156L16.1328 9.22852C16.1328 8.68164 15.6816 8.23047 15.1348 8.23047C14.5879 8.23047 14.1367 8.68164 14.1367 9.22852L14.1367 18.6348C14.1367 19.1953 14.5879 19.6465 15.1348 19.6465Z" style="fill:var(--color-1,hsl(0 0 0/0.85))"></path>
 </g>
</svg>