<?xml version="1.0" encoding="UTF-8"?>
<!--Generator: Apple Native CoreSVG 326-->
<!DOCTYPE svg
PUBLIC "-//W3C//DTD SVG 1.1//EN"
       "http://www.w3.org/Graphics/SVG/1.1/DTD/svg11.dtd">
<svg version="1.1" xmlns="http://www.w3.org/2000/svg" xmlns:xlink="http://www.w3.org/1999/xlink" viewBox="0 0 34.5352 27.3574">
 <g>
  <rect height="27.3574" opacity="0" width="34.5352" x="0" y="0"/>
  <path d="M25.0742 26.2227C25.0742 26.8379 24.5684 27.3301 23.9668 27.3301L10.2129 27.3301C9.61133 27.3301 9.10547 26.8379 9.10547 26.2227C9.10547 25.6074 9.61133 25.1152 10.2129 25.1152L23.9668 25.1152C24.5684 25.1152 25.0742 25.6074 25.0742 26.2227ZM34.1797 3.51367L34.1797 19.1816C34.1797 21.5605 33.0039 22.6953 30.666 22.6953L3.51367 22.6953C1.18945 22.6953 0 21.5605 0 19.1816L0 3.51367C0 1.13477 1.18945 0 3.51367 0L30.666 0C33.0039 0 34.1797 1.13477 34.1797 3.51367ZM17.3086 6.57617L17.3086 16.1738C17.3086 16.8164 17.6914 17.2539 18.334 17.2539C19.0586 17.2539 19.3867 16.7617 19.3867 16.1738L19.3867 13.6582L20.3027 12.2363L22.791 16.4746C23.0781 16.9668 23.3379 17.2266 23.8984 17.2266C24.459 17.2266 24.8145 16.8164 24.8145 16.2695C24.8145 15.9551 24.7598 15.7637 24.582 15.4355L21.8203 10.8418L24.2402 7.23242C24.4043 7.01367 24.5137 6.79492 24.5137 6.45312C24.5137 5.98828 24.1719 5.52344 23.5703 5.52344C23.0371 5.52344 22.832 5.81055 22.6543 6.09766L19.4688 10.9922L19.373 10.9922L19.373 6.57617C19.373 5.96094 19.0176 5.49609 18.334 5.49609C17.6777 5.49609 17.3086 5.91992 17.3086 6.57617ZM10.8555 6.86328L8.33984 12.332C8.10742 12.8652 8.02539 13.2344 8.02539 13.6719C8.02539 14.3555 8.49023 14.8203 9.1875 14.8203L12.332 14.8203L12.332 16.2148C12.332 16.9668 12.8652 17.2402 13.3164 17.2402C13.8359 17.2402 14.2734 16.8984 14.2734 16.2148L14.2734 14.8203L14.7793 14.8203C15.3262 14.8203 15.5859 14.4648 15.5859 14C15.5859 13.5352 15.3535 13.1797 14.7793 13.1797L14.2734 13.1797L14.2734 7C14.2734 6.01562 13.6445 5.48242 12.7148 5.48242C11.7168 5.48242 11.252 5.98828 10.8555 6.86328ZM12.373 13.2207L9.76172 13.2207L9.76172 13.1387L12.3184 7.25977L12.373 7.25977Z" fill="white" fill-opacity="0.85"/>
 </g>
</svg>
