<?xml version="1.0" encoding="UTF-8"?>
<!--Generator: Apple Native CoreSVG 326-->
<!DOCTYPE svg
PUBLIC "-//W3C//DTD SVG 1.1//EN"
       "http://www.w3.org/Graphics/SVG/1.1/DTD/svg11.dtd">
<svg version="1.1" xmlns="http://www.w3.org/2000/svg" xmlns:xlink="http://www.w3.org/1999/xlink" viewBox="0 0 28.2461 27.9043">
 <g>
  <rect height="27.9043" opacity="0" width="28.2461" x="0" y="0"/>
  <path d="M13.9453 27.8906C21.6426 27.8906 27.8906 21.6426 27.8906 13.9453C27.8906 6.24805 21.6426 0 13.9453 0C6.24805 0 0 6.24805 0 13.9453C0 21.6426 6.24805 27.8906 13.9453 27.8906ZM13.9453 25.5664C7.51953 25.5664 2.32422 20.3711 2.32422 13.9453C2.32422 7.51953 7.51953 2.32422 13.9453 2.32422C20.3711 2.32422 25.5664 7.51953 25.5664 13.9453C25.5664 20.3711 20.3711 25.5664 13.9453 25.5664Z" fill="white" fill-opacity="0.85"/>
  <path d="M11.293 19.6465C11.7988 19.6465 12.2227 19.332 12.2227 18.6758L12.2227 17.3086L12.7148 17.3086C13.2344 17.3086 13.4941 16.9668 13.4941 16.502C13.4941 16.0645 13.2617 15.7227 12.7148 15.7227L12.2227 15.7227L12.2227 9.7207C12.2227 8.77734 11.6074 8.24414 10.7051 8.24414C9.74805 8.24414 9.29688 8.73633 8.91406 9.58398L6.4668 14.8887C6.24805 15.4219 6.16602 15.7773 6.16602 16.2012C6.16602 16.8574 6.61719 17.3086 7.28711 17.3086L10.3496 17.3086L10.3496 18.6758C10.3496 19.4004 10.8555 19.6465 11.293 19.6465ZM10.3906 15.7637L7.84766 15.7637L7.84766 15.668L10.3359 9.9668L10.3906 9.9668ZM16.1328 19.4688L20.0293 19.4688C20.5215 19.4688 20.8906 19.1816 20.8906 18.6348C20.8906 18.1016 20.5215 17.8145 20.0293 17.8145L17.1445 17.8145L17.1445 9.31055C17.1445 8.70898 16.8574 8.24414 16.1465 8.24414C15.5039 8.24414 15.1621 8.6543 15.1621 9.31055L15.1621 18.4434C15.1621 19.0859 15.5039 19.4688 16.1328 19.4688Z" fill="white" fill-opacity="0.85"/>
 </g>
</svg>
