<svg version="1.1" xmlns="http://www.w3.org/2000/svg" xmlns:xlink="http://www.w3.org/1999/xlink" viewBox="0 0 28.2461 27.9043">
 <g>
  
  <path d="M13.9453 27.8906C21.6426 27.8906 27.8906 21.6289 27.8906 13.9453C27.8906 6.24805 21.6426 0 13.9453 0C6.26172 0 0 6.24805 0 13.9453C0 21.6289 6.26172 27.8906 13.9453 27.8906Z" style="fill:var(--color-0,hsl(0 0 0/0.85))"></path>
  <path d="M11.2383 19.8242C10.7871 19.8242 10.2539 19.5645 10.2539 18.8125L10.2539 17.418L7.10938 17.418C6.41211 17.418 5.94727 16.9531 5.94727 16.2695C5.94727 15.832 6.0293 15.4629 6.24805 14.916L8.76367 9.44727C9.16016 8.57227 9.63867 8.06641 10.623 8.06641C11.5664 8.06641 12.1953 8.61328 12.1953 9.59766L12.1953 15.7773L12.7012 15.7773C13.2754 15.7773 13.5078 16.1328 13.5078 16.584C13.5078 17.0625 13.2344 17.418 12.7012 17.418L12.1953 17.418L12.1953 18.8125C12.1953 19.4961 11.7578 19.8242 11.2383 19.8242ZM10.2949 15.8184L10.2949 9.84375L10.2402 9.84375L7.68359 15.7227L7.68359 15.8184ZM16.2285 19.6465C15.5859 19.6465 15.2305 19.25 15.2305 18.5801L15.2305 9.17383C15.2305 8.49023 15.5859 8.06641 16.2422 8.06641C16.9805 8.06641 17.2812 8.54492 17.2812 9.17383L17.2812 17.9238L20.2344 17.9238C20.7539 17.9238 21.1367 18.2246 21.1367 18.7715C21.1367 19.3457 20.7539 19.6465 20.2344 19.6465Z" style="fill:var(--color-1,white)"></path>
 </g>
</svg>