<?xml version="1.0" encoding="UTF-8"?>
<!--Generator: Apple Native CoreSVG 326-->
<!DOCTYPE svg
PUBLIC "-//W3C//DTD SVG 1.1//EN"
       "http://www.w3.org/Graphics/SVG/1.1/DTD/svg11.dtd">
<svg version="1.1" xmlns="http://www.w3.org/2000/svg" xmlns:xlink="http://www.w3.org/1999/xlink" viewBox="0 0 25.5254 25.1699">
 <g>
  <rect height="25.1699" opacity="0" width="25.5254" x="0" y="0"/>
  <path d="M4.29297 25.1699L20.877 25.1699C23.748 25.1699 25.1699 23.7617 25.1699 20.9453L25.1699 4.23828C25.1699 1.42188 23.748 0 20.877 0L4.29297 0C1.43555 0 0 1.42188 0 4.23828L0 20.9453C0 23.7617 1.43555 25.1699 4.29297 25.1699Z" fill="white" fill-opacity="0.85"/>
  <path d="M12.5098 19.291C10.2539 19.291 8.61328 18.3887 8.06641 16.9531C7.95703 16.7344 7.90234 16.5156 7.90234 16.2695C7.90234 15.7227 8.28516 15.3262 8.85938 15.3262C9.26953 15.3262 9.61133 15.5586 9.85742 16.0098C10.3223 16.9395 11.3066 17.5137 12.4688 17.5137C14.0273 17.5137 15.1895 16.3652 15.1895 14.8203C15.1895 13.2617 14.1914 12.2227 12.7012 12.2227C11.9902 12.2227 11.457 12.4414 10.7871 13.0156C10.2266 13.4395 9.89844 13.5488 9.37891 13.5488C8.59961 13.5488 8.12109 13.0156 8.18945 12.1953L8.57227 7.51953C8.62695 6.69922 9.22852 6.17969 10.1582 6.17969L15.9961 6.17969C16.4883 6.17969 16.8301 6.53516 16.8301 7.05469C16.8301 7.56055 16.4746 7.92969 15.9961 7.92969L10.3633 7.92969L10.0352 11.7441L10.1309 11.7441C10.6367 11.0469 11.8125 10.541 12.9746 10.541C15.5449 10.541 17.3496 12.2773 17.3496 14.7656C17.3496 17.5 15.3672 19.291 12.5098 19.291Z" fill="white"/>
 </g>
</svg>
