<?xml version="1.0" encoding="UTF-8"?>
<!--Generator: Apple Native CoreSVG 326-->
<!DOCTYPE svg
PUBLIC "-//W3C//DTD SVG 1.1//EN"
       "http://www.w3.org/Graphics/SVG/1.1/DTD/svg11.dtd">
<svg version="1.1" xmlns="http://www.w3.org/2000/svg" xmlns:xlink="http://www.w3.org/1999/xlink" viewBox="0 0 25.5254 25.1699">
 <g>
  <rect height="25.1699" opacity="0" width="25.5254" x="0" y="0"/>
  <path d="M4.29297 25.1699L20.877 25.1699C23.748 25.1699 25.1699 23.7617 25.1699 20.9453L25.1699 4.23828C25.1699 1.42188 23.748 0 20.877 0L4.29297 0C1.43555 0 0 1.42188 0 4.23828L0 20.9453C0 23.7617 1.43555 25.1699 4.29297 25.1699Z" fill="white" fill-opacity="0.85"/>
  <path d="M8.32617 18.5801C7.05469 18.5801 5.79688 17.8418 5.30469 16.6934C5.18164 16.4199 5.09961 16.1055 5.09961 15.7773C5.09961 15.2578 5.42773 14.9297 5.94727 14.9297C6.33008 14.9297 6.64453 15.1484 6.82227 15.5996C7.06836 16.3652 7.51953 16.9258 8.29883 16.9258C9.35156 16.9258 9.74805 15.7363 9.74805 14.5605C9.74805 13.5215 9.36523 12.2773 8.32617 12.2773C7.75195 12.2773 7.41016 12.6055 7.08203 13.0703C6.78125 13.4668 6.5625 13.6035 6.17969 13.6035C5.52344 13.6035 5.26367 13.1387 5.26367 12.5918C5.26367 12.4004 5.26367 12.1816 5.27734 11.9629L5.49609 8.10742C5.55078 7.39648 5.87891 6.9043 6.63086 6.9043L10.5137 6.9043C10.9785 6.9043 11.293 7.25977 11.293 7.72461C11.293 8.23047 10.9922 8.57227 10.5137 8.57227L7.19141 8.57227L6.95898 12.0039L7.02734 12.0039C7.39648 11.1699 8.14844 10.7871 8.98242 10.7871C10.8008 10.7871 11.7305 12.5781 11.7305 14.5195C11.7305 16.748 10.5273 18.5801 8.32617 18.5801ZM16.9668 18.5801C14.1504 18.5801 13.3164 15.4355 13.3164 12.5918C13.3164 9.74805 14.1504 6.60352 16.9668 6.60352C19.7832 6.60352 20.6172 9.74805 20.6172 12.5918C20.6172 15.4355 19.7832 18.5801 16.9668 18.5801ZM16.9668 16.8984C18.1016 16.8984 18.5391 15.0527 18.5391 12.5918C18.5391 10.1445 18.1016 8.28516 16.9668 8.28516C15.8184 8.28516 15.3809 10.1445 15.3809 12.5918C15.3809 15.0527 15.8184 16.8984 16.9668 16.8984Z" fill="white"/>
 </g>
</svg>
