<svg version="1.1" xmlns="http://www.w3.org/2000/svg" xmlns:xlink="http://www.w3.org/1999/xlink" viewBox="0 0 28.2461 33.2127">
 <g>
  
  <path d="M13.9453 30.5448C21.6426 30.5448 27.8906 24.2968 27.8906 16.5995C27.8906 9.77724 22.9824 4.11708 16.584 2.91395L16.584 0.972548C16.584-0.0118272 15.9141-0.257921 15.1484 0.275282L10.8008 3.33778C10.1719 3.78895 10.1855 4.4452 10.8008 4.8827L15.1621 7.9452C15.9141 8.46474 16.584 8.21864 16.584 7.24794L16.584 5.27919C21.7246 6.46864 25.5664 11.0487 25.5664 16.5995C25.5664 23.0253 20.3711 28.2206 13.9453 28.2206C7.51953 28.2206 2.32422 23.0253 2.32422 16.5995C2.32422 12.703 4.23828 9.27138 7.13672 7.19325C7.69727 6.76942 7.875 6.12684 7.5332 5.55263C7.19141 5.00575 6.41211 4.84169 5.81055 5.30653C2.2832 7.8495 0 11.91 0 16.5995C0 24.2968 6.24805 30.5448 13.9453 30.5448Z" style="fill:var(--color-0,hsl(0 0 0/0.85))"></path>
  <path d="M13.9863 22.328C16.1191 22.328 17.4453 20.7421 17.4453 18.6093C17.4453 16.7772 16.4062 15.205 14.6016 15.205C13.6992 15.205 12.9336 15.6288 12.5645 16.3261L12.5098 16.3261L12.7422 13.2089L16.2285 13.2089C16.6797 13.2089 16.9805 12.9081 16.9805 12.4433C16.9805 11.9784 16.6934 11.6776 16.2285 11.6776L12.2637 11.6776C11.5527 11.6776 11.2246 12.0604 11.1699 12.7714L10.8828 16.7636C10.8418 17.3651 11.1562 17.8163 11.7578 17.8163C12.1953 17.8163 12.3867 17.6386 12.6602 17.3241C12.9883 16.8729 13.4531 16.5995 14 16.5995C15.0801 16.5995 15.6133 17.5702 15.6133 18.664C15.6133 19.8261 15.0254 20.7968 13.9727 20.7968C13.166 20.7968 12.6055 20.2636 12.3457 19.5526C12.168 19.1698 11.8945 18.9784 11.5254 18.9784C11.0469 18.9784 10.7461 19.2792 10.7461 19.7577C10.7461 19.9218 10.7734 20.0858 10.8145 20.2362C11.1562 21.5487 12.6602 22.328 13.9863 22.328Z" style="fill:var(--color-1,hsl(0 0 0/0.85))"></path>
 </g>
</svg>