<svg version="1.1" xmlns="http://www.w3.org/2000/svg" xmlns:xlink="http://www.w3.org/1999/xlink" viewBox="0 0 28.2461 27.9043">
 <g>
  
  <path d="M13.9453 27.8906C21.6426 27.8906 27.8906 21.6289 27.8906 13.9453C27.8906 6.24805 21.6426 0 13.9453 0C6.26172 0 0 6.24805 0 13.9453C0 21.6289 6.26172 27.8906 13.9453 27.8906Z" style="fill:var(--color-0,hsl(0 0 0/0.85))"></path>
  <path d="M13.8633 20.6582C11.6074 20.6582 9.9668 19.7559 9.40625 18.3203C9.31055 18.1016 9.25586 17.8828 9.25586 17.6367C9.25586 17.0898 9.63867 16.6934 10.2129 16.6934C10.623 16.6934 10.9648 16.9258 11.2109 17.377C11.6758 18.3066 12.6602 18.8809 13.8223 18.8809C15.3809 18.8809 16.543 17.7324 16.543 16.1875C16.543 14.6289 15.5449 13.5898 14.0547 13.5898C13.3438 13.5898 12.8105 13.8086 12.1406 14.3828C11.5664 14.8066 11.252 14.916 10.7324 14.916C9.95312 14.916 9.47461 14.3828 9.5293 13.5625L9.92578 8.88672C9.98047 8.06641 10.582 7.54688 11.5117 7.54688L17.3496 7.54688C17.8418 7.54688 18.1836 7.90234 18.1836 8.42188C18.1836 8.92773 17.8281 9.29688 17.3496 9.29688L11.7168 9.29688L11.3887 13.1113L11.4844 13.1113C11.9902 12.4141 13.166 11.9082 14.3145 11.9082C16.8984 11.9082 18.6895 13.6445 18.6895 16.1328C18.6895 18.8672 16.7207 20.6582 13.8633 20.6582Z" style="fill:var(--color-1,white)"></path>
 </g>
</svg>