<svg version="1.1" xmlns="http://www.w3.org/2000/svg" xmlns:xlink="http://www.w3.org/1999/xlink" viewBox="0 0 25.5254 20.6309">
 <g>
  
  <path d="M0 19.5234C0 20.125 0.492188 20.6309 1.09375 20.6309C1.70898 20.6309 2.20117 20.125 2.20117 19.5234L2.20117 1.12109C2.20117 0.519531 1.70898 0.0273438 1.09375 0.0273438C0.492188 0.0273438 0 0.519531 0 1.12109ZM22.9688 19.5234C22.9688 20.125 23.4746 20.6309 24.0762 20.6309C24.6777 20.6309 25.1699 20.125 25.1699 19.5234L25.1699 1.12109C25.1699 0.519531 24.6777 0.0273438 24.0762 0.0273438C23.4746 0.0273438 22.9688 0.519531 22.9688 1.12109Z" style="fill:var(--color-0,hsl(0 0 0/0.85))"></path>
  <path d="M12.6465 16.8301C15.0664 16.8301 16.584 15.0254 16.584 12.6055C16.584 10.5137 15.3945 8.72266 13.3301 8.72266C12.3047 8.72266 11.4434 9.20117 11.0059 9.99414L10.9512 9.99414L11.2246 6.43945L15.1895 6.43945C15.709 6.43945 16.0508 6.09766 16.0508 5.57812C16.0508 5.04492 15.7227 4.68945 15.1895 4.68945L10.6777 4.68945C9.85742 4.68945 9.48828 5.12695 9.43359 5.94727L9.10547 10.4863C9.05078 11.1699 9.41992 11.6895 10.0898 11.6895C10.5957 11.6895 10.8145 11.498 11.1289 11.1289C11.498 10.623 12.0312 10.3086 12.6602 10.3086C13.877 10.3086 14.4922 11.416 14.4922 12.6602C14.4922 13.9727 13.8223 15.0801 12.6191 15.0801C11.7031 15.0801 11.0742 14.4785 10.7734 13.6719C10.5547 13.2344 10.2402 13.0156 9.83008 13.0156C9.2832 13.0156 8.94141 13.3574 8.94141 13.9043C8.94141 14.082 8.96875 14.2734 9.02344 14.4512C9.40625 15.9414 11.1289 16.8301 12.6465 16.8301Z" style="fill:var(--color-1,hsl(0 0 0/0.85))"></path>
 </g>
</svg>