<?xml version="1.0" encoding="UTF-8"?>
<!--Generator: Apple Native CoreSVG 326-->
<!DOCTYPE svg
PUBLIC "-//W3C//DTD SVG 1.1//EN"
       "http://www.w3.org/Graphics/SVG/1.1/DTD/svg11.dtd">
<svg version="1.1" xmlns="http://www.w3.org/2000/svg" xmlns:xlink="http://www.w3.org/1999/xlink" viewBox="0 0 28.2461 27.9043">
 <g>
  <rect height="27.9043" opacity="0" width="28.2461" x="0" y="0"/>
  <path d="M13.9453 27.8906C21.6426 27.8906 27.8906 21.6426 27.8906 13.9453C27.8906 6.24805 21.6426 0 13.9453 0C6.24805 0 0 6.24805 0 13.9453C0 21.6426 6.24805 27.8906 13.9453 27.8906ZM13.9453 25.5664C7.51953 25.5664 2.32422 20.3711 2.32422 13.9453C2.32422 7.51953 7.51953 2.32422 13.9453 2.32422C20.3711 2.32422 25.5664 7.51953 25.5664 13.9453C25.5664 20.3711 20.3711 25.5664 13.9453 25.5664Z" fill="white" fill-opacity="0.85"/>
  <path d="M13.9727 20.4531C16.7754 20.4531 18.7168 18.6484 18.7168 16.1055C18.7168 13.8496 17.0215 12.168 14.6289 12.168C13.6992 12.168 12.7422 12.5234 12.291 12.9883L12.168 12.9473C12.291 12.7148 12.4824 12.4688 12.9062 11.9219C13.5898 11.0195 14.5059 9.89844 15.1621 9.03711C15.3809 8.76367 15.4902 8.54492 15.4902 8.28516C15.4902 7.875 15.2168 7.45117 14.5605 7.45117C14.123 7.45117 13.8633 7.73828 13.6445 8.01172C12.7422 9.1875 11.9219 10.2402 11.2109 11.1836C9.80273 13.043 9.20117 14.5469 9.20117 16.0234C9.20117 18.6484 11.1289 20.4531 13.9727 20.4531ZM13.9727 18.7305C12.3457 18.7305 11.1289 17.6367 11.1289 16.1875C11.1289 14.7656 12.332 13.7129 13.959 13.7129C15.5996 13.7129 16.8027 14.7656 16.8027 16.2148C16.8027 17.6367 15.5996 18.7305 13.9727 18.7305Z" fill="white" fill-opacity="0.85"/>
 </g>
</svg>
