<svg version="1.1" xmlns="http://www.w3.org/2000/svg" xmlns:xlink="http://www.w3.org/1999/xlink" viewBox="0 0 28.2461 33.2127">
 <g>
  
  <path d="M13.9453 30.5448C21.6426 30.5448 27.8906 24.2968 27.8906 16.5995C27.8906 9.77724 22.9824 4.11708 16.584 2.91395L16.584 0.972548C16.584-0.0118272 15.9141-0.257921 15.1484 0.275282L10.8008 3.33778C10.1719 3.78895 10.1855 4.4452 10.8008 4.8827L15.1621 7.9452C15.9141 8.46474 16.584 8.21864 16.584 7.24794L16.584 5.27919C21.7246 6.46864 25.5664 11.0487 25.5664 16.5995C25.5664 23.0253 20.3711 28.2206 13.9453 28.2206C7.51953 28.2206 2.32422 23.0253 2.32422 16.5995C2.32422 12.703 4.23828 9.27138 7.13672 7.19325C7.69727 6.76942 7.875 6.12684 7.5332 5.55263C7.19141 5.00575 6.41211 4.84169 5.81055 5.30653C2.2832 7.8495 0 11.91 0 16.5995C0 24.2968 6.24805 30.5448 13.9453 30.5448Z" style="fill:var(--color-0,hsl(0 0 0/0.85))"></path>
  <path d="M9.80273 22.3143C11.8262 22.3143 13.2344 20.7968 13.2344 18.6366C13.2344 16.7362 12.1406 15.2597 10.3633 15.2597C9.13281 15.2597 8.27148 15.9843 7.92969 17.0507L7.875 17.0507C7.875 16.1073 7.94336 15.3964 8.09375 14.8085C8.32617 13.8515 8.81836 12.9491 9.80273 12.9491C10.4863 12.9491 10.9375 13.3046 11.2383 13.9061C11.4434 14.2479 11.6895 14.4804 12.0996 14.4804C12.6738 14.4804 12.8926 14.0839 12.8926 13.7011C12.8926 13.4413 12.8379 13.2089 12.7285 12.9901C12.291 12.0468 11.1562 11.4179 9.83008 11.4179C7.23242 11.4179 6.27539 13.8515 6.16602 16.3261C6.05664 17.4608 6.16602 18.6913 6.48047 19.6347C7 21.1933 8.10742 22.3143 9.80273 22.3143ZM9.77539 20.7831C8.73633 20.7831 8.14844 19.7167 8.14844 18.664C8.14844 17.5839 8.77734 16.6815 9.78906 16.6815C10.8418 16.6815 11.4023 17.6386 11.4023 18.7186C11.4023 19.785 10.8145 20.7831 9.77539 20.7831ZM18.4434 22.3007C21.1504 22.3007 22.0801 19.539 22.0801 16.8456C22.0801 14.1522 21.1367 11.4042 18.4434 11.4042C15.75 11.4042 14.8066 14.1659 14.8066 16.8456C14.8066 19.5663 15.7637 22.3007 18.4434 22.3007ZM18.4434 20.7558C17.3086 20.7558 16.7344 19.0741 16.7344 16.8456C16.7344 14.6308 17.3086 12.9628 18.4434 12.9628C19.5918 12.9628 20.166 14.6308 20.166 16.8456C20.166 19.0741 19.5918 20.7558 18.4434 20.7558Z" style="fill:var(--color-1,hsl(0 0 0/0.85))"></path>
 </g>
</svg>