<svg version="1.1" xmlns="http://www.w3.org/2000/svg" xmlns:xlink="http://www.w3.org/1999/xlink" viewBox="0 0 25.5254 25.1699">
 <g>
  
  <path d="M4.29297 25.1699L20.877 25.1699C23.748 25.1699 25.1699 23.7617 25.1699 20.9453L25.1699 4.23828C25.1699 1.42188 23.748 0 20.877 0L4.29297 0C1.43555 0 0 1.42188 0 4.23828L0 20.9453C0 23.7617 1.43555 25.1699 4.29297 25.1699Z" style="fill:var(--color-0,hsl(0 0 0/0.85))"></path>
  <path d="M12.6328 19.291C9.69336 19.291 7.71094 17.4316 7.71094 14.7246C7.71094 13.1934 8.32617 11.6484 9.77539 9.7207C10.5137 8.75 11.3613 7.66992 12.291 6.45312C12.5098 6.17969 12.7832 5.87891 13.2344 5.87891C13.918 5.87891 14.2051 6.31641 14.2051 6.74023C14.2051 7.01367 14.082 7.23242 13.877 7.51953C13.1797 8.4082 12.25 9.55664 11.5391 10.4863C11.1016 11.0605 10.9102 11.3066 10.7734 11.5527L10.9102 11.5938C11.3887 11.1152 12.3594 10.7461 13.3164 10.7461C15.7773 10.7461 17.5273 12.4824 17.5273 14.8066C17.5273 17.4316 15.5312 19.291 12.6328 19.291ZM12.6328 17.5137C14.3008 17.5137 15.5449 16.3789 15.5449 14.916C15.5449 13.4258 14.3008 12.3457 12.6191 12.3457C10.9512 12.3457 9.70703 13.4258 9.70703 14.8887C9.70703 16.3789 10.9648 17.5137 12.6328 17.5137Z" style="fill:var(--color-1,white)"></path>
 </g>
</svg>