<svg version="1.1" xmlns="http://www.w3.org/2000/svg" xmlns:xlink="http://www.w3.org/1999/xlink" viewBox="0 0 28.2461 27.9043">
 <g>
  
  <path d="M13.9453 27.8906C21.6426 27.8906 27.8906 21.6426 27.8906 13.9453C27.8906 6.24805 21.6426 0 13.9453 0C6.24805 0 0 6.24805 0 13.9453C0 21.6426 6.24805 27.8906 13.9453 27.8906ZM13.9453 25.5664C7.51953 25.5664 2.32422 20.3711 2.32422 13.9453C2.32422 7.51953 7.51953 2.32422 13.9453 2.32422C20.3711 2.32422 25.5664 7.51953 25.5664 13.9453C25.5664 20.3711 20.3711 25.5664 13.9453 25.5664Z" style="fill:var(--color-0,hsl(0 0 0/0.85))"></path>
  <path d="M14.041 20.4531C16.7891 20.4531 18.7305 18.8535 18.7305 16.0508C18.7305 13.4531 16.7617 12.0039 14.6016 12.0039C12.7695 12.0039 11.7031 12.9336 11.2656 13.918C11.2383 13.918 11.1836 13.918 11.1562 13.918C11.1562 13.8633 11.1562 13.8223 11.1562 13.7812C11.1562 10.9785 12.4277 9.17383 14.3145 9.17383C15.2578 9.17383 15.8047 9.59766 16.1875 10.0762C16.625 10.5137 16.8984 10.7461 17.3633 10.7461C17.8281 10.7461 18.1836 10.418 18.1836 9.93945C18.1836 9.7207 18.1426 9.5293 18.0605 9.33789C17.6367 8.32617 16.1465 7.4375 14.3828 7.4375C11.1562 7.4375 9.14648 9.69336 9.14648 14.2461C9.14648 16.1328 9.48828 17.5 10.0625 18.416C10.9375 19.8652 12.4277 20.4531 14.041 20.4531ZM13.9453 18.8125C12.4277 18.8125 11.334 17.6914 11.334 16.1328C11.334 14.6289 12.4141 13.5625 13.959 13.5625C15.5176 13.5625 16.584 14.6152 16.584 16.1465C16.584 17.7598 15.5586 18.8125 13.9453 18.8125Z" style="fill:var(--color-1,hsl(0 0 0/0.85))"></path>
 </g>
</svg>