<svg version="1.1" xmlns="http://www.w3.org/2000/svg" xmlns:xlink="http://www.w3.org/1999/xlink" viewBox="0 0 25.5254 20.6309">
 <g>
  
  <path d="M0 19.5234C0 20.125 0.492188 20.6309 1.09375 20.6309C1.70898 20.6309 2.20117 20.125 2.20117 19.5234L2.20117 1.12109C2.20117 0.519531 1.70898 0.0273438 1.09375 0.0273438C0.492188 0.0273438 0 0.519531 0 1.12109ZM22.9688 19.5234C22.9688 20.125 23.4746 20.6309 24.0762 20.6309C24.6777 20.6309 25.1699 20.125 25.1699 19.5234L25.1699 1.12109C25.1699 0.519531 24.6777 0.0273438 24.0762 0.0273438C23.4746 0.0273438 22.9688 0.519531 22.9688 1.12109Z" style="fill:var(--color-0,hsl(0 0 0/0.85))"></path>
  <path d="M12.7832 16.8164C15.0938 16.8164 16.6934 15.0938 16.6934 12.6328C16.6934 10.4453 15.4355 8.77734 13.4121 8.77734C12.0176 8.77734 11.0332 9.61133 10.6504 10.8145L10.5957 10.8145C10.5957 9.73438 10.6641 8.94141 10.8281 8.27148C11.1016 7.17773 11.6621 6.15234 12.7832 6.15234C13.5488 6.15234 14.0684 6.54883 14.4102 7.23242C14.6426 7.62891 14.9434 7.88867 15.4082 7.88867C16.0508 7.88867 16.2969 7.4375 16.2969 7C16.2969 6.71289 16.2285 6.43945 16.1055 6.19336C15.6133 5.11328 14.3145 4.40234 12.8105 4.40234C9.85742 4.40234 8.76367 7.17773 8.64062 10.0078C8.51758 11.2793 8.64062 12.6738 8.98242 13.7539C9.58398 15.5312 10.8418 16.8164 12.7832 16.8164ZM12.7559 15.0664C11.5664 15.0664 10.8965 13.8496 10.8965 12.6602C10.8965 11.4297 11.6211 10.4043 12.7695 10.4043C13.959 10.4043 14.6016 11.498 14.6016 12.7148C14.6016 13.918 13.918 15.0664 12.7559 15.0664Z" style="fill:var(--color-1,hsl(0 0 0/0.85))"></path>
 </g>
</svg>