<?xml version="1.0" encoding="UTF-8"?>
<!--Generator: Apple Native CoreSVG 326-->
<!DOCTYPE svg
PUBLIC "-//W3C//DTD SVG 1.1//EN"
       "http://www.w3.org/Graphics/SVG/1.1/DTD/svg11.dtd">
<svg version="1.1" xmlns="http://www.w3.org/2000/svg" xmlns:xlink="http://www.w3.org/1999/xlink" viewBox="0 0 28.2461 27.9043">
 <g>
  <rect height="27.9043" opacity="0" width="28.2461" x="0" y="0"/>
  <path d="M13.9453 27.8906C21.6426 27.8906 27.8906 21.6289 27.8906 13.9453C27.8906 6.24805 21.6426 0 13.9453 0C6.26172 0 0 6.24805 0 13.9453C0 21.6289 6.26172 27.8906 13.9453 27.8906Z" fill="white" fill-opacity="0.85"/>
  <path d="M12.0449 20.6445C11.4297 20.6445 10.9238 20.2207 10.9238 19.6191C10.9238 19.332 10.9922 19.1406 11.1152 18.8945L16.2969 9.40625L16.2969 9.29688L10.3086 9.29688C9.83008 9.29688 9.47461 8.92773 9.47461 8.42188C9.47461 7.90234 9.81641 7.54688 10.3086 7.54688L17.2129 7.54688C18.1289 7.54688 18.7578 8.13477 18.7578 8.91406C18.7578 9.21484 18.6895 9.50195 18.416 10.0215L13.1523 19.8652C12.8789 20.4121 12.5371 20.6445 12.0449 20.6445Z" fill="white"/>
 </g>
</svg>
