<svg version="1.1" xmlns="http://www.w3.org/2000/svg" xmlns:xlink="http://www.w3.org/1999/xlink" viewBox="0 0 25.5254 25.1699">
 <g>
  
  <path d="M4.29297 25.1699L20.877 25.1699C23.748 25.1699 25.1699 23.7617 25.1699 20.9453L25.1699 4.23828C25.1699 1.42188 23.748 0 20.877 0L4.29297 0C1.43555 0 0 1.42188 0 4.23828L0 20.9453C0 23.7617 1.43555 25.1699 4.29297 25.1699ZM4.32031 22.9688C2.95312 22.9688 2.20117 22.2441 2.20117 20.8223L2.20117 4.36133C2.20117 2.93945 2.95312 2.20117 4.32031 2.20117L20.8496 2.20117C22.2031 2.20117 22.9688 2.93945 22.9688 4.36133L22.9688 20.8223C22.9688 22.2441 22.2031 22.9688 20.8496 22.9688Z" style="fill:var(--color-0,hsl(0 0 0/0.85))"></path>
  <path d="M10.7598 19.0723C11.2246 19.0723 11.5527 18.8535 11.8262 18.3203L16.9258 8.76367C17.1855 8.27148 17.2539 7.98438 17.2539 7.69727C17.2539 6.94531 16.666 6.38477 15.7637 6.38477L9.0918 6.38477C8.59961 6.38477 8.27148 6.72656 8.27148 7.21875C8.27148 7.71094 8.61328 8.06641 9.0918 8.06641L14.8887 8.06641L14.8887 8.17578L9.85742 17.3906C9.7207 17.623 9.66602 17.8145 9.66602 18.0879C9.66602 18.6621 10.1582 19.0723 10.7598 19.0723Z" style="fill:var(--color-1,hsl(0 0 0/0.85))"></path>
 </g>
</svg>