<?xml version="1.0" encoding="UTF-8"?>
<!--Generator: Apple Native CoreSVG 326-->
<!DOCTYPE svg
PUBLIC "-//W3C//DTD SVG 1.1//EN"
       "http://www.w3.org/Graphics/SVG/1.1/DTD/svg11.dtd">
<svg version="1.1" xmlns="http://www.w3.org/2000/svg" xmlns:xlink="http://www.w3.org/1999/xlink" viewBox="0 0 28.2461 27.9043">
 <g>
  <rect height="27.9043" opacity="0" width="28.2461" x="0" y="0"/>
  <path d="M13.9453 27.8906C21.6426 27.8906 27.8906 21.6289 27.8906 13.9453C27.8906 6.24805 21.6426 0 13.9453 0C6.26172 0 0 6.24805 0 13.9453C0 21.6289 6.26172 27.8906 13.9453 27.8906Z" fill="white" fill-opacity="0.85"/>
  <path d="M13.918 20.6582C10.9238 20.6582 8.92773 19.1406 8.92773 16.8574C8.92773 15.2852 10.0625 13.9727 11.7578 13.6309L11.7578 13.5488C10.3359 13.1113 9.47461 12.0176 9.47461 10.6641C9.47461 8.62695 11.3203 7.23242 13.9453 7.23242C16.5703 7.23242 18.416 8.62695 18.416 10.6641C18.416 12.0176 17.5273 13.1387 16.1328 13.5488L16.1328 13.6309C17.8145 13.9727 18.9766 15.2715 18.9766 16.8438C18.9766 19.1133 16.9258 20.6582 13.918 20.6582ZM13.959 19.0996C15.5996 19.0996 16.8301 18.1152 16.8301 16.7344C16.8301 15.3809 15.6406 14.3965 13.959 14.3965C12.3184 14.3965 11.0879 15.3945 11.0879 16.7344C11.0879 18.1152 12.3047 19.0996 13.959 19.0996ZM13.9453 12.9062C15.3398 12.9062 16.3379 12.0449 16.3379 10.8281C16.3379 9.65234 15.3535 8.80469 13.9453 8.80469C12.5371 8.80469 11.5527 9.65234 11.5527 10.8281C11.5527 12.0449 12.5508 12.9062 13.9453 12.9062Z" fill="white"/>
 </g>
</svg>
