<?xml version="1.0" encoding="UTF-8"?>
<!--Generator: Apple Native CoreSVG 326-->
<!DOCTYPE svg
PUBLIC "-//W3C//DTD SVG 1.1//EN"
       "http://www.w3.org/Graphics/SVG/1.1/DTD/svg11.dtd">
<svg version="1.1" xmlns="http://www.w3.org/2000/svg" xmlns:xlink="http://www.w3.org/1999/xlink" viewBox="0 0 28.2461 27.9043">
 <g>
  <rect height="27.9043" opacity="0" width="28.2461" x="0" y="0"/>
  <path d="M13.9453 27.8906C21.6426 27.8906 27.8906 21.6426 27.8906 13.9453C27.8906 6.24805 21.6426 0 13.9453 0C6.24805 0 0 6.24805 0 13.9453C0 21.6426 6.24805 27.8906 13.9453 27.8906ZM13.9453 25.5664C7.51953 25.5664 2.32422 20.3711 2.32422 13.9453C2.32422 7.51953 7.51953 2.32422 13.9453 2.32422C20.3711 2.32422 25.5664 7.51953 25.5664 13.9453C25.5664 20.3711 20.3711 25.5664 13.9453 25.5664Z" fill="white" fill-opacity="0.85"/>
  <path d="M13.9043 20.4531C16.8164 20.4531 18.7988 18.9492 18.7988 16.748C18.7988 15.2305 17.6777 13.9727 16.0508 13.6445L16.0508 13.5625C17.4043 13.166 18.2656 12.0723 18.2656 10.7461C18.2656 8.79102 16.4746 7.4375 13.9316 7.4375C11.3887 7.4375 9.59766 8.79102 9.59766 10.7461C9.59766 12.0723 10.4316 13.1387 11.8125 13.5625L11.8125 13.6445C10.1719 13.9727 9.07812 15.2441 9.07812 16.7617C9.07812 18.9766 11.0059 20.4531 13.9043 20.4531ZM13.9453 18.9492C12.332 18.9492 11.1562 17.9922 11.1562 16.6523C11.1562 15.3535 12.3457 14.3828 13.9453 14.3828C15.5723 14.3828 16.7344 15.3398 16.7344 16.6523C16.7344 17.9922 15.5449 18.9492 13.9453 18.9492ZM13.9316 12.9473C12.5781 12.9473 11.6074 12.0996 11.6074 10.9238C11.6074 9.77539 12.5645 8.94141 13.9316 8.94141C15.2988 8.94141 16.2559 9.77539 16.2559 10.9238C16.2559 12.0996 15.2852 12.9473 13.9316 12.9473Z" fill="white" fill-opacity="0.85"/>
 </g>
</svg>
