<?xml version="1.0" encoding="UTF-8"?>
<!--Generator: Apple Native CoreSVG 326-->
<!DOCTYPE svg
PUBLIC "-//W3C//DTD SVG 1.1//EN"
       "http://www.w3.org/Graphics/SVG/1.1/DTD/svg11.dtd">
<svg version="1.1" xmlns="http://www.w3.org/2000/svg" xmlns:xlink="http://www.w3.org/1999/xlink" viewBox="0 0 25.5254 20.6309">
 <g>
  <rect height="20.6309" opacity="0" width="25.5254" x="0" y="0"/>
  <path d="M0 19.5234C0 20.125 0.492188 20.6309 1.09375 20.6309C1.70898 20.6309 2.20117 20.125 2.20117 19.5234L2.20117 1.12109C2.20117 0.519531 1.70898 0.0273438 1.09375 0.0273438C0.492188 0.0273438 0 0.519531 0 1.12109ZM22.9688 19.5234C22.9688 20.125 23.4746 20.6309 24.0762 20.6309C24.6777 20.6309 25.1699 20.125 25.1699 19.5234L25.1699 1.12109C25.1699 0.519531 24.6777 0.0273438 24.0762 0.0273438C23.4746 0.0273438 22.9688 0.519531 22.9688 1.12109Z" fill="white" fill-opacity="0.85"/>
  <path d="M12.5781 16.7891C14.793 16.7891 16.7617 15.5859 16.7617 13.3301C16.7617 11.7715 15.75 10.5957 14.3418 10.2949L14.3418 10.2676C15.5312 9.91211 16.3926 8.91406 16.3926 7.62891C16.3926 5.64648 14.7109 4.44336 12.5781 4.44336C10.5 4.44336 8.76367 5.64648 8.76367 7.61523C8.76367 8.91406 9.63867 9.91211 10.8555 10.2676L10.8555 10.2949C9.46094 10.582 8.4082 11.7715 8.4082 13.3164C8.4082 15.5312 10.3086 16.7891 12.5781 16.7891ZM12.5781 9.58398C11.5664 9.58398 10.9102 8.83203 10.9102 7.83398C10.9102 6.79492 11.5527 6.04297 12.5918 6.04297C13.6855 6.04297 14.2734 6.84961 14.2734 7.83398C14.2734 8.8457 13.6035 9.58398 12.5781 9.58398ZM12.5781 15.1758C11.416 15.1758 10.6641 14.3008 10.6641 13.166C10.6641 12.0449 11.416 11.1973 12.5781 11.1973C13.7676 11.1973 14.5059 12.0176 14.5059 13.166C14.5059 14.3281 13.7539 15.1758 12.5781 15.1758Z" fill="white" fill-opacity="0.85"/>
 </g>
</svg>
