<?xml version="1.0" encoding="UTF-8"?>
<!--Generator: Apple Native CoreSVG 326-->
<!DOCTYPE svg
PUBLIC "-//W3C//DTD SVG 1.1//EN"
       "http://www.w3.org/Graphics/SVG/1.1/DTD/svg11.dtd">
<svg version="1.1" xmlns="http://www.w3.org/2000/svg" xmlns:xlink="http://www.w3.org/1999/xlink" viewBox="0 0 25.5254 25.1699">
 <g>
  <rect height="25.1699" opacity="0" width="25.5254" x="0" y="0"/>
  <path d="M4.29297 25.1699L20.877 25.1699C23.748 25.1699 25.1699 23.7617 25.1699 20.9453L25.1699 4.23828C25.1699 1.42188 23.748 0 20.877 0L4.29297 0C1.43555 0 0 1.42188 0 4.23828L0 20.9453C0 23.7617 1.43555 25.1699 4.29297 25.1699ZM4.32031 22.9688C2.95312 22.9688 2.20117 22.2441 2.20117 20.8223L2.20117 4.36133C2.20117 2.93945 2.95312 2.20117 4.32031 2.20117L20.8496 2.20117C22.2031 2.20117 22.9688 2.93945 22.9688 4.36133L22.9688 20.8223C22.9688 22.2441 22.2031 22.9688 20.8496 22.9688Z" fill="white" fill-opacity="0.85"/>
  <path d="M12.5645 19.0859C15.4766 19.0859 17.459 17.582 17.459 15.3809C17.459 13.8633 16.3379 12.6055 14.7109 12.2773L14.7109 12.1953C16.0781 11.7988 16.9258 10.7051 16.9258 9.37891C16.9258 7.42383 15.1348 6.07031 12.5918 6.07031C10.0488 6.07031 8.25781 7.42383 8.25781 9.37891C8.25781 10.7051 9.0918 11.7715 10.4863 12.1953L10.4863 12.2773C8.83203 12.6055 7.73828 13.877 7.73828 15.3945C7.73828 17.6094 9.66602 19.0859 12.5645 19.0859ZM12.6055 17.582C10.9922 17.582 9.81641 16.625 9.81641 15.2852C9.81641 13.9863 11.0059 13.0156 12.6055 13.0156C14.2461 13.0156 15.3945 13.9727 15.3945 15.2852C15.3945 16.625 14.2188 17.582 12.6055 17.582ZM12.5918 11.5801C11.2383 11.5801 10.2676 10.7324 10.2676 9.55664C10.2676 8.4082 11.2246 7.57422 12.5918 7.57422C13.959 7.57422 14.9297 8.4082 14.9297 9.55664C14.9297 10.7324 13.959 11.5801 12.5918 11.5801Z" fill="white" fill-opacity="0.85"/>
 </g>
</svg>
