<?xml version="1.0" encoding="UTF-8"?>
<!--Generator: Apple Native CoreSVG 326-->
<!DOCTYPE svg
PUBLIC "-//W3C//DTD SVG 1.1//EN"
       "http://www.w3.org/Graphics/SVG/1.1/DTD/svg11.dtd">
<svg version="1.1" xmlns="http://www.w3.org/2000/svg" xmlns:xlink="http://www.w3.org/1999/xlink" viewBox="0 0 25.5254 25.1699">
 <g>
  <rect height="25.1699" opacity="0" width="25.5254" x="0" y="0"/>
  <path d="M4.29297 25.1699L20.877 25.1699C23.748 25.1699 25.1699 23.7617 25.1699 20.9453L25.1699 4.23828C25.1699 1.42188 23.748 0 20.877 0L4.29297 0C1.43555 0 0 1.42188 0 4.23828L0 20.9453C0 23.7617 1.43555 25.1699 4.29297 25.1699Z" fill="white" fill-opacity="0.85"/>
  <path d="M12.5645 19.291C9.57031 19.291 7.57422 17.7734 7.57422 15.4902C7.57422 13.918 8.70898 12.6055 10.418 12.2637L10.418 12.1816C8.98242 11.7441 8.12109 10.6504 8.12109 9.29688C8.12109 7.25977 9.9668 5.86523 12.5918 5.86523C15.2168 5.86523 17.0625 7.25977 17.0625 9.29688C17.0625 10.6504 16.1875 11.7715 14.7793 12.1816L14.7793 12.2637C16.4609 12.6055 17.623 13.9043 17.623 15.4766C17.623 17.7461 15.5723 19.291 12.5645 19.291ZM12.6055 17.7324C14.2598 17.7324 15.4766 16.748 15.4766 15.3672C15.4766 14.0137 14.3008 13.0293 12.6055 13.0293C10.9648 13.0293 9.73438 14.0273 9.73438 15.3672C9.73438 16.748 10.9512 17.7324 12.6055 17.7324ZM12.5918 11.5391C14 11.5391 14.998 10.6777 14.998 9.46094C14.998 8.28516 14 7.4375 12.5918 7.4375C11.1836 7.4375 10.1992 8.28516 10.1992 9.46094C10.1992 10.6777 11.1973 11.5391 12.5918 11.5391Z" fill="white"/>
 </g>
</svg>
