<?xml version="1.0" encoding="UTF-8"?>
<!--Generator: Apple Native CoreSVG 326-->
<!DOCTYPE svg
PUBLIC "-//W3C//DTD SVG 1.1//EN"
       "http://www.w3.org/Graphics/SVG/1.1/DTD/svg11.dtd">
<svg version="1.1" xmlns="http://www.w3.org/2000/svg" xmlns:xlink="http://www.w3.org/1999/xlink" viewBox="0 0 25.5254 25.1699">
 <g>
  <rect height="25.1699" opacity="0" width="25.5254" x="0" y="0"/>
  <path d="M4.29297 25.1699L20.877 25.1699C23.748 25.1699 25.1699 23.7617 25.1699 20.9453L25.1699 4.23828C25.1699 1.42188 23.748 0 20.877 0L4.29297 0C1.43555 0 0 1.42188 0 4.23828L0 20.9453C0 23.7617 1.43555 25.1699 4.29297 25.1699Z" fill="white" fill-opacity="0.85"/>
  <path d="M12.25 19.291C9.87109 19.291 8.54492 18.1152 8.20312 17.1309C8.14844 16.9668 8.12109 16.8027 8.12109 16.6523C8.12109 16.1055 8.50391 15.7363 9.05078 15.7363C9.50195 15.7363 9.77539 15.9688 10.0215 16.2969C10.6094 17.0898 11.252 17.4863 12.2227 17.4863C14.1641 17.4863 15.4902 15.6406 15.4629 12.5508L15.3535 12.5508C14.9023 13.5898 13.7812 14.5195 11.9082 14.5195C9.70703 14.5195 7.69727 13.0156 7.69727 10.3633C7.69727 7.62891 9.58398 5.86523 12.4961 5.86523C15.668 5.86523 17.5137 8.06641 17.5137 12.127C17.5137 16.8574 15.6543 19.291 12.25 19.291ZM12.5781 12.9199C14.1504 12.9199 15.2852 11.8125 15.2852 10.2949C15.2852 8.70898 14.123 7.54688 12.5918 7.54688C10.9648 7.54688 9.88477 8.62695 9.88477 10.2676C9.88477 11.8125 10.9922 12.9199 12.5781 12.9199Z" fill="white"/>
 </g>
</svg>
