<svg version="1.1" xmlns="http://www.w3.org/2000/svg" xmlns:xlink="http://www.w3.org/1999/xlink" viewBox="0 0 28.2461 33.2127">
 <g>
  
  <path d="M13.9453 30.5448C21.6426 30.5448 27.8906 24.2968 27.8906 16.5995C27.8906 9.77724 22.9824 4.11708 16.584 2.91395L16.584 0.972548C16.584-0.0118272 15.9141-0.257921 15.1484 0.275282L10.8008 3.33778C10.1719 3.78895 10.1855 4.4452 10.8008 4.8827L15.1621 7.9452C15.9141 8.46474 16.584 8.21864 16.584 7.24794L16.584 5.27919C21.7246 6.46864 25.5664 11.0487 25.5664 16.5995C25.5664 23.0253 20.3711 28.2206 13.9453 28.2206C7.51953 28.2206 2.32422 23.0253 2.32422 16.5995C2.32422 12.703 4.23828 9.27138 7.13672 7.19325C7.69727 6.76942 7.875 6.12684 7.5332 5.55263C7.19141 5.00575 6.41211 4.84169 5.81055 5.30653C2.2832 7.8495 0 11.91 0 16.5995C0 24.2968 6.24805 30.5448 13.9453 30.5448Z" style="fill:var(--color-0,hsl(0 0 0/0.85))"></path>
  <path d="M9.48828 22.3007C12.373 22.3007 13.2754 19.5116 13.2754 16.7362C13.2754 14.0018 12.209 11.4042 9.54297 11.4042C7.51953 11.4042 6.11133 12.9491 6.11133 15.0683C6.11133 16.914 7.21875 18.4725 9.02344 18.4725C10.2812 18.4725 11.1562 17.6933 11.457 16.6679L11.4707 16.6679C11.4707 16.6952 11.4707 16.7499 11.4707 16.7909C11.4844 18.4725 11.1562 20.7694 9.55664 20.7694C8.8457 20.7694 8.42188 20.4003 8.09375 19.8124C7.88867 19.4296 7.65625 19.2382 7.23242 19.2382C6.71289 19.2382 6.43945 19.5936 6.43945 20.0311C6.43945 20.4413 6.69922 20.9061 7.02734 21.2343C7.58789 21.9042 8.49023 22.3007 9.48828 22.3007ZM9.55664 17.0233C8.51758 17.0233 7.95703 16.039 7.95703 14.9999C7.95703 13.9608 8.53125 12.9491 9.58398 12.9491C10.6094 12.9491 11.2246 13.9745 11.2246 15.0409C11.2246 16.1073 10.582 17.0233 9.55664 17.0233ZM18.5527 22.3007C21.2461 22.3007 22.1895 19.539 22.1895 16.8456C22.1895 14.1522 21.2461 11.4042 18.5527 11.4042C15.8594 11.4042 14.916 14.1659 14.916 16.8456C14.916 19.5663 15.873 22.3007 18.5527 22.3007ZM18.5527 20.7558C17.418 20.7558 16.8301 19.0741 16.8301 16.8456C16.8301 14.6308 17.418 12.9628 18.5527 12.9628C19.6875 12.9628 20.2754 14.6308 20.2754 16.8456C20.2754 19.0741 19.7012 20.7558 18.5527 20.7558Z" style="fill:var(--color-1,hsl(0 0 0/0.85))"></path>
 </g>
</svg>