<svg version="1.1" xmlns="http://www.w3.org/2000/svg" xmlns:xlink="http://www.w3.org/1999/xlink" viewBox="0 0 25.5254 25.1699">
 <g>
  
  <path d="M4.29297 25.1699L20.877 25.1699C23.748 25.1699 25.1699 23.7617 25.1699 20.9453L25.1699 4.23828C25.1699 1.42188 23.748 0 20.877 0L4.29297 0C1.43555 0 0 1.42188 0 4.23828L0 20.9453C0 23.7617 1.43555 25.1699 4.29297 25.1699ZM4.32031 22.9688C2.95312 22.9688 2.20117 22.2441 2.20117 20.8223L2.20117 4.36133C2.20117 2.93945 2.95312 2.20117 4.32031 2.20117L20.8496 2.20117C22.2031 2.20117 22.9688 2.93945 22.9688 4.36133L22.9688 20.8223C22.9688 22.2441 22.2031 22.9688 20.8496 22.9688Z" style="fill:var(--color-0,hsl(0 0 0/0.85))"></path>
  <path d="M12.2637 19.0859C15.5586 19.0859 17.3633 16.7207 17.3633 12.1406C17.3633 8.20312 15.5723 6.07031 12.4961 6.07031C9.67969 6.07031 7.84766 7.7793 7.84766 10.4316C7.84766 13.002 9.80273 14.4648 11.9355 14.4648C13.7539 14.4648 14.834 13.5625 15.2715 12.5508L15.3809 12.5508C15.4082 15.5586 14.123 17.3496 12.2363 17.3496C11.293 17.3496 10.6641 16.9531 10.0898 16.1875C9.85742 15.873 9.59766 15.6406 9.16016 15.6406C8.62695 15.6406 8.25781 15.9961 8.25781 16.5293C8.25781 16.6797 8.28516 16.8301 8.33984 16.9941C8.66797 17.9375 9.95312 19.0859 12.2637 19.0859ZM12.5781 12.9199C11.0332 12.9199 9.9668 11.8398 9.9668 10.3359C9.9668 8.75 11.0059 7.69727 12.5918 7.69727C14.082 7.69727 15.2031 8.81836 15.2031 10.3633C15.2031 11.8398 14.1094 12.9199 12.5781 12.9199Z" style="fill:var(--color-1,hsl(0 0 0/0.85))"></path>
 </g>
</svg>