<svg version="1.1" xmlns="http://www.w3.org/2000/svg" xmlns:xlink="http://www.w3.org/1999/xlink" viewBox="0 0 25.5254 25.1699">
 <g>
  
  <path d="M4.29297 25.1699L20.877 25.1699C23.748 25.1699 25.1699 23.7617 25.1699 20.9453L25.1699 4.23828C25.1699 1.42188 23.748 0 20.877 0L4.29297 0C1.43555 0 0 1.42188 0 4.23828L0 20.9453C0 23.7617 1.43555 25.1699 4.29297 25.1699Z" style="fill:var(--color-0,hsl(0 0 0/0.85))"></path>
  <path d="M7.95703 19.1816C7.32812 19.1816 6.9043 18.7852 6.9043 18.2109C6.9043 17.9922 6.94531 17.7871 7.05469 17.4727L11.0059 6.83594C11.293 6.09766 11.8125 5.71484 12.5781 5.71484C13.3574 5.71484 13.8906 6.09766 14.1777 6.83594L18.1289 17.4727C18.2383 17.7871 18.2793 17.9922 18.2793 18.2109C18.2793 18.7852 17.8555 19.1816 17.2266 19.1816C16.7207 19.1816 16.3516 18.9355 16.1328 18.2793L15.1074 15.2852L10.0762 15.2852L9.05078 18.2793C8.83203 18.9492 8.46289 19.1816 7.95703 19.1816ZM10.6367 13.5762L14.5469 13.5762L12.6602 8.13477L12.5234 8.13477Z" style="fill:var(--color-1,white)"></path>
 </g>
</svg>