<?xml version="1.0" encoding="UTF-8"?>
<!--Generator: Apple Native CoreSVG 326-->
<!DOCTYPE svg
PUBLIC "-//W3C//DTD SVG 1.1//EN"
       "http://www.w3.org/Graphics/SVG/1.1/DTD/svg11.dtd">
<svg version="1.1" xmlns="http://www.w3.org/2000/svg" xmlns:xlink="http://www.w3.org/1999/xlink" viewBox="0 0 28.2461 27.9043">
 <g>
  <rect height="27.9043" opacity="0" width="28.2461" x="0" y="0"/>
  <path d="M13.9453 27.8906C21.6426 27.8906 27.8906 21.6289 27.8906 13.9453C27.8906 6.24805 21.6426 0 13.9453 0C6.26172 0 0 6.24805 0 13.9453C0 21.6289 6.26172 27.8906 13.9453 27.8906Z" fill="#ff9f0a"/>
  <path d="M5.57812 18.5391C5.16797 18.5391 4.8125 18.3066 4.8125 17.7734C4.8125 17.6094 4.85352 17.4316 4.9082 17.2539L6.48047 10.3633C6.64453 9.66602 7.04102 9.33789 7.69727 9.33789C8.39453 9.33789 8.80469 9.67969 8.95508 10.3633L10.5547 17.2539C10.5957 17.377 10.6367 17.6914 10.6367 17.7734C10.6367 18.1973 10.3086 18.5391 9.88477 18.5391C9.46094 18.5391 9.17383 18.3477 9.06445 17.8145L8.76367 16.3926L6.67188 16.3926L6.37109 17.8008C6.30273 18.252 6.04297 18.5391 5.57812 18.5391ZM6.89062 15.1621L8.53125 15.1621L7.72461 11.252L7.66992 11.252ZM12.6055 18.4023C12.0859 18.4023 11.8125 18.0879 11.8125 17.5547L11.8125 10.3223C11.8125 9.73438 12.1406 9.47461 12.6055 9.47461L14.6699 9.47461C15.9961 9.47461 16.7344 10.3633 16.7344 11.6895C16.7344 12.4961 16.3242 13.4395 15.4219 13.6445L15.4219 13.6992C16.3789 13.7812 16.9805 14.8613 16.9805 15.873C16.9805 17.2539 16.2285 18.4023 14.7246 18.4023ZM13.4121 17.1719L14.2051 17.1719C15.0254 17.1719 15.3672 16.5703 15.3672 15.75C15.3672 14.9297 14.9844 14.3555 14.1777 14.3555L13.4121 14.3555ZM13.4121 13.248L14.0684 13.248C14.8613 13.248 15.2031 12.7148 15.2031 11.9355C15.2031 11.1973 14.9297 10.7051 14.1914 10.7051L13.4121 10.7051ZM20.4805 18.5938C19.2227 18.5938 18.375 17.9238 18.0742 16.8301C18.0469 16.6797 18.0195 16.5293 18.0195 16.3789C18.0195 15.9551 18.2793 15.6543 18.7031 15.6543C19.0996 15.6543 19.3594 15.8457 19.4551 16.2285C19.6055 16.8301 19.8926 17.2812 20.4805 17.2812C21.0957 17.2812 21.4375 16.7891 21.4375 16.1328C21.4375 15.3398 21 15.0117 20.2891 14.6426L19.7969 14.3965C18.8535 13.9043 18.0332 13.2344 18.0332 11.8125C18.0332 10.1582 19.127 9.25586 20.4531 9.25586C21.5879 9.25586 22.3945 9.93945 22.7227 10.9238C22.791 11.1289 22.832 11.3203 22.832 11.5117C22.832 11.8945 22.5859 12.168 22.1758 12.168C21.793 12.168 21.5059 11.9766 21.4238 11.6484C21.2734 11.0742 21.041 10.5957 20.4531 10.5957C19.8789 10.5957 19.6055 11.0879 19.6055 11.6758C19.6055 12.4414 20.0566 12.7969 20.7266 13.1387L21.2324 13.3848C22.2578 13.8906 23.0234 14.5332 23.0234 15.9688C23.0234 17.541 22.1211 18.5938 20.4805 18.5938Z" fill="white"/>
 </g>
</svg>
