<svg version="1.1" xmlns="http://www.w3.org/2000/svg" xmlns:xlink="http://www.w3.org/1999/xlink" viewBox="0 0 28.2461 27.9043">
 <g>
  
  <path d="M13.9453 27.8906C21.6426 27.8906 27.8906 21.6289 27.8906 13.9453C27.8906 6.24805 21.6426 0 13.9453 0C6.26172 0 0 6.24805 0 13.9453C0 21.6289 6.26172 27.8906 13.9453 27.8906Z" style="fill:var(--color-0,#007aff)"></path>
  <path d="M13.9453 9.1875C15.9551 9.1875 18.7988 8.8457 20.1523 8.62695C20.2754 8.61328 20.3984 8.57227 20.5352 8.57227C20.877 8.57227 21.2598 8.87305 21.2598 9.37891C21.2598 9.76172 21.0273 10.0898 20.6582 10.1855C20.207 10.3223 16.9941 10.6914 16.5977 10.7598C16.1875 10.8418 15.9551 11.1836 15.9551 11.6621C15.9551 12.4004 15.9551 14.7383 16.1191 15.8047C16.2832 16.8711 17.5273 21.957 17.5684 22.1758C17.7188 22.7227 17.4043 23.2148 16.8438 23.2148C16.4609 23.2148 16.1738 22.9961 16.0371 22.4629C15.791 21.4375 14.875 17.9102 14.6426 17.0625C14.4375 16.4473 14.2871 16.2285 13.9453 16.2285C13.5898 16.2285 13.4395 16.4473 13.2754 17.0625C12.9883 17.9102 12.0996 21.4375 11.8535 22.4629C11.7031 22.9961 11.4297 23.2148 11.0469 23.2148C10.4863 23.2148 10.1582 22.7227 10.3086 22.1758C10.3633 21.957 11.5938 16.8711 11.7578 15.8047C11.9492 14.7383 11.9629 12.4004 11.9492 11.6621C11.9355 11.1836 11.6895 10.8418 11.293 10.7598C10.8828 10.6914 7.68359 10.3223 7.21875 10.1855C6.86328 10.0898 6.63086 9.76172 6.63086 9.37891C6.63086 8.87305 7 8.57227 7.3418 8.57227C7.49219 8.57227 7.60156 8.61328 7.72461 8.62695C9.0918 8.8457 11.9492 9.1875 13.9453 9.1875ZM13.9453 8.25781C12.9336 8.25781 12.1133 7.42383 12.1133 6.42578C12.1133 5.40039 12.9336 4.58008 13.9453 4.58008C14.957 4.58008 15.7773 5.40039 15.7773 6.42578C15.7773 7.42383 14.957 8.25781 13.9453 8.25781Z" style="fill:var(--color-1,white)"></path>
 </g>
</svg>