<?xml version="1.0" encoding="UTF-8"?>
<!--Generator: Apple Native CoreSVG 326-->
<!DOCTYPE svg
PUBLIC "-//W3C//DTD SVG 1.1//EN"
       "http://www.w3.org/Graphics/SVG/1.1/DTD/svg11.dtd">
<svg version="1.1" xmlns="http://www.w3.org/2000/svg" xmlns:xlink="http://www.w3.org/1999/xlink" viewBox="0 0 49.0684 22.1621">
 <g>
  <rect height="22.1621" opacity="0" width="49.0684" x="0" y="0"/>
  <path d="M4.34766 19.1816L5.20898 19.1816C5.12695 18.7578 5.07227 18.334 5.07227 17.8965C5.07227 14.7109 7.57422 12.209 10.7734 12.209C13.9727 12.209 16.4746 14.7109 16.4746 17.8965C16.4746 18.334 16.4199 18.7578 16.3242 19.1816L32.3613 19.1816C32.2793 18.7578 32.2246 18.334 32.2246 17.8965C32.2246 14.7109 34.7402 12.209 37.9258 12.209C41.125 12.209 43.6406 14.7109 43.6406 17.8965C43.6406 18.334 43.5859 18.7578 43.4902 19.1816L44.3652 19.1816C47.3594 19.1816 48.7129 17.7598 48.7129 14.5879L48.7129 10.8008C48.7129 8.25781 47.4824 6.67188 44.8848 5.82422L42.7109 5.09961C39.9492 2.74805 36.1484 0 31.0215 0L28.9434 0C23.3652 0 21.0137 0.560547 17.6641 2.66602L12.127 6.13867L6.07031 6.87695C2.2832 7.3418 0 9.69336 0 12.9199L0 14.6699C0 17.7871 1.38086 19.1816 4.34766 19.1816ZM10.7734 21.998C13.084 21.998 14.8887 20.1934 14.8887 17.8965C14.8887 15.5996 13.084 13.7949 10.7734 13.7949C8.47656 13.7949 6.67188 15.5996 6.67188 17.8965C6.67188 20.1934 8.47656 21.998 10.7734 21.998ZM37.9258 21.998C40.2363 21.998 42.041 20.1934 42.041 17.8965C42.041 15.5996 40.2363 13.7949 37.9258 13.7949C35.6289 13.7949 33.8242 15.5996 33.8242 17.8965C33.8242 20.1934 35.6289 21.998 37.9258 21.998Z" fill="white" fill-opacity="0.85"/>
  <path d="M18.0742 13.7539C17.6367 13.7539 17.2539 13.4941 17.2539 12.9062C17.2539 12.7148 17.2812 12.5508 17.3496 12.3184L18.6484 6.74023C18.7988 6.00195 19.2773 5.66016 20.002 5.66016C20.7402 5.66016 21.2188 5.98828 21.3828 6.74023L22.709 12.3184C22.75 12.5371 22.791 12.7012 22.791 12.9062C22.791 13.3848 22.4492 13.7539 21.9297 13.7539C21.4512 13.7539 21.1777 13.4805 21.0547 12.9473L20.8633 12.0586L19.1543 12.0586L18.9766 12.9199C18.8672 13.4668 18.6348 13.7539 18.0742 13.7539ZM19.3594 10.7461L20.6309 10.7461L20.0293 7.66992L19.9473 7.66992ZM24.6914 13.7539C24.1445 13.7539 23.8027 13.3984 23.8027 12.8242L23.8027 6.58984C23.8027 6.01562 24.1445 5.66016 24.6914 5.66016C25.2656 5.66016 25.6074 6.01562 25.6074 6.58984L25.6074 12.8242C25.6074 13.3984 25.2656 13.7539 24.6914 13.7539ZM27.7676 13.7539C27.207 13.7539 26.8652 13.3848 26.8652 12.8242L26.8652 6.71289C26.8652 6.125 27.1934 5.76953 27.7676 5.76953L29.2852 5.76953C31.0352 5.76953 31.8145 6.80859 31.8145 8.29883C31.8145 9.10547 31.541 9.9668 30.8711 10.4043L31.6094 12.3457C31.6777 12.5645 31.7461 12.7969 31.7461 12.9609C31.7461 13.4258 31.4043 13.7539 30.8711 13.7539C30.4062 13.7539 30.1465 13.4668 29.9961 13.002L29.2305 10.7734L28.6562 10.7734L28.6562 12.8242C28.6562 13.3984 28.3145 13.7539 27.7676 13.7539ZM28.6562 9.54297L29.1348 9.5293C29.7227 9.5293 29.9961 8.94141 29.9961 8.32617C29.9961 7.73828 29.709 7.13672 29.1348 7.13672L28.6562 7.13672Z" fill="white"/>
 </g>
</svg>
