<?xml version="1.0" encoding="UTF-8"?>
<!--Generator: Apple Native CoreSVG 326-->
<!DOCTYPE svg
PUBLIC "-//W3C//DTD SVG 1.1//EN"
       "http://www.w3.org/Graphics/SVG/1.1/DTD/svg11.dtd">
<svg version="1.1" xmlns="http://www.w3.org/2000/svg" xmlns:xlink="http://www.w3.org/1999/xlink" viewBox="0 0 50.75 22.7363">
 <g>
  <rect height="22.7363" opacity="0" width="50.75" x="0" y="0"/>
  <path d="M11.2383 22.7363C13.5488 22.7363 15.3535 20.9316 15.3535 18.6348C15.3535 16.3379 13.5488 14.5332 11.2383 14.5332C8.94141 14.5332 7.13672 16.3379 7.13672 18.6348C7.13672 20.9316 8.94141 22.7363 11.2383 22.7363ZM39.3477 22.7363C41.6582 22.7363 43.4629 20.9316 43.4629 18.6348C43.4629 16.3379 41.6582 14.5332 39.3477 14.5332C37.0371 14.5332 35.2324 16.3379 35.2324 18.6348C35.2324 20.9316 37.0371 22.7363 39.3477 22.7363ZM38.1035 5.5918C37.3105 5.44141 36.5723 5.37305 35.8203 5.44141L20.2754 6.45312L26.0586 2.55664C27.3027 1.72266 26.0859-0.123047 24.7461 0.779297L15.9824 6.63086L6.67188 8.38086C2.22852 9.21484 0 11.2656 0 14.875L0 16.6934C0 18.7441 0.916016 19.7559 2.98047 19.9883L5.71484 20.3164C5.60547 19.8789 5.53711 19.1133 5.53711 18.6348C5.53711 15.4629 8.05273 12.9473 11.2383 12.9473C14.4238 12.9473 16.9395 15.4629 16.9395 18.6348C16.9395 19.0312 16.9121 19.4824 16.8438 19.7559L33.7832 19.7559C33.6875 19.4551 33.6465 19.0449 33.6465 18.6348C33.6465 15.4629 36.1621 12.9473 39.3477 12.9473C42.5332 12.9473 45.0488 15.7363 45.0488 18.9082C45.0488 19.0859 45.0488 19.1543 45.0352 19.3184L46.4844 19.168C49.123 18.8945 50.3945 17.4316 50.3945 14.7109L50.3945 12.332C50.3945 9.0918 49.2051 7.73828 46.1016 7.13672Z" fill="white" fill-opacity="0.85"/>
  <path d="M19.5645 16.1465C19.1816 16.1465 18.8535 15.9141 18.8535 15.4082C18.8535 15.2305 18.8672 15.0938 18.9082 14.9023L20.084 9.89844C20.2207 9.25586 20.6309 8.95508 21.2461 8.95508C21.916 8.95508 22.3262 9.24219 22.4629 9.89844L23.6523 14.9023C23.6934 15.0801 23.748 15.2305 23.748 15.4082C23.748 15.8184 23.4473 16.1465 22.9824 16.1465C22.5859 16.1465 22.3262 15.9141 22.2305 15.4492L22.0254 14.6289L20.5078 14.6289L20.3164 15.4355C20.248 15.9004 20.0293 16.1465 19.5645 16.1465ZM20.6855 13.4941L21.834 13.4941L21.2734 10.7324L21.2324 10.7324ZM25.416 16.1465C24.9375 16.1465 24.6367 15.832 24.6367 15.3262L24.6367 9.77539C24.6367 9.26953 24.9375 8.95508 25.416 8.95508C25.9082 8.95508 26.209 9.26953 26.209 9.77539L26.209 15.3262C26.209 15.832 25.9082 16.1465 25.416 16.1465ZM28.123 16.1465C27.6309 16.1465 27.3438 15.832 27.3438 15.3262L27.3438 9.88477C27.3438 9.36523 27.6172 9.06445 28.123 9.06445L29.4629 9.06445C31.0078 9.06445 31.6914 9.98047 31.6914 11.293C31.6914 12.0039 31.459 12.7832 30.8574 13.1523L31.5273 14.9297C31.5957 15.1211 31.6367 15.3125 31.6367 15.4492C31.6367 15.8594 31.3223 16.1465 30.8848 16.1465C30.4746 16.1465 30.2695 15.9004 30.1055 15.5039L29.4082 13.4805L28.8887 13.4805L28.8887 15.3262C28.8887 15.832 28.6016 16.1465 28.123 16.1465ZM28.8887 12.4141L29.3398 12.4141C29.873 12.4004 30.1191 11.8672 30.1191 11.3203C30.1191 10.7871 29.8594 10.2402 29.3398 10.2402L28.8887 10.2402Z" fill="white"/>
 </g>
</svg>
