<svg version="1.1" xmlns="http://www.w3.org/2000/svg" xmlns:xlink="http://www.w3.org/1999/xlink" viewBox="0 0 32.3986 32.1699">
 <g>
  
  <path d="M26.2923 2.94904C25.5433 3.24092 24.8599 3.62432 24.1915 3.99965C24.0921 2.8259 23.3467 2.20117 22.1534 2.20117L9.88975 2.20117C8.60459 2.20117 7.83896 2.92578 7.83896 4.2793L7.83896 25.457C7.83896 26.7969 8.60459 27.5352 9.88975 27.5352L22.1534 27.5352C23.4386 27.5352 24.2042 26.7969 24.2042 25.457L24.2042 13.536C24.9496 13.1348 25.6617 12.7033 26.4054 12.3692L26.4054 25.5664C26.4054 27.8267 25.4435 29.1898 23.5479 29.6002L23.5479 31.0352C23.5479 31.6914 23.1104 32.1426 22.4405 32.1426C21.7843 32.1426 21.3468 31.6914 21.3468 31.0352L21.3468 29.7363L10.6964 29.7363L10.6964 31.0352C10.6964 31.6914 10.2589 32.1426 9.60264 32.1426C8.94639 32.1426 8.49521 31.6914 8.49521 31.0352L8.49521 29.5979C6.60477 29.1839 5.63779 27.8218 5.63779 25.5664L5.63779 4.15625C5.63779 1.39453 7.10068 0 9.8624 0L22.1944 0C24.518 0 25.9124 0.987109 26.2923 2.94904ZM15.1671 24.7324C15.1671 25.2109 14.7843 25.5938 14.2921 25.5938L10.3136 25.5938C9.83506 25.5938 9.45225 25.2109 9.45225 24.7324C9.45225 24.2402 9.83506 23.8574 10.3136 23.8574L14.2921 23.8574C14.7843 23.8574 15.1671 24.2402 15.1671 24.7324ZM22.5909 24.7324C22.5909 25.2109 22.2081 25.5938 21.7296 25.5938L17.7511 25.5938C17.2589 25.5938 16.8761 25.2109 16.8761 24.7324C16.8761 24.2402 17.2589 23.8574 17.7511 23.8574L21.7296 23.8574C22.2081 23.8574 22.5909 24.2402 22.5909 24.7324ZM15.1671 21.3145C15.1671 21.8066 14.7843 22.1758 14.2921 22.1758L10.3136 22.1758C9.83506 22.1758 9.45225 21.8066 9.45225 21.3145C9.45225 20.8223 9.83506 20.4531 10.3136 20.4531L14.2921 20.4531C14.7843 20.4531 15.1671 20.8223 15.1671 21.3145ZM22.5909 21.3145C22.5909 21.8066 22.2081 22.1758 21.7296 22.1758L17.7511 22.1758C17.2589 22.1758 16.8761 21.8066 16.8761 21.3145C16.8761 20.8223 17.2589 20.4531 17.7511 20.4531L21.7296 20.4531C22.2081 20.4531 22.5909 20.8223 22.5909 21.3145ZM15.1671 17.8965C15.1671 18.3887 14.7843 18.7578 14.2921 18.7578L10.3136 18.7578C9.83506 18.7578 9.45225 18.3887 9.45225 17.8965C9.45225 17.418 9.83506 17.0352 10.3136 17.0352L14.2921 17.0352C14.7843 17.0352 15.1671 17.418 15.1671 17.8965ZM22.5909 17.8965C22.5909 18.3887 22.2081 18.7578 21.7296 18.7578L17.7511 18.7578C17.2589 18.7578 16.8761 18.3887 16.8761 17.8965C16.8761 17.418 17.2589 17.0352 17.7511 17.0352L21.7296 17.0352C22.2081 17.0352 22.5909 17.418 22.5909 17.8965ZM26.4054 10.4517C25.6177 10.7505 24.9027 11.1526 24.2042 11.5466L24.2042 9.76068C24.95 9.35785 25.6624 8.92399 26.4054 8.58769ZM13.3897 5.98828C13.3897 7.05469 12.5147 7.92969 11.462 7.92969C10.3956 7.92969 9.53428 7.05469 9.53428 5.98828C9.53428 4.93555 10.3956 4.07422 11.462 4.07422C12.5147 4.07422 13.3897 4.93555 13.3897 5.98828ZM26.4054 6.68159C25.6183 6.98159 24.9033 7.38521 24.2042 7.78001L24.2042 5.97544C24.9496 5.5743 25.6617 5.14272 26.4054 4.80862Z" style="fill:var(--color-0,hsl(0 0 0/0.85))"></path>
  <path d="M20.1983 7.16406C23.8487 7.16406 25.7491 4.19727 28.9347 4.19727C29.6729 4.19727 30.2882 4.34766 31.0812 4.79883C31.5733 5.05859 32.0108 4.86719 32.2296 4.55273C32.4894 4.15625 32.4757 3.55469 31.8741 3.21289C30.9581 2.67969 29.9737 2.41992 28.9347 2.41992C25.2296 2.41992 23.3292 5.40039 20.1983 5.40039C19.4601 5.40039 18.8448 5.23633 18.0519 4.79883C17.587 4.52539 17.1222 4.70312 16.9034 5.05859C16.6573 5.44141 16.6847 6.05664 17.2589 6.37109C18.1612 6.93164 19.1593 7.16406 20.1983 7.16406ZM20.212 10.9512C23.8487 10.9512 25.7628 7.9707 28.9347 7.9707C29.6866 7.9707 30.3019 8.12109 31.0948 8.57227C31.5733 8.8457 32.0245 8.6543 32.2433 8.32617C32.4894 7.94336 32.4894 7.32812 31.9015 6.98633C30.9718 6.45312 29.9737 6.19336 28.9347 6.19336C25.2433 6.19336 23.3429 9.1875 20.212 9.1875C19.4601 9.1875 18.8448 9.00977 18.0655 8.57227C17.6007 8.29883 17.1222 8.49023 16.9034 8.8457C16.6573 9.22852 16.6847 9.83008 17.2726 10.1582C18.1749 10.7051 19.1729 10.9512 20.212 10.9512ZM20.1983 14.7246C23.8487 14.7246 25.7491 11.7578 28.9347 11.7578C29.6729 11.7578 30.2882 11.9082 31.0812 12.3457C31.5733 12.6191 32.0108 12.4277 32.2296 12.1133C32.4894 11.7168 32.4757 11.1016 31.8741 10.7734C30.9581 10.2402 29.9737 9.9668 28.9347 9.9668C25.2296 9.9668 23.3292 12.9609 20.1983 12.9609C19.4601 12.9609 18.8448 12.7969 18.0519 12.3457C17.587 12.0859 17.1222 12.2637 16.9034 12.6191C16.6573 13.002 16.6847 13.6035 17.2589 13.9316C18.1612 14.4785 19.1593 14.7246 20.1983 14.7246Z" style="fill:var(--color-1,hsl(0 0 0/0.85))"></path>
 </g>
</svg>