<svg version="1.1" xmlns="http://www.w3.org/2000/svg" xmlns:xlink="http://www.w3.org/1999/xlink" viewBox="0 0 22.873 28.9434">
 <g>
  
  <path d="M4.29297 28.9434L18.2246 28.9434C21.082 28.9434 22.5176 27.5352 22.5176 24.7188L22.5176 4.2793C22.5176 1.46289 21.082 0.0410156 18.2246 0.0410156L4.29297 0.0410156C1.43555 0.0410156 0 1.46289 0 4.2793L0 24.7188C0 27.5352 1.43555 28.9434 4.29297 28.9434ZM4.32031 26.7422C2.95312 26.7422 2.20117 26.0176 2.20117 24.5957L2.20117 4.40234C2.20117 2.98047 2.95312 2.24219 4.32031 2.24219L18.1973 2.24219C19.5508 2.24219 20.3164 2.98047 20.3164 4.40234L20.3164 24.5957C20.3164 26.0176 19.5508 26.7422 18.1973 26.7422ZM0.273438 10.0898L5.30469 10.0898C7.41016 10.0898 8.44922 9.06445 8.44922 7L8.44922 0.464844L6.79492 0.464844L6.79492 6.89062C6.79492 7.875 6.23438 8.43555 5.26367 8.43555L0.273438 8.43555Z" style="fill:var(--color-0,hsl(0 0 0/0.85))"></path>
 </g>
</svg>