<svg version="1.1" xmlns="http://www.w3.org/2000/svg" xmlns:xlink="http://www.w3.org/1999/xlink" viewBox="0 0 27.5352 26.6738">
 <g>
  
  <path d="M6.01562 11.0879C9.21484 11.1152 11.9629 8.59961 11.9219 5.52344C11.8809 2.48828 9.21484 0 6.01562 0C3.07617 0 1.27148 1.81836 0.410156 3.08984C0.123047 3.52734 0 4.00586 0 4.53906L0 6.54883C0 7.08203 0.136719 7.56055 0.410156 7.99805C1.24414 9.26953 3.07617 11.0469 6.01562 11.0879ZM2.48828 7.71094C2.13281 7.71094 1.8457 7.42383 1.8457 7.05469L1.8457 4.01953C1.8457 3.65039 2.13281 3.36328 2.48828 3.36328C2.87109 3.36328 3.14453 3.65039 3.14453 4.01953L3.14453 7.05469C3.14453 7.42383 2.87109 7.71094 2.48828 7.71094ZM6.71289 22.1211L10.5684 22.1211L10.5684 10.8828C9.48828 11.7168 8.14844 12.2637 6.71289 12.373ZM8.05273 26.6328L9.21484 26.6328C10.0488 26.6328 10.5684 26.2227 10.5684 25.416L10.5684 23.4883L6.71289 23.4883L6.71289 25.416C6.71289 26.2227 7.24609 26.6328 8.05273 26.6328ZM21.1641 11.0879C24.1035 11.0469 25.9492 9.26953 26.7695 7.99805C27.043 7.56055 27.1797 7.08203 27.1797 6.54883L27.1797 4.53906C27.1797 4.00586 27.0566 3.52734 26.7695 3.08984C25.9219 1.81836 24.1035 0 21.1641 0C17.9648 0 15.2988 2.48828 15.2578 5.52344C15.2168 8.59961 17.9648 11.1152 21.1641 11.0879ZM24.6914 7.71094C24.3086 7.71094 24.0352 7.42383 24.0352 7.05469L24.0352 4.01953C24.0352 3.65039 24.3086 3.36328 24.6914 3.36328C25.0469 3.36328 25.334 3.65039 25.334 4.01953L25.334 7.05469C25.334 7.42383 25.0469 7.71094 24.6914 7.71094ZM20.4668 22.1211L20.4668 12.373C19.0312 12.2637 17.6914 11.7168 16.6113 10.8828L16.6113 22.1211ZM19.127 26.6328C19.9336 26.6328 20.4668 26.2227 20.4668 25.416L20.4668 23.4883L16.6113 23.4883L16.6113 25.416C16.6113 26.2227 17.1309 26.6328 17.9648 26.6328Z" style="fill:var(--color-0,hsl(0 0 0/0.85))"></path>
 </g>
</svg>