<svg version="1.1" xmlns="http://www.w3.org/2000/svg" xmlns:xlink="http://www.w3.org/1999/xlink" viewBox="0 0 35.5178 24.459">
 <g>
  
  <path d="M2.67885 24.459L32.1828 24.459C32.7843 24.459 33.2902 23.9531 33.2902 23.3516C33.2902 22.75 32.7843 22.2578 32.1828 22.2578L2.67885 22.2578C2.07728 22.2578 1.5851 22.75 1.5851 23.3516C1.5851 23.9531 2.07728 24.459 2.67885 24.459Z" style="fill:var(--color-0,hsl(0 0 0/0.85))"></path>
  <path d="M7.68275 15.2988L31.13 9.05078C33.755 8.33984 35.7238 6.41211 35.0128 4.45703C34.3566 2.67969 31.7179 2.24219 29.3663 3.03516L21.1495 5.85156C20.5753 6.04297 20.1652 6.0293 19.5089 5.71484L8.05189 0.300781C7.68275 0.136719 7.2726 0.0957031 6.90345 0.205078L5.9601 0.492188C5.63197 0.601562 5.5226 0.984375 5.82338 1.29883L13.6574 9.61133L13.9171 8.3125L6.99916 10.6914L9.67885 10.7734L1.66713 7.92969C1.29799 7.80664 0.969861 7.86133 0.614392 8.18945L0.217908 8.55859C-0.0555299 8.80469-0.0692018 9.13281 0.16322 9.37891L4.96205 14.7656C5.59095 15.4766 6.52064 15.6133 7.68275 15.2988Z" style="fill:var(--color-1,hsl(0 0 0/0.85))"></path>
 </g>
</svg>