<svg version="1.1" xmlns="http://www.w3.org/2000/svg" xmlns:xlink="http://www.w3.org/1999/xlink" viewBox="0 0 15.4492 24.0488">
 <g>
  
  <path d="M5.87891 0.0957031C2.7207 0.123047 0 2.7207 0 6.26172C0 9.92578 5.20898 14.3145 8.99609 14.3281C11.7305 14.3418 15.0938 11.6895 15.0938 8.32617C15.0938 4.26562 10.0762 0.0683594 5.87891 0.0957031ZM10.2949 12.4414C9.55664 12.4414 9.51562 11.4844 10.2539 10.2949C10.9785 9.07812 12.168 8.13477 12.9199 8.13477C13.6719 8.13477 13.7129 9.07812 12.9746 10.2949C12.25 11.4844 11.0605 12.4414 10.2949 12.4414ZM6.49414 6.34375C6.07031 6.94531 5.25 7.08203 4.62109 6.63086L2.7207 5.27734C2.10547 4.82617 1.98242 4.0332 2.44727 3.43164C2.85742 2.81641 3.67773 2.66602 4.2793 3.10352L6.17969 4.48438C6.78125 4.9082 6.91797 5.72852 6.49414 6.34375ZM5.22266 24.0488C6.07031 24.0488 6.63086 23.6113 6.63086 22.7773L6.63086 15.2305C5.03125 14.7246 3.44531 13.7676 2.10547 12.5645L2.10547 22.7773C2.10547 23.6113 2.65234 24.0488 3.5 24.0488Z" style="fill:var(--color-0,hsl(0 0 0/0.85))"></path>
 </g>
</svg>