<svg version="1.1" xmlns="http://www.w3.org/2000/svg" xmlns:xlink="http://www.w3.org/1999/xlink" viewBox="0 0 56.6152 23.8574">
 <g>
  
  <path d="M5.27734 21.2734C5.71484 20.7812 5.57812 20.1387 5.08594 19.5781C3.25391 17.541 2.22852 14.8613 2.22852 11.9219C2.22852 8.98242 3.25391 6.30273 5.08594 4.26562C5.57812 3.70508 5.71484 3.0625 5.27734 2.57031C4.83984 2.05078 4.07422 2.06445 3.55469 2.63867C1.28516 5.09961 0 8.38086 0 11.9219C0 15.4629 1.28516 18.7305 3.55469 21.2051C4.07422 21.7793 4.83984 21.7793 5.27734 21.2734ZM50.9824 21.2734C51.4199 21.7793 52.1855 21.7793 52.7188 21.2051C54.9883 18.7305 56.2598 15.4629 56.2598 11.9219C56.2598 8.38086 54.9883 5.09961 52.7188 2.63867C52.1855 2.06445 51.4199 2.05078 50.9824 2.57031C50.5449 3.0625 50.6816 3.70508 51.1738 4.26562C53.0059 6.30273 54.0312 8.98242 54.0312 11.9219C54.0312 14.8613 53.0059 17.541 51.1738 19.5781C50.6816 20.1387 50.5449 20.7812 50.9824 21.2734Z" style="fill:var(--color-0,hsl(0 0 0/0.85))"></path>
  <path d="M9.10547 17.377C9.54297 16.8848 9.36523 16.2695 8.92773 15.6816C8.10742 14.6562 7.71094 13.3438 7.71094 11.9219C7.71094 10.5 8.10742 9.17383 8.92773 8.16211C9.36523 7.57422 9.54297 6.95898 9.10547 6.4668C8.6543 5.94727 7.83398 5.94727 7.35547 6.5625C6.16602 8.03906 5.48242 9.91211 5.48242 11.9219C5.48242 13.9316 6.16602 15.8047 7.35547 17.2812C7.83398 17.8965 8.6543 17.8828 9.10547 17.377ZM47.1543 17.377C47.6055 17.8828 48.4258 17.8965 48.9043 17.2812C50.0938 15.8047 50.791 13.9316 50.791 11.9219C50.791 9.91211 50.0938 8.03906 48.9043 6.5625C48.4258 5.94727 47.6055 5.94727 47.1543 6.4668C46.7168 6.95898 46.8945 7.57422 47.332 8.16211C48.1523 9.17383 48.5625 10.5 48.5625 11.9219C48.5625 13.3438 48.1523 14.6562 47.332 15.6816C46.8945 16.2695 46.7168 16.8848 47.1543 17.377Z" style="fill:var(--color-1,hsl(0 0 0/0.85))"></path>
  <path d="M20.9453 23.8438L35.3145 23.8438C40.9062 23.8438 43.6133 21.1641 43.6133 15.5996L43.6133 8.24414C43.6133 2.67969 40.9062 0 35.3145 0L20.9453 0C15.3535 0 12.6465 2.67969 12.6465 8.24414L12.6465 15.5996C12.6465 21.1641 15.3535 23.8438 20.9453 23.8438ZM20.9453 21.6426C16.7344 21.6426 14.8477 19.7695 14.8477 15.5996L14.8477 8.24414C14.8477 4.07422 16.7344 2.20117 20.9453 2.20117L35.3145 2.20117C39.5254 2.20117 41.4121 4.07422 41.4121 8.24414L41.4121 15.5996C41.4121 19.7695 39.5254 21.6426 35.3145 21.6426ZM13.7676 9.17383L42.4922 9.17383L42.4922 7.79297L13.7676 7.79297ZM22.6543 10.1172L33.6055 10.1172C34.5625 10.1172 35.2461 9.44727 35.2461 8.47656C35.2461 7.51953 34.5625 6.84961 33.6055 6.84961L22.6543 6.84961C21.7246 6.84961 21.0137 7.51953 21.0137 8.47656C21.0137 9.44727 21.7246 10.1172 22.6543 10.1172ZM28.1367 14.7793C28.8613 14.7656 29.4492 14.1641 29.4492 13.4805C29.4492 12.7559 28.8613 12.1543 28.1367 12.1543C27.3984 12.1543 26.8105 12.7559 26.8105 13.4805C26.8105 14.1914 27.3984 14.793 28.1367 14.7793Z" style="fill:var(--color-2,hsl(0 0 0/0.85))"></path>
 </g>
</svg>