<?xml version="1.0" encoding="UTF-8"?>
<!--Generator: Apple Native CoreSVG 326-->
<!DOCTYPE svg
PUBLIC "-//W3C//DTD SVG 1.1//EN"
       "http://www.w3.org/Graphics/SVG/1.1/DTD/svg11.dtd">
<svg version="1.1" xmlns="http://www.w3.org/2000/svg" xmlns:xlink="http://www.w3.org/1999/xlink" viewBox="0 0 28.5009 30.4199">
 <g>
  <rect height="30.4199" opacity="0" width="28.5009" x="0" y="0"/>
  <path d="M0.87252 17.541L2.11666 17.541L2.11666 14.793L0.87252 14.793ZM7.33932 30.4199C9.0483 30.4199 9.84127 28.8477 8.91158 27.1797L3.7983 18.1426C3.3608 17.3906 2.70455 17.0488 1.88424 17.0488C0.599083 17.0488-0.098183 18.0059 0.011192 19.2773C0.28463 20.9043 1.37838 23.502 2.70455 25.6348C4.79635 29.1758 6.01315 30.4199 7.33932 30.4199ZM27.2729 17.541L27.2729 14.793L26.0288 14.793L26.0288 17.541ZM20.8061 30.4199C22.1323 30.4199 23.3491 29.1758 25.4409 25.6348C26.7534 23.502 27.8608 20.9043 28.1342 19.2773C28.2436 18.0059 27.5463 17.0488 26.2612 17.0488C25.4409 17.0488 24.7846 17.3906 24.3471 18.1426L19.2338 27.1797C18.2905 28.8477 19.0971 30.4199 20.8061 30.4199ZM0.407676 14.5605C0.407676 15.2031 0.817833 15.5996 1.46041 15.5996C2.10299 15.5996 2.4858 15.2031 2.4858 14.5605C2.55416 7.19141 6.94283 2.51562 14.0659 2.51562C21.2026 2.51562 25.5776 7.19141 25.646 14.5605C25.646 15.2031 26.0424 15.5996 26.685 15.5996C27.3276 15.5996 27.7241 15.2031 27.7241 14.5605C27.7241 6.17969 22.5698 0.423828 14.0659 0.423828C5.56197 0.423828 0.407676 6.17969 0.407676 14.5605Z" fill="white" fill-opacity="0.85"/>
  <path d="M11.4272 27.7129C12.3022 27.207 12.5346 26.0723 11.9741 25.1016L7.36666 16.9668C6.80611 15.9961 5.71236 15.6406 4.85104 16.1465C4.31783 16.4336 4.19479 16.9395 4.46822 17.418L10.1284 27.3711C10.4155 27.8633 10.9077 28 11.4272 27.7129ZM16.7182 27.7129C17.2378 28 17.7299 27.8633 18.0034 27.3711L23.6635 17.418C23.9506 16.9395 23.8276 16.4336 23.2944 16.1465C22.4194 15.6406 21.3393 15.9961 20.7651 16.9668L16.1577 25.1016C15.5971 26.0723 15.8432 27.207 16.7182 27.7129ZM6.0815 7.27344C8.32369 6.05664 10.9487 5.45508 14.0659 5.45508C17.1967 5.45508 19.8217 6.05664 22.0503 7.27344C20.2592 4.97656 17.7026 3.82812 14.0659 3.82812C10.4428 3.82812 7.88619 4.97656 6.0815 7.27344Z" fill="white" fill-opacity="0.85"/>
 </g>
</svg>
