<svg version="1.1" xmlns="http://www.w3.org/2000/svg" xmlns:xlink="http://www.w3.org/1999/xlink" viewBox="0 0 20.959 26.9748">
 <g>
  
  <path d="M10.2402 16.0321L10.2402 24.295C10.2402 25.1427 9.67969 25.5802 8.83203 25.5802L7.76562 25.5802C6.91797 25.5802 6.35742 25.1427 6.35742 24.295L6.35742 15.2725C7.36857 15.6518 8.58523 15.9225 10.2402 16.0321Z" style="fill:var(--color-0,hsl(0 0 0/0.85))"></path>
  <path d="M13.5625 4.94932C13.7682 5.20641 14.0622 5.6521 14.3396 6.18794C11.1976 6.69051 8.91406 9.50637 8.91406 12.2774C8.91406 13.1353 9.07173 13.8921 9.35167 14.5447C7.5591 14.3336 6.43946 13.8939 5.41406 13.3165C3.1582 12.0177 1.38086 9.91222 1.38086 6.89073C1.38086 3.4044 3.8418 1.42198 6.86328 1.39464C9.20117 1.36729 11.8125 2.51573 13.5625 4.94932ZM4.25195 4.64854C4.00586 4.92198 4.01953 5.33214 4.30664 5.56456L6.34375 7.25987C6.60352 7.49229 7.02734 7.46495 7.25977 7.17784C7.49219 6.89073 7.46484 6.48057 7.16406 6.24815L5.16797 4.55284C4.88086 4.32042 4.4707 4.36143 4.25195 4.64854Z" style="fill:var(--color-1,hsl(0 0 0/0.85))"></path>
  <path d="M14.2461 16.2423C16.6934 16.2423 19.209 14.3009 19.209 11.3341C19.209 9.35167 17.8145 7.41026 15.3535 7.41026C12.4688 7.41026 10.2402 9.91222 10.2402 12.2774C10.2402 14.9298 12.1133 16.2423 14.2461 16.2423ZM14.916 14.1642C14.5332 13.836 14.752 13.1798 15.5312 12.1817C16.3379 11.1974 16.9805 10.8692 17.3906 11.2247C17.7598 11.5528 17.5547 12.2228 16.7754 13.1935C15.9551 14.1642 15.3125 14.506 14.916 14.1642Z" style="fill:var(--color-2,hsl(0 0 0/0.85))"></path>
 </g>
</svg>