<?xml version="1.0" encoding="UTF-8"?>
<!--Generator: Apple Native CoreSVG 326-->
<!DOCTYPE svg
PUBLIC "-//W3C//DTD SVG 1.1//EN"
       "http://www.w3.org/Graphics/SVG/1.1/DTD/svg11.dtd">
<svg version="1.1" xmlns="http://www.w3.org/2000/svg" xmlns:xlink="http://www.w3.org/1999/xlink" viewBox="0 0 33.8379 16.2832">
 <g>
  <rect height="16.2832" opacity="0" width="33.8379" x="0" y="0"/>
  <path d="M26.8789 11.5391C27.8223 11.5117 28.6152 10.7324 28.6152 9.78906C28.6152 8.83203 27.8223 8.02539 26.8789 8.02539C25.9492 8.02539 25.1426 8.83203 25.1426 9.78906C25.1426 10.7324 25.9492 11.5527 26.8789 11.5391ZM4.29297 16.1328L29.1895 16.1328C32.0469 16.1328 33.4824 14.7109 33.4824 11.8945L33.4824 4.22461C33.4824 1.42188 32.0469 0 29.1895 0L4.29297 0C1.42188 0 0 1.4082 0 4.22461L0 11.8945C0 14.7246 1.42188 16.1328 4.29297 16.1328ZM4.32031 13.9316C2.95312 13.9316 2.20117 13.207 2.20117 11.7852L2.20117 4.34766C2.20117 2.92578 2.95312 2.20117 4.32031 2.20117L29.1621 2.20117C30.5156 2.20117 31.2812 2.92578 31.2812 4.34766L31.2812 11.7852C31.2812 13.207 30.5156 13.9316 29.1621 13.9316ZM32.2383 6.17969L32.2383 4.38867L1.27148 4.38867L1.27148 6.17969Z" fill="white" fill-opacity="0.85"/>
 </g>
</svg>
