<svg version="1.1" xmlns="http://www.w3.org/2000/svg" xmlns:xlink="http://www.w3.org/1999/xlink" viewBox="0 0 32.2793 29.627">
 <g>
  
  <path d="M31.9238 5.35938L31.9238 19.1406C31.9238 21.3145 30.584 22.6543 28.4102 22.6543L23.7788 22.6543L21.8322 20.4531L28.3691 20.4531C29.2168 20.4531 29.7227 19.9473 29.7227 19.1133L29.7227 5.40039C29.7227 4.55273 29.2168 4.04688 28.3691 4.04688L3.55469 4.04688C2.70703 4.04688 2.20117 4.55273 2.20117 5.40039L2.20117 19.1133C2.20117 19.9473 2.70703 20.4531 3.55469 20.4531L10.1053 20.4531L8.15871 22.6543L3.51367 22.6543C1.33984 22.6543 0 21.3145 0 19.1406L0 5.35938C0 3.18555 1.33984 1.8457 3.51367 1.8457L28.4102 1.8457C30.584 1.8457 31.9238 3.18555 31.9238 5.35938Z" style="fill:var(--color-0,hsl(0 0 0/0.85))"></path>
  <path d="M24.3223 27.7539C24.9648 27.7539 25.2109 27.0977 24.8008 26.6328L16.5566 17.2949C16.2422 16.9395 15.6953 16.9395 15.3809 17.2949L7.13672 26.6328C6.72656 27.0977 6.97266 27.7539 7.61523 27.7539Z" style="fill:var(--color-1,hsl(0 0 0/0.85))"></path>
 </g>
</svg>