<svg version="1.1" xmlns="http://www.w3.org/2000/svg" xmlns:xlink="http://www.w3.org/1999/xlink" viewBox="0 0 22.5859 27.166">
 <g>
  
  <path d="M11.1152 15.6133C10.4316 15.627 9.85742 15.0391 9.85742 14.3691C9.85742 13.6855 10.4316 13.1113 11.1152 13.1113C11.7988 13.1113 12.373 13.6855 12.373 14.3691C12.373 15.0117 11.7988 15.5996 11.1152 15.6133ZM6.89062 27.1523L15.3398 27.1523C19.9883 27.1523 22.2305 24.9102 22.2305 20.2617L22.2305 9.10547L16.4473 9.10547C16.2012 9.65234 15.627 10.0352 14.9023 10.0352L7.32812 10.0352C6.63086 10.0352 6.04297 9.65234 5.79688 9.10547L0 9.10547L0 20.2617C0 24.9102 2.24219 27.1523 6.89062 27.1523ZM0 7.72461L5.79688 7.72461C6.04297 7.16406 6.63086 6.78125 7.32812 6.78125L14.9023 6.78125C15.627 6.78125 16.2012 7.16406 16.4473 7.72461L22.2305 7.72461L22.2305 6.89062C22.2305 2.24219 19.9883 0 15.3398 0L6.89062 0C2.24219 0 0 2.24219 0 6.89062Z" style="fill:var(--color-0,hsl(0 0 0/0.85))"></path>
 </g>
</svg>