<?xml version="1.0" encoding="UTF-8"?>
<!--Generator: Apple Native CoreSVG 326-->
<!DOCTYPE svg
PUBLIC "-//W3C//DTD SVG 1.1//EN"
       "http://www.w3.org/Graphics/SVG/1.1/DTD/svg11.dtd">
<svg version="1.1" xmlns="http://www.w3.org/2000/svg" xmlns:xlink="http://www.w3.org/1999/xlink" viewBox="0 0 40.5234 26.9748">
 <g>
  <rect height="26.9748" opacity="0" width="40.5234" x="0" y="0"/>
  <path d="M14.1777 24.295C14.1777 25.1427 13.6172 25.5802 12.7695 25.5802L11.7031 25.5802C10.8418 25.5802 10.2949 25.1427 10.2949 24.295L10.2949 16.0321C11.9499 15.9225 13.1666 15.6518 14.1777 15.2725ZM29.873 16.0321L29.873 24.295C29.873 25.1427 29.3262 25.5802 28.4648 25.5802L27.3984 25.5802C26.5508 25.5802 25.9902 25.1427 25.9902 24.295L25.9902 15.2725C27.0014 15.6518 28.218 15.9225 29.873 16.0321Z" fill="white" fill-opacity="0.85"/>
  <path d="M19.1543 6.89073C19.1543 9.91222 17.3633 12.0177 15.1211 13.3165C14.0957 13.8939 12.9761 14.3336 11.1835 14.5447C11.4634 13.8921 11.6211 13.1353 11.6211 12.2774C11.6211 9.50636 9.33757 6.69051 6.1956 6.18794C6.47298 5.6521 6.76698 5.20641 6.97266 4.94932C8.72266 2.51573 11.334 1.36729 13.6719 1.39464C16.6934 1.42198 19.1543 3.4044 19.1543 6.89073ZM33.1953 4.94932C33.401 5.20641 33.695 5.6521 33.9724 6.18794C30.8304 6.69051 28.5469 9.50637 28.5469 12.2774C28.5469 13.1353 28.7045 13.8921 28.9845 14.5447C27.1919 14.3336 26.0723 13.8939 25.0469 13.3165C22.8047 12.0177 21.0137 9.91222 21.0137 6.89073C21.0137 3.4044 23.4746 1.42198 26.4961 1.39464C28.834 1.36729 31.4453 2.51573 33.1953 4.94932ZM15.3672 4.55284L13.3574 6.24815C13.0703 6.48057 13.043 6.89073 13.2754 7.17784C13.5078 7.46495 13.9316 7.49229 14.1914 7.25987L16.2285 5.56456C16.5156 5.33214 16.5293 4.92198 16.2832 4.64854C16.0645 4.36143 15.6543 4.32042 15.3672 4.55284ZM23.8848 4.64854C23.6387 4.92198 23.6523 5.33214 23.9395 5.56456L25.9766 7.25987C26.2363 7.49229 26.6602 7.46495 26.8926 7.17784C27.125 6.89073 27.0977 6.48057 26.8105 6.24815L24.8008 4.55284C24.5137 4.32042 24.1035 4.36143 23.8848 4.64854Z" fill="white" fill-opacity="0.85"/>
  <path d="M6.28906 16.2423C8.42188 16.2423 10.2949 14.9298 10.2949 12.2774C10.2949 9.91222 8.06641 7.41026 5.18164 7.41026C2.7207 7.41026 1.32617 9.35167 1.32617 11.3341C1.32617 14.3009 3.8418 16.2423 6.28906 16.2423ZM5.61914 14.1642C5.22266 14.506 4.58008 14.1642 3.75977 13.1935C2.98047 12.2228 2.77539 11.5528 3.14453 11.2247C3.55469 10.8692 4.18359 11.1974 5.00391 12.1817C5.7832 13.1798 6.00195 13.836 5.61914 14.1642ZM33.8789 16.2423C36.3262 16.2423 38.8418 14.3009 38.8418 11.3341C38.8418 9.35167 37.4473 7.41026 34.9863 7.41026C32.1016 7.41026 29.873 9.91222 29.873 12.2774C29.873 14.9298 31.7461 16.2423 33.8789 16.2423ZM34.5488 14.1642C34.166 13.836 34.3848 13.1798 35.1641 12.1817C35.9844 11.1974 36.6133 10.8692 37.0234 11.2247C37.3926 11.5528 37.1875 12.2228 36.4082 13.1935C35.5879 14.1642 34.9453 14.506 34.5488 14.1642Z" fill="white" fill-opacity="0.85"/>
 </g>
</svg>
