<svg version="1.1" xmlns="http://www.w3.org/2000/svg" xmlns:xlink="http://www.w3.org/1999/xlink" viewBox="0 0 36.8184 24.0215">
 <g>
  
  <path d="M31.1719 21.3555C31.623 21.8613 32.375 21.8613 32.9082 21.2871C35.1777 18.8125 36.4629 15.5449 36.4629 12.0039C36.4629 8.46289 35.1777 5.18164 32.9082 2.7207C32.375 2.14648 31.623 2.13281 31.1719 2.65234C30.7344 3.14453 30.8711 3.78711 31.377 4.34766C33.209 6.38477 34.2344 9.06445 34.2344 12.0039C34.2344 14.9434 33.209 17.623 31.377 19.6602C30.8711 20.2207 30.7344 20.8633 31.1719 21.3555Z" style="fill:var(--color-0,hsl(0 0 0/0.85))"></path>
  <path d="M27.3438 17.459C27.7949 17.9648 28.6152 17.9785 29.1074 17.3633C30.2969 15.8867 30.9805 14.0137 30.9805 12.0039C30.9805 9.99414 30.2969 8.12109 29.1074 6.64453C28.6152 6.0293 27.7949 6.0293 27.3438 6.54883C26.9062 7.04102 27.0977 7.65625 27.5215 8.24414C28.3418 9.25586 28.752 10.582 28.752 12.0039C28.752 13.4258 28.3418 14.7383 27.5215 15.7637C27.0977 16.3516 26.9062 16.9668 27.3438 17.459Z" style="fill:var(--color-1,hsl(0 0 0/0.85))"></path>
  <path d="M12.0039 23.9941C18.6211 23.9941 23.9941 18.6348 23.9941 12.0039C23.9941 5.37305 18.6211 0 12.0039 0C5.37305 0 0 5.37305 0 12.0039C0 18.6348 5.37305 23.9941 12.0039 23.9941ZM12.0039 16.1055C11.1836 16.1055 10.8965 16.543 10.2402 16.543C9.55664 16.543 9.10547 15.9551 8.57227 15.2031C7.9707 14.3145 7.46484 12.9609 7.46484 11.6621C7.46484 9.59766 8.80469 8.49023 10.1445 8.49023C10.8418 8.49023 11.416 8.96875 11.8672 8.96875C12.291 8.96875 12.9336 8.47656 13.7402 8.47656C14.0547 8.47656 15.1348 8.49023 15.8457 9.51562C15.791 9.58398 14.7109 10.1855 14.7109 11.5664C14.7109 13.1387 16.0918 13.6992 16.1328 13.7266C16.1328 13.7539 15.9277 14.4922 15.4082 15.2305C14.957 15.873 14.4648 16.5293 13.7402 16.5293C13.0156 16.5293 12.8379 16.1055 12.0039 16.1055ZM13.3711 7.58789C13.0156 8.02539 12.4141 8.35352 11.9219 8.35352C11.8672 8.35352 11.8125 8.33984 11.7715 8.33984C11.7715 8.3125 11.7578 8.23047 11.7578 8.14844C11.7578 7.58789 12.0586 7.05469 12.3457 6.69922C12.7422 6.24805 13.3711 5.90625 13.918 5.89258C13.9316 5.94727 13.9316 6.0293 13.9316 6.09766C13.9316 6.6582 13.6992 7.19141 13.3711 7.58789Z" style="fill:var(--color-2,hsl(0 0 0/0.85))"></path>
 </g>
</svg>