<svg version="1.1" xmlns="http://www.w3.org/2000/svg" xmlns:xlink="http://www.w3.org/1999/xlink" viewBox="0 0 26.6191 31.7324">
 <g>
  
  <path d="M14.1367 30.748C14.1367 31.2812 13.6582 31.6914 13.125 31.6914C12.5918 31.6914 12.127 31.2812 12.127 30.748L12.127 28.082L14.1367 28.082ZM14.1367 17.1719L12.127 17.1719L12.127 14.5332L14.1367 14.5332ZM14.1367 0.943359L14.1367 3.62305L12.127 3.62305L12.127 0.943359C12.127 0.410156 12.5918 0 13.125 0C13.6582 0 14.1367 0.410156 14.1367 0.943359Z" style="fill:var(--color-0,hsl(0 0 0/0.85))"></path>
  <path d="M7.9707 14.5332L18.293 14.5332C20.3164 14.5332 21.4238 13.4531 21.4238 11.457L21.4238 6.69922C21.4238 4.70312 20.3164 3.62305 18.293 3.62305L7.9707 3.62305C5.93359 3.62305 4.83984 4.70312 4.83984 6.69922L4.83984 11.457C4.83984 13.4531 5.93359 14.5332 7.9707 14.5332ZM8.01172 12.4688C7.30078 12.4688 6.9043 12.0723 6.9043 11.334L6.9043 6.80859C6.9043 6.08398 7.30078 5.6875 8.01172 5.6875L18.252 5.6875C18.9629 5.6875 19.3594 6.08398 19.3594 6.80859L19.3594 11.334C19.3594 12.0723 18.9629 12.4688 18.252 12.4688ZM3.13086 28.082L23.1328 28.082C25.1562 28.082 26.2637 27.002 26.2637 25.0059L26.2637 20.248C26.2637 18.2656 25.1562 17.1719 23.1328 17.1719L3.13086 17.1719C1.09375 17.1719 0 18.2656 0 20.248L0 25.0059C0 27.002 1.09375 28.082 3.13086 28.082ZM3.17188 26.0176C2.46094 26.0176 2.06445 25.6211 2.06445 24.8965L2.06445 20.3711C2.06445 19.6328 2.46094 19.2363 3.17188 19.2363L23.0918 19.2363C23.8027 19.2363 24.1992 19.6328 24.1992 20.3711L24.1992 24.8965C24.1992 25.6211 23.8027 26.0176 23.0918 26.0176Z" style="fill:var(--color-1,hsl(0 0 0/0.85))"></path>
 </g>
</svg>