<?xml version="1.0" encoding="UTF-8"?>
<!--Generator: Apple Native CoreSVG 326-->
<!DOCTYPE svg
PUBLIC "-//W3C//DTD SVG 1.1//EN"
       "http://www.w3.org/Graphics/SVG/1.1/DTD/svg11.dtd">
<svg version="1.1" xmlns="http://www.w3.org/2000/svg" xmlns:xlink="http://www.w3.org/1999/xlink" viewBox="0 0 32.0469 26.3457">
 <g>
  <rect height="26.3457" opacity="0" width="32.0469" x="0" y="0"/>
  <path d="M3.62305 14.2051L0.957031 14.2051C0.410156 14.2051 0 13.7266 0 13.1934C0 12.6602 0.410156 12.1953 0.957031 12.1953L3.62305 12.1953ZM31.6914 13.1934C31.6914 13.7266 31.2812 14.2051 30.748 14.2051L28.0957 14.2051L28.0957 12.1953L30.748 12.1953C31.2812 12.1953 31.6914 12.6602 31.6914 13.1934ZM17.1719 14.2051L14.5332 14.2051L14.5332 12.1953L17.1719 12.1953Z" fill="white" fill-opacity="0.85"/>
  <path d="M6.69922 26.3457L11.457 26.3457C13.4531 26.3457 14.5332 25.2246 14.5332 23.1875L14.5332 3.19922C14.5332 1.16211 13.4531 0.0683594 11.457 0.0683594L6.69922 0.0683594C4.70312 0.0683594 3.62305 1.16211 3.62305 3.19922L3.62305 23.1875C3.62305 25.2246 4.70312 26.3457 6.69922 26.3457ZM20.2617 21.4785L25.0195 21.4785C27.002 21.4785 28.0957 20.3848 28.0957 18.3477L28.0957 8.03906C28.0957 6.00195 27.002 4.9082 25.0195 4.9082L20.2617 4.9082C18.2656 4.9082 17.1719 6.00195 17.1719 8.03906L17.1719 18.3477C17.1719 20.3848 18.2656 21.4785 20.2617 21.4785Z" fill="white" fill-opacity="0.85"/>
 </g>
</svg>
