<?xml version="1.0" encoding="UTF-8"?>
<!--Generator: Apple Native CoreSVG 326-->
<!DOCTYPE svg
PUBLIC "-//W3C//DTD SVG 1.1//EN"
       "http://www.w3.org/Graphics/SVG/1.1/DTD/svg11.dtd">
<svg version="1.1" xmlns="http://www.w3.org/2000/svg" xmlns:xlink="http://www.w3.org/1999/xlink" viewBox="0 0 31.1445 31.7324">
 <g>
  <rect height="31.7324" opacity="0" width="31.1445" x="0" y="0"/>
  <path d="M7.65625 14.5332L17.9785 14.5332C20.0156 14.5332 21.1094 13.4531 21.1094 11.457L21.1094 6.69922C21.1094 4.70312 20.0156 3.62305 17.9785 3.62305L7.65625 3.62305C5.63281 3.62305 4.52539 4.70312 4.52539 6.69922L4.52539 11.457C4.52539 13.4531 5.63281 14.5332 7.65625 14.5332ZM7.65625 28.082L27.6582 28.082C29.6953 28.082 30.7891 27.002 30.7891 25.0059L30.7891 20.248C30.7891 18.2656 29.6953 17.1719 27.6582 17.1719L7.65625 17.1719C5.63281 17.1719 4.52539 18.2656 4.52539 20.248L4.52539 25.0059C4.52539 27.002 5.63281 28.082 7.65625 28.082Z" fill="white" fill-opacity="0.85"/>
  <path d="M0.998047 31.6914C1.54492 31.6914 2.00977 31.2812 2.00977 30.748L2.00977 0.943359C2.00977 0.410156 1.54492 0 0.998047 0C0.464844 0 0 0.410156 0 0.943359L0 30.748C0 31.2812 0.464844 31.6914 0.998047 31.6914Z" fill="white" fill-opacity="0.85"/>
 </g>
</svg>
