<?xml version="1.0" encoding="UTF-8"?>
<!--Generator: Apple Native CoreSVG 326-->
<!DOCTYPE svg
PUBLIC "-//W3C//DTD SVG 1.1//EN"
       "http://www.w3.org/Graphics/SVG/1.1/DTD/svg11.dtd">
<svg version="1.1" xmlns="http://www.w3.org/2000/svg" xmlns:xlink="http://www.w3.org/1999/xlink" viewBox="0 0 33.6875 33.5098">
 <g>
  <rect height="33.5098" opacity="0" width="33.6875" x="0" y="0"/>
  <path d="M15.6133 4.49805C16.4062 4.49805 17.0352 3.86914 17.0352 3.08984C17.0352 2.29688 16.4062 1.66797 15.6133 1.66797C14.834 1.66797 14.2051 2.29688 14.2051 3.08984C14.2051 3.86914 14.834 4.49805 15.6133 4.49805ZM23.3379 2.88477C24.1172 2.88477 24.7598 2.25586 24.7598 1.46289C24.7598 0.669922 24.1172 0.0410156 23.3379 0.0410156C22.5449 0.0410156 21.916 0.669922 21.916 1.46289C21.916 2.25586 22.5449 2.88477 23.3379 2.88477ZM30.2969 7.0957C31.0898 7.0957 31.7188 6.4668 31.7188 5.67383C31.7188 4.89453 31.0898 4.26562 30.2969 4.26562C29.5039 4.26562 28.875 4.89453 28.875 5.67383C28.875 6.4668 29.5039 7.0957 30.2969 7.0957ZM31.9102 14.8477C32.7031 14.8477 33.332 14.2188 33.332 13.4395C33.332 12.6465 32.7031 12.0176 31.9102 12.0176C31.1309 12.0176 30.4883 12.6465 30.4883 13.4395C30.4883 14.2188 31.1309 14.8477 31.9102 14.8477ZM27.6992 21.7246C28.4922 21.7246 29.1211 21.0957 29.1211 20.3164C29.1211 19.5234 28.4922 18.8945 27.6992 18.8945C26.9062 18.8945 26.2773 19.5234 26.2773 20.3164C26.2773 21.0957 26.9062 21.7246 27.6992 21.7246ZM21 25.2383C21.793 25.2383 22.4219 24.6094 22.4219 23.8164C22.4219 23.0234 21.793 22.3945 21 22.3945C20.207 22.3945 19.5781 23.0234 19.5781 23.8164C19.5781 24.6094 20.207 25.2383 21 25.2383ZM16.9395 31.5C17.7324 31.5 18.3613 30.8711 18.3613 30.0781C18.3613 29.2988 17.7324 28.6699 16.9395 28.6699C16.1602 28.6699 15.5312 29.2988 15.5312 30.0781C15.5312 30.8711 16.1602 31.5 16.9395 31.5ZM9.58398 33.5098C10.377 33.5098 11.0059 32.8809 11.0059 32.0879C11.0059 31.2949 10.377 30.666 9.58398 30.666C8.80469 30.666 8.17578 31.2949 8.17578 32.0879C8.17578 32.8809 8.80469 33.5098 9.58398 33.5098ZM3.34961 29.627C4.14258 29.627 4.77148 28.998 4.77148 28.2188C4.77148 27.4258 4.14258 26.7969 3.34961 26.7969C2.55664 26.7969 1.92773 27.4258 1.92773 28.2188C1.92773 28.998 2.55664 29.627 3.34961 29.627ZM1.42188 22.2578C2.21484 22.2578 2.84375 21.6289 2.84375 20.8359C2.84375 20.043 2.21484 19.4141 1.42188 19.4141C0.628906 19.4141 0 20.043 0 20.8359C0 21.6289 0.628906 22.2578 1.42188 22.2578ZM5.50977 15.7227C6.30273 15.7227 6.93164 15.0938 6.93164 14.3008C6.93164 13.5078 6.30273 12.8789 5.50977 12.8789C4.7168 12.8789 4.08789 13.5078 4.08789 14.3008C4.08789 15.0938 4.7168 15.7227 5.50977 15.7227ZM11.6758 11.457C12.4688 11.457 13.0977 10.8281 13.0977 10.0352C13.0977 9.24219 12.4688 8.61328 11.6758 8.61328C10.8828 8.61328 10.2539 9.24219 10.2539 10.0352C10.2539 10.8281 10.8828 11.457 11.6758 11.457Z" fill="white" fill-opacity="0.25"/>
  <path d="M11.0605 28.3145C14.3418 28.3145 16.9941 25.6484 16.9941 22.3535C16.9941 19.0996 14.3281 16.4473 11.0605 16.4473C7.7793 16.4473 5.12695 19.0996 5.12695 22.3535C5.12695 25.6484 7.7793 28.3145 11.0605 28.3145ZM21.6562 18.5664C25.416 18.5664 28.4922 15.4766 28.4922 11.7031C28.4922 7.95703 25.416 4.89453 21.6562 4.89453C17.9102 4.89453 14.8203 7.95703 14.8203 11.7031C14.8203 15.4766 17.9102 18.5664 21.6562 18.5664Z" fill="#5ac8f5"/>
  <path d="M11.0605 26.0312C9.03711 26.0312 7.39648 24.3906 7.39648 22.3535C7.39648 20.3574 9.05078 18.7168 11.0605 18.7168C13.0703 18.7168 14.7246 20.3574 14.7246 22.3535C14.7246 24.3906 13.084 26.0312 11.0605 26.0312ZM21.6562 16.2969C19.168 16.2969 17.0898 14.2188 17.0898 11.7031C17.0898 9.21484 19.1543 7.16406 21.6562 7.16406C24.1719 7.16406 26.209 9.21484 26.209 11.7031C26.209 14.2188 24.1582 16.2969 21.6562 16.2969Z" fill="white" fill-opacity="0.65"/>
 </g>
</svg>
