<?xml version="1.0" encoding="UTF-8"?>
<!--Generator: Apple Native CoreSVG 326-->
<!DOCTYPE svg
PUBLIC "-//W3C//DTD SVG 1.1//EN"
       "http://www.w3.org/Graphics/SVG/1.1/DTD/svg11.dtd">
<svg version="1.1" xmlns="http://www.w3.org/2000/svg" xmlns:xlink="http://www.w3.org/1999/xlink" viewBox="0 0 28.2734 25.0605">
 <g>
  <rect height="25.0605" opacity="0" width="28.2734" x="0" y="0"/>
  <path d="M1.28516 25.0605L7.875 25.0605C9.05078 25.0605 10.0352 24.418 10.5 23.3516L19.4688 3.13086C19.6875 2.67969 20.0293 2.47461 20.5762 2.47461L26.6328 2.47461C27.3438 2.47461 27.918 1.91406 27.918 1.23047C27.918 0.546875 27.3438 0 26.6328 0L19.9609 0C18.7031 0 17.8691 0.533203 17.3633 1.68164L8.35352 21.916C8.14844 22.3672 7.79297 22.5859 7.30078 22.5859L1.28516 22.5859C0.560547 22.5859 0 23.1328 0 23.8301C0 24.5273 0.560547 25.0605 1.28516 25.0605ZM17.7871 25.0605L26.6328 25.0605C27.3574 25.0605 27.9043 24.541 27.9043 23.8438C27.9043 23.1465 27.3574 22.6133 26.6328 22.6133L17.7871 22.6133C17.0625 22.6133 16.502 23.1465 16.502 23.8438C16.502 24.541 17.0625 25.0605 17.7871 25.0605Z" fill="white" fill-opacity="0.85"/>
 </g>
</svg>
