<svg version="1.1" xmlns="http://www.w3.org/2000/svg" xmlns:xlink="http://www.w3.org/1999/xlink" viewBox="0 0 28.1549 27.7994">
 <g>
  
  <path d="M21.7405 21.7405C27.0316 16.4222 28.8909 8.91633 27.1683 3.11945C26.6898 1.5882 26.2112 1.09601 24.6663 0.63117C18.8831-1.10516 11.3636 0.754217 6.04523 6.04523C0.754217 11.3636-1.10516 18.8831 0.63117 24.6663C1.09601 26.1976 1.5882 26.6898 3.11945 27.1546C8.91633 28.8909 16.4222 27.0316 21.7405 21.7405ZM20.1273 20.1273C15.5335 24.7484 9.50422 26.4847 3.88508 24.9945C3.14679 24.803 2.98273 24.639 2.77765 23.8597C1.32844 18.2679 3.03742 12.2523 7.65851 7.65851C12.2659 3.03742 18.2679 1.31476 23.8597 2.76398C24.639 2.98273 24.803 3.14679 24.9945 3.88508C26.4984 9.49054 24.7484 15.5335 20.1273 20.1273ZM16.1761 1.12336L14.4398 2.85969L24.9534 13.387L26.7034 11.637ZM1.13703 16.1761L11.637 26.7034L13.387 24.9534L2.87336 14.4398ZM8.46515 16.5999L11.1995 19.3206C11.432 19.5667 11.8011 19.5667 12.0472 19.3206C12.2796 19.0882 12.2796 18.7054 12.0472 18.4593L9.32648 15.7386C9.09406 15.5062 8.69758 15.5062 8.46515 15.7386C8.23273 15.9847 8.23273 16.3538 8.46515 16.5999ZM10.2972 14.7542L13.0316 17.4886C13.264 17.721 13.6468 17.721 13.8792 17.4886C14.1116 17.2562 14.1116 16.8597 13.8792 16.6273L11.1585 13.9066C10.9261 13.6741 10.5296 13.6741 10.2972 13.9066C10.0648 14.139 10.0648 14.5218 10.2972 14.7542ZM12.1292 12.9222L14.8636 15.6566C15.096 15.889 15.4788 15.889 15.7112 15.6566C15.9437 15.4105 15.9437 15.0277 15.7112 14.8089L12.9769 12.0745C12.7581 11.8421 12.3616 11.8421 12.1292 12.0745C11.8968 12.307 11.8968 12.6898 12.1292 12.9222ZM13.9612 11.1038L16.682 13.8245C16.928 14.057 17.3109 14.057 17.5433 13.8245C17.7894 13.5784 17.7894 13.2093 17.5433 12.9769L14.8226 10.2425C14.5765 10.0101 14.2073 10.0101 13.9612 10.2425C13.7288 10.4749 13.7288 10.8714 13.9612 11.1038ZM15.807 9.27179L18.514 11.9788C18.7601 12.2249 19.1429 12.2249 19.3753 11.9788C19.6214 11.7464 19.6214 11.3773 19.3753 11.1312L16.6546 8.39679C16.4085 8.16437 16.0394 8.16437 15.807 8.39679C15.5609 8.64289 15.5609 9.0257 15.807 9.27179ZM10.5023 18.1312L18.1448 10.5023L17.2972 9.65461L9.65461 17.2972Z" style="fill:var(--color-0,hsl(0 0 0/0.85))"></path>
 </g>
</svg>