<svg version="1.1" xmlns="http://www.w3.org/2000/svg" xmlns:xlink="http://www.w3.org/1999/xlink" viewBox="0 0 28.2461 27.9043">
 <g>
  
  <path d="M13.9453 27.8906C21.6426 27.8906 27.8906 21.6289 27.8906 13.9453C27.8906 6.24805 21.6426 0 13.9453 0C6.26172 0 0 6.24805 0 13.9453C0 21.6289 6.26172 27.8906 13.9453 27.8906Z" style="fill:var(--color-0,hsl(0 0 0/0.85))"></path>
  <path d="M9.87109 9.85742C12.3867 7.32812 16.4336 6.04297 19.6055 6.98633C20.4258 7.23242 20.6582 7.47852 20.8906 8.28516C21.8477 11.457 20.5762 15.5176 18.0469 18.0332C15.5312 20.5762 11.4707 21.834 8.29883 20.877C7.49219 20.6445 7.24609 20.4121 7 19.5918C6.05664 16.4199 7.3418 12.373 9.87109 9.85742ZM15.4629 10.9512C15.3262 10.8145 15.1211 10.8281 14.9707 10.9512C14.8477 11.0879 14.834 11.3066 14.9707 11.4434L15.4766 11.9492L14.957 12.4414L14.4512 11.9492C14.3281 11.8125 14.123 11.8125 13.9727 11.9492C13.8496 12.0859 13.8496 12.3184 13.9727 12.4277L14.4922 12.9336L13.9727 13.4531L13.4668 12.9473C13.3301 12.8242 13.1113 12.7969 13.002 12.9473C12.8516 13.0703 12.8652 13.2891 13.002 13.4121L13.4805 13.918L12.9883 14.4375L12.4824 13.918C12.3594 13.7949 12.127 13.7949 11.9902 13.9316C11.8535 14.0684 11.8398 14.3008 11.9902 14.4238L12.4961 14.916L11.9902 15.4219L11.4844 14.9297C11.334 14.8066 11.1426 14.8066 10.9922 14.9297C10.8691 15.0664 10.8555 15.2988 10.9922 15.4082L12.4824 16.8848C12.6191 17.0352 12.8242 17.0352 12.9746 16.8984C13.0977 16.7617 13.0977 16.5566 12.9746 16.4062L12.4824 15.9004L12.9883 15.4082L13.4668 15.8867C13.6172 16.0371 13.8359 16.0371 13.959 15.9004C14.1094 15.7637 14.0957 15.5449 13.959 15.4082L13.4531 14.916L13.9727 14.4238L14.4785 14.9023C14.6016 15.0254 14.834 15.0527 14.9434 14.9023C15.1074 14.793 15.0664 14.5605 14.9434 14.4238L14.4512 13.918L14.957 13.4121L15.4629 13.9043C15.6133 14.0137 15.8184 14.041 15.9414 13.918C16.0918 13.7676 16.0781 13.5625 15.9414 13.4395L15.4492 12.9336L15.9551 12.4277L16.4473 12.9199C16.5977 13.043 16.8164 13.043 16.9395 12.9336C17.0762 12.7695 17.0898 12.5508 16.9395 12.4277Z" style="fill:var(--color-1,white)"></path>
 </g>
</svg>