<?xml version="1.0" encoding="UTF-8"?>
<!--Generator: Apple Native CoreSVG 326-->
<!DOCTYPE svg
PUBLIC "-//W3C//DTD SVG 1.1//EN"
       "http://www.w3.org/Graphics/SVG/1.1/DTD/svg11.dtd">
<svg version="1.1" xmlns="http://www.w3.org/2000/svg" xmlns:xlink="http://www.w3.org/1999/xlink" viewBox="0 0 28.2461 27.9043">
 <g>
  <rect height="27.9043" opacity="0" width="28.2461" x="0" y="0"/>
  <path d="M13.9453 27.8906C21.6426 27.8906 27.8906 21.6426 27.8906 13.9453C27.8906 6.24805 21.6426 0 13.9453 0C6.24805 0 0 6.24805 0 13.9453C0 21.6426 6.24805 27.8906 13.9453 27.8906ZM13.9453 25.5664C7.51953 25.5664 2.32422 20.3711 2.32422 13.9453C2.32422 7.51953 7.51953 2.32422 13.9453 2.32422C20.3711 2.32422 25.5664 7.51953 25.5664 13.9453C25.5664 20.3711 20.3711 25.5664 13.9453 25.5664Z" fill="white" fill-opacity="0.85"/>
  <path d="M9.9668 9.98047C7.51953 12.4277 6.27539 16.3379 7.19141 19.4277C7.42383 20.2207 7.66992 20.4395 8.43555 20.6719C11.5254 21.5879 15.4629 20.3711 17.9102 17.9102C20.3574 15.4629 21.5879 11.5391 20.6582 8.44922C20.4395 7.66992 20.207 7.4375 19.4141 7.20508C16.3379 6.28906 12.4141 7.5332 9.9668 9.98047ZM15.3945 11.0332L16.8438 12.4688C16.9668 12.5918 16.9531 12.8105 16.8438 12.9609C16.707 13.0703 16.4883 13.0703 16.3652 12.9473L15.8867 12.4688L15.3809 12.9609L15.8594 13.4531C15.9824 13.5762 15.9961 13.7676 15.8594 13.918C15.7363 14.041 15.5312 14.0137 15.4082 13.9043L14.9023 13.4258L14.4102 13.918L14.9023 14.4102C15.0117 14.5469 15.0391 14.7656 14.9023 14.875C14.7793 15.0254 14.5605 14.998 14.4512 14.875L13.959 14.4102L13.4395 14.8887L13.9316 15.3672C14.0684 15.5039 14.082 15.709 13.9316 15.8457C13.8086 15.9688 13.6035 15.9688 13.4668 15.832L12.9883 15.3672L12.4961 15.8457L12.9746 16.3379C13.0977 16.4746 13.0977 16.6797 12.9746 16.8164C12.8379 16.9395 12.6328 16.9395 12.5098 16.8027L11.0605 15.3672C10.9238 15.2578 10.9375 15.0391 11.0605 14.9023C11.1973 14.7793 11.4023 14.7793 11.5391 14.9023L12.0176 15.3809L12.5098 14.8887L12.0312 14.4102C11.8809 14.2871 11.8945 14.0684 12.0312 13.9316C12.168 13.7949 12.373 13.7949 12.5098 13.918L12.9883 14.4238L13.4805 13.918L13.002 13.4258C12.8652 13.3027 12.8516 13.0977 13.002 12.9746C13.1113 12.8379 13.3164 12.8516 13.4531 12.9746L13.9453 13.4668L14.4512 12.9609L13.959 12.4688C13.8223 12.3594 13.8223 12.1406 13.959 12.0039C14.1094 11.8809 14.2871 11.8809 14.4238 12.0039L14.9023 12.4824L15.4219 12.0039L14.916 11.5117C14.793 11.3887 14.8066 11.1699 14.916 11.0332C15.0664 10.9238 15.2578 10.9102 15.3945 11.0332Z" fill="white" fill-opacity="0.85"/>
 </g>
</svg>
