<svg version="1.1" xmlns="http://www.w3.org/2000/svg" xmlns:xlink="http://www.w3.org/1999/xlink" viewBox="0 0 28.1549 27.7994">
 <g>
  
  <path d="M21.7405 21.7405C27.0316 16.4222 28.8909 8.91633 27.1683 3.11945C26.6898 1.5882 26.2112 1.09601 24.6663 0.63117C18.8831-1.10516 11.3636 0.754217 6.04523 6.04523C0.754217 11.3636-1.10516 18.8831 0.63117 24.6663C1.09601 26.1976 1.5882 26.6898 3.11945 27.1546C8.91633 28.8909 16.4222 27.0316 21.7405 21.7405ZM20.1273 20.1273C15.5335 24.7484 9.50422 26.4847 3.88508 24.9945C3.14679 24.803 2.98273 24.639 2.77765 23.8597C1.32844 18.2679 3.03742 12.2523 7.65851 7.65851C12.2659 3.03742 18.2679 1.31476 23.8597 2.76398C24.639 2.98273 24.803 3.14679 24.9945 3.88508C26.4984 9.49054 24.7484 15.5335 20.1273 20.1273ZM8.04133 16.8187L10.9808 19.7445C11.2405 19.9905 11.637 19.9905 11.9105 19.7445C12.1566 19.4847 12.1566 19.0609 11.9105 18.8011L8.98469 15.8753C8.72492 15.6292 8.30109 15.6292 8.04133 15.8753C7.79523 16.1487 7.79523 16.5452 8.04133 16.8187ZM10.0237 14.8226L12.9632 17.762C13.2093 18.0218 13.6331 18.0218 13.8792 17.762C14.139 17.5159 14.139 17.0784 13.8792 16.8323L10.9534 13.9066C10.7073 13.6468 10.2698 13.6468 10.0237 13.9066C9.76398 14.1527 9.76398 14.5765 10.0237 14.8226ZM11.9925 12.8538L14.932 15.7933C15.178 16.053 15.6019 16.053 15.848 15.7933C16.1077 15.5335 16.1077 15.1097 15.848 14.8773L12.9085 11.9378C12.6761 11.678 12.2386 11.678 11.9925 11.9378C11.7327 12.1839 11.7327 12.6077 11.9925 12.8538ZM13.9612 10.8987L16.887 13.8245C17.1468 14.0706 17.5706 14.0706 17.8167 13.8245C18.0765 13.5511 18.0765 13.1546 17.8167 12.9085L14.8909 9.96906C14.6312 9.70929 14.2347 9.70929 13.9612 9.96906C13.7152 10.2152 13.7152 10.6527 13.9612 10.8987ZM15.9437 8.93L18.8558 11.8421C19.1292 12.1019 19.5394 12.1019 19.7991 11.8421C20.0589 11.5823 20.0589 11.1859 19.7991 10.9124L16.8734 7.97297C16.5999 7.74054 16.2034 7.74054 15.9437 7.97297C15.6839 8.2464 15.6839 8.65656 15.9437 8.93ZM10.2425 18.473L18.473 10.2425L17.557 9.32648L9.31281 17.557Z" style="fill:var(--color-0,hsl(0 0 0/0.85))"></path>
 </g>
</svg>