<?xml version="1.0" encoding="UTF-8"?>
<!--Generator: Apple Native CoreSVG 326-->
<!DOCTYPE svg
PUBLIC "-//W3C//DTD SVG 1.1//EN"
       "http://www.w3.org/Graphics/SVG/1.1/DTD/svg11.dtd">
<svg version="1.1" xmlns="http://www.w3.org/2000/svg" xmlns:xlink="http://www.w3.org/1999/xlink" viewBox="0 0 30.9121 23.0098">
 <g>
  <rect height="23.0098" opacity="0" width="30.9121" x="0" y="0"/>
  <path d="M0 21.916C0 22.5176 0.505859 23.0098 1.09375 23.0098L29.4492 23.0098C30.0508 23.0098 30.5566 22.5176 30.5566 21.916C30.5566 21.3145 30.0508 20.8086 29.4492 20.8086L3.75977 20.8086L22.5996 1.96875C23.0234 1.54492 23.0234 0.833984 22.5996 0.410156C22.1758-0.0136719 21.4785-0.0136719 21.041 0.410156L0.314453 21.1367C0.136719 21.3281 0 21.6152 0 21.916ZM15.9414 21.875L18.1426 21.875C18.1426 17.1992 16.2422 12.9609 13.1797 9.88477L11.6074 11.4297C14.2871 14.1094 15.9414 17.8008 15.9414 21.875Z" fill="white" fill-opacity="0.85"/>
 </g>
</svg>
