<?xml version="1.0" encoding="UTF-8"?>
<!--Generator: Apple Native CoreSVG 326-->
<!DOCTYPE svg
PUBLIC "-//W3C//DTD SVG 1.1//EN"
       "http://www.w3.org/Graphics/SVG/1.1/DTD/svg11.dtd">
<svg version="1.1" xmlns="http://www.w3.org/2000/svg" xmlns:xlink="http://www.w3.org/1999/xlink" viewBox="0 0 28.2461 27.9043">
 <g>
  <rect height="27.9043" opacity="0" width="28.2461" x="0" y="0"/>
  <path d="M13.9453 27.9043C21.6426 27.9043 27.8906 21.6562 27.8906 13.959C27.8906 6.27539 21.6426 0.0136719 13.9453 0.0136719C6.26172 0.0136719 0 6.27539 0 13.959C0 21.6562 6.26172 27.9043 13.9453 27.9043Z" fill="white" fill-opacity="0.85"/>
  <path d="M7.57422 17.7324C7.42383 16.8301 7.79297 16.3242 8.79102 16.0781L12.127 15.3125C11.8672 15.1758 11.5801 14.875 11.457 14.4375L9.25586 14.123C8.28516 13.9863 7.84766 13.4531 7.84766 12.4961L7.84766 9.84375C7.84766 9.44727 8.08008 9.21484 8.47656 9.21484C8.8457 9.21484 9.07812 9.44727 9.07812 9.84375L9.07812 12.25C9.07812 12.7695 9.36523 12.9336 9.84375 13.002L11.4844 13.2344C11.5527 12.9746 11.7168 12.7559 11.8672 12.6191C10.6094 12.373 9.9668 11.5938 9.9668 10.418C9.9668 9.47461 10.3086 8.57227 10.8965 7.875L10.8555 7.83398C10.1035 7.30078 9.98047 6.49414 10.459 5.61914L10.8828 4.89453C11.0332 4.60742 11.2246 4.49805 11.4844 4.49805C11.8262 4.49805 12.0586 4.74414 12.0586 5.05859C12.0586 5.19531 12.0449 5.30469 11.9492 5.44141L11.5801 6.04297C11.3613 6.39844 11.2793 6.71289 11.5391 6.93164L11.7305 7.08203C12.3867 6.6582 13.2207 6.41211 13.959 6.41211C14.6836 6.41211 15.5176 6.6582 16.1738 7.08203L16.3652 6.93164C16.6387 6.71289 16.5566 6.39844 16.3379 6.04297L15.9551 5.44141C15.873 5.30469 15.8457 5.19531 15.8457 5.05859C15.8457 4.73047 16.0918 4.49805 16.4199 4.49805C16.6934 4.49805 16.8574 4.62109 17.0215 4.89453L17.4453 5.61914C17.9512 6.48047 17.8008 7.30078 17.0488 7.83398L17.0078 7.875C17.5957 8.57227 17.9375 9.47461 17.9375 10.418C17.9375 11.5938 17.3086 12.3867 16.0508 12.6191C16.2012 12.7559 16.3516 12.9883 16.4199 13.2344L18.0605 13.002C18.5391 12.9199 18.8262 12.7695 18.8262 12.25L18.8262 9.84375C18.8262 9.44727 19.0586 9.21484 19.4277 9.21484C19.8379 9.21484 20.0703 9.44727 20.0703 9.84375L20.0703 12.4961C20.0703 13.4531 19.6191 13.9863 18.6621 14.123L16.4609 14.4375C16.3242 14.875 16.0371 15.1895 15.791 15.3125L19.127 16.0781C20.1113 16.3379 20.4941 16.8301 20.3438 17.7324L19.7148 21.7109C19.6602 22.1074 19.4688 22.3672 19.0859 22.3672C18.6895 22.3672 18.4023 22.0664 18.4707 21.6152L19.0312 17.9648C19.0996 17.5273 18.9629 17.3223 18.457 17.1855C18.2656 17.1309 18.0742 17.0898 17.8965 17.0352C17.9922 17.2949 18.0332 17.6094 18.0332 17.9648C18.0332 20.4668 16.1465 22.8047 13.959 22.8047C11.7578 22.8047 9.88477 20.4668 9.88477 17.9648C9.88477 17.6094 9.92578 17.2949 10.0215 17.0352C9.83008 17.0898 9.63867 17.1309 9.46094 17.1855C8.95508 17.3223 8.80469 17.5273 8.88672 17.9648L9.43359 21.6152C9.50195 22.0664 9.21484 22.3672 8.83203 22.3672C8.44922 22.3672 8.25781 22.1074 8.18945 21.7109Z" fill="white"/>
 </g>
</svg>
