<svg version="1.1" xmlns="http://www.w3.org/2000/svg" xmlns:xlink="http://www.w3.org/1999/xlink" viewBox="0 0 28.2461 27.9043">
 <g>
  
  <path d="M13.9453 27.8906C21.6426 27.8906 27.8906 21.6426 27.8906 13.9453C27.8906 6.24805 21.6426 0 13.9453 0C6.24805 0 0 6.24805 0 13.9453C0 21.6426 6.24805 27.8906 13.9453 27.8906ZM13.9453 25.5664C7.51953 25.5664 2.32422 20.3711 2.32422 13.9453C2.32422 7.51953 7.51953 2.32422 13.9453 2.32422C20.3711 2.32422 25.5664 7.51953 25.5664 13.9453C25.5664 20.3711 20.3711 25.5664 13.9453 25.5664Z" style="fill:var(--color-0,hsl(0 0 0/0.85))"></path>
  <path d="M7.76562 17.6094L8.35352 21.4512C8.42188 21.8477 8.61328 22.0801 8.98242 22.0801C9.35156 22.0801 9.625 21.8066 9.55664 21.3555L9.02344 17.8145C8.95508 17.3906 9.0918 17.2129 9.58398 17.0762C9.76172 17.0215 9.93945 16.9805 10.1309 16.9258C10.0352 17.1855 9.99414 17.4727 9.99414 17.8281C9.99414 20.248 11.8262 22.5312 13.9453 22.5312C16.0645 22.5312 17.8965 20.248 17.8965 17.8281C17.8965 17.4727 17.8555 17.1855 17.7598 16.9258C17.9375 16.9805 18.1152 17.0215 18.3066 17.0762C18.7988 17.2129 18.9219 17.3906 18.8672 17.8145L18.3203 21.3555C18.252 21.8066 18.5254 22.0801 18.9082 22.0801C19.2773 22.0801 19.4688 21.8477 19.5234 21.4512L20.125 17.6094C20.2754 16.7344 19.9062 16.2559 18.9492 16.0098L15.7227 15.2441C15.9551 15.1484 16.2422 14.834 16.3652 14.4102L18.498 14.1094C19.4277 13.9727 19.8652 13.4531 19.8652 12.5234L19.8652 9.95312C19.8652 9.58398 19.6465 9.35156 19.25 9.35156C18.8809 9.35156 18.6621 9.58398 18.6621 9.95312L18.6621 12.291C18.6621 12.7969 18.3887 12.9473 17.9238 13.0156L16.3379 13.248C16.2695 13.002 16.1191 12.7832 15.9688 12.6602C17.1855 12.4141 17.8008 11.6621 17.8008 10.5137C17.8008 9.58398 17.4727 8.72266 16.8984 8.05273L16.9395 8.01172C17.6641 7.49219 17.8145 6.69922 17.3223 5.86523L16.8984 5.1543C16.748 4.89453 16.584 4.77148 16.3242 4.77148C16.0098 4.77148 15.7637 5.00391 15.7637 5.31836C15.7637 5.45508 15.791 5.55078 15.873 5.6875L16.2559 6.26172C16.4609 6.61719 16.543 6.91797 16.2695 7.13672L16.0918 7.28711C15.4492 6.87695 14.6426 6.63086 13.9453 6.63086C13.2344 6.63086 12.4277 6.87695 11.7852 7.28711L11.6074 7.13672C11.3477 6.91797 11.4297 6.61719 11.6348 6.26172L12.0039 5.6875C12.0996 5.55078 12.1133 5.45508 12.1133 5.31836C12.1133 5.00391 11.8809 4.77148 11.5527 4.77148C11.3066 4.77148 11.1152 4.88086 10.9785 5.1543L10.5547 5.86523C10.0898 6.71289 10.2129 7.49219 10.9512 8.01172L10.9785 8.05273C10.4043 8.72266 10.0762 9.58398 10.0762 10.5137C10.0762 11.6484 10.7051 12.4141 11.9219 12.6465C11.7715 12.7695 11.6074 13.002 11.5527 13.248L9.95312 13.0156C9.50195 12.9609 9.21484 12.7969 9.21484 12.291L9.21484 9.95312C9.21484 9.58398 9.00977 9.35156 8.62695 9.35156C8.24414 9.35156 8.02539 9.58398 8.02539 9.95312L8.02539 12.5234C8.02539 13.4531 8.44922 13.9727 9.39258 14.1094L11.5254 14.4102C11.6348 14.834 11.9219 15.1348 12.168 15.2441L8.94141 16.0098C7.98438 16.2422 7.61523 16.7344 7.76562 17.6094Z" style="fill:var(--color-1,hsl(0 0 0/0.85))"></path>
 </g>
</svg>