<svg version="1.1" xmlns="http://www.w3.org/2000/svg" xmlns:xlink="http://www.w3.org/1999/xlink" viewBox="0 0 30.3345 35.5503">
 <g>
  
  <path d="M16.0422 19.2913L16.0422 29.198C16.0422 29.9089 15.6458 30.3738 14.9895 30.3738C14.3743 30.3738 13.9504 29.8953 13.9504 29.198L13.9504 17.2007ZM4.78135 8.03672C3.44336 9.91296 2.71217 12.2099 2.71217 14.6921C2.71217 17.6316 3.73756 20.3113 5.56959 22.3484C6.06178 22.9089 6.19849 23.5515 5.76099 24.0437C5.32349 24.5496 4.55787 24.5496 4.02467 23.9754C1.75514 21.5144 0.483651 18.2332 0.483651 14.6921C0.483651 11.6213 1.43992 8.74577 3.17696 6.43322ZM25.9544 5.40894C28.2239 7.86988 29.509 11.1511 29.509 14.6921C29.509 17.6585 28.6071 20.4426 26.97 22.7078L25.3715 21.1093C26.6088 19.2802 27.2805 17.0712 27.2805 14.6921C27.2805 11.7527 26.2551 9.07301 24.4231 7.0359C23.9172 6.47535 23.7942 5.83277 24.2317 5.34058C24.6692 4.83473 25.4348 4.83473 25.9544 5.40894ZM8.95012 12.2032C8.62626 12.9633 8.45435 13.8009 8.45435 14.6921C8.45435 16.114 8.86451 17.4402 9.68482 18.4519C10.1087 19.0398 10.3001 19.655 9.86256 20.1472C9.41139 20.6668 8.59107 20.6804 8.11256 20.0515C6.9231 18.575 6.22584 16.7019 6.22584 14.6921C6.22584 13.2004 6.61 11.7839 7.29595 10.5499ZM21.8801 9.33277C23.0696 10.8093 23.7532 12.6824 23.7532 14.6921C23.7532 16.0785 23.4279 17.3997 22.8292 18.567L21.1551 16.8929C21.403 16.2129 21.5247 15.4667 21.5247 14.6921C21.5247 13.2703 21.0872 11.9851 20.2942 10.9324C19.8704 10.3308 19.679 9.72926 20.1165 9.23707C20.5813 8.71754 21.3879 8.70387 21.8801 9.33277Z" style="fill:var(--color-0,#28cd41)"></path>
  <path d="M26.9387 27.9265C27.3489 28.3367 28.0325 28.3367 28.429 27.9265C28.8391 27.5027 28.8391 26.8464 28.429 26.4363L3.91529 1.90894C3.50514 1.49879 2.82154 1.49879 2.41139 1.90894C2.00123 2.30543 2.00123 3.00269 2.41139 3.39918Z" style="fill:var(--color-1,#28cd41)"></path>
 </g>
</svg>