<?xml version="1.0" encoding="UTF-8"?>
<!--Generator: Apple Native CoreSVG 326-->
<!DOCTYPE svg
PUBLIC "-//W3C//DTD SVG 1.1//EN"
       "http://www.w3.org/Graphics/SVG/1.1/DTD/svg11.dtd">
<svg version="1.1" xmlns="http://www.w3.org/2000/svg" xmlns:xlink="http://www.w3.org/1999/xlink" viewBox="0 0 29.3809 25.6117">
 <g>
  <rect height="25.6117" opacity="0" width="29.3809" x="0" y="0"/>
  <path d="M0 9.72282C0 13.2638 1.28516 16.5451 3.55469 19.006C4.07422 19.5802 4.83984 19.5802 5.27734 19.0744C5.71484 18.5822 5.57812 17.9396 5.08594 17.3791C3.25391 15.342 2.22852 12.6623 2.22852 9.72282C2.22852 6.78336 3.25391 4.10368 5.08594 2.06657C5.57812 1.50602 5.71484 0.863443 5.27734 0.371255C4.83984-0.134604 4.07422-0.134604 3.55469 0.439615C1.28516 2.90055 0 6.1818 0 9.72282ZM23.748 19.0744C24.1855 19.5802 24.9512 19.5802 25.4707 19.006C27.7402 16.5451 29.0254 13.2638 29.0254 9.72282C29.0254 6.1818 27.7402 2.90055 25.4707 0.439615C24.9512-0.134604 24.1855-0.134604 23.748 0.371255C23.3105 0.863443 23.4473 1.50602 23.9395 2.06657C25.7715 4.10368 26.7969 6.78336 26.7969 9.72282C26.7969 12.6623 25.7715 15.342 23.9395 17.3791C23.4473 17.9396 23.3105 18.5822 23.748 19.0744Z" fill="#32d74b"/>
  <path d="M5.75586 9.72282C5.75586 11.7326 6.43945 13.6056 7.62891 15.0822C8.10742 15.7111 8.92773 15.6974 9.37891 15.1779C9.81641 14.6857 9.63867 14.0705 9.20117 13.4826C8.38086 12.4709 7.98438 11.1447 7.98438 9.72282C7.98438 8.30094 8.42188 7.01579 9.20117 5.96305C9.625 5.36149 9.81641 4.75993 9.37891 4.26774C8.92773 3.74821 8.10742 3.73454 7.62891 4.36344C6.43945 5.84001 5.75586 7.71305 5.75586 9.72282ZM19.6465 15.1779C20.0977 15.6974 20.918 15.7111 21.3965 15.0822C22.5859 13.6056 23.2695 11.7326 23.2695 9.72282C23.2695 7.71305 22.5859 5.84001 21.3965 4.36344C20.918 3.73454 20.0977 3.74821 19.6465 4.26774C19.209 4.75993 19.4004 5.36149 19.8242 5.96305C20.6035 7.01579 21.041 8.30094 21.041 9.72282C21.041 11.1447 20.6445 12.4709 19.8242 13.4826C19.3867 14.0705 19.209 14.6857 19.6465 15.1779Z" fill="#32d74b"/>
  <path d="M12.0586 9.72282C12.0586 10.7072 12.6191 11.5548 13.4668 11.9377L13.4668 24.2287C13.4668 24.9259 13.8906 25.4045 14.5195 25.4045C15.1621 25.4045 15.5586 24.9396 15.5586 24.2287L15.5586 11.9377C16.3926 11.5548 16.9668 10.6935 16.9668 9.72282C16.9668 8.35563 15.8867 7.24821 14.5195 7.24821C13.1387 7.24821 12.0586 8.35563 12.0586 9.72282Z" fill="#32d74b"/>
 </g>
</svg>
