<?xml version="1.0" encoding="UTF-8"?>
<!--Generator: Apple Native CoreSVG 326-->
<!DOCTYPE svg
PUBLIC "-//W3C//DTD SVG 1.1//EN"
       "http://www.w3.org/Graphics/SVG/1.1/DTD/svg11.dtd">
<svg version="1.1" xmlns="http://www.w3.org/2000/svg" xmlns:xlink="http://www.w3.org/1999/xlink" viewBox="0 0 28.2461 27.9043">
 <g>
  <rect height="27.9043" opacity="0" width="28.2461" x="0" y="0"/>
  <path d="M13.9453 27.9043C21.6426 27.9043 27.8906 21.6562 27.8906 13.959C27.8906 6.27539 21.6426 0.0136719 13.9453 0.0136719C6.26172 0.0136719 0 6.27539 0 13.959C0 21.6562 6.26172 27.9043 13.9453 27.9043Z" fill="#32d74b"/>
  <path d="M5.08594 13.4941C5.08594 11.375 5.86523 9.36523 7.27344 7.83398C7.62891 7.41016 8.18945 7.39648 8.53125 7.79297C8.83203 8.12109 8.79102 8.61328 8.43555 9.03711C7.3418 10.2129 6.74023 11.7988 6.74023 13.4941C6.74023 15.2305 7.3418 16.7891 8.43555 17.9922C8.79102 18.4297 8.83203 18.8945 8.51758 19.2363C8.18945 19.6191 7.62891 19.5918 7.27344 19.1953C5.85156 17.6504 5.08594 15.6543 5.08594 13.4941ZM21.1641 13.4941C21.1641 11.7988 20.5625 10.2129 19.4688 9.03711C19.0996 8.61328 19.0586 8.12109 19.3594 7.79297C19.7012 7.39648 20.2617 7.41016 20.6172 7.83398C22.0254 9.36523 22.8184 11.375 22.8184 13.4941C22.8184 15.6543 22.0391 17.6504 20.6172 19.1953C20.2617 19.5918 19.7012 19.6191 19.373 19.2363C19.0586 18.8945 19.0996 18.4297 19.4688 17.9922C20.5625 16.7891 21.1641 15.2305 21.1641 13.4941Z" fill="white"/>
  <path d="M8.53125 13.4941C8.53125 12.291 8.95508 11.1289 9.69336 10.1992C10.0215 9.76172 10.6367 9.73438 10.9922 10.1309C11.2656 10.459 11.2383 10.8828 10.8965 11.3477C10.4453 11.9629 10.1855 12.7148 10.1855 13.4941C10.1855 14.3418 10.4316 15.0801 10.8828 15.668C11.2383 16.1465 11.2793 16.5566 10.9922 16.8984C10.6504 17.2812 10.0215 17.2676 9.69336 16.8301C8.95508 15.9004 8.53125 14.7246 8.53125 13.4941ZM17.7051 13.4941C17.7051 12.7148 17.4453 11.9629 17.0078 11.3477C16.666 10.8828 16.625 10.459 16.8984 10.1309C17.2539 9.73438 17.8691 9.76172 18.1973 10.1992C18.9355 11.1289 19.3594 12.291 19.3594 13.4941C19.3594 14.7246 18.9355 15.9004 18.1973 16.8301C17.8691 17.2676 17.2402 17.2812 16.8984 16.8984C16.6113 16.5566 16.6523 16.1465 17.0078 15.668C17.459 15.0801 17.7051 14.3418 17.7051 13.4941Z" fill="white"/>
  <path d="M12.3047 13.4941C12.3047 12.5918 13.043 11.8672 13.9453 11.8672C14.8613 11.8672 15.5859 12.5918 15.5859 13.4941C15.5859 14.1094 15.2305 14.6426 14.7383 14.916L14.7383 22.2305C14.7383 22.75 14.4102 23.0918 13.9453 23.0918C13.4941 23.0918 13.166 22.7363 13.166 22.2305L13.166 14.9297C12.6602 14.6562 12.3047 14.123 12.3047 13.4941Z" fill="white"/>
 </g>
</svg>
