<?xml version="1.0" encoding="UTF-8"?>
<!--Generator: Apple Native CoreSVG 326-->
<!DOCTYPE svg
PUBLIC "-//W3C//DTD SVG 1.1//EN"
       "http://www.w3.org/Graphics/SVG/1.1/DTD/svg11.dtd">
<svg version="1.1" xmlns="http://www.w3.org/2000/svg" xmlns:xlink="http://www.w3.org/1999/xlink" viewBox="0 0 25.5664 25.2246">
 <g>
  <rect height="25.2246" opacity="0" width="25.5664" x="0" y="0"/>
  <path d="M0 12.1543L6.74023 12.1543C4.88086 11.334 3.60938 9.81641 3.60938 7.9707C3.60938 5.83789 5.18164 4.26562 7.28711 4.26562C9.11914 4.26562 10.7598 5.40039 11.7168 7.28711L11.7168 0L13.5078 0L13.5078 7.28711C14.4648 5.40039 16.1055 4.26562 17.9238 4.26562C20.043 4.26562 21.6016 5.83789 21.6016 7.9707C21.6016 9.81641 20.3301 11.334 18.4844 12.1543L25.2109 12.1543L25.2109 13.7949L14.916 13.7949C15.7637 15.5449 18.5664 18.1699 20.5898 18.3887C21.3555 18.457 21.7793 18.9219 21.7793 19.6465C21.7793 20.2891 21.2598 20.8906 20.4258 20.7812C18.1699 20.4531 14.5605 17.8008 13.6035 14.8066L13.5078 14.8066L13.5078 25.2109L11.7168 25.2109L11.7168 14.8066L11.6074 14.8066C10.6504 17.8008 7.04102 20.4531 4.79883 20.7812C3.96484 20.8906 3.44531 20.2891 3.44531 19.6465C3.44531 18.9219 3.86914 18.4707 4.62109 18.3887C6.64453 18.1426 9.44727 15.5449 10.2949 13.7949L0 13.7949ZM11.0059 11.9492L11.4434 11.9492L11.4434 11.5254C11.4434 8.76367 9.57031 6.35742 7.39648 6.35742C6.34375 6.35742 5.67383 7.05469 5.67383 8.13477C5.67383 9.98047 8.13477 11.9492 11.0059 11.9492ZM14.2051 11.9492C17.0898 11.9492 19.5371 9.98047 19.5371 8.13477C19.5371 7.05469 18.8672 6.35742 17.8145 6.35742C15.6543 6.35742 13.7676 8.76367 13.7676 11.5254L13.7676 11.9492ZM23.6113 1.61328C22.2168 0.21875 20.248 0 17.9102 0L7.25977 0C4.96289 0 2.99414 0.21875 1.59961 1.61328C0.205078 3.00781 0 4.96289 0 7.25977L0 17.9102C0 20.248 0.205078 22.2031 1.59961 23.5977C2.99414 24.9922 4.96289 25.2109 7.28711 25.2109L17.9102 25.2109C20.248 25.2109 22.2168 24.9922 23.6113 23.5977C25.0059 22.2031 25.2109 20.248 25.2109 17.9102L25.2109 7.28711C25.2109 4.94922 25.0059 3.00781 23.6113 1.61328Z" fill="white" fill-opacity="0.85"/>
 </g>
</svg>
