<svg version="1.1" xmlns="http://www.w3.org/2000/svg" xmlns:xlink="http://www.w3.org/1999/xlink" viewBox="0 0 25.5664 25.2246">
 <g>
  
  <path d="M0.792969 12.291L0.792969 13.8086L10.459 13.8086C9.65234 15.4629 7.02734 17.9238 5.12695 18.1289C4.42969 18.1973 4.0332 18.6348 4.0332 19.3047C4.0332 19.8926 4.51172 20.4531 5.27734 20.3438C7.39648 20.0156 10.7598 17.582 11.6758 14.752L11.7715 14.752L11.7715 24.541L13.4258 24.541L13.4258 14.752L13.5352 14.752C14.4375 17.582 17.8145 20.0156 19.9199 20.3438C20.6992 20.4531 21.1777 19.8926 21.1777 19.3047C21.1777 18.6348 20.7812 18.1973 20.0703 18.1289C18.1836 17.9238 15.5449 15.4629 14.752 13.8086L24.4043 13.8086L24.4043 12.291L18.0742 12.291C19.8105 11.5117 21.0137 10.1035 21.0137 8.38086C21.0137 6.37109 19.5508 4.9082 17.582 4.9082C15.873 4.9082 14.3281 5.98828 13.4258 7.75195L13.4258 1.28516L11.7715 1.28516L11.7715 7.75195C10.8691 5.98828 9.32422 4.9082 7.61523 4.9082C5.64648 4.9082 4.18359 6.37109 4.18359 8.38086C4.18359 10.1035 5.40039 11.5117 7.12305 12.291ZM11.1152 12.0586C8.42188 12.0586 6.11133 10.2129 6.11133 8.49023C6.11133 7.46484 6.74023 6.82227 7.72461 6.82227C9.74805 6.82227 11.5254 9.07812 11.5254 11.6758L11.5254 12.0586ZM14.082 12.0586L13.6719 12.0586L13.6719 11.6758C13.6719 9.07812 15.4492 6.82227 17.4727 6.82227C18.4707 6.82227 19.0859 7.46484 19.0859 8.49023C19.0859 10.2129 16.7891 12.0586 14.082 12.0586ZM23.6113 1.61328C22.2168 0.21875 20.248 0 17.9102 0L7.25977 0C4.96289 0 2.99414 0.21875 1.59961 1.61328C0.205078 3.00781 0 4.96289 0 7.25977L0 17.9102C0 20.248 0.205078 22.2031 1.59961 23.5977C2.99414 24.9922 4.96289 25.2109 7.28711 25.2109L17.9102 25.2109C20.248 25.2109 22.2168 24.9922 23.6113 23.5977C25.0059 22.2031 25.2109 20.248 25.2109 17.9102L25.2109 7.28711C25.2109 4.94922 25.0059 3.00781 23.6113 1.61328ZM23.0098 6.91797L23.0098 18.293C23.0098 19.7012 22.832 21.1641 21.998 21.9844C21.1777 22.8184 19.7012 23.0098 18.293 23.0098L6.91797 23.0098C5.50977 23.0098 4.0332 22.8184 3.19922 21.9844C2.37891 21.1641 2.20117 19.7012 2.20117 18.293L2.20117 6.95898C2.20117 5.50977 2.37891 4.04688 3.19922 3.21289C4.0332 2.39258 5.52344 2.20117 6.95898 2.20117L18.293 2.20117C19.7012 2.20117 21.1777 2.39258 21.998 3.22656C22.832 4.04688 23.0098 5.50977 23.0098 6.91797Z" style="fill:var(--color-0,hsl(0 0 0/0.85))"></path>
 </g>
</svg>