<svg version="1.1" xmlns="http://www.w3.org/2000/svg" xmlns:xlink="http://www.w3.org/1999/xlink" viewBox="0 0 23.3516 29.3262">
 <g>
  
  <path d="M8.03906 13.8359C6.31641 13.8359 4.92188 12.5234 4.92188 10.2676C4.92188 9.07812 5.30469 7.9707 6.09766 7.10938C6.89062 6.26172 8.02539 5.70117 8.94141 5.70117C9.33789 5.70117 9.55664 5.93359 9.55664 6.23438C9.55664 6.53516 9.39258 6.69922 8.87305 6.82227C8.25781 6.94531 7.72461 7.20508 7.28711 7.58789C6.79492 7.98438 6.4668 8.47656 6.35742 8.99609L6.64453 8.99609C7.08203 8.44922 7.69727 8.2168 8.44922 8.2168C9.93945 8.2168 10.9512 9.31055 10.9512 10.9648C10.9512 12.6602 9.76172 13.8359 8.03906 13.8359ZM15.1895 13.8223C13.4395 13.8223 12.0449 12.5098 12.0449 10.2539C12.0449 9.06445 12.4414 7.95703 13.248 7.0957C13.9863 6.28906 15.1758 5.6875 16.0918 5.6875C16.4883 5.6875 16.707 5.91992 16.707 6.2207C16.707 6.52148 16.5293 6.68555 16.0098 6.80859C15.3945 6.94531 14.8203 7.19141 14.3828 7.60156C13.9316 7.99805 13.6035 8.47656 13.4941 8.98242L13.7812 8.98242C14.2188 8.43555 14.834 8.20312 15.5859 8.20312C17.0762 8.20312 18.1016 9.29688 18.1016 10.9512C18.1016 12.6465 16.8984 13.8223 15.1895 13.8223ZM6.13867 19.168C5.61914 19.168 5.23633 18.7715 5.23633 18.2793C5.23633 17.8008 5.61914 17.4316 6.13867 17.4316L16.8984 17.4316C17.4043 17.4316 17.7734 17.8008 17.7734 18.2793C17.7734 18.7715 17.4043 19.168 16.8984 19.168ZM6.13867 23.4062C5.61914 23.4062 5.23633 23.0371 5.23633 22.5586C5.23633 22.0527 5.61914 21.6562 6.13867 21.6562L11.2109 21.6562C11.7305 21.6562 12.0996 22.0527 12.0996 22.5586C12.0996 23.0371 11.7305 23.4062 11.2109 23.4062ZM0 25.0332C0 27.8906 1.4082 29.3125 4.23828 29.3125L18.7578 29.3125C21.5879 29.3125 22.9961 27.8906 22.9961 25.0332L22.9961 4.29297C22.9961 1.44922 21.5879 0 18.7578 0L4.23828 0C1.4082 0 0 1.44922 0 4.29297Z" style="fill:var(--color-0,hsl(0 0 0/0.85))"></path>
 </g>
</svg>