<?xml version="1.0" encoding="UTF-8"?>
<!--Generator: Apple Native CoreSVG 326-->
<!DOCTYPE svg
PUBLIC "-//W3C//DTD SVG 1.1//EN"
       "http://www.w3.org/Graphics/SVG/1.1/DTD/svg11.dtd">
<svg version="1.1" xmlns="http://www.w3.org/2000/svg" xmlns:xlink="http://www.w3.org/1999/xlink" viewBox="0 0 28.7383 36.1621">
 <g>
  <rect height="36.1621" opacity="0" width="28.7383" x="0" y="0"/>
  <path d="M20.489 3.97852L7.89383 3.97852C7.9448 2.85991 8.64699 2.22852 9.81641 2.22852L18.5664 2.22852C19.7358 2.22852 20.438 2.85991 20.489 3.97852Z" fill="white" fill-opacity="0.85"/>
  <path d="M23.2851 7.88385C22.8454 7.81396 22.379 7.7793 21.8887 7.7793L6.49414 7.7793C6.00393 7.7793 5.53767 7.81374 5.09809 7.88327C5.24713 6.57013 6.13588 5.83789 7.58789 5.83789L20.8086 5.83789C22.2608 5.83789 23.1383 6.57035 23.2851 7.88385Z" fill="white" fill-opacity="0.85"/>
  <path d="M6.49414 33.9609L21.8887 33.9609C24.7461 33.9609 26.1816 32.5391 26.1816 29.7227L26.1816 14.2188C26.1816 11.4023 24.7461 9.98047 21.8887 9.98047L6.49414 9.98047C3.63672 9.98047 2.20117 11.3887 2.20117 14.2188L2.20117 29.7227C2.20117 32.5391 3.63672 33.9609 6.49414 33.9609ZM6.53516 31.7598C5.16797 31.7598 4.40234 31.0215 4.40234 29.5996L4.40234 14.3281C4.40234 12.9199 5.16797 12.1816 6.53516 12.1816L21.8613 12.1816C23.2012 12.1816 23.9805 12.9199 23.9805 14.3281L23.9805 29.5996C23.9805 31.0215 23.2012 31.7598 21.8613 31.7598Z" fill="white" fill-opacity="0.85"/>
  <path d="M13.9043 26.7695C14.3008 26.7695 14.6426 26.4277 14.6426 26.0176L14.6426 23.0371C18.8125 22.75 21.4922 19.8652 21.4648 15.6406C21.4648 15.1895 21.1641 14.8887 20.6719 14.8887C17.4453 14.8477 14.957 16.5977 13.8223 19.5371C12.7422 17.5137 10.623 16.5156 8.46289 16.5156C8.06641 16.5156 7.84766 16.7754 7.86133 17.1719C7.90234 19.1133 9.03711 22.6543 13.1523 23.0371L13.1523 26.0176C13.1523 26.4277 13.5078 26.7695 13.9043 26.7695ZM13.043 21.5332C10.9512 21.2598 9.78906 19.7832 9.43359 18.1289C11.0195 18.3887 12.6055 19.4414 13.043 21.5332ZM14.8066 21.5469C15.3809 18.5391 17.2812 16.625 19.9473 16.4062C19.7148 19.2363 17.7461 21.1914 14.8066 21.5469ZM7.83398 28.957C8.2168 28.957 8.58594 28.6016 8.58594 28.2051C8.58594 27.8359 8.2168 27.4805 7.83398 27.4805C7.4375 27.4805 7.0957 27.8359 7.0957 28.2051C7.0957 28.6016 7.4375 28.957 7.83398 28.957ZM9.65234 27.7539C10.0488 27.7539 10.4043 27.4258 10.4043 27.0156C10.4043 26.6328 10.0488 26.2637 9.65234 26.2637C9.24219 26.2637 8.92773 26.6328 8.92773 27.0156C8.92773 27.4121 9.25586 27.7539 9.65234 27.7539ZM11.7441 27.0566C12.1406 27.0566 12.4688 26.6875 12.4688 26.3184C12.4688 25.9082 12.127 25.5801 11.7441 25.5801C11.3477 25.5801 10.9922 25.9082 10.9922 26.3184C10.9922 26.6875 11.3477 27.0566 11.7441 27.0566ZM16.0645 27.0566C16.4609 27.0566 16.8164 26.6875 16.8164 26.3184C16.8164 25.9082 16.4609 25.5801 16.0645 25.5801C15.668 25.5801 15.3262 25.9082 15.3262 26.3184C15.3262 26.6875 15.668 27.0566 16.0645 27.0566ZM18.1426 27.7539C18.5254 27.7539 18.8809 27.4121 18.8809 27.0156C18.8809 26.6328 18.5254 26.2637 18.1426 26.2637C17.7598 26.2637 17.3906 26.6328 17.3906 27.0156C17.3906 27.4258 17.7598 27.7539 18.1426 27.7539ZM19.9746 28.957C20.3574 28.957 20.7129 28.6016 20.7129 28.2051C20.7129 27.8359 20.3574 27.4805 19.9746 27.4805C19.5781 27.4805 19.2363 27.8359 19.2363 28.2051C19.2363 28.6016 19.5781 28.957 19.9746 28.957Z" fill="white" fill-opacity="0.85"/>
 </g>
</svg>
