<svg version="1.1" xmlns="http://www.w3.org/2000/svg" xmlns:xlink="http://www.w3.org/1999/xlink" viewBox="0 0 32.5938 25.1699">
 <g>
  
  <path d="M4.29297 25.1699L27.9453 25.1699C30.8164 25.1699 32.2383 23.7617 32.2383 20.9453L32.2383 4.23828C32.2383 1.42188 30.8164 0 27.9453 0L4.29297 0C1.43555 0 0 1.42188 0 4.23828L0 20.9453C0 23.7617 1.43555 25.1699 4.29297 25.1699ZM4.32031 22.9688C2.95312 22.9688 2.20117 22.2441 2.20117 20.8223L2.20117 4.36133C2.20117 2.93945 2.95312 2.20117 4.32031 2.20117L27.918 2.20117C29.2715 2.20117 30.0371 2.93945 30.0371 4.36133L30.0371 20.8223C30.0371 22.2441 29.2715 22.9688 27.918 22.9688Z" style="fill:var(--color-0,#262626)"></path>
  <path d="M5.87891 10.5684C4.8125 11.2109 5.71484 12.8379 6.89062 12.0996L10.8281 9.63867C11.6074 9.14648 11.5664 7.98438 10.8281 7.51953L6.89062 5.05859C5.71484 4.32031 4.79883 5.93359 5.87891 6.58984L9.17383 8.57227ZM11.6484 12.0859C11.6484 12.5645 12.0312 12.9609 12.5234 12.9609L17.7324 12.9609C18.2246 12.9609 18.6074 12.5645 18.6074 12.0859C18.6074 11.5938 18.2246 11.1973 17.7324 11.1973L12.5234 11.1973C12.0312 11.1973 11.6484 11.5938 11.6484 12.0859Z" style="fill:var(--color-1,#262626)"></path>
 </g>
</svg>