<svg version="1.1" xmlns="http://www.w3.org/2000/svg" xmlns:xlink="http://www.w3.org/1999/xlink" viewBox="0 0 31.5005 31.9512">
 <g>
  
  <path d="M22.4905 30.0918C24.7463 29.0391 25.2932 26.8926 25.3479 24.1172C25.3889 22.2715 25.1975 20.125 25.6487 18.0879C26.0862 16.1191 27.2073 14.2598 27.9729 12.5508C29.1213 10.0762 29.5452 7.88867 28.0139 5.94727C26.4417 4.00586 24.2268 3.9375 21.5335 4.49805C19.7014 4.9082 17.637 5.53711 15.5725 5.53711C13.5081 5.53711 11.4436 4.9082 9.62525 4.49805C6.91822 3.92383 4.6897 4.00586 3.14478 5.94727C1.59986 7.88867 2.02369 10.0762 3.17213 12.5508C3.93775 14.2598 5.04517 16.1191 5.49634 18.1016C5.94752 20.125 5.75611 22.2715 5.79713 24.1172C5.85181 26.8926 6.39869 29.0391 8.65455 30.0918C9.32447 30.4199 9.98072 30.5703 10.6233 30.5703C12.1135 30.5703 13.5628 29.7773 15.0803 28.6016C16.5842 27.4805 18.1975 25.9902 20.0295 25.1016C21.9026 24.1992 24.0081 23.9121 25.7991 23.4609C28.5061 22.791 30.4612 21.7793 31.0217 19.3594C31.5823 16.9531 30.2561 15.1484 28.1233 13.4121C26.6604 12.209 24.8831 11.0059 23.5842 9.39258C22.3128 7.79297 21.5881 5.81055 20.7405 4.12891C19.4827 1.68164 18.0608 0 15.5725 0C13.0979 0 11.6624 1.68164 10.4182 4.12891C9.57056 5.81055 8.83228 7.7793 7.54713 9.39258C6.26197 11.0195 4.48463 12.209 3.03541 13.4121C0.902594 15.1484-0.423578 16.9531 0.123297 19.3594C0.683844 21.7793 2.63892 22.791 5.31861 23.4609C7.15064 23.9121 9.24244 24.1992 11.1155 25.1016C12.9338 25.9902 14.5608 27.4668 16.051 28.6152C17.5686 29.7773 19.0178 30.5703 20.5081 30.5703C21.1643 30.5703 21.8206 30.4199 22.4905 30.0918ZM21.5471 28.1367C20.0159 28.8477 18.7307 27.8633 17.4182 26.8789C15.7776 25.6484 14.0139 24.0625 12.0862 23.1328C10.0901 22.1758 7.80689 21.8066 5.83814 21.3281C4.22486 20.918 2.65259 20.5215 2.26978 18.8672C1.90064 17.2266 3.14478 16.1875 4.40259 15.1211C5.97486 13.8223 7.90259 12.4824 9.25611 10.7734C10.637 9.07812 11.4573 6.93164 12.387 5.11328C13.1389 3.62305 13.8909 2.20117 15.5725 2.20117C17.2678 2.20117 18.0061 3.62305 18.7581 5.11328C19.6741 6.93164 20.5081 9.06445 21.8753 10.7734C23.2424 12.4961 25.1565 13.8223 26.7288 15.1211C28.0139 16.1875 29.2444 17.2266 28.8753 18.8672C28.4924 20.5215 26.9202 20.918 25.3069 21.3281C23.4338 21.7793 21.0549 22.1758 19.0588 23.1328C17.1311 24.0625 15.3128 25.6758 13.7268 26.8926C12.4143 27.8633 11.1155 28.8477 9.59791 28.1367C8.094 27.3984 8.03931 25.7578 7.9983 24.1035C7.95728 22.0801 8.12134 19.7559 7.64283 17.5957C7.15064 15.5176 6.02955 13.4805 5.15455 11.5938C4.4983 10.1035 3.8147 8.62695 4.85377 7.32812C5.92017 6.01562 7.49244 6.31641 9.11939 6.64453C11.1018 7.06836 13.3577 7.73828 15.5725 7.73828C17.7874 7.73828 20.0432 7.06836 22.0256 6.64453C23.6526 6.30273 25.2249 6.01562 26.2776 7.32812C27.3303 8.62695 26.6467 10.1035 25.9905 11.5938C25.1155 13.4805 23.9807 15.5176 23.5159 17.6094C23.0237 19.7559 23.1878 22.0801 23.1467 24.1035C23.1057 25.7578 23.0647 27.3984 21.5471 28.1367Z" style="fill:var(--color-0,hsl(0 0 0/0.85))"></path>
 </g>
</svg>