<?xml version="1.0" encoding="UTF-8"?>
<!--Generator: Apple Native CoreSVG 326-->
<!DOCTYPE svg
PUBLIC "-//W3C//DTD SVG 1.1//EN"
       "http://www.w3.org/Graphics/SVG/1.1/DTD/svg11.dtd">
<svg version="1.1" xmlns="http://www.w3.org/2000/svg" xmlns:xlink="http://www.w3.org/1999/xlink" viewBox="0 0 27.8774 22.0297">
 <g>
  <rect height="22.0297" opacity="0" width="27.8774" x="0" y="0"/>
  <path d="M2.92603 21.2619C2.72095 21.6584 3.14478 22.0139 3.4729 21.8362L5.52368 20.7697L4.03345 19.2795ZM4.66235 18.1174L6.69946 20.1682L7.5061 19.7444L24.1448 3.18771C24.8147 2.51779 24.8147 1.43771 24.1448 0.781464C23.4885 0.111542 22.4084 0.111542 21.7522 0.767792L5.09985 17.3381Z" fill="white" fill-opacity="0.85"/>
  <path d="M8.1897 8.16428C10.0901 6.27756 11.1565 3.84396 11.2795 1.21896C11.3342 0.562714 10.8557 0.0705263 10.2268 0.111542C9.66626 0.166229 9.31079 0.590058 9.24243 1.27365C9.1604 3.31076 8.29907 5.22482 6.78149 6.75607C5.25024 8.28732 3.30884 9.13498 1.29907 9.21701C0.601807 9.2717 0.177979 9.65451 0.123292 10.2151C0.0959481 10.8166 0.601807 11.2815 1.25806 11.2678C3.85571 11.1447 6.28931 10.0647 8.1897 8.16428Z" fill="white" fill-opacity="0.85"/>
  <path d="M5.1272 5.11545C6.20728 4.0217 6.86353 2.66818 7.02759 1.16428C7.12329 0.508026 6.6311-0.0388487 5.97485 0.00216692C5.41431 0.0431825 5.14087 0.412323 5.00415 1.16428C4.89478 2.06662 4.45728 2.95529 3.71899 3.70725C2.99439 4.43185 2.11939 4.86935 1.14868 4.9924C0.437745 5.11545 0.0549325 5.41623 0.000244977 5.94943C-0.0134269 6.60568 0.54712 7.09787 1.1897 7.01584C2.65259 6.86545 4.06079 6.18185 5.1272 5.11545Z" fill="white" fill-opacity="0.85"/>
 </g>
</svg>
