<?xml version="1.0" encoding="UTF-8"?>
<!--Generator: Apple Native CoreSVG 326-->
<!DOCTYPE svg
PUBLIC "-//W3C//DTD SVG 1.1//EN"
       "http://www.w3.org/Graphics/SVG/1.1/DTD/svg11.dtd">
<svg version="1.1" xmlns="http://www.w3.org/2000/svg" xmlns:xlink="http://www.w3.org/1999/xlink" viewBox="0 0 32.5938 25.1699">
 <g>
  <rect height="25.1699" opacity="0" width="32.5938" x="0" y="0"/>
  <path d="M4.29297 25.1699L27.9453 25.1699C30.8164 25.1699 32.2383 23.7617 32.2383 20.9453L32.2383 4.23828C32.2383 1.42188 30.8164 0 27.9453 0L4.29297 0C1.43555 0 0 1.42188 0 4.23828L0 20.9453C0 23.7617 1.43555 25.1699 4.29297 25.1699Z" fill="#262626"/>
  <path d="M5.6875 10.623L9.07812 8.55859L5.6875 6.52148C4.56641 5.83789 5.50977 4.16992 6.74023 4.93555L10.7871 7.46484C11.5527 7.95703 11.5938 9.16016 10.7871 9.66602L6.74023 12.209C5.50977 12.9746 4.58008 11.2793 5.6875 10.623ZM11.6348 12.1816C11.6348 11.6758 12.0312 11.2656 12.5371 11.2656L17.9102 11.2656C18.4297 11.2656 18.8262 11.6758 18.8262 12.1816C18.8262 12.6875 18.4297 13.0977 17.9102 13.0977L12.5371 13.0977C12.0312 13.0977 11.6348 12.6875 11.6348 12.1816Z" fill="white"/>
 </g>
</svg>
