<?xml version="1.0" encoding="UTF-8"?>
<!--Generator: Apple Native CoreSVG 326-->
<!DOCTYPE svg
PUBLIC "-//W3C//DTD SVG 1.1//EN"
       "http://www.w3.org/Graphics/SVG/1.1/DTD/svg11.dtd">
<svg version="1.1" xmlns="http://www.w3.org/2000/svg" xmlns:xlink="http://www.w3.org/1999/xlink" viewBox="0 0 28.2461 27.9043">
 <g>
  <rect height="27.9043" opacity="0" width="28.2461" x="0" y="0"/>
  <path d="M13.9453 27.8906C21.6426 27.8906 27.8906 21.6426 27.8906 13.9453C27.8906 6.24805 21.6426 0 13.9453 0C6.24805 0 0 6.24805 0 13.9453C0 21.6426 6.24805 27.8906 13.9453 27.8906ZM13.9453 25.5664C7.51953 25.5664 2.32422 20.3711 2.32422 13.9453C2.32422 7.51953 7.51953 2.32422 13.9453 2.32422C20.3711 2.32422 25.5664 7.51953 25.5664 13.9453C25.5664 20.3711 20.3711 25.5664 13.9453 25.5664Z" fill="white" fill-opacity="0.85"/>
  <path d="M8.02539 20.2207L19.8379 20.2207C21.2734 20.2207 21.9707 19.5371 21.9707 18.1289L21.9707 9.78906C21.9707 8.38086 21.2734 7.69727 19.8379 7.69727L8.02539 7.69727C6.60352 7.69727 5.89258 8.38086 5.89258 9.78906L5.89258 18.1289C5.89258 19.5371 6.60352 20.2207 8.02539 20.2207ZM8.70898 12.9336L10.3633 11.9492L8.70898 10.9512C8.12109 10.5957 8.61328 9.70703 9.25586 10.1035L11.2793 11.375C11.6895 11.6211 11.6895 12.25 11.2793 12.5098L9.25586 13.7812C8.61328 14.1777 8.12109 13.2891 8.70898 12.9336ZM11.6621 13.7539C11.6621 13.4805 11.8672 13.2617 12.127 13.2617L14.8066 13.2617C15.0938 13.2617 15.2988 13.4805 15.2988 13.7539C15.2988 14.0137 15.0938 14.2324 14.8066 14.2324L12.127 14.2324C11.8672 14.2324 11.6621 14.0137 11.6621 13.7539Z" fill="white" fill-opacity="0.85"/>
 </g>
</svg>
