<svg version="1.1" xmlns="http://www.w3.org/2000/svg" xmlns:xlink="http://www.w3.org/1999/xlink" viewBox="0 0 29.0664 27.9043">
 <g>
  
  <path d="M13.3438 27.8906C21.6699 27.8906 28.7109 21.2051 28.7109 12.3594C28.7109 5.40039 23.3379 0 16.2148 0C8.10742 0 0 6.82227 0 15.4082C0 22.7227 5.50977 27.8906 13.3438 27.8906ZM13.3438 25.6895C6.79492 25.6895 2.20117 21.4238 2.20117 15.4082C2.20117 8.14844 9.22852 2.20117 16.2148 2.20117C22.1211 2.20117 26.5098 6.64453 26.5098 12.3594C26.5098 19.9883 20.4258 25.6895 13.3438 25.6895Z" style="fill:var(--color-0,hsl(0 0 0/0.85))"></path>
  <path d="M16.2695 22.0254C16.5703 22.0254 16.7617 21.8477 16.8027 21.5469C17.377 17.3633 18.0742 16.6523 22.2578 16.0918C22.5586 16.0371 22.75 15.8457 22.75 15.5449C22.75 15.2441 22.5586 15.0527 22.2578 14.998C18.0742 14.4375 17.377 13.7402 16.8027 9.54297C16.7617 9.25586 16.5703 9.06445 16.2695 9.06445C15.9688 9.06445 15.7637 9.25586 15.7227 9.54297C15.1484 13.7402 14.4512 14.4375 10.2676 14.998C9.9668 15.0527 9.77539 15.2441 9.77539 15.5449C9.77539 15.8457 9.9668 16.0371 10.2676 16.0918C14.4512 16.6523 15.1484 17.3633 15.7227 21.5469C15.7637 21.8477 15.9688 22.0254 16.2695 22.0254ZM10.2539 12.8105C10.4453 12.8105 10.5957 12.7012 10.623 12.5098C10.8828 10.5137 11.1973 10.1855 13.1797 9.92578C13.3848 9.89844 13.5078 9.74805 13.5078 9.55664C13.5078 9.36523 13.3848 9.22852 13.1797 9.20117C11.1973 8.94141 10.8828 8.61328 10.623 6.63086C10.5957 6.42578 10.4453 6.30273 10.2539 6.30273C10.0762 6.30273 9.92578 6.42578 9.89844 6.63086C9.625 8.61328 9.32422 8.94141 7.3418 9.20117C7.13672 9.22852 7 9.36523 7 9.55664C7 9.74805 7.13672 9.89844 7.3418 9.92578C9.32422 10.1855 9.625 10.5137 9.89844 12.5098C9.92578 12.7012 10.0762 12.8105 10.2539 12.8105Z" style="fill:var(--color-1,hsl(0 0 0/0.85))"></path>
 </g>
</svg>