<svg version="1.1" xmlns="http://www.w3.org/2000/svg" xmlns:xlink="http://www.w3.org/1999/xlink" viewBox="0 0 24.0233 33.9746">
 <g>
  
  <path d="M0.000912361 14.6289C-0.0264314 16.0645 0.561459 17.377 1.68255 18.498L7.60247 24.4316C5.26458 25.9902 4.30755 27.4531 4.30755 29.3672C4.30755 32.1836 6.56341 33.8926 8.94232 33.9336C10.3095 33.9609 11.5536 33.4414 12.3876 32.5938L22.081 22.873C24.3368 20.6172 24.1728 17.9375 21.6572 15.4355L16.2021 9.98047L18.0751 8.09375C19.0048 7.16406 19.5517 5.96094 19.538 4.77148C19.579 2.0918 17.5146 0.0136719 14.8076-3.55271e-15C13.29-3.55271e-15 12.1142 0.546875 10.8154 1.87305L1.40912 11.252C0.506772 12.1406 0.0145842 13.3301 0.000912361 14.6289ZM5.6474 10.1309L12.3603 3.41797C13.2626 2.51562 13.8779 2.20117 14.8076 2.20117C16.2978 2.20117 17.3642 3.26758 17.3642 4.74414C17.3642 5.35937 17.0497 6.01562 16.5302 6.54883L9.27044 13.7949C9.03802 11.8125 7.71185 10.459 5.6474 10.1309ZM2.28412 14.8203C2.28412 13.2344 3.25482 12.168 4.70404 12.168C6.20794 12.168 7.24701 13.2617 7.24701 14.916C7.24701 15.1074 7.24701 15.6816 7.00091 16.3379C6.6181 17.4863 8.01263 18.1836 8.84662 17.3223L14.6435 11.5391L20.1122 16.9805C21.7802 18.6484 21.8896 19.9609 20.5361 21.3281L13.4951 28.3691C13.29 27.2344 12.6201 26.3594 11.2392 24.9785L3.73333 17.4316C2.62591 16.3242 2.28412 15.6816 2.28412 14.8203ZM6.50872 29.4902C6.50872 28.1777 7.27435 27.207 9.20208 26.0312L9.69427 26.5234C11.0751 27.918 11.4579 28.5332 11.4716 29.4902C11.4716 30.7207 10.3505 31.7187 8.94232 31.7187C7.67083 31.7187 6.50872 30.8164 6.50872 29.4902Z" style="fill:var(--color-0,hsl(0 0 0/0.85))"></path>
 </g>
</svg>