<?xml version="1.0" encoding="UTF-8"?>
<!--Generator: Apple Native CoreSVG 326-->
<!DOCTYPE svg
PUBLIC "-//W3C//DTD SVG 1.1//EN"
       "http://www.w3.org/Graphics/SVG/1.1/DTD/svg11.dtd">
<svg version="1.1" xmlns="http://www.w3.org/2000/svg" xmlns:xlink="http://www.w3.org/1999/xlink" viewBox="0 0 36.0732 35.3691">
 <g>
  <rect height="35.3691" opacity="0" width="36.0732" x="0" y="0"/>
  <path d="M6.98598 7.53329C5.29017 8.99346 4.22119 11.1563 4.22119 13.5762C4.22119 17.1906 6.60607 20.2407 9.89116 21.239C7.63976 19.4501 6.20361 16.6859 6.20361 13.5762C6.20361 11.629 6.76949 9.81631 7.74817 8.29473L9.06208 9.60733C8.38935 10.7731 8.0083 12.1286 8.0083 13.5762C8.0083 17.1795 10.3695 20.2219 13.6349 21.2311C11.3859 19.4416 9.94971 16.6812 9.94971 13.5762C9.94971 12.638 10.0815 11.7311 10.3296 10.8736L11.8319 12.3744C11.7711 12.7658 11.7407 13.1673 11.7407 13.5762C11.7407 16.6461 13.4546 19.3089 15.9919 20.6518C16.867 20.1877 17.6451 19.5661 18.2854 18.8216L19.5563 20.0912C19.1861 20.508 18.7796 20.8918 18.3426 21.2388C18.9224 21.0626 19.4742 20.8219 19.9874 20.5218L22.3665 22.8985L21.2153 23.1602C20.9773 23.2139 20.7467 23.2736 20.5256 23.3406C20.2766 23.369 20.0225 23.3789 19.7661 23.3789C19.1217 23.3789 18.4919 23.3172 17.8838 23.1952C17.2773 23.3172 16.6492 23.3789 16.0063 23.3789C15.3595 23.3789 14.7277 23.3168 14.1177 23.1941C13.5087 23.3168 12.8781 23.3789 12.2329 23.3789C6.81885 23.3789 2.44385 19.0039 2.44385 13.5762C2.44385 10.6664 3.70758 8.05672 5.72447 6.27302ZM28.6925 9.59403L26.9084 9.98629C25.9442 8.05025 24.2132 6.5699 22.1147 5.92912C23.5424 7.06249 24.6405 8.59043 25.2428 10.3525L25.1938 10.3633C24.5853 10.4991 24.0451 10.7459 23.6063 11.0882C22.8046 8.61628 20.831 6.681 18.3423 5.92587C20.595 7.71335 22.0356 10.4742 22.0356 13.5762C22.0356 14.0503 22.0022 14.5164 21.9335 14.9709L20.234 13.2722C20.1292 10.3308 18.4399 7.80544 15.9919 6.51118C15.4526 6.79577 14.9504 7.13988 14.4969 7.538L13.2314 6.27314C13.3628 6.15626 13.4975 6.0431 13.6353 5.93357C13.4487 5.99103 13.2651 6.05511 13.0856 6.12735L10.8523 3.89518C11.3007 3.82008 11.7629 3.78711 12.2329 3.78711C12.8781 3.78711 13.5087 3.84924 14.1177 3.97185C14.7277 3.84924 15.3595 3.78711 16.0063 3.78711C16.6492 3.78711 17.2773 3.84878 17.8838 3.97082C18.4919 3.84878 19.1217 3.78711 19.7661 3.78711C23.7499 3.78711 27.1758 6.16794 28.6925 9.59403Z" fill="white" fill-opacity="0.85"/>
  <path d="M26.1372 26.6655L26.1372 27.043C26.1372 30.7207 23.3481 32.1152 21.4888 32.1152C19.3833 32.1152 17.8794 30.7344 17.8794 28.8066C17.8794 26.8789 19.0688 25.6074 21.6118 25.0605L23.6079 24.623C23.7446 24.595 23.8607 24.5499 23.9574 24.4878ZM33.3013 11.8262L33.3013 16.5703C33.3013 16.9941 33.0278 17.3223 32.5767 17.4316L26.8208 18.7031C26.3794 18.8058 26.2154 18.8853 26.1612 19.1965L24.3429 17.3791L24.3325 13.6035C24.3325 12.8789 24.7974 12.4277 25.6177 12.25L32.0845 10.8281C32.7407 10.6914 33.3013 11.1562 33.3013 11.8262Z" fill="white" fill-opacity="0.85"/>
  <path d="M32.6724 30.9395C33.0962 31.3496 33.7661 31.3496 34.1626 30.9395C34.5728 30.5293 34.5864 29.8594 34.1626 29.4492L6.61377 1.91406C6.20361 1.50391 5.52002 1.49023 5.10986 1.91406C4.71338 2.31055 4.71338 2.99414 5.10986 3.4043Z" fill="white" fill-opacity="0.85"/>
 </g>
</svg>
