<?xml version="1.0" encoding="UTF-8"?>
<!--Generator: Apple Native CoreSVG 326-->
<!DOCTYPE svg
PUBLIC "-//W3C//DTD SVG 1.1//EN"
       "http://www.w3.org/Graphics/SVG/1.1/DTD/svg11.dtd">
<svg version="1.1" xmlns="http://www.w3.org/2000/svg" xmlns:xlink="http://www.w3.org/1999/xlink" viewBox="0 0 22.0938 28.5605">
 <g>
  <rect height="28.5605" opacity="0" width="22.0938" x="0" y="0"/>
  <path d="M16.0371 6.53516C14 6.53516 12.332 7.7793 11.2656 7.7793C10.1309 7.7793 8.6543 6.53516 6.87695 6.53516C3.5 6.53516 0.0820312 9.40625 0.0820312 14.6562C0.0820312 17.9375 1.33984 21.3965 2.91211 23.625C4.25195 25.5117 5.42773 27.0293 7.12305 27.0293C8.79102 27.0293 9.5293 25.9492 11.6074 25.9492C13.7129 25.9492 14.1914 27.0293 16.0371 27.0293C17.8691 27.0293 19.0859 25.3477 20.248 23.6934C21.5332 21.793 22.0801 19.9473 22.0938 19.8516C21.9844 19.8242 18.4844 18.3887 18.4844 14.3828C18.4844 10.9102 21.2324 9.35156 21.3965 9.22852C19.5781 6.61719 16.8027 6.53516 16.0371 6.53516ZM15.0801 4.32031C15.9141 3.30859 16.502 1.92773 16.502 0.533203C16.502 0.341797 16.4883 0.150391 16.4609 0C15.0938 0.0546875 13.4531 0.902344 12.4824 2.05078C11.7031 2.92578 10.9922 4.32031 10.9922 5.71484C10.9922 5.93359 11.0332 6.13867 11.0469 6.20703C11.1289 6.2207 11.2656 6.24805 11.416 6.24805C12.6328 6.24805 14.1641 5.42773 15.0801 4.32031Z" fill="white" fill-opacity="0.85"/>
 </g>
</svg>
