<?xml version="1.0" encoding="UTF-8"?>
<!--Generator: Apple Native CoreSVG 326-->
<!DOCTYPE svg
PUBLIC "-//W3C//DTD SVG 1.1//EN"
       "http://www.w3.org/Graphics/SVG/1.1/DTD/svg11.dtd">
<svg version="1.1" xmlns="http://www.w3.org/2000/svg" xmlns:xlink="http://www.w3.org/1999/xlink" viewBox="0 0 34.8267 25.8228">
 <g>
  <rect height="25.8228" opacity="0" width="34.8267" x="0" y="0"/>
  <path d="M0.234623 17.6077C-0.722408 19.9456 1.43775 21.053 3.29712 19.7131C4.80103 18.6057 6.31861 17.4983 7.82251 16.3499L7.27564 16.0628C5.90845 17.9221 5.33423 19.5491 5.33423 20.8342C5.33423 23.8967 8.45142 25.3323 11.678 23.719C12.5256 23.2952 12.2249 21.2581 10.6526 21.9553C8.60181 22.8577 7.27564 22.4065 7.27564 20.7385C7.27564 19.1799 8.42408 16.5413 11.0081 13.1233C11.8284 12.0432 10.5159 10.6487 9.38111 11.8518C7.19361 14.0667 4.17212 16.2815 1.57447 18.469L1.98462 18.8108L8.15064 3.78541C8.56079 2.77369 6.71509 1.83034 6.1272 3.23854Z" fill="white" fill-opacity="0.85"/>
  <path d="M13.2913 20.4651C13.0862 20.8616 13.51 21.2171 13.8518 21.0393L15.8889 19.9729L14.3987 18.4827ZM15.0276 17.3342L17.0647 19.3714L17.8713 18.9475L33.9768 2.89674C34.6467 2.24049 34.6467 1.16041 33.9768 0.504164C33.3069-0.165758 32.2268-0.165758 31.5706 0.490492L15.4651 16.5413Z" fill="white" fill-opacity="0.85"/>
 </g>
</svg>
