<?xml version="1.0" encoding="UTF-8"?>
<!--Generator: Apple Native CoreSVG 326-->
<!DOCTYPE svg
PUBLIC "-//W3C//DTD SVG 1.1//EN"
       "http://www.w3.org/Graphics/SVG/1.1/DTD/svg11.dtd">
<svg version="1.1" xmlns="http://www.w3.org/2000/svg" xmlns:xlink="http://www.w3.org/1999/xlink" viewBox="0 0 27.7949 29.2715">
 <g>
  <rect height="29.2715" opacity="0" width="27.7949" x="0" y="0"/>
  <path d="M18.6211 1.29883L19.0723 2.77539C19.3457 3.67773 19.7832 4.18359 20.5352 4.58008C22.0801 5.44141 22.9141 6.98633 22.9141 9.10547L22.9141 9.31055L23.1055 9.31055C23.8164 9.31055 24.2812 9.78906 24.2812 10.5684L24.2812 12.4141C24.2812 13.1934 23.8164 13.6719 23.1055 13.6719L22.9141 13.6719L22.9141 20.166C22.9141 22.2852 22.0801 23.8438 20.5352 24.6914C19.7832 25.0879 19.3457 25.5938 19.0723 26.5098L18.6211 27.9727C18.3613 28.8613 17.7871 29.2715 16.8438 29.2715L10.5273 29.2715C9.61133 29.2715 8.99609 28.8477 8.73633 27.9727L8.29883 26.5098C8.02539 25.5938 7.58789 25.0879 6.83594 24.6914C5.29102 23.8438 4.45703 22.2852 4.45703 20.166L4.45703 18.2793L6.45313 18.2793L6.45312 19.8789C6.45312 21.9023 7.64258 23.1328 9.63867 23.1328L17.7324 23.1328C19.7285 23.1328 20.918 21.9023 20.918 19.8789L20.918 9.40625C20.918 7.36914 19.7285 6.13867 17.7324 6.13867L9.63867 6.13867C7.64258 6.13867 6.45312 7.36914 6.45312 9.40625L6.45313 10.9785L4.45703 10.9785L4.45703 9.10547C4.45703 6.95898 5.30469 5.40039 6.83594 4.58008C7.60156 4.19727 8.03906 3.66406 8.29883 2.77539L8.73633 1.29883C8.99609 0.423828 9.61133 0 10.5273 0L16.8438 0C17.7734 0 18.3887 0.4375 18.6211 1.29883Z" fill="white" fill-opacity="0.85"/>
  <path d="M0 14.6289C0 15.2168 0.478516 15.709 1.05273 15.709L10.6367 15.709L12.6875 15.627L11.8809 16.4062L9.625 18.5117C9.40625 18.7031 9.29688 19.0039 9.29688 19.2637C9.29688 19.8379 9.69336 20.248 10.2539 20.248C10.5547 20.248 10.7734 20.1387 10.9785 19.9336L15.3262 15.4219C15.5996 15.1484 15.6816 14.9023 15.6816 14.6289C15.6816 14.3418 15.5996 14.1094 15.3262 13.8359L10.9785 9.32422C10.7734 9.11914 10.5547 9.00977 10.2539 9.00977C9.69336 9.00977 9.29688 9.43359 9.29688 10.0078C9.29688 10.2676 9.40625 10.5547 9.625 10.7461L11.8809 12.8516L12.6875 13.6309L10.6367 13.5352L1.05273 13.5352C0.478516 13.5352 0 14.041 0 14.6289Z" fill="white" fill-opacity="0.85"/>
 </g>
</svg>
