<svg version="1.1" xmlns="http://www.w3.org/2000/svg" xmlns:xlink="http://www.w3.org/1999/xlink" viewBox="0 0 14.9297 28.6973">
 <g>
  
  <path d="M3.71875 0C1.43555 0 0 1.38086 0 3.55469L0 25.1699L2.20117 23.8027L2.20117 3.91016C2.20117 2.83008 2.85742 2.20117 4.00586 2.20117L10.582 2.20117C11.7168 2.20117 12.373 2.83008 12.373 3.91016L12.373 23.8027L14.5742 25.1699L14.5742 3.55469C14.5742 1.38086 13.1387 0 10.8555 0ZM3.48633 28.6426L11.1016 28.6426C13.1387 28.6426 14.5742 27.207 14.5742 25.1699C14.5742 23.1191 13.1387 21.6836 11.1016 21.6836L3.48633 21.6836C1.44922 21.6836 0 23.1191 0 25.1699C0 27.207 1.44922 28.6426 3.48633 28.6426ZM3.48633 26.5781C2.65234 26.5781 2.06445 25.9902 2.06445 25.1699C2.06445 24.3359 2.65234 23.748 3.48633 23.748L11.1016 23.748C11.9355 23.748 12.5098 24.3359 12.5098 25.1699C12.5098 25.9902 11.9355 26.5781 11.1016 26.5781ZM7.30078 6.84961C8.20312 6.84961 8.95508 6.11133 8.95508 5.20898C8.95508 4.29297 8.20312 3.55469 7.30078 3.55469C6.38477 3.55469 5.64648 4.29297 5.64648 5.20898C5.64648 6.11133 6.38477 6.84961 7.30078 6.84961Z" style="fill:var(--color-0,hsl(0 0 0/0.85))"></path>
 </g>
</svg>