<svg version="1.1" xmlns="http://www.w3.org/2000/svg" xmlns:xlink="http://www.w3.org/1999/xlink" viewBox="0 0 27.1797 27.0566">
 <g>
  
  <path d="M12.4414 22.5996C13.002 22.5996 13.4668 22.1348 13.4668 21.5742L13.4668 15.2441C21.6562 14.8203 26.8789 9.35156 26.8242 1.12109C26.8242 0.451172 26.4414 0.0546875 25.7578 0.0546875C19.2363-0.0136719 14.3691 3.69141 12.373 9.83008C10.4453 5.45508 6.2207 3.26758 1.77734 3.28125C1.24414 3.28125 1.01172 3.54102 1.03906 4.10156C1.38086 7.875 3.28125 14.7109 11.4023 15.2441L11.4023 21.5742C11.4023 22.1348 11.8809 22.5996 12.4414 22.5996ZM11.334 13.1523C6.54883 12.7559 3.78711 9.41992 3.18555 5.48242C6.9043 5.91992 10.4453 8.43555 11.334 13.1523ZM13.7129 13.1523C14.793 6.71289 18.9902 2.46094 24.6914 2.1875C24.459 8.28516 20.0703 12.6328 13.7129 13.1523Z" style="fill:var(--color-0,hsl(0 0 0/0.85))"></path>
  <path d="M1.17578 27.0566C1.81836 27.0566 2.35156 26.5234 2.35156 25.8809C2.35156 25.2246 1.81836 24.6914 1.17578 24.6914C0.533203 24.6914 0 25.2246 0 25.8809C0 26.5234 0.533203 27.0566 1.17578 27.0566ZM4.58008 24.6367C5.22266 24.6367 5.75586 24.1035 5.75586 23.4473C5.75586 22.8047 5.22266 22.2715 4.58008 22.2715C3.9375 22.2715 3.4043 22.8047 3.4043 23.4473C3.4043 24.1035 3.9375 24.6367 4.58008 24.6367ZM8.46289 23.2285C9.10547 23.2285 9.63867 22.6953 9.63867 22.0527C9.63867 21.4102 9.10547 20.877 8.46289 20.877C7.82031 20.877 7.28711 21.4102 7.28711 22.0527C7.28711 22.6953 7.82031 23.2285 8.46289 23.2285ZM16.4062 23.2285C17.0488 23.2285 17.582 22.6953 17.582 22.0527C17.582 21.4102 17.0488 20.877 16.4062 20.877C15.7637 20.877 15.2305 21.4102 15.2305 22.0527C15.2305 22.6953 15.7637 23.2285 16.4062 23.2285ZM20.2891 24.6367C20.9316 24.6367 21.4648 24.1035 21.4648 23.4473C21.4648 22.8047 20.9316 22.2715 20.2891 22.2715C19.6465 22.2715 19.1133 22.8047 19.1133 23.4473C19.1133 24.1035 19.6465 24.6367 20.2891 24.6367ZM23.6934 27.0566C24.3359 27.0566 24.8691 26.5234 24.8691 25.8809C24.8691 25.2246 24.3359 24.6914 23.6934 24.6914C23.0508 24.6914 22.5176 25.2246 22.5176 25.8809C22.5176 26.5234 23.0508 27.0566 23.6934 27.0566Z" style="fill:var(--color-1,hsl(0 0 0/0.85))"></path>
 </g>
</svg>