<?xml version="1.0" encoding="UTF-8"?>
<!--Generator: Apple Native CoreSVG 326-->
<!DOCTYPE svg
PUBLIC "-//W3C//DTD SVG 1.1//EN"
       "http://www.w3.org/Graphics/SVG/1.1/DTD/svg11.dtd">
<svg version="1.1" xmlns="http://www.w3.org/2000/svg" xmlns:xlink="http://www.w3.org/1999/xlink" viewBox="0 0 33.1816 29.873">
 <g>
  <rect height="29.873" opacity="0" width="33.1816" x="0" y="0"/>
  <path d="M29.5991 8.12109L29.9688 8.12109C30.8438 8.12109 31.4043 8.72266 31.4043 9.69336L31.4043 11.9766C31.4043 12.9199 30.8438 13.5215 29.9688 13.5215L29.5996 13.5215L29.5996 21.7656C29.5996 25.6758 27.3027 28.0137 23.4609 28.0137L21.3288 28.0137C21.9526 27.4302 22.4475 26.7134 22.7938 25.8809L23.5566 25.8809C26.0176 25.8809 27.4668 24.3906 27.4668 21.8613L27.4668 8.10742C27.4668 5.5918 26.0176 4.10156 23.5566 4.10156L19.5362 4.10156C18.5803 3.70242 17.4655 3.47266 16.2285 3.47266L8.61982 3.47266C9.66744 2.45163 11.172 1.90039 13.043 1.90039L23.4609 1.90039C27.2981 1.90039 29.5941 4.21905 29.5991 8.12109Z" fill="white" fill-opacity="0.85"/>
  <path d="M7.19141 28.0137L16.2285 28.0137C19.5508 28.0137 21.5605 25.9766 21.5605 22.5723L21.5605 15.6406L21.7793 15.6406C22.6133 15.6406 23.1465 15.0664 23.1465 14.1777L23.1465 12.0039C23.1465 11.0879 22.6133 10.5137 21.7793 10.5137L21.5605 10.5137C21.4648 7.27344 19.4824 5.3457 16.2285 5.3457L7.19141 5.3457C3.85547 5.3457 1.85938 7.36914 1.85938 10.7461L1.85938 22.5723C1.85938 25.9766 3.85547 28.0137 7.19141 28.0137ZM3.99219 22.6543L3.99219 10.7324C3.99219 8.68164 5.11328 7.5332 7.10938 7.5332L16.3105 7.5332C18.3066 7.5332 19.4277 8.68164 19.4277 10.7324L19.4277 22.6543C19.4277 24.7324 18.3066 25.8809 16.3105 25.8809L7.10938 25.8809C5.11328 25.8809 3.99219 24.7324 3.99219 22.6543Z" fill="white" fill-opacity="0.85"/>
 </g>
</svg>
