<?xml version="1.0" encoding="UTF-8"?>
<!--Generator: Apple Native CoreSVG 326-->
<!DOCTYPE svg
PUBLIC "-//W3C//DTD SVG 1.1//EN"
       "http://www.w3.org/Graphics/SVG/1.1/DTD/svg11.dtd">
<svg version="1.1" xmlns="http://www.w3.org/2000/svg" xmlns:xlink="http://www.w3.org/1999/xlink" viewBox="0 0 34.3711 27.7129">
 <g>
  <rect height="27.7129" opacity="0" width="34.3711" x="0" y="0"/>
  <path d="M27.2617 4.23828L27.2617 6.33008L25.0605 6.33008L25.0605 4.36133C25.0605 2.93945 24.2812 2.20117 22.9277 2.20117L4.32031 2.20117C2.95312 2.20117 2.20117 2.93945 2.20117 4.36133L2.20117 17.0215C2.20117 18.4434 2.95312 19.168 4.32031 19.168L6.75391 19.168L6.75391 21.3691L4.29297 21.3691C1.42188 21.3691 0 19.9609 0 17.1309L0 4.23828C0 1.42188 1.42188 0 4.29297 0L22.9688 0C25.8125 0 27.2617 1.42188 27.2617 4.23828Z" fill="white" fill-opacity="0.85"/>
  <path d="M11.0469 27.6992L29.7227 27.6992C32.5664 27.6992 34.0156 26.2773 34.0156 23.4609L34.0156 10.5684C34.0156 7.75195 32.5664 6.33008 29.7227 6.33008L11.0469 6.33008C8.17578 6.33008 6.75391 7.75195 6.75391 10.5684L6.75391 23.4609C6.75391 26.291 8.17578 27.6992 11.0469 27.6992ZM11.0742 25.498C9.70703 25.498 8.95508 24.7734 8.95508 23.3516L8.95508 10.6914C8.95508 9.26953 9.70703 8.53125 11.0742 8.53125L29.6816 8.53125C31.0352 8.53125 31.8145 9.26953 31.8145 10.6914L31.8145 23.3516C31.8145 24.7734 31.0352 25.498 29.6816 25.498Z" fill="#262626"/>
  <path d="M11.9492 15.2578C10.9648 15.8594 11.8125 17.377 12.8926 16.6797L16.0918 14.6836C16.8027 14.2324 16.7617 13.1934 16.0918 12.7695L12.8926 10.7598C11.8125 10.0762 10.9512 11.5801 11.9492 12.1816L14.4785 13.7266ZM16.5977 16.584C16.5977 17.0352 16.9531 17.418 17.4316 17.418L21.6836 17.418C22.1348 17.418 22.4902 17.0352 22.4902 16.584C22.4902 16.1191 22.1348 15.7637 21.6836 15.7637L17.4316 15.7637C16.9531 15.7637 16.5977 16.1191 16.5977 16.584Z" fill="#262626"/>
 </g>
</svg>
