<svg version="1.1" xmlns="http://www.w3.org/2000/svg" xmlns:xlink="http://www.w3.org/1999/xlink" viewBox="0 0 32.5938 25.1973">
 <g>
  
  <path d="M4.29297 25.1973L27.9453 25.1973C30.8164 25.1973 32.2383 23.7754 32.2383 20.959L32.2383 4.26562C32.2383 1.44922 30.8164 0.0273438 27.9453 0.0273438L4.29297 0.0273438C1.43555 0.0273438 0 1.43555 0 4.26562L0 20.959C0 23.7891 1.43555 25.1973 4.29297 25.1973ZM4.32031 22.9961C2.95312 22.9961 2.20117 22.2715 2.20117 20.8496L2.20117 4.375C2.20117 2.95312 2.95312 2.22852 4.32031 2.22852L27.918 2.22852C29.2715 2.22852 30.0371 2.95312 30.0371 4.375L30.0371 20.8496C30.0371 22.2715 29.2715 22.9961 27.918 22.9961Z" style="fill:var(--color-0,hsl(0 0 0/0.85))"></path>
  <path d="M5.57812 7.5332L6.93164 7.5332C7.32812 7.5332 7.64258 7.25977 7.64258 6.87695L7.64258 5.48242C7.64258 5.08594 7.32812 4.82617 6.93164 4.82617L5.57812 4.82617C5.20898 4.82617 4.92188 5.09961 4.92188 5.48242L4.92188 6.87695C4.92188 7.24609 5.20898 7.5332 5.57812 7.5332ZM10.5 7.5332L11.8535 7.5332C12.2637 7.5332 12.5645 7.25977 12.5645 6.87695L12.5645 5.48242C12.5645 5.08594 12.2637 4.82617 11.8535 4.82617L10.5 4.82617C10.1309 4.82617 9.84375 5.09961 9.84375 5.48242L9.84375 6.87695C9.84375 7.24609 10.1309 7.5332 10.5 7.5332ZM15.4219 7.5332L16.7754 7.5332C17.1719 7.5332 17.4727 7.25977 17.4727 6.87695L17.4727 5.48242C17.4727 5.08594 17.1719 4.82617 16.7754 4.82617L15.4219 4.82617C15.0391 4.82617 14.7656 5.09961 14.7656 5.48242L14.7656 6.87695C14.7656 7.24609 15.0391 7.5332 15.4219 7.5332ZM20.3301 7.5332L21.6836 7.5332C22.0938 7.5332 22.3945 7.25977 22.3945 6.87695L22.3945 5.48242C22.3945 5.08594 22.0938 4.82617 21.6836 4.82617L20.3301 4.82617C19.9609 4.82617 19.6738 5.09961 19.6738 5.48242L19.6738 6.87695C19.6738 7.24609 19.9609 7.5332 20.3301 7.5332ZM25.252 7.5332L26.6055 7.5332C27.002 7.5332 27.3027 7.25977 27.3027 6.87695L27.3027 5.48242C27.3027 5.08594 27.002 4.82617 26.6055 4.82617L25.252 4.82617C24.8691 4.82617 24.5957 5.09961 24.5957 5.48242L24.5957 6.87695C24.5957 7.24609 24.8691 7.5332 25.252 7.5332ZM5.57812 12.0449L6.93164 12.0449C7.32812 12.0449 7.64258 11.7715 7.64258 11.3887L7.64258 9.99414C7.64258 9.59766 7.32812 9.33789 6.93164 9.33789L5.57812 9.33789C5.20898 9.33789 4.92188 9.61133 4.92188 9.99414L4.92188 11.3887C4.92188 11.7578 5.20898 12.0449 5.57812 12.0449ZM10.5 12.0449L11.8535 12.0449C12.2637 12.0449 12.5645 11.7715 12.5645 11.3887L12.5645 9.99414C12.5645 9.59766 12.2637 9.33789 11.8535 9.33789L10.5 9.33789C10.1309 9.33789 9.84375 9.61133 9.84375 9.99414L9.84375 11.3887C9.84375 11.7578 10.1309 12.0449 10.5 12.0449ZM15.4219 12.0449L16.7754 12.0449C17.1719 12.0449 17.4727 11.7715 17.4727 11.3887L17.4727 9.99414C17.4727 9.59766 17.1719 9.33789 16.7754 9.33789L15.4219 9.33789C15.0391 9.33789 14.7656 9.61133 14.7656 9.99414L14.7656 11.3887C14.7656 11.7578 15.0391 12.0449 15.4219 12.0449ZM20.3301 12.0449L21.6836 12.0449C22.0938 12.0449 22.3945 11.7715 22.3945 11.3887L22.3945 9.99414C22.3945 9.59766 22.0938 9.33789 21.6836 9.33789L20.3301 9.33789C19.9609 9.33789 19.6738 9.61133 19.6738 9.99414L19.6738 11.3887C19.6738 11.7578 19.9609 12.0449 20.3301 12.0449ZM5.57812 20.3984L6.93164 20.3984C7.32812 20.3984 7.64258 20.125 7.64258 19.7422L7.64258 18.3477C7.64258 17.9512 7.32812 17.6777 6.93164 17.6777L5.57812 17.6777C5.20898 17.6777 4.92188 17.9648 4.92188 18.3477L4.92188 19.7422C4.92188 20.1113 5.20898 20.3984 5.57812 20.3984ZM10.5 20.3984L11.8535 20.3984C12.2637 20.3984 12.5645 20.125 12.5645 19.7422L12.5645 18.3477C12.5645 17.9512 12.2637 17.6777 11.8535 17.6777L10.5 17.6777C10.1309 17.6777 9.84375 17.9648 9.84375 18.3477L9.84375 19.7422C9.84375 20.1113 10.1309 20.3984 10.5 20.3984ZM15.4219 20.3984L16.7754 20.3984C17.1719 20.3984 17.4727 20.125 17.4727 19.7422L17.4727 18.3477C17.4727 17.9512 17.1719 17.6777 16.7754 17.6777L15.4219 17.6777C15.0391 17.6777 14.7656 17.9648 14.7656 18.3477L14.7656 19.7422C14.7656 20.1113 15.0391 20.3984 15.4219 20.3984ZM20.3301 20.3984L21.6836 20.3984C22.0938 20.3984 22.3945 20.125 22.3945 19.7422L22.3945 18.3477C22.3945 17.9512 22.0938 17.6777 21.6836 17.6777L20.3301 17.6777C19.9609 17.6777 19.6738 17.9648 19.6738 18.3477L19.6738 19.7422C19.6738 20.1113 19.9609 20.3984 20.3301 20.3984ZM25.252 20.3984L26.6055 20.3984C27.002 20.3984 27.3027 20.125 27.3027 19.7422L27.3027 18.3477C27.3027 17.9512 27.002 17.6777 26.6055 17.6777L25.252 17.6777C24.8691 17.6777 24.5957 17.9648 24.5957 18.3477L24.5957 19.7422C24.5957 20.1113 24.8691 20.3984 25.252 20.3984Z" style="fill:var(--color-1,hsl(0 0 0/0.85))"></path>
 </g>
</svg>