<svg version="1.1" xmlns="http://www.w3.org/2000/svg" xmlns:xlink="http://www.w3.org/1999/xlink" viewBox="0 0 23.2012 30.8301">
 <g>
  
  <path d="M0 27.1934C0 29.3535 1.51758 30.8027 3.78711 30.8027L19.0586 30.8027C21.3281 30.8027 22.8457 29.3535 22.8457 27.1934L22.8457 3.62305C22.8457 1.46289 21.3281 0 19.0586 0L3.78711 0C1.51758 0 0 1.46289 0 3.62305ZM2.20117 26.8242L2.20117 3.99219C2.20117 2.87109 2.88477 2.20117 4.06055 2.20117L18.7852 2.20117C19.9473 2.20117 20.6445 2.87109 20.6445 3.99219L20.6445 26.8242C20.6445 27.9453 19.9473 28.6016 18.7852 28.6016L4.06055 28.6016C2.88477 28.6016 2.20117 27.9453 2.20117 26.8242Z" style="fill:var(--color-0,hsl(0 0 0/0.85))"></path>
  <path d="M5.19531 7.0957L6.38477 7.0957C6.74023 7.0957 7.02734 6.84961 7.02734 6.52148L7.02734 5.27734C7.02734 4.93555 6.74023 4.68945 6.38477 4.68945L5.19531 4.68945C4.86719 4.68945 4.62109 4.94922 4.62109 5.27734L4.62109 6.52148C4.62109 6.83594 4.86719 7.0957 5.19531 7.0957ZM8.95508 7.0957L10.1445 7.0957C10.5 7.0957 10.7598 6.84961 10.7598 6.52148L10.7598 5.27734C10.7598 4.93555 10.5 4.68945 10.1445 4.68945L8.95508 4.68945C8.62695 4.68945 8.36719 4.94922 8.36719 5.27734L8.36719 6.52148C8.36719 6.83594 8.62695 7.0957 8.95508 7.0957ZM12.6875 7.0957L13.8906 7.0957C14.2461 7.0957 14.5195 6.84961 14.5195 6.52148L14.5195 5.27734C14.5195 4.93555 14.2461 4.68945 13.8906 4.68945L12.6875 4.68945C12.3594 4.68945 12.1133 4.94922 12.1133 5.27734L12.1133 6.52148C12.1133 6.83594 12.3594 7.0957 12.6875 7.0957ZM16.4336 7.0957L17.6367 7.0957C18.0059 7.0957 18.252 6.84961 18.252 6.52148L18.252 5.27734C18.252 4.93555 18.0059 4.68945 17.6367 4.68945L16.4336 4.68945C16.1055 4.68945 15.8594 4.94922 15.8594 5.27734L15.8594 6.52148C15.8594 6.83594 16.1055 7.0957 16.4336 7.0957ZM5.19531 10.7871L6.38477 10.7871C6.74023 10.7871 7.02734 10.5273 7.02734 10.1855L7.02734 8.95508C7.02734 8.61328 6.74023 8.38086 6.38477 8.38086L5.19531 8.38086C4.86719 8.38086 4.62109 8.62695 4.62109 8.95508L4.62109 10.1855C4.62109 10.5273 4.86719 10.7871 5.19531 10.7871ZM8.95508 10.7871L10.1445 10.7871C10.5 10.7871 10.7598 10.5273 10.7598 10.1855L10.7598 8.95508C10.7598 8.61328 10.5 8.38086 10.1445 8.38086L8.95508 8.38086C8.62695 8.38086 8.35352 8.62695 8.35352 8.95508L8.35352 10.1855C8.35352 10.5273 8.62695 10.7871 8.95508 10.7871ZM12.6875 10.7871L13.8906 10.7871C14.2461 10.7871 14.5195 10.5273 14.5195 10.1992L14.5195 8.95508C14.5195 8.61328 14.2461 8.38086 13.8906 8.38086L12.6875 8.38086C12.3594 8.38086 12.1133 8.62695 12.1133 8.95508L12.1133 10.1992C12.1133 10.5273 12.3594 10.7871 12.6875 10.7871ZM16.4336 10.7871L17.6367 10.7871C18.0059 10.7871 18.252 10.5273 18.252 10.1992L18.252 8.95508C18.252 8.61328 18.0059 8.38086 17.6367 8.38086L16.4336 8.38086C16.1055 8.38086 15.8594 8.62695 15.8594 8.95508L15.8594 10.1992C15.8594 10.5273 16.1055 10.7871 16.4336 10.7871ZM5.19531 14.4648L6.38477 14.4648C6.74023 14.4648 7.02734 14.2324 7.02734 13.8906L7.02734 12.6602C7.02734 12.3184 6.74023 12.0586 6.38477 12.0586L5.19531 12.0586C4.86719 12.0586 4.62109 12.3184 4.62109 12.6602L4.62109 13.8906C4.62109 14.2188 4.86719 14.4648 5.19531 14.4648ZM8.95508 14.4648L10.1445 14.4648C10.5 14.4648 10.7598 14.2324 10.7598 13.8906L10.7598 12.6602C10.7598 12.3184 10.5 12.0586 10.1445 12.0586L8.95508 12.0586C8.62695 12.0586 8.35352 12.3184 8.35352 12.6602L8.35352 13.8906C8.35352 14.2188 8.62695 14.4648 8.95508 14.4648ZM5.19531 26.1133L6.38477 26.1133C6.74023 26.1133 7.02734 25.8809 7.02734 25.5391L7.02734 24.2949C7.02734 23.9531 6.74023 23.7207 6.38477 23.7207L5.19531 23.7207C4.86719 23.7207 4.62109 23.9668 4.62109 24.2949L4.62109 25.5391C4.62109 25.8672 4.86719 26.1133 5.19531 26.1133ZM8.95508 26.1133L10.1445 26.1133C10.5 26.1133 10.7598 25.8809 10.7598 25.5391L10.7598 24.2949C10.7598 23.9531 10.5 23.7207 10.1445 23.7207L8.95508 23.7207C8.62695 23.7207 8.35352 23.9668 8.35352 24.2949L8.35352 25.5391C8.35352 25.8672 8.62695 26.1133 8.95508 26.1133ZM12.6875 26.1133L13.9043 26.1133C14.2461 26.1133 14.5195 25.8809 14.5195 25.5391L14.5195 24.2949C14.5195 23.9531 14.2461 23.7207 13.9043 23.7207L12.6875 23.7207C12.3594 23.7207 12.1133 23.9668 12.1133 24.2949L12.1133 25.5391C12.1133 25.8672 12.3594 26.1133 12.6875 26.1133ZM16.4336 26.1133L17.6367 26.1133C18.0059 26.1133 18.252 25.8809 18.252 25.5391L18.252 24.2949C18.252 23.9531 18.0059 23.7207 17.6367 23.7207L16.4336 23.7207C16.1055 23.7207 15.873 23.9668 15.873 24.2949L15.873 25.5391C15.873 25.8672 16.1055 26.1133 16.4336 26.1133Z" style="fill:var(--color-1,hsl(0 0 0/0.85))"></path>
 </g>
</svg>