<?xml version="1.0" encoding="UTF-8"?>
<!--Generator: Apple Native CoreSVG 326-->
<!DOCTYPE svg
PUBLIC "-//W3C//DTD SVG 1.1//EN"
       "http://www.w3.org/Graphics/SVG/1.1/DTD/svg11.dtd">
<svg version="1.1" xmlns="http://www.w3.org/2000/svg" xmlns:xlink="http://www.w3.org/1999/xlink" viewBox="0 0 29.3125 17.623">
 <g>
  <rect height="17.623" opacity="0" width="29.3125" x="0" y="0"/>
  <path d="M3.55469 17.5957L25.3887 17.5957C27.5215 17.5957 28.957 16.0918 28.957 13.8633L28.957 3.71875C28.957 1.49023 27.5352 0 25.4023 0L3.56836 0C1.43555 0 0 1.49023 0 3.71875L0 13.8633C0 16.0918 1.42188 17.5957 3.55469 17.5957ZM3.91016 15.3945C2.81641 15.3945 2.20117 14.7383 2.20117 13.5898L2.20117 4.00586C2.20117 2.85742 2.81641 2.20117 3.91016 2.20117L25.0469 2.20117C26.1406 2.20117 26.7559 2.85742 26.7559 4.00586L26.7559 13.5898C26.7559 14.7383 26.1406 15.3945 25.0332 15.3945Z" fill="white" fill-opacity="0.85"/>
  <path d="M4.64844 6.49414L5.97461 6.49414C6.26172 6.49414 6.4668 6.28906 6.4668 5.98828L6.4668 4.70312C6.4668 4.38867 6.26172 4.16992 5.97461 4.16992L4.64844 4.16992C4.36133 4.16992 4.15625 4.38867 4.15625 4.70312L4.15625 5.98828C4.15625 6.28906 4.36133 6.49414 4.64844 6.49414ZM8.36719 6.49414L9.67969 6.49414C9.9668 6.49414 10.1855 6.28906 10.1855 5.98828L10.1855 4.70312C10.1855 4.38867 9.98047 4.16992 9.67969 4.16992L8.36719 4.16992C8.06641 4.16992 7.86133 4.38867 7.86133 4.70312L7.86133 5.98828C7.86133 6.28906 8.06641 6.49414 8.36719 6.49414ZM12.0723 6.49414L13.3848 6.49414C13.6855 6.49414 13.8906 6.28906 13.8906 5.98828L13.8906 4.70312C13.8906 4.38867 13.6855 4.16992 13.3848 4.16992L12.0723 4.16992C11.7715 4.16992 11.5664 4.38867 11.5664 4.70312L11.5664 5.98828C11.5664 6.28906 11.7715 6.49414 12.0723 6.49414ZM15.7773 6.49414L17.1035 6.49414C17.3906 6.49414 17.5957 6.28906 17.5957 5.98828L17.5957 4.70312C17.5957 4.38867 17.3906 4.16992 17.1035 4.16992L15.7773 4.16992C15.4902 4.16992 15.2852 4.38867 15.2852 4.70312L15.2852 5.98828C15.2852 6.28906 15.4902 6.49414 15.7773 6.49414ZM4.64844 9.9668L5.97461 9.9668C6.26172 9.9668 6.4668 9.76172 6.4668 9.46094L6.4668 8.17578C6.4668 7.86133 6.26172 7.64258 5.97461 7.64258L4.64844 7.64258C4.36133 7.64258 4.15625 7.86133 4.15625 8.17578L4.15625 9.46094C4.15625 9.76172 4.36133 9.9668 4.64844 9.9668ZM8.36719 9.9668L9.67969 9.9668C9.9668 9.9668 10.1855 9.76172 10.1855 9.46094L10.1855 8.17578C10.1855 7.86133 9.98047 7.64258 9.67969 7.64258L8.36719 7.64258C8.06641 7.64258 7.86133 7.86133 7.86133 8.17578L7.86133 9.46094C7.86133 9.76172 8.06641 9.9668 8.36719 9.9668ZM12.0859 9.9668L13.3848 9.9668C13.6992 9.9668 13.9043 9.76172 13.9043 9.46094L13.9043 8.17578C13.9043 7.86133 13.6992 7.64258 13.3848 7.64258L12.0859 7.64258C11.7715 7.64258 11.5664 7.86133 11.5664 8.17578L11.5664 9.46094C11.5664 9.76172 11.7715 9.9668 12.0859 9.9668ZM23.0781 6.49414L24.3906 6.49414C24.6914 6.49414 24.8965 6.28906 24.8965 5.98828L24.8965 4.70312C24.8965 4.38867 24.6914 4.16992 24.4043 4.16992L23.0781 4.16992C22.791 4.16992 22.5859 4.38867 22.5859 4.70312L22.5859 5.98828C22.5859 6.28906 22.7773 6.49414 23.0781 6.49414ZM23.0781 9.9668L24.4043 9.9668C24.6914 9.9668 24.8965 9.76172 24.8965 9.46094L24.8965 8.17578C24.8965 7.86133 24.6914 7.64258 24.4043 7.64258L23.0781 7.64258C22.791 7.64258 22.5859 7.86133 22.5859 8.17578L22.5859 9.46094C22.5859 9.76172 22.791 9.9668 23.0781 9.9668ZM23.0781 13.4258L24.3906 13.4258C24.6914 13.4258 24.8965 13.2207 24.8965 12.9336L24.8965 11.6484C24.8965 11.334 24.6914 11.1152 24.4043 11.1152L23.0781 11.1152C22.791 11.1152 22.5859 11.334 22.5859 11.6484L22.5859 12.9336C22.5859 13.2207 22.791 13.4258 23.0781 13.4258Z" fill="white" fill-opacity="0.85"/>
 </g>
</svg>
