<?xml version="1.0" encoding="UTF-8"?>
<!--Generator: Apple Native CoreSVG 326-->
<!DOCTYPE svg
PUBLIC "-//W3C//DTD SVG 1.1//EN"
       "http://www.w3.org/Graphics/SVG/1.1/DTD/svg11.dtd">
<svg version="1.1" xmlns="http://www.w3.org/2000/svg" xmlns:xlink="http://www.w3.org/1999/xlink" viewBox="0 0 39.0802 24.5957">
 <g>
  <rect height="24.5957" opacity="0" width="39.0802" x="0" y="0"/>
  <path d="M5.67 24.5957L33.0548 24.5957C37.0743 24.5957 39.1661 22.0117 38.6466 17.7188L37.17 5.40039C36.7598 1.91406 34.7501 0 31.5645 0L7.16024 0C3.97469 0 1.96493 1.91406 1.55477 5.40039L0.0782081 17.7188C-0.441323 22.0117 1.65047 24.5957 5.67 24.5957ZM5.67 22.3945C3.1954 22.3945 1.92391 20.6172 2.29305 17.541L3.7286 5.66016C4.00204 3.43164 5.20516 2.20117 7.16024 2.20117L31.5645 2.20117C33.5196 2.20117 34.7227 3.43164 34.9825 5.66016L36.4181 17.541C36.8009 20.6309 35.5294 22.3945 33.0548 22.3945Z" fill="white" fill-opacity="0.85"/>
  <path d="M10.3731 16.1602C10.879 16.1602 11.3028 15.9141 11.3028 15.5723L11.3028 11.7168C12.7384 11.334 13.8048 9.99414 13.8048 8.42188C13.8048 6.53516 12.2598 4.99023 10.3731 4.99023C8.47274 4.99023 6.94149 6.54883 6.94149 8.42188C6.94149 10.0078 8.0079 11.334 9.45711 11.7441L9.45711 15.5723C9.45711 15.9141 9.86727 16.1602 10.3731 16.1602ZM10.3731 19.0586C13.1485 19.0586 15.0899 17.5684 15.0899 15.4629C15.0899 13.9863 14.1329 12.8242 12.629 12.25L12.629 14.041C13.1348 14.3828 13.4356 14.875 13.4356 15.4629C13.4356 16.707 12.1778 17.582 10.3731 17.582C8.56844 17.582 7.29696 16.707 7.29696 15.4629C7.29696 14.8613 7.61141 14.3691 8.13094 14.0273L8.13094 12.25C6.59969 12.8105 5.64266 13.9863 5.64266 15.4629C5.64266 17.5684 7.59774 19.0586 10.3731 19.0586ZM18.3575 11.4297C19.4649 11.4297 20.3536 10.541 20.3536 9.44727C20.3536 8.33984 19.4649 7.45117 18.3575 7.45117C17.2638 7.45117 16.3751 8.33984 16.3751 9.44727C16.3751 10.541 17.2638 11.4297 18.3575 11.4297ZM24.1407 11.4297C25.2345 11.4297 26.1368 10.541 26.1368 9.44727C26.1368 8.33984 25.2345 7.45117 24.1407 7.45117C23.0333 7.45117 22.1446 8.33984 22.1446 9.44727C22.1446 10.541 23.0333 11.4297 24.1407 11.4297ZM29.8966 11.4297C30.9903 11.4297 31.8927 10.541 31.8927 9.44727C31.8927 8.33984 30.9903 7.45117 29.8966 7.45117C28.8028 7.45117 27.9005 8.33984 27.9005 9.44727C27.9005 10.541 28.8028 11.4297 29.8966 11.4297ZM20.2852 17.1855C21.379 17.1855 22.2677 16.2969 22.2677 15.2031C22.2677 14.0957 21.379 13.207 20.2852 13.207C19.1778 13.207 18.2891 14.0957 18.2891 15.2031C18.2891 16.2969 19.1778 17.1855 20.2852 17.1855ZM26.0548 17.1855C27.1622 17.1855 28.0509 16.2969 28.0509 15.2031C28.0509 14.0957 27.1622 13.207 26.0548 13.207C24.961 13.207 24.0723 14.0957 24.0723 15.2031C24.0723 16.2969 24.961 17.1855 26.0548 17.1855ZM31.8243 17.1855C32.9317 17.1855 33.8204 16.2969 33.8204 15.2031C33.8204 14.0957 32.9317 13.207 31.8243 13.207C30.7306 13.207 29.8419 14.0957 29.8419 15.2031C29.8419 16.2969 30.7306 17.1855 31.8243 17.1855Z" fill="white" fill-opacity="0.85"/>
 </g>
</svg>
