<svg version="1.1" xmlns="http://www.w3.org/2000/svg" xmlns:xlink="http://www.w3.org/1999/xlink" viewBox="0 0 26.4551 28.7793">
 <g>
  
  <path d="M26.0996 22.0527C26.0996 25.8262 22.627 28.7656 18.1562 28.7656C13.6582 28.7656 10.1855 25.8262 10.1855 22.0527C10.1855 19.2314 12.1128 16.8806 14.957 15.8671L14.957 18.2587C13.3928 19.0542 12.3867 20.4359 12.3867 22.0527C12.3867 24.5957 14.9023 26.5645 18.1562 26.5645C21.4102 26.5645 23.8984 24.5957 23.8984 22.0527C23.8984 20.4064 22.8667 19.0039 21.2598 18.2175L21.2598 15.8375C24.1357 16.8362 26.0996 19.2048 26.0996 22.0527Z" style="fill:var(--color-0,hsl(0 0 0/0.85))"></path>
  <path d="M18.1016 23.3652C18.9629 23.3652 19.6738 22.9551 19.6738 22.3809L19.6738 8.27148L16.5566 8.27148L16.5566 22.3809C16.5566 22.9551 17.2402 23.3652 18.1016 23.3652ZM18.1016 11.7441C21.3555 11.7441 23.9531 9.10547 23.9531 5.85156C23.9531 2.625 21.3281 0 18.1016 0C14.8613 0 12.2227 2.65234 12.2227 5.85156C12.2227 9.13281 14.8613 11.7441 18.1016 11.7441Z" style="fill:var(--color-1,hsl(0 0 0/0.85))"></path>
  <path d="M10.7188 12.127C10.7188 11.5391 10.2539 11.0742 9.65234 11.0742L5.85156 11.0742L5.85156 9.25586C5.85156 8.28516 4.9082 7.99805 4.18359 8.54492L0.369141 11.4297C-0.123047 11.7988-0.123047 12.4961 0.369141 12.8789L4.18359 15.75C4.93555 16.3242 5.85156 15.9824 5.85156 15.0391L5.85156 13.207L9.65234 13.207C10.2539 13.207 10.7188 12.7285 10.7188 12.127Z" style="fill:var(--color-2,hsl(0 0 0/0.85))"></path>
 </g>
</svg>