<?xml version="1.0" encoding="UTF-8"?>
<!--Generator: Apple Native CoreSVG 326-->
<!DOCTYPE svg
PUBLIC "-//W3C//DTD SVG 1.1//EN"
       "http://www.w3.org/Graphics/SVG/1.1/DTD/svg11.dtd">
<svg version="1.1" xmlns="http://www.w3.org/2000/svg" xmlns:xlink="http://www.w3.org/1999/xlink" viewBox="0 0 27.6855 25.1973">
 <g>
  <rect height="25.1973" opacity="0" width="27.6855" x="0" y="0"/>
  <path d="M6.16602 25.1973L21.1641 25.1973C23.8574 25.1973 25.293 23.8027 25.293 21.123L25.293 6.52148L23.0918 6.52148L23.0918 21.2324C23.0918 22.4629 22.4082 23.1328 21.1914 23.1328L6.13867 23.1328C4.9082 23.1328 4.23828 22.4629 4.23828 21.2324L4.23828 6.52148L2.03711 6.52148L2.03711 21.123C2.03711 23.8164 3.47266 25.1973 6.16602 25.1973ZM9.16016 13.0566L18.1836 13.0566C18.7578 13.0566 19.168 12.6602 19.168 12.0586L19.168 11.6211C19.168 11.0195 18.7578 10.6367 18.1836 10.6367L9.16016 10.6367C8.58594 10.6367 8.18945 11.0195 8.18945 11.6211L8.18945 12.0586C8.18945 12.6602 8.58594 13.0566 9.16016 13.0566ZM2.59766 7.54688L24.7324 7.54688C26.4141 7.54688 27.3301 6.49414 27.3301 4.82617L27.3301 2.74805C27.3301 1.08008 26.4141 0.0273438 24.7324 0.0273438L2.59766 0.0273438C0.998047 0.0273438 0 1.08008 0 2.74805L0 4.82617C0 6.49414 0.916016 7.54688 2.59766 7.54688ZM3.1582 5.48242C2.47461 5.48242 2.20117 5.19531 2.20117 4.51172L2.20117 3.0625C2.20117 2.37891 2.47461 2.0918 3.1582 2.0918L24.1855 2.0918C24.8691 2.0918 25.1289 2.37891 25.1289 3.0625L25.1289 4.51172C25.1289 5.19531 24.8691 5.48242 24.1855 5.48242Z" fill="white" fill-opacity="0.85"/>
 </g>
</svg>
