<?xml version="1.0" encoding="UTF-8"?>
<!--Generator: Apple Native CoreSVG 326-->
<!DOCTYPE svg
PUBLIC "-//W3C//DTD SVG 1.1//EN"
       "http://www.w3.org/Graphics/SVG/1.1/DTD/svg11.dtd">
<svg version="1.1" xmlns="http://www.w3.org/2000/svg" xmlns:xlink="http://www.w3.org/1999/xlink" viewBox="0 0 27.6855 25.1973">
 <g>
  <rect height="25.1973" opacity="0" width="27.6855" x="0" y="0"/>
  <path d="M6.16602 25.1973L21.1641 25.1973C23.8574 25.1973 25.293 23.8027 25.293 21.123L25.293 8.03906L2.03711 8.03906L2.03711 21.123C2.03711 23.8164 3.47266 25.1973 6.16602 25.1973ZM9.16016 12.9746C8.58594 12.9746 8.18945 12.5781 8.18945 11.9766L8.18945 11.5527C8.18945 10.9512 8.58594 10.5684 9.16016 10.5684L18.1836 10.5684C18.7578 10.5684 19.168 10.9512 19.168 11.5527L19.168 11.9766C19.168 12.5781 18.7578 12.9746 18.1836 12.9746ZM2.32422 6.16602L25.0059 6.16602C26.5508 6.16602 27.3301 5.25 27.3301 3.71875L27.3301 2.47461C27.3301 0.943359 26.5508 0.0273438 25.0059 0.0273438L2.32422 0.0273438C0.861328 0.0273438 0 0.943359 0 2.47461L0 3.71875C0 5.25 0.779297 6.16602 2.32422 6.16602Z" fill="white" fill-opacity="0.85"/>
 </g>
</svg>
