<svg version="1.1" xmlns="http://www.w3.org/2000/svg" xmlns:xlink="http://www.w3.org/1999/xlink" viewBox="0 0 28.0957 30.4062">
 <g>
  
  <path d="M12.7012 29.9756C13.5215 30.4268 14.2324 30.4268 15.0527 29.9756L18.8398 27.8154C19.4961 27.4326 19.6602 26.7764 19.3457 26.1885C19.0449 25.6143 18.3066 25.4639 17.6641 25.833L15.0117 27.3506L15.0117 24.5752C15.0117 23.8369 14.5332 23.29 13.877 23.29C13.207 23.29 12.7285 23.8369 12.7285 24.5752L12.7285 27.3506L10.0762 25.833C9.44727 25.4639 8.70898 25.6143 8.39453 26.1885C8.08008 26.7764 8.24414 27.4326 8.91406 27.8154ZM3.73242 24.876C4.38867 25.2451 5.11328 25.1084 5.42773 24.5205C5.72852 23.9463 5.49609 23.2354 4.89453 22.8936L3.41797 22.0732L5.52344 20.8564C6.19336 20.4873 6.43945 19.749 6.08398 19.2021C5.71484 18.6416 5.04492 18.4775 4.41602 18.8193L2.21484 20.0635L2.21484 18.2861C2.21484 17.5479 1.73633 17.001 1.10742 17.001C0.451172 17.001 0 17.5479 0 18.2861L0 20.4326C0 22.4561 0.669922 23.1533 1.95508 23.8779ZM1.10742 14.0479C1.76367 14.0479 2.21484 13.501 2.21484 12.7627L2.21484 10.165L4.74414 11.6143C5.3457 11.9561 6.0293 11.8057 6.41211 11.2451C6.76758 10.6982 6.50781 9.95996 5.82422 9.59082L3.45898 8.2373L5.76953 6.9248C6.4668 6.52832 6.68555 5.77637 6.33008 5.21582C5.96094 4.66895 5.27734 4.55957 4.70312 4.8877L1.72266 6.58301C0.601562 7.22559 0 8.08691 0 9.60449L0 12.7627C0 13.501 0.478516 14.0479 1.10742 14.0479ZM13.877 6.76074C14.5332 6.76074 15.0117 6.22754 15.0117 5.48926L15.0117 2.94629L16.9395 4.05371C17.5547 4.40918 18.3203 4.27246 18.6211 3.69824C18.9355 3.12402 18.7578 2.4541 18.1016 2.07129L15.1348 0.389648C14.2324-0.129883 13.5078-0.129883 12.6055 0.389648L9.63867 2.07129C8.98242 2.4541 8.81836 3.12402 9.11914 3.69824C9.41992 4.27246 10.1855 4.40918 10.8008 4.05371L12.7285 2.94629L12.7285 5.48926C12.7285 6.22754 13.207 6.76074 13.877 6.76074ZM26.6328 14.0479C27.2754 14.0479 27.7402 13.501 27.7402 12.7627L27.7402 9.60449C27.7402 7.9502 27.3027 7.30762 26.0312 6.58301L23.0371 4.8877C22.4629 4.55957 21.7793 4.66895 21.4238 5.21582C21.0547 5.77637 21.2871 6.52832 21.9844 6.9248L24.2949 8.2373L21.916 9.59082C21.2461 9.95996 20.9727 10.6982 21.3418 11.2451C21.7109 11.8057 22.4082 11.9561 22.9961 11.6143L25.5254 10.165L25.5254 12.7627C25.5254 13.501 25.9902 14.0479 26.6328 14.0479ZM24.0078 24.876L25.7852 23.8779C27.0703 23.1533 27.7402 22.4561 27.7402 20.4326L27.7402 18.2861C27.7402 17.5479 27.2891 17.001 26.6328 17.001C26.0039 17.001 25.5254 17.5479 25.5254 18.2861L25.5254 20.0771L23.3242 18.8193C22.709 18.4775 22.0254 18.6416 21.6699 19.2021C21.3008 19.749 21.5605 20.4873 22.2168 20.8564L24.3086 22.0732L22.8457 22.8936C22.2578 23.2354 22.0117 23.9463 22.3262 24.5205C22.627 25.1084 23.3652 25.2451 24.0078 24.876ZM13.877 20.4736C14.5332 20.4736 15.0117 19.9268 15.0117 19.1885L15.0117 16.167L17.8281 14.5537C18.4844 14.1846 18.7305 13.4463 18.3613 12.8994C18.0059 12.3389 17.3359 12.1748 16.7207 12.5166L13.877 14.1299L11.0332 12.5166C10.418 12.1748 9.74805 12.3389 9.37891 12.8994C9.00977 13.4463 9.25586 14.1846 9.92578 14.5537L12.7285 16.167L12.7285 19.1885C12.7285 19.9268 13.207 20.4736 13.877 20.4736Z" style="fill:var(--color-0,hsl(0 0 0/0.85))"></path>
 </g>
</svg>