<svg version="1.1" xmlns="http://www.w3.org/2000/svg" xmlns:xlink="http://www.w3.org/1999/xlink" viewBox="0 0 28.2461 27.9043">
 <g>
  
  <path d="M13.9453 27.8906C21.6426 27.8906 27.8906 21.6426 27.8906 13.9453C27.8906 6.24805 21.6426 0 13.9453 0C6.24805 0 0 6.24805 0 13.9453C0 21.6426 6.24805 27.8906 13.9453 27.8906ZM13.9453 25.5664C7.51953 25.5664 2.32422 20.3711 2.32422 13.9453C2.32422 7.51953 7.51953 2.32422 13.9453 2.32422C20.3711 2.32422 25.5664 7.51953 25.5664 13.9453C25.5664 20.3711 20.3711 25.5664 13.9453 25.5664Z" style="fill:var(--color-0,hsl(0 0 0/0.85))"></path>
  <path d="M13.9453 7.05469C13.6719 7.05469 13.4258 7.13672 13.1523 7.41016L8.64062 11.7578C8.43555 11.9629 8.32617 12.1816 8.32617 12.4824C8.32617 13.0293 8.73633 13.4395 9.31055 13.4395C9.57031 13.4395 9.87109 13.3301 10.0625 13.1113L12.1406 10.8828L12.9473 10.0488L12.8652 12.0859L12.8652 19.7832C12.8652 20.3574 13.3574 20.8359 13.9453 20.8359C14.5332 20.8359 15.0391 20.3574 15.0391 19.7832L15.0391 12.0859L14.9434 10.0488L15.75 10.8828L17.8281 13.1113C18.0195 13.3301 18.3066 13.4395 18.5664 13.4395C19.1406 13.4395 19.5645 13.0293 19.5645 12.4824C19.5645 12.1816 19.4551 11.9629 19.2363 11.7578L14.7383 7.41016C14.4648 7.13672 14.2188 7.05469 13.9453 7.05469Z" style="fill:var(--color-1,hsl(0 0 0/0.85))"></path>
 </g>
</svg>