<svg version="1.1" xmlns="http://www.w3.org/2000/svg" xmlns:xlink="http://www.w3.org/1999/xlink" viewBox="0 0 30.3652 25.0879">
 <g>
  
  <path d="M17.0078 25.0742C17.6777 25.0742 18.2246 24.8008 18.8809 24.1855L29.668 14C30.1875 13.5078 30.3652 12.9883 30.3652 12.5371C30.3652 12.0723 30.2012 11.5664 29.668 11.0605L18.8809 0.970703C18.1562 0.287109 17.7051 0 17.0352 0C16.0781 0 15.3945 0.751953 15.3945 1.66797L15.3945 6.83594L14.998 6.83594C5.16797 6.83594 0.888672 13.1387 0.888672 23.2422C0.888672 24.418 1.55859 25.0742 2.29688 25.0742C2.87109 25.0742 3.5 24.9375 3.97852 24.0625C6.35742 19.5918 9.70703 18.252 14.998 18.252L15.3945 18.252L15.3945 23.4746C15.3945 24.3906 16.0781 25.0742 17.0078 25.0742Z" style="fill:var(--color-0,hsl(0 0 0/0.85))"></path>
 </g>
</svg>