<svg version="1.1" xmlns="http://www.w3.org/2000/svg" xmlns:xlink="http://www.w3.org/1999/xlink" viewBox="0 0 22.6033 29.4902">
 <g>
  
  <path d="M11.1308 29.4492C16.1893 29.4492 19.539 26.0996 19.539 21.0137L19.539 18.3066C19.539 17.6914 19.0604 17.2129 18.4452 17.2129C17.83 17.2129 17.3378 17.6914 17.3378 18.3066L17.3378 21.0137C17.3378 24.7461 14.8358 27.248 11.1308 27.248C7.39833 27.248 4.89638 24.7461 4.89638 21.0137L4.89638 8.42188C4.89638 4.7168 7.39833 2.20117 11.1308 2.20117C14.8358 2.20117 17.3378 4.7168 17.3378 8.42188L17.3378 10.0078L19.539 10.0078L19.539 8.42188C19.539 3.34961 16.1893 0 11.1308 0C6.04481 0 2.6952 3.34961 2.6952 8.42188L2.6952 21.0137C2.6952 26.0996 6.04481 29.4492 11.1308 29.4492ZM21.6308 8.47656L15.3417 8.47656C14.3847 8.47656 14.1249 9.14648 14.6444 9.89844L17.7069 14.2598C18.1444 14.875 18.8007 14.8887 19.2518 14.2598L22.328 9.91211C22.8612 9.14648 22.6151 8.47656 21.6308 8.47656Z" style="fill:var(--color-0,hsl(0 0 0/0.85))"></path>
 </g>
</svg>