<?xml version="1.0" encoding="UTF-8"?>
<!--Generator: Apple Native CoreSVG 326-->
<!DOCTYPE svg
PUBLIC "-//W3C//DTD SVG 1.1//EN"
       "http://www.w3.org/Graphics/SVG/1.1/DTD/svg11.dtd">
<svg version="1.1" xmlns="http://www.w3.org/2000/svg" xmlns:xlink="http://www.w3.org/1999/xlink" viewBox="0 0 28.2461 27.9043">
 <g>
  <rect height="27.9043" opacity="0" width="28.2461" x="0" y="0"/>
  <path d="M13.9453 27.9043C21.6426 27.9043 27.8906 21.6562 27.8906 13.959C27.8906 6.27539 21.6426 0.0136719 13.9453 0.0136719C6.26172 0.0136719 0 6.27539 0 13.959C0 21.6562 6.26172 27.9043 13.9453 27.9043Z" fill="white" fill-opacity="0.85"/>
  <path d="M5.33203 13.959C5.33203 13.6992 5.42773 13.4258 5.72852 13.125L11.7852 7.47852C12.1953 7.0957 12.4277 6.93164 12.7969 6.93164C13.3438 6.93164 13.7266 7.36914 13.7266 7.875L13.7266 10.9375L20.0977 10.9375C21.2188 10.9375 21.8613 11.5801 21.8613 12.6602L21.8613 15.2715C21.8613 16.3516 21.2188 16.9941 20.0977 16.9941L13.7266 16.9941L13.7266 20.0977C13.7266 20.6309 13.3438 20.9863 12.8242 20.9863C12.4414 20.9863 12.1543 20.8223 11.7852 20.4941L5.72852 14.7793C5.42773 14.5059 5.33203 14.2051 5.33203 13.959Z" fill="white"/>
 </g>
</svg>
