<?xml version="1.0" encoding="UTF-8"?>
<!--Generator: Apple Native CoreSVG 326-->
<!DOCTYPE svg
PUBLIC "-//W3C//DTD SVG 1.1//EN"
       "http://www.w3.org/Graphics/SVG/1.1/DTD/svg11.dtd">
<svg version="1.1" xmlns="http://www.w3.org/2000/svg" xmlns:xlink="http://www.w3.org/1999/xlink" viewBox="0 0 35.7109 22.4902">
 <g>
  <rect height="22.4902" opacity="0" width="35.7109" x="0" y="0"/>
  <path d="M7.21875 22.4766L21.5059 22.4766C24.8418 22.4766 26.8379 20.5352 26.8379 17.1992L26.8379 5.26367C26.8379 1.94141 24.8418 0 21.5059 0L7.21875 0C4.0332 0 1.88672 1.94141 1.88672 5.26367L1.88672 17.1992C1.88672 20.5352 3.88281 22.4766 7.21875 22.4766ZM7.60156 20.4121C5.35938 20.4121 4.08789 19.25 4.08789 16.8848L4.08789 5.5918C4.08789 3.21289 5.35938 2.05078 7.60156 2.05078L21.123 2.05078C23.3516 2.05078 24.6367 3.21289 24.6367 5.5918L24.6367 16.8848C24.6367 19.25 23.3516 20.4121 21.123 20.4121ZM26.5234 7.41016L26.5234 10.0078L33.0312 4.63477C33.1543 4.53906 33.2363 4.4707 33.3594 4.4707C33.5234 4.4707 33.5918 4.60742 33.5918 4.79883L33.5918 17.6777C33.5918 17.8691 33.5234 17.9922 33.3594 17.9922C33.2363 17.9922 33.1543 17.9238 33.0312 17.8418L26.5234 12.4688L26.5234 15.0527L32.0059 19.7012C32.5527 20.1523 33.1543 20.4668 33.7148 20.4668C34.918 20.4668 35.7109 19.5781 35.7109 18.3066L35.7109 4.16992C35.7109 2.89844 34.918 2.00977 33.7148 2.00977C33.1543 2.00977 32.5527 2.32422 32.0059 2.77539Z" fill="white" fill-opacity="0.85"/>
  <path d="M18.9219 5.72852C18.6348 5.72852 18.416 5.82422 18.2109 6.0293L12.6055 11.6348L10.5 13.9316L10.7324 10.0215L10.7324 8.17578C10.7324 7.64258 10.3359 7.20508 9.80273 7.20508C9.24219 7.20508 8.79102 7.61523 8.79102 8.17578L8.79102 15.7773C8.79102 16.502 9.13281 16.8574 9.87109 16.8574L17.4863 16.8574C18.0469 16.8574 18.4707 16.4062 18.4707 15.8457C18.4707 15.2988 18.0195 14.916 17.4863 14.916L15.6133 14.916L11.7031 15.1484L14.0137 13.043L19.6055 7.42383C19.8379 7.20508 19.9336 6.97266 19.9336 6.67188C19.9336 6.13867 19.4961 5.72852 18.9219 5.72852Z" fill="white" fill-opacity="0.85"/>
 </g>
</svg>
