<svg version="1.1" xmlns="http://www.w3.org/2000/svg" xmlns:xlink="http://www.w3.org/1999/xlink" viewBox="0 0 35.2765 29.3262">
 <g>
  
  <path d="M11.9234 25.0332C11.9234 27.8906 13.3453 29.3125 16.1617 29.3125L30.6812 29.3125C33.5113 29.3125 34.9195 27.8906 34.9195 25.0332L34.9195 4.29297C34.9195 1.44922 33.5113 0 30.6812 0L16.1617 0C13.3453 0 11.9234 1.44922 11.9234 4.29297ZM14.1246 24.9922L14.1246 4.33398C14.1246 2.9668 14.8629 2.20117 16.2847 2.20117L30.5718 2.20117C31.9937 2.20117 32.7183 2.9668 32.7183 4.33398L32.7183 24.9922C32.7183 26.3594 31.9937 27.1113 30.5718 27.1113L16.2847 27.1113C14.8629 27.1113 14.1246 26.3594 14.1246 24.9922Z" style="fill:var(--color-0,hsl(0 0 0/0.85))"></path>
  <path d="M17.1734 21.5879L29.6695 21.5879C30.2164 21.5879 30.4761 21.2324 30.4761 20.7266C30.4761 19.2363 28.2203 15.3535 23.4215 15.3535C18.6226 15.3535 16.3668 19.2363 16.3668 20.7266C16.3668 21.2324 16.6402 21.5879 17.1734 21.5879ZM23.4215 14.2324C25.3765 14.2461 26.9351 12.5918 26.9351 10.4043C26.9351 8.35352 25.3765 6.64453 23.4215 6.64453C21.4801 6.64453 19.9215 8.35352 19.9215 10.4043C19.9215 12.5918 21.4801 14.2188 23.4215 14.2324Z" style="fill:var(--color-1,hsl(0 0 0/0.85))"></path>
  <path d="M0.329661 12.3457C-0.353933 13.1113 0.0835669 14.1504 1.10896 14.1504L3.43318 14.1504L3.43318 20.1387C3.43318 20.7402 3.89802 21.2051 4.51325 21.2051C5.10114 21.2051 5.56599 20.7402 5.56599 20.1387L5.56599 14.1504L7.86286 14.1504C8.94294 14.1504 9.31208 13.0703 8.65583 12.3457L5.26521 8.51758C4.81404 7.99805 4.17146 7.99805 3.70661 8.51758Z" style="fill:var(--color-2,hsl(0 0 0/0.85))"></path>
 </g>
</svg>