<?xml version="1.0" encoding="UTF-8"?>
<!--Generator: Apple Native CoreSVG 326-->
<!DOCTYPE svg
PUBLIC "-//W3C//DTD SVG 1.1//EN"
       "http://www.w3.org/Graphics/SVG/1.1/DTD/svg11.dtd">
<svg version="1.1" xmlns="http://www.w3.org/2000/svg" xmlns:xlink="http://www.w3.org/1999/xlink" viewBox="0 0 32.5938 25.1699">
 <g>
  <rect height="25.1699" opacity="0" width="32.5938" x="0" y="0"/>
  <path d="M4.29297 25.1699L27.9453 25.1699C30.8164 25.1699 32.2383 23.7617 32.2383 20.9453L32.2383 4.23828C32.2383 1.42188 30.8164 0 27.9453 0L4.29297 0C1.43555 0 0 1.42188 0 4.23828L0 20.9453C0 23.7617 1.43555 25.1699 4.29297 25.1699Z" fill="white" fill-opacity="0.85"/>
  <path d="M13.084 19.8379C12.4551 19.8379 12.0449 19.4004 12.0449 18.7305L12.0449 16.4883L12.25 14.3008L10.2129 16.4746L5.98828 20.6992C5.7832 20.9043 5.52344 21.0273 5.18164 21.0273C4.55273 21.0273 4.14258 20.6172 4.14258 19.9746C4.14258 19.7012 4.2793 19.4141 4.48438 19.209L8.72266 14.9844L10.9238 12.9336L8.83203 13.1523L6.48047 13.1523C5.79688 13.1523 5.35938 12.7422 5.35938 12.1133C5.35938 11.498 5.7832 11.0879 6.45312 11.0879L12.9336 11.0879C13.6582 11.0879 14.123 11.416 14.123 12.25L14.123 18.7031C14.123 19.3594 13.6992 19.8379 13.084 19.8379Z" fill="white"/>
 </g>
</svg>
