<?xml version="1.0" encoding="UTF-8"?>
<!--Generator: Apple Native CoreSVG 326-->
<!DOCTYPE svg
PUBLIC "-//W3C//DTD SVG 1.1//EN"
       "http://www.w3.org/Graphics/SVG/1.1/DTD/svg11.dtd">
<svg version="1.1" xmlns="http://www.w3.org/2000/svg" xmlns:xlink="http://www.w3.org/1999/xlink" viewBox="0 0 25.5254 25.1699">
 <g>
  <rect height="25.1699" opacity="0" width="25.5254" x="0" y="0"/>
  <path d="M4.29297 25.1699L20.877 25.1699C23.748 25.1699 25.1699 23.7617 25.1699 20.9453L25.1699 4.23828C25.1699 1.42188 23.748 0 20.877 0L4.29297 0C1.43555 0 0 1.42188 0 4.23828L0 20.9453C0 23.7617 1.43555 25.1699 4.29297 25.1699ZM4.32031 22.9688C2.95312 22.9688 2.20117 22.2441 2.20117 20.8223L2.20117 4.36133C2.20117 2.93945 2.95312 2.20117 4.32031 2.20117L20.8496 2.20117C22.2031 2.20117 22.9688 2.93945 22.9688 4.36133L22.9688 20.8223C22.9688 22.2441 22.2031 22.9688 20.8496 22.9688Z" fill="white" fill-opacity="0.85"/>
  <path d="M4.7168 13.7539C4.7168 14.2598 5.1543 14.6973 5.64648 14.6836L10.459 14.6289C10.7051 14.6152 10.9512 14.5195 11.0879 14.3555C11.457 14 11.457 13.4941 11.1016 13.1387C10.9238 12.9609 10.7051 12.8789 10.4727 12.8789L8.44922 12.9062L7.66992 12.9336L8.16211 12.4961L14.4238 6.2207C14.7793 5.86523 14.793 5.33203 14.4238 4.96289C14.082 4.60742 13.5352 4.60742 13.166 4.96289L6.9043 11.2383L6.4668 11.7031L6.50781 10.9648L6.53516 8.92773C6.54883 8.69531 6.43945 8.46289 6.27539 8.29883C5.90625 7.92969 5.38672 7.92969 5.03125 8.29883C4.88086 8.46289 4.77148 8.72266 4.77148 8.95508ZM20.4805 11.416C20.4805 10.8965 20.0703 10.5137 19.5645 10.5137L14.752 10.5547C14.5332 10.5547 14.2734 10.6641 14.123 10.8145C13.7539 11.1973 13.7539 11.7031 14.1094 12.0586C14.2871 12.2227 14.5059 12.3184 14.7246 12.3184L16.7754 12.2773L17.5547 12.25L17.0625 12.6738L10.7871 18.9629C10.418 19.3184 10.418 19.8379 10.7871 20.207C11.1426 20.5625 11.6758 20.5762 12.0312 20.207L18.3066 13.9453L18.7715 13.4531L18.7168 14.2188L18.6895 16.2559C18.6895 16.4883 18.7715 16.707 18.9355 16.8848C19.291 17.2402 19.8242 17.2402 20.1934 16.8848C20.3301 16.7344 20.4121 16.4883 20.4258 16.2422Z" fill="white" fill-opacity="0.85"/>
 </g>
</svg>
