<svg version="1.1" xmlns="http://www.w3.org/2000/svg" xmlns:xlink="http://www.w3.org/1999/xlink" viewBox="0 0 28.2461 27.9043">
 <g>
  
  <path d="M13.9453 27.8906C21.6426 27.8906 27.8906 21.6289 27.8906 13.9453C27.8906 6.24805 21.6426 0 13.9453 0C6.26172 0 0 6.24805 0 13.9453C0 21.6289 6.26172 27.8906 13.9453 27.8906Z" style="fill:var(--color-0,hsl(0 0 0/0.85))"></path>
  <path d="M8.90039 7.36914C9.29688 6.97266 9.88477 7 10.2539 7.36914L13.7129 10.9102C13.877 11.0742 13.9863 11.334 13.9863 11.5664C13.9863 12.0996 13.6172 12.4824 13.0977 12.4824C12.8516 12.4824 12.6191 12.3867 12.4551 12.2227L10.9922 10.7051L10.4727 10.1309L10.5 10.8008L10.5 19.9336C10.5 20.4395 10.1172 20.8223 9.57031 20.8223C9.05078 20.8223 8.6543 20.4395 8.6543 19.9336L8.6543 10.8145L8.68164 10.1309L8.14844 10.7051L6.69922 12.1953C6.53516 12.373 6.30273 12.4824 6.07031 12.4824C5.53711 12.4824 5.14062 12.0859 5.14062 11.5664C5.14062 11.3613 5.27734 11.1016 5.42773 10.9102ZM19.0039 20.5488C18.6348 20.918 17.9922 20.918 17.623 20.5488L14.1641 17.0215C14 16.8164 13.9043 16.5703 13.9043 16.3516C13.9043 15.8184 14.2598 15.4492 14.793 15.4492C15.0527 15.4492 15.2715 15.5312 15.4492 15.7227L16.8984 17.1992L17.418 17.7871L17.3906 17.1309L17.3906 7.98438C17.3906 7.46484 17.7871 7.08203 18.3203 7.08203C18.8398 7.08203 19.2363 7.46484 19.2363 7.98438L19.2363 17.1172L19.209 17.7734L19.7422 17.1992L21.1914 15.7227C21.3555 15.5586 21.5879 15.4492 21.834 15.4492C22.3672 15.4492 22.75 15.8184 22.75 16.3516C22.75 16.584 22.6133 16.8301 22.4492 17.0215Z" style="fill:var(--color-1,white)"></path>
 </g>
</svg>