<svg version="1.1" xmlns="http://www.w3.org/2000/svg" xmlns:xlink="http://www.w3.org/1999/xlink" viewBox="0 0 24.4453 21.3418">
 <g>
  
  <path d="M2.44727 19.6465L2.44727 1.20312C2.44727 0.492188 1.94141 0 1.2168 0C0.505859 0 0 0.492188 0 1.20312L0 19.6465C0 20.3438 0.505859 20.8223 1.2168 20.8223C1.94141 20.8223 2.44727 20.3438 2.44727 19.6465ZM24.0898 10.418C24.0898 9.69336 23.5977 9.1875 22.8867 9.1875L9.07812 9.1875L6.15234 9.29688L10.6367 5.18164L13.6582 2.10547C13.8906 1.88672 14.0137 1.55859 14.0137 1.23047C14.0137 0.546875 13.4805 0.0410156 12.8105 0.0410156C12.4688 0.0410156 12.1816 0.177734 11.8945 0.451172L2.83008 9.48828C2.55664 9.76172 2.40625 10.0762 2.40625 10.418C2.40625 10.7461 2.55664 11.0742 2.83008 11.334L11.8945 20.3711C12.1816 20.6445 12.4688 20.7676 12.8105 20.7676C13.4805 20.7676 14.0137 20.2754 14.0137 19.5918C14.0137 19.2637 13.8906 18.9355 13.6582 18.7031L10.6367 15.6406L6.13867 11.5391L9.07812 11.6348L22.8867 11.6348C23.5977 11.6348 24.0898 11.1289 24.0898 10.418Z" style="fill:var(--color-0,hsl(0 0 0/0.85))"></path>
 </g>
</svg>