<?xml version="1.0" encoding="UTF-8"?>
<!--Generator: Apple Native CoreSVG 326-->
<!DOCTYPE svg
PUBLIC "-//W3C//DTD SVG 1.1//EN"
       "http://www.w3.org/Graphics/SVG/1.1/DTD/svg11.dtd">
<svg version="1.1" xmlns="http://www.w3.org/2000/svg" xmlns:xlink="http://www.w3.org/1999/xlink" viewBox="0 0 41.0977 28.6152">
 <g>
  <rect height="28.6152" opacity="0" width="41.0977" x="0" y="0"/>
  <path d="M1.02542 15.9277L11.375 22.2715C12.6739 23.0645 14.1367 22.5039 14.1367 20.8359L14.1367 7.79297C14.1367 6.16602 12.7012 5.56445 11.375 6.37109L1.02542 12.7148C-0.355443 13.5488-0.328099 15.0938 1.02542 15.9277ZM2.48831 14.6016C2.28323 14.4648 2.16018 14.2461 2.48831 14.0273L11.6621 8.35352C11.7989 8.25781 12.1407 8.2168 12.1407 8.58594L12.1407 20.0566C12.1407 20.3984 11.8262 20.3984 11.6621 20.2891ZM20.3711 28.6152C20.9043 28.6152 21.3828 28.1914 21.3828 27.6582L21.3828 0.970703C21.3828 0.4375 20.9043 0.0273438 20.3711 0.0273438C19.8379 0.0273438 19.3731 0.4375 19.3731 0.970703L19.3731 27.6582C19.3731 28.1914 19.8379 28.6152 20.3711 28.6152ZM29.3672 22.2715L39.7305 15.9277C41.0703 15.0938 41.0977 13.5488 39.7305 12.7148L29.3672 6.37109C28.041 5.56445 26.6055 6.16602 26.6055 7.79297L26.6055 20.8359C26.6055 22.5039 28.0684 23.0645 29.3672 22.2715ZM29.0801 20.2891C28.916 20.3848 28.6016 20.3984 28.6016 20.0566L28.6016 8.58594C28.6016 8.2168 28.9434 8.25781 29.0801 8.35352L38.2539 14.0273C38.5821 14.2461 38.4727 14.4785 38.2539 14.6016Z" fill="white" fill-opacity="0.85"/>
 </g>
</svg>
