<svg version="1.1" xmlns="http://www.w3.org/2000/svg" xmlns:xlink="http://www.w3.org/1999/xlink" viewBox="0 0 28.2461 27.9043">
 <g>
  
  <path d="M13.9453 27.8906C21.6426 27.8906 27.8906 21.6426 27.8906 13.9453C27.8906 6.24805 21.6426 0 13.9453 0C6.24805 0 0 6.24805 0 13.9453C0 21.6426 6.24805 27.8906 13.9453 27.8906ZM13.9453 25.5664C7.51953 25.5664 2.32422 20.3711 2.32422 13.9453C2.32422 7.51953 7.51953 2.32422 13.9453 2.32422C20.3711 2.32422 25.5664 7.51953 25.5664 13.9453C25.5664 20.3711 20.3711 25.5664 13.9453 25.5664Z" style="fill:var(--color-0,hsl(0 0 0/0.85))"></path>
  <path d="M8.02539 13.9316C8.55859 13.9316 8.99609 13.5078 8.99609 12.9746L8.99609 12.3047L8.8457 10.1445L11.8125 13.248C12.209 13.6855 12.8652 13.6719 13.2617 13.2617C13.6582 12.8652 13.6445 12.1953 13.248 11.8125L10.1719 8.87305L12.2637 9.00977L12.9336 9.00977C13.4668 9.00977 13.8906 8.58594 13.8906 8.05273C13.8906 7.51953 13.4668 7.08203 12.9336 7.08203L8.18945 7.08203C7.47852 7.08203 7.06836 7.39648 7.06836 8.2168L7.06836 12.9746C7.06836 13.5078 7.49219 13.9316 8.02539 13.9316ZM14.9434 20.8359L19.6738 20.8359C20.3848 20.8359 20.8086 20.5215 20.8086 19.7012L20.8086 14.9434C20.8086 14.4102 20.3711 13.9863 19.8379 13.9863C19.3047 13.9863 18.8809 14.4102 18.8809 14.9434L18.8809 15.6133L19.0176 17.7734L16.0645 14.6699C15.6543 14.2324 15.0117 14.2461 14.6016 14.6562C14.2051 15.0527 14.2188 15.7227 14.6152 16.1055L17.7051 19.0449L15.6133 18.9082L14.9434 18.9082C14.4102 18.9082 13.9727 19.332 13.9727 19.8652C13.9727 20.3984 14.4102 20.8359 14.9434 20.8359Z" style="fill:var(--color-1,hsl(0 0 0/0.85))"></path>
 </g>
</svg>