<?xml version="1.0" encoding="UTF-8"?>
<!--Generator: Apple Native CoreSVG 326-->
<!DOCTYPE svg
PUBLIC "-//W3C//DTD SVG 1.1//EN"
       "http://www.w3.org/Graphics/SVG/1.1/DTD/svg11.dtd">
<svg version="1.1" xmlns="http://www.w3.org/2000/svg" xmlns:xlink="http://www.w3.org/1999/xlink" viewBox="0 0 25.5254 25.1699">
 <g>
  <rect height="25.1699" opacity="0" width="25.5254" x="0" y="0"/>
  <path d="M4.29297 25.1699L20.877 25.1699C23.748 25.1699 25.1699 23.7617 25.1699 20.9453L25.1699 4.23828C25.1699 1.42188 23.748 0 20.877 0L4.29297 0C1.43555 0 0 1.42188 0 4.23828L0 20.9453C0 23.7617 1.43555 25.1699 4.29297 25.1699Z" fill="white" fill-opacity="0.85"/>
  <path d="M8.16211 16.0781C7.54688 16.0781 7.13672 15.5996 7.13672 14.9434L7.13672 8.29883C7.13672 7.46484 7.58789 7.13672 8.3125 7.13672L14.9844 7.13672C15.6543 7.13672 16.0781 7.54688 16.0781 8.17578C16.0781 8.79102 15.6406 9.20117 14.957 9.20117L12.4141 9.20117L10.3223 8.98242L12.5234 11.0332L17.7051 16.2012C17.9102 16.4062 18.0469 16.6934 18.0469 16.9668C18.0469 17.6094 17.623 18.0195 17.0078 18.0195C16.666 18.0195 16.4062 17.8965 16.1875 17.6914L11.0332 12.5234L8.99609 10.3496L9.20117 12.5508L9.20117 14.9707C9.20117 15.6406 8.79102 16.0781 8.16211 16.0781Z" fill="white"/>
 </g>
</svg>
