<?xml version="1.0" encoding="UTF-8"?>
<!--Generator: Apple Native CoreSVG 326-->
<!DOCTYPE svg
PUBLIC "-//W3C//DTD SVG 1.1//EN"
       "http://www.w3.org/Graphics/SVG/1.1/DTD/svg11.dtd">
<svg version="1.1" xmlns="http://www.w3.org/2000/svg" xmlns:xlink="http://www.w3.org/1999/xlink" viewBox="0 0 32.5938 25.1699">
 <g>
  <rect height="25.1699" opacity="0" width="32.5938" x="0" y="0"/>
  <path d="M4.29297 25.1699L27.9453 25.1699C30.8164 25.1699 32.2383 23.7617 32.2383 20.9453L32.2383 4.23828C32.2383 1.42188 30.8164 0 27.9453 0L4.29297 0C1.43555 0 0 1.42188 0 4.23828L0 20.9453C0 23.7617 1.43555 25.1699 4.29297 25.1699ZM4.32031 22.9688C2.95312 22.9688 2.20117 22.2441 2.20117 20.8223L2.20117 4.36133C2.20117 2.93945 2.95312 2.20117 4.32031 2.20117L27.918 2.20117C29.2715 2.20117 30.0371 2.93945 30.0371 4.36133L30.0371 20.8223C30.0371 22.2441 29.2715 22.9688 27.918 22.9688Z" fill="white" fill-opacity="0.85"/>
  <path d="M19.2773 5.46875C18.6758 5.46875 18.2793 5.91992 18.2793 6.5625L18.2793 12.8105C18.2793 13.6309 18.7168 13.9453 19.4141 13.9453L25.7168 13.9453C26.3457 13.9453 26.7559 13.5488 26.7559 12.9473C26.7559 12.3457 26.332 11.9492 25.6895 11.9492L23.3789 11.9492L21.3555 12.168L23.4883 10.1719L27.6172 6.04297C27.8086 5.85156 27.9453 5.5918 27.9453 5.31836C27.9453 4.70312 27.5488 4.29297 26.9473 4.29297C26.6055 4.29297 26.3594 4.41602 26.168 4.60742L22.0391 8.73633L20.0703 10.8418L20.2754 8.70898L20.2754 6.53516C20.2754 5.87891 19.8789 5.46875 19.2773 5.46875Z" fill="white" fill-opacity="0.85"/>
 </g>
</svg>
