<?xml version="1.0" encoding="UTF-8"?>
<!--Generator: Apple Native CoreSVG 326-->
<!DOCTYPE svg
PUBLIC "-//W3C//DTD SVG 1.1//EN"
       "http://www.w3.org/Graphics/SVG/1.1/DTD/svg11.dtd">
<svg version="1.1" xmlns="http://www.w3.org/2000/svg" xmlns:xlink="http://www.w3.org/1999/xlink" viewBox="0 0 28.2461 27.9043">
 <g>
  <rect height="27.9043" opacity="0" width="28.2461" x="0" y="0"/>
  <path d="M13.9453 27.8906C21.6426 27.8906 27.8906 21.6289 27.8906 13.9453C27.8906 6.24805 21.6426 0 13.9453 0C6.26172 0 0 6.24805 0 13.9453C0 21.6289 6.26172 27.8906 13.9453 27.8906Z" fill="white" fill-opacity="0.85"/>
  <path d="M18.3613 17.4453C17.7324 17.4453 17.3223 17.0078 17.3223 16.3379L17.3223 13.918L17.5273 11.7168L15.4902 13.8906L10.3359 19.0586C10.1172 19.2637 9.85742 19.3867 9.51562 19.3867C8.90039 19.3867 8.47656 18.9766 8.47656 18.334C8.47656 18.0605 8.61328 17.7734 8.81836 17.5684L14 12.4004L16.2012 10.3496L14.1094 10.5684L11.5664 10.5684C10.8828 10.5684 10.4453 10.1582 10.4453 9.54297C10.4453 8.91406 10.8691 8.50391 11.5391 8.50391L18.2109 8.50391C18.9355 8.50391 19.4004 8.83203 19.4004 9.66602L19.4004 16.3105C19.4004 16.9668 18.9766 17.4453 18.3613 17.4453Z" fill="white"/>
 </g>
</svg>
