<?xml version="1.0" encoding="UTF-8"?>
<!--Generator: Apple Native CoreSVG 326-->
<!DOCTYPE svg
PUBLIC "-//W3C//DTD SVG 1.1//EN"
       "http://www.w3.org/Graphics/SVG/1.1/DTD/svg11.dtd">
<svg version="1.1" xmlns="http://www.w3.org/2000/svg" xmlns:xlink="http://www.w3.org/1999/xlink" viewBox="0 0 28.2461 27.9043">
 <g>
  <rect height="27.9043" opacity="0" width="28.2461" x="0" y="0"/>
  <path d="M13.9453 27.8906C21.6426 27.8906 27.8906 21.6426 27.8906 13.9453C27.8906 6.24805 21.6426 0 13.9453 0C6.24805 0 0 6.24805 0 13.9453C0 21.6426 6.24805 27.8906 13.9453 27.8906ZM13.9453 25.5664C7.51953 25.5664 2.32422 20.3711 2.32422 13.9453C2.32422 7.51953 7.51953 2.32422 13.9453 2.32422C20.3711 2.32422 25.5664 7.51953 25.5664 13.9453C25.5664 20.3711 20.3711 25.5664 13.9453 25.5664Z" fill="white" fill-opacity="0.85"/>
  <path d="M21 15.6133C21 12.332 18.6211 10.3359 15.4355 10.3359L11.3477 10.3359L9.73438 10.377L10.8145 9.5293L12.2227 8.16211C12.4141 7.99805 12.5371 7.73828 12.5371 7.45117C12.5371 6.89062 12.1133 6.4668 11.5527 6.4668C11.2656 6.4668 11.0469 6.54883 10.8555 6.75391L7.21875 10.4453C7 10.6777 6.84961 10.9648 6.84961 11.2793C6.84961 11.6074 7 11.8809 7.21875 12.1133L10.8691 15.832C11.0605 16.0234 11.2793 16.1191 11.5664 16.1191C12.1133 16.1191 12.5371 15.6953 12.5371 15.1211C12.5371 14.875 12.4414 14.6016 12.2363 14.4238L10.5273 12.7832L9.73438 12.1816L11.3477 12.25L15.4355 12.25C17.4453 12.25 18.9902 13.3984 18.9902 15.5039C18.9902 17.6641 17.4863 18.9902 15.4219 18.9902C15.2578 18.9902 13.5762 18.9902 13.5215 18.9902C12.9336 18.9902 12.4824 19.332 12.4824 19.9746C12.4824 20.6035 12.9336 20.9453 13.5488 20.9453C13.6172 20.9453 15.2578 20.9453 15.4219 20.9453C18.6074 20.9453 21 18.8945 21 15.6133Z" fill="white" fill-opacity="0.85"/>
 </g>
</svg>
