<?xml version="1.0" encoding="UTF-8"?>
<!--Generator: Apple Native CoreSVG 326-->
<!DOCTYPE svg
PUBLIC "-//W3C//DTD SVG 1.1//EN"
       "http://www.w3.org/Graphics/SVG/1.1/DTD/svg11.dtd">
<svg version="1.1" xmlns="http://www.w3.org/2000/svg" xmlns:xlink="http://www.w3.org/1999/xlink" viewBox="0 0 28.2461 27.9043">
 <g>
  <rect height="27.9043" opacity="0" width="28.2461" x="0" y="0"/>
  <path d="M13.9453 27.8906C21.6426 27.8906 27.8906 21.6426 27.8906 13.9453C27.8906 6.24805 21.6426 0 13.9453 0C6.24805 0 0 6.24805 0 13.9453C0 21.6426 6.24805 27.8906 13.9453 27.8906ZM13.9453 25.5664C7.51953 25.5664 2.32422 20.3711 2.32422 13.9453C2.32422 7.51953 7.51953 2.32422 13.9453 2.32422C20.3711 2.32422 25.5664 7.51953 25.5664 13.9453C25.5664 20.3711 20.3711 25.5664 13.9453 25.5664Z" fill="white" fill-opacity="0.85"/>
  <path d="M13.9453 20.8359C14.2188 20.8359 14.4648 20.7539 14.7383 20.4805L19.2363 16.1328C19.4551 15.9277 19.5645 15.709 19.5645 15.4082C19.5645 14.8477 19.1406 14.4512 18.5664 14.4512C18.3066 14.4512 18.0195 14.5605 17.8281 14.7793L15.75 16.9941L14.9434 17.8418L15.0391 15.791L15.0391 8.10742C15.0391 7.5332 14.5332 7.05469 13.9453 7.05469C13.3574 7.05469 12.8652 7.5332 12.8652 8.10742L12.8652 15.791L12.9473 17.8418L12.1406 16.9941L10.0625 14.7793C9.87109 14.5605 9.57031 14.4512 9.31055 14.4512C8.73633 14.4512 8.32617 14.8477 8.32617 15.4082C8.32617 15.709 8.43555 15.9277 8.64062 16.1328L13.1523 20.4805C13.4258 20.7539 13.6719 20.8359 13.9453 20.8359Z" fill="white" fill-opacity="0.85"/>
 </g>
</svg>
