<svg version="1.1" xmlns="http://www.w3.org/2000/svg" xmlns:xlink="http://www.w3.org/1999/xlink" viewBox="0 0 25.5254 25.1699">
 <g>
  
  <path d="M4.29297 25.1699L20.877 25.1699C23.748 25.1699 25.1699 23.7617 25.1699 20.9453L25.1699 4.23828C25.1699 1.42188 23.748 0 20.877 0L4.29297 0C1.43555 0 0 1.42188 0 4.23828L0 20.9453C0 23.7617 1.43555 25.1699 4.29297 25.1699Z" style="fill:var(--color-0,hsl(0 0 0/0.85))"></path>
  <path d="M12.5781 17.1172C12.3184 17.1172 12.0723 17.0078 11.8672 16.7891L7.10938 11.9219C6.93164 11.7441 6.82227 11.4434 6.82227 11.2109C6.82227 10.6777 7.19141 10.2949 7.73828 10.2949C8.02539 10.2949 8.24414 10.377 8.42188 10.5684L9.21484 11.4434L11.7852 14.3281L11.6211 11.7441L11.6211 5.29102C11.6211 4.73047 12.0039 4.33398 12.5781 4.33398C13.125 4.33398 13.5215 4.73047 13.5215 5.29102L13.5215 11.7441L13.3711 14.3145L15.9004 11.457L16.7754 10.5684C16.9531 10.377 17.2129 10.2949 17.4727 10.2949C17.9922 10.2949 18.375 10.7051 18.375 11.2109C18.375 11.4844 18.293 11.7305 18.0605 11.9355L13.2891 16.7891C13.084 16.9805 12.8516 17.1172 12.5781 17.1172ZM7.30078 20.084C6.75391 20.084 6.37109 19.6875 6.37109 19.127C6.37109 18.5938 6.75391 18.1973 7.30078 18.1973L17.8965 18.1973C18.4434 18.1973 18.8262 18.5938 18.8262 19.127C18.8262 19.6875 18.4434 20.084 17.8965 20.084Z" style="fill:var(--color-1,white)"></path>
 </g>
</svg>