<?xml version="1.0" encoding="UTF-8"?>
<!--Generator: Apple Native CoreSVG 326-->
<!DOCTYPE svg
PUBLIC "-//W3C//DTD SVG 1.1//EN"
       "http://www.w3.org/Graphics/SVG/1.1/DTD/svg11.dtd">
<svg version="1.1" xmlns="http://www.w3.org/2000/svg" xmlns:xlink="http://www.w3.org/1999/xlink" viewBox="0 0 28.2461 27.9043">
 <g>
  <rect height="27.9043" opacity="0" width="28.2461" x="0" y="0"/>
  <path d="M13.9453 27.8906C21.6426 27.8906 27.8906 21.6426 27.8906 13.9453C27.8906 6.24805 21.6426 0 13.9453 0C6.24805 0 0 6.24805 0 13.9453C0 21.6426 6.24805 27.8906 13.9453 27.8906ZM13.9453 25.5664C7.51953 25.5664 2.32422 20.3711 2.32422 13.9453C2.32422 7.51953 7.51953 2.32422 13.9453 2.32422C20.3711 2.32422 25.5664 7.51953 25.5664 13.9453C25.5664 20.3711 20.3711 25.5664 13.9453 25.5664Z" fill="white" fill-opacity="0.85"/>
  <path d="M12.6602 19.8242C13.1523 19.8242 13.5215 19.4551 13.5215 18.9629L13.5215 16.1465L13.7402 16.1465C16.584 16.1465 18.3887 16.8711 19.6602 19.2773C19.9199 19.7422 20.248 19.8242 20.5625 19.8242C20.9453 19.8242 21.3281 19.4824 21.3281 18.8398C21.3281 13.3984 19.0039 10.0352 13.7402 10.0352L13.5215 10.0352L13.5215 7.24609C13.5215 6.75391 13.1523 6.34375 12.6465 6.34375C12.291 6.34375 12.0586 6.50781 11.6758 6.86328L5.85156 12.291C5.57812 12.5508 5.48242 12.8379 5.48242 13.084C5.48242 13.3301 5.57812 13.6172 5.85156 13.877L11.6758 19.3457C12.0176 19.6602 12.3047 19.8242 12.6602 19.8242Z" fill="white" fill-opacity="0.85"/>
 </g>
</svg>
