<?xml version="1.0" encoding="UTF-8"?>
<!--Generator: Apple Native CoreSVG 326-->
<!DOCTYPE svg
PUBLIC "-//W3C//DTD SVG 1.1//EN"
       "http://www.w3.org/Graphics/SVG/1.1/DTD/svg11.dtd">
<svg version="1.1" xmlns="http://www.w3.org/2000/svg" xmlns:xlink="http://www.w3.org/1999/xlink" viewBox="0 0 37.6934 28.6152">
 <g>
  <rect height="28.6152" opacity="0" width="37.6934" x="0" y="0"/>
  <path d="M13.1113 15.9277C14.4512 15.0938 14.4922 13.5488 13.1113 12.7148L2.74805 6.37109C1.43555 5.56445 0 6.16602 0 7.79297L0 20.8359C0 22.5039 1.46289 23.0645 2.74805 22.2715ZM11.6484 14.6016L2.47461 20.2891C2.31055 20.3848 1.98242 20.3984 1.98242 20.0566L1.98242 8.58594C1.98242 8.2168 2.33789 8.25781 2.47461 8.35352L11.6348 14.0273C11.9766 14.2461 11.8535 14.4785 11.6484 14.6016ZM18.6621 28.6152C19.1953 28.6152 19.6738 28.1914 19.6738 27.6582L19.6738 0.970703C19.6738 0.4375 19.1953 0.0273438 18.6621 0.0273438C18.1289 0.0273438 17.6641 0.4375 17.6641 0.970703L17.6641 27.6582C17.6641 28.1914 18.1289 28.6152 18.6621 28.6152ZM34.5762 22.2715C35.875 23.0645 37.3379 22.5039 37.3379 20.8359L37.3379 7.79297C37.3379 6.16602 35.9023 5.56445 34.5762 6.37109L24.2129 12.7148C22.8457 13.5488 22.873 15.0938 24.2129 15.9277ZM34.8496 20.2891L25.6895 14.6016C25.4707 14.4785 25.3613 14.2461 25.6895 14.0273L34.8496 8.35352C35 8.25781 35.3418 8.2168 35.3418 8.58594L35.3418 20.0566C35.3418 20.3984 35.0273 20.3848 34.8496 20.2891Z" fill="white" fill-opacity="0.85"/>
 </g>
</svg>
