<?xml version="1.0" encoding="UTF-8"?>
<!--Generator: Apple Native CoreSVG 326-->
<!DOCTYPE svg
PUBLIC "-//W3C//DTD SVG 1.1//EN"
       "http://www.w3.org/Graphics/SVG/1.1/DTD/svg11.dtd">
<svg version="1.1" xmlns="http://www.w3.org/2000/svg" xmlns:xlink="http://www.w3.org/1999/xlink" viewBox="0 0 28.2461 27.9043">
 <g>
  <rect height="27.9043" opacity="0" width="28.2461" x="0" y="0"/>
  <path d="M13.9453 27.8906C21.6426 27.8906 27.8906 21.6289 27.8906 13.9453C27.8906 6.24805 21.6426 0 13.9453 0C6.26172 0 0 6.24805 0 13.9453C0 21.6289 6.26172 27.8906 13.9453 27.8906Z" fill="white" fill-opacity="0.85"/>
  <path d="M20.918 15.4766C20.918 18.7441 18.7031 20.877 15.3945 20.877L13.5625 20.877C12.9062 20.877 12.4688 20.4668 12.4688 19.8516C12.4688 19.25 12.8926 18.8398 13.5352 18.8398L15.3945 18.8398C17.4727 18.8398 18.8809 17.5 18.8809 15.4766C18.8809 13.6035 17.5 12.3594 15.4082 12.3594L11.416 12.3594L10.0215 12.3047L10.6641 12.7559L12.3184 14.3555C12.5234 14.5605 12.6328 14.8066 12.6328 15.1074C12.6328 15.6953 12.1953 16.1602 11.6348 16.1602C11.3203 16.1602 11.0742 16.0508 10.8828 15.8594L7.30078 12.1953C7.04102 11.9355 6.93164 11.6348 6.93164 11.334C6.93164 11.0195 7.05469 10.7188 7.30078 10.459L10.8691 6.83594C11.0742 6.63086 11.3066 6.53516 11.6211 6.53516C12.209 6.53516 12.6328 6.98633 12.6328 7.58789C12.6328 7.86133 12.5234 8.13477 12.3184 8.3125L10.9375 9.65234L10.0078 10.3906L11.416 10.3223L15.4082 10.3223C18.7168 10.3223 20.918 12.373 20.918 15.4766Z" fill="white"/>
 </g>
</svg>
