<?xml version="1.0" encoding="UTF-8"?>
<!--Generator: Apple Native CoreSVG 326-->
<!DOCTYPE svg
PUBLIC "-//W3C//DTD SVG 1.1//EN"
       "http://www.w3.org/Graphics/SVG/1.1/DTD/svg11.dtd">
<svg version="1.1" xmlns="http://www.w3.org/2000/svg" xmlns:xlink="http://www.w3.org/1999/xlink" viewBox="0 0 32.5938 25.1699">
 <g>
  <rect height="25.1699" opacity="0" width="32.5938" x="0" y="0"/>
  <path d="M4.29297 25.1699L27.9453 25.1699C30.8164 25.1699 32.2383 23.7617 32.2383 20.9453L32.2383 4.23828C32.2383 1.42188 30.8164 0 27.9453 0L4.29297 0C1.43555 0 0 1.42188 0 4.23828L0 20.9453C0 23.7617 1.43555 25.1699 4.29297 25.1699Z" fill="white" fill-opacity="0.85"/>
  <path d="M8.14844 11.7441C7.54688 11.7441 7.15039 11.2793 7.15039 10.6504L7.15039 5.09961C7.15039 4.32031 7.60156 3.97852 8.27148 3.97852L13.877 3.97852C14.4922 3.97852 14.916 4.38867 14.916 4.99023C14.916 5.5918 14.4922 5.98828 13.8496 5.98828L12.0176 5.98828L10.2812 5.81055L12.168 7.54688L15.0664 10.459C15.2441 10.6504 15.3945 10.9102 15.3945 11.1836C15.3945 11.7988 14.9844 12.209 14.3828 12.209C14.0547 12.209 13.8223 12.0859 13.6172 11.8945L10.7188 8.99609L8.96875 7.15039L9.16016 8.98242L9.16016 10.6777C9.16016 11.3066 8.75 11.7441 8.14844 11.7441ZM24.0898 13.4395C24.6914 13.4395 25.1016 13.8906 25.1016 14.5195L25.1016 20.084C25.1016 20.8633 24.6367 21.1914 23.9668 21.1914L18.375 21.1914C17.7598 21.1914 17.3223 20.7949 17.3223 20.1934C17.3223 19.5918 17.7598 19.1816 18.4023 19.1816L20.2207 19.1816L21.9707 19.373L20.0703 17.6367L17.1719 14.7246C16.9941 14.5332 16.8438 14.2734 16.8438 14C16.8438 13.3711 17.2676 12.9746 17.8555 12.9746C18.1836 12.9746 18.416 13.0977 18.6348 13.2891L21.5195 16.1738L23.2695 18.0332L23.0918 16.2012L23.0918 14.4922C23.0918 13.8633 23.4883 13.4395 24.0898 13.4395Z" fill="white"/>
 </g>
</svg>
