<?xml version="1.0" encoding="UTF-8"?>
<!--Generator: Apple Native CoreSVG 326-->
<!DOCTYPE svg
PUBLIC "-//W3C//DTD SVG 1.1//EN"
       "http://www.w3.org/Graphics/SVG/1.1/DTD/svg11.dtd">
<svg version="1.1" xmlns="http://www.w3.org/2000/svg" xmlns:xlink="http://www.w3.org/1999/xlink" viewBox="0 0 49.5059 32.0879">
 <g>
  <rect height="32.0879" opacity="0" width="49.5059" x="0" y="0"/>
  <path d="M14.9844 19.7559L14.9844 29.4082C14.9844 30.9121 13.8223 32.0742 12.332 32.0742L2.625 32.0742C1.13477 32.0742 0 30.9121 0 29.4082L0 19.7559C0 18.252 1.13477 17.0762 2.625 17.0762L12.332 17.0762C13.8223 17.0762 14.9844 18.252 14.9844 19.7559ZM32.0742 19.7559L32.0742 29.4082C32.0742 30.9121 30.9121 32.0742 29.4219 32.0742L19.7148 32.0742C18.2246 32.0742 17.0898 30.9121 17.0898 29.4082L17.0898 19.7559C17.0898 18.252 18.2246 17.0762 19.7148 17.0762L29.4219 17.0762C30.9121 17.0762 32.0742 18.252 32.0742 19.7559ZM2.625 19.0039C2.22852 19.0039 1.92773 19.3184 1.92773 19.7559L1.92773 29.4082C1.92773 29.832 2.22852 30.1465 2.625 30.1465L12.332 30.1465C12.7422 30.1465 13.0566 29.832 13.0566 29.4082L13.0566 19.7559C13.0566 19.3184 12.7422 19.0039 12.332 19.0039ZM19.7148 19.0039C19.3184 19.0039 19.0176 19.3184 19.0176 19.7559L19.0176 29.4082C19.0176 29.832 19.3184 30.1465 19.7148 30.1465L29.4219 30.1465C29.832 30.1465 30.1465 29.832 30.1465 29.4082L30.1465 19.7559C30.1465 19.3184 29.832 19.0039 29.4219 19.0039ZM32.0742 2.66602L32.0742 12.332C32.0742 13.8359 30.9121 14.9844 29.4219 14.9844L19.7148 14.9844C18.2246 14.9844 17.0898 13.8359 17.0898 12.332L17.0898 2.66602C17.0898 1.16211 18.2246 0 19.7148 0L29.4219 0C30.9121 0 32.0742 1.16211 32.0742 2.66602ZM19.7148 1.92773C19.3184 1.92773 19.0176 2.24219 19.0176 2.66602L19.0176 12.332C19.0176 12.7422 19.3184 13.0566 19.7148 13.0566L29.4219 13.0566C29.832 13.0566 30.1465 12.7422 30.1465 12.332L30.1465 2.66602C30.1465 2.24219 29.832 1.92773 29.4219 1.92773Z" fill="white" fill-opacity="0.85"/>
  <path d="M49.1504 19.7559L49.1504 29.4082C49.1504 30.9121 48.0156 32.0742 46.5254 32.0742L36.8184 32.0742C35.3281 32.0742 34.166 30.9121 34.166 29.4082L34.166 19.7559C34.166 18.252 35.3281 17.0762 36.8184 17.0762L46.5254 17.0762C48.0156 17.0762 49.1504 18.252 49.1504 19.7559ZM38.7734 21.3965L38.7734 27.7402C38.7734 28.3281 39.4707 28.6973 40.0449 28.3691L45.2812 25.293C45.8008 24.9922 45.8145 24.1992 45.2949 23.8848L40.0449 20.7812C39.4707 20.4531 38.7734 20.8223 38.7734 21.3965Z" fill="white" fill-opacity="0.85"/>
 </g>
</svg>
