<svg version="1.1" xmlns="http://www.w3.org/2000/svg" xmlns:xlink="http://www.w3.org/1999/xlink" viewBox="0 0 26.0176 21.6152">
 <g>
  
  <path d="M24.377 21.6152C25.1016 21.6152 25.4297 21.1504 25.5527 20.5898C25.6348 20.1797 25.6621 19.4961 25.6621 18.7031C25.6621 12.0859 23.0234 9.24219 16.5293 9.24219L6.97266 9.24219L3.62305 9.43359L8.23047 5.22266L11.2656 2.13281C11.4844 1.91406 11.5938 1.59961 11.5938 1.27148C11.5938 0.587891 11.0742 0.0957031 10.4043 0.0957031C10.0762 0.0957031 9.77539 0.205078 9.47461 0.505859L0.423828 9.54297C0.150391 9.80273 0 10.1309 0 10.459C0 10.8008 0.150391 11.1152 0.423828 11.3887L9.50195 20.4531C9.78906 20.7129 10.0762 20.8359 10.4043 20.8359C11.0742 20.8359 11.5938 20.3438 11.5938 19.6602C11.5938 19.332 11.4844 19.0039 11.2656 18.7852L8.23047 15.6953L3.60938 11.4844L6.97266 11.6895L16.4062 11.6895C21.4238 11.6895 23.1875 13.7539 23.1875 18.8262C23.1875 19.4688 23.1602 19.9199 23.1602 20.3984C23.1602 21.123 23.666 21.6152 24.377 21.6152Z" style="fill:var(--color-0,hsl(0 0 0/0.85))"></path>
 </g>
</svg>