<svg version="1.1" xmlns="http://www.w3.org/2000/svg" xmlns:xlink="http://www.w3.org/1999/xlink" viewBox="0 0 32.8809 25.1973">
 <g>
  
  <path d="M27.6035 21.123C27.207 23.7754 26.127 25.1973 23.4336 25.1973L9.07812 25.1973C6.39844 25.1973 5.31836 23.7891 4.92188 21.123L2.9668 8.10742L29.5449 8.10742ZM15.4766 11.0469L11.457 14.7383C11.2383 14.9434 11.1016 15.1758 11.1016 15.5039C11.1016 16.0781 11.5117 16.4883 12.0996 16.4883C12.373 16.4883 12.6465 16.3652 12.8516 16.1602L14.0957 14.9023L15.2715 13.6719L15.1758 15.9688L15.1758 21.0137C15.1758 21.5879 15.6816 22.0664 16.2695 22.0664C16.8574 22.0664 17.3496 21.5879 17.3496 21.0137L17.3496 15.9688L17.2676 13.6719L18.4434 14.9023L19.6875 16.1602C19.8789 16.3652 20.1523 16.4883 20.4395 16.4883C21 16.4883 21.4375 16.0781 21.4375 15.5039C21.4375 15.1758 21.3008 14.9434 21.082 14.7383L17.0625 11.0469C16.7617 10.7734 16.543 10.6777 16.2695 10.6777C15.9961 10.6777 15.7773 10.7734 15.4766 11.0469ZM32.5254 2.47461L32.5254 3.80078C32.5254 5.33203 31.7461 6.24805 30.2012 6.24805L2.32422 6.24805C0.779297 6.24805 0 5.33203 0 3.80078L0 2.47461C0 0.943359 0.861328 0.0273438 2.32422 0.0273438L30.2012 0.0273438C31.7461 0.0273438 32.5254 0.943359 32.5254 2.47461Z" style="fill:var(--color-0,hsl(0 0 0/0.85))"></path>
 </g>
</svg>