<svg version="1.1" xmlns="http://www.w3.org/2000/svg" xmlns:xlink="http://www.w3.org/1999/xlink" viewBox="0 0 25.5254 25.1699">
 <g>
  
  <path d="M4.29297 25.1699L20.877 25.1699C23.748 25.1699 25.1699 23.7617 25.1699 20.9453L25.1699 4.23828C25.1699 1.42188 23.748 0 20.877 0L4.29297 0C1.43555 0 0 1.42188 0 4.23828L0 20.9453C0 23.7617 1.43555 25.1699 4.29297 25.1699ZM4.32031 22.9688C2.95312 22.9688 2.20117 22.2441 2.20117 20.8223L2.20117 4.36133C2.20117 2.93945 2.95312 2.20117 4.32031 2.20117L20.8496 2.20117C22.2031 2.20117 22.9688 2.93945 22.9688 4.36133L22.9688 20.8223C22.9688 22.2441 22.2031 22.9688 20.8496 22.9688Z" style="fill:var(--color-0,hsl(0 0 0/0.85))"></path>
  <path d="M12.6055 19.4688C12.8926 19.4688 13.125 19.3867 13.3984 19.1133L17.9102 14.7656C18.1152 14.5605 18.2246 14.3418 18.2246 14.041C18.2246 13.4805 17.8008 13.084 17.2266 13.084C16.9668 13.084 16.6797 13.1934 16.4883 13.4121L14.4102 15.627L13.6035 16.4746L13.6992 14.4238L13.6992 6.74023C13.6992 6.16602 13.1934 5.6875 12.6055 5.6875C12.0176 5.6875 11.5254 6.16602 11.5254 6.74023L11.5254 14.4238L11.6074 16.4746L10.8008 15.627L8.72266 13.4121C8.53125 13.1934 8.23047 13.084 7.9707 13.084C7.39648 13.084 6.98633 13.4805 6.98633 14.041C6.98633 14.3418 7.0957 14.5605 7.31445 14.7656L11.8125 19.1133C12.0859 19.3867 12.332 19.4688 12.6055 19.4688Z" style="fill:var(--color-1,hsl(0 0 0/0.85))"></path>
 </g>
</svg>