<svg version="1.1" xmlns="http://www.w3.org/2000/svg" xmlns:xlink="http://www.w3.org/1999/xlink" viewBox="0 0 25.5254 25.2246">
 <g>
  
  <path d="M4.29297 25.1699L20.877 25.1699C23.748 25.1699 25.1699 23.748 25.1699 20.9316L25.1699 4.22461C25.1699 1.4082 23.748 0 20.877 0L4.29297 0C1.43555 0 0 1.4082 0 4.22461L0 20.9316C0 23.748 1.43555 25.1699 4.29297 25.1699Z" style="fill:var(--color-0,hsl(0 0 0/0.85))"></path>
  <path d="M19.5645 14.0957C19.5645 17.3633 17.3496 19.4961 14.0547 19.4961L12.209 19.4961C11.5527 19.4961 11.1152 19.0859 11.1152 18.4844C11.1152 17.8691 11.5391 17.459 12.1816 17.459L14.0547 17.459C16.1191 17.459 17.5273 16.1191 17.5273 14.0957C17.5273 12.2363 16.1465 10.9785 14.0684 10.9785L10.0762 10.9785L8.66797 10.9238L9.31055 11.375L10.9648 12.9746C11.1699 13.1797 11.293 13.4258 11.293 13.7266C11.293 14.3145 10.8418 14.7793 10.2812 14.7793C9.9668 14.7793 9.7207 14.6699 9.5293 14.4785L5.94727 10.8145C5.6875 10.5547 5.57812 10.2539 5.57812 9.95312C5.57812 9.65234 5.70117 9.33789 5.94727 9.0918L9.51562 5.46875C9.7207 5.26367 9.95312 5.1543 10.2676 5.1543C10.8555 5.1543 11.293 5.61914 11.293 6.20703C11.293 6.48047 11.1699 6.75391 10.9648 6.93164L9.58398 8.27148L8.6543 9.00977L10.0762 8.94141L14.0684 8.94141C17.3633 8.94141 19.5645 11.0059 19.5645 14.0957Z" style="fill:var(--color-1,white)"></path>
 </g>
</svg>