<svg version="1.1" xmlns="http://www.w3.org/2000/svg" xmlns:xlink="http://www.w3.org/1999/xlink" viewBox="0 0 25.4434 29.4902">
 <g>
  
  <path d="M12.5371 29.4902C13.002 29.4902 13.5215 29.3125 14.0137 28.793L24.1035 18.0059C24.7871 17.2812 25.0879 16.8301 25.0879 16.1602C25.0879 15.2031 24.3223 14.5195 23.4062 14.5195L18.2383 14.5195L18.2383 3.43164C18.2383 1.25781 17.0078 0.0136719 14.8887 0.0136719L10.1719 0.0136719C8.05273 0.0136719 6.82227 1.25781 6.82227 3.43164L6.82227 14.5195L1.59961 14.5195C0.683594 14.5195 0 15.2031 0 16.1328C0 16.8027 0.273438 17.3496 0.888672 18.0059L11.0742 28.793C11.5664 29.3125 12.0859 29.4902 12.5371 29.4902ZM12.5371 27.0293C12.4551 27.0293 12.3867 27.002 12.2773 26.8926L3.0625 17.1445C2.98047 17.0625 2.93945 16.9941 2.93945 16.9121C2.93945 16.8027 3.02148 16.7207 3.14453 16.7207L8.43555 16.7207C8.75 16.7207 8.88672 16.584 8.88672 16.2695L8.88672 3.45898C8.88672 2.58398 9.39258 2.07812 10.2812 2.07812L14.793 2.07812C15.6816 2.07812 16.1738 2.58398 16.1738 3.45898L16.1738 16.2695C16.1738 16.584 16.3105 16.7207 16.625 16.7207L22.0527 16.7207C22.1758 16.7207 22.2441 16.8027 22.2441 16.9121C22.2441 17.0078 22.2031 17.0898 22.1348 17.1582L12.7969 26.8926C12.7012 26.9883 12.6191 27.0293 12.5371 27.0293Z" style="fill:var(--color-0,hsl(0 0 0/0.85))"></path>
 </g>
</svg>