<svg version="1.1" xmlns="http://www.w3.org/2000/svg" xmlns:xlink="http://www.w3.org/1999/xlink" viewBox="0 0 28.2461 27.9043">
 <g>
  
  <path d="M13.9453 27.8906C21.6426 27.8906 27.8906 21.6426 27.8906 13.9453C27.8906 6.24805 21.6426 0 13.9453 0C6.24805 0 0 6.24805 0 13.9453C0 21.6426 6.24805 27.8906 13.9453 27.8906ZM13.9453 25.5664C7.51953 25.5664 2.32422 20.3711 2.32422 13.9453C2.32422 7.51953 7.51953 2.32422 13.9453 2.32422C20.3711 2.32422 25.5664 7.51953 25.5664 13.9453C25.5664 20.3711 20.3711 25.5664 13.9453 25.5664Z" style="fill:var(--color-0,hsl(0 0 0/0.85))"></path>
  <path d="M13.959 5.44141C13.6582 5.44141 13.4121 5.57812 13.1523 5.83789L9.20117 9.77539C9.02344 9.95312 8.91406 10.1992 8.91406 10.4863C8.91406 11.0469 9.35156 11.4707 9.91211 11.4707C10.2129 11.4707 10.459 11.3613 10.6367 11.1699L11.6484 10.1309L13.043 8.47656L12.9336 11.375L12.9336 16.5156L13.043 19.4141L11.6484 17.7598L10.6367 16.7207C10.459 16.5156 10.2129 16.4199 9.91211 16.4199C9.35156 16.4199 8.91406 16.8438 8.91406 17.4043C8.91406 17.6777 9.02344 17.9375 9.20117 18.1152L13.1523 22.0527C13.4121 22.3125 13.6582 22.4492 13.959 22.4492C14.2461 22.4492 14.4785 22.3125 14.752 22.0527L18.7168 18.1152C18.8945 17.9375 18.9902 17.6777 18.9902 17.4043C18.9902 16.8438 18.5664 16.4199 18.0059 16.4199C17.7051 16.4199 17.459 16.5293 17.2812 16.7207L16.2559 17.7598L14.875 19.4004L14.9844 16.5156L14.9844 11.375L14.875 8.49023L16.2559 10.1309L17.2812 11.1699C17.459 11.3477 17.7051 11.4707 18.0059 11.4707C18.5664 11.4707 18.9902 11.0469 18.9902 10.4863C18.9902 10.1992 18.8945 9.95312 18.7168 9.77539L14.752 5.83789C14.4785 5.57812 14.2461 5.44141 13.959 5.44141Z" style="fill:var(--color-1,hsl(0 0 0/0.85))"></path>
 </g>
</svg>