<svg version="1.1" xmlns="http://www.w3.org/2000/svg" xmlns:xlink="http://www.w3.org/1999/xlink" viewBox="0 0 27.2891 25.9355">
 <g>
  
  <path d="M13.5762 25.9355C13.8633 25.9355 14.2734 25.7441 14.5742 25.5664C22.2852 20.6445 27.166 14.916 27.166 9.0918C27.166 4.25195 23.8438 0.833984 19.5371 0.833984C16.8711 0.833984 14.8203 2.31055 13.5762 4.56641C12.3594 2.32422 10.2949 0.833984 7.61523 0.833984C3.32227 0.833984 0 4.25195 0 9.0918C0 14.916 4.88086 20.6445 12.5918 25.5664C12.8789 25.7441 13.3027 25.9355 13.5762 25.9355Z" style="fill:var(--color-0,hsl(0 0 0/0.85))"></path>
  <path d="M14.5605 9.05078L14.5605 14.1367L14.4648 16.4336L15.6406 15.2031L16.8848 13.9453C17.0898 13.7402 17.3496 13.6172 17.6367 13.6172C18.1973 13.6172 18.6348 14.0273 18.6348 14.6016C18.6348 14.9297 18.498 15.1621 18.2793 15.3672L14.2598 19.0449C13.959 19.332 13.7402 19.4141 13.4668 19.4141C13.1934 19.4141 12.9746 19.332 12.6738 19.0449L8.6543 15.3672C8.43555 15.1621 8.29883 14.9297 8.29883 14.6016C8.29883 14.0273 8.70898 13.6172 9.29688 13.6172C9.57031 13.6172 9.85742 13.7402 10.0488 13.9453L11.293 15.2031L12.4688 16.4336L12.3867 14.1367L12.3867 9.05078C12.3867 8.47656 12.8789 7.99805 13.4668 7.99805C14.0547 7.99805 14.5605 8.47656 14.5605 9.05078Z" style="fill:var(--color-1,white)"></path>
 </g>
</svg>