<svg version="1.1" xmlns="http://www.w3.org/2000/svg" xmlns:xlink="http://www.w3.org/1999/xlink" viewBox="0 0 25.5254 25.1699">
 <g>
  
  <path d="M4.29297 25.1699L20.877 25.1699C23.748 25.1699 25.1699 23.7617 25.1699 20.9453L25.1699 4.23828C25.1699 1.42188 23.748 0 20.877 0L4.29297 0C1.43555 0 0 1.42188 0 4.23828L0 20.9453C0 23.7617 1.43555 25.1699 4.29297 25.1699ZM4.32031 22.9688C2.95312 22.9688 2.20117 22.2441 2.20117 20.8223L2.20117 4.36133C2.20117 2.93945 2.95312 2.20117 4.32031 2.20117L20.8496 2.20117C22.2031 2.20117 22.9688 2.93945 22.9688 4.36133L22.9688 20.8223C22.9688 22.2441 22.2031 22.9688 20.8496 22.9688Z" style="fill:var(--color-0,hsl(0 0 0/0.85))"></path>
  <path d="M8.29883 9.1875C7.69727 9.1875 7.30078 9.63867 7.30078 10.2812L7.30078 16.7344C7.30078 17.541 7.73828 17.8555 8.43555 17.8555L14.916 17.8555C15.5586 17.8555 15.9688 17.459 15.9688 16.8574C15.9688 16.2559 15.5449 15.8594 14.8887 15.8594L12.4004 15.8594L10.377 16.0781L12.5098 14.082L17.5547 9.05078C17.7461 8.85938 17.8828 8.58594 17.8828 8.3125C17.8828 7.69727 17.4727 7.30078 16.8711 7.30078C16.543 7.30078 16.2969 7.42383 16.0918 7.61523L11.0605 12.6465L9.0918 14.752L9.29688 12.6191L9.29688 10.2539C9.29688 9.59766 8.90039 9.1875 8.29883 9.1875Z" style="fill:var(--color-1,hsl(0 0 0/0.85))"></path>
 </g>
</svg>