<?xml version="1.0" encoding="UTF-8"?>
<!--Generator: Apple Native CoreSVG 326-->
<!DOCTYPE svg
PUBLIC "-//W3C//DTD SVG 1.1//EN"
       "http://www.w3.org/Graphics/SVG/1.1/DTD/svg11.dtd">
<svg version="1.1" xmlns="http://www.w3.org/2000/svg" xmlns:xlink="http://www.w3.org/1999/xlink" viewBox="0 0 22.1074 22.3262">
 <g>
  <rect height="22.3262" opacity="0" width="22.1074" x="0" y="0"/>
  <path d="M21.752 1.66797C21.752 0.65625 20.9727 0.0273438 19.7832 0.0273438L1.95508 0.0136719C0.765625 0.0136719 0 0.642578 0 1.6543C0 2.20117 0.246094 2.65234 0.519531 3.22656L9.05078 20.7949C9.625 21.957 10.1445 22.3262 10.8691 22.3262C11.5938 22.3262 12.127 21.957 12.7012 20.7949L21.2188 3.22656C21.5059 2.66602 21.752 2.21484 21.752 1.66797ZM19.1406 2.36523C19.1406 2.41992 19.1133 2.47461 19.0859 2.54297L11.0332 19.2637C10.9922 19.332 10.9512 19.3867 10.8691 19.3867C10.8008 19.3867 10.7598 19.332 10.7188 19.2637L2.66602 2.5293C2.63867 2.46094 2.61133 2.40625 2.61133 2.35156C2.61133 2.26953 2.65234 2.21484 2.76172 2.21484L18.9766 2.22852C19.0859 2.22852 19.1406 2.2832 19.1406 2.36523Z" fill="white" fill-opacity="0.85"/>
 </g>
</svg>
