<?xml version="1.0" encoding="UTF-8"?>
<!--Generator: Apple Native CoreSVG 326-->
<!DOCTYPE svg
PUBLIC "-//W3C//DTD SVG 1.1//EN"
       "http://www.w3.org/Graphics/SVG/1.1/DTD/svg11.dtd">
<svg version="1.1" xmlns="http://www.w3.org/2000/svg" xmlns:xlink="http://www.w3.org/1999/xlink" viewBox="0 0 25.5254 25.1699">
 <g>
  <rect height="25.1699" opacity="0" width="25.5254" x="0" y="0"/>
  <path d="M4.29297 25.1699L20.877 25.1699C23.748 25.1699 25.1699 23.7617 25.1699 20.9453L25.1699 4.23828C25.1699 1.42188 23.748 0 20.877 0L4.29297 0C1.43555 0 0 1.42188 0 4.23828L0 20.9453C0 23.7617 1.43555 25.1699 4.29297 25.1699ZM4.32031 22.9688C2.95312 22.9688 2.20117 22.2441 2.20117 20.8223L2.20117 4.36133C2.20117 2.93945 2.95312 2.20117 4.32031 2.20117L20.8496 2.20117C22.2031 2.20117 22.9688 2.93945 22.9688 4.36133L22.9688 20.8223C22.9688 22.2441 22.2031 22.9688 20.8496 22.9688Z" fill="white" fill-opacity="0.85"/>
  <path d="M16.8711 15.9688C17.4727 15.9688 17.8828 15.5039 17.8828 14.875L17.8828 8.42188C17.8828 7.61523 17.4316 7.30078 16.7344 7.30078L10.2539 7.30078C9.61133 7.30078 9.20117 7.69727 9.20117 8.29883C9.20117 8.90039 9.625 9.29688 10.2812 9.29688L12.7695 9.29688L14.793 9.07812L12.6602 11.0605L7.61523 16.1055C7.42383 16.2969 7.30078 16.5703 7.30078 16.8438C7.30078 17.459 7.69727 17.8555 8.29883 17.8555C8.62695 17.8555 8.88672 17.7324 9.07812 17.541L14.1094 12.5098L16.0781 10.4043L15.873 12.5371L15.873 14.9023C15.873 15.5449 16.2695 15.9688 16.8711 15.9688Z" fill="white" fill-opacity="0.85"/>
 </g>
</svg>
