<svg version="1.1" xmlns="http://www.w3.org/2000/svg" xmlns:xlink="http://www.w3.org/1999/xlink" viewBox="0 0 31.3633 28.6426">
 <g>
  
  <path d="M5.93359 28.6426C7.7793 28.6426 11.5527 26.7832 14.3281 24.8008C23.8574 25.0605 31.0078 19.5918 31.0078 12.4277C31.0078 5.55078 24.1172 0 15.5039 0C6.89062 0 0 5.55078 0 12.4277C0 16.9121 2.87109 20.8906 7.19141 22.8867C6.57617 24.0762 5.42773 25.6895 4.8125 26.4961C4.08789 27.4531 4.52539 28.6426 5.93359 28.6426ZM7.36914 26.373C7.25977 26.4141 7.21875 26.332 7.28711 26.2363C8.05273 25.293 9.14648 23.8711 9.61133 22.9961C9.99414 22.2852 9.89844 21.6562 9.02344 21.2461C4.73047 19.25 2.26953 16.0645 2.26953 12.4277C2.26953 6.82227 8.13477 2.25586 15.5039 2.25586C22.8867 2.25586 28.752 6.82227 28.752 12.4277C28.752 18.0195 22.8867 22.5859 15.5039 22.5859C15.2305 22.5859 14.8066 22.5723 14.2598 22.5586C13.6855 22.5586 13.248 22.7363 12.7285 23.1465C11.0469 24.3633 8.61328 25.8672 7.36914 26.373Z" style="fill:var(--color-0,hsl(0 0 0/0.85))"></path>
  <path d="M15.5176 5.66016C15.2441 5.66016 14.998 5.75586 14.7246 6.0293L10.2129 10.377C10.0078 10.582 9.89844 10.8008 9.89844 11.0879C9.89844 11.6484 10.3086 12.0449 10.8828 12.0449C11.1426 12.0449 11.4434 11.9492 11.6348 11.7305L13.7129 9.50195L14.5195 8.6543L14.4375 10.7051L14.4375 18.3887C14.4375 18.9629 14.9297 19.4551 15.5176 19.4551C16.1055 19.4551 16.6113 18.9629 16.6113 18.3887L16.6113 10.7051L16.5156 8.66797L17.3223 9.50195L19.4004 11.7305C19.5918 11.9492 19.8789 12.0449 20.1387 12.0449C20.7129 12.0449 21.1367 11.6484 21.1367 11.0879C21.1367 10.8008 21.0273 10.582 20.8223 10.377L16.3105 6.0293C16.0371 5.75586 15.8047 5.66016 15.5176 5.66016Z" style="fill:var(--color-1,hsl(0 0 0/0.85))"></path>
 </g>
</svg>