<svg version="1.1" xmlns="http://www.w3.org/2000/svg" xmlns:xlink="http://www.w3.org/1999/xlink" viewBox="0 0 28.2461 33.3767">
 <g>
  
  <path d="M0 16.6815C0 23.5995 5.05859 29.3554 11.6758 30.4218L11.6758 32.3768C11.6758 33.3612 12.3457 33.621 13.0977 33.0741L17.4453 30.0253C18.0879 29.5741 18.0742 28.9179 17.4453 28.4804L13.084 25.4179C12.3457 24.8983 11.6758 25.1444 11.6758 26.1151L11.6758 28.0429C6.34375 27.0175 2.32422 22.328 2.32422 16.6815C2.32422 13.2636 3.78711 10.1874 6.16602 8.04091C6.76758 7.48036 6.74023 6.89247 6.42578 6.4413C6.05664 5.93544 5.25 5.74403 4.63477 6.30458C1.77734 8.86122 0 12.58 0 16.6815ZM27.8906 16.6815C27.8906 9.76356 22.832 4.0077 16.2148 2.9413L16.2148 0.972548C16.2148-0.0118272 15.5449-0.257921 14.793 0.275282L10.4453 3.33778C9.80273 3.78895 9.81641 4.4452 10.4453 4.8827L14.8066 7.9452C15.5449 8.46474 16.2148 8.20497 16.2148 7.24794L16.2148 5.3202C21.5469 6.34559 25.5664 11.035 25.5664 16.6815C25.5664 20.0858 24.1035 23.1757 21.7383 25.3085C21.123 25.869 21.1504 26.4706 21.4648 26.9081C21.834 27.4276 22.6406 27.619 23.2559 27.0585C26.1133 24.5018 27.8906 20.7831 27.8906 16.6815Z" style="fill:var(--color-0,hsl(0 0 0/0.85))"></path>
 </g>
</svg>