<?xml version="1.0" encoding="UTF-8"?>
<!--Generator: Apple Native CoreSVG 326-->
<!DOCTYPE svg
PUBLIC "-//W3C//DTD SVG 1.1//EN"
       "http://www.w3.org/Graphics/SVG/1.1/DTD/svg11.dtd">
<svg version="1.1" xmlns="http://www.w3.org/2000/svg" xmlns:xlink="http://www.w3.org/1999/xlink" viewBox="0 0 35.4648 22.2168">
 <g>
  <rect height="22.2168" opacity="0" width="35.4648" x="0" y="0"/>
  <path d="M25.3613 4.32031L25.3613 17.8691C25.3613 20.6172 23.7207 22.2031 20.9727 22.2031L6.28906 22.2031C3.54102 22.2031 1.90039 20.6172 1.90039 17.8691L1.90039 4.32031C1.90039 1.58594 3.66406 0 6.28906 0L21.1094 0C23.8574 0 25.3613 1.58594 25.3613 4.32031ZM35.4648 3.99219L35.4648 18.2109C35.4648 19.332 34.7676 20.1113 33.7012 20.1113C33.209 20.1113 32.6621 19.8516 32.1973 19.4414L27.2207 15.1348L27.2207 7.05469L32.1973 2.76172C32.6621 2.35156 33.209 2.0918 33.7012 2.0918C34.7676 2.0918 35.4648 2.87109 35.4648 3.99219ZM17.5957 5.72852L11.8398 11.498L9.66602 13.8633L9.89844 9.83008L9.89844 7.94336C9.89844 7.39648 9.48828 6.93164 8.94141 6.93164C8.36719 6.93164 7.88867 7.36914 7.88867 7.94336L7.88867 15.7773C7.88867 16.5293 8.25781 16.8984 9.00977 16.8984L16.8574 16.8984C17.4316 16.8984 17.8828 16.4336 17.8828 15.8457C17.8828 15.2852 17.4043 14.8887 16.8574 14.8887L14.9434 14.8887L10.9102 15.1211L13.2891 12.9609L19.0449 7.17773C19.291 6.94531 19.3867 6.69922 19.3867 6.39844C19.3867 5.83789 18.9355 5.41406 18.334 5.41406C18.0332 5.41406 17.8145 5.50977 17.5957 5.72852Z" fill="white" fill-opacity="0.85"/>
 </g>
</svg>
