<?xml version="1.0" encoding="UTF-8"?>
<!--Generator: Apple Native CoreSVG 326-->
<!DOCTYPE svg
PUBLIC "-//W3C//DTD SVG 1.1//EN"
       "http://www.w3.org/Graphics/SVG/1.1/DTD/svg11.dtd">
<svg version="1.1" xmlns="http://www.w3.org/2000/svg" xmlns:xlink="http://www.w3.org/1999/xlink" viewBox="0 0 28.2461 27.9043">
 <g>
  <rect height="27.9043" opacity="0" width="28.2461" x="0" y="0"/>
  <path d="M13.9453 27.8906C21.6426 27.8906 27.8906 21.6289 27.8906 13.9453C27.8906 6.24805 21.6426 0 13.9453 0C6.26172 0 0 6.24805 0 13.9453C0 21.6289 6.26172 27.8906 13.9453 27.8906Z" fill="white" fill-opacity="0.85"/>
  <path d="M6.83594 13.9316C6.83594 13.6309 6.93164 13.3984 7.21875 13.1113L11.7031 8.46289C11.9082 8.24414 12.1406 8.13477 12.4414 8.13477C13.0156 8.13477 13.4395 8.57227 13.4395 9.16016C13.4395 9.43359 13.3301 9.73438 13.0977 9.92578L10.8145 12.0723L9.95312 12.8926L12.0586 12.7969L19.9609 12.7969C20.5625 12.7969 21.0684 13.3164 21.0684 13.9316C21.0684 14.5469 20.5625 15.0527 19.9609 15.0527L12.0586 15.0527L9.93945 14.9707L10.8145 15.791L13.0977 17.9375C13.3301 18.1289 13.4395 18.4434 13.4395 18.7168C13.4395 19.3047 13.0156 19.7285 12.4414 19.7285C12.1406 19.7285 11.9082 19.6191 11.7031 19.4004L7.21875 14.752C6.93164 14.4648 6.83594 14.2188 6.83594 13.9316Z" fill="white"/>
 </g>
</svg>
