<?xml version="1.0" encoding="UTF-8"?>
<!--Generator: Apple Native CoreSVG 326-->
<!DOCTYPE svg
PUBLIC "-//W3C//DTD SVG 1.1//EN"
       "http://www.w3.org/Graphics/SVG/1.1/DTD/svg11.dtd">
<svg version="1.1" xmlns="http://www.w3.org/2000/svg" xmlns:xlink="http://www.w3.org/1999/xlink" viewBox="0 0 26.4824 26.1543">
 <g>
  <rect height="26.1543" opacity="0" width="26.4824" x="0" y="0"/>
  <path d="M0 7.38281C0 8.58594 1.28516 8.88672 2.05078 8.10742L8.10742 2.05078C8.90039 1.27148 8.58594 0 7.38281 0L1.24414 0C0.478516 0 0 0.519531 0 1.25781ZM3.52734 5.25L20.8496 22.5859L22.5859 20.877L5.26367 3.52734ZM26.127 18.7441C26.127 17.5273 24.8418 17.2402 24.0625 18.0059L18.0059 24.0625C17.2266 24.8555 17.541 26.127 18.7441 26.127L24.8828 26.127C25.6484 26.127 26.127 25.5938 26.127 24.8691ZM26.127 7.38281L26.127 1.25781C26.127 0.519531 25.6484 0 24.8828 0L18.7441 0C17.541 0 17.2266 1.27148 18.0059 2.05078L24.0625 8.10742C24.8418 8.88672 26.127 8.58594 26.127 7.38281ZM5.26367 22.5859L22.5996 5.25L20.8633 3.52734L3.52734 20.8633ZM0 18.7441L0 24.8691C0 25.5938 0.478516 26.127 1.24414 26.127L7.38281 26.127C8.58594 26.127 8.90039 24.8555 8.10742 24.0625L2.05078 18.0059C1.28516 17.2402 0 17.5273 0 18.7441Z" fill="white" fill-opacity="0.85"/>
 </g>
</svg>
