<?xml version="1.0" encoding="UTF-8"?>
<!--Generator: Apple Native CoreSVG 326-->
<!DOCTYPE svg
PUBLIC "-//W3C//DTD SVG 1.1//EN"
       "http://www.w3.org/Graphics/SVG/1.1/DTD/svg11.dtd">
<svg version="1.1" xmlns="http://www.w3.org/2000/svg" xmlns:xlink="http://www.w3.org/1999/xlink" viewBox="0 0 21.6973 25.8262">
 <g>
  <rect height="25.8262" opacity="0" width="21.6973" x="0" y="0"/>
  <path d="M18.4434 25.8262C19.2363 25.8262 19.8926 25.8125 20.3164 25.7305C20.8496 25.6074 21.3418 25.2656 21.3418 24.5684C21.3418 23.8574 20.8223 23.4062 20.125 23.4062C19.6465 23.4062 19.209 23.4336 18.5664 23.4336C13.7129 23.4336 11.5527 21.7793 11.5664 16.8301L11.5801 7.47852L11.4707 3.75977L14.2051 6.76758L18.6895 11.252C18.9082 11.4707 19.2227 11.5801 19.5508 11.5801C20.2344 11.5801 20.7266 11.0605 20.7266 10.3906C20.7266 10.0625 20.6172 9.77539 20.3574 9.50195L11.2793 0.410156C11.0195 0.136719 10.7051 0 10.3633 0C10.0215 0 9.70703 0.136719 9.44727 0.410156L0.382812 9.50195C0.123047 9.77539 0 10.0625 0 10.3906C0 11.0605 0.492188 11.5801 1.17578 11.5801C1.50391 11.5801 1.83203 11.4707 2.03711 11.252L6.52148 6.76758L9.24219 3.77344L9.14648 7.47852L9.14648 16.9531C9.14648 23.3105 12.127 25.8262 18.4434 25.8262Z" fill="white" fill-opacity="0.85"/>
 </g>
</svg>
