<svg version="1.1" xmlns="http://www.w3.org/2000/svg" xmlns:xlink="http://www.w3.org/1999/xlink" viewBox="0 0 33.9336 26.9473">
 <g>
  
  <path d="M22.2578 1.16211L23.3516 2.39258C23.9668 3.07617 24.2949 3.29492 25.375 3.29492L29.2852 3.29492C32.1289 3.29492 33.5781 4.70312 33.5781 7.51953L33.5781 21.834C33.5781 24.6504 32.1289 26.0723 29.2852 26.0723L4.29297 26.0723C1.43555 26.0723 0 24.6504 0 21.834L0 7.51953C0 4.70312 1.43555 3.29492 4.29297 3.29492L8.10742 3.29492C9.17383 3.29492 9.51562 3.0625 10.1309 2.39258L11.2246 1.16211C11.9082 0.410156 12.6055 0 14.0137 0L19.4688 0C20.877 0 21.5742 0.410156 22.2578 1.16211ZM9.48828 10.9375L7.30078 14.0137C6.95898 14.5059 7.08203 15.1074 7.72461 15.1074L9.17383 15.1074C9.84375 18.9082 12.9199 21.5195 16.8164 21.5195C18.5254 21.5195 20.2344 20.9316 21.4238 19.9473C22.0801 19.4414 22.2441 18.7168 21.752 18.2109C21.2734 17.6914 20.6582 17.7734 20.1113 18.1699C19.127 18.9492 18.1426 19.373 16.8164 19.373C14.0957 19.373 11.8398 17.541 11.2246 15.1074L12.6602 15.1074C13.3027 15.1074 13.4531 14.5059 13.0977 14.0137L10.8691 10.9375C10.5137 10.4316 9.88477 10.3906 9.48828 10.9375ZM12.1816 7.79297C11.5254 8.29883 11.3613 9.00977 11.8535 9.51562C12.3457 10.0352 12.9473 9.9668 13.4941 9.55664C14.4648 8.76367 15.4629 8.36719 16.7891 8.36719C19.5098 8.36719 21.7656 10.1992 22.3809 12.6191L20.8496 12.6191C20.2207 12.6191 20.0703 13.2344 20.4258 13.7129L22.6406 16.8027C23.0098 17.3086 23.6387 17.3496 24.0352 16.8027L26.2227 13.7129C26.5645 13.2207 26.4414 12.6191 25.7988 12.6191L24.4316 12.6191C23.7617 8.81836 20.6855 6.20703 16.7891 6.20703C15.0801 6.20703 13.3711 6.80859 12.1816 7.79297Z" style="fill:var(--color-0,hsl(0 0 0/0.85))"></path>
 </g>
</svg>