<?xml version="1.0" encoding="UTF-8"?>
<!--Generator: Apple Native CoreSVG 326-->
<!DOCTYPE svg
PUBLIC "-//W3C//DTD SVG 1.1//EN"
       "http://www.w3.org/Graphics/SVG/1.1/DTD/svg11.dtd">
<svg version="1.1" xmlns="http://www.w3.org/2000/svg" xmlns:xlink="http://www.w3.org/1999/xlink" viewBox="0 0 41.9727 25.9902">
 <g>
  <rect height="25.9902" opacity="0" width="41.9727" x="0" y="0"/>
  <path d="M20.8086 25.9902C21.5195 25.9902 22.0254 25.4844 22.0254 24.7734L22.0254 1.18945C22.0254 0.492188 21.5195 0 20.8086 0C20.0977 0 19.5781 0.492188 19.5781 1.18945L19.5781 24.7734C19.5781 25.4844 20.0977 25.9902 20.8086 25.9902Z" fill="white" fill-opacity="0.85"/>
  <path d="M0 12.9883C0 13.6992 0.492188 14.2188 1.20312 14.2188L10.5273 14.2188L13.248 14.123L8.73633 18.4844C8.50391 18.7031 8.39453 19.0312 8.39453 19.3594C8.39453 20.043 8.91406 20.5488 9.59766 20.5488C9.93945 20.5488 10.2402 20.4121 10.5137 20.1387L16.7617 13.9043C17.0215 13.6445 17.1855 13.3301 17.1855 12.9883C17.1855 12.6465 17.0215 12.332 16.7617 12.0723L10.5137 5.83789C10.2402 5.56445 9.93945 5.42773 9.59766 5.42773C8.91406 5.42773 8.39453 5.93359 8.39453 6.61719C8.39453 6.94531 8.50391 7.27344 8.73633 7.49219L13.248 11.8535L10.5273 11.7715L1.20312 11.7715C0.492188 11.7715 0 12.2773 0 12.9883ZM41.6172 12.9883C41.6172 12.2773 41.1113 11.7715 40.4004 11.7715L31.0898 11.7715L28.3555 11.8535L32.8672 7.49219C33.0996 7.27344 33.209 6.94531 33.209 6.61719C33.209 5.93359 32.6895 5.42773 32.0195 5.42773C31.6777 5.42773 31.3633 5.56445 31.0898 5.83789L24.8418 12.0723C24.582 12.332 24.4316 12.6465 24.4316 12.9883C24.4316 13.3301 24.582 13.6445 24.8418 13.9043L31.0898 20.1387C31.3633 20.4121 31.6777 20.5488 32.0195 20.5488C32.6895 20.5488 33.209 20.043 33.209 19.3594C33.209 19.0312 33.0996 18.7031 32.8672 18.4844L28.3555 14.123L31.0898 14.2188L40.4004 14.2188C41.1113 14.2188 41.6172 13.6992 41.6172 12.9883Z" fill="white" fill-opacity="0.85"/>
 </g>
</svg>
