<?xml version="1.0" encoding="UTF-8"?>
<!--Generator: Apple Native CoreSVG 326-->
<!DOCTYPE svg
PUBLIC "-//W3C//DTD SVG 1.1//EN"
       "http://www.w3.org/Graphics/SVG/1.1/DTD/svg11.dtd">
<svg version="1.1" xmlns="http://www.w3.org/2000/svg" xmlns:xlink="http://www.w3.org/1999/xlink" viewBox="0 0 20.5488 20.2207">
 <g>
  <rect height="20.2207" opacity="0" width="20.5488" x="0" y="0"/>
  <path d="M0 5.1543L0.0136719 18.9082C0.0136719 19.6875 0.519531 20.2207 1.33984 20.2207L15.0938 20.2207C15.8594 20.2207 16.3789 19.6465 16.3789 18.9902C16.3789 18.334 15.791 17.7734 15.1484 17.7734L10.3906 17.7734L3.71875 17.9922L6.26172 15.75L19.8105 2.1875C20.0566 1.94141 20.1934 1.61328 20.1934 1.32617C20.1934 0.669922 19.5918 0.0410156 18.9082 0.0410156C18.6074 0.0410156 18.3066 0.164062 18.0469 0.410156L4.48438 13.9863L2.22852 16.5293L2.47461 10.1445L2.47461 5.09961C2.47461 4.44336 1.91406 3.85547 1.24414 3.85547C0.574219 3.85547 0 4.40234 0 5.1543Z" fill="white" fill-opacity="0.85"/>
 </g>
</svg>
