<svg version="1.1" xmlns="http://www.w3.org/2000/svg" xmlns:xlink="http://www.w3.org/1999/xlink" viewBox="0 0 25.5254 25.498">
 <g>
  
  <path d="M4.29297 25.1699L20.877 25.1699C23.748 25.1699 25.1699 23.748 25.1699 20.9316L25.1699 4.22461C25.1699 1.4082 23.748 0 20.877 0L4.29297 0C1.43555 0 0 1.4082 0 4.22461L0 20.9316C0 23.748 1.43555 25.1699 4.29297 25.1699ZM4.32031 22.9688C2.95312 22.9688 2.20117 22.2305 2.20117 20.8086L2.20117 4.34766C2.20117 2.92578 2.95312 2.20117 4.32031 2.20117L20.8496 2.20117C22.2031 2.20117 22.9688 2.92578 22.9688 4.34766L22.9688 20.8086C22.9688 22.2305 22.2031 22.9688 20.8496 22.9688Z" style="fill:var(--color-0,hsl(0 0 0/0.85))"></path>
  <path d="M13.877 5.53711C10.5957 5.53711 8.59961 7.90234 8.59961 11.1016L8.59961 15.1758L8.64062 16.8027L7.79297 15.7227L6.42578 14.3008C6.26172 14.123 6.00195 14 5.71484 14C5.1543 14 4.7168 14.4238 4.7168 14.9844C4.7168 15.2715 4.8125 15.4902 5.01758 15.6816L8.70898 19.3184C8.94141 19.5371 9.22852 19.6738 9.54297 19.6738C9.87109 19.6738 10.1445 19.5371 10.377 19.3184L14.0957 15.668C14.2871 15.4766 14.3828 15.2578 14.3828 14.9707C14.3828 14.4238 13.959 14 13.3848 14C13.125 14 12.8652 14.0957 12.6875 14.2871L11.0469 16.0098L10.4453 16.8027L10.5137 15.1758L10.5137 11.1016C10.5137 9.0918 11.6621 7.54688 13.7676 7.54688C15.9277 7.54688 17.2539 9.05078 17.2539 11.1152C17.2539 11.2793 17.2539 12.9609 17.2539 13.0156C17.2539 13.5898 17.5957 14.0547 18.2383 14.0547C18.8672 14.0547 19.209 13.5898 19.209 12.9883C19.209 12.9199 19.209 11.2793 19.209 11.1152C19.209 7.91602 17.1582 5.53711 13.877 5.53711Z" style="fill:var(--color-1,hsl(0 0 0/0.85))"></path>
 </g>
</svg>