<svg version="1.1" xmlns="http://www.w3.org/2000/svg" xmlns:xlink="http://www.w3.org/1999/xlink" viewBox="0 0 28.2461 27.9043">
 <g>
  
  <path d="M13.9453 27.8906C21.6426 27.8906 27.8906 21.6426 27.8906 13.9453C27.8906 6.24805 21.6426 0 13.9453 0C6.24805 0 0 6.24805 0 13.9453C0 21.6426 6.24805 27.8906 13.9453 27.8906ZM13.9453 25.5664C7.51953 25.5664 2.32422 20.3711 2.32422 13.9453C2.32422 7.51953 7.51953 2.32422 13.9453 2.32422C20.3711 2.32422 25.5664 7.51953 25.5664 13.9453C25.5664 20.3711 20.3711 25.5664 13.9453 25.5664Z" style="fill:var(--color-0,hsl(0 0 0/0.85))"></path>
  <path d="M7.04102 13.9316C7.04102 14.2051 7.12305 14.4512 7.41016 14.7246L11.7441 19.2363C11.9492 19.4414 12.1816 19.5508 12.4688 19.5508C13.0293 19.5508 13.4258 19.1406 13.4258 18.5664C13.4258 18.3066 13.3164 18.0059 13.0977 17.8145L10.8828 15.7363L10.0352 14.9297L12.0859 15.0117L19.7695 15.0117C20.3438 15.0117 20.8359 14.5195 20.8359 13.9316C20.8359 13.3438 20.3438 12.8379 19.7695 12.8379L12.0859 12.8379L10.0352 12.9336L10.8828 12.127L13.0977 10.0488C13.3164 9.85742 13.4258 9.57031 13.4258 9.31055C13.4258 8.73633 13.0293 8.3125 12.4688 8.3125C12.1816 8.3125 11.9492 8.42188 11.7441 8.62695L7.41016 13.1387C7.12305 13.4121 7.04102 13.6445 7.04102 13.9316Z" style="fill:var(--color-1,hsl(0 0 0/0.85))"></path>
 </g>
</svg>