<svg version="1.1" xmlns="http://www.w3.org/2000/svg" xmlns:xlink="http://www.w3.org/1999/xlink" viewBox="0 0 25.5254 25.1699">
 <g>
  
  <path d="M4.29297 25.1699L20.877 25.1699C23.748 25.1699 25.1699 23.7617 25.1699 20.9453L25.1699 4.23828C25.1699 1.42188 23.748 0 20.877 0L4.29297 0C1.43555 0 0 1.42188 0 4.23828L0 20.9453C0 23.7617 1.43555 25.1699 4.29297 25.1699Z" style="fill:var(--color-0,hsl(0 0 0/0.85))"></path>
  <path d="M6.30273 13.2207C6.30273 9.76172 9.14648 7.04102 12.3184 7.04102C12.4414 7.04102 12.5918 7.06836 12.7012 7.06836L11.7168 6.05664C11.5664 5.90625 11.457 5.66016 11.457 5.41406C11.457 4.9082 11.8535 4.51172 12.3594 4.51172C12.6055 4.51172 12.8516 4.62109 13.002 4.79883L15.709 7.54688C16.0371 7.88867 16.0645 8.51758 15.709 8.85938L12.9746 11.5938C12.8242 11.7305 12.5918 11.8535 12.3594 11.8535C11.8535 11.8535 11.457 11.4707 11.457 10.9648C11.457 10.7051 11.5664 10.4863 11.7305 10.3086L13.0977 8.96875C12.9609 8.94141 12.7695 8.92773 12.5918 8.92773C10.1855 8.92773 8.25781 10.8691 8.25781 13.2754C8.25781 15.6953 10.1855 17.623 12.5918 17.623C14.998 17.623 16.9258 15.6816 16.9258 13.2754C16.9258 12.7422 17.377 12.3047 17.9102 12.3047C18.4297 12.3047 18.8809 12.7422 18.8809 13.2754C18.8809 16.748 16.0781 19.5781 12.5918 19.5781C9.10547 19.5781 6.30273 16.748 6.30273 13.2207Z" style="fill:var(--color-1,white)"></path>
 </g>
</svg>