<svg version="1.1" xmlns="http://www.w3.org/2000/svg" xmlns:xlink="http://www.w3.org/1999/xlink" viewBox="0 0 28.3145 34.4395">
 <g>
  
  <path d="M27.959 4.29297L27.959 23.2832C27.959 26.1406 26.5371 27.5762 23.7207 27.5762L21.3281 27.5762L21.3281 11.1152C21.3281 8.25781 19.9199 6.82227 17.0898 6.82227L6.63086 6.82227L6.63086 4.29297C6.63086 1.43555 8.03906 0 10.8691 0L23.7207 0C26.5371 0 27.959 1.44922 27.959 4.29297ZM13.959 2.78906C13.3574 2.78906 13.084 3.17188 13.084 3.5957L13.084 3.88281C13.084 4.29297 13.3574 4.68945 13.959 4.68945L20.6309 4.68945C21.2188 4.68945 21.5059 4.29297 21.5059 3.88281L21.5059 3.5957C21.5059 3.17188 21.2188 2.78906 20.6309 2.78906Z" style="fill:var(--color-0,hsl(0 0 0/0.85))"></path>
  <path d="M0 30.1055C0 32.9629 1.4082 34.3984 4.23828 34.3984L17.0898 34.3984C19.9199 34.3984 21.3281 32.9492 21.3281 30.1055L21.3281 11.1152C21.3281 8.25781 19.9199 6.82227 17.0898 6.82227L4.23828 6.82227C1.4082 6.82227 0 8.24414 0 11.1152ZM2.20117 30.0645L2.20117 11.1426C2.20117 9.78906 2.92578 9.02344 4.33398 9.02344L16.9805 9.02344C18.3887 9.02344 19.127 9.78906 19.127 11.1426L19.127 30.0645C19.127 31.4316 18.3887 32.1973 16.9805 32.1973L4.33398 32.1973C2.92578 32.1973 2.20117 31.4316 2.20117 30.0645Z" style="fill:var(--color-1,hsl(0 0 0/0.85))"></path>
  <path d="M10.6504 14.793C10.418 14.793 10.1855 14.8887 9.93945 15.1074L6.20703 18.7305C6.0293 18.8945 5.90625 19.0996 5.90625 19.373C5.90625 19.8652 6.30273 20.248 6.79492 20.248C7.02734 20.248 7.30078 20.1387 7.47852 19.9473L9.21484 18.0879L9.73438 17.5547L9.67969 19.0312L9.67969 25.4434C9.67969 25.9492 10.1309 26.4004 10.6504 26.4004C11.1699 26.4004 11.6348 25.9492 11.6348 25.4434L11.6348 19.0312L11.5664 17.5684L12.0859 18.0879L13.8223 19.9473C14 20.1387 14.2598 20.248 14.4922 20.248C14.9844 20.248 15.3945 19.8652 15.3945 19.373C15.3945 19.0996 15.2852 18.8945 15.0938 18.7305L11.3613 15.1074C11.1152 14.8887 10.8828 14.793 10.6504 14.793Z" style="fill:var(--color-2,hsl(0 0 0/0.85))"></path>
 </g>
</svg>