<svg version="1.1" xmlns="http://www.w3.org/2000/svg" xmlns:xlink="http://www.w3.org/1999/xlink" viewBox="0 0 28.2461 27.9043">
 <g>
  
  <path d="M13.9453 27.9043C21.6426 27.9043 27.8906 21.6562 27.8906 13.959C27.8906 6.27539 21.6426 0.0136719 13.9453 0.0136719C6.26172 0.0136719 0 6.27539 0 13.959C0 21.6562 6.26172 27.9043 13.9453 27.9043Z" style="fill:var(--color-0,#007aff)"></path>
  <path d="M6.93164 20.043C6.53516 20.043 6.15234 19.7012 6.15234 19.0449C6.15234 13.4258 8.54492 9.95312 13.9727 9.95312L14.1914 9.95312L14.1914 7.08203C14.1914 6.57617 14.5605 6.16602 15.0938 6.16602C15.4766 6.16602 15.709 6.31641 16.1055 6.69922L22.0938 12.291C22.3945 12.5645 22.4902 12.8379 22.4902 13.0977C22.4902 13.3711 22.3945 13.6445 22.0938 13.918L16.1055 19.5508C15.75 19.8789 15.4629 20.043 15.0801 20.043C14.5605 20.043 14.1914 19.6602 14.1914 19.168L14.1914 16.2559L13.9727 16.2559C11.0332 16.2559 9.1875 17.0078 7.86133 19.4824C7.61523 19.9609 7.25977 20.043 6.93164 20.043Z" style="fill:var(--color-1,white)"></path>
 </g>
</svg>