<svg version="1.1" xmlns="http://www.w3.org/2000/svg" xmlns:xlink="http://www.w3.org/1999/xlink" viewBox="0 0 25.5254 25.5527">
 <g>
  
  <path d="M4.29297 25.1699L20.877 25.1699C23.748 25.1699 25.1699 23.7617 25.1699 20.9453L25.1699 4.23828C25.1699 1.42188 23.748 0 20.877 0L4.29297 0C1.43555 0 0 1.42188 0 4.23828L0 20.9453C0 23.7617 1.43555 25.1699 4.29297 25.1699Z" style="fill:var(--color-0,hsl(0 0 0/0.85))"></path>
  <path d="M14.0684 5.41406C17.3359 5.41406 19.4688 7.62891 19.4688 10.9238L19.4688 12.7695C19.4688 13.4258 19.0586 13.8633 18.457 13.8633C17.8418 13.8633 17.4316 13.4395 17.4316 12.7969L17.4316 10.9238C17.4316 8.85938 16.0918 7.45117 14.0684 7.45117C12.1953 7.45117 10.9512 8.83203 10.9512 10.9102L10.9512 14.916L10.8965 16.3105L11.3477 15.668L12.9473 14.0137C13.1387 13.8086 13.3984 13.6855 13.6992 13.6855C14.2871 13.6855 14.752 14.1367 14.752 14.6973C14.752 15.0117 14.6426 15.2578 14.4512 15.4492L10.7871 19.0312C10.5273 19.291 10.2266 19.4004 9.92578 19.4004C9.61133 19.4004 9.31055 19.2773 9.05078 19.0312L5.42773 15.4629C5.22266 15.2578 5.12695 15.0254 5.12695 14.7109C5.12695 14.1367 5.5918 13.6855 6.17969 13.6855C6.45312 13.6855 6.72656 13.8086 6.9043 14.0137L8.24414 15.3945L8.98242 16.3242L8.91406 14.916L8.91406 10.9102C8.91406 7.61523 10.9785 5.41406 14.0684 5.41406Z" style="fill:var(--color-1,white)"></path>
 </g>
</svg>