<?xml version="1.0" encoding="UTF-8"?>
<!--Generator: Apple Native CoreSVG 326-->
<!DOCTYPE svg
PUBLIC "-//W3C//DTD SVG 1.1//EN"
       "http://www.w3.org/Graphics/SVG/1.1/DTD/svg11.dtd">
<svg version="1.1" xmlns="http://www.w3.org/2000/svg" xmlns:xlink="http://www.w3.org/1999/xlink" viewBox="0 0 27.2891 25.5254">
 <g>
  <rect height="25.5254" opacity="0" width="27.2891" x="0" y="0"/>
  <path d="M13.5762 25.5254C13.8633 25.5254 14.2734 25.334 14.5742 25.1562C22.2852 20.2344 27.166 14.5059 27.166 8.68164C27.166 3.8418 23.8438 0.423828 19.5371 0.423828C16.8711 0.423828 14.8203 1.90039 13.5762 4.15625C12.3594 1.91406 10.2949 0.423828 7.61523 0.423828C3.32227 0.423828 0 3.8418 0 8.68164C0 14.5059 4.88086 20.2344 12.5918 25.1562C12.8789 25.334 13.3027 25.5254 13.5762 25.5254Z" fill="white" fill-opacity="0.85"/>
  <path d="M8.59961 13.8496C8.59961 11.4844 10.377 9.44727 12.5918 9.11914L12.5918 7.9707C12.5918 7.4375 13.166 7.24609 13.5625 7.58789L15.8457 9.5293C16.2285 9.85742 16.2285 10.3086 15.8457 10.6504L13.5625 12.6191C13.166 12.9609 12.5918 12.7559 12.5918 12.2363L12.5918 10.8828C11.293 11.2656 10.3359 12.4551 10.3359 13.877C10.3359 15.6133 11.7305 17.0078 13.4668 17.0078C15.2031 17.0078 16.5977 15.6133 16.5977 13.877C16.5977 13.3984 16.9941 13.002 17.4727 13.002C17.9375 13.002 18.334 13.3984 18.334 13.877C18.334 16.584 16.1738 18.7715 13.4668 18.7715C10.7598 18.7715 8.59961 16.584 8.59961 13.8496Z" fill="white"/>
 </g>
</svg>
