<?xml version="1.0" encoding="UTF-8"?>
<!--Generator: Apple Native CoreSVG 326-->
<!DOCTYPE svg
PUBLIC "-//W3C//DTD SVG 1.1//EN"
       "http://www.w3.org/Graphics/SVG/1.1/DTD/svg11.dtd">
<svg version="1.1" xmlns="http://www.w3.org/2000/svg" xmlns:xlink="http://www.w3.org/1999/xlink" viewBox="0 0 34.7266 25.9902">
 <g>
  <rect height="25.9902" opacity="0" width="34.7266" x="0" y="0"/>
  <path d="M27.0156 23.7617C31.1445 23.7617 34.3711 20.7402 34.3711 16.9805C34.3711 14.1094 32.7168 11.6211 30.0508 10.5C30.0781 4.40234 25.6895 0 20.0977 0C16.3926 0 13.7539 1.98242 12.1133 4.375C8.75 3.39062 5.08594 5.94727 5.01758 9.77539C1.92773 10.2676 0 13.0293 0 16.3652C0 20.3848 3.51367 23.7617 8.18945 23.7617ZM27.0156 21.5605L8.18945 21.5605C4.74414 21.5605 2.20117 19.1543 2.20117 16.3652C2.20117 13.6309 3.85547 11.457 6.75391 11.457C6.94531 11.457 7.01367 11.3613 7.01367 11.1836C7.01367 6.97266 10.0488 5.72852 12.8516 6.64453C13.0156 6.69922 13.1113 6.6582 13.1934 6.50781C14.5195 4.14258 16.5566 2.20117 20.0977 2.20117C24.582 2.20117 27.6855 5.75586 27.918 9.81641C27.959 10.4453 27.918 11.1836 27.8633 11.8262C27.8496 12.0039 27.918 12.0996 28.082 12.1406C30.5703 12.6875 32.1699 14.5059 32.1699 16.9805C32.1699 19.5234 29.9277 21.5605 27.0156 21.5605Z" fill="white" fill-opacity="0.85"/>
  <path d="M17.4727 19.127C20.5352 19.127 22.9824 16.666 22.9824 13.5625C22.9824 10.8145 20.918 8.61328 18.4707 8.2168L18.4707 6.80859C18.4707 6.2207 17.8145 6.00195 17.377 6.37109L14.834 8.53125C14.4238 8.87305 14.4102 9.41992 14.834 9.78906L17.377 11.9766C17.8145 12.373 18.4707 12.1406 18.4707 11.5527L18.4707 9.93945C20.084 10.377 21.2871 11.8398 21.2871 13.6035C21.2871 15.7227 19.5918 17.4316 17.4727 17.4316C15.3672 17.4316 13.6719 15.7227 13.6719 13.6035C13.6719 13.1523 13.2891 12.7695 12.8242 12.7695C12.3594 12.7695 11.9766 13.1523 11.9766 13.6035C11.9766 16.666 14.4238 19.127 17.4727 19.127Z" fill="white" fill-opacity="0.85"/>
 </g>
</svg>
