<svg version="1.1" xmlns="http://www.w3.org/2000/svg" xmlns:xlink="http://www.w3.org/1999/xlink" viewBox="0 0 28.6426 21.2598">
 <g>
  
  <path d="M15.4492 20.7266C15.7773 20.7266 16.0645 20.6172 16.3379 20.3574L25.4297 11.2793C25.7031 11.0195 25.8398 10.7051 25.8398 10.3633C25.8398 10.0352 25.7031 9.7207 25.4297 9.44727L16.3379 0.382812C16.0645 0.123047 15.7773 0 15.4492 0C14.7793 0 14.2598 0.505859 14.2598 1.17578C14.2598 1.50391 14.3691 1.83203 14.5879 2.05078L17.6504 5.1543L23.0234 10.0625L23.2969 9.29688L19.2227 9.14648L1.20312 9.14648C0.492188 9.14648 0 9.65234 0 10.3633C0 11.0742 0.492188 11.5938 1.20312 11.5938L19.2227 11.5938L23.2969 11.4434L23.0234 10.6914L17.6504 15.5723L14.5879 18.6895C14.3691 18.9082 14.2598 19.2363 14.2598 19.5508C14.2598 20.2344 14.7793 20.7266 15.4492 20.7266ZM27.0566 20.7266C27.7676 20.7266 28.2871 20.248 28.2871 19.5508L28.2871 1.2168C28.2871 0.505859 27.7676 0 27.0566 0C26.3457 0 25.8398 0.505859 25.8398 1.2168L25.8398 19.5508C25.8398 20.248 26.3457 20.7266 27.0566 20.7266Z" style="fill:var(--color-0,hsl(0 0 0/0.85))"></path>
 </g>
</svg>