<svg version="1.1" xmlns="http://www.w3.org/2000/svg" xmlns:xlink="http://www.w3.org/1999/xlink" viewBox="0 0 21.1777 24.1035">
 <g>
  
  <path d="M10.418 24.1035C11.1289 24.1035 11.6348 23.5977 11.6348 22.8867L11.6348 9.07812L11.5391 6.15234L15.6543 10.6504L18.7168 13.6719C18.9355 13.8906 19.2637 14.0137 19.5918 14.0137C20.2754 14.0137 20.7812 13.4941 20.7812 12.8105C20.7812 12.4824 20.6445 12.1816 20.3711 11.8945L11.334 2.84375C11.0742 2.57031 10.7461 2.41992 10.418 2.41992C10.0762 2.41992 9.76172 2.57031 9.50195 2.84375L0.451172 11.8945C0.191406 12.1816 0.0546875 12.4824 0.0546875 12.8105C0.0546875 13.4941 0.546875 14.0137 1.24414 14.0137C1.57227 14.0137 1.88672 13.8906 2.11914 13.6719L5.18164 10.6504L9.29688 6.13867L9.1875 9.07812L9.1875 22.8867C9.1875 23.5977 9.69336 24.1035 10.418 24.1035ZM1.17578 2.44727L19.6191 2.44727C20.3301 2.44727 20.8223 1.94141 20.8223 1.23047C20.8223 0.519531 20.3301 0 19.6191 0L1.17578 0C0.478516 0 0 0.519531 0 1.23047C0 1.94141 0.478516 2.44727 1.17578 2.44727Z" style="fill:var(--color-0,hsl(0 0 0/0.85))"></path>
 </g>
</svg>