<svg version="1.1" xmlns="http://www.w3.org/2000/svg" xmlns:xlink="http://www.w3.org/1999/xlink" viewBox="0 0 31.0762 25.0879">
 <g>
  
  <path d="M0 12.5371C0 12.9883 0.177734 13.5078 0.697266 14L11.4844 24.1855C12.1406 24.8008 12.6875 25.0742 13.3574 25.0742C14.2871 25.0742 14.957 24.3906 14.957 23.4746L14.957 18.252L26.0586 18.252C28.2188 18.252 29.4766 17.0215 29.4766 14.9023L29.4766 10.1855C29.4766 8.06641 28.2188 6.83594 26.0586 6.83594L14.957 6.83594L14.957 1.66797C14.957 0.751953 14.2871 0 13.3301 0C12.6602 0 12.209 0.287109 11.4844 0.970703L0.697266 11.0605C0.164062 11.5664 0 12.0723 0 12.5371ZM2.44727 12.5371C2.44727 12.4551 2.48828 12.373 2.59766 12.2773L12.332 2.93945C12.4004 2.88477 12.4824 2.83008 12.5645 2.83008C12.6875 2.83008 12.7559 2.91211 12.7559 3.02148L12.7559 8.44922C12.7559 8.76367 12.9062 8.90039 13.2207 8.90039L26.0312 8.90039C26.9062 8.90039 27.4121 9.40625 27.4121 10.2949L27.4121 14.793C27.4121 15.6816 26.9062 16.1875 26.0312 16.1875L13.2207 16.1875C12.9062 16.1875 12.7559 16.3242 12.7559 16.6387L12.7559 21.9297C12.7559 22.0527 12.6875 22.1348 12.5781 22.1348C12.4961 22.1348 12.4141 22.0938 12.3457 22.0117L2.59766 12.7969C2.48828 12.6875 2.44727 12.6191 2.44727 12.5371Z" style="fill:var(--color-0,hsl(0 0 0/0.85))"></path>
 </g>
</svg>