<?xml version="1.0" encoding="UTF-8"?>
<!--Generator: Apple Native CoreSVG 326-->
<!DOCTYPE svg
PUBLIC "-//W3C//DTD SVG 1.1//EN"
       "http://www.w3.org/Graphics/SVG/1.1/DTD/svg11.dtd">
<svg version="1.1" xmlns="http://www.w3.org/2000/svg" xmlns:xlink="http://www.w3.org/1999/xlink" viewBox="0 0 27.2891 16.9121">
 <g>
  <rect height="16.9121" opacity="0" width="27.2891" x="0" y="0"/>
  <path d="M0 8.44922C0 8.77734 0.136719 9.0918 0.410156 9.35156L7.71094 16.5156C7.94336 16.748 8.29883 16.8848 8.59961 16.8848C9.32422 16.8848 9.80273 16.3926 9.80273 15.6816C9.80273 15.3262 9.69336 15.0664 9.47461 14.8477L6.26172 11.7441L3.70508 9.5293L6.87695 9.66602L20.043 9.66602L23.2148 9.5293L20.6582 11.7441L17.459 14.8477C17.2402 15.0664 17.1309 15.3262 17.1309 15.6816C17.1309 16.3926 17.6094 16.8848 18.334 16.8848C18.6348 16.8848 18.9902 16.748 19.2227 16.5156L26.5234 9.35156C26.7969 9.0918 26.9336 8.77734 26.9336 8.44922C26.9336 8.10742 26.7969 7.79297 26.5234 7.5332L19.2227 0.369141C18.9902 0.136719 18.6348 0 18.334 0C17.6094 0 17.1309 0.492188 17.1309 1.20312C17.1309 1.55859 17.2402 1.81836 17.459 2.03711L20.6582 5.1543L23.2148 7.35547L20.043 7.21875L6.87695 7.21875L3.70508 7.35547L6.26172 5.1543L9.47461 2.03711C9.69336 1.81836 9.80273 1.55859 9.80273 1.20312C9.80273 0.492188 9.32422 0 8.59961 0C8.29883 0 7.94336 0.136719 7.71094 0.369141L0.410156 7.5332C0.136719 7.79297 0 8.10742 0 8.44922Z" fill="white" fill-opacity="0.85"/>
 </g>
</svg>
