<?xml version="1.0" encoding="UTF-8"?>
<!--Generator: Apple Native CoreSVG 326-->
<!DOCTYPE svg
PUBLIC "-//W3C//DTD SVG 1.1//EN"
       "http://www.w3.org/Graphics/SVG/1.1/DTD/svg11.dtd">
<svg version="1.1" xmlns="http://www.w3.org/2000/svg" xmlns:xlink="http://www.w3.org/1999/xlink" viewBox="0 0 25.5254 25.1699">
 <g>
  <rect height="25.1699" opacity="0" width="25.5254" x="0" y="0"/>
  <path d="M4.29297 25.1699L20.877 25.1699C23.748 25.1699 25.1699 23.7617 25.1699 20.9453L25.1699 4.23828C25.1699 1.42188 23.748 0 20.877 0L4.29297 0C1.43555 0 0 1.42188 0 4.23828L0 20.9453C0 23.7617 1.43555 25.1699 4.29297 25.1699Z" fill="white" fill-opacity="0.85"/>
  <path d="M19.5645 14.1094C19.5645 17.377 17.3496 19.5098 14.0547 19.5098L12.209 19.5098C11.5527 19.5098 11.1152 19.0996 11.1152 18.4844C11.1152 17.8828 11.5391 17.4727 12.1816 17.4727L14.0547 17.4727C16.1191 17.4727 17.5273 16.1328 17.5273 14.1094C17.5273 12.2363 16.1465 10.9922 14.0684 10.9922L10.0762 10.9922L8.66797 10.9375L9.31055 11.3887L10.9648 12.9883C11.1699 13.1934 11.293 13.4395 11.293 13.7402C11.293 14.3281 10.8418 14.793 10.2812 14.793C9.9668 14.793 9.7207 14.6836 9.5293 14.4922L5.94727 10.8281C5.6875 10.5684 5.57812 10.2676 5.57812 9.9668C5.57812 9.65234 5.70117 9.35156 5.94727 9.0918L9.51562 5.46875C9.7207 5.26367 9.95312 5.16797 10.2676 5.16797C10.8555 5.16797 11.293 5.61914 11.293 6.2207C11.293 6.49414 11.1699 6.76758 10.9648 6.94531L9.58398 8.28516L8.6543 9.02344L10.0762 8.95508L14.0684 8.95508C17.3633 8.95508 19.5645 11.0059 19.5645 14.1094Z" fill="white"/>
 </g>
</svg>
