<?xml version="1.0" encoding="UTF-8"?>
<!--Generator: Apple Native CoreSVG 326-->
<!DOCTYPE svg
PUBLIC "-//W3C//DTD SVG 1.1//EN"
       "http://www.w3.org/Graphics/SVG/1.1/DTD/svg11.dtd">
<svg version="1.1" xmlns="http://www.w3.org/2000/svg" xmlns:xlink="http://www.w3.org/1999/xlink" viewBox="0 0 28.2461 27.9043">
 <g>
  <rect height="27.9043" opacity="0" width="28.2461" x="0" y="0"/>
  <path d="M13.9453 27.8906C21.6426 27.8906 27.8906 21.6289 27.8906 13.9453C27.8906 6.24805 21.6426 0 13.9453 0C6.26172 0 0 6.24805 0 13.9453C0 21.6289 6.26172 27.8906 13.9453 27.8906Z" fill="white" fill-opacity="0.85"/>
  <path d="M13.9727 5.16797C14.2734 5.16797 14.5059 5.30469 14.793 5.57812L18.8809 9.63867C19.0723 9.81641 19.168 10.0762 19.168 10.377C19.168 10.9512 18.7305 11.3887 18.1426 11.3887C17.8281 11.3887 17.582 11.2656 17.3906 11.0879L16.3379 10.0215L14.916 8.32617L15.0391 11.3066L15.0391 16.584L14.916 19.5645L16.3379 17.8691L17.3906 16.8027C17.582 16.6113 17.8281 16.502 18.1426 16.502C18.7305 16.502 19.168 16.9395 19.168 17.5137C19.168 17.8008 19.0723 18.0742 18.8809 18.252L14.793 22.3125C14.5059 22.5859 14.2734 22.7227 13.9727 22.7227C13.6582 22.7227 13.4121 22.5859 13.1387 22.3125L9.06445 18.252C8.87305 18.0742 8.76367 17.8008 8.76367 17.5137C8.76367 16.9395 9.21484 16.502 9.80273 16.502C10.1172 16.502 10.3633 16.5977 10.5547 16.8027L11.5938 17.8691L13.0293 19.5781L12.9062 16.584L12.9062 11.3066L13.0293 8.3125L11.5938 10.0215L10.5547 11.0879C10.3633 11.2793 10.1172 11.3887 9.80273 11.3887C9.21484 11.3887 8.76367 10.9512 8.76367 10.377C8.76367 10.0762 8.87305 9.81641 9.06445 9.63867L13.1387 5.57812C13.4121 5.30469 13.6582 5.16797 13.9727 5.16797Z" fill="white"/>
 </g>
</svg>
