<svg version="1.1" xmlns="http://www.w3.org/2000/svg" xmlns:xlink="http://www.w3.org/1999/xlink" viewBox="0 0 25.5254 25.1699">
 <g>
  
  <path d="M4.29297 25.1699L20.877 25.1699C23.748 25.1699 25.1699 23.7617 25.1699 20.9453L25.1699 4.23828C25.1699 1.42188 23.748 0 20.877 0L4.29297 0C1.43555 0 0 1.42188 0 4.23828L0 20.9453C0 23.7617 1.43555 25.1699 4.29297 25.1699ZM4.32031 22.9688C2.95312 22.9688 2.20117 22.2441 2.20117 20.8223L2.20117 4.36133C2.20117 2.93945 2.95312 2.20117 4.32031 2.20117L20.8496 2.20117C22.2031 2.20117 22.9688 2.93945 22.9688 4.36133L22.9688 20.8223C22.9688 22.2441 22.2031 22.9688 20.8496 22.9688Z" style="fill:var(--color-0,hsl(0 0 0/0.85))"></path>
  <path d="M19.4961 12.5645C19.4961 12.2773 19.4004 12.0449 19.127 11.7715L14.793 7.25977C14.5742 7.05469 14.3555 6.94531 14.0684 6.94531C13.5078 6.94531 13.1113 7.36914 13.1113 7.94336C13.1113 8.20312 13.2207 8.49023 13.4395 8.68164L15.6543 10.7598L16.502 11.5664L14.4512 11.4707L6.76758 11.4707C6.19336 11.4707 5.70117 11.9766 5.70117 12.5645C5.70117 13.1523 6.19336 13.6445 6.76758 13.6445L14.4512 13.6445L16.502 13.5625L15.6543 14.3691L13.4395 16.4473C13.2207 16.6387 13.1113 16.9395 13.1113 17.1992C13.1113 17.7734 13.5078 18.1836 14.0684 18.1836C14.3555 18.1836 14.5742 18.0742 14.793 17.8691L19.127 13.3574C19.4004 13.084 19.4961 12.8379 19.4961 12.5645Z" style="fill:var(--color-1,hsl(0 0 0/0.85))"></path>
 </g>
</svg>