<svg version="1.1" xmlns="http://www.w3.org/2000/svg" xmlns:xlink="http://www.w3.org/1999/xlink" viewBox="0 0 25.5254 25.1699">
 <g>
  
  <path d="M4.29297 25.1699L20.877 25.1699C23.748 25.1699 25.1699 23.7617 25.1699 20.9453L25.1699 4.23828C25.1699 1.42188 23.748 0 20.877 0L4.29297 0C1.43555 0 0 1.42188 0 4.23828L0 20.9453C0 23.7617 1.43555 25.1699 4.29297 25.1699ZM4.32031 22.9688C2.95312 22.9688 2.20117 22.2441 2.20117 20.8223L2.20117 4.36133C2.20117 2.93945 2.95312 2.20117 4.32031 2.20117L20.8496 2.20117C22.2031 2.20117 22.9688 2.93945 22.9688 4.36133L22.9688 20.8223C22.9688 22.2441 22.2031 22.9688 20.8496 22.9688Z" style="fill:var(--color-0,hsl(0 0 0/0.85))"></path>
  <path d="M8.29883 15.9688C8.90039 15.9688 9.29688 15.5449 9.29688 14.9023L9.29688 12.5371L9.0918 10.4043L11.0605 12.5098L16.0918 17.541C16.2969 17.7324 16.543 17.8555 16.8711 17.8555C17.4727 17.8555 17.8828 17.459 17.8828 16.8438C17.8828 16.5703 17.7461 16.2969 17.5547 16.1055L12.5098 11.0605L10.377 9.07812L12.4004 9.29688L14.8887 9.29688C15.5449 9.29688 15.9688 8.90039 15.9688 8.29883C15.9688 7.69727 15.5586 7.30078 14.916 7.30078L8.43555 7.30078C7.73828 7.30078 7.30078 7.61523 7.30078 8.42188L7.30078 14.875C7.30078 15.5039 7.69727 15.9688 8.29883 15.9688Z" style="fill:var(--color-1,hsl(0 0 0/0.85))"></path>
 </g>
</svg>