<?xml version="1.0" encoding="UTF-8"?>
<!--Generator: Apple Native CoreSVG 326-->
<!DOCTYPE svg
PUBLIC "-//W3C//DTD SVG 1.1//EN"
       "http://www.w3.org/Graphics/SVG/1.1/DTD/svg11.dtd">
<svg version="1.1" xmlns="http://www.w3.org/2000/svg" xmlns:xlink="http://www.w3.org/1999/xlink" viewBox="0 0 25.4434 29.5176">
 <g>
  <rect height="29.5176" opacity="0" width="25.4434" x="0" y="0"/>
  <path d="M12.5371 0C12.0859 0 11.5664 0.177734 11.0742 0.697266L0.888672 11.4844C0.273438 12.1406 0 12.6875 0 13.3574C0 14.2871 0.683594 14.957 1.59961 14.957L7.13672 14.957L7.13672 26.332C7.13672 28.3145 8.25781 29.4766 10.2129 29.4766L14.8477 29.4766C16.8027 29.4766 17.9238 28.3145 17.9238 26.332L17.9238 14.957L23.4062 14.957C24.3223 14.957 25.0879 14.2871 25.0879 13.3301C25.0879 12.6602 24.7871 12.209 24.1035 11.4844L14.0137 0.697266C13.5215 0.164062 13.002 0 12.5371 0Z" fill="white" fill-opacity="0.85"/>
 </g>
</svg>
