<svg version="1.1" xmlns="http://www.w3.org/2000/svg" xmlns:xlink="http://www.w3.org/1999/xlink" viewBox="0 0 25.5664 25.2246">
 <g>
  
  <path d="M23.6113 1.61328C22.2168 0.21875 20.248 0 17.9102 0L7.25977 0C4.96289 0 2.99414 0.21875 1.59961 1.61328C0.205078 3.00781 0 4.96289 0 7.25977L0 17.9102C0 20.248 0.205078 22.2031 1.59961 23.5977C2.99414 24.9922 4.96289 25.2109 7.28711 25.2109L17.9102 25.2109C20.248 25.2109 22.2168 24.9922 23.6113 23.5977C25.0059 22.2031 25.2109 20.248 25.2109 17.9102L25.2109 7.28711C25.2109 4.94922 25.0059 3.00781 23.6113 1.61328Z" style="fill:var(--color-0,hsl(0 0 0/0.85))"></path>
  <path d="M12.5918 19.7148C12.3047 19.7148 12.0723 19.6328 11.7852 19.3457L7.13672 14.8613C6.91797 14.6562 6.79492 14.4102 6.79492 14.1094C6.79492 13.5352 7.21875 13.125 7.80664 13.125C8.08008 13.125 8.39453 13.2344 8.58594 13.4668L10.7461 15.7363L11.5527 16.6113L11.4707 14.4922L11.4707 6.58984C11.4707 5.98828 11.9766 5.49609 12.5918 5.49609C13.207 5.49609 13.7266 5.98828 13.7266 6.58984L13.7266 14.4922L13.6445 16.6113L14.4512 15.7363L16.5977 13.4668C16.7891 13.2344 17.0898 13.125 17.377 13.125C17.9512 13.125 18.3887 13.5352 18.3887 14.1094C18.3887 14.4102 18.2793 14.6562 18.0605 14.8613L13.4121 19.3457C13.125 19.6328 12.8926 19.7148 12.5918 19.7148Z" style="fill:var(--color-1,white)"></path>
 </g>
</svg>