<svg version="1.1" xmlns="http://www.w3.org/2000/svg" xmlns:xlink="http://www.w3.org/1999/xlink" viewBox="0 0 37.4473 28.9707">
 <g>
  
  <path d="M19.5098 25.3887C19.5098 27.5215 21.0137 28.9434 23.2422 28.9434L33.373 28.9434C35.6016 28.9434 37.0918 27.5215 37.0918 25.3887L37.0918 3.55469C37.0918 1.42188 35.6016 0 33.373 0L23.2422 0C21.0137 0 19.5098 1.42188 19.5098 3.55469Z" style="fill:var(--color-0,hsl(0 0 0/0.85))"></path>
  <path d="M1.2168 25.6895C1.92773 25.6895 2.43359 25.1973 2.43359 24.4863L2.43359 22.4082C2.43359 17.3223 5.53711 15.6816 9.51562 15.6816L10.418 15.6816L14.2051 15.5586L14.2051 14.793L10.4863 18.1836L8.98242 19.4688C8.66797 19.7285 8.58594 20.0703 8.58594 20.3984C8.58594 21.0684 9.10547 21.5742 9.77539 21.5742C10.1035 21.5742 10.3906 21.4512 10.6914 21.1641L16.4746 15.3945C16.748 15.1348 16.8984 14.8203 16.8984 14.4785C16.8984 14.1367 16.748 13.8223 16.4746 13.5625L10.6641 7.76562C10.3906 7.49219 10.1035 7.38281 9.77539 7.38281C9.10547 7.38281 8.58594 7.875 8.58594 8.55859C8.58594 8.88672 8.66797 9.22852 8.98242 9.48828L10.4863 10.7734L14.2051 14.1641L14.2051 13.3984L10.418 13.2754L9.51562 13.2754C4.66211 13.2754 0 15.5039 0 22.4082L0 24.4863C0 25.1973 0.505859 25.6895 1.2168 25.6895Z" style="fill:var(--color-1,hsl(0 0 0/0.85))"></path>
 </g>
</svg>