<?xml version="1.0" encoding="UTF-8"?>
<!--Generator: Apple Native CoreSVG 326-->
<!DOCTYPE svg
PUBLIC "-//W3C//DTD SVG 1.1//EN"
       "http://www.w3.org/Graphics/SVG/1.1/DTD/svg11.dtd">
<svg version="1.1" xmlns="http://www.w3.org/2000/svg" xmlns:xlink="http://www.w3.org/1999/xlink" viewBox="0 0 25.5254 25.1699">
 <g>
  <rect height="25.1699" opacity="0" width="25.5254" x="0" y="0"/>
  <path d="M4.29297 25.1699L20.877 25.1699C23.748 25.1699 25.1699 23.7617 25.1699 20.9453L25.1699 4.23828C25.1699 1.42188 23.748 0 20.877 0L4.29297 0C1.43555 0 0 1.42188 0 4.23828L0 20.9453C0 23.7617 1.43555 25.1699 4.29297 25.1699Z" fill="white" fill-opacity="0.85"/>
  <path d="M4.08789 12.5918C4.08789 12.0586 4.49805 11.6621 5.04492 11.6621L11.498 11.6621L14.082 11.7988L11.2109 9.25586L10.3359 8.4082C10.1309 8.2168 10.0488 7.9707 10.0488 7.71094C10.0488 7.17773 10.459 6.80859 10.9922 6.80859C11.2383 6.80859 11.4844 6.87695 11.6758 7.0957L16.543 11.8809C16.748 12.0859 16.8711 12.332 16.8711 12.5918C16.8711 12.8652 16.7754 13.0977 16.543 13.3027L11.6895 18.0469C11.5117 18.2383 11.2109 18.3613 10.9785 18.3613C10.4316 18.3613 10.0488 17.9785 10.0488 17.4453C10.0488 17.1582 10.1309 16.9258 10.3359 16.7617L11.2246 15.9414L14.0957 13.3848L11.498 13.5625L5.04492 13.5625C4.49805 13.5625 4.08789 13.166 4.08789 12.5918ZM18.8809 18.8125C18.3477 18.8125 17.9512 18.4297 17.9512 17.8828L17.9512 7.28711C17.9512 6.74023 18.3477 6.34375 18.8809 6.34375C19.4414 6.34375 19.8516 6.74023 19.8516 7.28711L19.8516 17.8828C19.8516 18.4297 19.4414 18.8125 18.8809 18.8125Z" fill="white"/>
 </g>
</svg>
