<?xml version="1.0" encoding="UTF-8"?>
<!--Generator: Apple Native CoreSVG 326-->
<!DOCTYPE svg
PUBLIC "-//W3C//DTD SVG 1.1//EN"
       "http://www.w3.org/Graphics/SVG/1.1/DTD/svg11.dtd">
<svg version="1.1" xmlns="http://www.w3.org/2000/svg" xmlns:xlink="http://www.w3.org/1999/xlink" viewBox="0 0 28.2461 27.9043">
 <g>
  <rect height="27.9043" opacity="0" width="28.2461" x="0" y="0"/>
  <path d="M13.9453 27.8906C21.6426 27.8906 27.8906 21.6289 27.8906 13.9453C27.8906 6.24805 21.6426 0 13.9453 0C6.26172 0 0 6.24805 0 13.9453C0 21.6289 6.26172 27.8906 13.9453 27.8906Z" fill="white" fill-opacity="0.85"/>
  <path d="M20.2344 13.9453C19.6602 13.9453 19.209 13.4941 19.209 12.9199L19.209 12.209L19.3457 9.92578L16.2285 13.207C15.791 13.6719 15.0938 13.6582 14.6562 13.2207C14.2324 12.7969 14.2461 12.0723 14.6699 11.6621L17.9375 8.55859L15.7227 8.69531L15.0117 8.69531C14.4375 8.69531 13.9727 8.24414 13.9727 7.66992C13.9727 7.0957 14.4375 6.63086 15.0117 6.63086L20.0566 6.63086C20.8223 6.63086 21.2734 6.97266 21.2734 7.84766L21.2734 12.9199C21.2734 13.4941 20.8086 13.9453 20.2344 13.9453ZM12.8926 21.2871L7.83398 21.2871C7.06836 21.2871 6.63086 20.9453 6.63086 20.0703L6.63086 14.998C6.63086 14.4238 7.08203 13.9727 7.65625 13.9727C8.23047 13.9727 8.69531 14.4238 8.69531 14.998L8.69531 15.709L8.54492 17.9922L11.6758 14.7109C12.0996 14.2461 12.8105 14.2598 13.2344 14.6973C13.6582 15.1211 13.6445 15.8457 13.2207 16.2559L9.9668 19.3594L12.1816 19.2227L12.8926 19.2227C13.4668 19.2227 13.918 19.6738 13.918 20.248C13.918 20.8223 13.4668 21.2871 12.8926 21.2871Z" fill="white"/>
 </g>
</svg>
