<svg version="1.1" xmlns="http://www.w3.org/2000/svg" xmlns:xlink="http://www.w3.org/1999/xlink" viewBox="0 0 20.5488 20.2207">
 <g>
  
  <path d="M20.1934 5.1543C20.1934 4.40234 19.6055 3.85547 18.9492 3.85547C18.2793 3.85547 17.7188 4.44336 17.7188 5.09961L17.7188 10.1445L17.9648 16.5293L15.709 13.9863L2.13281 0.410156C1.88672 0.164062 1.58594 0.0410156 1.27148 0.0410156C0.587891 0.0410156 0 0.669922 0 1.32617C0 1.61328 0.136719 1.94141 0.382812 2.1875L13.9316 15.75L16.4746 17.9922L9.80273 17.7734L5.04492 17.7734C4.40234 17.7734 3.81445 18.334 3.81445 18.9902C3.81445 19.6465 4.33398 20.2207 5.09961 20.2207L18.8535 20.2207C19.6738 20.2207 20.1797 19.6875 20.1797 18.9082Z" style="fill:var(--color-0,hsl(0 0 0/0.85))"></path>
 </g>
</svg>