<svg version="1.1" xmlns="http://www.w3.org/2000/svg" xmlns:xlink="http://www.w3.org/1999/xlink" viewBox="0 0 26.1953 28.2598">
 <g>
  
  <path d="M25.8398 19.5371C25.8398 14.3145 22.2988 10.7051 16.0645 10.7051L6.87695 10.7051L2.63867 10.8965L2.88477 11.5254L6.26172 8.64062L10.2129 4.78516C10.418 4.56641 10.541 4.30664 10.541 3.95117C10.541 3.24023 10.0625 2.74805 9.32422 2.74805C9.03711 2.74805 8.68164 2.89844 8.44922 3.13086L0.410156 11.0195C0.136719 11.2793 0 11.5938 0 11.9355C0 12.2637 0.136719 12.5781 0.410156 12.8379L8.44922 20.7266C8.68164 20.9727 9.03711 21.1094 9.32422 21.1094C10.0625 21.1094 10.541 20.6172 10.541 19.9062C10.541 19.5508 10.418 19.291 10.2129 19.0723L6.26172 15.2305L2.88477 12.332L2.63867 12.9609L6.87695 13.1523L16.2695 13.1523C20.9316 13.1523 23.3926 15.7227 23.3926 19.4004C23.3926 23.0918 20.9316 25.8262 16.2695 25.8262L13.125 25.8262C12.373 25.8262 11.8809 26.373 11.8809 27.043C11.8809 27.7129 12.373 28.2598 13.125 28.2598L16.2832 28.2598C22.3945 28.2598 25.8398 24.7734 25.8398 19.5371Z" style="fill:var(--color-0,hsl(0 0 0/0.85))"></path>
 </g>
</svg>