<?xml version="1.0" encoding="UTF-8"?>
<!--Generator: Apple Native CoreSVG 326-->
<!DOCTYPE svg
PUBLIC "-//W3C//DTD SVG 1.1//EN"
       "http://www.w3.org/Graphics/SVG/1.1/DTD/svg11.dtd">
<svg version="1.1" xmlns="http://www.w3.org/2000/svg" xmlns:xlink="http://www.w3.org/1999/xlink" viewBox="0 0 28.2461 27.9043">
 <g>
  <rect height="27.9043" opacity="0" width="28.2461" x="0" y="0"/>
  <path d="M13.9453 27.8906C21.6426 27.8906 27.8906 21.6289 27.8906 13.9453C27.8906 6.24805 21.6426 0 13.9453 0C6.26172 0 0 6.24805 0 13.9453C0 21.6289 6.26172 27.8906 13.9453 27.8906Z" fill="white" fill-opacity="0.85"/>
  <path d="M13.959 21.0547C13.6719 21.0547 13.4258 20.9727 13.1387 20.6855L8.49023 16.2012C8.27148 15.9961 8.16211 15.75 8.16211 15.4492C8.16211 14.875 8.58594 14.4648 9.17383 14.4648C9.44727 14.4648 9.76172 14.5742 9.95312 14.8066L12.0996 17.0762L12.9199 17.9512L12.8379 15.832L12.8379 7.92969C12.8379 7.32812 13.3438 6.83594 13.959 6.83594C14.5742 6.83594 15.0938 7.32812 15.0938 7.92969L15.0938 15.832L14.998 17.9512L15.8184 17.0762L17.9648 14.8066C18.1562 14.5742 18.457 14.4648 18.7305 14.4648C19.3184 14.4648 19.7559 14.875 19.7559 15.4492C19.7559 15.75 19.6465 15.9961 19.4141 16.2012L14.7793 20.6855C14.4922 20.9727 14.2461 21.0547 13.959 21.0547Z" fill="white"/>
 </g>
</svg>
