<?xml version="1.0" encoding="UTF-8"?>
<!--Generator: Apple Native CoreSVG 326-->
<!DOCTYPE svg
PUBLIC "-//W3C//DTD SVG 1.1//EN"
       "http://www.w3.org/Graphics/SVG/1.1/DTD/svg11.dtd">
<svg version="1.1" xmlns="http://www.w3.org/2000/svg" xmlns:xlink="http://www.w3.org/1999/xlink" viewBox="0 0 34.7266 25.9902">
 <g>
  <rect height="25.9902" opacity="0" width="34.7266" x="0" y="0"/>
  <path d="M30.0508 10.5C32.7168 11.6211 34.3711 14.1094 34.3711 16.9805C34.3711 20.7402 31.1445 23.7617 27.0156 23.7617L8.18945 23.7617C3.51367 23.7617 0 20.3848 0 16.3652C0 13.0293 1.92773 10.2676 5.01758 9.77539C5.08594 5.94727 8.75 3.39062 12.1133 4.375C13.7539 1.98242 16.3926 0 20.0977 0C25.6895 0 30.0781 4.40234 30.0508 10.5ZM11.9082 10.9922L10.1309 13.5078C9.84375 13.9043 9.9668 14.4102 10.4863 14.4102L11.6484 14.4102C12.1953 17.4727 14.6973 19.6055 17.8418 19.6055C19.2363 19.6055 20.6172 19.127 21.5879 18.3203C22.1211 17.8965 22.2578 17.3223 21.8613 16.8848C21.4648 16.4883 20.9727 16.543 20.4941 16.8711C19.7148 17.5 18.9219 17.8281 17.8418 17.8281C15.668 17.8281 13.8359 16.3652 13.3301 14.4102L14.4922 14.4102C15.0117 14.4102 15.1621 13.9043 14.8477 13.5078L13.0566 10.9922C12.7559 10.5957 12.2227 10.5547 11.9082 10.9922ZM14.0957 8.46289C13.5762 8.88672 13.4258 9.46094 13.8223 9.88477C14.2051 10.2812 14.7246 10.2266 15.1621 9.89844C15.9551 9.25586 16.7617 8.94141 17.8281 8.94141C20.0293 8.94141 21.8477 10.418 22.3398 12.373L21.123 12.373C20.6035 12.373 20.4531 12.8652 20.7676 13.2754L22.5586 15.7773C22.8594 16.1738 23.3926 16.2148 23.707 15.7773L25.4844 13.2754C25.7715 12.8652 25.6484 12.373 25.1289 12.373L24.0352 12.373C23.4883 9.29688 20.9863 7.16406 17.8281 7.16406C16.4473 7.16406 15.0527 7.65625 14.0957 8.46289Z" fill="white" fill-opacity="0.85"/>
 </g>
</svg>
