<?xml version="1.0" encoding="UTF-8"?>
<!--Generator: Apple Native CoreSVG 326-->
<!DOCTYPE svg
PUBLIC "-//W3C//DTD SVG 1.1//EN"
       "http://www.w3.org/Graphics/SVG/1.1/DTD/svg11.dtd">
<svg version="1.1" xmlns="http://www.w3.org/2000/svg" xmlns:xlink="http://www.w3.org/1999/xlink" viewBox="0 0 33.8105 25.1152">
 <g>
  <rect height="25.1152" opacity="0" width="33.8105" x="0" y="0"/>
  <path d="M20.4531 25.0879C21.123 25.0879 21.6699 24.8145 22.3262 24.1992L33.1133 14.0137C33.6465 13.5215 33.8105 13.002 33.8105 12.5508C33.8105 12.0859 33.6465 11.5664 33.1133 11.0742L22.3262 0.984375C21.6016 0.300781 21.1504 0 20.4805 0C19.5234 0 18.8535 0.765625 18.8535 1.68164L18.8535 6.98633L9.98047 6.98633C7.61523 6.98633 6.60352 7.9707 6.60352 10.2949L6.60352 13.1523L3.71875 13.1523C1.35352 13.1523 0.341797 14.123 0.341797 16.4473L0.341797 21.6973C0.341797 24.0215 1.35352 25.0059 3.71875 25.0059L11.9629 25.0059C14.3281 25.0059 15.3398 24.0215 15.3398 21.6973L15.3398 18.5801L18.8535 18.5801L18.8535 23.4883C18.8535 24.4043 19.5234 25.0879 20.4531 25.0879ZM13.7812 21.8203L8.25781 19.5098C6.91797 18.9492 6.42578 18.3613 6.35742 17.2812C6.34375 17.0078 6.63086 16.9531 6.75391 17.2129C7.16406 18.1152 8.09375 18.5801 9.46094 18.5801L13.959 18.5801L13.959 21.7383C13.959 21.8203 13.8633 21.8613 13.7812 21.8203Z" fill="white" fill-opacity="0.85"/>
 </g>
</svg>
