<svg version="1.1" xmlns="http://www.w3.org/2000/svg" xmlns:xlink="http://www.w3.org/1999/xlink" viewBox="0 0 25.5254 25.1699">
 <g>
  
  <path d="M4.29297 25.1699L20.877 25.1699C23.748 25.1699 25.1699 23.7617 25.1699 20.9453L25.1699 4.23828C25.1699 1.42188 23.748 0 20.877 0L4.29297 0C1.43555 0 0 1.42188 0 4.23828L0 20.9453C0 23.7617 1.43555 25.1699 4.29297 25.1699ZM4.32031 22.9688C2.95312 22.9688 2.20117 22.2441 2.20117 20.8223L2.20117 4.36133C2.20117 2.93945 2.95312 2.20117 4.32031 2.20117L20.8496 2.20117C22.2031 2.20117 22.9688 2.93945 22.9688 4.36133L22.9688 20.8223C22.9688 22.2441 22.2031 22.9688 20.8496 22.9688Z" style="fill:var(--color-0,hsl(0 0 0/0.85))"></path>
  <path d="M6.68555 12.5645C7.21875 12.5645 7.65625 12.1406 7.65625 11.6074L7.65625 10.9375L7.51953 8.77734L10.4727 11.8809C10.8691 12.3184 11.5254 12.3047 11.9219 11.8945C12.3184 11.498 12.3047 10.8281 11.9082 10.4453L8.83203 7.50586L10.9238 7.64258L11.5938 7.64258C12.127 7.64258 12.5508 7.21875 12.5508 6.68555C12.5508 6.15234 12.127 5.71484 11.5938 5.71484L6.84961 5.71484C6.13867 5.71484 5.72852 6.0293 5.72852 6.84961L5.72852 11.6074C5.72852 12.1406 6.15234 12.5645 6.68555 12.5645ZM13.6035 19.4688L18.334 19.4688C19.0449 19.4688 19.4688 19.1543 19.4688 18.334L19.4688 13.5762C19.4688 13.043 19.0312 12.6191 18.498 12.6191C17.9648 12.6191 17.541 13.043 17.541 13.5762L17.541 14.2461L17.6777 16.4062L14.7246 13.3027C14.3145 12.8652 13.6719 12.8789 13.2617 13.2891C12.8652 13.6855 12.8789 14.3555 13.2754 14.7383L16.3652 17.6777L14.2734 17.541L13.6035 17.541C13.0703 17.541 12.6328 17.9648 12.6328 18.498C12.6328 19.0312 13.0703 19.4688 13.6035 19.4688Z" style="fill:var(--color-1,hsl(0 0 0/0.85))"></path>
 </g>
</svg>