<svg version="1.1" xmlns="http://www.w3.org/2000/svg" xmlns:xlink="http://www.w3.org/1999/xlink" viewBox="0 0 28.2461 27.9043">
 <g>
  
  <path d="M13.9453 27.8906C21.6426 27.8906 27.8906 21.6426 27.8906 13.9453C27.8906 6.24805 21.6426 0 13.9453 0C6.24805 0 0 6.24805 0 13.9453C0 21.6426 6.24805 27.8906 13.9453 27.8906ZM13.9453 25.5664C7.51953 25.5664 2.32422 20.3711 2.32422 13.9453C2.32422 7.51953 7.51953 2.32422 13.9453 2.32422C20.3711 2.32422 25.5664 7.51953 25.5664 13.9453C25.5664 20.3711 20.3711 25.5664 13.9453 25.5664Z" style="fill:var(--color-0,hsl(0 0 0/0.85))"></path>
  <path d="M21.8203 15.1211L21.7656 10.3223C21.7656 10.0898 21.6562 9.83008 21.5059 9.66602C21.1504 9.29688 20.6309 9.29688 20.2617 9.66602C20.0977 9.83008 19.9883 10.0625 20.002 10.2949L20.0293 12.332L20.0703 13.0703L19.6328 12.6055L13.3574 6.33008C13.002 5.97461 12.4551 5.97461 12.0996 6.33008C11.7441 6.69922 11.7441 7.23242 12.0996 7.58789L18.375 13.8633L18.8672 14.3008L18.0879 14.2734L16.0645 14.2461C15.8184 14.2461 15.5996 14.3281 15.4355 14.5059C15.0801 14.8613 15.0801 15.3672 15.4492 15.7227C15.5859 15.8867 15.832 15.9824 16.0781 15.9961L20.8906 16.0508C21.3828 16.0645 21.8203 15.627 21.8203 15.1211ZM6.04297 12.7832L6.09766 17.6094C6.11133 17.8555 6.20703 18.1016 6.34375 18.252C6.71289 18.6074 7.24609 18.6074 7.60156 18.252C7.76562 18.0742 7.83398 17.8555 7.84766 17.623L7.80664 15.5859L7.76562 14.8203L8.23047 15.3125L14.5059 21.5742C14.8613 21.9434 15.3809 21.9297 15.75 21.5742C16.1191 21.2051 16.1191 20.6855 15.75 20.3301L9.47461 14.041L8.98242 13.6172L9.76172 13.6445L11.7988 13.6855C12.0312 13.6855 12.25 13.5898 12.4277 13.4258C12.7832 13.0703 12.7832 12.5645 12.4141 12.1816C12.2637 12.0312 12.0039 11.9219 11.7852 11.9219L6.97266 11.8809C6.4668 11.8809 6.04297 12.2637 6.04297 12.7832Z" style="fill:var(--color-1,hsl(0 0 0/0.85))"></path>
 </g>
</svg>