<svg version="1.1" xmlns="http://www.w3.org/2000/svg" xmlns:xlink="http://www.w3.org/1999/xlink" viewBox="0 0 21.6973 25.8262">
 <g>
  
  <path d="M2.88477 0C2.10547 0 1.43555 0.0273438 1.02539 0.0957031C0.478516 0.205078 0 0.560547 0 1.25781C0 1.96875 0.505859 2.41992 1.2168 2.41992C1.68164 2.41992 2.13281 2.39258 2.76172 2.39258C7.62891 2.39258 9.77539 4.04688 9.76172 8.99609L9.74805 18.3477L9.87109 22.0664L7.12305 19.0586L2.65234 14.5742C2.43359 14.3555 2.10547 14.2461 1.77734 14.2461C1.10742 14.2461 0.601562 14.7656 0.601562 15.4355C0.601562 15.7637 0.724609 16.0508 0.984375 16.3242L10.0625 25.416C10.3223 25.6895 10.6367 25.8262 10.9648 25.8262C11.3066 25.8262 11.6211 25.6895 11.8809 25.416L20.959 16.3242C21.2188 16.0508 21.3418 15.7637 21.3418 15.4355C21.3418 14.7656 20.8359 14.2461 20.1523 14.2461C19.8379 14.2461 19.5098 14.3555 19.291 14.5742L14.8066 19.0586L12.0859 22.0527L12.1953 18.3477L12.1953 8.87305C12.1953 2.51562 9.21484 0 2.88477 0Z" style="fill:var(--color-0,hsl(0 0 0/0.85))"></path>
 </g>
</svg>