<svg version="1.1" xmlns="http://www.w3.org/2000/svg" xmlns:xlink="http://www.w3.org/1999/xlink" viewBox="0 0 20.7676 29.2715">
 <g>
  
  <path d="M0.943359 20.166C0.943359 22.2852 1.77734 23.8438 3.32227 24.6914C4.07422 25.0879 4.51172 25.5938 4.78516 26.5098L5.22266 27.9727C5.48242 28.8477 6.09766 29.2715 7.01367 29.2715L13.3301 29.2715C14.2734 29.2715 14.8477 28.8613 15.1074 27.9727L15.5586 26.5098C15.832 25.5938 16.2695 25.0879 17.0215 24.6914C18.5664 23.8438 19.4004 22.2852 19.4004 20.166L19.4004 9.10547C19.4004 6.98633 18.5664 5.44141 17.0215 4.58008C16.2695 4.18359 15.832 3.67773 15.5586 2.77539L15.1074 1.29883C14.875 0.4375 14.2598 0 13.3301 0L7.01367 0C6.09766 0 5.48242 0.423828 5.22266 1.29883L4.78516 2.77539C4.52539 3.66406 4.08789 4.19727 3.32227 4.58008C1.79102 5.40039 0.943359 6.95898 0.943359 9.10547ZM2.93945 19.8789L2.93945 9.40625C2.93945 7.36914 4.12891 6.13867 6.125 6.13867L14.2188 6.13867C16.2148 6.13867 17.4043 7.36914 17.4043 9.40625L17.4043 19.8789C17.4043 21.9023 16.2148 23.1328 14.2188 23.1328L6.125 23.1328C4.12891 23.1328 2.93945 21.9023 2.93945 19.8789ZM19.0996 13.6719L19.5918 13.6719C20.3027 13.6719 20.7676 13.1934 20.7676 12.4141L20.7676 10.5684C20.7676 9.78906 20.3027 9.31055 19.5918 9.31055L19.0996 9.31055Z" style="fill:var(--color-0,hsl(0 0 0/0.85))"></path>
  <path d="M10.2266 9.05078C9.73438 9.05078 9.39258 9.40625 9.39258 9.89844L9.39258 15.2988L9.46094 17.5684L8.4082 16.2969L7.13672 14.998C6.98633 14.8613 6.76758 14.752 6.53516 14.752C6.07031 14.752 5.71484 15.1074 5.71484 15.5723C5.71484 15.791 5.7832 16.0098 5.93359 16.1602L9.57031 19.7695C9.78906 19.9883 9.99414 20.0977 10.2266 20.0977C10.4727 20.0977 10.6777 19.9883 10.8965 19.7695L14.5059 16.1602C14.6562 16.0098 14.752 15.791 14.752 15.5723C14.752 15.1074 14.3965 14.752 13.9316 14.752C13.6719 14.752 13.4668 14.8477 13.3301 14.998L12.0586 16.2969L10.9785 17.582L11.0605 15.2988L11.0742 9.89844C11.0742 9.40625 10.7051 9.05078 10.2266 9.05078Z" style="fill:var(--color-1,hsl(0 0 0/0.85))"></path>
 </g>
</svg>