<?xml version="1.0" encoding="UTF-8"?>
<!--Generator: Apple Native CoreSVG 326-->
<!DOCTYPE svg
PUBLIC "-//W3C//DTD SVG 1.1//EN"
       "http://www.w3.org/Graphics/SVG/1.1/DTD/svg11.dtd">
<svg version="1.1" xmlns="http://www.w3.org/2000/svg" xmlns:xlink="http://www.w3.org/1999/xlink" viewBox="0 0 25.5254 25.1699">
 <g>
  <rect height="25.1699" opacity="0" width="25.5254" x="0" y="0"/>
  <path d="M4.29297 25.1699L20.877 25.1699C23.748 25.1699 25.1699 23.7617 25.1699 20.9453L25.1699 4.23828C25.1699 1.42188 23.748 0 20.877 0L4.29297 0C1.43555 0 0 1.42188 0 4.23828L0 20.9453C0 23.7617 1.43555 25.1699 4.29297 25.1699ZM4.32031 22.9688C2.95312 22.9688 2.20117 22.2441 2.20117 20.8223L2.20117 4.36133C2.20117 2.93945 2.95312 2.20117 4.32031 2.20117L20.8496 2.20117C22.2031 2.20117 22.9688 2.93945 22.9688 4.36133L22.9688 20.8223C22.9688 22.2441 22.2031 22.9688 20.8496 22.9688Z" fill="white" fill-opacity="0.85"/>
  <path d="M6.49414 13.207C6.49414 16.625 9.21484 19.3594 12.5918 19.3594C15.9688 19.3594 18.6895 16.625 18.6895 13.248C18.6895 12.7422 18.252 12.3184 17.7461 12.3184C17.2402 12.3184 16.8027 12.7422 16.8027 13.248C16.8027 15.5859 14.9297 17.4727 12.5918 17.4727C10.2539 17.4727 8.38086 15.5996 8.38086 13.248C8.38086 10.9102 10.2539 9.03711 12.5918 9.03711C12.7695 9.03711 12.9609 9.05078 13.0977 9.07812L11.7578 10.377C11.5938 10.5547 11.498 10.7598 11.498 11.0195C11.498 11.498 11.8809 11.8672 12.3594 11.8672C12.5918 11.8672 12.8105 11.7578 12.9609 11.6211L15.6133 8.96875C15.9551 8.64062 15.9277 8.02539 15.6133 7.69727L12.9883 5.03125C12.8379 4.86719 12.6055 4.75781 12.3594 4.75781C11.8809 4.75781 11.498 5.14062 11.498 5.63281C11.498 5.86523 11.5938 6.09766 11.7441 6.24805L12.7148 7.23242C12.6055 7.23242 12.4551 7.20508 12.332 7.20508C9.25586 7.20508 6.49414 9.84375 6.49414 13.207Z" fill="white" fill-opacity="0.85"/>
 </g>
</svg>
