<?xml version="1.0" encoding="UTF-8"?>
<!--Generator: Apple Native CoreSVG 326-->
<!DOCTYPE svg
PUBLIC "-//W3C//DTD SVG 1.1//EN"
       "http://www.w3.org/Graphics/SVG/1.1/DTD/svg11.dtd">
<svg version="1.1" xmlns="http://www.w3.org/2000/svg" xmlns:xlink="http://www.w3.org/1999/xlink" viewBox="0 0 25.5254 25.1699">
 <g>
  <rect height="25.1699" opacity="0" width="25.5254" x="0" y="0"/>
  <path d="M4.29297 25.1699L20.877 25.1699C23.748 25.1699 25.1699 23.7617 25.1699 20.9453L25.1699 4.23828C25.1699 1.42188 23.748 0 20.877 0L4.29297 0C1.43555 0 0 1.42188 0 4.23828L0 20.9453C0 23.7617 1.43555 25.1699 4.29297 25.1699ZM4.32031 22.9688C2.95312 22.9688 2.20117 22.2441 2.20117 20.8223L2.20117 4.36133C2.20117 2.93945 2.95312 2.20117 4.32031 2.20117L20.8496 2.20117C22.2031 2.20117 22.9688 2.93945 22.9688 4.36133L22.9688 20.8223C22.9688 22.2441 22.2031 22.9688 20.8496 22.9688Z" fill="white" fill-opacity="0.85"/>
  <path d="M6.26172 18.6211C6.78125 18.6211 7.16406 18.252 7.16406 17.7188L7.16406 7.45117C7.16406 6.91797 6.78125 6.53516 6.26172 6.53516C5.71484 6.53516 5.33203 6.91797 5.33203 7.45117L5.33203 17.7188C5.33203 18.252 5.71484 18.6211 6.26172 18.6211ZM20.6035 12.5918C20.6035 12.0723 20.207 11.6895 19.6875 11.6895L13.4121 11.6895L10.9102 11.8262L13.6855 9.36523L14.5469 8.53125C14.7383 8.33984 14.8203 8.10742 14.8203 7.86133C14.8203 7.3418 14.4102 6.98633 13.918 6.98633C13.6719 6.98633 13.4395 7.05469 13.2344 7.25977L8.51758 11.9082C8.32617 12.0996 8.2168 12.3457 8.2168 12.5918C8.2168 12.8516 8.3125 13.084 8.51758 13.2754L13.2207 17.8828C13.4121 18.0605 13.6992 18.1836 13.918 18.1836C14.4375 18.1836 14.8203 17.8145 14.8203 17.2949C14.8203 17.0215 14.7383 16.8027 14.5469 16.6387L13.6719 15.832L10.8965 13.3574L13.4121 13.5215L19.6875 13.5215C20.207 13.5215 20.6035 13.1387 20.6035 12.5918Z" fill="white" fill-opacity="0.85"/>
 </g>
</svg>
