<svg version="1.1" xmlns="http://www.w3.org/2000/svg" xmlns:xlink="http://www.w3.org/1999/xlink" viewBox="0 0 27.002 27.4121">
 <g>
  
  <path d="M24.1992 12.3867C24.9238 12.3867 25.4844 11.8535 25.4844 11.1289C25.4707 10.3906 24.9238 9.88477 24.1992 9.88477L23.0508 9.88477L18.2656 10.1582L22.0527 6.5625L26.2773 2.35156C26.5234 2.10547 26.6465 1.76367 26.6465 1.4082C26.6465 0.642578 26.0723 0.123047 25.3066 0.123047C24.9648 0.123047 24.6641 0.246094 24.4316 0.492188L20.2344 4.73047L16.625 8.51758L16.8984 3.74609L16.8984 2.59766C16.8984 1.87305 16.3789 1.32617 15.668 1.32617C14.9297 1.32617 14.3965 1.88672 14.3965 2.59766L14.3965 10.1719C14.3965 11.5664 15.2031 12.3867 16.5977 12.3867ZM11.0742 26.2637C11.8125 26.2637 12.3457 25.7168 12.3457 24.9922L12.3457 17.2676C12.3457 15.873 11.5391 15.0664 10.1445 15.0664L2.39258 15.0664C1.66797 15.0664 1.10742 15.5859 1.10742 16.3242C1.12109 17.0488 1.66797 17.5547 2.39258 17.5547L3.69141 17.5547L8.47656 17.2812L4.68945 20.877L0.382812 25.1836C0.136719 25.4297 0 25.7715 0 26.127C0 26.8926 0.574219 27.4121 1.35352 27.4121C1.68164 27.4121 1.99609 27.2891 2.22852 27.043L6.50781 22.7227L10.1172 18.9355L9.84375 23.6934L9.84375 24.9922C9.84375 25.7305 10.3633 26.2637 11.0742 26.2637Z" style="fill:var(--color-0,hsl(0 0 0/0.85))"></path>
 </g>
</svg>