<?xml version="1.0" encoding="UTF-8"?>
<!--Generator: Apple Native CoreSVG 326-->
<!DOCTYPE svg
PUBLIC "-//W3C//DTD SVG 1.1//EN"
       "http://www.w3.org/Graphics/SVG/1.1/DTD/svg11.dtd">
<svg version="1.1" xmlns="http://www.w3.org/2000/svg" xmlns:xlink="http://www.w3.org/1999/xlink" viewBox="0 0 25.5594 25.9902">
 <g>
  <rect height="25.9902" opacity="0" width="25.5594" x="0" y="0"/>
  <path d="M12.602 25.9902C13.3676 25.9902 13.7914 25.4844 13.7914 24.541L13.7914 16.6934C13.8051 13.4121 17.4418 8.6543 20.7914 6.50781L21.8852 5.79688C22.268 5.56445 22.4731 5.14062 22.4731 4.73047C22.4731 4.06055 22.0082 3.5957 21.311 3.5957C20.9692 3.5957 20.6 3.71875 20.2719 3.9375L19.5473 4.41602C16.225 6.63086 13.0395 10.8281 12.6156 12.9473L12.5746 12.9473C12.1508 10.8145 8.97892 6.63086 5.65666 4.41602L4.93205 3.9375C4.59025 3.71875 4.23478 3.5957 3.87931 3.5957C3.18205 3.5957 2.73088 4.10156 2.73088 4.7168C2.73088 5.12695 2.93595 5.56445 3.31877 5.79688L4.41252 6.50781C7.76213 8.6543 11.4125 13.4121 11.4125 16.6934L11.4125 24.541C11.4125 25.4844 11.8363 25.9902 12.602 25.9902ZM3.19572 8.17578L7.02385 3.21289C7.61174 2.44727 7.2426 1.83203 6.32658 1.79102L1.00822 1.55859C0.242595 1.51758-0.167561 2.02344 0.064861 2.77539L1.63713 7.84766C1.91056 8.75 2.59416 8.95508 3.19572 8.17578ZM21.8442 8.16211C22.4184 8.95508 23.1156 8.77734 23.4028 7.88867L25.1254 2.85742C25.3715 2.11914 24.975 1.59961 24.2231 1.61328L18.891 1.69531C17.975 1.70898 17.5922 2.31055 18.1528 3.08984Z" fill="white" fill-opacity="0.85"/>
 </g>
</svg>
