<?xml version="1.0" encoding="UTF-8"?>
<!--Generator: Apple Native CoreSVG 326-->
<!DOCTYPE svg
PUBLIC "-//W3C//DTD SVG 1.1//EN"
       "http://www.w3.org/Graphics/SVG/1.1/DTD/svg11.dtd">
<svg version="1.1" xmlns="http://www.w3.org/2000/svg" xmlns:xlink="http://www.w3.org/1999/xlink" viewBox="0 0 28.2461 27.9043">
 <g>
  <rect height="27.9043" opacity="0" width="28.2461" x="0" y="0"/>
  <path d="M13.9453 27.8906C21.6426 27.8906 27.8906 21.6426 27.8906 13.9453C27.8906 6.24805 21.6426 0 13.9453 0C6.24805 0 0 6.24805 0 13.9453C0 21.6426 6.24805 27.8906 13.9453 27.8906ZM13.9453 25.5664C7.51953 25.5664 2.32422 20.3711 2.32422 13.9453C2.32422 7.51953 7.51953 2.32422 13.9453 2.32422C20.3711 2.32422 25.5664 7.51953 25.5664 13.9453C25.5664 20.3711 20.3711 25.5664 13.9453 25.5664Z" fill="white" fill-opacity="0.85"/>
  <path d="M19.9609 13.7676C20.4941 13.7676 20.9316 13.3301 20.9316 12.7969C20.9316 12.2637 20.4941 11.8398 19.9609 11.8398L19.291 11.8398L17.1992 11.9766L20.8906 8.43555C21.2871 8.03906 21.3008 7.38281 20.9043 6.98633C20.5078 6.57617 19.8516 6.57617 19.4551 7L15.8867 10.7051L16.0234 8.54492L16.0234 7.875C16.0234 7.3418 15.5996 6.91797 15.0664 6.91797C14.5332 6.91797 14.0957 7.3418 14.0957 7.875L14.0957 12.6328C14.0957 13.4531 14.5195 13.7676 15.2305 13.7676ZM12.7969 20.959C13.3301 20.959 13.7539 20.5352 13.7539 20.002L13.7539 15.2305C13.7539 14.4238 13.3438 14.1094 12.6328 14.1094L7.88867 14.1094C7.35547 14.1094 6.93164 14.5332 6.93164 15.0801C6.93164 15.6133 7.35547 16.0371 7.88867 16.0371L8.57227 16.0371L10.6641 15.9004L6.97266 19.4414C6.57617 19.8242 6.5625 20.4941 6.95898 20.8906C7.35547 21.3008 8.01172 21.3008 8.4082 20.877L11.9766 17.1719L11.8262 19.332L11.8262 20.002C11.8262 20.5352 12.2637 20.959 12.7969 20.959Z" fill="white" fill-opacity="0.85"/>
 </g>
</svg>
