<svg version="1.1" xmlns="http://www.w3.org/2000/svg" xmlns:xlink="http://www.w3.org/1999/xlink" viewBox="0 0 28.2461 27.9043">
 <g>
  
  <path d="M13.9453 27.8906C21.6426 27.8906 27.8906 21.6426 27.8906 13.9453C27.8906 6.24805 21.6426 0 13.9453 0C6.24805 0 0 6.24805 0 13.9453C0 21.6426 6.24805 27.8906 13.9453 27.8906ZM13.9453 25.5664C7.51953 25.5664 2.32422 20.3711 2.32422 13.9453C2.32422 7.51953 7.51953 2.32422 13.9453 2.32422C20.3711 2.32422 25.5664 7.51953 25.5664 13.9453C25.5664 20.3711 20.3711 25.5664 13.9453 25.5664Z" style="fill:var(--color-0,hsl(0 0 0/0.85))"></path>
  <path d="M9.17383 18.1562L18.7031 18.1562C19.3594 18.1562 19.6465 17.4316 19.2637 16.7891L14.6836 8.99609C14.3281 8.4082 13.5352 8.43555 13.207 8.99609L8.59961 16.7891C8.24414 17.377 8.51758 18.1562 9.17383 18.1562Z" style="fill:var(--color-1,hsl(0 0 0/0.85))"></path>
 </g>
</svg>