<svg version="1.1" xmlns="http://www.w3.org/2000/svg" xmlns:xlink="http://www.w3.org/1999/xlink" viewBox="0 0 23.3516 21.752">
 <g>
  
  <path d="M20.6582 0.0136719C20.1113 0.0136719 19.6738 0.246094 19.0996 0.533203L1.53125 9.06445C0.369141 9.63867 0 10.1582 0 10.8828C0 11.6074 0.369141 12.1406 1.53125 12.7148L19.0996 21.2324C19.6875 21.5195 20.125 21.752 20.6719 21.752C21.6836 21.752 22.2988 20.9863 22.2988 19.7969L22.2988 1.96875C22.2988 0.779297 21.6699 0.0136719 20.6582 0.0136719ZM19.9609 2.61133C20.043 2.61133 20.0977 2.67969 20.0977 2.77539L20.1113 18.9902C20.1113 19.0996 20.0566 19.1543 19.9746 19.1543C19.9199 19.1543 19.8652 19.127 19.8105 19.0996L3.0625 11.0332C2.99414 11.0059 2.93945 10.9512 2.93945 10.8828C2.93945 10.8145 2.99414 10.7598 3.0625 10.7324L19.7969 2.67969C19.8516 2.63867 19.9062 2.61133 19.9609 2.61133Z" style="fill:var(--color-0,hsl(0 0 0/0.85))"></path>
 </g>
</svg>