<svg version="1.1" xmlns="http://www.w3.org/2000/svg" xmlns:xlink="http://www.w3.org/1999/xlink" viewBox="0 0 32.5938 25.1699">
 <g>
  
  <path d="M4.29297 25.1699L27.9453 25.1699C30.8164 25.1699 32.2383 23.7617 32.2383 20.9453L32.2383 4.23828C32.2383 1.42188 30.8164 0 27.9453 0L4.29297 0C1.43555 0 0 1.42188 0 4.23828L0 20.9453C0 23.7617 1.43555 25.1699 4.29297 25.1699ZM4.32031 22.9688C2.95312 22.9688 2.20117 22.2441 2.20117 20.8223L2.20117 4.36133C2.20117 2.93945 2.95312 2.20117 4.32031 2.20117L27.918 2.20117C29.2715 2.20117 30.0371 2.93945 30.0371 4.36133L30.0371 20.8223C30.0371 22.2441 29.2715 22.9688 27.918 22.9688Z" style="fill:var(--color-0,hsl(0 0 0/0.85))"></path>
  <path d="M23.8574 11.7578C24.4316 11.7578 24.8281 11.3066 24.8281 10.7051L24.8281 5.31836C24.8281 4.56641 24.3906 4.23828 23.7344 4.23828L18.3066 4.23828C17.7188 4.23828 17.2949 4.63477 17.2949 5.20898C17.2949 5.7832 17.7188 6.16602 18.334 6.16602L20.1113 6.16602L21.8066 6.00195L19.9746 7.68359L17.1445 10.5273C16.9668 10.7051 16.8301 10.9648 16.8301 11.2246C16.8301 11.8125 17.2402 12.209 17.8008 12.209C18.1152 12.209 18.3477 12.0996 18.5527 11.9082L21.3691 9.07812L23.0645 7.28711L22.9004 9.07812L22.9004 10.7324C22.9004 11.334 23.2832 11.7578 23.8574 11.7578ZM8.38086 13.4258C7.80664 13.4258 7.42383 13.8633 7.42383 14.4648L7.42383 19.8652C7.42383 20.6172 7.84766 20.9316 8.50391 20.9316L13.9453 20.9316C14.5332 20.9316 14.9434 20.5488 14.9434 19.9746C14.9434 19.4004 14.5332 19.0039 13.918 19.0039L12.127 19.0039L10.4453 19.1816L12.2637 17.5L15.0938 14.6562C15.2715 14.4785 15.4082 14.2188 15.4082 13.959C15.4082 13.3574 15.0117 12.9746 14.4375 12.9746C14.123 12.9746 13.8906 13.084 13.6992 13.2754L10.8691 16.0918L9.17383 17.8965L9.35156 16.1055L9.35156 14.4375C9.35156 13.8359 8.95508 13.4258 8.38086 13.4258Z" style="fill:var(--color-1,hsl(0 0 0/0.85))"></path>
 </g>
</svg>