<?xml version="1.0" encoding="UTF-8"?>
<!--Generator: Apple Native CoreSVG 326-->
<!DOCTYPE svg
PUBLIC "-//W3C//DTD SVG 1.1//EN"
       "http://www.w3.org/Graphics/SVG/1.1/DTD/svg11.dtd">
<svg version="1.1" xmlns="http://www.w3.org/2000/svg" xmlns:xlink="http://www.w3.org/1999/xlink" viewBox="0 0 28.2461 27.9043">
 <g>
  <rect height="27.9043" opacity="0" width="28.2461" x="0" y="0"/>
  <path d="M13.9453 27.8906C21.6426 27.8906 27.8906 21.6426 27.8906 13.9453C27.8906 6.24805 21.6426 0 13.9453 0C6.24805 0 0 6.24805 0 13.9453C0 21.6426 6.24805 27.8906 13.9453 27.8906ZM13.9453 25.5664C7.51953 25.5664 2.32422 20.3711 2.32422 13.9453C2.32422 7.51953 7.51953 2.32422 13.9453 2.32422C20.3711 2.32422 25.5664 7.51953 25.5664 13.9453C25.5664 20.3711 20.3711 25.5664 13.9453 25.5664Z" fill="white" fill-opacity="0.85"/>
  <path d="M6.04297 15.1211C6.04297 15.627 6.49414 16.0645 6.98633 16.0508L11.7988 15.9961C12.0449 15.9824 12.2773 15.8867 12.4277 15.7227C12.7969 15.3672 12.7969 14.8613 12.4414 14.5059C12.2637 14.3281 12.0449 14.2461 11.8125 14.2461L9.78906 14.2734L9.00977 14.3008L9.50195 13.8633L15.7637 7.58789C16.1191 7.23242 16.1328 6.69922 15.7637 6.33008C15.4082 5.97461 14.875 5.97461 14.5059 6.33008L8.24414 12.6055L7.80664 13.0703L7.83398 12.332L7.86133 10.2949C7.875 10.0625 7.7793 9.83008 7.61523 9.66602C7.24609 9.29688 6.72656 9.29688 6.37109 9.66602C6.2207 9.83008 6.11133 10.0898 6.11133 10.3223ZM21.8203 12.7832C21.8203 12.2637 21.4102 11.8809 20.9043 11.8809L16.0918 11.9219C15.873 11.9219 15.6133 12.0312 15.4629 12.1816C15.0801 12.5645 15.0801 13.0703 15.4492 13.4258C15.627 13.5898 15.832 13.6855 16.0645 13.6855L18.1152 13.6445L18.8809 13.6172L18.4023 14.041L12.1133 20.3301C11.7578 20.6855 11.7578 21.2051 12.127 21.5742C12.4824 21.9297 13.0156 21.9434 13.3711 21.5742L19.6465 15.3125L20.1113 14.8203L20.0566 15.5859L20.0293 17.623C20.0293 17.8555 20.1113 18.0742 20.2754 18.252C20.6309 18.6074 21.1504 18.6074 21.5195 18.252C21.6699 18.1016 21.752 17.8555 21.7656 17.6094Z" fill="white" fill-opacity="0.85"/>
 </g>
</svg>
