<?xml version="1.0" encoding="UTF-8"?>
<!--Generator: Apple Native CoreSVG 326-->
<!DOCTYPE svg
PUBLIC "-//W3C//DTD SVG 1.1//EN"
       "http://www.w3.org/Graphics/SVG/1.1/DTD/svg11.dtd">
<svg version="1.1" xmlns="http://www.w3.org/2000/svg" xmlns:xlink="http://www.w3.org/1999/xlink" viewBox="0 0 25.5254 25.1699">
 <g>
  <rect height="25.1699" opacity="0" width="25.5254" x="0" y="0"/>
  <path d="M4.29297 25.1699L20.877 25.1699C23.748 25.1699 25.1699 23.7617 25.1699 20.9453L25.1699 4.23828C25.1699 1.42188 23.748 0 20.877 0L4.29297 0C1.43555 0 0 1.42188 0 4.23828L0 20.9453C0 23.7617 1.43555 25.1699 4.29297 25.1699ZM4.32031 22.9688C2.95312 22.9688 2.20117 22.2441 2.20117 20.8223L2.20117 4.36133C2.20117 2.93945 2.95312 2.20117 4.32031 2.20117L20.8496 2.20117C22.2031 2.20117 22.9688 2.93945 22.9688 4.36133L22.9688 20.8223C22.9688 22.2441 22.2031 22.9688 20.8496 22.9688Z" fill="white" fill-opacity="0.85"/>
  <path d="M6.5625 12.4004L11.293 12.4004C12.0039 12.4004 12.4277 12.0859 12.4277 11.2656L12.4277 6.50781C12.4277 5.97461 11.9902 5.55078 11.457 5.55078C10.9238 5.55078 10.5 5.97461 10.5 6.50781L10.5 7.17773L10.6367 9.33789L7.06836 5.63281C6.67188 5.20898 6.01562 5.20898 5.61914 5.61914C5.22266 6.01562 5.23633 6.67188 5.63281 7.06836L9.32422 10.6094L7.23242 10.4727L6.5625 10.4727C6.0293 10.4727 5.5918 10.8965 5.5918 11.4297C5.5918 11.9629 6.0293 12.4004 6.5625 12.4004ZM13.7266 19.5918C14.2598 19.5918 14.6836 19.168 14.6836 18.6348L14.6836 17.9648L14.5469 15.8047L18.1152 19.5098C18.5117 19.9336 19.168 19.9336 19.5645 19.5234C19.9609 19.127 19.9473 18.457 19.5508 18.0742L15.8594 14.5332L17.9512 14.6699L18.6211 14.6699C19.1543 14.6699 19.5918 14.2461 19.5918 13.7129C19.5918 13.166 19.1543 12.7422 18.6211 12.7422L13.8906 12.7422C13.1797 12.7422 12.7559 13.0566 12.7559 13.8633L12.7559 18.6348C12.7559 19.168 13.1934 19.5918 13.7266 19.5918Z" fill="white" fill-opacity="0.85"/>
 </g>
</svg>
