<?xml version="1.0" encoding="UTF-8"?>
<!--Generator: Apple Native CoreSVG 326-->
<!DOCTYPE svg
PUBLIC "-//W3C//DTD SVG 1.1//EN"
       "http://www.w3.org/Graphics/SVG/1.1/DTD/svg11.dtd">
<svg version="1.1" xmlns="http://www.w3.org/2000/svg" xmlns:xlink="http://www.w3.org/1999/xlink" viewBox="0 0 25.5254 25.1699">
 <g>
  <rect height="25.1699" opacity="0" width="25.5254" x="0" y="0"/>
  <path d="M4.29297 25.1699L20.877 25.1699C23.748 25.1699 25.1699 23.7617 25.1699 20.9453L25.1699 4.23828C25.1699 1.42188 23.748 0 20.877 0L4.29297 0C1.43555 0 0 1.42188 0 4.23828L0 20.9453C0 23.7617 1.43555 25.1699 4.29297 25.1699Z" fill="white" fill-opacity="0.85"/>
  <path d="M5.98828 7.68359L9.5293 4.25195C9.70703 4.06055 9.9668 3.95117 10.1992 3.95117C10.7188 3.95117 11.1016 4.32031 11.1016 4.85352C11.1016 5.09961 11.0059 5.33203 10.8281 5.50977L9.35156 6.95898L8.77734 7.46484L9.43359 7.45117L18.5527 7.45117C19.0859 7.45117 19.4688 7.83398 19.4688 8.36719C19.4688 8.88672 19.0723 9.29688 18.5527 9.29688L9.41992 9.29688L8.76367 9.25586L9.35156 9.80273L10.8281 11.2383C11.0059 11.416 11.1016 11.6348 11.1016 11.8945C11.1016 12.4141 10.7188 12.7832 10.1992 12.7832C9.9668 12.7832 9.7207 12.6738 9.5293 12.5234L5.98828 9.05078C5.61914 8.69531 5.61914 8.05273 5.98828 7.68359ZM19.168 17.4863L15.6406 20.959C15.4492 21.1367 15.1895 21.2461 14.9707 21.2461C14.4648 21.2461 14.0684 20.8633 14.0684 20.3438C14.0684 20.084 14.1777 19.8789 14.3555 19.6875L15.832 18.2383L16.4199 17.7324L15.7363 17.7461L6.61719 17.7461C6.09766 17.7461 5.71484 17.3496 5.71484 16.8164C5.71484 16.2832 6.11133 15.9004 6.61719 15.9004L15.75 15.9004L16.4199 15.9414L15.832 15.3945L14.3281 13.959C14.1641 13.7812 14.0684 13.5625 14.0684 13.3027C14.0684 12.7832 14.4375 12.4141 14.9707 12.4141C15.2168 12.4141 15.4766 12.5234 15.6406 12.6875L19.168 16.1602C19.5371 16.5293 19.5645 17.1035 19.168 17.4863Z" fill="white"/>
 </g>
</svg>
