<?xml version="1.0" encoding="UTF-8"?>
<!--Generator: Apple Native CoreSVG 326-->
<!DOCTYPE svg
PUBLIC "-//W3C//DTD SVG 1.1//EN"
       "http://www.w3.org/Graphics/SVG/1.1/DTD/svg11.dtd">
<svg version="1.1" xmlns="http://www.w3.org/2000/svg" xmlns:xlink="http://www.w3.org/1999/xlink" viewBox="0 0 28.2461 27.9043">
 <g>
  <rect height="27.9043" opacity="0" width="28.2461" x="0" y="0"/>
  <path d="M13.9453 27.8906C21.6426 27.8906 27.8906 21.6426 27.8906 13.9453C27.8906 6.24805 21.6426 0 13.9453 0C6.24805 0 0 6.24805 0 13.9453C0 21.6426 6.24805 27.8906 13.9453 27.8906ZM13.9453 25.5664C7.51953 25.5664 2.32422 20.3711 2.32422 13.9453C2.32422 7.51953 7.51953 2.32422 13.9453 2.32422C20.3711 2.32422 25.5664 7.51953 25.5664 13.9453C25.5664 20.3711 20.3711 25.5664 13.9453 25.5664Z" fill="white" fill-opacity="0.85"/>
  <path d="M6.84961 15.6133C6.84961 18.8945 9.24219 20.9453 12.4277 20.9453C12.5918 20.9453 14.2324 20.9453 14.3008 20.9453C14.916 20.9453 15.3672 20.6035 15.3672 19.9746C15.3672 19.332 14.916 18.9902 14.3281 18.9902C14.2734 18.9902 12.5918 18.9902 12.4277 18.9902C10.3633 18.9902 8.85938 17.6641 8.85938 15.5039C8.85938 13.3984 10.4043 12.25 12.4141 12.25L16.502 12.25L18.1152 12.1816L17.3223 12.7832L15.6133 14.4238C15.4082 14.6016 15.3125 14.875 15.3125 15.1211C15.3125 15.6953 15.7363 16.1191 16.2832 16.1191C16.5703 16.1191 16.7891 16.0234 16.9805 15.832L20.6309 12.1133C20.8496 11.8809 21 11.6074 21 11.2793C21 10.9648 20.8496 10.6777 20.6309 10.4453L16.9941 6.75391C16.8027 6.54883 16.584 6.4668 16.2969 6.4668C15.7363 6.4668 15.3125 6.89062 15.3125 7.45117C15.3125 7.73828 15.4355 7.99805 15.627 8.16211L17.0352 9.5293L18.1152 10.377L16.502 10.3359L12.4141 10.3359C9.22852 10.3359 6.84961 12.332 6.84961 15.6133Z" fill="white" fill-opacity="0.85"/>
 </g>
</svg>
