<svg version="1.1" xmlns="http://www.w3.org/2000/svg" xmlns:xlink="http://www.w3.org/1999/xlink" viewBox="0 0 24.4453 21.3418">
 <g>
  
  <path d="M0 10.418C0 11.1289 0.492188 11.6348 1.20312 11.6348L15.0254 11.6348L17.9512 11.5391L13.4531 15.6406L10.4316 18.7031C10.1992 18.9355 10.0898 19.2637 10.0898 19.5918C10.0898 20.2754 10.6094 20.7676 11.2793 20.7676C11.6211 20.7676 11.9219 20.6445 12.1953 20.3711L21.2598 11.334C21.5332 11.0742 21.6836 10.7461 21.6836 10.418C21.6836 10.0762 21.5332 9.76172 21.2598 9.48828L12.1953 0.451172C11.9219 0.177734 11.6211 0.0410156 11.2793 0.0410156C10.6094 0.0410156 10.0898 0.546875 10.0898 1.23047C10.0898 1.55859 10.1992 1.88672 10.4316 2.10547L13.4531 5.18164L17.9375 9.29688L15.0254 9.1875L1.20312 9.1875C0.492188 9.1875 0 9.69336 0 10.418ZM21.6426 19.6465C21.6426 20.3438 22.1484 20.8223 22.873 20.8223C23.584 20.8223 24.0898 20.3438 24.0898 19.6465L24.0898 1.20312C24.0898 0.492188 23.584 0 22.873 0C22.1484 0 21.6426 0.492188 21.6426 1.20312Z" style="fill:var(--color-0,hsl(0 0 0/0.85))"></path>
 </g>
</svg>