<?xml version="1.0" encoding="UTF-8"?>
<!--Generator: Apple Native CoreSVG 326-->
<!DOCTYPE svg
PUBLIC "-//W3C//DTD SVG 1.1//EN"
       "http://www.w3.org/Graphics/SVG/1.1/DTD/svg11.dtd">
<svg version="1.1" xmlns="http://www.w3.org/2000/svg" xmlns:xlink="http://www.w3.org/1999/xlink" viewBox="0 0 27.002 27.4121">
 <g>
  <rect height="27.4121" opacity="0" width="27.002" x="0" y="0"/>
  <path d="M2.46094 12.3867L10.0488 12.3867C11.4434 12.3867 12.25 11.5664 12.25 10.1719L12.25 2.59766C12.25 1.88672 11.7168 1.32617 10.9922 1.32617C10.2676 1.32617 9.74805 1.87305 9.74805 2.59766L9.74805 3.74609L10.0352 8.51758L6.42578 4.73047L2.22852 0.492188C1.99609 0.246094 1.68164 0.123047 1.35352 0.123047C0.574219 0.123047 0 0.642578 0 1.4082C0 1.76367 0.136719 2.10547 0.382812 2.35156L4.59375 6.5625L8.38086 10.1582L3.60938 9.88477L2.46094 9.88477C1.73633 9.88477 1.17578 10.3906 1.17578 11.1289C1.17578 11.8535 1.72266 12.3867 2.46094 12.3867ZM15.5723 26.2637C16.2969 26.2637 16.8164 25.7305 16.8164 24.9922L16.8164 23.6934L16.5293 18.9355L20.1387 22.7227L24.4316 27.043C24.6641 27.2891 24.9648 27.4121 25.3066 27.4121C26.0723 27.4121 26.6465 26.8926 26.6465 26.127C26.6465 25.7715 26.5234 25.4297 26.2773 25.1836L21.9707 20.877L18.1699 17.2812L22.9551 17.5547L24.2539 17.5547C24.9785 17.5547 25.5391 17.0488 25.5391 16.3242C25.5391 15.5859 24.9922 15.0664 24.2539 15.0664L16.5156 15.0664C15.1211 15.0664 14.3145 15.873 14.3145 17.2676L14.3145 24.9922C14.3145 25.7168 14.834 26.2637 15.5723 26.2637Z" fill="white" fill-opacity="0.85"/>
 </g>
</svg>
