<svg version="1.1" xmlns="http://www.w3.org/2000/svg" xmlns:xlink="http://www.w3.org/1999/xlink" viewBox="0 0 26.7423 32.3066">
 <g>
  
  <path d="M25.9766 25.0332C26.5235 24.5 26.5098 23.707 25.9766 23.1875L18.9356 16.2969C18.6895 16.0645 18.334 15.9141 18.0196 15.9141C17.295 15.9141 16.8165 16.4062 16.8165 17.1172C16.8165 17.4727 16.9258 17.7461 17.1583 17.9648L20.1114 20.8223L22.6544 23.0234L19.4962 22.8867L1.23053 22.8867C0.519595 22.8867 6.40669e-05 23.3926 6.40669e-05 24.1035C6.40669e-05 24.8281 0.519595 25.334 1.23053 25.334L19.4962 25.334L22.6544 25.1973L20.1114 27.3984L17.1583 30.2422C16.9258 30.4746 16.8165 30.748 16.8165 31.1035C16.8165 31.8145 17.295 32.3066 18.0196 32.3066C18.334 32.3066 18.6895 32.1562 18.9356 31.9238Z" style="fill:var(--color-0,hsl(0 0 0/0.85))"></path>
  <path d="M0.41022 7.28711C-0.150327 7.82031-0.122983 8.61328 0.41022 9.11914L7.45124 16.0098C7.69733 16.2559 8.0528 16.4062 8.35358 16.4062C9.07819 16.4062 9.57038 15.9004 9.57038 15.1895C9.57038 14.8477 9.44733 14.5742 9.21491 14.3418L6.27545 11.498L3.73249 9.29688L6.89069 9.43359L25.1563 9.43359C25.8673 9.43359 26.3731 8.92773 26.3731 8.20312C26.3731 7.49219 25.8673 6.98633 25.1563 6.98633L6.89069 6.98633L3.73249 7.10938L6.27545 4.92188L9.21491 2.06445C9.44733 1.83203 9.57038 1.57227 9.57038 1.2168C9.57038 0.505859 9.07819 0.0136719 8.35358 0.0136719C8.0528 0.0136719 7.69733 0.150391 7.45124 0.396484Z" style="fill:var(--color-1,hsl(0 0 0/0.85))"></path>
 </g>
</svg>