<?xml version="1.0" encoding="UTF-8"?>
<!--Generator: Apple Native CoreSVG 326-->
<!DOCTYPE svg
PUBLIC "-//W3C//DTD SVG 1.1//EN"
       "http://www.w3.org/Graphics/SVG/1.1/DTD/svg11.dtd">
<svg version="1.1" xmlns="http://www.w3.org/2000/svg" xmlns:xlink="http://www.w3.org/1999/xlink" viewBox="0 0 26.0176 22.9824">
 <g>
  <rect height="22.9824" opacity="0" width="26.0176" x="0" y="0"/>
  <path d="M24.377 0C23.666 0 23.1602 0.492188 23.1602 1.20312C23.1602 1.69531 23.1875 2.13281 23.1875 2.78906C23.1875 7.86133 21.4238 9.92578 16.4062 9.92578L6.97266 9.92578L3.60938 10.1309L8.23047 5.90625L11.2656 2.81641C11.4844 2.59766 11.5938 2.2832 11.5938 1.95508C11.5938 1.27148 11.0742 0.779297 10.4043 0.779297C10.0762 0.779297 9.78906 0.888672 9.50195 1.14844L0.423828 10.2266C0.150391 10.4863 0 10.8145 0 11.1426C0 11.4844 0.150391 11.7988 0.423828 12.0723L9.47461 21.1094C9.77539 21.3965 10.0762 21.5195 10.4043 21.5195C11.0742 21.5195 11.5938 21.0273 11.5938 20.3438C11.5938 20.0156 11.4844 19.7012 11.2656 19.4688L8.23047 16.3789L3.62305 12.1816L6.97266 12.373L16.5293 12.373C23.0234 12.373 25.6621 9.5293 25.6621 2.91211C25.6621 2.10547 25.6348 1.43555 25.5527 1.01172C25.4297 0.464844 25.1016 0 24.377 0Z" fill="white" fill-opacity="0.85"/>
 </g>
</svg>
