<svg version="1.1" xmlns="http://www.w3.org/2000/svg" xmlns:xlink="http://www.w3.org/1999/xlink" viewBox="0 0 28.2461 27.9043">
 <g>
  
  <path d="M13.9453 27.8906C21.6426 27.8906 27.8906 21.6426 27.8906 13.9453C27.8906 6.24805 21.6426 0 13.9453 0C6.24805 0 0 6.24805 0 13.9453C0 21.6426 6.24805 27.8906 13.9453 27.8906ZM13.9453 25.5664C7.51953 25.5664 2.32422 20.3711 2.32422 13.9453C2.32422 7.51953 7.51953 2.32422 13.9453 2.32422C20.3711 2.32422 25.5664 7.51953 25.5664 13.9453C25.5664 20.3711 20.3711 25.5664 13.9453 25.5664Z" style="fill:var(--color-0,hsl(0 0 0/0.85))"></path>
  <path d="M9.63867 10.5547C9.03711 10.5547 8.62695 11.0059 8.62695 11.6484L8.62695 18.1016C8.62695 18.9082 9.07812 19.2227 9.77539 19.2227L16.2559 19.2227C16.8984 19.2227 17.3086 18.8262 17.3086 18.2246C17.3086 17.623 16.8848 17.2266 16.2285 17.2266L13.7402 17.2266L11.7168 17.4453L13.8496 15.4492L18.8945 10.418C19.0859 10.2266 19.2227 9.95312 19.2227 9.67969C19.2227 9.06445 18.8125 8.66797 18.2109 8.66797C17.8828 8.66797 17.623 8.79102 17.4316 8.98242L12.4004 14.0137L10.4316 16.1191L10.6367 13.9863L10.6367 11.6211C10.6367 10.9648 10.2402 10.5547 9.63867 10.5547Z" style="fill:var(--color-1,hsl(0 0 0/0.85))"></path>
 </g>
</svg>