<?xml version="1.0" encoding="UTF-8"?>
<!--Generator: Apple Native CoreSVG 326-->
<!DOCTYPE svg
PUBLIC "-//W3C//DTD SVG 1.1//EN"
       "http://www.w3.org/Graphics/SVG/1.1/DTD/svg11.dtd">
<svg version="1.1" xmlns="http://www.w3.org/2000/svg" xmlns:xlink="http://www.w3.org/1999/xlink" viewBox="0 0 32.3477 25.7066">
 <g>
  <rect height="25.7066" opacity="0" width="32.3477" x="0" y="0"/>
  <path d="M24.7188 25.3015L31.6094 18.2332C31.8555 18.0007 31.9922 17.6453 31.9922 17.3308C31.9922 16.6062 31.5 16.1277 30.7891 16.1277C30.4336 16.1277 30.1738 16.2371 29.9414 16.4695L27.0977 19.409L24.8965 21.9656L25.0195 18.8074L25.0195 1.23903C25.0195 0.528092 24.5137 0.00856115 23.8027 0.00856115C23.0781 0.00856115 22.5723 0.528092 22.5723 1.23903L22.5723 18.8074L22.709 21.9656L20.5078 19.409L17.6641 16.4695C17.4316 16.2371 17.1582 16.1277 16.8164 16.1277C16.1055 16.1277 15.5996 16.6062 15.5996 17.3308C15.5996 17.6453 15.75 18.0007 15.9961 18.2332L22.8867 25.3015C23.3926 25.8347 24.1855 25.8484 24.7188 25.3015Z" fill="white" fill-opacity="0.85"/>
  <path d="M7.28711 0.418717L0.382812 7.45973C0.150391 7.70583 0 8.0613 0 8.36208C0 9.08669 0.492188 9.57887 1.20312 9.57887C1.55859 9.57887 1.83203 9.45583 2.06445 9.2234L4.9082 6.28395L7.10938 3.74098L6.97266 6.89919L6.97266 24.4675C6.97266 25.1922 7.47852 25.698 8.20312 25.698C8.91406 25.698 9.41992 25.1922 9.41992 24.4675L9.41992 6.89919L9.29688 3.74098L11.4844 6.28395L14.3418 9.2234C14.5742 9.45583 14.834 9.57887 15.1895 9.57887C15.9004 9.57887 16.3926 9.08669 16.3926 8.36208C16.3926 8.0613 16.2559 7.70583 16.0098 7.45973L9.11914 0.418717C8.61328-0.114486 7.80664-0.141829 7.28711 0.418717Z" fill="white" fill-opacity="0.85"/>
 </g>
</svg>
