<?xml version="1.0" encoding="UTF-8"?>
<!--Generator: Apple Native CoreSVG 326-->
<!DOCTYPE svg
PUBLIC "-//W3C//DTD SVG 1.1//EN"
       "http://www.w3.org/Graphics/SVG/1.1/DTD/svg11.dtd">
<svg version="1.1" xmlns="http://www.w3.org/2000/svg" xmlns:xlink="http://www.w3.org/1999/xlink" viewBox="0 0 28.9434 32.5871">
 <g>
  <rect height="32.5871" opacity="0" width="28.9434" x="0" y="0"/>
  <path d="M7.75195 21.3726C8.32617 21.2359 8.6543 20.689 8.49023 20.1148L7.3418 15.5621C7.21875 15.1109 7.02734 14.7965 6.67188 14.5914C6.31641 14.3726 5.96094 14.359 5.49609 14.4957L0.998047 15.7672C0.396484 15.9312 0.0957031 16.4918 0.259766 17.0387C0.410156 17.6129 0.970703 17.9547 1.54492 17.7633L5.52344 16.5875L6.48047 20.6207C6.60352 21.2086 7.19141 21.523 7.75195 21.3726ZM3.77344 29.0152L11.1016 29.0152C11.7441 29.0152 12.2227 28.564 12.2227 27.9488C12.2227 27.3336 11.7441 26.8687 11.1016 26.8687L3.78711 26.8687C2.84375 26.8687 2.21484 26.0894 2.21484 25.2418C2.21484 24.9957 2.25586 24.6949 2.40625 24.4351L7.15039 15.9449L5.29102 14.8512L0.505859 23.3824C0.177734 23.984 0 24.6265 0 25.2418C0 27.3609 1.44922 29.0152 3.77344 29.0152ZM20.6445 14.523L22.5039 13.443L17.541 4.56991C16.8438 3.31209 15.5723 2.66952 14.3008 2.66952C13.0156 2.66952 11.7578 3.32577 11.0469 4.56991L7.27344 11.3101C6.91797 11.9254 7.10938 12.5133 7.64258 12.8277C8.18945 13.1285 8.83203 12.9371 9.14648 12.3902L12.9199 5.62264C13.2344 5.07577 13.7676 4.84334 14.3008 4.84334C14.834 4.84334 15.3535 5.07577 15.6543 5.62264ZM20.8359 14.8512C21.3008 14.9742 21.6562 14.9742 22.0117 14.7555C22.3672 14.5367 22.5586 14.2496 22.6816 13.7848L23.8164 9.23202C23.9805 8.6578 23.666 8.11092 23.0918 7.9742C22.5312 7.82381 21.9434 8.13827 21.8203 8.72616L20.8633 12.7594L16.8711 11.5836C16.3105 11.4058 15.75 11.734 15.5859 12.3082C15.4355 12.8551 15.7363 13.4156 16.3242 13.5797ZM15.1348 29.0152L24.8145 29.0152C27.1387 29.0152 28.5879 27.3609 28.5879 25.2418C28.5879 24.6265 28.4238 23.9976 28.082 23.3824L24.459 16.9156C24.1445 16.3277 23.502 16.191 22.9824 16.5055C22.4492 16.8199 22.2715 17.4625 22.5723 18.0094L26.168 24.4351C26.3184 24.6949 26.3867 24.9957 26.3867 25.2418C26.3867 26.0894 25.7305 26.8687 24.7871 26.8687L15.1348 26.8687ZM18.0879 32.2691C18.5117 32.7066 19.1543 32.6793 19.5508 32.2691C19.9746 31.8726 19.9746 31.2164 19.5371 30.7926L16.5293 27.9488L19.5371 25.1051C19.9746 24.6812 19.9746 24.025 19.5508 23.6285C19.1543 23.2047 18.5117 23.191 18.0879 23.6285L14.7246 26.8824C14.3828 27.2105 14.2324 27.5387 14.2324 27.9488C14.2324 28.359 14.3828 28.6734 14.7246 29.0015Z" fill="white" fill-opacity="0.85"/>
 </g>
</svg>
