<?xml version="1.0" encoding="UTF-8"?>
<!--Generator: Apple Native CoreSVG 326-->
<!DOCTYPE svg
PUBLIC "-//W3C//DTD SVG 1.1//EN"
       "http://www.w3.org/Graphics/SVG/1.1/DTD/svg11.dtd">
<svg version="1.1" xmlns="http://www.w3.org/2000/svg" xmlns:xlink="http://www.w3.org/1999/xlink" viewBox="0 0 25.5254 25.1699">
 <g>
  <rect height="25.1699" opacity="0" width="25.5254" x="0" y="0"/>
  <path d="M4.29297 25.1699L20.877 25.1699C23.748 25.1699 25.1699 23.7617 25.1699 20.9453L25.1699 4.23828C25.1699 1.42188 23.748 0 20.877 0L4.29297 0C1.43555 0 0 1.42188 0 4.23828L0 20.9453C0 23.7617 1.43555 25.1699 4.29297 25.1699ZM4.32031 22.9688C2.95312 22.9688 2.20117 22.2441 2.20117 20.8223L2.20117 4.36133C2.20117 2.93945 2.95312 2.20117 4.32031 2.20117L20.8496 2.20117C22.2031 2.20117 22.9688 2.93945 22.9688 4.36133L22.9688 20.8223C22.9688 22.2441 22.2031 22.9688 20.8496 22.9688Z" fill="white" fill-opacity="0.85"/>
  <path d="M12.5781 20.6445C13.1113 20.6445 13.4941 20.248 13.4941 19.7285L13.4941 13.4531L13.3438 10.9512L15.75 13.6855L16.6523 14.5879C16.8301 14.7793 17.0762 14.8613 17.3223 14.8613C17.8281 14.8613 18.1973 14.4512 18.1973 13.959C18.1973 13.7129 18.1152 13.4805 17.8965 13.2617L13.2617 8.57227C13.0703 8.36719 12.8379 8.25781 12.5781 8.25781C12.332 8.25781 12.0859 8.35352 11.8945 8.57227L7.27344 13.2754C7.10938 13.4668 7 13.7402 7 13.959C7 14.4785 7.35547 14.8613 7.88867 14.8613C8.16211 14.8613 8.36719 14.7793 8.54492 14.5879L9.32422 13.7266L11.8125 10.9375L11.6621 13.4531L11.6621 19.7285C11.6621 20.248 12.0312 20.6445 12.5781 20.6445ZM7.46484 7.20508L17.7324 7.20508C18.2656 7.20508 18.6348 6.82227 18.6348 6.30273C18.6348 5.75586 18.2656 5.37305 17.7324 5.37305L7.46484 5.37305C6.93164 5.37305 6.5625 5.75586 6.5625 6.30273C6.5625 6.82227 6.93164 7.20508 7.46484 7.20508Z" fill="white" fill-opacity="0.85"/>
 </g>
</svg>
