<?xml version="1.0" encoding="UTF-8"?>
<!--Generator: Apple Native CoreSVG 326-->
<!DOCTYPE svg
PUBLIC "-//W3C//DTD SVG 1.1//EN"
       "http://www.w3.org/Graphics/SVG/1.1/DTD/svg11.dtd">
<svg version="1.1" xmlns="http://www.w3.org/2000/svg" xmlns:xlink="http://www.w3.org/1999/xlink" viewBox="0 0 28.3145 34.4395">
 <g>
  <rect height="34.4395" opacity="0" width="28.3145" x="0" y="0"/>
  <path d="M27.959 4.29297L27.959 23.2832C27.959 26.127 26.5371 27.5762 23.7207 27.5762L21.3281 27.5762L21.3281 11.1152C21.3281 8.25781 19.9199 6.82227 17.0898 6.82227L6.63086 6.82227L6.63086 4.29297C6.63086 1.43555 8.03906 0 10.8691 0L23.7207 0C26.5371 0 27.959 1.43555 27.959 4.29297ZM13.959 2.78906C13.3574 2.78906 13.084 3.17188 13.084 3.5957L13.084 3.88281C13.084 4.29297 13.3574 4.68945 13.959 4.68945L20.6309 4.68945C21.2188 4.68945 21.5059 4.29297 21.5059 3.88281L21.5059 3.5957C21.5059 3.17188 21.2188 2.78906 20.6309 2.78906Z" fill="white" fill-opacity="0.85"/>
  <path d="M0 30.1055C0 32.9629 1.4082 34.3984 4.23828 34.3984L17.0898 34.3984C19.9199 34.3984 21.3281 32.9492 21.3281 30.1055L21.3281 11.1152C21.3281 8.25781 19.9199 6.82227 17.0898 6.82227L4.23828 6.82227C1.4082 6.82227 0 8.24414 0 11.1152ZM2.20117 30.0645L2.20117 11.1426C2.20117 9.78906 2.92578 9.02344 4.33398 9.02344L16.9805 9.02344C18.3887 9.02344 19.127 9.78906 19.127 11.1426L19.127 30.0645C19.127 31.4316 18.3887 32.1973 16.9805 32.1973L4.33398 32.1973C2.92578 32.1973 2.20117 31.4316 2.20117 30.0645Z" fill="white" fill-opacity="0.85"/>
  <path d="M16.4609 20.6035C16.4609 20.3711 16.3789 20.1523 16.1465 19.8926L12.5234 16.1602C12.3594 15.9824 12.1543 15.8594 11.8945 15.8594C11.3887 15.8594 11.0059 16.2559 11.0059 16.748C11.0059 16.9941 11.1152 17.2539 11.3066 17.4453L13.166 19.168L13.6992 19.6875L12.2363 19.6328L5.81055 19.6328C5.30469 19.6328 4.86719 20.084 4.86719 20.6035C4.86719 21.123 5.30469 21.5879 5.81055 21.5879L12.2363 21.5879L13.6992 21.5332L13.166 22.0391L11.3066 23.7754C11.1152 23.9531 11.0059 24.2129 11.0059 24.4453C11.0059 24.9375 11.3887 25.3477 11.8945 25.3477C12.1543 25.3477 12.3594 25.2383 12.5234 25.0469L16.1465 21.3145C16.3789 21.0684 16.4609 20.8359 16.4609 20.6035Z" fill="white" fill-opacity="0.85"/>
 </g>
</svg>
