<?xml version="1.0" encoding="UTF-8"?>
<!--Generator: Apple Native CoreSVG 326-->
<!DOCTYPE svg
PUBLIC "-//W3C//DTD SVG 1.1//EN"
       "http://www.w3.org/Graphics/SVG/1.1/DTD/svg11.dtd">
<svg version="1.1" xmlns="http://www.w3.org/2000/svg" xmlns:xlink="http://www.w3.org/1999/xlink" viewBox="0 0 49.5059 32.0879">
 <g>
  <rect height="32.0879" opacity="0" width="49.5059" x="0" y="0"/>
  <path d="M19.7148 14.9844L29.4219 14.9844C30.9121 14.9844 32.0742 13.8359 32.0742 12.332L32.0742 2.66602C32.0742 1.16211 30.9121 0 29.4219 0L19.7148 0C18.2246 0 17.0898 1.16211 17.0898 2.66602L17.0898 12.332C17.0898 13.8359 18.2246 14.9844 19.7148 14.9844ZM19.7148 13.0566C19.3184 13.0566 19.0176 12.7422 19.0176 12.332L19.0176 2.66602C19.0176 2.24219 19.3184 1.92773 19.7148 1.92773L29.4219 1.92773C29.832 1.92773 30.1465 2.24219 30.1465 2.66602L30.1465 12.332C30.1465 12.7422 29.832 13.0566 29.4219 13.0566ZM2.625 32.0742L12.332 32.0742C13.8223 32.0742 14.9844 30.9121 14.9844 29.4082L14.9844 19.7559C14.9844 18.252 13.8223 17.0762 12.332 17.0762L2.625 17.0762C1.13477 17.0762 0 18.252 0 19.7559L0 29.4082C0 30.9121 1.13477 32.0742 2.625 32.0742ZM2.625 30.1465C2.22852 30.1465 1.92773 29.832 1.92773 29.4082L1.92773 19.7559C1.92773 19.3184 2.22852 19.0039 2.625 19.0039L12.332 19.0039C12.7422 19.0039 13.0566 19.3184 13.0566 19.7559L13.0566 29.4082C13.0566 29.832 12.7422 30.1465 12.332 30.1465ZM19.7148 32.0742L29.4219 32.0742C30.9121 32.0742 32.0742 30.9121 32.0742 29.4082L32.0742 19.7559C32.0742 18.252 30.9121 17.0762 29.4219 17.0762L19.7148 17.0762C18.2246 17.0762 17.0898 18.252 17.0898 19.7559L17.0898 29.4082C17.0898 30.9121 18.2246 32.0742 19.7148 32.0742ZM19.7148 30.1465C19.3184 30.1465 19.0176 29.832 19.0176 29.4082L19.0176 19.7559C19.0176 19.3184 19.3184 19.0039 19.7148 19.0039L29.4219 19.0039C29.832 19.0039 30.1465 19.3184 30.1465 19.7559L30.1465 29.4082C30.1465 29.832 29.832 30.1465 29.4219 30.1465ZM36.8184 32.0742L46.5254 32.0742C48.0156 32.0742 49.1504 30.9121 49.1504 29.4082L49.1504 19.7559C49.1504 18.252 48.0156 17.0762 46.5254 17.0762L36.8184 17.0762C35.3281 17.0762 34.166 18.252 34.166 19.7559L34.166 29.4082C34.166 30.9121 35.3281 32.0742 36.8184 32.0742ZM36.8184 30.1465C36.4082 30.1465 36.0938 29.832 36.0938 29.4082L36.0938 19.7559C36.0938 19.3184 36.4082 19.0039 36.8184 19.0039L46.5254 19.0039C46.9219 19.0039 47.2227 19.3184 47.2227 19.7559L47.2227 29.4082C47.2227 29.832 46.9219 30.1465 46.5254 30.1465Z" fill="white" fill-opacity="0.85"/>
  <path d="M21.5059 10.8145L27.6582 10.8145C28.2188 10.8145 28.5742 10.1445 28.2598 9.59766L25.2383 4.51172C24.9375 4.00586 24.1719 4.01953 23.8848 4.52539L20.9043 9.59766C20.5762 10.1445 20.9316 10.8145 21.5059 10.8145ZM10.4453 27.6445L10.4453 21.4922C10.4453 20.9316 9.77539 20.5762 9.21484 20.8906L4.12891 23.9121C3.62305 24.2129 3.63672 24.9785 4.14258 25.2656L9.21484 28.2598C9.77539 28.5742 10.4453 28.2188 10.4453 27.6445ZM23.8848 27.5488C24.1855 28.0547 24.9375 28.0684 25.2383 27.5625L28.2598 22.4766C28.5879 21.9297 28.2188 21.2598 27.6582 21.2598L21.5195 21.2598C20.9316 21.2598 20.5898 21.916 20.9043 22.4766ZM38.7188 27.6445C38.7188 28.2188 39.3887 28.5742 39.9355 28.2598L45.0078 25.2656C45.5137 24.9785 45.5273 24.2129 45.0215 23.9121L39.9355 20.8906C39.375 20.5762 38.7188 20.9316 38.7188 21.4922Z" fill="white" fill-opacity="0.85"/>
 </g>
</svg>
