<svg version="1.1" xmlns="http://www.w3.org/2000/svg" xmlns:xlink="http://www.w3.org/1999/xlink" viewBox="0 0 24.5 32.7168">
 <g>
  
  <path d="M24.1445 17.3633C24.1445 10.6914 18.7441 5.29102 12.0723 5.29102C11.2383 5.29102 10.4316 5.38672 9.7207 5.52344L13.3574 1.90039C13.5488 1.68164 13.6582 1.4082 13.6582 1.12109C13.6582 0.492188 13.1934 0 12.5781 0C12.25 0 11.9766 0.109375 11.7852 0.328125L6.15234 6.04297C5.93359 6.26172 5.81055 6.5625 5.81055 6.86328C5.81055 7.17773 5.90625 7.45117 6.15234 7.68359L11.7852 13.3438C11.9902 13.5352 12.2363 13.6582 12.5781 13.6582C13.1934 13.6582 13.6582 13.1934 13.6582 12.5645C13.6582 12.2773 13.5625 11.9902 13.3438 11.7852L9.25586 7.73828C10.0625 7.54688 11.0332 7.47852 12.0723 7.47852C17.5273 7.47852 21.9434 11.8945 21.9434 17.3496C21.9434 22.8047 17.5273 27.2207 12.0723 27.2207C6.61719 27.2207 2.20117 22.8047 2.20117 17.3496C2.20117 16.6934 1.79102 16.2148 1.13477 16.2148C0.464844 16.2148 0 16.6934 0 17.3633C0 24.0352 5.40039 29.4355 12.0723 29.4355C18.7441 29.4355 24.1445 24.0352 24.1445 17.3633Z" style="fill:var(--color-0,hsl(0 0 0/0.85))"></path>
 </g>
</svg>