<?xml version="1.0" encoding="UTF-8"?>
<!--Generator: Apple Native CoreSVG 326-->
<!DOCTYPE svg
PUBLIC "-//W3C//DTD SVG 1.1//EN"
       "http://www.w3.org/Graphics/SVG/1.1/DTD/svg11.dtd">
<svg version="1.1" xmlns="http://www.w3.org/2000/svg" xmlns:xlink="http://www.w3.org/1999/xlink" viewBox="0 0 25.5664 25.1152">
 <g>
  <rect height="25.1152" opacity="0" width="25.5664" x="0" y="0"/>
  <path d="M1.59961 1.64062C0.259766 2.98047 0 4.83984 0 7.05469L0 7.19141L2.20117 7.19141L2.20117 6.97266C2.20117 5.53711 2.37891 4.06055 3.19922 3.24023C4.0332 2.40625 5.52344 2.22852 6.95898 2.22852L7.20508 2.22852L7.20508 0.0273438L7.04102 0.0273438C4.82617 0.0273438 2.95312 0.287109 1.59961 1.64062ZM9.07812 2.22852L16.1328 2.22852L16.1328 0.0273438L9.07812 0.0273438ZM23.6113 1.64062C22.2578 0.287109 20.3848 0.0273438 18.1289 0.0273438L17.9922 0.0273438L17.9922 2.22852L18.293 2.22852C19.7012 2.22852 21.1777 2.41992 21.998 3.24023C22.832 4.07422 23.0098 5.52344 23.0098 6.93164L23.0098 7.19141L25.2109 7.19141L25.2109 7.0957C25.2109 4.82617 24.9512 2.9668 23.6113 1.64062ZM23.0098 16.0781L25.2109 16.0781L25.2109 9.06445L23.0098 9.06445ZM23.6113 23.502C24.9512 22.1621 25.2109 20.3164 25.2109 18.0469L25.2109 17.9512L23.0098 17.9512L23.0098 18.1973C23.0098 19.6191 22.832 21.0684 21.998 21.9023C21.1777 22.7227 19.7012 22.9141 18.293 22.9141L17.9922 22.9141L17.9922 25.1152L18.1289 25.1152C20.3848 25.1152 22.2578 24.8555 23.6113 23.502ZM9.07812 25.1152L16.1328 25.1152L16.1328 22.9141L9.07812 22.9141ZM1.59961 23.502C2.95312 24.8555 4.82617 25.1152 7.06836 25.1152L7.20508 25.1152L7.20508 22.9141L6.91797 22.9141C5.50977 22.9141 4.0332 22.7227 3.19922 21.9023C2.37891 21.0684 2.20117 19.6191 2.20117 18.1973L2.20117 17.9512L0 17.9512L0 18.0469C0 20.3164 0.259766 22.1621 1.59961 23.502ZM0 16.0781L2.20117 16.0781L2.20117 9.06445L0 9.06445Z" fill="white" fill-opacity="0.85"/>
  <path d="M12.6191 19.4414C12.9062 19.4414 13.1387 19.3594 13.4121 19.0859L17.9238 14.7383C18.1289 14.5332 18.2383 14.3145 18.2383 14.0137C18.2383 13.4531 17.8145 13.0566 17.2539 13.0566C16.9805 13.0566 16.707 13.166 16.502 13.3848L14.4238 15.5996L13.6309 16.4473L13.7129 14.3965L13.7129 6.71289C13.7129 6.13867 13.207 5.66016 12.6191 5.66016C12.0312 5.66016 11.5391 6.13867 11.5391 6.71289L11.5391 14.3965L11.6211 16.4473L10.8281 15.5996L8.73633 13.3848C8.54492 13.166 8.24414 13.0566 7.98438 13.0566C7.41016 13.0566 7 13.4531 7 14.0137C7 14.3145 7.12305 14.5332 7.32812 14.7383L11.8398 19.0859C12.1133 19.3594 12.3457 19.4414 12.6191 19.4414Z" fill="white" fill-opacity="0.85"/>
 </g>
</svg>
