<svg version="1.1" xmlns="http://www.w3.org/2000/svg" xmlns:xlink="http://www.w3.org/1999/xlink" viewBox="0 0 41.0601 28.6152">
 <g>
  
  <path d="M0.589611 15.4629L12.156 22.1621C13.031 22.668 14.1111 22.1621 14.1111 21.2188L14.1111 7.49219C14.1111 6.53516 13.0173 5.98828 12.156 6.49414L0.589611 13.2754C-0.189686 13.7266-0.203358 14.9844 0.589611 15.4629ZM20.3455 28.6152C20.8787 28.6152 21.3572 28.1914 21.3572 27.6582L21.3572 0.970703C21.3572 0.4375 20.8787 0.0273438 20.3455 0.0273438C19.8123 0.0273438 19.3474 0.4375 19.3474 0.970703L19.3474 27.6582C19.3474 28.1914 19.8123 28.6152 20.3455 28.6152ZM40.115 15.4629C40.908 14.9844 40.8943 13.7266 40.115 13.2754L28.5486 6.49414C27.6873 5.98828 26.5935 6.53516 26.5935 7.49219L26.5935 21.2188C26.5935 22.1621 27.6736 22.668 28.5486 22.1621Z" style="fill:var(--color-0,hsl(0 0 0/0.85))"></path>
 </g>
</svg>