<?xml version="1.0" encoding="UTF-8"?>
<!--Generator: Apple Native CoreSVG 326-->
<!DOCTYPE svg
PUBLIC "-//W3C//DTD SVG 1.1//EN"
       "http://www.w3.org/Graphics/SVG/1.1/DTD/svg11.dtd">
<svg version="1.1" xmlns="http://www.w3.org/2000/svg" xmlns:xlink="http://www.w3.org/1999/xlink" viewBox="0 0 32.5938 25.1699">
 <g>
  <rect height="25.1699" opacity="0" width="32.5938" x="0" y="0"/>
  <path d="M4.29297 25.1699L27.9453 25.1699C30.8164 25.1699 32.2383 23.7617 32.2383 20.9453L32.2383 4.23828C32.2383 1.42188 30.8164 0 27.9453 0L4.29297 0C1.43555 0 0 1.42188 0 4.23828L0 20.9453C0 23.7617 1.43555 25.1699 4.29297 25.1699Z" fill="white" fill-opacity="0.85"/>
  <path d="M19.3047 14.0957C18.5801 14.0957 18.1289 13.7676 18.1289 12.9199L18.1289 6.48047C18.1289 5.81055 18.5391 5.3457 19.1543 5.3457C19.7832 5.3457 20.1934 5.76953 20.1934 6.45312L20.1934 8.68164L19.9883 10.8828L22.0254 8.70898L26.25 4.4707C26.4551 4.26562 26.7148 4.14258 27.0703 4.14258C27.6855 4.14258 28.0957 4.56641 28.0957 5.20898C28.0957 5.48242 27.959 5.75586 27.7539 5.94727L23.5156 10.1855L21.3145 12.25L23.4062 12.0312L25.7715 12.0312C26.4414 12.0312 26.8789 12.4414 26.8789 13.0566C26.8789 13.6855 26.4551 14.0957 25.7988 14.0957Z" fill="white"/>
 </g>
</svg>
