<svg version="1.1" xmlns="http://www.w3.org/2000/svg" xmlns:xlink="http://www.w3.org/1999/xlink" viewBox="0 0 33.9336 26.9473">
 <g>
  
  <path d="M4.29297 26.0723L29.2852 26.0723C32.1289 26.0723 33.5781 24.6504 33.5781 21.834L33.5781 7.51953C33.5781 4.70312 32.1289 3.29492 29.2852 3.29492L25.375 3.29492C24.2949 3.29492 23.9668 3.07617 23.3516 2.39258L22.2578 1.16211C21.5742 0.410156 20.877 0 19.4688 0L14.0137 0C12.6055 0 11.9082 0.410156 11.2246 1.16211L10.1309 2.39258C9.51562 3.0625 9.17383 3.29492 8.10742 3.29492L4.29297 3.29492C1.43555 3.29492 0 4.70312 0 7.51953L0 21.834C0 24.6504 1.43555 26.0723 4.29297 26.0723ZM4.32031 23.8711C2.98047 23.8711 2.20117 23.1465 2.20117 21.7246L2.20117 7.64258C2.20117 6.2207 2.98047 5.49609 4.32031 5.49609L8.6543 5.49609C9.88477 5.49609 10.5547 5.26367 11.2383 4.49805L12.3047 3.29492C13.084 2.41992 13.4941 2.20117 14.6973 2.20117L18.7852 2.20117C19.9883 2.20117 20.3984 2.41992 21.1777 3.29492L22.2441 4.49805C22.9277 5.26367 23.5977 5.49609 24.8281 5.49609L29.2441 5.49609C30.5977 5.49609 31.377 6.2207 31.377 7.64258L31.377 21.7246C31.377 23.1465 30.5977 23.8711 29.2441 23.8711Z" style="fill:var(--color-0,hsl(0 0 0/0.85))"></path>
  <path d="M7.58789 14.0137C7.25977 14.4922 7.38281 15.0664 7.99805 15.0664L9.39258 15.0664C10.0488 18.7441 13.0293 21.2871 16.8164 21.2871C18.4707 21.2871 20.125 20.7129 21.2871 19.7559C21.916 19.2637 22.0801 18.5664 21.6016 18.0742C21.1367 17.582 20.5488 17.6641 20.0156 18.0469C19.0586 18.7988 18.1016 19.209 16.8164 19.209C14.1777 19.209 11.9766 17.4316 11.375 15.0664L12.7832 15.0664C13.3984 15.0664 13.5488 14.4922 13.207 14.0137L11.0469 11.0332C10.7051 10.541 10.0898 10.5 9.70703 11.0332ZM12.0039 9.65234C12.4551 10.1445 13.0566 10.0762 13.5762 9.67969C14.5332 8.91406 15.5039 8.53125 16.7891 8.53125C19.4277 8.53125 21.6152 10.3086 22.2168 12.6602L20.7266 12.6602C20.125 12.6602 19.9746 13.248 20.3164 13.7129L22.4629 16.707C22.8184 17.1992 23.4336 17.2402 23.8164 16.707L25.9355 13.7129C26.2637 13.2344 26.1406 12.6602 25.5254 12.6602L24.1992 12.6602C23.543 8.98242 20.5625 6.43945 16.7891 6.43945C15.1348 6.43945 13.4668 7.02734 12.3184 7.98438C11.6895 8.47656 11.5254 9.16016 12.0039 9.65234Z" style="fill:var(--color-1,hsl(0 0 0/0.85))"></path>
 </g>
</svg>