<?xml version="1.0" encoding="UTF-8"?>
<!--Generator: Apple Native CoreSVG 326-->
<!DOCTYPE svg
PUBLIC "-//W3C//DTD SVG 1.1//EN"
       "http://www.w3.org/Graphics/SVG/1.1/DTD/svg11.dtd">
<svg version="1.1" xmlns="http://www.w3.org/2000/svg" xmlns:xlink="http://www.w3.org/1999/xlink" viewBox="0 0 28.2461 27.9043">
 <g>
  <rect height="27.9043" opacity="0" width="28.2461" x="0" y="0"/>
  <path d="M13.9453 27.9043C21.6426 27.9043 27.8906 21.6562 27.8906 13.959C27.8906 6.27539 21.6426 0.0136719 13.9453 0.0136719C6.26172 0.0136719 0 6.27539 0 13.959C0 21.6562 6.26172 27.9043 13.9453 27.9043Z" fill="#0a84ff"/>
  <path d="M10.7598 19.7832C10.4043 19.7832 10.1445 19.6191 9.77539 19.291L3.95117 13.8223C3.67773 13.5488 3.5957 13.2891 3.5957 13.043C3.5957 12.7695 3.67773 12.5234 3.95117 12.25L9.77539 6.80859C10.1582 6.45312 10.3906 6.28906 10.7461 6.28906C11.2793 6.28906 11.6211 6.61719 11.6211 6.95898L11.6211 7.30078L6.98633 11.5527C6.52148 11.9629 6.28906 12.4961 6.28906 13.043C6.28906 13.5898 6.53516 14.1094 6.98633 14.5195L11.6211 18.7988L11.6211 19.1406C11.6211 19.4688 11.2793 19.7832 10.7598 19.7832ZM14.4785 19.7832C14.1504 19.7832 13.8496 19.6191 13.4941 19.291L7.68359 13.8223C7.39648 13.5352 7.31445 13.2891 7.31445 13.043C7.31445 12.7695 7.39648 12.5371 7.68359 12.25L13.4941 6.80859C13.877 6.45312 14.123 6.28906 14.4648 6.28906C14.9707 6.28906 15.3398 6.71289 15.3398 7.19141L15.3398 9.99414L15.5586 9.99414C20.8223 9.99414 23.1465 13.3438 23.1465 18.7988C23.1465 19.4277 22.8184 19.7832 22.4082 19.7832C22.0801 19.7832 21.7383 19.6875 21.4922 19.2363C20.248 16.8301 18.416 16.1055 15.5586 16.1055L15.3398 16.1055L15.3398 18.9082C15.3398 19.4277 14.9707 19.7832 14.4785 19.7832Z" fill="white"/>
 </g>
</svg>
