<svg version="1.1" xmlns="http://www.w3.org/2000/svg" xmlns:xlink="http://www.w3.org/1999/xlink" viewBox="0 0 28.2461 27.9043">
 <g>
  
  <path d="M13.9453 27.8906C21.6426 27.8906 27.8906 21.6289 27.8906 13.9453C27.8906 6.24805 21.6426 0 13.9453 0C6.26172 0 0 6.24805 0 13.9453C0 21.6289 6.26172 27.8906 13.9453 27.8906Z" style="fill:var(--color-0,#007aff)"></path>
  <path d="M7.82031 17.9512L7.82031 14.3555C7.82031 11.6211 9.13281 10.3086 11.8672 10.3086L15.75 10.3086L15.75 8.50391C15.75 7.58789 16.707 7.19141 17.418 7.75195L20.7539 10.3359C21.6289 11.0332 21.6289 11.8672 20.7539 12.5645L17.418 15.1621C16.707 15.7227 15.75 15.3262 15.75 14.4102L15.75 12.5918L11.9082 12.5918C10.7051 12.5918 10.0898 13.1934 10.0898 14.4648L10.0898 17.9512C10.0898 18.7578 9.66602 19.209 8.95508 19.2227C8.23047 19.2363 7.82031 18.7578 7.82031 17.9512Z" style="fill:var(--color-1,white)"></path>
 </g>
</svg>