<?xml version="1.0" encoding="UTF-8"?>
<!--Generator: Apple Native CoreSVG 326-->
<!DOCTYPE svg
PUBLIC "-//W3C//DTD SVG 1.1//EN"
       "http://www.w3.org/Graphics/SVG/1.1/DTD/svg11.dtd">
<svg version="1.1" xmlns="http://www.w3.org/2000/svg" xmlns:xlink="http://www.w3.org/1999/xlink" viewBox="0 0 32.5938 25.1699">
 <g>
  <rect height="25.1699" opacity="0" width="32.5938" x="0" y="0"/>
  <path d="M4.29297 25.1699L27.9453 25.1699C30.8164 25.1699 32.2383 23.7617 32.2383 20.9453L32.2383 4.23828C32.2383 1.42188 30.8164 0 27.9453 0L4.29297 0C1.43555 0 0 1.42188 0 4.23828L0 20.9453C0 23.7617 1.43555 25.1699 4.29297 25.1699ZM4.32031 22.9688C2.95312 22.9688 2.20117 22.2441 2.20117 20.8223L2.20117 4.36133C2.20117 2.93945 2.95312 2.20117 4.32031 2.20117L27.918 2.20117C29.2715 2.20117 30.0371 2.93945 30.0371 4.36133L30.0371 20.8223C30.0371 22.2441 29.2715 22.9688 27.918 22.9688Z" fill="white" fill-opacity="0.85"/>
  <path d="M12.9609 5.46875C12.3594 5.46875 11.9629 5.87891 11.9629 6.53516L11.9629 8.70898L12.168 10.8418L10.1992 8.73633L6.07031 4.60742C5.87891 4.41602 5.63281 4.29297 5.30469 4.29297C4.68945 4.29297 4.29297 4.70312 4.29297 5.31836C4.29297 5.5918 4.42969 5.85156 4.62109 6.04297L8.75 10.1719L10.8828 12.168L8.85938 11.9492L6.5625 11.9492C5.90625 11.9492 5.48242 12.3457 5.48242 12.9473C5.48242 13.5488 5.89258 13.9453 6.53516 13.9453L12.8242 13.9453C13.5215 13.9453 13.9727 13.6309 13.9727 12.8105L13.9727 6.5625C13.9727 5.91992 13.5625 5.46875 12.9609 5.46875Z" fill="white" fill-opacity="0.85"/>
 </g>
</svg>
