<svg version="1.1" xmlns="http://www.w3.org/2000/svg" xmlns:xlink="http://www.w3.org/1999/xlink" viewBox="0 0 28.2461 27.9043">
 <g>
  
  <path d="M13.9453 27.8906C21.6426 27.8906 27.8906 21.6426 27.8906 13.9453C27.8906 6.24805 21.6426 0 13.9453 0C6.24805 0 0 6.24805 0 13.9453C0 21.6426 6.24805 27.8906 13.9453 27.8906ZM13.9453 25.5664C7.51953 25.5664 2.32422 20.3711 2.32422 13.9453C2.32422 7.51953 7.51953 2.32422 13.9453 2.32422C20.3711 2.32422 25.5664 7.51953 25.5664 13.9453C25.5664 20.3711 20.3711 25.5664 13.9453 25.5664Z" style="fill:var(--color-0,hsl(0 0 0/0.85))"></path>
  <path d="M15.2168 6.91797C11.9219 6.91797 9.93945 9.2832 9.93945 12.4824L9.93945 16.5566L9.98047 18.1836L9.13281 17.1035L7.76562 15.6816C7.58789 15.5039 7.3418 15.3809 7.05469 15.3809C6.49414 15.3809 6.05664 15.8047 6.05664 16.3516C6.05664 16.6387 6.15234 16.8711 6.35742 17.0625L10.0488 20.6855C10.2812 20.918 10.5684 21.0547 10.8828 21.0547C11.2109 21.0547 11.4844 20.918 11.7168 20.6855L15.4355 17.0488C15.627 16.8574 15.7227 16.625 15.7227 16.3379C15.7227 15.8047 15.2988 15.3809 14.7246 15.3809C14.4648 15.3809 14.2051 15.4766 14.0273 15.668L12.373 17.3906L11.7852 18.1836L11.8535 16.5566L11.8535 12.4824C11.8535 10.4727 13.002 8.92773 15.1074 8.92773C17.2676 8.92773 18.5938 10.4316 18.5938 12.4961C18.5938 12.6602 18.5938 14.3418 18.5938 14.3965C18.5938 14.9707 18.9355 15.4219 19.5645 15.4219C20.207 15.4219 20.5488 14.9707 20.5488 14.3691C20.5488 14.3008 20.5488 12.6602 20.5488 12.4961C20.5488 9.29688 18.498 6.91797 15.2168 6.91797Z" style="fill:var(--color-1,hsl(0 0 0/0.85))"></path>
 </g>
</svg>