<?xml version="1.0" encoding="UTF-8"?>
<!--Generator: Apple Native CoreSVG 326-->
<!DOCTYPE svg
PUBLIC "-//W3C//DTD SVG 1.1//EN"
       "http://www.w3.org/Graphics/SVG/1.1/DTD/svg11.dtd">
<svg version="1.1" xmlns="http://www.w3.org/2000/svg" xmlns:xlink="http://www.w3.org/1999/xlink" viewBox="0 0 28.2461 27.9043">
 <g>
  <rect height="27.9043" opacity="0" width="28.2461" x="0" y="0"/>
  <path d="M13.9453 27.8906C21.6426 27.8906 27.8906 21.6426 27.8906 13.9453C27.8906 6.24805 21.6426 0 13.9453 0C6.24805 0 0 6.24805 0 13.9453C0 21.6426 6.24805 27.8906 13.9453 27.8906ZM13.9453 25.5664C7.51953 25.5664 2.32422 20.3711 2.32422 13.9453C2.32422 7.51953 7.51953 2.32422 13.9453 2.32422C20.3711 2.32422 25.5664 7.51953 25.5664 13.9453C25.5664 20.3711 20.3711 25.5664 13.9453 25.5664Z" fill="white" fill-opacity="0.85"/>
  <path d="M9.63867 17.3359C10.2402 17.3359 10.6367 16.9121 10.6367 16.2695L10.6367 13.9043L10.4316 11.7715L12.4004 13.877L17.4316 18.9082C17.623 19.0996 17.8828 19.2227 18.2109 19.2227C18.8125 19.2227 19.2227 18.8262 19.2227 18.2109C19.2227 17.9375 19.0859 17.6641 18.8945 17.4727L13.8496 12.4277L11.7168 10.4453L13.7402 10.6641L16.2285 10.6641C16.8848 10.6641 17.3086 10.2676 17.3086 9.66602C17.3086 9.06445 16.8984 8.66797 16.2559 8.66797L9.77539 8.66797C9.07812 8.66797 8.62695 8.98242 8.62695 9.78906L8.62695 16.2422C8.62695 16.8711 9.03711 17.3359 9.63867 17.3359Z" fill="white" fill-opacity="0.85"/>
 </g>
</svg>
