<?xml version="1.0" encoding="UTF-8"?>
<!--Generator: Apple Native CoreSVG 326-->
<!DOCTYPE svg
PUBLIC "-//W3C//DTD SVG 1.1//EN"
       "http://www.w3.org/Graphics/SVG/1.1/DTD/svg11.dtd">
<svg version="1.1" xmlns="http://www.w3.org/2000/svg" xmlns:xlink="http://www.w3.org/1999/xlink" viewBox="0 0 23.299 29.4902">
 <g>
  <rect height="29.4902" opacity="0" width="23.299" x="0" y="0"/>
  <path d="M11.4649 0C6.40635 0 3.05674 3.34961 3.05674 8.43555L3.05674 11.1426C3.05674 11.7578 3.54893 12.25 4.16417 12.25C4.7794 12.25 5.25792 11.7578 5.25792 11.1426L5.25792 8.43555C5.25792 4.7168 7.75987 2.20117 11.4649 2.20117C15.1974 2.20117 17.6993 4.7168 17.6993 8.43555L17.6993 21.0273C17.6993 24.7461 15.1974 27.248 11.4649 27.248C7.75987 27.248 5.25792 24.7461 5.25792 21.0273L5.25792 19.4551L3.05674 19.4551L3.05674 21.0273C3.05674 26.0996 6.40635 29.4492 11.4649 29.4492C16.5509 29.4492 19.9005 26.0996 19.9005 21.0273L19.9005 8.43555C19.9005 3.34961 16.5509 0 11.4649 0ZM0.978619 20.9863L7.25401 20.9863C8.22471 20.9863 8.47081 20.3164 7.95127 19.5645L4.88877 15.2031C4.45127 14.5742 3.79502 14.5605 3.34385 15.2031L0.281353 19.5508C-0.265522 20.3164-0.00575645 20.9863 0.978619 20.9863Z" fill="white" fill-opacity="0.85"/>
 </g>
</svg>
