<svg version="1.1" xmlns="http://www.w3.org/2000/svg" xmlns:xlink="http://www.w3.org/1999/xlink" viewBox="0 0 28.2461 33.3767">
 <g>
  
  <path d="M27.8906 16.6815C27.8906 12.58 26.1133 8.86122 23.2559 6.30458C22.6406 5.74403 21.834 5.93544 21.4648 6.4413C21.1504 6.89247 21.123 7.48036 21.7383 8.04091C24.1035 10.1874 25.5664 13.2636 25.5664 16.6815C25.5664 22.328 21.5469 27.0175 16.2148 28.0429L16.2148 26.1151C16.2148 25.1444 15.5449 24.8983 14.8066 25.4179L10.4453 28.4804C9.81641 28.9179 9.80273 29.5741 10.4453 30.0253L14.793 33.0741C15.5449 33.621 16.2148 33.3612 16.2148 32.3768L16.2148 30.4218C22.832 29.3554 27.8906 23.5995 27.8906 16.6815ZM0 16.6815C0 20.7831 1.77734 24.5018 4.63477 27.0585C5.25 27.619 6.05664 27.4276 6.42578 26.9081C6.74023 26.4706 6.76758 25.869 6.16602 25.3085C3.78711 23.1757 2.32422 20.0858 2.32422 16.6815C2.32422 11.035 6.34375 6.34559 11.6758 5.3202L11.6758 7.24794C11.6758 8.20497 12.3457 8.46474 13.084 7.9452L17.4453 4.8827C18.0742 4.4452 18.0879 3.78895 17.4453 3.33778L13.0977 0.275282C12.3457-0.257921 11.6758-0.0118272 11.6758 0.972548L11.6758 2.9413C5.05859 4.0077 0 9.76356 0 16.6815Z" style="fill:var(--color-0,hsl(0 0 0/0.85))"></path>
 </g>
</svg>