<svg version="1.1" xmlns="http://www.w3.org/2000/svg" xmlns:xlink="http://www.w3.org/1999/xlink" viewBox="0 0 25.5254 25.1699">
 <g>
  
  <path d="M4.29297 25.1699L20.877 25.1699C23.748 25.1699 25.1699 23.7617 25.1699 20.9453L25.1699 4.23828C25.1699 1.42188 23.748 0 20.877 0L4.29297 0C1.43555 0 0 1.42188 0 4.23828L0 20.9453C0 23.7617 1.43555 25.1699 4.29297 25.1699ZM4.32031 22.9688C2.95312 22.9688 2.20117 22.2441 2.20117 20.8223L2.20117 4.36133C2.20117 2.93945 2.95312 2.20117 4.32031 2.20117L20.8496 2.20117C22.2031 2.20117 22.9688 2.93945 22.9688 4.36133L22.9688 20.8223C22.9688 22.2441 22.2031 22.9688 20.8496 22.9688Z" style="fill:var(--color-0,hsl(0 0 0/0.85))"></path>
  <path d="M18.6211 12.4004C19.1543 12.4004 19.5918 11.9629 19.5918 11.4297C19.5918 10.8965 19.1543 10.4727 18.6211 10.4727L17.9512 10.4727L15.8594 10.6094L19.5508 7.06836C19.9473 6.67188 19.9609 6.01562 19.5645 5.61914C19.168 5.20898 18.5117 5.20898 18.1152 5.63281L14.5469 9.33789L14.6836 7.17773L14.6836 6.50781C14.6836 5.97461 14.2598 5.55078 13.7266 5.55078C13.1934 5.55078 12.7559 5.97461 12.7559 6.50781L12.7559 11.2656C12.7559 12.0859 13.1797 12.4004 13.8906 12.4004ZM11.457 19.5918C11.9902 19.5918 12.4277 19.168 12.4277 18.6348L12.4277 13.8633C12.4277 13.0566 12.0039 12.7422 11.293 12.7422L6.5625 12.7422C6.0293 12.7422 5.5918 13.166 5.5918 13.7129C5.5918 14.2461 6.0293 14.6699 6.5625 14.6699L7.23242 14.6699L9.32422 14.5332L5.63281 18.0742C5.23633 18.457 5.22266 19.127 5.61914 19.5234C6.01562 19.9336 6.67188 19.9336 7.06836 19.5098L10.6367 15.8047L10.5 17.9648L10.5 18.6348C10.5 19.168 10.9238 19.5918 11.457 19.5918Z" style="fill:var(--color-1,hsl(0 0 0/0.85))"></path>
 </g>
</svg>