<svg version="1.1" xmlns="http://www.w3.org/2000/svg" xmlns:xlink="http://www.w3.org/1999/xlink" viewBox="0 0 25.5254 25.1699">
 <g>
  
  <path d="M4.29297 25.1699L20.877 25.1699C23.748 25.1699 25.1699 23.7617 25.1699 20.9453L25.1699 4.23828C25.1699 1.42188 23.748 0 20.877 0L4.29297 0C1.43555 0 0 1.42188 0 4.23828L0 20.9453C0 23.7617 1.43555 25.1699 4.29297 25.1699Z" style="fill:var(--color-0,hsl(0 0 0/0.85))"></path>
  <path d="M18.8809 12.5781C18.3066 12.5781 17.8555 12.127 17.8555 11.5527L17.8555 10.8418L17.9922 8.55859L14.875 11.8398C14.4375 12.3047 13.7402 12.291 13.3027 11.8535C12.8789 11.4297 12.8926 10.7051 13.3164 10.2949L16.584 7.19141L14.3691 7.32812L13.6582 7.32812C13.084 7.32812 12.6191 6.87695 12.6191 6.30273C12.6191 5.72852 13.084 5.26367 13.6582 5.26367L18.7031 5.26367C19.4688 5.26367 19.9199 5.60547 19.9199 6.48047L19.9199 11.5527C19.9199 12.127 19.4551 12.5781 18.8809 12.5781ZM11.5391 19.9199L6.48047 19.9199C5.71484 19.9199 5.27734 19.5781 5.27734 18.7031L5.27734 13.6309C5.27734 13.0566 5.72852 12.6055 6.30273 12.6055C6.87695 12.6055 7.3418 13.0566 7.3418 13.6309L7.3418 14.3418L7.20508 16.625L10.3223 13.3438C10.7461 12.8789 11.457 12.8926 11.8809 13.3301C12.3047 13.7539 12.291 14.4785 11.8672 14.8887L8.61328 17.9922L10.8281 17.8555L11.5391 17.8555C12.1133 17.8555 12.5645 18.3066 12.5645 18.8809C12.5645 19.4551 12.1133 19.9199 11.5391 19.9199Z" style="fill:var(--color-1,white)"></path>
 </g>
</svg>