<svg version="1.1" xmlns="http://www.w3.org/2000/svg" xmlns:xlink="http://www.w3.org/1999/xlink" viewBox="0 0 21.1777 24.1035">
 <g>
  
  <path d="M10.418 0C9.69336 0 9.1875 0.505859 9.1875 1.2168L9.1875 15.0254L9.29688 17.9648L5.18164 13.4531L2.11914 10.4316C1.88672 10.2129 1.57227 10.0898 1.24414 10.0898C0.546875 10.0898 0.0546875 10.6094 0.0546875 11.293C0.0546875 11.6211 0.191406 11.9219 0.451172 12.209L9.50195 21.2598C9.76172 21.5332 10.0762 21.6836 10.418 21.6836C10.7461 21.6836 11.0742 21.5332 11.334 21.2598L20.3711 12.209C20.6445 11.9219 20.7812 11.6211 20.7812 11.293C20.7812 10.6094 20.2754 10.0898 19.5918 10.0898C19.2637 10.0898 18.9355 10.2129 18.7168 10.4316L15.6543 13.4531L11.5391 17.9512L11.6348 15.0254L11.6348 1.2168C11.6348 0.505859 11.1289 0 10.418 0ZM1.17578 21.6562C0.478516 21.6562 0 22.1621 0 22.873C0 23.584 0.478516 24.1035 1.17578 24.1035L19.6191 24.1035C20.3301 24.1035 20.8223 23.584 20.8223 22.873C20.8223 22.1621 20.3301 21.6562 19.6191 21.6562Z" style="fill:var(--color-0,hsl(0 0 0/0.85))"></path>
 </g>
</svg>