<svg version="1.1" xmlns="http://www.w3.org/2000/svg" xmlns:xlink="http://www.w3.org/1999/xlink" viewBox="0 0 25.5254 25.1699">
 <g>
  
  <path d="M4.29297 25.1699L20.877 25.1699C23.748 25.1699 25.1699 23.7617 25.1699 20.9453L25.1699 4.23828C25.1699 1.42188 23.748 0 20.877 0L4.29297 0C1.43555 0 0 1.42188 0 4.23828L0 20.9453C0 23.7617 1.43555 25.1699 4.29297 25.1699ZM4.32031 22.9688C2.95312 22.9688 2.20117 22.2441 2.20117 20.8223L2.20117 4.36133C2.20117 2.93945 2.95312 2.20117 4.32031 2.20117L20.8496 2.20117C22.2031 2.20117 22.9688 2.93945 22.9688 4.36133L22.9688 20.8223C22.9688 22.2441 22.2031 22.9688 20.8496 22.9688Z" style="fill:var(--color-0,hsl(0 0 0/0.85))"></path>
  <path d="M20.4805 13.7539L20.4258 8.95508C20.4258 8.72266 20.3164 8.46289 20.166 8.29883C19.8105 7.92969 19.291 7.92969 18.9219 8.29883C18.7578 8.46289 18.6484 8.69531 18.6621 8.92773L18.6895 10.9648L18.7305 11.7031L18.293 11.2383L12.0312 4.96289C11.6621 4.60742 11.1152 4.60742 10.7734 4.96289C10.4043 5.33203 10.418 5.86523 10.7734 6.2207L17.0352 12.4961L17.5273 12.9336L16.748 12.9062L14.7246 12.8789C14.4922 12.8789 14.2734 12.9609 14.0957 13.1387C13.7402 13.4941 13.7402 14 14.1094 14.3555C14.2461 14.5195 14.4922 14.6152 14.7383 14.6289L19.5508 14.6836C20.043 14.6973 20.4805 14.2598 20.4805 13.7539ZM4.7168 11.416L4.77148 16.2422C4.78516 16.4883 4.86719 16.7344 5.00391 16.8848C5.37305 17.2402 5.90625 17.2402 6.26172 16.8848C6.42578 16.707 6.50781 16.4883 6.50781 16.2559L6.48047 14.2188L6.42578 13.4531L6.89062 13.9453L13.166 20.207C13.5215 20.5762 14.0547 20.5625 14.4102 20.207C14.7793 19.8379 14.7793 19.3184 14.4102 18.9629L8.13477 12.6738L7.64258 12.25L8.42188 12.2773L10.4727 12.3184C10.6914 12.3184 10.9102 12.2227 11.0879 12.0586C11.4434 11.7031 11.4434 11.1973 11.0742 10.8145C10.9238 10.6641 10.6641 10.5547 10.4453 10.5547L5.63281 10.5137C5.12695 10.5137 4.7168 10.8965 4.7168 11.416Z" style="fill:var(--color-1,hsl(0 0 0/0.85))"></path>
 </g>
</svg>