<?xml version="1.0" encoding="UTF-8"?>
<!--Generator: Apple Native CoreSVG 326-->
<!DOCTYPE svg
PUBLIC "-//W3C//DTD SVG 1.1//EN"
       "http://www.w3.org/Graphics/SVG/1.1/DTD/svg11.dtd">
<svg version="1.1" xmlns="http://www.w3.org/2000/svg" xmlns:xlink="http://www.w3.org/1999/xlink" viewBox="0 0 28.2461 27.9043">
 <g>
  <rect height="27.9043" opacity="0" width="28.2461" x="0" y="0"/>
  <path d="M13.9453 27.8906C21.6426 27.8906 27.8906 21.6426 27.8906 13.9453C27.8906 6.24805 21.6426 0 13.9453 0C6.24805 0 0 6.24805 0 13.9453C0 21.6426 6.24805 27.8906 13.9453 27.8906ZM13.9453 25.5664C7.51953 25.5664 2.32422 20.3711 2.32422 13.9453C2.32422 7.51953 7.51953 2.32422 13.9453 2.32422C20.3711 2.32422 25.5664 7.51953 25.5664 13.9453C25.5664 20.3711 20.3711 25.5664 13.9453 25.5664Z" fill="white" fill-opacity="0.85"/>
  <path d="M13.9453 5.57812C13.7129 5.57812 13.4121 5.67383 13.1523 5.96094L7.60156 11.8398C7.28711 12.1816 7.13672 12.4824 7.13672 12.8516C7.13672 13.3438 7.49219 13.7129 7.99805 13.7129L11.0195 13.7129L11.0195 19.8926C11.0195 20.9863 11.6211 21.6152 12.6738 21.6152L15.2031 21.6152C16.2559 21.6152 16.8711 20.9863 16.8711 19.8926L16.8711 13.7129L19.8652 13.7129C20.3574 13.7129 20.7539 13.3438 20.7539 12.8242C20.7539 12.4688 20.6035 12.2227 20.2344 11.8398L14.752 5.96094C14.4785 5.67383 14.1914 5.57812 13.9453 5.57812Z" fill="white" fill-opacity="0.85"/>
 </g>
</svg>
