<?xml version="1.0" encoding="UTF-8"?>
<!--Generator: Apple Native CoreSVG 326-->
<!DOCTYPE svg
PUBLIC "-//W3C//DTD SVG 1.1//EN"
       "http://www.w3.org/Graphics/SVG/1.1/DTD/svg11.dtd">
<svg version="1.1" xmlns="http://www.w3.org/2000/svg" xmlns:xlink="http://www.w3.org/1999/xlink" viewBox="0 0 28.2461 27.9043">
 <g>
  <rect height="27.9043" opacity="0" width="28.2461" x="0" y="0"/>
  <path d="M13.9453 27.8906C21.6426 27.8906 27.8906 21.6426 27.8906 13.9453C27.8906 6.24805 21.6426 0 13.9453 0C6.24805 0 0 6.24805 0 13.9453C0 21.6426 6.24805 27.8906 13.9453 27.8906ZM13.9453 25.5664C7.51953 25.5664 2.32422 20.3711 2.32422 13.9453C2.32422 7.51953 7.51953 2.32422 13.9453 2.32422C20.3711 2.32422 25.5664 7.51953 25.5664 13.9453C25.5664 20.3711 20.3711 25.5664 13.9453 25.5664Z" fill="white" fill-opacity="0.85"/>
  <path d="M10.8281 19.5645C11.3203 19.5645 11.6621 19.25 11.6621 18.9492L11.6621 18.5938L7.16406 14.4648C6.72656 14.0547 6.49414 13.5488 6.49414 13.0156C6.49414 12.4824 6.71289 11.9902 7.16406 11.5801L11.6621 7.46484L11.6621 7.12305C11.6621 6.78125 11.3203 6.48047 10.8145 6.48047C10.4727 6.48047 10.2402 6.61719 9.87109 6.97266L4.22461 12.2637C3.95117 12.5234 3.86914 12.7695 3.86914 13.0156C3.86914 13.2617 3.95117 13.5215 4.22461 13.7812L9.87109 19.0859C10.2266 19.4141 10.4863 19.5645 10.8281 19.5645ZM14.4375 19.5645C14.9023 19.5645 15.2578 19.209 15.2578 18.7168L15.2578 15.9824L15.4766 15.9824C18.252 15.9824 20.043 16.6934 21.2461 19.0312C21.4785 19.4688 21.8066 19.5645 22.1211 19.5645C22.5176 19.5645 22.8457 19.2227 22.8457 18.6211C22.8457 13.3164 20.5762 10.0762 15.4766 10.0762L15.2578 10.0762L15.2578 7.35547C15.2578 6.87695 14.9023 6.48047 14.4238 6.48047C14.082 6.48047 13.8496 6.63086 13.4805 6.97266L7.84766 12.2637C7.56055 12.5371 7.46484 12.7695 7.46484 13.0156C7.46484 13.2617 7.56055 13.5078 7.84766 13.7812L13.4805 19.0859C13.8223 19.4141 14.1094 19.5645 14.4375 19.5645Z" fill="white" fill-opacity="0.85"/>
 </g>
</svg>
