<?xml version="1.0" encoding="UTF-8"?>
<!--Generator: Apple Native CoreSVG 326-->
<!DOCTYPE svg
PUBLIC "-//W3C//DTD SVG 1.1//EN"
       "http://www.w3.org/Graphics/SVG/1.1/DTD/svg11.dtd">
<svg version="1.1" xmlns="http://www.w3.org/2000/svg" xmlns:xlink="http://www.w3.org/1999/xlink" viewBox="0 0 25.5254 25.1699">
 <g>
  <rect height="25.1699" opacity="0" width="25.5254" x="0" y="0"/>
  <path d="M4.29297 25.1699L20.877 25.1699C23.748 25.1699 25.1699 23.7617 25.1699 20.9453L25.1699 4.23828C25.1699 1.42188 23.748 0 20.877 0L4.29297 0C1.43555 0 0 1.42188 0 4.23828L0 20.9453C0 23.7617 1.43555 25.1699 4.29297 25.1699Z" fill="white" fill-opacity="0.85"/>
  <path d="M20.7129 13.7812C20.7129 14.3145 20.2617 14.7656 19.7559 14.752L14.793 14.6973C14.5332 14.6836 14.2871 14.5742 14.1367 14.4102C13.7539 14.041 13.7539 13.5215 14.123 13.1523C14.3145 12.9609 14.5332 12.8789 14.7793 12.8789L16.8574 12.9062L17.6504 12.9336L17.1445 12.4824L10.7051 6.0293C10.3359 5.66016 10.3223 5.11328 10.7051 4.73047C11.0605 4.36133 11.6211 4.36133 12.0039 4.73047L18.457 11.1836L18.8945 11.6621L18.8535 10.9102L18.8262 8.81836C18.8125 8.57227 18.9219 8.33984 19.0996 8.16211C19.4824 7.7793 20.0156 7.7793 20.3848 8.16211C20.5488 8.32617 20.6582 8.59961 20.6582 8.8457ZM4.45703 11.3887C4.45703 10.8418 4.88086 10.4453 5.40039 10.4453L10.3633 10.4863C10.582 10.4863 10.8555 10.6094 11.0195 10.7598C11.4023 11.1562 11.4023 11.6758 11.0332 12.0449C10.8418 12.2227 10.623 12.3184 10.3906 12.3184L8.28516 12.2773L7.49219 12.25L7.99805 12.6875L14.4512 19.1543C14.834 19.5234 14.834 20.0566 14.4512 20.4395C14.082 20.8086 13.5352 20.8223 13.166 20.4395L6.69922 14L6.23438 13.4941L6.28906 14.2734L6.31641 16.3652C6.31641 16.6113 6.23438 16.8301 6.05664 17.0215C5.6875 17.3906 5.14062 17.3906 4.77148 17.0215C4.60742 16.8711 4.52539 16.6113 4.51172 16.3516Z" fill="white"/>
 </g>
</svg>
