<svg version="1.1" xmlns="http://www.w3.org/2000/svg" xmlns:xlink="http://www.w3.org/1999/xlink" viewBox="0 0 32.5938 25.1699">
 <g>
  
  <path d="M4.29297 25.1699L27.9453 25.1699C30.8164 25.1699 32.2383 23.7617 32.2383 20.9453L32.2383 4.23828C32.2383 1.42188 30.8164 0 27.9453 0L4.29297 0C1.43555 0 0 1.42188 0 4.23828L0 20.9453C0 23.7617 1.43555 25.1699 4.29297 25.1699Z" style="fill:var(--color-0,hsl(0 0 0/0.85))"></path>
  <path d="M24.0898 11.7441C23.4883 11.7441 23.0918 11.3066 23.0918 10.6777L23.0918 8.98242L23.2695 7.15039L21.5195 8.99609L18.6348 11.8945C18.416 12.0859 18.1836 12.209 17.8555 12.209C17.2676 12.209 16.8438 11.7988 16.8438 11.1836C16.8438 10.9102 16.9941 10.6504 17.1719 10.459L20.0703 7.54688L21.9707 5.81055L20.2207 5.98828L18.4023 5.98828C17.7598 5.98828 17.3223 5.5918 17.3223 4.99023C17.3223 4.38867 17.7598 3.97852 18.375 3.97852L23.9668 3.97852C24.6367 3.97852 25.1016 4.32031 25.1016 5.09961L25.1016 10.6504C25.1016 11.2793 24.6914 11.7441 24.0898 11.7441ZM8.14844 13.4395C8.75 13.4395 9.16016 13.8633 9.16016 14.4922L9.16016 16.2012L8.96875 18.0332L10.7188 16.1738L13.6172 13.2891C13.8223 13.0977 14.0547 12.9746 14.3828 12.9746C14.9844 12.9746 15.3945 13.3711 15.3945 14C15.3945 14.2734 15.2441 14.5332 15.0664 14.7246L12.168 17.6367L10.2812 19.373L12.0176 19.1816L13.8496 19.1816C14.4922 19.1816 14.916 19.5918 14.916 20.1934C14.916 20.7949 14.4922 21.1914 13.877 21.1914L8.27148 21.1914C7.60156 21.1914 7.15039 20.8633 7.15039 20.084L7.15039 14.5195C7.15039 13.8906 7.54688 13.4395 8.14844 13.4395Z" style="fill:var(--color-1,white)"></path>
 </g>
</svg>