<?xml version="1.0" encoding="UTF-8"?>
<!--Generator: Apple Native CoreSVG 326-->
<!DOCTYPE svg
PUBLIC "-//W3C//DTD SVG 1.1//EN"
       "http://www.w3.org/Graphics/SVG/1.1/DTD/svg11.dtd">
<svg version="1.1" xmlns="http://www.w3.org/2000/svg" xmlns:xlink="http://www.w3.org/1999/xlink" viewBox="0 0 26.8242 32.8809">
 <g>
  <rect height="32.8809" opacity="0" width="26.8242" x="0" y="0"/>
  <path d="M7.23242 6.24805L9.40625 6.24805L9.40625 3.32227C9.40625 2.54297 9.95312 2.03711 10.7734 2.03711L15.668 2.03711C16.4883 2.03711 17.0352 2.54297 17.0352 3.32227L17.0352 6.24805L19.209 6.24805L19.209 3.18555C19.209 1.20312 17.9238 0 15.8184 0L10.623 0C8.51758 0 7.23242 1.20312 7.23242 3.18555ZM1.02539 7.3418L25.457 7.3418C26.0176 7.3418 26.4688 6.86328 26.4688 6.30273C26.4688 5.74219 26.0176 5.27734 25.457 5.27734L1.02539 5.27734C0.478516 5.27734 0 5.74219 0 6.30273C0 6.87695 0.478516 7.3418 1.02539 7.3418ZM6.97266 30.4473L19.5098 30.4473C21.4648 30.4473 22.7773 29.1758 22.873 27.2207L23.8301 7.05469L2.63867 7.05469L3.60938 27.2344C3.70508 29.1895 4.99023 30.4473 6.97266 30.4473Z" fill="#ff453a"/>
  <path d="M13.2344 11.8809C13.4805 11.8809 13.6992 11.9766 13.959 12.209L17.8008 15.9414C18.0059 16.1055 18.1152 16.3379 18.1152 16.5977C18.1152 17.1172 17.7051 17.5137 17.1855 17.5137C16.9395 17.5137 16.666 17.3906 16.4883 17.1992L14.6973 15.2852L14.1777 14.752L14.2461 16.2695L14.2461 22.8594C14.2461 23.3789 13.7676 23.8438 13.2344 23.8438C12.7012 23.8438 12.209 23.3789 12.209 22.8594L12.209 16.2695L12.2773 14.7383L11.7441 15.2852L9.9668 17.1992C9.78906 17.3906 9.50195 17.5137 9.25586 17.5137C8.73633 17.5137 8.33984 17.1172 8.33984 16.5977C8.33984 16.3379 8.44922 16.1055 8.64062 15.9414L12.4961 12.209C12.7559 11.9766 12.9746 11.8809 13.2344 11.8809Z" fill="white"/>
 </g>
</svg>
