<?xml version="1.0" encoding="UTF-8"?>
<!--Generator: Apple Native CoreSVG 326-->
<!DOCTYPE svg
PUBLIC "-//W3C//DTD SVG 1.1//EN"
       "http://www.w3.org/Graphics/SVG/1.1/DTD/svg11.dtd">
<svg version="1.1" xmlns="http://www.w3.org/2000/svg" xmlns:xlink="http://www.w3.org/1999/xlink" viewBox="0 0 20.5488 20.2207">
 <g>
  <rect height="20.2207" opacity="0" width="20.5488" x="0" y="0"/>
  <path d="M0 15.1211C0 15.8594 0.574219 16.4199 1.24414 16.4199C1.91406 16.4199 2.47461 15.8184 2.47461 15.1758L2.47461 10.1172L2.22852 3.73242L4.48438 6.28906L18.0469 19.8516C18.3066 20.1113 18.6074 20.2207 18.9082 20.2207C19.5918 20.2207 20.1934 19.6055 20.1934 18.9492C20.1934 18.6484 20.0566 18.334 19.8105 18.0879L6.26172 4.51172L3.71875 2.2832L10.3906 2.50195L15.1484 2.50195C15.791 2.50195 16.3789 1.94141 16.3789 1.28516C16.3789 0.628906 15.8594 0.0410156 15.0938 0.0410156L1.33984 0.0410156C0.519531 0.0410156 0.0136719 0.587891 0.0136719 1.36719Z" fill="white" fill-opacity="0.85"/>
 </g>
</svg>
