<svg version="1.1" xmlns="http://www.w3.org/2000/svg" xmlns:xlink="http://www.w3.org/1999/xlink" viewBox="0 0 34.7266 25.9902">
 <g>
  
  <path d="M30.0508 10.5C32.7168 11.6211 34.3711 14.1094 34.3711 16.9805C34.3711 20.7402 31.1445 23.7617 27.0156 23.7617L8.18945 23.7617C3.51367 23.7617 0 20.3848 0 16.3652C0 13.0293 1.92773 10.2676 5.01758 9.77539C5.08594 5.94727 8.75 3.39062 12.1133 4.375C13.7539 1.98242 16.3926 0 20.0977 0C25.6895 0 30.0781 4.40234 30.0508 10.5ZM17.3633 6.16602L14.752 8.39453C14.3281 8.75 14.3145 9.32422 14.752 9.70703L17.3633 11.9629C17.8281 12.373 18.498 12.127 18.498 11.5254L18.498 9.85742C20.166 10.3086 21.3965 11.8125 21.3965 13.6309C21.3965 15.8184 19.6602 17.582 17.4727 17.582C15.2988 17.582 13.5625 15.8184 13.5625 13.6309C13.5625 13.166 13.166 12.7695 12.6738 12.7695C12.1953 12.7695 11.7988 13.166 11.7988 13.6309C11.7988 16.7891 14.3281 19.332 17.4727 19.332C20.6309 19.332 23.1602 16.7891 23.1602 13.5898C23.1602 10.7598 21.0273 8.47656 18.498 8.08008L18.498 6.63086C18.498 6.01562 17.8281 5.7832 17.3633 6.16602Z" style="fill:var(--color-0,hsl(0 0 0/0.85))"></path>
 </g>
</svg>