<?xml version="1.0" encoding="UTF-8"?>
<!--Generator: Apple Native CoreSVG 326-->
<!DOCTYPE svg
PUBLIC "-//W3C//DTD SVG 1.1//EN"
       "http://www.w3.org/Graphics/SVG/1.1/DTD/svg11.dtd">
<svg version="1.1" xmlns="http://www.w3.org/2000/svg" xmlns:xlink="http://www.w3.org/1999/xlink" viewBox="0 0 28.2461 27.9043">
 <g>
  <rect height="27.9043" opacity="0" width="28.2461" x="0" y="0"/>
  <path d="M13.9453 27.8906C21.6426 27.8906 27.8906 21.6426 27.8906 13.9453C27.8906 6.24805 21.6426 0 13.9453 0C6.24805 0 0 6.24805 0 13.9453C0 21.6426 6.24805 27.8906 13.9453 27.8906ZM13.9453 25.5664C7.51953 25.5664 2.32422 20.3711 2.32422 13.9453C2.32422 7.51953 7.51953 2.32422 13.9453 2.32422C20.3711 2.32422 25.5664 7.51953 25.5664 13.9453C25.5664 20.3711 20.3711 25.5664 13.9453 25.5664Z" fill="white" fill-opacity="0.85"/>
  <path d="M13.918 18.334C14.1641 18.334 14.4102 18.2109 14.6016 18.0195L19.2363 13.3164C19.4551 13.1113 19.5234 12.8789 19.5234 12.6191C19.5234 12.127 19.168 11.7305 18.6621 11.7305C18.416 11.7305 18.1699 11.8125 17.9785 11.9902L17.1309 12.8652L14.6836 15.627L14.834 13.1387L14.834 6.86328C14.834 6.33008 14.4375 5.94727 13.918 5.94727C13.3711 5.94727 13.002 6.33008 13.002 6.86328L13.002 13.1387L13.1523 15.6406L10.6641 12.8516L9.88477 11.9902C9.70703 11.8125 9.50195 11.7305 9.21484 11.7305C8.69531 11.7305 8.33984 12.0996 8.33984 12.6191C8.33984 12.8379 8.44922 13.125 8.61328 13.3027L13.2344 18.0195C13.4258 18.2246 13.6719 18.334 13.918 18.334ZM8.80469 21.2051L19.0723 21.2051C19.6055 21.2051 19.9746 20.8223 19.9746 20.2891C19.9746 19.7695 19.6055 19.3867 19.0723 19.3867L8.80469 19.3867C8.27148 19.3867 7.88867 19.7695 7.88867 20.2891C7.88867 20.8223 8.27148 21.2051 8.80469 21.2051Z" fill="white" fill-opacity="0.85"/>
 </g>
</svg>
