<svg version="1.1" xmlns="http://www.w3.org/2000/svg" xmlns:xlink="http://www.w3.org/1999/xlink" viewBox="0 0 22.1074 22.3262">
 <g>
  
  <path d="M21.752 20.6719C21.752 20.125 21.5059 19.6875 21.2188 19.1133L12.7012 1.55859C12.127 0.382812 11.5938 0.0136719 10.8691 0.0136719C10.1445 0.0136719 9.625 0.382812 9.05078 1.55859L0.519531 19.1133C0.246094 19.7012 0 20.1387 0 20.6855C0 21.6973 0.765625 22.3262 1.95508 22.3262L19.7832 22.3125C20.9727 22.3125 21.752 21.6836 21.752 20.6719ZM19.1406 19.9883C19.1406 20.0703 19.0859 20.125 18.9766 20.125L2.76172 20.125C2.65234 20.125 2.61133 20.0703 2.61133 19.9883C2.61133 19.9336 2.63867 19.8789 2.66602 19.8242L10.7188 3.07617C10.7598 3.00781 10.8008 2.95312 10.8691 2.95312C10.9512 2.95312 10.9922 3.00781 11.0332 3.07617L19.0859 19.8242C19.1133 19.8789 19.1406 19.9336 19.1406 19.9883Z" style="fill:var(--color-0,hsl(0 0 0/0.85))"></path>
 </g>
</svg>