<svg version="1.1" xmlns="http://www.w3.org/2000/svg" xmlns:xlink="http://www.w3.org/1999/xlink" viewBox="0 0 28.2461 27.9043">
 <g>
  
  <path d="M13.9453 27.8906C21.6426 27.8906 27.8906 21.6289 27.8906 13.9453C27.8906 6.24805 21.6426 0 13.9453 0C6.26172 0 0 6.24805 0 13.9453C0 21.6289 6.26172 27.8906 13.9453 27.8906Z" style="fill:var(--color-0,hsl(0 0 0/0.85))"></path>
  <path d="M13.959 6.83594C14.2461 6.83594 14.4785 6.91797 14.7793 7.20508L19.4141 11.6895C19.6328 11.8945 19.7559 12.127 19.7559 12.4414C19.7559 13.002 19.3047 13.4258 18.7305 13.4258C18.4434 13.4258 18.1562 13.3164 17.9648 13.084L15.8047 10.8008L14.998 9.93945L15.0801 12.0449L15.0801 19.9609C15.0801 20.5625 14.5742 21.0547 13.959 21.0547C13.3438 21.0547 12.8242 20.5625 12.8242 19.9609L12.8242 12.0449L12.9199 9.93945L12.0996 10.8008L9.95312 13.084C9.74805 13.3164 9.44727 13.4258 9.16016 13.4258C8.58594 13.4258 8.14844 13.002 8.14844 12.4414C8.14844 12.127 8.27148 11.8945 8.49023 11.6895L13.1387 7.20508C13.4258 6.91797 13.6582 6.83594 13.959 6.83594Z" style="fill:var(--color-1,white)"></path>
 </g>
</svg>