<?xml version="1.0" encoding="UTF-8"?>
<!--Generator: Apple Native CoreSVG 326-->
<!DOCTYPE svg
PUBLIC "-//W3C//DTD SVG 1.1//EN"
       "http://www.w3.org/Graphics/SVG/1.1/DTD/svg11.dtd">
<svg version="1.1" xmlns="http://www.w3.org/2000/svg" xmlns:xlink="http://www.w3.org/1999/xlink" viewBox="0 0 32.5938 31.174">
 <g>
  <rect height="31.174" opacity="0" width="32.5938" x="0" y="0"/>
  <path d="M0 23.9474C0 26.7774 1.43555 28.1856 4.29297 28.1856L27.9453 28.1856C30.8164 28.1856 32.2383 26.7638 32.2383 23.9474L32.2383 7.25401C32.2383 4.4376 30.8164 3.01573 27.9453 3.01573L18.375 3.01573C17.7734 3.01573 17.2676 3.50792 17.2676 4.10948C17.2676 4.71104 17.7734 5.2169 18.375 5.2169L27.918 5.2169C29.2715 5.2169 30.0371 5.94151 30.0371 7.36338L30.0371 23.838C30.0371 25.2599 29.2715 25.9845 27.918 25.9845L4.32031 25.9845C2.95312 25.9845 2.20117 25.2599 2.20117 23.838L2.20117 7.36338C2.20117 5.94151 2.95312 5.2169 4.32031 5.2169L7.79297 5.2169L7.79297 7.24034C7.79297 8.21104 8.46289 8.47081 9.21484 7.9376L13.5762 4.8751C14.1914 4.4376 14.2051 3.78135 13.5762 3.34385L9.22852 0.281353C8.46289-0.265522 7.79297-0.00575645 7.79297 0.978619L7.79297 3.01573L4.29297 3.01573C1.43555 3.01573 0 4.42393 0 7.25401Z" fill="white" fill-opacity="0.85"/>
 </g>
</svg>
