<?xml version="1.0" encoding="UTF-8"?>
<!--Generator: Apple Native CoreSVG 326-->
<!DOCTYPE svg
PUBLIC "-//W3C//DTD SVG 1.1//EN"
       "http://www.w3.org/Graphics/SVG/1.1/DTD/svg11.dtd">
<svg version="1.1" xmlns="http://www.w3.org/2000/svg" xmlns:xlink="http://www.w3.org/1999/xlink" viewBox="0 0 28.2461 27.9043">
 <g>
  <rect height="27.9043" opacity="0" width="28.2461" x="0" y="0"/>
  <path d="M13.9453 27.8906C21.6426 27.8906 27.8906 21.6289 27.8906 13.9453C27.8906 6.24805 21.6426 0 13.9453 0C6.26172 0 0 6.24805 0 13.9453C0 21.6289 6.26172 27.8906 13.9453 27.8906Z" fill="white" fill-opacity="0.85"/>
  <path d="M9.51562 10.4453C10.1445 10.4453 10.5547 10.8691 10.5547 11.5527L10.5547 13.9727L10.3496 16.1738L12.3867 14L17.541 8.83203C17.7461 8.62695 18.0195 8.50391 18.3613 8.50391C18.9766 8.50391 19.4004 8.91406 19.4004 9.55664C19.4004 9.83008 19.2637 10.1172 19.0586 10.3223L13.877 15.4766L11.6758 17.541L13.7676 17.3223L16.3105 17.3223C16.9941 17.3223 17.4316 17.7324 17.4316 18.3477C17.4316 18.9766 17.0078 19.3867 16.3379 19.3867L9.66602 19.3867C8.94141 19.3867 8.47656 19.0586 8.47656 18.2246L8.47656 11.5801C8.47656 10.9102 8.90039 10.4453 9.51562 10.4453Z" fill="white"/>
 </g>
</svg>
