<svg version="1.1" xmlns="http://www.w3.org/2000/svg" xmlns:xlink="http://www.w3.org/1999/xlink" viewBox="0 0 28.2461 27.9043">
 <g>
  
  <path d="M13.9453 27.8906C21.6426 27.8906 27.8906 21.6289 27.8906 13.9453C27.8906 6.24805 21.6426 0 13.9453 0C6.26172 0 0 6.24805 0 13.9453C0 21.6289 6.26172 27.8906 13.9453 27.8906Z" style="fill:var(--color-0,hsl(0 0 0/0.85))"></path>
  <path d="M6.93164 15.4766C6.93164 12.373 9.13281 10.3223 12.4277 10.3223L16.4336 10.3223L17.8418 10.3906L16.9121 9.65234L15.5312 8.3125C15.3262 8.13477 15.2031 7.86133 15.2031 7.58789C15.2031 6.98633 15.6406 6.53516 16.2285 6.53516C16.543 6.53516 16.7754 6.63086 16.9805 6.83594L20.5488 10.459C20.7949 10.7188 20.918 11.0195 20.918 11.334C20.918 11.6348 20.8086 11.9355 20.5488 12.1953L16.9668 15.8594C16.7754 16.0508 16.5293 16.1602 16.2148 16.1602C15.6543 16.1602 15.2031 15.6953 15.2031 15.1074C15.2031 14.8066 15.3262 14.5605 15.5312 14.3555L17.1855 12.7559L17.8281 12.3047L16.4336 12.3594L12.4277 12.3594C10.3496 12.3594 8.96875 13.6035 8.96875 15.4766C8.96875 17.5 10.377 18.8398 12.4414 18.8398L14.3145 18.8398C14.957 18.8398 15.3809 19.25 15.3809 19.8516C15.3809 20.4668 14.9434 20.877 14.2871 20.877L12.4414 20.877C9.14648 20.877 6.93164 18.7441 6.93164 15.4766Z" style="fill:var(--color-1,white)"></path>
 </g>
</svg>