<?xml version="1.0" encoding="UTF-8"?>
<!--Generator: Apple Native CoreSVG 326-->
<!DOCTYPE svg
PUBLIC "-//W3C//DTD SVG 1.1//EN"
       "http://www.w3.org/Graphics/SVG/1.1/DTD/svg11.dtd">
<svg version="1.1" xmlns="http://www.w3.org/2000/svg" xmlns:xlink="http://www.w3.org/1999/xlink" viewBox="0 0 25.5254 25.1699">
 <g>
  <rect height="25.1699" opacity="0" width="25.5254" x="0" y="0"/>
  <path d="M4.29297 25.1699L20.877 25.1699C23.748 25.1699 25.1699 23.7617 25.1699 20.9453L25.1699 4.23828C25.1699 1.42188 23.748 0 20.877 0L4.29297 0C1.43555 0 0 1.42188 0 4.23828L0 20.9453C0 23.7617 1.43555 25.1699 4.29297 25.1699Z" fill="white" fill-opacity="0.85"/>
  <path d="M21.3555 12.5781C21.3555 12.8789 21.2324 13.1113 20.959 13.3984L16.8848 17.4863C16.707 17.6777 16.4473 17.7734 16.1465 17.7734C15.5723 17.7734 15.1348 17.3359 15.1348 16.748C15.1348 16.4336 15.2578 16.1875 15.4355 15.9961L16.502 14.9434L18.2109 13.5215L15.2305 13.6445L9.95312 13.6445L6.97266 13.5215L8.66797 14.9434L9.73438 15.9961C9.91211 16.1875 10.0352 16.4336 10.0352 16.748C10.0352 17.3359 9.59766 17.7734 9.02344 17.7734C8.72266 17.7734 8.46289 17.6777 8.28516 17.4863L4.21094 13.3984C3.9375 13.1113 3.81445 12.8789 3.81445 12.5781C3.81445 12.2637 3.9375 12.0312 4.21094 11.7441L8.28516 7.66992C8.46289 7.47852 8.72266 7.36914 9.02344 7.36914C9.59766 7.36914 10.0352 7.83398 10.0352 8.4082C10.0352 8.72266 9.92578 8.96875 9.73438 9.17383L8.66797 10.2129L6.95898 11.6348L9.95312 11.5254L15.2305 11.5254L18.2246 11.6348L16.502 10.2129L15.4355 9.17383C15.2441 8.96875 15.1348 8.72266 15.1348 8.4082C15.1348 7.83398 15.5723 7.36914 16.1465 7.36914C16.4473 7.36914 16.707 7.47852 16.8848 7.66992L20.959 11.7441C21.2324 12.0312 21.3555 12.2637 21.3555 12.5781Z" fill="white"/>
 </g>
</svg>
