<?xml version="1.0" encoding="UTF-8"?>
<!--Generator: Apple Native CoreSVG 326-->
<!DOCTYPE svg
PUBLIC "-//W3C//DTD SVG 1.1//EN"
       "http://www.w3.org/Graphics/SVG/1.1/DTD/svg11.dtd">
<svg version="1.1" xmlns="http://www.w3.org/2000/svg" xmlns:xlink="http://www.w3.org/1999/xlink" viewBox="0 0 34.2076 25.1973">
 <g>
  <rect height="25.1973" opacity="0" width="34.2076" x="0" y="0"/>
  <path d="M0.328427 9.50195C0.806942 9.98047 1.44952 9.92578 1.91436 9.47461L3.22686 8.17578L5.2503 6.0293L5.2503 20.959C5.2503 23.7891 6.69952 25.1973 9.54327 25.1973L20.6722 25.1973C21.4515 25.1973 21.9026 24.8008 21.889 24.1035C21.8753 23.3926 21.4515 22.9961 20.6722 22.9961L9.58429 22.9961C8.2171 22.9961 7.45147 22.2715 7.45147 20.8496L7.45147 6.00195L9.48858 8.17578L10.8011 9.47461C11.2659 9.92578 11.9222 9.98047 12.387 9.50195C12.8519 9.05078 12.8245 8.38086 12.3597 7.91602L7.75225 3.32227C6.86358 2.44727 5.86554 2.44727 4.97686 3.32227L0.369442 7.91602C-0.109073 8.38086-0.122745 9.05078 0.328427 9.50195ZM11.9632 1.12109C11.9769 1.81836 12.4007 2.22852 13.18 2.22852L24.2816 2.22852C25.6487 2.22852 26.4007 2.95312 26.4007 4.375L26.4007 19.2227L24.3636 17.0352L23.0511 15.75C22.5862 15.2988 21.9437 15.2441 21.4651 15.709C21.0003 16.1738 21.0276 16.8438 21.4925 17.3086L26.0999 21.8887C27.0023 22.7773 27.9866 22.7773 28.889 21.8887L33.4827 17.3086C33.9612 16.8438 33.9749 16.1738 33.5237 15.709C33.0589 15.2441 32.4026 15.2852 31.9378 15.75L30.6253 17.0352L28.6019 19.1953L28.6019 4.26562C28.6019 1.43555 27.1663 0.0273438 24.3089 0.0273438L13.18 0.0273438C12.4007 0.0273438 11.9495 0.423828 11.9632 1.12109Z" fill="white" fill-opacity="0.85"/>
 </g>
</svg>
