<svg version="1.1" xmlns="http://www.w3.org/2000/svg" xmlns:xlink="http://www.w3.org/1999/xlink" viewBox="0 0 38.6367 28.8613">
 <g>
  
  <path d="M15.5162 3.33231L6.69922 11.5801C5.82422 12.4004 5.42773 13.4258 5.42773 14.4102C5.42773 15.3809 5.82422 16.4062 6.71289 17.2266L15.5216 25.544C15.4392 26.3669 14.7983 26.9609 13.9316 26.9609C13.2617 26.9609 12.7148 26.6875 12.0586 26.0723L1.25781 15.8867C0.765625 15.4219 0.574219 14.8887 0.574219 14.4238C0.574219 13.9316 0.765625 13.4121 1.25781 12.9473L12.0586 2.85742C12.7832 2.17383 13.2344 1.88672 13.9043 1.88672C14.7824 1.88672 15.4188 2.51977 15.5162 3.33231Z" style="fill:var(--color-0,hsl(0 0 0/0.85))"></path>
  <path d="M20.6582 26.9473C21.5742 26.9473 22.2578 26.2637 22.2578 25.3477L22.2578 20.125L22.6543 20.125C27.9453 20.125 31.2949 21.4648 33.6738 25.9355C34.1523 26.8105 34.7812 26.9473 35.3555 26.9473C36.0938 26.9473 36.7637 26.291 36.7637 25.1152C36.7637 15.0117 32.4844 8.70898 22.6543 8.70898L22.2578 8.70898L22.2578 3.54102C22.2578 2.625 21.5742 1.87305 20.6309 1.87305C19.9473 1.87305 19.4961 2.16016 18.7715 2.84375L7.98438 12.9336C7.49219 13.3984 7.28711 13.918 7.28711 14.4102C7.28711 14.875 7.49219 15.4082 7.98438 15.873L18.7715 26.0586C19.4277 26.6738 19.9746 26.9473 20.6582 26.9473Z" style="fill:var(--color-1,hsl(0 0 0/0.85))"></path>
 </g>
</svg>