<?xml version="1.0" encoding="UTF-8"?>
<!--Generator: Apple Native CoreSVG 326-->
<!DOCTYPE svg
PUBLIC "-//W3C//DTD SVG 1.1//EN"
       "http://www.w3.org/Graphics/SVG/1.1/DTD/svg11.dtd">
<svg version="1.1" xmlns="http://www.w3.org/2000/svg" xmlns:xlink="http://www.w3.org/1999/xlink" viewBox="0 0 25.5254 25.1699">
 <g>
  <rect height="25.1699" opacity="0" width="25.5254" x="0" y="0"/>
  <path d="M4.29297 25.1699L20.877 25.1699C23.748 25.1699 25.1699 23.7617 25.1699 20.9453L25.1699 4.23828C25.1699 1.42188 23.748 0 20.877 0L4.29297 0C1.43555 0 0 1.42188 0 4.23828L0 20.9453C0 23.7617 1.43555 25.1699 4.29297 25.1699ZM4.32031 22.9688C2.95312 22.9688 2.20117 22.2441 2.20117 20.8223L2.20117 4.36133C2.20117 2.93945 2.95312 2.20117 4.32031 2.20117L20.8496 2.20117C22.2031 2.20117 22.9688 2.93945 22.9688 4.36133L22.9688 20.8223C22.9688 22.2441 22.2031 22.9688 20.8496 22.9688Z" fill="white" fill-opacity="0.85"/>
  <path d="M16.8711 9.1875C16.2695 9.1875 15.873 9.59766 15.873 10.2539L15.873 12.6191L16.0781 14.752L14.1094 12.6465L9.07812 7.61523C8.88672 7.42383 8.62695 7.30078 8.29883 7.30078C7.69727 7.30078 7.30078 7.69727 7.30078 8.3125C7.30078 8.58594 7.42383 8.85938 7.61523 9.05078L12.6602 14.082L14.793 16.0781L12.7695 15.8594L10.2812 15.8594C9.625 15.8594 9.20117 16.2559 9.20117 16.8574C9.20117 17.459 9.61133 17.8555 10.2539 17.8555L16.7344 17.8555C17.4316 17.8555 17.8828 17.541 17.8828 16.7344L17.8828 10.2812C17.8828 9.63867 17.4727 9.1875 16.8711 9.1875Z" fill="white" fill-opacity="0.85"/>
 </g>
</svg>
