<svg version="1.1" xmlns="http://www.w3.org/2000/svg" xmlns:xlink="http://www.w3.org/1999/xlink" viewBox="0 0 25.5254 25.1699">
 <g>
  
  <path d="M4.29297 25.1699L20.877 25.1699C23.748 25.1699 25.1699 23.7617 25.1699 20.9453L25.1699 4.23828C25.1699 1.42188 23.748 0 20.877 0L4.29297 0C1.43555 0 0 1.42188 0 4.23828L0 20.9453C0 23.7617 1.43555 25.1699 4.29297 25.1699Z" style="fill:var(--color-0,hsl(0 0 0/0.85))"></path>
  <path d="M12.6191 3.80078C12.9199 3.80078 13.1523 3.9375 13.4395 4.21094L17.5273 8.27148C17.7188 8.44922 17.8145 8.70898 17.8145 9.00977C17.8145 9.58398 17.377 10.0215 16.7891 10.0215C16.4746 10.0215 16.2285 9.89844 16.0371 9.7207L14.9844 8.6543L13.5625 6.95898L13.6855 9.93945L13.6855 15.2168L13.5625 18.1973L14.9844 16.502L16.0371 15.4355C16.2285 15.2441 16.4746 15.1348 16.7891 15.1348C17.377 15.1348 17.8145 15.5723 17.8145 16.1465C17.8145 16.4336 17.7188 16.707 17.5273 16.8848L13.4395 20.9453C13.1523 21.2188 12.9199 21.3555 12.6191 21.3555C12.3047 21.3555 12.0586 21.2188 11.7852 20.9453L7.71094 16.8848C7.51953 16.707 7.41016 16.4336 7.41016 16.1465C7.41016 15.5723 7.86133 15.1348 8.44922 15.1348C8.76367 15.1348 9.00977 15.2305 9.21484 15.4355L10.2539 16.502L11.6758 18.2109L11.5527 15.2168L11.5527 9.93945L11.6758 6.94531L10.2539 8.6543L9.21484 9.7207C9.00977 9.91211 8.76367 10.0215 8.44922 10.0215C7.86133 10.0215 7.41016 9.58398 7.41016 9.00977C7.41016 8.70898 7.51953 8.44922 7.71094 8.27148L11.7852 4.21094C12.0586 3.9375 12.3047 3.80078 12.6191 3.80078Z" style="fill:var(--color-1,white)"></path>
 </g>
</svg>