<svg version="1.1" xmlns="http://www.w3.org/2000/svg" xmlns:xlink="http://www.w3.org/1999/xlink" viewBox="0 0 25.5254 25.1699">
 <g>
  
  <path d="M4.29297 25.1699L20.877 25.1699C23.748 25.1699 25.1699 23.7617 25.1699 20.9453L25.1699 4.23828C25.1699 1.42188 23.748 0 20.877 0L4.29297 0C1.43555 0 0 1.42188 0 4.23828L0 20.9453C0 23.7617 1.43555 25.1699 4.29297 25.1699Z" style="fill:var(--color-0,hsl(0 0 0/0.85))"></path>
  <path d="M18.8125 12.4004L13.9316 12.4004C13.1934 12.4004 12.7695 12.0723 12.7695 11.2246L12.7695 6.31641C12.7695 5.75586 13.207 5.31836 13.7676 5.31836C14.3145 5.31836 14.7656 5.75586 14.7656 6.31641L14.7656 7L14.6152 9.22852L18.293 5.41406C18.7031 4.97656 19.373 4.97656 19.7832 5.40039C20.207 5.81055 20.1797 6.48047 19.7695 6.9043L15.9688 10.541L18.1289 10.4043L18.8125 10.4043C19.3867 10.4043 19.8242 10.8418 19.8242 11.3887C19.8242 11.9492 19.3867 12.4004 18.8125 12.4004ZM11.416 19.8242C10.8691 19.8242 10.4316 19.3867 10.4316 18.8262L10.4316 18.1426L10.5684 15.9141L6.89062 19.7285C6.48047 20.166 5.81055 20.166 5.40039 19.7422C4.97656 19.332 5.00391 18.6484 5.41406 18.2383L9.21484 14.6016L7.05469 14.7383L6.37109 14.7383C5.81055 14.7383 5.35938 14.3008 5.35938 13.7539C5.35938 13.1797 5.81055 12.7422 6.37109 12.7422L11.252 12.7422C11.9902 12.7422 12.4277 13.0703 12.4277 13.9043L12.4277 18.8262C12.4277 19.3867 11.9766 19.8242 11.416 19.8242Z" style="fill:var(--color-1,white)"></path>
 </g>
</svg>