<?xml version="1.0" encoding="UTF-8"?>
<!--Generator: Apple Native CoreSVG 326-->
<!DOCTYPE svg
PUBLIC "-//W3C//DTD SVG 1.1//EN"
       "http://www.w3.org/Graphics/SVG/1.1/DTD/svg11.dtd">
<svg version="1.1" xmlns="http://www.w3.org/2000/svg" xmlns:xlink="http://www.w3.org/1999/xlink" viewBox="0 0 28.2461 27.9043">
 <g>
  <rect height="27.9043" opacity="0" width="28.2461" x="0" y="0"/>
  <path d="M13.9453 27.9043C21.6426 27.9043 27.8906 21.6562 27.8906 13.959C27.8906 6.27539 21.6426 0.0136719 13.9453 0.0136719C6.26172 0.0136719 0 6.27539 0 13.959C0 21.6562 6.26172 27.9043 13.9453 27.9043Z" fill="white" fill-opacity="0.85"/>
  <path d="M22.5039 13.959C22.5039 14.2051 22.4082 14.5332 22.1211 14.8066L15.8594 20.6992C15.4902 21.041 15.1621 21.2051 14.7656 21.2051C14.2461 21.2051 13.8496 20.8359 13.8496 20.2891L13.8496 17.0898L7.28711 17.0898C6.13867 17.0898 5.46875 16.4336 5.46875 15.3125L5.46875 12.6191C5.46875 11.498 6.13867 10.8418 7.28711 10.8418L13.8496 10.8418L13.8496 7.68359C13.8496 7.15039 14.2461 6.71289 14.8066 6.71289C15.1758 6.71289 15.4492 6.87695 15.8594 7.27344L22.1211 13.0977C22.4082 13.3984 22.5039 13.6992 22.5039 13.959Z" fill="white"/>
 </g>
</svg>
