<svg version="1.1" xmlns="http://www.w3.org/2000/svg" xmlns:xlink="http://www.w3.org/1999/xlink" viewBox="0 0 32.5938 25.1699">
 <g>
  
  <path d="M32.2383 4.23828L32.2383 20.9453C32.2383 23.7617 30.8164 25.1699 27.9453 25.1699L4.29297 25.1699C1.43555 25.1699 0 23.7617 0 20.9453L0 4.23828C0 1.42188 1.43555 0 4.29297 0L27.9453 0C30.8164 0 32.2383 1.42188 32.2383 4.23828ZM8.66797 12.9746C8.05273 12.9746 7.62891 13.3848 7.62891 13.9863C7.62891 14.5742 8.05273 14.9844 8.69531 14.9844L10.5137 14.9844L12.2637 14.8066L10.3633 16.543L7.47852 19.4414C7.30078 19.6328 7.15039 19.9062 7.15039 20.1797C7.15039 20.7949 7.56055 21.1914 8.14844 21.1914C8.47656 21.1914 8.72266 21.0684 8.92773 20.877L11.8125 17.9922L13.5625 16.1191L13.3984 17.9785L13.3984 19.6738C13.3984 20.3027 13.7949 20.7266 14.3828 20.7266C14.9844 20.7266 15.3945 20.2754 15.3945 19.6465L15.3945 14.0957C15.3945 13.3027 14.957 12.9746 14.2734 12.9746ZM23.3105 4.29297L20.4258 7.19141L18.6758 9.05078L18.8398 7.20508L18.8398 5.50977C18.8398 4.88086 18.4434 4.44336 17.8555 4.44336C17.2539 4.44336 16.8438 4.9082 16.8438 5.53711L16.8438 11.0879C16.8438 11.8672 17.2949 12.209 17.9785 12.209L23.5703 12.209C24.1855 12.209 24.623 11.7988 24.623 11.1973C24.623 10.6094 24.1855 10.1992 23.543 10.1992L21.7246 10.1992L19.9746 10.377L21.875 8.64062L24.7734 5.72852C24.9512 5.53711 25.1016 5.27734 25.1016 5.00391C25.1016 4.38867 24.6777 3.97852 24.0898 3.97852C23.7617 3.97852 23.5156 4.10156 23.3105 4.29297Z" style="fill:var(--color-0,hsl(0 0 0/0.85))"></path>
 </g>
</svg>