<svg version="1.1" xmlns="http://www.w3.org/2000/svg" xmlns:xlink="http://www.w3.org/1999/xlink" viewBox="0 0 28.2461 27.9043">
 <g>
  
  <path d="M13.9453 27.8906C21.6426 27.8906 27.8906 21.6289 27.8906 13.9453C27.8906 6.24805 21.6426 0 13.9453 0C6.26172 0 0 6.24805 0 13.9453C0 21.6289 6.26172 27.8906 13.9453 27.8906Z" style="fill:var(--color-0,hsl(0 0 0/0.85))"></path>
  <path d="M20.166 13.7676L15.2852 13.7676C14.5469 13.7676 14.1094 13.4395 14.1094 12.5918L14.1094 7.68359C14.1094 7.12305 14.5605 6.68555 15.1211 6.68555C15.668 6.68555 16.1055 7.12305 16.1055 7.68359L16.1055 8.36719L15.9688 10.5957L19.6465 6.78125C20.0566 6.34375 20.7266 6.34375 21.1367 6.76758C21.5605 7.17773 21.5332 7.84766 21.123 8.27148L17.3223 11.9082L19.4824 11.7715L20.166 11.7715C20.7266 11.7715 21.1777 12.209 21.1777 12.7559C21.1777 13.3164 20.7266 13.7676 20.166 13.7676ZM12.7695 21.1914C12.2227 21.1914 11.7852 20.7539 11.7852 20.1934L11.7852 19.5098L11.9219 17.2812L8.24414 21.0957C7.83398 21.5332 7.16406 21.5332 6.75391 21.1094C6.33008 20.6992 6.35742 20.0156 6.76758 19.6055L10.5684 15.9688L8.4082 16.1055L7.72461 16.1055C7.16406 16.1055 6.71289 15.668 6.71289 15.1211C6.71289 14.5469 7.16406 14.1094 7.72461 14.1094L12.6055 14.1094C13.3438 14.1094 13.7812 14.4375 13.7812 15.2715L13.7812 20.1934C13.7812 20.7539 13.3301 21.1914 12.7695 21.1914Z" style="fill:var(--color-1,white)"></path>
 </g>
</svg>