<svg version="1.1" xmlns="http://www.w3.org/2000/svg" xmlns:xlink="http://www.w3.org/1999/xlink" viewBox="0 0 24.5 32.7168">
 <g>
  
  <path d="M0 17.3633C0 24.0352 5.40039 29.4355 12.0723 29.4355C18.7441 29.4355 24.1445 24.0352 24.1445 17.3633C24.1445 16.6934 23.6797 16.2148 23.0098 16.2148C22.3672 16.2148 21.9434 16.6934 21.9434 17.3496C21.9434 22.8047 17.5273 27.2207 12.0723 27.2207C6.61719 27.2207 2.20117 22.8047 2.20117 17.3496C2.20117 11.8945 6.61719 7.47852 12.0723 7.47852C13.125 7.47852 14.082 7.54688 14.8887 7.73828L10.8145 11.7852C10.582 11.9902 10.5 12.2773 10.5 12.5645C10.5 13.1934 10.9648 13.6582 11.5664 13.6582C11.9082 13.6582 12.1543 13.5352 12.3594 13.3438L17.9922 7.68359C18.2383 7.45117 18.3477 7.17773 18.3477 6.86328C18.3477 6.5625 18.2246 6.26172 17.9922 6.04297L12.373 0.328125C12.168 0.109375 11.9082 0 11.5664 0C10.9648 0 10.5 0.492188 10.5 1.12109C10.5 1.4082 10.5957 1.68164 10.8008 1.90039L14.4238 5.52344C13.7266 5.38672 12.9062 5.29102 12.0723 5.29102C5.40039 5.29102 0 10.6914 0 17.3633Z" style="fill:var(--color-0,hsl(0 0 0/0.85))"></path>
 </g>
</svg>