<svg version="1.1" xmlns="http://www.w3.org/2000/svg" xmlns:xlink="http://www.w3.org/1999/xlink" viewBox="0 0 33.7185 27.9043">
 <g>
  
  <path d="M16.6815 0C12.58 0 8.86122 1.77734 6.30458 4.63477C5.74403 5.25 5.93544 6.05664 6.45497 6.41211C6.89247 6.74023 7.48036 6.76758 8.05458 6.15234C10.1874 3.78711 13.2636 2.32422 16.6815 2.32422C22.328 2.32422 27.0175 6.34375 28.0429 11.6758L26.1151 11.6758C25.1444 11.6758 24.8983 12.332 25.4179 13.084L28.4804 17.4453C28.9179 18.0742 29.5741 18.0879 30.0253 17.4453L33.0878 13.0977C33.621 12.332 33.3612 11.6758 32.3905 11.6758L30.4218 11.6758C29.3554 5.05859 23.5995 0 16.6815 0ZM16.6815 27.8906C20.7831 27.8906 24.5018 26.1133 27.0585 23.2559C27.619 22.627 27.4276 21.834 26.9081 21.4648C26.4706 21.1504 25.8827 21.123 25.3085 21.7246C23.1757 24.0898 20.0995 25.5664 16.6815 25.5664C11.035 25.5664 6.34559 21.5469 5.3202 16.2148L7.24794 16.2148C8.21864 16.2148 8.46474 15.5449 7.9452 14.8066L4.8827 10.4316C4.4452 9.81641 3.78895 9.80273 3.33778 10.4316L0.275282 14.793C-0.257921 15.5449-0.0118272 16.2148 0.972548 16.2148L2.9413 16.2148C4.0077 22.832 9.76356 27.8906 16.6815 27.8906Z" style="fill:var(--color-0,hsl(0 0 0/0.85))"></path>
 </g>
</svg>