<svg version="1.1" xmlns="http://www.w3.org/2000/svg" xmlns:xlink="http://www.w3.org/1999/xlink" viewBox="0 0 25.5254 25.1699">
 <g>
  
  <path d="M4.29297 25.1699L20.877 25.1699C23.748 25.1699 25.1699 23.7617 25.1699 20.9453L25.1699 4.23828C25.1699 1.42188 23.748 0 20.877 0L4.29297 0C1.43555 0 0 1.42188 0 4.23828L0 20.9453C0 23.7617 1.43555 25.1699 4.29297 25.1699ZM4.32031 22.9688C2.95312 22.9688 2.20117 22.2441 2.20117 20.8223L2.20117 4.36133C2.20117 2.93945 2.95312 2.20117 4.32031 2.20117L20.8496 2.20117C22.2031 2.20117 22.9688 2.93945 22.9688 4.36133L22.9688 20.8223C22.9688 22.2441 22.2031 22.9688 20.8496 22.9688Z" style="fill:var(--color-0,hsl(0 0 0/0.85))"></path>
  <path d="M18.498 12.5645C19.0312 12.5645 19.4688 12.1406 19.4688 11.6074L19.4688 6.84961C19.4688 6.0293 19.0449 5.71484 18.334 5.71484L13.6035 5.71484C13.0703 5.71484 12.6328 6.15234 12.6328 6.68555C12.6328 7.21875 13.0703 7.64258 13.6035 7.64258L14.2734 7.64258L16.3652 7.50586L13.2754 10.4453C12.8789 10.8281 12.8652 11.498 13.2617 11.8945C13.6719 12.3047 14.3145 12.3184 14.7246 11.8809L17.6777 8.77734L17.541 10.9375L17.541 11.6074C17.541 12.1406 17.9648 12.5645 18.498 12.5645ZM11.5938 19.4688C12.127 19.4688 12.5508 19.0312 12.5508 18.498C12.5508 17.9648 12.127 17.541 11.5938 17.541L10.9238 17.541L8.83203 17.6777L11.9082 14.7383C12.3047 14.3555 12.3184 13.6855 11.9219 13.2891C11.5254 12.8789 10.8691 12.8652 10.4727 13.3027L7.51953 16.4062L7.65625 14.2461L7.65625 13.5762C7.65625 13.043 7.21875 12.6191 6.68555 12.6191C6.15234 12.6191 5.72852 13.043 5.72852 13.5762L5.72852 18.334C5.72852 19.1543 6.13867 19.4688 6.84961 19.4688Z" style="fill:var(--color-1,hsl(0 0 0/0.85))"></path>
 </g>
</svg>