<svg version="1.1" xmlns="http://www.w3.org/2000/svg" xmlns:xlink="http://www.w3.org/1999/xlink" viewBox="0 0 15.1248 27.2788">
 <g>
  
  <path d="M4.11708 26.4158C4.8827 26.4158 5.30653 25.9646 5.30653 25.1853L5.30653 14.617L4.29481 14.617C5.42958 17.8982 8.68349 20.6052 13.0311 22.0545C13.8104 22.3416 14.4393 21.9451 14.6581 21.4119C14.9042 20.8787 14.7265 20.2088 13.9472 19.8533C8.87489 17.7752 5.30653 14.5486 5.30653 9.58571L5.30653 4.4861L2.91395 4.4861L2.91395 25.1853C2.91395 25.9646 3.33778 26.4158 4.11708 26.4158ZM0.972548 6.24977L7.24794 6.24977C8.21864 6.24977 8.46474 5.57985 7.9452 4.82789L4.8827 0.466567C4.4452-0.148668 3.78895-0.162339 3.33778 0.466567L0.275282 4.81422C-0.257921 5.57985-0.0118272 6.24977 0.972548 6.24977Z" style="fill:var(--color-0,hsl(0 0 0/0.85))"></path>
 </g>
</svg>