<svg version="1.1" xmlns="http://www.w3.org/2000/svg" xmlns:xlink="http://www.w3.org/1999/xlink" viewBox="0 0 28.2461 27.9043">
 <g>
  
  <path d="M13.9453 27.8906C21.6426 27.8906 27.8906 21.6289 27.8906 13.9453C27.8906 6.24805 21.6426 0 13.9453 0C6.26172 0 0 6.24805 0 13.9453C0 21.6289 6.26172 27.8906 13.9453 27.8906Z" style="fill:var(--color-0,hsl(0 0 0/0.85))"></path>
  <path d="M5.22266 13.959C5.22266 13.4121 5.61914 13.0156 6.16602 13.0156L12.6191 13.0156L15.2031 13.166L12.332 10.623L11.457 9.76172C11.252 9.58398 11.1699 9.32422 11.1699 9.06445C11.1699 8.53125 11.5938 8.16211 12.1133 8.16211C12.3594 8.16211 12.6055 8.24414 12.8105 8.46289L17.6777 13.2344C17.8691 13.4531 17.9922 13.6855 17.9922 13.959C17.9922 14.2188 17.8965 14.4648 17.6777 14.6699L12.8242 19.4004C12.6328 19.5918 12.332 19.7148 12.1133 19.7148C11.5664 19.7148 11.1699 19.3457 11.1699 18.7988C11.1699 18.5117 11.252 18.2793 11.457 18.1152L12.3457 17.2949L15.2168 14.752L12.6191 14.916L6.16602 14.916C5.61914 14.916 5.22266 14.5332 5.22266 13.959ZM20.002 20.166C19.4688 20.166 19.0723 19.7832 19.0723 19.2363L19.0723 8.64062C19.0723 8.09375 19.4688 7.71094 20.002 7.71094C20.5762 7.71094 20.9727 8.09375 20.9727 8.64062L20.9727 19.2363C20.9727 19.7832 20.5762 20.166 20.002 20.166Z" style="fill:var(--color-1,white)"></path>
 </g>
</svg>