<svg version="1.1" xmlns="http://www.w3.org/2000/svg" xmlns:xlink="http://www.w3.org/1999/xlink" viewBox="0 0 25.7441 20.7402">
 <g>
  
  <path d="M25.3887 10.3633C25.3887 10.0215 25.252 9.70703 24.9785 9.44727L15.9141 0.410156C15.6133 0.109375 15.3262 0 14.998 0C14.3281 0 13.8086 0.492188 13.8086 1.17578C13.8086 1.50391 13.918 1.81836 14.1367 2.03711L17.1992 5.1543L22.627 10.1035L22.9004 9.41992L18.498 9.14648L1.20312 9.14648C0.492188 9.14648 0 9.65234 0 10.3633C0 11.0742 0.492188 11.5801 1.20312 11.5801L18.498 11.5801L22.9004 11.3066L22.627 10.6367L17.1992 15.5723L14.1367 18.6895C13.918 18.8945 13.8086 19.2227 13.8086 19.5508C13.8086 20.2344 14.3281 20.7266 14.998 20.7266C15.3262 20.7266 15.6133 20.6035 15.8867 20.3438L24.9785 11.2793C25.252 11.0195 25.3887 10.7051 25.3887 10.3633Z" style="fill:var(--color-0,hsl(0 0 0/0.85))"></path>
 </g>
</svg>