<?xml version="1.0" encoding="UTF-8"?>
<!--Generator: Apple Native CoreSVG 326-->
<!DOCTYPE svg
PUBLIC "-//W3C//DTD SVG 1.1//EN"
       "http://www.w3.org/Graphics/SVG/1.1/DTD/svg11.dtd">
<svg version="1.1" xmlns="http://www.w3.org/2000/svg" xmlns:xlink="http://www.w3.org/1999/xlink" viewBox="0 0 32.5938 25.1973">
 <g>
  <rect height="25.1973" opacity="0" width="32.5938" x="0" y="0"/>
  <path d="M0 9.63867L0 7.68359L21.1777 7.68359C23.4062 7.68359 24.582 8.8457 24.582 11.0332L24.582 25.1973L22.627 25.1973L22.627 11.252C22.627 10.2402 22.0391 9.63867 21.041 9.63867L16.7754 9.63867L16.7754 25.1973L14.8203 25.1973L14.8203 9.63867ZM4.29297 25.1836L27.9453 25.1836C30.8164 25.1836 32.2383 23.7754 32.2383 20.959L32.2383 4.25195C32.2383 1.43555 30.8164 0.0136719 27.9453 0.0136719L4.29297 0.0136719C1.43555 0.0136719 0 1.43555 0 4.25195L0 20.959C0 23.7754 1.43555 25.1836 4.29297 25.1836Z" fill="white" fill-opacity="0.85"/>
 </g>
</svg>
