<svg version="1.1" xmlns="http://www.w3.org/2000/svg" xmlns:xlink="http://www.w3.org/1999/xlink" viewBox="0 0 24.7188 28.2324">
 <g>
  
  <path d="M12.1953 28.2324C13.084 28.2324 13.6035 27.6855 13.6035 26.7559C13.6035 26.5918 13.5898 26.4004 13.5898 26.2363L13.3984 16.2148L21.9297 21.3418C22.2715 21.5469 22.5859 21.6289 22.9414 21.6289C23.7617 21.6289 24.3633 21.0273 24.3633 20.1797C24.3633 19.5371 24.1172 19.1816 23.4336 18.8125L14.5059 14.123L23.4336 9.41992C24.1172 9.06445 24.3633 8.69531 24.3633 8.06641C24.3633 7.23242 23.7754 6.61719 22.9414 6.61719C22.5859 6.61719 22.2715 6.69922 21.9297 6.9043L13.3984 12.0312L13.5898 2.00977C13.5898 1.83203 13.6035 1.6543 13.6035 1.47656C13.6035 0.546875 13.084 0.0136719 12.1953 0.0136719C11.3066 0.0136719 10.7734 0.546875 10.7734 1.47656C10.7734 1.6543 10.7871 1.83203 10.7871 2.00977L10.9785 12.0312L2.43359 6.9043C2.0918 6.69922 1.77734 6.61719 1.4082 6.61719C0.587891 6.61719 0 7.21875 0 8.06641C0 8.69531 0.246094 9.06445 0.943359 9.41992L9.87109 14.123L0.943359 18.8125C0.246094 19.1816 0 19.5371 0 20.1797C0 21.0273 0.587891 21.6289 1.4082 21.6289C1.77734 21.6289 2.0918 21.5469 2.43359 21.3418L10.9785 16.2148L10.7871 26.2363C10.7871 26.4004 10.7734 26.5918 10.7734 26.7559C10.7734 27.6855 11.3066 28.2324 12.1953 28.2324Z" style="fill:var(--color-0,hsl(0 0 0/0.85))"></path>
 </g>
</svg>