<?xml version="1.0" encoding="UTF-8"?>
<!--Generator: Apple Native CoreSVG 326-->
<!DOCTYPE svg
PUBLIC "-//W3C//DTD SVG 1.1//EN"
       "http://www.w3.org/Graphics/SVG/1.1/DTD/svg11.dtd">
<svg version="1.1" xmlns="http://www.w3.org/2000/svg" xmlns:xlink="http://www.w3.org/1999/xlink" viewBox="0 0 28.7109 30.2285">
 <g>
  <rect height="30.2285" opacity="0" width="28.7109" x="0" y="0"/>
  <path d="M0 15.75C0 24.7598 6.09766 30.2285 14.4922 30.2285C16.7617 30.2285 18.9219 29.9141 20.2617 29.4766C21.2051 29.1758 21.5059 28.6836 21.5059 28.1777C21.5059 27.6719 21.1094 27.2891 20.6035 27.2891C20.4395 27.2891 20.2207 27.3164 19.9609 27.3848C18.293 27.7949 16.8574 28.0684 14.9297 28.0684C7.45117 28.0684 2.35156 23.5566 2.35156 15.832C2.35156 8.43555 7.16406 3.28125 14.4102 3.28125C20.8223 3.28125 26.1816 7.23242 26.1816 14.3281C26.1816 18.4707 24.7871 21.2598 22.5312 21.2598C21.0273 21.2598 20.1797 20.3848 20.1797 18.8945L20.1797 9.625C20.1797 8.88672 19.7695 8.43555 19.0723 8.43555C18.3887 8.43555 17.9648 8.88672 17.9648 9.625L17.9648 11.1836L17.8418 11.1836C17.1445 9.50195 15.4355 8.43555 13.3984 8.43555C9.85742 8.43555 7.36914 11.457 7.36914 15.791C7.36914 20.166 9.84375 23.2148 13.4531 23.2148C15.5723 23.2148 17.2129 22.0664 18.0059 20.125L18.1289 20.125C18.3887 22.0527 20.0156 23.2285 22.1758 23.2285C25.9902 23.2285 28.3555 19.4824 28.3555 14.2324C28.3555 6.28906 22.5176 1.13477 14.4375 1.13477C5.94727 1.13477 0 6.94531 0 15.75ZM13.8223 21.0547C11.375 21.0547 9.81641 19.0176 9.81641 15.7773C9.81641 12.5918 11.3887 10.5547 13.8359 10.5547C16.3516 10.5547 17.9375 12.5508 17.9375 15.7227C17.9375 18.9629 16.3105 21.0547 13.8223 21.0547Z" fill="#0a84ff"/>
 </g>
</svg>
