<svg version="1.1" xmlns="http://www.w3.org/2000/svg" xmlns:xlink="http://www.w3.org/1999/xlink" viewBox="0 0 28.2461 27.9043">
 <g>
  
  <path d="M13.9453 27.8906C21.6426 27.8906 27.8906 21.6426 27.8906 13.9453C27.8906 6.24805 21.6426 0 13.9453 0C6.24805 0 0 6.24805 0 13.9453C0 21.6426 6.24805 27.8906 13.9453 27.8906ZM13.9453 25.5664C7.51953 25.5664 2.32422 20.3711 2.32422 13.9453C2.32422 7.51953 7.51953 2.32422 13.9453 2.32422C20.3711 2.32422 25.5664 7.51953 25.5664 13.9453C25.5664 20.3711 20.3711 25.5664 13.9453 25.5664Z" style="fill:var(--color-0,#007aff)"></path>
  <path d="M14.1094 22.1348C15.3535 22.1348 16.5566 21.9844 17.3359 21.7246C17.9102 21.5469 18.2246 21.1914 18.2246 20.7266C18.2246 20.2754 17.8828 19.9336 17.4316 19.9336C17.3223 19.9336 17.1582 19.9746 17.0078 20.0156C16.1055 20.2207 15.3672 20.3574 14.3418 20.3574C10.3223 20.3574 7.80664 17.9238 7.80664 14.0137C7.80664 10.1172 10.3359 7.47852 14.0684 7.47852C17.7188 7.47852 20.166 9.76172 20.166 13.1934C20.166 15.3125 19.4824 16.666 18.4844 16.666C17.8281 16.666 17.5 16.3242 17.5 15.668L17.5 10.623C17.5 10.0625 17.1445 9.67969 16.584 9.67969C16.0781 9.67969 15.7363 10.0898 15.7363 10.418L15.7363 10.6914C15.2305 10.1035 14.3965 9.67969 13.5215 9.67969C11.4297 9.67969 9.93945 11.4707 9.93945 13.9863C9.93945 16.5293 11.4297 18.334 13.5625 18.334C14.5879 18.334 15.4629 17.8555 15.9961 17.0215C16.3789 17.8281 17.2129 18.334 18.293 18.334C20.4941 18.334 21.957 16.2285 21.957 13.1387C21.957 8.73633 18.7441 5.71484 14.082 5.71484C9.25586 5.71484 5.93359 9.07812 5.93359 13.9727C5.93359 18.8672 9.21484 22.1348 14.1094 22.1348ZM13.877 16.502C12.7148 16.502 11.9902 15.5312 11.9902 13.9453C11.9902 12.373 12.7285 11.3887 13.8906 11.3887C15.0664 11.3887 15.8184 12.3457 15.8184 13.9043C15.8184 15.5039 15.0527 16.502 13.877 16.502Z" style="fill:var(--color-1,#007aff)"></path>
 </g>
</svg>