<svg version="1.1" xmlns="http://www.w3.org/2000/svg" xmlns:xlink="http://www.w3.org/1999/xlink" viewBox="0 0 29.8903 32.9902">
 <g>
  
  <path d="M5.17758 18.0282C2.54866 20.422 1.44966 22.5094 2.244 23.8711C3.03934 25.2427 5.41003 25.3327 8.80342 24.2523C8.92616 24.9639 9.07339 25.6283 9.24101 26.2485C4.9143 27.4654 1.73626 27.0444 0.480325 24.8828C-0.746791 22.7268 0.469387 19.7901 3.65702 16.665C4.11834 17.1162 4.6211 17.5711 5.17758 18.0282ZM14.7698 24.1055C13.5209 24.7092 12.3225 25.2177 11.1892 25.6238C11.0378 24.9858 10.908 24.284 10.7996 23.5274C11.3032 23.3286 11.8279 23.1033 12.3681 22.8573C13.1908 23.3193 13.9913 23.7331 14.7698 24.1055ZM18.9553 21.8361C18.6677 22.0092 18.3744 22.1816 18.076 22.3535C17.7713 22.5292 17.4687 22.7 17.1736 22.8543C16.4103 22.5135 15.6088 22.1213 14.7743 21.6792C15.4955 21.3079 16.2434 20.8961 17.0096 20.4531C17.7587 20.0218 18.4735 19.5903 19.1483 19.161C19.1104 20.108 19.0457 21.0019 18.9553 21.8361ZM24.3599 18.028C23.4337 18.8131 22.3859 19.6033 21.2226 20.3889C21.2938 19.5299 21.3378 18.6275 21.3513 17.6822C21.8396 17.3347 22.2988 16.9905 22.7304 16.6504C23.3359 17.1203 23.881 17.5807 24.3599 18.028ZM29.0545 8.4082C30.31 10.5775 29.0847 13.5363 25.8815 16.6649C25.4177 16.2091 24.9103 15.749 24.3485 15.2861C26.986 12.889 28.0958 10.7914 27.2909 9.43359C26.5061 8.05817 24.146 7.96112 20.7793 9.0228C20.6635 8.31068 20.5228 7.64576 20.3628 7.02168C24.651 5.82969 27.8046 6.257 29.0545 8.4082ZM8.1782 15.6247C7.69365 15.9703 7.23778 16.3125 6.8093 16.6504C6.2076 16.1854 5.66571 15.7292 5.18901 15.2858C6.10324 14.5079 7.13628 13.7237 8.2826 12.9421C8.22276 13.7993 8.18521 14.6911 8.1782 15.6247ZM14.7741 11.606C14.0654 11.9711 13.3313 12.3758 12.5799 12.8105C11.811 13.2543 11.0785 13.6976 10.3876 14.1381C10.4192 13.1959 10.4777 12.3066 10.5608 11.4736C10.8633 11.2899 11.1719 11.1066 11.4862 10.9238C11.7861 10.7508 12.084 10.5826 12.3745 10.4308C13.1387 10.7716 13.9403 11.1638 14.7741 11.606ZM18.7862 9.74231C18.266 9.94709 17.724 10.1793 17.1658 10.4337C16.3446 9.97115 15.5454 9.55691 14.7677 9.18367C16.0411 8.56761 17.2624 8.05075 18.417 7.63872C18.562 8.27941 18.6855 8.9821 18.7862 9.74231Z" style="fill:var(--color-0,hsl(0 0 0/0.85))"></path>
  <path d="M29.0545 24.8828C27.8054 27.0474 24.6235 27.4666 20.2924 26.2537C20.4611 25.6303 20.6092 24.9622 20.7325 24.2463C24.1324 25.3329 26.503 25.2438 27.2909 23.8711C28.3426 22.0681 26.0752 18.9931 21.3566 15.6233C21.3496 14.6902 21.3121 13.7989 21.2523 12.9422C27.741 17.3697 30.7742 21.8824 29.0545 24.8828ZM12.5389 20.4531C14.7917 21.7554 16.8865 22.7885 18.7481 23.5305C18.6397 24.2854 18.51 24.9856 18.3587 25.6223C16.2538 24.8714 13.9267 23.7743 11.4588 22.3535C11.1609 22.1819 10.868 22.0097 10.5931 21.8357C10.5027 21.001 10.4381 20.1067 10.4001 19.1592C11.0702 19.5889 11.7872 20.0211 12.5389 20.4531ZM9.17377 7.01434C9.01308 7.64087 8.87175 8.3083 8.75549 9.0232C5.38741 7.96138 3.02777 8.05997 2.244 9.43359C1.18001 11.2284 3.46157 14.3158 8.18346 17.6743C8.19681 18.6226 8.2409 19.5278 8.31231 20.3894C1.79724 15.9805-1.25596 11.4289 0.480325 8.4082C1.73909 6.2564 4.89203 5.82945 9.17377 7.01434ZM18.0487 10.9238L18.9894 11.4912C19.0718 12.3211 19.1298 13.2066 19.1612 14.1446C18.4751 13.7022 17.7402 13.2566 16.9686 12.8105C14.7214 11.5102 12.6264 10.4792 10.7623 9.74025C10.8624 8.98372 10.9851 8.28424 11.129 7.64621C13.2398 8.39605 15.5739 9.49624 18.0487 10.9238Z" style="fill:var(--color-1,hsl(0 0 0/0.85))"></path>
  <path d="M14.7674 32.9902C18.7733 32.9902 21.3709 26.4688 21.3709 16.4883C21.3709 6.54883 18.7733 0.0273438 14.7674 0.0273438C10.7616 0.0273438 8.16392 6.54883 8.16392 16.4883C8.16392 26.4688 10.7616 32.9902 14.7674 32.9902ZM14.7674 30.9805C12.1014 30.9805 10.3377 25.2656 10.3377 16.4883C10.3377 7.72461 12.1014 2.03711 14.7674 2.03711C17.4471 2.03711 19.2108 7.72461 19.2108 16.4883C19.2108 25.2656 17.4471 30.9805 14.7674 30.9805Z" style="fill:var(--color-2,hsl(0 0 0/0.85))"></path>
  <path d="M14.7811 19.4141C16.3807 19.4141 17.6795 18.1152 17.6795 16.502C17.6795 14.9023 16.3807 13.6035 14.7811 13.6035C13.1678 13.6035 11.869 14.9023 11.869 16.502C11.869 18.1152 13.1678 19.4141 14.7811 19.4141Z" style="fill:var(--color-3,hsl(0 0 0/0.85))"></path>
 </g>
</svg>