<svg version="1.1" xmlns="http://www.w3.org/2000/svg" xmlns:xlink="http://www.w3.org/1999/xlink" viewBox="0 0 8.27148 31.1855">
 <g>
  
  <path d="M3.96484 26.4141C6.13867 26.4141 7.91602 24.6504 7.91602 22.4766L7.91602 16.2012C7.91602 15.709 7.57422 15.3809 7.0957 15.3809L0.833984 15.3809C0.328125 15.3809 0 15.709 0 16.2012L0 22.4766C0 24.6504 1.77734 26.4141 3.96484 26.4141ZM2.81641 31.1855L5.09961 31.1855L5.09961 25.5254L2.81641 25.5254ZM2.65234 13.7949L5.26367 13.7949L5.26367 7.71094L2.65234 7.71094ZM2.65234 6.24805L5.26367 6.24805L5.26367 4.01953L2.65234 4.01953ZM2.65234 2.57031L5.26367 2.57031L5.26367 0.833984C5.26367 0.328125 4.93555 0 4.45703 0L3.45898 0C2.98047 0 2.65234 0.328125 2.65234 0.833984Z" style="fill:var(--color-0,hsl(0 0 0/0.85))"></path>
 </g>
</svg>