<svg version="1.1" xmlns="http://www.w3.org/2000/svg" xmlns:xlink="http://www.w3.org/1999/xlink" viewBox="0 0 28.2461 27.9043">
 <g>
  
  <path d="M13.9453 27.8906C21.6426 27.8906 27.8906 21.6426 27.8906 13.9453C27.8906 6.24805 21.6426 0 13.9453 0C6.24805 0 0 6.24805 0 13.9453C0 21.6426 6.24805 27.8906 13.9453 27.8906ZM13.9453 25.5664C7.51953 25.5664 2.32422 20.3711 2.32422 13.9453C2.32422 7.51953 7.51953 2.32422 13.9453 2.32422C20.3711 2.32422 25.5664 7.51953 25.5664 13.9453C25.5664 20.3711 20.3711 25.5664 13.9453 25.5664Z" style="fill:var(--color-0,hsl(0 0 0/0.85))"></path>
  <path d="M6.9043 19.4688C7.28711 19.4688 7.54688 19.25 7.65625 18.8125L8.24414 16.4609L11.6758 16.4609L12.291 18.8125C12.4141 19.25 12.6328 19.4688 13.084 19.4688C13.4668 19.4688 13.8086 19.2363 13.8086 18.7441C13.8086 18.6074 13.7949 18.457 13.7402 18.2793L11.1289 9.13281C10.9512 8.51758 10.6094 8.20312 9.9668 8.20312C9.33789 8.20312 8.98242 8.54492 8.81836 9.14648L6.2207 18.2793C6.17969 18.4297 6.13867 18.5938 6.13867 18.7441C6.13867 19.2363 6.49414 19.4688 6.9043 19.4688ZM8.57227 15.2305L9.88477 10.0625L10.0078 10.0625L11.3477 15.2305ZM18.0605 19.1406C19.9062 19.1406 21.3008 18.1699 21.3008 16.3242C21.3008 14.7109 20.3574 14.082 18.9355 13.4121L17.9512 12.9336C17.1582 12.5508 16.3789 12.0586 16.3789 11.1699C16.3789 10.2266 17.1035 9.74805 18.0332 9.74805C19.0449 9.74805 19.4824 10.3496 19.7148 11.3203C19.8242 11.6758 20.043 11.8672 20.3984 11.8672C20.8223 11.8672 21.1094 11.6211 21.1094 11.1973C21.1094 11.0469 21.082 10.8555 21.0273 10.6641C20.6719 9.2832 19.5781 8.51758 18.0332 8.51758C16.2695 8.51758 14.916 9.51562 14.916 11.252C14.916 12.7285 15.75 13.4941 17.1992 14.1777L18.1973 14.6426C19.0723 15.0527 19.8379 15.4902 19.8379 16.4609C19.8379 17.4453 19.1543 17.8965 18.0605 17.8965C16.8848 17.8965 16.3926 17.1992 16.2148 16.3379C16.0918 15.9004 15.8457 15.709 15.4902 15.709C15.0938 15.709 14.793 15.9688 14.793 16.4199C14.793 16.5703 14.8066 16.707 14.834 16.8711C15.1074 18.1973 16.4062 19.1406 18.0605 19.1406ZM18.0469 20.5625C18.252 20.5625 18.4297 20.3848 18.4297 20.1797L18.4297 7.49219C18.4297 7.28711 18.252 7.10938 18.0469 7.10938C17.8418 7.10938 17.6641 7.28711 17.6641 7.49219L17.6641 20.1797C17.6641 20.3848 17.8418 20.5625 18.0469 20.5625Z" style="fill:var(--color-1,hsl(0 0 0/0.85))"></path>
 </g>
</svg>