<svg version="1.1" xmlns="http://www.w3.org/2000/svg" xmlns:xlink="http://www.w3.org/1999/xlink" viewBox="0 0 30.9258 30.584">
 <g>
  
  <path d="M15.2852 30.5703C23.6797 30.5703 30.5703 23.6797 30.5703 15.2852C30.5703 6.89062 23.6797 0 15.2852 0C6.89062 0 0 6.89062 0 15.2852C0 23.6797 6.89062 30.5703 15.2852 30.5703ZM15.2852 25.4844C9.65234 25.4844 5.08594 20.918 5.08594 15.2852C5.08594 9.63867 9.65234 5.08594 15.2852 5.08594C20.9316 5.08594 25.4844 9.63867 25.4844 15.2852C25.4844 20.918 20.9316 25.4844 15.2852 25.4844Z" style="fill:var(--color-0,hsl(0 0 0/0.85))"></path>
  <path d="M11.3477 21.6426C11.7715 21.6426 11.9902 21.4375 12.1133 21.0273L15.2578 10.8145L15.3125 10.8145L18.4434 21.041C18.5527 21.4102 18.7715 21.6426 19.2227 21.6426C19.6465 21.6426 20.002 21.3965 20.002 20.9316C20.002 20.7949 19.9746 20.6445 19.9199 20.5078L16.3652 9.69336C16.2012 9.16016 15.8594 8.88672 15.2852 8.88672C14.7109 8.88672 14.3555 9.1875 14.1777 9.69336L10.6367 20.5488C10.582 20.6992 10.5547 20.8223 10.5547 20.9316C10.5547 21.3828 10.9102 21.6426 11.3477 21.6426ZM9.99414 15.5859C9.99414 15.832 10.1992 16.0371 10.459 16.0371L20.1113 16.0371C20.3574 16.0371 20.5625 15.832 20.5625 15.5859C20.5625 15.3262 20.3574 15.1211 20.1113 15.1211L10.459 15.1211C10.1992 15.1211 9.99414 15.3262 9.99414 15.5859ZM9.99414 18.0469C9.99414 18.293 10.1992 18.498 10.459 18.498L20.1113 18.498C20.3574 18.498 20.5625 18.293 20.5625 18.0469C20.5625 17.8008 20.3574 17.5957 20.1113 17.5957L10.459 17.5957C10.1992 17.5957 9.99414 17.8008 9.99414 18.0469Z" style="fill:var(--color-1,hsl(0 0 0/0.85))"></path>
 </g>
</svg>