<svg version="1.1" xmlns="http://www.w3.org/2000/svg" xmlns:xlink="http://www.w3.org/1999/xlink" viewBox="0 0 28.1858 27.8355">
 <g>
  
  <path d="M6.07436 6.06328C1.76771 10.3699-0.283066 16.1531 0.0313866 20.5828C0.291152 25.1355 2.65639 27.5418 7.12709 27.7879C11.6662 28.1023 17.4494 26.0652 21.756 21.7449C26.0626 17.4383 28.1134 11.6688 27.7853 7.11602C27.5529 2.65898 25.1329 0.29375 20.5939 0.0339844C16.1642-0.294141 10.381 1.75664 6.07436 6.06328ZM7.86537 16.9324C7.60561 16.659 7.61928 16.2215 7.86537 15.9617C8.15248 15.702 8.58998 15.702 8.84975 15.9617L9.87514 16.9871L10.9552 15.907L9.91615 14.868C9.65639 14.6082 9.64271 14.1844 9.91615 13.9383C10.1759 13.6512 10.6271 13.6648 10.9005 13.9246L11.9259 14.95L12.9923 13.8836L11.9533 12.8445C11.6935 12.5848 11.6798 12.1609 11.9533 11.9012C12.1994 11.6277 12.6505 11.6414 12.8966 11.8875L13.9494 12.9266L15.0294 11.8602L13.9904 10.8211C13.7306 10.5477 13.7306 10.1102 13.9767 9.86406C14.2638 9.59063 14.674 9.59063 14.9337 9.86406L15.9728 10.9031L17.0529 9.82305L16.0138 8.79766C15.754 8.52422 15.7677 8.08672 16.0138 7.81328C16.3009 7.55352 16.7247 7.53984 16.9845 7.79961L20.0197 10.8348C20.2794 11.0945 20.2658 11.5184 20.006 11.8055C19.7462 12.0652 19.2951 12.0652 19.0353 11.8055L18.0099 10.7664L16.9298 11.8602L17.9689 12.8855C18.2287 13.159 18.2287 13.5555 17.9689 13.8426C17.6954 14.075 17.2716 14.0887 17.0119 13.8426L15.9728 12.8035L14.9064 13.8836L15.9318 14.909C16.1915 15.1688 16.1915 15.6063 15.9181 15.866C15.6583 16.1395 15.2345 16.1395 14.9747 15.8797L13.9494 14.8406L12.8829 15.907L13.8947 16.9324C14.1544 17.1922 14.1681 17.6434 13.881 17.9031C13.6349 18.1766 13.2111 18.1629 12.9513 17.9031L11.9122 16.8641L10.8322 17.9441L11.8576 18.9695C12.1173 19.2293 12.1173 19.6668 11.8576 19.9539C11.5978 20.2 11.1603 20.2137 10.9005 19.9539Z" style="fill:var(--color-0,hsl(0 0 0/0.85))"></path>
 </g>
</svg>