<?xml version="1.0" encoding="UTF-8"?>
<!--Generator: Apple Native CoreSVG 326-->
<!DOCTYPE svg
PUBLIC "-//W3C//DTD SVG 1.1//EN"
       "http://www.w3.org/Graphics/SVG/1.1/DTD/svg11.dtd">
<svg version="1.1" xmlns="http://www.w3.org/2000/svg" xmlns:xlink="http://www.w3.org/1999/xlink" viewBox="0 0 36.6133 30.8301">
 <g>
  <rect height="30.8301" opacity="0" width="36.6133" x="0" y="0"/>
  <path d="M1.32617 28.2734C2.03711 28.2734 2.44727 27.9316 2.65234 27.2207L4.60742 20.7676L13.5488 20.7676L15.5039 27.2207C15.709 27.9316 16.1191 28.2734 16.8574 28.2734C17.582 28.2734 18.1699 27.8086 18.1699 27.0703C18.1699 26.8652 18.0879 26.5098 18.0195 26.291L10.9785 4.0332C10.6914 3.07617 10.1172 2.47461 9.0918 2.47461C8.06641 2.47461 7.49219 3.0625 7.19141 4.04688L0.164062 26.291C0.0957031 26.5234 0 26.8105 0 27.0703C0 27.8086 0.574219 28.2734 1.32617 28.2734ZM5.27734 18.4707L9.00977 6.01562L9.11914 6.01562L12.8789 18.4707ZM28.6973 27.5488C32.9629 27.5488 36.2578 25.3066 36.2578 21.123C36.2578 17.3496 33.6328 15.8457 30.4473 14.5605L28.1094 13.6172C26.0039 12.7969 23.9805 11.6074 23.9805 9.26953C23.9805 6.82227 26.1406 5.52344 28.6152 5.52344C31.1855 5.52344 32.7988 6.95898 33.3047 9.47461C33.4414 10.0898 33.8242 10.5957 34.5898 10.5957C35.4238 10.5957 35.9023 10.0488 35.8887 9.2832C35.8887 9.07812 35.8613 8.77734 35.8203 8.54492C35.0547 4.96289 32.1562 3.18555 28.6152 3.18555C24.6641 3.18555 21.3555 5.45508 21.3555 9.41992C21.3555 12.9336 23.8711 14.6699 26.9883 15.9141L29.3398 16.8574C31.6777 17.7598 33.6465 18.8398 33.6465 21.3555C33.6465 23.9668 31.541 25.2109 28.7109 25.2109C25.7715 25.2109 24.0215 23.8438 23.5156 21.1094C23.3652 20.4121 22.9141 19.9609 22.2031 19.9609C21.4512 19.9609 20.9453 20.4805 20.9453 21.2188C20.9453 21.4922 20.9863 21.7793 21.0273 21.998C21.7793 25.7578 24.9375 27.5488 28.6973 27.5488ZM28.5879 30.8164C29.0801 30.8164 29.4766 30.4199 29.4766 29.9277L29.4766 0.888672C29.4766 0.396484 29.0801 0 28.5879 0C28.0957 0 27.6992 0.396484 27.6992 0.888672L27.6992 29.9277C27.6992 30.4199 28.0957 30.8164 28.5879 30.8164Z" fill="white" fill-opacity="0.85"/>
 </g>
</svg>
