<?xml version="1.0" encoding="UTF-8"?>
<!--Generator: Apple Native CoreSVG 326-->
<!DOCTYPE svg
PUBLIC "-//W3C//DTD SVG 1.1//EN"
       "http://www.w3.org/Graphics/SVG/1.1/DTD/svg11.dtd">
<svg version="1.1" xmlns="http://www.w3.org/2000/svg" xmlns:xlink="http://www.w3.org/1999/xlink" viewBox="0 0 30.8848 29.1895">
 <g>
  <rect height="29.1895" opacity="0" width="30.8848" x="0" y="0"/>
  <path d="M1.81836 25.9219L28.7109 25.9219L28.7109 25.0059C28.7109 24.459 28.3965 24.1309 27.8359 24.1309L26.9609 24.1309L26.9609 9.37891L28.1641 9.37891C28.916 9.37891 29.3535 8.83203 29.3535 8.27148C29.3535 7.86133 29.1211 7.50586 28.6152 7.21875L16.9395 0.478516C16.3926 0.164062 15.8184 0 15.2578 0C14.6973 0 14.1094 0.164062 13.5898 0.478516L1.91406 7.21875C1.39453 7.50586 1.17578 7.86133 1.17578 8.27148C1.17578 8.83203 1.61328 9.37891 2.36523 9.37891L3.56836 9.37891L3.56836 24.1309L2.70703 24.1309C2.14648 24.1309 1.81836 24.459 1.81836 25.0059ZM5.63281 24.1309L5.63281 7.62891L14.7246 2.5293C14.8887 2.43359 15.0801 2.37891 15.2578 2.37891C15.4355 2.37891 15.627 2.43359 15.8047 2.5293L24.8965 7.62891L24.8965 24.1309ZM1.09375 29.1758L29.4219 29.1758C30.0234 29.1758 30.5293 28.6699 30.5293 28.0684C30.5293 27.4668 30.0234 26.9746 29.4219 26.9746L1.09375 26.9746C0.492188 26.9746 0 27.4668 0 28.0684C0 28.6699 0.492188 29.1758 1.09375 29.1758Z" fill="white" fill-opacity="0.85"/>
  <path d="M8.79102 19.4824C9.14648 19.4824 9.39258 19.2773 9.48828 18.8809L10.0352 16.707L13.1934 16.707L13.7676 18.8809C13.877 19.2773 14.082 19.4824 14.4922 19.4824C14.8477 19.4824 15.1621 19.2637 15.1621 18.8125C15.1621 18.6895 15.1484 18.5527 15.0938 18.375L12.6875 9.95312C12.5234 9.37891 12.2227 9.0918 11.6211 9.0918C11.0469 9.0918 10.7188 9.40625 10.5547 9.9668L8.16211 18.375C8.12109 18.5254 8.09375 18.6758 8.09375 18.8125C8.09375 19.2637 8.42188 19.4824 8.79102 19.4824ZM10.3359 15.5723L11.5527 10.8145L11.6484 10.8145L12.8926 15.5723ZM19.0859 19.1816C20.7812 19.1816 22.0664 18.2793 22.0664 16.584C22.0664 15.0938 21.1914 14.5195 19.8926 13.8906L18.9766 13.4668C18.252 13.1113 17.5273 12.6602 17.5273 11.8262C17.5273 10.9648 18.1973 10.5273 19.0586 10.5273C19.9883 10.5273 20.3848 11.0742 20.6035 11.9766C20.6992 12.291 20.9043 12.4824 21.2324 12.4824C21.6289 12.4824 21.8887 12.25 21.8887 11.8535C21.8887 11.7168 21.875 11.5391 21.8203 11.3613C21.4922 10.0898 20.4805 9.39258 19.0586 9.39258C17.4316 9.39258 16.1738 10.3086 16.1738 11.9082C16.1738 13.2617 16.9531 13.9727 18.293 14.6016L19.209 15.0391C20.0156 15.4082 20.7129 15.8184 20.7129 16.707C20.7129 17.6094 20.084 18.0332 19.0859 18.0332C17.9922 18.0332 17.541 17.3906 17.377 16.5977C17.2676 16.1875 17.0352 16.0234 16.7207 16.0234C16.3516 16.0234 16.0645 16.2559 16.0645 16.666C16.0645 16.8027 16.0781 16.9395 16.1055 17.0762C16.3516 18.3066 17.5547 19.1816 19.0859 19.1816ZM19.0723 20.4941C19.2637 20.4941 19.4141 20.3301 19.4141 20.1387L19.4141 8.43555C19.4141 8.24414 19.2637 8.08008 19.0723 8.08008C18.8672 8.08008 18.7168 8.24414 18.7168 8.43555L18.7168 20.1387C18.7168 20.3301 18.8672 20.4941 19.0723 20.4941Z" fill="white" fill-opacity="0.85"/>
 </g>
</svg>
