<?xml version="1.0" encoding="UTF-8"?>
<!--Generator: Apple Native CoreSVG 326-->
<!DOCTYPE svg
PUBLIC "-//W3C//DTD SVG 1.1//EN"
       "http://www.w3.org/Graphics/SVG/1.1/DTD/svg11.dtd">
<svg version="1.1" xmlns="http://www.w3.org/2000/svg" xmlns:xlink="http://www.w3.org/1999/xlink" viewBox="0 0 30.8848 29.1895">
 <g>
  <rect height="29.1895" opacity="0" width="30.8848" x="0" y="0"/>
  <path d="M1.81836 25.9219L28.7109 25.9219L28.7109 25.0059C28.7109 24.459 28.3965 24.1309 27.8359 24.1309L26.9609 24.1309L26.9609 9.37891L28.1641 9.37891C28.916 9.37891 29.3535 8.83203 29.3535 8.27148C29.3535 7.86133 29.1211 7.50586 28.6152 7.21875L16.9395 0.478516C16.3926 0.164062 15.8184 0 15.2578 0C14.6973 0 14.1094 0.164062 13.5898 0.478516L1.91406 7.21875C1.39453 7.50586 1.17578 7.86133 1.17578 8.27148C1.17578 8.83203 1.61328 9.37891 2.36523 9.37891L3.56836 9.37891L3.56836 24.1309L2.70703 24.1309C2.14648 24.1309 1.81836 24.459 1.81836 25.0059ZM5.63281 24.1309L5.63281 7.62891L14.7246 2.5293C14.8887 2.43359 15.0801 2.37891 15.2578 2.37891C15.4355 2.37891 15.627 2.43359 15.8047 2.5293L24.8965 7.62891L24.8965 24.1309ZM1.09375 29.1758L29.4219 29.1758C30.0234 29.1758 30.5293 28.6699 30.5293 28.0684C30.5293 27.4668 30.0234 26.9746 29.4219 26.9746L1.09375 26.9746C0.492188 26.9746 0 27.4668 0 28.0684C0 28.6699 0.492188 29.1758 1.09375 29.1758Z" fill="white" fill-opacity="0.85"/>
  <path d="M11.334 20.7402C11.7578 20.7402 11.9766 20.5352 12.0996 20.1387L15.2305 9.91211L15.2988 9.91211L18.4297 20.1523C18.5391 20.5078 18.7578 20.7402 19.209 20.7402C19.6328 20.7402 19.9883 20.4941 19.9883 20.043C19.9883 19.8926 19.9609 19.7422 19.9062 19.6055L16.3516 8.80469C16.1738 8.27148 15.8457 7.98438 15.2715 7.98438C14.6973 7.98438 14.3281 8.28516 14.1641 8.80469L10.6094 19.6602C10.5684 19.7969 10.541 19.9199 10.541 20.043C10.541 20.4805 10.8965 20.7402 11.334 20.7402ZM9.98047 14.6836C9.98047 14.9297 10.1855 15.1348 10.4316 15.1348L20.0977 15.1348C20.3438 15.1348 20.5488 14.9297 20.5488 14.6836C20.5488 14.4375 20.3438 14.2324 20.0977 14.2324L10.4316 14.2324C10.1855 14.2324 9.98047 14.4375 9.98047 14.6836ZM9.98047 17.1582C9.98047 17.4043 10.1855 17.6094 10.4316 17.6094L20.0977 17.6094C20.3438 17.6094 20.5488 17.4043 20.5488 17.1582C20.5488 16.8984 20.3438 16.707 20.0977 16.707L10.4316 16.707C10.1855 16.707 9.98047 16.8984 9.98047 17.1582Z" fill="white" fill-opacity="0.85"/>
 </g>
</svg>
