<?xml version="1.0" encoding="UTF-8"?>
<!--Generator: Apple Native CoreSVG 326-->
<!DOCTYPE svg
PUBLIC "-//W3C//DTD SVG 1.1//EN"
       "http://www.w3.org/Graphics/SVG/1.1/DTD/svg11.dtd">
<svg version="1.1" xmlns="http://www.w3.org/2000/svg" xmlns:xlink="http://www.w3.org/1999/xlink" viewBox="0 0 25.5254 25.1699">
 <g>
  <rect height="25.1699" opacity="0" width="25.5254" x="0" y="0"/>
  <path d="M4.29297 25.1699L20.877 25.1699C23.748 25.1699 25.1699 23.7617 25.1699 20.9453L25.1699 4.23828C25.1699 1.42188 23.748 0 20.877 0L4.29297 0C1.43555 0 0 1.42188 0 4.23828L0 20.9453C0 23.7617 1.43555 25.1699 4.29297 25.1699ZM4.32031 22.9688C2.95312 22.9688 2.20117 22.2441 2.20117 20.8223L2.20117 4.36133C2.20117 2.93945 2.95312 2.20117 4.32031 2.20117L20.8496 2.20117C22.2031 2.20117 22.9688 2.93945 22.9688 4.36133L22.9688 20.8223C22.9688 22.2441 22.2031 22.9688 20.8496 22.9688Z" fill="white" fill-opacity="0.85"/>
  <path d="M8.6543 18.9355C9.07812 18.9355 9.29688 18.7305 9.41992 18.3203L12.5645 8.10742L12.6191 8.10742L15.75 18.334C15.8594 18.7031 16.0781 18.9355 16.5293 18.9355C16.9531 18.9355 17.3086 18.6895 17.3086 18.2246C17.3086 18.0879 17.2812 17.9375 17.2266 17.8008L13.6719 6.98633C13.5078 6.45312 13.166 6.17969 12.5918 6.17969C12.0176 6.17969 11.6621 6.48047 11.498 6.98633L7.94336 17.8418C7.88867 17.9922 7.86133 18.1152 7.86133 18.2246C7.86133 18.6758 8.2168 18.9355 8.6543 18.9355ZM7.30078 12.8789C7.30078 13.125 7.50586 13.3301 7.76562 13.3301L17.418 13.3301C17.6641 13.3301 17.8691 13.125 17.8691 12.8789C17.8691 12.6191 17.6641 12.4141 17.418 12.4141L7.76562 12.4141C7.50586 12.4141 7.30078 12.6191 7.30078 12.8789ZM7.30078 15.3398C7.30078 15.5859 7.50586 15.791 7.76562 15.791L17.418 15.791C17.6641 15.791 17.8691 15.5859 17.8691 15.3398C17.8691 15.0938 17.6641 14.8887 17.418 14.8887L7.76562 14.8887C7.50586 14.8887 7.30078 15.0938 7.30078 15.3398Z" fill="white" fill-opacity="0.85"/>
 </g>
</svg>
