<?xml version="1.0" encoding="UTF-8"?>
<!--Generator: Apple Native CoreSVG 326-->
<!DOCTYPE svg
PUBLIC "-//W3C//DTD SVG 1.1//EN"
       "http://www.w3.org/Graphics/SVG/1.1/DTD/svg11.dtd">
<svg version="1.1" xmlns="http://www.w3.org/2000/svg" xmlns:xlink="http://www.w3.org/1999/xlink" viewBox="0 0 21.1094 25.498">
 <g>
  <rect height="25.498" opacity="0" width="21.1094" x="0" y="0"/>
  <path d="M2.39258 25.4844C3.10352 25.4844 3.5 25.1152 3.70508 24.4453L10.3086 3.47266L10.4316 3.47266L17.0625 24.459C17.2676 25.1562 17.6504 25.4844 18.375 25.4844C19.1133 25.4844 19.7148 25.0332 19.7148 24.2812C19.7148 24.1035 19.6602 23.8027 19.5781 23.5293L12.127 1.3125C11.8262 0.4375 11.2656 0 10.377 0C9.48828 0 8.92773 0.4375 8.62695 1.3125L1.17578 23.543C1.09375 23.8027 1.05273 24.0078 1.05273 24.2812C1.05273 25.0332 1.6543 25.4844 2.39258 25.4844ZM0 13.248C0 13.7402 0.396484 14.1367 0.888672 14.1367L19.8652 14.1367C20.3438 14.1367 20.7539 13.7402 20.7539 13.248C20.7539 12.7559 20.3438 12.3594 19.8652 12.3594L0.888672 12.3594C0.396484 12.3594 0 12.7559 0 13.248ZM0 18.1973C0 18.6895 0.396484 19.0996 0.888672 19.0996L19.8652 19.0996C20.3438 19.0996 20.7539 18.6895 20.7539 18.1973C20.7539 17.7188 20.3438 17.3086 19.8652 17.3086L0.888672 17.3086C0.396484 17.3086 0 17.7188 0 18.1973Z" fill="white" fill-opacity="0.85"/>
 </g>
</svg>
