<svg version="1.1" xmlns="http://www.w3.org/2000/svg" xmlns:xlink="http://www.w3.org/1999/xlink" viewBox="0 0 30.8848 29.1895">
 <g>
  
  <path d="M1.81836 27.5898L28.7109 27.5898L28.7109 25.9766C28.7109 25.4297 28.3965 25.1016 27.8359 25.1016L26.9609 25.1016L26.9609 9.37891L28.1641 9.37891C28.916 9.37891 29.3535 8.83203 29.3535 8.27148C29.3535 7.86133 29.1211 7.50586 28.6152 7.21875L16.9395 0.478516C16.3926 0.164062 15.8184 0 15.2578 0C14.6973 0 14.1094 0.164062 13.5898 0.478516L1.91406 7.21875C1.39453 7.50586 1.17578 7.86133 1.17578 8.27148C1.17578 8.83203 1.61328 9.37891 2.36523 9.37891L3.56836 9.37891L3.56836 25.1016L2.70703 25.1016C2.14648 25.1016 1.81836 25.4297 1.81836 25.9766ZM1.09375 29.1758L29.4219 29.1758C30.0234 29.1758 30.5293 28.6699 30.5293 28.0684C30.5293 27.4668 30.0234 26.9746 29.4219 26.9746L1.09375 26.9746C0.492188 26.9746 0 27.4668 0 28.0684C0 28.6699 0.492188 29.1758 1.09375 29.1758Z" style="fill:var(--color-0,hsl(0 0 0/0.85))"></path>
  <path d="M11.2109 22.1621C10.7598 22.1621 10.3906 21.8887 10.3906 21.4375C10.3906 21.3281 10.418 21.1914 10.459 21.041L11.1562 18.9355L10.2812 18.9355C10.0215 18.9355 9.81641 18.7168 9.81641 18.4707C9.81641 18.2109 10.0215 17.9922 10.2812 17.9922L11.4707 17.9922L11.9902 16.3789L10.2812 16.3789C10.0215 16.3789 9.81641 16.1738 9.81641 15.9141C9.81641 15.6543 10.0215 15.4492 10.2812 15.4492L12.291 15.4492L14.123 9.84375C14.3008 9.32422 14.6836 8.99609 15.2715 8.99609C15.873 8.99609 16.2012 9.29688 16.3926 9.84375L18.2383 15.4492L20.248 15.4492C20.5078 15.4492 20.7266 15.6543 20.7266 15.9141C20.7266 16.1738 20.5078 16.3789 20.248 16.3789L18.5391 16.3789L19.0723 17.9922L20.248 17.9922C20.5078 17.9922 20.7266 18.2109 20.7266 18.4707C20.7266 18.7168 20.5078 18.9355 20.248 18.9355L19.3867 18.9355L20.0566 20.9863C20.1113 21.1367 20.1387 21.3008 20.1387 21.4375C20.1387 21.916 19.7695 22.1621 19.332 22.1621C18.8672 22.1621 18.6348 21.9297 18.5254 21.5469L17.7324 18.9355L12.8105 18.9355L12.0039 21.5332C11.8809 21.957 11.6484 22.1621 11.2109 22.1621ZM13.0977 17.9922L17.4316 17.9922L16.9395 16.3789L13.5898 16.3789ZM13.877 15.4492L16.6523 15.4492L15.2988 11.0059L15.2305 11.0059Z" style="fill:var(--color-1,white)"></path>
 </g>
</svg>