<?xml version="1.0" encoding="UTF-8"?>
<!--Generator: Apple Native CoreSVG 326-->
<!DOCTYPE svg
PUBLIC "-//W3C//DTD SVG 1.1//EN"
       "http://www.w3.org/Graphics/SVG/1.1/DTD/svg11.dtd">
<svg version="1.1" xmlns="http://www.w3.org/2000/svg" xmlns:xlink="http://www.w3.org/1999/xlink" viewBox="0 0 33.291 27.4395">
 <g>
  <rect height="27.4395" opacity="0" width="33.291" x="0" y="0"/>
  <path d="M32.9355 16.4609C32.9355 12.4414 31.4863 8.73633 29.0664 5.86523C28.793 5.53711 28.3281 5.53711 28.0273 5.85156L24.8555 9.02344C24.5957 9.2832 24.582 9.65234 24.8145 9.93945C26.2227 11.7441 27.0703 14.0137 27.0703 16.4609C27.0703 18.9219 26.2227 21.1914 24.7324 23.0918C24.541 23.3242 24.5547 23.625 24.7598 23.8438L28.0137 27.0977C28.3281 27.4121 28.7793 27.4121 29.0664 27.0703C31.4863 24.1992 32.9355 20.4941 32.9355 16.4609Z" fill="white" fill-opacity="0.85"/>
  <path d="M16.4609 5.86523C18.9355 5.86523 21.2051 6.72656 23.0234 8.13477C23.2969 8.35352 23.6523 8.32617 23.9121 8.06641L27.084 4.89453C27.3984 4.58008 27.3848 4.12891 27.0566 3.85547C24.1992 1.44922 20.4941 0 16.4609 0C12.4414 0 8.73633 1.44922 5.87891 3.85547C5.55078 4.12891 5.53711 4.58008 5.85156 4.89453L9.02344 8.06641C9.2832 8.32617 9.65234 8.35352 9.95312 8.12109C11.7578 6.72656 14.0137 5.86523 16.4609 5.86523Z" fill="white" fill-opacity="0.85"/>
  <path d="M0 16.4609C0 20.4941 1.44922 24.1992 3.86914 27.0703C4.14258 27.4121 4.60742 27.4121 4.9082 27.0977L8.16211 23.8438C8.36719 23.625 8.39453 23.3242 8.20312 23.0918C6.71289 21.1914 5.86523 18.9219 5.86523 16.4609C5.86523 14.0137 6.69922 11.7441 8.12109 9.93945C8.33984 9.65234 8.33984 9.2832 8.08008 9.02344L4.9082 5.85156C4.59375 5.53711 4.14258 5.53711 3.86914 5.86523C1.44922 8.73633 0 12.4414 0 16.4609Z" fill="white" fill-opacity="0.85"/>
  <path d="M12.5234 22.9961C12.9336 22.9961 13.166 22.791 13.2754 22.3945L16.4199 12.1816L16.4746 12.1816L19.6191 22.4082C19.7148 22.7637 19.9336 22.9961 20.3848 22.9961C20.8086 22.9961 21.1641 22.75 21.1641 22.2988C21.1641 22.1484 21.1367 21.998 21.0957 21.8613L17.5273 11.0605C17.3633 10.5273 17.0352 10.2402 16.4473 10.2402C15.8867 10.2402 15.5176 10.541 15.3535 11.0605L11.7988 21.916C11.7441 22.0527 11.7168 22.1758 11.7168 22.2988C11.7168 22.7363 12.0723 22.9961 12.5234 22.9961ZM11.1699 16.9395C11.1699 17.1855 11.375 17.3906 11.6211 17.3906L21.2734 17.3906C21.5332 17.3906 21.7246 17.1855 21.7246 16.9395C21.7246 16.6934 21.5332 16.4883 21.2734 16.4883L11.6211 16.4883C11.375 16.4883 11.1699 16.6934 11.1699 16.9395ZM11.1699 19.4141C11.1699 19.6602 11.375 19.8652 11.6211 19.8652L21.2734 19.8652C21.5332 19.8652 21.7246 19.6602 21.7246 19.4141C21.7246 19.1543 21.5332 18.9629 21.2734 18.9629L11.6211 18.9629C11.375 18.9629 11.1699 19.1543 11.1699 19.4141Z" fill="white" fill-opacity="0.85"/>
 </g>
</svg>
