<svg version="1.1" xmlns="http://www.w3.org/2000/svg" xmlns:xlink="http://www.w3.org/1999/xlink" viewBox="0 0 33.291 27.3099">
 <g>
  
  <path d="M32.9355 16.3962C32.9355 7.78289 26.3184 0.714533 17.8965 0.00359537C17.459-0.0374203 17.1309 0.277033 17.1309 0.714533L17.1309 5.18524C17.1309 5.55438 17.3906 5.84149 17.7598 5.86883C22.9961 6.51141 27.0703 10.9821 27.0703 16.3962C27.0703 18.8571 26.2227 21.1266 24.7324 23.027C24.541 23.2595 24.5547 23.5602 24.7598 23.779L28.0273 27.0329C28.3281 27.3337 28.793 27.3337 29.0664 27.0055C31.4863 24.1345 32.9355 20.4294 32.9355 16.3962Z" style="fill:var(--color-0,hsl(0 0 0/0.85))"></path>
  <path d="M0 16.3962C0 20.443 1.44922 24.1481 3.86914 27.0192C4.14258 27.3473 4.59375 27.3337 4.9082 27.0329L8.17578 23.779C8.38086 23.5602 8.39453 23.2595 8.20312 23.027C6.69922 21.1266 5.86523 18.8571 5.86523 16.3962C5.86523 10.9821 9.93945 6.51141 15.1758 5.86883C15.5449 5.84149 15.8047 5.55438 15.8047 5.18524L15.8047 0.714533C15.8047 0.277033 15.4766-0.0374203 15.0391 0.00359537C6.61719 0.714533 0 7.78289 0 16.3962Z" style="fill:var(--color-1,hsl(0 0 0/0.85))"></path>
  <path d="M9.77539 21.8239C10.1445 21.8239 10.3906 21.6188 10.4863 21.2087L11.0605 18.9802L14.3145 18.9802L14.9023 21.2087C15.0117 21.6188 15.2305 21.8239 15.6543 21.8239C16.0098 21.8239 16.3379 21.6052 16.3379 21.1403C16.3379 21.0036 16.3242 20.8669 16.2695 20.6891L13.7949 12.0075C13.6172 11.4196 13.3027 11.1188 12.7012 11.1188C12.0996 11.1188 11.7578 11.447 11.5938 12.0212L9.13281 20.6891C9.0918 20.8395 9.06445 20.9899 9.06445 21.1403C9.06445 21.6052 9.39258 21.8239 9.77539 21.8239ZM11.3613 17.7907L12.6191 12.8962L12.7285 12.8962L14.0137 17.7907ZM20.3848 21.5095C22.1348 21.5095 23.4609 20.5934 23.4609 18.8434C23.4609 17.2985 22.5586 16.7106 21.2188 16.068L20.2754 15.6169C19.5234 15.2614 18.7852 14.7966 18.7852 13.9352C18.7852 13.0466 19.4824 12.5954 20.3574 12.5954C21.3145 12.5954 21.7246 13.1696 21.957 14.0856C22.0527 14.4138 22.2578 14.6188 22.5996 14.6188C23.0098 14.6188 23.2832 14.3727 23.2832 13.9626C23.2832 13.8259 23.2559 13.6481 23.2012 13.4567C22.8594 12.1442 21.8203 11.4333 20.3574 11.4333C18.6895 11.4333 17.3906 12.363 17.3906 14.0173C17.3906 15.4255 18.1836 16.1501 19.5645 16.7927L20.5078 17.2438C21.3555 17.6266 22.0664 18.0505 22.0664 18.9665C22.0664 19.8962 21.4102 20.3337 20.3848 20.3337C19.2637 20.3337 18.7988 19.6774 18.6211 18.8571C18.5117 18.4333 18.2793 18.2555 17.9512 18.2555C17.5684 18.2555 17.2676 18.5016 17.2676 18.9255C17.2676 19.0759 17.2812 19.2126 17.3223 19.3493C17.5684 20.6208 18.8125 21.5095 20.3848 21.5095ZM20.3711 22.863C20.5625 22.863 20.7266 22.6989 20.7266 22.5075L20.7266 10.4489C20.7266 10.2575 20.5625 10.0798 20.3711 10.0798C20.166 10.0798 20.002 10.2575 20.002 10.4489L20.002 22.5075C20.002 22.6989 20.166 22.863 20.3711 22.863Z" style="fill:var(--color-2,hsl(0 0 0/0.85))"></path>
 </g>
</svg>