<svg version="1.1" xmlns="http://www.w3.org/2000/svg" xmlns:xlink="http://www.w3.org/1999/xlink" viewBox="0 0 28.2461 27.9043">
 <g>
  
  <path d="M13.9453 27.8906C21.6426 27.8906 27.8906 21.6426 27.8906 13.9453C27.8906 6.24805 21.6426 0 13.9453 0C6.24805 0 0 6.24805 0 13.9453C0 21.6426 6.24805 27.8906 13.9453 27.8906ZM13.9453 25.5664C7.51953 25.5664 2.32422 20.3711 2.32422 13.9453C2.32422 7.51953 7.51953 2.32422 13.9453 2.32422C20.3711 2.32422 25.5664 7.51953 25.5664 13.9453C25.5664 20.3711 20.3711 25.5664 13.9453 25.5664Z" style="fill:var(--color-0,hsl(0 0 0/0.85))"></path>
  <path d="M9.9668 9.9668C7.875 12.0586 6.67188 15.1758 6.91797 17.8965C7.05469 19.6328 8.23047 20.7949 9.9668 20.9453C12.6875 21.2051 15.8184 20.002 17.9102 17.9102C20.002 15.8184 21.2051 12.6875 20.9453 9.9668C20.7949 8.23047 19.6328 7.05469 17.8965 6.91797C15.1758 6.67188 12.0586 7.875 9.9668 9.9668ZM15.3945 11.0195L16.8438 12.4551C16.9668 12.5918 16.9531 12.8105 16.8438 12.9473C16.707 13.0703 16.502 13.0703 16.3652 12.9336L15.8867 12.4551L15.3809 12.9473L15.873 13.4531C15.9824 13.5625 15.9961 13.7676 15.873 13.9043C15.7363 14.041 15.5312 14.0273 15.4082 13.8906L14.916 13.4121L14.4238 13.9043L14.9023 14.4102C15.0254 14.5195 15.0391 14.752 14.9023 14.8613C14.7793 15.0117 14.5742 14.9707 14.4512 14.8613L13.959 14.3965L13.4395 14.875L13.9453 15.3672C14.082 15.4902 14.082 15.709 13.9453 15.832C13.8086 15.9688 13.6035 15.9688 13.4668 15.8184L13.002 15.3535L12.4961 15.8457L12.9746 16.3379C13.1113 16.4609 13.0977 16.666 12.9746 16.8164C12.8379 16.9258 12.6465 16.9258 12.5098 16.8027L11.0605 15.3672C10.9375 15.2441 10.9375 15.0391 11.0605 14.8887C11.2109 14.7656 11.416 14.7656 11.5391 14.8887L12.0176 15.3809L12.5234 14.875L12.0312 14.4102C11.8945 14.2598 11.8945 14.0547 12.0312 13.9316C12.168 13.7812 12.373 13.7812 12.5098 13.918L12.9883 14.4102L13.4805 13.9043L13.002 13.4258C12.8789 13.2754 12.8516 13.084 13.002 12.9746C13.125 12.8242 13.3301 12.8242 13.4531 12.9609L13.9453 13.4531L14.4648 12.9473L13.959 12.4688C13.8359 12.332 13.8223 12.127 13.959 12.0039C14.1094 11.8672 14.2871 11.8672 14.4238 12.0039L14.916 12.4688L15.4219 11.9902L14.916 11.5117C14.8066 11.375 14.8066 11.1562 14.916 11.0195C15.0664 10.9102 15.2852 10.8965 15.3945 11.0195Z" style="fill:var(--color-1,hsl(0 0 0/0.85))"></path>
 </g>
</svg>