<?xml version="1.0" encoding="UTF-8"?>
<!--Generator: Apple Native CoreSVG 326-->
<!DOCTYPE svg
PUBLIC "-//W3C//DTD SVG 1.1//EN"
       "http://www.w3.org/Graphics/SVG/1.1/DTD/svg11.dtd">
<svg version="1.1" xmlns="http://www.w3.org/2000/svg" xmlns:xlink="http://www.w3.org/1999/xlink" viewBox="0 0 33.5408 27.9043">
 <g>
  <rect height="27.9043" opacity="0" width="33.5408" x="0" y="0"/>
  <path d="M16.5995 27.8906C24.2968 27.8906 30.5448 21.6426 30.5448 13.9453C30.5448 6.24805 24.2968 0 16.5995 0C8.90224 0 2.65419 6.24805 2.65419 13.9453L4.97841 13.9453C4.97841 7.51953 10.1737 2.32422 16.5995 2.32422C23.0253 2.32422 28.2206 7.51953 28.2206 13.9453C28.2206 20.3711 23.0253 25.5664 16.5995 25.5664C12.7167 25.5664 9.2577 23.6523 7.19325 20.7539C6.76942 20.1934 6.12684 20.0156 5.55263 20.3574C5.00575 20.6992 4.84169 21.4648 5.30653 22.0664C7.83583 25.6074 11.9784 27.8906 16.5995 27.8906ZM0.972548 11.3066C-0.0118272 11.3066-0.257921 11.9766 0.275282 12.7422L3.33778 17.0898C3.78895 17.7188 4.4452 17.7051 4.8827 17.0898L7.93153 12.7285C8.46474 11.9766 8.20497 11.3066 7.24794 11.3066Z" fill="white" fill-opacity="0.85"/>
  <path d="M12.662 20.3027C13.0858 20.3027 13.3046 20.0977 13.4276 19.6875L16.5722 9.47461L16.6268 9.47461L19.7577 19.7012C19.8671 20.0703 20.0858 20.3027 20.537 20.3027C20.9608 20.3027 21.3163 20.0566 21.3163 19.5918C21.3163 19.4551 21.289 19.3047 21.2343 19.168L17.6796 8.35352C17.5018 7.82031 17.1737 7.54688 16.5995 7.54688C16.0253 7.54688 15.6561 7.84766 15.4921 8.35352L11.9374 19.209C11.8964 19.3594 11.869 19.4824 11.869 19.5918C11.869 20.043 12.2245 20.3027 12.662 20.3027ZM11.3085 14.2461C11.3085 14.4922 11.5136 14.6973 11.7597 14.6973L21.4257 14.6973C21.6718 14.6973 21.8768 14.4922 21.8768 14.2461C21.8768 13.9863 21.6718 13.7812 21.4257 13.7812L11.7597 13.7812C11.5136 13.7812 11.3085 13.9863 11.3085 14.2461ZM11.3085 16.707C11.3085 16.9531 11.5136 17.1582 11.7597 17.1582L21.4257 17.1582C21.6718 17.1582 21.8768 16.9531 21.8768 16.707C21.8768 16.4609 21.6718 16.2559 21.4257 16.2559L11.7597 16.2559C11.5136 16.2559 11.3085 16.4609 11.3085 16.707Z" fill="white" fill-opacity="0.85"/>
 </g>
</svg>
