<svg version="1.1" xmlns="http://www.w3.org/2000/svg" xmlns:xlink="http://www.w3.org/1999/xlink" viewBox="0 0 40.1133 27.6309">
 <g>
  
  <path d="M13.8359 22.0664C13.9624 22.5038 14.1068 22.9123 14.2722 23.2885L3.44531 26.1816C2.65234 26.4004 2.06445 25.9355 2.06445 25.1973C2.06445 24.6504 2.40625 24.2266 2.98047 24.0762L13.6199 21.2341ZM13.1386 18.7206L3.44531 21.3008C2.63867 21.5195 2.06445 21.0547 2.06445 20.3164C2.06445 19.7832 2.40625 19.3457 2.98047 19.1953L12.9143 16.5417C12.96 17.2646 13.0326 17.9911 13.1386 18.7206ZM12.8242 13.8086L12.8253 13.9078L3.44531 16.4336C2.66602 16.6387 2.06445 16.1738 2.06445 15.4492C2.06445 14.9023 2.40625 14.4785 2.98047 14.3145L12.8775 11.6608C12.8394 12.3807 12.8242 13.0965 12.8242 13.8086ZM13.1303 8.95482L3.44531 11.5527C2.63867 11.7578 2.06445 11.293 2.06445 10.5684C2.06445 10.0215 2.40625 9.59766 2.98047 9.44727L13.5552 6.62244C13.3731 7.4044 13.233 8.18199 13.1303 8.95482Z" style="fill:var(--color-0,#28cd41)"></path>
  <path d="M37.6934 13.8086C37.6934 19.9473 30.5977 25.1836 22.5996 25.1836L21.8203 25.1836C18.5391 25.1836 16.9941 24.1855 16.1738 21.3965C15.4492 18.8809 15.2715 16.3789 15.2715 13.8086C15.2715 11.252 15.4492 8.75 16.1738 6.2207C17.0078 3.43164 18.5527 2.43359 21.8203 2.43359L22.5996 2.43359C30.5977 2.43359 37.6934 7.68359 37.6934 13.8086ZM23.9395 7.99805L20.3984 17.5684C20.2891 17.8418 20.248 18.0332 20.248 18.2246C20.248 18.7715 20.6172 19.127 21.2051 19.127C21.6699 19.127 21.998 18.8945 22.1895 18.3066L23.1191 15.6133L27.6445 15.6133L28.5605 18.3066C28.752 18.8945 29.0801 19.127 29.5449 19.127C30.1191 19.127 30.502 18.7715 30.502 18.2246C30.502 18.0332 30.4609 17.8418 30.3652 17.5684L26.8105 7.99805C26.5645 7.32812 26.0586 6.98633 25.3613 6.98633C24.6641 6.98633 24.1992 7.32812 23.9395 7.99805ZM27.125 14.0684L23.625 14.0684L25.3203 9.1875L25.4434 9.1875Z" style="fill:var(--color-1,#28cd41)"></path>
 </g>
</svg>