<?xml version="1.0" encoding="UTF-8"?>
<!--Generator: Apple Native CoreSVG 326-->
<!DOCTYPE svg
PUBLIC "-//W3C//DTD SVG 1.1//EN"
       "http://www.w3.org/Graphics/SVG/1.1/DTD/svg11.dtd">
<svg version="1.1" xmlns="http://www.w3.org/2000/svg" xmlns:xlink="http://www.w3.org/1999/xlink" viewBox="0 0 30.7412 30.3893">
 <g>
  <rect height="30.3893" opacity="0" width="30.7412" x="0" y="0"/>
  <path d="M25.136 28.904L19.9097 29.639C19.1304 29.7484 18.6655 29.2835 18.8296 28.5179L19.8364 23.6015ZM5.31851 9.0757C4.20691 10.8448 3.57178 12.9411 3.57178 15.1878C3.57178 19.0843 5.49951 22.5159 8.39795 24.5941C8.9585 25.0042 9.12256 25.6605 8.78076 26.221C8.45264 26.7816 7.67334 26.9456 7.07178 26.4808C3.48975 23.9105 1.24756 19.7952 1.24756 15.1878C1.24756 12.2998 2.12716 9.61572 3.63304 7.38931ZM29.1382 15.1878C29.1382 18.0571 28.258 20.7568 26.7347 22.9957L25.0626 21.3227C26.1733 19.5512 26.814 17.4502 26.814 15.1878C26.814 8.76204 21.6187 3.56673 15.1929 3.56673C12.9413 3.56673 10.8407 4.20461 9.06916 5.3205L7.38476 3.63517C9.61278 2.12473 12.3005 1.24251 15.1929 1.24251C22.8901 1.24251 29.1382 7.49055 29.1382 15.1878Z" fill="#32d74b"/>
  <path d="M13.2447 17.0062L12.7593 17.0062L11.7476 19.9183C11.5425 20.5472 11.2007 20.7933 10.7085 20.7933C10.0933 20.7933 9.69678 20.4105 9.69678 19.8363C9.69678 19.6312 9.73779 19.4398 9.8335 19.139L11.3375 15.098ZM16.7241 8.81673L19.1788 15.4357L16.037 12.2922L15.2749 10.0745L15.1245 10.0745L14.7909 11.0453L13.3736 9.62729L13.6753 8.81673C13.9351 8.10579 14.4546 7.73665 15.1792 7.73665C15.9312 7.73665 16.4507 8.10579 16.7241 8.81673Z" fill="#32d74b"/>
  <path d="M26.9917 28.4906C27.4019 28.9007 28.0854 28.887 28.4819 28.4769C28.8921 28.0667 28.8921 27.3968 28.4819 26.9866L3.40771 1.91243C2.99756 1.50227 2.31396 1.4886 1.90381 1.91243C1.49365 2.30891 1.49365 2.99251 1.90381 3.40266Z" fill="#32d74b"/>
 </g>
</svg>
