<?xml version="1.0" encoding="UTF-8"?>
<!--Generator: Apple Native CoreSVG 326-->
<!DOCTYPE svg
PUBLIC "-//W3C//DTD SVG 1.1//EN"
       "http://www.w3.org/Graphics/SVG/1.1/DTD/svg11.dtd">
<svg version="1.1" xmlns="http://www.w3.org/2000/svg" xmlns:xlink="http://www.w3.org/1999/xlink" viewBox="0 0 15.9688 32.0332">
 <g>
  <rect height="32.0332" opacity="0" width="15.9688" x="0" y="0"/>
  <path d="M3.56836 32.0332L12.0449 32.0332C14.2324 32.0332 15.6133 30.6934 15.6133 28.6289L15.6133 3.39062C15.6133 1.32617 14.2324 0 12.0449 0L3.56836 0C1.38086 0 0 1.32617 0 3.39062L0 28.6289C0 30.6934 1.38086 32.0332 3.56836 32.0332ZM3.80078 30.0371C2.70703 30.0371 2.02344 29.3809 2.02344 28.3418L2.02344 3.69141C2.02344 2.65234 2.70703 1.99609 3.80078 1.99609L11.8125 1.99609C12.9062 1.99609 13.5898 2.65234 13.5898 3.69141L13.5898 28.3418C13.5898 29.3809 12.9062 30.0371 11.8125 30.0371ZM8.64062 5.25L11.5527 5.25C12.0312 5.25 12.4141 4.88086 12.4141 4.40234C12.4141 3.91016 12.0312 3.54102 11.5527 3.54102L8.64062 3.54102C8.16211 3.54102 7.7793 3.91016 7.7793 4.40234C7.7793 4.88086 8.16211 5.25 8.64062 5.25ZM4.4707 10.3359C5.20898 10.3359 5.79688 9.76172 5.79688 9.00977C5.79688 8.28516 5.20898 7.68359 4.4707 7.68359C3.73242 7.68359 3.14453 8.28516 3.14453 9.00977C3.14453 9.76172 3.73242 10.3359 4.4707 10.3359ZM7.80664 10.3359C8.54492 10.3359 9.13281 9.76172 9.13281 9.00977C9.13281 8.28516 8.54492 7.68359 7.80664 7.68359C7.06836 7.68359 6.48047 8.28516 6.48047 9.00977C6.48047 9.76172 7.06836 10.3359 7.80664 10.3359ZM11.1562 10.3359C11.8945 10.3359 12.4824 9.76172 12.4824 9.00977C12.4824 8.28516 11.8945 7.68359 11.1562 7.68359C10.418 7.68359 9.83008 8.28516 9.83008 9.00977C9.83008 9.76172 10.418 10.3359 11.1562 10.3359ZM4.4707 14.1641C5.20898 14.1641 5.79688 13.5762 5.79688 12.8379C5.79688 12.1133 5.20898 11.5117 4.4707 11.5117C3.73242 11.5117 3.14453 12.1133 3.14453 12.8379C3.14453 13.5762 3.73242 14.1641 4.4707 14.1641ZM7.80664 14.1641C8.54492 14.1641 9.13281 13.5762 9.13281 12.8379C9.13281 12.1133 8.54492 11.5117 7.80664 11.5117C7.06836 11.5117 6.48047 12.1133 6.48047 12.8379C6.48047 13.5762 7.06836 14.1641 7.80664 14.1641ZM11.1562 14.1641C11.8945 14.1641 12.4824 13.5762 12.4824 12.8379C12.4824 12.1133 11.8945 11.5117 11.1562 11.5117C10.418 11.5117 9.83008 12.1133 9.83008 12.8379C9.83008 13.5762 10.418 14.1641 11.1562 14.1641ZM4.4707 17.9785C5.20898 17.9785 5.79688 17.4043 5.79688 16.6523C5.79688 15.9277 5.20898 15.3262 4.4707 15.3262C3.73242 15.3262 3.14453 15.9277 3.14453 16.6523C3.14453 17.4043 3.73242 17.9785 4.4707 17.9785ZM7.80664 17.9785C8.54492 17.9785 9.13281 17.377 9.13281 16.6523C9.13281 15.9141 8.54492 15.3262 7.80664 15.3262C7.06836 15.3262 6.48047 15.9141 6.48047 16.6523C6.48047 17.377 7.06836 17.9785 7.80664 17.9785ZM11.1562 17.9785C11.8945 17.9785 12.4824 17.377 12.4824 16.6523C12.4824 15.9141 11.8945 15.3262 11.1562 15.3262C10.418 15.3262 9.83008 15.9141 9.83008 16.6523C9.83008 17.377 10.418 17.9785 11.1562 17.9785ZM4.16992 27.0566C4.74414 27.0566 5.19531 26.5918 5.19531 26.0312L5.19531 21.1914C5.19531 20.6172 4.74414 20.166 4.16992 20.166C3.60938 20.166 3.14453 20.6172 3.14453 21.1914L3.14453 26.0312C3.14453 26.5918 3.60938 27.0566 4.16992 27.0566ZM7.13672 23.0918L8.46289 23.0918C8.92773 23.0918 9.1875 22.8184 9.1875 22.3809L9.1875 21.4922C9.1875 21.041 8.92773 20.7676 8.46289 20.7676L7.13672 20.7676C6.69922 20.7676 6.42578 21.041 6.42578 21.4922L6.42578 22.3809C6.42578 22.8184 6.69922 23.0918 7.13672 23.0918ZM7.13672 26.4414L8.46289 26.4414C8.92773 26.4414 9.1875 26.1816 9.1875 25.7305L9.1875 24.8418C9.1875 24.3906 8.92773 24.1309 8.46289 24.1309L7.13672 24.1309C6.69922 24.1309 6.42578 24.3906 6.42578 24.8418L6.42578 25.7305C6.42578 26.1816 6.69922 26.4414 7.13672 26.4414ZM11.457 27.0566C12.0176 27.0566 12.4824 26.5918 12.4824 26.0312L12.4824 21.1914C12.4824 20.6172 12.0176 20.166 11.457 20.166C10.8828 20.166 10.4316 20.6172 10.4316 21.1914L10.4316 26.0312C10.4316 26.5918 10.8828 27.0566 11.457 27.0566Z" fill="white" fill-opacity="0.85"/>
 </g>
</svg>
