<svg version="1.1" xmlns="http://www.w3.org/2000/svg" xmlns:xlink="http://www.w3.org/1999/xlink" viewBox="0 0 25.1828 29.4339">
 <g>
  
  <path d="M1.25741 9.10462L2.2828 9.47376C3.34921 9.87025 4.34725 9.37806 4.74374 8.28431L6.67147 2.9933C7.06796 1.89955 6.61678 0.901498 5.55038 0.505014L4.52499 0.135873C3.45858-0.260611 2.47421 0.231576 2.06405 1.339L0.149988 6.61634C-0.260168 7.71009 0.191004 8.70814 1.25741 9.10462ZM19.2633 9.10462L20.3023 9.47376C21.3687 9.87025 22.3531 9.37806 22.7496 8.28431L24.6773 2.9933C25.0875 1.89955 24.6226 0.901498 23.5699 0.505014L22.5308 0.135873C21.4644-0.260611 20.4937 0.231576 20.0836 1.339L18.1558 6.61634C17.7594 7.71009 18.2105 8.72181 19.2633 9.10462ZM2.85702 29.38L3.95077 29.38C5.08553 29.38 5.85116 28.587 5.85116 27.4249L5.85116 21.8058C5.85116 20.63 5.08553 19.837 3.95077 19.837L2.85702 19.837C1.73593 19.837 0.970301 20.63 0.970301 21.8058L0.970301 27.4249C0.970301 28.587 1.73593 29.38 2.85702 29.38ZM20.8629 29.38L21.9566 29.38C23.0914 29.38 23.857 28.587 23.857 27.4249L23.857 21.8058C23.857 20.63 23.0914 19.837 21.9566 19.837L20.8629 19.837C19.7418 19.837 18.9762 20.63 18.9762 21.8058L18.9762 27.4249C18.9762 28.587 19.7418 29.38 20.8629 29.38ZM4.77108 5.9054L20.0699 5.9054L20.0699 3.70423L4.77108 3.70423ZM11.3062 3.70423L11.3062 20.63C11.443 20.7257 11.566 20.8077 11.6891 20.9308L12.3453 21.5734L13.1109 20.7941C13.234 20.6574 13.3707 20.5617 13.5074 20.4796L13.5074 3.70423ZM4.77108 25.716L8.27108 25.716C8.33944 25.5792 8.44882 25.4562 8.55819 25.3468L9.35116 24.5675L8.69491 23.9113C8.58553 23.7882 8.47616 23.6515 8.39413 23.5148L4.77108 23.5148ZM20.0699 25.716L20.0699 23.5148L16.4879 23.5148C16.4195 23.6378 16.3101 23.7745 16.2008 23.8839L15.4215 24.6495L16.0641 25.3195C16.1734 25.4425 16.2828 25.5656 16.3648 25.716Z" style="fill:var(--color-0,hsl(0 0 0/0.85))"></path>
  <path d="M9.40585 27.589C9.7203 27.9035 10.2262 27.9718 10.568 27.63L12.4273 25.7843L14.1637 27.507C14.4781 27.8077 14.9703 27.7941 15.2848 27.507C15.5855 27.2199 15.5855 26.7003 15.2848 26.3995L13.5484 24.6495L15.4078 22.8038C15.7496 22.462 15.6812 21.9562 15.3668 21.6281C15.0387 21.3136 14.5328 21.2452 14.191 21.587L12.3453 23.4327L10.5953 21.7101C10.2808 21.4093 9.78866 21.423 9.47421 21.7101C9.17343 21.9972 9.17343 22.5031 9.47421 22.8312L11.2105 24.5675L9.36483 26.4132C9.02303 26.7687 9.07772 27.2745 9.40585 27.589Z" style="fill:var(--color-1,hsl(0 0 0/0.85))"></path>
 </g>
</svg>