<?xml version="1.0" encoding="UTF-8"?>
<!--Generator: Apple Native CoreSVG 326-->
<!DOCTYPE svg
PUBLIC "-//W3C//DTD SVG 1.1//EN"
       "http://www.w3.org/Graphics/SVG/1.1/DTD/svg11.dtd">
<svg version="1.1" xmlns="http://www.w3.org/2000/svg" xmlns:xlink="http://www.w3.org/1999/xlink" viewBox="0 0 25.1828 29.4339">
 <g>
  <rect height="29.4339" opacity="0" width="25.1828" x="0" y="0"/>
  <path d="M1.25741 9.10462L2.2828 9.47376C3.34921 9.87025 4.34725 9.37806 4.74374 8.28431L6.67147 2.9933C7.06796 1.89955 6.61678 0.901498 5.55038 0.505014L4.52499 0.135873C3.45858-0.260611 2.47421 0.231576 2.06405 1.339L0.149988 6.61634C-0.260168 7.71009 0.191004 8.70814 1.25741 9.10462ZM19.2633 9.10462L20.3023 9.47376C21.3687 9.87025 22.3531 9.37806 22.7496 8.28431L24.6773 2.9933C25.0875 1.89955 24.6226 0.901498 23.5699 0.505014L22.5308 0.135873C21.4644-0.260611 20.4937 0.231576 20.0836 1.339L18.1558 6.61634C17.7594 7.71009 18.2105 8.72181 19.2633 9.10462ZM2.85702 29.38L3.95077 29.38C5.08553 29.38 5.85116 28.587 5.85116 27.4249L5.85116 21.8058C5.85116 20.63 5.08553 19.837 3.95077 19.837L2.85702 19.837C1.73593 19.837 0.970301 20.63 0.970301 21.8058L0.970301 27.4249C0.970301 28.587 1.73593 29.38 2.85702 29.38ZM20.8629 29.38L21.9566 29.38C23.0914 29.38 23.857 28.587 23.857 27.4249L23.857 21.8058C23.857 20.63 23.0914 19.837 21.9566 19.837L20.8629 19.837C19.7418 19.837 18.9762 20.63 18.9762 21.8058L18.9762 27.4249C18.9762 28.587 19.7418 29.38 20.8629 29.38ZM4.77108 5.9054L20.0699 5.9054L20.0699 3.70423L4.77108 3.70423ZM11.2789 3.70423L11.2789 10.7179C11.4293 10.8136 11.5523 10.9093 11.6891 11.0324L12.3453 11.6749L13.1109 10.8956C13.2203 10.7726 13.357 10.6769 13.4801 10.5949L13.4801 3.70423ZM11.2789 25.716L13.4801 25.716L13.4801 18.7023C13.3433 18.6066 13.2066 18.4972 13.0699 18.3878L12.4273 17.7452L11.6617 18.5245C11.5523 18.6339 11.4156 18.7433 11.2789 18.8253ZM4.77108 25.716L20.0699 25.716L20.0699 23.5148L4.77108 23.5148Z" fill="white" fill-opacity="0.85"/>
  <path d="M9.40585 17.6906C9.7203 18.005 10.2262 18.0734 10.568 17.7316L12.4273 15.8859L14.1637 17.6085C14.4781 17.9093 14.9703 17.8956 15.2848 17.6085C15.5855 17.3214 15.5855 16.8019 15.2848 16.4874L13.5484 14.7511L15.4078 12.9054C15.7496 12.5636 15.6812 12.0577 15.3668 11.7296C15.0387 11.4015 14.5328 11.3468 14.191 11.6886L12.3453 13.5343L10.5953 11.8117C10.2808 11.5109 9.78866 11.5109 9.47421 11.8117C9.17343 12.0988 9.17343 12.6046 9.47421 12.9191L11.2105 14.6691L9.36483 16.5148C9.02303 16.8566 9.07772 17.3624 9.40585 17.6906Z" fill="white" fill-opacity="0.85"/>
 </g>
</svg>
