<svg version="1.1" xmlns="http://www.w3.org/2000/svg" xmlns:xlink="http://www.w3.org/1999/xlink" viewBox="0 0 25.1828 29.4339">
 <g>
  
  <path d="M1.25741 9.10462L2.2828 9.47376C3.36288 9.87025 4.34725 9.37806 4.74374 8.28431L6.67147 2.9933C7.06796 1.89955 6.61678 0.901498 5.55038 0.505014L4.52499 0.135873C3.45858-0.260611 2.47421 0.231576 2.06405 1.339L0.149988 6.61634C-0.260168 7.71009 0.191004 8.70814 1.25741 9.10462ZM19.2633 9.10462L20.2887 9.47376C21.3687 9.87025 22.3531 9.37806 22.7496 8.28431L24.6773 2.9933C25.0875 1.89955 24.6226 0.901498 23.5562 0.505014L22.5308 0.135873C21.4644-0.260611 20.4937 0.231576 20.0836 1.339L18.1558 6.61634C17.7594 7.71009 18.2105 8.72181 19.2633 9.10462ZM4.77108 5.9054L20.0699 5.9054L20.0699 3.70423L4.77108 3.70423ZM11.2789 18.2238C11.6207 18.1281 11.9898 18.0734 12.3863 18.0734C12.7828 18.0734 13.1383 18.1281 13.4801 18.2238L13.4801 3.70423L11.2789 3.70423ZM2.85702 29.38L3.95077 29.38C5.08553 29.38 5.85116 28.587 5.85116 27.4249L5.85116 21.8058C5.85116 20.63 5.08553 19.837 3.95077 19.837L2.85702 19.837C1.72225 19.837 0.970301 20.63 0.970301 21.8058L0.970301 27.4249C0.970301 28.587 1.72225 29.38 2.85702 29.38ZM20.8629 29.38L21.9566 29.38C23.0914 29.38 23.857 28.587 23.857 27.4249L23.857 21.8058C23.857 20.63 23.0914 19.837 21.9566 19.837L20.8629 19.837C19.7418 19.837 18.9762 20.63 18.9762 21.8058L18.9762 27.4249C18.9762 28.587 19.7418 29.38 20.8629 29.38ZM4.77108 25.716L7.6285 25.716L7.6285 24.5402C7.6285 24.1574 7.68319 23.8156 7.81991 23.5148L4.77108 23.5148ZM17.1305 25.716L20.0699 25.716L20.0699 23.5148L16.9527 23.5148C17.0758 23.8156 17.1305 24.1574 17.1305 24.5402Z" style="fill:var(--color-0,hsl(0 0 0/0.85))"></path>
  <path d="M10.1578 29.3117L14.6012 29.3117C15.4351 29.3117 15.8726 28.8605 15.8726 27.9581L15.8726 24.5812C15.8726 23.8566 15.5855 23.4327 15.025 23.296L15.025 22.2843C15.025 20.5206 13.9996 19.4132 12.3863 19.4132C10.7867 19.4132 9.73397 20.5206 9.73397 22.2843L9.73397 23.296C9.17343 23.4327 8.88632 23.8429 8.88632 24.5812L8.88632 27.9581C8.88632 28.8605 9.33749 29.3117 10.1578 29.3117ZM10.8414 23.2413L10.8414 22.1202C10.8414 21.1359 11.4293 20.507 12.3863 20.507C13.316 20.507 13.9312 21.1359 13.9312 22.1202L13.9312 23.2413Z" style="fill:var(--color-1,hsl(0 0 0/0.85))"></path>
 </g>
</svg>