<?xml version="1.0" encoding="UTF-8"?>
<!--Generator: Apple Native CoreSVG 326-->
<!DOCTYPE svg
PUBLIC "-//W3C//DTD SVG 1.1//EN"
       "http://www.w3.org/Graphics/SVG/1.1/DTD/svg11.dtd">
<svg version="1.1" xmlns="http://www.w3.org/2000/svg" xmlns:xlink="http://www.w3.org/1999/xlink" viewBox="0 0 25.1828 29.4339">
 <g>
  <rect height="29.4339" opacity="0" width="25.1828" x="0" y="0"/>
  <path d="M5.85116 21.8058L5.85116 23.5148L9.03277 23.5148C8.91922 23.8618 8.85897 24.2341 8.85897 24.6222C8.85897 25.0056 8.91778 25.3731 9.02831 25.716L5.85116 25.716L5.85116 27.4249C5.85116 28.587 5.08553 29.38 3.95077 29.38L2.85702 29.38C1.73593 29.38 0.970301 28.587 0.970301 27.4249L0.970301 21.8058C0.970301 20.63 1.73593 19.837 2.85702 19.837L3.95077 19.837C5.08553 19.837 5.85116 20.63 5.85116 21.8058ZM23.857 21.8058L23.857 27.4249C23.857 28.587 23.0914 29.38 21.9566 29.38L20.8629 29.38C19.7418 29.38 18.9762 28.587 18.9762 27.4249L18.9762 25.716L15.7731 25.716C15.8827 25.3731 15.941 25.0056 15.941 24.6222C15.941 24.2341 15.8813 23.8618 15.7687 23.5148L18.9762 23.5148L18.9762 21.8058C18.9762 20.63 19.7418 19.837 20.8629 19.837L21.9566 19.837C23.0914 19.837 23.857 20.63 23.857 21.8058ZM22.5308 0.135873L23.5699 0.505014C24.6226 0.901498 25.0875 1.89955 24.6773 2.9933L22.7496 8.28431C22.3531 9.37806 21.3687 9.87025 20.3023 9.47376L19.2633 9.10462C18.2105 8.72181 17.7594 7.71009 18.1558 6.61634L18.4155 5.9054L13.5074 5.9054L13.5074 21.2392C13.1645 21.1271 12.7969 21.0675 12.4137 21.0675C12.0256 21.0675 11.6533 21.1278 11.3062 21.2413L11.3062 5.9054L5.61047 5.9054L4.74374 8.28431C4.34725 9.37806 3.34921 9.87025 2.2828 9.47376L1.25741 9.10462C0.191004 8.70814-0.260168 7.71009 0.149988 6.61634L2.06405 1.339C2.47421 0.231576 3.45858-0.260611 4.52499 0.135873L5.55038 0.505014C6.61678 0.901498 7.06796 1.89955 6.67147 2.9933L6.41245 3.70423L19.2196 3.70423L20.0836 1.339C20.4937 0.231576 21.4644-0.260611 22.5308 0.135873Z" fill="white" fill-opacity="0.85"/>
  <path d="M12.4137 28.1632C14.3824 28.1632 15.941 26.6046 15.941 24.6222C15.941 22.6398 14.3824 21.0675 12.4137 21.0675C10.4312 21.0675 8.85897 22.6398 8.85897 24.6222C8.85897 26.6046 10.4312 28.1632 12.4137 28.1632ZM12.4137 26.3722C11.4293 26.3722 10.65 25.5929 10.65 24.6222C10.65 23.6378 11.4293 22.8722 12.4137 22.8722C13.3844 22.8722 14.15 23.6378 14.15 24.6222C14.15 25.5929 13.3844 26.3722 12.4137 26.3722Z" fill="white" fill-opacity="0.85"/>
 </g>
</svg>
