<?xml version="1.0" encoding="UTF-8"?>
<!--Generator: Apple Native CoreSVG 326-->
<!DOCTYPE svg
PUBLIC "-//W3C//DTD SVG 1.1//EN"
       "http://www.w3.org/Graphics/SVG/1.1/DTD/svg11.dtd">
<svg version="1.1" xmlns="http://www.w3.org/2000/svg" xmlns:xlink="http://www.w3.org/1999/xlink" viewBox="0 0 25.5254 25.1699">
 <g>
  <rect height="25.1699" opacity="0" width="25.5254" x="0" y="0"/>
  <path d="M4.29297 25.1699L20.877 25.1699C23.748 25.1699 25.1699 23.7617 25.1699 20.9453L25.1699 4.23828C25.1699 1.42188 23.748 0 20.877 0L4.29297 0C1.43555 0 0 1.42188 0 4.23828L0 20.9453C0 23.7617 1.43555 25.1699 4.29297 25.1699ZM4.32031 22.9688C2.95312 22.9688 2.20117 22.2441 2.20117 20.8223L2.20117 4.36133C2.20117 2.93945 2.95312 2.20117 4.32031 2.20117L20.8496 2.20117C22.2031 2.20117 22.9688 2.93945 22.9688 4.36133L22.9688 20.8223C22.9688 22.2441 22.2031 22.9688 20.8496 22.9688Z" fill="white" fill-opacity="0.85"/>
  <path d="M9.32422 18.7031L13.3164 18.7031C16.1465 18.7031 17.9648 17.3359 17.9648 15.1895C17.9648 13.5215 16.8438 12.3457 15.0254 12.127L15.0254 12.0449C16.3789 11.7168 17.2129 10.6504 17.2129 9.2832C17.2129 7.41016 15.6953 6.19336 13.3438 6.19336L9.32422 6.19336C8.57227 6.19336 8.12109 6.64453 8.12109 7.42383L8.12109 17.4863C8.12109 18.2383 8.57227 18.7031 9.32422 18.7031ZM10.2266 11.5117L10.2266 7.80664L12.9062 7.80664C14.2871 7.80664 15.1211 8.50391 15.1211 9.625C15.1211 10.8281 14.123 11.5117 12.291 11.5117ZM10.2266 17.0898L10.2266 13.0156L13.1387 13.0156C14.8066 13.0156 15.7773 13.7812 15.7773 15.0938C15.7773 16.4609 14.7246 17.0898 12.4551 17.0898Z" fill="white" fill-opacity="0.85"/>
 </g>
</svg>
