<svg version="1.1" xmlns="http://www.w3.org/2000/svg" xmlns:xlink="http://www.w3.org/1999/xlink" viewBox="0 0 28.2461 27.9043">
 <g>
  
  <path d="M13.9453 27.8906C21.6426 27.8906 27.8906 21.6289 27.8906 13.9453C27.8906 6.24805 21.6426 0 13.9453 0C6.26172 0 0 6.24805 0 13.9453C0 21.6289 6.26172 27.8906 13.9453 27.8906Z" style="fill:var(--color-0,hsl(0 0 0/0.85))"></path>
  <path d="M10.582 20.2617C9.78906 20.2617 9.31055 19.7832 9.31055 19.0039L9.31055 8.64062C9.31055 7.83398 9.78906 7.36914 10.582 7.36914L14.7246 7.36914C17.1445 7.36914 18.7168 8.61328 18.7168 10.5547C18.7168 11.9629 17.8555 13.0566 16.4609 13.3984L16.4609 13.4805C18.334 13.7129 19.4961 14.916 19.4961 16.6387C19.4961 18.8535 17.6094 20.2617 14.6973 20.2617ZM11.5117 12.8516L13.6309 12.8516C15.5176 12.8516 16.543 12.1406 16.543 10.9102C16.543 9.74805 15.6953 9.03711 14.2734 9.03711L11.5117 9.03711ZM11.5117 18.5938L13.7949 18.5938C16.1465 18.5938 17.2266 17.9512 17.2266 16.543C17.2266 15.1895 16.2285 14.4102 14.5059 14.4102L11.5117 14.4102Z" style="fill:var(--color-1,white)"></path>
 </g>
</svg>