<svg version="1.1" xmlns="http://www.w3.org/2000/svg" xmlns:xlink="http://www.w3.org/1999/xlink" viewBox="0 0 25.5254 25.1699">
 <g>
  
  <path d="M4.29297 25.1699L20.877 25.1699C23.748 25.1699 25.1699 23.7617 25.1699 20.9453L25.1699 4.23828C25.1699 1.42188 23.748 0 20.877 0L4.29297 0C1.43555 0 0 1.42188 0 4.23828L0 20.9453C0 23.7617 1.43555 25.1699 4.29297 25.1699Z" style="fill:var(--color-0,hsl(0 0 0/0.85))"></path>
  <path d="M9.22852 18.8945C8.44922 18.8945 7.9707 18.416 7.9707 17.6367L7.9707 7.27344C7.9707 6.4668 8.44922 6.00195 9.22852 6.00195L13.3711 6.00195C15.791 6.00195 17.3633 7.24609 17.3633 9.1875C17.3633 10.5957 16.502 11.6895 15.1074 12.0312L15.1074 12.1133C16.9805 12.3457 18.1426 13.5488 18.1426 15.2715C18.1426 17.4863 16.2559 18.8945 13.3438 18.8945ZM10.1582 11.4844L12.2773 11.4844C14.1641 11.4844 15.1895 10.7734 15.1895 9.54297C15.1895 8.38086 14.3418 7.66992 12.9199 7.66992L10.1582 7.66992ZM10.1582 17.2266L12.4414 17.2266C14.793 17.2266 15.873 16.584 15.873 15.1758C15.873 13.8223 14.875 13.043 13.1523 13.043L10.1582 13.043Z" style="fill:var(--color-1,white)"></path>
 </g>
</svg>