<svg version="1.1" xmlns="http://www.w3.org/2000/svg" xmlns:xlink="http://www.w3.org/1999/xlink" viewBox="0 0 25.6484 20.9043">
 <g>
  
  <path d="M25.293 18.9902L25.293 1.88672C25.293 0.601562 24.541 0 23.666 0C23.2695 0 22.873 0.109375 22.4766 0.341797L8.10742 8.70898C7.08203 9.31055 6.68555 9.76172 6.68555 10.4453C6.68555 11.1289 7.08203 11.5801 8.10742 12.1816L22.4766 20.5488C22.873 20.7676 23.2695 20.8906 23.666 20.8906C24.541 20.8906 25.293 20.2754 25.293 18.9902ZM4.93555 20.8086C6.125 20.8086 6.75391 20.1797 6.75391 18.9766L6.75391 1.90039C6.75391 0.697266 6.125 0.0683594 4.93555 0.0683594L1.81836 0.0683594C0.628906 0.0683594 0 0.642578 0 1.90039L0 18.9766C0 20.1797 0.628906 20.8086 1.81836 20.8086Z" style="fill:var(--color-0,hsl(0 0 0/0.85))"></path>
 </g>
</svg>