<?xml version="1.0" encoding="UTF-8"?>
<!--Generator: Apple Native CoreSVG 326-->
<!DOCTYPE svg
PUBLIC "-//W3C//DTD SVG 1.1//EN"
       "http://www.w3.org/Graphics/SVG/1.1/DTD/svg11.dtd">
<svg version="1.1" xmlns="http://www.w3.org/2000/svg" xmlns:xlink="http://www.w3.org/1999/xlink" viewBox="0 0 22.8468 35.6973">
 <g>
  <rect height="35.6973" opacity="0" width="22.8468" x="0" y="0"/>
  <path d="M7.06889 34.2891L15.4224 34.2891C20.1802 34.2891 22.5318 31.8828 22.4908 27.0703C22.4361 21.5742 22.4087 17.582 22.272 14.5879C21.8755 5.7832 19.4009 3.19922 11.2525 3.19922C3.10404 3.19922 0.615762 5.7832 0.219277 14.5879C0.0825586 17.582 0.0552148 21.5742 0.000527335 27.0703C-0.0404883 31.8828 2.31107 34.2891 7.06889 34.2891ZM6.6724 28.8613C5.49662 28.8613 4.74467 28.0957 4.74467 26.9473L4.74467 19.8926C4.74467 18.7305 5.49662 17.9648 6.6724 17.9648L15.8326 17.9648C16.9947 17.9648 17.7466 18.7305 17.7466 19.8926L17.7466 26.9473C17.7466 28.0957 16.9947 28.8613 15.8326 28.8613ZM4.74467 23.2285L17.7466 23.2285L17.7466 21.6016L4.74467 21.6016ZM11.2525 0C8.62748 0 6.78178 1.77734 6.78178 4.19727L8.70951 4.19727C8.70951 2.87109 9.74857 1.92773 11.2525 1.92773C12.7427 1.92773 13.7954 2.87109 13.7954 4.19727L15.7232 4.19727C15.7232 1.77734 13.8638 0 11.2525 0Z" fill="white" fill-opacity="0.85"/>
 </g>
</svg>
