<svg version="1.1" xmlns="http://www.w3.org/2000/svg" xmlns:xlink="http://www.w3.org/1999/xlink" viewBox="0 0 34.3301 20.9043">
 <g>
  
  <path d="M27.7676 20.8086C28.9707 20.8086 29.5996 20.1797 29.5996 18.9766L29.5996 1.90039C29.5996 0.697266 28.9707 0.0683594 27.7676 0.0683594L24.6641 0.0683594C23.4609 0.0683594 22.8457 0.642578 22.8457 1.90039L22.8457 18.9766C22.8457 20.1797 23.4609 20.8086 24.6641 20.8086ZM18.5938 18.9902L18.5938 1.88672C18.5938 0.601562 17.8555 0 16.9668 0C16.584 0 16.1738 0.109375 15.7773 0.341797L1.42188 8.70898C0.382812 9.31055 0 9.76172 0 10.4453C0 11.1289 0.382812 11.5801 1.42188 12.1816L15.7773 20.5488C16.1738 20.7676 16.584 20.8906 16.9668 20.8906C17.8555 20.8906 18.5938 20.2754 18.5938 18.9902Z" style="fill:var(--color-0,hsl(0 0 0/0.85))"></path>
 </g>
</svg>