<?xml version="1.0" encoding="UTF-8"?>
<!--Generator: Apple Native CoreSVG 326-->
<!DOCTYPE svg
PUBLIC "-//W3C//DTD SVG 1.1//EN"
       "http://www.w3.org/Graphics/SVG/1.1/DTD/svg11.dtd">
<svg version="1.1" xmlns="http://www.w3.org/2000/svg" xmlns:xlink="http://www.w3.org/1999/xlink" viewBox="0 0 28.2461 27.9043">
 <g>
  <rect height="27.9043" opacity="0" width="28.2461" x="0" y="0"/>
  <path d="M13.9453 27.9043C21.6426 27.9043 27.8906 21.6562 27.8906 13.959C27.8906 6.27539 21.6426 0.0136719 13.9453 0.0136719C6.26172 0.0136719 0 6.27539 0 13.959C0 21.6562 6.26172 27.9043 13.9453 27.9043Z" fill="white" fill-opacity="0.85"/>
  <path d="M11.7305 22.5449C9.25586 22.5449 8.02539 21.2871 8.03906 18.7578C8.08008 15.873 8.09375 13.7812 8.16211 12.2227C8.32617 8.58594 9.16016 6.97266 11.6074 6.4668C11.7578 5.3457 12.6738 4.55273 13.9316 4.55273C15.1895 4.55273 16.1055 5.3457 16.2559 6.4668C18.7031 6.97266 19.5371 8.58594 19.7012 12.2227C19.7695 13.7812 19.7832 15.873 19.8242 18.7578C19.8379 21.2871 18.6074 22.5449 16.1328 22.5449ZM12.7559 6.30273C13.125 6.27539 13.5078 6.26172 13.9316 6.26172C14.3555 6.26172 14.7383 6.27539 15.1074 6.30273C14.9023 5.89258 14.4785 5.61914 13.9316 5.61914C13.3848 5.61914 12.9609 5.89258 12.7559 6.30273ZM10.5273 15.9141L17.3359 15.9141L17.3359 14.998C17.3359 14.3965 16.9531 14 16.3242 14L11.5527 14C10.9238 14 10.5273 14.3965 10.5273 14.998ZM11.5527 19.7012L16.3242 19.7012C16.9531 19.7012 17.3359 19.3047 17.3359 18.6895L17.3359 16.8027L10.5273 16.8027L10.5273 18.6895C10.5273 19.3047 10.9238 19.7012 11.5527 19.7012Z" fill="white"/>
 </g>
</svg>
