<svg version="1.1" xmlns="http://www.w3.org/2000/svg" xmlns:xlink="http://www.w3.org/1999/xlink" viewBox="0 0 24.623 27.5215">
 <g>
  
  <path d="M4.29297 27.5078L20.3848 27.5078C22.832 27.5078 24.2676 26.0859 24.2676 23.2695L24.2676 9.11914C24.2676 6.30273 22.8184 4.88086 19.9746 4.88086L4.29297 4.88086C1.43555 4.88086 0 6.28906 0 9.11914L0 23.2695C0 26.0996 1.43555 27.5078 4.29297 27.5078ZM4.32031 25.3066C2.95312 25.3066 2.20117 24.582 2.20117 23.1602L2.20117 9.22852C2.20117 7.80664 2.95312 7.08203 4.32031 7.08203L19.9336 7.08203C21.2871 7.08203 22.0664 7.80664 22.0664 9.22852L22.0664 23.1602C22.0664 24.582 21.2871 25.3066 20.3438 25.3066ZM6.74023 5.41406L8.94141 5.42773C8.94141 3.47266 10.2266 2.07812 12.127 2.07812C14.0273 2.07812 15.3262 3.47266 15.3262 5.42773L17.5273 5.41406C17.5273 2.39258 15.1895 0 12.127 0C9.06445 0 6.74023 2.39258 6.74023 5.41406Z" style="fill:var(--color-0,hsl(0 0 0/0.85))"></path>
 </g>
</svg>