<?xml version="1.0" encoding="UTF-8"?>
<!--Generator: Apple Native CoreSVG 326-->
<!DOCTYPE svg
PUBLIC "-//W3C//DTD SVG 1.1//EN"
       "http://www.w3.org/Graphics/SVG/1.1/DTD/svg11.dtd">
<svg version="1.1" xmlns="http://www.w3.org/2000/svg" xmlns:xlink="http://www.w3.org/1999/xlink" viewBox="0 0 28.2461 27.9043">
 <g>
  <rect height="27.9043" opacity="0" width="28.2461" x="0" y="0"/>
  <path d="M13.9453 27.8906C21.6426 27.8906 27.8906 21.6426 27.8906 13.9453C27.8906 6.24805 21.6426 0 13.9453 0C6.24805 0 0 6.24805 0 13.9453C0 21.6426 6.24805 27.8906 13.9453 27.8906ZM13.9453 25.5664C7.51953 25.5664 2.32422 20.3711 2.32422 13.9453C2.32422 7.51953 7.51953 2.32422 13.9453 2.32422C20.3711 2.32422 25.5664 7.51953 25.5664 13.9453C25.5664 20.3711 20.3711 25.5664 13.9453 25.5664Z" fill="white" fill-opacity="0.85"/>
  <path d="M9.87109 20.6445L18.2383 20.6445C19.5234 20.6445 20.2617 19.9062 20.2617 18.457L20.2617 11.0742C20.2617 9.61133 19.5098 8.88672 18.0195 8.88672L16.8848 8.88672C16.8574 7.38281 15.5586 6.11133 13.9453 6.11133C12.332 6.11133 11.0332 7.38281 11.0059 8.88672L9.87109 8.88672C8.38086 8.88672 7.62891 9.61133 7.62891 11.0742L7.62891 18.457C7.62891 19.9199 8.38086 20.6445 9.87109 20.6445ZM12.3184 8.88672C12.3594 7.94336 12.9746 7.35547 13.9453 7.35547C14.916 7.35547 15.5312 7.94336 15.5723 8.88672Z" fill="white" fill-opacity="0.85"/>
 </g>
</svg>
