<svg version="1.1" xmlns="http://www.w3.org/2000/svg" xmlns:xlink="http://www.w3.org/1999/xlink" viewBox="0 0 28.2461 27.9043">
 <g>
  
  <path d="M13.9453 27.9043C21.6426 27.9043 27.8906 21.6562 27.8906 13.959C27.8906 6.27539 21.6426 0.0136719 13.9453 0.0136719C6.26172 0.0136719 0 6.27539 0 13.959C0 21.6562 6.26172 27.9043 13.9453 27.9043Z" style="fill:var(--color-0,hsl(0 0 0/0.85))"></path>
  <path d="M9.74805 20.8906C8.20312 20.8906 7.42383 20.1387 7.42383 18.6348L7.42383 11.0195C7.42383 9.50195 8.20312 8.76367 9.74805 8.76367L10.9102 8.76367C10.9375 7.20508 12.2773 5.89258 13.9453 5.89258C15.6133 5.89258 16.9531 7.20508 16.9805 8.76367L18.1426 8.76367C19.6875 8.76367 20.4668 9.51562 20.4668 11.0195L20.4668 18.6348C20.4668 20.1387 19.7012 20.8906 18.375 20.8906ZM12.2773 8.76367L15.6133 8.76367C15.5723 7.80664 14.9434 7.19141 13.9453 7.19141C12.9473 7.19141 12.3184 7.80664 12.2773 8.76367Z" style="fill:var(--color-1,white)"></path>
 </g>
</svg>