<svg version="1.1" xmlns="http://www.w3.org/2000/svg" xmlns:xlink="http://www.w3.org/1999/xlink" viewBox="0 0 28.2461 27.9043">
 <g>
  
  <path d="M13.9453 27.8906C21.6426 27.8906 27.8906 21.6426 27.8906 13.9453C27.8906 6.24805 21.6426 0 13.9453 0C6.24805 0 0 6.24805 0 13.9453C0 21.6426 6.24805 27.8906 13.9453 27.8906ZM13.9453 25.5664C7.51953 25.5664 2.32422 20.3711 2.32422 13.9453C2.32422 7.51953 7.51953 2.32422 13.9453 2.32422C20.3711 2.32422 25.5664 7.51953 25.5664 13.9453C25.5664 20.3711 20.3711 25.5664 13.9453 25.5664Z" style="fill:var(--color-0,hsl(0 0 0/0.85))"></path>
  <path d="M11.2109 19.9883L14.6016 19.9883C16.9258 19.9883 18.7578 18.9219 18.7578 16.5977C18.7578 14.9297 17.5957 13.8086 15.9414 13.6172L15.9414 13.5352C17.2129 13.3301 18.1426 12.1406 18.1426 10.8691C18.1426 8.81836 16.4199 7.84766 14.5879 7.84766L11.2109 7.84766C10.5684 7.84766 10.2129 8.27148 10.2129 8.85938L10.2129 18.9902C10.2129 19.5645 10.582 19.9883 11.2109 19.9883ZM11.8125 13.084L11.8125 9.1875L14.1914 9.1875C15.5312 9.1875 16.5566 9.73438 16.5566 11.0605C16.5566 12.5371 15.3262 13.084 13.8223 13.084ZM11.8125 18.6621L11.8125 14.3828L14.1641 14.3828C15.791 14.3828 17.1309 14.9023 17.1309 16.5156C17.1309 18.0879 15.8867 18.6621 14.3008 18.6621ZM13.9316 21.5332C14.2188 21.5332 14.3828 21.3555 14.3828 21.0684L14.3828 6.63086C14.3828 6.35742 14.2051 6.16602 13.9316 6.16602C13.6582 6.16602 13.4668 6.35742 13.4668 6.63086L13.4668 21.0684C13.4668 21.3555 13.6582 21.5332 13.9316 21.5332Z" style="fill:var(--color-1,hsl(0 0 0/0.85))"></path>
 </g>
</svg>