<?xml version="1.0" encoding="UTF-8"?>
<!--Generator: Apple Native CoreSVG 326-->
<!DOCTYPE svg
PUBLIC "-//W3C//DTD SVG 1.1//EN"
       "http://www.w3.org/Graphics/SVG/1.1/DTD/svg11.dtd">
<svg version="1.1" xmlns="http://www.w3.org/2000/svg" xmlns:xlink="http://www.w3.org/1999/xlink" viewBox="0 0 33.291 27.3099">
 <g>
  <rect height="27.3099" opacity="0" width="33.291" x="0" y="0"/>
  <path d="M32.9355 16.3962C32.9355 7.78289 26.3184 0.714533 17.8965 0.00359537C17.459-0.0374203 17.1309 0.277033 17.1309 0.714533L17.1309 5.18524C17.1309 5.55438 17.3906 5.84149 17.7598 5.86883C22.9961 6.51141 27.0703 10.9821 27.0703 16.3962C27.0703 18.8571 26.2227 21.1266 24.7324 23.027C24.541 23.2595 24.5547 23.5602 24.7598 23.779L28.0273 27.0329C28.3281 27.3337 28.793 27.3337 29.0664 27.0055C31.4863 24.1345 32.9355 20.4294 32.9355 16.3962Z" fill="white" fill-opacity="0.85"/>
  <path d="M0 16.3962C0 20.443 1.44922 24.1481 3.86914 27.0192C4.14258 27.3473 4.59375 27.3337 4.9082 27.0329L8.17578 23.779C8.38086 23.5602 8.39453 23.2595 8.20312 23.027C6.69922 21.1266 5.86523 18.8571 5.86523 16.3962C5.86523 10.9821 9.93945 6.51141 15.1758 5.86883C15.5449 5.84149 15.8047 5.55438 15.8047 5.18524L15.8047 0.714533C15.8047 0.277033 15.4766-0.0374203 15.0391 0.00359537C6.61719 0.714533 0 7.78289 0 16.3962Z" fill="white" fill-opacity="0.85"/>
  <path d="M13.7266 22.6305L17.1172 22.6305C19.4414 22.6305 21.2734 21.5505 21.2734 19.2399C21.2734 17.5583 20.1113 16.4372 18.457 16.2458L18.457 16.1638C19.7285 15.9723 20.6582 14.7692 20.6582 13.4977C20.6582 11.447 18.9492 10.4763 17.1035 10.4763L13.7266 10.4763C13.084 10.4763 12.7285 10.9001 12.7285 11.488L12.7285 21.6325C12.7285 22.193 13.0977 22.6305 13.7266 22.6305ZM14.3281 15.7126L14.3281 11.8161L16.7207 11.8161C18.0469 11.8161 19.0723 12.363 19.0723 13.6891C19.0723 15.1794 17.8555 15.7126 16.3379 15.7126ZM14.3281 21.2907L14.3281 17.0251L16.6934 17.0251C18.3066 17.0251 19.6465 17.5309 19.6465 19.1442C19.6465 20.7165 18.4023 21.2907 16.8164 21.2907ZM16.4473 24.1755C16.7344 24.1755 16.9121 23.9841 16.9121 23.697L16.9121 9.27313C16.9121 8.98602 16.7207 8.79461 16.4473 8.79461C16.1738 8.79461 15.9824 8.98602 15.9824 9.27313L15.9824 23.697C15.9824 23.9841 16.1738 24.1755 16.4473 24.1755Z" fill="white" fill-opacity="0.85"/>
 </g>
</svg>
