<svg version="1.1" xmlns="http://www.w3.org/2000/svg" xmlns:xlink="http://www.w3.org/1999/xlink" viewBox="0 0 30.9258 30.584">
 <g>
  
  <path d="M15.2852 30.5703C23.6797 30.5703 30.5703 23.6797 30.5703 15.2852C30.5703 6.89062 23.6797 0 15.2852 0C6.89062 0 0 6.89062 0 15.2852C0 23.6797 6.89062 30.5703 15.2852 30.5703ZM15.2852 25.4844C9.65234 25.4844 5.08594 20.918 5.08594 15.2852C5.08594 9.63867 9.65234 5.08594 15.2852 5.08594C20.9316 5.08594 25.4844 9.63867 25.4844 15.2852C25.4844 20.918 20.9316 25.4844 15.2852 25.4844Z" style="fill:var(--color-0,hsl(0 0 0/0.85))"></path>
  <path d="M12.5645 21.3281L15.9551 21.3281C18.2793 21.3281 20.1113 20.2617 20.1113 17.9375C20.1113 16.2695 18.9492 15.1484 17.2949 14.957L17.2949 14.875C18.5664 14.6699 19.4961 13.4805 19.4961 12.209C19.4961 10.1582 17.7734 9.1875 15.9414 9.1875L12.5645 9.1875C11.9219 9.1875 11.5664 9.61133 11.5664 10.1992L11.5664 20.3301C11.5664 20.9043 11.9355 21.3281 12.5645 21.3281ZM13.166 14.4238L13.166 10.5273L15.5449 10.5273C16.8848 10.5273 17.9102 11.0742 17.9102 12.4004C17.9102 13.877 16.6797 14.4238 15.1758 14.4238ZM13.166 20.002L13.166 15.7227L15.5312 15.7227C17.1445 15.7227 18.4844 16.2422 18.4844 17.8555C18.4844 19.4277 17.2402 20.002 15.6543 20.002ZM15.2852 22.873C15.5723 22.873 15.7363 22.6953 15.7363 22.4082L15.7363 7.9707C15.7363 7.69727 15.5586 7.50586 15.2852 7.50586C15.0117 7.50586 14.8203 7.69727 14.8203 7.9707L14.8203 22.4082C14.8203 22.6953 15.0117 22.873 15.2852 22.873Z" style="fill:var(--color-1,hsl(0 0 0/0.85))"></path>
 </g>
</svg>