<svg version="1.1" xmlns="http://www.w3.org/2000/svg" xmlns:xlink="http://www.w3.org/1999/xlink" viewBox="0 0 18.0059 37.3926">
 <g>
  
  <path d="M8.81836 20.9453C13.7812 20.9453 17.6504 15.668 17.6504 9.07812C17.6504 3.89648 14.041 0 8.81836 0C3.5957 0 0 3.89648 0 9.07812C0 15.668 3.85547 20.9453 8.81836 20.9453ZM8.81836 18.8945C5.00391 18.8945 2.06445 14.4375 2.06445 9.07812C2.06445 5.16797 4.83984 2.06445 8.81836 2.06445C12.7695 2.06445 15.5996 5.16797 15.5996 9.07812C15.5996 14.4375 12.6191 18.8945 8.81836 18.8945ZM6.9043 20.002L6.26172 22.4629C6.09766 23.0098 6.41211 23.5977 7.10938 23.5977L10.541 23.5977C11.2383 23.5977 11.5391 23.0098 11.3887 22.4629L10.7188 20.002ZM8.6543 37.2012C9.1875 37.2012 9.625 36.75 9.625 36.2168C9.625 33.2227 12.3457 32.5254 12.3457 29.4902C12.3457 26.373 9.7207 25.7852 9.74805 23.0645L7.80664 23.0645C7.79297 26.7832 10.418 27.3574 10.418 29.4902C10.418 31.6641 7.68359 31.9922 7.68359 36.2168C7.68359 36.75 8.12109 37.2012 8.6543 37.2012Z" style="fill:var(--color-0,hsl(0 0 0/0.85))"></path>
 </g>
</svg>