<?xml version="1.0" encoding="UTF-8"?>
<!--Generator: Apple Native CoreSVG 326-->
<!DOCTYPE svg
PUBLIC "-//W3C//DTD SVG 1.1//EN"
       "http://www.w3.org/Graphics/SVG/1.1/DTD/svg11.dtd">
<svg version="1.1" xmlns="http://www.w3.org/2000/svg" xmlns:xlink="http://www.w3.org/1999/xlink" viewBox="0 0 26.6602 37.3926">
 <g>
  <rect height="37.3926" opacity="0" width="26.6602" x="0" y="0"/>
  <path d="M8.93597 6.62727C8.76766 7.28046 8.67257 7.97205 8.65736 8.69409C8.24519 8.58557 7.80439 8.53125 7.3418 8.53125C4.22461 8.53125 2.07812 11.0195 2.07812 14.1094C2.07812 18.375 4.34766 21.834 7.3418 21.834C9.2697 21.834 10.8972 20.3999 11.8075 18.2355C12.2997 18.7855 12.8389 19.2634 13.4207 19.6491C12.4091 21.651 10.851 23.118 8.99405 23.6636L9.39258 25.1836C9.5293 25.6758 9.26953 26.1953 8.62695 26.1953L7.96633 26.1953C8.23616 28.1192 10.1309 28.4329 10.1309 30.9668C10.1309 33.5645 7.83398 33.9199 7.83398 36.5312C7.83398 36.9961 7.4375 37.3926 6.94531 37.3926C6.4668 37.3926 6.11133 36.9961 6.11133 36.5312C6.11133 32.8125 8.42188 32.7852 8.42188 30.9668C8.42188 29.2241 6.42291 28.9806 6.22388 26.1953L5.52344 26.1953C4.89453 26.1953 4.60742 25.6758 4.75781 25.1836L5.19093 23.4924C2.14178 22.2785 0 18.528 0 14.1094C0 9.80273 3.00781 6.4668 7.3418 6.4668C7.89635 6.4668 8.42919 6.52141 8.93597 6.62727Z" fill="white" fill-opacity="0.85"/>
  <path d="M17.459 20.9453C22.4219 20.9453 26.3047 15.668 26.3047 9.07812C26.3047 3.89648 22.6816 0 17.459 0C12.2363 0 8.64062 3.89648 8.64062 9.07812C8.64062 15.668 12.5098 20.9453 17.459 20.9453ZM17.459 18.8945C13.6445 18.8945 10.7051 14.4375 10.7051 9.07812C10.7051 5.16797 13.4941 2.06445 17.459 2.06445C21.4238 2.06445 24.2402 5.16797 24.2402 9.07812C24.2402 14.4375 21.2598 18.8945 17.459 18.8945ZM15.5449 20.002L14.9023 22.4629C14.7383 23.0098 15.0527 23.5977 15.75 23.5977L19.1816 23.5977C19.8789 23.5977 20.1797 23.0098 20.0293 22.4629L19.373 20.002ZM17.2949 37.2012C17.8281 37.2012 18.2793 36.75 18.2793 36.2168C18.2793 33.2227 21 32.5254 21 29.4902C21 26.373 18.3613 25.7852 18.3887 23.0645L16.4473 23.0781C16.4336 26.7832 19.0723 27.3574 19.0723 29.4902C19.0723 31.6641 16.3379 31.9922 16.3379 36.2168C16.3379 36.75 16.7617 37.2012 17.2949 37.2012Z" fill="white" fill-opacity="0.85"/>
 </g>
</svg>
