<svg version="1.1" xmlns="http://www.w3.org/2000/svg" xmlns:xlink="http://www.w3.org/1999/xlink" viewBox="0 0 28.4367 28.1066">
 <g>
  
  <path d="M2.06407 26.023C4.88048 28.8805 8.76329 28.7711 11.9762 25.7906L14.3414 23.5758C13.152 23.9176 11.9488 23.6851 10.609 22.359L5.63243 17.3687C4.29259 16.0426 4.16954 14.9351 4.51134 13.7457L2.2965 16.1109C-0.697644 19.3375-0.752332 23.1793 2.06407 26.023ZM11.8942 20.9644C13.2613 22.3316 14.5875 22.3726 15.982 20.9644L20.9586 15.9742C22.3805 14.566 22.3531 13.2672 20.9859 11.9L16.1871 7.10115C14.8199 5.73397 13.5211 5.70662 12.1129 7.1285L7.12267 12.1051C5.72814 13.5133 5.75548 14.8258 7.12267 16.193ZM10.2535 14.9625C9.734 14.443 9.734 13.65 10.2535 13.1305C10.7731 12.6109 11.566 12.6246 12.0856 13.1441C12.5641 13.6363 12.5777 14.443 12.0856 14.9351C11.5387 15.482 10.7457 15.4547 10.2535 14.9625ZM13.152 12.0777C12.6324 11.5582 12.6324 10.7515 13.1246 10.2457C13.6442 9.72615 14.4371 9.72615 14.9567 10.2457C15.4625 10.7515 15.4762 11.5445 14.943 12.0777C14.4508 12.5562 13.6305 12.5562 13.152 12.0777ZM17.8414 14.9625C17.3356 15.4547 16.5289 15.4547 16.0094 14.9351C15.5309 14.4566 15.5309 13.6363 16.0094 13.1441C16.5426 12.6109 17.3356 12.6246 17.8414 13.1305C18.3609 13.65 18.3609 14.443 17.8414 14.9625ZM13.1246 17.8336C12.6324 17.3414 12.6051 16.5484 13.152 16.0152C13.6442 15.5094 14.4508 15.523 14.943 16.0152C15.4625 16.5211 15.4762 17.3414 14.9567 17.8336C14.4234 18.3531 13.6442 18.3531 13.1246 17.8336ZM23.5836 14.3746L25.7848 11.982C28.7652 8.74178 28.8473 4.91365 26.0309 2.0699C23.2008-0.787517 19.3317-0.66447 16.1051 2.30233L13.7262 4.5035C14.902 4.1617 16.1734 4.43514 17.5133 5.77498L22.4899 10.7515C23.8297 12.0777 23.9254 13.1851 23.5836 14.3746Z" style="fill:var(--color-0,hsl(0 0 0/0.85))"></path>
 </g>
</svg>