<svg version="1.1" xmlns="http://www.w3.org/2000/svg" xmlns:xlink="http://www.w3.org/1999/xlink" viewBox="0 0 36.4492 22.5996">
 <g>
  
  <path d="M3.92383 18.3477C3.92383 18.5664 4.04688 18.6758 4.25195 18.6758L14.9434 18.6758C13.4941 17.1992 12.6465 14.5879 12.6465 11.2793C12.6465 7.98438 13.4941 5.38672 14.916 3.92383L4.25195 3.92383C4.04688 3.92383 3.92383 4.0332 3.92383 4.25195ZM14.2871 11.2793C14.2871 15.5449 15.7637 18.4023 17.9922 18.4023C20.2891 18.4023 21.834 15.5449 21.834 11.2793C21.834 7.01367 20.2891 4.16992 17.9922 4.16992C15.7637 4.16992 14.2871 7.01367 14.2871 11.2793ZM21.123 18.6758L31.8418 18.6758C32.0469 18.6758 32.1699 18.5664 32.1699 18.3477L32.1699 4.25195C32.1699 4.0332 32.0469 3.92383 31.8418 3.92383L21.1367 3.92383C22.5996 5.38672 23.4609 7.98438 23.4609 11.2793C23.4609 14.5879 22.5859 17.1992 21.123 18.6758Z" style="fill:var(--color-0,hsl(0 0 0/0.85))"></path>
  <path d="M0 21.5059C0 22.1621 0.4375 22.5996 1.09375 22.5996L35.0137 22.5996C35.6699 22.5996 36.0938 22.1621 36.0938 21.5059L36.0938 1.08008C36.0938 0.423828 35.6699 0 35.0137 0L1.09375 0C0.4375 0 0 0.423828 0 1.08008ZM2.50195 19.2637L2.50195 3.33594C2.50195 2.78906 2.81641 2.50195 3.32227 2.50195L32.7715 2.50195C33.291 2.50195 33.5918 2.78906 33.5918 3.33594L33.5918 19.2637C33.5918 19.7969 33.291 20.0977 32.7715 20.0977L3.32227 20.0977C2.81641 20.0977 2.50195 19.7969 2.50195 19.2637Z" style="fill:var(--color-1,hsl(0 0 0/0.85))"></path>
 </g>
</svg>