<?xml version="1.0" encoding="UTF-8"?>
<!--Generator: Apple Native CoreSVG 326-->
<!DOCTYPE svg
PUBLIC "-//W3C//DTD SVG 1.1//EN"
       "http://www.w3.org/Graphics/SVG/1.1/DTD/svg11.dtd">
<svg version="1.1" xmlns="http://www.w3.org/2000/svg" xmlns:xlink="http://www.w3.org/1999/xlink" viewBox="0 0 25.7441 17.7324">
 <g>
  <rect height="17.7324" opacity="0" width="25.7441" x="0" y="0"/>
  <path d="M1.2168 17.7188C1.92773 17.7188 2.43359 17.2266 2.43359 16.5156L2.43359 10.0762L22.9551 10.0762L22.9551 16.5156C22.9551 17.2266 23.4609 17.7188 24.1719 17.7188C24.8828 17.7188 25.3887 17.2266 25.3887 16.5156L25.3887 1.20312C25.3887 0.492188 24.8828 0 24.1719 0C23.4609 0 22.9551 0.492188 22.9551 1.20312L22.9551 7.64258L2.43359 7.64258L2.43359 1.20312C2.43359 0.492188 1.92773 0 1.2168 0C0.505859 0 0 0.492188 0 1.20312L0 16.5156C0 17.2266 0.505859 17.7188 1.2168 17.7188Z" fill="white" fill-opacity="0.85"/>
 </g>
</svg>
