<?xml version="1.0" encoding="UTF-8"?>
<!--Generator: Apple Native CoreSVG 326-->
<!DOCTYPE svg
PUBLIC "-//W3C//DTD SVG 1.1//EN"
       "http://www.w3.org/Graphics/SVG/1.1/DTD/svg11.dtd">
<svg version="1.1" xmlns="http://www.w3.org/2000/svg" xmlns:xlink="http://www.w3.org/1999/xlink" viewBox="0 0 28.2461 27.9043">
 <g>
  <rect height="27.9043" opacity="0" width="28.2461" x="0" y="0"/>
  <path d="M10.8145 26.5371L12.1543 26.8652C13.3301 23.2285 13.0566 19.127 11.0059 15.5996C8.96875 12.0859 5.57812 9.77539 1.85938 8.98242L1.47656 10.2949C4.82617 11.0059 7.88867 13.0977 9.76172 16.3242C11.6348 19.5645 11.8945 23.2559 10.8145 26.5371ZM5.18164 12.4824L6.43945 10.1719C6.60352 9.87109 6.50781 9.50195 6.20703 9.35156C5.89258 9.17383 5.50977 9.25586 5.3457 9.57031L4.10156 11.8672C3.92383 12.1816 4.0332 12.5645 4.34766 12.7148C4.64844 12.8926 5.00391 12.7969 5.18164 12.4824ZM7.68359 14.3008L9.51562 12.4277C9.77539 12.168 9.76172 11.7852 9.51562 11.5664C9.26953 11.3066 8.88672 11.2793 8.62695 11.5391L6.79492 13.4121C6.53516 13.6582 6.54883 14.0684 6.80859 14.2871C7.05469 14.5332 7.42383 14.5469 7.68359 14.3008ZM9.625 17.1035L11.9082 15.8184C12.2363 15.6406 12.3184 15.2578 12.1406 14.9707C11.9629 14.6699 11.5938 14.5469 11.293 14.7246L9.00977 15.9961C8.69531 16.1738 8.59961 16.5703 8.79102 16.8574C8.96875 17.1582 9.31055 17.2676 9.625 17.1035ZM10.6504 20.2754L13.1934 19.6191C13.5215 19.5234 13.7129 19.1816 13.6309 18.8535C13.5352 18.5117 13.2207 18.3066 12.8652 18.4023L10.3359 19.0586C9.99414 19.1406 9.80273 19.4824 9.88477 19.8105C9.98047 20.1523 10.3086 20.3574 10.6504 20.2754ZM10.8418 23.4883L13.4531 23.5566C13.8086 23.5703 14.082 23.2832 14.082 22.9414C14.0957 22.6133 13.8223 22.3262 13.4805 22.3125L10.8691 22.2441C10.5137 22.2305 10.2402 22.5176 10.2266 22.8594C10.2266 23.2012 10.5 23.4746 10.8418 23.4883ZM25.9902 18.8809L26.3594 17.541C22.9824 16.8438 19.9199 14.7656 18.0469 11.5391C16.1875 8.28516 15.9141 4.58008 16.9941 1.3125L15.6543 1.01172C14.4785 4.63477 14.7656 8.70898 16.8027 12.25C18.8398 15.791 22.2441 18.0605 25.9902 18.8809ZM16.9941 5.64648C17.3496 5.66016 17.6094 5.40039 17.6094 5.04492C17.623 4.70312 17.3496 4.41602 17.0078 4.40234L14.3965 4.32031C14.041 4.33398 13.7676 4.60742 13.7676 4.96289C13.7539 5.30469 14.0137 5.57812 14.3691 5.57812ZM17.3223 8.73633C17.6641 8.64062 17.8555 8.3125 17.7461 7.98438C17.6777 7.64258 17.3496 7.4375 17.0078 7.5332L14.4648 8.17578C14.1094 8.27148 13.9453 8.61328 14.0547 8.94141C14.1094 9.2832 14.4375 9.47461 14.7793 9.37891ZM18.7988 11.8262C19.1133 11.6484 19.1953 11.3066 19.0312 10.9785C18.8672 10.6914 18.498 10.5547 18.1973 10.7461L15.9004 12.0449C15.5996 12.209 15.5176 12.5918 15.6953 12.8926C15.832 13.1797 16.2148 13.3164 16.5156 13.125ZM21.0547 14.2871C21.3145 14.0137 21.3008 13.6309 21.041 13.3848C20.8086 13.1523 20.4121 13.1387 20.166 13.3984L18.3203 15.2715C18.0742 15.5039 18.0879 15.9004 18.3477 16.1328C18.5801 16.3652 18.9629 16.3789 19.209 16.1328ZM23.748 16.0371C23.9258 15.7227 23.8027 15.3672 23.502 15.1758C23.2012 15.0254 22.8184 15.1211 22.668 15.4219L21.4102 17.7188C21.2324 18.0195 21.3418 18.4023 21.6426 18.5664C21.9297 18.7305 22.3398 18.6348 22.4902 18.3203ZM13.9453 27.8906C21.6426 27.8906 27.8906 21.6426 27.8906 13.9453C27.8906 6.24805 21.6426 0 13.9453 0C6.24805 0 0 6.24805 0 13.9453C0 21.6426 6.24805 27.8906 13.9453 27.8906ZM13.9453 26.0312C7.27344 26.0312 1.85938 20.6172 1.85938 13.9453C1.85938 7.27344 7.27344 1.85938 13.9453 1.85938C20.6172 1.85938 26.0312 7.27344 26.0312 13.9453C26.0312 20.6172 20.6172 26.0312 13.9453 26.0312Z" fill="white" fill-opacity="0.85"/>
 </g>
</svg>
