<?xml version="1.0" encoding="UTF-8"?>
<!--Generator: Apple Native CoreSVG 326-->
<!DOCTYPE svg
PUBLIC "-//W3C//DTD SVG 1.1//EN"
       "http://www.w3.org/Graphics/SVG/1.1/DTD/svg11.dtd">
<svg version="1.1" xmlns="http://www.w3.org/2000/svg" xmlns:xlink="http://www.w3.org/1999/xlink" viewBox="0 0 28.2461 27.9043">
 <g>
  <rect height="27.9043" opacity="0" width="28.2461" x="0" y="0"/>
  <path d="M13.9453 27.8906C21.6426 27.8906 27.8906 21.6289 27.8906 13.9453C27.8906 6.24805 21.6426 0 13.9453 0C6.26172 0 0 6.24805 0 13.9453C0 21.6289 6.26172 27.8906 13.9453 27.8906Z" fill="white" fill-opacity="0.85"/>
  <path d="M6.39844 13.6035C6.42578 12.3457 6.95898 10.7871 7.73828 9.66602C8.28516 9.83008 8.62695 10.7871 8.64062 11.3887C7.79297 12.0449 7.05469 12.7695 6.39844 13.6035ZM9.48828 10.7871C9.33789 10.0898 8.94141 9.20117 8.28516 8.96875C8.85938 8.32617 9.51562 7.79297 10.2539 7.36914C10.0898 8.09375 10.0352 9.11914 10.1855 10.377C9.93945 10.5 9.7207 10.6504 9.48828 10.7871ZM11.0332 9.95312C10.8828 8.51758 11.0469 7.49219 11.1973 6.9043C11.9355 6.63086 12.7012 6.43945 13.5215 6.39844C12.6465 7.02734 12.1133 7.9707 12.1133 9.06445C12.1133 9.22852 12.1133 9.37891 12.127 9.50195C11.7578 9.63867 11.375 9.78906 11.0332 9.95312ZM13.0566 9.25586C13.0156 7.76562 13.8223 7.04102 15.3535 6.50781C17.3086 6.89062 19.0176 8.05273 20.125 9.63867C18.8535 9.13281 17.418 8.88672 15.9688 8.88672C14.9707 8.88672 13.9863 8.99609 13.0566 9.25586ZM6.48047 15.0938C7.0957 14.1504 7.80664 13.3301 8.62695 12.5918C8.50391 14.752 7.95703 17.2539 8.6543 19.291C7.5332 18.1836 6.74023 16.707 6.48047 15.0938ZM9.57031 11.8398C9.81641 11.6758 10.0625 11.5117 10.3223 11.3613C10.8418 14.2598 12.25 17.9512 15.0664 21.4375C14.6973 21.4922 14.3281 21.5059 13.959 21.5059C12.9746 21.5059 12.0449 21.2734 11.2246 20.877C8.12109 18.9766 9.58398 15.1895 9.57031 11.8398ZM11.1426 10.9102C11.5527 10.7188 11.9629 10.541 12.373 10.4043C13.7676 13.5625 19.8652 14.6973 20.1387 18.252C19.1543 19.6602 17.7188 20.7129 16.0508 21.2051C13.043 17.582 11.6074 13.7266 11.1426 10.9102ZM13.2891 10.1309C14.1504 9.91211 15.0527 9.80273 15.9688 9.80273C17.7461 9.80273 19.3457 10.1992 20.8906 10.9922C21.2871 11.9082 21.5195 12.9062 21.5195 13.9453C21.5195 15.0664 21.2598 16.1055 20.8223 17.0625C19.5645 13.6445 14.4785 12.5371 13.2891 10.1309Z" fill="white"/>
 </g>
</svg>
