<?xml version="1.0" encoding="UTF-8"?>
<!--Generator: Apple Native CoreSVG 326-->
<!DOCTYPE svg
PUBLIC "-//W3C//DTD SVG 1.1//EN"
       "http://www.w3.org/Graphics/SVG/1.1/DTD/svg11.dtd">
<svg version="1.1" xmlns="http://www.w3.org/2000/svg" xmlns:xlink="http://www.w3.org/1999/xlink" viewBox="0 0 28.2461 27.9043">
 <g>
  <rect height="27.9043" opacity="0" width="28.2461" x="0" y="0"/>
  <path d="M1.44922 14.9023C5.16797 9.83008 10.8691 6.63086 17.459 6.63086C20.1113 6.63086 22.5996 7.13672 24.9648 8.14844L24.6641 6.38477C22.4355 5.56445 19.9609 5.11328 17.459 5.11328C10.459 5.11328 4.23828 8.58594 0.314453 13.8906ZM24.6914 20.4121L26.1406 19.9883C24.0762 12.7559 12.2363 11.1836 12.2363 5.38672C12.2363 3.65039 13.125 2.37891 14.752 1.51758L13.8086 0.300781C11.9355 1.38086 10.7188 3.19922 10.7188 5.38672C10.7188 12.4004 22.8867 14.2051 24.6914 20.4121ZM4.77148 23.6387L6.52148 23.8027C4.45703 19.8652 6.49414 14.1094 6.15234 9.16016C6.05664 7.84766 5.23633 5.48242 3.75977 5.12695L3.37695 6.60352C4.0332 6.68555 4.58008 8.36719 4.63477 9.2832C4.93555 13.6309 3.07617 19.2227 4.77148 23.6387ZM15.791 26.8926L17.0078 25.9766C8.99609 16.0234 7.80664 5.16797 9.11914 2.21484L7.46484 2.44727C6.43945 6.69922 8.13477 17.3223 15.791 26.8926ZM13.9453 27.8906C21.6426 27.8906 27.8906 21.6426 27.8906 13.9453C27.8906 6.24805 21.6426 0 13.9453 0C6.24805 0 0 6.24805 0 13.9453C0 21.6426 6.24805 27.8906 13.9453 27.8906ZM13.9453 26.0312C7.27344 26.0312 1.85938 20.6172 1.85938 13.9453C1.85938 7.27344 7.27344 1.85938 13.9453 1.85938C20.6172 1.85938 26.0312 7.27344 26.0312 13.9453C26.0312 20.6172 20.6172 26.0312 13.9453 26.0312Z" fill="white" fill-opacity="0.85"/>
 </g>
</svg>
