<svg version="1.1" xmlns="http://www.w3.org/2000/svg" xmlns:xlink="http://www.w3.org/1999/xlink" viewBox="0 0 36.5586 21.7246">
 <g>
  
  <path d="M0 2.78906C0 4.36133 1.2168 5.56445 2.77539 5.56445L33.4277 5.56445C34.9863 5.56445 36.2031 4.36133 36.2031 2.78906C36.2031 1.18945 34.9863 0 33.4277 0L2.77539 0C1.2168 0 0 1.18945 0 2.78906ZM2.17383 2.78906C2.17383 2.40625 2.46094 2.13281 2.87109 2.13281L33.332 2.13281C33.7422 2.13281 34.0293 2.40625 34.0293 2.78906C34.0293 3.1582 33.7422 3.43164 33.332 3.43164L2.87109 3.43164C2.46094 3.43164 2.17383 3.1582 2.17383 2.78906ZM10.2129 18.4434L26.0039 18.4434C31.1445 18.4434 33.8105 15.9277 33.8105 11.0332L33.8105 4.53906L31.6094 4.53906L31.6094 11.0332C31.6094 14.4648 29.6953 16.2422 26.0039 16.2422L10.2129 16.2422C6.50781 16.2422 4.59375 14.4648 4.59375 11.0332L4.59375 4.53906L2.39258 4.53906L2.39258 11.0332C2.39258 15.9277 5.05859 18.4434 10.2129 18.4434ZM6.39844 21.4922C6.95898 21.7109 7.60156 21.3965 7.80664 20.8359L8.96875 17.623L6.9043 16.8711L5.74219 20.084C5.53711 20.6445 5.83789 21.3008 6.39844 21.4922ZM29.8184 21.4922C30.3789 21.3008 30.666 20.6445 30.4609 20.084L29.2988 16.8711L27.2344 17.623L28.3965 20.8359C28.6016 21.3965 29.2441 21.7109 29.8184 21.4922Z" style="fill:var(--color-0,hsl(0 0 0/0.85))"></path>
 </g>
</svg>