<svg version="1.1" xmlns="http://www.w3.org/2000/svg" xmlns:xlink="http://www.w3.org/1999/xlink" viewBox="0 0 40.8242 22.242">
 <g>
  
  <path d="M16.2062 4.07315L6.95898 4.07315C5.52344 4.07315 4.0332 4.25089 3.19922 5.08487C2.37891 5.91885 2.20117 7.38175 2.20117 8.81729L2.20117 13.4521C2.20117 14.8603 2.37891 16.3232 3.19922 17.1571C4.0332 17.9774 5.50977 18.1689 6.91797 18.1689L13.6114 18.1689L13.3984 18.7431C13.1795 19.3344 13.1604 19.8872 13.2865 20.37L7.28711 20.37C4.96289 20.37 2.99414 20.1513 1.59961 18.7567C0.205078 17.3622 0 15.4208 0 13.0829L0 9.11807C0 6.83487 0.205078 4.87979 1.59961 3.48526C2.99414 2.09073 4.96289 1.87198 7.25977 1.87198L17.9575 1.87198ZM34.4805 3.48526C35.875 4.87979 36.0801 6.8212 36.0801 9.15909L36.0801 13.0829C36.0801 15.4208 35.875 17.3622 34.4805 18.7567C33.0859 20.1513 31.1172 20.37 28.7793 20.37L18.4507 20.37L20.202 18.1689L29.1621 18.1689C30.5703 18.1689 32.0469 17.9774 32.8672 17.1571C33.7012 16.3232 33.8789 14.8603 33.8789 13.4521L33.8789 8.77628C33.8789 7.36807 33.7012 5.91885 32.8672 5.08487C32.0469 4.26456 30.5703 4.07315 29.1621 4.07315L22.7968 4.07315L23.0098 3.49893C23.2287 2.90764 23.2478 2.35478 23.1217 1.87198L28.7793 1.87198C31.1172 1.87198 33.0859 2.09073 34.4805 3.48526ZM40.4688 11.1142C40.4688 13.206 39.0195 14.5868 37.9395 14.6552L37.9395 7.58682C39.0195 7.65518 40.4688 9.03604 40.4688 11.1142Z" style="fill:var(--color-0,hsl(0 0 0/0.5))"></path>
  <path d="M11.1152 10.4716C10.7188 10.9638 10.4863 11.538 10.4863 12.1532C10.4863 13.5204 11.6074 14.6142 12.9883 14.6142L14.9297 14.6142L14.1996 16.5829L6.19336 16.5829C5.26367 16.5829 4.70312 16.4462 4.32031 16.0634C3.9375 15.6806 3.80078 15.1337 3.80078 14.1903L3.80078 8.07901C3.80078 7.12198 3.9375 6.56143 4.32031 6.17862C4.68945 5.79581 5.25 5.65909 6.23438 5.65909L14.9443 5.65909ZM31.7598 6.17862C32.1289 6.56143 32.2793 7.10831 32.2793 8.05167L32.2793 14.1903C32.2793 15.1337 32.1289 15.6806 31.7598 16.0634C31.377 16.4462 30.8301 16.5829 29.8867 16.5829L21.4639 16.5829L25.293 11.7704C25.6895 11.2782 25.9219 10.704 25.9219 10.0888C25.9219 8.72159 24.8008 7.62784 23.4199 7.62784L21.4785 7.62784L22.2086 5.65909L29.8867 5.65909C30.8164 5.65909 31.377 5.79581 31.7598 6.17862Z" style="fill:var(--color-1,#28cd41)"></path>
  <path d="M12.3457 12.1532C12.3457 12.495 12.6191 12.7411 12.9746 12.7411L17.6094 12.7411L15.1348 19.3857C14.8203 20.2607 15.75 20.7392 16.3105 20.0419L23.8027 10.622C23.9395 10.4442 24.0352 10.2665 24.0352 10.0888C24.0352 9.74698 23.7617 9.50089 23.4062 9.50089L18.7715 9.50089L21.2461 2.85635C21.5605 1.98135 20.6309 1.50284 20.0703 2.2001L12.5781 11.6064C12.4277 11.7978 12.3457 11.9755 12.3457 12.1532Z" style="fill:var(--color-2,hsl(0 0 0/0.85))"></path>
 </g>
</svg>