<svg version="1.1" xmlns="http://www.w3.org/2000/svg" xmlns:xlink="http://www.w3.org/1999/xlink" viewBox="0 0 28.2461 27.9043">
 <g>
  
  <path d="M13.9453 27.8906C21.6426 27.8906 27.8906 21.6426 27.8906 13.9453C27.8906 6.24805 21.6426 0 13.9453 0C6.24805 0 0 6.24805 0 13.9453C0 21.6426 6.24805 27.8906 13.9453 27.8906ZM13.9453 25.5664C7.51953 25.5664 2.32422 20.3711 2.32422 13.9453C2.32422 7.51953 7.51953 2.32422 13.9453 2.32422C20.3711 2.32422 25.5664 7.51953 25.5664 13.9453C25.5664 20.3711 20.3711 25.5664 13.9453 25.5664Z" style="fill:var(--color-0,#28cd41)"></path>
  <path d="M8.94141 18.1973L18.1289 18.1973C19.1543 18.1973 20.0977 18.1016 20.7539 17.4453C21.4238 16.7617 21.5332 15.832 21.5332 14.8203L21.5332 13.0703C21.5332 12.0586 21.4238 11.1152 20.7539 10.4453C20.0977 9.78906 19.1406 9.67969 18.1289 9.67969L8.94141 9.67969C7.92969 9.67969 6.97266 9.78906 6.28906 10.4453C5.63281 11.1152 5.53711 12.0586 5.53711 13.0703L5.53711 14.8203C5.53711 15.832 5.63281 16.7617 6.28906 17.4453C6.97266 18.1016 7.91602 18.1973 8.94141 18.1973ZM8.76367 16.6797C8.09375 16.6797 7.64258 16.5566 7.41016 16.3242C7.17773 16.1055 7.08203 15.6543 7.08203 14.9844L7.08203 12.8926C7.08203 12.2227 7.17773 11.7715 7.41016 11.5527C7.64258 11.3203 8.10742 11.1973 8.76367 11.1973L18.3066 11.1973C18.9492 11.1973 19.4277 11.3203 19.6602 11.5664C19.8789 11.7852 20.0156 12.25 20.0156 12.8926L20.0156 14.9844C20.0156 15.6406 19.8789 16.1055 19.6602 16.3242C19.4277 16.5566 18.9629 16.6797 18.3066 16.6797ZM8.83203 15.873L18.252 15.873C18.6211 15.873 18.8398 15.832 18.9902 15.6816C19.1406 15.5312 19.209 15.2988 19.209 14.9434L19.209 12.9199C19.209 12.5645 19.1406 12.332 18.9902 12.1816C18.8398 12.0449 18.6211 11.9902 18.252 11.9902L8.83203 11.9902C8.46289 11.9902 8.23047 12.0449 8.08008 12.1816C7.94336 12.332 7.875 12.5508 7.875 12.9199L7.875 14.9434C7.875 15.3125 7.94336 15.5449 8.08008 15.6816C8.23047 15.832 8.46289 15.873 8.83203 15.873ZM22.1348 15.5586C22.6133 15.5176 23.2832 14.8887 23.2832 13.9453C23.2832 13.002 22.6133 12.3594 22.1348 12.332Z" style="fill:var(--color-1,#28cd41)"></path>
 </g>
</svg>