<svg version="1.1" xmlns="http://www.w3.org/2000/svg" xmlns:xlink="http://www.w3.org/1999/xlink" viewBox="0 0 32.5938 31.0797">
 <g>
  
  <path d="M23.7585 27.2635L4.29297 27.2635C1.43555 27.2635 0 25.8553 0 23.0252L0 11.5545C0 8.8989 1.27632 7.49528 3.81882 7.34498ZM11.8535 5.49788L11.8535 7.32991L20.3984 7.32991L20.3984 5.49788C20.3984 4.45881 21 3.82991 22.0391 3.82991L24.7734 3.82991C25.8262 3.82991 26.4277 4.45881 26.4277 5.49788L26.4277 7.32991L27.9453 7.32991C30.8164 7.32991 32.2383 8.75178 32.2383 11.5545L32.2383 23.0252C32.2383 24.7582 31.6999 25.9632 30.6147 26.6317C30.5933 26.6039 30.5685 26.5781 30.543 26.5526L7.80825 3.82991L10.1992 3.82991C11.252 3.82991 11.8535 4.45881 11.8535 5.49788Z" style="fill:var(--color-0,hsl(0 0 0/0.85))"></path>
  <path d="M27.9316 29.1776C28.3418 29.5877 29.0117 29.5877 29.4219 29.1776C29.8184 28.7537 29.832 28.0975 29.4219 27.6873L3.66406 1.94319C3.25391 1.53303 2.58398 1.51936 2.16016 1.94319C1.76367 2.33967 1.76367 3.02327 2.16016 3.43342Z" style="fill:var(--color-1,hsl(0 0 0/0.85))"></path>
 </g>
</svg>