<svg version="1.1" xmlns="http://www.w3.org/2000/svg" xmlns:xlink="http://www.w3.org/1999/xlink" viewBox="0 0 28.2461 27.9043">
 <g>
  
  <path d="M13.9453 27.8906C21.6426 27.8906 27.8906 21.6289 27.8906 13.9453C27.8906 6.24805 21.6426 0 13.9453 0C6.26172 0 0 6.24805 0 13.9453C0 21.6289 6.26172 27.8906 13.9453 27.8906Z" style="fill:var(--color-0,#28cd41)"></path>
  <path d="M8.77734 18.334C7.71094 18.334 6.74023 18.2383 6.0293 17.5547C5.35938 16.8574 5.25 15.8867 5.25 14.8477L5.25 13.043C5.25 12.0039 5.35938 11.0332 6.0293 10.3359C6.74023 9.65234 7.72461 9.54297 8.77734 9.54297L18.252 9.54297C19.291 9.54297 20.2754 9.65234 20.959 10.3359C21.6426 11.0332 21.7656 12.0039 21.7656 13.043L21.7656 14.8477C21.7656 15.8867 21.6426 16.8574 20.959 17.5547C20.2754 18.2383 19.3047 18.334 18.252 18.334ZM8.58594 16.7617L18.4297 16.7617C19.0996 16.7617 19.5781 16.6387 19.8242 16.3926C20.043 16.1738 20.1934 15.6953 20.1934 15.0117L20.1934 12.8652C20.1934 12.1953 20.043 11.7168 19.8242 11.498C19.5781 11.2383 19.0859 11.1152 18.4297 11.1152L8.58594 11.1152C7.91602 11.1152 7.4375 11.2383 7.19141 11.4844C6.95898 11.7031 6.86328 12.168 6.86328 12.8652L6.86328 15.0117C6.86328 15.709 6.95898 16.1738 7.19141 16.3926C7.4375 16.6387 7.90234 16.7617 8.58594 16.7617ZM8.6543 15.9277C8.28516 15.9277 8.03906 15.8867 7.88867 15.7363C7.75195 15.5859 7.68359 15.3535 7.68359 14.9707L7.68359 12.8926C7.68359 12.5098 7.75195 12.291 7.88867 12.127C8.03906 11.9902 8.28516 11.9355 8.6543 11.9355L18.375 11.9355C18.7578 11.9355 18.9766 11.9902 19.127 12.127C19.291 12.291 19.3594 12.5234 19.3594 12.8926L19.3594 14.9707C19.3594 15.3398 19.291 15.5723 19.127 15.7363C18.9766 15.8867 18.7578 15.9277 18.375 15.9277ZM22.3809 15.6133L22.3809 12.2773C22.873 12.3184 23.5703 12.9746 23.5703 13.9453C23.5703 14.916 22.873 15.5723 22.3809 15.6133Z" style="fill:var(--color-1,white)"></path>
 </g>
</svg>