<?xml version="1.0" encoding="UTF-8"?>
<!--Generator: Apple Native CoreSVG 326-->
<!DOCTYPE svg
PUBLIC "-//W3C//DTD SVG 1.1//EN"
       "http://www.w3.org/Graphics/SVG/1.1/DTD/svg11.dtd">
<svg version="1.1" xmlns="http://www.w3.org/2000/svg" xmlns:xlink="http://www.w3.org/1999/xlink" viewBox="0 0 32.5938 23.4473">
 <g>
  <rect height="23.4473" opacity="0" width="32.5938" x="0" y="0"/>
  <path d="M4.29297 23.4473L27.9453 23.4473C30.8164 23.4473 32.2383 22.0254 32.2383 19.209L32.2383 7.73828C32.2383 4.93555 30.8164 3.51367 27.9453 3.51367L26.4277 3.51367L26.4277 1.68164C26.4277 0.642578 25.8262 0.0136719 24.7734 0.0136719L22.0391 0.0136719C21 0.0136719 20.3984 0.642578 20.3984 1.68164L20.3984 3.51367L11.8535 3.51367L11.8535 1.68164C11.8535 0.642578 11.252 0.0136719 10.1992 0.0136719L7.46484 0.0136719C6.41211 0.0136719 5.81055 0.642578 5.81055 1.68164L5.81055 3.51367L4.29297 3.51367C1.43555 3.51367 0 4.92188 0 7.73828L0 19.209C0 22.0391 1.43555 23.4473 4.29297 23.4473Z" fill="white" fill-opacity="0.85"/>
 </g>
</svg>
