<?xml version="1.0" encoding="UTF-8"?>
<!--Generator: Apple Native CoreSVG 326-->
<!DOCTYPE svg
PUBLIC "-//W3C//DTD SVG 1.1//EN"
       "http://www.w3.org/Graphics/SVG/1.1/DTD/svg11.dtd">
<svg version="1.1" xmlns="http://www.w3.org/2000/svg" xmlns:xlink="http://www.w3.org/1999/xlink" viewBox="0 0 35.9707 28.4785">
 <g>
  <rect height="28.4785" opacity="0" width="35.9707" x="0" y="0"/>
  <path d="M11.0469 0C4.99023 0 0 6.95898 0 15.5039C0 19.5234 1.06641 23.9668 2.37891 23.9668C3.39062 23.9668 4.21094 22.627 4.32031 21.2734C2.32422 20.6855 0.847656 18.8398 0.847656 16.6797C0.847656 15.3672 1.35352 14.2051 2.26953 13.2754C2.7207 7.39648 6.53516 2.21484 10.9238 2.21484C13.5488 2.21484 14.752 4.18359 14.752 7.82031L4.2793 13.2891C2.74805 14.082 2.05078 15.3398 2.05078 16.6797C2.05078 18.6348 3.66406 20.248 5.61914 20.248C6.57617 20.248 7.21875 20.002 8.57227 19.2773L13.8633 16.3789C16.1602 15.1074 16.9805 13.5625 16.9805 10.3223L16.9805 7.4375C16.9805 2.88477 14.9707 0 11.0469 0ZM5.53711 18.9219C4.2793 18.9219 3.26758 17.8965 3.26758 16.666C3.26758 15.4219 4.2793 14.4102 5.53711 14.4102C6.76758 14.4102 7.7793 15.4219 7.7793 16.666C7.7793 17.8965 6.76758 18.9219 5.53711 18.9219ZM5.53711 18.0469C6.27539 18.0469 6.9043 17.418 6.9043 16.666C6.9043 15.9141 6.27539 15.2852 5.53711 15.2852C4.77148 15.2852 4.15625 15.9141 4.15625 16.666C4.15625 17.418 4.77148 18.0469 5.53711 18.0469ZM1.81836 28.4648L3.07617 28.4648L3.07617 23.4473L1.81836 23.4473ZM24.5684 0C20.6445 0 18.6348 2.88477 18.6348 7.4375L18.6348 10.3223C18.6348 13.5625 19.4551 15.1074 21.752 16.3789L27.043 19.2773C28.3965 20.002 29.0391 20.248 29.9961 20.248C31.9512 20.248 33.5645 18.6348 33.5645 16.6797C33.5645 15.3398 32.8672 14.082 31.3359 13.2891L20.8633 7.82031C20.8633 4.18359 22.0664 2.21484 24.6914 2.21484C29.0664 2.21484 32.8945 7.39648 33.3457 13.2754C34.2617 14.2051 34.7676 15.3672 34.7676 16.6797C34.7676 18.8398 33.291 20.6855 31.2949 21.2734C31.3906 22.627 32.2246 23.9668 33.2363 23.9668C34.5352 23.9668 35.6152 19.5234 35.6152 15.5039C35.6152 6.95898 30.625 0 24.5684 0ZM30.0781 18.9219C28.8477 18.9219 27.8223 17.8965 27.8223 16.666C27.8223 15.4219 28.8477 14.4102 30.0781 14.4102C31.3359 14.4102 32.3477 15.4219 32.3477 16.666C32.3477 17.8965 31.3359 18.9219 30.0781 18.9219ZM30.0781 18.0469C30.8438 18.0469 31.459 17.418 31.459 16.666C31.459 15.9141 30.8438 15.2852 30.0781 15.2852C29.3262 15.2852 28.6973 15.9141 28.6973 16.666C28.6973 17.418 29.3262 18.0469 30.0781 18.0469ZM33.7969 28.4648L33.7969 23.4473L32.5391 23.4473L32.5391 28.4648Z" fill="white" fill-opacity="0.85"/>
 </g>
</svg>
