<svg version="1.1" xmlns="http://www.w3.org/2000/svg" xmlns:xlink="http://www.w3.org/1999/xlink" viewBox="0 0 43.9688 21.2871">
 <g>
  
  <path d="M3.04883 11.9902C3.04883 11.5117 3.08984 11.0195 3.1582 10.5547C1.27148 11.4844 0 13.4121 0 15.627C0 18.7168 2.48828 21.2871 5.64648 21.2871C7 21.2871 8.25781 20.8086 9.22852 20.0156C5.63281 18.8398 3.04883 15.832 3.04883 11.9902ZM40.5645 11.9902C40.5645 15.832 37.9805 18.8398 34.3848 20.0156C35.3555 20.8086 36.5996 21.2871 37.9531 21.2871C41.1113 21.2871 43.6133 18.7168 43.6133 15.627C43.6133 13.4121 42.3281 11.4844 40.4414 10.5547C40.5098 11.0195 40.5645 11.5117 40.5645 11.9902Z" style="fill:var(--color-0,hsl(0 0 0/0.85))"></path>
  <path d="M17.4727 8.05273C18.8125 5.71484 18.0195 2.80273 15.6816 1.44922C13.3711 0.123047 10.418 0.902344 9.07812 3.22656L6.76758 7.24609C5.42773 9.57031 6.20703 12.5098 8.54492 13.8359C10.8691 15.1895 13.8086 14.4102 15.1621 12.0723ZM10.7188 12.291C9.37891 12.291 8.32617 11.2246 8.32617 9.88477C8.32617 8.55859 9.39258 7.47852 10.7188 7.47852C12.0586 7.47852 13.125 8.55859 13.125 9.88477C13.125 11.2246 12.0586 12.291 10.7188 12.291ZM10.7188 11.293C11.5254 11.293 12.127 10.6641 12.127 9.88477C12.127 9.11914 11.5254 8.47656 10.7188 8.47656C9.92578 8.47656 9.32422 9.11914 9.32422 9.88477C9.32422 10.6641 9.92578 11.293 10.7188 11.293ZM12.6191 19.291C17.1445 19.291 20.9316 16.1738 20.9316 11.4297C20.9316 9.46094 20.3438 8.10742 19.3047 6.52148C19.1953 7.24609 18.9629 7.9707 18.5664 8.66797L16.2559 12.7012C14.5742 15.6406 10.8281 16.625 7.91602 14.9297C5.7832 13.6992 4.66211 11.3887 4.89453 9.0918C4.51172 10.0488 4.30664 11.0332 4.30664 12.0039C4.30664 16.2695 8.08008 19.291 12.6191 19.291ZM26.1406 8.05273L28.4512 12.0723C29.8047 14.4102 32.7441 15.1895 35.0684 13.8359C37.3926 12.5098 38.1855 9.57031 36.8457 7.24609L34.5352 3.22656C33.1953 0.902344 30.2422 0.123047 27.9316 1.44922C25.5938 2.80273 24.8008 5.71484 26.1406 8.05273ZM32.8945 12.291C31.541 12.291 30.4883 11.2246 30.4883 9.88477C30.4883 8.55859 31.541 7.47852 32.8945 7.47852C34.2207 7.47852 35.2734 8.55859 35.2734 9.88477C35.2734 11.2246 34.2344 12.291 32.8945 12.291ZM32.8945 11.293C33.6875 11.293 34.2754 10.6641 34.2754 9.88477C34.2754 9.11914 33.6875 8.47656 32.8945 8.47656C32.0742 8.47656 31.4863 9.11914 31.4863 9.88477C31.4863 10.6641 32.0742 11.293 32.8945 11.293ZM30.9941 19.291C35.5195 19.291 39.293 16.2695 39.293 12.0039C39.293 11.0332 39.1016 10.0488 38.7188 9.0918C38.9375 11.3887 37.8301 13.6992 35.6973 14.9297C32.7715 16.625 29.0391 15.6406 27.3574 12.7012L25.0469 8.66797C24.6504 7.9707 24.4043 7.24609 24.2949 6.52148C23.2695 8.10742 22.6816 9.46094 22.6816 11.4297C22.6816 16.1738 26.4551 19.291 30.9941 19.291Z" style="fill:var(--color-1,hsl(0 0 0/0.85))"></path>
 </g>
</svg>