<svg version="1.1" xmlns="http://www.w3.org/2000/svg" xmlns:xlink="http://www.w3.org/1999/xlink" viewBox="0 0 33.8516 26.5918">
 <g>
  
  <path d="M9.95312 12.0996C13.3027 12.0996 16.0098 9.35156 16.0098 6.05664C16.0098 2.7207 13.2344 0.0136719 9.95312 0.0136719C9.36523 0.0136719 8.83203 0.0683594 8.36719 0.21875L8.36719 3.63672C8.83203 3.29492 9.37891 3.10352 9.95312 3.10352C11.5254 3.10352 12.8652 4.45703 12.8652 6.05664C12.8652 7.62891 11.5527 8.92773 9.95312 8.92773C8.32617 8.92773 7.05469 7.66992 7.05469 6.05664L7.05469 0.724609C5.12695 1.81836 3.91016 3.80078 3.91016 6.05664C3.91016 9.41992 6.60352 12.0996 9.95312 12.0996ZM9.95312 7.65625C10.8145 7.65625 11.5391 6.9043 11.5391 6.05664C11.5391 5.23633 10.7871 4.4707 9.95312 4.4707C9.11914 4.4707 8.38086 5.20898 8.38086 6.05664C8.38086 6.91797 9.0918 7.65625 9.95312 7.65625ZM7.71094 10.7598L7.71094 13.959C7.71094 14.7656 8.24414 15.1758 9.05078 15.1758L10.8555 15.1758C11.6895 15.1758 12.209 14.7656 12.209 13.959L12.209 10.7598ZM8.92773 26.5918L10.9922 26.5918L10.9922 13.7676L8.92773 13.7676ZM23.5293 12.0996C26.8789 12.0996 29.5859 9.35156 29.5859 6.05664C29.5859 2.7207 26.8105 0.0136719 23.5293 0.0136719C22.9414 0.0136719 22.4082 0.0683594 21.9434 0.21875L21.9434 3.63672C22.4082 3.29492 22.9551 3.10352 23.5293 3.10352C25.1016 3.10352 26.4414 4.45703 26.4414 6.05664C26.4414 7.62891 25.1289 8.92773 23.5293 8.92773C21.9023 8.92773 20.6309 7.66992 20.6309 6.05664L20.6309 0.724609C18.7031 1.81836 17.4863 3.80078 17.4863 6.05664C17.4863 9.41992 20.1797 12.0996 23.5293 12.0996ZM23.5293 7.65625C24.3906 7.65625 25.1152 6.9043 25.1152 6.05664C25.1152 5.23633 24.3633 4.4707 23.5293 4.4707C22.6953 4.4707 21.957 5.20898 21.957 6.05664C21.957 6.91797 22.668 7.65625 23.5293 7.65625ZM25.7852 10.7598L21.2871 10.7598L21.2871 13.959C21.2871 14.7656 21.793 15.1758 22.627 15.1758L24.4453 15.1758C25.252 15.1758 25.7852 14.7656 25.7852 13.959ZM24.5684 26.5918L24.5684 13.7676L22.5039 13.7676L22.5039 26.5918Z" style="fill:var(--color-0,hsl(0 0 0/0.85))"></path>
  <path d="M2.85742 6.07031C2.85742 3.67773 4.04688 1.57227 5.85156 0.287109C2.5293 0.341797 0 2.83008 0 6.07031C0 9.2832 2.48828 11.7852 5.85156 11.8535C4.04688 10.5684 2.85742 8.46289 2.85742 6.07031ZM30.6387 6.07031C30.6387 8.46289 29.4492 10.5684 27.6445 11.8535C30.9531 11.7852 33.4961 9.31055 33.4961 6.07031C33.4961 2.85742 30.9941 0.341797 27.6445 0.287109C29.4492 1.57227 30.6387 3.67773 30.6387 6.07031Z" style="fill:var(--color-1,hsl(0 0 0/0.85))"></path>
 </g>
</svg>