<?xml version="1.0" encoding="UTF-8"?>
<!--Generator: Apple Native CoreSVG 326-->
<!DOCTYPE svg
PUBLIC "-//W3C//DTD SVG 1.1//EN"
       "http://www.w3.org/Graphics/SVG/1.1/DTD/svg11.dtd">
<svg version="1.1" xmlns="http://www.w3.org/2000/svg" xmlns:xlink="http://www.w3.org/1999/xlink" viewBox="0 0 22.7968 24.2402">
 <g>
  <rect height="24.2402" opacity="0" width="22.7968" x="0" y="0"/>
  <path d="M5.00682 17.6367C7.75487 17.6367 9.80565 15.2715 9.29979 12.2227L8.41112 6.84961C8.28807 6.09766 8.56151 5.5918 9.29979 5.25C11.1592 4.375 12.9092 3.91016 15.206 3.55469C16.6279 3.34961 17.3525 2.29688 17.3525 0.888672C17.3525 0.314453 17.0654 0 16.1767 0C13.2646 0 10.3799 0.464844 7.42674 1.49023C2.45018 3.21289-0.639664 6.26172 0.112289 10.3496L0.836899 14.2734C1.26073 16.5703 3.20213 17.6367 5.00682 17.6367ZM5.00682 15.5449C3.72166 15.5449 2.70995 14.5469 2.70995 13.2617C2.70995 11.9766 3.72166 10.9785 5.00682 10.9785C6.2783 10.9785 7.27635 11.9902 7.27635 13.2617C7.27635 14.5332 6.2783 15.5449 5.00682 15.5449ZM5.00682 14.5742C5.73143 14.5742 6.30565 14 6.30565 13.2617C6.30565 12.5371 5.73143 11.9492 5.00682 11.9492C4.25487 11.9492 3.68065 12.5371 3.68065 13.2617C3.68065 14 4.25487 14.5742 5.00682 14.5742ZM5.00682 18.9629C2.90135 18.9629 1.09666 17.8965 0.153305 16.2148C0.440414 20.7676 4.55565 23.0371 9.21776 23.0371C10.4482 23.0371 11.3506 22.873 12.2119 22.4355C13.9756 19.3594 15.2197 16.1465 16.0127 12.6738C15.1103 10.7734 12.9912 9.5293 10.0654 8.77734L10.6123 12.0039C11.2412 15.7773 8.65721 18.9629 5.00682 18.9629Z" fill="white" fill-opacity="0.85"/>
  <path d="M22.4385 18.3887C22.4385 15.2031 19.9228 13.084 17.3389 12.8242C16.5049 16.5156 15.165 19.9883 13.2646 23.2285C14.0303 23.7617 15.2744 24.2129 16.6553 24.2129C20.1279 24.2129 22.4385 21.875 22.4385 18.3887Z" fill="white" fill-opacity="0.85"/>
 </g>
</svg>
