<?xml version="1.0" encoding="UTF-8"?>
<!--Generator: Apple Native CoreSVG 326-->
<!DOCTYPE svg
PUBLIC "-//W3C//DTD SVG 1.1//EN"
       "http://www.w3.org/Graphics/SVG/1.1/DTD/svg11.dtd">
<svg version="1.1" xmlns="http://www.w3.org/2000/svg" xmlns:xlink="http://www.w3.org/1999/xlink" viewBox="0 0 22.791 24.2402">
 <g>
  <rect height="24.2402" opacity="0" width="22.791" x="0" y="0"/>
  <path d="M17.4453 17.6367C19.2363 17.6367 21.1777 16.5703 21.6016 14.2734L22.3262 10.3496C23.0781 6.26172 19.9883 3.21289 15.0117 1.49023C12.0586 0.464844 9.17383 0 6.26172 0C5.38672 0 5.08594 0.314453 5.08594 0.888672C5.08594 2.29688 5.82422 3.34961 7.23242 3.55469C9.54297 3.91016 11.293 4.375 13.1387 5.25C13.877 5.5918 14.1641 6.09766 14.0273 6.84961L13.1387 12.2227C12.6328 15.2715 14.6836 17.6367 17.4453 17.6367ZM17.4453 15.5449C16.1738 15.5449 15.1621 14.5332 15.1621 13.2617C15.1621 11.9902 16.1738 10.9785 17.4453 10.9785C18.7168 10.9785 19.7285 11.9766 19.7285 13.2617C19.7285 14.5469 18.7168 15.5449 17.4453 15.5449ZM17.4453 14.5742C18.1836 14.5742 18.7578 14 18.7578 13.2617C18.7578 12.5371 18.1836 11.9492 17.4453 11.9492C16.707 11.9492 16.1328 12.5371 16.1328 13.2617C16.1328 14 16.707 14.5742 17.4453 14.5742ZM17.4453 18.9629C13.7812 18.9629 11.1973 15.7773 11.8398 12.0039L12.373 8.77734C9.44727 9.5293 7.32812 10.7734 6.43945 12.6738C7.21875 16.1465 8.47656 19.3594 10.2402 22.4355C11.1016 22.873 12.0039 23.0371 13.2207 23.0371C17.8965 23.0371 22.0117 20.7676 22.2988 16.2148C21.3418 17.8965 19.5371 18.9629 17.4453 18.9629Z" fill="white" fill-opacity="0.85"/>
  <path d="M0 18.3887C0 21.875 2.31055 24.2129 5.7832 24.2129C7.16406 24.2129 8.42188 23.7617 9.17383 23.2285C7.28711 19.9883 5.94727 16.5156 5.09961 12.8242C2.51562 13.084 0 15.2031 0 18.3887Z" fill="white" fill-opacity="0.85"/>
 </g>
</svg>
