<svg version="1.1" xmlns="http://www.w3.org/2000/svg" xmlns:xlink="http://www.w3.org/1999/xlink" viewBox="0 0 46.7441 19.2637">
 <g>
  
  <path d="M9.43359 0.382812C4.21094 0.382812 0 4.60742 0 9.83008C0 15.0527 4.21094 19.2637 9.43359 19.2637L36.9551 19.2637C42.1777 19.2637 46.3887 15.0527 46.3887 9.83008C46.3887 4.60742 42.1777 0.382812 36.9551 0.382812ZM9.43359 2.58398L36.9551 2.58398C41.1113 2.58398 44.1875 5.67383 44.1875 9.83008C44.1875 13.9863 41.1113 17.0625 36.9551 17.0625L9.43359 17.0625C5.27734 17.0625 2.20117 13.9863 2.20117 9.83008C2.20117 5.67383 5.27734 2.58398 9.43359 2.58398ZM23.2012 12.7695C24.7188 12.7695 25.9902 11.5254 25.9902 10.0488C25.9902 8.49023 24.7051 7.21875 23.2012 7.21875C22.6406 7.21875 22.1348 7.36914 21.6836 7.71094L21.6836 5.49609L20.4258 6.04297L20.4258 10.0488C20.4258 11.5664 21.6289 12.7695 23.2012 12.7695ZM23.2012 11.5254C22.3672 11.5254 21.6836 10.8418 21.6836 10.0488C21.6836 9.21484 22.3809 8.51758 23.2012 8.51758C24.0215 8.51758 24.7051 9.22852 24.7051 10.0488C24.7051 10.8418 24.0215 11.5254 23.2012 11.5254Z" style="fill:var(--color-0,hsl(0 0 0/0.85))"></path>
 </g>
</svg>