<?xml version="1.0" encoding="UTF-8"?>
<!--Generator: Apple Native CoreSVG 326-->
<!DOCTYPE svg
PUBLIC "-//W3C//DTD SVG 1.1//EN"
       "http://www.w3.org/Graphics/SVG/1.1/DTD/svg11.dtd">
<svg version="1.1" xmlns="http://www.w3.org/2000/svg" xmlns:xlink="http://www.w3.org/1999/xlink" viewBox="0 0 42.916 19.0449">
 <g>
  <rect height="19.0449" opacity="0" width="42.916" x="0" y="0"/>
  <path d="M19.2227 19.0176L23.3242 19.0176C29.6133 19.0176 33.25 18.9492 36.3672 17.9102C40.332 16.5703 42.5605 13.5762 42.5605 9.51562C42.5605 5.45508 40.332 2.46094 36.3672 1.10742C33.25 0.0683594 29.6133 0 23.3242 0L19.2227 0C12.9473 0 9.29688 0.0683594 6.17969 1.10742C2.21484 2.46094 0 5.45508 0 9.51562C0 13.5762 2.21484 16.5703 6.17969 17.9102C9.29688 18.9492 12.9473 19.0176 19.2227 19.0176ZM21.2734 12.9473C19.6602 12.9473 18.416 11.7031 18.416 10.1309L18.416 5.98828L19.7012 5.42773L19.7012 7.71094C20.1934 7.35547 20.7129 7.20508 21.2734 7.20508C22.8594 7.20508 24.1582 8.50391 24.1582 10.1309C24.1582 11.6758 22.873 12.9473 21.2734 12.9473ZM21.2734 11.6758C22.1348 11.6758 22.8594 10.9512 22.8594 10.1309C22.8594 9.26953 22.1348 8.55859 21.2734 8.55859C20.4395 8.55859 19.7012 9.25586 19.7012 10.1309C19.7012 10.9512 20.4258 11.6758 21.2734 11.6758Z" fill="white" fill-opacity="0.85"/>
 </g>
</svg>
