<?xml version="1.0" encoding="UTF-8"?>
<!--Generator: Apple Native CoreSVG 326-->
<!DOCTYPE svg
PUBLIC "-//W3C//DTD SVG 1.1//EN"
       "http://www.w3.org/Graphics/SVG/1.1/DTD/svg11.dtd">
<svg version="1.1" xmlns="http://www.w3.org/2000/svg" xmlns:xlink="http://www.w3.org/1999/xlink" viewBox="0 0 19.163 27.7402">
 <g>
  <rect height="27.7402" opacity="0" width="19.163" x="0" y="0"/>
  <path d="M12.2817 21.2598C14.1821 21.2598 15.7133 19.7285 15.7133 17.8281C15.7133 15.9141 14.1821 14.3691 12.2817 14.3691L1.12545 14.3691C0.414514 14.3691-0.0503293 14.875 0.00435815 15.5859L0.45553 20.3164C0.523889 20.9043 0.961389 21.2598 1.52194 21.2598ZM12.2817 19.1133C13.0063 19.1133 13.5805 18.5527 13.5805 17.8281C13.5805 17.1035 13.0063 16.5156 12.2817 16.5156C11.5434 16.5156 10.9692 17.1035 10.9692 17.8281C10.9692 18.5527 11.5434 19.1133 12.2817 19.1133ZM4.39303 27.7266L3.91451 23.1328L2.61569 23.1328L3.0942 27.7266ZM12.2817 20.084C11.0102 20.084 9.9985 19.0859 9.9985 17.8281C9.9985 16.5703 11.0102 15.5449 12.2817 15.5449C13.5395 15.5449 14.5512 16.5703 14.5512 17.8281C14.5512 19.0859 13.5395 20.084 12.2817 20.084ZM6.56686 0C2.28756 0 0.100061 2.89844 0.619593 8.09375L2.19186 23.7344C2.32858 25.0605 4.58444 25.0605 4.43405 23.5566L2.83444 8.18945C2.43795 4.48438 3.88717 2.2832 6.71725 2.2832C11.311 2.2832 16.5063 7.32812 16.5063 13.6309C16.5063 14.1367 16.4653 14.793 16.3696 15.3945C16.7934 16.1191 17.0258 16.9395 17.0258 17.8281C17.0258 20.1523 15.3579 22.0938 13.1567 22.5039C13.0473 23.2148 13.02 23.6523 13.02 24.1172C13.02 25.7305 13.5395 26.4414 14.2368 26.4414C17.0805 26.4141 18.8032 19.0723 18.8032 13.7402C18.8032 5.67383 12.9106 0 6.56686 0Z" fill="white" fill-opacity="0.85"/>
 </g>
</svg>
