<svg version="1.1" xmlns="http://www.w3.org/2000/svg" xmlns:xlink="http://www.w3.org/1999/xlink" viewBox="0 0 46.7441 19.2637">
 <g>
  
  <path d="M9.43359 0.382812C4.21094 0.382812 0 4.60742 0 9.83008C0 15.0527 4.21094 19.2637 9.43359 19.2637L36.9551 19.2637C42.1777 19.2637 46.3887 15.0527 46.3887 9.83008C46.3887 4.60742 42.1777 0.382812 36.9551 0.382812ZM23.2012 12.8789C21.5742 12.8789 20.3438 11.6484 20.3438 10.0762L20.3438 5.94727L21.6289 5.38672L21.6289 7.66992C22.1074 7.31445 22.627 7.16406 23.2012 7.16406C24.7598 7.16406 26.0723 8.46289 26.0723 10.0762C26.0723 11.6074 24.7734 12.8789 23.2012 12.8789ZM23.2012 11.6074C24.0488 11.6074 24.7598 10.8965 24.7598 10.0762C24.7598 9.22852 24.0488 8.50391 23.2012 8.50391C22.3535 8.50391 21.6289 9.21484 21.6289 10.0762C21.6289 10.8965 22.3398 11.6074 23.2012 11.6074Z" style="fill:var(--color-0,hsl(0 0 0/0.85))"></path>
 </g>
</svg>