<svg version="1.1" xmlns="http://www.w3.org/2000/svg" xmlns:xlink="http://www.w3.org/1999/xlink" viewBox="0 0 23.9084 22.4082">
 <g>
  
  <path d="M13.5059 14.0684C15.4337 13.2344 16.3497 11.0195 15.5157 9.10547L12.7677 2.81641C11.9063 0.875 9.70516-0.0273438 7.77742 0.792969C5.86336 1.62695 4.94735 3.86914 5.78133 5.76953L8.54305 12.0586C9.37703 13.9453 11.5919 14.8887 13.5059 14.0684ZM12.1251 12.9473C10.7989 12.9473 9.75985 11.9082 9.75985 10.5957C9.75985 9.29688 10.7989 8.24414 12.1251 8.24414C13.4239 8.24414 14.463 9.29688 14.463 10.5957C14.463 11.9082 13.4376 12.9473 12.1251 12.9473ZM12.1251 11.9766C12.9044 11.9766 13.4923 11.3613 13.4923 10.5957C13.4923 9.84375 12.9044 9.21484 12.1251 9.21484C11.3184 9.21484 10.7305 9.84375 10.7305 10.5957C10.7305 11.3613 11.3184 11.9766 12.1251 11.9766ZM0.298909 10.0488C-0.726481 13.5762 0.941487 16.8301 4.45516 18.2109L7.03914 19.2363C11.3321 20.918 15.6934 20.0156 17.4161 15.2168C18.3595 12.6191 18.0723 10.3223 16.8145 8.81836C17.7852 11.334 16.5548 14.1777 14.0391 15.2852C11.4552 16.3652 8.47469 15.1758 7.33992 12.5918L4.57821 6.30273C4.42782 5.97461 4.31844 5.66016 4.25008 5.31836C2.74617 6.57617 0.996175 7.69727 0.298909 10.0488Z" style="fill:var(--color-0,hsl(0 0 0/0.85))"></path>
  <path d="M18.6602 15.668C17.6895 18.375 15.8712 20.166 13.5606 20.918C14.6134 21.8613 15.9942 22.4082 17.5118 22.4082C20.8477 22.4082 23.5548 19.7012 23.5548 16.3516C23.5548 13.5488 21.6544 11.1973 19.0841 10.5C19.4395 12.1953 19.3028 13.918 18.6602 15.668Z" style="fill:var(--color-1,hsl(0 0 0/0.85))"></path>
 </g>
</svg>