<svg version="1.1" xmlns="http://www.w3.org/2000/svg" xmlns:xlink="http://www.w3.org/1999/xlink" viewBox="0 0 35.3555 25.1699">
 <g>
  
  <path d="M15.5039 25.1699L19.4961 25.1699C23.3379 25.1699 26.1133 24.7051 28.2734 23.6523C32.8125 21.4648 35 17.1855 35 12.5781C35 10.7324 34.6445 8.94141 33.9336 7.31445L1.06641 7.31445C0.355469 8.94141 0 10.7324 0 12.5781C0 17.1855 2.1875 21.4648 6.72656 23.6523C8.88672 24.7051 11.6621 25.1699 15.5039 25.1699ZM17.5137 17.5957C15.8867 17.5957 14.6562 16.3652 14.6562 14.793L14.6562 10.6641L15.9414 10.1035L15.9414 12.3867C16.4336 12.0312 16.9395 11.8809 17.5137 11.8809C19.0586 11.8809 20.3848 13.1934 20.3848 14.793C20.3848 16.3242 19.0996 17.5957 17.5137 17.5957ZM17.5137 16.3242C18.3613 16.3242 19.0586 15.6133 19.0586 14.793C19.0586 13.9453 18.3613 13.2207 17.5137 13.2207C16.666 13.2207 15.9414 13.9316 15.9414 14.793C15.9414 15.6133 16.6523 16.3242 17.5137 16.3242ZM1.79102 5.93359L33.209 5.93359C32.1016 4.10156 30.4609 2.55664 28.2734 1.51758C26.1133 0.451172 23.3379 0 19.4961 0L15.5039 0C11.6621 0 8.88672 0.451172 6.72656 1.51758C4.53906 2.55664 2.89844 4.10156 1.79102 5.93359Z" style="fill:var(--color-0,hsl(0 0 0/0.85))"></path>
 </g>
</svg>