<svg version="1.1" xmlns="http://www.w3.org/2000/svg" xmlns:xlink="http://www.w3.org/1999/xlink" viewBox="0 0 22.3809 22.5176">
 <g>
  
  <path d="M18.8262 12.7285C18.8262 16.7754 16.1055 19.9473 12.3184 21.1777C13.3438 22.0117 14.6562 22.5176 16.0781 22.5176C19.4141 22.5176 22.0254 19.8105 22.0254 16.5703C22.0254 14.2324 20.6855 12.1953 18.7031 11.2246C18.7715 11.7168 18.8262 12.2227 18.8262 12.7285Z" style="fill:var(--color-0,hsl(0 0 0/0.85))"></path>
  <path d="M3.65039 8.58594L6.07031 12.8242C7.49219 15.2852 10.5957 16.1055 13.043 14.6836C15.4902 13.2754 16.3105 10.1855 14.916 7.73828L12.4824 3.51367C11.0742 1.05273 7.95703 0.232422 5.53711 1.64062C3.0625 3.0625 2.22852 6.125 3.65039 8.58594ZM10.7461 13.043C9.33789 13.043 8.2168 11.9355 8.2168 10.5137C8.2168 9.11914 9.33789 7.98438 10.7461 7.98438C12.1406 7.98438 13.2617 9.11914 13.2617 10.5137C13.2617 11.9355 12.1543 13.043 10.7461 13.043ZM10.7461 11.9902C11.5801 11.9902 12.209 11.3477 12.209 10.5137C12.209 9.70703 11.5801 9.03711 10.7461 9.03711C9.89844 9.03711 9.26953 9.70703 9.26953 10.5137C9.26953 11.3477 9.89844 11.9902 10.7461 11.9902ZM8.75 20.4121C13.5215 20.4121 17.5 17.2402 17.5 12.7422C17.5 11.7168 17.2812 10.6914 16.8848 9.67969C17.1172 12.0996 15.9414 14.5332 13.6992 15.8184C10.623 17.6094 6.68555 16.5703 4.92188 13.4805L2.48828 9.22852C2.07812 8.50391 1.81836 7.73828 1.70898 6.97266C0.615234 8.64062 0 10.0625 0 12.1406C0 17.1445 3.97852 20.4121 8.75 20.4121Z" style="fill:var(--color-1,hsl(0 0 0/0.85))"></path>
 </g>
</svg>