<?xml version="1.0" encoding="UTF-8"?>
<!--Generator: Apple Native CoreSVG 326-->
<!DOCTYPE svg
PUBLIC "-//W3C//DTD SVG 1.1//EN"
       "http://www.w3.org/Graphics/SVG/1.1/DTD/svg11.dtd">
<svg version="1.1" xmlns="http://www.w3.org/2000/svg" xmlns:xlink="http://www.w3.org/1999/xlink" viewBox="0 0 35 23.0918">
 <g>
  <rect height="23.0918" opacity="0" width="35" x="0" y="0"/>
  <path d="M0 21.9023C0 22.6133 0.451172 23.0645 1.16211 23.0645L1.98242 23.0645C2.67969 23.0645 3.14453 22.6133 3.14453 21.9023L3.14453 19.8789C3.29492 19.9199 3.74609 19.9473 4.07422 19.9473L30.5703 19.9473C30.8984 19.9473 31.3496 19.9199 31.5 19.8789L31.5 21.9023C31.5 22.6133 31.9648 23.0645 32.6621 23.0645L33.4824 23.0645C34.1934 23.0645 34.6445 22.6133 34.6445 21.9023L34.6445 13.7539C34.6445 11.1426 33.1953 9.70703 30.584 9.70703L4.06055 9.70703C1.44922 9.70703 0 11.1426 0 13.7539Z" fill="#66d4cf"/>
  <path d="M3.28125 7.75195L6.75391 7.75195L6.75391 5.7832C6.75391 4.51172 7.46484 3.81445 8.76367 3.81445L13.8633 3.81445C15.1484 3.81445 15.8594 4.51172 15.8594 5.7832L15.8594 7.75195L18.9629 7.75195L18.9629 5.7832C18.9629 4.51172 19.6738 3.81445 21.041 3.81445L25.8262 3.81445C27.1934 3.81445 27.9043 4.51172 27.9043 5.7832L27.9043 7.75195L31.3906 7.75195L31.3906 3.82812C31.3906 1.29883 30.0234 0 27.5625 0L7.0957 0C4.63477 0 3.28125 1.29883 3.28125 3.82812Z" fill="#66d4cf" fill-opacity="0.55"/>
 </g>
</svg>
