<?xml version="1.0" encoding="UTF-8"?>
<!--Generator: Apple Native CoreSVG 326-->
<!DOCTYPE svg
PUBLIC "-//W3C//DTD SVG 1.1//EN"
       "http://www.w3.org/Graphics/SVG/1.1/DTD/svg11.dtd">
<svg version="1.1" xmlns="http://www.w3.org/2000/svg" xmlns:xlink="http://www.w3.org/1999/xlink" viewBox="0 0 28.2461 27.9043">
 <g>
  <rect height="27.9043" opacity="0" width="28.2461" x="0" y="0"/>
  <path d="M13.9453 27.9043C21.6426 27.9043 27.8906 21.6562 27.8906 13.959C27.8906 6.27539 21.6426 0.0136719 13.9453 0.0136719C6.26172 0.0136719 0 6.27539 0 13.959C0 21.6562 6.26172 27.9043 13.9453 27.9043Z" fill="#66d4cf"/>
  <path d="M5.42773 19.0312L5.42773 15.0391C5.42773 13.7676 6.15234 13.043 7.4375 13.043L20.4531 13.043C21.7383 13.043 22.4629 13.7676 22.4629 15.0391L22.4629 19.0312C22.4629 19.3867 22.2305 19.6055 21.875 19.6055L21.4922 19.6055C21.1504 19.6055 20.918 19.3867 20.918 19.0312L20.918 18.0469C20.8359 18.0605 20.6172 18.0605 20.4531 18.0605L7.4375 18.0605C7.27344 18.0605 7.05469 18.0605 6.97266 18.0469L6.97266 19.0312C6.97266 19.3867 6.74023 19.6055 6.39844 19.6055L6.01562 19.6055C5.67383 19.6055 5.42773 19.3867 5.42773 19.0312ZM7.05469 12.0859L7.05469 10.1719C7.05469 8.94141 7.71094 8.29883 8.91406 8.29883L18.9766 8.29883C20.1797 8.29883 20.8496 8.94141 20.8496 10.1719L20.8496 12.0859L19.1406 12.0859L19.1406 11.1426C19.1406 10.5137 18.7988 10.1582 18.1016 10.1582L15.7637 10.1582C15.0938 10.1582 14.752 10.5137 14.752 11.1426L14.752 12.0859L13.2207 12.0859L13.2207 11.1426C13.2207 10.5137 12.8789 10.1582 12.25 10.1582L9.74805 10.1582C9.0918 10.1582 8.76367 10.5137 8.76367 11.1426L8.76367 12.0859Z" fill="white"/>
 </g>
</svg>
