<?xml version="1.0" encoding="UTF-8"?>
<!--Generator: Apple Native CoreSVG 326-->
<!DOCTYPE svg
PUBLIC "-//W3C//DTD SVG 1.1//EN"
       "http://www.w3.org/Graphics/SVG/1.1/DTD/svg11.dtd">
<svg version="1.1" xmlns="http://www.w3.org/2000/svg" xmlns:xlink="http://www.w3.org/1999/xlink" viewBox="0 0 28.2461 27.9043">
 <g>
  <rect height="27.9043" opacity="0" width="28.2461" x="0" y="0"/>
  <path d="M13.9453 27.8906C21.6426 27.8906 27.8906 21.6426 27.8906 13.9453C27.8906 6.24805 21.6426 0 13.9453 0C6.24805 0 0 6.24805 0 13.9453C0 21.6426 6.24805 27.8906 13.9453 27.8906ZM13.9453 25.5664C7.51953 25.5664 2.32422 20.3711 2.32422 13.9453C2.32422 7.51953 7.51953 2.32422 13.9453 2.32422C20.3711 2.32422 25.5664 7.51953 25.5664 13.9453C25.5664 20.3711 20.3711 25.5664 13.9453 25.5664Z" fill="#ff453a"/>
  <path d="M7.92969 18.8809L19.9746 18.8809C20.6719 18.8809 21.082 18.5117 21.082 17.9785C21.082 17.2129 20.3301 16.543 19.6602 15.8594C19.1406 15.3262 19.0449 14.2461 18.9902 13.3848C18.9219 10.4727 18.1426 8.47656 16.1465 7.73828C15.8457 6.76758 15.0527 5.97461 13.9453 5.97461C12.8379 5.97461 12.0586 6.76758 11.7441 7.73828C9.74805 8.47656 8.96875 10.4727 8.91406 13.3848C8.8457 14.2461 8.73633 15.3262 8.23047 15.8594C7.58789 16.5566 6.80859 17.2129 6.80859 17.9785C6.80859 18.5117 7.21875 18.8809 7.92969 18.8809ZM13.9453 22.0391C15.2305 22.0391 16.1738 21.123 16.2559 20.0156L11.6348 20.0156C11.7305 21.123 12.6602 22.0391 13.9453 22.0391Z" fill="#ff453a"/>
 </g>
</svg>
