<svg version="1.1" xmlns="http://www.w3.org/2000/svg" xmlns:xlink="http://www.w3.org/1999/xlink" viewBox="0 0 30.4473 30.1671">
 <g>
  
  <path d="M8.34337 11.8322C8.23229 12.6101 8.16685 13.4988 8.14847 14.5025C8.0391 17.1685 7.56058 18.9322 6.58988 20.0259C5.86527 20.8189 5.05863 21.6255 4.81253 22.022L4.81253 22.1861L18.7088 22.1861L20.7756 24.2505L20.1114 24.2505C20.002 26.9029 17.9375 29.1997 15.0528 29.1997C12.1543 29.1997 10.0899 26.8892 9.9805 24.2505L4.21097 24.2505C2.92582 24.2505 2.14652 23.5943 2.14652 22.5962C2.14652 21.229 3.54105 19.9986 4.7305 18.7818C5.63285 17.8384 5.86527 15.897 5.97464 14.3247C6.0038 12.6835 6.15354 11.2199 6.45256 9.94348ZM12.1133 24.2505C12.2227 26.1099 13.3985 27.272 15.0528 27.272C16.6934 27.272 17.8828 26.1099 17.9786 24.2505ZM19.0039 4.15287C22.6407 5.46537 24.0215 8.93802 24.1309 14.3247C24.2266 15.897 24.4727 17.8384 25.375 18.7818C26.5645 19.9986 27.9453 21.229 27.9453 22.5962C27.9453 22.9814 27.8313 23.3156 27.6155 23.5801L22.6779 18.6451C22.2532 17.6098 22.0288 16.25 21.9571 14.5025C21.834 8.52787 20.0567 6.62747 17.7188 5.9849C17.377 5.90287 17.1856 5.7388 17.1719 5.38333C17.1309 3.96146 16.3106 2.96341 15.0528 2.96341C13.7813 2.96341 12.9746 3.96146 12.92 5.38333C12.9063 5.7388 12.7286 5.90287 12.3868 5.9849C11.8047 6.14396 11.2577 6.3801 10.763 6.73687L9.20778 5.18256C9.75461 4.75444 10.3845 4.41166 11.1016 4.15287C11.5664 2.36185 13.0293 0.953647 15.0528 0.953647C17.0625 0.953647 18.5391 2.36185 19.0039 4.15287Z" style="fill:var(--color-0,#ff3b30)"></path>
  <path d="M2.50199 3.72904L27.0567 28.2564C27.4668 28.6802 28.1504 28.6802 28.5469 28.2564C28.9571 27.8462 28.9571 27.19 28.5469 26.7661L4.00589 2.2388C3.59574 1.82865 2.92582 1.82865 2.50199 2.2388C2.1055 2.63529 2.1055 3.33255 2.50199 3.72904Z" style="fill:var(--color-1,#ff3b30)"></path>
 </g>
</svg>