<svg version="1.1" xmlns="http://www.w3.org/2000/svg" xmlns:xlink="http://www.w3.org/1999/xlink" viewBox="0 0 26.1543 28.2598">
 <g>
  
  <path d="M0 21.6426C0 22.6406 0.765625 23.2969 2.06445 23.2969L7.83398 23.2969C7.94336 25.9355 10.0078 28.2461 12.8926 28.2461C15.791 28.2461 17.8555 25.9492 17.9648 23.2969L23.7344 23.2969C25.0195 23.2969 25.7988 22.6406 25.7988 21.6426C25.7988 20.2754 24.4043 19.0449 23.2285 17.8281C22.3262 16.8848 22.0801 14.9434 21.9707 13.3711C21.875 7.98438 20.4805 4.51172 16.8438 3.19922C16.3789 1.4082 14.916 0 12.8926 0C10.8828 0 9.40625 1.4082 8.95508 3.19922C5.31836 4.51172 3.92383 7.98438 3.82812 13.3711C3.71875 14.9434 3.47266 16.8848 2.57031 17.8281C1.38086 19.0449 0 20.2754 0 21.6426ZM2.65234 21.2324L2.65234 21.0684C2.89844 20.6719 3.71875 19.8652 4.42969 19.0723C5.41406 17.9785 5.87891 16.2148 6.00195 13.5488C6.11133 7.57422 7.88867 5.67383 10.2266 5.03125C10.5684 4.94922 10.7598 4.78516 10.7734 4.42969C10.8145 3.00781 11.6348 2.00977 12.8926 2.00977C14.1641 2.00977 14.9707 3.00781 15.0254 4.42969C15.0391 4.78516 15.2168 4.94922 15.5586 5.03125C17.9102 5.67383 19.6875 7.57422 19.7969 13.5488C19.9199 16.2148 20.3848 17.9785 21.3555 19.0723C22.0801 19.8652 22.8867 20.6719 23.1328 21.0684L23.1328 21.2324ZM9.9668 23.2969L15.832 23.2969C15.7227 25.1562 14.5469 26.3184 12.8926 26.3184C11.252 26.3184 10.0625 25.1562 9.9668 23.2969Z" style="fill:var(--color-0,#ff3b30)"></path>
 </g>
</svg>