<?xml version="1.0" encoding="UTF-8"?>
<!--Generator: Apple Native CoreSVG 326-->
<!DOCTYPE svg
PUBLIC "-//W3C//DTD SVG 1.1//EN"
       "http://www.w3.org/Graphics/SVG/1.1/DTD/svg11.dtd">
<svg version="1.1" xmlns="http://www.w3.org/2000/svg" xmlns:xlink="http://www.w3.org/1999/xlink" viewBox="0 0 26.1543 28.7793">
 <g>
  <rect height="28.7793" opacity="0" width="26.1543" x="0" y="0"/>
  <path d="M2.06445 23.2969L23.7344 23.2969C25.0195 23.2969 25.7988 22.6406 25.7988 21.6426C25.7988 20.2754 24.4043 19.0449 23.2285 17.8281C22.3262 16.8848 22.0801 14.9434 21.9707 13.3711C21.875 8.12109 20.4805 4.51172 16.8438 3.19922C16.3242 1.4082 14.916 0 12.8926 0C10.8828 0 9.46094 1.4082 8.95508 3.19922C5.31836 4.51172 3.92383 8.12109 3.82812 13.3711C3.71875 14.9434 3.47266 16.8848 2.57031 17.8281C1.38086 19.0449 0 20.2754 0 21.6426C0 22.6406 0.765625 23.2969 2.06445 23.2969ZM12.8926 28.7793C15.2168 28.7793 16.9121 27.084 17.0898 25.1699L8.70898 25.1699C8.88672 27.084 10.582 28.7793 12.8926 28.7793Z" fill="#ff453a"/>
 </g>
</svg>
