<svg version="1.1" xmlns="http://www.w3.org/2000/svg" xmlns:xlink="http://www.w3.org/1999/xlink" viewBox="0 0 49.123 28.7793">
 <g>
  
  <path d="M5.27734 23.7344C5.71484 23.2422 5.57812 22.5996 5.08594 22.0391C3.25391 20.002 2.22852 17.3223 2.22852 14.3828C2.22852 11.4434 3.25391 8.76367 5.08594 6.72656C5.57812 6.16602 5.71484 5.52344 5.27734 5.03125C4.83984 4.51172 4.07422 4.52539 3.55469 5.09961C1.28516 7.56055 0 10.8418 0 14.3828C0 17.9238 1.28516 21.1914 3.55469 23.666C4.07422 24.2402 4.83984 24.2402 5.27734 23.7344ZM43.4902 23.7344C43.9277 24.2402 44.6934 24.2402 45.2129 23.666C47.4824 21.1914 48.7676 17.9238 48.7676 14.3828C48.7676 10.8418 47.4824 7.56055 45.2129 5.09961C44.6934 4.52539 43.9277 4.51172 43.4902 5.03125C43.0527 5.52344 43.1895 6.16602 43.6816 6.72656C45.5137 8.76367 46.5391 11.4434 46.5391 14.3828C46.5391 17.3223 45.5137 20.002 43.6816 22.0391C43.1895 22.5996 43.0527 23.2422 43.4902 23.7344Z" style="fill:var(--color-0,hsl(0 0 0/0.85))"></path>
  <path d="M9.10547 19.8379C9.54297 19.3457 9.36523 18.7305 8.92773 18.1426C8.10742 17.1172 7.71094 15.8047 7.71094 14.3828C7.71094 12.9609 8.10742 11.6348 8.92773 10.623C9.36523 10.0352 9.54297 9.41992 9.10547 8.92773C8.6543 8.4082 7.83398 8.4082 7.35547 9.02344C6.16602 10.5 5.48242 12.373 5.48242 14.3828C5.48242 16.3926 6.16602 18.2656 7.35547 19.7422C7.83398 20.3574 8.6543 20.3438 9.10547 19.8379ZM39.6484 19.8379C40.1133 20.3438 40.9199 20.3574 41.4121 19.7422C42.6016 18.2656 43.2852 16.3926 43.2852 14.3828C43.2852 12.373 42.6016 10.5 41.4121 9.02344C40.9199 8.4082 40.1133 8.4082 39.6484 8.92773C39.2246 9.41992 39.4023 10.0352 39.8398 10.623C40.6465 11.6348 41.0566 12.9609 41.0566 14.3828C41.0566 15.8047 40.6465 17.1172 39.8398 18.1426C39.4023 18.7305 39.2246 19.3457 39.6484 19.8379Z" style="fill:var(--color-1,hsl(0 0 0/0.85))"></path>
  <path d="M13.5488 23.2969L35.2188 23.2969C36.5039 23.2969 37.2832 22.6406 37.2832 21.6426C37.2832 20.2754 35.8887 19.0449 34.7129 17.8281C33.8105 16.8848 33.5645 14.9434 33.4551 13.3711C33.3594 8.12109 31.9648 4.51172 28.3281 3.19922C27.8086 1.4082 26.4004 0 24.377 0C22.3672 0 20.9453 1.4082 20.4395 3.19922C16.8027 4.51172 15.4082 8.12109 15.3125 13.3711C15.2031 14.9434 14.957 16.8848 14.0547 17.8281C12.8652 19.0449 11.4844 20.2754 11.4844 21.6426C11.4844 22.6406 12.25 23.2969 13.5488 23.2969ZM24.377 28.7793C26.7012 28.7793 28.3965 27.084 28.5742 25.1699L20.1934 25.1699C20.3711 27.084 22.0664 28.7793 24.377 28.7793Z" style="fill:var(--color-2,hsl(0 0 0/0.85))"></path>
 </g>
</svg>