<?xml version="1.0" encoding="UTF-8"?>
<!--Generator: Apple Native CoreSVG 326-->
<!DOCTYPE svg
PUBLIC "-//W3C//DTD SVG 1.1//EN"
       "http://www.w3.org/Graphics/SVG/1.1/DTD/svg11.dtd">
<svg version="1.1" xmlns="http://www.w3.org/2000/svg" xmlns:xlink="http://www.w3.org/1999/xlink" viewBox="0 0 28.2461 27.9043">
 <g>
  <rect height="27.9043" opacity="0" width="28.2461" x="0" y="0"/>
  <path d="M27.8906 13.9453C27.8906 21.6426 21.6426 27.8906 13.9453 27.8906C6.24805 27.8906 0 21.6426 0 13.9453C0 6.24805 6.24805 0 13.9453 0C21.6426 0 27.8906 6.24805 27.8906 13.9453ZM2.32422 13.9453C2.32422 20.3711 7.51953 25.5664 13.9453 25.5664C20.3711 25.5664 25.5664 20.3711 25.5664 13.9453C25.5664 7.51953 20.3711 2.32422 13.9453 2.32422C7.51953 2.32422 2.32422 7.51953 2.32422 13.9453Z" fill="#ff453a"/>
  <path d="M13.9453 22.0391C12.6602 22.0391 11.7305 21.123 11.6348 20.0156L16.2559 20.0156C16.1738 21.123 15.2305 22.0391 13.9453 22.0391ZM16.6523 18.8809L7.92969 18.8809C7.21875 18.8809 6.80859 18.5117 6.80859 17.9785C6.80859 17.2129 7.58789 16.5566 8.23047 15.8594C8.73633 15.3262 8.8457 14.2461 8.91406 13.3848C8.92806 12.6396 8.98949 11.9545 9.10747 11.336ZM16.1465 7.73828C18.1426 8.47656 18.9219 10.4727 18.9902 13.3848C19.0449 14.2461 19.1406 15.3262 19.6602 15.8594C20.3301 16.543 21.082 17.2129 21.082 17.9785C21.082 18.2207 20.9974 18.429 20.839 18.5837L10.6288 8.3846C10.946 8.1116 11.3172 7.89618 11.7441 7.73828C12.0586 6.76758 12.8379 5.97461 13.9453 5.97461C15.0527 5.97461 15.8457 6.76758 16.1465 7.73828Z" fill="#ff453a"/>
  <path d="M19.7969 20.6445C20.0293 20.877 20.4395 20.8906 20.6719 20.6445C20.918 20.3984 20.918 20.0156 20.6719 19.7695L8.14844 7.23242C7.88867 6.98633 7.50586 6.98633 7.25977 7.23242C7.01367 7.47852 7.01367 7.875 7.25977 8.10742Z" fill="#ff453a"/>
 </g>
</svg>
