<svg version="1.1" xmlns="http://www.w3.org/2000/svg" xmlns:xlink="http://www.w3.org/1999/xlink" viewBox="0 0 28.2461 27.9043">
 <g>
  
  <path d="M13.9453 27.8906C21.6426 27.8906 27.8906 21.6426 27.8906 13.9453C27.8906 6.24805 21.6426 0 13.9453 0C6.24805 0 0 6.24805 0 13.9453C0 21.6426 6.24805 27.8906 13.9453 27.8906ZM13.9453 25.5664C7.51953 25.5664 2.32422 20.3711 2.32422 13.9453C2.32422 7.51953 7.51953 2.32422 13.9453 2.32422C20.3711 2.32422 25.5664 7.51953 25.5664 13.9453C25.5664 20.3711 20.3711 25.5664 13.9453 25.5664Z" style="fill:var(--color-0,hsl(0 0 0/0.85))"></path>
  <path d="M7.86133 19.4141C9.98047 19.4141 11.7031 17.6914 11.7031 15.5723C11.7031 13.4531 9.98047 11.7305 7.86133 11.7305C5.74219 11.7305 4.01953 13.4531 4.01953 15.5723C4.01953 17.6914 5.74219 19.4141 7.86133 19.4141ZM7.875 18.293C6.35742 18.293 5.14062 17.0762 5.14062 15.5449C5.14062 14.041 6.35742 12.8379 7.875 12.8379C9.37891 12.8379 10.5957 14.041 10.5957 15.5449C10.5957 17.0762 9.37891 18.293 7.875 18.293ZM7.875 16.4883C8.38086 16.4883 8.77734 16.0781 8.77734 15.5586C8.77734 15.0527 8.38086 14.6562 7.875 14.6562C7.3418 14.6562 6.94531 15.0527 6.94531 15.5586C6.94531 16.0781 7.3418 16.4883 7.875 16.4883ZM20.0293 19.4141C22.1621 19.4141 23.8711 17.6914 23.8711 15.5723C23.8711 13.4531 22.1621 11.7305 20.0293 11.7305C17.9102 11.7305 16.1875 13.4531 16.1875 15.5723C16.1875 17.6914 17.9102 19.4141 20.0293 19.4141ZM20.0566 18.293C18.5254 18.293 17.3086 17.0762 17.3086 15.5449C17.3086 14.041 18.5254 12.8379 20.0566 12.8379C21.5605 12.8379 22.7773 14.041 22.7773 15.5449C22.7773 17.0762 21.5605 18.293 20.0566 18.293ZM20.0566 16.4883C20.5625 16.4883 20.959 16.0781 20.959 15.5586C20.959 15.0527 20.5625 14.6562 20.0566 14.6562C19.5234 14.6562 19.127 15.0527 19.127 15.5586C19.127 16.0781 19.5234 16.4883 20.0566 16.4883ZM9.21484 9.48828L11.7852 9.48828C12.0859 9.48828 12.3594 9.24219 12.3594 8.95508C12.3594 8.64062 12.0996 8.38086 11.7852 8.38086L9.21484 8.38086C8.90039 8.38086 8.6543 8.64062 8.6543 8.95508C8.6543 9.24219 8.90039 9.48828 9.21484 9.48828ZM7.69727 14.9434L8.58594 15.5859L11.5664 12.291L12.9883 14.8613L11.334 14.8613L11.334 15.9141L13.125 15.9141C13.6855 15.9141 13.959 15.7773 14.2598 15.4492L17.7188 11.4023L19.3594 15.4629L20.3574 15.0117L17.3223 7.54688C17.1719 7.20508 16.9805 7.08203 16.584 7.08203L14.9023 7.08203C14.5879 7.08203 14.3281 7.32812 14.3281 7.64258C14.3281 7.92969 14.5742 8.18945 14.9023 8.18945L16.4199 8.18945L17.2676 10.2676L12.0449 10.9375L11.0332 9.10547L9.92578 9.37891L10.9512 11.2246ZM12.6191 11.9766L16.4199 11.334L13.8906 14.2461Z" style="fill:var(--color-1,hsl(0 0 0/0.85))"></path>
 </g>
</svg>