<svg version="1.1" xmlns="http://www.w3.org/2000/svg" xmlns:xlink="http://www.w3.org/1999/xlink" viewBox="0 0 35.2598 27.084">
 <g>
  
  <path d="M0 20.4121C0 24.2266 3.41797 27.084 7.60156 27.084C11.7715 27.084 15.1758 24.2266 15.1758 20.4121L15.1758 5.30469C15.1758 2.80273 13.4668 1.13477 10.8418 1.13477C8.79102 1.13477 7.15039 2.17383 6.38477 3.95117L0.697266 17.1855C0.136719 18.4844 0 19.4141 0 20.4121ZM4.07422 14.5605L8.24414 4.86719C8.70898 3.77344 9.63867 3.13086 10.7598 3.13086C12.209 3.13086 13.1387 4.08789 13.1387 5.52344L13.1387 15.9141C11.7715 14.5605 9.74805 13.7402 7.60156 13.7402C6.38477 13.7402 5.14062 14.041 4.07422 14.5605ZM2.14648 20.4121C2.14648 17.6641 4.51172 15.791 7.60156 15.791C10.6777 15.791 13.125 17.6641 13.125 20.4121C13.125 23.1602 10.6777 25.0332 7.60156 25.0332C4.51172 25.0332 2.14648 23.1602 2.14648 20.4121ZM34.9043 20.4121C34.9043 19.4141 34.7539 18.4844 34.1934 17.1855L28.5195 3.95117C27.7402 2.17383 26.1133 1.13477 24.0625 1.13477C21.4375 1.13477 19.7285 2.80273 19.7285 5.30469L19.7285 20.4121C19.7285 24.2266 23.1328 27.084 27.3027 27.084C31.4727 27.084 34.9043 24.2266 34.9043 20.4121ZM30.8301 14.5605C29.7637 14.041 28.5195 13.7402 27.3027 13.7402C25.1562 13.7402 23.1191 14.5605 21.752 15.9141L21.752 5.52344C21.752 4.08789 22.6953 3.13086 24.1445 3.13086C25.252 3.13086 26.1816 3.77344 26.6465 4.86719ZM32.7441 20.4121C32.7441 23.1602 30.3789 25.0332 27.3027 25.0332C24.2129 25.0332 21.7793 23.1602 21.7793 20.4121C21.7793 17.6641 24.2129 15.791 27.3027 15.791C30.3789 15.791 32.7441 17.6641 32.7441 20.4121ZM14.2598 17.3359C15.0527 16.8301 16.2285 16.502 17.459 16.502C18.9766 16.502 19.9609 16.7344 20.7402 17.3086L20.7402 15.2715C19.8379 14.8887 18.7578 14.7109 17.459 14.7109C16.3242 14.7109 15.2168 14.9434 14.2598 15.3398ZM14.2598 13.166C15.0527 12.6465 16.2285 12.332 17.459 12.332C18.9766 12.332 19.9609 12.5508 20.7402 13.1387L20.7402 11.1016C19.8379 10.7188 18.7578 10.541 17.459 10.541C16.3242 10.541 15.2168 10.7734 14.2598 11.1699ZM14.2598 8.98242C15.0527 8.47656 16.2285 8.14844 17.459 8.14844C18.9766 8.14844 19.9609 8.38086 20.7402 8.95508L20.7402 6.93164C19.8379 6.54883 18.7578 6.35742 17.459 6.35742C16.3242 6.35742 15.2168 6.60352 14.2598 7Z" style="fill:var(--color-0,hsl(0 0 0/0.85))"></path>
 </g>
</svg>