<svg version="1.1" xmlns="http://www.w3.org/2000/svg" xmlns:xlink="http://www.w3.org/1999/xlink" viewBox="0 0 32.4786 36.2316">
 <g>
  
  <path d="M22.7334 8.9898C20.6827 8.9898 19.1514 10.1246 18.0713 12.8316C14.1202 8.79839 7.81743 5.20269 1.52837 4.72417C0.256885 4.64214 0.0518071 5.5855 0.0244633 6.37847C-0.413037 13.3375 5.06939 19.3394 12.3155 19.8589C10.3331 24.5621 7.18853 28.2125 4.08501 31.1109C3.59282 31.5621 3.71587 32.1773 4.04399 32.6695C5.62993 35.1031 10.5928 36.566 13.9561 35.4039C14.6944 35.1304 14.8311 34.775 14.8311 34.1597L14.8311 28.9644C18.5088 28.8003 24.4561 26.4214 23.4854 18.8472L23.335 17.7671C26.1651 17.0972 28.0518 15.3199 28.0518 13.5015C28.0518 11.3277 25.6592 8.9898 22.7334 8.9898ZM24.169 13.7339C23.7042 13.7339 23.3213 13.3648 23.3213 12.9C23.3213 12.4488 23.7042 12.0523 24.169 12.0523C24.6202 12.0523 25.003 12.4488 25.003 12.9C25.003 13.3648 24.6202 13.7339 24.169 13.7339ZM26.1788 15.5113L31.169 16.2222C32.0987 16.3589 32.5362 14.9781 31.5928 14.5816L27.0811 12.6675ZM20.9698 7.36285C19.2061 4.21831 16.9639 1.92144 14.0792 0.267143C13.0264-0.33442 11.96 0.116752 11.6729 1.25152C11.2764 2.65972 11.0303 4.0816 10.9483 5.4898C13.4092 6.69292 15.6651 8.19683 17.5792 9.83746C18.5225 8.53863 19.6709 7.73199 20.9698 7.36285Z" style="fill:var(--color-0,hsl(0 0 0/0.85))"></path>
 </g>
</svg>