<svg version="1.1" xmlns="http://www.w3.org/2000/svg" xmlns:xlink="http://www.w3.org/1999/xlink" viewBox="0 0 32.4664 36.3409">
 <g>
  
  <path d="M22.8709 8.77105C20.8338 8.77105 19.2615 9.89214 18.1541 12.5035C14.1892 8.52496 7.92752 4.98394 1.67948 4.50542C0.284944 4.40972 0.052522 5.4898 0.0251783 6.29644C-0.412322 13.146 4.90604 19.107 11.742 19.8863C9.93729 23.9058 7.50369 27.7339 4.12674 30.9332C3.57987 31.439 3.73026 32.15 4.07205 32.6558C5.68533 35.1441 10.7303 36.6207 14.1346 35.4449C14.9549 35.1578 15.0916 34.7066 15.0916 34.0777L15.0916 29.0054C18.824 28.8003 24.7303 26.3394 23.7596 18.7515L23.6228 17.7945C26.4256 17.0835 28.326 15.2652 28.326 13.4332C28.326 11.191 25.8514 8.77105 22.8709 8.77105ZM22.9939 10.7398C24.949 10.7398 26.3572 12.1617 26.3572 13.4332C26.3572 14.4722 24.9764 15.6753 22.324 16.0445C21.9139 16.0855 21.6131 16.3863 21.6541 16.7691L21.8318 18.8062C22.4197 25.8335 16.9783 26.8316 13.8064 26.982C13.4099 26.9957 13.1092 27.2691 13.1092 27.6793L13.1092 33.6675C13.1092 33.8043 13.0545 33.9136 12.9041 33.9273C10.2517 34.4058 7.36698 33.4488 5.99979 32.0406C5.90408 31.9449 5.86307 31.7945 5.97244 31.6988C9.66385 28.1578 12.1795 23.8648 14.0662 19.3531C14.326 18.7242 14.0799 18.2183 13.4373 18.191C6.92948 18.0269 2.04862 13.2418 1.99393 6.77496C1.99393 6.56988 2.03494 6.51519 2.25369 6.54253C8.02323 7.25347 13.4783 10.521 16.6092 13.7613C17.1697 14.3218 17.5662 14.6089 18.1131 14.6089C19.0017 14.6089 19.4256 14.1714 19.8767 13.2554C20.6697 11.6148 21.367 10.7398 22.9939 10.7398ZM20.4373 10.3843L22.283 9.74175C20.3826 5.33941 17.7713 2.30425 14.2166 0.267143C13.1639-0.33442 12.0974 0.116752 11.8103 1.25152C11.1267 3.7398 10.8533 6.13238 11.1814 8.62066L13.3279 9.63238C12.8357 7.1441 12.9314 4.97027 13.5056 2.64605C13.5467 2.39996 13.7928 2.31792 13.9978 2.44097C16.7596 4.24566 18.824 6.73394 20.4373 10.3843ZM23.8963 13.7886C24.3474 13.7886 24.7303 13.4195 24.7303 12.9546C24.7303 12.5035 24.3474 12.107 23.8963 12.107C23.4178 12.107 23.0486 12.5035 23.0486 12.9546C23.0486 13.4195 23.4178 13.7886 23.8963 13.7886ZM26.1795 15.566L31.1697 16.2769C32.0994 16.4136 32.5369 15.0328 31.5935 14.6363L27.0818 12.7222Z" style="fill:var(--color-0,hsl(0 0 0/0.85))"></path>
 </g>
</svg>