<?xml version="1.0" encoding="UTF-8"?>
<!--Generator: Apple Native CoreSVG 326-->
<!DOCTYPE svg
PUBLIC "-//W3C//DTD SVG 1.1//EN"
       "http://www.w3.org/Graphics/SVG/1.1/DTD/svg11.dtd">
<svg version="1.1" xmlns="http://www.w3.org/2000/svg" xmlns:xlink="http://www.w3.org/1999/xlink" viewBox="0 0 28.2461 27.9043">
 <g>
  <rect height="27.9043" opacity="0" width="28.2461" x="0" y="0"/>
  <path d="M13.9453 27.8906C21.6426 27.8906 27.8906 21.6426 27.8906 13.9453C27.8906 6.24805 21.6426 0 13.9453 0C6.24805 0 0 6.24805 0 13.9453C0 21.6426 6.24805 27.8906 13.9453 27.8906ZM13.9453 25.5664C7.51953 25.5664 2.32422 20.3711 2.32422 13.9453C2.32422 7.51953 7.51953 2.32422 13.9453 2.32422C20.3711 2.32422 25.5664 7.51953 25.5664 13.9453C25.5664 20.3711 20.3711 25.5664 13.9453 25.5664Z" fill="white" fill-opacity="0.85"/>
  <path d="M17.8145 9.46094C16.8164 9.46094 16.0508 10.0215 15.5176 11.3613C13.5898 9.37891 10.5 7.60156 7.41016 7.36914C6.76758 7.32812 6.68555 7.79297 6.67188 8.17578C6.43945 11.5801 9.13281 14.5332 12.7012 14.7793C11.7441 17.0762 10.1855 18.8945 8.6543 20.3301C8.4082 20.5352 8.47656 20.8496 8.62695 21.082C9.41992 22.2715 11.8535 22.9824 13.4941 22.4219C13.8496 22.2852 13.918 22.1074 13.918 21.8203L13.918 19.2773C15.7363 19.1816 18.5664 18.0332 18.1699 14.2871L18.1016 13.7676C18.9219 13.5625 19.5781 13.1797 19.9746 12.7285L21.9434 13.0156C22.3809 13.0703 22.6133 12.3867 22.1484 12.209L20.3984 11.4707C20.2617 10.459 19.168 9.46094 17.8145 9.46094ZM12.0176 7.75195C13.2344 8.35352 14.3418 9.0918 15.2852 9.88477C15.75 9.25586 16.3105 8.85938 16.9395 8.68164C16.0781 7.13672 14.9707 5.98828 13.5625 5.18164C13.043 4.88086 12.5234 5.11328 12.3867 5.66016C12.1953 6.35742 12.0586 7.05469 12.0176 7.75195ZM18.0195 11.375C18.0195 11.1152 18.252 10.8965 18.498 10.8965C18.7715 10.8965 18.9902 11.1152 18.9902 11.375C18.9902 11.6484 18.7715 11.8535 18.498 11.8535C18.252 11.8535 18.0195 11.6484 18.0195 11.375Z" fill="white" fill-opacity="0.85"/>
 </g>
</svg>
