<svg version="1.1" xmlns="http://www.w3.org/2000/svg" xmlns:xlink="http://www.w3.org/1999/xlink" viewBox="0 0 31.8418 31.0762">
 <g>
  
  <path d="M15.75 5.27734C16.748 5.27734 17.541 4.38867 17.541 3.24023C17.541 2.06445 17.1719 1.29883 16.5156 0.533203C16.0781-0.0136719 15.4902-0.0273438 15.0391 0.451172C14.3828 1.24414 13.959 2.02344 13.959 3.24023C13.959 4.38867 14.7656 5.27734 15.75 5.27734ZM14.9707 11.5801L16.4883 11.5801L16.4883 3.81445L14.9707 3.81445ZM6.82227 18.2656L9.02344 18.2656L9.02344 14.957C9.02344 13.6582 9.74805 12.9609 10.9922 12.9609L20.4941 12.9609C21.7383 12.9609 22.4766 13.6582 22.4766 14.957L22.4766 18.2656L24.6777 18.2656L24.6777 14.8477C24.6777 12.1406 23.2832 10.7598 20.5352 10.7598L10.9648 10.7598C8.23047 10.7598 6.82227 12.1406 6.82227 14.8477ZM2.16016 30.1191L4.36133 30.1191L4.36133 21.875C4.36133 20.5762 5.08594 19.8652 6.33008 19.8652L25.1562 19.8652C26.4004 19.8652 27.125 20.5762 27.125 21.875L27.125 30.1191L29.3262 30.1191L29.3262 21.752C29.3262 19.0449 27.9316 17.6641 25.1973 17.6641L6.30273 17.6641C3.56836 17.6641 2.16016 19.0449 2.16016 21.752ZM15.7363 24.541C16.9258 24.541 17.8691 26.0723 19.8789 26.0723C21.8203 26.0723 22.6816 24.541 23.8027 24.541C24.9238 24.541 25.7988 26.0723 27.918 26.0723L28.2871 26.0723L28.2871 23.9395L27.918 23.9395C26.6191 23.9395 25.6895 22.4082 23.8027 22.4082C21.9023 22.4082 21.1914 23.9395 19.8789 23.9395C18.3066 23.9395 17.6641 22.4082 15.7363 22.4082C13.7949 22.4082 13.166 23.9395 11.5938 23.9395C10.2812 23.9395 9.57031 22.4082 7.66992 22.4082C5.76953 22.4082 4.85352 23.9395 3.55469 23.9395L3.10352 23.9395L3.10352 26.0723L3.55469 26.0723C5.67383 26.0723 6.54883 24.541 7.66992 24.541C8.77734 24.541 9.65234 26.0723 11.5938 26.0723C13.6035 26.0723 14.5332 24.541 15.7363 24.541ZM1.09375 31.0762L30.3926 31.0762C30.9941 31.0762 31.4863 30.5703 31.4863 29.9688C31.4863 29.3672 30.9941 28.875 30.3926 28.875L1.09375 28.875C0.492188 28.875 0 29.3672 0 29.9688C0 30.5703 0.492188 31.0762 1.09375 31.0762Z" style="fill:var(--color-0,hsl(0 0 0/0.85))"></path>
 </g>
</svg>