<?xml version="1.0" encoding="UTF-8"?>
<!--Generator: Apple Native CoreSVG 326-->
<!DOCTYPE svg
PUBLIC "-//W3C//DTD SVG 1.1//EN"
       "http://www.w3.org/Graphics/SVG/1.1/DTD/svg11.dtd">
<svg version="1.1" xmlns="http://www.w3.org/2000/svg" xmlns:xlink="http://www.w3.org/1999/xlink" viewBox="0 0 25.5254 25.1699">
 <g>
  <rect height="25.1699" opacity="0" width="25.5254" x="0" y="0"/>
  <path d="M4.29297 25.1699L20.877 25.1699C23.748 25.1699 25.1699 23.7617 25.1699 20.9453L25.1699 4.23828C25.1699 1.42188 23.748 0 20.877 0L4.29297 0C1.43555 0 0 1.42188 0 4.23828L0 20.9453C0 23.7617 1.43555 25.1699 4.29297 25.1699ZM4.32031 22.9688C2.95312 22.9688 2.20117 22.2441 2.20117 20.8223L2.20117 4.36133C2.20117 2.93945 2.95312 2.20117 4.32031 2.20117L20.8496 2.20117C22.2031 2.20117 22.9688 2.93945 22.9688 4.36133L22.9688 20.8223C22.9688 22.2441 22.2031 22.9688 20.8496 22.9688Z" fill="white" fill-opacity="0.85"/>
  <path d="M9.74805 18.6074L13.1523 18.6074C15.5312 18.6074 17.3086 17.4863 17.3086 15.2441C17.3086 13.6445 16.1875 12.4824 14.4785 12.291L14.4785 12.209C15.8184 11.9902 16.6934 10.7871 16.6934 9.58398C16.6934 7.65625 15.1074 6.58984 13.125 6.58984L9.74805 6.58984C9.16016 6.58984 8.75 7 8.75 7.58789L8.75 17.6094C8.75 18.2109 9.16016 18.6074 9.74805 18.6074ZM10.3633 11.7578L10.3633 7.92969L12.7285 7.92969C14.041 7.92969 15.0801 8.44922 15.0801 9.77539C15.0801 11.252 13.8359 11.7578 12.3457 11.7578ZM10.3633 17.2539L10.3633 13.0703L12.7148 13.0703C14.3145 13.0703 15.6816 13.5762 15.6816 15.1621C15.6816 16.7207 14.4102 17.2539 12.8516 17.2539ZM10.5 7.38281L11.416 7.38281L11.416 5.29102C11.416 5.00391 11.2246 4.8125 10.9648 4.8125C10.6914 4.8125 10.5 5.00391 10.5 5.29102ZM12.7148 7.38281L13.6309 7.38281L13.6309 5.29102C13.6309 5.00391 13.4531 4.8125 13.166 4.8125C12.9062 4.8125 12.7148 5.00391 12.7148 5.29102ZM10.5 17.8008L10.5 19.9473C10.5 20.207 10.6914 20.3984 10.9648 20.3984C11.2246 20.3984 11.416 20.207 11.416 19.9473L11.416 17.8008ZM12.7148 17.8008L12.7148 19.9473C12.7148 20.207 12.9062 20.3984 13.166 20.3984C13.4531 20.3984 13.6309 20.207 13.6309 19.9473L13.6309 17.8008Z" fill="white" fill-opacity="0.85"/>
 </g>
</svg>
