<?xml version="1.0" encoding="UTF-8"?>
<!--Generator: Apple Native CoreSVG 326-->
<!DOCTYPE svg
PUBLIC "-//W3C//DTD SVG 1.1//EN"
       "http://www.w3.org/Graphics/SVG/1.1/DTD/svg11.dtd">
<svg version="1.1" xmlns="http://www.w3.org/2000/svg" xmlns:xlink="http://www.w3.org/1999/xlink" viewBox="0 0 30.8848 29.1895">
 <g>
  <rect height="29.1895" opacity="0" width="30.8848" x="0" y="0"/>
  <path d="M1.81836 25.9219L28.7109 25.9219L28.7109 25.0059C28.7109 24.459 28.3965 24.1309 27.8359 24.1309L26.9609 24.1309L26.9609 9.37891L28.1641 9.37891C28.916 9.37891 29.3535 8.83203 29.3535 8.27148C29.3535 7.86133 29.1211 7.50586 28.6152 7.21875L16.9395 0.478516C16.3926 0.164062 15.8184 0 15.2578 0C14.6973 0 14.1094 0.164062 13.5898 0.478516L1.91406 7.21875C1.39453 7.50586 1.17578 7.86133 1.17578 8.27148C1.17578 8.83203 1.61328 9.37891 2.36523 9.37891L3.56836 9.37891L3.56836 24.1309L2.70703 24.1309C2.14648 24.1309 1.81836 24.459 1.81836 25.0059ZM5.63281 24.1309L5.63281 7.62891L14.7246 2.5293C14.8887 2.43359 15.0801 2.37891 15.2578 2.37891C15.4355 2.37891 15.627 2.43359 15.8047 2.5293L24.8965 7.62891L24.8965 24.1309ZM1.09375 29.1758L29.4219 29.1758C30.0234 29.1758 30.5293 28.6699 30.5293 28.0684C30.5293 27.4668 30.0234 26.9746 29.4219 26.9746L1.09375 26.9746C0.492188 26.9746 0 27.4668 0 28.0684C0 28.6699 0.492188 29.1758 1.09375 29.1758Z" fill="white" fill-opacity="0.85"/>
  <path d="M12.4277 20.4121L15.832 20.4121C18.2109 20.4121 19.9883 19.291 19.9883 17.0625C19.9883 15.4492 18.8535 14.3008 17.1582 14.0957L17.1582 14.0273C18.498 13.8086 19.373 12.6055 19.373 11.3887C19.373 9.46094 17.7871 8.4082 15.8047 8.4082L12.4277 8.4082C11.8262 8.4082 11.4297 8.80469 11.4297 9.40625L11.4297 19.4141C11.4297 20.0156 11.8262 20.4121 12.4277 20.4121ZM13.043 13.5762L13.043 9.73438L15.4082 9.73438C16.7207 9.73438 17.7598 10.2676 17.7598 11.5801C17.7598 13.0566 16.502 13.5762 15.0254 13.5762ZM13.043 19.0723L13.043 14.875L15.3809 14.875C16.9941 14.875 18.3613 15.3945 18.3613 16.9668C18.3613 18.5254 17.0898 19.0723 15.5312 19.0723ZM13.1797 9.20117L14.0957 9.20117L14.0957 7.0957C14.0957 6.82227 13.9043 6.63086 13.6445 6.63086C13.3711 6.63086 13.1797 6.82227 13.1797 7.0957ZM15.3945 9.20117L16.3105 9.20117L16.3105 7.0957C16.3105 6.82227 16.1191 6.63086 15.8457 6.63086C15.5859 6.63086 15.3945 6.82227 15.3945 7.0957ZM13.1797 19.6055L13.1797 21.752C13.1797 22.0117 13.3711 22.2031 13.6445 22.2031C13.9043 22.2031 14.0957 22.0117 14.0957 21.752L14.0957 19.6055ZM15.3945 19.6055L15.3945 21.752C15.3945 22.0117 15.5859 22.2031 15.8457 22.2031C16.1191 22.2031 16.3105 22.0117 16.3105 21.752L16.3105 19.6055Z" fill="white" fill-opacity="0.85"/>
 </g>
</svg>
