<svg version="1.1" xmlns="http://www.w3.org/2000/svg" xmlns:xlink="http://www.w3.org/1999/xlink" viewBox="0 0 30.9258 30.584">
 <g>
  
  <path d="M15.2852 30.5703C23.6797 30.5703 30.5703 23.6797 30.5703 15.2852C30.5703 6.89062 23.6797 0 15.2852 0C6.89062 0 0 6.89062 0 15.2852C0 23.6797 6.89062 30.5703 15.2852 30.5703ZM15.2852 25.4844C9.65234 25.4844 5.08594 20.918 5.08594 15.2852C5.08594 9.63867 9.65234 5.08594 15.2852 5.08594C20.9316 5.08594 25.4844 9.63867 25.4844 15.2852C25.4844 20.918 20.9316 25.4844 15.2852 25.4844Z" style="fill:var(--color-0,hsl(0 0 0/0.85))"></path>
  <path d="M12.4414 21.3145L15.8457 21.3145C18.2246 21.3145 20.002 20.1934 20.002 17.9512C20.002 16.3516 18.8809 15.1895 17.1719 14.998L17.1719 14.916C18.5117 14.6973 19.3867 13.4941 19.3867 12.291C19.3867 10.3633 17.8008 9.29688 15.8184 9.29688L12.4414 9.29688C11.8535 9.29688 11.4434 9.70703 11.4434 10.2949L11.4434 20.3164C11.4434 20.918 11.8535 21.3145 12.4414 21.3145ZM13.0566 14.4648L13.0566 10.6367L15.4219 10.6367C16.7344 10.6367 17.7734 11.1562 17.7734 12.4824C17.7734 13.959 16.5293 14.4648 15.0391 14.4648ZM13.0566 19.9609L13.0566 15.7773L15.4082 15.7773C17.0078 15.7773 18.375 16.2832 18.375 17.8691C18.375 19.4277 17.1035 19.9609 15.5449 19.9609ZM13.1934 10.0898L14.1094 10.0898L14.1094 7.99805C14.1094 7.71094 13.918 7.51953 13.6582 7.51953C13.3848 7.51953 13.1934 7.71094 13.1934 7.99805ZM15.4082 10.0898L16.3242 10.0898L16.3242 7.99805C16.3242 7.71094 16.1465 7.51953 15.8594 7.51953C15.5996 7.51953 15.4082 7.71094 15.4082 7.99805ZM13.1934 20.5078L13.1934 22.6543C13.1934 22.9141 13.3848 23.1055 13.6582 23.1055C13.918 23.1055 14.1094 22.9141 14.1094 22.6543L14.1094 20.5078ZM15.4082 20.5078L15.4082 22.6543C15.4082 22.9141 15.5996 23.1055 15.8594 23.1055C16.1465 23.1055 16.3242 22.9141 16.3242 22.6543L16.3242 20.5078Z" style="fill:var(--color-1,hsl(0 0 0/0.85))"></path>
 </g>
</svg>