<svg version="1.1" xmlns="http://www.w3.org/2000/svg" xmlns:xlink="http://www.w3.org/1999/xlink" viewBox="0 0 28.2461 27.9043">
 <g>
  
  <path d="M13.9453 27.8906C21.6426 27.8906 27.8906 21.6426 27.8906 13.9453C27.8906 6.24805 21.6426 0 13.9453 0C6.24805 0 0 6.24805 0 13.9453C0 21.6426 6.24805 27.8906 13.9453 27.8906ZM13.9453 25.5664C7.51953 25.5664 2.32422 20.3711 2.32422 13.9453C2.32422 7.51953 7.51953 2.32422 13.9453 2.32422C20.3711 2.32422 25.5664 7.51953 25.5664 13.9453C25.5664 20.3711 20.3711 25.5664 13.9453 25.5664Z" style="fill:var(--color-0,hsl(0 0 0/0.85))"></path>
  <path d="M11.0879 19.9746L14.4922 19.9746C16.8711 19.9746 18.6484 18.8535 18.6484 16.6113C18.6484 15.0117 17.5273 13.8496 15.8184 13.6582L15.8184 13.5762C17.1582 13.3574 18.0332 12.1543 18.0332 10.9512C18.0332 9.02344 16.4473 7.95703 14.4648 7.95703L11.0879 7.95703C10.4863 7.95703 10.0898 8.36719 10.0898 8.95508L10.0898 18.9766C10.0898 19.5781 10.4863 19.9746 11.0879 19.9746ZM11.7031 13.125L11.7031 9.29688L14.0684 9.29688C15.3809 9.29688 16.4199 9.81641 16.4199 11.1426C16.4199 12.6191 15.1621 13.125 13.6855 13.125ZM11.7031 18.6211L11.7031 14.4375L14.0547 14.4375C15.6543 14.4375 17.0215 14.9434 17.0215 16.5293C17.0215 18.0879 15.75 18.6211 14.1914 18.6211ZM11.8398 8.75L12.7559 8.75L12.7559 6.6582C12.7559 6.37109 12.5645 6.17969 12.3047 6.17969C12.0312 6.17969 11.8398 6.37109 11.8398 6.6582ZM14.0547 8.75L14.9707 8.75L14.9707 6.6582C14.9707 6.37109 14.7793 6.17969 14.5059 6.17969C14.2461 6.17969 14.0547 6.37109 14.0547 6.6582ZM11.8398 19.168L11.8398 21.3145C11.8398 21.5742 12.0312 21.7656 12.3047 21.7656C12.5645 21.7656 12.7559 21.5742 12.7559 21.3145L12.7559 19.168ZM14.0547 19.168L14.0547 21.3145C14.0547 21.5742 14.2461 21.7656 14.5059 21.7656C14.7793 21.7656 14.9707 21.5742 14.9707 21.3145L14.9707 19.168Z" style="fill:var(--color-1,hsl(0 0 0/0.85))"></path>
 </g>
</svg>