<?xml version="1.0" encoding="UTF-8"?>
<!--Generator: Apple Native CoreSVG 326-->
<!DOCTYPE svg
PUBLIC "-//W3C//DTD SVG 1.1//EN"
       "http://www.w3.org/Graphics/SVG/1.1/DTD/svg11.dtd">
<svg version="1.1" xmlns="http://www.w3.org/2000/svg" xmlns:xlink="http://www.w3.org/1999/xlink" viewBox="0 0 33.291 27.3099">
 <g>
  <rect height="27.3099" opacity="0" width="33.291" x="0" y="0"/>
  <path d="M32.9355 16.3962C32.9355 7.78289 26.3184 0.714533 17.8965 0.00359537C17.459-0.0374203 17.1309 0.277033 17.1309 0.714533L17.1309 5.18524C17.1309 5.55438 17.3906 5.84149 17.7598 5.86883C22.9961 6.51141 27.0703 10.9821 27.0703 16.3962C27.0703 18.8571 26.2227 21.1266 24.7324 23.027C24.541 23.2595 24.5547 23.5602 24.7598 23.779L28.0273 27.0329C28.3281 27.3337 28.793 27.3337 29.0664 27.0055C31.4863 24.1345 32.9355 20.4294 32.9355 16.3962Z" fill="white" fill-opacity="0.85"/>
  <path d="M0 16.3962C0 20.443 1.44922 24.1481 3.86914 27.0192C4.14258 27.3473 4.59375 27.3337 4.9082 27.0329L8.17578 23.779C8.38086 23.5602 8.39453 23.2595 8.20312 23.027C6.69922 21.1266 5.86523 18.8571 5.86523 16.3962C5.86523 10.9821 9.93945 6.51141 15.1758 5.86883C15.5449 5.84149 15.8047 5.55438 15.8047 5.18524L15.8047 0.714533C15.8047 0.277033 15.4766-0.0374203 15.0391 0.00359537C6.61719 0.714533 0 7.78289 0 16.3962Z" fill="white" fill-opacity="0.85"/>
  <path d="M13.6035 22.6032L17.0078 22.6032C19.4004 22.6032 21.1641 21.4821 21.1641 19.2536C21.1641 17.6403 20.043 16.4919 18.334 16.2868L18.334 16.2184C19.6738 15.9997 20.5488 14.7966 20.5488 13.5798C20.5488 11.652 18.9629 10.5993 16.9805 10.5993L13.6035 10.5993C13.0156 10.5993 12.6055 10.9958 12.6055 11.5973L12.6055 21.6052C12.6055 22.2067 13.0156 22.6032 13.6035 22.6032ZM14.2188 15.7673L14.2188 11.9255L16.584 11.9255C17.8965 11.9255 18.9492 12.4587 18.9492 13.7712C18.9492 15.2477 17.6914 15.7673 16.2012 15.7673ZM14.2188 21.2634L14.2188 17.0661L16.5703 17.0661C18.1699 17.0661 19.5371 17.5856 19.5371 19.1579C19.5371 20.7165 18.2656 21.2634 16.707 21.2634ZM14.3555 11.3923L15.2852 11.3923L15.2852 9.2868C15.2852 9.01336 15.0938 8.82195 14.8203 8.82195C14.5469 8.82195 14.3555 9.01336 14.3555 9.2868ZM16.5703 11.3923L17.5 11.3923L17.5 9.2868C17.5 9.01336 17.3086 8.82195 17.0352 8.82195C16.7617 8.82195 16.5703 9.01336 16.5703 9.2868ZM14.3555 21.7966L14.3555 23.943C14.3555 24.2028 14.5469 24.3942 14.8203 24.3942C15.0938 24.3942 15.2852 24.2028 15.2852 23.943L15.2852 21.7966ZM16.5703 21.7966L16.5703 23.943C16.5703 24.2028 16.7617 24.3942 17.0352 24.3942C17.3086 24.3942 17.5 24.2028 17.5 23.943L17.5 21.7966Z" fill="white" fill-opacity="0.85"/>
 </g>
</svg>
