<svg version="1.1" xmlns="http://www.w3.org/2000/svg" xmlns:xlink="http://www.w3.org/1999/xlink" viewBox="0 0 29.3398 27.9316">
 <g>
  
  <path d="M4.29297 6.4668L25.0742 6.4668C25.7441 6.4668 26.1543 6.31641 26.5098 5.97461L27.6855 4.8125C28.0684 4.44336 27.9453 3.67773 27.2754 3.67773L6.49414 3.67773C5.82422 3.67773 5.41406 3.82812 5.05859 4.16992L3.88281 5.33203C3.5 5.70117 3.62305 6.4668 4.29297 6.4668ZM4.29297 13.5215L25.0742 13.5215C25.7441 13.5215 26.1543 13.3848 26.5098 13.043L27.6855 11.8672C28.0684 11.5117 27.9453 10.7461 27.2754 10.7461L6.49414 10.7461C5.82422 10.7461 5.41406 10.8965 5.05859 11.2383L3.88281 12.4004C3.5 12.7695 3.62305 13.5215 4.29297 13.5215ZM4.29297 20.5488L25.0742 20.5488C25.7441 20.5488 26.1543 20.3984 26.5098 20.043L27.6855 18.8809C28.0684 18.5254 27.9453 17.7734 27.2754 17.7734L6.49414 17.7734C5.82422 17.7734 5.41406 17.9102 5.05859 18.2656L3.88281 19.4277C3.5 19.7969 3.62305 20.5488 4.29297 20.5488ZM4.29297 27.6172L25.0742 27.6172C25.7441 27.6172 26.1543 27.4531 26.5098 27.0977L27.6855 25.9355C28.0684 25.5801 27.9453 24.8145 27.2754 24.8145L6.49414 24.8145C5.82422 24.8145 5.41406 24.9648 5.05859 25.3203L3.88281 26.4824C3.5 26.8516 3.62305 27.6172 4.29297 27.6172Z" style="fill:var(--color-0,hsl(0 0 0/0.85))"></path>
  <path d="M0 1.09375C0 1.69531 0.505859 2.20117 1.10742 2.20117L27.918 2.20117C28.5195 2.20117 29.0254 1.69531 29.0254 1.09375C29.0254 0.492188 28.5195 0 27.918 0L1.10742 0C0.505859 0 0 0.492188 0 1.09375ZM1.10742 5.37305C1.61328 5.37305 2.03711 4.94922 2.03711 4.44336C2.03711 3.92383 1.61328 3.51367 1.10742 3.51367C0.587891 3.51367 0.164062 3.92383 0.164062 4.44336C0.164062 4.94922 0.587891 5.37305 1.10742 5.37305ZM1.10742 8.54492C1.61328 8.54492 2.03711 8.10742 2.03711 7.60156C2.03711 7.0957 1.61328 6.67188 1.10742 6.67188C0.587891 6.67188 0.164062 7.0957 0.164062 7.60156C0.164062 8.10742 0.587891 8.54492 1.10742 8.54492ZM1.10742 11.7031C1.61328 11.7031 2.03711 11.2793 2.03711 10.7734C2.03711 10.2539 1.61328 9.84375 1.10742 9.84375C0.587891 9.84375 0.164062 10.2539 0.164062 10.7734C0.164062 11.2793 0.587891 11.7031 1.10742 11.7031ZM1.10742 14.875C1.61328 14.875 2.03711 14.4375 2.03711 13.9316C2.03711 13.4258 1.61328 13.002 1.10742 13.002C0.587891 13.002 0.164062 13.4258 0.164062 13.9316C0.164062 14.4375 0.587891 14.875 1.10742 14.875ZM1.10742 18.0332C1.61328 18.0332 2.03711 17.6094 2.03711 17.1035C2.03711 16.584 1.61328 16.1738 1.10742 16.1738C0.587891 16.1738 0.164062 16.584 0.164062 17.1035C0.164062 17.6094 0.587891 18.0332 1.10742 18.0332ZM1.10742 21.2051C1.61328 21.2051 2.03711 20.7676 2.03711 20.2617C2.03711 19.7559 1.61328 19.332 1.10742 19.332C0.587891 19.332 0.164062 19.7559 0.164062 20.2617C0.164062 20.7676 0.587891 21.2051 1.10742 21.2051ZM1.10742 27.918C1.69531 27.918 2.20117 27.4258 2.20117 26.8242L2.20117 23.5977C2.20117 22.9961 1.70898 22.5039 1.10742 22.5039C0.505859 22.5039 0 22.9961 0 23.5977L0 26.8242C0 27.4258 0.505859 27.918 1.10742 27.918Z" style="fill:var(--color-1,hsl(0 0 0/0.85))"></path>
 </g>
</svg>