<?xml version="1.0" encoding="UTF-8"?>
<!--Generator: Apple Native CoreSVG 326-->
<!DOCTYPE svg
PUBLIC "-//W3C//DTD SVG 1.1//EN"
       "http://www.w3.org/Graphics/SVG/1.1/DTD/svg11.dtd">
<svg version="1.1" xmlns="http://www.w3.org/2000/svg" xmlns:xlink="http://www.w3.org/1999/xlink" viewBox="0 0 29.3398 27.9316">
 <g>
  <rect height="27.9316" opacity="0" width="29.3398" x="0" y="0"/>
  <path d="M4.44336 25.1152C4.44336 25.7715 4.59375 26.1953 4.93555 26.5371L6.09766 27.7266C6.4668 28.0957 7.23242 27.9727 7.23242 27.3027L7.23242 6.26172C7.23242 5.5918 7.08203 5.18164 6.74023 4.82617L5.57812 3.65039C5.20898 3.26758 4.44336 3.39062 4.44336 4.06055ZM11.3477 25.1152C11.3477 25.7715 11.4844 26.1953 11.8398 26.5371L13.002 27.7266C13.3711 28.0957 14.123 27.9727 14.123 27.3027L14.123 6.26172C14.123 5.5918 13.9863 5.18164 13.6309 4.82617L12.4688 3.65039C12.0996 3.26758 11.3477 3.39062 11.3477 4.06055ZM18.2383 25.1152C18.2383 25.7715 18.3887 26.1953 18.7305 26.5371L19.8926 27.7266C20.2617 28.0957 21.0273 27.9727 21.0273 27.3027L21.0273 6.26172C21.0273 5.5918 20.877 5.18164 20.5352 4.82617L19.373 3.65039C19.0039 3.26758 18.2383 3.39062 18.2383 4.06055ZM25.1426 25.1152C25.1426 25.7715 25.2793 26.1953 25.6348 26.5371L26.7969 27.7266C27.166 28.0957 27.918 27.9727 27.918 27.3027L27.918 6.26172C27.918 5.5918 27.7812 5.18164 27.4258 4.82617L26.2637 3.65039C25.8945 3.26758 25.1426 3.39062 25.1426 4.06055Z" fill="white" fill-opacity="0.85"/>
  <path d="M0 1.09375C0 1.69531 0.505859 2.20117 1.10742 2.20117L27.918 2.20117C28.5195 2.20117 29.0254 1.69531 29.0254 1.09375C29.0254 0.492188 28.5195 0 27.918 0L1.10742 0C0.505859 0 0 0.492188 0 1.09375ZM1.10742 5.37305C1.61328 5.37305 2.03711 4.94922 2.03711 4.44336C2.03711 3.92383 1.61328 3.51367 1.10742 3.51367C0.587891 3.51367 0.164062 3.92383 0.164062 4.44336C0.164062 4.94922 0.587891 5.37305 1.10742 5.37305ZM1.10742 8.54492C1.61328 8.54492 2.03711 8.10742 2.03711 7.60156C2.03711 7.0957 1.61328 6.67188 1.10742 6.67188C0.587891 6.67188 0.164062 7.0957 0.164062 7.60156C0.164062 8.10742 0.587891 8.54492 1.10742 8.54492ZM1.10742 11.7031C1.61328 11.7031 2.03711 11.2793 2.03711 10.7734C2.03711 10.2539 1.61328 9.84375 1.10742 9.84375C0.587891 9.84375 0.164062 10.2539 0.164062 10.7734C0.164062 11.2793 0.587891 11.7031 1.10742 11.7031ZM1.10742 14.875C1.61328 14.875 2.03711 14.4375 2.03711 13.9316C2.03711 13.4258 1.61328 13.002 1.10742 13.002C0.587891 13.002 0.164062 13.4258 0.164062 13.9316C0.164062 14.4375 0.587891 14.875 1.10742 14.875ZM1.10742 18.0332C1.61328 18.0332 2.03711 17.6094 2.03711 17.1035C2.03711 16.584 1.61328 16.1738 1.10742 16.1738C0.587891 16.1738 0.164062 16.584 0.164062 17.1035C0.164062 17.6094 0.587891 18.0332 1.10742 18.0332ZM1.10742 21.2051C1.61328 21.2051 2.03711 20.7676 2.03711 20.2617C2.03711 19.7559 1.61328 19.332 1.10742 19.332C0.587891 19.332 0.164062 19.7559 0.164062 20.2617C0.164062 20.7676 0.587891 21.2051 1.10742 21.2051ZM1.10742 27.918C1.69531 27.918 2.20117 27.4258 2.20117 26.8242L2.20117 23.5977C2.20117 22.9961 1.70898 22.5039 1.10742 22.5039C0.505859 22.5039 0 22.9961 0 23.5977L0 26.8242C0 27.4258 0.505859 27.918 1.10742 27.918Z" fill="white" fill-opacity="0.85"/>
 </g>
</svg>
