<svg version="1.1" xmlns="http://www.w3.org/2000/svg" xmlns:xlink="http://www.w3.org/1999/xlink" viewBox="0 0 36.9277 28.6426">
 <g>
  
  <path d="M21.4648 28.6426L35.7656 28.6426C36.2031 28.6426 36.5723 28.3008 36.5723 27.8359C36.5723 27.3711 36.2031 27.0156 35.7656 27.0156L21.4648 27.0156C21.0273 27.0156 20.6582 27.3711 20.6582 27.8359C20.6582 28.3008 21.0273 28.6426 21.4648 28.6426Z" style="fill:var(--color-0,#ff3b30)"></path>
  <path d="M28.6152 24.4453C33.5371 24.4453 36.5723 21.4922 36.5723 17.1992L36.5723 5.48242C36.5723 4.7168 36.0664 4.22461 35.3008 4.22461C34.5352 4.22461 34.043 4.7168 34.043 5.48242L34.043 16.9941C34.043 20.043 32.0332 22.1074 28.6152 22.1074C25.1973 22.1074 23.1875 20.043 23.1875 16.9941L23.1875 5.48242C23.1875 4.7168 22.668 4.22461 21.9023 4.22461C21.1367 4.22461 20.6582 4.7168 20.6582 5.48242L20.6582 17.1992C20.6582 21.4922 23.6934 24.4453 28.6152 24.4453Z" style="fill:var(--color-1,hsl(0 0 0/0.85))"></path>
  <path d="M2.31055 24.0898L9.43359 24.0898C13.6172 24.0898 16.2559 21.8887 16.2559 18.5117C16.2559 15.8457 14.3281 13.918 11.5527 13.7676L11.5527 13.6582C13.8223 13.3438 15.3672 11.6348 15.3672 9.46094C15.3672 6.41211 13.0293 4.53906 9.24219 4.53906L2.31055 4.53906C0.847656 4.53906 0 5.40039 0 6.9043L0 21.7383C0 23.2285 0.847656 24.0898 2.31055 24.0898ZM4.51172 20.9316L4.51172 15.5039L7.94336 15.5039C10.3359 15.5039 11.6758 16.4336 11.6758 18.1836C11.6758 19.9746 10.3906 20.9316 8.03906 20.9316ZM4.51172 12.6602L4.51172 7.75195L7.875 7.75195C9.78906 7.75195 10.9238 8.62695 10.9238 10.1309C10.9238 11.7168 9.66602 12.6602 7.5332 12.6602Z" style="fill:var(--color-2,hsl(0 0 0/0.85))"></path>
 </g>
</svg>