<svg version="1.1" xmlns="http://www.w3.org/2000/svg" xmlns:xlink="http://www.w3.org/1999/xlink" viewBox="0 0 28.2461 27.9043">
 <g>
  
  <path d="M13.9453 27.8906C21.6426 27.8906 27.8906 21.6426 27.8906 13.9453C27.8906 6.24805 21.6426 0 13.9453 0C6.24805 0 0 6.24805 0 13.9453C0 21.6426 6.24805 27.8906 13.9453 27.8906ZM13.9453 25.5664C7.51953 25.5664 2.32422 20.3711 2.32422 13.9453C2.32422 7.51953 7.51953 2.32422 13.9453 2.32422C20.3711 2.32422 25.5664 7.51953 25.5664 13.9453C25.5664 20.3711 20.3711 25.5664 13.9453 25.5664Z" style="fill:var(--color-0,#ffcc00)"></path>
  <path d="M7.94336 14.8887C7.94336 15.2305 8.2168 15.4766 8.57227 15.4766L13.207 15.4766L10.7324 22.1211C10.4043 22.9961 11.334 23.4746 11.9082 22.7637L19.4004 13.3574C19.5508 13.1934 19.6328 13.002 19.6328 12.8242C19.6328 12.4824 19.3594 12.2363 19.0039 12.2363L14.3691 12.2363L16.8438 5.5918C17.1719 4.7168 16.2422 4.23828 15.668 4.93555L8.17578 14.3418C8.02539 14.5195 7.94336 14.7109 7.94336 14.8887Z" style="fill:var(--color-1,#ffcc00)"></path>
 </g>
</svg>