<?xml version="1.0" encoding="UTF-8"?>
<!--Generator: Apple Native CoreSVG 326-->
<!DOCTYPE svg
PUBLIC "-//W3C//DTD SVG 1.1//EN"
       "http://www.w3.org/Graphics/SVG/1.1/DTD/svg11.dtd">
<svg version="1.1" xmlns="http://www.w3.org/2000/svg" xmlns:xlink="http://www.w3.org/1999/xlink" viewBox="0 0 34.7266 25.9902">
 <g>
  <rect height="25.9902" opacity="0" width="34.7266" x="0" y="0"/>
  <path d="M30.0508 10.5C32.7168 11.6211 34.3711 14.1094 34.3711 16.9805C34.3711 20.7402 31.1445 23.7617 27.0156 23.7617L8.18945 23.7617C3.51367 23.7617 0 20.3848 0 16.3652C0 13.0293 1.92773 10.2676 5.01758 9.77539C5.08594 5.94727 8.75 3.39062 12.1133 4.375C13.7539 1.98242 16.3926 0 20.0977 0C25.6895 0 30.0781 4.40234 30.0508 10.5ZM12.8105 9.51562L8.06641 15.6543C7.42383 16.4883 8.25781 17.2402 9.06445 16.8164L13.7266 14.2871L19.8652 17.5684C20.1523 17.7188 20.3984 17.8145 20.6309 17.8145C20.9453 17.8145 21.2598 17.6504 21.5469 17.2949L26.3184 11.1289C26.9062 10.3496 26.1543 9.54297 25.3203 9.99414L20.6309 12.5234L14.4922 9.22852C14.2188 9.0918 13.9727 8.98242 13.7129 8.98242C13.4121 8.98242 13.1113 9.14648 12.8105 9.51562Z" fill="white" fill-opacity="0.85"/>
 </g>
</svg>
