<svg version="1.1" xmlns="http://www.w3.org/2000/svg" xmlns:xlink="http://www.w3.org/1999/xlink" viewBox="0 0 28.2461 27.9043">
 <g>
  
  <path d="M13.9453 27.9043C21.6426 27.9043 27.8906 21.6562 27.8906 13.959C27.8906 6.27539 21.6426 0.0136719 13.9453 0.0136719C6.26172 0.0136719 0 6.27539 0 13.959C0 21.6562 6.26172 27.9043 13.9453 27.9043Z" style="fill:var(--color-0,#28cd41)"></path>
  <path d="M6.20703 18.6348L6.20703 14.8887C6.20703 13.7949 6.43945 13.166 7.04102 12.4004L7.60156 11.6758C7.84766 10.4863 8.25781 9.25586 8.49023 8.77734C8.8457 8.03906 9.51562 7.60156 10.377 7.49219C10.8281 7.4375 12.25 7.41016 13.9453 7.41016C15.627 7.41016 17.0625 7.4375 17.5 7.49219C18.375 7.61523 19.0449 8.03906 19.3867 8.77734C19.6191 9.25586 20.0293 10.4863 20.2891 11.6758L20.8359 12.4004C21.4512 13.166 21.6699 13.7949 21.6699 14.8887L21.6699 18.6348C21.6699 19.127 21.2871 19.5098 20.8086 19.5098L20.0293 19.5098C19.5371 19.5098 19.1543 19.127 19.1543 18.6348L19.1543 17.5547C17.7051 17.6504 15.627 17.7051 13.9453 17.7051C12.2637 17.7051 10.1719 17.6504 8.72266 17.5547L8.72266 18.6348C8.72266 19.127 8.33984 19.5098 7.86133 19.5098L7.08203 19.5098C6.58984 19.5098 6.20703 19.127 6.20703 18.6348ZM11.6211 13.0703C11.6211 13.2207 11.7441 13.3438 11.9082 13.3438L13.6719 13.3438L12.8105 15.6953C12.6465 16.1191 13.0977 16.3516 13.3711 16.0098L16.1738 12.3867C16.2148 12.3047 16.2695 12.209 16.2695 12.127C16.2695 11.9629 16.1465 11.8398 15.9824 11.8398L14.2188 11.8535L15.0938 9.48828C15.2441 9.06445 14.8203 8.85938 14.5469 9.20117L11.7168 12.8242C11.6484 12.9062 11.6211 12.9883 11.6211 13.0703Z" style="fill:var(--color-1,white)"></path>
 </g>
</svg>