<?xml version="1.0" encoding="UTF-8"?>
<!--Generator: Apple Native CoreSVG 326-->
<!DOCTYPE svg
PUBLIC "-//W3C//DTD SVG 1.1//EN"
       "http://www.w3.org/Graphics/SVG/1.1/DTD/svg11.dtd">
<svg version="1.1" xmlns="http://www.w3.org/2000/svg" xmlns:xlink="http://www.w3.org/1999/xlink" viewBox="0 0 25.5254 25.1699">
 <g>
  <rect height="25.1699" opacity="0" width="25.5254" x="0" y="0"/>
  <path d="M4.29297 25.1699L20.877 25.1699C23.748 25.1699 25.1699 23.7617 25.1699 20.9453L25.1699 4.23828C25.1699 1.42188 23.748 0 20.877 0L4.29297 0C1.43555 0 0 1.42188 0 4.23828L0 20.9453C0 23.7617 1.43555 25.1699 4.29297 25.1699Z" fill="#ffd60a"/>
  <path d="M6.42578 13.5488C6.42578 13.3711 6.50781 13.166 6.6582 12.9883L14.3828 3.29492C14.9707 2.57031 15.9551 3.0625 15.5996 3.96484L13.0566 10.8145L17.8281 10.8145C18.1973 10.8145 18.4707 11.0742 18.4707 11.4297C18.4707 11.6074 18.3887 11.8125 18.252 11.9766L10.5137 21.6699C9.92578 22.4082 8.95508 21.916 9.29688 21.0137L11.8535 14.1641L7.06836 14.1641C6.71289 14.1641 6.42578 13.9043 6.42578 13.5488Z" fill="white"/>
 </g>
</svg>
