<svg version="1.1" xmlns="http://www.w3.org/2000/svg" xmlns:xlink="http://www.w3.org/1999/xlink" viewBox="0 0 28.2461 27.9043">
 <g>
  
  <path d="M13.9453 27.8906C21.6426 27.8906 27.8906 21.6426 27.8906 13.9453C27.8906 6.24805 21.6426 0 13.9453 0C6.24805 0 0 6.24805 0 13.9453C0 21.6426 6.24805 27.8906 13.9453 27.8906ZM13.9453 25.5664C7.51953 25.5664 2.32422 20.3711 2.32422 13.9453C2.32422 7.51953 7.51953 2.32422 13.9453 2.32422C20.3711 2.32422 25.5664 7.51953 25.5664 13.9453C25.5664 20.3711 20.3711 25.5664 13.9453 25.5664Z" style="fill:var(--color-0,hsl(0 0 0/0.85))"></path>
  <path d="M5.09961 16.543C4.4707 17.3496 5.29102 18.0742 6.07031 17.6641L10.5957 15.2168L16.543 18.4023C16.8027 18.5527 17.0625 18.6348 17.2812 18.6348C17.5957 18.6348 17.8828 18.4707 18.1699 18.1289L22.791 12.1543C23.3652 11.4023 22.6406 10.623 21.8203 11.0605L17.2676 13.5078L11.334 10.3086C11.0605 10.1719 10.8145 10.0762 10.582 10.0762C10.2676 10.0762 9.98047 10.2402 9.70703 10.5957Z" style="fill:var(--color-1,hsl(0 0 0/0.85))"></path>
 </g>
</svg>