<?xml version="1.0" encoding="UTF-8"?>
<!--Generator: Apple Native CoreSVG 326-->
<!DOCTYPE svg
PUBLIC "-//W3C//DTD SVG 1.1//EN"
       "http://www.w3.org/Graphics/SVG/1.1/DTD/svg11.dtd">
<svg version="1.1" xmlns="http://www.w3.org/2000/svg" xmlns:xlink="http://www.w3.org/1999/xlink" viewBox="0 0 22.7227 27.6035">
 <g>
  <rect height="27.6035" opacity="0" width="22.7227" x="0" y="0"/>
  <path d="M11.1836 27.6035C11.4023 27.6035 11.7441 27.5215 12.0859 27.3438C19.8652 23.2695 22.3672 21.2324 22.3672 16.3242L22.3672 6.01562C22.3672 4.60742 21.7656 4.15625 20.6172 3.67773C19.0176 3.02148 13.9043 1.16211 12.3184 0.615234C11.9492 0.492188 11.5664 0.423828 11.1836 0.423828C10.8008 0.423828 10.418 0.505859 10.0625 0.615234C8.46289 1.13477 3.34961 3.03516 1.75 3.67773C0.615234 4.14258 0 4.60742 0 6.01562L0 16.3242C0 21.2324 2.63867 23.0371 10.2812 27.3438C10.6367 27.5352 10.9648 27.6035 11.1836 27.6035Z" fill="white" fill-opacity="0.85"/>
  <path d="M5.03125 14.4648C5.03125 14.3008 5.11328 14.0957 5.25 13.918L12.9883 4.22461C13.5762 3.48633 14.5469 3.97852 14.2051 4.89453L11.6484 11.7305L16.4336 11.7305C16.7891 11.7305 17.0762 11.9902 17.0762 12.3594C17.0762 12.5234 16.9941 12.7285 16.8438 12.9062L9.11914 22.5996C8.53125 23.3379 7.54688 22.8457 7.90234 21.9434L10.4453 15.0938L5.67383 15.0938C5.30469 15.0938 5.03125 14.834 5.03125 14.4648Z" fill="white"/>
 </g>
</svg>
