<?xml version="1.0" encoding="UTF-8"?>
<!--Generator: Apple Native CoreSVG 326-->
<!DOCTYPE svg
PUBLIC "-//W3C//DTD SVG 1.1//EN"
       "http://www.w3.org/Graphics/SVG/1.1/DTD/svg11.dtd">
<svg version="1.1" xmlns="http://www.w3.org/2000/svg" xmlns:xlink="http://www.w3.org/1999/xlink" viewBox="0 0 28.2461 27.9043">
 <g>
  <rect height="27.9043" opacity="0" width="28.2461" x="0" y="0"/>
  <path d="M13.9453 27.8906C21.6426 27.8906 27.8906 21.6426 27.8906 13.9453C27.8906 6.24805 21.6426 0 13.9453 0C6.24805 0 0 6.24805 0 13.9453C0 21.6426 6.24805 27.8906 13.9453 27.8906ZM13.9453 25.5664C7.51953 25.5664 2.32422 20.3711 2.32422 13.9453C2.32422 7.51953 7.51953 2.32422 13.9453 2.32422C20.3711 2.32422 25.5664 7.51953 25.5664 13.9453C25.5664 20.3711 20.3711 25.5664 13.9453 25.5664Z" fill="#32d74b"/>
  <path d="M6.43945 18.4707C6.43945 18.9492 6.80859 19.3047 7.28711 19.3047L8.03906 19.3047C8.50391 19.3047 8.87305 18.9492 8.87305 18.4707L8.87305 17.418C10.2812 17.5 12.3184 17.5684 13.9453 17.5684C15.5723 17.5684 17.5957 17.5 19.0039 17.418L19.0039 18.4707C19.0039 18.9492 19.373 19.3047 19.8516 19.3047L20.6035 19.3047C21.0684 19.3047 21.4375 18.9492 21.4375 18.4707L21.4375 14.8203C21.4375 13.7676 21.2188 13.166 20.6309 12.4004L20.0977 11.7168C19.8516 10.5684 19.4414 9.36523 19.2363 8.90039C18.8945 8.18945 18.2383 7.7793 17.3906 7.65625C16.9668 7.60156 15.5723 7.57422 13.9453 7.57422C12.3047 7.57422 10.9238 7.60156 10.4863 7.65625C9.65234 7.76562 8.99609 8.18945 8.6543 8.90039C8.43555 9.36523 8.02539 10.5684 7.79297 11.7168L7.24609 12.4004C6.67188 13.166 6.43945 13.7676 6.43945 14.8203ZM11.6895 13.0703C11.6895 12.9883 11.7168 12.9062 11.7852 12.8242L14.5332 9.31055C14.793 8.96875 15.2031 9.1875 15.0527 9.58398L14.2051 11.8672L15.9141 11.8672C16.0781 11.8672 16.2012 11.9902 16.2012 12.1543C16.2012 12.2227 16.1465 12.3184 16.1055 12.3867L13.3848 15.9004C13.125 16.2422 12.6875 16.0098 12.8379 15.6133L13.6855 13.3164L11.9766 13.3164C11.8125 13.3164 11.6895 13.207 11.6895 13.0703Z" fill="#32d74b"/>
 </g>
</svg>
