<?xml version="1.0" encoding="UTF-8"?>
<!--Generator: Apple Native CoreSVG 326-->
<!DOCTYPE svg
PUBLIC "-//W3C//DTD SVG 1.1//EN"
       "http://www.w3.org/Graphics/SVG/1.1/DTD/svg11.dtd">
<svg version="1.1" xmlns="http://www.w3.org/2000/svg" xmlns:xlink="http://www.w3.org/1999/xlink" viewBox="0 0 27.2891 25.9355">
 <g>
  <rect height="25.9355" opacity="0" width="27.2891" x="0" y="0"/>
  <path d="M0 9.0918C0 14.916 4.88086 20.6445 12.5918 25.5664C12.8789 25.7441 13.3027 25.9355 13.5762 25.9355C13.8633 25.9355 14.2734 25.7441 14.5742 25.5664C22.2852 20.6445 27.166 14.916 27.166 9.0918C27.166 4.25195 23.8438 0.833984 19.4004 0.833984C16.8711 0.833984 14.8203 2.03711 13.5762 3.88281C12.3594 2.05078 10.2949 0.833984 7.75195 0.833984C3.32227 0.833984 0 4.25195 0 9.0918ZM2.20117 9.0918C2.20117 5.45508 4.55273 3.03516 7.72461 3.03516C10.3086 3.03516 11.7715 4.63477 12.6602 6.00195C13.0293 6.54883 13.2617 6.69922 13.5762 6.69922C13.9043 6.69922 14.1094 6.53516 14.5059 6.00195C15.4492 4.66211 16.8711 3.03516 19.4277 3.03516C22.6133 3.03516 24.9648 5.45508 24.9648 9.0918C24.9648 14.1777 19.5918 19.6602 13.8633 23.4609C13.7266 23.5566 13.6309 23.625 13.5762 23.625C13.5352 23.625 13.4395 23.5566 13.3027 23.4609C7.57422 19.6602 2.20117 14.1777 2.20117 9.0918Z" fill="white" fill-opacity="0.85"/>
  <path d="M9.13281 14.7246C9.13281 14.9707 9.33789 15.1484 9.59766 15.1484L12.9883 15.1484L11.1699 20.002C10.9375 20.6445 11.6211 21 12.0449 20.4805L17.5137 13.6035C17.623 13.4805 17.6914 13.3301 17.6914 13.207C17.6914 12.9609 17.4727 12.7695 17.2129 12.7695L13.8359 12.7695L15.6406 7.92969C15.873 7.27344 15.1895 6.93164 14.7793 7.45117L9.29688 14.3281C9.20117 14.4648 9.13281 14.5879 9.13281 14.7246Z" fill="white" fill-opacity="0.85"/>
 </g>
</svg>
