<svg version="1.1" xmlns="http://www.w3.org/2000/svg" xmlns:xlink="http://www.w3.org/1999/xlink" viewBox="0 0 34.7266 25.9902">
 <g>
  
  <path d="M27.0156 23.7617C31.1445 23.7617 34.3711 20.7402 34.3711 16.9805C34.3711 14.1094 32.7168 11.6211 30.0508 10.5C30.0781 4.40234 25.6895 0 20.0977 0C16.3926 0 13.7539 1.98242 12.1133 4.375C8.75 3.39062 5.08594 5.94727 5.01758 9.77539C1.92773 10.2676 0 13.0293 0 16.3652C0 20.3848 3.51367 23.7617 8.18945 23.7617ZM27.0156 21.5605L8.18945 21.5605C4.74414 21.5605 2.20117 19.1543 2.20117 16.3652C2.20117 13.6309 3.85547 11.457 6.75391 11.457C6.94531 11.457 7.01367 11.3613 7.01367 11.1836C7.01367 6.97266 10.0488 5.72852 12.8516 6.64453C13.0156 6.69922 13.1113 6.6582 13.1934 6.50781C14.5195 4.14258 16.5566 2.20117 20.0977 2.20117C24.582 2.20117 27.6855 5.75586 27.918 9.81641C27.959 10.4453 27.918 11.1836 27.8633 11.8262C27.8496 12.0039 27.918 12.0996 28.082 12.1406C30.5703 12.6875 32.1699 14.5059 32.1699 16.9805C32.1699 19.5234 29.9277 21.5605 27.0156 21.5605Z" style="fill:var(--color-0,hsl(0 0 0/0.85))"></path>
  <path d="M8.35352 15.5859C7.72461 16.3926 8.54492 17.1172 9.32422 16.707L13.8496 14.2598L19.7969 17.4453C20.0566 17.5957 20.3164 17.6777 20.5352 17.6777C20.8496 17.6777 21.1504 17.5137 21.4238 17.1719L26.0449 11.1973C26.6191 10.4453 25.8945 9.66602 25.0742 10.1035L20.5215 12.5508L14.5879 9.35156C14.3281 9.21484 14.0684 9.11914 13.8359 9.11914C13.5215 9.11914 13.2344 9.2832 12.9609 9.63867Z" style="fill:var(--color-1,hsl(0 0 0/0.85))"></path>
 </g>
</svg>