<svg version="1.1" xmlns="http://www.w3.org/2000/svg" xmlns:xlink="http://www.w3.org/1999/xlink" viewBox="0 0 28.2461 27.9043">
 <g>
  
  <path d="M13.9453 27.9043C21.6426 27.9043 27.8906 21.6562 27.8906 13.959C27.8906 6.27539 21.6426 0.0136719 13.9453 0.0136719C6.26172 0.0136719 0 6.27539 0 13.959C0 21.6562 6.26172 27.9043 13.9453 27.9043Z" style="fill:var(--color-0,#ffcc00)"></path>
  <path d="M15.8067 18.1209L11.8672 23.0645C11.2793 23.7891 10.3086 23.2969 10.6504 22.3945L13.207 15.5449L8.42188 15.5449C8.05273 15.5449 7.7793 15.2852 7.7793 14.9297C7.7793 14.752 7.86133 14.5469 8.01172 14.3828L9.80667 12.1272ZM7.94336 7.04102L20.877 19.9746C21.123 20.2344 21.123 20.6172 20.877 20.877C20.6309 21.123 20.207 21.123 19.9746 20.877L7.02734 7.94336C6.79492 7.69727 6.78125 7.28711 7.02734 7.04102C7.28711 6.78125 7.69727 6.78125 7.94336 7.04102ZM19.8242 12.8105C19.8242 12.9883 19.7422 13.1934 19.5918 13.3711L17.8577 15.5472L14.5059 12.1953L19.1816 12.1953C19.5508 12.1953 19.8242 12.4551 19.8242 12.8105ZM16.9531 5.3457L14.4262 12.1157L11.8589 9.54833L15.7363 4.67578C16.3242 3.95117 17.2949 4.44336 16.9531 5.3457Z" style="fill:var(--color-1,white)"></path>
 </g>
</svg>