<?xml version="1.0" encoding="UTF-8"?>
<!--Generator: Apple Native CoreSVG 326-->
<!DOCTYPE svg
PUBLIC "-//W3C//DTD SVG 1.1//EN"
       "http://www.w3.org/Graphics/SVG/1.1/DTD/svg11.dtd">
<svg version="1.1" xmlns="http://www.w3.org/2000/svg" xmlns:xlink="http://www.w3.org/1999/xlink" viewBox="0 0 19.6191 30.7811">
 <g>
  <rect height="30.7811" opacity="0" width="19.6191" x="0" y="0"/>
  <path d="M6.48047 29.9853L18.9082 14.0029C19.1406 13.7158 19.2637 13.4423 19.2637 13.1279C19.2637 12.6083 18.8535 12.2118 18.2793 12.2118L10.5547 12.2118L14.6289 1.57513C15.1758 0.166927 13.6719-0.598698 12.7832 0.577083L0.355469 16.5458C0.123047 16.8466 0 17.1201 0 17.4208C0 17.954 0.410156 18.3505 0.984375 18.3505L8.70898 18.3505L4.63477 28.9736C4.08789 30.3818 5.5918 31.1474 6.48047 29.9853ZM7.28711 26.3076L11.8672 16.3134L3.41797 16.3134L12.3457 4.4599L11.9629 4.25482L7.39648 14.249L15.832 14.249L6.9043 26.1025Z" fill="#ffd60a"/>
 </g>
</svg>
