<?xml version="1.0" encoding="UTF-8"?>
<!--Generator: Apple Native CoreSVG 326-->
<!DOCTYPE svg
PUBLIC "-//W3C//DTD SVG 1.1//EN"
       "http://www.w3.org/Graphics/SVG/1.1/DTD/svg11.dtd">
<svg version="1.1" xmlns="http://www.w3.org/2000/svg" xmlns:xlink="http://www.w3.org/1999/xlink" viewBox="0 0 33.5918 32.0879">
 <g>
  <rect height="32.0879" opacity="0" width="33.5918" x="0" y="0"/>
  <path d="M31.0851 7.41975C30.5433 7.16644 29.9379 7.02734 29.2988 7.02734C28.4394 7.02734 27.6389 7.27892 26.9689 7.71531C26.3512 6.70394 25.1562 6.05664 23.4609 6.05664C21.4561 6.05664 19.44 6.98158 17.6604 8.45603C19.6019 10.5574 21.2348 13.0571 22.3198 15.5256C23.6861 14.9835 24.7661 14.2684 25.568 13.4758C26.0098 14.2479 26.6876 14.866 27.5046 15.2344C26.3114 16.14 24.8268 16.9071 23.0472 17.4544C23.5128 18.8542 23.7617 20.2031 23.7617 21.4238C23.7617 25.9902 20.6445 29.2852 16.2422 29.2852C16.0982 29.2852 15.9556 29.2817 15.8185 29.2655C16.3611 28.5512 16.6797 27.658 16.6797 26.6875C16.6797 26.2641 16.6186 25.8554 16.5023 25.4707C19.0836 25.3359 20.8496 23.1126 20.8496 20.0703C20.8496 19.4092 20.78 18.7268 20.6363 18.0334C19.3113 18.2851 17.8462 18.416 16.2559 18.416C14.6749 18.416 13.2003 18.2808 11.8511 18.024C11.7055 18.7206 11.6348 19.4062 11.6348 20.0703C11.6348 20.9262 11.7745 21.7172 12.0371 22.412C10.8381 22.5032 9.78383 23.0803 9.06591 23.9458C8.84039 23.1673 8.72266 22.3212 8.72266 21.4238C8.72266 20.1979 8.97491 18.8428 9.44575 17.4368C4.22541 15.8229 1.25781 12.4012 1.25781 9.03711C1.25781 7.13262 1.9132 5.54602 3.18168 4.48858C3.24469 6.02089 4.10648 7.3434 5.36377 8.04866C5.15192 8.498 5.04492 9.00796 5.04492 9.55664C5.04492 11.4372 6.52947 14.0897 10.1685 15.531C11.2588 13.0596 12.9002 10.5566 14.8503 8.45308C13.7196 7.50699 12.4884 6.79307 11.2246 6.40145C11.574 5.78061 11.7715 5.06147 11.7715 4.29297C11.7715 4.18775 11.7677 4.08344 11.7558 3.98141C13.3206 4.66777 14.8464 5.73758 16.2561 7.03877C18.856 4.64849 21.8438 3.03516 24.7324 3.03516C28.4042 3.03516 30.567 5.0334 31.0851 7.41975ZM12.3432 16.1809C13.4869 16.4303 14.7892 16.5703 16.2559 16.5703C17.6999 16.5703 18.9949 16.4294 20.1455 16.1803C19.3729 13.8608 17.9794 11.5645 16.2544 9.74857C14.522 11.5647 13.1205 13.8612 12.3432 16.1809Z" fill="#98989d"/>
  <path d="M7.46484 6.97266C8.95508 6.97266 10.1445 5.7832 10.1445 4.29297C10.1445 2.81641 8.95508 1.61328 7.46484 1.61328C5.98828 1.61328 4.78516 2.81641 4.78516 4.29297C4.78516 5.7832 5.98828 6.97266 7.46484 6.97266ZM29.2988 14.0137C30.7891 14.0137 31.9785 12.8105 31.9785 11.334C31.9785 9.84375 30.7754 8.64062 29.2988 8.64062C27.8086 8.64062 26.6191 9.84375 26.6191 11.334C26.6191 12.8105 27.8086 14.0137 29.2988 14.0137ZM12.3867 29.3672C13.8633 29.3672 15.0664 28.1777 15.0664 26.6875C15.0664 25.1973 13.8633 24.0078 12.3867 24.0078C10.8965 24.0078 9.69336 25.1973 9.69336 26.6875C9.69336 28.1777 10.8965 29.3672 12.3867 29.3672Z" fill="#ff9f0a"/>
 </g>
</svg>
