<?xml version="1.0" encoding="UTF-8"?>
<!--Generator: Apple Native CoreSVG 326-->
<!DOCTYPE svg
PUBLIC "-//W3C//DTD SVG 1.1//EN"
       "http://www.w3.org/Graphics/SVG/1.1/DTD/svg11.dtd">
<svg version="1.1" xmlns="http://www.w3.org/2000/svg" xmlns:xlink="http://www.w3.org/1999/xlink" viewBox="0 0 34.1387 31.2129">
 <g>
  <rect height="31.2129" opacity="0" width="34.1387" x="0" y="0"/>
  <path d="M0 27.1113C0 29.2168 1.01172 30.2559 3.11719 30.2559L21.793 30.2559C23.8848 30.2559 24.9102 29.2168 24.9102 27.1113L24.9102 3.1582C24.9102 1.05273 23.8848 0 21.793 0L19.1133 0C17.0215 0 15.9961 1.05273 15.9961 3.1582L15.9961 8.58594C15.6953 8.51758 15.3398 8.46289 14.957 8.46289L8.99609 8.46289C8.59961 8.46289 8.25781 8.51758 7.94336 8.58594L7.94336 6.94531C7.94336 4.83984 6.93164 3.78711 4.83984 3.78711L3.11719 3.78711C1.01172 3.78711 0 4.83984 0 6.94531ZM2.06445 26.9473L2.06445 7.0957C2.06445 6.28906 2.48828 5.85156 3.33594 5.85156L4.62109 5.85156C5.46875 5.85156 5.87891 6.28906 5.87891 7.0957L5.87891 28.1914L3.33594 28.1914C2.48828 28.1914 2.06445 27.7539 2.06445 26.9473ZM7.94336 28.1914L7.94336 11.7715C7.94336 10.9648 8.36719 10.5273 9.21484 10.5273L14.7383 10.5273C15.5859 10.5273 15.9961 10.9648 15.9961 11.7715L15.9961 28.1914ZM18.0605 28.1914L18.0605 3.30859C18.0605 2.50195 18.4844 2.06445 19.332 2.06445L21.5742 2.06445C22.4355 2.06445 22.8457 2.50195 22.8457 3.30859L22.8457 26.9473C22.8457 27.7539 22.4355 28.1914 21.5742 28.1914ZM9.1875 13.1797C9.1875 13.6582 9.54297 14.0273 10.0488 14.0273L13.9316 14.0273C14.4102 14.0273 14.7793 13.6582 14.7793 13.1797C14.7793 12.7148 14.4102 12.3457 13.9316 12.3457L10.0488 12.3457C9.54297 12.3457 9.1875 12.7148 9.1875 13.1797ZM9.1875 25.5391C9.1875 26.0176 9.54297 26.3867 10.0488 26.3867L13.9316 26.3867C14.4102 26.3867 14.7793 26.0176 14.7793 25.5391C14.7793 25.0742 14.4102 24.7051 13.9316 24.7051L10.0488 24.7051C9.54297 24.7051 9.1875 25.0742 9.1875 25.5391ZM26.1406 27.4941C26.4004 29.5723 27.5078 30.543 29.5996 30.2559L31.0215 30.0645C33.1133 29.7773 33.9746 28.6699 33.7422 26.5918L31.3906 6.15234C31.1445 4.07422 30.0234 3.08984 27.9316 3.39062L26.5098 3.58203C24.4043 3.88281 23.5293 4.97656 23.7754 7.05469ZM28.1641 27.084L25.8535 6.97266C25.7578 6.16602 26.127 5.71484 26.9746 5.5918L27.959 5.46875C28.8066 5.3457 29.2715 5.75586 29.3672 6.54883L31.6777 26.6602C31.7734 27.4805 31.4043 27.918 30.5703 28.041L29.5586 28.1777C28.7246 28.3008 28.2598 27.9043 28.1641 27.084Z" fill="white" fill-opacity="0.85"/>
 </g>
</svg>
