<?xml version="1.0" encoding="UTF-8"?>
<!--Generator: Apple Native CoreSVG 326-->
<!DOCTYPE svg
PUBLIC "-//W3C//DTD SVG 1.1//EN"
       "http://www.w3.org/Graphics/SVG/1.1/DTD/svg11.dtd">
<svg version="1.1" xmlns="http://www.w3.org/2000/svg" xmlns:xlink="http://www.w3.org/1999/xlink" viewBox="0 0 18.7852 29.3809">
 <g>
  <rect height="29.3809" opacity="0" width="18.7852" x="0" y="0"/>
  <path d="M1.44922 29.3262C2.11914 29.3262 2.51562 28.9434 3.74609 27.7539L9.0918 22.4902C9.16016 22.4219 9.2832 22.4219 9.33789 22.4902L14.6836 27.7539C15.9141 28.9434 16.3105 29.3262 16.9805 29.3262C17.8965 29.3262 18.4297 28.7246 18.4297 27.6582L18.4297 3.92383C18.4297 1.32617 17.1309 0 14.5605 0L3.86914 0C1.29883 0 0 1.32617 0 3.92383L0 27.6582C0 28.7246 0.533203 29.3262 1.44922 29.3262ZM2.57031 25.6348C2.37891 25.8262 2.16016 25.7715 2.16016 25.498L2.16016 3.95117C2.16016 2.77539 2.77539 2.16016 3.97852 2.16016L14.4648 2.16016C15.6543 2.16016 16.2695 2.77539 16.2695 3.95117L16.2695 25.498C16.2695 25.7715 16.0645 25.8262 15.8594 25.6348L9.93945 19.8926C9.50195 19.4688 8.92773 19.4688 8.49023 19.8926Z" fill="#ff453a"/>
 </g>
</svg>
