<svg version="1.1" xmlns="http://www.w3.org/2000/svg" xmlns:xlink="http://www.w3.org/1999/xlink" viewBox="0 0 28.2461 27.9043">
 <g>
  
  <path d="M13.9453 27.8906C21.6426 27.8906 27.8906 21.6289 27.8906 13.9453C27.8906 6.24805 21.6426 0 13.9453 0C6.26172 0 0 6.24805 0 13.9453C0 21.6289 6.26172 27.8906 13.9453 27.8906Z" style="fill:var(--color-0,#ff3b30)"></path>
  <path d="M9.77539 21.4238C9.31055 21.4238 9.00977 21.082 9.00977 20.5078L9.00977 8.64062C9.00977 7.27344 9.7207 6.54883 11.0879 6.54883L16.8027 6.54883C18.1699 6.54883 18.8809 7.27344 18.8809 8.64062L18.8809 20.5078C18.8809 21.082 18.5801 21.4238 18.1152 21.4238C17.7461 21.4238 17.541 21.2051 16.8984 20.5625L14.0137 17.7461C13.9727 17.7051 13.918 17.7051 13.877 17.7461L11.0059 20.5625C10.3496 21.2051 10.1445 21.4238 9.77539 21.4238Z" style="fill:var(--color-1,white)"></path>
 </g>
</svg>