<?xml version="1.0" encoding="UTF-8"?>
<!--Generator: Apple Native CoreSVG 326-->
<!DOCTYPE svg
PUBLIC "-//W3C//DTD SVG 1.1//EN"
       "http://www.w3.org/Graphics/SVG/1.1/DTD/svg11.dtd">
<svg version="1.1" xmlns="http://www.w3.org/2000/svg" xmlns:xlink="http://www.w3.org/1999/xlink" viewBox="0 0 28.2461 27.9043">
 <g>
  <rect height="27.9043" opacity="0" width="28.2461" x="0" y="0"/>
  <path d="M13.9453 27.8906C21.6426 27.8906 27.8906 21.6426 27.8906 13.9453C27.8906 6.24805 21.6426 0 13.9453 0C6.24805 0 0 6.24805 0 13.9453C0 21.6426 6.24805 27.8906 13.9453 27.8906ZM13.9453 25.5664C7.51953 25.5664 2.32422 20.3711 2.32422 13.9453C2.32422 7.51953 7.51953 2.32422 13.9453 2.32422C20.3711 2.32422 25.5664 7.51953 25.5664 13.9453C25.5664 20.3711 20.3711 25.5664 13.9453 25.5664Z" fill="white" fill-opacity="0.85"/>
  <path d="M6.97266 20.6309L8.14844 20.6309C8.6543 20.6309 8.92773 20.3574 8.92773 19.8652L8.92773 9.17383C8.92773 8.68164 8.6543 8.4082 8.14844 8.4082L6.97266 8.4082C6.45312 8.4082 6.16602 8.68164 6.16602 9.17383L6.16602 19.8652C6.16602 20.3574 6.45312 20.6309 6.97266 20.6309ZM10.623 20.6309L13.1797 20.6309C13.6992 20.6309 13.959 20.3574 13.959 19.8652L13.959 11.334C13.959 10.8418 13.6992 10.541 13.1797 10.541L10.623 10.541C10.1309 10.541 9.84375 10.8418 9.84375 11.334L9.84375 19.8652C9.84375 20.3574 10.1309 20.6309 10.623 20.6309ZM11.2246 12.8379C10.9785 12.8379 10.8281 12.6328 10.8281 12.4277C10.8281 12.1953 10.9922 12.0176 11.2246 12.0176L12.6055 12.0176C12.8379 12.0176 13.0156 12.1953 13.0156 12.4277C13.0156 12.6328 12.8379 12.8379 12.6055 12.8379ZM11.2246 19.1953C10.9922 19.1953 10.8281 19.0176 10.8281 18.7715C10.8281 18.5391 10.9785 18.3613 11.2246 18.3613L12.6055 18.3613C12.8379 18.3613 13.0156 18.5391 13.0156 18.7715C13.0156 19.0176 12.8379 19.1953 12.6055 19.1953ZM15.668 20.6309L17.2129 20.6309C17.7188 20.6309 17.9922 20.3574 17.9922 19.8652L17.9922 7.4375C17.9922 6.93164 17.7188 6.6582 17.2129 6.6582L15.668 6.6582C15.1484 6.6582 14.8887 6.93164 14.8887 7.4375L14.8887 19.8652C14.8887 20.3574 15.1484 20.6309 15.668 20.6309ZM20.4668 20.6309L21.4648 20.3848C21.957 20.2891 22.1621 19.9609 22.0801 19.4688L19.9473 9.16016C19.8516 8.6543 19.5371 8.4082 19.0449 8.53125L18.0469 8.77734C17.5684 8.88672 17.3359 9.20117 17.4316 9.69336L19.5645 20.0293C19.6602 20.5078 19.9883 20.7402 20.4668 20.6309Z" fill="white" fill-opacity="0.85"/>
 </g>
</svg>
