<svg version="1.1" xmlns="http://www.w3.org/2000/svg" xmlns:xlink="http://www.w3.org/1999/xlink" viewBox="0 0 28.2461 27.9043">
 <g>
  
  <path d="M13.9453 27.8906C21.6426 27.8906 27.8906 21.6426 27.8906 13.9453C27.8906 6.24805 21.6426 0 13.9453 0C6.24805 0 0 6.24805 0 13.9453C0 21.6426 6.24805 27.8906 13.9453 27.8906ZM13.9453 25.5664C7.51953 25.5664 2.32422 20.3711 2.32422 13.9453C2.32422 7.51953 7.51953 2.32422 13.9453 2.32422C20.3711 2.32422 25.5664 7.51953 25.5664 13.9453C25.5664 20.3711 20.3711 25.5664 13.9453 25.5664Z" style="fill:var(--color-0,hsl(0 0 0/0.85))"></path>
  <path d="M10.1855 8.08008C8.76367 8.08008 7.27344 8.73633 6.63086 9.85742C6.54883 9.99414 6.54883 10.0762 6.54883 10.3086L6.54883 19.3867C6.54883 19.6602 6.74023 19.8516 7.04102 19.8516C7.20508 19.8516 7.35547 19.7969 7.47852 19.6875C8.25781 19.0176 9.31055 18.6348 10.418 18.6348C11.3613 18.6348 12.2637 18.9492 13.0156 19.5645C13.0977 19.6328 13.1523 19.6738 13.2344 19.6738C13.3711 19.6738 13.4941 19.5508 13.4941 19.4004L13.4941 9.88477C13.4941 9.73438 13.4805 9.70703 13.3574 9.51562C12.7285 8.62695 11.5254 8.08008 10.1855 8.08008ZM17.6914 8.08008C16.3516 8.08008 15.1621 8.62695 14.5195 9.51562C14.3965 9.70703 14.3965 9.73438 14.3965 9.88477L14.3965 19.4004C14.3965 19.5508 14.5059 19.6738 14.6426 19.6738C14.7246 19.6738 14.793 19.6328 14.8613 19.5645C15.6133 18.9492 16.5293 18.6348 17.459 18.6348C18.5801 18.6348 19.6328 19.0176 20.4121 19.6875C20.5352 19.7969 20.6719 19.8516 20.8359 19.8516C21.1367 19.8516 21.3418 19.6602 21.3418 19.3867L21.3418 10.3086C21.3418 10.0762 21.3281 9.98047 21.2461 9.85742C20.6035 8.73633 19.1133 8.08008 17.6914 8.08008Z" style="fill:var(--color-1,hsl(0 0 0/0.85))"></path>
 </g>
</svg>