<?xml version="1.0" encoding="UTF-8"?>
<!--Generator: Apple Native CoreSVG 326-->
<!DOCTYPE svg
PUBLIC "-//W3C//DTD SVG 1.1//EN"
       "http://www.w3.org/Graphics/SVG/1.1/DTD/svg11.dtd">
<svg version="1.1" xmlns="http://www.w3.org/2000/svg" xmlns:xlink="http://www.w3.org/1999/xlink" viewBox="0 0 28.2461 27.9043">
 <g>
  <rect height="27.9043" opacity="0" width="28.2461" x="0" y="0"/>
  <path d="M13.9453 27.8906C21.6426 27.8906 27.8906 21.6426 27.8906 13.9453C27.8906 6.24805 21.6426 0 13.9453 0C6.24805 0 0 6.24805 0 13.9453C0 21.6426 6.24805 27.8906 13.9453 27.8906ZM13.9453 25.5664C7.51953 25.5664 2.32422 20.3711 2.32422 13.9453C2.32422 7.51953 7.51953 2.32422 13.9453 2.32422C20.3711 2.32422 25.5664 7.51953 25.5664 13.9453C25.5664 20.3711 20.3711 25.5664 13.9453 25.5664Z" fill="white" fill-opacity="0.85"/>
  <path d="M10.3496 21.1777L19.0449 21.1777C19.3457 21.1777 19.6055 20.9043 19.6055 20.6035C19.6055 20.3574 19.4414 20.125 19.2227 20.0566C18.3887 19.7148 18.2246 18.6484 19.0312 17.8418C19.3047 17.582 19.6055 17.2266 19.6055 16.5566L19.6055 8.85938C19.6055 7.45117 18.9082 6.72656 17.5 6.72656L10.3633 6.72656C8.96875 6.72656 8.27148 7.4375 8.27148 8.85938L8.27148 19.0723C8.27148 20.4668 8.96875 21.1777 10.3496 21.1777ZM10.418 20.043C9.76172 20.043 9.40625 19.6738 9.40625 19.0586C9.40625 18.4844 9.83008 18.1016 10.4727 18.1016L17.3496 18.1016C17.418 18.1016 17.4727 18.0879 17.5273 18.0879C17.2676 18.7578 17.3086 19.4551 17.6094 20.043ZM10.1992 16.9668C9.98047 16.9668 9.80273 16.8027 9.80273 16.5566L9.80273 8.28516C9.80273 8.05273 9.98047 7.875 10.1992 7.875C10.4453 7.875 10.6367 8.05273 10.6367 8.28516L10.6367 16.5566C10.6367 16.8027 10.4453 16.9668 10.1992 16.9668Z" fill="white" fill-opacity="0.85"/>
 </g>
</svg>
