<?xml version="1.0" encoding="UTF-8"?>
<!--Generator: Apple Native CoreSVG 326-->
<!DOCTYPE svg
PUBLIC "-//W3C//DTD SVG 1.1//EN"
       "http://www.w3.org/Graphics/SVG/1.1/DTD/svg11.dtd">
<svg version="1.1" xmlns="http://www.w3.org/2000/svg" xmlns:xlink="http://www.w3.org/1999/xlink" viewBox="0 0 30.7207 25.416">
 <g>
  <rect height="25.416" opacity="0" width="30.7207" x="0" y="0"/>
  <path d="M0 23.1191C0 24.2402 0.738281 24.6777 1.54492 24.6777C2.00977 24.6777 2.40625 24.4043 2.92578 24.0898C4.42969 23.0645 6.28906 22.4355 8.18945 22.4492C10.1582 22.4629 12.1133 23.1875 13.6445 24.6641C14.2461 25.2109 14.6836 25.3887 15.1895 25.3887C15.6816 25.3887 16.1328 25.2109 16.7207 24.6641C18.252 23.2012 20.207 22.4629 22.1895 22.4492C24.0898 22.4355 25.9355 23.0645 27.4395 24.0898C27.959 24.4043 28.3555 24.6777 28.834 24.6777C29.627 24.6777 30.3652 24.2402 30.3652 23.1191L30.3652 4.56641C30.3652 4.33398 30.3516 4.14258 30.2012 3.91016C28.9844 1.79102 25.8945 0 22.1348 0C19.1543 0 16.5703 1.18945 15.1895 2.87109C13.8086 1.18945 11.2109 0 8.24414 0C4.4707 0 1.38086 1.79102 0.164062 3.91016C0.0273438 4.14258 0 4.33398 0 4.56641ZM2.20117 21.957L2.20117 4.88086C3.30859 3.28125 5.71484 2.20117 8.24414 2.20117C10.8418 2.20117 13.1113 3.29492 14.082 4.96289L14.082 22.1895C12.6875 21.082 10.5137 20.248 8.24414 20.248C5.86523 20.248 3.65039 20.918 2.20117 21.957ZM16.2832 22.1895L16.2832 4.96289C17.2539 3.29492 19.5371 2.20117 22.1348 2.20117C24.6504 2.20117 27.0566 3.28125 28.1641 4.88086L28.1641 21.957C26.7148 20.918 24.5 20.248 22.1348 20.248C19.8516 20.248 17.6777 21.082 16.2832 22.1895Z" fill="white" fill-opacity="0.85"/>
 </g>
</svg>
