<svg version="1.1" xmlns="http://www.w3.org/2000/svg" xmlns:xlink="http://www.w3.org/1999/xlink" viewBox="0 0 27.6172 32.6621">
 <g>
  
  <path d="M27.2617 12.8379C27.2617 16.1328 26.0176 19.1406 23.8711 21.0137L23.8711 27.6855C23.8711 30.7754 20.7676 32.5664 15.7227 32.5664C10.9375 32.5664 7.91602 30.9121 7.71094 28.041L7.72461 27.9453L6.30273 28.082C4.07422 28.3418 2.32422 27.0977 2.32422 24.6367L2.32422 22.0117C0.861328 21.6289 0 20.4668 0 19.0586C0 18.3203 0.232422 17.5137 0.697266 16.6934L2.36523 13.6855C2.32422 13.3301 2.31055 12.9746 2.31055 12.5508C2.31055 5.01758 7.30078 0 14.752 0C22.2305 0 27.2617 5.14062 27.2617 12.8379ZM16.7891 14.793C16.7891 15.5859 17.3359 16.1465 18.2656 16.1465L18.498 16.1465C18.7305 17.4453 19.5645 18.334 20.6035 18.334C22.1074 18.334 23.1875 16.625 23.1875 14.2461C23.1875 14.0547 23.1875 13.8359 23.1738 13.6309C22.6133 13.877 21.957 13.9863 21.2051 13.9453C20.8359 13.9043 20.5762 13.6172 20.5762 13.2754C20.5762 12.9062 20.8906 12.5918 21.2324 12.6191C22.7773 12.7285 23.7754 11.8809 23.7754 10.5C23.7754 9.24219 23.1465 8.20312 22.1348 7.61523C21.752 11.5117 16.7891 12.0449 16.7891 14.793ZM12.7148 5.6875C12.7148 6.09766 12.4414 6.35742 12.0586 6.35742C11.6484 6.35742 11.3613 6.04297 11.3887 5.64648C11.4023 5.07227 11.5664 4.67578 11.7305 4.30664C11.4844 4.2793 11.2656 4.25195 11.0195 4.25195C9.33789 4.25195 8.03906 5.29102 8.03906 6.6582C8.03906 7.51953 8.6543 8.17578 9.44727 8.17578C9.83008 8.17578 10.1445 8.47656 10.1445 8.8457C10.1445 9.20117 9.81641 9.51562 9.44727 9.51562C8.29883 9.51562 7.41016 8.96875 7 8.10742C6.53516 8.79102 6.27539 9.61133 6.27539 10.4316C6.27539 12.7559 7.76562 14.5332 10.0625 14.5332C11.7305 14.5332 12.9062 13.4395 12.9062 11.9082C12.9062 11.375 12.7285 10.9238 12.4414 10.6367C12.209 10.418 12.127 10.1855 12.127 9.99414C12.127 9.65234 12.4141 9.39258 12.7695 9.39258C12.9336 9.39258 13.125 9.43359 13.2754 9.58398C13.3574 9.65234 13.4395 9.78906 13.4668 9.87109C14.5742 9.7207 15.1211 9.07812 15.1211 8.02539C15.1211 7.65625 15.4219 7.35547 15.7773 7.35547C16.1328 7.35547 16.4336 7.66992 16.4336 8.02539C16.4473 9.63867 15.627 10.6641 14.0957 11.0059C14.1777 11.3066 14.2051 11.6211 14.2051 11.9355C14.2051 13.3164 13.5352 14.4238 12.3867 15.0391C13.0293 15.3809 13.7812 15.5586 14.6016 15.5586C14.957 15.5586 15.3535 15.5176 15.7363 15.4492C15.668 15.2441 15.627 15.0391 15.627 14.8203C15.627 11.2246 20.9453 10.6094 20.9453 7.36914C20.9453 5.7832 19.7012 4.52539 18.1426 4.52539C17.582 4.52539 17.418 4.53906 17.2676 4.58008C16.6934 3.9375 15.8457 3.55469 15.0527 3.55469C13.6992 3.55469 12.7285 4.40234 12.7148 5.6875Z" style="fill:var(--color-0,hsl(0 0 0/0.85))"></path>
 </g>
</svg>