<svg version="1.1" xmlns="http://www.w3.org/2000/svg" xmlns:xlink="http://www.w3.org/1999/xlink" viewBox="0 0 27.6172 32.6621">
 <g>
  
  <path d="M15.7227 32.5664C20.7676 32.5664 23.8711 30.7754 23.8711 27.6855L23.8711 21.0137C26.0176 19.1406 27.2617 16.1328 27.2617 12.8379C27.2617 5.14062 22.2305 0 14.752 0C7.30078 0 2.31055 5.01758 2.31055 12.5508C2.31055 12.9746 2.32422 13.3301 2.36523 13.6855L0.697266 16.6934C0.21875 17.5137 0 18.3203 0 19.0586C0 20.4668 0.861328 21.6289 2.32422 22.0117L2.32422 24.6367C2.32422 27.0977 4.07422 28.3281 6.30273 28.082L9.25586 27.7812L7.69727 26.0996L7.69727 27.6855C7.69727 30.7617 10.7461 32.5664 15.7227 32.5664ZM15.7227 30.3652C12.0312 30.3652 9.78906 29.1895 9.78906 27.3027L9.78906 25.7441C9.78906 25.5527 9.69336 25.4844 9.5293 25.498L6.01562 25.8945C5.05859 25.9902 4.52539 25.5664 4.52539 24.4727L4.52539 20.3848C4.52539 20.2617 4.44336 20.1797 4.26562 20.1797L3.63672 20.1797C2.74805 20.1797 2.22852 19.7285 2.22852 19.0312C2.22852 18.6621 2.35156 18.2246 2.59766 17.7871L4.63477 14.123C4.55273 13.5898 4.51172 13.0566 4.51172 12.5098C4.51172 6.33008 8.59961 2.20117 14.752 2.20117C20.9316 2.20117 25.0605 6.43945 25.0605 12.8379C25.0605 15.9004 23.7754 18.5801 21.6562 19.9336L21.6699 27.3027C21.6699 29.1895 19.4277 30.3652 15.7227 30.3652Z" style="fill:var(--color-0,hsl(0 0 0/0.85))"></path>
  <path d="M6.52148 10.459C6.52148 12.8379 8.17578 14.4375 10.6367 14.4375C13.0566 14.4512 14.6836 13.002 14.6836 10.8691C14.6836 9.98047 14.3691 9.21484 13.8086 8.75C13.5625 8.54492 13.3848 8.44922 13.1523 8.44922C12.7832 8.44922 12.5234 8.70898 12.5234 9.03711C12.5234 9.41992 12.7559 9.55664 13.002 9.80273C13.2617 10.0488 13.3984 10.4043 13.3984 10.8418C13.3984 12.2363 12.3184 13.1387 10.6504 13.1387C8.95508 13.1387 7.82031 12.0859 7.82031 10.4453C7.82031 9.46094 8.35352 8.55859 9.20117 8.06641L8.55859 6.91797C7.32812 7.62891 6.52148 9.00977 6.52148 10.459ZM8.24414 7.15039C8.24414 8.68164 9.32422 9.7207 10.9102 9.7207C11.2656 9.7207 11.5664 9.41992 11.5664 9.06445C11.5664 8.70898 11.2656 8.42188 10.9102 8.42188C10.0898 8.42188 9.54297 7.91602 9.54297 7.15039C9.54297 6.33008 10.2129 5.74219 11.1426 5.74219C11.6348 5.74219 12.1543 5.91992 12.5918 6.26172L13.3438 5.19531C12.7148 4.7168 11.9492 4.44336 11.1426 4.44336C9.48828 4.44336 8.24414 5.5918 8.24414 7.15039ZM11.6211 6.97266C11.6074 7.36914 11.8672 7.66992 12.25 7.66992C12.6328 7.66992 12.8926 7.39648 12.9062 7.01367C12.9609 5.87891 13.7812 5.05859 14.9297 5.05859C15.5996 5.05859 16.2012 5.41406 16.4473 5.97461C16.543 6.16602 16.7344 6.16602 17.0352 6.08398C17.1719 6.04297 17.3359 6.04297 17.5273 6.04297C18.6758 6.04297 19.5645 6.93164 19.5645 8.12109C19.5645 11.0195 15.3398 10.5137 15.3398 13.6172C15.3398 15.0117 16.4473 15.9961 18.0469 15.9961C18.1562 15.9961 18.2656 15.9961 18.4023 15.9961C18.6074 17.2676 19.4277 18.1152 20.4395 18.1152C21.916 18.1152 22.9414 16.4609 22.9414 14.1367C22.9414 13.248 22.8867 12.6465 22.832 12.0723L21.5195 12.4551C21.5605 13.002 21.6426 13.4805 21.6426 14.123C21.6426 15.627 21.0957 16.8164 20.4395 16.8164C19.8789 16.8164 19.4824 16.1055 19.4824 15.0801C19.4824 14.9023 19.3594 14.8203 19.1953 14.8203C19.0039 14.8203 18.7715 14.834 18.6074 14.834C17.3086 14.834 16.6387 14.4102 16.6387 13.6035C16.6387 11.3613 20.877 11.9902 20.877 8.12109C20.877 6.19336 19.4688 4.73047 17.6504 4.73047C17.5 4.73047 17.3496 4.74414 17.1992 4.77148C16.6387 4.14258 15.8184 3.75977 14.9297 3.75977C13.0566 3.75977 11.6895 5.08594 11.6211 6.97266ZM19.1133 13.1934C19.1133 13.5488 19.373 13.8086 19.7422 13.8496C21.9844 13.9863 23.5293 12.6465 23.5293 10.5137C23.5293 8.69531 22.1895 7.31445 20.2344 7.13672L20.043 8.46289C21.3418 8.38086 22.2305 9.21484 22.2305 10.5137C22.2305 11.8398 21.2598 12.6602 19.7695 12.5508C19.4141 12.5234 19.1133 12.8379 19.1133 13.1934ZM16.0371 13.8906C15.6543 14.041 15.1621 14.123 14.7109 14.123C13.5625 14.123 12.4688 13.6445 12.1816 12.9746L11.1016 13.8633C11.8125 14.8203 13.1387 15.4219 14.6152 15.4219C15.2168 15.4219 15.873 15.3125 16.4609 15.1211ZM13.7266 9.44727L14.1504 10.6914C15.8184 10.418 16.7207 9.39258 16.7207 7.72461C16.7207 7.38281 16.4199 7.08203 16.0645 7.08203C15.709 7.08203 15.4219 7.36914 15.4219 7.72461C15.4219 8.81836 14.916 9.32422 13.7266 9.44727Z" style="fill:var(--color-1,hsl(0 0 0/0.85))"></path>
 </g>
</svg>