<svg version="1.1" xmlns="http://www.w3.org/2000/svg" xmlns:xlink="http://www.w3.org/1999/xlink" viewBox="0 0 36.3398 30.2559">
 <g>
  
  <path d="M7.62891 22.2031C10.9512 22.2031 12.9883 19.9883 12.9883 17.1172C12.9883 16.2148 12.6055 15.1895 12.0723 14.6699C11.457 14.082 11.0605 13.918 11.0605 13.2344C11.0605 12.6738 11.4844 12.291 12.127 12.291C12.5918 12.291 12.8926 12.4277 13.3848 12.8516C13.8086 13.2207 14.1777 13.6855 14.4375 14.2324C16.543 13.7402 17.3359 12.4551 17.3359 10.3906C17.3359 9.78906 17.8418 9.2832 18.4434 9.2832C19.0449 9.2832 19.5371 9.78906 19.5371 10.3906C19.5508 13.4121 18.1562 15.5176 15.0938 16.2969C15.1211 16.5703 15.1484 16.8574 15.1484 17.1582C15.1484 19.7148 14.041 21.7793 12.1133 23.0781C13.4805 23.9258 15.2305 24.4043 17.0215 24.4043C17.3633 24.4043 17.7461 24.377 18.4707 24.3496C18.3203 23.666 18.2383 23.0234 18.2383 22.4082C18.2383 14.2871 29.75 15.1758 29.75 7.45117C29.75 4.23828 26.6328 2.03711 23.5977 2.03711C23.3242 2.03711 22.9414 2.0918 22.5586 2.17383C21.4648 0.820312 19.7148 0 18.0742 0C15.1758 0 13.248 1.88672 13.1523 4.49805C13.125 5.19531 12.6602 5.5918 12.0586 5.5918C11.4297 5.5918 10.9512 5.11328 10.9785 4.40234C11.0195 3.41797 11.2246 2.51562 11.5801 1.72266C10.9375 1.54492 10.2949 1.46289 9.65234 1.46289C6.34375 1.46289 3.86914 3.55469 3.86914 6.11133C3.86914 7.82031 5.14062 9.22852 6.98633 9.22852C7.58789 9.22852 8.08008 9.73438 8.08008 10.3223C8.08008 10.9238 7.58789 11.4297 6.98633 11.4297C4.59375 11.4297 2.84375 10.3223 2.03711 8.58594C0.751953 10.0762 0 12.0449 0 14.082C0 18.7715 3.02148 22.2031 7.62891 22.2031ZM29.668 30.2422C33.0859 30.2422 34.7539 26.0859 34.7539 22.0391C34.7539 21.4238 34.7266 20.8496 34.7129 20.3164C33.5098 20.9316 32.0469 21.2051 30.3652 21.0957C29.75 21.0547 29.2578 20.6172 29.2578 20.002C29.2578 19.4004 29.75 18.8535 30.3652 18.9082C33.7285 19.168 35.9844 17.2812 35.9844 14.2051C35.9844 11.4707 34.5078 9.22852 32.1289 8.09375C30.3926 17.0898 20.5625 15.8867 20.2617 22.0117C20.166 24.0762 21.7383 25.7031 23.9805 25.7031C24.7734 25.7031 25.1699 25.6758 25.5254 25.6621C25.8398 27.9863 27.3027 30.2422 29.668 30.2422Z" style="fill:var(--color-0,hsl(0 0 0/0.85))"></path>
 </g>
</svg>