<svg version="1.1" xmlns="http://www.w3.org/2000/svg" xmlns:xlink="http://www.w3.org/1999/xlink" viewBox="0 0 36.3398 30.2559">
 <g>
  
  <path d="M0 14.082C0 19.0723 3.41797 22.3809 8.54492 22.3809C13.5898 22.3809 16.9668 19.4141 16.9668 14.9434C16.9668 13.084 16.3105 11.5801 15.2168 10.6367C14.7109 10.2266 14.4238 10.0762 13.9453 10.0762C13.3164 10.0762 12.8789 10.459 12.8789 11.0195C12.8789 11.7031 13.2754 11.8809 13.9043 12.4551C14.4785 13.0156 14.8066 13.8633 14.8066 14.9023C14.8066 18.0742 12.3184 20.1934 8.58594 20.1934C4.75781 20.1934 2.20117 17.7461 2.20117 14.0684C2.20117 11.9629 3.26758 9.98047 5.01758 8.8457L3.92383 6.94531C1.49023 8.46289 0 11.1836 0 14.082ZM3.69141 6.95898C3.69141 10.0215 5.81055 12.1816 9.16016 12.1816C9.74805 12.1816 10.2539 11.6895 10.2539 11.0879C10.2539 10.4863 9.74805 9.98047 9.16016 9.98047C7.13672 9.98047 5.89258 8.70898 5.89258 6.95898C5.89258 5.01758 7.49219 3.66406 9.63867 3.66406C10.6367 3.66406 11.7031 3.96484 12.6875 4.63477L13.9727 2.84375C12.6055 1.88672 11.0879 1.46289 9.65234 1.46289C6.34375 1.46289 3.69141 3.71875 3.69141 6.95898ZM10.9785 6.58984C10.9512 7.30078 11.4297 7.7793 12.0586 7.7793C12.6602 7.7793 13.125 7.38281 13.1523 6.68555C13.248 4.08789 15.1348 2.1875 17.7871 2.1875C19.3867 2.1875 20.7812 3.03516 21.3418 4.29297C21.4512 4.49805 21.6016 4.51172 21.8613 4.42969C22.3125 4.30664 22.8184 4.23828 23.3105 4.23828C25.7578 4.26562 28.082 6.11133 28.082 9.05078C28.082 15.4766 19.0586 14.5879 19.0586 20.8496C19.0586 23.8301 21.4238 25.7031 24.4863 25.7031C24.8145 25.7031 25.1699 25.6758 25.5254 25.6621C25.8398 27.9863 27.3027 30.2422 29.668 30.2422C33.0859 30.2422 34.7539 26.0859 34.7539 22.0391C34.7539 20.2754 34.6582 19.0859 34.5352 17.9648L32.334 18.5801C32.457 19.6738 32.5664 20.6992 32.5664 22.0117C32.5664 25.334 31.3086 28.041 29.668 28.041C27.9727 28.041 27.2891 25.7852 27.2891 23.9941C27.2891 23.8438 27.207 23.748 27.0156 23.7617C26.6328 23.7617 26.1133 23.7754 25.7715 23.7754C23.0508 23.7754 21.2598 22.9277 21.2598 20.8086C21.2598 15.8184 30.2832 16.9395 30.2832 9.05078C30.2832 4.83984 27.166 2.03711 23.5977 2.03711C23.3242 2.03711 22.9414 2.0918 22.5586 2.17383C21.4648 0.820312 19.7148 0 17.8008 0C13.918 0 11.1426 2.7207 10.9785 6.58984ZM27.0566 20.002C27.0566 20.6172 27.5488 21.0547 28.1641 21.0957C32.8535 21.3965 35.9844 18.6484 35.9844 14.2051C35.9844 10.5684 33.4004 7.79297 29.5176 7.27344L29.1758 9.46094C31.9375 9.50195 33.7832 11.3887 33.7832 14.2051C33.7832 17.2812 31.5273 19.168 28.1641 18.9082C27.5488 18.8535 27.0566 19.4004 27.0566 20.002ZM20.0293 21.7793C19.2227 22.0664 18.2793 22.2031 17.3906 22.2031C15.0801 22.2031 12.7285 21.3008 11.8262 19.9062L10.0078 21.3828C11.4434 23.1738 14.041 24.4043 17.1582 24.4043C18.2793 24.4043 19.5371 24.2402 20.7812 23.8848ZM15.6406 12.127L16.3789 14.2188C19.8242 13.5352 21.3691 11.375 21.3691 8.17578C21.3691 7.57422 20.8633 7.08203 20.2617 7.08203C19.6602 7.08203 19.168 7.57422 19.168 8.17578C19.168 10.4316 18.2109 11.7578 15.6406 12.127Z" style="fill:var(--color-0,hsl(0 0 0/0.85))"></path>
 </g>
</svg>