<svg version="1.1" xmlns="http://www.w3.org/2000/svg" xmlns:xlink="http://www.w3.org/1999/xlink" viewBox="0 0 27.6172 32.6621">
 <g>
  
  <path d="M15.7227 32.5664C20.7676 32.5664 23.8711 30.7754 23.8711 27.6855L23.8711 21.0137C26.0176 19.1406 27.2617 16.1328 27.2617 12.8379C27.2617 5.14062 22.2305 0 14.752 0C7.30078 0 2.31055 5.01758 2.31055 12.5508C2.31055 12.9746 2.32422 13.3301 2.36523 13.6855L0.697266 16.6934C0.21875 17.5137 0 18.3203 0 19.0586C0 20.4668 0.861328 21.6289 2.32422 22.0117L2.32422 24.6367C2.32422 27.0977 4.07422 28.3281 6.30273 28.082L9.25586 27.7812L7.69727 26.0996L7.69727 27.6855C7.69727 30.7617 10.7461 32.5664 15.7227 32.5664ZM15.7227 30.3652C12.0312 30.3652 9.78906 29.1895 9.78906 27.3027L9.78906 25.7441C9.78906 25.5527 9.69336 25.4844 9.5293 25.498L6.01562 25.8945C5.05859 25.9902 4.52539 25.5664 4.52539 24.4727L4.52539 20.3848C4.52539 20.2617 4.44336 20.1797 4.26562 20.1797L3.63672 20.1797C2.74805 20.1797 2.22852 19.7285 2.22852 19.0312C2.22852 18.6621 2.35156 18.2246 2.59766 17.7871L4.63477 14.123C4.55273 13.5898 4.51172 13.0566 4.51172 12.5098C4.51172 6.33008 8.59961 2.20117 14.752 2.20117C20.9316 2.20117 25.0605 6.43945 25.0605 12.8379C25.0605 15.9004 23.7754 18.5801 21.6562 19.9336L21.6699 27.3027C21.6699 29.1895 19.4277 30.3652 15.7227 30.3652Z" style="fill:var(--color-0,hsl(0 0 0/0.85))"></path>
  <path d="M10.1992 14.4102C11.8125 14.4102 12.9473 13.3574 12.9473 11.8672C12.9473 11.3477 12.7832 10.9238 12.5098 10.6367C12.2773 10.418 12.1953 10.1992 12.1953 10.0215C12.1953 9.69336 12.4824 9.43359 12.8379 9.43359C12.9746 9.43359 13.1797 9.46094 13.3164 9.61133C13.3984 9.67969 13.4805 9.83008 13.5078 9.91211C14.5742 9.76172 15.1074 9.13281 15.1074 8.10742C15.1074 7.75195 15.3945 7.46484 15.7363 7.46484C16.0781 7.46484 16.3789 7.76562 16.3789 8.10742C16.3926 9.67969 15.5996 10.6641 14.1094 11.0059C14.1914 11.293 14.2188 11.5938 14.2188 11.8945C14.2188 13.2344 13.5488 14.3008 12.4551 14.9023C13.0703 15.2441 13.8086 15.4082 14.6016 15.4082C14.957 15.4082 15.3262 15.3672 15.6953 15.2988C15.627 15.1074 15.5996 14.9023 15.5996 14.6973C15.5996 11.2246 20.7402 10.6094 20.7402 7.47852C20.7402 5.93359 19.5371 4.73047 18.0332 4.73047C17.4863 4.73047 17.3359 4.74414 17.1855 4.78516C16.625 4.14258 15.8047 3.77344 15.0527 3.77344C13.7266 3.77344 12.7832 4.59375 12.7695 5.85156C12.7695 6.23438 12.4961 6.49414 12.127 6.49414C11.7441 6.49414 11.4707 6.19336 11.498 5.81055C11.498 5.25 11.6621 4.86719 11.8125 4.51172C11.5801 4.4707 11.3613 4.44336 11.1426 4.44336C9.50195 4.44336 8.24414 5.46875 8.24414 6.78125C8.24414 7.62891 8.83203 8.27148 9.61133 8.27148C9.98047 8.27148 10.2812 8.55859 10.2812 8.90039C10.2812 9.25586 9.9668 9.55664 9.61133 9.55664C8.50391 9.55664 7.62891 9.02344 7.23242 8.18945C6.78125 8.85938 6.53516 9.65234 6.53516 10.4453C6.53516 12.6875 7.98438 14.4102 10.1992 14.4102ZM20.4258 18.1016C21.875 18.1016 22.9141 16.4336 22.9141 14.123C22.9141 13.9453 22.9141 13.7402 22.9004 13.5352C22.3672 13.7812 21.7246 13.8906 21 13.8496C20.6445 13.8086 20.3848 13.5352 20.3848 13.1934C20.3848 12.8379 20.6855 12.5371 21.0273 12.5645C22.5176 12.6602 23.4883 11.8398 23.4883 10.5137C23.4883 9.29688 22.8867 8.27148 21.9023 7.71094C21.5332 11.4844 16.7207 11.9902 16.7207 14.6699C16.7207 15.4492 17.2539 15.9961 18.1562 15.9961L18.375 15.9961C18.6074 17.2402 19.4141 18.1016 20.4258 18.1016Z" style="fill:var(--color-1,hsl(0 0 0/0.85))"></path>
 </g>
</svg>