<svg version="1.1" xmlns="http://www.w3.org/2000/svg" xmlns:xlink="http://www.w3.org/1999/xlink" viewBox="0 0 33.5408 27.9043">
 <g>
  
  <path d="M16.5995 27.8906C24.2968 27.8906 30.5448 21.6426 30.5448 13.9453C30.5448 6.24805 24.2968 0 16.5995 0C8.90224 0 2.65419 6.24805 2.65419 13.9453L4.97841 13.9453C4.97841 7.51953 10.1737 2.32422 16.5995 2.32422C23.0253 2.32422 28.2206 7.51953 28.2206 13.9453C28.2206 20.3711 23.0253 25.5664 16.5995 25.5664C12.7167 25.5664 9.2577 23.6523 7.19325 20.7539C6.76942 20.1934 6.12684 20.0156 5.55263 20.3574C5.00575 20.6992 4.84169 21.4648 5.30653 22.0664C7.83583 25.6074 11.9784 27.8906 16.5995 27.8906ZM0.972548 11.3066C-0.0118272 11.3066-0.257921 11.9766 0.275282 12.7422L3.33778 17.0898C3.78895 17.7188 4.4452 17.7051 4.8827 17.0898L7.93153 12.7285C8.46474 11.9766 8.20497 11.3066 7.24794 11.3066Z" style="fill:var(--color-0,hsl(0 0 0/0.85))"></path>
  <path d="M10.5292 19.3867C11.0214 19.3867 11.3085 19.0723 11.3085 18.5801L11.3085 14.875L13.0038 14.875L14.6718 18.8262C14.8495 19.209 15.0683 19.3867 15.4647 19.3867C15.9159 19.3867 16.2167 19.0996 16.2167 18.6621C16.2167 18.457 16.1347 18.2793 16.0526 18.1016L14.5077 14.5469C15.7108 14.0273 16.244 12.8105 16.244 11.5527C16.244 9.44727 14.9179 8.28516 12.9081 8.28516L10.5155 8.28516C10.037 8.28516 9.74989 8.59961 9.74989 9.07812L9.74989 18.5801C9.74989 19.0449 9.98231 19.3867 10.5292 19.3867ZM11.3085 13.6309L11.3085 9.58398L12.7577 9.58398C14.0018 9.58398 14.6854 10.3633 14.6854 11.5938C14.6854 12.7969 14.0839 13.6309 12.785 13.6309ZM20.6737 19.0859C22.6288 19.0859 23.9276 18.0332 23.9276 16.2695C23.9276 14.6426 22.9159 13.9863 21.5624 13.3438L20.578 12.8789C19.6893 12.4551 18.9921 11.9766 18.9921 11.1016C18.9921 10.1719 19.703 9.69336 20.6464 9.69336C21.7538 9.69336 22.1776 10.4043 22.328 11.2656C22.3964 11.5254 22.6288 11.8125 23.039 11.8125C23.4628 11.8125 23.7362 11.5664 23.7362 11.1426C23.7362 11.0469 23.7089 10.8555 23.6815 10.7324C23.3124 9.06445 22.0819 8.46289 20.6464 8.46289C18.8554 8.46289 17.5292 9.47461 17.5292 11.1973C17.5292 12.6465 18.3495 13.4121 19.8261 14.1094L20.8104 14.5879C21.6854 15.0117 22.4511 15.4355 22.4511 16.3926C22.4511 17.377 21.8085 17.8418 20.6874 17.8418C19.5526 17.8418 19.0194 17.2812 18.828 16.2148C18.746 15.8457 18.4589 15.6543 18.1308 15.6543C17.7069 15.6543 17.4198 15.9004 17.4198 16.3242C17.4198 16.4473 17.4472 16.6113 17.4745 16.7344C17.8436 18.4434 19.1698 19.0859 20.6737 19.0859ZM20.66 20.4941C20.8788 20.4941 21.0292 20.3574 21.0292 20.125L21.0292 7.4375C21.0292 7.20508 20.8788 7.06836 20.66 7.06836C20.4276 7.06836 20.2909 7.20508 20.2909 7.4375L20.2909 20.125C20.2909 20.3574 20.4276 20.4941 20.66 20.4941Z" style="fill:var(--color-1,hsl(0 0 0/0.85))"></path>
 </g>
</svg>