<svg version="1.1" xmlns="http://www.w3.org/2000/svg" xmlns:xlink="http://www.w3.org/1999/xlink" viewBox="0 0 25.5254 25.1699">
 <g>
  
  <path d="M4.29297 25.1699L20.877 25.1699C23.748 25.1699 25.1699 23.7617 25.1699 20.9453L25.1699 4.23828C25.1699 1.42188 23.748 0 20.877 0L4.29297 0C1.43555 0 0 1.42188 0 4.23828L0 20.9453C0 23.7617 1.43555 25.1699 4.29297 25.1699Z" style="fill:var(--color-0,hsl(0 0 0/0.85))"></path>
  <path d="M6.33008 18.1973C5.76953 18.1973 5.50977 17.8418 5.50977 17.3633L5.50977 7.57422C5.50977 7.06836 5.81055 6.75391 6.30273 6.75391L8.79102 6.75391C10.8691 6.75391 12.2227 7.94336 12.2227 10.1172C12.2227 11.416 11.6758 12.6738 10.4316 13.207L12.0176 16.8574C12.0996 17.0488 12.1953 17.2266 12.1953 17.4453C12.1953 17.8965 11.8809 18.1973 11.4297 18.1973C11.0059 18.1973 10.7734 18.0059 10.5957 17.6094L8.87305 13.5488L7.13672 13.5488L7.13672 17.3633C7.13672 17.8691 6.83594 18.1973 6.33008 18.1973ZM7.13672 12.2637L8.6543 12.2637C9.98047 12.2637 10.6094 11.4023 10.6094 10.1582C10.6094 8.90039 9.89844 8.09375 8.62695 8.09375L7.13672 8.09375ZM16.7754 19.332C16.5293 19.332 16.3926 19.1953 16.3926 18.9492L16.3926 17.8555C14.998 17.7598 13.8359 17.0625 13.4805 15.4629C13.4531 15.3398 13.4258 15.1621 13.4258 15.0391C13.4258 14.6016 13.7266 14.3418 14.1641 14.3418C14.5059 14.3418 14.8203 14.5469 14.8887 14.9297C15.0527 15.8867 15.5039 16.4473 16.3926 16.5566L16.3926 12.9883L15.9141 12.7559C14.3828 12.0312 13.5352 11.252 13.5352 9.74805C13.5352 8.10742 14.7246 7.08203 16.3926 6.94531L16.3926 5.87891C16.3926 5.63281 16.5293 5.49609 16.7754 5.49609C16.9941 5.49609 17.1582 5.63281 17.1582 5.87891L17.1582 6.94531C18.457 7.05469 19.5508 7.71094 19.8926 9.2832C19.9199 9.39258 19.9473 9.59766 19.9473 9.69336C19.9473 10.1309 19.6602 10.3906 19.2363 10.3906C18.7988 10.3906 18.5664 10.0898 18.4844 9.81641C18.3613 9.05078 18.0059 8.39453 17.1582 8.24414L17.1582 11.7031L17.7051 11.9629C19.0996 12.6191 20.1523 13.3027 20.1523 14.9707C20.1523 16.6797 18.9629 17.7461 17.1582 17.8691L17.1582 18.9492C17.1582 19.1953 16.9941 19.332 16.7754 19.332ZM15.0527 9.65234C15.0527 10.4453 15.627 10.9238 16.3926 11.334L16.3926 8.23047C15.6133 8.33984 15.0527 8.81836 15.0527 9.65234ZM17.1582 16.584C18.0742 16.4883 18.6211 16.0098 18.6211 15.1074C18.6211 14.2051 17.9785 13.7676 17.1582 13.3574Z" style="fill:var(--color-1,white)"></path>
 </g>
</svg>