<svg version="1.1" xmlns="http://www.w3.org/2000/svg" xmlns:xlink="http://www.w3.org/1999/xlink" viewBox="0 0 30.8848 29.1895">
 <g>
  
  <path d="M1.81836 27.5898L28.7109 27.5898L28.7109 25.9766C28.7109 25.4297 28.3965 25.1016 27.8359 25.1016L26.9609 25.1016L26.9609 9.37891L28.1641 9.37891C28.916 9.37891 29.3535 8.83203 29.3535 8.27148C29.3535 7.86133 29.1211 7.50586 28.6152 7.21875L16.9395 0.478516C16.3926 0.164062 15.8184 0 15.2578 0C14.6973 0 14.1094 0.164062 13.5898 0.478516L1.91406 7.21875C1.39453 7.50586 1.17578 7.86133 1.17578 8.27148C1.17578 8.83203 1.61328 9.37891 2.36523 9.37891L3.56836 9.37891L3.56836 25.1016L2.70703 25.1016C2.14648 25.1016 1.81836 25.4297 1.81836 25.9766ZM1.09375 29.1758L29.4219 29.1758C30.0234 29.1758 30.5293 28.6699 30.5293 28.0684C30.5293 27.4668 30.0234 26.9746 29.4219 26.9746L1.09375 26.9746C0.492188 26.9746 0 27.4668 0 28.0684C0 28.6699 0.492188 29.1758 1.09375 29.1758Z" style="fill:var(--color-0,hsl(0 0 0/0.85))"></path>
  <path d="M9.63867 20.6719C9.11914 20.6719 8.90039 20.3574 8.90039 19.9199L8.90039 11.1152C8.90039 10.6504 9.16016 10.377 9.61133 10.377L11.8398 10.377C13.7129 10.377 14.9434 11.4434 14.9434 13.3984C14.9434 14.5742 14.4512 15.6953 13.3164 16.1875L14.752 19.4551C14.8203 19.6328 14.916 19.7969 14.916 19.9883C14.916 20.3984 14.6289 20.6719 14.2188 20.6719C13.8359 20.6719 13.6309 20.4941 13.4805 20.1387L11.9219 16.4883L10.3633 16.4883L10.3633 19.9199C10.3633 20.3711 10.0898 20.6719 9.63867 20.6719ZM10.3633 15.3262L11.7305 15.3262C12.9199 15.3262 13.4805 14.5605 13.4805 13.4258C13.4805 12.3047 12.8516 11.5664 11.7031 11.5664L10.3633 11.5664ZM19.0312 21.6973C18.8262 21.6973 18.6895 21.5605 18.6895 21.3555L18.6895 20.3711C17.4316 20.2754 16.3926 19.6465 16.0781 18.2109C16.0371 18.1016 16.0234 17.9375 16.0234 17.8281C16.0234 17.4316 16.2969 17.1992 16.6934 17.1992C16.9941 17.1992 17.2676 17.377 17.3359 17.7324C17.4863 18.5801 17.8965 19.0859 18.6895 19.1953L18.6895 15.9824L18.2656 15.7773C16.8848 15.1211 16.1191 14.4238 16.1191 13.0703C16.1191 11.5801 17.1855 10.6641 18.6895 10.541L18.6895 9.58398C18.6895 9.36523 18.8262 9.22852 19.0312 9.22852C19.2363 9.22852 19.3867 9.36523 19.3867 9.58398L19.3867 10.541C20.5488 10.6367 21.5332 11.2246 21.834 12.6465C21.8613 12.7422 21.8887 12.9199 21.8887 13.0156C21.8887 13.4121 21.6289 13.6445 21.2461 13.6445C20.8496 13.6445 20.6445 13.3711 20.5762 13.125C20.4668 12.4414 20.1387 11.8535 19.3867 11.7168L19.3867 14.834L19.8789 15.0664C21.1367 15.6543 22.0801 16.2559 22.0801 17.7598C22.0801 19.3047 21 20.2617 19.3867 20.3711L19.3867 21.3555C19.3867 21.5605 19.2363 21.6973 19.0312 21.6973ZM17.4863 12.9883C17.4863 13.6992 18.0059 14.123 18.6895 14.4922L18.6895 11.7031C17.9922 11.7988 17.4863 12.2363 17.4863 12.9883ZM19.3867 19.209C20.207 19.1406 20.6992 18.7031 20.6992 17.8965C20.6992 17.0762 20.1113 16.6797 19.3867 16.3105Z" style="fill:var(--color-1,white)"></path>
 </g>
</svg>