<?xml version="1.0" encoding="UTF-8"?>
<!--Generator: Apple Native CoreSVG 326-->
<!DOCTYPE svg
PUBLIC "-//W3C//DTD SVG 1.1//EN"
       "http://www.w3.org/Graphics/SVG/1.1/DTD/svg11.dtd">
<svg version="1.1" xmlns="http://www.w3.org/2000/svg" xmlns:xlink="http://www.w3.org/1999/xlink" viewBox="0 0 28.2461 27.9043">
 <g>
  <rect height="27.9043" opacity="0" width="28.2461" x="0" y="0"/>
  <path d="M13.9453 27.8906C21.6426 27.8906 27.8906 21.6289 27.8906 13.9453C27.8906 6.24805 21.6426 0 13.9453 0C6.26172 0 0 6.24805 0 13.9453C0 21.6289 6.26172 27.8906 13.9453 27.8906Z" fill="white" fill-opacity="0.85"/>
  <path d="M7.68359 19.5645C7.10938 19.5645 6.86328 19.209 6.86328 18.7305L6.86328 8.94141C6.86328 8.43555 7.16406 8.12109 7.65625 8.12109L10.1309 8.12109C12.209 8.12109 13.5762 9.31055 13.5762 11.4844C13.5762 12.7832 13.0293 14.041 11.7852 14.5742L13.3711 18.2246C13.4531 18.416 13.5488 18.5938 13.5488 18.8125C13.5488 19.2637 13.2344 19.5645 12.7832 19.5645C12.3594 19.5645 12.127 19.373 11.9492 18.9766L10.2266 14.916L8.49023 14.916L8.49023 18.7305C8.49023 19.2363 8.18945 19.5645 7.68359 19.5645ZM8.49023 13.6309L10.0078 13.6309C11.334 13.6309 11.9629 12.7695 11.9629 11.5254C11.9629 10.2676 11.252 9.46094 9.98047 9.46094L8.49023 9.46094ZM18.1289 20.6992C17.8828 20.6992 17.7461 20.5625 17.7461 20.3164L17.7461 19.2227C16.3516 19.127 15.1895 18.4297 14.834 16.8301C14.8066 16.707 14.7793 16.5293 14.7793 16.4062C14.7793 15.9688 15.0801 15.709 15.5176 15.709C15.8594 15.709 16.1602 15.9141 16.2422 16.2969C16.4062 17.2539 16.8574 17.8145 17.7461 17.9238L17.7461 14.3555L17.2676 14.123C15.7363 13.3984 14.8887 12.6191 14.8887 11.1152C14.8887 9.47461 16.0781 8.44922 17.7461 8.3125L17.7461 7.24609C17.7461 7 17.8828 6.86328 18.1289 6.86328C18.3477 6.86328 18.5117 7 18.5117 7.24609L18.5117 8.3125C19.8105 8.42188 20.8906 9.07812 21.2461 10.6504C21.2734 10.7598 21.3008 10.9648 21.3008 11.0605C21.3008 11.498 21.0137 11.7578 20.5762 11.7578C20.1523 11.7578 19.9062 11.457 19.8379 11.1836C19.7148 10.418 19.3594 9.76172 18.5117 9.61133L18.5117 13.0703L19.0586 13.3301C20.4531 13.9863 21.5059 14.6699 21.5059 16.3379C21.5059 18.0469 20.3164 19.1133 18.5117 19.2363L18.5117 20.3164C18.5117 20.5625 18.3477 20.6992 18.1289 20.6992ZM16.4062 11.0195C16.4062 11.8125 16.9805 12.291 17.7461 12.7012L17.7461 9.59766C16.9668 9.70703 16.4062 10.1855 16.4062 11.0195ZM18.5117 17.9512C19.4277 17.8555 19.9746 17.377 19.9746 16.4746C19.9746 15.5723 19.3184 15.1348 18.5117 14.7246Z" fill="white"/>
 </g>
</svg>
