<svg version="1.1" xmlns="http://www.w3.org/2000/svg" xmlns:xlink="http://www.w3.org/1999/xlink" viewBox="0 0 28.2461 27.9043">
 <g>
  
  <path d="M13.9453 27.8906C21.6426 27.8906 27.8906 21.6426 27.8906 13.9453C27.8906 6.24805 21.6426 0 13.9453 0C6.24805 0 0 6.24805 0 13.9453C0 21.6426 6.24805 27.8906 13.9453 27.8906ZM13.9453 25.5664C7.51953 25.5664 2.32422 20.3711 2.32422 13.9453C2.32422 7.51953 7.51953 2.32422 13.9453 2.32422C20.3711 2.32422 25.5664 7.51953 25.5664 13.9453C25.5664 20.3711 20.3711 25.5664 13.9453 25.5664Z" style="fill:var(--color-0,hsl(0 0 0/0.85))"></path>
  <path d="M7.86133 19.3867C8.35352 19.3867 8.64062 19.0723 8.64062 18.5801L8.64062 14.875L10.3359 14.875L12.0039 18.8262C12.1816 19.209 12.4004 19.3867 12.7969 19.3867C13.248 19.3867 13.5488 19.0996 13.5488 18.6621C13.5488 18.457 13.4668 18.2793 13.3848 18.1016L11.8398 14.5469C13.043 14.0273 13.5762 12.8105 13.5762 11.5527C13.5762 9.44727 12.25 8.28516 10.2402 8.28516L7.84766 8.28516C7.36914 8.28516 7.08203 8.59961 7.08203 9.07812L7.08203 18.5801C7.08203 19.0449 7.31445 19.3867 7.86133 19.3867ZM8.64062 13.6309L8.64062 9.58398L10.0898 9.58398C11.334 9.58398 12.0176 10.3633 12.0176 11.5938C12.0176 12.7969 11.416 13.6309 10.1172 13.6309ZM18.0059 19.0859C19.9609 19.0859 21.2598 18.0332 21.2598 16.2695C21.2598 14.6426 20.248 13.9863 18.8945 13.3438L17.9102 12.8789C17.0215 12.4551 16.3242 11.9766 16.3242 11.1016C16.3242 10.1719 17.0352 9.69336 17.9785 9.69336C19.0859 9.69336 19.5098 10.4043 19.6602 11.2656C19.7285 11.5254 19.9609 11.8125 20.3711 11.8125C20.7949 11.8125 21.0684 11.5664 21.0684 11.1426C21.0684 11.0469 21.041 10.8555 21.0137 10.7324C20.6445 9.06445 19.4141 8.46289 17.9785 8.46289C16.1875 8.46289 14.8613 9.47461 14.8613 11.1973C14.8613 12.6465 15.6816 13.4121 17.1582 14.1094L18.1426 14.5879C19.0176 15.0117 19.7832 15.4355 19.7832 16.3926C19.7832 17.377 19.1406 17.8418 18.0195 17.8418C16.8848 17.8418 16.3516 17.2812 16.1602 16.2148C16.0781 15.8457 15.791 15.6543 15.4629 15.6543C15.0391 15.6543 14.752 15.9004 14.752 16.3242C14.752 16.4473 14.7793 16.6113 14.8066 16.7344C15.1758 18.4434 16.502 19.0859 18.0059 19.0859ZM17.9922 20.4941C18.2109 20.4941 18.3613 20.3574 18.3613 20.125L18.3613 7.4375C18.3613 7.20508 18.2109 7.06836 17.9922 7.06836C17.7598 7.06836 17.623 7.20508 17.623 7.4375L17.623 20.125C17.623 20.3574 17.7598 20.4941 17.9922 20.4941Z" style="fill:var(--color-1,hsl(0 0 0/0.85))"></path>
 </g>
</svg>