<svg version="1.1" xmlns="http://www.w3.org/2000/svg" xmlns:xlink="http://www.w3.org/1999/xlink" viewBox="0 0 30.8848 29.1895">
 <g>
  
  <path d="M1.81836 25.9219L28.7109 25.9219L28.7109 25.0059C28.7109 24.459 28.3965 24.1309 27.8359 24.1309L26.9609 24.1309L26.9609 9.37891L28.1641 9.37891C28.916 9.37891 29.3535 8.83203 29.3535 8.27148C29.3535 7.86133 29.1211 7.50586 28.6152 7.21875L16.9395 0.478516C16.3926 0.164062 15.8184 0 15.2578 0C14.6973 0 14.1094 0.164062 13.5898 0.478516L1.91406 7.21875C1.39453 7.50586 1.17578 7.86133 1.17578 8.27148C1.17578 8.83203 1.61328 9.37891 2.36523 9.37891L3.56836 9.37891L3.56836 24.1309L2.70703 24.1309C2.14648 24.1309 1.81836 24.459 1.81836 25.0059ZM5.63281 24.1309L5.63281 7.62891L14.7246 2.5293C14.8887 2.43359 15.0801 2.37891 15.2578 2.37891C15.4355 2.37891 15.627 2.43359 15.8047 2.5293L24.8965 7.62891L24.8965 24.1309ZM1.09375 29.1758L29.4219 29.1758C30.0234 29.1758 30.5293 28.6699 30.5293 28.0684C30.5293 27.4668 30.0234 26.9746 29.4219 26.9746L1.09375 26.9746C0.492188 26.9746 0 27.4668 0 28.0684C0 28.6699 0.492188 29.1758 1.09375 29.1758Z" style="fill:var(--color-0,hsl(0 0 0/0.85))"></path>
  <path d="M9.80273 19.291C10.2402 19.291 10.5 19.0039 10.5 18.5664L10.5 15.2305L12.0312 15.2305L13.5352 18.7852C13.6855 19.127 13.8906 19.291 14.2598 19.291C14.6562 19.291 14.916 19.0312 14.916 18.6348C14.916 18.457 14.8477 18.293 14.7793 18.1289L13.3848 14.9297C14.4648 14.4648 14.9434 13.3711 14.9434 12.2363C14.9434 10.3496 13.7539 9.29688 11.9492 9.29688L9.78906 9.29688C9.35156 9.29688 9.10547 9.57031 9.10547 10.0078L9.10547 18.5664C9.10547 18.9766 9.32422 19.291 9.80273 19.291ZM10.5 14.1094L10.5 10.459L11.8125 10.459C12.9336 10.459 13.5352 11.1699 13.5352 12.2637C13.5352 13.3574 13.002 14.1094 11.8262 14.1094ZM18.9355 19.0176C20.6855 19.0176 21.8613 18.0742 21.8613 16.4746C21.8613 15.0117 20.959 14.4375 19.7422 13.8496L18.8535 13.4258C18.0469 13.043 17.418 12.6191 17.418 11.8398C17.418 10.9922 18.0605 10.5684 18.9219 10.5684C19.9062 10.5684 20.2891 11.2109 20.4258 11.9766C20.4805 12.2227 20.6855 12.4688 21.0684 12.4688C21.4375 12.4688 21.6973 12.25 21.6973 11.8672C21.6973 11.7715 21.6699 11.6074 21.6426 11.5117C21.3145 9.99414 20.207 9.46094 18.9219 9.46094C17.2949 9.46094 16.1055 10.377 16.1055 11.9219C16.1055 13.2207 16.8438 13.918 18.1699 14.5469L19.0586 14.9707C19.8516 15.3398 20.5352 15.7363 20.5352 16.5977C20.5352 17.4863 19.9473 17.8965 18.9492 17.8965C17.9238 17.8965 17.4453 17.3906 17.2676 16.4336C17.1992 16.0918 16.9395 15.9277 16.6523 15.9277C16.2695 15.9277 15.9961 16.1465 15.9961 16.543C15.9961 16.6387 16.0234 16.7891 16.0508 16.9121C16.3926 18.4434 17.582 19.0176 18.9355 19.0176ZM18.9219 20.2891C19.127 20.2891 19.25 20.1523 19.25 19.9609L19.25 8.53125C19.25 8.32617 19.127 8.18945 18.9219 8.18945C18.7168 8.18945 18.5801 8.32617 18.5801 8.53125L18.5801 19.9609C18.5801 20.1523 18.7168 20.2891 18.9219 20.2891Z" style="fill:var(--color-1,hsl(0 0 0/0.85))"></path>
 </g>
</svg>