<svg version="1.1" xmlns="http://www.w3.org/2000/svg" xmlns:xlink="http://www.w3.org/1999/xlink" viewBox="0 0 30.4883 30.3105">
 <g>
  
  <path d="M15.0391 30.3105C15.6543 30.3105 16.2285 30.0508 16.7754 29.1074L19.3047 24.8828L23.8711 24.8828C27.9453 24.8828 30.1328 22.627 30.1328 18.6211L30.1328 8.14844C30.1328 4.14258 27.9453 1.88672 23.8711 1.88672L6.26172 1.88672C2.1875 1.88672 0 4.12891 0 8.14844L0 18.6211C0 22.6406 2.1875 24.8828 6.26172 24.8828L10.7734 24.8828L13.3027 29.1074C13.8496 30.0508 14.4238 30.3105 15.0391 30.3105ZM15.0391 28.0684L12.7559 23.7891C12.3047 22.9004 11.9766 22.6816 11.0059 22.6816L6.26172 22.6816C3.5 22.6816 2.20117 21.2734 2.20117 18.6074L2.20117 8.14844C2.20117 5.48242 3.5 4.08789 6.26172 4.08789L23.8711 4.08789C26.6191 4.08789 27.9316 5.48242 27.9316 8.14844L27.9316 18.6074C27.9316 21.2734 26.6191 22.6816 23.8711 22.6816L19.0723 22.6816C18.1016 22.6816 17.7734 22.9004 17.3223 23.7891Z" style="fill:var(--color-0,hsl(0 0 0/0.85))"></path>
 </g>
</svg>