<svg version="1.1" xmlns="http://www.w3.org/2000/svg" xmlns:xlink="http://www.w3.org/1999/xlink" viewBox="0 0 42.6562 35.041">
 <g>
  
  <path d="M31.5709 6.94531L22.0938 6.94531C17.0898 6.94531 14.2188 9.91211 14.2188 14.8066L14.2188 22.2031C14.2188 23.7691 14.5127 25.1378 15.0795 26.2722L11.8945 29.1074C11.0742 29.832 10.6094 30.1875 9.92578 30.1875C8.98242 30.1875 8.43555 29.5176 8.43555 28.4648L8.43555 24.8965L7.7793 24.8965C3.71875 24.8965 1.51758 22.6543 1.51758 18.6484L1.51758 8.16211C1.51758 4.15625 3.71875 1.90039 7.7793 1.90039L25.3887 1.90039C29.0284 1.90039 31.1624 3.7008 31.5709 6.94531Z" style="fill:var(--color-0,hsl(0 0 0/0.85))"></path>
  <path d="M40.7832 14.8066L40.7832 22.2031C40.7832 26.0723 38.7188 28.1914 34.7812 28.1914L34.5078 28.1914L34.5078 31.4727C34.5078 32.5117 33.9746 33.1816 33.0312 33.1816C32.3613 33.1816 31.9102 32.8125 31.0762 32.1016L26.5098 28.1914L22.0938 28.1914C18.1562 28.1914 16.0918 26.0859 16.0918 22.2031L16.0918 14.8066C16.0918 10.9238 18.1562 8.80469 22.0938 8.80469L34.7812 8.80469C38.7188 8.80469 40.7832 10.9238 40.7832 14.8066ZM27.1113 22.6406C27.1113 23.3379 27.7266 23.9121 28.4238 23.9121C29.1348 23.9121 29.75 23.3516 29.75 22.6406C29.75 21.9297 29.1484 21.3691 28.4238 21.3691C27.7129 21.3691 27.1113 21.9434 27.1113 22.6406ZM27.3164 14.5742L27.4805 19.0449C27.4941 19.6738 27.8223 20.0156 28.4375 20.0156C29.0254 20.0156 29.3535 19.6875 29.3809 19.0449L29.5449 14.5879C29.5723 13.918 29.0801 13.4395 28.4238 13.4395C27.7676 13.4395 27.2891 13.9043 27.3164 14.5742Z" style="fill:var(--color-1,hsl(0 0 0/0.85))"></path>
 </g>
</svg>