<svg version="1.1" xmlns="http://www.w3.org/2000/svg" xmlns:xlink="http://www.w3.org/1999/xlink" viewBox="0 0 28.2461 27.9043">
 <g>
  
  <path d="M13.9453 27.8906C21.6426 27.8906 27.8906 21.6426 27.8906 13.9453C27.8906 6.24805 21.6426 0 13.9453 0C6.24805 0 0 6.24805 0 13.9453C0 21.6426 6.24805 27.8906 13.9453 27.8906ZM13.9453 25.5664C7.51953 25.5664 2.32422 20.3711 2.32422 13.9453C2.32422 7.51953 7.51953 2.32422 13.9453 2.32422C20.3711 2.32422 25.5664 7.51953 25.5664 13.9453C25.5664 20.3711 20.3711 25.5664 13.9453 25.5664Z" style="fill:var(--color-0,hsl(0 0 0/0.85))"></path>
  <path d="M10.5137 21.834C10.7871 21.834 10.9648 21.7109 11.2793 21.4238L13.7266 19.209L18.293 19.209C20.2754 19.209 21.3691 18.1016 21.3691 16.1191L21.3691 10.9648C21.3691 9.00977 20.2754 7.88867 18.293 7.88867L9.59766 7.88867C7.61523 7.88867 6.52148 8.99609 6.52148 10.9648L6.52148 16.1191C6.52148 18.1016 7.61523 19.209 9.59766 19.209L9.92578 19.209L9.92578 21.1641C9.92578 21.5742 10.1445 21.834 10.5137 21.834Z" style="fill:var(--color-1,hsl(0 0 0/0.85))"></path>
 </g>
</svg>