<svg version="1.1" xmlns="http://www.w3.org/2000/svg" xmlns:xlink="http://www.w3.org/1999/xlink" viewBox="0 0 30.4883 30.5293">
 <g>
  
  <path d="M15.0391 0C14.4238 0 13.8496 0.259766 13.3027 1.20312L10.7734 5.42773L6.26172 5.42773C2.1875 5.42773 0 7.66992 0 11.6895L0 22.1621C0 26.1816 2.1875 28.4238 6.26172 28.4238L23.8711 28.4238C27.9453 28.4238 30.1328 26.168 30.1328 22.1621L30.1328 11.6895C30.1328 7.68359 27.9453 5.42773 23.8711 5.42773L19.3047 5.42773L16.7754 1.20312C16.2285 0.259766 15.6543 0 15.0391 0ZM15.0391 2.24219L17.3223 6.52148C17.7734 7.41016 18.1016 7.62891 19.0723 7.62891L23.8711 7.62891C26.6191 7.62891 27.9316 9.02344 27.9316 11.6895L27.9316 22.1484C27.9316 24.8145 26.6191 26.2227 23.8711 26.2227L6.26172 26.2227C3.5 26.2227 2.20117 24.8145 2.20117 22.1484L2.20117 11.6895C2.20117 9.02344 3.5 7.62891 6.26172 7.62891L11.0059 7.62891C11.9766 7.62891 12.3047 7.41016 12.7559 6.52148Z" style="fill:var(--color-0,hsl(0 0 0/0.85))"></path>
 </g>
</svg>