<?xml version="1.0" encoding="UTF-8"?>
<!--Generator: Apple Native CoreSVG 326-->
<!DOCTYPE svg
PUBLIC "-//W3C//DTD SVG 1.1//EN"
       "http://www.w3.org/Graphics/SVG/1.1/DTD/svg11.dtd">
<svg version="1.1" xmlns="http://www.w3.org/2000/svg" xmlns:xlink="http://www.w3.org/1999/xlink" viewBox="0 0 42.54 41.8715">
 <g>
  <rect height="41.8715" opacity="0" width="42.54" x="0" y="0"/>
  <path d="M30.0222 7.67188L27.8257 9.86836L12.2944 9.86836C9.51904 9.86836 8.22021 11.2629 8.22021 13.9289L8.22021 24.3879C8.22021 27.0539 9.51904 28.4621 12.2944 28.4621L13.9624 28.4621C14.7144 28.4621 14.9878 28.7492 14.9878 29.4875L14.9878 33.4523L19.3628 29.1047C19.8823 28.5715 20.2788 28.4621 21.0308 28.4621L29.8901 28.4621C32.6519 28.4621 33.9507 27.0539 33.9507 24.3879L33.9507 13.9289C33.9507 13.7695 33.946 13.6147 33.9361 13.465L35.8357 11.5653C36.0475 12.2626 36.1519 13.054 36.1519 13.9289L36.1519 24.4016C36.1519 28.4074 33.9644 30.6633 29.8901 30.6633L21.1265 30.6633L16.396 34.8606C15.5757 35.5988 15.1108 35.9543 14.4272 35.9543C13.4839 35.9543 12.937 35.2707 12.937 34.218L12.937 30.6633L12.2808 30.6633C8.22021 30.6633 6.01904 28.4211 6.01904 24.4016L6.01904 13.9289C6.01904 9.90938 8.22021 7.66719 12.2808 7.66719L29.8901 7.66719C29.9355 7.66719 29.9806 7.66747 30.0222 7.67188Z" fill="white" fill-opacity="0.85"/>
  <path d="M23.2046 19.7121L25.9937 18.468L38.0249 6.43672L36.1108 4.53633L24.0933 16.5676L22.7671 19.2609C22.6577 19.4934 22.9448 19.8215 23.2046 19.7121ZM39.0503 5.41133L40.062 4.37227C40.5542 3.88008 40.5542 3.19649 40.0894 2.73165L39.7612 2.40352C39.3237 1.96602 38.6265 2.00704 38.1753 2.47188L37.1362 3.4836Z" fill="white" fill-opacity="0.85"/>
 </g>
</svg>
