<?xml version="1.0" encoding="UTF-8"?>
<!--Generator: Apple Native CoreSVG 326-->
<!DOCTYPE svg
PUBLIC "-//W3C//DTD SVG 1.1//EN"
       "http://www.w3.org/Graphics/SVG/1.1/DTD/svg11.dtd">
<svg version="1.1" xmlns="http://www.w3.org/2000/svg" xmlns:xlink="http://www.w3.org/1999/xlink" viewBox="0 0 30.8848 29.1895">
 <g>
  <rect height="29.1895" opacity="0" width="30.8848" x="0" y="0"/>
  <path d="M2.36523 9.37891L28.1641 9.37891C28.916 9.37891 29.3535 8.83203 29.3535 8.27148C29.3535 7.86133 29.1211 7.50586 28.6152 7.21875L16.9395 0.478516C16.3926 0.164062 15.8184 0 15.2578 0C14.6973 0 14.1094 0.164062 13.5898 0.478516L1.91406 7.21875C1.39453 7.50586 1.17578 7.86133 1.17578 8.27148C1.17578 8.83203 1.61328 9.37891 2.36523 9.37891ZM3.11719 12.209L6.76758 12.209C7.27344 12.209 7.57422 11.9219 7.57422 11.416L7.57422 11.2246C7.57422 10.7188 7.27344 10.418 6.76758 10.418L3.11719 10.418C2.61133 10.418 2.31055 10.7188 2.31055 11.2246L2.31055 11.416C2.31055 11.9219 2.61133 12.209 3.11719 12.209ZM3.91016 24.5137L5.97461 24.5137L5.97461 11.8262L3.91016 11.8262ZM3.11719 25.9219L6.76758 25.9219C7.27344 25.9219 7.57422 25.6348 7.57422 25.1152L7.57422 24.9238C7.57422 24.418 7.27344 24.1309 6.76758 24.1309L3.11719 24.1309C2.61133 24.1309 2.31055 24.418 2.31055 24.9238L2.31055 25.1152C2.31055 25.6348 2.61133 25.9219 3.11719 25.9219ZM10.0078 12.209L13.6445 12.209C14.1641 12.209 14.4512 11.9219 14.4512 11.416L14.4512 11.2246C14.4512 10.7188 14.1641 10.418 13.6445 10.418L10.0078 10.418C9.48828 10.418 9.20117 10.7188 9.20117 11.2246L9.20117 11.416C9.20117 11.9219 9.48828 12.209 10.0078 12.209ZM10.7871 24.5137L12.8516 24.5137L12.8516 11.8262L10.7871 11.8262ZM10.0078 25.9219L13.6445 25.9219C14.1641 25.9219 14.4512 25.6348 14.4512 25.1152L14.4512 24.9238C14.4512 24.418 14.1641 24.1309 13.6445 24.1309L10.0078 24.1309C9.48828 24.1309 9.20117 24.418 9.20117 24.9238L9.20117 25.1152C9.20117 25.6348 9.48828 25.9219 10.0078 25.9219ZM16.8848 12.209L20.5215 12.209C21.041 12.209 21.3418 11.9219 21.3418 11.416L21.3418 11.2246C21.3418 10.7188 21.041 10.418 20.5215 10.418L16.8848 10.418C16.3652 10.418 16.0781 10.7188 16.0781 11.2246L16.0781 11.416C16.0781 11.9219 16.3652 12.209 16.8848 12.209ZM17.6777 24.5137L19.7422 24.5137L19.7422 11.8262L17.6777 11.8262ZM16.8848 25.9219L20.5215 25.9219C21.041 25.9219 21.3418 25.6348 21.3418 25.1152L21.3418 24.9238C21.3418 24.418 21.041 24.1309 20.5215 24.1309L16.8848 24.1309C16.3652 24.1309 16.0781 24.418 16.0781 24.9238L16.0781 25.1152C16.0781 25.6348 16.3652 25.9219 16.8848 25.9219ZM23.7617 12.209L27.4121 12.209C27.918 12.209 28.2188 11.9219 28.2188 11.416L28.2188 11.2246C28.2188 10.7188 27.918 10.418 27.4121 10.418L23.7617 10.418C23.2559 10.418 22.9551 10.7188 22.9551 11.2246L22.9551 11.416C22.9551 11.9219 23.2559 12.209 23.7617 12.209ZM24.5684 24.5137L26.6328 24.5137L26.6328 11.8262L24.5684 11.8262ZM23.7617 25.9219L27.4121 25.9219C27.918 25.9219 28.2188 25.6348 28.2188 25.1152L28.2188 24.9238C28.2188 24.418 27.918 24.1309 27.4121 24.1309L23.7617 24.1309C23.2559 24.1309 22.9551 24.418 22.9551 24.9238L22.9551 25.1152C22.9551 25.6348 23.2559 25.9219 23.7617 25.9219ZM1.09375 29.1758L29.4219 29.1758C30.0234 29.1758 30.5293 28.6699 30.5293 28.0684C30.5293 27.4668 30.0234 26.9746 29.4219 26.9746L1.09375 26.9746C0.492188 26.9746 0 27.4668 0 28.0684C0 28.6699 0.492188 29.1758 1.09375 29.1758Z" fill="white" fill-opacity="0.85"/>
 </g>
</svg>
