<svg version="1.1" xmlns="http://www.w3.org/2000/svg" xmlns:xlink="http://www.w3.org/1999/xlink" viewBox="0 0 28.2461 27.9043">
 <g>
  
  <path d="M13.9453 27.8906C21.6426 27.8906 27.8906 21.6426 27.8906 13.9453C27.8906 6.24805 21.6426 0 13.9453 0C6.24805 0 0 6.24805 0 13.9453C0 21.6426 6.24805 27.8906 13.9453 27.8906ZM13.9453 25.5664C7.51953 25.5664 2.32422 20.3711 2.32422 13.9453C2.32422 7.51953 7.51953 2.32422 13.9453 2.32422C20.3711 2.32422 25.5664 7.51953 25.5664 13.9453C25.5664 20.3711 20.3711 25.5664 13.9453 25.5664Z" style="fill:var(--color-0,hsl(0 0 0/0.85))"></path>
  <path d="M7.73828 10.9785L20.125 10.9785C20.5352 10.9785 20.7676 10.6777 20.7676 10.3633C20.7676 10.1582 20.6445 9.93945 20.3848 9.80273L14.793 6.57617C14.5195 6.39844 14.2051 6.31641 13.9316 6.31641C13.6582 6.31641 13.3438 6.39844 13.0977 6.57617L7.47852 9.80273C7.23242 9.93945 7.0957 10.1582 7.0957 10.3633C7.0957 10.6777 7.3418 10.9785 7.73828 10.9785ZM6.54883 19.8652C6.54883 20.1934 6.80859 20.4805 7.15039 20.4805L20.7266 20.4805C21.0547 20.4805 21.3145 20.1934 21.3145 19.8652C21.3145 19.5371 21.0547 19.2637 20.7266 19.2637L7.15039 19.2637C6.80859 19.2637 6.54883 19.5371 6.54883 19.8652ZM7.65625 18.416C7.65625 18.7031 7.82031 18.8809 8.10742 18.8809L9.85742 18.8809C10.1445 18.8809 10.3359 18.7031 10.3359 18.416L10.3359 18.3203C10.3359 18.0469 10.1445 17.8691 9.85742 17.8691L9.57031 17.8691L9.57031 12.373L9.85742 12.373C10.1445 12.373 10.3359 12.209 10.3359 11.9082L10.3359 11.8125C10.3359 11.5391 10.1445 11.3613 9.85742 11.3613L8.10742 11.3613C7.82031 11.3613 7.65625 11.5391 7.65625 11.8125L7.65625 11.9082C7.65625 12.209 7.82031 12.373 8.10742 12.373L8.4082 12.373L8.4082 17.8691L8.10742 17.8691C7.82031 17.8691 7.65625 18.0469 7.65625 18.3203ZM10.9512 18.416C10.9512 18.7031 11.1289 18.8809 11.416 18.8809L13.1523 18.8809C13.4395 18.8809 13.6172 18.7031 13.6172 18.416L13.6172 18.3203C13.6172 18.0469 13.4395 17.8691 13.1523 17.8691L12.8516 17.8691L12.8516 12.373L13.1523 12.373C13.4395 12.373 13.6172 12.209 13.6172 11.9082L13.6172 11.8125C13.6172 11.5391 13.4395 11.3613 13.1523 11.3613L11.416 11.3613C11.1289 11.3613 10.9512 11.5391 10.9512 11.8125L10.9512 11.9082C10.9512 12.209 11.1289 12.373 11.416 12.373L11.7168 12.373L11.7168 17.8691L11.416 17.8691C11.1289 17.8691 10.9512 18.0469 10.9512 18.3203ZM14.2461 18.416C14.2461 18.7031 14.4238 18.8809 14.7109 18.8809L16.4609 18.8809C16.7344 18.8809 16.9121 18.7031 16.9121 18.416L16.9121 18.3203C16.9121 18.0469 16.7344 17.8691 16.4609 17.8691L16.1465 17.8691L16.1465 12.373L16.4609 12.373C16.7344 12.373 16.9121 12.209 16.9121 11.9082L16.9121 11.8125C16.9121 11.5391 16.7344 11.3613 16.4609 11.3613L14.7109 11.3613C14.4238 11.3613 14.2461 11.5391 14.2461 11.8125L14.2461 11.9082C14.2461 12.209 14.4238 12.373 14.7109 12.373L15.0117 12.373L15.0117 17.8691L14.7109 17.8691C14.4238 17.8691 14.2461 18.0469 14.2461 18.3203ZM17.5273 18.416C17.5273 18.7031 17.7324 18.8809 18.0059 18.8809L19.7559 18.8809C20.043 18.8809 20.2207 18.7031 20.2207 18.416L20.2207 18.3203C20.2207 18.0469 20.043 17.8691 19.7559 17.8691L19.4688 17.8691L19.4688 12.373L19.7559 12.373C20.043 12.373 20.2207 12.209 20.2207 11.9082L20.2207 11.8125C20.2207 11.5391 20.043 11.3613 19.7559 11.3613L18.0059 11.3613C17.7324 11.3613 17.5273 11.5391 17.5273 11.8125L17.5273 11.9082C17.5273 12.209 17.7324 12.373 18.0059 12.373L18.3066 12.373L18.3066 17.8691L18.0059 17.8691C17.7324 17.8691 17.5273 18.0469 17.5273 18.3203Z" style="fill:var(--color-1,hsl(0 0 0/0.85))"></path>
 </g>
</svg>