<svg version="1.1" xmlns="http://www.w3.org/2000/svg" xmlns:xlink="http://www.w3.org/1999/xlink" viewBox="0 0 20.0293 32.0059">
 <g>
  
  <path d="M2.14648 31.9922L17.5273 31.9922C18.8535 31.9922 19.6738 31.0625 19.6738 29.6406L19.6738 2.35156C19.6738 0.916016 18.8535 0 17.5273 0L2.14648 0C0.820312 0 0 0.916016 0 2.35156L0 29.6406C0 31.0625 0.820312 31.9922 2.14648 31.9922ZM2.83008 29.9004C2.33789 29.9004 2.07812 29.668 2.07812 29.1621L2.07812 2.83008C2.07812 2.32422 2.33789 2.07812 2.83008 2.07812L16.8438 2.07812C17.3496 2.07812 17.5957 2.32422 17.5957 2.83008L17.5957 29.1621C17.5957 29.668 17.3496 29.9004 16.8438 29.9004ZM5.57812 9.61133L8.23047 9.61133C8.57227 9.61133 8.79102 9.39258 8.79102 9.05078L8.79102 6.4668C8.79102 6.13867 8.57227 5.90625 8.23047 5.90625L5.57812 5.90625C5.23633 5.90625 5.03125 6.13867 5.03125 6.4668L5.03125 9.05078C5.03125 9.39258 5.23633 9.61133 5.57812 9.61133ZM11.4297 9.61133L14.082 9.61133C14.4238 9.61133 14.6426 9.39258 14.6426 9.05078L14.6426 6.4668C14.6426 6.13867 14.4238 5.90625 14.082 5.90625L11.4297 5.90625C11.1016 5.90625 10.8828 6.13867 10.8828 6.4668L10.8828 9.05078C10.8828 9.39258 11.1016 9.61133 11.4297 9.61133ZM5.57812 15.0254L8.23047 15.0254C8.57227 15.0254 8.79102 14.8066 8.79102 14.4648L8.79102 11.8809C8.79102 11.5527 8.57227 11.3203 8.23047 11.3203L5.57812 11.3203C5.23633 11.3203 5.03125 11.5527 5.03125 11.8809L5.03125 14.4648C5.03125 14.8066 5.23633 15.0254 5.57812 15.0254ZM11.4297 15.0254L14.082 15.0254C14.4238 15.0254 14.6426 14.8066 14.6426 14.4648L14.6426 11.8809C14.6426 11.5527 14.4238 11.3203 14.082 11.3203L11.4297 11.3203C11.1016 11.3203 10.8828 11.5527 10.8828 11.8809L10.8828 14.4648C10.8828 14.8066 11.1016 15.0254 11.4297 15.0254ZM5.57812 20.4395L8.23047 20.4395C8.57227 20.4395 8.79102 20.207 8.79102 19.8789L8.79102 17.2949C8.79102 16.9531 8.57227 16.7344 8.23047 16.7344L5.57812 16.7344C5.23633 16.7344 5.03125 16.9531 5.03125 17.2949L5.03125 19.8789C5.03125 20.207 5.23633 20.4395 5.57812 20.4395ZM11.4297 20.4395L14.082 20.4395C14.4238 20.4395 14.6426 20.207 14.6426 19.8789L14.6426 17.2949C14.6426 16.9531 14.4238 16.7344 14.082 16.7344L11.4297 16.7344C11.1016 16.7344 10.8828 16.9531 10.8828 17.2949L10.8828 19.8789C10.8828 20.207 11.1016 20.4395 11.4297 20.4395ZM5.82422 30.8984L7.51953 30.8984L7.51953 26.5371C7.51953 26.2637 7.64258 26.127 7.94336 26.127L11.7441 26.127C12.0312 26.127 12.168 26.2637 12.168 26.5371L12.168 30.8984L13.8633 30.8984L13.8633 26.0586C13.8633 24.9512 13.3848 24.418 12.3047 24.418L7.38281 24.418C6.30273 24.418 5.82422 24.9512 5.82422 26.0586Z" style="fill:var(--color-0,hsl(0 0 0/0.85))"></path>
 </g>
</svg>