<svg version="1.1" xmlns="http://www.w3.org/2000/svg" xmlns:xlink="http://www.w3.org/1999/xlink" viewBox="0 0 28.2461 27.9043">
 <g>
  
  <path d="M13.9453 27.8906C21.6426 27.8906 27.8906 21.6426 27.8906 13.9453C27.8906 6.24805 21.6426 0 13.9453 0C6.24805 0 0 6.24805 0 13.9453C0 21.6426 6.24805 27.8906 13.9453 27.8906ZM13.9453 25.5664C7.51953 25.5664 2.32422 20.3711 2.32422 13.9453C2.32422 7.51953 7.51953 2.32422 13.9453 2.32422C20.3711 2.32422 25.5664 7.51953 25.5664 13.9453C25.5664 20.3711 20.3711 25.5664 13.9453 25.5664ZM13.9453 26.7285C15.1348 26.7285 16.2832 26.5645 17.3633 26.2227L17.3633 9.26953C17.3633 8.33984 16.8301 7.72461 15.9277 7.72461L6.75391 7.72461C5.86523 7.72461 5.31836 8.33984 5.31836 9.26953L5.31836 22.9141C7.4375 25.2656 10.5 26.7285 13.9453 26.7285ZM8.53125 23.0781C8.33984 23.0781 8.2168 22.9414 8.2168 22.75L8.2168 21.3008C8.2168 21.1094 8.33984 20.9727 8.53125 20.9727L10.0215 20.9727C10.1992 20.9727 10.3496 21.1094 10.3496 21.3008L10.3496 22.75C10.3496 22.9414 10.1992 23.0781 10.0215 23.0781ZM12.6328 23.0781C12.4414 23.0781 12.3184 22.9414 12.3184 22.75L12.3184 21.3008C12.3184 21.1094 12.4414 20.9727 12.6328 20.9727L14.123 20.9727C14.3145 20.9727 14.4512 21.1094 14.4512 21.3008L14.4512 22.75C14.4512 22.9414 14.3145 23.0781 14.123 23.0781ZM8.53125 19.4688C8.33984 19.4688 8.2168 19.332 8.2168 19.1406L8.2168 17.6914C8.2168 17.5137 8.33984 17.3633 8.53125 17.3633L10.0215 17.3633C10.1992 17.3633 10.3496 17.5137 10.3496 17.6914L10.3496 19.1406C10.3496 19.332 10.1992 19.4688 10.0215 19.4688ZM12.6328 19.4688C12.4414 19.4688 12.3184 19.332 12.3184 19.1406L12.3184 17.6914C12.3184 17.5137 12.4414 17.3633 12.6328 17.3633L14.123 17.3633C14.3145 17.3633 14.4512 17.5137 14.4512 17.6914L14.4512 19.1406C14.4512 19.332 14.3145 19.4688 14.123 19.4688ZM8.53125 15.8594C8.33984 15.8594 8.2168 15.7227 8.2168 15.5312L8.2168 14.0957C8.2168 13.9043 8.33984 13.7539 8.53125 13.7539L10.0215 13.7539C10.1992 13.7539 10.3496 13.9043 10.3496 14.0957L10.3496 15.5312C10.3496 15.7227 10.1992 15.8594 10.0215 15.8594ZM12.6328 15.8594C12.4414 15.8594 12.3184 15.7227 12.3184 15.5312L12.3184 14.0957C12.3184 13.9043 12.4414 13.7539 12.6328 13.7539L14.123 13.7539C14.3145 13.7539 14.4512 13.9043 14.4512 14.0957L14.4512 15.5312C14.4512 15.7227 14.3145 15.8594 14.123 15.8594ZM8.53125 12.291C8.33984 12.291 8.2168 12.1406 8.2168 11.9629L8.2168 10.5137C8.2168 10.3086 8.33984 10.1855 8.53125 10.1855L10.0215 10.1855C10.1992 10.1855 10.3496 10.3086 10.3496 10.5137L10.3496 11.9629C10.3496 12.1406 10.1992 12.291 10.0215 12.291ZM12.6328 12.291C12.4414 12.291 12.3184 12.1406 12.3184 11.9629L12.3184 10.5137C12.3184 10.3086 12.4414 10.1855 12.6328 10.1855L14.123 10.1855C14.3145 10.1855 14.4512 10.3086 14.4512 10.5137L14.4512 11.9629C14.4512 12.1406 14.3145 12.291 14.123 12.291ZM18.4297 25.8535C20.6855 24.9102 22.5723 23.2832 23.8301 21.2188L23.8301 12.7559C23.8301 11.8125 23.2832 11.2109 22.3945 11.2109L18.4297 11.2109ZM20.4805 21.4922C20.3164 21.4922 20.207 21.3828 20.207 21.2461L20.207 20.002C20.207 19.8652 20.3164 19.7285 20.4805 19.7285L21.7656 19.7285C21.9023 19.7285 22.0117 19.8652 22.0117 20.002L22.0117 21.2461C22.0117 21.3828 21.9023 21.4922 21.7656 21.4922ZM20.4805 18.375C20.3164 18.375 20.207 18.2656 20.207 18.1016L20.207 16.8848C20.207 16.7207 20.3164 16.625 20.4805 16.625L21.7656 16.625C21.9023 16.625 22.0117 16.7207 22.0117 16.8848L22.0117 18.1016C22.0117 18.2656 21.9023 18.375 21.7656 18.375ZM20.4805 15.2578C20.3164 15.2578 20.207 15.1484 20.207 14.9844L20.207 13.7539C20.207 13.6035 20.3164 13.4941 20.4805 13.4941L21.7656 13.4941C21.9023 13.4941 22.0117 13.6035 22.0117 13.7539L22.0117 14.9844C22.0117 15.1484 21.9023 15.2578 21.7656 15.2578Z" style="fill:var(--color-0,hsl(0 0 0/0.85))"></path>
 </g>
</svg>