<svg version="1.1" xmlns="http://www.w3.org/2000/svg" xmlns:xlink="http://www.w3.org/1999/xlink" viewBox="0 0 30.7891 31.9238">
 <g>
  
  <path d="M1.91406 24.6094C1.91406 25.457 2.16016 26.1406 2.61133 26.6328L2.61133 30.0918C2.61133 31.1035 3.39062 31.8965 4.41602 31.8965L6.0293 31.8965C7.05469 31.8965 7.84766 31.1035 7.84766 30.0918L7.84766 27.8906C10.1035 28.041 12.5781 28.123 15.2168 28.123C17.8555 28.123 20.3438 28.041 22.5996 27.8906L22.5996 30.0918C22.5996 31.1035 23.3789 31.8965 24.4043 31.8965L26.0176 31.8965C27.043 31.8965 27.8359 31.1035 27.8359 30.0918L27.8359 26.6328C28.2871 26.1406 28.5332 25.457 28.5332 24.6094L28.5332 3.51367C28.5332 1.75 27.4941 0.738281 25.6348 0.519531C22.7773 0.177734 18.9766 0 15.2168 0C11.457 0 7.64258 0.191406 4.79883 0.519531C2.93945 0.738281 1.91406 1.75 1.91406 3.51367ZM15.2168 26.332C11.1973 26.332 7.79297 26.1543 5.27734 25.8535C4.11523 25.7168 3.70508 25.1152 3.70508 24.0625L3.70508 4.06055C3.70508 3.02148 4.25195 2.39258 5.27734 2.26953C7.73828 1.96875 11.375 1.79102 15.2168 1.79102C19.0176 1.79102 22.6543 1.96875 25.1562 2.26953C26.3184 2.40625 26.7422 3.00781 26.7422 4.06055L26.7422 24.0625C26.7422 25.1152 26.3184 25.7168 25.1562 25.8535C22.5996 26.1543 19.1953 26.332 15.2168 26.332ZM6.37109 18.6621C11.7031 19.4961 18.7031 19.5098 24.0762 18.6621C24.9375 18.5117 25.3477 18.0332 25.3477 17.1172L25.3477 5.35938C25.3477 4.33398 24.8828 3.77344 23.8984 3.67773C18.498 3.13086 11.9766 3.14453 6.5625 3.67773C5.5918 3.77344 5.09961 4.33398 5.09961 5.35938L5.09961 17.1172C5.09961 18.0332 5.52344 18.5117 6.37109 18.6621ZM1.91406 13.0703L1.91406 5.05859L1.29883 5.05859C0.533203 5.05859 0 5.53711 0 6.26172L0 11.8809C0 12.6055 0.533203 13.0703 1.29883 13.0703ZM28.5332 13.0703L29.1348 13.0703C29.9004 13.0703 30.4336 12.6055 30.4336 11.8809L30.4336 6.26172C30.4336 5.53711 29.9004 5.05859 29.1348 5.05859L28.5332 5.05859ZM7.41016 24.2129C8.35352 24.2129 9.06445 23.4883 9.06445 22.5586C9.06445 21.6152 8.35352 20.9043 7.41016 20.9043C6.4668 20.9043 5.75586 21.6152 5.75586 22.5586C5.75586 23.4883 6.4668 24.2129 7.41016 24.2129ZM11.9629 23.7207L18.457 23.7207C19.1543 23.7207 19.6465 23.2285 19.6465 22.5312C19.6465 21.8203 19.1543 21.3418 18.457 21.3418L11.9629 21.3418C11.252 21.3418 10.7598 21.8203 10.7598 22.5312C10.7598 23.2285 11.252 23.7207 11.9629 23.7207ZM23.0234 24.2129C23.9668 24.2129 24.6914 23.4883 24.6914 22.5586C24.6914 21.6152 23.9668 20.9043 23.0234 20.9043C22.0938 20.9043 21.3828 21.6152 21.3828 22.5586C21.3828 23.4883 22.0938 24.2129 23.0234 24.2129Z" style="fill:var(--color-0,hsl(0 0 0/0.85))"></path>
 </g>
</svg>