<?xml version="1.0" encoding="UTF-8"?>
<!--Generator: Apple Native CoreSVG 326-->
<!DOCTYPE svg
PUBLIC "-//W3C//DTD SVG 1.1//EN"
       "http://www.w3.org/Graphics/SVG/1.1/DTD/svg11.dtd">
<svg version="1.1" xmlns="http://www.w3.org/2000/svg" xmlns:xlink="http://www.w3.org/1999/xlink" viewBox="0 0 28.9297 33.6465">
 <g>
  <rect height="33.6465" opacity="0" width="28.9297" x="0" y="0"/>
  <path d="M1.91406 31.3633C1.91406 32.375 2.69336 33.168 3.71875 33.168L5.33203 33.168C6.35742 33.168 7.15039 32.375 7.15039 31.3633L7.15039 29.0938C9.84375 29.2715 12.0723 29.3809 14.2871 29.3809C16.502 29.3809 18.7168 29.2852 21.4238 29.0938L21.4238 31.3633C21.4238 32.375 22.2031 33.168 23.2285 33.168L24.8418 33.168C25.8672 33.168 26.6602 32.375 26.6602 31.3633L26.6602 3.48633C26.6602 1.73633 25.6211 0.710938 23.7617 0.505859C20.877 0.164062 17.5684 0 14.2871 0C11.0195 0 7.72461 0.164062 4.79883 0.505859C2.93945 0.710938 1.91406 1.73633 1.91406 3.48633ZM4.41602 11.0059L4.41602 4.59375C4.41602 3.66406 4.92188 3.07617 5.76953 2.9668C8.61328 2.65234 11.4434 2.48828 14.2871 2.48828C17.1172 2.48828 19.9746 2.66602 22.8047 2.9668C23.6523 3.07617 24.1582 3.66406 24.1582 4.59375L24.1582 11.0059ZM4.41602 13.002L24.1582 13.002L24.1582 19.127C24.1582 20.0566 23.6523 20.6445 22.8047 20.7402C20.0566 21.0547 17.1582 21.2188 14.2871 21.2188C11.4023 21.2188 8.51758 21.0684 5.76953 20.7402C4.92188 20.6445 4.41602 20.0566 4.41602 19.127ZM6.95898 26.5371C6.04297 26.5371 5.31836 25.8125 5.31836 24.8965C5.31836 23.9668 6.04297 23.2559 6.95898 23.2559C7.88867 23.2559 8.59961 23.9668 8.59961 24.8965C8.59961 25.8125 7.88867 26.5371 6.95898 26.5371ZM11.9082 26.0312C11.252 26.0312 10.7598 25.5391 10.7598 24.8828C10.7598 24.2129 11.2383 23.7344 11.9082 23.7344L16.6523 23.7344C17.3359 23.7344 17.8145 24.2129 17.8145 24.8828C17.8145 25.5391 17.3223 26.0312 16.6523 26.0312ZM21.6152 26.5371C20.6855 26.5371 19.9746 25.8125 19.9746 24.8965C19.9746 23.9668 20.6855 23.2559 21.6152 23.2559C22.5312 23.2559 23.2559 23.9668 23.2559 24.8965C23.2559 25.8125 22.5312 26.5371 21.6152 26.5371ZM2.80273 16.1738L2.80273 9.11914L1.29883 9.11914C0.533203 9.11914 0 9.59766 0 10.3223L0 14.9844C0 15.6953 0.533203 16.1738 1.29883 16.1738ZM25.7715 16.1738L27.2754 16.1738C28.041 16.1738 28.5742 15.6953 28.5742 14.9844L28.5742 10.3223C28.5742 9.59766 28.041 9.11914 27.2754 9.11914L25.7715 9.11914Z" fill="white" fill-opacity="0.85"/>
 </g>
</svg>
