<svg version="1.1" xmlns="http://www.w3.org/2000/svg" xmlns:xlink="http://www.w3.org/1999/xlink" viewBox="0 0 30.2422 31.6504">
 <g>
  
  <path d="M3.71875 31.6504L5.33203 31.6504C6.35742 31.6504 7.15039 30.8574 7.15039 29.8457L7.15039 27.5762C9.85742 27.7676 12.5371 27.8633 14.9434 27.8633C17.3496 27.8633 20.0293 27.7812 22.75 27.5762L22.75 29.8457C22.75 30.8574 23.5293 31.6504 24.5547 31.6504L26.168 31.6504C27.1934 31.6504 27.9863 30.8574 27.9863 29.8457L27.9863 3.54102C27.9863 1.77734 26.9473 0.765625 25.1016 0.546875C22.1895 0.205078 18.457 0.0273438 14.9434 0.0273438C11.457 0.0273438 7.72461 0.205078 4.79883 0.546875C2.93945 0.765625 1.91406 1.77734 1.91406 3.54102L1.91406 29.8457C1.91406 30.8574 2.69336 31.6504 3.71875 31.6504ZM5.87891 18.5254C4.97656 18.375 4.52539 17.8691 4.52539 16.8984L4.52539 4.75781C4.52539 3.66406 5.04492 3.07617 6.08398 2.9668C11.7852 2.36523 18.1426 2.36523 23.8301 2.9668C24.8828 3.07617 25.375 3.66406 25.375 4.75781L25.375 16.8984C25.375 17.8691 24.9375 18.375 24.0215 18.5254C18.3477 19.3594 11.498 19.3594 5.87891 18.5254ZM6.72656 24.623C5.71484 24.623 4.96289 23.8574 4.96289 22.8594C4.96289 21.8477 5.71484 21.0957 6.72656 21.0957C7.73828 21.0957 8.49023 21.8477 8.49023 22.8594C8.49023 23.8574 7.73828 24.623 6.72656 24.623ZM11.9629 24.0215C11.252 24.0215 10.7598 23.5293 10.7598 22.832C10.7598 22.1211 11.252 21.6426 11.9629 21.6426L17.9102 21.6426C18.6074 21.6426 19.0996 22.1211 19.0996 22.832C19.0996 23.5293 18.6074 24.0215 17.9102 24.0215ZM23.1602 24.623C22.1621 24.623 21.4102 23.8574 21.4102 22.8594C21.4102 21.8477 22.1621 21.0957 23.1602 21.0957C24.1719 21.0957 24.9375 21.8477 24.9375 22.8594C24.9375 23.8574 24.1719 24.623 23.1602 24.623ZM1.91406 12.8242L1.91406 5.08594L1.29883 5.08594C0.533203 5.08594 0 5.56445 0 6.28906L0 11.6348C0 12.3594 0.533203 12.8242 1.29883 12.8242ZM27.9863 12.8242L28.5879 12.8242C29.3535 12.8242 29.8867 12.3594 29.8867 11.6348L29.8867 6.28906C29.8867 5.56445 29.3535 5.08594 28.5879 5.08594L27.9863 5.08594Z" style="fill:var(--color-0,hsl(0 0 0/0.85))"></path>
 </g>
</svg>