<svg version="1.1" xmlns="http://www.w3.org/2000/svg" xmlns:xlink="http://www.w3.org/1999/xlink" viewBox="0 0 24.6777 29.3809">
 <g>
  
  <path d="M16.1738 29.3672C21.123 29.3672 24.3223 26.1816 24.3223 21.2324L24.3223 14.4922C24.3223 12.6191 23.7344 11.1152 22.5723 10.0488L13.9453 2.10547C12.25 0.560547 10.459 0 8.32617 0L4.10156 0C1.64062 0 0 1.66797 0 4.14258L0 25.2656C0 27.8359 1.55859 29.3672 4.14258 29.3672ZM16.1328 27.166L4.19727 27.166C2.76172 27.166 2.20117 26.6738 2.20117 25.2246L2.20117 4.16992C2.20117 2.99414 2.9668 2.20117 4.15625 2.20117L8.27148 2.20117C9.9668 2.20117 11.2109 2.61133 12.4277 3.71875L21.041 11.6348C21.793 12.3184 22.1211 13.1523 22.1211 14.5195L22.1211 21.1914C22.1211 25.0195 19.9473 27.166 16.1328 27.166Z" style="fill:var(--color-0,hsl(0 0 0/0.85))"></path>
 </g>
</svg>