<?xml version="1.0" encoding="UTF-8"?>
<!--Generator: Apple Native CoreSVG 326-->
<!DOCTYPE svg
PUBLIC "-//W3C//DTD SVG 1.1//EN"
       "http://www.w3.org/Graphics/SVG/1.1/DTD/svg11.dtd">
<svg version="1.1" xmlns="http://www.w3.org/2000/svg" xmlns:xlink="http://www.w3.org/1999/xlink" viewBox="0 0 31.8965 23.8574">
 <g>
  <rect height="23.8574" opacity="0" width="31.8965" x="0" y="0"/>
  <path d="M11.4707 23.8438L20.0703 23.8438C28 23.8438 31.541 20.1934 31.541 12.7285L31.541 4.14258C31.541 1.39453 30.1191 0 27.3438 0L4.19727 0C1.42188 0 0 1.39453 0 4.14258L0 12.7285C0 20.1934 3.54102 23.8438 11.4707 23.8438ZM11.4707 21.6426C5.01758 21.6426 2.20117 18.8398 2.20117 12.8652L2.20117 4.26562C2.20117 2.89844 2.91211 2.20117 4.25195 2.20117L27.2891 2.20117C28.6016 2.20117 29.3398 2.89844 29.3398 4.26562L29.3398 12.8652C29.3398 18.8398 26.5234 21.6426 20.0566 21.6426Z" fill="white" fill-opacity="0.85"/>
 </g>
</svg>
