<?xml version="1.0" encoding="UTF-8"?>
<!--Generator: Apple Native CoreSVG 326-->
<!DOCTYPE svg
PUBLIC "-//W3C//DTD SVG 1.1//EN"
       "http://www.w3.org/Graphics/SVG/1.1/DTD/svg11.dtd">
<svg version="1.1" xmlns="http://www.w3.org/2000/svg" xmlns:xlink="http://www.w3.org/1999/xlink" viewBox="0 0 33.9199 37.1465">
 <g>
  <rect height="37.1465" opacity="0" width="33.9199" x="0" y="0"/>
  <path d="M5.04492 9.1875L5.04492 27.918C5.04492 30.9409 6.1763 33.5425 8.13171 35.1913C4.04558 35.1898 1.50391 32.0595 1.50391 27.918L1.50391 9.1875C1.50391 5.0479 4.04321 1.91857 8.12615 1.91448C6.1742 3.56114 5.04492 6.15944 5.04492 9.1875Z" fill="white" fill-opacity="0.85"/>
  <path d="M20.207 9.1875L20.207 12.7056L16.1465 16.3105C14.7656 17.541 14.752 19.5371 16.1465 20.7812L20.207 24.3846L20.207 27.918C20.207 32.1699 17.623 35.2324 13.5625 35.2324C9.50195 35.2324 6.91797 32.1699 6.91797 27.918L6.91797 9.1875C6.91797 4.92188 9.50195 1.85938 13.5625 1.85938C17.623 1.85938 20.207 4.92188 20.207 9.1875Z" fill="white" fill-opacity="0.85"/>
  <path d="M17.3906 19.3867L21.5332 23.0508C22.3262 23.7754 23.4883 23.3652 23.4883 22.2031L23.4883 19.7285L30.8848 19.7285C31.541 19.7285 32.0469 19.209 32.0469 18.5664C32.0469 17.8965 31.541 17.3906 30.8848 17.3906L23.4883 17.3906L23.4883 14.8887C23.4883 13.7676 22.3672 13.2891 21.5332 14.0273L17.3906 17.7051C16.8164 18.1973 16.8164 18.8809 17.3906 19.3867Z" fill="white" fill-opacity="0.85"/>
 </g>
</svg>
