<?xml version="1.0" encoding="UTF-8"?>
<!--Generator: Apple Native CoreSVG 326-->
<!DOCTYPE svg
PUBLIC "-//W3C//DTD SVG 1.1//EN"
       "http://www.w3.org/Graphics/SVG/1.1/DTD/svg11.dtd">
<svg version="1.1" xmlns="http://www.w3.org/2000/svg" xmlns:xlink="http://www.w3.org/1999/xlink" viewBox="0 0 33.6602 37.1465">
 <g>
  <rect height="37.1465" opacity="0" width="33.6602" x="0" y="0"/>
  <path d="M33.6602 9.1875L33.6602 27.918C33.6602 32.0605 31.1309 35.1914 27.043 35.1914C27.0404 35.1914 27.0377 35.1914 27.0353 35.191C28.9879 33.5423 30.1191 30.9408 30.1191 27.918L30.1191 9.1875C30.1191 6.15926 28.9897 3.56083 27.0402 1.9142C27.0411 1.91406 27.042 1.91406 27.043 1.91406C31.1309 1.91406 33.6602 5.04492 33.6602 9.1875Z" fill="white" fill-opacity="0.85"/>
  <path d="M28.2598 9.1875L28.2598 27.918C28.2598 32.1699 25.6621 35.2324 21.6152 35.2324C17.5547 35.2324 14.957 32.1699 14.957 27.918L14.957 24.3966L19.0176 20.7812C20.4258 19.5371 20.4121 17.541 19.0176 16.3105L14.957 12.6937L14.957 9.1875C14.957 4.92188 17.5547 1.85938 21.6152 1.85938C25.6621 1.85938 28.2598 4.92188 28.2598 9.1875Z" fill="white" fill-opacity="0.85"/>
  <path d="M17.7871 19.3867C18.3613 18.8809 18.3477 18.1973 17.7871 17.7051L13.6445 14.0273C12.8105 13.2891 11.6758 13.7676 11.6758 14.8887L11.6758 17.3906L4.29297 17.3906C3.62305 17.3906 3.11719 17.8965 3.11719 18.5664C3.11719 19.209 3.62305 19.7285 4.29297 19.7285L11.6758 19.7285L11.6758 22.2031C11.6758 23.3652 12.8516 23.7754 13.6445 23.0508Z" fill="white" fill-opacity="0.85"/>
 </g>
</svg>
