<svg version="1.1" xmlns="http://www.w3.org/2000/svg" xmlns:xlink="http://www.w3.org/1999/xlink" viewBox="0 0 31.8965 23.8574">
 <g>
  
  <path d="M11.4707 0C3.54102 0 0 3.65039 0 11.1152L0 19.6875C0 22.4492 1.42188 23.8438 4.19727 23.8438L27.3438 23.8438C30.1191 23.8438 31.541 22.4355 31.541 19.6875L31.541 11.1152C31.541 3.65039 28 0 20.0703 0ZM11.4707 2.20117L20.0566 2.20117C26.5234 2.20117 29.3398 5.00391 29.3398 10.9648L29.3398 19.5781C29.3398 20.9453 28.6016 21.6426 27.2891 21.6426L4.25195 21.6426C2.91211 21.6426 2.20117 20.9453 2.20117 19.5781L2.20117 10.9648C2.20117 5.00391 5.01758 2.20117 11.4707 2.20117Z" style="fill:var(--color-0,hsl(0 0 0/0.85))"></path>
 </g>
</svg>