<svg version="1.1" xmlns="http://www.w3.org/2000/svg" xmlns:xlink="http://www.w3.org/1999/xlink" viewBox="0 0 35.7383 24.6018">
 <g>
  
  <path d="M35.3828 13.8527L35.3828 5.2804C35.3828 2.81947 33.7285 1.1515 31.2539 1.1515L4.10156 1.16517C1.6543 1.16517 0 2.84681 0 5.32142L0 13.8527C0 17.3937 1.51758 19.5675 5.16797 20.6476L17.0078 24.0929C20.1797 25.0226 22.2168 24.6535 25.0469 23.1906L32.7305 19.2394C34.9043 18.1183 35.3828 16.7785 35.3828 13.8527ZM33.1816 13.8527C33.1816 15.8761 32.7988 16.7648 31.3359 17.5031L23.8711 21.3175C21.5195 22.507 19.8516 22.7531 17.0078 21.9054L5.81055 18.5831C3.24023 17.8312 2.20117 16.341 2.20117 13.8527L2.20117 5.36243C2.20117 4.15931 2.9668 3.36634 4.14258 3.36634L31.2266 3.35267C32.4023 3.35267 33.1816 4.13197 33.1816 5.32142Z" style="fill:var(--color-0,hsl(0 0 0/0.85))"></path>
 </g>
</svg>