<svg version="1.1" xmlns="http://www.w3.org/2000/svg" xmlns:xlink="http://www.w3.org/1999/xlink" viewBox="0 0 28.2461 27.9043">
 <g>
  
  <path d="M13.9453 27.8906C21.6426 27.8906 27.8906 21.6289 27.8906 13.9453C27.8906 6.24805 21.6426 0 13.9453 0C6.26172 0 0 6.24805 0 13.9453C0 21.6289 6.26172 27.8906 13.9453 27.8906Z" style="fill:var(--color-0,hsl(0 0 0/0.85))"></path>
  <path d="M13.9727 20.5625C10.2949 20.5625 7.9707 17.9375 7.9707 13.8223C7.9707 9.70703 10.3086 7.06836 13.9727 7.06836C16.4609 7.06836 18.4434 8.25781 19.1406 10.1445C19.2363 10.4043 19.2637 10.5684 19.2637 10.8008C19.2637 11.4023 18.8809 11.7715 18.2793 11.7715C17.8555 11.7715 17.582 11.5664 17.3496 11.0879C16.7617 9.69336 15.5859 8.94141 14 8.94141C11.7578 8.94141 10.2539 10.9102 10.2539 13.8223C10.2539 16.7344 11.7578 18.6895 14 18.6895C15.5859 18.6895 16.7617 17.9375 17.3496 16.5566C17.582 16.0781 17.8555 15.8594 18.2793 15.8594C18.8809 15.8594 19.2637 16.2285 19.2637 16.8301C19.2637 17.0352 19.2363 17.2266 19.1406 17.4863C18.457 19.3867 16.4609 20.5625 13.9727 20.5625Z" style="fill:var(--color-1,white)"></path>
 </g>
</svg>