<svg version="1.1" xmlns="http://www.w3.org/2000/svg" xmlns:xlink="http://www.w3.org/1999/xlink" viewBox="0 0 25.5254 25.1699">
 <g>
  
  <path d="M4.29297 25.1699L20.877 25.1699C23.748 25.1699 25.1699 23.7617 25.1699 20.9453L25.1699 4.23828C25.1699 1.42188 23.748 0 20.877 0L4.29297 0C1.43555 0 0 1.42188 0 4.23828L0 20.9453C0 23.7617 1.43555 25.1699 4.29297 25.1699Z" style="fill:var(--color-0,hsl(0 0 0/0.85))"></path>
  <path d="M12.6191 19.1953C8.94141 19.1953 6.61719 16.5703 6.61719 12.4551C6.61719 8.33984 8.95508 5.70117 12.6191 5.70117C15.1074 5.70117 17.1035 6.89062 17.7871 8.77734C17.8828 9.03711 17.9102 9.20117 17.9102 9.43359C17.9102 10.0352 17.5273 10.4043 16.9395 10.4043C16.502 10.4043 16.2285 10.1992 15.9961 9.7207C15.4082 8.32617 14.2324 7.57422 12.6465 7.57422C10.4043 7.57422 8.90039 9.54297 8.90039 12.4551C8.90039 15.3672 10.4043 17.3223 12.6465 17.3223C14.2324 17.3223 15.4082 16.5703 15.9961 15.1895C16.2285 14.7109 16.502 14.4922 16.9395 14.4922C17.5273 14.4922 17.9102 14.8613 17.9102 15.4629C17.9102 15.668 17.8828 15.8594 17.7871 16.1191C17.1035 18.0195 15.1211 19.1953 12.6191 19.1953Z" style="fill:var(--color-1,white)"></path>
 </g>
</svg>