<?xml version="1.0" encoding="UTF-8"?>
<!--Generator: Apple Native CoreSVG 326-->
<!DOCTYPE svg
PUBLIC "-//W3C//DTD SVG 1.1//EN"
       "http://www.w3.org/Graphics/SVG/1.1/DTD/svg11.dtd">
<svg version="1.1" xmlns="http://www.w3.org/2000/svg" xmlns:xlink="http://www.w3.org/1999/xlink" viewBox="0 0 22.5723 31.8965">
 <g>
  <rect height="31.8965" opacity="0" width="22.5723" x="0" y="0"/>
  <path d="M3.1582 29.3535L10.1719 29.3535L10.1719 0L3.1582 0C1.27148 0 0 1.29883 0 3.26758L0 26.0859C0 28.0547 1.27148 29.3535 3.1582 29.3535ZM6.83594 16.625C6.04297 16.625 5.38672 15.9824 5.38672 15.1895C5.38672 14.3828 6.04297 13.7402 6.83594 13.7402C7.62891 13.7402 8.28516 14.3828 8.28516 15.1895C8.28516 15.9824 7.62891 16.625 6.83594 16.625ZM19.0586 29.3535C20.9453 29.3535 22.2168 28.0547 22.2168 26.0859L22.2168 3.26758C22.2168 1.29883 20.9453 0 19.0586 0L12.0449 0L12.0449 29.3535ZM15.3672 16.625C14.5742 16.625 13.918 15.9824 13.918 15.1895C13.918 14.3828 14.5742 13.7402 15.3672 13.7402C16.1602 13.7402 16.8164 14.3828 16.8164 15.1895C16.8164 15.9824 16.1602 16.625 15.3672 16.625ZM4.00586 31.8828C4.68945 31.8828 5.14062 31.418 5.14062 30.7344L5.14062 27.9863L2.87109 27.9863L2.87109 30.7344C2.87109 31.418 3.32227 31.8828 4.00586 31.8828ZM18.2109 31.8828C18.8945 31.8828 19.3457 31.418 19.3457 30.7344L19.3457 27.9863L17.0762 27.9863L17.0762 30.7344C17.0762 31.418 17.5273 31.8828 18.2109 31.8828Z" fill="white" fill-opacity="0.85"/>
 </g>
</svg>
