<svg version="1.1" xmlns="http://www.w3.org/2000/svg" xmlns:xlink="http://www.w3.org/1999/xlink" viewBox="0 0 28.8066 33.373">
 <g>
  
  <path d="M1.57227 26.0723L26.8789 26.0723L26.8789 7.30078C26.8789 5.63281 25.9082 4.64844 24.0898 4.42969C21.4375 4.10156 17.7324 3.92383 14.2188 3.92383C10.7051 3.92383 7 4.10156 4.33398 4.42969C2.5293 4.64844 1.57227 5.63281 1.57227 7.30078ZM4.36133 17.2539L4.36133 10.4316C4.36133 8.96875 5.50977 7.80664 7 7.80664C8.46289 7.80664 9.625 8.96875 9.625 10.4316L9.625 17.2539C9.625 17.6777 9.33789 17.9648 8.88672 17.9648L5.09961 17.9648C4.64844 17.9648 4.36133 17.6777 4.36133 17.2539ZM11.2656 17.2539L11.2656 10.0352C11.2656 8.27148 12.4414 7.0957 14.2188 7.0957C15.9961 7.0957 17.1719 8.27148 17.1719 10.0352L17.1719 17.2539C17.1719 17.6777 16.8984 17.9648 16.4336 17.9648L11.9902 17.9648C11.5391 17.9648 11.2656 17.6777 11.2656 17.2539ZM18.7988 17.2539L18.7988 10.4316C18.7988 8.96875 19.9609 7.80664 21.4512 7.80664C22.9141 7.80664 24.0762 8.96875 24.0762 10.4316L24.0762 17.2539C24.0762 17.6777 23.7891 17.9648 23.3379 17.9648L19.5508 17.9648C19.0996 17.9648 18.7988 17.6777 18.7988 17.2539ZM14.2188 24.4863C12.9473 24.4863 12.0176 23.5566 12.0176 22.3125C12.0176 21.041 12.9473 20.0566 14.2188 20.0566C15.4629 20.0566 16.4473 21.041 16.4473 22.3125C16.4473 23.5566 15.4629 24.4863 14.2188 24.4863ZM0 26.9473C0 27.5488 0.492188 28.0547 1.09375 28.0547L27.3574 28.0547C27.959 28.0547 28.4512 27.5488 28.4512 26.9473C28.4512 26.3457 27.959 25.8535 27.3574 25.8535L1.09375 25.8535C0.492188 25.8535 0 26.3457 0 26.9473ZM5.40039 1.51758C5.40039 2.13281 5.91992 2.7207 6.5625 2.63867C8.59961 2.39258 11.416 2.2832 14.2188 2.2832C17.0215 2.2832 19.8516 2.39258 21.8887 2.63867C22.5176 2.7207 23.0371 2.13281 23.0371 1.51758C23.0371 0.902344 22.5449 0.451172 21.8887 0.369141C19.8242 0.123047 16.9805 0 14.2188 0C11.4707 0 8.62695 0.123047 6.54883 0.369141C5.90625 0.451172 5.40039 0.902344 5.40039 1.51758ZM6.95898 1.16211L6.95898 4.9082L8.75 4.9082L8.75 1.16211ZM19.7012 1.16211L19.7012 4.9082L21.4922 4.9082L21.4922 1.16211ZM4.55273 33.3457L5.31836 33.3457C5.6875 33.3457 5.90625 33.2227 6.11133 32.8945L9.99414 26.6191L7.38281 26.6191L3.9375 32.1562C3.58203 32.7305 3.91016 33.3457 4.55273 33.3457ZM22.6543 33.3457L23.4199 33.3457C24.0488 33.3457 24.377 32.7305 24.0215 32.1562L20.5762 26.6191L17.9648 26.6191L21.8477 32.8945C22.0527 33.2227 22.2715 33.3457 22.6543 33.3457Z" style="fill:var(--color-0,hsl(0 0 0/0.85))"></path>
 </g>
</svg>