<svg version="1.1" xmlns="http://www.w3.org/2000/svg" xmlns:xlink="http://www.w3.org/1999/xlink" viewBox="0 0 9.2832 31.2129">
 <g>
  
  <path d="M3.32227 31.1992L5.61914 31.1992L5.61914 18.0742L3.32227 18.0742ZM1.68164 20.1523L7.24609 20.1523C8.43555 20.1523 8.92773 19.6738 8.92773 18.4707L8.92773 7.95703C8.92773 6.76758 8.43555 6.27539 7.24609 6.27539L1.68164 6.27539C0.478516 6.27539 0 6.76758 0 7.95703L0 18.4707C0 19.6738 0.478516 20.1523 1.68164 20.1523Z" style="fill:var(--color-0,hsl(0 0 0/0.85))"></path>
  <path d="M1.79102 4.67578L7.13672 4.67578L7.13672 1.68164C7.13672 0.478516 6.63086 0 5.44141 0L3.48633 0C2.2832 0 1.79102 0.478516 1.79102 1.68164Z" style="fill:var(--color-1,hsl(0 0 0/0.85))"></path>
 </g>
</svg>