<svg version="1.1" xmlns="http://www.w3.org/2000/svg" xmlns:xlink="http://www.w3.org/1999/xlink" viewBox="0 0 26.5713 31.2129">
 <g>
  
  <path d="M14.2769 20.5722L14.2769 31.1992L11.98 31.1992L11.98 20.1523L10.3394 20.1523C9.13623 20.1523 8.65771 19.6738 8.65771 18.4707L8.65771 14.9604ZM17.5854 7.95703L17.5854 16.3755L8.689 7.49069C8.80932 6.63692 9.30821 6.27539 10.3394 6.27539L15.9038 6.27539C17.1069 6.27539 17.5854 6.76758 17.5854 7.95703Z" style="fill:var(--color-0,hsl(0 0 0/0.85))"></path>
  <path d="M15.7944 1.68164L15.7944 4.67578L10.4487 4.67578L10.4487 1.68164C10.4487 0.478516 10.9409 0 12.144 0L14.0991 0C15.3022 0 15.7944 0.478516 15.7944 1.68164Z" style="fill:var(--color-1,hsl(0 0 0/0.85))"></path>
  <path d="M22.8218 26.8516C23.2319 27.2617 23.9155 27.2617 24.312 26.8516C24.7085 26.4414 24.7222 25.7715 24.312 25.3613L3.40771 4.4707C2.99756 4.06055 2.31396 4.04688 1.90381 4.4707C1.50732 4.86719 1.50732 5.55078 1.90381 5.96094Z" style="fill:var(--color-2,hsl(0 0 0/0.85))"></path>
 </g>
</svg>