<?xml version="1.0" encoding="UTF-8"?>
<!--Generator: Apple Native CoreSVG 326-->
<!DOCTYPE svg
PUBLIC "-//W3C//DTD SVG 1.1//EN"
       "http://www.w3.org/Graphics/SVG/1.1/DTD/svg11.dtd">
<svg version="1.1" xmlns="http://www.w3.org/2000/svg" xmlns:xlink="http://www.w3.org/1999/xlink" viewBox="0 0 41.8633 25.1973">
 <g>
  <rect height="25.1973" opacity="0" width="41.8633" x="0" y="0"/>
  <path d="M37.2695 20.959C37.2695 23.7891 35.834 25.1973 32.9766 25.1973L14.3008 25.1973C11.4434 25.1973 10.0215 23.7754 10.0215 20.959L10.0215 15.4355L12.2227 15.4355L12.2227 21.082C12.2227 22.3535 12.9062 22.9961 14.123 22.9961L33.1816 22.9961C34.3984 22.9961 35.0684 22.3535 35.0684 21.082L35.0684 15.4355L37.2695 15.4355ZM37.2695 4.26562L37.2695 9.77539L35.0684 9.77539L35.0684 4.14258C35.0684 2.87109 34.3984 2.22852 33.1816 2.22852L14.123 2.22852C12.9062 2.22852 12.2227 2.87109 12.2227 4.14258L12.2227 9.77539L10.0215 9.77539L10.0215 4.26562C10.0215 1.44922 11.4434 0.0273438 14.3008 0.0273438L32.9766 0.0273438C35.834 0.0273438 37.2695 1.43555 37.2695 4.26562Z" fill="white" fill-opacity="0.55"/>
  <path d="M7.75195 23.4062C7.75195 24.3223 7.01367 25.0742 6.09766 25.0742C5.18164 25.0742 4.42969 24.3223 4.42969 23.4062C4.42969 22.4902 5.18164 21.752 6.09766 21.752C7.01367 21.752 7.75195 22.4902 7.75195 23.4062Z" fill="white" fill-opacity="0.25"/>
  <path d="M7.75195 17.9922C7.75195 18.9082 7.01367 19.6465 6.09766 19.6465C5.18164 19.6465 4.42969 18.9082 4.42969 17.9922C4.42969 17.0625 5.18164 16.3242 6.09766 16.3242C7.01367 16.3242 7.75195 17.0625 7.75195 17.9922Z" fill="white" fill-opacity="0.25"/>
  <path d="M7.75195 7.15039C7.75195 8.06641 7.01367 8.81836 6.09766 8.81836C5.18164 8.81836 4.42969 8.06641 4.42969 7.15039C4.42969 6.23438 5.18164 5.49609 6.09766 5.49609C7.01367 5.49609 7.75195 6.23438 7.75195 7.15039Z" fill="white" fill-opacity="0.25"/>
  <path d="M7.75195 1.72266C7.75195 2.65234 7.01367 3.39062 6.09766 3.39062C5.18164 3.39062 4.42969 2.65234 4.42969 1.72266C4.42969 0.806641 5.18164 0.0683594 6.09766 0.0683594C7.01367 0.0683594 7.75195 0.806641 7.75195 1.72266Z" fill="white" fill-opacity="0.25"/>
  <path d="M6.09766 14.4512C6.75391 14.4512 7.3418 14.1094 7.65625 13.5762L37.2695 13.5762C37.8027 13.5762 38.2402 13.1387 38.2402 12.6055C38.2402 12.0723 37.8027 11.6484 37.2695 11.6484L7.68359 11.6484C7.36914 11.0879 6.75391 10.7324 6.09766 10.7324C5.07227 10.7324 4.22461 11.5664 4.22461 12.5918C4.22461 13.6172 5.07227 14.4512 6.09766 14.4512Z" fill="#ff453a"/>
 </g>
</svg>
