<svg version="1.1" xmlns="http://www.w3.org/2000/svg" xmlns:xlink="http://www.w3.org/1999/xlink" viewBox="0 0 27.6035 25.1973">
 <g>
  
  <path d="M4.29297 25.1973L22.9688 25.1973C25.8262 25.1973 27.248 23.7754 27.248 20.959L27.248 4.26562C27.248 1.44922 25.8262 0.0273438 22.9688 0.0273438L4.29297 0.0273438C1.43555 0.0273438 0 1.43555 0 4.26562L0 20.959C0 23.7891 1.43555 25.1973 4.29297 25.1973ZM4.08789 22.9961C2.87109 22.9961 2.20117 22.3535 2.20117 21.082L2.20117 8.18945C2.20117 6.93164 2.87109 6.27539 4.08789 6.27539L23.1465 6.27539C24.3633 6.27539 25.0469 6.93164 25.0469 8.18945L25.0469 21.082C25.0469 22.3535 24.3633 22.9961 23.1465 22.9961ZM10.9648 11.1836L11.7715 11.1836C12.25 11.1836 12.4004 11.0469 12.4004 10.5684L12.4004 9.76172C12.4004 9.2832 12.25 9.13281 11.7715 9.13281L10.9648 9.13281C10.4863 9.13281 10.3223 9.2832 10.3223 9.76172L10.3223 10.5684C10.3223 11.0469 10.4863 11.1836 10.9648 11.1836ZM15.5039 11.1836L16.3105 11.1836C16.7891 11.1836 16.9531 11.0469 16.9531 10.5684L16.9531 9.76172C16.9531 9.2832 16.7891 9.13281 16.3105 9.13281L15.5039 9.13281C15.0254 9.13281 14.8613 9.2832 14.8613 9.76172L14.8613 10.5684C14.8613 11.0469 15.0254 11.1836 15.5039 11.1836ZM20.043 11.1836L20.8496 11.1836C21.3281 11.1836 21.4922 11.0469 21.4922 10.5684L21.4922 9.76172C21.4922 9.2832 21.3281 9.13281 20.8496 9.13281L20.043 9.13281C19.5645 9.13281 19.4141 9.2832 19.4141 9.76172L19.4141 10.5684C19.4141 11.0469 19.5645 11.1836 20.043 11.1836ZM6.42578 15.6543L7.21875 15.6543C7.71094 15.6543 7.86133 15.5176 7.86133 15.0391L7.86133 14.2324C7.86133 13.7539 7.71094 13.6172 7.21875 13.6172L6.42578 13.6172C5.93359 13.6172 5.7832 13.7539 5.7832 14.2324L5.7832 15.0391C5.7832 15.5176 5.93359 15.6543 6.42578 15.6543ZM10.9648 15.6543L11.7715 15.6543C12.25 15.6543 12.4004 15.5176 12.4004 15.0391L12.4004 14.2324C12.4004 13.7539 12.25 13.6172 11.7715 13.6172L10.9648 13.6172C10.4863 13.6172 10.3223 13.7539 10.3223 14.2324L10.3223 15.0391C10.3223 15.5176 10.4863 15.6543 10.9648 15.6543ZM15.5039 15.6543L16.3105 15.6543C16.7891 15.6543 16.9531 15.5176 16.9531 15.0391L16.9531 14.2324C16.9531 13.7539 16.7891 13.6172 16.3105 13.6172L15.5039 13.6172C15.0254 13.6172 14.8613 13.7539 14.8613 14.2324L14.8613 15.0391C14.8613 15.5176 15.0254 15.6543 15.5039 15.6543ZM20.043 15.6543L20.8496 15.6543C21.3281 15.6543 21.4922 15.5176 21.4922 15.0391L21.4922 14.2324C21.4922 13.7539 21.3281 13.6172 20.8496 13.6172L20.043 13.6172C19.5645 13.6172 19.4141 13.7539 19.4141 14.2324L19.4141 15.0391C19.4141 15.5176 19.5645 15.6543 20.043 15.6543ZM6.42578 20.1387L7.21875 20.1387C7.71094 20.1387 7.86133 19.9883 7.86133 19.5098L7.86133 18.7031C7.86133 18.2246 7.71094 18.0879 7.21875 18.0879L6.42578 18.0879C5.93359 18.0879 5.7832 18.2246 5.7832 18.7031L5.7832 19.5098C5.7832 19.9883 5.93359 20.1387 6.42578 20.1387ZM10.9648 20.1387L11.7715 20.1387C12.25 20.1387 12.4004 19.9883 12.4004 19.5098L12.4004 18.7031C12.4004 18.2246 12.25 18.0879 11.7715 18.0879L10.9648 18.0879C10.4863 18.0879 10.3223 18.2246 10.3223 18.7031L10.3223 19.5098C10.3223 19.9883 10.4863 20.1387 10.9648 20.1387ZM15.5039 20.1387L16.3105 20.1387C16.7891 20.1387 16.9531 19.9883 16.9531 19.5098L16.9531 18.7031C16.9531 18.2246 16.7891 18.0879 16.3105 18.0879L15.5039 18.0879C15.0254 18.0879 14.8613 18.2246 14.8613 18.7031L14.8613 19.5098C14.8613 19.9883 15.0254 20.1387 15.5039 20.1387Z" style="fill:var(--color-0,#ff3b30)"></path>
 </g>
</svg>