<svg version="1.1" xmlns="http://www.w3.org/2000/svg" xmlns:xlink="http://www.w3.org/1999/xlink" viewBox="0 0 28.2461 27.9043">
 <g>
  
  <path d="M13.9453 27.8906C21.6426 27.8906 27.8906 21.6426 27.8906 13.9453C27.8906 6.24805 21.6426 0 13.9453 0C6.24805 0 0 6.24805 0 13.9453C0 21.6426 6.24805 27.8906 13.9453 27.8906ZM13.9453 25.5664C7.51953 25.5664 2.32422 20.3711 2.32422 13.9453C2.32422 7.51953 7.51953 2.32422 13.9453 2.32422C20.3711 2.32422 25.5664 7.51953 25.5664 13.9453C25.5664 20.3711 20.3711 25.5664 13.9453 25.5664Z" style="fill:var(--color-0,hsl(0 0 0/0.85))"></path>
  <path d="M14.5059 16.7344L14.5059 20.5854C14.8992 19.7588 15.4462 18.9997 16.1312 18.3597L18.7849 21.0134C17.379 21.9225 15.6806 22.4492 13.918 22.4492C13.6035 22.4492 13.3301 22.2168 13.3301 21.8887L13.3301 15.5586ZM12.5098 19.3184L12.5098 21.8887C12.5098 22.0391 12.5371 22.1895 12.5918 22.3125C9.46094 21.8887 6.76758 19.8242 5.81055 17.0215C5.64648 16.584 5.81055 16.2832 6.28906 16.2832C9.02344 16.2832 11.1973 17.5273 12.5098 19.3184ZM8.14844 7.23242L20.6719 19.7695C20.918 20.0156 20.918 20.3984 20.6719 20.6445C20.4395 20.8906 20.0293 20.877 19.7969 20.6445L7.25977 8.10742C7.01367 7.875 7.01367 7.47852 7.25977 7.23242C7.50586 6.98633 7.88867 6.98633 8.14844 7.23242ZM22.0254 17.0215C21.8008 17.6676 21.4833 18.275 21.0856 18.83L18.9456 16.6924C19.7372 16.4273 20.6088 16.2832 21.5469 16.2832C22.0117 16.2832 22.1895 16.584 22.0254 17.0215ZM12.1967 14.4252C10.9273 13.9694 10.0016 13.0008 9.55253 11.781ZM14.3418 7.39648L15.6816 9.14648L17.2402 7.5332C17.5137 7.24609 17.9375 7.30078 18.0879 7.64258C18.4434 8.44922 18.5938 9.24219 18.5938 10.0215C18.5938 11.7627 17.768 13.2929 16.3514 14.101L9.81234 7.56906C9.97474 7.29437 10.3434 7.2683 10.5957 7.5332L12.168 9.14648L13.5215 7.39648C13.7402 7.0957 14.123 7.0957 14.3418 7.39648Z" style="fill:var(--color-1,hsl(0 0 0/0.85))"></path>
 </g>
</svg>