<?xml version="1.0" encoding="UTF-8"?>
<!--Generator: Apple Native CoreSVG 326-->
<!DOCTYPE svg
PUBLIC "-//W3C//DTD SVG 1.1//EN"
       "http://www.w3.org/Graphics/SVG/1.1/DTD/svg11.dtd">
<svg version="1.1" xmlns="http://www.w3.org/2000/svg" xmlns:xlink="http://www.w3.org/1999/xlink" viewBox="0 0 33.9336 35.6715">
 <g>
  <rect height="35.6715" opacity="0" width="33.9336" x="0" y="0"/>
  <path d="M28.3281 14.8484C27.3984 14.8484 26.6328 14.0828 26.6328 13.1531C26.6328 12.2098 27.3984 11.4578 28.3281 11.4578C29.2715 11.4578 30.0371 12.2098 30.0371 13.1531C30.0371 14.0828 29.2715 14.8484 28.3281 14.8484ZM4.29297 30.4344L29.2852 30.4344C32.1289 30.4344 33.5781 29.0125 33.5781 26.1961L33.5781 11.8816C33.5781 9.06524 32.1289 7.65703 29.2852 7.65703L25.375 7.65703C24.2949 7.65703 23.9668 7.43828 23.3516 6.75469L22.2578 5.52422C21.5742 4.77227 20.877 4.36211 19.4688 4.36211L14.0137 4.36211C12.6055 4.36211 11.9082 4.77227 11.2246 5.52422L10.1309 6.75469C9.51562 7.42461 9.17383 7.65703 8.10742 7.65703L4.29297 7.65703C1.43555 7.65703 0 9.06524 0 11.8816L0 26.1961C0 29.0125 1.43555 30.4344 4.29297 30.4344ZM16.7891 26.4012C12.6465 26.4012 9.32422 23.0926 9.32422 18.9227C9.32422 14.7664 12.6465 11.4578 16.7891 11.4578C20.9316 11.4578 24.2402 14.7664 24.2402 18.9227C24.2402 23.0926 20.918 26.4012 16.7891 26.4012ZM16.7891 24.323C19.7695 24.323 22.1758 21.9305 22.1758 18.9227C22.1758 15.9285 19.7695 13.5223 16.7891 13.5223C13.8086 13.5223 11.3887 15.9285 11.3887 18.9227C11.3887 21.9305 13.8223 24.323 16.7891 24.323Z" fill="white" fill-opacity="0.85"/>
  <path d="M1.83203 1.94219L5.67383 5.23711C5.91992 5.44219 6.17969 5.60625 6.4668 5.60625C6.76758 5.60625 7.02734 5.44219 7.27344 5.23711L11.1152 1.94219C12.25 0.985159 10.9102-0.764841 9.65234 0.369925L6.4668 3.28203L3.29492 0.369925C2.02344-0.764841 0.697266 0.985159 1.83203 1.94219Z" fill="white" fill-opacity="0.85"/>
 </g>
</svg>
