<svg version="1.1" xmlns="http://www.w3.org/2000/svg" xmlns:xlink="http://www.w3.org/1999/xlink" viewBox="0 0 28.2461 27.9043">
 <g>
  
  <path d="M13.9453 27.8906C21.6426 27.8906 27.8906 21.6289 27.8906 13.9453C27.8906 6.24805 21.6426 0 13.9453 0C6.26172 0 0 6.24805 0 13.9453C0 21.6289 6.26172 27.8906 13.9453 27.8906Z" style="fill:var(--color-0,hsl(0 0 0/0.85))"></path>
  <path d="M14.5469 16.8487L14.5469 20.7402C14.947 19.9081 15.5 19.1409 16.1902 18.4903L18.922 21.2193C17.4768 22.1456 15.7359 22.6816 13.9316 22.6816C13.6035 22.6816 13.3301 22.4492 13.3301 22.1074L13.3301 15.6332ZM12.4688 19.4414L12.4688 22.1074C12.4688 22.2578 12.4961 22.4219 12.5645 22.5449C9.33789 22.1074 6.54883 19.9746 5.56445 17.0898C5.40039 16.6387 5.56445 16.3242 6.07031 16.3242C8.88672 16.3242 11.1152 17.6094 12.4688 19.4414ZM7.94336 7.01367L20.877 19.9609C21.123 20.207 21.123 20.6035 20.877 20.8633C20.6309 21.1094 20.207 21.0957 19.9746 20.8633L7.02734 7.91602C6.79492 7.68359 6.78125 7.27344 7.02734 7.01367C7.28711 6.76758 7.69727 6.76758 7.94336 7.01367ZM22.2988 17.0898C22.0631 17.7634 21.7294 18.3961 21.3109 18.9733L19.0906 16.7553C19.9123 16.4763 20.8179 16.3242 21.793 16.3242C22.2852 16.3242 22.4629 16.6387 22.2988 17.0898ZM12.0807 14.3852C10.8349 13.9153 9.92005 12.9623 9.45756 11.7648ZM14.3691 7.16406L15.75 8.96875L17.3496 7.31445C17.6367 7.01367 18.0742 7.06836 18.2383 7.42383C18.5938 8.25781 18.7578 9.06445 18.7578 9.87109C18.7578 11.676 17.8923 13.2554 16.4183 14.0859L9.69069 7.36538C9.83921 7.06322 10.2432 7.03108 10.5137 7.31445L12.127 8.96875L13.5215 7.16406C13.7539 6.84961 14.1504 6.84961 14.3691 7.16406Z" style="fill:var(--color-1,white)"></path>
 </g>
</svg>