<svg version="1.1" xmlns="http://www.w3.org/2000/svg" xmlns:xlink="http://www.w3.org/1999/xlink" viewBox="0 0 32.0089 29.6543">
 <g>
  
  <path d="M7.80816 1.03906C7.13824 2.58398 6.82378 4.12891 6.82378 5.63281C6.82378 10.623 10.3511 14.7109 15.8472 14.7109C21.3433 14.7109 24.8707 10.623 24.8707 5.63281C24.8707 4.12891 24.5562 2.58398 23.9 1.03906C23.5992 0.382812 22.8199 0.287109 22.3003 0.820312L19.2378 3.9375L16.6265 0.560547C16.2027 0.0136719 15.4918 0.0136719 15.0816 0.560547L12.4703 3.9375L9.3941 0.820312C8.87456 0.287109 8.09527 0.382812 7.80816 1.03906ZM14.7535 28.6289C14.7535 29.2441 15.232 29.6543 15.8472 29.6543C22.9156 29.6543 29.4097 25.293 31.5425 19.168C31.8433 18.334 31.5289 17.8008 30.6402 17.8008C23.6539 17.8008 18.6226 21.9023 16.5992 27.084L16.9546 27.5488L16.9546 13.3301L14.7535 13.3301ZM12.8804 23.4062C10.3101 20.0703 6.19488 17.8008 1.01324 17.8008C0.124565 17.8008-0.189888 18.334 0.110893 19.168C1.94292 24.4727 7.02886 28.4648 12.9898 29.4082C12.9214 29.1758 12.8804 28.9023 12.8804 28.6289Z" style="fill:var(--color-0,hsl(0 0 0/0.85))"></path>
 </g>
</svg>