<svg version="1.1" xmlns="http://www.w3.org/2000/svg" xmlns:xlink="http://www.w3.org/1999/xlink" viewBox="0 0 33.9336 35.6715">
 <g>
  
  <path d="M27.1387 14.8484C28.0684 14.8484 28.834 14.0828 28.834 13.1531C28.834 12.2098 28.0684 11.4578 27.1387 11.4578C26.1953 11.4578 25.4434 12.2098 25.4434 13.1531C25.4434 14.0828 26.1953 14.8484 27.1387 14.8484ZM4.29297 30.4344L29.2852 30.4344C32.1289 30.4344 33.5781 29.0125 33.5781 26.1961L33.5781 11.8816C33.5781 9.06524 32.1289 7.65703 29.2852 7.65703L25.375 7.65703C24.2949 7.65703 23.9668 7.43828 23.3516 6.75469L22.2578 5.52422C21.5742 4.77227 20.877 4.36211 19.4688 4.36211L14.0137 4.36211C12.6055 4.36211 11.9082 4.77227 11.2246 5.52422L10.1309 6.75469C9.51562 7.42461 9.17383 7.65703 8.10742 7.65703L4.29297 7.65703C1.43555 7.65703 0 9.06524 0 11.8816L0 26.1961C0 29.0125 1.43555 30.4344 4.29297 30.4344ZM4.32031 28.2332C2.98047 28.2332 2.20117 27.5086 2.20117 26.0867L2.20117 12.0047C2.20117 10.5828 2.98047 9.85821 4.32031 9.85821L8.6543 9.85821C9.88477 9.85821 10.5547 9.62578 11.2383 8.86016L12.3047 7.65703C13.084 6.78203 13.4941 6.56328 14.6973 6.56328L18.7852 6.56328C19.9883 6.56328 20.3984 6.78203 21.1777 7.65703L22.2441 8.86016C22.9277 9.62578 23.5977 9.85821 24.8281 9.85821L29.2441 9.85821C30.5977 9.85821 31.377 10.5828 31.377 12.0047L31.377 26.0867C31.377 27.5086 30.5977 28.2332 29.2441 28.2332ZM16.7891 26.2645C20.918 26.2645 24.2402 22.9559 24.2402 18.7859C24.2402 14.6297 20.9316 11.3211 16.7891 11.3211C12.6465 11.3211 9.32422 14.6297 9.32422 18.7859C9.32422 22.9559 12.6465 26.2645 16.7891 26.2645ZM16.7891 24.1863C13.8223 24.1863 11.3887 21.7938 11.3887 18.7859C11.3887 15.7918 13.8086 13.3855 16.7891 13.3855C19.7695 13.3855 22.1758 15.7918 22.1758 18.7859C22.1758 21.7938 19.7695 24.1863 16.7891 24.1863Z" style="fill:var(--color-0,hsl(0 0 0/0.85))"></path>
  <path d="M1.83203 1.94219L5.67383 5.23711C5.91992 5.44219 6.17969 5.60625 6.4668 5.60625C6.76758 5.60625 7.02734 5.44219 7.27344 5.23711L11.1152 1.94219C12.25 0.985159 10.9102-0.764841 9.65234 0.369925L6.4668 3.28203L3.29492 0.369925C2.02344-0.764841 0.697266 0.985159 1.83203 1.94219Z" style="fill:var(--color-1,hsl(0 0 0/0.85))"></path>
 </g>
</svg>