<svg version="1.1" xmlns="http://www.w3.org/2000/svg" xmlns:xlink="http://www.w3.org/1999/xlink" viewBox="0 0 33.9336 26.9473">
 <g>
  
  <path d="M27.1387 10.4863C28.0684 10.4863 28.834 9.7207 28.834 8.79102C28.834 7.84766 28.0684 7.0957 27.1387 7.0957C26.1953 7.0957 25.4434 7.84766 25.4434 8.79102C25.4434 9.7207 26.1953 10.4863 27.1387 10.4863ZM4.29297 26.0723L29.2852 26.0723C32.1289 26.0723 33.5781 24.6504 33.5781 21.834L33.5781 7.51953C33.5781 4.70312 32.1289 3.29492 29.2852 3.29492L25.375 3.29492C24.2949 3.29492 23.9668 3.07617 23.3516 2.39258L22.2578 1.16211C21.5742 0.410156 20.877 0 19.4688 0L14.0137 0C12.6055 0 11.9082 0.410156 11.2246 1.16211L10.1309 2.39258C9.51562 3.0625 9.17383 3.29492 8.10742 3.29492L4.29297 3.29492C1.43555 3.29492 0 4.70312 0 7.51953L0 21.834C0 24.6504 1.43555 26.0723 4.29297 26.0723ZM4.32031 23.8711C2.98047 23.8711 2.20117 23.1465 2.20117 21.7246L2.20117 7.64258C2.20117 6.2207 2.98047 5.49609 4.32031 5.49609L8.6543 5.49609C9.88477 5.49609 10.5547 5.26367 11.2383 4.49805L12.3047 3.29492C13.084 2.41992 13.4941 2.20117 14.6973 2.20117L18.7852 2.20117C19.9883 2.20117 20.3984 2.41992 21.1777 3.29492L22.2441 4.49805C22.9277 5.26367 23.5977 5.49609 24.8281 5.49609L29.2441 5.49609C30.5977 5.49609 31.377 6.2207 31.377 7.64258L31.377 21.7246C31.377 23.1465 30.5977 23.8711 29.2441 23.8711ZM16.7891 21.9023C20.918 21.9023 24.2402 18.5938 24.2402 14.4238C24.2402 10.2676 20.9316 6.95898 16.7891 6.95898C12.6465 6.95898 9.32422 10.2676 9.32422 14.4238C9.32422 18.5938 12.6465 21.9023 16.7891 21.9023ZM16.7891 19.8242C13.8223 19.8242 11.3887 17.4316 11.3887 14.4238C11.3887 11.4297 13.8086 9.02344 16.7891 9.02344C19.7695 9.02344 22.1758 11.4297 22.1758 14.4238C22.1758 17.4316 19.7695 19.8242 16.7891 19.8242Z" style="fill:var(--color-0,hsl(0 0 0/0.85))"></path>
 </g>
</svg>