<?xml version="1.0" encoding="UTF-8"?>
<!--Generator: Apple Native CoreSVG 326-->
<!DOCTYPE svg
PUBLIC "-//W3C//DTD SVG 1.1//EN"
       "http://www.w3.org/Graphics/SVG/1.1/DTD/svg11.dtd">
<svg version="1.1" xmlns="http://www.w3.org/2000/svg" xmlns:xlink="http://www.w3.org/1999/xlink" viewBox="0 0 28.2461 27.9043">
 <g>
  <rect height="27.9043" opacity="0" width="28.2461" x="0" y="0"/>
  <path d="M13.9453 27.8906C21.6426 27.8906 27.8906 21.6426 27.8906 13.9453C27.8906 6.24805 21.6426 0 13.9453 0C6.24805 0 0 6.24805 0 13.9453C0 21.6426 6.24805 27.8906 13.9453 27.8906ZM13.9453 25.5664C7.51953 25.5664 2.32422 20.3711 2.32422 13.9453C2.32422 7.51953 7.51953 2.32422 13.9453 2.32422C20.3711 2.32422 25.5664 7.51953 25.5664 13.9453C25.5664 20.3711 20.3711 25.5664 13.9453 25.5664Z" fill="white" fill-opacity="0.85"/>
  <path d="M9.77539 7.64258C9.41992 8.44922 9.24219 9.24219 9.24219 10.0215C9.24219 12.6055 11.0879 14.7246 13.918 14.7246C16.7754 14.7246 18.5938 12.6055 18.5938 10.0215C18.5938 9.24219 18.4434 8.44922 18.0879 7.64258C17.9375 7.30078 17.5137 7.24609 17.2402 7.5332L15.6816 9.14648L14.3418 7.39648C14.123 7.0957 13.7402 7.0957 13.5215 7.39648L12.168 9.14648L10.5957 7.5332C10.3223 7.24609 9.91211 7.30078 9.77539 7.64258ZM13.3301 21.8887C13.3301 22.2168 13.6035 22.4492 13.918 22.4492C17.5547 22.4492 20.918 20.207 22.0254 17.0215C22.1895 16.584 22.0117 16.2832 21.5469 16.2832C17.9375 16.2832 15.3125 18.416 14.2734 21.123L14.5059 21.3691L14.5059 13.9727L13.3301 13.9727ZM12.5098 19.3184C11.1973 17.5273 9.02344 16.2832 6.28906 16.2832C5.81055 16.2832 5.64648 16.584 5.81055 17.0215C6.76758 19.8242 9.46094 21.8887 12.5918 22.3125C12.5371 22.1895 12.5098 22.0391 12.5098 21.8887Z" fill="white" fill-opacity="0.85"/>
 </g>
</svg>
