<svg version="1.1" xmlns="http://www.w3.org/2000/svg" xmlns:xlink="http://www.w3.org/1999/xlink" viewBox="0 0 28.2461 27.9043">
 <g>
  
  <path d="M13.9453 27.8906C21.6426 27.8906 27.8906 21.6426 27.8906 13.9453C27.8906 6.24805 21.6426 0 13.9453 0C6.24805 0 0 6.24805 0 13.9453C0 21.6426 6.24805 27.8906 13.9453 27.8906ZM13.9453 25.5664C7.51953 25.5664 2.32422 20.3711 2.32422 13.9453C2.32422 7.51953 7.51953 2.32422 13.9453 2.32422C20.3711 2.32422 25.5664 7.51953 25.5664 13.9453C25.5664 20.3711 20.3711 25.5664 13.9453 25.5664Z" style="fill:var(--color-0,hsl(0 0 0/0.85))"></path>
  <path d="M7.83398 20.125L20.0293 20.125C21.4648 20.125 22.2031 19.4141 22.2031 17.9922L22.2031 10.7598C22.2031 9.32422 21.4648 8.61328 20.0293 8.61328L18.2656 8.61328C17.7324 8.61328 17.5547 8.50391 17.2402 8.16211L16.6934 7.5332C16.3516 7.16406 15.9961 6.95898 15.2852 6.95898L12.5234 6.95898C11.8262 6.95898 11.4707 7.16406 11.1152 7.5332L10.5547 8.16211C10.2402 8.49023 10.0898 8.61328 9.54297 8.61328L7.83398 8.61328C6.38477 8.61328 5.66016 9.32422 5.66016 10.7598L5.66016 17.9922C5.66016 19.4141 6.38477 20.125 7.83398 20.125ZM13.9453 18.4023C11.6758 18.4023 9.84375 16.584 9.84375 14.3008C9.84375 12.0312 11.6758 10.2129 13.9453 10.2129C16.2148 10.2129 18.0332 12.0312 18.0332 14.3008C18.0332 16.625 16.2148 18.4023 13.9453 18.4023ZM13.9316 17.2266C15.5449 17.2266 16.8574 15.9277 16.8574 14.3008C16.8574 12.6875 15.5449 11.3887 13.9316 11.3887C12.3184 11.3887 11.0059 12.6875 11.0059 14.3008C11.0059 15.9277 12.3184 17.2266 13.9316 17.2266ZM19.6602 12.1406C19.1543 12.1406 18.7305 11.7168 18.7305 11.2109C18.7305 10.7051 19.1543 10.2812 19.6602 10.2812C20.166 10.2812 20.5898 10.7051 20.5898 11.2109C20.5898 11.7168 20.166 12.1406 19.6602 12.1406Z" style="fill:var(--color-1,hsl(0 0 0/0.85))"></path>
 </g>
</svg>