<svg version="1.1" xmlns="http://www.w3.org/2000/svg" xmlns:xlink="http://www.w3.org/1999/xlink" viewBox="0 0 32.5938 25.1699">
 <g>
  
  <path d="M4.29297 25.1699L15.2031 25.1699L15.2031 22.9688L4.32031 22.9688C2.95312 22.9688 2.20117 22.2441 2.20117 20.8223L2.20117 13.5215L0 13.5215L0 20.9453C0 23.7617 1.43555 25.1699 4.29297 25.1699ZM17.0762 25.1699L27.9453 25.1699C30.8164 25.1699 32.2383 23.7617 32.2383 20.9453L32.2383 13.5215L30.0371 13.5215L30.0371 20.8223C30.0371 22.2441 29.2715 22.9688 27.918 22.9688L17.0762 22.9688ZM30.0371 11.6621L32.2383 11.6621L32.2383 4.23828C32.2383 1.42188 30.8164 0 27.9453 0L17.0762 0L17.0762 2.20117L27.918 2.20117C29.2715 2.20117 30.0371 2.93945 30.0371 4.36133ZM0 11.6621L2.20117 11.6621L2.20117 4.36133C2.20117 2.93945 2.95312 2.20117 4.32031 2.20117L15.2031 2.20117L15.2031 0L4.29297 0C1.43555 0 0 1.42188 0 4.23828Z" style="fill:var(--color-0,hsl(0 0 0/0.85))"></path>
  <path d="M5.26367 4.07422C4.41602 4.07422 4.07422 4.42969 4.07422 5.30469L4.07422 11.6621L10.3359 11.6621C10.7324 9.20117 12.7148 7.23242 15.2031 6.83594L15.2031 4.07422ZM26.9746 4.07422L17.0762 4.07422L17.0762 6.83594C19.5234 7.23242 21.5059 9.20117 21.9023 11.6621L28.1777 11.6621L28.1777 5.30469C28.1777 4.42969 27.8359 4.07422 26.9746 4.07422ZM5.26367 21.1094L15.2031 21.1094L15.2031 18.3477C12.7148 17.9512 10.7324 15.9688 10.3359 13.5215L4.07422 13.5215L4.07422 19.8789C4.07422 20.7539 4.41602 21.1094 5.26367 21.1094ZM26.9746 21.1094C27.8359 21.1094 28.1777 20.7539 28.1777 19.8789L28.1777 13.5215L21.9023 13.5215C21.5059 15.9688 19.5234 17.9512 17.0762 18.3477L17.0762 21.1094Z" style="fill:var(--color-1,hsl(0 0 0/0.85))"></path>
  <path d="M16.1191 16.4609C18.2793 16.4609 20.0156 14.7246 20.0156 12.5781C20.0156 10.418 18.2793 8.68164 16.1191 8.68164C13.9727 8.68164 12.2363 10.418 12.2363 12.5781C12.2363 14.7246 13.9727 16.4609 16.1191 16.4609Z" style="fill:var(--color-2,hsl(0 0 0/0.85))"></path>
 </g>
</svg>