<svg version="1.1" xmlns="http://www.w3.org/2000/svg" xmlns:xlink="http://www.w3.org/1999/xlink" viewBox="0 0 29.0938 28.998">
 <g>
  
  <path d="M10.1445 20.2207L18.5938 20.2207C20.5078 20.2207 21.5195 19.0996 21.5195 17.2949L21.5195 14.957L26.7012 14.957C27.8359 14.957 28.7383 14.2871 28.7383 13.2344C28.7383 12.5918 28.4102 12.0859 27.7949 11.5527L16.0645 1.20312C15.4902 0.710938 14.9844 0.382812 14.3691 0.382812C13.7539 0.382812 13.248 0.710938 12.6738 1.20312L0.943359 11.5664C0.300781 12.127 0 12.5918 0 13.2344C0 14.2871 0.902344 14.957 2.03711 14.957L7.21875 14.957L7.21875 17.2949C7.21875 19.0996 8.23047 20.2207 10.1445 20.2207ZM10.3633 18.1562C9.85742 18.1562 9.50195 17.8145 9.50195 17.2949L9.50195 13.3574C9.50195 13.0293 9.37891 12.8926 9.03711 12.8926L3.08984 12.8926C2.99414 12.8926 2.93945 12.8516 2.93945 12.7832C2.93945 12.7285 2.9668 12.6738 3.02148 12.6191L14.082 3.02148C14.1914 2.91211 14.2734 2.87109 14.3691 2.87109C14.4648 2.87109 14.5469 2.91211 14.6562 3.02148L25.7168 12.6191C25.7715 12.6738 25.7988 12.7285 25.7988 12.7832C25.7988 12.8516 25.7441 12.8926 25.6484 12.8926L19.7012 12.8926C19.373 12.8926 19.2363 13.0293 19.2363 13.3574L19.2363 17.2949C19.2363 17.8008 18.8672 18.1562 18.375 18.1562ZM9.55664 28.998L19.0586 28.998C20.6445 28.998 21.5469 28.123 21.5469 26.5371L21.5469 24.582C21.5469 22.9824 20.6445 22.0801 19.0586 22.0801L9.55664 22.0801C7.98438 22.0801 7.08203 22.9961 7.08203 24.582L7.08203 26.5371C7.08203 28.1094 7.98438 28.998 9.55664 28.998ZM9.87109 27.0703C9.39258 27.0703 9.14648 26.8242 9.14648 26.3457L9.14648 24.7734C9.14648 24.2949 9.39258 24.0078 9.87109 24.0078L18.7441 24.0078C19.2227 24.0078 19.4824 24.2949 19.4824 24.7734L19.4824 26.3457C19.4824 26.8242 19.2227 27.0703 18.7441 27.0703Z" style="fill:var(--color-0,hsl(0 0 0/0.85))"></path>
 </g>
</svg>