<?xml version="1.0" encoding="UTF-8"?>
<!--Generator: Apple Native CoreSVG 326-->
<!DOCTYPE svg
PUBLIC "-//W3C//DTD SVG 1.1//EN"
       "http://www.w3.org/Graphics/SVG/1.1/DTD/svg11.dtd">
<svg version="1.1" xmlns="http://www.w3.org/2000/svg" xmlns:xlink="http://www.w3.org/1999/xlink" viewBox="0 0 35.7383 27.8496">
 <g>
  <rect height="27.8496" opacity="0" width="35.7383" x="0" y="0"/>
  <path d="M28.003 6.85794C27.1809 6.60783 26.2958 6.44776 25.3595 6.37724C23.9188 3.76893 21.0891 2.20117 17.4316 2.20117L11.1973 2.20117C5.79688 2.20117 2.20117 5.61914 2.20117 10.7461C2.20117 14.3218 3.9409 17.0508 6.82066 18.3772C6.90557 19.2947 7.08972 20.1573 7.37313 20.9531C2.82676 19.6476 0 15.91 0 10.7461C0 4.26562 4.4707 0 11.1973 0L17.4316 0C22.6833 0 26.571 2.61069 28.003 6.85794Z" fill="white" fill-opacity="0.85"/>
  <path d="M6.75391 17.0762C6.75391 23.5703 11.2246 27.8086 17.9512 27.8086L24.1855 27.8086C30.8984 27.8086 35.3828 23.5703 35.3828 17.0762C35.3828 10.5957 30.8984 6.33008 24.1855 6.33008L17.9512 6.33008C11.2246 6.33008 6.75391 10.5957 6.75391 17.0762ZM8.95508 17.0762C8.95508 11.9492 12.5508 8.53125 17.9512 8.53125L24.1855 8.53125C29.5859 8.53125 33.1816 11.9492 33.1816 17.0762C33.1816 22.2168 29.5859 25.6074 24.1855 25.6074L17.9512 25.6074C12.5508 25.6074 8.95508 22.2168 8.95508 17.0762Z" fill="white" fill-opacity="0.85"/>
 </g>
</svg>
