<svg version="1.1" xmlns="http://www.w3.org/2000/svg" xmlns:xlink="http://www.w3.org/1999/xlink" viewBox="0 0 29.0938 28.998">
 <g>
  
  <path d="M9.5293 20.3027L19.209 20.3027C20.7812 20.3027 21.5195 19.5645 21.5195 17.9922L21.5195 14.957L26.7012 14.957C27.8359 14.957 28.7383 14.2871 28.7383 13.2344C28.7383 12.5918 28.4102 12.0859 27.7949 11.5527L16.0645 1.20312C15.4902 0.710938 14.9844 0.382812 14.3691 0.382812C13.7539 0.382812 13.248 0.710938 12.6738 1.20312L0.943359 11.5664C0.300781 12.127 0 12.5918 0 13.2344C0 14.2871 0.902344 14.957 2.03711 14.957L7.21875 14.957L7.21875 17.9922C7.21875 19.5645 7.95703 20.3027 9.5293 20.3027ZM9.39258 28.998L19.3457 28.998C20.7129 28.998 21.5195 28.1914 21.5195 26.8379L21.5195 24.7324C21.5195 23.3789 20.7129 22.5723 19.3457 22.5723L9.39258 22.5723C8.02539 22.5723 7.21875 23.3789 7.21875 24.7324L7.21875 26.8379C7.21875 28.1914 8.02539 28.998 9.39258 28.998Z" style="fill:var(--color-0,hsl(0 0 0/0.85))"></path>
 </g>
</svg>