<?xml version="1.0" encoding="UTF-8"?>
<!--Generator: Apple Native CoreSVG 326-->
<!DOCTYPE svg
PUBLIC "-//W3C//DTD SVG 1.1//EN"
       "http://www.w3.org/Graphics/SVG/1.1/DTD/svg11.dtd">
<svg version="1.1" xmlns="http://www.w3.org/2000/svg" xmlns:xlink="http://www.w3.org/1999/xlink" viewBox="0 0 30.4883 30.2012">
 <g>
  <rect height="30.2012" opacity="0" width="30.4883" x="0" y="0"/>
  <path d="M30.1328 8.09375L30.1328 18.5664C30.1328 22.5723 27.9453 24.8145 23.8711 24.8145L14.6289 24.8145L9.69336 29.3262C9.05078 29.9277 8.6543 30.2012 8.12109 30.2012C7.3418 30.2012 6.9043 29.6406 6.9043 28.793L6.9043 24.8145L6.26172 24.8145C2.1875 24.8145 0 22.5859 0 18.5664L0 8.09375C0 4.07422 2.1875 1.83203 6.26172 1.83203L23.8711 1.83203C27.9453 1.83203 30.1328 4.08789 30.1328 8.09375ZM6.16602 16.9121C5.71484 16.9121 5.3457 17.2812 5.3457 17.7461C5.3457 18.1973 5.71484 18.5527 6.16602 18.5527L8.55859 18.5527C9.00977 18.5527 9.36523 18.1973 9.36523 17.7461C9.36523 17.2812 9.00977 16.9121 8.55859 16.9121ZM11.457 16.9121C11.0059 16.9121 10.6504 17.2812 10.6504 17.7461C10.6504 18.1973 11.0059 18.5527 11.457 18.5527L18.5254 18.5527C18.9766 18.5527 19.3457 18.1973 19.3457 17.7461C19.3457 17.2812 18.9766 16.9121 18.5254 16.9121ZM21.4375 16.9121C20.9863 16.9121 20.6172 17.2812 20.6172 17.7461C20.6172 18.1973 20.9863 18.5527 21.4375 18.5527L23.9941 18.5527C24.4453 18.5527 24.8008 18.1973 24.8008 17.7461C24.8008 17.2812 24.4453 16.9121 23.9941 16.9121ZM6.16602 13.2344C5.71484 13.2344 5.3457 13.6035 5.3457 14.041C5.3457 14.5059 5.71484 14.875 6.16602 14.875L11.9629 14.875C12.4141 14.875 12.7832 14.5059 12.7832 14.041C12.7832 13.6035 12.4141 13.2344 11.9629 13.2344ZM14.875 13.2344C14.4238 13.2344 14.0547 13.6035 14.0547 14.041C14.0547 14.5059 14.4238 14.875 14.875 14.875L23.9941 14.875C24.4453 14.875 24.8008 14.5059 24.8008 14.041C24.8008 13.6035 24.4453 13.2344 23.9941 13.2344Z" fill="white" fill-opacity="0.85"/>
 </g>
</svg>
