<?xml version="1.0" encoding="UTF-8"?>
<!--Generator: Apple Native CoreSVG 326-->
<!DOCTYPE svg
PUBLIC "-//W3C//DTD SVG 1.1//EN"
       "http://www.w3.org/Graphics/SVG/1.1/DTD/svg11.dtd">
<svg version="1.1" xmlns="http://www.w3.org/2000/svg" xmlns:xlink="http://www.w3.org/1999/xlink" viewBox="0 0 26.8242 32.7715">
 <g>
  <rect height="32.7715" opacity="0" width="26.8242" x="0" y="0"/>
  <path d="M13.2344 2.24219C16.1738 2.24219 18.8535 3.26758 20.8906 5.09961C21.4512 5.60547 22.0938 5.72852 22.5859 5.30469C23.0918 4.85352 23.0918 4.10156 22.5176 3.56836C20.0566 1.29883 16.7754 0.0136719 13.2344 0.0136719C9.69336 0.0136719 6.41211 1.29883 3.95117 3.56836C3.37695 4.10156 3.37695 4.85352 3.88281 5.30469C4.375 5.72852 5.01758 5.60547 5.57812 5.09961C7.61523 3.26758 10.2949 2.24219 13.2344 2.24219Z" fill="white" fill-opacity="0.85"/>
  <path d="M13.2344 7.72461C14.6562 7.72461 15.9824 8.13477 16.9941 8.95508C17.582 9.37891 18.1973 9.57031 18.6895 9.13281C19.209 8.68164 19.2227 7.86133 18.5938 7.36914C17.1172 6.17969 15.2441 5.49609 13.2344 5.49609C11.2246 5.49609 9.35156 6.17969 7.875 7.36914C7.24609 7.86133 7.25977 8.68164 7.7793 9.13281C8.27148 9.57031 8.87305 9.37891 9.47461 8.95508C10.5273 8.16211 11.8125 7.72461 13.2344 7.72461Z" fill="white" fill-opacity="0.85"/>
  <path d="M0 31.1855C0 32.0605 0.697266 32.7715 1.59961 32.7715L2.91211 32.7715C3.80078 32.7715 4.49805 32.0605 4.49805 31.1855L4.49805 29.709L21.9707 29.709L21.9707 31.1855C21.9707 32.0605 22.668 32.7715 23.5566 32.7715L24.8828 32.7715C25.7715 32.7715 26.4688 32.0605 26.4688 31.1855L26.4688 23.8574C26.4688 21.9707 26.2227 20.8086 25.0332 19.5234L23.9531 18.334L22.7773 15.0391C22.1211 13.166 20.8496 12.3594 19.2773 12.1816C18.5391 12.0859 16.0918 12.0312 13.2344 12.0312C10.377 12.0312 7.92969 12.0859 7.19141 12.1816C5.61914 12.3594 4.34766 13.166 3.69141 15.0391L2.51562 18.334L1.43555 19.5234C0.246094 20.8086 0 21.9707 0 23.8574ZM5.6875 18.334C5.23633 18.334 5.11328 18.0605 5.26367 17.623L5.96094 15.5723C6.2207 14.8477 6.52148 14.6562 7.16406 14.5605C7.94336 14.4512 10.0762 14.3555 13.2344 14.3555C16.3926 14.3555 18.5254 14.4512 19.291 14.5605C19.9336 14.6562 20.248 14.8477 20.5078 15.5723L21.2051 17.623C21.3555 18.0605 21.2188 18.334 20.7676 18.334ZM4.14258 25.252C3.51367 25.252 3.08984 24.8281 3.08984 24.2129L3.08984 22.4766C3.08984 21.8613 3.51367 21.4512 4.14258 21.4512C4.77148 21.4512 5.18164 21.8477 5.18164 22.4766L5.18164 24.2129C5.18164 24.8418 4.77148 25.252 4.14258 25.252ZM10.7051 24.7188C10.2266 24.7188 9.95312 24.4453 9.95312 23.8984L9.95312 22.7773C9.95312 22.2578 10.2266 21.9844 10.7051 21.9844L15.7227 21.9844C16.2148 21.9844 16.4883 22.2578 16.4883 22.7773L16.4883 23.8984C16.4883 24.4453 16.2148 24.7188 15.7227 24.7188ZM22.4355 25.252C21.8203 25.252 21.3965 24.8281 21.3965 24.2129L21.3965 22.4766C21.3965 21.8613 21.8203 21.4512 22.4355 21.4512C23.0645 21.4512 23.4883 21.8477 23.4883 22.4766L23.4883 24.2129C23.4883 24.8418 23.0645 25.252 22.4355 25.252Z" fill="white" fill-opacity="0.85"/>
 </g>
</svg>
