<?xml version="1.0" encoding="UTF-8"?>
<!--Generator: Apple Native CoreSVG 326-->
<!DOCTYPE svg
PUBLIC "-//W3C//DTD SVG 1.1//EN"
       "http://www.w3.org/Graphics/SVG/1.1/DTD/svg11.dtd">
<svg version="1.1" xmlns="http://www.w3.org/2000/svg" xmlns:xlink="http://www.w3.org/1999/xlink" viewBox="0 0 32.7031 25.416">
 <g>
  <rect height="25.416" opacity="0" width="32.7031" x="0" y="0"/>
  <path d="M0 18.5117C0 20.3027 1.02539 21.5742 2.92578 21.5742L29.4355 21.5742C31.3223 21.5742 32.3477 20.3027 32.3477 18.5117L32.3477 14.4238C32.3477 12.127 32.0332 10.7461 30.625 9.20117L29.2441 7.71094L27.8086 3.5957C27.0293 1.35352 25.5117 0.410156 23.625 0.191406C22.709 0.0820312 19.7148 0 16.1738 0C12.6465 0 9.65234 0.0820312 8.73633 0.191406C6.83594 0.410156 5.31836 1.35352 4.53906 3.5957L3.10352 7.71094L1.73633 9.20117C0.314453 10.7461 0 12.127 0 14.4238ZM1.79102 17.9648L1.79102 14.4238C1.79102 12.5645 2.00977 11.5938 3.1582 10.2949L4.77148 8.46289L6.15234 4.40234C6.71289 2.74805 7.66992 2.17383 8.94141 2.02344C9.81641 1.91406 12.5918 1.79102 16.1738 1.79102C19.7695 1.79102 22.5312 1.91406 23.4062 2.02344C24.6777 2.17383 25.6348 2.74805 26.1953 4.40234L27.5762 8.46289L29.2031 10.2949C30.3379 11.5938 30.5566 12.5645 30.5566 14.4238L30.5566 17.9648C30.5566 19.0449 30.1191 19.7832 28.9434 19.7832L3.4043 19.7832C2.24219 19.7832 1.79102 19.0449 1.79102 17.9648ZM7.39648 8.23047L24.9512 8.23047C25.5664 8.23047 25.7852 7.7793 25.5801 7.20508L24.7734 4.8125C24.4727 3.92383 24.0078 3.62305 23.2148 3.51367C22.3262 3.39062 19.8516 3.29492 16.1738 3.29492C12.4961 3.29492 10.0352 3.39062 9.13281 3.51367C8.35352 3.62305 7.875 3.92383 7.57422 4.8125L6.76758 7.20508C6.57617 7.7793 6.78125 8.23047 7.39648 8.23047ZM5.61914 16.1465C6.39844 16.1465 6.97266 15.5723 6.97266 14.7793L6.97266 12.7695C6.97266 11.9766 6.39844 11.416 5.61914 11.416C4.82617 11.416 4.25195 11.9902 4.25195 12.7695L4.25195 14.7793C4.25195 15.5586 4.82617 16.1465 5.61914 16.1465ZM13.248 15.5312L19.0586 15.5312C19.7012 15.5312 20.125 15.1074 20.125 14.4375L20.125 13.1113C20.125 12.4414 19.7012 12.0449 19.0586 12.0449L13.248 12.0449C12.6328 12.0449 12.209 12.4414 12.209 13.1113L12.209 14.4375C12.209 15.1074 12.6328 15.5312 13.248 15.5312ZM26.8652 16.1465C27.6582 16.1465 28.2461 15.5723 28.2461 14.7793L28.2461 12.7695C28.2461 11.9766 27.6582 11.416 26.8652 11.416C26.0996 11.416 25.5117 12.0039 25.5117 12.7695L25.5117 14.7793C25.5117 15.5586 26.0996 16.1465 26.8652 16.1465ZM2.51562 25.3613L4.11523 25.3613C5.14062 25.3613 5.93359 24.5684 5.93359 23.5566L5.93359 20.7676L0.697266 20.0156L0.697266 23.5566C0.697266 24.5684 1.49023 25.3613 2.51562 25.3613ZM28.2324 25.3613L29.8457 25.3613C30.8711 25.3613 31.6504 24.5684 31.6504 23.5566L31.6504 20.0156L26.4277 20.7676L26.4277 23.5566C26.4277 24.5684 27.207 25.3613 28.2324 25.3613Z" fill="white" fill-opacity="0.85"/>
 </g>
</svg>
