<?xml version="1.0" encoding="UTF-8"?>
<!--Generator: Apple Native CoreSVG 326-->
<!DOCTYPE svg
PUBLIC "-//W3C//DTD SVG 1.1//EN"
       "http://www.w3.org/Graphics/SVG/1.1/DTD/svg11.dtd">
<svg version="1.1" xmlns="http://www.w3.org/2000/svg" xmlns:xlink="http://www.w3.org/1999/xlink" viewBox="0 0 32.0469 36.1621">
 <g>
  <rect height="36.1621" opacity="0" width="32.0469" x="0" y="0"/>
  <path d="M18.498 36.1621L30.2969 36.1621L30.2969 29.3535C30.2969 26.9199 28.0547 25.498 24.4043 25.498C20.7129 25.498 18.498 26.9199 18.498 29.3535ZM24.4043 34.2344C23.5977 34.2344 22.4219 34.2891 21.998 34.2891C21.3281 34.2891 21.0273 34.0156 20.9727 33.3184L20.8359 31.8008C20.7402 30.5293 21.5605 30.0371 24.4043 30.0371C27.2207 30.0371 28.041 30.5293 27.9316 31.8008L27.8086 33.3184C27.7539 34.0156 27.4395 34.2891 26.7832 34.2891C26.373 34.2891 25.1289 34.2344 24.4043 34.2344ZM19.4277 33.8652L19.4277 31.623L18.0605 31.623C17.5137 31.623 17.1172 32.0332 17.1172 32.5527L17.1172 32.9492C17.1172 33.4551 17.5137 33.8652 18.0605 33.8652ZM29.3535 33.8652L30.7344 33.8652C31.2539 33.8652 31.6914 33.4551 31.6914 32.9492L31.6914 32.5527C31.6914 32.0332 31.2539 31.623 30.7344 31.623L29.3535 31.623Z" fill="white" fill-opacity="0.85"/>
  <path d="M18.0469 24.8145C19.6875 23.1738 20.5488 21.1094 20.6855 18.8672C20.7266 18.2656 20.3301 17.9648 19.9199 17.9648C19.373 17.9648 19.0996 18.2383 19.0449 18.9082C18.9355 20.6582 18.2246 22.3398 16.9121 23.666C15.5859 24.9648 13.9043 25.6895 12.168 25.7852C11.5527 25.8398 11.1973 26.1406 11.1973 26.6055C11.1973 27.1113 11.5664 27.4668 12.127 27.4668C14.3555 27.4668 16.4199 26.4414 18.0469 24.8145Z" fill="white" fill-opacity="0.85"/>
  <path d="M15.4219 22.1758C16.3516 21.2461 16.9121 20.0977 17.0488 18.8125C17.1172 18.2246 16.7344 17.8418 16.2695 17.8555C15.7363 17.8555 15.4902 18.1152 15.3945 18.7031C15.2715 19.6055 14.916 20.3711 14.2734 21.041C13.6172 21.6836 12.8652 22.0527 12.0586 22.1484C11.3887 22.2305 11.0879 22.5723 11.0879 23.0098C11.0742 23.4746 11.4297 23.8164 11.9355 23.8164C12.8379 23.8164 14.3281 23.2695 15.4219 22.1758Z" fill="white" fill-opacity="0.85"/>
  <path d="M7.27344 20.877C11.3613 20.877 13.1797 19.9473 13.1797 17.5957L13.1797 3.86914C13.1797 1.43555 10.9512 0.0136719 7.27344 0.0136719C3.60938 0.0136719 1.38086 1.43555 1.38086 3.86914L1.38086 17.5957C1.38086 19.9473 3.19922 20.877 7.27344 20.877ZM7.27344 8.73633C6.49414 8.73633 5.31836 8.81836 4.89453 8.81836C4.23828 8.81836 3.9375 8.53125 3.86914 7.83398L3.73242 6.31641C3.60938 5.04492 4.44336 4.55273 7.27344 4.55273C10.1035 4.55273 10.9512 5.04492 10.8281 6.31641L10.7051 7.83398C10.6504 8.53125 10.3496 8.81836 9.67969 8.81836C9.25586 8.81836 8.01172 8.73633 7.27344 8.73633ZM7.27344 17.5C4.45703 17.5 3.54102 17.0898 3.75977 15.7773L3.86914 15.0254C4.04688 13.9727 4.85352 13.6445 7.27344 13.6445C9.70703 13.6445 10.541 13.9727 10.6914 15.0254L10.8008 15.7773C10.9922 17.0898 10.1035 17.5 7.27344 17.5ZM2.31055 8.38086L2.31055 6.13867L0.943359 6.13867C0.410156 6.13867 0 6.54883 0 7.06836L0 7.46484C0 7.9707 0.410156 8.38086 0.943359 8.38086ZM12.25 8.38086L13.6172 8.38086C14.1504 8.38086 14.5742 7.9707 14.5742 7.46484L14.5742 7.06836C14.5742 6.54883 14.1504 6.13867 13.6172 6.13867L12.25 6.13867Z" fill="white" fill-opacity="0.85"/>
 </g>
</svg>
