<?xml version="1.0" encoding="UTF-8"?>
<!--Generator: Apple Native CoreSVG 326-->
<!DOCTYPE svg
PUBLIC "-//W3C//DTD SVG 1.1//EN"
       "http://www.w3.org/Graphics/SVG/1.1/DTD/svg11.dtd">
<svg version="1.1" xmlns="http://www.w3.org/2000/svg" xmlns:xlink="http://www.w3.org/1999/xlink" viewBox="0 0 32.7031 25.416">
 <g>
  <rect height="25.416" opacity="0" width="32.7031" x="0" y="0"/>
  <path d="M6.41211 8.59961C6.30273 9.07812 6.50781 9.26953 7.02734 9.24219C9.21484 9.0918 11.8125 8.96875 16.1738 8.96875C20.5488 8.96875 23.1465 9.0918 25.334 9.24219C25.8398 9.26953 26.0449 9.07812 25.9355 8.59961C25.6074 7.15039 24.9785 5.26367 24.541 4.51172C24.1855 3.89648 23.7891 3.62305 23.0781 3.52734C22.0938 3.39062 19.8516 3.29492 16.1738 3.29492C12.5098 3.29492 10.2676 3.39062 9.26953 3.52734C8.55859 3.62305 8.16211 3.89648 7.80664 4.51172C7.36914 5.26367 6.75391 7.15039 6.41211 8.59961ZM6.31641 17.9102C7.56055 17.9102 8.51758 16.9531 8.51758 15.709C8.51758 14.4512 7.56055 13.5078 6.31641 13.5078C5.07227 13.5078 4.11523 14.4512 4.11523 15.709C4.11523 16.9531 5.07227 17.9102 6.31641 17.9102ZM12.5645 17.3633L19.7969 17.3633C20.7266 17.3633 21.3691 16.7207 21.3691 15.7773C21.3691 14.8477 20.7266 14.2051 19.7969 14.2051L12.5645 14.2051C11.6211 14.2051 10.9785 14.8477 10.9785 15.7773C10.9785 16.7207 11.6211 17.3633 12.5645 17.3633ZM26.0312 17.9102C27.2891 17.9102 28.2324 16.9531 28.2324 15.709C28.2324 14.4512 27.2891 13.5078 26.0312 13.5078C24.7871 13.5078 23.8438 14.4512 23.8438 15.709C23.8438 16.9531 24.7871 17.9102 26.0312 17.9102ZM16.1738 21.6016C20.7676 21.6016 26.8789 21.3691 29.4629 21.0684C31.3223 20.8633 32.3477 19.8379 32.3477 18.0879L32.3477 15.6816C32.3477 13.3711 31.8828 12.0859 30.625 10.4453L29.4629 8.95508C28.9707 6.49414 28.0547 3.91016 27.5898 2.89844C26.8516 1.35352 25.4434 0.4375 23.625 0.191406C22.709 0.0683594 19.7148 0 16.1738 0C12.6465 0 9.65234 0.0820312 8.73633 0.191406C6.91797 0.410156 5.49609 1.35352 4.77148 2.89844C4.29297 3.91016 3.39062 6.49414 2.88477 8.95508L1.73633 10.4453C0.464844 12.0859 0 13.3711 0 15.6816L0 18.0879C0 19.8379 1.03906 20.8633 2.88477 21.0684C5.48242 21.3691 11.5801 21.6016 16.1738 21.6016ZM16.1738 19.8105C11.5254 19.8105 5.56445 19.5918 3.36328 19.3184C2.20117 19.1816 1.79102 18.5801 1.79102 17.541L1.79102 15.6816C1.79102 13.8086 2.0918 12.9336 3.1582 11.5391L4.55273 9.70703C4.92188 7.72461 5.81055 4.96289 6.39844 3.70508C6.83594 2.76172 7.69727 2.17383 8.94141 2.02344C9.81641 1.91406 12.5918 1.79102 16.1738 1.79102C19.7695 1.79102 22.5859 1.91406 23.3789 2.02344C24.6641 2.1875 25.5117 2.77539 25.9629 3.70508C26.5508 4.96289 27.4395 7.72461 27.7949 9.70703L29.2031 11.5391C30.2559 12.9336 30.5566 13.8086 30.5566 15.6816L30.5566 17.541C30.5566 18.5801 30.1465 19.1816 28.9844 19.3184C26.7969 19.5918 20.8223 19.8105 16.1738 19.8105ZM2.51562 25.3613L4.11523 25.3613C5.14062 25.3613 5.93359 24.5684 5.93359 23.5566L5.93359 20.3027L0.697266 19.5508L0.697266 23.5566C0.697266 24.5684 1.49023 25.3613 2.51562 25.3613ZM28.2324 25.3613L29.8457 25.3613C30.8711 25.3613 31.6504 24.5684 31.6504 23.5566L31.6504 19.5508L26.4277 20.3027L26.4277 23.5566C26.4277 24.5684 27.207 25.3613 28.2324 25.3613Z" fill="#0a84ff"/>
 </g>
</svg>
