<?xml version="1.0" encoding="UTF-8"?>
<!--Generator: Apple Native CoreSVG 326-->
<!DOCTYPE svg
PUBLIC "-//W3C//DTD SVG 1.1//EN"
       "http://www.w3.org/Graphics/SVG/1.1/DTD/svg11.dtd">
<svg version="1.1" xmlns="http://www.w3.org/2000/svg" xmlns:xlink="http://www.w3.org/1999/xlink" viewBox="0 0 29.3262 25.0332">
 <g>
  <rect height="25.0332" opacity="0" width="29.3262" x="0" y="0"/>
  <path d="M4.29297 25.0332L24.6777 25.0332C27.5762 25.0332 28.9707 23.666 28.9707 20.8086L28.9707 4.14258C28.9707 1.4082 27.5625 0.0136719 24.8008 0.0136719L18.1699 0.0136719C15.9414 0.0136719 14.5469 0.492188 12.7422 1.8457L2.11914 9.92578C0.546875 11.1152 0 12.168 0 14.123L0 20.8086C0 23.666 1.4082 25.0332 4.29297 25.0332ZM4.375 12.4277C3.65039 12.4277 3.5 11.6484 4.06055 11.2383L14.2461 3.44531C15.4082 2.51562 16.4199 2.21484 18.1699 2.21484L24.7598 2.21484C26.0312 2.21484 26.7695 2.92578 26.7695 4.25195L26.7695 10.3906C26.7695 11.7031 26.0176 12.4277 24.7598 12.4277Z" fill="white" fill-opacity="0.85"/>
 </g>
</svg>
