<?xml version="1.0" encoding="UTF-8"?>
<!--Generator: Apple Native CoreSVG 326-->
<!DOCTYPE svg
PUBLIC "-//W3C//DTD SVG 1.1//EN"
       "http://www.w3.org/Graphics/SVG/1.1/DTD/svg11.dtd">
<svg version="1.1" xmlns="http://www.w3.org/2000/svg" xmlns:xlink="http://www.w3.org/1999/xlink" viewBox="0 0 32.7031 25.416">
 <g>
  <rect height="25.416" opacity="0" width="32.7031" x="0" y="0"/>
  <path d="M5.64648 7.80664C5.96094 6.31641 6.63086 4.36133 7.08203 3.56836C7.45117 2.92578 7.84766 2.63867 8.58594 2.54297C9.625 2.40625 11.9492 2.31055 16.1738 2.31055C20.4121 2.31055 22.7363 2.37891 23.7617 2.54297C24.5 2.65234 24.8828 2.92578 25.2656 3.56836C25.7305 4.34766 26.3594 6.31641 26.7148 7.80664C26.8379 8.3125 26.6191 8.50391 26.0996 8.47656C23.8301 8.32617 21.123 8.18945 16.1738 8.18945C11.2383 8.18945 8.53125 8.32617 6.26172 8.47656C5.72852 8.50391 5.52344 8.3125 5.64648 7.80664ZM6.31641 17.9102C5.07227 17.9102 4.11523 16.9531 4.11523 15.709C4.11523 14.4512 5.07227 13.5078 6.31641 13.5078C7.56055 13.5078 8.51758 14.4512 8.51758 15.709C8.51758 16.9531 7.56055 17.9102 6.31641 17.9102ZM12.5645 17.3633C11.6211 17.3633 10.9785 16.7207 10.9785 15.7773C10.9785 14.8477 11.6211 14.2051 12.5645 14.2051L19.7969 14.2051C20.7266 14.2051 21.3691 14.8477 21.3691 15.7773C21.3691 16.7207 20.7266 17.3633 19.7969 17.3633ZM26.0312 17.9102C24.7871 17.9102 23.8438 16.9531 23.8438 15.709C23.8438 14.4512 24.7871 13.5078 26.0312 13.5078C27.2891 13.5078 28.2324 14.4512 28.2324 15.709C28.2324 16.9531 27.2891 17.9102 26.0312 17.9102ZM16.1738 21.6016C20.7676 21.6016 26.8789 21.3691 29.4629 21.0684C31.3223 20.8633 32.3477 19.8379 32.3477 18.0879L32.3477 15.6816C32.3477 13.3711 31.8828 12.0859 30.625 10.4453L29.4629 8.95508C28.9707 6.49414 28.0547 3.91016 27.5898 2.89844C26.8516 1.35352 25.4434 0.4375 23.625 0.191406C22.709 0.0683594 19.7148 0 16.1738 0C12.6465 0 9.65234 0.0820312 8.73633 0.191406C6.91797 0.410156 5.49609 1.35352 4.77148 2.89844C4.29297 3.91016 3.39062 6.49414 2.88477 8.95508L1.73633 10.4453C0.464844 12.0859 0 13.3711 0 15.6816L0 18.0879C0 19.8379 1.03906 20.8633 2.88477 21.0684C5.48242 21.3691 11.5801 21.6016 16.1738 21.6016ZM1.81836 25.3613L3.41797 25.3613C4.44336 25.3613 5.23633 24.5684 5.23633 23.5566L5.23633 20.1523L0 17.6641L0 23.5566C0 24.5684 0.792969 25.3613 1.81836 25.3613ZM28.9297 25.3613L30.543 25.3613C31.5684 25.3613 32.3477 24.5684 32.3477 23.5566L32.3477 17.6641L27.125 20.1523L27.125 23.5566C27.125 24.5684 27.9043 25.3613 28.9297 25.3613Z" fill="#0a84ff"/>
 </g>
</svg>
