<?xml version="1.0" encoding="UTF-8"?>
<!--Generator: Apple Native CoreSVG 326-->
<!DOCTYPE svg
PUBLIC "-//W3C//DTD SVG 1.1//EN"
       "http://www.w3.org/Graphics/SVG/1.1/DTD/svg11.dtd">
<svg version="1.1" xmlns="http://www.w3.org/2000/svg" xmlns:xlink="http://www.w3.org/1999/xlink" viewBox="0 0 30.9781 27.7676">
 <g>
  <rect height="27.7676" opacity="0" width="30.9781" x="0" y="0"/>
  <path d="M3.72442 21.0957L3.72442 26.8926C3.72442 27.3574 3.38263 27.6992 2.93146 27.6992L2.19317 27.6992C1.72833 27.6992 1.38653 27.3574 1.38653 26.8926L1.38653 21.0957C1.38653 20.6309 1.72833 20.2891 2.19317 20.2891L2.93146 20.2891C3.38263 20.2891 3.72442 20.6309 3.72442 21.0957ZM29.2361 21.0957L29.2361 26.8926C29.2361 27.3438 28.8943 27.6855 28.4295 27.6855L27.7049 27.6855C27.24 27.6855 26.8983 27.3438 26.8983 26.8926L26.8983 21.0957C26.8983 20.6309 27.24 20.2891 27.7049 20.2891L28.4295 20.2891C28.8943 20.2891 29.2361 20.6309 29.2361 21.0957ZM3.72442 10.9512L3.72442 16.7344C3.72442 17.1992 3.38263 17.541 2.93146 17.541L2.19317 17.541C1.72833 17.541 1.38653 17.1992 1.38653 16.7344L1.38653 10.9512C1.38653 10.5 1.72833 10.1582 2.19317 10.1582L2.93146 10.1582C3.38263 10.1582 3.72442 10.5 3.72442 10.9512ZM3.72442 0.806641L3.72442 6.60352C3.72442 7.06836 3.38263 7.41016 2.93146 7.41016L2.19317 7.41016C1.72833 7.41016 1.38653 7.06836 1.38653 6.60352L1.38653 0.806641C1.38653 0.341797 1.72833 0 2.19317 0L2.93146 0C3.38263 0 3.72442 0.341797 3.72442 0.806641ZM29.2361 0.806641L29.2361 5.28711C28.622 4.66431 27.8394 4.06585 26.8983 3.50739L26.8983 0.806641C26.8983 0.341797 27.24 0 27.7049 0L28.4295 0C28.8943 0 29.2361 0.341797 29.2361 0.806641Z" fill="white" fill-opacity="0.85"/>
  <path d="M14.2381 24.8145C18.4354 27.2207 20.869 27.3711 22.2635 24.9648L30.4256 10.8008C31.8748 8.3125 30.4256 5.52344 26.6385 3.34961C22.8787 1.18945 19.7479 1.3125 18.3123 3.80078L10.1365 17.9648C8.742 20.3711 10.0682 22.4082 14.2381 24.8145ZM15.2225 23.1465C12.0916 21.3418 11.1483 20.1387 11.8729 18.8809L20.0076 4.78516C20.8416 3.34961 22.824 3.4043 25.6541 5.03125C28.5115 6.68555 29.5643 8.38086 28.7303 9.83008L20.5818 23.9258C19.8709 25.1699 18.3533 24.9512 15.2225 23.1465ZM21.4295 12.373C22.1678 12.8105 23.3846 13.6035 23.7947 13.8496C24.4373 14.2188 24.9022 14.1367 25.367 13.4668L26.3787 12.0176C27.2127 10.8281 26.6658 9.87109 23.8221 8.23047C21.0057 6.60352 19.8983 6.60352 19.2693 7.92969L18.5311 9.5293C18.2029 10.2402 18.326 10.6914 18.9959 11.0605C19.4061 11.3203 20.6502 11.9219 21.4295 12.373ZM16.3572 21.1641C19.1736 22.791 20.3221 22.8867 20.869 21.4785L21.1834 20.6719C21.6346 19.5371 21.0057 18.7441 18.5584 17.3496C16.1385 15.9414 15.1268 15.791 14.3748 16.748L13.8416 17.418C12.8983 18.6074 13.5545 19.5371 16.3572 21.1641ZM16.5623 8.95508L17.8611 6.71289L16.4803 5.90625C15.9471 5.5918 15.3045 5.75586 15.0037 6.27539L14.7576 6.68555C14.4568 7.19141 14.6483 7.86133 15.1678 8.16211ZM26.8436 14.8887L28.2244 15.6953C28.7576 16.0098 29.4275 15.832 29.7147 15.3262L29.9471 14.9023C30.2342 14.3828 30.0701 13.7402 29.5233 13.4258L28.1424 12.6328Z" fill="white" fill-opacity="0.85"/>
 </g>
</svg>
