<?xml version="1.0" encoding="UTF-8"?>
<!--Generator: Apple Native CoreSVG 326-->
<!DOCTYPE svg
PUBLIC "-//W3C//DTD SVG 1.1//EN"
       "http://www.w3.org/Graphics/SVG/1.1/DTD/svg11.dtd">
<svg version="1.1" xmlns="http://www.w3.org/2000/svg" xmlns:xlink="http://www.w3.org/1999/xlink" viewBox="0 0 27.002 36.8505">
 <g>
  <rect height="36.8505" opacity="0" width="27.002" x="0" y="0"/>
  <path d="M13.3164 30.1489C17.1309 30.1489 22.0527 29.9575 24.1309 29.7114C25.7305 29.5337 26.6465 28.645 26.6465 27.1137L26.6465 25.063C26.6465 23.1762 26.25 22.0688 25.2109 20.729L24.3086 19.5805C23.8984 17.5981 23.1738 15.5337 22.791 14.727C22.1758 13.4145 20.959 12.6489 19.4414 12.4438C18.7031 12.3481 16.2832 12.2798 13.3164 12.2798C10.3496 12.2798 7.94336 12.3618 7.20508 12.4438C5.6875 12.6352 4.4707 13.4145 3.85547 14.727C3.45898 15.5337 2.74805 17.5981 2.32422 19.5805L1.43555 20.729C0.382812 22.0688 0 23.1762 0 25.063L0 27.1137C0 28.645 0.916016 29.5337 2.51562 29.7114C4.59375 29.9575 9.51562 30.1489 13.3164 30.1489ZM13.3164 28.2895C9.47461 28.2895 4.68945 28.1255 2.93945 27.9067C2.10547 27.7973 1.85938 27.4555 1.85938 26.6762L1.85938 25.063C1.85938 23.6001 2.06445 22.9438 2.89844 21.8774L4.04688 20.3598C4.33398 18.7876 5.07227 16.5591 5.52344 15.561C5.86523 14.8501 6.4668 14.4262 7.41016 14.3305C8.12109 14.2348 10.3223 14.1255 13.3164 14.1255C16.3242 14.1255 18.5801 14.2348 19.1953 14.3305C20.1797 14.4399 20.7812 14.8637 21.123 15.561C21.5879 16.5591 22.2988 18.7876 22.5859 20.3598L23.748 21.8774C24.582 22.9438 24.7871 23.6001 24.7871 25.063L24.7871 26.6762C24.7871 27.4555 24.541 27.811 23.707 27.9067C21.957 28.1255 17.1719 28.2895 13.3164 28.2895ZM5.35938 19.4028C5.27734 19.7719 5.42773 19.936 5.85156 19.9087C7.60156 19.7719 9.69336 19.6762 13.3164 19.6762C16.9395 19.6762 19.0449 19.7719 20.7949 19.9087C21.2051 19.936 21.3691 19.7719 21.2871 19.4028C21.0137 18.2134 20.5215 16.7231 20.166 16.1079C19.8789 15.6157 19.5645 15.3969 18.9902 15.3149C18.1836 15.2055 16.3926 15.1372 13.3164 15.1372C10.2539 15.1372 8.44922 15.2055 7.64258 15.3149C7.08203 15.3969 6.75391 15.6157 6.48047 16.1079C6.13867 16.7231 5.63281 18.2134 5.35938 19.4028ZM5.27734 26.8676C6.28906 26.8676 7.04102 26.102 7.04102 25.0903C7.04102 24.0923 6.28906 23.3403 5.27734 23.3403C4.2793 23.3403 3.51367 24.0923 3.51367 25.0903C3.51367 26.102 4.2793 26.8676 5.27734 26.8676ZM10.2949 26.4301L16.3379 26.4301C17.1035 26.4301 17.623 25.9106 17.623 25.1587C17.623 24.4067 17.1035 23.9009 16.3379 23.9009L10.2949 23.9009C9.54297 23.9009 9.02344 24.4067 9.02344 25.1587C9.02344 25.9106 9.54297 26.4301 10.2949 26.4301ZM21.3555 26.8676C22.3672 26.8676 23.1328 26.102 23.1328 25.0903C23.1328 24.0923 22.3672 23.3403 21.3555 23.3403C20.3574 23.3403 19.6055 24.0923 19.6055 25.0903C19.6055 26.102 20.3574 26.8676 21.3555 26.8676ZM2.22852 33.0884L3.55469 33.0884C4.375 33.0884 5.01758 32.4594 5.01758 31.6528L5.01758 29.0005L0.792969 28.3852L0.792969 31.6528C0.792969 32.4594 1.42188 33.0884 2.22852 33.0884ZM23.0645 33.0884L24.3906 33.0884C25.2109 33.0884 25.8262 32.4594 25.8262 31.6528L25.8262 28.3852L21.6016 29.0005L21.6016 31.6528C21.6016 32.4594 22.2441 33.0884 23.0645 33.0884Z" fill="white" fill-opacity="0.85"/>
  <path d="M13.2617 7.12546C10.3223 7.12546 7.64258 6.11374 5.60547 4.26804C5.04492 3.77585 4.41602 3.63913 3.91016 4.07663C3.4043 4.51413 3.4043 5.27976 3.97852 5.81296C6.43945 8.08249 9.7207 9.35398 13.2617 9.35398C16.8027 9.35398 20.084 8.08249 22.5449 5.81296C23.1328 5.27976 23.1328 4.51413 22.6133 4.07663C22.1211 3.63913 21.4785 3.77585 20.918 4.26804C18.8809 6.11374 16.2148 7.12546 13.2617 7.12546Z" fill="white" fill-opacity="0.85"/>
  <path d="M13.2891 1.65671C11.8672 1.65671 10.582 1.21921 9.5293 0.426242C8.92773 0.00241388 8.32617-0.188992 7.83398 0.248508C7.31445 0.69968 7.30078 1.51999 7.92969 2.01218C9.40625 3.20163 11.2793 3.88523 13.2891 3.88523C15.2988 3.88523 17.1719 3.20163 18.6484 2.01218C19.2637 1.51999 19.25 0.69968 18.7441 0.248508C18.252-0.188992 17.6367 0.00241388 17.0488 0.426242C16.0234 1.24655 14.7109 1.65671 13.2891 1.65671Z" fill="white" fill-opacity="0.85"/>
 </g>
</svg>
