<?xml version="1.0" encoding="UTF-8"?>
<!--Generator: Apple Native CoreSVG 326-->
<!DOCTYPE svg
PUBLIC "-//W3C//DTD SVG 1.1//EN"
       "http://www.w3.org/Graphics/SVG/1.1/DTD/svg11.dtd">
<svg version="1.1" xmlns="http://www.w3.org/2000/svg" xmlns:xlink="http://www.w3.org/1999/xlink" viewBox="0 0 27.0156 36.2168">
 <g>
  <rect height="36.2168" opacity="0" width="27.0156" x="0" y="0"/>
  <path d="M13.2754 2.22852C16.2285 2.22852 18.8945 3.25391 20.9316 5.08594C21.5059 5.57812 22.1348 5.71484 22.627 5.27734C23.1465 4.83984 23.1465 4.07422 22.5586 3.54102C20.0977 1.27148 16.8164 0 13.2754 0C9.73438 0 6.4668 1.27148 3.99219 3.54102C3.41797 4.07422 3.41797 4.83984 3.92383 5.27734C4.42969 5.71484 5.05859 5.57812 5.61914 5.08594C7.66992 3.25391 10.3359 2.22852 13.2754 2.22852Z" fill="white" fill-opacity="0.85"/>
  <path d="M13.3027 7.69727C14.7246 7.69727 16.0508 8.10742 17.0625 8.92773C17.6504 9.36523 18.2656 9.54297 18.7578 9.10547C19.2773 8.6543 19.291 7.83398 18.6621 7.35547C17.1855 6.16602 15.3125 5.46875 13.3027 5.46875C11.293 5.46875 9.41992 6.16602 7.94336 7.35547C7.31445 7.83398 7.32812 8.6543 7.84766 9.10547C8.33984 9.54297 8.94141 9.35156 9.54297 8.92773C10.5957 8.13477 11.8809 7.69727 13.3027 7.69727Z" fill="white" fill-opacity="0.85"/>
  <path d="M13.3301 29.627C16.1191 29.627 19.6465 29.5312 22.1484 29.3809L22.1484 31.3086C22.1484 32.1426 22.791 32.7715 23.625 32.7715L25.1699 32.7715C26.0039 32.7715 26.6602 32.1426 26.6602 31.3086L26.6602 24.7871C26.6602 22.9004 26.2773 21.8477 25.2383 20.5078L24.2949 19.291C23.8848 17.2812 23.1465 15.1621 22.7637 14.3418C22.1484 13.0703 21 12.3047 19.5098 12.127C18.7715 12.0312 16.2285 11.9629 13.3301 11.9629C10.4316 11.9629 7.88867 12.0312 7.15039 12.127C5.66016 12.3047 4.49805 13.0703 3.89648 14.3418C3.51367 15.1621 2.77539 17.2812 2.36523 19.291L1.42188 20.5078C0.382812 21.8477 0 22.9004 0 24.7871L0 31.3086C0 32.1426 0.65625 32.7715 1.49023 32.7715L3.03516 32.7715C3.86914 32.7715 4.51172 32.1426 4.51172 31.3086L4.51172 29.3809C7.01367 29.5312 10.541 29.627 13.3301 29.627ZM4.7168 18.3613C4.97656 17.1309 5.52344 15.5449 5.89258 14.8887C6.19336 14.3555 6.52148 14.1367 7.12305 14.041C7.9707 13.9453 9.87109 13.8633 13.3301 13.8633C16.7891 13.8633 18.6895 13.918 19.5371 14.041C20.1387 14.1367 20.4531 14.3555 20.7676 14.8887C21.1504 15.5312 21.6426 17.1309 21.9434 18.3613C22.0527 18.7715 21.875 18.9355 21.4512 18.9082C19.5918 18.7715 17.377 18.6621 13.3301 18.6621C9.2832 18.6621 7.06836 18.7715 5.20898 18.9082C4.78516 18.9355 4.62109 18.7715 4.7168 18.3613ZM5.26367 26.6191C4.25195 26.6191 3.45898 25.8398 3.45898 24.8145C3.45898 23.7891 4.25195 23.0234 5.26367 23.0234C6.28906 23.0234 7.05469 23.7891 7.05469 24.8145C7.05469 25.8398 6.28906 26.6191 5.26367 26.6191ZM10.377 26.168C9.61133 26.168 9.07812 25.6484 9.07812 24.8828C9.07812 24.1035 9.61133 23.584 10.377 23.584L16.2832 23.584C17.0488 23.584 17.582 24.1035 17.582 24.8828C17.582 25.6484 17.0488 26.168 16.2832 26.168ZM21.3965 26.6191C20.3711 26.6191 19.6055 25.8398 19.6055 24.8145C19.6055 23.7891 20.3711 23.0234 21.3965 23.0234C22.4082 23.0234 23.1875 23.7891 23.1875 24.8145C23.1875 25.8398 22.4082 26.6191 21.3965 26.6191Z" fill="white" fill-opacity="0.85"/>
 </g>
</svg>
