<?xml version="1.0" encoding="UTF-8"?>
<!--Generator: Apple Native CoreSVG 326-->
<!DOCTYPE svg
PUBLIC "-//W3C//DTD SVG 1.1//EN"
       "http://www.w3.org/Graphics/SVG/1.1/DTD/svg11.dtd">
<svg version="1.1" xmlns="http://www.w3.org/2000/svg" xmlns:xlink="http://www.w3.org/1999/xlink" viewBox="0 0 39.7434 20.4941">
 <g>
  <rect height="20.4941" opacity="0" width="39.7434" x="0" y="0"/>
  <path d="M9.02305 3.66406L10.0074 3.66406C10.6227 3.66406 10.8824 3.43164 11.0875 2.91211L11.8941 0.875C12.0855 0.423828 11.8805 0.0273438 11.402 0.0273438L10.4996 0.0273438C10.0348 0.0273438 9.74766 0.259766 9.52891 0.669922L8.44883 2.74805C8.23008 3.1582 8.44883 3.66406 9.02305 3.66406ZM5.27695 11.2656L6.79453 11.2656C7.42344 11.2656 7.79258 11.0469 8.025 10.459L9.21445 7.5332C9.40586 7.05469 9.10508 6.58984 8.57187 6.58984L7.21836 6.58984C6.75351 6.58984 6.3707 6.82227 6.15195 7.24609L4.63437 10.1992C4.36094 10.7188 4.68906 11.2656 5.27695 11.2656ZM1.10703 20.4941L2.89805 20.4941C3.71836 20.4941 4.12851 20.0977 4.34726 19.5098L6.01523 15.4219C6.26133 14.8203 5.87851 14.2324 5.22226 14.2324L3.67734 14.2324C2.81601 14.2324 2.39219 14.5605 2.09141 15.1348L0.149999 18.9766C-0.20547 19.6738 0.054296 20.4941 1.10703 20.4941ZM29.3805 3.66406L30.3648 3.66406C30.9391 3.66406 31.1578 3.1582 30.9391 2.74805L29.859 0.669922C29.6539 0.259766 29.3531 0.0273438 28.8883 0.0273438L27.9859 0.0273438C27.5074 0.0273438 27.3023 0.423828 27.4937 0.875L28.3004 2.91211C28.5055 3.43164 28.7652 3.66406 29.3805 3.66406ZM32.607 11.2656L34.1109 11.2656C34.6988 11.2656 35.027 10.7188 34.7672 10.1992L33.2496 7.24609C33.0172 6.82227 32.6344 6.58984 32.1695 6.58984L30.816 6.58984C30.2828 6.58984 29.982 7.05469 30.1734 7.5332L31.3629 10.459C31.609 11.0469 31.9645 11.2656 32.607 11.2656ZM36.4898 20.4941L38.2809 20.4941C39.3473 20.4941 39.5934 19.6738 39.2379 18.9766L37.2965 15.1348C36.9957 14.5605 36.5719 14.2324 35.7105 14.2324L34.1793 14.2324C33.5094 14.2324 33.1266 14.8203 33.3727 15.4219L35.0406 19.5098C35.273 20.0977 35.6695 20.4941 36.4898 20.4941Z" fill="white" fill-opacity="0.85"/>
  <path d="M11.0328 15.9688C11.0328 16.502 11.443 16.9258 11.9898 16.9258L12.8375 16.9258C13.3844 16.9258 13.8082 16.502 13.8082 15.9688L13.8082 14.916L25.4293 14.916L25.4293 15.9688C25.4293 16.502 25.8395 16.9258 26.3863 16.9258L27.2477 16.9258C27.7809 16.9258 28.2047 16.502 28.2047 15.9688L28.2047 11.1152C28.2047 9.89844 28.0406 9.16016 27.2887 8.33984L26.5641 7.54688L25.7984 5.35938C25.3746 4.16992 24.5816 3.67773 23.5699 3.55469C23.0777 3.5 21.4918 3.45898 19.6187 3.45898C17.7457 3.45898 16.1461 3.5 15.6676 3.55469C14.6559 3.67773 13.8492 4.16992 13.4391 5.35938L12.6734 7.54688L11.9488 8.33984C11.1969 9.16016 11.0328 9.89844 11.0328 11.1152ZM14.6695 7.58789C14.3141 7.58789 14.2047 7.32812 14.3141 7.01367L14.7652 5.66016C14.9293 5.1543 15.1891 4.99023 15.6266 4.93555C16.1324 4.86719 17.5406 4.8125 19.6187 4.8125C21.6969 4.8125 23.0914 4.86719 23.5973 4.93555C24.0348 4.99023 24.2945 5.1543 24.4723 5.66016L24.9234 7.01367C25.0328 7.32812 24.9098 7.58789 24.5543 7.58789ZM13.6578 12.127C13.2066 12.127 12.8785 11.7988 12.8785 11.3477L12.8785 10.2129C12.8785 9.77539 13.2066 9.44727 13.6578 9.44727C14.0953 9.44727 14.4234 9.76172 14.4234 10.2129L14.4234 11.3477C14.4234 11.7988 14.0953 12.127 13.6578 12.127ZM17.9645 11.7715C17.609 11.7715 17.3766 11.5391 17.3766 11.1562L17.3766 10.418C17.3766 10.0352 17.609 9.80273 17.9645 9.80273L21.2457 9.80273C21.6012 9.80273 21.8336 10.0352 21.8336 10.418L21.8336 11.1562C21.8336 11.5391 21.6012 11.7715 21.2457 11.7715ZM25.648 12.127C25.2105 12.127 24.8824 11.7852 24.8824 11.3477L24.8824 10.2129C24.8824 9.77539 25.2105 9.44727 25.648 9.44727C26.0992 9.44727 26.4273 9.76172 26.4273 10.2129L26.4273 11.3477C26.4273 11.7988 26.0992 12.127 25.648 12.127Z" fill="white" fill-opacity="0.85"/>
 </g>
</svg>
