<?xml version="1.0" encoding="UTF-8"?>
<!--Generator: Apple Native CoreSVG 326-->
<!DOCTYPE svg
PUBLIC "-//W3C//DTD SVG 1.1//EN"
       "http://www.w3.org/Graphics/SVG/1.1/DTD/svg11.dtd">
<svg version="1.1" xmlns="http://www.w3.org/2000/svg" xmlns:xlink="http://www.w3.org/1999/xlink" viewBox="0 0 25.1289 35.3145">
 <g>
  <rect height="35.3145" opacity="0" width="25.1289" x="0" y="0"/>
  <path d="M1.14844 28.7793C1.85938 28.7793 2.29688 28.3418 2.29688 27.6172L2.29688 15.791C2.29688 15.0664 1.85938 14.6289 1.14844 14.6289C0.451172 14.6289 0 15.0664 0 15.7773L0 27.6309C0 28.3418 0.451172 28.7793 1.14844 28.7793ZM1.14844 19.2227L5.97461 19.2227L5.97461 17.4316L1.14844 17.4316ZM14.9297 35.3008C21.834 35.3008 24.7734 33.7832 24.7734 30.0645L24.7734 6.33008C24.7734 2.33789 21.1504 0 14.9297 0C8.70898 0 5.08594 2.33789 5.08594 6.33008L5.08594 30.0645C5.08594 33.7832 8.02539 35.3008 14.9297 35.3008ZM14.9297 33.0312C9.65234 33.0312 7.36914 32.1426 7.36914 29.9551L7.36914 6.33008C7.36914 3.77344 10.1582 2.2832 14.9297 2.2832C19.7148 2.2832 22.4902 3.77344 22.4902 6.33008L22.4902 29.9551C22.4902 32.1426 20.2207 33.0312 14.9297 33.0312ZM14.9297 14.6836C16.1602 14.6836 18.2246 14.7793 18.9219 14.7793C19.9473 14.7793 20.3984 14.3828 20.4805 13.3164L20.7129 10.7461C20.8906 8.77734 19.4961 7.98438 14.9297 7.98438C10.3633 7.98438 8.98242 8.77734 9.14648 10.7461L9.37891 13.3164C9.47461 14.3828 9.91211 14.7793 10.9512 14.7793C11.6348 14.7793 13.6309 14.6836 14.9297 14.6836ZM14.9297 29.2715C19.5371 29.2715 20.9316 28.5879 20.6582 26.5781L20.4805 25.334C20.2617 23.6934 18.8945 23.1465 14.9297 23.1465C10.9785 23.1465 9.61133 23.6934 9.39258 25.334L9.21484 26.5781C8.92773 28.5879 10.3359 29.2715 14.9297 29.2715Z" fill="#ff453a"/>
 </g>
</svg>
