<?xml version="1.0" encoding="UTF-8"?>
<!--Generator: Apple Native CoreSVG 326-->
<!DOCTYPE svg
PUBLIC "-//W3C//DTD SVG 1.1//EN"
       "http://www.w3.org/Graphics/SVG/1.1/DTD/svg11.dtd">
<svg version="1.1" xmlns="http://www.w3.org/2000/svg" xmlns:xlink="http://www.w3.org/1999/xlink" viewBox="0 0 46.3901 35.2131">
 <g>
  <rect height="35.2131" opacity="0" width="46.3901" x="0" y="0"/>
  <path d="M12.6745 25.9396L13.2761 25.5978C13.0437 25.3243 12.8386 25.0509 12.6609 24.7501C11.3757 22.5079 12.114 19.7325 14.3562 18.4474C16.5984 17.1485 19.3738 17.8868 20.6589 20.129C20.8367 20.4298 20.9734 20.7579 21.0828 21.086L32.321 14.5919C32.1023 14.3321 31.8835 14.0587 31.7058 13.7442C30.4206 11.5157 31.1589 8.74034 33.4011 7.44151C35.6433 6.15636 38.4187 6.89464 39.7175 9.12315C39.8953 9.43761 40.032 9.75206 40.1277 10.0939L40.7429 9.73839C42.8484 8.52159 43.2175 6.97667 41.9324 4.74815L40.4011 2.09581C39.362 0.318466 37.8581-0.31044 35.698 0.140731L33.8933 0.523544C30.9949-0.00965921 27.2214-0.392472 23.612 1.68565L22.1628 2.53331C18.2527 4.78917 16.8171 6.12901 15.3269 8.95909L12.8523 13.6349L8.90111 16.6153C6.4265 18.4747 5.78392 21.045 7.09642 23.3146L7.79369 24.5314C9.0515 26.7189 10.5828 27.1427 12.6745 25.9396ZM18.321 25.3107C19.948 24.381 20.4812 22.3849 19.5378 20.7716C18.6218 19.1583 16.6257 18.6251 14.9988 19.5548C13.3855 20.4982 12.8523 22.4942 13.782 24.0939C14.7117 25.7208 16.7078 26.254 18.321 25.3107ZM37.3796 14.3185C38.9929 13.3888 39.5261 11.3927 38.5964 9.76573C37.6667 8.16612 35.6706 7.63292 34.0574 8.56261C32.4304 9.49229 31.8972 11.4884 32.8269 13.1017C33.7566 14.715 35.7527 15.2482 37.3796 14.3185Z" fill="white" fill-opacity="0.85"/>
  <path d="M6.15306 27.84L3.29564 22.8497C2.81713 22.0157 1.84642 22.2345 1.57299 23.0411L0.069079 27.2521C-0.135999 27.84 0.123766 28.3048 0.739001 28.4142L5.12767 29.2345C5.989 29.3985 6.64525 28.6603 6.15306 27.84ZM8.5183 34.5392C8.84642 35.086 9.51634 35.2364 10.0222 34.963L45.5007 14.4825C46.0066 14.2091 46.198 13.5255 45.8972 13.006C45.5828 12.4591 44.8992 12.295 44.3933 12.5821L8.91478 33.0626C8.42259 33.336 8.23119 34.0196 8.5183 34.5392Z" fill="white" fill-opacity="0.85"/>
 </g>
</svg>
