<?xml version="1.0" encoding="UTF-8"?>
<!--Generator: Apple Native CoreSVG 326-->
<!DOCTYPE svg
PUBLIC "-//W3C//DTD SVG 1.1//EN"
       "http://www.w3.org/Graphics/SVG/1.1/DTD/svg11.dtd">
<svg version="1.1" xmlns="http://www.w3.org/2000/svg" xmlns:xlink="http://www.w3.org/1999/xlink" viewBox="0 0 44.6387 27.3574">
 <g>
  <rect height="27.3574" opacity="0" width="44.6387" x="0" y="0"/>
  <path d="M9.17383 7.30078L9.89844 7.30078C10.3633 7.30078 10.7051 6.95898 10.7051 6.49414L10.7051 0.820312C10.7051 0.355469 10.3633 0.0136719 9.89844 0.0136719L9.17383 0.0136719C8.70898 0.0136719 8.36719 0.355469 8.36719 0.820312L8.36719 6.49414C8.36719 6.95898 8.70898 7.30078 9.17383 7.30078ZM9.17383 17.3223L9.89844 17.3223C10.3633 17.3223 10.7051 16.9805 10.7051 16.5156L10.7051 10.8555C10.7051 10.3906 10.3633 10.0488 9.89844 10.0488L9.17383 10.0488C8.70898 10.0488 8.36719 10.3906 8.36719 10.8555L8.36719 16.5156C8.36719 16.9805 8.70898 17.3223 9.17383 17.3223ZM9.17383 27.3574L9.89844 27.3574C10.3633 27.3574 10.7051 27.0156 10.7051 26.5645L10.7051 20.877C10.7051 20.4121 10.3633 20.0703 9.89844 20.0703L9.17383 20.0703C8.70898 20.0703 8.36719 20.4121 8.36719 20.877L8.36719 26.5645C8.36719 27.0156 8.70898 27.3574 9.17383 27.3574ZM34.3711 7.30078L35.1094 7.30078C35.5742 7.30078 35.916 6.95898 35.916 6.49414L35.916 0.820312C35.916 0.355469 35.5742 0.0136719 35.1094 0.0136719L34.3711 0.0136719C33.9199 0.0136719 33.5781 0.355469 33.5781 0.820312L33.5781 6.49414C33.5781 6.95898 33.9199 7.30078 34.3711 7.30078ZM34.3711 17.3223L35.1094 17.3223C35.5742 17.3223 35.916 16.9805 35.916 16.5156L35.916 10.8555C35.916 10.3906 35.5742 10.0488 35.1094 10.0488L34.3711 10.0488C33.9199 10.0488 33.5781 10.3906 33.5781 10.8555L33.5781 16.5156C33.5781 16.9805 33.9199 17.3223 34.3711 17.3223ZM34.3711 27.3574L35.1094 27.3574C35.5742 27.3574 35.916 27.0156 35.916 26.5645L35.916 20.877C35.916 20.4121 35.5742 20.0703 35.1094 20.0703L34.3711 20.0703C33.9199 20.0703 33.5781 20.4121 33.5781 20.877L33.5781 26.5645C33.5781 27.0156 33.9199 27.3574 34.3711 27.3574ZM0 16.7207C0 17.459 0.601562 17.7734 1.24414 17.377L6.09766 14.4238C6.71289 14.041 6.69922 13.3164 6.09766 12.9336L1.23047 9.95312C0.587891 9.55664 0 9.89844 0 10.623ZM44.2832 16.7207L44.2832 10.623C44.2832 9.89844 43.6953 9.57031 43.0391 9.95312L38.1855 12.9336C37.584 13.3301 37.5703 14.0273 38.1855 14.4238L43.0391 17.377C43.6953 17.7598 44.2832 17.459 44.2832 16.7207Z" fill="white" fill-opacity="0.85"/>
  <path d="M22.1211 26.0723C26.9609 26.0723 29.1348 24.9785 29.1348 22.1895L29.1348 11.1836L29.6816 11.1836C30.2969 11.1836 30.7891 10.7051 30.7754 10.1172L30.7617 9.63867C30.7344 9.03711 30.2969 8.57227 29.668 8.57227L29.1348 8.57227L29.1348 5.83789C29.1348 2.9668 26.4961 1.27148 22.1348 1.28516C17.8008 1.28516 15.1484 2.95312 15.1484 5.83789L15.1484 8.57227L14.6152 8.57227C13.9863 8.57227 13.5352 9.03711 13.5215 9.625L13.5078 10.1172C13.4941 10.7051 13.9863 11.1836 14.6016 11.1836L15.1484 11.1836L15.1484 22.1895C15.1484 24.9785 17.3086 26.0723 22.1211 26.0723ZM22.1348 11.6211C21.2051 11.6348 19.7832 11.7168 19.291 11.7031C18.498 11.7168 18.1699 11.4023 18.0879 10.5684L17.9238 8.76367C17.7871 7.27344 18.7852 6.68555 22.1484 6.68555C25.5117 6.71289 26.4824 7.27344 26.3594 8.75L26.209 10.582C26.127 11.4023 25.7578 11.7168 24.9922 11.7168C24.5137 11.7031 23.0234 11.6348 22.1348 11.6211ZM22.1348 22.0938C18.7988 22.0664 17.7188 21.5879 17.9648 20.0293L18.0879 19.1543C18.2793 17.9238 19.25 17.541 22.1484 17.5547C25.0332 17.541 26.0039 17.9102 26.1953 19.1543L26.3184 20.043C26.5508 21.5742 25.4844 22.0664 22.1348 22.0938Z" fill="white" fill-opacity="0.85"/>
 </g>
</svg>
