<?xml version="1.0" encoding="UTF-8"?>
<!--Generator: Apple Native CoreSVG 326-->
<!DOCTYPE svg
PUBLIC "-//W3C//DTD SVG 1.1//EN"
       "http://www.w3.org/Graphics/SVG/1.1/DTD/svg11.dtd">
<svg version="1.1" xmlns="http://www.w3.org/2000/svg" xmlns:xlink="http://www.w3.org/1999/xlink" viewBox="0 0 20.1547 32.2246">
 <g>
  <rect height="32.2246" opacity="0" width="20.1547" x="0" y="0"/>
  <path d="M3.26876 10.8555C3.26876 11.3887 3.69259 11.8125 4.23947 11.8125L4.97775 11.8125C5.51095 11.8125 5.92111 11.3887 5.92111 10.8555L5.92111 10.1035L15.6008 10.1035L15.6008 10.8555C15.6008 11.3887 16.011 11.8125 16.5715 11.8125L17.2961 11.8125C17.843 11.8125 18.2805 11.3887 18.2805 10.8555L18.2805 6.69922C18.2805 5.63281 18.0891 4.94922 17.4192 4.22461L16.8449 3.56836L16.1887 1.72266C15.7922 0.628906 15.0813 0.177734 14.1516 0.0957031C13.7414 0.0410156 12.3742 0 10.761 0C9.16134 0 7.79416 0.0410156 7.384 0.0957031C6.45431 0.177734 5.7297 0.628906 5.33322 1.72266L4.69064 3.56836L4.10275 4.22461C3.41916 4.97656 3.26876 5.63281 3.26876 6.69922ZM6.56369 3.56836C6.34494 3.56836 6.26291 3.43164 6.33126 3.21289L6.70041 2.06445C6.80978 1.72266 6.98751 1.51758 7.384 1.49023C7.95822 1.43555 9.134 1.4082 10.761 1.4082C12.5383 1.4082 13.7004 1.43555 14.1652 1.49023C14.507 1.53125 14.7121 1.70898 14.8352 2.06445L15.2043 3.21289C15.2727 3.43164 15.177 3.56836 14.9719 3.56836ZM5.67501 7.56055C5.26486 7.56055 4.99142 7.31445 4.99142 6.9043L4.99142 5.91992C4.99142 5.52344 5.26486 5.27734 5.67501 5.27734C6.04416 5.27734 6.33126 5.52344 6.33126 5.91992L6.33126 6.9043C6.33126 7.31445 6.04416 7.56055 5.67501 7.56055ZM9.33908 7.27344C9.01095 7.27344 8.84689 7.08203 8.84689 6.72656L8.84689 6.09766C8.84689 5.74219 9.02462 5.57812 9.33908 5.57812L12.1555 5.57812C12.4973 5.57812 12.675 5.74219 12.675 6.09766L12.675 6.72656C12.675 7.08203 12.511 7.27344 12.1555 7.27344ZM15.9289 7.56055C15.5461 7.56055 15.2727 7.31445 15.2727 6.9043L15.2727 5.91992C15.2727 5.52344 15.5461 5.27734 15.9289 5.27734C16.3254 5.27734 16.5988 5.52344 16.5988 5.91992L16.5988 6.9043C16.5988 7.31445 16.3254 7.56055 15.9289 7.56055ZM8.51876 13.7812L7.79416 13.2754C7.50705 13.0703 7.16525 12.9746 6.82345 12.9746L5.2922 12.9746C4.759 12.9746 4.55392 13.5762 4.97775 13.8633L6.42697 14.875C6.80978 15.1348 6.78244 15.3945 6.31759 15.5859L1.57345 17.541C-0.34061 18.334-0.518344 19.5508 1.09494 20.6855L1.80587 21.1914C2.09298 21.3965 2.42111 21.5059 2.80392 21.5059L4.33517 21.5059C4.86837 21.5059 5.03244 20.9043 4.63595 20.6172L3.17306 19.6191C2.80392 19.373 2.83126 19.0586 3.28244 18.8809L8.04025 16.9395C9.94064 16.1602 10.1457 14.916 8.51876 13.7812ZM18.4992 13.7949L17.7746 13.3027C17.4738 13.084 17.1457 13.002 16.7902 13.002L15.259 13.002C14.7395 13.002 14.5481 13.5898 14.9582 13.877L16.4074 14.8887C16.7766 15.1484 16.7629 15.4219 16.3117 15.5996L11.5676 17.5547C9.63986 18.3477 9.44845 19.5645 11.0617 20.6992L11.7863 21.2188C12.0871 21.4375 12.4152 21.5195 12.7844 21.5195L14.3156 21.5195C14.8352 21.5195 15.0266 20.9316 14.6164 20.6309L13.1535 19.6328C12.7844 19.3867 12.7981 19.0859 13.2629 18.9082L18.0207 16.9668C19.9211 16.1738 20.1262 14.916 18.4992 13.7949Z" fill="white" fill-opacity="0.85"/>
  <path d="M4.18478 32.2109C6.49533 32.2109 7.64376 30.5156 7.64376 28.2734C7.64376 25.9766 6.46798 24.2949 4.18478 24.2949C1.95626 24.2949 0.739468 25.9355 0.739468 28.2734C0.739468 30.4746 1.86056 32.2109 4.18478 32.2109ZM4.18478 30.7754C2.95431 30.7754 2.51681 29.4629 2.51681 28.2734C2.51681 26.9883 2.99533 25.7578 4.18478 25.7578C5.45626 25.7578 5.86642 27.0703 5.86642 28.2734C5.86642 29.5723 5.37423 30.7754 4.18478 30.7754ZM9.74923 32.1289C10.3645 32.1289 10.6242 31.7188 10.6242 31.2402L10.6242 29.1348L12.7981 29.1348C13.2492 29.1348 13.5363 28.875 13.5363 28.4375C13.5363 28 13.2629 27.7402 12.7981 27.7402L10.6242 27.7402L10.6242 25.9355L13.0168 25.9355C13.5227 25.9355 13.7961 25.6758 13.7961 25.2109C13.7961 24.7461 13.5227 24.4863 13.0168 24.4863L9.73556 24.4863C9.2297 24.4863 8.87423 24.8145 8.87423 25.3887L8.87423 31.2402C8.87423 31.7188 9.134 32.1289 9.74923 32.1289ZM15.7512 32.1289C16.3801 32.1289 16.6262 31.7188 16.6262 31.2402L16.6262 29.1348L18.8 29.1348C19.2512 29.1348 19.5383 28.875 19.5383 28.4375C19.5383 28 19.2649 27.7402 18.8 27.7402L16.6262 27.7402L16.6262 25.9355L19.0324 25.9355C19.5246 25.9355 19.7981 25.6758 19.7981 25.2109C19.7981 24.7461 19.5246 24.4863 19.0324 24.4863L15.7375 24.4863C15.2317 24.4863 14.8762 24.8145 14.8762 25.3887L14.8762 31.2402C14.8762 31.7188 15.136 32.1289 15.7512 32.1289Z" fill="white" fill-opacity="0.85"/>
 </g>
</svg>
