<?xml version="1.0" encoding="UTF-8"?>
<!--Generator: Apple Native CoreSVG 326-->
<!DOCTYPE svg
PUBLIC "-//W3C//DTD SVG 1.1//EN"
       "http://www.w3.org/Graphics/SVG/1.1/DTD/svg11.dtd">
<svg version="1.1" xmlns="http://www.w3.org/2000/svg" xmlns:xlink="http://www.w3.org/1999/xlink" viewBox="0 0 28.2461 27.9043">
 <g>
  <rect height="27.9043" opacity="0" width="28.2461" x="0" y="0"/>
  <path d="M13.9453 27.8906C21.6426 27.8906 27.8906 21.6426 27.8906 13.9453C27.8906 6.24805 21.6426 0 13.9453 0C6.24805 0 0 6.24805 0 13.9453C0 21.6426 6.24805 27.8906 13.9453 27.8906ZM13.9453 25.5664C7.51953 25.5664 2.32422 20.3711 2.32422 13.9453C2.32422 7.51953 7.51953 2.32422 13.9453 2.32422C20.3711 2.32422 25.5664 7.51953 25.5664 13.9453C25.5664 20.3711 20.3711 25.5664 13.9453 25.5664Z" fill="#0a84ff"/>
  <path d="M6.43945 18.4707C6.43945 18.9492 6.80859 19.3047 7.28711 19.3047L8.03906 19.3047C8.50391 19.3047 8.87305 18.9492 8.87305 18.4707L8.87305 17.418C10.2812 17.5 12.3184 17.5684 13.9453 17.5684C15.5723 17.5684 17.5957 17.5 19.0039 17.418L19.0039 18.4707C19.0039 18.9492 19.373 19.3047 19.8516 19.3047L20.6035 19.3047C21.0684 19.3047 21.4375 18.9492 21.4375 18.4707L21.4375 14.8203C21.4375 13.7676 21.2188 13.166 20.6309 12.4004L20.0977 11.7168C19.8516 10.5684 19.4414 9.36523 19.2363 8.90039C18.8945 8.18945 18.2383 7.7793 17.3906 7.65625C16.9668 7.60156 15.5723 7.57422 13.9453 7.57422C12.3047 7.57422 10.9238 7.60156 10.4863 7.65625C9.65234 7.76562 8.99609 8.18945 8.6543 8.90039C8.43555 9.36523 8.02539 10.5684 7.79297 11.7168L7.24609 12.4004C6.6582 13.166 6.43945 13.7676 6.43945 14.8203ZM9.40625 11.1152C9.55664 10.459 9.83008 9.625 10.0215 9.2832C10.1855 8.99609 10.3633 8.87305 10.6914 8.83203C11.1289 8.76367 12.1406 8.73633 13.9453 8.73633C15.7363 8.73633 16.748 8.75 17.1992 8.83203C17.5273 8.87305 17.6914 8.99609 17.8691 9.2832C18.0605 9.61133 18.334 10.459 18.4707 11.1152C18.5391 11.3203 18.4434 11.416 18.2109 11.4023C17.2402 11.3203 16.0645 11.2793 13.9453 11.2793C11.8125 11.2793 10.6504 11.3203 9.66602 11.4023C9.43359 11.416 9.35156 11.3203 9.40625 11.1152ZM8.35352 14.8477C8.35352 14.2598 8.80469 13.8223 9.36523 13.8223C9.93945 13.8223 10.3906 14.2598 10.3906 14.8477C10.3906 15.4219 9.93945 15.8457 9.36523 15.8457C8.80469 15.8457 8.35352 15.4219 8.35352 14.8477ZM11.5391 14.8887C11.5391 14.4512 11.8398 14.1504 12.2773 14.1504L15.6133 14.1504C16.0371 14.1504 16.3379 14.4512 16.3379 14.8887C16.3379 15.3125 16.0371 15.6133 15.6133 15.6133L12.2773 15.6133C11.8398 15.6133 11.5391 15.3125 11.5391 14.8887ZM17.5 14.8477C17.5 14.2598 17.9375 13.8223 18.5117 13.8223C19.0859 13.8223 19.5371 14.2598 19.5371 14.8477C19.5371 15.4219 19.0859 15.8457 18.5117 15.8457C17.9375 15.8457 17.5 15.4219 17.5 14.8477Z" fill="#0a84ff"/>
 </g>
</svg>
