<?xml version="1.0" encoding="UTF-8"?>
<!--Generator: Apple Native CoreSVG 326-->
<!DOCTYPE svg
PUBLIC "-//W3C//DTD SVG 1.1//EN"
       "http://www.w3.org/Graphics/SVG/1.1/DTD/svg11.dtd">
<svg version="1.1" xmlns="http://www.w3.org/2000/svg" xmlns:xlink="http://www.w3.org/1999/xlink" viewBox="0 0 49.0684 22.1895">
 <g>
  <rect height="22.1895" opacity="0" width="49.0684" x="0" y="0"/>
  <path d="M1.01172 1.96875L5.37305 1.96875C5.87891 1.96875 6.27539 2.0918 6.60352 2.41992L11.457 7.25977L13.3164 6.23438L8.20312 1.12109C7.41016 0.328125 6.37109 0 5.12695 0L1.01172 0C0.382812 0 0 0.382812 0 0.970703C0 1.55859 0.382812 1.96875 1.01172 1.96875ZM4.34766 19.1953L6.30273 19.1953L6.30273 16.9941L4.34766 16.9941C2.87109 16.9941 2.20117 16.2422 2.20117 14.6016L2.20117 12.9336C2.20117 10.9102 3.70508 9.37891 6.34375 9.06445L11.8125 8.39453C12.6328 8.28516 13.1934 8.09375 13.7676 7.75195L18.8398 4.55273C21.8613 2.66602 23.7754 2.21484 28.9434 2.21484L31.0215 2.21484C34.6035 2.21484 37.4473 3.54102 40.9746 6.63086C41.6172 7.19141 41.959 7.3418 42.7793 7.60156L44.2285 8.06641C45.7871 8.57227 46.5117 9.37891 46.5117 10.8145L46.5117 14.6016C46.5117 16.2422 45.8418 16.9941 44.3652 16.9941L42.3828 16.9941L42.3828 19.1953L44.3652 19.1953C47.3594 19.1953 48.7129 17.7734 48.7129 14.6016L48.7129 10.8145C48.7129 8.27148 47.4824 6.68555 44.8848 5.83789L42.7109 5.11328C39.9492 2.7207 36.1484 0.0136719 31.0215 0.0136719L28.9434 0.0136719C23.3652 0.0136719 21.0137 0.574219 17.6641 2.67969L12.127 6.15234L6.07031 6.89062C2.2832 7.35547 0 9.70703 0 12.9336L0 14.6836C0 17.8008 1.38086 19.1953 4.34766 19.1953ZM13.4805 19.1953L35.3965 19.1953L35.3965 16.9941L13.4805 16.9941ZM10.0625 22.1484C12.7832 22.1484 14.916 20.0156 14.916 17.2949C14.916 14.5605 12.7832 12.4277 10.0625 12.4277C7.32812 12.4277 5.19531 14.5605 5.19531 17.2949C5.19531 20.0156 7.32812 22.1484 10.0625 22.1484ZM10.0625 20.084C8.49023 20.084 7.25977 18.8535 7.25977 17.2949C7.25977 15.7227 8.49023 14.4922 10.0625 14.4922C11.6211 14.4922 12.8516 15.7227 12.8516 17.2949C12.8516 18.8535 11.6211 20.084 10.0625 20.084ZM38.6504 22.1484C41.3848 22.1484 43.5176 20.0156 43.5176 17.2949C43.5176 14.5605 41.3848 12.4277 38.6504 12.4277C35.916 12.4277 33.7832 14.5605 33.7832 17.2949C33.7832 20.0156 35.916 22.1484 38.6504 22.1484ZM38.6504 20.084C37.0918 20.084 35.8477 18.8535 35.8477 17.2949C35.8477 15.7227 37.0918 14.4922 38.6504 14.4922C40.209 14.4922 41.4531 15.7227 41.4531 17.2949C41.4531 18.8535 40.209 20.084 38.6504 20.084Z" fill="#ff453a"/>
 </g>
</svg>
