<?xml version="1.0" encoding="UTF-8"?>
<!--Generator: Apple Native CoreSVG 326-->
<!DOCTYPE svg
PUBLIC "-//W3C//DTD SVG 1.1//EN"
       "http://www.w3.org/Graphics/SVG/1.1/DTD/svg11.dtd">
<svg version="1.1" xmlns="http://www.w3.org/2000/svg" xmlns:xlink="http://www.w3.org/1999/xlink" viewBox="0 0 49.0684 33.8038">
 <g>
  <rect height="33.8038" opacity="0" width="49.0684" x="0" y="0"/>
  <path d="M4.34766 25.0025L5.20898 25.0025C5.12695 24.5787 5.07227 24.1548 5.07227 23.7173C5.07227 20.5318 7.57422 18.0298 10.7734 18.0298C13.9727 18.0298 16.4746 20.5318 16.4746 23.7173C16.4746 24.1548 16.4199 24.5787 16.3242 25.0025L32.3613 25.0025C32.2793 24.5787 32.2246 24.1548 32.2246 23.7173C32.2246 20.5318 34.7402 18.0298 37.9258 18.0298C41.125 18.0298 43.6406 20.5318 43.6406 23.7173C43.6406 24.1548 43.5859 24.5787 43.4902 25.0025L44.3652 25.0025C47.3594 25.0025 48.7129 23.5806 48.7129 20.4087L48.7129 16.6216C48.7129 14.0787 47.4824 12.4927 44.8848 11.6451L42.7109 10.9205C39.9492 8.5689 36.1484 5.82086 31.0215 5.82086L28.9434 5.82086C23.3652 5.82086 21.0137 6.3814 17.6641 8.48687L12.127 11.9595L6.07031 12.6978C2.2832 13.1627 0 15.5142 0 18.7408L0 20.4908C0 23.608 1.38086 25.0025 4.34766 25.0025ZM10.7734 27.8189C13.084 27.8189 14.8887 26.0142 14.8887 23.7173C14.8887 21.4205 13.084 19.6158 10.7734 19.6158C8.47656 19.6158 6.67188 21.4205 6.67188 23.7173C6.67188 26.0142 8.47656 27.8189 10.7734 27.8189ZM37.9258 27.8189C40.2363 27.8189 42.041 26.0142 42.041 23.7173C42.041 21.4205 40.2363 19.6158 37.9258 19.6158C35.6289 19.6158 33.8242 21.4205 33.8242 23.7173C33.8242 26.0142 35.6289 27.8189 37.9258 27.8189Z" fill="white" fill-opacity="0.85"/>
  <path d="M21.3145 27.2447C20.5762 27.2447 20.2617 27.8462 20.6582 28.4888L23.6113 33.3423C23.9805 33.9712 24.7188 33.9439 25.0879 33.3423L28.0684 28.4888C28.4648 27.8462 28.123 27.2447 27.3984 27.2447Z" fill="white" fill-opacity="0.85"/>
 </g>
</svg>
