<?xml version="1.0" encoding="UTF-8"?>
<!--Generator: Apple Native CoreSVG 326-->
<!DOCTYPE svg
PUBLIC "-//W3C//DTD SVG 1.1//EN"
       "http://www.w3.org/Graphics/SVG/1.1/DTD/svg11.dtd">
<svg version="1.1" xmlns="http://www.w3.org/2000/svg" xmlns:xlink="http://www.w3.org/1999/xlink" viewBox="0 0 39.3613 35.3145">
 <g>
  <rect height="35.3145" opacity="0" width="39.3613" x="0" y="0"/>
  <path d="M19.4961 35.3008C26.4004 35.3008 29.3398 33.7832 29.3398 30.0645L29.3398 6.33008C29.3398 2.33789 25.7168 0 19.4961 0C13.2891 0 9.65234 2.33789 9.65234 6.33008L9.65234 30.0645C9.65234 33.7832 12.6055 35.3008 19.4961 35.3008ZM19.4961 14.5605C18.1699 14.5605 16.1055 14.6562 15.3945 14.6562C14.3281 14.6562 13.877 14.2461 13.7676 13.1523L13.5488 10.5C13.3574 8.46289 14.793 7.64258 19.4961 7.64258C24.2129 7.64258 25.6484 8.46289 25.457 10.5L25.2383 13.1523C25.1289 14.2461 24.6641 14.6562 23.6113 14.6562C22.8867 14.6562 20.7676 14.5605 19.4961 14.5605ZM19.4961 29.6133C14.752 29.6133 13.3027 28.9023 13.6035 26.8242L13.7812 25.5391C14.0137 23.8574 15.4219 23.2832 19.4961 23.2832C23.584 23.2832 24.9922 23.8574 25.2246 25.5391L25.4023 26.8242C25.7031 28.9023 24.2539 29.6133 19.4961 29.6133ZM10.5957 13.7812L10.5957 10.582L8.54492 10.582C7.80664 10.582 7.24609 11.1289 7.24609 11.8398L7.24609 12.5098C7.24609 13.2207 7.80664 13.7812 8.54492 13.7812ZM28.4102 13.7812L30.4609 13.7812C31.1992 13.7812 31.7598 13.2207 31.7598 12.5098L31.7598 11.8398C31.7598 11.1289 31.1992 10.582 30.4609 10.582L28.4102 10.582Z" fill="white" fill-opacity="0.85"/>
  <path d="M0 10.7461C0 11.4844 0.587891 11.7988 1.23047 11.4023L6.08398 8.44922C6.71289 8.06641 6.69922 7.3418 6.08398 6.97266L1.23047 3.99219C0.587891 3.5957 0 3.9375 0 4.66211Z" fill="white" fill-opacity="0.85"/>
 </g>
</svg>
