<?xml version="1.0" encoding="UTF-8"?>
<!--Generator: Apple Native CoreSVG 326-->
<!DOCTYPE svg
PUBLIC "-//W3C//DTD SVG 1.1//EN"
       "http://www.w3.org/Graphics/SVG/1.1/DTD/svg11.dtd">
<svg version="1.1" xmlns="http://www.w3.org/2000/svg" xmlns:xlink="http://www.w3.org/1999/xlink" viewBox="0 0 49.0684 22.1621">
 <g>
  <rect height="22.1621" opacity="0" width="49.0684" x="0" y="0"/>
  <path d="M14.8887 17.8965C14.8887 20.1934 13.084 21.998 10.7734 21.998C8.47656 21.998 6.67188 20.1934 6.67188 17.8965C6.67188 15.5996 8.47656 13.7949 10.7734 13.7949C13.084 13.7949 14.8887 15.5996 14.8887 17.8965ZM42.041 17.8965C42.041 20.1934 40.2363 21.998 37.9258 21.998C35.6289 21.998 33.8242 20.1934 33.8242 17.8965C33.8242 15.5996 35.6289 13.7949 37.9258 13.7949C40.2363 13.7949 42.041 15.5996 42.041 17.8965ZM42.7109 5.09961L44.8848 5.82422C47.4824 6.67188 48.7129 8.25781 48.7129 10.8008L48.7129 14.5879C48.7129 17.7598 47.3594 19.1816 44.3652 19.1816L43.4902 19.1816C43.5859 18.7578 43.6406 18.334 43.6406 17.8965C43.6406 14.7109 41.125 12.209 37.9258 12.209C34.7402 12.209 32.2246 14.7109 32.2246 17.8965C32.2246 18.334 32.2793 18.7578 32.3613 19.1816L16.3242 19.1816C16.4199 18.7578 16.4746 18.334 16.4746 17.8965C16.4746 14.7109 13.9727 12.209 10.7734 12.209C7.57422 12.209 5.07227 14.7109 5.07227 17.8965C5.07227 18.334 5.12695 18.7578 5.20898 19.1816L4.34766 19.1816C1.38086 19.1816 0 17.7871 0 14.6699L0 12.9199C0 9.69336 2.2832 7.3418 6.07031 6.87695L12.127 6.13867L17.6641 2.66602C21.0137 0.560547 23.3652 0 28.9434 0L31.0215 0C36.1484 0 39.9492 2.74805 42.7109 5.09961ZM21.6836 5.31836C19.0723 5.31836 17.3223 6.95898 17.3223 9.36523C17.3223 11.7441 19.0723 13.3574 21.6699 13.3574L27.2891 13.3574L27.2891 14.6289C27.2891 15.4355 27.8633 15.709 28.5469 15.2715L31.8281 13.1113C32.3613 12.7832 32.3887 12.1133 31.8281 11.7441L28.5742 9.58398C27.8633 9.11914 27.2891 9.40625 27.2891 10.2129L27.2891 11.4434L21.6699 11.4434C20.2344 11.4434 19.291 10.6504 19.291 9.47461C19.291 8.14844 20.2617 7.24609 21.6836 7.24609L29.9141 7.24609C30.502 7.24609 30.9121 6.86328 30.9121 6.30273C30.9121 5.74219 30.502 5.31836 29.9004 5.31836Z" fill="white" fill-opacity="0.85"/>
 </g>
</svg>
