<?xml version="1.0" encoding="UTF-8"?>
<!--Generator: Apple Native CoreSVG 326-->
<!DOCTYPE svg
PUBLIC "-//W3C//DTD SVG 1.1//EN"
       "http://www.w3.org/Graphics/SVG/1.1/DTD/svg11.dtd">
<svg version="1.1" xmlns="http://www.w3.org/2000/svg" xmlns:xlink="http://www.w3.org/1999/xlink" viewBox="0 0 25.7988 22.1895">
 <g>
  <rect height="22.1895" opacity="0" width="25.7988" x="0" y="0"/>
  <path d="M25.4434 19.1953L25.4434 0.136719C22.1621 0.369141 20.207 1.08008 17.6641 2.67969L12.127 6.15234L6.07031 6.89062C2.2832 7.35547 0 9.70703 0 12.9336L0 14.6836C0 17.8008 1.38086 19.1953 4.34766 19.1953L5.20898 19.1953C5.12695 18.7715 5.07227 18.3477 5.07227 17.9102C5.07227 14.7246 7.57422 12.2227 10.7734 12.2227C13.9727 12.2227 16.4746 14.7246 16.4746 17.9102C16.4746 18.3477 16.4199 18.7715 16.3242 19.1953ZM10.7734 22.0117C13.084 22.0117 14.8887 20.207 14.8887 17.9102C14.8887 15.6133 13.084 13.8086 10.7734 13.8086C8.47656 13.8086 6.67188 15.6133 6.67188 17.9102C6.67188 20.207 8.47656 22.0117 10.7734 22.0117ZM1.01172 1.96875L5.37305 1.96875C5.87891 1.96875 6.27539 2.0918 6.60352 2.41992L11.457 7.25977L13.3164 6.23438L8.20312 1.12109C7.41016 0.328125 6.37109 0 5.12695 0L1.01172 0C0.382812 0 0 0.382812 0 0.970703C0 1.55859 0.382812 1.96875 1.01172 1.96875Z" fill="white" fill-opacity="0.85"/>
 </g>
</svg>
