<?xml version="1.0" encoding="UTF-8"?>
<!--Generator: Apple Native CoreSVG 326-->
<!DOCTYPE svg
PUBLIC "-//W3C//DTD SVG 1.1//EN"
       "http://www.w3.org/Graphics/SVG/1.1/DTD/svg11.dtd">
<svg version="1.1" xmlns="http://www.w3.org/2000/svg" xmlns:xlink="http://www.w3.org/1999/xlink" viewBox="0 0 25.1289 35.3145">
 <g>
  <rect height="35.3145" opacity="0" width="25.1289" x="0" y="0"/>
  <path d="M23.625 28.7793C24.3223 28.7793 24.7734 28.3418 24.7734 27.6309L24.7734 15.7773C24.7734 15.0664 24.3223 14.6289 23.625 14.6289C22.9277 14.6289 22.4766 15.0664 22.4766 15.791L22.4766 27.6172C22.4766 28.3418 22.9277 28.7793 23.625 28.7793ZM23.625 19.2227L23.625 17.4316L18.7988 17.4316L18.7988 19.2227ZM9.84375 35.3008C16.748 35.3008 19.6875 33.7832 19.6875 30.0645L19.6875 6.33008C19.6875 2.33789 16.0645 0 9.84375 0C3.62305 0 0 2.33789 0 6.33008L0 30.0645C0 33.7832 2.93945 35.3008 9.84375 35.3008ZM9.84375 33.0312C4.55273 33.0312 2.2832 32.1426 2.2832 29.9551L2.2832 6.33008C2.2832 3.77344 5.05859 2.2832 9.84375 2.2832C14.6152 2.2832 17.4043 3.77344 17.4043 6.33008L17.4043 29.9551C17.4043 32.1426 15.1211 33.0312 9.84375 33.0312ZM9.84375 14.6836C11.0605 14.6836 13.1387 14.7793 13.8359 14.7793C14.8613 14.7793 15.3125 14.3828 15.3945 13.3164L15.627 10.7461C15.791 8.77734 14.4102 7.98438 9.84375 7.98438C5.27734 7.98438 3.89648 8.77734 4.06055 10.7461L4.29297 13.3164C4.375 14.3828 4.82617 14.7793 5.86523 14.7793C6.54883 14.7793 8.54492 14.6836 9.84375 14.6836ZM9.84375 29.2715C14.4375 29.2715 15.8457 28.5879 15.5586 26.5781L15.3945 25.334C15.1758 23.6934 13.8086 23.1465 9.84375 23.1465C5.87891 23.1465 4.52539 23.6934 4.29297 25.334L4.12891 26.5781C3.8418 28.5879 5.25 29.2715 9.84375 29.2715Z" fill="#ff453a"/>
 </g>
</svg>
