<?xml version="1.0" encoding="UTF-8"?>
<!--Generator: Apple Native CoreSVG 326-->
<!DOCTYPE svg
PUBLIC "-//W3C//DTD SVG 1.1//EN"
       "http://www.w3.org/Graphics/SVG/1.1/DTD/svg11.dtd">
<svg version="1.1" xmlns="http://www.w3.org/2000/svg" xmlns:xlink="http://www.w3.org/1999/xlink" viewBox="0 0 25.1289 35.3145">
 <g>
  <rect height="35.3145" opacity="0" width="25.1289" x="0" y="0"/>
  <path d="M1.14844 28.7793C1.85938 28.7793 2.29688 28.3418 2.29688 27.6172L2.29688 15.791C2.29688 15.0664 1.85938 14.6289 1.14844 14.6289C0.451172 14.6289 0 15.0664 0 15.7773L0 27.6309C0 28.3418 0.451172 28.7793 1.14844 28.7793ZM1.14844 19.2227L5.97461 19.2227L5.97461 17.4316L1.14844 17.4316ZM14.9297 35.3008C21.834 35.3008 24.7734 33.7832 24.7734 30.0645L24.7734 6.33008C24.7734 2.33789 21.1504 0 14.9297 0C8.70898 0 5.08594 2.33789 5.08594 6.33008L5.08594 30.0645C5.08594 33.7832 8.02539 35.3008 14.9297 35.3008ZM14.9297 14.5605C13.5898 14.5605 11.5391 14.6562 10.8281 14.6562C9.76172 14.6562 9.31055 14.2461 9.20117 13.1523L8.96875 10.5C8.79102 8.46289 10.2266 7.64258 14.9297 7.64258C19.6328 7.64258 21.082 8.46289 20.8906 10.5L20.6582 13.1523C20.5625 14.2461 20.0977 14.6562 19.0449 14.6562C18.3203 14.6562 16.2012 14.5605 14.9297 14.5605ZM14.9297 29.6133C10.1855 29.6133 8.73633 28.9023 9.03711 26.8242L9.21484 25.5391C9.44727 23.8574 10.8555 23.2832 14.9297 23.2832C19.0176 23.2832 20.4258 23.8574 20.6582 25.5391L20.8359 26.8242C21.123 28.9023 19.6875 29.6133 14.9297 29.6133Z" fill="#ff453a"/>
 </g>
</svg>
