<?xml version="1.0" encoding="UTF-8"?>
<!--Generator: Apple Native CoreSVG 326-->
<!DOCTYPE svg
PUBLIC "-//W3C//DTD SVG 1.1//EN"
       "http://www.w3.org/Graphics/SVG/1.1/DTD/svg11.dtd">
<svg version="1.1" xmlns="http://www.w3.org/2000/svg" xmlns:xlink="http://www.w3.org/1999/xlink" viewBox="0 0 45.1633 33.9733">
 <g>
  <rect height="33.9733" opacity="0" width="45.1633" x="0" y="0"/>
  <path d="M9.65488 11.0872L11.0357 11.8802L11.9244 10.3353L10.5572 9.54229C9.51816 8.94073 9.3541 8.14776 10.024 6.98565L10.6939 5.82354C11.5143 4.40167 13.1822 3.93682 15.1646 4.78448L19.2662 6.53448C19.8951 6.79425 20.36 6.88995 20.9068 6.87628L25.7603 6.68487C28.6314 6.58917 30.1627 7.05401 33.7994 9.14581L35.2486 9.97979C37.7643 11.429 39.2135 13.5071 40.4439 17.1165C40.6627 17.7591 40.8541 18.0052 41.3189 18.511L42.1393 19.4271C43.0279 20.4114 43.2057 21.2728 42.6314 22.2845L41.1002 24.9368C40.4303 26.0853 39.6646 26.345 38.6256 25.7435L37.2311 24.9505L36.3424 26.4954L37.7369 27.2884C39.8287 28.5052 41.36 28.054 42.6451 25.8255L44.1764 23.1732C45.2018 21.3958 44.983 19.7689 43.5201 18.1282L42.276 16.7474C41.3053 13.9446 39.733 10.513 36.1373 8.43487L34.6881 7.60089C30.7643 5.34503 28.8912 4.77081 25.692 4.89385L20.401 5.08526L15.8482 3.15753C13.0045 1.94073 10.4615 2.66534 9.14902 4.93487L8.43808 6.15167C7.18027 8.33917 7.57675 9.88409 9.65488 11.0872ZM16.067 14.7923L31.4478 23.6653L32.3365 22.1204L16.9693 13.2474ZM12.4713 15.4759C14.3853 16.5833 16.7369 15.9407 17.8443 14.0267C18.9518 12.1126 18.3228 9.76104 16.4088 8.65362C14.4947 7.5462 12.1295 8.1751 11.0221 10.0892C9.92832 12.0032 10.5572 14.3685 12.4713 15.4759ZM13.3053 14.0267C12.2115 13.3978 11.8424 12.0306 12.4713 10.9368C13.1139 9.8294 14.4811 9.47393 15.5748 10.1028C16.6686 10.7317 17.0377 12.0989 16.3951 13.1927C15.7662 14.2864 14.399 14.6556 13.3053 14.0267ZM32.5279 27.056C34.442 28.1634 36.7936 27.5208 37.901 25.6067C39.0084 23.6927 38.3795 21.3411 36.4654 20.2337C34.5514 19.1263 32.1861 19.7552 31.0924 21.6692C29.985 23.5833 30.6139 25.9485 32.5279 27.056ZM33.3619 25.6067C32.2682 24.9778 31.899 23.6107 32.5279 22.5169C33.1705 21.4095 34.5377 21.054 35.6314 21.6829C36.7252 22.3118 37.0943 23.679 36.4518 24.7728C35.8228 25.8665 34.4557 26.2357 33.3619 25.6067Z" fill="white" fill-opacity="0.85"/>
  <path d="M4.77402 6.39776L7.65879 1.4212C8.1373 0.587214 7.46738-0.151067 6.61972 0.0266669L2.21738 0.833308C1.61582 0.942683 1.34238 1.40753 1.56113 1.99542L3.05136 6.19268C3.33847 7.02667 4.2955 7.21807 4.77402 6.39776ZM0.152926 11.7982C-0.161527 12.3314 0.0298795 13.0149 0.535739 13.3021L36.0006 33.7962C36.5064 34.0833 37.19 33.9056 37.4771 33.3997C37.7916 32.8528 37.6002 32.1692 37.0943 31.8821L1.62949 11.4017C1.1373 11.1009 0.440036 11.2786 0.152926 11.7982Z" fill="white" fill-opacity="0.85"/>
 </g>
</svg>
