<?xml version="1.0" encoding="UTF-8"?>
<!--Generator: Apple Native CoreSVG 326-->
<!DOCTYPE svg
PUBLIC "-//W3C//DTD SVG 1.1//EN"
       "http://www.w3.org/Graphics/SVG/1.1/DTD/svg11.dtd">
<svg version="1.1" xmlns="http://www.w3.org/2000/svg" xmlns:xlink="http://www.w3.org/1999/xlink" viewBox="0 0 32.0195 35.3145">
 <g>
  <rect height="35.3145" opacity="0" width="32.0195" x="0" y="0"/>
  <path d="M15.832 35.3008C22.7363 35.3008 25.6758 33.7832 25.6758 30.0645L25.6758 6.33008C25.6758 2.33789 22.0527 0 15.832 0C9.625 0 5.98828 2.33789 5.98828 6.33008L5.98828 30.0645C5.98828 33.7832 8.94141 35.3008 15.832 35.3008ZM15.832 14.5605C14.4922 14.5605 12.4414 14.6562 11.7305 14.6562C10.6641 14.6562 10.2129 14.2461 10.1035 13.1523L9.88477 10.5C9.69336 8.46289 11.1289 7.64258 15.832 7.64258C20.5488 7.64258 21.9844 8.46289 21.793 10.5L21.5605 13.1523C21.4648 14.2461 21 14.6562 19.9473 14.6562C19.2227 14.6562 17.1035 14.5605 15.832 14.5605ZM15.832 29.6133C11.0879 29.6133 9.63867 28.9023 9.93945 26.8242L10.1172 25.5391C10.3496 23.8574 11.7578 23.2832 15.832 23.2832C19.9199 23.2832 21.3281 23.8574 21.5605 25.5391L21.7383 26.8242C22.0391 28.9023 20.5898 29.6133 15.832 29.6133ZM7.01367 9.5293L0.328125 16.1738C-0.109375 16.625-0.109375 17.3496 0.328125 17.8008C0.779297 18.2383 1.50391 18.252 1.95508 17.8008L7.01367 12.7422ZM7.01367 19.8652L0.328125 26.5098C-0.109375 26.9473-0.109375 27.6855 0.328125 28.1367C0.779297 28.5742 1.50391 28.5879 1.95508 28.1367L7.01367 23.0781ZM24.6504 19.8652L24.6504 23.0781L29.709 28.1367C30.1738 28.5879 30.8848 28.5742 31.3359 28.1367C31.7734 27.6855 31.7734 26.9473 31.3359 26.5098Z" fill="#ff453a"/>
 </g>
</svg>
