<?xml version="1.0" encoding="UTF-8"?>
<!--Generator: Apple Native CoreSVG 326-->
<!DOCTYPE svg
PUBLIC "-//W3C//DTD SVG 1.1//EN"
       "http://www.w3.org/Graphics/SVG/1.1/DTD/svg11.dtd">
<svg version="1.1" xmlns="http://www.w3.org/2000/svg" xmlns:xlink="http://www.w3.org/1999/xlink" viewBox="0 0 49.0684 22.1895">
 <g>
  <rect height="22.1895" opacity="0" width="49.0684" x="0" y="0"/>
  <path d="M1.01172 1.96875L5.37305 1.96875C5.87891 1.96875 6.27539 2.0918 6.60352 2.41992L11.457 7.25977L13.3164 6.23438L8.20312 1.12109C7.41016 0.328125 6.37109 0 5.12695 0L1.01172 0C0.382812 0 0 0.382812 0 0.970703C0 1.55859 0.382812 1.96875 1.01172 1.96875ZM4.34766 19.1953L5.20898 19.1953C5.12695 18.7715 5.07227 18.3477 5.07227 17.9102C5.07227 14.7246 7.57422 12.2227 10.7734 12.2227C13.9727 12.2227 16.4746 14.7246 16.4746 17.9102C16.4746 18.3477 16.4199 18.7715 16.3242 19.1953L32.3613 19.1953C32.2793 18.7715 32.2246 18.3477 32.2246 17.9102C32.2246 14.7246 34.7402 12.2227 37.9258 12.2227C41.125 12.2227 43.6406 14.7246 43.6406 17.9102C43.6406 18.3477 43.5859 18.7715 43.4902 19.1953L44.3652 19.1953C47.3594 19.1953 48.7129 17.7734 48.7129 14.6016L48.7129 10.8145C48.7129 8.27148 47.4824 6.68555 44.8848 5.83789L42.7109 5.11328C39.9492 2.76172 36.1484 0.0136719 31.0215 0.0136719L28.9434 0.0136719C23.3652 0.0136719 21.0137 0.574219 17.6641 2.67969L12.127 6.15234L6.07031 6.89062C2.2832 7.35547 0 9.70703 0 12.9336L0 14.6836C0 17.8008 1.38086 19.1953 4.34766 19.1953ZM10.7734 22.0117C13.084 22.0117 14.8887 20.207 14.8887 17.9102C14.8887 15.6133 13.084 13.8086 10.7734 13.8086C8.47656 13.8086 6.67188 15.6133 6.67188 17.9102C6.67188 20.207 8.47656 22.0117 10.7734 22.0117ZM37.9258 22.0117C40.2363 22.0117 42.041 20.207 42.041 17.9102C42.041 15.6133 40.2363 13.8086 37.9258 13.8086C35.6289 13.8086 33.8242 15.6133 33.8242 17.9102C33.8242 20.207 35.6289 22.0117 37.9258 22.0117Z" fill="#ff453a"/>
 </g>
</svg>
