<?xml version="1.0" encoding="UTF-8"?>
<!--Generator: Apple Native CoreSVG 326-->
<!DOCTYPE svg
PUBLIC "-//W3C//DTD SVG 1.1//EN"
       "http://www.w3.org/Graphics/SVG/1.1/DTD/svg11.dtd">
<svg version="1.1" xmlns="http://www.w3.org/2000/svg" xmlns:xlink="http://www.w3.org/1999/xlink" viewBox="0 0 27.9457 39.8262">
 <g>
  <rect height="39.8262" opacity="0" width="27.9457" x="0" y="0"/>
  <path d="M18.1838 26.9199C23.4475 26.9199 25.799 25.7305 25.799 22.709L25.799 4.96289C25.799 1.8457 22.9279 0 18.1838 0C13.467 0 10.5959 1.8457 10.5959 4.96289L10.5959 22.709C10.5959 25.7305 12.9338 26.9199 18.1838 26.9199ZM18.1838 24.7871C14.2736 24.7871 12.7561 24.1855 12.7561 22.6406L12.7561 4.96289C12.7561 3.18555 14.6428 2.16016 18.1838 2.16016C21.7522 2.16016 23.6525 3.18555 23.6525 4.96289L23.6525 22.6406C23.6525 24.1855 22.1213 24.7871 18.1838 24.7871ZM18.1975 11.334C19.1272 11.334 20.6858 11.416 21.1916 11.416C22.0256 11.416 22.3947 11.0742 22.4631 10.2129L22.6272 8.29883C22.7639 6.72656 21.7248 6.125 18.1975 6.125C14.6701 6.125 13.6311 6.72656 13.7678 8.29883L13.9318 10.2129C14.0002 11.0742 14.383 11.416 15.2033 11.416C15.7229 11.416 17.2131 11.334 18.1975 11.334ZM18.1975 22.3125C21.7248 22.3125 22.8459 21.793 22.5998 20.166L22.4494 19.2363C22.2443 17.9375 21.2326 17.5273 18.1975 17.5273C15.1623 17.5273 14.1506 17.9375 13.9455 19.2363L13.8088 20.166C13.549 21.793 14.6701 22.3125 18.1975 22.3125ZM11.758 10.7734L11.758 7.92969L10.008 7.92969C9.32442 7.92969 8.80489 8.43555 8.80489 9.0918L8.80489 9.61133C8.80489 10.2539 9.32442 10.7734 10.008 10.7734ZM24.6369 10.7734L26.3869 10.7734C27.0705 10.7734 27.59 10.2539 27.59 9.61133L27.59 9.0918C27.59 8.43555 27.0705 7.92969 26.3869 7.92969L24.6369 7.92969Z" fill="white" fill-opacity="0.85"/>
  <path d="M6.19356 38.7871L9.92599 35.0547C10.6233 34.3574 10.6369 33.5371 9.93966 32.8398L6.48067 29.3672C5.76974 28.6699 4.99044 28.6426 4.29317 29.3535L0.519736 33.1133C-0.150186 33.7832-0.191201 34.6309 0.506064 35.3418L3.96505 38.8008C4.66231 39.498 5.4963 39.4844 6.19356 38.7871ZM9.57052 31.6641L12.1135 31.459C12.3322 31.4453 12.5373 31.377 12.674 31.2539C12.9475 30.9805 12.9201 30.5977 12.633 30.3105L8.9963 26.6738C8.70919 26.3867 8.34005 26.373 8.06661 26.6465C7.92989 26.7695 7.86153 26.9883 7.84786 27.1934L7.64278 29.75Z" fill="white" fill-opacity="0.85"/>
 </g>
</svg>
