<?xml version="1.0" encoding="UTF-8"?>
<!--Generator: Apple Native CoreSVG 326-->
<!DOCTYPE svg
PUBLIC "-//W3C//DTD SVG 1.1//EN"
       "http://www.w3.org/Graphics/SVG/1.1/DTD/svg11.dtd">
<svg version="1.1" xmlns="http://www.w3.org/2000/svg" xmlns:xlink="http://www.w3.org/1999/xlink" viewBox="0 0 43.9143 33.9857">
 <g>
  <rect height="33.9857" opacity="0" width="43.9143" x="0" y="0"/>
  <path d="M4.27943 33.2555C4.59388 33.8024 5.27747 33.9665 5.76966 33.693L41.2618 13.2126C41.754 12.9118 41.9454 12.2419 41.6583 11.736C41.3439 11.1891 40.6466 11.0114 40.1544 11.2985L4.67591 31.779C4.17005 32.0661 3.97865 32.7497 4.27943 33.2555ZM6.24818 25.9411L6.84974 25.5856C6.61732 25.3259 6.41224 25.0524 6.23451 24.738C4.94935 22.5095 5.68763 19.7341 7.92982 18.4352C10.172 17.1501 12.9474 17.8884 14.2326 20.1169C14.4103 20.4313 14.547 20.7458 14.6564 21.0876L25.8947 14.5934C25.6759 14.3337 25.4572 14.0466 25.2794 13.7458C23.9943 11.5036 24.7326 8.7282 26.9747 7.44305C29.2169 6.14422 31.9923 6.8825 33.2775 9.12469C33.4689 9.42547 33.5919 9.7536 33.7013 10.0817L34.3165 9.72625C36.422 8.50945 36.7911 6.96453 35.506 4.74969L33.9747 2.08367C32.9357 0.30633 31.4318-0.308905 29.2716 0.142267L27.4533 0.52508C24.5685-0.00812359 20.7951-0.390936 17.1857 1.68719L15.7365 2.52117C11.8263 4.77703 10.3908 6.13055 8.90052 8.96063L6.42591 13.6364L2.46107 16.6169C0.000131159 18.4763-0.642447 21.0329 0.656381 23.3024L1.36732 24.5329C2.62513 26.7204 4.15638 27.1442 6.24818 25.9411ZM11.8947 25.3122C13.5216 24.3825 14.0548 22.3864 13.1115 20.7595C12.1818 19.1598 10.1993 18.6266 8.5724 19.5563C6.95912 20.486 6.42591 22.4821 7.3556 24.0954C8.28529 25.7087 10.2814 26.2419 11.8947 25.3122ZM30.9533 14.3063C32.5665 13.3766 33.0997 11.3805 32.1701 9.76727C31.2404 8.15399 29.2443 7.62078 27.631 8.56414C26.004 9.49383 25.4708 11.4899 26.4005 13.0895C27.3302 14.7165 29.3263 15.2497 30.9533 14.3063Z" fill="white" fill-opacity="0.85"/>
  <path d="M26.6466 33.8708C27.1251 33.8708 27.4396 33.57 27.4396 33.0778L27.4396 30.1247L29.5451 30.1247L29.5451 33.0778C29.5451 33.57 29.8458 33.8708 30.338 33.8708C30.8165 33.8708 31.131 33.57 31.131 33.0778L31.131 25.9821C31.131 25.5036 30.8165 25.2028 30.338 25.2028C29.8458 25.2028 29.5451 25.5036 29.5451 25.9821L29.5451 28.8122L27.4396 28.8122L27.4396 25.9821C27.4396 25.5036 27.1251 25.2028 26.6466 25.2028C26.1818 25.2028 25.881 25.5036 25.881 25.9821L25.881 33.0778C25.881 33.57 26.1818 33.8708 26.6466 33.8708ZM33.0587 33.8708L34.5763 33.8708C36.8048 33.8708 37.5568 31.7243 37.5568 29.5095C37.5568 27.0895 36.6954 25.2028 34.5763 25.2028L33.0587 25.2028C32.5939 25.2028 32.2658 25.4626 32.2658 26.0231L32.2658 33.0505C32.2658 33.611 32.5939 33.8708 33.0587 33.8708ZM33.8107 32.5583L33.8107 26.5153L34.3849 26.5153C35.7111 26.5153 35.9572 28.1833 35.9572 29.5095C35.9572 30.863 35.7521 32.5583 34.3849 32.5583ZM41.1525 33.9391C42.0275 33.9391 42.6564 33.529 43.0665 32.8864C43.34 32.4763 43.5587 31.8473 43.5587 31.3825C43.5587 30.945 43.2579 30.6716 42.8204 30.6716C42.4786 30.6716 42.2052 30.9177 42.1232 31.3005C41.9728 32.0934 41.7267 32.572 41.1115 32.572C40.3595 32.572 39.922 31.5055 39.922 29.5368C39.922 27.5407 40.4279 26.4743 41.1115 26.4743C41.672 26.4743 42.0001 27.0348 42.0958 27.7458C42.1642 28.1696 42.4513 28.4157 42.8615 28.4157C43.2716 28.4157 43.5177 28.1286 43.5177 27.6911C43.5177 27.1716 43.2716 26.4196 42.8068 25.9001C42.3829 25.4079 41.7677 25.1208 41.0978 25.1208C39.9083 25.1208 39.1837 25.8864 38.8009 26.7751C38.4181 27.6227 38.3224 28.5798 38.3224 29.5368C38.3224 30.6305 38.4318 31.697 38.924 32.5993C39.4161 33.488 40.1544 33.9391 41.1525 33.9391Z" fill="white" fill-opacity="0.85"/>
 </g>
</svg>
