<?xml version="1.0" encoding="UTF-8"?>
<!--Generator: Apple Native CoreSVG 326-->
<!DOCTYPE svg
PUBLIC "-//W3C//DTD SVG 1.1//EN"
       "http://www.w3.org/Graphics/SVG/1.1/DTD/svg11.dtd">
<svg version="1.1" xmlns="http://www.w3.org/2000/svg" xmlns:xlink="http://www.w3.org/1999/xlink" viewBox="0 0 32.0469 36.1621">
 <g>
  <rect height="36.1621" opacity="0" width="32.0469" x="0" y="0"/>
  <path d="M13.1934 36.1621L13.1934 29.3535C13.1934 26.9199 10.9648 25.498 7.28711 25.498C3.63672 25.498 1.39453 26.9199 1.39453 29.3535L1.39453 36.1621ZM7.28711 34.2344C6.5625 34.2344 5.31836 34.2891 4.89453 34.2891C4.23828 34.2891 3.9375 34.0156 3.88281 33.3184L3.74609 31.8008C3.63672 30.5293 4.4707 30.0371 7.28711 30.0371C10.1309 30.0371 10.9512 30.5293 10.8418 31.8008L10.7188 33.3184C10.6504 34.0156 10.3496 34.2891 9.67969 34.2891C9.26953 34.2891 8.08008 34.2344 7.28711 34.2344ZM12.2637 33.8652L13.6309 33.8652C14.1641 33.8652 14.5742 33.4551 14.5742 32.9492L14.5742 32.5527C14.5742 32.0332 14.1641 31.623 13.6309 31.623L12.2637 31.623ZM2.32422 33.8652L2.32422 31.623L0.957031 31.623C0.423828 31.623 0 32.0332 0 32.5527L0 32.9492C0 33.4551 0.423828 33.8652 0.957031 33.8652Z" fill="white" fill-opacity="0.85"/>
  <path d="M13.6309 24.8145C15.2715 26.4414 17.3359 27.4668 19.5645 27.4668C20.125 27.4668 20.4941 27.1113 20.4941 26.6055C20.4941 26.1406 20.1387 25.8398 19.5234 25.7852C17.7871 25.6895 16.1055 24.9648 14.7793 23.666C13.4668 22.3398 12.7559 20.6582 12.6465 18.9082C12.5918 18.2383 12.3047 17.9648 11.7715 17.9648C11.3613 17.9648 10.9512 18.2656 10.9922 18.8672C11.1289 21.1094 12.0039 23.1738 13.6309 24.8145Z" fill="white" fill-opacity="0.85"/>
  <path d="M16.2559 22.1758C17.3496 23.2695 18.8398 23.8164 19.7559 23.8164C20.2617 23.8164 20.6035 23.4746 20.6035 23.0098C20.6035 22.5723 20.2891 22.2305 19.6328 22.1484C18.8262 22.0527 18.0742 21.6836 17.4043 21.041C16.7754 20.3711 16.4062 19.6055 16.2832 18.7031C16.1875 18.1152 15.9551 17.8555 15.4219 17.8555C14.957 17.8418 14.5742 18.2246 14.6426 18.8125C14.7793 20.0977 15.3262 21.2461 16.2559 22.1758Z" fill="white" fill-opacity="0.85"/>
  <path d="M24.4043 20.877C28.4922 20.877 30.3105 19.9473 30.3105 17.5957L30.3105 3.86914C30.3105 1.43555 28.082 0.0136719 24.4043 0.0136719C20.7402 0.0136719 18.5117 1.43555 18.5117 3.86914L18.5117 17.5957C18.5117 19.9473 20.3301 20.877 24.4043 20.877ZM24.4043 8.73633C23.666 8.73633 22.4219 8.81836 22.0117 8.81836C21.3418 8.81836 21.0273 8.53125 20.9727 7.83398L20.8633 6.31641C20.7402 5.04492 21.5742 4.55273 24.4043 4.55273C27.2344 4.55273 28.0684 5.04492 27.959 6.31641L27.8223 7.83398C27.7539 8.53125 27.4531 8.81836 26.7969 8.81836C26.373 8.81836 25.1973 8.73633 24.4043 8.73633ZM24.4043 17.5C21.5879 17.5 20.6992 17.0898 20.877 15.7773L20.9863 15.0254C21.1367 13.9727 21.9844 13.6445 24.4043 13.6445C26.8379 13.6445 27.6445 13.9727 27.8086 15.0254L27.918 15.7773C28.1367 17.0898 27.2344 17.5 24.4043 17.5ZM29.3672 8.38086L30.7344 8.38086C31.2812 8.38086 31.6914 7.9707 31.6914 7.46484L31.6914 7.06836C31.6914 6.54883 31.2812 6.13867 30.7344 6.13867L29.3672 6.13867ZM19.4414 8.38086L19.4414 6.13867L18.0605 6.13867C17.541 6.13867 17.1172 6.54883 17.1172 7.06836L17.1172 7.46484C17.1172 7.9707 17.541 8.38086 18.0605 8.38086Z" fill="white" fill-opacity="0.85"/>
 </g>
</svg>
