<?xml version="1.0" encoding="UTF-8"?>
<!--Generator: Apple Native CoreSVG 326-->
<!DOCTYPE svg
PUBLIC "-//W3C//DTD SVG 1.1//EN"
       "http://www.w3.org/Graphics/SVG/1.1/DTD/svg11.dtd">
<svg version="1.1" xmlns="http://www.w3.org/2000/svg" xmlns:xlink="http://www.w3.org/1999/xlink" viewBox="0 0 32.0195 35.3145">
 <g>
  <rect height="35.3145" opacity="0" width="32.0195" x="0" y="0"/>
  <path d="M7.01367 9.5293L0.328125 16.1738C-0.109375 16.625-0.109375 17.3496 0.328125 17.8008C0.779297 18.2383 1.50391 18.252 1.95508 17.8008L7.01367 12.7422ZM15.832 35.3008C22.7363 35.3008 25.6758 33.7832 25.6758 30.0645L25.6758 6.33008C25.6758 2.33789 22.0527 0 15.832 0C9.625 0 5.98828 2.33789 5.98828 6.33008L5.98828 30.0645C5.98828 33.7832 8.94141 35.3008 15.832 35.3008ZM15.832 33.0312C10.5547 33.0312 8.27148 32.1426 8.27148 29.9551L8.27148 6.33008C8.27148 3.77344 11.0605 2.2832 15.832 2.2832C20.6172 2.2832 23.3926 3.77344 23.3926 6.33008L23.3926 29.9551C23.3926 32.1426 21.123 33.0312 15.832 33.0312ZM15.8457 14.6836C17.0625 14.6836 19.1406 14.7793 19.8242 14.7793C20.8633 14.7793 21.3008 14.3828 21.3965 13.3164L21.6152 10.7461C21.793 8.77734 20.4121 7.98438 15.8457 7.98438C11.2656 7.98438 9.88477 8.77734 10.0625 10.7461L10.2812 13.3164C10.377 14.3828 10.8281 14.7793 11.8535 14.7793C12.5508 14.7793 14.5469 14.6836 15.8457 14.6836ZM15.8457 29.2715C20.4395 29.2715 21.8477 28.5879 21.5605 26.5781L21.3828 25.334C21.1641 23.6934 19.7969 23.1465 15.8457 23.1465C11.8809 23.1465 10.5137 23.6934 10.2949 25.334L10.1172 26.5781C9.83008 28.5879 11.2383 29.2715 15.8457 29.2715Z" fill="#ff453a"/>
 </g>
</svg>
