<?xml version="1.0" encoding="UTF-8"?>
<!--Generator: Apple Native CoreSVG 326-->
<!DOCTYPE svg
PUBLIC "-//W3C//DTD SVG 1.1//EN"
       "http://www.w3.org/Graphics/SVG/1.1/DTD/svg11.dtd">
<svg version="1.1" xmlns="http://www.w3.org/2000/svg" xmlns:xlink="http://www.w3.org/1999/xlink" viewBox="0 0 31.6094 22.1621">
 <g>
  <rect height="22.1621" opacity="0" width="31.6094" x="0" y="0"/>
  <path d="M13.5352 21.998C15.8457 21.998 17.6504 20.1934 17.6504 17.8965C17.6504 15.5996 15.8457 13.7949 13.5352 13.7949C11.2383 13.7949 9.43359 15.5996 9.43359 17.8965C9.43359 20.1934 11.2383 21.998 13.5352 21.998ZM0 0.21875L0 19.1816L7.9707 19.1816C7.88867 18.7578 7.83398 18.334 7.83398 17.8965C7.83398 14.7109 10.3496 12.209 13.5352 12.209C16.7344 12.209 19.2363 14.7109 19.2363 17.8965C19.2363 18.334 19.1953 18.7578 19.0859 19.1816L19.9746 19.1816C22.9688 19.1816 24.3086 17.7598 24.3086 14.5879L24.3086 10.8008C24.3086 8.25781 23.0918 6.67188 20.4941 5.82422L18.3203 5.09961C15.5586 2.74805 11.7578 0 6.63086 0L4.55273 0C2.74805 0 1.27148 0.0546875 0 0.21875ZM22.668 16.4336L22.5176 18.1289L30.4336 18.1289C30.8848 18.1289 31.2539 17.7324 31.2539 17.2812C31.2539 16.8164 30.8848 16.4336 30.4336 16.4336ZM27.084 14.8613L29.3809 14.8613C29.5039 14.8613 29.6406 14.8066 29.7773 14.7383C30.3789 14.2324 30.7891 13.5078 30.7891 12.6738C30.7891 11.293 29.6406 10.1309 28.2324 10.1309C26.8242 10.1309 25.6621 11.293 25.6621 12.6738C25.6621 13.5078 26.0859 14.2324 26.6875 14.7383C26.8105 14.8066 26.9473 14.8613 27.084 14.8613ZM28.2324 20.0293C28.7246 20.0293 29.1074 19.6328 29.1074 19.1406L29.1074 14.7656L27.3301 14.7656L27.3301 19.1406C27.3301 19.6328 27.7266 20.0293 28.2324 20.0293Z" fill="white" fill-opacity="0.85"/>
 </g>
</svg>
