<svg version="1.1" xmlns="http://www.w3.org/2000/svg" xmlns:xlink="http://www.w3.org/1999/xlink" viewBox="0 0 51.8848 38.9512">
 <g>
  
  <path d="M5.27734 31.7324C5.71484 31.2402 5.57812 30.5977 5.08594 30.0371C3.25391 28 2.22852 25.334 2.22852 22.3809C2.22852 19.4414 3.25391 16.7617 5.08594 14.7246C5.57812 14.1641 5.71484 13.5352 5.27734 13.0293C4.83984 12.5234 4.07422 12.5234 3.55469 13.1113C1.28516 15.5723 0 18.8398 0 22.3809C0 25.9219 1.28516 29.2031 3.55469 31.6641C4.07422 32.2383 4.83984 32.252 5.27734 31.7324ZM46.252 31.7324C46.7031 32.252 47.4551 32.2383 47.9883 31.6641C50.2578 29.2031 51.5293 25.9219 51.5293 22.3809C51.5293 18.8398 50.2578 15.5723 47.9883 13.1113C47.4551 12.5234 46.7031 12.5234 46.252 13.0293C45.8145 13.5352 45.9512 14.1641 46.4434 14.7246C48.2891 16.7617 49.3008 19.4414 49.3008 22.3809C49.3008 25.334 48.2891 28 46.4434 30.0371C45.9512 30.5977 45.8145 31.2402 46.252 31.7324ZM25.7715 2.22852C28.7109 2.22852 31.377 3.25391 33.4277 5.08594C33.9883 5.57812 34.6172 5.71484 35.123 5.27734C35.6289 4.83984 35.6289 4.07422 35.0547 3.54102C32.5801 1.27148 29.3125 0 25.7715 0C22.2305 0 18.9492 1.27148 16.4883 3.54102C15.9004 4.07422 15.9004 4.83984 16.4199 5.27734C16.9121 5.71484 17.541 5.57812 18.1152 5.08594C20.1523 3.25391 22.8184 2.22852 25.7715 2.22852Z" style="fill:var(--color-0,hsl(0 0 0/0.85))"></path>
  <path d="M9.10547 27.8359C9.54297 27.3438 9.36523 26.7422 8.92773 26.1406C8.10742 25.1289 7.71094 23.8027 7.71094 22.3809C7.71094 20.959 8.10742 19.6465 8.92773 18.6211C9.36523 18.0332 9.54297 17.418 9.10547 16.9258C8.6543 16.4199 7.83398 16.4062 7.35547 17.0215C6.16602 18.498 5.48242 20.3711 5.48242 22.3809C5.48242 24.3906 6.16602 26.2637 7.35547 27.7402C7.83398 28.3691 8.6543 28.3555 9.10547 27.8359ZM42.4238 27.8359C42.875 28.3555 43.6953 28.3691 44.1875 27.7402C45.377 26.2637 46.0605 24.3906 46.0605 22.3809C46.0605 20.3711 45.377 18.498 44.1875 17.0215C43.6953 16.4062 42.875 16.4199 42.4238 16.9258C41.9863 17.418 42.1777 18.0332 42.6016 18.6211C43.4219 19.6465 43.832 20.959 43.832 22.3809C43.832 23.8027 43.4219 25.1289 42.6016 26.1406C42.1777 26.7422 41.9863 27.3438 42.4238 27.8359ZM25.7852 7.69727C27.207 7.69727 28.5332 8.10742 29.5449 8.92773C30.1465 9.36523 30.748 9.54297 31.2402 9.10547C31.7598 8.6543 31.7734 7.83398 31.1445 7.35547C29.668 6.16602 27.7949 5.46875 25.7852 5.46875C23.7754 5.46875 21.9023 6.16602 20.4258 7.35547C19.8105 7.83398 19.8242 8.6543 20.3301 9.10547C20.8223 9.54297 21.4375 9.35156 22.0254 8.92773C23.0781 8.13477 24.3633 7.69727 25.7852 7.69727Z" style="fill:var(--color-1,hsl(0 0 0/0.85))"></path>
  <path d="M25.8125 29.627C28.6016 29.627 32.1289 29.5312 34.6309 29.3809L34.6309 31.3086C34.6309 32.1426 35.2734 32.7715 36.1074 32.7715L37.6523 32.7715C38.5 32.7715 39.1426 32.1426 39.1426 31.3086L39.1426 24.7871C39.1426 22.9004 38.7598 21.8477 37.7207 20.5078L36.7773 19.291C36.3672 17.2812 35.6289 15.1621 35.2461 14.3418C34.6445 13.0703 33.4824 12.3047 31.9922 12.127C31.2539 12.0312 28.7109 11.9766 25.8125 11.9766C22.9141 11.9766 20.3711 12.0312 19.6328 12.127C18.1426 12.3047 16.9941 13.0703 16.3789 14.3418C15.9961 15.1621 15.2578 17.2812 14.8477 19.291L13.9043 20.5078C12.8652 21.8477 12.4824 22.9004 12.4824 24.7871L12.4824 31.3086C12.4824 32.1426 13.1387 32.7715 13.9727 32.7715L15.5176 32.7715C16.3652 32.7715 16.9941 32.1426 16.9941 31.3086L16.9941 29.3809C19.4961 29.5312 23.0234 29.627 25.8125 29.627ZM17.1992 18.3613C17.459 17.1309 18.0059 15.5449 18.375 14.8887C18.6758 14.3555 19.0039 14.1367 19.6055 14.0547C20.4531 13.9453 22.3535 13.8633 25.8125 13.8633C29.2715 13.8633 31.1719 13.918 32.0332 14.0547C32.6211 14.1367 32.9492 14.3555 33.25 14.8887C33.6328 15.5312 34.1387 17.1309 34.4258 18.3613C34.5352 18.7715 34.3574 18.9355 33.9336 18.9082C32.0742 18.7852 29.8594 18.6621 25.8125 18.6621C21.7656 18.6621 19.5645 18.7852 17.7051 18.9082C17.2676 18.9355 17.1035 18.7715 17.1992 18.3613ZM17.7598 26.6191C16.7344 26.6191 15.9551 25.8398 15.9551 24.8145C15.9551 23.7891 16.7344 23.0234 17.7598 23.0234C18.7715 23.0234 19.5371 23.7891 19.5371 24.8145C19.5371 25.8398 18.7715 26.6191 17.7598 26.6191ZM22.8594 26.168C22.0938 26.168 21.5605 25.6484 21.5605 24.8828C21.5605 24.1035 22.0938 23.584 22.8594 23.584L28.7656 23.584C29.5312 23.584 30.0781 24.1035 30.0781 24.8828C30.0781 25.6484 29.5312 26.168 28.7656 26.168ZM33.8789 26.6191C32.8535 26.6191 32.0879 25.8398 32.0879 24.8145C32.0879 23.7891 32.8535 23.0234 33.8789 23.0234C34.9043 23.0234 35.6836 23.7891 35.6836 24.8145C35.6836 25.8398 34.9043 26.6191 33.8789 26.6191Z" style="fill:var(--color-2,hsl(0 0 0/0.85))"></path>
 </g>
</svg>