<svg version="1.1" xmlns="http://www.w3.org/2000/svg" xmlns:xlink="http://www.w3.org/1999/xlink" viewBox="0 0 49.0684 37.8574">
 <g>
  
  <path d="M42.7109 12.9473L44.8848 13.6719C47.4824 14.5195 48.7129 16.1055 48.7129 18.6484L48.7129 22.4355C48.7129 25.6074 47.3594 27.0293 44.3652 27.0293L43.1437 27.0293C42.4172 28.7801 40.7034 29.9824 38.6504 29.9824C36.5974 29.9824 34.8835 28.7801 34.1571 27.0293L14.5423 27.0293C13.8165 28.7801 12.1052 29.9824 10.0625 29.9824C8.00952 29.9824 6.29564 28.7801 5.56921 27.0293L4.34766 27.0293C1.38086 27.0293 0 25.6348 0 22.5176L0 20.7676C0 17.541 2.2832 15.1895 6.07031 14.7246L12.127 13.9863L17.6641 10.5137C19.2505 9.5165 20.613 8.86587 22.2033 8.46029L22.2707 10.7344C21.1134 11.09 20.0681 11.6197 18.8398 12.3867L13.7676 15.5859C13.1934 15.9277 12.6328 16.1191 11.8125 16.2285L6.34375 16.8984C3.70508 17.2129 2.20117 18.7441 2.20117 20.7676L2.20117 22.4355C2.20117 24.0762 2.87109 24.8281 4.34766 24.8281L5.20997 24.8281C5.35485 22.2388 7.42986 20.2617 10.0625 20.2617C12.682 20.2617 14.7565 22.2388 14.9014 24.8281L33.7979 24.8281C33.9427 22.2388 36.0177 20.2617 38.6504 20.2617C41.283 20.2617 43.358 22.2388 43.5029 24.8281L44.3652 24.8281C45.8418 24.8281 46.5117 24.0762 46.5117 22.4355L46.5117 18.6484C46.5117 17.2129 45.7871 16.4062 44.2285 15.9004L42.7793 15.4355C41.959 15.1758 41.6172 15.0254 40.9746 14.4648C37.4473 11.375 34.6035 10.0488 31.0215 10.0488L28.9434 10.0488C28.7881 10.0488 28.6357 10.0492 28.4953 10.0515L28.5574 7.85026C28.6785 7.84798 28.81 7.84766 28.9434 7.84766L31.0215 7.84766C36.1484 7.84766 39.9492 10.5547 42.7109 12.9473ZM7.25977 25.1289C7.25977 26.6875 8.49023 27.918 10.0625 27.918C11.6211 27.918 12.8516 26.6875 12.8516 25.1289C12.8516 23.5566 11.6211 22.3262 10.0625 22.3262C8.49023 22.3262 7.25977 23.5566 7.25977 25.1289ZM35.8477 25.1289C35.8477 26.6875 37.0918 27.918 38.6504 27.918C40.209 27.918 41.4531 26.6875 41.4531 25.1289C41.4531 23.5566 40.209 22.3262 38.6504 22.3262C37.0918 22.3262 35.8477 23.5566 35.8477 25.1289Z" style="fill:var(--color-0,#ff3b30)"></path>
  <path d="M25.375 20.248C26.3457 20.248 27.166 19.4414 27.166 18.5117C27.166 17.5684 26.3594 16.7891 25.375 16.7891C24.377 16.7891 23.5703 17.5684 23.5703 18.5117C23.5703 19.4414 24.3906 20.248 25.375 20.248ZM25.375 14.1777C26.0449 14.1777 26.5098 13.6992 26.5371 13.002L26.8242 3.32227C26.8516 2.44727 26.2637 1.87305 25.375 1.87305C24.4727 1.87305 23.8848 2.44727 23.9121 3.32227L24.1992 13.002C24.2266 13.6992 24.7051 14.1777 25.375 14.1777Z" style="fill:var(--color-1,#ff3b30)"></path>
 </g>
</svg>