<svg version="1.1" xmlns="http://www.w3.org/2000/svg" xmlns:xlink="http://www.w3.org/1999/xlink" viewBox="0 0 19.1406 37.0371">
 <g>
  
  <path d="M9.39258 34.9727C6.98633 34.9727 4.78516 34.084 3.10352 32.5801C2.51562 32.0742 1.90039 32.0332 1.50391 32.4297C1.03906 32.8809 1.06641 33.5371 1.55859 34.043C3.5957 36.0801 6.42578 37.0234 9.39258 37.0234C12.373 37.0234 15.2031 36.0801 17.2402 34.043C17.7188 33.5371 17.7461 32.8809 17.2949 32.4297C16.8848 32.0332 16.2695 32.0742 15.6816 32.5801C14 34.084 11.8125 34.9727 9.39258 34.9727Z" style="fill:var(--color-0,hsl(0 0 0/0.85))"></path>
  <path d="M9.39258 30.1738C8.20312 30.1738 7.15039 29.8047 6.33008 29.1348C5.63281 28.6426 5.05859 28.6699 4.67578 29.0664C4.25195 29.4766 4.2793 30.0781 4.7168 30.543C5.56445 31.3633 7.41016 32.2246 9.39258 32.2246C11.3887 32.2246 13.2344 31.3633 14.0684 30.543C14.5059 30.0781 14.5332 29.4766 14.1094 29.0664C13.7266 28.6699 13.1523 28.6426 12.4551 29.1348C11.6484 29.8047 10.5957 30.1738 9.39258 30.1738Z" style="fill:var(--color-1,hsl(0 0 0/0.85))"></path>
  <path d="M9.39258 26.9199C14.6426 26.9199 17.0078 25.7305 17.0078 22.709L17.0078 4.96289C17.0078 1.8457 14.123 0 9.39258 0C4.66211 0 1.79102 1.8457 1.79102 4.96289L1.79102 22.709C1.79102 25.7305 4.14258 26.9199 9.39258 26.9199ZM2.95312 10.7734L2.95312 7.92969L1.20312 7.92969C0.533203 7.92969 0 8.43555 0 9.0918L0 9.61133C0 10.2539 0.533203 10.7734 1.20312 10.7734ZM15.832 10.7734L17.582 10.7734C18.2656 10.7734 18.7852 10.2539 18.7852 9.61133L18.7852 9.0918C18.7852 8.43555 18.2656 7.92969 17.582 7.92969L15.832 7.92969ZM9.39258 11.252C8.43555 11.252 6.84961 11.334 6.30273 11.334C5.46875 11.334 5.08594 10.9785 5.00391 10.0898L4.82617 8.12109C4.68945 6.49414 5.75586 5.87891 9.39258 5.87891C13.0293 5.87891 14.1094 6.49414 13.9727 8.12109L13.7949 10.0898C13.7129 10.9785 13.3438 11.334 12.4824 11.334C11.9492 11.334 10.418 11.252 9.39258 11.252ZM9.39258 22.5586C5.75586 22.5586 4.62109 22.0254 4.86719 20.3438L5.01758 19.3867C5.22266 18.0469 6.26172 17.623 9.39258 17.623C12.5371 17.623 13.5625 18.0469 13.7812 19.3867L13.9316 20.3438C14.1914 22.0254 13.0293 22.5586 9.39258 22.5586Z" style="fill:var(--color-2,hsl(0 0 0/0.85))"></path>
 </g>
</svg>