<svg version="1.1" xmlns="http://www.w3.org/2000/svg" xmlns:xlink="http://www.w3.org/1999/xlink" viewBox="0 0 37.6797 30.6387">
 <g>
  
  <path d="M37.3242 13.9043L37.3242 11.6211C36.75 11.9082 36.1621 12.2227 35.5605 12.6055L30.5703 15.75L25.1016 16.4336C21.6836 16.8438 19.6191 18.9629 19.6191 21.875L19.6191 23.4473C19.6191 26.2637 20.8633 27.5215 23.5566 27.5215L25.3066 27.5215L25.3066 25.5391L23.5566 25.5391C22.2168 25.5391 21.6016 24.8691 21.6016 23.3652L21.6016 21.875C21.6016 20.043 22.9688 18.6758 25.3477 18.375L30.2832 17.7734C31.0352 17.6914 31.5273 17.5137 32.0469 17.1992L36.627 14.3145C36.8594 14.1641 37.0918 14.0273 37.3242 13.9043ZM37.3242 27.5215L37.3242 25.5391L31.8008 25.5391L31.8008 27.5215ZM28.6973 30.2012C31.1582 30.2012 33.0859 28.2734 33.0859 25.8125C33.0859 23.3516 31.1582 21.4238 28.6973 21.4238C26.2363 21.4238 24.3223 23.3516 24.3223 25.8125C24.3223 28.2734 26.2363 30.2012 28.6973 30.2012ZM28.6973 28.3281C27.3027 28.3281 26.1816 27.2207 26.1816 25.8125C26.1816 24.3906 27.3027 23.2832 28.6973 23.2832C30.1191 23.2832 31.2402 24.3906 31.2402 25.8125C31.2402 27.2207 30.1191 28.3281 28.6973 28.3281ZM7.60156 30.2012C10.0625 30.2012 11.9766 28.2734 11.9766 25.8125C11.9766 23.3516 10.0625 21.4238 7.60156 21.4238C5.12695 21.4238 3.19922 23.3516 3.19922 25.8125C3.19922 28.2734 5.12695 30.2012 7.60156 30.2012ZM7.60156 28.3281C6.17969 28.3281 5.05859 27.2207 5.05859 25.8125C5.05859 24.3906 6.17969 23.2832 7.60156 23.2832C8.99609 23.2832 10.1172 24.3906 10.1172 25.8125C10.1172 27.2207 8.99609 28.3281 7.60156 28.3281ZM0 25.5391L0 27.5215L4.66211 27.5215L4.66211 25.5391ZM10.9648 27.5215L12.7422 27.5215C15.4629 27.5215 16.666 26.25 16.666 23.3652L16.666 19.9609C16.666 17.6641 15.5586 16.2148 13.2207 15.4629L11.2656 14.834C8.70898 12.6328 5.35938 10.2266 0.943359 10.2266L0 10.2266L0 12.2227L0.943359 12.2227C4.06055 12.2227 6.57617 13.4531 9.69336 16.1875C10.2812 16.6934 10.582 16.8301 11.3203 17.0488L12.6191 17.4863C14.041 17.9238 14.6836 18.6758 14.6836 19.9609L14.6836 23.3652C14.6836 24.8691 14.082 25.5391 12.7422 25.5391L10.9648 25.5391Z" style="fill:var(--color-0,hsl(0 0 0/0.85))"></path>
  <path d="M18.6621 9.51562C19.3184 9.51562 19.7012 9.14648 19.7148 8.43555L19.9062 1.23047C19.9199 0.533203 19.373 0 18.6484 0C17.9102 0 17.3906 0.519531 17.4043 1.2168L17.582 8.43555C17.5957 9.13281 17.9785 9.51562 18.6621 9.51562ZM18.6621 13.959C19.4551 13.959 20.1387 13.3438 20.1387 12.5371C20.1387 11.7441 19.4688 11.1289 18.6621 11.1289C17.8555 11.1289 17.1855 11.7578 17.1855 12.5371C17.1855 13.3301 17.8691 13.959 18.6621 13.959Z" style="fill:var(--color-1,hsl(0 0 0/0.85))"></path>
 </g>
</svg>