<svg version="1.1" xmlns="http://www.w3.org/2000/svg" xmlns:xlink="http://www.w3.org/1999/xlink" viewBox="0 0 45.7051 32.5254">
 <g>
  
  <path d="M4.04688 26.25L4.85352 26.25C4.77148 25.8535 4.7168 25.457 4.7168 25.0469C4.7168 22.0801 7.05469 19.7559 10.0352 19.7559C13.002 19.7559 15.3398 22.0801 15.3398 25.0469C15.3398 25.457 15.2988 25.8535 15.2031 26.25L30.1328 26.25C30.0508 25.8535 30.0098 25.457 30.0098 25.0469C30.0098 22.0801 32.334 19.7559 35.3145 19.7559C38.2949 19.7559 40.6191 22.0801 40.6191 25.0469C40.6191 25.457 40.5781 25.8535 40.4824 26.25L41.3027 26.25C44.0918 26.25 45.3496 24.9238 45.3496 21.9707L45.3496 18.4434C45.3496 16.0781 44.2012 14.6016 41.7949 13.8086L39.7715 13.1387C37.2012 10.9512 33.6602 8.39453 28.875 8.39453L26.9473 8.39453C21.752 8.39453 19.5645 8.91406 16.4473 10.8691L11.293 14.0957L5.64648 14.793C2.11914 15.2305 0 17.4043 0 20.4258L0 22.0391C0 24.9512 1.28516 26.25 4.04688 26.25ZM10.0352 28.875C12.1816 28.875 13.8633 27.1934 13.8633 25.0469C13.8633 22.9141 12.1816 21.2324 10.0352 21.2324C7.88867 21.2324 6.20703 22.9141 6.20703 25.0469C6.20703 27.1934 7.88867 28.875 10.0352 28.875ZM35.3145 28.875C37.4609 28.875 39.1426 27.1934 39.1426 25.0469C39.1426 22.9141 37.4609 21.2324 35.3145 21.2324C33.168 21.2324 31.4863 22.9141 31.4863 25.0469C31.4863 27.1934 33.168 28.875 35.3145 28.875Z" style="fill:var(--color-0,hsl(0 0 0/0.85))"></path>
  <path d="M20.4395 6.16602L34.9727 6.16602C36.0664 6.16602 36.668 5.45508 36.668 4.34766L36.668 2.99414C36.668 1.01172 35.6562 0 33.3457 0L30.7207 0C28.2734 0 26.3047 0.642578 23.1465 1.94141L20.0703 3.24023C19.209 3.5957 18.9219 4.19727 18.9219 4.78516C18.9219 5.67383 19.3867 6.16602 20.4395 6.16602Z" style="fill:var(--color-1,hsl(0 0 0/0.85))"></path>
 </g>
</svg>