<svg version="1.1" xmlns="http://www.w3.org/2000/svg" xmlns:xlink="http://www.w3.org/1999/xlink" viewBox="0 0 44.6387 27.3574">
 <g>
  
  <path d="M9.17383 7.30078L9.89844 7.30078C10.3633 7.30078 10.7051 6.95898 10.7051 6.49414L10.7051 0.820312C10.7051 0.355469 10.3633 0.0136719 9.89844 0.0136719L9.17383 0.0136719C8.70898 0.0136719 8.36719 0.355469 8.36719 0.820312L8.36719 6.49414C8.36719 6.95898 8.70898 7.30078 9.17383 7.30078ZM9.17383 17.3223L9.89844 17.3223C10.3633 17.3223 10.7051 16.9805 10.7051 16.5156L10.7051 10.8555C10.7051 10.3906 10.3633 10.0488 9.89844 10.0488L9.17383 10.0488C8.70898 10.0488 8.36719 10.3906 8.36719 10.8555L8.36719 16.5156C8.36719 16.9805 8.70898 17.3223 9.17383 17.3223ZM9.17383 27.3574L9.89844 27.3574C10.3633 27.3574 10.7051 27.0156 10.7051 26.5645L10.7051 20.877C10.7051 20.4121 10.3633 20.0703 9.89844 20.0703L9.17383 20.0703C8.70898 20.0703 8.36719 20.4121 8.36719 20.877L8.36719 26.5645C8.36719 27.0156 8.70898 27.3574 9.17383 27.3574ZM34.3711 7.30078L35.1094 7.30078C35.5742 7.30078 35.916 6.95898 35.916 6.49414L35.916 0.820312C35.916 0.355469 35.5742 0.0136719 35.1094 0.0136719L34.3711 0.0136719C33.9199 0.0136719 33.5781 0.355469 33.5781 0.820312L33.5781 6.49414C33.5781 6.95898 33.9199 7.30078 34.3711 7.30078ZM34.3711 17.3223L35.1094 17.3223C35.5742 17.3223 35.916 16.9805 35.916 16.5156L35.916 10.8555C35.916 10.3906 35.5742 10.0488 35.1094 10.0488L34.3711 10.0488C33.9199 10.0488 33.5781 10.3906 33.5781 10.8555L33.5781 16.5156C33.5781 16.9805 33.9199 17.3223 34.3711 17.3223ZM34.3711 27.3574L35.1094 27.3574C35.5742 27.3574 35.916 27.0156 35.916 26.5645L35.916 20.877C35.916 20.4121 35.5742 20.0703 35.1094 20.0703L34.3711 20.0703C33.9199 20.0703 33.5781 20.4121 33.5781 20.877L33.5781 26.5645C33.5781 27.0156 33.9199 27.3574 34.3711 27.3574ZM0 16.7207C0 17.459 0.601562 17.7734 1.24414 17.377L6.09766 14.4238C6.71289 14.041 6.69922 13.3164 6.09766 12.9336L1.23047 9.95312C0.587891 9.55664 0 9.89844 0 10.623ZM44.2832 16.7207L44.2832 10.623C44.2832 9.89844 43.6953 9.57031 43.0391 9.95312L38.1855 12.9336C37.584 13.3301 37.5703 14.0273 38.1855 14.4238L43.0391 17.377C43.6953 17.7598 44.2832 17.459 44.2832 16.7207Z" style="fill:var(--color-0,hsl(0 0 0/0.85))"></path>
  <path d="M22.1211 26.0723C26.9609 26.0723 29.1348 24.9785 29.1348 22.1895L29.1348 11.1836L29.6816 11.1836C30.2969 11.1836 30.7891 10.7051 30.7754 10.1172L30.7617 9.63867C30.7344 9.03711 30.2969 8.57227 29.668 8.57227L29.1348 8.57227L29.1348 5.83789C29.1348 2.9668 26.4961 1.27148 22.1348 1.28516C17.8008 1.28516 15.1484 2.95312 15.1484 5.83789L15.1484 8.57227L14.6152 8.57227C13.9863 8.57227 13.5352 9.03711 13.5215 9.625L13.5078 10.1172C13.4941 10.7051 13.9863 11.1836 14.6016 11.1836L15.1484 11.1836L15.1484 22.1895C15.1484 24.9785 17.3086 26.0723 22.1211 26.0723ZM22.1348 24.1445C18.5254 24.1309 17.1172 23.5703 17.1172 22.1348L17.1172 5.85156C17.1172 4.18359 18.8535 3.24023 22.1211 3.24023C25.4297 3.24023 27.1797 4.18359 27.1797 5.83789L27.1797 22.1348C27.1797 23.5703 25.7578 24.1309 22.1348 24.1445ZM22.1348 11.7031C22.9961 11.7168 24.4453 11.7852 24.9102 11.7988C25.6484 11.7988 26.0176 11.4844 26.0859 10.6914L26.2363 8.91406C26.3594 7.47852 25.416 6.93164 22.1484 6.91797C18.8809 6.91797 17.9102 7.47852 18.0469 8.92773L18.2109 10.6777C18.2793 11.4844 18.6074 11.7988 19.373 11.7852C19.8516 11.7988 21.2324 11.7168 22.1348 11.7031ZM22.1348 21.8613C25.3887 21.8477 26.4277 21.3691 26.1953 19.8789L26.0723 19.0176C25.8945 17.8145 24.9512 17.4453 22.1484 17.459C19.332 17.4453 18.3887 17.8281 18.2109 19.0176L18.0879 19.8652C17.8418 21.3828 18.8945 21.8477 22.1348 21.8613Z" style="fill:var(--color-1,hsl(0 0 0/0.85))"></path>
 </g>
</svg>