<svg version="1.1" xmlns="http://www.w3.org/2000/svg" xmlns:xlink="http://www.w3.org/1999/xlink" viewBox="0 0 29.3262 25.0332">
 <g>
  
  <path d="M24.6777 25.0332C27.5625 25.0332 28.9707 23.666 28.9707 20.8086L28.9707 14.123C28.9707 12.168 28.4238 11.1152 26.8516 9.92578L16.2285 1.8457C14.4238 0.492188 13.0293 0.0136719 10.8008 0.0136719L4.16992 0.0136719C1.4082 0.0136719 0 1.4082 0 4.14258L0 20.8086C0 23.666 1.39453 25.0332 4.29297 25.0332ZM24.5957 12.4277L4.21094 12.4277C2.95312 12.4277 2.20117 11.7031 2.20117 10.3906L2.20117 4.25195C2.20117 2.92578 2.93945 2.21484 4.21094 2.21484L10.8008 2.21484C12.5508 2.21484 13.5625 2.51562 14.7246 3.44531L24.9102 11.2383C25.4707 11.6484 25.3203 12.4277 24.5957 12.4277Z" style="fill:var(--color-0,hsl(0 0 0/0.85))"></path>
 </g>
</svg>