<svg version="1.1" xmlns="http://www.w3.org/2000/svg" xmlns:xlink="http://www.w3.org/1999/xlink" viewBox="0 0 32.0605 36.1621">
 <g>
  
  <path d="M13.166 36.1484L13.166 29.3262C13.166 26.9062 10.9512 25.4844 7.30078 25.4844C3.63672 25.4844 1.38086 26.9062 1.38086 29.3262L1.38086 36.1484L3.08984 36.1484L3.08984 29.3262C3.08984 27.9453 4.55273 27.1797 7.30078 27.1797C10.0352 27.1797 11.4707 27.9453 11.4707 29.3262L11.4707 36.1484ZM7.30078 34.2617C8.05273 34.2617 9.21484 34.3164 9.59766 34.3164C10.2402 34.3164 10.541 34.0566 10.6094 33.3867L10.7188 31.8965C10.8145 30.6797 10.0352 30.2012 7.30078 30.2012C4.55273 30.2012 3.73242 30.6797 3.8418 31.8965L3.97852 33.3867C4.0332 34.0566 4.32031 34.3164 4.97656 34.3164C5.37305 34.3164 6.57617 34.2617 7.30078 34.2617ZM12.2363 33.8242L13.6035 33.8242C14.1367 33.8242 14.5469 33.4277 14.5469 32.9219L14.5469 32.5254C14.5469 31.9922 14.1367 31.5957 13.6035 31.5957L12.2363 31.5957ZM2.32422 33.8242L2.32422 31.5957L0.957031 31.5957C0.423828 31.5957 0 31.9922 0 32.5254L0 32.9219C0 33.4277 0.423828 33.8242 0.957031 33.8242Z" style="fill:var(--color-0,hsl(0 0 0/0.85))"></path>
  <path d="M13.6445 24.8008C15.2852 26.4277 17.3496 27.4531 19.5781 27.4531C20.1387 27.4531 20.5078 27.0977 20.5078 26.5918C20.5078 26.127 20.1523 25.8262 19.5371 25.7715C17.8008 25.6758 16.1191 24.9512 14.793 23.6523C13.4805 22.3262 12.7695 20.6445 12.6602 18.8945C12.6055 18.2246 12.3184 17.9512 11.7852 17.9512C11.375 17.9512 10.9648 18.252 11.0059 18.8535C11.1426 21.0957 12.0176 23.1602 13.6445 24.8008Z" style="fill:var(--color-1,hsl(0 0 0/0.85))"></path>
  <path d="M16.2695 22.1621C17.3633 23.2559 18.8535 23.8027 19.7695 23.8027C20.2754 23.8027 20.6172 23.4609 20.6172 22.9961C20.6172 22.5586 20.3027 22.2168 19.6465 22.1348C18.8398 22.0391 18.0879 21.6699 17.418 21.0273C16.7891 20.3574 16.4199 19.5918 16.2969 18.6895C16.2012 18.1016 15.9688 17.8418 15.4355 17.8418C14.9707 17.8281 14.5879 18.2109 14.6562 18.7988C14.793 20.084 15.3398 21.2324 16.2695 22.1621Z" style="fill:var(--color-2,hsl(0 0 0/0.85))"></path>
  <path d="M24.418 20.8633C28.5059 20.8633 30.3242 19.9336 30.3242 17.582L30.3242 3.85547C30.3242 1.42188 28.0957 0 24.418 0C20.7539 0 18.5254 1.42188 18.5254 3.85547L18.5254 17.582C18.5254 19.9336 20.3438 20.8633 24.418 20.8633ZM24.418 19.168C21.3965 19.168 20.2207 18.7168 20.2207 17.5273L20.2207 3.85547C20.2207 2.47461 21.6836 1.70898 24.418 1.70898C27.166 1.70898 28.6152 2.47461 28.6152 3.85547L28.6152 17.5273C28.6152 18.7168 27.4531 19.168 24.418 19.168ZM24.418 8.79102C25.1836 8.79102 26.332 8.87305 26.7422 8.87305C27.3848 8.87305 27.6855 8.59961 27.7402 7.91602L27.8633 6.43945C27.9727 5.20898 27.1523 4.73047 24.418 4.73047C21.6699 4.73047 20.8633 5.20898 20.9727 6.43945L21.0957 7.91602C21.1504 8.59961 21.4512 8.87305 22.1074 8.87305C22.4902 8.87305 23.6934 8.79102 24.418 8.79102ZM24.418 17.2949C27.1523 17.2949 28.0273 16.8848 27.8359 15.627L27.7266 14.9023C27.5762 13.877 26.7695 13.5625 24.418 13.5625C22.0664 13.5625 21.2598 13.877 21.1094 14.9023L21 15.627C20.8223 16.8848 21.6836 17.2949 24.418 17.2949ZM29.3809 8.36719L30.748 8.36719C31.2949 8.36719 31.7051 7.95703 31.7051 7.45117L31.7051 7.05469C31.7051 6.53516 31.2949 6.125 30.748 6.125L29.3809 6.125ZM19.4551 8.36719L19.4551 6.125L18.0742 6.125C17.5547 6.125 17.1309 6.53516 17.1309 7.05469L17.1309 7.45117C17.1309 7.95703 17.5547 8.36719 18.0742 8.36719Z" style="fill:var(--color-3,hsl(0 0 0/0.85))"></path>
 </g>
</svg>