<svg version="1.1" xmlns="http://www.w3.org/2000/svg" xmlns:xlink="http://www.w3.org/1999/xlink" viewBox="0 0 19.1406 37.4473">
 <g>
  
  <path d="M9.39258 2.05078C11.8125 2.05078 14 2.93945 15.6816 4.44336C16.2695 4.94922 16.8848 4.99023 17.2949 4.59375C17.7461 4.14258 17.7188 3.48633 17.2402 2.98047C15.2031 0.943359 12.373 0 9.39258 0C6.42578 0 3.5957 0.943359 1.55859 2.98047C1.06641 3.48633 1.03906 4.14258 1.50391 4.59375C1.90039 4.99023 2.51562 4.94922 3.10352 4.44336C4.78516 2.93945 6.98633 2.05078 9.39258 2.05078Z" style="fill:var(--color-0,hsl(0 0 0/0.85))"></path>
  <path d="M9.39258 6.84961C10.5957 6.84961 11.6484 7.21875 12.4551 7.88867C13.1523 8.38086 13.7266 8.35352 14.1094 7.95703C14.5332 7.54688 14.5059 6.94531 14.0684 6.49414C13.2344 5.66016 11.3887 4.79883 9.39258 4.79883C7.41016 4.79883 5.56445 5.66016 4.7168 6.49414C4.2793 6.94531 4.25195 7.54688 4.67578 7.95703C5.05859 8.35352 5.63281 8.38086 6.33008 7.88867C7.15039 7.21875 8.20312 6.84961 9.39258 6.84961Z" style="fill:var(--color-1,hsl(0 0 0/0.85))"></path>
  <path d="M9.39258 37.4336C14.6426 37.4336 17.0078 36.2441 17.0078 33.2227L17.0078 15.4766C17.0078 12.3594 14.123 10.5137 9.39258 10.5137C4.66211 10.5137 1.79102 12.3594 1.79102 15.4766L1.79102 33.2227C1.79102 36.2441 4.14258 37.4336 9.39258 37.4336ZM9.39258 35.3008C5.48242 35.3008 3.95117 34.6992 3.95117 33.1543L3.95117 15.4766C3.95117 13.6855 5.85156 12.6738 9.39258 12.6738C12.9473 12.6738 14.8477 13.6855 14.8477 15.4766L14.8477 33.1543C14.8477 34.6992 13.3164 35.3008 9.39258 35.3008ZM2.95312 21.2871L2.95312 18.4434L1.20312 18.4434C0.533203 18.4434 0 18.9492 0 19.6055L0 20.125C0 20.7676 0.533203 21.2871 1.20312 21.2871ZM15.832 21.2871L17.582 21.2871C18.2656 21.2871 18.7852 20.7676 18.7852 20.125L18.7852 19.6055C18.7852 18.9492 18.2656 18.4434 17.582 18.4434L15.832 18.4434ZM9.39258 21.8477C10.3906 21.8477 11.8809 21.9297 12.3867 21.9297C13.2207 21.9297 13.5898 21.5879 13.6719 20.7266L13.8359 18.8125C13.9727 17.2402 12.9199 16.6387 9.39258 16.6387C5.86523 16.6387 4.82617 17.2402 4.96289 18.8125L5.12695 20.7266C5.20898 21.5879 5.57812 21.9297 6.39844 21.9297C6.91797 21.9297 8.46289 21.8477 9.39258 21.8477ZM9.39258 32.8262C12.9199 32.8262 14.041 32.3066 13.7949 30.6797L13.6445 29.75C13.4395 28.4512 12.4414 28.041 9.39258 28.041C6.35742 28.041 5.3457 28.4512 5.14062 29.75L5.00391 30.6797C4.75781 32.3066 5.86523 32.8262 9.39258 32.8262Z" style="fill:var(--color-2,hsl(0 0 0/0.85))"></path>
 </g>
</svg>