<svg version="1.1" xmlns="http://www.w3.org/2000/svg" xmlns:xlink="http://www.w3.org/1999/xlink" viewBox="0 0 27.9453 39.8262">
 <g>
  
  <path d="M9.40625 26.9199C14.6562 26.9199 17.0078 25.7305 17.0078 22.709L17.0078 4.96289C17.0078 1.8457 14.123 0 9.40625 0C4.66211 0 1.79102 1.8457 1.79102 4.96289L1.79102 22.709C1.79102 25.7305 4.15625 26.9199 9.40625 26.9199ZM9.40625 11.252C8.43555 11.252 6.84961 11.334 6.30273 11.334C5.45508 11.334 5.08594 10.9785 4.99023 10.0898L4.82617 8.12109C4.68945 6.49414 5.75586 5.87891 9.40625 5.87891C13.0293 5.87891 14.1094 6.49414 13.9727 8.12109L13.7812 10.0898C13.7129 10.9785 13.3301 11.334 12.4824 11.334C11.9492 11.334 10.418 11.252 9.40625 11.252ZM9.40625 22.5586C5.75586 22.5586 4.60742 22.0254 4.86719 20.3438L5.00391 19.3867C5.22266 18.0469 6.26172 17.623 9.40625 17.623C12.5371 17.623 13.5625 18.0469 13.7676 19.3867L13.9316 20.3438C14.1777 22.0254 13.0293 22.5586 9.40625 22.5586ZM15.832 10.7734L17.582 10.7734C18.2656 10.7734 18.7852 10.2539 18.7852 9.61133L18.7852 9.0918C18.7852 8.43555 18.2656 7.92969 17.582 7.92969L15.832 7.92969ZM2.95312 10.7734L2.95312 7.92969L1.20312 7.92969C0.533203 7.92969 0 8.43555 0 9.0918L0 9.61133C0 10.2539 0.533203 10.7734 1.20312 10.7734Z" style="fill:var(--color-0,hsl(0 0 0/0.85))"></path>
  <path d="M21.3965 38.7871L17.6641 35.0547C16.9668 34.3574 16.9531 33.5371 17.6504 32.8398L21.123 29.3672C21.8203 28.6699 22.5996 28.6426 23.3105 29.3535L27.0703 33.1133C27.7402 33.7832 27.7949 34.6309 27.084 35.3418L23.625 38.8008C22.9277 39.498 22.0938 39.4844 21.3965 38.7871ZM18.0332 31.6641L15.4902 31.459C15.2578 31.4453 15.0527 31.377 14.9297 31.2539C14.6562 30.9805 14.6699 30.5977 14.9707 30.3105L18.6074 26.6738C18.8809 26.3867 19.2637 26.373 19.5371 26.6465C19.6602 26.7695 19.7285 26.9883 19.7559 27.1934L19.9609 29.75Z" style="fill:var(--color-1,hsl(0 0 0/0.85))"></path>
 </g>
</svg>