<svg version="1.1" xmlns="http://www.w3.org/2000/svg" xmlns:xlink="http://www.w3.org/1999/xlink" viewBox="0 0 48.9147 41.8496">
 <g>
  
  <path d="M14.388 17.541L7.42904 34.2344C7.18295 34.8359 6.78646 35.2188 5.96615 35.2188L4.13412 35.2188C3.08138 35.2188 2.82162 34.3984 3.17709 33.6875L11.4759 17.3223C11.6947 16.8984 11.9954 16.6934 12.4603 16.6934L13.8958 16.6934C14.3744 16.6934 14.5931 17.0625 14.388 17.541ZM37.0013 17.3359L38.1816 19.6634C37.9876 19.6383 37.7889 19.6328 37.5892 19.6328C36.7296 19.6328 35.8906 19.7342 35.0875 19.9357L34.0892 17.541C33.8978 17.0762 34.1165 16.6934 34.5951 16.6934L36.0306 16.6934C36.4954 16.6934 36.7826 16.9121 37.0013 17.3359Z" style="fill:var(--color-0,hsl(0 0 0/0.85))"></path>
  <path d="M33.6355 20.3899C32.7542 20.7213 31.9295 21.1729 31.1801 21.7246L14.2923 21.7246L15.0853 19.7148L33.3646 19.7148Z" style="fill:var(--color-1,hsl(0 0 0/0.85))"></path>
  <path d="M27.7318 6.69922C28.6204 6.79492 29.3314 7.24609 29.7005 8.29883L30.3704 10.2266L31.013 10.9238C31.6829 11.6484 31.8333 12.3047 31.8333 13.3848L31.8333 17.6777C31.8333 18.1562 31.4642 18.5254 30.9857 18.5254L30.2201 18.5254C29.7415 18.5254 29.3724 18.1562 29.3724 17.6777L29.3724 16.748L19.0911 16.748L19.0911 17.6777C19.0911 18.1562 18.722 18.5254 18.2298 18.5254L17.4779 18.5254C16.9994 18.5254 16.6302 18.1562 16.6302 17.6777L16.6302 13.3848C16.6302 12.3047 16.7806 11.6484 17.4369 10.9238L18.0794 10.2266L18.763 8.29883C19.1322 7.24609 19.8431 6.79492 20.7318 6.69922C21.1556 6.64453 22.5638 6.60352 24.2318 6.60352C25.8861 6.60352 27.2943 6.64453 27.7318 6.69922ZM18.2572 12.5918L18.2572 13.6035C18.2572 13.9863 18.5579 14.2734 18.9544 14.2734C19.3509 14.2734 19.638 14 19.638 13.6035L19.638 12.5918C19.638 12.1953 19.3509 11.9219 18.9544 11.9219C18.5579 11.9219 18.2572 12.1953 18.2572 12.5918ZM28.8939 12.5918L28.8939 13.6035C28.8939 13.9863 29.181 14.2734 29.5638 14.2734C29.974 14.2734 30.2611 14 30.2611 13.6035L30.2611 12.5918C30.2611 12.1953 29.974 11.9219 29.5638 11.9219C29.181 11.9219 28.8939 12.209 28.8939 12.5918ZM22.7689 12.2227C22.4544 12.2227 22.2494 12.4277 22.2494 12.7695L22.2494 13.4258C22.2494 13.7676 22.4544 13.9727 22.7689 13.9727L25.6673 13.9727C25.9818 13.9727 26.2005 13.7676 26.2005 13.4258L26.2005 12.7695C26.2005 12.4277 25.9818 12.2227 25.6673 12.2227ZM20.7044 7.91602C20.3079 7.9707 20.0755 8.10742 19.9251 8.55859L19.5286 9.74805C19.4329 10.0352 19.5423 10.2676 19.8431 10.2676L28.6068 10.2676C28.9076 10.2676 29.0306 10.0352 28.9349 9.74805L28.5247 8.55859C28.3744 8.10742 28.1419 7.9707 27.7454 7.91602C27.3079 7.84766 26.0638 7.80664 24.2318 7.80664C22.3997 7.80664 21.1419 7.84766 20.7044 7.91602Z" style="fill:var(--color-2,hsl(0 0 0/0.85))"></path>
  <path d="M46.804 30.7344C46.804 25.6895 42.6204 21.4922 37.5892 21.4922C32.5579 21.4922 28.3607 25.6895 28.3607 30.7344C28.3607 33.0996 29.2767 35.2871 30.7943 36.9277C31.2318 37.4199 32.0384 37.5293 32.64 36.9414L33.8841 35.7246C34.2533 35.3691 34.2396 34.7949 33.8978 34.4531C33.5286 34.1113 32.9681 34.1113 32.6263 34.4531L31.806 35.2734C30.8216 34.0293 30.2337 32.4707 30.2337 30.7344C30.2337 26.6055 33.474 23.3652 37.5892 23.3652C41.7044 23.3652 44.931 26.6055 44.931 30.7344C44.931 32.4707 44.3568 34.0293 43.3724 35.2734L42.5384 34.4531C42.1966 34.1113 41.6361 34.1113 41.2806 34.4531C40.9388 34.7949 40.9251 35.3691 41.2943 35.7246L42.5247 36.9414C43.1263 37.543 43.9329 37.4199 44.3704 36.9277C45.888 35.2871 46.804 33.0996 46.804 30.7344ZM31.5599 29.8457L29.2357 29.8457L29.2357 31.623L31.5599 31.623C32.0384 31.623 32.4622 31.2129 32.4622 30.7344C32.4622 30.2422 32.0384 29.8457 31.5599 29.8457ZM43.5775 29.8457C43.099 29.8457 42.6888 30.2422 42.6888 30.7344C42.6888 31.2129 43.099 31.623 43.5775 31.623L45.9017 31.623L45.9017 29.8457ZM36.7005 24.7188C36.7005 25.1973 37.1107 25.6211 37.5892 25.6211C38.0677 25.6211 38.4779 25.1973 38.4779 24.7188L38.4779 22.4082L36.7005 22.4082ZM34.0072 25.8945L32.3665 24.2402L31.1087 25.5117L32.7494 27.1523C33.0911 27.4941 33.6517 27.4941 34.0208 27.1523C34.3626 26.8105 34.3626 26.2363 34.0072 25.8945ZM46.2161 19.5918C45.929 19.291 45.5326 19.4551 45.4642 19.8242L44.8353 22.9277C44.7533 23.3379 45.013 23.584 45.4095 23.502L48.513 22.873C48.8958 22.791 49.0599 22.4355 48.7591 22.1348ZM36.4134 31.9375C37.0286 32.5254 37.931 32.5254 38.5462 31.9238C38.6556 31.7871 38.8333 31.541 38.929 31.4043L41.8958 27.1113C42.0736 26.8652 42.0189 26.6191 41.8685 26.4551C41.7181 26.3184 41.472 26.291 41.2259 26.4414L36.9193 29.4219C36.7689 29.5312 36.5365 29.6953 36.4134 29.8047C35.8119 30.4199 35.8119 31.3086 36.4134 31.9375Z" style="fill:var(--color-3,hsl(0 0 0/0.85))"></path>
 </g>
</svg>