<svg version="1.1" xmlns="http://www.w3.org/2000/svg" xmlns:xlink="http://www.w3.org/1999/xlink" viewBox="0 0 28.2461 27.9043">
 <g>
  
  <path d="M13.9453 27.9043C21.6426 27.9043 27.8906 21.6562 27.8906 13.959C27.8906 6.27539 21.6426 0.0136719 13.9453 0.0136719C6.26172 0.0136719 0 6.27539 0 13.959C0 21.6562 6.26172 27.9043 13.9453 27.9043Z" style="fill:var(--color-0,#007aff)"></path>
  <path d="M6.2207 18.6484L6.2207 14.8887C6.2207 13.8086 6.43945 13.1797 7.05469 12.4004L7.61523 11.6895C7.86133 10.5 8.27148 9.26953 8.50391 8.79102C8.85938 8.05273 9.5293 7.61523 10.3906 7.50586C10.8418 7.45117 12.2637 7.41016 13.959 7.41016C15.6406 7.41016 17.0762 7.45117 17.5137 7.50586C18.3887 7.62891 19.0586 8.05273 19.4004 8.79102C19.6328 9.26953 20.043 10.5 20.3027 11.6895L20.8496 12.4004C21.4648 13.1797 21.6836 13.8086 21.6836 14.8887L21.6836 18.6484C21.6836 19.127 21.3008 19.5098 20.8223 19.5098L20.043 19.5098C19.5508 19.5098 19.168 19.127 19.168 18.6484L19.168 17.5684C17.7188 17.6504 15.6406 17.7051 13.959 17.7051C12.2773 17.7051 10.1855 17.6504 8.73633 17.5684L8.73633 18.6484C8.73633 19.127 8.35352 19.5098 7.875 19.5098L7.0957 19.5098C6.60352 19.5098 6.2207 19.127 6.2207 18.6484ZM9.2832 11.0742C9.22852 11.2793 9.31055 11.375 9.55664 11.3613C10.5684 11.2793 11.7578 11.2246 13.959 11.2246C16.1465 11.2246 17.3496 11.2793 18.3477 11.3613C18.5938 11.375 18.6895 11.2793 18.6211 11.0742C18.4844 10.3906 18.1973 9.51562 18.0059 9.1875C17.8145 8.88672 17.6504 8.76367 17.3086 8.72266C16.8438 8.64062 15.8047 8.62695 13.959 8.62695C12.0996 8.62695 11.0605 8.6543 10.6094 8.72266C10.2676 8.76367 10.0898 8.88672 9.91211 9.1875C9.7207 9.5293 9.43359 10.3906 9.2832 11.0742ZM8.18945 14.9023C8.18945 15.4902 8.6543 15.9551 9.24219 15.9551C9.83008 15.9551 10.2949 15.4902 10.2949 14.9023C10.2949 14.3145 9.83008 13.8633 9.24219 13.8633C8.6543 13.8633 8.18945 14.3145 8.18945 14.9023ZM11.4707 14.9434C11.4707 15.3945 11.7852 15.709 12.2363 15.709L15.6816 15.709C16.1191 15.709 16.4336 15.3945 16.4336 14.9434C16.4336 14.5059 16.1191 14.1914 15.6816 14.1914L12.2363 14.1914C11.7852 14.1914 11.4707 14.5059 11.4707 14.9434ZM17.623 14.9023C17.623 15.4902 18.0742 15.9551 18.6621 15.9551C19.2637 15.9551 19.7285 15.4902 19.7285 14.9023C19.7285 14.3145 19.2637 13.8633 18.6621 13.8633C18.0742 13.8633 17.623 14.3145 17.623 14.9023Z" style="fill:var(--color-1,white)"></path>
 </g>
</svg>