<svg version="1.1" xmlns="http://www.w3.org/2000/svg" xmlns:xlink="http://www.w3.org/1999/xlink" viewBox="0 0 32.0605 36.1621">
 <g>
  
  <path d="M18.5391 36.1484L20.2344 36.1484L20.2344 29.3262C20.2344 27.9453 21.6699 27.1797 24.4043 27.1797C27.1387 27.1797 28.6152 27.9453 28.6152 29.3262L28.6152 36.1484L30.3242 36.1484L30.3242 29.3262C30.3242 26.9062 28.0684 25.4844 24.4043 25.4844C20.7402 25.4844 18.5391 26.9062 18.5391 29.3262ZM24.4043 34.2617C25.1289 34.2617 26.332 34.3164 26.7148 34.3164C27.3711 34.3164 27.6719 34.0566 27.7266 33.3867L27.8496 31.8965C27.959 30.6797 27.1523 30.2012 24.4043 30.2012C21.6699 30.2012 20.8906 30.6797 20.9727 31.8965L21.0957 33.3867C21.1504 34.0566 21.4512 34.3164 22.0938 34.3164C22.4902 34.3164 23.6387 34.2617 24.4043 34.2617ZM19.4688 33.8242L19.4688 31.5957L18.1016 31.5957C17.5547 31.5957 17.1582 31.9922 17.1582 32.5254L17.1582 32.9219C17.1582 33.4277 17.5547 33.8242 18.1016 33.8242ZM29.3672 33.8242L30.748 33.8242C31.2676 33.8242 31.7051 33.4277 31.7051 32.9219L31.7051 32.5254C31.7051 31.9922 31.2676 31.5957 30.748 31.5957L29.3672 31.5957Z" style="fill:var(--color-0,hsl(0 0 0/0.85))"></path>
  <path d="M18.0469 24.8008C19.6875 23.1602 20.5488 21.0957 20.6855 18.8535C20.7266 18.252 20.3301 17.9512 19.9199 17.9512C19.373 17.9512 19.0996 18.2246 19.0449 18.8945C18.9355 20.6445 18.2246 22.3262 16.9121 23.6523C15.5859 24.9512 13.9043 25.6758 12.168 25.7715C11.5527 25.8262 11.1973 26.127 11.1973 26.5918C11.1973 27.0977 11.5664 27.4531 12.127 27.4531C14.3555 27.4531 16.4199 26.4277 18.0469 24.8008Z" style="fill:var(--color-1,hsl(0 0 0/0.85))"></path>
  <path d="M15.4219 22.1621C16.3516 21.2324 16.9121 20.084 17.0488 18.7988C17.1172 18.2109 16.7344 17.8281 16.2695 17.8418C15.7363 17.8418 15.4902 18.1016 15.3945 18.6895C15.2715 19.5918 14.916 20.3574 14.2734 21.0273C13.6172 21.6699 12.8652 22.0391 12.0586 22.1348C11.3887 22.2168 11.0879 22.5586 11.0879 22.9961C11.0742 23.4609 11.4297 23.8027 11.9355 23.8027C12.8379 23.8027 14.3281 23.2559 15.4219 22.1621Z" style="fill:var(--color-2,hsl(0 0 0/0.85))"></path>
  <path d="M7.27344 20.8633C11.3613 20.8633 13.1797 19.9336 13.1797 17.582L13.1797 3.85547C13.1797 1.42188 10.9512 0 7.27344 0C3.60938 0 1.38086 1.42188 1.38086 3.85547L1.38086 17.582C1.38086 19.9336 3.19922 20.8633 7.27344 20.8633ZM7.27344 19.168C4.23828 19.168 3.08984 18.7168 3.08984 17.5273L3.08984 3.85547C3.08984 2.47461 4.52539 1.70898 7.27344 1.70898C10.0215 1.70898 11.4844 2.47461 11.4844 3.85547L11.4844 17.5273C11.4844 18.7168 10.3086 19.168 7.27344 19.168ZM7.27344 8.79102C7.99805 8.79102 9.20117 8.87305 9.59766 8.87305C10.2539 8.87305 10.541 8.59961 10.5957 7.91602L10.7324 6.43945C10.8418 5.20898 10.0215 4.73047 7.27344 4.73047C4.53906 4.73047 3.71875 5.20898 3.8418 6.43945L3.96484 7.91602C4.01953 8.59961 4.32031 8.87305 4.96289 8.87305C5.37305 8.87305 6.52148 8.79102 7.27344 8.79102ZM7.27344 17.2949C10.0215 17.2949 10.8828 16.8848 10.6914 15.627L10.582 14.9023C10.4316 13.877 9.63867 13.5625 7.27344 13.5625C4.93555 13.5625 4.12891 13.877 3.96484 14.9023L3.85547 15.627C3.66406 16.8848 4.55273 17.2949 7.27344 17.2949ZM2.31055 8.36719L2.31055 6.125L0.943359 6.125C0.410156 6.125 0 6.53516 0 7.05469L0 7.45117C0 7.95703 0.410156 8.36719 0.943359 8.36719ZM12.25 8.36719L13.6172 8.36719C14.1504 8.36719 14.5742 7.95703 14.5742 7.45117L14.5742 7.05469C14.5742 6.53516 14.1504 6.125 13.6172 6.125L12.25 6.125Z" style="fill:var(--color-3,hsl(0 0 0/0.85))"></path>
 </g>
</svg>