<svg version="1.1" xmlns="http://www.w3.org/2000/svg" xmlns:xlink="http://www.w3.org/1999/xlink" viewBox="0 0 43.9143 33.9857">
 <g>
  
  <path d="M4.27943 33.2555C4.59388 33.8024 5.27747 33.9665 5.76966 33.693L41.2618 13.2126C41.754 12.9118 41.9454 12.2419 41.6583 11.736C41.3439 11.1891 40.6466 11.0114 40.1544 11.2985L4.67591 31.779C4.17005 32.0661 3.97865 32.7497 4.27943 33.2555ZM6.24818 25.9411L7.61537 25.1481L6.72669 23.6032L5.35951 24.3962C4.32044 24.9841 3.54115 24.738 2.8849 23.5759L2.2013 22.4138C1.38099 20.9919 1.81849 19.3102 3.54115 18.0251L7.10951 15.3317C7.64271 14.9352 7.95716 14.5661 8.21693 14.0876L10.4865 9.79461C11.84 7.25164 13.0021 6.15789 16.6251 4.0661L18.0743 3.23211C20.59 1.76922 23.1193 1.55047 26.8517 2.28875C27.5216 2.42547 27.8361 2.38445 28.506 2.23406L29.7091 1.9743C31.0079 1.70086 31.8419 1.9743 32.4298 2.98602L33.9611 5.63836C34.631 6.7868 34.4533 7.59344 33.4279 8.18133L32.0333 8.98797L32.922 10.5329L34.3165 9.72625C36.422 8.50945 36.7911 6.96453 35.506 4.74969L33.9747 2.08367C32.9357 0.30633 31.4318-0.308905 29.2716 0.142267L27.4533 0.52508C24.5548-0.0354673 20.7951-0.390936 17.1857 1.68719L15.7365 2.52117C11.8263 4.77703 10.3908 6.13055 8.90052 8.96063L6.42591 13.6364L2.46107 16.6169C0.000131159 18.4763-0.642447 21.0329 0.656381 23.3024L1.36732 24.5329C2.62513 26.7204 4.15638 27.1442 6.24818 25.9411ZM12.6603 22.236L28.0275 13.363L27.1388 11.818L11.7579 20.6911ZM11.4435 25.695C13.3712 24.5876 14.0001 22.236 12.8927 20.322C11.7853 18.4079 9.43372 17.779 7.50599 18.8727C5.59193 19.9802 4.96302 22.3454 6.07044 24.2595C7.17787 26.1735 9.52943 26.8024 11.4435 25.695ZM10.6095 24.2458C9.51576 24.8884 8.14857 24.5192 7.51966 23.4255C6.89076 22.318 7.24622 20.9645 8.35365 20.322C9.4474 19.693 10.8146 20.0622 11.4435 21.1559C12.0724 22.2497 11.7169 23.6169 10.6095 24.2458ZM31.5001 14.1149C33.4279 13.0075 34.0568 10.6559 32.9493 8.74188C31.8419 6.82781 29.4904 6.19891 27.5763 7.29266C25.6486 8.40008 25.0197 10.7653 26.1271 12.6794C27.2345 14.5934 29.5861 15.2223 31.5001 14.1149ZM30.6661 12.6657C29.5724 13.3083 28.2052 12.9391 27.5763 11.8454C26.9474 10.738 27.3029 9.38445 28.4103 8.74188C29.504 8.11297 30.8712 8.48211 31.5001 9.57586C32.129 10.6696 31.7736 12.0368 30.6661 12.6657Z" style="fill:var(--color-0,hsl(0 0 0/0.85))"></path>
  <path d="M26.6466 33.8708C27.1251 33.8708 27.4396 33.57 27.4396 33.0778L27.4396 30.1247L29.5451 30.1247L29.5451 33.0778C29.5451 33.57 29.8458 33.8708 30.338 33.8708C30.8165 33.8708 31.131 33.57 31.131 33.0778L31.131 25.9821C31.131 25.5036 30.8165 25.2028 30.338 25.2028C29.8458 25.2028 29.5451 25.5036 29.5451 25.9821L29.5451 28.8122L27.4396 28.8122L27.4396 25.9821C27.4396 25.5036 27.1251 25.2028 26.6466 25.2028C26.1818 25.2028 25.881 25.5036 25.881 25.9821L25.881 33.0778C25.881 33.57 26.1818 33.8708 26.6466 33.8708ZM33.0587 33.8708L34.5763 33.8708C36.8048 33.8708 37.5568 31.7243 37.5568 29.5095C37.5568 27.0895 36.6954 25.2028 34.5763 25.2028L33.0587 25.2028C32.5939 25.2028 32.2658 25.4626 32.2658 26.0231L32.2658 33.0505C32.2658 33.611 32.5939 33.8708 33.0587 33.8708ZM33.8107 32.5583L33.8107 26.5153L34.3849 26.5153C35.7111 26.5153 35.9572 28.1833 35.9572 29.5095C35.9572 30.863 35.7521 32.5583 34.3849 32.5583ZM41.1525 33.9391C42.0275 33.9391 42.6564 33.529 43.0665 32.8864C43.34 32.4763 43.5587 31.8473 43.5587 31.3825C43.5587 30.945 43.2579 30.6716 42.8204 30.6716C42.4786 30.6716 42.2052 30.9177 42.1232 31.3005C41.9728 32.0934 41.7267 32.572 41.1115 32.572C40.3595 32.572 39.922 31.5055 39.922 29.5368C39.922 27.5407 40.4279 26.4743 41.1115 26.4743C41.672 26.4743 42.0001 27.0348 42.0958 27.7458C42.1642 28.1696 42.4513 28.4157 42.8615 28.4157C43.2716 28.4157 43.5177 28.1286 43.5177 27.6911C43.5177 27.1716 43.2716 26.4196 42.8068 25.9001C42.3829 25.4079 41.7677 25.1208 41.0978 25.1208C39.9083 25.1208 39.1837 25.8864 38.8009 26.7751C38.4181 27.6227 38.3224 28.5798 38.3224 29.5368C38.3224 30.6305 38.4318 31.697 38.924 32.5993C39.4161 33.488 40.1544 33.9391 41.1525 33.9391Z" style="fill:var(--color-1,hsl(0 0 0/0.85))"></path>
 </g>
</svg>