<svg version="1.1" xmlns="http://www.w3.org/2000/svg" xmlns:xlink="http://www.w3.org/1999/xlink" viewBox="0 0 37.6797 32.0992">
 <g>
  
  <path d="M37.3242 14.6346L37.3242 12.3513C36.75 12.6385 36.1621 12.9529 35.5605 13.3357L30.5703 16.4803L25.1016 17.1638C21.6836 17.574 19.6191 19.6931 19.6191 22.6053L19.6191 24.1775C19.6191 26.9939 20.8633 28.2517 23.5566 28.2517L25.3066 28.2517L25.3066 26.2693L23.5566 26.2693C22.2168 26.2693 21.6016 25.5994 21.6016 24.0955L21.6016 22.6053C21.6016 20.7732 22.9688 19.406 25.3477 19.1053L30.2832 18.5037C31.0352 18.4217 31.5273 18.2439 32.0469 17.9295L36.627 15.0447C36.8594 14.8943 37.0918 14.7576 37.3242 14.6346ZM37.3242 28.2517L37.3242 26.2693L31.8008 26.2693L31.8008 28.2517ZM28.6973 30.9314C31.1582 30.9314 33.0859 29.0037 33.0859 26.5428C33.0859 24.0818 31.1582 22.1541 28.6973 22.1541C26.2363 22.1541 24.3223 24.0818 24.3223 26.5428C24.3223 29.0037 26.2363 30.9314 28.6973 30.9314ZM28.6973 29.0584C27.3027 29.0584 26.1816 27.951 26.1816 26.5428C26.1816 25.1209 27.3027 24.0135 28.6973 24.0135C30.1191 24.0135 31.2402 25.1209 31.2402 26.5428C31.2402 27.951 30.1191 29.0584 28.6973 29.0584ZM7.60156 30.9314C10.0625 30.9314 11.9766 29.0037 11.9766 26.5428C11.9766 24.0818 10.0625 22.1541 7.60156 22.1541C5.12695 22.1541 3.19922 24.0818 3.19922 26.5428C3.19922 29.0037 5.12695 30.9314 7.60156 30.9314ZM7.60156 29.0584C6.17969 29.0584 5.05859 27.951 5.05859 26.5428C5.05859 25.1209 6.17969 24.0135 7.60156 24.0135C8.99609 24.0135 10.1172 25.1209 10.1172 26.5428C10.1172 27.951 8.99609 29.0584 7.60156 29.0584ZM0 26.2693L0 28.2517L4.66211 28.2517L4.66211 26.2693ZM10.9648 28.2517L12.7422 28.2517C15.4629 28.2517 16.666 26.9803 16.666 24.0955L16.666 20.6912C16.666 18.3943 15.5586 16.9451 13.2207 16.1931L11.2656 15.5642C8.70898 13.3631 5.35938 10.9568 0.943359 10.9568L0 10.9568L0 12.9529L0.943359 12.9529C4.06055 12.9529 6.57617 14.1834 9.69336 16.9178C10.2812 17.4236 10.582 17.5603 11.3203 17.7791L12.6191 18.2166C14.041 18.6541 14.6836 19.406 14.6836 20.6912L14.6836 24.0955C14.6836 25.5994 14.082 26.2693 12.7422 26.2693L10.9648 26.2693Z" style="fill:var(--color-0,hsl(0 0 0/0.85))"></path>
  <path d="M20.166 0.812285L19.5645 3.31424L16.4609 0.128691C16.2012-0.144747 15.8594 0.0466596 15.9824 0.429472L17.0898 3.69705L15.6406 3.05447C15.2988 2.89041 15.0527 3.15018 15.2988 3.4783L16.1055 4.51736L12.3867 3.99783C11.9492 3.92947 11.8398 4.36697 12.1816 4.58572L15.6816 6.70486L13.5898 7.47049C13.2207 7.60721 13.2754 8.03103 13.6719 8.05838L16.0098 8.23611L12.8379 10.3826C12.5234 10.5877 12.6465 11.0662 13.084 10.9568L17.1172 10.0408L17.1719 13.4588C17.1719 13.8142 17.5137 13.8553 17.6641 13.6092L20.2617 9.32986L24.623 13.2537C24.9512 13.5408 25.3477 13.24 25.1289 12.8435L22.5586 8.01736L25.1973 7.22439C25.416 7.15603 25.416 6.85525 25.1973 6.77322L22.8594 5.81619L24.541 1.07205C24.6367 0.771269 24.3359 0.497831 24.0762 0.757597L21.3691 3.32791L20.6992 0.812285C20.6172 0.456816 20.248 0.456816 20.166 0.812285Z" style="fill:var(--color-1,hsl(0 0 0/0.85))"></path>
 </g>
</svg>