<svg version="1.1" xmlns="http://www.w3.org/2000/svg" xmlns:xlink="http://www.w3.org/1999/xlink" viewBox="0 0 38.6504 35.3145">
 <g>
  
  <path d="M19.1406 35.3008C26.0449 35.3008 28.998 33.7832 28.998 30.0645L28.998 6.33008C28.998 2.33789 25.3613 0 19.1406 0C12.9336 0 9.31055 2.33789 9.31055 6.33008L9.31055 30.0645C9.31055 33.7832 12.25 35.3008 19.1406 35.3008ZM19.1543 14.5605C17.8145 14.5605 15.7637 14.6562 15.0391 14.6562C13.9863 14.6562 13.5215 14.2461 13.4258 13.1523L13.1934 10.5C13.002 8.46289 14.4512 7.64258 19.1543 7.64258C23.8574 7.64258 25.293 8.46289 25.1152 10.5L24.8828 13.1523C24.7734 14.2461 24.3223 14.6562 23.2559 14.6562C22.5449 14.6562 20.4121 14.5605 19.1543 14.5605ZM19.1543 29.6133C14.3965 29.6133 12.9609 28.9023 13.248 26.8242L13.4258 25.5391C13.6582 23.8574 15.0664 23.2832 19.1543 23.2832C23.2285 23.2832 24.6367 23.8574 24.8691 25.5391L25.0469 26.8242C25.3477 28.9023 23.8984 29.6133 19.1543 29.6133ZM10.2402 13.7812L10.2402 10.582L8.18945 10.582C7.46484 10.582 6.89062 11.1289 6.89062 11.8398L6.89062 12.5098C6.89062 13.2207 7.46484 13.7812 8.18945 13.7812ZM28.0547 13.7812L30.1055 13.7812C30.8438 13.7812 31.4043 13.2207 31.4043 12.5098L31.4043 11.8398C31.4043 11.1289 30.8438 10.582 30.1055 10.582L28.0547 10.582Z" style="fill:var(--color-0,hsl(0 0 0/0.85))"></path>
  <path d="M38.6504 27.2754L38.6504 21.1777C38.6504 20.4531 38.0625 20.1113 37.4199 20.5078L32.5664 23.4883C31.9512 23.8711 31.9375 24.5957 32.5664 24.9785L37.4199 27.9316C38.0625 28.3281 38.6504 28.0137 38.6504 27.2754Z" style="fill:var(--color-1,hsl(0 0 0/0.85))"></path>
 </g>
</svg>