<svg version="1.1" xmlns="http://www.w3.org/2000/svg" xmlns:xlink="http://www.w3.org/1999/xlink" viewBox="0 0 46.3901 35.2131">
 <g>
  
  <path d="M12.6745 25.9396L14.0417 25.1466L13.1531 23.6017L11.7859 24.3946C10.7468 24.9962 9.96752 24.7364 9.31127 23.588L8.62767 22.4259C7.80736 20.9903 8.24486 19.3224 9.96752 18.0235L13.5359 15.3439C14.0691 14.9337 14.3835 14.5782 14.6433 14.0997L16.9128 9.80675C18.2663 7.26378 19.4285 6.17003 23.0515 4.06456L24.5007 3.23058C27.0163 1.78136 29.5456 1.56261 33.2781 2.30089C33.948 2.42393 34.2624 2.38292 34.9324 2.2462L36.1355 1.98643C37.4343 1.69933 38.2683 1.98643 38.8562 2.98448L40.3874 5.63683C41.0574 6.79893 40.8933 7.5919 39.8542 8.19347L38.4597 8.98643L39.3484 10.5314L40.7429 9.73839C42.8484 8.52159 43.2175 6.97667 41.9324 4.74815L40.4011 2.09581C39.362 0.318466 37.8581-0.31044 35.698 0.140731L33.8933 0.523544C30.9812-0.037003 27.2214-0.392472 23.612 1.68565L22.1628 2.53331C18.2527 4.78917 16.8171 6.12901 15.3269 8.95909L12.8523 13.6349L8.90111 16.6153C6.4265 18.4747 5.78392 21.045 7.09642 23.3146L7.79369 24.5314C9.0515 26.7189 10.5828 27.1427 12.6745 25.9396ZM19.0867 22.2345L34.4538 13.3614L33.5652 11.8165L18.1843 20.7032ZM17.8699 25.7071C19.7976 24.5997 20.4265 22.2345 19.3191 20.3204C18.2117 18.4064 15.8601 17.7775 13.946 18.8849C12.0183 19.9923 11.3894 22.3439 12.4968 24.2579C13.6042 26.172 15.9558 26.8146 17.8699 25.7071ZM17.0359 24.2579C15.9421 24.8868 14.5749 24.5177 13.946 23.4239C13.3171 22.3302 13.6726 20.963 14.78 20.3341C15.8738 19.7052 17.241 20.0607 17.8699 21.1544C18.4988 22.2618 18.1433 23.6153 17.0359 24.2579ZM37.9402 14.1271C39.8542 13.0196 40.4831 10.6544 39.3757 8.74034C38.2683 6.82628 35.9167 6.19737 34.0027 7.30479C32.0749 8.41222 31.446 10.7638 32.5535 12.6778C33.6609 14.5919 36.0124 15.2345 37.9402 14.1271ZM37.0925 12.6778C35.9988 13.3067 34.6316 12.9376 34.0027 11.8439C33.3738 10.7501 33.7429 9.38292 34.8367 8.75401C35.9304 8.12511 37.2976 8.48058 37.9265 9.57433C38.5554 10.6817 38.1999 12.0353 37.0925 12.6778Z" style="fill:var(--color-0,hsl(0 0 0/0.85))"></path>
  <path d="M6.15306 27.84L3.29564 22.8497C2.81713 22.0157 1.84642 22.2345 1.57299 23.0411L0.069079 27.2521C-0.135999 27.84 0.123766 28.3048 0.739001 28.4142L5.12767 29.2345C5.989 29.3985 6.64525 28.6603 6.15306 27.84ZM8.5183 34.5392C8.84642 35.086 9.51634 35.2364 10.0222 34.963L45.5007 14.4825C46.0066 14.2091 46.198 13.5255 45.8972 13.006C45.5828 12.4591 44.8992 12.295 44.3933 12.5821L8.91478 33.0626C8.42259 33.336 8.23119 34.0196 8.5183 34.5392Z" style="fill:var(--color-1,hsl(0 0 0/0.85))"></path>
 </g>
</svg>