<svg version="1.1" xmlns="http://www.w3.org/2000/svg" xmlns:xlink="http://www.w3.org/1999/xlink" viewBox="0 0 34.8482 20.8458">
 <g>
  
  <path d="M2.51493 20.67C3.47196 20.67 3.7454 20.1778 3.85478 19.5489C5.08524 12.7403 7.91532 7.17582 13.9309 1.05082C14.2727 0.695353 13.9993 0.203165 13.5892 0.203165L12.9739 0.203165C12.6321 0.203165 12.3587 0.271525 11.8665 0.668009C6.99931 4.50981 1.96806 10.5528 0.0403227 19.4395C-0.110068 20.0821 0.149698 20.67 0.997354 20.67ZM33.5911 20.67C34.3567 20.67 34.6575 20.1231 34.4114 19.4395C32.1419 13.4102 31.6907 7.70902 33.222 1.00981C33.345 0.462931 33.0169 0.203165 32.5931 0.203165L32.0599 0.203165C31.6087 0.203165 31.3216 0.353556 31.1849 0.777384C29.1067 7.14848 29.2161 13.6016 30.802 19.8633C30.9114 20.3418 31.2395 20.67 31.9368 20.67Z" style="fill:var(--color-0,hsl(0 0 0/0.85))"></path>
  <path d="M7.98368 17.6348C7.91532 18.168 8.27079 18.6329 8.80399 18.7149L9.65165 18.8379C10.1985 18.9063 10.6634 18.5508 10.7454 18.0176L10.8821 16.9786L22.3938 18.5918L22.2434 19.6309C22.1751 20.1641 22.5306 20.6426 23.0638 20.711L23.9114 20.834C24.4583 20.9161 24.9231 20.5606 25.0052 20.0274L25.6751 15.2286C25.8392 14.0118 25.7845 13.2598 25.1556 12.3438L24.5403 11.4551L24.0892 9.18559C23.8431 7.95512 23.1184 7.35356 22.1341 7.09379C21.6556 6.97074 20.097 6.69731 18.2376 6.43754C16.3782 6.17777 14.7923 6.00004 14.3001 5.98637C13.2884 5.9727 12.427 6.34184 11.8528 7.46293L10.7864 9.52738L9.95243 10.211C9.10478 10.9082 8.83134 11.6192 8.66728 12.836ZM12.7552 9.84184C12.4134 9.80082 12.3313 9.52738 12.4817 9.2266L13.1243 7.94145C13.3567 7.4766 13.6438 7.35356 14.0813 7.35356C14.5872 7.35356 15.9954 7.49027 18.0462 7.77738C20.097 8.06449 21.4778 8.32426 21.97 8.46098C22.3938 8.58402 22.6399 8.77543 22.7356 9.29496L22.9954 10.7032C23.0638 11.0313 22.8997 11.2637 22.5579 11.2227ZM11.1282 14.1895C10.677 14.1348 10.4036 13.7657 10.4583 13.3282L10.6224 12.1934C10.677 11.7559 11.0462 11.4961 11.4974 11.5508C11.9349 11.6192 12.222 11.9746 12.1536 12.4121L12.0032 13.5332C11.9349 13.9844 11.5657 14.2579 11.1282 14.1895ZM15.4349 14.4493C15.0931 14.3946 14.888 14.1348 14.9427 13.752L15.052 13.0137C15.0931 12.6446 15.3665 12.4532 15.7083 12.4942L18.9622 12.959C19.3177 13 19.5227 13.2735 19.4681 13.6426L19.3587 14.3672C19.3177 14.75 19.0442 14.9551 18.6888 14.9004ZM22.9954 15.8575C22.5716 15.8028 22.2845 15.4336 22.3392 14.9961L22.5032 13.875C22.5579 13.4375 22.9407 13.1641 23.3782 13.2188C23.8157 13.2871 24.1028 13.6426 24.0345 14.0801L23.8841 15.2149C23.8157 15.6524 23.4466 15.9258 22.9954 15.8575Z" style="fill:var(--color-1,hsl(0 0 0/0.85))"></path>
 </g>
</svg>