<svg version="1.1" xmlns="http://www.w3.org/2000/svg" xmlns:xlink="http://www.w3.org/1999/xlink" viewBox="0 0 27.9453 39.8262">
 <g>
  
  <path d="M9.40625 26.9199C14.6562 26.9199 17.0078 25.7305 17.0078 22.709L17.0078 4.96289C17.0078 1.8457 14.123 0 9.40625 0C4.66211 0 1.79102 1.8457 1.79102 4.96289L1.79102 22.709C1.79102 25.7305 4.15625 26.9199 9.40625 26.9199ZM9.40625 24.7871C5.48242 24.7871 3.95117 24.1855 3.95117 22.6406L3.95117 4.96289C3.95117 3.18555 5.85156 2.16016 9.40625 2.16016C12.9473 2.16016 14.8477 3.18555 14.8477 4.96289L14.8477 22.6406C14.8477 24.1855 13.3164 24.7871 9.40625 24.7871ZM9.40625 11.334C10.3906 11.334 11.8809 11.416 12.3867 11.416C13.2207 11.416 13.5898 11.0742 13.6719 10.2129L13.8359 8.29883C13.9727 6.72656 12.9199 6.125 9.40625 6.125C5.86523 6.125 4.82617 6.72656 4.96289 8.29883L5.12695 10.2129C5.20898 11.0742 5.57812 11.416 6.39844 11.416C6.91797 11.416 8.46289 11.334 9.40625 11.334ZM9.40625 22.3125C12.9199 22.3125 14.041 21.793 13.7949 20.166L13.6445 19.2363C13.4395 17.9375 12.4414 17.5273 9.40625 17.5273C6.35742 17.5273 5.3457 17.9375 5.14062 19.2363L5.00391 20.166C4.75781 21.793 5.86523 22.3125 9.40625 22.3125ZM15.832 10.7734L17.582 10.7734C18.2656 10.7734 18.7852 10.2539 18.7852 9.61133L18.7852 9.0918C18.7852 8.43555 18.2656 7.92969 17.582 7.92969L15.832 7.92969ZM2.95312 10.7734L2.95312 7.92969L1.20312 7.92969C0.533203 7.92969 0 8.43555 0 9.0918L0 9.61133C0 10.2539 0.533203 10.7734 1.20312 10.7734Z" style="fill:var(--color-0,hsl(0 0 0/0.85))"></path>
  <path d="M21.3965 38.7871L17.6641 35.0547C16.9668 34.3574 16.9531 33.5371 17.6504 32.8398L21.123 29.3672C21.8203 28.6699 22.5996 28.6426 23.3105 29.3535L27.0703 33.1133C27.7402 33.7832 27.7949 34.6309 27.084 35.3418L23.625 38.8008C22.9277 39.498 22.0938 39.4844 21.3965 38.7871ZM18.0332 31.6641L15.4902 31.459C15.2578 31.4453 15.0527 31.377 14.9297 31.2539C14.6562 30.9805 14.6699 30.5977 14.9707 30.3105L18.6074 26.6738C18.8809 26.3867 19.2637 26.373 19.5371 26.6465C19.6602 26.7695 19.7285 26.9883 19.7559 27.1934L19.9609 29.75Z" style="fill:var(--color-1,hsl(0 0 0/0.85))"></path>
 </g>
</svg>