<svg version="1.1" xmlns="http://www.w3.org/2000/svg" xmlns:xlink="http://www.w3.org/1999/xlink" viewBox="0 0 25.7715 22.1895">
 <g>
  
  <path d="M25.416 2.33789L25.416 0.136719C22.1758 0.369141 20.207 1.08008 17.6641 2.67969L12.127 6.15234L6.07031 6.89062C2.2832 7.35547 0 9.70703 0 12.9336L0 14.6836C0 17.8008 1.38086 19.1953 4.34766 19.1953L6.30273 19.1953L6.30273 16.9941L4.34766 16.9941C2.87109 16.9941 2.20117 16.2422 2.20117 14.6016L2.20117 12.9336C2.20117 10.9102 3.70508 9.37891 6.34375 9.06445L11.8125 8.39453C12.6328 8.28516 13.1934 8.09375 13.7676 7.75195L18.8398 4.55273C21.0547 3.17188 22.668 2.55664 25.416 2.33789ZM25.416 19.1953L25.416 16.9941L13.4805 16.9941L13.4805 19.1953ZM10.0625 22.1484C12.7832 22.1484 14.916 20.0156 14.916 17.2949C14.916 14.5605 12.7832 12.4277 10.0625 12.4277C7.32812 12.4277 5.19531 14.5605 5.19531 17.2949C5.19531 20.0156 7.32812 22.1484 10.0625 22.1484ZM10.0625 20.084C8.49023 20.084 7.25977 18.8535 7.25977 17.2949C7.25977 15.7227 8.49023 14.4922 10.0625 14.4922C11.6211 14.4922 12.8516 15.7227 12.8516 17.2949C12.8516 18.8535 11.6211 20.084 10.0625 20.084ZM1.01172 1.96875L5.37305 1.96875C5.87891 1.96875 6.27539 2.0918 6.60352 2.41992L11.457 7.25977L13.3164 6.23438L8.20312 1.12109C7.41016 0.328125 6.37109 0 5.12695 0L1.01172 0C0.382812 0 0 0.382812 0 0.970703C0 1.55859 0.382812 1.96875 1.01172 1.96875Z" style="fill:var(--color-0,hsl(0 0 0/0.85))"></path>
 </g>
</svg>