<svg version="1.1" xmlns="http://www.w3.org/2000/svg" xmlns:xlink="http://www.w3.org/1999/xlink" viewBox="0 0 32.7031 25.416">
 <g>
  
  <path d="M0 23.5566C0 24.5684 0.792969 25.3613 1.81836 25.3613L3.41797 25.3613C4.44336 25.3613 5.23633 24.5684 5.23633 23.5566L5.23633 21.5742L27.125 21.5742L27.125 23.5566C27.125 24.5684 27.9043 25.3613 28.9297 25.3613L30.543 25.3613C31.5684 25.3613 32.3477 24.5684 32.3477 23.5566L32.3477 14.4238C32.3477 12.127 32.0332 10.7461 30.625 9.20117L29.2441 7.71094L27.8086 3.5957C27.0293 1.35352 25.5117 0.410156 23.625 0.191406C22.709 0.0820312 19.7148 0 16.1738 0C12.6465 0 9.65234 0.0820312 8.73633 0.191406C6.83594 0.410156 5.31836 1.35352 4.53906 3.5957L3.10352 7.71094L1.73633 9.20117C0.314453 10.7461 0 12.127 0 14.4238ZM6.86328 7.7793C6.19336 7.7793 5.97461 7.30078 6.17969 6.69922L7.02734 4.14258C7.3418 3.19922 7.84766 2.89844 8.66797 2.78906C9.625 2.65234 12.2773 2.55664 16.1738 2.55664C20.084 2.55664 22.7227 2.65234 23.666 2.78906C24.5 2.89844 24.9922 3.19922 25.3066 4.14258L26.168 6.69922C26.373 7.30078 26.1406 7.7793 25.4844 7.7793ZM4.94922 16.3242C4.10156 16.3242 3.48633 15.709 3.48633 14.875L3.48633 12.7422C3.48633 11.9082 4.10156 11.3066 4.94922 11.3066C5.7832 11.3066 6.39844 11.8945 6.39844 12.7422L6.39844 14.875C6.39844 15.7227 5.7832 16.3242 4.94922 16.3242ZM13.0703 15.668C12.4004 15.668 11.9492 15.2305 11.9492 14.4922L11.9492 13.1113C11.9492 12.4004 12.4004 11.9629 13.0703 11.9629L19.2363 11.9629C19.9199 11.9629 20.3711 12.4004 20.3711 13.1113L20.3711 14.4922C20.3711 15.2305 19.9199 15.668 19.2363 15.668ZM27.5352 16.3242C26.7148 16.3242 26.0859 15.709 26.0859 14.875L26.0859 12.7422C26.0859 11.9082 26.7148 11.3066 27.5352 11.3066C28.3828 11.3066 28.998 11.8945 28.998 12.7422L28.998 14.875C28.998 15.7227 28.3828 16.3242 27.5352 16.3242Z" style="fill:var(--color-0,hsl(0 0 0/0.85))"></path>
 </g>
</svg>