<svg version="1.1" xmlns="http://www.w3.org/2000/svg" xmlns:xlink="http://www.w3.org/1999/xlink" viewBox="0 0 49.0684 22.1621">
 <g>
  
  <path d="M18.334 10.5684C16.4199 10.5684 15.1074 9.89844 13.9316 8.35352L10.2539 3.5C9.48828 2.50195 8.91406 2.24219 7.39648 2.24219L4.0332 2.24219C3.43164 2.24219 2.93945 1.73633 2.93945 1.13477C2.93945 0.533203 3.43164 0.0410156 4.0332 0.0410156L7.39648 0.0410156C9.47461 0.0410156 10.8281 0.642578 11.9766 2.16016L15.6816 6.98633C16.5293 8.08008 17.0488 8.36719 18.334 8.36719L21.3281 8.36719L21.3281 7.20508C21.3281 6.23438 22.1758 5.94727 22.9004 6.42578L26.3184 8.62695C27.002 9.06445 26.9883 9.88477 26.332 10.3086L22.8867 12.5234C22.1758 12.9883 21.3281 12.7012 21.3281 11.7441L21.3281 10.5684ZM4.34766 19.1816L5.20898 19.1816C5.12695 18.7578 5.07227 18.334 5.07227 17.8965C5.07227 14.7109 7.57422 12.209 10.7734 12.209C13.9727 12.209 16.4746 14.7109 16.4746 17.8965C16.4746 18.334 16.4199 18.7578 16.3242 19.1816L32.3613 19.1816C32.2793 18.7578 32.2246 18.334 32.2246 17.8965C32.2246 14.7109 34.7402 12.209 37.9258 12.209C41.125 12.209 43.6406 14.7109 43.6406 17.8965C43.6406 18.334 43.5859 18.7578 43.4902 19.1816L44.3652 19.1816C47.3594 19.1816 48.7129 17.7598 48.7129 14.5879L48.7129 10.8008C48.7129 8.25781 47.4824 6.67188 44.8848 5.82422L42.7109 5.09961C39.9492 2.74805 36.1484 0 31.0215 0L28.9434 0C23.3652 0 21.0137 0.560547 17.6641 2.66602L12.127 6.13867L6.07031 6.87695C2.2832 7.3418 0 9.69336 0 12.9199L0 14.6699C0 17.7871 1.38086 19.1816 4.34766 19.1816ZM10.7734 21.998C13.084 21.998 14.8887 20.1934 14.8887 17.8965C14.8887 15.5996 13.084 13.7949 10.7734 13.7949C8.47656 13.7949 6.67188 15.5996 6.67188 17.8965C6.67188 20.1934 8.47656 21.998 10.7734 21.998ZM37.9258 21.998C40.2363 21.998 42.041 20.1934 42.041 17.8965C42.041 15.5996 40.2363 13.7949 37.9258 13.7949C35.6289 13.7949 33.8242 15.5996 33.8242 17.8965C33.8242 20.1934 35.6289 21.998 37.9258 21.998Z" style="fill:var(--color-0,hsl(0 0 0/0.85))"></path>
 </g>
</svg>