<svg version="1.1" xmlns="http://www.w3.org/2000/svg" xmlns:xlink="http://www.w3.org/1999/xlink" viewBox="0 0 27.002 32.8262">
 <g>
  
  <path d="M13.2617 2.26953C16.2148 2.26953 18.8809 3.29492 20.918 5.12695C21.4785 5.63281 22.1211 5.75586 22.6133 5.33203C23.1328 4.88086 23.1328 4.12891 22.5449 3.5957C20.084 1.32617 16.8027 0.0410156 13.2617 0.0410156C9.7207 0.0410156 6.43945 1.32617 3.97852 3.5957C3.4043 4.12891 3.4043 4.88086 3.91016 5.33203C4.41602 5.75586 5.04492 5.63281 5.60547 5.12695C7.64258 3.29492 10.3223 2.26953 13.2617 2.26953Z" style="fill:var(--color-0,hsl(0 0 0/0.85))"></path>
  <path d="M13.2891 7.75195C14.7109 7.75195 16.0234 8.16211 17.0488 8.98242C17.6367 9.40625 18.252 9.59766 18.7441 9.16016C19.25 8.70898 19.2637 7.88867 18.6484 7.39648C17.1719 6.20703 15.2988 5.52344 13.2891 5.52344C11.2793 5.52344 9.40625 6.20703 7.92969 7.39648C7.30078 7.88867 7.31445 8.70898 7.83398 9.16016C8.32617 9.59766 8.92773 9.40625 9.5293 8.98242C10.582 8.18945 11.8672 7.75195 13.2891 7.75195Z" style="fill:var(--color-1,hsl(0 0 0/0.85))"></path>
  <path d="M0 27.2617C0 28.8203 0.916016 29.9688 2.58398 29.9688L24.0625 29.9688C25.7168 29.9688 26.6465 28.8203 26.6465 27.2617L26.6465 23.9531C26.6465 22.0801 26.3867 20.877 25.1836 19.5781L24.0898 18.3887L22.9551 15.1074C22.2988 13.207 20.9727 12.3867 19.373 12.209C18.6211 12.1133 16.1738 12.0449 13.3164 12.0449C10.4453 12.0449 8.02539 12.1133 7.25977 12.209C5.66016 12.3867 4.34766 13.2207 3.69141 15.1074L2.5293 18.3887L1.46289 19.5781C0.259766 20.8906 0 22.0801 0 23.9531ZM1.88672 26.8242L1.88672 23.9531C1.88672 22.4629 2.05078 21.7793 2.93945 20.7539L4.26562 19.2363L5.41406 15.9141C5.85156 14.6426 6.50781 14.2461 7.49219 14.123C8.18945 14.041 10.4043 13.9453 13.3164 13.9453C16.2285 13.9453 18.457 14.041 19.1543 14.123C20.1387 14.2461 20.7949 14.6426 21.2324 15.9141L22.3672 19.2363L23.707 20.7539C24.5957 21.7793 24.7598 22.4629 24.7598 23.9531L24.7598 26.8242C24.7598 27.6445 24.4863 28.082 23.666 28.082L2.98047 28.082C2.16016 28.082 1.88672 27.6445 1.88672 26.8242ZM6.20703 18.9355L20.4258 18.9355C20.9453 18.9355 21.1094 18.5664 20.9453 18.1152L20.3027 16.1602C20.0566 15.4492 19.6602 15.1895 19.0176 15.1074C18.293 14.998 16.2969 14.916 13.3164 14.916C10.3359 14.916 8.33984 14.998 7.61523 15.1074C6.98633 15.1895 6.58984 15.4492 6.34375 16.1602L5.6875 18.1152C5.52344 18.5664 5.70117 18.9355 6.20703 18.9355ZM4.77148 25.3613C5.41406 25.3613 5.89258 24.8965 5.89258 24.2402L5.89258 22.6133C5.89258 21.957 5.41406 21.5059 4.77148 21.5059C4.12891 21.5059 3.65039 21.9707 3.65039 22.6133L3.65039 24.2402C3.65039 24.8828 4.12891 25.3613 4.77148 25.3613ZM10.9512 24.8691L15.6543 24.8691C16.1738 24.8691 16.5293 24.5273 16.5293 23.9531L16.5293 22.8867C16.5293 22.3398 16.1738 22.0117 15.6543 22.0117L10.9512 22.0117C10.4316 22.0117 10.0898 22.3398 10.0898 22.8867L10.0898 23.9531C10.0898 24.5273 10.4316 24.8691 10.9512 24.8691ZM21.9707 25.3613C22.627 25.3613 23.1055 24.8965 23.1055 24.2402L23.1055 22.6133C23.1055 21.957 22.627 21.5059 21.9707 21.5059C21.3555 21.5059 20.8633 21.9844 20.8633 22.6133L20.8633 24.2402C20.8633 24.8828 21.3555 25.3613 21.9707 25.3613ZM2.24219 32.8262L3.55469 32.8262C4.38867 32.8262 5.03125 32.1836 5.03125 31.3633L5.03125 29.0801L0.765625 28.4648L0.765625 31.3633C0.765625 32.1836 1.42188 32.8262 2.24219 32.8262ZM23.0781 32.8262L24.4043 32.8262C25.2246 32.8262 25.8672 32.1836 25.8672 31.3633L25.8672 28.4648L21.6152 29.0801L21.6152 31.3633C21.6152 32.1836 22.2441 32.8262 23.0781 32.8262Z" style="fill:var(--color-2,hsl(0 0 0/0.85))"></path>
 </g>
</svg>