<svg version="1.1" xmlns="http://www.w3.org/2000/svg" xmlns:xlink="http://www.w3.org/1999/xlink" viewBox="0 0 45.7051 32.5254">
 <g>
  
  <path d="M4.04688 26.25L5.87891 26.25L5.87891 24.1992L4.04688 24.1992C2.66602 24.1992 2.05078 23.502 2.05078 21.9707L2.05078 20.4258C2.05078 18.5254 3.44531 17.1035 5.90625 16.8164L10.9922 16.1875C11.7715 16.0918 12.2773 15.9141 12.8105 15.5859L17.541 12.6191C20.3438 10.8691 22.1348 10.4453 26.9473 10.4453L28.875 10.4453C32.2109 10.4453 34.8633 11.6758 38.1445 14.5605C38.7461 15.0664 39.0742 15.2031 39.8262 15.4492L41.166 15.8867C42.6289 16.3516 43.2988 17.1035 43.2988 18.4434L43.2988 21.9707C43.2988 23.502 42.6699 24.1992 41.3027 24.1992L39.457 24.1992L39.457 26.25L41.3027 26.25C44.0918 26.25 45.3496 24.9238 45.3496 21.9707L45.3496 18.4434C45.3496 16.0781 44.2012 14.6016 41.7949 13.8086L39.7715 13.1387C37.2012 10.9102 33.6602 8.39453 28.875 8.39453L26.9473 8.39453C21.752 8.39453 19.5645 8.91406 16.4473 10.8691L11.293 14.0957L5.64648 14.793C2.11914 15.2305 0 17.4043 0 20.4258L0 22.0391C0 24.9512 1.28516 26.25 4.04688 26.25ZM12.5508 26.25L32.9629 26.25L32.9629 24.1992L12.5508 24.1992ZM9.36523 28.998C11.9082 28.998 13.8906 27.0156 13.8906 24.4727C13.8906 21.9297 11.9082 19.9473 9.36523 19.9473C6.82227 19.9473 4.83984 21.9297 4.83984 24.4727C4.83984 27.0156 6.82227 28.998 9.36523 28.998ZM9.36523 27.084C7.90234 27.084 6.75391 25.9355 6.75391 24.4727C6.75391 23.0234 7.90234 21.875 9.36523 21.875C10.8145 21.875 11.9629 23.0234 11.9629 24.4727C11.9629 25.9355 10.8145 27.084 9.36523 27.084ZM35.9844 28.998C38.5273 28.998 40.5098 27.0156 40.5098 24.4727C40.5098 21.9297 38.5273 19.9473 35.9844 19.9473C33.4414 19.9473 31.459 21.9297 31.459 24.4727C31.459 27.0156 33.4414 28.998 35.9844 28.998ZM35.9844 27.084C34.5352 27.084 33.3867 25.9355 33.3867 24.4727C33.3867 23.0234 34.5352 21.875 35.9844 21.875C37.4336 21.875 38.582 23.0234 38.582 24.4727C38.582 25.9355 37.4336 27.084 35.9844 27.084Z" style="fill:var(--color-0,hsl(0 0 0/0.85))"></path>
  <path d="M20.4395 6.16602L34.9727 6.16602C36.0664 6.16602 36.668 5.45508 36.668 4.34766L36.668 2.99414C36.668 1.01172 35.6562 0 33.3457 0L30.7207 0C28.2734 0 26.3047 0.642578 23.1465 1.94141L20.0703 3.24023C19.209 3.5957 18.9219 4.19727 18.9219 4.78516C18.9219 5.67383 19.3867 6.16602 20.4395 6.16602Z" style="fill:var(--color-1,hsl(0 0 0/0.85))"></path>
 </g>
</svg>