<svg version="1.1" xmlns="http://www.w3.org/2000/svg" xmlns:xlink="http://www.w3.org/1999/xlink" viewBox="0 0 30.7754 35.6973">
 <g>
  
  <path d="M15.2168 7.75195C15.75 7.75195 16.0508 7.45117 16.0645 6.87695L16.2285 0.998047C16.2422 0.423828 15.791 0 15.2031 0C14.6016 0 14.1777 0.410156 14.1914 0.984375L14.3281 6.87695C14.3418 7.4375 14.6562 7.75195 15.2168 7.75195ZM15.2168 11.375C15.8594 11.375 16.4062 10.8691 16.4062 10.2129C16.4062 9.57031 15.8594 9.06445 15.2168 9.06445C14.5605 9.06445 14.0137 9.58398 14.0137 10.2129C14.0137 10.8555 14.5742 11.375 15.2168 11.375ZM30.4199 11.334L30.4199 9.46094C29.9551 9.69336 29.4766 9.95312 28.9844 10.2812L24.9102 12.8379L20.4531 13.3848C17.6777 13.7266 15.9961 15.4492 15.9961 17.8281L15.9961 19.1133C15.9961 21.3965 17.0078 22.4219 19.1953 22.4219L20.6309 22.4219L20.6309 20.8086L19.1953 20.8086C18.1016 20.8086 17.6094 20.2617 17.6094 19.0449L17.6094 17.8281C17.6094 16.3379 18.7168 15.2168 20.6582 14.9707L24.6777 14.4922C25.293 14.4102 25.6895 14.2734 26.1133 14.0137L29.8457 11.6621C30.0371 11.5391 30.2285 11.4297 30.4199 11.334ZM30.4199 22.4219L30.4199 20.8086L25.9219 20.8086L25.9219 22.4219ZM23.3926 24.6094C25.4023 24.6094 26.9746 23.0371 26.9746 21.0273C26.9746 19.0176 25.4023 17.459 23.3926 17.459C21.3828 17.459 19.8242 19.0176 19.8242 21.0273C19.8242 23.0371 21.3828 24.6094 23.3926 24.6094ZM23.3926 23.0918C22.2441 23.0918 21.3281 22.1895 21.3281 21.0273C21.3281 19.8789 22.2441 18.9766 23.3926 18.9766C24.541 18.9766 25.457 19.8789 25.457 21.0273C25.457 22.1895 24.541 23.0918 23.3926 23.0918ZM6.19336 24.6094C8.20312 24.6094 9.76172 23.0371 9.76172 21.0273C9.76172 19.0176 8.20312 17.459 6.19336 17.459C4.18359 17.459 2.61133 19.0176 2.61133 21.0273C2.61133 23.0371 4.18359 24.6094 6.19336 24.6094ZM6.19336 23.0918C5.04492 23.0918 4.12891 22.1895 4.12891 21.0273C4.12891 19.8789 5.04492 18.9766 6.19336 18.9766C7.32812 18.9766 8.24414 19.8789 8.24414 21.0273C8.24414 22.1895 7.32812 23.0918 6.19336 23.0918ZM0 20.8086L0 22.4219L3.80078 22.4219L3.80078 20.8086ZM8.94141 22.4219L10.3906 22.4219C12.6055 22.4219 13.5898 21.3828 13.5898 19.0449L13.5898 16.2695C13.5898 14.3965 12.6875 13.207 10.7734 12.6055L9.17383 12.0859C7.0957 10.2812 4.36133 8.32617 0.765625 8.32617L0 8.32617L0 9.95312L0.765625 9.95312C3.30859 9.95312 5.35938 10.9648 7.90234 13.1934C8.36719 13.6035 8.62695 13.7129 9.21484 13.8906L10.2949 14.2461C11.4434 14.6152 11.9766 15.2168 11.9766 16.2695L11.9766 19.0449C11.9766 20.2617 11.4707 20.8086 10.3906 20.8086L8.94141 20.8086Z" style="fill:var(--color-0,hsl(0 0 0/0.85))"></path>
  <path d="M9.11914 34.8633C11.4297 34.8633 12.5645 33.168 12.5645 30.9258C12.5645 28.6289 11.4023 26.9473 9.11914 26.9473C6.89062 26.9473 5.67383 28.5879 5.67383 30.9258C5.67383 33.127 6.79492 34.8633 9.11914 34.8633ZM9.11914 33.4141C7.88867 33.4141 7.45117 32.1152 7.45117 30.9258C7.45117 29.627 7.92969 28.4102 9.11914 28.4102C10.3906 28.4102 10.8008 29.7227 10.8008 30.9258C10.8008 32.2246 10.3086 33.4141 9.11914 33.4141ZM14.6836 34.7812C15.2988 34.7812 15.5449 34.3711 15.5449 33.8926L15.5449 31.7734L17.7188 31.7734C18.1699 31.7734 18.4707 31.5273 18.4707 31.0898C18.4707 30.6523 18.1836 30.3926 17.7188 30.3926L15.5449 30.3926L15.5449 28.5879L17.9512 28.5879C18.457 28.5879 18.7305 28.3281 18.7305 27.8633C18.7305 27.3984 18.457 27.1387 17.9512 27.1387L14.6699 27.1387C14.1641 27.1387 13.8086 27.4668 13.8086 28.041L13.8086 33.8926C13.8086 34.3711 14.0684 34.7812 14.6836 34.7812ZM20.6855 34.7812C21.3145 34.7812 21.5605 34.3711 21.5605 33.8926L21.5605 31.7734L23.7344 31.7734C24.1855 31.7734 24.4727 31.5273 24.4727 31.0898C24.4727 30.6523 24.1992 30.3926 23.7344 30.3926L21.5605 30.3926L21.5605 28.5879L23.9668 28.5879C24.459 28.5879 24.7324 28.3281 24.7324 27.8633C24.7324 27.3984 24.459 27.1387 23.9668 27.1387L20.6719 27.1387C20.166 27.1387 19.8105 27.4668 19.8105 28.041L19.8105 33.8926C19.8105 34.3711 20.0703 34.7812 20.6855 34.7812Z" style="fill:var(--color-1,hsl(0 0 0/0.85))"></path>
 </g>
</svg>