<svg version="1.1" xmlns="http://www.w3.org/2000/svg" xmlns:xlink="http://www.w3.org/1999/xlink" viewBox="0 0 35.8482 27.002">
 <g>
  
  <path d="M3.8694 9.14648C4.9358 7.60156 6.41237 6.49414 8.01198 5.82422C8.84596 5.48242 8.90065 4.7168 8.57252 4.21094C8.32643 3.82812 7.84791 3.58203 7.30104 3.78711C5.26393 4.59375 3.50026 6.07031 2.17409 7.9707C0.861585 9.88477 0.0549449 12.0176 0.000257372 14.2324C-0.0134145 14.9023 0.519789 15.3125 1.08034 15.3125C1.61354 15.3262 2.1194 14.957 2.16041 14.1914C2.24244 12.4688 2.77565 10.7051 3.8694 9.14648ZM17.7464 2.05078C19.6331 2.05078 21.3831 2.61133 22.8596 3.54102C23.5569 3.97852 24.1585 3.69141 24.4456 3.21289C24.678 2.74805 24.637 2.14648 24.1174 1.79102C22.2854 0.574219 20.0706 0 17.7464 0C15.4221 0 13.2073 0.574219 11.3753 1.79102C10.8557 2.14648 10.801 2.74805 11.0471 3.21289C11.3342 3.69141 11.9358 3.97852 12.6331 3.54102C14.1096 2.61133 15.8596 2.05078 17.7464 2.05078ZM31.6233 9.14648C32.7171 10.7051 33.2503 12.4688 33.3323 14.1914C33.3733 14.957 33.8792 15.3262 34.4124 15.3125C34.9592 15.3125 35.5061 14.9023 35.4924 14.2324C35.4378 12.0176 34.6311 9.88477 33.3186 7.9707C31.9924 6.07031 30.2288 4.59375 28.1917 3.78711C27.6448 3.58203 27.1663 3.82812 26.9202 4.21094C26.5921 4.7168 26.6467 5.48242 27.4807 5.82422C29.0803 6.49414 30.5569 7.60156 31.6233 9.14648Z" style="fill:var(--color-0,hsl(0 0 0/0.85))"></path>
  <path d="M7.82057 11.9082C8.29909 11.2109 8.90065 10.6777 9.66627 10.2812C10.4319 9.87109 10.5276 9.24219 10.2542 8.77734C10.0081 8.32617 9.42018 8.06641 8.83229 8.38086C7.87526 8.87305 6.86354 9.66602 6.09791 10.7324C5.3733 11.7988 4.96315 13.0293 4.82643 14.1094C4.7444 14.6426 5.05885 15.0664 5.45534 15.2305C6.02955 15.4629 6.75416 15.2168 6.90455 14.2324C7.00026 13.3711 7.30104 12.6191 7.82057 11.9082ZM17.7464 6.86328C18.6077 6.86328 19.4006 7.04102 20.1526 7.46484C20.9319 7.83398 21.4924 7.54688 21.7249 7.06836C21.9573 6.60352 21.8206 5.97461 21.2464 5.67383C20.2893 5.16797 19.0452 4.79883 17.7464 4.79883C16.4475 4.79883 15.2034 5.16797 14.2464 5.67383C13.6721 5.97461 13.5354 6.60352 13.7678 7.06836C14.0003 7.54688 14.5608 7.84766 15.3401 7.46484C16.0921 7.04102 16.885 6.86328 17.7464 6.86328ZM27.6721 11.9082C28.1917 12.6191 28.4924 13.3711 28.5881 14.2324C28.7385 15.2168 29.4631 15.4629 30.0374 15.2305C30.4339 15.0664 30.7483 14.6426 30.6663 14.1094C30.5296 13.0293 30.1194 11.7988 29.3948 10.7324C28.6155 9.66602 27.6174 8.87305 26.6604 8.38086C26.0725 8.06641 25.4846 8.32617 25.2385 8.77734C24.9651 9.24219 25.0608 9.87109 25.8264 10.2812C26.5921 10.6777 27.1936 11.2109 27.6721 11.9082Z" style="fill:var(--color-1,hsl(0 0 0/0.85))"></path>
  <path d="M10.1448 26.9746L12.3049 26.9746L12.3049 15.9961C12.3049 14.2051 14.2053 13.1934 17.7464 13.1934C21.301 13.1934 23.2014 14.2051 23.2014 15.9961L23.2014 26.9746L25.3616 26.9746L25.3616 15.9961C25.3616 12.8789 22.4768 11.0332 17.7464 11.0332C13.0159 11.0332 10.1448 12.8789 10.1448 15.9961ZM17.7464 22.3672C18.7444 22.3672 20.2346 22.4492 20.7405 22.4492C21.5745 22.4492 21.9436 22.1074 22.012 21.2461L22.1897 19.332C22.3264 17.7598 21.2737 17.1582 17.7464 17.1582C14.219 17.1582 13.1799 17.7598 13.3167 19.332L13.4807 21.2461C13.5491 22.1074 13.9319 22.4492 14.7522 22.4492C15.2717 22.4492 16.8167 22.3672 17.7464 22.3672ZM11.3069 21.8066L11.3069 18.9629L9.5569 18.9629C8.88698 18.9629 8.35377 19.4688 8.35377 20.125L8.35377 20.6445C8.35377 21.2871 8.88698 21.8066 9.5569 21.8066ZM24.1858 21.8066L25.9358 21.8066C26.6194 21.8066 27.1389 21.2871 27.1389 20.6445L27.1389 20.125C27.1389 19.4688 26.6194 18.9629 25.9358 18.9629L24.1858 18.9629Z" style="fill:var(--color-2,hsl(0 0 0/0.85))"></path>
 </g>
</svg>