<svg version="1.1" xmlns="http://www.w3.org/2000/svg" xmlns:xlink="http://www.w3.org/1999/xlink" viewBox="0 0 49.0684 34.1113">
 <g>
  
  <path d="M4.34766 25.1562L5.20898 25.1562C5.12695 24.7324 5.07227 24.3086 5.07227 23.8711C5.07227 20.6855 7.57422 18.1836 10.7734 18.1836C13.9727 18.1836 16.4746 20.6855 16.4746 23.8711C16.4746 24.3086 16.4199 24.7324 16.3242 25.1562L32.3613 25.1562C32.2793 24.7324 32.2246 24.3086 32.2246 23.8711C32.2246 20.6855 34.7402 18.1836 37.9258 18.1836C41.125 18.1836 43.6406 20.6855 43.6406 23.8711C43.6406 24.3086 43.5859 24.7324 43.4902 25.1562L44.3652 25.1562C47.3594 25.1562 48.7129 23.7344 48.7129 20.5625L48.7129 16.7754C48.7129 14.2324 47.4824 12.6465 44.8848 11.7988L42.7109 11.0742C39.9492 8.72266 36.1484 5.97461 31.0215 5.97461L28.9434 5.97461C23.3652 5.97461 21.0137 6.53516 17.6641 8.64062L12.127 12.1133L6.07031 12.8516C2.2832 13.3164 0 15.668 0 18.8945L0 20.6445C0 23.7617 1.38086 25.1562 4.34766 25.1562ZM10.7734 27.9727C13.084 27.9727 14.8887 26.168 14.8887 23.8711C14.8887 21.5742 13.084 19.7695 10.7734 19.7695C8.47656 19.7695 6.67188 21.5742 6.67188 23.8711C6.67188 26.168 8.47656 27.9727 10.7734 27.9727ZM37.9258 27.9727C40.2363 27.9727 42.041 26.168 42.041 23.8711C42.041 21.5742 40.2363 19.7695 37.9258 19.7695C35.6289 19.7695 33.8242 21.5742 33.8242 23.8711C33.8242 26.168 35.6289 27.9727 37.9258 27.9727ZM25.3887 18.9766C24.377 18.9766 23.5293 18.1426 23.5293 17.1719C23.5293 16.2012 24.3496 15.3945 25.3887 15.3945C26.4141 15.3945 27.248 16.2012 27.248 17.1719C27.248 18.1426 26.4004 18.9766 25.3887 18.9766ZM25.3887 12.7012C24.6914 12.7012 24.1992 12.209 24.1719 11.4844L23.8848 1.50391C23.8574 0.601562 24.459 0 25.3887 0C26.3184 0 26.9199 0.601562 26.8926 1.50391L26.5918 11.4844C26.5645 12.209 26.0859 12.7012 25.3887 12.7012Z" style="fill:var(--color-0,#ff3b30)"></path>
 </g>
</svg>