<svg version="1.1" xmlns="http://www.w3.org/2000/svg" xmlns:xlink="http://www.w3.org/1999/xlink" viewBox="0 0 27.0703 35.4512">
 <g>
  
  <path d="M23.2969 32.0059C25.416 29.9141 26.5371 27.2344 26.7148 24.3359C26.7695 23.584 26.25 23.2012 25.7168 23.2012C25.0332 23.2012 24.6777 23.543 24.6094 24.418C24.4727 26.6738 23.543 28.8477 21.8477 30.5566C20.1387 32.252 17.9512 33.1816 15.709 33.3184C14.9297 33.373 14.4648 33.7559 14.4648 34.3438C14.4648 34.9863 14.9434 35.4375 15.6406 35.4375C18.5391 35.4375 21.2051 34.1113 23.2969 32.0059Z" style="fill:var(--color-0,hsl(0 0 0/0.85))"></path>
  <path d="M19.9062 28.6016C21.0957 27.4121 21.8066 25.9355 21.9844 24.2676C22.0801 23.5293 21.6016 23.0645 21 23.0645C20.3301 23.0645 20.0293 23.3789 19.9062 24.1445C19.7559 25.3066 19.2773 26.3184 18.457 27.1523C17.5957 28 16.6113 28.4922 15.5586 28.6016C14.7109 28.7246 14.3281 29.1621 14.3281 29.709C14.3281 30.2969 14.7656 30.707 15.4082 30.707C16.584 30.707 18.498 30.0098 19.9062 28.6016Z" style="fill:var(--color-1,hsl(0 0 0/0.85))"></path>
  <path d="M9.37891 26.9199C14.6426 26.9199 16.9941 25.7305 16.9941 22.709L16.9941 4.96289C16.9941 1.8457 14.123 0 9.37891 0C4.66211 0 1.79102 1.8457 1.79102 4.96289L1.79102 22.709C1.79102 25.7305 4.12891 26.9199 9.37891 26.9199ZM9.37891 24.7871C5.46875 24.7871 3.95117 24.1855 3.95117 22.6406L3.95117 4.96289C3.95117 3.17188 5.83789 2.16016 9.37891 2.16016C12.9473 2.16016 14.8477 3.17188 14.8477 4.96289L14.8477 22.6406C14.8477 24.1855 13.3164 24.7871 9.37891 24.7871ZM9.39258 11.334C10.3223 11.334 11.8809 11.416 12.3867 11.416C13.207 11.416 13.5898 11.0742 13.6582 10.2129L13.8223 8.29883C13.959 6.72656 12.9199 6.125 9.39258 6.125C5.86523 6.125 4.82617 6.72656 4.96289 8.29883L5.12695 10.2129C5.19531 11.0742 5.57812 11.416 6.39844 11.416C6.91797 11.416 8.4082 11.334 9.39258 11.334ZM9.39258 22.3125C12.9199 22.3125 14.041 21.793 13.7812 20.166L13.6445 19.2363C13.4395 17.9375 12.4277 17.5273 9.39258 17.5273C6.35742 17.5273 5.3457 17.9375 5.14062 19.2363L5.00391 20.166C4.74414 21.793 5.86523 22.3125 9.39258 22.3125ZM2.95312 10.7734L2.95312 7.92969L1.20312 7.92969C0.519531 7.92969 0 8.43555 0 9.0918L0 9.61133C0 10.2539 0.519531 10.7734 1.20312 10.7734ZM15.832 10.7734L17.582 10.7734C18.2656 10.7734 18.7852 10.2539 18.7852 9.61133L18.7852 9.0918C18.7852 8.43555 18.2656 7.92969 17.582 7.92969L15.832 7.92969Z" style="fill:var(--color-2,hsl(0 0 0/0.85))"></path>
 </g>
</svg>