<svg version="1.1" xmlns="http://www.w3.org/2000/svg" xmlns:xlink="http://www.w3.org/1999/xlink" viewBox="0 0 42.7785 28.6426">
 <g>
  
  <path d="M1.10703 28.6152L2.93906 28.6152C3.75937 28.6152 4.15586 28.2324 4.40195 27.6309L11.3609 10.9375C11.566 10.459 11.3473 10.0898 10.8687 10.0898L9.4332 10.0898C8.96836 10.0898 8.66758 10.2949 8.44883 10.7188L0.149999 27.084C-0.20547 27.7949 0.054296 28.6152 1.10703 28.6152ZM39.484 28.6152L41.316 28.6152C42.3824 28.6152 42.6285 27.8086 42.273 27.0977L33.9742 10.7324C33.7555 10.3086 33.4684 10.0898 33.0035 10.0898L31.568 10.0898C31.0895 10.0898 30.8707 10.4727 31.0621 10.9375L38.0211 27.6309C38.2672 28.2324 38.6637 28.6152 39.484 28.6152Z" style="fill:var(--color-0,hsl(0 0 0/0.85))"></path>
  <path d="M11.2652 15.1211L31.1441 15.1211L30.3375 13.1113L12.0582 13.1113Z" style="fill:var(--color-1,hsl(0 0 0/0.85))"></path>
  <path d="M13.6031 11.0742C13.6031 11.5527 13.9723 11.9219 14.4508 11.9219L15.2027 11.9219C15.6949 11.9219 16.0641 11.5527 16.0641 11.0742L16.0641 10.1445L26.3453 10.1445L26.3453 11.0742C26.3453 11.5527 26.7145 11.9219 27.193 11.9219L27.9586 11.9219C28.4371 11.9219 28.8062 11.5527 28.8062 11.0742L28.8062 6.78125C28.8062 5.70117 28.6559 5.04492 27.9996 4.32031L27.3434 3.62305L26.6734 1.69531C26.3043 0.642578 25.5934 0.191406 24.7047 0.0957031C24.2672 0.0410156 22.859 0 21.2047 0C19.5367 0 18.1285 0.0410156 17.7047 0.0957031C16.816 0.191406 16.1051 0.642578 15.7359 1.69531L15.0523 3.62305L14.4098 4.32031C13.7535 5.04492 13.6031 5.70117 13.6031 6.78125ZM16.816 3.66406C16.5152 3.66406 16.4059 3.43164 16.5016 3.14453L16.898 1.95508C17.0484 1.50391 17.2809 1.36719 17.6773 1.3125C18.1285 1.24414 19.3727 1.20312 21.2047 1.20312C23.0367 1.20312 24.2809 1.24414 24.7184 1.3125C25.1148 1.36719 25.3473 1.50391 25.4977 1.95508L25.9078 3.14453C26.0035 3.43164 25.8941 3.66406 25.5797 3.66406ZM15.9273 7.66992C15.5309 7.66992 15.2437 7.38281 15.2437 7L15.2437 5.98828C15.2437 5.5918 15.5309 5.31836 15.9273 5.31836C16.3238 5.31836 16.6109 5.5918 16.6109 5.98828L16.6109 7C16.6109 7.39648 16.3238 7.66992 15.9273 7.66992ZM19.7418 7.36914C19.4273 7.36914 19.2223 7.16406 19.2223 6.82227L19.2223 6.16602C19.2223 5.82422 19.4273 5.61914 19.7418 5.61914L22.6402 5.61914C22.9684 5.61914 23.1734 5.82422 23.1734 6.16602L23.1734 6.82227C23.1734 7.16406 22.9684 7.36914 22.6402 7.36914ZM26.5504 7.66992C26.1539 7.66992 25.8668 7.38281 25.8668 7L25.8668 5.98828C25.8668 5.60547 26.1539 5.31836 26.5504 5.31836C26.9469 5.31836 27.234 5.5918 27.234 5.98828L27.234 7C27.234 7.39648 26.9469 7.66992 26.5504 7.66992Z" style="fill:var(--color-2,hsl(0 0 0/0.85))"></path>
 </g>
</svg>