<svg version="1.1" xmlns="http://www.w3.org/2000/svg" xmlns:xlink="http://www.w3.org/1999/xlink" viewBox="0 0 45.7051 38.1138">
 <g>
  
  <path d="M13.8633 27.8411C13.8633 29.9876 12.1816 31.6692 10.0352 31.6692C7.88867 31.6692 6.20703 29.9876 6.20703 27.8411C6.20703 25.7083 7.88867 24.0266 10.0352 24.0266C12.1816 24.0266 13.8633 25.7083 13.8633 27.8411ZM39.1426 27.8411C39.1426 28.9392 38.7024 29.9157 37.9833 30.6056L32.5556 25.1779C33.2453 24.4643 34.2194 24.0266 35.3145 24.0266C37.4609 24.0266 39.1426 25.7083 39.1426 27.8411ZM28.9123 29.0442L15.2031 29.0442C15.2988 28.6477 15.3398 28.2512 15.3398 27.8411C15.3398 24.8743 13.002 22.5501 10.0352 22.5501C7.05469 22.5501 4.7168 24.8743 4.7168 27.8411C4.7168 28.2512 4.77148 28.6477 4.85352 29.0442L4.04688 29.0442C1.28516 29.0442 0 27.7454 0 24.8333L0 23.22C0 20.1985 2.11914 18.0247 5.64648 17.5872L11.293 16.8899L14.6502 14.7883ZM39.7715 15.9329L41.7949 16.6028C44.2012 17.3958 45.3496 18.8723 45.3496 21.2376L45.3496 24.7649C45.3496 27.718 44.0918 29.0442 41.3027 29.0442L40.4824 29.0442C40.5781 28.6477 40.6191 28.2512 40.6191 27.8411C40.6191 24.8743 38.2949 22.5501 35.3145 22.5501C33.8024 22.5501 32.4592 23.1483 31.5046 24.1269L19.4981 12.1204C21.4272 11.4121 23.5406 11.1887 26.9473 11.1887L28.875 11.1887C33.6602 11.1887 37.2012 13.7454 39.7715 15.9329Z" style="fill:var(--color-0,hsl(0 0 0/0.85))"></path>
  <path d="M36.668 5.78834L36.668 7.14185C36.668 8.24928 36.0664 8.96021 34.9727 8.96021L20.4395 8.96021C19.3867 8.96021 18.9219 8.46803 18.9219 7.57935C18.9219 6.99146 19.209 6.3899 20.0703 6.03443L23.1465 4.7356C26.3047 3.43678 28.2734 2.7942 30.7207 2.7942L33.3457 2.7942C35.6562 2.7942 36.668 3.80592 36.668 5.78834Z" style="fill:var(--color-1,hsl(0 0 0/0.85))"></path>
  <path d="M38.3496 36.2083C38.7598 36.6184 39.4434 36.6184 39.8398 36.2083C40.25 35.7981 40.25 35.1282 39.8398 34.718L8.92773 3.81959C8.50391 3.39576 7.84766 3.39576 7.42383 3.81959C7.02734 4.21607 7.01367 4.88599 7.42383 5.30982Z" style="fill:var(--color-2,hsl(0 0 0/0.85))"></path>
 </g>
</svg>