<svg version="1.1" xmlns="http://www.w3.org/2000/svg" xmlns:xlink="http://www.w3.org/1999/xlink" viewBox="0 0 35.0216 35.4512">
 <g>
  
  <path d="M3.42194 32.0059C5.51373 34.1113 8.17975 35.4375 11.0782 35.4375C11.7755 35.4375 12.254 34.9863 12.254 34.3438C12.254 33.7559 11.7891 33.373 11.0098 33.3184C8.76764 33.1816 6.58014 32.252 4.87116 30.5566C3.17584 28.8477 2.24616 26.6738 2.10944 24.418C2.04108 23.543 1.68561 23.2012 1.00202 23.2012C0.468813 23.2012-0.0507185 23.584 0.00396899 24.3359C0.181703 27.2344 1.3028 29.9141 3.42194 32.0059ZM31.2442 32.0059C33.3633 29.9141 34.4844 27.2344 34.6622 24.3359C34.7169 23.584 34.1973 23.2012 33.6641 23.2012C32.9942 23.2012 32.6251 23.543 32.5567 24.418C32.42 26.6738 31.504 28.8477 29.795 30.5566C28.086 32.252 25.9122 33.1816 23.6563 33.3184C22.8907 33.373 22.4258 33.7559 22.4258 34.3438C22.4258 34.9863 22.8907 35.4375 23.6016 35.4375C26.4864 35.4375 29.1524 34.1113 31.2442 32.0059Z" style="fill:var(--color-0,hsl(0 0 0/0.85))"></path>
  <path d="M6.81256 28.6016C8.22077 30.0098 10.1348 30.707 11.3106 30.707C11.9532 30.707 12.3907 30.2969 12.3907 29.709C12.3907 29.1621 12.0079 28.7246 11.1602 28.6016C10.1075 28.4922 9.12311 28 8.26178 27.1523C7.44147 26.3184 6.96295 25.3066 6.81256 24.1445C6.68952 23.3789 6.38873 23.0645 5.71881 23.0645C5.11725 23.0645 4.63873 23.5293 4.73444 24.2676C4.91217 25.9355 5.62311 27.4121 6.81256 28.6016ZM27.8536 28.6016C29.0567 27.4121 29.754 25.9355 29.9317 24.2676C30.0274 23.5293 29.5489 23.0645 28.9473 23.0645C28.2774 23.0645 27.9903 23.3789 27.8673 24.1445C27.7032 25.3066 27.2247 26.3184 26.4044 27.1523C25.543 28 24.5587 28.4922 23.5059 28.6016C22.6583 28.7246 22.2891 29.1621 22.2891 29.709C22.2755 30.2969 22.7266 30.707 23.3555 30.707C24.5313 30.707 26.4454 30.0098 27.8536 28.6016Z" style="fill:var(--color-1,hsl(0 0 0/0.85))"></path>
  <path d="M17.3399 26.9199C22.5899 26.9199 24.9415 25.7305 24.9415 22.709L24.9415 4.96289C24.9415 1.8457 22.0704 0 17.3399 0C12.6094 0 9.73834 1.8457 9.73834 4.96289L9.73834 22.709C9.73834 25.7305 12.0762 26.9199 17.3399 26.9199ZM17.3262 11.252C16.3829 11.252 14.7833 11.334 14.2501 11.334C13.4161 11.334 13.0196 10.9785 12.9512 10.0898L12.7735 8.12109C12.6368 6.49414 13.7032 5.87891 17.3262 5.87891C20.9766 5.87891 22.043 6.49414 21.9063 8.12109L21.7423 10.0898C21.6602 10.9785 21.2774 11.334 20.4298 11.334C19.8829 11.334 18.3516 11.252 17.3262 11.252ZM17.3262 22.5586C13.7032 22.5586 12.5548 22.0254 12.8145 20.3438L12.9649 19.3867C13.17 18.0469 14.209 17.623 17.3262 17.623C20.4708 17.623 21.5098 18.0469 21.7286 19.3867L21.8653 20.3438C22.1387 22.0254 20.9766 22.5586 17.3262 22.5586ZM10.9005 10.7734L10.9005 7.92969L9.15045 7.92969C8.46686 7.92969 7.94733 8.43555 7.94733 9.0918L7.94733 9.61133C7.94733 10.2539 8.46686 10.7734 9.15045 10.7734ZM23.7794 10.7734L25.5294 10.7734C26.213 10.7734 26.7325 10.2539 26.7325 9.61133L26.7325 9.0918C26.7325 8.43555 26.213 7.92969 25.5294 7.92969L23.7794 7.92969Z" style="fill:var(--color-2,hsl(0 0 0/0.85))"></path>
 </g>
</svg>