<svg version="1.1" xmlns="http://www.w3.org/2000/svg" xmlns:xlink="http://www.w3.org/1999/xlink" viewBox="0 0 39.3613 35.3145">
 <g>
  
  <path d="M19.4961 35.3008C26.4004 35.3008 29.3398 33.7832 29.3398 30.0645L29.3398 6.33008C29.3398 2.33789 25.7168 0 19.4961 0C13.2891 0 9.65234 2.33789 9.65234 6.33008L9.65234 30.0645C9.65234 33.7832 12.6055 35.3008 19.4961 35.3008ZM19.4961 33.0312C14.2188 33.0312 11.9355 32.1426 11.9355 29.9551L11.9355 6.33008C11.9355 3.77344 14.7246 2.2832 19.4961 2.2832C24.2812 2.2832 27.0566 3.77344 27.0566 6.33008L27.0566 29.9551C27.0566 32.1426 24.7871 33.0312 19.4961 33.0312ZM19.4961 14.6836C20.7266 14.6836 22.791 14.7793 23.4883 14.7793C24.5137 14.7793 24.9648 14.3828 25.0605 13.3164L25.2793 10.7461C25.457 8.77734 24.0762 7.98438 19.4961 7.98438C14.9297 7.98438 13.5488 8.77734 13.7266 10.7461L13.9453 13.3164C14.041 14.3828 14.4785 14.7793 15.5176 14.7793C16.2012 14.7793 18.2109 14.6836 19.4961 14.6836ZM19.4961 29.2715C24.1035 29.2715 25.5117 28.5879 25.2246 26.5781L25.0469 25.334C24.8281 23.6934 23.4609 23.1465 19.4961 23.1465C15.5449 23.1465 14.1777 23.6934 13.959 25.334L13.7812 26.5781C13.4941 28.5879 14.9023 29.2715 19.4961 29.2715ZM10.5957 13.7812L10.5957 10.582L8.54492 10.582C7.80664 10.582 7.24609 11.1289 7.24609 11.8398L7.24609 12.5098C7.24609 13.2207 7.80664 13.7812 8.54492 13.7812ZM28.4102 13.7812L30.4609 13.7812C31.1992 13.7812 31.7598 13.2207 31.7598 12.5098L31.7598 11.8398C31.7598 11.1289 31.1992 10.582 30.4609 10.582L28.4102 10.582Z" style="fill:var(--color-0,hsl(0 0 0/0.85))"></path>
  <path d="M0 10.7461C0 11.4844 0.587891 11.7988 1.23047 11.4023L6.08398 8.44922C6.71289 8.06641 6.69922 7.3418 6.08398 6.97266L1.23047 3.99219C0.587891 3.5957 0 3.9375 0 4.66211Z" style="fill:var(--color-1,hsl(0 0 0/0.85))"></path>
 </g>
</svg>