<svg version="1.1" xmlns="http://www.w3.org/2000/svg" xmlns:xlink="http://www.w3.org/1999/xlink" viewBox="0 0 49.0684 33.2569">
 <g>
  
  <path d="M4.34766 24.7291L6.30273 24.7291L6.30273 22.5279L4.34766 22.5279C2.87109 22.5279 2.20117 21.7759 2.20117 20.1353L2.20117 18.4673C2.20117 16.4439 3.70508 14.9127 6.34375 14.5982L11.8125 13.9283C12.6328 13.8189 13.1934 13.6275 13.7676 13.2857L18.8398 10.0865C21.8613 8.19976 23.7754 7.74859 28.9434 7.74859L31.0215 7.74859C34.6035 7.74859 37.4473 9.07476 40.9746 12.1646C41.6172 12.7252 41.959 12.8755 42.7793 13.1353L44.2285 13.6002C45.7871 14.106 46.5117 14.9127 46.5117 16.3482L46.5117 20.1353C46.5117 21.7759 45.8418 22.5279 44.3652 22.5279L42.3828 22.5279L42.3828 24.7291L44.3652 24.7291C47.3594 24.7291 48.7129 23.3072 48.7129 20.1353L48.7129 16.3482C48.7129 13.8052 47.4824 12.2193 44.8848 11.3716L42.7109 10.647C39.9492 8.25445 36.1484 5.54742 31.0215 5.54742L28.9434 5.54742C23.3652 5.54742 21.0137 6.10797 17.6641 8.21344L12.127 11.6861L6.07031 12.4244C2.2832 12.8892 0 15.2408 0 18.4673L0 20.2173C0 23.3345 1.38086 24.7291 4.34766 24.7291ZM13.4805 24.7291L35.3965 24.7291L35.3965 22.5279L13.4805 22.5279ZM10.0625 27.6822C12.7832 27.6822 14.916 25.5494 14.916 22.8287C14.916 20.0943 12.7832 17.9615 10.0625 17.9615C7.32812 17.9615 5.19531 20.0943 5.19531 22.8287C5.19531 25.5494 7.32812 27.6822 10.0625 27.6822ZM10.0625 25.6177C8.49023 25.6177 7.25977 24.3873 7.25977 22.8287C7.25977 21.2564 8.49023 20.0259 10.0625 20.0259C11.6211 20.0259 12.8516 21.2564 12.8516 22.8287C12.8516 24.3873 11.6211 25.6177 10.0625 25.6177ZM38.6504 27.6822C41.3848 27.6822 43.5176 25.5494 43.5176 22.8287C43.5176 20.0943 41.3848 17.9615 38.6504 17.9615C35.916 17.9615 33.7832 20.0943 33.7832 22.8287C33.7832 25.5494 35.916 27.6822 38.6504 27.6822ZM38.6504 25.6177C37.0918 25.6177 35.8477 24.3873 35.8477 22.8287C35.8477 21.2564 37.0918 20.0259 38.6504 20.0259C40.209 20.0259 41.4531 21.2564 41.4531 22.8287C41.4531 24.3873 40.209 25.6177 38.6504 25.6177Z" style="fill:var(--color-0,hsl(0 0 0/0.85))"></path>
  <path d="M21.3145 26.6978C20.5762 26.6978 20.2617 27.2994 20.6582 27.942L23.6113 32.7955C23.9805 33.4244 24.7188 33.397 25.0879 32.7955L28.0684 27.942C28.4648 27.2994 28.123 26.6978 27.3984 26.6978Z" style="fill:var(--color-1,hsl(0 0 0/0.85))"></path>
 </g>
</svg>