<svg version="1.1" xmlns="http://www.w3.org/2000/svg" xmlns:xlink="http://www.w3.org/1999/xlink" viewBox="0 0 37.2422 25.0332">
 <g>
  
  <path d="M35.0957 21.6836C36.0664 21.6836 36.8867 20.8906 36.8867 19.9609C36.8867 19.0176 36.0801 18.2383 35.0957 18.2383C34.0977 18.2383 33.3047 19.0176 33.3047 19.9609C33.3047 20.8906 34.125 21.6836 35.0957 21.6836ZM35.0957 15.6133C35.7656 15.6133 36.2305 15.1484 36.2578 14.4512L36.5449 4.77148C36.5723 3.89648 35.998 3.30859 35.0957 3.30859C34.1934 3.30859 33.6055 3.89648 33.6328 4.77148L33.9199 14.4512C33.9473 15.1484 34.4258 15.6133 35.0957 15.6133Z" style="fill:var(--color-0,hsl(0 0 0/0.85))"></path>
  <path d="M4.29297 25.0332L24.6777 25.0332C27.5762 25.0332 28.9707 23.666 28.9707 20.8086L28.9707 4.14258C28.9707 1.4082 27.5625 0.0136719 24.8008 0.0136719L18.1699 0.0136719C15.9414 0.0136719 14.5469 0.492188 12.7422 1.8457L2.11914 9.92578C0.546875 11.1152 0 12.168 0 14.123L0 20.8086C0 23.666 1.4082 25.0332 4.29297 25.0332ZM4.375 12.4277C3.65039 12.4277 3.5 11.6484 4.06055 11.2383L14.2461 3.44531C15.4082 2.51562 16.4199 2.21484 18.1699 2.21484L24.7598 2.21484C26.0312 2.21484 26.7695 2.92578 26.7695 4.25195L26.7695 10.3906C26.7695 11.7031 26.0176 12.4277 24.7598 12.4277Z" style="fill:var(--color-1,hsl(0 0 0/0.85))"></path>
 </g>
</svg>