<svg version="1.1" xmlns="http://www.w3.org/2000/svg" xmlns:xlink="http://www.w3.org/1999/xlink" viewBox="0 0 33.2227 25.8535">
 <g>
  
  <path d="M24.2539 9.99414C29.2305 9.99414 32.8672 13.3848 32.8672 17.8828C32.8672 22.3398 29.2988 25.8262 24.6914 25.8262L6.89062 25.8262C2.63867 25.8262 0.191406 23.1055 0.191406 19.7285C0.191406 16.8301 2.03711 14.5332 4.77148 13.7539C5.25 8.29883 9.74805 4.18359 15.0527 4.18359C19.0996 4.18359 22.4355 6.38477 24.2539 9.99414ZM22.6133 18.5801C22.6133 18.9355 22.8594 19.1543 23.1465 19.1543C23.4883 19.1543 23.6387 18.9082 23.7344 18.7168C23.8164 18.4434 23.9531 18.3066 24.1719 18.3066C24.3906 18.3066 24.541 18.457 24.541 18.6621C24.541 18.9766 24.2266 19.3457 23.9258 19.6602L22.832 20.7676C22.709 20.8906 22.627 21.1094 22.627 21.2734C22.627 21.5605 22.832 21.7793 23.1055 21.7793L25.3887 21.7793C25.6758 21.7793 25.8945 21.5332 25.8945 21.2461C25.8945 20.9863 25.6621 20.7402 25.3887 20.7402L24.3086 20.7402L24.7598 20.2617C25.3203 19.7148 25.7168 19.1953 25.7168 18.6348C25.7168 17.8418 25.0605 17.2539 24.1582 17.2539C23.2012 17.2539 22.6133 17.9785 22.6133 18.5801ZM8.33984 16.7344C8.33984 19.1406 9.29688 21.2461 11.7305 21.2461C13.5625 21.2461 14.6973 19.9199 14.7383 18.4844C14.752 17.9922 14.4512 17.6504 14.0137 17.6504C13.5898 17.6504 13.3711 17.8828 13.248 18.375C13.0977 19.0859 12.6875 19.8379 11.7305 19.8379C10.3359 19.8379 9.89844 18.3477 9.89844 16.7344C9.89844 15.2168 10.3633 13.6855 11.7168 13.6855C12.6738 13.6855 13.0566 14.4238 13.207 15.1348C13.3301 15.627 13.5488 15.8594 13.9727 15.8594C14.4102 15.8594 14.7109 15.5312 14.6973 15.0254C14.6562 13.5898 13.5215 12.2773 11.6895 12.2773C9.37891 12.2773 8.33984 14.2871 8.33984 16.7344ZM15.3262 16.7617C15.3262 19.4961 16.625 21.2461 18.6895 21.2461C20.7402 21.2461 22.0254 19.4961 22.0254 16.7617C22.0254 14.0137 20.7402 12.2773 18.6758 12.2773C16.625 12.2773 15.3262 14.0137 15.3262 16.7617ZM20.4805 16.7617C20.4805 18.7031 19.7969 19.8379 18.6895 19.8379C17.5684 19.8379 16.8848 18.7031 16.8848 16.7617C16.8848 14.8203 17.5684 13.6855 18.6758 13.6855C19.7969 13.6855 20.4805 14.8203 20.4805 16.7617ZM3.81445 10.5273C3.81445 11.5938 2.9668 12.4414 1.91406 12.4414C0.847656 12.4414 0 11.5938 0 10.5273C0 9.47461 0.847656 8.62695 1.91406 8.62695C2.9668 8.62695 3.81445 9.47461 3.81445 10.5273ZM30.3789 5.63281C30.3789 7.13672 29.1895 8.32617 27.7129 8.32617C26.209 8.32617 25.0059 7.13672 25.0059 5.63281C25.0059 4.14258 26.209 2.95312 27.7129 2.95312C29.1895 2.95312 30.3789 4.14258 30.3789 5.63281ZM23.748 1.80469C23.748 2.78906 22.9414 3.5957 21.957 3.5957C20.9727 3.5957 20.166 2.78906 20.166 1.80469C20.166 0.820312 20.9727 0 21.957 0C22.9414 0 23.748 0.820312 23.748 1.80469Z" style="fill:var(--color-0,hsl(0 0 0/0.85))"></path>
 </g>
</svg>