<?xml version="1.0" encoding="UTF-8"?>
<!--Generator: Apple Native CoreSVG 326-->
<!DOCTYPE svg
PUBLIC "-//W3C//DTD SVG 1.1//EN"
       "http://www.w3.org/Graphics/SVG/1.1/DTD/svg11.dtd">
<svg version="1.1" xmlns="http://www.w3.org/2000/svg" xmlns:xlink="http://www.w3.org/1999/xlink" viewBox="0 0 33.2227 25.8535">
 <g>
  <rect height="25.8535" opacity="0" width="33.2227" x="0" y="0"/>
  <path d="M24.2539 9.99414C29.2305 9.99414 32.8672 13.3848 32.8672 17.8828C32.8672 22.3398 29.2988 25.8262 24.6914 25.8262L6.89062 25.8262C2.63867 25.8262 0.191406 23.1055 0.191406 19.7285C0.191406 16.8301 2.03711 14.5332 4.77148 13.7539C5.25 8.29883 9.74805 4.18359 15.0527 4.18359C19.0996 4.18359 22.4355 6.38477 24.2539 9.99414ZM9.41992 16.7344C9.41992 19.1406 10.377 21.2461 12.8105 21.2461C14.6562 21.2461 15.7773 19.9199 15.832 18.4844C15.8457 17.9922 15.5449 17.6504 15.0938 17.6504C14.6699 17.6504 14.4512 17.8828 14.3281 18.375C14.1777 19.0859 13.7676 19.8379 12.8105 19.8379C11.4297 19.8379 10.9785 18.3477 10.9785 16.7344C10.9785 15.2168 11.4434 13.6855 12.7969 13.6855C13.7539 13.6855 14.1367 14.4238 14.2871 15.1348C14.4102 15.627 14.6289 15.8594 15.0527 15.8594C15.5039 15.8594 15.8047 15.5312 15.791 15.0254C15.7363 13.5898 14.6152 12.2773 12.7695 12.2773C10.459 12.2773 9.41992 14.2871 9.41992 16.7344ZM16.4062 16.7617C16.4062 19.4961 17.7188 21.2461 19.7695 21.2461C21.8203 21.2461 23.1191 19.4961 23.1191 16.7617C23.1191 14.0137 21.8203 12.2773 19.7695 12.2773C17.7188 12.2773 16.4062 14.0137 16.4062 16.7617ZM21.5605 16.7617C21.5605 18.7031 20.877 19.8379 19.7695 19.8379C18.6621 19.8379 17.9648 18.7031 17.9648 16.7617C17.9648 14.8203 18.6621 13.6855 19.7695 13.6855C20.877 13.6855 21.5605 14.8203 21.5605 16.7617ZM3.81445 10.5273C3.81445 11.5938 2.9668 12.4414 1.91406 12.4414C0.847656 12.4414 0 11.5938 0 10.5273C0 9.47461 0.847656 8.62695 1.91406 8.62695C2.9668 8.62695 3.81445 9.47461 3.81445 10.5273ZM30.3789 5.63281C30.3789 7.13672 29.1895 8.32617 27.7129 8.32617C26.209 8.32617 25.0059 7.13672 25.0059 5.63281C25.0059 4.14258 26.209 2.95312 27.7129 2.95312C29.1895 2.95312 30.3789 4.14258 30.3789 5.63281ZM23.748 1.80469C23.748 2.78906 22.9414 3.5957 21.957 3.5957C20.9727 3.5957 20.166 2.78906 20.166 1.80469C20.166 0.820312 20.9727 0 21.957 0C22.9414 0 23.748 0.820312 23.748 1.80469Z" fill="white" fill-opacity="0.85"/>
 </g>
</svg>
