<?xml version="1.0" encoding="UTF-8"?>
<!--Generator: Apple Native CoreSVG 326-->
<!DOCTYPE svg
PUBLIC "-//W3C//DTD SVG 1.1//EN"
       "http://www.w3.org/Graphics/SVG/1.1/DTD/svg11.dtd">
<svg version="1.1" xmlns="http://www.w3.org/2000/svg" xmlns:xlink="http://www.w3.org/1999/xlink" viewBox="0 0 31.829 31.8947">
 <g>
  <rect height="31.8947" opacity="0" width="31.829" x="0" y="0"/>
  <path d="M22.3676 8.74913C24.5278 7.36827 26.7426 1.14757 24.309 0.546005C21.8071-0.0282141 21.0278 6.54796 22.3676 8.74913ZM22.6958 9.28233C25.8676 9.296 32.3481 4.11436 30.1059 1.8585C27.8637-0.383683 22.6821 6.09679 22.6958 9.28233ZM23.229 9.59679C25.4165 10.964 32.0063 10.1573 31.4321 7.6964C30.8442 5.22179 24.6098 7.4503 23.229 9.59679ZM22.9008 7.80577C19.4145 4.26475 14.8071 5.15343 11.854 9.84288L0.437954 27.9855C-0.327671 29.2159-0.0132174 30.3097 0.793423 31.1163C1.49069 31.8273 2.5571 32.2784 3.88327 31.4444L22.0669 20.0284C26.729 17.1026 27.563 12.5362 24.0766 8.99522ZM21.4516 9.26866L22.6137 10.4581C25.1977 13.0831 24.7329 15.8995 21.0005 18.2511L2.8442 29.6534C2.39303 29.9405 1.92819 29.4894 2.2153 29.0519L13.6313 10.8956C15.9965 7.14952 18.854 6.65733 21.4516 9.26866ZM17.1723 13.5343C17.5141 13.1788 17.5141 12.6456 17.145 12.2765L13.9594 9.13194L12.7153 10.4308L15.9008 13.548C16.27 13.9171 16.8169 13.9034 17.1723 13.5343ZM14.0688 15.462C14.4243 15.1066 14.4243 14.5597 14.0551 14.1905L11.5258 11.7159L10.2817 13.0011L12.7973 15.462C13.1665 15.8312 13.6997 15.8175 14.0688 15.462ZM11.0063 21.1905C10.6645 21.546 10.6508 22.0929 11.02 22.462L13.2485 24.6222L14.8071 23.6515L12.2778 21.1769C11.9223 20.8214 11.3755 20.8351 11.0063 21.1905ZM8.57272 23.7335C8.21725 24.089 8.21725 24.6495 8.58639 25.005L10.1313 26.5499L11.7173 25.5792L9.8442 23.7335C9.47506 23.3644 8.92819 23.378 8.57272 23.7335Z" fill="white" fill-opacity="0.85"/>
 </g>
</svg>
