<?xml version="1.0" encoding="UTF-8"?>
<!--Generator: Apple Native CoreSVG 326-->
<!DOCTYPE svg
PUBLIC "-//W3C//DTD SVG 1.1//EN"
       "http://www.w3.org/Graphics/SVG/1.1/DTD/svg11.dtd">
<svg version="1.1" xmlns="http://www.w3.org/2000/svg" xmlns:xlink="http://www.w3.org/1999/xlink" viewBox="0 0 31.829 31.8947">
 <g>
  <rect height="31.8947" opacity="0" width="31.829" x="0" y="0"/>
  <path d="M22.3676 8.74913C24.5278 7.36827 26.7426 1.14757 24.309 0.546005C21.8071-0.0282141 21.0278 6.54796 22.3676 8.74913ZM22.6958 9.28233C25.8676 9.296 32.3481 4.11436 30.1059 1.8585C27.8637-0.383683 22.6821 6.09679 22.6958 9.28233ZM23.229 9.59679C25.4165 10.964 32.0063 10.1573 31.4321 7.6964C30.8442 5.22179 24.6098 7.4503 23.229 9.59679ZM0.793423 31.1163C1.49069 31.8273 2.5571 32.2784 3.88327 31.4444L10.7465 27.1515L9.10592 25.5245C8.73678 25.1554 8.73678 24.6085 9.09225 24.253C9.44772 23.8976 9.9946 23.8839 10.3637 24.253L12.3051 26.1671L13.8364 25.1964L11.5395 22.9816C11.1704 22.6124 11.184 22.0655 11.5258 21.7101C11.895 21.3546 12.4419 21.3409 12.7973 21.6964L15.395 24.2394L22.0669 20.0284C26.729 17.1026 27.563 12.5362 24.0766 8.99522L22.9008 7.80577C19.8657 4.7296 15.9555 5.00304 13.0708 8.25694L16.7075 11.839C17.0766 12.2081 17.0766 12.7413 16.7348 13.0968C16.3794 13.4659 15.8325 13.4796 15.4633 13.1105L11.9633 9.69249L11.0063 11.1964L13.6176 13.753C13.9868 14.1222 13.9868 14.6827 13.6313 15.0245C13.2622 15.38 12.729 15.3937 12.3598 15.0245L10.0356 12.7687L0.437954 27.9855C-0.327671 29.2159-0.0132174 30.3097 0.793423 31.1163Z" fill="white" fill-opacity="0.85"/>
 </g>
</svg>
