<svg version="1.1" xmlns="http://www.w3.org/2000/svg" xmlns:xlink="http://www.w3.org/1999/xlink" viewBox="0 0 31.0467 28.9707">
 <g>
  
  <path d="M30.4599 23.1328C31.5809 19.0449 28.6141 17.2676 21.286 17.2676C17.745 17.2676 14.0673 17.623 11.2509 18.2109L11.7431 18.8945C12.495 12.7832 10.622 7.7793 6.50673 5.61914L6.90321 7.30078C8.50282 2.78906 5.65907 0 3.04774 0C1.07899 0-0.61632 1.53125 0.217664 4.93555L5.35829 25.7988C5.86415 27.8496 7.21766 28.9434 9.2411 28.9434L25.1962 28.9434C28.0126 28.9434 29.2567 27.5898 30.4599 23.1328Z" style="fill:var(--color-0,hsl(0 0 0/0.85))"></path>
  <path d="M24.1708 12.4961C26.6591 12.4961 28.3407 11.1836 28.3407 9.21484C28.3407 7.80664 27.288 6.68555 25.8388 6.50781L25.8388 6.50781C27.0145 6.31641 27.9579 5.22266 27.9579 3.95117C27.9579 2.26953 26.413 1.03906 24.2665 1.03906C22.3114 1.03906 20.8349 1.95508 20.4794 3.41797C20.452 3.58203 20.4384 3.69141 20.4384 3.89648C20.4384 4.36133 20.7802 4.70312 21.286 4.70312C21.7235 4.70312 21.997 4.49805 22.1474 4.06055C22.4071 3.14453 23.1864 2.625 24.2391 2.625C25.3876 2.625 26.1259 3.19922 26.1259 4.14258C26.1259 5.11328 25.2919 5.82422 24.1845 5.82422L23.4325 5.82422C22.995 5.82422 22.6532 6.13867 22.6532 6.58984C22.6532 7.04102 22.9813 7.36914 23.4325 7.36914L24.2665 7.36914C25.5927 7.36914 26.5087 8.08008 26.5087 9.14648C26.5087 10.1855 25.579 10.8965 24.1981 10.8965C23.0634 10.8965 22.2431 10.3906 21.9286 9.46094C21.7509 9.03711 21.4911 8.8457 21.0673 8.8457C20.5751 8.8457 20.2196 9.1875 20.2196 9.67969C20.2196 9.85742 20.2333 9.93945 20.2606 10.1035C20.5888 11.5117 22.202 12.4961 24.1708 12.4961Z" style="fill:var(--color-1,hsl(0 0 0/0.85))"></path>
 </g>
</svg>