<svg version="1.1" xmlns="http://www.w3.org/2000/svg" xmlns:xlink="http://www.w3.org/1999/xlink" viewBox="0 0 31.3022 28.998">
 <g>
  
  <path d="M0.229234 23.1465C1.43236 27.6035 2.6765 28.957 5.49291 28.957L21.7214 28.957C23.7449 28.957 25.0984 27.8633 25.6042 25.8125L30.7449 4.94922C31.4968 1.91406 30.0749 0 27.4089 0C24.196 0 21.5984 3.04883 22.8425 7.30078L23.1023 5.97461C19.9167 8.23047 18.2351 13.084 18.6726 18.8945L19.3015 18.0879C16.321 17.5684 12.8484 17.2812 9.40306 17.2812C2.08861 17.2812-0.891859 19.0586 0.229234 23.1465ZM2.3347 22.5586C1.73314 20.3711 3.40111 19.4824 9.40306 19.4824C14.2702 19.4824 17.7702 20.1387 19.3288 20.248C20.1628 20.2617 20.6824 19.7285 20.6687 18.8945C20.573 13.7539 21.9265 9.61133 24.3191 7.82031C24.8386 7.39648 24.948 7.12305 24.7976 6.19336C24.4285 3.62305 25.8503 2.20117 27.4089 2.20117C28.4206 2.20117 28.9675 3.03516 28.6394 4.375L23.4577 25.2793C23.2253 26.2363 22.6374 26.7559 21.7214 26.7559L5.49291 26.7559C3.96166 26.7559 3.33275 26.2637 2.3347 22.5586Z" style="fill:var(--color-0,hsl(0 0 0/0.85))"></path>
  <path d="M3.57884 12.7422L10.1413 12.7422C10.6472 12.7422 11.0163 12.3867 11.0163 11.8945C11.0163 11.3887 10.6472 11.0332 10.1413 11.0332L5.50658 11.0332L5.50658 10.9922L8.47337 7.79297C9.52611 6.67188 10.3191 5.6875 10.3191 4.2793C10.3191 2.33789 8.8015 1.05273 6.42259 1.05273C4.65892 1.05273 3.07298 2.11914 2.66283 3.56836C2.62181 3.77344 2.59447 3.91016 2.59447 4.08789C2.59447 4.59375 2.92259 4.93555 3.44212 4.93555C3.90697 4.93555 4.13939 4.64844 4.37181 4.26562C4.69994 3.51367 5.35619 2.73438 6.50462 2.73438C7.66673 2.73438 8.4597 3.41797 8.4597 4.41602C8.4597 5.30469 7.69408 6.05664 6.96947 6.83594L2.99095 11.1152C2.7722 11.3477 2.64916 11.5938 2.64916 11.8945C2.64916 12.4141 3.00462 12.7422 3.57884 12.7422Z" style="fill:var(--color-1,hsl(0 0 0/0.85))"></path>
 </g>
</svg>