<?xml version="1.0" encoding="UTF-8"?>
<!--Generator: Apple Native CoreSVG 326-->
<!DOCTYPE svg
PUBLIC "-//W3C//DTD SVG 1.1//EN"
       "http://www.w3.org/Graphics/SVG/1.1/DTD/svg11.dtd">
<svg version="1.1" xmlns="http://www.w3.org/2000/svg" xmlns:xlink="http://www.w3.org/1999/xlink" viewBox="0 0 31.299 28.998">
 <g>
  <rect height="28.998" opacity="0" width="31.299" x="0" y="0"/>
  <path d="M30.7159 23.1465C31.837 19.0586 28.8565 17.2812 21.5421 17.2812C18.0967 17.2812 14.6241 17.5684 11.6299 18.0879L12.2725 18.8945C12.71 13.084 11.0284 8.23047 7.84284 5.97461L8.1026 7.30078C9.34674 3.04883 6.73542 0 3.52253 0C0.870182 0-0.551693 1.91406 0.20026 4.94922L5.34089 25.8125C5.84674 27.8633 7.20026 28.957 9.21003 28.957L25.4522 28.957C28.2686 28.957 29.5128 27.6035 30.7159 23.1465ZM28.6104 22.5586C27.6124 26.2637 26.9835 26.7559 25.4522 26.7559L9.21003 26.7559C8.30768 26.7559 7.71979 26.2363 7.48737 25.2793L2.30573 4.375C1.9776 3.03516 2.52448 2.20117 3.5362 2.20117C5.09479 2.20117 6.51667 3.62305 6.13385 6.19336C5.99714 7.12305 6.09284 7.39648 6.61237 7.82031C9.01862 9.61133 10.3721 13.7539 10.2628 18.8945C10.2628 19.7285 10.7823 20.2617 11.6163 20.248C13.1749 20.1387 16.6749 19.4824 21.5421 19.4824C27.544 19.4824 29.1983 20.3711 28.6104 22.5586Z" fill="white" fill-opacity="0.85"/>
  <path d="M24.4132 12.5098C26.9014 12.5098 28.5831 11.1973 28.5831 9.22852C28.5831 7.82031 27.5303 6.69922 26.0811 6.52148L26.0811 6.52148C27.2569 6.33008 28.2003 5.23633 28.2003 3.96484C28.2003 2.2832 26.6553 1.05273 24.5089 1.05273C22.5538 1.05273 21.0772 1.96875 20.7217 3.43164C20.6944 3.5957 20.6807 3.70508 20.6807 3.91016C20.6807 4.375 21.0225 4.7168 21.5284 4.7168C21.9659 4.7168 22.2393 4.51172 22.3897 4.07422C22.6495 3.1582 23.4288 2.63867 24.4815 2.63867C25.6299 2.63867 26.3682 3.21289 26.3682 4.15625C26.3682 5.12695 25.5342 5.83789 24.4268 5.83789L23.6749 5.83789C23.2237 5.83789 22.8956 6.15234 22.8956 6.60352C22.8956 7.05469 23.2237 7.38281 23.6749 7.38281L24.4952 7.38281C25.835 7.38281 26.751 8.09375 26.751 9.16016C26.751 10.1992 25.8214 10.9102 24.4405 10.9102C23.3057 10.9102 22.4854 10.4043 22.171 9.47461C21.9932 9.05078 21.7335 8.85938 21.3096 8.85938C20.8174 8.85938 20.462 9.20117 20.462 9.69336C20.462 9.87109 20.4757 9.95312 20.503 10.1172C20.8311 11.5254 22.4444 12.5098 24.4132 12.5098Z" fill="white" fill-opacity="0.85"/>
 </g>
</svg>
