<?xml version="1.0" encoding="UTF-8"?>
<!--Generator: Apple Native CoreSVG 326-->
<!DOCTYPE svg
PUBLIC "-//W3C//DTD SVG 1.1//EN"
       "http://www.w3.org/Graphics/SVG/1.1/DTD/svg11.dtd">
<svg version="1.1" xmlns="http://www.w3.org/2000/svg" xmlns:xlink="http://www.w3.org/1999/xlink" viewBox="0 0 31.0425 37.8301">
 <g>
  <rect height="37.8301" opacity="0" width="31.0425" x="0" y="0"/>
  <path d="M0.229234 23.1328C1.43236 27.5898 2.6765 28.9434 5.49291 28.9434L21.448 28.9434C23.4714 28.9434 24.8249 27.8496 25.3308 25.7852L30.4714 4.92188C31.3054 1.53125 29.6101 3.55271e-15 27.6413 3.55271e-15C25.03 3.55271e-15 22.1863 2.78906 23.7859 7.28711L24.1824 5.61914C20.0671 7.76563 18.1941 12.7832 18.946 18.8945L19.4382 18.2109C16.6218 17.6094 12.9441 17.2676 9.40306 17.2676C2.08861 17.2676-0.891859 19.0449 0.229234 23.1328Z" fill="white" fill-opacity="0.85"/>
  <path d="M7.28392 31.0352C6.54564 31.0352 6.24486 31.6367 6.62767 32.2793L9.5808 37.1328C9.97728 37.7617 10.6882 37.7344 11.0574 37.1328L14.0378 32.2793C14.4343 31.6367 14.0925 31.0352 13.3679 31.0352Z" fill="white" fill-opacity="0.85"/>
  <path d="M7.28392 15.1895L13.3679 15.1895C14.0925 15.1895 14.4343 14.6016 14.0378 13.959L11.0574 9.10547C10.6882 8.49023 9.96361 8.47656 9.5808 9.10547L6.62767 13.959C6.23119 14.6016 6.54564 15.1895 7.28392 15.1895Z" fill="white" fill-opacity="0.85"/>
 </g>
</svg>
