<?xml version="1.0" encoding="UTF-8"?>
<!--Generator: Apple Native CoreSVG 326-->
<!DOCTYPE svg
PUBLIC "-//W3C//DTD SVG 1.1//EN"
       "http://www.w3.org/Graphics/SVG/1.1/DTD/svg11.dtd">
<svg version="1.1" xmlns="http://www.w3.org/2000/svg" xmlns:xlink="http://www.w3.org/1999/xlink" viewBox="0 0 31.0467 28.9707">
 <g>
  <rect height="28.9707" opacity="0" width="31.0467" x="0" y="0"/>
  <path d="M30.4599 23.1328C31.5809 19.0449 28.6141 17.2676 21.286 17.2676C17.745 17.2676 14.0673 17.623 11.2509 18.2109L11.7431 18.8945C12.495 12.7832 10.622 7.7793 6.50673 5.61914L6.90321 7.30078C8.50282 2.78906 5.65907 0 3.04774 0C1.07899 0-0.61632 1.53125 0.217664 4.93555L5.35829 25.7988C5.86415 27.8496 7.21766 28.9434 9.2411 28.9434L25.1962 28.9434C28.0126 28.9434 29.2567 27.5898 30.4599 23.1328Z" fill="white" fill-opacity="0.85"/>
  <path d="M24.9501 12.9473C25.5927 12.9473 25.9618 12.5371 25.9618 11.8125L25.9618 2.17383C25.9618 1.43555 25.579 1.03906 24.8954 1.03906C24.4169 1.03906 24.1024 1.14844 23.5692 1.54492L21.2177 3.11719C20.9442 3.30859 20.8485 3.51367 20.8485 3.81445C20.8485 4.21094 21.163 4.55273 21.5458 4.55273C21.7372 4.55273 21.8739 4.52539 22.1884 4.29297L23.829 3.21289L23.9657 3.21289L23.9657 11.8125C23.9657 12.5234 24.3485 12.9473 24.9501 12.9473Z" fill="white" fill-opacity="0.85"/>
 </g>
</svg>
