<svg version="1.1" xmlns="http://www.w3.org/2000/svg" xmlns:xlink="http://www.w3.org/1999/xlink" viewBox="0 0 31.0467 28.9707">
 <g>
  
  <path d="M17.704 15.5176C17.704 17.3223 16.0907 18.3203 16.0907 19.5234C16.0907 20.2344 16.2684 20.6035 16.7196 21.2051C17.3759 22.0801 16.1454 22.9551 15.4891 22.1211C14.8466 21.3145 14.5731 20.5625 14.5731 19.6191C14.5731 17.7734 16.1591 16.8438 16.1591 15.5176C16.1591 14.1777 14.5731 13.2617 14.5731 11.4023C14.5731 10.4863 14.8466 9.73438 15.5028 8.91406C16.1591 8.06641 17.3895 8.94141 16.7333 9.81641C16.2684 10.4316 16.0907 10.8145 16.0907 11.498C16.0907 12.7285 17.704 13.7266 17.704 15.5176ZM22.079 15.5176C22.079 17.3223 20.4657 18.3203 20.4657 19.5234C20.4657 20.2344 20.6571 20.6035 21.1083 21.2051C21.7509 22.0801 20.5341 22.9551 19.8778 22.1211C19.2352 21.3145 18.9481 20.5625 18.9481 19.6191C18.9481 17.7734 20.5341 16.8438 20.5341 15.5176C20.5341 14.1777 18.9481 13.2617 18.9481 11.4023C18.9481 10.4863 19.2352 9.73438 19.8915 8.91406C20.5477 8.06641 21.7645 8.94141 21.1083 9.81641C20.6571 10.4316 20.4657 10.8145 20.4657 11.498C20.4657 12.7285 22.079 13.7266 22.079 15.5176ZM26.4677 15.5176C26.4677 17.3223 24.8544 18.3203 24.8544 19.5234C24.8544 20.2344 25.0321 20.6035 25.4833 21.2051C26.1395 22.0801 24.9091 22.9551 24.2665 22.1211C23.6102 21.3145 23.3368 20.5625 23.3368 19.6191C23.3368 17.7734 24.9227 16.8438 24.9227 15.5176C24.9227 14.1777 23.3368 13.2617 23.3368 11.4023C23.3368 10.4863 23.6102 9.73438 24.2665 8.91406C24.9227 8.06641 26.1532 8.94141 25.497 9.81641C25.0321 10.4316 24.8544 10.8145 24.8544 11.498C24.8544 12.7285 26.4677 13.7266 26.4677 15.5176ZM30.4599 23.1328C31.5809 19.0449 28.6141 17.2676 21.286 17.2676C17.745 17.2676 14.0673 17.623 11.2509 18.2109L11.7431 18.8945C12.495 12.7832 10.622 7.7793 6.50673 5.61914L6.90321 7.30078C8.50282 2.78906 5.65907 0 3.04774 0C1.07899 0-0.61632 1.53125 0.217664 4.93555L5.35829 25.7988C5.86415 27.8496 7.21766 28.9434 9.2411 28.9434L25.1962 28.9434C28.0126 28.9434 29.2567 27.5898 30.4599 23.1328Z" style="fill:var(--color-0,hsl(0 0 0/0.85))"></path>
 </g>
</svg>