<svg version="1.1" xmlns="http://www.w3.org/2000/svg" xmlns:xlink="http://www.w3.org/1999/xlink" viewBox="0 0 31.0425 28.9707">
 <g>
  
  <path d="M0.229234 23.1328C1.43236 27.5898 2.6765 28.9434 5.49291 28.9434L21.448 28.9434C23.4714 28.9434 24.8249 27.8496 25.3308 25.7988L30.4714 4.93555C31.3054 1.53125 29.6101 0 27.6413 0C25.03 0 22.1863 2.78906 23.7859 7.30078L24.1824 5.61914C20.0671 7.7793 18.1941 12.7832 18.946 18.8945L19.4382 18.2109C16.6218 17.623 12.9441 17.2676 9.40306 17.2676C2.08861 17.2676-0.891859 19.0449 0.229234 23.1328Z" style="fill:var(--color-0,hsl(0 0 0/0.85))"></path>
  <path d="M7.77611 12.9473C8.43236 12.9473 8.8015 12.5371 8.8015 11.8125L8.8015 2.17383C8.8015 1.43555 8.41869 1.03906 7.73509 1.03906C7.24291 1.03906 6.92845 1.14844 6.39525 1.54492L4.05736 3.11719C3.77025 3.30859 3.67455 3.51367 3.67455 3.81445C3.67455 4.21094 4.00267 4.55273 4.37181 4.55273C4.56322 4.55273 4.71361 4.52539 5.01439 4.29297L6.66869 3.21289L6.80541 3.21289L6.80541 11.8125C6.80541 12.5234 7.17455 12.9473 7.77611 12.9473Z" style="fill:var(--color-1,hsl(0 0 0/0.85))"></path>
 </g>
</svg>