<svg version="1.1" xmlns="http://www.w3.org/2000/svg" xmlns:xlink="http://www.w3.org/1999/xlink" viewBox="0 0 31.3022 28.998">
 <g>
  
  <path d="M30.7449 4.94922L25.6042 25.8125C25.0984 27.8633 23.7449 28.957 21.7214 28.957L5.49291 28.957C2.6765 28.957 1.43236 27.6035 0.229234 23.1465C-0.642059 19.9695 0.964037 18.188 5.16896 17.5573C4.81031 18.1413 4.48119 18.792 4.48119 19.6328C4.48119 19.7086 4.48304 19.7832 4.48993 19.8548C2.48955 20.2982 1.95139 21.1647 2.3347 22.5586C3.33275 26.2637 3.96166 26.7559 5.49291 26.7559L21.7214 26.7559C22.6374 26.7559 23.2253 26.2363 23.4577 25.2793L28.6394 4.375C28.9675 3.03516 28.4206 2.20117 27.4089 2.20117C25.8503 2.20117 24.4285 3.62305 24.7976 6.19336C24.948 7.12305 24.8386 7.39648 24.3191 7.82031C21.9265 9.61133 20.573 13.7539 20.6687 18.8945C20.6824 19.7285 20.1628 20.2617 19.3288 20.248C18.4252 20.1846 16.869 19.9374 14.7685 19.7412C14.7642 19.6768 14.7624 19.6087 14.7624 19.5371C14.7624 18.8837 15.2382 18.2908 15.6728 17.5955C16.6921 17.6979 17.6824 17.8255 18.6239 17.9786C18.4289 12.8666 19.9117 8.59428 22.6295 6.3442C22.0018 2.59763 24.4433 0 27.4089 0C30.0749 0 31.4968 1.91406 30.7449 4.94922ZM9.72793 17.2846C9.33255 17.9068 8.91505 18.5857 8.87757 19.4876C7.75039 19.4955 6.79682 19.5402 6.00019 19.6245C5.99908 19.5965 5.99877 19.5671 5.99877 19.5371C5.99877 18.8099 6.58822 18.1575 7.05371 17.3557C7.77508 17.3048 8.5603 17.2812 9.40306 17.2812C9.51133 17.2812 9.61962 17.2815 9.72793 17.2846ZM13.9978 17.452C13.6172 18.0597 13.2492 18.7332 13.2457 19.6176C12.3687 19.5559 11.4143 19.51 10.3911 19.492C10.4123 18.7712 11.0052 18.1203 11.4645 17.3183C12.3176 17.343 13.1651 17.3879 13.9978 17.452Z" style="fill:var(--color-0,hsl(0 0 0/0.85))"></path>
  <path d="M7.61205 15.5312C7.61205 13.7402 5.99877 12.7422 5.99877 11.5117C5.99877 10.8281 6.1765 10.4453 6.64134 9.83008C7.29759 8.95508 6.0808 8.08008 5.41087 8.92773C4.7683 9.74805 4.48119 10.5 4.48119 11.416C4.48119 13.2754 6.06712 14.1914 6.06712 15.5312C6.06712 16.8574 4.48119 17.7871 4.48119 19.6328C4.48119 20.5762 4.7683 21.3281 5.41087 22.1348C6.05345 22.9688 7.28392 22.0938 6.62767 21.2188C6.1765 20.6172 5.99877 20.248 5.99877 19.5371C5.99877 18.334 7.61205 17.3359 7.61205 15.5312ZM12.0007 15.5312C12.0007 13.7402 10.3874 12.7422 10.3874 11.5117C10.3874 10.8281 10.5652 10.4453 11.03 9.83008C11.6726 8.95508 10.4558 8.08008 9.79955 8.92773C9.1433 9.74805 8.86986 10.5 8.86986 11.416C8.86986 13.2754 10.4558 14.1914 10.4558 15.5312C10.4558 16.8574 8.86986 17.7871 8.86986 19.6328C8.86986 20.5762 9.1433 21.3281 9.78587 22.1348C10.4421 22.9688 11.6726 22.0938 11.0163 21.2188C10.5652 20.6172 10.3874 20.248 10.3874 19.5371C10.3874 18.334 12.0007 17.3359 12.0007 15.5312ZM16.3757 15.5312C16.3757 13.7402 14.7624 12.7422 14.7624 11.5117C14.7624 10.8281 14.9402 10.4453 15.405 9.83008C16.0613 8.95508 14.8445 8.08008 14.1745 8.92773C13.532 9.74805 13.2449 10.5 13.2449 11.416C13.2449 13.2754 14.8308 14.1914 14.8308 15.5312C14.8308 16.8574 13.2449 17.7871 13.2449 19.6328C13.2449 20.5762 13.532 21.3281 14.1745 22.1348C14.8308 22.9688 16.0476 22.0938 15.3913 21.2188C14.9402 20.6172 14.7624 20.248 14.7624 19.5371C14.7624 18.334 16.3757 17.3359 16.3757 15.5312Z" style="fill:var(--color-1,hsl(0 0 0/0.85))"></path>
 </g>
</svg>