<svg version="1.1" xmlns="http://www.w3.org/2000/svg" xmlns:xlink="http://www.w3.org/1999/xlink" viewBox="0 0 31.3022 37.8574">
 <g>
  
  <path d="M0.229234 23.1465C1.43236 27.6035 2.6765 28.957 5.49291 28.957L21.7214 28.957C23.7449 28.957 25.0984 27.8633 25.6042 25.7988L30.7449 4.93555C31.4968 1.91406 30.0749 3.55271e-15 27.4089 3.55271e-15C24.196 3.55271e-15 21.5984 3.04883 22.8425 7.28711L23.1023 5.97461C19.9167 8.23047 18.2351 13.0703 18.6726 18.8945L19.3015 18.0879C16.321 17.5547 12.8484 17.2813 9.40306 17.2813C2.08861 17.2813-0.891859 19.0586 0.229234 23.1465ZM2.3347 22.5586C1.73314 20.3574 3.40111 19.4824 9.40306 19.4824C14.2702 19.4824 17.7702 20.1387 19.3288 20.248C20.1628 20.2617 20.6824 19.7285 20.6687 18.8945C20.573 13.7539 21.9265 9.59766 24.3191 7.80664C24.8386 7.38281 24.948 7.12305 24.7976 6.17969C24.4285 3.62305 25.8503 2.20117 27.4089 2.20117C28.4206 2.20117 28.9675 3.02148 28.6394 4.36133L23.4577 25.2656C23.2253 26.2363 22.6374 26.7559 21.7214 26.7559L5.49291 26.7559C3.96166 26.7559 3.33275 26.2637 2.3347 22.5586Z" style="fill:var(--color-0,hsl(0 0 0/0.85))"></path>
  <path d="M7.42064 31.0488C6.68236 31.0488 6.38158 31.6504 6.76439 32.293L9.71752 37.1465C10.114 37.7754 10.8249 37.748 11.1941 37.1465L14.1745 32.293C14.571 31.6504 14.2292 31.0488 13.5046 31.0488Z" style="fill:var(--color-1,hsl(0 0 0/0.85))"></path>
  <path d="M7.42064 15.2031L13.5046 15.2031C14.2292 15.2031 14.571 14.6152 14.1745 13.9727L11.1941 9.11914C10.8249 8.50391 10.1003 8.49023 9.71752 9.11914L6.76439 13.9727C6.36791 14.6152 6.68236 15.2031 7.42064 15.2031Z" style="fill:var(--color-2,hsl(0 0 0/0.85))"></path>
 </g>
</svg>