<?xml version="1.0" encoding="UTF-8"?>
<!--Generator: Apple Native CoreSVG 326-->
<!DOCTYPE svg
PUBLIC "-//W3C//DTD SVG 1.1//EN"
       "http://www.w3.org/Graphics/SVG/1.1/DTD/svg11.dtd">
<svg version="1.1" xmlns="http://www.w3.org/2000/svg" xmlns:xlink="http://www.w3.org/1999/xlink" viewBox="0 0 31.299 37.8574">
 <g>
  <rect height="37.8574" opacity="0" width="31.299" x="0" y="0"/>
  <path d="M30.7159 23.1465C31.837 19.0586 28.8565 17.2813 21.5421 17.2813C18.0967 17.2813 14.6241 17.5547 11.6299 18.0879L12.2725 18.8945C12.71 13.0703 11.0284 8.23047 7.84284 5.97461L8.1026 7.28711C9.34674 3.04883 6.73542 3.55271e-15 3.52253 3.55271e-15C0.870182 3.55271e-15-0.551693 1.91406 0.20026 4.93555L5.34089 25.7988C5.84674 27.8633 7.20026 28.957 9.21003 28.957L25.4522 28.957C28.2686 28.957 29.5128 27.6035 30.7159 23.1465ZM28.6104 22.5586C27.6124 26.2637 26.9835 26.7559 25.4522 26.7559L9.21003 26.7559C8.30768 26.7559 7.71979 26.2363 7.48737 25.2656L2.30573 4.36133C1.9776 3.02148 2.52448 2.20117 3.5362 2.20117C5.09479 2.20117 6.51667 3.62305 6.13385 6.17969C5.99714 7.12305 6.09284 7.38281 6.61237 7.80664C9.01862 9.59766 10.3721 13.7539 10.2628 18.8945C10.2628 19.7285 10.7823 20.2617 11.6163 20.248C13.1749 20.1387 16.6749 19.4824 21.5421 19.4824C27.544 19.4824 29.1983 20.3574 28.6104 22.5586Z" fill="white" fill-opacity="0.85"/>
  <path d="M23.5108 31.0488L17.4268 31.0488C16.7022 31.0488 16.3604 31.6504 16.7569 32.293L19.7374 37.1465C20.1065 37.748 20.8174 37.7754 21.2139 37.1465L24.1671 32.293C24.5499 31.6504 24.2491 31.0488 23.5108 31.0488Z" fill="white" fill-opacity="0.85"/>
  <path d="M23.5108 15.2031C24.2491 15.2031 24.5635 14.6152 24.1671 13.9727L21.2139 9.11914C20.8311 8.49023 20.1065 8.50391 19.7374 9.11914L16.7569 13.9727C16.3604 14.6152 16.7022 15.2031 17.4268 15.2031Z" fill="white" fill-opacity="0.85"/>
 </g>
</svg>
