<?xml version="1.0" encoding="UTF-8"?>
<!--Generator: Apple Native CoreSVG 326-->
<!DOCTYPE svg
PUBLIC "-//W3C//DTD SVG 1.1//EN"
       "http://www.w3.org/Graphics/SVG/1.1/DTD/svg11.dtd">
<svg version="1.1" xmlns="http://www.w3.org/2000/svg" xmlns:xlink="http://www.w3.org/1999/xlink" viewBox="0 0 31.3022 39.5527">
 <g>
  <rect height="39.5527" opacity="0" width="31.3022" x="0" y="0"/>
  <path d="M0.229234 23.1465C1.43236 27.6035 2.6765 28.9707 5.49291 28.9707L21.7214 28.9707C23.7449 28.9707 25.0984 27.8633 25.6042 25.8125L30.7449 4.94922C31.4968 1.92773 30.0749 0 27.4089 0C24.196 0 21.5984 3.04883 22.8425 7.30078L23.1023 5.97461C19.9167 8.24414 18.2351 13.084 18.6726 18.8945L19.3015 18.1016C16.321 17.5684 12.8484 17.2812 9.40306 17.2812C2.08861 17.2812-0.891859 19.0586 0.229234 23.1465ZM2.3347 22.5723C1.73314 20.3711 3.40111 19.4824 9.40306 19.4824C14.2702 19.4824 17.7702 20.1387 19.3288 20.248C20.1628 20.2617 20.6824 19.7422 20.6687 18.9082C20.573 13.7539 21.9265 9.61133 24.3191 7.82031C24.8386 7.39648 24.948 7.12305 24.7976 6.19336C24.4285 3.62305 25.8503 2.20117 27.4089 2.20117C28.4206 2.20117 28.9675 3.03516 28.6394 4.375L23.4577 25.2793C23.2253 26.2363 22.6374 26.7695 21.7214 26.7695L5.49291 26.7695C3.96166 26.7695 3.33275 26.2637 2.3347 22.5723Z" fill="white" fill-opacity="0.85"/>
  <path d="M16.991 38.4727C16.991 39.2109 17.5925 39.5254 18.2351 39.1289L23.0886 36.1758C23.7038 35.793 23.6902 35.0684 23.0886 34.6992L18.2214 31.7188C17.5788 31.3223 16.991 31.6641 16.991 32.3887Z" fill="white" fill-opacity="0.85"/>
  <path d="M9.89525 38.4727L9.89525 32.3887C9.89525 31.6641 9.30736 31.3223 8.66478 31.7188L3.81127 34.6992C3.19603 35.0684 3.18236 35.793 3.81127 36.1758L8.66478 39.1289C9.30736 39.5254 9.89525 39.2109 9.89525 38.4727Z" fill="white" fill-opacity="0.85"/>
 </g>
</svg>
