<?xml version="1.0" encoding="UTF-8"?>
<!--Generator: Apple Native CoreSVG 326-->
<!DOCTYPE svg
PUBLIC "-//W3C//DTD SVG 1.1//EN"
       "http://www.w3.org/Graphics/SVG/1.1/DTD/svg11.dtd">
<svg version="1.1" xmlns="http://www.w3.org/2000/svg" xmlns:xlink="http://www.w3.org/1999/xlink" viewBox="0 0 31.3022 28.998">
 <g>
  <rect height="28.998" opacity="0" width="31.3022" x="0" y="0"/>
  <path d="M0.229234 23.1465C1.43236 27.6035 2.6765 28.957 5.49291 28.957L21.7214 28.957C23.7449 28.957 25.0984 27.8633 25.6042 25.8125L30.7449 4.94922C31.4968 1.91406 30.0749 0 27.4089 0C24.196 0 21.5984 3.04883 22.8425 7.30078L23.1023 5.97461C19.9167 8.23047 18.2351 13.084 18.6726 18.8945L19.3015 18.0879C16.321 17.5684 12.8484 17.2812 9.40306 17.2812C2.08861 17.2812-0.891859 19.0586 0.229234 23.1465ZM2.3347 22.5586C1.73314 20.3711 3.40111 19.4824 9.40306 19.4824C14.2702 19.4824 17.7702 20.1387 19.3288 20.248C20.1628 20.2617 20.6824 19.7285 20.6687 18.8945C20.573 13.7539 21.9265 9.61133 24.3191 7.82031C24.8386 7.39648 24.948 7.12305 24.7976 6.19336C24.4285 3.62305 25.8503 2.20117 27.4089 2.20117C28.4206 2.20117 28.9675 3.03516 28.6394 4.375L23.4577 25.2793C23.2253 26.2363 22.6374 26.7559 21.7214 26.7559L5.49291 26.7559C3.96166 26.7559 3.33275 26.2637 2.3347 22.5586Z" fill="white" fill-opacity="0.85"/>
  <path d="M7.77611 12.9609C8.43236 12.9609 8.8015 12.5508 8.8015 11.8262L8.8015 2.1875C8.8015 1.44922 8.41869 1.05273 7.73509 1.05273C7.24291 1.05273 6.94212 1.17578 6.39525 1.55859L4.05736 3.13086C3.77025 3.32227 3.67455 3.52734 3.67455 3.82812C3.67455 4.22461 4.00267 4.56641 4.37181 4.56641C4.56322 4.56641 4.69994 4.52539 5.01439 4.30664L6.66869 3.22656L6.80541 3.22656L6.80541 11.8262C6.80541 12.5371 7.17455 12.9609 7.77611 12.9609Z" fill="white" fill-opacity="0.85"/>
 </g>
</svg>
