<?xml version="1.0" encoding="UTF-8"?>
<!--Generator: Apple Native CoreSVG 326-->
<!DOCTYPE svg
PUBLIC "-//W3C//DTD SVG 1.1//EN"
       "http://www.w3.org/Graphics/SVG/1.1/DTD/svg11.dtd">
<svg version="1.1" xmlns="http://www.w3.org/2000/svg" xmlns:xlink="http://www.w3.org/1999/xlink" viewBox="0 0 31.299 33.3544">
 <g>
  <rect height="33.3544" opacity="0" width="31.299" x="0" y="0"/>
  <path d="M30.7159 25.3246C31.837 21.2367 28.8565 19.4594 21.5421 19.4594C18.0967 19.4594 14.6241 19.7465 11.6299 20.266L12.2725 21.0727C12.71 15.2621 11.0284 10.4086 7.84284 8.15276L8.1026 9.47893C9.34674 5.22698 6.73542 2.17815 3.52253 2.17815C0.870182 2.17815-0.551693 4.09222 0.20026 7.12737L5.34089 27.9907C5.84674 30.0414 7.20026 31.1352 9.21003 31.1352L25.4522 31.1352C28.2686 31.1352 29.5128 29.7817 30.7159 25.3246ZM28.6104 24.7367C27.6124 28.4418 26.9835 28.934 25.4522 28.934L9.21003 28.934C8.30768 28.934 7.71979 28.4145 7.48737 27.4575L2.30573 6.55315C1.9776 5.21331 2.52448 4.37933 3.5362 4.37933C5.09479 4.37933 6.51667 5.8012 6.13385 8.37151C5.99714 9.3012 6.09284 9.57464 6.61237 9.99847C9.01862 11.7895 10.3721 15.9321 10.2628 21.0727C10.2628 21.9067 10.7823 22.4399 11.6163 22.4262C13.1749 22.3168 16.6749 21.6606 21.5421 21.6606C27.544 21.6606 29.1983 22.5492 28.6104 24.7367Z" fill="white" fill-opacity="0.85"/>
  <path d="M11.1514 4.77581C11.0694 5.18597 11.2335 5.51409 11.6026 5.66448C12.0538 5.81487 12.5186 5.58245 12.6007 5.10393C12.9014 3.05315 11.8897 0.947685 10.2081 0.1137C9.67487-0.159737 9.25104 0.100028 9.10065 0.469169C8.9776 0.824638 9.07331 1.22112 9.45612 1.4262C10.7003 2.00042 11.3428 3.34026 11.1514 4.77581ZM14.8975 15.2075C14.7471 15.7407 15.0206 16.0825 15.376 16.1782C15.7589 16.2739 16.2237 16.0961 16.3467 15.6313C17.044 13.02 15.9503 9.19183 13.0928 7.83831C12.5733 7.59222 12.1768 7.78362 11.9991 8.09808C11.8214 8.4262 11.876 8.89104 12.3682 9.15081C14.7882 10.436 15.4444 13.2114 14.8975 15.2075Z" fill="white" fill-opacity="0.85"/>
 </g>
</svg>
