<?xml version="1.0" encoding="UTF-8"?>
<!--Generator: Apple Native CoreSVG 326-->
<!DOCTYPE svg
PUBLIC "-//W3C//DTD SVG 1.1//EN"
       "http://www.w3.org/Graphics/SVG/1.1/DTD/svg11.dtd">
<svg version="1.1" xmlns="http://www.w3.org/2000/svg" xmlns:xlink="http://www.w3.org/1999/xlink" viewBox="0 0 31.0425 28.9707">
 <g>
  <rect height="28.9707" opacity="0" width="31.0425" x="0" y="0"/>
  <path d="M0.229234 23.1328C1.43236 27.5898 2.6765 28.9434 5.49291 28.9434L21.448 28.9434C23.4714 28.9434 24.8249 27.8496 25.3308 25.7988L30.4714 4.93555C31.3054 1.53125 29.6101 0 27.6413 0C25.03 0 22.1863 2.78906 23.7859 7.30078L24.1824 5.61914C20.0671 7.7793 18.1941 12.7832 18.946 18.8945L19.4382 18.2109C16.6218 17.623 12.9441 17.2676 9.40306 17.2676C2.08861 17.2676-0.891859 19.0449 0.229234 23.1328Z" fill="white" fill-opacity="0.85"/>
  <path d="M6.57298 12.4961C9.06127 12.4961 10.7429 11.1836 10.7429 9.21484C10.7429 7.80664 9.69017 6.68555 8.24095 6.50781L8.24095 6.50781C9.41673 6.31641 10.3601 5.22266 10.3601 3.95117C10.3601 2.26953 8.82884 1.03906 6.66869 1.03906C4.71361 1.03906 3.23705 1.95508 2.89525 3.41797C2.85423 3.58203 2.84056 3.69141 2.84056 3.89648C2.84056 4.36133 3.18236 4.70312 3.70189 4.70312C4.12572 4.70312 4.39916 4.49805 4.54955 4.06055C4.82298 3.14453 5.60228 2.625 6.64134 2.625C7.78978 2.625 8.52806 3.19922 8.52806 4.14258C8.52806 5.11328 7.69408 5.82422 6.58666 5.82422L5.8347 5.82422C5.3972 5.82422 5.05541 6.13867 5.05541 6.58984C5.05541 7.04102 5.38353 7.36914 5.8347 7.36914L6.66869 7.36914C7.99486 7.36914 8.91087 8.08008 8.91087 9.14648C8.91087 10.1855 7.98119 10.8965 6.60033 10.8965C5.46556 10.8965 4.65892 10.3906 4.3308 9.46094C4.16673 9.03711 3.8933 8.8457 3.48314 8.8457C2.97728 8.8457 2.62181 9.1875 2.62181 9.67969C2.62181 9.85742 2.63548 9.93945 2.6765 10.1035C2.99095 11.5117 4.61791 12.4961 6.57298 12.4961Z" fill="white" fill-opacity="0.85"/>
 </g>
</svg>
