<?xml version="1.0" encoding="UTF-8"?>
<!--Generator: Apple Native CoreSVG 326-->
<!DOCTYPE svg
PUBLIC "-//W3C//DTD SVG 1.1//EN"
       "http://www.w3.org/Graphics/SVG/1.1/DTD/svg11.dtd">
<svg version="1.1" xmlns="http://www.w3.org/2000/svg" xmlns:xlink="http://www.w3.org/1999/xlink" viewBox="0 0 39.4507 28.998">
 <g>
  <rect height="28.998" opacity="0" width="39.4507" x="0" y="0"/>
  <path d="M0.229234 23.1465C1.43236 27.6035 2.6765 28.957 5.49291 28.957L21.7214 28.957C23.7449 28.957 25.0984 27.8633 25.6042 25.8125L30.7449 4.94922C31.4968 1.91406 30.0749 0 27.4089 0C24.196 0 21.5984 3.04883 22.8425 7.30078L23.1023 5.97461C19.9167 8.23047 18.2351 13.084 18.6726 18.8945L19.3015 18.0879C16.321 17.5684 12.8484 17.2812 9.40306 17.2812C2.08861 17.2812-0.891859 19.0586 0.229234 23.1465ZM2.3347 22.5586C1.73314 20.3711 3.40111 19.4824 9.40306 19.4824C14.2702 19.4824 17.7702 20.1387 19.3288 20.248C20.1628 20.2617 20.6824 19.7285 20.6687 18.8945C20.573 13.7539 21.9265 9.61133 24.3191 7.82031C24.8386 7.39648 24.948 7.12305 24.7976 6.19336C24.4285 3.62305 25.8503 2.20117 27.4089 2.20117C28.4206 2.20117 28.9675 3.03516 28.6394 4.375L23.4577 25.2793C23.2253 26.2363 22.6374 26.7559 21.7214 26.7559L5.49291 26.7559C3.96166 26.7559 3.33275 26.2637 2.3347 22.5586Z" fill="white" fill-opacity="0.85"/>
  <path d="M31.9617 13.3848C31.7702 14.0957 32.2624 14.5605 33.0007 14.3418L38.4285 12.7148C39.1394 12.5098 39.3171 11.7988 38.8113 11.293L34.8874 7.16406C34.3679 6.61719 33.698 6.79492 33.5066 7.50586Z" fill="white" fill-opacity="0.85"/>
  <path d="M17.0183 8.50391L18.5632 2.61133C18.7546 1.91406 18.2624 1.43555 17.5515 1.6543L12.0827 3.29492C11.3992 3.5 11.2077 4.19727 11.7136 4.7168L15.6511 8.81836C16.1706 9.36523 16.8269 9.22852 17.0183 8.50391Z" fill="white" fill-opacity="0.85"/>
 </g>
</svg>
