<?xml version="1.0" encoding="UTF-8"?>
<!--Generator: Apple Native CoreSVG 326-->
<!DOCTYPE svg
PUBLIC "-//W3C//DTD SVG 1.1//EN"
       "http://www.w3.org/Graphics/SVG/1.1/DTD/svg11.dtd">
<svg version="1.1" xmlns="http://www.w3.org/2000/svg" xmlns:xlink="http://www.w3.org/1999/xlink" viewBox="0 0 31.0425 33.3544">
 <g>
  <rect height="33.3544" opacity="0" width="31.0425" x="0" y="0"/>
  <path d="M0.229234 25.3246C1.43236 29.7817 2.6765 31.1352 5.49291 31.1352L21.448 31.1352C23.4714 31.1352 24.8249 30.0414 25.3308 27.9907L30.4714 7.12737C31.3054 3.72308 29.6101 2.19183 27.6413 2.19183C25.03 2.19183 22.1863 4.98089 23.7859 9.49261L24.1824 7.81097C20.0671 9.97112 18.1941 14.975 18.946 21.0864L19.4382 20.4028C16.6218 19.8149 12.9441 19.4594 9.40306 19.4594C2.08861 19.4594-0.891859 21.2367 0.229234 25.3246Z" fill="white" fill-opacity="0.85"/>
  <path d="M19.78 4.77581C19.5886 3.34026 20.2312 2.00042 21.4753 1.4262C21.8718 1.22112 21.9538 0.824638 21.8308 0.469169C21.6804 0.100028 21.2566-0.159737 20.7234 0.1137C19.0417 0.947685 18.03 3.05315 18.3308 5.10393C18.4128 5.58245 18.8913 5.81487 19.3425 5.66448C19.7117 5.51409 19.862 5.18597 19.78 4.77581ZM16.0339 15.2075C15.487 13.2114 16.157 10.436 18.5632 9.15081C19.0554 8.89104 19.1101 8.4262 18.9324 8.09808C18.7546 7.78362 18.3581 7.59222 17.8386 7.83831C14.9812 9.19183 13.8874 13.02 14.5847 15.6313C14.7077 16.0961 15.1863 16.2739 15.5554 16.1782C15.9109 16.0825 16.1843 15.7407 16.0339 15.2075Z" fill="white" fill-opacity="0.85"/>
 </g>
</svg>
