<svg version="1.1" xmlns="http://www.w3.org/2000/svg" xmlns:xlink="http://www.w3.org/1999/xlink" viewBox="0 0 39.4742 28.998">
 <g>
  
  <path d="M38.8846 23.1465C40.0057 19.0586 37.0252 17.2812 29.7108 17.2812C26.2654 17.2812 22.7928 17.5684 19.7986 18.0879L20.4412 18.8945C20.8787 13.084 19.1971 8.23047 16.0115 5.97461L16.2713 7.30078C17.5018 3.04883 14.9041 0 11.6912 0C9.03888 0 7.60333 1.91406 8.36895 4.94922L13.5096 25.8125C14.0154 27.8633 15.369 28.957 17.3787 28.957L33.6209 28.957C36.4373 28.957 37.6815 27.6035 38.8846 23.1465ZM36.7791 22.5586C35.7674 26.2637 35.1385 26.7559 33.6209 26.7559L17.3787 26.7559C16.4764 26.7559 15.8885 26.2363 15.6424 25.2793L10.4744 4.375C10.1463 3.03516 10.6932 2.20117 11.7049 2.20117C13.2635 2.20117 14.6854 3.62305 14.3025 6.19336C14.1658 7.12305 14.2615 7.39648 14.7811 7.82031C17.1873 9.61133 18.5272 13.7539 18.4315 18.8945C18.4315 19.7285 18.951 20.2617 19.785 20.248C21.3436 20.1387 24.8436 19.4824 29.7108 19.4824C35.7127 19.4824 37.367 20.3711 36.7791 22.5586Z" style="fill:var(--color-0,hsl(0 0 0/0.85))"></path>
  <path d="M7.13849 13.3848L5.59356 7.50586C5.40216 6.79492 4.73224 6.61719 4.2127 7.16406L0.288877 11.293C-0.216983 11.7988-0.0392484 12.5098 0.671689 12.7148L6.09942 14.3418C6.8377 14.5605 7.32989 14.0957 7.13849 13.3848Z" style="fill:var(--color-1,hsl(0 0 0/0.85))"></path>
  <path d="M22.0818 8.50391C22.2733 9.22852 22.9295 9.36523 23.449 8.81836L27.3865 4.7168C27.8924 4.19727 27.701 3.5 27.0174 3.29492L21.5486 1.6543C20.8377 1.43555 20.3455 1.91406 20.5369 2.61133Z" style="fill:var(--color-2,hsl(0 0 0/0.85))"></path>
 </g>
</svg>