<?xml version="1.0" encoding="UTF-8"?>
<!--Generator: Apple Native CoreSVG 326-->
<!DOCTYPE svg
PUBLIC "-//W3C//DTD SVG 1.1//EN"
       "http://www.w3.org/Graphics/SVG/1.1/DTD/svg11.dtd">
<svg version="1.1" xmlns="http://www.w3.org/2000/svg" xmlns:xlink="http://www.w3.org/1999/xlink" viewBox="0 0 39.2145 28.9707">
 <g>
  <rect height="28.9707" opacity="0" width="39.2145" x="0" y="0"/>
  <path d="M38.6248 23.1328C39.7459 19.0449 36.7654 17.2676 29.451 17.2676C25.91 17.2676 22.2322 17.623 19.4158 18.2109L19.908 18.8945C20.66 12.7832 18.7869 7.7793 14.6717 5.61914L15.0682 7.30078C16.6678 2.78906 13.824 0 11.2127 0C9.24395 0 7.54864 1.53125 8.38263 4.93555L13.5233 25.7988C14.0291 27.8496 15.3826 28.9434 17.4061 28.9434L33.3611 28.9434C36.1775 28.9434 37.4217 27.5898 38.6248 23.1328Z" fill="white" fill-opacity="0.85"/>
  <path d="M7.13849 13.3711L5.59356 7.49219C5.40216 6.78125 4.73224 6.60352 4.2127 7.15039L0.288877 11.2793C-0.216983 11.7852-0.0392484 12.4961 0.671689 12.7012L6.09942 14.3281C6.8377 14.5469 7.32989 14.082 7.13849 13.3711Z" fill="white" fill-opacity="0.85"/>
  <path d="M22.0818 8.49023C22.2733 9.21484 22.9295 9.35156 23.449 8.80469L27.3865 4.70312C27.8924 4.18359 27.701 3.48633 27.0174 3.28125L21.5486 1.64062C20.8377 1.42188 20.3455 1.90039 20.5369 2.59766Z" fill="white" fill-opacity="0.85"/>
 </g>
</svg>
