<?xml version="1.0" encoding="UTF-8"?>
<!--Generator: Apple Native CoreSVG 326-->
<!DOCTYPE svg
PUBLIC "-//W3C//DTD SVG 1.1//EN"
       "http://www.w3.org/Graphics/SVG/1.1/DTD/svg11.dtd">
<svg version="1.1" xmlns="http://www.w3.org/2000/svg" xmlns:xlink="http://www.w3.org/1999/xlink" viewBox="0 0 31.0467 33.3544">
 <g>
  <rect height="33.3544" opacity="0" width="31.0467" x="0" y="0"/>
  <path d="M30.4599 25.3246C31.5809 21.2367 28.6141 19.4594 21.286 19.4594C17.745 19.4594 14.0673 19.8149 11.2509 20.4028L11.7431 21.0864C12.495 14.975 10.622 9.97112 6.50673 7.81097L6.90321 9.49261C8.50282 4.98089 5.65907 2.19183 3.04774 2.19183C1.07899 2.19183-0.61632 3.72308 0.217664 7.12737L5.35829 27.9907C5.86415 30.0414 7.21766 31.1352 9.2411 31.1352L25.1962 31.1352C28.0126 31.1352 29.2567 29.7817 30.4599 25.3246Z" fill="white" fill-opacity="0.85"/>
  <path d="M11.1552 4.77581C11.0731 5.18597 11.2372 5.51409 11.6063 5.66448C12.0575 5.81487 12.5224 5.58245 12.6044 5.10393C12.9052 3.05315 11.8934 0.947685 10.2118 0.1137C9.6786-0.159737 9.25477 0.100028 9.10438 0.469169C8.98134 0.824638 9.07704 1.22112 9.45985 1.4262C10.704 2.00042 11.3466 3.34026 11.1552 4.77581ZM14.9013 15.2075C14.7509 15.7407 15.0243 16.0825 15.3798 16.1782C15.7626 16.2739 16.2274 16.0961 16.3505 15.6313C17.0477 13.02 15.954 9.19183 13.0966 7.83831C12.577 7.59222 12.1806 7.78362 12.0028 8.09808C11.8388 8.4262 11.8798 8.89104 12.372 9.15081C14.7919 10.436 15.4481 13.2114 14.9013 15.2075Z" fill="white" fill-opacity="0.85"/>
 </g>
</svg>
