<svg version="1.1" xmlns="http://www.w3.org/2000/svg" xmlns:xlink="http://www.w3.org/1999/xlink" viewBox="0 0 28.2461 27.9043">
 <g>
  
  <path d="M13.9453 27.8906C21.6426 27.8906 27.8906 21.6426 27.8906 13.9453C27.8906 6.24805 21.6426 0 13.9453 0C6.24805 0 0 6.24805 0 13.9453C0 21.6426 6.24805 27.8906 13.9453 27.8906ZM13.9453 25.5664C7.51953 25.5664 2.32422 20.3711 2.32422 13.9453C2.32422 7.51953 7.51953 2.32422 13.9453 2.32422C20.3711 2.32422 25.5664 7.51953 25.5664 13.9453C25.5664 20.3711 20.3711 25.5664 13.9453 25.5664Z" style="fill:var(--color-0,hsl(0 0 0/0.85))"></path>
  <path d="M11.6211 18.5801L19.0723 18.5801C19.4961 18.5801 19.7695 18.293 19.7695 17.8555C19.7695 17.4316 19.4961 17.1309 19.0723 17.1309L11.6484 17.1309C11.2383 17.1309 10.9648 16.8984 10.9102 16.4746L10.8555 15.9551L19.3867 15.9551C20.4121 15.9551 20.918 15.3398 21.0684 14.3418L21.6152 10.623C21.6426 10.5547 21.6562 10.4316 21.6562 10.377C21.6562 10.0352 21.4102 9.81641 21.0137 9.81641L9.95312 9.81641L9.83008 8.88672C9.74805 8.29883 9.26953 7.91602 8.64062 7.91602L6.31641 7.91602C5.89258 7.91602 5.60547 8.20312 5.60547 8.64062C5.60547 9.06445 5.89258 9.35156 6.31641 9.35156L8.44922 9.35156L9.5293 16.9121C9.67969 18.0059 10.3906 18.5801 11.6211 18.5801ZM11.8398 21.9297C12.5371 21.9297 13.0703 21.3828 13.0703 20.7129C13.0703 20.0156 12.5371 19.4688 11.8398 19.4688C11.1699 19.4688 10.623 20.0156 10.623 20.7129C10.623 21.3828 11.1699 21.9297 11.8398 21.9297ZM17.9648 21.9297C18.6484 21.9297 19.1953 21.3828 19.1953 20.7129C19.1953 20.0156 18.6484 19.4688 17.9648 19.4688C17.2812 19.4688 16.7207 20.0156 16.7207 20.7129C16.7207 21.3828 17.2812 21.9297 17.9648 21.9297Z" style="fill:var(--color-1,hsl(0 0 0/0.85))"></path>
 </g>
</svg>