<?xml version="1.0" encoding="UTF-8"?>
<!--Generator: Apple Native CoreSVG 326-->
<!DOCTYPE svg
PUBLIC "-//W3C//DTD SVG 1.1//EN"
       "http://www.w3.org/Graphics/SVG/1.1/DTD/svg11.dtd">
<svg version="1.1" xmlns="http://www.w3.org/2000/svg" xmlns:xlink="http://www.w3.org/1999/xlink" viewBox="0 0 28.2461 27.9043">
 <g>
  <rect height="27.9043" opacity="0" width="28.2461" x="0" y="0"/>
  <path d="M13.9453 27.9043C21.6426 27.9043 27.8906 21.6562 27.8906 13.959C27.8906 6.27539 21.6426 0.0136719 13.9453 0.0136719C6.26172 0.0136719 0 6.27539 0 13.959C0 21.6562 6.26172 27.9043 13.9453 27.9043Z" fill="white" fill-opacity="0.85"/>
  <path d="M11.5801 18.7305C10.3086 18.7305 9.57031 18.1426 9.40625 17.0215L8.29883 9.22852L6.11133 9.22852C5.67383 9.22852 5.37305 8.92773 5.37305 8.49023C5.37305 8.03906 5.67383 7.73828 6.11133 7.73828L8.50391 7.73828C9.14648 7.73828 9.65234 8.14844 9.73438 8.75L9.85742 9.69336L21.2598 9.69336C21.6699 9.69336 21.916 9.93945 21.916 10.2812C21.916 10.3359 21.9023 10.459 21.875 10.541L21.3145 14.3691C21.1641 15.3945 20.6309 16.0234 19.5781 16.0234L10.7871 16.0234L10.8418 16.5566C10.8965 16.9941 11.1836 17.2539 11.6074 17.2539L19.25 17.2539C19.6875 17.2539 19.9746 17.541 19.9746 17.9785C19.9746 18.4434 19.6875 18.7305 19.25 18.7305ZM11.7988 22.1895C11.1016 22.1895 10.541 21.6426 10.541 20.9316C10.541 20.207 11.1016 19.6602 11.7988 19.6602C12.5098 19.6602 13.0703 20.207 13.0703 20.9316C13.0703 21.6426 12.5098 22.1895 11.7988 22.1895ZM18.1016 22.1895C17.4043 22.1895 16.8164 21.6426 16.8164 20.9316C16.8164 20.207 17.4043 19.6602 18.1016 19.6602C18.8125 19.6602 19.373 20.207 19.373 20.9316C19.373 21.6426 18.8125 22.1895 18.1016 22.1895Z" fill="white"/>
 </g>
</svg>
