<svg version="1.1" xmlns="http://www.w3.org/2000/svg" xmlns:xlink="http://www.w3.org/1999/xlink" viewBox="0 0 32.0059 26.5098">
 <g>
  
  <path d="M4.22461 26.4961L27.4258 26.4961C30.2559 26.4961 31.6504 25.1289 31.6504 22.3262L31.6504 9.02344C31.6504 6.2207 30.2559 4.85352 27.4258 4.85352L4.22461 4.85352C1.4082 4.85352 0 6.2207 0 9.02344L0 22.3262C0 25.1289 1.4082 26.4961 4.22461 26.4961ZM8.88672 6.04297L11.0059 6.04297L11.0059 3.62305C11.0059 2.58398 11.6211 1.99609 12.6875 1.99609L18.9629 1.99609C20.0293 1.99609 20.6309 2.58398 20.6309 3.62305L20.6309 6.01562L22.75 6.01562L22.75 3.77344C22.75 1.20312 21.3965 0 18.9219 0L12.7148 0C10.377 0 8.88672 1.20312 8.88672 3.77344Z" style="fill:var(--color-0,hsl(0 0 0/0.85))"></path>
 </g>
</svg>