<svg version="1.1" xmlns="http://www.w3.org/2000/svg" xmlns:xlink="http://www.w3.org/1999/xlink" viewBox="0 0 28.2461 27.9043">
 <g>
  
  <path d="M13.9453 27.8906C21.6426 27.8906 27.8906 21.6426 27.8906 13.9453C27.8906 6.24805 21.6426 0 13.9453 0C6.24805 0 0 6.24805 0 13.9453C0 21.6426 6.24805 27.8906 13.9453 27.8906ZM13.9453 25.5664C7.51953 25.5664 2.32422 20.3711 2.32422 13.9453C2.32422 7.51953 7.51953 2.32422 13.9453 2.32422C20.3711 2.32422 25.5664 7.51953 25.5664 13.9453C25.5664 20.3711 20.3711 25.5664 13.9453 25.5664Z" style="fill:var(--color-0,hsl(0 0 0/0.85))"></path>
  <path d="M8.99609 21.7383L9.69336 21.7383C10.4043 21.7383 10.8145 21.3828 10.8145 20.7539C10.8145 20.3164 10.4453 19.9199 9.76172 19.8105L9.76172 18.2109C9.76172 17.5547 9.91211 17.1582 10.3086 16.502C11.4844 16.9531 12.25 17.0898 13.166 17.0898C14.2461 17.0898 15.4219 16.9121 16.0508 16.7344C16.2148 17.2812 16.3652 17.8965 16.3652 18.5391C16.3652 19.3047 16.2695 20.084 16.2695 20.7129C16.2695 21.3828 16.6523 21.7383 17.3496 21.7383L18.1152 21.7383C18.8125 21.7383 19.2363 21.3555 19.2363 20.7539C19.2363 20.248 18.9629 19.9199 18.3887 19.8242L18.3887 19.127C18.3887 15.5039 20.9727 16.5293 21.041 12.0586C22.2441 11.9766 23.1055 11.1973 23.1055 10.623C23.1055 9.77539 22.2305 8.90039 21.1914 8.17578C20.9863 7.42383 20.5762 6.84961 20.2754 6.84961C19.9883 6.84961 19.4961 7.39648 19.2637 8.2168C18.7168 8.72266 18.2793 9.37891 17.9512 9.98047L17.6914 10.418C17.459 10.8555 17.2676 11.1152 16.9805 11.1152C14.3555 11.1152 13.3848 10.7598 10.9512 10.7598C9.78906 10.7598 9.06445 11.1562 8.61328 11.6621C8.36719 11.9629 8.20312 12.0312 7.7793 11.8672C6.98633 11.5664 6.42578 10.7871 6.42578 9.77539C6.42578 8.43555 7.49219 7.50586 9.00977 7.50586C9.59766 7.50586 10.1855 7.61523 10.8828 7.90234C11.5664 8.17578 11.8945 7.24609 11.2656 6.98633C10.459 6.6582 9.70703 6.52148 9.00977 6.52148C6.91797 6.52148 5.45508 7.86133 5.45508 9.77539C5.45508 11.1836 6.19336 12.3047 7.35547 12.7422C7.71094 12.8926 7.86133 13.1387 7.86133 13.5078C7.83398 13.8633 7.83398 14.1777 7.83398 14.4102C7.83398 16.5566 6.87695 16.8848 7.16406 17.8418L7.9707 20.8633C8.12109 21.4375 8.47656 21.7383 8.99609 21.7383ZM21 10.0762C20.8223 10.0352 20.7402 9.87109 20.7812 9.70703C20.8223 9.54297 20.9863 9.44727 21.1641 9.48828C21.3281 9.54297 21.4102 9.7207 21.3691 9.88477C21.3281 10.0488 21.1641 10.1309 21 10.0762Z" style="fill:var(--color-1,hsl(0 0 0/0.85))"></path>
 </g>
</svg>