<svg version="1.1" xmlns="http://www.w3.org/2000/svg" xmlns:xlink="http://www.w3.org/1999/xlink" viewBox="0 0 30.8848 29.1895">
 <g>
  
  <path d="M1.81836 27.5898L28.7109 27.5898L28.7109 25.9766C28.7109 25.4297 28.3965 25.1016 27.8359 25.1016L26.9609 25.1016L26.9609 9.37891L28.1641 9.37891C28.916 9.37891 29.3535 8.83203 29.3535 8.27148C29.3535 7.86133 29.1211 7.50586 28.6152 7.21875L16.9395 0.478516C16.3926 0.164062 15.8184 0 15.2578 0C14.6973 0 14.1094 0.164062 13.5898 0.478516L1.91406 7.21875C1.39453 7.50586 1.17578 7.86133 1.17578 8.27148C1.17578 8.83203 1.61328 9.37891 2.36523 9.37891L3.56836 9.37891L3.56836 25.1016L2.70703 25.1016C2.14648 25.1016 1.81836 25.4297 1.81836 25.9766ZM1.09375 29.1758L29.4219 29.1758C30.0234 29.1758 30.5293 28.6699 30.5293 28.0684C30.5293 27.4668 30.0234 26.9746 29.4219 26.9746L1.09375 26.9746C0.492188 26.9746 0 27.4668 0 28.0684C0 28.6699 0.492188 29.1758 1.09375 29.1758Z" style="fill:var(--color-0,hsl(0 0 0/0.85))"></path>
  <path d="M15.2715 23.2012C15.0117 23.2012 14.8066 22.9961 14.8066 22.7363L14.8066 21.5879C11.6621 21.3145 10.0078 18.7578 10.0078 15.4902C10.0078 12.168 11.7578 9.67969 14.8066 9.41992L14.8066 8.29883C14.8066 8.02539 15.0117 7.83398 15.2715 7.83398C15.5449 7.83398 15.7227 8.02539 15.7227 8.29883L15.7227 9.40625C17.5 9.50195 19.0859 10.3906 19.7832 11.9629C19.8926 12.209 19.9883 12.4688 19.9883 12.7832C19.9883 13.2344 19.6875 13.5078 19.25 13.5078C18.8125 13.5078 18.6211 13.2891 18.4844 12.8789C18.1289 11.7715 17.0215 10.9512 15.7227 10.8145L15.7227 20.1797C17.0762 20.0703 18.1973 19.3184 18.5664 18.1562C18.7031 17.7461 18.9219 17.5137 19.3457 17.5137C19.7832 17.5137 20.084 17.8008 20.084 18.2383C20.084 18.4844 20.043 18.6758 19.9609 18.8809C19.3457 20.6035 17.6504 21.5059 15.7227 21.6016L15.7227 22.7363C15.7227 23.0098 15.5449 23.2012 15.2715 23.2012ZM11.6758 15.4902C11.6758 17.7734 12.6465 19.8379 14.8066 20.1523L14.8066 10.8555C12.7012 11.1562 11.6758 13.1934 11.6758 15.4902Z" style="fill:var(--color-1,white)"></path>
 </g>
</svg>