<svg version="1.1" xmlns="http://www.w3.org/2000/svg" xmlns:xlink="http://www.w3.org/1999/xlink" viewBox="0 0 30.8848 29.1895">
 <g>
  
  <path d="M1.81836 25.9219L28.7109 25.9219L28.7109 25.0059C28.7109 24.459 28.3965 24.1309 27.8359 24.1309L26.9609 24.1309L26.9609 9.37891L28.1641 9.37891C28.916 9.37891 29.3535 8.83203 29.3535 8.27148C29.3535 7.86133 29.1211 7.50586 28.6152 7.21875L16.9395 0.478516C16.3926 0.164062 15.8184 0 15.2578 0C14.6973 0 14.1094 0.164062 13.5898 0.478516L1.91406 7.21875C1.39453 7.50586 1.17578 7.86133 1.17578 8.27148C1.17578 8.83203 1.61328 9.37891 2.36523 9.37891L3.56836 9.37891L3.56836 24.1309L2.70703 24.1309C2.14648 24.1309 1.81836 24.459 1.81836 25.0059ZM5.63281 24.1309L5.63281 7.62891L14.7246 2.5293C14.8887 2.43359 15.0801 2.37891 15.2578 2.37891C15.4355 2.37891 15.627 2.43359 15.8047 2.5293L24.8965 7.62891L24.8965 24.1309ZM1.09375 29.1758L29.4219 29.1758C30.0234 29.1758 30.5293 28.6699 30.5293 28.0684C30.5293 27.4668 30.0234 26.9746 29.4219 26.9746L1.09375 26.9746C0.492188 26.9746 0 27.4668 0 28.0684C0 28.6699 0.492188 29.1758 1.09375 29.1758Z" style="fill:var(--color-0,hsl(0 0 0/0.85))"></path>
  <path d="M15.3809 20.3984C17.4316 20.3984 19.291 19.4961 19.9609 17.6641C20.043 17.459 20.084 17.2539 20.084 17.0215C20.084 16.584 19.7832 16.2969 19.3457 16.2969C18.9219 16.2969 18.7031 16.5293 18.5664 16.9258C18.1699 18.1836 16.8574 18.9766 15.3809 18.9766C12.8242 18.9766 11.6758 16.7344 11.6758 14.2734C11.6758 11.7715 12.8926 9.58398 15.3672 9.58398C16.8164 9.58398 18.0879 10.4453 18.4844 11.6484C18.6211 12.0586 18.8125 12.2773 19.25 12.2773C19.6875 12.2773 19.9883 12.0176 19.9883 11.5527C19.9883 11.2383 19.8926 10.9922 19.7832 10.7324C19.0449 9.06445 17.2812 8.16211 15.3672 8.16211C11.9766 8.16211 10.0078 10.7461 10.0078 14.2734C10.0078 17.7324 11.8672 20.3984 15.3809 20.3984ZM15.2715 21.9844C15.5449 21.9844 15.7227 21.793 15.7227 21.5195L15.7227 7.06836C15.7227 6.80859 15.5449 6.60352 15.2715 6.60352C15.0117 6.60352 14.8066 6.80859 14.8066 7.06836L14.8066 21.5195C14.8066 21.7793 15.0117 21.9844 15.2715 21.9844Z" style="fill:var(--color-1,hsl(0 0 0/0.85))"></path>
 </g>
</svg>