<svg version="1.1" xmlns="http://www.w3.org/2000/svg" xmlns:xlink="http://www.w3.org/1999/xlink" viewBox="0 0 33.291 27.4395">
 <g>
  
  <path d="M32.9355 16.4609C32.9355 12.4414 31.4863 8.73633 29.0664 5.86523C28.793 5.53711 28.3281 5.53711 28.0273 5.85156L24.8555 9.02344C24.5957 9.2832 24.582 9.65234 24.8145 9.93945C26.2227 11.7441 27.0703 14.0137 27.0703 16.4609C27.0703 18.9219 26.2227 21.1914 24.7324 23.0918C24.541 23.3242 24.5547 23.625 24.7598 23.8438L28.0137 27.0977C28.3281 27.4121 28.7793 27.4121 29.0664 27.0703C31.4863 24.1992 32.9355 20.4941 32.9355 16.4609Z" style="fill:var(--color-0,hsl(0 0 0/0.85))"></path>
  <path d="M16.4609 5.86523C18.9355 5.86523 21.2051 6.72656 23.0234 8.13477C23.2969 8.35352 23.6523 8.32617 23.9121 8.06641L27.084 4.89453C27.3984 4.58008 27.3848 4.12891 27.0566 3.85547C24.1992 1.44922 20.4941 0 16.4609 0C12.4414 0 8.73633 1.44922 5.87891 3.85547C5.55078 4.12891 5.53711 4.58008 5.85156 4.89453L9.02344 8.06641C9.2832 8.32617 9.65234 8.35352 9.95312 8.12109C11.7578 6.72656 14.0137 5.86523 16.4609 5.86523Z" style="fill:var(--color-1,hsl(0 0 0/0.85))"></path>
  <path d="M0 16.4609C0 20.4941 1.44922 24.1992 3.86914 27.0703C4.14258 27.4121 4.60742 27.4121 4.9082 27.0977L8.16211 23.8438C8.36719 23.625 8.39453 23.3242 8.20312 23.0918C6.71289 21.1914 5.86523 18.9219 5.86523 16.4609C5.86523 14.0137 6.69922 11.7441 8.12109 9.93945C8.33984 9.65234 8.33984 9.2832 8.08008 9.02344L4.9082 5.85156C4.59375 5.53711 4.14258 5.53711 3.86914 5.86523C1.44922 8.73633 0 12.4414 0 16.4609Z" style="fill:var(--color-2,hsl(0 0 0/0.85))"></path>
  <path d="M16.5566 22.6543C18.6211 22.6543 20.4805 21.752 21.1367 19.9199C21.2188 19.7148 21.2598 19.5098 21.2598 19.2773C21.2598 18.8398 20.9727 18.5527 20.5352 18.5527C20.0977 18.5527 19.8789 18.7852 19.7559 19.1816C19.3457 20.4395 18.0469 21.2324 16.5566 21.2324C14 21.2324 12.8516 18.9902 12.8516 16.5293C12.8516 14.0273 14.082 11.8398 16.543 11.8398C17.9922 11.8398 19.2773 12.7012 19.6602 13.9043C19.7969 14.3145 20.002 14.5332 20.4258 14.5332C20.8633 14.5332 21.1641 14.2734 21.1641 13.8086C21.1641 13.4941 21.082 13.248 20.9727 12.9883C20.2207 11.3203 18.457 10.418 16.543 10.418C13.166 10.418 11.1836 13.002 11.1836 16.5293C11.1836 19.9883 13.043 22.6543 16.5566 22.6543ZM16.4473 24.2402C16.7207 24.2402 16.9121 24.0488 16.9121 23.7754L16.9121 9.32422C16.9121 9.06445 16.7207 8.85938 16.4473 8.85938C16.1875 8.85938 15.9824 9.06445 15.9824 9.32422L15.9824 23.7754C15.9824 24.0352 16.1875 24.2402 16.4473 24.2402Z" style="fill:var(--color-3,hsl(0 0 0/0.85))"></path>
 </g>
</svg>