<?xml version="1.0" encoding="UTF-8"?>
<!--Generator: Apple Native CoreSVG 326-->
<!DOCTYPE svg
PUBLIC "-//W3C//DTD SVG 1.1//EN"
       "http://www.w3.org/Graphics/SVG/1.1/DTD/svg11.dtd">
<svg version="1.1" xmlns="http://www.w3.org/2000/svg" xmlns:xlink="http://www.w3.org/1999/xlink" viewBox="0 0 33.5408 27.9043">
 <g>
  <rect height="27.9043" opacity="0" width="33.5408" x="0" y="0"/>
  <path d="M16.5995 27.8906C24.2968 27.8906 30.5448 21.6426 30.5448 13.9453C30.5448 6.24805 24.2968 0 16.5995 0C8.90224 0 2.65419 6.24805 2.65419 13.9453L4.97841 13.9453C4.97841 7.51953 10.1737 2.32422 16.5995 2.32422C23.0253 2.32422 28.2206 7.51953 28.2206 13.9453C28.2206 20.3711 23.0253 25.5664 16.5995 25.5664C12.7167 25.5664 9.2577 23.6523 7.19325 20.7539C6.76942 20.1934 6.12684 20.0156 5.55263 20.3574C5.00575 20.6992 4.84169 21.4648 5.30653 22.0664C7.83583 25.6074 11.9784 27.8906 16.5995 27.8906ZM0.972548 11.3066C-0.0118272 11.3066-0.257921 11.9766 0.275282 12.7422L3.33778 17.0898C3.78895 17.7188 4.4452 17.7051 4.8827 17.0898L7.93153 12.7285C8.46474 11.9766 8.20497 11.3066 7.24794 11.3066Z" fill="white" fill-opacity="0.85"/>
  <path d="M16.7089 19.9473C18.7597 19.9473 20.6327 19.0449 21.289 17.2266C21.371 17.0078 21.412 16.8164 21.412 16.584C21.412 16.1328 21.1249 15.8594 20.6737 15.8594C20.2499 15.8594 20.0311 16.0918 19.8944 16.4883C19.4979 17.7461 18.1991 18.5391 16.7089 18.5391C14.1522 18.5391 13.0038 16.2969 13.0038 13.8223C13.0038 11.334 14.2206 9.14648 16.6952 9.14648C18.1444 9.14648 19.4159 10.0078 19.8124 11.2109C19.9491 11.6211 20.1542 11.8398 20.578 11.8398C21.0155 11.8398 21.3163 11.5664 21.3163 11.1152C21.3163 10.8008 21.2206 10.541 21.1112 10.2949C20.3729 8.62695 18.6093 7.72461 16.6952 7.72461C13.3046 7.72461 11.3358 10.2949 11.3358 13.8223C11.3358 17.2812 13.1952 19.9473 16.7089 19.9473ZM16.5995 21.5332C16.8729 21.5332 17.0507 21.3555 17.0507 21.0684L17.0507 6.63086C17.0507 6.37109 16.8729 6.16602 16.5995 6.16602C16.3397 6.16602 16.1347 6.37109 16.1347 6.63086L16.1347 21.0684C16.1347 21.3418 16.3397 21.5332 16.5995 21.5332Z" fill="white" fill-opacity="0.85"/>
 </g>
</svg>
