<svg version="1.1" xmlns="http://www.w3.org/2000/svg" xmlns:xlink="http://www.w3.org/1999/xlink" viewBox="0 0 28.2461 27.9043">
 <g>
  
  <path d="M13.9453 27.8906C21.6426 27.8906 27.8906 21.6426 27.8906 13.9453C27.8906 6.24805 21.6426 0 13.9453 0C6.24805 0 0 6.24805 0 13.9453C0 21.6426 6.24805 27.8906 13.9453 27.8906ZM13.9453 25.5664C7.51953 25.5664 2.32422 20.3711 2.32422 13.9453C2.32422 7.51953 7.51953 2.32422 13.9453 2.32422C20.3711 2.32422 25.5664 7.51953 25.5664 13.9453C25.5664 20.3711 20.3711 25.5664 13.9453 25.5664Z" style="fill:var(--color-0,hsl(0 0 0/0.85))"></path>
  <path d="M14.041 19.9473C16.0918 19.9473 17.9648 19.0449 18.6211 17.2266C18.7031 17.0078 18.7441 16.8164 18.7441 16.584C18.7441 16.1328 18.457 15.8594 18.0059 15.8594C17.582 15.8594 17.3633 16.0918 17.2266 16.4883C16.8301 17.7461 15.5312 18.5391 14.041 18.5391C11.4844 18.5391 10.3359 16.2969 10.3359 13.8223C10.3359 11.334 11.5527 9.14648 14.0273 9.14648C15.4766 9.14648 16.748 10.0078 17.1445 11.2109C17.2812 11.6211 17.4863 11.8398 17.9102 11.8398C18.3477 11.8398 18.6484 11.5664 18.6484 11.1152C18.6484 10.8008 18.5527 10.541 18.4434 10.2949C17.7051 8.62695 15.9414 7.72461 14.0273 7.72461C10.6367 7.72461 8.66797 10.2949 8.66797 13.8223C8.66797 17.2812 10.5273 19.9473 14.041 19.9473ZM13.9316 21.5332C14.2051 21.5332 14.3828 21.3555 14.3828 21.0684L14.3828 6.63086C14.3828 6.37109 14.2051 6.16602 13.9316 6.16602C13.6719 6.16602 13.4668 6.37109 13.4668 6.63086L13.4668 21.0684C13.4668 21.3418 13.6719 21.5332 13.9316 21.5332Z" style="fill:var(--color-1,hsl(0 0 0/0.85))"></path>
 </g>
</svg>