<?xml version="1.0" encoding="UTF-8"?>
<!--Generator: Apple Native CoreSVG 326-->
<!DOCTYPE svg
PUBLIC "-//W3C//DTD SVG 1.1//EN"
       "http://www.w3.org/Graphics/SVG/1.1/DTD/svg11.dtd">
<svg version="1.1" xmlns="http://www.w3.org/2000/svg" xmlns:xlink="http://www.w3.org/1999/xlink" viewBox="0 0 20.2754 30.9395">
 <g>
  <rect height="30.9395" opacity="0" width="20.2754" x="0" y="0"/>
  <path d="M10.623 27.6992C14.6152 27.6992 18.334 25.9902 19.6875 22.2305C19.8379 21.8613 19.9199 21.3418 19.9199 20.9863C19.9199 20.1387 19.373 19.7422 18.6758 19.7422C17.9238 19.7422 17.5684 20.166 17.3223 20.8633C16.5156 23.6387 13.7949 25.2246 10.6367 25.2246C5.42773 25.2246 2.87109 20.8223 2.87109 15.4219C2.87109 10.2402 5.31836 5.70117 10.623 5.70117C13.5625 5.70117 16.3379 7.35547 17.1445 10.1445C17.3906 10.8555 17.7324 11.252 18.498 11.252C19.25 11.252 19.7422 10.7598 19.7422 10.0215C19.7422 9.63867 19.6602 9.17383 19.5098 8.77734C18.1836 5.25 14.5332 3.22656 10.623 3.22656C3.78711 3.22656 0 8.44922 0 15.4219C0 22.4902 3.77344 27.6992 10.623 27.6992ZM10.3906 30.9395C10.9375 30.9395 11.3066 30.584 11.3066 30.0371L11.3066 0.984375C11.3066 0.355469 10.8281 0.0820312 10.3906 0.0820312C9.98047 0.0820312 9.51562 0.355469 9.51562 0.984375L9.51562 30.0371C9.51562 30.6387 9.93945 30.9395 10.3906 30.9395Z" fill="white" fill-opacity="0.85"/>
 </g>
</svg>
