<?xml version="1.0" encoding="UTF-8"?>
<!--Generator: Apple Native CoreSVG 326-->
<!DOCTYPE svg
PUBLIC "-//W3C//DTD SVG 1.1//EN"
       "http://www.w3.org/Graphics/SVG/1.1/DTD/svg11.dtd">
<svg version="1.1" xmlns="http://www.w3.org/2000/svg" xmlns:xlink="http://www.w3.org/1999/xlink" viewBox="0 0 30.8848 29.1895">
 <g>
  <rect height="29.1895" opacity="0" width="30.8848" x="0" y="0"/>
  <path d="M1.81836 25.9219L28.7109 25.9219L28.7109 25.0059C28.7109 24.459 28.3965 24.1309 27.8359 24.1309L26.9609 24.1309L26.9609 9.37891L28.1641 9.37891C28.916 9.37891 29.3535 8.83203 29.3535 8.27148C29.3535 7.86133 29.1211 7.50586 28.6152 7.21875L16.9395 0.478516C16.3926 0.164062 15.8184 0 15.2578 0C14.6973 0 14.1094 0.164062 13.5898 0.478516L1.91406 7.21875C1.39453 7.50586 1.17578 7.86133 1.17578 8.27148C1.17578 8.83203 1.61328 9.37891 2.36523 9.37891L3.56836 9.37891L3.56836 24.1309L2.70703 24.1309C2.14648 24.1309 1.81836 24.459 1.81836 25.0059ZM5.63281 24.1309L5.63281 7.62891L14.7246 2.5293C14.8887 2.43359 15.0801 2.37891 15.2578 2.37891C15.4355 2.37891 15.627 2.43359 15.8047 2.5293L24.8965 7.62891L24.8965 24.1309ZM1.09375 29.1758L29.4219 29.1758C30.0234 29.1758 30.5293 28.6699 30.5293 28.0684C30.5293 27.4668 30.0234 26.9746 29.4219 26.9746L1.09375 26.9746C0.492188 26.9746 0 27.4668 0 28.0684C0 28.6699 0.492188 29.1758 1.09375 29.1758Z" fill="white" fill-opacity="0.85"/>
  <path d="M15.2715 19.0996C16.4609 19.0996 17.6367 18.6758 18.375 17.9648C18.8125 17.5273 19.1543 16.8984 19.1543 16.4199C19.1543 15.9824 18.8262 15.7363 18.4434 15.7363C18.0605 15.7363 17.8828 15.9824 17.7461 16.2422C17.2266 17.2539 16.4609 17.7734 15.2852 17.7734C13.3438 17.7734 12.4141 16.2969 12.4141 14.3008C12.4141 12.3047 13.3711 10.8418 15.2715 10.8418C16.4336 10.8418 17.2812 11.334 17.7324 12.3867C17.8691 12.7012 18.1152 12.8926 18.4434 12.8926C18.8535 12.8926 19.1406 12.6328 19.1406 12.1953C19.1406 11.6758 18.7715 11.0879 18.3477 10.6641C17.6094 9.92578 16.4746 9.51562 15.2578 9.51562C12.4688 9.51562 10.8281 11.5117 10.8281 14.3008C10.8281 17.3223 12.6328 19.0996 15.2715 19.0996ZM15.2168 20.7129C15.4766 20.7129 15.6816 20.5078 15.6816 20.248L15.6816 8.36719C15.6816 8.10742 15.4766 7.90234 15.2168 7.90234C14.957 7.90234 14.752 8.10742 14.752 8.36719L14.752 20.248C14.752 20.5078 14.957 20.7129 15.2168 20.7129Z" fill="white" fill-opacity="0.85"/>
 </g>
</svg>
