<?xml version="1.0" encoding="UTF-8"?>
<!--Generator: Apple Native CoreSVG 326-->
<!DOCTYPE svg
PUBLIC "-//W3C//DTD SVG 1.1//EN"
       "http://www.w3.org/Graphics/SVG/1.1/DTD/svg11.dtd">
<svg version="1.1" xmlns="http://www.w3.org/2000/svg" xmlns:xlink="http://www.w3.org/1999/xlink" viewBox="0 0 28.2461 27.9043">
 <g>
  <rect height="27.9043" opacity="0" width="28.2461" x="0" y="0"/>
  <path d="M13.9453 27.8906C21.6426 27.8906 27.8906 21.6289 27.8906 13.9453C27.8906 6.24805 21.6426 0 13.9453 0C6.26172 0 0 6.24805 0 13.9453C0 21.6289 6.26172 27.8906 13.9453 27.8906Z" fill="white" fill-opacity="0.85"/>
  <path d="M13.9043 20.4805C13.6309 20.4805 13.4121 20.2617 13.4121 19.9883L13.4121 18.7852C10.9785 18.5527 9.36523 16.7617 9.36523 13.8633C9.36523 11.1562 10.8555 9.17383 13.4121 8.94141L13.4121 7.73828C13.4121 7.47852 13.6309 7.25977 13.9043 7.25977C14.1641 7.25977 14.3828 7.47852 14.3828 7.73828L14.3828 8.94141C15.4766 9.03711 16.4609 9.43359 17.1309 10.1035C17.5684 10.541 17.9512 11.1426 17.9512 11.6758C17.9512 12.127 17.6504 12.4004 17.2266 12.4004C16.8848 12.4004 16.625 12.209 16.4883 11.8809C16.0781 10.9375 15.3535 10.4316 14.3828 10.3223L14.3828 17.418C15.3535 17.3086 16.0371 16.7754 16.502 15.8594C16.6523 15.5859 16.8301 15.3262 17.2266 15.3262C17.623 15.3262 17.9648 15.5996 17.9648 16.0508C17.9648 16.543 17.6094 17.1855 17.1582 17.6367C16.4883 18.293 15.4629 18.7031 14.3828 18.7988L14.3828 19.9883C14.3828 20.2617 14.1641 20.4805 13.9043 20.4805ZM11.0059 13.8633C11.0059 15.709 11.7852 17.1309 13.4121 17.4043L13.4121 10.3359C11.8262 10.582 11.0059 11.9902 11.0059 13.8633Z" fill="white"/>
 </g>
</svg>
