<svg version="1.1" xmlns="http://www.w3.org/2000/svg" xmlns:xlink="http://www.w3.org/1999/xlink" viewBox="0 0 33.291 27.4395">
 <g>
  
  <path d="M32.9355 16.4609C32.9355 12.4414 31.4863 8.73633 29.0664 5.86523C28.793 5.53711 28.3281 5.53711 28.0273 5.85156L24.8555 9.02344C24.5957 9.2832 24.582 9.65234 24.8145 9.93945C26.2227 11.7441 27.0703 14.0137 27.0703 16.4609C27.0703 18.9219 26.2227 21.1914 24.7324 23.0918C24.541 23.3242 24.5547 23.625 24.7598 23.8438L28.0137 27.0977C28.3281 27.4121 28.7793 27.4121 29.0664 27.0703C31.4863 24.1992 32.9355 20.4941 32.9355 16.4609Z" style="fill:var(--color-0,hsl(0 0 0/0.85))"></path>
  <path d="M16.4609 5.86523C18.9355 5.86523 21.2051 6.72656 23.0234 8.13477C23.2969 8.35352 23.6523 8.32617 23.9121 8.06641L27.084 4.89453C27.3984 4.58008 27.3848 4.12891 27.0566 3.85547C24.1992 1.44922 20.4941 0 16.4609 0C12.4414 0 8.73633 1.44922 5.87891 3.85547C5.55078 4.12891 5.53711 4.58008 5.85156 4.89453L9.02344 8.06641C9.2832 8.32617 9.65234 8.35352 9.95312 8.12109C11.7578 6.72656 14.0137 5.86523 16.4609 5.86523Z" style="fill:var(--color-1,hsl(0 0 0/0.85))"></path>
  <path d="M0 16.4609C0 20.4941 1.44922 24.1992 3.86914 27.0703C4.14258 27.4121 4.60742 27.4121 4.9082 27.0977L8.16211 23.8438C8.36719 23.625 8.39453 23.3242 8.20312 23.0918C6.71289 21.1914 5.86523 18.9219 5.86523 16.4609C5.86523 14.0137 6.69922 11.7441 8.12109 9.93945C8.33984 9.65234 8.33984 9.2832 8.08008 9.02344L4.9082 5.85156C4.59375 5.53711 4.14258 5.53711 3.86914 5.86523C1.44922 8.73633 0 12.4414 0 16.4609Z" style="fill:var(--color-2,hsl(0 0 0/0.85))"></path>
  <path d="M16.4609 21.3555C17.6367 21.3555 18.8125 20.9316 19.5645 20.2207C20.002 19.7832 20.3301 19.1543 20.3301 18.6758C20.3301 18.2383 20.002 17.9922 19.6191 17.9922C19.25 17.9922 19.0723 18.2383 18.9219 18.498C18.4023 19.5098 17.6367 20.0293 16.4746 20.0293C14.5195 20.0293 13.5898 18.5527 13.5898 16.5566C13.5898 14.5605 14.5605 13.0977 16.4473 13.0977C17.6094 13.0977 18.457 13.5898 18.9082 14.6426C19.0586 14.957 19.291 15.1484 19.6191 15.1484C20.0293 15.1484 20.3164 14.8887 20.3164 14.4512C20.3164 13.9316 19.9473 13.3438 19.5234 12.9199C18.7852 12.1816 17.6504 11.7715 16.4336 11.7715C13.6445 11.7715 12.0039 13.7676 12.0039 16.5566C12.0039 19.5781 13.8086 21.3555 16.4609 21.3555ZM16.4062 22.9688C16.666 22.9688 16.8711 22.7637 16.8711 22.5039L16.8711 10.623C16.8711 10.3633 16.666 10.1582 16.4062 10.1582C16.1328 10.1582 15.9277 10.3633 15.9277 10.623L15.9277 22.5039C15.9277 22.7637 16.1328 22.9688 16.4062 22.9688Z" style="fill:var(--color-3,hsl(0 0 0/0.85))"></path>
 </g>
</svg>