<svg version="1.1" xmlns="http://www.w3.org/2000/svg" xmlns:xlink="http://www.w3.org/1999/xlink" viewBox="0 0 25.5254 25.1699">
 <g>
  
  <path d="M4.29297 25.1699L20.877 25.1699C23.748 25.1699 25.1699 23.7617 25.1699 20.9453L25.1699 4.23828C25.1699 1.42188 23.748 0 20.877 0L4.29297 0C1.43555 0 0 1.42188 0 4.23828L0 20.9453C0 23.7617 1.43555 25.1699 4.29297 25.1699Z" style="fill:var(--color-0,hsl(0 0 0/0.85))"></path>
  <path d="M12.5508 19.1133C12.2773 19.1133 12.0586 18.8945 12.0586 18.6211L12.0586 17.418C9.625 17.1855 8.01172 15.3945 8.01172 12.4961C8.01172 9.78906 9.50195 7.80664 12.0586 7.57422L12.0586 6.37109C12.0586 6.11133 12.2773 5.89258 12.5508 5.89258C12.8242 5.89258 13.043 6.11133 13.043 6.37109L13.043 7.57422C14.123 7.66992 15.1074 8.06641 15.7773 8.73633C16.2148 9.17383 16.5977 9.77539 16.5977 10.3086C16.5977 10.7598 16.2969 11.0332 15.873 11.0332C15.5312 11.0332 15.2715 10.8418 15.1348 10.5137C14.7246 9.57031 14.0137 9.06445 13.043 8.95508L13.043 16.0508C14.0137 15.9414 14.6836 15.4082 15.1484 14.4922C15.2988 14.2188 15.4766 13.959 15.873 13.959C16.2695 13.959 16.6113 14.2324 16.6113 14.6836C16.6113 15.1758 16.2559 15.8184 15.8047 16.2695C15.1348 16.9258 14.1094 17.3359 13.043 17.4316L13.043 18.6211C13.043 18.8945 12.8242 19.1133 12.5508 19.1133ZM9.65234 12.4961C9.65234 14.3418 10.4316 15.7637 12.0586 16.0371L12.0586 8.96875C10.4727 9.21484 9.65234 10.623 9.65234 12.4961Z" style="fill:var(--color-1,white)"></path>
 </g>
</svg>