<?xml version="1.0" encoding="UTF-8"?>
<!--Generator: Apple Native CoreSVG 326-->
<!DOCTYPE svg
PUBLIC "-//W3C//DTD SVG 1.1//EN"
       "http://www.w3.org/Graphics/SVG/1.1/DTD/svg11.dtd">
<svg version="1.1" xmlns="http://www.w3.org/2000/svg" xmlns:xlink="http://www.w3.org/1999/xlink" viewBox="0 0 33.5408 27.9043">
 <g>
  <rect height="27.9043" opacity="0" width="33.5408" x="0" y="0"/>
  <path d="M16.5995 27.8906C24.2968 27.8906 30.5448 21.6426 30.5448 13.9453C30.5448 6.24805 24.2968 0 16.5995 0C8.90224 0 2.65419 6.24805 2.65419 13.9453L4.97841 13.9453C4.97841 7.51953 10.1737 2.32422 16.5995 2.32422C23.0253 2.32422 28.2206 7.51953 28.2206 13.9453C28.2206 20.3711 23.0253 25.5664 16.5995 25.5664C12.7167 25.5664 9.2577 23.6523 7.19325 20.7539C6.76942 20.1934 6.12684 20.0156 5.55263 20.3574C5.00575 20.6992 4.84169 21.4648 5.30653 22.0664C7.83583 25.6074 11.9784 27.8906 16.5995 27.8906ZM0.972548 11.3066C-0.0118272 11.3066-0.257921 11.9766 0.275282 12.7422L3.33778 17.0898C3.78895 17.7188 4.4452 17.7051 4.8827 17.0898L7.93153 12.7285C8.46474 11.9766 8.20497 11.3066 7.24794 11.3066Z" fill="white" fill-opacity="0.85"/>
  <path d="M16.5995 18.6621C17.789 18.6621 18.9647 18.2383 19.703 17.5137C20.1405 17.0898 20.4823 16.4609 20.4823 15.9824C20.4823 15.5449 20.1542 15.2852 19.7714 15.2852C19.3886 15.2852 19.2245 15.5312 19.0741 15.8047C18.5546 16.8164 17.789 17.3359 16.6132 17.3359C14.6718 17.3359 13.7421 15.8457 13.7421 13.8633C13.7421 11.8672 14.6991 10.4043 16.5995 10.4043C17.7616 10.4043 18.6093 10.8965 19.0604 11.9355C19.1972 12.2637 19.4433 12.4414 19.7714 12.4414C20.1815 12.4414 20.4686 12.1816 20.4686 11.7441C20.4686 11.2246 20.0995 10.6504 19.6757 10.2266C18.9374 9.47461 17.8026 9.07812 16.5858 9.07812C13.7968 9.07812 12.1561 11.0605 12.1561 13.8633C12.1561 16.8848 13.9608 18.6621 16.5995 18.6621ZM16.5448 20.2754C16.8046 20.2754 17.0097 20.0703 17.0097 19.7969L17.0097 7.92969C17.0097 7.66992 16.8046 7.46484 16.5448 7.46484C16.285 7.46484 16.08 7.66992 16.08 7.92969L16.08 19.7969C16.08 20.0703 16.285 20.2754 16.5448 20.2754Z" fill="white" fill-opacity="0.85"/>
 </g>
</svg>
