<svg version="1.1" xmlns="http://www.w3.org/2000/svg" xmlns:xlink="http://www.w3.org/1999/xlink" viewBox="0 0 20.125 29.627">
 <g>
  
  <path d="M3.89648 14.752L6.23438 14.752L6.23438 8.94141L3.89648 8.94141ZM13.5352 14.752L15.873 14.752L15.873 8.94141L13.5352 8.94141ZM2.58398 29.5996L3.00781 29.5996C3.67773 29.5996 4.14258 29.1348 4.14258 28.4648L4.14258 19.6191L1.44922 19.6191L1.44922 28.4648C1.44922 29.1348 1.91406 29.5996 2.58398 29.5996ZM3.43164 23.5156L16.3379 23.5156L16.3379 21.4512L3.43164 21.4512ZM16.7617 29.5996L17.1855 29.5996C17.8555 29.5996 18.3203 29.1348 18.3203 28.4648L18.3203 19.6191L15.627 19.6191L15.627 28.4648C15.627 29.1348 16.0918 29.5996 16.7617 29.5996ZM3.47266 10.1445L16.2969 10.1445C17.9102 10.1445 18.6758 9.40625 18.6758 7.83398L18.6758 2.31055C18.6758 0.738281 17.9102 0 16.2969 0L3.47266 0C1.85938 0 1.09375 0.738281 1.09375 2.31055L1.09375 7.83398C1.09375 9.40625 1.85938 10.1445 3.47266 10.1445ZM2.25586 20.3301L17.5137 20.3301C19.0176 20.3301 19.7695 19.6191 19.7695 18.1562L19.7695 16.0781C19.7695 14.6152 19.0176 13.9043 17.5137 13.9043L2.25586 13.9043C0.751953 13.9043 0 14.6152 0 16.0781L0 18.1562C0 19.6191 0.751953 20.3301 2.25586 20.3301Z" style="fill:var(--color-0,hsl(0 0 0/0.85))"></path>
 </g>
</svg>