<?xml version="1.0" encoding="UTF-8"?>
<!--Generator: Apple Native CoreSVG 326-->
<!DOCTYPE svg
PUBLIC "-//W3C//DTD SVG 1.1//EN"
       "http://www.w3.org/Graphics/SVG/1.1/DTD/svg11.dtd">
<svg version="1.1" xmlns="http://www.w3.org/2000/svg" xmlns:xlink="http://www.w3.org/1999/xlink" viewBox="0 0 42.6289 34.9316">
 <g>
  <rect height="34.9316" opacity="0" width="42.6289" x="0" y="0"/>
  <path d="M21.1367 7.65625C24.4727 7.65625 27.8359 5.38672 27.8359 2.47461C27.8359 1.57227 27.3438 0.957031 26.1816 0.601562C24.7324 0.177734 22.9414 0 21.1367 0C19.3457 0 17.5547 0.177734 16.1055 0.601562C14.9434 0.957031 14.4512 1.57227 14.4512 2.47461C14.4512 5.38672 17.8008 7.65625 21.1367 7.65625ZM21.1367 5.86523C18.6074 5.86523 16.5977 4.48438 16.2559 2.57031C16.2422 2.48828 16.3105 2.40625 16.4336 2.35156C17.8828 1.96875 19.4961 1.77734 21.1367 1.77734C22.7773 1.77734 24.3906 1.96875 25.8535 2.35156C25.9766 2.40625 26.0449 2.48828 26.0312 2.57031C25.6895 4.48438 23.6797 5.86523 21.1367 5.86523ZM20.248 6.5625L20.248 15.6816L22.0391 15.6816L22.0391 6.5625ZM2.92578 21.8887C4.53906 21.8887 5.85156 20.5625 5.85156 18.9492C5.85156 17.3359 4.55273 16.0234 2.92578 16.0234C1.32617 16.0234 0 17.3359 0 18.9492C0 20.5625 1.32617 21.8887 2.92578 21.8887ZM2.92578 20.3711C2.16016 20.3711 1.51758 19.7285 1.51758 18.9492C1.51758 18.1836 2.16016 17.541 2.92578 17.541C3.71875 17.541 4.33398 18.1699 4.33398 18.9492C4.33398 19.7285 3.69141 20.3711 2.92578 20.3711ZM10.8828 21.8887C12.8652 21.8887 14.4922 20.2617 14.4922 18.293C14.4922 16.3105 12.8652 14.6836 10.8828 14.6836C8.91406 14.6836 7.30078 16.3105 7.30078 18.293C7.30078 20.2617 8.91406 21.8887 10.8828 21.8887ZM10.8828 20.0977C9.89844 20.0977 9.0918 19.2773 9.0918 18.293C9.0918 17.2949 9.89844 16.4746 10.8828 16.4746C11.8809 16.4746 12.7012 17.2949 12.7012 18.293C12.7012 19.2773 11.8809 20.0977 10.8828 20.0977ZM21.1504 25.1016C23.9805 25.1016 26.2637 22.8184 26.2637 19.9883C26.2637 17.1445 23.9805 14.8613 21.1504 14.8613C18.3066 14.8613 16.0234 17.1445 16.0234 19.9883C16.0234 22.8184 18.3066 25.1016 21.1504 25.1016ZM21.1367 23.3105C19.291 23.3105 17.8145 21.834 17.8145 19.9883C17.8145 18.1289 19.291 16.6523 21.1367 16.6523C22.9824 16.6523 24.4727 18.1289 24.4727 19.9883C24.4727 21.834 22.9824 23.3105 21.1367 23.3105ZM31.3906 21.8887C33.3594 21.8887 34.9727 20.2617 34.9727 18.293C34.9727 16.3105 33.3594 14.6836 31.3906 14.6836C29.4082 14.6836 27.7812 16.3105 27.7812 18.293C27.7812 20.2617 29.4082 21.8887 31.3906 21.8887ZM31.3906 20.0977C30.3926 20.0977 29.5723 19.2773 29.5723 18.293C29.5723 17.2949 30.3926 16.4746 31.3906 16.4746C32.375 16.4746 33.1816 17.2949 33.1816 18.293C33.1816 19.2773 32.375 20.0977 31.3906 20.0977ZM39.3477 21.8887C40.9473 21.8887 42.2734 20.5625 42.2734 18.9492C42.2734 17.3359 40.9473 16.0234 39.3477 16.0234C37.7207 16.0234 36.4219 17.3359 36.4219 18.9492C36.4219 20.5625 37.7344 21.8887 39.3477 21.8887ZM39.3477 20.3711C38.582 20.3711 37.9395 19.7285 37.9395 18.9492C37.9395 18.1699 38.5547 17.541 39.3477 17.541C40.1133 17.541 40.7559 18.1836 40.7559 18.9492C40.7559 19.7285 40.1133 20.3711 39.3477 20.3711ZM21.1504 34.9043C23.1055 34.9043 24.7188 33.3047 24.7188 31.3359C24.7188 29.3672 23.1055 27.7676 21.1504 27.7676C19.1816 27.7676 17.5684 29.3672 17.5684 31.3359C17.5684 33.3047 19.1816 34.9043 21.1504 34.9043ZM21.1504 33.1133C20.166 33.1133 19.3594 32.3203 19.3594 31.3359C19.3594 30.3516 20.166 29.5586 21.1504 29.5586C22.1211 29.5586 22.9277 30.3516 22.9277 31.3359C22.9277 32.3203 22.1211 33.1133 21.1504 33.1133ZM4.14258 21L2.35156 21C2.41992 25.5117 8.66797 27.959 12.0996 24.3633L11.1289 22.873C8.87305 25.6895 4.21094 24.1035 4.14258 21ZM11.7715 21L9.98047 21C9.89844 25.7578 15.7227 27.918 19.7285 24.2266L18.0195 23.3242C15.2715 25.4023 11.7031 24.0762 11.7715 21ZM30.502 21C30.5703 24.0762 27.002 25.4023 24.2539 23.3242L22.5449 24.2266C26.5508 27.918 32.375 25.7578 32.293 21ZM38.1309 21C38.0625 24.1035 33.4004 25.6895 31.1445 22.873L30.1738 24.3633C33.6055 27.959 39.8535 25.5117 39.9219 21ZM20.248 24.1855L20.248 28.8887L22.0391 28.8887L22.0391 24.1855Z" fill="white" fill-opacity="0.85"/>
 </g>
</svg>
