<svg version="1.1" xmlns="http://www.w3.org/2000/svg" xmlns:xlink="http://www.w3.org/1999/xlink" viewBox="0 0 29.75 25.4434">
 <g>
  
  <path d="M1.09375 25.4434L28.2871 25.4434C28.8887 25.4434 29.3945 24.9648 29.3945 24.3496C29.3945 23.748 28.8887 23.2559 28.2871 23.2559L2.58398 23.2559C2.29688 23.2559 2.20117 23.1602 2.20117 22.873L2.20117 1.25781C2.20117 0.669922 1.70898 0.164062 1.10742 0.164062C0.492188 0.164062 0 0.669922 0 1.25781L0 24.3633C0 25.0195 0.4375 25.4434 1.09375 25.4434Z" style="fill:var(--color-0,hsl(0 0 0/0.85))"></path>
  <path d="M25.3066 7.72461C26.4824 7.72461 27.4805 6.71289 27.4805 5.55078C27.4805 4.40234 26.4824 3.37695 25.3066 3.37695C24.1172 3.37695 23.1191 4.40234 23.1191 5.55078C23.1191 6.71289 24.1172 7.72461 25.3066 7.72461Z" style="fill:var(--color-1,hsl(0 0 0/0.85))"></path>
  <path d="M20.0703 16.4473C21.2461 16.4473 22.2441 15.4355 22.2441 14.2734C22.2441 13.125 21.2461 12.0996 20.0703 12.0996C18.8809 12.0996 17.8828 13.125 17.8828 14.2734C17.8828 15.4355 18.8809 16.4473 20.0703 16.4473Z" style="fill:var(--color-2,hsl(0 0 0/0.85))"></path>
  <path d="M13.7266 9.81641C14.9023 9.81641 15.9004 8.80469 15.9004 7.64258C15.9004 6.49414 14.9023 5.46875 13.7266 5.46875C12.5371 5.46875 11.5391 6.49414 11.5391 7.64258C11.5391 8.80469 12.5371 9.81641 13.7266 9.81641Z" style="fill:var(--color-3,hsl(0 0 0/0.85))"></path>
  <path d="M8.49023 18.5527C9.67969 18.5527 10.6641 17.541 10.6641 16.3789C10.6641 15.2305 9.67969 14.2051 8.49023 14.2051C7.30078 14.2051 6.30273 15.2305 6.30273 16.3789C6.30273 17.541 7.30078 18.5527 8.49023 18.5527Z" style="fill:var(--color-4,hsl(0 0 0/0.85))"></path>
 </g>
</svg>