<svg version="1.1" xmlns="http://www.w3.org/2000/svg" xmlns:xlink="http://www.w3.org/1999/xlink" viewBox="0 0 35.0957 25.7715">
 <g>
  
  <path d="M27.8086 25.7441L31.5 25.7441C33.6328 25.7441 34.7402 24.7188 34.7402 22.6953L34.7402 3.0625C34.7402 1.03906 33.6328 0 31.5 0L27.8086 0C25.6895 0 24.5957 1.03906 24.5957 3.0625L24.5957 22.6953C24.5957 24.7188 25.6895 25.7441 27.8086 25.7441ZM28.1777 23.6797C27.1387 23.6797 26.7695 23.3242 26.7695 22.2988L26.7695 3.45898C26.7695 2.43359 27.1387 2.06445 28.1777 2.06445L31.1445 2.06445C32.1973 2.06445 32.5664 2.43359 32.5664 3.45898L32.5664 22.2988C32.5664 23.3242 32.1973 23.6797 31.1445 23.6797Z" style="fill:var(--color-0,hsl(0 0 0/0.85))"></path>
  <path d="M15.5176 25.7441L19.209 25.7441C21.3418 25.7441 22.4355 24.7188 22.4355 22.6953L22.4355 7.05469C22.4355 5.03125 21.3418 3.99219 19.209 3.99219L15.5176 3.99219C13.3848 3.99219 12.291 5.03125 12.291 7.05469L12.291 22.6953C12.291 24.7188 13.3848 25.7441 15.5176 25.7441ZM15.8867 23.6797C14.834 23.6797 14.4648 23.3242 14.4648 22.2988L14.4648 7.45117C14.4648 6.42578 14.834 6.05664 15.8867 6.05664L18.8535 6.05664C19.9062 6.05664 20.2617 6.42578 20.2617 7.45117L20.2617 22.2988C20.2617 23.3242 19.9062 23.6797 18.8535 23.6797Z" style="fill:var(--color-1,hsl(0 0 0/0.85))"></path>
  <path d="M3.22656 25.7441L6.9043 25.7441C9.03711 25.7441 10.1445 24.7188 10.1445 22.6953L10.1445 11.0332C10.1445 9.00977 9.03711 7.9707 6.9043 7.9707L3.22656 7.9707C1.09375 7.9707 0 9.00977 0 11.0332L0 22.6953C0 24.7188 1.09375 25.7441 3.22656 25.7441ZM3.58203 23.6797C2.54297 23.6797 2.17383 23.3242 2.17383 22.2988L2.17383 11.4297C2.17383 10.3906 2.54297 10.0352 3.58203 10.0352L6.54883 10.0352C7.60156 10.0352 7.9707 10.3906 7.9707 11.4297L7.9707 22.2988C7.9707 23.3242 7.60156 23.6797 6.54883 23.6797Z" style="fill:var(--color-2,hsl(0 0 0/0.85))"></path>
 </g>
</svg>