<svg version="1.1" xmlns="http://www.w3.org/2000/svg" xmlns:xlink="http://www.w3.org/1999/xlink" viewBox="0 0 28.2461 27.9043">
 <g>
  
  <path d="M13.9453 27.8906C21.6426 27.8906 27.8906 21.6426 27.8906 13.9453C27.8906 6.24805 21.6426 0 13.9453 0C6.24805 0 0 6.24805 0 13.9453C0 21.6426 6.24805 27.8906 13.9453 27.8906ZM13.9453 25.5664C7.51953 25.5664 2.32422 20.3711 2.32422 13.9453C2.32422 7.51953 7.51953 2.32422 13.9453 2.32422C20.3711 2.32422 25.5664 7.51953 25.5664 13.9453C25.5664 20.3711 20.3711 25.5664 13.9453 25.5664Z" style="fill:var(--color-0,hsl(0 0 0/0.85))"></path>
  <path d="M6.5625 19.0996C6.5625 19.7422 6.98633 20.166 7.64258 20.166L20.6719 20.166C21.082 20.166 21.4238 19.8242 21.4238 19.4141C21.4238 19.0039 21.082 18.6621 20.6719 18.6621L8.10742 18.6621C8.08008 18.6621 8.08008 18.6758 8.08008 18.6348L8.08008 8.08008C8.08008 7.66992 7.73828 7.32812 7.32812 7.32812C6.91797 7.32812 6.5625 7.66992 6.5625 8.08008ZM16.9258 10.8145L16.9258 15.1348C16.9258 15.6133 17.4453 15.8457 17.8828 15.5859L21.3418 13.4941C21.7383 13.2617 21.7383 12.7012 21.3555 12.4824L17.8691 10.4043C17.418 10.1445 16.9258 10.3496 16.9258 10.8145ZM7.46484 13.7539L17.2129 13.7539L17.2129 12.2363L7.46484 12.2363Z" style="fill:var(--color-1,hsl(0 0 0/0.85))"></path>
 </g>
</svg>