<svg version="1.1" xmlns="http://www.w3.org/2000/svg" xmlns:xlink="http://www.w3.org/1999/xlink" viewBox="0 0 27.248 26.5918">
 <g>
  
  <path d="M1.09375 26.5781C1.70898 26.5781 2.1875 26.0723 2.1875 25.4707L2.1875 1.09375C2.1875 0.505859 1.70898 0 1.09375 0C0.492188 0 0 0.505859 0 1.09375L0 25.4707C0 26.0723 0.492188 26.5781 1.09375 26.5781Z" style="fill:var(--color-0,hsl(0 0 0/0.85))"></path>
  <path d="M5.67383 26.3184L16.3516 26.3184C17.1035 26.3184 17.5684 25.8262 17.5684 25.0469L17.5684 22.3535C17.5684 21.5605 17.1035 21.0684 16.3516 21.0684L5.67383 21.0684C4.89453 21.0684 4.44336 21.5605 4.44336 22.3535L4.44336 25.0469C4.44336 25.8262 4.89453 26.3184 5.67383 26.3184Z" style="fill:var(--color-1,hsl(0 0 0/0.85))"></path>
  <path d="M5.67383 19.373L22.5586 19.373C23.3242 19.373 23.7754 18.8945 23.7754 18.1016L23.7754 15.4082C23.7754 14.6152 23.3242 14.1367 22.5586 14.1367L5.67383 14.1367C4.89453 14.1367 4.44336 14.6152 4.44336 15.4082L4.44336 18.1016C4.44336 18.8945 4.89453 19.373 5.67383 19.373Z" style="fill:var(--color-2,hsl(0 0 0/0.85))"></path>
  <path d="M5.67383 12.4414L25.6895 12.4414C26.4414 12.4414 26.8926 11.9492 26.8926 11.1562L26.8926 8.46289C26.8926 7.68359 26.4414 7.19141 25.6895 7.19141L5.67383 7.19141C4.89453 7.19141 4.44336 7.68359 4.44336 8.46289L4.44336 11.1562C4.44336 11.9492 4.89453 12.4414 5.67383 12.4414Z" style="fill:var(--color-3,hsl(0 0 0/0.85))"></path>
  <path d="M5.67383 5.49609L19.4141 5.49609C20.1523 5.49609 20.6172 5.00391 20.6172 4.22461L20.6172 1.51758C20.6172 0.738281 20.1523 0.259766 19.4141 0.259766L5.67383 0.259766C4.89453 0.259766 4.44336 0.738281 4.44336 1.51758L4.44336 4.22461C4.44336 5.00391 4.89453 5.49609 5.67383 5.49609Z" style="fill:var(--color-4,hsl(0 0 0/0.85))"></path>
 </g>
</svg>