<svg version="1.1" xmlns="http://www.w3.org/2000/svg" xmlns:xlink="http://www.w3.org/1999/xlink" viewBox="0 0 23.3516 29.3262">
 <g>
  
  <path d="M0 25.0332C0 27.8906 1.4082 29.3125 4.23828 29.3125L18.7578 29.3125C21.5879 29.3125 22.9961 27.8906 22.9961 25.0332L22.9961 4.29297C22.9961 1.44922 21.5879 0 18.7578 0L4.23828 0C1.4082 0 0 1.44922 0 4.29297Z" style="fill:var(--color-0,hsl(0 0 0/0.85))"></path>
  <path d="M5.04492 20.6445L11.2246 20.6445C11.7578 20.6445 12.0996 21 12.0996 21.5742L12.0996 23.8574C12.0996 24.418 11.7578 24.7871 11.2246 24.7871L5.04492 24.7871C4.48438 24.7871 4.15625 24.418 4.15625 23.8574L4.15625 21.5742C4.15625 21 4.48438 20.6445 5.04492 20.6445Z" style="fill:var(--color-1,white)"></path>
  <path d="M5.04492 15.2852L15.7227 15.2852C16.2695 15.2852 16.5977 15.627 16.5977 16.1875L16.5977 18.4844C16.5977 19.0586 16.2695 19.4004 15.7227 19.4004L5.04492 19.4004C4.48438 19.4004 4.15625 19.0586 4.15625 18.4844L4.15625 16.1875C4.15625 15.627 4.48438 15.2852 5.04492 15.2852Z" style="fill:var(--color-2,white)"></path>
  <path d="M5.04492 9.89844L17.9785 9.89844C18.5254 9.89844 18.8535 10.2539 18.8535 10.8281L18.8535 13.1113C18.8535 13.6855 18.5254 14.041 17.9785 14.041L5.04492 14.041C4.48438 14.041 4.15625 13.6855 4.15625 13.1113L4.15625 10.8281C4.15625 10.2539 4.48438 9.89844 5.04492 9.89844Z" style="fill:var(--color-3,white)"></path>
  <path d="M5.04492 4.53906L13.4258 4.53906C13.9727 4.53906 14.3008 4.89453 14.3008 5.46875L14.3008 7.75195C14.3008 8.3125 13.9727 8.68164 13.4258 8.68164L5.04492 8.68164C4.48438 8.68164 4.15625 8.3125 4.15625 7.75195L4.15625 5.46875C4.15625 4.89453 4.48438 4.53906 5.04492 4.53906Z" style="fill:var(--color-4,white)"></path>
 </g>
</svg>