<?xml version="1.0" encoding="UTF-8"?>
<!--Generator: Apple Native CoreSVG 326-->
<!DOCTYPE svg
PUBLIC "-//W3C//DTD SVG 1.1//EN"
       "http://www.w3.org/Graphics/SVG/1.1/DTD/svg11.dtd">
<svg version="1.1" xmlns="http://www.w3.org/2000/svg" xmlns:xlink="http://www.w3.org/1999/xlink" viewBox="0 0 29.75 25.4434">
 <g>
  <rect height="25.4434" opacity="0" width="29.75" x="0" y="0"/>
  <path d="M29.2441 8.98242C29.2441 10.3223 28.1504 11.416 26.8105 11.416C26.2768 11.416 25.7822 11.2425 25.3817 10.9469L18.8879 14.8132C18.9112 14.9394 18.9219 15.07 18.9219 15.2031C18.9219 16.543 17.8418 17.6367 16.502 17.6367C15.1621 17.6367 14.0684 16.543 14.0684 15.2031C14.0684 14.8604 14.1399 14.5347 14.2697 14.2402L11.6603 12.0028C11.232 12.3866 10.6666 12.6191 10.0488 12.6191C9.36816 12.6191 8.751 12.3369 8.30941 11.8826L2.20117 15.4164L2.20117 13.5443L7.62674 10.4119C7.61879 10.3376 7.61523 10.2619 7.61523 10.1855C7.61523 8.8457 8.70898 7.76562 10.0488 7.76562C11.3887 7.76562 12.4824 8.8457 12.4824 10.1855C12.4824 10.3317 12.4694 10.4749 12.4422 10.6133L15.3267 13.0849C15.6752 12.8923 16.0761 12.7832 16.502 12.7832C17.1133 12.7832 17.6705 13.0081 18.0942 13.3816L24.4573 9.59078C24.4039 9.39699 24.377 9.19274 24.377 8.98242C24.377 7.64258 25.4707 6.54883 26.8105 6.54883C28.1504 6.54883 29.2441 7.64258 29.2441 8.98242Z" fill="white" fill-opacity="0.85"/>
  <path d="M0 24.3633C0 25.0195 0.4375 25.4434 1.09375 25.4434L28.2871 25.4434C28.8887 25.4434 29.3945 24.9648 29.3945 24.3496C29.3945 23.748 28.8887 23.2559 28.2871 23.2559L2.58398 23.2559C2.29688 23.2559 2.20117 23.1602 2.20117 22.873L2.20117 1.25781C2.20117 0.669922 1.70898 0.164062 1.10742 0.164062C0.492188 0.164062 0 0.669922 0 1.25781Z" fill="white" fill-opacity="0.85"/>
 </g>
</svg>
