<?xml version="1.0" encoding="UTF-8"?>
<!--Generator: Apple Native CoreSVG 326-->
<!DOCTYPE svg
PUBLIC "-//W3C//DTD SVG 1.1//EN"
       "http://www.w3.org/Graphics/SVG/1.1/DTD/svg11.dtd">
<svg version="1.1" xmlns="http://www.w3.org/2000/svg" xmlns:xlink="http://www.w3.org/1999/xlink" viewBox="0 0 23.3516 34.7129">
 <g>
  <rect height="34.7129" opacity="0" width="23.3516" x="0" y="0"/>
  <path d="M4.23828 33.127L18.7578 33.127C21.5879 33.127 22.9961 31.7051 22.9961 28.834L22.9961 8.10742C22.9961 5.30469 21.6426 3.81445 18.9082 3.81445L18.5801 3.81445C18.5938 3.92383 18.5938 4.04688 18.5938 4.15625L18.5938 5.38672C18.5938 5.60547 18.5801 5.82422 18.5391 6.01562L18.8672 6.01562C20.1523 6.01562 20.7949 6.84961 20.7949 8.13477L20.7949 28.8066C20.7949 30.1738 20.0703 30.9258 18.6484 30.9258L4.34766 30.9258C2.92578 30.9258 2.20117 30.1738 2.20117 28.8066L2.20117 8.13477C2.20117 6.84961 2.84375 6.01562 4.12891 6.01562L4.45703 6.01562C4.41602 5.82422 4.40234 5.60547 4.40234 5.38672L4.40234 4.15625C4.40234 4.04688 4.40234 3.92383 4.41602 3.81445L4.08789 3.81445C1.35352 3.81445 0 5.30469 0 8.10742L0 28.834C0 31.7051 1.4082 33.127 4.23828 33.127ZM7.27344 6.94531L15.7227 6.94531C16.5156 6.94531 16.9941 6.43945 16.9941 5.5918L16.9941 4.15625C16.9941 3.30859 16.5156 2.80273 15.7227 2.80273L14.4648 2.80273C14.3691 1.25781 13.084 0 11.498 0C9.91211 0 8.62695 1.25781 8.53125 2.80273L7.27344 2.80273C6.48047 2.80273 6.00195 3.30859 6.00195 4.15625L6.00195 5.5918C6.00195 6.43945 6.48047 6.94531 7.27344 6.94531ZM11.498 4.10156C10.8418 4.10156 10.3086 3.55469 10.3086 2.91211C10.3086 2.24219 10.8418 1.70898 11.498 1.70898C12.1543 1.70898 12.6875 2.24219 12.6875 2.91211C12.6875 3.55469 12.1543 4.10156 11.498 4.10156Z" fill="white" fill-opacity="0.85"/>
  <path d="M5.46875 21.5332L17.5273 21.5332C18.0059 21.5332 18.3887 21.1504 18.3887 20.6719C18.3887 20.207 18.0059 19.8379 17.5273 19.8379L5.46875 19.8379C4.99023 19.8379 4.60742 20.207 4.60742 20.6719C4.60742 21.1504 4.99023 21.5332 5.46875 21.5332ZM5.46875 26.6465L12.3594 26.6465C12.8242 26.6465 13.207 26.2637 13.207 25.7988C13.207 25.334 12.8379 24.9512 12.3594 24.9512L5.46875 24.9512C4.99023 24.9512 4.60742 25.334 4.60742 25.7988C4.60742 26.2637 5.00391 26.6465 5.46875 26.6465ZM5.79688 14.3281C6.53516 14.3281 7.12305 13.7402 7.12305 13.002C7.12305 12.2637 6.53516 11.6758 5.79688 11.6758C5.05859 11.6758 4.4707 12.2637 4.4707 13.002C4.4707 13.7402 5.05859 14.3281 5.79688 14.3281ZM5.19531 13.3984L11.2109 16.4473L11.8672 15.3262L5.83789 12.291ZM11.416 17.0488C12.168 17.0488 12.7559 16.4609 12.7559 15.7227C12.7559 14.9844 12.168 14.3965 11.416 14.3965C10.6914 14.3965 10.1035 14.9844 10.1035 15.7227C10.1035 16.4609 10.6914 17.0488 11.416 17.0488ZM11.1426 15.2441L11.8809 16.2832L17.6367 12.0312L16.8848 10.9922ZM17.1855 12.9609C17.9375 12.9609 18.5254 12.373 18.5254 11.6348C18.5254 10.8965 17.9375 10.3086 17.1855 10.3086C16.4609 10.3086 15.873 10.8965 15.873 11.6348C15.873 12.373 16.4609 12.9609 17.1855 12.9609Z" fill="white" fill-opacity="0.85"/>
 </g>
</svg>
