<svg version="1.1" xmlns="http://www.w3.org/2000/svg" xmlns:xlink="http://www.w3.org/1999/xlink" viewBox="0 0 43.0664 20.5488">
 <g>
  
  <path d="M36.7637 20.3711C39.4707 20.3711 41.7949 18.8809 42.5879 16.7754C42.6699 16.543 42.7109 16.3105 42.7109 16.1191C42.7109 15.5312 42.2871 15.1211 41.7129 15.1211C41.1934 15.1211 40.9336 15.3262 40.6191 15.9277C39.8945 17.5 38.6504 18.3613 36.7773 18.3613C34.0703 18.3613 32.3066 16.2285 32.3066 12.7695C32.3066 9.33789 34.084 7.15039 36.7773 7.15039C38.5547 7.15039 39.8535 7.98438 40.5918 9.61133C40.8926 10.1855 41.166 10.3906 41.6719 10.3906C42.2598 10.3906 42.6699 10.0078 42.6699 9.40625C42.6699 9.24219 42.6289 9.03711 42.5742 8.85938C41.877 6.74023 39.5254 5.14062 36.7227 5.14062C32.6211 5.14062 29.9414 8.16211 29.9414 12.7832C29.9414 17.4316 32.6348 20.3711 36.7637 20.3711Z" style="fill:var(--color-0,hsl(0 0 0/0.85))"></path>
  <path d="M15.9551 20.3574C16.6113 20.3574 17.0898 19.9062 17.0898 19.1953L17.0898 17.1992L17.1445 17.1992C18.0332 19.1543 19.8516 20.3711 22.1348 20.3711C25.8945 20.3711 28.3691 17.3633 28.3691 12.7559C28.3691 8.14844 25.8809 5.14062 22.1621 5.14062C19.9062 5.14062 18.0742 6.37109 17.2266 8.29883L17.1582 8.29883L17.1582 1.23047C17.1582 0.492188 16.6934 0 16.0098 0C15.3125 0 14.8477 0.492188 14.8477 1.23047L14.8477 19.1953C14.8477 19.9199 15.2988 20.3574 15.9551 20.3574ZM21.6152 18.3613C19.0039 18.3613 17.1719 16.1465 17.1719 12.7695C17.1719 9.39258 19.0176 7.16406 21.6152 7.16406C24.2949 7.16406 25.9766 9.32422 25.9766 12.7559C25.9766 16.2012 24.2949 18.3613 21.6152 18.3613Z" style="fill:var(--color-1,hsl(0 0 0/0.85))"></path>
  <path d="M4.9082 20.3574C7.01367 20.3574 8.99609 19.209 9.84375 17.4316L9.88477 17.4316L9.88477 19.2363C9.88477 19.9199 10.3496 20.3711 10.9922 20.3711C11.6621 20.3711 12.1133 19.9199 12.1133 19.1816L12.1133 10.0488C12.1133 7.06836 9.92578 5.14062 6.45312 5.14062C3.86914 5.14062 1.75 6.27539 0.957031 8.03906C0.792969 8.36719 0.697266 8.70898 0.697266 8.99609C0.697266 9.59766 1.14844 9.99414 1.73633 9.99414C2.16016 9.99414 2.48828 9.83008 2.69336 9.44727C3.44531 7.86133 4.62109 7.12305 6.39844 7.12305C8.53125 7.12305 9.80273 8.3125 9.80273 10.2266L9.80273 11.416L5.38672 11.6621C1.92773 11.8535 0 13.4531 0 15.9961C0 18.6074 2.00977 20.3574 4.9082 20.3574ZM5.46875 18.457C3.62305 18.457 2.36523 17.4453 2.36523 15.9414C2.36523 14.4922 3.52734 13.5215 5.67383 13.3848L9.80273 13.125L9.80273 14.5742C9.80273 16.748 7.875 18.457 5.46875 18.457Z" style="fill:var(--color-2,hsl(0 0 0/0.85))"></path>
 </g>
</svg>