<?xml version="1.0" encoding="UTF-8"?>
<!--Generator: Apple Native CoreSVG 326-->
<!DOCTYPE svg
PUBLIC "-//W3C//DTD SVG 1.1//EN"
       "http://www.w3.org/Graphics/SVG/1.1/DTD/svg11.dtd">
<svg version="1.1" xmlns="http://www.w3.org/2000/svg" xmlns:xlink="http://www.w3.org/1999/xlink" viewBox="0 0 23.3516 29.2988">
 <g>
  <rect height="29.2988" opacity="0" width="23.3516" x="0" y="0"/>
  <path d="M4.19727 29.2988L21.9023 29.2988C22.5039 29.2988 22.9961 28.8203 22.9961 28.2051C22.9961 27.7266 22.668 27.3027 22.2305 27.1523C20.5078 26.4688 20.1523 24.2402 21.8477 22.5312C22.3672 22.0117 22.9961 21.3418 22.9961 19.9746L22.9961 4.29297C22.9961 1.44922 21.5879 0 18.7578 0L4.23828 0C1.4082 0 0 1.43555 0 4.29297L0 25.0742C0 27.8906 1.42188 29.2988 4.19727 29.2988ZM4.32031 27.0977C2.93945 27.0977 2.20117 26.3594 2.20117 25.0605C2.20117 23.8301 3.07617 23.0371 4.44336 23.0371L18.4707 23.0371C18.6484 23.0371 18.8125 23.0234 18.9492 22.9961C18.3066 24.418 18.416 25.9219 19.1406 27.0977ZM3.91016 20.959C3.48633 20.959 3.13086 20.6035 3.13086 20.166L3.13086 2.89844C3.13086 2.46094 3.48633 2.11914 3.91016 2.11914C4.33398 2.11914 4.70312 2.46094 4.70312 2.89844L4.70312 20.166C4.70312 20.6035 4.33398 20.959 3.91016 20.959ZM9.24219 16.8574C8.69531 16.8574 8.33984 16.5156 8.33984 16.0098C8.33984 15.832 8.36719 15.6543 8.46289 15.3809L11.8809 6.17969C12.127 5.55078 12.5781 5.22266 13.2344 5.22266C13.9043 5.22266 14.3691 5.55078 14.6152 6.17969L18.0332 15.3809C18.1426 15.6543 18.1699 15.832 18.1699 16.0234C18.1699 16.5156 17.8008 16.8574 17.2539 16.8574C16.8164 16.8574 16.502 16.6523 16.3105 16.0781L15.4219 13.4941L11.0742 13.4941L10.1855 16.0781C9.99414 16.6523 9.67969 16.8574 9.24219 16.8574ZM11.5664 12.0176L14.9297 12.0176L13.3164 7.31445L13.1797 7.31445Z" fill="white" fill-opacity="0.85"/>
 </g>
</svg>
