<svg version="1.1" xmlns="http://www.w3.org/2000/svg" xmlns:xlink="http://www.w3.org/1999/xlink" viewBox="0 0 29.75 25.4434">
 <g>
  
  <path d="M21.0547 6.93164L28.123 11.1699C28.6836 11.5117 28.7109 12.2363 28.1367 12.5781L21.0684 16.8164C20.4395 17.1855 19.7832 16.9531 19.7832 16.2559L19.7832 13.043L2.20117 13.043L2.20117 10.7051L19.7832 10.7051L19.7832 7.49219C19.7832 6.80859 20.4258 6.57617 21.0547 6.93164Z" style="fill:var(--color-0,hsl(0 0 0/0.85))"></path>
  <path d="M0 24.3633C0 25.0195 0.4375 25.4434 1.09375 25.4434L28.2871 25.4434C28.8887 25.4434 29.3945 24.9648 29.3945 24.3496C29.3945 23.748 28.8887 23.2559 28.2871 23.2559L2.58398 23.2559C2.29688 23.2559 2.20117 23.1602 2.20117 22.873L2.20117 1.25781C2.20117 0.669922 1.70898 0.164062 1.10742 0.164062C0.492188 0.164062 0 0.669922 0 1.25781Z" style="fill:var(--color-1,hsl(0 0 0/0.85))"></path>
 </g>
</svg>