<?xml version="1.0" encoding="UTF-8"?>
<!--Generator: Apple Native CoreSVG 326-->
<!DOCTYPE svg
PUBLIC "-//W3C//DTD SVG 1.1//EN"
       "http://www.w3.org/Graphics/SVG/1.1/DTD/svg11.dtd">
<svg version="1.1" xmlns="http://www.w3.org/2000/svg" xmlns:xlink="http://www.w3.org/1999/xlink" viewBox="0 0 29.75 25.4434">
 <g>
  <rect height="25.4434" opacity="0" width="29.75" x="0" y="0"/>
  <path d="M28.5742 4.25195L26.5508 12.2637C26.373 12.9609 25.7305 13.2617 25.2383 12.7695L22.9961 10.5137L17.418 16.1191C16.8027 16.7344 16.2148 17.0215 15.5586 17.0215C14.916 17.0215 14.3008 16.7344 13.7129 16.1191L8.68164 10.9648C8.55859 10.8418 8.43555 10.7734 8.3125 10.7734C8.18945 10.7734 8.06641 10.8418 7.94336 10.9648L2.20117 16.8131L2.20117 13.4694L6.4668 9.14648C7.0957 8.51758 7.66992 8.24414 8.3125 8.24414C8.95508 8.24414 9.55664 8.53125 10.1582 9.14648L15.1895 14.3008C15.3125 14.4238 15.4492 14.4922 15.5586 14.4922C15.6816 14.4922 15.8184 14.4238 15.9414 14.3008L21.3281 8.8457L19.0723 6.58984C18.5801 6.09766 18.8809 5.46875 19.5781 5.27734L27.5762 3.26758C28.1914 3.10352 28.7383 3.62305 28.5742 4.25195Z" fill="white" fill-opacity="0.85"/>
  <path d="M0 24.3633C0 25.0195 0.4375 25.4434 1.09375 25.4434L28.2871 25.4434C28.8887 25.4434 29.3945 24.9648 29.3945 24.3496C29.3945 23.748 28.8887 23.2559 28.2871 23.2559L2.58398 23.2559C2.29688 23.2559 2.20117 23.1602 2.20117 22.873L2.20117 1.25781C2.20117 0.669922 1.70898 0.164062 1.10742 0.164062C0.492188 0.164062 0 0.669922 0 1.25781Z" fill="white" fill-opacity="0.85"/>
 </g>
</svg>
