<?xml version="1.0" encoding="UTF-8"?>
<!--Generator: Apple Native CoreSVG 326-->
<!DOCTYPE svg
PUBLIC "-//W3C//DTD SVG 1.1//EN"
       "http://www.w3.org/Graphics/SVG/1.1/DTD/svg11.dtd">
<svg version="1.1" xmlns="http://www.w3.org/2000/svg" xmlns:xlink="http://www.w3.org/1999/xlink" viewBox="0 0 25.5254 25.1699">
 <g>
  <rect height="25.1699" opacity="0" width="25.5254" x="0" y="0"/>
  <path d="M4.29297 25.1699L20.877 25.1699C23.748 25.1699 25.1699 23.7617 25.1699 20.9453L25.1699 4.23828C25.1699 1.42188 23.748 0 20.877 0L4.29297 0C1.43555 0 0 1.42188 0 4.23828L0 20.9453C0 23.7617 1.43555 25.1699 4.29297 25.1699ZM4.32031 22.9688C2.95312 22.9688 2.20117 22.2441 2.20117 20.8223L2.20117 4.36133C2.20117 2.93945 2.95312 2.20117 4.32031 2.20117L20.8496 2.20117C22.2031 2.20117 22.9688 2.93945 22.9688 4.36133L22.9688 20.8223C22.9688 22.2441 22.2031 22.9688 20.8496 22.9688Z" fill="white" fill-opacity="0.85"/>
  <path d="M8.09375 19.0176C8.58594 19.0176 8.94141 18.7852 9.14648 18.1426L10.1445 15.2305L15.0391 15.2305L16.0371 18.1426C16.2422 18.7715 16.5977 19.0176 17.0898 19.0176C17.6914 19.0176 18.1016 18.6211 18.1016 18.0742C18.1016 17.8555 18.0469 17.6641 17.9512 17.3633L14.123 7.04102C13.8496 6.33008 13.3301 5.96094 12.5781 5.96094C11.8398 5.96094 11.334 6.33008 11.0605 7.04102L7.23242 17.3633C7.13672 17.6641 7.08203 17.8555 7.08203 18.0605C7.08203 18.6348 7.49219 19.0176 8.09375 19.0176ZM10.6914 13.5898L12.5234 8.29883L12.6602 8.29883L14.4922 13.5898Z" fill="white" fill-opacity="0.85"/>
 </g>
</svg>
