<?xml version="1.0" encoding="UTF-8"?>
<!--Generator: Apple Native CoreSVG 326-->
<!DOCTYPE svg
PUBLIC "-//W3C//DTD SVG 1.1//EN"
       "http://www.w3.org/Graphics/SVG/1.1/DTD/svg11.dtd">
<svg version="1.1" xmlns="http://www.w3.org/2000/svg" xmlns:xlink="http://www.w3.org/1999/xlink" viewBox="0 0 23.3516 29.3262">
 <g>
  <rect height="29.3262" opacity="0" width="23.3516" x="0" y="0"/>
  <path d="M0 25.0332C0 27.8906 1.4082 29.3125 4.23828 29.3125L18.7578 29.3125C21.5879 29.3125 22.9961 27.8906 22.9961 25.0332L22.9961 4.29297C22.9961 1.44922 21.5879 0 18.7578 0L4.23828 0C1.4082 0 0 1.44922 0 4.29297ZM2.20117 24.9922L2.20117 4.33398C2.20117 2.9668 2.92578 2.20117 4.34766 2.20117L18.6484 2.20117C20.0703 2.20117 20.7949 2.9668 20.7949 4.33398L20.7949 24.9922C20.7949 26.3594 20.0703 27.1113 18.6484 27.1113L4.34766 27.1113C2.92578 27.1113 2.20117 26.3594 2.20117 24.9922Z" fill="white" fill-opacity="0.85"/>
  <path d="M5.04492 20.6309C4.48438 20.6309 4.15625 20.9863 4.15625 21.5605L4.15625 23.8438C4.15625 24.418 4.48438 24.7734 5.04492 24.7734L11.2246 24.7734C11.7578 24.7734 12.0996 24.418 12.0996 23.8438L12.0996 21.5605C12.0996 20.9863 11.7578 20.6309 11.2246 20.6309Z" fill="white" fill-opacity="0.85"/>
  <path d="M5.04492 15.2715C4.48438 15.2715 4.15625 15.6133 4.15625 16.1738L4.15625 18.4844C4.15625 19.0586 4.48438 19.4004 5.04492 19.4004L15.7227 19.4004C16.2695 19.4004 16.5977 19.0586 16.5977 18.4844L16.5977 16.1738C16.5977 15.6133 16.2695 15.2715 15.7227 15.2715Z" fill="white" fill-opacity="0.85"/>
  <path d="M5.04492 9.89844C4.48438 9.89844 4.15625 10.2539 4.15625 10.8145L4.15625 13.1113C4.15625 13.6719 4.48438 14.0273 5.04492 14.0273L17.9785 14.0273C18.5254 14.0273 18.8535 13.6719 18.8535 13.0977L18.8535 10.8145C18.8535 10.2539 18.5254 9.89844 17.9785 9.89844Z" fill="white" fill-opacity="0.85"/>
  <path d="M5.04492 4.52539C4.48438 4.52539 4.15625 4.88086 4.15625 5.45508L4.15625 7.73828C4.15625 8.3125 4.48438 8.66797 5.04492 8.66797L13.4258 8.66797C13.9727 8.66797 14.3008 8.3125 14.3008 7.73828L14.3008 5.45508C14.3008 4.88086 13.9727 4.52539 13.4258 4.52539Z" fill="white" fill-opacity="0.85"/>
 </g>
</svg>
