<svg version="1.1" xmlns="http://www.w3.org/2000/svg" xmlns:xlink="http://www.w3.org/1999/xlink" viewBox="0 0 28.2461 27.9043">
 <g>
  
  <path d="M13.9453 27.8906C21.6426 27.8906 27.8906 21.6426 27.8906 13.9453C27.8906 6.24805 21.6426 0 13.9453 0C6.24805 0 0 6.24805 0 13.9453C0 21.6426 6.24805 27.8906 13.9453 27.8906ZM13.9453 25.5664C7.51953 25.5664 2.32422 20.3711 2.32422 13.9453C2.32422 7.51953 7.51953 2.32422 13.9453 2.32422C20.3711 2.32422 25.5664 7.51953 25.5664 13.9453C25.5664 20.3711 20.3711 25.5664 13.9453 25.5664Z" style="fill:var(--color-0,hsl(0 0 0/0.85))"></path>
  <path d="M9.43359 20.3848C9.92578 20.3848 10.2812 20.1523 10.4863 19.5098L11.4844 16.5977L16.3789 16.5977L17.377 19.5098C17.582 20.1387 17.9238 20.3848 18.4297 20.3848C19.0312 20.3848 19.4414 19.9883 19.4414 19.4414C19.4414 19.2227 19.3867 19.0312 19.291 18.7305L15.4492 8.4082C15.1895 7.69727 14.6699 7.32812 13.918 7.32812C13.1797 7.32812 12.6738 7.69727 12.4004 8.4082L8.57227 18.7305C8.46289 19.0312 8.42188 19.2227 8.42188 19.4277C8.42188 20.002 8.81836 20.3848 9.43359 20.3848ZM12.0312 14.957L13.8496 9.66602L14 9.66602L15.8184 14.957Z" style="fill:var(--color-1,hsl(0 0 0/0.85))"></path>
 </g>
</svg>