<?xml version="1.0" encoding="UTF-8"?>
<!--Generator: Apple Native CoreSVG 326-->
<!DOCTYPE svg
PUBLIC "-//W3C//DTD SVG 1.1//EN"
       "http://www.w3.org/Graphics/SVG/1.1/DTD/svg11.dtd">
<svg version="1.1" xmlns="http://www.w3.org/2000/svg" xmlns:xlink="http://www.w3.org/1999/xlink" viewBox="0 0 30.4883 30.2012">
 <g>
  <rect height="30.2012" opacity="0" width="30.4883" x="0" y="0"/>
  <path d="M30.1328 8.09375L30.1328 18.5664C30.1328 22.5723 27.9453 24.8145 23.8711 24.8145L14.6289 24.8145L9.69336 29.3262C9.05078 29.9277 8.6543 30.2012 8.12109 30.2012C7.3418 30.2012 6.9043 29.6406 6.9043 28.793L6.9043 24.8145L6.26172 24.8145C2.1875 24.8145 0 22.5859 0 18.5664L0 8.09375C0 4.07422 2.1875 1.83203 6.26172 1.83203L23.8711 1.83203C27.9453 1.83203 30.1328 4.08789 30.1328 8.09375ZM13.4941 7.57422L9.54297 18.2109C9.41992 18.5254 9.39258 18.7305 9.39258 18.9492C9.39258 19.5234 9.80273 19.9199 10.4453 19.9199C10.9512 19.9199 11.3066 19.6875 11.5391 19.0176L12.5645 16.0234L17.582 16.0234L18.6074 19.0176C18.8398 19.6875 19.1953 19.9199 19.7148 19.9199C20.3438 19.9199 20.7539 19.5234 20.7539 18.9492C20.7539 18.7305 20.7266 18.5254 20.6035 18.2109L16.6523 7.57422C16.3789 6.83594 15.832 6.4668 15.0664 6.4668C14.3008 6.4668 13.7676 6.83594 13.4941 7.57422ZM17.0215 14.3145L13.125 14.3145L14.998 8.87305L15.1484 8.87305Z" fill="white" fill-opacity="0.85"/>
 </g>
</svg>
