<?xml version="1.0" encoding="UTF-8"?>
<!--Generator: Apple Native CoreSVG 326-->
<!DOCTYPE svg
PUBLIC "-//W3C//DTD SVG 1.1//EN"
       "http://www.w3.org/Graphics/SVG/1.1/DTD/svg11.dtd">
<svg version="1.1" xmlns="http://www.w3.org/2000/svg" xmlns:xlink="http://www.w3.org/1999/xlink" viewBox="0 0 19.9609 28.1777">
 <g>
  <rect height="28.1777" opacity="0" width="19.9609" x="0" y="0"/>
  <path d="M9.06445 28.1367C14.1367 28.1367 18.1426 24.1309 18.1426 19.0586C18.1426 13.9727 14.1367 9.98047 9.05078 9.98047C3.97852 9.98047 0 13.9727 0 19.0586C0 24.1309 3.99219 28.1367 9.06445 28.1367ZM9.06445 25.8262C5.26367 25.8262 2.31055 22.873 2.31055 19.0586C2.31055 15.2578 5.26367 12.291 9.05078 12.291C12.8652 12.291 15.832 15.2578 15.832 19.0586C15.832 22.873 12.8789 25.8262 9.06445 25.8262ZM15.832 19.0586L18.1426 19.0586L18.1426 3.74609L15.832 3.74609ZM16.9805 5.25C18.4434 5.25 19.6055 4.07422 19.6055 2.625C19.6055 1.17578 18.4434 0 16.9805 0C15.5312 0 14.3555 1.17578 14.3555 2.625C14.3555 4.07422 15.5312 5.25 16.9805 5.25Z" fill="white" fill-opacity="0.85"/>
 </g>
</svg>
