<?xml version="1.0" encoding="UTF-8"?>
<!--Generator: Apple Native CoreSVG 326-->
<!DOCTYPE svg
PUBLIC "-//W3C//DTD SVG 1.1//EN"
       "http://www.w3.org/Graphics/SVG/1.1/DTD/svg11.dtd">
<svg version="1.1" xmlns="http://www.w3.org/2000/svg" xmlns:xlink="http://www.w3.org/1999/xlink" viewBox="0 0 23.3516 29.3262">
 <g>
  <rect height="29.3262" opacity="0" width="23.3516" x="0" y="0"/>
  <path d="M0 25.0332C0 27.8906 1.4082 29.3125 4.23828 29.3125L18.7578 29.3125C21.5879 29.3125 22.9961 27.8906 22.9961 25.0332L22.9961 4.29297C22.9961 1.44922 21.5879 0 18.7578 0L4.23828 0C1.4082 0 0 1.44922 0 4.29297Z" fill="#0a84ff"/>
  <path d="M9.98047 21.3418C9.50195 21.3418 9.13281 21.1504 8.76367 20.6719L5.33203 16.4746C5.12695 16.2012 5.01758 15.8867 5.01758 15.5859C5.01758 14.957 5.48242 14.4512 6.11133 14.4512C6.49414 14.4512 6.80859 14.5879 7.13672 15.0391L9.91211 18.6074L15.7637 9.24219C16.0098 8.81836 16.3652 8.61328 16.7344 8.61328C17.3359 8.61328 17.8965 9.02344 17.8965 9.65234C17.8965 9.95312 17.7188 10.2812 17.541 10.5547L11.1152 20.6719C10.8418 21.123 10.4453 21.3418 9.98047 21.3418Z" fill="white"/>
 </g>
</svg>
