<svg version="1.1" xmlns="http://www.w3.org/2000/svg" xmlns:xlink="http://www.w3.org/1999/xlink" viewBox="0 0 20.7676 29.2715">
 <g>
  
  <path d="M0.943359 20.166C0.943359 22.2852 1.77734 23.8438 3.32227 24.6914C4.07422 25.0879 4.51172 25.5938 4.78516 26.5098L5.22266 27.9727C5.48242 28.8477 6.09766 29.2715 7.01367 29.2715L13.3301 29.2715C14.2734 29.2715 14.8477 28.8613 15.1074 27.9727L15.5586 26.5098C15.832 25.5938 16.2695 25.0879 17.0215 24.6914C18.5664 23.8438 19.4004 22.2852 19.4004 20.166L19.4004 9.10547C19.4004 6.98633 18.5664 5.44141 17.0215 4.58008C16.2695 4.18359 15.832 3.67773 15.5586 2.77539L15.1074 1.29883C14.875 0.4375 14.2598 0 13.3301 0L7.01367 0C6.09766 0 5.48242 0.423828 5.22266 1.29883L4.78516 2.77539C4.52539 3.66406 4.08789 4.19727 3.32227 4.58008C1.79102 5.40039 0.943359 6.95898 0.943359 9.10547ZM2.93945 19.8789L2.93945 9.40625C2.93945 7.36914 4.12891 6.13867 6.125 6.13867L14.2188 6.13867C16.2148 6.13867 17.4043 7.36914 17.4043 9.40625L17.4043 19.8789C17.4043 21.9023 16.2148 23.1328 14.2188 23.1328L6.125 23.1328C4.12891 23.1328 2.93945 21.9023 2.93945 19.8789ZM19.0996 13.6719L19.5918 13.6719C20.3027 13.6719 20.7676 13.1934 20.7676 12.4141L20.7676 10.5684C20.7676 9.78906 20.3027 9.31055 19.5918 9.31055L19.0996 9.31055Z" style="fill:var(--color-0,hsl(0 0 0/0.85))"></path>
  <path d="M9.02344 19.8242C9.39258 19.8242 9.70703 19.6465 9.92578 19.291L14.916 11.4434C15.668 10.2676 14.0957 9.40625 13.3984 10.541L8.98242 17.6367L6.86328 14.9023C6.01562 13.7949 4.55273 14.957 5.42773 16.0508L8.06641 19.291C8.35352 19.6602 8.6543 19.8242 9.02344 19.8242Z" style="fill:var(--color-1,hsl(0 0 0/0.85))"></path>
 </g>
</svg>