<?xml version="1.0" encoding="UTF-8"?>
<!--Generator: Apple Native CoreSVG 326-->
<!DOCTYPE svg
PUBLIC "-//W3C//DTD SVG 1.1//EN"
       "http://www.w3.org/Graphics/SVG/1.1/DTD/svg11.dtd">
<svg version="1.1" xmlns="http://www.w3.org/2000/svg" xmlns:xlink="http://www.w3.org/1999/xlink" viewBox="0 0 35.9707 35.6426">
 <g>
  <rect height="35.6426" opacity="0" width="35.9707" x="0" y="0"/>
  <path d="M35.6152 17.8145C35.6152 27.6172 27.6172 35.6152 17.8008 35.6152C7.99805 35.6152 0 27.6172 0 17.8145C0 7.99805 7.99805 0 17.8008 0C27.6172 0 35.6152 7.99805 35.6152 17.8145ZM23.6934 10.7871L15.791 23.3516L11.8535 18.4297C11.4844 17.9512 11.1426 17.8008 10.7188 17.8008C10.0352 17.8008 9.50195 18.3613 9.50195 19.0449C9.50195 19.3867 9.63867 19.7285 9.87109 20.0293L14.5332 25.6621C14.9297 26.168 15.3262 26.3867 15.8457 26.3867C16.3652 26.3867 16.7891 26.1406 17.1035 25.6621L25.6758 12.2227C25.8535 11.9355 26.0312 11.5801 26.0312 11.252C26.0312 10.5547 25.4297 10.0898 24.7734 10.0898C24.3633 10.0898 23.9668 10.3359 23.6934 10.7871Z" fill="black" fill-opacity="0.85"/>
 </g>
</svg>
