<svg version="1.1" xmlns="http://www.w3.org/2000/svg" xmlns:xlink="http://www.w3.org/1999/xlink" viewBox="0 0 23.3516 29.3262">
 <g>
  
  <path d="M0 25.0332C0 27.8906 1.4082 29.3125 4.23828 29.3125L18.7578 29.3125C21.5879 29.3125 22.9961 27.8906 22.9961 25.0332L22.9961 4.29297C22.9961 1.44922 21.5879 0 18.7578 0L4.23828 0C1.4082 0 0 1.44922 0 4.29297ZM2.20117 24.9922L2.20117 4.33398C2.20117 2.9668 2.92578 2.20117 4.34766 2.20117L18.6484 2.20117C20.0703 2.20117 20.7949 2.9668 20.7949 4.33398L20.7949 24.9922C20.7949 26.3594 20.0703 27.1113 18.6484 27.1113L4.34766 27.1113C2.92578 27.1113 2.20117 26.3594 2.20117 24.9922Z" style="fill:var(--color-0,#007aff)"></path>
  <path d="M10.0215 21.1504C10.4727 21.1504 10.8555 20.9316 11.1152 20.5078L17.3633 10.6777C17.5273 10.4043 17.7051 10.1035 17.7051 9.80273C17.7051 9.1875 17.1582 8.79102 16.584 8.79102C16.2285 8.79102 15.8867 9.00977 15.6406 9.40625L9.95312 18.5117L7.25977 15.0254C6.94531 14.5879 6.63086 14.4785 6.26172 14.4785C5.66016 14.4785 5.20898 14.957 5.20898 15.5586C5.20898 15.8594 5.31836 16.1465 5.50977 16.4062L8.8457 20.5078C9.20117 20.959 9.55664 21.1504 10.0215 21.1504Z" style="fill:var(--color-1,#007aff)"></path>
 </g>
</svg>