<svg version="1.1" xmlns="http://www.w3.org/2000/svg" xmlns:xlink="http://www.w3.org/1999/xlink" viewBox="0 0 32.5938 25.1699">
 <g>
  
  <path d="M4.29297 25.1699L27.9453 25.1699C30.8164 25.1699 32.2383 23.7617 32.2383 20.9453L32.2383 4.23828C32.2383 1.42188 30.8164 0 27.9453 0L4.29297 0C1.43555 0 0 1.42188 0 4.23828L0 20.9453C0 23.7617 1.43555 25.1699 4.29297 25.1699Z" style="fill:var(--color-0,#007aff)"></path>
  <path d="M14.6016 19.2773C14.123 19.2773 13.7539 19.0859 13.3848 18.6074L9.9668 14.3965C9.74805 14.123 9.63867 13.8223 9.63867 13.5078C9.63867 12.8926 10.1035 12.3867 10.7324 12.3867C11.1152 12.3867 11.4297 12.5098 11.7578 12.9609L14.5469 16.543L20.3848 7.16406C20.6309 6.75391 20.9863 6.53516 21.3555 6.53516C21.957 6.53516 22.5176 6.94531 22.5176 7.58789C22.5176 7.88867 22.3398 8.20312 22.1758 8.49023L15.7363 18.6074C15.4629 19.0586 15.0664 19.2773 14.6016 19.2773Z" style="fill:var(--color-1,white)"></path>
 </g>
</svg>