<svg version="1.1" xmlns="http://www.w3.org/2000/svg" xmlns:xlink="http://www.w3.org/1999/xlink" viewBox="0 0 28.2461 27.9043">
 <g>
  
  <path d="M13.9453 27.8906C21.6426 27.8906 27.8906 21.6426 27.8906 13.9453C27.8906 6.24805 21.6426 0 13.9453 0C6.24805 0 0 6.24805 0 13.9453C0 21.6426 6.24805 27.8906 13.9453 27.8906ZM13.9453 25.5664C7.51953 25.5664 2.32422 20.3711 2.32422 13.9453C2.32422 7.51953 7.51953 2.32422 13.9453 2.32422C20.3711 2.32422 25.5664 7.51953 25.5664 13.9453C25.5664 20.3711 20.3711 25.5664 13.9453 25.5664Z" style="fill:var(--color-0,#007aff)"></path>
  <path d="M12.4414 20.4395C12.8926 20.4395 13.2754 20.2207 13.5488 19.7969L19.7969 9.9668C19.9473 9.69336 20.125 9.39258 20.125 9.0918C20.125 8.47656 19.5781 8.08008 19.0039 8.08008C18.6621 8.08008 18.3203 8.29883 18.0605 8.69531L12.3867 17.8008L9.69336 14.3145C9.36523 13.877 9.06445 13.7676 8.68164 13.7676C8.09375 13.7676 7.62891 14.2461 7.62891 14.8477C7.62891 15.1484 7.75195 15.4355 7.94336 15.6953L11.2793 19.7969C11.6211 20.248 11.9902 20.4395 12.4414 20.4395Z" style="fill:var(--color-1,#007aff)"></path>
 </g>
</svg>