<svg version="1.1" xmlns="http://www.w3.org/2000/svg" xmlns:xlink="http://www.w3.org/1999/xlink" viewBox="0 0 34.7266 25.9902">
 <g>
  
  <path d="M30.0508 10.5C32.7168 11.6211 34.3711 14.1094 34.3711 16.9805C34.3711 20.7402 31.1445 23.7617 27.0156 23.7617L8.18945 23.7617C3.51367 23.7617 0 20.3848 0 16.3652C0 13.0293 1.92773 10.2676 5.01758 9.77539C5.08594 5.94727 8.75 3.39062 12.1133 4.375C13.7539 1.98242 16.3926 0 20.0977 0C25.6895 0 30.0781 4.40234 30.0508 10.5ZM20.8359 7.76562L16.1602 15.5723L13.8086 12.4961C13.5488 12.1406 13.207 11.9492 12.7969 11.9492C12.1816 11.9492 11.6895 12.4414 11.6895 13.084C11.6895 13.3711 11.7988 13.6445 12.0039 13.918L15.0664 17.7734C15.3945 18.1973 15.7637 18.3887 16.2148 18.3887C16.666 18.3887 17.0488 18.1699 17.3086 17.7598L22.6543 9.05078C22.791 8.83203 22.9688 8.51758 22.9688 8.20312C22.9688 7.60156 22.4492 7.15039 21.8066 7.15039C21.4238 7.15039 21.0547 7.38281 20.8359 7.76562Z" style="fill:var(--color-0,hsl(0 0 0/0.85))"></path>
 </g>
</svg>