<svg version="1.1" xmlns="http://www.w3.org/2000/svg" xmlns:xlink="http://www.w3.org/1999/xlink" viewBox="0 0 31.3669 31.0251">
 <g>
  
  <path d="M1.53307 18.5272L12.4842 29.4784C14.5077 31.5018 16.5038 31.5155 18.5135 29.5194L29.5194 18.4999C31.5155 16.5038 31.5018 14.494 29.4784 12.4706L18.5409 1.53307C16.5174-0.49037 14.5213-0.517714 12.5116 1.49205L1.49205 12.4979C-0.517714 14.5077-0.49037 16.5038 1.53307 18.5272Z" style="fill:var(--color-0,#007aff)"></path>
  <path d="M13.9881 22.1913C13.5096 22.1913 13.1405 21.9999 12.7713 21.5213L9.35338 17.3104C9.13463 17.037 9.02526 16.7362 9.02526 16.4217C9.02526 15.8065 9.4901 15.3006 10.119 15.3006C10.5018 15.3006 10.8163 15.4237 11.1444 15.8749L13.9335 19.4569L19.7713 10.078C20.0174 9.66783 20.3729 9.44908 20.7421 9.44908C21.3436 9.44908 21.9042 9.85924 21.9042 10.5018C21.9042 10.8026 21.7264 11.1171 21.5624 11.4042L15.1229 21.5213C14.8495 21.9725 14.453 22.1913 13.9881 22.1913Z" style="fill:var(--color-1,white)"></path>
 </g>
</svg>