<?xml version="1.0" encoding="UTF-8"?>
<!--Generator: Apple Native CoreSVG 326-->
<!DOCTYPE svg
PUBLIC "-//W3C//DTD SVG 1.1//EN"
       "http://www.w3.org/Graphics/SVG/1.1/DTD/svg11.dtd">
<svg version="1.1" xmlns="http://www.w3.org/2000/svg" xmlns:xlink="http://www.w3.org/1999/xlink" viewBox="0 0 33.4004 34.6309">
 <g>
  <rect height="34.6309" opacity="0" width="33.4004" x="0" y="0"/>
  <path d="M25.1506 3.91016L7.89434 3.91016C7.95046 2.79901 8.65169 2.16016 9.81641 2.16016L23.2285 2.16016C24.3932 2.16016 25.0945 2.79901 25.1506 3.91016Z" fill="white" fill-opacity="0.85"/>
  <path d="M27.9473 7.81549C27.5075 7.7456 27.0411 7.71094 26.5508 7.71094L6.49414 7.71094C6.00391 7.71094 5.53762 7.74558 5.09803 7.81545C5.24689 6.50197 6.13568 5.76953 7.58789 5.76953L25.4707 5.76953C26.9229 5.76953 27.8005 6.50199 27.9473 7.81549Z" fill="white" fill-opacity="0.85"/>
  <path d="M6.49414 32.4297L26.5508 32.4297C29.4082 32.4297 30.8438 31.0078 30.8438 28.1914L30.8438 14.1504C30.8438 11.334 29.4082 9.91211 26.5508 9.91211L6.49414 9.91211C3.63672 9.91211 2.20117 11.334 2.20117 14.1504L2.20117 28.1914C2.20117 31.0078 3.63672 32.4297 6.49414 32.4297Z" fill="white" fill-opacity="0.85"/>
  <path d="M14.7246 27.8496C14.2598 27.8496 13.877 27.6719 13.5078 27.1934L10.0898 22.9824C9.88477 22.709 9.76172 22.3945 9.76172 22.0938C9.76172 21.4648 10.2402 20.959 10.8555 20.959C11.252 20.959 11.5527 21.0957 11.8945 21.5469L14.6699 25.1289L20.5078 15.75C20.7539 15.3262 21.1094 15.1211 21.4785 15.1211C22.0801 15.1211 22.6406 15.5312 22.6406 16.1602C22.6406 16.4746 22.4629 16.7891 22.2988 17.0625L15.8594 27.1934C15.5859 27.6309 15.1895 27.8496 14.7246 27.8496Z" fill="white"/>
 </g>
</svg>
