<?xml version="1.0" encoding="UTF-8"?>
<!--Generator: Apple Native CoreSVG 326-->
<!DOCTYPE svg
PUBLIC "-//W3C//DTD SVG 1.1//EN"
       "http://www.w3.org/Graphics/SVG/1.1/DTD/svg11.dtd">
<svg version="1.1" xmlns="http://www.w3.org/2000/svg" xmlns:xlink="http://www.w3.org/1999/xlink" viewBox="0 0 31.0078 27.6582">
 <g>
  <rect height="27.6582" opacity="0" width="31.0078" x="0" y="0"/>
  <path d="M15.9414 22.8594L29.5312 22.8594C30.1465 22.8594 30.6523 22.3809 30.6523 21.7656C30.6523 21.1367 30.1465 20.6582 29.5312 20.6582L15.9414 20.6582C15.3125 20.6582 14.834 21.1367 14.834 21.7656C14.834 22.3809 15.3125 22.8594 15.9414 22.8594Z" fill="white" fill-opacity="0.85"/>
  <path d="M5.89258 27.6582C9.10547 27.6582 11.7852 24.9785 11.7852 21.7656C11.7852 18.5254 9.10547 15.8594 5.89258 15.8594C2.66602 15.8594 0 18.5391 0 21.7656C0 24.9785 2.67969 27.6582 5.89258 27.6582ZM5.19531 24.9375C4.9082 24.9375 4.7168 24.7734 4.51172 24.5547L2.98047 22.6953C2.85742 22.5449 2.80273 22.3809 2.80273 22.1621C2.80273 21.7656 3.10352 21.4648 3.47266 21.4648C3.73242 21.4648 3.92383 21.5605 4.10156 21.8066L5.16797 23.1602L7.60156 19.25C7.76562 18.9902 7.9707 18.8535 8.2168 18.8535C8.59961 18.8535 8.92773 19.1543 8.92773 19.5098C8.92773 19.7012 8.87305 19.8516 8.75 20.0566L5.89258 24.541C5.74219 24.8008 5.49609 24.9375 5.19531 24.9375Z" fill="white" fill-opacity="0.85"/>
  <path d="M15.9414 7.05469L29.5312 7.05469C30.1465 7.05469 30.6523 6.5625 30.6523 5.94727C30.6523 5.33203 30.1465 4.85352 29.5312 4.85352L15.9414 4.85352C15.3125 4.85352 14.834 5.33203 14.834 5.94727C14.834 6.5625 15.3125 7.05469 15.9414 7.05469Z" fill="white" fill-opacity="0.85"/>
  <path d="M5.89258 11.8398C9.10547 11.8398 11.7852 9.14648 11.7852 5.93359C11.7852 2.70703 9.10547 0.0410156 5.89258 0.0410156C2.66602 0.0410156 0 2.70703 0 5.93359C0 9.14648 2.67969 11.8398 5.89258 11.8398ZM5.19531 9.10547C4.9082 9.10547 4.7168 8.95508 4.51172 8.72266L2.98047 6.87695C2.85742 6.71289 2.80273 6.5625 2.80273 6.34375C2.80273 5.94727 3.10352 5.63281 3.47266 5.63281C3.73242 5.63281 3.92383 5.74219 4.10156 5.97461L5.16797 7.32812L7.60156 3.41797C7.76562 3.17188 7.9707 3.03516 8.2168 3.03516C8.59961 3.03516 8.92773 3.33594 8.92773 3.67773C8.92773 3.86914 8.87305 4.0332 8.75 4.23828L5.89258 8.72266C5.74219 8.96875 5.49609 9.10547 5.19531 9.10547Z" fill="white" fill-opacity="0.85"/>
 </g>
</svg>
