<svg version="1.1" xmlns="http://www.w3.org/2000/svg" xmlns:xlink="http://www.w3.org/1999/xlink" viewBox="0 0 24.7324 7.47852">
 <g>
  
  <path d="M0.861328 2.58398L10.1992 6.23438C10.8281 6.48047 11.5801 6.78125 12.1953 6.78125C12.7969 6.78125 13.5625 6.48047 14.1914 6.23438L23.5156 2.58398C24.0352 2.37891 24.377 1.91406 24.377 1.4082C24.377 0.601562 23.7891 0 22.9961 0C22.5859 0 22.0391 0.232422 21.6973 0.355469L11.2246 4.4707L13.1523 4.4707L2.67969 0.355469C2.33789 0.232422 1.80469 0 1.38086 0C0.587891 0 0 0.601562 0 1.4082C0 1.91406 0.341797 2.37891 0.861328 2.58398Z" style="fill:var(--color-0,hsl(0 0 0/0.85))"></path>
 </g>
</svg>