<?xml version="1.0" encoding="UTF-8"?>
<!--Generator: Apple Native CoreSVG 326-->
<!DOCTYPE svg
PUBLIC "-//W3C//DTD SVG 1.1//EN"
       "http://www.w3.org/Graphics/SVG/1.1/DTD/svg11.dtd">
<svg version="1.1" xmlns="http://www.w3.org/2000/svg" xmlns:xlink="http://www.w3.org/1999/xlink" viewBox="0 0 24.1035 25.6074">
 <g>
  <rect height="25.6074" opacity="0" width="24.1035" x="0" y="0"/>
  <path d="M0.369141 23.4473C0.136719 23.6934 0 23.9941 0 24.3359C0 25.0469 0.533203 25.5938 1.24414 25.5938C1.59961 25.5938 1.91406 25.457 2.13281 25.2246L12.6055 14.5332L11.1426 14.5332L21.6152 25.2246C21.8477 25.457 22.1621 25.5938 22.5039 25.5938C23.2148 25.5938 23.748 25.0469 23.748 24.3359C23.748 23.9941 23.6113 23.6934 23.3789 23.4473L12.7969 12.6191C12.5645 12.3594 12.2227 12.2227 11.8809 12.2227C11.5254 12.2227 11.2109 12.3594 10.9512 12.6191Z" fill="white" fill-opacity="0.85"/>
  <path d="M0.369141 11.2246C0.136719 11.4707 0 11.7715 0 12.127C0 12.8379 0.533203 13.3711 1.24414 13.3711C1.59961 13.3711 1.91406 13.2344 2.13281 13.0156L12.6055 2.31055L11.1426 2.31055L21.6152 13.0156C21.8477 13.2344 22.1621 13.3711 22.5039 13.3711C23.2148 13.3711 23.748 12.8379 23.748 12.127C23.748 11.7715 23.6113 11.4707 23.3789 11.2383L12.7969 0.396484C12.5508 0.164062 12.2227 0 11.8809 0C11.5254 0 11.2109 0.136719 10.9512 0.396484Z" fill="white" fill-opacity="0.85"/>
 </g>
</svg>
