<svg version="1.1" xmlns="http://www.w3.org/2000/svg" xmlns:xlink="http://www.w3.org/1999/xlink" viewBox="0 0 29.5586 29.2168">
 <g>
  
  <path d="M9.29688 4.64844C9.70703 4.64844 10.2402 4.41602 10.582 4.29297L15.5586 2.32422L13.6309 2.32422L18.6074 4.29297C18.9629 4.41602 19.4961 4.64844 19.9062 4.64844C20.7129 4.64844 21.3008 4.04688 21.3008 3.24023C21.3008 2.73438 20.959 2.26953 20.4258 2.06445L16.5977 0.560547C15.9688 0.314453 15.2031 0.0136719 14.6016 0.0136719C13.9863 0.0136719 13.2617 0.300781 12.6055 0.560547L8.76367 2.06445C8.23047 2.26953 7.90234 2.73438 7.90234 3.24023C7.90234 4.04688 8.49023 4.64844 9.29688 4.64844ZM25.9766 21.3008C26.4688 21.3008 26.9473 20.9727 27.1523 20.4395L28.6562 16.5977C28.9023 15.9824 29.2031 15.2031 29.2031 14.6016C29.2031 14 28.916 13.2754 28.6562 12.6055L27.1523 8.77734C26.9336 8.24414 26.4688 7.91602 25.9766 7.91602C25.1699 7.91602 24.5684 8.50391 24.5684 9.29688C24.5684 9.7207 24.7871 10.2539 24.9238 10.5957L26.8926 15.5723L26.8926 13.6445L24.9238 18.6211C24.7871 18.9766 24.5684 19.5098 24.5684 19.9199C24.5684 20.7129 25.1699 21.3008 25.9766 21.3008ZM14.6016 29.2168C15.2031 29.2168 15.9688 28.916 16.5977 28.6699L20.4258 27.1523C20.959 26.9473 21.3008 26.4824 21.3008 25.9902C21.3008 25.1836 20.7129 24.5684 19.9062 24.5684C19.4961 24.5684 18.9629 24.8008 18.6074 24.9375L13.6309 26.8926L15.5586 26.8926L10.582 24.9375C10.2402 24.8008 9.70703 24.5684 9.29688 24.5684C8.49023 24.5684 7.90234 25.1836 7.90234 25.9902C7.90234 26.4824 8.23047 26.9473 8.76367 27.1523L12.6055 28.6699C13.2617 28.9297 13.9863 29.2168 14.6016 29.2168ZM3.22656 21.3008C4.0332 21.3008 4.63477 20.7129 4.63477 19.9199C4.63477 19.5098 4.41602 18.9766 4.2793 18.6211L2.31055 13.6445L2.31055 15.5723L4.2793 10.5957C4.41602 10.2539 4.63477 9.7207 4.63477 9.29688C4.63477 8.50391 4.0332 7.91602 3.22656 7.91602C2.73438 7.91602 2.26953 8.24414 2.05078 8.77734L0.546875 12.6055C0.287109 13.2754 0 14 0 14.6016C0 15.2031 0.300781 15.9824 0.546875 16.5977L2.05078 20.4395C2.25586 20.9727 2.73438 21.3008 3.22656 21.3008Z" style="fill:var(--color-0,hsl(0 0 0/0.85))"></path>
 </g>
</svg>