<svg version="1.1" xmlns="http://www.w3.org/2000/svg" xmlns:xlink="http://www.w3.org/1999/xlink" viewBox="0 0 22.8594 24.7051">
 <g>
  
  <path d="M19.9883 13.5215C19.9883 14.2188 20.5488 14.7793 21.2461 14.7793C21.9434 14.7793 22.5039 14.2188 22.5039 13.5215C22.5039 12.8242 21.9434 12.2637 21.2461 12.2637C20.5488 12.2637 19.9883 12.8242 19.9883 13.5215ZM17.4863 16.0098C17.4863 16.707 18.0469 17.2676 18.7441 17.2676C19.4414 17.2676 20.002 16.707 20.002 16.0098C20.002 15.3125 19.4414 14.752 18.7441 14.752C18.0469 14.752 17.4863 15.3125 17.4863 16.0098ZM14.9844 18.4844C14.9844 19.1816 15.5449 19.7422 16.2422 19.7422C16.9395 19.7422 17.5 19.1816 17.5 18.4844C17.5 17.7871 16.9395 17.2266 16.2422 17.2266C15.5449 17.2266 14.9844 17.7871 14.9844 18.4844ZM12.4961 20.9727C12.4961 21.6699 13.043 22.2305 13.7539 22.2305C14.4512 22.2305 15.0117 21.6699 15.0117 20.9727C15.0117 20.2754 14.4512 19.7148 13.7539 19.7148C13.043 19.7148 12.4961 20.2754 12.4961 20.9727ZM9.99414 23.4473C9.99414 24.1445 10.5547 24.7051 11.252 24.7051C11.9492 24.7051 12.5098 24.1445 12.5098 23.4473C12.5098 22.75 11.9492 22.1895 11.252 22.1895C10.5547 22.1895 9.99414 22.75 9.99414 23.4473ZM7.49219 20.9727C7.49219 21.6699 8.05273 22.2305 8.75 22.2305C9.44727 22.2305 10.0078 21.6699 10.0078 20.9727C10.0078 20.2754 9.44727 19.7148 8.75 19.7148C8.05273 19.7148 7.49219 20.2754 7.49219 20.9727ZM4.99023 18.4844C4.99023 19.1816 5.55078 19.7422 6.24805 19.7422C6.95898 19.7422 7.50586 19.1816 7.50586 18.4844C7.50586 17.7871 6.95898 17.2266 6.24805 17.2266C5.55078 17.2266 4.99023 17.7871 4.99023 18.4844ZM2.50195 16.0098C2.50195 16.707 3.0625 17.2676 3.75977 17.2676C4.45703 17.2676 5.01758 16.707 5.01758 16.0098C5.01758 15.3125 4.45703 14.752 3.75977 14.752C3.0625 14.752 2.50195 15.3125 2.50195 16.0098ZM0 13.5215C0 14.2188 0.560547 14.7793 1.25781 14.7793C1.95508 14.7793 2.51562 14.2188 2.51562 13.5215C2.51562 12.8242 1.95508 12.2637 1.25781 12.2637C0.560547 12.2637 0 12.8242 0 13.5215Z" style="fill:var(--color-0,hsl(0 0 0/0.85))"></path>
  <path d="M19.9883 1.3125C19.9883 2.00977 20.5488 2.57031 21.2461 2.57031C21.9434 2.57031 22.5039 2.00977 22.5039 1.3125C22.5039 0.601562 21.9434 0.0546875 21.2461 0.0546875C20.5488 0.0546875 19.9883 0.601562 19.9883 1.3125ZM17.4863 3.78711C17.4863 4.48438 18.0469 5.04492 18.7441 5.04492C19.4414 5.04492 20.002 4.48438 20.002 3.78711C20.002 3.08984 19.4414 2.5293 18.7441 2.5293C18.0469 2.5293 17.4863 3.08984 17.4863 3.78711ZM14.9844 6.26172C14.9844 6.95898 15.5449 7.51953 16.2422 7.51953C16.9395 7.51953 17.5 6.95898 17.5 6.26172C17.5 5.56445 16.9395 5.00391 16.2422 5.00391C15.5449 5.00391 14.9844 5.56445 14.9844 6.26172ZM12.4961 8.75C12.4961 9.44727 13.043 10.0078 13.7539 10.0078C14.4512 10.0078 15.0117 9.44727 15.0117 8.75C15.0117 8.05273 14.4512 7.49219 13.7539 7.49219C13.043 7.49219 12.4961 8.05273 12.4961 8.75ZM9.99414 11.2246C9.99414 11.9219 10.5547 12.4824 11.252 12.4824C11.9492 12.4824 12.5098 11.9219 12.5098 11.2246C12.5098 10.5273 11.9492 9.9668 11.252 9.9668C10.5547 9.9668 9.99414 10.5273 9.99414 11.2246ZM7.49219 8.75C7.49219 9.44727 8.05273 10.0078 8.75 10.0078C9.44727 10.0078 10.0078 9.44727 10.0078 8.75C10.0078 8.05273 9.44727 7.49219 8.75 7.49219C8.05273 7.49219 7.49219 8.05273 7.49219 8.75ZM4.99023 6.26172C4.99023 6.95898 5.55078 7.51953 6.24805 7.51953C6.95898 7.51953 7.50586 6.95898 7.50586 6.26172C7.50586 5.56445 6.95898 5.00391 6.24805 5.00391C5.55078 5.00391 4.99023 5.56445 4.99023 6.26172ZM2.50195 3.78711C2.50195 4.48438 3.0625 5.04492 3.75977 5.04492C4.45703 5.04492 5.01758 4.48438 5.01758 3.78711C5.01758 3.08984 4.45703 2.5293 3.75977 2.5293C3.0625 2.5293 2.50195 3.08984 2.50195 3.78711ZM0 1.3125C0 2.00977 0.560547 2.57031 1.25781 2.57031C1.95508 2.57031 2.51562 2.00977 2.51562 1.3125C2.51562 0.601562 1.95508 0.0546875 1.25781 0.0546875C0.560547 0.0546875 0 0.601562 0 1.3125Z" style="fill:var(--color-1,hsl(0 0 0/0.85))"></path>
 </g>
</svg>