<svg version="1.1" xmlns="http://www.w3.org/2000/svg" xmlns:xlink="http://www.w3.org/1999/xlink" viewBox="0 0 24.9922 23.9121">
 <g>
  
  <path d="M23.3789 3.22656C24.0762 3.22656 24.6367 2.66602 24.6367 1.96875C24.6367 1.27148 24.0762 0.710938 23.3789 0.710938C22.6816 0.710938 22.1211 1.27148 22.1211 1.96875C22.1211 2.66602 22.6816 3.22656 23.3789 3.22656ZM20.9043 5.72852C21.6016 5.72852 22.1621 5.16797 22.1621 4.4707C22.1621 3.77344 21.6016 3.21289 20.9043 3.21289C20.207 3.21289 19.6465 3.77344 19.6465 4.4707C19.6465 5.16797 20.207 5.72852 20.9043 5.72852ZM18.4297 8.2168C19.127 8.2168 19.6875 7.66992 19.6875 6.95898C19.6875 6.26172 19.127 5.70117 18.4297 5.70117C17.7188 5.70117 17.1719 6.26172 17.1719 6.95898C17.1719 7.66992 17.7188 8.2168 18.4297 8.2168ZM15.9414 10.7188C16.6387 10.7188 17.1992 10.1582 17.1992 9.46094C17.1992 8.76367 16.6387 8.20312 15.9414 8.20312C15.2441 8.20312 14.6836 8.76367 14.6836 9.46094C14.6836 10.1582 15.2441 10.7188 15.9414 10.7188ZM13.4668 13.2207C14.1641 13.2207 14.7246 12.6602 14.7246 11.9629C14.7246 11.2656 14.1641 10.7051 13.4668 10.7051C12.7695 10.7051 12.209 11.2656 12.209 11.9629C12.209 12.6602 12.7695 13.2207 13.4668 13.2207ZM15.9414 15.7227C16.6387 15.7227 17.1992 15.1621 17.1992 14.4648C17.1992 13.7539 16.6387 13.207 15.9414 13.207C15.2441 13.207 14.6836 13.7539 14.6836 14.4648C14.6836 15.1621 15.2441 15.7227 15.9414 15.7227ZM18.4297 18.2109C19.127 18.2109 19.6875 17.6504 19.6875 16.9531C19.6875 16.2559 19.127 15.6953 18.4297 15.6953C17.7188 15.6953 17.1719 16.2559 17.1719 16.9531C17.1719 17.6504 17.7188 18.2109 18.4297 18.2109ZM20.9043 20.7129C21.6016 20.7129 22.1621 20.1523 22.1621 19.4551C22.1621 18.7578 21.6016 18.1973 20.9043 18.1973C20.207 18.1973 19.6465 18.7578 19.6465 19.4551C19.6465 20.1523 20.207 20.7129 20.9043 20.7129ZM23.3789 23.2148C24.0762 23.2148 24.6367 22.6543 24.6367 21.957C24.6367 21.2598 24.0762 20.6992 23.3789 20.6992C22.6816 20.6992 22.1211 21.2598 22.1211 21.957C22.1211 22.6543 22.6816 23.2148 23.3789 23.2148Z" style="fill:var(--color-0,hsl(0 0 0/0.85))"></path>
  <path d="M12.127 23.748C12.8379 23.748 13.3711 23.2148 13.3711 22.5039C13.3711 22.1621 13.2344 21.8477 13.0156 21.6152L2.31055 11.1426L2.31055 12.6055L13.0156 2.14648C13.2344 1.91406 13.3711 1.58594 13.3711 1.25781C13.3711 0.546875 12.8379 0 12.127 0C11.7715 0 11.4707 0.136719 11.2383 0.369141L0.410156 10.9648C0.150391 11.1836 0 11.5254 0 11.8809C0 12.2227 0.136719 12.5371 0.396484 12.7969L11.2383 23.3789C11.4707 23.6113 11.7715 23.748 12.127 23.748Z" style="fill:var(--color-1,hsl(0 0 0/0.85))"></path>
 </g>
</svg>