<svg version="1.1" xmlns="http://www.w3.org/2000/svg" xmlns:xlink="http://www.w3.org/1999/xlink" viewBox="0 0 25.5254 25.1699">
 <g>
  
  <path d="M4.29297 25.1699L20.877 25.1699C23.748 25.1699 25.1699 23.7617 25.1699 20.9453L25.1699 4.23828C25.1699 1.42188 23.748 0 20.877 0L4.29297 0C1.43555 0 0 1.42188 0 4.23828L0 20.9453C0 23.7617 1.43555 25.1699 4.29297 25.1699ZM4.32031 22.9688C2.95312 22.9688 2.20117 22.2441 2.20117 20.8223L2.20117 4.36133C2.20117 2.93945 2.95312 2.20117 4.32031 2.20117L20.8496 2.20117C22.2031 2.20117 22.9688 2.93945 22.9688 4.36133L22.9688 20.8223C22.9688 22.2441 22.2031 22.9688 20.8496 22.9688Z" style="fill:var(--color-0,hsl(0 0 0/0.85))"></path>
  <path d="M15.2988 19.3457C15.7227 18.9219 15.709 18.2656 15.3125 17.8828L9.69336 12.5781L15.3125 7.30078C15.7227 6.91797 15.709 6.23438 15.2852 5.83789C14.9023 5.46875 14.2734 5.48242 13.8496 5.87891L8.16211 11.252C7.38281 11.9629 7.38281 13.2207 8.16211 13.9316L13.8496 19.3047C14.2324 19.6602 14.9434 19.6875 15.2988 19.3457Z" style="fill:var(--color-1,hsl(0 0 0/0.85))"></path>
 </g>
</svg>