<?xml version="1.0" encoding="UTF-8"?>
<!--Generator: Apple Native CoreSVG 326-->
<!DOCTYPE svg
PUBLIC "-//W3C//DTD SVG 1.1//EN"
       "http://www.w3.org/Graphics/SVG/1.1/DTD/svg11.dtd">
<svg version="1.1" xmlns="http://www.w3.org/2000/svg" xmlns:xlink="http://www.w3.org/1999/xlink" viewBox="0 0 28.2461 27.9043">
 <g>
  <rect height="27.9043" opacity="0" width="28.2461" x="0" y="0"/>
  <path d="M13.9453 27.8906C21.6426 27.8906 27.8906 21.6289 27.8906 13.9453C27.8906 6.24805 21.6426 0 13.9453 0C6.26172 0 0 6.24805 0 13.9453C0 21.6289 6.26172 27.8906 13.9453 27.8906Z" fill="white" fill-opacity="0.85"/>
  <path d="M10.7051 20.9316C10.2812 20.4941 10.2812 19.8105 10.7051 19.4141L16.502 13.959L10.7051 8.51758C10.2676 8.10742 10.2812 7.41016 10.7188 7C11.1289 6.60352 11.7852 6.64453 12.2227 7.05469L18.0879 12.5645C18.8945 13.3164 18.8809 14.6152 18.0879 15.3535L12.2227 20.877C11.8262 21.2598 11.0879 21.2871 10.7051 20.9316Z" fill="white"/>
 </g>
</svg>
