<?xml version="1.0" encoding="UTF-8"?>
<!--Generator: Apple Native CoreSVG 326-->
<!DOCTYPE svg
PUBLIC "-//W3C//DTD SVG 1.1//EN"
       "http://www.w3.org/Graphics/SVG/1.1/DTD/svg11.dtd">
<svg version="1.1" xmlns="http://www.w3.org/2000/svg" xmlns:xlink="http://www.w3.org/1999/xlink" viewBox="0 0 26.6738 26.4277">
 <g>
  <rect height="26.4277" opacity="0" width="26.6738" x="0" y="0"/>
  <path d="M9.88477 2.5293L24.9375 2.5293L23.8027 1.4082L23.8027 16.4746C23.8027 17.2129 24.3223 17.7324 25.0742 17.7324C25.7578 17.7324 26.3184 17.2129 26.3184 16.4746L26.3184 1.32617C26.3184 0.574219 25.7441 0 24.9922 0L9.88477 0C9.14648 0 8.62695 0.533203 8.62695 1.27148C8.62695 1.95508 9.14648 2.5293 9.88477 2.5293Z" fill="white" fill-opacity="0.85"/>
  <path d="M1.25781 11.1973L16.3105 11.1973L15.1758 10.0762L15.1758 25.1426C15.1758 25.8809 15.709 26.4004 16.4473 26.4004C17.1309 26.4004 17.6914 25.8809 17.6914 25.1426L17.6914 9.99414C17.6914 9.24219 17.1309 8.68164 16.3789 8.68164L1.25781 8.68164C0.519531 8.68164 0 9.20117 0 9.93945C0 10.623 0.519531 11.1973 1.25781 11.1973Z" fill="white" fill-opacity="0.85"/>
 </g>
</svg>
