<?xml version="1.0" encoding="UTF-8"?>
<!--Generator: Apple Native CoreSVG 326-->
<!DOCTYPE svg
PUBLIC "-//W3C//DTD SVG 1.1//EN"
       "http://www.w3.org/Graphics/SVG/1.1/DTD/svg11.dtd">
<svg version="1.1" xmlns="http://www.w3.org/2000/svg" xmlns:xlink="http://www.w3.org/1999/xlink" viewBox="0 0 24.1035 14.4785">
 <g>
  <rect height="14.4785" opacity="0" width="24.1035" x="0" y="0"/>
  <path d="M0.369141 11.2383C0.136719 11.457 0 11.7715 0 12.127C0 12.8379 0.533203 13.3711 1.24414 13.3711C1.59961 13.3711 1.92773 13.248 2.13281 13.0156L12.6055 2.32422L11.1426 2.32422L21.6152 13.0156C21.834 13.248 22.1621 13.3711 22.5039 13.3711C23.2148 13.3711 23.748 12.8379 23.748 12.127C23.748 11.7715 23.6113 11.457 23.3789 11.2383L12.7969 0.410156C12.5645 0.150391 12.2227 0 11.8809 0C11.5254 0 11.1973 0.150391 10.9512 0.410156Z" fill="white" fill-opacity="0.85"/>
 </g>
</svg>
