<?xml version="1.0" encoding="UTF-8"?>
<!--Generator: Apple Native CoreSVG 326-->
<!DOCTYPE svg
PUBLIC "-//W3C//DTD SVG 1.1//EN"
       "http://www.w3.org/Graphics/SVG/1.1/DTD/svg11.dtd">
<svg version="1.1" xmlns="http://www.w3.org/2000/svg" xmlns:xlink="http://www.w3.org/1999/xlink" viewBox="0 0 25.5254 25.1699">
 <g>
  <rect height="25.1699" opacity="0" width="25.5254" x="0" y="0"/>
  <path d="M4.29297 25.1699L20.877 25.1699C23.748 25.1699 25.1699 23.7617 25.1699 20.9453L25.1699 4.23828C25.1699 1.42188 23.748 0 20.877 0L4.29297 0C1.43555 0 0 1.42188 0 4.23828L0 20.9453C0 23.7617 1.43555 25.1699 4.29297 25.1699Z" fill="white" fill-opacity="0.85"/>
  <path d="M14.0137 17.0898C13.125 18.0332 12.0996 18.0332 11.2109 17.0898L5.6875 11.2246C5.25 10.7734 5.25 10.1309 5.63281 9.7207C6.07031 9.26953 6.75391 9.26953 7.15039 9.69336L12.6191 15.4766L18.0742 9.69336C18.4707 9.26953 19.1406 9.2832 19.5918 9.7207C19.9883 10.1172 19.9746 10.7734 19.5371 11.2246Z" fill="white"/>
 </g>
</svg>
