<svg version="1.1" xmlns="http://www.w3.org/2000/svg" xmlns:xlink="http://www.w3.org/1999/xlink" viewBox="0 0 28.2461 27.9043">
 <g>
  
  <path d="M13.9453 27.8906C21.6426 27.8906 27.8906 21.6426 27.8906 13.9453C27.8906 6.24805 21.6426 0 13.9453 0C6.24805 0 0 6.24805 0 13.9453C0 21.6426 6.24805 27.8906 13.9453 27.8906ZM13.9453 25.5664C7.51953 25.5664 2.32422 20.3711 2.32422 13.9453C2.32422 7.51953 7.51953 2.32422 13.9453 2.32422C20.3711 2.32422 25.5664 7.51953 25.5664 13.9453C25.5664 20.3711 20.3711 25.5664 13.9453 25.5664Z" style="fill:var(--color-0,hsl(0 0 0/0.85))"></path>
  <path d="M10.8281 20.7129C11.1836 21.0547 11.8945 21.0273 12.2773 20.6719L17.9648 15.2988C18.7441 14.5879 18.7441 13.3301 17.9648 12.6191L12.2773 7.24609C11.8535 6.84961 11.2246 6.83594 10.8418 7.20508C10.4043 7.60156 10.3906 8.28516 10.8145 8.66797L16.4336 13.9453L10.8145 19.25C10.4043 19.6328 10.4043 20.2891 10.8281 20.7129Z" style="fill:var(--color-1,hsl(0 0 0/0.85))"></path>
 </g>
</svg>