<?xml version="1.0" encoding="UTF-8"?>
<!--Generator: Apple Native CoreSVG 326-->
<!DOCTYPE svg
PUBLIC "-//W3C//DTD SVG 1.1//EN"
       "http://www.w3.org/Graphics/SVG/1.1/DTD/svg11.dtd">
<svg version="1.1" xmlns="http://www.w3.org/2000/svg" xmlns:xlink="http://www.w3.org/1999/xlink" viewBox="0 0 17.1992 23.748">
 <g>
  <rect height="23.748" opacity="0" width="17.1992" x="0" y="0"/>
  <path d="M0 11.8672C0 12.209 0.123047 12.5098 0.382812 12.7695L11.2246 23.3652C11.457 23.6113 11.7578 23.7344 12.1133 23.7344C12.8242 23.7344 13.3711 23.2012 13.3711 22.4902C13.3711 22.1348 13.2207 21.834 13.002 21.6016L3.04883 11.8672L13.002 2.13281C13.2207 1.90039 13.3711 1.58594 13.3711 1.24414C13.3711 0.533203 12.8242 0 12.1133 0C11.7578 0 11.457 0.123047 11.2246 0.355469L0.382812 10.9648C0.123047 11.2109 0 11.5254 0 11.8672Z" fill="white" fill-opacity="0.85"/>
 </g>
</svg>
