<?xml version="1.0" encoding="UTF-8"?>
<!--Generator: Apple Native CoreSVG 326-->
<!DOCTYPE svg
PUBLIC "-//W3C//DTD SVG 1.1//EN"
       "http://www.w3.org/Graphics/SVG/1.1/DTD/svg11.dtd">
<svg version="1.1" xmlns="http://www.w3.org/2000/svg" xmlns:xlink="http://www.w3.org/1999/xlink" viewBox="0 0 18.6348 24.459">
 <g>
  <rect height="24.459" opacity="0" width="18.6348" x="0" y="0"/>
  <path d="M12.8926 24.377C13.3984 24.377 13.8633 24.0352 14.0684 23.502L17.7324 14.1777C17.9785 13.5488 18.2793 12.7832 18.2793 12.1816C18.2793 11.5801 17.9785 10.8145 17.7324 10.1855L14.0684 0.861328C13.8633 0.328125 13.3984 0 12.8926 0C12.0859 0 11.4844 0.587891 11.4844 1.38086C11.4844 1.77734 11.7168 2.32422 11.8398 2.67969L15.9551 13.1523L15.9551 11.2109L11.8398 21.6836C11.7168 22.0391 11.4844 22.5723 11.4844 22.9824C11.4844 23.7891 12.0859 24.377 12.8926 24.377ZM5.37305 24.377C6.17969 24.377 6.79492 23.7891 6.79492 22.9824C6.79492 22.5723 6.5625 22.0391 6.42578 21.6836L2.31055 11.2109L2.31055 13.1523L6.42578 2.67969C6.5625 2.32422 6.79492 1.77734 6.79492 1.38086C6.79492 0.587891 6.17969 0 5.37305 0C4.88086 0 4.41602 0.328125 4.21094 0.861328L0.546875 10.1855C0.300781 10.8145 0 11.5801 0 12.1816C0 12.7832 0.300781 13.5488 0.546875 14.1777L4.21094 23.502C4.41602 24.0352 4.88086 24.377 5.37305 24.377Z" fill="white" fill-opacity="0.85"/>
 </g>
</svg>
