<?xml version="1.0" encoding="UTF-8"?>
<!--Generator: Apple Native CoreSVG 326-->
<!DOCTYPE svg
PUBLIC "-//W3C//DTD SVG 1.1//EN"
       "http://www.w3.org/Graphics/SVG/1.1/DTD/svg11.dtd">
<svg version="1.1" xmlns="http://www.w3.org/2000/svg" xmlns:xlink="http://www.w3.org/1999/xlink" viewBox="0 0 28.2461 27.9043">
 <g>
  <rect height="27.9043" opacity="0" width="28.2461" x="0" y="0"/>
  <path d="M13.9453 27.8906C21.6426 27.8906 27.8906 21.6289 27.8906 13.9453C27.8906 6.24805 21.6426 0 13.9453 0C6.26172 0 0 6.24805 0 13.9453C0 21.6289 6.26172 27.8906 13.9453 27.8906Z" fill="white" fill-opacity="0.85"/>
  <path d="M16.6523 20.7129C16.2969 21.0547 15.5859 21.0273 15.2031 20.6719L9.51562 15.2988C8.73633 14.5879 8.73633 13.3301 9.51562 12.6191L15.2031 7.24609C15.627 6.84961 16.2559 6.83594 16.6387 7.20508C17.0625 7.60156 17.0762 8.28516 16.666 8.66797L11.0469 13.9453L16.666 19.25C17.0625 19.6328 17.0762 20.2891 16.6523 20.7129Z" fill="white"/>
 </g>
</svg>
