<svg version="1.1" xmlns="http://www.w3.org/2000/svg" xmlns:xlink="http://www.w3.org/1999/xlink" viewBox="0 0 28.2461 27.9043">
 <g>
  
  <path d="M13.9453 27.8906C21.6426 27.8906 27.8906 21.6289 27.8906 13.9453C27.8906 6.24805 21.6426 0 13.9453 0C6.26172 0 0 6.24805 0 13.9453C0 21.6289 6.26172 27.8906 13.9453 27.8906Z" style="fill:var(--color-0,hsl(0 0 0/0.85))"></path>
  <path d="M6.97266 17.2402C6.58984 16.8574 6.60352 16.1875 7.02734 15.75L12.5508 9.87109C13.4395 8.94141 14.4648 8.94141 15.3535 9.87109L20.877 15.75C21.3145 16.1875 21.3281 16.8574 20.9316 17.2402C20.4941 17.6914 19.8105 17.6914 19.4141 17.2676L13.959 11.4844L8.49023 17.2676C8.09375 17.6914 7.41016 17.6914 6.97266 17.2402Z" style="fill:var(--color-1,white)"></path>
 </g>
</svg>