<svg version="1.1" xmlns="http://www.w3.org/2000/svg" xmlns:xlink="http://www.w3.org/1999/xlink" viewBox="0 0 25.6074 25.2793">
 <g>
  
  <path d="M20.4668 22.75C19.7695 22.75 19.209 23.3105 19.209 24.0078C19.209 24.7051 19.7695 25.2656 20.4668 25.2656C21.1641 25.2656 21.7246 24.7051 21.7246 24.0078C21.7246 23.3105 21.1641 22.75 20.4668 22.75ZM16.9531 22.75C16.2559 22.75 15.6953 23.3105 15.6953 24.0078C15.6953 24.7051 16.2559 25.2656 16.9531 25.2656C17.6504 25.2656 18.2109 24.7051 18.2109 24.0078C18.2109 23.3105 17.6504 22.75 16.9531 22.75ZM13.4258 22.75C12.7285 22.75 12.168 23.3105 12.168 24.0078C12.168 24.7051 12.7285 25.2656 13.4258 25.2656C14.123 25.2656 14.6836 24.7051 14.6836 24.0078C14.6836 23.3105 14.123 22.75 13.4258 22.75ZM9.91211 22.75C9.21484 22.75 8.6543 23.3105 8.6543 24.0078C8.6543 24.7051 9.21484 25.2656 9.91211 25.2656C10.6094 25.2656 11.1699 24.7051 11.1699 24.0078C11.1699 23.3105 10.6094 22.75 9.91211 22.75ZM23.9941 8.66797C23.2969 8.66797 22.7363 9.22852 22.7363 9.92578C22.7363 10.623 23.2969 11.1836 23.9941 11.1836C24.6914 11.1836 25.252 10.623 25.252 9.92578C25.252 9.22852 24.6914 8.66797 23.9941 8.66797ZM23.9941 12.1816C23.2969 12.1816 22.7363 12.7422 22.7363 13.4395C22.7363 14.1504 23.2969 14.6973 23.9941 14.6973C24.6914 14.6973 25.252 14.1504 25.252 13.4395C25.252 12.7422 24.6914 12.1816 23.9941 12.1816ZM23.9941 15.709C23.2969 15.709 22.7363 16.2695 22.7363 16.9668C22.7363 17.6641 23.2969 18.2246 23.9941 18.2246C24.6914 18.2246 25.252 17.6641 25.252 16.9668C25.252 16.2695 24.6914 15.709 23.9941 15.709ZM23.9941 19.2227C23.2969 19.2227 22.7363 19.7832 22.7363 20.4805C22.7363 21.1914 23.2969 21.752 23.9941 21.752C24.6914 21.752 25.252 21.1914 25.252 20.4805C25.252 19.7832 24.6914 19.2227 23.9941 19.2227ZM23.9941 22.75C23.2969 22.75 22.7363 23.3105 22.7363 24.0078C22.7363 24.7051 23.2969 25.2656 23.9941 25.2656C24.6914 25.2656 25.252 24.7051 25.252 24.0078C25.252 23.3105 24.6914 22.75 23.9941 22.75Z" style="fill:var(--color-0,hsl(0 0 0/0.85))"></path>
  <path d="M11.8262 14.082C11.1289 14.082 10.5684 14.6426 10.5684 15.3398C10.5684 16.0371 11.1289 16.5977 11.8262 16.5977C12.5234 16.5977 13.084 16.0371 13.084 15.3398C13.084 14.6426 12.5234 14.082 11.8262 14.082ZM8.29883 14.082C7.60156 14.082 7.04102 14.6426 7.04102 15.3398C7.04102 16.0371 7.60156 16.5977 8.29883 16.5977C8.99609 16.5977 9.55664 16.0371 9.55664 15.3398C9.55664 14.6426 8.99609 14.082 8.29883 14.082ZM4.78516 14.082C4.07422 14.082 3.52734 14.6426 3.52734 15.3398C3.52734 16.0371 4.07422 16.5977 4.78516 16.5977C5.48242 16.5977 6.04297 16.0371 6.04297 15.3398C6.04297 14.6426 5.48242 14.082 4.78516 14.082ZM1.25781 14.082C0.560547 14.082 0 14.6426 0 15.3398C0 16.0371 0.560547 16.5977 1.25781 16.5977C1.95508 16.5977 2.51562 16.0371 2.51562 15.3398C2.51562 14.6426 1.95508 14.082 1.25781 14.082ZM15.3398 0C14.6426 0 14.082 0.560547 14.082 1.25781C14.082 1.95508 14.6426 2.51562 15.3398 2.51562C16.0371 2.51562 16.5977 1.95508 16.5977 1.25781C16.5977 0.560547 16.0371 0 15.3398 0ZM15.3398 3.51367C14.6426 3.51367 14.082 4.07422 14.082 4.77148C14.082 5.46875 14.6426 6.0293 15.3398 6.0293C16.0371 6.0293 16.5977 5.46875 16.5977 4.77148C16.5977 4.07422 16.0371 3.51367 15.3398 3.51367ZM15.3398 7.04102C14.6426 7.04102 14.082 7.60156 14.082 8.29883C14.082 8.99609 14.6426 9.55664 15.3398 9.55664C16.0371 9.55664 16.5977 8.99609 16.5977 8.29883C16.5977 7.60156 16.0371 7.04102 15.3398 7.04102ZM15.3398 10.5547C14.6426 10.5547 14.082 11.1152 14.082 11.8125C14.082 12.5098 14.6426 13.0703 15.3398 13.0703C16.0371 13.0703 16.5977 12.5098 16.5977 11.8125C16.5977 11.1152 16.0371 10.5547 15.3398 10.5547ZM15.3398 14.082C14.6426 14.082 14.082 14.6426 14.082 15.3398C14.082 16.0371 14.6426 16.5977 15.3398 16.5977C16.0371 16.5977 16.5977 16.0371 16.5977 15.3398C16.5977 14.6426 16.0371 14.082 15.3398 14.082Z" style="fill:var(--color-1,hsl(0 0 0/0.85))"></path>
 </g>
</svg>