<?xml version="1.0" encoding="UTF-8"?>
<!--Generator: Apple Native CoreSVG 326-->
<!DOCTYPE svg
PUBLIC "-//W3C//DTD SVG 1.1//EN"
       "http://www.w3.org/Graphics/SVG/1.1/DTD/svg11.dtd">
<svg version="1.1" xmlns="http://www.w3.org/2000/svg" xmlns:xlink="http://www.w3.org/1999/xlink" viewBox="0 0 25.5254 25.1699">
 <g>
  <rect height="25.1699" opacity="0" width="25.5254" x="0" y="0"/>
  <path d="M4.29297 25.1699L20.877 25.1699C23.748 25.1699 25.1699 23.7617 25.1699 20.9453L25.1699 4.23828C25.1699 1.42188 23.748 0 20.877 0L4.29297 0C1.43555 0 0 1.42188 0 4.23828L0 20.9453C0 23.7617 1.43555 25.1699 4.29297 25.1699Z" fill="white" fill-opacity="0.85"/>
  <path d="M5.63281 15.873C5.23633 15.4902 5.25 14.8203 5.6875 14.3828L11.1973 8.50391C12.0859 7.57422 13.1113 7.57422 14.0137 8.50391L19.5234 14.3828C19.9609 14.8203 19.9746 15.4902 19.5781 15.873C19.1406 16.3242 18.457 16.3242 18.0605 15.9004L12.6055 10.1172L7.15039 15.9004C6.74023 16.3242 6.07031 16.3242 5.63281 15.873Z" fill="white"/>
 </g>
</svg>
