<svg version="1.1" xmlns="http://www.w3.org/2000/svg" xmlns:xlink="http://www.w3.org/1999/xlink" viewBox="0 0 26.6738 26.4277">
 <g>
  
  <path d="M9.88477 23.8711C9.14648 23.8711 8.62695 24.459 8.62695 25.1426C8.62695 25.8809 9.14648 26.4004 9.88477 26.4004L24.9922 26.4004C25.7441 26.4004 26.3184 25.8398 26.3184 25.0879L26.3184 9.93945C26.3184 9.20117 25.7578 8.68164 25.0742 8.68164C24.3223 8.68164 23.8027 9.20117 23.8027 9.93945L23.8027 25.0059L24.9375 23.8711Z" style="fill:var(--color-0,hsl(0 0 0/0.85))"></path>
  <path d="M1.25781 15.2031C0.519531 15.2031 0 15.7773 0 16.4746C0 17.2129 0.519531 17.7324 1.25781 17.7324L16.3789 17.7324C17.1309 17.7324 17.6914 17.1582 17.6914 16.4199L17.6914 1.27148C17.6914 0.533203 17.1309 0 16.4473 0C15.709 0 15.1758 0.533203 15.1758 1.27148L15.1758 16.3379L16.3105 15.2031Z" style="fill:var(--color-1,hsl(0 0 0/0.85))"></path>
 </g>
</svg>