<svg version="1.1" xmlns="http://www.w3.org/2000/svg" xmlns:xlink="http://www.w3.org/1999/xlink" viewBox="0 0 28.2461 27.9043">
 <g>
  
  <path d="M13.9453 27.8906C21.6426 27.8906 27.8906 21.6426 27.8906 13.9453C27.8906 6.24805 21.6426 0 13.9453 0C6.24805 0 0 6.24805 0 13.9453C0 21.6426 6.24805 27.8906 13.9453 27.8906ZM13.9453 25.5664C7.51953 25.5664 2.32422 20.3711 2.32422 13.9453C2.32422 7.51953 7.51953 2.32422 13.9453 2.32422C20.3711 2.32422 25.5664 7.51953 25.5664 13.9453C25.5664 20.3711 20.3711 25.5664 13.9453 25.5664Z" style="fill:var(--color-0,hsl(0 0 0/0.85))"></path>
  <path d="M15.2988 18.3477L20.6582 12.6602C21.0684 12.2227 21.082 11.5938 20.6992 11.2109C20.2754 10.7871 19.6191 10.7734 19.2363 11.1836L13.9453 16.7891L8.6543 11.1836C8.25781 10.7734 7.58789 10.7734 7.17773 11.2109C6.80859 11.6074 6.82227 12.2227 7.21875 12.6602L12.5918 18.3477C13.4395 19.2637 14.4375 19.2637 15.2988 18.3477Z" style="fill:var(--color-1,hsl(0 0 0/0.85))"></path>
 </g>
</svg>