<?xml version="1.0" encoding="UTF-8"?>
<!--Generator: Apple Native CoreSVG 326-->
<!DOCTYPE svg
PUBLIC "-//W3C//DTD SVG 1.1//EN"
       "http://www.w3.org/Graphics/SVG/1.1/DTD/svg11.dtd">
<svg version="1.1" xmlns="http://www.w3.org/2000/svg" xmlns:xlink="http://www.w3.org/1999/xlink" viewBox="0 0 24.9922 23.9121">
 <g>
  <rect height="23.9121" opacity="0" width="24.9922" x="0" y="0"/>
  <path d="M12.5234 23.748C12.8652 23.748 13.166 23.6113 13.4121 23.3789L24.2402 12.7969C24.5 12.5371 24.6367 12.2227 24.6367 11.8809C24.6367 11.5254 24.5 11.1836 24.2402 10.9648L13.4121 0.369141C13.166 0.136719 12.8652 0 12.5234 0C11.8125 0 11.2656 0.546875 11.2656 1.25781C11.2656 1.58594 11.416 1.91406 11.6348 2.14648L22.3262 12.6055L22.3262 11.1426L11.6348 21.6152C11.416 21.8477 11.2656 22.1621 11.2656 22.5039C11.2656 23.2148 11.8125 23.748 12.5234 23.748Z" fill="white" fill-opacity="0.85"/>
  <path d="M1.25781 3.22656C1.95508 3.22656 2.51562 2.66602 2.51562 1.96875C2.51562 1.27148 1.95508 0.710938 1.25781 0.710938C0.560547 0.710938 0 1.27148 0 1.96875C0 2.66602 0.560547 3.22656 1.25781 3.22656ZM3.73242 5.72852C4.44336 5.72852 4.99023 5.16797 4.99023 4.4707C4.99023 3.77344 4.44336 3.21289 3.73242 3.21289C3.03516 3.21289 2.47461 3.77344 2.47461 4.4707C2.47461 5.16797 3.03516 5.72852 3.73242 5.72852ZM6.2207 8.2168C6.91797 8.2168 7.47852 7.66992 7.47852 6.95898C7.47852 6.26172 6.91797 5.70117 6.2207 5.70117C5.52344 5.70117 4.96289 6.26172 4.96289 6.95898C4.96289 7.66992 5.52344 8.2168 6.2207 8.2168ZM8.69531 10.7188C9.39258 10.7188 9.95312 10.1582 9.95312 9.46094C9.95312 8.76367 9.39258 8.20312 8.69531 8.20312C7.99805 8.20312 7.4375 8.76367 7.4375 9.46094C7.4375 10.1582 7.99805 10.7188 8.69531 10.7188ZM11.1836 13.2207C11.8809 13.2207 12.4414 12.6602 12.4414 11.9629C12.4414 11.2656 11.8809 10.7051 11.1836 10.7051C10.4863 10.7051 9.92578 11.2656 9.92578 11.9629C9.92578 12.6602 10.4863 13.2207 11.1836 13.2207ZM8.69531 15.7227C9.39258 15.7227 9.95312 15.1621 9.95312 14.4648C9.95312 13.7539 9.39258 13.207 8.69531 13.207C7.99805 13.207 7.4375 13.7539 7.4375 14.4648C7.4375 15.1621 7.99805 15.7227 8.69531 15.7227ZM6.2207 18.2109C6.91797 18.2109 7.47852 17.6504 7.47852 16.9531C7.47852 16.2559 6.91797 15.6953 6.2207 15.6953C5.52344 15.6953 4.96289 16.2559 4.96289 16.9531C4.96289 17.6504 5.52344 18.2109 6.2207 18.2109ZM3.73242 20.7129C4.44336 20.7129 4.99023 20.1523 4.99023 19.4551C4.99023 18.7578 4.44336 18.1973 3.73242 18.1973C3.03516 18.1973 2.47461 18.7578 2.47461 19.4551C2.47461 20.1523 3.03516 20.7129 3.73242 20.7129ZM1.25781 23.2148C1.95508 23.2148 2.51562 22.6543 2.51562 21.957C2.51562 21.2598 1.95508 20.6992 1.25781 20.6992C0.560547 20.6992 0 21.2598 0 21.957C0 22.6543 0.560547 23.2148 1.25781 23.2148Z" fill="white" fill-opacity="0.85"/>
 </g>
</svg>
