<?xml version="1.0" encoding="UTF-8"?>
<!--Generator: Apple Native CoreSVG 326-->
<!DOCTYPE svg
PUBLIC "-//W3C//DTD SVG 1.1//EN"
       "http://www.w3.org/Graphics/SVG/1.1/DTD/svg11.dtd">
<svg version="1.1" xmlns="http://www.w3.org/2000/svg" xmlns:xlink="http://www.w3.org/1999/xlink" viewBox="0 0 24.1035 25.6074">
 <g>
  <rect height="25.6074" opacity="0" width="24.1035" x="0" y="0"/>
  <path d="M0.369141 14.3555L10.9512 25.1973C11.2109 25.4434 11.5254 25.5938 11.8809 25.5938C12.2227 25.5938 12.5508 25.4297 12.7969 25.1836L23.3789 14.3555C23.6113 14.123 23.748 13.8223 23.748 13.4668C23.748 12.7559 23.2148 12.2227 22.5039 12.2227C22.1621 12.2227 21.8477 12.3594 21.6152 12.5781L11.1426 23.2695L12.6055 23.2695L2.13281 12.5781C1.91406 12.3594 1.59961 12.2227 1.24414 12.2227C0.533203 12.2227 0 12.7559 0 13.4668C0 13.8223 0.136719 14.123 0.369141 14.3555Z" fill="white" fill-opacity="0.85"/>
  <path d="M0.369141 2.14648L10.9512 12.9746C11.2109 13.2344 11.5254 13.3711 11.8809 13.3711C12.2227 13.3711 12.5645 13.2207 12.7969 12.9609L23.3789 2.13281C23.6113 1.90039 23.748 1.59961 23.748 1.24414C23.748 0.533203 23.2148 0 22.5039 0C22.1621 0 21.8477 0.136719 21.6152 0.355469L11.1426 11.0605L12.6055 11.0605L2.13281 0.355469C1.91406 0.136719 1.59961 0 1.24414 0C0.533203 0 0 0.533203 0 1.24414C0 1.59961 0.136719 1.90039 0.369141 2.14648Z" fill="white" fill-opacity="0.85"/>
 </g>
</svg>
