<svg version="1.1" xmlns="http://www.w3.org/2000/svg" xmlns:xlink="http://www.w3.org/1999/xlink" viewBox="0 0 33.5408 27.9043">
 <g>
  
  <path d="M16.5995 27.8906C24.2968 27.8906 30.5448 21.6426 30.5448 13.9453C30.5448 6.24805 24.2968 0 16.5995 0C8.90224 0 2.65419 6.24805 2.65419 13.9453L4.97841 13.9453C4.97841 7.51953 10.1737 2.32422 16.5995 2.32422C23.0253 2.32422 28.2206 7.51953 28.2206 13.9453C28.2206 20.3711 23.0253 25.5664 16.5995 25.5664C12.7167 25.5664 9.2577 23.6523 7.19325 20.7539C6.76942 20.1934 6.12684 20.0156 5.55263 20.3574C5.00575 20.6992 4.84169 21.4648 5.30653 22.0664C7.83583 25.6074 11.9784 27.8906 16.5995 27.8906ZM0.972548 11.3066C-0.0118272 11.3066-0.257921 11.9766 0.275282 12.7422L3.33778 17.0898C3.78895 17.7188 4.4452 17.7051 4.8827 17.0898L7.93153 12.7285C8.46474 11.9766 8.20497 11.3066 7.24794 11.3066Z" style="fill:var(--color-0,hsl(0 0 0/0.85))"></path>
  <path d="M16.5995 20.3574C17.0643 20.3574 17.3925 20.0293 17.3925 19.5371L17.3925 15.0664L21.289 8.79102C21.412 8.58594 21.453 8.49023 21.453 8.25781C21.453 7.83398 21.0975 7.54688 20.66 7.54688C20.3729 7.54688 20.1268 7.69727 19.9491 7.98438L16.6405 13.6172L16.5858 13.6172L13.2636 7.98438C13.0995 7.69727 12.8944 7.5332 12.539 7.5332C12.0878 7.5332 11.746 7.82031 11.746 8.25781C11.746 8.42188 11.8007 8.59961 11.9237 8.79102L15.8065 15.0664L15.8065 19.5371C15.8065 20.0293 16.1347 20.3574 16.5995 20.3574ZM12.6757 14.752C12.6757 15.0117 12.8808 15.2168 13.1405 15.2168L20.0995 15.2168C20.3593 15.2168 20.5643 15.0117 20.5643 14.752C20.5643 14.4785 20.3593 14.2871 20.0995 14.2871L13.1405 14.2871C12.8808 14.2871 12.6757 14.4785 12.6757 14.752ZM12.6757 17.1172C12.6757 17.377 12.8808 17.582 13.1405 17.582L20.0995 17.582C20.3593 17.582 20.5643 17.377 20.5643 17.1172C20.5643 16.8574 20.3593 16.6523 20.0995 16.6523L13.1405 16.6523C12.8808 16.6523 12.6757 16.8574 12.6757 17.1172Z" style="fill:var(--color-1,hsl(0 0 0/0.85))"></path>
 </g>
</svg>