<svg version="1.1" xmlns="http://www.w3.org/2000/svg" xmlns:xlink="http://www.w3.org/1999/xlink" viewBox="0 0 36.2031 15.9551">
 <g>
  
  <path d="M27.8906 15.9277C32.2793 15.9277 35.8477 12.3594 35.8477 7.9707C35.8477 3.58203 32.2793 0 27.8906 0C23.4883 0 19.9199 3.58203 19.9199 7.9707C19.9199 12.3594 23.4883 15.9277 27.8906 15.9277ZM27.8906 13.7266C24.6914 13.7266 22.1211 11.1562 22.1211 7.9707C22.1211 4.78516 24.6914 2.20117 27.8906 2.20117C31.0762 2.20117 33.6465 4.78516 33.6465 7.9707C33.6465 11.1562 31.0762 13.7266 27.8906 13.7266Z" style="fill:var(--color-0,hsl(0 0 0/0.85))"></path>
  <path d="M7.95703 15.9277C12.3594 15.9277 15.9277 12.3594 15.9277 7.9707C15.9277 3.58203 12.3594 0 7.95703 0C3.56836 0 0 3.58203 0 7.9707C0 12.3594 3.56836 15.9277 7.95703 15.9277ZM7.95703 13.7266C4.77148 13.7266 2.20117 11.1562 2.20117 7.9707C2.20117 4.78516 4.77148 2.20117 7.95703 2.20117C11.1562 2.20117 13.7266 4.78516 13.7266 7.9707C13.7266 11.1562 11.1562 13.7266 7.95703 13.7266Z" style="fill:var(--color-1,hsl(0 0 0/0.85))"></path>
 </g>
</svg>