<svg version="1.1" xmlns="http://www.w3.org/2000/svg" xmlns:xlink="http://www.w3.org/1999/xlink" viewBox="0 0 28.2461 27.9043">
 <g>
  
  <path d="M13.9453 27.8906C21.6426 27.8906 27.8906 21.6289 27.8906 13.9453C27.8906 6.24805 21.6426 0 13.9453 0C6.26172 0 0 6.24805 0 13.9453C0 21.6289 6.26172 27.8906 13.9453 27.8906Z" style="fill:var(--color-0,hsl(0 0 0/0.85))"></path>
  <path d="M13.9453 8.64062C13.3711 8.64062 12.9473 8.2168 12.9473 7.64258C12.9473 7.06836 13.3711 6.64453 13.9453 6.64453C14.5195 6.64453 14.9434 7.06836 14.9434 7.64258C14.9434 8.2168 14.5195 8.64062 13.9453 8.64062ZM17.1035 9.48828C16.5293 9.48828 16.1055 9.06445 16.1055 8.49023C16.1055 7.90234 16.5293 7.47852 17.1035 7.47852C17.6914 7.47852 18.1016 7.90234 18.1016 8.49023C18.1016 9.06445 17.6914 9.48828 17.1035 9.48828ZM19.4141 11.7988C18.8398 11.7988 18.416 11.375 18.416 10.8008C18.416 10.2266 18.8398 9.80273 19.4141 9.80273C20.002 9.80273 20.4258 10.2266 20.4258 10.8008C20.4258 11.375 20.002 11.7988 19.4141 11.7988ZM20.2617 14.957C19.6875 14.957 19.2637 14.5332 19.2637 13.959C19.2637 13.3848 19.6875 12.9609 20.2617 12.9609C20.8359 12.9609 21.2598 13.3848 21.2598 13.959C21.2598 14.5332 20.8359 14.957 20.2617 14.957ZM19.4141 18.1289C18.8398 18.1289 18.416 17.7051 18.416 17.1309C18.416 16.543 18.8398 16.1191 19.4141 16.1191C20.002 16.1191 20.4258 16.543 20.4258 17.1309C20.4258 17.7051 20.002 18.1289 19.4141 18.1289ZM17.1035 20.4395C16.5293 20.4395 16.1055 20.0156 16.1055 19.4277C16.1055 18.8535 16.5293 18.4297 17.1035 18.4297C17.6914 18.4297 18.1016 18.8535 18.1016 19.4277C18.1016 20.0156 17.6914 20.4395 17.1035 20.4395ZM13.9453 21.2734C13.3711 21.2734 12.9473 20.8496 12.9473 20.2754C12.9473 19.7012 13.3711 19.2773 13.9453 19.2773C14.5195 19.2773 14.9434 19.7012 14.9434 20.2754C14.9434 20.8496 14.5195 21.2734 13.9453 21.2734ZM10.7871 20.4395C10.2129 20.4395 9.78906 20.0156 9.78906 19.4277C9.78906 18.8535 10.2129 18.4297 10.7871 18.4297C11.3613 18.4297 11.7852 18.8535 11.7852 19.4277C11.7852 20.0156 11.3613 20.4395 10.7871 20.4395ZM8.47656 18.1289C7.88867 18.1289 7.46484 17.7051 7.46484 17.1309C7.46484 16.543 7.88867 16.1191 8.47656 16.1191C9.05078 16.1191 9.47461 16.543 9.47461 17.1309C9.47461 17.7051 9.05078 18.1289 8.47656 18.1289ZM7.62891 14.957C7.05469 14.957 6.63086 14.5332 6.63086 13.959C6.63086 13.3848 7.05469 12.9609 7.62891 12.9609C8.20312 12.9609 8.62695 13.3848 8.62695 13.959C8.62695 14.5332 8.20312 14.957 7.62891 14.957ZM8.47656 11.7988C7.88867 11.7988 7.46484 11.375 7.46484 10.8008C7.46484 10.2266 7.88867 9.80273 8.47656 9.80273C9.05078 9.80273 9.47461 10.2266 9.47461 10.8008C9.47461 11.375 9.05078 11.7988 8.47656 11.7988ZM10.7871 9.48828C10.2129 9.48828 9.78906 9.06445 9.78906 8.49023C9.78906 7.90234 10.2129 7.47852 10.7871 7.47852C11.3613 7.47852 11.7852 7.90234 11.7852 8.49023C11.7852 9.06445 11.3613 9.48828 10.7871 9.48828Z" style="fill:var(--color-1,white)"></path>
 </g>
</svg>