<svg version="1.1" xmlns="http://www.w3.org/2000/svg" xmlns:xlink="http://www.w3.org/1999/xlink" viewBox="0 0 28.2461 27.9043">
 <g>
  
  <path d="M13.9453 27.8906C21.6426 27.8906 27.8906 21.6289 27.8906 13.9453C27.8906 6.24805 21.6426 0 13.9453 0C6.26172 0 0 6.24805 0 13.9453C0 21.6289 6.26172 27.8906 13.9453 27.8906Z" style="fill:var(--color-0,hsl(0 0 0/0.85))"></path>
  <path d="M9.03711 11.2793C7.95703 11.2793 7.08203 10.418 7.08203 9.33789C7.08203 8.25781 7.95703 7.38281 9.03711 7.38281C10.1035 7.38281 10.9785 8.25781 10.9785 9.33789C10.9785 10.418 10.1035 11.2793 9.03711 11.2793ZM13.9453 11.2793C12.8652 11.2793 12.0039 10.418 12.0039 9.33789C12.0039 8.25781 12.8652 7.39648 13.9453 7.39648C15.0254 7.39648 15.8867 8.25781 15.8867 9.33789C15.8867 10.418 15.0254 11.2793 13.9453 11.2793ZM18.8672 11.293C17.7871 11.293 16.9121 10.418 16.9121 9.33789C16.9121 8.25781 17.7871 7.39648 18.8672 7.39648C19.9473 7.39648 20.8086 8.25781 20.8086 9.33789C20.8086 10.418 19.9473 11.293 18.8672 11.293ZM9.03711 15.8867C7.95703 15.8867 7.08203 15.0117 7.08203 13.9453C7.08203 12.8652 7.95703 11.9902 9.03711 11.9902C10.1035 11.9902 10.9785 12.8652 10.9785 13.9453C10.9785 15.0117 10.1035 15.8867 9.03711 15.8867ZM13.9453 15.8867C12.8652 15.8867 12.0039 15.0254 12.0039 13.9453C12.0039 12.8652 12.8652 11.9902 13.9453 11.9902C15.0254 11.9902 15.8867 12.8652 15.8867 13.9453C15.8867 15.0254 15.0254 15.8867 13.9453 15.8867ZM18.8672 15.9004C17.7871 15.9004 16.9121 15.0254 16.9121 13.9453C16.9121 12.8652 17.7871 12.0039 18.8672 12.0039C19.9473 12.0039 20.8086 12.8652 20.8086 13.9453C20.8086 15.0254 19.9473 15.9004 18.8672 15.9004ZM9.03711 20.4805C7.95703 20.4805 7.08203 19.6055 7.08203 18.5254C7.08203 17.4453 7.95703 16.584 9.03711 16.584C10.1035 16.584 10.9785 17.4453 10.9785 18.5254C10.9785 19.6055 10.1035 20.4805 9.03711 20.4805ZM13.9453 20.4805C12.8652 20.4805 12.0039 19.6055 12.0039 18.5254C12.0039 17.459 12.8652 16.584 13.9453 16.584C15.0254 16.584 15.8867 17.459 15.8867 18.5254C15.8867 19.6055 15.0254 20.4805 13.9453 20.4805ZM18.8672 20.4805C17.7871 20.4805 16.9121 19.6191 16.9121 18.5391C16.9121 17.459 17.7871 16.584 18.8672 16.584C19.9473 16.584 20.8086 17.459 20.8086 18.5391C20.8086 19.6191 19.9473 20.4805 18.8672 20.4805Z" style="fill:var(--color-1,white)"></path>
 </g>
</svg>