<svg version="1.1" xmlns="http://www.w3.org/2000/svg" xmlns:xlink="http://www.w3.org/1999/xlink" viewBox="0 0 38.9102 27.9043">
 <g>
  
  <path d="M15.0938 26.6191C15.0938 27.2617 14.5605 27.7949 13.918 27.7949C13.2754 27.7949 12.7422 27.2617 12.7422 26.6191C12.7422 25.9766 13.2754 25.4434 13.918 25.4434C14.5605 25.4434 15.0938 25.9766 15.0938 26.6191ZM18.8112 26.6148C18.6006 26.9371 18.2364 27.1523 17.8281 27.1523C17.1855 27.1523 16.6523 26.6191 16.6523 25.9766C16.6523 25.7972 16.6939 25.6263 16.769 25.4738C17.41 25.9139 18.091 26.2997 18.8112 26.6148ZM11.1836 25.9766C11.1836 26.6191 10.6504 27.1523 10.0078 27.1523C9.35156 27.1523 8.83203 26.6191 8.83203 25.9766C8.83203 25.334 9.35156 24.8008 10.0078 24.8008C10.6504 24.8008 11.1836 25.334 11.1836 25.9766ZM7.62891 24.1855C7.62891 24.8281 7.0957 25.3613 6.45312 25.3613C5.79688 25.3613 5.27734 24.8281 5.27734 24.1855C5.27734 23.543 5.79688 23.0098 6.45312 23.0098C7.0957 23.0098 7.62891 23.543 7.62891 24.1855ZM22.5586 24.1855C22.5586 24.6427 22.2887 25.0445 21.901 25.2372C21.3667 25.1227 20.8512 24.9602 20.3574 24.7546C20.2616 24.5856 20.207 24.3912 20.207 24.1855C20.207 23.543 20.7402 23.0098 21.3828 23.0098C22.0254 23.0098 22.5586 23.543 22.5586 24.1855ZM25.3613 21.3828C25.3613 22.0254 24.8281 22.5586 24.1855 22.5586C23.543 22.5586 23.0098 22.0254 23.0098 21.3828C23.0098 20.7402 23.543 20.207 24.1855 20.207C24.8281 20.207 25.3613 20.7402 25.3613 21.3828ZM4.8125 21.3828C4.8125 22.0254 4.2793 22.5586 3.63672 22.5586C2.99414 22.5586 2.46094 22.0254 2.46094 21.3828C2.46094 20.7402 2.99414 20.207 3.63672 20.207C4.2793 20.207 4.8125 20.7402 4.8125 21.3828ZM27.1523 17.8691C27.1523 18.5117 26.6191 19.0449 25.9766 19.0449C25.334 19.0449 24.8008 18.5117 24.8008 17.8691C24.8008 17.2266 25.334 16.6934 25.9766 16.6934C26.6191 16.6934 27.1523 17.2266 27.1523 17.8691ZM3.02148 17.8691C3.02148 18.5117 2.48828 19.0449 1.8457 19.0449C1.20312 19.0449 0.669922 18.5117 0.669922 17.8691C0.669922 17.2266 1.20312 16.6934 1.8457 16.6934C2.48828 16.6934 3.02148 17.2266 3.02148 17.8691ZM27.8223 13.9453C27.8223 14.5879 27.2891 15.1211 26.6465 15.1211C26.0039 15.1211 25.4707 14.5879 25.4707 13.9453C25.4707 13.3027 26.0039 12.7695 26.6465 12.7695C27.2891 12.7695 27.8223 13.3027 27.8223 13.9453ZM2.35156 13.9453C2.35156 14.5879 1.81836 15.1211 1.17578 15.1211C0.533203 15.1211 0 14.5879 0 13.9453C0 13.3027 0.533203 12.7695 1.17578 12.7695C1.81836 12.7695 2.35156 13.3027 2.35156 13.9453ZM27.1523 10.0215C27.1523 10.6641 26.6191 11.1973 25.9766 11.1973C25.334 11.1973 24.8008 10.6641 24.8008 10.0215C24.8008 9.37891 25.334 8.8457 25.9766 8.8457C26.6191 8.8457 27.1523 9.37891 27.1523 10.0215ZM3.02148 10.0215C3.02148 10.6641 2.48828 11.1973 1.8457 11.1973C1.20312 11.1973 0.669922 10.6641 0.669922 10.0215C0.669922 9.37891 1.20312 8.8457 1.8457 8.8457C2.48828 8.8457 3.02148 9.37891 3.02148 10.0215ZM25.3613 6.52148C25.3613 7.16406 24.8281 7.69727 24.1855 7.69727C23.543 7.69727 23.0098 7.16406 23.0098 6.52148C23.0098 5.87891 23.543 5.3457 24.1855 5.3457C24.8281 5.3457 25.3613 5.87891 25.3613 6.52148ZM4.8125 6.52148C4.8125 7.16406 4.2793 7.69727 3.63672 7.69727C2.99414 7.69727 2.46094 7.16406 2.46094 6.52148C2.46094 5.87891 2.99414 5.3457 3.63672 5.3457C4.2793 5.3457 4.8125 5.87891 4.8125 6.52148ZM22.5586 3.70508C22.5586 4.34766 22.0254 4.88086 21.3828 4.88086C20.7402 4.88086 20.207 4.34766 20.207 3.70508C20.207 3.49944 20.2616 3.30501 20.3574 3.13598C20.8512 2.93042 21.3667 2.76794 21.901 2.65347C22.2887 2.84616 22.5586 3.24794 22.5586 3.70508ZM7.62891 3.70508C7.62891 4.34766 7.0957 4.88086 6.45312 4.88086C5.79688 4.88086 5.27734 4.34766 5.27734 3.70508C5.27734 3.0625 5.79688 2.5293 6.45312 2.5293C7.0957 2.5293 7.62891 3.0625 7.62891 3.70508ZM11.1836 1.91406C11.1836 2.55664 10.6504 3.08984 10.0078 3.08984C9.35156 3.08984 8.83203 2.55664 8.83203 1.91406C8.83203 1.27148 9.35156 0.738281 10.0078 0.738281C10.6504 0.738281 11.1836 1.27148 11.1836 1.91406ZM15.0938 1.27148C15.0938 1.91406 14.5605 2.44727 13.918 2.44727C13.2754 2.44727 12.7422 1.91406 12.7422 1.27148C12.7422 0.628906 13.2754 0.0957031 13.918 0.0957031C14.5605 0.0957031 15.0938 0.628906 15.0938 1.27148ZM18.8112 1.2758C18.091 1.59091 17.41 1.97668 16.769 2.41679C16.6939 2.26433 16.6523 2.09346 16.6523 1.91406C16.6523 1.27148 17.1855 0.738281 17.8281 0.738281C18.2364 0.738281 18.6006 0.953558 18.8112 1.2758Z" style="fill:var(--color-0,hsl(0 0 0/0.85))"></path>
  <path d="M24.6094 27.8906C32.3066 27.8906 38.5547 21.6426 38.5547 13.9453C38.5547 6.24805 32.3066 0 24.6094 0C16.9121 0 10.6641 6.24805 10.6641 13.9453C10.6641 21.6426 16.9121 27.8906 24.6094 27.8906ZM24.6094 25.5664C18.1836 25.5664 12.9883 20.3711 12.9883 13.9453C12.9883 7.51953 18.1836 2.32422 24.6094 2.32422C31.0352 2.32422 36.2305 7.51953 36.2305 13.9453C36.2305 20.3711 31.0352 25.5664 24.6094 25.5664Z" style="fill:var(--color-1,hsl(0 0 0/0.85))"></path>
 </g>
</svg>