<svg version="1.1" xmlns="http://www.w3.org/2000/svg" xmlns:xlink="http://www.w3.org/1999/xlink" viewBox="0 0 32.5938 25.1973">
 <g>
  
  <path d="M4.29297 25.1973L27.9453 25.1973C30.8164 25.1973 32.2383 23.7754 32.2383 20.959L32.2383 4.26562C32.2383 1.44922 30.8164 0.0273438 27.9453 0.0273438L4.29297 0.0273438C1.43555 0.0273438 0 1.43555 0 4.26562L0 20.959C0 23.7891 1.43555 25.1973 4.29297 25.1973ZM4.32031 22.9961C2.95312 22.9961 2.20117 22.2715 2.20117 20.8496L2.20117 4.375C2.20117 2.95312 2.95312 2.22852 4.32031 2.22852L27.918 2.22852C29.2715 2.22852 30.0371 2.95312 30.0371 4.375L30.0371 20.8496C30.0371 22.2715 29.2715 22.9961 27.918 22.9961Z" style="fill:var(--color-0,hsl(0 0 0/0.85))"></path>
  <path d="M16.1191 19.3867C19.8516 19.3867 22.9141 16.3516 22.9141 12.5918C22.9141 8.85938 19.8516 5.82422 16.1191 5.82422C12.3867 5.82422 9.33789 8.85938 9.33789 12.5918C9.33789 16.3516 12.3867 19.3867 16.1191 19.3867Z" style="fill:var(--color-1,hsl(0 0 0/0.85))"></path>
 </g>
</svg>