<svg version="1.1" xmlns="http://www.w3.org/2000/svg" xmlns:xlink="http://www.w3.org/1999/xlink" viewBox="0 0 28.2461 27.9043">
 <g>
  
  <path d="M1.43555 13.9453C1.43555 20.9727 6.91797 26.4414 13.9316 26.4414L13.9316 1.43555C6.91797 1.43555 1.43555 6.91797 1.43555 13.9453ZM13.2344 2.83008L18.1016 2.83008L18.1016 1.03906L13.2344 1.03906ZM13.2344 5.76953L23.1328 5.76953L23.1328 4.25195L13.2344 4.25195ZM13.2344 8.69531L25.0879 8.69531L25.0879 7.17773L13.2344 7.17773ZM13.2344 11.6348L26.5508 11.6348L26.5508 10.1172L13.2344 10.1172ZM13.2344 14.5605L26.5508 14.5605L26.5508 13.043L13.2344 13.043ZM13.2344 17.5L26.5508 17.5L26.5508 15.9824L13.2344 15.9824ZM13.2344 20.4395L25.0879 20.4395L25.0879 18.9219L13.2344 18.9219ZM13.2344 23.6387L23.1328 23.6387L23.1328 21.8477L13.2344 21.8477ZM13.2344 26.8516L18.1016 26.8516L18.1016 25.0605L13.2344 25.0605ZM13.9453 27.8906C21.6426 27.8906 27.8906 21.6426 27.8906 13.9453C27.8906 6.24805 21.6426 0 13.9453 0C6.24805 0 0 6.24805 0 13.9453C0 21.6426 6.24805 27.8906 13.9453 27.8906ZM13.9453 25.5664C7.51953 25.5664 2.32422 20.3711 2.32422 13.9453C2.32422 7.51953 7.51953 2.32422 13.9453 2.32422C20.3711 2.32422 25.5664 7.51953 25.5664 13.9453C25.5664 20.3711 20.3711 25.5664 13.9453 25.5664Z" style="fill:var(--color-0,hsl(0 0 0/0.85))"></path>
 </g>
</svg>