<svg version="1.1" xmlns="http://www.w3.org/2000/svg" xmlns:xlink="http://www.w3.org/1999/xlink" viewBox="0 0 29.5723 27.1113">
 <g>
  
  <path d="M19.6328 27.1113C22.1621 27.1113 24.1992 25.0605 24.1992 22.5449C24.1992 20.0156 22.1621 17.9648 19.6328 17.9648C17.1035 17.9648 15.0664 20.0156 15.0664 22.5449C15.0664 25.0605 17.1035 27.1113 19.6328 27.1113ZM19.6328 24.9102C18.334 24.9102 17.2676 23.8438 17.2676 22.5449C17.2676 21.2324 18.334 20.166 19.6328 20.166C20.9453 20.166 21.998 21.2324 21.998 22.5449C21.998 23.8438 20.9453 24.9102 19.6328 24.9102Z" style="fill:var(--color-0,hsl(0 0 0/0.85))"></path>
  <path d="M9.58398 27.1113C12.1133 27.1113 14.1504 25.0605 14.1504 22.5449C14.1504 20.0156 12.1133 17.9648 9.58398 17.9648C7.05469 17.9648 5.01758 20.0156 5.01758 22.5449C5.01758 25.0605 7.05469 27.1113 9.58398 27.1113ZM9.58398 24.9102C8.28516 24.9102 7.21875 23.8438 7.21875 22.5449C7.21875 21.2324 8.28516 20.166 9.58398 20.166C10.8828 20.166 11.9492 21.2324 11.9492 22.5449C11.9492 23.8438 10.8828 24.9102 9.58398 24.9102Z" style="fill:var(--color-1,hsl(0 0 0/0.85))"></path>
  <path d="M24.6504 18.1152C27.1797 18.1152 29.2168 16.0781 29.2168 13.5488C29.2168 11.0195 27.1797 8.98242 24.6504 8.98242C22.1211 8.98242 20.0703 11.0195 20.0703 13.5488C20.0703 16.0781 22.1211 18.1152 24.6504 18.1152ZM24.6504 15.9141C23.3379 15.9141 22.2715 14.8477 22.2715 13.5488C22.2715 12.2363 23.3379 11.1836 24.6504 11.1836C25.9492 11.1836 27.0156 12.2363 27.0156 13.5488C27.0156 14.8477 25.9492 15.9141 24.6504 15.9141Z" style="fill:var(--color-2,hsl(0 0 0/0.85))"></path>
  <path d="M4.56641 18.1152C7.0957 18.1152 9.14648 16.0781 9.14648 13.5488C9.14648 11.0195 7.0957 8.98242 4.56641 8.98242C2.05078 8.98242 0 11.0195 0 13.5488C0 16.0781 2.05078 18.1152 4.56641 18.1152ZM4.56641 15.9141C3.26758 15.9141 2.20117 14.8477 2.20117 13.5488C2.20117 12.2363 3.26758 11.1836 4.56641 11.1836C5.87891 11.1836 6.94531 12.2363 6.94531 13.5488C6.94531 14.8477 5.87891 15.9141 4.56641 15.9141Z" style="fill:var(--color-3,hsl(0 0 0/0.85))"></path>
  <path d="M19.6328 9.13281C22.1621 9.13281 24.1992 7.0957 24.1992 4.56641C24.1992 2.03711 22.1621 0 19.6328 0C17.1035 0 15.0664 2.03711 15.0664 4.56641C15.0664 7.0957 17.1035 9.13281 19.6328 9.13281ZM19.6328 6.93164C18.334 6.93164 17.2676 5.87891 17.2676 4.56641C17.2676 3.26758 18.334 2.20117 19.6328 2.20117C20.9453 2.20117 21.998 3.26758 21.998 4.56641C21.998 5.87891 20.9453 6.93164 19.6328 6.93164Z" style="fill:var(--color-4,hsl(0 0 0/0.85))"></path>
  <path d="M9.58398 9.13281C12.1133 9.13281 14.1504 7.0957 14.1504 4.56641C14.1504 2.03711 12.1133 0 9.58398 0C7.05469 0 5.01758 2.03711 5.01758 4.56641C5.01758 7.0957 7.05469 9.13281 9.58398 9.13281ZM9.58398 6.93164C8.28516 6.93164 7.21875 5.87891 7.21875 4.56641C7.21875 3.26758 8.28516 2.20117 9.58398 2.20117C10.8828 2.20117 11.9492 3.26758 11.9492 4.56641C11.9492 5.87891 10.8828 6.93164 9.58398 6.93164Z" style="fill:var(--color-5,hsl(0 0 0/0.85))"></path>
  <path d="M14.6152 18.1152C17.1309 18.1152 19.1816 16.0781 19.1816 13.5488C19.1816 11.0195 17.1309 8.98242 14.6152 8.98242C12.0859 8.98242 10.0352 11.0195 10.0352 13.5488C10.0352 16.0781 12.0859 18.1152 14.6152 18.1152ZM14.6152 15.9141C13.3027 15.9141 12.2363 14.8477 12.2363 13.5488C12.2363 12.2363 13.3027 11.1836 14.6152 11.1836C15.9141 11.1836 16.9805 12.2363 16.9805 13.5488C16.9805 14.8477 15.9141 15.9141 14.6152 15.9141Z" style="fill:var(--color-6,hsl(0 0 0/0.85))"></path>
 </g>
</svg>