<?xml version="1.0" encoding="UTF-8"?>
<!--Generator: Apple Native CoreSVG 326-->
<!DOCTYPE svg
PUBLIC "-//W3C//DTD SVG 1.1//EN"
       "http://www.w3.org/Graphics/SVG/1.1/DTD/svg11.dtd">
<svg version="1.1" xmlns="http://www.w3.org/2000/svg" xmlns:xlink="http://www.w3.org/1999/xlink" viewBox="0 0 27.3164 26.0176">
 <g>
  <rect height="26.0176" opacity="0" width="27.3164" x="0" y="0"/>
  <path d="M21 26.0039C24.2949 26.0039 26.9609 23.3379 26.9609 20.043C26.9609 16.748 24.2949 14.082 21 14.082C17.7051 14.082 15.0391 16.748 15.0391 20.043C15.0391 23.3379 17.7051 26.0039 21 26.0039Z" fill="white" fill-opacity="0.85"/>
  <path d="M5.96094 26.0039C9.25586 26.0039 11.9219 23.3379 11.9219 20.043C11.9219 16.748 9.25586 14.082 5.96094 14.082C2.66602 14.082 0 16.748 0 20.043C0 23.3379 2.66602 26.0039 5.96094 26.0039Z" fill="white" fill-opacity="0.85"/>
  <path d="M21 11.9219C24.2949 11.9219 26.9609 9.25586 26.9609 5.96094C26.9609 2.66602 24.2949 0 21 0C17.7051 0 15.0391 2.66602 15.0391 5.96094C15.0391 9.25586 17.7051 11.9219 21 11.9219Z" fill="white" fill-opacity="0.85"/>
  <path d="M5.96094 11.9219C9.25586 11.9219 11.9219 9.25586 11.9219 5.96094C11.9219 2.66602 9.25586 0 5.96094 0C2.66602 0 0 2.66602 0 5.96094C0 9.25586 2.66602 11.9219 5.96094 11.9219Z" fill="white" fill-opacity="0.85"/>
 </g>
</svg>
