<svg version="1.1" xmlns="http://www.w3.org/2000/svg" xmlns:xlink="http://www.w3.org/1999/xlink" viewBox="0 0 28.2461 27.9043">
 <g>
  
  <path d="M13.9316 0.683594L13.9316 1.85938L17.3496 1.85938C16.2422 1.39453 15.0938 0.998047 13.9316 0.683594ZM13.9316 2.83008L13.9316 4.25195L20.9863 4.25195C20.8086 3.74609 20.6035 3.26758 20.3848 2.83008ZM13.9316 5.76953L13.9316 7.17773L24.0488 7.17773C23.9531 6.69922 23.8438 6.2207 23.7207 5.76953ZM13.9316 8.69531L13.9316 10.1172L26.1953 10.1172C26.1543 9.63867 26.0996 9.16016 26.0312 8.69531ZM13.9316 11.6348L13.9316 13.043L26.291 13.043C26.2773 12.5781 26.2637 12.0996 26.2363 11.6348ZM13.9316 14.5605L13.9316 15.9824L26.2363 15.9824C26.2637 15.5176 26.2773 15.0391 26.291 14.5605ZM13.9316 17.5L13.9316 18.9219L26.0312 18.9219C26.0996 18.4434 26.1543 17.9785 26.1953 17.5ZM13.9316 20.4395L13.9316 21.8477L23.7207 21.8477C23.8438 21.3965 23.9531 20.918 24.0488 20.4395ZM13.9316 23.6387L13.9316 25.0605L20.3848 25.0605C20.6035 24.6094 20.8086 24.1445 20.9863 23.6387ZM13.9316 26.0312L13.9316 27.1934C15.0938 26.8789 16.2422 26.4961 17.3496 26.0312ZM13.9453 27.8906C21.6426 27.8906 27.8906 21.6426 27.8906 13.9453C27.8906 6.24805 21.6426 0 13.9453 0C6.24805 0 0 6.24805 0 13.9453C0 21.6426 6.24805 27.8906 13.9453 27.8906ZM13.9453 25.5664C7.51953 25.5664 2.32422 20.3711 2.32422 13.9453C2.32422 7.51953 7.51953 2.32422 13.9453 2.32422C20.3711 2.32422 25.5664 7.51953 25.5664 13.9453C25.5664 20.3711 20.3711 25.5664 13.9453 25.5664Z" style="fill:var(--color-0,hsl(0 0 0/0.85))"></path>
 </g>
</svg>