<?xml version="1.0" encoding="UTF-8"?>
<!--Generator: Apple Native CoreSVG 326-->
<!DOCTYPE svg
PUBLIC "-//W3C//DTD SVG 1.1//EN"
       "http://www.w3.org/Graphics/SVG/1.1/DTD/svg11.dtd">
<svg version="1.1" xmlns="http://www.w3.org/2000/svg" xmlns:xlink="http://www.w3.org/1999/xlink" viewBox="0 0 30.7583 30.4063">
 <g>
  <rect height="30.4063" opacity="0" width="30.7583" x="0" y="0"/>
  <path d="M22.9941 26.7571C20.7685 28.2619 18.0883 29.1416 15.2083 29.1416C7.51099 29.1416 1.26295 22.8799 1.26295 15.1963C1.26295 12.3145 2.13873 9.63589 3.63896 7.41257ZM29.1536 15.1963C29.1536 18.0873 28.2671 20.7769 26.7511 23.0067L7.39322 3.64886C9.62239 2.13513 12.3128 1.25101 15.2083 1.25101C22.8919 1.25101 29.1536 7.49906 29.1536 15.1963Z" fill="white" fill-opacity="0.85"/>
  <path d="M26.9797 28.4991C27.3899 28.9092 28.0735 28.8955 28.47 28.4854C28.8801 28.0616 28.8801 27.4053 28.47 26.9952L3.39576 1.90726C2.9856 1.4971 2.31568 1.4971 1.89185 1.90726C1.49537 2.30374 1.49537 3.00101 1.89185 3.39749Z" fill="white" fill-opacity="0.85"/>
 </g>
</svg>
