<?xml version="1.0" encoding="UTF-8"?>
<!--Generator: Apple Native CoreSVG 326-->
<!DOCTYPE svg
PUBLIC "-//W3C//DTD SVG 1.1//EN"
       "http://www.w3.org/Graphics/SVG/1.1/DTD/svg11.dtd">
<svg version="1.1" xmlns="http://www.w3.org/2000/svg" xmlns:xlink="http://www.w3.org/1999/xlink" viewBox="0 0 28.2461 27.9043">
 <g>
  <rect height="27.9043" opacity="0" width="28.2461" x="0" y="0"/>
  <path d="M19.4961 17.6504L19.4961 19.5098ZM21.3418 6.54883L21.3418 8.39453L23.2012 8.39453L23.2012 6.54883ZM19.4961 8.39453L19.4961 10.2402L21.3418 10.2402L21.3418 8.39453ZM17.6367 10.2402L17.6367 12.0996L19.4961 12.0996L19.4961 10.2402ZM15.791 12.0996L15.791 13.9453L17.6367 13.9453L17.6367 12.0996ZM13.9453 13.9453L13.9453 15.8047L15.791 15.8047L15.791 13.9453ZM12.0859 15.8047L12.0859 17.6504L13.9453 17.6504L13.9453 15.8047ZM10.2402 17.6504L10.2402 19.5098L12.0859 19.5098L12.0859 17.6504ZM8.38086 19.5098L8.38086 21.3555L10.2402 21.3555L10.2402 19.5098ZM6.53516 21.3555L6.53516 23.2148L8.38086 23.2148L8.38086 21.3555ZM8.38086 24.7734L8.73633 25.0605L10.2402 25.0605L10.2402 23.2148L8.38086 23.2148ZM10.2402 21.3555L10.2402 23.2148L12.0859 23.2148L12.0859 21.3555ZM12.0859 19.5098L12.0859 21.3555L13.9453 21.3555L13.9453 19.5098ZM13.9453 17.6504L13.9453 19.5098L15.791 19.5098L15.791 17.6504ZM15.791 15.8047L15.791 17.6504L17.6367 17.6504L17.6367 15.8047ZM17.6367 13.9453L17.6367 15.8047L19.4961 15.8047L19.4961 13.9453ZM19.4961 12.0996L19.4961 13.9453L21.3418 13.9453L21.3418 12.0996ZM21.3418 10.2402L21.3418 12.0996L23.2012 12.0996L23.2012 10.2402ZM25.0469 10.2129L25.0469 12.0996L26.6328 12.0996L26.6328 10.2129ZM23.2012 12.0996L23.2012 13.9453L25.0469 13.9453L25.0469 12.0996ZM21.3418 13.9453L21.3418 15.8047L23.2012 15.8047L23.2012 13.9453ZM19.4961 15.8047L19.4961 17.6504L21.3418 17.6504L21.3418 15.8047ZM17.6367 17.6504L17.6367 19.5098L19.4961 19.5098L19.4961 17.6504ZM15.791 19.5098L15.791 21.3555L17.6367 21.3555L17.6367 19.5098ZM13.9453 21.3555L13.9453 23.2148L15.791 23.2148L15.791 21.3555ZM12.0859 23.2148L12.0859 25.0605L13.9453 25.0605L13.9453 23.2148ZM10.1992 25.0605L10.1992 26.6328L12.0859 26.6328L12.0859 25.0605ZM13.9453 25.0605L13.9453 26.7148L15.791 26.7148L15.791 25.0605ZM15.791 23.2148L15.791 25.0605L17.6367 25.0605L17.6367 23.2148ZM17.6367 21.3555L17.6367 23.2148L19.4961 23.2148L19.4961 21.3555ZM19.4961 19.5098L19.4961 21.3555L21.3418 21.3555L21.3418 19.5098ZM21.3418 17.6504L21.3418 19.5098L23.2012 19.5098L23.2012 17.6504ZM23.2012 15.8047L23.2012 17.6504L25.0469 17.6504L25.0469 15.8047ZM25.0469 13.9453L25.0469 15.8047L26.7012 15.8047L26.7012 13.9453ZM23.2012 19.5098L23.2012 21.3555L24.7051 21.3555L24.9922 19.5098ZM21.3418 21.3555L21.3418 23.2148L22.9141 23.2148L23.2012 22.9414L23.2012 21.3555ZM19.4961 23.2148L19.4961 25.0059L21.3418 24.7324L21.3418 23.2148ZM25.0469 8.88672L24.5957 8.39453L23.2012 8.39453L23.2012 10.2402L25.0469 10.2402ZM13.9453 27.8906C21.6426 27.8906 27.8906 21.6426 27.8906 13.9453C27.8906 6.24805 21.6426 0 13.9453 0C6.24805 0 0 6.24805 0 13.9453C0 21.6426 6.24805 27.8906 13.9453 27.8906ZM13.9453 25.5664C7.51953 25.5664 2.32422 20.3711 2.32422 13.9453C2.32422 7.51953 7.51953 2.32422 13.9453 2.32422C20.3711 2.32422 25.5664 7.51953 25.5664 13.9453C25.5664 20.3711 20.3711 25.5664 13.9453 25.5664Z" fill="white" fill-opacity="0.85"/>
 </g>
</svg>
