<?xml version="1.0" encoding="UTF-8"?>
<!--Generator: Apple Native CoreSVG 326-->
<!DOCTYPE svg
PUBLIC "-//W3C//DTD SVG 1.1//EN"
       "http://www.w3.org/Graphics/SVG/1.1/DTD/svg11.dtd">
<svg version="1.1" xmlns="http://www.w3.org/2000/svg" xmlns:xlink="http://www.w3.org/1999/xlink" viewBox="0 0 28.2461 27.9043">
 <g>
  <rect height="27.9043" opacity="0" width="28.2461" x="0" y="0"/>
  <path d="M13.959 0.683594C12.7969 0.998047 11.6484 1.39453 10.541 1.85938L13.959 1.85938ZM13.959 2.83008L7.50586 2.83008C7.28711 3.26758 7.08203 3.74609 6.9043 4.25195L13.959 4.25195ZM13.959 5.76953L4.16992 5.76953C4.04688 6.2207 3.9375 6.69922 3.8418 7.17773L13.959 7.17773ZM13.959 8.69531L1.85938 8.69531C1.79102 9.16016 1.73633 9.63867 1.69531 10.1172L13.959 10.1172ZM13.959 11.6348L1.6543 11.6348C1.62695 12.0996 1.61328 12.5781 1.59961 13.043L13.959 13.043ZM13.959 14.5605L1.59961 14.5605C1.61328 15.0391 1.62695 15.5176 1.6543 15.9824L13.959 15.9824ZM13.959 17.5L1.69531 17.5C1.73633 17.9785 1.79102 18.4434 1.85938 18.9219L13.959 18.9219ZM13.959 20.4395L3.8418 20.4395C3.9375 20.918 4.04688 21.3965 4.16992 21.8477L13.959 21.8477ZM13.959 23.6387L6.9043 23.6387C7.08203 24.1445 7.28711 24.6094 7.50586 25.0605L13.959 25.0605ZM13.959 26.0312L10.541 26.0312C11.6484 26.4961 12.7969 26.8789 13.959 27.1934ZM13.9453 27.8906C21.6426 27.8906 27.8906 21.6426 27.8906 13.9453C27.8906 6.24805 21.6426 0 13.9453 0C6.24805 0 0 6.24805 0 13.9453C0 21.6426 6.24805 27.8906 13.9453 27.8906ZM13.9453 25.5664C7.51953 25.5664 2.32422 20.3711 2.32422 13.9453C2.32422 7.51953 7.51953 2.32422 13.9453 2.32422C20.3711 2.32422 25.5664 7.51953 25.5664 13.9453C25.5664 20.3711 20.3711 25.5664 13.9453 25.5664Z" fill="white" fill-opacity="0.85"/>
 </g>
</svg>
