<?xml version="1.0" encoding="UTF-8"?>
<!--Generator: Apple Native CoreSVG 326-->
<!DOCTYPE svg
PUBLIC "-//W3C//DTD SVG 1.1//EN"
       "http://www.w3.org/Graphics/SVG/1.1/DTD/svg11.dtd">
<svg version="1.1" xmlns="http://www.w3.org/2000/svg" xmlns:xlink="http://www.w3.org/1999/xlink" viewBox="0 0 30.7583 30.4063">
 <g>
  <rect height="30.4063" opacity="0" width="30.7583" x="0" y="0"/>
  <path d="M5.32545 9.09813C4.21901 10.8642 3.58717 12.9554 3.58717 15.1963C3.58717 21.6221 8.78248 26.8174 15.2083 26.8174C17.4514 26.8174 19.5447 26.1843 21.3119 25.0758L22.9986 26.7616C20.7738 28.2642 18.0928 29.1416 15.2083 29.1416C7.51099 29.1416 1.26295 22.8936 1.26295 15.1963C1.26295 12.3145 2.13873 9.63589 3.63896 7.41257ZM29.1536 15.1963C29.1536 18.0918 28.2695 20.7822 26.7557 23.0114L25.0714 21.327C26.1898 19.5539 26.8294 17.4508 26.8294 15.1963C26.8294 8.77054 21.634 3.57523 15.2083 3.57523C12.9537 3.57523 10.8507 4.21477 9.07759 5.33323L7.39322 3.64886C9.62239 2.13513 12.3128 1.25101 15.2083 1.25101C22.9055 1.25101 29.1536 7.49906 29.1536 15.1963Z" fill="white" fill-opacity="0.85"/>
  <path d="M26.9797 28.4991C27.3899 28.9092 28.0735 28.8955 28.47 28.4854C28.8801 28.0616 28.8801 27.4053 28.47 26.9952L3.39576 1.90726C2.9856 1.4971 2.31568 1.4971 1.89185 1.90726C1.49537 2.30374 1.49537 3.00101 1.89185 3.39749Z" fill="white" fill-opacity="0.85"/>
 </g>
</svg>
