<svg version="1.1" xmlns="http://www.w3.org/2000/svg" xmlns:xlink="http://www.w3.org/1999/xlink" viewBox="0 0 25.5254 25.1699">
 <g>
  
  <path d="M4.29297 25.1699L20.877 25.1699C23.748 25.1699 25.1699 23.7617 25.1699 20.9453L25.1699 4.23828C25.1699 1.42188 23.748 0 20.877 0L4.29297 0C1.43555 0 0 1.42188 0 4.23828L0 20.9453C0 23.7617 1.43555 25.1699 4.29297 25.1699ZM4.32031 22.9688C2.95312 22.9688 2.20117 22.2441 2.20117 20.8223L2.20117 4.36133C2.20117 2.93945 2.95312 2.20117 4.32031 2.20117L20.8496 2.20117C22.2031 2.20117 22.9688 2.93945 22.9688 4.36133L22.9688 20.8223C22.9688 22.2441 22.2031 22.9688 20.8496 22.9688Z" style="fill:var(--color-0,hsl(0 0 0/0.85))"></path>
  <path d="M12.5918 19.8926C16.6523 19.8926 19.9199 16.625 19.9199 12.5781C19.9199 8.53125 16.6523 5.25 12.5918 5.25C8.54492 5.25 5.27734 8.53125 5.27734 12.5781C5.27734 16.625 8.54492 19.8926 12.5918 19.8926ZM12.5918 17.7734C9.7207 17.7734 7.39648 15.4492 7.39648 12.5781C7.39648 9.70703 9.7207 7.38281 12.5918 7.38281C15.4629 7.38281 17.7871 9.70703 17.7871 12.5781C17.7871 15.4492 15.4629 17.7734 12.5918 17.7734Z" style="fill:var(--color-1,hsl(0 0 0/0.85))"></path>
 </g>
</svg>