<svg version="1.1" xmlns="http://www.w3.org/2000/svg" xmlns:xlink="http://www.w3.org/1999/xlink" viewBox="0 0 28.2461 27.9043">
 <g>
  
  <path d="M13.9453 27.8906C21.6426 27.8906 27.8906 21.6289 27.8906 13.9453C27.8906 6.24805 21.6426 0 13.9453 0C6.26172 0 0 6.24805 0 13.9453C0 21.6289 6.26172 27.8906 13.9453 27.8906Z" style="fill:var(--color-0,hsl(0 0 0/0.85))"></path>
  <path d="M13.9453 21.4922C9.77539 21.4922 6.39844 18.1152 6.39844 13.9453C6.39844 9.77539 9.77539 6.38477 13.9453 6.38477C18.1152 6.38477 21.5059 9.77539 21.5059 13.9453C21.5059 18.1152 18.1152 21.4922 13.9453 21.4922ZM13.9453 19.291C16.8984 19.291 19.291 16.8984 19.291 13.9453C19.291 10.9922 16.8984 8.59961 13.9453 8.59961C10.9922 8.59961 8.59961 10.9922 8.59961 13.9453C8.59961 16.8984 10.9922 19.291 13.9453 19.291Z" style="fill:var(--color-1,white)"></path>
 </g>
</svg>