<svg version="1.1" xmlns="http://www.w3.org/2000/svg" xmlns:xlink="http://www.w3.org/1999/xlink" viewBox="0 0 23.3516 37.8848">
 <g>
  
  <path d="M22.9961 9.67969L22.9961 30.4199C22.9961 33.291 21.5879 34.7129 18.7578 34.7129L4.23828 34.7129C1.4082 34.7129 0 33.291 0 30.4199L0 9.67969C0 6.80859 1.4082 5.38672 4.23828 5.38672L4.42111 5.38672C4.40822 5.50204 4.40234 5.62085 4.40234 5.74219L4.40234 7.17773C4.40234 8.90039 5.60547 10.1172 7.27344 10.1172L15.7227 10.1172C17.3906 10.1172 18.5938 8.90039 18.5938 7.17773L18.5938 5.74219C18.5938 5.62085 18.5879 5.50204 18.575 5.38672L18.7578 5.38672C21.5879 5.38672 22.9961 6.80859 22.9961 9.67969Z" style="fill:var(--color-0,hsl(0 0 0/0.85))"></path>
  <path d="M7.27344 8.53125L15.7227 8.53125C16.5156 8.53125 16.9941 8.02539 16.9941 7.17773L16.9941 5.74219C16.9941 4.89453 16.5156 4.38867 15.7227 4.38867L14.4648 4.38867C14.3691 2.84375 13.084 1.58594 11.498 1.58594C9.91211 1.58594 8.62695 2.84375 8.53125 4.38867L7.27344 4.38867C6.48047 4.38867 6.00195 4.89453 6.00195 5.74219L6.00195 7.17773C6.00195 8.02539 6.48047 8.53125 7.27344 8.53125ZM11.498 5.6875C10.8418 5.6875 10.3086 5.14062 10.3086 4.49805C10.3086 3.82812 10.8418 3.29492 11.498 3.29492C12.1543 3.29492 12.6875 3.82812 12.6875 4.49805C12.6875 5.14062 12.1543 5.6875 11.498 5.6875Z" style="fill:var(--color-1,hsl(0 0 0/0.85))"></path>
 </g>
</svg>