<?xml version="1.0" encoding="UTF-8"?>
<!--Generator: Apple Native CoreSVG 326-->
<!DOCTYPE svg
PUBLIC "-//W3C//DTD SVG 1.1//EN"
       "http://www.w3.org/Graphics/SVG/1.1/DTD/svg11.dtd">
<svg version="1.1" xmlns="http://www.w3.org/2000/svg" xmlns:xlink="http://www.w3.org/1999/xlink" viewBox="0 0 23.3516 37.8848">
 <g>
  <rect height="37.8848" opacity="0" width="23.3516" x="0" y="0"/>
  <path d="M22.9961 9.69336L22.9961 30.4199C22.9961 33.291 21.5879 34.7129 18.7578 34.7129L4.23828 34.7129C1.4082 34.7129 0 33.291 0 30.4199L0 9.69336C0 6.82227 1.4082 5.40039 4.23828 5.40039L4.41928 5.40039C4.40776 5.51154 4.40234 5.62569 4.40234 5.74219L4.40234 7.17773C4.40234 7.32327 4.41093 7.4652 4.4307 7.60156L4.34766 7.60156C2.92578 7.60156 2.20117 8.36719 2.20117 9.7207L2.20117 30.3926C2.20117 31.7598 2.92578 32.5117 4.34766 32.5117L18.6484 32.5117C20.0703 32.5117 20.7949 31.7598 20.7949 30.3926L20.7949 9.7207C20.7949 8.36719 20.0703 7.60156 18.6484 7.60156L18.5654 7.60156C18.5852 7.4652 18.5938 7.32327 18.5938 7.17773L18.5938 5.74219C18.5938 5.62569 18.5883 5.51154 18.5768 5.40039L18.7578 5.40039C21.5879 5.40039 22.9961 6.82227 22.9961 9.69336Z" fill="white" fill-opacity="0.85"/>
  <path d="M7.27344 8.53125L15.7227 8.53125C16.5156 8.53125 16.9941 8.02539 16.9941 7.17773L16.9941 5.74219C16.9941 4.89453 16.5156 4.38867 15.7227 4.38867L14.4648 4.38867C14.3691 2.84375 13.084 1.58594 11.498 1.58594C9.91211 1.58594 8.62695 2.84375 8.53125 4.38867L7.27344 4.38867C6.48047 4.38867 6.00195 4.89453 6.00195 5.74219L6.00195 7.17773C6.00195 8.02539 6.48047 8.53125 7.27344 8.53125ZM11.498 5.6875C10.8418 5.6875 10.3086 5.14062 10.3086 4.49805C10.3086 3.82812 10.8418 3.29492 11.498 3.29492C12.1543 3.29492 12.6875 3.82812 12.6875 4.49805C12.6875 5.14062 12.1543 5.6875 11.498 5.6875Z" fill="white" fill-opacity="0.85"/>
 </g>
</svg>
