<svg version="1.1" xmlns="http://www.w3.org/2000/svg" xmlns:xlink="http://www.w3.org/1999/xlink" viewBox="0 0 33.5408 27.9043">
 <g>
  
  <path d="M16.5995 27.8906C24.2968 27.8906 30.5448 21.6426 30.5448 13.9453C30.5448 6.24805 24.2968 0 16.5995 0C8.90224 0 2.65419 6.24805 2.65419 13.9453L4.97841 13.9453C4.97841 7.51953 10.1737 2.32422 16.5995 2.32422C23.0253 2.32422 28.2206 7.51953 28.2206 13.9453C28.2206 20.3711 23.0253 25.5664 16.5995 25.5664C12.7167 25.5664 9.2577 23.6523 7.19325 20.7539C6.76942 20.1934 6.12684 20.0156 5.55263 20.3574C5.00575 20.6992 4.84169 21.4648 5.30653 22.0664C7.83583 25.6074 11.9784 27.8906 16.5995 27.8906ZM0.972548 11.3066C-0.0118272 11.3066-0.257921 11.9766 0.275282 12.7422L3.33778 17.0898C3.78895 17.7188 4.4452 17.7051 4.8827 17.0898L7.93153 12.7285C8.46474 11.9766 8.20497 11.3066 7.24794 11.3066Z" style="fill:var(--color-0,hsl(0 0 0/0.85))"></path>
  <path d="M16.5995 5.94727C15.9706 5.94727 15.4647 6.43945 15.4647 7.06836L15.4647 14.793C15.4647 15.1211 15.5741 15.3945 15.8065 15.709L19.1151 20.0703C19.5936 20.6992 20.2636 20.7949 20.8378 20.3984C21.3436 20.043 21.3983 19.3594 20.9745 18.7715L16.4765 12.6875L17.7206 16.502L17.7206 7.06836C17.7206 6.43945 17.2147 5.94727 16.5995 5.94727Z" style="fill:var(--color-1,hsl(0 0 0/0.85))"></path>
 </g>
</svg>