<?xml version="1.0" encoding="UTF-8"?>
<!--Generator: Apple Native CoreSVG 326-->
<!DOCTYPE svg
PUBLIC "-//W3C//DTD SVG 1.1//EN"
       "http://www.w3.org/Graphics/SVG/1.1/DTD/svg11.dtd">
<svg version="1.1" xmlns="http://www.w3.org/2000/svg" xmlns:xlink="http://www.w3.org/1999/xlink" viewBox="0 0 28.2461 27.9043">
 <g>
  <rect height="27.9043" opacity="0" width="28.2461" x="0" y="0"/>
  <path d="M6.79492 15.4219C6.24805 15.4219 5.83789 15.0117 5.83789 14.4648C5.83789 13.9316 6.24805 13.5215 6.79492 13.5215L12.9883 13.5215L12.9883 5.25C12.9883 4.7168 13.3984 4.30664 13.9316 4.30664C14.4648 4.30664 14.8887 4.7168 14.8887 5.25L14.8887 14.4648C14.8887 15.0117 14.4648 15.4219 13.9316 15.4219ZM13.9453 27.8906C21.6426 27.8906 27.8906 21.6289 27.8906 13.9453C27.8906 6.24805 21.6426 0 13.9453 0C6.26172 0 0 6.24805 0 13.9453C0 21.6289 6.26172 27.8906 13.9453 27.8906Z" fill="white" fill-opacity="0.85"/>
 </g>
</svg>
