<svg version="1.1" xmlns="http://www.w3.org/2000/svg" xmlns:xlink="http://www.w3.org/1999/xlink" viewBox="0 0 28.2461 27.9043">
 <g>
  
  <path d="M13.9453 27.8906C21.6426 27.8906 27.8906 21.6289 27.8906 13.9453C27.8906 6.24805 21.6426 0 13.9453 0C6.26172 0 0 6.24805 0 13.9453C0 21.6289 6.26172 27.8906 13.9453 27.8906Z" style="fill:var(--color-0,hsl(0 0 0/0.85))"></path>
  <path d="M10.1035 14.9023L13.9316 14.9023C14.3145 14.9023 14.6426 14.6152 14.6426 14.2324L14.6426 9.25586C14.6426 8.87305 14.3281 8.57227 13.9316 8.57227C13.5488 8.57227 13.248 8.87305 13.248 9.25586L13.248 13.5488L10.1035 13.5488C9.70703 13.5488 9.40625 13.8359 9.40625 14.2324C9.40625 14.6289 9.70703 14.9023 10.1035 14.9023ZM13.9453 21.5059C9.81641 21.5059 6.37109 18.0742 6.37109 13.9453C6.37109 9.81641 9.80273 6.37109 13.9316 6.37109C18.0742 6.37109 21.5195 9.81641 21.5195 13.9453C21.5195 18.0742 18.0742 21.5059 13.9453 21.5059Z" style="fill:var(--color-1,white)"></path>
 </g>
</svg>