<svg version="1.1" xmlns="http://www.w3.org/2000/svg" xmlns:xlink="http://www.w3.org/1999/xlink" viewBox="0 0 33.5545 27.9043">
 <g>
  
  <path d="M16.5995 0C9.87294 0 4.15809 4.9082 2.91395 11.3066L0.972548 11.3066C-0.0118272 11.3066-0.257921 11.9766 0.275282 12.7422L3.33778 17.0898C3.78895 17.7188 4.4452 17.7051 4.8827 17.0898L7.9452 12.7285C8.46474 11.9766 8.21864 11.3066 7.24794 11.3066L5.27919 11.3066C6.45497 6.13867 11.0487 2.33789 16.5995 2.33789C20.496 2.35156 23.914 4.22461 26.0058 7.13672C26.4159 7.69727 27.0722 7.875 27.6327 7.51953C28.1933 7.19141 28.3436 6.43945 27.8788 5.83789C25.3085 2.32422 21.2069 0 16.5995 0ZM16.5995 27.8906C23.3261 27.8906 29.0409 22.9688 30.285 16.584L32.2128 16.584C33.1972 16.584 33.4569 15.9141 32.91 15.1484L29.8612 10.8008C29.41 10.1719 28.7538 10.1855 28.3163 10.8008L25.2538 15.1621C24.7206 15.9141 24.9804 16.584 25.9511 16.584L27.9335 16.584C26.744 21.7383 22.1366 25.5664 16.5995 25.5664C12.703 25.5527 9.28505 23.666 7.19325 20.7539C6.76942 20.1934 6.12684 20.0156 5.55263 20.3574C5.00575 20.6992 4.85536 21.4512 5.3202 22.0527C7.89052 25.5664 11.9921 27.8906 16.5995 27.8906Z" style="fill:var(--color-0,hsl(0 0 0/0.85))"></path>
  <path d="M16.5995 5.94727C15.9706 5.94727 15.4647 6.43945 15.4647 7.06836L15.4647 14.793C15.4647 15.1211 15.5741 15.3945 15.8065 15.709L19.1151 20.0703C19.5936 20.6992 20.2636 20.7949 20.8378 20.3984C21.3436 20.043 21.3983 19.3594 20.9745 18.7715L16.4765 12.6875L17.7206 16.502L17.7206 7.06836C17.7206 6.43945 17.2147 5.94727 16.5995 5.94727Z" style="fill:var(--color-1,hsl(0 0 0/0.85))"></path>
 </g>
</svg>