<?xml version="1.0" encoding="UTF-8"?>
<!--Generator: Apple Native CoreSVG 326-->
<!DOCTYPE svg
PUBLIC "-//W3C//DTD SVG 1.1//EN"
       "http://www.w3.org/Graphics/SVG/1.1/DTD/svg11.dtd">
<svg version="1.1" xmlns="http://www.w3.org/2000/svg" xmlns:xlink="http://www.w3.org/1999/xlink" viewBox="0 0 28.2461 27.9043">
 <g>
  <rect height="27.9043" opacity="0" width="28.2461" x="0" y="0"/>
  <path d="M13.9453 27.8906C21.6426 27.8906 27.8906 21.6426 27.8906 13.9453C27.8906 6.24805 21.6426 0 13.9453 0C6.24805 0 0 6.24805 0 13.9453C0 21.6426 6.24805 27.8906 13.9453 27.8906ZM13.9453 25.5664C7.51953 25.5664 2.32422 20.3711 2.32422 13.9453C2.32422 7.51953 7.51953 2.32422 13.9453 2.32422C20.3711 2.32422 25.5664 7.51953 25.5664 13.9453C25.5664 20.3711 20.3711 25.5664 13.9453 25.5664Z" fill="white" fill-opacity="0.85"/>
  <path d="M8.05273 17.2402L14.834 17.2402C16.6797 17.2402 18.0879 15.832 18.0879 14.0273C18.0879 12.2637 16.666 10.9238 14.7793 10.8828C14.041 9.50195 12.7285 8.6543 11.1562 8.6543C9.07812 8.6543 7.32812 10.2676 7.10938 12.332C6.07031 12.6875 5.3457 13.5898 5.3457 14.752C5.3457 16.1875 6.43945 17.2402 8.05273 17.2402ZM22.5859 10.541C22.5859 10.2949 22.4766 10.1309 22.2715 10.1309C21.9707 10.1309 21.4648 10.5137 20.5898 10.5137C18.9902 10.5137 17.9785 9.58398 17.9785 8.10742C17.9785 7.25977 18.457 6.64453 18.457 6.28906C18.457 6.09766 18.293 5.96094 18.0469 5.97461C16.748 6.0293 15.1348 7.56055 14.916 9.44727C15.0664 9.61133 15.1895 9.78906 15.3262 9.9668C17.3496 10.2129 18.8398 11.7168 19.0312 13.6582C21.2324 13.4258 22.5859 11.6895 22.5859 10.541ZM9.80273 20.2754C9.7207 20.4395 9.80273 20.5762 9.98047 20.5762L11.1562 20.5762L10.2402 22.791C10.1719 22.9688 10.377 23.0781 10.5273 22.9277L13.5488 19.8516C13.6855 19.7012 13.6172 19.4961 13.4121 19.4961L12.0312 19.4961L12.6875 18.252C12.7695 18.1016 12.7148 17.9648 12.5371 17.9648L11.0605 17.9648C10.8691 17.9648 10.7734 18.0332 10.7051 18.1836Z" fill="white" fill-opacity="0.85"/>
 </g>
</svg>
