<svg version="1.1" xmlns="http://www.w3.org/2000/svg" xmlns:xlink="http://www.w3.org/1999/xlink" viewBox="0 0 28.2461 27.9043">
 <g>
  
  <path d="M13.9453 27.8906C21.6426 27.8906 27.8906 21.6426 27.8906 13.9453C27.8906 6.24805 21.6426 0 13.9453 0C6.24805 0 0 6.24805 0 13.9453C0 21.6426 6.24805 27.8906 13.9453 27.8906ZM13.9453 25.5664C7.51953 25.5664 2.32422 20.3711 2.32422 13.9453C2.32422 7.51953 7.51953 2.32422 13.9453 2.32422C20.3711 2.32422 25.5664 7.51953 25.5664 13.9453C25.5664 20.3711 20.3711 25.5664 13.9453 25.5664Z" style="fill:var(--color-0,hsl(0 0 0/0.85))"></path>
  <path d="M8.98242 18.9629L18.1562 18.9629C20.5215 18.9629 22.3672 17.1855 22.3672 14.8887C22.3672 12.5508 20.4668 10.8145 17.9238 10.8418C17.0078 8.96875 15.2852 7.84766 13.1934 7.84766C10.4316 7.84766 8.13477 9.99414 7.90234 12.7559C6.49414 13.1523 5.52344 14.3555 5.52344 15.832C5.52344 17.6641 6.9043 18.9629 8.98242 18.9629Z" style="fill:var(--color-1,hsl(0 0 0/0.85))"></path>
 </g>
</svg>