<svg version="1.1" xmlns="http://www.w3.org/2000/svg" xmlns:xlink="http://www.w3.org/1999/xlink" viewBox="0 0 32.252 34.3216">
 <g>
  
  <path d="M26.2637 32.7536C26.6738 32.9723 27.166 32.8356 27.3984 32.4391L29.1758 29.3493C29.4219 28.9391 29.2852 28.4606 28.8887 28.2145C28.4648 27.9684 28 28.1052 27.7539 28.529L25.9629 31.6325C25.7305 32.029 25.8398 32.5075 26.2637 32.7536Z" style="fill:var(--color-0,hsl(0 0 0/0.85))"></path>
  <path d="M23.6113 28.9255C24.0215 29.1579 24.5137 29.0212 24.7461 28.611L26.5234 25.5348C26.7695 25.111 26.6328 24.6325 26.2363 24.3864C25.8125 24.154 25.3477 24.2907 25.1016 24.7009L23.3105 27.818C23.0781 28.2145 23.1875 28.693 23.6113 28.9255Z" style="fill:var(--color-1,hsl(0 0 0/0.85))"></path>
  <path d="M19.9336 27.2848L16.8301 27.2848L16.8027 27.9001L18.4707 24.7009C18.6348 24.4001 18.5117 24.1677 18.2109 24.1677L15.2441 24.1677C14.8477 24.1677 14.7109 24.3044 14.5879 24.5915L12.7285 28.8298C12.5781 29.1716 12.7285 29.3766 13.084 29.3766L15.6133 29.3766L15.791 28.57L13.5898 33.9157C13.5215 34.0934 13.5625 34.2438 13.6855 34.2985C13.8086 34.3532 13.959 34.3122 14.1094 34.1618L20.1523 27.9684C20.4395 27.6677 20.3301 27.2848 19.9336 27.2848Z" style="fill:var(--color-2,hsl(0 0 0/0.85))"></path>
  <path d="M7.25977 32.7536C7.66992 32.9723 8.16211 32.8356 8.39453 32.4391L10.1719 29.3493C10.418 28.9391 10.2812 28.4606 9.87109 28.2145C9.46094 27.9684 8.99609 28.1052 8.75 28.529L6.94531 31.6325C6.72656 32.029 6.83594 32.5075 7.25977 32.7536Z" style="fill:var(--color-3,hsl(0 0 0/0.85))"></path>
  <path d="M4.60742 28.9255C5.01758 29.1579 5.50977 29.0212 5.74219 28.611L7.51953 25.5348C7.76562 25.111 7.62891 24.6325 7.21875 24.3864C6.80859 24.154 6.34375 24.2907 6.09766 24.7009L4.30664 27.818C4.07422 28.2145 4.18359 28.693 4.60742 28.9255Z" style="fill:var(--color-4,hsl(0 0 0/0.85))"></path>
  <path d="M7.46484 22.2126L24.4316 22.2126C28.916 22.2126 32.252 18.8083 32.252 14.5973C32.252 10.236 28.6973 7.05047 24.0625 7.05047C22.3535 3.67352 19.1816 1.49969 15.2305 1.49969C10.0898 1.49969 5.85156 5.53289 5.40039 10.6052C2.92578 11.3298 1.03906 13.4763 1.03906 16.361C1.03906 19.6013 3.39062 22.2126 7.46484 22.2126ZM7.4375 20.0251C4.63477 20.0251 3.22656 18.4528 3.22656 16.4294C3.22656 14.7888 4.18359 13.3122 6.50781 12.697C7.25977 12.4919 7.5332 12.1364 7.60156 11.3708C7.91602 6.90008 11.2656 3.68719 15.2305 3.68719C18.3066 3.68719 20.7266 5.3825 22.2031 8.40399C22.5176 9.07391 22.9277 9.30633 23.7344 9.30633C27.7812 9.30633 30.0645 11.7399 30.0645 14.652C30.0645 17.6325 27.6855 20.0251 24.5684 20.0251Z" style="fill:var(--color-5,hsl(0 0 0/0.85))"></path>
 </g>
</svg>