<svg version="1.1" xmlns="http://www.w3.org/2000/svg" xmlns:xlink="http://www.w3.org/1999/xlink" viewBox="0 0 28.2461 27.9043">
 <g>
  
  <path d="M13.9453 27.8906C21.6426 27.8906 27.8906 21.6426 27.8906 13.9453C27.8906 6.24805 21.6426 0 13.9453 0C6.24805 0 0 6.24805 0 13.9453C0 21.6426 6.24805 27.8906 13.9453 27.8906ZM13.9453 25.5664C7.51953 25.5664 2.32422 20.3711 2.32422 13.9453C2.32422 7.51953 7.51953 2.32422 13.9453 2.32422C20.3711 2.32422 25.5664 7.51953 25.5664 13.9453C25.5664 20.3711 20.3711 25.5664 13.9453 25.5664Z" style="fill:var(--color-0,hsl(0 0 0/0.85))"></path>
  <path d="M9.65234 15.2988L17.8008 15.2988C19.9199 15.2988 21.5469 13.6582 21.5469 11.6484C21.5469 9.54297 19.8379 8.02539 17.623 8.02539C16.7891 6.41211 15.2715 5.35938 13.3848 5.35938C10.9238 5.35938 8.88672 7.30078 8.6543 9.73438C7.47852 10.0898 6.57617 11.1016 6.57617 12.4961C6.57617 14.041 7.69727 15.2988 9.65234 15.2988ZM11.5391 21.123L13.6309 17.5C13.8223 17.1855 13.7129 16.8164 13.3984 16.6387C13.0977 16.4746 12.7422 16.5703 12.5645 16.8848L10.459 20.4941C10.2812 20.7949 10.377 21.1777 10.6914 21.3555C10.9922 21.5195 11.3613 21.4238 11.5391 21.123ZM17.7461 21.123L19.8516 17.5C20.043 17.1855 19.9336 16.8164 19.6191 16.6387C19.3184 16.4746 18.9629 16.5703 18.7715 16.8848L16.6797 20.4941C16.502 20.7949 16.5977 21.1777 16.9121 21.3555C17.2129 21.5195 17.582 21.4238 17.7461 21.123ZM14.6426 21.123L16.7344 17.5C16.9258 17.1855 16.8164 16.8164 16.502 16.6387C16.2012 16.4746 15.8457 16.5703 15.6543 16.8848L13.5625 20.4941C13.3848 20.7949 13.4805 21.1777 13.7949 21.3555C14.0957 21.5195 14.4648 21.4238 14.6426 21.123ZM8.42188 21.123L10.5137 17.5C10.7051 17.1855 10.5957 16.8164 10.2812 16.6387C9.99414 16.4746 9.625 16.5703 9.44727 16.8848L7.3418 20.4941C7.16406 20.7949 7.25977 21.1777 7.57422 21.3555C7.875 21.5195 8.24414 21.4238 8.42188 21.123Z" style="fill:var(--color-1,hsl(0 0 0/0.85))"></path>
 </g>
</svg>