<svg version="1.1" xmlns="http://www.w3.org/2000/svg" xmlns:xlink="http://www.w3.org/1999/xlink" viewBox="0 0 28.2461 27.9043">
 <g>
  
  <path d="M13.9453 27.9043C21.6426 27.9043 27.8906 21.6562 27.8906 13.959C27.8906 6.27539 21.6426 0.0136719 13.9453 0.0136719C6.26172 0.0136719 0 6.27539 0 13.959C0 21.6562 6.26172 27.9043 13.9453 27.9043Z" style="fill:var(--color-0,hsl(0 0 0/0.85))"></path>
  <path d="M7.57422 19.7422C5.82422 19.7422 4.63477 18.6074 4.63477 17.0352C4.63477 15.791 5.41406 14.793 6.54883 14.4238C6.79492 12.1816 8.69531 10.418 10.9648 10.418C12.6738 10.418 14.0957 11.3477 14.8887 12.8379C16.9668 12.8789 18.5117 14.3555 18.5117 16.2695C18.5117 18.2383 16.9668 19.7422 14.9707 19.7422ZM23.3379 12.5098C23.3379 13.7402 21.8887 15.6406 19.4824 15.8867C19.3047 13.7676 17.6641 12.168 15.4766 11.8809C15.3398 11.6758 15.2031 11.498 15.0391 11.3203C15.2715 9.25586 17.0352 7.61523 18.4297 7.54688C18.6895 7.54688 18.8672 7.68359 18.8672 7.88867C18.8672 8.25781 18.3613 8.95508 18.3613 9.87109C18.3613 11.457 19.4551 12.4824 21.1914 12.4824C22.1484 12.4824 22.668 12.0449 23.0098 12.0449C23.2285 12.0449 23.3379 12.25 23.3379 12.5098Z" style="fill:var(--color-1,white)"></path>
 </g>
</svg>