<?xml version="1.0" encoding="UTF-8"?>
<!--Generator: Apple Native CoreSVG 326-->
<!DOCTYPE svg
PUBLIC "-//W3C//DTD SVG 1.1//EN"
       "http://www.w3.org/Graphics/SVG/1.1/DTD/svg11.dtd">
<svg version="1.1" xmlns="http://www.w3.org/2000/svg" xmlns:xlink="http://www.w3.org/1999/xlink" viewBox="0 0 32.252 34.3216">
 <g>
  <rect height="34.3216" opacity="0" width="32.252" x="0" y="0"/>
  <path d="M19.9336 27.2848L16.8301 27.2848L16.8027 27.9001L18.4707 24.7009C18.6348 24.4001 18.5117 24.1677 18.2109 24.1677L15.2441 24.1677C14.8477 24.1677 14.7109 24.3044 14.5879 24.5915L12.7285 28.8298C12.5781 29.1716 12.7285 29.3766 13.084 29.3766L15.6133 29.3766L15.791 28.57L13.5898 33.9157C13.5215 34.0934 13.5625 34.2438 13.6855 34.2985C13.8086 34.3532 13.959 34.3122 14.1094 34.1618L20.1523 27.9684C20.4395 27.6677 20.3301 27.2848 19.9336 27.2848Z" fill="white" fill-opacity="0.85"/>
  <path d="M7.46484 22.2126L24.4316 22.2126C28.916 22.2126 32.252 18.8083 32.252 14.5973C32.252 10.236 28.6973 7.05047 24.0625 7.05047C22.3535 3.67352 19.1816 1.49969 15.2305 1.49969C10.0898 1.49969 5.85156 5.53289 5.40039 10.6052C2.92578 11.3298 1.03906 13.4763 1.03906 16.361C1.03906 19.6013 3.39062 22.2126 7.46484 22.2126ZM7.4375 20.0251C4.63477 20.0251 3.22656 18.4528 3.22656 16.4294C3.22656 14.7888 4.18359 13.3122 6.50781 12.697C7.25977 12.4919 7.5332 12.1364 7.60156 11.3708C7.91602 6.90008 11.2656 3.68719 15.2305 3.68719C18.3066 3.68719 20.7266 5.3825 22.2031 8.40399C22.5176 9.07391 22.9277 9.30633 23.7344 9.30633C27.7812 9.30633 30.0645 11.7399 30.0645 14.652C30.0645 17.6325 27.6855 20.0251 24.5684 20.0251Z" fill="white" fill-opacity="0.85"/>
 </g>
</svg>
