<?xml version="1.0" encoding="UTF-8"?>
<!--Generator: Apple Native CoreSVG 326-->
<!DOCTYPE svg
PUBLIC "-//W3C//DTD SVG 1.1//EN"
       "http://www.w3.org/Graphics/SVG/1.1/DTD/svg11.dtd">
<svg version="1.1" xmlns="http://www.w3.org/2000/svg" xmlns:xlink="http://www.w3.org/1999/xlink" viewBox="0 0 41.9727 38.5137">
 <g>
  <rect height="38.5137" opacity="0" width="41.9727" x="0" y="0"/>
  <path d="M24.582 33.7012C24.9922 33.9336 25.1289 34.4258 24.8828 34.8359L23.0918 37.9258C22.873 38.3223 22.3672 38.459 21.9707 38.2402C21.5469 37.9941 21.4238 37.5156 21.6562 37.1191L23.4473 34.0156C23.707 33.5918 24.1719 33.4551 24.582 33.7012Z" fill="#5ac8f5"/>
  <path d="M20.3027 29.8457C20.7129 30.0918 20.8496 30.5703 20.6035 30.9941L18.8262 34.0703C18.5938 34.4805 18.1016 34.6172 17.6914 34.3848C17.2676 34.1523 17.1582 33.6602 17.3906 33.2773L19.1816 30.1602C19.4277 29.75 19.8926 29.6133 20.3027 29.8457Z" fill="#5ac8f5"/>
  <path d="M13.7129 33.7148C14.1094 33.9473 14.2461 34.4395 14 34.8496L12.2227 37.9395C11.9902 38.3359 11.498 38.4727 11.0879 38.2539C10.6777 38.0078 10.5547 37.5293 10.7871 37.1328L12.5781 34.0293C12.8242 33.6055 13.2891 33.4688 13.7129 33.7148Z" fill="#5ac8f5"/>
  <path d="M9.43359 29.8594C9.84375 30.1055 9.9668 30.584 9.7207 31.0078L7.94336 34.084C7.71094 34.4941 7.21875 34.6309 6.80859 34.3984C6.39844 34.166 6.27539 33.6738 6.50781 33.291L8.29883 30.1738C8.54492 29.7637 9.00977 29.627 9.43359 29.8594Z" fill="#5ac8f5"/>
  <path d="M35.7383 20.5215L37.8574 22.627C38.2949 23.0645 38.2949 23.7891 37.8574 24.2129C37.4199 24.6504 36.6953 24.6641 36.2715 24.2266L34.1387 22.1211C33.7012 21.6836 33.7012 20.959 34.1387 20.5215C34.5762 20.0977 35.3008 20.0977 35.7383 20.5215ZM34.5762 14.1914C34.5762 16.6195 33.2609 18.7775 31.311 19.9701C30.9279 15.9816 27.734 12.9883 23.543 12.5781C23.1052 11.887 22.6037 11.2567 22.0438 10.699C23.2303 8.73259 25.3876 7.41016 27.8223 7.41016C31.5137 7.41016 34.5762 10.4727 34.5762 14.1914ZM41.9727 14.1914C41.9727 14.8203 41.4668 15.3262 40.8516 15.3262L37.8848 15.3262C37.2832 15.3262 36.75 14.8203 36.75 14.1914C36.75 13.5762 37.2832 13.0566 37.8848 13.0566L40.8516 13.0566C41.4668 13.0566 41.9727 13.5762 41.9727 14.1914ZM37.8574 4.16992C38.2949 4.60742 38.2949 5.3457 37.8574 5.7832L35.752 7.875C35.3008 8.32617 34.5762 8.3125 34.1387 7.875C33.7012 7.4375 33.7012 6.71289 34.1387 6.28906L36.2715 4.16992C36.6953 3.71875 37.4199 3.73242 37.8574 4.16992ZM19.4004 4.16992L21.5059 6.28906C21.9297 6.69922 21.9297 7.45117 21.4922 7.875C21.0547 8.3125 20.3301 8.3125 19.8926 7.875L17.8008 5.76953C17.3633 5.3457 17.377 4.60742 17.8145 4.16992C18.252 3.73242 18.9766 3.73242 19.4004 4.16992ZM28.957 1.13477L28.957 4.10156C28.957 4.7168 28.4375 5.22266 27.8223 5.22266C27.207 5.22266 26.6875 4.7168 26.6875 4.10156L26.6875 1.13477C26.6875 0.533203 27.207 0 27.8223 0C28.4375 0 28.957 0.533203 28.957 1.13477Z" fill="#ffd60a"/>
  <path d="M8.05273 27.5352L22.8457 27.5352C26.7422 27.5352 29.7637 24.582 29.7637 20.7812C29.7637 17.0078 26.6875 14.1504 22.5996 14.123C21.0273 11.1289 18.1973 9.29688 14.8203 9.29688C10.3633 9.29688 6.58984 12.7559 6.16602 17.2539C3.89648 17.9375 2.35156 19.8789 2.35156 22.3398C2.35156 25.375 4.63477 27.5352 8.05273 27.5352Z" fill="white"/>
 </g>
</svg>
