<?xml version="1.0" encoding="UTF-8"?>
<!--Generator: Apple Native CoreSVG 326-->
<!DOCTYPE svg
PUBLIC "-//W3C//DTD SVG 1.1//EN"
       "http://www.w3.org/Graphics/SVG/1.1/DTD/svg11.dtd">
<svg version="1.1" xmlns="http://www.w3.org/2000/svg" xmlns:xlink="http://www.w3.org/1999/xlink" viewBox="0 0 28.2461 27.9043">
 <g>
  <rect height="27.9043" opacity="0" width="28.2461" x="0" y="0"/>
  <path d="M13.9453 27.9043C21.6426 27.9043 27.8906 21.6562 27.8906 13.959C27.8906 6.27539 21.6426 0.0136719 13.9453 0.0136719C6.26172 0.0136719 0 6.27539 0 13.959C0 21.6562 6.26172 27.9043 13.9453 27.9043Z" fill="white" fill-opacity="0.85"/>
  <path d="M7.875 17.3633C6.20703 17.3633 5.08594 16.2695 5.08594 14.793C5.08594 13.5898 5.82422 12.6602 6.89062 12.291C7.12305 10.1855 8.92773 8.50391 11.0742 8.50391C12.6875 8.50391 14.041 9.39258 14.8066 10.8008C16.748 10.8418 18.2109 12.2363 18.2109 14.0547C18.2109 15.9141 16.7617 17.3633 14.8613 17.3633ZM8.42188 20.3574C8.29883 20.5762 7.9707 20.6719 7.73828 20.5215C7.47852 20.3984 7.41016 20.0703 7.54688 19.8379L8.35352 18.457C8.47656 18.2109 8.80469 18.1289 9.02344 18.2656C9.29688 18.4297 9.37891 18.7168 9.22852 18.9766ZM10.2266 21.8477C10.0898 22.0801 9.76172 22.1758 9.54297 22.0391C9.26953 21.9023 9.17383 21.5879 9.31055 21.3281L10.0762 20.0293C10.2266 19.7969 10.5273 19.7148 10.7734 19.8379C11.0469 19.9746 11.1152 20.3027 10.9785 20.5488ZM12.9746 20.3438C12.8379 20.5762 12.5371 20.6719 12.291 20.5215C12.0176 20.3984 11.9629 20.0566 12.0859 19.8242L12.8789 18.4434C13.0156 18.2109 13.3301 18.1289 13.5762 18.2656C13.8359 18.4297 13.9316 18.7168 13.7812 18.9766ZM14.7656 21.8477C14.6289 22.0938 14.3145 22.1758 14.082 22.0391C13.8223 21.9023 13.7266 21.5879 13.8633 21.3281L14.6289 20.043C14.7793 19.7969 15.0801 19.7148 15.3262 19.8379C15.5859 19.9746 15.6543 20.3027 15.5312 20.5488ZM22.8457 10.459C22.8457 11.6348 21.4512 13.4395 19.1816 13.6582C18.9902 11.6621 17.459 10.1309 15.3672 9.85742C15.2305 9.67969 15.0938 9.48828 14.9434 9.32422C15.1758 7.36914 16.8438 5.81055 18.1699 5.74219C18.4297 5.74219 18.5938 5.86523 18.5938 6.08398C18.5938 6.43945 18.1016 7.06836 18.1016 7.94336C18.1016 9.46094 19.1406 10.4316 20.7949 10.4316C21.6973 10.4316 22.2168 10.0215 22.5312 10.0215C22.7363 10.0215 22.8457 10.1992 22.8457 10.459Z" fill="white"/>
 </g>
</svg>
