<svg version="1.1" xmlns="http://www.w3.org/2000/svg" xmlns:xlink="http://www.w3.org/1999/xlink" viewBox="0 0 32.252 31.3223">
 <g>
  
  <path d="M25.6758 28.5195L7.88867 28.5195C7.41016 28.5195 7.02734 28.8887 7.02734 29.3809C7.02734 29.873 7.41016 30.2559 7.88867 30.2559L25.6758 30.2559C26.1543 30.2559 26.5371 29.873 26.5371 29.3809C26.5371 28.8887 26.1543 28.5195 25.6758 28.5195Z" style="fill:var(--color-0,white)"></path>
  <path d="M25.6758 23.8848L7.88867 23.8848C7.41016 23.8848 7.02734 24.2539 7.02734 24.7461C7.02734 25.2383 7.41016 25.6074 7.88867 25.6074L25.6758 25.6074C26.1543 25.6074 26.5371 25.2383 26.5371 24.7461C26.5371 24.2539 26.1543 23.8848 25.6758 23.8848Z" style="fill:var(--color-1,white)"></path>
  <path d="M7.46484 20.7129L24.4316 20.7129C28.916 20.7129 32.252 17.3086 32.252 13.0977C32.252 8.73633 28.6973 5.55078 24.0625 5.55078C22.3535 2.17383 19.1816 0 15.2305 0C10.0898 0 5.85156 4.0332 5.40039 9.10547C2.92578 9.83008 1.03906 11.9766 1.03906 14.8613C1.03906 18.1016 3.39062 20.7129 7.46484 20.7129Z" style="fill:var(--color-2,white)"></path>
 </g>
</svg>