<svg version="1.1" xmlns="http://www.w3.org/2000/svg" xmlns:xlink="http://www.w3.org/1999/xlink" viewBox="0 0 37.5213 36.0716">
 <g>
  
  <path d="M17.2431 27.0388L15.9875 29.4177L18.706 29.4177C19.0888 29.4177 19.1845 29.7868 18.911 30.0739L13.1278 35.9118C12.9911 36.0622 12.8407 36.1032 12.7177 36.0485C12.5946 36.0075 12.5536 35.8571 12.6357 35.6794L14.3863 31.4411L12.1025 31.4411C11.747 31.4411 11.6103 31.236 11.747 30.9079L13.497 26.9294C13.62 26.6696 13.7431 26.5192 14.1122 26.5192L16.9696 26.5192C17.2704 26.5192 17.3935 26.738 17.2431 27.0388Z" style="fill:var(--color-0,hsl(0 0 0/0.85))"></path>
  <path d="M28.372 2.34735C28.372 3.11297 27.8935 3.96063 27.8935 5.50555C27.8935 8.70477 29.7392 10.6188 33.2255 10.6188C34.6747 10.6188 35.3446 10.2634 36.165 10.2634C37.2314 10.2634 37.8193 11.2477 37.3681 12.3415C36.3624 14.983 33.5682 17.5457 29.2006 17.6369C29.1943 16.9145 29.073 16.2279 28.8511 15.5908C28.8817 15.5952 28.9139 15.5954 28.9462 15.5954C31.995 15.5954 34.415 14.0505 35.3583 12.2731L35.2626 12.1774C34.6337 12.3825 33.7314 12.5466 32.7607 12.5466C28.7821 12.5466 25.9247 9.88055 25.9247 5.91571C25.9247 4.86297 26.1298 3.94696 26.3622 3.27703L26.2118 3.18133C24.4208 4.15203 22.8349 6.21649 22.8349 8.97821C22.8349 9.72072 22.9274 10.4212 23.1035 11.0677C22.7478 11.0084 22.3786 10.9793 22.0009 10.9743C21.6699 10.3548 21.2852 9.78511 20.8503 9.27434C20.8399 9.19158 20.8388 9.10558 20.8388 9.01922C20.8388 5.12274 23.2997 2.03289 26.1982 1.07586C27.4013 0.665706 28.372 1.22625 28.372 2.34735Z" style="fill:var(--color-1,hsl(0 0 0/0.85))"></path>
  <path d="M7.38566 24.5915L22.1786 24.5915C26.1298 24.5915 29.206 21.5973 29.206 17.7419C29.206 13.9138 26.1025 11.029 22.0009 10.9743C20.4013 7.98016 17.5439 6.14813 14.1669 6.14813C9.64152 6.14813 5.85441 9.63446 5.40324 14.1325C3.13371 14.8434 1.58878 16.8122 1.58878 19.3005C1.58878 22.3766 3.913 24.5915 7.38566 24.5915ZM7.33097 22.404C5.00675 22.404 3.77628 21.0641 3.77628 19.3552C3.77628 17.9059 4.62394 16.6208 6.63371 16.0876C7.28996 15.9235 7.53605 15.6227 7.59074 14.9255C7.90519 11.0973 10.7489 8.33563 14.1669 8.33563C16.8193 8.33563 18.8837 9.79852 20.1552 12.3415C20.456 12.9294 20.7841 13.1345 21.4814 13.1345C25.0224 13.1345 27.0048 15.2673 27.0048 17.8102C27.0048 20.3532 24.9267 22.404 22.2196 22.404Z" style="fill:var(--color-2,hsl(0 0 0/0.85))"></path>
 </g>
</svg>