<svg version="1.1" xmlns="http://www.w3.org/2000/svg" xmlns:xlink="http://www.w3.org/1999/xlink" viewBox="0 0 31.0898 28.3145">
 <g>
  
  <path d="M30.7344 13.8223C28.1339 13.8223 25.915 15.419 24.9851 17.6787C24.5912 17.1982 24.1215 16.7773 23.5889 16.4287C24.9001 13.8143 27.5995 12.0312 30.7344 12.0312Z" style="fill:var(--color-0,#af52de)"></path>
  <path d="M30.7344 10.8281C27.1619 10.8281 24.0616 12.8721 22.5397 15.8552C22.0007 15.6084 21.4151 15.4299 20.7941 15.3277C22.542 11.597 26.3209 9.03711 30.7344 9.03711Z" style="fill:var(--color-1,#55bef0)"></path>
  <path d="M30.7344 7.83398C25.7272 7.83398 21.4293 10.8671 19.5552 15.1873C19.2172 14.5667 18.8214 13.998 18.3729 13.4917C20.7105 9.05567 25.3573 6.04297 30.7344 6.04297Z" style="fill:var(--color-2,#baeb00)"></path>
  <path d="M30.7344 4.85352C25.0485 4.85352 20.0902 7.98344 17.4905 12.6129C17.0331 12.2133 16.5361 11.8696 16.0065 11.5855C18.9238 6.48267 24.4193 3.0625 30.7344 3.0625Z" style="fill:var(--color-3,#ffab2c)"></path>
  <path d="M30.7344 1.85938C23.9487 1.85938 18.0358 5.5812 14.9223 11.0957C14.3411 10.8832 13.7307 10.7356 13.0963 10.6621C16.443 4.35089 23.0739 0.0683594 30.7344 0.0683594Z" style="fill:var(--color-4,#ff3b30)"></path>
  <path d="M5.57812 28.3145L19.6875 28.3145C23.4883 28.3145 26.4414 25.4297 26.4414 21.7383C26.4414 18.0605 23.4746 15.2852 19.5645 15.2031C18.0195 12.3594 15.2715 10.5957 12.0586 10.5957C7.71094 10.5957 4.08789 13.9453 3.63672 18.252C1.47656 18.9355 0 20.8359 0 23.2148C0 26.1953 2.24219 28.3145 5.57812 28.3145Z" style="fill:var(--color-5,white)"></path>
 </g>
</svg>