<svg version="1.1" xmlns="http://www.w3.org/2000/svg" xmlns:xlink="http://www.w3.org/1999/xlink" viewBox="0 0 28.2461 27.9043">
 <g>
  
  <path d="M13.9453 27.8906C21.6426 27.8906 27.8906 21.6426 27.8906 13.9453C27.8906 6.24805 21.6426 0 13.9453 0C6.24805 0 0 6.24805 0 13.9453C0 21.6426 6.24805 27.8906 13.9453 27.8906ZM13.9453 25.5664C7.51953 25.5664 2.32422 20.3711 2.32422 13.9453C2.32422 7.51953 7.51953 2.32422 13.9453 2.32422C20.3711 2.32422 25.5664 7.51953 25.5664 13.9453C25.5664 20.3711 20.3711 25.5664 13.9453 25.5664Z" style="fill:var(--color-0,hsl(0 0 0/0.85))"></path>
  <path d="M8.05273 17.2402L14.834 17.2402C16.6797 17.2402 18.0879 15.832 18.0879 14.0273C18.0879 12.2637 16.666 10.9238 14.7793 10.8828C14.041 9.50195 12.7285 8.6543 11.1562 8.6543C9.07812 8.6543 7.32812 10.2676 7.10938 12.332C6.07031 12.6875 5.3457 13.5898 5.3457 14.752C5.3457 16.1875 6.43945 17.2402 8.05273 17.2402ZM8.58594 20.1387L9.36523 18.7988C9.51562 18.5664 9.43359 18.2656 9.17383 18.1289C8.94141 17.9785 8.64062 18.0742 8.51758 18.3066L7.73828 19.6465C7.60156 19.8789 7.66992 20.1934 7.91602 20.3164C8.14844 20.4531 8.46289 20.3711 8.58594 20.1387ZM10.3359 21.5879L11.0605 20.3301C11.1973 20.0977 11.1289 19.7832 10.8691 19.6465C10.623 19.5234 10.3359 19.5918 10.1855 19.8379L9.44727 21.0957C9.31055 21.3418 9.40625 21.6426 9.66602 21.7793C9.88477 21.916 10.1992 21.8203 10.3359 21.5879ZM13.002 20.1387L13.7812 18.8125C13.9316 18.5664 13.8359 18.2793 13.5898 18.1289C13.3438 17.9922 13.043 18.0605 12.9062 18.293L12.1406 19.6328C12.0176 19.8652 12.0723 20.1797 12.332 20.3164C12.5781 20.4395 12.8652 20.3574 13.002 20.1387ZM14.7383 21.6016L15.4766 20.3301C15.5996 20.0977 15.5312 19.7695 15.2852 19.6465C15.0391 19.5234 14.752 19.6055 14.6016 19.8379L13.8633 21.0957C13.7266 21.3418 13.8223 21.6426 14.0684 21.7793C14.3008 21.916 14.6016 21.8203 14.7383 21.6016ZM22.5859 10.541C22.5859 10.2949 22.4766 10.1309 22.2715 10.1309C21.9707 10.1309 21.4648 10.5137 20.5898 10.5137C18.9902 10.5137 17.9785 9.58398 17.9785 8.10742C17.9785 7.25977 18.457 6.64453 18.457 6.28906C18.457 6.09766 18.293 5.96094 18.0469 5.97461C16.748 6.0293 15.1348 7.56055 14.916 9.44727C15.0664 9.61133 15.1895 9.78906 15.3262 9.9668C17.3496 10.2129 18.8398 11.7168 19.0312 13.6582C21.2324 13.4258 22.5859 11.6895 22.5859 10.541Z" style="fill:var(--color-1,hsl(0 0 0/0.85))"></path>
 </g>
</svg>