<svg version="1.1" xmlns="http://www.w3.org/2000/svg" xmlns:xlink="http://www.w3.org/1999/xlink" viewBox="0 0 37.4609 35.9896">
 <g>
  
  <path d="M17.3496 26.9567L16.1013 29.322L18.8125 29.322C19.209 29.322 19.3047 29.6911 19.0176 29.9782L13.2344 35.8298C13.1113 35.9802 12.9609 36.0212 12.8379 35.9665C12.7012 35.9118 12.6602 35.7751 12.7422 35.5837L14.4986 31.3591L12.209 31.3591C11.8672 31.3591 11.7168 31.154 11.8535 30.8259L13.6035 26.8473C13.7266 26.5739 13.8496 26.4372 14.2324 26.4372L17.0898 26.4372C17.3906 26.4372 17.5137 26.6559 17.3496 26.9567Z" style="fill:var(--color-0,white)"></path>
  <path d="M28.752 1.92352C28.752 2.64813 27.7949 3.96063 27.7949 5.77899C27.7949 8.90985 29.8184 10.8513 33.209 10.8513C35.123 10.8513 36.1211 9.97625 36.791 9.97625C37.2285 9.97625 37.4609 10.3591 37.4609 10.8923C37.4609 12.9515 35.2735 16.6514 30.7452 17.2703C30.5827 13.0238 27.3057 9.79978 22.9277 9.34735C22.5205 8.70544 22.0619 8.11969 21.5558 7.59786C22.3194 3.87586 25.4833 1.32173 27.918 1.22625C28.4648 1.21258 28.752 1.49969 28.752 1.92352Z" style="fill:var(--color-1,white)"></path>
  <path d="M7.38281 24.3454L22.1758 24.3454C26.0586 24.3454 29.0664 21.4059 29.0664 17.6188C29.0664 13.8591 26.0039 11.0153 21.916 10.988C20.3164 7.92547 17.4727 6.1618 14.1641 6.1618C9.7207 6.1618 5.94727 9.60711 5.53711 14.1052C3.19922 14.8024 1.70898 16.7712 1.70898 19.1774C1.70898 22.2399 4.01953 24.3454 7.38281 24.3454Z" style="fill:var(--color-2,white)"></path>
 </g>
</svg>