<svg version="1.1" xmlns="http://www.w3.org/2000/svg" xmlns:xlink="http://www.w3.org/1999/xlink" viewBox="0 0 28.2461 27.9043">
 <g>
  
  <path d="M13.9453 27.8906C21.6426 27.8906 27.8906 21.6426 27.8906 13.9453C27.8906 6.24805 21.6426 0 13.9453 0C6.24805 0 0 6.24805 0 13.9453C0 21.6426 6.24805 27.8906 13.9453 27.8906ZM13.9453 25.5664C7.51953 25.5664 2.32422 20.3711 2.32422 13.9453C2.32422 7.51953 7.51953 2.32422 13.9453 2.32422C20.3711 2.32422 25.5664 7.51953 25.5664 13.9453C25.5664 20.3711 20.3711 25.5664 13.9453 25.5664Z" style="fill:var(--color-0,hsl(0 0 0/0.85))"></path>
  <path d="M9.54297 15.9141L17.6914 15.9141C19.8105 15.9141 21.4375 14.2734 21.4375 12.2637C21.4375 10.1719 19.7285 8.64062 17.5137 8.64062C16.6797 7.02734 15.1621 5.97461 13.2754 5.97461C10.8145 5.97461 8.77734 7.91602 8.54492 10.3633C7.36914 10.7051 6.4668 11.7305 6.4668 13.1113C6.4668 14.6562 7.58789 15.9141 9.54297 15.9141ZM9.10547 21.1504C9.32422 21.1504 9.47461 20.9453 9.46094 20.7266L9.41992 19.9062L10.0898 20.3711C10.2676 20.4941 10.5273 20.4258 10.6367 20.2617C10.7734 20.0977 10.7051 19.8105 10.459 19.7012L9.73438 19.3457L10.459 18.9629C10.6914 18.8398 10.7461 18.6211 10.6504 18.4297C10.5547 18.2383 10.2676 18.1973 10.0898 18.3066L9.41992 18.7852L9.46094 17.9648C9.47461 17.7188 9.32422 17.541 9.10547 17.541C8.85938 17.541 8.69531 17.7188 8.70898 17.9512L8.76367 18.7852L8.06641 18.3066C7.90234 18.1973 7.64258 18.2246 7.54688 18.4297C7.4375 18.5938 7.47852 18.8398 7.71094 18.9766L8.43555 19.3457L7.71094 19.7012C7.46484 19.8105 7.4375 20.0703 7.51953 20.248C7.61523 20.4531 7.88867 20.4941 8.06641 20.3711L8.76367 19.9062L8.72266 20.7266C8.70898 20.9453 8.85938 21.1504 9.10547 21.1504ZM13.6172 21.1504C13.8359 21.1504 13.9863 20.9453 13.9727 20.7266L13.9316 19.9062L14.6016 20.3711C14.7656 20.4941 15.0391 20.4258 15.1484 20.2617C15.2852 20.0977 15.2168 19.8105 14.9707 19.7012L14.2461 19.3457L14.9707 18.9629C15.2031 18.8398 15.2578 18.6211 15.1621 18.4297C15.0664 18.2383 14.7793 18.1973 14.6016 18.3066L13.9316 18.7852L13.9727 17.9648C13.9863 17.7188 13.8359 17.541 13.6172 17.541C13.3711 17.541 13.207 17.7188 13.2207 17.9512L13.2754 18.7852L12.5781 18.3066C12.4141 18.1973 12.1543 18.2246 12.0586 18.4297C11.9492 18.5938 11.9902 18.8398 12.2227 18.9766L12.9473 19.3457L12.2227 19.7012C11.9766 19.8105 11.9492 20.0703 12.0312 20.248C12.127 20.4531 12.4004 20.4941 12.5781 20.3711L13.2754 19.9062L13.2344 20.7266C13.2207 20.9453 13.3711 21.1504 13.6172 21.1504ZM18.1152 21.1504C18.3477 21.1504 18.498 20.9453 18.4844 20.7266L18.4434 19.9062L19.1133 20.3711C19.2773 20.4941 19.5508 20.4258 19.6602 20.2617C19.7832 20.0977 19.7285 19.8105 19.4824 19.7012L18.7578 19.3457L19.4824 18.9629C19.7148 18.8398 19.7695 18.6211 19.6738 18.4297C19.5645 18.2383 19.291 18.1973 19.1133 18.3066L18.4434 18.7852L18.4844 17.9648C18.498 17.7188 18.3477 17.541 18.1152 17.541C17.8828 17.541 17.7188 17.7188 17.7324 17.9512L17.7871 18.7852L17.0898 18.3066C16.9258 18.1973 16.666 18.2246 16.5566 18.4297C16.4609 18.5938 16.4883 18.8398 16.7344 18.9766L17.459 19.3457L16.7344 19.7012C16.4883 19.8105 16.4609 20.0703 16.543 20.248C16.6387 20.4531 16.9121 20.4941 17.0898 20.3711L17.7871 19.9062L17.7461 20.7266C17.7324 20.9453 17.8828 21.1504 18.1152 21.1504Z" style="fill:var(--color-1,hsl(0 0 0/0.85))"></path>
 </g>
</svg>