<svg version="1.1" xmlns="http://www.w3.org/2000/svg" xmlns:xlink="http://www.w3.org/1999/xlink" viewBox="0 0 37.9258 25.6895">
 <g>
  
  <path d="M28.7383 1.57227C28.7383 2.29688 27.7812 3.60938 27.7812 5.42773C27.7812 8.55859 29.791 10.5 33.1816 10.5C35.1094 10.5 36.1074 9.625 36.7773 9.625C37.2148 9.625 37.4473 10.0078 37.4473 10.541C37.4473 12.6003 35.2598 16.3002 30.7315 16.9191C30.5683 12.6725 27.2787 9.44852 22.9141 8.99609C22.5069 8.35419 22.0482 7.76843 21.5421 7.2466C22.3057 3.52461 25.4696 0.970477 27.9043 0.875C28.4512 0.861328 28.7383 1.14844 28.7383 1.57227Z" style="fill:var(--color-0,white)"></path>
  <path d="M7.36914 23.9941L22.1621 23.9941C26.0449 23.9941 29.0527 21.0547 29.0527 17.2676C29.0527 13.5078 25.9902 10.6641 21.9023 10.6367C20.3027 7.57422 17.4453 5.79688 14.1504 5.79688C9.69336 5.79688 5.93359 9.25586 5.50977 13.7539C3.18555 14.4512 1.69531 16.4199 1.69531 18.8262C1.69531 21.8887 4.00586 23.9941 7.36914 23.9941Z" style="fill:var(--color-1,white)"></path>
 </g>
</svg>