<svg version="1.1" xmlns="http://www.w3.org/2000/svg" xmlns:xlink="http://www.w3.org/1999/xlink" viewBox="0 0 32.252 32.2793">
 <g>
  
  <path d="M23.5566 26.168L24.4727 24.5547C24.7188 24.1445 24.5957 23.6523 24.1855 23.4062C23.7754 23.1738 23.2969 23.3242 23.0508 23.7207L22.1211 25.375C21.9023 25.7578 21.998 26.2363 22.4219 26.4824C22.832 26.7148 23.3242 26.5645 23.5566 26.168ZM21.1367 30.2422C21.9434 30.2422 22.6133 29.5586 22.6133 28.7383C22.6133 27.9453 21.9434 27.2617 21.1367 27.2617C20.3164 27.2617 19.6465 27.9453 19.6465 28.7383C19.6465 29.5586 20.3164 30.2422 21.1367 30.2422Z" style="fill:var(--color-0,white)"></path>
  <path d="M15.1895 28.2051L17.3223 24.5137C17.5547 24.0898 17.4316 23.6113 17.0352 23.3789C16.6113 23.1328 16.1328 23.2695 15.9004 23.6934L13.7539 27.4121C13.5215 27.8086 13.6445 28.2871 14.0684 28.5195C14.4648 28.752 14.9707 28.6152 15.1895 28.2051ZM12.7695 32.2793C13.5762 32.2793 14.2598 31.5957 14.2598 30.7754C14.2598 29.9824 13.5898 29.3125 12.7695 29.3125C11.9629 29.3125 11.293 29.9824 11.293 30.7754C11.293 31.5957 11.9629 32.2793 12.7695 32.2793Z" style="fill:var(--color-1,white)"></path>
  <path d="M9.22852 26.1133L10.1445 24.5C10.3906 24.0898 10.2676 23.5977 9.85742 23.3516C9.44727 23.1191 8.96875 23.2695 8.72266 23.666L7.79297 25.3203C7.57422 25.7031 7.66992 26.1816 8.09375 26.4277C8.50391 26.6602 8.99609 26.5234 9.22852 26.1133ZM6.80859 30.1875C7.61523 30.1875 8.28516 29.5039 8.28516 28.6836C8.28516 27.8906 7.61523 27.2207 6.80859 27.2207C5.98828 27.2207 5.31836 27.8906 5.31836 28.6836C5.31836 29.5039 5.98828 30.1875 6.80859 30.1875Z" style="fill:var(--color-2,white)"></path>
  <path d="M7.46484 21.1914L24.4316 21.1914C28.916 21.1914 32.252 17.7871 32.252 13.5762C32.252 9.21484 28.6973 6.0293 24.0625 6.0293C22.3535 2.65234 19.1816 0.478516 15.2305 0.478516C10.0898 0.478516 5.85156 4.51172 5.40039 9.58398C2.92578 10.3086 1.03906 12.4551 1.03906 15.3398C1.03906 18.5801 3.39062 21.1914 7.46484 21.1914Z" style="fill:var(--color-3,white)"></path>
 </g>
</svg>