<svg version="1.1" xmlns="http://www.w3.org/2000/svg" xmlns:xlink="http://www.w3.org/1999/xlink" viewBox="0 0 37.8027 34.4192">
 <g>
  
  <path d="M23.9531 29.7536C24.3633 29.9997 24.5 30.4782 24.2539 30.8883L22.4766 33.9782C22.2441 34.3883 21.752 34.525 21.3418 34.2926C20.918 34.0465 20.8086 33.568 21.041 33.1852L22.832 30.068C23.0781 29.6579 23.543 29.5211 23.9531 29.7536Z" style="fill:var(--color-0,#55bef0)"></path>
  <path d="M19.6875 25.9118C20.084 26.1442 20.2207 26.6227 19.9746 27.0465L18.1973 30.1227C17.9648 30.5329 17.4727 30.6696 17.0625 30.4508C16.6387 30.2047 16.5293 29.7262 16.7617 29.3297L18.5527 26.2262C18.7988 25.8024 19.2637 25.6657 19.6875 25.9118Z" style="fill:var(--color-1,#55bef0)"></path>
  <path d="M13.084 29.7672C13.4941 30.0133 13.6309 30.4918 13.3711 30.902L11.5938 33.9918C11.3613 34.402 10.8691 34.5387 10.4727 34.3063C10.0488 34.0602 9.92578 33.5817 10.1582 33.1989L11.9492 30.0817C12.209 29.6715 12.6738 29.5348 13.084 29.7672Z" style="fill:var(--color-2,#55bef0)"></path>
  <path d="M8.80469 25.9254C9.21484 26.1579 9.35156 26.6364 9.10547 27.0602L7.31445 30.1364C7.08203 30.5465 6.58984 30.6833 6.19336 30.4645C5.76953 30.2184 5.64648 29.7399 5.87891 29.3434L7.66992 26.2399C7.92969 25.8161 8.39453 25.6793 8.80469 25.9254Z" style="fill:var(--color-3,#55bef0)"></path>
  <path d="M29.1074 1.17935C29.1074 1.90396 28.1367 3.23013 28.1367 5.03482C28.1367 8.17935 30.1602 10.1071 33.5508 10.1071C35.4785 10.1071 36.4629 9.23208 37.1328 9.23208C37.5703 9.23208 37.8027 9.62857 37.8027 10.1618C37.8027 12.2086 35.6151 15.9076 31.0864 16.5263C30.918 12.2733 27.6431 9.05516 23.2695 8.60317C22.8621 7.96371 22.4031 7.3793 21.8967 6.85804C22.6593 3.13669 25.826 0.591262 28.2734 0.495753C28.8066 0.482081 29.1074 0.755518 29.1074 1.17935Z" style="fill:var(--color-4,white)"></path>
  <path d="M7.72461 23.6012L22.5312 23.6012C26.4004 23.6012 29.4082 20.6754 29.4082 16.8883C29.4082 13.1149 26.3457 10.2711 22.2578 10.2438C20.6582 7.19497 17.8145 5.41763 14.5059 5.41763C10.0625 5.41763 6.28906 8.87661 5.87891 13.361C3.55469 14.0583 2.06445 16.027 2.06445 18.4333C2.06445 21.4958 4.375 23.6012 7.72461 23.6012Z" style="fill:var(--color-5,white)"></path>
 </g>
</svg>