<?xml version="1.0" encoding="UTF-8"?>
<!--Generator: Apple Native CoreSVG 326-->
<!DOCTYPE svg
PUBLIC "-//W3C//DTD SVG 1.1//EN"
       "http://www.w3.org/Graphics/SVG/1.1/DTD/svg11.dtd">
<svg version="1.1" xmlns="http://www.w3.org/2000/svg" xmlns:xlink="http://www.w3.org/1999/xlink" viewBox="0 0 32.252 35.8613">
 <g>
  <rect height="35.8613" opacity="0" width="32.252" x="0" y="0"/>
  <path d="M21.0273 33.8242C21.2734 33.8242 21.4512 33.5918 21.4375 33.332L21.3418 32.0332L22.4355 32.7715C22.627 32.9082 22.9277 32.8535 23.0645 32.6484C23.2012 32.4434 23.1191 32.1289 22.8594 32.0059L21.6836 31.4316L22.873 30.8438C23.1191 30.7207 23.1875 30.4199 23.0781 30.2148C22.9551 29.9961 22.627 29.9551 22.4355 30.0918L21.3418 30.8438L21.4512 29.5312C21.4785 29.2578 21.2734 29.0391 21.0273 29.0391C20.7402 29.0391 20.5625 29.2578 20.5762 29.5312L20.6719 30.8438L19.5645 30.0918C19.373 29.9551 19.0859 29.9824 18.9492 30.2148C18.8262 30.4199 18.8809 30.7207 19.1406 30.8438L20.3164 31.4316L19.1406 32.0059C18.8809 32.1289 18.8125 32.4297 18.9355 32.6484C19.0586 32.8672 19.373 32.9082 19.5645 32.7715L20.6719 32.0469L20.5898 33.332C20.5762 33.5918 20.7402 33.8242 21.0273 33.8242Z" fill="white"/>
  <path d="M13.2207 35.8613C13.4805 35.8613 13.6445 35.6289 13.6309 35.3828L13.5488 34.084L14.6289 34.8086C14.834 34.9453 15.1348 34.8906 15.2715 34.6855C15.4082 34.4805 15.3262 34.166 15.0664 34.043L13.8906 33.4824L15.0801 32.8945C15.3262 32.7715 15.3945 32.4707 15.2852 32.252C15.1621 32.0332 14.834 31.9922 14.6289 32.1289L13.5488 32.8945L13.6445 31.5684C13.6719 31.3086 13.4805 31.0898 13.2207 31.0898C12.9336 31.0898 12.7695 31.3086 12.7832 31.5684L12.8652 32.8945L11.7715 32.1289C11.5664 31.9922 11.2793 32.0195 11.1426 32.252C11.0195 32.4707 11.0742 32.7578 11.334 32.8945L12.5234 33.4824L11.334 34.0566C11.0742 34.1797 11.0059 34.4668 11.1289 34.6855C11.252 34.918 11.5664 34.959 11.7715 34.8223L12.8652 34.084L12.7969 35.3828C12.7832 35.6289 12.9336 35.8613 13.2207 35.8613Z" fill="white"/>
  <path d="M6.69922 33.7695C6.94531 33.7695 7.12305 33.5371 7.10938 33.291L7.01367 31.9785L8.10742 32.7168C8.29883 32.8535 8.61328 32.7988 8.73633 32.5938C8.87305 32.3887 8.79102 32.0742 8.53125 31.9512L7.35547 31.377L8.54492 30.7891C8.79102 30.666 8.85938 30.3789 8.75 30.1602C8.64062 29.9414 8.29883 29.9004 8.10742 30.0371L7.01367 30.7891L7.12305 29.4766C7.15039 29.2168 6.94531 28.998 6.69922 28.998C6.41211 28.998 6.23438 29.2168 6.24805 29.4766L6.34375 30.7891L5.23633 30.0371C5.04492 29.9004 4.75781 29.9277 4.62109 30.1602C4.49805 30.3789 4.55273 30.666 4.8125 30.7891L5.98828 31.377L4.8125 31.9512C4.55273 32.0742 4.48438 32.375 4.60742 32.5938C4.73047 32.8262 5.04492 32.8672 5.23633 32.7305L6.34375 31.9922L6.26172 33.291C6.24805 33.5371 6.41211 33.7695 6.69922 33.7695Z" fill="white"/>
  <path d="M23.5566 27.959L24.4727 26.3457C24.7188 25.9355 24.5957 25.4434 24.1855 25.1973C23.7754 24.9648 23.2969 25.1152 23.0508 25.5117L22.1211 27.166C21.9023 27.5488 21.998 28.0273 22.4219 28.2734C22.832 28.5059 23.3242 28.3555 23.5566 27.959Z" fill="#5ac8f5"/>
  <path d="M15.1895 29.9961L17.3223 26.3047C17.5547 25.8809 17.4316 25.4023 17.0352 25.1699C16.6113 24.9238 16.1328 25.0605 15.9004 25.4844L13.7539 29.2031C13.5215 29.5996 13.6445 30.0781 14.0684 30.3105C14.4648 30.543 14.9707 30.4062 15.1895 29.9961Z" fill="#5ac8f5"/>
  <path d="M9.22852 27.9043L10.1445 26.291C10.3906 25.8809 10.2676 25.3887 9.85742 25.1426C9.44727 24.9102 8.96875 25.0605 8.72266 25.457L7.79297 27.1113C7.57422 27.4941 7.66992 27.9727 8.09375 28.2188C8.50391 28.4512 8.99609 28.3145 9.22852 27.9043Z" fill="#5ac8f5"/>
  <path d="M7.46484 22.9824L24.4316 22.9824C28.916 22.9824 32.252 19.5781 32.252 15.3672C32.252 11.0059 28.6973 7.82031 24.0625 7.82031C22.3535 4.44336 19.1816 2.26953 15.2305 2.26953C10.0898 2.26953 5.85156 6.30273 5.40039 11.375C2.92578 12.0996 1.03906 14.2461 1.03906 17.1309C1.03906 20.3711 3.39062 22.9824 7.46484 22.9824Z" fill="white"/>
 </g>
</svg>
