<svg version="1.1" xmlns="http://www.w3.org/2000/svg" xmlns:xlink="http://www.w3.org/1999/xlink" viewBox="0 0 41.9727 29.5449">
 <g>
  
  <path d="M35.7383 20.9316L37.8574 23.0371C38.2949 23.4746 38.2949 24.1992 37.8574 24.623C37.4199 25.0605 36.6953 25.0879 36.2715 24.6367L34.1387 22.5312C33.7012 22.0938 33.7012 21.3691 34.1387 20.9316C34.5762 20.5078 35.3008 20.5078 35.7383 20.9316ZM34.5762 14.6016C34.5762 17.0386 33.2609 19.1938 31.3111 20.3834C30.9283 16.4058 27.7343 13.4113 23.543 12.9883C23.1058 12.2981 22.6051 11.6686 22.046 11.1115C23.2331 9.14697 25.3891 7.82031 27.8223 7.82031C31.5137 7.82031 34.5762 10.8965 34.5762 14.6016ZM41.9727 14.6016C41.9727 15.2305 41.4668 15.7363 40.8516 15.7363L37.8848 15.7363C37.2832 15.7363 36.75 15.2305 36.75 14.6016C36.75 14 37.2832 13.4668 37.8848 13.4668L40.8516 13.4668C41.4668 13.4668 41.9727 14 41.9727 14.6016ZM37.8574 4.58008C38.2949 5.01758 38.2949 5.75586 37.8574 6.19336L35.752 8.28516C35.3008 8.73633 34.5762 8.72266 34.1387 8.28516C33.7012 7.84766 33.7012 7.12305 34.1387 6.69922L36.2715 4.58008C36.6953 4.14258 37.4199 4.14258 37.8574 4.58008ZM19.4004 4.58008L21.5059 6.69922C21.9297 7.10938 21.9297 7.86133 21.4922 8.28516C21.0547 8.72266 20.3301 8.72266 19.8926 8.28516L17.8008 6.17969C17.3633 5.75586 17.377 5.01758 17.8145 4.58008C18.252 4.14258 18.9766 4.15625 19.4004 4.58008ZM28.957 1.54492L28.957 4.52539C28.957 5.12695 28.4375 5.64648 27.8223 5.64648C27.207 5.64648 26.6875 5.12695 26.6875 4.52539L26.6875 1.54492C26.6875 0.943359 27.207 0.410156 27.8223 0.410156C28.4375 0.410156 28.957 0.943359 28.957 1.54492Z" style="fill:var(--color-0,#ffcc00)"></path>
  <path d="M8.05273 27.9453L22.8457 27.9453C26.7422 27.9453 29.7637 24.9922 29.7637 21.1914C29.7637 17.418 26.6875 14.5605 22.5996 14.5332C21.0273 11.5391 18.1973 9.70703 14.8203 9.70703C10.3633 9.70703 6.58984 13.166 6.16602 17.6641C3.89648 18.3477 2.35156 20.2891 2.35156 22.75C2.35156 25.7852 4.63477 27.9453 8.05273 27.9453Z" style="fill:var(--color-1,white)"></path>
 </g>
</svg>