<?xml version="1.0" encoding="UTF-8"?>
<!--Generator: Apple Native CoreSVG 326-->
<!DOCTYPE svg
PUBLIC "-//W3C//DTD SVG 1.1//EN"
       "http://www.w3.org/Graphics/SVG/1.1/DTD/svg11.dtd">
<svg version="1.1" xmlns="http://www.w3.org/2000/svg" xmlns:xlink="http://www.w3.org/1999/xlink" viewBox="0 0 28.2461 27.9043">
 <g>
  <rect height="27.9043" opacity="0" width="28.2461" x="0" y="0"/>
  <path d="M13.9453 27.9043C21.6426 27.9043 27.8906 21.6562 27.8906 13.959C27.8906 6.27539 21.6426 0.0136719 13.9453 0.0136719C6.26172 0.0136719 0 6.27539 0 13.959C0 21.6562 6.26172 27.9043 13.9453 27.9043Z" fill="white" fill-opacity="0.85"/>
  <path d="M9.41992 15.8457C7.41016 15.8457 6.24805 14.5469 6.24805 12.9609C6.24805 11.5391 7.17773 10.4727 8.39453 10.1172C8.62695 7.60156 10.7324 5.60547 13.2617 5.60547C15.2168 5.60547 16.7754 6.69922 17.6367 8.36719C19.9199 8.36719 21.6836 9.92578 21.6836 12.0859C21.6836 14.1777 20.002 15.8457 17.8145 15.8457ZM9.84375 19.8652C9.67969 20.1797 9.2832 20.2891 8.98242 20.1113C8.6543 19.9336 8.55859 19.5234 8.73633 19.2227L9.73438 17.5C9.91211 17.1855 10.3086 17.0898 10.6094 17.2539C10.9238 17.4453 11.0332 17.8418 10.8418 18.1426ZM12.1953 21.9707C12.0176 22.2578 11.6348 22.3809 11.334 22.2031C11.0059 22.0254 10.9102 21.6289 11.0879 21.3145L12.0996 19.5918C12.2637 19.291 12.6602 19.168 12.9609 19.3457C13.2891 19.5234 13.3848 19.9199 13.1934 20.2344ZM15.8047 19.8516C15.6406 20.166 15.2441 20.2754 14.9434 20.0977C14.6152 19.9199 14.5195 19.5098 14.7109 19.209L15.709 17.4863C15.873 17.1719 16.2695 17.0762 16.5703 17.2402C16.8984 17.4316 16.9941 17.8281 16.8027 18.1289ZM18.1562 21.9707C17.9922 22.2578 17.5957 22.3809 17.2949 22.2031C16.9805 22.0254 16.8711 21.6289 17.0625 21.3145L18.0605 19.5918C18.2246 19.291 18.6211 19.168 18.9219 19.3457C19.25 19.5234 19.3457 19.9199 19.1816 20.2344Z" fill="white"/>
 </g>
</svg>
