<svg version="1.1" xmlns="http://www.w3.org/2000/svg" xmlns:xlink="http://www.w3.org/1999/xlink" viewBox="0 0 32.252 31.4388">
 <g>
  
  <path d="M22.9824 30.9977L24.7598 27.9215C25.0059 27.4977 24.8691 27.0192 24.459 26.7868C24.0488 26.5407 23.584 26.6774 23.3379 27.1012L21.5332 30.2047C21.3145 30.6012 21.4238 31.0797 21.8477 31.3122C22.2578 31.5446 22.75 31.4079 22.9824 30.9977Z" style="fill:var(--color-0,hsl(0 0 0/0.85))"></path>
  <path d="M18.7031 27.1559L20.4805 24.0661C20.7266 23.6559 20.5898 23.1774 20.1797 22.9313C19.7695 22.6989 19.3047 22.8219 19.0586 23.2458L17.2676 26.3629C17.0352 26.7458 17.1445 27.2243 17.5684 27.4704C17.9785 27.7028 18.4707 27.5524 18.7031 27.1559Z" style="fill:var(--color-1,hsl(0 0 0/0.85))"></path>
  <path d="M12.0996 31.0114L13.877 27.9352C14.123 27.5114 14 27.0329 13.5898 26.8004C13.166 26.5543 12.7012 26.6911 12.4551 27.1149L10.6641 30.2184C10.4316 30.6149 10.5547 31.0934 10.9648 31.3258C11.375 31.5583 11.8672 31.4215 12.0996 31.0114Z" style="fill:var(--color-2,hsl(0 0 0/0.85))"></path>
  <path d="M7.82031 27.1696L9.59766 24.0797C9.85742 23.6696 9.7207 23.1911 9.31055 22.945C8.90039 22.7125 8.43555 22.8356 8.17578 23.2594L6.38477 26.3766C6.15234 26.7594 6.27539 27.2379 6.69922 27.484C7.0957 27.7165 7.58789 27.5661 7.82031 27.1696Z" style="fill:var(--color-3,hsl(0 0 0/0.85))"></path>
  <path d="M7.46484 20.7711L24.4316 20.7711C28.916 20.7711 32.252 17.3668 32.252 13.1559C32.252 8.79458 28.6973 5.60903 24.0625 5.60903C22.3535 2.23208 19.1816 0.0582526 15.2305 0.0582526C10.0898 0.0582526 5.85156 4.09146 5.40039 9.16372C2.92578 9.88833 1.03906 12.0348 1.03906 14.9196C1.03906 18.1598 3.39062 20.7711 7.46484 20.7711ZM7.4375 18.5836C4.63477 18.5836 3.22656 17.0114 3.22656 14.9879C3.22656 13.3473 4.18359 11.8708 6.50781 11.2555C7.25977 11.0504 7.5332 10.695 7.60156 9.92935C7.91602 5.45864 11.2656 2.24575 15.2305 2.24575C18.3066 2.24575 20.7266 3.94107 22.2031 6.96255C22.5176 7.63247 22.9277 7.86489 23.7344 7.86489C27.7812 7.86489 30.0645 10.2985 30.0645 13.2106C30.0645 16.1911 27.6855 18.5836 24.5684 18.5836Z" style="fill:var(--color-4,hsl(0 0 0/0.85))"></path>
 </g>
</svg>