<?xml version="1.0" encoding="UTF-8"?>
<!--Generator: Apple Native CoreSVG 326-->
<!DOCTYPE svg
PUBLIC "-//W3C//DTD SVG 1.1//EN"
       "http://www.w3.org/Graphics/SVG/1.1/DTD/svg11.dtd">
<svg version="1.1" xmlns="http://www.w3.org/2000/svg" xmlns:xlink="http://www.w3.org/1999/xlink" viewBox="0 0 32.252 34.0293">
 <g>
  <rect height="34.0293" opacity="0" width="32.252" x="0" y="0"/>
  <path d="M20.4258 34.0293C20.6719 34.0293 20.8496 33.7832 20.8359 33.5371L20.7402 32.2383L21.834 32.9766C22.0254 33.0996 22.3398 33.0449 22.4766 32.8398C22.5996 32.6348 22.5312 32.3203 22.2578 32.1973L21.082 31.6367L22.2715 31.0488C22.5312 30.9258 22.5859 30.625 22.4902 30.4199C22.3672 30.2012 22.0254 30.1602 21.834 30.2832L20.7402 31.0488L20.8496 29.7227C20.877 29.4629 20.6719 29.2441 20.4258 29.2441C20.1387 29.2441 19.9746 29.4629 19.9883 29.7227L20.0703 31.0488L18.9629 30.2832C18.7715 30.1602 18.4844 30.1875 18.3477 30.4199C18.2246 30.625 18.2793 30.9121 18.5391 31.0488L19.7148 31.6367L18.5391 32.2109C18.2793 32.334 18.2109 32.6211 18.334 32.8398C18.457 33.0723 18.7715 33.1133 18.9629 32.9766L20.0703 32.2383L20.002 33.5371C19.9883 33.7832 20.1387 34.0293 20.4258 34.0293Z" fill="white"/>
  <path d="M12.8516 34.0293C13.0977 34.0293 13.2754 33.7832 13.2617 33.5371L13.1797 32.2383L14.2598 32.9766C14.4512 33.0996 14.7656 33.0449 14.9023 32.8398C15.0254 32.6348 14.957 32.3203 14.6836 32.1973L13.5078 31.6367L14.6973 31.0488C14.957 30.9258 15.0117 30.625 14.916 30.4199C14.793 30.2012 14.4512 30.1602 14.2598 30.2832L13.1797 31.0488L13.2754 29.7227C13.3027 29.4629 13.0977 29.2441 12.8516 29.2441C12.5645 29.2441 12.4004 29.4629 12.4141 29.7227L12.4961 31.0488L11.3887 30.2832C11.1973 30.1602 10.9102 30.1875 10.7734 30.4199C10.6504 30.625 10.7051 30.9121 10.9648 31.0488L12.1406 31.6367L10.9648 32.2109C10.7051 32.334 10.6367 32.6211 10.7598 32.8398C10.8828 33.0723 11.1973 33.1133 11.3887 32.9766L12.4961 32.2383L12.4277 33.5371C12.4141 33.7832 12.5645 34.0293 12.8516 34.0293Z" fill="white"/>
  <path d="M5.27734 34.0293C5.52344 34.0293 5.70117 33.7832 5.6875 33.5371L5.60547 32.2383L6.68555 32.9766C6.89062 33.0996 7.19141 33.0449 7.32812 32.8398C7.45117 32.6348 7.38281 32.3203 7.10938 32.1973L5.94727 31.6367L7.12305 31.0488C7.38281 30.9258 7.4375 30.625 7.3418 30.4199C7.21875 30.2012 6.89062 30.1602 6.68555 30.2832L5.60547 31.0488L5.70117 29.7227C5.72852 29.4629 5.52344 29.2441 5.27734 29.2441C4.99023 29.2441 4.82617 29.4629 4.83984 29.7227L4.92188 31.0488L3.82812 30.2832C3.62305 30.1602 3.33594 30.1875 3.19922 30.4199C3.07617 30.625 3.13086 30.9121 3.39062 31.0488L4.56641 31.6367L3.39062 32.2109C3.13086 32.334 3.0625 32.6211 3.18555 32.8398C3.30859 33.0723 3.62305 33.1133 3.82812 32.9766L4.92188 32.2383L4.85352 33.5371C4.83984 33.7832 4.99023 34.0293 5.27734 34.0293Z" fill="white"/>
  <path d="M23.3926 28.8887C23.6387 28.8887 23.8164 28.6562 23.8027 28.4102L23.707 27.0977L24.8008 27.8359C24.9922 27.9727 25.3066 27.918 25.4434 27.7129C25.5664 27.5078 25.498 27.1934 25.2246 27.0703L24.0488 26.4961L25.2383 25.9082C25.498 25.7852 25.5527 25.498 25.457 25.2793C25.334 25.0605 24.9922 25.0195 24.8008 25.1562L23.707 25.9082L23.8164 24.5957C23.8438 24.3359 23.6387 24.1172 23.3926 24.1172C23.1055 24.1172 22.9414 24.3359 22.9551 24.5957L23.0371 25.9082L21.9297 25.1562C21.7383 25.0195 21.4512 25.0469 21.3145 25.2793C21.1914 25.498 21.2461 25.7852 21.5059 25.9082L22.6816 26.4961L21.5059 27.0703C21.2461 27.1934 21.1777 27.4941 21.3008 27.7129C21.4238 27.9316 21.7383 27.9727 21.9297 27.8496L23.0371 27.1113L22.9688 28.4102C22.9551 28.6562 23.1055 28.8887 23.3926 28.8887Z" fill="white"/>
  <path d="M15.8184 28.8887C16.0645 28.8887 16.2422 28.6562 16.2285 28.4102L16.1465 27.0977L17.2266 27.8359C17.418 27.9727 17.7324 27.918 17.8691 27.7129C17.9922 27.5078 17.9238 27.1934 17.6504 27.0703L16.4746 26.4961L17.6641 25.9082C17.9238 25.7852 17.9785 25.498 17.8828 25.2793C17.7598 25.0605 17.418 25.0195 17.2266 25.1562L16.1465 25.9082L16.2422 24.5957C16.2695 24.3359 16.0645 24.1172 15.8184 24.1172C15.5312 24.1172 15.3672 24.3359 15.3809 24.5957L15.4629 25.9082L14.3555 25.1562C14.1641 25.0195 13.877 25.0469 13.7402 25.2793C13.6172 25.498 13.6719 25.7852 13.9316 25.9082L15.1074 26.4961L13.9316 27.0703C13.6719 27.1934 13.6035 27.4941 13.7266 27.7129C13.8496 27.9316 14.1641 27.9727 14.3555 27.8496L15.4629 27.1113L15.3945 28.4102C15.3809 28.6562 15.5312 28.8887 15.8184 28.8887Z" fill="white"/>
  <path d="M8.24414 28.8887C8.49023 28.8887 8.66797 28.6562 8.6543 28.4102L8.57227 27.0977L9.65234 27.8359C9.84375 27.9727 10.1582 27.918 10.2949 27.7129C10.418 27.5078 10.3496 27.1934 10.0762 27.0703L8.91406 26.4961L10.0898 25.9082C10.3496 25.7852 10.4043 25.498 10.3086 25.2793C10.1855 25.0605 9.84375 25.0195 9.65234 25.1562L8.57227 25.9082L8.66797 24.5957C8.69531 24.3359 8.49023 24.1172 8.24414 24.1172C7.95703 24.1172 7.79297 24.3359 7.80664 24.5957L7.88867 25.9082L6.79492 25.1562C6.58984 25.0195 6.30273 25.0469 6.16602 25.2793C6.04297 25.498 6.09766 25.7852 6.35742 25.9082L7.5332 26.4961L6.35742 27.0703C6.09766 27.1934 6.0293 27.4941 6.15234 27.7129C6.27539 27.9316 6.58984 27.9727 6.79492 27.8496L7.88867 27.1113L7.82031 28.4102C7.80664 28.6562 7.95703 28.8887 8.24414 28.8887Z" fill="white"/>
  <path d="M7.46484 22.0664L24.4316 22.0664C28.916 22.0664 32.252 18.6621 32.252 14.4512C32.252 10.0898 28.6973 6.9043 24.0625 6.9043C22.3535 3.52734 19.1816 1.35352 15.2305 1.35352C10.0898 1.35352 5.85156 5.38672 5.40039 10.459C2.92578 11.1836 1.03906 13.3301 1.03906 16.2148C1.03906 19.4551 3.39062 22.0664 7.46484 22.0664Z" fill="white"/>
 </g>
</svg>
