<?xml version="1.0" encoding="UTF-8"?>
<!--Generator: Apple Native CoreSVG 326-->
<!DOCTYPE svg
PUBLIC "-//W3C//DTD SVG 1.1//EN"
       "http://www.w3.org/Graphics/SVG/1.1/DTD/svg11.dtd">
<svg version="1.1" xmlns="http://www.w3.org/2000/svg" xmlns:xlink="http://www.w3.org/1999/xlink" viewBox="0 0 28.2461 27.9043">
 <g>
  <rect height="27.9043" opacity="0" width="28.2461" x="0" y="0"/>
  <path d="M13.9453 27.8906C21.6426 27.8906 27.8906 21.6426 27.8906 13.9453C27.8906 6.24805 21.6426 0 13.9453 0C6.24805 0 0 6.24805 0 13.9453C0 21.6426 6.24805 27.8906 13.9453 27.8906ZM13.9453 25.5664C7.51953 25.5664 2.32422 20.3711 2.32422 13.9453C2.32422 7.51953 7.51953 2.32422 13.9453 2.32422C20.3711 2.32422 25.5664 7.51953 25.5664 13.9453C25.5664 20.3711 20.3711 25.5664 13.9453 25.5664Z" fill="white" fill-opacity="0.85"/>
  <path d="M7.76562 19.5508L14.9434 19.5508C16.8848 19.5508 18.375 18.0879 18.375 16.1738C18.375 14.3008 16.8848 12.8926 14.8613 12.8379C14.0957 11.3887 12.7148 10.5 11.0605 10.5C8.85938 10.5 7.01367 12.209 6.76758 14.3691C5.67383 14.7383 4.9082 15.709 4.9082 16.9258C4.9082 18.4434 6.07031 19.5508 7.76562 19.5508ZM23.0645 12.5371C23.0645 12.2637 22.9551 12.0859 22.7363 12.0859C22.4082 12.0859 21.9023 12.5098 20.9727 12.5098C19.291 12.5098 18.2246 11.5117 18.2246 9.9668C18.2246 9.06445 18.7168 8.4082 18.7168 8.05273C18.7168 7.84766 18.5527 7.71094 18.293 7.71094C16.9395 7.7793 15.2305 9.37891 15.0117 11.375C15.1621 11.5391 15.2988 11.7305 15.4355 11.9219C17.5547 12.1816 19.1406 13.7539 19.3184 15.791C21.6562 15.5723 23.0645 13.7129 23.0645 12.5371Z" fill="white" fill-opacity="0.85"/>
 </g>
</svg>
