<svg version="1.1" xmlns="http://www.w3.org/2000/svg" xmlns:xlink="http://www.w3.org/1999/xlink" viewBox="0 0 28.2461 27.9043">
 <g>
  
  <path d="M13.9453 27.9043C21.6426 27.9043 27.8906 21.6562 27.8906 13.959C27.8906 6.27539 21.6426 0.0136719 13.9453 0.0136719C6.26172 0.0136719 0 6.27539 0 13.959C0 21.6562 6.26172 27.9043 13.9453 27.9043Z" style="fill:var(--color-0,hsl(0 0 0/0.85))"></path>
  <path d="M8.83203 19.1543C6.68555 19.1543 5.26367 17.8281 5.26367 15.9141C5.26367 14.3965 6.26172 13.1523 7.71094 12.7559C7.95703 9.89844 10.3223 7.68359 13.166 7.68359C15.3262 7.68359 17.1035 8.8457 18.0469 10.7871C20.6719 10.7461 22.627 12.5371 22.627 14.9434C22.627 17.3223 20.7266 19.1543 18.293 19.1543Z" style="fill:var(--color-1,white)"></path>
 </g>
</svg>