<?xml version="1.0" encoding="UTF-8"?>
<!--Generator: Apple Native CoreSVG 326-->
<!DOCTYPE svg
PUBLIC "-//W3C//DTD SVG 1.1//EN"
       "http://www.w3.org/Graphics/SVG/1.1/DTD/svg11.dtd">
<svg version="1.1" xmlns="http://www.w3.org/2000/svg" xmlns:xlink="http://www.w3.org/1999/xlink" viewBox="0 0 28.2461 27.9043">
 <g>
  <rect height="27.9043" opacity="0" width="28.2461" x="0" y="0"/>
  <path d="M13.9453 27.9043C21.6426 27.9043 27.8906 21.6562 27.8906 13.959C27.8906 6.27539 21.6426 0.0136719 13.9453 0.0136719C6.26172 0.0136719 0 6.27539 0 13.959C0 21.6562 6.26172 27.9043 13.9453 27.9043Z" fill="white" fill-opacity="0.85"/>
  <path d="M9.40625 15.8457C7.39648 15.8457 6.23438 14.5469 6.23438 12.9609C6.23438 11.5391 7.16406 10.4727 8.38086 10.1172C8.61328 7.60156 10.7188 5.5918 13.248 5.5918C15.2031 5.5918 16.7617 6.69922 17.623 8.35352C19.9062 8.35352 21.6699 9.92578 21.6699 12.0859C21.6699 14.1641 19.9883 15.8457 17.8008 15.8457ZM9.24219 19.8516C9.05078 20.166 8.66797 20.2754 8.35352 20.084C8.03906 19.9199 7.92969 19.5098 8.12109 19.209L9.11914 17.4863C9.29688 17.1719 9.67969 17.0762 9.99414 17.2402C10.3086 17.4316 10.4043 17.8281 10.2402 18.1289ZM11.2246 22.0254C11.0469 22.3262 10.6641 22.4492 10.3633 22.2715C10.0352 22.0938 9.93945 21.6973 10.1035 21.3828L12.373 17.4863C12.5645 17.1582 12.9473 17.0762 13.2344 17.2402C13.5625 17.4316 13.6582 17.8145 13.4941 18.1289ZM15.7227 19.8516C15.5449 20.166 15.1621 20.2754 14.8613 20.084C14.5332 19.9199 14.4375 19.5098 14.6152 19.209L15.627 17.4863C15.791 17.1719 16.1875 17.0762 16.4883 17.2402C16.8164 17.4316 16.9121 17.8281 16.7207 18.1289ZM17.7188 22.0254C17.541 22.3262 17.1445 22.4492 16.8574 22.2715C16.5293 22.0938 16.4336 21.6973 16.6113 21.3828L18.8672 17.4863C19.0449 17.1582 19.4277 17.0762 19.7422 17.2402C20.0566 17.4316 20.166 17.8145 19.9883 18.1289Z" fill="white"/>
 </g>
</svg>
