<?xml version="1.0" encoding="UTF-8"?>
<!--Generator: Apple Native CoreSVG 326-->
<!DOCTYPE svg
PUBLIC "-//W3C//DTD SVG 1.1//EN"
       "http://www.w3.org/Graphics/SVG/1.1/DTD/svg11.dtd">
<svg version="1.1" xmlns="http://www.w3.org/2000/svg" xmlns:xlink="http://www.w3.org/1999/xlink" viewBox="0 0 28.2461 27.9043">
 <g>
  <rect height="27.9043" opacity="0" width="28.2461" x="0" y="0"/>
  <path d="M13.9453 27.9043C21.6426 27.9043 27.8906 21.6562 27.8906 13.959C27.8906 6.27539 21.6426 0.0136719 13.9453 0.0136719C6.26172 0.0136719 0 6.27539 0 13.959C0 21.6562 6.26172 27.9043 13.9453 27.9043Z" fill="white" fill-opacity="0.85"/>
  <path d="M7.30078 17.7461C5.63281 17.7461 4.51172 16.666 4.51172 15.1758C4.51172 13.9863 5.26367 13.0566 6.31641 12.6875C6.5625 10.5684 8.36719 8.90039 10.5 8.90039C12.127 8.90039 13.4668 9.78906 14.2188 11.1973C16.1875 11.2383 17.6504 12.6328 17.6504 14.4512C17.6504 16.3105 16.2012 17.7461 14.3008 17.7461ZM12.9336 8.33984L11.9355 7.32812C11.7031 7.06836 11.7031 6.64453 11.9355 6.41211C12.1953 6.19336 12.5918 6.17969 12.8516 6.42578L13.8633 7.42383C14.1094 7.66992 14.082 8.08008 13.8633 8.32617C13.6172 8.55859 13.1934 8.58594 12.9336 8.33984ZM16.7344 7.12305C16.3926 7.12305 16.0918 6.82227 16.0918 6.48047L16.0918 5.07227C16.0918 4.7168 16.3926 4.42969 16.7344 4.42969C17.1035 4.42969 17.3906 4.7168 17.3906 5.07227L17.3906 6.48047C17.3906 6.82227 17.1035 7.12305 16.7344 7.12305ZM19.6328 8.32617C19.4141 8.08008 19.3867 7.65625 19.6328 7.42383L20.6445 6.42578C20.9043 6.16602 21.3008 6.19336 21.5469 6.42578C21.7793 6.6582 21.793 7.08203 21.5469 7.32812L20.5625 8.33984C20.3164 8.58594 19.8789 8.55859 19.6328 8.32617ZM21.4785 11.8535C21.1504 11.8535 20.8496 11.5664 20.8496 11.2246C20.8496 10.8555 21.1504 10.5684 21.4785 10.5684L22.873 10.5684C23.2422 10.5684 23.5293 10.8555 23.5293 11.2246C23.5293 11.5664 23.2422 11.8535 22.873 11.8535ZM20.6445 16.0371L19.6328 15.0391C19.3867 14.8066 19.4141 14.3691 19.6328 14.123C19.8926 13.8906 20.3164 13.8906 20.5625 14.123L21.5469 15.1074C21.793 15.3535 21.7793 15.7773 21.5469 16.0234C21.3008 16.2559 20.9043 16.2969 20.6445 16.0371ZM20.043 11.2246C20.043 12.3184 19.4961 13.3164 18.5938 13.959C18.3887 11.9902 16.8301 10.5273 14.8066 10.2676C14.5742 9.92578 14.3418 9.625 14.041 9.35156C14.6152 8.49023 15.627 7.92969 16.7344 7.92969C18.5801 7.92969 20.043 9.37891 20.043 11.2246ZM9.0918 20.877L10.0352 18.7168C10.1035 18.5664 10.1855 18.5117 10.4043 18.5117L11.9355 18.5117C12.0996 18.5117 12.168 18.6348 12.0859 18.7988L11.4023 20.084L12.8379 20.084C13.043 20.084 13.1113 20.2754 12.9609 20.4531L9.83008 23.625C9.69336 23.7617 9.48828 23.6523 9.55664 23.4746L10.5 21.1777L9.2832 21.1777C9.0918 21.1777 9.02344 21.0547 9.0918 20.877Z" fill="white"/>
 </g>
</svg>
