<?xml version="1.0" encoding="UTF-8"?>
<!--Generator: Apple Native CoreSVG 326-->
<!DOCTYPE svg
PUBLIC "-//W3C//DTD SVG 1.1//EN"
       "http://www.w3.org/Graphics/SVG/1.1/DTD/svg11.dtd">
<svg version="1.1" xmlns="http://www.w3.org/2000/svg" xmlns:xlink="http://www.w3.org/1999/xlink" viewBox="0 0 28.2461 27.9043">
 <g>
  <rect height="27.9043" opacity="0" width="28.2461" x="0" y="0"/>
  <path d="M13.9453 27.8906C21.6426 27.8906 27.8906 21.6426 27.8906 13.9453C27.8906 6.24805 21.6426 0 13.9453 0C6.24805 0 0 6.24805 0 13.9453C0 21.6426 6.24805 27.8906 13.9453 27.8906ZM13.9453 25.5664C7.51953 25.5664 2.32422 20.3711 2.32422 13.9453C2.32422 7.51953 7.51953 2.32422 13.9453 2.32422C20.3711 2.32422 25.5664 7.51953 25.5664 13.9453C25.5664 20.3711 20.3711 25.5664 13.9453 25.5664Z" fill="white" fill-opacity="0.85"/>
  <path d="M9.54297 15.6406L17.6914 15.6406C19.8105 15.6406 21.4375 14 21.4375 11.9902C21.4375 9.89844 19.7285 8.36719 17.5137 8.36719C16.6797 6.75391 15.1621 5.70117 13.2754 5.70117C10.8145 5.70117 8.77734 7.64258 8.54492 10.0898C7.36914 10.4316 6.4668 11.457 6.4668 12.8379C6.4668 14.3828 7.58789 15.6406 9.54297 15.6406ZM10.3223 19.2363L11.1289 17.8418C11.293 17.5684 11.1973 17.1582 10.8965 16.9941C10.5957 16.8164 10.2129 16.9395 10.0488 17.2266L9.24219 18.6074C9.07812 18.8945 9.17383 19.3047 9.47461 19.4688C9.77539 19.6465 10.1582 19.5234 10.3223 19.2363ZM14.0684 19.2363L14.875 17.8418C15.0391 17.5684 14.957 17.1582 14.6426 16.9941C14.3555 16.8164 13.959 16.9395 13.8086 17.2266L13.002 18.6074C12.8379 18.8945 12.9199 19.3047 13.2344 19.4688C13.5215 19.6465 13.918 19.5234 14.0684 19.2363ZM17.8145 19.2363L18.6211 17.8418C18.7852 17.5684 18.7031 17.1582 18.3887 16.9941C18.0879 16.8164 17.7051 16.9395 17.541 17.2266L16.7344 18.6074C16.5703 18.8945 16.666 19.3047 16.9668 19.4688C17.2676 19.6465 17.6504 19.5234 17.8145 19.2363ZM8.70898 21.9434C9.20117 21.9434 9.61133 21.5195 9.61133 21.0273C9.61133 20.5352 9.20117 20.125 8.70898 20.125C8.20312 20.125 7.79297 20.5352 7.79297 21.0273C7.79297 21.5195 8.20312 21.9434 8.70898 21.9434ZM12.4551 21.9434C12.9609 21.9434 13.3711 21.5195 13.3711 21.0273C13.3711 20.5352 12.9609 20.125 12.4551 20.125C11.9629 20.125 11.5527 20.5352 11.5527 21.0273C11.5527 21.5195 11.9629 21.9434 12.4551 21.9434ZM16.2012 21.9434C16.6934 21.9434 17.1172 21.5195 17.1172 21.0273C17.1172 20.5352 16.6934 20.125 16.2012 20.125C15.709 20.125 15.2852 20.5352 15.2852 21.0273C15.2852 21.5195 15.709 21.9434 16.2012 21.9434Z" fill="white" fill-opacity="0.85"/>
 </g>
</svg>
