<?xml version="1.0" encoding="UTF-8"?>
<!--Generator: Apple Native CoreSVG 326-->
<!DOCTYPE svg
PUBLIC "-//W3C//DTD SVG 1.1//EN"
       "http://www.w3.org/Graphics/SVG/1.1/DTD/svg11.dtd">
<svg version="1.1" xmlns="http://www.w3.org/2000/svg" xmlns:xlink="http://www.w3.org/1999/xlink" viewBox="0 0 28.2461 27.9043">
 <g>
  <rect height="27.9043" opacity="0" width="28.2461" x="0" y="0"/>
  <path d="M13.9453 27.8906C21.6426 27.8906 27.8906 21.6426 27.8906 13.9453C27.8906 6.24805 21.6426 0 13.9453 0C6.24805 0 0 6.24805 0 13.9453C0 21.6426 6.24805 27.8906 13.9453 27.8906ZM13.9453 25.5664C7.51953 25.5664 2.32422 20.3711 2.32422 13.9453C2.32422 7.51953 7.51953 2.32422 13.9453 2.32422C20.3711 2.32422 25.5664 7.51953 25.5664 13.9453C25.5664 20.3711 20.3711 25.5664 13.9453 25.5664Z" fill="white" fill-opacity="0.85"/>
  <path d="M7.50586 17.623L14.2871 17.623C16.1328 17.623 17.541 16.2148 17.541 14.4102C17.541 12.6602 16.1191 11.3066 14.2188 11.2656C13.4805 9.89844 12.1816 9.03711 10.6094 9.03711C8.53125 9.03711 6.78125 10.6504 6.54883 12.7148C5.52344 13.0703 4.79883 13.9727 4.79883 15.1348C4.79883 16.5703 5.87891 17.623 7.50586 17.623ZM12.9746 8.47656C13.2207 8.73633 13.6309 8.70898 13.8633 8.47656C14.082 8.24414 14.1094 7.83398 13.8633 7.60156L12.8789 6.63086C12.6328 6.39844 12.25 6.39844 12.0039 6.63086C11.7715 6.84961 11.7715 7.25977 12.0039 7.50586ZM16.6523 7.30078C17.0078 7.30078 17.2812 7.02734 17.2812 6.68555L17.2812 5.31836C17.2812 4.97656 17.0078 4.70312 16.6523 4.70312C16.3242 4.70312 16.0371 4.97656 16.0371 5.31836L16.0371 6.68555C16.0371 7.02734 16.3242 7.30078 16.6523 7.30078ZM19.4688 8.46289C19.7012 8.70898 20.125 8.73633 20.3711 8.47656L21.3281 7.50586C21.5605 7.25977 21.5469 6.84961 21.3281 6.63086C21.082 6.39844 20.6992 6.38477 20.4531 6.63086L19.4688 7.60156C19.2227 7.83398 19.25 8.24414 19.4688 8.46289ZM21.2598 11.8945L22.6133 11.8945C22.9688 11.8945 23.2422 11.6211 23.2422 11.2793C23.2422 10.9238 22.9688 10.6641 22.6133 10.6641L21.2598 10.6641C20.9316 10.6641 20.6445 10.9238 20.6445 11.2793C20.6445 11.6211 20.9316 11.8945 21.2598 11.8945ZM20.4531 15.9551C20.6992 16.2012 21.082 16.1738 21.3281 15.9414C21.5469 15.6953 21.5605 15.2852 21.3281 15.0664L20.3711 14.1094C20.125 13.877 19.7148 13.877 19.4688 14.1094C19.25 14.3418 19.2227 14.752 19.4688 14.998ZM19.8652 11.2793C19.8652 9.50195 18.4434 8.09375 16.6523 8.09375C15.5723 8.09375 14.6016 8.64062 14.041 9.47461C14.3281 9.74805 14.5605 10.0352 14.7793 10.377C16.748 10.623 18.252 12.0449 18.457 13.9453C19.332 13.3164 19.8652 12.3594 19.8652 11.2793ZM9.24219 20.6582C9.17383 20.8223 9.24219 20.959 9.43359 20.959L10.6094 20.959L9.69336 23.1738C9.625 23.3516 9.83008 23.4609 9.9668 23.3105L12.9883 20.2344C13.1387 20.084 13.0703 19.8789 12.8652 19.8789L11.4844 19.8789L12.1406 18.6348C12.2227 18.4844 12.1543 18.3477 11.9902 18.3477L10.5137 18.3477C10.3086 18.3477 10.2266 18.416 10.1582 18.5664Z" fill="white" fill-opacity="0.85"/>
 </g>
</svg>
