<?xml version="1.0" encoding="UTF-8"?>
<!--Generator: Apple Native CoreSVG 326-->
<!DOCTYPE svg
PUBLIC "-//W3C//DTD SVG 1.1//EN"
       "http://www.w3.org/Graphics/SVG/1.1/DTD/svg11.dtd">
<svg version="1.1" xmlns="http://www.w3.org/2000/svg" xmlns:xlink="http://www.w3.org/1999/xlink" viewBox="0 0 37.691 34.248">
 <g>
  <rect height="34.248" opacity="0" width="37.691" x="0" y="0"/>
  <path d="M10.9842 34.2207L26.3377 34.2207C28.7166 34.2207 30.2615 32.6348 30.1385 30.2422L29.8104 24.1172L29.8104 21.2324L28.8533 15.5176C28.7986 15.2031 28.6072 15.0254 28.3748 15.0254C28.074 15.0254 27.8826 15.2715 27.8963 15.627L28.2654 30.1602C28.2928 31.3086 27.5408 32.1152 26.3514 32.1152L10.9568 32.1152C9.78105 32.1152 9.01543 31.3086 9.05644 30.1602L9.42558 15.627C9.43926 15.2715 9.23418 15.0254 8.94707 15.0254C8.71465 15.0254 8.52324 15.2031 8.46855 15.5176L7.51152 21.0957L7.49785 24.0352L7.1834 30.2422C7.06035 32.6348 8.5916 34.2207 10.9842 34.2207ZM5.44707 27.5625C6.85527 27.9863 8.01738 27.7676 8.30449 26.373L8.76933 24.2129L7.88066 19.291L6.52715 25.1289C6.43144 25.4844 6.22637 25.5527 5.93926 25.4844L2.63066 24.5684C2.23418 24.459 2.13848 24.2129 2.26152 23.8027L6.89629 6.79492C7.12871 5.97461 7.49785 5.44141 8.20879 5.18164L12.16 3.70508L13.3221 1.25781L7.40215 3.45898C6.0623 3.96484 5.37871 4.79883 5.06426 5.87891L0.128709 23.4336C-0.267775 24.8418 0.251756 26.0449 1.6873 26.4688ZM31.8338 27.5625L35.6346 26.4551C37.0701 26.0449 37.5896 24.8281 37.1932 23.4336L32.2439 5.87891C31.9432 4.79883 31.2596 3.96484 29.9197 3.45898L24.0135 1.25781L25.1619 3.70508L29.1131 5.18164C29.824 5.44141 30.1932 5.97461 30.4119 6.79492L35.074 23.7891C35.1971 24.1992 35.0877 24.459 34.7049 24.5684L31.3416 25.4844C31.0545 25.5527 30.8357 25.4844 30.7674 25.1289L29.4412 19.291L28.5525 24.2129L28.9764 26.373C29.2361 27.7676 30.4256 27.9863 31.8338 27.5625ZM21.2244 23.7891C22.0311 23.7891 22.66 23.1602 22.66 22.3535C22.66 21.5605 22.0447 20.918 21.2244 20.918C20.4314 20.918 19.8025 21.5469 19.8025 22.3535C19.7889 23.1602 20.4178 23.7891 21.2244 23.7891ZM21.2244 29.7773C22.0311 29.7773 22.66 29.1348 22.66 28.3281C22.66 27.5352 22.0447 26.8926 21.2244 26.8926C20.4314 26.8926 19.8025 27.5215 19.8025 28.3281C19.7889 29.1348 20.4178 29.7773 21.2244 29.7773ZM16.2068 33.2773L18.2986 33.2773L18.2986 19.5098L18.1209 20.3984L25.449 8.10742C26.324 6.63086 26.3514 5.97461 25.7908 4.53906L24.6834 1.75C24.1639 0.451172 23.2479 0 21.7576 0L15.5779 0C14.0877 0 13.158 0.451172 12.6385 1.75L11.5447 4.53906C10.9979 5.91992 11.0252 6.63086 11.8865 8.10742L16.3982 16.0371L16.2068 15.3672ZM18.2986 16.8438L20.8689 2.87109C21.0057 2.14648 21.3885 1.83203 21.949 1.83203C22.4959 1.83203 22.824 2.16016 23.0701 2.77539L23.8221 4.75781C24.1912 5.72852 24.3279 6.30273 23.74 7.3418ZM17.1502 13.8633L13.5818 7.3418C13.0076 6.28906 13.1307 5.72852 13.4998 4.75781L14.2654 2.77539C14.5115 2.14648 14.826 1.83203 15.3729 1.83203C15.9334 1.83203 16.3299 2.13281 16.4666 2.87109L17.7518 9.95312Z" fill="white" fill-opacity="0.85"/>
 </g>
</svg>
