<?xml version="1.0" encoding="UTF-8"?>
<!--Generator: Apple Native CoreSVG 326-->
<!DOCTYPE svg
PUBLIC "-//W3C//DTD SVG 1.1//EN"
       "http://www.w3.org/Graphics/SVG/1.1/DTD/svg11.dtd">
<svg version="1.1" xmlns="http://www.w3.org/2000/svg" xmlns:xlink="http://www.w3.org/1999/xlink" viewBox="0 0 30.8848 29.1895">
 <g>
  <rect height="29.1895" opacity="0" width="30.8848" x="0" y="0"/>
  <path d="M1.81836 27.5898L28.7109 27.5898L28.7109 25.9766C28.7109 25.4297 28.3965 25.1016 27.8359 25.1016L26.9609 25.1016L26.9609 9.37891L28.1641 9.37891C28.916 9.37891 29.3535 8.83203 29.3535 8.27148C29.3535 7.86133 29.1211 7.50586 28.6152 7.21875L16.9395 0.478516C16.3926 0.164062 15.8184 0 15.2578 0C14.6973 0 14.1094 0.164062 13.5898 0.478516L1.91406 7.21875C1.39453 7.50586 1.17578 7.86133 1.17578 8.27148C1.17578 8.83203 1.61328 9.37891 2.36523 9.37891L3.56836 9.37891L3.56836 25.1016L2.70703 25.1016C2.14648 25.1016 1.81836 25.4297 1.81836 25.9766ZM1.09375 29.1758L29.4219 29.1758C30.0234 29.1758 30.5293 28.6699 30.5293 28.0684C30.5293 27.4668 30.0234 26.9746 29.4219 26.9746L1.09375 26.9746C0.492188 26.9746 0 27.4668 0 28.0684C0 28.6699 0.492188 29.1758 1.09375 29.1758Z" fill="white" fill-opacity="0.85"/>
  <path d="M14.793 23.748C14.5195 23.748 14.3145 23.5566 14.3145 23.2832C14.3145 23.2148 14.3281 23.1191 14.3418 23.0371L14.6699 21.7656C14.082 21.6973 13.5488 21.5605 13.0703 21.3418L12.5645 23.3652C12.4824 23.6387 12.332 23.748 12.0859 23.748C11.8125 23.748 11.5938 23.5566 11.5938 23.2832C11.5938 23.2148 11.6074 23.1191 11.6348 23.0371L12.1816 20.8359C10.6641 19.7285 9.88477 17.7734 9.88477 15.4902C9.88477 11.9629 11.7852 9.36523 15.1074 9.20117L15.4492 7.875C15.5176 7.61523 15.668 7.50586 15.9414 7.50586C16.2285 7.50586 16.4199 7.69727 16.4199 7.95703C16.4199 7.99805 16.4062 8.08008 16.3652 8.20312L16.1191 9.24219C16.666 9.29688 17.1992 9.44727 17.7051 9.66602L18.1562 7.875C18.2246 7.61523 18.375 7.50586 18.6484 7.50586C18.9355 7.50586 19.127 7.69727 19.127 7.95703C19.127 7.99805 19.1133 8.08008 19.0723 8.20312L18.5801 10.1855C19.209 10.6504 19.7285 11.2793 20.043 12.0723C20.125 12.2773 20.1934 12.5508 20.1934 12.7559C20.1934 13.2207 19.8926 13.5078 19.4277 13.5078C18.9355 13.5078 18.7578 13.2617 18.6348 12.8516C18.5391 12.5098 18.375 12.209 18.1426 11.9492L16.0508 20.3027C17.2812 20.125 18.3066 19.3867 18.7168 18.1562C18.8672 17.7734 19.0723 17.5 19.5234 17.5C19.9062 17.5 20.2891 17.7324 20.2891 18.2656C20.2891 18.498 20.248 18.7031 20.166 18.9355C19.5371 20.6992 17.7461 21.8066 15.6816 21.8066L15.668 21.8066L15.2715 23.3652C15.2031 23.6387 15.0391 23.748 14.793 23.748ZM11.6211 15.4902C11.6211 16.8164 11.9492 18.0879 12.6465 19.0039L14.7246 10.7324C12.6465 11.1152 11.6211 13.166 11.6211 15.4902ZM13.4531 19.7832C13.8906 20.0703 14.4238 20.2754 15.0254 20.3164L17.3223 11.1973C16.8711 10.9102 16.3242 10.7324 15.75 10.6777Z" fill="white"/>
 </g>
</svg>
