<?xml version="1.0" encoding="UTF-8"?>
<!--Generator: Apple Native CoreSVG 326-->
<!DOCTYPE svg
PUBLIC "-//W3C//DTD SVG 1.1//EN"
       "http://www.w3.org/Graphics/SVG/1.1/DTD/svg11.dtd">
<svg version="1.1" xmlns="http://www.w3.org/2000/svg" xmlns:xlink="http://www.w3.org/1999/xlink" viewBox="0 0 20.2754 31.6777">
 <g>
  <rect height="31.6777" opacity="0" width="20.2754" x="0" y="0"/>
  <path d="M10.623 27.8086C14.7246 27.8086 18.334 25.9492 19.7012 22.2031C19.8379 21.834 19.9199 21.2871 19.9199 20.9453C19.9199 20.166 19.4414 19.7285 18.6621 19.7285C17.9238 19.7285 17.5547 20.166 17.3223 20.8223C16.502 23.707 13.7539 25.334 10.6367 25.334C5.37305 25.334 2.87109 20.9043 2.87109 15.5312C2.87109 10.1582 5.45508 5.81055 10.623 5.81055C13.6035 5.81055 16.3105 7.51953 17.1445 10.3906C17.3906 11.1016 17.7324 11.498 18.498 11.498C19.2363 11.498 19.7422 11.0195 19.7422 10.2676C19.7422 9.92578 19.6602 9.41992 19.5098 9.02344C18.1836 5.41406 14.5742 3.33594 10.623 3.33594C3.78711 3.33594 0 8.57227 0 15.5312C0 22.5586 3.74609 27.8086 10.623 27.8086ZM3.9375 31.6504C4.45703 31.6504 4.77148 31.418 4.88086 30.9121L12.4141 1.39453C12.4688 1.20312 12.4961 1.06641 12.4961 0.916016C12.4961 0.369141 12.168 0 11.5527 0C11.1016 0 10.7871 0.273438 10.6641 0.738281L3.13086 30.2695C3.07617 30.4609 3.04883 30.6387 3.04883 30.8164C3.04883 31.2402 3.39062 31.6504 3.9375 31.6504ZM9.31055 31.6504C9.83008 31.6504 10.1445 31.418 10.2676 30.9121L17.8008 1.39453C17.8418 1.20312 17.8828 1.06641 17.8828 0.916016C17.8828 0.369141 17.5547 0 16.9395 0C16.4883 0 16.1602 0.273438 16.0371 0.738281L8.50391 30.2695C8.46289 30.4609 8.43555 30.6387 8.43555 30.8164C8.43555 31.2402 8.76367 31.6504 9.31055 31.6504Z" fill="white" fill-opacity="0.85"/>
 </g>
</svg>
