<svg version="1.1" xmlns="http://www.w3.org/2000/svg" xmlns:xlink="http://www.w3.org/1999/xlink" viewBox="0 0 33.291 27.3099">
 <g>
  
  <path d="M32.9355 16.3962C32.9355 7.78289 26.3184 0.714533 17.8965 0.00359537C17.459-0.0374203 17.1309 0.277033 17.1309 0.714533L17.1309 5.18524C17.1309 5.55438 17.3906 5.84149 17.7598 5.86883C22.9961 6.51141 27.0703 10.9821 27.0703 16.3962C27.0703 18.8571 26.2227 21.1266 24.7324 23.027C24.541 23.2595 24.5547 23.5602 24.7598 23.779L28.0273 27.0329C28.3281 27.3337 28.793 27.3337 29.0664 27.0055C31.4863 24.1345 32.9355 20.4294 32.9355 16.3962Z" style="fill:var(--color-0,hsl(0 0 0/0.85))"></path>
  <path d="M0 16.3962C0 20.443 1.44922 24.1481 3.86914 27.0192C4.14258 27.3473 4.59375 27.3337 4.9082 27.0329L8.17578 23.779C8.38086 23.5602 8.39453 23.2595 8.20312 23.027C6.69922 21.1266 5.86523 18.8571 5.86523 16.3962C5.86523 10.9821 9.93945 6.51141 15.1758 5.86883C15.5449 5.84149 15.8047 5.55438 15.8047 5.18524L15.8047 0.714533C15.8047 0.277033 15.4766-0.0374203 15.0391 0.00359537C6.61719 0.714533 0 7.78289 0 16.3962Z" style="fill:var(--color-1,hsl(0 0 0/0.85))"></path>
  <path d="M16.6113 22.5895C18.6895 22.5895 20.5488 21.5915 21.1777 19.8005C21.2598 19.5817 21.3008 19.3766 21.3008 19.1579C21.3008 18.6384 20.9453 18.4196 20.5762 18.4196C20.1387 18.4196 19.9336 18.6794 19.7969 19.0485C19.3184 20.4294 18.0742 21.1677 16.6113 21.1677C14.0547 21.1677 12.9062 18.9255 12.9062 16.4645C12.9062 13.9626 14.123 11.7751 16.5977 11.7751C18.0469 11.7751 19.332 12.6774 19.7012 13.9079C19.8242 14.2907 20.0156 14.5368 20.4668 14.5368C20.9316 14.5368 21.2051 14.2497 21.2051 13.8122C21.2051 13.6071 21.1641 13.361 21.082 13.1559C20.3301 11.3102 18.5117 10.3669 16.5977 10.3669C13.1934 10.3669 11.2246 12.9509 11.2246 16.4645C11.2246 19.9235 13.084 22.5895 16.6113 22.5895ZM13.3574 24.4763C13.5898 24.4763 13.7539 24.3669 13.8223 24.1071L17.5137 9.39617C17.541 9.27313 17.5547 9.20477 17.5547 9.15008C17.5547 8.90399 17.3633 8.71258 17.1035 8.71258C16.8438 8.71258 16.6797 8.83563 16.6113 9.08172L12.9199 23.779C12.9062 23.861 12.8926 23.943 12.8926 24.0251C12.8926 24.2848 13.084 24.4763 13.3574 24.4763ZM15.9824 24.4763C16.2148 24.4763 16.3789 24.3669 16.4473 24.1071L20.1387 9.39617C20.166 9.27313 20.1797 9.20477 20.1797 9.15008C20.1797 8.90399 20.002 8.71258 19.7285 8.71258C19.4688 8.71258 19.3047 8.83563 19.2363 9.08172L15.5449 23.779C15.5312 23.861 15.5176 23.943 15.5176 24.0251C15.5176 24.2848 15.7227 24.4763 15.9824 24.4763Z" style="fill:var(--color-2,hsl(0 0 0/0.85))"></path>
 </g>
</svg>