<svg version="1.1" xmlns="http://www.w3.org/2000/svg" xmlns:xlink="http://www.w3.org/1999/xlink" viewBox="0 0 30.8848 29.1895">
 <g>
  
  <path d="M1.81836 25.9219L28.7109 25.9219L28.7109 25.0059C28.7109 24.459 28.3965 24.1309 27.8359 24.1309L26.9609 24.1309L26.9609 9.37891L28.1641 9.37891C28.916 9.37891 29.3535 8.83203 29.3535 8.27148C29.3535 7.86133 29.1211 7.50586 28.6152 7.21875L16.9395 0.478516C16.3926 0.164062 15.8184 0 15.2578 0C14.6973 0 14.1094 0.164062 13.5898 0.478516L1.91406 7.21875C1.39453 7.50586 1.17578 7.86133 1.17578 8.27148C1.17578 8.83203 1.61328 9.37891 2.36523 9.37891L3.56836 9.37891L3.56836 24.1309L2.70703 24.1309C2.14648 24.1309 1.81836 24.459 1.81836 25.0059ZM5.63281 24.1309L5.63281 7.62891L14.7246 2.5293C14.8887 2.43359 15.0801 2.37891 15.2578 2.37891C15.4355 2.37891 15.627 2.43359 15.8047 2.5293L24.8965 7.62891L24.8965 24.1309ZM1.09375 29.1758L29.4219 29.1758C30.0234 29.1758 30.5293 28.6699 30.5293 28.0684C30.5293 27.4668 30.0234 26.9746 29.4219 26.9746L1.09375 26.9746C0.492188 26.9746 0 27.4668 0 28.0684C0 28.6699 0.492188 29.1758 1.09375 29.1758Z" style="fill:var(--color-0,hsl(0 0 0/0.85))"></path>
  <path d="M15.4219 20.3984C17.5137 20.3984 19.373 19.4004 20.002 17.6094C20.084 17.3906 20.125 17.1855 20.125 16.9668C20.125 16.4473 19.7559 16.2285 19.3867 16.2285C18.9492 16.2285 18.7578 16.4883 18.6074 16.8574C18.1426 18.2383 16.8848 18.9766 15.4219 18.9766C12.8652 18.9766 11.7168 16.7344 11.7168 14.2734C11.7168 11.7715 12.9336 9.58398 15.4082 9.58398C16.8711 9.58398 18.1426 10.4863 18.5254 11.7168C18.6484 12.0996 18.8262 12.3457 19.291 12.3457C19.7422 12.3457 20.0293 12.0586 20.0293 11.6211C20.0293 11.416 19.9746 11.1699 19.8926 10.9648C19.1406 9.11914 17.3359 8.17578 15.4082 8.17578C12.0176 8.17578 10.0488 10.7598 10.0488 14.2734C10.0488 17.7324 11.9082 20.3984 15.4219 20.3984ZM12.1816 22.2852C12.4141 22.2852 12.5645 22.1758 12.6328 21.916L16.3242 7.20508C16.3652 7.08203 16.3789 7.01367 16.3789 6.95898C16.3789 6.71289 16.1875 6.52148 15.9141 6.52148C15.6543 6.52148 15.5039 6.64453 15.4355 6.89062L11.7441 21.5879C11.7168 21.6699 11.7031 21.752 11.7031 21.834C11.7031 22.0938 11.9082 22.2852 12.1816 22.2852ZM14.8066 22.2852C15.0391 22.2852 15.2031 22.1758 15.2578 21.916L18.9492 7.20508C18.9902 7.08203 19.0039 7.01367 19.0039 6.95898C19.0039 6.71289 18.8125 6.52148 18.5391 6.52148C18.2793 6.52148 18.1289 6.64453 18.0605 6.89062L14.3691 21.5879C14.3555 21.6699 14.3418 21.752 14.3418 21.834C14.3418 22.0938 14.5332 22.2852 14.8066 22.2852Z" style="fill:var(--color-1,hsl(0 0 0/0.85))"></path>
 </g>
</svg>