<svg version="1.1" xmlns="http://www.w3.org/2000/svg" xmlns:xlink="http://www.w3.org/1999/xlink" viewBox="0 0 33.291 27.4395">
 <g>
  
  <path d="M32.9355 16.4609C32.9355 12.4414 31.4863 8.73633 29.0664 5.86523C28.793 5.53711 28.3281 5.53711 28.0273 5.85156L24.8555 9.02344C24.5957 9.2832 24.582 9.65234 24.8145 9.93945C26.2227 11.7441 27.0703 14.0137 27.0703 16.4609C27.0703 18.9219 26.2227 21.1914 24.7324 23.0918C24.541 23.3242 24.5547 23.625 24.7598 23.8438L28.0137 27.0977C28.3281 27.4121 28.7793 27.4121 29.0664 27.0703C31.4863 24.1992 32.9355 20.4941 32.9355 16.4609Z" style="fill:var(--color-0,hsl(0 0 0/0.85))"></path>
  <path d="M16.4609 5.86523C18.9355 5.86523 21.2051 6.72656 23.0234 8.13477C23.2969 8.35352 23.6523 8.32617 23.9121 8.06641L27.084 4.89453C27.3984 4.58008 27.3848 4.12891 27.0566 3.85547C24.1992 1.44922 20.4941 0 16.4609 0C12.4414 0 8.73633 1.44922 5.87891 3.85547C5.55078 4.12891 5.53711 4.58008 5.85156 4.89453L9.02344 8.06641C9.2832 8.32617 9.65234 8.35352 9.95312 8.12109C11.7578 6.72656 14.0137 5.86523 16.4609 5.86523Z" style="fill:var(--color-1,hsl(0 0 0/0.85))"></path>
  <path d="M0 16.4609C0 20.4941 1.44922 24.1992 3.86914 27.0703C4.14258 27.4121 4.60742 27.4121 4.9082 27.0977L8.16211 23.8438C8.36719 23.625 8.39453 23.3242 8.20312 23.0918C6.71289 21.1914 5.86523 18.9219 5.86523 16.4609C5.86523 14.0137 6.69922 11.7441 8.12109 9.93945C8.33984 9.65234 8.33984 9.2832 8.08008 9.02344L4.9082 5.85156C4.59375 5.53711 4.14258 5.53711 3.86914 5.86523C1.44922 8.73633 0 12.4414 0 16.4609Z" style="fill:var(--color-2,hsl(0 0 0/0.85))"></path>
  <path d="M16.6113 22.6543C18.6895 22.6543 20.5488 21.6562 21.1777 19.8652C21.2598 19.6465 21.3008 19.4414 21.3008 19.2227C21.3008 18.7031 20.9453 18.4844 20.5762 18.4844C20.1387 18.4844 19.9336 18.7441 19.7969 19.1133C19.3184 20.4941 18.0742 21.2324 16.6113 21.2324C14.0547 21.2324 12.9062 18.9902 12.9062 16.5293C12.9062 14.0273 14.123 11.8398 16.5977 11.8398C18.0469 11.8398 19.332 12.7422 19.7012 13.9727C19.8242 14.3555 20.0156 14.6016 20.4668 14.6016C20.9316 14.6016 21.2051 14.3145 21.2051 13.877C21.2051 13.6719 21.1641 13.4258 21.082 13.2207C20.3301 11.375 18.5117 10.4316 16.5977 10.4316C13.1934 10.4316 11.2246 13.0156 11.2246 16.5293C11.2246 19.9883 13.084 22.6543 16.6113 22.6543ZM13.3574 24.541C13.5898 24.541 13.7539 24.4316 13.8223 24.1719L17.5137 9.46094C17.541 9.33789 17.5547 9.26953 17.5547 9.21484C17.5547 8.96875 17.3633 8.77734 17.1035 8.77734C16.8438 8.77734 16.6797 8.90039 16.6113 9.14648L12.9199 23.8438C12.9062 23.9258 12.8926 24.0078 12.8926 24.0898C12.8926 24.3496 13.084 24.541 13.3574 24.541ZM15.9824 24.541C16.2148 24.541 16.3789 24.4316 16.4473 24.1719L20.1387 9.46094C20.166 9.33789 20.1797 9.26953 20.1797 9.21484C20.1797 8.96875 20.002 8.77734 19.7285 8.77734C19.4688 8.77734 19.3047 8.90039 19.2363 9.14648L15.5449 23.8438C15.5312 23.9258 15.5176 24.0078 15.5176 24.0898C15.5176 24.3496 15.7227 24.541 15.9824 24.541Z" style="fill:var(--color-3,hsl(0 0 0/0.85))"></path>
 </g>
</svg>