<?xml version="1.0" encoding="UTF-8"?>
<!--Generator: Apple Native CoreSVG 326-->
<!DOCTYPE svg
PUBLIC "-//W3C//DTD SVG 1.1//EN"
       "http://www.w3.org/Graphics/SVG/1.1/DTD/svg11.dtd">
<svg version="1.1" xmlns="http://www.w3.org/2000/svg" xmlns:xlink="http://www.w3.org/1999/xlink" viewBox="0 0 31.7429 32.6143">
 <g>
  <rect height="32.6143" opacity="0" width="31.7429" x="0" y="0"/>
  <path d="M1.50231 19.6362C-0.480114 21.6187-0.507457 24.1616 1.46129 26.1304L7.61364 32.2964C8.03746 32.7202 8.76207 32.7202 9.1859 32.2964C9.60973 31.8589 9.60973 31.1616 9.1859 30.7378L3.25231 24.8042C2.04918 23.6011 2.02184 22.2065 3.21129 21.0308L19.8089 4.43311C20.9847 3.25732 22.4066 3.25732 23.5824 4.44678L29.5297 10.3804C29.9535 10.8042 30.6371 10.8179 31.0609 10.394C31.4984 9.97021 31.4984 9.27295 31.0609 8.83545L24.9086 2.68311C22.9398 0.714355 20.3968 0.728027 18.4144 2.72412ZM3.47106 26.6226L5.02965 28.1812L27.0004 6.21045L25.4418 4.65186ZM24.2797 7.96045L22.9945 9.27295L26.932 13.2104C27.3011 13.5933 27.889 13.5933 28.2308 13.2241C28.6 12.8687 28.6136 12.2808 28.2445 11.9116ZM21.5726 10.6675L20.2738 11.98L24.225 15.9175C24.5941 16.2866 25.182 16.2866 25.5238 15.9312C25.8793 15.5757 25.8929 14.9878 25.5375 14.6323ZM18.8656 13.3745L17.5804 14.687L21.5179 18.6382C21.8871 18.9937 22.475 18.9937 22.8168 18.6519C23.1859 18.2827 23.1996 17.6948 22.8304 17.3394ZM16.1722 16.0815L14.8734 17.3804L18.8246 21.3315C19.1937 21.7007 19.7816 21.7007 20.1234 21.3315C20.4789 20.9761 20.4925 20.3882 20.1371 20.0327ZM13.4652 18.7886L12.1664 20.0874L16.1175 24.0522C16.473 24.4077 17.0609 24.4077 17.4164 24.0522C17.7718 23.6831 17.7855 23.0952 17.43 22.7397ZM10.7582 21.4956L9.45934 22.7944L13.4105 26.7593C13.7797 27.1147 14.3675 27.1147 14.7093 26.7593C15.0648 26.3901 15.0785 25.8022 14.723 25.4468ZM8.05114 24.2026L6.75231 25.5015L10.7035 29.4663C11.0589 29.8218 11.6468 29.8218 12.0023 29.4663C12.3578 29.1108 12.3714 28.5093 12.016 28.1538Z" fill="white" fill-opacity="0.85"/>
 </g>
</svg>
