<?xml version="1.0" encoding="UTF-8"?>
<!--Generator: Apple Native CoreSVG 326-->
<!DOCTYPE svg
PUBLIC "-//W3C//DTD SVG 1.1//EN"
       "http://www.w3.org/Graphics/SVG/1.1/DTD/svg11.dtd">
<svg version="1.1" xmlns="http://www.w3.org/2000/svg" xmlns:xlink="http://www.w3.org/1999/xlink" viewBox="0 0 31.7429 33.6807">
 <g>
  <rect height="33.6807" opacity="0" width="31.7429" x="0" y="0"/>
  <path d="M1.46129 27.1968L7.61364 33.3628C8.03746 33.7866 8.76207 33.7866 9.1859 33.3628C9.60973 32.9253 9.59606 32.228 9.1859 31.8042L5.16637 27.771L25.5101 7.42725L29.5297 11.4468C29.9535 11.8706 30.6371 11.8843 31.0609 11.4604C31.4984 11.0366 31.4984 10.3394 31.0609 9.90186L24.9086 3.74951C22.9398 1.78076 20.3968 1.79443 18.4144 3.79053L1.50231 20.7026C-0.480114 22.6851-0.507457 25.228 1.46129 27.1968ZM23.8832 8.63037L22.598 9.95654L26.932 14.2769C27.3011 14.6597 27.889 14.6597 28.2308 14.2905C28.6 13.9351 28.6136 13.3472 28.2445 12.978ZM21.1761 11.3374L19.891 12.6636L24.225 16.9839C24.5941 17.353 25.182 17.353 25.5238 16.9976C25.8793 16.6421 25.8929 16.0542 25.5375 15.6987ZM18.4828 14.0444L17.1976 15.3706L21.5179 19.7046C21.8871 20.0601 22.475 20.0601 22.8168 19.7183C23.1859 19.3491 23.1996 18.7612 22.8304 18.4058ZM15.7894 16.7515L14.4906 18.0503L18.8246 22.3979C19.1937 22.7671 19.7816 22.7671 20.1234 22.3979C20.4789 22.0425 20.4925 21.4409 20.1371 21.0991ZM13.0824 19.4585L11.7836 20.7573L16.1175 25.1187C16.473 25.4741 17.0609 25.4741 17.4164 25.1187C17.7718 24.7495 17.7855 24.1616 17.43 23.8062ZM10.3754 22.1655L9.07653 23.4644L13.4105 27.8257C13.7797 28.1812 14.3675 28.1812 14.7093 27.8257C15.0648 27.4565 15.0785 26.8687 14.723 26.5132ZM7.66832 24.8726L6.3695 26.1714L10.7035 30.5327C11.0589 30.8882 11.6468 30.8882 12.0023 30.5327C12.3578 30.1636 12.3714 29.5757 12.016 29.2202Z" fill="white" fill-opacity="0.85"/>
 </g>
</svg>
