<svg version="1.1" xmlns="http://www.w3.org/2000/svg" xmlns:xlink="http://www.w3.org/1999/xlink" viewBox="0 0 25.5254 25.1699">
 <g>
  
  <path d="M4.29297 25.1699L20.877 25.1699C23.748 25.1699 25.1699 23.7617 25.1699 20.9453L25.1699 4.23828C25.1699 1.42188 23.748 0 20.877 0L4.29297 0C1.43555 0 0 1.42188 0 4.23828L0 20.9453C0 23.7617 1.43555 25.1699 4.29297 25.1699ZM4.32031 22.9688C2.95312 22.9688 2.20117 22.2441 2.20117 20.8223L2.20117 4.36133C2.20117 2.93945 2.95312 2.20117 4.32031 2.20117L20.8496 2.20117C22.2031 2.20117 22.9688 2.93945 22.9688 4.36133L22.9688 20.8223C22.9688 22.2441 22.2031 22.9688 20.8496 22.9688Z" style="fill:var(--color-0,hsl(0 0 0/0.85))"></path>
  <path d="M9.37891 11.3203L9.37891 13.8496L8.35352 13.8496C6.74023 13.8496 5.45508 15.1348 5.45508 16.7207C5.45508 18.334 6.74023 19.6328 8.35352 19.6328C9.93945 19.6328 11.252 18.3203 11.252 16.7207L11.252 15.6816L13.7402 15.6816L13.7402 16.7207C13.7402 18.3203 15.0391 19.6328 16.6387 19.6328C18.2383 19.6328 19.5371 18.334 19.5371 16.7207C19.5371 15.1348 18.2383 13.8496 16.6387 13.8496L15.5996 13.8496L15.5996 11.3203L16.6387 11.3203C18.2383 11.3203 19.5371 10.0352 19.5371 8.43555C19.5371 6.83594 18.2383 5.53711 16.6387 5.53711C15.0391 5.53711 13.7402 6.84961 13.7402 8.43555L13.7402 9.47461L11.252 9.47461L11.252 8.43555C11.252 6.84961 9.93945 5.53711 8.35352 5.53711C6.74023 5.53711 5.45508 6.83594 5.45508 8.43555C5.45508 10.0352 6.74023 11.3203 8.35352 11.3203ZM11.252 13.8633L11.252 11.3066L13.7402 11.3066L13.7402 13.8633ZM8.35352 9.48828C7.76562 9.48828 7.30078 9.02344 7.30078 8.43555C7.30078 7.875 7.7793 7.38281 8.35352 7.38281C8.91406 7.38281 9.37891 7.875 9.37891 8.43555L9.37891 9.48828ZM16.6387 9.48828L15.5996 9.48828L15.5996 8.43555C15.5996 7.875 16.0781 7.38281 16.6387 7.38281C17.1992 7.38281 17.6914 7.875 17.6914 8.43555C17.6914 9.02344 17.2129 9.48828 16.6387 9.48828ZM8.35352 15.6543L9.37891 15.6543L9.37891 16.707C9.37891 17.2949 8.91406 17.7598 8.35352 17.7598C7.76562 17.7598 7.30078 17.2949 7.30078 16.707C7.30078 16.1465 7.7793 15.6543 8.35352 15.6543ZM16.6387 15.6543C17.1992 15.6543 17.6914 16.1465 17.6914 16.707C17.6914 17.2949 17.2129 17.7598 16.6387 17.7598C16.0781 17.7598 15.5996 17.2949 15.5996 16.707L15.5996 15.6543Z" style="fill:var(--color-1,hsl(0 0 0/0.85))"></path>
 </g>
</svg>