<svg version="1.1" xmlns="http://www.w3.org/2000/svg" xmlns:xlink="http://www.w3.org/1999/xlink" viewBox="0 0 28.2461 27.9043">
 <g>
  
  <path d="M13.9453 27.8906C21.6426 27.8906 27.8906 21.6426 27.8906 13.9453C27.8906 6.24805 21.6426 0 13.9453 0C6.24805 0 0 6.24805 0 13.9453C0 21.6426 6.24805 27.8906 13.9453 27.8906ZM13.9453 25.5664C7.51953 25.5664 2.32422 20.3711 2.32422 13.9453C2.32422 7.51953 7.51953 2.32422 13.9453 2.32422C20.3711 2.32422 25.5664 7.51953 25.5664 13.9453C25.5664 20.3711 20.3711 25.5664 13.9453 25.5664Z" style="fill:var(--color-0,hsl(0 0 0/0.85))"></path>
  <path d="M10.7188 12.6875L10.7188 15.2168L9.69336 15.2168C8.08008 15.2168 6.78125 16.502 6.78125 18.0879C6.78125 19.7012 8.08008 21 9.69336 21C11.2793 21 12.5918 19.6875 12.5918 18.0879L12.5918 17.0488L15.0801 17.0488L15.0801 18.0879C15.0801 19.6875 16.3789 21 17.9785 21C19.5781 21 20.877 19.7012 20.877 18.0879C20.877 16.502 19.5781 15.2168 17.9785 15.2168L16.9395 15.2168L16.9395 12.6875L17.9785 12.6875C19.5781 12.6875 20.877 11.4023 20.877 9.80273C20.877 8.20312 19.5781 6.9043 17.9785 6.9043C16.3789 6.9043 15.0801 8.2168 15.0801 9.80273L15.0801 10.8418L12.5918 10.8418L12.5918 9.80273C12.5918 8.2168 11.2793 6.9043 9.69336 6.9043C8.08008 6.9043 6.78125 8.20312 6.78125 9.80273C6.78125 11.4023 8.08008 12.6875 9.69336 12.6875ZM12.5918 15.2305L12.5918 12.6738L15.0801 12.6738L15.0801 15.2305ZM9.69336 10.8555C9.10547 10.8555 8.64062 10.3906 8.64062 9.80273C8.64062 9.24219 9.11914 8.75 9.69336 8.75C10.2539 8.75 10.7188 9.24219 10.7188 9.80273L10.7188 10.8555ZM17.9785 10.8555L16.9395 10.8555L16.9395 9.80273C16.9395 9.24219 17.4043 8.75 17.9785 8.75C18.5391 8.75 19.0312 9.24219 19.0312 9.80273C19.0312 10.3906 18.5527 10.8555 17.9785 10.8555ZM9.69336 17.0215L10.7188 17.0215L10.7188 18.0742C10.7188 18.6621 10.2539 19.127 9.69336 19.127C9.10547 19.127 8.64062 18.6621 8.64062 18.0742C8.64062 17.5137 9.11914 17.0215 9.69336 17.0215ZM17.9785 17.0215C18.5391 17.0215 19.0312 17.5137 19.0312 18.0742C19.0312 18.6621 18.5527 19.127 17.9785 19.127C17.4043 19.127 16.9395 18.6621 16.9395 18.0742L16.9395 17.0215Z" style="fill:var(--color-1,hsl(0 0 0/0.85))"></path>
 </g>
</svg>