<?xml version="1.0" encoding="UTF-8"?>
<!--Generator: Apple Native CoreSVG 326-->
<!DOCTYPE svg
PUBLIC "-//W3C//DTD SVG 1.1//EN"
       "http://www.w3.org/Graphics/SVG/1.1/DTD/svg11.dtd">
<svg version="1.1" xmlns="http://www.w3.org/2000/svg" xmlns:xlink="http://www.w3.org/1999/xlink" viewBox="0 0 20.8223 31.377">
 <g>
  <rect height="31.377" opacity="0" width="20.8223" x="0" y="0"/>
  <path d="M9.47461 4.2793L10.9922 4.2793L10.9922 0.751953C10.9922 0.328125 10.6504 0 10.2266 0C9.80273 0 9.47461 0.341797 9.47461 0.765625ZM10.2266 11.252C12.5645 11.252 14.4238 9.39258 14.4238 7.06836C14.4238 4.73047 12.5645 2.87109 10.2266 2.87109C7.90234 2.87109 6.04297 4.73047 6.04297 7.06836C6.04297 9.39258 7.90234 11.252 10.2266 11.252ZM10.2266 9.1875C8.99609 9.1875 8.10742 8.28516 8.10742 7.06836C8.10742 5.83789 8.99609 4.93555 10.2266 4.93555C11.457 4.93555 12.3594 5.83789 12.3594 7.06836C12.3594 8.28516 11.457 9.1875 10.2266 9.1875ZM9.66602 10.1582L7.51953 9.63867L2.24219 27.3711C2.06445 27.9453 2.43359 28.5605 3.02148 28.7109C3.60938 28.875 4.19727 28.5332 4.375 27.9316ZM2.83008 26.5918L1.81836 30.3789C1.72266 30.7617 1.92773 31.1582 2.32422 31.2539C2.7207 31.3633 3.10352 31.1445 3.21289 30.748L4.22461 26.9746ZM10.8008 10.1582L16.0918 27.9316C16.2695 28.5332 16.8574 28.875 17.4453 28.7109C18.0332 28.5605 18.3887 27.9453 18.2246 27.3711L12.9473 9.63867ZM17.6367 26.5918L16.2285 26.9746L17.2539 30.748C17.3633 31.1445 17.7461 31.3633 18.1426 31.2539C18.5254 31.1582 18.7441 30.7617 18.6348 30.3789ZM0.902344 17.7461C0.396484 17.7461 0 18.1426 0 18.6348C0 19.127 0.396484 19.5371 0.902344 19.5371L19.5645 19.5371C20.0566 19.5371 20.4668 19.127 20.4668 18.6348C20.4668 18.1426 20.0566 17.7461 19.5645 17.7461ZM11.1289 16.2832C11.1289 15.791 10.7188 15.3809 10.2266 15.3809C9.73438 15.3809 9.33789 15.791 9.33789 16.2832L9.33789 20.9863C9.33789 21.4785 9.73438 21.8887 10.2266 21.8887C10.7188 21.8887 11.1289 21.4785 11.1289 20.9863Z" fill="white" fill-opacity="0.85"/>
 </g>
</svg>
