<?xml version="1.0" encoding="UTF-8"?>
<!--Generator: Apple Native CoreSVG 326-->
<!DOCTYPE svg
PUBLIC "-//W3C//DTD SVG 1.1//EN"
       "http://www.w3.org/Graphics/SVG/1.1/DTD/svg11.dtd">
<svg version="1.1" xmlns="http://www.w3.org/2000/svg" xmlns:xlink="http://www.w3.org/1999/xlink" viewBox="0 0 19.5098 30.0098">
 <g>
  <rect height="30.0098" opacity="0" width="19.5098" x="0" y="0"/>
  <path d="M9.57031 30.0098C15.8594 30.0098 19.1543 26.2773 19.1543 19.168C19.1543 14.8066 18.9766 10.9238 18.7305 8.28516C18.2109 2.46094 15.5176 0.0410156 9.57031 0.0410156C3.63672 0.0410156 0.943359 2.46094 0.410156 8.28516C0.164062 10.9238 0 14.8066 0 19.168C0 26.2773 3.28125 30.0098 9.57031 30.0098ZM9.57031 27.8086C4.7168 27.8086 2.20117 24.8555 2.20117 19.168C2.20117 15.0664 2.35156 11.2109 2.61133 8.49023C3.02148 3.82812 4.75781 2.24219 9.57031 2.24219C14.3828 2.24219 16.1328 3.82812 16.543 8.49023C16.7891 11.2109 16.9531 15.0664 16.9531 19.168C16.9531 24.8555 14.4238 27.8086 9.57031 27.8086ZM1.6543 10.2676L17.5137 10.2676L17.5137 8.47656L1.6543 8.47656ZM8.69531 9.36523L10.4863 9.37891L10.4863 1.44922L8.69531 1.43555Z" fill="white" fill-opacity="0.85"/>
 </g>
</svg>
