<svg version="1.1" xmlns="http://www.w3.org/2000/svg" xmlns:xlink="http://www.w3.org/1999/xlink" viewBox="0 0 27.8633 29.9551">
 <g>
  
  <path d="M0 24.3359C0 27.5762 5.7832 29.9551 13.7539 29.9551C21.7246 29.9551 27.5078 27.5762 27.5078 24.3359C27.5078 23.8984 27.3027 23.2422 26.9883 22.6543L15.0391 1.01172C14.6699 0.341797 14.2051 0.21875 13.7539 0.21875C13.3027 0.21875 12.8379 0.341797 12.4688 1.01172L0.519531 22.6543C0.205078 23.2422 0 23.8984 0 24.3359ZM2.13281 24.3359C2.13281 24.1855 2.2832 23.8711 2.46094 23.5566L13.5078 3.60938C13.5625 3.48633 13.6445 3.44531 13.7539 3.44531C13.8633 3.44531 13.9453 3.48633 14 3.60938L25.0469 23.5566C25.2246 23.8711 25.375 24.1855 25.375 24.3359C25.375 25.9902 19.9062 27.8086 13.7539 27.8086C7.60156 27.8086 2.13281 25.9902 2.13281 24.3359Z" style="fill:var(--color-0,hsl(0 0 0/0.85))"></path>
 </g>
</svg>