<svg version="1.1" xmlns="http://www.w3.org/2000/svg" xmlns:xlink="http://www.w3.org/1999/xlink" viewBox="0 0 24.3906 36.3809">
 <g>
  
  <path d="M4.29297 30.0645L10.9375 30.0645L10.9375 6.28906L4.29297 6.28906C1.43555 6.28906 0 7.71094 0 10.5273L0 25.8398C0 28.6562 1.43555 30.0645 4.29297 30.0645ZM19.7422 30.0645C22.6133 30.0645 24.0352 28.6426 24.0352 25.8398L24.0352 10.5273C24.0352 7.71094 22.6133 6.28906 19.7422 6.28906L13.0703 6.28906L13.0703 30.0645ZM12.0039 0C11.4023 0 10.9375 0.478516 10.9375 1.06641L10.9375 6.28906L13.0703 6.28906L13.0703 1.06641C13.0703 0.478516 12.6055 0 12.0039 0ZM12.0039 36.3535C12.6055 36.3535 13.0703 35.8887 13.0703 35.2871L13.0703 30.0645L10.9375 30.0645L10.9375 35.2871C10.9375 35.8887 11.4023 36.3535 12.0039 36.3535Z" style="fill:var(--color-0,hsl(0 0 0/0.85))"></path>
 </g>
</svg>