<svg version="1.1" xmlns="http://www.w3.org/2000/svg" xmlns:xlink="http://www.w3.org/1999/xlink" viewBox="0 0 50.75 22.7363">
 <g>
  
  <path d="M1.81836 2.73438L6.16602 2.73438C6.68555 2.73438 7.08203 2.87109 7.39648 3.18555L12.25 8.03906L14.1641 7.06836L8.99609 1.90039C8.20312 1.10742 7.16406 0.765625 5.93359 0.765625L1.81836 0.765625C1.18945 0.765625 0.792969 1.16211 0.792969 1.75C0.792969 2.33789 1.18945 2.73438 1.81836 2.73438ZM11.2383 22.7363C13.5488 22.7363 15.3535 20.9316 15.3535 18.6348C15.3535 16.3379 13.5488 14.5332 11.2383 14.5332C8.94141 14.5332 7.13672 16.3379 7.13672 18.6348C7.13672 20.9316 8.94141 22.7363 11.2383 22.7363ZM39.3477 22.7363C41.6582 22.7363 43.4629 20.9316 43.4629 18.6348C43.4629 16.3379 41.6582 14.5332 39.3477 14.5332C37.0371 14.5332 35.2324 16.3379 35.2324 18.6348C35.2324 20.9316 37.0371 22.7363 39.3477 22.7363ZM38.1035 5.5918C37.3105 5.44141 36.5723 5.37305 35.8203 5.44141L20.2754 6.45312L26.0586 2.55664C27.3027 1.72266 26.0859-0.123047 24.7461 0.779297L15.9824 6.63086L6.67188 8.38086C2.22852 9.21484 0 11.2656 0 14.875L0 16.6934C0 18.7441 0.916016 19.7559 2.98047 19.9883L5.71484 20.3164C5.60547 19.8789 5.53711 19.1133 5.53711 18.6348C5.53711 15.4629 8.05273 12.9473 11.2383 12.9473C14.4238 12.9473 16.9395 15.4629 16.9395 18.6348C16.9395 19.0312 16.9121 19.4824 16.8438 19.7559L33.7832 19.7559C33.6875 19.4551 33.6465 19.0449 33.6465 18.6348C33.6465 15.4629 36.1621 12.9473 39.3477 12.9473C42.5332 12.9473 45.0488 15.7363 45.0488 18.9082C45.0488 19.0859 45.0488 19.1543 45.0352 19.3184L46.4844 19.168C49.123 18.8945 50.3945 17.4316 50.3945 14.7109L50.3945 12.332C50.3945 9.0918 49.2051 7.73828 46.1016 7.13672Z" style="fill:var(--color-0,hsl(0 0 0/0.85))"></path>
 </g>
</svg>