<?xml version="1.0" encoding="UTF-8"?>
<!--Generator: Apple Native CoreSVG 326-->
<!DOCTYPE svg
PUBLIC "-//W3C//DTD SVG 1.1//EN"
       "http://www.w3.org/Graphics/SVG/1.1/DTD/svg11.dtd">
<svg version="1.1" xmlns="http://www.w3.org/2000/svg" xmlns:xlink="http://www.w3.org/1999/xlink" viewBox="0 0 50.75 34.0624">
 <g>
  <rect height="34.0624" opacity="0" width="50.75" x="0" y="0"/>
  <path d="M2.98047 25.6513L6.43945 26.0478L6.6582 23.8466L3.5 23.4911C2.61133 23.3954 2.20117 22.9853 2.20117 22.1923L2.20117 20.538C2.20117 18.1865 3.78711 16.7919 6.95898 16.1904L15.7773 14.5224C16.5156 14.3857 17.0898 14.2626 17.582 13.9208L26.0586 8.21966C27.3027 7.38567 26.0859 5.53997 24.7461 6.44231L15.9824 12.2939L6.67188 14.0439C2.22852 14.8779 0 16.9286 0 20.538L0 22.3564C0 24.4072 0.916016 25.4325 2.98047 25.6513ZM10.0625 28.3993C12.7832 28.3993 14.916 26.2665 14.916 23.5458C14.916 20.8115 12.7832 18.6786 10.0625 18.6786C7.32812 18.6786 5.19531 20.8115 5.19531 23.5458C5.19531 26.2665 7.32812 28.3993 10.0625 28.3993ZM10.0625 26.3349C8.49023 26.3349 7.25977 25.1044 7.25977 23.5458C7.25977 21.9736 8.49023 20.7431 10.0625 20.7431C11.6211 20.7431 12.8516 21.9736 12.8516 23.5458C12.8516 25.1044 11.6211 26.3349 10.0625 26.3349ZM13.4668 25.4189L37.0645 25.4189L37.0645 23.2177L13.4668 23.2177ZM40.3457 28.3993C43.0664 28.3993 45.1992 26.2665 45.1992 23.5458C45.1992 20.8115 43.0664 18.6786 40.3457 18.6786C37.6113 18.6786 35.4785 20.8115 35.4785 23.5458C35.4785 26.2665 37.6113 28.3993 40.3457 28.3993ZM40.3457 26.3349C38.7734 26.3349 37.543 25.1044 37.543 23.5458C37.543 21.9736 38.7734 20.7431 40.3457 20.7431C41.9043 20.7431 43.1348 21.9736 43.1348 23.5458C43.1348 25.1044 41.9043 26.3349 40.3457 26.3349ZM44.0918 25.0908L46.4844 24.831C49.123 24.5575 50.3945 23.0947 50.3945 20.374L50.3945 17.995C50.3945 14.7548 49.1914 13.3876 46.1016 12.7997L38.1035 11.2548C37.3105 11.1044 36.5723 11.0497 35.8203 11.1044L16.0918 12.2939L15.4492 14.5361L36.3672 13.2646L45.7051 15.0693C47.5234 15.4111 48.1934 16.204 48.1934 17.995L48.1934 20.374C48.1934 21.7822 47.5508 22.5341 46.2109 22.6708L44.0918 22.8896Z" fill="white" fill-opacity="0.85"/>
  <path d="M38.7051 7.0302L38.6367 5.10247C42.0273 4.8427 45.5273 5.88177 48.1523 7.12591C48.7402 7.38567 49.4375 7.12591 49.7109 6.53802C49.957 5.93645 49.6836 5.23919 49.0957 4.9931C46.3477 3.69427 42.4238 2.53216 38.5684 2.76458L38.5137 0.959892C38.4863-0.0381547 37.8164-0.243233 37.1055 0.276298L32.9219 3.3388C32.2793 3.78997 32.3066 4.44622 32.9492 4.87005L37.2695 7.76849C38.0625 8.27435 38.7188 8.00091 38.7051 7.0302Z" fill="white" fill-opacity="0.85"/>
 </g>
</svg>
