<svg version="1.1" xmlns="http://www.w3.org/2000/svg" xmlns:xlink="http://www.w3.org/1999/xlink" viewBox="0 0 46.5441 34.6769">
 <g>
  
  <path d="M13.7018 14.9664C15.315 15.9097 17.3111 15.3765 18.2408 13.7496C19.1705 12.15 18.6373 10.1539 17.024 9.21053C15.3971 8.28084 13.401 8.81405 12.4713 10.4273C11.5416 12.0406 12.0748 14.0367 13.7018 14.9664ZM33.4166 26.3551C35.0299 27.2847 37.026 26.7515 37.9557 25.1383C38.8853 23.525 38.3521 21.5289 36.7389 20.5992C35.1119 19.6695 33.1158 20.2027 32.1998 21.816C31.2564 23.4293 31.7896 25.4254 33.4166 26.3551ZM39.4869 13.8316C38.9947 13.3941 38.5025 13.0523 37.942 12.7926L26.6353 7.20076L32.2682 6.81795C33.4713 6.73592 33.3619 4.94491 32.0631 5.04061L23.5455 5.60116L16.2994 3.04451C12.8541 1.84139 10.4615 2.36092 8.99863 4.90389L8.26035 6.17537C7.42636 7.62459 7.65879 8.691 9.0123 9.70272L10.7896 11.0289C10.899 10.6871 11.1588 10.1265 11.3639 9.78475C12.649 7.55623 15.4381 6.80428 17.6666 8.10311C19.8951 9.38826 20.6471 12.1773 19.3619 14.4058C19.1978 14.6793 18.9928 14.9801 18.8287 15.1441L30.7096 22.0074C30.7779 21.7613 30.9146 21.4469 31.0787 21.1597C32.3639 18.9449 35.1529 18.193 37.3814 19.4781C39.61 20.7769 40.2525 23.7574 38.9674 25.9722C38.899 26.109 38.8717 26.15 38.7896 26.2594L39.8697 26.7379C41.8248 27.6129 43.315 27.107 44.4225 25.2066L45.3795 23.5387C46.692 21.2555 46.4049 19.8199 44.4635 18.1519Z" style="fill:var(--color-0,hsl(0 0 0/0.85))"></path>
  <path d="M4.77402 6.4078L7.65879 1.41756C8.1373 0.597249 7.46738-0.141032 6.61972 0.0230302L2.21738 0.829671C1.61582 0.952718 1.34238 1.41756 1.56113 2.00545L3.05136 6.20272C3.33847 7.02303 4.2955 7.22811 4.77402 6.4078ZM0.152926 11.7945C-0.161527 12.3414 0.0298795 13.0113 0.535739 13.3121L37.2447 34.5172C37.7506 34.818 38.4342 34.6402 38.735 34.1344C39.0357 33.5738 38.8443 32.9039 38.3521 32.6168L1.62949 11.398C1.1373 11.1109 0.440036 11.2887 0.152926 11.7945Z" style="fill:var(--color-1,hsl(0 0 0/0.85))"></path>
 </g>
</svg>