<svg version="1.1" xmlns="http://www.w3.org/2000/svg" xmlns:xlink="http://www.w3.org/1999/xlink" viewBox="0 0 51.1823 31.4543">
 <g>
  
  <path d="M3.18978 24.3473L6.64876 24.7438L6.86751 22.5426L3.70931 22.1871C2.82064 22.0914 2.41048 21.6813 2.41048 20.8883L2.41048 19.234C2.41048 16.8824 4.01009 15.4879 7.16829 14.8863L15.9867 13.2184C16.7386 13.0817 17.2992 12.9586 17.7913 12.6168L26.2679 6.91564C27.512 6.08165 26.2952 4.23595 24.9691 5.1383L16.2054 10.9899L6.88118 12.7399C2.4515 13.5738 0.209308 15.6246 0.209308 19.234L0.209308 21.0524C0.209308 23.1031 1.12532 24.1285 3.18978 24.3473ZM10.2718 27.0953C13.0062 27.0953 15.139 24.9625 15.139 22.2418C15.139 19.5074 13.0062 17.3746 10.2718 17.3746C7.53743 17.3746 5.40462 19.5074 5.40462 22.2418C5.40462 24.9625 7.53743 27.0953 10.2718 27.0953ZM10.2718 25.0309C8.71321 25.0309 7.46907 23.8004 7.46907 22.2418C7.46907 20.6695 8.71321 19.4391 10.2718 19.4391C11.8304 19.4391 13.0745 20.6695 13.0745 22.2418C13.0745 23.8004 11.8304 25.0309 10.2718 25.0309ZM13.6761 24.1149L37.2874 24.1149L37.2874 21.9137L13.6761 21.9137ZM40.555 27.0953C43.2894 27.0953 45.4222 24.9625 45.4222 22.2418C45.4222 19.5074 43.2894 17.3746 40.555 17.3746C37.8206 17.3746 35.6878 19.5074 35.6878 22.2418C35.6878 24.9625 37.8206 27.0953 40.555 27.0953ZM40.555 25.0309C38.9964 25.0309 37.7523 23.8004 37.7523 22.2418C37.7523 20.6695 38.9964 19.4391 40.555 19.4391C42.1136 19.4391 43.3577 20.6695 43.3577 22.2418C43.3577 23.8004 42.1136 25.0309 40.555 25.0309ZM44.3011 23.7867L46.7074 23.527C49.3324 23.2535 50.6175 21.7906 50.6175 19.0699L50.6175 16.691C50.6175 13.4508 49.4007 12.0836 46.3109 11.4957L38.3265 9.9508C37.5335 9.8004 36.7952 9.74572 36.0296 9.8004L16.3011 10.9899L15.6722 13.232L36.5765 11.9606L45.9281 13.7652C47.7327 14.107 48.4163 14.9 48.4163 16.691L48.4163 19.0699C48.4163 20.4781 47.7601 21.2301 46.4202 21.3668L44.3011 21.5856Z" style="fill:var(--color-0,hsl(0 0 0/0.85))"></path>
  <path d="M44.2874 6.35509C43.9593 7.27111 44.4925 7.74962 45.3949 7.5172L50.4124 6.24572C51.1781 6.06798 51.3968 5.43908 50.9593 4.82384L48.0472 0.530873C47.555-0.193736 46.8441-0.207408 46.4886 0.681264L45.8187 2.37658C42.264 0.858998 38.1898 0.640248 35.1683 0.941029C34.5257 0.995717 34.0335 1.55626 34.0745 2.19884C34.1292 2.84142 34.7034 3.31994 35.346 3.27892C38.2581 2.99181 41.9085 3.19689 44.9984 4.56408Z" style="fill:var(--color-1,hsl(0 0 0/0.85))"></path>
 </g>
</svg>