<svg version="1.1" xmlns="http://www.w3.org/2000/svg" xmlns:xlink="http://www.w3.org/1999/xlink" viewBox="0 0 50.75 31.0488">
 <g>
  
  <path d="M15.3535 22.791C15.3535 25.0879 13.5488 26.8926 11.2383 26.8926C8.94141 26.8926 7.13672 25.0879 7.13672 22.791C7.13672 20.4941 8.94141 18.6895 11.2383 18.6895C13.5488 18.6895 15.3535 20.4941 15.3535 22.791ZM43.4629 22.791C43.4629 25.0879 41.6582 26.8926 39.3477 26.8926C37.0371 26.8926 35.2324 25.0879 35.2324 22.791C35.2324 20.4941 37.0371 18.6895 39.3477 18.6895C41.6582 18.6895 43.4629 20.4941 43.4629 22.791ZM18.4707 12.0039C18.4707 14.2734 19.9062 15.7363 22.1074 15.7363L28.3008 15.7363C30.4883 15.7363 31.9238 14.2734 31.9238 12.0039L31.9238 9.85125L35.8203 9.59766C36.5723 9.5293 37.3105 9.59766 38.1035 9.74805L46.1016 11.293C49.2051 11.8945 50.3945 13.248 50.3945 16.4883L50.3945 18.8672C50.3945 21.5879 49.123 23.0508 46.4844 23.3242L45.0352 23.4746C45.0488 23.3105 45.0488 23.2422 45.0488 23.0645C45.0488 19.8926 42.5332 17.1035 39.3477 17.1035C36.1621 17.1035 33.6465 19.6191 33.6465 22.791C33.6465 23.2012 33.6875 23.6113 33.7832 23.9121L16.8438 23.9121C16.9121 23.6387 16.9395 23.1875 16.9395 22.791C16.9395 19.6191 14.4238 17.1035 11.2383 17.1035C8.05273 17.1035 5.53711 19.6191 5.53711 22.791C5.53711 23.2695 5.60547 24.0352 5.71484 24.4727L2.98047 24.1445C0.916016 23.9121 0 22.9004 0 20.8496L0 19.0312C0 15.4219 2.22852 13.3711 6.67188 12.5371L15.9824 10.7871L18.4707 9.12567Z" style="fill:var(--color-0,hsl(0 0 0/0.85))"></path>
  <path d="M22.1074 13.8633L28.3008 13.8633C29.4492 13.8633 30.0508 13.248 30.0508 12.0039L30.0508 7.24609C30.0508 6.01562 29.4492 5.40039 28.3008 5.40039L22.1074 5.40039C20.9453 5.40039 20.3438 6.01562 20.3438 7.24609L20.3438 12.0039C20.3438 13.248 20.9453 13.8633 22.1074 13.8633ZM27.0566 6.50781L28.5469 6.50781L28.5469 3.77344C28.5469 2.37891 29.3945 1.47656 30.7207 1.47656C32.0605 1.47656 32.8945 2.37891 32.8945 3.77344L32.8945 5.30469C32.8945 5.71484 33.2363 6.04297 33.6465 6.04297C34.0566 6.04297 34.3848 5.71484 34.3848 5.30469L34.3848 4.00586C34.3848 1.54492 32.9629 0 30.7207 0C28.4922 0 27.0566 1.54492 27.0566 4.00586Z" style="fill:var(--color-1,hsl(0 0 0/0.85))"></path>
 </g>
</svg>