<?xml version="1.0" encoding="UTF-8"?>
<!--Generator: Apple Native CoreSVG 326-->
<!DOCTYPE svg
PUBLIC "-//W3C//DTD SVG 1.1//EN"
       "http://www.w3.org/Graphics/SVG/1.1/DTD/svg11.dtd">
<svg version="1.1" xmlns="http://www.w3.org/2000/svg" xmlns:xlink="http://www.w3.org/1999/xlink" viewBox="0 0 50.75 30.8848">
 <g>
  <rect height="30.8848" opacity="0" width="50.75" x="0" y="0"/>
  <path d="M17.0078 23.8301L33.7969 23.8301C33.7012 23.5293 33.6602 23.1191 33.6602 22.709C33.6602 19.5371 36.1758 17.0215 39.3613 17.0215C42.5469 17.0215 45.0625 19.8105 45.0625 22.9824C45.0625 23.1602 45.0625 23.2285 45.0488 23.3926L46.4844 23.2422C49.123 22.9688 50.3945 21.5059 50.3945 18.7852L50.3945 16.4062C50.3945 13.166 49.2051 11.6895 46.1016 11.2109L38.6367 10.0352C37.6387 9.87109 35.5605 9.81641 33.5508 9.91211L20.2754 10.5273L26.0586 6.63086C27.3027 5.79688 26.0859 3.95117 24.7461 4.85352L15.9824 10.7051L6.67188 12.4551C2.22852 13.2891 0 15.3398 0 18.9492L0 20.7676C0 22.8184 0.916016 23.8438 2.98047 24.0625L5.86523 24.3906C5.76953 23.9531 5.70117 23.1875 5.70117 22.709C5.70117 19.5371 8.2168 17.0215 11.4023 17.0215C14.5879 17.0215 17.1035 19.5371 17.1035 22.709C17.1035 23.1055 17.0762 23.5566 17.0078 23.8301ZM11.4023 26.8105C13.7129 26.8105 15.5176 25.0059 15.5176 22.709C15.5176 20.4121 13.7129 18.6074 11.4023 18.6074C9.10547 18.6074 7.30078 20.4121 7.30078 22.709C7.30078 25.0059 9.10547 26.8105 11.4023 26.8105ZM39.3613 26.8105C41.6719 26.8105 43.4766 25.0059 43.4766 22.709C43.4766 20.4121 41.6719 18.6074 39.3613 18.6074C37.0508 18.6074 35.2461 20.4121 35.2461 22.709C35.2461 25.0059 37.0508 26.8105 39.3613 26.8105ZM30.2148 12.3047C29.5449 12.3047 29.0664 11.8398 29.0391 11.1426L28.7656 1.46289C28.7383 0.587891 29.3125 0 30.2148 0C31.1172 0 31.6914 0.587891 31.6641 1.46289L31.377 11.1426C31.3496 11.8398 30.8848 12.3047 30.2148 12.3047ZM30.2148 18.375C29.2441 18.375 28.4238 17.582 28.4238 16.6523C28.4238 15.709 29.2168 14.9297 30.2148 14.9297C31.1992 14.9297 32.0059 15.709 32.0059 16.6523C32.0059 17.582 31.1855 18.375 30.2148 18.375Z" fill="white" fill-opacity="0.85"/>
 </g>
</svg>
