<?xml version="1.0" encoding="UTF-8"?>
<!--Generator: Apple Native CoreSVG 326-->
<!DOCTYPE svg
PUBLIC "-//W3C//DTD SVG 1.1//EN"
       "http://www.w3.org/Graphics/SVG/1.1/DTD/svg11.dtd">
<svg version="1.1" xmlns="http://www.w3.org/2000/svg" xmlns:xlink="http://www.w3.org/1999/xlink" viewBox="0 0 50.75 34.0566">
 <g>
  <rect height="34.0566" opacity="0" width="50.75" x="0" y="0"/>
  <path d="M21.5075 11.2778L20.3859 12.0321L21.5278 11.9633L21.5605 13.0703C21.5761 13.4552 21.655 13.8182 21.7901 14.1478L15.826 14.5103C15.8106 14.5134 15.794 14.5164 15.7773 14.5195L6.95898 16.1875C3.78711 16.7891 2.20117 18.1836 2.20117 20.5352L2.20117 22.1895C2.20117 22.9824 2.61133 23.3926 3.5 23.4883L5.20201 23.6798C5.19593 23.6354 5.19531 23.5893 5.19531 23.543C5.19531 20.8086 7.32812 18.6758 10.0625 18.6758C12.6728 18.6758 14.7419 20.639 14.9 23.2148L35.4945 23.2148C35.6526 20.639 37.7223 18.6758 40.3457 18.6758C42.8064 18.6758 44.7861 20.4204 45.1363 22.7789L46.2109 22.668C47.5508 22.5312 48.1934 21.7793 48.1934 20.3711L48.1934 17.9922C48.1934 16.2012 47.5234 15.4082 45.7051 15.0664L36.3672 13.2617L27.517 13.7997C27.5827 13.569 27.6206 13.3244 27.6309 13.0703L27.6746 11.5927L35.8203 11.1016C36.5723 11.0469 37.3105 11.1016 38.1035 11.252L46.1016 12.7969C49.1914 13.3848 50.3945 14.752 50.3945 17.9922L50.3945 20.3711C50.3945 23.0918 49.123 24.5547 46.4844 24.8281L44.9871 24.9907C44.385 26.9836 42.5601 28.3965 40.3457 28.3965C38.2823 28.3965 36.5614 27.182 35.8426 25.416L14.5522 25.416C13.8339 27.182 12.1156 28.3965 10.0625 28.3965C8.22591 28.3965 6.6607 27.4343 5.83445 25.9756L2.98047 25.6484C0.916016 25.4297 0 24.4043 0 22.3535L0 20.5352C0 16.9258 2.22852 14.875 6.67188 14.041L15.9824 12.291L21.4297 8.65381ZM7.25977 23.543C7.25977 25.1016 8.49023 26.332 10.0625 26.332C11.6211 26.332 12.8516 25.1016 12.8516 23.543C12.8516 21.9707 11.6211 20.7402 10.0625 20.7402C8.49023 20.7402 7.25977 21.9707 7.25977 23.543ZM37.543 23.543C37.543 25.1016 38.7734 26.332 40.3457 26.332C41.9043 26.332 43.1348 25.1016 43.1348 23.543C43.1348 21.9707 41.9043 20.7402 40.3457 20.7402C38.7734 20.7402 37.543 21.9707 37.543 23.543Z" fill="white" fill-opacity="0.85"/>
  <path d="M24.5957 20.2344C25.5801 20.2344 26.3867 19.4414 26.3867 18.5117C26.3867 17.5684 25.5938 16.7891 24.5957 16.7891C23.6113 16.7891 22.8047 17.5684 22.8047 18.5117C22.8047 19.4414 23.625 20.2344 24.5957 20.2344ZM24.5957 14.1641C25.2656 14.1641 25.7441 13.6992 25.7715 13.002L26.0586 3.32227C26.0859 2.44727 25.498 1.85938 24.5957 1.85938C23.6934 1.85938 23.1191 2.44727 23.1465 3.32227L23.4336 13.002C23.4609 13.6992 23.9258 14.1641 24.5957 14.1641Z" fill="white" fill-opacity="0.85"/>
 </g>
</svg>
