<svg version="1.1" xmlns="http://www.w3.org/2000/svg" xmlns:xlink="http://www.w3.org/1999/xlink" viewBox="0 0 50.75 22.7363">
 <g>
  
  <path d="M26.0586 2.55664L20.3859 6.37196L35.8203 5.44141C36.5723 5.38672 37.3105 5.44141 38.1035 5.5918L46.1016 7.13672C49.1914 7.72461 50.3945 9.0918 50.3945 12.332L50.3945 14.7109C50.3945 17.4316 49.123 18.8945 46.4844 19.168L44.9871 19.3305C44.385 21.3235 42.5601 22.7363 40.3457 22.7363C38.2823 22.7363 36.5614 21.5218 35.8426 19.7559L14.5522 19.7559C13.8339 21.5218 12.1156 22.7363 10.0625 22.7363C8.22591 22.7363 6.6607 21.7741 5.83445 20.3154L2.98047 19.9883C0.916016 19.7695 0 18.7441 0 16.6934L0 14.875C0 11.2656 2.22852 9.21484 6.67188 8.38086L12.1792 7.34572L13.6326 9.26504L6.95898 10.5273C3.78711 11.1289 2.20117 12.5234 2.20117 14.875L2.20117 16.5293C2.20117 17.3223 2.61133 17.7324 3.5 17.8281L5.20201 18.0197C5.19593 17.9752 5.19531 17.9291 5.19531 17.8828C5.19531 15.1484 7.32812 13.0156 10.0625 13.0156C12.6728 13.0156 14.7419 14.9788 14.9 17.5547L35.4945 17.5547C35.6526 14.9788 37.7223 13.0156 40.3457 13.0156C42.8064 13.0156 44.7861 14.7602 45.1363 17.1187L46.2109 17.0078C47.5508 16.8711 48.1934 16.1191 48.1934 14.7109L48.1934 12.332C48.1934 10.541 47.5234 9.74805 45.7051 9.40625L36.3672 7.60156L19.9046 8.60223L17.5801 5.56411L24.7461 0.779297C26.0859-0.123047 27.3027 1.72266 26.0586 2.55664ZM7.25977 17.8828C7.25977 19.4414 8.49023 20.6719 10.0625 20.6719C11.6211 20.6719 12.8516 19.4414 12.8516 17.8828C12.8516 16.3105 11.6211 15.0801 10.0625 15.0801C8.49023 15.0801 7.25977 16.3105 7.25977 17.8828ZM37.543 17.8828C37.543 19.4414 38.7734 20.6719 40.3457 20.6719C41.9043 20.6719 43.1348 19.4414 43.1348 17.8828C43.1348 16.3105 41.9043 15.0801 40.3457 15.0801C38.7734 15.0801 37.543 16.3105 37.543 17.8828Z" style="fill:var(--color-0,hsl(0 0 0/0.85))"></path>
  <path d="M7.08203 4.92188L10.4453 4.92188C11.9492 4.92188 12.5371 5.18164 13.3027 6.19336L17.5684 11.8262C18.7578 13.3574 20.0566 14.041 21.9844 14.041L24.9785 14.041L24.9785 15.2168C24.9785 16.1738 25.8125 16.4609 26.5234 15.9961L29.9688 13.7812C30.625 13.3711 30.6387 12.5371 29.9688 12.0996L26.5371 9.89844C25.8125 9.41992 24.9785 9.70703 24.9785 10.6777L24.9785 11.8398L21.9844 11.8398C20.6992 11.8398 20.1797 11.5801 19.332 10.459L15.0254 4.83984C13.8633 3.32227 12.5098 2.7207 10.4453 2.7207L7.08203 2.7207C6.48047 2.7207 5.97461 3.22656 5.97461 3.82812C5.97461 4.42969 6.48047 4.92188 7.08203 4.92188Z" style="fill:var(--color-1,hsl(0 0 0/0.85))"></path>
 </g>
</svg>