<?xml version="1.0" encoding="UTF-8"?>
<!--Generator: Apple Native CoreSVG 326-->
<!DOCTYPE svg
PUBLIC "-//W3C//DTD SVG 1.1//EN"
       "http://www.w3.org/Graphics/SVG/1.1/DTD/svg11.dtd">
<svg version="1.1" xmlns="http://www.w3.org/2000/svg" xmlns:xlink="http://www.w3.org/1999/xlink" viewBox="0 0 51.1823 31.4543">
 <g>
  <rect height="31.4543" opacity="0" width="51.1823" x="0" y="0"/>
  <path d="M11.4476 27.0953C13.7581 27.0953 15.5628 25.2906 15.5628 22.9938C15.5628 20.6969 13.7581 18.8922 11.4476 18.8922C9.15071 18.8922 7.34603 20.6969 7.34603 22.9938C7.34603 25.2906 9.15071 27.0953 11.4476 27.0953ZM39.557 27.0953C41.8675 27.0953 43.6722 25.2906 43.6722 22.9938C43.6722 20.6969 41.8675 18.8922 39.557 18.8922C37.2601 18.8922 35.4554 20.6969 35.4554 22.9938C35.4554 25.2906 37.2601 27.0953 39.557 27.0953ZM38.3265 9.9508C37.5335 9.8004 36.7952 9.73205 36.0296 9.8004L20.4847 10.8121L26.2679 6.91564C27.512 6.08165 26.2952 4.23595 24.9691 5.1383L16.2054 10.9899L6.88118 12.7399C2.4515 13.5738 0.209308 15.6246 0.209308 19.234L0.209308 21.0524C0.209308 23.1031 1.12532 24.1149 3.18978 24.3473L5.92415 24.6754C5.81478 24.2379 5.74642 23.4723 5.74642 22.9938C5.74642 19.8219 8.27571 17.3063 11.4476 17.3063C14.6331 17.3063 17.1624 19.8219 17.1624 22.9938C17.1624 23.3902 17.1214 23.8414 17.0531 24.1149L33.9925 24.1149C33.9105 23.8141 33.8558 23.4039 33.8558 22.9938C33.8558 19.8219 36.3851 17.3063 39.557 17.3063C42.7425 17.3063 45.2581 20.0953 45.2581 23.2672C45.2581 23.4449 45.2581 23.5133 45.2445 23.6774L46.7074 23.527C49.3324 23.2535 50.6175 21.7906 50.6175 19.0699L50.6175 16.691C50.6175 13.4508 49.4144 12.0973 46.3109 11.4957Z" fill="white" fill-opacity="0.85"/>
  <path d="M44.2874 6.35509C43.9593 7.27111 44.4925 7.74962 45.3949 7.5172L50.4124 6.24572C51.1781 6.06798 51.3968 5.43908 50.9593 4.82384L48.0472 0.530873C47.555-0.193736 46.8441-0.207408 46.4886 0.681264L45.8187 2.37658C42.264 0.858998 38.1898 0.640248 35.1683 0.941029C34.5257 0.995717 34.0335 1.55626 34.0745 2.19884C34.1292 2.84142 34.7034 3.31994 35.346 3.27892C38.2581 2.99181 41.9085 3.19689 44.9984 4.56408Z" fill="white" fill-opacity="0.85"/>
 </g>
</svg>
