<svg version="1.1" xmlns="http://www.w3.org/2000/svg" xmlns:xlink="http://www.w3.org/1999/xlink" viewBox="0 0 50.75 32.9288">
 <g>
  
  <path d="M11.2383 27.8326C13.5488 27.8326 15.3535 26.0279 15.3535 23.731C15.3535 21.4341 13.5488 19.6295 11.2383 19.6295C8.94141 19.6295 7.13672 21.4341 7.13672 23.731C7.13672 26.0279 8.94141 27.8326 11.2383 27.8326ZM39.3477 27.8326C41.6582 27.8326 43.4629 26.0279 43.4629 23.731C43.4629 21.4341 41.6582 19.6295 39.3477 19.6295C37.0371 19.6295 35.2324 21.4341 35.2324 23.731C35.2324 26.0279 37.0371 27.8326 39.3477 27.8326ZM38.1035 10.688C37.3105 10.5377 36.5723 10.4693 35.8203 10.5377L20.2754 11.5494L26.0586 7.65289C27.3027 6.8189 26.0859 4.9732 24.7461 5.87555L15.9824 11.7271L6.67188 13.4771C2.22852 14.3111 0 16.3619 0 19.9712L0 21.7896C0 23.8404 0.916016 24.8521 2.98047 25.0845L5.71484 25.4127C5.60547 24.9752 5.53711 24.2095 5.53711 23.731C5.53711 20.5591 8.05273 18.0435 11.2383 18.0435C14.4238 18.0435 16.9395 20.5591 16.9395 23.731C16.9395 24.1275 16.9121 24.5787 16.8438 24.8521L33.7832 24.8521C33.6875 24.5513 33.6465 24.1412 33.6465 23.731C33.6465 20.5591 36.1621 18.0435 39.3477 18.0435C42.5332 18.0435 45.0488 20.8326 45.0488 24.0045C45.0488 24.1822 45.0488 24.2505 45.0352 24.4146L46.4844 24.2642C49.123 23.9908 50.3945 22.5279 50.3945 19.8072L50.3945 17.4283C50.3945 14.188 49.2051 12.8345 46.1016 12.233Z" style="fill:var(--color-0,hsl(0 0 0/0.85))"></path>
  <path d="M22.1621 26.3697C21.4102 26.3697 21.0957 26.9712 21.4922 27.6138L24.459 32.4673C24.8281 33.0962 25.5664 33.0689 25.9355 32.4673L28.916 27.6138C29.3125 26.9712 28.9707 26.3697 28.2461 26.3697Z" style="fill:var(--color-1,hsl(0 0 0/0.85))"></path>
 </g>
</svg>