<?xml version="1.0" encoding="UTF-8"?>
<!--Generator: Apple Native CoreSVG 326-->
<!DOCTYPE svg
PUBLIC "-//W3C//DTD SVG 1.1//EN"
       "http://www.w3.org/Graphics/SVG/1.1/DTD/svg11.dtd">
<svg version="1.1" xmlns="http://www.w3.org/2000/svg" xmlns:xlink="http://www.w3.org/1999/xlink" viewBox="0 0 27.3711 22.7363">
 <g>
  <rect height="22.7363" opacity="0" width="27.3711" x="0" y="0"/>
  <path d="M1.81836 2.73438L6.16602 2.73438C6.68555 2.73438 7.08203 2.87109 7.39648 3.18555L12.25 8.03906L14.1641 7.06836L8.99609 1.90039C8.20312 1.10742 7.16406 0.765625 5.93359 0.765625L1.81836 0.765625C1.18945 0.765625 0.792969 1.16211 0.792969 1.75C0.792969 2.33789 1.18945 2.73438 1.81836 2.73438ZM11.2383 22.7363C13.5488 22.7363 15.3535 20.9316 15.3535 18.6348C15.3535 16.3379 13.5488 14.5332 11.2383 14.5332C8.94141 14.5332 7.13672 16.3379 7.13672 18.6348C7.13672 20.9316 8.94141 22.7363 11.2383 22.7363ZM27.0156 19.7559L27.0156 6.01562L20.2754 6.45312L26.0586 2.55664C27.3027 1.72266 26.0859-0.123047 24.7461 0.779297L15.9824 6.63086L6.67188 8.38086C2.22852 9.21484 0 11.2656 0 14.875L0 16.6934C0 18.7441 0.916016 19.7559 2.98047 19.9883L5.71484 20.3164C5.60547 19.8789 5.53711 19.1133 5.53711 18.6348C5.53711 15.4629 8.05273 12.9473 11.2383 12.9473C14.4238 12.9473 16.9395 15.4629 16.9395 18.6348C16.9395 19.0312 16.9121 19.4824 16.8438 19.7559Z" fill="white" fill-opacity="0.85"/>
 </g>
</svg>
