<svg version="1.1" xmlns="http://www.w3.org/2000/svg" xmlns:xlink="http://www.w3.org/1999/xlink" viewBox="0 0 27.8633 27.5215">
 <g>
  
  <path d="M0 18.293C0 18.9492 0.4375 19.4004 1.09375 19.4004L2.50195 19.4004L2.50195 23.9395C2.50195 24.5957 2.93945 25.0195 3.5957 25.0195L8.12109 25.0195L8.12109 26.4277C8.12109 27.084 8.57227 27.5215 9.22852 27.5215C9.88477 27.5215 10.3223 27.084 10.3223 26.4277L10.3223 25.0195L12.6602 25.0195L12.6602 26.4277C12.6602 27.084 13.0977 27.5215 13.7539 27.5215C14.4102 27.5215 14.8613 27.084 14.8613 26.4277L14.8613 25.0195L17.1855 25.0195L17.1855 26.4277C17.1855 27.084 17.623 27.5215 18.2793 27.5215C18.9492 27.5215 19.3867 27.084 19.3867 26.4277L19.3867 25.0195L23.9121 25.0195C24.5684 25.0195 25.0059 24.5957 25.0059 23.9395L25.0059 19.3867L26.4141 19.3867C27.0703 19.3867 27.5078 18.9355 27.5078 18.2793C27.5078 17.623 27.0703 17.1855 26.4141 17.1855L25.0059 17.1855L25.0059 14.8477L26.4141 14.8477C27.0703 14.8477 27.5078 14.4102 27.5078 13.7539C27.5078 13.0977 27.0703 12.6465 26.4141 12.6465L25.0059 12.6465L25.0059 10.3223L26.4141 10.3223C27.0703 10.3223 27.5078 9.87109 27.5078 9.21484C27.5078 8.55859 27.0703 8.12109 26.4141 8.12109L25.0059 8.12109L25.0059 3.60938C25.0059 2.95312 24.5684 2.51562 23.9121 2.51562L19.3867 2.51562L19.3867 1.12109C19.3867 0.464844 18.9492 0.0136719 18.2793 0.0136719C17.623 0.0136719 17.1855 0.464844 17.1855 1.12109L17.1855 2.51562L14.8613 2.51562L14.8613 1.12109C14.8613 0.464844 14.4102 0.0136719 13.7539 0.0136719C13.0977 0.0136719 12.6602 0.464844 12.6602 1.12109L12.6602 2.51562L10.3223 2.51562L10.3223 1.12109C10.3223 0.464844 9.88477 0.0136719 9.22852 0.0136719C8.57227 0.0136719 8.12109 0.464844 8.12109 1.12109L8.12109 2.51562L3.5957 2.51562C2.93945 2.51562 2.50195 2.95312 2.50195 3.60938L2.50195 8.13477L1.09375 8.13477C0.4375 8.13477 0 8.57227 0 9.22852C0 9.88477 0.4375 10.3359 1.09375 10.3359L2.50195 10.3359L2.50195 12.6602L1.09375 12.6602C0.4375 12.6602 0 13.1113 0 13.7676C0 14.4238 0.4375 14.8613 1.09375 14.8613L2.50195 14.8613L2.50195 17.1992L1.09375 17.1992C0.4375 17.1992 0 17.6367 0 18.293ZM4.70312 22.4219L4.70312 5.12695C4.70312 4.82617 4.8125 4.7168 5.09961 4.7168L22.4082 4.7168C22.6953 4.7168 22.8047 4.82617 22.8047 5.12695L22.8047 22.4219C22.8047 22.7227 22.6953 22.8184 22.4082 22.8184L5.09961 22.8184C4.8125 22.8184 4.70312 22.7227 4.70312 22.4219ZM8.68164 19.8926L18.8535 19.8926C19.5508 19.8926 19.8789 19.5645 19.8789 18.8398L19.8789 8.69531C19.8789 7.98438 19.5508 7.65625 18.8535 7.65625L8.68164 7.65625C7.98438 7.65625 7.64258 7.98438 7.64258 8.69531L7.64258 18.8398C7.64258 19.5645 7.98438 19.8926 8.68164 19.8926ZM9.43359 17.7734L9.43359 9.77539C9.43359 9.57031 9.57031 9.44727 9.76172 9.44727L17.7598 9.44727C17.9648 9.44727 18.0879 9.57031 18.0879 9.77539L18.0879 17.7734C18.0879 17.9648 17.9648 18.1016 17.7598 18.1016L9.76172 18.1016C9.57031 18.1016 9.43359 17.9648 9.43359 17.7734Z" style="fill:var(--color-0,hsl(0 0 0/0.85))"></path>
 </g>
</svg>