<?xml version="1.0" encoding="UTF-8"?>
<!--Generator: Apple Native CoreSVG 326-->
<!DOCTYPE svg
PUBLIC "-//W3C//DTD SVG 1.1//EN"
       "http://www.w3.org/Graphics/SVG/1.1/DTD/svg11.dtd">
<svg version="1.1" xmlns="http://www.w3.org/2000/svg" xmlns:xlink="http://www.w3.org/1999/xlink" viewBox="0 0 32.4844 23.3652">
 <g>
  <rect height="23.3652" opacity="0" width="32.4844" x="0" y="0"/>
  <path d="M5.5918 19.127C4.78516 19.127 4.25195 18.5801 4.25195 17.8145L4.25195 15.2852C4.25195 14.5059 4.78516 13.9727 5.5918 13.9727L8.94141 13.9727C9.74805 13.9727 10.2812 14.5059 10.2812 15.2852L10.2812 17.8145C10.2812 18.5801 9.74805 19.127 8.94141 19.127ZM0 8.62695L0 5.52344L32.1289 5.52344L32.1289 8.62695ZM4.29297 23.3652L27.8359 23.3652C30.707 23.3652 32.1289 21.957 32.1289 19.1406L32.1289 4.25195C32.1289 1.43555 30.707 0.0136719 27.8359 0.0136719L4.29297 0.0136719C1.43555 0.0136719 0 1.43555 0 4.25195L0 19.1406C0 21.957 1.43555 23.3652 4.29297 23.3652Z" fill="white" fill-opacity="0.85"/>
 </g>
</svg>
