<svg version="1.1" xmlns="http://www.w3.org/2000/svg" xmlns:xlink="http://www.w3.org/1999/xlink" viewBox="0 0 28.2461 27.9043">
 <g>
  
  <path d="M0 13.9453C0 16.2285 0.560547 18.375 1.55859 20.2891L3.9375 17.9238C4.25195 17.6094 4.73047 17.6094 5.04492 17.9238C5.35938 18.2383 5.37305 18.7168 5.04492 19.0449L2.36523 21.6973C2.70703 22.1758 3.04883 22.668 3.44531 23.0918L23.1191 3.44531C22.668 3.04883 22.2031 2.69336 21.7246 2.36523L19.0176 5.07227C18.7031 5.38672 18.2109 5.37305 17.8965 5.07227C17.582 4.75781 17.582 4.2793 17.8965 3.95117L20.3164 1.53125C18.375 0.560547 16.2148 0 13.9453 0C6.24805 0 0 6.24805 0 13.9453ZM16.9258 7.16406L15.0527 9.03711C14.7383 9.35156 14.2461 9.33789 13.9316 9.03711C13.6309 8.72266 13.6172 8.2168 13.9316 7.91602L15.8184 6.04297C16.1328 5.74219 16.625 5.72852 16.9258 6.04297C17.2402 6.35742 17.2402 6.84961 16.9258 7.16406ZM12.9746 11.1289L11.0879 13.002C10.7871 13.3027 10.2949 13.3027 9.98047 13.002C9.66602 12.6875 9.66602 12.1953 9.98047 11.8809L11.8535 10.0078C12.168 9.69336 12.6602 9.69336 12.9746 10.0078C13.2754 10.3086 13.2891 10.8281 12.9746 11.1289ZM9.00977 15.0801L7.15039 16.9531C6.82227 17.2676 6.34375 17.2539 6.0293 16.9531C5.71484 16.6387 5.71484 16.1602 6.0293 15.8457L7.88867 13.959C8.20312 13.6445 8.69531 13.6582 9.00977 13.959C9.31055 14.2734 9.33789 14.7656 9.00977 15.0801ZM13.9453 27.8906C21.6426 27.8906 27.8906 21.6426 27.8906 13.9453C27.8906 11.6758 27.3301 9.51562 26.332 7.58789L23.9531 9.9668C23.625 10.2949 23.1602 10.2812 22.8457 9.9668C22.5449 9.65234 22.5176 9.17383 22.8457 8.8457L25.5254 6.16602C25.2109 5.70117 24.8555 5.23633 24.459 4.79883L4.79883 24.459C5.23633 24.8418 5.71484 25.1836 6.17969 25.5117L8.87305 22.8184C9.20117 22.4766 9.67969 22.5039 9.99414 22.8184C10.3086 23.1328 10.3223 23.5977 9.99414 23.9258L7.57422 26.332C9.48828 27.3164 11.6621 27.8906 13.9453 27.8906ZM21.8613 12.0449L20.002 13.9316C19.6875 14.2461 19.1953 14.2324 18.8809 13.9316C18.5801 13.6035 18.5664 13.125 18.8809 12.8105L20.7539 10.9375C21.0684 10.623 21.5469 10.623 21.8613 10.9375C22.1895 11.2383 22.1758 11.7305 21.8613 12.0449ZM17.9102 16.0098L16.0371 17.8691C15.7227 18.1973 15.2305 18.1973 14.916 17.8691C14.6152 17.5684 14.6016 17.0625 14.916 16.748L16.8027 14.8887C17.1035 14.5879 17.6094 14.5879 17.9102 14.8887C18.2246 15.2031 18.2246 15.6816 17.9102 16.0098ZM13.959 19.9609L12.0723 21.834C11.7578 22.1348 11.2793 22.1484 10.9648 21.834C10.6504 21.5195 10.6504 21.0273 10.9648 20.7129L12.8379 18.8398C13.1523 18.5254 13.6445 18.5527 13.959 18.8398C14.2598 19.168 14.2734 19.6602 13.959 19.9609Z" style="fill:var(--color-0,hsl(0 0 0/0.85))"></path>
 </g>
</svg>