<svg version="1.1" xmlns="http://www.w3.org/2000/svg" xmlns:xlink="http://www.w3.org/1999/xlink" viewBox="0 0 28.2461 27.9043">
 <g>
  
  <path d="M13.9453 27.8906C21.6426 27.8906 27.8906 21.6426 27.8906 13.9453C27.8906 6.24805 21.6426 0 13.9453 0C6.24805 0 0 6.24805 0 13.9453C0 21.6426 6.24805 27.8906 13.9453 27.8906ZM13.9453 25.5664C7.51953 25.5664 2.32422 20.3711 2.32422 13.9453C2.32422 7.51953 7.51953 2.32422 13.9453 2.32422C20.3711 2.32422 25.5664 7.51953 25.5664 13.9453C25.5664 20.3711 20.3711 25.5664 13.9453 25.5664Z" style="fill:var(--color-0,hsl(0 0 0/0.85))"></path>
  <path d="M18.0195 7.92969L16.625 9.2832C16.4473 9.47461 16.1875 9.47461 15.9961 9.2832C15.8184 9.10547 15.832 8.8457 15.9961 8.6543L17.2129 7.4375C16.2148 6.93164 15.0938 6.63086 13.9316 6.63086C9.93945 6.63086 6.61719 9.9668 6.61719 13.959C6.61719 15.1211 6.9043 16.2285 7.41016 17.2129L8.6543 16.0098C8.83203 15.832 9.0918 15.832 9.2832 16.0098C9.46094 16.1875 9.47461 16.4609 9.2832 16.6523L7.90234 18.0332C8.05273 18.2793 8.2168 18.498 8.42188 18.7031L18.7031 8.44922C18.4844 8.25781 18.252 8.08008 18.0195 7.92969ZM15.5312 10.3906L14.5332 11.375C14.3555 11.5527 14.0957 11.5527 13.918 11.375C13.7266 11.2109 13.7266 10.9375 13.918 10.7461L14.9023 9.76172C15.0801 9.58398 15.3535 9.58398 15.5312 9.76172C15.709 9.93945 15.709 10.2129 15.5312 10.3906ZM13.4531 12.4688L12.4551 13.4805C12.291 13.6445 11.9902 13.6445 11.8262 13.4805C11.6484 13.2891 11.6484 13.0156 11.8262 12.8379L12.8105 11.8535C12.9883 11.6621 13.2754 11.6621 13.4531 11.8535C13.6172 12.0176 13.6172 12.3047 13.4531 12.4688ZM11.3613 14.5469L10.377 15.5449C10.2129 15.7363 9.92578 15.7227 9.74805 15.5449C9.57031 15.3809 9.57031 15.0938 9.74805 14.916L10.7324 13.9316C10.9238 13.7402 11.1836 13.7402 11.3613 13.9316C11.5391 14.1094 11.5254 14.3691 11.3613 14.5469ZM20.4531 10.6914L19.25 11.8809C19.0586 12.0586 18.7988 12.0586 18.6211 11.8809C18.4297 11.6895 18.4297 11.416 18.6211 11.2383L19.9746 9.88477C19.8105 9.65234 19.6465 9.41992 19.4414 9.20117L9.1875 19.4688C9.37891 19.6602 9.61133 19.8242 9.84375 19.9883L11.2656 18.5938C11.4434 18.416 11.7168 18.416 11.8945 18.5938C12.0723 18.7852 12.0723 19.0449 11.8945 19.2227L10.6641 20.4805C11.6621 20.9863 12.7695 21.2871 13.9316 21.2871C17.9238 21.2871 21.2598 17.9512 21.2598 13.959C21.2598 12.7969 20.959 11.6758 20.4531 10.6914ZM18.1426 12.9746L17.1582 13.959C16.9668 14.1504 16.707 14.1504 16.5293 13.959C16.3516 13.7812 16.3652 13.5215 16.5293 13.3438L17.5137 12.332C17.6777 12.1543 17.9648 12.168 18.1426 12.332C18.3203 12.5098 18.3203 12.7969 18.1426 12.9746ZM16.0508 15.0527L15.0664 16.0508C14.8887 16.2285 14.6152 16.2285 14.4238 16.0508C14.2598 15.8867 14.2598 15.5859 14.4238 15.4219L15.4355 14.4238C15.5996 14.2598 15.8867 14.2598 16.0508 14.4238C16.2422 14.6016 16.2422 14.8887 16.0508 15.0527ZM13.9727 17.1445L12.9883 18.1289C12.8105 18.3066 12.5234 18.3066 12.373 18.1289C12.1816 17.9512 12.1816 17.6777 12.373 17.5L13.3574 16.5156C13.5352 16.3379 13.7949 16.3379 13.9727 16.5156C14.1504 16.6797 14.1504 16.9531 13.9727 17.1445Z" style="fill:var(--color-1,hsl(0 0 0/0.85))"></path>
 </g>
</svg>