<svg version="1.1" xmlns="http://www.w3.org/2000/svg" xmlns:xlink="http://www.w3.org/1999/xlink" viewBox="0 0 28.2461 27.9043">
 <g>
  
  <path d="M13.9453 27.9043C21.6426 27.9043 27.8906 21.6562 27.8906 13.959C27.8906 6.27539 21.6426 0.0136719 13.9453 0.0136719C6.26172 0.0136719 0 6.27539 0 13.959C0 21.6562 6.26172 27.9043 13.9453 27.9043Z" style="fill:var(--color-0,#ff3b30)"></path>
  <path d="M6.15234 15.4355L6.15234 12.4551C6.15234 11.5938 6.74023 10.9922 7.60156 10.9922L10.9922 10.9922L10.9922 7.64258C10.9922 6.75391 11.5801 6.16602 12.4414 6.16602L15.4219 6.16602C16.2969 6.16602 16.8711 6.75391 16.8711 7.64258L16.8711 10.9922L20.2617 10.9922C21.1367 10.9922 21.7246 11.5938 21.7246 12.4551L21.7246 15.4355C21.7246 16.2969 21.1367 16.8848 20.2617 16.8848L16.8711 16.8848L16.8711 20.2617C16.8711 21.1504 16.2969 21.7246 15.4219 21.7246L12.4414 21.7246C11.5801 21.7246 10.9922 21.1504 10.9922 20.2617L10.9922 16.8848L7.60156 16.8848C6.75391 16.8848 6.15234 16.2969 6.15234 15.4355Z" style="fill:var(--color-1,white)"></path>
 </g>
</svg>