<svg version="1.1" xmlns="http://www.w3.org/2000/svg" xmlns:xlink="http://www.w3.org/1999/xlink" viewBox="0 0 32.0059 26.5098">
 <g>
  
  <path d="M22.75 3.77344L22.75 4.85352L27.4258 4.85352C30.2559 4.85352 31.6504 6.2207 31.6504 9.02344L31.6504 22.3262C31.6504 25.1289 30.2559 26.4961 27.4258 26.4961L4.22461 26.4961C1.4082 26.4961 0 25.1289 0 22.3262L0 9.02344C0 6.2207 1.4082 4.85352 4.22461 4.85352L8.88672 4.85352L8.88672 3.77344C8.88672 1.20312 10.377 0 12.7148 0L18.9219 0C21.3965 0 22.75 1.20312 22.75 3.77344ZM14.6016 9.22852C13.877 9.22852 13.3984 9.70703 13.3984 10.4453L13.3984 13.2207L10.5957 13.2207C9.87109 13.2207 9.39258 13.7129 9.39258 14.4238L9.39258 16.8984C9.39258 17.6094 9.88477 18.1016 10.5957 18.1016L13.3984 18.1016L13.3984 20.8906C13.3984 21.6152 13.877 22.0938 14.6016 22.0938L17.0625 22.0938C17.7734 22.0938 18.2656 21.6152 18.2656 20.8906L18.2656 18.1016L21.0547 18.1016C21.7793 18.1016 22.2715 17.6094 22.2715 16.8984L22.2715 14.4238C22.2715 13.7129 21.7793 13.2207 21.0547 13.2207L18.2656 13.2207L18.2656 10.4453C18.2656 9.70703 17.7734 9.22852 17.0625 9.22852ZM12.6875 1.99609C11.6211 1.99609 11.0059 2.58398 11.0059 3.62305L11.0059 4.85352L20.6309 4.85352L20.6309 3.62305C20.6309 2.58398 20.0293 1.99609 18.9629 1.99609Z" style="fill:var(--color-0,hsl(0 0 0/0.85))"></path>
 </g>
</svg>