<?xml version="1.0" encoding="UTF-8"?>
<!--Generator: Apple Native CoreSVG 326-->
<!DOCTYPE svg
PUBLIC "-//W3C//DTD SVG 1.1//EN"
       "http://www.w3.org/Graphics/SVG/1.1/DTD/svg11.dtd">
<svg version="1.1" xmlns="http://www.w3.org/2000/svg" xmlns:xlink="http://www.w3.org/1999/xlink" viewBox="0 0 28.2461 27.9043">
 <g>
  <rect height="27.9043" opacity="0" width="28.2461" x="0" y="0"/>
  <path d="M13.9453 27.9043C21.6426 27.9043 27.8906 21.6562 27.8906 13.959C27.8906 6.27539 21.6426 0.0136719 13.9453 0.0136719C6.26172 0.0136719 0 6.27539 0 13.959C0 21.6562 6.26172 27.9043 13.9453 27.9043Z" fill="white" fill-opacity="0.85"/>
  <path d="M8.13477 20.248C6.6582 20.248 5.91992 19.5371 5.91992 18.0469L5.91992 11.0332C5.91992 9.55664 6.6582 8.83203 8.13477 8.83203L9.63867 8.83203L9.63867 8.10742C9.63867 6.98633 10.377 6.31641 11.5391 6.31641L16.3516 6.31641C17.5137 6.31641 18.252 6.98633 18.252 8.10742L18.252 8.83203L19.7559 8.83203C21.2324 8.83203 21.9844 9.55664 21.9844 11.0332L21.9844 18.0469C21.9844 19.5371 21.2324 20.248 19.7559 20.248ZM11.0059 8.83203L16.8984 8.83203L16.8984 8.17578C16.8984 7.80664 16.666 7.58789 16.2832 7.58789L11.6348 7.58789C11.2383 7.58789 11.0059 7.80664 11.0059 8.17578ZM10.6094 15.1621C10.6094 15.5449 10.8555 15.791 11.2383 15.791L12.6875 15.791L12.6875 17.2402C12.6875 17.6094 12.9473 17.8555 13.3164 17.8555L14.5742 17.8555C14.957 17.8555 15.2031 17.6094 15.2031 17.2402L15.2031 15.791L16.6523 15.791C17.0352 15.791 17.2812 15.5449 17.2812 15.1621L17.2812 13.877C17.2812 13.5078 17.0352 13.2617 16.6523 13.2617L15.2031 13.2617L15.2031 11.8125C15.2031 11.4434 14.957 11.1973 14.5742 11.1973L13.3164 11.1973C12.9473 11.1973 12.6875 11.4434 12.6875 11.8125L12.6875 13.2617L11.2383 13.2617C10.8555 13.2617 10.6094 13.5078 10.6094 13.877Z" fill="white"/>
 </g>
</svg>
