<?xml version="1.0" encoding="UTF-8"?>
<!--Generator: Apple Native CoreSVG 326-->
<!DOCTYPE svg
PUBLIC "-//W3C//DTD SVG 1.1//EN"
       "http://www.w3.org/Graphics/SVG/1.1/DTD/svg11.dtd">
<svg version="1.1" xmlns="http://www.w3.org/2000/svg" xmlns:xlink="http://www.w3.org/1999/xlink" viewBox="0 0 19.0996 32.7715">
 <g>
  <rect height="32.7715" opacity="0" width="19.0996" x="0" y="0"/>
  <path d="M2.41992 3.85547C2.41992 5.37305 3.30859 6.27539 4.78516 6.27539L13.9453 6.27539C15.4355 6.27539 16.3242 5.37305 16.3242 3.85547L16.3242 2.41992C16.3242 0.902344 15.4355 0 13.9453 0L4.78516 0C3.30859 0 2.41992 0.902344 2.41992 2.41992ZM4.34766 3.82812L4.34766 2.44727C4.34766 2.11914 4.53906 1.91406 4.88086 1.91406L13.8496 1.91406C14.1914 1.91406 14.3965 2.11914 14.3965 2.44727L14.3965 3.82812C14.3965 4.14258 14.1914 4.36133 13.8496 4.36133L4.88086 4.36133C4.53906 4.36133 4.34766 4.14258 4.34766 3.82812ZM6.34375 8.76367L6.34375 5.52344L4.41602 5.52344L4.41602 8.76367ZM14.3281 8.76367L14.3281 5.52344L12.4004 5.52344L12.4004 8.76367ZM0 28.2461C0 30.9668 1.75 32.7305 4.41602 32.7305L14.3281 32.7305C16.9941 32.7305 18.7441 30.9668 18.7441 28.2461L18.7441 12.7422C18.7441 10.0215 16.9941 8.25781 14.3281 8.25781L4.41602 8.25781C1.75 8.25781 0 10.0215 0 12.7422ZM2.0918 28.2188L2.0918 12.7695C2.0918 11.3066 3.04883 10.3633 4.52539 10.3633L14.2188 10.3633C15.6953 10.3633 16.6523 11.3066 16.6523 12.7695L16.6523 28.2188C16.6523 29.6953 15.6953 30.6387 14.2188 30.6387L4.52539 30.6387C3.04883 30.6387 2.0918 29.6953 2.0918 28.2188Z" fill="white" fill-opacity="0.25"/>
  <path d="M4.26562 21.4648C4.26562 22.0391 4.64844 22.4082 5.20898 22.4082L7.45117 22.4082L7.45117 24.6367C7.45117 25.2109 7.82031 25.5938 8.39453 25.5938L10.3359 25.5938C10.9102 25.5938 11.2793 25.2109 11.2793 24.6367L11.2793 22.4082L13.5215 22.4082C14.0684 22.4082 14.4785 22.0391 14.4785 21.4648L14.4785 19.5234C14.4785 18.9492 14.0684 18.5801 13.5215 18.5801L11.2793 18.5801L11.2793 16.3516C11.2793 15.7773 10.9102 15.4082 10.3359 15.4082L8.39453 15.4082C7.82031 15.4082 7.45117 15.7773 7.45117 16.3516L7.45117 18.5801L5.20898 18.5801C4.64844 18.5801 4.26562 18.9492 4.26562 19.5234Z" fill="#32d74b"/>
 </g>
</svg>
