<svg version="1.1" xmlns="http://www.w3.org/2000/svg" xmlns:xlink="http://www.w3.org/1999/xlink" viewBox="0 0 32.0059 26.5098">
 <g>
  
  <path d="M4.22461 26.4961L27.4258 26.4961C30.2559 26.4961 31.6504 25.1289 31.6504 22.3262L31.6504 9.02344C31.6504 6.2207 30.2559 4.85352 27.4258 4.85352L4.22461 4.85352C1.4082 4.85352 0 6.2207 0 9.02344L0 22.3262C0 25.1289 1.4082 26.4961 4.22461 26.4961ZM4.25195 24.3086C2.91211 24.3086 2.20117 23.625 2.20117 22.2168L2.20117 9.13281C2.20117 7.73828 2.91211 7.04102 4.25195 7.04102L27.3984 7.04102C28.7383 7.04102 29.4492 7.73828 29.4492 9.13281L29.4492 22.2168C29.4492 23.625 28.7383 24.3086 27.3984 24.3086ZM8.88672 6.04297L11.0059 6.04297L11.0059 3.62305C11.0059 2.58398 11.6211 1.99609 12.6875 1.99609L18.9629 1.99609C20.0293 1.99609 20.6309 2.58398 20.6309 3.62305L20.6309 6.01562L22.75 6.01562L22.75 3.77344C22.75 1.20312 21.3965 0 18.9219 0L12.7148 0C10.377 0 8.88672 1.20312 8.88672 3.77344Z" style="fill:var(--color-0,hsl(0 0 0/0.85))"></path>
  <path d="M9.46094 16.8848C9.46094 17.582 9.93945 18.0605 10.6367 18.0605L13.4258 18.0605L13.4258 20.8359C13.4258 21.5605 13.8906 22.0254 14.6016 22.0254L17.0488 22.0254C17.7598 22.0254 18.2246 21.5605 18.2246 20.8359L18.2246 18.0605L21.0137 18.0605C21.7246 18.0605 22.2031 17.582 22.2031 16.8848L22.2031 14.4375C22.2031 13.7266 21.7246 13.248 21.0137 13.248L18.2246 13.248L18.2246 10.4863C18.2246 9.76172 17.7598 9.29688 17.0488 9.29688L14.6016 9.29688C13.8906 9.29688 13.4258 9.76172 13.4258 10.4863L13.4258 13.248L10.6367 13.248C9.92578 13.248 9.46094 13.7266 9.46094 14.4375Z" style="fill:var(--color-1,hsl(0 0 0/0.85))"></path>
 </g>
</svg>