<?xml version="1.0" encoding="UTF-8"?>
<!--Generator: Apple Native CoreSVG 326-->
<!DOCTYPE svg
PUBLIC "-//W3C//DTD SVG 1.1//EN"
       "http://www.w3.org/Graphics/SVG/1.1/DTD/svg11.dtd">
<svg version="1.1" xmlns="http://www.w3.org/2000/svg" xmlns:xlink="http://www.w3.org/1999/xlink" viewBox="0 0 35.4238 28.4785">
 <g>
  <rect height="28.4785" opacity="0" width="35.4238" x="0" y="0"/>
  <path d="M3.54102 12.7559C5.48242 12.7559 7.06836 11.1699 7.06836 9.20117C7.06836 7.27344 5.48242 5.67383 3.54102 5.67383C1.58594 5.67383 0 7.25977 0 9.20117C0 11.1699 1.59961 12.7559 3.54102 12.7559ZM3.54102 10.623C2.77539 10.623 2.13281 9.98047 2.13281 9.20117C2.13281 8.42188 2.77539 7.80664 3.54102 7.80664C4.29297 7.80664 4.93555 8.44922 4.93555 9.20117C4.93555 9.98047 4.32031 10.623 3.54102 10.623ZM17.541 7.06836C19.4824 7.06836 21.0684 5.48242 21.0684 3.52734C21.0684 1.59961 19.4824 0 17.541 0C15.5723 0 14 1.58594 14 3.52734C14 5.48242 15.5859 7.06836 17.541 7.06836ZM17.541 4.93555C16.7754 4.93555 16.1328 4.29297 16.1328 3.52734C16.1328 2.74805 16.7754 2.13281 17.541 2.13281C18.293 2.13281 18.9355 2.77539 18.9355 3.52734C18.9355 4.29297 18.3203 4.93555 17.541 4.93555ZM31.5273 12.7559C33.4688 12.7559 35.0684 11.1699 35.0684 9.20117C35.0684 7.25977 33.4824 5.67383 31.5273 5.67383C29.5859 5.67383 28 7.27344 28 9.20117C28 11.1699 29.5859 12.7559 31.5273 12.7559ZM31.5273 10.623C30.748 10.623 30.1328 9.98047 30.1328 9.20117C30.1328 8.44922 30.7754 7.80664 31.5273 7.80664C32.293 7.80664 32.9355 8.42188 32.9355 9.20117C32.9355 9.98047 32.293 10.623 31.5273 10.623ZM5.16797 11.8535L9.50195 14.5195C10.377 15.0527 11.8262 15.0801 12.7285 13.8633L17.8965 6.93164L15.9414 6.09766L11.2246 12.4277C10.9785 12.7832 10.7188 12.8516 10.2539 12.5645L6.26172 10.1035ZM29.9004 11.8398L28.8066 10.0898L24.8418 12.5234C24.3496 12.8379 24.0762 12.7422 23.8027 12.373L19.127 6.07031L17.1855 6.91797L22.3672 13.877C23.2422 15.0527 24.6777 15.0527 25.4707 14.5605ZM6.89062 21.875L28.1914 21.875L28.1914 19.8105L6.89062 19.8105ZM3.47266 12.1543L6.26172 23.5156C6.78125 25.6621 7.91602 26.7422 10.1719 26.7422L24.8965 26.7422C27.166 26.7422 28.2871 25.6621 28.8203 23.5156L31.6094 12.1543L29.6816 11.2793L26.7695 23.2559C26.5371 24.2266 25.9492 24.6777 24.9238 24.6777L10.1582 24.6777C9.13281 24.6777 8.54492 24.2266 8.3125 23.2559L5.38672 11.2793Z" fill="white" fill-opacity="0.85"/>
 </g>
</svg>
