<svg version="1.1" xmlns="http://www.w3.org/2000/svg" xmlns:xlink="http://www.w3.org/1999/xlink" viewBox="0 0 33.5408 27.9043">
 <g>
  
  <path d="M16.5995 27.8906C24.2968 27.8906 30.5448 21.6426 30.5448 13.9453C30.5448 6.24805 24.2968 0 16.5995 0C8.90224 0 2.65419 6.24805 2.65419 13.9453L4.97841 13.9453C4.97841 7.51953 10.1737 2.32422 16.5995 2.32422C23.0253 2.32422 28.2206 7.51953 28.2206 13.9453C28.2206 20.3711 23.0253 25.5664 16.5995 25.5664C12.7167 25.5664 9.2577 23.6523 7.19325 20.7539C6.76942 20.1934 6.12684 20.0156 5.55263 20.3574C5.00575 20.6992 4.84169 21.4648 5.30653 22.0664C7.83583 25.6074 11.9784 27.8906 16.5995 27.8906ZM0.972548 11.3066C-0.0118272 11.3066-0.257921 11.9766 0.275282 12.7422L3.33778 17.0898C3.78895 17.7188 4.4452 17.7051 4.8827 17.0898L7.93153 12.7285C8.46474 11.9766 8.20497 11.3066 7.24794 11.3066Z" style="fill:var(--color-0,hsl(0 0 0/0.85))"></path>
  <path d="M16.6542 20.1113C18.7323 20.1113 20.619 19.0996 21.2206 17.2949C21.3163 17.0898 21.33 16.9121 21.33 16.707C21.33 16.2695 21.0429 16.0098 20.6054 16.0098C20.1815 16.0098 19.9628 16.2422 19.8261 16.6387C19.3749 18.0469 18.0624 18.7305 16.6679 18.7305C14.1249 18.7305 12.9765 16.4609 12.9765 13.9863C12.9765 11.4844 14.1659 9.29688 16.6679 9.29688C18.1034 9.29688 19.3339 10.1172 19.744 11.3887C19.8944 11.7988 20.0995 12.0176 20.496 12.0176C20.9061 12.0176 21.2343 11.7305 21.2343 11.3066C21.2343 11.1562 21.2069 10.9238 21.1249 10.7051C20.4686 8.94141 18.6776 7.875 16.6542 7.875C13.2772 7.875 11.2948 10.4453 11.2948 13.9863C11.2948 17.377 13.1132 20.1113 16.6542 20.1113ZM15.9022 19.3867L16.8319 19.3867L16.8319 16.6797C16.8319 15.3945 17.7479 14.5059 19.0331 14.5059C19.2518 14.5059 19.4569 14.5605 19.5663 14.5605C19.8397 14.5605 20.0311 14.4375 20.0311 14.1094C20.0311 13.9316 19.9354 13.7676 19.7577 13.6582C19.5936 13.5352 19.2655 13.4941 19.0194 13.4941C17.9667 13.4941 17.119 14.1504 16.8456 15.0254L16.8183 15.0254L16.8183 13.9863C16.8183 13.7129 16.6268 13.5078 16.3671 13.5078C16.08 13.5078 15.9022 13.7129 15.9022 13.9863Z" style="fill:var(--color-1,hsl(0 0 0/0.85))"></path>
 </g>
</svg>