<?xml version="1.0" encoding="UTF-8"?>
<!--Generator: Apple Native CoreSVG 326-->
<!DOCTYPE svg
PUBLIC "-//W3C//DTD SVG 1.1//EN"
       "http://www.w3.org/Graphics/SVG/1.1/DTD/svg11.dtd">
<svg version="1.1" xmlns="http://www.w3.org/2000/svg" xmlns:xlink="http://www.w3.org/1999/xlink" viewBox="0 0 28.2461 27.9043">
 <g>
  <rect height="27.9043" opacity="0" width="28.2461" x="0" y="0"/>
  <path d="M13.9453 27.8906C21.6426 27.8906 27.8906 21.6289 27.8906 13.9453C27.8906 6.24805 21.6426 0 13.9453 0C6.26172 0 0 6.24805 0 13.9453C0 21.6289 6.26172 27.8906 13.9453 27.8906Z" fill="white" fill-opacity="0.85"/>
  <path d="M14.0137 20.3027C10.3633 20.3027 8.47656 17.4863 8.47656 13.9863C8.47656 10.3359 10.5273 7.68359 14.0137 7.68359C16.0918 7.68359 17.9512 8.77734 18.6211 10.5957C18.7031 10.8281 18.7441 11.0605 18.7441 11.2246C18.7441 11.6621 18.4023 11.9492 17.9785 11.9492C17.5684 11.9492 17.3496 11.7305 17.1992 11.3066C16.7754 9.99414 15.5039 9.14648 14.0273 9.14648C11.4434 9.14648 10.2266 11.4023 10.2266 13.9863C10.2266 16.2695 11.1562 18.375 13.2344 18.7852L13.2344 13.9863C13.2344 13.6992 13.4121 13.4941 13.7129 13.4941C13.9863 13.4941 14.1777 13.6992 14.1777 13.9863L14.1777 15.0527L14.2051 15.0527C14.4922 14.1504 15.3672 13.4805 16.4473 13.4805C16.707 13.4805 17.0352 13.5215 17.2129 13.6445C17.3906 13.7539 17.5 13.9316 17.5 14.1094C17.5 14.4512 17.2949 14.5742 17.0078 14.5742C16.8984 14.5742 16.6934 14.5195 16.4609 14.5195C15.1348 14.5195 14.1914 15.4355 14.1914 16.7617L14.1914 18.8672C15.5723 18.8262 16.8301 18.1152 17.2812 16.7207C17.418 16.3105 17.6504 16.0781 18.0879 16.0781C18.5391 16.0781 18.8398 16.3379 18.8398 16.7891C18.8398 17.0078 18.8262 17.1855 18.7305 17.4043C18.1016 19.2637 16.1602 20.3027 14.0137 20.3027Z" fill="white"/>
 </g>
</svg>
