<svg version="1.1" xmlns="http://www.w3.org/2000/svg" xmlns:xlink="http://www.w3.org/1999/xlink" viewBox="0 0 28.2461 27.9043">
 <g>
  
  <path d="M13.9453 27.8906C21.6426 27.8906 27.8906 21.6426 27.8906 13.9453C27.8906 6.24805 21.6426 0 13.9453 0C6.24805 0 0 6.24805 0 13.9453C0 21.6426 6.24805 27.8906 13.9453 27.8906ZM13.9453 25.5664C7.51953 25.5664 2.32422 20.3711 2.32422 13.9453C2.32422 7.51953 7.51953 2.32422 13.9453 2.32422C20.3711 2.32422 25.5664 7.51953 25.5664 13.9453C25.5664 20.3711 20.3711 25.5664 13.9453 25.5664Z" style="fill:var(--color-0,hsl(0 0 0/0.85))"></path>
  <path d="M13.9863 20.1113C16.0645 20.1113 17.9512 19.0996 18.5527 17.2949C18.6484 17.0898 18.6621 16.9121 18.6621 16.707C18.6621 16.2695 18.375 16.0098 17.9375 16.0098C17.5137 16.0098 17.2949 16.2422 17.1582 16.6387C16.707 18.0469 15.3945 18.7305 14 18.7305C11.457 18.7305 10.3086 16.4609 10.3086 13.9863C10.3086 11.4844 11.498 9.29688 14 9.29688C15.4355 9.29688 16.666 10.1172 17.0762 11.3887C17.2266 11.7988 17.4316 12.0176 17.8281 12.0176C18.2383 12.0176 18.5664 11.7305 18.5664 11.3066C18.5664 11.1562 18.5391 10.9238 18.457 10.7051C17.8008 8.94141 16.0098 7.875 13.9863 7.875C10.6094 7.875 8.62695 10.4453 8.62695 13.9863C8.62695 17.377 10.4453 20.1113 13.9863 20.1113ZM13.2344 19.3867L14.1641 19.3867L14.1641 16.6797C14.1641 15.3945 15.0801 14.5059 16.3652 14.5059C16.584 14.5059 16.7891 14.5605 16.8984 14.5605C17.1719 14.5605 17.3633 14.4375 17.3633 14.1094C17.3633 13.9316 17.2676 13.7676 17.0898 13.6582C16.9258 13.5352 16.5977 13.4941 16.3516 13.4941C15.2988 13.4941 14.4512 14.1504 14.1777 15.0254L14.1504 15.0254L14.1504 13.9863C14.1504 13.7129 13.959 13.5078 13.6992 13.5078C13.4121 13.5078 13.2344 13.7129 13.2344 13.9863Z" style="fill:var(--color-1,hsl(0 0 0/0.85))"></path>
 </g>
</svg>