<svg version="1.1" xmlns="http://www.w3.org/2000/svg" xmlns:xlink="http://www.w3.org/1999/xlink" viewBox="0 0 30.8848 29.1895">
 <g>
  
  <path d="M1.81836 25.9219L28.7109 25.9219L28.7109 25.0059C28.7109 24.459 28.3965 24.1309 27.8359 24.1309L26.9609 24.1309L26.9609 9.37891L28.1641 9.37891C28.916 9.37891 29.3535 8.83203 29.3535 8.27148C29.3535 7.86133 29.1211 7.50586 28.6152 7.21875L16.9395 0.478516C16.3926 0.164062 15.8184 0 15.2578 0C14.6973 0 14.1094 0.164062 13.5898 0.478516L1.91406 7.21875C1.39453 7.50586 1.17578 7.86133 1.17578 8.27148C1.17578 8.83203 1.61328 9.37891 2.36523 9.37891L3.56836 9.37891L3.56836 24.1309L2.70703 24.1309C2.14648 24.1309 1.81836 24.459 1.81836 25.0059ZM5.63281 24.1309L5.63281 7.62891L14.7246 2.5293C14.8887 2.43359 15.0801 2.37891 15.2578 2.37891C15.4355 2.37891 15.627 2.43359 15.8047 2.5293L24.8965 7.62891L24.8965 24.1309ZM1.09375 29.1758L29.4219 29.1758C30.0234 29.1758 30.5293 28.6699 30.5293 28.0684C30.5293 27.4668 30.0234 26.9746 29.4219 26.9746L1.09375 26.9746C0.492188 26.9746 0 27.4668 0 28.0684C0 28.6699 0.492188 29.1758 1.09375 29.1758Z" style="fill:var(--color-0,hsl(0 0 0/0.85))"></path>
  <path d="M15.3262 20.5488C17.4043 20.5488 19.291 19.5371 19.8926 17.7461C19.9883 17.541 20.002 17.3496 20.002 17.1445C20.002 16.707 19.7148 16.4609 19.2773 16.4609C18.8535 16.4609 18.6348 16.6934 18.498 17.0762C18.0469 18.498 16.7344 19.168 15.3398 19.168C12.7969 19.168 11.6484 16.9121 11.6484 14.4238C11.6484 11.9219 12.8379 9.73438 15.3398 9.73438C16.7754 9.73438 18.0059 10.5547 18.416 11.8262C18.5664 12.2363 18.7715 12.4551 19.168 12.4551C19.5781 12.4551 19.9062 12.168 19.9062 11.7578C19.9062 11.6074 19.8789 11.3613 19.7969 11.1562C19.1406 9.39258 17.3496 8.32617 15.3262 8.32617C11.9492 8.32617 9.9668 10.8965 9.9668 14.4238C9.9668 17.8281 11.7852 20.5488 15.3262 20.5488ZM14.5742 19.8379L15.5039 19.8379L15.5039 17.1309C15.5039 15.832 16.4199 14.957 17.7051 14.957C17.9238 14.957 18.1152 15.0117 18.2383 15.0117C18.5117 15.0117 18.7031 14.875 18.7031 14.5605C18.7031 14.3691 18.6074 14.2051 18.4297 14.0957C18.2656 13.9863 17.9375 13.9316 17.6914 13.9316C16.6387 13.9316 15.791 14.5879 15.5176 15.4629L15.4902 15.4629L15.4902 14.4375C15.4902 14.1504 15.2988 13.9453 15.0391 13.9453C14.752 13.9453 14.5742 14.1504 14.5742 14.4375Z" style="fill:var(--color-1,hsl(0 0 0/0.85))"></path>
 </g>
</svg>