<?xml version="1.0" encoding="UTF-8"?>
<!--Generator: Apple Native CoreSVG 326-->
<!DOCTYPE svg
PUBLIC "-//W3C//DTD SVG 1.1//EN"
       "http://www.w3.org/Graphics/SVG/1.1/DTD/svg11.dtd">
<svg version="1.1" xmlns="http://www.w3.org/2000/svg" xmlns:xlink="http://www.w3.org/1999/xlink" viewBox="0 0 25.5254 25.1699">
 <g>
  <rect height="25.1699" opacity="0" width="25.5254" x="0" y="0"/>
  <path d="M4.29297 25.1699L20.877 25.1699C23.748 25.1699 25.1699 23.7617 25.1699 20.9453L25.1699 4.23828C25.1699 1.42188 23.748 0 20.877 0L4.29297 0C1.43555 0 0 1.42188 0 4.23828L0 20.9453C0 23.7617 1.43555 25.1699 4.29297 25.1699ZM4.32031 22.9688C2.95312 22.9688 2.20117 22.2441 2.20117 20.8223L2.20117 4.36133C2.20117 2.93945 2.95312 2.20117 4.32031 2.20117L20.8496 2.20117C22.2031 2.20117 22.9688 2.93945 22.9688 4.36133L22.9688 20.8223C22.9688 22.2441 22.2031 22.9688 20.8496 22.9688Z" fill="white" fill-opacity="0.85"/>
  <path d="M12.6465 18.7441C14.7246 18.7441 16.6113 17.7324 17.2266 15.9277C17.3086 15.7227 17.3223 15.5449 17.3223 15.3398C17.3223 14.9023 17.0352 14.6426 16.5977 14.6426C16.1738 14.6426 15.9551 14.875 15.8184 15.2715C15.3672 16.6797 14.0547 17.3633 12.6602 17.3633C10.1172 17.3633 8.96875 15.0938 8.96875 12.6191C8.96875 10.1172 10.1582 7.92969 12.6602 7.92969C14.0957 7.92969 15.3398 8.75 15.75 10.0215C15.8867 10.4316 16.0918 10.6504 16.4883 10.6504C16.9121 10.6504 17.2402 10.3633 17.2402 9.93945C17.2402 9.78906 17.1992 9.55664 17.1172 9.33789C16.4609 7.57422 14.6699 6.50781 12.6465 6.50781C9.26953 6.50781 7.30078 9.07812 7.30078 12.6191C7.30078 16.0098 9.10547 18.7441 12.6465 18.7441ZM11.8945 18.0195L12.8242 18.0195L12.8242 15.3125C12.8242 14.0273 13.7402 13.1387 15.0254 13.1387C15.2441 13.1387 15.4492 13.1934 15.5586 13.1934C15.8457 13.1934 16.0234 13.0703 16.0234 12.7422C16.0234 12.5645 15.9277 12.4004 15.75 12.291C15.5859 12.168 15.2578 12.127 15.0117 12.127C13.959 12.127 13.1113 12.7832 12.8379 13.6582L12.8105 13.6582L12.8105 12.6191C12.8105 12.3457 12.6328 12.1406 12.3594 12.1406C12.0859 12.1406 11.8945 12.3457 11.8945 12.6191Z" fill="white" fill-opacity="0.85"/>
 </g>
</svg>
