<svg version="1.1" xmlns="http://www.w3.org/2000/svg" xmlns:xlink="http://www.w3.org/1999/xlink" viewBox="0 0 27.7949 30.7822">
 <g>
  
  <path d="M12.6191 5.29443L14.8203 5.29443L14.8203 1.12451L12.6191 1.12451ZM12.6191 10.312L14.8203 10.312L14.8203 6.68896L12.6191 6.68896ZM1.73633 23.9839L5.16797 22.0151L4.00586 20.0874L0.820312 21.9058ZM6.35742 21.3315L9.51562 19.5405L8.38086 17.5991L5.23633 19.3901ZM22.2715 22.0151L25.7031 23.9839L26.6191 21.9058L23.4336 20.0874ZM17.9238 19.5405L21.0957 21.3315L22.2031 19.3901L19.0586 17.5991ZM10.7324 18.8569L13.7266 17.1479L16.7207 18.8569L17.8555 16.9292L14.8203 15.1929L14.8203 11.6929L12.6191 11.6929L12.6191 15.1929L9.58398 16.9292ZM1.55859 24.2026L12.168 30.3413C13.1523 30.9155 14.2871 30.9155 15.2852 30.3413L25.8809 24.2026C26.8652 23.6421 27.4395 22.644 27.4395 21.5093L27.4395 9.25928C27.4395 8.12451 26.8652 7.12646 25.8809 6.55225L15.2852 0.440918C14.2871-0.146973 13.1523-0.146973 12.168 0.440918L1.55859 6.55225C0.574219 7.12646 0 8.12451 0 9.25928L0 21.5093C0 22.644 0.574219 23.6421 1.55859 24.2026ZM12.6191 28.0444C12.5234 28.0034 12.5098 27.9897 12.4004 27.9214L3.00781 22.4937C2.50195 22.1929 2.20117 21.687 2.20117 21.1128L2.20117 10.5991L12.6191 16.519ZM13.7266 14.564L2.88477 8.39795C2.95312 8.32959 2.98047 8.28857 3.10352 8.22021L12.9199 2.54639C13.4258 2.24561 14.0137 2.24561 14.5195 2.54639L24.3496 8.22021C24.459 8.28857 24.4863 8.32959 24.5547 8.39795ZM14.8203 28.0444L14.8203 16.519L25.2383 10.5991L25.2383 21.1128C25.2383 21.687 24.9512 22.1929 24.4453 22.4937L15.1211 27.8804C14.9707 27.9624 14.957 27.9761 14.8203 28.0444Z" style="fill:var(--color-0,hsl(0 0 0/0.85))"></path>
 </g>
</svg>