<svg version="1.1" xmlns="http://www.w3.org/2000/svg" xmlns:xlink="http://www.w3.org/1999/xlink" viewBox="0 0 27.7949 30.502">
 <g>
  
  <path d="M12.8242 14.1367L12.8242 10.7324L14.6152 10.7324L14.6152 14.0547L26.7422 7.13672C26.5098 6.86328 26.2227 6.61719 25.8809 6.41211L15.2852 0.300781C15.0664 0.177734 14.8477 0.0683594 14.6152 0L14.6152 3.92383L12.8242 3.92383L12.8242 0C12.6055 0.0683594 12.373 0.177734 12.168 0.300781L1.55859 6.41211C1.20312 6.61719 0.916016 6.89062 0.669922 7.19141ZM12.8242 8.92773L12.8242 5.71484L14.6152 5.71484L14.6152 8.92773ZM14.5879 30.502C14.8203 30.4473 15.0527 30.3242 15.2852 30.2012L25.8809 24.0625C26.127 23.9258 26.332 23.7617 26.4961 23.5703L23.6797 21.9707L24.623 20.3848L27.3984 21.9434C27.4258 21.752 27.4395 21.5605 27.4395 21.3691L27.4395 9.10547C27.4395 9.06445 27.4395 9.00977 27.4395 8.96875L15.9824 15.4902L18.6895 17.0078L17.7734 18.5938L14.5879 16.7891ZM22.1348 21.0684L19.332 19.4824L20.248 17.8965L23.0371 19.4824ZM12.7148 30.4609L12.7148 16.8574L9.67969 18.5938L8.75 17.0078L11.3887 15.5176L0 9.05078C0 9.10547 0 9.17383 0 9.22852L0 21.3691C0 21.5605 0.0136719 21.752 0.0410156 21.9434L2.81641 20.3848L3.75977 21.9707L0.943359 23.5703C1.12109 23.7617 1.3125 23.9258 1.55859 24.0625L12.168 30.2012C12.3594 30.3105 12.5234 30.4062 12.7148 30.4609ZM8.10742 19.4824L5.30469 21.0684L4.40234 19.4824L7.19141 17.8965Z" style="fill:var(--color-0,hsl(0 0 0/0.85))"></path>
 </g>
</svg>