<?xml version="1.0" encoding="UTF-8"?>
<!--Generator: Apple Native CoreSVG 326-->
<!DOCTYPE svg
PUBLIC "-//W3C//DTD SVG 1.1//EN"
       "http://www.w3.org/Graphics/SVG/1.1/DTD/svg11.dtd">
<svg version="1.1" xmlns="http://www.w3.org/2000/svg" xmlns:xlink="http://www.w3.org/1999/xlink" viewBox="0 0 27.7949 30.7822">
 <g>
  <rect height="30.7822" opacity="0" width="27.7949" x="0" y="0"/>
  <path d="M13.7266 14.5229L26.6191 7.15381C26.4141 6.93506 26.168 6.71631 25.8809 6.55225L15.2852 0.440918C14.2871-0.146973 13.1523-0.146973 12.168 0.440918L1.55859 6.55225C1.27148 6.71631 1.03906 6.93506 0.820312 7.16748ZM12.5781 16.5464L0 9.396C0 9.45068 0 9.51904 0 9.57373L0 21.5093C0 22.644 0.574219 23.6421 1.55859 24.2026L12.168 30.3413C12.3047 30.4097 12.4277 30.5054 12.5781 30.5464ZM14.8613 16.5464L14.8613 30.5464C14.998 30.5054 15.1348 30.4233 15.2852 30.3413L25.8809 24.2026C26.8652 23.6421 27.4395 22.644 27.4395 21.5093L27.4395 9.56006C27.4395 9.50537 27.4395 9.43701 27.4395 9.38232Z" fill="white" fill-opacity="0.85"/>
 </g>
</svg>
