<svg version="1.1" xmlns="http://www.w3.org/2000/svg" xmlns:xlink="http://www.w3.org/1999/xlink" viewBox="0 0 34.8223 29.9824">
 <g>
  
  <path d="M3.91016 1.24414L5.05859 1.24414L5.05859 3.44531L3.91016 3.44531C3.55469 4.06055 2.87109 4.4707 2.11914 4.4707C0.957031 4.4707 0 3.51367 0 2.33789C0 1.17578 0.957031 0.21875 2.11914 0.21875C2.87109 0.21875 3.55469 0.642578 3.91016 1.24414ZM34.4668 2.33789C34.4668 3.51367 33.5098 4.4707 32.3477 4.4707C31.5957 4.4707 30.9121 4.06055 30.5566 3.44531L29.4082 3.44531L29.4082 1.24414L30.5566 1.24414C30.9121 0.642578 31.5957 0.21875 32.3477 0.21875C33.5098 0.21875 34.4668 1.17578 34.4668 2.33789ZM25.0879 3.44531L9.37891 3.44531L9.37891 1.24414L25.0879 1.24414Z" style="fill:var(--color-0,hsl(0 0 0/0.85))"></path>
  <path d="M6.0293 28.9434L8.4082 28.9434C8.96875 28.9434 9.37891 28.5332 9.37891 27.959L9.37891 0.998047C9.37891 0.423828 8.96875 0 8.4082 0L6.0293 0C5.46875 0 5.05859 0.423828 5.05859 0.998047L5.05859 27.959C5.05859 28.5332 5.46875 28.9434 6.0293 28.9434ZM26.0586 28.9434L28.4375 28.9434C28.998 28.9434 29.4082 28.5332 29.4082 27.959L29.4082 0.998047C29.4082 0.423828 28.998 0 28.4375 0L26.0586 0C25.498 0 25.0879 0.423828 25.0879 0.998047L25.0879 27.959C25.0879 28.5332 25.498 28.9434 26.0586 28.9434Z" style="fill:var(--color-1,hsl(0 0 0/0.85))"></path>
 </g>
</svg>