<?xml version="1.0" encoding="UTF-8"?>
<!--Generator: Apple Native CoreSVG 326-->
<!DOCTYPE svg
PUBLIC "-//W3C//DTD SVG 1.1//EN"
       "http://www.w3.org/Graphics/SVG/1.1/DTD/svg11.dtd">
<svg version="1.1" xmlns="http://www.w3.org/2000/svg" xmlns:xlink="http://www.w3.org/1999/xlink" viewBox="0 0 23.8711 28.834">
 <g>
  <rect height="28.834" opacity="0" width="23.8711" x="0" y="0"/>
  <path d="M11.7578 28.8066C18.8125 28.8066 23.5156 26.1406 23.5156 22.3672L23.5156 5.82422L21.3145 5.82422L21.3145 22.3672C21.3145 24.8965 17.4863 26.7422 11.7578 26.7422C6.0293 26.7422 2.20117 24.8965 2.20117 22.3672L2.20117 5.82422L0 5.82422L0 22.3672C0 26.1406 4.70312 28.8066 11.7578 28.8066ZM11.7578 11.6348C18.8125 11.6348 23.5156 9.26953 23.5156 5.82422C23.5156 2.37891 18.8125 0 11.7578 0C4.70312 0 0 2.37891 0 5.82422C0 9.26953 4.70312 11.6348 11.7578 11.6348ZM11.7578 9.57031C6.0293 9.57031 2.20117 8.02539 2.20117 5.82422C2.20117 3.52734 6.0293 1.92773 11.7578 1.92773C17.4863 1.92773 21.3145 3.52734 21.3145 5.82422C21.3145 8.02539 17.4863 9.57031 11.7578 9.57031Z" fill="white" fill-opacity="0.85"/>
 </g>
</svg>
