<?xml version="1.0" encoding="UTF-8"?>
<!--Generator: Apple Native CoreSVG 326-->
<!DOCTYPE svg
PUBLIC "-//W3C//DTD SVG 1.1//EN"
       "http://www.w3.org/Graphics/SVG/1.1/DTD/svg11.dtd">
<svg version="1.1" xmlns="http://www.w3.org/2000/svg" xmlns:xlink="http://www.w3.org/1999/xlink" viewBox="0 0 28.2461 27.9043">
 <g>
  <rect height="27.9043" opacity="0" width="28.2461" x="0" y="0"/>
  <path d="M13.9453 27.8906C21.6426 27.8906 27.8906 21.6289 27.8906 13.9453C27.8906 6.24805 21.6426 0 13.9453 0C6.26172 0 0 6.24805 0 13.9453C0 21.6289 6.26172 27.8906 13.9453 27.8906Z" fill="white" fill-opacity="0.85"/>
  <path d="M10.2539 20.2344C9.5293 20.2344 9.14648 19.7285 9.14648 18.9629L9.14648 8.66797C9.14648 7.90234 9.5293 7.39648 10.2539 7.39648L13.8496 7.39648C17.8965 7.39648 20.125 9.66602 20.125 13.7812C20.125 17.9512 17.8555 20.2344 13.8496 20.2344ZM11.334 18.4844L13.6035 18.4844C16.3652 18.4844 17.8555 16.9258 17.8555 13.8223C17.8555 10.7871 16.3516 9.14648 13.6035 9.14648L11.334 9.14648Z" fill="white"/>
 </g>
</svg>
