<svg version="1.1" xmlns="http://www.w3.org/2000/svg" xmlns:xlink="http://www.w3.org/1999/xlink" viewBox="0 0 28.2461 27.9043">
 <g>
  
  <path d="M13.9453 27.8906C21.6426 27.8906 27.8906 21.6426 27.8906 13.9453C27.8906 6.24805 21.6426 0 13.9453 0C6.24805 0 0 6.24805 0 13.9453C0 21.6426 6.24805 27.8906 13.9453 27.8906ZM13.9453 25.5664C7.51953 25.5664 2.32422 20.3711 2.32422 13.9453C2.32422 7.51953 7.51953 2.32422 13.9453 2.32422C20.3711 2.32422 25.5664 7.51953 25.5664 13.9453C25.5664 20.3711 20.3711 25.5664 13.9453 25.5664Z" style="fill:var(--color-0,hsl(0 0 0/0.85))"></path>
  <path d="M10.3496 20.043L13.8359 20.043C17.7188 20.043 19.9062 17.8281 19.9062 13.7812C19.9062 9.78906 17.7461 7.58789 13.8359 7.58789L10.3496 7.58789C9.65234 7.58789 9.2832 8.08008 9.2832 8.81836L9.2832 18.8125C9.2832 19.5508 9.65234 20.043 10.3496 20.043ZM11.3887 18.3477L11.3887 9.2832L13.5898 9.2832C16.2559 9.2832 17.7188 10.8691 17.7188 13.8223C17.7188 16.8301 16.2695 18.3477 13.5898 18.3477Z" style="fill:var(--color-1,hsl(0 0 0/0.85))"></path>
 </g>
</svg>