<svg version="1.1" xmlns="http://www.w3.org/2000/svg" xmlns:xlink="http://www.w3.org/1999/xlink" viewBox="0 0 25.5254 25.1699">
 <g>
  
  <path d="M4.29297 25.1699L20.877 25.1699C23.748 25.1699 25.1699 23.7617 25.1699 20.9453L25.1699 4.23828C25.1699 1.42188 23.748 0 20.877 0L4.29297 0C1.43555 0 0 1.42188 0 4.23828L0 20.9453C0 23.7617 1.43555 25.1699 4.29297 25.1699ZM4.32031 22.9688C2.95312 22.9688 2.20117 22.2441 2.20117 20.8223L2.20117 4.36133C2.20117 2.93945 2.95312 2.20117 4.32031 2.20117L20.8496 2.20117C22.2031 2.20117 22.9688 2.93945 22.9688 4.36133L22.9688 20.8223C22.9688 22.2441 22.2031 22.9688 20.8496 22.9688Z" style="fill:var(--color-0,hsl(0 0 0/0.85))"></path>
  <path d="M7.4375 18.1836C7.875 18.1836 8.17578 17.8555 8.17578 17.3906L8.17578 15.0801L8.98242 14.3008L11.4844 17.8008C11.6484 18.0332 11.8535 18.1836 12.1543 18.1836C12.5508 18.1836 12.8652 17.8965 12.8652 17.5137C12.8652 17.3223 12.7832 17.1445 12.6602 16.9805L10.0488 13.3711L12.4824 10.8008C12.6602 10.6094 12.7559 10.5 12.7559 10.2539C12.7559 9.91211 12.4688 9.61133 12.0859 9.61133C11.8672 9.61133 11.6348 9.73438 11.498 9.89844L8.2168 13.4805L8.17578 13.4805L8.17578 7.17773C8.17578 6.71289 7.875 6.37109 7.4375 6.37109C6.98633 6.37109 6.67188 6.69922 6.67188 7.16406L6.67188 17.3906C6.67188 17.8555 6.98633 18.1836 7.4375 18.1836ZM15.1348 18.1836C15.4766 18.1836 15.8457 17.9785 15.8457 17.3906L15.8457 13.0977C15.8457 12.127 16.2285 11.0469 17.3906 11.0469C17.6777 11.0469 17.9512 11.0195 18.1562 10.8965C18.334 10.8008 18.4297 10.623 18.4297 10.377C18.4297 9.88477 18.0605 9.61133 17.5547 9.61133C16.6797 9.61133 16.0645 10.3633 15.873 11.252L15.791 11.252L15.791 10.3633C15.791 9.93945 15.4902 9.61133 15.1074 9.61133C14.7109 9.61133 14.4102 9.93945 14.4102 10.3633L14.4102 17.3906C14.4102 17.8691 14.6699 18.1836 15.1348 18.1836ZM18.8398 18.0195C19.4004 18.0195 19.8105 17.6094 19.8105 17.0625C19.8105 16.4883 19.4004 16.0918 18.8398 16.0918C18.2656 16.0918 17.8691 16.4883 17.8691 17.0625C17.8691 17.6094 18.2656 18.0195 18.8398 18.0195Z" style="fill:var(--color-1,hsl(0 0 0/0.85))"></path>
 </g>
</svg>