<?xml version="1.0" encoding="UTF-8"?>
<!--Generator: Apple Native CoreSVG 326-->
<!DOCTYPE svg
PUBLIC "-//W3C//DTD SVG 1.1//EN"
       "http://www.w3.org/Graphics/SVG/1.1/DTD/svg11.dtd">
<svg version="1.1" xmlns="http://www.w3.org/2000/svg" xmlns:xlink="http://www.w3.org/1999/xlink" viewBox="0 0 28.3281 26.9199">
 <g>
  <rect height="26.9199" opacity="0" width="28.3281" x="0" y="0"/>
  <path d="M1.3125 26.9062C2.10547 26.9062 2.63867 26.3047 2.63867 25.5117L2.63867 19.5918L4.66211 17.6641L11.5391 26.4141C11.7852 26.7285 12.1543 26.9062 12.6191 26.9062C13.2891 26.9062 13.8359 26.4141 13.8359 25.7852C13.8359 25.4707 13.7266 25.1562 13.4805 24.8555L6.50781 16.0098L12.9883 9.50195C13.3027 9.1875 13.4531 8.87305 13.4531 8.54492C13.4531 7.90234 12.9062 7.45117 12.3047 7.45117C11.9219 7.45117 11.5938 7.60156 11.3066 7.90234L2.70703 16.707L2.63867 16.707L2.63867 1.38086C2.63867 0.574219 2.0918 0 1.3125 0C0.533203 0 0 0.574219 0 1.38086L0 25.5117C0 26.3594 0.601562 26.9062 1.3125 26.9062ZM18.2656 26.9062C19.0039 26.9062 19.5371 26.3184 19.5371 25.5117L19.5371 15.0391C19.5371 12.7148 20.5215 9.9668 23.748 9.9668C24.3633 9.9668 25.0469 9.95312 25.3887 9.73438C25.6895 9.57031 25.8672 9.2832 25.8672 8.85938C25.8672 8.29883 25.6074 7.94336 25.2109 7.72461C24.8418 7.5332 24.3633 7.45117 23.8984 7.45117C22.0117 7.45117 20.166 8.75 19.6055 11.1289L19.4277 11.1289L19.4277 8.76367C19.4277 7.99805 18.9219 7.4375 18.2246 7.4375C17.5137 7.4375 17.0078 7.99805 17.0078 8.76367L17.0078 25.5117C17.0078 26.3184 17.541 26.9062 18.2656 26.9062ZM26.0996 26.7148C27.1387 26.7148 27.9727 25.8809 27.9727 24.8418C27.9727 23.8027 27.1387 22.9688 26.0996 22.9688C25.0469 22.9688 24.2129 23.8027 24.2129 24.8418C24.2129 25.8809 25.0469 26.7148 26.0996 26.7148Z" fill="white" fill-opacity="0.85"/>
 </g>
</svg>
