<?xml version="1.0" encoding="UTF-8"?>
<!--Generator: Apple Native CoreSVG 326-->
<!DOCTYPE svg
PUBLIC "-//W3C//DTD SVG 1.1//EN"
       "http://www.w3.org/Graphics/SVG/1.1/DTD/svg11.dtd">
<svg version="1.1" xmlns="http://www.w3.org/2000/svg" xmlns:xlink="http://www.w3.org/1999/xlink" viewBox="0 0 33.5408 27.9043">
 <g>
  <rect height="27.9043" opacity="0" width="33.5408" x="0" y="0"/>
  <path d="M16.5995 27.8906C24.2968 27.8906 30.5448 21.6426 30.5448 13.9453C30.5448 6.24805 24.2968 0 16.5995 0C8.90224 0 2.65419 6.24805 2.65419 13.9453L4.97841 13.9453C4.97841 7.51953 10.1737 2.32422 16.5995 2.32422C23.0253 2.32422 28.2206 7.51953 28.2206 13.9453C28.2206 20.3711 23.0253 25.5664 16.5995 25.5664C12.7167 25.5664 9.2577 23.6523 7.19325 20.7539C6.76942 20.1934 6.12684 20.0156 5.55263 20.3574C5.00575 20.6992 4.84169 21.4648 5.30653 22.0664C7.83583 25.6074 11.9784 27.8906 16.5995 27.8906ZM0.972548 11.3066C-0.0118272 11.3066-0.257921 11.9766 0.275282 12.7422L3.33778 17.0898C3.78895 17.7188 4.4452 17.7051 4.8827 17.0898L7.93153 12.7285C8.46474 11.9766 8.20497 11.3066 7.24794 11.3066Z" fill="white" fill-opacity="0.85"/>
  <path d="M11.4315 19.5508C11.8827 19.5508 12.1835 19.2227 12.1835 18.7578L12.1835 16.4473L12.9765 15.668L15.4921 19.168C15.6561 19.4004 15.8612 19.5508 16.162 19.5508C16.5585 19.5508 16.8729 19.2637 16.8729 18.8809C16.8729 18.6895 16.7909 18.5117 16.6679 18.3477L14.0565 14.7383L16.4901 12.168C16.6679 11.9766 16.7636 11.8672 16.7636 11.6211C16.7636 11.2793 16.4628 10.9785 16.0936 10.9785C15.8749 10.9785 15.6425 11.1016 15.5058 11.2656L12.2245 14.8477L12.1835 14.8477L12.1835 8.54492C12.1835 8.08008 11.8827 7.73828 11.4315 7.73828C10.994 7.73828 10.6796 8.06641 10.6796 8.53125L10.6796 18.7578C10.6796 19.2227 10.994 19.5508 11.4315 19.5508ZM19.1425 19.5508C19.4706 19.5508 19.8534 19.3457 19.8534 18.7578L19.8534 14.4648C19.8534 13.4941 20.2362 12.4141 21.3983 12.4141C21.6854 12.4141 21.9589 12.3867 22.164 12.2637C22.3417 12.168 22.4374 11.9902 22.4374 11.7441C22.4374 11.252 22.0546 10.9785 21.5624 10.9785C20.6737 10.9785 20.0722 11.7305 19.8808 12.6191L19.7987 12.6191L19.7987 11.7305C19.7987 11.3066 19.4979 10.9785 19.1151 10.9785C18.7186 10.9785 18.4179 11.3066 18.4179 11.7305L18.4179 18.7578C18.4179 19.2363 18.6776 19.5508 19.1425 19.5508ZM22.8475 19.3867C23.4081 19.3867 23.8046 18.9766 23.8046 18.4297C23.8046 17.8555 23.4081 17.459 22.8475 17.459C22.2733 17.459 21.8768 17.8555 21.8768 18.4297C21.8768 18.9766 22.2733 19.3867 22.8475 19.3867Z" fill="white" fill-opacity="0.85"/>
 </g>
</svg>
