<?xml version="1.0" encoding="UTF-8"?>
<!--Generator: Apple Native CoreSVG 326-->
<!DOCTYPE svg
PUBLIC "-//W3C//DTD SVG 1.1//EN"
       "http://www.w3.org/Graphics/SVG/1.1/DTD/svg11.dtd">
<svg version="1.1" xmlns="http://www.w3.org/2000/svg" xmlns:xlink="http://www.w3.org/1999/xlink" viewBox="0 0 30.9258 30.584">
 <g>
  <rect height="30.584" opacity="0" width="30.9258" x="0" y="0"/>
  <path d="M15.2852 30.5703C23.6797 30.5703 30.5703 23.6797 30.5703 15.2852C30.5703 6.89062 23.6797 0 15.2852 0C6.89062 0 0 6.89062 0 15.2852C0 23.6797 6.89062 30.5703 15.2852 30.5703ZM15.2852 25.4844C9.65234 25.4844 5.08594 20.918 5.08594 15.2852C5.08594 9.63867 9.65234 5.08594 15.2852 5.08594C20.9316 5.08594 25.4844 9.63867 25.4844 15.2852C25.4844 20.918 20.9316 25.4844 15.2852 25.4844Z" fill="white" fill-opacity="0.85"/>
  <path d="M10.1172 20.8906C10.5684 20.8906 10.8691 20.5625 10.8691 20.0977L10.8691 17.7871L11.6621 17.0078L14.1777 20.5078C14.3418 20.7402 14.5469 20.8906 14.8477 20.8906C15.2441 20.8906 15.5586 20.6035 15.5586 20.2207C15.5586 20.0293 15.4766 19.8516 15.3535 19.6875L12.7422 16.0781L15.1758 13.5078C15.3535 13.3164 15.4492 13.207 15.4492 12.9609C15.4492 12.6191 15.1484 12.3184 14.7793 12.3184C14.5605 12.3184 14.3281 12.4414 14.1914 12.6055L10.9102 16.1875L10.8691 16.1875L10.8691 9.88477C10.8691 9.41992 10.5684 9.07812 10.1172 9.07812C9.67969 9.07812 9.36523 9.40625 9.36523 9.87109L9.36523 20.0977C9.36523 20.5625 9.67969 20.8906 10.1172 20.8906ZM17.8281 20.8906C18.1562 20.8906 18.5391 20.6855 18.5391 20.0977L18.5391 15.8047C18.5391 14.834 18.9219 13.7539 20.084 13.7539C20.3711 13.7539 20.6445 13.7266 20.8496 13.6035C21.0273 13.5078 21.123 13.3301 21.123 13.084C21.123 12.5918 20.7539 12.3184 20.248 12.3184C19.373 12.3184 18.7578 13.0703 18.5664 13.959L18.4844 13.959L18.4844 13.0703C18.4844 12.6465 18.1836 12.3184 17.8008 12.3184C17.4043 12.3184 17.1035 12.6465 17.1035 13.0703L17.1035 20.0977C17.1035 20.5762 17.3633 20.8906 17.8281 20.8906ZM21.5332 20.7266C22.0938 20.7266 22.5039 20.3164 22.5039 19.7695C22.5039 19.1953 22.0938 18.7988 21.5332 18.7988C20.959 18.7988 20.5625 19.1953 20.5625 19.7695C20.5625 20.3164 20.959 20.7266 21.5332 20.7266Z" fill="white" fill-opacity="0.85"/>
 </g>
</svg>
