<?xml version="1.0" encoding="UTF-8"?>
<!--Generator: Apple Native CoreSVG 326-->
<!DOCTYPE svg
PUBLIC "-//W3C//DTD SVG 1.1//EN"
       "http://www.w3.org/Graphics/SVG/1.1/DTD/svg11.dtd">
<svg version="1.1" xmlns="http://www.w3.org/2000/svg" xmlns:xlink="http://www.w3.org/1999/xlink" viewBox="0 0 33.291 27.3099">
 <g>
  <rect height="27.3099" opacity="0" width="33.291" x="0" y="0"/>
  <path d="M32.9355 16.3962C32.9355 7.78289 26.3184 0.714533 17.8965 0.00359537C17.459-0.0374203 17.1309 0.277033 17.1309 0.714533L17.1309 5.18524C17.1309 5.55438 17.3906 5.84149 17.7598 5.86883C22.9961 6.51141 27.0703 10.9821 27.0703 16.3962C27.0703 18.8571 26.2227 21.1266 24.7324 23.027C24.541 23.2595 24.5547 23.5602 24.7598 23.779L28.0273 27.0329C28.3281 27.3337 28.793 27.3337 29.0664 27.0055C31.4863 24.1345 32.9355 20.4294 32.9355 16.3962Z" fill="white" fill-opacity="0.85"/>
  <path d="M0 16.3962C0 20.443 1.44922 24.1481 3.86914 27.0192C4.14258 27.3473 4.59375 27.3337 4.9082 27.0329L8.17578 23.779C8.38086 23.5602 8.39453 23.2595 8.20312 23.027C6.69922 21.1266 5.86523 18.8571 5.86523 16.3962C5.86523 10.9821 9.93945 6.51141 15.1758 5.86883C15.5449 5.84149 15.8047 5.55438 15.8047 5.18524L15.8047 0.714533C15.8047 0.277033 15.4766-0.0374203 15.0391 0.00359537C6.61719 0.714533 0 7.78289 0 16.3962Z" fill="white" fill-opacity="0.85"/>
  <path d="M11.293 22.1794C11.7305 22.1794 12.0312 21.8649 12.0312 21.3864L12.0312 19.0759L12.8379 18.2966L15.3398 21.7966C15.5039 22.029 15.7227 22.1794 16.0098 22.1794C16.4062 22.1794 16.7344 21.8923 16.7344 21.5095C16.7344 21.318 16.6387 21.154 16.5156 20.9763L13.9043 17.3669L16.3379 14.8102C16.5156 14.6052 16.6113 14.4958 16.6113 14.2634C16.6113 13.9079 16.3242 13.6071 15.9414 13.6071C15.7363 13.6071 15.4902 13.7438 15.3535 13.8942L12.0723 17.4899L12.0312 17.4899L12.0312 11.1872C12.0312 10.7087 11.7305 10.3805 11.293 10.3805C10.8418 10.3805 10.5273 10.695 10.5273 11.1735L10.5273 21.3864C10.5273 21.8649 10.8418 22.1794 11.293 22.1794ZM18.9902 22.1794C19.332 22.1794 19.7148 21.9743 19.7148 21.3864L19.7148 17.1071C19.7148 16.1227 20.084 15.0563 21.2598 15.0563C21.5332 15.0563 21.8066 15.0153 22.0117 14.8923C22.1895 14.7966 22.2988 14.6325 22.2988 14.3864C22.2988 13.8805 21.916 13.6071 21.4102 13.6071C20.5352 13.6071 19.9336 14.3727 19.7285 15.2477L19.6465 15.2477L19.6465 14.3727C19.6465 13.9352 19.3457 13.6071 18.9629 13.6071C18.5664 13.6071 18.2656 13.9352 18.2656 14.3727L18.2656 21.3864C18.2656 21.8649 18.5254 22.1794 18.9902 22.1794ZM22.6953 22.0153C23.2559 22.0153 23.666 21.6188 23.666 21.0583C23.666 20.4977 23.2559 20.0876 22.6953 20.0876C22.1211 20.0876 21.7246 20.4977 21.7246 21.0583C21.7246 21.6188 22.1211 22.0153 22.6953 22.0153Z" fill="white" fill-opacity="0.85"/>
 </g>
</svg>
