<svg version="1.1" xmlns="http://www.w3.org/2000/svg" xmlns:xlink="http://www.w3.org/1999/xlink" viewBox="0 0 30.8984 24.9238">
 <g>
  
  <path d="M21.3828 24.9238C25.8672 24.9238 29.1074 22.6953 30.3242 19.3457C30.4609 18.9355 30.543 18.5254 30.543 18.1016C30.5566 17.3906 30.0781 16.8984 29.3398 16.8984C28.6289 16.8984 28.2734 17.2949 28.041 18.0059C27.2891 20.7129 24.6914 22.5312 21.3828 22.5312C16.707 22.5312 13.6719 18.6348 13.6719 12.4141C13.6719 6.28906 16.7207 2.44727 21.3828 2.44727C24.5 2.44727 27.0977 4.375 27.8633 7.06836C28.1094 7.86133 28.4512 8.17578 29.1621 8.17578C29.9004 8.17578 30.3789 7.68359 30.3652 6.95898C30.3516 6.54883 30.2969 6.16602 30.1465 5.7832C28.9023 2.32422 25.4707 0.0546875 21.3828 0.0546875C15.0664 0.0546875 10.9238 4.85352 10.9238 12.4141C10.9238 20.0703 15.0391 24.9238 21.3828 24.9238ZM4.16992 9.76172C6.52148 9.76172 8.35352 7.92969 8.35352 5.57812C8.35352 3.22656 6.52148 1.39453 4.16992 1.39453C1.83203 1.39453 0 3.22656 0 5.57812C0 7.92969 1.83203 9.76172 4.16992 9.76172ZM4.16992 7.83398C2.91211 7.83398 1.92773 6.84961 1.92773 5.57812C1.92773 4.32031 2.91211 3.32227 4.16992 3.32227C5.44141 3.32227 6.42578 4.32031 6.42578 5.57812C6.42578 6.84961 5.44141 7.83398 4.16992 7.83398Z" style="fill:var(--color-0,hsl(0 0 0/0.85))"></path>
 </g>
</svg>