<?xml version="1.0" encoding="UTF-8"?>
<!--Generator: Apple Native CoreSVG 326-->
<!DOCTYPE svg
PUBLIC "-//W3C//DTD SVG 1.1//EN"
       "http://www.w3.org/Graphics/SVG/1.1/DTD/svg11.dtd">
<svg version="1.1" xmlns="http://www.w3.org/2000/svg" xmlns:xlink="http://www.w3.org/1999/xlink" viewBox="0 0 26.7832 24.9238">
 <g>
  <rect height="24.9238" opacity="0" width="26.7832" x="0" y="0"/>
  <path d="M13.3301 24.8828C14.123 24.8828 14.6836 24.2949 14.6836 23.502L14.6836 13.2754L24.1855 13.2754C24.9102 13.2754 25.4297 12.7832 25.4297 12.0723C25.4297 11.375 24.9102 10.8828 24.1855 10.8828L14.6836 10.8828L14.6836 2.44727L25.1699 2.44727C25.8945 2.44727 26.4277 1.94141 26.4277 1.23047C26.4277 0.519531 25.8945 0 25.1699 0L13.3301 0C12.4961 0 11.9629 0.560547 11.9629 1.4082L11.9629 23.502C11.9629 24.2812 12.4961 24.8828 13.3301 24.8828ZM4.16992 9.76172C6.52148 9.76172 8.35352 7.92969 8.35352 5.57812C8.35352 3.22656 6.52148 1.39453 4.16992 1.39453C1.83203 1.39453 0 3.22656 0 5.57812C0 7.92969 1.83203 9.76172 4.16992 9.76172ZM4.16992 7.83398C2.91211 7.83398 1.92773 6.84961 1.92773 5.57812C1.92773 4.32031 2.91211 3.32227 4.16992 3.32227C5.44141 3.32227 6.42578 4.32031 6.42578 5.57812C6.42578 6.84961 5.44141 7.83398 4.16992 7.83398Z" fill="white" fill-opacity="0.85"/>
 </g>
</svg>
