<svg version="1.1" xmlns="http://www.w3.org/2000/svg" xmlns:xlink="http://www.w3.org/1999/xlink" viewBox="0 0 30.6797 25.1973">
 <g>
  
  <path d="M25.334 25.1973C28.1914 25.1973 29.627 23.7891 29.627 20.959L29.627 4.26562C29.627 1.43555 28.1914 0.0273438 25.334 0.0273438L13.4531 0.0273438C11.8535 0.0273438 10.4727 0.4375 9.35156 1.62695L1.29883 9.99414C0.410156 10.9102 0 11.7305 0 12.5918C0 13.4395 0.396484 14.2734 1.29883 15.1895L9.36523 23.5156C10.5 24.6914 11.8672 25.1836 13.4668 25.1836Z" style="fill:var(--color-0,#ff3b30)"></path>
  <path d="M12.7285 18.3477C12.0996 18.3477 11.5938 17.8418 11.5938 17.1992C11.5938 16.8984 11.7168 16.625 11.9219 16.4062L15.7227 12.6191L11.9219 8.81836C11.7168 8.59961 11.5938 8.32617 11.5938 8.02539C11.5938 7.39648 12.0996 6.9043 12.7285 6.9043C13.043 6.9043 13.2891 7.02734 13.5078 7.23242L17.3223 11.0332L21.1641 7.21875C21.3965 6.98633 21.6426 6.87695 21.9434 6.87695C22.5723 6.87695 23.0645 7.38281 23.0645 7.99805C23.0645 8.3125 22.9824 8.55859 22.7363 8.80469L18.9355 12.6191L22.7227 16.3926C22.9551 16.6113 23.0508 16.8848 23.0508 17.1992C23.0508 17.8418 22.5586 18.3477 21.916 18.3477C21.6016 18.3477 21.3145 18.2246 21.1094 18.0195L17.3223 14.2051L13.5488 18.0195C13.3301 18.2246 13.043 18.3477 12.7285 18.3477Z" style="fill:var(--color-1,white)"></path>
 </g>
</svg>