<svg version="1.1" xmlns="http://www.w3.org/2000/svg" xmlns:xlink="http://www.w3.org/1999/xlink" viewBox="0 0 29.9688 25.1973">
 <g>
  
  <path d="M4.63477 25.1973L16.502 25.1836C18.1016 25.1836 19.4824 24.6914 20.6035 23.5156L28.6699 15.1895C29.5723 14.2734 29.9688 13.4395 29.9688 12.5918C29.9688 11.7305 29.5723 10.9102 28.6699 9.99414L20.6172 1.62695C19.4961 0.4375 18.1152 0.0273438 16.5156 0.0273438L4.63477 0.0273438C1.79102 0.0273438 0.341797 1.43555 0.341797 4.26562L0.341797 20.959C0.341797 23.7891 1.79102 25.1973 4.63477 25.1973Z" style="fill:var(--color-0,#ff3b30)"></path>
  <path d="M8.08008 18.3477C7.45117 18.3477 6.95898 17.8418 6.95898 17.1992C6.95898 16.8984 7.06836 16.625 7.28711 16.4062L11.0742 12.6191L7.28711 8.81836C7.06836 8.59961 6.95898 8.32617 6.95898 8.02539C6.95898 7.39648 7.45117 6.9043 8.08008 6.9043C8.39453 6.9043 8.64062 7.02734 8.85938 7.23242L12.6738 11.0332L16.5156 7.21875C16.748 6.98633 17.0078 6.87695 17.2949 6.87695C17.9238 6.87695 18.4297 7.38281 18.4297 7.99805C18.4297 8.3125 18.334 8.55859 18.1016 8.80469L14.2871 12.6191L18.0879 16.3926C18.3066 16.6113 18.416 16.8848 18.416 17.1992C18.416 17.8418 17.9102 18.3477 17.2676 18.3477C16.9668 18.3477 16.666 18.2246 16.4609 18.0195L12.6738 14.2051L8.90039 18.0195C8.68164 18.2246 8.39453 18.3477 8.08008 18.3477Z" style="fill:var(--color-1,white)"></path>
 </g>
</svg>