<?xml version="1.0" encoding="UTF-8"?>
<!--Generator: Apple Native CoreSVG 326-->
<!DOCTYPE svg
PUBLIC "-//W3C//DTD SVG 1.1//EN"
       "http://www.w3.org/Graphics/SVG/1.1/DTD/svg11.dtd">
<svg version="1.1" xmlns="http://www.w3.org/2000/svg" xmlns:xlink="http://www.w3.org/1999/xlink" viewBox="0 0 50.9277 31.4043">
 <g>
  <rect height="31.4043" opacity="0" width="50.9277" x="0" y="0"/>
  <path d="M34.1113 5.55078L34.1113 10.7871L31.9102 10.7871L31.9102 5.5918C31.9102 4.97656 31.5273 4.60742 30.9258 4.60742L4.70312 4.60742C4.10156 4.60742 3.71875 4.97656 3.71875 5.5918L3.71875 18.4844C3.71875 18.9219 3.89648 19.0723 4.30664 19.0723L20.877 19.0723L20.877 25.457L20.6035 25.457C18.9766 25.457 17.6367 26.7969 17.6367 28.4238C17.6367 28.9858 17.7913 29.5099 18.0621 29.9551L13.4121 29.9551C12.8105 29.9551 12.3184 29.4629 12.3184 28.8477C12.3184 28.2324 12.8105 27.7402 13.4121 27.7402L13.4941 27.7402L13.4941 25.1016L4.67578 25.1016C2.70703 25.1016 1.51758 23.9121 1.51758 21.9434L1.51758 5.55078C1.51758 3.58203 2.70703 2.40625 4.67578 2.40625L30.9668 2.40625C32.9219 2.40625 34.1113 3.58203 34.1113 5.55078Z" fill="white" fill-opacity="0.85"/>
  <path d="M19.5098 28.4238C19.5098 29.0527 20.002 29.5449 20.6035 29.5449L47.9473 29.5312C48.5625 29.5312 49.0547 29.0391 49.0547 28.4102C49.0547 27.8086 48.5625 27.3164 47.9473 27.3164L45.9922 27.3164L45.9922 15.5586C45.9922 13.6445 44.9668 12.6602 43.0664 12.6602L25.6758 12.6602C23.8711 12.6602 22.75 13.6445 22.75 15.5586L22.75 27.3301L20.6035 27.3301C20.002 27.3301 19.5098 27.8223 19.5098 28.4238ZM24.9512 27.3301L24.9512 16.1738C24.9512 15.2988 25.3887 14.8613 26.2773 14.8613L42.4648 14.8613C43.3398 14.8613 43.791 15.2988 43.791 16.1738L43.791 27.3164Z" fill="white" fill-opacity="0.85"/>
 </g>
</svg>
