<svg version="1.1" xmlns="http://www.w3.org/2000/svg" xmlns:xlink="http://www.w3.org/1999/xlink" viewBox="0 0 28.4648 33.2363">
 <g>
  
  <path d="M1.12109 33.127L26.9609 33.127C27.6035 33.127 28.1094 32.6211 28.1094 31.9922C28.1094 31.3496 27.6035 30.8574 26.9609 30.8574L1.12109 30.8574C0.492188 30.8574 0 31.3496 0 31.9922C0 32.6211 0.492188 33.127 1.12109 33.127Z" style="fill:var(--color-0,hsl(0 0 0/0.85))"></path>
  <path d="M10.0898 17.0488L17.9922 17.0488C20.5488 17.0488 22.0664 15.4902 22.0664 12.9336L22.0664 4.11523C22.0664 1.69531 20.5762 0 17.9922 0L10.0898 0C7.56055 0 6.01562 1.57227 6.01562 4.11523L6.01562 12.9336C6.01562 15.4902 7.56055 17.0488 10.0898 17.0488ZM10.3223 14.8477C8.75 14.8477 8.10742 14.1367 8.10742 12.6738L8.10742 4.40234C8.10742 2.91211 8.75 2.20117 10.3223 2.20117L17.7598 2.20117C19.332 2.20117 19.9883 2.91211 19.9883 4.40234L19.9883 12.6738C19.9883 14.1367 19.332 14.8477 17.7598 14.8477ZM8.98242 23.4336L19.0996 23.4336C20.1797 23.4336 20.9453 22.6953 20.9453 21.6562C20.9453 21.2188 20.6855 20.6582 20.3164 20.2344L17.3223 16.6934L14.6562 16.6934L18.1289 20.877C18.2656 21.0547 18.1562 21.2324 17.9648 21.2324L10.1309 21.2324C9.92578 21.2324 9.81641 21.0547 9.9668 20.877L13.4395 16.6934L10.7598 16.6934L7.7793 20.2344C7.39648 20.6719 7.15039 21.2324 7.15039 21.6562C7.15039 22.6953 7.90234 23.4336 8.98242 23.4336Z" style="fill:var(--color-1,hsl(0 0 0/0.85))"></path>
 </g>
</svg>