<?xml version="1.0" encoding="UTF-8"?>
<!--Generator: Apple Native CoreSVG 326-->
<!DOCTYPE svg
PUBLIC "-//W3C//DTD SVG 1.1//EN"
       "http://www.w3.org/Graphics/SVG/1.1/DTD/svg11.dtd">
<svg version="1.1" xmlns="http://www.w3.org/2000/svg" xmlns:xlink="http://www.w3.org/1999/xlink" viewBox="0 0 32.7441 28.041">
 <g>
  <rect height="28.041" opacity="0" width="32.7441" x="0" y="0"/>
  <path d="M5.71484 28.041C6.50781 28.041 7.13672 27.4121 7.13672 26.6191C7.13672 25.8262 6.50781 25.1973 5.71484 25.1973C4.92188 25.1973 4.29297 25.8262 4.29297 26.6191C4.29297 27.4121 4.92188 28.041 5.71484 28.041ZM1.42188 17.6094C2.21484 17.6094 2.84375 16.9805 2.84375 16.1875C2.84375 15.4082 2.21484 14.7793 1.42188 14.7793C0.628906 14.7793 0 15.4082 0 16.1875C0 16.9805 0.628906 17.6094 1.42188 17.6094ZM5.71484 7.21875C6.50781 7.21875 7.13672 6.58984 7.13672 5.79688C7.13672 5.00391 6.50781 4.375 5.71484 4.375C4.92188 4.375 4.29297 5.00391 4.29297 5.79688C4.29297 6.58984 4.92188 7.21875 5.71484 7.21875ZM16.2012 2.84375C16.9805 2.84375 17.6094 2.21484 17.6094 1.42188C17.6094 0.628906 16.9805 0 16.2012 0C15.4082 0 14.7793 0.628906 14.7793 1.42188C14.7793 2.21484 15.4082 2.84375 16.2012 2.84375ZM26.6738 7.21875C27.4668 7.21875 28.0957 6.58984 28.0957 5.79688C28.0957 5.00391 27.4668 4.375 26.6738 4.375C25.8809 4.375 25.252 5.00391 25.252 5.79688C25.252 6.58984 25.8809 7.21875 26.6738 7.21875ZM30.9668 17.6094C31.7598 17.6094 32.3887 16.9805 32.3887 16.1875C32.3887 15.4082 31.7598 14.7793 30.9668 14.7793C30.1738 14.7793 29.5449 15.4082 29.5449 16.1875C29.5449 16.9805 30.1738 17.6094 30.9668 17.6094ZM26.6738 28.041C27.4668 28.041 28.0957 27.4121 28.0957 26.6191C28.0957 25.8262 27.4668 25.1973 26.6738 25.1973C25.8809 25.1973 25.252 25.8262 25.252 26.6191C25.252 27.4121 25.8809 28.041 26.6738 28.041Z" fill="white" fill-opacity="0.85"/>
  <path d="M16.2012 26.1406C21.6973 26.1406 26.1406 21.6973 26.1406 16.2012C26.1406 10.6914 21.6973 6.24805 16.2012 6.24805C10.6914 6.24805 6.24805 10.6914 6.24805 16.2012C6.24805 18.5391 7.04102 20.6719 8.39453 22.3809L15.5176 15.2441C15.9004 14.8613 16.584 14.8613 16.9395 15.2441C17.3496 15.6816 17.3496 16.2832 16.9395 16.6934L9.81641 23.8301C11.5391 25.2793 13.7676 26.1406 16.2012 26.1406Z" fill="white" fill-opacity="0.85"/>
 </g>
</svg>
