<svg version="1.1" xmlns="http://www.w3.org/2000/svg" xmlns:xlink="http://www.w3.org/1999/xlink" viewBox="0 0 28.2461 27.9043">
 <g>
  
  <path d="M13.9453 27.8906C21.6426 27.8906 27.8906 21.6426 27.8906 13.9453C27.8906 6.24805 21.6426 0 13.9453 0C6.24805 0 0 6.24805 0 13.9453C0 21.6426 6.24805 27.8906 13.9453 27.8906ZM13.9453 25.5664C7.51953 25.5664 2.32422 20.3711 2.32422 13.9453C2.32422 7.51953 7.51953 2.32422 13.9453 2.32422C20.3711 2.32422 25.5664 7.51953 25.5664 13.9453C25.5664 20.3711 20.3711 25.5664 13.9453 25.5664Z" style="fill:var(--color-0,hsl(0 0 0/0.85))"></path>
  <path d="M6.93164 15.0664L12.8105 20.959C13.5488 21.6836 14.3281 21.7109 15.0664 20.9863L20.9863 15.0527C21.7109 14.3418 21.6836 13.5352 20.959 12.8105L15.0801 6.93164C14.3418 6.20703 13.5625 6.17969 12.8242 6.9043L6.9043 12.8242C6.19336 13.5488 6.2207 14.3555 6.93164 15.0664Z" style="fill:var(--color-1,hsl(0 0 0/0.85))"></path>
 </g>
</svg>