<svg version="1.1" xmlns="http://www.w3.org/2000/svg" xmlns:xlink="http://www.w3.org/1999/xlink" viewBox="0 0 29.2852 28.6699">
 <g>
  
  <path d="M22.2988 4.26562L22.2988 6.35742L20.0977 6.35742L20.0977 4.38867C20.0977 2.9668 19.332 2.22852 17.9785 2.22852L4.32031 2.22852C2.95312 2.22852 2.20117 2.9668 2.20117 4.38867L2.20117 17.9785C2.20117 19.4004 2.95312 20.1387 4.32031 20.1387L6.63086 20.1387L6.63086 22.3398L4.29297 22.3398C1.42188 22.3398 0 20.918 0 18.1016L0 4.26562C0 1.44922 1.42188 0.0273438 4.29297 0.0273438L18.0195 0.0273438C20.8633 0.0273438 22.2988 1.44922 22.2988 4.26562Z" style="fill:var(--color-0,hsl(0 0 0/0.85))"></path>
  <path d="M10.9238 28.6699L24.6504 28.6699C27.4941 28.6699 28.9297 27.248 28.9297 24.4316L28.9297 10.5957C28.9297 7.7793 27.4941 6.35742 24.6504 6.35742L10.9238 6.35742C8.05273 6.35742 6.63086 7.76562 6.63086 10.5957L6.63086 24.4316C6.63086 27.248 8.05273 28.6699 10.9238 28.6699ZM10.9512 26.4688C9.59766 26.4688 8.83203 25.7305 8.83203 24.3086L8.83203 10.7188C8.83203 9.29688 9.59766 8.55859 10.9512 8.55859L24.6094 8.55859C25.9629 8.55859 26.7285 9.29688 26.7285 10.7188L26.7285 24.3086C26.7285 25.7305 25.9629 26.4688 24.6094 26.4688Z" style="fill:var(--color-1,hsl(0 0 0/0.85))"></path>
  <path d="M12.4414 14.1094C13.4941 14.123 14.3691 13.248 14.3691 12.168C14.3691 11.0879 13.4941 10.2402 12.4414 10.2402C11.375 10.2402 10.5 11.0879 10.5 12.168C10.5 13.248 11.375 14.0957 12.4414 14.1094ZM23.1465 14.1094C24.1992 14.123 25.0742 13.248 25.0742 12.168C25.0742 11.0879 24.1992 10.2402 23.1465 10.2402C22.0801 10.2402 21.1914 11.0879 21.1914 12.168C21.1914 13.248 22.0801 14.0957 23.1465 14.1094ZM17.7871 19.4688C18.8398 19.4688 19.7148 18.5938 19.7148 17.5137C19.7148 16.4609 18.8398 15.5996 17.7871 15.5996C16.7207 15.5996 15.8594 16.4609 15.8594 17.5137C15.8594 18.5938 16.7207 19.4688 17.7871 19.4688ZM12.4414 24.8281C13.4941 24.8281 14.3691 23.9531 14.3691 22.8867C14.3691 21.8203 13.4941 20.959 12.4414 20.959C11.375 20.959 10.5137 21.8203 10.5137 22.8867C10.5137 23.9531 11.375 24.8281 12.4414 24.8281ZM23.1465 24.8281C24.1992 24.8281 25.0742 23.9531 25.0742 22.8867C25.0742 21.8203 24.1992 20.959 23.1465 20.959C22.0801 20.959 21.2051 21.8203 21.2051 22.8867C21.2051 23.9531 22.0801 24.8281 23.1465 24.8281Z" style="fill:var(--color-2,hsl(0 0 0/0.85))"></path>
 </g>
</svg>