<?xml version="1.0" encoding="UTF-8"?>
<!--Generator: Apple Native CoreSVG 326-->
<!DOCTYPE svg
PUBLIC "-//W3C//DTD SVG 1.1//EN"
       "http://www.w3.org/Graphics/SVG/1.1/DTD/svg11.dtd">
<svg version="1.1" xmlns="http://www.w3.org/2000/svg" xmlns:xlink="http://www.w3.org/1999/xlink" viewBox="0 0 25.5254 25.1699">
 <g>
  <rect height="25.1699" opacity="0" width="25.5254" x="0" y="0"/>
  <path d="M4.29297 25.1699L20.877 25.1699C23.748 25.1699 25.1699 23.7617 25.1699 20.9453L25.1699 4.23828C25.1699 1.42188 23.748 0 20.877 0L4.29297 0C1.43555 0 0 1.42188 0 4.23828L0 20.9453C0 23.7617 1.43555 25.1699 4.29297 25.1699ZM4.32031 22.9688C2.95312 22.9688 2.20117 22.2441 2.20117 20.8223L2.20117 4.36133C2.20117 2.93945 2.95312 2.20117 4.32031 2.20117L20.8496 2.20117C22.2031 2.20117 22.9688 2.93945 22.9688 4.36133L22.9688 20.8223C22.9688 22.2441 22.2031 22.9688 20.8496 22.9688Z" fill="white" fill-opacity="0.85"/>
  <path d="M18.7441 8.66797C19.9473 8.68164 20.9453 7.66992 20.9453 6.42578C20.9453 5.20898 19.9473 4.22461 18.7441 4.22461C17.5137 4.22461 16.502 5.20898 16.502 6.42578C16.502 7.66992 17.5137 8.64062 18.7441 8.66797ZM12.5918 14.8203C13.7949 14.8203 14.8066 13.8223 14.8066 12.5781C14.8066 11.3613 13.7949 10.377 12.5918 10.377C11.3613 10.377 10.377 11.3613 10.377 12.5781C10.377 13.8223 11.3613 14.8203 12.5918 14.8203ZM6.45312 20.9727C7.65625 20.9727 8.66797 19.9746 8.66797 18.7441C8.66797 17.5137 7.65625 16.5293 6.45312 16.5293C5.22266 16.5293 4.23828 17.5137 4.23828 18.7441C4.23828 19.9746 5.22266 20.9727 6.45312 20.9727Z" fill="white" fill-opacity="0.85"/>
 </g>
</svg>
