<svg version="1.1" xmlns="http://www.w3.org/2000/svg" xmlns:xlink="http://www.w3.org/1999/xlink" viewBox="0 0 25.5254 25.1699">
 <g>
  
  <path d="M4.29297 25.1699L20.877 25.1699C23.748 25.1699 25.1699 23.7617 25.1699 20.9453L25.1699 4.23828C25.1699 1.42188 23.748 0 20.877 0L4.29297 0C1.43555 0 0 1.42188 0 4.23828L0 20.9453C0 23.7617 1.43555 25.1699 4.29297 25.1699Z" style="fill:var(--color-0,hsl(0 0 0/0.85))"></path>
  <path d="M6.26172 8.54492C4.99023 8.51758 3.96484 7.51953 3.96484 6.23438C3.96484 4.97656 4.99023 3.96484 6.26172 3.96484C7.50586 3.96484 8.54492 4.97656 8.54492 6.23438C8.54492 7.51953 7.50586 8.57227 6.26172 8.54492ZM18.9355 8.54492C17.6641 8.51758 16.625 7.51953 16.625 6.23438C16.625 4.97656 17.6641 3.96484 18.9355 3.96484C20.1797 3.96484 21.2051 4.97656 21.2051 6.23438C21.2051 7.51953 20.1797 8.57227 18.9355 8.54492ZM6.26172 14.8887C4.99023 14.8887 3.97852 13.8633 3.97852 12.5781C3.97852 11.3203 4.99023 10.3086 6.26172 10.3086C7.50586 10.3086 8.54492 11.3203 8.54492 12.5781C8.54492 13.8633 7.50586 14.8887 6.26172 14.8887ZM18.9219 14.8887C17.6641 14.8887 16.6387 13.8633 16.6387 12.5781C16.6387 11.3203 17.6641 10.3086 18.9219 10.3086C20.1797 10.3086 21.2051 11.3203 21.2051 12.5781C21.2051 13.8633 20.1797 14.8887 18.9219 14.8887ZM6.26172 21.2324C4.99023 21.2324 3.97852 20.207 3.97852 18.9355C3.97852 17.6641 4.99023 16.6523 6.26172 16.6523C7.50586 16.6523 8.54492 17.6641 8.54492 18.9355C8.54492 20.207 7.50586 21.2324 6.26172 21.2324ZM18.9355 21.2324C17.6641 21.2324 16.6523 20.207 16.6523 18.9355C16.6523 17.6641 17.6641 16.6523 18.9355 16.6523C20.1797 16.6523 21.2051 17.6641 21.2051 18.9355C21.2051 20.207 20.1797 21.2324 18.9355 21.2324Z" style="fill:var(--color-1,white)"></path>
 </g>
</svg>