<svg version="1.1" xmlns="http://www.w3.org/2000/svg" xmlns:xlink="http://www.w3.org/1999/xlink" viewBox="0 0 25.5254 25.1699">
 <g>
  
  <path d="M4.29297 25.1699L20.877 25.1699C23.748 25.1699 25.1699 23.7617 25.1699 20.9453L25.1699 4.23828C25.1699 1.42188 23.748 0 20.877 0L4.29297 0C1.43555 0 0 1.42188 0 4.23828L0 20.9453C0 23.7617 1.43555 25.1699 4.29297 25.1699Z" style="fill:var(--color-0,hsl(0 0 0/0.85))"></path>
  <path d="M18.9355 8.54492C17.6641 8.51758 16.6113 7.51953 16.6113 6.23438C16.6113 4.97656 17.6641 3.96484 18.9355 3.96484C20.1797 3.96484 21.2051 4.97656 21.2051 6.23438C21.2051 7.51953 20.1797 8.57227 18.9355 8.54492ZM12.5918 14.8887C11.3203 14.8887 10.3086 13.8633 10.3086 12.5781C10.3086 11.3203 11.3203 10.3086 12.5918 10.3086C13.8359 10.3086 14.875 11.3203 14.875 12.5781C14.875 13.8633 13.8359 14.8887 12.5918 14.8887ZM6.26172 21.2324C4.99023 21.2324 3.97852 20.207 3.97852 18.9355C3.97852 17.6641 4.99023 16.6523 6.26172 16.6523C7.50586 16.6523 8.54492 17.6641 8.54492 18.9355C8.54492 20.207 7.50586 21.2324 6.26172 21.2324Z" style="fill:var(--color-1,white)"></path>
 </g>
</svg>