<svg version="1.1" xmlns="http://www.w3.org/2000/svg" xmlns:xlink="http://www.w3.org/1999/xlink" viewBox="0 0 28 30.3379">
 <g>
  
  <path d="M13.8223 12.6055C21.9023 12.6055 27.2891 10.0488 27.2891 6.30273C27.2891 2.55664 21.9023 0 13.8223 0C5.74219 0 0.355469 2.55664 0.355469 6.30273C0.355469 10.0488 5.74219 12.6055 13.8223 12.6055ZM13.8223 19.8789C22.4219 19.8789 27.6445 17.4727 27.6445 11.7578L27.6445 10.1992C26.6328 11.3613 25.1562 12.3047 23.2832 13.002L23.2832 14.8613C23.2832 15.3535 22.873 15.75 22.3809 15.75C21.8887 15.75 21.4922 15.3535 21.4922 14.8613L21.4922 13.5898C20.6992 13.7949 19.8516 13.959 19.0859 14.082L19.0859 15.791C19.0859 16.2832 18.6895 16.6797 18.1973 16.6797C17.7051 16.6797 17.2949 16.2832 17.2949 15.791L17.2949 14.3145C16.4062 14.3965 15.3945 14.4648 14.5469 14.4785L14.5469 16.1328C14.5469 16.625 14.1504 17.0352 13.6582 17.0352C13.166 17.0352 12.7559 16.625 12.7559 16.1328L12.7559 14.4648C11.8535 14.4512 10.9102 14.3828 10.0215 14.2871L10.0215 15.791C10.0215 16.2832 9.61133 16.6797 9.11914 16.6797C8.62695 16.6797 8.23047 16.2832 8.23047 15.791L8.23047 14.0273C7.38281 13.8906 6.58984 13.7129 5.82422 13.4941L5.82422 14.8613C5.82422 15.3535 5.42773 15.75 4.93555 15.75C4.44336 15.75 4.0332 15.3535 4.0332 14.8613L4.0332 12.8789C2.31055 12.1953 0.943359 11.293 0 10.1992L0 11.7578C0 17.4727 5.20898 19.8789 13.8223 19.8789Z" style="fill:var(--color-0,hsl(0 0 0/0.85))"></path>
  <path d="M2.57031 26.0723C2.57031 26.4824 2.76172 26.9062 3.24023 27.0703C6.0293 28.082 9.02344 28.6152 12.2773 28.6152C15.5176 28.6152 18.5254 28.0957 21.3145 27.0703L20.6172 25.1289C18.0469 26.0723 15.2852 26.5508 12.2773 26.5508C9.25586 26.5508 6.50781 26.0723 3.9375 25.1289C3.10352 24.8145 2.57031 25.4434 2.57031 26.0723ZM20.125 29.6406C20.4258 30.4746 21.4922 30.502 21.916 29.8457L24.623 25.5664C24.9922 24.9785 24.7598 24.3359 24.1172 24.1172L19.3594 22.4492C18.6211 22.2031 17.7461 22.8457 18.0605 23.748Z" style="fill:var(--color-1,hsl(0 0 0/0.85))"></path>
 </g>
</svg>