<?xml version="1.0" encoding="UTF-8"?>
<!--Generator: Apple Native CoreSVG 326-->
<!DOCTYPE svg
PUBLIC "-//W3C//DTD SVG 1.1//EN"
       "http://www.w3.org/Graphics/SVG/1.1/DTD/svg11.dtd">
<svg version="1.1" xmlns="http://www.w3.org/2000/svg" xmlns:xlink="http://www.w3.org/1999/xlink" viewBox="0 0 28 30.7062">
 <g>
  <rect height="30.7062" opacity="0" width="28" x="0" y="0"/>
  <path d="M13.8223 13.3091C22.1074 13.3091 27.6445 10.6568 27.6445 6.66461C27.6445 2.67242 22.1074 0.0064062 13.8223 0.0064062C5.52344 0.0064062 0 2.67242 0 6.66461C0 10.6568 5.52344 13.3091 13.8223 13.3091ZM13.8223 11.108C6.84961 11.108 2.20117 9.31695 2.20117 6.66461C2.20117 4.01227 6.84961 2.20758 13.8223 2.20758C20.7949 2.20758 25.4434 4.01227 25.4434 6.66461C25.4434 9.31695 20.7949 11.108 13.8223 11.108ZM13.8223 20.2271C22.4219 20.2271 27.6445 17.8345 27.6445 12.106L27.6445 6.66461L25.4434 6.66461L25.4434 12.106C25.4434 16.4537 21.0547 18.0259 13.8223 18.0259C6.58984 18.0259 2.20117 16.4537 2.20117 12.106L2.20117 6.66461L0 6.66461L0 12.106C0 17.8345 5.20898 20.2271 13.8223 20.2271ZM5.82422 13.733L5.82422 11.1763L4.0332 11.1763L4.0332 13.733C4.0332 14.2252 4.44336 14.6353 4.93555 14.6353C5.42773 14.6353 5.82422 14.2252 5.82422 13.733ZM10.0215 14.6627L10.0215 12.106L8.23047 12.106L8.23047 14.6627C8.23047 15.1548 8.62695 15.565 9.11914 15.565C9.61133 15.565 10.0215 15.1548 10.0215 14.6627ZM14.5469 15.0181L14.5469 12.4615L12.7559 12.4615L12.7559 15.0181C12.7559 15.5103 13.166 15.9068 13.6582 15.9068C14.1504 15.9068 14.5469 15.5103 14.5469 15.0181ZM19.0859 14.6627L19.0859 12.106L17.2949 12.106L17.2949 14.6627C17.2949 15.1548 17.7051 15.565 18.1973 15.565C18.6895 15.565 19.0859 15.1548 19.0859 14.6627ZM23.2832 13.733L23.2832 11.1763L21.4922 11.1763L21.4922 13.733C21.4922 14.2252 21.8887 14.6353 22.3809 14.6353C22.873 14.6353 23.2832 14.2252 23.2832 13.733Z" fill="white" fill-opacity="0.85"/>
  <path d="M24.6914 26.5435C24.6914 25.9146 24.1582 25.2994 23.3379 25.6002C20.8359 26.4478 18.0059 26.9127 15.0664 26.9127C12.127 26.9127 9.29688 26.4478 6.80859 25.6002L6.125 27.5552C8.8457 28.4712 11.9082 28.9771 15.0664 28.9771C18.2246 28.9771 21.2871 28.4576 24.0078 27.5552C24.5137 27.3912 24.6914 26.9537 24.6914 26.5435ZM7.28711 30.0435L9.35156 24.1373C9.66602 23.2486 8.79102 22.5923 8.05273 22.8521L3.30859 24.5064C2.65234 24.7252 2.41992 25.3814 2.78906 25.9693L5.49609 30.2349C5.91992 30.9048 6.98633 30.8775 7.28711 30.0435Z" fill="white" fill-opacity="0.85"/>
 </g>
</svg>
