<svg version="1.1" xmlns="http://www.w3.org/2000/svg" xmlns:xlink="http://www.w3.org/1999/xlink" viewBox="0 0 28 30.6934">
 <g>
  
  <path d="M13.8223 13.3027C22.1074 13.3027 27.6445 10.6504 27.6445 6.6582C27.6445 2.66602 22.1074 0 13.8223 0C5.52344 0 0 2.66602 0 6.6582C0 10.6504 5.52344 13.3027 13.8223 13.3027ZM13.8223 11.1016C6.84961 11.1016 2.20117 9.31055 2.20117 6.6582C2.20117 4.00586 6.84961 2.20117 13.8223 2.20117C20.7949 2.20117 25.4434 4.00586 25.4434 6.6582C25.4434 9.31055 20.7949 11.1016 13.8223 11.1016ZM13.8223 20.2207C22.4219 20.2207 27.6445 17.8281 27.6445 12.0996L27.6445 6.6582L25.4434 6.6582L25.4434 12.0996C25.4434 16.4473 21.0547 18.0195 13.8223 18.0195C6.58984 18.0195 2.20117 16.4473 2.20117 12.0996L2.20117 6.6582L0 6.6582L0 12.0996C0 17.8281 5.20898 20.2207 13.8223 20.2207ZM5.82422 13.7266L5.82422 11.1699L4.0332 11.1699L4.0332 13.7266C4.0332 14.2188 4.44336 14.6289 4.93555 14.6289C5.42773 14.6289 5.82422 14.2188 5.82422 13.7266ZM10.0215 14.6562L10.0215 12.0996L8.23047 12.0996L8.23047 14.6562C8.23047 15.1484 8.62695 15.5586 9.11914 15.5586C9.61133 15.5586 10.0215 15.1484 10.0215 14.6562ZM14.5469 15.0117L14.5469 12.4551L12.7559 12.4551L12.7559 15.0117C12.7559 15.5039 13.166 15.9004 13.6582 15.9004C14.1504 15.9004 14.5469 15.5039 14.5469 15.0117ZM19.0859 14.6562L19.0859 12.0996L17.2949 12.0996L17.2949 14.6562C17.2949 15.1484 17.7051 15.5586 18.1973 15.5586C18.6895 15.5586 19.0859 15.1484 19.0859 14.6562ZM23.2832 13.7266L23.2832 11.1699L21.4922 11.1699L21.4922 13.7266C21.4922 14.2188 21.8887 14.6289 22.3809 14.6289C22.873 14.6289 23.2832 14.2188 23.2832 13.7266Z" style="fill:var(--color-0,hsl(0 0 0/0.85))"></path>
  <path d="M2.63867 26.5371C2.63867 26.9473 2.83008 27.3848 3.33594 27.5488C6.04297 28.4512 9.10547 28.9707 12.2773 28.9707C15.4355 28.9707 18.498 28.4648 21.2188 27.5488L20.5352 25.5938C18.0332 26.4414 15.2031 26.9062 12.2773 26.9062C9.33789 26.9062 6.50781 26.4414 4.00586 25.5938C3.17188 25.293 2.63867 25.9082 2.63867 26.5371ZM20.043 29.9961C20.3438 30.8301 21.4102 30.8574 21.834 30.1875L24.5547 25.9219C24.9102 25.334 24.6777 24.6914 24.0352 24.459L19.2773 22.8047C18.5391 22.5449 17.6641 23.2012 17.9785 24.0898Z" style="fill:var(--color-1,hsl(0 0 0/0.85))"></path>
 </g>
</svg>