<?xml version="1.0" encoding="UTF-8"?>
<!--Generator: Apple Native CoreSVG 326-->
<!DOCTYPE svg
PUBLIC "-//W3C//DTD SVG 1.1//EN"
       "http://www.w3.org/Graphics/SVG/1.1/DTD/svg11.dtd">
<svg version="1.1" xmlns="http://www.w3.org/2000/svg" xmlns:xlink="http://www.w3.org/1999/xlink" viewBox="0 0 35.2188 27.6582">
 <g>
  <rect height="27.6582" opacity="0" width="35.2188" x="0" y="0"/>
  <path d="M8.49023 4.0332L6.52148 4.0332C6.0293 4.0332 5.63281 4.44336 5.63281 4.93555C5.63281 5.42773 6.0293 5.82422 6.52148 5.82422L7.88867 5.82422C7.66992 6.58984 7.49219 7.38281 7.35547 8.23047L5.5918 8.23047C5.09961 8.23047 4.70312 8.62695 4.70312 9.11914C4.70312 9.61133 5.09961 10.0215 5.5918 10.0215L7.0957 10.0215C7 10.9102 6.93164 11.8535 6.91797 12.7559L5.25 12.7559C4.75781 12.7559 4.34766 13.166 4.34766 13.6582C4.34766 14.1504 4.75781 14.5469 5.25 14.5469L6.9043 14.5469C6.91797 15.3945 6.98633 16.4062 7.06836 17.2949L5.5918 17.2949C5.09961 17.2949 4.70312 17.7051 4.70312 18.1973C4.70312 18.6895 5.09961 19.0859 5.5918 19.0859L7.30078 19.0859C7.42383 19.8516 7.58789 20.6992 7.79297 21.4922L6.52148 21.4922C6.0293 21.4922 5.63281 21.8887 5.63281 22.3809C5.63281 22.873 6.0293 23.2832 6.52148 23.2832L8.36719 23.2832C9.07812 25.1562 10.0215 26.6328 11.1836 27.6445L9.625 27.6445C3.91016 27.6445 1.50391 22.4219 1.50391 13.8223C1.50391 5.20898 3.91016 0 9.625 0L11.1836 0C10.0898 0.943359 9.1875 2.31055 8.49023 4.0332ZM20.9499 8.46874L17.4453 11.5801C16.0508 12.7969 16.0371 14.8203 17.4453 16.0508L20.9517 19.1624C20.0786 24.1899 17.9215 27.2891 15.0801 27.2891C11.334 27.2891 8.77734 21.9023 8.77734 13.8223C8.77734 5.74219 11.334 0.341797 15.0801 0.341797C17.9194 0.341797 20.0754 3.44424 20.9499 8.46874Z" fill="white" fill-opacity="0.85"/>
  <path d="M18.6895 14.6562L22.8184 18.3203C23.6113 19.0449 24.7871 18.6348 24.7871 17.4727L24.7871 14.998L32.1836 14.998C32.8398 14.998 33.3457 14.4785 33.3457 13.8359C33.3457 13.166 32.8398 12.6602 32.1836 12.6602L24.7871 12.6602L24.7871 10.1582C24.7871 9.03711 23.6523 8.55859 22.8184 9.29688L18.6895 12.9746C18.1152 13.4668 18.1152 14.1504 18.6895 14.6562Z" fill="white" fill-opacity="0.85"/>
 </g>
</svg>
