<svg version="1.1" xmlns="http://www.w3.org/2000/svg" xmlns:xlink="http://www.w3.org/1999/xlink" viewBox="0 0 30.9941 34.002">
 <g>
  
  <path d="M27.1797 5.7832L27.1797 19.0367C26.511 18.6108 25.7706 18.2887 24.9785 18.0907L24.9785 11.4434L5.66016 11.4434L5.66016 25.6484L12.0169 25.6484C12.0053 25.733 12.0039 25.8204 12.0039 25.9082C12.0039 26.4325 12.0531 26.9449 12.1515 27.4395L5.66016 27.4395L5.66016 27.9453C5.66016 28.6016 6.09766 29.0254 6.72656 29.0254L12.6217 29.0254C12.956 29.8372 13.4195 30.5806 13.9919 31.2266L6.63086 31.2266C4.73047 31.2266 3.45898 29.9277 3.45898 27.9727L3.45898 5.7832C3.45898 3.82812 4.73047 2.51562 6.63086 2.51562L24.0215 2.51562C25.9082 2.51562 27.1797 3.82812 27.1797 5.7832ZM19.2363 13.7676C19.2363 14.1777 18.9629 14.4648 18.5527 14.4648L12.0996 14.4648C11.6895 14.4648 11.4023 14.1777 11.4023 13.7676C11.4023 13.3574 11.6895 13.084 12.0996 13.084L18.5527 13.084C18.9629 13.084 19.2363 13.3574 19.2363 13.7676ZM6.72656 4.7168C6.09766 4.7168 5.66016 5.1543 5.66016 5.81055L5.66016 9.65234L24.9785 9.65234L24.9785 5.81055C24.9785 5.1543 24.5547 4.7168 23.9121 4.7168ZM9.81641 7.17773C9.81641 7.84766 9.2832 8.39453 8.61328 8.39453C7.95703 8.39453 7.41016 7.84766 7.41016 7.17773C7.41016 6.52148 7.95703 5.97461 8.61328 5.97461C9.2832 5.97461 9.81641 6.52148 9.81641 7.17773ZM13.3027 7.17773C13.3027 7.84766 12.7695 8.39453 12.0996 8.39453C11.4434 8.39453 10.9102 7.84766 10.9102 7.17773C10.9102 6.52148 11.4434 5.97461 12.0996 5.97461C12.7695 5.97461 13.3027 6.52148 13.3027 7.17773Z" style="fill:var(--color-0,hsl(0 0 0/0.85))"></path>
  <path d="M29.4082 25.9082C29.4082 29.5176 26.5098 32.4023 22.9004 32.4023C22.4174 32.4023 21.9474 32.3507 21.497 32.2489C22.5714 32.019 23.5437 31.5224 24.3409 30.8283C26.5204 30.2405 28.0273 28.3177 28.0273 25.9082C28.0273 23.4867 26.5196 21.5616 24.3391 20.9741C23.5422 20.28 22.5705 19.7836 21.497 19.5539C21.9474 19.452 22.4174 19.4004 22.9004 19.4004C26.5098 19.4004 29.4082 22.2852 29.4082 25.9082Z" style="fill:var(--color-1,hsl(0 0 0/0.85))"></path>
  <path d="M20.0977 32.4023C23.6934 32.4023 26.5918 29.5176 26.5918 25.9082C26.5918 22.2852 23.6934 19.4004 20.0977 19.4004C16.4883 19.4004 13.5898 22.2852 13.5898 25.9082C13.5898 29.5176 16.4883 32.4023 20.0977 32.4023ZM20.0977 31.0215C17.1582 31.0215 14.9707 28.8203 14.9707 25.9082C14.9707 22.9824 17.1582 20.7812 20.0977 20.7812C23.0098 20.7812 25.2109 22.9824 25.2109 25.9082C25.2109 28.8203 23.0098 31.0215 20.0977 31.0215ZM20.0977 29.9961C22.3398 29.9961 24.1855 28.1641 24.1855 25.9082C24.1855 23.6523 22.3398 21.8203 20.0977 21.8203C17.8281 21.8203 15.9961 23.6523 15.9961 25.9082C15.9961 28.1641 17.8281 29.9961 20.0977 29.9961ZM20.0977 28.752C18.4297 28.752 17.2402 27.5625 17.2402 25.9082C17.2402 24.2402 18.4297 23.0645 20.0977 23.0645C21.7656 23.0645 22.9414 24.2402 22.9414 25.9082C22.9414 27.5762 21.752 28.752 20.0977 28.752Z" style="fill:var(--color-2,hsl(0 0 0/0.85))"></path>
 </g>
</svg>