<?xml version="1.0" encoding="UTF-8"?>
<!--Generator: Apple Native CoreSVG 326-->
<!DOCTYPE svg
PUBLIC "-//W3C//DTD SVG 1.1//EN"
       "http://www.w3.org/Graphics/SVG/1.1/DTD/svg11.dtd">
<svg version="1.1" xmlns="http://www.w3.org/2000/svg" xmlns:xlink="http://www.w3.org/1999/xlink" viewBox="0 0 32.9492 36.0527">
 <g>
  <rect height="36.0527" opacity="0" width="32.9492" x="0" y="0"/>
  <path d="M32.5938 7.875L32.5938 24.2676C32.5938 26.2363 31.4043 27.4258 29.4355 27.4258L20.6172 27.4258L20.6172 30.0645L20.6992 30.0645C21.3008 30.0645 21.793 30.5566 21.793 31.1719C21.793 31.7871 21.3008 32.2793 20.6992 32.2793L11.8945 32.2793C11.293 32.2793 10.7871 31.7871 10.7871 31.1719C10.7871 30.5566 11.293 30.0645 11.8945 30.0645L11.9766 30.0645L11.9766 27.4258L3.14453 27.4258C1.18945 27.4258 0 26.2363 0 24.2676L0 7.875C0 5.90625 1.18945 4.73047 3.14453 4.73047L12.6465 4.73047L12.6465 6.93164L3.18555 6.93164C2.58398 6.93164 2.20117 7.30078 2.20117 7.91602L2.20117 24.2402C2.20117 24.8418 2.58398 25.2246 3.18555 25.2246L29.4082 25.2246C30.0098 25.2246 30.3926 24.8418 30.3926 24.2402L30.3926 7.91602C30.3926 7.30078 30.0098 6.93164 29.4082 6.93164L19.9473 6.93164L19.9473 4.73047L29.4355 4.73047C31.4043 4.73047 32.5938 5.90625 32.5938 7.875Z" fill="white" fill-opacity="0.85"/>
  <path d="M16.2969 0C15.709 0 15.2168 0.492188 15.2168 1.06641L15.2168 13.2344L15.2988 15.2715L14.5195 14.4648L12.4141 12.209C12.2227 11.9902 11.9219 11.8809 11.6621 11.8809C11.0879 11.8809 10.6777 12.291 10.6777 12.8516C10.6777 13.1387 10.7871 13.3574 10.9922 13.5625L15.5039 17.9102C15.7773 18.1836 16.0234 18.2793 16.2969 18.2793C16.5703 18.2793 16.8164 18.1836 17.0898 17.9102L21.5879 13.5625C21.8066 13.3574 21.916 13.1387 21.916 12.8516C21.916 12.291 21.4922 11.8809 20.918 11.8809C20.6582 11.8809 20.3711 11.9902 20.1797 12.209L18.0605 14.4648L17.2949 15.2715L17.3906 13.2344L17.3906 1.06641C17.3906 0.492188 16.8848 0 16.2969 0Z" fill="white" fill-opacity="0.85"/>
 </g>
</svg>
