<?xml version="1.0" encoding="UTF-8"?>
<!--Generator: Apple Native CoreSVG 326-->
<!DOCTYPE svg
PUBLIC "-//W3C//DTD SVG 1.1//EN"
       "http://www.w3.org/Graphics/SVG/1.1/DTD/svg11.dtd">
<svg version="1.1" xmlns="http://www.w3.org/2000/svg" xmlns:xlink="http://www.w3.org/1999/xlink" viewBox="0 0 35.3828 31.7051">
 <g>
  <rect height="31.7051" opacity="0" width="35.3828" x="0" y="0"/>
  <path d="M7.32812 28.9844L12.0859 28.9844C14.082 28.9844 15.1621 27.877 15.1621 25.8398L15.1621 5.85156C15.1621 3.81445 14.082 2.7207 12.0859 2.7207L7.32812 2.7207C5.3457 2.7207 4.25195 3.81445 4.25195 5.85156L4.25195 25.8398C4.25195 27.877 5.3457 28.9844 7.32812 28.9844ZM27.1934 24.1309L31.9512 24.1309C33.9473 24.1309 35.0273 23.0371 35.0273 21L35.0273 10.6914C35.0273 8.6543 33.9473 7.56055 31.9512 7.56055L27.1934 7.56055C25.1973 7.56055 24.1172 8.6543 24.1172 10.6914L24.1172 21C24.1172 23.0371 25.1973 24.1309 27.1934 24.1309Z" fill="white" fill-opacity="0.85"/>
  <path d="M0.998047 31.6914C1.54492 31.6914 2.00977 31.2812 2.00977 30.748L2.00977 0.943359C2.00977 0.410156 1.54492 0 0.998047 0C0.464844 0 0 0.410156 0 0.943359L0 30.748C0 31.2812 0.464844 31.6914 0.998047 31.6914ZM20.8633 31.6914C21.3965 31.6914 21.8613 31.2812 21.8613 30.748L21.8613 0.943359C21.8613 0.410156 21.3965 0 20.8633 0C20.3301 0 19.8516 0.410156 19.8516 0.943359L19.8516 30.748C19.8516 31.2812 20.3301 31.6914 20.8633 31.6914Z" fill="white" fill-opacity="0.85"/>
 </g>
</svg>
