<?xml version="1.0" encoding="UTF-8"?>
<!--Generator: Apple Native CoreSVG 326-->
<!DOCTYPE svg
PUBLIC "-//W3C//DTD SVG 1.1//EN"
       "http://www.w3.org/Graphics/SVG/1.1/DTD/svg11.dtd">
<svg version="1.1" xmlns="http://www.w3.org/2000/svg" xmlns:xlink="http://www.w3.org/1999/xlink" viewBox="0 0 33.6055 28.752">
 <g>
  <rect height="28.752" opacity="0" width="33.6055" x="0" y="0"/>
  <path d="M3.55469 24.3496L0.957031 24.3496C0.410156 24.3496 0 23.8711 0 23.3379C0 22.8047 0.410156 22.3398 0.957031 22.3398L3.55469 22.3398ZM33.25 23.3379C33.25 23.8711 32.8262 24.3496 32.293 24.3496L29.6953 24.3496L29.6953 22.3398L32.293 22.3398C32.8262 22.3398 33.25 22.8047 33.25 23.3379ZM8.39453 6.39844L0.957031 6.39844C0.410156 6.39844 0 5.93359 0 5.40039C0 4.86719 0.410156 4.38867 0.957031 4.38867L8.39453 4.38867ZM32.7305 5.40039C32.7305 5.93359 32.3066 6.39844 31.7734 6.39844L24.8555 6.39844L24.8555 4.38867L31.7734 4.38867C32.3066 4.38867 32.7305 4.86719 32.7305 5.40039Z" fill="white" fill-opacity="0.85"/>
  <path d="M11.5254 10.7871L21.7246 10.7871C23.7617 10.7871 24.8555 9.70703 24.8555 7.71094L24.8555 3.07617C24.8555 1.08008 23.7617 0 21.7246 0L11.5254 0C9.48828 0 8.39453 1.08008 8.39453 3.07617L8.39453 7.71094C8.39453 9.70703 9.48828 10.7871 11.5254 10.7871ZM6.68555 28.7383L26.5645 28.7383C28.6016 28.7383 29.6953 27.6445 29.6953 25.6621L29.6953 21.0273C29.6953 19.0312 28.6016 17.9375 26.5645 17.9375L6.68555 17.9375C4.64844 17.9375 3.55469 19.0312 3.55469 21.0273L3.55469 25.6621C3.55469 27.6445 4.64844 28.7383 6.68555 28.7383Z" fill="white" fill-opacity="0.85"/>
 </g>
</svg>
