<svg version="1.1" xmlns="http://www.w3.org/2000/svg" xmlns:xlink="http://www.w3.org/1999/xlink" viewBox="0 0 33.0859 32.6074">
 <g>
  
  <path d="M11.2109 14.2188L21.5195 14.2188C23.5566 14.2188 24.6504 13.1387 24.6504 11.1426L24.6504 7.32812C24.6504 5.33203 23.5566 4.25195 21.5195 4.25195L11.2109 4.25195C9.17383 4.25195 8.08008 5.33203 8.08008 7.32812L8.08008 11.1426C8.08008 13.1387 9.17383 14.2188 11.2109 14.2188ZM11.2383 12.1543C10.541 12.1543 10.1445 11.7578 10.1445 11.0332L10.1445 7.45117C10.1445 6.71289 10.541 6.31641 11.2383 6.31641L21.4922 6.31641C22.1895 6.31641 22.5859 6.71289 22.5859 7.45117L22.5859 11.0332C22.5859 11.7578 22.1895 12.1543 21.4922 12.1543ZM6.37109 32.5938L26.3594 32.5938C28.3965 32.5938 29.4902 31.5137 29.4902 29.5176L29.4902 25.7031C29.4902 23.707 28.3965 22.627 26.3594 22.627L6.37109 22.627C4.33398 22.627 3.24023 23.707 3.24023 25.7031L3.24023 29.5176C3.24023 31.5137 4.33398 32.5938 6.37109 32.5938ZM6.39844 30.5293C5.70117 30.5293 5.30469 30.1328 5.30469 29.3945L5.30469 25.8125C5.30469 25.0879 5.70117 24.6914 6.39844 24.6914L26.332 24.6914C27.0293 24.6914 27.4258 25.0879 27.4258 25.8125L27.4258 29.3945C27.4258 30.1328 27.0293 30.5293 26.332 30.5293Z" style="fill:var(--color-0,hsl(0 0 0/0.85))"></path>
  <path d="M0.957031 2.00977L31.7734 2.00977C32.3066 2.00977 32.7305 1.53125 32.7305 0.998047C32.7305 0.464844 32.3066 0 31.7734 0L0.957031 0C0.410156 0 0 0.464844 0 0.998047C0 1.53125 0.410156 2.00977 0.957031 2.00977ZM0.957031 20.3711L31.7734 20.3711C32.3066 20.3711 32.7305 19.9062 32.7305 19.373C32.7305 18.8398 32.3066 18.3613 31.7734 18.3613L0.957031 18.3613C0.410156 18.3613 0 18.8398 0 19.373C0 19.9062 0.410156 20.3711 0.957031 20.3711Z" style="fill:var(--color-1,hsl(0 0 0/0.85))"></path>
 </g>
</svg>