<?xml version="1.0" encoding="UTF-8"?>
<!--Generator: Apple Native CoreSVG 326-->
<!DOCTYPE svg
PUBLIC "-//W3C//DTD SVG 1.1//EN"
       "http://www.w3.org/Graphics/SVG/1.1/DTD/svg11.dtd">
<svg version="1.1" xmlns="http://www.w3.org/2000/svg" xmlns:xlink="http://www.w3.org/1999/xlink" viewBox="0 0 33.0859 25.4707">
 <g>
  <rect height="25.4707" opacity="0" width="33.0859" x="0" y="0"/>
  <path d="M6.37109 17.7051L26.3594 17.7051C28.3965 17.7051 29.4902 16.625 29.4902 14.6289L29.4902 10.8145C29.4902 8.83203 28.3965 7.73828 26.3594 7.73828L6.37109 7.73828C4.33398 7.73828 3.24023 8.83203 3.24023 10.8145L3.24023 14.6289C3.24023 16.625 4.33398 17.7051 6.37109 17.7051Z" fill="white" fill-opacity="0.85"/>
  <path d="M0.957031 2.00977L31.7734 2.00977C32.3066 2.00977 32.7305 1.53125 32.7305 0.998047C32.7305 0.464844 32.3066 0 31.7734 0L0.957031 0C0.410156 0 0 0.464844 0 0.998047C0 1.53125 0.410156 2.00977 0.957031 2.00977ZM0.957031 23.4473C0.410156 23.4473 0 23.9121 0 24.459C0 24.9922 0.410156 25.457 0.957031 25.457L31.7734 25.457C32.3066 25.457 32.7305 24.9922 32.7305 24.459C32.7305 23.9121 32.3066 23.4473 31.7734 23.4473Z" fill="white" fill-opacity="0.85"/>
 </g>
</svg>
