<?xml version="1.0" encoding="UTF-8"?>
<!--Generator: Apple Native CoreSVG 326-->
<!DOCTYPE svg
PUBLIC "-//W3C//DTD SVG 1.1//EN"
       "http://www.w3.org/Graphics/SVG/1.1/DTD/svg11.dtd">
<svg version="1.1" xmlns="http://www.w3.org/2000/svg" xmlns:xlink="http://www.w3.org/1999/xlink" viewBox="0 0 35.3828 31.7051">
 <g>
  <rect height="31.7051" opacity="0" width="35.3828" x="0" y="0"/>
  <path d="M14.1641 31.6914C14.6973 31.6914 15.1621 31.2812 15.1621 30.748L15.1621 0.943359C15.1621 0.410156 14.6973 0 14.1641 0C13.6309 0 13.1523 0.410156 13.1523 0.943359L13.1523 30.748C13.1523 31.2812 13.6309 31.6914 14.1641 31.6914ZM34.0156 31.6914C34.5488 31.6914 35.0273 31.2812 35.0273 30.748L35.0273 0.943359C35.0273 0.410156 34.5488 0 34.0156 0C33.4824 0 33.0176 0.410156 33.0176 0.943359L33.0176 30.748C33.0176 31.2812 33.4824 31.6914 34.0156 31.6914Z" fill="white" fill-opacity="0.85"/>
  <path d="M3.07617 28.9844L7.83398 28.9844C9.83008 28.9844 10.9102 27.877 10.9102 25.8398L10.9102 5.85156C10.9102 3.81445 9.83008 2.7207 7.83398 2.7207L3.07617 2.7207C1.08008 2.7207 0 3.81445 0 5.85156L0 25.8398C0 27.877 1.08008 28.9844 3.07617 28.9844ZM22.9414 24.1309L27.6855 24.1309C29.6816 24.1309 30.7754 23.0371 30.7754 21L30.7754 10.6914C30.7754 8.6543 29.6816 7.56055 27.6855 7.56055L22.9414 7.56055C20.9453 7.56055 19.8516 8.6543 19.8516 10.6914L19.8516 21C19.8516 23.0371 20.9453 24.1309 22.9414 24.1309Z" fill="white" fill-opacity="0.85"/>
 </g>
</svg>
