<svg version="1.1" xmlns="http://www.w3.org/2000/svg" xmlns:xlink="http://www.w3.org/1999/xlink" viewBox="0 0 28.0684 31.7051">
 <g>
  
  <path d="M6.4668 30.748C6.4668 31.2812 6.00195 31.6914 5.46875 31.6914C4.93555 31.6914 4.45703 31.2812 4.45703 30.748L4.45703 28.1914L6.4668 28.1914ZM23.2695 30.748C23.2695 31.2812 22.791 31.6914 22.2578 31.6914C21.7246 31.6914 21.2598 31.2812 21.2598 30.748L21.2598 24.1309L23.2695 24.1309ZM23.2695 0.943359L23.2695 7.56055L21.2598 7.56055L21.2598 0.943359C21.2598 0.410156 21.7246 0 22.2578 0C22.791 0 23.2695 0.410156 23.2695 0.943359ZM6.4668 0.943359L6.4668 3.51367L4.45703 3.51367L4.45703 0.943359C4.45703 0.410156 4.93555 0 5.46875 0C6.00195 0 6.4668 0.410156 6.4668 0.943359Z" style="fill:var(--color-0,hsl(0 0 0/0.85))"></path>
  <path d="M3.07617 28.1914L7.83398 28.1914C9.83008 28.1914 10.9102 27.084 10.9102 25.0469L10.9102 6.64453C10.9102 4.60742 9.83008 3.51367 7.83398 3.51367L3.07617 3.51367C1.08008 3.51367 0 4.60742 0 6.64453L0 25.0469C0 27.084 1.08008 28.1914 3.07617 28.1914ZM3.19922 26.127C2.46094 26.127 2.06445 25.7168 2.06445 25.0195L2.06445 6.67188C2.06445 5.97461 2.46094 5.57812 3.19922 5.57812L7.72461 5.57812C8.44922 5.57812 8.8457 5.97461 8.8457 6.67188L8.8457 25.0195C8.8457 25.7168 8.44922 26.127 7.72461 26.127ZM19.8789 24.1309L24.6367 24.1309C26.6328 24.1309 27.7129 23.0371 27.7129 21L27.7129 10.6914C27.7129 8.6543 26.6328 7.56055 24.6367 7.56055L19.8789 7.56055C17.8828 7.56055 16.8027 8.6543 16.8027 10.6914L16.8027 21C16.8027 23.0371 17.8828 24.1309 19.8789 24.1309ZM19.9883 22.0664C19.2637 22.0664 18.8672 21.6699 18.8672 20.9727L18.8672 10.7324C18.8672 10.0215 19.2637 9.625 19.9883 9.625L24.5137 9.625C25.252 9.625 25.6484 10.0215 25.6484 10.7324L25.6484 20.9727C25.6484 21.6699 25.252 22.0664 24.5137 22.0664Z" style="fill:var(--color-1,hsl(0 0 0/0.85))"></path>
 </g>
</svg>