<svg version="1.1" xmlns="http://www.w3.org/2000/svg" xmlns:xlink="http://www.w3.org/1999/xlink" viewBox="0 0 27.125 26.7832">
 <g>
  
  <path d="M1.09375 8.72266C1.81836 8.72266 2.20117 8.3125 2.20117 7.60156L2.20117 4.375C2.20117 2.95312 2.95312 2.22852 4.32031 2.22852L7.62891 2.22852C8.35352 2.22852 8.75 1.83203 8.75 1.12109C8.75 0.410156 8.35352 0.0273438 7.62891 0.0273438L4.29297 0.0273438C1.43555 0.0273438 0 1.43555 0 4.25195L0 7.60156C0 8.3125 0.396484 8.72266 1.09375 8.72266ZM25.6621 8.72266C26.3867 8.72266 26.7695 8.3125 26.7695 7.60156L26.7695 4.25195C26.7695 1.43555 25.334 0.0273438 22.4766 0.0273438L19.127 0.0273438C18.416 0.0273438 18.0195 0.410156 18.0195 1.12109C18.0195 1.83203 18.416 2.22852 19.127 2.22852L22.4355 2.22852C23.7891 2.22852 24.5684 2.95312 24.5684 4.375L24.5684 7.60156C24.5684 8.3125 24.9648 8.72266 25.6621 8.72266ZM4.29297 26.7832L7.62891 26.7832C8.35352 26.7832 8.75 26.3867 8.75 25.6895C8.75 24.9785 8.35352 24.582 7.62891 24.582L4.32031 24.582C2.95312 24.582 2.20117 23.8574 2.20117 22.4355L2.20117 19.209C2.20117 18.4844 1.80469 18.0879 1.09375 18.0879C0.382812 18.0879 0 18.4844 0 19.209L0 22.5449C0 25.375 1.43555 26.7832 4.29297 26.7832ZM19.127 26.7832L22.4766 26.7832C25.334 26.7832 26.7695 25.3613 26.7695 22.5449L26.7695 19.209C26.7695 18.4844 26.373 18.0879 25.6621 18.0879C24.9512 18.0879 24.5684 18.4844 24.5684 19.209L24.5684 22.4355C24.5684 23.8574 23.7891 24.582 22.4355 24.582L19.127 24.582C18.416 24.582 18.0195 24.9785 18.0195 25.6895C18.0195 26.3867 18.416 26.7832 19.127 26.7832Z" style="fill:var(--color-0,hsl(0 0 0/0.85))"></path>
  <path d="M9.625 21.8477L17.7598 21.8477C19.4824 21.8477 20.3848 20.918 20.3848 19.1816L20.3848 12.2363C20.3848 11.1426 20.2207 10.6641 19.5918 10.0215L15.3672 5.71484C14.7793 5.12695 14.2324 4.92188 13.2617 4.92188L9.625 4.92188C7.91602 4.92188 7 5.85156 7 7.57422L7 19.1816C7 20.918 7.91602 21.8477 9.625 21.8477ZM9.67969 20.1113C9.02344 20.1113 8.72266 19.7969 8.72266 19.168L8.72266 7.60156C8.72266 6.97266 9.03711 6.6582 9.69336 6.6582L12.8379 6.6582L12.8379 10.8555C12.8379 11.9355 13.4395 12.5371 14.5332 12.5371L18.6621 12.5371L18.6621 19.168C18.6621 19.7969 18.3613 20.1113 17.6914 20.1113ZM14.7246 10.8828C14.5605 10.8828 14.4922 10.8281 14.4922 10.6641L14.4922 7.24609L18.0605 10.8828Z" style="fill:var(--color-1,hsl(0 0 0/0.85))"></path>
 </g>
</svg>