<svg version="1.1" xmlns="http://www.w3.org/2000/svg" xmlns:xlink="http://www.w3.org/1999/xlink" viewBox="0 0 28.2461 27.9043">
 <g>
  
  <path d="M13.9453 27.8906C21.6426 27.8906 27.8906 21.6426 27.8906 13.9453C27.8906 6.24805 21.6426 0 13.9453 0C6.24805 0 0 6.24805 0 13.9453C0 21.6426 6.24805 27.8906 13.9453 27.8906ZM13.9453 25.5664C7.51953 25.5664 2.32422 20.3711 2.32422 13.9453C2.32422 7.51953 7.51953 2.32422 13.9453 2.32422C20.3711 2.32422 25.5664 7.51953 25.5664 13.9453C25.5664 20.3711 20.3711 25.5664 13.9453 25.5664Z" style="fill:var(--color-0,hsl(0 0 0/0.85))"></path>
  <path d="M10.6914 21.3008L17.8281 21.3008C19.3457 21.3008 20.0977 20.5215 20.0977 18.9902L20.0977 13.1113L14.6836 13.1113C13.7402 13.1113 13.2891 12.6738 13.2891 11.7305L13.2891 6.2207L10.6914 6.2207C9.1875 6.2207 8.42188 7 8.42188 8.53125L8.42188 18.9902C8.42188 20.5352 9.1875 21.3008 10.6914 21.3008ZM14.793 12.0039L20.0156 12.0039C19.9746 11.7031 19.7559 11.4023 19.4004 11.0469L15.3535 6.91797C15.0117 6.5625 14.6973 6.34375 14.3965 6.30273L14.3965 11.6074C14.3965 11.8672 14.5332 12.0039 14.793 12.0039Z" style="fill:var(--color-1,hsl(0 0 0/0.85))"></path>
 </g>
</svg>