<svg version="1.1" xmlns="http://www.w3.org/2000/svg" xmlns:xlink="http://www.w3.org/1999/xlink" viewBox="0 0 32.0332 38.0762">
 <g>
  
  <path d="M29.8184 6.11133L29.8184 25.1016C29.8184 27.9453 28.4102 29.3945 25.5801 29.3945L25.0605 29.3945L25.0605 21.123C25.0605 19.2773 24.8008 17.9238 23.2148 16.2969L15.9141 8.85938C14.1641 7.06836 12.9746 6.78125 11.0605 6.78125L8.49023 6.78125L8.49023 6.11133C8.49023 3.25391 9.89844 1.81836 12.7285 1.81836L25.5801 1.81836C28.4102 1.81836 29.8184 3.25391 29.8184 6.11133ZM15.8184 4.60742C15.2168 4.60742 14.9434 4.99023 14.9434 5.41406L14.9434 5.70117C14.9434 6.11133 15.2168 6.50781 15.8184 6.50781L22.4902 6.50781C23.0781 6.50781 23.3652 6.11133 23.3652 5.70117L23.3652 5.41406C23.3652 4.99023 23.0781 4.60742 22.4902 4.60742Z" style="fill:var(--color-0,hsl(0 0 0/0.85))"></path>
  <path d="M1.85938 31.9238C1.85938 34.7812 3.28125 36.2168 6.09766 36.2168L18.9492 36.2168C21.7793 36.2168 23.1875 34.7676 23.1875 31.9238L23.1875 21.123L13.6445 21.123C11.8809 21.123 11.0605 20.2891 11.0605 18.5391L11.0605 8.64062L6.09766 8.64062C3.28125 8.64062 1.85938 10.0762 1.85938 12.9336ZM13.6309 19.25L22.9551 19.25C22.8047 18.7168 22.4902 18.2246 21.8887 17.5957L14.5879 10.1582C13.9727 9.54297 13.4531 9.13281 12.9336 8.98242L12.9336 18.5527C12.9336 19.0176 13.166 19.25 13.6309 19.25Z" style="fill:var(--color-1,hsl(0 0 0/0.85))"></path>
 </g>
</svg>