<?xml version="1.0" encoding="UTF-8"?>
<!--Generator: Apple Native CoreSVG 326-->
<!DOCTYPE svg
PUBLIC "-//W3C//DTD SVG 1.1//EN"
       "http://www.w3.org/Graphics/SVG/1.1/DTD/svg11.dtd">
<svg version="1.1" xmlns="http://www.w3.org/2000/svg" xmlns:xlink="http://www.w3.org/1999/xlink" viewBox="0 0 32.0332 38.0762">
 <g>
  <rect height="38.0762" opacity="0" width="32.0332" x="0" y="0"/>
  <path d="M20.0156 9.89844C20.0156 11.3203 20.8359 12.127 22.2578 12.127L29.8184 12.127L29.8184 25.1016C29.8184 27.9453 28.4102 29.3945 25.5801 29.3945L25.0605 29.3945L25.0605 21.123C25.0742 19.1543 24.4727 17.582 23.2148 16.2969L15.9141 8.85938C14.5195 7.42383 13.002 6.78125 10.8691 6.78125L8.49023 6.78125L8.49023 6.00195C8.49023 3.32227 9.91211 1.81836 12.7285 1.81836L20.0156 1.81836ZM23.0234 3.22656L28.8066 9.11914C29.2988 9.59766 29.5859 9.98047 29.668 10.418L22.5176 10.418C21.9707 10.418 21.752 10.1855 21.752 9.625L21.7383 2.37891C22.1621 2.43359 22.5586 2.73438 23.0234 3.22656Z" fill="white" fill-opacity="0.85"/>
  <path d="M13.6309 19.25L22.9551 19.25C22.8047 18.7168 22.4902 18.2246 21.8887 17.5957L14.5879 10.1582C13.9727 9.54297 13.4531 9.13281 12.9336 8.98242L12.9336 18.5527C12.9336 19.0176 13.166 19.25 13.6309 19.25ZM6.09766 36.2168L18.9492 36.2168C21.7793 36.2168 23.1875 34.7676 23.1875 31.9238L23.1875 21.123L13.6445 21.123C11.8809 21.123 11.0605 20.2891 11.0605 18.5391L11.0605 8.64062L6.09766 8.64062C3.28125 8.64062 1.85938 10.0762 1.85938 12.9336L1.85938 31.9238C1.85938 34.7812 3.28125 36.2168 6.09766 36.2168Z" fill="white" fill-opacity="0.85"/>
 </g>
</svg>
