<svg version="1.1" xmlns="http://www.w3.org/2000/svg" xmlns:xlink="http://www.w3.org/1999/xlink" viewBox="0 0 23.3516 29.3262">
 <g>
  
  <path d="M4.23828 29.3125L18.7578 29.3125C21.5879 29.3125 22.9961 27.877 22.9961 25.0332L22.9961 12.6191L13.0977 12.6191C11.3477 12.6191 10.5137 11.7852 10.5137 10.0352L10.5137 0L4.23828 0C1.42188 0 0 1.44922 0 4.29297L0 25.0332C0 27.8906 1.4082 29.3125 4.23828 29.3125ZM13.1387 10.7461L22.832 10.7461C22.75 10.1855 22.3535 9.63867 21.6973 8.96875L14.1641 1.29883C13.5215 0.642578 12.9609 0.246094 12.3867 0.150391L12.3867 10.0078C12.3867 10.5 12.6328 10.7461 13.1387 10.7461Z" style="fill:var(--color-0,hsl(0 0 0/0.85))"></path>
 </g>
</svg>