<?xml version="1.0" encoding="UTF-8"?>
<!--Generator: Apple Native CoreSVG 326-->
<!DOCTYPE svg
PUBLIC "-//W3C//DTD SVG 1.1//EN"
       "http://www.w3.org/Graphics/SVG/1.1/DTD/svg11.dtd">
<svg version="1.1" xmlns="http://www.w3.org/2000/svg" xmlns:xlink="http://www.w3.org/1999/xlink" viewBox="0 0 28.3145 34.4395">
 <g>
  <rect height="34.4395" opacity="0" width="28.3145" x="0" y="0"/>
  <path d="M19.6875 1.36719L26.5918 8.38086C27.6172 9.43359 27.959 10.5 27.959 12.1816L27.959 23.2832C27.959 26.127 26.5371 27.5762 23.7207 27.5762L21.3281 27.5762L21.3281 25.375L23.5977 25.375C25.0195 25.375 25.7578 24.6094 25.7578 23.2422L25.7578 11.5527L19.3594 11.5527C17.7871 11.5527 17.0215 10.8008 17.0215 9.21484L17.0215 2.20117L10.9785 2.20117C9.55664 2.20117 8.83203 2.98047 8.83203 4.33398L8.83203 6.82227L6.63086 6.82227L6.63086 4.29297C6.63086 1.44922 8.05273 0 10.8691 0L16.1055 0C17.5684 0 18.7168 0.369141 19.6875 1.36719ZM19.0039 8.88672C19.0039 9.36523 19.1953 9.57031 19.6738 9.57031L25.1836 9.57031L19.0039 3.28125Z" fill="white" fill-opacity="0.85"/>
  <path d="M0 30.1055C0 32.9629 1.4082 34.3984 4.23828 34.3984L17.0898 34.3984C19.9199 34.3984 21.3281 32.9492 21.3281 30.1055L21.3281 19.4277C21.3281 17.6777 21.123 16.9121 20.0293 15.791L12.4961 8.12109C11.457 7.05469 10.5957 6.82227 9.06445 6.82227L4.23828 6.82227C1.42188 6.82227 0 8.25781 0 11.1152ZM2.20117 30.0645L2.20117 11.1426C2.20117 9.80273 2.92578 9.02344 4.34766 9.02344L8.83203 9.02344L8.83203 16.9531C8.83203 18.6758 9.70703 19.5371 11.4023 19.5371L19.127 19.5371L19.127 30.0645C19.127 31.4316 18.3887 32.1973 16.9805 32.1973L4.33398 32.1973C2.92578 32.1973 2.20117 31.4316 2.20117 30.0645ZM11.6621 17.4727C11.1152 17.4727 10.8965 17.2539 10.8965 16.707L10.8965 9.5293L18.7031 17.4727Z" fill="white" fill-opacity="0.85"/>
 </g>
</svg>
