<svg version="1.1" xmlns="http://www.w3.org/2000/svg" xmlns:xlink="http://www.w3.org/1999/xlink" viewBox="0 0 28.3145 34.4395">
 <g>
  
  <path d="M27.959 4.29297L27.959 23.2832C27.959 26.127 26.5371 27.5762 23.7207 27.5762L21.3281 27.5762L21.3281 19.4277C21.3281 17.6777 21.123 16.9121 20.0293 15.791L12.4961 8.12109C11.457 7.05469 10.5957 6.82227 9.06445 6.82227L6.63086 6.82227L6.63086 4.29297C6.63086 1.43555 8.03906 0 10.8691 0L23.7207 0C26.5371 0 27.959 1.43555 27.959 4.29297ZM13.959 2.78906C13.3574 2.78906 13.084 3.17188 13.084 3.5957L13.084 3.88281C13.084 4.29297 13.3574 4.68945 13.959 4.68945L20.6309 4.68945C21.2188 4.68945 21.5059 4.29297 21.5059 3.88281L21.5059 3.5957C21.5059 3.17188 21.2188 2.78906 20.6309 2.78906Z" style="fill:var(--color-0,hsl(0 0 0/0.85))"></path>
  <path d="M0 30.1055C0 32.9629 1.4082 34.3984 4.23828 34.3984L17.0898 34.3984C19.9199 34.3984 21.3281 32.9492 21.3281 30.1055L21.3281 19.4277C21.3281 17.6777 21.123 16.9121 20.0293 15.791L12.4961 8.12109C11.457 7.05469 10.5957 6.82227 9.06445 6.82227L4.23828 6.82227C1.42188 6.82227 0 8.25781 0 11.1152ZM2.20117 30.0645L2.20117 11.1426C2.20117 9.80273 2.92578 9.02344 4.34766 9.02344L8.83203 9.02344L8.83203 16.9531C8.83203 18.6758 9.70703 19.5371 11.4023 19.5371L19.127 19.5371L19.127 30.0645C19.127 31.4316 18.3887 32.1973 16.9805 32.1973L4.33398 32.1973C2.92578 32.1973 2.20117 31.4316 2.20117 30.0645ZM11.6621 17.4727C11.1152 17.4727 10.8965 17.2539 10.8965 16.707L10.8965 9.5293L18.7031 17.4727Z" style="fill:var(--color-1,hsl(0 0 0/0.85))"></path>
 </g>
</svg>