<svg version="1.1" xmlns="http://www.w3.org/2000/svg" xmlns:xlink="http://www.w3.org/1999/xlink" viewBox="0 0 37.4062 31.3496">
 <g>
  
  <path d="M2.43359 31.0352L5.22266 31.0352C6.79492 31.0352 7.69727 30.0371 7.69727 28.8613C7.69727 27.6309 7.05469 27.1113 5.74219 26.9746C5.12695 26.9062 5.14062 26.168 5.66016 26.0996C8.99609 25.5664 11.0195 23.8301 11.416 20.8496C13.4531 22.2988 16.8848 22.5176 20.3301 22.0801C20.3164 24.0762 20.0156 26.8242 20.0156 28.2461C20.0156 29.9141 21.082 31.0352 22.709 31.0352L25.0059 31.0352C26.5645 31.0352 27.4668 30.0371 27.4668 28.9023C27.4668 27.7129 26.9062 27.1934 25.416 26.9746C25.1016 26.9199 24.9375 26.7148 25.0059 26.4004C25.2656 24.9922 26.0586 22.0664 26.5098 20.7266C27.4531 17.9238 28.7793 16.1191 28.7793 13.2207C28.7793 11.8672 29.1484 11.0605 29.4629 10.7051C30.543 11.3613 31.3359 11.6895 32.3887 11.6895C34.7266 11.6895 37.0508 9.31055 37.0508 6.82227C37.0508 5.50977 35.957 5.45508 34.5762 4.58008C33.373 3.78711 32.6895 2.76172 31.623 2.1875C31.2539 3.96484 29.9004 6.75391 27.5078 6.75391C26.0449 6.75391 24.9785 5.70117 24.2949 4.49805C23.2148 5.97461 22.7773 7.20508 19.8789 8.2168L8.17578 9.13281C7.875 9.14648 7.61523 9.24219 7.4375 9.31055L6.41211 8.08008C4.74414 6.09766 2.14648 8.43555 3.80078 10.3359L4.93555 11.6484C4.375 12.9746 4.07422 14.5742 4.07422 16.5703C4.07422 19.5918 3.8418 20.4258 2.93945 21.1641C0.792969 22.8594 0 23.9805 0 25.8809L0 28.4785C0 29.9824 1.01172 31.0352 2.43359 31.0352ZM32.3203 6.97266C31.8145 6.97266 31.4453 6.58984 31.4453 6.11133C31.4453 5.61914 31.8145 5.26367 32.3203 5.26367C32.7988 5.26367 33.168 5.61914 33.168 6.11133C33.168 6.58984 32.7988 6.97266 32.3203 6.97266ZM27.5078 5.50977C29.4629 5.50977 30.4746 2.20117 30.4746 1.27148C30.4746 0.4375 30.0371 0 29.1758 0L25.8535 0C24.9922 0 24.541 0.4375 24.541 1.27148C24.541 2.20117 25.5527 5.50977 27.5078 5.50977Z" style="fill:var(--color-0,hsl(0 0 0/0.85))"></path>
 </g>
</svg>