<?xml version="1.0" encoding="UTF-8"?>
<!--Generator: Apple Native CoreSVG 326-->
<!DOCTYPE svg
PUBLIC "-//W3C//DTD SVG 1.1//EN"
       "http://www.w3.org/Graphics/SVG/1.1/DTD/svg11.dtd">
<svg version="1.1" xmlns="http://www.w3.org/2000/svg" xmlns:xlink="http://www.w3.org/1999/xlink" viewBox="0 0 30.8848 29.1895">
 <g>
  <rect height="29.1895" opacity="0" width="30.8848" x="0" y="0"/>
  <path d="M1.81836 25.9219L28.7109 25.9219L28.7109 25.0059C28.7109 24.459 28.3965 24.1309 27.8359 24.1309L26.9609 24.1309L26.9609 9.37891L28.1641 9.37891C28.916 9.37891 29.3535 8.83203 29.3535 8.27148C29.3535 7.86133 29.1211 7.50586 28.6152 7.21875L16.9395 0.478516C16.3926 0.164062 15.8184 0 15.2578 0C14.6973 0 14.1094 0.164062 13.5898 0.478516L1.91406 7.21875C1.39453 7.50586 1.17578 7.86133 1.17578 8.27148C1.17578 8.83203 1.61328 9.37891 2.36523 9.37891L3.56836 9.37891L3.56836 24.1309L2.70703 24.1309C2.14648 24.1309 1.81836 24.459 1.81836 25.0059ZM5.63281 24.1309L5.63281 7.62891L14.7246 2.5293C14.8887 2.43359 15.0801 2.37891 15.2578 2.37891C15.4355 2.37891 15.627 2.43359 15.8047 2.5293L24.8965 7.62891L24.8965 24.1309ZM1.09375 29.1758L29.4219 29.1758C30.0234 29.1758 30.5293 28.6699 30.5293 28.0684C30.5293 27.4668 30.0234 26.9746 29.4219 26.9746L1.09375 26.9746C0.492188 26.9746 0 27.4668 0 28.0684C0 28.6699 0.492188 29.1758 1.09375 29.1758Z" fill="white" fill-opacity="0.85"/>
  <path d="M15.2852 20.3574C17.6094 20.3574 19.6602 19.291 19.6602 16.9395C19.6602 14.875 18.0059 14.082 16.1328 13.6445L14.834 13.3438C13.6445 13.0703 12.6328 12.5645 12.6328 11.4434C12.6328 10.1445 14.0273 9.57031 15.2852 9.57031C16.6523 9.57031 17.582 10.1582 17.9512 11.293C18.0879 11.7168 18.3477 11.9219 18.7168 11.9219C19.0586 11.9219 19.4551 11.6895 19.4551 11.2109C19.4551 9.46094 17.2129 8.2168 15.2852 8.2168C13.084 8.2168 11.1016 9.44727 11.1016 11.5664C11.1016 13.6035 12.8105 14.3691 14.4922 14.7793L15.8047 15.0801C17.0215 15.3672 18.1426 15.8047 18.1426 17.0625C18.1426 18.5527 16.707 19.0176 15.3262 19.0176C13.8633 19.0176 12.8652 18.5527 12.373 17.2402C12.209 16.8164 11.9766 16.6523 11.6074 16.6523C11.2109 16.6523 10.8828 16.9121 10.8828 17.3633C10.8828 17.4863 10.9102 17.6367 10.9512 17.7871C11.4844 19.5918 13.4941 20.3574 15.2852 20.3574ZM15.2715 21.9844C15.5176 21.9844 15.7227 21.7793 15.7227 21.5332L15.7227 7.08203C15.7227 6.82227 15.5176 6.63086 15.2715 6.63086C15.0254 6.63086 14.8203 6.82227 14.8203 7.08203L14.8203 21.5332C14.8203 21.7793 15.0254 21.9844 15.2715 21.9844Z" fill="white" fill-opacity="0.85"/>
 </g>
</svg>
