<svg version="1.1" xmlns="http://www.w3.org/2000/svg" xmlns:xlink="http://www.w3.org/1999/xlink" viewBox="0 0 25.5254 25.1699">
 <g>
  
  <path d="M4.29297 25.1699L20.877 25.1699C23.748 25.1699 25.1699 23.7617 25.1699 20.9453L25.1699 4.23828C25.1699 1.42188 23.748 0 20.877 0L4.29297 0C1.43555 0 0 1.42188 0 4.23828L0 20.9453C0 23.7617 1.43555 25.1699 4.29297 25.1699ZM4.32031 22.9688C2.95312 22.9688 2.20117 22.2441 2.20117 20.8223L2.20117 4.36133C2.20117 2.93945 2.95312 2.20117 4.32031 2.20117L20.8496 2.20117C22.2031 2.20117 22.9688 2.93945 22.9688 4.36133L22.9688 20.8223C22.9688 22.2441 22.2031 22.9688 20.8496 22.9688Z" style="fill:var(--color-0,hsl(0 0 0/0.85))"></path>
  <path d="M12.6191 18.5527C14.9297 18.5527 16.9805 17.4727 16.9805 15.1211C16.9805 13.0703 15.3262 12.2773 13.4668 11.8398L12.1543 11.5254C10.9648 11.252 9.95312 10.7461 9.95312 9.63867C9.95312 8.33984 11.3477 7.75195 12.6191 7.75195C13.9727 7.75195 14.9023 8.33984 15.2715 9.48828C15.4082 9.89844 15.668 10.1035 16.0371 10.1035C16.3926 10.1035 16.7754 9.88477 16.7754 9.40625C16.7754 7.65625 14.5332 6.41211 12.6191 6.41211C10.418 6.41211 8.42188 7.64258 8.42188 9.74805C8.42188 11.7852 10.1445 12.5645 11.8262 12.9609L13.125 13.2754C14.3555 13.5625 15.4629 14 15.4629 15.2441C15.4629 16.748 14.0273 17.2129 12.6465 17.2129C11.1973 17.2129 10.1855 16.7344 9.69336 15.4219C9.5293 15.0117 9.29688 14.834 8.94141 14.834C8.53125 14.834 8.20312 15.1074 8.20312 15.5449C8.20312 15.6816 8.23047 15.8184 8.28516 15.9824C8.80469 17.7871 10.8145 18.5527 12.6191 18.5527ZM12.5918 20.1797C12.8379 20.1797 13.043 19.9746 13.043 19.7285L13.043 5.26367C13.043 5.01758 12.8379 4.8125 12.5918 4.8125C12.3457 4.8125 12.1406 5.01758 12.1406 5.26367L12.1406 19.7285C12.1406 19.9746 12.3457 20.1797 12.5918 20.1797Z" style="fill:var(--color-1,hsl(0 0 0/0.85))"></path>
 </g>
</svg>