<svg version="1.1" xmlns="http://www.w3.org/2000/svg" xmlns:xlink="http://www.w3.org/1999/xlink" viewBox="0 0 33.291 27.4395">
 <g>
  
  <path d="M32.9355 16.4609C32.9355 12.4414 31.4863 8.73633 29.0664 5.86523C28.793 5.53711 28.3281 5.53711 28.0273 5.85156L24.8555 9.02344C24.5957 9.2832 24.582 9.65234 24.8145 9.93945C26.2227 11.7441 27.0703 14.0137 27.0703 16.4609C27.0703 18.9219 26.2227 21.1914 24.7324 23.0918C24.541 23.3242 24.5547 23.625 24.7598 23.8438L28.0137 27.0977C28.3281 27.4121 28.7793 27.4121 29.0664 27.0703C31.4863 24.1992 32.9355 20.4941 32.9355 16.4609Z" style="fill:var(--color-0,hsl(0 0 0/0.85))"></path>
  <path d="M16.4609 5.86523C18.9355 5.86523 21.2051 6.72656 23.0234 8.13477C23.2969 8.35352 23.6523 8.32617 23.9121 8.06641L27.084 4.89453C27.3984 4.58008 27.3848 4.12891 27.0566 3.85547C24.1992 1.44922 20.4941 0 16.4609 0C12.4414 0 8.73633 1.44922 5.87891 3.85547C5.55078 4.12891 5.53711 4.58008 5.85156 4.89453L9.02344 8.06641C9.2832 8.32617 9.65234 8.35352 9.95312 8.12109C11.7578 6.72656 14.0137 5.86523 16.4609 5.86523Z" style="fill:var(--color-1,hsl(0 0 0/0.85))"></path>
  <path d="M0 16.4609C0 20.4941 1.44922 24.1992 3.86914 27.0703C4.14258 27.4121 4.60742 27.4121 4.9082 27.0977L8.16211 23.8438C8.36719 23.625 8.39453 23.3242 8.20312 23.0918C6.71289 21.1914 5.86523 18.9219 5.86523 16.4609C5.86523 14.0137 6.69922 11.7441 8.12109 9.93945C8.33984 9.65234 8.33984 9.2832 8.08008 9.02344L4.9082 5.85156C4.59375 5.53711 4.14258 5.53711 3.86914 5.86523C1.44922 8.73633 0 12.4414 0 16.4609Z" style="fill:var(--color-2,hsl(0 0 0/0.85))"></path>
  <path d="M16.4746 22.6133C18.7852 22.6133 20.8496 21.5469 20.8496 19.1953C20.8496 17.1309 19.1816 16.3379 17.3223 15.9004L16.0098 15.5996C14.8203 15.3262 13.8086 14.8203 13.8086 13.6992C13.8086 12.4004 15.2031 11.8262 16.4746 11.8262C17.8281 11.8262 18.7578 12.4141 19.127 13.5488C19.2637 13.9727 19.5234 14.1777 19.8926 14.1777C20.248 14.1777 20.6309 13.9453 20.6309 13.4668C20.6309 11.7168 18.3887 10.4727 16.4746 10.4727C14.2734 10.4727 12.2773 11.7031 12.2773 13.8223C12.2773 15.8594 14 16.625 15.6816 17.0352L16.9941 17.3359C18.2109 17.623 19.3184 18.0605 19.3184 19.3184C19.3184 20.8086 17.8828 21.2734 16.502 21.2734C15.0527 21.2734 14.041 20.8086 13.5625 19.4961C13.3848 19.0723 13.166 18.9082 12.7969 18.9082C12.3867 18.9082 12.0586 19.168 12.0586 19.6191C12.0586 19.7422 12.0996 19.8926 12.1406 20.043C12.6602 21.8477 14.6836 22.6133 16.4746 22.6133ZM16.4473 24.2402C16.707 24.2402 16.9121 24.0352 16.9121 23.7891L16.9121 9.33789C16.9121 9.07812 16.707 8.88672 16.4473 8.88672C16.2012 8.88672 15.9961 9.07812 15.9961 9.33789L15.9961 23.7891C15.9961 24.0352 16.2012 24.2402 16.4473 24.2402Z" style="fill:var(--color-3,hsl(0 0 0/0.85))"></path>
 </g>
</svg>