<svg version="1.1" xmlns="http://www.w3.org/2000/svg" xmlns:xlink="http://www.w3.org/1999/xlink" viewBox="0 0 28.2461 27.9043">
 <g>
  
  <path d="M13.9453 27.8906C21.6426 27.8906 27.8906 21.6289 27.8906 13.9453C27.8906 6.24805 21.6426 0 13.9453 0C6.26172 0 0 6.24805 0 13.9453C0 21.6289 6.26172 27.8906 13.9453 27.8906Z" style="fill:var(--color-0,hsl(0 0 0/0.85))"></path>
  <path d="M12.9062 18.6348C10.6094 18.6348 9.11914 16.7754 9.11914 14.4648C9.11914 11.9082 10.8281 10.2949 12.9062 10.2949C14.1367 10.2949 15.2715 10.7871 15.7773 11.8809L15.832 11.8809L15.832 9.00977L13.1387 9.00977C12.8789 9.00977 12.6738 8.81836 12.6738 8.53125C12.6738 8.28516 12.8789 8.08008 13.1387 8.08008L15.832 8.08008L15.832 7.51953C15.832 7.02734 16.1465 6.71289 16.625 6.71289C17.1035 6.71289 17.418 7.02734 17.418 7.51953L17.418 8.08008L18.457 8.08008C18.7168 8.08008 18.9219 8.28516 18.9219 8.53125C18.9219 8.80469 18.7168 9.00977 18.457 9.00977L17.418 9.00977L17.418 18.0195C17.418 18.457 17.0898 18.7988 16.6523 18.7988C16.2148 18.7988 15.8867 18.457 15.8867 18.0195L15.8867 17.0488L15.832 17.0488C15.2715 18.1426 14.1367 18.6348 12.9062 18.6348ZM13.3164 17.2812C14.793 17.2812 15.8457 16.0781 15.8457 14.4648C15.8457 12.9609 14.916 11.6484 13.3164 11.6484C11.8125 11.6484 10.7461 12.7832 10.7461 14.4648C10.7461 16.0371 11.6895 17.2812 13.3164 17.2812ZM9.84375 20.1523C9.84375 19.8652 10.0625 19.6602 10.3496 19.6602L17.3359 19.6602C17.5957 19.6602 17.8281 19.8652 17.8281 20.1523C17.8281 20.4121 17.5957 20.6309 17.3359 20.6309L10.3496 20.6309C10.0625 20.6309 9.84375 20.4121 9.84375 20.1523Z" style="fill:var(--color-1,white)"></path>
 </g>
</svg>