<svg version="1.1" xmlns="http://www.w3.org/2000/svg" xmlns:xlink="http://www.w3.org/1999/xlink" viewBox="0 0 33.291 27.4395">
 <g>
  
  <path d="M32.9355 16.4609C32.9355 12.4414 31.4863 8.73633 29.0664 5.86523C28.793 5.53711 28.3281 5.53711 28.0273 5.85156L24.8555 9.02344C24.5957 9.2832 24.582 9.65234 24.8145 9.93945C26.2227 11.7441 27.0703 14.0137 27.0703 16.4609C27.0703 18.9219 26.2227 21.1914 24.7324 23.0918C24.541 23.3242 24.5547 23.625 24.7598 23.8438L28.0137 27.0977C28.3281 27.4121 28.7793 27.4121 29.0664 27.0703C31.4863 24.1992 32.9355 20.4941 32.9355 16.4609Z" style="fill:var(--color-0,hsl(0 0 0/0.85))"></path>
  <path d="M16.4609 5.86523C18.9355 5.86523 21.2051 6.72656 23.0234 8.13477C23.2969 8.35352 23.6523 8.32617 23.9121 8.06641L27.084 4.89453C27.3984 4.58008 27.3848 4.12891 27.0566 3.85547C24.1992 1.44922 20.4941 0 16.4609 0C12.4414 0 8.73633 1.44922 5.87891 3.85547C5.55078 4.12891 5.53711 4.58008 5.85156 4.89453L9.02344 8.06641C9.2832 8.32617 9.65234 8.35352 9.95312 8.12109C11.7578 6.72656 14.0137 5.86523 16.4609 5.86523Z" style="fill:var(--color-1,hsl(0 0 0/0.85))"></path>
  <path d="M0 16.4609C0 20.4941 1.44922 24.1992 3.86914 27.0703C4.14258 27.4121 4.60742 27.4121 4.9082 27.0977L8.16211 23.8438C8.36719 23.625 8.39453 23.3242 8.20312 23.0918C6.71289 21.1914 5.86523 18.9219 5.86523 16.4609C5.86523 14.0137 6.69922 11.7441 8.12109 9.93945C8.33984 9.65234 8.33984 9.2832 8.08008 9.02344L4.9082 5.85156C4.59375 5.53711 4.14258 5.53711 3.86914 5.86523C1.44922 8.73633 0 12.4414 0 16.4609Z" style="fill:var(--color-2,hsl(0 0 0/0.85))"></path>
  <path d="M15.4629 21.1777C16.6387 21.1777 17.7324 20.7129 18.293 19.6328L18.334 19.6328L18.334 20.5898C18.334 21.0137 18.6484 21.3281 19.0723 21.3281C19.4961 21.3281 19.8105 21.0137 19.8105 20.5898L19.8105 11.8535L20.8223 11.8535C21.082 11.8535 21.2871 11.6484 21.2871 11.4023C21.2871 11.1426 21.082 10.9648 20.8223 10.9648L19.8105 10.9648L19.8105 10.4043C19.8105 9.92578 19.5234 9.625 19.0449 9.625C18.5801 9.625 18.293 9.92578 18.293 10.4043L18.293 10.9648L15.6816 10.9648C15.4219 10.9648 15.2168 11.1426 15.2168 11.4023C15.2168 11.6621 15.4219 11.8535 15.6816 11.8535L18.293 11.8535L18.293 14.6426L18.2246 14.6426C17.7461 13.5898 16.6387 13.0977 15.4629 13.0977C13.4258 13.0977 11.7715 14.6562 11.7715 17.1309C11.7715 19.3867 13.2344 21.1777 15.4629 21.1777ZM15.8457 19.8652C14.2734 19.8652 13.3438 18.6758 13.3438 17.1309C13.3438 15.5039 14.3828 14.3965 15.8457 14.3965C17.3906 14.3965 18.293 15.6816 18.293 17.1309C18.293 18.7031 17.2812 19.8652 15.8457 19.8652ZM12.4824 22.6406C12.4824 22.9141 12.7012 23.1055 12.9609 23.1055L19.7285 23.1055C19.9883 23.1055 20.207 22.9004 20.207 22.6406C20.207 22.3809 19.9883 22.1758 19.7285 22.1758L12.9609 22.1758C12.7012 22.1758 12.4824 22.3809 12.4824 22.6406Z" style="fill:var(--color-3,hsl(0 0 0/0.85))"></path>
 </g>
</svg>