<?xml version="1.0" encoding="UTF-8"?>
<!--Generator: Apple Native CoreSVG 326-->
<!DOCTYPE svg
PUBLIC "-//W3C//DTD SVG 1.1//EN"
       "http://www.w3.org/Graphics/SVG/1.1/DTD/svg11.dtd">
<svg version="1.1" xmlns="http://www.w3.org/2000/svg" xmlns:xlink="http://www.w3.org/1999/xlink" viewBox="0 0 30.8848 29.1895">
 <g>
  <rect height="29.1895" opacity="0" width="30.8848" x="0" y="0"/>
  <path d="M1.81836 27.5898L28.7109 27.5898L28.7109 25.9766C28.7109 25.4297 28.3965 25.1016 27.8359 25.1016L26.9609 25.1016L26.9609 9.37891L28.1641 9.37891C28.916 9.37891 29.3535 8.83203 29.3535 8.27148C29.3535 7.86133 29.1211 7.50586 28.6152 7.21875L16.9395 0.478516C16.3926 0.164062 15.8184 0 15.2578 0C14.6973 0 14.1094 0.164062 13.5898 0.478516L1.91406 7.21875C1.39453 7.50586 1.17578 7.86133 1.17578 8.27148C1.17578 8.83203 1.61328 9.37891 2.36523 9.37891L3.56836 9.37891L3.56836 25.1016L2.70703 25.1016C2.14648 25.1016 1.81836 25.4297 1.81836 25.9766ZM1.09375 29.1758L29.4219 29.1758C30.0234 29.1758 30.5293 28.6699 30.5293 28.0684C30.5293 27.4668 30.0234 26.9746 29.4219 26.9746L1.09375 26.9746C0.492188 26.9746 0 27.4668 0 28.0684C0 28.6699 0.492188 29.1758 1.09375 29.1758Z" fill="white" fill-opacity="0.85"/>
  <path d="M14.2324 20.2891C11.9355 20.2891 10.4453 18.4434 10.4453 16.1191C10.4453 13.5762 12.1543 11.9492 14.2324 11.9492C15.4629 11.9492 16.5977 12.4551 17.1035 13.5488L17.1582 13.5488L17.1582 10.6777L14.4648 10.6777C14.2051 10.6777 14 10.4727 14 10.1992C14 9.95312 14.2051 9.74805 14.4648 9.74805L17.1582 9.74805L17.1582 9.17383C17.1582 8.69531 17.459 8.36719 17.9512 8.36719C18.4297 8.36719 18.7441 8.69531 18.7441 9.17383L18.7441 9.74805L19.7832 9.74805C20.043 9.74805 20.248 9.95312 20.248 10.1992C20.248 10.459 20.043 10.6777 19.7832 10.6777L18.7441 10.6777L18.7441 19.6875C18.7441 20.125 18.416 20.4668 17.9785 20.4668C17.541 20.4668 17.2129 20.125 17.2129 19.6875L17.2129 18.7031L17.1582 18.7031C16.5977 19.8105 15.4492 20.2891 14.2324 20.2891ZM14.6426 18.9355C16.1191 18.9355 17.1719 17.7324 17.1719 16.1191C17.1719 14.6289 16.2422 13.3164 14.6426 13.3164C13.1387 13.3164 12.0586 14.4512 12.0586 16.1191C12.0586 17.7051 13.0156 18.9355 14.6426 18.9355ZM11.1562 21.8066C11.1562 21.5332 11.3887 21.3145 11.6758 21.3145L18.6621 21.3145C18.9219 21.3145 19.1543 21.5332 19.1543 21.8066C19.1543 22.0801 18.9219 22.2988 18.6621 22.2988L11.6758 22.2988C11.3887 22.2988 11.1562 22.0801 11.1562 21.8066Z" fill="white"/>
 </g>
</svg>
