<svg version="1.1" xmlns="http://www.w3.org/2000/svg" xmlns:xlink="http://www.w3.org/1999/xlink" viewBox="0 0 19.0039 26.8926">
 <g>
  
  <path d="M7.32812 23.0371C10.1582 23.0371 12.1543 21.6973 13.1113 19.7559L13.1934 19.7559L13.1934 22.0664C13.1934 22.8184 13.7129 23.3516 14.4238 23.3379C15.1484 23.3379 15.668 22.8184 15.668 22.0801L15.668 4.44336L17.7598 4.42969C18.2656 4.42969 18.6484 4.06055 18.6484 3.56836C18.6484 3.07617 18.2656 2.70703 17.7598 2.70703L15.668 2.7207L15.668 1.33984C15.668 0.574219 15.1074 0 14.3691 0C13.6172 0 13.0703 0.574219 13.0703 1.33984L13.0703 2.7207L7.69727 2.7207C7.19141 2.7207 6.80859 3.08984 6.80859 3.58203C6.80859 4.08789 7.19141 4.44336 7.69727 4.44336L13.0703 4.44336L13.0703 10.2676L12.9883 10.2676C12.0176 8.12109 9.81641 7.02734 7.32812 7.02734C2.91211 7.02734 0 10.5273 0 15.0254C0 19.7559 3.10352 23.0371 7.32812 23.0371ZM7.92969 20.7402C4.66211 20.7402 2.69336 18.2793 2.69336 15.0254C2.69336 11.4707 4.96289 9.31055 7.92969 9.31055C10.9375 9.31055 13.084 11.7852 13.084 15.0254C13.084 18.2246 10.9512 20.7402 7.92969 20.7402ZM1.36719 25.9766C1.36719 26.4961 1.75 26.8652 2.26953 26.8652L15.5723 26.8652C16.0918 26.8652 16.4746 26.4824 16.4746 25.9766C16.4746 25.4707 16.0918 25.0879 15.5723 25.0879L2.26953 25.0879C1.75 25.0879 1.36719 25.4707 1.36719 25.9766Z" style="fill:var(--color-0,hsl(0 0 0/0.85))"></path>
 </g>
</svg>