<?xml version="1.0" encoding="UTF-8"?>
<!--Generator: Apple Native CoreSVG 326-->
<!DOCTYPE svg
PUBLIC "-//W3C//DTD SVG 1.1//EN"
       "http://www.w3.org/Graphics/SVG/1.1/DTD/svg11.dtd">
<svg version="1.1" xmlns="http://www.w3.org/2000/svg" xmlns:xlink="http://www.w3.org/1999/xlink" viewBox="0 0 25.5254 25.1699">
 <g>
  <rect height="25.1699" opacity="0" width="25.5254" x="0" y="0"/>
  <path d="M4.29297 25.1699L20.877 25.1699C23.748 25.1699 25.1699 23.7617 25.1699 20.9453L25.1699 4.23828C25.1699 1.42188 23.748 0 20.877 0L4.29297 0C1.43555 0 0 1.42188 0 4.23828L0 20.9453C0 23.7617 1.43555 25.1699 4.29297 25.1699Z" fill="white" fill-opacity="0.85"/>
  <path d="M11.5664 17.2676C9.26953 17.2676 7.76562 15.4082 7.76562 13.0977C7.76562 10.541 9.47461 8.92773 11.5664 8.92773C12.7832 8.92773 13.9316 9.41992 14.4238 10.5137L14.4785 10.5137L14.4785 7.64258L11.7852 7.64258C11.5254 7.64258 11.3203 7.45117 11.3203 7.16406C11.3203 6.91797 11.5254 6.71289 11.7852 6.71289L14.4785 6.71289L14.4785 6.15234C14.4785 5.66016 14.793 5.3457 15.2715 5.3457C15.7637 5.3457 16.0645 5.66016 16.0645 6.15234L16.0645 6.71289L17.1035 6.71289C17.3633 6.71289 17.5684 6.91797 17.5684 7.16406C17.5684 7.4375 17.3633 7.64258 17.1035 7.64258L16.0645 7.64258L16.0645 16.6523C16.0645 17.0898 15.7363 17.4316 15.2988 17.4316C14.8613 17.4316 14.5332 17.0898 14.5332 16.6523L14.5332 15.6816L14.4922 15.6816C13.918 16.7754 12.7832 17.2676 11.5664 17.2676ZM11.9629 15.9141C13.4395 15.9141 14.4922 14.7109 14.4922 13.0977C14.4922 11.5938 13.5625 10.2812 11.9629 10.2812C10.459 10.2812 9.39258 11.416 9.39258 13.0977C9.39258 14.6699 10.3496 15.9141 11.9629 15.9141ZM8.49023 18.7852C8.49023 18.498 8.72266 18.293 8.99609 18.293L15.9824 18.293C16.2422 18.293 16.4746 18.498 16.4746 18.7852C16.4746 19.0449 16.2422 19.2637 15.9824 19.2637L8.99609 19.2637C8.72266 19.2637 8.49023 19.0449 8.49023 18.7852Z" fill="white"/>
 </g>
</svg>
