<?xml version="1.0" encoding="UTF-8"?>
<!--Generator: Apple Native CoreSVG 326-->
<!DOCTYPE svg
PUBLIC "-//W3C//DTD SVG 1.1//EN"
       "http://www.w3.org/Graphics/SVG/1.1/DTD/svg11.dtd">
<svg version="1.1" xmlns="http://www.w3.org/2000/svg" xmlns:xlink="http://www.w3.org/1999/xlink" viewBox="0 0 33.5408 27.9043">
 <g>
  <rect height="27.9043" opacity="0" width="33.5408" x="0" y="0"/>
  <path d="M16.5995 27.8906C24.2968 27.8906 30.5448 21.6426 30.5448 13.9453C30.5448 6.24805 24.2968 0 16.5995 0C8.90224 0 2.65419 6.24805 2.65419 13.9453L4.97841 13.9453C4.97841 7.51953 10.1737 2.32422 16.5995 2.32422C23.0253 2.32422 28.2206 7.51953 28.2206 13.9453C28.2206 20.3711 23.0253 25.5664 16.5995 25.5664C12.7167 25.5664 9.2577 23.6523 7.19325 20.7539C6.76942 20.1934 6.12684 20.0156 5.55263 20.3574C5.00575 20.6992 4.84169 21.4648 5.30653 22.0664C7.83583 25.6074 11.9784 27.8906 16.5995 27.8906ZM0.972548 11.3066C-0.0118272 11.3066-0.257921 11.9766 0.275282 12.7422L3.33778 17.0898C3.78895 17.7188 4.4452 17.7051 4.8827 17.0898L7.93153 12.7285C8.46474 11.9766 8.20497 11.3066 7.24794 11.3066Z" fill="white" fill-opacity="0.85"/>
  <path d="M15.6015 18.4844C16.7909 18.4844 17.8847 18.0059 18.4315 16.9395L18.4862 16.9395L18.4862 17.8828C18.4862 18.3066 18.8007 18.6348 19.2245 18.6348C19.6483 18.6348 19.9628 18.3066 19.9628 17.8828L19.9628 9.14648L20.9745 9.14648C21.2206 9.14648 21.4257 8.95508 21.4257 8.69531C21.4257 8.44922 21.2206 8.25781 20.9745 8.25781L19.9628 8.25781L19.9628 7.71094C19.9628 7.23242 19.662 6.93164 19.1972 6.93164C18.7323 6.93164 18.4315 7.23242 18.4315 7.71094L18.4315 8.25781L15.8202 8.25781C15.5741 8.25781 15.369 8.44922 15.369 8.69531C15.369 8.96875 15.5741 9.14648 15.8202 9.14648L18.4315 9.14648L18.4315 11.9355L18.3768 11.9355C17.8847 10.8828 16.7909 10.4043 15.6015 10.4043C13.578 10.4043 11.9237 11.9629 11.9237 14.4375C11.9237 16.6797 13.3729 18.4844 15.6015 18.4844ZM15.9979 17.1719C14.412 17.1719 13.496 15.9688 13.496 14.4375C13.496 12.8105 14.535 11.7031 15.9979 11.7031C17.5429 11.7031 18.4452 12.9746 18.4452 14.4375C18.4452 16.0098 17.4198 17.1719 15.9979 17.1719ZM12.621 19.9473C12.621 20.207 12.8397 20.4121 13.1132 20.4121L19.8808 20.4121C20.1405 20.4121 20.3593 20.207 20.3593 19.9473C20.3593 19.6738 20.1405 19.4824 19.8808 19.4824L13.1132 19.4824C12.8397 19.4824 12.621 19.6738 12.621 19.9473Z" fill="white" fill-opacity="0.85"/>
 </g>
</svg>
