<?xml version="1.0" encoding="UTF-8"?>
<!--Generator: Apple Native CoreSVG 326-->
<!DOCTYPE svg
PUBLIC "-//W3C//DTD SVG 1.1//EN"
       "http://www.w3.org/Graphics/SVG/1.1/DTD/svg11.dtd">
<svg version="1.1" xmlns="http://www.w3.org/2000/svg" xmlns:xlink="http://www.w3.org/1999/xlink" viewBox="0 0 40.3047 29.0254">
 <g>
  <rect height="29.0254" opacity="0" width="40.3047" x="0" y="0"/>
  <path d="M1.09375 29.0117C1.70898 29.0117 2.20117 28.5195 2.20117 27.918L2.20117 2.92578C2.20117 2.48828 2.48828 2.20117 2.89844 2.20117L37.0508 2.20117C37.4609 2.20117 37.748 2.48828 37.748 2.92578L37.748 27.918C37.748 28.5195 38.2402 29.0117 38.8555 29.0117C39.457 29.0117 39.9492 28.5195 39.9492 27.918L39.9492 2.78906C39.9492 1.12109 38.8145 0 37.0918 0L2.85742 0C1.14844 0 0 1.12109 0 2.78906L0 27.918C0 28.5195 0.492188 29.0117 1.09375 29.0117Z" fill="white" fill-opacity="0.85"/>
  <path d="M4.26562 9.59766L35.6973 9.59766C35.9434 9.59766 36.1484 9.39258 36.1484 9.14648L36.1484 4.25195C36.1484 3.99219 35.9434 3.78711 35.6973 3.78711L4.26562 3.78711C4.00586 3.78711 3.80078 3.99219 3.80078 4.25195L3.80078 9.14648C3.80078 9.39258 4.00586 9.59766 4.26562 9.59766ZM17.0352 7.35547C16.6387 7.35547 16.3652 7.08203 16.3652 6.69922C16.3652 6.30273 16.6387 6.0293 17.0352 6.0293L22.9277 6.0293C23.3105 6.0293 23.584 6.30273 23.584 6.69922C23.584 7.08203 23.3105 7.35547 22.9277 7.35547Z" fill="white" fill-opacity="0.85"/>
 </g>
</svg>
