<svg version="1.1" xmlns="http://www.w3.org/2000/svg" xmlns:xlink="http://www.w3.org/1999/xlink" viewBox="0 0 21.1914 29.0254">
 <g>
  
  <path d="M20.8359 27.918L20.8359 2.78906C20.8359 1.12109 19.7012 0 17.9785 0L2.85742 0C1.14844 0 0 1.12109 0 2.78906L0 27.918C0 28.5195 0.492188 29.0117 1.09375 29.0117C1.70898 29.0117 2.20117 28.5195 2.20117 27.918L2.20117 2.92578C2.20117 2.48828 2.48828 2.20117 2.89844 2.20117L17.9375 2.20117C18.3477 2.20117 18.6348 2.48828 18.6348 2.92578L18.6348 27.918C18.6348 28.5195 19.127 29.0117 19.7422 29.0117C20.3438 29.0117 20.8359 28.5195 20.8359 27.918Z" style="fill:var(--color-0,hsl(0 0 0/0.85))"></path>
  <path d="M17.0352 28.2324L17.0352 4.08789C17.0352 3.81445 16.8164 3.67773 16.5566 3.78711L12.25 5.70117C11.9219 5.83789 11.7852 5.96094 11.7852 6.30273L11.7852 26.0039C11.7852 26.3594 11.9219 26.4688 12.2637 26.6191L16.5566 28.5195C16.8164 28.6289 17.0352 28.4922 17.0352 28.2324Z" style="fill:var(--color-1,hsl(0 0 0/0.85))"></path>
 </g>
</svg>