<?xml version="1.0" encoding="UTF-8"?>
<!--Generator: Apple Native CoreSVG 326-->
<!DOCTYPE svg
PUBLIC "-//W3C//DTD SVG 1.1//EN"
       "http://www.w3.org/Graphics/SVG/1.1/DTD/svg11.dtd">
<svg version="1.1" xmlns="http://www.w3.org/2000/svg" xmlns:xlink="http://www.w3.org/1999/xlink" viewBox="0 0 21.1914 29.0254">
 <g>
  <rect height="29.0254" opacity="0" width="21.1914" x="0" y="0"/>
  <path d="M19.7422 29.0117C20.3438 29.0117 20.8359 28.5195 20.8359 27.918L20.8359 2.78906C20.8359 1.12109 19.7012 0 17.9785 0L2.85742 0C1.14844 0 0 1.12109 0 2.78906L0 27.918C0 28.5195 0.492188 29.0117 1.09375 29.0117C1.70898 29.0117 2.20117 28.5195 2.20117 27.918L2.20117 2.92578C2.20117 2.48828 2.48828 2.20117 2.89844 2.20117L17.9375 2.20117C18.3477 2.20117 18.6348 2.48828 18.6348 2.92578L18.6348 27.918C18.6348 28.5195 19.127 29.0117 19.7422 29.0117Z" fill="white" fill-opacity="0.85"/>
  <path d="M16.584 28.5332C16.8301 28.5332 17.0352 28.3145 17.0352 28.0684L17.0352 4.25195C17.0352 3.99219 16.8301 3.78711 16.584 3.78711L4.26562 3.78711C4.00586 3.78711 3.80078 3.99219 3.80078 4.25195L3.80078 28.0684C3.80078 28.3145 4.00586 28.5332 4.26562 28.5332ZM7.05469 17.541C6.45312 17.541 5.96094 17.0488 5.96094 16.4473C5.96094 15.832 6.45312 15.3535 7.05469 15.3535C7.65625 15.3535 8.14844 15.832 8.14844 16.4473C8.14844 17.0488 7.65625 17.541 7.05469 17.541Z" fill="white" fill-opacity="0.85"/>
 </g>
</svg>
