<?xml version="1.0" encoding="UTF-8"?>
<!--Generator: Apple Native CoreSVG 326-->
<!DOCTYPE svg
PUBLIC "-//W3C//DTD SVG 1.1//EN"
       "http://www.w3.org/Graphics/SVG/1.1/DTD/svg11.dtd">
<svg version="1.1" xmlns="http://www.w3.org/2000/svg" xmlns:xlink="http://www.w3.org/1999/xlink" viewBox="0 0 33.7832 29.0254">
 <g>
  <rect height="29.0254" opacity="0" width="33.7832" x="0" y="0"/>
  <path d="M1.09375 29.0117C1.70898 29.0117 2.20117 28.5195 2.20117 27.918L2.20117 2.92578C2.20117 2.48828 2.48828 2.20117 2.89844 2.20117L30.5293 2.20117C30.9395 2.20117 31.2266 2.48828 31.2266 2.92578L31.2266 27.918C31.2266 28.5195 31.7188 29.0117 32.3203 29.0117C32.9355 29.0117 33.4277 28.5195 33.4277 27.918L33.4277 2.78906C33.4277 1.12109 32.2793 0 30.5566 0L2.85742 0C1.14844 0 0 1.12109 0 2.78906L0 27.918C0 28.5195 0.492188 29.0117 1.09375 29.0117Z" fill="white" fill-opacity="0.85"/>
  <path d="M4.26562 28.5332L29.1621 28.5332C29.4219 28.5332 29.627 28.3145 29.627 28.0684L29.627 4.25195C29.627 3.99219 29.4219 3.78711 29.1621 3.78711L4.26562 3.78711C4.00586 3.78711 3.80078 3.99219 3.80078 4.25195L3.80078 28.0684C3.80078 28.3145 4.00586 28.5332 4.26562 28.5332ZM14.041 26.2227C13.6445 26.2227 13.3848 25.9492 13.3848 25.5664C13.3848 25.1699 13.6445 24.8965 14.041 24.8965L19.3867 24.8965C19.7832 24.8965 20.043 25.1699 20.043 25.5664C20.043 25.9492 19.7832 26.2227 19.3867 26.2227ZM6.13867 11.3203C5.86523 11.3203 5.66016 11.1152 5.66016 10.8418L5.66016 6.00195C5.66016 5.72852 5.86523 5.50977 6.13867 5.50977L11.4297 5.50977C11.7031 5.50977 11.9082 5.72852 11.9082 6.00195L11.9082 10.8418C11.9082 11.1152 11.7031 11.3203 11.4297 11.3203ZM14.0957 11.3203C13.8223 11.3203 13.6172 11.1152 13.6172 10.8418L13.6172 6.00195C13.6172 5.72852 13.8223 5.50977 14.0957 5.50977L19.373 5.50977C19.6465 5.50977 19.8652 5.72852 19.8652 6.00195L19.8652 10.8418C19.8652 11.1152 19.6465 11.3203 19.373 11.3203ZM22.0391 11.3203C21.7656 11.3203 21.5469 11.1152 21.5469 10.8418L21.5469 6.00195C21.5469 5.72852 21.7656 5.50977 22.0391 5.50977L27.2891 5.50977C27.5625 5.50977 27.7676 5.72852 27.7676 6.00195L27.7676 10.8418C27.7676 11.1152 27.5625 11.3203 27.3984 11.3203Z" fill="white" fill-opacity="0.85"/>
 </g>
</svg>
