<?xml version="1.0" encoding="UTF-8"?>
<!--Generator: Apple Native CoreSVG 326-->
<!DOCTYPE svg
PUBLIC "-//W3C//DTD SVG 1.1//EN"
       "http://www.w3.org/Graphics/SVG/1.1/DTD/svg11.dtd">
<svg version="1.1" xmlns="http://www.w3.org/2000/svg" xmlns:xlink="http://www.w3.org/1999/xlink" viewBox="0 0 33.7832 29.0254">
 <g>
  <rect height="29.0254" opacity="0" width="33.7832" x="0" y="0"/>
  <path d="M1.09375 29.0117C1.70898 29.0117 2.20117 28.5195 2.20117 27.918L2.20117 2.92578C2.20117 2.48828 2.48828 2.20117 2.89844 2.20117L30.5293 2.20117C30.9395 2.20117 31.2266 2.48828 31.2266 2.92578L31.2266 27.918C31.2266 28.5195 31.7188 29.0117 32.3203 29.0117C32.9355 29.0117 33.4277 28.5195 33.4277 27.918L33.4277 2.78906C33.4277 1.12109 32.2793 0 30.5566 0L2.85742 0C1.14844 0 0 1.12109 0 2.78906L0 27.918C0 28.5195 0.492188 29.0117 1.09375 29.0117Z" fill="white" fill-opacity="0.85"/>
  <path d="M4.26562 9.59766L29.1621 9.59766C29.4219 9.59766 29.627 9.39258 29.627 9.14648L29.627 4.25195C29.627 3.99219 29.4219 3.78711 29.1621 3.78711L4.26562 3.78711C4.00586 3.78711 3.80078 3.99219 3.80078 4.25195L3.80078 9.14648C3.80078 9.39258 4.00586 9.59766 4.26562 9.59766ZM14.041 7.35547C13.6445 7.35547 13.3848 7.08203 13.3848 6.69922C13.3848 6.30273 13.6445 6.0293 14.041 6.0293L19.3867 6.0293C19.7832 6.0293 20.043 6.30273 20.043 6.69922C20.043 7.08203 19.7832 7.35547 19.3867 7.35547Z" fill="white" fill-opacity="0.85"/>
 </g>
</svg>
