<svg version="1.1" xmlns="http://www.w3.org/2000/svg" xmlns:xlink="http://www.w3.org/1999/xlink" viewBox="0 0 21.1914 29.0254">
 <g>
  
  <path d="M1.09375 29.0117C1.70898 29.0117 2.20117 28.5195 2.20117 27.918L2.20117 2.92578C2.20117 2.48828 2.48828 2.20117 2.89844 2.20117L17.9375 2.20117C18.3477 2.20117 18.6348 2.48828 18.6348 2.92578L18.6348 27.918C18.6348 28.5195 19.127 29.0117 19.7422 29.0117C20.3438 29.0117 20.8359 28.5195 20.8359 27.918L20.8359 2.78906C20.8359 1.12109 19.7012 0 17.9785 0L2.85742 0C1.14844 0 0 1.12109 0 2.78906L0 27.918C0 28.5195 0.492188 29.0117 1.09375 29.0117Z" style="fill:var(--color-0,hsl(0 0 0/0.85))"></path>
  <path d="M4.26562 28.5332L16.584 28.5332C16.8301 28.5332 17.0352 28.3145 17.0352 28.0684L17.0352 4.25195C17.0352 3.99219 16.8301 3.78711 16.584 3.78711L4.26562 3.78711C4.00586 3.78711 3.80078 3.99219 3.80078 4.25195L3.80078 28.0684C3.80078 28.3145 4.00586 28.5332 4.26562 28.5332ZM13.7812 17.541C13.1797 17.541 12.6875 17.0488 12.6875 16.4473C12.6875 15.832 13.1797 15.3535 13.7812 15.3535C14.3965 15.3535 14.875 15.832 14.875 16.4473C14.875 17.0488 14.3965 17.541 13.7812 17.541Z" style="fill:var(--color-1,hsl(0 0 0/0.85))"></path>
 </g>
</svg>