<?xml version="1.0" encoding="UTF-8"?>
<!--Generator: Apple Native CoreSVG 326-->
<!DOCTYPE svg
PUBLIC "-//W3C//DTD SVG 1.1//EN"
       "http://www.w3.org/Graphics/SVG/1.1/DTD/svg11.dtd">
<svg version="1.1" xmlns="http://www.w3.org/2000/svg" xmlns:xlink="http://www.w3.org/1999/xlink" viewBox="0 0 25.5254 25.1973">
 <g>
  <rect height="25.1973" opacity="0" width="25.5254" x="0" y="0"/>
  <path d="M25.1699 1.09375L25.1699 24.0898C25.1699 24.7461 24.7461 25.1699 24.0898 25.1699L1.09375 25.1699C0.4375 25.1699 0 24.7461 0 24.0898L0 1.09375C0 0.4375 0.4375 0 1.09375 0L24.0898 0C24.7461 0 25.1699 0.4375 25.1699 1.09375ZM2.59766 22.9688L11.4844 22.9688L11.4844 18.6362C11.8473 18.7086 12.2225 18.7441 12.6055 18.7441C12.9743 18.7441 13.3358 18.7109 13.6855 18.6418L13.6855 22.9688L22.5723 22.9688C22.873 22.9688 22.9688 22.873 22.9688 22.5723L22.9688 13.7129L18.6231 13.7129C18.6952 13.3503 18.7305 12.9751 18.7305 12.5918C18.7305 12.2228 18.6972 11.8613 18.6281 11.5117L22.9688 11.5117L22.9688 2.59766C22.9688 2.31055 22.873 2.20117 22.5723 2.20117L13.6855 2.20117L13.6855 6.58229C13.3358 6.51351 12.9743 6.48047 12.6055 6.48047C12.2225 6.48047 11.8473 6.51581 11.4844 6.58788L11.4844 2.20117L2.59766 2.20117C2.31055 2.20117 2.20117 2.31055 2.20117 2.59766L2.20117 11.5117L6.55601 11.5117C6.48653 11.8613 6.45312 12.2228 6.45312 12.5918C6.45312 12.9751 6.48859 13.3503 6.56101 13.7129L2.20117 13.7129L2.20117 22.5723C2.20117 22.873 2.31055 22.9688 2.59766 22.9688Z" fill="white" fill-opacity="0.85"/>
  <path d="M12.6055 16.8711C14.9297 16.8711 16.8574 14.957 16.8574 12.5918C16.8574 10.2676 14.9297 8.35352 12.6055 8.35352C10.2539 8.35352 8.32617 10.2676 8.32617 12.5918C8.32617 14.957 10.2539 16.8711 12.6055 16.8711Z" fill="white" fill-opacity="0.85"/>
 </g>
</svg>
