<?xml version="1.0" encoding="UTF-8"?>
<!--Generator: Apple Native CoreSVG 326-->
<!DOCTYPE svg
PUBLIC "-//W3C//DTD SVG 1.1//EN"
       "http://www.w3.org/Graphics/SVG/1.1/DTD/svg11.dtd">
<svg version="1.1" xmlns="http://www.w3.org/2000/svg" xmlns:xlink="http://www.w3.org/1999/xlink" viewBox="0 0 32.9492 28.5059">
 <g>
  <rect height="28.5059" opacity="0" width="32.9492" x="0" y="0"/>
  <path d="M3.14453 23.6523L29.4355 23.6523C31.4043 23.6523 32.5938 22.4629 32.5938 20.4941L32.5938 4.10156C32.5938 2.13281 31.4043 0.957031 29.4355 0.957031L3.14453 0.957031C1.18945 0.957031 0 2.13281 0 4.10156L0 20.4941C0 22.4629 1.18945 23.6523 3.14453 23.6523ZM3.18555 21.4512C2.58398 21.4512 2.20117 21.0684 2.20117 20.4668L2.20117 4.14258C2.20117 3.52734 2.58398 3.1582 3.18555 3.1582L29.4082 3.1582C30.0098 3.1582 30.3926 3.52734 30.3926 4.14258L30.3926 20.4668C30.3926 21.0684 30.0098 21.4512 29.4082 21.4512ZM11.9766 26.9062L20.6172 26.9062L20.6172 23.4746L11.9766 23.4746ZM11.8945 28.5059L20.6992 28.5059C21.3008 28.5059 21.793 28.0137 21.793 27.3984C21.793 26.7832 21.3008 26.291 20.6992 26.291L11.8945 26.291C11.293 26.291 10.7871 26.7832 10.7871 27.3984C10.7871 28.0137 11.293 28.5059 11.8945 28.5059Z" fill="white" fill-opacity="0.85"/>
  <path d="M16.2969 17.8828C19.3867 17.8828 21.8887 15.3809 21.8887 12.3047C21.8887 9.21484 19.3867 6.69922 16.2969 6.69922C13.2207 6.69922 10.7051 9.21484 10.7051 12.3047C10.7051 15.3809 13.2207 17.8828 16.2969 17.8828ZM16.2969 16.625C13.8906 16.625 12.0176 14.7383 12.0176 12.3047C12.0176 9.85742 13.8906 7.95703 16.2969 7.95703C18.7031 7.95703 20.5898 9.85742 20.5898 12.3047C20.5898 14.7383 18.7168 16.625 16.2969 16.625ZM16.2969 5.27734C15.9688 5.27734 15.709 5.55078 15.709 5.86523L15.709 9.20117C15.709 9.54297 15.9688 9.78906 16.2969 9.78906C16.625 9.78906 16.8711 9.5293 16.8711 9.20117L16.8711 5.86523C16.8711 5.55078 16.6387 5.27734 16.2969 5.27734ZM19.3867 12.8789L22.7227 12.8789C23.0371 12.8789 23.3105 12.6191 23.3105 12.3047C23.3105 11.9629 23.0371 11.7168 22.7227 11.7168L19.3867 11.7168C19.0723 11.7168 18.7988 11.9492 18.7988 12.3047C18.7988 12.6191 19.0723 12.8789 19.3867 12.8789ZM16.2969 19.3047C16.625 19.3047 16.8848 19.0449 16.8848 18.7031L16.8848 15.3809C16.8848 15.0527 16.6387 14.793 16.2969 14.793C15.9824 14.793 15.7227 15.0527 15.7227 15.3809L15.7227 18.7031C15.7227 19.0586 15.9824 19.3047 16.2969 19.3047ZM9.88477 12.8789L13.2207 12.8789C13.5352 12.8789 13.7949 12.6191 13.7949 12.3047C13.7949 11.9492 13.5352 11.7168 13.2207 11.7168L9.88477 11.7168C9.55664 11.7168 9.29688 11.9629 9.29688 12.3047C9.29688 12.6191 9.54297 12.8789 9.88477 12.8789ZM16.3105 13.207C16.8164 13.207 17.2129 12.7969 17.2129 12.291C17.2129 11.7852 16.8164 11.375 16.3105 11.375C15.791 11.375 15.3809 11.7852 15.3809 12.291C15.3809 12.7969 15.791 13.207 16.3105 13.207Z" fill="white" fill-opacity="0.85"/>
 </g>
</svg>
