<svg version="1.1" xmlns="http://www.w3.org/2000/svg" xmlns:xlink="http://www.w3.org/1999/xlink" viewBox="0 0 28.2461 27.9043">
 <g>
  
  <path d="M13.9453 27.8906C21.6426 27.8906 27.8906 21.6426 27.8906 13.9453C27.8906 6.24805 21.6426 0 13.9453 0C6.24805 0 0 6.24805 0 13.9453C0 21.6426 6.24805 27.8906 13.9453 27.8906ZM13.9453 25.5664C7.51953 25.5664 2.32422 20.3711 2.32422 13.9453C2.32422 7.51953 7.51953 2.32422 13.9453 2.32422C20.3711 2.32422 25.5664 7.51953 25.5664 13.9453C25.5664 20.3711 20.3711 25.5664 13.9453 25.5664Z" style="fill:var(--color-0,hsl(0 0 0/0.85))"></path>
  <path d="M13.9316 19.0859C16.7617 19.0859 19.0859 16.748 19.0859 13.9453C19.0859 11.1289 16.7617 8.80469 13.9316 8.80469C11.1426 8.80469 8.80469 11.1289 8.80469 13.9453C8.80469 16.748 11.1426 19.0859 13.9316 19.0859ZM16.3789 6.24805L14.4922 3.88281C14.2188 3.52734 13.7266 3.52734 13.4258 3.88281L11.5254 6.24805C11.0879 6.78125 11.3477 7.46484 12.0586 7.46484L15.8457 7.46484C16.543 7.46484 16.8027 6.75391 16.3789 6.24805ZM21.6562 16.3789L24.0215 14.4922C24.377 14.2188 24.377 13.7129 24.0215 13.4258L21.6562 11.5254C21.123 11.0879 20.4395 11.334 20.4395 12.0586L20.4395 15.832C20.4395 16.5293 21.1504 16.7891 21.6562 16.3789ZM16.3789 21.6562C16.8027 21.1504 16.543 20.4395 15.8457 20.4395L12.0586 20.4395C11.3477 20.4395 11.0879 21.123 11.5254 21.6562L13.4258 24.0215C13.7266 24.377 14.2188 24.377 14.4922 24.0215ZM6.24805 16.3789C6.76758 16.7891 7.46484 16.5293 7.46484 15.832L7.46484 12.0586C7.46484 11.334 6.79492 11.0879 6.24805 11.5254L3.88281 13.4258C3.52734 13.7129 3.52734 14.2188 3.88281 14.4922Z" style="fill:var(--color-1,hsl(0 0 0/0.85))"></path>
 </g>
</svg>