<svg version="1.1" xmlns="http://www.w3.org/2000/svg" xmlns:xlink="http://www.w3.org/1999/xlink" viewBox="0 0 22.627 26.8038">
 <g>
  
  <path d="M15.4629 26.4381C15.8867 26.9029 16.625 26.9576 17.1445 26.4107C20.3984 23.0064 22.2715 18.44 22.2715 13.4498C22.2715 8.45954 20.4258 3.85212 17.1445 0.475167C16.625-0.0717081 15.8867-0.0170206 15.4629 0.447823C15.0391 0.926339 15.1348 1.59626 15.627 2.11579C18.4844 5.05525 20.043 9.0611 20.043 13.4498C20.043 17.8384 18.457 21.8033 15.627 24.7701C15.1348 25.2896 15.0391 25.9732 15.4629 26.4381Z" style="fill:var(--color-0,hsl(0 0 0/0.85))"></path>
  <path d="M11.5117 22.8013C11.9492 23.3072 12.7148 23.3072 13.248 22.733C15.5176 20.272 16.7891 16.9908 16.7891 13.4498C16.7891 9.90876 15.5312 6.61384 13.248 4.16657C12.7148 3.57868 11.9492 3.57868 11.5117 4.09821C11.0742 4.5904 11.2109 5.23298 11.7031 5.79353C13.5488 7.81696 14.5605 10.4967 14.5605 13.4498C14.5605 16.3892 13.5352 19.0689 11.7031 21.106C11.2109 21.6666 11.0742 22.2955 11.5117 22.8013Z" style="fill:var(--color-1,hsl(0 0 0/0.85))"></path>
  <path d="M7.68359 18.9049C8.13477 19.4107 8.95508 19.4244 9.43359 18.8092C10.623 17.3326 11.3203 15.4595 11.3203 13.4498C11.3203 11.44 10.623 9.55329 9.43359 8.0904C8.95508 7.4615 8.13477 7.47517 7.68359 7.9947C7.24609 8.48689 7.4375 9.08845 7.86133 9.69001C8.66797 10.7154 9.0918 12.0279 9.0918 13.4498C9.0918 14.8717 8.68164 16.1842 7.86133 17.2095C7.42383 17.7974 7.24609 18.4127 7.68359 18.9049Z" style="fill:var(--color-2,hsl(0 0 0/0.85))"></path>
  <path d="M0 13.4224C0 14.7486 1.14844 15.8697 2.50195 15.8697C3.85547 15.8697 4.97656 14.7486 4.97656 13.3951C4.97656 12.0279 3.88281 10.9068 2.50195 10.9068C1.13477 10.9068 0 12.0552 0 13.4224Z" style="fill:var(--color-3,hsl(0 0 0/0.85))"></path>
 </g>
</svg>