<svg version="1.1" xmlns="http://www.w3.org/2000/svg" xmlns:xlink="http://www.w3.org/1999/xlink" viewBox="0 0 30.2422 29.9004">
 <g>
  
  <path d="M20.3301 23.5703C20.3301 22.0938 20.1523 21.6152 19.209 20.6719L16.5566 18.0059C15.5996 17.0625 14.2871 17.0625 13.3301 18.0059L10.6777 20.6719C9.73438 21.6152 9.57031 22.0938 9.57031 23.5703L9.57031 27.0156C9.57031 28.7656 10.582 29.873 12.1406 29.873L17.7598 29.873C19.3184 29.873 20.3301 28.7656 20.3301 27.0156Z" style="fill:var(--color-0,hsl(0 0 0/0.85))"></path>
  <path d="M23.584 9.57031C22.0938 9.57031 21.6152 9.73438 20.6719 10.6777L18.0195 13.3301C17.0625 14.2871 17.0625 15.5996 18.0195 16.5566L20.6719 19.209C21.6152 20.1523 22.0938 20.3301 23.584 20.3301L27.0156 20.3301C28.7656 20.3301 29.8867 19.3184 29.8867 17.7598L29.8867 12.127C29.8867 10.582 28.7656 9.57031 27.0156 9.57031ZM23.584 11.5254L26.9609 11.5254C27.5898 11.5254 27.9453 11.8809 27.9453 12.5098L27.9453 17.377C27.9453 18.0059 27.5898 18.375 26.9609 18.375L23.584 18.375C22.873 18.375 22.5176 18.2793 22.0527 17.8145L19.4824 15.2578C19.2773 15.0391 19.291 14.834 19.4961 14.6289L22.0527 12.0723C22.5176 11.6074 22.873 11.5254 23.584 11.5254Z" style="fill:var(--color-1,hsl(0 0 0/0.85))"></path>
  <path d="M6.30273 20.3164C7.79297 20.3164 8.27148 20.1523 9.21484 19.209L11.8672 16.5566C12.8242 15.5996 12.8242 14.2871 11.8672 13.3301L9.21484 10.6777C8.27148 9.73438 7.79297 9.55664 6.30273 9.55664L2.87109 9.55664C1.12109 9.55664 0 10.5684 0 12.127L0 17.7598C0 19.3047 1.12109 20.3164 2.87109 20.3164ZM6.30273 18.3613L2.92578 18.3613C2.29688 18.3613 1.94141 18.0059 1.94141 17.377L1.94141 12.5098C1.94141 11.8809 2.29688 11.5117 2.92578 11.5117L6.30273 11.5117C7.01367 11.5117 7.36914 11.6074 7.83398 12.0723L10.4043 14.6289C10.6094 14.8477 10.5957 15.0527 10.3906 15.2578L7.83398 17.8145C7.36914 18.2793 7.01367 18.3613 6.30273 18.3613Z" style="fill:var(--color-2,hsl(0 0 0/0.85))"></path>
  <path d="M9.57031 6.31641C9.57031 7.79297 9.74805 8.27148 10.6914 9.21484L13.3438 11.8672C14.3008 12.8242 15.6133 12.8242 16.5703 11.8672L19.2227 9.21484C20.166 8.27148 20.3301 7.79297 20.3301 6.31641L20.3301 2.87109C20.3301 1.12109 19.3184 0 17.7598 0L12.1406 0C10.582 0 9.57031 1.12109 9.57031 2.87109ZM11.5254 6.31641L11.5254 2.92578C11.5254 2.31055 11.8945 1.94141 12.5234 1.94141L17.3906 1.94141C18.0195 1.94141 18.375 2.31055 18.375 2.92578L18.375 6.31641C18.375 7.01367 18.293 7.36914 17.8281 7.83398L15.2578 10.4043C15.0527 10.6094 14.8477 10.6094 14.6426 10.4043L12.0859 7.83398C11.6211 7.36914 11.5254 7.01367 11.5254 6.31641Z" style="fill:var(--color-3,hsl(0 0 0/0.85))"></path>
 </g>
</svg>