<svg version="1.1" xmlns="http://www.w3.org/2000/svg" xmlns:xlink="http://www.w3.org/1999/xlink" viewBox="0 0 49.6699 31.7871">
 <g>
  
  <path d="M18.5254 21.9844L30.7207 21.9844C34.2891 21.9844 35.041 19.1543 33.8516 16.7891L30.3242 9.84375C29.5996 8.4082 28.6836 7.62891 26.6465 7.62891L22.6406 7.62891C20.6035 7.62891 19.7012 8.4082 18.9629 9.84375L15.3945 16.7891C14.1914 19.1406 14.9434 21.9844 18.5254 21.9844ZM9.40625 25.9629L17.5957 23.0645L17.3223 21.2734L9.07812 24.1855C6.58984 25.0605 5.1543 24.0762 5.1543 22.1621L5.1543 19.5098C5.1543 19.2637 5.22266 19.209 5.48242 19.209L6.2207 19.209C6.50781 19.209 6.5625 19.2637 6.5625 19.5098L6.5625 21.7383C6.5625 22.8594 7.24609 23.2422 8.44922 22.8047L16.1055 20.043L16.4883 18.0605L8.76367 20.8906C8.47656 21 8.35352 20.7676 8.35352 20.4805L8.35352 19.1406C8.35352 18.1836 7.82031 17.6367 6.86328 17.6367L4.82617 17.6367C3.89648 17.6367 3.34961 18.1836 3.34961 19.1406L3.34961 22.3125C3.34961 24.9102 5.48242 27.3574 9.40625 25.9629ZM22.4629 31.7871L26.7559 31.7871C27.6309 31.7871 28.1777 31.1172 28.1777 30.2422L28.1777 26.9746L21.041 26.9746L21.041 30.2422C21.041 31.1172 21.5879 31.7871 22.4629 31.7871ZM24.6094 30.4336C23.9668 30.4336 23.4473 29.9414 23.4473 29.2852C23.4473 28.6289 23.9668 28.1367 24.6094 28.1367C25.252 28.1367 25.7715 28.6426 25.7715 29.2852C25.7715 29.9414 25.2383 30.4336 24.6094 30.4336ZM21.1914 27.877L28.0273 27.877C28.9844 27.877 29.8047 27.5352 30.2695 26.7559L34.043 20.2891L31.0215 21.3418L28.6289 25.4023C28.4238 25.7441 28.1504 25.8809 27.6445 25.8809L21.5742 25.8809C21.0684 25.8809 20.7949 25.7441 20.5898 25.4023L18.1562 21.2598L15.1484 20.2207L18.9492 26.7559C19.4141 27.5352 20.2344 27.877 21.1914 27.877ZM17.2676 15.1211L17.9648 13.4395L14 11.3066C12.7012 10.6094 12.3867 10.1855 12.3867 8.64062L12.3867 6.78125C12.3867 6.53516 12.4551 6.48047 12.7148 6.48047L13.4668 6.48047C13.7402 6.48047 13.8086 6.53516 13.8086 6.78125L13.8086 8.49023C13.8086 9.50195 14.082 9.78906 14.7383 10.1172L18.5664 12.1133L19.4824 10.5L15.9551 8.61328C15.6953 8.47656 15.5996 8.29883 15.5996 8.12109L15.5996 6.41211C15.5996 5.45508 15.0664 4.9082 14.0957 4.9082L12.0586 4.9082C11.1289 4.9082 10.582 5.45508 10.582 6.41211L10.582 8.92773C10.582 11.1699 11.1289 11.8945 13.3164 13.043ZM18.8672 19.9746C17.1582 19.9746 16.7344 18.7715 17.4727 17.2949L20.7539 10.8281C21.2051 9.95312 21.6289 9.66602 22.6543 9.66602L26.6328 9.66602C27.6582 9.66602 28.082 9.95312 28.5332 10.8281L31.7871 17.2949C32.5391 18.7715 32.1152 19.9746 30.4062 19.9746ZM18.1016 3.69141C18.6074 3.69141 18.9355 3.26758 18.9355 2.81641C18.9355 2.36523 18.6074 1.92773 18.1016 1.92773L8.05273 1.92773C7.56055 1.92773 7.21875 2.36523 7.21875 2.81641C7.21875 3.26758 7.56055 3.69141 8.05273 3.69141ZM39.8809 25.9629C43.8047 27.3574 45.9375 24.9102 45.9375 22.3125L45.9375 19.1406C45.9375 18.1836 45.3906 17.6367 44.4609 17.6367L42.4238 17.6367C41.4668 17.6367 40.9336 18.1836 40.9336 19.1406L40.9336 20.4805C40.9336 20.7676 40.8105 21 40.5234 20.8906L32.7988 18.0605L33.1816 20.043L40.8379 22.8047C42.041 23.2422 42.7246 22.8594 42.7246 21.7383L42.7246 19.5098C42.7246 19.2637 42.7793 19.209 43.0664 19.209L43.8047 19.209C44.0645 19.209 44.1328 19.2637 44.1328 19.5098L44.1328 22.1621C44.1328 24.0762 42.6973 25.0605 40.2227 24.1855L31.9648 21.2734L31.6914 23.0645ZM32.0195 15.1211L35.9707 13.043C38.1582 11.8945 38.7051 11.1699 38.7051 8.92773L38.7051 6.41211C38.7051 5.45508 38.1582 4.9082 37.2285 4.9082L35.1914 4.9082C34.2207 4.9082 33.6875 5.45508 33.6875 6.41211L33.6875 8.12109C33.6875 8.29883 33.5918 8.47656 33.332 8.61328L29.8047 10.5L30.7207 12.1133L34.5488 10.1172C35.2051 9.78906 35.4785 9.50195 35.4785 8.49023L35.4785 6.78125C35.4785 6.53516 35.5469 6.48047 35.8203 6.48047L36.5723 6.48047C36.832 6.48047 36.9004 6.53516 36.9004 6.78125L36.9004 8.64062C36.9004 10.1855 36.5859 10.6094 35.2871 11.3066L31.3223 13.4395ZM31.1309 3.69141L41.1797 3.69141C41.6719 3.69141 42.0137 3.26758 42.0137 2.81641C42.0137 2.36523 41.6719 1.92773 41.1797 1.92773L31.1309 1.92773C30.625 1.92773 30.2969 2.36523 30.2969 2.81641C30.2969 3.26758 30.625 3.69141 31.1309 3.69141ZM10.8828 16.4336C11.3887 16.4336 11.7168 15.9961 11.7168 15.5449C11.7168 15.0938 11.3887 14.6562 10.8828 14.6562L0.833984 14.6562C0.341797 14.6562 0 15.0938 0 15.5449C0 15.9961 0.341797 16.4336 0.833984 16.4336ZM38.4316 16.4336L48.4805 16.4336C48.9727 16.4336 49.3145 15.9961 49.3145 15.5449C49.3145 15.0938 48.9727 14.6562 48.4805 14.6562L38.4316 14.6562C37.9258 14.6562 37.5977 15.0938 37.5977 15.5449C37.5977 15.9961 37.9258 16.4336 38.4316 16.4336ZM35.0547 5.52344L37.3652 5.52344L37.3652 1.91406C37.3652 1.27148 36.8594 0.738281 36.1895 0.738281C35.5605 0.738281 35.0547 1.27148 35.0547 1.91406ZM14.2324 5.52344L14.2324 1.91406C14.2324 1.27148 13.7266 0.738281 13.0703 0.738281C12.4277 0.738281 11.9219 1.27148 11.9219 1.91406L11.9219 5.52344ZM42.2871 18.1152L44.5977 18.1152L44.5977 14.5059C44.5977 13.877 44.0918 13.3301 43.4219 13.3301C42.793 13.3301 42.2871 13.877 42.2871 14.5059ZM7 18.1152L7 14.5059C7 13.877 6.49414 13.3301 5.83789 13.3301C5.19531 13.3301 4.68945 13.877 4.68945 14.5059L4.68945 18.1152Z" style="fill:var(--color-0,hsl(0 0 0/0.85))"></path>
 </g>
</svg>