<svg version="1.1" xmlns="http://www.w3.org/2000/svg" xmlns:xlink="http://www.w3.org/1999/xlink" viewBox="0 0 28.2461 27.9043">
 <g>
  
  <path d="M13.9453 27.8906C21.6426 27.8906 27.8906 21.6426 27.8906 13.9453C27.8906 6.24805 21.6426 0 13.9453 0C6.24805 0 0 6.24805 0 13.9453C0 21.6426 6.24805 27.8906 13.9453 27.8906ZM13.9453 25.5664C7.51953 25.5664 2.32422 20.3711 2.32422 13.9453C2.32422 7.51953 7.51953 2.32422 13.9453 2.32422C20.3711 2.32422 25.5664 7.51953 25.5664 13.9453C25.5664 20.3711 20.3711 25.5664 13.9453 25.5664Z" style="fill:var(--color-0,hsl(0 0 0/0.85))"></path>
  <path d="M13.9316 20.6445C16.7344 20.6445 18.6348 18.8262 18.6348 16.1055C18.6348 14.752 18.0605 13.5488 17.6504 12.6191C16.9121 11.0195 15.6953 9.00977 14.6289 7.39648C14.4375 7.08203 14.2051 6.94531 13.9316 6.94531C13.6582 6.94531 13.4395 7.08203 13.2344 7.39648C12.168 9.00977 10.9648 11.0195 10.2129 12.6191C9.80273 13.5488 9.22852 14.752 9.22852 16.1055C9.22852 18.8262 11.1289 20.6445 13.9316 20.6445Z" style="fill:var(--color-1,hsl(0 0 0/0.85))"></path>
 </g>
</svg>