<?xml version="1.0" encoding="UTF-8"?>
<!--Generator: Apple Native CoreSVG 326-->
<!DOCTYPE svg
PUBLIC "-//W3C//DTD SVG 1.1//EN"
       "http://www.w3.org/Graphics/SVG/1.1/DTD/svg11.dtd">
<svg version="1.1" xmlns="http://www.w3.org/2000/svg" xmlns:xlink="http://www.w3.org/1999/xlink" viewBox="0 0 30.4062 22.1895">
 <g>
  <rect height="22.1895" opacity="0" width="30.4062" x="0" y="0"/>
  <path d="M30.0508 4.26562L30.0508 17.9512C30.0508 20.7676 28.6289 22.1895 25.7715 22.1895L4.29297 22.1895C1.43555 22.1895 0 20.7676 0 17.9512L0 4.26562C0 1.44922 1.43555 0.0273438 4.29297 0.0273438L25.7715 0.0273438C28.6289 0.0273438 30.0508 1.44922 30.0508 4.26562ZM16.8848 15.4492C16.8848 16.3516 17.623 17.1035 18.5391 17.1035C19.4414 17.1035 20.1934 16.3516 20.1934 15.4492C20.1934 14.5469 19.4414 13.7949 18.5391 13.7949C17.623 13.7949 16.8848 14.5469 16.8848 15.4492ZM21.7383 15.4492C21.7383 16.3516 22.4902 17.1035 23.3926 17.1035C24.2949 17.1035 25.0469 16.3516 25.0469 15.4492C25.0469 14.5469 24.2949 13.7949 23.3926 13.7949C22.4902 13.7949 21.7383 14.5469 21.7383 15.4492ZM9.41992 5.6875C8.54492 7.05469 7.50586 8.73633 6.87695 10.1035C6.52148 10.8555 6.04297 11.8809 6.04297 13.0156C6.04297 15.3125 7.64258 16.8574 10.0078 16.8574C12.373 16.8574 13.9727 15.3125 13.9727 13.0156C13.9727 11.8809 13.4941 10.8555 13.1387 10.1035C12.5234 8.73633 11.4844 7.05469 10.5957 5.6875C10.4316 5.42773 10.2539 5.30469 10.0078 5.30469C9.76172 5.30469 9.58398 5.42773 9.41992 5.6875ZM16.8848 11.0879C16.8848 11.9902 17.623 12.7422 18.5391 12.7422C19.4414 12.7422 20.1934 11.9902 20.1934 11.0879C20.1934 10.1855 19.4414 9.43359 18.5391 9.43359C17.623 9.43359 16.8848 10.1855 16.8848 11.0879ZM21.7383 11.0879C21.7383 11.9902 22.4902 12.7422 23.3926 12.7422C24.2949 12.7422 25.0469 11.9902 25.0469 11.0879C25.0469 10.1855 24.2949 9.43359 23.3926 9.43359C22.4902 9.43359 21.7383 10.1855 21.7383 11.0879ZM16.8848 6.72656C16.8848 7.62891 17.623 8.38086 18.5391 8.38086C19.4414 8.38086 20.1934 7.62891 20.1934 6.72656C20.1934 5.82422 19.4414 5.07227 18.5391 5.07227C17.623 5.07227 16.8848 5.82422 16.8848 6.72656ZM21.7383 6.72656C21.7383 7.62891 22.4902 8.38086 23.3926 8.38086C24.2949 8.38086 25.0469 7.62891 25.0469 6.72656C25.0469 5.82422 24.2949 5.07227 23.3926 5.07227C22.4902 5.07227 21.7383 5.82422 21.7383 6.72656Z" fill="white" fill-opacity="0.85"/>
 </g>
</svg>
