<svg version="1.1" xmlns="http://www.w3.org/2000/svg" xmlns:xlink="http://www.w3.org/1999/xlink" viewBox="0 0 29.0117 26.127">
 <g>
  
  <path d="M3.73242 25.9766L24.9238 25.9766C27.248 25.9766 28.6562 24.3633 28.6562 22.2715C28.6562 21.6289 28.4648 20.959 28.123 20.3574L17.5137 1.87305C16.8027 0.628906 15.5859 0 14.3281 0C13.0703 0 11.8398 0.628906 11.1426 1.87305L0.533203 20.3574C0.164062 20.9727 0 21.6289 0 22.2715C0 24.3633 1.4082 25.9766 3.73242 25.9766ZM3.74609 23.8301C2.78906 23.8301 2.21484 23.0918 2.21484 22.2578C2.21484 21.998 2.26953 21.6699 2.41992 21.3828L13.0156 2.91211C13.3027 2.40625 13.8223 2.1875 14.3281 2.1875C14.834 2.1875 15.3398 2.40625 15.627 2.91211L26.2227 21.3965C26.373 21.6836 26.4414 21.998 26.4414 22.2578C26.4414 23.0918 25.8398 23.8301 24.8965 23.8301Z" style="fill:var(--color-0,hsl(0 0 0/0.85))"></path>
  <path d="M14.3418 20.6992C16.6387 20.6992 18.1699 19.209 18.1699 16.9805C18.1699 15.873 17.7188 14.8887 17.377 14.1504C16.7617 12.8242 15.7637 11.1973 14.916 9.87109C14.7383 9.625 14.5605 9.50195 14.3418 9.50195C14.1094 9.50195 13.9316 9.625 13.7676 9.87109C12.9062 11.1973 11.9082 12.8242 11.293 14.1504C10.9512 14.8887 10.5 15.873 10.5 16.9805C10.5 19.209 12.0312 20.6992 14.3418 20.6992Z" style="fill:var(--color-1,hsl(0 0 0/0.85))"></path>
 </g>
</svg>