<?xml version="1.0" encoding="UTF-8"?>
<!--Generator: Apple Native CoreSVG 326-->
<!DOCTYPE svg
PUBLIC "-//W3C//DTD SVG 1.1//EN"
       "http://www.w3.org/Graphics/SVG/1.1/DTD/svg11.dtd">
<svg version="1.1" xmlns="http://www.w3.org/2000/svg" xmlns:xlink="http://www.w3.org/1999/xlink" viewBox="0 0 19.3047 27.7129">
 <g>
  <rect height="27.7129" opacity="0" width="19.3047" x="0" y="0"/>
  <path d="M9.47461 27.6855C15.1621 27.6855 18.9492 23.9805 18.9492 18.4297C18.9492 15.6953 17.8828 12.9746 17.0762 11.1562C15.6133 7.86133 13.3164 4.23828 11.3203 1.14844C10.8418 0.423828 10.2812 0 9.47461 0C8.66797 0 8.10742 0.423828 7.62891 1.14844C5.63281 4.23828 3.33594 7.86133 1.87305 11.1562C1.08008 12.9746 0 15.6953 0 18.4297C0 23.9805 3.78711 27.6855 9.47461 27.6855ZM9.47461 25.4434C5.12695 25.4434 2.24219 22.6406 2.24219 18.4297C2.24219 16.1875 3.10352 14.0137 3.86914 12.2363C5.40039 8.64062 7.42383 5.6875 9.33789 2.80273C9.43359 2.66602 9.54297 2.66602 9.625 2.80273C11.5254 5.6875 13.5625 8.64062 15.0664 12.2227C15.8457 14.0137 16.7207 16.1875 16.7207 18.4297C16.7207 22.6406 13.8223 25.4434 9.47461 25.4434Z" fill="white" fill-opacity="0.85"/>
 </g>
</svg>
