<?xml version="1.0" encoding="UTF-8"?>
<!--Generator: Apple Native CoreSVG 326-->
<!DOCTYPE svg
PUBLIC "-//W3C//DTD SVG 1.1//EN"
       "http://www.w3.org/Graphics/SVG/1.1/DTD/svg11.dtd">
<svg version="1.1" xmlns="http://www.w3.org/2000/svg" xmlns:xlink="http://www.w3.org/1999/xlink" viewBox="0 0 28.2461 27.9043">
 <g>
  <rect height="27.9043" opacity="0" width="28.2461" x="0" y="0"/>
  <path d="M13.9453 27.9043C21.6426 27.9043 27.8906 21.6562 27.8906 13.959C27.8906 6.27539 21.6426 0.0136719 13.9453 0.0136719C6.26172 0.0136719 0 6.27539 0 13.959C0 21.6562 6.26172 27.9043 13.9453 27.9043Z" fill="white" fill-opacity="0.85"/>
  <path d="M18.5664 6.2207C19.5918 6.2207 20.2617 6.91797 20.2617 7.9707L20.2617 9.95312L7.51953 9.95312L7.51953 7.9707C7.51953 6.91797 8.18945 6.2207 9.21484 6.2207ZM10.1719 9.07812C10.541 9.07812 10.8281 8.77734 10.8281 8.42188C10.8281 8.03906 10.541 7.72461 10.1719 7.72461C9.80273 7.72461 9.50195 8.03906 9.50195 8.42188C9.50195 8.77734 9.80273 9.07812 10.1719 9.07812ZM12.1133 9.07812C12.4824 9.07812 12.7832 8.77734 12.7832 8.42188C12.7832 8.03906 12.4824 7.72461 12.1133 7.72461C11.7305 7.72461 11.457 8.03906 11.457 8.42188C11.457 8.77734 11.7305 9.07812 12.1133 9.07812ZM16.2148 8.81836L18.0332 8.81836C18.2793 8.81836 18.4434 8.6543 18.4434 8.42188C18.4434 8.16211 18.2793 7.99805 18.0332 7.99805L16.2148 7.99805C15.9824 7.99805 15.8047 8.16211 15.8047 8.42188C15.8047 8.6543 15.9824 8.81836 16.2148 8.81836ZM9.21484 21.6562C8.18945 21.6562 7.51953 20.9453 7.51953 19.8926L7.51953 10.9648L20.2617 10.9648L20.2617 19.8926C20.2617 20.9453 19.5918 21.6562 18.5664 21.6562ZM11.0332 19.5098L16.748 19.5098C17.3633 19.5098 17.7734 19.0996 17.7734 18.498L17.7734 13.4941C17.7734 12.8926 17.3633 12.4688 16.748 12.4688L11.0332 12.4688C10.418 12.4688 10.0078 12.8926 10.0078 13.4941L10.0078 18.498C10.0078 19.0996 10.418 19.5098 11.0332 19.5098ZM11.1562 18.6484C10.9785 18.6484 10.8828 18.5391 10.8828 18.375L10.8828 13.6172C10.8828 13.4531 10.9785 13.3438 11.1562 13.3438L16.625 13.3438C16.8027 13.3438 16.8984 13.4531 16.8984 13.6172L16.8984 18.375C16.8984 18.5391 16.8027 18.6484 16.625 18.6484Z" fill="white"/>
 </g>
</svg>
