<?xml version="1.0" encoding="UTF-8"?>
<!--Generator: Apple Native CoreSVG 326-->
<!DOCTYPE svg
PUBLIC "-//W3C//DTD SVG 1.1//EN"
       "http://www.w3.org/Graphics/SVG/1.1/DTD/svg11.dtd">
<svg version="1.1" xmlns="http://www.w3.org/2000/svg" xmlns:xlink="http://www.w3.org/1999/xlink" viewBox="0 0 30.4199 34.6174">
 <g>
  <rect height="34.6174" opacity="0" width="30.4199" x="0" y="0"/>
  <path d="M26.8926 18.941C25.9383 18.6227 24.8289 18.8819 24.1007 19.7007C23.9306 19.5111 23.7294 19.347 23.502 19.2159C23.0948 18.9585 22.6299 18.8277 22.1621 18.8249L22.1621 16.5909C22.1621 15.4972 21.4102 14.7589 20.3301 14.7589L9.73438 14.7589C8.6543 14.7589 7.91602 15.4972 7.91602 16.5909L7.91602 25.8194C7.91602 26.9132 8.6543 27.6515 9.73438 27.6515L16.1528 27.6515C16.7226 28.6674 17.2949 29.3644 17.2949 30.0441C17.2949 30.2765 17.2129 30.4679 17.0762 30.7277C16.9009 31.0286 16.796 31.3431 16.7538 31.6573L6.34375 31.6573C4.44336 31.6573 3.17188 30.3585 3.17188 28.3898L3.17188 11.6964L26.8926 11.6964ZM20.6309 16.837L20.6309 19.2908C20.4598 19.4055 20.3006 19.5445 20.1565 19.7058C19.9913 19.5212 19.7971 19.36 19.5781 19.2296C18.3887 18.464 16.707 18.7784 15.9004 20.1593C15.3125 21.13 15.0254 22.3194 15.0254 23.3995C15.0254 24.4891 15.2054 25.3846 15.4669 26.1339L9.98047 26.1339C9.65234 26.1339 9.43359 25.9152 9.43359 25.5734L9.43359 16.837C9.43359 16.4952 9.65234 16.2765 9.98047 16.2765L20.084 16.2765C20.4121 16.2765 20.6309 16.4952 20.6309 16.837ZM26.8926 6.21398L26.8926 9.83703L3.17188 9.83703L3.17188 6.21398C3.17188 4.24523 4.44336 2.9464 6.34375 2.9464L23.7344 2.9464C25.6211 2.9464 26.8926 4.24523 26.8926 6.21398ZM6.87695 7.17101C6.87695 7.84093 7.4375 8.41515 8.12109 8.41515C8.80469 8.41515 9.35156 7.84093 9.35156 7.17101C9.35156 6.47375 8.80469 5.92687 8.12109 5.92687C7.4375 5.92687 6.87695 6.47375 6.87695 7.17101ZM10.4863 7.17101C10.4863 7.84093 11.0332 8.41515 11.7168 8.41515C12.4004 8.41515 12.9473 7.84093 12.9473 7.17101C12.9473 6.47375 12.4004 5.92687 11.7168 5.92687C11.0332 5.92687 10.4863 6.47375 10.4863 7.17101ZM19.0859 6.4464C18.6621 6.4464 18.3887 6.74718 18.3887 7.17101C18.3887 7.59484 18.6621 7.88195 19.0859 7.88195L22.4492 7.88195C22.8867 7.88195 23.1602 7.59484 23.1602 7.17101C23.1602 6.74718 22.8867 6.4464 22.4492 6.4464Z" fill="white" fill-opacity="0.85"/>
  <path d="M18.7988 32.7784C19.1953 33.0519 19.8516 33.0382 20.2207 32.4366C20.6172 31.712 20.8496 30.8644 20.8496 30.0441C20.8496 27.0636 18.5664 25.6007 18.5664 23.3995C18.5664 22.839 18.6758 22.4425 19.0176 21.8683C19.291 21.3898 19.0723 20.8839 18.7031 20.6515C18.293 20.3917 17.6641 20.4327 17.3359 21.0069C16.8984 21.7179 16.6934 22.5655 16.6934 23.3995C16.6934 26.3253 18.9629 27.7882 18.9629 30.0441C18.9629 30.6046 18.8672 30.9737 18.5254 31.5616C18.2383 32.0538 18.4844 32.5597 18.7988 32.7784ZM22.75 32.7648C23.1875 33.0519 23.8301 33.0109 24.1582 32.423C24.5684 31.6984 24.8008 30.8644 24.8008 30.0441C24.8008 27.0499 22.5176 25.587 22.5176 23.3859C22.5176 22.839 22.627 22.4425 22.9551 21.8546C23.2422 21.3761 23.0098 20.8839 22.6406 20.6515C22.2305 20.4054 21.6016 20.4327 21.2734 20.9933C20.8496 21.7179 20.6445 22.5519 20.6445 23.3859C20.6445 26.3253 22.9141 27.7745 22.9141 30.0441C22.9141 30.5909 22.8184 30.9601 22.4766 31.548C22.1895 32.0538 22.4219 32.546 22.75 32.7648ZM26.7012 32.7511C27.1387 33.0382 27.7812 32.9972 28.1094 32.4093C28.5195 31.6847 28.752 30.8507 28.752 30.0304C28.752 27.0362 26.4688 25.5734 26.4688 23.3722C26.4688 22.8253 26.5781 22.4288 26.9062 21.8409C27.1934 21.3624 26.9609 20.8702 26.5918 20.6378C26.1816 20.3917 25.5527 20.4191 25.2246 20.9796C24.8008 21.7042 24.5957 22.5382 24.5957 23.3722C24.5957 26.3116 26.8652 27.7609 26.8652 30.0304C26.8652 30.5773 26.7695 30.9464 26.4277 31.5343C26.1406 32.0402 26.373 32.5323 26.7012 32.7511Z" fill="white" fill-opacity="0.85"/>
 </g>
</svg>
