<svg version="1.1" xmlns="http://www.w3.org/2000/svg" xmlns:xlink="http://www.w3.org/1999/xlink" viewBox="0 0 38.3223 27.3574">
 <g>
  
  <path d="M9.85742 9.76172L12.127 9.76172L12.127 5.75586C12.127 3.5957 13.8086 2.26953 16.4473 2.26953L21.5195 2.26953C24.1719 2.26953 25.8535 3.5957 25.8535 5.75586L25.8535 9.76172L28.123 9.76172L28.123 5.75586C28.123 2.20117 25.5527 0 21.5195 0L16.4473 0C12.4277 0 9.85742 2.20117 9.85742 5.75586ZM4.56641 27.3301L33.4004 27.3301C36.2031 27.3301 37.9668 25.5938 37.9668 22.832L37.9668 15.0527C37.9668 10.9785 35.123 8.17578 31.0078 8.17578L6.95898 8.17578C2.84375 8.17578 0 10.9785 0 15.0527L0 22.832C0 25.5938 1.76367 27.3301 4.56641 27.3301ZM8.06641 27.3301L8.06641 8.17578L9.85742 8.17578L9.85742 27.3301ZM12.127 27.3301L12.127 8.17578L13.918 8.17578L13.918 27.3301ZM13.918 17.4316L13.918 15.6406L24.0625 15.6406L24.0625 17.4316ZM24.0625 27.3301L24.0625 8.17578L25.8535 8.17578L25.8535 27.3301ZM28.123 27.3301L28.123 8.17578L29.9141 8.17578L29.9141 27.3301Z" style="fill:var(--color-0,hsl(0 0 0/0.85))"></path>
 </g>
</svg>