<svg version="1.1" xmlns="http://www.w3.org/2000/svg" xmlns:xlink="http://www.w3.org/1999/xlink" viewBox="0 0 34.9453 20.248">
 <g>
  
  <path d="M1.94141 17.2129C3.04883 17.2129 3.89648 16.3652 3.89648 15.2852L3.89648 4.94922C3.89648 3.85547 3.04883 2.99414 1.94141 2.99414C0.847656 2.99414 0 3.85547 0 4.94922L0 15.2852C0 16.3652 0.847656 17.2129 1.94141 17.2129ZM8.43555 20.2344C10.2539 20.2344 11.5254 19.0176 11.5254 17.2949L11.5254 2.95312C11.5254 1.2168 10.2539 0 8.43555 0C6.63086 0 5.35938 1.2168 5.35938 2.95312L5.35938 17.2949C5.35938 19.0176 6.63086 20.2344 8.43555 20.2344ZM13.1113 12.7559L21.6016 12.7559L21.6016 7.47852L13.1113 7.47852ZM26.2773 20.2344C28.0957 20.2344 29.3672 19.0176 29.3672 17.2949L29.3672 2.95312C29.3672 1.2168 28.0957 0 26.2773 0C24.4727 0 23.2012 1.2168 23.2012 2.95312L23.2012 17.2949C23.2012 19.0176 24.4727 20.2344 26.2773 20.2344ZM32.6348 17.2129C33.7285 17.2129 34.5898 16.3652 34.5898 15.2852L34.5898 4.94922C34.5898 3.85547 33.7285 2.99414 32.6348 2.99414C31.541 2.99414 30.6934 3.85547 30.6934 4.94922L30.6934 15.2852C30.6934 16.3652 31.541 17.2129 32.6348 17.2129Z" style="fill:var(--color-0,hsl(0 0 0/0.85))"></path>
 </g>
</svg>