<svg version="1.1" xmlns="http://www.w3.org/2000/svg" xmlns:xlink="http://www.w3.org/1999/xlink" viewBox="0 0 25.5254 25.1699">
 <g>
  
  <path d="M4.29297 25.1699L20.877 25.1699C23.748 25.1699 25.1699 23.7617 25.1699 20.9453L25.1699 4.23828C25.1699 1.42188 23.748 0 20.877 0L4.29297 0C1.43555 0 0 1.42188 0 4.23828L0 20.9453C0 23.7617 1.43555 25.1699 4.29297 25.1699Z" style="fill:var(--color-0,hsl(0 0 0/0.85))"></path>
  <path d="M9.35156 18.8672C8.61328 18.8672 8.24414 18.3613 8.24414 17.5957L8.24414 7.30078C8.24414 6.53516 8.61328 6.0293 9.35156 6.0293L16.0234 6.0293C16.5703 6.0293 16.9531 6.35742 16.9531 6.94531C16.9531 7.50586 16.5703 7.875 16.0234 7.875L10.5 7.875L10.5 11.4707L15.6543 11.4707C16.2012 11.4707 16.584 11.7852 16.584 12.373C16.584 12.9199 16.2012 13.2344 15.6543 13.2344L10.5 13.2344L10.5 17.0215L16.0234 17.0215C16.5703 17.0215 16.9531 17.3633 16.9531 17.9512C16.9531 18.5117 16.5703 18.8672 16.0234 18.8672Z" style="fill:var(--color-1,white)"></path>
 </g>
</svg>