<?xml version="1.0" encoding="UTF-8"?>
<!--Generator: Apple Native CoreSVG 326-->
<!DOCTYPE svg
PUBLIC "-//W3C//DTD SVG 1.1//EN"
       "http://www.w3.org/Graphics/SVG/1.1/DTD/svg11.dtd">
<svg version="1.1" xmlns="http://www.w3.org/2000/svg" xmlns:xlink="http://www.w3.org/1999/xlink" viewBox="0 0 21.6836 29.7637">
 <g>
  <rect height="29.7637" opacity="0" width="21.6836" x="0" y="0"/>
  <path d="M0.683594 22.9688C0.683594 26.7559 3.03516 29.1484 6.71289 29.1484C9.46094 29.1484 11.5117 27.9453 12.8105 25.6211L14.041 23.4199C16.9258 18.1562 21.6836 17.459 21.6836 10.6914C21.6836 4.2793 17.541 0 11.334 0C4.97656 0 0.683594 4.30664 0.683594 10.7324ZM2.74805 22.832L2.74805 10.7324C2.74805 5.52344 6.17969 2.06445 11.334 2.06445C16.3105 2.06445 19.6191 5.52344 19.6191 10.6914C19.6191 16.3516 15.1758 17.3359 12.1953 22.4902L11.0059 24.5273C10.0352 26.2227 8.68164 27.0293 6.80859 27.0293C4.2793 27.0293 2.74805 25.4434 2.74805 22.832ZM5.66016 17.6914C6.2207 17.6914 6.69922 17.2129 6.69922 16.6523L6.69922 10.6504C6.69922 8.02539 8.53125 6.28906 11.3203 6.28906C13.9727 6.28906 15.6816 8.01172 15.6816 10.6504C15.6816 11.2109 16.1465 11.6895 16.707 11.6895C17.2676 11.6895 17.7461 11.2109 17.7461 10.6504C17.7461 6.80859 15.1758 4.22461 11.3203 4.22461C7.32812 4.22461 4.63477 6.80859 4.63477 10.6504L4.63477 16.6523C4.63477 17.2129 5.09961 17.6914 5.66016 17.6914ZM5.55078 13.6309L10.1719 13.6309C11.1016 13.6309 11.6895 14.1914 11.6895 15.0117C11.6895 15.4355 11.4707 16.0098 11.1426 16.4062L9.50195 18.4707C9.32422 18.7031 9.22852 18.9492 9.22852 19.209C9.22852 19.7695 9.70703 20.2344 10.2676 20.2344C10.582 20.2344 10.8828 20.0703 11.1152 19.7832L12.8926 17.5273C13.4531 16.8164 13.8223 15.7773 13.8223 14.9297C13.8223 12.9199 12.3594 11.5664 10.1445 11.5664L5.55078 11.5664Z" fill="#0a84ff"/>
 </g>
</svg>
