<svg version="1.1" xmlns="http://www.w3.org/2000/svg" xmlns:xlink="http://www.w3.org/1999/xlink" viewBox="0 0 21.6836 29.7637">
 <g>
  
  <path d="M0.683594 22.9688C0.683594 26.7559 3.03516 29.1484 6.71289 29.1484C9.46094 29.1484 11.5117 27.9453 12.8105 25.6211L14.041 23.4199C16.9258 18.1562 21.6836 17.459 21.6836 10.6914C21.6836 4.2793 17.541 0 11.334 0C4.97656 0 0.683594 4.30664 0.683594 10.7324Z" style="fill:var(--color-0,#007aff)"></path>
  <path d="M4.36133 17.0625L4.36133 10.2402C4.36133 6.39844 7.05469 3.81445 11.3203 3.81445C15.4492 3.81445 18.0195 6.39844 18.0195 10.2402C18.0195 10.8008 17.541 11.2793 16.9805 11.2793C16.4199 11.2793 15.9551 10.8008 15.9551 10.2402C15.9551 7.60156 14.2461 5.87891 11.3203 5.87891C8.25781 5.87891 6.42578 7.61523 6.42578 10.2402L6.42578 11.9766L10.5547 11.9766C12.7695 11.9766 14.2324 13.3301 14.2324 15.3398C14.2324 16.1875 13.8633 17.2266 13.3027 17.9375L11.5254 20.1934C11.293 20.4805 10.9922 20.6445 10.6777 20.6445C10.1172 20.6445 9.63867 20.1797 9.63867 19.6191C9.63867 19.3594 9.73438 19.1133 9.91211 18.8809L11.5527 16.8164C11.8809 16.4199 12.0996 15.8457 12.0996 15.4219C12.0996 14.6016 11.5117 14.041 10.582 14.041L6.42578 14.041L6.42578 17.0625C6.42578 17.623 5.94727 18.1016 5.38672 18.1016C4.82617 18.1016 4.36133 17.623 4.36133 17.0625Z" style="fill:var(--color-1,white)"></path>
 </g>
</svg>