<?xml version="1.0" encoding="UTF-8"?>
<!--Generator: Apple Native CoreSVG 326-->
<!DOCTYPE svg
PUBLIC "-//W3C//DTD SVG 1.1//EN"
       "http://www.w3.org/Graphics/SVG/1.1/DTD/svg11.dtd">
<svg version="1.1" xmlns="http://www.w3.org/2000/svg" xmlns:xlink="http://www.w3.org/1999/xlink" viewBox="0 0 27.5352 26.6738">
 <g>
  <rect height="26.6738" opacity="0" width="27.5352" x="0" y="0"/>
  <path d="M6.01562 11.0879C9.21484 11.1152 11.9629 8.59961 11.9629 5.52344C11.9629 2.48828 9.21484 0 6.01562 0C3.07617 0 1.27148 1.81836 0.410156 3.08984C0.123047 3.52734 0 4.00586 0 4.53906L0 6.54883C0 7.08203 0.136719 7.56055 0.410156 7.99805C1.24414 9.26953 3.07617 11.0469 6.01562 11.0879ZM2.48828 7.71094C2.14648 7.71094 1.87305 7.4375 1.87305 7.08203L1.87305 3.99219C1.87305 3.63672 2.14648 3.36328 2.48828 3.36328C2.85742 3.36328 3.11719 3.63672 3.11719 3.99219L3.11719 7.08203C3.11719 7.4375 2.85742 7.71094 2.48828 7.71094ZM8.05273 21.4648L9.21484 21.4648C10.0488 21.4648 10.5684 21.0547 10.5684 20.2344L10.5684 10.8828C9.48828 11.7168 8.14844 12.2637 6.71289 12.373L6.71289 20.2344C6.71289 21.0547 7.24609 21.4648 8.05273 21.4648ZM7.94336 26.6328L9.32422 26.6328L9.32422 20.1113L7.94336 20.1113ZM21.1641 11.0879C24.1035 11.0469 25.9355 9.26953 26.7695 7.99805C27.043 7.56055 27.1797 7.08203 27.1797 6.54883L27.1797 4.53906C27.1797 4.00586 27.0566 3.52734 26.7695 3.08984C25.9082 1.81836 24.1035 0 21.1641 0C17.9648 0 15.2168 2.48828 15.2168 5.52344C15.2168 8.59961 17.9648 11.1152 21.1641 11.0879ZM24.6777 7.71094C24.3223 7.71094 24.0625 7.4375 24.0625 7.08203L24.0625 3.99219C24.0625 3.63672 24.3223 3.36328 24.6777 3.36328C25.0332 3.36328 25.3066 3.63672 25.3066 3.99219L25.3066 7.08203C25.3066 7.4375 25.0332 7.71094 24.6777 7.71094ZM17.9648 21.4648L19.127 21.4648C19.9336 21.4648 20.4668 21.0547 20.4668 20.2344L20.4668 12.373C19.0312 12.2637 17.6914 11.7168 16.6113 10.8828L16.6113 20.2344C16.6113 21.0547 17.1309 21.4648 17.9648 21.4648ZM19.2363 26.6328L19.2363 20.1113L17.8555 20.1113L17.8555 26.6328Z" fill="white" fill-opacity="0.85"/>
 </g>
</svg>
