<?xml version="1.0" encoding="UTF-8"?>
<!--Generator: Apple Native CoreSVG 326-->
<!DOCTYPE svg
PUBLIC "-//W3C//DTD SVG 1.1//EN"
       "http://www.w3.org/Graphics/SVG/1.1/DTD/svg11.dtd">
<svg version="1.1" xmlns="http://www.w3.org/2000/svg" xmlns:xlink="http://www.w3.org/1999/xlink" viewBox="0 0 23.3516 29.3262">
 <g>
  <rect height="29.3262" opacity="0" width="23.3516" x="0" y="0"/>
  <path d="M6.01562 11.0332C5.60547 11.0332 5.27734 10.6914 5.27734 10.2949C5.27734 9.89844 5.60547 9.57031 6.01562 9.57031L7.91602 9.57031L9.06445 4.82617C9.25586 4.04688 10.2812 4.06055 10.459 4.83984L11.7305 11.0605L13.0566 6.76758C13.3027 6.01562 14.2871 6.00195 14.4785 6.74023L15.2031 9.57031L16.9805 9.57031C17.4043 9.57031 17.7188 9.88477 17.7188 10.2949C17.7188 10.6914 17.3906 11.0332 16.9805 11.0332L14.7656 11.0332C14.3418 11.0332 14.0547 10.7871 13.9727 10.377L13.7266 9.39258L12.373 14.0547C12.127 14.8203 11.1016 14.8203 10.9375 14.041L9.73438 8.23047L9.1875 10.418C9.0918 10.7871 8.81836 11.0332 8.39453 11.0332ZM6.125 19.1953C5.61914 19.1953 5.23633 18.7988 5.23633 18.3066C5.23633 17.8281 5.61914 17.459 6.125 17.459L16.8984 17.459C17.4043 17.459 17.7734 17.8281 17.7734 18.3066C17.7734 18.7988 17.4043 19.1953 16.8984 19.1953ZM6.125 23.4199C5.61914 23.4199 5.23633 23.0508 5.23633 22.5723C5.23633 22.0801 5.61914 21.6836 6.125 21.6836L11.2109 21.6836C11.7305 21.6836 12.0859 22.0801 12.0859 22.5723C12.0859 23.0508 11.7305 23.4199 11.2109 23.4199ZM0 25.0332C0 27.8906 1.4082 29.3125 4.23828 29.3125L18.7578 29.3125C21.5879 29.3125 22.9961 27.8906 22.9961 25.0332L22.9961 4.29297C22.9961 1.44922 21.5879 0 18.7578 0L4.23828 0C1.4082 0 0 1.44922 0 4.29297Z" fill="white" fill-opacity="0.85"/>
 </g>
</svg>
