<?xml version="1.0" encoding="UTF-8"?>
<!--Generator: Apple Native CoreSVG 326-->
<!DOCTYPE svg
PUBLIC "-//W3C//DTD SVG 1.1//EN"
       "http://www.w3.org/Graphics/SVG/1.1/DTD/svg11.dtd">
<svg version="1.1" xmlns="http://www.w3.org/2000/svg" xmlns:xlink="http://www.w3.org/1999/xlink" viewBox="0 0 23.3516 29.3262">
 <g>
  <rect height="29.3262" opacity="0" width="23.3516" x="0" y="0"/>
  <path d="M0 25.0332C0 27.8906 1.4082 29.3125 4.23828 29.3125L18.7578 29.3125C21.5879 29.3125 22.9961 27.8906 22.9961 25.0332L22.9961 4.29297C22.9961 1.44922 21.5879 0 18.7578 0L4.23828 0C1.4082 0 0 1.44922 0 4.29297ZM2.20117 24.9922L2.20117 4.33398C2.20117 2.9668 2.92578 2.20117 4.34766 2.20117L18.6484 2.20117C20.0703 2.20117 20.7949 2.9668 20.7949 4.33398L20.7949 24.9922C20.7949 26.3594 20.0703 27.1113 18.6484 27.1113L4.34766 27.1113C2.92578 27.1113 2.20117 26.3594 2.20117 24.9922Z" fill="white" fill-opacity="0.25"/>
  <path d="M6.28906 19.0312L16.7344 19.0312C17.2266 19.0312 17.582 18.6484 17.582 18.1699C17.582 17.7051 17.2266 17.3496 16.7344 17.3496L6.28906 17.3496C5.79688 17.3496 5.42773 17.7051 5.42773 18.1699C5.42773 18.6484 5.79688 19.0312 6.28906 19.0312ZM6.28906 23.1328L11.2246 23.1328C11.7168 23.1328 12.0723 22.7773 12.0723 22.3125C12.0723 21.834 11.7168 21.4512 11.2246 21.4512L6.28906 21.4512C5.79688 21.4512 5.42773 21.834 5.42773 22.3125C5.42773 22.7773 5.79688 23.1328 6.28906 23.1328Z" fill="#0a84ff"/>
  <path d="M6.17969 11.1152L8.49023 11.1152C8.90039 11.1152 9.16016 10.8828 9.25586 10.5273L9.78906 8.38086L10.9648 14.041C11.1152 14.793 12.1133 14.793 12.3457 14.0547L13.6582 9.5293L13.9043 10.4863C13.9863 10.8828 14.2598 11.1152 14.6699 11.1152L16.8164 11.1152C17.2129 11.1152 17.5273 10.7871 17.5273 10.4043C17.5273 10.0078 17.2266 9.70703 16.8164 9.70703L15.0938 9.70703L14.3828 6.95898C14.2051 6.24805 13.248 6.26172 13.0156 6.98633L11.7305 11.1562L10.4863 5.11328C10.3223 4.36133 9.32422 4.34766 9.14648 5.09961L8.02539 9.70703L6.17969 9.70703C5.7832 9.70703 5.46875 10.0215 5.46875 10.4043C5.46875 10.7871 5.7832 11.1152 6.17969 11.1152Z" fill="#0a84ff"/>
 </g>
</svg>
