<svg version="1.1" xmlns="http://www.w3.org/2000/svg" xmlns:xlink="http://www.w3.org/1999/xlink" viewBox="0 0 28.2461 27.9043">
 <g>
  
  <path d="M13.9453 27.8906C21.6426 27.8906 27.8906 21.6426 27.8906 13.9453C27.8906 6.24805 21.6426 0 13.9453 0C6.24805 0 0 6.24805 0 13.9453C0 21.6426 6.24805 27.8906 13.9453 27.8906ZM13.9453 25.5664C7.51953 25.5664 2.32422 20.3711 2.32422 13.9453C2.32422 7.51953 7.51953 2.32422 13.9453 2.32422C20.3711 2.32422 25.5664 7.51953 25.5664 13.9453C25.5664 20.3711 20.3711 25.5664 13.9453 25.5664Z" style="fill:var(--color-0,hsl(0 0 0/0.85))"></path>
  <path d="M8.58594 19.5781L19.2773 19.5781C20.125 19.5781 20.6172 19.127 20.6172 18.293L20.6172 17.4316C20.6172 16.5977 20.125 16.1465 19.2773 16.1465L8.58594 16.1465C7.73828 16.1465 7.24609 16.5977 7.24609 17.4316L7.24609 18.293C7.24609 19.127 7.73828 19.5781 8.58594 19.5781ZM8.25781 14.4238L19.5918 14.4238C20.1523 14.4238 20.4805 14.1367 20.4805 13.6309C20.4805 13.3984 20.3574 13.166 20.166 12.9473L14.793 7.01367C14.5605 6.74023 14.2734 6.57617 13.9316 6.57617C13.5898 6.57617 13.2891 6.76758 13.0703 7.01367L7.68359 12.9473C7.47852 13.1523 7.36914 13.3984 7.38281 13.6309C7.42383 14.1367 7.68359 14.4238 8.25781 14.4238Z" style="fill:var(--color-1,hsl(0 0 0/0.85))"></path>
 </g>
</svg>