<?xml version="1.0" encoding="UTF-8"?>
<!--Generator: Apple Native CoreSVG 326-->
<!DOCTYPE svg
PUBLIC "-//W3C//DTD SVG 1.1//EN"
       "http://www.w3.org/Graphics/SVG/1.1/DTD/svg11.dtd">
<svg version="1.1" xmlns="http://www.w3.org/2000/svg" xmlns:xlink="http://www.w3.org/1999/xlink" viewBox="0 0 26.332 25.252">
 <g>
  <rect height="25.252" opacity="0" width="26.332" x="0" y="0"/>
  <path d="M1.95508 15.2578L23.9941 15.2578C25.0879 15.2578 25.6895 14.6836 25.6895 13.7266C25.6895 13.2754 25.4844 12.7969 25.1016 12.3867L14.6562 0.861328C14.1914 0.355469 13.6582 0.0136719 12.9746 0.0136719C12.3184 0.0136719 11.7578 0.382812 11.3066 0.861328L0.847656 12.3867C0.464844 12.7969 0.246094 13.2754 0.259766 13.7266C0.273438 14.6836 0.861328 15.2578 1.95508 15.2578ZM2.22852 25.252L23.748 25.252C25.1426 25.252 25.9766 24.3906 25.9766 22.9961L25.9766 20.5215C25.9766 19.127 25.1426 18.2656 23.748 18.2656L2.22852 18.2656C0.833984 18.2656 0 19.127 0 20.5215L0 22.9961C0 24.3906 0.833984 25.252 2.22852 25.252Z" fill="white" fill-opacity="0.85"/>
 </g>
</svg>
