<svg version="1.1" xmlns="http://www.w3.org/2000/svg" xmlns:xlink="http://www.w3.org/1999/xlink" viewBox="0 0 31.3633 28.6426">
 <g>
  
  <path d="M5.93359 28.6426C7.7793 28.6426 11.5527 26.7832 14.3281 24.8008C23.8574 25.0605 31.0078 19.5918 31.0078 12.4277C31.0078 5.55078 24.1172 0 15.5039 0C6.89062 0 0 5.55078 0 12.4277C0 16.9121 2.87109 20.8906 7.19141 22.8867C6.57617 24.0762 5.42773 25.6895 4.8125 26.4961C4.08789 27.4531 4.52539 28.6426 5.93359 28.6426ZM7.36914 26.373C7.25977 26.4141 7.21875 26.332 7.28711 26.2363C8.05273 25.293 9.14648 23.8711 9.61133 22.9961C9.99414 22.2852 9.89844 21.6562 9.02344 21.2461C4.73047 19.25 2.26953 16.0645 2.26953 12.4277C2.26953 6.82227 8.13477 2.25586 15.5039 2.25586C22.8867 2.25586 28.752 6.82227 28.752 12.4277C28.752 18.0195 22.8867 22.5859 15.5039 22.5859C15.2305 22.5859 14.8066 22.5723 14.2598 22.5586C13.6855 22.5586 13.248 22.7363 12.7285 23.1465C11.0469 24.3633 8.61328 25.8672 7.36914 26.373Z" style="fill:var(--color-0,hsl(0 0 0/0.85))"></path>
  <path d="M21.8887 14.5332C22.9824 14.5332 23.8711 13.6445 23.8711 12.5508C23.8711 11.457 22.9824 10.5684 21.8887 10.5684C20.7949 10.5684 19.9062 11.457 19.9062 12.5508C19.9062 13.6445 20.7949 14.5332 21.8887 14.5332Z" style="fill:var(--color-1,hsl(0 0 0/0.85))"></path>
  <path d="M15.5039 14.5332C16.5977 14.5332 17.4863 13.6445 17.4863 12.5508C17.4863 11.457 16.5977 10.5684 15.5039 10.5684C14.4102 10.5684 13.5215 11.457 13.5215 12.5508C13.5215 13.6445 14.4102 14.5332 15.5039 14.5332Z" style="fill:var(--color-2,hsl(0 0 0/0.85))"></path>
  <path d="M9.13281 14.5332C10.2129 14.5332 11.1016 13.6445 11.1016 12.5508C11.1016 11.457 10.1992 10.5684 9.13281 10.5684C8.03906 10.5684 7.15039 11.457 7.15039 12.5508C7.15039 13.6445 8.03906 14.5332 9.13281 14.5332Z" style="fill:var(--color-3,hsl(0 0 0/0.85))"></path>
 </g>
</svg>