<?xml version="1.0" encoding="UTF-8"?>
<!--Generator: Apple Native CoreSVG 326-->
<!DOCTYPE svg
PUBLIC "-//W3C//DTD SVG 1.1//EN"
       "http://www.w3.org/Graphics/SVG/1.1/DTD/svg11.dtd">
<svg version="1.1" xmlns="http://www.w3.org/2000/svg" xmlns:xlink="http://www.w3.org/1999/xlink" viewBox="0 0 31.3633 28.5059">
 <g>
  <rect height="28.5059" opacity="0" width="31.3633" x="0" y="0"/>
  <path d="M5.41406 28.5059C7.05469 28.5059 11.1426 26.7148 13.4668 25.0469C13.6992 24.8828 13.8906 24.8145 14.082 24.8145C14.2598 24.8281 14.4375 24.8418 14.6152 24.8418C24.4727 24.8418 31.0078 19.2363 31.0078 12.4277C31.0078 5.55078 24.1172 0 15.5039 0C6.89062 0 0 5.55078 0 12.4277C0 16.8027 2.69336 20.6445 7.08203 22.9961C7.28711 23.1055 7.35547 23.3105 7.24609 23.5156C6.48047 24.7734 5.11328 26.2773 4.59375 26.9609C4.06055 27.6445 4.36133 28.5059 5.41406 28.5059Z" fill="white" fill-opacity="0.85"/>
  <path d="M22.0938 14.6016C20.959 14.6016 20.043 13.6855 20.043 12.5508C20.043 11.416 20.959 10.5 22.0938 10.5C23.2012 10.5 24.1445 11.416 24.1445 12.5508C24.1445 13.6855 23.2012 14.6016 22.0938 14.6016Z" fill="white"/>
  <path d="M15.5039 14.6016C14.3691 14.6016 13.4531 13.6855 13.4531 12.5508C13.4531 11.416 14.3691 10.5 15.5039 10.5C16.6387 10.5 17.5547 11.416 17.5547 12.5508C17.5547 13.6855 16.6387 14.6016 15.5039 14.6016Z" fill="white"/>
  <path d="M8.92773 14.6016C7.80664 14.6016 6.87695 13.6855 6.87695 12.5508C6.87695 11.416 7.80664 10.5 8.92773 10.5C10.0352 10.5 10.9648 11.416 10.9648 12.5508C10.9648 13.6855 10.0488 14.6016 8.92773 14.6016Z" fill="white"/>
 </g>
</svg>
