<?xml version="1.0" encoding="UTF-8"?>
<!--Generator: Apple Native CoreSVG 326-->
<!DOCTYPE svg
PUBLIC "-//W3C//DTD SVG 1.1//EN"
       "http://www.w3.org/Graphics/SVG/1.1/DTD/svg11.dtd">
<svg version="1.1" xmlns="http://www.w3.org/2000/svg" xmlns:xlink="http://www.w3.org/1999/xlink" viewBox="0 0 28.2461 27.9043">
 <g>
  <rect height="27.9043" opacity="0" width="28.2461" x="0" y="0"/>
  <path d="M13.9453 27.8906C21.6426 27.8906 27.8906 21.6426 27.8906 13.9453C27.8906 6.24805 21.6426 0 13.9453 0C6.24805 0 0 6.24805 0 13.9453C0 21.6426 6.24805 27.8906 13.9453 27.8906ZM13.9453 25.5664C7.51953 25.5664 2.32422 20.3711 2.32422 13.9453C2.32422 7.51953 7.51953 2.32422 13.9453 2.32422C20.3711 2.32422 25.5664 7.51953 25.5664 13.9453C25.5664 20.3711 20.3711 25.5664 13.9453 25.5664Z" fill="white" fill-opacity="0.85"/>
  <path d="M20.3164 15.9141C21.3965 15.9141 22.2988 15.0254 22.2988 13.9316C22.2988 12.8379 21.3965 11.9492 20.3164 11.9492C19.2227 11.9492 18.334 12.8379 18.334 13.9316C18.334 15.0254 19.2227 15.9141 20.3164 15.9141Z" fill="white" fill-opacity="0.85"/>
  <path d="M13.9316 15.9141C15.0254 15.9141 15.9141 15.0254 15.9141 13.9316C15.9141 12.8379 15.0254 11.9492 13.9316 11.9492C12.8379 11.9492 11.9492 12.8379 11.9492 13.9316C11.9492 15.0254 12.8379 15.9141 13.9316 15.9141Z" fill="white" fill-opacity="0.85"/>
  <path d="M7.56055 15.9141C8.64062 15.9141 9.5293 15.0254 9.5293 13.9316C9.5293 12.8379 8.62695 11.9492 7.56055 11.9492C6.4668 11.9492 5.57812 12.8379 5.57812 13.9316C5.57812 15.0254 6.4668 15.9141 7.56055 15.9141Z" fill="white" fill-opacity="0.85"/>
 </g>
</svg>
