<svg version="1.1" xmlns="http://www.w3.org/2000/svg" xmlns:xlink="http://www.w3.org/1999/xlink" viewBox="0 0 28.2461 27.9043">
 <g>
  
  <path d="M13.9453 27.8906C21.6426 27.8906 27.8906 21.6289 27.8906 13.9453C27.8906 6.24805 21.6426 0 13.9453 0C6.26172 0 0 6.24805 0 13.9453C0 21.6289 6.26172 27.8906 13.9453 27.8906Z" style="fill:var(--color-0,hsl(0 0 0/0.85))"></path>
  <path d="M20.5352 15.9824C19.4004 15.9824 18.4844 15.0664 18.4844 13.9316C18.4844 12.7969 19.4004 11.8809 20.5352 11.8809C21.6426 11.8809 22.5723 12.7969 22.5723 13.9316C22.5723 15.0664 21.6426 15.9824 20.5352 15.9824Z" style="fill:var(--color-1,white)"></path>
  <path d="M13.9453 15.9824C12.8105 15.9824 11.8945 15.0664 11.8945 13.9316C11.8945 12.7969 12.8105 11.8809 13.9453 11.8809C15.0801 11.8809 15.9961 12.7969 15.9961 13.9316C15.9961 15.0664 15.0801 15.9824 13.9453 15.9824Z" style="fill:var(--color-2,white)"></path>
  <path d="M7.36914 15.9824C6.24805 15.9824 5.31836 15.0664 5.31836 13.9316C5.31836 12.7969 6.24805 11.8809 7.36914 11.8809C8.47656 11.8809 9.40625 12.7969 9.40625 13.9316C9.40625 15.0664 8.49023 15.9824 7.36914 15.9824Z" style="fill:var(--color-3,white)"></path>
 </g>
</svg>