<svg version="1.1" xmlns="http://www.w3.org/2000/svg" xmlns:xlink="http://www.w3.org/1999/xlink" viewBox="0 0 25.8672 5.20898">
 <g>
  
  <path d="M22.9141 5.18164C24.3496 5.18164 25.5117 4.0332 25.5117 2.59766C25.5117 1.16211 24.3496 0 22.9141 0C21.4785 0 20.3164 1.16211 20.3164 2.59766C20.3164 4.0332 21.4785 5.18164 22.9141 5.18164Z" style="fill:var(--color-0,hsl(0 0 0/0.85))"></path>
  <path d="M12.7559 5.18164C14.1914 5.18164 15.3398 4.0332 15.3398 2.59766C15.3398 1.16211 14.1914 0 12.7559 0C11.3203 0 10.1582 1.16211 10.1582 2.59766C10.1582 4.0332 11.3203 5.18164 12.7559 5.18164Z" style="fill:var(--color-1,hsl(0 0 0/0.85))"></path>
  <path d="M2.59766 5.18164C4.0332 5.18164 5.18164 4.0332 5.18164 2.59766C5.18164 1.16211 4.0332 0 2.59766 0C1.16211 0 0 1.16211 0 2.59766C0 4.0332 1.16211 5.18164 2.59766 5.18164Z" style="fill:var(--color-2,hsl(0 0 0/0.85))"></path>
 </g>
</svg>