<svg version="1.1" xmlns="http://www.w3.org/2000/svg" xmlns:xlink="http://www.w3.org/1999/xlink" viewBox="0 0 29.9688 19.1543">
 <g>
  
  <path d="M0 15.2031C0 17.7871 1.42188 19.1543 3.99219 19.1543L25.6074 19.1543C28.1914 19.1543 29.6133 17.7871 29.6133 15.2031L29.6133 3.92383C29.6133 1.35352 28.1914 0 25.6074 0L3.99219 0C1.42188 0 0 1.35352 0 3.92383Z" style="fill:var(--color-0,hsl(0 0 0/0.85))"></path>
  <path d="M21.4102 11.6074C20.2754 11.6074 19.3594 10.6914 19.3594 9.55664C19.3594 8.42188 20.2754 7.50586 21.4102 7.50586C22.5176 7.50586 23.4609 8.42188 23.4609 9.55664C23.4609 10.6914 22.5176 11.6074 21.4102 11.6074Z" style="fill:var(--color-1,white)"></path>
  <path d="M14.8203 11.6074C13.6855 11.6074 12.7695 10.6914 12.7695 9.55664C12.7695 8.42188 13.6855 7.50586 14.8203 7.50586C15.9551 7.50586 16.8711 8.42188 16.8711 9.55664C16.8711 10.6914 15.9551 11.6074 14.8203 11.6074Z" style="fill:var(--color-2,white)"></path>
  <path d="M8.24414 11.6074C7.12305 11.6074 6.19336 10.6914 6.19336 9.55664C6.19336 8.42188 7.12305 7.50586 8.24414 7.50586C9.35156 7.50586 10.2812 8.42188 10.2812 9.55664C10.2812 10.6914 9.36523 11.6074 8.24414 11.6074Z" style="fill:var(--color-3,white)"></path>
 </g>
</svg>