<svg version="1.1" xmlns="http://www.w3.org/2000/svg" xmlns:xlink="http://www.w3.org/1999/xlink" viewBox="0 0 30.4883 30.2012">
 <g>
  
  <path d="M8.12109 30.2012C8.6543 30.2012 9.05078 29.9277 9.69336 29.3262L14.6289 24.8145L23.8711 24.8145C27.9453 24.8145 30.1328 22.5723 30.1328 18.5664L30.1328 8.09375C30.1328 4.08789 27.9453 1.83203 23.8711 1.83203L6.26172 1.83203C2.1875 1.83203 0 4.07422 0 8.09375L0 18.5664C0 22.5859 2.1875 24.8145 6.26172 24.8145L6.9043 24.8145L6.9043 28.793C6.9043 29.6406 7.3418 30.2012 8.12109 30.2012Z" style="fill:var(--color-0,hsl(0 0 0/0.85))"></path>
  <path d="M15.0801 9.44727C14 9.44727 13.1387 8.57227 13.1387 7.50586C13.1387 6.43945 14 5.56445 15.0801 5.56445C16.1602 5.56445 17.0215 6.43945 17.0215 7.50586C17.0215 8.57227 16.1602 9.44727 15.0801 9.44727Z" style="fill:var(--color-1,white)"></path>
  <path d="M15.0801 15.2715C14 15.2715 13.1387 14.4102 13.1387 13.3301C13.1387 12.25 14 11.3887 15.0801 11.3887C16.1602 11.3887 17.0215 12.25 17.0215 13.3301C17.0215 14.4102 16.1602 15.2715 15.0801 15.2715Z" style="fill:var(--color-2,white)"></path>
  <path d="M15.0801 21.082C14 21.082 13.1387 20.2207 13.1387 19.1543C13.1387 18.0742 14 17.2129 15.0801 17.2129C16.1602 17.2129 17.0215 18.0742 17.0215 19.1543C17.0215 20.2207 16.1602 21.082 15.0801 21.082Z" style="fill:var(--color-3,white)"></path>
 </g>
</svg>