<?xml version="1.0" encoding="UTF-8"?>
<!--Generator: Apple Native CoreSVG 326-->
<!DOCTYPE svg
PUBLIC "-//W3C//DTD SVG 1.1//EN"
       "http://www.w3.org/Graphics/SVG/1.1/DTD/svg11.dtd">
<svg version="1.1" xmlns="http://www.w3.org/2000/svg" xmlns:xlink="http://www.w3.org/1999/xlink" viewBox="0 0 29.9688 19.1543">
 <g>
  <rect height="19.1543" opacity="0" width="29.9688" x="0" y="0"/>
  <path d="M0 15.2031C0 17.7871 1.42188 19.1543 3.99219 19.1543L25.6074 19.1543C28.1914 19.1543 29.6133 17.7871 29.6133 15.2031L29.6133 3.92383C29.6133 1.35352 28.1914 0 25.6074 0L3.99219 0C1.42188 0 0 1.35352 0 3.92383ZM2.20117 15.3125L2.20117 3.81445C2.20117 2.67969 2.84375 2.03711 3.97852 2.03711L25.6348 2.03711C26.7695 2.03711 27.4121 2.67969 27.4121 3.81445L27.4121 15.3125C27.4121 16.4473 26.7695 17.0898 25.6348 17.0898L3.97852 17.0898C2.84375 17.0898 2.20117 16.4473 2.20117 15.3125Z" fill="white" fill-opacity="0.85"/>
  <path d="M21.2051 11.5391C22.2852 11.5391 23.1875 10.6504 23.1875 9.55664C23.1875 8.46289 22.2852 7.57422 21.2051 7.57422C20.1113 7.57422 19.2227 8.46289 19.2227 9.55664C19.2227 10.6504 20.1113 11.5391 21.2051 11.5391Z" fill="white" fill-opacity="0.85"/>
  <path d="M14.8203 11.5391C15.9141 11.5391 16.8027 10.6504 16.8027 9.55664C16.8027 8.46289 15.9141 7.57422 14.8203 7.57422C13.7266 7.57422 12.8379 8.46289 12.8379 9.55664C12.8379 10.6504 13.7266 11.5391 14.8203 11.5391Z" fill="white" fill-opacity="0.85"/>
  <path d="M8.44922 11.5391C9.5293 11.5391 10.418 10.6504 10.418 9.55664C10.418 8.46289 9.51562 7.57422 8.44922 7.57422C7.35547 7.57422 6.4668 8.46289 6.4668 9.55664C6.4668 10.6504 7.35547 11.5391 8.44922 11.5391Z" fill="white" fill-opacity="0.85"/>
 </g>
</svg>
