<svg version="1.1" xmlns="http://www.w3.org/2000/svg" xmlns:xlink="http://www.w3.org/1999/xlink" viewBox="0 0 39.1973 24.8965">
 <g>
  
  <path d="M14.8613 24.8828L28.1777 24.8828C29.9824 24.8828 31.0625 23.8574 31.0625 22.0664L31.0625 19.5781C31.0625 19.5098 31.1035 19.4824 31.1582 19.4824L32.7852 19.4824C32.8535 19.4824 32.8809 19.5098 32.8809 19.5781L32.8809 21.1094C32.8809 22.6543 33.9062 23.5977 35.5742 23.5977L36.1621 23.5977C37.8164 23.5977 38.8418 22.668 38.8418 21.1094L38.8418 11.2383C38.8418 9.67969 37.8164 8.75 36.1621 8.75L35.5742 8.75C33.9062 8.75 32.8809 9.69336 32.8809 11.2383L32.8809 12.5098C32.8809 12.5645 32.8535 12.6055 32.7852 12.6055L31.1582 12.6055C31.1035 12.6055 31.0625 12.5645 31.0625 12.5098L31.0625 10.1855C31.0625 8.49023 30.0098 7.46484 28.2598 7.46484L27.1797 7.46484L24.8828 4.96289C24.3496 4.375 23.8027 4.14258 23.1328 4.14258L12.5098 4.14258C11.8262 4.14258 11.2793 4.40234 10.7461 4.96289L8.44922 7.46484L6.94531 7.46484C5.22266 7.46484 4.15625 8.49023 4.15625 10.1855L4.15625 18.8125C4.15625 20.5215 5.20898 21.5469 6.94531 21.5469L10.8008 21.5469L13.1113 24.0625C13.6445 24.6367 14.1367 24.8828 14.8613 24.8828ZM1.09375 19.9199C1.70898 19.9199 2.20117 19.4004 2.20117 18.8125L2.20117 15.6133L5.11328 15.6133L5.11328 13.4121L2.20117 13.4121L2.20117 10.1992C2.20117 9.59766 1.69531 9.10547 1.09375 9.10547C0.492188 9.10547 0 9.61133 0 10.1992L0 18.8125C0 19.4141 0.505859 19.9199 1.09375 19.9199ZM17.7734 5.52344L19.9883 5.52344L19.9883 2.20117L24.2812 2.20117C24.8828 2.20117 25.375 1.68164 25.375 1.09375C25.375 0.492188 24.8828 0 24.2812 0L13.4531 0C12.8516 0 12.3594 0.505859 12.3594 1.10742C12.3594 1.70898 12.8652 2.20117 13.4531 2.20117L17.7734 2.20117Z" style="fill:var(--color-0,hsl(0 0 0/0.85))"></path>
 </g>
</svg>