<?xml version="1.0" encoding="UTF-8"?>
<!--Generator: Apple Native CoreSVG 326-->
<!DOCTYPE svg
PUBLIC "-//W3C//DTD SVG 1.1//EN"
       "http://www.w3.org/Graphics/SVG/1.1/DTD/svg11.dtd">
<svg version="1.1" xmlns="http://www.w3.org/2000/svg" xmlns:xlink="http://www.w3.org/1999/xlink" viewBox="0 0 38.6367 26.3184">
 <g>
  <rect height="26.3184" opacity="0" width="38.6367" x="0" y="0"/>
  <path d="M32.1973 22.5586C32.1973 24.7871 30.6934 26.3184 28.6016 26.3184C26.4961 26.3184 24.9922 24.8008 24.7324 22.9004C24.6641 22.3535 24.9102 21.834 25.5254 21.793C26.1133 21.752 26.4824 22.1621 26.5645 22.668C26.7559 23.8164 27.5215 24.541 28.6016 24.541C29.6816 24.541 30.4062 23.8164 30.4062 22.5586C30.4062 20.1387 26.9473 17.9512 21.0684 17.9512L20.0977 17.9512L20.0977 16.1602L21.0684 16.1602C27.9316 16.1602 32.1973 19.0176 32.1973 22.5586ZM2.46094 17.9512C1.98242 17.9512 1.57227 17.541 1.57227 17.0488C1.57227 16.5566 1.98242 16.1602 2.46094 16.1602L8.88672 16.1602L8.88672 17.9512ZM38.2812 12.4824C38.2812 14.8066 36.5039 16.5977 34.0566 16.5977C30.6797 16.5977 29.1895 13.8633 22.2168 13.8633L20.0977 13.8633L20.0977 12.0723L22.2715 12.0723C29.5996 12.0723 31.2949 14.793 33.9336 14.8066C35.5605 14.8203 36.4902 13.6855 36.4902 12.4004C36.4902 10.9102 35.4102 10.0488 34.1934 10.0488C33.6328 10.0488 33.1816 10.2402 32.8262 10.5547C32.4297 10.8418 32.0059 10.9238 31.6367 10.623C31.2812 10.3496 31.2539 9.73438 31.6914 9.36523C32.3477 8.73633 33.2227 8.32617 34.1934 8.32617C36.4219 8.32617 38.2812 9.85742 38.2812 12.4824ZM0.902344 13.8633C0.410156 13.8633 0 13.4668 0 12.9609C0 12.4688 0.410156 12.0723 0.902344 12.0723L8.88672 12.0723L8.88672 13.8633ZM8.88672 9.77539L2.46094 9.77539C1.98242 9.77539 1.57227 9.37891 1.57227 8.88672C1.57227 8.39453 1.98242 7.98438 2.46094 7.98438L8.88672 7.98438ZM31.1855 5.04492C31.1855 7.84766 29.1211 9.77539 22.6406 9.77539L20.0977 9.77539L20.0977 7.98438L22.6953 7.98438C28.1777 7.98438 29.3945 6.75391 29.3945 5.04492C29.3945 3.77344 28.5332 3.08984 27.4121 3.08984C26.5508 3.08984 25.8398 3.63672 25.5117 4.33398C25.1836 4.89453 24.6914 5.01758 24.2539 4.79883C23.7754 4.55273 23.6797 4.0332 23.9121 3.56836C24.4863 2.2832 25.8535 1.29883 27.4121 1.29883C29.5176 1.29883 31.1855 2.78906 31.1855 5.04492Z" fill="white" fill-opacity="0.85"/>
  <path d="M9.67969 4.04688L19.2227 4.04688C19.7559 4.04688 20.1797 3.62305 20.1797 3.08984C20.1797 2.55664 19.7559 2.11914 19.2227 2.11914L9.67969 2.11914C9.14648 2.11914 8.70898 2.55664 8.70898 3.08984C8.70898 3.62305 9.14648 4.04688 9.67969 4.04688ZM9.63867 24.1855L19.2637 24.1855C19.7969 24.1855 20.2344 23.748 20.2344 23.2148C20.2344 22.6816 19.7969 22.2578 19.2637 22.2578L9.63867 22.2578C9.10547 22.2578 8.68164 22.6816 8.68164 23.2148C8.68164 23.748 9.10547 24.1855 9.63867 24.1855ZM12.0449 20.4258C12.6738 20.4258 13.1797 19.9199 13.1797 19.291C13.1797 18.6621 12.6738 18.1562 12.0449 18.1562C11.4023 18.1562 10.9102 18.6621 10.9102 19.291C10.9102 19.9199 11.4023 20.4258 12.0449 20.4258ZM12.0449 16.3379C12.6738 16.3379 13.1797 15.832 13.1797 15.2031C13.1797 14.5605 12.6738 14.0547 12.0449 14.0547C11.4023 14.0547 10.9102 14.5605 10.9102 15.2031C10.9102 15.832 11.4023 16.3379 12.0449 16.3379ZM16.9395 20.4258C17.5684 20.4258 18.0742 19.9199 18.0742 19.291C18.0742 18.6621 17.5684 18.1562 16.9395 18.1562C16.2969 18.1562 15.8047 18.6621 15.8047 19.291C15.8047 19.9199 16.3105 20.4258 16.9395 20.4258ZM12.0449 12.2363C12.6738 12.2363 13.1797 11.7305 13.1797 11.1016C13.1797 10.4727 12.6738 9.9668 12.0449 9.9668C11.4023 9.9668 10.9102 10.4727 10.9102 11.1016C10.9102 11.7305 11.4023 12.2363 12.0449 12.2363ZM16.9395 16.3379C17.5684 16.3379 18.0742 15.832 18.0742 15.2031C18.0742 14.5605 17.5684 14.0547 16.9395 14.0547C16.2969 14.0547 15.8047 14.5605 15.8047 15.2031C15.8047 15.832 16.3105 16.3379 16.9395 16.3379ZM12.0449 8.14844C12.6738 8.14844 13.1797 7.64258 13.1797 7.01367C13.1797 6.38477 12.6738 5.86523 12.0449 5.86523C11.4023 5.86523 10.9102 6.38477 10.9102 7.01367C10.9102 7.64258 11.4023 8.14844 12.0449 8.14844ZM16.9395 12.2363C17.5684 12.2363 18.0742 11.7305 18.0742 11.1016C18.0742 10.4727 17.5684 9.9668 16.9395 9.9668C16.2969 9.9668 15.8047 10.4727 15.8047 11.1016C15.8047 11.7305 16.3105 12.2363 16.9395 12.2363ZM16.9395 8.14844C17.5684 8.14844 18.0742 7.64258 18.0742 7.01367C18.0742 6.38477 17.5684 5.86523 16.9395 5.86523C16.2969 5.86523 15.8047 6.38477 15.8047 7.01367C15.8047 7.64258 16.3105 8.14844 16.9395 8.14844Z" fill="white" fill-opacity="0.85"/>
 </g>
</svg>
