<?xml version="1.0" encoding="UTF-8"?>
<!--Generator: Apple Native CoreSVG 326-->
<!DOCTYPE svg
PUBLIC "-//W3C//DTD SVG 1.1//EN"
       "http://www.w3.org/Graphics/SVG/1.1/DTD/svg11.dtd">
<svg version="1.1" xmlns="http://www.w3.org/2000/svg" xmlns:xlink="http://www.w3.org/1999/xlink" viewBox="0 0 33.3457 32.4434">
 <g>
  <rect height="32.4434" opacity="0" width="33.3457" x="0" y="0"/>
  <path d="M32.9902 13.1113L32.9902 28.2051C32.9902 31.0215 31.5547 32.4434 29.1074 32.4434L4.29297 32.4434C1.44922 32.4434 0 31.0215 0 28.2051L0 13.1113C0 10.2949 1.43555 8.87305 3.88281 8.87305L13.5352 8.87305L13.5352 10.9648L4.21094 10.9648C3.94628 10.9648 3.70409 10.9931 3.48654 11.0499L15.1758 21.5879C15.5996 21.9707 16.0371 22.1484 16.4883 22.1484C16.9395 22.1484 17.377 21.9707 17.8008 21.5879L29.4903 11.0496C29.2721 10.993 29.0298 10.9648 28.7656 10.9648L19.4414 10.9648L19.4414 8.87305L28.6973 8.87305C31.541 8.87305 32.9902 10.2949 32.9902 13.1113ZM18.9902 23.2148C18.2109 23.9121 17.3633 24.2539 16.4883 24.2539C15.6133 24.2539 14.7656 23.9121 13.9863 23.2148L12.0008 21.4276L3.25202 30.1887C3.52584 30.2972 3.84716 30.3516 4.21094 30.3516L28.7656 30.3516C29.1328 30.3516 29.4577 30.2962 29.7347 30.1858L20.9761 21.4273ZM22.48 20.0737L30.8869 28.4807C30.8948 28.3922 30.8984 28.3001 30.8984 28.2051L30.8984 13.1113C30.8984 12.9067 30.882 12.7162 30.8478 12.5418ZM2.0918 13.0977L2.0918 28.1914C2.0918 28.2911 2.09564 28.3875 2.10426 28.4797L10.5038 20.0802L2.13827 12.5503C2.10692 12.7187 2.0918 12.9017 2.0918 13.0977Z" fill="white" fill-opacity="0.85"/>
  <path d="M16.4883 16.3242C17.1309 16.3242 17.582 15.8594 17.582 15.1758L17.582 8.81836C17.582 6.69922 18.9629 4.94922 21.8613 4.45703L22.1484 5.90625C22.2988 6.72656 22.9277 6.9043 23.5293 6.30273L26.3594 3.34961C26.8242 2.85742 26.7012 2.25586 26.0723 1.98242L22.3672 0.328125C21.6016-0.0136719 21.082 0.382812 21.2324 1.18945L21.5059 2.625C19.373 3.04883 17.0215 4.42969 16.4883 5.97461C15.9688 4.42969 13.6172 3.04883 11.4707 2.625L11.7578 1.18945C11.9082 0.382812 11.3887-0.0136719 10.623 0.328125L6.9043 1.98242C6.28906 2.25586 6.15234 2.85742 6.63086 3.34961L9.46094 6.30273C10.0625 6.9043 10.6914 6.72656 10.8418 5.90625L11.1289 4.45703C14.0273 4.94922 15.4082 6.69922 15.4082 8.81836L15.4082 15.1758C15.4082 15.8594 15.8457 16.3242 16.4883 16.3242Z" fill="white" fill-opacity="0.85"/>
 </g>
</svg>
