<?xml version="1.0" encoding="UTF-8"?>
<!--Generator: Apple Native CoreSVG 326-->
<!DOCTYPE svg
PUBLIC "-//W3C//DTD SVG 1.1//EN"
       "http://www.w3.org/Graphics/SVG/1.1/DTD/svg11.dtd">
<svg version="1.1" xmlns="http://www.w3.org/2000/svg" xmlns:xlink="http://www.w3.org/1999/xlink" viewBox="0 0 33.3457 23.584">
 <g>
  <rect height="23.584" opacity="0" width="33.3457" x="0" y="0"/>
  <path d="M4.29297 23.584L29.1074 23.584C31.5547 23.584 32.9902 22.1621 32.9902 19.3457L32.9902 4.25195C32.9902 1.43555 31.541 0.0136719 28.6973 0.0136719L3.88281 0.0136719C1.43555 0.0136719 0 1.43555 0 4.25195L0 19.3457C0 22.1621 1.44922 23.584 4.29297 23.584ZM4.21094 21.4922C2.85742 21.4922 2.0918 20.7402 2.0918 19.332L2.0918 4.23828C2.0918 2.84375 2.85742 2.10547 4.21094 2.10547L28.7656 2.10547C30.1191 2.10547 30.8984 2.84375 30.8984 4.25195L30.8984 19.3457C30.8984 20.7402 30.1191 21.4922 28.7656 21.4922ZM24.1445 8.96875L27.6172 8.96875C28.2324 8.96875 28.6836 8.51758 28.6836 7.91602L28.6836 5.37305C28.6836 4.77148 28.2324 4.32031 27.6172 4.32031L24.1445 4.32031C23.543 4.32031 23.0918 4.77148 23.0918 5.37305L23.0918 7.91602C23.0918 8.51758 23.543 8.96875 24.1445 8.96875ZM11.2383 14.1504L21.7383 14.1504C22.2168 14.1504 22.5996 13.7812 22.5996 13.3027C22.5996 12.8379 22.2168 12.4551 21.7383 12.4551L11.2383 12.4551C10.7734 12.4551 10.3906 12.8379 10.3906 13.3027C10.3906 13.7812 10.7734 14.1504 11.2383 14.1504ZM11.2383 17.7598L19.1816 17.7598C19.6602 17.7598 20.0293 17.377 20.0293 16.8984C20.0293 16.4336 19.6602 16.0645 19.1816 16.0645L11.2383 16.0645C10.7734 16.0645 10.3906 16.4336 10.3906 16.8984C10.3906 17.377 10.7734 17.7598 11.2383 17.7598Z" fill="white" fill-opacity="0.85"/>
 </g>
</svg>
