<svg version="1.1" xmlns="http://www.w3.org/2000/svg" xmlns:xlink="http://www.w3.org/1999/xlink" viewBox="0 0 28.2461 27.9043">
 <g>
  
  <path d="M13.9453 27.9043C21.6426 27.9043 27.8906 21.6562 27.8906 13.959C27.8906 6.27539 21.6426 0.0136719 13.9453 0.0136719C6.26172 0.0136719 0 6.27539 0 13.959C0 21.6562 6.26172 27.9043 13.9453 27.9043Z" style="fill:var(--color-0,#007aff)"></path>
  <path d="M13.9453 14.6973C13.7402 14.6973 13.5078 14.6152 13.3027 14.4238L6.35742 8.29883C6.74023 8.06641 7.15039 7.9707 7.73828 7.9707L20.166 7.9707C20.7266 7.9707 21.1504 8.08008 21.5469 8.3125L14.5879 14.4238C14.3828 14.6152 14.1641 14.6973 13.9453 14.6973ZM5.74219 18.8125C5.61914 18.5391 5.55078 18.2383 5.55078 17.8008L5.55078 10.1172C5.55078 9.66602 5.64648 9.31055 5.71484 9.16016L10.8418 13.6855ZM7.5332 19.9473C7.04102 19.9473 6.6582 19.8379 6.38477 19.6602L11.6621 14.3965L12.6602 15.2852C13.0566 15.6406 13.5078 15.8184 13.9453 15.8184C14.3828 15.8184 14.834 15.6406 15.2441 15.2852L16.2285 14.3965L21.5059 19.6602C21.2324 19.8242 20.8496 19.9473 20.3574 19.9473ZM22.1621 18.8125L17.0352 13.6855L22.1758 9.17383C22.2441 9.31055 22.3262 9.66602 22.3262 10.1172L22.3262 17.8008C22.3262 18.2246 22.2715 18.5391 22.1621 18.8125Z" style="fill:var(--color-1,white)"></path>
 </g>
</svg>