<svg version="1.1" xmlns="http://www.w3.org/2000/svg" xmlns:xlink="http://www.w3.org/1999/xlink" viewBox="0 0 28.2461 27.9043">
 <g>
  
  <path d="M13.9453 27.8906C21.6426 27.8906 27.8906 21.6289 27.8906 13.9453C27.8906 6.24805 21.6426 0 13.9453 0C6.26172 0 0 6.24805 0 13.9453C0 21.6289 6.26172 27.8906 13.9453 27.8906Z" style="fill:var(--color-0,hsl(0 0 0/0.85))"></path>
  <path d="M8.64062 17.6504C7.91602 17.6504 7.39648 17.2949 7.39648 16.584C7.39648 15.8594 7.88867 15.4766 8.64062 15.4766L19.2363 15.4766C19.9883 15.4766 20.4805 15.8594 20.4805 16.584C20.4805 17.2949 19.9609 17.6504 19.2363 17.6504ZM8.64062 12.4414C7.91602 12.4414 7.39648 12.0859 7.39648 11.3613C7.39648 10.6367 7.88867 10.2676 8.64062 10.2676L19.2363 10.2676C19.9883 10.2676 20.4805 10.6367 20.4805 11.3613C20.4805 12.0859 19.9609 12.4414 19.2363 12.4414Z" style="fill:var(--color-1,white)"></path>
 </g>
</svg>