<svg version="1.1" xmlns="http://www.w3.org/2000/svg" xmlns:xlink="http://www.w3.org/1999/xlink" viewBox="0 0 25.5254 25.1699">
 <g>
  
  <path d="M4.29297 25.1699L20.877 25.1699C23.748 25.1699 25.1699 23.7617 25.1699 20.9453L25.1699 4.23828C25.1699 1.42188 23.748 0 20.877 0L4.29297 0C1.43555 0 0 1.42188 0 4.23828L0 20.9453C0 23.7617 1.43555 25.1699 4.29297 25.1699Z" style="fill:var(--color-0,hsl(0 0 0/0.85))"></path>
  <path d="M7.28711 16.2832C6.5625 16.2832 6.04297 15.9277 6.04297 15.2168C6.04297 14.4922 6.53516 14.1094 7.28711 14.1094L17.8828 14.1094C18.6348 14.1094 19.127 14.4922 19.127 15.2168C19.127 15.9277 18.6074 16.2832 17.8828 16.2832ZM7.28711 11.0742C6.5625 11.0742 6.04297 10.7188 6.04297 9.99414C6.04297 9.26953 6.53516 8.90039 7.28711 8.90039L17.8828 8.90039C18.6348 8.90039 19.127 9.26953 19.127 9.99414C19.127 10.7188 18.6074 11.0742 17.8828 11.0742Z" style="fill:var(--color-1,white)"></path>
 </g>
</svg>