<svg version="1.1" xmlns="http://www.w3.org/2000/svg" xmlns:xlink="http://www.w3.org/1999/xlink" viewBox="0 0 39.4615 31.2406">
 <g>
  
  <path d="M26.3548 27.2619C26.3548 27.8634 25.8489 28.3556 25.2474 28.3556L17.0853 28.3556L19.2864 26.1545L25.2474 26.1545C25.8489 26.1545 26.3548 26.6603 26.3548 27.2619Z" style="fill:var(--color-0,hsl(0 0 0/0.85))"></path>
  <path d="M37.2239 27.2619C37.2239 27.8634 36.7317 28.3556 36.1302 28.3556L29.3353 28.3556C28.7337 28.3556 28.2278 27.8634 28.2278 27.2619C28.2278 26.6603 28.7337 26.1545 29.3353 26.1545L36.1302 26.1545C36.7317 26.1545 37.2239 26.6603 37.2239 27.2619Z" style="fill:var(--color-1,hsl(0 0 0/0.85))"></path>
  <path d="M6.03838 13.3713L17.4817 24.8146L27.9134 14.3693C29.1302 13.1525 29.1028 11.4298 27.8587 10.1857L20.6673 2.96696C19.4232 1.72282 17.6868 1.70914 16.47 2.92594ZM3.46807 22.422L8.41729 27.3713C10.4681 29.4084 12.7923 29.4904 14.7337 27.549L16.1556 26.1271L4.71221 14.6838L3.27667 16.092C1.33526 18.047 1.41729 20.3713 3.46807 22.422Z" style="fill:var(--color-2,hsl(0 0 0/0.85))"></path>
 </g>
</svg>