<?xml version="1.0" encoding="UTF-8"?>
<!--Generator: Apple Native CoreSVG 326-->
<!DOCTYPE svg
PUBLIC "-//W3C//DTD SVG 1.1//EN"
       "http://www.w3.org/Graphics/SVG/1.1/DTD/svg11.dtd">
<svg version="1.1" xmlns="http://www.w3.org/2000/svg" xmlns:xlink="http://www.w3.org/1999/xlink" viewBox="0 0 39.4615 31.2406">
 <g>
  <rect height="31.2406" opacity="0" width="39.4615" x="0" y="0"/>
  <path d="M26.3548 27.2619C26.3548 27.8634 25.8489 28.3556 25.2474 28.3556L17.0853 28.3556L19.2864 26.1545L25.2474 26.1545C25.8489 26.1545 26.3548 26.6603 26.3548 27.2619Z" fill="white" fill-opacity="0.85"/>
  <path d="M37.2239 27.2619C37.2239 27.8634 36.7317 28.3556 36.1302 28.3556L29.3353 28.3556C28.7337 28.3556 28.2278 27.8634 28.2278 27.2619C28.2278 26.6603 28.7337 26.1545 29.3353 26.1545L36.1302 26.1545C36.7317 26.1545 37.2239 26.6603 37.2239 27.2619Z" fill="white" fill-opacity="0.85"/>
  <path d="M3.4544 22.2716L8.75909 27.549C10.8099 29.5998 13.1204 29.6818 15.0755 27.7404L28.2415 14.547C29.4583 13.3439 29.4446 11.6076 28.2005 10.3634L20.6536 2.81657C19.4095 1.57243 17.6732 1.54508 16.4564 2.76188L3.27667 15.9416C1.33526 17.8966 1.41729 20.2072 3.4544 22.2716ZM5.01299 20.7131C3.96026 19.6466 3.91924 18.4298 4.90362 17.4181L17.9329 4.4025C18.2747 4.04704 18.7669 4.04704 19.1087 4.38883L26.6282 11.9084C26.97 12.2502 26.9564 12.7287 26.6146 13.0705L13.5853 26.0998C12.5872 27.1115 11.3704 27.0568 10.3177 25.9904ZM5.45049 15.2716L15.7317 25.5666L17.0989 24.1994L6.84503 13.9455Z" fill="white" fill-opacity="0.85"/>
 </g>
</svg>
