<svg version="1.1" xmlns="http://www.w3.org/2000/svg" xmlns:xlink="http://www.w3.org/1999/xlink" viewBox="0 0 28.2461 27.9043">
 <g>
  
  <path d="M13.9453 27.8906C21.6426 27.8906 27.8906 21.6426 27.8906 13.9453C27.8906 6.24805 21.6426 0 13.9453 0C13.3027 0 12.7832 0.519531 12.7832 1.16211C12.7832 1.80469 13.3027 2.33789 13.9453 2.33789C20.3574 2.33789 25.5527 7.5332 25.5527 13.9453C25.5527 20.3574 20.3574 25.5527 13.9453 25.5527C7.5332 25.5527 2.33789 20.3574 2.33789 13.9453C2.33789 13.3027 1.81836 12.7695 1.16211 12.7695C0.519531 12.7695 0 13.3027 0 13.9453C0 21.6426 6.24805 27.8906 13.9453 27.8906Z" style="fill:var(--color-0,hsl(0 0 0/0.85))"></path>
  <path d="M0.560547 8.38086C0.560547 8.99609 1.06641 9.48828 1.66797 9.48828C2.26953 9.48828 2.76172 8.99609 2.76172 8.38086C2.76172 7.73828 2.76172 5.6875 2.625 4.2793L4.93555 6.91797L12.0723 14.0684C12.332 14.3281 12.6191 14.4648 12.9336 14.4648C13.6309 14.4648 14.1367 13.9453 14.1367 13.2617C14.1367 12.9473 14 12.6191 13.7539 12.373L6.61719 5.25L3.99219 2.91211C5.50977 3.10352 7.42383 3.08984 8.09375 3.08984C8.70898 3.08984 9.20117 2.58398 9.20117 1.96875C9.20117 1.35352 8.70898 0.861328 8.09375 0.861328L1.95508 0.861328C1.05273 0.861328 0.560547 1.33984 0.560547 2.24219Z" style="fill:var(--color-1,hsl(0 0 0/0.85))"></path>
 </g>
</svg>