<?xml version="1.0" encoding="UTF-8"?>
<!--Generator: Apple Native CoreSVG 326-->
<!DOCTYPE svg
PUBLIC "-//W3C//DTD SVG 1.1//EN"
       "http://www.w3.org/Graphics/SVG/1.1/DTD/svg11.dtd">
<svg version="1.1" xmlns="http://www.w3.org/2000/svg" xmlns:xlink="http://www.w3.org/1999/xlink" viewBox="0 0 25.5254 25.1699">
 <g>
  <rect height="25.1699" opacity="0" width="25.5254" x="0" y="0"/>
  <path d="M4.29297 25.1699L20.877 25.1699C23.748 25.1699 25.1699 23.7617 25.1699 20.9453L25.1699 4.23828C25.1699 1.42188 23.748 0 20.877 0L4.29297 0C1.43555 0 0 1.42188 0 4.23828L0 20.9453C0 23.7617 1.43555 25.1699 4.29297 25.1699ZM4.32031 22.9688C2.95312 22.9688 2.20117 22.2441 2.20117 20.8223L2.20117 4.36133C2.20117 2.93945 2.95312 2.20117 4.32031 2.20117L20.8496 2.20117C22.2031 2.20117 22.9688 2.93945 22.9688 4.36133L22.9688 20.8223C22.9688 22.2441 22.2031 22.9688 20.8496 22.9688Z" fill="white" fill-opacity="0.85"/>
  <path d="M14.2598 18.5938C14.6426 18.5938 15.1211 18.5664 15.5039 18.4844C15.9141 18.375 16.2285 18.1836 16.2285 17.7734C16.2285 17.3359 15.9414 17.1309 15.5039 17.1309C15.0527 17.1309 14.8887 17.1855 14.3418 17.1855C11.4023 17.1855 9.59766 15.5176 9.59766 12.5234C9.59766 9.57031 11.293 7.83398 14.3008 7.83398C14.793 7.83398 15.2168 7.88867 15.5039 7.88867C15.9414 7.88867 16.2285 7.66992 16.2285 7.23242C16.2285 6.86328 15.9961 6.63086 15.5039 6.50781C15.1758 6.43945 14.7383 6.39844 14.2598 6.39844C10.8418 6.39844 7.95703 8.35352 7.95703 12.5098C7.95703 16.4199 10.541 18.5938 14.2598 18.5938ZM6.11133 11.2656C6.11133 11.5117 6.31641 11.7168 6.5625 11.7168L14.123 11.7168C14.3691 11.7168 14.5742 11.5117 14.5742 11.2656C14.5742 11.0195 14.3691 10.8145 14.123 10.8145L6.5625 10.8145C6.31641 10.8145 6.11133 11.0195 6.11133 11.2656ZM6.11133 13.7266C6.11133 13.9727 6.31641 14.1777 6.5625 14.1777L14.123 14.1777C14.3691 14.1777 14.5742 13.9727 14.5742 13.7266C14.5742 13.4668 14.3691 13.2617 14.123 13.2617L6.5625 13.2617C6.31641 13.2617 6.11133 13.4668 6.11133 13.7266Z" fill="white" fill-opacity="0.85"/>
 </g>
</svg>
