<svg version="1.1" xmlns="http://www.w3.org/2000/svg" xmlns:xlink="http://www.w3.org/1999/xlink" viewBox="0 0 30.9258 30.584">
 <g>
  
  <path d="M15.2852 30.5703C23.6797 30.5703 30.5703 23.6797 30.5703 15.2852C30.5703 6.89062 23.6797 0 15.2852 0C6.89062 0 0 6.89062 0 15.2852C0 23.6797 6.89062 30.5703 15.2852 30.5703ZM15.2852 25.4844C9.65234 25.4844 5.08594 20.918 5.08594 15.2852C5.08594 9.63867 9.65234 5.08594 15.2852 5.08594C20.9316 5.08594 25.4844 9.63867 25.4844 15.2852C25.4844 20.918 20.9316 25.4844 15.2852 25.4844Z" style="fill:var(--color-0,hsl(0 0 0/0.85))"></path>
  <path d="M9.61133 20.5078L13.6855 20.5078C14.082 20.5078 14.3418 20.2754 14.3418 19.8652C14.3418 19.4688 14.082 19.2363 13.6855 19.2363L10.3633 19.2363L10.3633 15.8047L13.5352 15.8047C13.8906 15.8047 14.1367 15.5586 14.1367 15.1895C14.1367 14.834 13.8906 14.5879 13.5352 14.5879L10.3633 14.5879L10.3633 11.3613L13.6855 11.3613C14.082 11.3613 14.3418 11.1152 14.3418 10.7188C14.3418 10.3086 14.082 10.0898 13.6855 10.0898L9.61133 10.0898C9.14648 10.0898 8.88672 10.377 8.88672 10.8418L8.88672 19.7422C8.88672 20.2207 9.13281 20.5078 9.61133 20.5078ZM16.584 20.5078L21.5879 20.5078C21.957 20.5078 22.1895 20.248 22.1895 19.8652C22.1895 19.4961 21.957 19.2363 21.5879 19.2363L17.5547 19.2363L17.5547 19.168L21.8477 11.4707C21.9707 11.2656 22.0664 11.0742 22.0664 10.8145C22.0664 10.418 21.8066 10.0898 21.3008 10.0898L16.543 10.0898C16.1465 10.0898 15.873 10.3223 15.873 10.7188C15.873 11.1016 16.1465 11.3613 16.543 11.3613L20.3984 11.3613L20.3984 11.4297L16.0371 19.1543C15.9277 19.3594 15.8457 19.5508 15.8457 19.7969C15.8457 20.2617 16.2012 20.5078 16.584 20.5078Z" style="fill:var(--color-1,hsl(0 0 0/0.85))"></path>
 </g>
</svg>