<?xml version="1.0" encoding="UTF-8"?>
<!--Generator: Apple Native CoreSVG 326-->
<!DOCTYPE svg
PUBLIC "-//W3C//DTD SVG 1.1//EN"
       "http://www.w3.org/Graphics/SVG/1.1/DTD/svg11.dtd">
<svg version="1.1" xmlns="http://www.w3.org/2000/svg" xmlns:xlink="http://www.w3.org/1999/xlink" viewBox="0 0 33.291 27.3099">
 <g>
  <rect height="27.3099" opacity="0" width="33.291" x="0" y="0"/>
  <path d="M32.9355 16.3962C32.9355 7.78289 26.3184 0.714533 17.8965 0.00359537C17.459-0.0374203 17.1309 0.277033 17.1309 0.714533L17.1309 5.18524C17.1309 5.55438 17.3906 5.84149 17.7598 5.86883C22.9961 6.51141 27.0703 10.9821 27.0703 16.3962C27.0703 18.8571 26.2227 21.1266 24.7324 23.027C24.541 23.2595 24.5547 23.5602 24.7598 23.779L28.0273 27.0329C28.3281 27.3337 28.793 27.3337 29.0664 27.0055C31.4863 24.1345 32.9355 20.4294 32.9355 16.3962Z" fill="white" fill-opacity="0.85"/>
  <path d="M0 16.3962C0 20.443 1.44922 24.1481 3.86914 27.0192C4.14258 27.3473 4.59375 27.3337 4.9082 27.0329L8.17578 23.779C8.38086 23.5602 8.39453 23.2595 8.20312 23.027C6.69922 21.1266 5.86523 18.8571 5.86523 16.3962C5.86523 10.9821 9.93945 6.51141 15.1758 5.86883C15.5449 5.84149 15.8047 5.55438 15.8047 5.18524L15.8047 0.714533C15.8047 0.277033 15.4766-0.0374203 15.0391 0.00359537C6.61719 0.714533 0 7.78289 0 16.3962Z" fill="white" fill-opacity="0.85"/>
  <path d="M18.1289 22.5895C18.5117 22.5895 18.9766 22.5759 19.3594 22.4938C19.7695 22.3845 20.0977 22.1794 20.0977 21.7692C20.0977 21.3317 19.7969 21.1266 19.3594 21.1266C18.9082 21.1266 18.7441 21.1813 18.2109 21.1813C15.2578 21.1813 13.4531 19.5134 13.4531 16.5192C13.4531 13.5798 15.1484 11.8434 18.1699 11.8434C18.6484 11.8434 19.0723 11.8981 19.3594 11.8981C19.7969 11.8981 20.0977 11.6794 20.0977 11.2419C20.0977 10.8591 19.8516 10.6266 19.3594 10.5036C19.0312 10.4352 18.6074 10.4079 18.1289 10.4079C14.6973 10.4079 11.8125 12.363 11.8125 16.5055C11.8125 20.4157 14.3965 22.5895 18.1289 22.5895ZM9.9668 15.2751C9.9668 15.5212 10.1719 15.7263 10.418 15.7263L17.9785 15.7263C18.2246 15.7263 18.4297 15.5212 18.4297 15.2751C18.4297 15.0153 18.2246 14.8102 17.9785 14.8102L10.418 14.8102C10.1719 14.8102 9.9668 15.0153 9.9668 15.2751ZM9.9668 17.7223C9.9668 17.9684 10.1719 18.1735 10.418 18.1735L17.9785 18.1735C18.2246 18.1735 18.4297 17.9684 18.4297 17.7223C18.4297 17.4763 18.2246 17.2712 17.9785 17.2712L10.418 17.2712C10.1719 17.2712 9.9668 17.4763 9.9668 17.7223Z" fill="white" fill-opacity="0.85"/>
 </g>
</svg>
