<svg version="1.1" xmlns="http://www.w3.org/2000/svg" xmlns:xlink="http://www.w3.org/1999/xlink" viewBox="0 0 33.291 27.4395">
 <g>
  
  <path d="M32.9355 16.4609C32.9355 12.4414 31.4863 8.73633 29.0664 5.86523C28.793 5.53711 28.3281 5.53711 28.0273 5.85156L24.8555 9.02344C24.5957 9.2832 24.582 9.65234 24.8145 9.93945C26.2227 11.7441 27.0703 14.0137 27.0703 16.4609C27.0703 18.9219 26.2227 21.1914 24.7324 23.0918C24.541 23.3242 24.5547 23.625 24.7598 23.8438L28.0137 27.0977C28.3281 27.4121 28.7793 27.4121 29.0664 27.0703C31.4863 24.1992 32.9355 20.4941 32.9355 16.4609Z" style="fill:var(--color-0,hsl(0 0 0/0.85))"></path>
  <path d="M16.4609 5.86523C18.9355 5.86523 21.2051 6.72656 23.0234 8.13477C23.2969 8.35352 23.6523 8.32617 23.9121 8.06641L27.084 4.89453C27.3984 4.58008 27.3848 4.12891 27.0566 3.85547C24.1992 1.44922 20.4941 0 16.4609 0C12.4414 0 8.73633 1.44922 5.87891 3.85547C5.55078 4.12891 5.53711 4.58008 5.85156 4.89453L9.02344 8.06641C9.2832 8.32617 9.65234 8.35352 9.95312 8.12109C11.7578 6.72656 14.0137 5.86523 16.4609 5.86523Z" style="fill:var(--color-1,hsl(0 0 0/0.85))"></path>
  <path d="M0 16.4609C0 20.4941 1.44922 24.1992 3.86914 27.0703C4.14258 27.4121 4.60742 27.4121 4.9082 27.0977L8.16211 23.8438C8.36719 23.625 8.39453 23.3242 8.20312 23.0918C6.71289 21.1914 5.86523 18.9219 5.86523 16.4609C5.86523 14.0137 6.69922 11.7441 8.12109 9.93945C8.33984 9.65234 8.33984 9.2832 8.08008 9.02344L4.9082 5.85156C4.59375 5.53711 4.14258 5.53711 3.86914 5.86523C1.44922 8.73633 0 12.4414 0 16.4609Z" style="fill:var(--color-2,hsl(0 0 0/0.85))"></path>
  <path d="M18.1289 22.6543C18.5117 22.6543 18.9766 22.6406 19.3594 22.5586C19.7695 22.4492 20.0977 22.2441 20.0977 21.834C20.0977 21.3965 19.7969 21.1914 19.3594 21.1914C18.9082 21.1914 18.7441 21.2461 18.2109 21.2461C15.2578 21.2461 13.4531 19.5781 13.4531 16.584C13.4531 13.6445 15.1484 11.9082 18.1699 11.9082C18.6484 11.9082 19.0723 11.9629 19.3594 11.9629C19.7969 11.9629 20.0977 11.7441 20.0977 11.3066C20.0977 10.9238 19.8516 10.6914 19.3594 10.5684C19.0312 10.5 18.6074 10.4727 18.1289 10.4727C14.6973 10.4727 11.8125 12.4277 11.8125 16.5703C11.8125 20.4805 14.3965 22.6543 18.1289 22.6543ZM9.9668 15.3398C9.9668 15.5859 10.1719 15.791 10.418 15.791L17.9785 15.791C18.2246 15.791 18.4297 15.5859 18.4297 15.3398C18.4297 15.0801 18.2246 14.875 17.9785 14.875L10.418 14.875C10.1719 14.875 9.9668 15.0801 9.9668 15.3398ZM9.9668 17.7871C9.9668 18.0332 10.1719 18.2383 10.418 18.2383L17.9785 18.2383C18.2246 18.2383 18.4297 18.0332 18.4297 17.7871C18.4297 17.541 18.2246 17.3359 17.9785 17.3359L10.418 17.3359C10.1719 17.3359 9.9668 17.541 9.9668 17.7871Z" style="fill:var(--color-3,hsl(0 0 0/0.85))"></path>
 </g>
</svg>