<svg version="1.1" xmlns="http://www.w3.org/2000/svg" xmlns:xlink="http://www.w3.org/1999/xlink" viewBox="0 0 28.2461 27.9043">
 <g>
  
  <path d="M13.9453 27.8906C21.6426 27.8906 27.8906 21.6289 27.8906 13.9453C27.8906 6.24805 21.6426 0 13.9453 0C6.26172 0 0 6.24805 0 13.9453C0 21.6289 6.26172 27.8906 13.9453 27.8906Z" style="fill:var(--color-0,hsl(0 0 0/0.85))"></path>
  <path d="M15.709 20.1523C12.4551 20.1523 10.0488 18.5527 9.39258 15.5996L7.76562 15.5996C7.50586 15.5996 7.28711 15.3809 7.28711 15.1348C7.28711 14.8613 7.50586 14.6562 7.76562 14.6562L9.24219 14.6562C9.21484 14.4102 9.20117 14.1367 9.20117 13.877C9.20117 13.5898 9.21484 13.3164 9.24219 13.0566L7.76562 13.0566C7.50586 13.0566 7.28711 12.8516 7.28711 12.5918C7.28711 12.332 7.50586 12.127 7.76562 12.127L9.39258 12.127C10.0898 9.05078 12.7012 7.58789 15.709 7.58789C16.2012 7.58789 16.6387 7.61523 16.9805 7.68359C17.5 7.80664 17.7461 8.05273 17.7461 8.43555C17.7461 8.88672 17.4453 9.11914 16.9941 9.11914C16.6934 9.11914 16.2559 9.06445 15.75 9.06445C13.3164 9.06445 11.7168 10.1719 11.1426 12.127L15.5723 12.127C15.8184 12.127 16.0371 12.332 16.0371 12.5918C16.0371 12.8516 15.8184 13.0566 15.5723 13.0566L10.9512 13.0566C10.9102 13.3164 10.9102 13.6035 10.9102 13.8906C10.9102 14.1504 10.9102 14.4102 10.9512 14.6562L15.5723 14.6562C15.8184 14.6562 16.0371 14.8613 16.0371 15.1348C16.0371 15.3809 15.8184 15.5996 15.5723 15.5996L11.1289 15.5996C11.7168 17.5957 13.3848 18.7031 15.791 18.7031C16.3652 18.7031 16.5293 18.6348 16.9941 18.6348C17.4453 18.6348 17.7461 18.8535 17.7461 19.3047C17.7461 19.7285 17.418 19.9336 16.9805 20.043C16.5977 20.125 16.1055 20.1523 15.709 20.1523Z" style="fill:var(--color-1,white)"></path>
 </g>
</svg>