<svg version="1.1" xmlns="http://www.w3.org/2000/svg" xmlns:xlink="http://www.w3.org/1999/xlink" viewBox="0 0 33.5234 25.1699">
 <g>
  
  <path d="M1.32617 25.1426L12.4141 25.1426C13.166 25.1426 13.6582 24.6504 13.6582 23.9395C13.6582 23.2148 13.1523 22.7227 12.4141 22.7227L2.70703 22.7227L2.70703 13.4668L11.9219 13.4668C12.6875 13.4668 13.125 12.9336 13.125 12.2773C13.125 11.6484 12.7285 11.0879 11.9219 11.0879L2.70703 11.0879L2.70703 2.44727L12.4141 2.44727C13.1387 2.44727 13.6582 1.94141 13.6582 1.2168C13.6582 0.505859 13.166 0 12.4141 0L1.32617 0C0.533203 0 0 0.533203 0 1.4082L0 23.748C0 24.6504 0.560547 25.1426 1.32617 25.1426ZM18.4023 25.1426L31.9512 25.1426C32.7031 25.1426 33.168 24.6094 33.168 23.9395C33.168 23.2012 32.6758 22.7227 31.9512 22.7227L20.2754 22.7227L20.2754 22.5859L32.3887 2.69336C32.6484 2.25586 32.8125 1.91406 32.8125 1.39453C32.8125 0.615234 32.2656 0 31.3633 0L18.4434 0C17.7051 0 17.1719 0.464844 17.1719 1.2168C17.1719 1.94141 17.6777 2.44727 18.4434 2.44727L29.627 2.44727L29.627 2.57031L17.4316 22.4902C17.1719 22.8867 16.9941 23.2559 16.9941 23.7617C16.9941 24.7051 17.6777 25.1426 18.4023 25.1426Z" style="fill:var(--color-0,hsl(0 0 0/0.85))"></path>
 </g>
</svg>