<svg version="1.1" xmlns="http://www.w3.org/2000/svg" xmlns:xlink="http://www.w3.org/1999/xlink" viewBox="0 0 30.8848 29.1895">
 <g>
  
  <path d="M1.81836 25.9219L28.7109 25.9219L28.7109 25.0059C28.7109 24.459 28.3965 24.1309 27.8359 24.1309L26.9609 24.1309L26.9609 9.37891L28.1641 9.37891C28.916 9.37891 29.3535 8.83203 29.3535 8.27148C29.3535 7.86133 29.1211 7.50586 28.6152 7.21875L16.9395 0.478516C16.3926 0.164062 15.8184 0 15.2578 0C14.6973 0 14.1094 0.164062 13.5898 0.478516L1.91406 7.21875C1.39453 7.50586 1.17578 7.86133 1.17578 8.27148C1.17578 8.83203 1.61328 9.37891 2.36523 9.37891L3.56836 9.37891L3.56836 24.1309L2.70703 24.1309C2.14648 24.1309 1.81836 24.459 1.81836 25.0059ZM5.63281 24.1309L5.63281 7.62891L14.7246 2.5293C14.8887 2.43359 15.0801 2.37891 15.2578 2.37891C15.4355 2.37891 15.627 2.43359 15.8047 2.5293L24.8965 7.62891L24.8965 24.1309ZM1.09375 29.1758L29.4219 29.1758C30.0234 29.1758 30.5293 28.6699 30.5293 28.0684C30.5293 27.4668 30.0234 26.9746 29.4219 26.9746L1.09375 26.9746C0.492188 26.9746 0 27.4668 0 28.0684C0 28.6699 0.492188 29.1758 1.09375 29.1758Z" style="fill:var(--color-0,hsl(0 0 0/0.85))"></path>
  <path d="M16.9395 20.3984C17.3223 20.3984 17.7871 20.3848 18.1699 20.3027C18.5938 20.1934 18.9082 19.9883 18.9082 19.5781C18.9082 19.1406 18.6211 18.9355 18.1836 18.9355C17.7324 18.9355 17.5684 18.9902 17.0215 18.9902C14.082 18.9902 12.2773 17.3223 12.2773 14.3281C12.2773 11.3887 13.9727 9.65234 16.9805 9.65234C17.4727 9.65234 17.8965 9.70703 18.1836 9.70703C18.6211 9.70703 18.9082 9.48828 18.9082 9.05078C18.9082 8.66797 18.6758 8.43555 18.1699 8.3125C17.8418 8.24414 17.418 8.2168 16.9395 8.2168C13.5215 8.2168 10.6367 10.1719 10.6367 14.3145C10.6367 18.2246 13.2207 20.3984 16.9395 20.3984ZM8.77734 13.084C8.77734 13.3301 8.98242 13.5352 9.24219 13.5352L16.8027 13.5352C17.0488 13.5352 17.2539 13.3301 17.2539 13.084C17.2539 12.8242 17.0488 12.6191 16.8027 12.6191L9.24219 12.6191C8.98242 12.6191 8.77734 12.8242 8.77734 13.084ZM8.77734 15.5312C8.77734 15.7773 8.98242 15.9824 9.24219 15.9824L16.8027 15.9824C17.0488 15.9824 17.2539 15.7773 17.2539 15.5312C17.2539 15.2852 17.0488 15.0801 16.8027 15.0801L9.24219 15.0801C8.98242 15.0801 8.77734 15.2852 8.77734 15.5312Z" style="fill:var(--color-1,hsl(0 0 0/0.85))"></path>
 </g>
</svg>