<svg version="1.1" xmlns="http://www.w3.org/2000/svg" xmlns:xlink="http://www.w3.org/1999/xlink" viewBox="0 0 33.5408 27.9043">
 <g>
  
  <path d="M16.5995 27.8906C24.2968 27.8906 30.5448 21.6426 30.5448 13.9453C30.5448 6.24805 24.2968 0 16.5995 0C8.90224 0 2.65419 6.24805 2.65419 13.9453L4.97841 13.9453C4.97841 7.51953 10.1737 2.32422 16.5995 2.32422C23.0253 2.32422 28.2206 7.51953 28.2206 13.9453C28.2206 20.3711 23.0253 25.5664 16.5995 25.5664C12.7167 25.5664 9.2577 23.6523 7.19325 20.7539C6.76942 20.1934 6.12684 20.0156 5.55263 20.3574C5.00575 20.6992 4.84169 21.4648 5.30653 22.0664C7.83583 25.6074 11.9784 27.8906 16.5995 27.8906ZM0.972548 11.3066C-0.0118272 11.3066-0.257921 11.9766 0.275282 12.7422L3.33778 17.0898C3.78895 17.7188 4.4452 17.7051 4.8827 17.0898L7.93153 12.7285C8.46474 11.9766 8.20497 11.3066 7.24794 11.3066Z" style="fill:var(--color-0,hsl(0 0 0/0.85))"></path>
  <path d="M10.8573 19.2363L14.9862 19.2363C15.3827 19.2363 15.6561 18.9902 15.6561 18.5801C15.6561 18.1699 15.3827 17.9375 14.9862 17.9375L11.6229 17.9375L11.6229 14.4785L14.8358 14.4785C15.205 14.4785 15.4511 14.2188 15.4511 13.8496C15.4511 13.4805 15.205 13.248 14.8358 13.248L11.6229 13.248L11.6229 9.9668L14.9862 9.9668C15.3827 9.9668 15.6561 9.73438 15.6561 9.32422C15.6561 8.91406 15.3827 8.69531 14.9862 8.69531L10.8573 8.69531C10.3925 8.69531 10.1327 8.98242 10.1327 9.46094L10.1327 18.457C10.1327 18.9355 10.3788 19.2363 10.8573 19.2363ZM17.9257 19.2363L22.9706 19.2363C23.3534 19.2363 23.5858 18.9629 23.5858 18.5801C23.5858 18.1973 23.3534 17.9375 22.9706 17.9375L18.8964 17.9375L18.8964 17.8691L23.244 10.0898C23.3534 9.88477 23.4628 9.67969 23.4628 9.41992C23.4628 9.02344 23.203 8.69531 22.6835 8.69531L17.871 8.69531C17.4745 8.69531 17.2011 8.92773 17.2011 9.32422C17.2011 9.7207 17.4745 9.9668 17.871 9.9668L21.7675 9.9668L21.7675 10.0352L17.3651 17.8555C17.2421 18.0605 17.1737 18.2656 17.1737 18.498C17.1737 18.9902 17.5292 19.2363 17.9257 19.2363Z" style="fill:var(--color-1,hsl(0 0 0/0.85))"></path>
 </g>
</svg>