<svg version="1.1" xmlns="http://www.w3.org/2000/svg" xmlns:xlink="http://www.w3.org/1999/xlink" viewBox="0 0 30.9258 30.584">
 <g>
  
  <path d="M15.2852 30.5703C23.6797 30.5703 30.5703 23.6797 30.5703 15.2852C30.5703 6.89062 23.6797 0 15.2852 0C6.89062 0 0 6.89062 0 15.2852C0 23.6797 6.89062 30.5703 15.2852 30.5703ZM15.2852 25.4844C9.65234 25.4844 5.08594 20.918 5.08594 15.2852C5.08594 9.63867 9.65234 5.08594 15.2852 5.08594C20.9316 5.08594 25.4844 9.63867 25.4844 15.2852C25.4844 20.918 20.9316 25.4844 15.2852 25.4844Z" style="fill:var(--color-0,hsl(0 0 0/0.85))"></path>
  <path d="M16.9531 21.3008C17.3359 21.3008 17.8145 21.2734 18.1973 21.1914C18.6074 21.082 18.9219 20.8906 18.9219 20.4805C18.9219 20.043 18.6348 19.8379 18.1973 19.8379C17.7461 19.8379 17.582 19.8926 17.0352 19.8926C14.0957 19.8926 12.291 18.2246 12.291 15.2305C12.291 12.2773 13.9863 10.541 16.9941 10.541C17.4863 10.541 17.9102 10.5957 18.1973 10.5957C18.6348 10.5957 18.9219 10.377 18.9219 9.93945C18.9219 9.57031 18.6895 9.33789 18.1973 9.21484C17.8691 9.14648 17.4316 9.10547 16.9531 9.10547C13.5352 9.10547 10.6504 11.0605 10.6504 15.2168C10.6504 19.127 13.2344 21.3008 16.9531 21.3008ZM8.80469 13.9727C8.80469 14.2188 9.00977 14.4238 9.25586 14.4238L16.8164 14.4238C17.0625 14.4238 17.2676 14.2188 17.2676 13.9727C17.2676 13.7266 17.0625 13.5215 16.8164 13.5215L9.25586 13.5215C9.00977 13.5215 8.80469 13.7266 8.80469 13.9727ZM8.80469 16.4336C8.80469 16.6797 9.00977 16.8848 9.25586 16.8848L16.8164 16.8848C17.0625 16.8848 17.2676 16.6797 17.2676 16.4336C17.2676 16.1738 17.0625 15.9688 16.8164 15.9688L9.25586 15.9688C9.00977 15.9688 8.80469 16.1738 8.80469 16.4336Z" style="fill:var(--color-1,hsl(0 0 0/0.85))"></path>
 </g>
</svg>