<svg version="1.1" xmlns="http://www.w3.org/2000/svg" xmlns:xlink="http://www.w3.org/1999/xlink" viewBox="0 0 30.8848 29.1895">
 <g>
  
  <path d="M1.81836 27.5898L28.7109 27.5898L28.7109 25.9766C28.7109 25.4297 28.3965 25.1016 27.8359 25.1016L26.9609 25.1016L26.9609 9.37891L28.1641 9.37891C28.916 9.37891 29.3535 8.83203 29.3535 8.27148C29.3535 7.86133 29.1211 7.50586 28.6152 7.21875L16.9395 0.478516C16.3926 0.164062 15.8184 0 15.2578 0C14.6973 0 14.1094 0.164062 13.5898 0.478516L1.91406 7.21875C1.39453 7.50586 1.17578 7.86133 1.17578 8.27148C1.17578 8.83203 1.61328 9.37891 2.36523 9.37891L3.56836 9.37891L3.56836 25.1016L2.70703 25.1016C2.14648 25.1016 1.81836 25.4297 1.81836 25.9766ZM1.09375 29.1758L29.4219 29.1758C30.0234 29.1758 30.5293 28.6699 30.5293 28.0684C30.5293 27.4668 30.0234 26.9746 29.4219 26.9746L1.09375 26.9746C0.492188 26.9746 0 27.4668 0 28.0684C0 28.6699 0.492188 29.1758 1.09375 29.1758Z" style="fill:var(--color-0,hsl(0 0 0/0.85))"></path>
  <path d="M9.59766 20.8359C9.10547 20.8359 8.87305 20.5488 8.87305 20.0566L8.87305 11.1836C8.87305 10.7051 9.11914 10.418 9.59766 10.418L13.6582 10.418C14.082 10.418 14.3281 10.6367 14.3281 11.0469C14.3281 11.4434 14.082 11.6895 13.6582 11.6895L10.3496 11.6895L10.3496 14.916L13.5215 14.916C13.877 14.916 14.1367 15.1484 14.1367 15.5176C14.1367 15.8867 13.877 16.1328 13.5215 16.1328L10.3496 16.1328L10.3496 19.5508L13.6582 19.5508C14.082 19.5508 14.3281 19.7969 14.3281 20.1934C14.3281 20.6035 14.082 20.8359 13.6582 20.8359ZM16.584 20.8359C16.1875 20.8359 15.832 20.5898 15.832 20.1113C15.832 19.8789 15.9141 19.6738 16.0234 19.4688L20.3711 11.7578L20.3711 11.6895L16.5293 11.6895C16.1465 11.6895 15.8594 11.4297 15.8594 11.0469C15.8594 10.6504 16.1465 10.418 16.5293 10.418L21.3008 10.418C21.793 10.418 22.0527 10.7461 22.0527 11.1426C22.0527 11.3887 21.957 11.5938 21.834 11.7988L17.541 19.4824L17.541 19.5508L21.5879 19.5508C21.957 19.5508 22.1895 19.8242 22.1895 20.1934C22.1895 20.5762 21.957 20.8359 21.5879 20.8359Z" style="fill:var(--color-1,white)"></path>
 </g>
</svg>