<?xml version="1.0" encoding="UTF-8"?>
<!--Generator: Apple Native CoreSVG 326-->
<!DOCTYPE svg
PUBLIC "-//W3C//DTD SVG 1.1//EN"
       "http://www.w3.org/Graphics/SVG/1.1/DTD/svg11.dtd">
<svg version="1.1" xmlns="http://www.w3.org/2000/svg" xmlns:xlink="http://www.w3.org/1999/xlink" viewBox="0 0 28.2461 27.9043">
 <g>
  <rect height="27.9043" opacity="0" width="28.2461" x="0" y="0"/>
  <path d="M13.9453 27.8906C21.6426 27.8906 27.8906 21.6426 27.8906 13.9453C27.8906 6.24805 21.6426 0 13.9453 0C6.24805 0 0 6.24805 0 13.9453C0 21.6426 6.24805 27.8906 13.9453 27.8906ZM13.9453 25.5664C7.51953 25.5664 2.32422 20.3711 2.32422 13.9453C2.32422 7.51953 7.51953 2.32422 13.9453 2.32422C20.3711 2.32422 25.5664 7.51953 25.5664 13.9453C25.5664 20.3711 20.3711 25.5664 13.9453 25.5664Z" fill="white" fill-opacity="0.85"/>
  <path d="M7.94336 19.4414L12.2363 19.4414C12.6602 19.4414 12.9336 19.1953 12.9336 18.7715C12.9336 18.3477 12.6602 18.1016 12.2363 18.1016L8.73633 18.1016L8.73633 14.4922L12.0859 14.4922C12.4688 14.4922 12.7285 14.2324 12.7285 13.8496C12.7285 13.4668 12.4688 13.2207 12.0859 13.2207L8.73633 13.2207L8.73633 9.80273L12.2363 9.80273C12.6602 9.80273 12.9336 9.55664 12.9336 9.13281C12.9336 8.70898 12.6602 8.47656 12.2363 8.47656L7.94336 8.47656C7.46484 8.47656 7.19141 8.79102 7.19141 9.26953L7.19141 18.6348C7.19141 19.1406 7.45117 19.4414 7.94336 19.4414ZM15.2988 19.4414L20.5625 19.4414C20.959 19.4414 21.2051 19.168 21.2051 18.7715C21.2051 18.375 20.959 18.1016 20.5625 18.1016L16.3105 18.1016L16.3105 18.0332L20.8359 9.92578C20.959 9.70703 21.0547 9.50195 21.0547 9.22852C21.0547 8.81836 20.7949 8.47656 20.2617 8.47656L15.2441 8.47656C14.834 8.47656 14.5469 8.72266 14.5469 9.13281C14.5469 9.54297 14.834 9.80273 15.2441 9.80273L19.3047 9.80273L19.3047 9.88477L14.7246 18.0195C14.6016 18.2246 14.5195 18.4434 14.5195 18.6895C14.5195 19.1953 14.8887 19.4414 15.2988 19.4414Z" fill="white" fill-opacity="0.85"/>
 </g>
</svg>
