<?xml version="1.0" encoding="UTF-8"?>
<!--Generator: Apple Native CoreSVG 326-->
<!DOCTYPE svg
PUBLIC "-//W3C//DTD SVG 1.1//EN"
       "http://www.w3.org/Graphics/SVG/1.1/DTD/svg11.dtd">
<svg version="1.1" xmlns="http://www.w3.org/2000/svg" xmlns:xlink="http://www.w3.org/1999/xlink" viewBox="0 0 28.2461 27.9043">
 <g>
  <rect height="27.9043" opacity="0" width="28.2461" x="0" y="0"/>
  <path d="M13.9453 27.8906C21.6426 27.8906 27.8906 21.6289 27.8906 13.9453C27.8906 6.24805 21.6426 0 13.9453 0C6.26172 0 0 6.24805 0 13.9453C0 21.6289 6.26172 27.8906 13.9453 27.8906Z" fill="white" fill-opacity="0.85"/>
  <path d="M7.76562 19.6055C7.24609 19.6055 6.98633 19.3047 6.98633 18.7715L6.98633 9.13281C6.98633 8.62695 7.25977 8.3125 7.76562 8.3125L12.1816 8.3125C12.6328 8.3125 12.9062 8.54492 12.9062 8.98242C12.9062 9.41992 12.6328 9.69336 12.1816 9.69336L8.58594 9.69336L8.58594 13.1934L12.0312 13.1934C12.4277 13.1934 12.7012 13.4531 12.7012 13.8496C12.7012 14.2461 12.4277 14.5059 12.0312 14.5059L8.58594 14.5059L8.58594 18.2246L12.1816 18.2246C12.6328 18.2246 12.9062 18.4844 12.9062 18.9219C12.9062 19.3594 12.6328 19.6055 12.1816 19.6055ZM15.3535 19.6055C14.9297 19.6055 14.5469 19.3594 14.5469 18.8262C14.5469 18.5801 14.6289 18.3477 14.752 18.1426L19.4688 9.76172L19.4688 9.69336L15.2988 9.69336C14.875 9.69336 14.5742 9.40625 14.5742 8.98242C14.5742 8.55859 14.875 8.3125 15.2988 8.3125L20.4668 8.3125C21.0137 8.3125 21.2871 8.66797 21.2871 9.0918C21.2871 9.36523 21.1914 9.58398 21.0547 9.80273L16.3926 18.1562L16.3926 18.2246L20.7812 18.2246C21.1914 18.2246 21.4375 18.5117 21.4375 18.9219C21.4375 19.332 21.1914 19.6055 20.7812 19.6055Z" fill="white"/>
 </g>
</svg>
