<?xml version="1.0" encoding="UTF-8"?>
<!--Generator: Apple Native CoreSVG 326-->
<!DOCTYPE svg
PUBLIC "-//W3C//DTD SVG 1.1//EN"
       "http://www.w3.org/Graphics/SVG/1.1/DTD/svg11.dtd">
<svg version="1.1" xmlns="http://www.w3.org/2000/svg" xmlns:xlink="http://www.w3.org/1999/xlink" viewBox="0 0 28.2461 27.9043">
 <g>
  <rect height="27.9043" opacity="0" width="28.2461" x="0" y="0"/>
  <path d="M13.9453 27.8906C21.6426 27.8906 27.8906 21.6426 27.8906 13.9453C27.8906 6.24805 21.6426 0 13.9453 0C6.24805 0 0 6.24805 0 13.9453C0 21.6426 6.24805 27.8906 13.9453 27.8906ZM13.9453 25.5664C7.51953 25.5664 2.32422 20.3711 2.32422 13.9453C2.32422 7.51953 7.51953 2.32422 13.9453 2.32422C20.3711 2.32422 25.5664 7.51953 25.5664 13.9453C25.5664 20.3711 20.3711 25.5664 13.9453 25.5664Z" fill="white" fill-opacity="0.85"/>
  <path d="M8.66797 17.9922C10.8965 17.9922 12.7148 16.1875 12.7148 13.9453C12.7148 11.7031 10.8965 9.89844 8.66797 9.89844C6.42578 9.89844 4.60742 11.7031 4.60742 13.9453C4.60742 16.1875 6.42578 17.9922 8.66797 17.9922ZM19.2363 17.9922C21.4648 17.9922 23.2832 16.1875 23.2832 13.9453C23.2832 11.7031 21.4648 9.89844 19.2363 9.89844C16.9941 9.89844 15.1758 11.7031 15.1758 13.9453C15.1758 16.1875 16.9941 17.9922 19.2363 17.9922ZM11.8809 8.94141C12.127 9.1875 12.5098 9.1875 12.7695 8.94141L13.9316 7.76562L15.1074 8.94141C15.3535 9.1875 15.7363 9.1875 15.9824 8.94141C16.2422 8.69531 16.2422 8.3125 15.9824 8.05273L14.8203 6.87695L15.9824 5.71484C16.2422 5.45508 16.2422 5.07227 15.9824 4.82617C15.7363 4.56641 15.3672 4.56641 15.1074 4.82617L13.9316 6.00195L12.7695 4.82617C12.4961 4.56641 12.127 4.56641 11.8809 4.82617C11.6348 5.07227 11.6348 5.46875 11.8809 5.71484L13.043 6.87695L11.8809 8.05273C11.6348 8.29883 11.6348 8.69531 11.8809 8.94141ZM11.8809 23.0508C12.127 23.3105 12.5098 23.2969 12.7695 23.0508L13.9316 21.875L15.1074 23.0508C15.3535 23.2969 15.7363 23.3105 15.9824 23.0508C16.2422 22.8047 16.2285 22.4082 15.9824 22.1621L14.8203 21L15.9824 19.8242C16.2285 19.5781 16.2422 19.1953 15.9824 18.9355C15.7363 18.6758 15.3535 18.6895 15.1074 18.9355L13.9316 20.1113L12.7695 18.9355C12.5098 18.6895 12.127 18.6758 11.8809 18.9355C11.6211 19.1953 11.6348 19.5781 11.8809 19.8242L13.043 21L11.8809 22.1621C11.6348 22.4082 11.6211 22.8047 11.8809 23.0508Z" fill="white" fill-opacity="0.85"/>
 </g>
</svg>
