<?xml version="1.0" encoding="UTF-8"?>
<!--Generator: Apple Native CoreSVG 326-->
<!DOCTYPE svg
PUBLIC "-//W3C//DTD SVG 1.1//EN"
       "http://www.w3.org/Graphics/SVG/1.1/DTD/svg11.dtd">
<svg version="1.1" xmlns="http://www.w3.org/2000/svg" xmlns:xlink="http://www.w3.org/1999/xlink" viewBox="0 0 31.2812 29.3535">
 <g>
  <rect height="29.3535" opacity="0" width="31.2812" x="0" y="0"/>
  <path d="M23.502 0.683594C27.8496 3.21289 30.9258 8.17578 30.9258 13.8633C30.9258 22.3945 23.9941 29.3262 15.4629 29.3262C6.93164 29.3262 0 22.3945 0 13.8633C0 8.17578 3.07617 3.21289 7.42383 0.683594C8.2168 0.21875 9.02344 0 9.95312 0L20.9727 0C21.9023 0 22.709 0.21875 23.502 0.683594ZM12.5371 21.5332C12.5371 23.1328 13.8496 24.459 15.4629 24.459C17.0762 24.459 18.3887 23.1328 18.3887 21.5332C18.3887 19.9199 17.0762 18.5938 15.4629 18.5938C13.8496 18.5938 12.5371 19.9199 12.5371 21.5332ZM7.80664 21.5332C7.80664 22.4766 8.58594 23.2559 9.54297 23.2559C10.4863 23.2559 11.2656 22.4766 11.2656 21.5332C11.2656 20.5898 10.4863 19.7969 9.54297 19.7969C8.58594 19.7969 7.80664 20.5898 7.80664 21.5332ZM19.6602 21.5332C19.6602 22.4766 20.4395 23.2559 21.3965 23.2559C22.3398 23.2559 23.1191 22.4766 23.1191 21.5332C23.1191 20.5898 22.3398 19.7969 21.3965 19.7969C20.4395 19.7969 19.6602 20.5898 19.6602 21.5332ZM4.26562 13.8496C4.26562 16.1602 6.15234 18.0332 8.46289 18.0332C10.7598 18.0332 12.6328 16.1602 12.6328 13.8496C12.6328 11.5527 10.7598 9.67969 8.46289 9.67969C6.15234 9.67969 4.26562 11.5527 4.26562 13.8496ZM18.293 13.8496C18.293 16.1602 20.166 18.0332 22.4629 18.0332C24.7734 18.0332 26.6602 16.1602 26.6602 13.8496C26.6602 11.5527 24.7734 9.67969 22.4629 9.67969C20.166 9.67969 18.293 11.5527 18.293 13.8496ZM13.5625 10.7871C13.5625 11.8262 14.4102 12.6875 15.4629 12.6875C16.5156 12.6875 17.3633 11.8262 17.3633 10.7871C17.3633 9.73438 16.5156 8.87305 15.4629 8.87305C14.4102 8.87305 13.5625 9.73438 13.5625 10.7871ZM8.98242 6.20703C8.98242 7.25977 9.84375 8.10742 10.8828 8.10742C11.9355 8.10742 12.7969 7.25977 12.7969 6.20703C12.7969 5.1543 11.9355 4.29297 10.8828 4.29297C9.84375 4.29297 8.98242 5.1543 8.98242 6.20703ZM13.5625 6.20703C13.5625 7.25977 14.4102 8.10742 15.4629 8.10742C16.5156 8.10742 17.3633 7.25977 17.3633 6.20703C17.3633 5.1543 16.5156 4.29297 15.4629 4.29297C14.4102 4.29297 13.5625 5.1543 13.5625 6.20703ZM18.1289 6.20703C18.1289 7.25977 18.9902 8.10742 20.043 8.10742C21.0957 8.10742 21.9434 7.25977 21.9434 6.20703C21.9434 5.1543 21.0957 4.29297 20.043 4.29297C18.9902 4.29297 18.1289 5.1543 18.1289 6.20703Z" fill="white" fill-opacity="0.85"/>
 </g>
</svg>
