<svg version="1.1" xmlns="http://www.w3.org/2000/svg" xmlns:xlink="http://www.w3.org/1999/xlink" viewBox="0 0 39.3203 30.502">
 <g>
  
  <path d="M2.17383 29.4766L4.36133 29.4766L4.36133 3.5C4.36133 2.65234 4.78516 2.20117 5.64648 2.20117L17.1445 2.20117C17.9922 2.20117 18.4297 2.63867 18.4297 3.5L18.4434 29.4766L20.6445 29.4766L20.6445 3.47266C20.6445 1.23047 19.4141 0 17.1855 0L5.61914 0C3.36328 0 2.17383 1.23047 2.17383 3.47266ZM6.49414 12.3867L16.3105 12.3867C16.7754 12.3867 17.1172 12.0449 17.1172 11.5801L17.1172 4.33398C17.1172 3.86914 16.7617 3.52734 16.3105 3.52734L6.49414 3.52734C6.0293 3.52734 5.6875 3.86914 5.6875 4.33398L5.6875 11.5801C5.6875 12.0449 6.0293 12.3867 6.49414 12.3867ZM0 29.3809C0 29.9961 0.478516 30.502 1.08008 30.502L21.7109 30.502C22.3125 30.502 22.8047 29.9961 22.8047 29.3809C22.8047 28.793 22.3125 28.3008 21.7109 28.3008L1.08008 28.3008C0.492188 28.3008 0 28.7793 0 29.3809ZM27.9727 13.8223L27.9727 22.5449C27.9727 24.3633 27.1797 25.4023 25.7852 25.4023C24.5273 25.4023 23.7344 24.5684 23.7344 23.2285C23.7344 21.2188 24.0625 18.5527 24.0625 16.1055C24.0625 13.7129 22.8867 11.8945 19.9883 10.9375L19.3184 12.4414C21.5195 13.1113 22.4082 14.4648 22.4082 16.1055C22.4082 18.293 22.0801 20.959 22.0801 23.2285C22.0801 25.5801 23.5156 27.0703 25.7852 27.0703C28.2324 27.0703 29.627 25.416 29.627 22.5449L29.627 13.8223C29.627 12.5918 30.543 12.2637 31.1309 11.7988C32.0059 11.1562 32.4707 10.2402 32.4707 9.17383L32.4707 7.32812C32.4707 7.04102 32.293 6.84961 32.0469 6.84961L31.1719 6.84961L31.1719 4.375C31.1719 4.00586 30.8574 3.69141 30.4746 3.69141C30.1055 3.69141 29.7773 4.00586 29.7773 4.375L29.791 6.84961L27.959 6.84961L27.959 4.375C27.959 4.00586 27.6582 3.69141 27.2891 3.69141C26.8926 3.69141 26.5918 4.00586 26.5918 4.375L26.5918 6.84961L25.5664 6.84961C25.293 6.84961 25.1289 7.04102 25.1289 7.32812L25.1289 9.17383C25.1289 10.2402 25.6074 11.1562 26.4551 11.7988C27.0566 12.2637 27.9727 12.5918 27.9727 13.8223Z" style="fill:var(--color-0,hsl(0 0 0/0.85))"></path>
  <path d="M37.1602 24.418C38.1445 24.418 38.9648 23.625 38.9648 22.6953C38.9648 21.752 38.1582 20.9727 37.1602 20.9727C36.1758 20.9727 35.3691 21.752 35.3691 22.6953C35.3691 23.625 36.1895 24.418 37.1602 24.418ZM37.1602 18.3477C37.8301 18.3477 38.3086 17.8828 38.3359 17.1855L38.623 7.50586C38.6504 6.63086 38.0625 6.04297 37.1602 6.04297C36.2715 6.04297 35.6836 6.63086 35.7109 7.50586L35.998 17.1855C36.0254 17.8828 36.4902 18.3477 37.1602 18.3477Z" style="fill:var(--color-1,hsl(0 0 0/0.85))"></path>
 </g>
</svg>