<svg version="1.1" xmlns="http://www.w3.org/2000/svg" xmlns:xlink="http://www.w3.org/1999/xlink" viewBox="0 0 23.7207 34.8496">
 <g>
  
  <path d="M23.3652 27.877C23.3652 31.7598 20.3438 34.8223 16.4199 34.8223L6.93164 34.8223C3.02148 34.8223 0 31.7598 0 27.877C0 23.9941 3.02148 20.9316 6.93164 20.9316L16.4199 20.9316C20.3438 20.9316 23.3652 23.9941 23.3652 27.877ZM3.00781 27.877C3.00781 29.9688 4.68945 31.6367 6.76758 31.6367C8.85938 31.6367 10.5547 29.9688 10.5547 27.877C10.5547 25.7852 8.85938 24.1035 6.76758 24.1035C4.68945 24.1035 3.00781 25.7852 3.00781 27.877ZM12.8105 27.877C12.8105 29.9688 14.4922 31.6367 16.584 31.6367C18.6758 31.6367 20.3574 29.9688 20.3574 27.877C20.3574 25.7852 18.6758 24.1035 16.584 24.1035C14.4922 24.1035 12.8105 25.7852 12.8105 27.877ZM21.7656 10.0762C21.7656 15.5723 17.1992 20.1523 11.7031 20.1523C6.20703 20.1523 1.62695 15.5723 1.62695 10.0762C1.62695 4.58008 6.17969 0 11.6758 0C17.1855 0 21.7656 4.58008 21.7656 10.0762ZM9.36523 15.0938C9.36523 16.3926 10.3906 17.418 11.6758 17.418C12.9746 17.418 14 16.3926 14 15.0938C14 13.8086 12.9746 12.7832 11.6758 12.7832C10.3906 12.7832 9.36523 13.8086 9.36523 15.0938ZM5.1543 12.4141C5.1543 13.3164 5.86523 14.041 6.76758 14.041C7.66992 14.041 8.39453 13.3164 8.39453 12.4141C8.39453 11.5117 7.66992 10.7871 6.76758 10.7871C5.86523 10.7871 5.1543 11.5117 5.1543 12.4141ZM14.9707 12.4141C14.9707 13.3164 15.6953 14.041 16.5977 14.041C17.5 14.041 18.2109 13.3164 18.2109 12.4141C18.2109 11.5117 17.5 10.7871 16.5977 10.7871C15.6953 10.7871 14.9707 11.5117 14.9707 12.4141ZM5.75586 6.98633C5.75586 8.27148 6.78125 9.29688 8.08008 9.29688C9.36523 9.29688 10.3906 8.27148 10.3906 6.98633C10.3906 5.6875 9.36523 4.66211 8.08008 4.66211C6.78125 4.66211 5.75586 5.6875 5.75586 6.98633ZM12.9746 6.98633C12.9746 8.27148 14 9.29688 15.2852 9.29688C16.584 9.29688 17.6094 8.27148 17.6094 6.98633C17.6094 5.6875 16.584 4.66211 15.2852 4.66211C14 4.66211 12.9746 5.6875 12.9746 6.98633Z" style="fill:var(--color-0,hsl(0 0 0/0.85))"></path>
 </g>
</svg>