<svg version="1.1" xmlns="http://www.w3.org/2000/svg" xmlns:xlink="http://www.w3.org/1999/xlink" viewBox="0 0 31.2812 29.3535">
 <g>
  
  <path d="M15.4629 29.3262C23.9941 29.3262 30.9258 22.3945 30.9258 13.8633C30.9258 8.17578 27.8496 3.21289 23.502 0.683594C22.709 0.21875 21.9023 0 20.9727 0L9.95312 0C9.02344 0 8.2168 0.21875 7.42383 0.683594C3.07617 3.21289 0 8.17578 0 13.8633C0 22.3945 6.93164 29.3262 15.4629 29.3262ZM15.4629 26.9883C8.13477 26.9883 2.33789 21.2051 2.33789 13.8633C2.33789 9.0918 4.79883 4.97656 8.50391 2.7207C8.94141 2.44727 9.40625 2.33789 9.95312 2.33789L20.9727 2.33789C21.5195 2.33789 21.9844 2.44727 22.4219 2.7207C26.1406 4.97656 28.5879 9.0918 28.5879 13.8633C28.5879 21.2051 22.791 26.9883 15.4629 26.9883Z" style="fill:var(--color-0,hsl(0 0 0/0.85))"></path>
  <path d="M11.0195 8.29883C12.0449 8.29883 12.8789 7.47852 12.8789 6.45312C12.8789 5.42773 12.0449 4.59375 11.0195 4.59375C10.0078 4.59375 9.17383 5.42773 9.17383 6.45312C9.17383 7.47852 10.0078 8.29883 11.0195 8.29883ZM15.4629 8.29883C16.4883 8.29883 17.3086 7.47852 17.3086 6.45312C17.3086 5.42773 16.4883 4.59375 15.4629 4.59375C14.4375 4.59375 13.6172 5.42773 13.6172 6.45312C13.6172 7.47852 14.4375 8.29883 15.4629 8.29883ZM19.9062 8.29883C20.9316 8.29883 21.752 7.47852 21.752 6.45312C21.752 5.42773 20.9316 4.59375 19.9062 4.59375C18.8809 4.59375 18.0469 5.42773 18.0469 6.45312C18.0469 7.47852 18.8809 8.29883 19.9062 8.29883ZM15.4629 12.7422C16.4883 12.7422 17.3086 11.9082 17.3086 10.8965C17.3086 9.87109 16.4883 9.03711 15.4629 9.03711C14.4375 9.03711 13.6172 9.87109 13.6172 10.8965C13.6172 11.9082 14.4375 12.7422 15.4629 12.7422ZM8.66797 17.9238C10.8965 17.9238 12.7148 16.1055 12.7148 13.8633C12.7148 11.6348 10.8965 9.81641 8.66797 9.81641C6.42578 9.81641 4.60742 11.6348 4.60742 13.8633C4.60742 16.1055 6.42578 17.9238 8.66797 17.9238ZM22.2578 17.9238C24.5 17.9238 26.3184 16.1055 26.3184 13.8633C26.3184 11.6348 24.5 9.81641 22.2578 9.81641C20.0293 9.81641 18.2109 11.6348 18.2109 13.8633C18.2109 16.1055 20.0293 17.9238 22.2578 17.9238ZM9.70703 22.9824C10.6367 22.9824 11.3887 22.2305 11.3887 21.3145C11.3887 20.3984 10.6367 19.6328 9.70703 19.6328C8.79102 19.6328 8.03906 20.3984 8.03906 21.3145C8.03906 22.2305 8.79102 22.9824 9.70703 22.9824ZM15.4629 24.1582C17.0215 24.1582 18.3066 22.873 18.3066 21.3145C18.3066 19.7559 17.0215 18.4707 15.4629 18.4707C13.9043 18.4707 12.6191 19.7559 12.6191 21.3145C12.6191 22.873 13.9043 24.1582 15.4629 24.1582ZM21.2188 22.9824C22.1348 22.9824 22.8867 22.2305 22.8867 21.3145C22.8867 20.3984 22.1348 19.6328 21.2188 19.6328C20.2891 19.6328 19.5371 20.3984 19.5371 21.3145C19.5371 22.2305 20.2891 22.9824 21.2188 22.9824Z" style="fill:var(--color-1,hsl(0 0 0/0.85))"></path>
 </g>
</svg>