<svg version="1.1" xmlns="http://www.w3.org/2000/svg" xmlns:xlink="http://www.w3.org/1999/xlink" viewBox="0 0 28.916 25.1699">
 <g>
  
  <path d="M24.3359 1.4082C26.8105 3.75977 28.5605 7.35547 28.5605 11.334C28.5605 18.8672 22.2715 25.1426 14.2734 25.1426C6.28906 25.1426 0 18.8672 0 11.334C0 7.35547 1.73633 3.75977 4.22461 1.4082C5.26367 0.4375 6.39844 0 7.92969 0L20.6172 0C22.1621 0 23.2969 0.4375 24.3359 1.4082ZM7.39648 17.8281C7.39648 19.5781 8.80469 21 10.5547 21C12.3184 21 13.7266 19.5781 13.7266 17.8281C13.7266 16.0781 12.3184 14.6562 10.5547 14.6562C8.80469 14.6562 7.39648 16.0781 7.39648 17.8281ZM14.8203 17.8281C14.8203 19.5781 16.2422 21 17.9922 21C19.7559 21 21.1641 19.5781 21.1641 17.8281C21.1641 16.0781 19.7559 14.6562 17.9922 14.6562C16.2422 14.6562 14.8203 16.0781 14.8203 17.8281ZM3.67773 11.3066C3.67773 13.0566 5.08594 14.4785 6.84961 14.4785C8.58594 14.4785 10.0078 13.0566 10.0078 11.3066C10.0078 9.55664 8.58594 8.13477 6.84961 8.13477C5.08594 8.13477 3.67773 9.55664 3.67773 11.3066ZM11.1152 11.3066C11.1152 13.0566 12.5234 14.4785 14.2734 14.4785C16.0371 14.4785 17.4453 13.0566 17.4453 11.3066C17.4453 9.55664 16.0371 8.13477 14.2734 8.13477C12.5234 8.13477 11.1152 9.55664 11.1152 11.3066ZM18.5391 11.3066C18.5391 13.0566 19.9746 14.4785 21.7109 14.4785C23.4609 14.4785 24.8828 13.0566 24.8828 11.3066C24.8828 9.55664 23.4609 8.13477 21.7109 8.13477C19.9746 8.13477 18.5391 9.55664 18.5391 11.3066ZM8.29883 5.76953C8.29883 7 9.31055 8.02539 10.5684 8.02539C11.8125 8.02539 12.8242 7 12.8242 5.76953C12.8242 4.51172 11.8125 3.5 10.5684 3.5C9.31055 3.5 8.29883 4.51172 8.29883 5.76953ZM15.7227 5.76953C15.7227 7 16.7344 8.02539 17.9922 8.02539C19.25 8.02539 20.2617 7 20.2617 5.76953C20.2617 4.51172 19.25 3.5 17.9922 3.5C16.7344 3.5 15.7227 4.51172 15.7227 5.76953Z" style="fill:var(--color-0,hsl(0 0 0/0.85))"></path>
 </g>
</svg>