<svg version="1.1" xmlns="http://www.w3.org/2000/svg" xmlns:xlink="http://www.w3.org/1999/xlink" viewBox="0 0 23.7207 34.7949">
 <g>
  
  <path d="M11.6895 20.0566C17.5273 20.0566 22.1348 15.4629 22.1348 9.93945C22.1348 7.05469 20.8633 4.40234 19.0449 2.67969C18.2793 1.95508 17.418 1.62695 16.2695 1.62695L7.0957 1.62695C5.96094 1.62695 5.09961 1.95508 4.33398 2.67969C2.50195 4.40234 1.24414 7.05469 1.24414 9.93945C1.24414 15.4629 5.83789 20.0566 11.6895 20.0566ZM11.6895 18.0605C6.68555 18.0605 3.22656 14.6152 3.22656 9.93945C3.22656 7.51953 4.14258 5.57812 5.6875 4.14258C6.17969 3.69141 6.33008 3.62305 7.0957 3.62305L16.2695 3.62305C17.0352 3.62305 17.1992 3.69141 17.6777 4.14258C19.2227 5.57812 20.1523 7.51953 20.1523 9.93945C20.1523 14.6152 16.6934 18.0605 11.6895 18.0605ZM6.93164 34.7949L16.4199 34.7949C20.3438 34.7949 23.3652 31.7324 23.3652 27.8496C23.3652 23.9668 20.3438 20.9043 16.4199 20.9043L6.93164 20.9043C3.02148 20.9043 0 23.9668 0 27.8496C0 31.7324 3.02148 34.7949 6.93164 34.7949ZM6.93164 32.7988C4.12891 32.7988 1.96875 30.6523 1.96875 27.8496C1.96875 25.0469 4.12891 22.9004 6.93164 22.9004L16.4199 22.9004C19.2363 22.9004 21.3965 25.0469 21.3965 27.8496C21.3965 30.6523 19.2363 32.7988 16.4199 32.7988Z" style="fill:var(--color-0,hsl(0 0 0/0.85))"></path>
  <path d="M9.05078 7.58789C9.92578 7.58789 10.623 6.89062 10.623 6.01562C10.623 5.14062 9.92578 4.44336 9.05078 4.44336C8.17578 4.44336 7.47852 5.14062 7.47852 6.01562C7.47852 6.89062 8.17578 7.58789 9.05078 7.58789ZM14.3281 7.58789C15.1895 7.58789 15.8867 6.89062 15.8867 6.01562C15.8867 5.14062 15.1895 4.44336 14.3281 4.44336C13.4531 4.44336 12.7559 5.14062 12.7559 6.01562C12.7559 6.89062 13.4531 7.58789 14.3281 7.58789ZM6.41211 12.1816C7.65625 12.1816 8.66797 11.1836 8.66797 9.92578C8.66797 8.68164 7.65625 7.68359 6.41211 7.68359C5.16797 7.68359 4.15625 8.68164 4.15625 9.92578C4.15625 11.1836 5.16797 12.1816 6.41211 12.1816ZM11.6895 12.1816C12.9336 12.1816 13.9316 11.1836 13.9316 9.92578C13.9316 8.68164 12.9336 7.68359 11.6895 7.68359C10.4316 7.68359 9.43359 8.68164 9.43359 9.92578C9.43359 11.1836 10.4316 12.1816 11.6895 12.1816ZM16.9531 12.1816C18.2109 12.1816 19.209 11.1836 19.209 9.92578C19.209 8.68164 18.2109 7.68359 16.9531 7.68359C15.709 7.68359 14.7109 8.68164 14.7109 9.92578C14.7109 11.1836 15.709 12.1816 16.9531 12.1816ZM9.05078 16.7344C10.2949 16.7344 11.293 15.7363 11.293 14.4785C11.293 13.2344 10.2949 12.2363 9.05078 12.2363C7.80664 12.2363 6.79492 13.2344 6.79492 14.4785C6.79492 15.7363 7.80664 16.7344 9.05078 16.7344ZM14.3281 16.7344C15.5723 16.7344 16.5703 15.7363 16.5703 14.4785C16.5703 13.2344 15.5723 12.2363 14.3281 12.2363C13.0703 12.2363 12.0723 13.2344 12.0723 14.4785C12.0723 15.7363 13.0703 16.7344 14.3281 16.7344ZM6.91797 31.5C8.94141 31.5 10.582 29.873 10.582 27.8496C10.582 25.8262 8.94141 24.1855 6.91797 24.1855C4.89453 24.1855 3.26758 25.8262 3.26758 27.8496C3.26758 29.873 4.89453 31.5 6.91797 31.5ZM16.4336 31.5C18.4707 31.5 20.0977 29.873 20.0977 27.8496C20.0977 25.8262 18.4707 24.1855 16.4336 24.1855C14.4102 24.1855 12.7832 25.8262 12.7832 27.8496C12.7832 29.873 14.4102 31.5 16.4336 31.5Z" style="fill:var(--color-1,hsl(0 0 0/0.85))"></path>
 </g>
</svg>