<?xml version="1.0" encoding="UTF-8"?>
<!--Generator: Apple Native CoreSVG 326-->
<!DOCTYPE svg
PUBLIC "-//W3C//DTD SVG 1.1//EN"
       "http://www.w3.org/Graphics/SVG/1.1/DTD/svg11.dtd">
<svg version="1.1" xmlns="http://www.w3.org/2000/svg" xmlns:xlink="http://www.w3.org/1999/xlink" viewBox="0 0 29.0117 26.127">
 <g>
  <rect height="26.127" opacity="0" width="29.0117" x="0" y="0"/>
  <path d="M3.73242 25.9766L24.9238 25.9766C27.248 25.9766 28.6562 24.3633 28.6562 22.2715C28.6562 21.6289 28.4648 20.959 28.123 20.3574L17.5137 1.87305C16.8027 0.628906 15.5859 0 14.3281 0C13.0703 0 11.8398 0.628906 11.1426 1.87305L0.533203 20.3574C0.164062 20.9727 0 21.6289 0 22.2715C0 24.3633 1.4082 25.9766 3.73242 25.9766Z" fill="#ffd60a"/>
  <path d="M14.3418 16.8438C13.6309 16.8438 13.2344 16.4336 13.2207 15.709L13.043 8.27148C13.0293 7.54688 13.5625 7.02734 14.3281 7.02734C15.0664 7.02734 15.6406 7.56055 15.627 8.28516L15.4219 15.709C15.4082 16.4473 15.0117 16.8438 14.3418 16.8438ZM14.3418 21.4238C13.5215 21.4238 12.8105 20.7676 12.8105 19.9609C12.8105 19.1406 13.5078 18.4844 14.3418 18.4844C15.1621 18.4844 15.8594 19.127 15.8594 19.9609C15.8594 20.7812 15.1484 21.4238 14.3418 21.4238Z" fill="white"/>
 </g>
</svg>
