<svg version="1.1" xmlns="http://www.w3.org/2000/svg" xmlns:xlink="http://www.w3.org/1999/xlink" viewBox="0 0 34.7266 25.9902">
 <g>
  
  <path d="M30.0508 10.5C32.7168 11.6211 34.3711 14.1094 34.3711 16.9805C34.3711 20.7402 31.1445 23.7617 27.0156 23.7617L8.18945 23.7617C3.51367 23.7617 0 20.3848 0 16.3652C0 13.0293 1.92773 10.2676 5.01758 9.77539C5.08594 5.94727 8.75 3.39062 12.1133 4.375C13.7539 1.98242 16.3926 0 20.0977 0C25.6895 0 30.0781 4.40234 30.0508 10.5ZM15.6543 17.4863C15.6543 18.293 16.3652 18.9629 17.1855 18.9629C18.0059 18.9629 18.7168 18.3066 18.7168 17.4863C18.7168 16.666 18.0195 16.0098 17.1855 16.0098C16.3516 16.0098 15.6543 16.6797 15.6543 17.4863ZM15.9004 8.14844L16.0918 13.3164C16.1191 14.041 16.4883 14.4512 17.1992 14.4512C17.8828 14.4512 18.2656 14.0547 18.293 13.3164L18.4844 8.16211C18.5117 7.38281 17.9375 6.83594 17.1855 6.83594C16.4199 6.83594 15.873 7.36914 15.9004 8.14844Z" style="fill:var(--color-0,hsl(0 0 0/0.85))"></path>
 </g>
</svg>