<svg version="1.1" xmlns="http://www.w3.org/2000/svg" xmlns:xlink="http://www.w3.org/1999/xlink" viewBox="0 0 28.4512 27.0566">
 <g>
  
  <path d="M9.89844 27.043L18.1973 27.043C19.9336 27.043 20.7539 26.4824 21.6562 25.5117L26.9609 19.6602C27.8496 18.6758 28.0957 18.0059 28.0957 16.6523L28.0957 10.4043C28.0957 9.03711 27.8496 8.38086 26.9609 7.39648L21.6562 1.54492C20.7539 0.574219 19.9336 0 18.1973 0L9.89844 0C8.16211 0 7.32812 0.574219 6.43945 1.54492L1.13477 7.39648C0.232422 8.38086 0 9.03711 0 10.4043L0 16.6523C0 18.0059 0.232422 18.6758 1.13477 19.6602L6.43945 25.5117C7.32812 26.4824 8.16211 27.043 9.89844 27.043ZM10.6367 24.8555C9.26953 24.8555 8.87305 24.5547 8.12109 23.7344L3.18555 18.334C2.65234 17.7324 2.5293 17.3906 2.5293 16.3926L2.5293 10.6641C2.5293 9.66602 2.65234 9.32422 3.18555 8.72266L8.12109 3.32227C8.87305 2.48828 9.26953 2.20117 10.6367 2.20117L17.459 2.20117C18.8262 2.20117 19.209 2.48828 19.9746 3.32227L24.8965 8.72266C25.4434 9.32422 25.5664 9.66602 25.5664 10.6641L25.5664 16.3926C25.5664 17.3906 25.4434 17.7324 24.8965 18.334L19.9746 23.7344C19.209 24.5547 18.8262 24.8555 17.459 24.8555Z" style="fill:var(--color-0,#ff3b30)"></path>
  <path d="M14.041 15.9824C14.6973 15.9824 15.0801 15.6133 15.0938 14.9023L15.2852 7.68359C15.2988 6.98633 14.752 6.4668 14.0273 6.4668C13.2891 6.4668 12.7695 6.97266 12.7832 7.66992L12.9746 14.9023C12.9883 15.5996 13.3711 15.9824 14.041 15.9824ZM14.041 20.4258C14.834 20.4258 15.5176 19.7969 15.5176 19.0039C15.5176 18.2109 14.8477 17.582 14.041 17.582C13.248 17.582 12.5781 18.2246 12.5781 19.0039C12.5781 19.7832 13.2617 20.4258 14.041 20.4258Z" style="fill:var(--color-1,#ff3b30)"></path>
 </g>
</svg>