<?xml version="1.0" encoding="UTF-8"?>
<!--Generator: Apple Native CoreSVG 326-->
<!DOCTYPE svg
PUBLIC "-//W3C//DTD SVG 1.1//EN"
       "http://www.w3.org/Graphics/SVG/1.1/DTD/svg11.dtd">
<svg version="1.1" xmlns="http://www.w3.org/2000/svg" xmlns:xlink="http://www.w3.org/1999/xlink" viewBox="0 0 19.0176 27.5215">
 <g>
  <rect height="27.5215" opacity="0" width="19.0176" x="0" y="0"/>
  <path d="M3.07617 26.8105L15.5859 26.8105C17.5957 26.8105 18.6621 25.7168 18.6621 23.5566L18.6621 14.1367C18.6621 11.9902 17.5957 10.8965 15.5859 10.8965L3.07617 10.8965C1.06641 10.8965 0 11.9902 0 14.1367L0 23.5566C0 25.7168 1.06641 26.8105 3.07617 26.8105ZM3.14453 24.7461C2.55664 24.7461 2.21484 24.377 2.21484 23.707L2.21484 13.9863C2.21484 13.3164 2.55664 12.9609 3.14453 12.9609L15.5176 12.9609C16.1191 12.9609 16.4473 13.3164 16.4473 13.9863L16.4473 23.707C16.4473 24.377 16.1191 24.7461 15.5176 24.7461ZM2.39258 11.9492L4.56641 11.9492L4.56641 7.3418C4.56641 3.88281 6.76758 2.06445 9.32422 2.06445C11.8809 2.06445 14.1094 3.88281 14.1094 7.3418L14.1094 11.9492L16.2695 11.9492L16.2695 7.62891C16.2695 2.48828 12.9062 0 9.32422 0C5.75586 0 2.39258 2.48828 2.39258 7.62891Z" fill="white" fill-opacity="0.85"/>
  <path d="M9.32422 20.2344C9.81641 20.2344 10.0898 19.9336 10.1035 19.4414L10.2402 15.0664C10.2539 14.5605 9.85742 14.1777 9.32422 14.1777C8.77734 14.1777 8.39453 14.5469 8.4082 15.0527L8.54492 19.4414C8.55859 19.9336 8.83203 20.2344 9.32422 20.2344ZM9.32422 23.2422C9.92578 23.2422 10.418 22.7637 10.418 22.1895C10.418 21.5879 9.92578 21.123 9.32422 21.123C8.73633 21.123 8.25781 21.6016 8.25781 22.1895C8.25781 22.7637 8.75 23.2422 9.32422 23.2422Z" fill="white" fill-opacity="0.85"/>
 </g>
</svg>
