<?xml version="1.0" encoding="UTF-8"?>
<!--Generator: Apple Native CoreSVG 326-->
<!DOCTYPE svg
PUBLIC "-//W3C//DTD SVG 1.1//EN"
       "http://www.w3.org/Graphics/SVG/1.1/DTD/svg11.dtd">
<svg version="1.1" xmlns="http://www.w3.org/2000/svg" xmlns:xlink="http://www.w3.org/1999/xlink" viewBox="0 0 30.4883 30.2012">
 <g>
  <rect height="30.2012" opacity="0" width="30.4883" x="0" y="0"/>
  <path d="M30.1328 8.09375L30.1328 18.5664C30.1328 22.5723 27.9453 24.8145 23.8711 24.8145L14.6289 24.8145L9.69336 29.3262C9.05078 29.9277 8.6543 30.2012 8.12109 30.2012C7.3418 30.2012 6.9043 29.6406 6.9043 28.793L6.9043 24.8145L6.26172 24.8145C2.1875 24.8145 0 22.5859 0 18.5664L0 8.09375C0 4.07422 2.1875 1.83203 6.26172 1.83203L23.8711 1.83203C27.9453 1.83203 30.1328 4.08789 30.1328 8.09375ZM13.5488 18.9766C13.5488 19.7969 14.2598 20.4395 15.0801 20.4395C15.8867 20.4395 16.5977 19.8105 16.5977 18.9766C16.5977 18.1562 15.9004 17.5137 15.0801 17.5137C14.2461 17.5137 13.5488 18.1699 13.5488 18.9766ZM13.7812 7.30078L13.959 14.7383C13.9727 15.4629 14.3691 15.8594 15.0801 15.8594C15.75 15.8594 16.1465 15.4766 16.1602 14.7383L16.3652 7.31445C16.3789 6.58984 15.8184 6.04297 15.0664 6.04297C14.3008 6.04297 13.7676 6.57617 13.7812 7.30078Z" fill="white" fill-opacity="0.85"/>
 </g>
</svg>
