<svg version="1.1" xmlns="http://www.w3.org/2000/svg" xmlns:xlink="http://www.w3.org/1999/xlink" viewBox="0 0 35.7656 35.3965">
 <g>
  
  <path d="M18.9082 31.2676L18.9082 34.2207C18.9082 34.8633 18.3613 35.3965 17.7188 35.3965C17.0762 35.3965 16.543 34.8633 16.543 34.2207L16.543 31.2676C16.543 30.625 17.0762 30.0918 17.7188 30.0918C18.3613 30.0918 18.9082 30.625 18.9082 31.2676ZM28.1367 26.4414L30.2148 28.5469C30.666 28.9844 30.666 29.75 30.2148 30.2012C29.7637 30.6523 29.0117 30.6523 28.5605 30.2012L26.4551 28.123C26.0039 27.6719 26.0039 26.8926 26.4551 26.4414C26.9062 25.9902 27.6855 25.9902 28.1367 26.4414ZM8.94141 26.4414C9.39258 26.8926 9.39258 27.6719 8.94141 28.123L6.84961 30.2012C6.39844 30.6523 5.63281 30.6523 5.18164 30.2012C4.73047 29.75 4.73047 28.9844 5.18164 28.5469L7.27344 26.4414C7.72461 25.9902 8.49023 25.9902 8.94141 26.4414ZM22.7363 5.33203L22.7363 8.88672C25.7852 10.6641 27.8633 13.959 27.8633 17.6914C27.8633 23.2422 23.2422 27.8633 17.6914 27.8633C12.1406 27.8633 7.51953 23.2422 7.51953 17.6914C7.51953 13.9453 9.625 10.623 12.7012 8.85938L12.7012 5.33203C12.7012 3.60938 13.7402 2.57031 15.4629 2.57031L19.9746 2.57031C21.6973 2.57031 22.7363 3.60938 22.7363 5.33203ZM16.1875 22.1895C16.1875 22.9961 16.8984 23.666 17.7188 23.666C18.5391 23.666 19.25 23.0098 19.25 22.1895C19.25 21.3691 18.5527 20.7129 17.7188 20.7129C16.8848 20.7129 16.1875 21.3828 16.1875 22.1895ZM16.4336 12.8516L16.6113 18.0195C16.6387 18.7441 17.0215 19.1543 17.7324 19.1543C18.416 19.1543 18.7988 18.7578 18.8262 18.0195L19.0176 12.8652C19.0449 12.0859 18.4707 11.5391 17.7188 11.5391C16.9531 11.5391 16.4062 12.0723 16.4336 12.8516ZM35.4102 17.6914C35.4102 18.334 34.8633 18.8672 34.2207 18.8672L31.2812 18.8672C30.6387 18.8672 30.0918 18.334 30.0918 17.6914C30.0918 17.0488 30.6387 16.502 31.2812 16.502L34.2207 16.502C34.8633 16.502 35.4102 17.0488 35.4102 17.6914ZM5.31836 17.6914C5.31836 18.334 4.77148 18.8672 4.12891 18.8672L1.17578 18.8672C0.533203 18.8672 0 18.334 0 17.6914C0 17.0488 0.533203 16.502 1.17578 16.502L4.12891 16.502C4.77148 16.502 5.31836 17.0488 5.31836 17.6914ZM30.2148 5.16797C30.666 5.61914 30.666 6.38477 30.2148 6.83594L28.1367 8.92773C27.6855 9.37891 26.9062 9.37891 26.4551 8.92773C26.0039 8.47656 26.0039 7.69727 26.4551 7.25977L28.5605 5.16797C29.0117 4.7168 29.7637 4.7168 30.2148 5.16797ZM6.84961 5.16797L8.94141 7.25977C9.39258 7.69727 9.39258 8.47656 8.94141 8.92773C8.49023 9.37891 7.72461 9.37891 7.27344 8.92773L5.18164 6.83594C4.73047 6.38477 4.73047 5.61914 5.18164 5.16797C5.63281 4.7168 6.39844 4.7168 6.84961 5.16797Z" style="fill:var(--color-0,#ff9500)"></path>
 </g>
</svg>