<svg version="1.1" xmlns="http://www.w3.org/2000/svg" xmlns:xlink="http://www.w3.org/1999/xlink" viewBox="0 0 29.3398 30.5293">
 <g>
  
  <path d="M15.3535 24.0865C16.2094 24.4028 16.8956 25.0834 17.2198 25.9355L25.6211 25.9355C26.2227 25.9355 26.7285 26.4414 26.7285 27.043C26.7285 27.6445 26.2227 28.1367 25.6211 28.1367L17.2376 28.1367C16.7955 29.3613 15.6199 30.2422 14.2598 30.2422C12.8889 30.2422 11.711 29.3613 11.2684 28.1367L2.88477 28.1367C2.2832 28.1367 1.79102 27.6445 1.79102 27.043C1.79102 26.4414 2.2832 25.9355 2.88477 25.9355L11.2862 25.9355C11.61 25.0855 12.2949 24.4062 13.1523 24.0889L13.1523 21.0137L15.3535 21.0137Z" style="fill:var(--color-0,hsl(0 0 0/0.85))"></path>
  <path d="M0 15.4082C0 18.6348 2.50195 21.0137 5.90625 21.0137L23.0781 21.0137C26.4824 21.0137 28.9844 18.6348 28.9844 15.4082C28.9844 14.4785 28.7383 13.6309 28.4102 12.8652L24.2949 3.00781C23.4883 1.05273 21.834 0 19.5508 0L9.43359 0C7.16406 0 5.48242 1.05273 4.67578 3.00781L0.574219 12.8652C0.232422 13.6582 0 14.4922 0 15.4082ZM4.23828 10.0488L6.79492 3.60938C7.23242 2.48828 8.17578 1.91406 9.54297 1.91406L19.4551 1.91406C20.8223 1.91406 21.7656 2.48828 22.2031 3.60938L24.7598 10.0488C24.2266 9.88477 23.666 9.78906 23.0781 9.78906L5.90625 9.78906C5.31836 9.78906 4.75781 9.88477 4.23828 10.0488ZM2.17383 15.4082C2.17383 13.3984 3.70508 11.9766 5.90625 11.9766L23.0781 11.9766C25.2793 11.9766 26.8105 13.3984 26.8105 15.4082C26.8105 17.5547 25.416 18.8398 23.0781 18.8398L5.90625 18.8398C3.70508 18.8398 2.17383 17.418 2.17383 15.4082ZM21.4375 15.4082C21.4375 16.2969 22.1621 17.0352 23.0645 17.0215C23.9395 17.0078 24.6777 16.2832 24.6777 15.4082C24.6777 14.5332 23.9258 13.7949 23.0645 13.7949C22.1895 13.7949 21.4375 14.5332 21.4375 15.4082Z" style="fill:var(--color-1,hsl(0 0 0/0.85))"></path>
 </g>
</svg>