<svg version="1.1" xmlns="http://www.w3.org/2000/svg" xmlns:xlink="http://www.w3.org/1999/xlink" viewBox="0 0 28.4512 30.1465">
 <g>
  
  <path d="M15.1484 23.8976C16.0083 24.2162 16.6947 24.8998 17.0172 25.7578L25.416 25.7578C26.0176 25.7578 26.5098 26.25 26.5098 26.8516C26.5098 27.4531 26.0176 27.959 25.416 27.959L17.0297 27.959C16.5852 29.1733 15.4092 30.0508 14.041 30.0508C12.6835 30.0508 11.5098 29.1733 11.0658 27.959L2.67969 27.959C2.07812 27.959 1.58594 27.4531 1.58594 26.8516C1.58594 26.25 2.07812 25.7578 2.67969 25.7578L11.0783 25.7578C11.4013 24.8976 12.089 24.2128 12.9473 23.8952L12.9473 20.4531L15.1484 20.4531Z" style="fill:var(--color-0,hsl(0 0 0/0.85))"></path>
  <path d="M4.83984 9.16016L23.2559 9.16016C24.4043 9.16016 25.4707 9.41992 26.3594 9.87109L23.4473 2.84375C22.6953 0.984375 21.082 0 18.9766 0L9.11914 0C7 0 5.40039 0.984375 4.64844 2.84375L1.72266 9.87109C2.625 9.41992 3.69141 9.16016 4.83984 9.16016ZM4.83984 20.4531L23.2559 20.4531C26.127 20.4531 28.0957 18.498 28.0957 15.6543C28.0957 12.8105 26.127 10.8281 23.2559 10.8281L4.83984 10.8281C1.96875 10.8281 0 12.8105 0 15.6543C0 18.498 1.96875 20.4531 4.83984 20.4531ZM21.4922 15.6543C21.4922 14.8203 22.2168 14.082 23.0645 14.082C23.9121 14.082 24.6504 14.8203 24.6504 15.6543C24.6504 16.5293 23.9121 17.2129 23.0645 17.2266C22.2168 17.2266 21.4922 16.543 21.4922 15.6543Z" style="fill:var(--color-1,hsl(0 0 0/0.85))"></path>
 </g>
</svg>