<?xml version="1.0" encoding="UTF-8"?>
<!--Generator: Apple Native CoreSVG 326-->
<!DOCTYPE svg
PUBLIC "-//W3C//DTD SVG 1.1//EN"
       "http://www.w3.org/Graphics/SVG/1.1/DTD/svg11.dtd">
<svg version="1.1" xmlns="http://www.w3.org/2000/svg" xmlns:xlink="http://www.w3.org/1999/xlink" viewBox="0 0 28.2461 27.9043">
 <g>
  <rect height="27.9043" opacity="0" width="28.2461" x="0" y="0"/>
  <path d="M13.9453 27.9043C21.6426 27.9043 27.8906 21.6562 27.8906 13.959C27.8906 6.27539 21.6426 0.0136719 13.9453 0.0136719C6.26172 0.0136719 0 6.27539 0 13.959C0 21.6562 6.26172 27.9043 13.9453 27.9043Z" fill="white" fill-opacity="0.85"/>
  <path d="M13.9453 19.7422C8.57227 19.7422 4.73047 15.3398 4.73047 13.9727C4.73047 12.5918 8.53125 8.20312 13.9453 8.20312C19.3594 8.20312 23.1465 12.5918 23.1465 13.9727C23.1465 15.3398 19.373 19.7422 13.9453 19.7422ZM13.9453 17.7461C16.0371 17.7461 17.7324 16.0234 17.7324 13.9727C17.7324 11.8672 16.0371 10.1992 13.9453 10.1992C11.8398 10.1992 10.1445 11.8672 10.1582 13.9727C10.1582 16.0234 11.8398 17.7461 13.9453 17.7461ZM13.959 15.6406C13.0566 15.6406 12.2773 14.8477 12.2773 13.9727C12.2773 13.084 13.0566 12.3047 13.959 12.3047C14.8477 12.3047 15.6133 13.084 15.6133 13.9727C15.6133 14.8477 14.8477 15.6406 13.959 15.6406Z" fill="white"/>
 </g>
</svg>
