<?xml version="1.0" encoding="UTF-8"?>
<!--Generator: Apple Native CoreSVG 326-->
<!DOCTYPE svg
PUBLIC "-//W3C//DTD SVG 1.1//EN"
       "http://www.w3.org/Graphics/SVG/1.1/DTD/svg11.dtd">
<svg version="1.1" xmlns="http://www.w3.org/2000/svg" xmlns:xlink="http://www.w3.org/1999/xlink" viewBox="0 0 37.4199 23.2559">
 <g>
  <rect height="23.2559" opacity="0" width="37.4199" x="0" y="0"/>
  <path d="M18.5391 23.2422C29.4902 23.2422 37.0645 14.3828 37.0645 11.6211C37.0645 8.8457 29.4766 0 18.5391 0C7.72461 0 0 8.8457 0 11.6211C0 14.3828 7.72461 23.2422 18.5391 23.2422ZM18.5391 19.2637C14.3145 19.2637 10.8965 15.832 10.8965 11.6211C10.8965 7.39648 14.3145 3.97852 18.5391 3.97852C22.75 3.97852 26.1816 7.39648 26.1816 11.6211C26.1816 15.832 22.75 19.2637 18.5391 19.2637ZM18.5391 14.4102C20.084 14.4102 21.3281 13.166 21.3281 11.6211C21.3281 10.0762 20.084 8.83203 18.5391 8.83203C16.9941 8.83203 15.75 10.0762 15.75 11.6211C15.75 13.166 16.9941 14.4102 18.5391 14.4102Z" fill="white" fill-opacity="0.85"/>
 </g>
</svg>
