<svg version="1.1" xmlns="http://www.w3.org/2000/svg" xmlns:xlink="http://www.w3.org/1999/xlink" viewBox="0 0 37.7207 29.3262">
 <g>
  
  <path d="M8.5371 8.34169C4.7881 10.7324 2.39258 13.7371 2.39258 14.6699C2.39258 16.5977 9.67969 24.2266 18.6895 24.2266C20.4274 24.2266 22.1031 23.9401 23.6726 23.4591L25.4441 25.2284C23.3975 25.9522 21.1267 26.3867 18.6895 26.3867C7.7793 26.3867 0 17.459 0 14.6699C0 13.0598 2.57193 9.43273 6.83583 6.64245ZM37.3652 14.6699C37.3652 16.2291 34.9811 19.7067 30.9451 22.4693L29.2746 20.7998C32.7627 18.5117 34.9727 15.7295 34.9727 14.6699C34.9727 13.043 27.6582 5.11328 18.6895 5.11328C17.1385 5.11328 15.6385 5.34827 14.2237 5.75787L12.4267 3.96194C14.3503 3.32811 16.4546 2.95312 18.6895 2.95312C29.7227 2.95312 37.3652 11.8672 37.3652 14.6699ZM21.8416 21.6303C20.8827 22.0707 19.8145 22.3125 18.6895 22.3125C14.4512 22.3125 11.0059 18.8809 11.0059 14.6426C11.0059 13.5178 11.2485 12.4498 11.6902 11.491ZM26.3594 14.6426C26.3594 15.6073 26.1816 16.5301 25.8493 17.3765L15.9507 7.48382C16.799 7.15085 17.7237 6.97266 18.6895 6.97266C22.9277 6.97266 26.3594 10.4043 26.3594 14.6426Z" style="fill:var(--color-0,hsl(0 0 0/0.85))"></path>
  <path d="M29.3672 26.5098C29.791 26.9336 30.4336 26.9609 30.8574 26.5098C31.3086 26.0586 31.2812 25.4434 30.8574 25.0195L7.99805 2.17383C7.58789 1.76367 6.91797 1.76367 6.49414 2.17383C6.09766 2.57031 6.09766 3.26758 6.49414 3.66406Z" style="fill:var(--color-1,hsl(0 0 0/0.85))"></path>
 </g>
</svg>