<svg version="1.1" xmlns="http://www.w3.org/2000/svg" xmlns:xlink="http://www.w3.org/1999/xlink" viewBox="0 0 43.4902 31.2403">
 <g>
  
  <path d="M11.8424 9.44468C11.6218 9.41868 11.3973 9.40628 11.1699 9.40628C7.72461 9.40628 4.93555 12.1953 4.93555 15.627C4.93555 19.0723 7.72461 21.8477 11.1699 21.8477C14.5879 21.8477 17.377 19.0586 17.377 15.627C17.377 15.3918 17.3637 15.1596 17.3353 14.9318L19.546 17.1402C18.84 21.1347 15.3571 24.1582 11.1699 24.1582C6.77235 24.1582 3.14724 20.8426 2.67988 16.5703L1.02539 16.5703C0.355469 16.5703 0 16.2149 0 15.5313L0 14.9707C0 14.2871 0.355469 13.9453 1.02539 13.9453L2.7933 13.9453C3.47612 10.5383 6.19795 7.85802 9.63614 7.24076ZM40.3421 13.9453L42.123 13.9453C42.793 13.9453 43.1348 14.2871 43.1348 14.9707L43.1348 15.5313C43.1348 16.2149 42.793 16.5703 42.123 16.5703L40.4551 16.5703C40.0584 20.2143 37.3718 23.1621 33.8671 23.9443L31.7564 21.8358C31.8333 21.8462 31.9126 21.8477 31.9922 21.8477C35.4238 21.8477 38.1992 19.0723 38.1992 15.627C38.1992 12.1953 35.4238 9.40628 31.9922 9.40628C28.5605 9.40628 25.7578 12.209 25.7578 15.627C25.7578 15.704 25.7592 15.7807 25.7694 15.8551L23.253 13.3413C23.4164 13.3801 23.577 13.4273 23.7309 13.484C24.676 9.81229 28.0188 7.09574 31.9922 7.09574C36.1197 7.09574 39.5627 10.0441 40.3421 13.9453Z" style="fill:var(--color-0,hsl(0 0 0/0.85))"></path>
  <path d="M34.0156 29.3399C34.4258 29.75 35.1094 29.75 35.5059 29.3399C35.916 28.9297 35.916 28.2598 35.5059 27.8496L9.57031 1.92777C9.16016 1.51761 8.49023 1.51761 8.06641 1.92777C7.66992 2.32425 7.66992 3.02152 8.06641 3.418Z" style="fill:var(--color-1,hsl(0 0 0/0.85))"></path>
 </g>
</svg>