<?xml version="1.0" encoding="UTF-8"?>
<!--Generator: Apple Native CoreSVG 326-->
<!DOCTYPE svg
PUBLIC "-//W3C//DTD SVG 1.1//EN"
       "http://www.w3.org/Graphics/SVG/1.1/DTD/svg11.dtd">
<svg version="1.1" xmlns="http://www.w3.org/2000/svg" xmlns:xlink="http://www.w3.org/1999/xlink" viewBox="0 0 32.1016 24.541">
 <g>
  <rect height="24.541" opacity="0" width="32.1016" x="0" y="0"/>
  <path d="M7.32812 24.541C11.4297 24.541 14.6973 19.5645 14.6973 12.2637C14.6973 4.96289 11.4297 0 7.32812 0C3.48633 0 0.369141 4.38867 0 10.9785C0.642578 9.7207 1.87305 8.96875 3.48633 8.96875C5.86523 8.96875 7.4375 10.6367 7.4375 13.0977C7.4375 15.5996 5.86523 17.2539 3.48633 17.2539C2.03711 17.2539 0.888672 16.6523 0.205078 15.6133C1.03906 21.041 3.89648 24.541 7.32812 24.541ZM2.36523 12.6055C2.85742 12.7012 3.30859 12.25 3.44531 11.6348C3.56836 11.0195 3.26758 10.4316 2.74805 10.3359C2.26953 10.2402 1.76367 10.6914 1.6543 11.3066C1.54492 11.9355 1.87305 12.5234 2.36523 12.6055ZM24.377 24.541C28.4785 24.541 31.7461 19.5645 31.7461 12.2637C31.7461 4.96289 28.4785 0 24.377 0C20.5352 0 17.418 4.38867 17.0488 10.9785C17.6914 9.7207 18.9219 8.96875 20.5215 8.96875C22.9141 8.96875 24.4863 10.6367 24.4863 13.0977C24.4863 15.5996 22.9141 17.2539 20.5215 17.2539C19.0859 17.2539 17.9375 16.6523 17.2539 15.6133C18.0879 21.041 20.9453 24.541 24.377 24.541ZM19.4141 12.6055C19.8926 12.7012 20.3711 12.25 20.4941 11.6348C20.6035 11.0195 20.3027 10.418 19.7969 10.3359C19.3184 10.2402 18.8125 10.6914 18.7031 11.3066C18.5938 11.9355 18.9082 12.5098 19.4141 12.6055Z" fill="white" fill-opacity="0.85"/>
 </g>
</svg>
