<svg version="1.1" xmlns="http://www.w3.org/2000/svg" xmlns:xlink="http://www.w3.org/1999/xlink" viewBox="0 0 32.3203 24.9238">
 <g>
  
  <path d="M7.49219 24.9238C11.6484 24.9238 14.9707 19.8652 14.9707 12.4551C14.9707 5.03125 11.6484 0 7.49219 0C3.32227 0 0 5.03125 0 12.4551C0 19.8652 3.32227 24.9238 7.49219 24.9238ZM7.49219 22.9961C4.49805 23.0098 1.96875 18.7168 1.96875 12.4551C1.96875 6.23438 4.49805 1.95508 7.49219 1.92773C10.5137 1.91406 13.043 6.19336 13.043 12.4551C13.043 18.6758 10.5137 22.9688 7.49219 22.9961ZM4.53906 17.2812C6.82227 17.2812 8.33984 15.6953 8.33984 13.2891C8.33984 10.9238 6.82227 9.32422 4.53906 9.32422C2.24219 9.32422 0.724609 10.9238 0.724609 13.2891C0.724609 15.6953 2.24219 17.2812 4.53906 17.2812ZM3.45898 12.8242C2.9668 12.7559 2.66602 12.168 2.77539 11.5664C2.89844 10.9785 3.36328 10.541 3.82812 10.6367C4.32031 10.7324 4.62109 11.293 4.49805 11.8809C4.38867 12.4824 3.9375 12.9062 3.45898 12.8242ZM24.4727 24.9238C28.6426 24.9238 31.9648 19.8652 31.9648 12.4551C31.9648 5.03125 28.6426 0 24.4727 0C20.3164 0 16.9941 5.03125 16.9941 12.4551C16.9941 19.8652 20.3164 24.9238 24.4727 24.9238ZM24.4727 22.9824C21.4648 22.9824 18.9219 18.7031 18.9219 12.4551C18.9219 6.23438 21.4512 1.95508 24.4727 1.94141C27.4668 1.94141 30.0098 6.2207 30.0098 12.4551C30.0098 18.6895 27.4668 22.9688 24.4727 22.9824ZM21.5059 17.2812C23.7891 17.2812 25.334 15.6953 25.334 13.2891C25.334 10.9238 23.7891 9.32422 21.5059 9.32422C19.2227 9.32422 17.6914 10.9238 17.6914 13.2891C17.6914 15.6953 19.2227 17.2812 21.5059 17.2812ZM20.4258 12.8242C19.9473 12.7422 19.6328 12.168 19.7559 11.5664C19.8789 10.9785 20.3301 10.541 20.8086 10.6367C21.3008 10.7188 21.5879 11.293 21.4648 11.8809C21.3555 12.4824 20.9043 12.9062 20.4258 12.8242Z" style="fill:var(--color-0,hsl(0 0 0/0.85))"></path>
 </g>
</svg>