<?xml version="1.0" encoding="UTF-8"?>
<!--Generator: Apple Native CoreSVG 326-->
<!DOCTYPE svg
PUBLIC "-//W3C//DTD SVG 1.1//EN"
       "http://www.w3.org/Graphics/SVG/1.1/DTD/svg11.dtd">
<svg version="1.1" xmlns="http://www.w3.org/2000/svg" xmlns:xlink="http://www.w3.org/1999/xlink" viewBox="0 0 28.2461 27.9043">
 <g>
  <rect height="27.9043" opacity="0" width="28.2461" x="0" y="0"/>
  <path d="M13.9453 27.8906C21.6426 27.8906 27.8906 21.6289 27.8906 13.9453C27.8906 6.24805 21.6426 0 13.9453 0C6.26172 0 0 6.24805 0 13.9453C0 21.6289 6.26172 27.8906 13.9453 27.8906Z" fill="white" fill-opacity="0.85"/>
  <path d="M8.03906 20.7676C8.03906 20.1934 8.42188 19.7969 8.98242 19.7969C9.43359 19.7969 9.69336 19.9062 10.541 19.9062C11.6348 19.9062 12.1953 19.3047 12.3867 17.8418L12.8789 14.3281L9.9668 14.3281C9.37891 14.3281 8.92773 13.9043 8.92773 13.3438C8.92773 12.7422 9.37891 12.3184 9.95312 12.3184L13.166 12.3184L13.5352 9.67969C13.8496 7.25977 15.2578 5.93359 17.5 5.93359C19.0312 5.93359 19.8789 6.33008 19.8789 7.10938C19.8789 7.66992 19.4961 8.05273 18.9355 8.05273C18.5254 8.05273 18.252 7.95703 17.377 7.95703C16.2969 7.95703 15.7363 8.55859 15.5449 10.0352L15.2305 12.3184L18.6484 12.3184C19.2637 12.3184 19.7148 12.7422 19.7148 13.3438C19.7148 13.9043 19.2773 14.3281 18.6621 14.3281L14.9297 14.3281L14.3965 18.1836C14.0684 20.6309 12.6602 21.9434 10.418 21.9434C8.85938 21.9434 8.03906 21.5469 8.03906 20.7676Z" fill="white"/>
 </g>
</svg>
