<svg version="1.1" xmlns="http://www.w3.org/2000/svg" xmlns:xlink="http://www.w3.org/1999/xlink" viewBox="0 0 28.2461 27.9043">
 <g>
  
  <path d="M13.9453 27.8906C21.6426 27.8906 27.8906 21.6426 27.8906 13.9453C27.8906 6.24805 21.6426 0 13.9453 0C6.24805 0 0 6.24805 0 13.9453C0 21.6426 6.24805 27.8906 13.9453 27.8906ZM13.9453 25.5664C7.51953 25.5664 2.32422 20.3711 2.32422 13.9453C2.32422 7.51953 7.51953 2.32422 13.9453 2.32422C20.3711 2.32422 25.5664 7.51953 25.5664 13.9453C25.5664 20.3711 20.3711 25.5664 13.9453 25.5664Z" style="fill:var(--color-0,hsl(0 0 0/0.85))"></path>
  <path d="M10.9238 20.207C11.6348 20.207 12.0176 19.7285 12.0176 18.9766L12.0176 14.7383L16.9531 14.7383C17.4863 14.7383 17.8691 14.4512 17.8691 13.9043C17.8691 13.3438 17.4863 13.0293 16.9531 13.0293L12.0176 13.0293L12.0176 9.37891L17.4863 9.37891C18.0195 9.37891 18.4023 9.02344 18.4023 8.47656C18.4023 7.91602 18.0195 7.58789 17.4863 7.58789L10.9102 7.58789C10.2129 7.58789 9.84375 8.08008 9.84375 8.81836L9.84375 18.9766C9.84375 19.7012 10.2129 20.207 10.9238 20.207Z" style="fill:var(--color-1,hsl(0 0 0/0.85))"></path>
 </g>
</svg>