<svg version="1.1" xmlns="http://www.w3.org/2000/svg" xmlns:xlink="http://www.w3.org/1999/xlink" viewBox="0 0 28.2461 27.9043">
 <g>
  
  <path d="M13.9453 27.9043C21.6426 27.9043 27.8906 21.6562 27.8906 13.959C27.8906 6.27539 21.6426 0.0136719 13.9453 0.0136719C6.26172 0.0136719 0 6.27539 0 13.959C0 21.6562 6.26172 27.9043 13.9453 27.9043Z" style="fill:var(--color-0,hsl(0 0 0/0.85))"></path>
  <path d="M10.8418 20.4258C10.1035 20.4258 9.7207 19.9062 9.7207 19.1406L9.7207 8.68164C9.7207 7.92969 10.1035 7.39648 10.8281 7.39648L17.6094 7.39648C18.1562 7.39648 18.5527 7.75195 18.5527 8.33984C18.5527 8.88672 18.1562 9.25586 17.6094 9.25586L11.9766 9.25586L11.9766 13.0293L17.0625 13.0293C17.6094 13.0293 18.0059 13.3438 18.0059 13.918C18.0059 14.4922 17.6094 14.793 17.0625 14.793L11.9766 14.793L11.9766 19.1406C11.9766 19.9336 11.5801 20.4258 10.8418 20.4258Z" style="fill:var(--color-1,white)"></path>
 </g>
</svg>