<svg version="1.1" xmlns="http://www.w3.org/2000/svg" xmlns:xlink="http://www.w3.org/1999/xlink" viewBox="0 0 25.5254 25.1699">
 <g>
  
  <path d="M4.29297 25.1699L20.877 25.1699C23.748 25.1699 25.1699 23.7617 25.1699 20.9453L25.1699 4.23828C25.1699 1.42188 23.748 0 20.877 0L4.29297 0C1.43555 0 0 1.42188 0 4.23828L0 20.9453C0 23.7617 1.43555 25.1699 4.29297 25.1699ZM4.32031 22.9688C2.95312 22.9688 2.20117 22.2441 2.20117 20.8223L2.20117 4.36133C2.20117 2.93945 2.95312 2.20117 4.32031 2.20117L20.8496 2.20117C22.2031 2.20117 22.9688 2.93945 22.9688 4.36133L22.9688 20.8223C22.9688 22.2441 22.2031 22.9688 20.8496 22.9688Z" style="fill:var(--color-0,hsl(0 0 0/0.85))"></path>
  <path d="M9.58398 18.8398C10.2949 18.8398 10.6914 18.3613 10.6914 17.6094L10.6914 13.3711L15.6133 13.3711C16.1465 13.3711 16.5293 13.084 16.5293 12.5371C16.5293 11.9766 16.1465 11.6621 15.6133 11.6621L10.6914 11.6621L10.6914 8.01172L16.1465 8.01172C16.6797 8.01172 17.0625 7.65625 17.0625 7.10938C17.0625 6.54883 16.6797 6.2207 16.1465 6.2207L9.57031 6.2207C8.87305 6.2207 8.50391 6.71289 8.50391 7.45117L8.50391 17.6094C8.50391 18.334 8.87305 18.8398 9.58398 18.8398Z" style="fill:var(--color-1,hsl(0 0 0/0.85))"></path>
 </g>
</svg>