<svg version="1.1" xmlns="http://www.w3.org/2000/svg" xmlns:xlink="http://www.w3.org/1999/xlink" viewBox="0 0 27.125 26.7832">
 <g>
  
  <path d="M1.09375 8.72266C1.81836 8.72266 2.20117 8.3125 2.20117 7.60156L2.20117 4.375C2.20117 2.95312 2.95312 2.22852 4.32031 2.22852L7.62891 2.22852C8.35352 2.22852 8.75 1.83203 8.75 1.12109C8.75 0.410156 8.35352 0.0273438 7.62891 0.0273438L4.29297 0.0273438C1.43555 0.0273438 0 1.43555 0 4.25195L0 7.60156C0 8.3125 0.396484 8.72266 1.09375 8.72266ZM25.6621 8.72266C26.3867 8.72266 26.7695 8.3125 26.7695 7.60156L26.7695 4.25195C26.7695 1.43555 25.334 0.0273438 22.4766 0.0273438L19.127 0.0273438C18.416 0.0273438 18.0195 0.410156 18.0195 1.12109C18.0195 1.83203 18.416 2.22852 19.127 2.22852L22.4355 2.22852C23.7891 2.22852 24.5684 2.95312 24.5684 4.375L24.5684 7.60156C24.5684 8.3125 24.9648 8.72266 25.6621 8.72266ZM4.29297 26.7832L7.62891 26.7832C8.35352 26.7832 8.75 26.3867 8.75 25.6895C8.75 24.9785 8.35352 24.582 7.62891 24.582L4.32031 24.582C2.95312 24.582 2.20117 23.8574 2.20117 22.4355L2.20117 19.209C2.20117 18.4844 1.80469 18.0879 1.09375 18.0879C0.382812 18.0879 0 18.4844 0 19.209L0 22.5449C0 25.375 1.43555 26.7832 4.29297 26.7832ZM19.127 26.7832L22.4766 26.7832C25.334 26.7832 26.7695 25.3613 26.7695 22.5449L26.7695 19.209C26.7695 18.4844 26.373 18.0879 25.6621 18.0879C24.9512 18.0879 24.5684 18.4844 24.5684 19.209L24.5684 22.4355C24.5684 23.8574 23.7891 24.582 22.4355 24.582L19.127 24.582C18.416 24.582 18.0195 24.9785 18.0195 25.6895C18.0195 26.3867 18.416 26.7832 19.127 26.7832Z" style="fill:var(--color-0,hsl(129.09 67.35 48.04/0.5))"></path>
  <path d="M8.17578 12.4824C8.79102 12.4824 9.22852 12.0449 9.22852 11.4297L9.22852 9.46094C9.22852 8.8457 8.79102 8.4082 8.17578 8.4082C7.57422 8.4082 7.12305 8.8457 7.12305 9.46094L7.12305 11.4297C7.12305 12.0449 7.57422 12.4824 8.17578 12.4824ZM12.2773 15.709C12.3184 15.709 12.3594 15.709 12.4004 15.709C13.7812 15.709 14.5332 14.957 14.5332 13.5762L14.5332 9.26953C14.5332 8.75 14.1641 8.39453 13.6445 8.39453C13.1113 8.39453 12.7559 8.75 12.7559 9.26953L12.7559 13.6992C12.7559 13.8359 12.6738 13.9043 12.5371 13.9043L12.0723 13.9043C11.5801 13.9043 11.1973 14.2871 11.1973 14.7793C11.1973 15.3672 11.5938 15.709 12.2773 15.709ZM18.5391 12.4824C19.1406 12.4824 19.5918 12.0449 19.5918 11.4297L19.5918 9.46094C19.5918 8.8457 19.1406 8.4082 18.5391 8.4082C17.9238 8.4082 17.4863 8.8457 17.4863 9.46094L17.4863 11.4297C17.4863 12.0449 17.9238 12.4824 18.5391 12.4824ZM13.3027 20.3027C14.9434 20.3027 16.6113 19.5918 17.8145 18.4023C17.9648 18.252 18.0605 18.0195 18.0605 17.7461C18.0605 17.2266 17.6641 16.8574 17.1582 16.8574C16.9121 16.8574 16.7207 16.9531 16.4473 17.2266C15.709 18.0059 14.5195 18.5391 13.3027 18.5391C12.1406 18.5391 10.9512 18.0332 10.1582 17.2266C9.93945 17.0215 9.74805 16.8574 9.41992 16.8574C8.92773 16.8574 8.53125 17.2266 8.53125 17.7461C8.53125 17.9785 8.62695 18.1973 8.79102 18.3887C9.91211 19.6465 11.6484 20.3027 13.3027 20.3027Z" style="fill:var(--color-1,#28cd41)"></path>
 </g>
</svg>