<svg version="1.1" xmlns="http://www.w3.org/2000/svg" xmlns:xlink="http://www.w3.org/1999/xlink" viewBox="0 0 28.2461 27.9043">
 <g>
  
  <path d="M2.33789 13.9453C2.33789 12.7012 2.5293 11.498 2.88477 10.3906L0.738281 9.48828C0.273438 10.8965 0 12.3867 0 13.9453C0 15.4902 0.273438 16.9941 0.751953 18.4023L2.88477 17.5C2.5293 16.3926 2.33789 15.1895 2.33789 13.9453ZM8.62695 3.58203L7.75195 1.47656C5.04492 2.83008 2.81641 5.05859 1.46289 7.76562L3.5957 8.6543C4.68945 6.48047 6.4668 4.70312 8.62695 3.58203ZM13.9316 2.32422C15.1758 2.32422 16.3789 2.51562 17.5137 2.88477L18.3887 0.751953C16.9805 0.273438 15.4766 0 13.9316 0C12.3867 0 10.8691 0.273438 9.46094 0.751953L10.3633 2.88477C11.4844 2.51562 12.6875 2.32422 13.9316 2.32422ZM24.2949 8.64062L26.4141 7.76562C25.0469 5.05859 22.8184 2.83008 20.1113 1.46289L19.2363 3.58203C21.3965 4.68945 23.1875 6.4668 24.2949 8.64062ZM25.5664 13.9453C25.5664 15.1895 25.375 16.3926 25.0195 17.5137L27.1387 18.416C27.6172 17.0078 27.8906 15.4902 27.8906 13.9453C27.8906 12.3867 27.6172 10.8828 27.1387 9.47461L25.0059 10.377C25.375 11.498 25.5664 12.7012 25.5664 13.9453ZM19.2363 24.2949L20.1113 26.4277C22.832 25.0605 25.0605 22.832 26.4004 20.125L24.3086 19.25C23.2012 21.4238 21.4102 23.1875 19.2363 24.2949ZM13.9453 25.5664C12.6875 25.5664 11.4844 25.375 10.3633 25.0059L9.47461 27.1387C10.8828 27.6172 12.4004 27.8906 13.9453 27.8906C15.4902 27.8906 16.9941 27.6172 18.3887 27.1523L17.5 25.0195C16.3789 25.375 15.1895 25.5664 13.9453 25.5664ZM3.5957 19.25L1.47656 20.125C2.84375 22.832 5.04492 25.0605 7.75195 26.4141L8.62695 24.2812C6.4668 23.1738 4.68945 21.4102 3.5957 19.25Z" style="fill:var(--color-0,hsl(0 0 0/0.85))"></path>
  <path d="M13.9316 20.7949C16.7891 20.7949 18.7031 18.8945 18.7031 17.9922C18.7031 17.6777 18.3887 17.5273 18.1016 17.6641C17.1035 18.1973 15.9141 18.8125 13.9316 18.8125C11.9492 18.8125 10.7598 18.1973 9.77539 17.6641C9.47461 17.5273 9.16016 17.6777 9.16016 17.9922C9.16016 18.8945 11.0742 20.7949 13.9316 20.7949ZM9.88477 12.7422C10.7461 12.7422 11.5117 11.9629 11.5117 10.8691C11.5117 9.76172 10.7598 8.98242 9.88477 8.98242C9.02344 8.98242 8.27148 9.76172 8.27148 10.8691C8.27148 11.9629 9.02344 12.7422 9.88477 12.7422ZM17.9922 12.7422C18.8535 12.7422 19.6191 11.9629 19.6191 10.8691C19.6191 9.76172 18.8672 8.98242 17.9922 8.98242C17.1309 8.98242 16.3789 9.76172 16.3789 10.8691C16.3789 11.9629 17.1309 12.7422 17.9922 12.7422Z" style="fill:var(--color-1,hsl(0 0 0/0.85))"></path>
 </g>
</svg>