<?xml version="1.0" encoding="UTF-8"?>
<!--Generator: Apple Native CoreSVG 326-->
<!DOCTYPE svg
PUBLIC "-//W3C//DTD SVG 1.1//EN"
       "http://www.w3.org/Graphics/SVG/1.1/DTD/svg11.dtd">
<svg version="1.1" xmlns="http://www.w3.org/2000/svg" xmlns:xlink="http://www.w3.org/1999/xlink" viewBox="0 0 28.2461 27.9043">
 <g>
  <rect height="27.9043" opacity="0" width="28.2461" x="0" y="0"/>
  <path d="M13.9453 27.8906C21.6426 27.8906 27.8906 21.6426 27.8906 13.9453C27.8906 6.24805 21.6426 0 13.9453 0C6.24805 0 0 6.24805 0 13.9453C0 21.6426 6.24805 27.8906 13.9453 27.8906ZM13.9453 25.5664C7.51953 25.5664 2.32422 20.3711 2.32422 13.9453C2.32422 7.51953 7.51953 2.32422 13.9453 2.32422C20.3711 2.32422 25.5664 7.51953 25.5664 13.9453C25.5664 20.3711 20.3711 25.5664 13.9453 25.5664Z" fill="white" fill-opacity="0.85"/>
  <path d="M13.9316 20.7949C16.7891 20.7949 18.7031 18.8945 18.7031 17.9922C18.7031 17.6641 18.3887 17.5137 18.1016 17.6504C17.1035 18.1973 15.9141 18.8125 13.9316 18.8125C11.9492 18.8125 10.7598 18.1836 9.77539 17.6504C9.47461 17.5137 9.16016 17.6641 9.16016 17.9922C9.16016 18.8945 11.0742 20.7949 13.9316 20.7949ZM9.88477 12.7285C10.7461 12.7285 11.5117 11.9492 11.5117 10.8555C11.5117 9.74805 10.7598 8.96875 9.88477 8.96875C9.02344 8.96875 8.27148 9.74805 8.27148 10.8555C8.27148 11.9492 9.02344 12.7285 9.88477 12.7285ZM17.9922 12.7285C18.8535 12.7285 19.6191 11.9492 19.6191 10.8555C19.6191 9.74805 18.8672 8.96875 17.9922 8.96875C17.1309 8.96875 16.3789 9.74805 16.3789 10.8555C16.3789 11.9492 17.1309 12.7285 17.9922 12.7285Z" fill="white" fill-opacity="0.85"/>
 </g>
</svg>
