<?xml version="1.0" encoding="UTF-8"?>
<!--Generator: Apple Native CoreSVG 326-->
<!DOCTYPE svg
PUBLIC "-//W3C//DTD SVG 1.1//EN"
       "http://www.w3.org/Graphics/SVG/1.1/DTD/svg11.dtd">
<svg version="1.1" xmlns="http://www.w3.org/2000/svg" xmlns:xlink="http://www.w3.org/1999/xlink" viewBox="0 0 30.7686 30.3997">
 <g>
  <rect height="30.3997" opacity="0" width="30.7686" x="0" y="0"/>
  <path d="M18.2827 22.0522L18.2827 26.0075C18.2827 27.361 18.6929 27.7985 19.9507 27.7985C21.0267 27.803 22.145 27.4743 23.1562 26.9283L24.6871 28.46C23.2479 29.3528 21.5869 29.9039 19.9507 29.9039C17.5171 29.9039 16.1772 28.5231 16.1772 26.0075L16.1772 19.9455ZM3.68279 7.44427C3.59854 7.73526 3.55811 8.02718 3.55811 8.31605C3.55811 10.3726 5.50426 11.6329 9.151 12.9155L15.7372 19.5053C13.8838 25.5001 11.9009 28.9196 8.30225 28.9196C4.43311 28.9196 0.481934 24.3532 0.481934 19.9645C0.481934 17.5309 1.86279 16.1774 4.37842 16.1774L11.6382 16.1774L11.6382 15.986C5.15771 14.0582 1.46631 12.0485 1.46631 8.31605C1.46631 7.47757 1.68076 6.63524 2.07168 5.83229ZM4.37842 18.2692C3.0249 18.2692 2.57373 18.693 2.57373 19.9645C2.57373 23.2047 5.56787 26.8141 8.30225 26.8141C10.8589 26.8141 12.1851 23.8063 13.853 18.2692ZM29.8901 10.4215C29.8901 12.8551 28.5093 14.195 25.9937 14.195L18.6929 14.195L18.6929 14.4C25.1733 16.3141 28.9058 18.3239 28.9058 22.07C28.9058 22.9113 28.6898 23.7571 28.2965 24.5635L26.6867 22.9528C26.7725 22.6582 26.814 22.3625 26.814 22.07C26.814 20.0207 24.8696 18.7616 21.2139 17.4771L14.6318 10.8913C16.4784 4.87955 18.4744 1.46644 22.0698 1.46644C25.939 1.46644 29.8901 6.04652 29.8901 10.4215ZM16.519 12.1032L25.9937 12.1032C27.3472 12.1032 27.7983 11.693 27.7983 10.4215C27.7983 7.19496 24.7905 3.55824 22.0698 3.55824C19.5132 3.55824 18.187 6.56605 16.519 12.1032ZM14.1948 4.39222L14.1948 10.4541L12.103 8.3612L12.103 4.39222C12.103 3.03871 11.6792 2.57386 10.4214 2.57386C9.34129 2.57386 8.21865 2.90808 7.2044 3.4599L5.68013 1.93479C7.12053 1.04081 8.78334 0.48717 10.4214 0.482067C12.8413 0.482067 14.1948 1.8766 14.1948 4.39222Z" fill="white" fill-opacity="0.85"/>
  <path d="M26.9917 28.4957C27.4019 28.9059 28.0718 28.8922 28.4819 28.4821C28.8784 28.0719 28.8921 27.402 28.4819 26.9918L3.39404 1.91761C2.98389 1.50746 2.31396 1.49379 1.89014 1.91761C1.49365 2.3141 1.49365 2.99769 1.89014 3.40785Z" fill="white" fill-opacity="0.85"/>
 </g>
</svg>
