<?xml version="1.0" encoding="UTF-8"?>
<!--Generator: Apple Native CoreSVG 326-->
<!DOCTYPE svg
PUBLIC "-//W3C//DTD SVG 1.1//EN"
       "http://www.w3.org/Graphics/SVG/1.1/DTD/svg11.dtd">
<svg version="1.1" xmlns="http://www.w3.org/2000/svg" xmlns:xlink="http://www.w3.org/1999/xlink" viewBox="0 0 22.1758 31.8418">
 <g>
  <rect height="31.8418" opacity="0" width="22.1758" x="0" y="0"/>
  <path d="M21.8203 10.9102C21.8203 16.5703 17.5273 21.2051 12.0176 21.7656L12.0176 29.1895L15.7637 29.1895C17.0625 29.1895 17.8965 29.9141 17.8965 30.9395C17.8965 31.4727 17.5684 31.8418 17.0625 31.8418L4.77148 31.8418C4.25195 31.8418 3.92383 31.4727 3.92383 30.9395C3.92383 29.9141 4.75781 29.1895 6.05664 29.1895L9.81641 29.1895L9.81641 21.7656C4.30664 21.2188 0 16.5703 0 10.9102C0 4.89453 4.88086 0 10.9102 0C16.9395 0 21.8203 4.89453 21.8203 10.9102ZM4.01953 7.42383C4.01953 9.03711 5.35938 9.88477 7.76562 10.7871C7.75195 11.0469 7.7793 11.252 7.80664 11.457L5.42773 11.457C4.19727 11.457 3.5 12.0859 3.5 13.3027C3.5 15.5449 5.52344 17.8008 7.42383 17.8008C9.03711 17.8008 9.88477 16.4609 10.7871 14.0684C11.0469 14.0684 11.252 14.0547 11.4434 14.0137L11.4434 16.4062C11.4434 17.623 12.0859 18.3203 13.3027 18.3203C15.5449 18.3203 17.8008 16.2969 17.8008 14.4102C17.8008 12.7832 16.4609 11.9492 14.0547 11.0469C14.0684 10.7734 14.0547 10.5684 14.0137 10.377L16.4062 10.377C17.623 10.377 18.3203 9.73438 18.3203 8.53125C18.3203 6.27539 16.2969 4.0332 14.3965 4.0332C12.7832 4.0332 11.9355 5.35938 11.0469 7.76562C10.7734 7.75195 10.5684 7.7793 10.377 7.80664L10.377 5.42773C10.377 4.19727 9.73438 3.5 8.53125 3.5C6.27539 3.5 4.01953 5.53711 4.01953 7.42383ZM12.4414 10.9102C12.4414 11.7441 11.7578 12.4277 10.9238 12.4277C10.0898 12.4277 9.40625 11.7441 9.40625 10.9102C9.40625 10.0762 10.0898 9.39258 10.9238 9.39258C11.7578 9.39258 12.4414 10.0762 12.4414 10.9102Z" fill="white" fill-opacity="0.85"/>
 </g>
</svg>
