<svg version="1.1" xmlns="http://www.w3.org/2000/svg" xmlns:xlink="http://www.w3.org/1999/xlink" viewBox="0 0 28.041 31.8418">
 <g>
  
  <path d="M13.8496 27.6855C21.4922 27.6855 27.6855 21.4922 27.6855 13.8496C27.6855 6.20703 21.4922 0 13.8496 0C6.19336 0 0 6.19336 0 13.8496C0 21.4922 6.19336 27.6855 13.8496 27.6855ZM13.8496 25.4844C7.41016 25.4844 2.20117 20.2754 2.20117 13.8496C2.20117 7.41016 7.41016 2.20117 13.8496 2.20117C20.2754 2.20117 25.4844 7.41016 25.4844 13.8496C25.4844 20.2754 20.2754 25.4844 13.8496 25.4844ZM12.7422 26.8379L12.7422 30.543L14.9434 30.543L14.9434 26.8379ZM6.58984 31.8418L21.0957 31.8418C21.6152 31.8418 21.9434 31.4727 21.9434 30.9395C21.9434 29.9141 21.1094 29.1895 19.8105 29.1895L7.88867 29.1895C6.58984 29.1895 5.75586 29.9141 5.75586 30.9395C5.75586 31.4727 6.08398 31.8418 6.58984 31.8418Z" style="fill:var(--color-0,hsl(0 0 0/0.85))"></path>
  <path d="M10.2676 13.8633L13.166 10.2539L13.166 6.98633C13.166 5.42773 12.373 4.58008 10.8418 4.58008C8.03906 4.58008 5.22266 7.0957 5.22266 9.48828C5.22266 11.5801 7.02734 12.6465 10.2676 13.8633ZM13.8223 10.2812L17.4316 13.166L20.6992 13.166C22.2578 13.166 23.1191 12.373 23.1191 10.8418C23.1191 8.03906 20.5898 5.22266 18.2109 5.22266C16.1055 5.22266 15.0391 7.04102 13.8223 10.2812ZM17.418 13.8359L14.5195 17.4316L14.5195 20.6992C14.5195 22.2715 15.3125 23.1191 16.8438 23.1191C19.6465 23.1191 22.4629 20.5898 22.4629 18.2109C22.4629 16.1055 20.6582 15.0527 17.418 13.8359ZM13.8633 17.418L10.2539 14.5332L6.98633 14.5332C5.42773 14.5332 4.56641 15.3262 4.56641 16.8574C4.56641 19.6465 7.0957 22.4629 9.47461 22.4629C11.5801 22.4629 12.6465 20.6582 13.8633 17.418ZM13.8496 17.7188C15.9824 17.7188 17.7188 15.9824 17.7188 13.8496C17.7188 11.7031 15.9824 9.9668 13.8496 9.9668C11.7031 9.9668 9.9668 11.7031 9.9668 13.8496C9.9668 15.9824 11.7031 17.7188 13.8496 17.7188ZM13.8496 15.791C12.7695 15.791 11.8945 14.916 11.8945 13.8496C11.8945 12.7695 12.7695 11.8945 13.8496 11.8945C14.916 11.8945 15.791 12.7695 15.791 13.8496C15.791 14.916 14.916 15.791 13.8496 15.791Z" style="fill:var(--color-1,hsl(0 0 0/0.85))"></path>
 </g>
</svg>