<?xml version="1.0" encoding="UTF-8"?>
<!--Generator: Apple Native CoreSVG 326-->
<!DOCTYPE svg
PUBLIC "-//W3C//DTD SVG 1.1//EN"
       "http://www.w3.org/Graphics/SVG/1.1/DTD/svg11.dtd">
<svg version="1.1" xmlns="http://www.w3.org/2000/svg" xmlns:xlink="http://www.w3.org/1999/xlink" viewBox="0 0 34.8086 29.9004">
 <g>
  <rect height="29.9004" opacity="0" width="34.8086" x="0" y="0"/>
  <path d="M27.166 3.45898L27.166 3.65039L7.27344 3.65039L7.27344 3.45898C7.27344 1.59961 8.49023 0.533203 10.5137 0.533203L23.9395 0.533203C25.9629 0.533203 27.166 1.59961 27.166 3.45898Z" fill="white" fill-opacity="0.85"/>
  <path d="M32.5801 9.5293L32.5801 20.6582C32.5801 23.3242 31.1719 24.6641 28.5195 24.6641L27.5762 24.6641L27.5762 21.5195C27.5762 19.7012 26.6875 18.9082 24.9512 18.9082L9.48828 18.9082C7.76562 18.9082 6.87695 19.7012 6.87695 21.5195L6.87695 24.6641L5.93359 24.6641C3.28125 24.6641 1.87305 23.3242 1.87305 20.6582L1.87305 9.5293C1.87305 6.86328 3.41797 5.50977 5.93359 5.50977L28.5195 5.50977C31.1719 5.50977 32.5801 6.86328 32.5801 9.5293ZM9.7207 14.082C9.32422 14.082 9.07812 14.3281 9.07812 14.7246L9.07812 16.0234C9.07812 16.4062 9.32422 16.6387 9.7207 16.6387L11.0059 16.6387C11.4023 16.6387 11.6348 16.4062 11.6348 16.0234L11.6348 14.7246C11.6348 14.3281 11.4023 14.082 11.0059 14.082ZM14.3418 14.082C13.9453 14.082 13.7129 14.3281 13.7129 14.7246L13.7129 16.0234C13.7129 16.4062 13.9453 16.6387 14.3418 16.6387L15.627 16.6387C16.0234 16.6387 16.2695 16.4062 16.2695 16.0234L16.2695 14.7246C16.2695 14.3281 16.0234 14.082 15.627 14.082ZM18.9766 14.082C18.5938 14.082 18.3477 14.3281 18.3477 14.7246L18.3477 16.0234C18.3477 16.4062 18.5938 16.6387 18.9766 16.6387L20.2754 16.6387C20.6719 16.6387 20.9043 16.4062 20.9043 16.0234L20.9043 14.7246C20.9043 14.3281 20.6719 14.082 20.2754 14.082ZM23.6113 14.082C23.2148 14.082 22.9824 14.3281 22.9824 14.7246L22.9824 16.0234C22.9824 16.4062 23.2148 16.6387 23.6113 16.6387L24.8965 16.6387C25.293 16.6387 25.5391 16.4062 25.5391 16.0234L25.5391 14.7246C25.5391 14.3281 25.293 14.082 24.8965 14.082ZM9.7207 9.35156C9.32422 9.35156 9.07812 9.58398 9.07812 9.98047L9.07812 11.2656C9.07812 11.6621 9.32422 11.9082 9.7207 11.9082L11.0059 11.9082C11.4023 11.9082 11.6348 11.6621 11.6348 11.2656L11.6348 9.98047C11.6348 9.58398 11.4023 9.35156 11.0059 9.35156ZM14.3418 9.35156C13.9453 9.35156 13.7129 9.58398 13.7129 9.98047L13.7129 11.2656C13.7129 11.6621 13.9453 11.9082 14.3418 11.9082L15.627 11.9082C16.0234 11.9082 16.2695 11.6621 16.2695 11.2656L16.2695 9.98047C16.2695 9.58398 16.0234 9.35156 15.627 9.35156ZM18.9766 9.35156C18.5938 9.35156 18.3477 9.58398 18.3477 9.98047L18.3477 11.2656C18.3477 11.6621 18.5938 11.9082 18.9766 11.9082L20.2754 11.9082C20.6719 11.9082 20.9043 11.6621 20.9043 11.2656L20.9043 9.98047C20.9043 9.58398 20.6719 9.35156 20.2754 9.35156ZM23.6113 9.35156C23.2148 9.35156 22.9824 9.58398 22.9824 9.98047L22.9824 11.2656C22.9824 11.6621 23.2148 11.9082 23.6113 11.9082L24.8965 11.9082C25.293 11.9082 25.5391 11.6621 25.5391 11.2656L25.5391 9.98047C25.5391 9.58398 25.293 9.35156 24.8965 9.35156Z" fill="white" fill-opacity="0.85"/>
  <path d="M12.6602 25.4434L21.9707 25.4434C22.5449 25.4434 23.0098 24.9785 23.0098 24.3906C23.0098 23.8301 22.5449 23.3652 21.9707 23.3652L12.6602 23.3652C12.0723 23.3652 11.6074 23.8301 11.6074 24.3906C11.6074 24.9785 12.0723 25.4434 12.6602 25.4434ZM27.5762 27.2891L27.5762 21.5195C27.5762 19.7012 26.6875 18.9082 24.9512 18.9082L9.48828 18.9082C7.76562 18.9082 6.87695 19.7012 6.87695 21.5195L6.87695 27.2891C6.87695 29.1074 7.76562 29.9004 9.48828 29.9004L24.9512 29.9004C26.6875 29.9004 27.5762 29.1074 27.5762 27.2891ZM9.0918 26.7422L9.0918 22.0664C9.0918 21.3281 9.44727 20.9727 10.1719 20.9727L24.2949 20.9727C25.0195 20.9727 25.3613 21.3281 25.3613 22.0664L25.3613 26.7422C25.3613 27.4805 25.0195 27.8359 24.2949 27.8359L10.1719 27.8359C9.44727 27.8359 9.0918 27.4805 9.0918 26.7422Z" fill="white" fill-opacity="0.85"/>
 </g>
</svg>
