<svg version="1.1" xmlns="http://www.w3.org/2000/svg" xmlns:xlink="http://www.w3.org/1999/xlink" viewBox="0 0 32.0242 23.9395">
 <g>
  
  <path d="M0.849986 9.88477L13.1547 22.1348C14.9047 23.8848 16.7777 23.8848 18.5551 22.1348L30.8187 9.88477C32.0082 8.69531 31.8988 7.24609 30.8051 6.09766C27.1957 2.33789 21.5219 0 15.8344 0C10.1469 0 4.4867 2.35156 0.863658 6.09766C-0.230092 7.23242-0.339467 8.69531 0.849986 9.88477ZM2.47694 8.43555C2.17616 8.13477 2.2035 7.82031 2.46327 7.54688C5.67616 4.23828 10.7074 2.20117 15.7797 2.20117C20.8656 2.20117 25.8422 4.2793 29.0961 7.54688C29.3695 7.82031 29.3832 8.13477 29.0824 8.43555L17.0101 20.4805C16.1762 21.3008 15.3832 21.3008 14.5492 20.4805Z" style="fill:var(--color-0,hsl(0 0 0/0.85))"></path>
  <path d="M2.47694 8.43555C2.17616 8.13477 2.2035 7.82031 2.46327 7.54688C5.67616 4.23828 10.7074 2.20117 15.7797 2.20117C20.8656 2.20117 25.8422 4.2793 29.0961 7.54688C29.3695 7.82031 29.3832 8.13477 29.0824 8.43555L17.0101 20.4805C16.1762 21.3008 15.3832 21.3008 14.5492 20.4805Z" style="fill:var(--color-1,hsl(0 0 0/0.25))"></path>
 </g>
</svg>