<?xml version="1.0" encoding="UTF-8"?>
<!--Generator: Apple Native CoreSVG 326-->
<!DOCTYPE svg
PUBLIC "-//W3C//DTD SVG 1.1//EN"
       "http://www.w3.org/Graphics/SVG/1.1/DTD/svg11.dtd">
<svg version="1.1" xmlns="http://www.w3.org/2000/svg" xmlns:xlink="http://www.w3.org/1999/xlink" viewBox="0 0 36.1762 27.9316">
 <g>
  <rect height="27.9316" opacity="0" width="36.1762" x="0" y="0"/>
  <path d="M22.5178 7.65625C24.5685 7.65625 26.2092 5.94727 26.2092 3.96484C26.2092 1.90039 24.5685 0.21875 22.5178 0.21875C20.4533 0.21875 18.799 1.90039 18.799 3.96484C18.799 5.98828 20.4533 7.65625 22.5178 7.65625ZM20.1389 21.8203C20.7404 21.3418 21.3146 20.5352 21.8615 19.5234L24.3771 14.957C25.5393 12.8516 25.1564 10.7051 23.174 9.63867C21.2463 8.57227 19.2502 9.39258 18.0744 11.5254L15.4768 16.2148ZM0.492378 27.1934C1.20332 27.9453 2.42011 27.877 3.29511 26.9883L9.17402 20.918C9.3791 20.7129 9.50214 20.6582 9.80292 20.7812L14.7658 22.6543C15.8459 23.0645 17.0217 22.9824 17.883 22.8184L14.465 18.5938L10.9787 17.3223C9.36542 16.7344 8.02558 16.9258 6.72675 18.2656L0.615425 24.582C-0.21856 25.457-0.1502 26.5508 0.492378 27.1934ZM23.092 27.3574C23.6525 26.9199 23.6935 26.2363 23.1603 25.5938L20.1389 21.8203C19.4416 22.3125 18.676 22.6543 17.883 22.8184L21.3693 27.0977C21.8752 27.7129 22.5178 27.8359 23.092 27.3574Z" fill="#ff9f0a"/>
  <path d="M28.3967 27.6855L34.9592 27.6855C35.465 27.6855 35.8205 27.3301 35.8205 26.8379C35.8205 26.332 35.465 25.9766 34.9592 25.9766L30.3244 25.9766L30.3244 25.9355L33.2912 22.7363C34.3439 21.6152 35.1232 20.6309 35.1232 19.2227C35.1232 17.2676 33.6057 15.9961 31.2404 15.9961C29.4768 15.9961 27.8908 17.0625 27.4807 18.5117C27.4396 18.7031 27.4123 18.8535 27.4123 19.0312C27.4123 19.5371 27.7404 19.8789 28.26 19.8789C28.7248 19.8789 28.9572 19.5918 29.1896 19.209C29.5178 18.457 30.174 17.6777 31.3225 17.6777C32.4846 17.6777 33.2639 18.3613 33.2639 19.3594C33.2639 20.248 32.5119 21 31.7873 21.7793L27.8088 26.0586C27.59 26.291 27.467 26.5371 27.467 26.8379C27.467 27.3574 27.8225 27.6855 28.3967 27.6855Z" fill="#ff9f0a"/>
  <path d="M6.95917 13.877C10.8283 13.877 13.8361 10.6914 13.8361 6.98633C13.8361 3.11719 10.8283 0 6.95917 0C3.10371 0 0.000190148 3.11719 0.000190148 6.98633C0.000190148 10.6914 3.10371 13.877 6.95917 13.877Z" fill="#ff9f0a"/>
 </g>
</svg>
