<?xml version="1.0" encoding="UTF-8"?>
<!--Generator: Apple Native CoreSVG 326-->
<!DOCTYPE svg
PUBLIC "-//W3C//DTD SVG 1.1//EN"
       "http://www.w3.org/Graphics/SVG/1.1/DTD/svg11.dtd">
<svg version="1.1" xmlns="http://www.w3.org/2000/svg" xmlns:xlink="http://www.w3.org/1999/xlink" viewBox="0 0 27.0566 32.5254">
 <g>
  <rect height="32.5254" opacity="0" width="27.0566" x="0" y="0"/>
  <path d="M13.2344 10.3906C14.8887 10.3906 16.2285 9.05078 16.2285 7.39648C16.2285 5.74219 14.8887 4.41602 13.2344 4.41602C11.5801 4.41602 10.2539 5.74219 10.2539 7.39648C10.2539 9.05078 11.5801 10.3906 13.2344 10.3906ZM25.3203 32.5254C26.0859 32.5254 26.7012 31.8965 26.7012 31.1445L26.7012 24.2129C26.7012 23.7207 26.4414 23.3516 26.0859 23.0508L20.7129 18.6211L19.6465 12.8516C19.5508 12.2637 19.6191 11.6895 19.9062 11.1152L24.4316 2.07812C24.7734 1.39453 24.4863 0.560547 23.8027 0.21875C23.1191-0.123047 22.2852 0.150391 21.9434 0.820312L17.5 9.73438C17.1855 10.3633 16.7344 10.7734 16.0645 11.0469L8.23047 14.3008L5.07227 11.7715C4.83984 11.5938 4.56641 11.5254 4.33398 11.5254L4.33398 7.76562L2.81641 7.76562L2.81641 12.7969C2.81641 13.2617 2.95312 13.6582 3.30859 13.9453L7.16406 17.0078C7.64258 17.377 8.16211 17.3496 8.76367 17.1035L13.043 15.3125C13.6445 15.0527 13.9453 15.3945 14.0137 15.8047L16.1328 27.4941L10.2539 29.8457C9.55664 30.1191 9.20117 30.9258 9.47461 31.6504C9.80273 32.457 10.5957 32.6758 11.2793 32.4023L18.2109 29.6406C18.8125 29.3945 19.127 28.8066 19.0859 28.1777L18.6895 22.791C18.6484 22.1895 19.3047 21.8477 19.7695 22.1621L23.9395 24.9512L23.9395 31.1445C23.9395 31.8965 24.541 32.5254 25.3203 32.5254ZM3.58203 0.492188C1.57227 0.492188 0 2.07812 0 4.10156C0 5.93359 1.55859 7.95703 3.58203 8.64062C5.60547 7.95703 7.15039 5.93359 7.15039 4.10156C7.15039 2.07812 5.57812 0.492188 3.58203 0.492188ZM3.58203 2.00977C4.73047 2.00977 5.63281 2.93945 5.63281 4.14258C5.63281 5.31836 4.77148 6.58984 3.58203 7C2.39258 6.58984 1.51758 5.31836 1.51758 4.14258C1.51758 2.93945 2.41992 2.00977 3.58203 2.00977Z" fill="white" fill-opacity="0.85"/>
 </g>
</svg>
