<svg version="1.1" xmlns="http://www.w3.org/2000/svg" xmlns:xlink="http://www.w3.org/1999/xlink" viewBox="0 0 18.7305 33.2637">
 <g>
  
  <path d="M6.86328 5.97461C8.50391 5.97461 9.85742 4.62109 9.85742 2.98047C9.85742 1.35352 8.50391 0 6.86328 0C5.22266 0 3.88281 1.35352 3.88281 2.98047C3.88281 4.62109 5.22266 5.97461 6.86328 5.97461ZM13.9727 27.6719C14.5469 27.3984 14.916 26.7285 14.5469 25.7988L12.1406 19.7695C12.0723 19.5781 11.9355 19.4277 11.6348 19.209L7.23242 15.9551L7.56055 11.1016C7.57422 10.8281 7.7793 10.7461 8.03906 10.8281L10.8965 11.7988C11.1699 11.8809 11.5117 11.9219 11.8125 11.8809L17.1172 11.293C19.0039 11.0742 18.6621 8.32617 16.8027 8.53125L11.6621 9.11914L6.42578 7.38281C4.51172 6.74023 2.85742 7.82031 2.69336 9.73438L2.31055 14.5195C2.1875 15.9551 2.93945 17.3496 4.16992 18.0605L9.76172 21.3008L11.9766 26.8242C12.3594 27.7949 13.3164 28 13.9727 27.6719ZM1.17578 30.1328C1.73633 30.3926 2.44727 30.3105 2.93945 29.5859L6.5625 24.1855C6.67188 24.0078 6.76758 23.7617 6.78125 23.4609L6.93164 21.0273L3.82812 19.2227L4.00586 23.0371L0.669922 28.041C0.0820312 28.9434 0.505859 29.8184 1.17578 30.1328ZM11.7715 31.9922L17.1309 30.2148C17.5273 30.0781 17.7324 29.8047 17.7324 29.3398L17.7324 12.5098C17.5684 12.5508 17.3906 12.5918 17.1992 12.6191L16.2148 12.7285L16.2148 28.916L11.3203 30.543C10.7871 30.7344 10.6504 31.1992 10.8008 31.5684C10.9102 31.8965 11.2793 32.1562 11.7715 31.9922ZM0.751953 33.2363L6.35742 33.2363C6.78125 33.2363 7.13672 32.8809 7.13672 32.4707C7.13672 32.0469 6.78125 31.7188 6.35742 31.7188L0.751953 31.7188C0.328125 31.7188 0 32.0469 0 32.4707C0 32.8809 0.328125 33.2363 0.751953 33.2363Z" style="fill:var(--color-0,hsl(0 0 0/0.85))"></path>
 </g>
</svg>