<svg version="1.1" xmlns="http://www.w3.org/2000/svg" xmlns:xlink="http://www.w3.org/1999/xlink" viewBox="0 0 28.2461 27.9043">
 <g>
  
  <path d="M13.9453 27.8906C21.6426 27.8906 27.8906 21.6289 27.8906 13.9453C27.8906 6.24805 21.6426 0 13.9453 0C6.26172 0 0 6.24805 0 13.9453C0 21.6289 6.26172 27.8906 13.9453 27.8906Z" style="fill:var(--color-0,hsl(0 0 0/0.85))"></path>
  <path d="M13.6719 7.28711C12.7422 7.28711 11.9766 6.53516 11.9766 5.60547C11.9766 4.64844 12.7422 3.89648 13.6719 3.89648C14.6152 3.89648 15.3809 4.64844 15.3809 5.60547C15.3809 6.53516 14.6152 7.28711 13.6719 7.28711ZM7.57422 13.2344C7.13672 13.166 6.84961 12.7285 6.94531 12.291L7.73828 8.72266C7.82031 8.36719 8.13477 8.09375 8.51758 8.09375L13.4258 8.09375C13.9727 8.09375 14.4922 8.18945 14.9707 8.38086L16.4609 8.94141L16.4609 6.52148C16.4609 6.08398 16.8164 5.72852 17.2539 5.72852C17.7051 5.72852 18.0605 6.08398 18.0605 6.52148L18.0605 10.1855C18.0605 10.7461 17.5273 11.0332 16.9805 10.8281L14.082 9.74805C13.9727 9.69336 13.8359 9.77539 13.7949 9.88477L13.0703 12.7148L15.5996 12.4688C16.0781 12.4141 16.5703 12.8652 16.4473 13.4395L15.668 17.418C15.5586 17.8828 15.0801 18.1152 14.7109 18.0332C14.2871 17.9375 14.0273 17.5273 14.1094 17.0898L14.6426 14.3418L11.7988 15.0391C10.2676 15.4219 9.46094 14.2188 9.76172 12.9883L10.5547 9.9668C10.582 9.83008 10.4863 9.70703 10.3359 9.70703L9.16016 9.70703L8.50391 12.6465C8.38086 13.1113 7.95703 13.3164 7.57422 13.2344ZM11.1426 22.8184C10.7188 22.7363 10.4453 22.2988 10.5273 21.8613L11.293 18.0059L10.9785 15.7773C11.1426 15.832 11.457 15.8184 11.9629 15.709L12.8789 15.4902L12.8789 17.9922C12.8789 18.0469 12.8926 18.1289 12.8789 18.2109L12.0859 22.1758C11.9766 22.627 11.5117 22.8867 11.1426 22.8184ZM14.1777 21.2871C13.9316 21.2871 13.6992 21.082 13.6992 20.8223C13.6992 20.5215 13.9316 20.3301 14.1777 20.3301L18.2793 20.3301C18.5527 20.3301 18.7578 20.5488 18.7578 20.8223C18.7578 21.082 18.5664 21.2871 18.2793 21.2871ZM13.3848 23.0371C13.0977 23.0371 12.8926 22.832 12.8926 22.5586C12.8926 22.2988 13.0977 22.0801 13.3848 22.0801L19.0723 22.0801C19.3184 22.0801 19.5508 22.2988 19.5508 22.5586C19.5508 22.832 19.3184 23.0371 19.0723 23.0371Z" style="fill:var(--color-1,white)"></path>
 </g>
</svg>