<?xml version="1.0" encoding="UTF-8"?>
<!--Generator: Apple Native CoreSVG 326-->
<!DOCTYPE svg
PUBLIC "-//W3C//DTD SVG 1.1//EN"
       "http://www.w3.org/Graphics/SVG/1.1/DTD/svg11.dtd">
<svg version="1.1" xmlns="http://www.w3.org/2000/svg" xmlns:xlink="http://www.w3.org/1999/xlink" viewBox="0 0 28.2461 27.9043">
 <g>
  <rect height="27.9043" opacity="0" width="28.2461" x="0" y="0"/>
  <path d="M13.9453 27.8906C21.6426 27.8906 27.8906 21.6426 27.8906 13.9453C27.8906 6.24805 21.6426 0 13.9453 0C6.24805 0 0 6.24805 0 13.9453C0 21.6426 6.24805 27.8906 13.9453 27.8906ZM13.9453 25.5664C7.51953 25.5664 2.32422 20.3711 2.32422 13.9453C2.32422 7.51953 7.51953 2.32422 13.9453 2.32422C20.3711 2.32422 25.5664 7.51953 25.5664 13.9453C25.5664 20.3711 20.3711 25.5664 13.9453 25.5664Z" fill="white" fill-opacity="0.85"/>
  <path d="M13.6035 9.24219C14.5195 9.24219 15.2441 8.50391 15.2441 7.60156C15.2441 6.69922 14.5195 5.96094 13.6035 5.96094C12.7012 5.96094 11.9629 6.69922 11.9629 7.60156C11.9629 8.50391 12.7012 9.24219 13.6035 9.24219ZM19.4551 10.0352L10.8965 10.0352L11.1289 10.2129C11.4844 10.0762 11.6348 9.73438 11.5391 9.41992C11.457 9.06445 11.1289 8.79102 10.5684 8.91406L8.33984 9.41992C6.9043 9.74805 6.93164 11.5938 8.43555 11.5938L10.8555 11.5938C11.0879 11.5938 11.2656 11.7715 11.2656 12.0039L11.2656 15.1895L8.92773 17.5C8.59961 17.8145 8.38086 18.1426 8.25781 18.6348L7.42383 21.8066C7.27344 22.3809 7.60156 22.7227 7.99805 22.791C8.38086 22.8457 8.80469 22.6816 8.92773 22.2031L9.7207 19.2363C9.81641 18.9492 9.87109 18.8125 10.0898 18.6348L11.9219 17.0762C12.291 16.7617 12.9199 16.8301 13.166 17.2676L14.2734 19.1953L15.9688 22.3809C16.2285 22.873 16.7754 22.9141 17.1172 22.6953C17.4316 22.4902 17.5684 22.0801 17.3496 21.6426L15.6406 18.416L14.6426 16.1328C14.4785 15.75 14.3828 15.3262 14.3828 14.8887L14.3828 12.0039C14.3828 11.7715 14.5605 11.5938 14.7793 11.5938L19.4551 11.5938C19.8926 11.5938 20.248 11.252 20.248 10.8281C20.248 10.3906 19.8926 10.0352 19.4551 10.0352ZM20.8633 10.8281C20.8633 12.3457 20.5762 13.7812 19.9062 15.5996C19.7148 16.2012 20.6035 16.4746 20.8223 15.9004C21.4922 14.2324 21.793 12.6875 21.793 10.8281C21.793 9.02344 21.4922 7.47852 20.8223 5.75586C20.6035 5.19531 19.7012 5.44141 19.9062 6.07031C20.5762 7.875 20.8633 9.32422 20.8633 10.8281Z" fill="white" fill-opacity="0.85"/>
 </g>
</svg>
