<?xml version="1.0" encoding="UTF-8"?>
<!--Generator: Apple Native CoreSVG 326-->
<!DOCTYPE svg
PUBLIC "-//W3C//DTD SVG 1.1//EN"
       "http://www.w3.org/Graphics/SVG/1.1/DTD/svg11.dtd">
<svg version="1.1" xmlns="http://www.w3.org/2000/svg" xmlns:xlink="http://www.w3.org/1999/xlink" viewBox="0 0 26.5781 29.7608">
 <g>
  <rect height="29.7608" opacity="0" width="26.5781" x="0" y="0"/>
  <path d="M22.5312 8.43409C24.582 8.43409 26.2227 6.72511 26.2227 4.74268C26.2227 2.67823 24.582 1.01026 22.5312 1.01026C20.4668 1.01026 18.8125 2.67823 18.8125 4.74268C18.8125 6.77979 20.4668 8.43409 22.5312 8.43409ZM0.505859 27.9985C1.2168 28.7368 2.43359 28.6821 3.29492 27.7798L9.1875 21.7095C9.37891 21.5044 9.51562 21.4497 9.81641 21.5728L14.4102 23.3091C17.3633 24.4439 20.1387 23.4732 21.4375 21.1216L24.3906 15.7485C25.5391 13.6567 25.1699 11.4966 23.1875 10.4302C21.2598 9.37745 19.25 10.1704 18.0879 12.3169L14.2461 19.3032L10.9922 18.1138C9.37891 17.5259 8.02539 17.7173 6.74023 19.0571L0.628906 25.3735C-0.21875 26.2485-0.136719 27.3423 0.505859 27.9985Z" fill="white" fill-opacity="0.85"/>
  <path d="M0 4.83839C0 5.49464 0.505859 6.01417 1.16211 6.01417L7.46484 6.01417L7.46484 8.51612C7.46484 9.63722 8.59961 10.1294 9.43359 9.37745L13.5762 5.71339C14.1367 5.2212 14.1367 4.53761 13.5762 4.01807L9.43359 0.354012C8.64062-0.356925 7.46484 0.039559 7.46484 1.21534L7.46484 3.68995L1.16211 3.68995C0.505859 3.68995 0 4.19581 0 4.83839Z" fill="white" fill-opacity="0.85"/>
 </g>
</svg>
