<svg version="1.1" xmlns="http://www.w3.org/2000/svg" xmlns:xlink="http://www.w3.org/1999/xlink" viewBox="0 0 29.0117 26.127">
 <g>
  
  <path d="M3.73242 25.9766L24.9238 25.9766C27.248 25.9766 28.6562 24.3633 28.6562 22.2715C28.6562 21.6289 28.4648 20.959 28.123 20.3574L17.5137 1.87305C16.8027 0.628906 15.5859 0 14.3281 0C13.0703 0 11.8398 0.628906 11.1426 1.87305L0.533203 20.3574C0.164062 20.9727 0 21.6289 0 22.2715C0 24.3633 1.4082 25.9766 3.73242 25.9766ZM3.74609 23.8301C2.78906 23.8301 2.21484 23.0918 2.21484 22.2578C2.21484 21.998 2.26953 21.6699 2.41992 21.3828L13.0156 2.91211C13.3027 2.40625 13.8223 2.1875 14.3281 2.1875C14.834 2.1875 15.3398 2.40625 15.627 2.91211L26.2227 21.3965C26.373 21.6836 26.4414 21.998 26.4414 22.2578C26.4414 23.0918 25.8398 23.8301 24.8965 23.8301Z" style="fill:var(--color-0,hsl(0 0 0/0.85))"></path>
  <path d="M10.9238 21.6836L13.0977 19.0996C13.3027 18.8535 13.3438 18.7852 13.4121 18.5391L13.5762 18.0332L12.4141 16.5703L12.0723 18.2109L9.92578 20.7676C9.22852 21.5742 10.3496 22.3672 10.9238 21.6836ZM16.2148 21.4922C16.6523 22.3809 17.9922 21.834 17.5 20.8633L16.0234 17.8555C15.9277 17.6367 15.75 17.4043 15.6406 17.1992L14.6973 15.8594L14.7383 15.668C15.0254 14.9297 15.0938 14.4785 15.1484 13.7266L15.2988 11.6484C15.3809 10.6367 14.7656 9.89844 13.7539 9.89844C13.002 9.89844 12.4961 10.2812 11.7715 10.9648L10.6777 12.0449C10.3086 12.4141 10.1992 12.7012 10.1582 13.166L10.0352 14.8887C10.0078 15.2988 10.2539 15.5996 10.6367 15.6133C11.0469 15.6543 11.2793 15.4219 11.3203 14.957L11.4844 13.084L12.0176 12.6191C12.1953 12.4414 12.4688 12.5508 12.4414 12.7422L12.332 14.3281C12.2637 15.1348 12.4551 15.5312 13.002 16.2012L14.4648 18.0332C14.6152 18.2246 14.6426 18.293 14.6973 18.4023ZM18.7441 12.7285L17.0625 12.7285L15.9961 11.5527L15.873 13.2754L16.3105 13.7129C16.543 13.9316 16.748 14.0137 17.1719 14.0137L18.7441 14.0137C19.168 14.0137 19.4414 13.7812 19.4414 13.3711C19.4414 12.9746 19.168 12.7285 18.7441 12.7285ZM14.5742 9.22852C15.4082 9.22852 16.0918 8.54492 16.0918 7.72461C16.0918 6.87695 15.4082 6.20703 14.5742 6.20703C13.7266 6.20703 13.043 6.87695 13.043 7.72461C13.043 8.54492 13.7266 9.22852 14.5742 9.22852Z" style="fill:var(--color-1,hsl(0 0 0/0.85))"></path>
 </g>
</svg>