<svg version="1.1" xmlns="http://www.w3.org/2000/svg" xmlns:xlink="http://www.w3.org/1999/xlink" viewBox="0 0 28.2461 27.9043">
 <g>
  
  <path d="M13.9453 27.8906C21.6426 27.8906 27.8906 21.6289 27.8906 13.9453C27.8906 6.24805 21.6426 0 13.9453 0C6.26172 0 0 6.24805 0 13.9453C0 21.6289 6.26172 27.8906 13.9453 27.8906Z" style="fill:var(--color-0,hsl(0 0 0/0.85))"></path>
  <path d="M17.0215 8.08008C16.0918 8.08008 15.3262 7.31445 15.3262 6.38477C15.3262 5.45508 16.0918 4.68945 17.0215 4.68945C17.9512 4.68945 18.7031 5.45508 18.7031 6.38477C18.7031 7.31445 17.9512 8.08008 17.0215 8.08008ZM5.98828 21.4512C5.6875 21.4512 5.49609 21.1914 5.49609 20.9453C5.49609 20.6855 5.71484 20.4805 5.98828 20.4805L7.80664 20.4805C7.64258 20.207 7.64258 19.8242 7.98438 19.5098L11.2793 16.4746L11.6758 14.9434C11.8125 15.1074 11.9766 15.2031 12.1953 15.3398L13.2344 15.9551L12.7969 16.9941C12.7148 17.1992 12.6602 17.2949 12.4551 17.4863L9.24219 20.4805L15.5039 20.4805C15.4766 20.4395 15.4766 20.3711 15.4766 20.3027L15.4766 16.3652L12.5645 14.7109C11.6895 14.2051 11.4707 13.248 11.9492 12.3867L13.4395 9.69336L11.457 9.77539L11.3477 12.0449C11.334 12.3184 11.252 12.5508 11.1152 12.6738L5.63281 18.0195C5.44141 18.2109 5.11328 18.1973 4.93555 18.0332C4.75781 17.8281 4.77148 17.541 4.94922 17.3496L9.92578 12.4824C9.83008 12.373 9.77539 12.2363 9.78906 12.0586L9.98047 9.07812C10.0215 8.58594 10.3633 8.32617 10.7734 8.29883L14.123 8.13477C15.4082 8.06641 16.2559 8.64062 17.0215 9.26953L19.291 11.1152L20.5898 9.59766C21.1777 8.91406 22.0801 9.44727 22.0254 10.0898L21.3145 19.25C21.3008 19.5371 21.0547 19.7285 20.7949 19.7148C20.5488 19.6875 20.3438 19.4414 20.3574 19.1816L20.9453 11.5391L19.9473 12.6465C19.6191 12.9883 19.1543 13.0293 18.7852 12.7695L16.2148 10.8008L14.6152 13.5898L16.6934 15.2578C16.9668 15.4766 17.0352 15.627 17.0352 15.8594L17.0352 20.3027C17.0352 20.3711 17.0215 20.4395 17.0078 20.4805L20.3984 20.4805C21.0273 20.4805 21.3828 20.3301 21.8203 20.125C22.1211 19.9473 22.3945 20.1387 22.4902 20.3711C22.5723 20.5898 22.4902 20.8496 22.2305 21C21.6699 21.2461 21.1777 21.4512 20.3984 21.4512Z" style="fill:var(--color-1,white)"></path>
 </g>
</svg>