<?xml version="1.0" encoding="UTF-8"?>
<!--Generator: Apple Native CoreSVG 326-->
<!DOCTYPE svg
PUBLIC "-//W3C//DTD SVG 1.1//EN"
       "http://www.w3.org/Graphics/SVG/1.1/DTD/svg11.dtd">
<svg version="1.1" xmlns="http://www.w3.org/2000/svg" xmlns:xlink="http://www.w3.org/1999/xlink" viewBox="0 0 28.2461 27.9043">
 <g>
  <rect height="27.9043" opacity="0" width="28.2461" x="0" y="0"/>
  <path d="M13.9453 27.8906C21.6426 27.8906 27.8906 21.6426 27.8906 13.9453C27.8906 6.24805 21.6426 0 13.9453 0C6.24805 0 0 6.24805 0 13.9453C0 21.6426 6.24805 27.8906 13.9453 27.8906ZM13.9453 25.5664C7.51953 25.5664 2.32422 20.3711 2.32422 13.9453C2.32422 7.51953 7.51953 2.32422 13.9453 2.32422C20.3711 2.32422 25.5664 7.51953 25.5664 13.9453C25.5664 20.3711 20.3711 25.5664 13.9453 25.5664Z" fill="white" fill-opacity="0.85"/>
  <path d="M10.1582 8.81836C11.0742 8.81836 11.8125 8.09375 11.8125 7.16406C11.8125 6.26172 11.0742 5.52344 10.1582 5.52344C9.25586 5.52344 8.50391 6.26172 8.50391 7.16406C8.50391 8.09375 9.25586 8.81836 10.1582 8.81836ZM12.7695 21.5469C13.125 21.6562 13.5762 21.4648 13.6992 21L14.834 16.8711C14.9844 16.3516 14.7656 15.9551 14.2324 15.8184L10.9102 14.875L11.1699 11.9629C11.1699 11.8672 11.2793 11.8262 11.3613 11.8809L12.9062 12.9746C13.166 13.1797 13.5215 13.1797 13.7949 12.9746L16.4746 11.0605C16.8164 10.8145 16.8984 10.3496 16.6523 9.99414C16.4062 9.65234 15.9277 9.57031 15.5859 9.80273L13.3574 11.416L11.5117 10.1035C11.1289 9.80273 10.6504 9.61133 10.0762 9.61133C9.10547 9.61133 8.36719 10.2266 8.3125 11.1016L8.05273 14.6836C7.98438 15.75 8.49023 16.5566 9.69336 16.7344L13.1387 17.2129L12.2227 20.6035C12.0996 21.0547 12.3457 21.4375 12.7695 21.5469ZM19.6738 12.25C20.8223 12.25 21.7793 11.293 21.7793 10.1582C21.7793 9.00977 20.8223 8.05273 19.6738 8.05273C18.5254 8.05273 17.582 9.00977 17.582 10.1582C17.582 11.293 18.5254 12.25 19.6738 12.25ZM19.6738 11.3203C18.9902 11.3203 18.5117 10.8281 18.5117 10.1582C18.5117 9.48828 18.9902 8.99609 19.6738 8.99609C20.3438 8.99609 20.8496 9.48828 20.8496 10.1582C20.8496 10.8281 20.3438 11.3203 19.6738 11.3203ZM14.6836 21.6699L18.9355 21.6699C19.4141 21.6699 19.5508 21.0547 19.168 20.7949L17.7051 19.8379C17.8418 19.6055 17.9375 19.3457 18.0059 19.0723L19.7832 12.0176L18.8535 11.7852L17.0898 18.8398C16.8027 19.9609 15.8457 20.7129 14.6836 20.7129C14.4238 20.7129 14.2188 20.9453 14.2188 21.1914C14.2188 21.4238 14.4102 21.6699 14.6836 21.6699ZM9.0918 18.7852L10.5957 18.4707C10.8008 18.4434 10.9375 18.2383 10.9375 18.0332C10.9375 17.8281 10.7734 17.6367 10.582 17.5957L8.02539 17.1719C7.57422 17.0898 7.41016 17.5137 7.54688 17.8145L7.69727 18.0879C7.9707 18.6484 8.42188 18.9219 9.0918 18.7852ZM7.9707 21.6699L11.2383 21.6699C11.5117 21.6699 11.7168 21.4375 11.7168 21.1914C11.7168 20.9316 11.5117 20.7129 11.2383 20.7129C10.7598 20.7129 10.4316 20.5215 10.2949 19.9473L9.84375 17.9102L8.92773 18.1289L9.2832 19.7695L7.69727 20.7949C7.31445 21.0547 7.45117 21.6699 7.9707 21.6699Z" fill="white" fill-opacity="0.85"/>
 </g>
</svg>
