<?xml version="1.0" encoding="UTF-8"?>
<!--Generator: Apple Native CoreSVG 326-->
<!DOCTYPE svg
PUBLIC "-//W3C//DTD SVG 1.1//EN"
       "http://www.w3.org/Graphics/SVG/1.1/DTD/svg11.dtd">
<svg version="1.1" xmlns="http://www.w3.org/2000/svg" xmlns:xlink="http://www.w3.org/1999/xlink" viewBox="0 0 28.2461 27.9043">
 <g>
  <rect height="27.9043" opacity="0" width="28.2461" x="0" y="0"/>
  <path d="M13.9453 27.8906C21.6426 27.8906 27.8906 21.6426 27.8906 13.9453C27.8906 6.24805 21.6426 0 13.9453 0C6.24805 0 0 6.24805 0 13.9453C0 21.6426 6.24805 27.8906 13.9453 27.8906ZM13.9453 25.5664C7.51953 25.5664 2.32422 20.3711 2.32422 13.9453C2.32422 7.51953 7.51953 2.32422 13.9453 2.32422C20.3711 2.32422 25.5664 7.51953 25.5664 13.9453C25.5664 20.3711 20.3711 25.5664 13.9453 25.5664Z" fill="white" fill-opacity="0.85"/>
  <path d="M15.9141 8.03906C16.8438 8.03906 17.5684 7.30078 17.5684 6.38477C17.5684 5.46875 16.8438 4.74414 15.9141 4.74414C15.0117 4.74414 14.2734 5.46875 14.2734 6.38477C14.2734 7.30078 15.0117 8.03906 15.9141 8.03906ZM8.36719 13.5078C8.81836 13.7266 9.24219 13.5215 9.41992 13.166L10.8008 10.3906L12.4414 10.3906C12.6328 10.3906 12.7422 10.5684 12.6602 10.7188L11.2109 13.6035C10.6641 14.6699 11.334 16.0098 12.7422 15.9141L16.625 15.6816L15.2031 18.8809C15.0254 19.291 15.1895 19.7969 15.5859 19.9336C16.0371 20.1113 16.4336 19.9746 16.625 19.5371L18.6348 15.1348C18.8672 14.6562 18.5527 14 17.9375 14L14.3965 14L15.9688 10.8691C16.0371 10.7188 16.1875 10.7051 16.2969 10.8008L18.1562 12.5645C18.5254 12.9199 19.1953 12.8652 19.4414 12.3594L21.0273 9.14648C21.2324 8.75 21.0957 8.28516 20.6719 8.09375C20.2754 7.90234 19.8242 8.05273 19.6055 8.44922L18.498 10.6504L17.5957 9.74805C16.9805 9.13281 16.3242 8.80469 15.3262 8.80469L10.3086 8.80469C10.0078 8.80469 9.74805 8.98242 9.59766 9.25586L7.99805 12.4551C7.80664 12.8516 7.94336 13.3027 8.36719 13.5078ZM6.91797 20.9453C7.16406 21.4648 7.69727 21.4648 7.95703 21.3555L11.2383 19.9473C11.4023 19.8789 11.5391 19.7422 11.6211 19.5645L13.1113 16.584L12.7695 16.5977C12.1543 16.6387 11.5391 16.4609 11.1836 16.1328L10.2812 18.6074L7.31445 19.8789C6.91797 20.043 6.69922 20.5215 6.91797 20.9453ZM19.373 22.0117C20.2891 22.0117 21.0273 21.2871 21.0273 20.3711C21.0273 19.4414 20.2891 18.7031 19.373 18.7031C18.457 18.7031 17.7324 19.4414 17.7324 20.3711C17.7324 21.2871 18.457 22.0117 19.373 22.0117Z" fill="white" fill-opacity="0.85"/>
 </g>
</svg>
