<?xml version="1.0" encoding="UTF-8"?>
<!--Generator: Apple Native CoreSVG 326-->
<!DOCTYPE svg
PUBLIC "-//W3C//DTD SVG 1.1//EN"
       "http://www.w3.org/Graphics/SVG/1.1/DTD/svg11.dtd">
<svg version="1.1" xmlns="http://www.w3.org/2000/svg" xmlns:xlink="http://www.w3.org/1999/xlink" viewBox="0 0 34.5078 25.1426">
 <g>
  <rect height="25.1426" opacity="0" width="34.5078" x="0" y="0"/>
  <path d="M20.2344 5.94727C21.875 5.94727 23.2148 4.60742 23.2148 2.9668C23.2148 1.33984 21.875 0 20.2344 0C18.5938 0 17.2539 1.33984 17.2539 2.9668C17.2539 4.60742 18.5938 5.94727 20.2344 5.94727ZM15.3672 22.832C15.0254 24.6777 17.7871 25.1152 18.1289 23.2422L19.5371 15.5586C19.6738 14.8477 19.209 14.0684 18.3887 13.959L13.7676 13.3027L16.625 10.4453C16.8984 10.1582 17.3086 10.1582 17.582 10.4453L25.5527 18.416C26.0859 18.9355 26.9746 18.9902 27.5215 18.416C28.0547 17.8418 28.0684 16.9941 27.5215 16.4473L16.9531 5.87891C16.3105 5.23633 15.4355 4.85352 14.4922 4.85352L8.38086 4.85352C8.01172 4.85352 7.65625 5.00391 7.39648 5.26367L3.21289 9.46094C2.66602 10.0078 2.66602 10.8828 3.21289 11.4297C3.75977 11.9766 4.62109 11.9766 5.16797 11.4297L8.96875 7.64258L11.416 7.64258C11.6758 7.64258 11.7852 7.875 11.6074 8.05273L7.83398 11.8125C6.0293 13.6309 6.98633 16.7207 9.87109 16.7207L16.4746 16.7207ZM7.45117 17.3906L7.08203 21.6152L1.39453 21.6152C0.628906 21.6152 0 22.2441 0 23.0098C0 23.7754 0.628906 24.4043 1.39453 24.4043L8.38086 24.4043C9.07812 24.4043 9.63867 23.8711 9.76172 23.1738L10.6914 18.0469L9.87109 18.0469C8.91406 18.0469 8.09375 17.8008 7.45117 17.3906ZM28.2734 24.4043L32.457 24.4043C33.4004 24.4043 34.1523 23.6387 34.1523 22.6953C34.1523 21.7656 33.4004 21 32.457 21L28.2734 21C27.3164 21 26.5508 21.7656 26.5508 22.6953C26.5508 23.6387 27.3164 24.4043 28.2734 24.4043ZM31.1309 21.8613L32.3887 21.8613L32.3887 20.5078C32.3887 19.373 31.5273 18.498 30.4062 18.498L28.9707 18.498C28.6152 18.498 28.3281 18.7852 28.3281 19.1406C28.3281 19.4961 28.6152 19.7695 28.9707 19.7695L30.4062 19.7695C30.8301 19.7695 31.1309 20.084 31.1309 20.5078Z" fill="white" fill-opacity="0.85"/>
 </g>
</svg>
