<svg version="1.1" xmlns="http://www.w3.org/2000/svg" xmlns:xlink="http://www.w3.org/1999/xlink" viewBox="0 0 28.2461 27.9043">
 <g>
  
  <path d="M13.9453 27.8906C21.6426 27.8906 27.8906 21.6426 27.8906 13.9453C27.8906 6.24805 21.6426 0 13.9453 0C6.24805 0 0 6.24805 0 13.9453C0 21.6426 6.24805 27.8906 13.9453 27.8906ZM13.9453 25.5664C7.51953 25.5664 2.32422 20.3711 2.32422 13.9453C2.32422 7.51953 7.51953 2.32422 13.9453 2.32422C20.3711 2.32422 25.5664 7.51953 25.5664 13.9453C25.5664 20.3711 20.3711 25.5664 13.9453 25.5664Z" style="fill:var(--color-0,hsl(0 0 0/0.85))"></path>
  <path d="M16.9121 8.23047C17.8145 8.23047 18.5527 7.49219 18.5527 6.58984C18.5527 5.6875 17.8145 4.94922 16.9121 4.94922C16.0098 4.94922 15.2578 5.6875 15.2578 6.58984C15.2578 7.49219 16.0098 8.23047 16.9121 8.23047ZM20.1523 19.0039C20.125 19.25 20.3301 19.4824 20.5762 19.5098C20.8223 19.5234 21.0684 19.3457 21.082 19.0586L21.7656 10.1582L20.8223 10.1035ZM16.5977 15.1895L14.5879 13.5762L16.1328 10.8691L18.6211 12.7832C18.9766 13.043 19.4414 13.002 19.7559 12.6602L21.5742 10.623C22.2031 9.92578 21.1777 8.77734 20.4531 9.61133L19.0996 11.1699L16.9121 9.39258C16.1602 8.77734 15.3535 8.2168 14.0957 8.28516L10.8555 8.44922C10.4453 8.47656 10.1172 8.72266 10.0898 9.20117L9.89844 12.0859C9.84375 13.002 11.3477 13.3301 11.4023 12.0723L11.5254 9.87109L13.4258 9.80273L11.9902 12.4141C11.5254 13.248 11.7441 14.1641 12.5781 14.6562L15.4219 16.2695L15.4219 20.084C15.4219 20.5078 15.75 20.8496 16.1602 20.8496C16.5977 20.8496 16.9258 20.5078 16.9258 20.084L16.9258 15.7773C16.9258 15.5449 16.8574 15.3945 16.5977 15.1895ZM5.20898 17.2266C5.01758 17.4043 5.01758 17.6914 5.19531 17.8828C5.35938 18.0469 5.67383 18.0469 5.86523 17.8691L11.1973 12.6875L10.541 12.0176ZM11.7168 14.8887L11.334 16.3652L8.14844 19.3184C7.36914 20.043 8.42188 21.1504 9.22852 20.3984L12.4961 17.3496C12.6875 17.1719 12.7422 17.0762 12.8242 16.8711L13.248 15.873L12.2227 15.2715C12.0176 15.1484 11.8535 15.0391 11.7168 14.8887ZM20.1797 21.1914C20.959 21.1914 21.4238 21 21.957 20.7539C22.2168 20.6309 22.2852 20.3574 22.2168 20.1523C22.1348 19.9199 21.8613 19.7422 21.5742 19.9062C21.1504 20.1113 20.8086 20.2617 20.1797 20.2617L8.92773 20.2617C8.69531 20.2617 8.46289 20.4531 8.46289 20.6992C8.46289 20.959 8.66797 21.1914 8.92773 21.1914ZM17.5137 21.1914L17.5137 20.2617L6.19336 20.2617C5.94727 20.2617 5.72852 20.4531 5.72852 20.6992C5.72852 20.9453 5.91992 21.1914 6.19336 21.1914Z" style="fill:var(--color-1,hsl(0 0 0/0.85))"></path>
 </g>
</svg>