<svg version="1.1" xmlns="http://www.w3.org/2000/svg" xmlns:xlink="http://www.w3.org/1999/xlink" viewBox="0 0 30.8643 31.459">
 <g>
  
  <path d="M14.8101 5.94727C16.4644 5.94727 17.8042 4.59375 17.8042 2.98047C17.8042 1.32617 16.4644 0 14.8101 0C13.1694 0 11.8433 1.32617 11.8433 2.98047C11.8433 4.59375 13.1694 5.94727 14.8101 5.94727ZM4.17334 28.1777C3.43506 28.916 3.59912 29.8184 4.146 30.3105C4.63818 30.748 5.48584 30.8438 6.16943 30.1602L11.3784 24.9512C11.4878 24.8418 11.5288 24.8008 11.6245 24.623L14.1948 19.7969C14.564 19.0859 15.5757 19.0586 16.2046 19.5234L22.0288 23.9395L22.0288 29.9551C22.0288 30.8848 22.603 31.459 23.4507 31.459C24.2983 31.459 24.8726 30.8848 24.8726 29.9551L24.8726 23.2559C24.8726 22.8457 24.7085 22.4902 24.3394 22.1621L17.7769 16.5293L17.7769 10.4043C17.7769 10.0625 18.0093 9.78906 18.4194 9.7207L29.3022 8.06641C30.0679 7.94336 30.6011 7.20508 30.478 6.43945C30.3687 5.67383 29.644 5.14062 28.8784 5.26367L7.19482 8.54492L7.19482 4.19727L4.37842 4.19727L4.37842 10.1992C4.37842 11.0879 5.10303 11.7168 6.00537 11.5801L10.6948 10.8691C11.1187 10.8008 11.4331 11.0742 11.4331 11.498L11.4331 17.0352L9.17725 23.1738ZM4.73389 5.74219C6.34717 5.74219 8.13818 4.99023 9.19092 3.80078C9.54639 3.4043 9.54639 2.88477 9.19092 2.47461C8.13818 1.28516 6.34717 0.533203 4.73389 0.533203C3.13428 0.533203 1.34326 1.28516 0.276855 2.47461C-0.0922852 2.88477-0.0922852 3.4043 0.276855 3.81445C1.34326 4.99023 3.13428 5.74219 4.73389 5.74219Z" style="fill:var(--color-0,hsl(0 0 0/0.85))"></path>
 </g>
</svg>