<svg version="1.1" xmlns="http://www.w3.org/2000/svg" xmlns:xlink="http://www.w3.org/1999/xlink" viewBox="0 0 33.3594 30.9121">
 <g>
  
  <path d="M13.4805 5.49609C15.0117 5.49609 16.2422 4.2793 16.2422 2.76172C16.2422 1.2168 15.0117 0 13.4805 0C11.9629 0 10.7324 1.2168 10.7324 2.76172C10.7324 4.2793 11.9629 5.49609 13.4805 5.49609ZM15.9688 26.0859C16.748 27.6719 19.0586 26.7012 18.2246 24.9922L16.0234 20.5078C15.832 20.1113 15.5586 19.6875 15.3125 19.3457L13.6855 17.0352L13.7949 16.6934C14.2188 15.3945 14.4102 14.6016 14.4922 13.3164L14.7383 9.67969C14.8613 7.94336 13.8496 6.63086 12.0723 6.63086C10.7461 6.63086 9.84375 7.30078 8.61328 8.51758L6.69922 10.4043C6.07031 11.0195 5.87891 11.5254 5.81055 12.332L5.57812 15.3125C5.50977 16.0781 5.93359 16.584 6.61719 16.625C7.32812 16.6797 7.75195 16.2559 7.82031 15.4629L8.09375 12.1953L9.03711 11.3613C9.36523 11.0742 9.80273 11.252 9.78906 11.5938L9.58398 14.3555C9.47461 15.7637 9.80273 16.4336 10.7461 17.623L13.3164 20.8223C13.5625 21.1367 13.5898 21.2734 13.6992 21.4785ZM20.7266 11.5527L17.8145 11.5527L15.9961 9.54297L15.7637 12.5645L16.4883 13.2891C16.8984 13.6992 17.2539 13.8223 18.0059 13.8223L20.7266 13.8223C21.4922 13.8223 21.998 13.3848 21.998 12.6875C21.998 11.9902 21.4785 11.5527 20.7266 11.5527ZM7.01367 27.3027L10.9102 22.6816C11.2793 22.2441 11.3203 22.1484 11.4707 21.6699L11.7168 20.9316L9.69336 18.416L9.11914 21.1367L5.27734 25.6484C4.08789 27.0703 6.01562 28.4648 7.01367 27.3027ZM25.1699 15.3262C25.3203 15.6816 25.7852 15.8594 26.1953 15.668L32.5664 12.7012C32.9492 12.5098 33.1133 12.0586 32.9355 11.6621C32.7715 11.3066 32.3203 11.1426 31.9102 11.334L25.5391 14.3008C25.1562 14.4922 24.9785 14.9434 25.1699 15.3262ZM25.8672 26.6191L27.1113 26.5371C27.248 26.5371 27.3164 26.5234 27.4121 26.5371L29.7363 13.2617L28.082 14ZM0.710938 30.8984L27.6172 30.8984C28.4648 30.8984 29.1348 30.2285 29.1348 29.3535C29.1348 28.3555 28.3691 27.7949 27.3164 27.8633L0.710938 29.4492C0.314453 29.4902 0 29.7773 0 30.1875C0 30.584 0.314453 30.8984 0.710938 30.8984Z" style="fill:var(--color-0,hsl(0 0 0/0.85))"></path>
 </g>
</svg>