<?xml version="1.0" encoding="UTF-8"?>
<!--Generator: Apple Native CoreSVG 326-->
<!DOCTYPE svg
PUBLIC "-//W3C//DTD SVG 1.1//EN"
       "http://www.w3.org/Graphics/SVG/1.1/DTD/svg11.dtd">
<svg version="1.1" xmlns="http://www.w3.org/2000/svg" xmlns:xlink="http://www.w3.org/1999/xlink" viewBox="0 0 28.2461 27.9043">
 <g>
  <rect height="27.9043" opacity="0" width="28.2461" x="0" y="0"/>
  <path d="M13.9453 27.8906C21.6426 27.8906 27.8906 21.6426 27.8906 13.9453C27.8906 6.24805 21.6426 0 13.9453 0C6.24805 0 0 6.24805 0 13.9453C0 21.6426 6.24805 27.8906 13.9453 27.8906ZM13.9453 25.5664C7.51953 25.5664 2.32422 20.3711 2.32422 13.9453C2.32422 7.51953 7.51953 2.32422 13.9453 2.32422C20.3711 2.32422 25.5664 7.51953 25.5664 13.9453C25.5664 20.3711 20.3711 25.5664 13.9453 25.5664Z" fill="white" fill-opacity="0.85"/>
  <path d="M15.6543 9.11914C16.543 9.11914 17.2539 8.39453 17.2539 7.49219C17.2539 6.60352 16.543 5.89258 15.6543 5.89258C14.752 5.89258 14.041 6.60352 14.041 7.49219C14.041 8.39453 14.752 9.11914 15.6543 9.11914ZM11.9492 23.625C12.332 23.625 12.6738 23.2832 12.6738 22.873L12.6738 19.3184L14.4102 16.7617C14.4648 16.666 14.6289 16.6934 14.6426 16.8301L14.916 19.0996C14.9297 19.2363 14.9434 19.3047 14.998 19.4414L16.3926 23.1328C16.584 23.5977 17.0078 23.6934 17.3496 23.5703C17.7051 23.4336 17.9785 23.0918 17.8008 22.6133L16.4199 18.9355L16.4199 11.8945C16.4199 11.1152 16.0781 10.2949 15.3262 9.98047L14.8477 9.77539C14 9.41992 13.1934 9.54297 12.4688 10.0488L10.7188 11.3066L8.79102 10.5137L12.6738 5.09961L13.9316 5.09961C14.2734 5.09961 14.5469 4.83984 14.5469 4.51172C14.5469 4.15625 14.2734 3.91016 13.9316 3.91016L12.7148 3.91016C12.5918 3.91016 12.4414 3.97852 12.3594 4.08789L7.60156 10.6641C7.3418 11.0195 7.41016 11.5254 7.83398 11.7168L10.5137 12.8652C10.6367 12.9199 10.7188 12.9199 10.8828 12.9199L12.6602 12.9199C12.9473 12.9199 13.043 13.1113 13.043 13.3164L13.043 15.3535L11.2656 18.7441C11.1973 18.8535 11.1836 18.9629 11.1836 19.0996L11.1836 22.873C11.1836 23.2832 11.5254 23.625 11.9492 23.625Z" fill="white" fill-opacity="0.85"/>
 </g>
</svg>
