<?xml version="1.0" encoding="UTF-8"?>
<!--Generator: Apple Native CoreSVG 326-->
<!DOCTYPE svg
PUBLIC "-//W3C//DTD SVG 1.1//EN"
       "http://www.w3.org/Graphics/SVG/1.1/DTD/svg11.dtd">
<svg version="1.1" xmlns="http://www.w3.org/2000/svg" xmlns:xlink="http://www.w3.org/1999/xlink" viewBox="0 0 34.1032 30.5293">
 <g>
  <rect height="30.5293" opacity="0" width="34.1032" x="0" y="0"/>
  <path d="M9.19029 6.23438C10.7489 6.23438 12.0204 4.96289 12.0204 3.4043C12.0204 1.8457 10.7489 0.587891 9.19029 0.587891C7.6317 0.587891 6.37389 1.8457 6.37389 3.4043C6.37389 4.96289 7.6317 6.23438 9.19029 6.23438ZM25.6922 5.64648C27.2508 5.64648 28.5223 4.375 28.5223 2.81641C28.5223 1.27148 27.2508 0 25.6922 0C24.1337 0 22.8758 1.27148 22.8758 2.81641C22.8758 4.375 24.1337 5.64648 25.6922 5.64648ZM1.31529 9.70703L4.20006 9.93945C4.39147 9.95312 4.52818 10.0898 4.52818 10.3086L4.52818 15.5449C4.52818 16.5977 4.86998 17.623 5.51256 18.4297L8.88951 22.7773L7.16686 28.5059C6.93443 29.2578 7.37193 30.0645 8.09654 30.2695C8.82115 30.4746 9.61412 30.1328 9.86022 29.3125L11.7879 22.873C11.829 22.75 11.8426 22.6543 11.8426 22.5312L17.0653 29.1348C17.5438 29.7363 18.4462 29.8594 19.0204 29.3809C19.6356 28.8613 19.745 28.0137 19.2665 27.3984L9.94225 15.5996L10.3661 11.416C10.4071 11.1152 10.6805 10.9648 10.9403 11.0879L14.1805 12.7148C14.3993 12.8379 14.7958 12.9199 15.1102 12.9199L20.1004 12.9199C20.4286 12.9199 20.7704 12.7969 21.0028 12.5918L23.368 10.5684C23.6004 10.3633 23.8876 10.459 23.9969 10.7324L25.3231 14.4238L19.7313 15.9551C19.1708 16.1055 18.7333 16.5977 18.6786 17.1855L18.0497 23.625C17.9676 24.541 18.7743 25.1562 19.4579 25.1562C20.1688 25.1562 20.784 24.6367 20.8524 23.8984L21.3856 18.5391L25.3094 17.9375L23.4364 21.7109C23.2313 22.1211 23.1219 22.5723 23.286 22.9961L25.87 29.4355C26.1844 30.2148 27.0321 30.4883 27.702 30.2148C28.4129 29.9277 28.7684 29.1074 28.4813 28.3828L26.1844 22.6543L29.3563 18.1426C30.1629 17.0215 30.4501 15.5723 30.204 14.2188L29.7118 11.5117C29.6434 11.1426 29.9305 10.9102 30.2723 11.0195L31.8993 11.5664C33.0067 11.9492 33.8407 11.2656 33.745 10.1582L33.0887 3.65039C33.0204 2.84375 32.2958 2.29688 31.5575 2.37891C30.8055 2.46094 30.2176 3.14453 30.286 3.9375L30.7235 8.23047L26.8407 6.93164C25.2547 6.39844 23.5731 6.68555 22.2606 7.82031L19.5946 10.1172L15.2743 10.1172L11.1044 8.03906C10.4754 7.71094 9.86022 7.54688 9.16295 7.49219L3.32506 7.05469L4.67857 2.9668C4.93834 2.21484 4.52818 1.42188 3.80357 1.17578C3.06529 0.929688 2.25865 1.32617 2.02623 2.06445L0.071153 7.84766C-0.215956 8.72266 0.399278 9.63867 1.31529 9.70703Z" fill="white" fill-opacity="0.85"/>
 </g>
</svg>
