<?xml version="1.0" encoding="UTF-8"?>
<!--Generator: Apple Native CoreSVG 326-->
<!DOCTYPE svg
PUBLIC "-//W3C//DTD SVG 1.1//EN"
       "http://www.w3.org/Graphics/SVG/1.1/DTD/svg11.dtd">
<svg version="1.1" xmlns="http://www.w3.org/2000/svg" xmlns:xlink="http://www.w3.org/1999/xlink" viewBox="0 0 20.5332 34.6855">
 <g>
  <rect height="34.6855" opacity="0" width="20.5332" x="0" y="0"/>
  <path d="M11.2783 5.97461C12.9189 5.97461 14.2451 4.63477 14.2451 2.9668C14.2451 1.32617 12.9189 0 11.2783 0C9.61034 0 8.2705 1.32617 8.2705 2.9668C8.2705 4.63477 9.61034 5.97461 11.2783 5.97461ZM14.4775 13.959C15.0381 14.5469 16.1182 14.5059 16.6103 13.7266L19.9326 8.39453C20.958 6.75391 18.5517 5.44141 17.6084 6.94531L15.2021 10.8281L13.3154 8.92773C11.4971 7.12305 9.51464 6.75391 6.75292 7.06836L1.88573 7.61523C1.25683 7.68359 0.764639 8.18945 0.696279 8.79102L0.0126855 14.1641C-0.206065 15.8867 2.47362 16.3379 2.70604 14.4922L3.25292 10.1992L5.79589 9.91211C6.15136 9.88477 6.39745 10.1172 6.34276 10.5137L5.70019 15.7773C5.38573 18.2656 6.82128 19.7012 9.28222 19.5234L14.3135 19.168L12.8096 24.6504C12.3037 26.4961 14.9697 27.1387 15.4482 25.3477L17.4307 18.0469C17.6767 17.1172 17.0478 16.3242 16.0088 16.3242L10.8135 16.3242L11.4697 11.8398C11.5381 11.4023 11.9346 11.3887 12.1807 11.6621ZM7.0537 20.5625L6.72558 25.4297L4.15526 31.8555C3.70409 33.0039 4.5244 33.7969 5.37206 33.7969C5.90526 33.7969 6.43847 33.5098 6.7119 32.8262L9.3369 26.2363C9.36425 26.1406 9.40526 26.0312 9.41894 25.9355L10.1846 20.7949L9.37792 20.8496C8.51659 20.9043 7.72362 20.7949 7.0537 20.5625Z" fill="white" fill-opacity="0.85"/>
 </g>
</svg>
