<?xml version="1.0" encoding="UTF-8"?>
<!--Generator: Apple Native CoreSVG 326-->
<!DOCTYPE svg
PUBLIC "-//W3C//DTD SVG 1.1//EN"
       "http://www.w3.org/Graphics/SVG/1.1/DTD/svg11.dtd">
<svg version="1.1" xmlns="http://www.w3.org/2000/svg" xmlns:xlink="http://www.w3.org/1999/xlink" viewBox="0 0 28.2461 27.9043">
 <g>
  <rect height="27.9043" opacity="0" width="28.2461" x="0" y="0"/>
  <path d="M13.9453 27.8906C21.6426 27.8906 27.8906 21.6289 27.8906 13.9453C27.8906 6.24805 21.6426 0 13.9453 0C6.26172 0 0 6.24805 0 13.9453C0 21.6289 6.26172 27.8906 13.9453 27.8906Z" fill="white" fill-opacity="0.85"/>
  <path d="M13.3711 10.3906C12.4277 10.3906 11.6621 9.625 11.6621 8.69531C11.6621 7.75195 12.4277 6.98633 13.3711 6.98633C14.3008 6.98633 15.0664 7.75195 15.0664 8.69531C15.0664 9.625 14.3008 10.3906 13.3711 10.3906ZM5.83789 7.24609C5.83789 6.09766 6.72656 5.16797 7.875 5.16797C9.02344 5.16797 9.91211 6.09766 9.91211 7.24609C9.91211 8.14844 9.25586 9.13281 8.3125 9.65234L8.3125 11.0332C8.44922 11.0469 8.58594 11.0742 8.73633 11.1973L10.5273 12.6328L14.9707 10.7734C15.3535 10.5957 15.6133 10.377 15.791 10.0215L18.1152 5.38672C18.3066 5.00391 18.7852 4.85352 19.168 5.04492C19.5645 5.25 19.7148 5.71484 19.5098 6.11133L17.1582 10.8145C17.0078 11.1426 16.9531 11.457 17.0215 11.7988L17.623 15.0801L20.6855 17.5957C20.8906 17.7598 21.0273 17.9922 21.0273 18.2656L21.0273 22.0664C21.0273 22.4902 20.6855 22.8594 20.248 22.8594C19.8105 22.8594 19.4551 22.4902 19.4551 22.0664L19.4551 18.6895L17.0898 17.1035C16.8301 16.9121 16.4609 17.1172 16.4883 17.459L16.6934 20.5215C16.707 20.8633 16.5566 21.2188 16.2012 21.3555L12.25 22.9277C11.8809 23.0645 11.416 22.9551 11.2246 22.5039C11.0742 22.0938 11.2793 21.6289 11.6758 21.4648L15.0254 20.1387L13.8223 13.4805C13.7812 13.2344 13.5898 13.0703 13.2617 13.207L10.8145 14.2051C10.4863 14.3555 10.1855 14.3828 9.91211 14.1641L7.71094 12.4141C7.51953 12.25 7.4375 12.0449 7.4375 11.7715L7.4375 9.65234C6.50781 9.14648 5.83789 8.16211 5.83789 7.24609ZM6.71289 7.25977C6.71289 7.92969 7.19141 8.64062 7.875 8.88672C8.55859 8.64062 9.03711 7.92969 9.03711 7.25977C9.03711 6.57617 8.53125 6.07031 7.875 6.07031C7.21875 6.07031 6.71289 6.57617 6.71289 7.25977Z" fill="white"/>
 </g>
</svg>
