<?xml version="1.0" encoding="UTF-8"?>
<!--Generator: Apple Native CoreSVG 326-->
<!DOCTYPE svg
PUBLIC "-//W3C//DTD SVG 1.1//EN"
       "http://www.w3.org/Graphics/SVG/1.1/DTD/svg11.dtd">
<svg version="1.1" xmlns="http://www.w3.org/2000/svg" xmlns:xlink="http://www.w3.org/1999/xlink" viewBox="0 0 28.2461 27.9043">
 <g>
  <rect height="27.9043" opacity="0" width="28.2461" x="0" y="0"/>
  <path d="M13.9453 27.8906C21.6426 27.8906 27.8906 21.6289 27.8906 13.9453C27.8906 6.24805 21.6426 0 13.9453 0C6.26172 0 0 6.24805 0 13.9453C0 21.6289 6.26172 27.8906 13.9453 27.8906Z" fill="white" fill-opacity="0.85"/>
  <path d="M17.2402 7.90234C16.2969 7.90234 15.5176 7.12305 15.5176 6.17969C15.5176 5.25 16.2969 4.48438 17.2402 4.48438C18.1699 4.48438 18.9355 5.25 18.9355 6.17969C18.9355 7.12305 18.1699 7.90234 17.2402 7.90234ZM20.959 18.4844C20.6855 18.4844 20.4805 18.2656 20.4805 17.9922L20.4805 11.334L16.8438 11.334C16.625 11.334 16.4199 11.2383 16.2832 11.1016L14.998 9.81641C14.8613 9.67969 14.6973 9.70703 14.5742 9.81641L12.7559 11.6484L14.793 13.6992C14.9297 13.8496 15.0391 14.0547 15.0391 14.2734L15.0391 18.0059C15.0391 18.2383 14.9297 18.416 14.8066 18.5527L18.1152 21.875C18.5664 22.3262 18.6758 22.3945 19.1953 22.3945C19.4551 22.3945 19.6738 22.627 19.6738 22.873C19.6738 23.1328 19.4551 23.3516 19.1953 23.3516C18.5938 23.3516 18.0332 23.1738 17.541 22.668L12.7832 17.8965L12.7832 18.1973C12.7832 18.4023 12.6875 18.6074 12.5508 18.7305L16.0918 22.2988C16.5566 22.75 16.666 22.8047 17.1855 22.8047C17.4316 22.8047 17.6641 23.0371 17.6641 23.3105C17.6641 23.5566 17.4453 23.7891 17.1855 23.7891C16.5703 23.7891 16.0508 23.5977 15.5449 23.0918L7.12305 14.6699C6.94531 14.5059 6.94531 14.1914 7.12305 13.9863C7.31445 13.8086 7.62891 13.7949 7.80664 13.9863L11.1699 17.3633L11.1699 16.2969L9.13281 14.2598C8.96875 14.0684 8.95508 13.7539 9.13281 13.5762C9.32422 13.3848 9.63867 13.3848 9.81641 13.5762L11.1699 14.9297L11.1699 13.8496L9.78906 12.4824C9.14648 11.8535 9.11914 10.7324 9.76172 10.0898L9.87109 9.98047L4.89453 9.98047C4.62109 9.98047 4.41602 9.76172 4.41602 9.50195C4.41602 9.22852 4.62109 9.00977 4.89453 9.00977L10.7734 9.00977L9.5293 7.73828C9.02344 7.23242 9.26953 6.35742 10.0762 6.35742L13.002 6.35742C13.5078 6.35742 14.0137 6.5625 14.3691 6.93164L17.1582 9.70703L20.5762 9.70703C21.0137 9.70703 21.4375 10.0625 21.4375 10.4863L21.4375 17.9922C21.4375 18.2656 21.2188 18.4844 20.959 18.4844ZM12.7832 16.543L13.4121 17.1582L13.4121 14.6016L12.7832 13.9727Z" fill="white"/>
 </g>
</svg>
