<?xml version="1.0" encoding="UTF-8"?>
<!--Generator: Apple Native CoreSVG 326-->
<!DOCTYPE svg
PUBLIC "-//W3C//DTD SVG 1.1//EN"
       "http://www.w3.org/Graphics/SVG/1.1/DTD/svg11.dtd">
<svg version="1.1" xmlns="http://www.w3.org/2000/svg" xmlns:xlink="http://www.w3.org/1999/xlink" viewBox="0 0 28.2461 27.9043">
 <g>
  <rect height="27.9043" opacity="0" width="28.2461" x="0" y="0"/>
  <path d="M13.9453 27.8906C21.6426 27.8906 27.8906 21.6289 27.8906 13.9453C27.8906 6.24805 21.6426 0 13.9453 0C6.26172 0 0 6.24805 0 13.9453C0 21.6289 6.26172 27.8906 13.9453 27.8906Z" fill="white" fill-opacity="0.85"/>
  <path d="M5.14062 16.9941C4.88086 16.9941 4.66211 16.7754 4.66211 16.5156C4.66211 16.2559 4.88086 16.0371 5.14062 16.0371L5.94727 16.0371C7.39648 16.0371 7.90234 14.752 9.92578 14.752C11.9629 14.752 12.4824 16.0371 13.9316 16.0371C15.3945 16.0371 15.9004 14.752 17.9375 14.752C19.9609 14.752 20.4668 16.0371 21.916 16.0371L22.7227 16.0371C22.9824 16.0371 23.2012 16.2559 23.2012 16.5156C23.2012 16.7754 22.9824 16.9941 22.7227 16.9941L21.916 16.9941C19.7969 16.9941 19.3457 15.709 17.9375 15.709C16.5156 15.709 16.0645 16.9941 13.9316 16.9941C11.7988 16.9941 11.3477 15.709 9.92578 15.709C8.51758 15.709 8.06641 16.9941 5.94727 16.9941ZM5.3457 19.1133C5.11328 19.1133 4.9082 18.9082 4.9082 18.6484C4.9082 18.4023 5.11328 18.1973 5.3457 18.1973C5.60547 18.1973 5.79688 18.4023 5.79688 18.6484C5.79688 18.9082 5.60547 19.1133 5.3457 19.1133ZM6.80859 18.8398C6.5625 18.8398 6.35742 18.6348 6.35742 18.3887C6.35742 18.1289 6.5625 17.9375 6.80859 17.9375C7.05469 17.9375 7.25977 18.1289 7.25977 18.3887C7.25977 18.6348 7.05469 18.8398 6.80859 18.8398ZM8.18945 18.1973C7.94336 18.1973 7.73828 17.9922 7.73828 17.7324C7.73828 17.4863 7.94336 17.2812 8.18945 17.2812C8.43555 17.2812 8.6543 17.4863 8.6543 17.7324C8.6543 17.9922 8.43555 18.1973 8.18945 18.1973ZM9.66602 17.8555C9.40625 17.8555 9.21484 17.6504 9.21484 17.4043C9.21484 17.1445 9.40625 16.9531 9.66602 16.9531C9.91211 16.9531 10.1172 17.1445 10.1172 17.4043C10.1172 17.6504 9.91211 17.8555 9.66602 17.8555ZM11.1289 18.1973C10.8691 18.1973 10.6777 17.9922 10.6777 17.7324C10.6777 17.4863 10.8691 17.2812 11.1289 17.2812C11.3887 17.2812 11.5801 17.4863 11.5801 17.7324C11.5801 17.9922 11.3887 18.1973 11.1289 18.1973ZM12.4961 18.8398C12.25 18.8398 12.0586 18.6348 12.0586 18.3887C12.0586 18.1289 12.25 17.9375 12.4961 17.9375C12.7559 17.9375 12.9473 18.1289 12.9473 18.3887C12.9473 18.6348 12.7559 18.8398 12.4961 18.8398ZM22.5449 19.1133C22.2852 19.1133 22.0938 18.9082 22.0938 18.6484C22.0938 18.4023 22.2852 18.1973 22.5449 18.1973C22.7773 18.1973 22.9961 18.4023 22.9961 18.6484C22.9961 18.9082 22.7773 19.1133 22.5449 19.1133ZM21.0957 18.8398C20.8359 18.8398 20.6445 18.6348 20.6445 18.3887C20.6445 18.1289 20.8359 17.9375 21.0957 17.9375C21.3281 17.9375 21.5469 18.1289 21.5469 18.3887C21.5469 18.6348 21.3281 18.8398 21.0957 18.8398ZM19.7148 18.1973C19.4551 18.1973 19.2637 17.9922 19.2637 17.7324C19.2637 17.4863 19.4551 17.2812 19.7148 17.2812C19.9473 17.2812 20.1523 17.4863 20.1523 17.7324C20.1523 17.9922 19.9473 18.1973 19.7148 18.1973ZM18.2246 17.8555C17.9922 17.8555 17.7734 17.6504 17.7734 17.4043C17.7734 17.1445 17.9922 16.9531 18.2246 16.9531C18.4844 16.9531 18.6758 17.1445 18.6758 17.4043C18.6758 17.6504 18.4844 17.8555 18.2246 17.8555ZM16.7617 18.1973C16.5156 18.1973 16.3105 17.9922 16.3105 17.7324C16.3105 17.4863 16.5156 17.2812 16.7617 17.2812C17.0215 17.2812 17.2129 17.4863 17.2129 17.7324C17.2129 17.9922 17.0215 18.1973 16.7617 18.1973ZM15.3945 18.8398C15.1484 18.8398 14.9434 18.6348 14.9434 18.3887C14.9434 18.1289 15.1484 17.9375 15.3945 17.9375C15.6406 17.9375 15.8457 18.1289 15.8457 18.3887C15.8457 18.6348 15.6406 18.8398 15.3945 18.8398ZM13.9453 19.1133C13.6855 19.1133 13.4941 18.9082 13.4941 18.6484C13.4941 18.4023 13.6855 18.1973 13.9453 18.1973C14.2051 18.1973 14.3965 18.4023 14.3965 18.6484C14.3965 18.9082 14.2051 19.1133 13.9453 19.1133ZM18.0469 12.7832C17.0898 12.7832 16.3379 12.0449 16.3379 11.0879C16.3379 10.1445 17.0898 9.40625 18.0469 9.40625C18.9766 9.40625 19.7422 10.1445 19.7422 11.0879C19.7422 12.0449 18.9766 12.7832 18.0469 12.7832ZM11.3887 13.9043L13.002 12.8379C13.248 12.6738 13.1934 12.4141 13.043 12.2637L11.6348 10.8281L9.14648 12.5781C8.72266 12.8789 8.27148 12.7695 8.02539 12.4824C7.71094 12.1543 7.65625 11.5938 8.17578 11.2383L11.2383 9.06445C11.6621 8.76367 12.168 8.80469 12.5234 9.17383L16.9121 13.7266C15.6953 14.041 15.2988 14.8887 13.9316 14.8887C12.7559 14.8887 12.25 14.2734 11.3887 13.9043Z" fill="white"/>
 </g>
</svg>
