<?xml version="1.0" encoding="UTF-8"?>
<!--Generator: Apple Native CoreSVG 326-->
<!DOCTYPE svg
PUBLIC "-//W3C//DTD SVG 1.1//EN"
       "http://www.w3.org/Graphics/SVG/1.1/DTD/svg11.dtd">
<svg version="1.1" xmlns="http://www.w3.org/2000/svg" xmlns:xlink="http://www.w3.org/1999/xlink" viewBox="0 0 28.2461 27.9043">
 <g>
  <rect height="27.9043" opacity="0" width="28.2461" x="0" y="0"/>
  <path d="M13.9453 27.8906C21.6426 27.8906 27.8906 21.6289 27.8906 13.9453C27.8906 6.24805 21.6426 0 13.9453 0C6.26172 0 0 6.24805 0 13.9453C0 21.6289 6.26172 27.8906 13.9453 27.8906Z" fill="white" fill-opacity="0.85"/>
  <path d="M20.166 11.334C19.209 11.334 18.457 10.5957 18.457 9.63867C18.457 8.69531 19.209 7.94336 20.166 7.94336C21.082 7.94336 21.8613 8.69531 21.8613 9.63867C21.8613 10.5957 21.082 11.334 20.166 11.334ZM6.58984 20.1113C6.58984 19.6602 6.94531 19.291 7.39648 19.291L11.375 19.291L12.0586 17.2266C12.1953 17.4863 12.4414 17.7461 12.7832 17.9922L13.6035 18.5664L12.6738 20.4531C12.5234 20.7266 12.2363 20.9043 11.9355 20.9043L7.39648 20.9043C6.94531 20.9043 6.58984 20.5488 6.58984 20.1113ZM12.3867 11.5664L13.1797 8.79102C13.2207 8.62695 13.3301 8.49023 13.4395 8.39453L13.4395 7.13672C13.0156 6.60352 12.5918 5.79688 12.5918 5.16797C12.5918 4.38867 13.1387 3.82812 13.918 3.82812C14.6973 3.82812 15.2305 4.38867 15.2305 5.16797C15.2305 5.72852 14.8203 6.52148 14.4102 7.08203L14.4102 8.4082C14.6426 8.59961 14.752 8.91406 14.6699 9.24219L14.4102 10.1445L14.4102 11.0059L17.0762 11.0059C18.4023 11.0059 19.4551 12.0723 19.4551 13.3848L19.4551 16.543C19.4551 16.9805 19.1133 17.3359 18.6621 17.3359L16.1191 17.3359L17.623 18.7305C17.8965 18.9629 17.9375 19.3457 17.7734 19.7012L15.8184 23.6387C15.5996 24.0625 15.1074 24.1582 14.752 23.9805C14.3555 23.7754 14.2051 23.2969 14.3965 22.9141L16.0781 19.5508L13.1934 17.4453C11.9492 16.5293 12.0859 14.6562 13.4395 13.918L13.4395 12.5645L13.1113 12.5645C12.5371 12.5645 12.2363 12.0859 12.3867 11.5664ZM14.4102 13.4258L15.9688 12.6328C15.9961 12.6191 15.9824 12.5645 15.9414 12.5645L14.4102 12.5645ZM16.1875 15.791L17.9102 15.791L17.9102 15.1348C17.9102 15.0527 17.8281 14.998 17.7598 15.0254Z" fill="white"/>
 </g>
</svg>
