<svg version="1.1" xmlns="http://www.w3.org/2000/svg" xmlns:xlink="http://www.w3.org/1999/xlink" viewBox="0 0 31.459 29.9824">
 <g>
  
  <path d="M17.2949 5.97461C18.9355 5.97461 20.2754 4.62109 20.2754 2.98047C20.2754 1.33984 18.9355 0 17.2949 0C15.6543 0 14.3008 1.33984 14.3008 2.98047C14.3008 4.62109 15.6543 5.97461 17.2949 5.97461ZM21.1367 29.668C21.7246 29.4355 22.1758 28.834 21.9434 28L19.8789 20.7949C19.7695 20.4531 19.5781 20.1797 19.25 19.9883L14.9434 17.459L16.9941 11.375C17.1445 10.9102 17.6367 10.8555 17.9785 11.1973L21.0273 14.2324C21.3008 14.4922 21.6289 14.6426 21.9844 14.6426C22.3535 14.6426 22.6953 14.5195 22.9688 14.2324L27.084 10.1035C27.6035 9.55664 27.6445 8.72266 27.084 8.17578C26.5508 7.64258 25.6895 7.62891 25.1426 8.17578L21.9844 11.334L19.3457 8.59961C18.1289 7.3418 16.8301 7.08203 14.3008 7.08203L1.38086 7.08203C0.628906 7.08203 0 7.69727 0 8.46289C0 9.21484 0.628906 9.83008 1.38086 9.83008L10.9785 9.83008C11.375 9.83008 11.7441 10.1582 11.5527 10.7051L9.95312 15.5039C9.39258 17.1992 10.1855 19.0176 11.8262 19.7285L17.3906 22.1758L19.3047 28.7109C19.5781 29.6816 20.4531 29.9141 21.1367 29.668ZM3.69141 29.1895C4.04688 29.709 4.74414 29.9824 5.50977 29.5723L11.6484 26.168C11.9492 26.0039 12.168 25.7305 12.291 25.375L13.4668 21.8887L11.3066 20.9453C11.0469 20.8223 10.8008 20.6992 10.5547 20.5352L9.80273 24.0352L4.18359 27.1797C3.30859 27.6855 3.28125 28.6016 3.69141 29.1895ZM22.668 17.7188L31.1035 17.7188L31.1035 16.2012L22.668 16.2012C22.2441 16.2012 21.916 16.5293 21.916 16.9531C21.916 17.377 22.2441 17.7188 22.668 17.7188ZM1.88672 7.61523L3.26758 7.61523L3.26758 5.6875L1.88672 5.6875ZM2.58398 0.478516C1.14844 0.478516 0 1.62695 0 3.07617C0 4.38867 1.14844 5.96094 2.58398 6.28906C4.01953 5.96094 5.1543 4.38867 5.1543 3.07617C5.1543 1.62695 4.01953 0.478516 2.58398 0.478516Z" style="fill:var(--color-0,hsl(0 0 0/0.85))"></path>
 </g>
</svg>