<?xml version="1.0" encoding="UTF-8"?>
<!--Generator: Apple Native CoreSVG 326-->
<!DOCTYPE svg
PUBLIC "-//W3C//DTD SVG 1.1//EN"
       "http://www.w3.org/Graphics/SVG/1.1/DTD/svg11.dtd">
<svg version="1.1" xmlns="http://www.w3.org/2000/svg" xmlns:xlink="http://www.w3.org/1999/xlink" viewBox="0 0 36.7734 27.7402">
 <g>
  <rect height="27.7402" opacity="0" width="36.7734" x="0" y="0"/>
  <path d="M8.78904 7.42383C6.73826 7.42383 5.09763 5.71484 5.09763 3.73242C5.09763 1.66797 6.73826 0 8.78904 0C10.8535 0 12.5078 1.66797 12.5078 3.73242C12.5078 5.76953 10.8535 7.42383 8.78904 7.42383ZM30.8144 26.9883C30.1035 27.7266 28.8867 27.6719 28.0254 26.7695L22.1328 20.6992C21.9414 20.4941 21.8047 20.4395 21.5039 20.5625L16.9101 22.2988C13.957 23.4336 11.1816 22.4629 9.88279 20.1113L6.92966 14.7383C5.78123 12.6465 6.15037 10.4863 8.13279 9.41992C10.0742 8.36719 12.0703 9.16016 13.2324 11.3066L17.0742 18.293L20.3281 17.1035C21.9414 16.5156 23.2949 16.707 24.5801 18.0469L30.6914 24.3633C31.539 25.2383 31.457 26.332 30.8144 26.9883Z" fill="white" fill-opacity="0.85"/>
  <path d="M29.9531 5.45508C29.9531 4.9082 29.5019 4.4707 28.9277 4.4707L23.582 4.4707L23.582 2.35156C23.582 1.33984 22.5703 0.998047 21.8867 1.61328L18.3457 4.75781C17.8535 5.19531 17.8672 5.75586 18.3457 6.20703L21.8867 9.35156C22.5976 9.99414 23.582 9.57031 23.582 8.61328L23.582 6.48047L28.9277 6.48047C29.5019 6.48047 29.9531 6.0293 29.9531 5.45508ZM32.6054 7.02734C32.0449 7.02734 31.5937 7.47852 31.5937 8.03906L31.5937 13.3848L29.4609 13.3848C28.5039 13.3848 28.0801 14.3691 28.7226 15.0801L31.8672 18.6348C32.291 19.1133 32.8652 19.127 33.3027 18.6348L36.4609 15.0801C37.0898 14.4102 36.7344 13.4121 35.709 13.3984L33.5898 13.3848L33.5898 8.03906C33.5898 7.47852 33.1523 7.02734 32.6054 7.02734Z" fill="white" fill-opacity="0.85"/>
 </g>
</svg>
