<svg version="1.1" xmlns="http://www.w3.org/2000/svg" xmlns:xlink="http://www.w3.org/1999/xlink" viewBox="0 0 28.2461 27.9043">
 <g>
  
  <path d="M13.9453 27.8906C21.6426 27.8906 27.8906 21.6426 27.8906 13.9453C27.8906 6.24805 21.6426 0 13.9453 0C6.24805 0 0 6.24805 0 13.9453C0 21.6426 6.24805 27.8906 13.9453 27.8906ZM13.9453 25.5664C7.51953 25.5664 2.32422 20.3711 2.32422 13.9453C2.32422 7.51953 7.51953 2.32422 13.9453 2.32422C20.3711 2.32422 25.5664 7.51953 25.5664 13.9453C25.5664 20.3711 20.3711 25.5664 13.9453 25.5664Z" style="fill:var(--color-0,hsl(0 0 0/0.85))"></path>
  <path d="M14.2734 8.61328C15.1758 8.61328 15.9141 7.88867 15.9141 6.95898C15.9141 6.05664 15.1758 5.31836 14.2734 5.31836C13.3438 5.31836 12.6191 6.05664 12.6191 6.95898C12.6191 7.88867 13.3438 8.61328 14.2734 8.61328ZM20.5078 10.9512C20.9316 10.9512 21.2871 10.6094 21.2871 10.1855C21.2871 9.74805 20.9316 9.40625 20.5078 9.40625L12.6738 9.40625C11.9355 9.40625 11.3066 9.78906 10.9512 10.4727L7.5332 17.3086L5.60547 15.3945C5.29102 15.0938 4.8125 15.0938 4.52539 15.3945C4.22461 15.6953 4.21094 16.1602 4.52539 16.4746L7.23242 19.1953C7.56055 19.5234 8.08008 19.4824 8.33984 19.0996L10.5684 15.832C10.6914 15.6406 10.9512 15.627 11.1289 15.7363L13.877 17.8555L13.877 21.6836C13.877 22.1074 14.2188 22.4355 14.6426 22.4355C15.0664 22.4355 15.4219 22.1074 15.4219 21.6836L15.4219 17.459C15.4219 17.2539 15.3262 17.0625 15.1895 16.9258L12.5098 14.2461L13.959 11.3613C14.0957 11.0879 14.3418 10.9512 14.6289 10.9512ZM15.791 14.3965L18.5938 14.3965C19.0176 14.3965 19.3457 14.0547 19.3457 13.6309C19.3457 13.207 19.0176 12.8652 18.5938 12.8652L16.1191 12.8652L14.8613 11.6074L14.6289 11.6074C14.5742 11.6074 14.5742 11.6074 14.5469 11.6621L13.9453 12.8516L15.2578 14.1777C15.3945 14.3145 15.5996 14.3965 15.791 14.3965ZM19.9199 12.7559C19.9199 13.5078 20.7812 14.1094 21.8477 14.1094C22.9004 14.1094 23.7617 13.5078 23.7617 12.7559C23.7617 12.0312 22.9004 11.4297 21.8477 11.4297C20.7812 11.4297 19.9199 12.0312 19.9199 12.7559Z" style="fill:var(--color-1,hsl(0 0 0/0.85))"></path>
 </g>
</svg>