<svg version="1.1" xmlns="http://www.w3.org/2000/svg" xmlns:xlink="http://www.w3.org/1999/xlink" viewBox="0 0 33.0312 32.7715">
 <g>
  
  <path d="M13.7402 6.26172C15.3809 6.26172 16.707 4.93555 16.707 3.28125C16.707 1.64062 15.3809 0.314453 13.7402 0.314453C12.0723 0.314453 10.7461 1.64062 10.7461 3.28125C10.7461 4.93555 12.0723 6.26172 13.7402 6.26172ZM14.6426 19.0996L22.1621 21.4238L29.3535 24.6914C31.2129 25.5254 32.3066 22.9141 30.5566 22.1074L18.1699 16.5156L18.1699 9.87109C18.1699 9.32422 18.3066 9.25586 18.7031 9.10547L22.4355 7.58789C22.9004 7.39648 22.9414 7.28711 23.1738 7.01367L27.0977 2.46094C27.6172 1.85938 27.5215 0.970703 26.9336 0.478516C26.3457-0.0273438 25.4434 0.0546875 24.9512 0.642578L21.2051 5.00391L3.96484 12.0449C3.47266 12.2363 3.1582 12.4414 2.95312 12.6465L9.98047 12.6465L12.0996 11.7988C12.5234 11.6348 12.6738 11.7852 12.6738 12.0449L12.6738 16.3926C12.6738 17.8281 13.3301 18.7031 14.6426 19.0996ZM13.3984 31.0215C13.084 32.1016 13.9453 32.7715 14.7793 32.7715C15.3535 32.7715 15.9414 32.457 16.1191 31.7598L18.1289 24.4863C18.1562 24.3496 18.1699 24.2129 18.1699 24.1035L18.1699 21.5332L14.9023 20.5352L15.3262 24.0215ZM0.765625 15.5312L11.3203 15.5312L11.3203 14.0137L0.765625 14.0137C0.328125 14.0137 0 14.3418 0 14.7656C0 15.1895 0.328125 15.5312 0.765625 15.5312ZM31.9238 15.5312C32.3477 15.5312 32.6758 15.1895 32.6758 14.7656C32.6758 14.3418 32.3477 14.0137 31.9238 14.0137L19.5371 14.0137L19.5371 15.0391L19.5371 15.5312Z" style="fill:var(--color-0,hsl(0 0 0/0.85))"></path>
 </g>
</svg>