<svg version="1.1" xmlns="http://www.w3.org/2000/svg" xmlns:xlink="http://www.w3.org/1999/xlink" viewBox="0 0 28.2461 27.9043">
 <g>
  
  <path d="M13.9453 27.8906C21.6426 27.8906 27.8906 21.6426 27.8906 13.9453C27.8906 6.24805 21.6426 0 13.9453 0C6.24805 0 0 6.24805 0 13.9453C0 21.6426 6.24805 27.8906 13.9453 27.8906ZM13.9453 25.5664C7.51953 25.5664 2.32422 20.3711 2.32422 13.9453C2.32422 7.51953 7.51953 2.32422 13.9453 2.32422C20.3711 2.32422 25.5664 7.51953 25.5664 13.9453C25.5664 20.3711 20.3711 25.5664 13.9453 25.5664Z" style="fill:var(--color-0,hsl(0 0 0/0.85))"></path>
  <path d="M15.3535 10.0215C16.2559 10.0215 16.9941 9.29688 16.9941 8.36719C16.9941 7.46484 16.2559 6.72656 15.3535 6.72656C14.4238 6.72656 13.6855 7.46484 13.6855 8.36719C13.6855 9.29688 14.4238 10.0215 15.3535 10.0215ZM16.5293 15.2168C16.9668 15.2168 17.3223 14.8613 17.3223 14.4238C17.3223 14 16.9668 13.6445 16.5293 13.6445L13.7676 13.6445L13.7676 10.8008C13.7676 9.85742 12.9609 9.25586 12.0859 9.43359L7.42383 10.4043C5.74219 10.7461 5.27734 12.7559 6.49414 13.8223L9.40625 16.3789L9.40625 20.3711C9.40625 20.8086 9.76172 21.1641 10.1992 21.1641C10.623 21.1641 10.9922 20.8086 10.9922 20.3711L10.9922 16.0781C10.9922 15.791 10.9238 15.6543 10.7461 15.4492L8.51758 13.207C8.39453 13.084 8.46289 12.8926 8.59961 12.8789L11.7441 12.291C12.0586 12.2363 12.1816 12.332 12.1816 12.6191L12.1816 14.4238C12.1816 14.8613 12.5234 15.2168 12.9609 15.2168ZM20.7949 18.2656L21.8887 18.2656C22.2988 18.2656 22.5859 17.9922 22.5859 17.5957L22.5859 10.8145C22.5859 10.4316 22.2988 10.1445 21.916 10.1445L20.7539 10.1445C17.9922 10.1445 16.3379 10.8828 14.5605 12.9746L15.8184 12.9746C15.8594 12.9746 15.9141 12.9746 15.9277 12.9746C17.2812 11.6348 18.6484 11.1426 20.7539 11.1426L21.5879 11.1426L21.5879 17.2812L20.7949 17.2812C20.5215 17.2812 20.3438 17.1582 20.248 16.9395L19.5508 15.5586C19.4277 15.3125 19.1543 15.2578 18.9629 15.3125C18.7031 15.4082 18.498 15.6816 18.6484 16.0098L19.3457 17.3906C19.6191 17.9238 20.1797 18.2656 20.7949 18.2656ZM11.6484 17.9238C12.4824 17.3633 13.0977 16.625 13.6719 15.873L12.9746 15.873C12.8105 15.873 12.6328 15.832 12.4688 15.7773C12.209 16.1055 11.9355 16.3652 11.6484 16.6387ZM6.23438 19.0723L7.54688 19.0723C7.9707 19.0723 8.38086 19.0449 8.75 18.9766L8.75 17.9785C8.38086 18.0469 7.98438 18.0879 7.54688 18.0879L6.23438 18.0879C5.96094 18.0879 5.74219 18.3066 5.74219 18.5801C5.74219 18.8398 5.97461 19.0723 6.23438 19.0723Z" style="fill:var(--color-1,hsl(0 0 0/0.85))"></path>
 </g>
</svg>