<svg version="1.1" xmlns="http://www.w3.org/2000/svg" xmlns:xlink="http://www.w3.org/1999/xlink" viewBox="0 0 44.4967 38.8691">
 <g>
  
  <path d="M36.5765 12.9883C38.6272 12.9883 40.2679 11.2793 40.2679 9.29688C40.2679 7.23242 38.6272 5.56445 36.5765 5.56445C34.512 5.56445 32.8577 7.23242 32.8577 9.29688C32.8577 11.334 34.512 12.9883 36.5765 12.9883ZM14.5511 32.5527C15.262 33.291 16.4788 33.2363 17.3401 32.334L23.2327 26.2637C23.4241 26.0586 23.5608 26.0039 23.8616 26.127L28.4554 27.8633C31.4085 28.998 34.1839 28.0273 35.4827 25.6758L38.4358 20.3027C39.5843 18.2109 39.2151 16.0508 37.2327 14.9844C35.2913 13.9316 33.2952 14.7246 32.1331 16.8711L28.2913 23.8574L25.0374 22.668C23.4104 22.0801 22.0706 22.2715 20.7854 23.6113L14.6741 29.9277C13.8265 30.8027 13.9085 31.8965 14.5511 32.5527Z" style="fill:var(--color-0,hsl(0 0 0/0.85))"></path>
  <path d="M0.236614 9.9668L3.95536 14.7109C4.11943 14.9297 4.37919 14.9707 4.61161 14.834C5.50029 14.3691 6.77177 14.0547 7.76982 14.0547C8.78154 14.0547 10.053 14.3691 10.9143 14.834C11.1741 14.9707 11.4339 14.9297 11.5843 14.7109L15.3167 9.9668C15.6858 9.48828 15.6175 9.00977 15.18 8.6543C13.6624 7.49219 10.7913 6.60352 7.76982 6.60352C4.762 6.60352 1.89091 7.49219 0.387005 8.6543C-0.0778388 9.00977-0.118854 9.48828 0.236614 9.9668ZM4.09208 17.4863C3.66825 16.9258 3.49052 16.4063 3.49052 15.8457C3.49052 14.5605 4.52958 14.2324 4.52958 13.4805C4.52958 12.7148 3.49052 12.4004 3.49052 11.0742C3.49052 10.5273 3.66825 10.0078 4.09208 9.46094C4.5706 8.88672 5.43193 9.50195 4.96708 10.1035C4.6663 10.5273 4.58427 10.7598 4.58427 11.0742C4.58427 12.0039 5.60966 12.2637 5.60966 13.4805C5.60966 14.6836 4.58427 14.957 4.58427 15.8457C4.58427 16.2012 4.6663 16.4063 4.96708 16.8438C5.41825 17.4316 4.5706 18.0605 4.09208 17.4863ZM7.30497 17.4863C6.90849 16.9258 6.71708 16.4063 6.71708 15.8457C6.71708 14.5605 7.75615 14.2324 7.75615 13.4805C7.75615 12.7148 6.71708 12.4004 6.71708 11.0742C6.71708 10.5273 6.89482 10.0078 7.30497 9.46094C7.78349 8.88672 8.65849 9.50195 8.20732 10.1035C7.89286 10.5273 7.81083 10.7598 7.81083 11.0742C7.81083 12.0039 8.8499 12.2637 8.8499 13.4805C8.8499 14.6836 7.81083 14.957 7.81083 15.8457C7.81083 16.2012 7.89286 16.4063 8.19365 16.8438C8.64482 17.4316 7.78349 18.0605 7.30497 17.4863ZM10.5589 17.4863C10.1351 16.9258 9.94365 16.4063 9.94365 15.8457C9.94365 14.5605 10.9964 14.2324 10.9964 13.4805C10.9964 12.7148 9.94365 12.4004 9.94365 11.0742C9.94365 10.5273 10.1214 10.0078 10.5726 9.46094C11.0374 8.88672 11.8851 9.50195 11.4339 10.1035C11.1331 10.5273 11.0374 10.7598 11.0374 11.0742C11.0374 12.0039 12.0765 12.2637 12.0765 13.4805C12.0765 14.6836 11.0374 14.957 11.0374 15.8457C11.0374 16.2012 11.1331 16.4063 11.4202 16.8438C11.8851 17.4316 11.0237 18.0605 10.5589 17.4863ZM17.928 9.54297C18.4065 9.54297 18.7893 9.16016 18.7893 8.66797L18.7893 4.94922L20.7034 4.94922C21.5647 4.94922 21.9065 4.11523 21.3323 3.47266L18.5843 0.328125C18.1878-0.109375 17.6819-0.109375 17.2854 0.328125L14.4964 3.47266C13.9495 4.06055 14.264 4.94922 15.1526 4.94922L17.053 4.94922L17.0667 8.66797C17.0667 9.16016 17.4358 9.57031 17.928 9.54297ZM20.471 10.9512C20.471 11.4707 20.8675 11.8398 21.3323 11.8398L25.0511 11.8398L25.0511 13.7402C25.0511 14.5879 25.9261 14.957 26.555 14.3828L29.6722 11.6074C30.1233 11.2246 30.096 10.7188 29.6722 10.3496L26.555 7.54688C25.9534 7 25.0511 7.32813 25.0511 8.18945L25.0511 10.0898L21.3323 10.0898C20.8538 10.0898 20.471 10.4863 20.471 10.9512Z" style="fill:var(--color-1,hsl(0 0 0/0.85))"></path>
 </g>
</svg>