<?xml version="1.0" encoding="UTF-8"?>
<!--Generator: Apple Native CoreSVG 326-->
<!DOCTYPE svg
PUBLIC "-//W3C//DTD SVG 1.1//EN"
       "http://www.w3.org/Graphics/SVG/1.1/DTD/svg11.dtd">
<svg version="1.1" xmlns="http://www.w3.org/2000/svg" xmlns:xlink="http://www.w3.org/1999/xlink" viewBox="0 0 28.2461 27.9043">
 <g>
  <rect height="27.9043" opacity="0" width="28.2461" x="0" y="0"/>
  <path d="M13.9453 27.8906C21.6426 27.8906 27.8906 21.6426 27.8906 13.9453C27.8906 6.24805 21.6426 0 13.9453 0C6.24805 0 0 6.24805 0 13.9453C0 21.6426 6.24805 27.8906 13.9453 27.8906ZM13.9453 25.5664C7.51953 25.5664 2.32422 20.3711 2.32422 13.9453C2.32422 7.51953 7.51953 2.32422 13.9453 2.32422C20.3711 2.32422 25.5664 7.51953 25.5664 13.9453C25.5664 20.3711 20.3711 25.5664 13.9453 25.5664Z" fill="white" fill-opacity="0.85"/>
  <path d="M16.0234 8.83203C16.9395 8.83203 17.6641 8.09375 17.6641 7.17773C17.6641 6.27539 16.9395 5.53711 16.0234 5.53711C15.1211 5.53711 14.3828 6.27539 14.3828 7.17773C14.3828 8.09375 15.1211 8.83203 16.0234 8.83203ZM13.4395 15.3945L16.3242 17.0215L14.4648 18.6211C14.0684 18.9492 14.082 19.4004 14.3281 19.6738C14.5742 19.9609 15.0254 20.0156 15.4219 19.6602L18.0332 17.4453C18.3887 17.1445 18.3203 16.502 17.9102 16.2285L15.0664 14.3691L15.627 12.4004C15.709 12.127 16.0371 12.0996 16.1875 12.332L17.0352 13.5488C17.2266 13.8223 17.582 13.9316 17.9102 13.7949L20.2891 12.7285C20.7129 12.5371 20.877 12.168 20.6992 11.7852C20.5078 11.4023 20.1523 11.293 19.7148 11.4707L17.8281 12.3184L16.5156 10.5137C15.8457 9.58398 14.998 9.21484 13.6172 9.29688L10.9648 9.48828C10.541 9.51562 10.2539 9.78906 10.1992 10.2266L9.83008 12.9199C9.77539 13.3848 10.0078 13.7129 10.418 13.7539C10.8281 13.7949 11.1016 13.5488 11.1699 13.084L11.498 10.8828L12.5645 10.8008C12.7969 10.7871 13.0293 10.9512 12.9473 11.2383L12.332 13.3984C11.9629 14.6836 12.7969 15.0391 13.4395 15.3945ZM8.39453 21.916C8.68164 22.1484 9.0918 22.1895 9.48828 21.8203L11.9355 19.3867C12.1406 19.1816 12.1816 19.1406 12.3047 18.8125L13.3848 16.1191L13.1113 15.9824C12.5918 15.6816 12.1406 15.3945 11.8809 15.0117L10.9512 18.252L8.39453 20.7676C8.01172 21.1504 8.09375 21.6426 8.39453 21.916Z" fill="white" fill-opacity="0.85"/>
 </g>
</svg>
