<?xml version="1.0" encoding="UTF-8"?>
<!--Generator: Apple Native CoreSVG 326-->
<!DOCTYPE svg
PUBLIC "-//W3C//DTD SVG 1.1//EN"
       "http://www.w3.org/Graphics/SVG/1.1/DTD/svg11.dtd">
<svg version="1.1" xmlns="http://www.w3.org/2000/svg" xmlns:xlink="http://www.w3.org/1999/xlink" viewBox="0 0 28.2461 27.9043">
 <g>
  <rect height="27.9043" opacity="0" width="28.2461" x="0" y="0"/>
  <path d="M13.9453 27.8906C21.6426 27.8906 27.8906 21.6289 27.8906 13.9453C27.8906 6.24805 21.6426 0 13.9453 0C6.26172 0 0 6.24805 0 13.9453C0 21.6289 6.26172 27.8906 13.9453 27.8906Z" fill="white" fill-opacity="0.85"/>
  <path d="M8.98242 8.73633C8.03906 8.73633 7.27344 7.98438 7.27344 7.02734C7.27344 6.09766 8.03906 5.3457 8.98242 5.3457C9.91211 5.3457 10.6777 6.09766 10.6777 7.02734C10.6777 7.98438 9.91211 8.73633 8.98242 8.73633ZM7.30078 14.2871L7.30078 11.1152C7.30078 10.2539 8.01172 9.55664 8.87305 9.55664L12.8242 9.55664L12.8242 6.89062C12.8242 6.2207 13.3574 5.70117 14.0137 5.70117C14.6699 5.70117 15.2031 6.2207 15.2031 6.89062C15.2031 7.39648 14.875 7.83398 14.4102 7.99805L14.4102 10.3359C14.4102 10.7871 14.041 11.1152 13.6172 11.1152L11.7305 11.1152C11.6621 11.1152 11.6348 11.1836 11.6895 11.2383L13.7539 13.2754L21.0957 8.87305C21.4785 8.6543 21.9707 8.76367 22.1895 9.14648C22.4219 9.51562 22.2988 9.99414 21.916 10.2129L18.0332 12.5371L14.1504 15.4629C13.7812 15.7363 13.3711 15.8594 12.9336 15.8594C12.4277 15.8594 11.9082 15.6406 11.5254 15.2852L11.3203 15.0801L8.09375 15.0801C7.64258 15.0801 7.30078 14.7109 7.30078 14.2871ZM8.81836 13.5488L9.84375 13.5488L9.00977 12.7012C8.94141 12.6328 8.81836 12.6875 8.81836 12.7969ZM12.4551 22.8047L13.1934 19.0176L12.7012 16.5293C12.7832 16.5293 12.8516 16.5293 12.9336 16.5293C13.5488 16.5293 14.123 16.3379 14.6426 15.9277L14.793 18.8945C14.8066 19.0039 14.8066 19.0859 14.793 19.1816L13.9863 23.1191C13.9043 23.5703 13.4531 23.8301 13.0566 23.748C12.6328 23.666 12.3594 23.2422 12.4551 22.8047Z" fill="white"/>
 </g>
</svg>
