<?xml version="1.0" encoding="UTF-8"?>
<!--Generator: Apple Native CoreSVG 326-->
<!DOCTYPE svg
PUBLIC "-//W3C//DTD SVG 1.1//EN"
       "http://www.w3.org/Graphics/SVG/1.1/DTD/svg11.dtd">
<svg version="1.1" xmlns="http://www.w3.org/2000/svg" xmlns:xlink="http://www.w3.org/1999/xlink" viewBox="0 0 28.7383 36.1621">
 <g>
  <rect height="36.1621" opacity="0" width="28.7383" x="0" y="0"/>
  <path d="M20.489 3.97852L7.89383 3.97852C7.9448 2.85991 8.64699 2.22852 9.81641 2.22852L18.5664 2.22852C19.7358 2.22852 20.438 2.85991 20.489 3.97852Z" fill="white" fill-opacity="0.85"/>
  <path d="M23.2851 7.88385C22.8454 7.81396 22.379 7.7793 21.8887 7.7793L6.49414 7.7793C6.00393 7.7793 5.53767 7.81374 5.09809 7.88327C5.24713 6.57013 6.13588 5.83789 7.58789 5.83789L20.8086 5.83789C22.2608 5.83789 23.1383 6.57035 23.2851 7.88385Z" fill="white" fill-opacity="0.85"/>
  <path d="M26.1816 14.2188L26.1816 29.7227C26.1816 32.5391 24.7461 33.9609 21.8887 33.9609L6.49414 33.9609C3.63672 33.9609 2.20117 32.5391 2.20117 29.7227L2.20117 14.2188C2.20117 11.3887 3.63672 9.98047 6.49414 9.98047L21.8887 9.98047C24.7461 9.98047 26.1816 11.4023 26.1816 14.2188ZM11.1016 26.4824L8.46289 29.0801C8.06641 29.4766 8.14844 29.9824 8.46289 30.2695C8.76367 30.502 9.1875 30.543 9.59766 30.1602L12.1133 27.6582C12.332 27.4395 12.373 27.3984 12.4961 27.0566L13.6172 24.2812L13.3301 24.1445C12.8105 23.8301 12.332 23.543 12.0586 23.1465ZM13.8496 17.2539L11.1152 17.4316C10.6777 17.4727 10.377 17.7598 10.3223 18.2109L9.95312 20.9863C9.88477 21.4648 10.1309 21.8066 10.5547 21.8477C10.9785 21.8887 11.252 21.6289 11.334 21.1504L11.6621 18.8809L12.7695 18.7988C13.002 18.7852 13.248 18.9492 13.166 19.25L12.5234 21.4785C12.1406 22.8047 13.002 23.1738 13.6719 23.543L16.6387 25.2109L14.7246 26.8652C14.3281 27.207 14.3281 27.6719 14.5879 27.9453C14.834 28.2461 15.2988 28.3008 15.709 27.9316L18.4023 25.6484C18.7715 25.3477 18.7031 24.6777 18.2793 24.3906L15.3398 22.4766L15.9277 20.4531C16.0098 20.166 16.3516 20.1387 16.502 20.3848L17.377 21.6289C17.5684 21.916 17.9375 22.0254 18.2793 21.8887L20.7266 20.7949C21.1641 20.5898 21.3418 20.207 21.1504 19.8105C20.959 19.4141 20.5898 19.3047 20.1523 19.4961L18.1973 20.3711L16.8574 18.498C16.1465 17.541 15.2715 17.1582 13.8496 17.2539ZM14.6426 15.0664C14.6426 16.0098 15.4082 16.7754 16.3379 16.7754C17.2812 16.7754 18.0332 16.0098 18.0332 15.0664C18.0332 14.1367 17.2812 13.3711 16.3379 13.3711C15.4082 13.3711 14.6426 14.1367 14.6426 15.0664Z" fill="white" fill-opacity="0.85"/>
 </g>
</svg>
