<?xml version="1.0" encoding="UTF-8"?>
<!--Generator: Apple Native CoreSVG 326-->
<!DOCTYPE svg
PUBLIC "-//W3C//DTD SVG 1.1//EN"
       "http://www.w3.org/Graphics/SVG/1.1/DTD/svg11.dtd">
<svg version="1.1" xmlns="http://www.w3.org/2000/svg" xmlns:xlink="http://www.w3.org/1999/xlink" viewBox="0 0 28.2461 27.9043">
 <g>
  <rect height="27.9043" opacity="0" width="28.2461" x="0" y="0"/>
  <path d="M13.9453 27.8906C21.6426 27.8906 27.8906 21.6426 27.8906 13.9453C27.8906 6.24805 21.6426 0 13.9453 0C6.24805 0 0 6.24805 0 13.9453C0 21.6426 6.24805 27.8906 13.9453 27.8906ZM13.9453 25.5664C7.51953 25.5664 2.32422 20.3711 2.32422 13.9453C2.32422 7.51953 7.51953 2.32422 13.9453 2.32422C20.3711 2.32422 25.5664 7.51953 25.5664 13.9453C25.5664 20.3711 20.3711 25.5664 13.9453 25.5664Z" fill="white" fill-opacity="0.85"/>
  <path d="M19.6191 11.0605C20.3164 11.2656 21.0684 10.8418 21.2598 10.1309C21.4648 9.41992 21.0273 8.68164 20.3438 8.47656C19.6191 8.28516 18.8809 8.69531 18.6895 9.40625C18.4844 10.1309 18.8945 10.8691 19.6191 11.0605ZM13.2207 17.3359L16.0234 19.373L14.3828 22.6406C14.1914 23.0098 14.3555 23.4746 14.7383 23.6797C15.0801 23.8438 15.5449 23.748 15.7637 23.3379L17.6641 19.5234C17.8281 19.1816 17.7871 18.8125 17.5 18.5801L16.0645 17.2266L18.5117 17.2266C18.9492 17.2266 19.291 16.8848 19.291 16.4609L19.291 13.3984C19.291 12.127 18.2793 11.0879 16.9805 11.0879L14.1641 11.0879L14.6426 9.37891C14.7656 8.96875 14.5469 8.54492 14.1367 8.42188C13.7266 8.29883 13.3164 8.54492 13.1934 8.94141L12.4277 11.6348C12.291 12.1406 12.5918 12.6055 13.125 12.6055L15.8867 12.6055C15.9141 12.6055 15.9414 12.6602 15.9004 12.6738L13.4941 13.9043C12.1543 14.5742 11.9766 16.4336 13.2207 17.3359ZM16.1328 15.7363L17.6504 14.998C17.7188 14.9707 17.8008 15.0117 17.8008 15.0938L17.8008 15.7363ZM12.1133 17.1309L11.457 19.127L7.60156 19.127C7.16406 19.127 6.82227 19.4824 6.82227 19.9199C6.82227 20.3438 7.16406 20.6855 7.60156 20.6855L11.9902 20.6855C12.291 20.6855 12.5645 20.5215 12.7012 20.248L13.6172 18.4297L12.8242 17.8691C12.4824 17.623 12.25 17.377 12.1133 17.1309ZM13.6035 7.50586L14.2324 7.50586C14.6836 6.95898 15.2031 6.04297 15.2031 5.42773C15.2031 4.67578 14.6836 4.14258 13.9316 4.14258C13.166 4.14258 12.6465 4.67578 12.6465 5.42773C12.6465 6.11133 13.1523 7.02734 13.6035 7.50586ZM13.4668 15.4902L14.3965 15.4902L14.3965 7.19141L13.4668 7.19141Z" fill="white" fill-opacity="0.85"/>
 </g>
</svg>
