<?xml version="1.0" encoding="UTF-8"?>
<!--Generator: Apple Native CoreSVG 326-->
<!DOCTYPE svg
PUBLIC "-//W3C//DTD SVG 1.1//EN"
       "http://www.w3.org/Graphics/SVG/1.1/DTD/svg11.dtd">
<svg version="1.1" xmlns="http://www.w3.org/2000/svg" xmlns:xlink="http://www.w3.org/1999/xlink" viewBox="0 0 28.2461 27.9043">
 <g>
  <rect height="27.9043" opacity="0" width="28.2461" x="0" y="0"/>
  <path d="M13.9453 27.8906C21.6426 27.8906 27.8906 21.6426 27.8906 13.9453C27.8906 6.24805 21.6426 0 13.9453 0C6.24805 0 0 6.24805 0 13.9453C0 21.6426 6.24805 27.8906 13.9453 27.8906ZM13.9453 25.5664C7.51953 25.5664 2.32422 20.3711 2.32422 13.9453C2.32422 7.51953 7.51953 2.32422 13.9453 2.32422C20.3711 2.32422 25.5664 7.51953 25.5664 13.9453C25.5664 20.3711 20.3711 25.5664 13.9453 25.5664Z" fill="white" fill-opacity="0.85"/>
  <path d="M11.7988 20.2207C12.0996 20.1387 12.2637 20.043 12.3867 19.8242L14.0547 16.8301C14.082 16.7754 14.1094 16.748 14.1641 16.748L18.2383 16.748L18.2383 20.5898C18.2383 21.0273 18.5801 21.3418 19.0039 21.3418C19.4277 21.3418 19.7695 21.0273 19.7695 20.5898L19.7695 16.0781C19.7695 15.5723 19.4824 15.2715 18.9629 15.2168L15.5449 14.9023L15.5449 10.623C15.5449 9.77539 14.9707 9.07812 13.9316 9.07812L13.5762 9.07812C12.9473 9.07812 12.4824 9.1875 11.8809 9.63867L9.33789 11.5391C8.91406 11.8535 8.95508 12.4961 9.39258 12.7969L12.4824 14.875L12.4824 15.0664L11.1289 18.8125L7.71094 19.7422C7.30078 19.8516 7.06836 20.2754 7.16406 20.6855C7.28711 21.1094 7.68359 21.3281 8.10742 21.2188ZM11.1289 12.1133L12.291 11.2656C12.373 11.1973 12.4824 11.2383 12.4824 11.3613L12.4824 13.0156ZM13.9316 8.28516C14.834 8.28516 15.5723 7.56055 15.5723 6.63086C15.5723 5.72852 14.834 4.99023 13.9316 4.99023C13.002 4.99023 12.2637 5.72852 12.2637 6.63086C12.2637 7.56055 13.002 8.28516 13.9316 8.28516Z" fill="white" fill-opacity="0.85"/>
 </g>
</svg>
