<svg version="1.1" xmlns="http://www.w3.org/2000/svg" xmlns:xlink="http://www.w3.org/1999/xlink" viewBox="0 0 28.0684 31.459">
 <g>
  
  <path d="M21.8887 5.96094C23.5293 5.96094 24.8555 4.63477 24.8555 2.9668C24.8555 1.32617 23.5293 0 21.8887 0C20.2207 0 18.8945 1.32617 18.8945 2.9668C18.8945 4.63477 20.2207 5.96094 21.8887 5.96094ZM11.3203 17.4863L18.2793 22.791L16.1191 29.4629C15.8047 30.4199 16.4062 31.1035 17.1309 31.2812C17.7734 31.4316 18.5254 31.1582 18.8125 30.2559L21.2324 22.7773C21.4102 22.2305 21.3145 21.6426 20.9316 21.2734L16.2559 16.5977L21.6289 11.2109C21.8613 10.9785 22.2168 10.9785 22.4492 11.2109L24.3086 13.0566L21.7656 15.5996C21.2051 16.1738 21.2188 17.0625 21.7656 17.6094C22.2852 18.1152 23.2012 18.1699 23.7617 17.6094L27.3027 14.0684C27.8633 13.5078 27.8496 12.6328 27.3027 12.0723L23.8848 8.62695C23.0645 7.80664 22.0801 7.39648 20.9043 7.39648L4.48438 7.39648C3.71875 7.39648 3.07617 8.02539 3.07617 8.80469C3.07617 9.58398 3.71875 10.2266 4.48438 10.2266L13.918 10.2266C14.3965 10.2266 14.6152 10.7188 14.2734 11.0605L11.5391 13.7949C10.3086 15.0254 10.4863 16.8574 11.3203 17.4863ZM10.9102 18.8262L10.2266 22.9824L3.67773 22.9824C2.87109 22.9824 2.24219 23.6113 2.24219 24.4043C2.24219 25.1836 2.87109 25.8125 3.67773 25.8125L11.3613 25.8125C12.0996 25.8125 12.5918 25.4434 12.7832 24.7871L13.8906 21.1094ZM3.07617 14.957C4.75781 14.957 6.15234 13.5762 6.15234 11.8809C6.15234 10.1992 4.75781 8.80469 3.07617 8.80469C1.38086 8.80469 0 10.1992 0 11.8809C0 13.5762 1.38086 14.957 3.07617 14.957Z" style="fill:var(--color-0,hsl(0 0 0/0.85))"></path>
 </g>
</svg>