<?xml version="1.0" encoding="UTF-8"?>
<!--Generator: Apple Native CoreSVG 326-->
<!DOCTYPE svg
PUBLIC "-//W3C//DTD SVG 1.1//EN"
       "http://www.w3.org/Graphics/SVG/1.1/DTD/svg11.dtd">
<svg version="1.1" xmlns="http://www.w3.org/2000/svg" xmlns:xlink="http://www.w3.org/1999/xlink" viewBox="0 0 43.7769 27.7402">
 <g>
  <rect height="27.7402" opacity="0" width="43.7769" x="0" y="0"/>
  <path d="M7.20484 7.42383C5.15405 7.42383 3.51343 5.71484 3.51343 3.73242C3.51343 1.66797 5.15405 0 7.20484 0C9.26929 0 10.9236 1.66797 10.9236 3.73242C10.9236 5.76953 9.26929 7.42383 7.20484 7.42383ZM29.2302 26.9883C28.5193 27.7266 27.3025 27.6719 26.4412 26.7695L20.5486 20.6992C20.3572 20.4941 20.2205 20.4395 19.9197 20.5625L15.3259 22.2988C12.3728 23.4336 9.59741 22.4629 8.29859 20.1113L5.34546 14.7383C4.19702 12.6465 4.56616 10.4863 6.54859 9.41992C8.48999 8.36719 10.4861 9.16016 11.6482 11.3066L15.49 18.293L18.7439 17.1035C20.3572 16.5156 21.7107 16.707 22.9959 18.0469L29.1072 24.3633C29.9548 25.2383 29.8728 26.332 29.2302 26.9883Z" fill="white" fill-opacity="0.85"/>
  <path d="M28.4646 4.40234L32.1697 9.14648C32.3474 9.36523 32.5935 9.40625 32.8396 9.26953C33.7283 8.80469 34.9861 8.49023 35.9841 8.49023C36.9959 8.49023 38.281 8.80469 39.1423 9.26953C39.3884 9.40625 39.6619 9.36523 39.8123 9.14648L43.5447 4.40234C43.9001 3.92383 43.8455 3.44531 43.3943 3.08984C41.8767 1.92773 39.0193 1.03906 35.9841 1.03906C32.99 1.03906 30.1052 1.92773 28.6013 3.08984C28.1501 3.44531 28.0955 3.92383 28.4646 4.40234ZM32.3201 11.9219C31.8962 11.3613 31.7185 10.8418 31.7185 10.2812C31.7185 8.99609 32.7576 8.66797 32.7576 7.91602C32.7576 7.15039 31.7185 6.83594 31.7185 5.50977C31.7185 4.96289 31.8962 4.44336 32.3201 3.89648C32.7986 3.32227 33.6599 3.9375 33.1951 4.53906C32.8806 4.96289 32.7986 5.19531 32.7986 5.50977C32.7986 6.43945 33.8376 6.69922 33.8376 7.91602C33.8376 9.11914 32.7986 9.39258 32.7986 10.2812C32.7986 10.6367 32.8806 10.8418 33.1951 11.2793C33.6462 11.8672 32.7849 12.4961 32.3201 11.9219ZM35.533 11.9219C35.1228 11.3613 34.9451 10.8418 34.9451 10.2812C34.9451 8.99609 35.9705 8.66797 35.9705 7.91602C35.9705 7.15039 34.9451 6.83594 34.9451 5.50977C34.9451 4.96289 35.1228 4.44336 35.533 3.89648C36.0115 3.32227 36.8865 3.9375 36.4216 4.53906C36.1072 4.96289 36.0251 5.19531 36.0251 5.50977C36.0251 6.43945 37.0642 6.69922 37.0642 7.91602C37.0642 9.11914 36.0251 9.39258 36.0251 10.2812C36.0251 10.6367 36.1072 10.8418 36.4216 11.2793C36.8728 11.8672 35.9978 12.4961 35.533 11.9219ZM38.7869 11.9219C38.3494 11.3613 38.1716 10.8418 38.1716 10.2812C38.1716 8.99609 39.2107 8.66797 39.2107 7.91602C39.2107 7.15039 38.1716 6.83594 38.1716 5.50977C38.1716 4.96289 38.3494 4.44336 38.7869 3.89648C39.2517 3.32227 40.113 3.9375 39.6482 4.53906C39.3611 4.96289 39.2654 5.19531 39.2654 5.50977C39.2654 6.43945 40.2908 6.69922 40.2908 7.91602C40.2908 9.11914 39.2654 9.39258 39.2654 10.2812C39.2654 10.6367 39.3611 10.8418 39.6482 11.2793C40.0994 11.8672 39.2517 12.4961 38.7869 11.9219ZM27.3025 5.6875C27.3025 5.14062 26.8513 4.70312 26.2771 4.70312L20.9587 4.70312L20.9587 2.47461C20.9587 1.46289 19.9334 1.10742 19.2361 1.73633L15.572 4.97656C15.0798 5.41406 15.0798 6.00195 15.572 6.45312L19.2361 9.69336C19.9607 10.3496 20.9587 9.91211 20.9587 8.94141L20.9587 6.71289L26.2771 6.71289C26.8513 6.71289 27.3025 6.26172 27.3025 5.6875Z" fill="white" fill-opacity="0.85"/>
 </g>
</svg>
