<?xml version="1.0" encoding="UTF-8"?>
<!--Generator: Apple Native CoreSVG 326-->
<!DOCTYPE svg
PUBLIC "-//W3C//DTD SVG 1.1//EN"
       "http://www.w3.org/Graphics/SVG/1.1/DTD/svg11.dtd">
<svg version="1.1" xmlns="http://www.w3.org/2000/svg" xmlns:xlink="http://www.w3.org/1999/xlink" viewBox="0 0 28.2461 27.9043">
 <g>
  <rect height="27.9043" opacity="0" width="28.2461" x="0" y="0"/>
  <path d="M13.9453 27.8906C21.6426 27.8906 27.8906 21.6289 27.8906 13.9453C27.8906 6.24805 21.6426 0 13.9453 0C6.26172 0 0 6.24805 0 13.9453C0 21.6289 6.26172 27.8906 13.9453 27.8906Z" fill="white" fill-opacity="0.85"/>
  <path d="M13.9316 8.87305C12.9746 8.87305 12.2363 8.10742 12.2363 7.17773C12.2363 6.23438 12.9746 5.46875 13.9316 5.46875C14.875 5.46875 15.627 6.23438 15.627 7.17773C15.627 8.10742 14.875 8.87305 13.9316 8.87305ZM6.83594 13.918L8.06641 10.2539C8.18945 9.89844 8.44922 9.67969 8.81836 9.67969L13.9316 9.67969C14.5195 9.67969 15.1074 9.92578 15.4902 10.3086L17.3906 12.209L19.25 10.3496C19.2773 10.3223 19.3184 10.2949 19.373 10.2676L19.373 9.43359L18.6348 9.06445C18.375 8.94141 18.2109 8.68164 18.2109 8.38086L18.2109 5.96094C18.2109 5.52344 18.5391 5.16797 18.9766 5.16797L20.7129 5.16797C21.1504 5.16797 21.4512 5.52344 21.4512 5.96094L21.4512 8.38086C21.4512 8.68164 21.3008 8.94141 21.041 9.06445L20.3301 9.43359L20.3301 10.2539C20.6992 10.5684 20.7812 11.0879 20.4121 11.457L17.9648 13.918C17.6641 14.2324 17.1172 14.2324 16.8164 13.918L14.8477 11.9219C14.7109 11.7715 14.5059 11.8535 14.4512 12.0039L13.084 16.1738L15.668 17.3086C15.9141 17.4316 16.0234 17.5957 16.0918 17.8145L17.2949 21.9434C17.4453 22.4766 17.1172 22.8184 16.7344 22.9277C16.3516 23.0234 15.9141 22.8867 15.7637 22.3809L14.6699 18.6348L11.3477 17.1719C10.2129 16.666 9.89844 15.709 10.2539 14.6836L11.293 11.5664C11.3477 11.416 11.2383 11.2793 11.0742 11.2793L9.37891 11.2793L8.32617 14.4102C8.16211 14.916 7.73828 15.0664 7.35547 14.957C6.95898 14.875 6.64453 14.4785 6.83594 13.918ZM6.95898 22.5039C6.75391 22.1484 6.74023 21.6699 7.24609 21.3828L10.1309 19.7832L10.5137 17.541C10.6641 17.6367 10.8418 17.7324 11.0605 17.8281L12.332 18.3887L11.6348 20.4805C11.5527 20.7266 11.4707 20.8633 11.2656 20.9863L8.03906 22.7773C7.57422 23.0508 7.17773 22.8184 6.95898 22.5039Z" fill="white"/>
 </g>
</svg>
