<svg version="1.1" xmlns="http://www.w3.org/2000/svg" xmlns:xlink="http://www.w3.org/1999/xlink" viewBox="0 0 28.2461 27.9043">
 <g>
  
  <path d="M13.9453 27.8906C21.6426 27.8906 27.8906 21.6289 27.8906 13.9453C27.8906 6.24805 21.6426 0 13.9453 0C6.26172 0 0 6.24805 0 13.9453C0 21.6289 6.26172 27.8906 13.9453 27.8906Z" style="fill:var(--color-0,hsl(0 0 0/0.85))"></path>
  <path d="M13.7949 8.17578C12.8379 8.17578 12.0859 7.41016 12.0859 6.4668C12.0859 5.53711 12.8379 4.77148 13.7949 4.77148C14.7383 4.77148 15.4766 5.53711 15.4766 6.4668C15.4766 7.41016 14.7383 8.17578 13.7949 8.17578ZM7.56055 10.6914L7.56055 6.48047C7.56055 6.05664 7.90234 5.70117 8.33984 5.70117C8.76367 5.70117 9.13281 6.05664 9.13281 6.48047L9.13281 9.39258L10.3223 8.87305C11.2109 8.50391 11.9355 8.53125 13.0293 8.8457L13.4805 8.96875C14.4648 9.24219 14.9023 9.63867 15.2031 10.3223L16.3242 12.9609L19.127 12.9609C19.5781 12.9609 19.9336 13.3027 19.9336 13.7539C19.9336 14.1914 19.5781 14.5469 19.127 14.5469L15.8047 14.5469C15.4902 14.5469 15.2168 14.3418 15.0801 14.0547L14.3691 12.332C14.3418 12.2637 14.2051 12.2637 14.1914 12.3457L13.9043 14.8066L17.1445 17.8828C17.3086 18.0605 17.3906 18.293 17.3906 18.5254L17.3906 22.3809C17.3906 22.8184 17.0352 23.1875 16.5977 23.1875C16.1602 23.1875 15.8047 22.8184 15.8047 22.3809L15.8047 18.8535L12.7012 16.5977C12.6328 16.5566 12.5781 16.584 12.5371 16.6387L11.3887 19.2363L9.41992 22.791C9.1875 23.2012 8.68164 23.2695 8.35352 23.0918C7.9707 22.8867 7.83398 22.3809 8.03906 22.0254L9.93945 18.6074L11.0605 10.4863C11.0879 10.3633 10.9648 10.3086 10.8828 10.3496L8.6543 11.334C8.14844 11.5391 7.56055 11.252 7.56055 10.6914ZM17.6914 11.7578C17.8418 11.334 18.1562 11.0059 18.5664 10.8555L18.5664 4.88086C18.5664 4.63477 18.7988 4.40234 19.0449 4.40234C19.3047 4.40234 19.5234 4.63477 19.5234 4.88086L19.5234 10.8555C19.9336 11.0059 20.248 11.334 20.3984 11.7578C20.4805 12.0039 20.3848 12.209 20.125 12.209L17.9785 12.209C17.7051 12.209 17.6094 12.0039 17.6914 11.7578Z" style="fill:var(--color-1,white)"></path>
 </g>
</svg>