<svg version="1.1" xmlns="http://www.w3.org/2000/svg" xmlns:xlink="http://www.w3.org/1999/xlink" viewBox="0 0 32.7168 22.5449">
 <g>
  
  <path d="M0.765625 18.7578L2.14648 18.7578C5.79688 18.7578 6.63086 16.5156 9.16016 16.5156C11.6895 16.5156 12.5234 18.7578 16.1738 18.7578C19.8379 18.7578 20.6582 16.5156 23.2012 16.5156C25.7305 16.5156 26.5508 18.7578 30.2148 18.7578L31.5957 18.7578C32.0195 18.7578 32.3613 18.4297 32.3613 18.0059C32.3613 17.582 32.0195 17.2402 31.5957 17.2402L30.2148 17.2402C27.5898 17.2402 26.7012 14.998 23.2012 14.998C19.6875 14.998 18.7988 17.2402 16.1738 17.2402C13.5488 17.2402 12.6738 14.998 9.16016 14.998C5.66016 14.998 4.77148 17.2402 2.14648 17.2402L0.765625 17.2402C0.328125 17.2402 0 17.582 0 18.0059C0 18.4297 0.328125 18.7578 0.765625 18.7578ZM0.765625 22.5312L2.14648 22.5312C5.79688 22.5312 6.63086 20.2754 9.16016 20.2754C11.6895 20.2754 12.5234 22.5312 16.1738 22.5312C19.8379 22.5312 20.6582 20.2754 23.2012 20.2754C25.7305 20.2754 26.5508 22.5312 30.2148 22.5312L31.5957 22.5312C32.0195 22.5312 32.3613 22.1895 32.3613 21.7656C32.3613 21.3418 32.0195 21.0137 31.5957 21.0137L30.2148 21.0137C27.5898 21.0137 26.7012 18.7578 23.2012 18.7578C19.6875 18.7578 18.7988 21.0137 16.1738 21.0137C13.5488 21.0137 12.6738 18.7578 9.16016 18.7578C5.66016 18.7578 4.77148 21.0137 2.14648 21.0137L0.765625 21.0137C0.328125 21.0137 0 21.3418 0 21.7656C0 22.1895 0.328125 22.5312 0.765625 22.5312ZM11.6895 13.3984C13.2344 14.0547 14.1094 15.1484 16.1738 15.1484C18.5938 15.1484 19.2773 13.6582 21.4238 13.1113L13.6992 5.09961C13.0977 4.45703 12.1816 4.375 11.457 4.9082L6.08398 8.70898C5.16797 9.36523 5.25 10.3359 5.7832 10.9238C6.23438 11.416 7.02734 11.6074 7.79297 11.0742L12.1543 7.99805L14.6152 10.5273C14.8887 10.8145 14.9707 11.2383 14.5469 11.5254ZM13.5078 0.765625C13.5078 1.18945 13.8359 1.51758 14.2598 1.51758C15.5039 1.51758 16.2422 1.75 17.0352 2.61133C17.3359 2.93945 17.623 3.07617 17.9375 3.07617C18.252 3.07617 18.5527 2.93945 18.8398 2.61133C19.6328 1.75 20.3848 1.51758 21.6152 1.51758C22.0391 1.51758 22.3672 1.18945 22.3672 0.765625C22.3672 0.341797 22.0254 0 21.6016 0C20.0703 0 19.0586 0.355469 17.9375 1.38086C16.8164 0.355469 15.8047 0 14.2734 0C13.8496 0 13.5078 0.341797 13.5078 0.765625ZM23.3926 11.457C25.0469 11.457 26.373 10.1172 26.373 8.46289C26.373 6.80859 25.0469 5.48242 23.3926 5.48242C21.7383 5.48242 20.3984 6.80859 20.3984 8.46289C20.3984 10.1172 21.7383 11.457 23.3926 11.457Z" style="fill:var(--color-0,hsl(0 0 0/0.85))"></path>
 </g>
</svg>