<?xml version="1.0" encoding="UTF-8"?>
<!--Generator: Apple Native CoreSVG 326-->
<!DOCTYPE svg
PUBLIC "-//W3C//DTD SVG 1.1//EN"
       "http://www.w3.org/Graphics/SVG/1.1/DTD/svg11.dtd">
<svg version="1.1" xmlns="http://www.w3.org/2000/svg" xmlns:xlink="http://www.w3.org/1999/xlink" viewBox="0 0 24.1035 30.2012">
 <g>
  <rect height="30.2012" opacity="0" width="24.1035" x="0" y="0"/>
  <path d="M11.8672 5.94727C13.5215 5.94727 14.8477 4.62109 14.8477 2.98047C14.8477 1.32617 13.5215 0 11.8672 0C10.2129 0 8.88672 1.32617 8.88672 2.98047C8.88672 4.62109 10.2129 5.94727 11.8672 5.94727ZM11.8672 18.7852C12.4414 18.7852 12.6875 19.1406 12.9883 20.1523C13.4258 21.5059 14.875 27.248 15.2852 28.9434C15.4766 29.791 15.9414 30.1465 16.584 30.1465C17.459 30.1465 17.9785 29.3535 17.7461 28.4922C17.6504 28.123 15.6543 19.8379 15.3945 18.1289C15.1348 16.3789 15.1211 12.5645 15.1211 11.3887C15.1211 10.5684 15.5039 10.0488 16.1738 9.89844C16.8164 9.74805 22.0391 9.1875 22.75 8.95508C23.3379 8.77734 23.748 8.29883 23.748 7.66992C23.748 6.87695 23.1465 6.39844 22.5859 6.39844C22.3535 6.39844 22.1348 6.45312 21.8887 6.50781C19.7559 6.89062 15.1484 7.38281 11.8672 7.38281C8.61328 7.38281 3.97852 6.91797 1.8457 6.50781C1.61328 6.45312 1.38086 6.39844 1.16211 6.39844C0.574219 6.39844 0 6.87695 0 7.66992C0 8.29883 0.382812 8.83203 0.984375 8.95508C1.73633 9.11914 6.91797 9.77539 7.56055 9.89844C8.23047 10.0215 8.62695 10.5684 8.64062 11.3887C8.6543 12.5645 8.61328 16.3789 8.33984 18.1289C8.06641 19.8379 6.08398 28.123 5.98828 28.4922C5.74219 29.3535 6.27539 30.1465 7.15039 30.1465C7.79297 30.1465 8.23047 29.791 8.46289 28.9434C8.92773 27.2617 10.3086 21.5332 10.7734 20.1523C11.0879 19.168 11.3066 18.7852 11.8672 18.7852Z" fill="white" fill-opacity="0.85"/>
 </g>
</svg>
