<svg version="1.1" xmlns="http://www.w3.org/2000/svg" xmlns:xlink="http://www.w3.org/1999/xlink" viewBox="0 0 28.2461 27.9043">
 <g>
  
  <path d="M13.9453 27.8906C21.6426 27.8906 27.8906 21.6289 27.8906 13.9453C27.8906 6.24805 21.6426 0 13.9453 0C6.26172 0 0 6.24805 0 13.9453C0 21.6289 6.26172 27.8906 13.9453 27.8906Z" style="fill:var(--color-0,hsl(0 0 0/0.85))"></path>
  <path d="M13.9043 8.02539C12.9746 8.02539 12.209 7.27344 12.209 6.34375C12.209 5.40039 12.9746 4.63477 13.9043 4.63477C14.834 4.63477 15.5996 5.40039 15.5996 6.34375C15.5996 7.27344 14.834 8.02539 13.9043 8.02539ZM9.40625 12.0176L11.1562 9.59766C11.4844 9.13281 12.0312 8.83203 12.5645 8.83203L19.9746 8.83203C20.4121 8.83203 20.7539 9.20117 20.7539 9.625C20.7539 10.0625 20.3848 10.3906 19.9746 10.3906L14.1504 10.3906C13.959 10.3906 13.8633 10.4316 13.7129 10.623L12.2227 12.5918L15.0391 12.5918C15.6816 12.5918 16.0234 13.125 15.8457 13.6719L14.3691 18.1289C14.0273 19.1543 12.4961 18.6895 12.8789 17.6094L13.9727 14.3145L11.1152 14.752C9.29688 15.0254 8.49023 13.2891 9.40625 12.0176ZM10.0898 22.3125L10.0898 19.9609C10.0898 19.6055 10.3359 19.373 10.7051 19.373L16.5566 19.373C16.8984 19.373 17.1582 19.6055 17.1582 19.9609L17.1582 22.3125C17.1582 22.668 16.8984 22.9004 16.5566 22.9004L10.7051 22.9004C10.3359 22.9004 10.0898 22.668 10.0898 22.3125Z" style="fill:var(--color-1,white)"></path>
 </g>
</svg>