<?xml version="1.0" encoding="UTF-8"?>
<!--Generator: Apple Native CoreSVG 326-->
<!DOCTYPE svg
PUBLIC "-//W3C//DTD SVG 1.1//EN"
       "http://www.w3.org/Graphics/SVG/1.1/DTD/svg11.dtd">
<svg version="1.1" xmlns="http://www.w3.org/2000/svg" xmlns:xlink="http://www.w3.org/1999/xlink" viewBox="0 0 33.4506 27.7402">
 <g>
  <rect height="27.7402" opacity="0" width="33.4506" x="0" y="0"/>
  <path d="M7.12766 7.42383C5.07688 7.42383 3.43625 5.71484 3.43625 3.73242C3.43625 1.66797 5.07688 0 7.12766 0C9.19211 0 10.8464 1.66797 10.8464 3.73242C10.8464 5.76953 9.19211 7.42383 7.12766 7.42383ZM29.153 26.9883C28.4421 27.7266 27.2253 27.6719 26.364 26.7695L20.4714 20.6992C20.28 20.4941 20.1433 20.4395 19.8425 20.5625L15.2488 22.2988C12.2956 23.4336 9.52024 22.4629 8.22141 20.1113L5.26828 14.7383C4.11985 12.6465 4.48899 10.4863 6.47141 9.41992C8.41281 8.36719 10.4089 9.16016 11.571 11.3066L15.4128 18.293L18.6667 17.1035C20.28 16.5156 21.6335 16.707 22.9187 18.0469L29.03 24.3633C29.8777 25.2383 29.7956 26.332 29.153 26.9883Z" fill="white" fill-opacity="0.85"/>
  <path d="M15.1394 4.41602L19.5827 10.0762C19.7741 10.3223 20.0886 10.377 20.3894 10.2129C21.4284 9.65234 22.946 9.26953 24.1491 9.26953C25.3523 9.26953 26.8698 9.65234 27.9089 10.2129C28.2097 10.377 28.5241 10.3223 28.7155 10.0762L33.1589 4.41602C33.6101 3.8418 33.528 3.25391 32.9812 2.83008C31.1765 1.44922 27.7585 0.382812 24.1491 0.382812C20.5398 0.382812 17.1218 1.44922 15.3171 2.83008C14.7702 3.25391 14.6882 3.8418 15.1394 4.41602ZM19.7605 13.3711C19.2546 12.7148 19.0359 12.0996 19.0359 11.4297C19.0359 9.88477 20.28 9.50195 20.28 8.58594C20.28 7.66992 19.0359 7.30078 19.0359 5.72852C19.0359 5.07227 19.2409 4.4707 19.7605 3.80078C20.321 3.10352 21.3464 3.8418 20.7995 4.56641C20.4304 5.07227 20.3347 5.35938 20.3347 5.72852C20.3347 6.83594 21.5652 7.13672 21.5652 8.58594C21.5652 10.0488 20.3347 10.3359 20.3347 11.4297C20.3347 11.8262 20.4304 12.0996 20.7995 12.6055C21.3327 13.3164 20.321 14.0547 19.7605 13.3711ZM23.6159 13.3711C23.0964 12.7148 22.8777 12.0996 22.8777 11.4297C22.8777 9.88477 24.1355 9.50195 24.1355 8.58594C24.1355 7.66992 22.8777 7.30078 22.8777 5.72852C22.8777 5.07227 23.0964 4.4707 23.6159 3.80078C24.1765 3.10352 25.2019 3.8418 24.655 4.56641C24.2722 5.07227 24.1765 5.35938 24.1765 5.72852C24.1765 6.83594 25.4206 7.13672 25.4206 8.58594C25.4206 10.0488 24.1765 10.3359 24.1765 11.4297C24.1765 11.8262 24.2722 12.0996 24.6413 12.6055C25.1882 13.3164 24.1628 14.0547 23.6159 13.3711ZM27.4714 13.3711C26.9655 12.7148 26.7468 12.0996 26.7468 11.4297C26.7468 9.88477 28.0046 9.50195 28.0046 8.58594C28.0046 7.66992 26.7468 7.30078 26.7468 5.72852C26.7468 5.07227 26.9655 4.4707 27.4714 3.80078C28.032 3.10352 29.0573 3.8418 28.5105 4.56641C28.1413 5.07227 28.0456 5.35938 28.0456 5.72852C28.0456 6.83594 29.2898 7.13672 29.2898 8.58594C29.2898 10.0488 28.0456 10.3359 28.0456 11.4297C28.0456 11.8262 28.1413 12.0996 28.5105 12.6055C29.0437 13.3164 28.032 14.0547 27.4714 13.3711Z" fill="white" fill-opacity="0.85"/>
 </g>
</svg>
