<svg version="1.1" xmlns="http://www.w3.org/2000/svg" xmlns:xlink="http://www.w3.org/1999/xlink" viewBox="0 0 28.2461 27.9043">
 <g>
  
  <path d="M13.9453 27.8906C21.6426 27.8906 27.8906 21.6289 27.8906 13.9453C27.8906 6.24805 21.6426 0 13.9453 0C6.26172 0 0 6.24805 0 13.9453C0 21.6289 6.26172 27.8906 13.9453 27.8906Z" style="fill:var(--color-0,hsl(0 0 0/0.85))"></path>
  <path d="M11.2383 13.6582C10.2812 13.6582 9.51562 12.8926 9.51562 11.9355C9.51562 11.0059 10.2812 10.2402 11.2383 10.2402C12.168 10.2402 12.9336 11.0059 12.9336 11.9355C12.9336 12.8926 12.168 13.6582 11.2383 13.6582ZM4.01953 17.0215C4.01953 16.7344 4.23828 16.543 4.49805 16.543C6.95898 16.543 9.91211 17.5 11.6484 21.3965C13.4258 19.8379 15.6133 19.291 18.3887 19.9473C19.1953 18.4707 20.7402 17.6641 22.4082 17.6641C22.668 17.6641 22.8867 17.8828 22.8867 18.1426C22.8867 18.4023 22.668 18.6211 22.4082 18.6211C20.9316 18.6211 19.7012 19.3184 19.1133 20.6719C18.9902 20.918 18.7852 21.0547 18.5117 20.9863C15.6406 20.166 13.6582 20.7402 11.9082 22.4766C11.6211 22.7637 11.1152 22.6953 10.9375 22.2441C9.44727 18.375 6.84961 17.5 4.49805 17.5C4.23828 17.5 4.01953 17.2812 4.01953 17.0215ZM9.69336 17.1035L9.69336 15.4766C9.69336 14.7656 10.1719 14.2871 10.8555 14.2871L13.6445 14.2871L13.6445 11.334C13.6445 11.0879 13.7129 10.8828 13.8633 10.7188L19.25 5.3457C19.4414 5.1543 19.7422 5.1543 19.9062 5.3457C20.1113 5.50977 20.0977 5.81055 19.9062 6.00195L17.3906 8.54492L17.3906 13.4668C17.3906 13.918 17.0215 14.2598 16.584 14.2598C16.1465 14.2598 15.7773 13.918 15.7773 13.4668L15.7773 10.1445L15.2441 10.6914L15.2441 15.0801C15.2441 15.5039 14.875 15.8594 14.4512 15.8594L13.4668 15.8594C13.3574 15.8594 13.2754 15.9551 13.2754 16.0645L13.2754 19.127C12.8516 19.3184 12.4277 19.5234 12.0176 19.7695C11.334 18.6074 10.541 17.7324 9.69336 17.1035Z" style="fill:var(--color-1,white)"></path>
 </g>
</svg>