<?xml version="1.0" encoding="UTF-8"?>
<!--Generator: Apple Native CoreSVG 326-->
<!DOCTYPE svg
PUBLIC "-//W3C//DTD SVG 1.1//EN"
       "http://www.w3.org/Graphics/SVG/1.1/DTD/svg11.dtd">
<svg version="1.1" xmlns="http://www.w3.org/2000/svg" xmlns:xlink="http://www.w3.org/1999/xlink" viewBox="0 0 38.7216 27.5488">
 <g>
  <rect height="27.5488" opacity="0" width="38.7216" x="0" y="0"/>
  <path d="M23.6128 6.95898L23.6128 9.9668C23.6128 10.7871 24.2143 11.3887 25.021 11.3887L27.2768 11.3887C28.0971 11.3887 28.7261 10.7871 28.7261 9.9668L28.7261 6.95898C28.7261 6.13867 28.0971 5.52344 27.2768 5.52344L25.021 5.52344C24.2143 5.52344 23.6128 6.13867 23.6128 6.95898ZM30.1343 6.95898L30.1343 9.9668C30.1343 10.7871 30.7221 11.3887 31.5698 11.3887L33.812 11.3887C34.6323 11.3887 35.2475 10.7871 35.2475 9.9668L35.2475 6.95898C35.2475 6.13867 34.6323 5.52344 33.812 5.52344L31.5698 5.52344C30.7221 5.52344 30.1343 6.13867 30.1343 6.95898ZM20.2085 14.7793L20.2085 17.7871C20.2085 18.6074 20.81 19.1953 21.6304 19.1953L23.8589 19.1953C24.6929 19.1953 25.3081 18.6074 25.3081 17.7871L25.3081 14.7793C25.3081 13.959 24.6929 13.3574 23.8589 13.3574L21.6304 13.3574C20.81 13.3574 20.2085 13.959 20.2085 14.7793ZM26.73 14.7793L26.73 17.7871C26.73 18.6074 27.3315 19.1953 28.1655 19.1953L30.4077 19.1953C31.2417 19.1953 31.8432 18.6074 31.8432 17.7871L31.8432 14.7793C31.8432 13.959 31.2417 13.3574 30.4077 13.3574L28.1655 13.3574C27.3315 13.3574 26.73 13.959 26.73 14.7793ZM33.2651 14.7793L33.2651 17.7871C33.2651 18.6074 33.8667 19.1953 34.7007 19.1953L36.9429 19.1953C37.7632 19.1953 38.3647 18.6074 38.3647 17.7871L38.3647 14.7793C38.3647 13.959 37.7632 13.3574 36.9429 13.3574L34.7007 13.3574C33.8667 13.3574 33.2651 13.959 33.2651 14.7793ZM23.6128 22.5996L23.6128 25.6074C23.6128 26.4277 24.2143 27.0293 25.021 27.0293L27.2768 27.0293C28.0971 27.0293 28.7261 26.4277 28.7261 25.6074L28.7261 22.5996C28.7261 21.7793 28.0971 21.1777 27.2768 21.1777L25.021 21.1777C24.2143 21.1777 23.6128 21.7793 23.6128 22.5996ZM30.1343 22.5996L30.1343 25.6074C30.1343 26.4277 30.7221 27.0293 31.5698 27.0293L33.812 27.0293C34.6323 27.0293 35.2475 26.4277 35.2475 25.6074L35.2475 22.5996C35.2475 21.7793 34.6323 21.1777 33.812 21.1777L31.5698 21.1777C30.7221 21.1777 30.1343 21.7793 30.1343 22.5996ZM26.5932 3.78711L31.9936 3.78711C32.4038 3.78711 32.4858 3.34961 32.1714 3.13086L29.7104 1.46289C29.437 1.28516 29.1499 1.28516 28.8764 1.46289L26.4155 3.13086C26.1011 3.34961 26.1831 3.78711 26.5932 3.78711Z" fill="white" fill-opacity="0.85"/>
  <path d="M7.93113 6.09766C9.61277 6.09766 10.9389 4.68945 10.9389 3.0625C10.9389 1.38086 9.61277 0 7.93113 0C6.23582 0 4.89598 1.38086 4.89598 3.0625C4.89598 4.7168 6.23582 6.09766 7.93113 6.09766ZM2.10691 17.4043L10.7749 7.7793C9.9409 7.45117 8.98387 7.31445 7.93113 7.31445C4.02098 7.31445 1.71043 9.20117 1.71043 12.3594C1.71043 13.125 1.73777 14.1367 1.84715 15.1758ZM13.7554 17.4043L14.0014 15.1758C14.1245 14.1367 14.1518 13.125 14.1518 12.3594C14.1518 10.8008 13.605 9.54297 12.5386 8.69531L5.6616 16.3516C6.42723 16.2285 7.17918 16.1738 7.93113 16.1738C9.85887 16.1738 11.8003 16.4336 13.7554 17.4043ZM4.59519 27.4805C5.38816 27.3711 5.90769 26.7969 5.81199 25.7988L5.26512 20.7539L10.5835 20.7539L10.0503 25.7988C9.9409 26.7969 10.4741 27.3711 11.2671 27.4805C12.1011 27.5625 12.7163 27.043 12.8393 26.0859L13.5503 19.4277C11.7729 18.4023 9.80418 18.0059 7.93113 18.0059C6.05809 18.0059 4.07566 18.4023 2.33934 19.4277L3.02293 26.0859C3.14598 27.043 3.74754 27.5625 4.59519 27.4805ZM12.5386 8.68164L15.1362 5.79688C15.5874 5.29102 15.5464 4.73047 15.1089 4.375C14.6987 4.00586 14.1518 3.99219 13.687 4.52539L10.7749 7.7793C11.4311 8.02539 12.019 8.33984 12.5386 8.68164ZM0.425273 18.416C-0.0669144 18.7715-0.0942582 19.3457 0.151836 19.7148C0.384257 20.1113 0.876445 20.3027 1.40965 19.9883C1.7241 19.7832 2.01121 19.6055 2.33934 19.4277L2.10691 17.4043C1.49168 17.6777 0.931132 17.9922 0.425273 18.416ZM15.437 18.416C14.9175 17.9922 14.3706 17.6777 13.7554 17.4043L13.5366 19.4277C13.8374 19.6055 14.1382 19.7832 14.4526 19.9883C14.9858 20.3027 15.4507 20.125 15.6968 19.7422C15.9429 19.3594 15.9429 18.7852 15.437 18.416Z" fill="white" fill-opacity="0.85"/>
 </g>
</svg>
