<?xml version="1.0" encoding="UTF-8"?>
<!--Generator: Apple Native CoreSVG 326-->
<!DOCTYPE svg
PUBLIC "-//W3C//DTD SVG 1.1//EN"
       "http://www.w3.org/Graphics/SVG/1.1/DTD/svg11.dtd">
<svg version="1.1" xmlns="http://www.w3.org/2000/svg" xmlns:xlink="http://www.w3.org/1999/xlink" viewBox="0 0 41.7646 27.5488">
 <g>
  <rect height="27.5488" opacity="0" width="41.7646" x="0" y="0"/>
  <path d="M24.0132 8.75L24.0132 12.0586C24.0132 13.0156 24.7241 13.7266 25.6811 13.7266L28.2925 13.7266C29.2495 13.7266 29.9604 13.0156 29.9604 12.0586L29.9604 8.75C29.9604 7.79297 29.2495 7.08203 28.2925 7.08203L25.6811 7.08203C24.7241 7.08203 24.0132 7.79297 24.0132 8.75ZM31.6421 8.75L31.6421 12.0586C31.6421 13.0156 32.3393 13.7266 33.31 13.7266L35.9214 13.7266C36.8784 13.7266 37.5757 13.0156 37.5757 12.0586L37.5757 8.75C37.5757 7.79297 36.8784 7.08203 35.9214 7.08203L33.31 7.08203C32.3393 7.08203 31.6421 7.79297 31.6421 8.75ZM20.2124 18.4707L20.2124 21.793C20.2124 22.75 20.9233 23.4609 21.8667 23.4609L24.4917 23.4609C25.435 23.4609 26.146 22.75 26.146 21.793L26.146 18.4707C26.146 17.5137 25.435 16.8164 24.4917 16.8164L21.8667 16.8164C20.9233 16.8164 20.2124 17.5137 20.2124 18.4707ZM27.8413 18.4707L27.8413 21.793C27.8413 22.75 28.5522 23.4609 29.5093 23.4609L32.1206 23.4609C33.064 23.4609 33.7612 22.75 33.7612 21.793L33.7612 18.4707C33.7612 17.5137 33.064 16.8164 32.1206 16.8164L29.5093 16.8164C28.5522 16.8164 27.8413 17.5137 27.8413 18.4707ZM35.4565 18.4707L35.4565 21.793C35.4565 22.75 36.1675 23.4609 37.1245 23.4609L39.7358 23.4609C40.6929 23.4609 41.4038 22.75 41.4038 21.793L41.4038 18.4707C41.4038 17.5137 40.6929 16.8164 39.7358 16.8164L37.1245 16.8164C36.1675 16.8164 35.4565 17.5137 35.4565 18.4707ZM27.0073 11.8262C26.2143 11.8262 25.5581 11.1836 25.5581 10.3906C25.5581 9.625 26.2143 8.99609 27.0073 8.99609C27.7593 8.99609 28.4018 9.625 28.4018 10.3906C28.4018 11.1836 27.7593 11.8262 27.0073 11.8262ZM34.6225 11.8262C33.8433 11.8262 33.187 11.1836 33.187 10.3906C33.187 9.625 33.8433 8.99609 34.6225 8.99609C35.3745 8.99609 36.0444 9.625 36.0444 10.3906C36.0444 11.1836 35.3745 11.8262 34.6225 11.8262ZM23.1929 21.5605C22.4136 21.5605 21.7573 20.918 21.7573 20.125C21.7573 19.3594 22.4136 18.7168 23.1929 18.7168C23.9585 18.7168 24.6011 19.3594 24.6011 20.125C24.6011 20.918 23.9585 21.5605 23.1929 21.5605ZM30.8081 21.5605C30.0288 21.5605 29.3725 20.918 29.3725 20.125C29.3725 19.3594 30.0288 18.7168 30.8081 18.7168C31.5737 18.7168 32.23 19.3594 32.23 20.125C32.23 20.918 31.5737 21.5605 30.8081 21.5605ZM38.437 21.5605C37.6577 21.5605 36.9878 20.918 36.9878 20.125C36.9878 19.3594 37.6577 18.7168 38.437 18.7168C39.189 18.7168 39.8452 19.3594 39.8452 20.125C39.8452 20.918 39.189 21.5605 38.437 21.5605ZM28.1284 5.05859L33.5288 5.05859C33.939 5.05859 34.021 4.62109 33.7065 4.40234L31.2593 2.73438C30.9722 2.55664 30.685 2.55664 30.4116 2.73438L27.9643 4.40234C27.6499 4.62109 27.7183 5.05859 28.1284 5.05859Z" fill="white" fill-opacity="0.85"/>
  <path d="M7.94872 6.09766C9.60302 6.09766 10.9565 4.68945 10.9565 3.0625C10.9565 1.38086 9.60302 0 7.94872 0C6.23974 0 4.91357 1.38086 4.91357 3.0625C4.91357 4.7168 6.23974 6.09766 7.94872 6.09766ZM2.11083 17.4043L10.7925 7.7793C9.93114 7.45117 9.00146 7.31445 7.94872 7.31445C4.02489 7.31445 1.71435 9.20117 1.71435 12.3594C1.71435 13.125 1.74169 14.1367 1.86474 15.1758ZM13.7593 17.4043L14.0054 15.1758C14.1284 14.1367 14.1694 13.125 14.1694 12.3594C14.1694 10.8008 13.6089 9.54297 12.5561 8.69531L5.66552 16.3516C6.43114 16.2285 7.1831 16.1738 7.94872 16.1738C9.86278 16.1738 11.7905 16.4336 13.7593 17.4043ZM4.58544 27.4805C5.39208 27.3711 5.93896 26.7969 5.81591 25.7988L5.26903 20.7539L10.5874 20.7539L10.0542 25.7988C9.95849 26.7969 10.478 27.3711 11.271 27.4805C12.0913 27.5625 12.7202 27.043 12.8296 26.0859L13.5405 19.4277C11.7632 18.4023 9.82177 18.0059 7.94872 18.0059C6.04833 18.0059 4.09325 18.4023 2.34325 19.4277L3.04052 26.0859C3.13622 27.043 3.76513 27.5625 4.58544 27.4805ZM12.5561 8.68164L15.1401 5.79688C15.5776 5.29102 15.5503 4.73047 15.1128 4.375C14.7026 4.00586 14.1694 3.99219 13.6909 4.52539L10.7925 7.7793C11.4214 8.02539 12.0229 8.33984 12.5561 8.68164ZM0.42919 18.416C-0.0766693 18.7715-0.0903412 19.3457 0.155753 19.7148C0.388174 20.1113 0.880362 20.3027 1.41357 19.9883C1.72802 19.7832 2.01513 19.6055 2.34325 19.4277L2.11083 17.4043C1.4956 17.6777 0.948721 17.9922 0.42919 18.416ZM15.4546 18.416C14.9214 17.9922 14.3745 17.6777 13.7593 17.4043L13.5268 19.4277C13.855 19.6055 14.1421 19.7832 14.4565 19.9883C14.9761 20.3027 15.4683 20.125 15.7007 19.7422C15.9468 19.3594 15.9468 18.7852 15.4546 18.416Z" fill="white" fill-opacity="0.85"/>
 </g>
</svg>
