<svg version="1.1" xmlns="http://www.w3.org/2000/svg" xmlns:xlink="http://www.w3.org/1999/xlink" viewBox="0 0 24.077 33.4824">
 <g>
  
  <path d="M10.7738 8.73633C12.4145 8.73633 13.7406 7.41016 13.7406 5.75586C13.7406 4.11523 12.4145 2.78906 10.7738 2.78906C9.10587 2.78906 7.7797 4.11523 7.7797 5.75586C7.7797 7.41016 9.10587 8.73633 10.7738 8.73633ZM3.22697 33.209C3.99259 33.3457 4.70353 32.8398 4.85392 32.0469L6.15275 25.0605L11.5942 22.1074C11.7445 22.0117 11.8813 22.0527 11.9496 22.2031L14.6977 28.834C14.8617 29.1895 15.1078 29.4355 15.4223 29.5996L21.602 33.0312C22.3813 33.4824 23.2016 33.1133 23.5297 32.498C23.9262 31.8281 23.6664 30.9395 22.9828 30.5566L17.227 27.3711L13.3305 11.7715C13.0981 10.8418 12.2914 10.1719 11.2934 10.1719L2.93986 10.1719L6.85001 1.85938C7.38322 0.738281 6.57658 0 5.75626 0C5.29142 0 4.84025 0.232422 4.60783 0.806641L0.0961069 12.5645C-0.122643 13.125 0.0550912 13.6445 0.396888 13.9863L3.88322 17.4863C4.41642 18.0059 5.33243 18.0059 5.86564 17.4863L7.41056 15.9277C7.61564 15.7227 7.93009 15.7227 8.01212 16.0234L8.84611 19.373L4.01993 22.9961C3.67814 23.2559 3.52775 23.666 3.44572 24.0488L2.0922 31.5547C1.95548 32.293 2.46134 33.0586 3.22697 33.209ZM6.31681 12.9883L4.86759 14.4375L3.41837 12.9883Z" style="fill:var(--color-0,hsl(0 0 0/0.85))"></path>
 </g>
</svg>