<svg version="1.1" xmlns="http://www.w3.org/2000/svg" xmlns:xlink="http://www.w3.org/1999/xlink" viewBox="0 0 28.2461 27.9043">
 <g>
  
  <path d="M13.9453 27.8906C21.6426 27.8906 27.8906 21.6289 27.8906 13.9453C27.8906 6.24805 21.6426 0 13.9453 0C6.26172 0 0 6.24805 0 13.9453C0 21.6289 6.26172 27.8906 13.9453 27.8906Z" style="fill:var(--color-0,hsl(0 0 0/0.85))"></path>
  <path d="M19.8242 10.418C18.8945 10.418 18.1426 9.66602 18.1426 8.70898C18.1426 7.79297 18.8945 7.02734 19.8242 7.02734C20.7539 7.02734 21.5332 7.79297 21.5332 8.70898C21.5332 9.66602 20.7539 10.418 19.8242 10.418ZM16.1738 24.3906C15.9277 24.3906 15.6953 24.1855 15.6953 23.9121L15.6953 20.2754C15.3945 20.4805 14.998 20.6172 14.5879 20.6172C13.4258 20.6172 12.5234 19.8105 12.5234 18.5254L12.5234 17.0762L9.69336 16.5977L7.08203 19.1953C6.76758 19.5098 6.27539 19.5098 5.97461 19.1953C5.64648 18.8672 5.64648 18.3887 5.97461 18.0605L8.8457 15.1758C8.99609 15.0117 9.24219 14.9434 9.47461 14.9434L12.1816 14.9434C12.332 14.9434 12.3867 14.8066 12.291 14.7246L9.88477 12.5645L6.0293 12.5645C5.57812 12.5645 5.22266 12.1816 5.22266 11.7441C5.22266 11.3203 5.57812 10.9648 6.0293 10.9648L10.1855 10.9648C10.4043 10.9648 10.5273 10.9922 10.6641 11.0879L12.5234 12.3867L12.5234 3.82812C12.5234 3.56836 12.7422 3.34961 13.002 3.34961C13.248 3.34961 13.4805 3.55469 13.4805 3.82812L13.4805 13.0703L14.1094 13.4941L16.2148 11.375C16.3652 11.2246 16.3789 11.0742 16.2148 10.9238L14.1641 8.88672L14.1641 6.61719L18.9082 11.3477C19.2227 11.6484 19.3867 12.0723 19.3867 12.5781L19.3867 16.1465C19.3867 16.3516 19.291 16.5566 19.1543 16.6934L16.7617 19.0996C16.7344 19.127 16.707 19.1406 16.666 19.168L16.666 23.9121C16.666 24.1855 16.4473 24.3906 16.1738 24.3906ZM14.5879 19.6602C15.0527 19.6602 15.4082 19.4141 15.5859 19.0312C15.3125 18.7441 15.3262 18.2793 15.627 17.9648C15.6406 17.9512 15.6816 17.9102 15.6953 17.8965L15.6953 16.1602L15.627 16.2285C15.0391 16.8164 14.2734 17.1445 13.4805 17.1582L13.4805 18.5254C13.4805 19.2637 13.9453 19.6602 14.5879 19.6602ZM16.666 16.9395L17.7871 15.8184L17.7871 14.6016C17.7871 14.3691 17.582 14.3008 17.418 14.4512L16.666 15.2031Z" style="fill:var(--color-1,white)"></path>
 </g>
</svg>