<svg version="1.1" xmlns="http://www.w3.org/2000/svg" xmlns:xlink="http://www.w3.org/1999/xlink" viewBox="0 0 41.8056 27.5488">
 <g>
  
  <path d="M20.2534 12.168L20.2534 15.4902C20.2534 16.4473 20.9643 17.1445 21.9077 17.1445L24.5327 17.1445C25.4761 17.1445 26.187 16.4473 26.187 15.4902L26.187 12.168C26.187 11.2109 25.4761 10.5 24.5327 10.5L21.9077 10.5C20.9643 10.5 20.2534 11.2109 20.2534 12.168ZM27.8823 12.168L27.8823 15.4902C27.8823 16.4473 28.5933 17.1445 29.5503 17.1445L32.1616 17.1445C33.1186 17.1445 33.8022 16.4473 33.8022 15.4902L33.8022 12.168C33.8022 11.2109 33.1186 10.5 32.1616 10.5L29.5503 10.5C28.5933 10.5 27.8823 11.2109 27.8823 12.168ZM35.4975 12.168L35.4975 15.4902C35.4975 16.4473 36.2085 17.1445 37.1655 17.1445L39.7768 17.1445C40.7339 17.1445 41.4448 16.4473 41.4448 15.4902L41.4448 12.168C41.4448 11.2109 40.7339 10.5 39.7768 10.5L37.1655 10.5C36.2085 10.5 35.4975 11.2109 35.4975 12.168ZM23.2339 15.2305C22.4546 15.2305 21.7983 14.6152 21.7983 13.8086C21.7983 13.043 22.4546 12.4004 23.2339 12.4004C23.9995 12.4004 24.6421 13.043 24.6421 13.8086C24.6421 14.6152 23.9995 15.2305 23.2339 15.2305ZM30.8491 15.2305C30.0698 15.2305 29.4136 14.6152 29.4136 13.8086C29.4136 13.043 30.0698 12.4004 30.8491 12.4004C31.6147 12.4004 32.271 13.043 32.271 13.8086C32.271 14.6152 31.6147 15.2305 30.8491 15.2305ZM38.478 15.2305C37.6987 15.2305 37.0288 14.6152 37.0288 13.8086C37.0288 13.043 37.6987 12.4004 38.478 12.4004C39.2436 12.4004 39.8862 13.043 39.8862 13.8086C39.8862 14.6152 39.2436 15.2305 38.478 15.2305ZM28.1284 8.47656L33.5288 8.47656C33.939 8.47656 34.021 8.03906 33.7065 7.83398L31.2593 6.15234C30.9722 5.97461 30.685 5.97461 30.4116 6.15234L27.9643 7.83398C27.6499 8.03906 27.7183 8.47656 28.1284 8.47656Z" style="fill:var(--color-0,hsl(0 0 0/0.85))"></path>
  <path d="M7.94872 6.09766C9.60302 6.09766 10.9565 4.68945 10.9565 3.0625C10.9565 1.38086 9.60302 0 7.94872 0C6.23974 0 4.91357 1.38086 4.91357 3.0625C4.91357 4.7168 6.23974 6.09766 7.94872 6.09766ZM2.11083 17.4043L10.7925 7.7793C9.93114 7.45117 9.00146 7.31445 7.94872 7.31445C4.02489 7.31445 1.71435 9.20117 1.71435 12.3594C1.71435 13.125 1.74169 14.1367 1.86474 15.1758ZM13.7593 17.4043L14.0054 15.1758C14.1284 14.1367 14.1694 13.125 14.1694 12.3594C14.1694 10.8008 13.6089 9.54297 12.5561 8.69531L5.66552 16.3516C6.43114 16.2285 7.1831 16.1738 7.94872 16.1738C9.86278 16.1738 11.7905 16.4336 13.7593 17.4043ZM4.58544 27.4805C5.37841 27.3711 5.93896 26.7969 5.81591 25.7988L5.26903 20.7539L10.5874 20.7539L10.0542 25.7988C9.95849 26.7969 10.478 27.3711 11.271 27.4805C12.0913 27.5625 12.7202 27.043 12.8296 26.0859L13.5405 19.4277C11.7632 18.4023 9.82177 18.0059 7.94872 18.0059C6.04833 18.0059 4.09325 18.4023 2.34325 19.4277L3.04052 26.0859C3.13622 27.043 3.76513 27.5625 4.58544 27.4805ZM12.5561 8.68164L15.1401 5.79688C15.5776 5.29102 15.5503 4.73047 15.1128 4.375C14.7026 4.00586 14.1694 3.99219 13.6909 4.52539L10.7925 7.7793C11.4214 8.02539 12.0229 8.33984 12.5561 8.68164ZM0.42919 18.416C-0.0766693 18.7715-0.0903412 19.3457 0.155753 19.7148C0.374503 20.1113 0.880362 20.3027 1.39989 19.9883C1.72802 19.7832 2.01513 19.6055 2.34325 19.4277L2.11083 17.4043C1.4956 17.6777 0.948721 17.9922 0.42919 18.416ZM15.4546 18.416C14.9214 17.9922 14.3745 17.6777 13.7593 17.4043L13.5268 19.4277C13.855 19.6055 14.1421 19.7832 14.4565 19.9883C14.9761 20.3027 15.4683 20.125 15.7007 19.7422C15.9468 19.3594 15.9468 18.7852 15.4546 18.416Z" style="fill:var(--color-1,hsl(0 0 0/0.85))"></path>
 </g>
</svg>