<?xml version="1.0" encoding="UTF-8"?>
<!--Generator: Apple Native CoreSVG 326-->
<!DOCTYPE svg
PUBLIC "-//W3C//DTD SVG 1.1//EN"
       "http://www.w3.org/Graphics/SVG/1.1/DTD/svg11.dtd">
<svg version="1.1" xmlns="http://www.w3.org/2000/svg" xmlns:xlink="http://www.w3.org/1999/xlink" viewBox="0 0 39.4707 30.1738">
 <g>
  <rect height="30.1738" opacity="0" width="39.4707" x="0" y="0"/>
  <path d="M11.8672 5.97461C13.5215 5.97461 14.8477 4.64844 14.8477 3.00781C14.8477 1.35352 13.5215 0.0273438 11.8672 0.0273438C10.2129 0.0273438 8.88672 1.35352 8.88672 3.00781C8.88672 4.64844 10.2129 5.97461 11.8672 5.97461ZM27.2344 5.97461C28.875 5.97461 30.2012 4.64844 30.2012 3.00781C30.2012 1.35352 28.875 0.0273438 27.2344 0.0273438C25.5801 0.0273438 24.2539 1.35352 24.2539 3.00781C24.2539 4.64844 25.5801 5.97461 27.2344 5.97461ZM11.8535 18.8125C12.4414 18.8125 12.6875 19.168 12.9883 20.1797C13.4121 21.5332 14.8613 27.2754 15.2715 28.9707C15.4766 29.8184 15.9277 30.1738 16.5703 30.1738C17.4453 30.1738 17.9648 29.3809 17.7324 28.5195C17.6504 28.1504 15.6406 19.8652 15.3809 18.1562C15.1211 16.4062 15.0938 12.5918 15.1074 11.498C15.1348 10.5547 15.5586 10.1035 16.3926 9.9668C17.1855 9.83008 18.4434 9.76172 19.5645 9.77539C20.7266 9.77539 21.9297 9.83008 22.7363 9.9668C23.5703 10.1035 23.9941 10.5547 24.0078 11.498C24.0352 12.5918 23.9941 16.4062 23.707 18.1562C23.4336 19.8652 21.4512 28.1504 21.3418 28.5195C21.1094 29.3809 21.6562 30.1738 22.5176 30.1738C23.1602 30.1738 23.5977 29.8184 23.8301 28.9707C24.2812 27.2891 25.6895 21.5605 26.127 20.1797C26.4551 19.1953 26.6738 18.8125 27.2344 18.8125C27.8086 18.8125 28.0684 19.168 28.3691 20.1797C28.7793 21.5332 30.2422 27.2754 30.6523 28.9707C30.8574 29.8184 31.3223 30.1738 31.9512 30.1738C32.8262 30.1738 33.3457 29.3809 33.1133 28.5195C33.0176 28.1504 31.0215 19.8652 30.748 18.1562C30.4883 16.4062 30.4883 12.5918 30.502 11.416C30.502 10.5957 30.8574 10.0762 31.541 9.92578C32.1836 9.77539 37.4062 9.21484 38.1309 8.98242C38.7051 8.80469 39.1152 8.32617 39.1152 7.69727C39.1152 6.9043 38.5 6.42578 37.9531 6.42578C37.7207 6.42578 37.502 6.48047 37.2422 6.53516C35.123 6.91797 30.5156 7.28711 27.2344 7.41016C24.4453 7.49219 21.4785 7.56055 19.6191 7.56055C17.7324 7.56055 14.6973 7.49219 11.8535 7.41016C8.61328 7.31445 3.96484 6.94531 1.83203 6.53516C1.61328 6.48047 1.36719 6.42578 1.16211 6.42578C0.560547 6.42578 0 6.9043 0 7.69727C0 8.32617 0.382812 8.85938 0.970703 8.98242C1.72266 9.14648 6.91797 9.80273 7.56055 9.92578C8.2168 10.0488 8.61328 10.5957 8.64062 11.416C8.6543 12.5918 8.61328 16.4062 8.32617 18.1562C8.05273 19.8652 6.07031 28.1504 5.97461 28.5195C5.72852 29.3809 6.27539 30.1738 7.13672 30.1738C7.7793 30.1738 8.23047 29.8184 8.46289 28.9707C8.91406 27.2891 10.3086 21.5605 10.7598 20.1797C11.0879 19.1953 11.293 18.8125 11.8535 18.8125Z" fill="white" fill-opacity="0.85"/>
 </g>
</svg>
