<svg version="1.1" xmlns="http://www.w3.org/2000/svg" xmlns:xlink="http://www.w3.org/1999/xlink" viewBox="0 0 28.2461 27.9043">
 <g>
  
  <path d="M13.9453 27.8906C21.6426 27.8906 27.8906 21.6426 27.8906 13.9453C27.8906 6.24805 21.6426 0 13.9453 0C6.24805 0 0 6.24805 0 13.9453C0 21.6426 6.24805 27.8906 13.9453 27.8906ZM13.9453 25.5664C7.51953 25.5664 2.32422 20.3711 2.32422 13.9453C2.32422 7.51953 7.51953 2.32422 13.9453 2.32422C20.3711 2.32422 25.5664 7.51953 25.5664 13.9453C25.5664 20.3711 20.3711 25.5664 13.9453 25.5664Z" style="fill:var(--color-0,hsl(0 0 0/0.85))"></path>
  <path d="M16.8574 7.9707C17.7871 7.9707 18.5117 7.21875 18.5117 6.31641C18.5117 5.40039 17.7871 4.66211 16.8574 4.66211C15.9551 4.66211 15.2168 5.40039 15.2168 6.31641C15.2168 7.21875 15.9551 7.9707 16.8574 7.9707ZM11.6348 13.9453L14.4512 16.7617L14.4512 21.0273L16.0098 21.0273L16.0098 16.543C16.0098 16.3105 15.9414 16.1055 15.791 15.9004L13.8906 13.5078L15.5176 11.0332C15.6133 10.8555 15.8457 10.8555 15.9277 11.0469L16.4746 12.127C16.5977 12.373 16.8574 12.5508 17.1582 12.5508L20.2617 12.5508C20.6992 12.5508 21.041 12.209 21.041 11.7852C21.041 11.3477 20.6992 10.9922 20.2617 10.9922L17.6504 10.9922L16.8301 9.35156C16.502 8.70898 15.832 8.28516 15.0938 8.28516L10.9512 8.28516C10.7051 8.28516 10.4453 8.4082 10.3086 8.64062L8.76367 10.9648C8.54492 11.3066 8.61328 11.7988 8.98242 12.0312C9.32422 12.2637 9.83008 12.168 10.0625 11.8125L11.3613 9.83008L12.6328 9.83008C12.7422 9.83008 12.7969 9.92578 12.7422 10.0215L11.4297 11.9902C11.0332 12.5781 11.1016 13.4121 11.6348 13.9453ZM6.95898 15.0801L10.0078 17.7461C10.4727 18.1699 11.0195 17.9375 11.2656 17.5684L12.4551 15.6953L11.1699 14.3965C11.1426 14.3828 11.1426 14.3828 11.1152 14.3418L10.3223 15.9688L7.98438 13.9043C7.65625 13.6309 7.16406 13.6445 6.89062 13.9727C6.60352 14.3008 6.63086 14.793 6.95898 15.0801ZM10.8008 21.6426L16.0781 21.6426C16.9258 21.6426 17.623 21.4785 18.1836 21C18.416 20.7812 18.416 20.5215 18.2656 20.3301C18.1289 20.1387 17.8281 20.0703 17.5684 20.2754C17.1719 20.5762 16.7754 20.7129 16.0781 20.7129L10.8008 20.7129C10.1035 20.7129 9.70703 20.5762 9.31055 20.2754C9.06445 20.0977 8.79102 20.1387 8.64062 20.3164C8.49023 20.4941 8.44922 20.7812 8.69531 21C9.25586 21.4785 9.95312 21.6426 10.8008 21.6426ZM10.8008 23.3379C11.1562 23.3379 11.457 23.0371 11.457 22.6816C11.457 22.3262 11.1562 22.0254 10.8008 22.0254C10.4453 22.0254 10.1445 22.3262 10.1445 22.6816C10.1445 23.0371 10.4453 23.3379 10.8008 23.3379ZM16.0781 23.3379C16.4336 23.3379 16.7207 23.0371 16.7207 22.6816C16.7207 22.3262 16.4336 22.0254 16.0781 22.0254C15.7227 22.0254 15.4219 22.3262 15.4219 22.6816C15.4219 23.0371 15.7227 23.3379 16.0781 23.3379Z" style="fill:var(--color-1,hsl(0 0 0/0.85))"></path>
 </g>
</svg>