<svg version="1.1" xmlns="http://www.w3.org/2000/svg" xmlns:xlink="http://www.w3.org/1999/xlink" viewBox="0 0 27.5353 31.4316">
 <g>
  
  <path d="M17.7735 5.97461C19.4278 5.97461 20.754 4.64844 20.754 2.99414C20.754 1.33984 19.4278 0 17.7735 0C16.1055 0 14.7793 1.33984 14.7793 2.99414C14.7793 4.64844 16.1055 5.97461 17.7735 5.97461ZM4.07427 15.9004C4.90826 16.2832 5.66021 15.9141 5.98833 15.2578L8.49029 10.2676L11.4844 10.2676C11.7989 10.2676 12.0176 10.5684 11.8536 10.8555L9.22857 16.0645C8.25787 17.9922 9.44732 20.4121 11.9903 20.2617L19.0586 19.8242L16.4473 25.6211C16.1192 26.3594 16.4336 27.2617 17.1719 27.5352C17.9922 27.8496 18.7032 27.6035 19.0586 26.8105L22.6954 18.8262C23.0918 17.9648 22.5313 16.7754 21.4239 16.7754L15.0118 16.7754L17.8555 11.1016C17.9649 10.8555 18.2657 10.7871 18.4571 10.9922L21.8067 14.1914C22.4766 14.834 23.6661 14.7246 24.1309 13.8086L27.0157 8.01172C27.3711 7.28711 27.1524 6.41211 26.3868 6.05664C25.6622 5.71484 24.8008 6.01562 24.4454 6.72656L22.4219 10.7188L20.7813 9.06445C19.6739 7.95703 18.4981 7.38281 16.6934 7.38281L7.60162 7.38281C7.05474 7.38281 6.56255 7.69727 6.33013 8.17578L3.40435 13.9863C3.04888 14.6973 3.32232 15.5312 4.07427 15.9004ZM0.150443 29.9414C0.601615 30.8848 1.59966 30.8984 2.06451 30.6934L9.28326 27.5488C9.58404 27.4121 9.8438 27.1797 9.99419 26.8652L12.6329 21.5469L12.0723 21.5879C10.9239 21.6562 9.92583 21.3281 9.18755 20.7676L7.5606 25.1289L0.902396 28C0.150443 28.3281-0.232369 29.1758 0.150443 29.9414ZM24.0079 31.2949C25.6895 31.2949 27.0157 29.9824 27.0157 28.3008C27.0157 26.6465 25.6895 25.3203 24.0079 25.3203C22.3536 25.3203 21.0411 26.6465 21.0411 28.3008C21.0411 29.9824 22.3536 31.2949 24.0079 31.2949Z" style="fill:var(--color-0,hsl(0 0 0/0.85))"></path>
 </g>
</svg>