<?xml version="1.0" encoding="UTF-8"?>
<!--Generator: Apple Native CoreSVG 326-->
<!DOCTYPE svg
PUBLIC "-//W3C//DTD SVG 1.1//EN"
       "http://www.w3.org/Graphics/SVG/1.1/DTD/svg11.dtd">
<svg version="1.1" xmlns="http://www.w3.org/2000/svg" xmlns:xlink="http://www.w3.org/1999/xlink" viewBox="0 0 31.5035 29.2443">
 <g>
  <rect height="29.2443" opacity="0" width="31.5035" x="0" y="0"/>
  <path d="M25.0076 8.17588C27.0447 8.17588 28.6853 6.46689 28.6853 4.48447C28.6853 2.42002 27.0447 0.75205 25.0076 0.75205C22.9295 0.75205 21.2889 2.42002 21.2889 4.48447C21.2889 6.52158 22.9295 8.17588 25.0076 8.17588ZM2.96855 27.7403C3.67948 28.4786 4.89628 28.4239 5.77128 27.5216L11.6502 21.4513C11.8416 21.2462 11.9783 21.1915 12.2928 21.3146L16.8865 23.0509C19.826 24.1856 22.615 23.2149 23.9002 20.8634L26.8533 15.4903C28.0018 13.3985 27.6463 11.2384 25.6502 10.172C23.7225 9.11924 21.7127 9.91221 20.5506 12.0587L16.7225 19.045L13.4549 17.8556C11.8416 17.2677 10.4881 17.4591 9.20292 18.7989L3.09159 25.1153C2.24394 25.9903 2.32597 27.0841 2.96855 27.7403Z" fill="white" fill-opacity="0.85"/>
  <path d="M5.59355 5.61924L5.96269 6.41221L3.31034 9.24228L0.972453 10.3907C0.0564377 10.8282-0.189656 11.7169 0.138469 12.4142C0.466594 13.1251 1.28691 13.5626 2.33964 13.0567L4.28105 12.1271L8.51933 11.8946L8.94316 12.797C9.14823 13.2481 9.68144 13.4396 10.1326 13.2345C10.5838 13.0294 10.7752 12.4962 10.5701 12.0587L7.2205 4.86728C7.01542 4.42978 6.48222 4.23838 6.03105 4.44346C5.57988 4.64853 5.38847 5.18174 5.59355 5.61924ZM10.2693 5.26377L14.1932 3.54111C14.699 3.32236 14.7947 2.78916 14.2889 2.43369L10.9803 0.150488C10.5428-0.177637 10.0096 0.0547847 9.9412 0.615332L9.39433 4.58018C9.3123 5.18174 9.73613 5.49619 10.2693 5.26377ZM11.9783 8.95518C11.4725 9.17393 11.3904 9.70713 11.91 10.0763L15.2049 12.3595C15.656 12.6739 16.1619 12.4278 16.2439 11.881L16.8045 7.91611C16.8865 7.28721 16.449 7.0001 15.9158 7.23252Z" fill="white" fill-opacity="0.85"/>
 </g>
</svg>
