<?xml version="1.0" encoding="UTF-8"?>
<!--Generator: Apple Native CoreSVG 326-->
<!DOCTYPE svg
PUBLIC "-//W3C//DTD SVG 1.1//EN"
       "http://www.w3.org/Graphics/SVG/1.1/DTD/svg11.dtd">
<svg version="1.1" xmlns="http://www.w3.org/2000/svg" xmlns:xlink="http://www.w3.org/1999/xlink" viewBox="0 0 32.1764 27.5488">
 <g>
  <rect height="27.5488" opacity="0" width="32.1764" x="0" y="0"/>
  <path d="M20.1898 6.95898L20.1898 9.9668C20.1898 10.7871 20.805 11.3887 21.6253 11.3887L23.8538 11.3887C24.6878 11.3887 25.303 10.7871 25.303 9.9668L25.303 6.95898C25.303 6.13867 24.6878 5.52344 23.8538 5.52344L21.6253 5.52344C20.805 5.52344 20.1898 6.13867 20.1898 6.95898ZM26.7249 6.95898L26.7249 9.9668C26.7249 10.7871 27.3265 11.3887 28.1605 11.3887L30.389 11.3887C31.2366 11.3887 31.8245 10.7871 31.8245 9.9668L31.8245 6.95898C31.8245 6.13867 31.2366 5.52344 30.389 5.52344L28.1605 5.52344C27.3265 5.52344 26.7249 6.13867 26.7249 6.95898ZM20.1898 14.793L20.1898 17.8008C20.1898 18.6211 20.805 19.209 21.639 19.209L23.8675 19.209C24.7151 19.209 25.303 18.6211 25.303 17.8008L25.303 14.793C25.303 13.9727 24.7151 13.3574 23.8675 13.3574L21.639 13.3574C20.805 13.3574 20.1898 13.9727 20.1898 14.793ZM26.7249 14.793L26.7249 17.8008C26.7249 18.6211 27.3265 19.209 28.1605 19.209L30.389 19.209C31.223 19.209 31.8108 18.6211 31.8108 17.8008L31.8108 14.793C31.8108 13.9727 31.223 13.3574 30.389 13.3574L28.1605 13.3574C27.3265 13.3574 26.7249 13.9727 26.7249 14.793ZM20.1898 22.5996L20.1898 25.6074C20.1898 26.4277 20.805 27.0293 21.6253 27.0293L23.8538 27.0293C24.6878 27.0293 25.303 26.4277 25.303 25.6074L25.303 22.5996C25.303 21.7793 24.6878 21.1777 23.8538 21.1777L21.6253 21.1777C20.805 21.1777 20.1898 21.7793 20.1898 22.5996ZM26.7249 22.5996L26.7249 25.6074C26.7249 26.4277 27.3265 27.0293 28.1605 27.0293L30.389 27.0293C31.2366 27.0293 31.8245 26.4277 31.8245 25.6074L31.8245 22.5996C31.8245 21.7793 31.2366 21.1777 30.389 21.1777L28.1605 21.1777C27.3265 21.1777 26.7249 21.7793 26.7249 22.5996ZM22.7601 9.85742C21.9808 9.85742 21.3382 9.21484 21.3382 8.43555C21.3382 7.68359 21.9808 7.04102 22.7601 7.04102C23.512 7.04102 24.1683 7.68359 24.1683 8.43555C24.1683 9.21484 23.512 9.85742 22.7601 9.85742ZM29.2815 9.85742C28.5159 9.85742 27.8597 9.22852 27.8597 8.43555C27.8597 7.68359 28.5159 7.04102 29.2815 7.04102C30.0335 7.04102 30.6898 7.68359 30.6898 8.43555C30.6898 9.22852 30.0335 9.85742 29.2815 9.85742ZM22.7601 17.6777C21.9944 17.6777 21.3382 17.0488 21.3382 16.2559C21.3382 15.5039 21.9944 14.875 22.7601 14.875C23.512 14.875 24.1683 15.5039 24.1683 16.2559C24.1683 17.0488 23.512 17.6777 22.7601 17.6777ZM29.2815 17.6777C28.5159 17.6777 27.8597 17.0488 27.8597 16.2559C27.8597 15.5039 28.5159 14.875 29.2815 14.875C30.0335 14.875 30.6898 15.5039 30.6898 16.2559C30.6898 17.0488 30.0335 17.6777 29.2815 17.6777ZM22.7601 25.5117C21.9944 25.5117 21.3382 24.8691 21.3382 24.0898C21.3382 23.3242 21.9944 22.6953 22.7601 22.6953C23.512 22.6953 24.1683 23.3242 24.1683 24.0898C24.1683 24.8691 23.512 25.5117 22.7601 25.5117ZM29.2815 25.5117C28.5159 25.5117 27.8597 24.8691 27.8597 24.0898C27.8597 23.3242 28.5159 22.6953 29.2815 22.6953C30.0335 22.6953 30.6898 23.3242 30.6898 24.0898C30.6898 24.8691 30.0335 25.5117 29.2815 25.5117ZM23.1702 3.78711L28.5843 3.78711C28.9944 3.78711 29.0628 3.34961 28.7483 3.13086L26.3011 1.46289C26.0276 1.28516 25.7405 1.28516 25.4534 1.46289L23.0062 3.13086C22.6917 3.34961 22.7737 3.78711 23.1702 3.78711Z" fill="white" fill-opacity="0.85"/>
  <path d="M7.92608 6.09766C9.60772 6.09766 10.9339 4.68945 10.9339 3.0625C10.9339 1.38086 9.60772 0 7.92608 0C6.23077 0 4.90459 1.38086 4.90459 3.0625C4.90459 4.7168 6.23077 6.09766 7.92608 6.09766ZM2.10186 17.4043L10.7698 7.7793C9.92217 7.45117 8.97881 7.31445 7.92608 7.31445C4.00225 7.31445 1.70538 9.20117 1.70538 12.3594C1.70538 13.125 1.71905 14.1367 1.84209 15.1758ZM13.7366 17.4043L13.9964 15.1758C14.1058 14.1367 14.1468 13.125 14.1468 12.3594C14.1468 10.8008 13.5999 9.54297 12.5335 8.69531L5.64288 16.3516C6.42217 16.2285 7.16045 16.1738 7.92608 16.1738C9.85381 16.1738 11.7815 16.4336 13.7366 17.4043ZM4.57647 27.4805C5.38311 27.3711 5.90264 26.7969 5.80694 25.7988L5.26006 20.7539L10.5784 20.7539L10.0452 25.7988C9.93584 26.7969 10.4554 27.3711 11.262 27.4805C12.096 27.5625 12.7249 27.043 12.8206 26.0859L13.5315 19.4277C11.7679 18.4023 9.79913 18.0059 7.92608 18.0059C6.03936 18.0059 4.07061 18.4023 2.32061 19.4277L3.01788 26.0859C3.11358 27.043 3.74249 27.5625 4.57647 27.4805ZM12.5335 8.68164L15.1175 5.79688C15.5823 5.29102 15.5413 4.73047 15.0901 4.375C14.68 4.00586 14.1468 3.99219 13.6819 4.52539L10.7698 7.7793C11.4124 8.02539 12.014 8.33984 12.5335 8.68164ZM0.406548 18.416C-0.0719681 18.7715-0.08564 19.3457 0.146782 19.7148C0.379204 20.1113 0.857719 20.3027 1.40459 19.9883C1.71905 19.7832 1.99249 19.6055 2.32061 19.4277L2.10186 17.4043C1.48663 17.6777 0.926079 17.9922 0.406548 18.416ZM15.4319 18.416C14.9124 17.9922 14.3655 17.6777 13.7366 17.4043L13.5179 19.4277C13.846 19.6055 14.1194 19.7832 14.4476 19.9883C14.9671 20.3027 15.4456 20.125 15.6917 19.7422C15.9378 19.3594 15.9378 18.7852 15.4319 18.416Z" fill="white" fill-opacity="0.85"/>
 </g>
</svg>
