<svg version="1.1" xmlns="http://www.w3.org/2000/svg" xmlns:xlink="http://www.w3.org/1999/xlink" viewBox="0 0 31.3669 31.0251">
 <g>
  
  <path d="M1.53307 18.5272L12.4842 29.4784C14.5077 31.5018 16.5038 31.5155 18.5135 29.5194L29.5194 18.4999C31.5155 16.5038 31.5018 14.494 29.4784 12.4706L18.5409 1.53307C16.5174-0.49037 14.5213-0.517714 12.5116 1.49205L1.49205 12.4979C-0.517714 14.5077-0.49037 16.5038 1.53307 18.5272Z" style="fill:var(--color-0,hsl(0 0 0/0.85))"></path>
  <path d="M12.0741 23.7362C11.4042 24.5155 10.16 23.6131 10.9256 22.6971L13.3592 19.8124L13.7557 17.953L15.0546 19.621L14.8768 20.1678C14.7948 20.4686 14.7538 20.537 14.5077 20.8241ZM18.035 23.5174L16.326 20.0448C16.2577 19.9081 16.2303 19.8124 16.0799 19.621L14.412 17.5428C13.7967 16.7772 13.578 16.326 13.6463 15.4374L13.7831 13.6463C13.8104 13.4003 13.5096 13.2909 13.3046 13.4823L12.6893 14.0018L12.5116 16.1346C12.4706 16.6542 12.1971 16.9276 11.7323 16.8866C11.2948 16.8729 11.035 16.5311 11.0624 16.0526L11.1991 14.1112C11.2401 13.6053 11.3768 13.2635 11.787 12.8534L13.0311 11.6229C13.8378 10.8436 14.412 10.4061 15.2733 10.4061C16.4217 10.4061 17.078 11.2538 17.0096 12.4022L16.8319 14.7401C16.7909 15.5878 16.6815 16.0936 16.3807 16.9413L16.3124 17.1463L17.3924 18.6776C17.5292 18.8827 17.7069 19.1698 17.8436 19.4022L19.4979 22.7928C20.0585 23.9003 18.5272 24.5292 18.035 23.5174ZM20.8788 13.619C21.3846 13.619 21.6854 13.8924 21.6854 14.3436C21.6854 14.7948 21.3846 15.0682 20.8788 15.0682L19.1288 15.0682C18.6366 15.0682 18.4178 14.9999 18.1444 14.7264L17.6522 14.2479L17.8026 12.2928L18.9921 13.619ZM16.1893 9.68151C15.2323 9.68151 14.4667 8.90221 14.4667 7.95885C14.4667 7.01549 15.2323 6.24986 16.1893 6.24986C17.1327 6.24986 17.8983 7.01549 17.8983 7.95885C17.8983 8.90221 17.1327 9.68151 16.1893 9.68151Z" style="fill:var(--color-1,white)"></path>
 </g>
</svg>