<svg version="1.1" xmlns="http://www.w3.org/2000/svg" xmlns:xlink="http://www.w3.org/1999/xlink" viewBox="0 0 34.0566 28.3418">
 <g>
  
  <path d="M2.0918 10.7734L8.69531 10.7734C9.17383 10.7734 9.54297 10.3633 9.54297 9.87109C9.54297 9.37891 9.17383 8.98242 8.69531 8.98242L2.0918 8.98242C1.61328 8.98242 1.24414 9.37891 1.24414 9.87109C1.24414 10.3633 1.61328 10.7734 2.0918 10.7734ZM0.847656 15.9141L8.69531 15.9141C9.17383 15.9141 9.54297 15.5176 9.54297 15.0254C9.54297 14.5332 9.17383 14.123 8.69531 14.123L0.847656 14.123C0.369141 14.123 0 14.5469 0 15.0254C0 15.5039 0.369141 15.9141 0.847656 15.9141ZM4.85352 21.0684L8.69531 21.0684C9.17383 21.0684 9.54297 20.6582 9.54297 20.166C9.54297 19.6738 9.17383 19.2773 8.69531 19.2773L4.85352 19.2773C4.375 19.2773 3.99219 19.6738 3.99219 20.166C3.99219 20.6582 4.375 21.0684 4.85352 21.0684Z" style="fill:var(--color-0,hsl(0 0 0/0.85))"></path>
  <path d="M30.3652 5.94727C32.0195 5.94727 33.3457 4.62109 33.3457 2.98047C33.3457 1.32617 32.0195 0 30.3652 0C28.7109 0 27.3848 1.32617 27.3848 2.98047C27.3848 4.62109 28.7109 5.94727 30.3652 5.94727ZM22.2168 28.3418C27.8086 28.3418 32.1562 23.9805 32.1562 18.3887C32.1562 15.8184 31.1172 14.2734 28.8203 13.4941L26.6602 12.7422C26.291 12.6328 26.1953 12.3594 26.4277 12.0176L27.8359 9.9668C28.9297 8.39453 28.5332 7.0957 26.8652 5.91992L21.6562 2.2832C21.1094 1.91406 20.4258 1.90039 19.8789 2.25586L15.0664 5.49609C13.2891 6.69922 14.9297 8.87305 16.5293 7.7793L20.6172 5.01758L23.4336 6.98633C23.9121 7.32812 23.9668 7.71094 23.6523 8.14844L21.3965 11.4297C20.1797 13.1934 21.1641 15.1074 23.0645 15.5996L29.0664 17.1035C29.7227 17.2539 30.0781 17.7871 30.0781 18.5254C30.0781 22.8184 26.6465 26.25 22.2305 26.25C17.8008 26.25 14.3555 22.8184 14.3555 18.3887C14.3555 16.7754 14.834 15.3398 15.627 14.1504C16.5156 12.8242 14.752 11.7168 13.8223 13.1113C12.8652 14.5742 12.2773 16.3652 12.2773 18.3887C12.2773 23.9805 16.625 28.3418 22.2168 28.3418ZM32.1973 28.3418C33.0449 28.3418 33.7012 27.6719 33.7012 26.8242C33.7012 25.9902 33.0449 25.3203 32.1973 25.3203C31.3633 25.3203 30.6934 25.9902 30.6934 26.8242C30.6934 27.6719 31.3633 28.3418 32.1973 28.3418Z" style="fill:var(--color-1,hsl(0 0 0/0.85))"></path>
 </g>
</svg>