<?xml version="1.0" encoding="UTF-8"?>
<!--Generator: Apple Native CoreSVG 326-->
<!DOCTYPE svg
PUBLIC "-//W3C//DTD SVG 1.1//EN"
       "http://www.w3.org/Graphics/SVG/1.1/DTD/svg11.dtd">
<svg version="1.1" xmlns="http://www.w3.org/2000/svg" xmlns:xlink="http://www.w3.org/1999/xlink" viewBox="0 0 28.2461 27.9043">
 <g>
  <rect height="27.9043" opacity="0" width="28.2461" x="0" y="0"/>
  <path d="M13.9453 27.8906C21.6426 27.8906 27.8906 21.6289 27.8906 13.9453C27.8906 6.24805 21.6426 0 13.9453 0C6.26172 0 0 6.24805 0 13.9453C0 21.6289 6.26172 27.8906 13.9453 27.8906Z" fill="white" fill-opacity="0.85"/>
  <path d="M13.5625 9.0918C12.6328 9.0918 11.8809 8.32617 11.8809 7.39648C11.8809 6.4668 12.6328 5.71484 13.5625 5.71484C14.5195 5.71484 15.2715 6.4668 15.2715 7.39648C15.2715 8.32617 14.5195 9.0918 13.5625 9.0918ZM7.20508 22.0391L8.06641 18.7715C8.18945 18.2656 8.39453 17.9238 8.73633 17.6094L11.1426 15.2168L11.1426 11.9355C11.1426 11.7031 10.9785 11.5117 10.7461 11.5117L8.24414 11.5117C6.69922 11.5117 6.6582 9.61133 8.13477 9.26953L10.4316 8.75C11.0059 8.62695 11.3477 8.90039 11.4434 9.26953C11.5117 9.48828 11.457 9.7207 11.3066 9.91211L19.6055 9.91211C20.0566 9.91211 20.4121 10.2676 20.4121 10.7188C20.4121 11.1562 20.0566 11.5117 19.6055 11.5117L14.793 11.5117C14.5605 11.5117 14.3828 11.7031 14.3828 11.9355L14.3828 14.916C14.3828 15.3672 14.4648 15.8047 14.6426 16.2012L15.668 18.5527L17.418 21.875C17.6641 22.3262 17.5273 22.75 17.1992 22.9551C16.8438 23.1875 16.2832 23.1465 16.0098 22.6406L14.2598 19.3594L13.1113 17.3633C12.8516 16.9121 12.209 16.8438 11.8398 17.1719L9.95312 18.7715C9.70703 18.9629 9.65234 19.0996 9.57031 19.4004L8.75 22.4492C8.62695 22.9414 8.17578 23.1191 7.79297 23.0645C7.38281 22.9961 7.04102 22.6406 7.20508 22.0391ZM20.0703 15.6406C20.7676 13.7676 21.041 12.291 21.041 10.7188C21.041 9.17383 20.7676 7.68359 20.0703 5.82422C19.8652 5.16797 20.7949 4.92188 21.0273 5.49609C21.7109 7.27344 22.0254 8.85938 22.0254 10.7188C22.0254 12.6465 21.7109 14.2324 21.0273 15.9551C20.7812 16.543 19.8652 16.2559 20.0703 15.6406Z" fill="white"/>
 </g>
</svg>
