<svg version="1.1" xmlns="http://www.w3.org/2000/svg" xmlns:xlink="http://www.w3.org/1999/xlink" viewBox="0 0 25.6028 31.4043">
 <g>
  
  <path d="M12.6237 18.375L15.9186 23.543L18.3795 30.3242C18.6529 31.0762 19.3776 31.3223 19.9928 31.0898C20.649 30.8711 20.9908 30.1191 20.7447 29.4766L18.2565 22.627L15.7819 15.832L15.7819 9.66602C15.7819 9.37891 15.9322 9.11914 16.192 8.98242L24.5729 4.51172C25.1881 4.18359 25.4205 3.43164 25.0924 2.80273C24.7643 2.1875 24.0123 1.96875 23.3971 2.29688L15.3033 6.57617C14.401 7.05469 13.5123 7.27344 12.6237 7.27344C11.735 7.27344 10.8463 7.05469 9.94397 6.57617L1.85022 2.29688C1.23498 1.96875 0.483028 2.1875 0.154903 2.80273C-0.186894 3.43164 0.0591999 4.18359 0.674434 4.51172L9.05529 8.98242C9.31506 9.11914 9.46545 9.37891 9.46545 9.66602L9.46545 15.832L6.99084 22.627L4.50256 29.4766C4.25647 30.1191 4.59826 30.8711 5.24084 31.0898C5.86975 31.3223 6.59436 31.0762 6.86779 30.3242L9.32873 23.543ZM12.6237 5.85156C14.2233 5.85156 15.5221 4.53906 15.5221 2.91211C15.5221 1.3125 14.2233 0 12.6237 0C10.9967 0 9.6842 1.3125 9.6842 2.91211C9.6842 4.53906 10.9967 5.85156 12.6237 5.85156Z" style="fill:var(--color-0,hsl(0 0 0/0.85))"></path>
 </g>
</svg>