<?xml version="1.0" encoding="UTF-8"?>
<!--Generator: Apple Native CoreSVG 326-->
<!DOCTYPE svg
PUBLIC "-//W3C//DTD SVG 1.1//EN"
       "http://www.w3.org/Graphics/SVG/1.1/DTD/svg11.dtd">
<svg version="1.1" xmlns="http://www.w3.org/2000/svg" xmlns:xlink="http://www.w3.org/1999/xlink" viewBox="0 0 29.8081 24.541">
 <g>
  <rect height="24.541" opacity="0" width="29.8081" x="0" y="0"/>
  <path d="M22.574 5.97461C24.2283 5.97461 25.5681 4.64844 25.5681 2.99414C25.5681 1.33984 24.2283 0 22.574 0C20.9197 0 19.5935 1.33984 19.5935 2.99414C19.5935 4.64844 20.9197 5.97461 22.574 5.97461ZM13.0994 24.3633C13.9197 24.3633 14.5486 23.6934 14.5486 22.9004L14.5486 16.5293C14.5486 15.9277 14.2752 15.5039 13.9197 15.1484L9.69508 10.9102L14.8084 9.61133C15.0681 9.54297 15.2869 9.73438 15.2869 9.99414L15.2869 12.7148C15.2869 13.0977 15.4373 13.4668 15.7107 13.7402L20.0584 18.1152C20.6326 18.6758 21.5623 18.6758 22.1365 18.1152C22.697 17.5547 22.7107 16.6113 22.1365 16.0508L18.1853 12.127L18.1853 9.36523L20.3728 11.8535C20.6599 12.168 21.0564 12.3594 21.4666 12.3594L28.0154 12.3594C28.822 12.3594 29.4509 11.7168 29.4509 10.8965C29.4509 10.0898 28.822 9.46094 28.0154 9.46094L22.1365 9.46094L18.6502 5.44141C17.5701 4.19727 15.9021 3.70508 14.3025 4.10156L6.85133 5.97461C3.92555 6.71289 3.41969 10.3359 5.74391 12.2227L11.6502 17.0352L11.6502 22.9004C11.6502 23.6934 12.2927 24.3633 13.0994 24.3633ZM0.425553 23.9395C0.986099 24.5 1.92946 24.5 2.50368 23.9395L7.58962 18.8535C7.84938 18.5801 7.93141 18.334 8.01344 17.8965L8.34157 16.0508L5.10133 13.4121L5.10133 17.2129L0.425553 21.875C-0.148666 22.4355-0.134994 23.3789 0.425553 23.9395Z" fill="white" fill-opacity="0.85"/>
 </g>
</svg>
