<svg version="1.1" xmlns="http://www.w3.org/2000/svg" xmlns:xlink="http://www.w3.org/1999/xlink" viewBox="0 0 28.2461 27.9043">
 <g>
  
  <path d="M13.9453 27.8906C21.6426 27.8906 27.8906 21.6426 27.8906 13.9453C27.8906 6.24805 21.6426 0 13.9453 0C6.24805 0 0 6.24805 0 13.9453C0 21.6426 6.24805 27.8906 13.9453 27.8906ZM13.9453 25.5664C7.51953 25.5664 2.32422 20.3711 2.32422 13.9453C2.32422 7.51953 7.51953 2.32422 13.9453 2.32422C20.3711 2.32422 25.5664 7.51953 25.5664 13.9453C25.5664 20.3711 20.3711 25.5664 13.9453 25.5664Z" style="fill:var(--color-0,hsl(0 0 0/0.85))"></path>
  <path d="M6.07031 18.0332L6.17969 18.0332C8.24414 18.0332 8.68164 16.8027 10.0488 16.8027C11.4297 16.8027 11.8672 18.0332 13.9316 18.0332C15.9961 18.0332 16.4336 16.8027 17.8145 16.8027C19.1816 16.8027 19.6191 18.0332 21.6836 18.0332L21.8066 18.0332C22.0391 18.0332 22.2715 17.8555 22.2715 17.5684C22.2715 17.3223 22.0391 17.1035 21.8066 17.1035L21.6836 17.1035C20.2754 17.1035 19.7832 15.873 17.8145 15.873C15.8457 15.873 15.3535 17.1035 13.9316 17.1035C12.5234 17.1035 12.0176 15.873 10.0488 15.873C8.08008 15.873 7.58789 17.1035 6.17969 17.1035L6.07031 17.1035C5.82422 17.1035 5.5918 17.3223 5.5918 17.5684C5.5918 17.8555 5.82422 18.0332 6.07031 18.0332ZM6.07031 20.1113L6.17969 20.1113C8.24414 20.1113 8.68164 18.8809 10.0488 18.8809C11.4297 18.8809 11.8672 20.1113 13.9316 20.1113C15.9961 20.1113 16.4336 18.8809 17.8145 18.8809C19.1816 18.8809 19.6191 20.1113 21.6836 20.1113L21.8066 20.1113C22.0391 20.1113 22.2715 19.9062 22.2715 19.6465C22.2715 19.4004 22.0391 19.1816 21.8066 19.1816L21.6836 19.1816C20.2754 19.1816 19.7832 17.9512 17.8145 17.9512C15.8457 17.9512 15.3535 19.1816 13.9316 19.1816C12.5234 19.1816 12.0176 17.9512 10.0488 17.9512C8.08008 17.9512 7.58789 19.1816 6.17969 19.1816L6.07031 19.1816C5.82422 19.1816 5.5918 19.4004 5.5918 19.6465C5.5918 19.9062 5.82422 20.1113 6.07031 20.1113ZM12.4414 8.05273C12.4414 8.28516 12.6328 8.47656 12.8789 8.47656C13.5488 8.47656 13.959 8.61328 14.3965 9.07812C14.5605 9.25586 14.7246 9.33789 14.9023 9.33789C15.0801 9.33789 15.2305 9.25586 15.4082 9.07812C15.832 8.61328 16.2422 8.47656 16.9258 8.47656C17.1582 8.47656 17.3496 8.28516 17.3496 8.05273C17.3496 7.82031 17.1582 7.62891 16.9121 7.62891C16.0781 7.62891 15.5176 7.82031 14.9023 8.38086C14.2734 7.82031 13.7129 7.62891 12.8789 7.62891C12.6465 7.62891 12.4414 7.82031 12.4414 8.05273ZM11.4707 15.0254C12.3047 15.3945 12.7969 15.9961 13.9316 15.9961C15.2578 15.9961 15.6406 15.1621 16.8164 14.8613L12.5645 10.4453C12.2227 10.0898 11.7168 10.0625 11.3203 10.3359L8.35352 12.4414C7.84766 12.8105 7.90234 13.3438 8.20312 13.6582C8.44922 13.9316 8.88672 14.041 9.29688 13.7402L11.7031 12.0449L13.0703 13.4395C13.2207 13.6035 13.2617 13.8359 13.0293 13.9863ZM17.9238 13.9453C18.8262 13.9453 19.5645 13.207 19.5645 12.3047C19.5645 11.375 18.8262 10.6504 17.9238 10.6504C16.9941 10.6504 16.2695 11.375 16.2695 12.3047C16.2695 13.207 16.9941 13.9453 17.9238 13.9453Z" style="fill:var(--color-1,hsl(0 0 0/0.85))"></path>
 </g>
</svg>