<?xml version="1.0" encoding="UTF-8"?>
<!--Generator: Apple Native CoreSVG 326-->
<!DOCTYPE svg
PUBLIC "-//W3C//DTD SVG 1.1//EN"
       "http://www.w3.org/Graphics/SVG/1.1/DTD/svg11.dtd">
<svg version="1.1" xmlns="http://www.w3.org/2000/svg" xmlns:xlink="http://www.w3.org/1999/xlink" viewBox="0 0 33.1646 27.7402">
 <g>
  <rect height="27.7402" opacity="0" width="33.1646" x="0" y="0"/>
  <path d="M6.86159 7.42383C4.81081 7.42383 3.17019 5.71484 3.17019 3.73242C3.17019 1.66797 4.81081 0 6.86159 0C8.92605 0 10.5803 1.66797 10.5803 3.73242C10.5803 5.76953 8.92605 7.42383 6.86159 7.42383ZM28.887 26.9883C28.176 27.7266 26.9593 27.6719 26.0979 26.7695L20.2053 20.6992C20.0139 20.4941 19.8772 20.4395 19.5764 20.5625L14.9827 22.2988C12.0296 23.4336 9.25417 22.4629 7.95534 20.1113L5.00222 14.7383C3.85378 12.6465 4.22292 10.4863 6.20534 9.41992C8.14675 8.36719 10.1428 9.16016 11.305 11.3066L15.1468 18.293L18.4007 17.1035C20.0139 16.5156 21.3675 16.707 22.6526 18.0469L28.7639 24.3633C29.6116 25.2383 29.5296 26.332 28.887 26.9883Z" fill="white" fill-opacity="0.85"/>
  <path d="M28.0257 5.45508C28.0257 4.9082 27.5745 4.4707 27.0003 4.4707L21.6546 4.4707L21.6546 2.35156C21.6546 1.33984 20.6428 0.998047 19.9593 1.61328L16.4182 4.75781C15.926 5.19531 15.9397 5.75586 16.4182 6.20703L19.9593 9.35156C20.6702 9.99414 21.6546 9.57031 21.6546 8.61328L21.6546 6.48047L27.0003 6.48047C27.5745 6.48047 28.0257 6.0293 28.0257 5.45508ZM32.8792 7.94336C32.4827 7.54688 31.8538 7.54688 31.4573 7.94336L27.6702 11.7305L26.1663 10.2129C25.4827 9.54297 24.4983 9.92578 24.4436 10.8965L24.1565 15.627C24.1155 16.2695 24.5257 16.6797 25.1682 16.6387L29.9124 16.3652C30.8284 16.3105 31.2932 15.3672 30.5823 14.6562L29.0921 13.1387L32.8655 9.36523C33.262 8.95508 33.262 8.32617 32.8792 7.94336Z" fill="white" fill-opacity="0.85"/>
 </g>
</svg>
