<svg version="1.1" xmlns="http://www.w3.org/2000/svg" xmlns:xlink="http://www.w3.org/1999/xlink" viewBox="0 0 29.5723 37.3926">
 <g>
  
  <path d="M2.70703 2.625C2.70703 3.04883 3.04883 3.37695 3.47266 3.37695C4.70312 3.37695 5.45508 3.60938 6.23438 4.4707C6.53516 4.79883 6.83594 4.93555 7.15039 4.93555C7.45117 4.93555 7.75195 4.79883 8.05273 4.4707C8.83203 3.60938 9.58398 3.37695 10.8145 3.37695C11.2383 3.37695 11.5801 3.04883 11.5801 2.625C11.5801 2.20117 11.2383 1.85938 10.8145 1.85938C9.2832 1.85938 8.27148 2.21484 7.15039 3.25391C6.01562 2.21484 5.00391 1.85938 3.48633 1.85938C3.04883 1.85938 2.70703 2.20117 2.70703 2.625ZM18.3887 8.39453C20.043 8.39453 21.3828 7.06836 21.3828 5.41406C21.3828 3.75977 20.043 2.41992 18.3887 2.41992C16.7344 2.41992 15.4082 3.75977 15.4082 5.41406C15.4082 7.06836 16.7344 8.39453 18.3887 8.39453ZM4.70312 18.3203C5.53711 18.7031 6.28906 18.334 6.61719 17.6777L9.11914 12.6875L12.1133 12.6875C12.4277 12.6875 12.6328 12.9883 12.4824 13.2754L9.85742 18.4844C8.88672 20.4121 10.0762 22.832 12.6191 22.6816L19.6875 22.2441L17.0762 28.041C16.748 28.7793 17.0625 29.6816 17.8008 29.9551C18.6074 30.2695 19.332 30.0234 19.6875 29.2168L23.3242 21.2461C23.7207 20.3848 23.1602 19.1953 22.0391 19.1953L15.6406 19.1953L18.4707 13.5215C18.5938 13.2754 18.8945 13.207 19.0859 13.4121L22.4355 16.6113C23.1055 17.2539 24.2949 17.1445 24.7598 16.2285L27.6445 10.4316C28 9.70703 27.7812 8.83203 27.0156 8.47656C26.291 8.13477 25.4297 8.43555 25.0605 9.14648L23.0508 13.1387L21.4102 11.4844C20.3027 10.377 19.127 9.80273 17.3223 9.80273L8.23047 9.80273C7.68359 9.80273 7.19141 10.1172 6.95898 10.5957L4.0332 16.4062C3.67773 17.1172 3.95117 17.9512 4.70312 18.3203ZM0.779297 32.3613C1.23047 33.3047 2.22852 33.3184 2.69336 33.1133L9.91211 29.9688C10.2129 29.832 10.4727 29.5996 10.623 29.2852L13.2617 23.9668L12.7012 24.0078C11.5527 24.0762 10.5547 23.748 9.81641 23.1875L8.17578 27.5488L1.51758 30.4199C0.779297 30.748 0.396484 31.5957 0.779297 32.3613ZM24.6367 33.7148C26.3184 33.7148 27.6445 32.4023 27.6445 30.7207C27.6445 29.0664 26.3184 27.7402 24.6367 27.7402C22.9824 27.7402 21.6699 29.0664 21.6699 30.7207C21.6699 32.4023 22.9824 33.7148 24.6367 33.7148ZM0.792969 37.3926C1.24414 37.3926 1.59961 37.0508 1.59961 36.5996C1.59961 36.1484 1.24414 35.8066 0.792969 35.8066C0.355469 35.8066 0 36.1484 0 36.5996C0 37.0508 0.355469 37.3926 0.792969 37.3926ZM3.30859 37.3926C3.75977 37.3926 4.10156 37.0508 4.10156 36.5996C4.10156 36.1484 3.75977 35.8066 3.30859 35.8066C2.85742 35.8066 2.51562 36.1484 2.51562 36.5996C2.51562 37.0508 2.85742 37.3926 3.30859 37.3926ZM5.82422 37.3926C6.26172 37.3926 6.61719 37.0508 6.61719 36.5996C6.61719 36.1484 6.26172 35.8066 5.82422 35.8066C5.37305 35.8066 5.01758 36.1484 5.01758 36.5996C5.01758 37.0508 5.37305 37.3926 5.82422 37.3926ZM8.32617 37.3926C8.77734 37.3926 9.13281 37.0508 9.13281 36.5996C9.13281 36.1484 8.77734 35.8066 8.32617 35.8066C7.88867 35.8066 7.5332 36.1484 7.5332 36.5996C7.5332 37.0508 7.88867 37.3926 8.32617 37.3926ZM10.8418 37.3926C11.293 37.3926 11.6348 37.0508 11.6348 36.5996C11.6348 36.1484 11.293 35.8066 10.8418 35.8066C10.3906 35.8066 10.0488 36.1484 10.0488 36.5996C10.0488 37.0508 10.3906 37.3926 10.8418 37.3926ZM13.3574 37.3926C13.7949 37.3926 14.1504 37.0508 14.1504 36.5996C14.1504 36.1484 13.7949 35.8066 13.3574 35.8066C12.9062 35.8066 12.5508 36.1484 12.5508 36.5996C12.5508 37.0508 12.9062 37.3926 13.3574 37.3926ZM15.8594 37.3926C16.3105 37.3926 16.666 37.0508 16.666 36.5996C16.666 36.1484 16.3105 35.8066 15.8594 35.8066C15.4219 35.8066 15.0664 36.1484 15.0664 36.5996C15.0664 37.0508 15.4219 37.3926 15.8594 37.3926ZM18.375 37.3926C18.8262 37.3926 19.168 37.0508 19.168 36.5996C19.168 36.1484 18.8262 35.8066 18.375 35.8066C17.9238 35.8066 17.582 36.1484 17.582 36.5996C17.582 37.0508 17.9238 37.3926 18.375 37.3926ZM20.8906 37.3926C21.3418 37.3926 21.6836 37.0508 21.6836 36.5996C21.6836 36.1484 21.3418 35.8066 20.8906 35.8066C20.4395 35.8066 20.0977 36.1484 20.0977 36.5996C20.0977 37.0508 20.4395 37.3926 20.8906 37.3926ZM23.4062 37.3926C23.8438 37.3926 24.1992 37.0508 24.1992 36.5996C24.1992 36.1484 23.8438 35.8066 23.4062 35.8066C22.9551 35.8066 22.5996 36.1484 22.5996 36.5996C22.5996 37.0508 22.9551 37.3926 23.4062 37.3926ZM25.9082 37.3926C26.3594 37.3926 26.7012 37.0508 26.7012 36.5996C26.7012 36.1484 26.3594 35.8066 25.9082 35.8066C25.4707 35.8066 25.1152 36.1484 25.1152 36.5996C25.1152 37.0508 25.4707 37.3926 25.9082 37.3926ZM28.4238 37.3926C28.875 37.3926 29.2168 37.0508 29.2168 36.5996C29.2168 36.1484 28.875 35.8066 28.4238 35.8066C27.9727 35.8066 27.6309 36.1484 27.6309 36.5996C27.6309 37.0508 27.9727 37.3926 28.4238 37.3926Z" style="fill:var(--color-0,hsl(0 0 0/0.85))"></path>
 </g>
</svg>