<?xml version="1.0" encoding="UTF-8"?>
<!--Generator: Apple Native CoreSVG 326-->
<!DOCTYPE svg
PUBLIC "-//W3C//DTD SVG 1.1//EN"
       "http://www.w3.org/Graphics/SVG/1.1/DTD/svg11.dtd">
<svg version="1.1" xmlns="http://www.w3.org/2000/svg" xmlns:xlink="http://www.w3.org/1999/xlink" viewBox="0 0 26.8054 25.9538">
 <g>
  <rect height="25.9538" opacity="0" width="26.8054" x="0" y="0"/>
  <path d="M5.37046 6.77669C7.02476 6.77669 8.35093 5.45052 8.35093 3.79622C8.35093 2.1556 7.02476 0.815754 5.37046 0.815754C3.71617 0.815754 2.38999 2.1556 2.38999 3.79622C2.38999 5.45052 3.71617 6.77669 5.37046 6.77669ZM0.0384323 12.5189L0.831401 17.4134C1.14585 19.2181 3.60679 18.849 3.31968 17.0579L2.62242 12.8333L5.39781 11.7533C5.82164 11.5892 6.19078 11.6439 6.36851 12.0404L8.92515 17.099C9.69078 18.6165 10.3197 19.0814 10.9486 19.5326L19.1927 25.5892C20.6419 26.6556 22.3783 24.5501 20.7513 23.347L14.3392 18.6439C14.0248 18.4115 14.0521 17.9876 14.3939 17.7962L18.7552 15.2806L24.4701 18.015C26.1107 18.7806 27.4095 16.4974 25.4955 15.5814L19.3978 12.6829C18.6459 12.3275 17.9486 12.4368 17.347 12.7923L14.4759 14.474C14.0931 14.6927 13.8197 14.5833 13.683 14.2962L11.3724 9.5931C11.1537 9.1556 11.2084 8.73177 11.6869 8.49935L13.7923 7.54232C14.4896 7.21419 14.7494 6.98177 14.9408 6.31185L16.2806 1.67708C16.7728-0.0729179 14.4212-0.715496 13.9154 1.0345L12.6166 5.57357L0.96812 10.7005C0.175151 11.0423-0.111958 11.6439 0.0384323 12.5189Z" fill="white" fill-opacity="0.85"/>
 </g>
</svg>
