<?xml version="1.0" encoding="UTF-8"?>
<!--Generator: Apple Native CoreSVG 326-->
<!DOCTYPE svg
PUBLIC "-//W3C//DTD SVG 1.1//EN"
       "http://www.w3.org/Graphics/SVG/1.1/DTD/svg11.dtd">
<svg version="1.1" xmlns="http://www.w3.org/2000/svg" xmlns:xlink="http://www.w3.org/1999/xlink" viewBox="0 0 13.2344 30.7207">
 <g>
  <rect height="30.7207" opacity="0" width="13.2344" x="0" y="0"/>
  <path d="M0 18.4297C0 19.1133 0.533203 19.6465 1.2168 19.6465C1.88672 19.6465 2.41992 19.1133 2.41992 18.4297L2.41992 13.166C2.41992 12.9199 2.625 12.7285 2.87109 12.7285C3.11719 12.7285 3.30859 12.9199 3.30859 13.166L3.30859 29.1074C3.30859 29.8457 3.91016 30.4336 4.64844 30.4336C5.38672 30.4336 5.98828 29.8457 5.98828 29.1074L5.98828 19.4141C5.98828 19.168 6.19336 18.9492 6.43945 18.9492C6.68555 18.9492 6.9043 19.168 6.9043 19.4141L6.9043 29.1074C6.9043 29.8457 7.49219 30.4336 8.23047 30.4336C8.96875 30.4336 9.57031 29.8457 9.57031 29.1074L9.57031 13.166C9.57031 12.9199 9.76172 12.7285 10.0078 12.7285C10.2539 12.7285 10.459 12.9199 10.459 13.166L10.459 18.4297C10.459 19.1133 10.9922 19.6465 11.6621 19.6465C12.3457 19.6465 12.8789 19.1133 12.8789 18.4297L12.8789 12.5508C12.8789 9.5293 10.6641 7.5332 7.42383 7.5332L5.45508 7.5332C2.21484 7.5332 0 9.5293 0 12.5508ZM6.43945 5.96094C8.09375 5.96094 9.41992 4.63477 9.41992 2.98047C9.41992 1.32617 8.09375 0 6.43945 0C4.78516 0 3.45898 1.32617 3.45898 2.98047C3.45898 4.63477 4.78516 5.96094 6.43945 5.96094Z" fill="white" fill-opacity="0.85"/>
 </g>
</svg>
