<?xml version="1.0" encoding="UTF-8"?>
<!--Generator: Apple Native CoreSVG 326-->
<!DOCTYPE svg
PUBLIC "-//W3C//DTD SVG 1.1//EN"
       "http://www.w3.org/Graphics/SVG/1.1/DTD/svg11.dtd">
<svg version="1.1" xmlns="http://www.w3.org/2000/svg" xmlns:xlink="http://www.w3.org/1999/xlink" viewBox="0 0 28.2461 27.9043">
 <g>
  <rect height="27.9043" opacity="0" width="28.2461" x="0" y="0"/>
  <path d="M13.9453 27.8906C21.6426 27.8906 27.8906 21.6426 27.8906 13.9453C27.8906 6.24805 21.6426 0 13.9453 0C6.24805 0 0 6.24805 0 13.9453C0 21.6426 6.24805 27.8906 13.9453 27.8906ZM13.9453 25.5664C7.51953 25.5664 2.32422 20.3711 2.32422 13.9453C2.32422 7.51953 7.51953 2.32422 13.9453 2.32422C20.3711 2.32422 25.5664 7.51953 25.5664 13.9453C25.5664 20.3711 20.3711 25.5664 13.9453 25.5664Z" fill="white" fill-opacity="0.85"/>
  <path d="M14.5879 8.87305C15.4902 8.87305 16.2285 8.13477 16.2285 7.21875C16.2285 6.31641 15.4902 5.56445 14.5879 5.56445C13.6855 5.56445 12.9336 6.31641 12.9336 7.21875C12.9336 8.13477 13.6855 8.87305 14.5879 8.87305ZM12.168 18.6895C12.4688 18.9902 12.9473 18.9902 13.248 18.6895L16.3652 15.5723C16.7891 15.1484 16.5156 14.3691 15.8594 14.3008L12.373 13.918C12.0859 13.877 12.0449 13.7129 12.168 13.5352L13.4121 11.6484C13.5352 11.4707 13.7676 11.4297 13.9453 11.5391L16.1465 13.002C16.2695 13.084 16.4062 13.1523 16.5566 13.1523L19.6875 13.1523C20.084 13.1523 20.4395 12.7969 20.4395 12.3867C20.4395 11.9492 20.084 11.5938 19.6875 11.5938L16.7891 11.5938L10.0625 7.12305C9.93945 7.02734 9.78906 6.98633 9.63867 6.98633L6.50781 6.98633C6.09766 6.98633 5.75586 7.3418 5.75586 7.75195C5.75586 8.17578 6.09766 8.53125 6.50781 8.53125L9.40625 8.53125L10.6504 9.35156C10.8281 9.46094 10.8828 9.69336 10.7598 9.88477L8.95508 12.5645C8.13477 13.8086 8.8457 15.4766 10.459 15.5586L14.0273 15.75L12.168 17.6094C11.8672 17.9102 11.8672 18.4023 12.168 18.6895ZM9.2832 15.9141L9.2832 18.5801L7.30078 20.918C7.01367 21.2324 7.05469 21.7383 7.38281 22.0117C7.76562 22.3125 8.24414 22.2031 8.47656 21.9297L10.6504 19.373C10.7734 19.2227 10.8145 19.0449 10.8418 18.8945L11.2656 16.2695L10.418 16.2148C10.0078 16.2012 9.625 16.0918 9.2832 15.9141ZM19.6875 10.2539C19.6875 10.7734 20.5352 11.2109 21.6016 11.2109C22.6543 11.2109 23.5156 10.7734 23.5156 10.2539C23.5156 9.73438 22.6543 9.29688 21.6016 9.29688C20.5352 9.29688 19.6875 9.73438 19.6875 10.2539Z" fill="white" fill-opacity="0.85"/>
 </g>
</svg>
