<svg version="1.1" xmlns="http://www.w3.org/2000/svg" xmlns:xlink="http://www.w3.org/1999/xlink" viewBox="0 0 37.707 23.3105">
 <g>
  
  <path d="M2.99414 17.0215C4.63477 17.0215 5.97461 15.6953 5.97461 14.041C5.97461 12.3867 4.63477 11.0469 2.99414 11.0469C1.33984 11.0469 0 12.3867 0 14.041C0 15.6953 1.33984 17.0215 2.99414 17.0215ZM6.24805 17.9785C5.71484 19.3457 6.23438 20.7539 7.36914 21.5469C9.21484 22.832 10.9375 23.3105 13.6855 23.3105L18.0469 23.3105C21.4102 23.3105 22.3125 20.6719 21.1641 18.457L17.6504 11.6758L17.6504 1.42188C17.6504 0.615234 17.0215 0 16.2012 0C15.4082 0 14.8066 0.615234 14.8066 1.42188L14.8066 12.0176C14.8066 12.209 14.8203 12.3594 14.8613 12.4961L16.8438 18.1699L14.2734 18.1699C12.6191 18.1699 11.6621 17.7051 10.3633 16.9258C10.0215 16.7207 9.92578 16.4062 10.0762 16.0098L13.2617 7.86133C13.5488 7.13672 13.1797 6.28906 12.4414 6.01562C11.6758 5.72852 10.8828 6.08398 10.5957 6.83594ZM23.0371 21.0957L28.0957 19.4414L36.1758 17.9785C36.9551 17.8418 37.4746 17.1309 37.3379 16.3242C37.1875 15.5449 36.4492 15.0391 35.6699 15.1758L27.2207 16.707L22.3398 17.5957L22.4492 17.7871C23.1055 18.8809 23.2148 20.084 23.0371 21.0957Z" style="fill:var(--color-0,hsl(0 0 0/0.85))"></path>
 </g>
</svg>