<svg version="1.1" xmlns="http://www.w3.org/2000/svg" xmlns:xlink="http://www.w3.org/1999/xlink" viewBox="0 0 28.2461 27.9043">
 <g>
  
  <path d="M13.9453 27.8906C21.6426 27.8906 27.8906 21.6426 27.8906 13.9453C27.8906 6.24805 21.6426 0 13.9453 0C6.24805 0 0 6.24805 0 13.9453C0 21.6426 6.24805 27.8906 13.9453 27.8906ZM13.9453 25.5664C7.51953 25.5664 2.32422 20.3711 2.32422 13.9453C2.32422 7.51953 7.51953 2.32422 13.9453 2.32422C20.3711 2.32422 25.5664 7.51953 25.5664 13.9453C25.5664 20.3711 20.3711 25.5664 13.9453 25.5664Z" style="fill:var(--color-0,hsl(0 0 0/0.85))"></path>
  <path d="M11.3066 13.6582C12.209 13.6582 12.9473 12.9199 12.9473 11.9902C12.9473 11.0879 12.209 10.3496 11.3066 10.3496C10.377 10.3496 9.63867 11.0879 9.63867 11.9902C9.63867 12.9199 10.377 13.6582 11.3066 13.6582ZM13.6445 12.168L14.5469 12.168L14.5469 11.4297L19.7148 6.23438C19.8926 6.05664 19.9062 5.76953 19.7148 5.60547C19.5508 5.41406 19.2637 5.41406 19.0723 5.60547L13.8496 10.8145C13.6992 10.9785 13.6445 11.1699 13.6445 11.416ZM16.4883 14.2461C16.9121 14.2461 17.2676 13.918 17.2676 13.4805L17.2676 8.39453L15.709 9.93945L15.709 13.4805C15.709 13.918 16.0645 14.2461 16.4883 14.2461ZM12.0586 19.5918C12.4551 19.3594 12.8652 19.1543 13.2754 18.9766L13.2754 15.9961C13.2754 15.8867 13.3574 15.8047 13.4668 15.8047L14.4238 15.8047C14.834 15.8047 15.1895 15.4492 15.1895 15.0391L15.1895 10.3359L13.6445 11.5801L13.6445 14.2734L10.9375 14.2734C10.2676 14.2734 9.80273 14.7383 9.80273 15.4219L9.80273 17.0078C10.623 17.623 11.4023 18.4707 12.0586 19.5918ZM4.77148 17.3906C7.05469 17.3906 9.57031 18.2383 11.0195 21.998C11.1836 22.4355 11.6758 22.4902 11.9492 22.2168C13.6445 20.5352 15.5723 19.9746 18.3613 20.7676C18.6211 20.8359 18.8262 20.7129 18.9355 20.4668C19.5098 19.1543 20.6992 18.4844 22.1348 18.4844C22.3809 18.4844 22.5996 18.2656 22.5996 18.0195C22.5996 17.7598 22.3809 17.5547 22.1348 17.5547C20.5215 17.5547 19.0176 18.334 18.2383 19.7695C15.5449 19.127 13.4258 19.6602 11.7031 21.1777C10.0215 17.3906 7.15039 16.4609 4.77148 16.4609C4.52539 16.4609 4.30664 16.6523 4.30664 16.9258C4.30664 17.1855 4.52539 17.3906 4.77148 17.3906Z" style="fill:var(--color-1,hsl(0 0 0/0.85))"></path>
 </g>
</svg>