<?xml version="1.0" encoding="UTF-8"?>
<!--Generator: Apple Native CoreSVG 326-->
<!DOCTYPE svg
PUBLIC "-//W3C//DTD SVG 1.1//EN"
       "http://www.w3.org/Graphics/SVG/1.1/DTD/svg11.dtd">
<svg version="1.1" xmlns="http://www.w3.org/2000/svg" xmlns:xlink="http://www.w3.org/1999/xlink" viewBox="0 0 26.5645 28.3965">
 <g>
  <rect height="28.3965" opacity="0" width="26.5645" x="0" y="0"/>
  <path d="M3.67773 7.75195C1.64062 7.75195 0 6.04297 0 4.06055C0 1.99609 1.64062 0.328125 3.67773 0.328125C5.75586 0.328125 7.39648 1.99609 7.39648 4.06055C7.39648 6.09766 5.75586 7.75195 3.67773 7.75195ZM25.7168 27.3164C25.0059 28.0547 23.7891 28 22.9141 27.0977L17.0352 21.0273C16.8438 20.8223 16.707 20.7676 16.4062 20.8906L11.8125 22.627C8.85938 23.7617 6.07031 22.791 4.78516 20.4395L1.83203 15.0664C0.683594 12.9746 1.03906 10.8145 3.03516 9.74805C4.96289 8.69531 6.97266 9.48828 8.13477 11.6348L11.9629 18.6211L15.2305 17.4316C16.8438 16.8438 18.1973 17.0352 19.4824 18.375L25.5938 24.6914C26.4414 25.5664 26.3594 26.6602 25.7168 27.3164Z" fill="white" fill-opacity="0.85"/>
  <path d="M12.6328 8.85938C12.6328 10.8691 14.4648 12.8926 16.1602 12.8926C17.7188 12.8926 18.5117 11.498 19.4414 9.02344L19.7969 8.95508L19.7969 11.6211C19.7969 12.7695 20.3984 13.3574 21.5059 13.3574C23.502 13.3574 25.5254 11.5391 25.5254 9.83008C25.5254 8.25781 24.1309 7.47852 21.6426 6.54883L21.5879 6.19336L24.2539 6.19336C25.4023 6.19336 25.9766 5.60547 25.9766 4.49805C25.9766 2.48828 24.1719 0.451172 22.4629 0.451172C20.8906 0.451172 20.1113 1.87305 19.168 4.36133L18.8262 4.40234L18.8262 1.73633C18.8262 0.601562 18.2383 0 17.1309 0C15.1211 0 13.084 1.83203 13.084 3.52734C13.084 5.09961 14.5059 5.87891 16.9941 6.80859L17.0215 7.16406L14.3691 7.16406C13.2344 7.16406 12.6328 7.76562 12.6328 8.85938ZM19.3047 8.05273C18.5527 8.05273 17.9375 7.4375 17.9375 6.67188C17.9375 5.91992 18.5527 5.30469 19.3047 5.30469C20.0566 5.30469 20.6719 5.91992 20.6719 6.67188C20.6719 7.4375 20.0566 8.05273 19.3047 8.05273Z" fill="white" fill-opacity="0.85"/>
 </g>
</svg>
