<?xml version="1.0" encoding="UTF-8"?>
<!--Generator: Apple Native CoreSVG 326-->
<!DOCTYPE svg
PUBLIC "-//W3C//DTD SVG 1.1//EN"
       "http://www.w3.org/Graphics/SVG/1.1/DTD/svg11.dtd">
<svg version="1.1" xmlns="http://www.w3.org/2000/svg" xmlns:xlink="http://www.w3.org/1999/xlink" viewBox="0 0 28.2461 27.9043">
 <g>
  <rect height="27.9043" opacity="0" width="28.2461" x="0" y="0"/>
  <path d="M13.9453 27.8906C21.6426 27.8906 27.8906 21.6426 27.8906 13.9453C27.8906 6.24805 21.6426 0 13.9453 0C6.24805 0 0 6.24805 0 13.9453C0 21.6426 6.24805 27.8906 13.9453 27.8906ZM13.9453 25.5664C7.51953 25.5664 2.32422 20.3711 2.32422 13.9453C2.32422 7.51953 7.51953 2.32422 13.9453 2.32422C20.3711 2.32422 25.5664 7.51953 25.5664 13.9453C25.5664 20.3711 20.3711 25.5664 13.9453 25.5664Z" fill="white" fill-opacity="0.85"/>
  <path d="M13.959 9.26953C14.998 9.26953 15.8184 8.43555 15.8184 7.41016C15.8184 6.37109 14.998 5.53711 13.959 5.53711C12.9336 5.53711 12.0859 6.37109 12.0859 7.41016C12.0859 8.43555 12.9336 9.26953 13.959 9.26953ZM13.9453 15.9004C14.1914 15.9004 14.3828 16.0508 14.4648 16.3379L15.7363 21.2188C16.0098 22.3125 17.5137 21.9297 17.3633 20.9043C17.2949 20.4941 16.2012 16.3652 16.0508 15.4355C15.9277 14.752 15.9824 13.0293 15.9824 12.25C15.9824 12.0176 16.1738 11.8945 16.4062 11.9902L18.5801 12.8652C19.1543 13.0977 19.5645 12.8105 19.6738 12.4141C19.7969 12.0449 19.6328 11.5938 19.0859 11.375L16.7617 10.4043C16.2148 10.1992 15.7363 10.0625 15.1895 9.99414C14.8203 10.1855 14.3965 10.2812 13.9453 10.2812C13.4941 10.2812 13.084 10.1855 12.7012 9.99414C12.1543 10.0625 11.6758 10.1992 11.1289 10.4043L8.80469 11.375C8.27148 11.5938 8.09375 12.0449 8.23047 12.4141C8.33984 12.8105 8.75 13.0977 9.32422 12.8652L11.4844 11.9902C11.7168 11.8945 11.9219 12.0176 11.9219 12.25C11.9219 13.0293 11.9629 14.752 11.8535 15.4355C11.6895 16.3652 10.5957 20.4941 10.5273 20.9043C10.377 21.9297 11.8809 22.3125 12.1543 21.2188L13.4258 16.3379C13.5078 16.0508 13.6992 15.9004 13.9453 15.9004Z" fill="white" fill-opacity="0.85"/>
 </g>
</svg>
