<svg version="1.1" xmlns="http://www.w3.org/2000/svg" xmlns:xlink="http://www.w3.org/1999/xlink" viewBox="0 0 35.5879 27.7129">
 <g>
  
  <path d="M23.748 6.00195C25.4023 5.96094 26.7012 4.58008 26.6602 2.92578C26.6055 1.27148 25.2383-0.0136719 23.584 0.0273438C21.9297 0.0820312 20.6445 1.43555 20.6855 3.08984C20.7266 4.74414 22.0938 6.04297 23.748 6.00195ZM12.127 8.14844L19.7422 15.2441C20.3027 15.7637 21.1777 15.7227 21.6973 15.1758C22.2031 14.6289 22.1758 13.7539 21.6289 13.248L18.9082 10.7051L20.125 10.0898C20.3711 9.95312 20.6719 10.0215 20.8496 10.1855L23.3789 12.5371L23.3789 18.0742C23.3789 18.8262 23.9941 19.4277 24.7461 19.4277C25.498 19.4277 26.1133 18.8262 26.1133 18.0742L26.1133 11.8945C26.1133 11.498 25.9082 11.1426 25.5391 10.7871L19.7012 5.35938C18.5938 4.33398 16.8711 4.21094 15.4766 4.73047L12.5234 5.85156C11.6758 6.17969 11.2246 7.28711 12.127 8.14844ZM11.334 8.55859L10.6094 8.94141C8.23047 10.1582 7.72461 13.0977 10.0215 14.9023L15.1211 18.9355L12.0312 24.5684C11.6621 25.2246 11.9219 26.0449 12.5781 26.4277C13.1113 26.7285 14 26.6191 14.4238 25.8398L18.0742 19.1953C18.3613 18.6621 18.2793 18.0469 17.8555 17.5957L13.8223 13.248L15.3125 12.4414L11.8672 9.22852C11.6484 9.02344 11.4707 8.79102 11.334 8.55859ZM1.36719 21.1504L8.2168 21.1504C8.76367 21.1504 9.21484 20.8086 9.41992 20.3711L10.9375 17.3223L9.20117 15.9551C8.85938 15.6816 8.55859 15.4082 8.32617 15.0801L7.21875 18.416L1.36719 18.416C0.615234 18.416 0 19.0039 0 19.7832C0 20.5352 0.615234 21.1504 1.36719 21.1504ZM32.9082 25.293C34.3027 25.252 35.2734 24.2812 35.2324 22.9414C35.2188 22.3398 34.7949 21.6836 34.1113 21.7109C33.6738 21.7246 33.3594 22.0254 33.373 22.4902L33.3867 22.9141C33.4004 23.4609 32.7578 23.7891 32.1836 23.2695L17.0352 9.85742L16.0098 10.6504L30.8301 24.459C31.4316 25.0195 32.1562 25.3066 32.9082 25.293ZM26.168 27.7129C27.2207 27.7129 28.082 26.8789 28.082 25.8262C28.082 24.7734 27.2207 23.9121 26.168 23.9121C25.1152 23.9121 24.2812 24.7734 24.2812 25.8262C24.2812 26.8789 25.1152 27.7129 26.168 27.7129Z" style="fill:var(--color-0,hsl(0 0 0/0.85))"></path>
 </g>
</svg>