<?xml version="1.0" encoding="UTF-8"?>
<!--Generator: Apple Native CoreSVG 326-->
<!DOCTYPE svg
PUBLIC "-//W3C//DTD SVG 1.1//EN"
       "http://www.w3.org/Graphics/SVG/1.1/DTD/svg11.dtd">
<svg version="1.1" xmlns="http://www.w3.org/2000/svg" xmlns:xlink="http://www.w3.org/1999/xlink" viewBox="0 0 28.2461 27.9043">
 <g>
  <rect height="27.9043" opacity="0" width="28.2461" x="0" y="0"/>
  <path d="M13.9453 27.8906C21.6426 27.8906 27.8906 21.6426 27.8906 13.9453C27.8906 6.24805 21.6426 0 13.9453 0C6.24805 0 0 6.24805 0 13.9453C0 21.6426 6.24805 27.8906 13.9453 27.8906ZM13.9453 25.5664C7.51953 25.5664 2.32422 20.3711 2.32422 13.9453C2.32422 7.51953 7.51953 2.32422 13.9453 2.32422C20.3711 2.32422 25.5664 7.51953 25.5664 13.9453C25.5664 20.3711 20.3711 25.5664 13.9453 25.5664Z" fill="white" fill-opacity="0.85"/>
  <path d="M14.6699 8.54492C15.5859 8.54492 16.3242 7.80664 16.3242 6.9043C16.3242 6.00195 15.5859 5.26367 14.6699 5.26367C13.7676 5.26367 13.0293 6.00195 13.0293 6.9043C13.0293 7.80664 13.7676 8.54492 14.6699 8.54492ZM8.80469 20.8223C8.39453 21.2461 8.47656 21.7246 8.77734 21.998C9.05078 22.2441 9.51562 22.2988 9.89844 21.916L12.7832 19.0312C12.8379 18.9766 12.8516 18.9629 12.9062 18.8535L14.3281 16.1875C14.5469 15.8047 15.0938 15.7773 15.4355 16.0371L18.6621 18.498L18.6621 21.8066C18.6621 22.3262 18.9766 22.627 19.4414 22.627C19.9199 22.627 20.2207 22.3262 20.2207 21.8066L20.2207 18.1016C20.2207 17.8828 20.1387 17.6914 19.9336 17.5L16.3105 14.3965L16.3105 11.0059C16.3105 10.8145 16.4336 10.6641 16.6523 10.623L21.9707 9.83008C22.3945 9.76172 22.6953 9.35156 22.627 8.94141C22.5586 8.50391 22.1621 8.20312 21.7383 8.27148L10.459 9.98047L10.459 7.57422L8.91406 7.57422L8.91406 10.9102C8.91406 11.3887 9.31055 11.7305 9.80273 11.6484L12.4004 11.2656C12.6328 11.2383 12.7969 11.375 12.7969 11.6211L12.7969 14.6699L11.5664 18.0605ZM9.10547 8.44922C9.99414 8.44922 10.9922 8.02539 11.5801 7.36914C11.7715 7.13672 11.7715 6.86328 11.5801 6.63086C10.9922 5.98828 9.99414 5.56445 9.10547 5.56445C8.23047 5.56445 7.23242 5.98828 6.64453 6.63086C6.43945 6.86328 6.43945 7.13672 6.64453 7.36914C7.23242 8.02539 8.23047 8.44922 9.10547 8.44922Z" fill="white" fill-opacity="0.85"/>
 </g>
</svg>
