<svg version="1.1" xmlns="http://www.w3.org/2000/svg" xmlns:xlink="http://www.w3.org/1999/xlink" viewBox="0 0 28.2461 27.9043">
 <g>
  
  <path d="M13.9453 27.8906C21.6426 27.8906 27.8906 21.6426 27.8906 13.9453C27.8906 6.24805 21.6426 0 13.9453 0C6.24805 0 0 6.24805 0 13.9453C0 21.6426 6.24805 27.8906 13.9453 27.8906ZM13.9453 25.5664C7.51953 25.5664 2.32422 20.3711 2.32422 13.9453C2.32422 7.51953 7.51953 2.32422 13.9453 2.32422C20.3711 2.32422 25.5664 7.51953 25.5664 13.9453C25.5664 20.3711 20.3711 25.5664 13.9453 25.5664Z" style="fill:var(--color-0,hsl(0 0 0/0.85))"></path>
  <path d="M17.5273 9.39258C18.457 9.39258 19.168 8.6543 19.168 7.73828C19.168 6.80859 18.457 6.09766 17.5273 6.09766C16.6113 6.09766 15.873 6.80859 15.873 7.73828C15.873 8.6543 16.6113 9.39258 17.5273 9.39258ZM12.4004 22.8457C12.8242 22.8457 13.1934 22.5039 13.1934 22.0801L13.1934 14.9844C14.9023 14.7109 16.3926 13.5762 17.1172 12.0176C17.1855 11.8672 17.3496 11.7852 17.6504 11.8809L21.4785 13.166C21.998 13.3438 22.3672 13.043 22.4902 12.6875C22.5996 12.3184 22.4629 11.8398 21.9707 11.6895L10.541 7.86133C9.99414 7.69727 9.63867 7.98438 9.5293 8.35352C9.40625 8.72266 9.54297 9.1875 10.0352 9.35156L14.1504 10.7324C14.3418 10.8008 14.4238 11.0195 14.3008 11.2109C13.877 11.9082 13.2207 12.3184 12.4004 12.3184L8.50391 12.3184L8.50391 8.4082C8.50391 7.94336 8.18945 7.62891 7.71094 7.62891C7.24609 7.62891 6.93164 7.94336 6.93164 8.4082L6.93164 13.0293C6.93164 13.5488 7.19141 13.7949 7.58789 13.8496L11.0469 14.4238L11.6211 17.8418L11.6211 22.0801C11.6211 22.5039 11.9629 22.8457 12.4004 22.8457Z" style="fill:var(--color-1,hsl(0 0 0/0.85))"></path>
 </g>
</svg>