<?xml version="1.0" encoding="UTF-8"?>
<!--Generator: Apple Native CoreSVG 326-->
<!DOCTYPE svg
PUBLIC "-//W3C//DTD SVG 1.1//EN"
       "http://www.w3.org/Graphics/SVG/1.1/DTD/svg11.dtd">
<svg version="1.1" xmlns="http://www.w3.org/2000/svg" xmlns:xlink="http://www.w3.org/1999/xlink" viewBox="0 0 41.8056 27.5488">
 <g>
  <rect height="27.5488" opacity="0" width="41.8056" x="0" y="0"/>
  <path d="M20.2534 8.75L20.2534 12.0586C20.2534 13.0156 20.9643 13.7266 21.9077 13.7266L24.5327 13.7266C25.4761 13.7266 26.187 13.0156 26.187 12.0586L26.187 8.75C26.187 7.79297 25.4761 7.08203 24.5327 7.08203L21.9077 7.08203C20.9643 7.08203 20.2534 7.79297 20.2534 8.75ZM27.8823 8.75L27.8823 12.0586C27.8823 13.0156 28.5933 13.7266 29.5503 13.7266L32.1616 13.7266C33.1186 13.7266 33.8022 13.0156 33.8022 12.0586L33.8022 8.75C33.8022 7.79297 33.1186 7.08203 32.1616 7.08203L29.5503 7.08203C28.5933 7.08203 27.8823 7.79297 27.8823 8.75ZM35.4975 8.75L35.4975 12.0586C35.4975 13.0156 36.2085 13.7266 37.1655 13.7266L39.7768 13.7266C40.7339 13.7266 41.4448 13.0156 41.4448 12.0586L41.4448 8.75C41.4448 7.79297 40.7339 7.08203 39.7768 7.08203L37.1655 7.08203C36.2085 7.08203 35.4975 7.79297 35.4975 8.75ZM20.2534 18.4707L20.2534 21.793C20.2534 22.75 20.9643 23.4609 21.9077 23.4609L24.5327 23.4609C25.4761 23.4609 26.187 22.75 26.187 21.793L26.187 18.4707C26.187 17.5137 25.4761 16.8164 24.5327 16.8164L21.9077 16.8164C20.9643 16.8164 20.2534 17.5137 20.2534 18.4707ZM27.8823 18.4707L27.8823 21.793C27.8823 22.75 28.5933 23.4609 29.5503 23.4609L32.1616 23.4609C33.1186 23.4609 33.8022 22.75 33.8022 21.793L33.8022 18.4707C33.8022 17.5137 33.1186 16.8164 32.1616 16.8164L29.5503 16.8164C28.5933 16.8164 27.8823 17.5137 27.8823 18.4707ZM35.4975 18.4707L35.4975 21.793C35.4975 22.75 36.2085 23.4609 37.1655 23.4609L39.7768 23.4609C40.7339 23.4609 41.4448 22.75 41.4448 21.793L41.4448 18.4707C41.4448 17.5137 40.7339 16.8164 39.7768 16.8164L37.1655 16.8164C36.2085 16.8164 35.4975 17.5137 35.4975 18.4707ZM23.1929 11.8262C22.4136 11.8262 21.7573 11.1836 21.7573 10.3906C21.7573 9.625 22.4136 8.99609 23.1929 8.99609C23.9585 8.99609 24.6011 9.625 24.6011 10.3906C24.6011 11.1836 23.9585 11.8262 23.1929 11.8262ZM30.8081 11.8262C30.0288 11.8262 29.3725 11.1836 29.3725 10.3906C29.3725 9.625 30.0288 8.99609 30.8081 8.99609C31.5737 8.99609 32.23 9.625 32.23 10.3906C32.23 11.1836 31.5737 11.8262 30.8081 11.8262ZM38.437 11.8262C37.6577 11.8262 36.9878 11.1836 36.9878 10.3906C36.9878 9.625 37.6577 8.99609 38.437 8.99609C39.189 8.99609 39.8452 9.625 39.8452 10.3906C39.8452 11.1836 39.189 11.8262 38.437 11.8262ZM23.1929 21.5469C22.4136 21.5469 21.7573 20.9043 21.7573 20.1113C21.7573 19.3457 22.4136 18.7031 23.1929 18.7031C23.9585 18.7031 24.6011 19.3457 24.6011 20.1113C24.6011 20.9043 23.9585 21.5469 23.1929 21.5469ZM30.8081 21.5469C30.0288 21.5469 29.3725 20.9043 29.3725 20.1113C29.3725 19.3457 30.0288 18.7031 30.8081 18.7031C31.5737 18.7031 32.23 19.3457 32.23 20.1113C32.23 20.9043 31.5737 21.5469 30.8081 21.5469ZM38.437 21.5469C37.6577 21.5469 36.9878 20.9043 36.9878 20.1113C36.9878 19.3457 37.6577 18.7031 38.437 18.7031C39.189 18.7031 39.8452 19.3457 39.8452 20.1113C39.8452 20.9043 39.189 21.5469 38.437 21.5469ZM28.1284 5.05859L33.5288 5.05859C33.939 5.05859 34.021 4.62109 33.7065 4.40234L31.2593 2.73438C30.9722 2.55664 30.685 2.55664 30.4116 2.73438L27.9643 4.40234C27.6499 4.62109 27.7183 5.05859 28.1284 5.05859Z" fill="white" fill-opacity="0.85"/>
  <path d="M7.94872 6.09766C9.60302 6.09766 10.9565 4.68945 10.9565 3.0625C10.9565 1.38086 9.60302 0 7.94872 0C6.23974 0 4.91357 1.38086 4.91357 3.0625C4.91357 4.7168 6.23974 6.09766 7.94872 6.09766ZM2.11083 17.4043L10.7925 7.7793C9.93114 7.45117 9.00146 7.31445 7.94872 7.31445C4.02489 7.31445 1.71435 9.20117 1.71435 12.3594C1.71435 13.125 1.74169 14.1367 1.86474 15.1758ZM13.7593 17.4043L14.0054 15.1758C14.1284 14.1367 14.1694 13.125 14.1694 12.3594C14.1694 10.8008 13.6089 9.54297 12.5561 8.69531L5.66552 16.3516C6.43114 16.2285 7.1831 16.1738 7.94872 16.1738C9.86278 16.1738 11.7905 16.4336 13.7593 17.4043ZM4.58544 27.4805C5.37841 27.3711 5.93896 26.7969 5.81591 25.7988L5.26903 20.7539L10.5874 20.7539L10.0542 25.7988C9.95849 26.7969 10.478 27.3711 11.271 27.4805C12.0913 27.5625 12.7202 27.043 12.8296 26.0859L13.5405 19.4277C11.7632 18.4023 9.82177 18.0059 7.94872 18.0059C6.04833 18.0059 4.09325 18.4023 2.34325 19.4277L3.04052 26.0859C3.13622 27.043 3.76513 27.5625 4.58544 27.4805ZM12.5561 8.68164L15.1401 5.79688C15.5776 5.29102 15.5503 4.73047 15.1128 4.375C14.7026 4.00586 14.1694 3.99219 13.6909 4.52539L10.7925 7.7793C11.4214 8.02539 12.0229 8.33984 12.5561 8.68164ZM0.42919 18.416C-0.0766693 18.7715-0.0903412 19.3457 0.155753 19.7148C0.374503 20.1113 0.880362 20.3027 1.39989 19.9883C1.72802 19.7832 2.01513 19.6055 2.34325 19.4277L2.11083 17.4043C1.4956 17.6777 0.948721 17.9922 0.42919 18.416ZM15.4546 18.416C14.9214 17.9922 14.3745 17.6777 13.7593 17.4043L13.5268 19.4277C13.855 19.6055 14.1421 19.7832 14.4565 19.9883C14.9761 20.3027 15.4683 20.125 15.7007 19.7422C15.9468 19.3594 15.9468 18.7852 15.4546 18.416Z" fill="white" fill-opacity="0.85"/>
 </g>
</svg>
