<?xml version="1.0" encoding="UTF-8"?>
<!--Generator: Apple Native CoreSVG 326-->
<!DOCTYPE svg
PUBLIC "-//W3C//DTD SVG 1.1//EN"
       "http://www.w3.org/Graphics/SVG/1.1/DTD/svg11.dtd">
<svg version="1.1" xmlns="http://www.w3.org/2000/svg" xmlns:xlink="http://www.w3.org/1999/xlink" viewBox="0 0 28.2461 27.9043">
 <g>
  <rect height="27.9043" opacity="0" width="28.2461" x="0" y="0"/>
  <path d="M13.9453 27.8906C21.6426 27.8906 27.8906 21.6426 27.8906 13.9453C27.8906 6.24805 21.6426 0 13.9453 0C6.24805 0 0 6.24805 0 13.9453C0 21.6426 6.24805 27.8906 13.9453 27.8906ZM13.9453 25.5664C7.51953 25.5664 2.32422 20.3711 2.32422 13.9453C2.32422 7.51953 7.51953 2.32422 13.9453 2.32422C20.3711 2.32422 25.5664 7.51953 25.5664 13.9453C25.5664 20.3711 20.3711 25.5664 13.9453 25.5664Z" fill="white" fill-opacity="0.85"/>
  <path d="M19.6328 9.78906C20.5215 9.78906 21.2188 9.07812 21.2188 8.20312C21.2188 7.31445 20.5215 6.61719 19.6328 6.61719C18.7578 6.61719 18.0332 7.31445 18.0332 8.20312C18.0332 9.07812 18.7578 9.78906 19.6328 9.78906ZM15.4629 21.2051C18.3613 21.2051 20.6035 18.9766 20.6035 16.0645C20.6035 14.7246 20.0566 13.918 18.8809 13.5078L17.7734 13.1113C17.6094 13.0703 17.5684 12.9883 17.6914 12.8652L18.3887 11.8125C18.9766 10.9648 18.7578 10.2676 17.8828 9.63867L15.2305 7.79297C14.9023 7.58789 14.5469 7.58789 14.2461 7.7793L11.7715 9.43359C10.8145 10.0898 11.7031 11.3203 12.6191 10.7188L14.6562 9.32422L16.0508 10.2949C16.2695 10.4453 16.2969 10.5957 16.1602 10.8008L15.0117 12.4551C14.3418 13.4121 14.875 14.4648 15.9004 14.7109L18.9629 15.4902C19.25 15.5449 19.4141 15.791 19.4141 16.1191C19.4141 18.3066 17.6914 20.0293 15.4629 20.0293C13.2344 20.0293 11.5117 18.3066 11.5117 16.0645C11.5117 15.2578 11.7305 14.5469 12.127 13.959C12.6191 13.207 11.6348 12.5781 11.1016 13.3574C10.623 14.0957 10.3086 15.0117 10.3086 16.0645C10.3086 18.9766 12.5645 21.2051 15.4629 21.2051ZM20.5762 21.2051C21.041 21.2051 21.4238 20.8496 21.4238 20.3848C21.4238 19.9199 21.041 19.5234 20.5762 19.5234C20.0977 19.5234 19.7285 19.9199 19.7285 20.3848C19.7285 20.8496 20.0977 21.2051 20.5762 21.2051ZM5.31836 12.2773L8.58594 12.2773C8.88672 12.2773 9.11914 12.0312 9.11914 11.7305C9.11914 11.4297 8.88672 11.1836 8.58594 11.1836L5.31836 11.1836C5.00391 11.1836 4.79883 11.4434 4.79883 11.7305C4.79883 12.0176 5.00391 12.2773 5.31836 12.2773ZM4.67578 14.8887L8.58594 14.8887C8.88672 14.8887 9.11914 14.6699 9.11914 14.3555C9.11914 14.0547 8.88672 13.8086 8.58594 13.8086L4.67578 13.8086C4.38867 13.8086 4.15625 14.082 4.15625 14.3555C4.15625 14.6699 4.38867 14.8887 4.67578 14.8887ZM6.69922 17.5137L8.58594 17.5137C8.88672 17.5137 9.11914 17.2949 9.11914 16.9668C9.11914 16.666 8.88672 16.4336 8.58594 16.4336L6.69922 16.4336C6.39844 16.4336 6.19336 16.666 6.19336 16.9668C6.19336 17.2949 6.39844 17.5137 6.69922 17.5137Z" fill="white" fill-opacity="0.85"/>
 </g>
</svg>
