<svg version="1.1" xmlns="http://www.w3.org/2000/svg" xmlns:xlink="http://www.w3.org/1999/xlink" viewBox="0 0 33.3594 30.9121">
 <g>
  
  <path d="M16.4746 5.50977C18.0059 5.50977 19.25 4.29297 19.25 2.77539C19.25 1.23047 18.0059 0 16.4746 0C14.957 0 13.7266 1.23047 13.7266 2.77539C13.7266 4.29297 14.957 5.50977 16.4746 5.50977ZM12.168 16.543L16.9941 19.25L13.8906 21.9297C13.207 22.5176 13.2344 23.2559 13.6172 23.707C14.0547 24.1719 14.8066 24.2812 15.4902 23.6934L19.8516 19.9746C20.4531 19.4551 20.3574 18.3887 19.6328 17.9102L14.9023 14.793L15.832 11.5254C15.9688 11.0605 16.502 10.9785 16.7891 11.4023L18.1699 13.4258C18.498 13.918 19.0859 14.0684 19.6328 13.8359L23.6523 12.0449C24.3633 11.7305 24.623 11.1152 24.3086 10.4727C24.0215 9.83008 23.3926 9.63867 22.6816 9.9668L19.5098 11.3613L17.3223 8.33984C16.1738 6.78125 14.7656 6.125 12.4551 6.28906L7.98438 6.61719C7.27344 6.67188 6.80859 7.13672 6.71289 7.86133L6.11133 12.3594C6.01562 13.1523 6.38477 13.6992 7.0957 13.7812C7.80664 13.8359 8.23047 13.4258 8.33984 12.6465L8.90039 8.96875L10.6914 8.83203C11.0742 8.80469 11.4707 9.07812 11.334 9.57031L10.2949 13.1934C9.67969 15.3125 11.0605 15.9277 12.168 16.543ZM3.69141 27.4395C4.16992 27.8633 4.88086 27.918 5.52344 27.2891L9.63867 23.2148C9.98047 22.8867 10.0488 22.8047 10.2539 22.2715L11.9355 17.9238L11.5117 17.6777C10.6641 17.1992 9.9668 16.748 9.46094 16.1055L7.98438 21.3008L3.71875 25.5391C3.04883 26.209 3.17188 27.002 3.69141 27.4395ZM25.1699 15.3262C25.3203 15.6816 25.7852 15.8594 26.1953 15.668L32.5664 12.7012C32.9492 12.5098 33.1133 12.0586 32.9355 11.6621C32.7715 11.3066 32.3203 11.1426 31.9102 11.334L25.5391 14.3008C25.1562 14.4922 24.9785 14.9434 25.1699 15.3262ZM25.8672 26.6191L27.1113 26.5371C27.248 26.5371 27.3164 26.5234 27.4121 26.5371L29.7363 13.2617L28.082 14ZM0.710938 30.8984L27.6172 30.8984C28.4648 30.8984 29.1348 30.2285 29.1348 29.3535C29.1348 28.3555 28.3691 27.7949 27.3164 27.8633L0.710938 29.4492C0.314453 29.4902 0 29.7773 0 30.1875C0 30.584 0.314453 30.8984 0.710938 30.8984Z" style="fill:var(--color-0,hsl(0 0 0/0.85))"></path>
 </g>
</svg>