<?xml version="1.0" encoding="UTF-8"?>
<!--Generator: Apple Native CoreSVG 326-->
<!DOCTYPE svg
PUBLIC "-//W3C//DTD SVG 1.1//EN"
       "http://www.w3.org/Graphics/SVG/1.1/DTD/svg11.dtd">
<svg version="1.1" xmlns="http://www.w3.org/2000/svg" xmlns:xlink="http://www.w3.org/1999/xlink" viewBox="0 0 28.2461 27.9043">
 <g>
  <rect height="27.9043" opacity="0" width="28.2461" x="0" y="0"/>
  <path d="M13.9453 27.8906C21.6426 27.8906 27.8906 21.6426 27.8906 13.9453C27.8906 6.24805 21.6426 0 13.9453 0C6.24805 0 0 6.24805 0 13.9453C0 21.6426 6.24805 27.8906 13.9453 27.8906ZM13.9453 25.5664C7.51953 25.5664 2.32422 20.3711 2.32422 13.9453C2.32422 7.51953 7.51953 2.32422 13.9453 2.32422C20.3711 2.32422 25.5664 7.51953 25.5664 13.9453C25.5664 20.3711 20.3711 25.5664 13.9453 25.5664Z" fill="white" fill-opacity="0.85"/>
  <path d="M13.9316 7.36914C14.834 7.36914 15.5723 6.64453 15.5723 5.72852C15.5723 4.82617 14.834 4.07422 13.9316 4.07422C13.0293 4.07422 12.2773 4.82617 12.2773 5.72852C12.2773 6.64453 13.0293 7.36914 13.9316 7.36914ZM14.916 19.7559C15.2031 19.8379 15.6953 19.7422 15.8457 19.25L16.9395 15.627C17.0625 15.2168 16.8848 14.8203 16.4609 14.6836L13.4941 13.6582L13.8633 11.1289C13.877 10.9785 14.082 10.9512 14.1367 11.0879L14.793 12.3184C14.9297 12.5918 15.1758 12.7285 15.4492 12.7285L18.4844 12.7285C18.9082 12.7285 19.25 12.4004 19.25 11.9766C19.25 11.5664 18.9082 11.2246 18.4844 11.2246L15.9277 11.2246L14.9434 9.25586C14.6152 8.62695 14.0547 8.18945 13.3438 8.05273L12.9199 7.9707C12.1543 7.82031 11.5254 7.98438 11.0332 8.28516L8.58594 9.81641C8.36719 9.95312 8.23047 10.1992 8.23047 10.459L8.23047 13.4941C8.23047 13.918 8.58594 14.2598 8.99609 14.2598C9.41992 14.2598 9.74805 13.918 9.74805 13.4941L9.74805 10.8828L10.8145 10.2129C10.8965 10.1582 11.0195 10.2129 11.0059 10.3359L10.6504 13.125C10.5137 14.2051 10.8691 14.9434 12.0996 15.2168L15.2578 15.9688L14.3965 18.8262C14.2871 19.2227 14.4375 19.6328 14.916 19.7559ZM9.33789 22.4902C9.61133 22.668 10.1035 22.668 10.377 22.2715L12.6055 18.9355C12.7148 18.7852 12.7695 18.6621 12.7969 18.4707L13.1113 16.2559L11.9355 15.9688C11.7578 15.9277 11.5938 15.873 11.4434 15.8184L11.2793 18.1973L9.11914 21.4512C8.88672 21.793 8.98242 22.2715 9.33789 22.4902ZM12.332 23.7207L14.7656 23.7207C15.0391 23.7207 15.2441 23.502 15.2441 23.2422L15.2441 21.8477L17.2129 21.8477C17.4453 21.8477 17.6641 21.6289 17.6641 21.3828L17.6641 19.9609L19.6465 19.9609C19.9336 19.9609 20.1113 19.7422 20.1113 19.4961L20.1113 18.0742L21.998 18.0742C22.2578 18.0742 22.4766 17.8555 22.4766 17.6094C22.4766 17.3633 22.2715 17.1445 21.998 17.1445L19.6465 17.1445C19.3867 17.1445 19.1953 17.3633 19.1953 17.6094L19.1953 19.0312L17.2129 19.0312C16.9395 19.0312 16.748 19.25 16.748 19.4961L16.748 20.918L14.7656 20.918C14.5332 20.918 14.3008 21.123 14.3008 21.3828L14.3008 22.791L12.332 22.791C12.0723 22.791 11.8672 23.0098 11.8672 23.2422C11.8672 23.502 12.0723 23.7207 12.332 23.7207Z" fill="white" fill-opacity="0.85"/>
 </g>
</svg>
