<svg version="1.1" xmlns="http://www.w3.org/2000/svg" xmlns:xlink="http://www.w3.org/1999/xlink" viewBox="0 0 26.5681 27.7402">
 <g>
  
  <path d="M22.5331 7.42383C24.5838 7.42383 26.2108 5.71484 26.2108 3.73242C26.2108 1.66797 24.5838 0 22.5331 0C20.4686 0 18.8143 1.66797 18.8143 3.73242C18.8143 5.76953 20.4686 7.42383 22.5331 7.42383ZM0.507672 26.9883C1.20494 27.7266 2.42173 27.6719 3.29673 26.7695L9.17564 20.6992C9.36705 20.4941 9.51744 20.4395 9.81822 20.5625L14.412 22.2988C17.3651 23.4336 20.1405 22.4629 21.4393 20.1113L24.3924 14.7383C25.5409 12.6465 25.1717 10.4863 23.1756 9.41992C21.2479 8.36719 19.2518 9.16016 18.076 11.3066L14.2479 18.293L10.9803 17.1035C9.36705 16.5156 8.0272 16.707 6.74205 18.0469L0.630719 24.3633C-0.230609 25.2383-0.148578 26.332 0.507672 26.9883Z" style="fill:var(--color-0,hsl(0 0 0/0.85))"></path>
 </g>
</svg>