<?xml version="1.0" encoding="UTF-8"?>
<!--Generator: Apple Native CoreSVG 326-->
<!DOCTYPE svg
PUBLIC "-//W3C//DTD SVG 1.1//EN"
       "http://www.w3.org/Graphics/SVG/1.1/DTD/svg11.dtd">
<svg version="1.1" xmlns="http://www.w3.org/2000/svg" xmlns:xlink="http://www.w3.org/1999/xlink" viewBox="0 0 21.9789 32.0879">
 <g>
  <rect height="32.0879" opacity="0" width="21.9789" x="0" y="0"/>
  <path d="M18.4406 5.97461C20.0812 5.97461 21.4211 4.63477 21.4211 2.9668C21.4211 1.32617 20.0812 0 18.4406 0C16.7727 0 15.4328 1.32617 15.4328 2.9668C15.4328 4.63477 16.7727 5.97461 18.4406 5.97461ZM11.591 27.084C12.3703 27.084 13.0266 26.4414 13.0266 25.6758L13.0266 18.5117C13.0266 18.1699 12.9035 17.8691 12.6984 17.623L9.4582 13.6445C9.25312 13.3848 9.32148 13.1113 9.56757 12.9746L13.5187 10.9238C13.8059 10.7734 14.093 10.8828 14.1477 11.2246L14.4894 13.6445C14.5578 14.1777 14.8586 14.5469 15.4328 14.8203L19.3156 16.7754C20.382 17.3086 21.216 16.8711 21.4758 16.2012C21.7355 15.5723 21.5305 14.752 20.6691 14.3145L17.1828 12.5371L16.6223 8.4082C16.3215 6.20703 13.8879 4.85352 11.5637 6.07031L6.43671 8.75C4.07148 9.98047 3.75703 12.6738 5.50703 14.4375L10.2102 19.1133L10.2102 25.6758C10.2102 26.4414 10.8391 27.084 11.591 27.084ZM0.639838 18.2383C1.17304 19.1953 2.17109 19.4824 3.15546 19.2637L6.10859 18.6074C6.51874 18.5254 6.77851 18.2246 6.77851 17.7871C6.77851 17.3633 6.47773 17.0625 6.08124 16.9941L1.03632 16.1191C0.188666 15.9688-0.248834 16.6523 0.14765 17.3496ZM3.03242 18.375L6.72382 29.3398L8.22773 28.8203L4.57734 17.9102ZM11.55 32.0195C14.5988 32.0195 16.9641 29.6133 16.9641 26.6191C16.9641 24.5547 15.8156 22.7773 14.1203 21.8613L14.1203 23.9121C14.8449 24.582 15.2687 25.5527 15.2687 26.6191C15.2687 28.6699 13.6144 30.3242 11.55 30.3242C9.5539 30.3242 7.85859 28.6289 7.85859 26.6191C7.85859 25.5391 8.3371 24.541 9.08906 23.8574L9.08906 21.834C7.3664 22.709 6.16328 24.5273 6.16328 26.6191C6.16328 29.6133 8.59687 32.0195 11.55 32.0195ZM14.8586 28.9707L16.3898 29.4902L19.8488 19.0176C19.9855 18.6074 19.7668 18.1426 19.3703 18.0195C18.9191 17.8828 18.5227 18.1152 18.3723 18.5254ZM4.04413 30.8574C3.48359 31.2266 3.64765 32.0605 4.3039 32.0605L18.8098 32.0605C19.4523 32.0605 19.6164 31.1992 19.0832 30.8574L15.8703 28.752L12.9719 30.7617L10.1555 30.7617L7.22968 28.752Z" fill="white" fill-opacity="0.85"/>
 </g>
</svg>
