<svg version="1.1" xmlns="http://www.w3.org/2000/svg" xmlns:xlink="http://www.w3.org/1999/xlink" viewBox="0 0 33.8105 30.584">
 <g>
  
  <path d="M16.6523 5.97461C18.2793 5.97461 19.6328 4.62109 19.6328 2.98047C19.6328 1.35352 18.2793 0 16.6523 0C15.0117 0 13.6582 1.35352 13.6582 2.98047C13.6582 4.62109 15.0117 5.97461 16.6523 5.97461ZM12.2637 23.748C12.8105 24.2949 13.6719 24.2949 14.2188 23.748L19.8516 18.1152C20.6309 17.3496 20.125 15.9141 18.9629 15.8047L12.6328 15.1211C12.0996 15.0664 12.0312 14.7383 12.2637 14.3965L14.5059 11.0059C14.7383 10.6777 15.1621 10.5957 15.4766 10.8145L19.4688 13.4531C19.6738 13.5898 19.9336 13.6992 20.2207 13.6992L26.4961 13.6992C27.248 13.6992 27.877 13.0703 27.877 12.3184C27.877 11.5391 27.248 10.9102 26.4961 10.9102L20.6172 10.9102L8.43555 2.78906C8.2168 2.63867 7.95703 2.54297 7.66992 2.54297L1.38086 2.54297C0.628906 2.54297 0 3.18555 0 3.95117C0 4.70312 0.628906 5.33203 1.38086 5.33203L7.25977 5.33203L9.50195 6.82227C9.83008 7.04102 9.92578 7.46484 9.69336 7.79297L6.45312 12.6602C4.94922 14.916 6.26172 17.9238 9.16016 18.0879L15.627 18.4297L12.2637 21.793C11.7031 22.3398 11.7031 23.2012 12.2637 23.748ZM7.05469 18.8535L7.05469 23.543L3.18555 28.0137C2.69336 28.6016 2.74805 29.5176 3.34961 30.0234C4.0332 30.5703 4.88086 30.3789 5.33203 29.8594L9.50195 24.9785C9.73438 24.7051 9.80273 24.4043 9.84375 24.1172L10.623 19.4688L9.10547 19.4004C8.33984 19.3594 7.64258 19.168 7.05469 18.8535ZM26.4961 8.47656C26.4961 9.43359 28.0684 10.2129 29.9824 10.2129C31.8965 10.2129 33.4551 9.43359 33.4551 8.47656C33.4551 7.51953 31.8965 6.72656 29.9824 6.72656C28.0684 6.72656 26.4961 7.51953 26.4961 8.47656Z" style="fill:var(--color-0,hsl(0 0 0/0.85))"></path>
 </g>
</svg>