<svg version="1.1" xmlns="http://www.w3.org/2000/svg" xmlns:xlink="http://www.w3.org/1999/xlink" viewBox="0 0 28.2461 27.9043">
 <g>
  
  <path d="M13.9453 27.8906C21.6426 27.8906 27.8906 21.6426 27.8906 13.9453C27.8906 6.24805 21.6426 0 13.9453 0C6.24805 0 0 6.24805 0 13.9453C0 21.6426 6.24805 27.8906 13.9453 27.8906ZM13.9453 25.5664C7.51953 25.5664 2.32422 20.3711 2.32422 13.9453C2.32422 7.51953 7.51953 2.32422 13.9453 2.32422C20.3711 2.32422 25.5664 7.51953 25.5664 13.9453C25.5664 20.3711 20.3711 25.5664 13.9453 25.5664Z" style="fill:var(--color-0,hsl(0 0 0/0.85))"></path>
  <path d="M16.0781 7.92969C16.9121 7.92969 17.5957 7.25977 17.5957 6.41211C17.5957 5.57812 16.9121 4.89453 16.0781 4.89453C15.2305 4.89453 14.5469 5.57812 14.5469 6.41211C14.5469 7.25977 15.2305 7.92969 16.0781 7.92969ZM9.0918 13.002C9.51562 13.1934 9.91211 13.002 10.0762 12.6738L11.3477 10.1309L12.8789 10.1309C13.0293 10.1309 13.125 10.2812 13.0566 10.4316L11.7168 13.084C11.2109 14.0684 11.8398 15.3125 13.125 15.2305L16.7344 14.998L15.3945 17.9648C15.2305 18.334 15.3945 18.7988 15.7637 18.9355C16.1738 19.0859 16.5566 18.9629 16.7344 18.5527L18.5938 14.5059C18.7852 14.0547 18.498 13.4531 17.9238 13.4531L14.6699 13.4531L16.1055 10.5547C16.1738 10.4316 16.3242 10.3906 16.4199 10.5L18.1426 12.127C18.498 12.4688 19.0859 12.4141 19.3184 11.9355L20.7812 8.98242C20.9727 8.61328 20.8633 8.16211 20.4668 7.98438C20.1113 7.80664 19.6738 7.95703 19.4824 8.32617L18.4434 10.3633L17.6094 9.51562C17.0352 8.95508 16.4473 8.6543 15.5176 8.6543L10.8965 8.6543C10.6094 8.6543 10.3633 8.81836 10.2402 9.06445L8.75 12.0176C8.57227 12.4004 8.70898 12.8242 9.0918 13.002ZM7.0957 20.166C7.32812 20.6445 7.82031 20.6582 8.06641 20.5488L11.7578 18.9492C11.8945 18.8672 12.0312 18.7578 12.1133 18.5938L13.4668 15.8594L13.1797 15.873C12.5781 15.9141 12.0859 15.7363 11.7031 15.4492L10.8555 17.7188L7.46484 19.168C7.0957 19.332 6.9043 19.7695 7.0957 20.166ZM19.25 20.8496C20.1113 20.8496 20.7812 20.1797 20.7812 19.3184C20.7812 18.4844 20.1113 17.8008 19.25 17.8008C18.416 17.8008 17.7461 18.4844 17.7461 19.3184C17.7461 20.1797 18.416 20.8496 19.25 20.8496ZM8.39453 5.40039C8.39453 5.61914 8.57227 5.7832 8.79102 5.7832C9.40625 5.7832 9.80273 5.90625 10.1992 6.34375C10.3496 6.50781 10.5 6.57617 10.6504 6.57617C10.8008 6.57617 10.9512 6.50781 11.1016 6.34375C11.5117 5.90625 11.9082 5.7832 12.5234 5.7832C12.7422 5.7832 12.9062 5.61914 12.9062 5.40039C12.9062 5.19531 12.7422 5.03125 12.5234 5.03125C11.7441 5.03125 11.2246 5.20898 10.6504 5.74219C10.0762 5.20898 9.57031 5.03125 8.79102 5.03125C8.57227 5.03125 8.39453 5.19531 8.39453 5.40039ZM8.18945 22.6953C8.42188 22.6953 8.59961 22.5176 8.59961 22.2852C8.59961 22.0664 8.42188 21.875 8.18945 21.875C7.95703 21.875 7.7793 22.0664 7.7793 22.2852C7.7793 22.5176 7.95703 22.6953 8.18945 22.6953ZM9.46094 22.6953C9.69336 22.6953 9.87109 22.5176 9.87109 22.2852C9.87109 22.0664 9.69336 21.875 9.46094 21.875C9.22852 21.875 9.05078 22.0664 9.05078 22.2852C9.05078 22.5176 9.22852 22.6953 9.46094 22.6953ZM10.7324 22.6953C10.9648 22.6953 11.1426 22.5176 11.1426 22.2852C11.1426 22.0664 10.9648 21.875 10.7324 21.875C10.5137 21.875 10.3223 22.0664 10.3223 22.2852C10.3223 22.5176 10.5137 22.6953 10.7324 22.6953ZM12.0176 22.6953C12.2363 22.6953 12.4141 22.5176 12.4141 22.2852C12.4141 22.0664 12.2363 21.875 12.0176 21.875C11.7852 21.875 11.6074 22.0664 11.6074 22.2852C11.6074 22.5176 11.7852 22.6953 12.0176 22.6953ZM13.2891 22.6953C13.5078 22.6953 13.6992 22.5176 13.6992 22.2852C13.6992 22.0664 13.5078 21.875 13.2891 21.875C13.0566 21.875 12.8789 22.0664 12.8789 22.2852C12.8789 22.5176 13.0566 22.6953 13.2891 22.6953ZM14.5605 22.6953C14.793 22.6953 14.9707 22.5176 14.9707 22.2852C14.9707 22.0664 14.793 21.875 14.5605 21.875C14.3281 21.875 14.1504 22.0664 14.1504 22.2852C14.1504 22.5176 14.3281 22.6953 14.5605 22.6953ZM15.832 22.6953C16.0645 22.6953 16.2422 22.5176 16.2422 22.2852C16.2422 22.0664 16.0645 21.875 15.832 21.875C15.5996 21.875 15.4219 22.0664 15.4219 22.2852C15.4219 22.5176 15.5996 22.6953 15.832 22.6953ZM17.1035 22.6953C17.3359 22.6953 17.5137 22.5176 17.5137 22.2852C17.5137 22.0664 17.3359 21.875 17.1035 21.875C16.8711 21.875 16.6934 22.0664 16.6934 22.2852C16.6934 22.5176 16.8711 22.6953 17.1035 22.6953ZM18.375 22.6953C18.6074 22.6953 18.7852 22.5176 18.7852 22.2852C18.7852 22.0664 18.6074 21.875 18.375 21.875C18.1562 21.875 17.9648 22.0664 17.9648 22.2852C17.9648 22.5176 18.1562 22.6953 18.375 22.6953ZM19.6602 22.6953C19.8789 22.6953 20.0703 22.5176 20.0703 22.2852C20.0703 22.0664 19.8789 21.875 19.6602 21.875C19.4277 21.875 19.25 22.0664 19.25 22.2852C19.25 22.5176 19.4277 22.6953 19.6602 22.6953Z" style="fill:var(--color-1,hsl(0 0 0/0.85))"></path>
 </g>
</svg>