<svg version="1.1" xmlns="http://www.w3.org/2000/svg" xmlns:xlink="http://www.w3.org/1999/xlink" viewBox="0 0 41.4542 32.1699">
 <g>
  
  <path d="M37.024 10.3633L40.5513 15.5723C40.7017 15.7773 40.8384 15.9824 40.9615 16.1875C41.2486 16.707 41.0845 17.459 40.3872 17.8281C39.8404 18.1289 39.1978 18.0469 38.7876 17.582C38.4185 17.1445 36.5454 14.4648 35.5064 13.0293C35.3833 12.8379 35.1372 12.9199 35.1372 13.1387C35.1372 14.5742 35.1919 17.6094 35.4243 19.1133C35.6978 20.8223 37.6802 29.1074 37.7896 29.4766C38.0357 30.3379 37.5025 31.1309 36.6275 31.1309C35.9849 31.1309 35.5474 30.7754 35.315 29.9277C34.8501 28.2461 33.4556 22.5176 33.0044 21.1367C32.69 20.1523 32.4576 19.7695 31.9107 19.7695C31.3501 19.7695 31.1177 20.1523 30.8169 21.1367C30.3521 22.5176 28.9576 28.2461 28.5064 29.9277C28.2603 30.7754 27.8365 31.1309 27.1939 31.1309C26.3189 31.1309 25.772 30.3379 26.0318 29.4766C26.1275 29.1074 28.1099 20.8223 28.3833 19.1133C28.6158 17.6094 28.6841 14.5879 28.6841 13.1523C28.6841 12.9199 28.4243 12.8516 28.3013 13.0293C27.876 13.6225 27.311 14.4195 26.7669 15.1836C26.6759 14.8039 26.4811 14.4428 26.1958 14.1367C25.7916 13.692 25.2412 13.4698 24.6936 13.458L26.7974 10.3633C27.9185 8.70898 29.313 7.9707 31.9107 7.9707C34.5083 7.9707 35.8892 8.70898 37.024 10.3633ZM34.8638 3.5957C34.8638 5.23633 33.5513 6.53516 31.9107 6.53516C30.2701 6.53516 28.9576 5.23633 28.9576 3.5957C28.9576 1.95508 30.2701 0.642578 31.9107 0.642578C33.5513 0.642578 34.8638 1.95508 34.8638 3.5957Z" style="fill:var(--color-0,hsl(0 0 0/0.85))"></path>
  <path d="M14.3013 10.3633L16.4048 13.4576C15.8516 13.468 15.2951 13.6902 14.8892 14.1367C14.6102 14.4416 14.4171 14.803 14.325 15.1835C13.7816 14.4169 13.2182 13.6184 12.7974 13.0293C12.6607 12.8379 12.4146 12.9199 12.4146 13.1387C12.4146 14.5742 12.4693 17.6094 12.7017 19.1133C12.9888 20.8223 14.9712 29.1074 15.0669 29.4766C15.313 30.3379 14.7798 31.1309 13.9048 31.1309C13.2622 31.1309 12.8247 30.7754 12.5923 29.9277C12.1275 28.2461 10.7466 22.5176 10.2818 21.1367C9.96732 20.1523 9.74857 19.7695 9.18802 19.7695C8.62747 19.7695 8.40872 20.1523 8.09427 21.1367C7.62943 22.5176 6.24857 28.2461 5.78372 29.9277C5.5513 30.7754 5.1138 31.1309 4.47122 31.1309C3.59622 31.1309 3.06302 30.3379 3.30912 29.4766C3.40482 29.1074 5.38724 20.8223 5.66068 19.1133C5.8931 17.6094 5.96146 14.5879 5.96146 13.1523C5.96146 12.9199 5.70169 12.8516 5.57865 13.0293C4.55326 14.4785 2.66654 17.1445 2.2974 17.582C1.90091 18.0469 1.24466 18.1289 0.711459 17.8281C0.000521687 17.459-0.149869 16.707 0.13724 16.1875C0.246615 15.9824 0.397006 15.7773 0.533725 15.5723L4.07474 10.3633C5.19583 8.70898 6.59037 7.9707 9.18802 7.9707C11.7857 7.9707 13.1802 8.70898 14.3013 10.3633ZM12.1411 3.5957C12.1411 5.23633 10.8286 6.53516 9.18802 6.53516C7.5474 6.53516 6.2349 5.23633 6.2349 3.5957C6.2349 1.95508 7.5474 0.642578 9.18802 0.642578C10.8286 0.642578 12.1411 1.95508 12.1411 3.5957Z" style="fill:var(--color-1,hsl(0 0 0/0.85))"></path>
  <path d="M20.5493 15.9824C21.7525 15.9824 22.7505 14.998 22.7505 13.7949C22.7505 12.5918 21.7525 11.6074 20.5493 11.6074C19.3462 11.6074 18.3618 12.5918 18.3618 13.7949C18.3618 14.998 19.3462 15.9824 20.5493 15.9824ZM17.6372 31.1309C18.1704 31.1309 18.5943 30.8301 18.772 30.1465C19.0591 29.1211 19.8931 25.5938 20.1665 24.7324C20.3579 24.1719 20.399 24.1309 20.5493 24.1309C20.6997 24.1309 20.7271 24.1719 20.9185 24.7324C21.1919 25.5938 22.0259 29.1211 22.3267 30.1465C22.4908 30.8301 22.9283 31.1309 23.4478 31.1309C24.2271 31.1309 24.6783 30.4062 24.4868 29.6953C24.4185 29.4629 23.229 24.3906 23.0376 23.3242C22.9009 22.4766 22.8599 20.7676 22.8599 20.084C22.8599 19.6875 22.9966 19.4277 23.2154 19.1543C24.1997 17.9238 25.4439 16.5156 25.5943 16.2832C25.9224 15.8047 25.7993 15.2441 25.4302 14.8613C25.0064 14.3828 24.2954 14.3965 23.9263 14.7793L22.4771 16.3242C21.8755 16.9668 21.3697 17.2676 20.5493 17.2676C19.729 17.2676 19.2232 16.9668 18.6216 16.3242L17.1724 14.7793C16.8033 14.3965 16.0786 14.3828 15.6685 14.8613C15.2857 15.2441 15.1763 15.8047 15.4908 16.2832C15.6411 16.5156 16.899 17.9238 17.8833 19.1543C18.1021 19.4277 18.2251 19.6875 18.2251 20.084C18.2251 20.7676 18.1978 22.4766 18.0611 23.3242C17.8697 24.3906 16.6802 29.4629 16.5982 29.6953C16.4204 30.4062 16.8716 31.1309 17.6372 31.1309Z" style="fill:var(--color-2,hsl(0 0 0/0.85))"></path>
 </g>
</svg>