<svg version="1.1" xmlns="http://www.w3.org/2000/svg" xmlns:xlink="http://www.w3.org/1999/xlink" viewBox="0 0 36.8786 32.8262">
 <g>
  
  <path d="M30.6893 7.91602C32.1795 7.91602 33.3826 6.69922 33.3826 5.20898C33.3826 3.70508 32.1795 2.51562 30.6893 2.51562C29.1854 2.51562 27.9823 3.70508 27.9823 5.20898C27.9823 6.69922 29.1854 7.91602 30.6893 7.91602ZM29.0623 30.1191C29.7323 30.1191 30.2655 29.5859 30.2655 28.916L30.2655 20.1113C30.2655 19.8926 30.4569 19.7012 30.6893 19.7012C30.908 19.7012 31.0994 19.8926 31.0994 20.1113L31.0994 28.916C31.0994 29.5859 31.6326 30.1191 32.3162 30.1191C32.9862 30.1191 33.5194 29.5859 33.5194 28.916L33.5194 14.4512C33.5194 14.2188 33.6971 14.0547 33.9158 14.0547C34.1346 14.0547 34.3123 14.2188 34.3123 14.4512L34.3123 19.2227C34.3123 19.8516 34.8045 20.3438 35.4334 20.3438C36.035 20.3438 36.5272 19.8516 36.5272 19.2227L36.5272 13.8906C36.5272 11.1562 34.5174 9.33789 31.578 9.33789L29.7869 9.33789C26.8475 9.33789 24.8377 11.1562 24.8377 13.8906L24.8377 19.2227C24.8377 19.8516 25.3299 20.3438 25.9451 20.3438C26.5467 20.3438 27.0389 19.8516 27.0389 19.2227L27.0389 14.4512C27.0389 14.2188 27.2166 14.0547 27.4354 14.0547C27.6678 14.0547 27.8455 14.2188 27.8455 14.4512L27.8455 28.916C27.8455 29.5859 28.3924 30.1191 29.0623 30.1191Z" style="fill:var(--color-0,hsl(0 0 0/0.85))"></path>
  <path d="M19.41 32.8125C20.0252 32.8125 20.5037 32.3613 20.5037 31.7461L20.5037 1.06641C20.5037 0.451172 20.0252 0 19.41 0C18.7948 0 18.3162 0.451172 18.3162 1.06641L18.3162 31.7461C18.3162 32.3613 18.7948 32.8125 19.41 32.8125Z" style="fill:var(--color-1,hsl(0 0 0/0.85))"></path>
  <path d="M7.40608 7.91602C8.90999 7.91602 10.0994 6.69922 10.0994 5.20898C10.0994 3.70508 8.90999 2.51562 7.40608 2.51562C5.91585 2.51562 4.71272 3.70508 4.71272 5.20898C4.71272 6.69922 5.91585 7.91602 7.40608 7.91602ZM5.7928 30.1191C6.46272 30.1191 6.98226 29.5859 6.98226 28.916L6.98226 23.5703C6.98226 23.3379 7.18733 23.1602 7.40608 23.1602C7.62483 23.1602 7.81624 23.3379 7.81624 23.5703L7.81624 28.916C7.81624 29.5859 8.34944 30.1191 9.01936 30.1191C9.68929 30.1191 10.2362 29.5859 10.2362 28.916L10.2362 23.5703L11.9041 23.5703C12.5741 23.5703 12.8748 22.9961 12.6561 22.3398L10.1678 14.6152C9.9764 14.0273 10.7557 13.7949 10.9608 14.3965L12.5194 19.1133C13.0252 20.6445 15.2537 20.043 14.7342 18.4844L13.2987 14.1367C12.3006 11.1289 11.3436 9.32422 7.81624 9.32422L6.98226 9.32422C3.45491 9.32422 2.51155 11.1289 1.51351 14.1367L0.0779586 18.4844C-0.441573 20.043 1.78694 20.6445 2.2928 19.1133L3.8514 14.3965C4.05647 13.7949 4.8221 14.0273 4.64436 14.6152L2.14241 22.3398C1.93733 22.9961 2.22444 23.5703 2.90804 23.5703L4.57601 23.5703L4.57601 28.916C4.57601 29.5859 5.10921 30.1191 5.7928 30.1191Z" style="fill:var(--color-2,hsl(0 0 0/0.85))"></path>
 </g>
</svg>