<svg version="1.1" xmlns="http://www.w3.org/2000/svg" xmlns:xlink="http://www.w3.org/1999/xlink" viewBox="0 0 28.2461 27.9043">
 <g>
  
  <path d="M13.9453 27.8906C21.6426 27.8906 27.8906 21.6426 27.8906 13.9453C27.8906 6.24805 21.6426 0 13.9453 0C6.24805 0 0 6.24805 0 13.9453C0 21.6426 6.24805 27.8906 13.9453 27.8906ZM13.9453 25.5664C7.51953 25.5664 2.32422 20.3711 2.32422 13.9453C2.32422 7.51953 7.51953 2.32422 13.9453 2.32422C20.3711 2.32422 25.5664 7.51953 25.5664 13.9453C25.5664 20.3711 20.3711 25.5664 13.9453 25.5664Z" style="fill:var(--color-0,hsl(0 0 0/0.85))"></path>
  <path d="M10.9785 21.5879L13.1934 21.5879C13.5488 21.5879 13.6992 21.3281 13.6172 20.9453L12.8379 17.5137L15.0938 14.7383L21.7656 13.5215L22.2988 14.5195C22.5176 14.9434 23.2832 14.793 23.1875 14.2734L22.832 12.2363C22.7773 11.9219 22.5723 11.7988 22.2988 11.8535L17.7188 12.6602L14.8887 12.5098C14.082 12.373 12.7285 11.7852 12.4414 11.0195C12.3457 10.8145 12.4824 10.623 12.6602 10.5684L16.9258 9.83008C17.459 9.73438 17.6367 9.29688 17.5547 8.91406C17.4863 8.53125 17.1445 8.23047 16.6387 8.3125L4.8125 10.4727C4.30664 10.5547 4.11523 10.9648 4.18359 11.3477C4.26562 11.7305 4.59375 12.0723 5.11328 11.9766L8.58594 11.3477C8.88672 11.293 9.02344 11.416 9.06445 11.5801C9.46094 13.0977 10.9512 14.1641 12.5098 14.7656L11.3887 16.666C11.2109 16.9531 11.1426 17.2402 11.2383 17.6094L11.8535 20.3574L10.8828 20.6719C10.377 20.8359 10.4316 21.5879 10.9785 21.5879ZM9.88477 8.69531C10.8145 8.69531 11.5391 7.95703 11.5391 7.04102C11.5391 6.11133 10.8145 5.38672 9.88477 5.38672C8.96875 5.38672 8.24414 6.11133 8.24414 7.04102C8.24414 7.95703 8.96875 8.69531 9.88477 8.69531ZM10.5684 22.7637L13.5215 22.7637C13.6992 22.7637 13.8496 22.627 13.8496 22.4492C13.8496 22.2578 13.6992 22.1074 13.5215 22.1074L10.5684 22.1074C10.3906 22.1074 10.2402 22.2578 10.2402 22.4492C10.2402 22.627 10.3906 22.7637 10.5684 22.7637ZM24.459 14.6289L23.9531 11.7305C23.9121 11.5527 23.748 11.4297 23.5703 11.4707C23.3652 11.498 23.2559 11.6621 23.2832 11.8535L23.8164 14.7383C23.8438 14.9297 24.0215 15.0527 24.1992 15.0254C24.377 14.998 24.4863 14.8203 24.459 14.6289Z" style="fill:var(--color-1,hsl(0 0 0/0.85))"></path>
 </g>
</svg>