<svg version="1.1" xmlns="http://www.w3.org/2000/svg" xmlns:xlink="http://www.w3.org/1999/xlink" viewBox="0 0 26.0723 35.5332">
 <g>
  
  <path d="M10.3359 5.97461C11.9629 5.97461 13.3164 4.62109 13.3164 2.99414C13.3164 1.35352 11.9629 0 10.3359 0C8.69531 0 7.3418 1.35352 7.3418 2.99414C7.3418 4.62109 8.69531 5.97461 10.3359 5.97461ZM12.0996 28.4102C12.6328 28.5469 13.5352 28.3555 13.7949 27.4805L15.7773 20.9043C15.9824 20.1934 15.668 19.4688 14.916 19.209L9.54297 17.3496L10.2129 12.7695C10.2402 12.4961 10.5957 12.4277 10.7188 12.6875L11.8672 14.916C12.127 15.4219 12.5781 15.668 13.0977 15.668L18.5938 15.668C19.3457 15.668 19.9746 15.0801 19.9746 14.3008C19.9746 13.5625 19.3457 12.9336 18.5938 12.9336L13.9453 12.9336L12.1543 9.39258C11.5801 8.24414 10.5547 7.4375 9.26953 7.19141L8.50391 7.04102C7.0957 6.76758 5.96094 7.06836 5.08594 7.61523L0.642578 10.377C0.259766 10.6367 0 11.0742 0 11.5664L0 17.0488C0 17.8008 0.628906 18.4434 1.38086 18.4434C2.13281 18.4434 2.76172 17.8008 2.76172 17.0488L2.76172 12.3047L4.67578 11.1152C4.85352 11.0195 5.05859 11.1289 5.01758 11.334L4.38867 16.4062C4.14258 18.3477 4.78516 19.6738 7.01367 20.1934L12.7148 21.5332L11.1699 26.7148C10.9648 27.4258 11.2383 28.1641 12.0996 28.4102ZM2.00977 33.3594C2.50195 33.6875 3.39062 33.6875 3.89648 32.9492L7.94336 26.9199C8.13477 26.6328 8.23047 26.4141 8.28516 26.0723L8.85938 22.0391L6.71289 21.5332C6.38477 21.4648 6.09766 21.3555 5.82422 21.2598L5.53711 25.5938L1.62695 31.4453C1.20312 32.0742 1.35352 32.9355 2.00977 33.3594ZM7.45117 35.5059L11.8535 35.5059C12.2773 35.5059 12.6328 35.1504 12.6328 34.7266L12.6328 32.0879L16.2695 32.0879C16.6797 32.0879 17.0215 31.7598 17.0215 31.3223L17.0215 28.6699L20.6855 28.6699C21.1094 28.6699 21.4375 28.3418 21.4375 27.918L21.4375 25.2656L24.9375 25.2656C25.3613 25.2656 25.7168 24.9238 25.7168 24.5C25.7168 24.0898 25.3613 23.7344 24.9375 23.7344L20.6855 23.7344C20.2617 23.7344 19.9336 24.0898 19.9336 24.5L19.9336 27.1523L16.2695 27.1523C15.832 27.1523 15.5176 27.5078 15.5176 27.918L15.5176 30.5703L11.8535 30.5703C11.4434 30.5703 11.1152 30.8984 11.1152 31.3223L11.1152 33.9883L7.45117 33.9883C7.01367 33.9883 6.69922 34.3164 6.69922 34.7266C6.69922 35.1504 7.01367 35.5059 7.45117 35.5059Z" style="fill:var(--color-0,hsl(0 0 0/0.85))"></path>
 </g>
</svg>