<?xml version="1.0" encoding="UTF-8"?>
<!--Generator: Apple Native CoreSVG 326-->
<!DOCTYPE svg
PUBLIC "-//W3C//DTD SVG 1.1//EN"
       "http://www.w3.org/Graphics/SVG/1.1/DTD/svg11.dtd">
<svg version="1.1" xmlns="http://www.w3.org/2000/svg" xmlns:xlink="http://www.w3.org/1999/xlink" viewBox="0 0 28.2461 27.9043">
 <g>
  <rect height="27.9043" opacity="0" width="28.2461" x="0" y="0"/>
  <path d="M13.9453 27.8906C21.6426 27.8906 27.8906 21.6426 27.8906 13.9453C27.8906 6.24805 21.6426 0 13.9453 0C6.24805 0 0 6.24805 0 13.9453C0 21.6426 6.24805 27.8906 13.9453 27.8906ZM13.9453 25.5664C7.51953 25.5664 2.32422 20.3711 2.32422 13.9453C2.32422 7.51953 7.51953 2.32422 13.9453 2.32422C20.3711 2.32422 25.5664 7.51953 25.5664 13.9453C25.5664 20.3711 20.3711 25.5664 13.9453 25.5664Z" fill="white" fill-opacity="0.85"/>
  <path d="M13.8359 8.38086C14.7656 8.38086 15.5039 7.64258 15.5039 6.71289C15.5039 5.79688 14.7656 5.05859 13.8359 5.05859C12.9199 5.05859 12.168 5.79688 12.168 6.71289C12.168 7.64258 12.9199 8.38086 13.8359 8.38086ZM8.73633 20.9863C7.9707 21.9023 9.21484 22.7773 9.84375 22.0391L11.9629 19.5098C12.209 19.2363 12.2773 19.0859 12.4688 18.7305L13.8086 15.832C14.2461 14.8887 14.3281 14.3418 14.3965 13.3574L14.4785 12.1543L15.668 13.2754C15.9414 13.5352 16.1465 13.6172 16.6113 13.6172L18.4297 13.6172C18.9082 13.6172 19.2227 13.3438 19.2227 12.8926C19.2227 12.4688 18.9082 12.1953 18.4297 12.1953L16.4883 12.1953L14.1777 9.66602C13.8223 9.2832 13.3848 9.07812 12.8379 9.07812C12.7148 9.07812 12.6055 9.0918 12.4961 9.11914C12.4961 8.53125 12.0312 8.06641 11.4023 8.06641L10.6094 8.06641C9.73438 8.06641 9.21484 8.59961 9.21484 9.47461L9.21484 13.2891C9.21484 13.8906 9.65234 14.3281 10.2402 14.3281L11.2246 14.3281C11.2246 14.8613 11.3613 15.2168 11.6484 15.668L10.9512 18.375ZM13.5488 18.0879C13.7402 18.3203 13.8086 18.4434 13.8906 18.5938L15.4629 21.793C15.9688 22.8047 17.4453 22.1621 16.9121 21.0957L15.3672 17.9785C15.2441 17.7188 15.0801 17.4453 14.916 17.2266L14.3418 16.4199ZM18.0332 21.916C18.0332 22.1348 18.2109 22.3125 18.4297 22.3125C18.6484 22.3125 18.8262 22.1348 18.8262 21.916L18.8262 14.2734C18.6758 14.3145 18.5391 14.3281 18.4297 14.3281L18.0332 14.3281ZM18.0332 11.4707L18.4297 11.4707C18.5254 11.4707 18.6484 11.4844 18.8262 11.5254L18.8262 10.3496C18.8262 10.1309 18.6484 9.9668 18.4297 9.9668C18.1973 9.9668 18.0332 10.1309 18.0332 10.3496Z" fill="white" fill-opacity="0.85"/>
 </g>
</svg>
