<svg version="1.1" xmlns="http://www.w3.org/2000/svg" xmlns:xlink="http://www.w3.org/1999/xlink" viewBox="0 0 40.1406 27.7949">
 <g>
  
  <path d="M15.3672 15.0664C16.0098 15.0664 16.543 14.5332 16.543 13.8906C16.543 13.248 16.0098 12.7148 15.3672 12.7148C14.7246 12.7148 14.1914 13.248 14.1914 13.8906C14.1914 14.5332 14.7246 15.0664 15.3672 15.0664ZM19.8926 15.0664C20.5352 15.0664 21.0684 14.5332 21.0684 13.8906C21.0684 13.248 20.5352 12.7148 19.8926 12.7148C19.25 12.7148 18.7168 13.248 18.7168 13.8906C18.7168 14.5332 19.25 15.0664 19.8926 15.0664ZM24.4043 15.0664C25.0469 15.0664 25.5801 14.5332 25.5801 13.8906C25.5801 13.248 25.0469 12.7148 24.4043 12.7148C23.7617 12.7148 23.2285 13.248 23.2285 13.8906C23.2285 14.5332 23.7617 15.0664 24.4043 15.0664Z" style="fill:var(--color-0,hsl(0 0 0/0.85))"></path>
  <path d="M0 16.7207C0 17.3223 0.492188 17.8145 1.09375 17.8145C1.70898 17.8145 2.20117 17.3223 2.20117 16.7207L2.20117 11.9355C2.20117 11.7168 2.37891 11.5391 2.59766 11.5391C2.83008 11.5391 3.00781 11.7168 3.00781 11.9355L3.00781 26.4004C3.00781 27.0703 3.54102 27.6035 4.21094 27.6035C4.89453 27.6035 5.42773 27.0703 5.42773 26.4004L5.42773 17.5957C5.42773 17.377 5.61914 17.1855 5.83789 17.1855C6.07031 17.1855 6.26172 17.377 6.26172 17.5957L6.26172 26.4004C6.26172 27.0703 6.79492 27.6035 7.46484 27.6035C8.13477 27.6035 8.68164 27.0703 8.68164 26.4004L8.68164 11.9355C8.68164 11.7168 8.85938 11.5391 9.07812 11.5391C9.29688 11.5391 9.48828 11.7168 9.48828 11.9355L9.48828 16.7207C9.48828 17.3223 9.9668 17.8145 10.582 17.8145C11.1973 17.8145 11.6758 17.3223 11.6758 16.7207L11.6758 11.375C11.6758 8.62695 9.67969 6.82227 6.74023 6.82227L4.94922 6.82227C2.00977 6.82227 0 8.62695 0 11.375ZM5.83789 5.40039C7.3418 5.40039 8.54492 4.19727 8.54492 2.69336C8.54492 1.20312 7.3418 0 5.83789 0C4.34766 0 3.14453 1.20312 3.14453 2.69336C3.14453 4.19727 4.34766 5.40039 5.83789 5.40039ZM28.0957 16.7207C28.0957 17.3223 28.5879 17.8145 29.1895 17.8145C29.8047 17.8145 30.2969 17.3223 30.2969 16.7207L30.2969 11.9355C30.2969 11.7168 30.4746 11.5391 30.707 11.5391C30.9258 11.5391 31.1035 11.7168 31.1035 11.9355L31.1035 26.4004C31.1035 27.0703 31.6367 27.6035 32.3066 27.6035C32.9902 27.6035 33.5234 27.0703 33.5234 26.4004L33.5234 17.5957C33.5234 17.377 33.7148 17.1855 33.9336 17.1855C34.166 17.1855 34.3574 17.377 34.3574 17.5957L34.3574 26.4004C34.3574 27.0703 34.8906 27.6035 35.5605 27.6035C36.2305 27.6035 36.7773 27.0703 36.7773 26.4004L36.7773 11.9355C36.7773 11.7168 36.9551 11.5391 37.1738 11.5391C37.3926 11.5391 37.584 11.7168 37.584 11.9355L37.584 16.7207C37.584 17.3223 38.0625 17.8145 38.6777 17.8145C39.293 17.8145 39.7852 17.3223 39.7852 16.7207L39.7852 11.375C39.7852 8.62695 37.7754 6.82227 34.8359 6.82227L33.0449 6.82227C30.1055 6.82227 28.0957 8.62695 28.0957 11.375ZM33.9336 5.40039C35.4375 5.40039 36.6406 4.19727 36.6406 2.69336C36.6406 1.20312 35.4375 0 33.9336 0C32.4434 0 31.2402 1.20312 31.2402 2.69336C31.2402 4.19727 32.4434 5.40039 33.9336 5.40039Z" style="fill:var(--color-1,hsl(0 0 0/0.85))"></path>
 </g>
</svg>