<svg version="1.1" xmlns="http://www.w3.org/2000/svg" xmlns:xlink="http://www.w3.org/1999/xlink" viewBox="0 0 28.2461 27.9043">
 <g>
  
  <path d="M13.9453 27.8906C21.6426 27.8906 27.8906 21.6289 27.8906 13.9453C27.8906 6.24805 21.6426 0 13.9453 0C6.26172 0 0 6.24805 0 13.9453C0 21.6289 6.26172 27.8906 13.9453 27.8906Z" style="fill:var(--color-0,hsl(0 0 0/0.85))"></path>
  <path d="M16.7891 8.29883C15.832 8.29883 15.0801 7.54688 15.0801 6.60352C15.0801 5.66016 15.832 4.9082 16.7891 4.9082C17.7188 4.9082 18.4707 5.66016 18.4707 6.60352C18.4707 7.54688 17.7188 8.29883 16.7891 8.29883ZM13.9043 22.0117C10.5137 22.0117 8.24414 19.7422 8.24414 16.3242C8.24414 15.2031 8.58594 14.1777 9.13281 13.3301C9.66602 12.5645 10.6504 13.1797 10.1445 13.9316C9.70703 14.6016 9.41992 15.4219 9.41992 16.3242C9.41992 19.0312 11.2246 20.8359 13.918 20.8359C16.5977 20.8359 18.3887 19.0312 18.3887 16.3379C18.3887 15.7363 17.9648 15.3809 17.3633 15.3809L14.4648 15.3809C13.3574 15.3809 12.6602 14.3965 13.0703 13.2344L13.9453 10.7734C14.0547 10.459 13.9453 10.2266 13.6172 10.1445L11.9355 9.70703L9.06445 11.2109C8.66797 11.4297 8.2168 11.3477 7.9707 11.0059C7.72461 10.6504 7.79297 10.1309 8.17578 9.91211L11.3066 8.14844C11.5664 7.98438 11.8125 7.94336 12.1133 8.01172L15.3398 8.83203C16.4336 9.0918 16.9121 10.0078 16.5703 11.0059L15.873 13.1797C15.8047 13.3984 15.9141 13.5215 16.0781 13.5215L17.1445 13.5215C18.7305 13.5215 19.5645 14.5469 19.5645 16.3379C19.5645 19.7422 17.2949 22.0117 13.9043 22.0117ZM19.6055 22.0117C19.127 22.0117 18.7305 21.6289 18.7305 21.1504C18.7305 20.6719 19.127 20.2891 19.6055 20.2891C20.0703 20.2891 20.4531 20.6719 20.4531 21.1504C20.4531 21.6289 20.0703 22.0117 19.6055 22.0117Z" style="fill:var(--color-1,white)"></path>
 </g>
</svg>