<?xml version="1.0" encoding="UTF-8"?>
<!--Generator: Apple Native CoreSVG 326-->
<!DOCTYPE svg
PUBLIC "-//W3C//DTD SVG 1.1//EN"
       "http://www.w3.org/Graphics/SVG/1.1/DTD/svg11.dtd">
<svg version="1.1" xmlns="http://www.w3.org/2000/svg" xmlns:xlink="http://www.w3.org/1999/xlink" viewBox="0 0 35.6016 29.4629">
 <g>
  <rect height="29.4629" opacity="0" width="35.6016" x="0" y="0"/>
  <path d="M22.9824 5.94727C24.6094 5.94727 25.9492 4.60742 25.9492 2.9668C25.9492 1.33984 24.6094 0 22.9824 0C21.3418 0 20.002 1.33984 20.002 2.9668C20.002 4.60742 21.3418 5.94727 22.9824 5.94727ZM29.0254 25.3887C28.998 25.8262 29.3535 26.1816 29.7227 26.2227C30.1465 26.25 30.5293 25.9355 30.5566 25.5117L31.7871 9.46094L30.2695 9.35156ZM22.4219 18.5391L18.7852 15.6406L21.5742 10.7461L26.0859 14.1777C26.7285 14.6699 27.5898 14.6016 28.1367 13.9863L31.459 10.2676C32.5664 9.03711 30.707 6.93164 29.4082 8.46289L26.9609 11.293L22.9824 8.05273C21.6289 6.95898 20.166 5.94727 17.8965 6.05664L12.0039 6.34375C11.2656 6.37109 10.6641 6.83594 10.6094 7.71094L10.2812 12.9473C10.1855 14.6152 12.8926 15.1895 13.0156 12.9199L13.2344 8.94141L16.6797 8.80469L14.0684 13.5488C13.2344 15.0527 13.6309 16.6934 15.1484 17.582L20.2754 20.5352L20.2754 27.4395C20.2754 28.2051 20.877 28.8066 21.6426 28.8066C22.4082 28.8066 23.0098 28.2051 23.0098 27.4395L23.0098 19.6328C23.0098 19.2227 22.9004 18.9219 22.4219 18.5391ZM0.669922 23.543C0.382812 23.8301 0.382812 24.3223 0.65625 24.6094C0.957031 24.8965 1.44922 24.8965 1.75 24.5957L12.5918 14.0547L11.5254 12.9746ZM13.5625 18.0332L12.8789 20.6719L7.12305 26.0449C5.6875 27.3711 7.60156 29.3809 9.06445 28L14.9844 22.4766C15.3262 22.1758 15.4219 21.9707 15.5723 21.6152L16.3516 19.7969L14.4922 18.7168C14.1367 18.5117 13.8223 18.2793 13.5625 18.0332ZM31.5957 29.3535C32.9902 29.3535 33.8242 28.998 34.7949 28.5469C35.2051 28.3691 35.3281 27.9453 35.2051 27.5898C35.0684 27.1934 34.6445 26.9336 34.1387 27.1934C33.373 27.5898 32.7578 27.8359 31.5957 27.8359L8.54492 27.8359C8.13477 27.8359 7.7793 28.1504 7.7793 28.5605C7.7793 28.9844 8.12109 29.3535 8.54492 29.3535ZM24.0625 29.3535L24.0625 27.8359L0.765625 27.8359C0.341797 27.8359 0 28.1504 0 28.5605C0 28.9844 0.328125 29.3535 0.765625 29.3535Z" fill="white" fill-opacity="0.85"/>
 </g>
</svg>
