<?xml version="1.0" encoding="UTF-8"?>
<!--Generator: Apple Native CoreSVG 326-->
<!DOCTYPE svg
PUBLIC "-//W3C//DTD SVG 1.1//EN"
       "http://www.w3.org/Graphics/SVG/1.1/DTD/svg11.dtd">
<svg version="1.1" xmlns="http://www.w3.org/2000/svg" xmlns:xlink="http://www.w3.org/1999/xlink" viewBox="0 0 28.2461 27.9043">
 <g>
  <rect height="27.9043" opacity="0" width="28.2461" x="0" y="0"/>
  <path d="M13.9453 27.8906C21.6426 27.8906 27.8906 21.6289 27.8906 13.9453C27.8906 6.24805 21.6426 0 13.9453 0C6.26172 0 0 6.24805 0 13.9453C0 21.6289 6.26172 27.8906 13.9453 27.8906Z" fill="white" fill-opacity="0.85"/>
  <path d="M12.3867 11.6211C11.4707 11.6211 10.7188 10.8828 10.7188 9.9668C10.7188 9.06445 11.4707 8.32617 12.3867 8.32617C13.2891 8.32617 14.041 9.06445 14.041 9.9668C14.041 10.8828 13.2891 11.6211 12.3867 11.6211ZM8.36719 21.5332C7.9707 21.4238 7.72461 21.0273 7.82031 20.6172C7.91602 20.207 8.33984 19.9473 8.73633 20.0566L11.9766 20.877L9.59766 13.6992C9.47461 13.3301 9.41992 13.1934 9.05078 12.8242L7.28711 11.0742C7.06836 10.8418 7.02734 10.6641 7.02734 10.3496L7.02734 6.6582C7.02734 6.2207 7.35547 5.89258 7.79297 5.89258C8.2168 5.89258 8.55859 6.2207 8.55859 6.6582L8.55859 10.1582L10.1309 11.7305C10.459 12.0449 10.8555 12.1543 11.5801 12.291L19.7969 13.9316C20.1934 14.0137 20.4531 14.4238 20.3848 14.834C20.3027 15.2852 19.8789 15.5039 19.4824 15.4355L13.5352 14.2461C13.3574 14.1914 13.2207 14.3691 13.2754 14.5469L14.0957 17.0352L17.3496 17.3496C17.6914 17.4043 17.7734 17.4453 17.9785 17.6641L20.9453 20.6445C21.2461 20.9453 21.2598 21.4238 20.9453 21.7246C20.6445 22.0254 20.166 22.0254 19.8652 21.7246L17.0625 18.8809L13.4668 18.8809L13.877 21.7793C13.9727 22.3672 13.5352 22.8457 12.9062 22.6816ZM9.99414 6.91797C9.46094 6.91797 9.05078 6.49414 9.05078 5.97461C9.05078 5.44141 9.46094 5.03125 9.99414 5.03125C10.5 5.03125 10.9375 5.44141 10.9375 5.97461C10.9375 6.49414 10.5 6.91797 9.99414 6.91797Z" fill="white"/>
 </g>
</svg>
