<?xml version="1.0" encoding="UTF-8"?>
<!--Generator: Apple Native CoreSVG 326-->
<!DOCTYPE svg
PUBLIC "-//W3C//DTD SVG 1.1//EN"
       "http://www.w3.org/Graphics/SVG/1.1/DTD/svg11.dtd">
<svg version="1.1" xmlns="http://www.w3.org/2000/svg" xmlns:xlink="http://www.w3.org/1999/xlink" viewBox="0 0 28.2461 27.9043">
 <g>
  <rect height="27.9043" opacity="0" width="28.2461" x="0" y="0"/>
  <path d="M13.9453 27.8906C21.6426 27.8906 27.8906 21.6426 27.8906 13.9453C27.8906 6.24805 21.6426 0 13.9453 0C6.24805 0 0 6.24805 0 13.9453C0 21.6426 6.24805 27.8906 13.9453 27.8906ZM13.9453 25.5664C7.51953 25.5664 2.32422 20.3711 2.32422 13.9453C2.32422 7.51953 7.51953 2.32422 13.9453 2.32422C20.3711 2.32422 25.5664 7.51953 25.5664 13.9453C25.5664 20.3711 20.3711 25.5664 13.9453 25.5664Z" fill="white" fill-opacity="0.85"/>
  <path d="M14.0273 8.62695C14.9297 8.62695 15.668 7.88867 15.668 6.97266C15.668 6.08398 14.9297 5.33203 14.0273 5.33203C13.1113 5.33203 12.3594 6.08398 12.3594 6.97266C12.3594 7.88867 13.1113 8.62695 14.0273 8.62695ZM8.92773 10.8418L11.3887 10.8418C11.498 10.8418 11.5801 10.9512 11.5801 11.0605L11.334 14.2461C11.252 15.3809 11.9355 16.0781 12.8926 16.2832L16.0508 16.9531L16.7207 20.3301C16.8164 20.7812 17.2812 21.0137 17.6367 20.9453C18.0469 20.8496 18.334 20.4395 18.2383 20.0156L17.4727 16.1328C17.418 15.832 17.1582 15.6133 16.8711 15.5176L14.4375 14.7656L14.6426 11.8262C14.6699 11.5938 14.875 11.5117 15.0527 11.6484L16.2012 12.6055C16.3379 12.7285 16.5156 12.7969 16.707 12.7969L20.1934 12.7969C20.6309 12.7969 20.9727 12.4414 20.9727 12.0176C20.9727 11.5801 20.6309 11.2383 20.1934 11.2383L16.9805 11.2383L15.2988 9.83008C14.875 9.48828 14.4922 9.2832 13.8906 9.2832L9.98047 9.2832L10.8418 6.41211C10.9648 5.98828 10.7324 5.56445 10.3223 5.44141C9.91211 5.31836 9.47461 5.56445 9.35156 5.96094L8.17578 9.84375C8.02539 10.3496 8.28516 10.8418 8.92773 10.8418ZM12.209 23.2285C12.5781 23.3242 13.043 23.1738 13.1797 22.6953L14.3418 18.8535C14.3691 18.7441 14.3691 18.6348 14.3691 18.5117L14.3691 17.2676L12.7559 16.9258C12.6602 16.9121 12.6602 16.9121 12.6328 16.8984L12.8242 18.5117L11.6895 22.2715C11.5664 22.668 11.8125 23.1055 12.209 23.2285Z" fill="white" fill-opacity="0.85"/>
 </g>
</svg>
