<?xml version="1.0" encoding="UTF-8"?>
<!--Generator: Apple Native CoreSVG 326-->
<!DOCTYPE svg
PUBLIC "-//W3C//DTD SVG 1.1//EN"
       "http://www.w3.org/Graphics/SVG/1.1/DTD/svg11.dtd">
<svg version="1.1" xmlns="http://www.w3.org/2000/svg" xmlns:xlink="http://www.w3.org/1999/xlink" viewBox="0 0 28.2461 27.9043">
 <g>
  <rect height="27.9043" opacity="0" width="28.2461" x="0" y="0"/>
  <path d="M13.9453 27.8906C21.6426 27.8906 27.8906 21.6289 27.8906 13.9453C27.8906 6.24805 21.6426 0 13.9453 0C6.26172 0 0 6.24805 0 13.9453C0 21.6289 6.26172 27.8906 13.9453 27.8906Z" fill="white" fill-opacity="0.85"/>
  <path d="M14.0137 8.44922C13.0703 8.44922 12.291 7.68359 12.291 6.74023C12.291 5.82422 13.0703 5.05859 14.0137 5.05859C14.9434 5.05859 15.709 5.82422 15.709 6.74023C15.709 7.68359 14.9434 8.44922 14.0137 8.44922ZM8.75 10.7324C8.09375 10.7324 7.82031 10.2266 7.9707 9.70703L9.1875 5.70117C9.31055 5.29102 9.76172 5.03125 10.1855 5.16797C10.6094 5.29102 10.8555 5.72852 10.7188 6.16602L9.83008 9.11914L13.8496 9.11914C14.4922 9.11914 14.8887 9.33789 15.3262 9.69336L17.0625 11.1426L20.3711 11.1426C20.8223 11.1426 21.1777 11.498 21.1777 11.9492C21.1777 12.3867 20.8223 12.7559 20.3711 12.7559L16.7754 12.7559C16.5703 12.7559 16.3926 12.6738 16.2559 12.5508L15.0664 11.5664C14.8887 11.4297 14.6699 11.5117 14.6426 11.7441L14.4375 14.7793L16.9395 15.5586C17.2402 15.6543 17.5137 15.873 17.5684 16.1875L18.3477 20.1934C18.457 20.6309 18.1562 21.0547 17.7324 21.1504C17.3633 21.2188 16.8848 20.9863 16.7891 20.5215L16.0781 17.0352L12.8379 16.3516C11.8398 16.1328 11.1426 15.4082 11.2383 14.2461L11.4844 10.9648C11.4844 10.8418 11.4023 10.7324 11.293 10.7324ZM12.1406 23.502C11.7305 23.3789 11.4707 22.9277 11.5938 22.5176L12.7695 18.6484L12.5781 16.9805C12.6055 16.9941 12.6055 16.9941 12.7012 17.0078L14.3691 17.3633L14.3691 18.6484C14.3691 18.7715 14.3691 18.8809 14.3281 18.9902L13.1387 22.9551C13.002 23.4473 12.5098 23.6113 12.1406 23.502Z" fill="white"/>
 </g>
</svg>
