<svg version="1.1" xmlns="http://www.w3.org/2000/svg" xmlns:xlink="http://www.w3.org/1999/xlink" viewBox="0 0 28.2461 27.9043">
 <g>
  
  <path d="M13.9453 27.8906C21.6426 27.8906 27.8906 21.6289 27.8906 13.9453C27.8906 6.24805 21.6426 0 13.9453 0C6.26172 0 0 6.24805 0 13.9453C0 21.6289 6.26172 27.8906 13.9453 27.8906Z" style="fill:var(--color-0,hsl(0 0 0/0.85))"></path>
  <path d="M14.5879 8.72266C13.6582 8.72266 12.8789 7.95703 12.8789 7.01367C12.8789 6.08398 13.6582 5.30469 14.5879 5.30469C15.5176 5.30469 16.2832 6.08398 16.2832 7.01367C16.2832 7.95703 15.5176 8.72266 14.5879 8.72266ZM12.0859 18.8398C11.7852 18.5391 11.7852 18.0332 12.0859 17.7324L14.0137 15.8047L10.3223 15.6133C8.66797 15.5312 7.92969 13.8086 8.77734 12.5234L10.6367 9.76172C10.7598 9.55664 10.7051 9.32422 10.5273 9.21484L9.24219 8.36719L6.24805 8.36719C5.82422 8.36719 5.48242 7.99805 5.48242 7.56055C5.48242 7.13672 5.82422 6.76758 6.24805 6.76758L9.48828 6.76758C9.63867 6.76758 9.78906 6.80859 9.92578 6.9043L16.8574 11.5254L19.8516 11.5254C20.2617 11.5254 20.6172 11.8945 20.6172 12.3457C20.6172 12.7695 20.2617 13.125 19.8516 13.125L16.6113 13.125C16.4609 13.125 16.3242 13.0566 16.1875 12.9746L13.918 11.4707C13.7402 11.3477 13.4941 11.3887 13.3711 11.5801L12.0859 13.5215C11.9629 13.7129 12.0039 13.877 12.3047 13.918L15.9004 14.3145C16.5703 14.3828 16.8574 15.1895 16.4199 15.627L13.207 18.8398C12.8926 19.1543 12.4004 19.1543 12.0859 18.8398ZM9.11914 15.9824C9.47461 16.1602 9.85742 16.2695 10.2812 16.2832L11.1562 16.3516L10.7188 19.0449C10.6914 19.209 10.6504 19.373 10.5273 19.5508L8.28516 22.1758C8.03906 22.4629 7.54688 22.5723 7.15039 22.2715C6.82227 21.9844 6.78125 21.4512 7.06836 21.1367L9.11914 18.7305ZM19.8516 10.1445C19.8516 9.59766 20.7266 9.14648 21.8203 9.14648C22.9004 9.14648 23.7891 9.59766 23.7891 10.1445C23.7891 10.6777 22.9004 11.1289 21.8203 11.1289C20.7266 11.1289 19.8516 10.6777 19.8516 10.1445Z" style="fill:var(--color-1,white)"></path>
 </g>
</svg>