<svg version="1.1" xmlns="http://www.w3.org/2000/svg" xmlns:xlink="http://www.w3.org/1999/xlink" viewBox="0 0 28.1367 31.7871">
 <g>
  
  <path d="M0 30.0508C0 30.6797 0.519531 31.1992 1.13477 31.1992C1.76367 31.1992 2.2832 30.6797 2.2832 30.0508L2.2832 1.13477C2.2832 0.505859 1.76367 0 1.13477 0C0.519531 0 0 0.505859 0 1.13477Z" style="fill:var(--color-0,hsl(0 0 0/0.85))"></path>
  <path d="M10.8555 30.7207L15.1621 25.5938C15.5859 25.1016 15.6406 24.9648 15.8184 24.4453L16.1602 23.3926L13.8496 20.4941L13.125 23.8164L8.87305 28.8613C7.50586 30.4746 9.7207 32.0605 10.8555 30.7207ZM21.3555 30.2969C22.2441 32.1016 24.8965 30.9941 23.9258 29.0527L21 23.1191C20.7812 22.668 20.4531 22.1895 20.1934 21.8066L18.3203 19.1543L18.457 18.7715C18.9766 17.2949 19.1543 16.3926 19.25 14.916L19.5371 10.7734C19.6875 8.80469 18.5254 7.30078 16.502 7.30078C14.9844 7.30078 13.959 8.06641 12.5645 9.43359L10.377 11.5938C9.65234 12.3047 9.41992 12.8789 9.35156 13.8086L9.0918 17.1992C9.02344 18.0469 9.50195 18.6621 10.2949 18.6895C11.0879 18.7441 11.5664 18.2793 11.6621 17.3633L11.9766 13.6445L13.0293 12.6875C13.4121 12.3457 13.918 12.5781 13.8906 12.9609L13.6445 16.1191C13.5215 17.7051 13.9043 18.457 14.998 19.8242L17.8965 23.4746C18.1973 23.8438 18.2246 23.9941 18.3477 24.2129ZM26.3457 12.9199L23.0234 12.9199L20.8633 10.5137L20.6445 14L21.5332 14.875C21.998 15.3535 22.4082 15.4902 23.2559 15.4902L26.3457 15.4902C27.207 15.4902 27.7812 14.998 27.7812 14.1914C27.7812 13.4258 27.1934 12.9199 26.3457 12.9199ZM18.1016 6.01562C19.7695 6.01562 21.1094 4.67578 21.1094 3.00781C21.1094 1.33984 19.7695 0 18.1016 0C16.4336 0 15.0938 1.33984 15.0938 3.00781C15.0938 4.67578 16.4336 6.01562 18.1016 6.01562Z" style="fill:var(--color-1,hsl(0 0 0/0.85))"></path>
 </g>
</svg>