<svg version="1.1" xmlns="http://www.w3.org/2000/svg" xmlns:xlink="http://www.w3.org/1999/xlink" viewBox="0 0 43.7769 28.4512">
 <g>
  
  <path d="M7.20484 7.7793C5.15405 7.7793 3.51343 6.07031 3.51343 4.08789C3.51343 2.02344 5.15405 0.355469 7.20484 0.355469C9.26929 0.355469 10.9236 2.02344 10.9236 4.08789C10.9236 6.125 9.26929 7.7793 7.20484 7.7793ZM29.2302 27.3438C28.5193 28.082 27.3025 28.0273 26.4412 27.125L20.5486 21.0547C20.3572 20.8496 20.2205 20.7949 19.9197 20.918L15.3259 22.6543C12.3728 23.7891 9.59741 22.8184 8.29859 20.4668L5.34546 15.0938C4.19702 13.002 4.56616 10.8418 6.54859 9.77539C8.48999 8.72266 10.4861 9.51562 11.6482 11.6621L15.49 18.6484L18.7439 17.459C20.3572 16.8711 21.7107 17.0625 22.9959 18.4023L29.1072 24.7188C29.9548 25.5938 29.8728 26.6875 29.2302 27.3438Z" style="fill:var(--color-0,hsl(0 0 0/0.85))"></path>
  <path d="M28.4646 4.75781L32.1697 9.50195C32.3474 9.7207 32.5935 9.76172 32.8396 9.625C33.7283 9.16016 34.9861 8.8457 35.9841 8.8457C36.9959 8.8457 38.281 9.16016 39.1423 9.625C39.3884 9.76172 39.6619 9.7207 39.8123 9.50195L43.5447 4.75781C43.9001 4.2793 43.8455 3.80078 43.3943 3.44531C41.8767 2.2832 39.0193 1.39453 35.9841 1.39453C32.99 1.39453 30.1052 2.2832 28.6013 3.44531C28.1501 3.80078 28.0955 4.2793 28.4646 4.75781ZM32.3201 12.2773C31.8962 11.7168 31.7185 11.1973 31.7185 10.6367C31.7185 9.35156 32.7576 9.02344 32.7576 8.27148C32.7576 7.50586 31.7185 7.19141 31.7185 5.86523C31.7185 5.31836 31.8962 4.79883 32.3201 4.25195C32.7986 3.67773 33.6599 4.29297 33.1951 4.89453C32.8806 5.31836 32.7986 5.55078 32.7986 5.86523C32.7986 6.79492 33.8376 7.05469 33.8376 8.27148C33.8376 9.47461 32.7986 9.74805 32.7986 10.6367C32.7986 10.9922 32.8806 11.1973 33.1951 11.6348C33.6462 12.2227 32.7849 12.8516 32.3201 12.2773ZM35.533 12.2773C35.1228 11.7168 34.9451 11.1973 34.9451 10.6367C34.9451 9.35156 35.9705 9.02344 35.9705 8.27148C35.9705 7.50586 34.9451 7.19141 34.9451 5.86523C34.9451 5.31836 35.1228 4.79883 35.533 4.25195C36.0115 3.67773 36.8865 4.29297 36.4216 4.89453C36.1072 5.31836 36.0251 5.55078 36.0251 5.86523C36.0251 6.79492 37.0642 7.05469 37.0642 8.27148C37.0642 9.47461 36.0251 9.74805 36.0251 10.6367C36.0251 10.9922 36.1072 11.1973 36.4216 11.6348C36.8728 12.2227 35.9978 12.8516 35.533 12.2773ZM38.7869 12.2773C38.3494 11.7168 38.1716 11.1973 38.1716 10.6367C38.1716 9.35156 39.2107 9.02344 39.2107 8.27148C39.2107 7.50586 38.1716 7.19141 38.1716 5.86523C38.1716 5.31836 38.3494 4.79883 38.7869 4.25195C39.2517 3.67773 40.113 4.29297 39.6482 4.89453C39.3611 5.31836 39.2654 5.55078 39.2654 5.86523C39.2654 6.79492 40.2908 7.05469 40.2908 8.27148C40.2908 9.47461 39.2654 9.74805 39.2654 10.6367C39.2654 10.9922 39.3611 11.1973 39.6482 11.6348C40.0994 12.2227 39.2517 12.8516 38.7869 12.2773ZM21.3279 0C20.7537 0 20.3162 0.4375 20.3162 1.01172L20.3162 6.33008L18.0876 6.33008C17.1169 6.33008 16.6794 7.32812 17.3357 8.05273L20.5759 11.7168C21.0271 12.209 21.6013 12.209 22.0525 11.7168L25.2927 8.05273C25.9216 7.35547 25.5662 6.33008 24.5408 6.33008L22.3259 6.33008L22.3259 1.01172C22.3259 0.4375 21.8748 0 21.3279 0Z" style="fill:var(--color-1,hsl(0 0 0/0.85))"></path>
 </g>
</svg>