<?xml version="1.0" encoding="UTF-8"?>
<!--Generator: Apple Native CoreSVG 326-->
<!DOCTYPE svg
PUBLIC "-//W3C//DTD SVG 1.1//EN"
       "http://www.w3.org/Graphics/SVG/1.1/DTD/svg11.dtd">
<svg version="1.1" xmlns="http://www.w3.org/2000/svg" xmlns:xlink="http://www.w3.org/1999/xlink" viewBox="0 0 28.2461 27.9043">
 <g>
  <rect height="27.9043" opacity="0" width="28.2461" x="0" y="0"/>
  <path d="M13.9453 27.8906C21.6426 27.8906 27.8906 21.6289 27.8906 13.9453C27.8906 6.24805 21.6426 0 13.9453 0C6.26172 0 0 6.24805 0 13.9453C0 21.6289 6.26172 27.8906 13.9453 27.8906Z" fill="white" fill-opacity="0.85"/>
  <path d="M13.8496 8.2168C12.8926 8.2168 12.127 7.45117 12.127 6.49414C12.127 5.55078 12.8926 4.78516 13.8496 4.78516C14.793 4.78516 15.5586 5.55078 15.5586 6.49414C15.5586 7.45117 14.793 8.2168 13.8496 8.2168ZM8.57227 21.2188L10.8691 18.5254L11.5938 15.7363C11.2793 15.2578 11.1562 14.9023 11.1426 14.3418L10.1445 14.3418C9.51562 14.3418 9.07812 13.8906 9.07812 13.2754L9.07812 9.33789C9.07812 8.43555 9.625 7.88867 10.5273 7.88867L11.3203 7.88867C11.9766 7.88867 12.4551 8.36719 12.4551 8.96875C12.5645 8.95508 12.7012 8.92773 12.8242 8.92773C13.3711 8.92773 13.8359 9.14648 14.2051 9.54297L16.584 12.1406L18.5938 12.1406C19.0723 12.1406 19.4004 12.4277 19.4004 12.8652C19.4004 13.3301 19.0723 13.6172 18.5938 13.6172L16.707 13.6172C16.2285 13.6172 16.0234 13.5352 15.7363 13.2617L14.5059 12.1133L14.4102 13.3438C14.3555 14.3691 14.2734 14.9297 13.8086 15.9004L12.4277 18.8945C12.2363 19.25 12.1543 19.4141 11.8945 19.6875L9.73438 22.2988C9.07812 23.0645 7.79297 22.1621 8.57227 21.2188ZM13.5488 18.2246L14.3555 16.502L14.957 17.3359C15.1211 17.5684 15.2988 17.8418 15.4219 18.1152L17.0215 21.3281C17.5684 22.4219 16.0371 23.0918 15.5176 22.0527L13.9043 18.7441C13.8223 18.5938 13.7402 18.4707 13.5488 18.2246ZM18.1699 22.1758L18.1699 14.3555L18.5938 14.3555C18.6895 14.3555 18.8398 14.3281 19.0039 14.2871L19.0039 22.1758C19.0039 22.3945 18.8125 22.5859 18.5938 22.5859C18.3477 22.5859 18.1699 22.3945 18.1699 22.1758ZM18.1699 11.4023L18.1699 10.2402C18.1699 10.0078 18.3477 9.84375 18.5938 9.84375C18.8125 9.84375 19.0039 10.0078 19.0039 10.2402L19.0039 11.457C18.8125 11.416 18.6895 11.4023 18.5938 11.4023Z" fill="white"/>
 </g>
</svg>
