<svg version="1.1" xmlns="http://www.w3.org/2000/svg" xmlns:xlink="http://www.w3.org/1999/xlink" viewBox="0 0 23.9586 29.791">
 <g>
  
  <path d="M9.15604 27.5762C9.68925 27.4258 10.0174 27.2617 10.2361 26.8516L13.2439 21.4375C13.2986 21.3418 13.3396 21.3008 13.4627 21.3008L20.8182 21.3008L20.8182 28.2324C20.8182 29.0254 21.4471 29.627 22.199 29.627C22.992 29.627 23.6072 29.0254 23.6072 28.2324L23.6072 20.0703C23.6072 19.1543 23.115 18.6074 22.158 18.5254L15.9646 17.9648L15.9646 10.1855C15.9646 8.66797 14.8982 7.41016 13.0252 7.41016L12.3689 7.41016C11.2615 7.41016 10.4139 7.60156 9.3201 8.42188L4.72635 11.8672C3.93339 12.4414 3.98807 13.6035 4.79471 14.1367L10.4139 17.8691L10.4139 18.2246L7.96659 25.0059L1.02128 26.9199C0.282995 27.125-0.154505 27.877 0.0505735 28.6152C0.269323 29.3945 0.966589 29.791 1.75956 29.5859ZM7.96659 12.9062L10.0447 11.3477C10.2088 11.2383 10.4139 11.3203 10.4139 11.5254L10.4139 14.5332ZM13.0252 5.97461C14.6521 5.97461 15.992 4.63477 15.992 2.9668C15.992 1.33984 14.6521 0 13.0252 0C11.3572 0 10.0174 1.33984 10.0174 2.9668C10.0174 4.63477 11.3572 5.97461 13.0252 5.97461Z" style="fill:var(--color-0,hsl(0 0 0/0.85))"></path>
 </g>
</svg>