<?xml version="1.0" encoding="UTF-8"?>
<!--Generator: Apple Native CoreSVG 326-->
<!DOCTYPE svg
PUBLIC "-//W3C//DTD SVG 1.1//EN"
       "http://www.w3.org/Graphics/SVG/1.1/DTD/svg11.dtd">
<svg version="1.1" xmlns="http://www.w3.org/2000/svg" xmlns:xlink="http://www.w3.org/1999/xlink" viewBox="0 0 28.2461 27.9043">
 <g>
  <rect height="27.9043" opacity="0" width="28.2461" x="0" y="0"/>
  <path d="M13.9453 27.8906C21.6426 27.8906 27.8906 21.6289 27.8906 13.9453C27.8906 6.24805 21.6426 0 13.9453 0C6.26172 0 0 6.24805 0 13.9453C0 21.6289 6.26172 27.8906 13.9453 27.8906Z" fill="white" fill-opacity="0.85"/>
  <path d="M18.334 11.7168C17.3906 11.7168 16.625 10.9512 16.625 10.0078C16.625 9.06445 17.3906 8.3125 18.334 8.3125C19.2773 8.3125 20.0156 9.06445 20.0156 10.0078C20.0156 10.9512 19.2773 11.7168 18.334 11.7168ZM12.9883 23.4883C12.6055 23.2969 12.4551 22.8047 12.6465 22.4219L14.3281 19.0723L11.4434 16.9668C10.0352 15.9414 10.3633 14.123 11.7305 13.4395L13.3574 12.6465C13.4121 12.6055 13.3848 12.5234 13.3301 12.5234L11.7715 12.5234C11.5527 12.5234 11.3613 12.4414 11.2246 12.3047L8.92773 10.0078C8.59961 9.69336 8.51758 9.20117 8.88672 8.83203L10.0352 7.69727C10.2266 6.75391 10.5547 5.45508 11.2109 4.8125C12.332 3.66406 13.2207 3.65039 13.959 4.375C14.7109 5.11328 14.6836 6.00195 13.5215 7.13672C12.9062 7.7793 11.5938 8.12109 10.6777 8.3125L10.0762 8.90039L12.0859 10.9512L15.1348 10.9512C15.5039 10.9512 15.791 11.1016 16.0645 11.375L22.1758 17.4863C22.4902 17.8008 22.4902 18.293 22.1758 18.6074C21.9023 18.8945 21.3965 18.9219 21.082 18.6074L16.9395 14.4648C16.8164 14.3555 16.666 14.3281 16.5156 14.4102L13.4941 15.9141L15.8184 18.2109C16.1738 18.5664 16.1465 18.9492 15.9824 19.2637L14.041 23.1328C13.8359 23.5566 13.3574 23.6523 12.9883 23.4883ZM13.3438 5.01758C12.9336 4.62109 12.5645 4.73047 11.8398 5.44141C11.416 5.89258 11.1836 6.67188 11.0195 7.3418C11.6484 7.15039 12.4688 6.94531 12.9199 6.52148C13.6172 5.7832 13.7539 5.40039 13.3438 5.01758ZM5.46875 19.6055C5.46875 19.1816 5.82422 18.8125 6.24805 18.8125L9.61133 18.8125L10.3086 16.7617C10.3906 16.9531 10.5684 17.1855 11.0332 17.5273L11.8398 18.0879L10.9375 19.8926C10.8008 20.166 10.5273 20.4121 10.1992 20.4121L6.24805 20.4121C5.82422 20.4121 5.46875 20.0566 5.46875 19.6055Z" fill="white"/>
 </g>
</svg>
