<svg version="1.1" xmlns="http://www.w3.org/2000/svg" xmlns:xlink="http://www.w3.org/1999/xlink" viewBox="0 0 28.2461 27.9043">
 <g>
  
  <path d="M13.9453 27.8906C21.6426 27.8906 27.8906 21.6289 27.8906 13.9453C27.8906 6.24805 21.6426 0 13.9453 0C6.26172 0 0 6.24805 0 13.9453C0 21.6289 6.26172 27.8906 13.9453 27.8906Z" style="fill:var(--color-0,hsl(0 0 0/0.85))"></path>
  <path d="M19.3047 10.459C18.3477 10.459 17.5957 9.69336 17.5957 8.75C17.5957 7.80664 18.3477 7.06836 19.3047 7.06836C20.2344 7.06836 21 7.80664 21 8.75C21 9.69336 20.2344 10.459 19.3047 10.459ZM5.60547 18.4434C5.03125 18.5938 4.64844 18.2109 4.59375 17.8145C4.52539 17.4453 4.73047 17.0488 5.25 16.9121L10.1992 15.668L10.1992 13.8086C10.1992 13.0703 10.7461 12.7559 11.4297 12.9062L14.752 13.5762L17.0078 11.8809C17.5547 11.457 18.2109 11.252 18.9082 11.252L19.6055 11.252C20.207 11.252 20.7402 11.5801 21.0137 12.127L22.3809 14.8477C22.4355 14.957 22.4492 15.0801 22.4492 15.2168L22.4492 18.375C22.4492 18.8398 22.1348 19.1406 21.6699 19.1406C21.2051 19.1406 20.8633 18.8398 20.8633 18.375L20.8633 15.3945L20.0156 13.6719C19.9609 13.5488 19.8105 13.5352 19.7012 13.6035L16.8301 15.7637C16.3105 16.1602 15.7227 16.4062 15.1211 16.5156L11.7852 17.0078L11.7852 18.375C11.7852 18.8125 11.416 19.1406 10.9785 19.1406C10.5547 19.1406 10.1992 18.8125 10.1992 18.375L10.1992 17.2949ZM11.7852 15.2852L12.8652 15.0117L11.7852 14.6836ZM15.5449 19.1406C14.875 19.1406 14.3555 18.6211 14.3555 17.9648C14.3555 17.3086 14.875 16.7754 15.5449 16.7754L18.7031 16.7754C19.3457 16.7754 19.8789 17.3086 19.8789 17.9648C19.8789 18.6211 19.3457 19.1406 18.7031 19.1406ZM18.6895 18.4844C18.9766 18.4844 19.209 18.2383 19.209 17.9648C19.209 17.6777 18.9766 17.4453 18.6895 17.4453C18.4023 17.4453 18.1699 17.6777 18.1699 17.9648C18.1699 18.2383 18.4023 18.4844 18.6895 18.4844Z" style="fill:var(--color-1,white)"></path>
 </g>
</svg>