<?xml version="1.0" encoding="UTF-8"?>
<!--Generator: Apple Native CoreSVG 326-->
<!DOCTYPE svg
PUBLIC "-//W3C//DTD SVG 1.1//EN"
       "http://www.w3.org/Graphics/SVG/1.1/DTD/svg11.dtd">
<svg version="1.1" xmlns="http://www.w3.org/2000/svg" xmlns:xlink="http://www.w3.org/1999/xlink" viewBox="0 0 28.2461 27.9043">
 <g>
  <rect height="27.9043" opacity="0" width="28.2461" x="0" y="0"/>
  <path d="M13.9453 27.8906C21.6426 27.8906 27.8906 21.6289 27.8906 13.9453C27.8906 6.24805 21.6426 0 13.9453 0C6.26172 0 0 6.24805 0 13.9453C0 21.6289 6.26172 27.8906 13.9453 27.8906Z" fill="white" fill-opacity="0.85"/>
  <path d="M5.83789 18.1699C5.5918 18.1699 5.3457 17.9785 5.3457 17.6914C5.3457 17.4316 5.5918 17.1992 5.83789 17.1992L5.96094 17.1992C7.41016 17.1992 7.91602 15.9414 9.93945 15.9414C11.9766 15.9414 12.4961 17.1992 13.9453 17.1992C15.4082 17.1992 15.9141 15.9414 17.9512 15.9414C19.9746 15.9414 20.4805 17.1992 21.9297 17.1992L22.0664 17.1992C22.2988 17.1992 22.5449 17.4316 22.5449 17.6914C22.5449 17.9785 22.2988 18.1699 22.0664 18.1699L21.9297 18.1699C19.8105 18.1699 19.3594 16.8984 17.9512 16.8984C16.5293 16.8984 16.0781 18.1699 13.9453 18.1699C11.8125 18.1699 11.3613 16.8984 9.93945 16.8984C8.53125 16.8984 8.08008 18.1699 5.96094 18.1699ZM5.83789 20.3164C5.5918 20.3164 5.3457 20.0977 5.3457 19.8242C5.3457 19.5781 5.5918 19.3457 5.83789 19.3457L5.96094 19.3457C7.41016 19.3457 7.91602 18.0742 9.93945 18.0742C11.9766 18.0742 12.4961 19.3457 13.9453 19.3457C15.4082 19.3457 15.9141 18.0742 17.9512 18.0742C19.9746 18.0742 20.4805 19.3457 21.9297 19.3457L22.0664 19.3457C22.2988 19.3457 22.5449 19.5781 22.5449 19.8242C22.5449 20.0977 22.2988 20.3164 22.0664 20.3164L21.9297 20.3164C19.8105 20.3164 19.3594 19.0449 17.9512 19.0449C16.5293 19.0449 16.0781 20.3164 13.9453 20.3164C11.8125 20.3164 11.3613 19.0449 9.93945 19.0449C8.53125 19.0449 8.08008 20.3164 5.96094 20.3164ZM12.4141 7.86133C12.4141 7.62891 12.6191 7.42383 12.8652 7.42383C13.7266 7.42383 14.3008 7.62891 14.9434 8.20312C15.5859 7.62891 16.1602 7.42383 17.0215 7.42383C17.2812 7.42383 17.4727 7.62891 17.4727 7.86133C17.4727 8.10742 17.2812 8.3125 17.0352 8.3125C16.3242 8.3125 15.9004 8.44922 15.4766 8.92773C15.2852 9.10547 15.1348 9.20117 14.9434 9.20117C14.7656 9.20117 14.5879 9.10547 14.4238 8.92773C13.9727 8.44922 13.5488 8.3125 12.8652 8.3125C12.6055 8.3125 12.4141 8.10742 12.4141 7.86133ZM11.4023 15.0664L13.0156 13.9863C13.2617 13.8359 13.207 13.5898 13.0566 13.4258L11.6484 11.9902L9.16016 13.7402C8.73633 14.041 8.28516 13.9316 8.03906 13.6445C7.72461 13.3301 7.66992 12.7695 8.18945 12.4004L11.252 10.2266C11.6621 9.93945 12.1816 9.9668 12.5371 10.3359L16.9258 14.8887C15.709 15.2031 15.3125 16.0645 13.9453 16.0645C12.7695 16.0645 12.2637 15.4355 11.4023 15.0664ZM18.0605 13.9453C17.1035 13.9453 16.3516 13.1797 16.3516 12.25C16.3516 11.293 17.1035 10.5547 18.0605 10.5547C18.9902 10.5547 19.7559 11.293 19.7559 12.25C19.7559 13.1797 18.9902 13.9453 18.0605 13.9453Z" fill="white"/>
 </g>
</svg>
