<?xml version="1.0" encoding="UTF-8"?>
<!--Generator: Apple Native CoreSVG 326-->
<!DOCTYPE svg
PUBLIC "-//W3C//DTD SVG 1.1//EN"
       "http://www.w3.org/Graphics/SVG/1.1/DTD/svg11.dtd">
<svg version="1.1" xmlns="http://www.w3.org/2000/svg" xmlns:xlink="http://www.w3.org/1999/xlink" viewBox="0 0 28.2461 27.9043">
 <g>
  <rect height="27.9043" opacity="0" width="28.2461" x="0" y="0"/>
  <path d="M13.9453 27.8906C21.6426 27.8906 27.8906 21.6426 27.8906 13.9453C27.8906 6.24805 21.6426 0 13.9453 0C6.24805 0 0 6.24805 0 13.9453C0 21.6426 6.24805 27.8906 13.9453 27.8906ZM13.9453 25.5664C7.51953 25.5664 2.32422 20.3711 2.32422 13.9453C2.32422 7.51953 7.51953 2.32422 13.9453 2.32422C20.3711 2.32422 25.5664 7.51953 25.5664 13.9453C25.5664 20.3711 20.3711 25.5664 13.9453 25.5664Z" fill="white" fill-opacity="0.85"/>
  <path d="M10.459 23.2285C10.8828 23.2285 11.2246 22.8867 11.2246 22.4766L11.2246 18.8672L13.3164 16.625C13.3711 16.5703 13.4531 16.5703 13.4805 16.625L15.4902 19.332L17.2129 22.75C17.6914 23.707 19.0312 23.0234 18.5801 22.1074L15.0391 15.0254C14.7246 14.3965 14.5605 13.5352 14.4785 12.6738C14.4648 12.3867 14.6562 12.2637 14.9023 12.3867L16.2969 13.084L17.582 15.668C18.0332 16.584 19.4141 15.9688 18.9219 14.9844L17.5137 12.1953C17.4453 12.0449 17.3359 11.9355 17.1855 11.8535L15.1758 10.8418C14.5879 10.541 13.9727 10.4316 13.3984 10.2949C12.7559 10.1172 12.1816 9.92578 11.7852 9.37891L10.8691 8.03906L10.8691 5.42773C10.8691 5.03125 10.5273 4.67578 10.1035 4.67578C9.67969 4.67578 9.35156 5.03125 9.35156 5.42773L9.35156 8.27148C9.35156 8.44922 9.37891 8.57227 9.48828 8.70898L11.0742 11.0195C11.2383 11.2246 11.3203 11.3613 11.3613 11.7168C11.416 12.5508 11.5938 14.0957 11.9355 15.2305L9.85742 18.1289C9.74805 18.2656 9.7207 18.416 9.7207 18.5664L9.7207 22.4766C9.7207 22.8867 10.0352 23.2285 10.459 23.2285ZM13.9316 9.47461C14.8203 9.47461 15.5723 8.73633 15.5723 7.82031C15.5723 6.9043 14.8203 6.17969 13.9316 6.17969C13.0156 6.17969 12.2637 6.9043 12.2637 7.82031C12.2637 8.73633 13.0156 9.47461 13.9316 9.47461Z" fill="white" fill-opacity="0.85"/>
 </g>
</svg>
