<svg version="1.1" xmlns="http://www.w3.org/2000/svg" xmlns:xlink="http://www.w3.org/1999/xlink" viewBox="0 0 36.1177 31.1582">
 <g>
  
  <path d="M18.0589 5.97461C19.7132 5.97461 21.0393 4.64844 21.0393 2.99414C21.0393 1.33984 19.7132 0 18.0589 0C16.4046 0 15.0647 1.33984 15.0647 2.99414C15.0647 4.64844 16.4046 5.97461 18.0589 5.97461ZM29.8577 10.1992C30.6233 10.1992 31.2522 9.58398 31.2522 8.79102C31.2522 8.02539 30.6233 7.41016 29.8577 7.41016L15.1741 7.41016C13.8342 7.41016 12.6721 8.12109 12.0569 9.33789L5.86354 21.7383L2.36354 18.2383C1.81667 17.6914 0.927995 17.7051 0.394792 18.2383C-0.138411 18.7852-0.124739 19.6602 0.394792 20.207L5.33034 25.1562C5.91823 25.7305 6.83425 25.6484 7.31276 24.9512L11.3596 19.0449C11.5784 18.7031 12.0569 18.6484 12.3714 18.8809L17.3479 22.6953L17.3479 29.6406C17.3479 30.4062 17.9632 31.0215 18.7424 31.0215C19.5217 31.0215 20.137 30.4062 20.137 29.6406L20.137 21.998C20.137 21.6289 19.9866 21.2734 19.7268 21.0137L14.887 16.1738L17.4846 10.9648C17.7444 10.459 18.1956 10.1992 18.7151 10.1992ZM20.8206 16.4473L26.385 16.4473C27.1507 16.4473 27.7659 15.8047 27.7659 15.0664C27.7659 14.2871 27.1507 13.6582 26.385 13.6582L21.3948 13.6582L19.2346 11.5117L18.8928 11.5117C18.7561 11.5117 18.6741 11.5664 18.6057 11.6895L17.553 13.7539L19.8499 16.0371C20.1233 16.2969 20.4651 16.4473 20.8206 16.4473ZM28.7913 13.4941C28.7913 14.8203 30.3635 15.9141 32.2776 15.9141C34.2053 15.9141 35.7639 14.8203 35.7639 13.4941C35.7639 12.1406 34.2053 11.0605 32.2776 11.0605C30.3635 11.0605 28.7913 12.1406 28.7913 13.4941Z" style="fill:var(--color-0,hsl(0 0 0/0.85))"></path>
 </g>
</svg>