<svg version="1.1" xmlns="http://www.w3.org/2000/svg" xmlns:xlink="http://www.w3.org/1999/xlink" viewBox="0 0 28.2461 27.9043">
 <g>
  
  <path d="M13.9453 27.8906C21.6426 27.8906 27.8906 21.6289 27.8906 13.9453C27.8906 6.24805 21.6426 0 13.9453 0C6.26172 0 0 6.24805 0 13.9453C0 21.6289 6.26172 27.8906 13.9453 27.8906Z" style="fill:var(--color-0,hsl(0 0 0/0.85))"></path>
  <path d="M6.58984 6.87695C6.34375 6.87695 6.15234 6.68555 6.15234 6.42578C6.15234 6.17969 6.34375 5.97461 6.58984 5.97461L7.32812 5.97461C7.17773 6.26172 7.12305 6.58984 7.13672 6.87695ZM10.4863 6.87695L10.0078 6.16602C9.98047 6.09766 9.95312 6.05664 9.89844 5.97461L18.4297 5.97461C18.3887 6.04297 18.375 6.08398 18.334 6.16602L17.8281 6.87695ZM21.2051 6.87695C21.2324 6.5625 21.1641 6.23438 21.0137 5.97461L21.5742 5.97461C21.8066 5.97461 22.0117 6.17969 22.0117 6.42578C22.0117 6.68555 21.8203 6.87695 21.5742 6.87695ZM14.2324 11.0605C13.2891 11.0605 12.5234 10.3086 12.5234 9.36523C12.5234 8.42188 13.2891 7.65625 14.2324 7.65625C15.1621 7.65625 15.9277 8.42188 15.9277 9.36523C15.9277 10.3086 15.1621 11.0605 14.2324 11.0605ZM10.2402 17.7598L7.80664 14.8477L5.48242 17.1582C5.18164 17.4316 4.7168 17.4863 4.34766 17.1582C4.01953 16.8438 4.01953 16.3516 4.34766 16.0098L7.23242 13.125C7.58789 12.7559 8.09375 12.7832 8.43555 13.0703L10.7734 15.0938L11.6895 13.6855C12.0312 13.1797 11.8672 13.0703 11.6895 12.8105L7.94336 7.19141C7.69727 6.82227 7.7793 6.31641 8.16211 6.05664C8.54492 5.81055 9.03711 5.91992 9.29688 6.30273L12.332 10.8691C12.7832 11.5391 13.5352 11.8672 14.2324 11.8672C14.9023 11.8672 15.5176 11.5938 15.9004 11.0195L19.0449 6.30273C19.3047 5.91992 19.8105 5.81055 20.1797 6.05664C20.5488 6.31641 20.6582 6.82227 20.3984 7.19141L13.4668 17.582C12.7012 18.7168 11.1699 18.8945 10.2402 17.7598ZM11.8672 23.5703C11.6484 23.9258 11.1562 24.0488 10.7598 23.8027L7.41016 21.5879C7.02734 21.3418 6.93164 20.8223 7.19141 20.4531L9.16016 17.541L9.70703 18.1973C10.0078 18.5527 10.3633 18.8262 10.7188 18.9766L9.07812 20.7676L11.6484 22.4766C12.0449 22.7227 12.127 23.1875 11.8672 23.5703Z" style="fill:var(--color-1,white)"></path>
 </g>
</svg>