<?xml version="1.0" encoding="UTF-8"?>
<!--Generator: Apple Native CoreSVG 326-->
<!DOCTYPE svg
PUBLIC "-//W3C//DTD SVG 1.1//EN"
       "http://www.w3.org/Graphics/SVG/1.1/DTD/svg11.dtd">
<svg version="1.1" xmlns="http://www.w3.org/2000/svg" xmlns:xlink="http://www.w3.org/1999/xlink" viewBox="0 0 28.2461 27.9043">
 <g>
  <rect height="27.9043" opacity="0" width="28.2461" x="0" y="0"/>
  <path d="M13.9453 27.8906C21.6426 27.8906 27.8906 21.6426 27.8906 13.9453C27.8906 6.24805 21.6426 0 13.9453 0C6.24805 0 0 6.24805 0 13.9453C0 21.6426 6.24805 27.8906 13.9453 27.8906ZM13.9453 25.5664C7.51953 25.5664 2.32422 20.3711 2.32422 13.9453C2.32422 7.51953 7.51953 2.32422 13.9453 2.32422C20.3711 2.32422 25.5664 7.51953 25.5664 13.9453C25.5664 20.3711 20.3711 25.5664 13.9453 25.5664Z" fill="white" fill-opacity="0.85"/>
  <path d="M9.5293 11.0605C10.4316 11.0605 11.1562 10.3223 11.1562 9.40625C11.1562 8.50391 10.4316 7.76562 9.5293 7.76562C8.59961 7.76562 7.875 8.50391 7.875 9.40625C7.875 10.3223 8.59961 11.0605 9.5293 11.0605ZM13.6445 18.9629L15.9824 15.75L17.4727 18.457C17.9512 20.7812 18.0059 22.1348 18.0059 22.4082C18.0059 22.873 18.3613 23.2285 18.7988 23.2285C19.2363 23.2285 19.5645 22.873 19.5645 22.4219C19.5645 21.8066 19.5098 19.9746 18.9766 18.0195L18.9355 17.8965C18.0879 14.8203 16.3105 9.00977 11.1973 5.60547C10.9512 5.44141 10.7188 5.35938 10.4453 5.35938L7.82031 5.35938C7.41016 5.35938 7.05469 5.71484 7.05469 6.13867C7.05469 6.57617 7.41016 6.93164 7.82031 6.93164L10.3906 6.93164C11.1973 7.47852 11.9082 8.09375 12.5371 8.73633C12.6191 8.83203 12.6328 8.95508 12.5918 9.05078L9.9668 13.5215C9.63867 14.082 10.0352 14.6836 10.6367 14.6836L14.2051 14.6836L12.3184 18.1289L12.25 18.2656L10.1855 22.0664C9.99414 22.4355 10.1172 22.9277 10.4863 23.1191C10.8418 23.3105 11.3066 23.2422 11.5391 22.8047ZM11.9902 13.1387L12.5645 12.1406C12.6602 11.9902 12.8379 12.0039 12.9199 12.127L13.5762 13.1387Z" fill="white" fill-opacity="0.85"/>
 </g>
</svg>
