<?xml version="1.0" encoding="UTF-8"?>
<!--Generator: Apple Native CoreSVG 326-->
<!DOCTYPE svg
PUBLIC "-//W3C//DTD SVG 1.1//EN"
       "http://www.w3.org/Graphics/SVG/1.1/DTD/svg11.dtd">
<svg version="1.1" xmlns="http://www.w3.org/2000/svg" xmlns:xlink="http://www.w3.org/1999/xlink" viewBox="0 0 27.4566 34.3027">
 <g>
  <rect height="34.3027" opacity="0" width="27.4566" x="0" y="0"/>
  <path d="M16.073 5.97461C17.7136 5.97461 19.0535 4.64844 19.0535 2.9668C19.0535 1.32617 17.7136 0 16.073 0C14.4187 0 13.0789 1.32617 13.0789 2.9668C13.0789 4.64844 14.4187 5.97461 16.073 5.97461ZM2.77028 22.4355L11.78 22.4355C13.0379 22.4355 13.5847 21.041 12.8738 20.1797L10.0574 16.7207L18.1238 16.1875L25.698 16.1875C26.4636 16.1875 27.1062 15.5723 27.1062 14.8066C27.1062 14.0547 26.4636 13.4121 25.698 13.4121L11.6843 13.4121L14.9929 10.0898C15.1433 9.95312 15.3347 9.85742 15.5398 9.88477L25.4656 11.1699C26.2722 11.2656 27.0105 10.6504 27.0105 9.80273C27.0105 9.11914 26.5047 8.51758 25.8074 8.43555L5.02614 5.81055C4.58864 5.75586 4.19215 5.90625 3.8777 6.19336L0.405046 9.66602C-0.141829 10.2129-0.128158 11.0469 0.405046 11.6074C0.897233 12.127 1.79958 12.1816 2.36012 11.6074L5.35426 8.62695L8.5945 9.03711C8.89528 9.06445 9.01833 9.39258 8.79958 9.61133L5.73708 12.6328C4.54762 13.8086 4.47926 15.709 5.73708 16.9668L8.41676 19.6738L2.77028 19.6738C2.00465 19.6738 1.38942 20.2891 1.38942 21.0547C1.38942 21.8066 2.00465 22.4355 2.77028 22.4355ZM16.2234 34.3027C16.6472 34.3027 16.9754 33.9746 16.9754 33.5508L16.9754 19.3047C16.9754 18.8809 16.6472 18.5527 16.2234 18.5527C15.7996 18.5527 15.4578 18.8809 15.4578 19.3047L15.4578 33.5508C15.4578 33.9746 15.7996 34.3027 16.2234 34.3027Z" fill="white" fill-opacity="0.85"/>
 </g>
</svg>
