<?xml version="1.0" encoding="UTF-8"?>
<!--Generator: Apple Native CoreSVG 326-->
<!DOCTYPE svg
PUBLIC "-//W3C//DTD SVG 1.1//EN"
       "http://www.w3.org/Graphics/SVG/1.1/DTD/svg11.dtd">
<svg version="1.1" xmlns="http://www.w3.org/2000/svg" xmlns:xlink="http://www.w3.org/1999/xlink" viewBox="0 0 29.6324 25.0332">
 <g>
  <rect height="25.0332" opacity="0" width="29.6324" x="0" y="0"/>
  <path d="M14.7068 5.97461C16.3474 5.97461 17.6873 4.63477 17.6873 2.9668C17.6873 1.32617 16.3474 0 14.7068 0C13.0389 0 11.7127 1.32617 11.7127 2.9668C11.7127 4.63477 13.0389 5.97461 14.7068 5.97461ZM1.99198 18.6211L8.85526 19.1953C10.0857 19.3047 10.3455 19.3867 11.5213 19.7148L19.8885 22.0664L27.408 24.8145C28.0642 25.0469 28.9529 24.8145 29.2127 23.9805C29.4314 23.2559 29.1033 22.4629 28.3787 22.2031L20.8728 19.4688C20.7498 19.4277 20.5037 19.332 20.408 19.291L14.5701 17.1855C15.3494 15.6953 16.4021 13.3027 16.6756 10.7051C16.7029 10.4043 16.8943 10.2539 17.1678 10.2539L27.2029 10.2539C27.9822 10.2539 28.5838 9.625 28.5838 8.85938C28.5838 8.08008 27.9822 7.46484 27.2029 7.46484L16.1971 7.46484C14.3514 7.46484 14.1873 7.45117 12.1775 6.9043L1.77323 4.01953C1.02128 3.81445 0.269323 4.25195 0.0505735 4.99023C-0.154505 5.74219 0.282995 6.50781 1.02128 6.71289L10.7283 9.39258C10.9744 9.46094 11.1385 9.65234 11.1111 9.93945C10.7967 12.3867 9.60721 14.752 8.97831 15.832L3.49589 15.832L3.49589 10.2539C3.49589 9.48828 2.83964 8.85938 2.08768 8.85938C1.32206 8.85938 0.693152 9.48828 0.693152 10.2539L0.693152 17.2129C0.693152 18.0332 1.06229 18.5254 1.99198 18.6211Z" fill="white" fill-opacity="0.85"/>
 </g>
</svg>
