<svg version="1.1" xmlns="http://www.w3.org/2000/svg" xmlns:xlink="http://www.w3.org/1999/xlink" viewBox="0 0 28.2461 27.9043">
 <g>
  
  <path d="M13.9453 27.8906C21.6426 27.8906 27.8906 21.6426 27.8906 13.9453C27.8906 6.24805 21.6426 0 13.9453 0C6.24805 0 0 6.24805 0 13.9453C0 21.6426 6.24805 27.8906 13.9453 27.8906ZM13.9453 25.5664C7.51953 25.5664 2.32422 20.3711 2.32422 13.9453C2.32422 7.51953 7.51953 2.32422 13.9453 2.32422C20.3711 2.32422 25.5664 7.51953 25.5664 13.9453C25.5664 20.3711 20.3711 25.5664 13.9453 25.5664Z" style="fill:var(--color-0,hsl(0 0 0/0.85))"></path>
  <path d="M15.2168 7.7793C16.1191 7.7793 16.8574 7.05469 16.8574 6.125C16.8574 5.22266 16.1191 4.48438 15.2168 4.48438C14.3008 4.48438 13.5625 5.22266 13.5625 6.125C13.5625 7.05469 14.3008 7.7793 15.2168 7.7793ZM7.875 16.8711L12.8516 16.8711C13.5215 16.8711 13.8359 16.1055 13.4531 15.627L11.8809 13.7129L16.3516 13.4121L20.5215 13.4121C20.959 13.4121 21.3008 13.084 21.3008 12.6602C21.3008 12.25 20.959 11.8945 20.5215 11.8945L12.7969 11.8945L14.6289 10.0488C14.6973 9.98047 14.8066 9.92578 14.916 9.95312L20.3984 10.6504C20.8496 10.6914 21.2598 10.3633 21.2598 9.89844C21.2598 9.5293 20.9727 9.20117 20.5898 9.14648L9.11914 7.69727C8.87305 7.65625 8.6543 7.73828 8.49023 7.90234L6.5625 9.81641C6.24805 10.1309 6.27539 10.582 6.5625 10.8965C6.83594 11.1836 7.35547 11.2109 7.65625 10.8965L9.29688 9.24219L11.0879 9.47461C11.2656 9.48828 11.3203 9.66602 11.1973 9.78906L9.51562 11.457C8.8457 12.127 8.81836 13.1523 9.51562 13.8496L10.9922 15.3535L7.875 15.3535C7.4375 15.3535 7.10938 15.6816 7.10938 16.1055C7.10938 16.5156 7.4375 16.8711 7.875 16.8711ZM14.834 23.0098C14.834 23.2695 15.0254 23.4746 15.2988 23.4746C15.5586 23.4746 15.7637 23.2695 15.7637 23.0098L15.7637 15.1484C15.7637 14.875 15.5586 14.6699 15.2988 14.6699C15.0254 14.6699 14.834 14.875 14.834 15.1484Z" style="fill:var(--color-1,hsl(0 0 0/0.85))"></path>
 </g>
</svg>