<svg version="1.1" xmlns="http://www.w3.org/2000/svg" xmlns:xlink="http://www.w3.org/1999/xlink" viewBox="0 0 28.2461 27.9043">
 <g>
  
  <path d="M13.9453 27.8906C21.6426 27.8906 27.8906 21.6426 27.8906 13.9453C27.8906 6.24805 21.6426 0 13.9453 0C6.24805 0 0 6.24805 0 13.9453C0 21.6426 6.24805 27.8906 13.9453 27.8906ZM13.9453 25.5664C7.51953 25.5664 2.32422 20.3711 2.32422 13.9453C2.32422 7.51953 7.51953 2.32422 13.9453 2.32422C20.3711 2.32422 25.5664 7.51953 25.5664 13.9453C25.5664 20.3711 20.3711 25.5664 13.9453 25.5664Z" style="fill:var(--color-0,hsl(0 0 0/0.85))"></path>
  <path d="M13.9316 8.20312C14.834 8.20312 15.5859 7.46484 15.5859 6.5625C15.5859 5.66016 14.834 4.9082 13.9316 4.9082C13.0293 4.9082 12.3047 5.66016 12.3047 6.5625C12.3047 7.46484 13.0293 8.20312 13.9316 8.20312ZM9.57031 12.0723C8.68164 13.3027 9.47461 14.9844 11.2246 14.7246L14 14.3008L12.9336 17.5C12.5781 18.5391 14.0547 18.9902 14.3828 17.9922L15.8184 13.6719C15.9961 13.1387 15.6543 12.6328 15.0527 12.6328L12.3184 12.6328L13.7539 10.7188C13.8906 10.5273 13.9863 10.5 14.1777 10.5L19.8242 10.5C20.2207 10.5 20.5762 10.1719 20.5762 9.74805C20.5762 9.33789 20.248 8.98242 19.8242 8.98242L12.6465 8.98242C12.1133 8.98242 11.5938 9.26953 11.2656 9.7207ZM10.2539 22.0527C10.2539 22.3945 10.4727 22.627 10.8418 22.627L16.502 22.627C16.8438 22.627 17.0898 22.3945 17.0898 22.0527L17.0898 19.7695C17.0898 19.4277 16.8438 19.209 16.502 19.209L10.8418 19.209C10.4727 19.209 10.2539 19.4277 10.2539 19.7695Z" style="fill:var(--color-1,hsl(0 0 0/0.85))"></path>
 </g>
</svg>