<svg version="1.1" xmlns="http://www.w3.org/2000/svg" xmlns:xlink="http://www.w3.org/1999/xlink" viewBox="0 0 33.2979 32.6273">
 <g>
  
  <path d="M3.56494 1.92403L5.80713 1.92403C5.71143 1.41817 5.76611 0.884964 5.95752 0.406448L3.56494 0.406448C3.14111 0.406448 2.79932 0.748245 2.79932 1.17207C2.79932 1.5959 3.14111 1.92403 3.56494 1.92403ZM12.1099 1.92403L24.7153 1.92403L25.5767 0.652542C25.6313 0.584183 25.686 0.488479 25.7407 0.406448L11.0981 0.406448C11.1528 0.488479 11.2075 0.584183 11.2622 0.666214ZM31.0317 1.92403L32.1938 1.92403C32.6177 1.92403 32.9458 1.5959 32.9458 1.17207C32.9458 0.748245 32.6177 0.406448 32.1938 0.406448L30.8813 0.406448C31.0728 0.884964 31.1274 1.4045 31.0317 1.92403ZM18.5083 9.29317C20.1626 9.29317 21.5024 7.967 21.5024 6.3127C21.5024 4.6584 20.1626 3.31856 18.5083 3.31856C16.854 3.31856 15.5278 4.6584 15.5278 6.3127C15.5278 7.967 16.854 9.29317 18.5083 9.29317ZM11.2622 21.4201C12.9165 23.4025 15.5825 23.1291 16.9224 21.1193L29.5278 2.25215C29.9653 1.58223 29.7876 0.707229 29.1313 0.269729C28.4888-0.167771 27.6001-0.00370804 27.1489 0.666214L21.4478 9.23848C20.8052 10.2229 19.6841 10.7424 18.5083 10.7424C17.2642 10.7424 15.9927 10.1545 15.186 8.95137L9.68994 0.666214C9.25244-0.00370804 8.37744-0.167771 7.70752 0.269729C7.05127 0.707229 6.87354 1.58223 7.31104 2.25215L14.0513 12.3557C14.3657 12.8205 14.3794 13.4494 14.0513 13.9279L12.1782 16.758L8.07666 13.2033C7.50244 12.6838 6.61377 12.6564 5.98486 13.2854L0.42041 18.8772C-0.140137 19.4514-0.140137 20.3127 0.42041 20.8732C1.03564 21.4611 1.8833 21.3928 2.40283 20.8732L6.99658 16.3068ZM14.6255 31.9885C15.063 31.3322 14.8989 30.4982 14.229 30.0471L9.2251 26.6975L11.9868 23.6486C11.3579 23.3479 10.7837 22.883 10.2505 22.2678L9.26611 21.1193L5.90283 26.1779C5.46533 26.8205 5.62939 27.7092 6.28564 28.1604L12.6841 32.385C13.3403 32.8361 14.2153 32.6311 14.6255 31.9885Z" style="fill:var(--color-0,hsl(0 0 0/0.85))"></path>
 </g>
</svg>