<svg version="1.1" xmlns="http://www.w3.org/2000/svg" xmlns:xlink="http://www.w3.org/1999/xlink" viewBox="0 0 16.7682 30.7207">
 <g>
  
  <path d="M8.20637 5.96094C9.86067 5.96094 11.1868 4.63477 11.1868 2.98047C11.1868 1.32617 9.86067 0 8.20637 0C6.56575 0 5.23958 1.32617 5.23958 2.98047C5.23958 4.63477 6.56575 5.96094 8.20637 5.96094ZM6.41536 30.4336C7.16731 30.4336 7.7552 29.8457 7.7552 29.1074L7.7552 23.2422C7.7552 22.9961 7.96028 22.7773 8.20637 22.7773C8.45247 22.7773 8.67122 22.9961 8.67122 23.2422L8.67122 29.1074C8.67122 29.8457 9.25911 30.4336 9.99739 30.4336C10.7357 30.4336 11.3372 29.8457 11.3372 29.1074L11.3372 23.2422L13.1829 23.2422C13.9349 23.2422 14.2767 22.5996 14.0306 21.8613L11.2415 13.3848C11.0365 12.7422 11.9115 12.4824 12.1302 13.1523L13.9622 18.6895C14.5228 20.4121 16.888 19.7148 16.3275 17.9922L14.3724 12.0996C13.3197 8.88672 11.7611 7.5332 8.52083 7.5332L7.90559 7.5332C4.66536 7.5332 3.09309 8.88672 2.04036 12.0996L0.0852791 17.9922C-0.475268 19.7148 1.88997 20.4121 2.45051 18.6895L4.28254 13.1523C4.50129 12.4824 5.38997 12.7422 5.17122 13.3848L2.38215 21.8613C2.14973 22.5996 2.47786 23.2422 3.22981 23.2422L5.08919 23.2422L5.08919 29.1074C5.08919 29.8457 5.67708 30.4336 6.41536 30.4336Z" style="fill:var(--color-0,hsl(0 0 0/0.85))"></path>
 </g>
</svg>