<?xml version="1.0" encoding="UTF-8"?>
<!--Generator: Apple Native CoreSVG 326-->
<!DOCTYPE svg
PUBLIC "-//W3C//DTD SVG 1.1//EN"
       "http://www.w3.org/Graphics/SVG/1.1/DTD/svg11.dtd">
<svg version="1.1" xmlns="http://www.w3.org/2000/svg" xmlns:xlink="http://www.w3.org/1999/xlink" viewBox="0 0 28.2461 27.9043">
 <g>
  <rect height="27.9043" opacity="0" width="28.2461" x="0" y="0"/>
  <path d="M13.9453 27.8906C21.6426 27.8906 27.8906 21.6426 27.8906 13.9453C27.8906 6.24805 21.6426 0 13.9453 0C6.24805 0 0 6.24805 0 13.9453C0 21.6426 6.24805 27.8906 13.9453 27.8906ZM13.9453 25.5664C7.51953 25.5664 2.32422 20.3711 2.32422 13.9453C2.32422 7.51953 7.51953 2.32422 13.9453 2.32422C20.3711 2.32422 25.5664 7.51953 25.5664 13.9453C25.5664 20.3711 20.3711 25.5664 13.9453 25.5664Z" fill="white" fill-opacity="0.85"/>
  <path d="M10.4453 9.00977C11.3477 9.00977 12.0859 8.27148 12.0859 7.3418C12.0859 6.43945 11.3477 5.70117 10.4453 5.70117C9.5293 5.70117 8.79102 6.43945 8.79102 7.3418C8.79102 8.27148 9.5293 9.00977 10.4453 9.00977ZM21.0957 19.25L16.6387 16.8438L13.7539 14.8477C13.5352 14.6973 13.3438 14.5059 13.166 14.3008C13.4668 14.123 13.5762 13.7812 13.4941 13.4531L12.9336 11.1699C12.7285 10.3496 11.9902 9.81641 11.1699 9.81641L9.37891 9.81641C8.81836 9.81641 8.44922 9.93945 8.08008 10.2949L6.0293 12.3457C5.7832 12.5781 5.75586 12.9746 5.91992 13.2617L7.35547 15.791L7.35547 19.9336C7.35547 20.3438 7.71094 20.6992 8.12109 20.6992C8.55859 20.6992 8.90039 20.3438 8.90039 19.9336L8.90039 16.4062L13.3027 16.7344L15.9551 18.2383L20.3711 20.5898C20.8223 20.8359 21.2598 20.6309 21.4102 20.3027C21.6016 19.9336 21.4648 19.4414 21.0957 19.25ZM7.54688 13.0156L8.87305 11.6758L9.91211 14.3418L9.10547 14.8066L8.57227 14.8066Z" fill="white" fill-opacity="0.85"/>
 </g>
</svg>
