<?xml version="1.0" encoding="UTF-8"?>
<!--Generator: Apple Native CoreSVG 326-->
<!DOCTYPE svg
PUBLIC "-//W3C//DTD SVG 1.1//EN"
       "http://www.w3.org/Graphics/SVG/1.1/DTD/svg11.dtd">
<svg version="1.1" xmlns="http://www.w3.org/2000/svg" xmlns:xlink="http://www.w3.org/1999/xlink" viewBox="0 0 28.2461 27.9043">
 <g>
  <rect height="27.9043" opacity="0" width="28.2461" x="0" y="0"/>
  <path d="M13.9453 27.8906C21.6426 27.8906 27.8906 21.6426 27.8906 13.9453C27.8906 6.24805 21.6426 0 13.9453 0C6.24805 0 0 6.24805 0 13.9453C0 21.6426 6.24805 27.8906 13.9453 27.8906ZM13.9453 25.5664C7.51953 25.5664 2.32422 20.3711 2.32422 13.9453C2.32422 7.51953 7.51953 2.32422 13.9453 2.32422C20.3711 2.32422 25.5664 7.51953 25.5664 13.9453C25.5664 20.3711 20.3711 25.5664 13.9453 25.5664Z" fill="white" fill-opacity="0.85"/>
  <path d="M19.127 10.541C20.0293 10.541 20.7676 9.80273 20.7676 8.88672C20.7676 7.9707 20.0293 7.24609 19.127 7.24609C18.1973 7.24609 17.4727 7.9707 17.4727 8.88672C17.4727 9.80273 18.1973 10.541 19.127 10.541ZM5.85156 18.2793L10.2949 17.1719L10.2949 18.2109C10.2949 18.6348 10.6504 18.9629 11.0605 18.9629C11.4844 18.9629 11.8398 18.6348 11.8398 18.2109L11.8398 16.8848L15.0664 16.4062C15.6543 16.3105 16.2285 16.0645 16.7344 15.6816L19.5098 13.5898C19.6191 13.5215 19.7695 13.5352 19.8242 13.6582L20.6445 15.3262L20.6445 18.2109C20.6445 18.6621 20.9727 18.9629 21.4238 18.9629C21.875 18.9629 22.1758 18.6621 22.1758 18.2109L22.1758 15.1484C22.1758 15.0254 22.1621 14.9023 22.1074 14.793L20.7812 12.1543C20.5215 11.6211 20.002 11.3066 19.4141 11.3066L18.7441 11.3066C18.0742 11.3066 17.4316 11.5117 16.8984 11.9219L14.7109 13.5625L11.498 12.9062C10.8281 12.7695 10.2949 13.0703 10.2949 13.7812L10.2949 15.5859L5.49609 16.8027C5.00391 16.9258 4.79883 17.3086 4.86719 17.6777C4.92188 18.0605 5.29102 18.4297 5.85156 18.2793ZM11.8398 15.2168L11.8398 14.6426L12.8789 14.957ZM15.4766 18.9629L18.5391 18.9629C19.168 18.9629 19.6875 18.457 19.6875 17.8145C19.6875 17.1855 19.168 16.666 18.5391 16.666L15.4766 16.666C14.834 16.666 14.3281 17.1855 14.3281 17.8145C14.3281 18.457 14.834 18.9629 15.4766 18.9629ZM18.5254 18.3203C18.252 18.3203 18.0332 18.0879 18.0332 17.8145C18.0332 17.541 18.252 17.3086 18.5254 17.3086C18.8125 17.3086 19.0312 17.541 19.0312 17.8145C19.0312 18.0879 18.8125 18.3203 18.5254 18.3203Z" fill="white" fill-opacity="0.85"/>
 </g>
</svg>
