<svg version="1.1" xmlns="http://www.w3.org/2000/svg" xmlns:xlink="http://www.w3.org/1999/xlink" viewBox="0 0 28.2461 27.9043">
 <g>
  
  <path d="M13.9453 27.8906C21.6426 27.8906 27.8906 21.6426 27.8906 13.9453C27.8906 6.24805 21.6426 0 13.9453 0C6.24805 0 0 6.24805 0 13.9453C0 21.6426 6.24805 27.8906 13.9453 27.8906ZM13.9453 25.5664C7.51953 25.5664 2.32422 20.3711 2.32422 13.9453C2.32422 7.51953 7.51953 2.32422 13.9453 2.32422C20.3711 2.32422 25.5664 7.51953 25.5664 13.9453C25.5664 20.3711 20.3711 25.5664 13.9453 25.5664Z" style="fill:var(--color-0,hsl(0 0 0/0.85))"></path>
  <path d="M14.0684 7.82031C14.9844 7.82031 15.709 7.08203 15.709 6.16602C15.709 5.26367 14.9844 4.52539 14.0684 4.52539C13.1523 4.52539 12.4277 5.26367 12.4277 6.16602C12.4277 7.08203 13.1523 7.82031 14.0684 7.82031ZM7.60156 22.1348C7.91602 22.3945 8.39453 22.3809 8.69531 22.0527L11.1152 19.291C11.252 19.127 11.334 18.9492 11.3613 18.7441L11.7031 15.4219C11.7168 15.3262 11.8262 15.2715 11.9082 15.3672L14.0684 17.8691L14.0684 21.7246C14.0684 22.1484 14.4238 22.5039 14.8613 22.5039C15.2715 22.5039 15.6406 22.1484 15.6406 21.7246L15.6406 17.6094C15.6406 17.3906 15.5723 17.2539 15.4766 17.1172L13.166 13.7539L14.3008 10.418C14.3555 10.2402 14.4785 10.1719 14.6562 10.1719L20.6992 10.1719C21.123 10.1719 21.4922 9.83008 21.4922 9.39258C21.4922 8.96875 21.123 8.61328 20.6992 8.61328L11.5938 8.61328C10.9648 8.61328 10.4453 8.79102 9.93945 9.29688L8.46289 10.8008C7.95703 11.3066 8.23047 12.127 8.91406 12.127L10.3223 12.127L10.0078 13.0293C9.85742 13.5078 9.78906 14.0137 9.78906 14.4922L9.78906 18.457L7.5332 21.0273C7.23242 21.3555 7.25977 21.8477 7.60156 22.1348ZM20.6992 10.9648C21.3281 10.9648 21.8613 10.4316 21.8613 9.77539C21.8613 9.14648 21.3281 8.61328 20.6992 8.61328C20.043 8.61328 19.5098 9.14648 19.5098 9.77539C19.5098 10.4316 20.043 10.9648 20.6992 10.9648Z" style="fill:var(--color-1,hsl(0 0 0/0.85))"></path>
 </g>
</svg>