<?xml version="1.0" encoding="UTF-8"?>
<!--Generator: Apple Native CoreSVG 326-->
<!DOCTYPE svg
PUBLIC "-//W3C//DTD SVG 1.1//EN"
       "http://www.w3.org/Graphics/SVG/1.1/DTD/svg11.dtd">
<svg version="1.1" xmlns="http://www.w3.org/2000/svg" xmlns:xlink="http://www.w3.org/1999/xlink" viewBox="0 0 28.2461 27.9043">
 <g>
  <rect height="27.9043" opacity="0" width="28.2461" x="0" y="0"/>
  <path d="M13.9453 27.8906C21.6426 27.8906 27.8906 21.6426 27.8906 13.9453C27.8906 6.24805 21.6426 0 13.9453 0C6.24805 0 0 6.24805 0 13.9453C0 21.6426 6.24805 27.8906 13.9453 27.8906ZM13.9453 25.5664C7.51953 25.5664 2.32422 20.3711 2.32422 13.9453C2.32422 7.51953 7.51953 2.32422 13.9453 2.32422C20.3711 2.32422 25.5664 7.51953 25.5664 13.9453C25.5664 20.3711 20.3711 25.5664 13.9453 25.5664Z" fill="white" fill-opacity="0.85"/>
  <path d="M14.5059 8.18945C15.4082 8.18945 16.1465 7.45117 16.1465 6.53516C16.1465 5.63281 15.4082 4.9082 14.5059 4.9082C13.5898 4.9082 12.8652 5.63281 12.8652 6.53516C12.8652 7.45117 13.5898 8.18945 14.5059 8.18945ZM7.54688 22.0391C7.84766 22.3262 8.3125 22.3672 8.6543 22.0391L11.9492 18.7441C12.1543 18.5527 12.1953 18.3887 12.168 18.1016L11.9766 15.9551C11.9629 15.832 12.0996 15.7637 12.1816 15.8457L14.5469 17.8965L15.791 21.7109C15.9277 22.1621 16.3789 22.3398 16.7617 22.2168C17.1992 22.0938 17.4043 21.6562 17.2812 21.2461L15.9961 17.2129C15.9551 17.1035 15.8867 16.9668 15.8047 16.8984L13.2617 14.3691L14.8887 11.0879C14.9707 10.9512 15.1211 10.9238 15.2305 11.0332L17.0762 12.8926C17.1582 12.9746 17.2812 13.043 17.3906 13.084L21.0684 14.1777C21.3691 14.2598 21.875 14.1367 22.0391 13.6309C22.1621 13.2344 21.9297 12.7969 21.5059 12.6738L18.0332 11.6484L16.0508 9.63867C15.5859 9.1875 15.0664 8.98242 14.4512 8.98242L9.21484 8.98242C8.90039 8.98242 8.62695 9.14648 8.51758 9.41992L7.02734 12.3457C6.83594 12.7285 6.97266 13.1934 7.38281 13.3848C7.7793 13.5625 8.23047 13.4258 8.42188 13.043L9.67969 10.5547L11.2246 10.5547C11.4023 10.5547 11.5117 10.7188 11.4297 10.8828L10.2812 13.166C9.87109 13.9863 9.76172 14.9297 9.99414 15.8047L10.541 17.9375L7.5332 20.918C7.23242 21.2188 7.24609 21.7246 7.54688 22.0391ZM21.3008 18.6074C22.2852 18.6074 23.0781 17.8008 23.0781 16.8027C23.0781 15.832 22.2852 15.0254 21.3008 15.0254C20.3027 15.0254 19.4961 15.832 19.4961 16.8027C19.4961 17.8008 20.3027 18.6074 21.3008 18.6074Z" fill="white" fill-opacity="0.85"/>
 </g>
</svg>
