<?xml version="1.0" encoding="UTF-8"?>
<!--Generator: Apple Native CoreSVG 326-->
<!DOCTYPE svg
PUBLIC "-//W3C//DTD SVG 1.1//EN"
       "http://www.w3.org/Graphics/SVG/1.1/DTD/svg11.dtd">
<svg version="1.1" xmlns="http://www.w3.org/2000/svg" xmlns:xlink="http://www.w3.org/1999/xlink" viewBox="0 0 36.5399 32.1699">
 <g>
  <rect height="32.1699" opacity="0" width="36.5399" x="0" y="0"/>
  <path d="M31.0668 10.3633L34.6078 15.5723C34.7445 15.7773 34.8813 15.9824 35.0043 16.1875C35.2914 16.707 35.1274 17.459 34.4301 17.8281C33.8832 18.1289 33.2406 18.0469 32.8305 17.582C32.4613 17.1445 30.5883 14.4648 29.5629 13.0293C29.4262 12.8379 29.1801 12.9199 29.1801 13.1387C29.1801 14.5742 29.2348 17.6094 29.4672 19.1133C29.7406 20.8223 31.7367 29.1074 31.8324 29.4766C32.0785 30.3379 31.5453 31.1309 30.6703 31.1309C30.0277 31.1309 29.5902 30.7754 29.3578 29.9277C28.893 28.2461 27.4984 22.5176 27.0473 21.1367C26.7328 20.1523 26.5141 19.7695 25.9535 19.7695C25.393 19.7695 25.1742 20.1523 24.8598 21.1367C24.3949 22.5176 23.0141 28.2461 22.5492 29.9277C22.3168 30.7754 21.8793 31.1309 21.2367 31.1309C20.3617 31.1309 19.8285 30.3379 20.0746 29.4766C20.1703 29.1074 22.1527 20.8223 22.4262 19.1133C22.6586 17.6094 22.727 14.5879 22.727 13.1523C22.727 12.9199 22.4672 12.8516 22.3441 13.0293C21.7879 13.8155 20.9782 14.9597 20.2958 15.9104C20.2644 15.8323 20.2266 15.756 20.184 15.6816C20.0746 15.4355 19.8969 15.1895 19.7465 14.9844L18.726 13.4734L20.8402 10.3633C21.9613 8.70898 23.3559 7.9707 25.9535 7.9707C28.5512 7.9707 29.932 8.70898 31.0668 10.3633ZM28.9066 3.5957C28.9066 5.23633 27.5941 6.53516 25.9535 6.53516C24.3129 6.53516 23.0004 5.23633 23.0004 3.5957C23.0004 1.95508 24.3129 0.642578 25.9535 0.642578C27.5941 0.642578 28.9066 1.95508 28.9066 3.5957Z" fill="white" fill-opacity="0.85"/>
  <path d="M10.2309 6.53516C11.8715 6.53516 13.184 5.23633 13.184 3.5957C13.184 1.95508 11.8715 0.642578 10.2309 0.642578C8.59024 0.642578 7.27774 1.95508 7.27774 3.5957C7.27774 5.23633 8.59024 6.53516 10.2309 6.53516ZM10.2309 19.7695C10.7914 19.7695 11.0102 20.1523 11.3246 21.1367C11.7895 22.5176 13.1703 28.2461 13.6352 29.9277C13.8676 30.7754 14.3051 31.1309 14.9477 31.1309C15.8227 31.1309 16.3559 30.3379 16.1098 29.4766C16.0141 29.1074 14.0316 20.8223 13.7582 19.1133C13.5258 17.6094 13.4574 14.5742 13.4574 13.1387C13.4574 12.9199 13.7035 12.8379 13.8402 13.0293C14.8656 14.4648 16.7524 17.1445 17.1215 17.582C17.518 18.0469 18.1742 18.1289 18.7211 17.8281C19.4184 17.459 19.5688 16.707 19.2816 16.1875C19.1723 15.9824 19.0219 15.7773 18.8852 15.5723L15.3441 10.3633C14.2231 8.70898 12.8285 7.9707 10.2309 7.9707C7.63321 7.9707 6.23868 8.70898 5.11758 10.3633L1.57657 15.5723C1.43985 15.7773 1.28946 15.9824 1.18008 16.1875C0.892976 16.707 1.05704 17.459 1.7543 17.8281C2.28751 18.1289 2.94376 18.0469 3.35391 17.582C3.72305 17.1445 5.5961 14.4785 6.62149 13.0293C6.74454 12.8516 7.0043 12.9199 7.0043 13.1523C7.0043 14.5879 6.94962 17.6094 6.71719 19.1133C6.43008 20.8223 4.44766 29.1074 4.35196 29.4766C4.10587 30.3379 4.63907 31.1309 5.51407 31.1309C6.15665 31.1309 6.59415 30.7754 6.82657 29.9277C7.29141 28.2461 8.67227 22.5176 9.13712 21.1367C9.45157 20.1523 9.67032 19.7695 10.2309 19.7695Z" fill="white" fill-opacity="0.85"/>
 </g>
</svg>
