<?xml version="1.0" encoding="UTF-8"?>
<!--Generator: Apple Native CoreSVG 326-->
<!DOCTYPE svg
PUBLIC "-//W3C//DTD SVG 1.1//EN"
       "http://www.w3.org/Graphics/SVG/1.1/DTD/svg11.dtd">
<svg version="1.1" xmlns="http://www.w3.org/2000/svg" xmlns:xlink="http://www.w3.org/1999/xlink" viewBox="0 0 28.2461 27.9043">
 <g>
  <rect height="27.9043" opacity="0" width="28.2461" x="0" y="0"/>
  <path d="M13.9453 27.8906C21.6426 27.8906 27.8906 21.6426 27.8906 13.9453C27.8906 6.24805 21.6426 0 13.9453 0C6.24805 0 0 6.24805 0 13.9453C0 21.6426 6.24805 27.8906 13.9453 27.8906ZM13.9453 25.5664C7.51953 25.5664 2.32422 20.3711 2.32422 13.9453C2.32422 7.51953 7.51953 2.32422 13.9453 2.32422C20.3711 2.32422 25.5664 7.51953 25.5664 13.9453C25.5664 20.3711 20.3711 25.5664 13.9453 25.5664Z" fill="white" fill-opacity="0.85"/>
  <path d="M13.4531 9.39258C14.3555 9.39258 15.0938 8.66797 15.0938 7.75195C15.0938 6.84961 14.3555 6.11133 13.4531 6.11133C12.5508 6.11133 11.7988 6.84961 11.7988 7.75195C11.7988 8.66797 12.5508 9.39258 13.4531 9.39258ZM9.35156 22.627C9.77539 22.709 10.1582 22.4355 10.2402 21.998L10.8965 18.416L13.9043 16.7754C13.9863 16.7344 14.0684 16.7617 14.1094 16.8301L15.627 20.4941C15.709 20.6855 15.8594 20.8223 16.0098 20.918L19.0312 22.5996C19.4824 22.832 19.9199 22.6406 20.0977 22.2988C20.3164 21.9297 20.1934 21.4512 19.7969 21.2324L17.0215 19.6875L14.875 11.0742C14.752 10.5684 14.3008 10.1855 13.7402 10.1855L9.11914 10.1855L11.2793 5.60547C11.5801 4.99023 11.1426 4.58008 10.6914 4.58008C10.4316 4.58008 10.1719 4.70312 10.0488 5.01758L7.56055 11.5117C7.4375 11.8262 7.54688 12.1133 7.72461 12.291L9.65234 14.2324C9.93945 14.5332 10.4453 14.5332 10.7461 14.2324L11.5938 13.3848C11.7168 13.2617 11.8945 13.2617 11.9355 13.4258L12.3867 15.2715L9.73438 17.2676C9.54297 17.4043 9.44727 17.6367 9.41992 17.8555L8.70898 21.7246C8.64062 22.1348 8.91406 22.5586 9.35156 22.627ZM10.9922 11.7578L10.1992 12.5645L9.40625 11.7578Z" fill="white" fill-opacity="0.85"/>
 </g>
</svg>
