<svg version="1.1" xmlns="http://www.w3.org/2000/svg" xmlns:xlink="http://www.w3.org/1999/xlink" viewBox="0 0 24.2676 33.2637">
 <g>
  
  <path d="M5.74219 10.3223C7.38281 10.3223 8.70898 8.99609 8.70898 7.32812C8.70898 5.6875 7.38281 4.36133 5.74219 4.36133C4.08789 4.36133 2.74805 5.6875 2.74805 7.32812C2.74805 8.99609 4.08789 10.3223 5.74219 10.3223ZM13.1934 24.6367L17.4316 18.8125L20.1113 23.707C21.0137 27.9043 21.123 31.1172 21.123 31.6094C21.123 32.457 21.752 33.0859 22.5176 33.0859C23.3105 33.0859 23.9121 32.457 23.9121 31.6504C23.9121 31.5137 23.8438 27.8496 22.8457 22.9277L22.791 22.6816C21.6426 17.0352 18.0469 6.58984 8.76367 0.423828C8.29883 0.136719 7.88867 0 7.41016 0L1.39453 0C0.628906 0 0 0.628906 0 1.39453C0 2.20117 0.628906 2.83008 1.39453 2.83008L7.30078 2.83008C8.76367 3.8418 10.0352 4.93555 11.1973 6.11133C11.3613 6.26172 11.375 6.50781 11.2656 6.68555L6.53516 14.7656C5.96094 15.7773 6.6582 16.8848 7.75195 16.8848L14.2051 16.8848L10.8145 23.1191L10.6777 23.3652L6.50781 30.9941C6.125 31.6777 6.37109 32.5527 7.05469 32.9082C7.69727 33.25 8.57227 33.0996 8.98242 32.3477ZM10.1855 14.082L11.2383 12.291C11.4023 11.9766 11.7305 12.0449 11.8672 12.25L13.0977 14.082Z" style="fill:var(--color-0,hsl(0 0 0/0.85))"></path>
 </g>
</svg>