<svg version="1.1" xmlns="http://www.w3.org/2000/svg" xmlns:xlink="http://www.w3.org/1999/xlink" viewBox="0 0 28.2461 27.9043">
 <g>
  
  <path d="M13.9453 27.8906C21.6426 27.8906 27.8906 21.6289 27.8906 13.9453C27.8906 6.24805 21.6426 0 13.9453 0C6.26172 0 0 6.24805 0 13.9453C0 21.6289 6.26172 27.8906 13.9453 27.8906Z" style="fill:var(--color-0,hsl(0 0 0/0.85))"></path>
  <path d="M16.7207 9.13281C15.7637 9.13281 15.0117 8.38086 15.0117 7.4375C15.0117 6.48047 15.7637 5.72852 16.7207 5.72852C17.6504 5.72852 18.416 6.48047 18.416 7.4375C18.416 8.38086 17.6504 9.13281 16.7207 9.13281ZM10.623 19.332C10.2266 19.0859 10.1309 18.5664 10.3496 18.1836L11.7852 15.8867C10.0078 15.6816 9.22852 13.7812 10.1855 12.3457L11.9629 9.70703C12.0449 9.54297 12.0039 9.36523 11.8398 9.2832L10.418 8.43555L7.38281 8.43555C6.93164 8.43555 6.5625 8.05273 6.5625 7.60156C6.5625 7.16406 6.93164 6.80859 7.38281 6.80859L10.6641 6.80859C10.8008 6.80859 10.9238 6.80859 11.0742 6.9043L21.2598 13.0293C21.6426 13.2617 21.7656 13.7539 21.5469 14.1641C21.3281 14.5332 20.7949 14.6562 20.4258 14.4238L15.2578 11.3203C15.1484 11.252 14.957 11.2793 14.8613 11.4023L13.4668 13.5352C13.3027 13.7949 13.4258 14.123 13.7539 14.1641L17.1445 14.5332C17.8965 14.6426 18.1699 15.2988 17.8418 15.832L15.8184 19.0586C15.5723 19.4414 15.1074 19.5371 14.7109 19.332C14.3145 19.0996 14.2051 18.5664 14.4375 18.1836L15.75 16.1055L13.6582 16.0098L11.7578 19.0586C11.5254 19.4277 10.9922 19.5371 10.623 19.332ZM8.53125 21.2051C7.66992 21.2051 6.94531 21.041 6.37109 20.5488C6.11133 20.3164 6.13867 19.9883 6.30273 19.8105C6.48047 19.6602 6.72656 19.6055 7.01367 19.7832C7.39648 20.0977 7.82031 20.248 8.53125 20.248L19.3047 20.248C20.0156 20.248 20.4531 20.1113 20.8496 19.7832C21.1367 19.5781 21.4238 19.6602 21.5469 19.8516C21.7109 20.043 21.7246 20.3164 21.4785 20.5488C20.9043 21.041 20.1797 21.2051 19.3047 21.2051Z" style="fill:var(--color-1,white)"></path>
 </g>
</svg>