<svg version="1.1" xmlns="http://www.w3.org/2000/svg" xmlns:xlink="http://www.w3.org/1999/xlink" viewBox="0 0 28.2461 27.9043">
 <g>
  
  <path d="M13.9453 27.8906C21.6426 27.8906 27.8906 21.6426 27.8906 13.9453C27.8906 6.24805 21.6426 0 13.9453 0C6.24805 0 0 6.24805 0 13.9453C0 21.6426 6.24805 27.8906 13.9453 27.8906ZM13.9453 25.5664C7.51953 25.5664 2.32422 20.3711 2.32422 13.9453C2.32422 7.51953 7.51953 2.32422 13.9453 2.32422C20.3711 2.32422 25.5664 7.51953 25.5664 13.9453C25.5664 20.3711 20.3711 25.5664 13.9453 25.5664Z" style="fill:var(--color-0,hsl(0 0 0/0.85))"></path>
  <path d="M11.5391 9.80273C12.4414 9.80273 13.1797 9.06445 13.1797 8.13477C13.1797 7.23242 12.4414 6.49414 11.5391 6.49414C10.6094 6.49414 9.88477 7.23242 9.88477 8.13477C9.88477 9.06445 10.6094 9.80273 11.5391 9.80273ZM7.54688 15.5312C7.20508 16.7754 7.99805 17.5684 8.96875 17.5684C9.2832 17.5684 9.59766 17.4863 9.91211 17.3223L14.0137 15.1348L18.5527 17.4043C19.1133 17.6914 19.5508 17.4727 19.7148 17.1172C19.8926 16.7754 19.7832 16.2969 19.2637 16.0234L14.5195 13.6445C14.2051 13.4805 13.8633 13.4668 13.5352 13.6172L10.4727 14.9434L11.0879 12.7832C11.1973 12.4004 11.5391 12.1406 11.9355 12.1406L18.0469 12.1406C18.4707 12.1406 18.8262 11.7988 18.8262 11.3613C18.8262 10.9375 18.4707 10.5957 18.0469 10.5957L11.375 10.5957C9.85742 10.5957 8.62695 11.457 8.27148 12.7559ZM7.30078 20.0293L20.5762 20.0293C20.8496 20.0293 21.041 19.8379 21.041 19.5645C21.041 19.3047 20.8496 19.0996 20.5762 19.0996L7.30078 19.0996C7.02734 19.0996 6.83594 19.3047 6.83594 19.5645C6.83594 19.8379 7.02734 20.0293 7.30078 20.0293Z" style="fill:var(--color-1,hsl(0 0 0/0.85))"></path>
 </g>
</svg>