<svg version="1.1" xmlns="http://www.w3.org/2000/svg" xmlns:xlink="http://www.w3.org/1999/xlink" viewBox="0 0 28.1504 31.7871">
 <g>
  
  <path d="M0 30.0508C0 30.6797 0.519531 31.1992 1.13477 31.1992C1.76367 31.1992 2.2832 30.6797 2.2832 30.0508L2.2832 1.13477C2.2832 0.505859 1.76367 0 1.13477 0C0.519531 0 0 0.505859 0 1.13477Z" style="fill:var(--color-0,hsl(0 0 0/0.85))"></path>
  <path d="M25.375 30.7207L21.0684 25.5938C20.6445 25.1016 20.5898 24.9648 20.4121 24.4453L20.0703 23.3926L22.3809 20.4941L23.1055 23.8164L27.3574 28.8613C28.7246 30.4746 26.5098 32.0605 25.375 30.7207ZM14.875 30.2969C13.9863 32.1016 11.334 30.9941 12.3047 29.0527L15.2305 23.1191C15.4492 22.668 15.7637 22.1895 16.0371 21.8066L17.8965 19.1543L17.7734 18.7715C17.2539 17.2949 17.0762 16.3926 16.9805 14.916L16.6934 10.7734C16.543 8.80469 17.7051 7.30078 19.7285 7.30078C21.2461 7.30078 22.2578 8.06641 23.666 9.43359L25.8535 11.5938C26.5781 12.3047 26.8105 12.8789 26.8789 13.8086L27.1387 17.1992C27.207 18.0469 26.7285 18.6621 25.9355 18.6895C25.1426 18.7441 24.6504 18.2793 24.5684 17.3633L24.2539 13.6445L23.2012 12.6875C22.8184 12.3457 22.3125 12.5781 22.3398 12.9609L22.5859 16.1191C22.709 17.7051 22.3262 18.457 21.2324 19.8242L18.334 23.4746C18.0332 23.8438 18.0059 23.9941 17.8828 24.2129ZM9.88477 12.9199L13.207 12.9199L15.3672 10.5137L15.5859 14L14.6973 14.875C14.2324 15.3535 13.8223 15.4902 12.9746 15.4902L9.88477 15.4902C9.02344 15.4902 8.43555 14.998 8.43555 14.1914C8.43555 13.4258 9.03711 12.9199 9.88477 12.9199ZM18.1289 6.01562C16.4609 6.01562 15.1211 4.67578 15.1211 3.00781C15.1211 1.33984 16.4609 0 18.1289 0C19.7969 0 21.1367 1.33984 21.1367 3.00781C21.1367 4.67578 19.7969 6.01562 18.1289 6.01562Z" style="fill:var(--color-1,hsl(0 0 0/0.85))"></path>
 </g>
</svg>