<svg version="1.1" xmlns="http://www.w3.org/2000/svg" xmlns:xlink="http://www.w3.org/1999/xlink" viewBox="0 0 28.2461 27.9043">
 <g>
  
  <path d="M13.9453 27.8906C21.6426 27.8906 27.8906 21.6289 27.8906 13.9453C27.8906 6.24805 21.6426 0 13.9453 0C6.26172 0 0 6.24805 0 13.9453C0 21.6289 6.26172 27.8906 13.9453 27.8906Z" style="fill:var(--color-0,hsl(0 0 0/0.85))"></path>
  <path d="M9.87109 10.2949C8.90039 10.2949 8.12109 9.51562 8.12109 8.54492C8.12109 7.57422 8.90039 6.79492 9.87109 6.79492C10.8418 6.79492 11.6211 7.57422 11.6211 8.54492C11.6211 9.51562 10.8418 10.2949 9.87109 10.2949ZM6.74023 13.6582C6.6582 13.1523 6.82227 12.7969 7.27344 12.5918L14.123 9.58398L14.9023 6.91797C15.1895 5.89258 16.5703 6.24805 16.2832 7.30078L15.5039 10.0215C15.3809 10.418 15.2305 10.541 14.8203 10.7324L13.5762 11.3203C13.3027 11.4297 13.2754 11.6895 13.3984 11.9355L14.752 14.6973C14.8477 14.875 14.998 14.9297 15.2168 14.8066L16.9121 13.8223C17.2676 13.6172 17.6777 13.5488 18.1152 13.7402L21.6973 15.4629C22.8184 16.0098 22.0391 17.3359 21.0957 16.8848L17.7324 15.2852L15.1758 16.7617C14.957 16.8711 14.957 17.1172 15.1348 17.2676L18.8945 20.0293C19.8652 20.7266 18.8535 21.957 17.9922 21.3555L13.1523 17.7871C12.7969 17.5137 12.4141 17.2402 11.9492 16.3516L10.459 13.3848C10.3633 13.1523 10.1309 13.125 9.89844 13.207L8.27148 13.8496L8.66797 16.3379C8.83203 17.377 7.38281 17.5957 7.21875 16.543Z" style="fill:var(--color-1,white)"></path>
 </g>
</svg>