<svg version="1.1" xmlns="http://www.w3.org/2000/svg" xmlns:xlink="http://www.w3.org/1999/xlink" viewBox="0 0 34.1648 27.5215">
 <g>
  
  <path d="M20.2338 12.1816L20.2338 15.5039C20.2338 16.4609 20.9447 17.1582 21.9017 17.1582L24.5131 17.1582C25.4701 17.1582 26.181 16.4609 26.181 15.5039L26.181 12.1816C26.181 11.2246 25.4701 10.5137 24.5131 10.5137L21.9017 10.5137C20.9447 10.5137 20.2338 11.2246 20.2338 12.1816ZM27.8763 12.1816L27.8763 15.5039C27.8763 16.4609 28.5873 17.1582 29.5306 17.1582L32.142 17.1582C33.099 17.1582 33.8099 16.4609 33.8099 15.5039L33.8099 12.1816C33.8099 11.2246 33.099 10.5137 32.142 10.5137L29.5306 10.5137C28.5873 10.5137 27.8763 11.2246 27.8763 12.1816ZM23.2279 15.2168C22.4486 15.2168 21.7924 14.5879 21.7924 13.7949C21.7924 13.0293 22.4486 12.3867 23.2279 12.3867C23.9935 12.3867 24.6498 13.0293 24.6498 13.7949C24.6498 14.5879 23.9935 15.2168 23.2279 15.2168ZM30.8431 15.2168C30.0638 15.2168 29.4076 14.5879 29.4076 13.7949C29.4076 13.0293 30.0638 12.3867 30.8431 12.3867C31.6088 12.3867 32.265 13.0293 32.265 13.7949C32.265 14.5879 31.6088 15.2168 30.8431 15.2168ZM24.349 8.46289L29.7494 8.46289C30.1595 8.46289 30.2279 8.02539 29.9135 7.82031L27.4662 6.13867C27.1927 5.96094 26.9056 5.96094 26.6185 6.13867L24.1713 7.82031C23.8568 8.02539 23.9388 8.46289 24.349 8.46289Z" style="fill:var(--color-0,hsl(0 0 0/0.85))"></path>
  <path d="M7.92908 6.09766C9.61072 6.09766 10.9506 4.68945 10.9506 3.0625C10.9506 1.38086 9.61072 0 7.92908 0C6.22009 0 4.90759 1.38086 4.90759 3.0625C4.90759 4.7168 6.22009 6.09766 7.92908 6.09766ZM2.10486 17.4043L10.7728 7.7793C9.92517 7.45117 8.98181 7.31445 7.92908 7.31445C4.00525 7.31445 1.70837 9.20117 1.70837 12.3594C1.70837 13.125 1.73572 14.1367 1.84509 15.1758ZM13.7396 17.4043L13.9994 15.1758C14.1088 14.1367 14.1635 13.125 14.1635 12.3594C14.1635 10.8008 13.6029 9.54297 12.5365 8.69531L5.64587 16.3516C6.42517 16.2285 7.17712 16.1738 7.92908 16.1738C9.85681 16.1738 11.7845 16.4336 13.7396 17.4043ZM4.57947 27.4805C5.37243 27.3711 5.90564 26.7969 5.80993 25.7988L5.26306 20.7539L10.5951 20.7539L10.0482 25.7988C9.92517 26.7969 10.4584 27.3711 11.2787 27.4805C12.099 27.5625 12.7279 27.043 12.8236 26.0859L13.5345 19.4277C11.7709 18.4023 9.80212 18.0059 7.92908 18.0059C6.04236 18.0059 4.07361 18.4023 2.32361 19.4277L3.02087 26.0859C3.11658 27.043 3.74548 27.5625 4.57947 27.4805ZM12.5365 8.68164L15.1342 5.79688C15.599 5.30469 15.5443 4.73047 15.0931 4.375C14.683 4.00586 14.1635 3.99219 13.6849 4.52539L10.7728 7.7793C11.4154 8.02539 12.017 8.33984 12.5365 8.68164ZM0.409544 18.416C-0.0689714 18.7715-0.0826433 19.3457 0.136107 19.7148C0.3822 20.1113 0.860716 20.3027 1.40759 19.9883C1.72204 19.7832 2.00915 19.6055 2.32361 19.4277L2.10486 17.4043C1.48962 17.6777 0.942747 17.9922 0.409544 18.416ZM15.4349 18.416C14.9154 17.9922 14.3685 17.6777 13.7396 17.4043L13.5209 19.4277C13.849 19.6055 14.1224 19.7832 14.4369 19.9883C14.9701 20.3027 15.4486 20.125 15.6947 19.7422C15.9408 19.3594 15.9408 18.7852 15.4349 18.416Z" style="fill:var(--color-1,hsl(0 0 0/0.85))"></path>
 </g>
</svg>