<?xml version="1.0" encoding="UTF-8"?>
<!--Generator: Apple Native CoreSVG 326-->
<!DOCTYPE svg
PUBLIC "-//W3C//DTD SVG 1.1//EN"
       "http://www.w3.org/Graphics/SVG/1.1/DTD/svg11.dtd">
<svg version="1.1" xmlns="http://www.w3.org/2000/svg" xmlns:xlink="http://www.w3.org/1999/xlink" viewBox="0 0 28.2461 27.9043">
 <g>
  <rect height="27.9043" opacity="0" width="28.2461" x="0" y="0"/>
  <path d="M13.9453 27.8906C21.6426 27.8906 27.8906 21.6426 27.8906 13.9453C27.8906 6.24805 21.6426 0 13.9453 0C6.24805 0 0 6.24805 0 13.9453C0 21.6426 6.24805 27.8906 13.9453 27.8906ZM13.9453 25.5664C7.51953 25.5664 2.32422 20.3711 2.32422 13.9453C2.32422 7.51953 7.51953 2.32422 13.9453 2.32422C20.3711 2.32422 25.5664 7.51953 25.5664 13.9453C25.5664 20.3711 20.3711 25.5664 13.9453 25.5664Z" fill="white" fill-opacity="0.85"/>
  <path d="M10.1172 10.5137C11.0332 10.5137 11.7715 9.77539 11.7715 8.87305C11.7715 7.95703 11.0332 7.21875 10.1172 7.21875C9.21484 7.21875 8.47656 7.95703 8.47656 8.87305C8.47656 9.77539 9.21484 10.5137 10.1172 10.5137ZM7.17773 13.6719L7.62891 16.3789C7.7793 17.377 9.14648 17.1719 8.98242 16.1875L8.61328 13.8496L10.1445 13.248C10.3633 13.166 10.582 13.1934 10.6777 13.4121L12.0723 16.2012C12.5098 17.0488 12.8652 17.2949 13.207 17.5547L17.7598 20.9043C18.5664 21.4785 19.5098 20.3164 18.6074 19.6602L15.0664 17.0625C14.9023 16.9258 14.9023 16.6934 15.1074 16.584L17.5137 15.2031L20.6719 16.707C21.5605 17.1309 22.2852 15.8867 21.2324 15.3672L17.8691 13.7539C17.459 13.5762 17.0762 13.6309 16.7344 13.8223L15.1484 14.752C14.9434 14.875 14.793 14.8203 14.7109 14.6562L13.4395 12.0586C13.3164 11.8262 13.3438 11.5801 13.6035 11.4707L14.7656 10.9238C15.1621 10.7461 15.2988 10.623 15.4082 10.2539L16.1465 7.69727C16.4199 6.71289 15.1211 6.37109 14.8477 7.3418L14.123 9.84375L7.68359 12.6738C7.25977 12.8652 7.0957 13.1934 7.17773 13.6719Z" fill="white" fill-opacity="0.85"/>
 </g>
</svg>
