<svg version="1.1" xmlns="http://www.w3.org/2000/svg" xmlns:xlink="http://www.w3.org/1999/xlink" viewBox="0 0 28.2461 27.9043">
 <g>
  
  <path d="M13.9453 27.8906C21.6426 27.8906 27.8906 21.6426 27.8906 13.9453C27.8906 6.24805 21.6426 0 13.9453 0C6.24805 0 0 6.24805 0 13.9453C0 21.6426 6.24805 27.8906 13.9453 27.8906ZM13.9453 25.5664C7.51953 25.5664 2.32422 20.3711 2.32422 13.9453C2.32422 7.51953 7.51953 2.32422 13.9453 2.32422C20.3711 2.32422 25.5664 7.51953 25.5664 13.9453C25.5664 20.3711 20.3711 25.5664 13.9453 25.5664Z" style="fill:var(--color-0,hsl(0 0 0/0.85))"></path>
  <path d="M15.1211 7.30078C15.9551 7.30078 16.6387 6.64453 16.6387 5.79688C16.6387 4.94922 15.9551 4.26562 15.1211 4.26562C14.2734 4.26562 13.6035 4.94922 13.6035 5.79688C13.6035 6.64453 14.2734 7.30078 15.1211 7.30078ZM12.7422 13.4121L15.3945 14.8887L13.6855 16.3789C13.3164 16.7207 13.3164 17.1172 13.5352 17.3633C13.7676 17.623 14.1914 17.6641 14.5605 17.3496L16.9805 15.2988C17.3086 15.0117 17.2539 14.4238 16.8574 14.1641L14.2461 12.4414L14.7656 10.623C14.834 10.3633 15.1211 10.3223 15.2852 10.5547L16.0508 11.6758C16.2285 11.9492 16.5566 12.0312 16.8574 11.9082L19.0723 10.9238C19.4688 10.7461 19.6055 10.4043 19.4414 10.0488C19.2773 9.69336 18.9355 9.58398 18.5391 9.76172L16.7891 10.541L15.5723 8.87305C14.9434 8.01172 14.1641 7.65625 12.8926 7.75195L10.418 7.91602C10.0352 7.95703 9.77539 8.2168 9.7207 8.61328L9.39258 11.0879C9.33789 11.5391 9.5293 11.8262 9.92578 11.8809C10.3223 11.9082 10.5547 11.6758 10.623 11.252L10.9238 9.21484L11.9219 9.14648C12.127 9.13281 12.3594 9.2832 12.2773 9.55664L11.6895 11.5664C11.3613 12.7285 12.127 13.0566 12.7422 13.4121ZM8.05273 19.4277C8.3125 19.6602 8.70898 19.6875 9.07812 19.332L11.334 17.0898C11.5117 16.9121 11.5527 16.8574 11.6758 16.5566L12.6055 14.0957L12.4141 13.9863C12.0723 13.7949 11.5801 13.4668 11.293 12.9609L10.4316 16.0234L8.06641 18.375C7.69727 18.7441 7.76562 19.1816 8.05273 19.4277ZM20.0156 12.9746L23.5293 11.3477C23.7754 11.2246 23.8574 10.9375 23.7754 10.7051C23.666 10.4727 23.3789 10.3633 23.1328 10.4863L19.6191 12.127C19.3594 12.25 19.2773 12.5234 19.3867 12.7559C19.4824 12.9883 19.7695 13.0977 20.0156 12.9746ZM19.7422 19.0449L20.4805 18.9902C20.5898 18.9902 20.6309 18.9902 20.7129 18.9902L22.0254 11.5117L20.9863 11.9629ZM6.41211 21.3281L20.7676 21.3281C21.2461 21.3281 21.6152 20.959 21.6152 20.4805C21.6152 19.9199 21.1914 19.6191 20.6172 19.6465L6.41211 20.5352C6.19336 20.5488 6.0293 20.7129 6.0293 20.9453C6.0293 21.1504 6.19336 21.3281 6.41211 21.3281Z" style="fill:var(--color-1,hsl(0 0 0/0.85))"></path>
 </g>
</svg>