<svg version="1.1" xmlns="http://www.w3.org/2000/svg" xmlns:xlink="http://www.w3.org/1999/xlink" viewBox="0 0 28.2461 27.9043">
 <g>
  
  <path d="M13.9453 27.8906C21.6426 27.8906 27.8906 21.6289 27.8906 13.9453C27.8906 6.24805 21.6426 0 13.9453 0C6.26172 0 0 6.24805 0 13.9453C0 21.6289 6.26172 27.8906 13.9453 27.8906Z" style="fill:var(--color-0,hsl(0 0 0/0.85))"></path>
  <path d="M16.3926 8.53125C15.4355 8.53125 14.6289 7.73828 14.6289 6.76758C14.6289 5.79688 15.4355 5.03125 16.3926 5.03125C17.3633 5.03125 18.1426 5.79688 18.1426 6.76758C18.1426 7.73828 17.3633 8.53125 16.3926 8.53125ZM9.70703 6.05664L12.5781 4.00586C12.9336 3.73242 13.4531 3.82812 13.7266 4.19727C13.9727 4.58008 13.9043 5.07227 13.5078 5.3457L11.6074 6.72656L18.3066 11.293L22.6543 12.0859C23.0918 12.1543 23.4062 12.5918 23.3105 13.0293C23.2148 13.5215 22.75 13.7812 22.3398 13.6855L17.8418 12.8926C17.7051 12.8789 17.623 12.8379 17.5137 12.7422L15.5039 11.3477C15.3535 11.2656 15.1621 11.293 15.0801 11.4434L13.6992 13.5215C13.4941 13.8086 13.6309 14.0684 13.9316 14.1367L17.2266 14.9434C17.9102 15.1074 18.0879 15.832 17.7734 16.3105L15.3809 19.9199C15.1484 20.2754 14.7109 20.4258 14.2461 20.1387C13.8496 19.9199 13.7539 19.3867 13.9863 19.0039L15.7637 16.3652L13.9727 16.0645L12.0859 18.7168C11.8398 19.0586 11.293 19.1543 10.9512 18.9082C10.5547 18.6484 10.5 18.1152 10.7461 17.7461L12.168 15.7637L11.5527 15.668C9.88477 15.3945 9.33789 13.6992 10.1992 12.4824L12.25 9.50195C12.3457 9.36523 12.3184 9.1875 12.168 9.07812L9.7207 7.41016C9.22852 7.08203 9.22852 6.39844 9.70703 6.05664ZM4.44336 16.2695C4.58008 16.1328 4.83984 16.0781 5.03125 16.2832C8.23047 19.127 13.6855 21.5879 19.2227 22.1758C19.5098 22.2305 19.6602 22.4082 19.6602 22.5996C19.6602 22.8457 19.4414 23.1191 19.1133 23.0781C14.5605 22.5312 10.4043 21 7.23242 19.0449C6.42578 19.5098 5.56445 19.7422 4.94922 19.7422C4.7168 19.7422 4.53906 19.5918 4.49805 19.4277C4.44336 19.209 4.52539 19.0176 4.78516 18.8535C5.23633 18.6074 5.52344 18.4023 5.81055 18.0879C5.33203 17.7324 4.86719 17.377 4.45703 16.9941C4.18359 16.748 4.25195 16.4473 4.44336 16.2695Z" style="fill:var(--color-1,white)"></path>
 </g>
</svg>