<?xml version="1.0" encoding="UTF-8"?>
<!--Generator: Apple Native CoreSVG 326-->
<!DOCTYPE svg
PUBLIC "-//W3C//DTD SVG 1.1//EN"
       "http://www.w3.org/Graphics/SVG/1.1/DTD/svg11.dtd">
<svg version="1.1" xmlns="http://www.w3.org/2000/svg" xmlns:xlink="http://www.w3.org/1999/xlink" viewBox="0 0 35.3965 25.9355">
 <g>
  <rect height="25.9355" opacity="0" width="35.3965" x="0" y="0"/>
  <path d="M23.1191 5.97461C24.7734 5.97461 26.1133 4.63477 26.1133 2.98047C26.1133 1.32617 24.7734 0 23.1191 0C21.4648 0 20.1387 1.32617 20.1387 2.98047C20.1387 4.63477 21.4648 5.97461 23.1191 5.97461ZM13.0703 25.5938C13.6035 25.8945 14.5059 25.7715 14.9023 24.9785L18.334 18.1562C18.5938 17.623 18.5117 16.9941 18.0742 16.5703L13.9453 12.4277L19.1543 9.81641C19.4141 9.67969 19.7012 9.74805 19.8926 9.93945L22.5723 12.6328L22.5723 18.2246C22.5723 18.9766 23.2012 19.5918 23.9531 19.5918C24.7051 19.5918 25.3203 18.9766 25.3203 18.2246L25.3203 12.0723C25.3203 11.7031 25.2383 11.375 24.9238 11.0879L18.7441 4.93555C18.0469 4.23828 17.1309 3.86914 16.1465 3.86914L10.8965 3.86914C9.5293 3.86914 9.13281 5.35938 9.9668 6.17969L11.6074 7.80664L10.9375 8.08008C8.44922 9.10547 7.72461 12.373 10.0762 14.082L15.3672 17.9648L12.4688 23.7617C12.127 24.4316 12.4004 25.2383 13.0703 25.5938ZM1.36719 20.2891L8.2168 20.2891C8.76367 20.2891 9.20117 19.9473 9.41992 19.5234L10.9785 16.3926L9.29688 15.1484C8.91406 14.875 8.58594 14.5605 8.32617 14.2324L7.21875 17.541L1.36719 17.541C0.615234 17.541 0 18.1562 0 18.9219C0 19.6738 0.615234 20.2891 1.36719 20.2891ZM30.1875 25.1426L34.3027 25.1426C34.6992 25.1426 35.041 24.8008 35.041 24.3906L35.041 23.707C35.041 23.2832 34.6992 22.9414 34.3027 22.9414L29.75 22.9414L16.4746 9.67969L15.1211 10.459L29.5176 24.8555C29.7637 25.1016 29.9277 25.1426 30.1875 25.1426Z" fill="white" fill-opacity="0.85"/>
 </g>
</svg>
