<?xml version="1.0" encoding="UTF-8"?>
<!--Generator: Apple Native CoreSVG 326-->
<!DOCTYPE svg
PUBLIC "-//W3C//DTD SVG 1.1//EN"
       "http://www.w3.org/Graphics/SVG/1.1/DTD/svg11.dtd">
<svg version="1.1" xmlns="http://www.w3.org/2000/svg" xmlns:xlink="http://www.w3.org/1999/xlink" viewBox="0 0 25.9902 32.7988">
 <g>
  <rect height="32.7988" opacity="0" width="25.9902" x="0" y="0"/>
  <path d="M9.69336 11.9492C11.3477 11.9492 12.6875 10.6094 12.6875 8.95508C12.6875 7.30078 11.3477 5.97461 9.69336 5.97461C8.03906 5.97461 6.71289 7.30078 6.71289 8.95508C6.71289 10.6094 8.03906 11.9492 9.69336 11.9492ZM2.41992 29.9141L10.6367 31.9785C11.7988 32.2656 12.5781 31.418 12.4277 30.3379L11.6621 25.1016L18.1699 25.1016L23.2559 30.2559C23.7891 30.7891 24.6777 30.7891 25.2109 30.2559C25.7852 29.7227 25.7578 28.8203 25.2109 28.2734L19.8379 22.873C19.4688 22.5039 19.3184 22.3945 18.7031 22.3262L12.8105 21.7383L11.3203 17.2402C11.2109 16.9258 11.457 16.6113 11.7988 16.6797L22.5723 18.8262C23.2695 18.9629 24.0488 18.5938 24.1855 17.7598C24.3086 17.0078 23.8711 16.2832 23.1191 16.1328L8.23047 13.166C6.91797 12.9062 6.2207 12.7148 5.63281 12.1406L2.76172 9.29688L2.76172 2.93945C2.76172 2.17383 2.14648 1.55859 1.39453 1.55859C0.601562 1.55859 0 2.17383 0 2.93945L0 9.63867C0 10.2129 0.0683594 10.541 0.478516 10.9512L3.67773 14.1367C4.33398 14.8066 4.41602 15.0391 4.64844 15.709L8.96875 28.6973L3.08984 27.2207C2.35156 27.0293 1.59961 27.4941 1.43555 28.2461C1.27148 28.9707 1.69531 29.7227 2.41992 29.9141ZM5.35938 3.41797C6.28906 3.41797 7.06836 2.66602 7.06836 1.70898C7.06836 0.765625 6.28906 0 5.35938 0C4.38867 0 3.66406 0.765625 3.66406 1.70898C3.66406 2.66602 4.38867 3.41797 5.35938 3.41797Z" fill="white" fill-opacity="0.85"/>
 </g>
</svg>
