<svg version="1.1" xmlns="http://www.w3.org/2000/svg" xmlns:xlink="http://www.w3.org/1999/xlink" viewBox="0 0 26.5645 27.7402">
 <g>
  
  <path d="M3.67773 7.42383C5.75586 7.42383 7.39648 5.76953 7.39648 3.73242C7.39648 1.66797 5.75586 0 3.67773 0C1.64062 0 0 1.66797 0 3.73242C0 5.71484 1.64062 7.42383 3.67773 7.42383ZM25.7168 26.9883C26.3594 26.332 26.4414 25.2383 25.5938 24.3633L19.4824 18.0469C18.1973 16.707 16.8438 16.5156 15.2305 17.1035L11.9629 18.293L8.13477 11.3066C6.97266 9.16016 4.96289 8.36719 3.03516 9.41992C1.03906 10.4863 0.683594 12.6465 1.83203 14.7383L4.78516 20.1113C6.07031 22.4629 8.85938 23.4336 11.8125 22.2988L16.4062 20.5625C16.707 20.4395 16.8438 20.4941 17.0352 20.6992L22.9141 26.7695C23.7891 27.6719 25.0059 27.7266 25.7168 26.9883Z" style="fill:var(--color-0,hsl(0 0 0/0.85))"></path>
  <path d="M14.793 13.207C15.2852 13.207 15.627 12.9609 15.832 12.332L16.8301 9.41992L21.7246 9.41992L22.7227 12.332C22.9277 12.9609 23.2832 13.207 23.7754 13.207C24.377 13.207 24.7871 12.8105 24.7871 12.2637C24.7871 12.0449 24.7461 11.8535 24.6367 11.5527L20.8086 1.23047C20.5352 0.519531 20.0156 0.150391 19.2637 0.150391C18.5254 0.150391 18.0195 0.519531 17.7598 1.23047L13.918 11.5527C13.8223 11.8535 13.7812 12.0449 13.7812 12.25C13.7812 12.8242 14.1777 13.207 14.793 13.207ZM17.3906 7.7793L19.209 2.48828L19.3594 2.48828L21.1777 7.7793Z" style="fill:var(--color-1,hsl(0 0 0/0.85))"></path>
 </g>
</svg>