<svg version="1.1" xmlns="http://www.w3.org/2000/svg" xmlns:xlink="http://www.w3.org/1999/xlink" viewBox="0 0 23.2508 30.1738">
 <g>
  
  <path d="M14.2914 5.96094C15.9457 5.96094 17.2719 4.63477 17.2719 2.98047C17.2719 1.32617 15.9457 0 14.2914 0C12.6371 0 11.3109 1.32617 11.3109 2.98047C11.3109 4.63477 12.6371 5.96094 14.2914 5.96094ZM9.61561 17.8555L14.8519 20.7949L11.475 23.6934C10.7504 24.3086 10.7641 25.1152 11.2016 25.6074C11.6527 26.1133 12.4594 26.2363 13.2113 25.5938L17.9281 21.5742C18.5707 21.0273 18.475 19.8516 17.6957 19.3457L12.5687 15.9824L13.5805 12.4414C13.7172 11.9355 14.3051 11.8672 14.6058 12.3047L16.1098 14.5059C16.4652 15.0117 17.1078 15.2168 17.6957 14.9434L22.0297 13.0156C22.7953 12.6738 23.0824 12.0039 22.7543 11.3066C22.4125 10.623 21.7562 10.418 20.9906 10.7598L17.559 12.2773L15.1937 9.00977C13.9633 7.31445 12.432 6.61719 9.9164 6.80859L5.11757 7.15039C4.35194 7.20508 3.83241 7.69727 3.72304 8.49023L3.08046 13.3574C2.95741 14.2051 3.38124 14.793 4.13319 14.875C4.89882 14.9434 5.39101 14.5059 5.50038 13.6582L6.08827 9.67969L8.01601 9.54297C8.43983 9.50195 8.86366 9.80273 8.71327 10.3359L7.59218 14.2461C6.93593 16.5566 8.43983 17.1855 9.61561 17.8555ZM0.46913 29.668C0.97499 30.0918 1.75429 30.1465 2.45155 29.4766L6.88124 25.0879C7.25038 24.7188 7.33241 24.6367 7.56483 24.0625L9.42421 19.25L8.97304 19.0039C7.93397 18.4434 7.20936 17.8691 6.71718 17.2539L5.09022 23.0098L0.496474 27.5898C-0.228135 28.3008-0.0914167 29.1758 0.46913 29.668Z" style="fill:var(--color-0,hsl(0 0 0/0.85))"></path>
 </g>
</svg>