<svg version="1.1" xmlns="http://www.w3.org/2000/svg" xmlns:xlink="http://www.w3.org/1999/xlink" viewBox="0 0 28.2461 27.9043">
 <g>
  
  <path d="M13.9453 27.8906C21.6426 27.8906 27.8906 21.6289 27.8906 13.9453C27.8906 6.24805 21.6426 0 13.9453 0C6.26172 0 0 6.24805 0 13.9453C0 21.6289 6.26172 27.8906 13.9453 27.8906Z" style="fill:var(--color-0,hsl(0 0 0/0.85))"></path>
  <path d="M16.0918 8.68164C15.1484 8.68164 14.3965 7.91602 14.3965 6.97266C14.3965 6.04297 15.1484 5.27734 16.0918 5.27734C17.0352 5.27734 17.7734 6.04297 17.7734 6.97266C17.7734 7.91602 17.0352 8.68164 16.0918 8.68164ZM13.4258 15.4492C12.7559 15.0801 11.8945 14.7109 12.2773 13.3848L12.9199 11.1562C13.002 10.8555 12.7422 10.6914 12.5234 10.7051L11.4023 10.7871L11.0879 13.0566C11.0059 13.5352 10.7324 13.7949 10.3086 13.7539C9.87109 13.7129 9.625 13.3711 9.69336 12.8926L10.0762 10.1172C10.1309 9.66602 10.4316 9.37891 10.8555 9.35156L13.5898 9.16016C15.0254 9.06445 15.9004 9.44727 16.5977 10.4043L17.9375 12.2773L19.8926 11.4023C20.3438 11.2109 20.7129 11.3203 20.9043 11.7168C21.0957 12.1133 20.918 12.4961 20.4805 12.7012L18.0332 13.7949C17.6914 13.9316 17.3086 13.8223 17.1172 13.5352L16.2559 12.291C16.0918 12.0449 15.7637 12.0723 15.6816 12.3594L15.0938 14.3828L18.0332 16.2969C18.457 16.584 18.5254 17.2539 18.1562 17.5547L15.4629 19.8379C15.0391 20.207 14.5879 20.1523 14.3281 19.8516C14.0684 19.5781 14.0684 19.1133 14.4648 18.7715L16.3926 17.1172ZM8.2168 22.1758C7.90234 21.8887 7.82031 21.3828 8.2168 20.9863L10.8555 18.3887L11.7988 15.0527C12.0859 15.4492 12.5508 15.7363 13.084 16.0508L13.3711 16.1875L12.25 18.9629C12.127 19.3047 12.0859 19.3457 11.8535 19.5645L9.33789 22.0664C8.94141 22.4492 8.51758 22.4082 8.2168 22.1758Z" style="fill:var(--color-1,white)"></path>
 </g>
</svg>