<svg version="1.1" xmlns="http://www.w3.org/2000/svg" xmlns:xlink="http://www.w3.org/1999/xlink" viewBox="0 0 26.5737 27.8496">
 <g>
  
  <path d="M22.5359 7.47852C24.5866 7.47852 26.2136 5.76953 26.2136 3.78711C26.2136 1.72266 24.5866 0.0546875 22.5359 0.0546875C20.4714 0.0546875 18.8171 1.72266 18.8171 3.78711C18.8171 5.82422 20.4714 7.47852 22.5359 7.47852ZM0.510477 27.043C1.20774 27.7812 2.42454 27.7266 3.29954 26.8242L9.17845 20.7539C9.36985 20.5488 9.52024 20.4941 9.82102 20.6172L14.4148 22.3535C17.3679 23.4883 20.1433 22.5176 21.4421 20.166L24.3952 14.793C25.5437 12.7012 25.1745 10.541 23.1784 9.47461C21.2507 8.42188 19.2546 9.21484 18.0788 11.3613L14.2507 18.3477L10.9831 17.1582C9.36985 16.5703 8.03001 16.7617 6.74485 18.1016L0.633523 24.418C-0.227805 25.293-0.145773 26.3867 0.510477 27.043Z" style="fill:var(--color-0,hsl(0 0 0/0.85))"></path>
  <path d="M4.89915 0C4.2429 0 3.72337 0.505859 3.72337 1.16211L3.72337 7.45117L1.22141 7.45117C0.10032 7.45117-0.391867 8.58594 0.360086 9.41992L4.03782 13.5625C4.53001 14.123 5.19993 14.1367 5.71946 13.5625L9.38352 9.41992C10.0945 8.62695 9.69798 7.45117 8.53587 7.45117L6.04759 7.45117L6.04759 1.16211C6.04759 0.505859 5.54173 0 4.89915 0Z" style="fill:var(--color-1,hsl(0 0 0/0.85))"></path>
 </g>
</svg>