<?xml version="1.0" encoding="UTF-8"?>
<!--Generator: Apple Native CoreSVG 326-->
<!DOCTYPE svg
PUBLIC "-//W3C//DTD SVG 1.1//EN"
       "http://www.w3.org/Graphics/SVG/1.1/DTD/svg11.dtd">
<svg version="1.1" xmlns="http://www.w3.org/2000/svg" xmlns:xlink="http://www.w3.org/1999/xlink" viewBox="0 0 33.373 30.2832">
 <g>
  <rect height="30.2832" opacity="0" width="33.373" x="0" y="0"/>
  <path d="M18.0879 5.97461C19.7285 5.97461 21.0684 4.63477 21.0684 2.98047C21.0684 1.32617 19.7285 0 18.0879 0C16.4336 0 15.0938 1.32617 15.0938 2.98047C15.0938 4.63477 16.4336 5.97461 18.0879 5.97461ZM15.6543 19.7695L15.6543 25.2656C15.6543 25.8262 15.9688 26.1133 16.5293 26.1133L20.2617 26.1133C21.2461 26.1133 21.2598 24.7324 20.4258 24.459L18.4023 23.8164L18.4023 18.498C18.4023 17.9102 18.0195 17.4453 17.4727 17.1992L13.7129 15.4629L15.9004 11.1289C16.0098 10.8828 16.2559 10.8145 16.4883 10.9512L20.1797 13.3711L20.1797 18.498C20.1797 19.25 20.7949 19.8652 21.5469 19.8652C22.2988 19.8652 22.9141 19.25 22.9141 18.498L22.9141 12.5508C22.9141 12.0449 22.7773 11.8125 22.3125 11.457L16.4336 7.02734C15.1758 6.07031 13.6172 5.85156 12.1406 6.45312L7.82031 8.2168C6.50781 8.75 6.72656 10.1992 7.7793 10.7461L9.40625 11.5938L8.51758 13.3848C7.30078 15.791 8.2168 17.8965 10.7188 18.5254ZM8.43555 18.9082L7.79297 20.8359L2.81641 20.8359C2.26953 20.8359 1.98242 21.1504 1.98242 21.7109L1.98242 25.4434C1.98242 26.4141 3.36328 26.4414 3.63672 25.6074L4.2793 23.584L8.81836 23.584C9.37891 23.584 9.83008 23.2285 10.0352 22.8184L11.416 20.084L10.3906 19.8105C9.625 19.6191 8.96875 19.3184 8.43555 18.9082ZM15.9961 28.0957L21.3418 28.0957C21.6152 28.0957 21.8477 27.877 21.8477 27.6172C21.8477 27.3164 21.6152 27.1113 21.3418 27.1113L15.9961 27.1113C15.7227 27.1113 15.5176 27.3164 15.5176 27.6172C15.5176 27.877 15.7227 28.0957 15.9961 28.0957ZM0 21.1777L0 26.5234C0 26.7969 0.205078 27.0293 0.478516 27.0293C0.779297 27.0293 0.970703 26.7969 0.970703 26.5234L0.970703 21.1777C0.970703 20.8906 0.779297 20.6992 0.478516 20.6992C0.205078 20.6992 0 20.8906 0 21.1777ZM28.1777 25.4844L32.2793 25.4844C32.6758 25.4844 33.0176 25.1426 33.0176 24.7324L33.0176 24.0488C33.0176 23.625 32.6758 23.2832 32.2793 23.2832L27.7266 23.2832L13.5078 10.2266L12.1543 10.9922L27.4941 25.1973C27.7539 25.4434 27.918 25.4844 28.1777 25.4844ZM24.2539 29.2168C24.2539 29.8047 25.2246 30.2695 26.4414 30.2695C27.6719 30.2695 28.6562 29.8047 28.6562 29.2168L28.6562 28.0547C28.6562 27.4941 27.6719 27.043 26.4414 27.043C25.2246 27.043 24.2539 27.4941 24.2539 28.0547Z" fill="white" fill-opacity="0.85"/>
 </g>
</svg>
