<?xml version="1.0" encoding="UTF-8"?>
<!--Generator: Apple Native CoreSVG 326-->
<!DOCTYPE svg
PUBLIC "-//W3C//DTD SVG 1.1//EN"
       "http://www.w3.org/Graphics/SVG/1.1/DTD/svg11.dtd">
<svg version="1.1" xmlns="http://www.w3.org/2000/svg" xmlns:xlink="http://www.w3.org/1999/xlink" viewBox="0 0 28.2461 27.9043">
 <g>
  <rect height="27.9043" opacity="0" width="28.2461" x="0" y="0"/>
  <path d="M13.9453 27.8906C21.6426 27.8906 27.8906 21.6289 27.8906 13.9453C27.8906 6.24805 21.6426 0 13.9453 0C6.26172 0 0 6.24805 0 13.9453C0 21.6289 6.26172 27.8906 13.9453 27.8906Z" fill="white" fill-opacity="0.85"/>
  <path d="M16.1465 7.75195C15.2852 7.75195 14.5742 7.05469 14.5742 6.17969C14.5742 5.31836 15.2852 4.62109 16.1465 4.62109C17.0078 4.62109 17.7051 5.31836 17.7051 6.17969C17.7051 7.05469 17.0078 7.75195 16.1465 7.75195ZM8.94141 12.9746C8.54492 12.7969 8.42188 12.3594 8.59961 11.9629L10.1309 8.91406C10.2539 8.66797 10.5137 8.49023 10.8008 8.49023L15.5859 8.49023C16.5293 8.49023 17.1445 8.80469 17.7188 9.37891L18.5801 10.2539L19.6465 8.16211C19.8516 7.7793 20.3027 7.61523 20.6719 7.80664C21.0684 7.98438 21.2051 8.44922 21 8.83203L19.4824 11.8809C19.2637 12.373 18.6348 12.4277 18.2656 12.0723L16.5156 10.3906C16.3926 10.2812 16.2559 10.3223 16.1875 10.459L14.6973 13.4395L18.0605 13.4395C18.6484 13.4395 18.9355 14.0547 18.7305 14.5195L16.8164 18.7031C16.6387 19.1133 16.2559 19.25 15.832 19.0859C15.4355 18.9492 15.2852 18.4707 15.4355 18.0879L16.8164 15.0391L13.1113 15.2715C11.7715 15.3535 11.1426 14.0684 11.6484 13.0566L13.0293 10.3223C13.1113 10.1719 13.0156 10.0215 12.8516 10.0215L11.2656 10.0215L9.95312 12.6328C9.78906 12.9746 9.39258 13.1797 8.94141 12.9746ZM6.89062 20.3574C6.68555 19.9473 6.89062 19.4961 7.27344 19.332L10.7734 17.8418L11.6348 15.5039C12.0312 15.791 12.5371 15.9824 13.1523 15.9414L13.4668 15.9277L12.0586 18.7441C11.9902 18.9082 11.8398 19.0176 11.6895 19.0996L7.88867 20.7539C7.64258 20.8633 7.12305 20.8496 6.89062 20.3574ZM19.4277 21.0684C18.5527 21.0684 17.8828 20.3711 17.8828 19.4824C17.8828 18.6211 18.5527 17.9238 19.4277 17.9238C20.3027 17.9238 21 18.6211 21 19.4824C21 20.3711 20.3027 21.0684 19.4277 21.0684ZM8.24414 5.14062C8.24414 4.93555 8.42188 4.75781 8.64062 4.75781C9.43359 4.75781 9.9668 4.94922 10.5547 5.49609C11.1562 4.94922 11.6895 4.75781 12.4824 4.75781C12.7012 4.75781 12.8926 4.93555 12.8926 5.14062C12.8926 5.37305 12.7012 5.53711 12.4824 5.53711C11.8535 5.53711 11.4434 5.67383 11.0332 6.125C10.8691 6.28906 10.7188 6.35742 10.5547 6.35742C10.4043 6.35742 10.2402 6.28906 10.1035 6.125C9.67969 5.67383 9.2832 5.53711 8.64062 5.53711C8.4082 5.53711 8.24414 5.37305 8.24414 5.14062ZM8.02539 22.9688C7.79297 22.9688 7.60156 22.791 7.60156 22.5449C7.60156 22.3125 7.79297 22.1211 8.02539 22.1211C8.25781 22.1211 8.44922 22.3125 8.44922 22.5449C8.44922 22.791 8.25781 22.9688 8.02539 22.9688ZM9.33789 22.9688C9.10547 22.9688 8.91406 22.791 8.91406 22.5449C8.91406 22.3125 9.10547 22.1211 9.33789 22.1211C9.58398 22.1211 9.76172 22.3125 9.76172 22.5449C9.76172 22.791 9.58398 22.9688 9.33789 22.9688ZM10.6504 22.9688C10.4043 22.9688 10.2266 22.791 10.2266 22.5449C10.2266 22.3125 10.4043 22.1211 10.6504 22.1211C10.8965 22.1211 11.0742 22.3125 11.0742 22.5449C11.0742 22.791 10.8965 22.9688 10.6504 22.9688ZM11.9629 22.9688C11.7168 22.9688 11.5391 22.791 11.5391 22.5449C11.5391 22.3125 11.7168 22.1211 11.9629 22.1211C12.1953 22.1211 12.3867 22.3125 12.3867 22.5449C12.3867 22.791 12.1953 22.9688 11.9629 22.9688ZM13.2754 22.9688C13.0293 22.9688 12.8516 22.791 12.8516 22.5449C12.8516 22.3125 13.0293 22.1211 13.2754 22.1211C13.5078 22.1211 13.6992 22.3125 13.6992 22.5449C13.6992 22.791 13.5078 22.9688 13.2754 22.9688ZM14.5742 22.9688C14.3555 22.9688 14.1504 22.791 14.1504 22.5449C14.1504 22.3125 14.3555 22.1211 14.5742 22.1211C14.8203 22.1211 14.998 22.3125 14.998 22.5449C14.998 22.791 14.8203 22.9688 14.5742 22.9688ZM15.9004 22.9688C15.668 22.9688 15.4766 22.791 15.4766 22.5449C15.4766 22.3125 15.668 22.1211 15.9004 22.1211C16.1328 22.1211 16.3242 22.3125 16.3242 22.5449C16.3242 22.791 16.1328 22.9688 15.9004 22.9688ZM17.2129 22.9688C16.9668 22.9688 16.7891 22.791 16.7891 22.5449C16.7891 22.3125 16.9668 22.1211 17.2129 22.1211C17.459 22.1211 17.6367 22.3125 17.6367 22.5449C17.6367 22.791 17.459 22.9688 17.2129 22.9688ZM18.5254 22.9688C18.2793 22.9688 18.1016 22.791 18.1016 22.5449C18.1016 22.3125 18.2793 22.1211 18.5254 22.1211C18.7578 22.1211 18.9492 22.3125 18.9492 22.5449C18.9492 22.791 18.7578 22.9688 18.5254 22.9688ZM19.8379 22.9688C19.5918 22.9688 19.4141 22.791 19.4141 22.5449C19.4141 22.3125 19.5918 22.1211 19.8379 22.1211C20.0703 22.1211 20.2617 22.3125 20.2617 22.5449C20.2617 22.791 20.0703 22.9688 19.8379 22.9688Z" fill="white"/>
 </g>
</svg>
