<?xml version="1.0" encoding="UTF-8"?>
<!--Generator: Apple Native CoreSVG 326-->
<!DOCTYPE svg
PUBLIC "-//W3C//DTD SVG 1.1//EN"
       "http://www.w3.org/Graphics/SVG/1.1/DTD/svg11.dtd">
<svg version="1.1" xmlns="http://www.w3.org/2000/svg" xmlns:xlink="http://www.w3.org/1999/xlink" viewBox="0 0 29.3775 25.334">
 <g>
  <rect height="25.334" opacity="0" width="29.3775" x="0" y="0"/>
  <path d="M0.456313 11.5391L5.03639 16.1328C5.6653 16.7617 6.69069 16.7754 7.30592 16.0098L10.1907 12.4551C10.3821 12.2363 10.6829 12.3594 10.6829 12.6328L10.6829 18.6895L5.51491 18.1152C3.73756 17.9102 3.16334 20.5215 4.87233 21.082L10.7376 23.0234C10.4505 24.2402 11.5032 25.2793 12.7063 24.8828L14.511 24.2949L16.3157 24.8828C17.5188 25.2793 18.5715 24.2402 18.2844 23.0234L24.1633 21.082C25.8723 20.5215 25.2844 17.9102 23.5071 18.1152L18.3391 18.6895L18.3391 12.6328C18.3391 12.3594 18.6536 12.2363 18.8313 12.4551L21.7161 16.0098C22.3313 16.7754 23.3567 16.7617 23.9856 16.1328L28.5657 11.5391C29.1673 10.9238 29.1809 9.98047 28.5657 9.37891C27.9778 8.79102 27.0071 8.79102 26.4055 9.37891L23.0286 12.7695L19.5833 8.54492C19.009 7.84766 18.1477 7.41016 17.2317 7.41016L11.804 7.41016C10.8743 7.41016 10.0266 7.84766 9.43874 8.54492L5.99342 12.7695L2.61647 9.37891C2.01491 8.79102 1.0442 8.79102 0.456313 9.37891C-0.158921 9.98047-0.145249 10.9238 0.456313 11.5391ZM14.511 5.97461C16.1516 5.97461 17.4778 4.63477 17.4778 2.9668C17.4778 1.32617 16.1516 0 14.511 0C12.843 0 11.5032 1.32617 11.5032 2.9668C11.5032 4.63477 12.843 5.97461 14.511 5.97461Z" fill="white" fill-opacity="0.85"/>
 </g>
</svg>
