<?xml version="1.0" encoding="UTF-8"?>
<!--Generator: Apple Native CoreSVG 326-->
<!DOCTYPE svg
PUBLIC "-//W3C//DTD SVG 1.1//EN"
       "http://www.w3.org/Graphics/SVG/1.1/DTD/svg11.dtd">
<svg version="1.1" xmlns="http://www.w3.org/2000/svg" xmlns:xlink="http://www.w3.org/1999/xlink" viewBox="0 0 28.2461 27.9043">
 <g>
  <rect height="27.9043" opacity="0" width="28.2461" x="0" y="0"/>
  <path d="M13.9453 27.8906C21.6426 27.8906 27.8906 21.6289 27.8906 13.9453C27.8906 6.24805 21.6426 0 13.9453 0C6.26172 0 0 6.24805 0 13.9453C0 21.6289 6.26172 27.8906 13.9453 27.8906Z" fill="white" fill-opacity="0.85"/>
  <path d="M13.7266 18.2246C13.2891 18.2246 12.9336 17.8691 12.9336 17.4453L12.9336 13.877L10.0762 10.9922C9.51562 10.4316 9.35156 9.59766 9.65234 8.8457C9.9668 8.13477 10.6641 7.65625 11.457 7.65625L15.2988 7.65625C16.1465 7.65625 16.8574 8.33984 16.8574 9.21484L16.8574 11.9629L19.209 11.9629C19.6328 11.9629 19.9746 12.3184 19.9746 12.7559C19.9746 13.166 19.6328 13.5352 19.209 13.5352L16.0645 13.5352C15.6406 13.5352 15.2988 13.166 15.2988 12.7559L15.2988 10.8145C15.2988 10.5957 15.1895 10.377 14.9023 10.377L12.3867 10.377C12.1953 10.377 12.0996 10.5957 12.2363 10.7461L14.2734 13.0156C14.4238 13.166 14.4922 13.3438 14.4922 13.5352L14.4922 17.4453C14.4922 17.8691 14.1367 18.2246 13.7266 18.2246ZM8.54492 20.8496C6.45312 20.8496 4.77148 19.168 4.77148 17.0625C4.77148 14.957 6.45312 13.2617 8.54492 13.2617C10.6504 13.2617 12.3594 14.957 12.3594 17.0625C12.3594 19.168 10.6504 20.8496 8.54492 20.8496ZM8.54492 19.8789C10.1172 19.8789 11.4023 18.6348 11.4023 17.0625C11.4023 15.4902 10.1172 14.2188 8.54492 14.2188C6.98633 14.2188 5.72852 15.4902 5.72852 17.0625C5.72852 18.6348 6.98633 19.8789 8.54492 19.8789ZM20.7539 15.0117C20.4531 14.7246 20.4805 14.4648 20.6445 14.2598C20.8086 14.1094 21.1094 14.0137 21.3555 14.2324C22.1484 14.9434 22.668 15.9688 22.668 17.1035C22.668 19.209 20.9727 20.8906 18.8672 20.8906C16.7617 20.8906 15.0664 19.209 15.0664 17.1035C15.0664 16.5566 15.1758 16.0371 15.4082 15.5586C15.5176 15.2441 15.791 15.1758 16.0098 15.2852C16.2559 15.3672 16.4062 15.6133 16.2559 15.9688C16.1055 16.3379 16.0234 16.7207 16.0234 17.1035C16.0234 18.6621 17.2949 19.9199 18.8672 19.9199C20.4395 19.9199 21.6973 18.6621 21.6973 17.1035C21.6973 16.2695 21.3145 15.5176 20.7539 15.0117ZM19.3457 9.74805C18.3887 9.74805 17.6367 8.98242 17.6367 8.05273C17.6367 7.0957 18.3887 6.34375 19.3457 6.34375C20.2891 6.34375 21.0273 7.0957 21.0273 8.05273C21.0273 8.98242 20.2891 9.74805 19.3457 9.74805Z" fill="white"/>
 </g>
</svg>
