<?xml version="1.0" encoding="UTF-8"?>
<!--Generator: Apple Native CoreSVG 326-->
<!DOCTYPE svg
PUBLIC "-//W3C//DTD SVG 1.1//EN"
       "http://www.w3.org/Graphics/SVG/1.1/DTD/svg11.dtd">
<svg version="1.1" xmlns="http://www.w3.org/2000/svg" xmlns:xlink="http://www.w3.org/1999/xlink" viewBox="0 0 28.2461 27.9043">
 <g>
  <rect height="27.9043" opacity="0" width="28.2461" x="0" y="0"/>
  <path d="M13.9453 27.8906C21.6426 27.8906 27.8906 21.6289 27.8906 13.9453C27.8906 6.24805 21.6426 0 13.9453 0C6.26172 0 0 6.24805 0 13.9453C0 21.6289 6.26172 27.8906 13.9453 27.8906Z" fill="white" fill-opacity="0.85"/>
  <path d="M13.7266 9.80273C12.7832 9.80273 12.0312 9.05078 12.0312 8.12109C12.0312 7.17773 12.7832 6.42578 13.7266 6.42578C14.6699 6.42578 15.4219 7.17773 15.4219 8.12109C15.4219 9.05078 14.6699 9.80273 13.7266 9.80273ZM6.45312 11.0742L8.54492 7.41016C8.18945 7.0957 7.95703 6.64453 7.95703 6.13867C7.95703 5.19531 8.72266 4.44336 9.67969 4.44336C10.6094 4.44336 11.375 5.19531 11.375 6.13867C11.375 7.08203 10.6094 7.84766 9.67969 7.84766C9.57031 7.84766 9.44727 7.83398 9.32422 7.80664L7.64258 10.7734C7.73828 10.8418 7.83398 10.9102 7.91602 11.0059L9.78906 12.8926L20.877 7.3418C21.2871 7.13672 21.7656 7.30078 21.9707 7.69727C22.1758 8.09375 22.0254 8.59961 21.6016 8.80469L16.584 11.3066C16.3789 11.4023 16.3105 11.5664 16.3789 11.8672L18.5527 20.5352C18.6621 20.9453 18.498 21.3281 18.1289 21.5605L14.5605 23.9258C14.1641 24.1855 13.6719 24.0898 13.4258 23.707C13.1797 23.3379 13.2891 22.8184 13.6445 22.5723L16.8027 20.4941L15.9141 18.1699C15.8594 18.0332 15.7363 18.0332 15.668 18.1562L14.0137 21.1914C13.8496 21.4785 13.5625 21.6289 13.248 21.6289L9.625 21.6289C9.17383 21.6289 8.80469 21.2734 8.80469 20.8223C8.80469 20.3438 9.17383 20.002 9.625 20.002L12.7285 20.002L14.082 16.6797L13.2344 13.3438C13.207 13.1797 13.0293 13.084 12.8242 13.1934L10.0488 14.5742C9.65234 14.7793 9.25586 14.6699 9.05078 14.4375L6.58984 12.0039C6.33008 11.7305 6.27539 11.3887 6.45312 11.0742ZM8.8457 6.13867C8.8457 6.61719 9.20117 6.97266 9.67969 6.97266C10.1582 6.97266 10.5 6.61719 10.5 6.13867C10.5 5.67383 10.1582 5.31836 9.67969 5.31836C9.20117 5.31836 8.8457 5.67383 8.8457 6.13867Z" fill="white"/>
 </g>
</svg>
