<svg version="1.1" xmlns="http://www.w3.org/2000/svg" xmlns:xlink="http://www.w3.org/1999/xlink" viewBox="0 0 34.4542 30.8848">
 <g>
  
  <path d="M9.18802 5.89258C10.8286 5.89258 12.1411 4.59375 12.1411 2.95312C12.1411 1.3125 10.8286 0 9.18802 0C7.5474 0 6.2349 1.3125 6.2349 2.95312C6.2349 4.59375 7.5474 5.89258 9.18802 5.89258ZM9.18802 19.127C9.74857 19.127 9.96732 19.5098 10.2818 20.4941C10.7466 21.875 12.1275 27.6035 12.5923 29.2852C12.8247 30.1328 13.2622 30.4883 13.9048 30.4883C14.7798 30.4883 15.313 29.6953 15.0669 28.834C14.9712 28.4648 12.9888 20.1797 12.7017 18.4707C12.4693 16.9668 12.4146 13.9316 12.4146 12.4961C12.4146 12.2773 12.6607 12.1953 12.7974 12.3867C13.8228 13.8223 15.6958 16.502 16.065 16.9395C16.4751 17.4043 17.1314 17.4863 17.6646 17.1855C18.3618 16.8164 18.5259 16.0645 18.2388 15.5449C18.1294 15.3398 17.979 15.1348 17.8423 14.9297L14.3013 9.7207C13.1802 8.06641 11.7857 7.32812 9.18802 7.32812C6.59037 7.32812 5.19583 8.06641 4.07474 9.7207L0.533725 14.9297C0.397006 15.1348 0.246615 15.3398 0.13724 15.5449C-0.149869 16.0645 0.000521687 16.8164 0.711459 17.1855C1.24466 17.4863 1.90091 17.4043 2.2974 16.9395C2.66654 16.502 4.55326 13.8359 5.57865 12.3867C5.70169 12.209 5.96146 12.2773 5.96146 12.5098C5.96146 13.9453 5.8931 16.9668 5.66068 18.4707C5.38724 20.1797 3.40482 28.4648 3.30912 28.834C3.06302 29.6953 3.59622 30.4883 4.47122 30.4883C5.1138 30.4883 5.5513 30.1328 5.78372 29.2852C6.24857 27.6035 7.62943 21.875 8.09427 20.4941C8.40872 19.5098 8.62747 19.127 9.18802 19.127ZM24.9107 5.89258C26.5513 5.89258 27.8638 4.59375 27.8638 2.95312C27.8638 1.3125 26.5513 0 24.9107 0C23.2701 0 21.9576 1.3125 21.9576 2.95312C21.9576 4.59375 23.2701 5.89258 24.9107 5.89258ZM24.9107 19.127C25.4576 19.127 25.69 19.5098 26.0044 20.4941C26.4556 21.875 27.8501 27.6035 28.315 29.2852C28.5474 30.1328 28.9849 30.4883 29.6275 30.4883C30.5025 30.4883 31.0357 29.6953 30.7896 28.834C30.6802 28.4648 28.6978 20.1797 28.4243 18.4707C28.1919 16.9668 28.1236 13.9316 28.1236 12.4961C28.1236 12.2773 28.3833 12.1953 28.5064 12.3867C29.5454 13.8223 31.4185 16.502 31.7876 16.9395C32.1978 17.4043 32.8404 17.4863 33.3872 17.1855C34.0845 16.8164 34.2486 16.0645 33.9478 15.5449C33.8384 15.3398 33.7017 15.1348 33.5513 14.9297L30.024 9.7207C28.8892 8.06641 27.5083 7.32812 24.9107 7.32812C22.313 7.32812 20.9185 8.06641 19.7974 9.7207L16.2564 14.9297C16.106 15.1348 15.9693 15.3398 15.8599 15.5449C15.5728 16.0645 15.7232 16.8164 16.4204 17.1855C16.9673 17.4863 17.6099 17.4043 18.0201 16.9395C18.3892 16.502 20.2622 13.8359 21.3013 12.3867C21.4243 12.209 21.6841 12.2773 21.6841 12.5098C21.6841 13.9453 21.6158 16.9668 21.3833 18.4707C21.1099 20.1797 19.1275 28.4648 19.0318 28.834C18.772 29.6953 19.3189 30.4883 20.1939 30.4883C20.8365 30.4883 21.2603 30.1328 21.4927 29.2852C21.9576 27.6035 23.3521 21.875 23.8033 20.4941C24.1177 19.5098 24.3501 19.127 24.9107 19.127Z" style="fill:var(--color-0,hsl(0 0 0/0.85))"></path>
 </g>
</svg>