<svg version="1.1" xmlns="http://www.w3.org/2000/svg" xmlns:xlink="http://www.w3.org/1999/xlink" viewBox="0 0 17.8965 34.4668">
 <g>
  
  <path d="M1.99609 33.5781C2.78906 33.5781 3.37695 32.9766 3.37695 32.2383L3.37695 25.6895L7.20508 21.6152C7.27344 21.5469 7.39648 21.5469 7.46484 21.6289L11.1289 26.5371L14.2461 32.7305C15.1074 34.4668 17.541 33.2227 16.707 31.5684L10.3086 18.7441C9.73438 17.5957 9.44727 16.0508 9.31055 14.4785C9.26953 13.9727 9.59766 13.7266 10.0352 13.9453L12.5645 15.2305L14.9023 19.9062C15.7363 21.5605 18.2383 20.4395 17.3496 18.6758L14.8066 13.6035C14.6699 13.3301 14.4648 13.125 14.1914 12.9883L10.5547 11.1699C9.47461 10.623 8.36719 10.418 7.3418 10.1582C6.16602 9.87109 5.11328 9.50195 4.40234 8.49023L2.74805 6.08398L2.74805 1.35352C2.74805 0.615234 2.11914 0 1.36719 0C0.615234 0 0 0.615234 0 1.35352L0 6.52148C0 6.82227 0.0683594 7.02734 0.246094 7.28711L3.14453 11.4707C3.4043 11.8535 3.56836 12.0996 3.62305 12.7422C3.73242 14.2598 4.06055 17.0762 4.67578 19.1133L0.902344 24.3496C0.724609 24.623 0.65625 24.8828 0.65625 25.1426L0.65625 32.2383C0.65625 32.9766 1.24414 33.5781 1.99609 33.5781ZM8.28516 8.68164C9.92578 8.68164 11.252 7.35547 11.252 5.6875C11.252 4.04688 9.92578 2.7207 8.28516 2.7207C6.61719 2.7207 5.29102 4.04688 5.29102 5.6875C5.29102 7.35547 6.61719 8.68164 8.28516 8.68164Z" style="fill:var(--color-0,hsl(0 0 0/0.85))"></path>
 </g>
</svg>