<svg version="1.1" xmlns="http://www.w3.org/2000/svg" xmlns:xlink="http://www.w3.org/1999/xlink" viewBox="0 0 21.1491 30.2559">
 <g>
  
  <path d="M10.4857 6.71289C12.3588 6.71289 13.8353 5.22266 13.8353 3.36328C13.8353 1.50391 12.3451 0 10.4857 0C8.64 0 7.1361 1.50391 7.1361 3.36328C7.1361 5.22266 8.62633 6.71289 10.4857 6.71289ZM10.39 18.6895C10.8548 18.6895 11.183 18.9492 11.3197 19.4688L13.6029 28.2598C14.1224 30.2422 16.8295 29.5723 16.5423 27.6855C16.433 26.9609 14.4642 19.5234 14.1771 17.8418C13.9584 16.5977 14.0541 13.4805 14.0541 12.1133C14.0541 11.6895 14.4095 11.4844 14.8334 11.6484L18.7162 13.207C19.7552 13.6309 20.5209 13.1113 20.7259 12.4004C20.931 11.7441 20.6439 10.9238 19.6732 10.5137L15.4623 8.79102C14.5052 8.39453 13.6302 8.16211 12.6732 8.05273C11.9896 8.39453 11.2103 8.57227 10.39 8.57227C9.58336 8.57227 8.80406 8.39453 8.12047 8.05273C7.14977 8.16211 6.28844 8.39453 5.33141 8.79102L1.12047 10.5137C0.149767 10.9238-0.151014 11.7441 0.0677362 12.4004C0.272814 13.1113 1.02477 13.6309 2.06383 13.207L5.96031 11.6484C6.38414 11.4844 6.72594 11.6895 6.72594 12.1133C6.72594 13.4805 6.82164 16.5977 6.61656 17.8418C6.32945 19.5234 4.34703 26.9609 4.23766 27.6855C3.95055 29.5723 6.67125 30.2422 7.17711 28.2598L9.46031 19.4688C9.59703 18.9492 9.93883 18.6895 10.39 18.6895Z" style="fill:var(--color-0,hsl(0 0 0/0.85))"></path>
 </g>
</svg>