<svg version="1.1" xmlns="http://www.w3.org/2000/svg" xmlns:xlink="http://www.w3.org/1999/xlink" viewBox="0 0 28.2461 27.9043">
 <g>
  
  <path d="M13.9453 27.8906C21.6426 27.8906 27.8906 21.6426 27.8906 13.9453C27.8906 6.24805 21.6426 0 13.9453 0C6.24805 0 0 6.24805 0 13.9453C0 21.6426 6.24805 27.8906 13.9453 27.8906ZM13.9453 25.5664C7.51953 25.5664 2.32422 20.3711 2.32422 13.9453C2.32422 7.51953 7.51953 2.32422 13.9453 2.32422C20.3711 2.32422 25.5664 7.51953 25.5664 13.9453C25.5664 20.3711 20.3711 25.5664 13.9453 25.5664Z" style="fill:var(--color-0,hsl(0 0 0/0.85))"></path>
  <path d="M13.2344 7.30078C14.0684 7.30078 14.752 6.63086 14.752 5.7832C14.752 4.93555 14.0684 4.26562 13.2344 4.26562C12.4004 4.26562 11.7168 4.93555 11.7168 5.7832C11.7168 6.63086 12.4004 7.30078 13.2344 7.30078ZM14.6152 18.6758C15.0391 19.5508 16.3105 19.0039 15.8594 18.0742L14.6426 15.5996C14.5332 15.3809 14.3828 15.1621 14.2461 14.957L13.3574 13.6719L13.4121 13.4941C13.6309 12.7695 13.7539 12.332 13.7949 11.6211L13.9316 9.61133C14 8.6543 13.4395 7.92969 12.4551 7.92969C11.7168 7.92969 11.2246 8.29883 10.5547 8.96875L9.48828 10.0078C9.14648 10.3496 9.03711 10.623 8.99609 11.0879L8.87305 12.7285C8.8457 13.1387 9.06445 13.4395 9.44727 13.4531C9.83008 13.4668 10.0762 13.248 10.1035 12.8105L10.2676 10.9922L10.7734 10.541C10.9512 10.377 11.2109 10.4727 11.1973 10.6641L11.0742 12.1953C11.0195 12.9746 11.1973 13.3438 11.7305 14L13.1523 15.7773C13.2617 15.9277 13.3027 16.0234 13.3574 16.1328ZM15.7363 11.9082L17.2402 11.9082C17.6504 11.9082 17.9375 11.6621 17.9375 11.2656C17.9375 10.8828 17.6504 10.6367 17.2402 10.6367L15.627 10.6367L14.5879 9.50195L14.4785 11.1973L14.9023 11.6074C15.1348 11.8398 15.3262 11.9082 15.7363 11.9082ZM9.66602 19.3457L11.8125 16.7891C12.0176 16.5566 12.0449 16.502 12.127 16.2422L12.291 15.7637L11.1562 14.3555L10.8281 15.9414L8.70898 18.4297C8.03906 19.209 9.11914 19.9883 9.66602 19.3457ZM20.0156 12.9746L23.5293 11.3477C23.7754 11.2246 23.8574 10.9375 23.7754 10.7051C23.666 10.4727 23.3789 10.3633 23.1328 10.4863L19.6191 12.127C19.3594 12.25 19.2773 12.5234 19.3867 12.7559C19.4824 12.9883 19.7695 13.0977 20.0156 12.9746ZM19.7422 19.0449L20.4805 18.9902C20.5898 18.9902 20.6309 18.9902 20.7129 18.9902L22.0254 11.5117L20.9863 11.9629ZM6.41211 21.3281L20.7676 21.3281C21.2461 21.3281 21.6152 20.959 21.6152 20.4805C21.6152 19.9199 21.1914 19.6191 20.6172 19.6465L6.41211 20.5352C6.19336 20.5488 6.0293 20.7129 6.0293 20.9453C6.0293 21.1504 6.19336 21.3281 6.41211 21.3281Z" style="fill:var(--color-1,hsl(0 0 0/0.85))"></path>
 </g>
</svg>