<svg version="1.1" xmlns="http://www.w3.org/2000/svg" xmlns:xlink="http://www.w3.org/1999/xlink" viewBox="0 0 28.2461 27.9043">
 <g>
  
  <path d="M13.9453 27.8906C21.6426 27.8906 27.8906 21.6426 27.8906 13.9453C27.8906 6.24805 21.6426 0 13.9453 0C6.24805 0 0 6.24805 0 13.9453C0 21.6426 6.24805 27.8906 13.9453 27.8906ZM13.9453 25.5664C7.51953 25.5664 2.32422 20.3711 2.32422 13.9453C2.32422 7.51953 7.51953 2.32422 13.9453 2.32422C20.3711 2.32422 25.5664 7.51953 25.5664 13.9453C25.5664 20.3711 20.3711 25.5664 13.9453 25.5664Z" style="fill:var(--color-0,hsl(0 0 0/0.85))"></path>
  <path d="M5.83789 15.9414C6.75391 15.9414 7.47852 15.1895 7.47852 14.2871C7.47852 13.3848 6.75391 12.6328 5.83789 12.6328C4.92188 12.6328 4.18359 13.3848 4.18359 14.2871C4.18359 15.1895 4.92188 15.9414 5.83789 15.9414ZM7.64258 16.4746C7.3418 17.2129 7.62891 17.9922 8.25781 18.4434C9.2832 19.1406 10.2402 19.4004 11.7578 19.4004L14.1504 19.4004C16.0098 19.4004 16.5156 17.9512 15.8867 16.7344L13.9316 12.9883L13.9316 7.60156C13.9316 7.15039 13.5898 6.82227 13.125 6.82227C12.7012 6.82227 12.3594 7.15039 12.3594 7.60156L12.3594 13.1797C12.3594 13.2754 12.3867 13.3711 12.4004 13.4395L13.4941 16.5703L12.0723 16.5703C11.1562 16.5703 10.6367 16.3105 9.92578 15.873C9.7207 15.7637 9.66602 15.5996 9.74805 15.3809L11.5117 10.8691C11.6621 10.4727 11.4707 10.0215 11.0742 9.85742C10.6367 9.70703 10.1992 9.89844 10.0352 10.3086ZM16.8711 18.1973L19.7012 17.2676L23.3516 16.625C23.7754 16.543 24.0625 16.1465 23.9805 15.6953C23.8984 15.2578 23.4883 14.9844 23.0508 15.0664L19.209 15.7773L16.502 16.2559L16.5566 16.3789C16.8711 16.9941 16.9805 17.623 16.8711 18.1973Z" style="fill:var(--color-1,hsl(0 0 0/0.85))"></path>
 </g>
</svg>