<?xml version="1.0" encoding="UTF-8"?>
<!--Generator: Apple Native CoreSVG 326-->
<!DOCTYPE svg
PUBLIC "-//W3C//DTD SVG 1.1//EN"
       "http://www.w3.org/Graphics/SVG/1.1/DTD/svg11.dtd">
<svg version="1.1" xmlns="http://www.w3.org/2000/svg" xmlns:xlink="http://www.w3.org/1999/xlink" viewBox="0 0 28.2461 27.9043">
 <g>
  <rect height="27.9043" opacity="0" width="28.2461" x="0" y="0"/>
  <path d="M13.9453 27.8906C21.6426 27.8906 27.8906 21.6426 27.8906 13.9453C27.8906 6.24805 21.6426 0 13.9453 0C6.24805 0 0 6.24805 0 13.9453C0 21.6426 6.24805 27.8906 13.9453 27.8906ZM13.9453 25.5664C7.51953 25.5664 2.32422 20.3711 2.32422 13.9453C2.32422 7.51953 7.51953 2.32422 13.9453 2.32422C20.3711 2.32422 25.5664 7.51953 25.5664 13.9453C25.5664 20.3711 20.3711 25.5664 13.9453 25.5664Z" fill="white" fill-opacity="0.85"/>
  <path d="M12.5098 7.72461C13.4258 7.72461 14.1641 6.98633 14.1641 6.08398C14.1641 5.18164 13.4258 4.42969 12.5098 4.42969C11.6074 4.42969 10.8691 5.18164 10.8691 6.08398C10.8691 6.98633 11.6074 7.72461 12.5098 7.72461ZM16.4473 19.7148C16.7617 19.5508 16.9668 19.1816 16.7617 18.6758L15.4219 15.3535C15.3945 15.2441 15.3125 15.1621 15.1484 15.0391L12.7148 13.2344L12.9062 10.5547C12.9336 10.418 13.0293 10.3633 13.1797 10.418L14.7383 10.9512C14.9023 10.9922 15.0801 11.0059 15.2578 10.9922L18.1836 10.6641C19.2227 10.541 19.0312 9.02344 18.0059 9.14648L15.1621 9.47461L12.2637 8.50391C11.2246 8.16211 10.3086 8.75 10.2266 9.80273L9.99414 12.4414C9.92578 13.2344 10.3496 14.0137 11.0332 14.4102L14.123 16.2012L15.3398 19.2363C15.5449 19.7695 16.0781 19.8926 16.4473 19.7148ZM9.39258 21.0547C9.69336 21.2188 10.0762 21.1641 10.3496 20.7676L12.3457 17.7871C12.4004 17.6914 12.4551 17.5547 12.4824 17.3906L12.5645 16.0645L10.8281 15.0527L10.9375 17.1445L9.0918 19.9062C8.75 20.3984 8.99609 20.8906 9.39258 21.0547ZM15.2441 22.1348L18.1973 21.1504C18.4297 21.0684 18.5527 20.9043 18.5527 20.6172L18.5527 11.2656C18.416 11.293 18.3613 11.3066 18.2246 11.3203L17.623 11.3887L17.623 20.3574L14.957 21.2461C14.6289 21.3555 14.5605 21.6562 14.6426 21.875C14.7246 22.0664 14.9434 22.2441 15.2441 22.1348ZM9.13281 22.8184L12.2363 22.8184C12.4961 22.8184 12.7285 22.5859 12.7285 22.3535C12.7285 22.0938 12.4961 21.8887 12.2363 21.8887L9.13281 21.8887C8.87305 21.8887 8.68164 22.1074 8.68164 22.3535C8.68164 22.5859 8.87305 22.8184 9.13281 22.8184Z" fill="white" fill-opacity="0.85"/>
 </g>
</svg>
