<?xml version="1.0" encoding="UTF-8"?>
<!--Generator: Apple Native CoreSVG 326-->
<!DOCTYPE svg
PUBLIC "-//W3C//DTD SVG 1.1//EN"
       "http://www.w3.org/Graphics/SVG/1.1/DTD/svg11.dtd">
<svg version="1.1" xmlns="http://www.w3.org/2000/svg" xmlns:xlink="http://www.w3.org/1999/xlink" viewBox="0 0 28.2461 27.9043">
 <g>
  <rect height="27.9043" opacity="0" width="28.2461" x="0" y="0"/>
  <path d="M13.9453 27.8906C21.6426 27.8906 27.8906 21.6289 27.8906 13.9453C27.8906 6.24805 21.6426 0 13.9453 0C6.26172 0 0 6.24805 0 13.9453C0 21.6289 6.26172 27.8906 13.9453 27.8906Z" fill="white" fill-opacity="0.85"/>
  <path d="M6.64453 12.8105C5.71484 12.8105 4.93555 12.0449 4.93555 11.1016C4.93555 10.1719 5.71484 9.40625 6.64453 9.40625C7.57422 9.40625 8.33984 10.1719 8.33984 11.1016C8.33984 12.0449 7.57422 12.8105 6.64453 12.8105ZM11.7305 17.5C9.95312 17.5 8.66797 17.0352 7.86133 16.3242C7.65625 16.1875 7.50586 16.1602 7.25977 16.2695L4.74414 17.3906C4.04688 17.6914 3.36328 17.2812 3.55469 16.4883L4.30664 13.5352C4.41602 13.125 4.85352 12.8652 5.29102 12.9609C5.70117 13.0703 6.00195 13.5078 5.86523 13.9316L5.49609 15.2988L6.69922 14.752C7.92969 14.1914 8.70898 13.5215 9.5293 12.5371L10.6914 11.1562L9.55664 11.1562C9.10547 11.1562 8.75 10.7871 8.75 10.3359C8.75 9.88477 9.11914 9.54297 9.55664 9.54297L12.373 9.54297C13.0293 9.54297 13.4121 10.3223 12.9473 10.8691L10.9512 13.2617C10.8008 13.4121 10.8008 13.6035 10.8828 13.7402C11.2109 14.2871 11.8125 14.5195 12.5234 14.5195L13.8633 14.5195L13.8633 10.4043C13.8633 9.87109 14.2051 9.54297 14.6699 9.54297L18.7168 9.54297C19.1543 9.54297 19.5098 9.88477 19.5098 10.3359C19.5098 10.7871 19.1543 11.1562 18.7168 11.1562L15.6543 11.1562L16.1602 15.2305C16.3242 16.4336 15.8047 17.5 13.9453 17.5ZM24.2402 14.0547C24.6914 14.0547 25.0605 14.4238 25.0605 14.875C25.0605 15.3262 24.6914 15.6816 24.2402 15.6816L20.3301 15.6816L16.7754 16.4062C16.8848 16.0098 16.8984 15.5859 16.8438 15.1484L16.748 14.3691L20.0156 14.082C20.1113 14.082 20.1934 14.0547 20.248 14.0547Z" fill="white"/>
 </g>
</svg>
