<?xml version="1.0" encoding="UTF-8"?>
<!--Generator: Apple Native CoreSVG 326-->
<!DOCTYPE svg
PUBLIC "-//W3C//DTD SVG 1.1//EN"
       "http://www.w3.org/Graphics/SVG/1.1/DTD/svg11.dtd">
<svg version="1.1" xmlns="http://www.w3.org/2000/svg" xmlns:xlink="http://www.w3.org/1999/xlink" viewBox="0 0 32.7168 25.6074">
 <g>
  <rect height="25.6074" opacity="0" width="32.7168" x="0" y="0"/>
  <path d="M16.9258 9.50195C18.5801 9.50195 19.9199 8.17578 19.9199 6.52148C19.9199 4.86719 18.5801 3.52734 16.9258 3.52734C15.2715 3.52734 13.9453 4.86719 13.9453 6.52148C13.9453 8.17578 15.2715 9.50195 16.9258 9.50195ZM10.418 16.0371C13.4941 16.4199 13.9043 18.1973 16.1738 18.1973C16.2559 18.1973 16.3105 18.1973 16.3926 18.1836L17.7324 14.4238C17.8828 13.9863 18.1289 13.8223 18.5938 13.8223L30.748 13.8223C31.541 13.8223 32.2109 13.1523 32.2109 12.3457C32.2109 11.5664 31.541 10.8965 30.748 10.8965L7.84766 10.8965L5.94727 4.68945C5.71484 3.89648 4.9082 3.45898 4.15625 3.69141C3.39062 3.9375 2.9668 4.75781 3.18555 5.48242L5.31836 12.6055C5.52344 13.2754 6.04297 13.8223 6.75391 13.8223L10.6641 13.8223C10.9512 13.8223 11.1426 14.0547 11.0469 14.3418ZM8.80469 4.2793C9.98047 4.2793 10.9375 3.32227 10.9375 2.14648C10.9375 0.970703 9.98047 0 8.80469 0C7.62891 0 6.67188 0.970703 6.67188 2.14648C6.67188 3.32227 7.62891 4.2793 8.80469 4.2793ZM0.765625 21.8066L2.14648 21.8066C5.79688 21.8066 6.63086 19.5645 9.16016 19.5645C11.6895 19.5645 12.5234 21.8066 16.1738 21.8066C19.8379 21.8066 20.6582 19.5645 23.2012 19.5645C25.7305 19.5645 26.5508 21.8066 30.2148 21.8066L31.5957 21.8066C32.0195 21.8066 32.3613 21.4785 32.3613 21.0547C32.3613 20.6309 32.0195 20.2891 31.5957 20.2891L30.2148 20.2891C27.5898 20.2891 26.7012 18.0469 23.2012 18.0469C19.6875 18.0469 18.7988 20.2891 16.1738 20.2891C13.5488 20.2891 12.6738 18.0469 9.16016 18.0469C5.66016 18.0469 4.77148 20.2891 2.14648 20.2891L0.765625 20.2891C0.328125 20.2891 0 20.6309 0 21.0547C0 21.4785 0.328125 21.8066 0.765625 21.8066ZM1.12109 25.6074C1.57227 25.6074 1.92773 25.252 1.92773 24.8008C1.92773 24.3633 1.57227 24.0078 1.12109 24.0078C0.683594 24.0078 0.328125 24.3633 0.328125 24.8008C0.328125 25.252 0.683594 25.6074 1.12109 25.6074ZM3.69141 25.1426C4.12891 25.1426 4.48438 24.7871 4.48438 24.3496C4.48438 23.8984 4.12891 23.543 3.69141 23.543C3.24023 23.543 2.88477 23.8984 2.88477 24.3496C2.88477 24.7871 3.24023 25.1426 3.69141 25.1426ZM6.08398 24.0078C6.53516 24.0078 6.89062 23.666 6.89062 23.2148C6.89062 22.7637 6.53516 22.4219 6.08398 22.4219C5.64648 22.4219 5.29102 22.7637 5.29102 23.2148C5.29102 23.666 5.64648 24.0078 6.08398 24.0078ZM8.66797 23.4062C9.11914 23.4062 9.47461 23.0508 9.47461 22.5996C9.47461 22.1621 9.11914 21.8066 8.66797 21.8066C8.23047 21.8066 7.875 22.1621 7.875 22.5996C7.875 23.0508 8.23047 23.4062 8.66797 23.4062ZM11.252 24.0078C11.7031 24.0078 12.0449 23.666 12.0449 23.2148C12.0449 22.7637 11.7031 22.4219 11.252 22.4219C10.8008 22.4219 10.459 22.7637 10.459 23.2148C10.459 23.666 10.8008 24.0078 11.252 24.0078ZM13.6719 25.1426C14.123 25.1426 14.4785 24.7871 14.4785 24.3496C14.4785 23.8984 14.123 23.543 13.6719 23.543C13.2344 23.543 12.8789 23.8984 12.8789 24.3496C12.8789 24.7871 13.2344 25.1426 13.6719 25.1426ZM16.2012 25.6074C16.6387 25.6074 16.9941 25.252 16.9941 24.8008C16.9941 24.3633 16.6387 24.0078 16.2012 24.0078C15.75 24.0078 15.3945 24.3633 15.3945 24.8008C15.3945 25.252 15.75 25.6074 16.2012 25.6074ZM18.7168 25.1426C19.168 25.1426 19.5098 24.7871 19.5098 24.3496C19.5098 23.8984 19.168 23.543 18.7168 23.543C18.2656 23.543 17.9238 23.8984 17.9238 24.3496C17.9238 24.7871 18.2656 25.1426 18.7168 25.1426ZM21.1367 24.0078C21.5879 24.0078 21.9434 23.666 21.9434 23.2148C21.9434 22.7637 21.5879 22.4219 21.1367 22.4219C20.6992 22.4219 20.3438 22.7637 20.3438 23.2148C20.3438 23.666 20.6992 24.0078 21.1367 24.0078ZM23.7207 23.4062C24.1719 23.4062 24.5137 23.0508 24.5137 22.5996C24.5137 22.1621 24.1719 21.8066 23.7207 21.8066C23.2695 21.8066 22.9277 22.1621 22.9277 22.5996C22.9277 23.0508 23.2695 23.4062 23.7207 23.4062ZM26.3047 24.0078C26.7559 24.0078 27.0977 23.666 27.0977 23.2148C27.0977 22.7637 26.7559 22.4219 26.3047 22.4219C25.8535 22.4219 25.5117 22.7637 25.5117 23.2148C25.5117 23.666 25.8535 24.0078 26.3047 24.0078ZM28.7109 25.1426C29.1621 25.1426 29.5039 24.7871 29.5039 24.3496C29.5039 23.8984 29.1621 23.543 28.7109 23.543C28.2598 23.543 27.918 23.8984 27.918 24.3496C27.918 24.7871 28.2598 25.1426 28.7109 25.1426ZM31.2539 25.6074C31.7051 25.6074 32.0605 25.252 32.0605 24.8008C32.0605 24.3633 31.7051 24.0078 31.2539 24.0078C30.8164 24.0078 30.4609 24.3633 30.4609 24.8008C30.4609 25.252 30.8164 25.6074 31.2539 25.6074Z" fill="white" fill-opacity="0.85"/>
 </g>
</svg>
