<svg version="1.1" xmlns="http://www.w3.org/2000/svg" xmlns:xlink="http://www.w3.org/1999/xlink" viewBox="0 0 33.8755 27.7402">
 <g>
  
  <path d="M26.3167 7.42383C28.3538 7.42383 29.9944 5.71484 29.9944 3.73242C29.9944 1.66797 28.3538 0 26.3167 0C24.2385 0 22.5979 1.66797 22.5979 3.73242C22.5979 5.76953 24.2385 7.42383 26.3167 7.42383ZM4.27761 26.9883C4.98855 27.7266 6.20534 27.6719 7.08034 26.7695L12.9593 20.6992C13.1507 20.4941 13.2874 20.4395 13.6018 20.5625L18.1819 22.2988C21.135 23.4336 23.9241 22.4629 25.2093 20.1113L28.1624 14.7383C29.3108 12.6465 28.9553 10.4863 26.9593 9.41992C25.0315 8.36719 23.0218 9.16016 21.8596 11.3066L18.0315 18.293L14.7639 17.1035C13.1507 16.5156 11.7971 16.707 10.512 18.0469L4.40066 24.3633C3.553 25.2383 3.63503 26.332 4.27761 26.9883Z" style="fill:var(--color-0,hsl(0 0 0/0.85))"></path>
  <path d="M5.15261 5.45508C5.15261 6.0293 5.59011 6.48047 6.16433 6.48047L11.5237 6.48047L11.5237 8.61328C11.5237 9.57031 12.4944 9.99414 13.219 9.35156L16.76 6.20703C17.2385 5.75586 17.2385 5.19531 16.76 4.75781L13.219 1.61328C12.5218 0.998047 11.5237 1.33984 11.5237 2.35156L11.5237 4.4707L6.16433 4.4707C5.59011 4.4707 5.15261 4.9082 5.15261 5.45508ZM0.285423 7.94336C-0.0973896 8.32617-0.0973896 8.95508 0.299095 9.36523L4.0862 13.1387L2.5823 14.6562C1.88503 15.3672 2.3362 16.3105 3.25222 16.3652L7.99636 16.6387C8.65261 16.6797 9.04909 16.2695 9.02175 15.627L8.72097 10.8965C8.67995 9.92578 7.68191 9.54297 7.01199 10.2129L5.49441 11.7305L1.72097 7.94336C1.32449 7.54688 0.681907 7.54688 0.285423 7.94336Z" style="fill:var(--color-1,hsl(0 0 0/0.85))"></path>
 </g>
</svg>