<svg version="1.1" xmlns="http://www.w3.org/2000/svg" xmlns:xlink="http://www.w3.org/1999/xlink" viewBox="0 0 28.2461 27.9043">
 <g>
  
  <path d="M13.9453 27.8906C21.6426 27.8906 27.8906 21.6426 27.8906 13.9453C27.8906 6.24805 21.6426 0 13.9453 0C6.24805 0 0 6.24805 0 13.9453C0 21.6426 6.24805 27.8906 13.9453 27.8906ZM13.9453 25.5664C7.51953 25.5664 2.32422 20.3711 2.32422 13.9453C2.32422 7.51953 7.51953 2.32422 13.9453 2.32422C20.3711 2.32422 25.5664 7.51953 25.5664 13.9453C25.5664 20.3711 20.3711 25.5664 13.9453 25.5664Z" style="fill:var(--color-0,hsl(0 0 0/0.85))"></path>
  <path d="M13.7949 8.33984C14.7109 8.33984 15.4355 7.60156 15.4355 6.68555C15.4355 5.7832 14.7109 5.04492 13.7949 5.04492C12.8789 5.04492 12.1406 5.7832 12.1406 6.68555C12.1406 7.60156 12.8789 8.33984 13.7949 8.33984ZM8.53125 22.8047C8.8457 22.9824 9.33789 22.9141 9.55664 22.5176L11.4707 19.0723L12.5781 16.5566C12.6191 16.502 12.6738 16.4746 12.7422 16.5156L15.75 18.7031L15.75 22.1211C15.75 22.5449 16.0918 22.9004 16.5156 22.9004C16.9395 22.9004 17.2812 22.5449 17.2812 22.1211L17.2812 18.375C17.2812 18.1562 17.2129 17.9238 17.0488 17.7598L13.9043 14.7793L14.1914 12.3867C14.2051 12.3047 14.3281 12.3047 14.3555 12.373L15.0527 14.041C15.1758 14.3281 15.4492 14.5195 15.75 14.5195L18.9766 14.5195C19.4141 14.5195 19.7559 14.1777 19.7559 13.7539C19.7559 13.3164 19.4141 12.9883 18.9766 12.9883L16.2559 12.9883L15.1621 10.4316C14.875 9.76172 14.4512 9.37891 13.4941 9.11914L13.0566 8.99609C12.0039 8.69531 11.293 8.66797 10.4316 9.02344L9.2832 9.5293L9.2832 6.69922C9.2832 6.28906 8.92773 5.93359 8.51758 5.93359C8.09375 5.93359 7.75195 6.28906 7.75195 6.69922L7.75195 10.7871C7.75195 11.334 8.32617 11.6074 8.81836 11.4023L10.9785 10.459C11.0605 10.418 11.1699 10.4727 11.1562 10.582L10.0625 18.457L8.2168 21.7793C8.02539 22.1211 8.14844 22.6133 8.53125 22.8047ZM18.4297 11.8809L19.3594 11.8809L19.3594 5.1543C19.3594 4.9082 19.1406 4.68945 18.8945 4.68945C18.6484 4.68945 18.4297 4.9082 18.4297 5.1543ZM17.8555 12.2637L19.9336 12.2637C20.1934 12.2637 20.2891 12.0586 20.207 11.8262C20.0156 11.252 19.4961 10.8691 18.8945 10.8691C18.2793 10.8691 17.7734 11.252 17.582 11.8262C17.5 12.0586 17.5957 12.2637 17.8555 12.2637Z" style="fill:var(--color-1,hsl(0 0 0/0.85))"></path>
 </g>
</svg>