<?xml version="1.0" encoding="UTF-8"?>
<!--Generator: Apple Native CoreSVG 326-->
<!DOCTYPE svg
PUBLIC "-//W3C//DTD SVG 1.1//EN"
       "http://www.w3.org/Graphics/SVG/1.1/DTD/svg11.dtd">
<svg version="1.1" xmlns="http://www.w3.org/2000/svg" xmlns:xlink="http://www.w3.org/1999/xlink" viewBox="0 0 24.7912 32.7441">
 <g>
  <rect height="32.7441" opacity="0" width="24.7912" x="0" y="0"/>
  <path d="M9.79109 5.97461C11.4317 5.97461 12.7579 4.63477 12.7579 2.9668C12.7579 1.32617 11.4317 0 9.79109 0C8.12312 0 6.78328 1.32617 6.78328 2.9668C6.78328 4.63477 8.12312 5.97461 9.79109 5.97461ZM16.0528 32.5527C16.8458 32.5527 17.461 31.9238 17.461 31.1582L17.461 23.3926C17.461 23.0645 17.2833 22.5996 16.8458 22.3125L11.8555 18.9902L11.8555 10.541C11.8555 10.3633 12.0059 10.1992 12.1973 10.1992L23.0391 10.1992C23.8184 10.1992 24.4337 9.57031 24.4337 8.80469C24.4337 8.03906 23.8184 7.41016 23.0391 7.41016L7.61726 7.41016C6.30476 7.41016 5.59383 7.875 4.9239 8.70898L1.28718 13.1797C0.412185 14.2461 1.12312 15.791 2.25789 15.791L6.27742 15.791L6.27742 17.7188C6.27742 18.9902 6.98836 20.1797 8.13679 20.7949L14.6583 24.3086L14.6583 31.1582C14.6583 31.9238 15.2872 32.5527 16.0528 32.5527ZM4.85554 13.084L6.35945 11.2109L6.35945 13.084ZM0.330153 32.0742C0.863357 32.6758 1.73836 32.7031 2.32625 32.1973L7.80867 27.3984C8.08211 27.1523 8.19148 27.043 8.28718 26.7832L9.75008 23.1465L7.50789 21.9434C7.28914 21.8203 7.07039 21.6836 6.86531 21.5332L5.75789 25.4844L0.466872 30.1055C-0.0936746 30.5977-0.162034 31.5137 0.330153 32.0742Z" fill="white" fill-opacity="0.85"/>
 </g>
</svg>
