<?xml version="1.0" encoding="UTF-8"?>
<!--Generator: Apple Native CoreSVG 326-->
<!DOCTYPE svg
PUBLIC "-//W3C//DTD SVG 1.1//EN"
       "http://www.w3.org/Graphics/SVG/1.1/DTD/svg11.dtd">
<svg version="1.1" xmlns="http://www.w3.org/2000/svg" xmlns:xlink="http://www.w3.org/1999/xlink" viewBox="0 0 37.3797 33.6738">
 <g>
  <rect height="33.6738" opacity="0" width="37.3797" x="0" y="0"/>
  <path d="M11.3617 7.42383C13.4262 7.42383 15.0532 5.72852 15.0532 3.73242C15.0532 1.68164 13.4262 0 11.3617 0C9.29729 0 7.67034 1.68164 7.67034 3.73242C7.67034 5.76953 9.29729 7.42383 11.3617 7.42383ZM4.2387 21.2598L14.8481 9.50195C13.809 9.11914 12.6606 8.94141 11.3617 8.94141C6.59026 8.94141 3.76018 11.252 3.76018 15.1074C3.76018 16.0234 3.81487 17.2676 3.93792 18.5527ZM18.4985 21.2734L18.7856 18.5527C18.9223 17.2676 18.977 16.0234 18.977 15.1074C18.977 13.207 18.3071 11.6621 16.9946 10.6094L8.60003 19.9883C9.51604 19.8242 10.4457 19.7832 11.3617 19.7832C13.727 19.7832 16.0922 20.084 18.4985 21.2734ZM7.27386 33.5781C8.25823 33.4414 8.90081 32.7441 8.77776 31.5273L8.10784 25.3613L14.6293 25.3613L13.9594 31.5273C13.8364 32.7441 14.4789 33.4414 15.4496 33.5781C16.4614 33.6875 17.2407 33.0586 17.3637 31.8691L18.2114 23.7344C16.0512 22.4902 13.6586 22.0117 11.3617 22.0117C9.07854 22.0117 6.68596 22.4902 4.52581 23.7344L5.37346 31.8691C5.49651 33.0586 6.27581 33.6875 7.27386 33.5781ZM16.9946 10.5957L20.1664 7.08203C20.7133 6.45312 20.6723 5.7832 20.1391 5.33203C19.6469 4.89453 19.0043 4.89453 18.4164 5.53711L14.8481 9.50195C15.641 9.78906 16.352 10.1855 16.9946 10.5957ZM0.314871 25.6484C0.807058 26.1543 1.47698 26.1406 2.0512 25.5527C2.81682 24.8281 3.58245 24.2129 4.52581 23.7344L4.2387 21.2598C2.8305 21.916 1.60003 22.8594 0.437918 23.9531C-0.108957 24.4727-0.136301 25.1562 0.314871 25.6484ZM22.4223 25.6484C22.8735 25.1699 22.8461 24.4863 22.3129 23.9668C21.1371 22.8594 19.9067 21.9297 18.4985 21.2734L18.2114 23.7344C19.1547 24.2129 19.9203 24.8281 20.686 25.5527C21.2602 26.1406 21.9301 26.1543 22.4223 25.6484Z" fill="#ff453a"/>
  <path d="M30.1469 16.748C34.0024 16.748 37.0239 13.5625 37.0239 9.85742C37.0239 5.98828 34.0024 2.87109 30.1469 2.87109C26.2778 2.87109 23.1742 5.98828 23.1742 9.85742C23.1742 13.5625 26.2778 16.748 30.1469 16.748ZM30.1469 14.957C27.3305 14.957 24.9653 12.6328 24.9653 9.85742C24.9653 6.97266 27.2621 4.66211 30.1469 4.66211C32.9907 4.66211 35.2328 6.94531 35.2328 9.85742C35.2328 12.6738 32.936 14.957 30.1469 14.957ZM25.0883 3.54102C24.7465 3.19922 24.186 3.19922 23.8442 3.54102C23.475 3.88281 23.475 4.44336 23.8442 4.8125L35.1235 16.0918C35.4653 16.4336 36.0395 16.4336 36.3813 16.0918C36.7367 15.75 36.7367 15.1758 36.3813 14.8203ZM23.8442 14.8203C23.475 15.1758 23.475 15.75 23.8442 16.0918C24.186 16.4336 24.7465 16.4336 25.0883 16.0918L36.3813 4.8125C36.7367 4.44336 36.7367 3.88281 36.3813 3.54102C36.0395 3.19922 35.4653 3.19922 35.1235 3.54102Z" fill="#ff453a"/>
 </g>
</svg>
