<svg version="1.1" xmlns="http://www.w3.org/2000/svg" xmlns:xlink="http://www.w3.org/1999/xlink" viewBox="0 0 28.2461 27.9043">
 <g>
  
  <path d="M13.9453 27.8906C21.6426 27.8906 27.8906 21.6426 27.8906 13.9453C27.8906 6.24805 21.6426 0 13.9453 0C6.24805 0 0 6.24805 0 13.9453C0 21.6426 6.24805 27.8906 13.9453 27.8906ZM13.9453 25.5664C7.51953 25.5664 2.32422 20.3711 2.32422 13.9453C2.32422 7.51953 7.51953 2.32422 13.9453 2.32422C20.3711 2.32422 25.5664 7.51953 25.5664 13.9453C25.5664 20.3711 20.3711 25.5664 13.9453 25.5664Z" style="fill:var(--color-0,hsl(0 0 0/0.85))"></path>
  <path d="M11.5391 8.43555C12.4414 8.43555 13.1797 7.69727 13.1797 6.78125C13.1797 5.87891 12.4414 5.14062 11.5391 5.14062C10.6094 5.14062 9.88477 5.87891 9.88477 6.78125C9.88477 7.69727 10.6094 8.43555 11.5391 8.43555ZM11.416 18.7441L18.5664 10.5684C18.7441 10.377 18.8262 10.2129 18.8262 9.99414C18.8262 9.54297 18.4844 9.22852 18.0332 9.22852L11.375 9.22852C9.85742 9.22852 8.61328 10.1035 8.27148 11.3887L7.54688 14.1777C7.20508 15.4219 7.99805 16.2012 8.96875 16.2012C9.2832 16.2012 9.59766 16.1191 9.91211 15.9551L13.3438 14.1777L13.3848 14.1914L14.8887 12.4824L14.5195 12.2773C14.2188 12.1133 13.8633 12.0996 13.5352 12.25L10.4727 13.5898L11.0879 11.4297C11.1836 11.0469 11.5391 10.7734 11.9355 10.7734L17.2539 10.7734L10.2676 18.7578C10.6094 18.7168 11.0879 18.6895 11.416 18.7441ZM15.8457 14.6973L18.5527 16.0508C19.1133 16.3242 19.5508 16.1055 19.7148 15.75C19.8926 15.4219 19.7832 14.9297 19.2637 14.6699L16.8984 13.4805ZM10.2676 17.7324L7.28711 17.7324C7.04102 17.7324 6.82227 17.9512 6.82227 18.2109C6.82227 18.457 7.04102 18.6758 7.28711 18.6758L9.44727 18.6758ZM20.5762 17.7324L13.1797 17.7324L12.3594 18.6758L20.5762 18.6758C20.8223 18.6758 21.041 18.457 21.041 18.2109C21.041 17.9512 20.8223 17.7324 20.5762 17.7324ZM13.9316 21.3555C15.5312 21.3555 15.9688 20.3711 17.0352 20.3711C18.0879 20.3711 18.5254 21.3555 20.1113 21.3555L20.4805 21.3555C20.7129 21.3555 20.8906 21.1777 20.8906 20.959C20.8906 20.7266 20.7129 20.5352 20.4805 20.5352L20.1113 20.5352C19.0859 20.5352 18.6348 19.5371 17.0352 19.5371C15.4902 19.5371 15.0254 20.5352 13.9316 20.5352C12.8379 20.5352 12.373 19.5371 10.8418 19.5371C9.22852 19.5371 8.77734 20.5352 7.75195 20.5352L7.39648 20.5352C7.15039 20.5352 6.98633 20.7266 6.98633 20.959C6.98633 21.1777 7.15039 21.3555 7.39648 21.3555L7.75195 21.3555C9.33789 21.3555 9.77539 20.3711 10.8418 20.3711C11.9082 20.3711 12.332 21.3555 13.9316 21.3555Z" style="fill:var(--color-1,hsl(0 0 0/0.85))"></path>
 </g>
</svg>