<svg version="1.1" xmlns="http://www.w3.org/2000/svg" xmlns:xlink="http://www.w3.org/1999/xlink" viewBox="0 0 14.7268 30.4822">
 <g>
  
  <path d="M0.00108541 1.28893L0.260851 6.08776C0.301867 6.96276 0.643664 7.46862 1.2589 7.91979L4.22569 10.0936C4.59484 10.3534 4.79991 10.5448 4.79991 11.1874L4.79991 29.0292C4.79991 29.7674 5.40148 30.3553 6.13976 30.3553C6.87804 30.3553 7.46593 29.7674 7.46593 29.0292L7.46593 19.4315C7.46593 19.1854 7.68468 18.9667 7.93077 18.9667C8.17687 18.9667 8.38194 19.1854 8.38194 19.4315L8.38194 29.0292C8.38194 29.7674 8.98351 30.3553 9.72179 30.3553C10.4601 30.3553 11.048 29.7674 11.048 29.0292L11.048 13.1835C11.048 12.9374 11.253 12.746 11.4991 12.746C11.7452 12.746 11.9366 12.9374 11.9366 13.1835L11.9366 18.4471C11.9366 19.1307 12.4835 19.6639 13.1534 19.6639C13.8234 19.6639 14.3702 19.1307 14.3702 18.4471L14.3702 12.5682C14.3702 9.54674 12.1554 7.53698 8.92882 7.53698L6.08507 7.53698C5.26476 7.53698 4.7589 7.37292 4.10265 6.90807L2.68077 5.89635L2.42101 1.16588C2.39366 0.495962 1.81944-0.0509126 1.14952 0.0037749C0.465929 0.0584624-0.0262583 0.619009 0.00108541 1.28893ZM7.93077 6.00573C9.58507 6.00573 10.9112 4.67956 10.9112 3.02526C10.9112 1.37096 9.58507 0.0447905 7.93077 0.0447905C6.27648 0.0447905 4.9503 1.37096 4.9503 3.02526C4.9503 4.67956 6.27648 6.00573 7.93077 6.00573Z" style="fill:var(--color-0,hsl(0 0 0/0.85))"></path>
 </g>
</svg>