<?xml version="1.0" encoding="UTF-8"?>
<!--Generator: Apple Native CoreSVG 326-->
<!DOCTYPE svg
PUBLIC "-//W3C//DTD SVG 1.1//EN"
       "http://www.w3.org/Graphics/SVG/1.1/DTD/svg11.dtd">
<svg version="1.1" xmlns="http://www.w3.org/2000/svg" xmlns:xlink="http://www.w3.org/1999/xlink" viewBox="0 0 28.2461 27.9043">
 <g>
  <rect height="27.9043" opacity="0" width="28.2461" x="0" y="0"/>
  <path d="M13.9453 27.8906C21.6426 27.8906 27.8906 21.6426 27.8906 13.9453C27.8906 6.24805 21.6426 0 13.9453 0C6.24805 0 0 6.24805 0 13.9453C0 21.6426 6.24805 27.8906 13.9453 27.8906ZM13.9453 25.5664C7.51953 25.5664 2.32422 20.3711 2.32422 13.9453C2.32422 7.51953 7.51953 2.32422 13.9453 2.32422C20.3711 2.32422 25.5664 7.51953 25.5664 13.9453C25.5664 20.3711 20.3711 25.5664 13.9453 25.5664Z" fill="white" fill-opacity="0.85"/>
  <path d="M16.543 9.2832C17.4453 9.2832 18.1836 8.54492 18.1836 7.62891C18.1836 6.71289 17.4453 5.97461 16.543 5.97461C15.627 5.97461 14.8887 6.71289 14.8887 7.62891C14.8887 8.54492 15.627 9.2832 16.543 9.2832ZM10.9922 20.125C11.2793 20.2891 11.7852 20.2207 12.0039 19.7832L13.8906 16.0098C14.0273 15.7227 13.9863 15.3809 13.7402 15.1484L11.4707 12.8516L14.3418 11.416C14.4785 11.334 14.6426 11.375 14.7383 11.4707L16.2285 12.9609L16.2285 16.0508C16.2285 16.4746 16.5703 16.8027 16.9941 16.8027C17.4043 16.8027 17.7461 16.4746 17.7461 16.0508L17.7461 12.6602C17.7461 12.4551 17.7051 12.2637 17.5273 12.1133L14.1094 8.72266C13.7266 8.33984 13.2207 8.13477 12.6875 8.13477L9.78906 8.13477C9.02344 8.13477 8.83203 8.94141 9.2832 9.40625L10.1719 10.3086L9.80273 10.4453C8.42188 10.9922 8.03906 12.8105 9.33789 13.7676L12.25 15.9004L10.6504 19.1133C10.4727 19.4824 10.623 19.9199 10.9922 20.125ZM4.79883 17.1992L8.3125 17.1992C8.59961 17.1992 8.8457 17.0078 8.96875 16.7617L9.87109 14.9707L8.94141 14.2871C8.69531 14.123 8.49023 13.918 8.39453 13.7539L7.76562 15.6816L4.79883 15.6816C4.375 15.6816 4.04688 16.0098 4.04688 16.4336C4.04688 16.8438 4.375 17.1992 4.79883 17.1992ZM20.4395 19.8789L22.4902 19.8789C22.709 19.8789 22.9004 19.6875 22.9004 19.4551L22.9004 19.0859C22.9004 18.8535 22.709 18.6484 22.4902 18.6484L20.1934 18.6484L12.8652 11.3203L12.1133 11.7578L20.0566 19.7148C20.207 19.8516 20.2891 19.8789 20.4395 19.8789Z" fill="white" fill-opacity="0.85"/>
 </g>
</svg>
