<svg version="1.1" xmlns="http://www.w3.org/2000/svg" xmlns:xlink="http://www.w3.org/1999/xlink" viewBox="0 0 28.2461 27.9043">
 <g>
  
  <path d="M13.9453 27.8906C21.6426 27.8906 27.8906 21.6289 27.8906 13.9453C27.8906 6.24805 21.6426 0 13.9453 0C6.26172 0 0 6.24805 0 13.9453C0 21.6289 6.26172 27.8906 13.9453 27.8906Z" style="fill:var(--color-0,hsl(0 0 0/0.85))"></path>
  <path d="M14.6699 8.38086C13.7402 8.38086 12.9746 7.61523 12.9746 6.68555C12.9746 5.75586 13.7402 4.99023 14.6699 4.99023C15.6133 4.99023 16.3652 5.75586 16.3652 6.68555C16.3652 7.61523 15.6133 8.38086 14.6699 8.38086ZM6.39844 7.16406C6.17969 6.91797 6.17969 6.64453 6.39844 6.39844C7 5.74219 8.02539 5.30469 8.92773 5.30469C9.85742 5.30469 10.8828 5.74219 11.4707 6.39844C11.6758 6.64453 11.6758 6.91797 11.4844 7.16406C11.1699 7.49219 10.7871 7.7793 10.3359 7.9707L10.3359 9.85742L21.9434 8.09375C22.3945 8.02539 22.791 8.32617 22.8594 8.77734C22.9414 9.20117 22.6406 9.625 22.2031 9.69336L16.7207 10.5137C16.4883 10.5547 16.3652 10.7188 16.3652 10.9102L16.3652 14.4102L20.0977 17.6094C20.3164 17.8145 20.3848 18.0059 20.3848 18.2246L20.3848 22.0527C20.3848 22.5859 20.084 22.9004 19.5918 22.9004C19.1133 22.9004 18.7852 22.5859 18.7852 22.0527L18.7852 18.6348L15.4629 16.1055C15.1074 15.832 14.5332 15.8594 14.3145 16.2559L12.8516 19.0039C12.7969 19.1133 12.7832 19.127 12.7285 19.1953L9.74805 22.1621C9.35156 22.5586 8.87305 22.5039 8.59961 22.2441C8.28516 21.9707 8.20312 21.4785 8.62695 21.041L11.457 18.1836L12.7422 14.6973L12.7422 11.5527C12.7422 11.293 12.5645 11.1562 12.332 11.1836L9.65234 11.5801C9.14648 11.6621 8.73633 11.3066 8.73633 10.8145L8.73633 8.27148C7.875 8.2168 6.95898 7.79297 6.39844 7.16406Z" style="fill:var(--color-1,white)"></path>
 </g>
</svg>