<svg version="1.1" xmlns="http://www.w3.org/2000/svg" xmlns:xlink="http://www.w3.org/1999/xlink" viewBox="0 0 32.5938 25.1699">
 <g>
  
  <path d="M6.97266 6.89062L18.5391 6.89062C19.0312 6.89062 19.3867 6.52148 19.3867 6.04297C19.3867 5.57812 19.0312 5.20898 18.5391 5.20898L6.97266 5.20898C6.48047 5.20898 6.125 5.57812 6.125 6.04297C6.125 6.52148 6.48047 6.89062 6.97266 6.89062ZM6.97266 19.9473L18.5391 19.9473C19.0312 19.9473 19.3867 19.5918 19.3867 19.127C19.3867 18.6484 19.0312 18.2656 18.5391 18.2656L6.97266 18.2656C6.48047 18.2656 6.125 18.6484 6.125 19.127C6.125 19.5918 6.48047 19.9473 6.97266 19.9473ZM4.29297 25.1699L27.9453 25.1699C30.8164 25.1699 32.2383 23.7617 32.2383 20.9453L32.2383 4.23828C32.2383 1.42188 30.8164 0 27.9453 0L4.29297 0C1.43555 0 0 1.42188 0 4.23828L0 20.9453C0 23.7617 1.43555 25.1699 4.29297 25.1699ZM4.32031 22.9688C2.95312 22.9688 2.20117 22.2441 2.20117 20.8223L2.20117 4.36133C2.20117 2.93945 2.95312 2.20117 4.32031 2.20117L27.918 2.20117C29.2715 2.20117 30.0371 2.93945 30.0371 4.36133L30.0371 20.8223C30.0371 22.2441 29.2715 22.9688 27.918 22.9688Z" style="fill:var(--color-0,hsl(0 0 0/0.5))"></path>
  <path d="M5.75586 15.8047L26.4961 15.8047C27.6309 15.8047 28.3008 15.0938 28.3008 13.9727L28.3008 11.1836C28.3008 10.0625 27.6309 9.35156 26.4961 9.35156L5.75586 9.35156C4.62109 9.35156 3.95117 10.0625 3.95117 11.1836L3.95117 13.9727C3.95117 15.0938 4.62109 15.8047 5.75586 15.8047Z" style="fill:var(--color-1,hsl(0 0 0/0.85))"></path>
  <path d="M6.98633 13.4258C6.49414 13.4258 6.125 13.0566 6.125 12.5781C6.125 12.1133 6.49414 11.7441 6.98633 11.7441L13.7129 11.7441C14.2051 11.7441 14.5605 12.1133 14.5605 12.5781C14.5605 13.0566 14.2051 13.4258 13.7129 13.4258Z" style="fill:var(--color-2,white)"></path>
 </g>
</svg>