<svg version="1.1" xmlns="http://www.w3.org/2000/svg" xmlns:xlink="http://www.w3.org/1999/xlink" viewBox="0 0 32.5938 25.2246">
 <g>
  
  <path d="M2.77539 25.2246L29.4629 25.2246C31.1582 25.2246 32.2383 24.1445 32.2383 22.4902L32.2383 2.76172C32.2383 1.12109 31.1582 0.0410156 29.4629 0.0410156L2.77539 0.0410156C1.09375 0.0410156 0 1.12109 0 2.76172L0 22.4902C0 24.1445 1.09375 25.2246 2.77539 25.2246ZM2.78906 23.0234C2.35156 23.0234 2.06445 22.7227 2.06445 22.3125L2.06445 20.7676C2.06445 20.3848 2.33789 20.1113 2.73438 20.1113L4.49805 20.1113C4.89453 20.1113 5.1543 20.3848 5.1543 20.7676L5.1543 22.3535C5.1543 22.7363 4.89453 23.0234 4.49805 23.0234ZM2.73438 18.498C2.33789 18.498 2.06445 18.1973 2.06445 17.8418L2.06445 16.2832C2.06445 15.873 2.32422 15.6133 2.73438 15.6133L4.49805 15.6133C4.89453 15.6133 5.1543 15.873 5.1543 16.2832L5.1543 17.8418C5.1543 18.1973 4.89453 18.498 4.49805 18.498ZM2.73438 14.0684C2.33789 14.0684 2.06445 13.7812 2.06445 13.4258L2.06445 11.8672C2.06445 11.457 2.32422 11.1973 2.73438 11.1973L4.49805 11.1973C4.89453 11.1973 5.1543 11.457 5.1543 11.8672L5.1543 13.4258C5.1543 13.7812 4.89453 14.0684 4.49805 14.0684ZM2.73438 9.67969C2.33789 9.67969 2.06445 9.37891 2.06445 9.03711L2.06445 7.46484C2.06445 7.06836 2.32422 6.79492 2.73438 6.79492L4.49805 6.79492C4.89453 6.79492 5.1543 7.06836 5.1543 7.46484L5.1543 9.03711C5.1543 9.37891 4.89453 9.67969 4.49805 9.67969ZM2.73438 5.1543C2.33789 5.1543 2.06445 4.86719 2.06445 4.51172L2.06445 2.9668C2.06445 2.5293 2.35156 2.24219 2.78906 2.24219L4.49805 2.24219C4.89453 2.24219 5.1543 2.51562 5.1543 2.91211L5.1543 4.51172C5.1543 4.86719 4.89453 5.1543 4.49805 5.1543ZM7.73828 23.0234C7.32812 23.0234 7.08203 22.7773 7.08203 22.3672L7.08203 14.3965C7.08203 14 7.32812 13.7539 7.73828 13.7539L24.5137 13.7539C24.9102 13.7539 25.1562 14 25.1562 14.3965L25.1562 22.3672C25.1562 22.7773 24.9102 23.0234 24.5137 23.0234ZM7.73828 11.5391C7.32812 11.5391 7.08203 11.3066 7.08203 10.8965L7.08203 2.87109C7.08203 2.46094 7.32812 2.24219 7.73828 2.24219L24.5137 2.24219C24.9102 2.24219 25.1562 2.46094 25.1562 2.87109L25.1562 10.8965C25.1562 11.3066 24.9102 11.5391 24.5137 11.5391ZM27.7402 23.0234C27.3438 23.0234 27.084 22.7363 27.084 22.3535L27.084 20.7676C27.084 20.3848 27.3438 20.1113 27.7402 20.1113L29.5039 20.1113C29.9141 20.1113 30.1738 20.3848 30.1738 20.7676L30.1738 22.3125C30.1738 22.7227 29.9004 23.0234 29.4492 23.0234ZM27.7402 18.498C27.3438 18.498 27.084 18.1973 27.084 17.8418L27.084 16.2832C27.084 15.873 27.3438 15.6133 27.7402 15.6133L29.5039 15.6133C29.9141 15.6133 30.1738 15.873 30.1738 16.2832L30.1738 17.8418C30.1738 18.1973 29.9141 18.498 29.5039 18.498ZM27.7402 14.0684C27.3438 14.0684 27.084 13.7812 27.084 13.4258L27.084 11.8672C27.084 11.457 27.3438 11.1973 27.7402 11.1973L29.5039 11.1973C29.9141 11.1973 30.1738 11.457 30.1738 11.8672L30.1738 13.4258C30.1738 13.7812 29.9141 14.0684 29.5039 14.0684ZM27.7402 9.67969C27.3438 9.67969 27.084 9.37891 27.084 9.03711L27.084 7.46484C27.084 7.06836 27.3438 6.79492 27.7402 6.79492L29.5039 6.79492C29.9141 6.79492 30.1738 7.06836 30.1738 7.46484L30.1738 9.03711C30.1738 9.37891 29.9141 9.67969 29.5039 9.67969ZM27.7402 5.1543C27.3438 5.1543 27.084 4.86719 27.084 4.51172L27.084 2.91211C27.084 2.51562 27.3438 2.24219 27.7402 2.24219L29.4492 2.24219C29.9004 2.24219 30.1738 2.5293 30.1738 2.9668L30.1738 4.51172C30.1738 4.86719 29.9141 5.1543 29.5039 5.1543Z" style="fill:var(--color-0,hsl(0 0 0/0.85))"></path>
 </g>
</svg>