<svg version="1.1" xmlns="http://www.w3.org/2000/svg" xmlns:xlink="http://www.w3.org/1999/xlink" viewBox="0 0 31.6094 27.4668">
 <g>
  
  <path d="M1.44922 7.4375L29.8047 7.4375C30.666 7.4375 31.2539 6.84961 31.2539 5.97461L31.2539 1.43555C31.2539 0.587891 30.666 0 29.8047 0L1.44922 0C0.587891 0 0 0.587891 0 1.43555L0 5.97461C0 6.84961 0.587891 7.4375 1.44922 7.4375ZM2.55664 5.23633C2.35156 5.23633 2.20117 5.08594 2.20117 4.86719L2.20117 2.57031C2.20117 2.35156 2.35156 2.20117 2.55664 2.20117L28.6973 2.20117C28.9023 2.20117 29.0527 2.35156 29.0527 2.57031L29.0527 4.86719C29.0527 5.08594 28.9023 5.23633 28.6973 5.23633ZM3.14453 26.3184L5.3457 26.3184L5.3457 6.31641L3.14453 6.31641ZM25.9082 26.3184L28.1094 26.3184L28.1094 6.31641L25.9082 6.31641ZM7.66992 26.3184L9.39258 26.3184L9.39258 11.9492C9.39258 11.5117 9.65234 11.252 10.0762 11.252L21.1777 11.252C21.6016 11.252 21.8613 11.5117 21.8613 11.9492L21.8613 26.3184L23.584 26.3184L23.584 11.457C23.584 10.2676 22.8457 9.54297 21.6699 9.54297L9.58398 9.54297C8.4082 9.54297 7.66992 10.2676 7.66992 11.457ZM1.14844 27.4258L30.1055 27.4258C30.707 27.4258 31.2129 26.9199 31.2129 26.3184C31.2129 25.7168 30.707 25.2246 30.1055 25.2246L1.14844 25.2246C0.546875 25.2246 0.0410156 25.7168 0.0410156 26.3184C0.0410156 26.9199 0.546875 27.4258 1.14844 27.4258ZM15.4082 24.1719C18.0879 24.1719 19.8379 22.3809 19.8379 19.6875C19.8379 15.1895 16.0098 13.3164 13.3711 13.3164C12.6875 13.3164 12.4004 13.7129 12.7559 14.1914C13.3848 14.9844 13.9453 15.8594 13.9043 17.0762C13.6035 16.5156 13.0703 16.1328 12.6328 16.1328C12.4277 16.1328 12.3184 16.2559 12.3184 16.4473C12.3184 16.5703 12.3184 16.8301 12.3184 17.0215C12.3184 18.2793 11.4844 18.9355 11.4844 20.7402C11.4844 22.8184 13.0566 24.1719 15.4082 24.1719ZM15.5449 22.7637C14.6152 22.7637 13.9863 22.2031 13.9863 21.3418C13.9863 20.4668 14.6152 20.1523 14.7246 19.5234C14.9844 19.7012 15.1621 19.9609 15.2852 20.3027C15.5723 19.8926 15.75 19.1953 15.5859 18.2793C16.4062 18.5801 17.3223 19.6191 17.3223 20.8906C17.3223 21.8887 16.748 22.7637 15.5449 22.7637Z" style="fill:var(--color-0,hsl(0 0 0/0.85))"></path>
 </g>
</svg>