<?xml version="1.0" encoding="UTF-8"?>
<!--Generator: Apple Native CoreSVG 326-->
<!DOCTYPE svg
PUBLIC "-//W3C//DTD SVG 1.1//EN"
       "http://www.w3.org/Graphics/SVG/1.1/DTD/svg11.dtd">
<svg version="1.1" xmlns="http://www.w3.org/2000/svg" xmlns:xlink="http://www.w3.org/1999/xlink" viewBox="0 0 22.7227 27.6035">
 <g>
  <rect height="27.6035" opacity="0" width="22.7227" x="0" y="0"/>
  <path d="M12.3184 0.615234C13.9043 1.16211 19.0176 3.02148 20.6172 3.67773C21.7656 4.15625 22.3672 4.60742 22.3672 6.01562L22.3672 16.3242C22.3672 21.2324 19.8652 23.2695 12.0859 27.3438C11.7441 27.5215 11.4023 27.6035 11.1836 27.6035C10.9648 27.6035 10.6367 27.5352 10.2812 27.3438C2.63867 23.0371 0 21.2324 0 16.3242L0 6.01562C0 4.60742 0.615234 4.14258 1.75 3.67773C3.34961 3.03516 8.46289 1.13477 10.0625 0.615234C10.418 0.505859 10.8008 0.423828 11.1836 0.423828C11.5664 0.423828 11.9492 0.492188 12.3184 0.615234ZM8.6543 14.2734L5.16797 16.6387C4.74414 16.9258 4.74414 17.4727 5.14062 17.7461L8.64062 20.125C9.0918 20.4121 9.70703 20.2207 9.70703 19.6055L9.70703 18.1152L16.6113 18.1152C17.1172 18.1152 17.5273 17.7051 17.5273 17.1992C17.5273 16.6934 17.1172 16.2695 16.6113 16.2695L9.70703 16.2695L9.70703 14.7656C9.70703 14.1641 9.0918 13.9863 8.6543 14.2734ZM12.6738 7.57422L12.6738 9.06445L5.76953 9.06445C5.26367 9.06445 4.83984 9.48828 4.83984 9.99414C4.83984 10.5 5.26367 10.9102 5.76953 10.9102L12.6738 10.9102L12.6738 12.4004C12.6738 13.0293 13.2754 13.2207 13.7402 12.9199L17.2402 10.541C17.6367 10.2812 17.623 9.73438 17.1992 9.44727L13.7266 7.08203C13.2754 6.78125 12.6738 6.95898 12.6738 7.57422Z" fill="white" fill-opacity="0.85"/>
 </g>
</svg>
