<?xml version="1.0" encoding="UTF-8"?>
<!--Generator: Apple Native CoreSVG 326-->
<!DOCTYPE svg
PUBLIC "-//W3C//DTD SVG 1.1//EN"
       "http://www.w3.org/Graphics/SVG/1.1/DTD/svg11.dtd">
<svg version="1.1" xmlns="http://www.w3.org/2000/svg" xmlns:xlink="http://www.w3.org/1999/xlink" viewBox="0 0 31.6094 27.4941">
 <g>
  <rect height="27.4941" opacity="0" width="31.6094" x="0" y="0"/>
  <path d="M1.44922 5.93359L29.8047 5.93359C30.666 5.93359 31.2539 5.3457 31.2539 4.4707L31.2539 1.43555C31.2539 0.587891 30.666 0 29.8047 0L1.44922 0C0.587891 0 0 0.587891 0 1.43555L0 4.4707C0 5.3457 0.587891 5.93359 1.44922 5.93359ZM3.14453 26.2773L28.1094 26.2773L28.1094 7.51953L3.14453 7.51953ZM7.66992 25.2246L7.66992 12.0039C7.66992 10.8145 8.4082 10.0898 9.58398 10.0898L21.6699 10.0898C22.8457 10.0898 23.584 10.8145 23.584 12.0039L23.584 25.2246L21.8613 25.2246L21.8613 12.4961C21.8613 12.0586 21.6016 11.7988 21.1777 11.7988L10.0762 11.7988C9.65234 11.7988 9.39258 12.0586 9.39258 12.4961L9.39258 25.2246ZM15.4766 23.8301C13.3848 23.8301 11.9902 22.627 11.9902 20.7812C11.9902 19.1816 12.7422 18.5938 12.7422 17.4727C12.7422 17.3086 12.7285 17.0762 12.7285 16.9668C12.7285 16.8027 12.8379 16.6934 13.002 16.6934C13.3984 16.6934 13.8906 17.0352 14.1367 17.5273C14.1777 16.4473 13.6855 15.668 13.125 14.9434C12.8105 14.5332 13.0566 14.1777 13.6582 14.1777C16.0234 14.1777 19.4141 15.8457 19.4141 19.8516C19.4141 22.2441 17.8555 23.8301 15.4766 23.8301ZM15.6133 22.5723C16.666 22.5723 17.1719 21.8066 17.1719 20.918C17.1719 19.7969 16.3652 18.8809 15.6406 18.6074C15.7773 19.4141 15.627 20.0293 15.3809 20.3984C15.2578 20.0977 15.1074 19.8652 14.875 19.7012C14.7793 20.2617 14.2188 20.5352 14.2188 21.3145C14.2188 22.0801 14.7793 22.5723 15.6133 22.5723ZM1.14844 27.4258L30.1055 27.4258C30.707 27.4258 31.2129 26.9199 31.2129 26.3184C31.2129 25.7168 30.707 25.2246 30.1055 25.2246L1.14844 25.2246C0.546875 25.2246 0.0410156 25.7168 0.0410156 26.3184C0.0410156 26.9199 0.546875 27.4258 1.14844 27.4258Z" fill="white" fill-opacity="0.85"/>
 </g>
</svg>
