<svg version="1.1" xmlns="http://www.w3.org/2000/svg" xmlns:xlink="http://www.w3.org/1999/xlink" viewBox="0 0 22.213 33.9746">
 <g>
  
  <path d="M8.10554 5.56445C9.66413 5.56445 10.8809 4.32031 10.8809 2.76172C10.8809 1.2168 9.66413 0 8.10554 0C6.54694 0 5.31647 1.2168 5.31647 2.76172C5.31647 4.32031 6.54694 5.56445 8.10554 5.56445ZM8.10554 4.0332C7.3946 4.0332 6.84772 3.47266 6.84772 2.76172C6.84772 2.07812 7.3946 1.53125 8.10554 1.53125C8.8028 1.53125 9.34968 2.07812 9.34968 2.76172C9.34968 3.47266 8.8028 4.0332 8.10554 4.0332ZM1.96686 9.92578C3.06061 7.47852 4.70124 6.07031 8.74811 6.07031L14.1348 6.07031L14.1348 4.00586L8.74811 4.00586C3.82624 4.00586 1.40632 6.125 0.0938177 9.07812C-0.206964 9.73438 0.244208 10.5273 1.03718 10.5273C1.44733 10.5273 1.81647 10.2812 1.96686 9.92578ZM12.2071 4.07422L12.2071 5.98828C12.2071 6.57617 12.6446 7.06836 13.2462 7.12305L20.5606 7.83398C21.2852 7.90234 21.8594 7.38281 21.8594 6.61719L21.8594 3.44531C21.8594 2.70703 21.2852 2.17383 20.5606 2.24219L13.2462 2.93945C12.6446 2.99414 12.2071 3.48633 12.2071 4.07422ZM7.33991 5.85156L7.33991 9.29688L9.75983 9.29688L9.75983 5.85156ZM5.42585 33.9746L11.6876 33.9746C13.5469 33.9746 14.8594 32.6621 14.8594 30.8027L14.8594 14.9434C14.8594 11.1973 12.2481 8.57227 8.55671 8.57227C4.85163 8.57227 2.2403 11.1973 2.2403 14.9434L2.2403 30.8027C2.2403 32.6621 3.5528 33.9746 5.42585 33.9746Z" style="fill:var(--color-0,hsl(0 0 0/0.85))"></path>
 </g>
</svg>