<svg version="1.1" xmlns="http://www.w3.org/2000/svg" xmlns:xlink="http://www.w3.org/1999/xlink" viewBox="0 0 36.1484 33.9746">
 <g>
  
  <path d="M29.2578 12.1543C29.5176 12.1543 29.6953 11.9766 29.7363 11.7441C30.3516 8.50391 30.3242 8.69531 33.4004 8.09375C33.6328 8.05273 33.8105 7.88867 33.8105 7.60156C33.8105 7.3418 33.6191 7.17773 33.4004 7.12305C30.3105 6.49414 30.3516 6.6582 29.7363 3.47266C29.6953 3.24023 29.5176 3.0625 29.2578 3.0625C28.9707 3.0625 28.8066 3.22656 28.7656 3.47266C28.1367 6.68555 28.041 6.53516 25.1289 7.12305C24.8965 7.17773 24.7188 7.3418 24.7188 7.60156C24.7188 7.88867 24.8828 8.05273 25.1289 8.09375C28.041 8.66797 28.1367 8.51758 28.7656 11.7441C28.8066 11.9902 28.9707 12.1543 29.2578 12.1543ZM15.1211 33.9746C15.3398 33.9746 15.4766 33.8242 15.5176 33.6191C16.0508 31.0898 16.0508 31.0898 18.5527 30.584C18.7578 30.543 18.9082 30.4062 18.9082 30.1738C18.9082 29.9551 18.7578 29.8047 18.5527 29.7773C16.0508 29.2578 16.0508 29.2578 15.5176 26.7422C15.4766 26.5371 15.3398 26.3867 15.1211 26.3867C14.8887 26.3867 14.752 26.5371 14.7109 26.7422C14.1914 29.2578 14.1914 29.2578 11.6895 29.7773C11.4707 29.8047 11.3203 29.9551 11.3203 30.1738C11.3203 30.4062 11.4707 30.543 11.6895 30.584C14.1914 31.0898 14.1914 31.1035 14.7109 33.6191C14.752 33.8242 14.8887 33.9746 15.1211 33.9746ZM8.01172 29.5312C8.20312 29.5312 8.3125 29.4219 8.33984 29.2441C8.76367 27.1797 8.76367 27.1797 10.8145 26.7695C10.9922 26.7285 11.1152 26.6328 11.1152 26.4277C11.1152 26.2363 10.9922 26.1133 10.8145 26.0859C8.76367 25.6758 8.76367 25.6758 8.33984 23.6113C8.3125 23.4336 8.20312 23.3242 8.01172 23.3242C7.80664 23.3242 7.69727 23.4336 7.66992 23.6113C7.24609 25.6758 7.24609 25.6758 5.19531 26.0859C5.01758 26.1133 4.89453 26.2363 4.89453 26.4277C4.89453 26.6328 5.01758 26.7285 5.19531 26.7695C7.24609 27.1797 7.24609 27.1797 7.66992 29.2441C7.69727 29.4219 7.80664 29.5312 8.01172 29.5312Z" style="fill:var(--color-0,hsl(0 0 0/0.85))"></path>
  <path d="M28.041 28.3691C28.4785 28.3691 28.834 28.0273 28.834 27.5898L28.834 25.4844L29.9414 26.5781C30.2559 26.8926 30.7344 26.9062 31.0352 26.5781C31.377 26.2773 31.377 25.7988 31.0352 25.4707L29.9551 24.377L32.0469 24.377C32.4844 24.377 32.8398 24.0215 32.8398 23.584C32.8398 23.1465 32.4844 22.8047 32.0469 22.8047L29.9414 22.8047L31.0488 21.6973C31.3633 21.3828 31.3633 20.9043 31.0488 20.5898C30.7344 20.2754 30.2559 20.2617 29.9414 20.5898L28.834 21.6836L28.834 19.5918C28.834 19.1543 28.4785 18.7988 28.041 18.7988C27.6035 18.7988 27.2617 19.1543 27.2617 19.5918L27.2617 21.6836L26.168 20.5898C25.8535 20.2754 25.3613 20.2754 25.0469 20.5898C24.7188 20.9043 24.7188 21.3828 25.0332 21.6973L26.1406 22.8047L24.0352 22.8047C23.6113 22.8047 23.2695 23.1465 23.2695 23.584C23.2695 24.0215 23.6113 24.377 24.0352 24.377L26.1406 24.377L25.0469 25.4707C24.7188 25.7988 24.7188 26.2773 25.0469 26.5781C25.3613 26.9062 25.8398 26.9062 26.168 26.5781L27.2617 25.4844L27.2617 27.5898C27.2617 28.0273 27.6035 28.3691 28.041 28.3691ZM28.0547 17.9375C28.6289 17.9375 29.0801 17.4727 29.0801 16.8848C29.0801 16.3105 28.6289 15.8457 28.0547 15.8457C27.4668 15.8457 27.0156 16.3105 27.0156 16.8848C27.0156 17.4727 27.4668 17.9375 28.0547 17.9375ZM32.5938 19.9883C33.127 19.9883 33.5645 19.5645 33.5645 19.0176C33.5645 18.4844 33.127 18.0605 32.5938 18.0605C32.0605 18.0605 31.6367 18.4844 31.6367 19.0176C31.6367 19.5645 32.0605 19.9883 32.5938 19.9883ZM34.7539 24.623C35.3281 24.623 35.793 24.1582 35.793 23.584C35.793 23.0098 35.3281 22.5586 34.7539 22.5586C34.166 22.5586 33.7148 23.0098 33.7148 23.584C33.7148 24.1582 34.166 24.623 34.7539 24.623ZM32.5938 29.1211C33.127 29.1211 33.5645 28.6836 33.5645 28.1641C33.5645 27.6172 33.127 27.1934 32.5938 27.1934C32.0605 27.1934 31.6367 27.6172 31.6367 28.1641C31.6367 28.6836 32.0605 29.1211 32.5938 29.1211ZM28.0547 31.3223C28.6289 31.3223 29.0801 30.8711 29.0801 30.2969C29.0801 29.709 28.6289 29.2441 28.0547 29.2441C27.4668 29.2441 27.0156 29.709 27.0156 30.2969C27.0156 30.8711 27.4668 31.3223 28.0547 31.3223ZM23.502 29.1074C24.0352 29.1074 24.459 28.6836 24.459 28.1641C24.459 27.6172 24.0352 27.1934 23.502 27.1934C22.9688 27.1934 22.5312 27.6172 22.5312 28.1641C22.5312 28.6836 22.9688 29.1074 23.502 29.1074ZM21.3418 24.623C21.9297 24.623 22.3945 24.1582 22.3809 23.584C22.3945 23.0098 21.9297 22.5586 21.3418 22.5586C20.7676 22.5586 20.3164 23.0098 20.3164 23.584C20.3164 24.1582 20.7676 24.623 21.3418 24.623ZM23.502 19.9883C24.0352 19.9883 24.459 19.5645 24.459 19.0176C24.459 18.4844 24.0352 18.0605 23.502 18.0605C22.9688 18.0605 22.5312 18.4844 22.5312 19.0176C22.5312 19.5645 22.9688 19.9883 23.502 19.9883Z" style="fill:var(--color-1,hsl(0 0 0/0.85))"></path>
  <path d="M10.7871 14.998C11.2383 14.998 11.6074 14.6562 11.6074 14.1914L11.5938 12.6602L12.6875 13.7539C12.9883 14.082 13.5215 14.082 13.8496 13.7539C14.1504 13.4395 14.1641 12.9062 13.8496 12.5918L12.7422 11.5254L14.2734 11.5254C14.7246 11.5254 15.0938 11.1562 15.0938 10.7051C15.0938 10.2539 14.7246 9.89844 14.2734 9.89844L12.7422 9.89844L13.8359 8.83203C14.1641 8.50391 14.1504 7.98438 13.8359 7.65625C13.5078 7.35547 12.9883 7.32812 12.6602 7.65625L11.6074 8.73633L11.5938 7.23242C11.5938 6.75391 11.252 6.41211 10.7734 6.41211C10.3359 6.41211 9.9668 6.75391 9.9668 7.23242L9.98047 8.73633L8.90039 7.65625C8.57227 7.3418 8.06641 7.3418 7.72461 7.65625C7.42383 7.9707 7.41016 8.51758 7.72461 8.83203L8.83203 9.89844L7.30078 9.89844C6.84961 9.89844 6.48047 10.2539 6.48047 10.7051C6.48047 11.1562 6.84961 11.5254 7.30078 11.5254L8.83203 11.5254L7.73828 12.5918C7.41016 12.9199 7.42383 13.4258 7.73828 13.7539C8.05273 14.0684 8.57227 14.0957 8.90039 13.7539L9.9668 12.6602L9.98047 14.1914C9.98047 14.6562 10.3223 14.998 10.7871 14.998ZM10.8008 4.79883C11.293 4.79883 11.6895 4.38867 11.6895 3.89648L11.6895 0.902344C11.6895 0.410156 11.293 0.0136719 10.8008 0.0136719C10.3086 0.0136719 9.89844 0.410156 9.89844 0.902344L9.89844 3.89648C9.89844 4.38867 10.3086 4.79883 10.8008 4.79883ZM13.7949 5.5918C14.2324 5.85156 14.7656 5.70117 15.0254 5.26367L16.5293 2.69336C16.7754 2.25586 16.6113 1.70898 16.2012 1.46289C15.7637 1.20312 15.2305 1.35352 14.9707 1.79102L13.4668 4.375C13.2207 4.79883 13.3848 5.35938 13.7949 5.5918ZM15.9961 7.79297C16.2559 8.23047 16.8027 8.35352 17.2266 8.12109L19.8105 6.63086C20.2344 6.39844 20.3848 5.83789 20.1387 5.41406C19.8926 4.97656 19.3457 4.83984 18.9219 5.08594L16.3242 6.57617C15.9141 6.80859 15.75 7.38281 15.9961 7.79297ZM16.8027 10.8008C16.8027 11.3066 17.2129 11.6895 17.6914 11.6895L20.6855 11.7031C21.1777 11.7031 21.6016 11.293 21.6016 10.8145C21.6016 10.3086 21.1777 9.91211 20.6992 9.91211L17.6914 9.89844C17.2129 9.89844 16.8027 10.3223 16.8027 10.8008ZM15.9961 13.7949C15.75 14.2461 15.9277 14.7793 16.3242 15.0254L18.9082 16.5293C19.3457 16.7754 19.8926 16.6113 20.1387 16.2148C20.3848 15.7637 20.2207 15.2305 19.8105 14.9844L17.2266 13.4668C16.8164 13.2344 16.2285 13.3848 15.9961 13.7949ZM13.7949 15.9961C13.3711 16.2695 13.2344 16.8164 13.4668 17.2266L14.957 19.8105C15.2031 20.2344 15.7773 20.3984 16.2012 20.1523C16.625 19.9062 16.748 19.3594 16.5156 18.9355L15.0254 16.3242C14.7793 15.9277 14.2188 15.75 13.7949 15.9961ZM10.8008 16.8164C10.3086 16.8164 9.89844 17.2129 9.89844 17.7051L9.89844 20.6992C9.89844 21.1914 10.3086 21.5879 10.8008 21.5879C11.293 21.5879 11.6895 21.1914 11.6895 20.6992L11.6895 17.7051C11.6895 17.2129 11.293 16.8164 10.8008 16.8164ZM7.79297 16.0098C7.35547 15.75 6.82227 15.9141 6.57617 16.3379L5.07227 18.9219C4.8125 19.3594 4.97656 19.9062 5.40039 20.1387C5.83789 20.3984 6.37109 20.248 6.61719 19.8105L8.12109 17.2402C8.38086 16.8027 8.2168 16.2422 7.79297 16.0098ZM5.5918 13.8086C5.3457 13.3848 4.78516 13.248 4.375 13.4805L1.77734 14.9707C1.35352 15.2168 1.2168 15.7773 1.44922 16.2012C1.70898 16.625 2.25586 16.7617 2.67969 16.5293L5.26367 15.0391C5.6875 14.793 5.83789 14.2324 5.5918 13.8086ZM4.79883 10.8145C4.79883 10.2949 4.375 9.91211 3.89648 9.91211L0.916016 9.89844C0.410156 9.89844 0 10.3223 0 10.8008C0 11.3066 0.410156 11.6895 0.902344 11.6895L3.89648 11.7031C4.375 11.7031 4.79883 11.293 4.79883 10.8145ZM5.5918 7.80664C5.83789 7.35547 5.67383 6.82227 5.26367 6.58984L2.69336 5.08594C2.25586 4.82617 1.70898 4.99023 1.44922 5.40039C1.2168 5.85156 1.36719 6.38477 1.77734 6.61719L4.375 8.13477C4.77148 8.36719 5.35938 8.23047 5.5918 7.80664ZM7.79297 5.60547C8.23047 5.3457 8.36719 4.78516 8.12109 4.38867L6.63086 1.79102C6.39844 1.36719 5.82422 1.20312 5.40039 1.44922C4.96289 1.70898 4.83984 2.25586 5.08594 2.67969L6.57617 5.27734C6.80859 5.6875 7.38281 5.85156 7.79297 5.60547Z" style="fill:var(--color-2,hsl(0 0 0/0.85))"></path>
 </g>
</svg>