<svg version="1.1" xmlns="http://www.w3.org/2000/svg" xmlns:xlink="http://www.w3.org/1999/xlink" viewBox="0 0 38.9082 30.4936">
 <g>
  
  <path d="M15.9814 8.03488L17.9365 7.6384C17.7178 6.20285 17.3623 5.02707 16.3506 3.49582C16.2275 3.30441 16.2549 3.113 16.4189 3.05832C20.7666 1.56808 26.3857 3.68722 27.5889 8.18527L29.6396 7.93918C28.1904 1.66379 19.9736-1.30301 14.2861 1.84152C13.6025 2.21066 13.4658 2.93527 14.0264 3.67355C15.4072 5.49191 15.708 6.4216 15.9814 8.03488ZM22.4892 25.6032C28.8057 25.6032 38.5537 21.4607 38.5537 15.8415C38.5537 10.2361 28.8057 6.09347 22.4892 6.09347C18.0322 6.09347 13.4932 7.6384 9.80174 11.2204C7.39549 8.49972 4.59276 6.98215 1.32518 6.92746C0.641588 6.91379 0.094713 7.35129 0.0400255 8.04855C-0.247084 10.8923 1.03807 13.9685 3.00682 15.8415C1.03807 17.7282-0.247084 20.8181 0.0400255 23.6482C0.094713 24.3454 0.641588 24.7829 1.32518 24.7693C4.59276 24.7146 7.39549 23.197 9.80174 20.49C13.4932 24.0583 18.0322 25.6032 22.4892 25.6032ZM22.4892 23.4021C18.1006 23.4021 13.917 21.8571 10.4853 18.029C10.0342 17.5232 9.40526 17.5368 8.95409 18.0837C6.95799 20.5583 5.01659 22.0212 2.63768 22.4314C2.40526 22.4724 2.21385 22.281 2.25487 22.0349C2.48729 19.9021 3.7451 17.9333 5.31737 16.6892C6.02831 16.0876 6.04198 15.6091 5.3037 14.9939C3.7451 13.7497 2.48729 11.7946 2.25487 9.66183C2.21385 9.42941 2.40526 9.22433 2.63768 9.26535C5.01659 9.6755 6.95799 11.1384 8.95409 13.613C9.40526 14.1736 10.0342 14.1872 10.4717 13.6814C13.917 9.83957 18.1006 8.29465 22.4892 8.29465C28.3135 8.29465 36.3935 12.0818 36.3935 15.8415C36.3935 19.615 28.3135 23.4021 22.4892 23.4021ZM30.9795 16.6755C31.7724 16.6755 32.4287 16.0193 32.4287 15.24C32.4287 14.4607 31.7724 13.8044 30.9795 13.8044C30.2002 13.8044 29.5439 14.4607 29.5439 15.24C29.5439 16.0193 30.2002 16.6755 30.9795 16.6755ZM18.1826 24.0446L17.6084 28.7478C17.4717 29.8962 18.2099 30.6755 19.5498 30.4568C23.0361 29.9099 27.001 27.3122 29.0107 24.3318L26.1943 24.6736C24.4717 26.1638 22.6123 27.5173 20.3838 28.1325C20.0967 28.2009 19.9053 28.1462 19.9463 27.7634L20.2881 24.3591Z" style="fill:var(--color-0,hsl(0 0 0/0.85))"></path>
 </g>
</svg>