<svg version="1.1" xmlns="http://www.w3.org/2000/svg" xmlns:xlink="http://www.w3.org/1999/xlink" viewBox="0 0 28.2461 27.9043">
 <g>
  
  <path d="M13.9453 27.8906C21.6426 27.8906 27.8906 21.6426 27.8906 13.9453C27.8906 6.24805 21.6426 0 13.9453 0C6.24805 0 0 6.24805 0 13.9453C0 21.6426 6.24805 27.8906 13.9453 27.8906ZM13.9453 25.5664C7.51953 25.5664 2.32422 20.3711 2.32422 13.9453C2.32422 7.51953 7.51953 2.32422 13.9453 2.32422C20.3711 2.32422 25.5664 7.51953 25.5664 13.9453C25.5664 20.3711 20.3711 25.5664 13.9453 25.5664Z" style="fill:var(--color-0,hsl(0 0 0/0.85))"></path>
  <path d="M16.9668 19.6465C17.2676 19.4961 17.3496 19.127 17.1855 18.8535L11.293 8.6543C11.0195 8.17578 10.6094 8.06641 10.1855 8.06641C9.80273 8.06641 9.35156 8.28516 8.92773 8.51758C7.50586 9.35156 7.01367 10.5547 5.70117 11.293C5.12695 11.6348 4.63477 11.7715 4.375 11.9082C4.0332 12.0996 3.8418 12.4824 4.06055 12.8789L6.26172 16.6797C6.50781 17.0898 6.80859 17.2949 7.28711 17.2949C7.7793 17.2949 8.24414 17.0625 8.64062 16.8164C10.0762 15.9961 10.582 14.7656 11.8809 14.041C12.2363 13.8223 12.5645 13.7129 12.8242 13.6035L16.1875 19.4277C16.3652 19.7285 16.6934 19.8105 16.9668 19.6465ZM20.5625 17.2949C21.041 17.2949 21.3418 17.0898 21.5742 16.6797L23.7891 12.8789C24.0078 12.4824 23.8164 12.1133 23.4746 11.9082C23.2148 11.7715 22.7227 11.6348 22.1484 11.293C20.8359 10.5547 20.3301 9.35156 18.9219 8.51758C18.498 8.28516 18.0332 8.06641 17.6504 8.06641C17.2266 8.06641 16.8301 8.17578 16.5566 8.66797L14.4922 12.2363L15.3672 13.7402C16.9395 14.3418 17.8281 16.0371 19.209 16.8164C19.5918 17.0625 20.0703 17.2949 20.5625 17.2949ZM10.8691 19.6465C11.1426 19.8242 11.4844 19.7285 11.6621 19.4277L13.3711 16.4609L12.7012 15.3262L10.6641 18.8535C10.5 19.127 10.582 19.4961 10.8691 19.6465Z" style="fill:var(--color-1,hsl(0 0 0/0.85))"></path>
 </g>
</svg>