<?xml version="1.0" encoding="UTF-8"?>
<!--Generator: Apple Native CoreSVG 326-->
<!DOCTYPE svg
PUBLIC "-//W3C//DTD SVG 1.1//EN"
       "http://www.w3.org/Graphics/SVG/1.1/DTD/svg11.dtd">
<svg version="1.1" xmlns="http://www.w3.org/2000/svg" xmlns:xlink="http://www.w3.org/1999/xlink" viewBox="0 0 28.2461 27.9043">
 <g>
  <rect height="27.9043" opacity="0" width="28.2461" x="0" y="0"/>
  <path d="M13.9453 27.9043C21.6426 27.9043 27.8906 21.6562 27.8906 13.959C27.8906 6.27539 21.6426 0.0136719 13.9453 0.0136719C6.26172 0.0136719 0 6.27539 0 13.959C0 21.6562 6.26172 27.9043 13.9453 27.9043Z" fill="#ff9f0a"/>
  <path d="M8.58594 21.5332C8.23047 21.5332 7.91602 21.2324 7.91602 20.877L7.91602 9.05078C7.91602 8.44922 8.2168 8.01172 8.79102 7.75195C9.29688 7.50586 9.73438 7.38281 10.8418 7.38281C13.3711 7.38281 14.9707 8.64062 17.3633 8.64062C18.5254 8.64062 19.1406 8.33984 19.5508 8.33984C20.125 8.33984 20.3438 8.64062 20.3438 9.06445L20.3438 15.9961C20.3438 16.6387 20.0703 17.0488 19.4824 17.3359C18.9492 17.5684 18.5117 17.6777 17.4316 17.6777C14.998 17.6777 13.4121 16.4473 10.9102 16.4473C10.0352 16.4473 9.48828 16.6113 9.21484 16.7207L9.21484 20.877C9.21484 21.2461 8.96875 21.5332 8.58594 21.5332Z" fill="white"/>
 </g>
</svg>
