<svg version="1.1" xmlns="http://www.w3.org/2000/svg" xmlns:xlink="http://www.w3.org/1999/xlink" viewBox="0 0 52.3844 31.537">
 <g>
  
  <path d="M25.0886 20.6369L20.0672 29.3241C19.7937 29.83 19.1785 29.9941 18.6727 29.707C18.1805 29.4198 18.0027 28.7773 18.2898 28.2851L23.9014 18.5824ZM35.4207 1.61125C36.2273 1.70695 37.3074 2.13078 38.2918 2.705C41.7098 4.68742 42.9949 7.73625 46.3172 9.65031C47.7664 10.4843 49.0379 10.7987 49.6394 11.1405C50.3367 11.5507 50.6648 12.2343 50.2273 12.9862L44.7312 22.5155C44.116 23.582 43.2547 23.8827 42.2703 23.787C41.4637 23.6913 40.3973 23.2675 39.4129 22.6796C35.9949 20.6972 34.6961 17.662 31.3875 15.7343C30.2664 15.1054 29.2684 14.7636 28.6258 14.5175L28.1229 15.3874L26.9364 13.3348L32.9734 2.89641C33.5887 1.83 34.45 1.51555 35.4207 1.61125Z" style="fill:var(--color-0,hsl(0 0 0/0.85))"></path>
  <path d="M33.7254 28.2851L19.0555 2.89641C18.4402 1.83 17.5789 1.51555 16.5945 1.61125C15.7879 1.70695 14.7078 2.13078 13.7371 2.705C10.3191 4.68742 9.02031 7.73625 5.69804 9.65031C4.24882 10.4843 2.97734 10.7987 2.37578 11.1405C1.67851 11.5507 1.36406 12.2343 1.78789 12.9862L7.28398 22.5155C7.89921 23.582 8.76054 23.8827 9.74492 23.787C10.5516 23.6913 11.6316 23.2675 12.6023 22.6796C16.034 20.6972 17.3191 17.662 20.6414 15.7343C21.7488 15.1054 22.7605 14.7636 23.4031 14.5175L31.948 29.3241C32.2352 29.83 32.8504 29.9941 33.3562 29.707C33.8348 29.4198 34.0125 28.7773 33.7254 28.2851Z" style="fill:var(--color-1,hsl(0 0 0/0.85))"></path>
 </g>
</svg>