<svg version="1.1" xmlns="http://www.w3.org/2000/svg" xmlns:xlink="http://www.w3.org/1999/xlink" viewBox="0 0 28.2461 27.9043">
 <g>
  
  <path d="M13.9453 27.8906C21.6426 27.8906 27.8906 21.6289 27.8906 13.9453C27.8906 6.24805 21.6426 0 13.9453 0C6.26172 0 0 6.24805 0 13.9453C0 21.6289 6.26172 27.8906 13.9453 27.8906Z" style="fill:var(--color-0,hsl(0 0 0/0.85))"></path>
  <path d="M17.0625 19.8242C16.7754 19.9883 16.4199 19.9062 16.2559 19.5918L12.7832 13.6035C12.5234 13.7129 12.1816 13.8223 11.7988 14.0547C10.4863 14.793 9.93945 16.0645 8.46289 16.9121C8.06641 17.1582 7.57422 17.4043 7.06836 17.4043C6.58984 17.4043 6.26172 17.1855 6.0293 16.7617L3.75977 12.8516C3.51367 12.4414 3.71875 12.0449 4.08789 11.8398C4.33398 11.7031 4.83984 11.5664 5.44141 11.2109C6.78125 10.4453 7.30078 9.21484 8.77734 8.35352C9.20117 8.10742 9.67969 7.88867 10.0625 7.88867C10.5 7.88867 10.9102 7.99805 11.2109 8.49023L17.2812 19.0039C17.4453 19.291 17.3496 19.6602 17.0625 19.8242ZM20.7539 17.4043C20.248 17.4043 19.7695 17.1582 19.3594 16.9121C17.9375 16.1055 17.0215 14.3555 15.4082 13.7402L14.4922 12.1816L16.625 8.50391C16.9121 7.99805 17.3359 7.88867 17.7734 7.88867C18.1562 7.88867 18.6211 8.10742 19.0586 8.35352C20.5352 9.21484 21.041 10.4453 22.3945 11.2109C22.9824 11.5664 23.502 11.7031 23.748 11.8398C24.1172 12.0586 24.3223 12.4414 24.0762 12.8516L21.8066 16.7617C21.5605 17.1855 21.2461 17.4043 20.7539 17.4043ZM10.7734 19.8242C10.4727 19.6602 10.3906 19.291 10.5547 19.0039L12.6602 15.3809L13.3438 16.5566L11.5801 19.5918C11.416 19.9062 11.0605 20.002 10.7734 19.8242Z" style="fill:var(--color-1,white)"></path>
 </g>
</svg>