<svg version="1.1" xmlns="http://www.w3.org/2000/svg" xmlns:xlink="http://www.w3.org/1999/xlink" viewBox="0 0 25.5254 25.1699">
 <g>
  
  <path d="M4.29297 25.1699L20.877 25.1699C23.748 25.1699 25.1699 23.7617 25.1699 20.9453L25.1699 4.23828C25.1699 1.42188 23.748 0 20.877 0L4.29297 0C1.43555 0 0 1.42188 0 4.23828L0 20.9453C0 23.7617 1.43555 25.1699 4.29297 25.1699Z" style="fill:var(--color-0,#ff9500)"></path>
  <path d="M7.23242 20.1523C6.89062 20.1523 6.57617 19.8379 6.57617 19.4961L6.57617 7.66992C6.57617 7.06836 6.86328 6.61719 7.4375 6.35742C7.94336 6.125 8.39453 6.00195 9.48828 6.00195C12.0176 6.00195 13.6309 7.25977 16.0098 7.25977C17.1719 7.25977 17.7871 6.95898 18.1973 6.95898C18.7715 6.95898 18.9902 7.25977 18.9902 7.66992L18.9902 14.6152C18.9902 15.2578 18.7168 15.668 18.1289 15.9414C17.6094 16.1875 17.1582 16.2969 16.0781 16.2969C13.6445 16.2969 12.0586 15.0664 9.55664 15.0664C8.69531 15.0664 8.13477 15.2305 7.875 15.3398L7.875 19.4961C7.875 19.8516 7.61523 20.1523 7.23242 20.1523Z" style="fill:var(--color-1,white)"></path>
 </g>
</svg>