<svg version="1.1" xmlns="http://www.w3.org/2000/svg" xmlns:xlink="http://www.w3.org/1999/xlink" viewBox="0 0 25.5254 25.1699">
 <g>
  
  <path d="M4.29297 25.1699L20.877 25.1699C23.748 25.1699 25.1699 23.7617 25.1699 20.9453L25.1699 4.23828C25.1699 1.42188 23.748 0 20.877 0L4.29297 0C1.43555 0 0 1.42188 0 4.23828L0 20.9453C0 23.7617 1.43555 25.1699 4.29297 25.1699ZM4.32031 22.9688C2.95312 22.9688 2.20117 22.2441 2.20117 20.8223L2.20117 4.36133C2.20117 2.93945 2.95312 2.20117 4.32031 2.20117L20.8496 2.20117C22.2031 2.20117 22.9688 2.93945 22.9688 4.36133L22.9688 20.8223C22.9688 22.2441 22.2031 22.9688 20.8496 22.9688Z" style="fill:var(--color-0,#ff9500)"></path>
  <path d="M7.39648 19.9336C7.76562 19.9336 8.02539 19.6465 8.02539 19.3047L8.02539 15.2715C8.27148 15.1621 8.81836 14.998 9.65234 14.998C12.0859 14.998 13.6172 16.2012 15.9824 16.2012C17.0215 16.2012 17.459 16.0918 17.9648 15.8457C18.5391 15.5859 18.7988 15.1895 18.7988 14.5742L18.7988 7.83398C18.7988 7.4375 18.5938 7.15039 18.0332 7.15039C17.6367 7.15039 17.0352 7.4375 15.9141 7.4375C13.6035 7.4375 12.0449 6.2207 9.58398 6.2207C8.53125 6.2207 8.09375 6.34375 7.60156 6.5625C7.04102 6.80859 6.76758 7.24609 6.76758 7.83398L6.76758 19.3047C6.76758 19.6328 7.05469 19.9336 7.39648 19.9336Z" style="fill:var(--color-1,#ff9500)"></path>
 </g>
</svg>