<svg version="1.1" xmlns="http://www.w3.org/2000/svg" xmlns:xlink="http://www.w3.org/1999/xlink" viewBox="0 0 28.2461 27.9043">
 <g>
  
  <path d="M27.8906 13.9453C27.8906 21.6426 21.6426 27.8906 13.9453 27.8906C6.24805 27.8906 0 21.6426 0 13.9453C0 6.24805 6.24805 0 13.9453 0C21.6426 0 27.8906 6.24805 27.8906 13.9453ZM2.32422 13.9453C2.32422 20.3711 7.51953 25.5664 13.9453 25.5664C20.3711 25.5664 25.5664 20.3711 25.5664 13.9453C25.5664 7.51953 20.3711 2.32422 13.9453 2.32422C7.51953 2.32422 2.32422 7.51953 2.32422 13.9453Z" style="fill:var(--color-0,#ff9500)"></path>
  <path d="M14.9731 17.2017C13.7138 16.8482 12.5341 16.3652 10.9922 16.3652C10.1445 16.3652 9.61133 16.5293 9.35156 16.6387L9.35156 20.6719C9.35156 21.0137 9.10547 21.3008 8.73633 21.3008C8.39453 21.3008 8.09375 21 8.09375 20.6719L8.09375 10.3223ZM17.2539 8.80469C18.375 8.80469 18.9766 8.51758 19.373 8.51758C19.9336 8.51758 20.1387 8.80469 20.1387 9.20117L20.1387 15.9414C20.1387 16.5162 19.9119 16.9001 19.4136 17.1598L9.8913 7.64794C10.1599 7.60842 10.4883 7.58789 10.9238 7.58789C13.3848 7.58789 14.9297 8.80469 17.2539 8.80469Z" style="fill:var(--color-1,#ff9500)"></path>
  <path d="M19.7969 20.6445C20.0293 20.877 20.4395 20.8906 20.6719 20.6445C20.918 20.3984 20.918 20.0156 20.6719 19.7695L8.14844 7.23242C7.88867 6.98633 7.50586 6.98633 7.25977 7.23242C7.01367 7.47852 7.01367 7.875 7.25977 8.10742Z" style="fill:var(--color-2,#ff9500)"></path>
 </g>
</svg>