<svg version="1.1" xmlns="http://www.w3.org/2000/svg" xmlns:xlink="http://www.w3.org/1999/xlink" viewBox="0 0 28.2461 27.9043">
 <g>
  
  <path d="M13.9453 27.9043C21.6426 27.9043 27.8906 21.6562 27.8906 13.959C27.8906 6.27539 21.6426 0.0136719 13.9453 0.0136719C6.26172 0.0136719 0 6.27539 0 13.959C0 21.6562 6.26172 27.9043 13.9453 27.9043Z" style="fill:var(--color-0,hsl(0 0 0/0.85))"></path>
  <path d="M7.98438 17.4453C7.98438 14.6973 9.29688 13.6855 9.29688 11.9766C9.29688 11.6211 9.24219 11.1562 9.24219 10.9648C9.24219 10.623 9.44727 10.3906 9.76172 10.3906C10.4453 10.3906 11.2383 10.9648 11.6621 11.8262C11.7168 11.6484 11.7441 11.4844 11.7441 11.293C11.7305 9.78906 10.8008 8.50391 9.91211 7.42383C9.76172 7.24609 9.67969 7.04102 9.67969 6.84961C9.67969 6.35742 10.1309 6.09766 10.8418 6.09766C14.8887 6.09766 20.7266 8.95508 20.7266 15.8184C20.7266 19.9199 18.0332 22.668 13.9863 22.668C10.3633 22.668 7.98438 20.5898 7.98438 17.4453ZM11.7715 18.3613C11.7715 19.6465 12.7422 20.5215 14.1777 20.5215C15.9961 20.5215 16.8711 19.1816 16.8711 17.6504C16.8711 16.1738 16.0234 14.4922 14.3281 13.7129C14.2598 13.6855 14.2188 13.7129 14.2324 13.8223C14.3555 15.0391 14.1777 16.2148 13.7676 16.7617C13.5488 16.3105 13.3438 15.9141 12.9883 15.627C12.9336 15.5586 12.8789 15.5859 12.8789 15.6816C12.7422 16.5293 11.7715 17.0078 11.7715 18.3613Z" style="fill:var(--color-1,white)"></path>
 </g>
</svg>