<svg version="1.1" xmlns="http://www.w3.org/2000/svg" xmlns:xlink="http://www.w3.org/1999/xlink" viewBox="0 0 28.2461 27.9043">
 <g>
  
  <path d="M13.9453 27.9043C21.6426 27.9043 27.8906 21.6562 27.8906 13.959C27.8906 6.27539 21.6426 0.0136719 13.9453 0.0136719C6.26172 0.0136719 0 6.27539 0 13.959C0 21.6562 6.26172 27.9043 13.9453 27.9043Z" style="fill:var(--color-0,hsl(0 0 0/0.85))"></path>
  <path d="M16.1465 18.4603L16.1465 21.5195C16.1465 22.5039 15.627 23.0234 14.6699 23.0234L13.207 23.0234C12.2637 23.0234 11.7578 22.5039 11.7578 21.5195L11.7578 14.0763ZM7.94336 7.04102L20.877 19.9746C21.123 20.2344 21.123 20.6172 20.877 20.877C20.6309 21.123 20.207 21.123 19.9746 20.877L7.02734 7.94336C6.79492 7.69727 6.78125 7.28711 7.02734 7.04102C7.28711 6.78125 7.69727 6.78125 7.94336 7.04102ZM17.7051 8.24414C17.7051 8.94141 17.459 9.44727 17.0762 10.0352L16.6387 10.7188C16.3242 11.1973 16.1465 11.7715 16.1465 12.6328L16.1465 13.8359L10.1855 7.875L10.1855 7.5332L17.7051 7.5332ZM17.7051 6.39844L17.7051 6.67188L10.1855 6.67188L10.1855 6.39844C10.1855 5.40039 10.6777 4.89453 11.6621 4.89453L16.2148 4.89453C17.2129 4.89453 17.7051 5.40039 17.7051 6.39844Z" style="fill:var(--color-1,white)"></path>
 </g>
</svg>