<svg version="1.1" xmlns="http://www.w3.org/2000/svg" xmlns:xlink="http://www.w3.org/1999/xlink" viewBox="0 0 26.4961 28.6973">
 <g>
  
  <path d="M19.4551 1.13477C19.4551 1.76367 18.9766 2.29688 18.293 2.29688L18.2109 2.29688L18.2109 12.4414L25.1562 22.4082C25.7988 23.3379 26.1406 24.2676 26.1406 24.9648C26.1406 27.0566 24.7324 28.6699 22.4082 28.6699L3.73242 28.6699C1.4082 28.6699 0 27.0566 0 24.9648C0 24.2676 0.287109 23.4062 0.861328 22.5859L7.92969 12.4414L7.92969 2.29688L7.83398 2.29688C7.15039 2.29688 6.68555 1.76367 6.68555 1.13477C6.68555 0.505859 7.15039 0 7.83398 0L18.293 0C18.9766 0 19.4551 0.505859 19.4551 1.13477ZM10.1172 12.0449L10.1172 13.6445L12.6191 13.6445C13.0703 13.6445 13.4121 13.3027 13.4121 12.8379C13.4121 12.4141 13.0566 12.0449 12.6191 12.0449ZM10.1172 8.14844L10.1172 9.74805L12.6191 9.74805C13.0703 9.74805 13.4121 9.39258 13.4121 8.92773C13.4121 8.50391 13.043 8.14844 12.6055 8.14844ZM10.1172 4.23828L10.1172 5.83789L12.6055 5.83789C13.0566 5.83789 13.3984 5.49609 13.3984 5.03125C13.3984 4.60742 13.0293 4.23828 12.5918 4.23828Z" style="fill:var(--color-0,#8e8e93)"></path>
 </g>
</svg>