<svg version="1.1" xmlns="http://www.w3.org/2000/svg" xmlns:xlink="http://www.w3.org/1999/xlink" viewBox="0 0 13.7676 32.334">
 <g>
  
  <path d="M0 3.1582L13.4121 3.1582L13.4121 2.69336C13.4121 0.875 12.5234 0 10.7734 0L2.625 0C0.875 0 0 0.875 0 2.69336ZM5.42773 32.3203L7.98438 32.3203C9.70703 32.3203 10.623 31.4043 10.623 29.627L10.623 13.7676C10.623 12.25 10.9648 11.2246 11.5117 10.377L12.291 9.16016C12.9609 8.10742 13.4121 7.20508 13.4121 5.98828L13.4121 4.74414L0 4.74414L0 5.98828C0 7.20508 0.451172 8.10742 1.12109 9.16016L1.90039 10.377C2.44727 11.2246 2.78906 12.25 2.78906 13.7676L2.78906 29.627C2.78906 31.4043 3.70508 32.3203 5.42773 32.3203ZM4.29297 19.1953L4.29297 15.0664C4.29297 13.7266 5.3457 12.6602 6.71289 12.6602C8.06641 12.6602 9.11914 13.7266 9.11914 15.0664L9.11914 19.1953C9.11914 20.5488 8.06641 21.6016 6.71289 21.6016C5.3457 21.6016 4.29297 20.5488 4.29297 19.1953ZM6.71289 13.5215C5.81055 13.5215 5.14062 14.1777 5.14062 15.0664C5.14062 15.9277 5.83789 16.625 6.71289 16.625C7.57422 16.625 8.27148 15.9277 8.27148 15.0664C8.27148 14.1777 7.61523 13.5215 6.71289 13.5215Z" style="fill:var(--color-0,hsl(0 0 0/0.85))"></path>
 </g>
</svg>