<svg version="1.1" xmlns="http://www.w3.org/2000/svg" xmlns:xlink="http://www.w3.org/1999/xlink" viewBox="0 0 28.2461 27.9043">
 <g>
  
  <path d="M27.8906 13.9453C27.8906 21.6426 21.6426 27.8906 13.9453 27.8906C6.24805 27.8906 0 21.6426 0 13.9453C0 6.24805 6.24805 0 13.9453 0C21.6426 0 27.8906 6.24805 27.8906 13.9453ZM2.32422 13.9453C2.32422 20.3711 7.51953 25.5664 13.9453 25.5664C20.3711 25.5664 25.5664 20.3711 25.5664 13.9453C25.5664 7.51953 20.3711 2.32422 13.9453 2.32422C7.51953 2.32422 2.32422 7.51953 2.32422 13.9453Z" style="fill:var(--color-0,hsl(0 0 0/0.85))"></path>
  <path d="M16.0781 18.3066L16.0781 21.2734C16.0781 22.2305 15.5723 22.7363 14.6426 22.7363L13.2344 22.7363C12.3184 22.7363 11.8262 22.2305 11.8262 21.2734L11.8262 14.0547ZM17.5957 8.4082C17.5957 9.06445 17.3496 9.57031 16.9805 10.1445L16.5566 10.8008C16.2559 11.2656 16.0781 11.8262 16.0781 12.6602L16.0781 13.828L10.2949 8.05112L10.2949 7.71094L17.5957 7.71094ZM17.5957 6.61719L17.5957 6.87695L10.2949 6.87695L10.2949 6.61719C10.2949 5.64648 10.7734 5.1543 11.7305 5.1543L16.1465 5.1543C17.1172 5.1543 17.5957 5.64648 17.5957 6.61719Z" style="fill:var(--color-1,hsl(0 0 0/0.85))"></path>
  <path d="M19.7969 20.6445C20.0293 20.877 20.4395 20.8906 20.6719 20.6445C20.918 20.3984 20.918 20.0156 20.6719 19.7695L8.14844 7.23242C7.88867 6.98633 7.50586 6.98633 7.25977 7.23242C7.01367 7.47852 7.01367 7.875 7.25977 8.10742Z" style="fill:var(--color-2,hsl(0 0 0/0.85))"></path>
 </g>
</svg>