<svg version="1.1" xmlns="http://www.w3.org/2000/svg" xmlns:xlink="http://www.w3.org/1999/xlink" viewBox="0 0 25.751 32.334">
 <g>
  
  <path d="M10.2847 18.2326L10.2847 19.1953C10.2847 20.5488 11.3511 21.6016 12.7046 21.6016C12.9929 21.6016 13.2682 21.5538 13.5217 21.463L16.6147 24.5498L16.6147 29.627C16.6147 31.4043 15.6987 32.3203 13.9761 32.3203L11.4194 32.3203C9.69678 32.3203 8.79443 31.4043 8.79443 29.627L8.79443 16.7454ZM19.4038 5.98828C19.4038 7.20508 18.9526 8.10742 18.2827 9.16016L17.5034 10.377C16.9565 11.2246 16.6147 12.25 16.6147 13.7676L16.6147 17.0598L15.1245 15.5716L15.1245 15.0664C15.1245 13.7266 14.0581 12.6602 12.7046 12.6602C12.5493 12.6602 12.3977 12.6742 12.2517 12.7027L6.01797 6.47738C6.00039 6.3199 5.9917 6.15712 5.9917 5.98828L5.9917 4.74414L19.4038 4.74414ZM19.4038 2.69336L19.4038 3.1582L5.9917 3.1582L5.9917 2.69336C5.9917 0.875 6.88037 0 8.63037 0L16.7788 0C18.5288 0 19.4038 0.875 19.4038 2.69336Z" style="fill:var(--color-0,hsl(0 0 0/0.85))"></path>
  <path d="M1.90381 7.60156L22.0425 27.7129C22.4526 28.1367 23.1362 28.1367 23.5327 27.7129C23.9429 27.3027 23.9429 26.6465 23.5327 26.2363L3.40771 6.11133C2.99756 5.70117 2.31396 5.70117 1.90381 6.11133C1.50732 6.50781 1.50732 7.20508 1.90381 7.60156Z" style="fill:var(--color-1,hsl(0 0 0/0.85))"></path>
 </g>
</svg>