<?xml version="1.0" encoding="UTF-8"?>
<!--Generator: Apple Native CoreSVG 326-->
<!DOCTYPE svg
PUBLIC "-//W3C//DTD SVG 1.1//EN"
       "http://www.w3.org/Graphics/SVG/1.1/DTD/svg11.dtd">
<svg version="1.1" xmlns="http://www.w3.org/2000/svg" xmlns:xlink="http://www.w3.org/1999/xlink" viewBox="0 0 26.5508 30.4473">
 <g>
  <rect height="30.4473" opacity="0" width="26.5508" x="0" y="0"/>
  <path d="M5.66016 2.85742C10.0352 2.85742 14.2051 9.31055 20.7949 9.31055C24.2266 9.31055 26.1953 7.16406 26.1953 4.40234C26.1953 3.48633 25.9629 2.47461 25.4707 1.53125C24.8691 0.369141 23.0781 1.13477 23.748 2.41992C24.1309 3.1582 24.3359 3.91016 24.3359 4.58008C24.3359 6.27539 23.1191 7.38281 20.7949 7.38281C15.2441 7.38281 11.0742 0.929688 5.66016 0.929688C2.11914 0.929688 0 3.26758 0 6.00195C0 6.89062 0.205078 7.79297 0.669922 8.68164C1.27148 9.83008 3.03516 9.03711 2.39258 7.79297C2.03711 7.10938 1.87305 6.43945 1.87305 5.83789C1.87305 4.12891 3.21289 2.85742 5.66016 2.85742ZM12.291 16.9258L14.082 16.9121C13.8223 11.5801 17.5957 9.05078 17.5957 4.7168C17.5957 2.32422 15.9414 0.382812 13.7539 0.382812C11.8262 0.382812 10.2676 1.83203 10.2129 3.80078L12.0039 4.32031C12.0312 3.11719 12.7148 2.31055 13.7539 2.31055C14.875 2.31055 15.668 3.28125 15.668 4.7168C15.668 7.98438 12.0039 10.8008 12.291 16.9258ZM2.35156 17.9102C2.35156 23.9668 6.80859 30.4473 15.6816 30.4473C19.5098 30.4473 22.4355 28.6426 22.4355 26.373C22.4355 25.3066 21.6836 24.5 20.248 24.3359C19.8789 24.2812 19.5098 24.4316 19.4414 24.8828C19.209 26.7695 17.9102 28.1094 16.1602 28.1094C14.916 28.1094 14.1504 27.3711 14.1504 26.4141C14.1504 23.1328 23.6797 22.9414 23.6797 16.4473C23.6797 13.4668 21.5742 11.4023 18.7715 11.4023C16.1602 11.4023 14.1094 12.8652 13.1797 15.3809C13.3711 11.7441 11.293 9.89844 8.73633 9.89844C4.7168 9.89844 2.35156 13.5762 2.35156 17.9102Z" fill="white" fill-opacity="0.85"/>
 </g>
</svg>
