<?xml version="1.0" encoding="UTF-8"?>
<!--Generator: Apple Native CoreSVG 326-->
<!DOCTYPE svg
PUBLIC "-//W3C//DTD SVG 1.1//EN"
       "http://www.w3.org/Graphics/SVG/1.1/DTD/svg11.dtd">
<svg version="1.1" xmlns="http://www.w3.org/2000/svg" xmlns:xlink="http://www.w3.org/1999/xlink" viewBox="0 0 19.4824 28.1777">
 <g>
  <rect height="28.1777" opacity="0" width="19.4824" x="0" y="0"/>
  <path d="M9.57031 28.1777C15.4629 28.1777 19.127 24.7871 19.127 18.8945L19.127 7.66992C19.127 5.49609 17.6914 4.11523 15.4082 4.11523L2.20117 4.11523L2.20117 1.12109C2.20117 0.519531 1.70898 0.0136719 1.09375 0.0136719C0.492188 0.0136719 0 0.519531 0 1.12109L0 18.8945C0 24.7871 3.66406 28.1777 9.57031 28.1777ZM9.57031 26.0312C5.07227 26.0312 2.20117 23.4746 2.20117 19.0449L2.20117 6.31641L15.1211 6.31641C16.2695 6.31641 16.9258 6.94531 16.9258 8.02539L16.9258 19.0449C16.9258 23.4746 14.0684 26.0312 9.57031 26.0312ZM4.77148 16.9121L14.3555 16.9121C15.1074 16.9121 15.5586 16.4609 15.5586 15.7363L15.5586 8.87305C15.5586 8.13477 15.1074 7.68359 14.3555 7.68359L4.77148 7.68359C4.0332 7.68359 3.56836 8.13477 3.56836 8.87305L3.56836 15.7363C3.56836 16.4609 4.0332 16.9121 4.77148 16.9121ZM7.62891 23.6797L11.4297 23.6797C11.9492 23.6797 12.3594 23.2695 12.3594 22.75C12.3594 22.2305 11.9492 21.8203 11.4297 21.8203L7.62891 21.8203C7.12305 21.8203 6.69922 22.2305 6.69922 22.75C6.69922 23.2695 7.12305 23.6797 7.62891 23.6797Z" fill="white" fill-opacity="0.85"/>
 </g>
</svg>
