<?xml version="1.0" encoding="UTF-8"?>
<!--Generator: Apple Native CoreSVG 326-->
<!DOCTYPE svg
PUBLIC "-//W3C//DTD SVG 1.1//EN"
       "http://www.w3.org/Graphics/SVG/1.1/DTD/svg11.dtd">
<svg version="1.1" xmlns="http://www.w3.org/2000/svg" xmlns:xlink="http://www.w3.org/1999/xlink" viewBox="0 0 30.9258 30.584">
 <g>
  <rect height="30.584" opacity="0" width="30.9258" x="0" y="0"/>
  <path d="M15.2852 30.5703C23.6797 30.5703 30.5703 23.6797 30.5703 15.2852C30.5703 6.89062 23.6797 0 15.2852 0C6.89062 0 0 6.89062 0 15.2852C0 23.6797 6.89062 30.5703 15.2852 30.5703ZM15.2852 25.4844C9.65234 25.4844 5.08594 20.918 5.08594 15.2852C5.08594 9.63867 9.65234 5.08594 15.2852 5.08594C20.9316 5.08594 25.4844 9.63867 25.4844 15.2852C25.4844 20.918 20.9316 25.4844 15.2852 25.4844Z" fill="white" fill-opacity="0.85"/>
  <path d="M11.9766 21.4102C14.123 21.4102 15.1621 20.3027 15.5039 18.2109L15.9414 15.5586L18.8809 15.5586C19.2227 15.5586 19.4688 15.3398 19.4688 15.0117C19.4688 14.6973 19.2227 14.4648 18.8809 14.4648L16.1191 14.4648L16.4609 12.4414C16.6797 11.1562 17.3359 10.5273 18.6211 10.5273C19.127 10.5273 19.4688 10.6367 19.7695 10.6367C20.1797 10.6367 20.3984 10.4316 20.3984 10.0625C20.3984 9.7207 20.125 9.50195 19.7969 9.37891C19.4277 9.21484 18.8672 9.16016 18.498 9.16016C16.4062 9.16016 15.2578 10.2539 14.916 12.3184L14.5469 14.4648L11.7852 14.4648C11.457 14.4648 11.2109 14.6973 11.2109 15.0117C11.2109 15.3398 11.457 15.5586 11.7852 15.5586L14.3828 15.5586L13.959 18.0332C13.7402 19.3594 13.1797 20.0566 11.8262 20.0566C11.2793 20.0566 11.1152 19.9746 10.623 19.9746C10.2812 19.9746 10.0625 20.207 10.0625 20.5078C10.0625 20.877 10.2812 21.082 10.623 21.2188C11.0195 21.3965 11.5527 21.4102 11.9766 21.4102Z" fill="white" fill-opacity="0.85"/>
 </g>
</svg>
