<svg version="1.1" xmlns="http://www.w3.org/2000/svg" xmlns:xlink="http://www.w3.org/1999/xlink" viewBox="0 0 25.5254 25.1699">
 <g>
  
  <path d="M4.29297 25.1699L20.877 25.1699C23.748 25.1699 25.1699 23.7617 25.1699 20.9453L25.1699 4.23828C25.1699 1.42188 23.748 0 20.877 0L4.29297 0C1.43555 0 0 1.42188 0 4.23828L0 20.9453C0 23.7617 1.43555 25.1699 4.29297 25.1699Z" style="fill:var(--color-0,hsl(0 0 0/0.85))"></path>
  <path d="M9.17383 18.8945C8.73633 18.8945 8.18945 18.8672 7.7793 18.7031C7.42383 18.5527 7.20508 18.3477 7.20508 17.9648C7.20508 17.6504 7.42383 17.418 7.7793 17.418C8.29883 17.418 8.46289 17.5 9.02344 17.5C10.418 17.5 10.9922 16.7754 11.2246 15.4082L11.6621 12.8652L8.98242 12.8652C8.64062 12.8652 8.39453 12.6328 8.39453 12.291C8.39453 11.9766 8.64062 11.7305 8.98242 11.7305L11.8262 11.7305L12.209 9.51562C12.5645 7.38281 13.7539 6.26172 15.9141 6.26172C16.2969 6.26172 16.8711 6.31641 17.2539 6.48047C17.582 6.60352 17.8691 6.83594 17.8691 7.19141C17.8691 7.57422 17.6504 7.75195 17.2676 7.7793C16.9121 7.7793 16.5566 7.66992 16.0371 7.66992C14.7109 7.66992 14.041 8.32617 13.8086 9.63867L13.4531 11.7305L16.2969 11.7305C16.6523 11.7305 16.9121 11.9766 16.9121 12.291C16.9121 12.6328 16.6523 12.8652 16.2969 12.8652L13.2754 12.8652L12.8242 15.5996C12.4688 17.7598 11.4023 18.8945 9.17383 18.8945Z" style="fill:var(--color-1,white)"></path>
 </g>
</svg>