<svg version="1.1" xmlns="http://www.w3.org/2000/svg" xmlns:xlink="http://www.w3.org/1999/xlink" viewBox="0 0 28.2461 27.9043">
 <g>
  
  <path d="M13.9453 27.8906C21.6426 27.8906 27.8906 21.6426 27.8906 13.9453C27.8906 6.24805 21.6426 0 13.9453 0C6.24805 0 0 6.24805 0 13.9453C0 21.6426 6.24805 27.8906 13.9453 27.8906ZM13.9453 25.5664C7.51953 25.5664 2.32422 20.3711 2.32422 13.9453C2.32422 7.51953 7.51953 2.32422 13.9453 2.32422C20.3711 2.32422 25.5664 7.51953 25.5664 13.9453C25.5664 20.3711 20.3711 25.5664 13.9453 25.5664Z" style="fill:var(--color-0,hsl(0 0 0/0.85))"></path>
  <path d="M10.623 20.0703C12.7695 20.0703 13.8086 18.9629 14.1504 16.8711L14.5879 14.2188L17.5273 14.2188C17.8691 14.2188 18.1152 14 18.1152 13.6719C18.1152 13.3574 17.8691 13.125 17.5273 13.125L14.7656 13.125L15.1074 11.1016C15.3262 9.81641 15.9824 9.1875 17.2676 9.1875C17.7734 9.1875 18.1016 9.29688 18.416 9.29688C18.8262 9.29688 19.0449 9.0918 19.0449 8.72266C19.0449 8.38086 18.7715 8.16211 18.4434 8.03906C18.0742 7.875 17.5137 7.82031 17.1445 7.82031C15.0527 7.82031 13.9043 8.91406 13.5625 10.9785L13.1934 13.125L10.4316 13.125C10.1035 13.125 9.85742 13.3574 9.85742 13.6719C9.85742 14 10.1035 14.2188 10.4316 14.2188L13.0293 14.2188L12.6055 16.6934C12.3867 18.0195 11.8262 18.7168 10.4727 18.7168C9.92578 18.7168 9.76172 18.6348 9.26953 18.6348C8.92773 18.6348 8.70898 18.8672 8.70898 19.168C8.70898 19.5371 8.92773 19.7422 9.26953 19.8789C9.66602 20.0566 10.1992 20.0703 10.623 20.0703Z" style="fill:var(--color-1,hsl(0 0 0/0.85))"></path>
 </g>
</svg>