<?xml version="1.0" encoding="UTF-8"?>
<!--Generator: Apple Native CoreSVG 326-->
<!DOCTYPE svg
PUBLIC "-//W3C//DTD SVG 1.1//EN"
       "http://www.w3.org/Graphics/SVG/1.1/DTD/svg11.dtd">
<svg version="1.1" xmlns="http://www.w3.org/2000/svg" xmlns:xlink="http://www.w3.org/1999/xlink" viewBox="0 0 20.9316 24.5137">
 <g>
  <rect height="24.5137" opacity="0" width="20.9316" x="0" y="0"/>
  <path d="M3.77344 24.5C8.02539 24.5 10.0352 22.1895 10.7188 18.1289L11.6621 12.6738L17.6777 12.6738C18.3066 12.6738 18.7578 12.2637 18.7578 11.6621C18.7578 11.0332 18.3066 10.582 17.6777 10.582L12.0039 10.582L12.7012 6.50781C13.166 3.86914 14.4102 2.54297 17.0898 2.54297C18.1699 2.54297 18.6621 2.78906 19.4961 2.78906C20.1523 2.78906 20.5762 2.40625 20.5762 1.73633C20.5762 1.05273 19.9883 0.601562 19.3867 0.382812C18.5938 0.0820312 17.5684 0 16.8301 0C12.7148 0 10.459 2.1875 9.77539 6.26172L9.02344 10.582L3.34961 10.582C2.7207 10.582 2.26953 11.0332 2.26953 11.6621C2.26953 12.2637 2.7207 12.6738 3.34961 12.6738L8.68164 12.6738L7.80664 17.7871C7.32812 20.4805 6.24805 21.9297 3.47266 21.9297C2.625 21.9297 1.73633 21.7246 1.12109 21.7246C0.464844 21.7246 0 22.0938 0 22.7637C0 23.4199 0.410156 23.8301 1.03906 24.0898C1.85938 24.418 2.89844 24.5 3.77344 24.5Z" fill="white" fill-opacity="0.85"/>
 </g>
</svg>
