<?xml version="1.0" encoding="UTF-8"?>
<!--Generator: Apple Native CoreSVG 326-->
<!DOCTYPE svg
PUBLIC "-//W3C//DTD SVG 1.1//EN"
       "http://www.w3.org/Graphics/SVG/1.1/DTD/svg11.dtd">
<svg version="1.1" xmlns="http://www.w3.org/2000/svg" xmlns:xlink="http://www.w3.org/1999/xlink" viewBox="0 0 33.291 27.3099">
 <g>
  <rect height="27.3099" opacity="0" width="33.291" x="0" y="0"/>
  <path d="M32.9355 16.3962C32.9355 7.78289 26.3184 0.714533 17.8965 0.00359537C17.459-0.0374203 17.1309 0.277033 17.1309 0.714533L17.1309 5.18524C17.1309 5.55438 17.3906 5.84149 17.7598 5.86883C22.9961 6.51141 27.0703 10.9821 27.0703 16.3962C27.0703 18.8571 26.2227 21.1266 24.7324 23.027C24.541 23.2595 24.5547 23.5602 24.7598 23.779L28.0273 27.0329C28.3281 27.3337 28.793 27.3337 29.0664 27.0055C31.4863 24.1345 32.9355 20.4294 32.9355 16.3962Z" fill="white" fill-opacity="0.85"/>
  <path d="M0 16.3962C0 20.443 1.44922 24.1481 3.86914 27.0192C4.14258 27.3473 4.59375 27.3337 4.9082 27.0329L8.17578 23.779C8.38086 23.5602 8.39453 23.2595 8.20312 23.027C6.69922 21.1266 5.86523 18.8571 5.86523 16.3962C5.86523 10.9821 9.93945 6.51141 15.1758 5.86883C15.5449 5.84149 15.8047 5.55438 15.8047 5.18524L15.8047 0.714533C15.8047 0.277033 15.4766-0.0374203 15.0391 0.00359537C6.61719 0.714533 0 7.78289 0 16.3962Z" fill="white" fill-opacity="0.85"/>
  <path d="M13.1387 22.7126C15.2852 22.7126 16.3242 21.6052 16.666 19.5134L17.1035 16.8473L20.0566 16.8473C20.3848 16.8473 20.6309 16.6286 20.6309 16.3141C20.6309 15.986 20.3848 15.7536 20.0566 15.7536L17.2812 15.7536L17.623 13.7302C17.8418 12.445 18.498 11.8161 19.7969 11.8161C20.2891 11.8161 20.6309 11.9255 20.9316 11.9255C21.3418 11.9255 21.5605 11.7204 21.5605 11.3649C21.5605 11.0231 21.2871 10.7907 20.9727 10.6677C20.5898 10.5036 20.0293 10.4626 19.6602 10.4626C17.582 10.4626 16.4199 11.5427 16.0781 13.6071L15.7227 15.7536L12.9609 15.7536C12.6191 15.7536 12.373 15.986 12.373 16.3141C12.373 16.6286 12.6191 16.8473 12.9609 16.8473L15.5449 16.8473L15.1211 19.322C14.9023 20.6481 14.3418 21.3454 12.9883 21.3454C12.4414 21.3454 12.2773 21.2634 11.7852 21.2634C11.4434 21.2634 11.2246 21.4958 11.2246 21.8102C11.2246 22.1657 11.4434 22.3708 11.7988 22.5212C12.1816 22.6852 12.7148 22.7126 13.1387 22.7126Z" fill="white" fill-opacity="0.85"/>
 </g>
</svg>
