<svg version="1.1" xmlns="http://www.w3.org/2000/svg" xmlns:xlink="http://www.w3.org/1999/xlink" viewBox="0 0 33.5408 27.9043">
 <g>
  
  <path d="M16.5995 27.8906C24.2968 27.8906 30.5448 21.6426 30.5448 13.9453C30.5448 6.24805 24.2968 0 16.5995 0C8.90224 0 2.65419 6.24805 2.65419 13.9453L4.97841 13.9453C4.97841 7.51953 10.1737 2.32422 16.5995 2.32422C23.0253 2.32422 28.2206 7.51953 28.2206 13.9453C28.2206 20.3711 23.0253 25.5664 16.5995 25.5664C12.7167 25.5664 9.2577 23.6523 7.19325 20.7539C6.76942 20.1934 6.12684 20.0156 5.55263 20.3574C5.00575 20.6992 4.84169 21.4648 5.30653 22.0664C7.83583 25.6074 11.9784 27.8906 16.5995 27.8906ZM0.972548 11.3066C-0.0118272 11.3066-0.257921 11.9766 0.275282 12.7422L3.33778 17.0898C3.78895 17.7188 4.4452 17.7051 4.8827 17.0898L7.93153 12.7285C8.46474 11.9766 8.20497 11.3066 7.24794 11.3066Z" style="fill:var(--color-0,hsl(0 0 0/0.85))"></path>
  <path d="M13.2909 20.0703C15.4374 20.0703 16.4765 18.9629 16.8183 16.8711L17.2558 14.2188L20.1952 14.2188C20.537 14.2188 20.7831 14 20.7831 13.6719C20.7831 13.3574 20.537 13.125 20.1952 13.125L17.4335 13.125L17.7753 11.1016C17.994 9.81641 18.6503 9.1875 19.9354 9.1875C20.4413 9.1875 20.7694 9.29688 21.0839 9.29688C21.494 9.29688 21.7128 9.0918 21.7128 8.72266C21.7128 8.38086 21.4393 8.16211 21.1112 8.03906C20.7421 7.875 20.1815 7.82031 19.8124 7.82031C17.7206 7.82031 16.5722 8.91406 16.2304 10.9785L15.8612 13.125L13.0995 13.125C12.7577 13.125 12.5253 13.3574 12.5253 13.6719C12.5253 14 12.7577 14.2188 13.0995 14.2188L15.6972 14.2188L15.2733 16.6934C15.0546 18.0195 14.494 18.7168 13.1405 18.7168C12.5936 18.7168 12.4296 18.6348 11.9374 18.6348C11.5956 18.6348 11.3768 18.8672 11.3768 19.168C11.3768 19.5371 11.5956 19.7422 11.9374 19.8789C12.3339 20.0566 12.8671 20.0703 13.2909 20.0703Z" style="fill:var(--color-1,hsl(0 0 0/0.85))"></path>
 </g>
</svg>