<?xml version="1.0" encoding="UTF-8"?>
<!--Generator: Apple Native CoreSVG 326-->
<!DOCTYPE svg
PUBLIC "-//W3C//DTD SVG 1.1//EN"
       "http://www.w3.org/Graphics/SVG/1.1/DTD/svg11.dtd">
<svg version="1.1" xmlns="http://www.w3.org/2000/svg" xmlns:xlink="http://www.w3.org/1999/xlink" viewBox="0 0 29.75 32.3818">
 <g>
  <rect height="32.3818" opacity="0" width="29.75" x="0" y="0"/>
  <path d="M3.26758 11.4946L26.127 11.4946C28.1777 11.4946 29.3945 10.2915 29.3945 8.28174L29.3945 3.66064C29.3945 1.65088 28.1777 0.447754 26.127 0.447754L3.26758 0.447754C1.2168 0.447754 0 1.65088 0 3.66064L0 8.28174C0 10.2915 1.2168 11.4946 3.26758 11.4946ZM3.30859 9.43018C2.5293 9.43018 2.06445 8.95166 2.06445 8.15869L2.06445 3.77002C2.06445 2.99072 2.5293 2.51221 3.30859 2.51221L26.0859 2.51221C26.8652 2.51221 27.3301 2.99072 27.3301 3.77002L27.3301 8.15869C27.3301 8.95166 26.8652 9.43018 26.0859 9.43018ZM13.7129 14.7485L15.709 14.7485L15.709 10.4282L13.7129 10.4282ZM3.26758 24.5103L26.127 24.5103C28.1777 24.5103 29.3945 23.3071 29.3945 21.2974L29.3945 16.6763C29.3945 14.6665 28.1777 13.4634 26.127 13.4634L3.26758 13.4634C1.2168 13.4634 0 14.6665 0 16.6763L0 21.2974C0 23.3071 1.2168 24.5103 3.26758 24.5103ZM3.30859 22.4458C2.5293 22.4458 2.06445 21.9673 2.06445 21.188L2.06445 16.7993C2.06445 16.0063 2.5293 15.5278 3.30859 15.5278L26.0859 15.5278C26.8652 15.5278 27.3301 16.0063 27.3301 16.7993L27.3301 21.188C27.3301 21.9673 26.8652 22.4458 26.0859 22.4458ZM13.6992 27.3677L15.709 27.3677L15.709 23.061L13.6992 23.061ZM13.9727 32.0024C14.3828 32.5083 15.0664 32.5083 15.4766 32.0024L18.6074 28.1333C19.209 27.3813 18.8398 26.397 17.8691 26.397L11.5664 26.397C10.5684 26.397 10.1855 27.3677 10.8145 28.1333Z" fill="white" fill-opacity="0.85"/>
 </g>
</svg>
