<?xml version="1.0" encoding="UTF-8"?>
<!--Generator: Apple Native CoreSVG 326-->
<!DOCTYPE svg
PUBLIC "-//W3C//DTD SVG 1.1//EN"
       "http://www.w3.org/Graphics/SVG/1.1/DTD/svg11.dtd">
<svg version="1.1" xmlns="http://www.w3.org/2000/svg" xmlns:xlink="http://www.w3.org/1999/xlink" viewBox="0 0 31.1445 30.4693">
 <g>
  <rect height="30.4693" opacity="0" width="31.1445" x="0" y="0"/>
  <path d="M18.0605 0.134084C18.4297 0.202443 18.6484 0.434865 18.7168 0.804005L18.9219 2.37627C19.6465 2.58135 20.3301 2.84111 20.9863 3.1419L22.1621 2.06182C22.4492 1.81572 22.7773 1.77471 23.0918 1.96611C23.4062 2.14385 23.5293 2.44463 23.4609 2.81377L23.1191 4.37236C23.707 4.79619 24.2676 5.27471 24.7871 5.80791L26.291 5.17901C26.6328 5.04229 26.9473 5.11065 27.1797 5.39776C27.4121 5.68486 27.4395 5.99932 27.248 6.32744L26.373 7.69463C26.7969 8.29619 27.1523 8.91143 27.4668 9.56768L29.0801 9.51299C29.4629 9.49932 29.7363 9.69072 29.8457 10.0325C29.9824 10.3743 29.9004 10.6751 29.5996 10.9212L28.3008 11.9192C28.4785 12.6165 28.6016 13.3274 28.6699 14.0521L30.2422 14.5442C30.5977 14.6673 30.7891 14.9271 30.7891 15.2962C30.7891 15.6653 30.5977 15.9251 30.2422 16.0345L28.6562 16.5403C28.5879 17.2649 28.4648 17.9622 28.2871 18.6458L29.5996 19.6712C29.9004 19.9036 29.9824 20.2181 29.8594 20.5599C29.7363 20.9017 29.4629 21.0794 29.0938 21.0657L27.3984 20.9974C27.084 21.6536 26.7422 22.2552 26.3457 22.8294L27.248 24.2649C27.4395 24.5931 27.4121 24.9075 27.1797 25.1946C26.9473 25.4817 26.6328 25.5364 26.291 25.3997L24.7051 24.7571C24.2129 25.2493 23.666 25.7005 23.0918 26.097L23.4609 27.7786C23.5293 28.1341 23.4062 28.4485 23.0918 28.6263C22.7773 28.804 22.4492 28.7767 22.1621 28.5306L20.9043 27.3685C20.2754 27.6556 19.6191 27.888 18.9492 28.0794L18.7168 29.7747C18.6484 30.1575 18.4297 30.3899 18.0605 30.4583C17.7051 30.513 17.418 30.3626 17.2402 30.0481L16.4336 28.5169C16.0918 28.5442 15.7363 28.5579 15.3945 28.5579C15.0527 28.5579 14.7109 28.5442 14.3555 28.5169L13.5488 30.0345C13.3711 30.3626 13.0703 30.513 12.7285 30.4583C12.3594 30.3899 12.1406 30.1575 12.0723 29.7747L11.8398 28.0794C11.1699 27.888 10.5137 27.6556 9.88477 27.3685L8.62695 28.5306C8.33984 28.7767 8.01172 28.8177 7.69727 28.6263C7.38281 28.4349 7.25977 28.1478 7.32812 27.7786L7.69727 26.097C7.12305 25.7005 6.57617 25.2493 6.08398 24.7571L4.49805 25.3997C4.15625 25.5501 3.8418 25.4817 3.60938 25.1946C3.37695 24.9075 3.34961 24.5931 3.54102 24.2649L4.44336 22.8294C4.04688 22.2552 3.70508 21.6536 3.39062 21.011L1.69531 21.0657C1.32617 21.0931 1.05273 20.9017 0.943359 20.5599C0.806641 20.2044 0.888672 19.9173 1.18945 19.6712L2.50195 18.6458C2.32422 17.9622 2.20117 17.2649 2.13281 16.5403L0.546875 16.0345C0.191406 15.9251 0 15.6653 0 15.2962C0 14.9271 0.191406 14.6673 0.546875 14.5442L2.11914 14.0521C2.1875 13.3274 2.31055 12.6165 2.48828 11.9192L1.18945 10.9212C0.888672 10.6888 0.806641 10.3743 0.929688 10.0325C1.05273 9.69072 1.32617 9.49932 1.69531 9.52666L3.32227 9.56768C3.63672 8.91143 3.99219 8.29619 4.41602 7.69463L3.54102 6.32744C3.34961 5.99932 3.37695 5.68486 3.60938 5.39776C3.8418 5.11065 4.15625 5.04229 4.49805 5.17901L5.98828 5.80791C6.50781 5.28838 7.08203 4.79619 7.66992 4.37236L7.32812 2.81377C7.25977 2.44463 7.38281 2.14385 7.69727 1.96611C8.01172 1.77471 8.33984 1.81572 8.62695 2.06182L9.80273 3.1419C10.459 2.84111 11.1426 2.58135 11.8672 2.37627L12.0723 0.804005C12.1406 0.434865 12.3594 0.188771 12.7285 0.134084C13.0703 0.0793961 13.3711 0.216115 13.5488 0.54424L14.3008 1.95244C14.6699 1.9251 15.0254 1.91143 15.3945 1.91143C15.7637 1.91143 16.1191 1.9251 16.4883 1.95244L17.2266 0.54424C17.418 0.216115 17.7051 0.0793961 18.0605 0.134084ZM4.29297 15.2278C4.29297 16.5523 4.52568 17.8231 4.96444 18.9957C4.64616 18.7797 4.36053 18.5204 4.11523 18.222C5.31836 23.1712 9.9668 26.9993 15.4082 26.9993C20.8633 26.9993 25.5254 23.1438 26.6738 18.222C26.4284 18.5206 26.1426 18.78 25.8245 18.9961C26.2633 17.8234 26.4961 16.5525 26.4961 15.2278C26.4961 9.10283 21.5195 4.12627 15.3945 4.12627C9.26953 4.12627 4.29297 9.10283 4.29297 15.2278Z" fill="white" fill-opacity="0.85"/>
  <path d="M15.4082 26.9993C20.8633 26.9993 25.5254 23.1438 26.6738 18.222C25.8535 19.22 24.582 19.7806 23.1875 19.7806C21.8477 19.7806 20.6172 19.261 19.7832 18.3313C19.4688 18.0032 19.1406 17.9896 18.8262 18.3313C18.0469 19.22 16.7891 19.7806 15.3945 19.7806C14 19.7806 12.7422 19.22 11.9629 18.3313C11.6484 17.9896 11.3203 18.0032 11.0059 18.3313C10.1719 19.261 8.95508 19.7806 7.61523 19.7806C6.20703 19.7806 4.93555 19.22 4.11523 18.222C5.31836 23.1712 9.9668 26.9993 15.4082 26.9993Z" fill="white" fill-opacity="0.85"/>
 </g>
</svg>
