<svg version="1.1" xmlns="http://www.w3.org/2000/svg" xmlns:xlink="http://www.w3.org/1999/xlink" viewBox="0 0 32.5938 23.4473">
 <g>
  
  <path d="M3.52734 22.4219L28.752 22.4219C30.3926 22.4219 31.4727 21.2734 31.4727 19.5645L31.4727 14.8477C30.0781 14.8203 28.916 14.2734 28.1641 13.4121C27.8633 13.0703 27.5215 13.084 27.2207 13.4121C26.4004 14.3418 25.1699 14.8477 23.8438 14.8477C22.5176 14.8477 21.2871 14.3418 20.4668 13.4121C20.166 13.084 19.8242 13.0703 19.5234 13.4121C18.7441 14.3008 17.5 14.8477 16.1191 14.8477C14.7383 14.8477 13.4941 14.3008 12.7148 13.4121C12.4141 13.0703 12.0859 13.084 11.7715 13.4121C10.9512 14.3418 9.7207 14.8477 8.39453 14.8477C7.06836 14.8477 5.85156 14.3418 5.01758 13.4121C4.7168 13.084 4.375 13.0703 4.07422 13.4121C3.32227 14.2734 2.17383 14.8203 0.765625 14.8477L0.765625 19.5645C0.765625 21.2734 1.8457 22.4219 3.52734 22.4219ZM4.29297 23.4473L27.9453 23.4473C30.8164 23.4473 32.2383 22.0254 32.2383 19.209L32.2383 7.73828C32.2383 4.93555 30.8164 3.51367 27.9453 3.51367L26.4277 3.51367L26.4277 1.68164C26.4277 0.642578 25.8262 0.0136719 24.7734 0.0136719L22.0391 0.0136719C21 0.0136719 20.3984 0.642578 20.3984 1.68164L20.3984 3.51367L11.8535 3.51367L11.8535 1.68164C11.8535 0.642578 11.252 0.0136719 10.1992 0.0136719L7.46484 0.0136719C6.41211 0.0136719 5.81055 0.642578 5.81055 1.68164L5.81055 3.51367L4.29297 3.51367C1.43555 3.51367 0 4.92188 0 7.73828L0 19.209C0 22.0391 1.43555 23.4473 4.29297 23.4473ZM2.20117 19.0996L2.20117 7.86133C2.20117 6.43945 2.95312 5.71484 4.32031 5.71484L27.918 5.71484C29.2715 5.71484 30.0371 6.43945 30.0371 7.86133L30.0371 19.0996C30.0371 20.5078 29.2715 21.2461 27.918 21.2461L4.32031 21.2461C2.95312 21.2461 2.20117 20.5078 2.20117 19.0996Z" style="fill:var(--color-0,hsl(0 0 0/0.85))"></path>
 </g>
</svg>