<svg version="1.1" xmlns="http://www.w3.org/2000/svg" xmlns:xlink="http://www.w3.org/1999/xlink" viewBox="0 0 46.2585 23.5566">
 <g>
  
  <path d="M6.36755 23.5566C10.0863 23.5566 12.7797 21.0547 12.7797 17.4316L12.7797 13.8359L10.7015 14.1094L10.7015 17.4316C10.7015 19.8516 8.85583 21.4922 6.36755 21.4922C3.5238 21.4922 1.73278 19.7285 2.12927 16.5703L3.34606 6.84961C3.64684 4.38867 5.09606 3.08984 7.62536 3.08984L12.0687 3.08984L14.0922 1.02539L7.62536 1.02539C3.87927 1.02539 1.73278 2.95312 1.28161 6.63086L0.078485 16.3652C-0.495734 20.918 2.12927 23.5566 6.36755 23.5566ZM14.0922 17.623L31.8109 17.623C33.8343 17.623 35.2015 16.2148 35.2015 14.1094L35.2015 4.53906C35.2015 2.43359 33.8343 1.02539 31.8109 1.02539L14.0922 1.02539C12.0687 1.02539 10.7015 2.43359 10.7015 4.53906L10.7015 14.1094C10.7015 16.2148 12.0687 17.623 14.0922 17.623ZM14.4066 15.5586C13.3675 15.5586 12.7797 14.957 12.7797 13.8359L12.7797 4.79883C12.7797 3.69141 13.3675 3.08984 14.4066 3.08984L31.4965 3.08984C32.5492 3.08984 33.1234 3.69141 33.1234 4.79883L33.1234 13.8359C33.1234 14.957 32.5492 15.5586 31.4965 15.5586ZM35.2015 14.1094L33.1234 13.8359L33.1234 17.4316C33.1234 21.0547 35.8168 23.5566 39.5355 23.5566C43.7738 23.5566 46.3988 20.918 45.8383 16.3652L44.6215 6.63086C44.1703 2.95312 42.0238 1.02539 38.2777 1.02539L31.8109 1.02539L33.8343 3.08984L38.2777 3.08984C40.807 3.08984 42.2562 4.38867 42.5707 6.84961L43.7875 16.5703C44.1703 19.7285 42.3793 21.4922 39.5355 21.4922C37.0472 21.4922 35.2015 19.8516 35.2015 17.4316ZM6.44958 19.3594C6.90075 19.3594 7.25622 19.0039 7.25622 18.5254L7.25622 17.1719L8.58239 17.1719C9.07458 17.1719 9.47106 16.8027 9.47106 16.3379C9.47106 15.873 9.07458 15.5176 8.58239 15.5176L7.25622 15.5176L7.25622 14.1641C7.25622 13.7129 6.90075 13.3438 6.44958 13.3438C5.99841 13.3438 5.65661 13.7129 5.65661 14.1641L5.65661 15.5176L4.23474 15.5176C3.76989 15.5176 3.41442 15.873 3.41442 16.3379C3.41442 16.8027 3.76989 17.1719 4.23474 17.1719L5.65661 17.1719L5.65661 18.5254C5.65661 19.0039 5.99841 19.3594 6.44958 19.3594ZM40.9574 16.4746C41.8187 16.4746 42.5023 15.791 42.5023 14.957C42.5023 14.1094 41.8187 13.4395 40.9574 13.4395C40.1097 13.4395 39.4535 14.1094 39.4535 14.957C39.4535 15.791 40.1097 16.4746 40.9574 16.4746ZM38.2093 19.25C39.0433 19.25 39.7269 18.5801 39.7269 17.7461C39.7269 16.8848 39.0433 16.2148 38.2093 16.2148C37.3617 16.2148 36.6918 16.8848 36.6918 17.7461C36.6918 18.5801 37.3617 19.25 38.2093 19.25Z" style="fill:var(--color-0,hsl(0 0 0/0.85))"></path>
 </g>
</svg>