<?xml version="1.0" encoding="UTF-8"?>
<!--Generator: Apple Native CoreSVG 326-->
<!DOCTYPE svg
PUBLIC "-//W3C//DTD SVG 1.1//EN"
       "http://www.w3.org/Graphics/SVG/1.1/DTD/svg11.dtd">
<svg version="1.1" xmlns="http://www.w3.org/2000/svg" xmlns:xlink="http://www.w3.org/1999/xlink" viewBox="0 0 28.2461 27.9043">
 <g>
  <rect height="27.9043" opacity="0" width="28.2461" x="0" y="0"/>
  <path d="M13.9453 27.8906C21.6426 27.8906 27.8906 21.6289 27.8906 13.9453C27.8906 6.24805 21.6426 0 13.9453 0C6.26172 0 0 6.24805 0 13.9453C0 21.6289 6.26172 27.8906 13.9453 27.8906Z" fill="white" fill-opacity="0.85"/>
  <path d="M20.0566 18.4434C20.0566 19.0312 19.7422 19.3184 19.1816 19.3184L17.6641 19.3184C17.1035 19.3184 16.7891 19.0312 16.7891 18.4434L16.7891 14.3691C16.6934 14.5879 16.5156 14.7793 16.2285 14.9434L9.50195 18.8945C9.25586 19.0449 9.00977 19.127 8.76367 19.127C8.23047 19.127 7.80664 18.7578 7.80664 18.0195L7.80664 9.91211C7.80664 9.1875 8.23047 8.80469 8.76367 8.80469C9.00977 8.80469 9.25586 8.88672 9.50195 9.03711L16.2285 12.9883C16.5156 13.1523 16.6934 13.3438 16.7891 13.5625L16.7891 9.44727C16.7891 8.85938 17.1035 8.57227 17.6641 8.57227L19.1816 8.57227C19.7422 8.57227 20.0566 8.87305 20.0566 9.44727Z" fill="white"/>
 </g>
</svg>
