<?xml version="1.0" encoding="UTF-8"?>
<!--Generator: Apple Native CoreSVG 326-->
<!DOCTYPE svg
PUBLIC "-//W3C//DTD SVG 1.1//EN"
       "http://www.w3.org/Graphics/SVG/1.1/DTD/svg11.dtd">
<svg version="1.1" xmlns="http://www.w3.org/2000/svg" xmlns:xlink="http://www.w3.org/1999/xlink" viewBox="0 0 28.2461 27.9043">
 <g>
  <rect height="27.9043" opacity="0" width="28.2461" x="0" y="0"/>
  <path d="M13.9453 27.8906C21.6426 27.8906 27.8906 21.6426 27.8906 13.9453C27.8906 6.24805 21.6426 0 13.9453 0C6.24805 0 0 6.24805 0 13.9453C0 21.6426 6.24805 27.8906 13.9453 27.8906ZM13.9453 25.5664C7.51953 25.5664 2.32422 20.3711 2.32422 13.9453C2.32422 7.51953 7.51953 2.32422 13.9453 2.32422C20.3711 2.32422 25.5664 7.51953 25.5664 13.9453C25.5664 20.3711 20.3711 25.5664 13.9453 25.5664Z" fill="white" fill-opacity="0.85"/>
  <path d="M15.8184 18.9766C16.0781 18.9766 16.2969 18.8945 16.5566 18.7441L23.0781 14.9023C23.5156 14.6426 23.7207 14.3145 23.7207 13.959C23.7207 13.6035 23.5156 13.2754 23.0781 13.0156L16.5566 9.17383C16.2969 9.02344 16.0781 8.94141 15.8184 8.94141C15.3262 8.94141 14.9023 9.32422 14.9023 10.0215L14.9023 17.8965C14.9023 18.5938 15.3262 18.9766 15.8184 18.9766ZM7.04102 18.9766C7.30078 18.9766 7.5332 18.8945 7.7793 18.7441L14.3008 14.9023C14.752 14.6426 14.9434 14.3145 14.9434 13.959C14.9434 13.6035 14.752 13.2754 14.3008 13.0156L7.7793 9.17383C7.5332 9.02344 7.30078 8.94141 7.04102 8.94141C6.54883 8.94141 6.13867 9.32422 6.13867 10.0215L6.13867 17.8965C6.13867 18.5938 6.54883 18.9766 7.04102 18.9766Z" fill="white" fill-opacity="0.85"/>
 </g>
</svg>
