<?xml version="1.0" encoding="UTF-8"?>
<!--Generator: Apple Native CoreSVG 326-->
<!DOCTYPE svg
PUBLIC "-//W3C//DTD SVG 1.1//EN"
       "http://www.w3.org/Graphics/SVG/1.1/DTD/svg11.dtd">
<svg version="1.1" xmlns="http://www.w3.org/2000/svg" xmlns:xlink="http://www.w3.org/1999/xlink" viewBox="0 0 28.2461 27.9043">
 <g>
  <rect height="27.9043" opacity="0" width="28.2461" x="0" y="0"/>
  <path d="M13.9453 27.8906C21.6426 27.8906 27.8906 21.6426 27.8906 13.9453C27.8906 6.24805 21.6426 0 13.9453 0C6.24805 0 0 6.24805 0 13.9453C0 21.6426 6.24805 27.8906 13.9453 27.8906ZM13.9453 25.5664C7.51953 25.5664 2.32422 20.3711 2.32422 13.9453C2.32422 7.51953 7.51953 2.32422 13.9453 2.32422C20.3711 2.32422 25.5664 7.51953 25.5664 13.9453C25.5664 20.3711 20.3711 25.5664 13.9453 25.5664Z" fill="white" fill-opacity="0.85"/>
  <path d="M8.91406 18.9766C9.16016 18.9766 9.39258 18.8945 9.63867 18.7441L16.1602 14.916C16.6113 14.6562 16.8027 14.3281 16.8027 13.959C16.8027 13.6035 16.6113 13.2754 16.1602 13.0156L9.63867 9.1875C9.39258 9.03711 9.16016 8.95508 8.91406 8.95508C8.4082 8.95508 7.99805 9.32422 7.99805 10.0352L7.99805 17.8965C7.99805 18.6074 8.4082 18.9766 8.91406 18.9766ZM19.0176 19.1543C19.5645 19.1543 19.8652 18.8809 19.8652 18.3203L19.8652 9.58398C19.8652 9.02344 19.5645 8.73633 19.0176 8.73633L17.5547 8.73633C17.0078 8.73633 16.707 9.00977 16.707 9.58398L16.707 18.3203C16.707 18.8809 17.0078 19.1543 17.5547 19.1543Z" fill="white" fill-opacity="0.85"/>
 </g>
</svg>
