<?xml version="1.0" encoding="UTF-8"?>
<!--Generator: Apple Native CoreSVG 326-->
<!DOCTYPE svg
PUBLIC "-//W3C//DTD SVG 1.1//EN"
       "http://www.w3.org/Graphics/SVG/1.1/DTD/svg11.dtd">
<svg version="1.1" xmlns="http://www.w3.org/2000/svg" xmlns:xlink="http://www.w3.org/1999/xlink" viewBox="0 0 39.7031 20.9043">
 <g>
  <rect height="20.9043" opacity="0" width="39.7031" x="0" y="0"/>
  <path d="M2.55664 18.9902C2.55664 20.2754 3.30859 20.8906 4.18359 20.8906C4.58008 20.8906 4.97656 20.7676 5.37305 20.5488L19.7422 12.1816C20.7676 11.5801 21.1641 11.1289 21.1641 10.4453C21.1641 9.76172 20.7676 9.31055 19.7422 8.70898L5.37305 0.341797C4.97656 0.109375 4.58008 0 4.18359 0C3.30859 0 2.55664 0.601562 2.55664 1.88672ZM21.0957 18.9902C21.0957 20.2754 21.834 20.8906 22.7227 20.8906C23.1055 20.8906 23.5156 20.7676 23.9121 20.5488L38.2676 12.1816C39.3066 11.5801 39.7031 11.1289 39.7031 10.4453C39.7031 9.76172 39.3066 9.31055 38.2676 8.70898L23.9121 0.341797C23.5156 0.109375 23.1055 0 22.7227 0C21.834 0 21.0957 0.601562 21.0957 1.88672Z" fill="white" fill-opacity="0.85"/>
 </g>
</svg>
