<svg version="1.1" xmlns="http://www.w3.org/2000/svg" xmlns:xlink="http://www.w3.org/1999/xlink" viewBox="0 0 25.5254 25.1699">
 <g>
  
  <path d="M4.29297 25.1699L20.877 25.1699C23.748 25.1699 25.1699 23.7617 25.1699 20.9453L25.1699 4.23828C25.1699 1.42188 23.748 0 20.877 0L4.29297 0C1.43555 0 0 1.42188 0 4.23828L0 20.9453C0 23.7617 1.43555 25.1699 4.29297 25.1699Z" style="fill:var(--color-0,hsl(0 0 0/0.85))"></path>
  <path d="M10.2129 19.1543C9.69336 19.1543 9.35156 18.7988 9.35156 18.293L9.35156 16.8027L7.99805 16.8027C7.73828 16.8027 7.5332 16.6113 7.5332 16.3379C7.5332 16.0781 7.73828 15.873 7.99805 15.873L9.35156 15.873L9.35156 7.17773C9.35156 6.63086 9.67969 6.30273 10.2129 6.30273L16.2012 6.30273C16.6523 6.30273 16.9668 6.61719 16.9668 7.05469C16.9668 7.46484 16.6523 7.7793 16.2012 7.7793L11.0469 7.7793L11.0469 11.8672L15.709 11.8672C16.1465 11.8672 16.4746 12.168 16.4746 12.5781C16.4746 13.002 16.1465 13.3027 15.709 13.3027L11.0469 13.3027L11.0469 15.873L14.0547 15.873C14.3281 15.873 14.5195 16.0781 14.5195 16.3379C14.5195 16.6113 14.3281 16.8027 14.0547 16.8027L11.0469 16.8027L11.0469 18.293C11.0469 18.7988 10.6914 19.1543 10.2129 19.1543Z" style="fill:var(--color-1,white)"></path>
 </g>
</svg>