<svg version="1.1" xmlns="http://www.w3.org/2000/svg" xmlns:xlink="http://www.w3.org/1999/xlink" viewBox="0 0 28.2461 27.9043">
 <g>
  
  <path d="M13.9453 27.8906C21.6426 27.8906 27.8906 21.6426 27.8906 13.9453C27.8906 6.24805 21.6426 0 13.9453 0C6.24805 0 0 6.24805 0 13.9453C0 21.6426 6.24805 27.8906 13.9453 27.8906ZM13.9453 25.5664C7.51953 25.5664 2.32422 20.3711 2.32422 13.9453C2.32422 7.51953 7.51953 2.32422 13.9453 2.32422C20.3711 2.32422 25.5664 7.51953 25.5664 13.9453C25.5664 20.3711 20.3711 25.5664 13.9453 25.5664Z" style="fill:var(--color-0,hsl(0 0 0/0.85))"></path>
  <path d="M11.6074 20.3164C12.0723 20.3164 12.4141 19.9746 12.4141 19.4961L12.4141 18.0469L15.3398 18.0469C15.5996 18.0469 15.791 17.8555 15.791 17.5957C15.791 17.3359 15.5996 17.1445 15.3398 17.1445L12.4141 17.1445L12.4141 14.6426L16.9395 14.6426C17.3633 14.6426 17.6641 14.3555 17.6641 13.9453C17.6641 13.5488 17.3633 13.2617 16.9395 13.2617L12.4141 13.2617L12.4141 9.29688L17.418 9.29688C17.8555 9.29688 18.1562 8.99609 18.1562 8.59961C18.1562 8.17578 17.8555 7.875 17.418 7.875L11.6074 7.875C11.1016 7.875 10.7871 8.18945 10.7871 8.70898L10.7871 17.1445L9.47461 17.1445C9.20117 17.1445 9.00977 17.3359 9.00977 17.5957C9.00977 17.8555 9.20117 18.0469 9.47461 18.0469L10.7871 18.0469L10.7871 19.4961C10.7871 19.9746 11.1152 20.3164 11.6074 20.3164Z" style="fill:var(--color-1,hsl(0 0 0/0.85))"></path>
 </g>
</svg>