<?xml version="1.0" encoding="UTF-8"?>
<!--Generator: Apple Native CoreSVG 326-->
<!DOCTYPE svg
PUBLIC "-//W3C//DTD SVG 1.1//EN"
       "http://www.w3.org/Graphics/SVG/1.1/DTD/svg11.dtd">
<svg version="1.1" xmlns="http://www.w3.org/2000/svg" xmlns:xlink="http://www.w3.org/1999/xlink" viewBox="0 0 25.5254 25.1699">
 <g>
  <rect height="25.1699" opacity="0" width="25.5254" x="0" y="0"/>
  <path d="M4.29297 25.1699L20.877 25.1699C23.748 25.1699 25.1699 23.7617 25.1699 20.9453L25.1699 4.23828C25.1699 1.42188 23.748 0 20.877 0L4.29297 0C1.43555 0 0 1.42188 0 4.23828L0 20.9453C0 23.7617 1.43555 25.1699 4.29297 25.1699ZM4.32031 22.9688C2.95312 22.9688 2.20117 22.2441 2.20117 20.8223L2.20117 4.36133C2.20117 2.93945 2.95312 2.20117 4.32031 2.20117L20.8496 2.20117C22.2031 2.20117 22.9688 2.93945 22.9688 4.36133L22.9688 20.8223C22.9688 22.2441 22.2031 22.9688 20.8496 22.9688Z" fill="white" fill-opacity="0.85"/>
  <path d="M10.2676 18.9492C10.7324 18.9492 11.0742 18.6074 11.0742 18.1289L11.0742 16.6797L14 16.6797C14.2598 16.6797 14.4512 16.4883 14.4512 16.2285C14.4512 15.9688 14.2598 15.7773 14 15.7773L11.0742 15.7773L11.0742 13.2754L15.5996 13.2754C16.0234 13.2754 16.3379 12.9883 16.3379 12.5781C16.3379 12.1816 16.0234 11.8945 15.5996 11.8945L11.0742 11.8945L11.0742 7.92969L16.0781 7.92969C16.5156 7.92969 16.8164 7.62891 16.8164 7.23242C16.8164 6.80859 16.5156 6.50781 16.0781 6.50781L10.2676 6.50781C9.76172 6.50781 9.44727 6.82227 9.44727 7.3418L9.44727 15.7773L8.13477 15.7773C7.875 15.7773 7.68359 15.9688 7.68359 16.2285C7.68359 16.4883 7.875 16.6797 8.13477 16.6797L9.44727 16.6797L9.44727 18.1289C9.44727 18.6074 9.77539 18.9492 10.2676 18.9492Z" fill="white" fill-opacity="0.85"/>
 </g>
</svg>
