<svg version="1.1" xmlns="http://www.w3.org/2000/svg" xmlns:xlink="http://www.w3.org/1999/xlink" viewBox="0 0 28.2461 27.9043">
 <g>
  
  <path d="M13.9453 27.8906C21.6426 27.8906 27.8906 21.6289 27.8906 13.9453C27.8906 6.24805 21.6426 0 13.9453 0C6.26172 0 0 6.24805 0 13.9453C0 21.6289 6.26172 27.8906 13.9453 27.8906Z" style="fill:var(--color-0,hsl(0 0 0/0.85))"></path>
  <path d="M11.5664 20.5215C11.0469 20.5215 10.7051 20.166 10.7051 19.6602L10.7051 18.1699L9.35156 18.1699C9.07812 18.1699 8.88672 17.9785 8.88672 17.7051C8.88672 17.4453 9.07812 17.2402 9.35156 17.2402L10.7051 17.2402L10.7051 8.54492C10.7051 7.99805 11.0332 7.66992 11.5664 7.66992L17.5547 7.66992C18.0059 7.66992 18.3203 7.98438 18.3203 8.42188C18.3203 8.83203 18.0059 9.14648 17.5547 9.14648L12.4004 9.14648L12.4004 13.2344L17.0625 13.2344C17.5 13.2344 17.8145 13.5352 17.8145 13.9453C17.8145 14.3691 17.5 14.6699 17.0625 14.6699L12.4004 14.6699L12.4004 17.2402L15.4082 17.2402C15.6816 17.2402 15.873 17.4453 15.873 17.7051C15.873 17.9785 15.6816 18.1699 15.4082 18.1699L12.4004 18.1699L12.4004 19.6602C12.4004 20.166 12.0449 20.5215 11.5664 20.5215Z" style="fill:var(--color-1,white)"></path>
 </g>
</svg>