<svg version="1.1" xmlns="http://www.w3.org/2000/svg" xmlns:xlink="http://www.w3.org/1999/xlink" viewBox="0 0 33.5408 27.9043">
 <g>
  
  <path d="M16.5995 27.8906C24.2968 27.8906 30.5448 21.6426 30.5448 13.9453C30.5448 6.24805 24.2968 0 16.5995 0C8.90224 0 2.65419 6.24805 2.65419 13.9453L4.97841 13.9453C4.97841 7.51953 10.1737 2.32422 16.5995 2.32422C23.0253 2.32422 28.2206 7.51953 28.2206 13.9453C28.2206 20.3711 23.0253 25.5664 16.5995 25.5664C12.7167 25.5664 9.2577 23.6523 7.19325 20.7539C6.76942 20.1934 6.12684 20.0156 5.55263 20.3574C5.00575 20.6992 4.84169 21.4648 5.30653 22.0664C7.83583 25.6074 11.9784 27.8906 16.5995 27.8906ZM0.972548 11.3066C-0.0118272 11.3066-0.257921 11.9766 0.275282 12.7422L3.33778 17.0898C3.78895 17.7188 4.4452 17.7051 4.8827 17.0898L7.93153 12.7285C8.46474 11.9766 8.20497 11.3066 7.24794 11.3066Z" style="fill:var(--color-0,hsl(0 0 0/0.85))"></path>
  <path d="M14.2753 20.3164C14.7401 20.3164 15.0819 19.9746 15.0819 19.4961L15.0819 18.0469L18.0077 18.0469C18.2675 18.0469 18.4589 17.8555 18.4589 17.5957C18.4589 17.3359 18.2675 17.1445 18.0077 17.1445L15.0819 17.1445L15.0819 14.6426L19.6073 14.6426C20.0311 14.6426 20.3319 14.3555 20.3319 13.9453C20.3319 13.5488 20.0311 13.2617 19.6073 13.2617L15.0819 13.2617L15.0819 9.29688L20.0858 9.29688C20.5233 9.29688 20.8241 8.99609 20.8241 8.59961C20.8241 8.17578 20.5233 7.875 20.0858 7.875L14.2753 7.875C13.7694 7.875 13.455 8.18945 13.455 8.70898L13.455 17.1445L12.1425 17.1445C11.869 17.1445 11.6776 17.3359 11.6776 17.5957C11.6776 17.8555 11.869 18.0469 12.1425 18.0469L13.455 18.0469L13.455 19.4961C13.455 19.9746 13.7831 20.3164 14.2753 20.3164Z" style="fill:var(--color-1,hsl(0 0 0/0.85))"></path>
 </g>
</svg>