<svg version="1.1" xmlns="http://www.w3.org/2000/svg" xmlns:xlink="http://www.w3.org/1999/xlink" viewBox="0 0 42.8613 27.4668">
 <g>
  
  <path d="M0 15.2988C0 22.5996 6.86328 27.4668 17.2402 27.4668C27.6309 27.4668 34.4941 22.5996 34.4941 15.2988C34.4941 12.2363 27.3984 9.74805 17.2402 9.74805C7.0957 9.74805 0 12.2363 0 15.2988ZM2.20117 15.2988C2.20117 13.8223 9.36523 11.8125 17.2402 11.8125C25.1152 11.8125 32.293 13.8223 32.293 15.2988C32.293 16.7207 25.5664 18.6074 17.2402 18.6074C8.91406 18.6074 2.20117 16.7207 2.20117 15.2988ZM2.625 18.0469C5.31836 19.6465 11.1562 20.8086 17.2402 20.8086C23.3379 20.8086 29.1758 19.6465 31.8691 18.0469C30.7344 22.3945 24.9238 25.2656 17.2402 25.2656C9.57031 25.2656 3.75977 22.3945 2.625 18.0469ZM31.6367 14.1094L40.7695 8.51758C44.8711 6.0293 41.0566 0.0136719 36.1484 3.52734L25.2246 11.3887L27.5352 12.0039L37.7207 5.05859C39.7168 3.67773 40.9746 5.79688 39.416 6.76758L29.709 12.7832ZM9.29688 18.9355L24.0215 18.9902C24.0352 16.1465 21.6973 14.2871 19.0039 14.2871C17.2266 14.2871 15.668 15.0801 14.752 16.3105C14.2734 16.1465 13.8359 16.0781 13.3027 16.0781C11.3066 16.0781 9.65234 17.3223 9.29688 18.9355Z" style="fill:var(--color-0,hsl(0 0 0/0.85))"></path>
 </g>
</svg>