<svg version="1.1" xmlns="http://www.w3.org/2000/svg" xmlns:xlink="http://www.w3.org/1999/xlink" viewBox="0 0 36.832 30.502">
 <g>
  
  <path d="M34.6855 24.418C35.6562 24.418 36.4766 23.625 36.4766 22.6953C36.4766 21.752 35.6699 20.9727 34.6855 20.9727C33.6875 20.9727 32.8809 21.752 32.8809 22.6953C32.8809 23.625 33.7012 24.418 34.6855 24.418ZM34.6855 18.3477C35.3555 18.3477 35.8203 17.8828 35.8477 17.1855L36.1348 7.50586C36.1621 6.63086 35.5742 6.04297 34.6855 6.04297C33.7832 6.04297 33.1953 6.63086 33.2227 7.50586L33.5098 17.1855C33.5371 17.8828 34.0156 18.3477 34.6855 18.3477Z" style="fill:var(--color-0,hsl(0 0 0/0.85))"></path>
  <path d="M20.084 29.4629L20.084 3.47266C20.084 1.23047 18.8535 0 16.625 0L5.60547 0C3.34961 0 2.16016 1.23047 2.16016 3.47266L2.16016 29.4629ZM6.04297 12.3867C5.05859 12.3867 4.45703 11.8398 4.45703 10.9238L4.45703 3.78711C4.45703 2.85742 5.05859 2.29688 6.04297 2.29688L16.1875 2.29688C17.1719 2.29688 17.7871 2.85742 17.7871 3.78711L17.7871 10.9238C17.7871 11.8398 17.1719 12.3867 16.1875 12.3867ZM0 29.3672C0 29.9824 0.478516 30.4883 1.08008 30.4883L21.1367 30.4883C21.7383 30.4883 22.2441 29.9824 22.2441 29.3672C22.2441 28.7793 21.7383 28.2871 21.1367 28.2871L1.08008 28.2871C0.492188 28.2871 0 28.7656 0 29.3672ZM25.2383 27.0703C27.7402 27.0703 29.1484 25.4023 29.1484 22.4492C29.1484 19.0176 28.4785 15.0664 27.1934 8.8457L26.8926 7.41016C26.6191 6.05664 26.1953 4.96289 25.3887 3.95117L23.8574 2.02344C23.1602 1.14844 21.8066 2.16016 22.5586 3.10352L24.4863 5.52344C24.623 5.6875 24.623 5.90625 24.5137 6.09766L23.3652 8.23047C23.0645 8.80469 23.1191 9.1875 23.6113 9.7207L26.1543 12.4277C27.0156 16.3105 27.4941 19.7559 27.4941 22.4492C27.4941 24.3496 26.6875 25.4023 25.2383 25.4023C23.9941 25.4023 23.1738 24.582 23.1738 23.2285C23.1738 21.2188 23.502 18.5527 23.502 16.1055C23.502 13.7129 22.3262 11.8945 19.4277 10.9375L18.7578 12.4414C20.959 13.1113 21.8477 14.4648 21.8477 16.1055C21.8477 18.293 21.5195 20.959 21.5195 23.2285C21.5195 25.5938 22.9688 27.0703 25.2383 27.0703Z" style="fill:var(--color-1,hsl(0 0 0/0.85))"></path>
 </g>
</svg>