<?xml version="1.0" encoding="UTF-8"?>
<!--Generator: Apple Native CoreSVG 326-->
<!DOCTYPE svg
PUBLIC "-//W3C//DTD SVG 1.1//EN"
       "http://www.w3.org/Graphics/SVG/1.1/DTD/svg11.dtd">
<svg version="1.1" xmlns="http://www.w3.org/2000/svg" xmlns:xlink="http://www.w3.org/1999/xlink" viewBox="0 0 36.8525 37.2423">
 <g>
  <rect height="37.2423" opacity="0" width="36.8525" x="0" y="0"/>
  <path d="M8.88586 15.0031L8.87708 31.6709L22.9585 31.6709L22.9585 29.0562L25.1597 31.2543L25.1597 31.6709L25.5768 31.6709L27.1887 33.2806C27.0036 33.6317 26.6408 33.8721 26.2261 33.8721L5.60889 33.8721C5.00732 33.8721 4.51514 33.3662 4.51514 32.751C4.51514 32.1494 5.021 31.6709 5.60889 31.6709L6.68896 31.6709L6.68896 12.8092ZM28.9331 5.39359L30.478 7.32132C31.2847 8.33304 31.6948 9.42679 31.9819 10.7803L32.2827 12.2159C33.5542 18.4366 34.2241 22.3877 34.2241 25.8194C34.2241 28.1972 33.3111 29.7418 31.6551 30.2515L30.1689 28.7659C30.2202 28.771 30.2735 28.7725 30.3276 28.7725C31.7632 28.7725 32.5698 27.7198 32.5698 25.8194C32.5698 23.126 32.0913 19.6807 31.23 15.7979L28.687 13.0909C28.2085 12.5577 28.1538 12.1748 28.4546 11.6006L29.603 9.46781C29.7124 9.2764 29.6987 9.05765 29.5757 8.89359L27.6479 6.47367C26.896 5.53031 28.2358 4.51859 28.9331 5.39359ZM25.1597 6.84281L25.1597 14.5499C27.5787 15.5529 28.5776 17.2703 28.5776 19.4756C28.5776 21.9229 28.2495 24.5889 28.2495 26.5987C28.2495 26.6877 28.2531 26.7744 28.2605 26.8585L26.6302 25.2289C26.7108 23.3071 26.9233 21.2363 26.9233 19.4756C26.9233 18.2129 26.405 17.1203 25.1597 16.38L25.1597 23.7591L22.9585 21.5589L22.9585 6.87015C22.9585 6.00882 22.5073 5.57132 21.6597 5.57132L10.1753 5.57132C9.30029 5.57132 8.89014 6.02249 8.89014 6.87015L8.88981 7.49671L6.87352 5.48136C7.28199 4.10668 8.38897 3.37015 10.1343 3.37015L21.7007 3.37015C23.9429 3.37015 25.1597 4.60062 25.1597 6.84281ZM21.6323 7.70414L21.6323 14.9502C21.6323 15.4151 21.2905 15.7569 20.8257 15.7569L17.1538 15.7569L10.2026 8.80894L10.2026 7.70414C10.2026 7.23929 10.5444 6.89749 11.0093 6.89749L20.8257 6.89749C21.2905 6.89749 21.6323 7.23929 21.6323 7.70414Z" fill="white" fill-opacity="0.85"/>
  <path d="M31.5034 35.3487C31.9272 35.7588 32.5972 35.7588 32.9937 35.3487C33.4038 34.9248 33.4175 34.2549 32.9937 33.8448L3.39404 4.27249C2.98389 3.86234 2.31396 3.86234 1.89014 4.27249C1.49365 4.66898 1.49365 5.36624 1.89014 5.76273Z" fill="white" fill-opacity="0.85"/>
 </g>
</svg>
