<svg version="1.1" xmlns="http://www.w3.org/2000/svg" xmlns:xlink="http://www.w3.org/1999/xlink" viewBox="0 0 39.9835 30.502">
 <g>
  
  <path d="M12.0894 29.4766L14.2769 29.4766L14.2906 3.5C14.2906 2.65234 14.7007 2.20117 15.5757 2.20117L27.0601 2.20117C27.9078 2.20117 28.359 2.63867 28.359 3.5L28.359 29.4766L30.5738 29.4766L30.5738 3.47266C30.5738 1.23047 29.3433 0 27.1011 0L15.5347 0C13.2789 0 12.0894 1.23047 12.0894 3.47266ZM16.4097 12.3867L26.2261 12.3867C26.691 12.3867 27.0328 12.0449 27.0328 11.5801L27.0328 4.33398C27.0328 3.86914 26.691 3.52734 26.2261 3.52734L16.4097 3.52734C15.9449 3.52734 15.6031 3.86914 15.6031 4.33398L15.6031 11.5801C15.6031 12.0449 15.9449 12.3867 16.4097 12.3867ZM9.91559 29.3809C9.91559 29.9961 10.4078 30.502 11.0093 30.502L31.6265 30.502C32.2281 30.502 32.734 29.9961 32.734 29.3809C32.734 28.793 32.2281 28.3008 31.6265 28.3008L11.0093 28.3008C10.4215 28.3008 9.91559 28.7793 9.91559 29.3809ZM35.7281 27.0703C38.2164 27.0703 39.6246 25.4023 39.6246 22.4492C39.6246 19.0176 38.9547 15.0664 37.6832 8.8457L37.3824 7.41016C37.0953 6.05664 36.6851 4.96289 35.8785 3.95117L34.3336 2.02344C33.6363 1.14844 32.2965 2.16016 33.0484 3.10352L34.9761 5.52344C35.0992 5.6875 35.1129 5.90625 35.0035 6.09766L33.855 8.23047C33.5543 8.80469 33.609 9.1875 34.0875 9.7207L36.6304 12.4277C37.4918 16.3105 37.984 19.7559 37.984 22.4492C37.984 24.3496 37.1773 25.4023 35.7281 25.4023C34.4703 25.4023 33.65 24.582 33.65 23.2285C33.65 21.2188 33.9781 18.5527 33.9781 16.1055C33.9781 13.7129 32.8023 11.8945 29.9175 10.9375L29.2476 12.4414C31.4488 13.1113 32.3375 14.4648 32.3375 16.1055C32.3375 18.293 32.0093 20.959 32.0093 23.2285C32.0093 25.5938 33.4586 27.0703 35.7281 27.0703Z" style="fill:var(--color-0,hsl(0 0 0/0.85))"></path>
  <path d="M0.399968 14.5742C-0.119563 14.875-0.146907 15.5996 0.399968 15.9141L7.42731 20.0566C8.00153 20.3984 8.67145 20.125 8.67145 19.5371L8.67145 10.9238C8.67145 10.3496 7.96051 10.0898 7.42731 10.4043Z" style="fill:var(--color-1,hsl(0 0 0/0.85))"></path>
 </g>
</svg>