<svg version="1.1" xmlns="http://www.w3.org/2000/svg" xmlns:xlink="http://www.w3.org/1999/xlink" viewBox="0 0 30.3516 20.2207">
 <g>
  
  <path d="M15.4355 20.2207C15.9004 20.2207 16.1602 20.0703 16.502 19.5781L21.9707 12.1133L22.0527 12.1133L27.4668 19.5918C27.7949 20.0566 28.0957 20.2207 28.5879 20.2207C29.3125 20.2207 29.832 19.7148 29.832 19.0176C29.832 18.7168 29.7363 18.3887 29.5312 18.1426L23.6113 10.1445L29.6953 1.99609C29.8867 1.73633 29.9961 1.44922 29.9961 1.16211C29.9961 0.519531 29.4629 0 28.8203 0C28.3145 0 28.0273 0.164062 27.6855 0.65625L22.2305 8.2168L22.1484 8.2168L16.7207 0.65625C16.3652 0.150391 16.1055 0 15.5723 0C14.8477 0 14.3145 0.492188 14.3145 1.17578C14.3145 1.47656 14.4238 1.77734 14.6152 2.05078L20.4941 10.0625L14.5195 18.2109C14.3145 18.4844 14.2051 18.7715 14.2051 19.0586C14.2051 19.7148 14.752 20.2207 15.4355 20.2207Z" style="fill:var(--color-0,hsl(0 0 0/0.85))"></path>
  <path d="M1.24414 20.166C2.02344 20.166 2.5293 19.6738 2.5293 18.8945L2.5293 11.416L10.5547 11.416C11.2109 11.416 11.7031 10.9922 11.7031 10.3223C11.7031 9.63867 11.2109 9.21484 10.5547 9.21484L2.5293 9.21484L2.5293 2.54297L11.334 2.54297C12.0176 2.54297 12.5098 2.11914 12.5098 1.42188C12.5098 0.724609 12.0176 0.287109 11.334 0.287109L1.23047 0.287109C0.478516 0.287109 0 0.779297 0 1.54492L0 18.8945C0 19.6738 0.478516 20.166 1.24414 20.166Z" style="fill:var(--color-1,hsl(0 0 0/0.85))"></path>
 </g>
</svg>