<svg version="1.1" xmlns="http://www.w3.org/2000/svg" xmlns:xlink="http://www.w3.org/1999/xlink" viewBox="0 0 25.5254 25.1699">
 <g>
  
  <path d="M4.29297 25.1699L20.877 25.1699C23.748 25.1699 25.1699 23.7617 25.1699 20.9453L25.1699 4.23828C25.1699 1.42188 23.748 0 20.877 0L4.29297 0C1.43555 0 0 1.42188 0 4.23828L0 20.9453C0 23.7617 1.43555 25.1699 4.29297 25.1699Z" style="fill:var(--color-0,hsl(0 0 0/0.85))"></path>
  <path d="M12.6602 19.2637C8.92773 19.2637 6.5625 16.625 6.5625 12.4551C6.5625 8.29883 8.92773 5.63281 12.6055 5.63281C15.2715 5.63281 17.1445 6.95898 17.8281 8.75C17.9238 8.98242 17.9648 9.16016 17.9648 9.40625C17.9648 10.0078 17.582 10.3906 16.9805 10.3906C16.543 10.3906 16.2695 10.1719 16.0371 9.69336C15.4492 8.28516 14.2598 7.51953 12.6465 7.51953C10.377 7.51953 8.85938 9.50195 8.85938 12.4551C8.85938 15.4219 10.3906 17.3906 12.6875 17.3906C14.834 17.3906 15.9414 16.2695 15.9414 14.6016L15.9414 13.6719L13.3301 13.6719C12.8105 13.6719 12.4961 13.2891 12.4961 12.8516C12.4961 12.373 12.8105 12.0312 13.3301 12.0312L16.9941 12.0312C17.7461 12.0312 18.1973 12.4824 18.1973 13.2617L18.1973 14.3008C18.1973 17.2266 16.1465 19.2637 12.6602 19.2637Z" style="fill:var(--color-1,white)"></path>
 </g>
</svg>