<svg version="1.1" xmlns="http://www.w3.org/2000/svg" xmlns:xlink="http://www.w3.org/1999/xlink" viewBox="0 0 28.2461 27.9043">
 <g>
  
  <path d="M13.9453 27.8906C21.6426 27.8906 27.8906 21.6426 27.8906 13.9453C27.8906 6.24805 21.6426 0 13.9453 0C6.24805 0 0 6.24805 0 13.9453C0 21.6426 6.24805 27.8906 13.9453 27.8906ZM13.9453 25.5664C7.51953 25.5664 2.32422 20.3711 2.32422 13.9453C2.32422 7.51953 7.51953 2.32422 13.9453 2.32422C20.3711 2.32422 25.5664 7.51953 25.5664 13.9453C25.5664 20.3711 20.3711 25.5664 13.9453 25.5664Z" style="fill:var(--color-0,hsl(0 0 0/0.85))"></path>
  <path d="M6.09766 15.1211C6.74023 15.1211 7.27344 14.5879 7.27344 13.9453C7.27344 13.3027 6.74023 12.7695 6.09766 12.7695C5.45508 12.7695 4.92188 13.3027 4.92188 13.9453C4.92188 14.5879 5.45508 15.1211 6.09766 15.1211ZM8.38086 9.625C9.02344 9.625 9.55664 9.0918 9.55664 8.44922C9.55664 7.79297 9.02344 7.27344 8.38086 7.27344C7.73828 7.27344 7.20508 7.79297 7.20508 8.44922C7.20508 9.0918 7.73828 9.625 8.38086 9.625ZM13.9316 7.27344C14.5742 7.27344 15.1074 6.74023 15.1074 6.09766C15.1074 5.45508 14.5742 4.92188 13.9316 4.92188C13.2891 4.92188 12.7559 5.45508 12.7559 6.09766C12.7559 6.74023 13.2891 7.27344 13.9316 7.27344ZM19.4824 9.625C20.125 9.625 20.6582 9.0918 20.6582 8.44922C20.6582 7.79297 20.125 7.27344 19.4824 7.27344C18.8398 7.27344 18.3066 7.79297 18.3066 8.44922C18.3066 9.0918 18.8398 9.625 19.4824 9.625ZM21.793 15.1211C22.4355 15.1211 22.9688 14.5879 22.9688 13.9453C22.9688 13.3027 22.4355 12.7695 21.793 12.7695C21.1504 12.7695 20.6172 13.3027 20.6172 13.9453C20.6172 14.5879 21.1504 15.1211 21.793 15.1211ZM19.4824 20.6172C20.125 20.6172 20.6582 20.084 20.6582 19.4414C20.6582 18.7988 20.125 18.2656 19.4824 18.2656C18.8398 18.2656 18.3066 18.7988 18.3066 19.4414C18.3066 20.084 18.8398 20.6172 19.4824 20.6172ZM16.0781 11.7988C15.1895 10.8965 13.8906 10.8965 13.002 11.7988C12.8379 11.9629 12.5781 12.3184 12.4141 12.5371L7.82031 19.168C7.58789 19.4961 7.65625 19.8242 7.84766 20.0293C8.05273 20.2207 8.38086 20.2891 8.70898 20.0566L15.3398 15.4629C15.5586 15.2988 15.9141 15.0391 16.0781 14.875C16.9805 13.9863 16.9805 12.6875 16.0781 11.7988Z" style="fill:var(--color-1,hsl(0 0 0/0.85))"></path>
 </g>
</svg>