<svg version="1.1" xmlns="http://www.w3.org/2000/svg" xmlns:xlink="http://www.w3.org/1999/xlink" viewBox="0 0 28.2461 27.9043">
 <g>
  
  <path d="M13.9453 27.8906C21.6426 27.8906 27.8906 21.6426 27.8906 13.9453C27.8906 6.24805 21.6426 0 13.9453 0C6.24805 0 0 6.24805 0 13.9453C0 21.6426 6.24805 27.8906 13.9453 27.8906ZM13.9453 25.5664C7.51953 25.5664 2.32422 20.3711 2.32422 13.9453C2.32422 7.51953 7.51953 2.32422 13.9453 2.32422C20.3711 2.32422 25.5664 7.51953 25.5664 13.9453C25.5664 20.3711 20.3711 25.5664 13.9453 25.5664Z" style="fill:var(--color-0,hsl(0 0 0/0.85))"></path>
  <path d="M8.4082 20.6172C9.05078 20.6172 9.58398 20.084 9.58398 19.4414C9.58398 18.7988 9.05078 18.2656 8.4082 18.2656C7.76562 18.2656 7.23242 18.7988 7.23242 19.4414C7.23242 20.084 7.76562 20.6172 8.4082 20.6172ZM6.09766 15.1211C6.74023 15.1211 7.27344 14.5879 7.27344 13.9453C7.27344 13.3027 6.74023 12.7695 6.09766 12.7695C5.45508 12.7695 4.92188 13.3027 4.92188 13.9453C4.92188 14.5879 5.45508 15.1211 6.09766 15.1211ZM8.4082 9.625C9.05078 9.625 9.58398 9.0918 9.58398 8.44922C9.58398 7.79297 9.05078 7.27344 8.4082 7.27344C7.76562 7.27344 7.23242 7.79297 7.23242 8.44922C7.23242 9.0918 7.76562 9.625 8.4082 9.625ZM19.4824 9.625C20.125 9.625 20.6582 9.0918 20.6582 8.44922C20.6582 7.79297 20.125 7.27344 19.4824 7.27344C18.8398 7.27344 18.3066 7.79297 18.3066 8.44922C18.3066 9.0918 18.8398 9.625 19.4824 9.625ZM21.793 15.1211C22.4355 15.1211 22.9688 14.5879 22.9688 13.9453C22.9688 13.3027 22.4355 12.7695 21.793 12.7695C21.1504 12.7695 20.6172 13.3027 20.6172 13.9453C20.6172 14.5879 21.1504 15.1211 21.793 15.1211ZM19.4824 20.6172C20.125 20.6172 20.6582 20.084 20.6582 19.4414C20.6582 18.7988 20.125 18.2656 19.4824 18.2656C18.8398 18.2656 18.3066 18.7988 18.3066 19.4414C18.3066 20.084 18.8398 20.6172 19.4824 20.6172ZM13.9453 17.2402C15.2168 17.2402 16.1191 16.3242 16.1191 15.0664C16.1191 14.8203 16.0508 14.3828 16.0098 14.123L14.5742 6.17969C14.5059 5.79688 14.2324 5.60547 13.9453 5.60547C13.6582 5.60547 13.3848 5.79688 13.3164 6.17969L11.8809 14.123C11.8398 14.3828 11.7715 14.8203 11.7715 15.0664C11.7715 16.3242 12.6875 17.2402 13.9453 17.2402Z" style="fill:var(--color-1,hsl(0 0 0/0.85))"></path>
 </g>
</svg>