<?xml version="1.0" encoding="UTF-8"?>
<!--Generator: Apple Native CoreSVG 326-->
<!DOCTYPE svg
PUBLIC "-//W3C//DTD SVG 1.1//EN"
       "http://www.w3.org/Graphics/SVG/1.1/DTD/svg11.dtd">
<svg version="1.1" xmlns="http://www.w3.org/2000/svg" xmlns:xlink="http://www.w3.org/1999/xlink" viewBox="0 0 28.2461 27.9043">
 <g>
  <rect height="27.9043" opacity="0" width="28.2461" x="0" y="0"/>
  <path d="M13.9453 27.8906C21.6426 27.8906 27.8906 21.6426 27.8906 13.9453C27.8906 6.24805 21.6426 0 13.9453 0C6.24805 0 0 6.24805 0 13.9453C0 21.6426 6.24805 27.8906 13.9453 27.8906ZM13.9453 25.5664C7.51953 25.5664 2.32422 20.3711 2.32422 13.9453C2.32422 7.51953 7.51953 2.32422 13.9453 2.32422C20.3711 2.32422 25.5664 7.51953 25.5664 13.9453C25.5664 20.3711 20.3711 25.5664 13.9453 25.5664Z" fill="white" fill-opacity="0.85"/>
  <path d="M6.53516 11.8398C7.17773 11.8398 7.71094 11.3066 7.71094 10.6641C7.71094 10.0078 7.17773 9.47461 6.53516 9.47461C5.89258 9.47461 5.35938 10.0078 5.35938 10.6641C5.35938 11.3066 5.89258 11.8398 6.53516 11.8398ZM9.59766 8.44922C10.2402 8.44922 10.7734 7.91602 10.7734 7.27344C10.7734 6.63086 10.2402 6.09766 9.59766 6.09766C8.95508 6.09766 8.42188 6.63086 8.42188 7.27344C8.42188 7.91602 8.95508 8.44922 9.59766 8.44922ZM13.9316 7.15039C14.5742 7.15039 15.1074 6.61719 15.1074 5.97461C15.1074 5.33203 14.5742 4.79883 13.9316 4.79883C13.2891 4.79883 12.7559 5.33203 12.7559 5.97461C12.7559 6.61719 13.2891 7.15039 13.9316 7.15039ZM18.2656 8.44922C18.9082 8.44922 19.4414 7.91602 19.4414 7.27344C19.4414 6.63086 18.9082 6.09766 18.2656 6.09766C17.623 6.09766 17.0898 6.63086 17.0898 7.27344C17.0898 7.91602 17.623 8.44922 18.2656 8.44922ZM21.3281 11.8398C21.9707 11.8398 22.5039 11.3066 22.5039 10.6641C22.5039 10.0078 21.9707 9.47461 21.3281 9.47461C20.6855 9.47461 20.1523 10.0078 20.1523 10.6641C20.1523 11.3066 20.6855 11.8398 21.3281 11.8398ZM13.9453 22.4902C15.2168 22.4902 16.1328 21.5742 16.1328 20.3164C16.1328 20.0703 16.0508 19.6328 16.0098 19.373L14.5742 11.4297C14.5059 11.0469 14.2324 10.8555 13.9453 10.8555C13.6582 10.8555 13.3984 11.0469 13.3164 11.4297L11.8945 19.373C11.8398 19.6328 11.7715 20.0703 11.7715 20.3164C11.7715 21.5742 12.6875 22.4902 13.9453 22.4902Z" fill="white" fill-opacity="0.85"/>
 </g>
</svg>
