<svg version="1.1" xmlns="http://www.w3.org/2000/svg" xmlns:xlink="http://www.w3.org/1999/xlink" viewBox="0 0 28.2461 27.9043">
 <g>
  
  <path d="M13.9453 27.8906C21.6426 27.8906 27.8906 21.6426 27.8906 13.9453C27.8906 6.24805 21.6426 0 13.9453 0C6.24805 0 0 6.24805 0 13.9453C0 21.6426 6.24805 27.8906 13.9453 27.8906ZM13.9453 25.5664C7.51953 25.5664 2.32422 20.3711 2.32422 13.9453C2.32422 7.51953 7.51953 2.32422 13.9453 2.32422C20.3711 2.32422 25.5664 7.51953 25.5664 13.9453C25.5664 20.3711 20.3711 25.5664 13.9453 25.5664Z" style="fill:var(--color-0,hsl(0 0 0/0.85))"></path>
  <path d="M8.38086 20.6172C9.02344 20.6172 9.55664 20.084 9.55664 19.4414C9.55664 18.7988 9.02344 18.2656 8.38086 18.2656C7.73828 18.2656 7.20508 18.7988 7.20508 19.4414C7.20508 20.084 7.73828 20.6172 8.38086 20.6172ZM6.07031 15.1211C6.71289 15.1211 7.24609 14.5879 7.24609 13.9453C7.24609 13.3027 6.71289 12.7695 6.07031 12.7695C5.42773 12.7695 4.89453 13.3027 4.89453 13.9453C4.89453 14.5879 5.42773 15.1211 6.07031 15.1211ZM8.38086 9.625C9.02344 9.625 9.55664 9.0918 9.55664 8.44922C9.55664 7.79297 9.02344 7.27344 8.38086 7.27344C7.73828 7.27344 7.20508 7.79297 7.20508 8.44922C7.20508 9.0918 7.73828 9.625 8.38086 9.625ZM13.9316 7.27344C14.5742 7.27344 15.1074 6.74023 15.1074 6.09766C15.1074 5.45508 14.5742 4.92188 13.9316 4.92188C13.2891 4.92188 12.7559 5.45508 12.7559 6.09766C12.7559 6.74023 13.2891 7.27344 13.9316 7.27344ZM19.4824 9.625C20.125 9.625 20.6582 9.0918 20.6582 8.44922C20.6582 7.79297 20.125 7.27344 19.4824 7.27344C18.8398 7.27344 18.3066 7.79297 18.3066 8.44922C18.3066 9.0918 18.8398 9.625 19.4824 9.625ZM21.7656 15.1211C22.4082 15.1211 22.9414 14.5879 22.9414 13.9453C22.9414 13.3027 22.4082 12.7695 21.7656 12.7695C21.123 12.7695 20.5898 13.3027 20.5898 13.9453C20.5898 14.5879 21.123 15.1211 21.7656 15.1211ZM11.7852 11.7988C10.8965 12.6875 10.8965 13.9863 11.7852 14.875C11.9492 15.0391 12.3047 15.2988 12.5234 15.4629L19.1543 20.0566C19.4824 20.2891 19.8105 20.2207 20.0156 20.0293C20.207 19.8242 20.2754 19.4961 20.043 19.168L15.4492 12.5371C15.2852 12.3184 15.0391 11.9629 14.8613 11.7988C13.9727 10.8965 12.6875 10.8965 11.7852 11.7988Z" style="fill:var(--color-1,hsl(0 0 0/0.85))"></path>
 </g>
</svg>