<svg version="1.1" xmlns="http://www.w3.org/2000/svg" xmlns:xlink="http://www.w3.org/1999/xlink" viewBox="0 0 28.2461 27.9043">
 <g>
  
  <path d="M13.9453 27.9043C21.6426 27.9043 27.8906 21.6562 27.8906 13.959C27.8906 6.27539 21.6426 0.0136719 13.9453 0.0136719C6.26172 0.0136719 0 6.27539 0 13.959C0 21.6562 6.26172 27.9043 13.9453 27.9043Z" style="fill:var(--color-0,#8e8e93)"></path>
  <path d="M13.9453 21.8887C13.7676 21.8887 13.5898 21.875 13.4258 21.8613L13.043 22.627C12.8926 22.8867 12.6191 22.9961 12.332 22.9688C12.0723 22.9004 11.8672 22.7227 11.8262 22.4219L11.7305 21.5742C11.3887 21.4785 11.0742 21.3418 10.7598 21.2051L10.1445 21.8066C9.92578 21.998 9.61133 21.998 9.36523 21.875C9.11914 21.7246 8.99609 21.4922 9.06445 21.1914L9.26953 20.3438C8.98242 20.1523 8.70898 19.9062 8.46289 19.6738L7.68359 20.0156C7.39648 20.1387 7.13672 20.043 6.91797 19.8242C6.75391 19.6055 6.71289 19.3457 6.89062 19.0723L7.36914 18.3613C7.16406 18.0742 7 17.7598 6.83594 17.459L5.98828 17.5137C5.70117 17.5273 5.46875 17.3359 5.3457 17.0762C5.25 16.8027 5.33203 16.5566 5.56445 16.3652L6.26172 15.8457C6.17969 15.5039 6.125 15.1758 6.08398 14.834L5.26367 14.5605C4.97656 14.4785 4.8125 14.2598 4.8125 13.959C4.8125 13.6719 4.97656 13.4395 5.26367 13.3574L6.08398 13.0977C6.125 12.7422 6.17969 12.4277 6.26172 12.0859L5.56445 11.5664C5.3457 11.3887 5.26367 11.1152 5.37305 10.8281C5.45508 10.5684 5.70117 10.3906 5.98828 10.4043L6.83594 10.459C7 10.1309 7.16406 9.84375 7.35547 9.55664L6.89062 8.8457C6.74023 8.61328 6.76758 8.29883 6.94531 8.08008C7.13672 7.86133 7.41016 7.79297 7.68359 7.90234L8.47656 8.23047C8.70898 7.99805 8.99609 7.7793 9.26953 7.57422L9.06445 6.74023C8.99609 6.45312 9.13281 6.20703 9.39258 6.04297C9.625 5.90625 9.92578 5.91992 10.1445 6.125L10.7598 6.71289C11.0742 6.57617 11.4023 6.45312 11.7441 6.35742L11.8262 5.50977C11.8672 5.20898 12.0859 5.01758 12.373 4.96289C12.6465 4.92188 12.9062 5.03125 13.043 5.29102L13.4258 6.05664C13.6035 6.04297 13.7676 6.04297 13.9453 6.04297C14.123 6.04297 14.3008 6.04297 14.4648 6.05664L14.8477 5.29102C14.998 5.03125 15.2578 4.92188 15.5449 4.96289C15.832 5.01758 16.0098 5.20898 16.0781 5.50977L16.1602 6.35742C16.502 6.43945 16.8301 6.58984 17.1582 6.71289L17.7598 6.125C17.9785 5.91992 18.2793 5.90625 18.5254 6.05664C18.7852 6.20703 18.8809 6.45312 18.8398 6.75391L18.6348 7.57422C18.9219 7.79297 19.1816 8.01172 19.4277 8.24414L20.207 7.88867C20.4941 7.79297 20.7676 7.875 20.959 8.09375C21.1367 8.32617 21.1504 8.58594 21.0137 8.85938L20.5488 9.55664C20.7266 9.85742 20.8906 10.1582 21.0547 10.4727L21.9023 10.3906C22.2031 10.4043 22.4355 10.5684 22.5312 10.8555C22.6133 11.1289 22.5586 11.375 22.3398 11.5801L21.6426 12.0859C21.7109 12.4141 21.7793 12.7422 21.8066 13.0977L22.6406 13.3574C22.9141 13.4395 23.0781 13.6719 23.0781 13.959C23.0781 14.2598 22.9277 14.4785 22.6406 14.5605L21.8066 14.834C21.7793 15.1758 21.7109 15.5039 21.6426 15.8457L22.3262 16.3516C22.5449 16.543 22.627 16.8164 22.5312 17.0898C22.4219 17.3633 22.1895 17.5273 21.9023 17.5137L21.0547 17.4727C20.8906 17.7871 20.7266 18.0742 20.5352 18.3613L21 19.0723C21.1641 19.3047 21.123 19.6328 20.9453 19.8379C20.7539 20.0703 20.4941 20.1387 20.2207 20.0156L19.4141 19.6875C19.1816 19.9199 18.9082 20.1523 18.6211 20.3438L18.8262 21.1777C18.8945 21.4648 18.7578 21.7246 18.498 21.875C18.252 22.0254 17.9785 21.998 17.7598 21.8066L17.1445 21.2051C16.8164 21.3418 16.502 21.4785 16.1602 21.5742L16.0645 22.4082C16.0234 22.709 15.8047 22.9141 15.5312 22.9688C15.2305 23.0098 14.998 22.8867 14.8477 22.627L14.4648 21.8613C14.2871 21.875 14.123 21.8887 13.9453 21.8887ZM11.3613 8.16211L13.4805 11.7578C13.6172 11.7305 13.7812 11.7031 13.9453 11.7031C14.9434 11.7031 15.791 12.3594 16.0781 13.248L20.248 13.248C19.8926 10.0762 17.2129 7.61523 13.9453 7.61523C13.0293 7.61523 12.1543 7.80664 11.3613 8.16211ZM7.60156 13.959C7.60156 16.0098 8.55859 17.8281 10.0762 18.9902L12.25 15.4492C11.8945 15.0527 11.6895 14.5195 11.6895 13.959C11.6895 13.3984 11.9082 12.8789 12.25 12.4824L10.1309 8.88672C8.59961 10.0352 7.60156 11.8809 7.60156 13.959ZM11.3066 19.7285C12.1133 20.1113 13.002 20.3164 13.9453 20.3164C17.2129 20.3164 19.9199 17.8281 20.248 14.6562L16.1055 14.6562C15.8047 15.5586 14.9434 16.2148 13.9453 16.2148C13.7949 16.2148 13.6309 16.2012 13.4805 16.1602ZM13.125 13.959C13.125 14.4102 13.4941 14.7793 13.9453 14.7793C14.3965 14.7793 14.7656 14.4102 14.7656 13.959C14.7656 13.5078 14.3965 13.1387 13.9453 13.1387C13.4941 13.1387 13.125 13.5078 13.125 13.959Z" style="fill:var(--color-1,white)"></path>
 </g>
</svg>