<svg version="1.1" xmlns="http://www.w3.org/2000/svg" xmlns:xlink="http://www.w3.org/1999/xlink" viewBox="0 0 29.6133 29.2441">
 <g>
  
  <path d="M13.248 29.2305L16.0098 29.2305C17.0625 29.2305 17.8828 28.5879 18.1152 27.5762L18.7031 25.0195L19.1406 24.8691L21.3691 26.2363C22.2578 26.7832 23.2832 26.6602 24.0352 25.9082L25.9492 24.0078C26.7012 23.2559 26.8242 22.2168 26.2773 21.3418L24.8828 19.127L25.0469 18.7168L27.6035 18.1152C28.6016 17.8828 29.2578 17.0488 29.2578 16.0098L29.2578 13.3027C29.2578 12.2637 28.6152 11.4434 27.6035 11.1973L25.0742 10.582L24.8965 10.1445L26.291 7.92969C26.8379 7.05469 26.7285 6.0293 25.9629 5.26367L24.0488 3.34961C23.3105 2.61133 22.2852 2.47461 21.3965 3.02148L19.168 4.38867L18.7031 4.21094L18.1152 1.6543C17.8828 0.642578 17.0625 0 16.0098 0L13.248 0C12.1953 0 11.375 0.642578 11.1426 1.6543L10.541 4.21094L10.0762 4.38867L7.86133 3.02148C6.97266 2.47461 5.93359 2.61133 5.19531 3.34961L3.29492 5.26367C2.5293 6.0293 2.40625 7.05469 2.9668 7.92969L4.34766 10.1445L4.18359 10.582L1.6543 11.1973C0.642578 11.4434 0 12.2637 0 13.3027L0 16.0098C0 17.0488 0.65625 17.8828 1.6543 18.1152L4.21094 18.7168L4.36133 19.127L2.98047 21.3418C2.41992 22.2168 2.55664 23.2559 3.30859 24.0078L5.20898 25.9082C5.96094 26.6602 7 26.7832 7.88867 26.2363L10.1035 24.8691L10.541 25.0195L11.1426 27.5762C11.375 28.5879 12.1953 29.2305 13.248 29.2305ZM13.4668 27.0977C13.2344 27.0977 13.1113 27.002 13.0703 26.7832L12.25 23.3926C11.416 23.1875 10.6367 22.8594 10.0488 22.4902L7.06836 24.3223C6.9043 24.4453 6.71289 24.4316 6.5625 24.2539L4.94922 22.6406C4.79883 22.4902 4.78516 22.3262 4.89453 22.1348L6.72656 19.1816C6.41211 18.6074 6.05664 17.8281 5.83789 16.9941L2.44727 16.1875C2.22852 16.1465 2.13281 16.0234 2.13281 15.791L2.13281 13.5078C2.13281 13.2617 2.21484 13.1523 2.44727 13.1113L5.82422 12.291C6.04297 11.4023 6.45312 10.5957 6.69922 10.0898L4.88086 7.13672C4.75781 6.93164 4.77148 6.76758 4.92188 6.60352L6.54883 5.01758C6.71289 4.85352 6.86328 4.83984 7.06836 4.94922L10.0215 6.74023C10.6094 6.41211 11.4434 6.07031 12.2637 5.83789L13.0703 2.44727C13.1113 2.22852 13.2344 2.13281 13.4668 2.13281L15.791 2.13281C16.0234 2.13281 16.1465 2.22852 16.1738 2.44727L17.0078 5.86523C17.8555 6.08398 18.5938 6.42578 19.209 6.75391L22.1758 4.94922C22.3945 4.83984 22.5312 4.85352 22.709 5.01758L24.3223 6.60352C24.4863 6.76758 24.4863 6.93164 24.3633 7.13672L22.5449 10.0898C22.8047 10.5957 23.2012 11.4023 23.4199 12.291L26.8105 13.1113C27.0293 13.1523 27.125 13.2617 27.125 13.5078L27.125 15.791C27.125 16.0234 27.0156 16.1465 26.8105 16.1875L23.4062 16.9941C23.1875 17.8281 22.8457 18.6074 22.5176 19.1816L24.3496 22.1348C24.459 22.3262 24.459 22.4902 24.2949 22.6406L22.6953 24.2539C22.5312 24.4316 22.3535 24.4453 22.1758 24.3223L19.1953 22.4902C18.6074 22.8594 17.8418 23.1875 17.0078 23.3926L16.1738 26.7832C16.1465 27.002 16.0234 27.0977 15.791 27.0977ZM14.6289 19.8242C17.5137 19.8242 19.8379 17.5 19.8379 14.6152C19.8379 11.7305 17.5137 9.40625 14.6289 9.40625C11.7441 9.40625 9.41992 11.7305 9.41992 14.6152C9.41992 17.5 11.7441 19.8242 14.6289 19.8242ZM14.6289 17.7051C12.9199 17.7051 11.5391 16.3242 11.5391 14.6152C11.5391 12.9062 12.9199 11.5254 14.6289 11.5254C16.3379 11.5254 17.7188 12.9062 17.7188 14.6152C17.7188 16.3242 16.3379 17.7051 14.6289 17.7051Z" style="fill:var(--color-0,hsl(0 0 0/0.85))"></path>
 </g>
</svg>