<svg version="1.1" xmlns="http://www.w3.org/2000/svg" xmlns:xlink="http://www.w3.org/1999/xlink" viewBox="0 0 33.7185 27.9043">
 <g>
  
  <path d="M16.6815 0C12.58 0 8.86122 1.77734 6.30458 4.63477C5.74403 5.25 5.93544 6.05664 6.45497 6.41211C6.89247 6.74023 7.48036 6.76758 8.05458 6.15234C10.1874 3.78711 13.2636 2.32422 16.6815 2.32422C22.328 2.32422 27.0175 6.34375 28.0429 11.6758L26.1151 11.6758C25.1444 11.6758 24.8983 12.332 25.4179 13.084L28.4804 17.4453C28.9179 18.0742 29.5741 18.0879 30.0253 17.4453L33.0878 13.0977C33.621 12.332 33.3612 11.6758 32.3905 11.6758L30.4218 11.6758C29.3554 5.05859 23.5995 0 16.6815 0ZM16.6815 27.8906C20.7831 27.8906 24.5018 26.1133 27.0585 23.2559C27.619 22.627 27.4276 21.834 26.9081 21.4648C26.4706 21.1504 25.8827 21.123 25.3085 21.7246C23.1757 24.0898 20.0995 25.5664 16.6815 25.5664C11.035 25.5664 6.34559 21.5469 5.3202 16.2148L7.24794 16.2148C8.21864 16.2148 8.46474 15.5449 7.9452 14.8066L4.8827 10.4316C4.4452 9.81641 3.78895 9.80273 3.33778 10.4316L0.275282 14.793C-0.257921 15.5449-0.0118272 16.2148 0.972548 16.2148L2.9413 16.2148C4.0077 22.832 9.76356 27.8906 16.6815 27.8906Z" style="fill:var(--color-0,hsl(0 0 0/0.85))"></path>
  <path d="M16.0526 21.1504L17.3241 21.1504C17.6796 21.1504 17.9393 20.9453 18.0214 20.5898L18.3768 19.0723C18.6503 18.9766 18.91 18.8809 19.1288 18.7578L20.4686 19.5781C20.7694 19.7695 21.0975 19.7422 21.3436 19.4961L22.2186 18.6074C22.4784 18.3613 22.5194 18.0059 22.3143 17.7051L21.5077 16.3926C21.6171 16.1465 21.7265 15.9004 21.7948 15.6543L23.3261 15.2988C23.6815 15.2168 23.8866 14.957 23.8866 14.5879L23.8866 13.3438C23.8866 12.9883 23.6815 12.7422 23.3261 12.6602L21.8085 12.291C21.7265 12.0039 21.6034 11.7578 21.5214 11.5391L22.328 10.2129C22.5194 9.91211 22.5058 9.57031 22.246 9.31055L21.3436 8.43555C21.0975 8.20312 20.7694 8.13477 20.4823 8.32617L19.1288 9.14648C18.91 9.05078 18.664 8.94141 18.3768 8.8457L18.0214 7.31445C17.9393 6.95898 17.6796 6.75391 17.3241 6.75391L16.0526 6.75391C15.6835 6.75391 15.4374 6.95898 15.3554 7.31445L14.9862 8.83203C14.7265 8.92773 14.4667 9.02344 14.2206 9.14648L12.8944 8.32617C12.5936 8.13477 12.2792 8.18945 12.0194 8.43555L11.1171 9.31055C10.8573 9.57031 10.8436 9.91211 11.035 10.2129L11.8417 11.5391C11.7597 11.7578 11.6503 12.0039 11.5546 12.291L10.037 12.6602C9.68153 12.7422 9.47645 12.9883 9.47645 13.3438L9.47645 14.5879C9.47645 14.957 9.68153 15.2168 10.037 15.2988L11.5683 15.6543C11.6503 15.9004 11.746 16.1465 11.8554 16.3926L11.0624 17.7051C10.8436 18.0059 10.8983 18.3613 11.1444 18.6074L12.0194 19.4961C12.2792 19.7422 12.6073 19.7695 12.9081 19.5781L14.2343 18.7578C14.4667 18.8809 14.7265 18.9766 14.9862 19.0723L15.3554 20.5898C15.4374 20.9453 15.6835 21.1504 16.0526 21.1504ZM16.6815 16.3652C15.3417 16.3652 14.2479 15.2852 14.2479 13.9316C14.2479 12.5918 15.3417 11.498 16.6815 11.498C18.0214 11.498 19.1151 12.5918 19.1151 13.9316C19.1151 15.2852 18.0214 16.3652 16.6815 16.3652Z" style="fill:var(--color-1,hsl(0 0 0/0.85))"></path>
 </g>
</svg>