<?xml version="1.0" encoding="UTF-8"?>
<!--Generator: Apple Native CoreSVG 326-->
<!DOCTYPE svg
PUBLIC "-//W3C//DTD SVG 1.1//EN"
       "http://www.w3.org/Graphics/SVG/1.1/DTD/svg11.dtd">
<svg version="1.1" xmlns="http://www.w3.org/2000/svg" xmlns:xlink="http://www.w3.org/1999/xlink" viewBox="0 0 38.1035 29.9824">
 <g>
  <rect height="29.9824" opacity="0" width="38.1035" x="0" y="0"/>
  <path d="M9.85742 21.5742L11.7168 21.5742C12.291 21.5742 12.6602 21.2461 12.7969 20.7266L13.3438 18.4707C13.7266 18.334 14.0957 18.1973 14.4238 18.0059L16.4062 19.2363C16.8574 19.5098 17.3906 19.4688 17.7734 19.0859L19.0859 17.7598C19.4551 17.377 19.5234 16.8301 19.2363 16.3652L18.0195 14.4238C18.1836 14.082 18.3477 13.7266 18.457 13.3574L20.7129 12.8105C21.2598 12.6875 21.5742 12.3047 21.5742 11.7441L21.5742 9.89844C21.5742 9.35156 21.2598 8.95508 20.7129 8.83203L18.4844 8.27148C18.3477 7.86133 18.1836 7.50586 18.0469 7.20508L19.2363 5.22266C19.5098 4.74414 19.5098 4.23828 19.1133 3.85547L17.7734 2.54297C17.3906 2.1875 16.8848 2.0918 16.4336 2.36523L14.4238 3.60938C14.1094 3.43164 13.7402 3.28125 13.3438 3.1582L12.7969 0.861328C12.6602 0.341797 12.291 0.0136719 11.7168 0.0136719L9.85742 0.0136719C9.2832 0.0136719 8.90039 0.341797 8.77734 0.861328L8.23047 3.13086C7.84766 3.26758 7.46484 3.4043 7.13672 3.5957L5.14062 2.36523C4.68945 2.0918 4.18359 2.17383 3.80078 2.54297L2.46094 3.85547C2.06445 4.23828 2.06445 4.74414 2.33789 5.22266L3.52734 7.20508C3.39062 7.50586 3.22656 7.86133 3.08984 8.27148L0.847656 8.83203C0.314453 8.95508 0 9.35156 0 9.89844L0 11.7441C0 12.3047 0.314453 12.6875 0.847656 12.8105L3.11719 13.3574C3.22656 13.7266 3.39062 14.082 3.55469 14.4238L2.33789 16.3652C2.05078 16.8301 2.11914 17.377 2.48828 17.7598L3.80078 19.0859C4.18359 19.4688 4.7168 19.5098 5.16797 19.2363L7.15039 18.0059C7.47852 18.1973 7.84766 18.334 8.23047 18.4707L8.77734 20.7266C8.90039 21.2461 9.2832 21.5742 9.85742 21.5742ZM10.7871 14.2188C8.88672 14.2188 7.3418 12.6875 7.3418 10.7734C7.3418 8.87305 8.88672 7.3418 10.7871 7.3418C12.6875 7.3418 14.2324 8.87305 14.2324 10.7734C14.2324 12.6875 12.6875 14.2188 10.7871 14.2188ZM27.7129 29.9824L29.2715 29.9824C29.7773 29.9824 30.1191 29.6953 30.2148 29.2578L30.666 27.3027C31.0215 27.166 31.3359 27.0566 31.623 26.8926L33.332 27.959C33.7148 28.2051 34.166 28.1777 34.5078 27.8359L35.6016 26.7285C35.9434 26.3867 35.998 25.9082 35.7383 25.5254L34.6855 23.8301C34.8359 23.543 34.959 23.2285 35.0684 22.9141L37.0371 22.4492C37.4883 22.3535 37.748 22.0117 37.748 21.5195L37.748 19.9746C37.748 19.4824 37.4883 19.1406 37.0371 19.0312L35.082 18.5664C34.959 18.2109 34.8359 17.8965 34.6992 17.6367L35.7383 15.9141C35.998 15.5039 35.9844 15.0801 35.6289 14.7383L34.5078 13.6445C34.166 13.3301 33.7285 13.248 33.3457 13.4805L31.623 14.5605C31.3496 14.4238 31.0215 14.2734 30.666 14.1777L30.2148 12.1816C30.1191 11.7441 29.7773 11.4434 29.2715 11.4434L27.7129 11.4434C27.2207 11.4434 26.8789 11.7441 26.7695 12.1816L26.3047 14.1504C25.9766 14.2734 25.6348 14.3828 25.3477 14.5469L23.625 13.4805C23.2559 13.2617 22.8184 13.3164 22.4766 13.6445L21.3691 14.7383C21.0137 15.0801 21 15.5039 21.2461 15.9141L22.2715 17.6367C22.1484 17.8965 22.0254 18.2109 21.9023 18.5664L19.9609 19.0312C19.4961 19.1406 19.2227 19.4824 19.2227 19.9746L19.2227 21.5195C19.2227 22.0117 19.4961 22.3535 19.9609 22.4492L21.9297 22.9141C22.0254 23.2285 22.1484 23.543 22.2988 23.8301L21.2461 25.5254C20.9863 25.9082 21.0547 26.3867 21.3828 26.7285L22.4766 27.8359C22.8184 28.1777 23.2695 28.2051 23.6523 27.959L25.3613 26.8926C25.6484 27.0566 25.9766 27.166 26.3047 27.3027L26.7695 29.2578C26.8789 29.6953 27.2207 29.9824 27.7129 29.9824ZM28.4922 23.4336C26.9883 23.4336 25.7578 22.2168 25.7578 20.6992C25.7578 19.1953 26.9883 17.9648 28.4922 17.9648C30.0098 17.9648 31.2266 19.1953 31.2266 20.6992C31.2266 22.2168 30.0098 23.4336 28.4922 23.4336Z" fill="white" fill-opacity="0.85"/>
 </g>
</svg>
