<?xml version="1.0" encoding="UTF-8"?>
<!--Generator: Apple Native CoreSVG 326-->
<!DOCTYPE svg
PUBLIC "-//W3C//DTD SVG 1.1//EN"
       "http://www.w3.org/Graphics/SVG/1.1/DTD/svg11.dtd">
<svg version="1.1" xmlns="http://www.w3.org/2000/svg" xmlns:xlink="http://www.w3.org/1999/xlink" viewBox="0 0 37.8848 29.8184">
 <g>
  <rect height="29.8184" opacity="0" width="37.8848" x="0" y="0"/>
  <path d="M9.74805 21.4922L11.7441 21.4922C12.6055 21.4922 13.2754 20.959 13.4668 20.1523L13.8496 18.4023C13.8906 18.3887 13.9453 18.375 13.9863 18.3613L15.5312 19.2773C16.2285 19.7012 17.0898 19.6191 17.6777 19.0176L19.0723 17.623C19.6875 17.0078 19.7695 16.1602 19.332 15.4629L18.3887 13.9727C18.4023 13.918 18.4297 13.877 18.4434 13.8223L20.1523 13.4121C20.959 13.207 21.4922 12.5234 21.4922 11.6758L21.4922 9.81641C21.4922 8.96875 20.9727 8.28516 20.1523 8.08008L18.4434 7.66992C18.4297 7.61523 18.4023 7.57422 18.3887 7.51953L19.332 6.0293C19.7695 5.31836 19.6875 4.48438 19.0723 3.86914L17.6777 2.47461C17.0898 1.87305 16.2285 1.79102 15.5312 2.21484L13.9863 3.13086C13.9316 3.11719 13.8906 3.10352 13.8359 3.08984L13.4668 1.33984C13.2891 0.533203 12.6055 0 11.7441 0L9.74805 0C8.88672 0 8.2168 0.533203 8.02539 1.33984L7.64258 3.08984C7.58789 3.10352 7.54688 3.11719 7.49219 3.13086L5.96094 2.21484C5.26367 1.79102 4.40234 1.87305 3.81445 2.47461L2.41992 3.86914C1.80469 4.48438 1.73633 5.33203 2.16016 6.0293L3.10352 7.51953C3.08984 7.57422 3.0625 7.61523 3.04883 7.66992L1.32617 8.08008C0.519531 8.28516 0 8.96875 0 9.81641L0 11.6758C0 12.5234 0.519531 13.207 1.32617 13.4121L3.04883 13.8223C3.0625 13.877 3.08984 13.918 3.10352 13.9727L2.16016 15.4629C1.72266 16.1602 1.80469 17.0078 2.41992 17.623L3.81445 19.0176C4.40234 19.6191 5.25 19.7012 5.94727 19.2773L7.50586 18.3613C7.54688 18.375 7.60156 18.3887 7.64258 18.4023L8.02539 20.1523C8.2168 20.959 8.88672 21.4922 9.74805 21.4922ZM10.0078 19.5781C9.87109 19.5781 9.80273 19.5098 9.76172 19.3594L9.17383 16.9258C8.51758 16.7754 7.91602 16.4746 7.4375 16.2148L5.30469 17.5137C5.16797 17.582 5.07227 17.582 4.97656 17.4863L3.9375 16.4609C3.8418 16.3652 3.82812 16.2695 3.91016 16.1465L5.19531 14.0273C5.03125 13.6172 4.67578 13.002 4.51172 12.291L2.10547 11.7168C1.96875 11.6758 1.90039 11.6074 1.90039 11.4707L1.90039 10.0215C1.90039 9.88477 1.96875 9.81641 2.10547 9.77539L4.51172 9.20117C4.67578 8.49023 5.03125 7.875 5.19531 7.46484L3.91016 5.3457C3.82812 5.22266 3.8418 5.12695 3.9375 5.03125L4.97656 4.00586C5.07227 3.91016 5.16797 3.91016 5.30469 3.97852L7.4375 5.27734C7.91602 5.01758 8.51758 4.7168 9.17383 4.56641L9.76172 2.13281C9.80273 1.98242 9.87109 1.91406 10.0078 1.91406L11.4844 1.91406C11.6211 1.91406 11.6895 1.98242 11.7305 2.13281L12.3184 4.56641C12.9746 4.7168 13.5762 5.01758 14.0547 5.27734L16.1875 3.97852C16.3105 3.91016 16.4199 3.91016 16.5156 4.00586L17.5547 5.03125C17.6504 5.12695 17.6641 5.22266 17.582 5.3457L16.2969 7.46484C16.4609 7.875 16.8164 8.49023 16.9805 9.20117L19.3867 9.77539C19.5234 9.81641 19.5918 9.88477 19.5918 10.0215L19.5918 11.4707C19.5918 11.6074 19.5234 11.6758 19.3867 11.7168L16.9805 12.291C16.8164 13.002 16.4609 13.6172 16.2969 14.0273L17.582 16.1465C17.6641 16.2695 17.6504 16.3652 17.5547 16.4609L16.5156 17.4863C16.4199 17.582 16.3105 17.582 16.1875 17.5137L14.0547 16.2148C13.5762 16.4746 12.9746 16.7754 12.3184 16.9258L11.7305 19.3594C11.6895 19.5098 11.6211 19.5781 11.4844 19.5781ZM27.6992 29.791L29.2715 29.791C30.0508 29.791 30.707 29.3398 30.8301 28.6289L31.0898 27.248C31.1582 27.2344 31.1992 27.2207 31.2402 27.207L32.4023 27.9316C33.0312 28.3281 33.8105 28.2461 34.3574 27.6719L35.4648 26.5645C36.0117 26.0039 36.1211 25.2246 35.6973 24.5957L34.959 23.4746C34.9727 23.4199 34.9863 23.3926 35.0137 23.3379L36.3672 23.0508C37.0645 22.9004 37.5293 22.2715 37.5293 21.4922L37.5293 19.9609C37.5293 19.1953 37.0645 18.5527 36.3672 18.4023L35.0137 18.1289C34.9863 18.0742 34.9727 18.0332 34.959 17.9785L35.6973 16.8574C36.1211 16.2285 36.0117 15.4629 35.4648 14.9023L34.3574 13.7812C33.8105 13.2207 33.0312 13.125 32.4023 13.5215L31.2402 14.2461C31.1992 14.2324 31.1582 14.2188 31.0898 14.2051L30.8301 12.8379C30.707 12.1133 30.0508 11.6621 29.2715 11.6621L27.6992 11.6621C26.9199 11.6621 26.2637 12.1133 26.127 12.8379L25.8672 14.2051C25.8125 14.2188 25.7715 14.2324 25.7168 14.2461L24.5547 13.5215C23.9258 13.125 23.1602 13.2207 22.6133 13.7812L21.5059 14.9023C20.959 15.4629 20.8496 16.2285 21.2598 16.8574L21.998 17.9785C21.9844 18.0332 21.9707 18.0742 21.957 18.1289L20.6035 18.4023C19.8926 18.5527 19.4277 19.1953 19.4277 19.9609L19.4277 21.4922C19.4277 22.2715 19.8926 22.9004 20.6035 23.0508L21.957 23.3379C21.9707 23.3926 21.9844 23.4199 21.998 23.4746L21.2598 24.5957C20.8496 25.2246 20.959 26.0039 21.5059 26.5645L22.6133 27.6719C23.1602 28.2461 23.9258 28.3281 24.5547 27.9316L25.7168 27.207C25.7715 27.2207 25.8125 27.2344 25.8672 27.248L26.127 28.6289C26.2637 29.3398 26.9199 29.791 27.6992 29.791ZM28.0547 27.9727C27.8906 27.9727 27.8086 27.8906 27.7676 27.7539L27.2891 25.7852C26.7422 25.6621 26.25 25.4707 25.7305 25.1289L24.0078 26.209C23.8984 26.2773 23.7617 26.2637 23.6523 26.168L23.0371 25.5254C22.9141 25.4023 22.9004 25.293 22.9824 25.1699L24.0215 23.4883C23.9121 23.1602 23.543 22.5723 23.4062 21.9023L21.4512 21.4512C21.3145 21.4238 21.2324 21.3145 21.2324 21.1777L21.2324 20.2754C21.2324 20.1387 21.3145 20.0293 21.4512 20.002L23.4062 19.5508C23.543 18.8809 23.9121 18.3066 24.0215 17.9648L22.9824 16.2832C22.9004 16.1738 22.9141 16.0508 23.0371 15.9277L23.6523 15.2988C23.7617 15.1895 23.8984 15.1758 24.0078 15.2578L25.7305 16.3242C26.25 15.9961 26.7422 15.791 27.2891 15.668L27.7676 13.6992C27.8086 13.5625 27.8906 13.4805 28.0547 13.4805L28.9023 13.4805C29.0664 13.4805 29.1484 13.5625 29.1895 13.6992L29.668 15.668C30.2148 15.791 30.707 15.9961 31.2266 16.3242L32.9492 15.2578C33.0723 15.1758 33.1953 15.1895 33.3047 15.2988L33.9336 15.9277C34.043 16.0508 34.0566 16.1738 33.9883 16.2832L32.9355 17.9648C33.0586 18.3066 33.4141 18.8809 33.5508 19.5508L35.5059 20.002C35.6426 20.0293 35.7246 20.1387 35.7246 20.2754L35.7246 21.1777C35.7246 21.3145 35.6426 21.4238 35.5059 21.4512L33.5508 21.9023C33.4141 22.5723 33.0586 23.1602 32.9355 23.4883L33.9883 25.1699C34.0566 25.293 34.043 25.4023 33.9336 25.5254L33.3047 26.168C33.1953 26.2637 33.0723 26.2773 32.9492 26.209L31.2266 25.1289C30.707 25.4707 30.2148 25.6621 29.668 25.7852L29.1895 27.7539C29.1484 27.8906 29.0664 27.9727 28.9023 27.9727ZM10.7461 14.875C13.0156 14.875 14.875 13.0293 14.875 10.7461C14.875 8.46289 13.0156 6.61719 10.7461 6.61719C8.46289 6.61719 6.60352 8.46289 6.60352 10.7461C6.60352 13.0293 8.46289 14.875 10.7461 14.875ZM10.7461 12.9062C9.54297 12.9062 8.57227 11.9492 8.57227 10.7461C8.57227 9.54297 9.54297 8.58594 10.7461 8.58594C11.9355 8.58594 12.9062 9.54297 12.9062 10.7461C12.9062 11.9492 11.9355 12.9062 10.7461 12.9062ZM28.4648 23.9395C30.2285 23.9395 31.6777 22.4902 31.6777 20.7266C31.6777 18.9629 30.2285 17.5273 28.4648 17.5273C26.7012 17.5273 25.2656 18.9629 25.2656 20.7266C25.2656 22.4902 26.7012 23.9395 28.4648 23.9395ZM28.4648 22.2031C27.6582 22.2031 27.002 21.5332 27.002 20.7266C27.002 19.9199 27.6582 19.2637 28.4648 19.2637C29.2715 19.2637 29.9414 19.9199 29.9414 20.7266C29.9414 21.5332 29.2715 22.2031 28.4648 22.2031Z" fill="white" fill-opacity="0.85"/>
 </g>
</svg>
