<svg version="1.1" xmlns="http://www.w3.org/2000/svg" xmlns:xlink="http://www.w3.org/1999/xlink" viewBox="0 0 26.6465 30.2012">
 <g>
  
  <path d="M5.96094 28.6562L20.3301 28.6562C22.9004 28.6562 24.3223 27.3027 24.3223 24.7188L24.3223 16.3242L24.418 16.3242C25.6211 16.0645 26.291 15.0938 26.291 13.6992L26.291 10.1035C26.291 8.43555 25.3613 7.38281 23.6934 7.38281L20.9316 7.38281C21.6562 6.6582 22.0801 5.67383 22.0801 4.53906C22.0801 1.88672 19.9883 0 17.3359 0C15.4219 0 13.8359 1.05273 13.1387 2.88477C12.4414 1.05273 10.8691 0 8.94141 0C6.30273 0 4.19727 1.88672 4.19727 4.53906C4.19727 5.67383 4.62109 6.6582 5.35938 7.38281L2.59766 7.38281C0.998047 7.38281 0 8.43555 0 10.1035L0 13.6992C0 15.0938 0.65625 16.0645 1.85938 16.3242L1.95508 16.3242L1.95508 24.7188C1.95508 27.3027 3.37695 28.6562 5.96094 28.6562ZM11.9219 26.6055L5.93359 26.6055C4.79883 26.6055 4.15625 25.9629 4.15625 24.8281L4.15625 16.4199L11.9219 16.4199ZM14.3555 26.6055L14.3555 16.4199L22.1211 16.4199L22.1211 24.8281C22.1211 25.9629 21.4785 26.6055 20.3438 26.6055ZM11.9219 14.3555L3.1582 14.3555C2.47461 14.3555 2.20117 14.0684 2.20117 13.3848L2.20117 10.4043C2.20117 9.7207 2.47461 9.44727 3.1582 9.44727L11.9219 9.44727ZM14.3555 14.3555L14.3555 9.44727L23.1465 9.44727C23.8301 9.44727 24.0898 9.7207 24.0898 10.4043L24.0898 13.3848C24.0898 14.0684 23.8301 14.3555 23.1465 14.3555ZM12.0176 7.38281L9.88477 7.38281C7.73828 7.38281 6.48047 6.16602 6.48047 4.66211C6.48047 3.1582 7.57422 2.2832 9.07812 2.2832C10.7051 2.2832 12.0176 3.51367 12.0176 5.53711ZM14.2598 7.38281L14.2598 5.53711C14.2598 3.51367 15.5723 2.2832 17.1992 2.2832C18.7031 2.2832 19.7969 3.1582 19.7969 4.66211C19.7969 6.16602 18.5527 7.38281 16.3926 7.38281Z" style="fill:var(--color-0,#ff3b30)"></path>
 </g>
</svg>