<svg version="1.1" xmlns="http://www.w3.org/2000/svg" xmlns:xlink="http://www.w3.org/1999/xlink" viewBox="0 0 28.2461 27.9043">
 <g>
  
  <path d="M13.9453 27.8906C21.6426 27.8906 27.8906 21.6426 27.8906 13.9453C27.8906 6.24805 21.6426 0 13.9453 0C6.24805 0 0 6.24805 0 13.9453C0 21.6426 6.24805 27.8906 13.9453 27.8906ZM13.9453 25.5664C7.51953 25.5664 2.32422 20.3711 2.32422 13.9453C2.32422 7.51953 7.51953 2.32422 13.9453 2.32422C20.3711 2.32422 25.5664 7.51953 25.5664 13.9453C25.5664 20.3711 20.3711 25.5664 13.9453 25.5664Z" style="fill:var(--color-0,#ff3b30)"></path>
  <path d="M8.35352 18.9902C8.35352 20.125 9.02344 20.7266 10.1582 20.7266L13.3711 20.7266L13.3711 14.5879L8.35352 14.5879ZM14.4922 20.7266L17.7051 20.7266C18.8398 20.7266 19.5098 20.125 19.5098 18.9902L19.5098 14.5879L14.4922 14.5879ZM7.38281 12.8516C7.38281 13.5762 7.79297 13.8633 8.53125 13.8633L13.3711 13.8633L13.3711 10.1719L12.3184 10.1719C11.2383 10.1719 10.6094 9.51562 10.6094 8.75C10.6094 8.01172 11.1562 7.56055 11.9082 7.56055C12.7285 7.56055 13.3711 8.17578 13.3711 9.20117L13.3711 10.1719L14.4922 10.1719L14.4922 9.20117C14.4922 8.17578 15.1348 7.56055 15.9688 7.56055C16.7207 7.56055 17.2539 8.01172 17.2539 8.75C17.2539 9.51562 16.625 10.1719 15.5449 10.1719L14.4922 10.1719L14.4922 13.8633L19.3457 13.8633C20.084 13.8633 20.4805 13.5762 20.4805 12.8516L20.4805 11.1973C20.4805 10.4727 20.084 10.1719 19.3457 10.1719L17.7461 10.1719C18.1562 9.81641 18.375 9.2832 18.375 8.69531C18.375 7.36914 17.3359 6.42578 16.0371 6.42578C15.0801 6.42578 14.2871 6.94531 13.9316 7.88867C13.5762 6.94531 12.7969 6.42578 11.8398 6.42578C10.5273 6.42578 9.48828 7.36914 9.48828 8.69531C9.48828 9.2832 9.7207 9.81641 10.1172 10.1719L8.53125 10.1719C7.82031 10.1719 7.38281 10.4727 7.38281 11.1973Z" style="fill:var(--color-1,#ff3b30)"></path>
 </g>
</svg>