<?xml version="1.0" encoding="UTF-8"?>
<!--Generator: Apple Native CoreSVG 326-->
<!DOCTYPE svg
PUBLIC "-//W3C//DTD SVG 1.1//EN"
       "http://www.w3.org/Graphics/SVG/1.1/DTD/svg11.dtd">
<svg version="1.1" xmlns="http://www.w3.org/2000/svg" xmlns:xlink="http://www.w3.org/1999/xlink" viewBox="0 0 32.4844 23.3652">
 <g>
  <rect height="23.3652" opacity="0" width="32.4844" x="0" y="0"/>
  <path d="M0 11.5117L10.2129 11.5117C8.38086 10.6914 7.10938 9.17383 7.10938 7.3418C7.10938 5.22266 8.68164 3.65039 10.7734 3.65039C12.6055 3.65039 14.2324 4.78516 15.1758 6.64453L15.1758 0.0136719L16.9668 0.0136719L16.9668 6.64453C17.9238 4.78516 19.5508 3.65039 21.3691 3.65039C23.4746 3.65039 25.0332 5.22266 25.0332 7.3418C25.0332 9.17383 23.7754 10.6914 21.9297 11.5117L32.1289 11.5117L32.1289 13.1387L18.3887 13.1387C19.2227 14.875 22.0117 17.5 24.0215 17.7051C24.7871 17.7734 25.2109 18.2383 25.2109 18.9629C25.2109 19.6055 24.6914 20.207 23.8574 20.0977C21.6152 19.7695 18.0195 17.1309 17.0762 14.1504L16.9668 14.1504L16.9668 23.3652L15.1758 23.3652L15.1758 14.1504L15.0801 14.1504C14.1367 17.1309 10.541 19.7695 8.29883 20.0977C7.46484 20.207 6.94531 19.6055 6.94531 18.9629C6.94531 18.2383 7.36914 17.7871 8.12109 17.7051C10.1445 17.4727 12.9199 14.875 13.7676 13.1387L0 13.1387ZM14.4785 11.293L14.916 11.293L14.916 10.8828C14.916 8.13477 13.043 5.74219 10.8828 5.74219C9.84375 5.74219 9.17383 6.41211 9.17383 7.50586C9.17383 9.33789 11.6211 11.293 14.4785 11.293ZM17.6641 11.293C20.5352 11.293 22.9688 9.33789 22.9688 7.50586C22.9688 6.41211 22.3125 5.74219 21.2598 5.74219C19.0996 5.74219 17.2266 8.13477 17.2266 10.8828L17.2266 11.293ZM4.29297 23.3652L27.8359 23.3652C30.707 23.3652 32.1289 21.957 32.1289 19.1406L32.1289 4.25195C32.1289 1.43555 30.707 0.0136719 27.8359 0.0136719L4.29297 0.0136719C1.43555 0.0136719 0 1.43555 0 4.25195L0 19.1406C0 21.957 1.43555 23.3652 4.29297 23.3652Z" fill="white" fill-opacity="0.85"/>
 </g>
</svg>
