<?xml version="1.0" encoding="UTF-8"?>
<!--Generator: Apple Native CoreSVG 326-->
<!DOCTYPE svg
PUBLIC "-//W3C//DTD SVG 1.1//EN"
       "http://www.w3.org/Graphics/SVG/1.1/DTD/svg11.dtd">
<svg version="1.1" xmlns="http://www.w3.org/2000/svg" xmlns:xlink="http://www.w3.org/1999/xlink" viewBox="0 0 28.2461 27.9043">
 <g>
  <rect height="27.9043" opacity="0" width="28.2461" x="0" y="0"/>
  <path d="M3.14453 19.9746L4.67578 17.0488C5.05859 16.3242 5.46875 15.8594 5.90625 15.8594C6.33008 15.8594 6.78125 16.2969 7.4375 17.1445C8.69531 18.7715 9.55664 19.6055 10.4316 19.6055C11.2793 19.6055 12.2637 18.4023 12.2637 17.582C12.2637 16.9805 11.4434 16.4199 11.4434 16.1191C11.4434 15.9824 11.5664 15.9004 11.7988 15.9004C13.7949 15.9004 15.5312 14.2598 15.5312 12.9336C15.5312 11.6895 14.1777 10.7461 14.1777 10.3223C14.1777 10.2402 14.2461 10.1719 14.3281 10.1719C14.4512 10.1719 14.6152 10.3086 14.9297 10.5547C16.4609 11.7715 17.2266 11.0879 17.3633 10.3223C17.418 10.0215 17.582 9.7207 18.334 9.33789C19.7559 8.59961 21.2051 7.31445 21.2051 6.24805C21.2051 4.86719 19.3457 4.2793 19.3457 3.95117C19.3457 3.74609 19.7969 3.55469 20.6582 3.30859L20.3164 1.96875C18.8809 2.33789 17.8008 3.03516 17.8008 3.86914C17.8008 4.96289 19.8242 5.5918 19.8242 6.24805C19.8242 6.87695 18.6621 7.58789 17.8008 8.05273C16.3379 8.88672 16.4473 9.26953 16.2559 9.69336C15.9141 10.3086 15.2441 9.03711 14.1094 9.03711C13.4258 9.03711 12.9062 9.47461 12.9062 10.1582C12.9062 11.2109 14.1504 12.1953 14.1504 12.9336C14.1504 13.8086 13.1387 14.6562 11.4023 14.6562C10.4453 14.6562 9.92578 15.0801 9.92578 15.8184C9.92578 16.543 10.8281 17.2266 10.8281 17.582C10.8281 17.8418 10.623 18.1016 10.459 18.1016C10.1719 18.1016 9.54297 17.582 8.53125 16.2969C7.64258 15.1348 6.82227 14.4785 5.98828 14.4785C4.8125 14.4785 4.07422 15.4492 3.65039 16.2285L2.31055 18.6895ZM20.0293 25.6074L21.1367 24.7598C20.5215 23.9395 19.7422 22.75 18.1152 22.75C17.1172 22.75 16.9121 23.0781 16.2285 23.0781C15.8184 23.0781 15.5996 22.7227 15.4219 21.9707C15.2578 21.3145 15.1895 20.8359 15.6133 20.6582C16.1055 20.4668 17.7598 20.2754 18.3203 18.5254C18.7168 17.3359 19.0859 16.8711 19.7422 16.8711C20.918 16.8711 20.7266 18.1152 22.1348 18.1152C22.75 18.1152 23.0781 17.8555 23.5156 17.8555C24.1172 17.8555 24.5273 18.4434 24.6367 19.8789L26.0176 19.332C25.7852 17.5273 24.9238 16.4746 23.707 16.4746C23.3926 16.4746 22.9824 16.5293 22.6133 16.6523C22.1621 16.8027 22.0938 16.7754 21.7383 16.3652C21.1777 15.7227 20.6855 15.4902 19.9062 15.4902C18.5254 15.4902 17.6367 16.1602 16.9805 18.1289C16.8164 18.6621 16.584 18.8398 15.6406 19.1953L15.0664 19.4004C13.9863 19.8105 13.6719 20.6035 14.0547 22.2715C14.3965 23.7344 15.1074 24.4727 16.1055 24.4727C16.9941 24.4727 17.5273 24.1582 18.1152 24.1582C18.9766 24.1309 19.3867 24.7051 20.0293 25.6074ZM17.2402 13.1113C18.1289 13.1113 18.5254 12.3184 19.5234 12.0176C20.1797 11.8262 20.5352 11.1562 20.5352 10.582C20.5352 10.1172 20.3027 9.7207 19.7969 9.7207C19.2637 9.7207 18.7715 10.1309 18.4434 10.8281C18.2656 11.2246 17.9648 11.416 17.2402 11.6211C16.666 11.7988 16.4609 12.0039 16.4609 12.4414C16.4609 12.9062 16.8301 13.1113 17.2402 13.1113ZM13.2754 19.4277C14.0547 19.4277 14.8203 18.5254 14.8203 17.7188C14.8203 16.7207 14.4102 16.2559 13.9316 16.2559C13.4121 16.2559 13.084 16.8711 13.084 17.8008C13.084 18.334 12.6191 18.3477 12.6191 18.8809C12.6191 19.209 12.8789 19.4277 13.2754 19.4277ZM10.8828 21.9297C11.4844 21.9297 11.8535 21.6152 11.8535 21.123C11.8535 20.7402 11.5664 20.4941 11.1562 20.4941C9.50195 20.4941 9.43359 19.5645 8.64062 19.5645C8.20312 19.5645 7.90234 19.8242 7.90234 20.207C7.90234 20.5078 8.20312 20.7402 8.61328 20.7402C9.48828 20.7402 9.07812 21.9297 10.8828 21.9297ZM13.9453 27.8906C21.6426 27.8906 27.8906 21.6426 27.8906 13.9453C27.8906 6.24805 21.6426 0 13.9453 0C6.24805 0 0 6.24805 0 13.9453C0 21.6426 6.24805 27.8906 13.9453 27.8906ZM13.9453 26.0312C7.27344 26.0312 1.85938 20.6172 1.85938 13.9453C1.85938 7.27344 7.27344 1.85938 13.9453 1.85938C20.6172 1.85938 26.0312 7.27344 26.0312 13.9453C26.0312 20.6172 20.6172 26.0312 13.9453 26.0312Z" fill="white" fill-opacity="0.85"/>
 </g>
</svg>
