<?xml version="1.0" encoding="UTF-8"?>
<!--Generator: Apple Native CoreSVG 326-->
<!DOCTYPE svg
PUBLIC "-//W3C//DTD SVG 1.1//EN"
       "http://www.w3.org/Graphics/SVG/1.1/DTD/svg11.dtd">
<svg version="1.1" xmlns="http://www.w3.org/2000/svg" xmlns:xlink="http://www.w3.org/1999/xlink" viewBox="0 0 28.2461 27.9043">
 <g>
  <rect height="27.9043" opacity="0" width="28.2461" x="0" y="0"/>
  <path d="M3.13086 19.9746C5.19531 18.416 5.12695 15.791 5.90625 15.791C6.33008 15.791 6.75391 16.1602 7.49219 17.1035C8.75 18.7305 9.58398 19.5371 10.4316 19.5371C11.2246 19.5371 12.1953 18.375 12.1953 17.4453C12.1953 17.0078 11.375 16.4473 11.375 16.1191C11.375 15.9277 11.5664 15.832 11.8398 15.832C13.7676 15.832 15.4629 14.2188 15.4629 12.9336C15.4629 12.0176 13.9727 11.1699 13.9727 10.582C13.9727 10.3359 14.1777 10.1719 14.4238 10.1719C14.5879 10.1719 14.7793 10.2402 15.0254 10.418C16.5156 11.5938 17.2129 10.9785 17.3496 10.2266C17.4043 9.91211 17.582 9.58398 18.3613 9.20117C19.9883 8.33984 21.1367 7.16406 21.1367 6.24805C21.1367 5.22266 19.2773 4.34766 19.2773 3.95117C19.2773 3.73242 19.6191 3.54102 20.5215 3.26758C19.1133 1.98242 16.8711 1.03906 13.9316 1.03906C6.20703 1.33984 1.18945 6.86328 1.14844 13.9453C1.13477 16.1602 1.83203 18.3613 3.13086 19.9746ZM20.043 25.498C22.7227 23.7891 24.6914 21.7109 25.9492 19.3047C25.7168 17.5547 24.8828 16.543 23.707 16.543C23.3926 16.543 22.9961 16.5977 22.6406 16.7207C22.1621 16.8711 22.0664 16.8438 21.6836 16.4062C21.1367 15.7773 20.6582 15.5586 19.9062 15.5586C18.4844 15.5586 17.6641 16.2969 17.0488 18.1426C16.8711 18.7031 16.625 18.8945 15.668 19.2637L15.0938 19.4688C14.0273 19.8789 13.7539 20.6445 14.123 22.2578C14.4512 23.6797 15.1348 24.4043 16.1055 24.4043C16.9805 24.4043 17.5137 24.0898 18.1152 24.0898C18.9902 24.0625 19.4277 24.6367 20.043 25.498ZM17.2402 13.1113C18.1289 13.1113 18.5254 12.3184 19.5234 12.0176C20.1797 11.8262 20.5352 11.1562 20.5352 10.582C20.5352 10.1172 20.3027 9.7207 19.7969 9.7207C19.2637 9.7207 18.7715 10.1309 18.4434 10.8281C18.2656 11.2246 17.9648 11.416 17.2402 11.6211C16.666 11.7988 16.4609 12.0039 16.4609 12.4414C16.4609 12.9062 16.8301 13.1113 17.2402 13.1113ZM13.2754 19.4277C14.0547 19.4277 14.8203 18.5254 14.8203 17.7188C14.8203 16.7207 14.4102 16.2559 13.9316 16.2559C13.4121 16.2559 13.084 16.8711 13.084 17.8008C13.084 18.334 12.6191 18.3477 12.6191 18.8809C12.6191 19.209 12.8789 19.4277 13.2754 19.4277ZM10.8828 21.9297C11.4844 21.9297 11.8535 21.6152 11.8535 21.123C11.8535 20.7402 11.5664 20.4941 11.1562 20.4941C9.50195 20.4941 9.43359 19.5645 8.64062 19.5645C8.20312 19.5645 7.90234 19.8242 7.90234 20.207C7.90234 20.5078 8.20312 20.7402 8.61328 20.7402C9.48828 20.7402 9.07812 21.9297 10.8828 21.9297ZM13.9453 27.8906C21.6426 27.8906 27.8906 21.6426 27.8906 13.9453C27.8906 6.24805 21.6426 0 13.9453 0C6.24805 0 0 6.24805 0 13.9453C0 21.6426 6.24805 27.8906 13.9453 27.8906ZM13.9453 26.0312C7.27344 26.0312 1.85938 20.6172 1.85938 13.9453C1.85938 7.27344 7.27344 1.85938 13.9453 1.85938C20.6172 1.85938 26.0312 7.27344 26.0312 13.9453C26.0312 20.6172 20.6172 26.0312 13.9453 26.0312Z" fill="white" fill-opacity="0.85"/>
 </g>
</svg>
