<?xml version="1.0" encoding="UTF-8"?>
<!--Generator: Apple Native CoreSVG 326-->
<!DOCTYPE svg
PUBLIC "-//W3C//DTD SVG 1.1//EN"
       "http://www.w3.org/Graphics/SVG/1.1/DTD/svg11.dtd">
<svg version="1.1" xmlns="http://www.w3.org/2000/svg" xmlns:xlink="http://www.w3.org/1999/xlink" viewBox="0 0 28.2461 27.9043">
 <g>
  <rect height="27.9043" opacity="0" width="28.2461" x="0" y="0"/>
  <path d="M14.5195 24.3223C17.0352 24.3223 19.1816 20.4258 19.7422 19.4961C20.4395 18.375 20.1113 17.2539 20.1113 16.5566C20.1113 16.0645 21.5605 15.0254 21.5605 13.8359C21.5605 12.6328 18.7578 11.6758 18.7578 10.9922C18.7578 10.5547 19.0859 10.1719 19.4414 10.1719C20.043 10.1719 21.5195 12.0723 22.3535 12.0723C22.9004 12.0723 22.9414 11.5938 23.2422 11.5938C23.9395 11.5938 24.0488 15.5176 26.1953 16.4473C26.7832 15.7637 27.1387 14.9844 27.1387 13.9453C27.1387 6.82227 21.2188 0.738281 13.9316 0.751953C9.87109 0.765625 8.36719 2.32422 8.36719 3.69141C8.36719 5.48242 6.9043 5.89258 6.9043 6.97266C6.9043 7.65625 7.38281 8.10742 8.12109 8.10742C9.70703 8.10742 9.69336 6.38477 10.5 6.38477C11.1016 6.39844 11.6621 7.30078 12.6602 7.30078C13.1113 7.30078 13.3301 7.01367 13.3574 6.60352C13.3848 6.42578 13.4668 6.34375 13.6309 6.34375C14.5059 6.34375 15.4766 7.32812 15.4766 7.92969C15.4766 8.50391 15.2578 8.94141 14.9023 8.94141C14.2871 8.94141 12.7559 8.2168 11.3887 8.2168C8.32617 8.2168 5.76953 10.3906 5.76953 12.9883C5.76953 15.2441 7.0957 16.5566 9.41992 16.5566C10.8281 16.5566 11.8672 17.5137 11.8672 18.8125C11.8672 20.8359 11.6484 24.3223 14.5195 24.3223ZM17.9648 5.70117C17.459 5.70117 17.2539 5.96094 16.8164 5.96094C16.3926 5.96094 16.0781 5.66016 16.0781 5.23633C16.0781 4.58008 16.7344 4.21094 17.8555 4.21094C18.8125 4.21094 19.5371 4.70312 19.5371 5.3457C19.5371 5.70117 19.3047 5.98828 19.0039 5.98828C18.5117 5.98828 18.252 5.70117 17.9648 5.70117ZM13.9453 27.8906C21.6426 27.8906 27.8906 21.6426 27.8906 13.9453C27.8906 6.24805 21.6426 0 13.9453 0C6.24805 0 0 6.24805 0 13.9453C0 21.6426 6.24805 27.8906 13.9453 27.8906ZM13.9453 26.0312C7.27344 26.0312 1.85938 20.6172 1.85938 13.9453C1.85938 7.27344 7.27344 1.85938 13.9453 1.85938C20.6172 1.85938 26.0312 7.27344 26.0312 13.9453C26.0312 20.6172 20.6172 26.0312 13.9453 26.0312Z" fill="white" fill-opacity="0.85"/>
 </g>
</svg>
