<?xml version="1.0" encoding="UTF-8"?>
<!--Generator: Apple Native CoreSVG 326-->
<!DOCTYPE svg
PUBLIC "-//W3C//DTD SVG 1.1//EN"
       "http://www.w3.org/Graphics/SVG/1.1/DTD/svg11.dtd">
<svg version="1.1" xmlns="http://www.w3.org/2000/svg" xmlns:xlink="http://www.w3.org/1999/xlink" viewBox="0 0 26.9609 30.7754">
 <g>
  <rect height="30.7754" opacity="0" width="26.9609" x="0" y="0"/>
  <path d="M6.80859 6.17969L8.36719 4.62109L4.08789 0.355469C3.66406-0.0820312 2.95312-0.0820312 2.5293 0.355469C2.10547 0.779297 2.10547 1.47656 2.5293 1.91406ZM24.3496 22.1484L22.8184 20.5762C20.6445 22.7773 17.623 24.1035 14.2461 24.1035C7.50586 24.1035 2.20117 18.7988 2.20117 12.0586C2.20117 8.69531 3.52734 5.67383 5.70117 3.51367L4.10156 2.00977C1.55859 4.56641 0 8.10742 0 12.0586C0 20.002 6.30273 26.3047 14.2461 26.3047C18.2246 26.3047 21.7793 24.7188 24.3496 22.1484ZM21.5469 17.8145L19.9199 19.291L24.7324 24.1035C25.1562 24.5273 25.8535 24.5273 26.2773 24.1035C26.7148 23.6797 26.7148 22.9688 26.2773 22.5449ZM13.1387 25.7305L13.1387 29.3672L15.3398 29.3672L15.3398 25.7305ZM9.33789 30.7754L19.1816 30.7754C19.7832 30.7754 20.2754 30.2832 20.2754 29.6816C20.2754 29.0801 19.7832 28.5742 19.1816 28.5742L9.33789 28.5742C8.73633 28.5742 8.23047 29.0801 8.23047 29.6816C8.23047 30.2832 8.73633 30.7754 9.33789 30.7754ZM14.2461 22.1074C19.7832 22.1074 24.2812 17.6094 24.2812 12.0586C24.2812 6.52148 19.7832 2.02344 14.2461 2.02344C8.69531 2.02344 4.19727 6.52148 4.19727 12.0586C4.19727 17.6094 8.69531 22.1074 14.2461 22.1074Z" fill="white" fill-opacity="0.85"/>
 </g>
</svg>
