<svg version="1.1" xmlns="http://www.w3.org/2000/svg" xmlns:xlink="http://www.w3.org/1999/xlink" viewBox="0 0 28.2461 27.9043">
 <g>
  
  <path d="M14.5195 24.459C17.1172 24.459 19.3047 20.4941 19.8652 19.5645C20.5762 18.4023 20.248 17.2402 20.248 16.5566C20.248 16.1328 21.6973 15.0801 21.6973 13.8359C21.6973 12.5781 18.8945 11.5391 18.8945 11.0332C18.8945 10.7051 19.168 10.3086 19.4414 10.3086C19.9746 10.3086 21.4512 12.209 22.3535 12.209C22.9004 12.209 23.0645 11.7305 23.2832 11.7305C23.6523 11.7305 23.9395 15.791 25.8262 16.625L26.4004 15.3672C24.6641 14.916 25.3066 10.2402 23.4336 10.2402C22.832 10.2402 22.4629 10.7734 22.2305 10.7734C22.0801 10.7734 21.7246 10.4727 20.918 9.81641C20.5215 9.50195 20.1113 9.07812 19.373 9.07812C18.4707 9.07812 17.5957 10.1035 17.5957 11.0469C17.5957 12.5371 20.3164 13.3164 20.3164 13.8359C20.3164 14.1504 20.1934 14.3965 19.6875 14.9707C19.127 15.5996 18.8672 16.0234 18.8672 16.5566C18.8672 16.7891 18.8945 17.0078 18.9082 17.2129C18.9766 18.1289 18.9355 18.4707 18.6758 18.9082C18.0469 19.8789 16.2559 23.0781 14.5195 23.0781C12.9746 23.0781 13.1113 20.8633 13.1113 18.8125C13.1113 16.8164 11.5254 15.3125 9.41992 15.3125C7.79297 15.3125 7.01367 14.5195 7.01367 12.9883C7.01367 10.8555 9.25586 9.46094 11.3887 9.46094C12.8242 9.46094 13.959 10.1855 15.0801 10.1855C15.9961 10.1855 16.6387 8.81836 16.6387 7.80664C16.6387 6.53516 13.9453 5.12695 13.125 5.12695C12.4551 5.12695 12.168 5.52344 12.1133 6.38477L12.3867 6.35742L11.9492 6.01562C11.375 5.5918 10.9238 5.3457 10.4043 5.3457C9.0918 5.3457 9.03711 7.10938 8.33984 7.10938C8.16211 7.10938 8.03906 6.98633 8.03906 6.79492C8.03906 6.19336 9.50195 4.96289 9.51562 3.26758L9.5293 2.16016L8.23047 2.16016L8.23047 3.39062C8.23047 5.03125 6.76758 5.63281 6.76758 6.93164C6.76758 7.72461 7.32812 8.24414 8.18945 8.24414C9.81641 8.24414 9.84375 6.52148 10.5 6.52148C11.0195 6.53516 11.6211 7.4375 12.6602 7.4375C13.2891 7.4375 13.5898 7 13.5625 6.23438L13.1797 6.35742C14.0137 6.6582 15.3398 7.31445 15.3398 7.92969C15.3398 8.28516 15.1895 8.80469 14.9023 8.80469C14.3145 8.80469 12.7695 8.08008 11.3887 8.08008C8.50391 8.08008 5.63281 10.0898 5.63281 12.9883C5.63281 15.2988 7 16.6934 9.41992 16.6934C10.7461 16.6934 11.7305 17.582 11.7305 18.8125C11.7305 20.8359 11.498 24.459 14.5195 24.459ZM18.2109 5.61914C18.5117 5.61914 18.7852 5.90625 19.291 5.90625C19.6055 5.90625 19.8379 5.61914 19.8379 5.25C19.8379 4.58008 19.0859 4.07422 18.1016 4.07422C16.9395 4.07422 16.2695 4.45703 16.2695 5.12695C16.2695 5.56445 16.5977 5.87891 17.0352 5.87891C17.4863 5.87891 17.6914 5.61914 18.2109 5.61914ZM13.9453 27.8906C21.6426 27.8906 27.8906 21.6426 27.8906 13.9453C27.8906 6.24805 21.6426 0 13.9453 0C6.24805 0 0 6.24805 0 13.9453C0 21.6426 6.24805 27.8906 13.9453 27.8906ZM13.9453 26.0312C7.27344 26.0312 1.85938 20.6172 1.85938 13.9453C1.85938 7.27344 7.27344 1.85938 13.9453 1.85938C20.6172 1.85938 26.0312 7.27344 26.0312 13.9453C26.0312 20.6172 20.6172 26.0312 13.9453 26.0312Z" style="fill:var(--color-0,hsl(0 0 0/0.85))"></path>
 </g>
</svg>