<svg version="1.1" xmlns="http://www.w3.org/2000/svg" xmlns:xlink="http://www.w3.org/1999/xlink" viewBox="0 0 19.1953 18.1699">
 <g>
  
  <path d="M1.16211 18.1699C1.54492 18.1699 1.80469 18.0469 2.07812 17.9102L17.4453 11.0059C18.2383 10.6367 18.8398 10.0352 18.8398 9.16016C18.8398 8.29883 18.2383 7.66992 17.4453 7.31445L2.07812 0.246094C1.81836 0.109375 1.57227 0.0136719 1.2168 0.0136719C0.492188 0.0136719 0 0.505859 0 1.23047C0 1.85938 0.328125 2.21484 0.902344 2.48828L15.6133 8.98242L15.6133 9.13281L0.902344 15.6816C0.328125 15.9551 0 16.3105 0 16.9395C0 17.6914 0.478516 18.1699 1.16211 18.1699Z" style="fill:var(--color-0,hsl(0 0 0/0.85))"></path>
 </g>
</svg>