<?xml version="1.0" encoding="UTF-8"?>
<!--Generator: Apple Native CoreSVG 326-->
<!DOCTYPE svg
PUBLIC "-//W3C//DTD SVG 1.1//EN"
       "http://www.w3.org/Graphics/SVG/1.1/DTD/svg11.dtd">
<svg version="1.1" xmlns="http://www.w3.org/2000/svg" xmlns:xlink="http://www.w3.org/1999/xlink" viewBox="0 0 28.2461 27.9043">
 <g>
  <rect height="27.9043" opacity="0" width="28.2461" x="0" y="0"/>
  <path d="M13.9453 27.8906C21.6426 27.8906 27.8906 21.6426 27.8906 13.9453C27.8906 6.24805 21.6426 0 13.9453 0C6.24805 0 0 6.24805 0 13.9453C0 21.6426 6.24805 27.8906 13.9453 27.8906ZM13.9453 25.5664C7.51953 25.5664 2.32422 20.3711 2.32422 13.9453C2.32422 7.51953 7.51953 2.32422 13.9453 2.32422C20.3711 2.32422 25.5664 7.51953 25.5664 13.9453C25.5664 20.3711 20.3711 25.5664 13.9453 25.5664Z" fill="white" fill-opacity="0.85"/>
  <path d="M18.9902 19.5781C18.9902 19.0449 18.5391 18.5938 17.9785 18.5938L10.0762 18.5938C9.51562 18.5938 9.07812 19.0449 9.07812 19.5781C9.07812 20.084 9.51562 20.5762 10.0762 20.5762L17.9785 20.5762C18.5391 20.5762 18.9902 20.084 18.9902 19.5781ZM10.541 16.4883C10.6914 16.4883 10.8555 16.4473 11.1699 16.3105L17.9512 13.2754C18.6074 13.002 18.8398 12.5781 18.8398 11.9902C18.8398 11.457 18.5938 11.0059 17.9512 10.7051L11.1699 7.68359C10.8555 7.54688 10.6914 7.51953 10.541 7.51953C9.93945 7.51953 9.5293 7.98438 9.5293 8.49023C9.5293 8.88672 9.76172 9.25586 10.1582 9.44727L15.8867 11.9766L15.8867 12.0176L10.1582 14.5605C9.76172 14.7246 9.5293 15.0938 9.5293 15.5039C9.5293 16.0098 9.93945 16.4883 10.541 16.4883Z" fill="white" fill-opacity="0.85"/>
 </g>
</svg>
