<?xml version="1.0" encoding="UTF-8"?>
<!--Generator: Apple Native CoreSVG 326-->
<!DOCTYPE svg
PUBLIC "-//W3C//DTD SVG 1.1//EN"
       "http://www.w3.org/Graphics/SVG/1.1/DTD/svg11.dtd">
<svg version="1.1" xmlns="http://www.w3.org/2000/svg" xmlns:xlink="http://www.w3.org/1999/xlink" viewBox="0 0 25.5254 25.1699">
 <g>
  <rect height="25.1699" opacity="0" width="25.5254" x="0" y="0"/>
  <path d="M4.29297 25.1699L20.877 25.1699C23.748 25.1699 25.1699 23.7617 25.1699 20.9453L25.1699 4.23828C25.1699 1.42188 23.748 0 20.877 0L4.29297 0C1.43555 0 0 1.42188 0 4.23828L0 20.9453C0 23.7617 1.43555 25.1699 4.29297 25.1699ZM4.32031 22.9688C2.95312 22.9688 2.20117 22.2441 2.20117 20.8223L2.20117 4.36133C2.20117 2.93945 2.95312 2.20117 4.32031 2.20117L20.8496 2.20117C22.2031 2.20117 22.9688 2.93945 22.9688 4.36133L22.9688 20.8223C22.9688 22.2441 22.2031 22.9688 20.8496 22.9688Z" fill="white" fill-opacity="0.85"/>
  <path d="M9.05078 18.1699C9.32422 18.1699 9.51562 18.1152 9.7207 18.0195L17.8691 13.7812C18.4297 13.4805 18.6758 13.1387 18.6758 12.5781C18.6758 12.0586 18.4023 11.6758 17.8691 11.375L9.7207 6.98633C9.50195 6.87695 9.32422 6.82227 9.02344 6.82227C8.39453 6.82227 7.91602 7.28711 7.91602 7.90234C7.91602 8.4082 8.16211 8.73633 8.72266 9.00977L15.6543 12.4961L15.6543 12.5781L8.72266 15.9824C8.14844 16.2559 7.91602 16.5566 7.91602 17.0762C7.91602 17.7051 8.4082 18.1699 9.05078 18.1699Z" fill="white" fill-opacity="0.85"/>
 </g>
</svg>
