<?xml version="1.0" encoding="UTF-8"?>
<!--Generator: Apple Native CoreSVG 326-->
<!DOCTYPE svg
PUBLIC "-//W3C//DTD SVG 1.1//EN"
       "http://www.w3.org/Graphics/SVG/1.1/DTD/svg11.dtd">
<svg version="1.1" xmlns="http://www.w3.org/2000/svg" xmlns:xlink="http://www.w3.org/1999/xlink" viewBox="0 0 28.2461 27.9043">
 <g>
  <rect height="27.9043" opacity="0" width="28.2461" x="0" y="0"/>
  <path d="M13.9453 27.8906C21.6426 27.8906 27.8906 21.6289 27.8906 13.9453C27.8906 6.24805 21.6426 0 13.9453 0C6.26172 0 0 6.24805 0 13.9453C0 21.6289 6.26172 27.8906 13.9453 27.8906Z" fill="white" fill-opacity="0.85"/>
  <path d="M19.168 19.7559C19.168 20.2754 18.7031 20.7812 18.1152 20.7812L9.9668 20.7812C9.37891 20.7812 8.92773 20.2754 8.92773 19.7559C8.92773 19.1953 9.37891 18.7305 9.9668 18.7305L18.1152 18.7305C18.7031 18.7305 19.168 19.1953 19.168 19.7559ZM10.4453 16.5703C9.83008 16.5703 9.39258 16.0645 9.39258 15.5449C9.39258 15.1211 9.63867 14.7383 10.0488 14.5742L15.9414 11.9492L15.9414 11.9082L10.0488 9.31055C9.63867 9.10547 9.39258 8.72266 9.39258 8.3125C9.39258 7.79297 9.83008 7.31445 10.4453 7.31445C10.6094 7.31445 10.7734 7.3418 11.1016 7.47852L18.0879 10.5957C18.7578 10.9102 19.0039 11.375 19.0039 11.9219C19.0039 12.5371 18.7715 12.9746 18.0879 13.2617L11.1016 16.3789C10.7734 16.5293 10.6094 16.5703 10.4453 16.5703Z" fill="white"/>
 </g>
</svg>
