<svg version="1.1" xmlns="http://www.w3.org/2000/svg" xmlns:xlink="http://www.w3.org/1999/xlink" viewBox="0 0 25.5254 25.1699">
 <g>
  
  <path d="M4.29297 25.1699L20.877 25.1699C23.748 25.1699 25.1699 23.7617 25.1699 20.9453L25.1699 4.23828C25.1699 1.42188 23.748 0 20.877 0L4.29297 0C1.43555 0 0 1.42188 0 4.23828L0 20.9453C0 23.7617 1.43555 25.1699 4.29297 25.1699ZM4.32031 22.9688C2.95312 22.9688 2.20117 22.2441 2.20117 20.8223L2.20117 4.36133C2.20117 2.93945 2.95312 2.20117 4.32031 2.20117L20.8496 2.20117C22.2031 2.20117 22.9688 2.93945 22.9688 4.36133L22.9688 20.8223C22.9688 22.2441 22.2031 22.9688 20.8496 22.9688Z" style="fill:var(--color-0,hsl(0 0 0/0.85))"></path>
  <path d="M17.6504 18.2109C17.6504 17.6777 17.1992 17.2266 16.6387 17.2266L8.73633 17.2266C8.17578 17.2266 7.73828 17.6777 7.73828 18.2109C7.73828 18.7168 8.17578 19.209 8.73633 19.209L16.6387 19.209C17.1992 19.209 17.6504 18.7168 17.6504 18.2109ZM9.21484 15.1211C9.35156 15.1211 9.51562 15.0801 9.83008 14.9434L16.6113 11.9082C17.2676 11.6348 17.5 11.2109 17.5 10.623C17.5 10.0898 17.2539 9.63867 16.6113 9.33789L9.83008 6.31641C9.51562 6.17969 9.35156 6.15234 9.21484 6.15234C8.59961 6.15234 8.18945 6.61719 8.18945 7.12305C8.18945 7.51953 8.42188 7.88867 8.81836 8.08008L14.5469 10.6094L14.5469 10.6504L8.81836 13.1934C8.42188 13.3574 8.18945 13.7266 8.18945 14.1367C8.18945 14.6426 8.59961 15.1211 9.21484 15.1211Z" style="fill:var(--color-1,hsl(0 0 0/0.85))"></path>
 </g>
</svg>