<svg version="1.1" xmlns="http://www.w3.org/2000/svg" xmlns:xlink="http://www.w3.org/1999/xlink" viewBox="0 0 25.5254 25.1699">
 <g>
  
  <path d="M4.29297 25.1699L20.877 25.1699C23.748 25.1699 25.1699 23.7617 25.1699 20.9453L25.1699 4.23828C25.1699 1.42188 23.748 0 20.877 0L4.29297 0C1.43555 0 0 1.42188 0 4.23828L0 20.9453C0 23.7617 1.43555 25.1699 4.29297 25.1699Z" style="fill:var(--color-0,hsl(0 0 0/0.85))"></path>
  <path d="M17.8145 18.3887C17.8145 18.9082 17.3496 19.4141 16.7617 19.4141L8.61328 19.4141C8.02539 19.4141 7.57422 18.9082 7.57422 18.3887C7.57422 17.8281 8.02539 17.3633 8.61328 17.3633L16.7617 17.3633C17.3496 17.3633 17.8145 17.8281 17.8145 18.3887ZM9.10547 15.2031C8.47656 15.2031 8.03906 14.6973 8.03906 14.1777C8.03906 13.7539 8.28516 13.3711 8.69531 13.207L14.5879 10.582L14.5879 10.541L8.69531 7.94336C8.28516 7.73828 8.03906 7.35547 8.03906 6.94531C8.03906 6.42578 8.47656 5.94727 9.10547 5.94727C9.25586 5.94727 9.41992 5.97461 9.74805 6.11133L16.7344 9.22852C17.4043 9.54297 17.6504 10.0078 17.6504 10.5547C17.6504 11.1699 17.418 11.6074 16.7344 11.8945L9.74805 15.0117C9.41992 15.1621 9.25586 15.2031 9.10547 15.2031Z" style="fill:var(--color-1,white)"></path>
 </g>
</svg>