<svg version="1.1" xmlns="http://www.w3.org/2000/svg" xmlns:xlink="http://www.w3.org/1999/xlink" viewBox="0 0 28.2461 27.9043">
 <g>
  
  <path d="M13.9453 27.8906C21.6426 27.8906 27.8906 21.6426 27.8906 13.9453C27.8906 6.24805 21.6426 0 13.9453 0C6.24805 0 0 6.24805 0 13.9453C0 21.6426 6.24805 27.8906 13.9453 27.8906ZM13.9453 25.5664C7.51953 25.5664 2.32422 20.3711 2.32422 13.9453C2.32422 7.51953 7.51953 2.32422 13.9453 2.32422C20.3711 2.32422 25.5664 7.51953 25.5664 13.9453C25.5664 20.3711 20.3711 25.5664 13.9453 25.5664Z" style="fill:var(--color-0,hsl(0 0 0/0.85))"></path>
  <path d="M10.3906 19.5371C10.6641 19.5371 10.8555 19.4824 11.0469 19.3867L19.1953 15.1484C19.7695 14.8477 20.0156 14.5059 20.0156 13.9453C20.0156 13.4258 19.7422 13.043 19.1953 12.7422L11.0469 8.35352C10.8418 8.24414 10.6641 8.18945 10.3633 8.18945C9.73438 8.18945 9.25586 8.6543 9.25586 9.26953C9.25586 9.77539 9.50195 10.1035 10.0625 10.377L16.9805 13.8633L16.9805 13.9453L10.0625 17.3496C9.48828 17.623 9.25586 17.9238 9.25586 18.4434C9.25586 19.0723 9.74805 19.5371 10.3906 19.5371Z" style="fill:var(--color-1,hsl(0 0 0/0.85))"></path>
 </g>
</svg>