<svg version="1.1" xmlns="http://www.w3.org/2000/svg" xmlns:xlink="http://www.w3.org/1999/xlink" viewBox="0 0 16.9121 22.8457">
 <g>
  
  <path d="M16.5566 21.6152C16.5566 20.9453 15.9961 20.3984 15.3398 20.3984L1.2168 20.3984C0.560547 20.3984 0 20.9453 0 21.6152C0 22.2988 0.560547 22.8457 1.2168 22.8457L15.3398 22.8457C15.9961 22.8457 16.5566 22.2988 16.5566 21.6152ZM1.87305 15.8867C2.25586 15.8867 2.51562 15.791 2.78906 15.6543L15.1621 9.80273C15.9551 9.41992 16.5566 8.87305 16.5566 7.99805C16.5566 7.13672 15.9551 6.5625 15.1621 6.19336L2.78906 0.314453C2.54297 0.191406 2.2832 0.0957031 1.92773 0.0957031C1.2168 0.0957031 0.710938 0.587891 0.710938 1.3125C0.710938 1.94141 1.05273 2.31055 1.61328 2.55664L13.3301 7.82031L13.3301 7.9707L1.61328 13.4395C1.06641 13.6855 0.710938 14.0273 0.710938 14.6562C0.710938 15.4082 1.20312 15.8867 1.87305 15.8867Z" style="fill:var(--color-0,hsl(0 0 0/0.85))"></path>
 </g>
</svg>