<svg version="1.1" xmlns="http://www.w3.org/2000/svg" xmlns:xlink="http://www.w3.org/1999/xlink" viewBox="0 0 23.0781 30.7359">
 <g>
  
  <path d="M2.69336 27.8982L18.2383 30.6463C21.0273 31.1384 22.7227 29.5798 22.7227 26.5447L22.7227 9.63258C22.7227 6.84352 21.2871 5.8318 18.5117 5.33961L3.43164 2.68727C1.35352 2.31813 0 3.45289 0 5.49L0 24.7947C0 26.5447 0.902344 27.5838 2.69336 27.8982ZM3.22656 25.7244C2.5293 25.6013 2.20117 25.2048 2.20117 24.4802L2.20117 5.85914C2.20117 5.13453 2.69336 4.76539 3.5 4.88844L18.4023 7.51344C19.7832 7.75953 20.5215 8.33375 20.5215 9.60524L20.5215 26.2986C20.5215 27.8572 19.6191 28.6365 18.1426 28.363ZM19.3047 7.03492L21.5059 7.03492L21.5059 3.83571C21.5059 0.95094 19.5781-0.416247 16.3379 0.157971L2.05078 2.6736L2.87109 4.58766L17.1172 2.22242C18.4844 1.99 19.3047 2.56422 19.3047 3.75367ZM4.01953 11.2595C4.01953 12.408 5.81055 12.408 5.81055 11.3279L5.81055 9.49586C5.81055 9.12672 6.0293 8.96266 6.45312 9.03102L8.25781 9.35914C9.41992 9.56422 9.65234 7.81422 8.61328 7.62282L5.6875 7.10328C4.64844 6.92555 4.01953 7.37672 4.01953 8.37477ZM16.9121 13.488C16.9121 14.6365 18.7031 14.7459 18.7031 13.488L18.7031 11.2048C18.7031 9.93336 18.0879 9.29078 16.5703 9.01735L15.1484 8.77125C13.9043 8.5525 13.6035 10.2888 14.8477 10.5076L15.9824 10.7127C16.7891 10.8494 16.9121 11.3416 16.9121 11.7517ZM5.81055 19.9685C5.81055 18.8201 4.01953 18.7107 4.01953 19.9685L4.01953 22.2517C4.01953 23.5232 4.63477 24.1658 6.15234 24.4392L7.57422 24.6853C8.81836 24.9041 9.11914 23.1541 7.875 22.949L6.74023 22.7439C5.93359 22.6072 5.81055 22.115 5.81055 21.7048ZM18.7031 22.197C18.7031 21.0486 16.9121 21.0486 16.9121 22.1287L16.9121 23.9607C16.9121 24.3298 16.6934 24.4939 16.2695 24.4255L14.4648 24.0974C13.3027 23.8923 13.0703 25.6423 14.1094 25.8338L17.0352 26.3533C18.0742 26.531 18.7031 26.0798 18.7031 25.0818Z" style="fill:var(--color-0,hsl(0 0 0/0.85))"></path>
 </g>
</svg>