<svg version="1.1" xmlns="http://www.w3.org/2000/svg" xmlns:xlink="http://www.w3.org/1999/xlink" viewBox="0 0 28.2461 27.9043">
 <g>
  
  <path d="M13.9453 27.8906C21.6426 27.8906 27.8906 21.6426 27.8906 13.9453C27.8906 6.24805 21.6426 0 13.9453 0C6.24805 0 0 6.24805 0 13.9453C0 21.6426 6.24805 27.8906 13.9453 27.8906ZM13.9453 25.5664C7.51953 25.5664 2.32422 20.3711 2.32422 13.9453C2.32422 7.51953 7.51953 2.32422 13.9453 2.32422C20.3711 2.32422 25.5664 7.51953 25.5664 13.9453C25.5664 20.3711 20.3711 25.5664 13.9453 25.5664Z" style="fill:var(--color-0,hsl(0 0 0/0.85))"></path>
  <path d="M6.11133 16.625C6.11133 17.2402 6.49414 17.5957 7.12305 17.5957L10.2539 17.5957L10.2539 20.7402C10.2539 21.3691 10.623 21.7383 11.2246 21.7383C11.7988 21.7383 12.168 21.3691 12.168 20.7402L12.168 17.5957L15.6953 17.5957L15.6953 20.7402C15.6953 21.3691 16.0508 21.7383 16.6523 21.7383C17.2402 21.7383 17.6094 21.3691 17.6094 20.7402L17.6094 17.5957L20.7402 17.5957C21.3691 17.5957 21.752 17.2402 21.752 16.625C21.752 16.0508 21.3691 15.6816 20.7402 15.6816L17.6094 15.6816L17.6094 12.1953L20.7402 12.1953C21.3691 12.1953 21.752 11.8125 21.752 11.2383C21.752 10.6367 21.3691 10.2812 20.7402 10.2812L17.6094 10.2812L17.6094 7.13672C17.6094 6.49414 17.2402 6.125 16.6523 6.125C16.0508 6.125 15.6953 6.49414 15.6953 7.13672L15.6953 10.2812L12.168 10.2812L12.168 7.13672C12.168 6.49414 11.7988 6.125 11.2246 6.125C10.623 6.125 10.2539 6.49414 10.2539 7.13672L10.2539 10.2812L7.12305 10.2812C6.49414 10.2812 6.11133 10.6367 6.11133 11.2383C6.11133 11.8125 6.49414 12.1953 7.12305 12.1953L10.2539 12.1953L10.2539 15.6816L7.12305 15.6816C6.49414 15.6816 6.11133 16.0508 6.11133 16.625ZM12.1816 15.6816L12.1816 12.1953L15.709 12.1953L15.709 15.6816Z" style="fill:var(--color-1,hsl(0 0 0/0.85))"></path>
 </g>
</svg>