<?xml version="1.0" encoding="UTF-8"?>
<!--Generator: Apple Native CoreSVG 326-->
<!DOCTYPE svg
PUBLIC "-//W3C//DTD SVG 1.1//EN"
       "http://www.w3.org/Graphics/SVG/1.1/DTD/svg11.dtd">
<svg version="1.1" xmlns="http://www.w3.org/2000/svg" xmlns:xlink="http://www.w3.org/1999/xlink" viewBox="0 0 26.7969 25.9902">
 <g>
  <rect height="25.9902" opacity="0" width="26.7969" x="0" y="0"/>
  <path d="M8.17578 25.9082C8.80469 25.9082 9.20117 25.498 9.20117 24.8281L9.20117 1.09375C9.20117 0.423828 8.80469 0 8.17578 0C7.51953 0 7.13672 0.423828 7.13672 1.09375L7.13672 24.8281C7.13672 25.498 7.51953 25.9082 8.17578 25.9082ZM18.1973 25.9082C18.8262 25.9082 19.2227 25.498 19.2227 24.8281L19.2227 1.09375C19.2227 0.423828 18.8262 0 18.1973 0C17.541 0 17.1582 0.423828 17.1582 1.09375L17.1582 24.8281C17.1582 25.498 17.541 25.9082 18.1973 25.9082ZM1.09375 18.8945L25.3477 18.8945C26.0312 18.8945 26.4414 18.498 26.4414 17.8555C26.4414 17.2129 26.0312 16.8301 25.3477 16.8301L1.09375 16.8301C0.410156 16.8301 0 17.2129 0 17.8555C0 18.498 0.410156 18.8945 1.09375 18.8945ZM1.09375 9.13281L25.3477 9.13281C26.0312 9.13281 26.4414 8.73633 26.4414 8.10742C26.4414 7.46484 26.0312 7.06836 25.3477 7.06836L1.09375 7.06836C0.410156 7.06836 0 7.46484 0 8.10742C0 8.73633 0.410156 9.13281 1.09375 9.13281Z" fill="white" fill-opacity="0.85"/>
 </g>
</svg>
