<?xml version="1.0" encoding="UTF-8"?>
<!--Generator: Apple Native CoreSVG 326-->
<!DOCTYPE svg
PUBLIC "-//W3C//DTD SVG 1.1//EN"
       "http://www.w3.org/Graphics/SVG/1.1/DTD/svg11.dtd">
<svg version="1.1" xmlns="http://www.w3.org/2000/svg" xmlns:xlink="http://www.w3.org/1999/xlink" viewBox="0 0 28.2461 27.9043">
 <g>
  <rect height="27.9043" opacity="0" width="28.2461" x="0" y="0"/>
  <path d="M13.9453 27.8906C21.6426 27.8906 27.8906 21.6426 27.8906 13.9453C27.8906 6.24805 21.6426 0 13.9453 0C6.24805 0 0 6.24805 0 13.9453C0 21.6426 6.24805 27.8906 13.9453 27.8906ZM13.9453 25.5664C7.51953 25.5664 2.32422 20.3711 2.32422 13.9453C2.32422 7.51953 7.51953 2.32422 13.9453 2.32422C20.3711 2.32422 25.5664 7.51953 25.5664 13.9453C25.5664 20.3711 20.3711 25.5664 13.9453 25.5664Z" fill="white" fill-opacity="0.85"/>
  <path d="M14.0137 19.9883C17.0488 19.9883 18.8125 18.1699 18.8125 15.0527L18.8125 14.4648C18.8125 13.9453 18.498 13.6172 18.0195 13.6172L14.2871 13.6172L14.2871 14.9297L17.2539 14.9297L17.2539 15.3945C17.2539 17.3086 16.0781 18.5801 14.0273 18.5801C11.5527 18.5801 10.3359 16.4336 10.3359 13.8633C10.3359 11.4434 11.4434 9.17383 14 9.17383C15.3945 9.17383 16.6934 9.9668 17.0898 11.2383C17.2402 11.6484 17.4316 11.8398 17.8691 11.8398C18.293 11.8398 18.5801 11.5527 18.5801 11.1289C18.5801 10.9648 18.5664 10.7324 18.457 10.5C17.7871 8.70898 15.832 7.7793 14 7.7793C10.5137 7.7793 8.6543 10.4453 8.6543 13.877C8.6543 17.4316 10.623 19.9883 14.0137 19.9883ZM13.9453 21.5742C14.2188 21.5742 14.4102 21.3828 14.4102 21.1094L14.4102 6.68555C14.4102 6.39844 14.2188 6.20703 13.9453 6.20703C13.6719 6.20703 13.4805 6.39844 13.4805 6.68555L13.4805 21.1094C13.4805 21.3828 13.6719 21.5742 13.9453 21.5742Z" fill="white" fill-opacity="0.85"/>
 </g>
</svg>
