<?xml version="1.0" encoding="UTF-8"?>
<!--Generator: Apple Native CoreSVG 326-->
<!DOCTYPE svg
PUBLIC "-//W3C//DTD SVG 1.1//EN"
       "http://www.w3.org/Graphics/SVG/1.1/DTD/svg11.dtd">
<svg version="1.1" xmlns="http://www.w3.org/2000/svg" xmlns:xlink="http://www.w3.org/1999/xlink" viewBox="0 0 25.5254 25.1699">
 <g>
  <rect height="25.1699" opacity="0" width="25.5254" x="0" y="0"/>
  <path d="M4.29297 25.1699L20.877 25.1699C23.748 25.1699 25.1699 23.7617 25.1699 20.9453L25.1699 4.23828C25.1699 1.42188 23.748 0 20.877 0L4.29297 0C1.43555 0 0 1.42188 0 4.23828L0 20.9453C0 23.7617 1.43555 25.1699 4.29297 25.1699Z" fill="white" fill-opacity="0.85"/>
  <path d="M12.6328 20.4531C12.332 20.4531 12.127 20.248 12.127 19.9746L12.127 18.7988C8.96875 18.5391 7.15039 15.9824 7.15039 12.5098C7.15039 9.14648 8.88672 6.49414 12.127 6.23438L12.127 5.08594C12.127 4.79883 12.332 4.59375 12.6328 4.59375C12.8926 4.59375 13.0977 4.79883 13.0977 5.08594L13.0977 6.23438C14.8613 6.37109 16.625 7.31445 17.2676 9.02344C17.377 9.26953 17.3906 9.50195 17.3906 9.67969C17.3906 10.1172 17.1035 10.4043 16.666 10.4043C16.2012 10.4043 16.0234 10.2129 15.8457 9.78906C15.4902 8.61328 14.3828 7.83398 13.0977 7.68359L13.0977 12.2363L16.8164 12.2363C17.3086 12.2363 17.6367 12.5781 17.6367 13.1113L17.6367 13.7266C17.6367 16.8027 15.9688 18.6484 13.0977 18.8125L13.0977 19.9746C13.0977 20.248 12.8926 20.4531 12.6328 20.4531ZM8.88672 12.4961C8.88672 14.9434 9.9668 17.0078 12.127 17.3223L12.127 7.71094C9.88477 7.99805 8.88672 10.1855 8.88672 12.4961ZM13.0977 17.3359C14.957 17.1992 16.0234 15.9141 16.0234 14.082L16.0234 13.6035L13.0977 13.6035Z" fill="white"/>
 </g>
</svg>
