<?xml version="1.0" encoding="UTF-8"?>
<!--Generator: Apple Native CoreSVG 326-->
<!DOCTYPE svg
PUBLIC "-//W3C//DTD SVG 1.1//EN"
       "http://www.w3.org/Graphics/SVG/1.1/DTD/svg11.dtd">
<svg version="1.1" xmlns="http://www.w3.org/2000/svg" xmlns:xlink="http://www.w3.org/1999/xlink" viewBox="0 0 30.8848 29.1895">
 <g>
  <rect height="29.1895" opacity="0" width="30.8848" x="0" y="0"/>
  <path d="M1.81836 25.9219L28.7109 25.9219L28.7109 25.0059C28.7109 24.459 28.3965 24.1309 27.8359 24.1309L26.9609 24.1309L26.9609 9.37891L28.1641 9.37891C28.916 9.37891 29.3535 8.83203 29.3535 8.27148C29.3535 7.86133 29.1211 7.50586 28.6152 7.21875L16.9395 0.478516C16.3926 0.164062 15.8184 0 15.2578 0C14.6973 0 14.1094 0.164062 13.5898 0.478516L1.91406 7.21875C1.39453 7.50586 1.17578 7.86133 1.17578 8.27148C1.17578 8.83203 1.61328 9.37891 2.36523 9.37891L3.56836 9.37891L3.56836 24.1309L2.70703 24.1309C2.14648 24.1309 1.81836 24.459 1.81836 25.0059ZM5.63281 24.1309L5.63281 7.62891L14.7246 2.5293C14.8887 2.43359 15.0801 2.37891 15.2578 2.37891C15.4355 2.37891 15.627 2.43359 15.8047 2.5293L24.8965 7.62891L24.8965 24.1309ZM1.09375 29.1758L29.4219 29.1758C30.0234 29.1758 30.5293 28.6699 30.5293 28.0684C30.5293 27.4668 30.0234 26.9746 29.4219 26.9746L1.09375 26.9746C0.492188 26.9746 0 27.4668 0 28.0684C0 28.6699 0.492188 29.1758 1.09375 29.1758Z" fill="white" fill-opacity="0.85"/>
  <path d="M15.3535 20.4395C18.3887 20.4395 20.1523 18.6074 20.1523 15.4902L20.1523 14.9023C20.1523 14.3828 19.8379 14.0684 19.3594 14.0684L15.627 14.0684L15.627 15.3672L18.5938 15.3672L18.5938 15.8457C18.5938 17.7461 17.418 19.0312 15.3672 19.0312C12.8926 19.0312 11.6758 16.8711 11.6758 14.3008C11.6758 11.8809 12.7832 9.625 15.3398 9.625C16.7344 9.625 18.0332 10.418 18.4297 11.6895C18.5801 12.0996 18.7715 12.2773 19.209 12.2773C19.6328 12.2773 19.9199 12.0039 19.9199 11.5801C19.9199 11.4023 19.8926 11.1836 19.7969 10.9375C19.127 9.14648 17.1719 8.2168 15.3398 8.2168C11.8535 8.2168 9.99414 10.8965 9.99414 14.3145C9.99414 17.8691 11.9629 20.4395 15.3535 20.4395ZM15.2852 22.0117C15.5586 22.0117 15.75 21.8203 15.75 21.5605L15.75 7.12305C15.75 6.83594 15.5586 6.6582 15.2852 6.6582C15.0117 6.6582 14.8203 6.83594 14.8203 7.12305L14.8203 21.5605C14.8203 21.8203 15.0117 22.0117 15.2852 22.0117Z" fill="white" fill-opacity="0.85"/>
 </g>
</svg>
