<svg version="1.1" xmlns="http://www.w3.org/2000/svg" xmlns:xlink="http://www.w3.org/1999/xlink" viewBox="0 0 36.9612 30.6934">
 <g>
  
  <path d="M31.2843 1.35352L31.4894 4.73047C31.5167 4.96289 31.421 5.11328 31.1476 5.29102C30.8195 5.50977 30.7374 5.67383 30.7374 6.24805L30.7374 14.3555C33.0343 14.6289 34.3468 15.8047 34.3468 17.6504C34.3468 18.7852 33.9503 19.6055 33.9503 20.5352C33.9503 21.752 35.7824 22.4492 35.7824 25.2383C35.7824 28.0273 33.4171 29.7773 29.7121 29.7773C27.5277 29.7773 25.8091 29.1691 24.7718 28.0944C25.5034 27.0987 25.9113 25.8538 25.9113 24.4316C25.9113 23.0581 25.5906 22.0544 25.2281 21.3188C25.3782 21.0638 25.4738 20.813 25.4738 20.5352C25.4738 19.6055 25.0773 18.7852 25.0773 17.6504C25.0773 15.8047 26.3898 14.6289 28.673 14.3555L28.673 6.24805C28.673 5.67383 28.6046 5.50977 28.2765 5.29102C28.0031 5.11328 27.9074 4.96289 27.9347 4.73047L28.1398 1.35352C28.1535 1.08008 28.3449 0.888672 28.591 0.888672L30.8331 0.888672C31.0792 0.888672 31.2706 1.08008 31.2843 1.35352ZM27.9074 24.2539C27.5792 24.2539 27.2785 24.5547 27.2785 24.8965C27.2785 25.2383 27.5656 25.5117 27.9074 25.5117L31.4894 25.5117C31.8312 25.5117 32.1183 25.2383 32.1183 24.8965C32.1183 24.541 31.8312 24.2539 31.4894 24.2539ZM28.1808 20.1387C28.1808 20.9727 28.8507 21.6562 29.7121 21.6562C30.5597 21.6562 31.2296 20.9727 31.2296 20.1387C31.2296 19.291 30.5597 18.6074 29.7121 18.6074C28.8644 18.6074 28.1808 19.291 28.1808 20.1387Z" style="fill:var(--color-0,hsl(0 0 0/0.85))"></path>
  <path d="M19.5402 1.09375L20.7023 2.11914C20.9074 2.29688 21.0031 2.5293 20.9894 2.77539L20.716 5.56445C20.6749 5.94727 20.5929 6.11133 20.2921 6.20703C20.046 6.28906 20.0324 6.34375 20.0324 6.75391L20.0187 15.1484C20.0187 15.627 20.0597 16.2695 20.4015 16.2695C20.5929 16.2695 20.798 15.9824 21.0851 15.5996C21.4269 15.1074 21.9191 14.6016 22.7531 14.6016C23.6691 14.6016 24.3117 15.2988 24.3117 16.2832C24.3117 17.6504 23.382 18.5117 23.382 19.5781C23.382 20.4805 25.0773 21.7246 25.0773 24.4316C25.0773 27.6992 22.6574 29.8594 18.9933 29.8594C17.8805 29.8594 16.8825 29.6601 16.0344 29.2885C16.3143 28.605 16.285 27.7726 15.9718 27.0566L13.5806 21.6628C14.0539 20.7177 14.6046 20.0924 14.6046 19.5781C14.6046 18.5117 13.6749 17.6504 13.6749 16.2832C13.6749 15.2988 14.3175 14.6016 15.2335 14.6016C16.0675 14.6016 16.5597 15.1074 16.9152 15.5996C17.1886 15.9824 17.3937 16.2695 17.5851 16.2695C17.9269 16.2695 17.9679 15.627 17.9679 15.1484L17.9542 6.75391C17.9542 6.34375 17.9406 6.28906 17.6945 6.20703C17.3937 6.11133 17.3117 5.94727 17.2706 5.56445L16.9972 2.77539C16.9835 2.5293 17.0792 2.29688 17.2843 2.11914L18.4464 1.09375C18.6242 0.943359 18.8292 0.888672 18.9933 0.888672C19.171 0.888672 19.3624 0.943359 19.5402 1.09375ZM16.8195 20.248L15.6437 23.4746C15.548 23.7617 15.6984 24.1035 15.9855 24.1992C16.2863 24.3086 16.6144 24.1582 16.7238 23.8574L17.8996 20.6445C18.0089 20.3438 17.8449 20.002 17.5578 19.9062C17.257 19.7969 16.9289 19.9473 16.8195 20.248ZM20.4425 19.9062C20.1554 20.002 19.9777 20.3438 20.0871 20.6445L21.2628 23.8574C21.3722 24.1582 21.7003 24.3086 22.0011 24.1992C22.2882 24.1035 22.4523 23.7617 22.3566 23.4746L21.1808 20.248C21.0714 19.9473 20.7433 19.7969 20.4425 19.9062Z" style="fill:var(--color-1,hsl(0 0 0/0.85))"></path>
  <path d="M1.02846 27.3848C0.536272 28.5059 0.932756 29.8184 2.39565 29.8184C2.92885 29.8184 3.38002 29.5859 4.0226 29.0527L7.76869 25.9219C7.91908 25.7988 8.02846 25.7441 8.11049 25.7441C8.20619 25.7441 8.3019 25.7988 8.45229 25.9219L12.1984 29.0527C12.8546 29.5859 13.2921 29.8184 13.839 29.8184C15.2882 29.8184 15.6984 28.5059 15.1925 27.3848L9.14955 13.7266L9.14955 7.38281C9.14955 4.26562 9.66908 1.94141 9.66908 1.50391C9.66908 1.12109 9.43666 0.888672 9.08119 0.888672C8.8351 0.888672 8.63002 1.03906 8.3019 1.39453L5.28041 4.85352C5.03432 5.14062 5.10268 5.48242 5.41713 5.64648C6.62026 6.16602 7.07143 6.37109 7.07143 7.38281L7.07143 13.7129ZM10.0656 22.0391C9.69643 22.0391 9.39565 21.7246 9.39565 21.3828C9.39565 21 9.7101 20.6719 10.0656 20.6719C10.4484 20.6719 10.7492 20.9863 10.7492 21.3828C10.7492 21.7383 10.4484 22.0391 10.0656 22.0391ZM10.5304 23.1328C10.1613 23.1328 9.83315 22.8184 9.83315 22.4492C9.83315 22.0801 10.1613 21.752 10.5304 21.752C10.8996 21.752 11.2277 22.0664 11.2277 22.4492C11.2277 22.8184 10.8996 23.1328 10.5304 23.1328ZM10.9679 24.1992C10.5988 24.1992 10.3117 23.8984 10.3117 23.5293C10.3117 23.1602 10.6124 22.832 10.9679 22.832C11.3644 22.832 11.6652 23.1602 11.6652 23.5293C11.6652 23.8848 11.3371 24.1992 10.9679 24.1992Z" style="fill:var(--color-2,hsl(0 0 0/0.85))"></path>
 </g>
</svg>