<?xml version="1.0" encoding="UTF-8"?>
<!--Generator: Apple Native CoreSVG 326-->
<!DOCTYPE svg
PUBLIC "-//W3C//DTD SVG 1.1//EN"
       "http://www.w3.org/Graphics/SVG/1.1/DTD/svg11.dtd">
<svg version="1.1" xmlns="http://www.w3.org/2000/svg" xmlns:xlink="http://www.w3.org/1999/xlink" viewBox="0 0 28.2461 27.9043">
 <g>
  <rect height="27.9043" opacity="0" width="28.2461" x="0" y="0"/>
  <path d="M13.9453 27.8906C21.6426 27.8906 27.8906 21.6426 27.8906 13.9453C27.8906 6.24805 21.6426 0 13.9453 0C6.24805 0 0 6.24805 0 13.9453C0 21.6426 6.24805 27.8906 13.9453 27.8906ZM13.9453 25.5664C7.51953 25.5664 2.32422 20.3711 2.32422 13.9453C2.32422 7.51953 7.51953 2.32422 13.9453 2.32422C20.3711 2.32422 25.5664 7.51953 25.5664 13.9453C25.5664 20.3711 20.3711 25.5664 13.9453 25.5664Z" fill="white" fill-opacity="0.85"/>
  <path d="M9.61133 20.207C10.3223 20.207 10.7188 19.7559 10.7188 18.9902L10.7188 14.4785L17.1172 14.4785L17.1172 18.9902C17.1172 19.7422 17.5273 20.207 18.1973 20.207C18.9082 20.207 19.3047 19.7559 19.3047 18.9902L19.3047 8.64062C19.3047 7.875 18.9082 7.42383 18.1973 7.42383C17.5273 7.42383 17.1172 7.88867 17.1172 8.64062L17.1172 12.7695L10.7188 12.7695L10.7188 8.64062C10.7188 7.875 10.3223 7.42383 9.61133 7.42383C8.94141 7.42383 8.54492 7.88867 8.54492 8.64062L8.54492 18.9902C8.54492 19.7422 8.94141 20.207 9.61133 20.207Z" fill="white" fill-opacity="0.85"/>
 </g>
</svg>
