<svg version="1.1" xmlns="http://www.w3.org/2000/svg" xmlns:xlink="http://www.w3.org/1999/xlink" viewBox="0 0 25.5254 25.1699">
 <g>
  
  <path d="M4.29297 25.1699L20.877 25.1699C23.748 25.1699 25.1699 23.7617 25.1699 20.9453L25.1699 4.23828C25.1699 1.42188 23.748 0 20.877 0L4.29297 0C1.43555 0 0 1.42188 0 4.23828L0 20.9453C0 23.7617 1.43555 25.1699 4.29297 25.1699Z" style="fill:var(--color-0,hsl(0 0 0/0.85))"></path>
  <path d="M8.13477 19.0449C7.4375 19.0449 7.02734 18.5664 7.02734 17.7734L7.02734 7.12305C7.02734 6.33008 7.4375 5.85156 8.13477 5.85156C8.87305 5.85156 9.2832 6.31641 9.2832 7.12305L9.2832 11.3613L15.873 11.3613L15.873 7.12305C15.873 6.33008 16.2969 5.85156 16.9941 5.85156C17.7324 5.85156 18.1426 6.31641 18.1426 7.12305L18.1426 17.7734C18.1426 18.5801 17.7324 19.0449 16.9941 19.0449C16.2969 19.0449 15.873 18.5664 15.873 17.7734L15.873 13.1387L9.2832 13.1387L9.2832 17.7734C9.2832 18.5801 8.87305 19.0449 8.13477 19.0449Z" style="fill:var(--color-1,white)"></path>
 </g>
</svg>