<?xml version="1.0" encoding="UTF-8"?>
<!--Generator: Apple Native CoreSVG 326-->
<!DOCTYPE svg
PUBLIC "-//W3C//DTD SVG 1.1//EN"
       "http://www.w3.org/Graphics/SVG/1.1/DTD/svg11.dtd">
<svg version="1.1" xmlns="http://www.w3.org/2000/svg" xmlns:xlink="http://www.w3.org/1999/xlink" viewBox="0 0 34.1039 31.7213">
 <g>
  <rect height="31.7213" opacity="0" width="34.1039" x="0" y="0"/>
  <path d="M3.13399 30.6468C4.35079 31.8636 5.77267 31.7679 7.00313 30.3597L20.0051 15.553L15.9856 11.5335L1.1379 24.4944C-0.283975 25.7386-0.366006 27.1468 0.85079 28.3772ZM27.4426 18.8753C28.0305 19.4358 28.7004 19.4768 29.2609 18.9163L33.3762 14.8284C33.9094 14.2952 33.8684 13.5843 33.2941 13.0237L32.3098 12.0257C31.7766 11.5061 31.4348 11.4241 30.8606 11.4651L29.2609 11.6565L28.2356 10.6311L28.7004 8.7034C28.9328 7.76004 28.5774 6.762 27.5793 5.76395L24.8313 3.04325C21.0305-0.743862 14.0305-1.16769 10.1066 2.74247C9.4504 3.39872 9.57345 4.137 9.99727 4.60184C10.3254 4.91629 10.8313 5.08036 11.3098 4.92997C13.9621 4.137 16.2727 3.98661 18.2688 5.17606L17.216 7.93778C16.7649 9.09989 17.0109 9.9202 17.7492 10.6722L20.7981 13.721C21.3586 14.2815 21.9465 14.4456 22.8352 14.2679L25.0363 13.8167L26.0481 14.8421L25.8977 16.4417C25.8566 17.0432 25.9113 17.3987 26.4582 17.9046Z" fill="white" fill-opacity="0.85"/>
 </g>
</svg>
