<svg version="1.1" xmlns="http://www.w3.org/2000/svg" xmlns:xlink="http://www.w3.org/1999/xlink" viewBox="0 0 33.8595 32.0227">
 <g>
  
  <path d="M0.831141 28.4869L3.21005 30.8795C4.41317 32.0963 5.79403 32.0143 7.09286 30.5787L22.0636 14.0768L20.71 12.7096L5.84872 29.0612C5.35653 29.6217 4.89169 29.7584 4.23544 29.1022L2.59481 27.4752C1.93856 26.8326 2.08895 26.3541 2.6495 25.8483L18.714 10.7272L17.3468 9.37365L1.11825 24.6178C-0.262609 25.9029-0.371984 27.2701 0.831141 28.4869ZM9.81356 3.01623C9.22567 3.59045 9.18466 4.39709 9.51278 4.94396C9.84091 5.44982 10.4835 5.77795 11.3858 5.54553C13.4366 5.06701 15.5694 4.98498 17.5655 6.29748L16.7452 8.33459C16.2667 9.4967 16.5128 10.317 17.2647 11.0826L20.4776 14.3229C21.1612 15.0065 21.7354 15.0338 22.5284 14.8971L24.0186 14.6237L24.9483 15.567L24.8936 16.3463C24.839 17.0436 25.0167 17.5768 25.7003 18.2467L26.7667 19.2858C27.4366 19.9557 28.2979 19.9967 28.9542 19.3404L33.0284 15.2526C33.6847 14.5963 33.6573 13.7623 32.9874 13.0924L31.9073 12.026C31.2374 11.3561 30.7179 11.1373 30.0479 11.192L29.2413 11.2604L28.339 10.3717L28.6807 8.79943C28.8585 8.00646 28.6397 7.39123 27.8194 6.57092L24.7432 3.50842C20.0675-1.14002 13.8604-1.03065 9.81356 3.01623ZM11.9054 3.53576C15.3097 1.04748 19.9171 1.47131 23.0343 4.5885L26.4386 7.96545C26.7667 8.29357 26.8214 8.55334 26.7257 9.03185L26.2745 11.11L28.38 13.1881L29.7608 13.1061C30.1163 13.0924 30.2257 13.1197 30.4991 13.3932L31.3057 14.1998L27.8878 17.6178L27.0811 16.8112C26.8077 16.5377 26.7667 16.4283 26.7804 16.0592L26.8761 14.692L24.7843 12.6139L22.6515 12.9694C22.2003 13.0651 21.9952 13.024 21.6534 12.6959L18.8507 9.89318C18.4952 9.56506 18.4542 9.33264 18.6729 8.8131L19.9034 5.88732C17.7159 3.85021 14.8722 2.97521 12.0284 3.8092C11.8097 3.86389 11.7276 3.68615 11.9054 3.53576Z" style="fill:var(--color-0,hsl(0 0 0/0.85))"></path>
 </g>
</svg>