<?xml version="1.0" encoding="UTF-8"?>
<!--Generator: Apple Native CoreSVG 326-->
<!DOCTYPE svg
PUBLIC "-//W3C//DTD SVG 1.1//EN"
       "http://www.w3.org/Graphics/SVG/1.1/DTD/svg11.dtd">
<svg version="1.1" xmlns="http://www.w3.org/2000/svg" xmlns:xlink="http://www.w3.org/1999/xlink" viewBox="0 0 25.0273 31.1309">
 <g>
  <rect height="31.1309" opacity="0" width="25.0273" x="0" y="0"/>
  <path d="M11.9053 29.7637C16.7041 29.7637 19.7666 27.0293 21.9131 22.0391L24.7705 15.2988C25.4268 13.7812 24.7432 12.4551 23.6494 11.8809C22.583 11.334 21.1338 11.5254 20.2314 12.9883L18.9326 15.3125C18.8916 15.3672 18.8643 15.4082 18.8096 15.4082C18.7412 15.4082 18.6865 15.3535 18.7139 15.2715L20.4912 4.94922C20.792 3.25391 19.9307 2.06445 18.4404 1.79102C16.8272 1.51758 15.5693 2.26953 15.2275 4.04688L14.8174 6.43945L14.9814 6.43945L14.9814 2.76172C14.9814 1.14844 13.8604 0 12.3018 0C10.6748 0 9.59473 1.18945 9.59473 2.85742L9.59473 4.60742L9.93653 4.53906L9.77246 3.44531C9.37598 1.94141 8.11817 1.29883 6.80567 1.53125C5.21973 1.80469 4.41309 3.13086 4.60449 4.70312L4.86426 6.94531L5.37012 6.83594C4.90528 5.3457 3.74317 4.86719 2.47168 5.09961C0.831057 5.38672 0.0791035 6.5625 0.325197 8.24414L2.14356 20.4395C3.00488 26.2363 6.12207 29.7637 11.9053 29.7637ZM11.8369 27.877C6.99707 27.877 4.72754 25.1152 3.96192 20.2207L1.99317 7.94336C1.91113 7.38281 2.22559 6.93164 2.75879 6.83594C3.25098 6.75391 3.70215 7.08203 3.8252 7.58789L5.80762 15.0117C5.94434 15.5312 6.35449 15.7363 6.77832 15.6543C7.24317 15.5859 7.55762 15.1758 7.50293 14.7109L6.32715 4.41602C6.25879 3.81445 6.53223 3.37695 7.09278 3.28125C7.65332 3.18555 8.10449 3.54102 8.18653 4.08789L9.6084 14.4102C9.66309 14.8477 10.0596 15.1348 10.5381 15.0664C11.126 14.9707 11.3311 14.6152 11.3311 14.123L11.3311 2.76172C11.3311 2.1875 11.7275 1.77734 12.3018 1.77734C12.8486 1.77734 13.2451 2.1875 13.2451 2.76172L13.2451 14.2461C13.2451 14.7109 13.6416 15.0664 14.0928 15.0664C14.5576 15.0664 14.8857 14.7656 14.9678 14.3008L16.9092 4.34766C17.0322 3.69141 17.4971 3.41797 18.0166 3.51367C18.5498 3.5957 18.8643 4.04688 18.7686 4.64844L16.8272 17.4453C16.6494 18.6074 17.292 19.0039 17.8662 19.0039C18.3584 19.0039 18.7002 18.7578 19.083 18.1016L21.5166 13.7812C21.8037 13.2344 22.3232 13.084 22.7471 13.2617C23.2119 13.4258 23.458 13.918 23.1982 14.5332L20.2451 21.4512C18.29 25.9766 15.6514 27.877 11.8369 27.877Z" fill="white" fill-opacity="0.85"/>
 </g>
</svg>
