<?xml version="1.0" encoding="UTF-8"?>
<!--Generator: Apple Native CoreSVG 326-->
<!DOCTYPE svg
PUBLIC "-//W3C//DTD SVG 1.1//EN"
       "http://www.w3.org/Graphics/SVG/1.1/DTD/svg11.dtd">
<svg version="1.1" xmlns="http://www.w3.org/2000/svg" xmlns:xlink="http://www.w3.org/1999/xlink" viewBox="0 0 21.9023 27.9316">
 <g>
  <rect height="27.9316" opacity="0" width="21.9023" x="0" y="0"/>
  <path d="M12.2773 27.9316C18.2109 27.9316 21.5469 24.2129 21.5469 17.8691L21.5469 15.2441C21.5469 12.8379 20.3848 11.375 19.0859 11.375C18.7852 11.375 18.6348 11.5254 18.6348 11.8125L18.6348 12.9746C18.6348 13.5215 18.3477 13.7949 18.0195 13.7949C17.6641 13.7949 17.3906 13.5215 17.3906 12.9746L17.3906 12.209C17.3906 10.8008 16.4746 9.87109 15.2578 9.87109C14.6973 9.87109 14.4512 10.1035 14.4512 10.5684L14.4512 12.1543C14.4512 12.7012 14.1777 12.9746 13.8496 12.9746C13.4941 12.9746 13.207 12.7012 13.207 12.1543L13.207 10.6914C13.207 9.10547 12.2773 8.35352 11.1016 8.35352C10.5684 8.35352 10.2949 8.59961 10.2949 9.05078L10.2949 12.1543C10.2949 12.7012 10.0078 12.9746 9.67969 12.9746C9.32422 12.9746 9.05078 12.7012 9.05078 12.1543L9.05078 1.77734C9.05078 0.765625 8.38086 0.109375 7.5332 0.109375C6.61719 0.109375 5.97461 0.765625 5.97461 1.77734L5.97461 16.9668C5.97461 17.3496 5.74219 17.541 5.50977 17.541C5.27734 17.541 5.08594 17.4043 4.92188 17.0215L2.91211 12.2773C2.61133 11.5801 2.14648 11.2793 1.53125 11.2793C0.601562 11.2793 0 11.9219 0 12.6875C0 13.002 0.0683594 13.2617 0.136719 13.4805L2.35156 20.084C4.23828 25.6484 7.91602 27.9316 12.2773 27.9316Z" fill="white" fill-opacity="0.85"/>
 </g>
</svg>
