<?xml version="1.0" encoding="UTF-8"?>
<!--Generator: Apple Native CoreSVG 326-->
<!DOCTYPE svg
PUBLIC "-//W3C//DTD SVG 1.1//EN"
       "http://www.w3.org/Graphics/SVG/1.1/DTD/svg11.dtd">
<svg version="1.1" xmlns="http://www.w3.org/2000/svg" xmlns:xlink="http://www.w3.org/1999/xlink" viewBox="0 0 21.793 31.2949">
 <g>
  <rect height="31.2949" opacity="0" width="21.793" x="0" y="0"/>
  <path d="M7.94336 3.70508C8.96875 3.70508 9.80273 2.88477 9.80273 1.87305C9.80273 0.847656 8.96875 0 7.94336 0C6.91797 0 6.09766 0.847656 6.09766 1.87305C6.09766 2.88477 6.91797 3.70508 7.94336 3.70508ZM1.8457 9.17383C2.87109 9.17383 3.71875 8.35352 3.71875 7.3418C3.71875 6.31641 2.87109 5.46875 1.8457 5.46875C0.820312 5.46875 0 6.31641 0 7.3418C0 8.35352 0.820312 9.17383 1.8457 9.17383ZM14.1094 9.17383C15.1348 9.17383 15.9688 8.35352 15.9688 7.3418C15.9688 6.31641 15.1348 5.46875 14.1094 5.46875C13.0977 5.46875 12.2773 6.31641 12.2773 7.3418C12.2773 8.35352 13.0977 9.17383 14.1094 9.17383ZM19.5781 9.17383C20.6035 9.17383 21.4375 8.35352 21.4375 7.3418C21.4375 6.31641 20.6035 5.46875 19.5781 5.46875C18.5527 5.46875 17.7324 6.31641 17.7324 7.3418C17.7324 8.35352 18.5527 9.17383 19.5781 9.17383ZM19.5781 3.70508C20.6035 3.70508 21.4375 2.88477 21.4375 1.87305C21.4375 0.847656 20.6035 0 19.5781 0C18.5527 0 17.7324 0.847656 17.7324 1.87305C17.7324 2.88477 18.5527 3.70508 19.5781 3.70508Z" fill="white" fill-opacity="0.85"/>
  <path d="M12.2227 31.2676C17.6367 31.2676 20.6855 27.877 20.6855 22.0938L20.6855 19.7285C20.6855 17.5137 19.6055 16.1465 18.375 16.1465C18.0469 16.1465 17.8691 16.3379 17.8691 16.625L17.8691 17.6777C17.8691 18.1426 17.6504 18.3203 17.4043 18.3203C17.1309 18.3203 16.9395 18.1426 16.9395 17.6777L16.9395 16.9941C16.9395 15.6816 16.0645 14.7793 14.916 14.7793C14.3555 14.7793 14.0957 15.0391 14.0957 15.5176L14.0957 16.9531C14.0957 17.3906 13.8906 17.5957 13.6309 17.5957C13.3574 17.5957 13.166 17.3906 13.166 16.9531L13.166 15.627C13.166 14.1367 12.2637 13.4121 11.1562 13.4121C10.6367 13.4121 10.3359 13.6719 10.3359 14.1504L10.3359 16.9531C10.3359 17.3906 10.1309 17.5957 9.88477 17.5957C9.59766 17.5957 9.40625 17.3906 9.40625 16.9531L9.40625 7.58789C9.40625 6.61719 8.75 5.96094 7.94336 5.96094C7.05469 5.96094 6.45312 6.61719 6.45312 7.58789L6.45312 21.3008C6.45312 21.7793 5.90625 21.8477 5.75586 21.4785L3.85547 17.0078C3.56836 16.3516 3.10352 16.0508 2.5293 16.0508C1.64062 16.0508 1.06641 16.6797 1.06641 17.4316C1.06641 17.7188 1.10742 17.9785 1.18945 18.1836L3.18555 24.1309C4.89453 29.1895 8.24414 31.2676 12.2227 31.2676Z" fill="white" fill-opacity="0.85"/>
 </g>
</svg>
