<svg version="1.1" xmlns="http://www.w3.org/2000/svg" xmlns:xlink="http://www.w3.org/1999/xlink" viewBox="0 0 22.6842 28.7793">
 <g>
  
  <path d="M12.6614 28.7656C18.4447 28.7656 22.3275 24.8828 22.3275 18.4844L22.3275 15.4902C22.3275 12.3457 20.8372 10.5 18.2943 10.4727C17.9798 9.46094 17.1458 8.85938 16.0111 8.85938C15.6009 8.85938 15.2044 8.92773 14.8079 9.06445C14.4661 7.95703 13.5638 7.28711 12.3743 7.28711C12.0599 7.28711 11.7318 7.32812 11.4036 7.42383L11.4036 2.87109C11.4036 1.14844 10.2552 0 8.64192 0C7.01496 0 5.85285 1.14844 5.85285 2.87109L5.85285 14.2734C5.85285 14.3555 5.82551 14.3965 5.75715 14.3965C5.70246 14.3965 5.66145 14.3691 5.6341 14.3008L4.73176 12.127C4.26692 11.0605 3.47395 10.4863 2.50325 10.4863C1.1634 10.4863 0.00129193 11.334 0.00129193 12.8242C-0.0123799 13.248 0.0833232 13.7949 0.247386 14.2598L2.65364 21.0273C4.472 26.1543 7.84895 28.7656 12.6614 28.7656ZM12.7298 26.8789C8.91535 26.8789 5.98957 25.1152 4.3216 20.4395L1.90168 13.6992C1.83332 13.4941 1.79231 13.3164 1.79231 13.0703C1.79231 12.6055 2.14778 12.1953 2.69465 12.1953C3.1595 12.1953 3.43293 12.4688 3.62434 12.9336L5.49739 17.0898C5.79817 17.7871 6.20832 18.0059 6.70051 18.0059C7.27473 18.0059 7.67121 17.541 7.67121 16.9258L7.67121 2.74805C7.67121 2.17383 8.08137 1.76367 8.64192 1.76367C9.20246 1.76367 9.58528 2.17383 9.58528 2.74805L9.58528 12.8652C9.58528 13.3438 9.99543 13.7129 10.4603 13.7129C10.9388 13.7129 11.3216 13.3438 11.3216 12.8652L11.3216 9.22852C11.554 9.11914 11.8685 9.03711 12.1419 9.03711C12.8255 9.03711 13.2357 9.48828 13.2357 10.2129L13.2357 13.3848C13.2357 13.8906 13.6458 14.2324 14.1107 14.2324C14.5618 14.2324 14.972 13.8906 14.972 13.3848L14.972 10.8008C15.2044 10.6914 15.5189 10.623 15.7786 10.623C16.4622 10.623 16.8724 11.0605 16.8724 11.7852L16.8724 13.918C16.8724 14.4102 17.2962 14.752 17.7611 14.752C18.1986 14.752 18.6087 14.4102 18.6087 13.918L18.6087 12.3457C19.8255 12.3457 20.5228 13.5898 20.5228 15.7637L20.5228 18.2656C20.5228 23.7617 17.5697 26.8789 12.7298 26.8789Z" style="fill:var(--color-0,hsl(0 0 0/0.85))"></path>
 </g>
</svg>