<svg version="1.1" xmlns="http://www.w3.org/2000/svg" xmlns:xlink="http://www.w3.org/1999/xlink" viewBox="0 0 26.6527 26.7227">
 <g>
  
  <path d="M23.259 23.7041C26.6633 20.3135 27.2238 16.0752 24.8722 11.167L21.7961 4.67287C21.591 4.23537 21.3176 3.85255 21.0305 3.56545C20.0051 2.55373 18.5148 2.60841 17.5168 3.59279C16.8605 4.24904 16.6555 5.24709 17.1066 6.34084L18.009 8.51466C18.0226 8.56935 18.0226 8.62404 17.9953 8.66505C17.9543 8.71974 17.8859 8.6924 17.8312 8.65138L10.0793 0.89943C8.95818-0.235336 7.53631-0.249008 6.45623 0.844742C6.05975 1.24123 5.82733 1.73341 5.81365 2.26662C4.70623 1.39162 3.46209 1.41896 2.49139 2.38966C1.5617 3.31935 1.53436 4.60451 2.341 5.69826C1.84881 5.69826 1.38397 5.91701 1.0285 6.27248C0.0167785 7.2842 0.0577941 8.65138 1.1242 9.71779L2.20428 10.7842C1.67108 10.7705 1.13787 11.0166 0.727716 11.4268C-0.284003 12.4385-0.242987 13.874 0.864435 14.9541L9.14959 23.2666C13.6887 27.792 19.1711 27.8057 23.259 23.7041ZM21.8781 22.419C18.4601 25.8369 14.1672 25.7276 10.2844 21.8311L2.25897 13.8194C1.84881 13.4092 1.82147 12.8623 2.23162 12.4522C2.62811 12.0557 3.20233 12.0557 3.61248 12.4658L8.5617 17.4014C8.91717 17.7705 9.4367 17.7158 9.75115 17.4014C10.0793 17.0733 10.1476 16.5401 9.7785 16.1846L2.39568 8.7881C1.98553 8.37795 1.95818 7.83107 2.35467 7.43459C2.76483 7.0381 3.33904 7.0381 3.73553 7.44826L10.6398 14.3389C10.9953 14.6944 11.5148 14.6533 11.843 14.3252C12.1711 13.9971 12.2258 13.4639 11.8703 13.1084L3.77654 5.01466C3.36639 4.60451 3.35272 4.03029 3.7492 3.6338C4.13201 3.23732 4.70623 3.26466 5.11639 3.67482L13.2238 11.7686C13.5656 12.1104 14.0851 12.083 14.4133 11.7549C14.7551 11.4268 14.7961 10.8799 14.4543 10.5381L7.54998 3.6338C7.13983 3.22365 7.12615 2.6631 7.53631 2.26662C7.93279 1.85646 8.49334 1.8838 8.9035 2.28029L18.132 11.5225C15.9035 14.4072 16.6555 17.2783 18.132 18.7549C18.4875 19.1104 18.966 19.1377 19.3078 18.8096C19.6633 18.4541 19.6769 17.9619 19.3488 17.6201C17.6262 15.8975 18.2414 13.5049 19.8683 11.8779C20.2101 11.5361 20.3469 11.085 20.0871 10.3877L18.3781 5.90334C18.1457 5.27443 18.3508 4.78224 18.8293 4.57716C19.3351 4.33107 19.8137 4.57716 20.1144 5.21974L23.2863 11.9326C25.3918 16.417 24.5715 19.7119 21.8781 22.419Z" style="fill:var(--color-0,hsl(0 0 0/0.85))"></path>
 </g>
</svg>