<svg version="1.1" xmlns="http://www.w3.org/2000/svg" xmlns:xlink="http://www.w3.org/1999/xlink" viewBox="0 0 28.2461 27.9043">
 <g>
  
  <path d="M13.9453 27.8906C21.6426 27.8906 27.8906 21.6426 27.8906 13.9453C27.8906 6.24805 21.6426 0 13.9453 0C6.24805 0 0 6.24805 0 13.9453C0 21.6426 6.24805 27.8906 13.9453 27.8906ZM13.9453 25.5664C7.51953 25.5664 2.32422 20.3711 2.32422 13.9453C2.32422 7.51953 7.51953 2.32422 13.9453 2.32422C20.3711 2.32422 25.5664 7.51953 25.5664 13.9453C25.5664 20.3711 20.3711 25.5664 13.9453 25.5664Z" style="fill:var(--color-0,#007aff)"></path>
  <path d="M8.47656 16.3789C8.47656 19.8516 10.7324 21.9844 13.9453 21.9844C16.3652 21.9844 18.0195 21.0137 19.127 18.7441C19.7285 17.5684 20.1934 16.1465 20.6855 14.5195C20.8906 13.8496 21.1777 13.0293 21.1777 12.6602C21.1777 12.2227 20.8496 11.9219 20.3984 11.9219C19.8789 11.9219 19.5781 12.2363 19.209 12.9746L18.1016 15.3125C17.9922 15.5586 17.8828 15.6543 17.7598 15.6543C17.5957 15.6543 17.5 15.5449 17.5 15.2988L17.5 6.97266C17.5 6.50781 17.1035 6.11133 16.6387 6.11133C16.1465 6.11133 15.7637 6.50781 15.7637 6.97266L15.7637 12.8789C15.5449 12.8242 15.3262 12.7422 15.0938 12.7012L15.0938 5.82422C15.0938 5.3457 14.7109 4.94922 14.2188 4.94922C13.7402 4.94922 13.3574 5.3457 13.3574 5.82422L13.3574 12.6055C13.1113 12.6465 12.8789 12.6602 12.6602 12.7012L12.6602 6.50781C12.6602 6.01562 12.25 5.63281 11.7715 5.63281C11.293 5.63281 10.8965 6.01562 10.8965 6.50781L10.8965 13.2617C10.6504 13.3711 10.4453 13.5078 10.2402 13.6309L10.2402 8.98242C10.2402 8.50391 9.83008 8.10742 9.36523 8.10742C8.87305 8.10742 8.47656 8.50391 8.47656 8.98242Z" style="fill:var(--color-1,#007aff)"></path>
 </g>
</svg>