<svg version="1.1" xmlns="http://www.w3.org/2000/svg" xmlns:xlink="http://www.w3.org/1999/xlink" viewBox="0 0 21.9023 28.0137">
 <g>
  
  <path d="M9.26953 0.177734C3.33594 0.177734 0 3.89648 0 10.2402L0 12.8652C0 15.2715 1.14844 16.7344 2.46094 16.7344C2.76172 16.7344 2.91211 16.584 2.91211 16.2969L2.91211 15.1348C2.91211 14.5879 3.19922 14.3145 3.52734 14.3145C3.88281 14.3145 4.15625 14.5879 4.15625 15.1348L4.15625 15.9004C4.15625 17.3086 5.07227 18.2383 6.28906 18.2383C6.84961 18.2383 7.0957 18.0195 7.0957 17.541L7.0957 15.9551C7.0957 15.4082 7.36914 15.1348 7.69727 15.1348C8.05273 15.1348 8.33984 15.4082 8.33984 15.9551L8.33984 17.418C8.33984 19.0039 9.25586 19.7559 10.4453 19.7559C10.9648 19.7559 11.252 19.5098 11.252 19.0586L11.252 15.9551C11.252 15.4082 11.5254 15.1348 11.8535 15.1348C12.209 15.1348 12.4961 15.4082 12.4961 15.9551L12.4961 26.332C12.4961 27.3438 13.1523 28.0137 14.0137 28.0137C14.9297 28.0137 15.5586 27.3438 15.5586 26.332L15.5586 11.1426C15.5586 10.7734 15.8047 10.5684 16.0371 10.5684C16.2695 10.5684 16.4609 10.7051 16.625 11.0879L18.6348 15.832C18.9355 16.5293 19.3867 16.8438 20.002 16.8438C20.9453 16.8438 21.5469 16.2012 21.5469 15.4219C21.5469 15.1074 21.4785 14.8477 21.3965 14.6289L19.1953 8.02539C17.3086 2.46094 13.6309 0.177734 9.26953 0.177734Z" style="fill:var(--color-0,hsl(0 0 0/0.85))"></path>
 </g>
</svg>