<?xml version="1.0" encoding="UTF-8"?>
<!--Generator: Apple Native CoreSVG 326-->
<!DOCTYPE svg
PUBLIC "-//W3C//DTD SVG 1.1//EN"
       "http://www.w3.org/Graphics/SVG/1.1/DTD/svg11.dtd">
<svg version="1.1" xmlns="http://www.w3.org/2000/svg" xmlns:xlink="http://www.w3.org/1999/xlink" viewBox="0 0 36.8477 29.7129">
 <g>
  <rect height="29.7129" opacity="0" width="36.8477" x="0" y="0"/>
  <path d="M11.7315 11.377C11.7315 11.8828 11.3213 12.293 10.8155 12.293L3.47365 12.293C2.95412 12.293 2.54397 11.8828 2.54397 11.377C2.54397 10.8574 2.95412 10.4473 3.47365 10.4473L10.8155 10.4473C11.3213 10.4473 11.7315 10.8574 11.7315 11.377Z" fill="white" fill-opacity="0.85"/>
  <path d="M13.101 7.15235L3.47365 7.15235C2.95412 7.15235 2.54397 6.74219 2.54397 6.23633C2.54397 5.73047 2.95412 5.30664 3.47365 5.30664L12.429 5.30664Z" fill="white" fill-opacity="0.85"/>
  <path d="M14.2334 0.207033C13.2952 0.547588 12.6113 1.20612 12.2571 2.02539L3.47365 2.02539C2.95412 2.02539 2.54397 1.60156 2.54397 1.09571C2.54397 0.589846 2.95412 0.17969 3.47365 0.17969L14.3219 0.17969Z" fill="white" fill-opacity="0.85"/>
  <path d="M28.835 26.498C34.4131 24.4609 36.2725 19.8262 34.0987 13.8652L33.21 11.3906C32.376 9.13477 30.8037 8.15039 29.5733 8.60156C29.2862 8.69727 29.1905 8.90235 29.2862 9.16211L29.6826 10.2559C29.874 10.7754 29.71 11.1309 29.3955 11.2402C29.0674 11.3633 28.7119 11.1992 28.5205 10.6797L28.2608 9.96875C27.7686 8.64258 26.6065 8.08203 25.458 8.49219C24.9385 8.6836 24.7744 8.98438 24.9385 9.42188L25.4854 10.9121C25.6631 11.4316 25.499 11.7734 25.1983 11.8965C24.8565 12.0195 24.501 11.8555 24.3096 11.3359L23.8174 9.96875C23.2705 8.47852 22.1494 8.08203 21.0283 8.49219C20.5362 8.66992 20.3584 8.99805 20.5088 9.42188L21.5752 12.334C21.7666 12.8535 21.5889 13.209 21.2881 13.3184C20.9463 13.4414 20.5908 13.2773 20.3994 12.7578L16.8584 3.00977C16.5166 2.06641 15.669 1.66992 14.8623 1.95703C14.001 2.27149 13.6319 3.10547 13.9737 4.0625L19.169 18.3359C19.292 18.6914 19.1416 18.9648 18.9229 19.0469C18.7041 19.1152 18.4717 19.0469 18.1983 18.7598L14.6846 14.9863C14.1514 14.4258 13.6182 14.3027 13.044 14.5078C12.169 14.8223 11.8272 15.6289 12.0869 16.3672C12.1963 16.6543 12.3467 16.873 12.4834 17.0645L16.8311 22.5059C20.4951 27.0996 24.7334 27.9883 28.835 26.498Z" fill="white" fill-opacity="0.85"/>
 </g>
</svg>
