<?xml version="1.0" encoding="UTF-8"?>
<!--Generator: Apple Native CoreSVG 326-->
<!DOCTYPE svg
PUBLIC "-//W3C//DTD SVG 1.1//EN"
       "http://www.w3.org/Graphics/SVG/1.1/DTD/svg11.dtd">
<svg version="1.1" xmlns="http://www.w3.org/2000/svg" xmlns:xlink="http://www.w3.org/1999/xlink" viewBox="0 0 30.2012 23.5319">
 <g>
  <rect height="23.5319" opacity="0" width="30.2012" x="0" y="0"/>
  <path d="M30.1875 13.304C30.1875 8.23176 27.4668 4.70441 22.0801 2.79035L14.9707 0.261054C14.4785 0.0833197 13.9043-0.0123834 13.4805 0.00128849C11.8945 0.00128849 11.0059 1.23176 11.0059 2.62629C11.0195 3.65168 11.6074 4.48566 12.7148 4.96418L15.0254 5.92121C15.0801 5.93488 15.1074 5.98957 15.1074 6.04426C15.1074 6.12629 15.0664 6.15363 14.998 6.15363L3.02148 6.15363C1.18945 6.15363 0 7.35676 0 9.06574C0 10.7747 1.18945 11.9779 3.02148 11.9779L7.79297 11.9779C7.69727 12.3196 7.64258 12.6614 7.64258 12.9896C7.64258 14.2337 8.35352 15.1907 9.50195 15.5599C9.37891 15.9564 9.29688 16.3802 9.29688 16.8177C9.29688 18.0071 9.93945 18.8821 10.9922 19.2103C11.0195 21.8763 12.9609 23.4486 16.2695 23.4486L19.4004 23.4486C26.1133 23.4486 30.1875 19.3743 30.1875 13.304ZM28.2188 13.3861C28.2188 18.4583 24.9512 21.5482 19.168 21.5482L16.5566 21.5482C14.2734 21.5482 12.9609 20.8236 12.9609 19.5384L14.6016 19.5384C15.1211 19.5384 15.4902 19.1282 15.4902 18.6497C15.4902 18.1712 15.1211 17.72 14.6016 17.72L12.3594 17.72C11.6211 17.72 11.1562 17.2962 11.1562 16.5716C11.1562 16.2982 11.2246 15.9564 11.3477 15.7103L14.0547 15.7103C14.5879 15.7103 14.9434 15.2864 14.9434 14.8079C14.9434 14.3294 14.5879 13.9056 14.0547 13.9056L10.7188 13.9056C9.9668 13.9056 9.48828 13.4544 9.48828 12.7435C9.48828 12.47 9.57031 12.1282 9.67969 11.8958L13.5078 11.8958C14 11.8958 14.3965 11.472 14.3965 10.9935C14.3965 10.4876 14 10.0638 13.5078 10.0638L2.88477 10.0638C2.2832 10.0638 1.8457 9.6673 1.8457 9.06574C1.8457 8.47785 2.2832 8.06769 2.88477 8.06769L17.7734 8.06769C18.416 8.06769 18.8945 7.64387 18.8945 7.0423C18.8945 6.53644 18.6621 6.08527 17.9512 5.75715L13.5762 3.81574C13.0977 3.61066 12.7969 3.32355 12.7969 2.83137C12.7969 2.25715 13.2207 1.88801 13.7266 1.88801C13.9727 1.88801 14.1641 1.91535 14.3691 1.99738L21.4648 4.54035C26.3594 6.29035 28.2188 9.36652 28.2188 13.3861Z" fill="white" fill-opacity="0.85"/>
 </g>
</svg>
