<?xml version="1.0" encoding="UTF-8"?>
<!--Generator: Apple Native CoreSVG 326-->
<!DOCTYPE svg
PUBLIC "-//W3C//DTD SVG 1.1//EN"
       "http://www.w3.org/Graphics/SVG/1.1/DTD/svg11.dtd">
<svg version="1.1" xmlns="http://www.w3.org/2000/svg" xmlns:xlink="http://www.w3.org/1999/xlink" viewBox="0 0 29.2441 22.791">
 <g>
  <rect height="22.791" opacity="0" width="29.2441" x="0" y="0"/>
  <path d="M29.2305 13.0566C29.2305 8.47656 26.8379 4.62109 21 2.63867L14.0547 0.328125C13.8223 0.232422 13.5625 0.164062 13.2344 0.164062C12.4141 0.164062 11.7441 0.806641 11.7441 1.79102C11.7441 2.43359 12.0586 2.91211 12.7969 3.22656L17.7734 5.3457C18.1836 5.50977 18.3203 5.71484 18.3203 5.94727C18.3203 6.20703 18.1016 6.45312 17.7188 6.45312L1.76367 6.45312C0.697266 6.45312 0 7.12305 0 8.08008C0 8.98242 0.697266 9.67969 1.76367 9.67969L12.6602 9.67969C13.2344 9.67969 13.5215 9.9668 13.5215 10.3496C13.5215 10.6914 13.2344 10.9922 12.6602 10.9922L9.40625 10.9922C8.92773 10.9922 8.66797 11.2656 8.66797 11.8262C8.66797 13.0566 9.46094 14.041 11.1152 14.041L12.6602 14.041C13.2344 14.041 13.5215 14.3281 13.5215 14.7109C13.5215 15.0527 13.2344 15.3535 12.6602 15.3535L10.9922 15.3535C10.5 15.3535 10.2676 15.6133 10.2676 16.1875C10.2676 17.4727 11.2383 18.416 12.7285 18.416L13.5215 18.416C14.1094 18.416 14.3828 18.7168 14.3828 19.0859C14.3828 19.4277 14.1094 19.7285 13.5215 19.7285L12.3047 19.7285C12.0039 19.7285 11.8398 19.9062 11.8398 20.207C11.8398 21.5742 13.3848 22.791 15.9141 22.791L18.6484 22.791C25.334 22.791 29.2305 19.291 29.2305 13.0566Z" fill="white" fill-opacity="0.85"/>
 </g>
</svg>
