<svg version="1.1" xmlns="http://www.w3.org/2000/svg" xmlns:xlink="http://www.w3.org/1999/xlink" viewBox="0 0 37.2342 34.8863">
 <g>
  
  <path d="M1.04874 9.0281L4.99991 9.87576C5.47843 9.98513 5.76553 10.4226 5.66983 10.8875C5.5878 11.366 5.10928 11.6394 4.65811 11.5574L0.693269 10.7234C0.242097 10.6277-0.0586838 10.1902 0.00967557 9.73904C0.0780349 9.24685 0.542879 8.91873 1.04874 9.0281ZM4.39835 2.93045L7.26944 5.78787C7.61124 6.12967 7.59757 6.66287 7.26944 7.00467C6.94132 7.34646 6.38077 7.34646 6.03897 7.00467L3.18155 4.14724C2.82608 3.79177 2.83975 3.27224 3.18155 2.93045C3.52335 2.58865 4.04288 2.57498 4.39835 2.93045ZM10.9745 0.688259L11.8222 4.63943C11.9316 5.07693 11.6034 5.55545 11.1386 5.65115C10.6601 5.76052 10.2226 5.4324 10.1132 4.98123L9.26553 1.04373C9.15616 0.565212 9.48428 0.11404 9.94913 0.0183369C10.4003-0.0773662 10.8651 0.209743 10.9745 0.688259Z" style="fill:var(--color-0,hsl(0 0 0/0.85))"></path>
  <path d="M31.6191 9.20584C31.9062 9.49295 32.1659 9.84842 32.371 10.3133L35.4608 16.7937C37.7851 21.7156 37.2519 25.9402 33.8476 29.3445C32.1414 31.0507 30.1899 32.0447 28.165 32.284C28.9267 31.8391 29.6572 31.2653 30.3476 30.575C31.0221 29.9004 31.5841 29.1923 32.0284 28.4506C32.1728 28.3323 32.3136 28.1988 32.453 28.0594C35.1601 25.3523 35.9804 22.0437 33.8612 17.5594L30.6894 10.8601C30.3886 10.2176 29.9237 9.97146 29.4179 10.2039C28.9394 10.4226 28.7206 10.9148 28.953 11.5301L29.3094 12.465L28.871 11.5437C28.6659 11.0926 28.4062 10.7234 28.1191 10.4363C27.9522 10.2717 27.7741 10.1349 27.5877 10.0284C27.6971 9.7255 27.8723 9.45264 28.1054 9.21951C29.1034 8.23513 30.5937 8.18045 31.6191 9.20584ZM20.6679 6.52615L24.602 10.4672C24.1037 10.9572 23.864 11.637 23.9624 12.4047L19.4784 7.92068C19.0683 7.51052 18.5077 7.49685 18.1112 7.89334C17.95 8.05453 17.8544 8.2451 17.8273 8.44219L17.1542 7.77029C16.9533 7.56692 16.7427 7.4 16.5259 7.27073C16.6312 6.98057 16.8049 6.71136 17.0312 6.48513C18.1112 5.40506 19.5331 5.40506 20.6679 6.52615ZM13.5312 7.7156C13.1347 8.11209 12.9159 8.60427 12.9023 9.12381C12.7746 9.02572 12.6453 8.93915 12.5149 8.86573C12.6342 8.56366 12.8232 8.27698 13.08 8.01638C13.2851 7.81129 13.5034 7.64889 13.7314 7.53143Z" style="fill:var(--color-1,hsl(0 0 0/0.85))"></path>
  <path d="M30.3476 30.575C33.7382 27.1844 34.2851 22.9461 31.9608 18.0379L28.871 11.5437C28.6659 11.0926 28.4062 10.7234 28.1191 10.4363C27.08 9.41092 25.6034 9.4656 24.6054 10.4636C23.9355 11.1199 23.7304 12.1179 24.1816 13.2117L25.0839 15.3855C25.1112 15.4402 25.1112 15.4949 25.0702 15.5359C25.0292 15.5906 24.9608 15.5769 24.9198 15.5222L17.1542 7.77029C16.0331 6.63552 14.6112 6.63552 13.5312 7.7156C13.1347 8.11209 12.9159 8.60427 12.9023 9.12381C11.7812 8.26248 10.537 8.28982 9.57999 9.26052C8.6503 10.1902 8.60928 11.4754 9.4296 12.5691C8.93741 12.5691 8.45889 12.7879 8.10343 13.1433C7.10538 14.1414 7.14639 15.5086 8.2128 16.5886L9.27921 17.6551C8.75968 17.6414 8.2128 17.8875 7.80264 18.3113C6.8046 19.3094 6.84561 20.7449 7.93936 21.825L16.2382 30.1375C20.7636 34.6629 26.2597 34.6629 30.3476 30.575ZM28.953 29.2898C25.5351 32.7078 21.2558 32.5984 17.3593 28.7019L9.34757 20.6902C8.93741 20.2801 8.91007 19.7332 9.30655 19.323C9.70303 18.9265 10.2909 18.9265 10.7011 19.3367L15.6366 24.2859C15.9921 24.6414 16.5253 24.5867 16.8398 24.2722C17.1679 23.9441 17.2226 23.4109 16.8671 23.0554L9.47061 15.659C9.06046 15.2488 9.03311 14.7019 9.44327 14.3054C9.83975 13.909 10.414 13.909 10.8241 14.3191L17.7148 21.2097C18.0702 21.5652 18.6034 21.5242 18.9179 21.1961C19.246 20.8679 19.3007 20.3347 18.9452 19.9793L10.8515 11.8855C10.4413 11.4754 10.4276 10.9011 10.8241 10.5047C11.2206 10.1082 11.7948 10.1355 12.205 10.5457L20.2987 18.6394C20.6405 18.9676 21.1737 18.9539 21.5019 18.6258C21.83 18.284 21.871 17.7508 21.5292 17.409L14.6249 10.5047C14.2148 10.0945 14.2148 9.53396 14.6112 9.13748C15.0077 8.72732 15.5683 8.74099 15.9784 9.16482L25.4941 18.6804C25.9726 19.159 26.5468 19.159 26.9433 18.7488C27.2987 18.407 27.4355 17.9558 27.162 17.2586L25.453 12.7605C25.2206 12.159 25.4394 11.6531 25.9042 11.4344C26.4237 11.2019 26.8886 11.448 27.1894 12.0906L30.3612 18.8035C32.4804 23.2879 31.6601 26.5828 28.953 29.2898Z" style="fill:var(--color-2,hsl(0 0 0/0.85))"></path>
 </g>
</svg>