<?xml version="1.0" encoding="UTF-8"?>
<!--Generator: Apple Native CoreSVG 326-->
<!DOCTYPE svg
PUBLIC "-//W3C//DTD SVG 1.1//EN"
       "http://www.w3.org/Graphics/SVG/1.1/DTD/svg11.dtd">
<svg version="1.1" xmlns="http://www.w3.org/2000/svg" xmlns:xlink="http://www.w3.org/1999/xlink" viewBox="0 0 33.8707 30.4348">
 <g>
  <rect height="30.4348" opacity="0" width="33.8707" x="0" y="0"/>
  <path d="M8.62966 6.51527L8.80823 7.00351C4.75545 9.89034 3.3153 13.7677 3.2156 17.9176C3.20193 18.4098 2.86013 18.7789 2.38162 18.7926C1.91677 18.8063 1.50662 18.3825 1.50662 17.8903C1.50662 12.9456 3.52872 8.27053 8.33174 5.2021C8.36783 5.63168 8.46724 6.07209 8.62966 6.51527Z" fill="white" fill-opacity="0.85"/>
  <path d="M25.6511 27.8707C31.0789 25.902 33.3894 20.9254 31.2019 14.9098L30.1765 12.1071C29.1101 9.14027 27.073 7.92347 24.6804 8.75745C24.0379 7.92347 23.0535 7.63636 21.9871 8.01917C21.5906 8.16956 21.2351 8.37464 20.9207 8.62073C20.2234 7.71839 19.1433 7.37659 18.0222 7.78675C17.7215 7.89613 17.4343 8.06019 17.1609 8.25159L15.6023 3.98597C15.0144 2.35902 13.5379 1.67542 12.0203 2.2223C10.489 2.78284 9.80544 4.24573 10.3933 5.87269L14.2898 16.5914C14.3172 16.6598 14.3035 16.7145 14.2351 16.7418C14.1804 16.7555 14.1394 16.7418 14.0984 16.6871L12.4851 14.9508C11.6922 14.1032 10.7488 13.8434 9.83279 14.1715C8.58865 14.6364 7.78201 15.8258 8.28787 17.234C8.42458 17.6305 8.69802 18.109 9.01247 18.5055L13.5926 24.0289C17.0515 28.2262 21.1121 29.525 25.6511 27.8707ZM25.0633 26.0797C21.4812 27.3922 18.1179 26.7223 14.9597 22.9078L10.3797 17.3981C10.2429 17.234 10.1472 17.0836 10.0652 16.8512C9.90115 16.4137 10.0926 15.9078 10.6121 15.7164C11.0496 15.566 11.3914 15.7301 11.7468 16.0993L14.9051 19.3668C15.4383 19.9137 15.9031 19.9684 16.3543 19.8043C16.9011 19.6129 17.1199 19.0387 16.9011 18.4508L12.0613 5.13441C11.8562 4.58753 12.1023 4.068 12.6218 3.87659C13.1551 3.68519 13.6472 3.94495 13.8523 4.49183L17.3113 13.9938C17.4754 14.445 17.9812 14.65 18.4324 14.486C18.8699 14.3219 19.1023 13.8434 18.9383 13.4059L17.6941 9.97425C17.8855 9.79652 18.1453 9.61878 18.4051 9.52308C19.0476 9.29066 19.5808 9.57777 19.8269 10.2477L20.9207 13.2282C21.0847 13.7067 21.5906 13.8844 22.0281 13.7203C22.4519 13.57 22.7254 13.1188 22.5476 12.6403L21.659 10.2067C21.8504 10.0289 22.1101 9.8512 22.3699 9.7555C23.0125 9.52308 23.5457 9.81019 23.7918 10.4801L24.5164 12.4762C24.6941 12.9547 25.2 13.1325 25.6375 12.9684C26.0613 12.818 26.3211 12.3532 26.157 11.8883L25.6101 10.4118C26.7586 10.0016 27.8386 10.9313 28.5769 12.9821L29.4383 15.32C31.3113 20.4879 29.6023 24.4254 25.0633 26.0797Z" fill="white" fill-opacity="0.85"/>
 </g>
</svg>
