<svg version="1.1" xmlns="http://www.w3.org/2000/svg" xmlns:xlink="http://www.w3.org/1999/xlink" viewBox="0 0 24.1035 31.1309">
 <g>
  
  <path d="M11.4434 29.7637C16.2422 29.7637 19.6328 27.166 21.4512 22.0391L23.8574 15.2715C24.0215 14.8066 24.1035 14.3555 24.1035 13.9453C24.1035 12.4961 23.0098 11.4844 21.6152 11.4844C20.6719 11.4844 19.8242 12.0449 19.3594 13.125L18.4707 15.3125C18.4434 15.3672 18.4023 15.4082 18.3477 15.4082C18.2793 15.4082 18.252 15.3535 18.252 15.2852L18.252 4.32031C18.252 2.7207 17.2539 1.70898 15.7227 1.70898C15.1621 1.70898 14.6562 1.91406 14.2734 2.26953C14.0957 0.861328 13.1934 0 11.8398 0C10.5137 0 9.58398 0.888672 9.37891 2.24219C9.03711 1.90039 8.54492 1.70898 8.05273 1.70898C6.63086 1.70898 5.6875 2.70703 5.6875 4.22461L5.6875 5.74219C5.31836 5.35938 4.75781 5.1543 4.18359 5.1543C2.76172 5.1543 1.77734 6.19336 1.77734 7.73828L1.77734 19.4824C1.77734 25.8809 5.66016 29.7637 11.4434 29.7637ZM11.375 27.877C6.53516 27.877 3.58203 24.7598 3.58203 19.2637L3.58203 7.92969C3.58203 7.3418 3.95117 6.94531 4.52539 6.94531C5.08594 6.94531 5.49609 7.3418 5.49609 7.92969L5.49609 14.916C5.49609 15.4219 5.90625 15.7637 6.34375 15.7637C6.80859 15.7637 7.23242 15.4219 7.23242 14.916L7.23242 4.4707C7.23242 3.88281 7.60156 3.47266 8.16211 3.47266C8.73633 3.47266 9.13281 3.88281 9.13281 4.4707L9.13281 14.2188C9.13281 14.7246 9.54297 15.0664 9.99414 15.0664C10.459 15.0664 10.8691 14.7246 10.8691 14.2188L10.8691 2.77539C10.8691 2.1875 11.2656 1.76367 11.8398 1.76367C12.3867 1.76367 12.7832 2.1875 12.7832 2.77539L12.7832 14.2188C12.7832 14.6973 13.166 15.0664 13.6445 15.0664C14.1094 15.0664 14.5195 14.6973 14.5195 14.2188L14.5195 4.4707C14.5195 3.88281 14.916 3.47266 15.4766 3.47266C16.0371 3.47266 16.4336 3.88281 16.4336 4.4707L16.4336 17.5137C12.8105 17.9922 11.3203 20.5625 11.3203 22.6406C11.3203 23.1465 11.6348 23.502 12.0996 23.502C12.6055 23.502 12.9746 23.1738 12.9746 22.6953C12.9746 20.2617 15.1074 19.0039 17.4043 19.0039C17.8965 19.0039 18.3066 18.7852 18.6211 18.1016L20.5898 13.7129C20.8496 13.125 21.3555 12.9199 21.834 13.0977C22.3672 13.2891 22.5312 13.7949 22.2852 14.4648L19.7832 21.4512C18.1152 26.1133 15.1895 27.877 11.375 27.877Z" style="fill:var(--color-0,hsl(0 0 0/0.85))"></path>
 </g>
</svg>