<?xml version="1.0" encoding="UTF-8"?>
<!--Generator: Apple Native CoreSVG 326-->
<!DOCTYPE svg
PUBLIC "-//W3C//DTD SVG 1.1//EN"
       "http://www.w3.org/Graphics/SVG/1.1/DTD/svg11.dtd">
<svg version="1.1" xmlns="http://www.w3.org/2000/svg" xmlns:xlink="http://www.w3.org/1999/xlink" viewBox="0 0 26.3389 25.9561">
 <g>
  <rect height="25.9561" opacity="0" width="26.3389" x="0" y="0"/>
  <path d="M9.49854 22.8149C13.7642 27.0669 19.0825 26.7935 22.9106 22.979C25.9868 19.8892 26.6021 16.6899 25.3032 12.8345C24.606 10.6743 23.4575 8.39111 22.063 5.77979C21.5161 4.71338 20.8325 3.31885 20.3677 2.86768C19.8481 2.34814 19.1372 2.37549 18.5767 2.92236C17.9614 3.5376 17.9888 4.27588 18.4536 5.65674L19.9438 9.81299C20.1079 10.2505 20.0806 10.5239 19.9165 10.688C19.7251 10.8794 19.4653 10.9067 19.1235 10.5649L8.99268 0.42041C8.41846-0.140137 7.4751-0.140137 6.91455 0.42041C6.34033 0.994629 6.34033 1.92432 6.91455 2.49854L14.1606 9.74463C13.8052 9.90869 13.436 10.1274 13.0669 10.3735L4.65869 1.96533C4.09814 1.39111 3.15479 1.39111 2.58057 1.96533C2.02002 2.53955 2.02002 3.46924 2.58057 4.04346L10.8794 12.3423C10.606 12.6704 10.3462 13.0259 10.1001 13.3813L2.49854 5.76611C1.92432 5.19189 0.994629 5.19189 0.42041 5.76611C-0.140137 6.34033-0.140137 7.27002 0.42041 7.84424L8.69189 16.1021C8.51416 16.5669 8.40479 17.0317 8.30908 17.4692L2.56689 11.7271C2.00635 11.1528 1.06299 11.1528 0.48877 11.7271C-0.0717773 12.3013-0.0717773 13.231 0.48877 13.8052Z" fill="white" fill-opacity="0.85"/>
 </g>
</svg>
