<svg version="1.1" xmlns="http://www.w3.org/2000/svg" xmlns:xlink="http://www.w3.org/1999/xlink" viewBox="0 0 28.2461 27.9043">
 <g>
  
  <path d="M13.9453 27.8906C21.6426 27.8906 27.8906 21.6426 27.8906 13.9453C27.8906 6.24805 21.6426 0 13.9453 0C6.24805 0 0 6.24805 0 13.9453C0 21.6426 6.24805 27.8906 13.9453 27.8906ZM13.9453 25.5664C7.51953 25.5664 2.32422 20.3711 2.32422 13.9453C2.32422 7.51953 7.51953 2.32422 13.9453 2.32422C20.3711 2.32422 25.5664 7.51953 25.5664 13.9453C25.5664 20.3711 20.3711 25.5664 13.9453 25.5664Z" style="fill:var(--color-0,hsl(0 0 0/0.85))"></path>
  <path d="M9.57031 11.0195L10.7324 11.0195L10.7324 10.0078C10.7324 8.28516 12.0996 7 13.8906 7C15.6816 7 17.0488 8.28516 17.0488 10.0078L17.0488 11.0195L18.2109 11.0195L18.2109 10.0078C18.2109 7.64258 16.3379 5.85156 13.8906 5.85156C11.4434 5.85156 9.57031 7.64258 9.57031 10.0078ZM13.8906 14.2324C16.1738 14.2324 18.1973 13.3301 19.3594 10.9785C19.0586 10.8145 18.7031 10.7461 18.2793 10.7461L9.50195 10.7461C9.07812 10.7461 8.72266 10.8145 8.42188 10.9785C9.58398 13.3301 11.6074 14.2324 13.8906 14.2324ZM20.959 17.7188L20.3711 12.6191C20.3301 12.3047 20.248 12.0312 20.1113 11.7988C18.9629 13.8906 17.1992 14.9434 15.2852 15.2852L15.2852 15.7363C15.2852 16.2148 14.998 16.502 14.5195 16.502L13.2617 16.502C12.7832 16.502 12.4961 16.2148 12.4961 15.7363L12.4961 15.2852C10.582 14.9434 8.81836 13.8906 7.66992 11.7988C7.5332 12.0312 7.45117 12.3047 7.41016 12.6191L6.82227 17.7188C6.61719 19.5098 7.41016 20.4668 9.07812 20.4668L18.7031 20.4668C20.3711 20.4668 21.1641 19.5098 20.959 17.7188Z" style="fill:var(--color-1,hsl(0 0 0/0.85))"></path>
 </g>
</svg>