<?xml version="1.0" encoding="UTF-8"?>
<!--Generator: Apple Native CoreSVG 326-->
<!DOCTYPE svg
PUBLIC "-//W3C//DTD SVG 1.1//EN"
       "http://www.w3.org/Graphics/SVG/1.1/DTD/svg11.dtd">
<svg version="1.1" xmlns="http://www.w3.org/2000/svg" xmlns:xlink="http://www.w3.org/1999/xlink" viewBox="0 0 32.7783 32.3716">
 <g>
  <rect height="32.3716" opacity="0" width="32.7783" x="0" y="0"/>
  <path d="M9.28662 15.8413L9.28662 16.0969C9.33723 16.0632 9.38861 16.0297 9.44267 15.9971L21.8577 28.3982C20.2914 29.6792 18.2982 30.3157 15.7261 30.3157C10.2983 30.3157 6.34717 26.7473 6.34717 20.718L6.34717 12.9051ZM17.6675 2.56178L17.6675 14.4563C18.105 14.5383 18.5151 14.6477 18.8843 14.7844L18.8843 4.53053C18.8843 3.72389 19.5405 3.06764 20.3472 3.06764C21.1538 3.06764 21.8101 3.72389 21.8101 4.53053L21.8101 18.8723C21.8101 19.3508 22.0015 19.5149 22.2886 19.5149C22.5073 19.5149 22.7261 19.3508 22.9175 18.9133L24.8179 14.9212C25.4604 13.6223 25.9663 13.0754 26.8276 13.0754C27.6069 13.0754 28.1401 13.5676 28.1401 14.3059C28.1401 14.9622 27.6343 16.4251 27.2788 17.5735C26.5325 20.0139 25.8272 22.1669 24.9667 24.0135L14.728 13.7806L14.728 2.56178C14.728 1.75514 15.3979 1.08521 16.2046 1.08521C17.0112 1.08521 17.6675 1.75514 17.6675 2.56178ZM13.4429 3.72389L13.4429 12.4962L10.5171 9.57208L10.5171 3.72389C10.5171 2.91724 11.1733 2.26099 11.98 2.26099C12.7866 2.26099 13.4429 2.91724 13.4429 3.72389ZM9.28662 7.97584L9.28662 8.3423L7.49474 6.55143C7.60043 6.52582 7.71074 6.51295 7.82373 6.51295C8.63037 6.51295 9.28662 7.1692 9.28662 7.97584Z" fill="white" fill-opacity="0.85"/>
  <path d="M26.1851 30.4797C26.5952 30.8762 27.2788 30.8899 27.6753 30.4797C28.0854 30.0559 28.0991 29.3997 27.6753 28.9895L3.39404 4.70826C2.98389 4.2981 2.31396 4.2981 1.89014 4.70826C1.49365 5.11842 1.49365 5.80201 1.89014 6.19849Z" fill="white" fill-opacity="0.85"/>
 </g>
</svg>
