<svg version="1.1" xmlns="http://www.w3.org/2000/svg" xmlns:xlink="http://www.w3.org/1999/xlink" viewBox="0 0 27.2891 28.0156">
 <g>
  
  <path d="M26.9336 8.73727C26.9336 4.69039 24.3906 1.29977 21.0137 1.29977L18.6074 1.29977C21.0684 3.09078 22.1621 5.79782 22.1074 8.87399C22.0664 12.292 20.7402 14.7392 19.5508 16.2158L21.5195 16.2158C24.5684 16.2158 26.9336 12.9345 26.9336 8.73727ZM20.2754 8.83297C20.3574 3.84274 16.3105 0.0692994 9.95312 0.0146119L8.10742 0.000940024C6.33008-0.0127319 5.01758 0.123987 4.2793 0.329065C3.21289 0.588831 2.1875 1.23141 2.1875 2.53024C2.1875 3.04977 2.32422 3.44625 2.48828 3.73336C2.59766 3.89742 2.58398 4.04782 2.40625 4.11617C1.57227 4.45797 0.861328 5.26461 0.861328 6.33102C0.861328 6.95992 1.03906 7.49313 1.35352 7.87594C1.50391 8.08102 1.47656 8.25875 1.23047 8.40914C0.615234 8.76461 0.177734 9.53024 0.177734 10.4189C0.177734 11.0615 0.382812 11.7314 0.738281 12.0595C0.970703 12.2509 0.929688 12.3877 0.697266 12.5927C0.273438 12.9482 0 13.5634 0 14.3427C0 15.6552 1.02539 16.7353 2.37891 16.7353L7.19141 16.7353C8.4082 16.7353 9.21484 17.3642 9.21484 18.3759C9.21484 20.1943 6.94531 23.5439 6.94531 25.9502C6.94531 27.2353 7.75195 27.9736 8.83203 27.9736C9.80273 27.9736 10.2812 27.3037 10.8008 26.2783C12.8379 22.3271 15.5449 19.1279 17.6094 16.3798C19.3594 14.0556 20.2207 12.0595 20.2754 8.83297Z" style="fill:var(--color-0,hsl(0 0 0/0.85))"></path>
 </g>
</svg>