<svg version="1.1" xmlns="http://www.w3.org/2000/svg" xmlns:xlink="http://www.w3.org/1999/xlink" viewBox="0 0 28.5987 29.0801">
 <g>
  
  <path d="M5.59037 10.1855L7.79154 10.1855L7.79154 8.23047C7.79154 4.8125 10.5396 2.20117 14.1216 2.20117C17.7036 2.20117 20.4517 4.8125 20.4517 8.23047L20.4517 10.1855L22.6529 10.1855L22.6529 8.23047C22.6529 3.56836 18.9615 0 14.1216 0C9.29545 0 5.59037 3.56836 5.59037 8.23047ZM14.1216 16.707C18.688 16.707 22.7349 14.9023 25.0591 10.1992C24.4576 9.84375 23.7193 9.67969 22.8579 9.67969L5.38529 9.67969C4.52396 9.67969 3.78568 9.84375 3.18412 10.1992C5.52201 14.9023 9.55521 16.707 14.1216 16.707ZM28.1763 23.5703L27.0005 13.4531C26.9185 12.7832 26.7544 12.25 26.481 11.7852C24.1841 15.9414 20.6568 18.0332 16.856 18.6895L16.856 19.6602C16.856 20.5898 16.3091 21.1094 15.3794 21.1094L12.8638 21.1094C11.9341 21.1094 11.3872 20.5898 11.3872 19.6602L11.3872 18.6895C7.58646 18.0332 4.05912 15.9551 1.76224 11.7988C1.50248 12.25 1.33842 12.7832 1.25638 13.4531L0.0669307 23.5703C-0.356897 27.125 1.24271 29.0664 4.56498 29.0664L23.6783 29.0664C27.0142 29.0664 28.6001 27.125 28.1763 23.5703Z" style="fill:var(--color-0,hsl(0 0 0/0.85))"></path>
 </g>
</svg>