<svg version="1.1" xmlns="http://www.w3.org/2000/svg" xmlns:xlink="http://www.w3.org/1999/xlink" viewBox="0 0 22.6816 28.8887">
 <g>
  
  <path d="M9.65234 0.123047C3.86914 0.123047 0 4.00586 0 10.4043L0 13.3848C0 16.543 1.49023 18.3887 4.0332 18.416C4.34766 19.4141 5.16797 20.0293 6.31641 20.0293C6.72656 20.0293 7.12305 19.9609 7.50586 19.8242C7.86133 20.9316 8.76367 21.6016 9.95312 21.6016C10.2676 21.6016 10.5957 21.5605 10.9238 21.4648L10.9238 26.0176C10.9238 27.7402 12.0723 28.8887 13.6855 28.8887C15.3125 28.8887 16.4609 27.7402 16.4609 26.0176L16.4609 14.6016C16.4609 14.5332 16.502 14.4785 16.5703 14.4785C16.625 14.4785 16.666 14.5195 16.6797 14.5742L17.5957 16.7617C18.0605 17.8281 18.8535 18.4023 19.8242 18.4023C21.1504 18.4023 22.3262 17.5547 22.3262 16.0508C22.3262 15.6406 22.2441 15.0938 22.0801 14.6152L19.6738 7.84766C17.8555 2.7207 14.4785 0.123047 9.65234 0.123047ZM9.58398 2.00977C13.4121 2.00977 16.3379 3.77344 18.0059 8.43555L20.4258 15.1895C20.4941 15.3945 20.5352 15.5723 20.5352 15.8047C20.5352 16.2832 20.1797 16.6934 19.6328 16.6934C19.168 16.6934 18.8945 16.4062 18.6895 15.9414L16.8301 11.7852C16.5293 11.1016 16.1055 10.8828 15.627 10.8828C15.0527 10.8828 14.6426 11.334 14.6426 11.9629L14.6426 26.1406C14.6426 26.7148 14.2461 27.125 13.6855 27.125C13.125 27.125 12.7422 26.7148 12.7422 26.1406L12.7422 16.0234C12.7422 15.5449 12.332 15.1758 11.8535 15.1758C11.3887 15.1758 11.0059 15.5449 11.0059 16.0234L11.0059 19.6602C10.7734 19.7695 10.459 19.8379 10.1855 19.8379C9.50195 19.8379 9.0918 19.4004 9.0918 18.6758L9.0918 15.5039C9.0918 14.998 8.68164 14.6562 8.2168 14.6562C7.76562 14.6562 7.35547 14.998 7.35547 15.5039L7.35547 18.0879C7.12305 18.1973 6.80859 18.2656 6.54883 18.2656C5.85156 18.2656 5.45508 17.8281 5.45508 17.1035L5.45508 14.9707C5.45508 14.4785 5.03125 14.1367 4.56641 14.1367C4.11523 14.1367 3.71875 14.4785 3.71875 14.9707L3.71875 16.543C2.50195 16.543 1.80469 15.2988 1.80469 13.1113L1.80469 10.623C1.80469 5.12695 4.75781 2.00977 9.58398 2.00977Z" style="fill:var(--color-0,hsl(0 0 0/0.85))"></path>
 </g>
</svg>