<svg version="1.1" xmlns="http://www.w3.org/2000/svg" xmlns:xlink="http://www.w3.org/1999/xlink" viewBox="0 0 25.5254 25.1699">
 <g>
  
  <path d="M4.29297 25.1699L20.877 25.1699C23.748 25.1699 25.1699 23.7617 25.1699 20.9453L25.1699 4.23828C25.1699 1.42188 23.748 0 20.877 0L4.29297 0C1.43555 0 0 1.42188 0 4.23828L0 20.9453C0 23.7617 1.43555 25.1699 4.29297 25.1699Z" style="fill:var(--color-0,#007aff)"></path>
  <path d="M6.79492 15.2441L6.79492 7.62891C6.79492 7.13672 7.20508 6.71289 7.72461 6.71289C8.20312 6.71289 8.62695 7.13672 8.62695 7.62891L8.62695 12.4141C8.83203 12.291 9.03711 12.1543 9.29688 12.0449L9.29688 5.05859C9.29688 4.56641 9.70703 4.16992 10.1992 4.16992C10.6914 4.16992 11.1152 4.56641 11.1152 5.05859L11.1152 11.457C11.3477 11.416 11.5801 11.3887 11.8262 11.3613L11.8262 4.36133C11.8262 3.88281 12.2227 3.45898 12.7285 3.45898C13.2344 3.45898 13.6309 3.88281 13.6309 4.36133L13.6309 11.4434C13.8633 11.5117 14.0957 11.5938 14.3145 11.6484L14.3145 5.55078C14.3145 5.05859 14.7109 4.64844 15.2168 4.64844C15.6953 4.64844 16.1055 5.05859 16.1055 5.55078L16.1055 14.1367C16.1055 14.3828 16.2012 14.4922 16.3789 14.4922C16.502 14.4922 16.625 14.4102 16.7207 14.1504L17.8691 11.7441C18.252 10.9648 18.5527 10.6367 19.0996 10.6367C19.5781 10.6367 19.9199 10.9512 19.9199 11.4023C19.9199 11.7852 19.6055 12.6465 19.3867 13.3438C18.8809 15.0254 18.4023 16.4746 17.7734 17.6914C16.6387 20.0156 14.9297 21.0137 12.4414 21.0137C9.11914 21.0137 6.79492 18.8125 6.79492 15.2441Z" style="fill:var(--color-1,white)"></path>
 </g>
</svg>