<?xml version="1.0" encoding="UTF-8"?>
<!--Generator: Apple Native CoreSVG 326-->
<!DOCTYPE svg
PUBLIC "-//W3C//DTD SVG 1.1//EN"
       "http://www.w3.org/Graphics/SVG/1.1/DTD/svg11.dtd">
<svg version="1.1" xmlns="http://www.w3.org/2000/svg" xmlns:xlink="http://www.w3.org/1999/xlink" viewBox="0 0 25.5664 25.2246">
 <g>
  <rect height="25.2246" opacity="0" width="25.5664" x="0" y="0"/>
  <path d="M23.6113 1.61328C22.2168 0.21875 20.248 0 17.9102 0L7.25977 0C4.96289 0 2.99414 0.21875 1.59961 1.61328C0.205078 3.00781 0 4.96289 0 7.25977L0 17.9102C0 20.248 0.205078 22.2031 1.59961 23.5977C2.99414 24.9922 4.96289 25.2109 7.28711 25.2109L17.9102 25.2109C20.248 25.2109 22.2168 24.9922 23.6113 23.5977C25.0059 22.2031 25.2109 20.248 25.2109 17.9102L25.2109 7.28711C25.2109 4.94922 25.0059 3.00781 23.6113 1.61328Z" fill="#0a84ff"/>
  <path d="M6.79492 15.2715L6.79492 7.65625C6.79492 7.16406 7.20508 6.74023 7.72461 6.74023C8.20312 6.74023 8.62695 7.16406 8.62695 7.65625L8.62695 12.4414C8.83203 12.3184 9.03711 12.1816 9.29688 12.0723L9.29688 5.08594C9.29688 4.59375 9.70703 4.19727 10.1992 4.19727C10.6914 4.19727 11.1152 4.59375 11.1152 5.08594L11.1152 11.4844C11.3477 11.4434 11.5801 11.416 11.8262 11.3887L11.8262 4.38867C11.8262 3.91016 12.2227 3.48633 12.7285 3.48633C13.2344 3.48633 13.6309 3.91016 13.6309 4.38867L13.6309 11.4707C13.8633 11.5391 14.0957 11.6211 14.3145 11.6758L14.3145 5.57812C14.3145 5.08594 14.7109 4.67578 15.2168 4.67578C15.6953 4.67578 16.1055 5.08594 16.1055 5.57812L16.1055 14.1641C16.1055 14.4102 16.2012 14.5195 16.3789 14.5195C16.502 14.5195 16.625 14.4375 16.7207 14.1777L17.8691 11.7715C18.252 10.9922 18.5527 10.6641 19.0996 10.6641C19.5781 10.6641 19.9199 10.9785 19.9199 11.4297C19.9199 11.8125 19.6055 12.6738 19.3867 13.3711C18.8809 15.0527 18.4023 16.502 17.7734 17.7188C16.6387 20.043 14.9297 21.041 12.4414 21.041C9.11914 21.041 6.79492 18.8398 6.79492 15.2715Z" fill="white"/>
 </g>
</svg>
