<svg version="1.1" xmlns="http://www.w3.org/2000/svg" xmlns:xlink="http://www.w3.org/1999/xlink" viewBox="0 0 24.2592 26.6991">
 <g>
  
  <path d="M17.5163 26.0029C22.9441 24.0341 25.2546 19.0576 23.0808 13.0419L22.0554 10.2392C20.9753 7.27241 18.9382 6.05562 16.5593 6.8896C15.9167 6.05562 14.9324 5.76851 13.8523 6.16499C13.4558 6.30171 13.114 6.50679 12.7859 6.75288C12.0886 5.83687 11.0085 5.50874 9.88744 5.9189C9.58665 6.02827 9.29955 6.19233 9.02611 6.38374L7.48119 2.11812C6.87962 0.491163 5.41673-0.192431 3.89915 0.354444C2.3679 0.914991 1.68431 2.37788 2.25853 4.00483L6.16869 14.7236C6.18236 14.7919 6.16869 14.8466 6.10033 14.874C6.04564 14.9013 6.00462 14.874 5.96361 14.8193L4.364 13.083C3.57103 12.2353 2.62767 11.9892 1.71165 12.3173C0.453842 12.7685-0.352799 13.958 0.153061 15.3662C0.289779 15.7626 0.576889 16.2548 0.87767 16.624L5.45775 22.1611C8.9304 26.3584 12.9773 27.6572 17.5163 26.0029ZM16.9421 24.2119C13.3464 25.5244 9.98314 24.8544 6.82494 21.04L2.25853 15.5302C2.10814 15.3662 2.01244 15.2158 1.9304 14.997C1.76634 14.5459 1.95775 14.0537 2.49095 13.8623C2.91478 13.6982 3.27025 13.8623 3.61205 14.2314L6.77025 17.499C7.30345 18.0459 7.7683 18.1005 8.21947 17.9365C8.76634 17.7314 8.98509 17.1845 8.78001 16.583L3.9265 3.26655C3.72142 2.73335 3.96751 2.21382 4.50072 2.00874C5.03392 1.83101 5.52611 2.06343 5.71751 2.62398L9.1765 12.1259C9.35423 12.5771 9.86009 12.7822 10.2976 12.6044C10.7351 12.4541 10.9812 11.9755 10.8171 11.5244L9.55931 8.1064C9.75072 7.92866 10.0105 7.75093 10.2839 7.6689C10.9128 7.43648 11.446 7.70991 11.6921 8.37983L12.7859 11.3603C12.9636 11.8388 13.4695 12.0166 13.8933 11.8662C14.3308 11.7021 14.5906 11.2509 14.4128 10.7861L13.5378 8.33882C13.7156 8.16108 13.989 7.98335 14.2351 7.88765C14.8777 7.65523 15.4245 7.92866 15.6706 8.61226L16.3952 10.622C16.5593 11.0869 17.0788 11.2646 17.5163 11.1005C17.9265 10.9501 18.1863 10.4853 18.0222 10.0205L17.489 8.5439C18.6238 8.13374 19.7038 9.0771 20.4558 11.1142L21.3035 13.4521C23.1765 18.6201 21.4812 22.5576 16.9421 24.2119Z" style="fill:var(--color-0,hsl(0 0 0/0.85))"></path>
 </g>
</svg>