<svg version="1.1" xmlns="http://www.w3.org/2000/svg" xmlns:xlink="http://www.w3.org/1999/xlink" viewBox="0 0 28.2461 27.9043">
 <g>
  
  <path d="M13.9453 27.8906C21.6426 27.8906 27.8906 21.6426 27.8906 13.9453C27.8906 6.24805 21.6426 0 13.9453 0C6.24805 0 0 6.24805 0 13.9453C0 21.6426 6.24805 27.8906 13.9453 27.8906ZM13.9453 25.5664C7.51953 25.5664 2.32422 20.3711 2.32422 13.9453C2.32422 7.51953 7.51953 2.32422 13.9453 2.32422C20.3711 2.32422 25.5664 7.51953 25.5664 13.9453C25.5664 20.3711 20.3711 25.5664 13.9453 25.5664Z" style="fill:var(--color-0,hsl(0 0 0/0.85))"></path>
  <path d="M6.11133 16.1465C6.11133 18.3613 7.45117 20.1934 9.2832 20.1934L10.623 20.1934C9.26953 19.2227 8.69531 17.7598 8.72266 16.0781C8.75 14.2188 9.46094 12.9199 10.0898 12.1133L9.02344 12.1133C7.35547 12.1133 6.11133 13.8906 6.11133 16.1465ZM9.70703 16.0918C9.66602 18.7988 11.8398 20.8496 15.2852 20.8633L16.2969 20.877C17.2402 20.8906 17.9512 20.8223 18.3477 20.7266C18.9355 20.5625 19.5098 20.2344 19.5098 19.5234C19.5098 19.2637 19.4277 19.0176 19.3457 18.8809C19.291 18.7852 19.291 18.7031 19.3867 18.6621C19.8242 18.498 20.2207 18.0469 20.2207 17.4727C20.2207 17.1309 20.125 16.8301 19.9473 16.6387C19.8652 16.5293 19.8789 16.4062 20.002 16.3379C20.3574 16.1328 20.5762 15.7363 20.5762 15.2441C20.5762 14.916 20.4805 14.5332 20.2754 14.3555C20.166 14.2461 20.1797 14.1914 20.3164 14.082C20.5352 13.877 20.6719 13.5352 20.6719 13.1387C20.6719 12.4004 20.125 11.8125 19.4004 11.8125L16.8027 11.8125C16.1191 11.8125 15.6953 11.4844 15.6953 10.9238C15.6953 9.93945 16.9258 8.12109 16.9258 6.82227C16.9258 6.13867 16.4746 5.74219 15.9004 5.74219C15.3672 5.74219 15.1074 6.09766 14.834 6.6582C13.7266 8.79102 12.25 10.5273 11.1426 12.0312C10.1992 13.2754 9.73438 14.3555 9.70703 16.0918Z" style="fill:var(--color-1,hsl(0 0 0/0.85))"></path>
 </g>
</svg>