<svg version="1.1" xmlns="http://www.w3.org/2000/svg" xmlns:xlink="http://www.w3.org/1999/xlink" viewBox="0 0 23.502 30.2012">
 <g>
  
  <path d="M1.70898 19.6328C1.70898 25.6621 5.66016 29.2305 11.0879 29.2305C15.4355 29.2305 18.1289 27.4121 19.9199 23.7617C20.9727 21.7383 21.7793 19.3047 22.6406 16.4883C22.9961 15.3398 23.502 13.877 23.502 13.2207C23.502 12.4824 22.9688 11.9902 22.1895 11.9902C21.3281 11.9902 20.8223 12.5371 20.1797 13.8359L18.2793 17.8281C18.0879 18.2656 17.8691 18.4297 17.6504 18.4297C17.3633 18.4297 17.1719 18.2656 17.1719 17.7871L17.1719 3.44531C17.1719 2.63867 16.5156 1.98242 15.709 1.98242C14.9023 1.98242 14.2461 2.63867 14.2461 3.44531L14.2461 13.6992C13.877 13.5625 13.4668 13.4531 13.0293 13.3711L13.0293 1.47656C13.0293 0.669922 12.373 0 11.5664 0C10.7598 0 10.0898 0.669922 10.0898 1.47656L10.0898 13.2207C9.66602 13.248 9.22852 13.3164 8.80469 13.3848L8.80469 2.63867C8.80469 1.83203 8.14844 1.17578 7.3418 1.17578C6.53516 1.17578 5.87891 1.83203 5.87891 2.63867L5.87891 14.3145C5.42773 14.5332 5.01758 14.7656 4.64844 15.0117L4.64844 6.89062C4.64844 6.08398 3.99219 5.42773 3.18555 5.42773C2.37891 5.42773 1.70898 6.08398 1.70898 6.89062Z" style="fill:var(--color-0,#007aff)"></path>
 </g>
</svg>