<?xml version="1.0" encoding="UTF-8"?>
<!--Generator: Apple Native CoreSVG 326-->
<!DOCTYPE svg
PUBLIC "-//W3C//DTD SVG 1.1//EN"
       "http://www.w3.org/Graphics/SVG/1.1/DTD/svg11.dtd">
<svg version="1.1" xmlns="http://www.w3.org/2000/svg" xmlns:xlink="http://www.w3.org/1999/xlink" viewBox="0 0 28.2461 27.9043">
 <g>
  <rect height="27.9043" opacity="0" width="28.2461" x="0" y="0"/>
  <path d="M13.9453 27.8906C21.6426 27.8906 27.8906 21.6426 27.8906 13.9453C27.8906 6.24805 21.6426 0 13.9453 0C6.24805 0 0 6.24805 0 13.9453C0 21.6426 6.24805 27.8906 13.9453 27.8906ZM13.9453 25.5664C7.51953 25.5664 2.32422 20.3711 2.32422 13.9453C2.32422 7.51953 7.51953 2.32422 13.9453 2.32422C20.3711 2.32422 25.5664 7.51953 25.5664 13.9453C25.5664 20.3711 20.3711 25.5664 13.9453 25.5664Z" fill="white" fill-opacity="0.85"/>
  <path d="M21.6289 11.6484C21.6289 9.44727 20.2891 7.61523 18.457 7.61523L17.1172 7.61523C18.4707 8.58594 19.0449 10.0352 19.0176 11.7305C18.9902 13.5898 18.2656 14.8887 17.6504 15.6953L18.7168 15.6953C20.3711 15.6953 21.6289 13.918 21.6289 11.6484ZM18.0332 11.7168C18.0742 8.99609 15.9004 6.97266 12.4551 6.93164L11.4434 6.91797C10.5 6.9043 9.78906 6.98633 9.39258 7.08203C8.80469 7.23242 8.23047 7.57422 8.23047 8.28516C8.23047 8.54492 8.3125 8.79102 8.39453 8.92773C8.44922 9.02344 8.43555 9.10547 8.35352 9.14648C7.91602 9.31055 7.50586 9.76172 7.50586 10.3223C7.50586 10.6777 7.61523 10.9785 7.79297 11.1699C7.875 11.2793 7.86133 11.3887 7.73828 11.4707C7.38281 11.6758 7.15039 12.0723 7.15039 12.5645C7.15039 12.8926 7.25977 13.2754 7.45117 13.4531C7.57422 13.5625 7.56055 13.6172 7.42383 13.7266C7.20508 13.9316 7.06836 14.2734 7.06836 14.6699C7.06836 15.4082 7.61523 15.9961 8.33984 15.9961L10.9375 15.9961C11.6211 15.9961 12.0449 16.3242 12.0449 16.8848C12.0449 17.8691 10.8145 19.6875 10.8145 20.9727C10.8145 21.6562 11.2656 22.0664 11.8398 22.0664C12.373 22.0664 12.6328 21.7109 12.8926 21.1504C14.0137 19.0176 15.4766 17.2812 16.5977 15.7637C17.5273 14.5332 18.0059 13.4531 18.0332 11.7168Z" fill="white" fill-opacity="0.85"/>
 </g>
</svg>
