<svg version="1.1" xmlns="http://www.w3.org/2000/svg" xmlns:xlink="http://www.w3.org/1999/xlink" viewBox="0 0 25.5254 25.498">
 <g>
  
  <path d="M4.29297 25.498L20.877 25.498C23.748 25.498 25.1699 24.0762 25.1699 21.2598L25.1699 4.56641C25.1699 1.75 23.748 0.328125 20.877 0.328125L4.29297 0.328125C1.43555 0.328125 0 1.73633 0 4.56641L0 21.2598C0 24.0898 1.43555 25.498 4.29297 25.498ZM4.32031 23.2969C2.95312 23.2969 2.20117 22.5586 2.20117 21.1504L2.20117 4.67578C2.20117 3.25391 2.95312 2.5293 4.32031 2.5293L20.8496 2.5293C22.2031 2.5293 22.9688 3.25391 22.9688 4.67578L22.9688 21.1504C22.9688 22.5586 22.2031 23.2969 20.8496 23.2969Z" style="fill:var(--color-0,#007aff)"></path>
  <path d="M6.80859 15.4629C6.80859 18.9492 9.06445 21.0684 12.2773 21.0684C14.6973 21.0684 16.3516 20.0977 17.459 17.8281C18.0605 16.6523 18.5254 15.2441 19.0176 13.6172C19.2227 12.9473 19.5098 12.1133 19.5098 11.7441C19.5098 11.3066 19.1816 11.0059 18.7305 11.0059C18.2109 11.0059 17.9102 11.3203 17.541 12.0723L16.4336 14.4102C16.3242 14.6562 16.2148 14.7383 16.0918 14.7383C15.9277 14.7383 15.832 14.6289 15.832 14.3965L15.832 6.07031C15.832 5.5918 15.4355 5.19531 14.957 5.19531C14.4785 5.19531 14.0957 5.5918 14.0957 6.07031L14.0957 11.9766C13.877 11.9219 13.6582 11.8398 13.4258 11.7988L13.4258 4.9082C13.4258 4.44336 13.043 4.0332 12.5508 4.0332C12.0723 4.0332 11.6758 4.44336 11.6758 4.9082L11.6758 11.7031C11.4434 11.7305 11.2109 11.7578 10.9785 11.7988L10.9785 5.5918C10.9785 5.11328 10.582 4.73047 10.1035 4.73047C9.625 4.73047 9.22852 5.11328 9.22852 5.5918L9.22852 12.3594C8.98242 12.4688 8.77734 12.6055 8.55859 12.7285L8.55859 8.08008C8.55859 7.60156 8.16211 7.19141 7.69727 7.19141C7.20508 7.19141 6.80859 7.60156 6.80859 8.08008Z" style="fill:var(--color-1,#007aff)"></path>
 </g>
</svg>