<?xml version="1.0" encoding="UTF-8"?>
<!--Generator: Apple Native CoreSVG 326-->
<!DOCTYPE svg
PUBLIC "-//W3C//DTD SVG 1.1//EN"
       "http://www.w3.org/Graphics/SVG/1.1/DTD/svg11.dtd">
<svg version="1.1" xmlns="http://www.w3.org/2000/svg" xmlns:xlink="http://www.w3.org/1999/xlink" viewBox="0 0 28.2051 29.791">
 <g>
  <rect height="29.791" opacity="0" width="28.2051" x="0" y="0"/>
  <path d="M27.8496 9.59766C27.8496 5.16797 24.9648 1.46289 21.4785 1.46289L17.1172 1.46289C15.3809 0.546875 13.2754 0 10.9238 0L9.0918 0C7.45117 0 6.0293 0.0957031 5.08594 0.341797C3.25391 0.779297 2.10547 2.06445 2.10547 3.67773C2.10547 4.00586 2.16016 4.32031 2.24219 4.60742C1.33984 5.30469 0.833984 6.28906 0.833984 7.39648C0.833984 7.92969 0.929688 8.44922 1.13477 8.88672C0.519531 9.51562 0.164062 10.4316 0.164062 11.3887C0.164062 12.0039 0.328125 12.6602 0.587891 13.1387C0.21875 13.6719 0 14.4238 0 15.2031C0 17.1855 1.54492 18.7441 3.51367 18.7441L8.50391 18.7441C8.80469 18.7441 8.99609 18.8809 8.99609 19.1406C8.99609 20.5625 6.75391 23.8984 6.75391 26.5781C6.75391 28.4238 8.03906 29.7363 9.80273 29.7363C11.1016 29.7363 11.9766 29.0664 12.8242 27.4258C14.4375 24.3359 16.3516 21.5879 19.4688 17.7871L21.9707 17.7871C25.2246 17.7871 27.8496 14.1094 27.8496 9.59766ZM20.1523 9.66602C20.1523 12.5234 19.5098 14.3418 17.7324 16.7344C15.75 19.373 12.9883 22.5586 11.0195 26.4961C10.5137 27.4805 10.1992 27.7129 9.7207 27.7129C9.16016 27.7129 8.77734 27.3164 8.77734 26.5781C8.77734 24.4316 11.0195 21.2051 11.0195 19.1406C11.0195 17.6367 9.78906 16.7207 8.2168 16.7207L3.51367 16.7207C2.66602 16.7207 2.02344 16.0781 2.02344 15.2031C2.02344 14.5742 2.21484 14.1777 2.73438 13.6719C2.98047 13.4531 3.00781 13.166 2.80273 12.9199C2.37891 12.291 2.1875 11.9082 2.1875 11.3887C2.1875 10.7598 2.48828 10.2402 3.08984 9.77539C3.41797 9.5293 3.55469 9.1875 3.34961 8.77734C3.02148 8.16211 2.85742 7.875 2.85742 7.39648C2.85742 6.69922 3.30859 6.15234 4.26562 5.66016C4.56641 5.49609 4.63477 5.25 4.49805 4.94922C4.18359 4.14258 4.14258 4.01953 4.14258 3.67773C4.14258 3.04883 4.59375 2.54297 5.55078 2.29688C6.33008 2.0918 7.57422 2.00977 9.07812 2.00977L10.7734 2.00977C16.4062 2.02344 20.1523 5.22266 20.1523 9.66602ZM25.8262 9.59766C25.8262 12.9883 23.9941 15.7637 21.9707 15.7637C21.5742 15.7637 21.1777 15.7637 20.7812 15.7637C21.752 13.918 22.1758 12.0039 22.1758 9.70703C22.1758 7.25977 21.3008 5.12695 19.7285 3.5C20.3027 3.5 20.8906 3.5 21.4785 3.5C23.7891 3.5 25.8262 6.27539 25.8262 9.59766Z" fill="white" fill-opacity="0.85"/>
 </g>
</svg>
