<?xml version="1.0" encoding="UTF-8"?>
<!--Generator: Apple Native CoreSVG 326-->
<!DOCTYPE svg
PUBLIC "-//W3C//DTD SVG 1.1//EN"
       "http://www.w3.org/Graphics/SVG/1.1/DTD/svg11.dtd">
<svg version="1.1" xmlns="http://www.w3.org/2000/svg" xmlns:xlink="http://www.w3.org/1999/xlink" viewBox="0 0 42.6973 32.2793">
 <g>
  <rect height="32.2793" opacity="0" width="42.6973" x="0" y="0"/>
  <path d="M29.1621 29.2715C31.9785 29.2715 32.9629 27.8223 32.9629 26.2227C32.9629 23.2832 30.4199 21.6836 25.334 21.6836C24.1855 21.6836 23.5293 21.752 23.0234 21.8203L22.0254 19.4141C19.9609 14.4512 16.666 12.7559 13.3027 12.7559C12.7559 12.7559 12.127 12.7695 11.5664 12.8926C10.8965 13.043 10.6367 13.3984 10.6367 13.8496C10.6367 14.3691 11.0195 14.7109 11.5801 14.6973C12.168 14.6699 12.5371 14.6016 13.207 14.6016C16.3105 14.6016 18.5117 16.2832 20.4941 20.7676L21.8066 23.8164C22.8457 23.5977 23.8301 23.4336 25.3887 23.4336C28.1641 23.4336 30.9395 24.1719 30.9395 26.0586C30.9395 26.7832 30.2969 27.2754 29.1621 27.2754C27.8223 27.2754 26.8652 26.9336 25.6758 26.9336C23.9531 26.9336 22.8867 27.207 22.1211 27.207C21.4922 27.207 20.8086 27.1113 20.1113 26.5508L14 21.3965C9.625 21.5879 6.42578 20.4395 4.56641 17.7598C3.17188 17.9238 2.16016 17.3906 2.16016 16.2422C2.16016 15.2031 3.07617 14.4785 4.58008 14.5605C5.98828 9.93945 9.06445 7.79297 13.3164 7.79297C17.7734 7.79297 22.3672 11.3887 25.7168 13.2754C26.6191 13.8223 27.6172 14 28.3008 14C29.791 14 30.9805 13.0566 32.0469 11.1426L22.9414 5.53711C21.9707 4.94922 20.6035 3.89648 20.6035 3.52734C20.6035 2.7207 22.4902 2.11914 23.8711 2.11914C26.0312 2.11914 27.8359 3.43164 29.5039 5.42773L33.7012 10.4453C37.5566 10.2676 40.4824 13.2207 40.4824 16.9941C40.4824 19.4141 39.3477 20.1523 36.4766 20.1523C34.6855 20.1523 32.7168 19.4277 31.0078 18.3477C28.4102 19.0039 25.6895 20.2617 23.5293 21.9023L25.0742 22.8047C27.1797 21.5879 29.3398 20.6855 30.6523 20.207C32.293 21.3008 34.6582 21.957 36.4082 21.9434C40.0996 21.916 42.3418 20.7676 42.3418 16.9805C42.3418 12.332 38.8008 8.83203 34.6445 8.79102L31.6777 4.75781C29.3945 1.70898 26.9609 0 23.8438 0C21.4238 0 18.1289 1.33984 18.1289 3.24023C18.1289 4.82617 19.9336 5.96094 21.6973 7.06836C23.748 8.35352 26.5098 9.95312 29.0801 11.4434C28.7383 11.7578 28.4785 11.8945 28.1367 11.8945C27.7129 11.8945 27.1523 11.6895 26.4277 11.2656C20.9043 8.14844 17.5957 5.61914 13.3438 5.61914C8.25781 5.61914 4.59375 8.23047 2.85742 13.2344C1.16211 13.5898 0 14.6973 0 16.4062C0 18.5254 1.72266 19.6191 3.48633 19.7148C4.78516 21.834 8.4082 23.707 13.0703 23.3242L19.0449 28.2598C19.8379 28.916 20.6992 29.2715 22.0664 29.2715C23.2148 29.2715 24.1172 28.8887 25.7441 28.8887C27.2207 28.8887 27.9727 29.2715 29.1621 29.2715ZM12.4551 30.748C15.3398 30.748 17.9238 30.0098 19.9746 27.7266L18.2793 26.5781C17.0488 28.1094 14.9707 28.8887 12.3867 28.8887C10.4727 28.8887 9.24219 28.2051 9.24219 27.1113C9.24219 26.5645 9.59766 26.1406 10.3906 26.1406C11.1699 26.1406 12.0312 26.3594 12.9746 26.3594C14.5879 26.3594 15.5723 26.1816 16.625 25.1016L15.1484 23.8027C14.4375 24.5 13.959 24.6367 13.3164 24.6367C12.4141 24.623 11.5391 24.3359 10.5 24.3359C8.59961 24.3359 7.27344 25.4434 7.27344 27.0977C7.27344 29.4355 9.33789 30.748 12.4551 30.748ZM35.5605 16.1328C36.2441 16.1328 36.8047 15.5723 36.8047 14.9023C36.8047 14.2324 36.2441 13.6719 35.5605 13.6719C34.8906 13.6719 34.3301 14.2324 34.3301 14.9023C34.3301 15.5723 34.8906 16.1328 35.5605 16.1328Z" fill="white" fill-opacity="0.85"/>
 </g>
</svg>
