<?xml version="1.0" encoding="UTF-8"?>
<!--Generator: Apple Native CoreSVG 326-->
<!DOCTYPE svg
PUBLIC "-//W3C//DTD SVG 1.1//EN"
       "http://www.w3.org/Graphics/SVG/1.1/DTD/svg11.dtd">
<svg version="1.1" xmlns="http://www.w3.org/2000/svg" xmlns:xlink="http://www.w3.org/1999/xlink" viewBox="0 0 38.2183 21.834">
 <g>
  <rect height="21.834" opacity="0" width="38.2183" x="0" y="0"/>
  <path d="M1.7732 20.6445C10.6052 20.1523 25.1248 16.8164 28.5564 13.3711C25.7947 6.68555 22.5134 0.300781 11.0291 2.24219C2.03297 3.77344-1.50805 11.3203 0.583749 19.7559C0.747811 20.3984 1.13062 20.6719 1.7732 20.6445ZM2.62086 18.4434C1.04859 11.4707 4.01539 5.55078 11.4392 4.33398C20.4216 2.87109 23.4158 7 25.8084 12.5371C22.4451 15.2031 9.73023 18.1016 2.62086 18.4434ZM9.03297 3.00781L12.9978 2.47461L12.8884 1.55859C12.7927 0.847656 12.0545 0.4375 11.1795 0.574219L10.1677 0.738281C9.33375 0.875 8.82789 1.54492 8.93726 2.2832ZM31.0173 21.834C34.367 21.834 36.8552 18.8672 37.5388 17.1992C38.1677 15.6543 37.8123 15.0801 37.0466 14.8477L27.1892 11.8672L26.574 13.8359L35.2283 16.4473C34.8181 17.9102 32.9587 19.6328 30.8396 19.6328C27.9412 19.6328 24.6189 18.3613 20.4353 16.3379L17.3865 17.2129C21.6248 19.2363 26.492 21.834 31.0173 21.834Z" fill="white" fill-opacity="0.85"/>
 </g>
</svg>
