<svg version="1.1" xmlns="http://www.w3.org/2000/svg" xmlns:xlink="http://www.w3.org/1999/xlink" viewBox="0 0 37.9184 21.5879">
 <g>
  
  <path d="M1.58222 19.2773C8.92402 18.8535 23.9084 15.668 27.9689 11.9355C24.2912 3.37695 19.9025 0.642578 11.0705 2.16016C2.62129 3.5957-1.34356 10.459 0.406443 18.3887C0.543162 19.0312 0.953318 19.3047 1.58222 19.2773ZM9.00605 2.92578L12.9299 2.21484L12.7658 1.3125C12.6291 0.601562 11.8635 0.21875 11.0295 0.396484L10.0314 0.601562C9.18379 0.779297 8.74629 1.49023 8.86933 2.21484ZM30.9221 21.5879C34.1076 21.5879 36.4865 18.9902 37.3068 17.0352C37.8537 15.6953 37.5119 15.1074 36.7326 14.8887L29.8283 12.8516C27.6545 14.9844 23.5803 16.707 18.9318 17.8008C22.2268 19.4414 26.9162 21.5879 30.9221 21.5879Z" style="fill:var(--color-0,hsl(0 0 0/0.85))"></path>
 </g>
</svg>