<svg version="1.1" xmlns="http://www.w3.org/2000/svg" xmlns:xlink="http://www.w3.org/1999/xlink" viewBox="0 0 38.2949 24.8145">
 <g>
  
  <path d="M18.9629 24.1719C30.3242 24.1719 37.9395 20.248 37.9395 14.9023C37.9395 11.252 34.2891 8.13477 27.9863 7.02734C27.002 2.77539 23.8848 0 18.9629 0C14.0547 0 10.9375 2.77539 9.93945 7.02734C3.63672 8.13477 0 11.252 0 14.9023C0 20.248 7.61523 24.1719 18.9629 24.1719ZM18.9355 16.8027C14.9844 16.8027 11.6895 15.791 9.85742 14.1367C9.67969 12.8105 9.65234 11.0742 9.78906 9.76172C11.7988 11.5391 15.4355 12.7012 18.9355 12.7012C22.4492 12.7012 26.0859 11.5391 28.0957 9.76172C28.2324 11.0742 28.2051 12.8105 28.0137 14.1367C26.1953 15.791 22.9004 16.8027 18.9355 16.8027Z" style="fill:var(--color-0,hsl(0 0 0/0.85))"></path>
 </g>
</svg>