<?xml version="1.0" encoding="UTF-8"?>
<!--Generator: Apple Native CoreSVG 326-->
<!DOCTYPE svg
PUBLIC "-//W3C//DTD SVG 1.1//EN"
       "http://www.w3.org/Graphics/SVG/1.1/DTD/svg11.dtd">
<svg version="1.1" xmlns="http://www.w3.org/2000/svg" xmlns:xlink="http://www.w3.org/1999/xlink" viewBox="0 0 29.0117 26.127">
 <g>
  <rect height="26.127" opacity="0" width="29.0117" x="0" y="0"/>
  <path d="M5.70117 21.8066L22.9414 21.8066C23.502 21.8066 23.8164 21.2871 23.5293 20.7812L14.916 5.72852C14.6289 5.22266 14.0137 5.22266 13.7266 5.72852L5.11328 20.7812C4.8125 21.3008 5.14062 21.8066 5.70117 21.8066ZM8.43555 19.7422C8.27148 19.7422 8.17578 19.5918 8.25781 19.4414L14.1504 9.14648C14.2324 8.99609 14.4238 8.99609 14.5059 9.14648L20.3848 19.4414C20.4668 19.5918 20.3711 19.7422 20.207 19.7422Z" fill="#ff453a"/>
  <path d="M3.73242 25.9766L24.9238 25.9766C27.248 25.9766 28.6562 24.3633 28.6562 22.2715C28.6562 21.6289 28.4648 20.959 28.123 20.3574L17.5137 1.87305C16.8027 0.628906 15.5859 0 14.3281 0C13.0703 0 11.8398 0.628906 11.1426 1.87305L0.533203 20.3574C0.164062 20.9727 0 21.6289 0 22.2715C0 24.3633 1.4082 25.9766 3.73242 25.9766ZM3.74609 23.8301C2.78906 23.8301 2.21484 23.0918 2.21484 22.2578C2.21484 21.998 2.26953 21.6699 2.41992 21.3828L13.0156 2.91211C13.3027 2.40625 13.8223 2.1875 14.3281 2.1875C14.834 2.1875 15.3398 2.40625 15.627 2.91211L26.2227 21.3965C26.373 21.6836 26.4414 21.998 26.4414 22.2578C26.4414 23.0918 25.8398 23.8301 24.8965 23.8301Z" fill="#ff453a"/>
 </g>
</svg>
