<svg version="1.1" xmlns="http://www.w3.org/2000/svg" xmlns:xlink="http://www.w3.org/1999/xlink" viewBox="0 0 40.0586 27.6309">
 <g>
  
  <path d="M13.3623 20.3264C13.4756 20.9049 13.616 21.485 13.7812 22.0664C13.8247 22.2167 13.8703 22.3637 13.922 22.5008L3.18555 22.4902C2.59766 22.4902 2.0918 22.0117 2.0918 21.4238C2.0918 20.8223 2.59766 20.3164 3.18555 20.3164ZM12.9318 17.418L3.18555 17.418C2.59766 17.418 2.0918 16.9395 2.0918 16.3516C2.0918 15.75 2.59766 15.2441 3.18555 15.2441L12.795 15.2441C12.8151 15.9649 12.8581 16.6897 12.9318 17.418ZM12.7957 12.3552L3.18555 12.3457C2.61133 12.3457 2.0918 11.8535 2.0918 11.252C2.0918 10.6641 2.59766 10.1582 3.18555 10.1582L12.9355 10.1582C12.8602 10.8951 12.8162 11.6274 12.7957 12.3552ZM13.7812 5.52344C13.6163 6.10933 13.4762 6.69285 13.363 7.27344L3.18555 7.27344C2.59766 7.27344 2.0918 6.79492 2.0918 6.17969C2.0918 5.5918 2.59766 5.08594 3.18555 5.08594L13.9254 5.08594Z" style="fill:var(--color-0,#007aff)"></path>
  <path d="M15.2168 13.8086C15.2168 16.3789 15.4219 18.8672 16.1328 21.3965C16.9395 24.1582 18.498 25.1426 21.7656 25.1426L22.5312 25.1426C30.5156 25.1426 37.6113 19.9336 37.6113 13.8086C37.6113 7.68359 30.5156 2.44727 22.5312 2.44727L21.7656 2.44727C18.5117 2.44727 16.9531 3.44531 16.1328 6.20703C15.4219 8.75 15.2168 11.2383 15.2168 13.8086Z" style="fill:var(--color-1,#007aff)"></path>
 </g>
</svg>