<svg version="1.1" xmlns="http://www.w3.org/2000/svg" xmlns:xlink="http://www.w3.org/1999/xlink" viewBox="0 0 28.1914 28.998">
 <g>
  
  <path d="M0 14.9707C0 19.0859 1.18945 23.625 3.19922 27.1523C3.54102 27.7402 4.18359 27.9043 4.79883 27.5625C5.37305 27.248 5.53711 26.6055 5.18164 25.9629C3.34961 22.627 2.32422 18.6484 2.32422 14.9707C2.32422 7.38281 6.95898 2.32422 13.918 2.32422C20.8633 2.32422 25.5117 7.38281 25.5117 14.9707C25.5117 18.6484 24.4727 22.627 22.6406 25.9629C22.2852 26.6055 22.4492 27.248 23.0234 27.5625C23.6387 27.9043 24.2949 27.7402 24.623 27.1523C26.6328 23.625 27.8359 19.0859 27.8359 14.9707C27.8359 5.97461 22.2852 0 13.918 0C5.53711 0 0 5.97461 0 14.9707ZM4.2793 26.8105C4.73047 28.3828 6.07031 29.1074 7.65625 28.6562C9.22852 28.2051 9.9668 26.8379 9.50195 25.2656L7.54688 18.5938C7.0957 17.0352 5.75586 16.2969 4.16992 16.748C2.59766 17.2129 1.85938 18.5664 2.32422 20.1523ZM23.543 26.8105L25.498 20.1523C25.9629 18.5527 25.2383 17.2129 23.6523 16.748C22.0664 16.2969 20.7402 17.0352 20.2754 18.5938L18.3203 25.2656C17.8555 26.8516 18.5938 28.2051 20.166 28.6562C21.7656 29.1074 23.0918 28.3828 23.543 26.8105Z" style="fill:var(--color-0,hsl(0 0 0/0.85))"></path>
 </g>
</svg>