<?xml version="1.0" encoding="UTF-8"?>
<!--Generator: Apple Native CoreSVG 326-->
<!DOCTYPE svg
PUBLIC "-//W3C//DTD SVG 1.1//EN"
       "http://www.w3.org/Graphics/SVG/1.1/DTD/svg11.dtd">
<svg version="1.1" xmlns="http://www.w3.org/2000/svg" xmlns:xlink="http://www.w3.org/1999/xlink" viewBox="0 0 31.0352 29.791">
 <g>
  <rect height="29.791" opacity="0" width="31.0352" x="0" y="0"/>
  <path d="M10.0352 22.9688C10.0352 26.7422 12.373 29.1484 16.0645 29.1484C18.7988 29.1484 20.8633 27.9453 22.1484 25.6211L23.3789 23.4199C26.2637 18.1426 31.0352 17.459 31.0352 10.6777C31.0352 4.2793 26.8926 0 20.6719 0C14.3145 0 10.0352 4.30664 10.0352 10.7324ZM12.0996 22.832L12.0996 10.7324C12.0996 5.52344 15.5312 2.06445 20.6719 2.06445C25.6484 2.06445 28.9707 5.52344 28.9707 10.6777C28.9707 16.3516 24.5137 17.3359 21.5469 22.4902L20.3438 24.5273C19.373 26.2227 18.0332 27.0293 16.1602 27.0293C13.6309 27.0293 12.0996 25.4434 12.0996 22.832ZM14.2324 18.9902C14.2324 20.4121 15.3125 21.3555 16.8984 21.3555C18.9629 21.3418 20.3711 19.5918 20.3711 17.3906C20.3711 13.4531 16.2969 12.7969 16.2969 10.0215C16.2969 7.875 18.0469 6.28906 20.6582 6.28906C23.3105 6.28906 25.0195 8.01172 25.0195 10.6504C25.0195 11.2109 25.498 11.6895 26.0586 11.6895C26.6191 11.6895 27.084 11.2109 27.084 10.6504C27.084 6.80859 24.5137 4.22461 20.6582 4.22461C16.8164 4.22461 14.2324 6.64453 14.2324 10.0215C14.2324 12.9883 17.0352 13.959 17.0352 15.2852C17.0352 16.7617 14.2324 16.4336 14.2324 18.9902Z" fill="white" fill-opacity="0.85"/>
  <path d="M2.99414 6.49414C4.25195 6.49414 5.29102 5.46875 5.29102 4.21094C5.29102 2.93945 4.25195 1.91406 2.99414 1.91406C1.72266 1.91406 0.697266 2.93945 0.697266 4.21094C0.697266 5.46875 1.72266 6.49414 2.99414 6.49414Z" fill="white" fill-opacity="0.85"/>
  <path d="M2.99414 13.6035C4.25195 13.6035 5.29102 12.5781 5.29102 11.3203C5.29102 10.0488 4.25195 9.02344 2.99414 9.02344C1.72266 9.02344 0.697266 10.0488 0.697266 11.3203C0.697266 12.5781 1.72266 13.6035 2.99414 13.6035Z" fill="white" fill-opacity="0.85"/>
  <path d="M2.99414 20.7402C4.25195 20.7402 5.29102 19.7148 5.29102 18.457C5.29102 17.1855 4.25195 16.1602 2.99414 16.1602C1.72266 16.1602 0.697266 17.1855 0.697266 18.457C0.697266 19.7148 1.72266 20.7402 2.99414 20.7402Z" fill="white" fill-opacity="0.85"/>
  <path d="M2.99414 27.8496C4.25195 27.8496 5.29102 26.8242 5.29102 25.5664C5.29102 24.2949 4.25195 23.2695 2.99414 23.2695C1.72266 23.2695 0.697266 24.2949 0.697266 25.5664C0.697266 26.8242 1.72266 27.8496 2.99414 27.8496Z" fill="white" fill-opacity="0.85"/>
 </g>
</svg>
