<?xml version="1.0" encoding="UTF-8"?>
<!--Generator: Apple Native CoreSVG 326-->
<!DOCTYPE svg
PUBLIC "-//W3C//DTD SVG 1.1//EN"
       "http://www.w3.org/Graphics/SVG/1.1/DTD/svg11.dtd">
<svg version="1.1" xmlns="http://www.w3.org/2000/svg" xmlns:xlink="http://www.w3.org/1999/xlink" viewBox="0 0 32.5938 25.1699">
 <g>
  <rect height="25.1699" opacity="0" width="32.5938" x="0" y="0"/>
  <path d="M4.29297 25.1699L27.9453 25.1699C30.8164 25.1699 32.2383 23.7617 32.2383 20.9453L32.2383 4.23828C32.2383 1.42188 30.8164 0 27.9453 0L4.29297 0C1.43555 0 0 1.42188 0 4.23828L0 20.9453C0 23.7617 1.43555 25.1699 4.29297 25.1699ZM4.32031 22.9688C2.95312 22.9688 2.20117 22.2441 2.20117 20.8223L2.20117 4.36133C2.20117 2.93945 2.95312 2.20117 4.32031 2.20117L27.918 2.20117C29.2715 2.20117 30.0371 2.93945 30.0371 4.36133L30.0371 20.8223C30.0371 22.2441 29.2715 22.9688 27.918 22.9688Z" fill="#ff453a"/>
  <path d="M12.8652 6.54883C10.541 6.54883 8.87305 8.29883 8.87305 10.7188C8.87305 14.3145 12.6602 17.623 15.4629 19.4004C15.6953 19.5371 15.9961 19.7285 16.1738 19.7285C16.3379 19.7285 16.6113 19.5508 16.8164 19.4004C19.6055 17.582 23.4199 14.3145 23.4199 10.7188C23.4199 8.29883 21.7383 6.54883 19.4277 6.54883C17.9785 6.54883 16.8164 7.38281 16.1465 8.62695C15.4629 7.38281 14.3281 6.54883 12.8652 6.54883Z" fill="#ff453a"/>
 </g>
</svg>
