<svg version="1.1" xmlns="http://www.w3.org/2000/svg" xmlns:xlink="http://www.w3.org/1999/xlink" viewBox="0 0 23.3516 34.7129">
 <g>
  
  <path d="M4.41602 3.97852L4.41602 5.5918C4.41602 7.31445 5.57812 8.53125 7.27344 8.53125L15.7227 8.53125C17.418 8.53125 18.5801 7.31445 18.5801 5.5918L18.5801 3.97852C18.5801 3.92383 18.5801 3.85547 18.5801 3.80078L18.8945 3.80078C21.5879 3.80078 22.9961 5.22266 22.9961 8.09375L22.9961 28.834C22.9961 31.7051 21.5879 33.127 18.7578 33.127L4.23828 33.127C1.4082 33.127 0 31.7051 0 28.834L0 8.09375C0 5.22266 1.4082 3.80078 4.10156 3.80078L4.41602 3.80078C4.41602 3.85547 4.41602 3.92383 4.41602 3.97852ZM5.27734 26.4688C4.78516 26.4688 4.38867 26.8652 4.38867 27.3574C4.38867 27.8359 4.79883 28.2324 5.27734 28.2324L12.3867 28.2324C12.8652 28.2324 13.2617 27.8359 13.2617 27.3574C13.2617 26.8652 12.8789 26.4688 12.3867 26.4688ZM5.27734 21.2051C4.78516 21.2051 4.38867 21.5879 4.38867 22.0664C4.38867 22.5586 4.78516 22.9551 5.27734 22.9551L17.7188 22.9551C18.2109 22.9551 18.6074 22.5586 18.6074 22.0664C18.6074 21.5879 18.2109 21.2051 17.7188 21.2051ZM8.12109 13.084C7.7793 12.4277 7.17773 11.9902 6.42578 11.9902C5.26367 11.9902 4.40234 12.8926 4.40234 14.1367C4.40234 15.9688 6.37109 17.5684 7.7793 18.5527C7.90234 18.6484 8.03906 18.7031 8.13477 18.7031C8.23047 18.7031 8.35352 18.6348 8.47656 18.5527C9.91211 17.6641 11.8398 15.9688 11.8398 14.1367C11.8398 12.8926 10.9785 11.9902 9.78906 11.9902C9.06445 11.9902 8.46289 12.4277 8.12109 13.084ZM14.4648 2.80273L15.7227 2.80273C16.5156 2.80273 16.9941 3.30859 16.9941 4.15625L16.9941 5.5918C16.9941 6.43945 16.5156 6.94531 15.7227 6.94531L7.27344 6.94531C6.48047 6.94531 6.00195 6.43945 6.00195 5.5918L6.00195 4.15625C6.00195 3.30859 6.48047 2.80273 7.27344 2.80273L8.53125 2.80273C8.62695 1.25781 9.91211 0 11.498 0C13.084 0 14.3691 1.25781 14.4648 2.80273ZM10.3086 2.91211C10.3086 3.55469 10.8418 4.10156 11.498 4.10156C12.1543 4.10156 12.6875 3.55469 12.6875 2.91211C12.6875 2.24219 12.1543 1.70898 11.498 1.70898C10.8418 1.70898 10.3086 2.24219 10.3086 2.91211Z" style="fill:var(--color-0,hsl(0 0 0/0.85))"></path>
 </g>
</svg>