<svg version="1.1" xmlns="http://www.w3.org/2000/svg" xmlns:xlink="http://www.w3.org/1999/xlink" viewBox="0 0 25.5254 25.1699">
 <g>
  
  <path d="M4.29297 25.1699L20.877 25.1699C23.748 25.1699 25.1699 23.7617 25.1699 20.9453L25.1699 4.23828C25.1699 1.42188 23.748 0 20.877 0L4.29297 0C1.43555 0 0 1.42188 0 4.23828L0 20.9453C0 23.7617 1.43555 25.1699 4.29297 25.1699ZM4.32031 22.9688C2.95312 22.9688 2.20117 22.2441 2.20117 20.8223L2.20117 4.36133C2.20117 2.93945 2.95312 2.20117 4.32031 2.20117L20.8496 2.20117C22.2031 2.20117 22.9688 2.93945 22.9688 4.36133L22.9688 20.8223C22.9688 22.2441 22.2031 22.9688 20.8496 22.9688Z" style="fill:var(--color-0,#ff3b30)"></path>
  <path d="M9.32422 6.54883C7.01367 6.54883 5.33203 8.29883 5.33203 10.7188C5.33203 14.3145 9.11914 17.623 11.9355 19.4004C12.168 19.5371 12.4688 19.7285 12.6328 19.7285C12.8105 19.7285 13.084 19.5508 13.2891 19.4004C16.0645 17.582 19.8789 14.3145 19.8789 10.7188C19.8789 8.29883 18.2109 6.54883 15.8867 6.54883C14.4512 6.54883 13.2891 7.38281 12.6055 8.62695C11.9355 7.38281 10.7871 6.54883 9.32422 6.54883Z" style="fill:var(--color-1,#ff3b30)"></path>
 </g>
</svg>