<?xml version="1.0" encoding="UTF-8"?>
<!--Generator: Apple Native CoreSVG 326-->
<!DOCTYPE svg
PUBLIC "-//W3C//DTD SVG 1.1//EN"
       "http://www.w3.org/Graphics/SVG/1.1/DTD/svg11.dtd">
<svg version="1.1" xmlns="http://www.w3.org/2000/svg" xmlns:xlink="http://www.w3.org/1999/xlink" viewBox="0 0 25.5254 25.1699">
 <g>
  <rect height="25.1699" opacity="0" width="25.5254" x="0" y="0"/>
  <path d="M4.29297 25.1699L20.877 25.1699C23.748 25.1699 25.1699 23.7617 25.1699 20.9453L25.1699 4.23828C25.1699 1.42188 23.748 0 20.877 0L4.29297 0C1.43555 0 0 1.42188 0 4.23828L0 20.9453C0 23.7617 1.43555 25.1699 4.29297 25.1699Z" fill="white" fill-opacity="0.85"/>
  <path d="M6.15234 3.69141C6.89062 3.69141 7.45117 4.11523 7.79297 4.74414C8.13477 4.11523 8.72266 3.69141 9.40625 3.69141C10.5684 3.69141 11.4023 4.56641 11.4023 5.76953C11.4023 7.54688 9.5293 9.20117 8.14844 10.0625C8.02539 10.1309 7.90234 10.2129 7.80664 10.2129C7.72461 10.2129 7.58789 10.1445 7.46484 10.0625C6.11133 9.10547 4.19727 7.54688 4.19727 5.76953C4.19727 4.56641 5.03125 3.69141 6.15234 3.69141ZM5.05859 16.3242C4.55273 16.3242 4.19727 15.9551 4.19727 15.4766C4.19727 15.0117 4.55273 14.6426 5.05859 14.6426L18.7988 14.6426C19.2773 14.6426 19.6328 15.0117 19.6328 15.4766C19.6328 15.9551 19.2773 16.3242 18.7988 16.3242ZM5.05859 21C4.55273 21 4.19727 20.6309 4.19727 20.166C4.19727 19.6875 4.55273 19.3184 5.05859 19.3184L15.1895 19.3184C15.6816 19.3184 16.0371 19.6875 16.0371 20.166C16.0371 20.6309 15.6816 21 15.1895 21Z" fill="white"/>
 </g>
</svg>
