<svg version="1.1" xmlns="http://www.w3.org/2000/svg" xmlns:xlink="http://www.w3.org/1999/xlink" viewBox="0 0 28.2461 27.9043">
 <g>
  
  <path d="M13.9453 27.8906C21.6426 27.8906 27.8906 21.6289 27.8906 13.9453C27.8906 6.24805 21.6426 0 13.9453 0C6.26172 0 0 6.24805 0 13.9453C0 21.6289 6.26172 27.8906 13.9453 27.8906Z" style="fill:var(--color-0,#ff3b30)"></path>
  <path d="M16.9575 19.2568C16.1719 19.909 15.3727 20.4826 14.6426 20.959C14.4238 21.123 14.1504 21.3008 13.9727 21.3008C13.7949 21.3008 13.4805 21.1094 13.2344 20.959C10.3496 19.127 6.43945 15.709 6.43945 12.0176C6.43945 11.0415 6.70163 10.1716 7.16629 9.47594ZM7.94336 7.01367L20.877 19.9609C21.123 20.207 21.123 20.6035 20.877 20.8633C20.6309 21.1094 20.207 21.0957 19.9746 20.8633L7.02734 7.91602C6.79492 7.68359 6.78125 7.27344 7.02734 7.01367C7.28711 6.76758 7.69727 6.76758 7.94336 7.01367ZM21.4512 12.0176C21.4512 13.7812 20.5524 15.473 19.2964 16.9609L10.0647 7.73901C10.2239 7.71973 10.3877 7.71094 10.5547 7.71094C12.0723 7.71094 13.2344 8.57227 13.9453 9.85742C14.6426 8.57227 15.832 7.71094 17.3359 7.71094C19.7148 7.71094 21.4512 9.51562 21.4512 12.0176Z" style="fill:var(--color-1,white)"></path>
 </g>
</svg>