<svg version="1.1" xmlns="http://www.w3.org/2000/svg" xmlns:xlink="http://www.w3.org/1999/xlink" viewBox="0 0 28.2461 27.9043">
 <g>
  
  <path d="M27.8906 13.9453C27.8906 21.6426 21.6426 27.8906 13.9453 27.8906C6.24805 27.8906 0 21.6426 0 13.9453C0 6.24805 6.24805 0 13.9453 0C21.6426 0 27.8906 6.24805 27.8906 13.9453ZM2.32422 13.9453C2.32422 20.3711 7.51953 25.5664 13.9453 25.5664C20.3711 25.5664 25.5664 20.3711 25.5664 13.9453C25.5664 7.51953 20.3711 2.32422 13.9453 2.32422C7.51953 2.32422 2.32422 7.51953 2.32422 13.9453Z" style="fill:var(--color-0,#ff3b30)"></path>
  <path d="M16.8788 19.1073C16.1152 19.7436 15.3381 20.3029 14.6289 20.7676C14.4238 20.918 14.1504 21.0957 13.9727 21.0957C13.7949 21.0957 13.5078 20.9043 13.2617 20.7676C10.459 18.9902 6.67188 15.6816 6.67188 12.0859C6.67188 11.1359 6.92898 10.289 7.38495 9.61346ZM21.2188 12.0859C21.2188 13.8013 20.3507 15.4419 19.1373 16.8838L10.1871 7.94339C10.342 7.92458 10.5014 7.91602 10.6641 7.91602C12.127 7.91602 13.2617 8.75 13.9453 9.99414C14.6289 8.75 15.7773 7.91602 17.2266 7.91602C19.5508 7.91602 21.2188 9.66602 21.2188 12.0859Z" style="fill:var(--color-1,#ff3b30)"></path>
  <path d="M19.7969 20.6445C20.0293 20.877 20.4395 20.8906 20.6719 20.6445C20.918 20.3984 20.918 20.0156 20.6719 19.7695L8.14844 7.23242C7.88867 6.98633 7.50586 6.98633 7.25977 7.23242C7.01367 7.47852 7.01367 7.875 7.25977 8.10742Z" style="fill:var(--color-2,#ff3b30)"></path>
 </g>
</svg>