<?xml version="1.0" encoding="UTF-8"?>
<!--Generator: Apple Native CoreSVG 326-->
<!DOCTYPE svg
PUBLIC "-//W3C//DTD SVG 1.1//EN"
       "http://www.w3.org/Graphics/SVG/1.1/DTD/svg11.dtd">
<svg version="1.1" xmlns="http://www.w3.org/2000/svg" xmlns:xlink="http://www.w3.org/1999/xlink" viewBox="0 0 33.2705 31.3223">
 <g>
  <rect height="31.3223" opacity="0" width="33.2705" x="0" y="0"/>
  <path d="M5.51067 9.26177C5.22859 10.0096 5.07568 10.8578 5.07568 11.7852C5.07568 16.8711 10.4487 22.3535 16.1772 26.1543C16.314 26.25 16.4097 26.3184 16.4507 26.3184C16.5054 26.3184 16.6011 26.25 16.7378 26.1543C17.8565 25.4121 18.9616 24.6057 20.014 23.7491L21.5858 25.319C20.3246 26.3264 18.9395 27.3082 17.4487 28.2598C17.1479 28.4375 16.7378 28.6289 16.4507 28.6289C16.1772 28.6289 15.7534 28.4375 15.4663 28.2598C7.75537 23.3379 2.87451 17.6094 2.87451 11.7852C2.87451 10.2178 3.22292 8.79961 3.84901 7.60194ZM30.0405 11.7852C30.0405 15.1747 28.3874 18.5318 25.4762 21.7151L23.8661 20.1059C26.2474 17.4394 27.8394 14.5536 27.8394 11.7852C27.8394 8.14844 25.4878 5.72852 22.3022 5.72852C19.7456 5.72852 18.3237 7.35547 17.3804 8.69531C16.9839 9.22852 16.7788 9.39258 16.4507 9.39258C16.1362 9.39258 15.9038 9.24219 15.5347 8.69531C14.646 7.32812 13.1831 5.72852 10.5991 5.72852C10.2458 5.72852 9.90271 5.75854 9.57382 5.82151L7.79701 4.04569C8.66208 3.7054 9.61543 3.52734 10.6265 3.52734C13.1694 3.52734 15.2339 4.74414 16.4507 6.57617C17.6948 4.73047 19.7456 3.52734 22.2749 3.52734C26.7183 3.52734 30.0405 6.94531 30.0405 11.7852Z" fill="#ff453a"/>
  <path d="M26.5679 28.041C26.978 28.4648 27.6616 28.4648 28.0581 28.041C28.4683 27.6309 28.4683 26.9746 28.0581 26.5508L3.39404 1.90039C2.98389 1.49023 2.31396 1.49023 1.89014 1.90039C1.49365 2.29688 1.49365 2.99414 1.89014 3.39062Z" fill="#ff453a"/>
 </g>
</svg>
