<?xml version="1.0" encoding="UTF-8"?>
<!--Generator: Apple Native CoreSVG 326-->
<!DOCTYPE svg
PUBLIC "-//W3C//DTD SVG 1.1//EN"
       "http://www.w3.org/Graphics/SVG/1.1/DTD/svg11.dtd">
<svg version="1.1" xmlns="http://www.w3.org/2000/svg" xmlns:xlink="http://www.w3.org/1999/xlink" viewBox="0 0 21.6836 29.7637">
 <g>
  <rect height="29.7637" opacity="0" width="21.6836" x="0" y="0"/>
  <path d="M0.683594 22.9688C0.683594 26.7559 3.03516 29.1484 6.71289 29.1484C9.46094 29.1484 11.5117 27.9453 12.8105 25.6211L14.041 23.4199C16.9258 18.1562 21.6836 17.459 21.6836 10.6914C21.6836 4.2793 17.541 0 11.334 0C4.97656 0 0.683594 4.30664 0.683594 10.7324ZM2.74805 22.832L2.74805 10.7324C2.74805 5.52344 6.17969 2.06445 11.334 2.06445C16.3105 2.06445 19.6191 5.52344 19.6191 10.6914C19.6191 16.3516 15.1758 17.3359 12.1953 22.4902L11.0059 24.5273C10.0352 26.2227 8.68164 27.0293 6.80859 27.0293C4.2793 27.0293 2.74805 25.4434 2.74805 22.832Z" fill="white" fill-opacity="0.85"/>
  <path d="M4.89453 18.9902C4.89453 20.4121 5.96094 21.3555 7.56055 21.3555C9.625 21.3418 11.0332 19.5918 11.0332 17.3906C11.0332 13.4531 6.95898 12.7969 6.95898 10.0215C6.95898 7.875 8.70898 6.28906 11.3203 6.28906C13.9727 6.28906 15.6816 8.01172 15.6816 10.6504C15.6816 11.2109 16.1465 11.6895 16.707 11.6895C17.2676 11.6895 17.7461 11.2109 17.7461 10.6504C17.7461 6.80859 15.1758 4.22461 11.3203 4.22461C7.47852 4.22461 4.89453 6.64453 4.89453 10.0215C4.89453 12.9883 7.69727 13.959 7.69727 15.2852C7.69727 16.7617 4.89453 16.4336 4.89453 18.9902Z" fill="white" fill-opacity="0.85"/>
 </g>
</svg>
