<?xml version="1.0" encoding="UTF-8"?>
<!--Generator: Apple Native CoreSVG 326-->
<!DOCTYPE svg
PUBLIC "-//W3C//DTD SVG 1.1//EN"
       "http://www.w3.org/Graphics/SVG/1.1/DTD/svg11.dtd">
<svg version="1.1" xmlns="http://www.w3.org/2000/svg" xmlns:xlink="http://www.w3.org/1999/xlink" viewBox="0 0 26.3191 27.7677">
 <g>
  <rect height="27.7677" opacity="0" width="26.3191" x="0" y="0"/>
  <path d="M0.171256 4.5938C-0.225228 5.18169 0.089225 5.98833 0.882194 5.98833L2.55016 5.98833L2.55016 6.13873C2.55016 11.0743 5.13415 11.7305 5.13415 14.2461C5.13415 16.7754 1.88024 17.4317 1.88024 22.1622C1.88024 23.7618 2.31774 24.9649 3.45251 26.4141C4.43688 27.6446 6.37829 26.3868 5.33923 25.0059C4.50524 23.8985 4.2318 23.1465 4.2318 21.9981C4.2318 18.7442 7.48571 17.7598 7.48571 14.2461C7.48571 10.7325 4.88805 9.92583 4.88805 6.13873L4.88805 5.98833L6.55602 5.98833C7.34899 5.98833 7.69079 5.19537 7.28063 4.5938L4.51891 0.601616C4.10876-0.0409622 3.37048-0.068306 2.9193 0.601616ZM9.37243 4.55279C8.97594 5.14068 9.2904 5.93365 10.0834 5.93365L11.7513 5.93365L11.7513 6.09771C11.7513 11.0196 14.3353 11.6758 14.3353 14.1915C14.3353 16.7208 11.0814 17.377 11.0814 22.1211C11.0814 23.7071 11.5189 24.9102 12.6537 26.3594C13.6381 27.6036 15.5795 26.3458 14.5404 24.9512C13.7064 23.8438 13.433 23.0919 13.433 21.9571C13.433 18.6895 16.6869 17.7051 16.6869 14.1915C16.6869 10.6778 14.0892 9.88482 14.0892 6.09771L14.0892 5.93365L15.7572 5.93365C16.5502 5.93365 16.892 5.15435 16.4818 4.55279L13.7201 0.546928C13.3099-0.0956497 12.5716-0.122993 12.1205 0.546928ZM18.5736 4.4981C18.1771 5.08599 18.4916 5.89263 19.2845 5.89263L20.9662 5.89263L20.9662 6.04302C20.9662 10.9786 23.5365 11.6348 23.5365 14.1504C23.5365 16.6797 20.2826 17.336 20.2826 22.0665C20.2826 23.6661 20.7201 24.8692 21.8549 26.3184C22.8392 27.5489 24.7806 26.2911 23.7416 24.8965C22.9076 23.8028 22.6341 23.0508 22.6341 21.9024C22.6341 18.6485 25.8881 17.6641 25.8881 14.1504C25.8881 10.6368 23.3041 9.83013 23.3041 6.04302L23.3041 5.89263L24.9584 5.89263C25.7513 5.89263 26.0931 5.09966 25.683 4.4981L22.9349 0.492241C22.5111-0.150337 21.7728-0.177681 21.3216 0.492241Z" fill="white" fill-opacity="0.85"/>
 </g>
</svg>
