<svg version="1.1" xmlns="http://www.w3.org/2000/svg" xmlns:xlink="http://www.w3.org/1999/xlink" viewBox="0 0 27.7949 30.7822">
 <g>
  
  <path d="M1.55859 24.2026L12.168 30.3413C13.1523 30.9155 14.2871 30.9155 15.2852 30.3413L25.8809 24.2026C26.8652 23.6421 27.4395 22.644 27.4395 21.5093L27.4395 9.25928C27.4395 8.12451 26.8652 7.12646 25.8809 6.55225L15.2852 0.440918C14.2871-0.146973 13.1523-0.146973 12.168 0.440918L1.55859 6.55225C0.574219 7.12646 0 8.12451 0 9.25928L0 21.5093C0 22.644 0.574219 23.6421 1.55859 24.2026ZM13.7266 28.4546L13.7266 2.31396C14 2.31396 14.2734 2.396 14.5195 2.54639L24.4453 8.2749C24.9512 8.57568 25.2383 9.08154 25.2383 9.65576L25.2383 21.1128C25.2383 21.687 24.9512 22.1929 24.4453 22.4937L14.5332 28.2222C14.2871 28.3726 14 28.4546 13.7266 28.4546Z" style="fill:var(--color-0,hsl(0 0 0/0.85))"></path>
 </g>
</svg>