<svg version="1.1" xmlns="http://www.w3.org/2000/svg" xmlns:xlink="http://www.w3.org/1999/xlink" viewBox="0 0 27.7949 30.7822">
 <g>
  
  <path d="M1.55859 6.56592C0.574219 7.12646 0 8.12451 0 9.27295L0 21.5093C0 22.6577 0.574219 23.6558 1.55859 24.2163L12.168 30.3413C13.1523 30.9155 14.2871 30.9155 15.2852 30.3413L25.8809 24.2163C26.8652 23.6558 27.4395 22.6577 27.4395 21.5093L27.4395 9.27295C27.4395 8.12451 26.8652 7.12646 25.8809 6.56592L15.2852 0.440918C14.2871-0.146973 13.1523-0.146973 12.168 0.440918ZM2.20117 15.3843L2.20117 9.66943C2.20117 9.09521 2.50195 8.57568 3.00781 8.28857L12.9199 2.54639C13.4258 2.24561 14.0137 2.24561 14.5332 2.54639L24.4453 8.28857C24.9512 8.57568 25.2383 9.09521 25.2383 9.66943L25.2383 15.3843Z" style="fill:var(--color-0,hsl(0 0 0/0.85))"></path>
 </g>
</svg>