<?xml version="1.0" encoding="UTF-8"?>
<!--Generator: Apple Native CoreSVG 326-->
<!DOCTYPE svg
PUBLIC "-//W3C//DTD SVG 1.1//EN"
       "http://www.w3.org/Graphics/SVG/1.1/DTD/svg11.dtd">
<svg version="1.1" xmlns="http://www.w3.org/2000/svg" xmlns:xlink="http://www.w3.org/1999/xlink" viewBox="0 0 41.1387 18.2246">
 <g>
  <rect height="18.2246" opacity="0" width="41.1387" x="0" y="0"/>
  <path d="M4.22461 15.9277L36.5449 15.9277C39.3477 15.9277 40.7832 14.5059 40.7832 11.7578L40.7832 4.16992C40.7832 1.42188 39.3477 0 36.5449 0L4.22461 0C1.44922 0 0 1.42188 0 4.16992L0 11.7578C0 14.5059 1.44922 15.9277 4.22461 15.9277ZM4.22461 13.7266C2.98047 13.7266 2.20117 12.9609 2.20117 11.7578L2.20117 4.16992C2.20117 2.9668 2.98047 2.20117 4.22461 2.20117L36.5449 2.20117C37.7891 2.20117 38.582 2.9668 38.582 4.16992L38.582 11.7578C38.582 12.9609 37.7891 13.7266 36.5449 13.7266ZM8.13477 10.9102C9.77539 10.9102 11.1016 9.58398 11.1016 7.94336C11.1016 6.28906 9.77539 4.96289 8.13477 4.96289C6.48047 4.96289 5.1543 6.28906 5.1543 7.94336C5.1543 9.58398 6.48047 10.9102 8.13477 10.9102ZM14.9023 10.9238L25.8672 10.9238C26.5508 10.9238 26.9883 10.4863 26.9883 9.81641L26.9883 6.125C26.9883 5.45508 26.5508 5.00391 25.8672 5.00391L14.9023 5.00391C14.2324 5.00391 13.7812 5.45508 13.7812 6.125L13.7812 9.81641C13.7812 10.4863 14.2324 10.9238 14.9023 10.9238ZM32.6484 10.9102C34.2891 10.9102 35.6152 9.58398 35.6152 7.94336C35.6152 6.28906 34.2891 4.96289 32.6484 4.96289C31.0078 4.96289 29.6816 6.28906 29.6816 7.94336C29.6816 9.58398 31.0078 10.9102 32.6484 10.9102ZM10.1309 15.0801L3.03516 15.0801L3.03516 17.0898C3.03516 17.7598 3.48633 18.2109 4.15625 18.2109L9.00977 18.2109C9.69336 18.2109 10.1309 17.7598 10.1309 17.0898ZM30.6523 15.0801L30.6523 17.0898C30.6523 17.7598 31.0898 18.2109 31.7734 18.2109L36.6133 18.2109C37.2969 18.2109 37.748 17.7598 37.748 17.0898L37.748 15.0801Z" fill="white" fill-opacity="0.85"/>
 </g>
</svg>
