<svg version="1.1" xmlns="http://www.w3.org/2000/svg" xmlns:xlink="http://www.w3.org/1999/xlink" viewBox="0 0 32.9766 28.3145">
 <g>
  
  <path d="M26.7969 3.88281L26.7969 24.418C26.7969 27.002 25.5117 28.3008 22.9551 28.3008L9.66602 28.3008C7.10938 28.3008 5.82422 27.002 5.82422 24.418L5.82422 21.3145L8.02539 21.3145L8.02539 24.3906C8.02539 25.498 8.62695 26.0996 9.74805 26.0996L22.873 26.0996C23.9941 26.0996 24.5957 25.498 24.5957 24.3906L24.5957 3.91016C24.5957 2.78906 24.0078 2.20117 22.873 2.20117L9.74805 2.20117C8.61328 2.20117 8.02539 2.78906 8.02539 3.91016L8.02539 15.3262L5.82422 15.3262L5.82422 3.88281C5.82422 1.29883 7.10938 0 9.66602 0L22.9551 0C25.5117 0 26.7969 1.29883 26.7969 3.88281ZM19.4141 7.49219C19.4414 9.21484 18.0195 10.5957 16.3105 10.5957C14.5879 10.5957 13.207 9.21484 13.207 7.49219C13.207 5.75586 14.6016 4.38867 16.3105 4.40234C18.0332 4.41602 19.4004 5.76953 19.4141 7.49219ZM14.7246 7.49219C14.7246 8.35352 15.4355 9.07812 16.3105 9.07812C17.1855 9.07812 17.8965 8.35352 17.8965 7.49219C17.8965 6.61719 17.1719 5.90625 16.3105 5.90625C15.4219 5.90625 14.7246 6.57617 14.7246 7.49219Z" style="fill:var(--color-0,hsl(0 0 0/0.85))"></path>
  <path d="M3.00781 19.4141L14.875 19.4004L16.7344 19.3184L15.9414 20.0703L14.082 21.7793C13.8633 21.9707 13.7539 22.2578 13.7539 22.5176C13.7539 23.0918 14.1641 23.5156 14.7109 23.5156C15.0117 23.5156 15.2305 23.4062 15.4355 23.1875L19.373 19.1133C19.6328 18.8398 19.7285 18.5938 19.7285 18.3203C19.7285 18.0469 19.6328 17.8008 19.373 17.5273L15.4355 13.4395C15.2305 13.2344 15.0117 13.125 14.7109 13.125C14.1641 13.125 13.7539 13.5488 13.7539 14.123C13.7539 14.3828 13.8633 14.6699 14.082 14.8613L15.9414 16.5703L16.7344 17.3223L14.875 17.2402L3.00781 17.2402C2.43359 17.2402 1.94141 17.7324 1.94141 18.3203C1.94141 18.9082 2.43359 19.4141 3.00781 19.4141Z" style="fill:var(--color-1,hsl(0 0 0/0.85))"></path>
 </g>
</svg>