<?xml version="1.0" encoding="UTF-8"?>
<!--Generator: Apple Native CoreSVG 326-->
<!DOCTYPE svg
PUBLIC "-//W3C//DTD SVG 1.1//EN"
       "http://www.w3.org/Graphics/SVG/1.1/DTD/svg11.dtd">
<svg version="1.1" xmlns="http://www.w3.org/2000/svg" xmlns:xlink="http://www.w3.org/1999/xlink" viewBox="0 0 21.3145 28.3145">
 <g>
  <rect height="28.3145" opacity="0" width="21.3145" x="0" y="0"/>
  <path d="M0 3.88281L0 24.418C0 27.002 1.28516 28.3008 3.8418 28.3008L17.1309 28.3008C19.6875 28.3008 20.959 27.002 20.959 24.418L20.959 3.88281C20.959 1.29883 19.6875 0 17.1309 0L3.8418 0C1.28516 0 0 1.29883 0 3.88281ZM2.20117 3.91016C2.20117 2.78906 2.78906 2.20117 3.92383 2.20117L17.0488 2.20117C18.1836 2.20117 18.7578 2.78906 18.7578 3.91016L18.7578 24.3906C18.7578 25.498 18.1699 26.0996 17.0488 26.0996L3.92383 26.0996C2.78906 26.0996 2.20117 25.498 2.20117 24.3906ZM10.4863 23.8984C13.5762 23.8984 16.0645 21.4238 16.0645 18.3203C16.0645 15.2168 13.5762 12.7559 10.4863 12.7422C7.39648 12.7285 4.9082 15.2168 4.9082 18.3203C4.9082 21.4238 7.39648 23.8984 10.4863 23.8984ZM10.4863 20.6855C9.1875 20.6855 8.12109 19.6328 8.12109 18.3203C8.12109 16.9668 9.14648 15.9414 10.4863 15.9414C11.8125 15.9414 12.8516 16.9668 12.8516 18.3203C12.8516 19.6328 11.8125 20.6855 10.4863 20.6855ZM10.4863 10.5957C12.1953 10.5957 13.6172 9.21484 13.5898 7.49219C13.5762 5.76953 12.1953 4.41602 10.4863 4.40234C8.76367 4.38867 7.38281 5.75586 7.38281 7.49219C7.38281 9.21484 8.76367 10.5957 10.4863 10.5957ZM10.4863 9.07812C9.59766 9.07812 8.90039 8.35352 8.90039 7.49219C8.90039 6.57617 9.59766 5.90625 10.4863 5.90625C11.3477 5.90625 12.0723 6.61719 12.0723 7.49219C12.0723 8.35352 11.3613 9.07812 10.4863 9.07812Z" fill="white" fill-opacity="0.85"/>
 </g>
</svg>
