<svg version="1.1" xmlns="http://www.w3.org/2000/svg" xmlns:xlink="http://www.w3.org/1999/xlink" viewBox="0 0 28.4648 21.5059">
 <g>
  
  <path d="M14.041 21.4922C21.9844 21.4922 28.1094 17.9375 28.1094 13.5762L28.1094 6.39844L25.9082 8.3125L25.9082 13.5762C25.9082 16.7344 21.3555 19.291 14.041 19.291C6.74023 19.291 2.1875 16.7344 2.1875 13.5762L2.1875 8.3125L0 6.39844L0 13.5762C0 17.9375 6.11133 21.4922 14.041 21.4922ZM14.041 12.7422C21.9297 12.7422 28.1094 9.89844 28.1094 6.27539C28.1094 2.77539 21.9297 0 14.041 0C6.16602 0 0 2.77539 0 6.27539C0 9.89844 6.16602 12.7422 14.041 12.7422ZM14.041 10.541C7.36914 10.541 2.1875 8.66797 2.1875 6.27539C2.1875 3.97852 7.36914 2.20117 14.041 2.20117C20.7266 2.20117 25.9082 3.97852 25.9082 6.27539C25.9082 8.66797 20.7266 10.541 14.041 10.541Z" style="fill:var(--color-0,hsl(0 0 0/0.85))"></path>
 </g>
</svg>