<svg version="1.1" xmlns="http://www.w3.org/2000/svg" xmlns:xlink="http://www.w3.org/1999/xlink" viewBox="0 0 28.2461 27.9043">
 <g>
  
  <path d="M13.9453 27.8906C21.6426 27.8906 27.8906 21.6426 27.8906 13.9453C27.8906 6.24805 21.6426 0 13.9453 0C6.24805 0 0 6.24805 0 13.9453C0 21.6426 6.24805 27.8906 13.9453 27.8906ZM13.9453 25.5664C7.51953 25.5664 2.32422 20.3711 2.32422 13.9453C2.32422 7.51953 7.51953 2.32422 13.9453 2.32422C20.3711 2.32422 25.5664 7.51953 25.5664 13.9453C25.5664 20.3711 20.3711 25.5664 13.9453 25.5664Z" style="fill:var(--color-0,hsl(0 0 0/0.85))"></path>
  <path d="M13.9453 14.998C18.0605 14.998 21.2871 13.5078 21.2871 11.6211C21.2871 9.78906 18.0605 8.33984 13.9453 8.33984C9.83008 8.33984 6.60352 9.78906 6.60352 11.6211C6.60352 13.5078 9.83008 14.998 13.9453 14.998ZM13.9453 19.5371C18.0879 19.5371 21.2871 17.6777 21.2871 15.4082L21.2871 13.7539C19.8789 15.1484 17.0352 15.9688 13.9453 15.9688C10.8691 15.9688 8.02539 15.1484 6.60352 13.7539L6.60352 15.4082C6.60352 17.6777 9.78906 19.5371 13.9453 19.5371Z" style="fill:var(--color-1,hsl(0 0 0/0.85))"></path>
 </g>
</svg>