<svg version="1.1" xmlns="http://www.w3.org/2000/svg" xmlns:xlink="http://www.w3.org/1999/xlink" viewBox="0 0 38.6777 35.5605">
 <g>
  
  <path d="M23.1875 4.93555C24.2705 6.17204 25.0556 7.69043 25.4927 9.35156L20.248 9.35156C17.9238 9.35156 15.8457 9.65234 14.2598 11.2383C12.6738 12.8242 12.3867 14.8887 12.3867 17.2129L12.3867 23.8916C8.8698 23.7838 7.12414 23.185 5.50977 21.6562C2.98047 19.3594 1.50391 16.0098 1.50391 12.4824C1.50391 9.625 2.47461 6.91797 4.22461 4.93555C4.75781 4.23828 5.66016 4.11523 6.43945 4.58008C7.95703 5.66016 9.78906 6.41211 13.6992 6.41211C17.6094 6.41211 19.4551 5.66016 20.959 4.58008C21.7383 4.11523 22.6543 4.23828 23.1875 4.93555Z" style="fill:var(--color-0,hsl(0 0 0/0.85))"></path>
  <path d="M19.4277 3.34961C19.4277 4.21094 17.0488 4.89453 13.6992 4.89453C10.3496 4.89453 7.9707 4.21094 7.9707 3.34961C7.9707 2.44727 10.3496 1.79102 13.6992 1.79102C17.0488 1.79102 19.4277 2.44727 19.4277 3.34961Z" style="fill:var(--color-1,hsl(0 0 0/0.85))"></path>
  <path d="M20.2754 33.6875L30.7891 33.6875C32.7168 33.6875 34.3438 33.5098 35.4922 32.3613C36.6406 31.1992 36.8047 29.5859 36.8047 27.6582L36.8047 17.2539C36.8047 15.3125 36.6406 13.6992 35.4922 12.5508C34.3438 11.4023 32.7168 11.2109 30.7891 11.2109L20.248 11.2109C18.3613 11.2109 16.7344 11.4023 15.5723 12.5645C14.4238 13.7129 14.2461 15.3262 14.2461 17.2129L14.2461 27.6582C14.2461 29.5859 14.4238 31.1992 15.5723 32.3613C16.7344 33.5098 18.3613 33.6875 20.2754 33.6875ZM20.3164 19.9199C20.2754 19.0449 20.9863 18.2109 21.9297 18.1426C21.998 18.9902 21.2598 20.0156 20.3164 19.9199ZM23.5293 23.9395C23.3516 24.541 22.9551 25.252 22.4492 25.7578C22.2852 25.8945 22.0664 26.0039 21.7793 26.0039C21.5059 26.0039 21.3555 25.9082 21.1094 25.8398C20.959 25.7852 20.7539 25.6758 20.5078 25.6758C19.9336 25.6758 19.6738 26.0312 19.1953 26.0312C18.8672 26.0312 18.6211 25.8398 18.2656 25.4434C17.582 24.6914 17.1445 23.5156 17.1445 22.4902C17.1445 21.8613 17.2949 21.2871 17.7051 20.7949C18.0332 20.3711 18.5391 20.125 19.1406 20.125C19.7012 20.125 20.043 20.4805 20.3574 20.4805C20.7129 20.4805 21.1094 20.1113 21.8477 20.1113C22.4629 20.1113 23.0098 20.3711 23.3379 20.877C22.8867 21.123 22.7227 21.4512 22.627 21.7246C22.4766 22.1074 22.4492 22.5723 22.627 23.0508C22.8047 23.4609 23.0781 23.748 23.5293 23.9395ZM26.7148 18.7168L26.7148 20.1113L27.8223 20.1113L27.8223 21.0273L26.7148 21.0273L26.7148 24.2676C26.7148 24.8145 26.9473 25.0195 27.4121 25.0195C27.5352 25.0195 27.7539 25.0195 27.8223 24.9785L27.8223 25.9629C27.7129 25.9766 27.4121 26.0039 27.166 26.0039C25.9629 26.0039 25.498 25.5938 25.498 24.418L25.498 21.0273L24.6777 21.0273L24.6777 20.1113L25.498 20.1113L25.498 18.7168ZM31.8008 25.9629L30.5293 25.9629L28.3828 20.1113L29.6406 20.1113L31.1582 24.8145L32.5938 20.1113L33.9062 20.1113Z" style="fill:var(--color-2,hsl(0 0 0/0.85))"></path>
 </g>
</svg>