<?xml version="1.0" encoding="UTF-8"?>
<!--Generator: Apple Native CoreSVG 326-->
<!DOCTYPE svg
PUBLIC "-//W3C//DTD SVG 1.1//EN"
       "http://www.w3.org/Graphics/SVG/1.1/DTD/svg11.dtd">
<svg version="1.1" xmlns="http://www.w3.org/2000/svg" xmlns:xlink="http://www.w3.org/1999/xlink" viewBox="0 0 40.0859 24.7598">
 <g>
  <rect height="24.7598" opacity="0" width="40.0859" x="0" y="0"/>
  <path d="M30.2969 3.78711C32.2656 5.98828 33.3184 8.99609 33.3184 12.1543C33.3184 16.0645 31.6914 19.7422 28.9023 22.2852C26.9199 24.1309 24.8281 24.7598 19.8652 24.7598C14.9023 24.7598 12.7969 24.1309 10.8145 22.2852C9.32293 20.9185 8.15914 19.2242 7.41551 17.3359L9.82298 17.3359C10.4279 18.5866 11.2727 19.7164 12.3184 20.6719C13.8633 22.1211 15.5176 22.5586 19.8652 22.5586C24.1992 22.5586 25.8672 22.1211 27.4121 20.6719C29.7773 18.498 31.1172 15.4219 31.1172 12.1543C31.1172 9.80724 30.4252 7.54947 28.9833 5.657C26.7884 7.112 23.533 7.72461 19.8652 7.72461C16.2013 7.72461 12.9489 7.11329 10.7431 5.66162C9.46704 7.33458 8.7713 9.29353 8.63331 11.3477L6.43249 11.3477C6.58784 8.48624 7.63247 5.79955 9.41992 3.78711C9.95312 3.10352 10.8691 2.98047 11.6348 3.45898C13.3164 4.68945 15.5723 5.52344 19.8652 5.52344C24.1582 5.52344 26.4141 4.68945 28.0957 3.45898C28.8613 2.98047 29.7637 3.10352 30.2969 3.78711ZM26.332 1.91406C26.332 2.89844 23.666 3.66406 19.8652 3.66406C16.0645 3.66406 13.3984 2.89844 13.3984 1.91406C13.3984 0.916016 16.0645 0.177734 19.8652 0.177734C23.666 0.177734 26.332 0.916016 26.332 1.91406Z" fill="white" fill-opacity="0.85"/>
  <path d="M3.00781 15.4219L14.3965 15.4219L16.2559 15.3398L15.4629 16.0918L13.6035 17.8008C13.3711 17.9922 13.2754 18.2793 13.2754 18.5391C13.2754 19.1133 13.6719 19.5371 14.2324 19.5371C14.5195 19.5371 14.7383 19.4141 14.9434 19.209L18.8809 15.1348C19.1406 14.8613 19.25 14.6152 19.25 14.3418C19.25 14.0684 19.1406 13.8223 18.8809 13.5488L14.9434 9.46094C14.7383 9.25586 14.5195 9.14648 14.2324 9.14648C13.6719 9.14648 13.2754 9.57031 13.2754 10.1445C13.2754 10.4043 13.3711 10.6914 13.6035 10.8828L15.4629 12.5918L16.2559 13.3438L14.3965 13.2617L3.00781 13.2617C2.43359 13.2617 1.94141 13.7539 1.94141 14.3418C1.94141 14.9297 2.43359 15.4219 3.00781 15.4219Z" fill="white" fill-opacity="0.85"/>
 </g>
</svg>
