<svg version="1.1" xmlns="http://www.w3.org/2000/svg" xmlns:xlink="http://www.w3.org/1999/xlink" viewBox="0 0 27.2754 24.7598">
 <g>
  
  <path d="M13.4668 24.7598C18.4297 24.7598 20.5215 24.1309 22.5039 22.2852C25.293 19.7422 26.9199 16.0645 26.9199 12.1543C26.9199 8.99609 25.8672 5.98828 23.6934 3.51367C23.1875 2.88477 22.668 2.83008 22.1211 3.22656C20.0977 4.75781 17.7598 5.52344 13.4668 5.52344C9.16016 5.52344 6.82227 4.75781 4.8125 3.22656C4.26562 2.83008 3.73242 2.88477 3.22656 3.51367C1.06641 5.98828 0 8.99609 0 12.1543C0 16.0645 1.62695 19.7422 4.41602 22.2852C6.39844 24.1309 8.49023 24.7598 13.4668 24.7598Z" style="fill:var(--color-0,hsl(0 0 0/0.85))"></path>
  <path d="M13.4668 3.66406C17.2676 3.66406 19.9199 2.89844 19.9199 1.91406C19.9199 0.916016 17.2676 0.177734 13.4668 0.177734C9.65234 0.177734 7 0.916016 7 1.91406C7 2.89844 9.65234 3.66406 13.4668 3.66406Z" style="fill:var(--color-1,hsl(0 0 0/0.85))"></path>
 </g>
</svg>