<svg version="1.1" xmlns="http://www.w3.org/2000/svg" xmlns:xlink="http://www.w3.org/1999/xlink" viewBox="0 0 39.2383 36.0254">
 <g>
  
  <path d="M21.916 5.26367C22.7534 6.31332 23.3262 7.75974 23.4667 9.78868C22.6889 9.82438 21.9531 9.89549 21.2562 9.99901C21.1731 9.14502 20.9635 8.34593 20.5898 7.62891C18.9629 8.90039 15.8867 9.47461 12.5098 9.47461C9.11914 9.47461 6.04297 8.90039 4.41602 7.62891C3.91016 8.59961 3.70508 9.7207 3.70508 10.9238L3.70508 20.9863C3.70508 25.4794 6.0001 27.5781 11.6498 27.7627C11.9253 28.5382 12.282 29.2796 12.7086 29.9783C12.6456 29.9822 12.5778 29.9824 12.5098 29.9824C5.56445 29.9824 1.50391 27.8086 1.50391 21.1914L1.50391 10.8008C1.50391 8.23047 2.11914 6.48047 3.08984 5.26367C3.41797 4.83984 3.9375 4.8125 4.34766 5.1543C5.66016 6.30273 9.07812 7.27344 12.5098 7.27344C15.9277 7.27344 19.3594 6.30273 20.6582 5.1543C21.0684 4.8125 21.5879 4.83984 21.916 5.26367Z" style="fill:var(--color-0,hsl(0 0 0/0.85))"></path>
  <path d="M18.8262 3.65039C18.8262 4.64844 16.0098 5.41406 12.5098 5.41406C8.99609 5.41406 6.17969 4.64844 6.17969 3.65039C6.17969 2.65234 8.99609 1.90039 12.5098 1.90039C16.0098 1.90039 18.8262 2.65234 18.8262 3.65039Z" style="fill:var(--color-1,hsl(0 0 0/0.85))"></path>
  <path d="M24.9512 34.1523C29.5586 34.1523 31.4863 33.5508 33.291 31.8555C35.8613 29.5176 37.3789 26.1133 37.3789 22.5176C37.3789 19.6055 36.3809 16.8164 34.5898 14.793C34.0566 14.123 33.1406 13.9727 32.3613 14.4512C30.8438 15.5586 28.957 16.3379 24.9512 16.3379C20.959 16.3379 19.0586 15.5586 17.541 14.4512C16.7617 13.9727 15.8594 14.1094 15.3125 14.793C13.5215 16.8164 12.5234 19.5918 12.5234 22.5176C12.5234 26.1133 14.0273 29.5176 16.5977 31.8555C18.416 33.5508 20.3574 34.1523 24.9512 34.1523ZM24.9512 31.8145C21.0684 31.8145 19.5781 31.4453 18.1973 30.1465C16.0645 28.1914 14.875 25.4434 14.875 22.5176C14.875 20.043 15.7363 17.6504 17.5273 15.75L15.791 16.2285C17.6504 17.8008 20.7129 18.6758 24.9512 18.6758C29.2031 18.6758 32.2656 17.8008 34.125 16.2148L32.3613 15.75C34.1797 17.6367 35.041 20.0293 35.041 22.5176C35.041 25.4434 33.8242 28.1914 31.7051 30.1465C30.3105 31.4453 28.834 31.8145 24.9512 31.8145Z" style="fill:var(--color-2,hsl(0 0 0/0.85))"></path>
  <path d="M24.9512 14.793C28.3691 14.793 30.8027 14.0957 30.8027 13.207C30.8027 12.291 28.3691 11.6074 24.9512 11.6074C21.5195 11.6074 19.0996 12.291 19.0996 13.207C19.0996 14.0957 21.5195 14.793 24.9512 14.793Z" style="fill:var(--color-3,hsl(0 0 0/0.85))"></path>
 </g>
</svg>