<svg version="1.1" xmlns="http://www.w3.org/2000/svg" xmlns:xlink="http://www.w3.org/1999/xlink" viewBox="0 0 39.4023 36.1621">
 <g>
  
  <path d="M22.0801 5.33203C22.9269 6.39358 23.5032 7.86094 23.6362 9.92513C19.1595 10.1486 15.9424 11.4341 14.041 13.7676C11.9629 16.1191 10.8281 19.3184 10.8281 22.6543C10.8281 25.2788 11.5326 27.8414 12.8298 30.0476C12.7804 30.0507 12.7272 30.0508 12.6738 30.0508C5.71484 30.0508 1.66797 27.877 1.66797 21.2598L1.66797 10.8691C1.66797 8.29883 2.2832 6.54883 3.25391 5.33203C3.58203 4.9082 4.10156 4.88086 4.51172 5.22266C5.82422 6.37109 9.24219 7.3418 12.6738 7.3418C16.0918 7.3418 19.5234 6.37109 20.8223 5.22266C21.2324 4.88086 21.752 4.9082 22.0801 5.33203Z" style="fill:var(--color-0,hsl(0 0 0/0.85))"></path>
  <path d="M18.9902 3.71875C18.9902 4.7168 16.1738 5.48242 12.6738 5.48242C9.16016 5.48242 6.34375 4.7168 6.34375 3.71875C6.34375 2.7207 9.16016 1.96875 12.6738 1.96875C16.1738 1.96875 18.9902 2.7207 18.9902 3.71875Z" style="fill:var(--color-1,hsl(0 0 0/0.85))"></path>
  <path d="M25.1152 34.125C29.6406 34.125 31.5547 33.5508 33.3457 31.8691C35.875 29.5586 37.3789 26.209 37.3789 22.6543C37.3789 19.7285 36.3672 16.9941 34.4258 14.7656C33.9746 14.2051 33.4961 14.1641 32.9902 14.5195C31.1445 15.9141 29.1348 16.6387 25.1152 16.6387C21.0957 16.6387 19.0723 15.9141 17.2402 14.5195C16.748 14.1641 16.2559 14.2051 15.791 14.7656C13.8633 16.9941 12.8516 19.7285 12.8516 22.6543C12.8516 26.209 14.3418 29.5586 16.8711 31.8691C18.6758 33.5508 20.6035 34.125 25.1152 34.125Z" style="fill:var(--color-2,hsl(0 0 0/0.85))"></path>
  <path d="M25.1152 14.9297C28.5332 14.9297 30.9668 14.2324 30.9668 13.3438C30.9668 12.4277 28.5332 11.7441 25.1152 11.7441C21.6836 11.7441 19.2637 12.4277 19.2637 13.3438C19.2637 14.2324 21.6836 14.9297 25.1152 14.9297Z" style="fill:var(--color-3,hsl(0 0 0/0.85))"></path>
 </g>
</svg>