<svg version="1.1" xmlns="http://www.w3.org/2000/svg" xmlns:xlink="http://www.w3.org/1999/xlink" viewBox="0 0 32.9902 28.7793">
 <g>
  
  <path d="M3.9375 25.7441C3.9375 27.6719 5.07227 28.7793 7.02734 28.7793L25.6348 28.7793C27.5762 28.7793 28.7109 27.6719 28.7109 25.7441L28.7109 10.4453L26.7695 10.3223L26.7695 25.4707C26.7695 26.3594 26.291 26.8516 25.4297 26.8516L7.23242 26.8516C6.35742 26.8516 5.87891 26.3594 5.87891 25.4707L5.87891 10.3223L3.9375 10.4453ZM0 13.4941C0 14.0273 0.396484 14.4102 0.998047 14.4102C1.24414 14.4102 1.43555 14.3145 1.61328 14.1777L15.8457 2.24219C16.1328 1.98242 16.502 1.96875 16.8027 2.24219L31.0352 14.1777C31.1992 14.3145 31.3906 14.4102 31.6504 14.4102C32.2383 14.4102 32.6348 14.0273 32.6348 13.4941C32.6348 13.125 32.498 12.8789 32.1973 12.6328L17.9648 0.669922C16.9531-0.191406 15.709-0.191406 14.6836 0.669922L0.4375 12.6328C0.136719 12.8789 0 13.125 0 13.4941ZM25.2793 7.35547L28.7109 10.2676L28.7109 3.9375C28.7109 3.34961 28.3281 2.9668 27.7266 2.9668L26.2637 2.9668C25.6758 2.9668 25.2793 3.34961 25.2793 3.9375Z" style="fill:var(--color-0,#ff9500)"></path>
  <path d="M8.43555 22.5586C8.43555 23.666 9.13281 24.3086 10.3359 24.3086L22.3262 24.3086C23.5156 24.3086 24.2266 23.666 24.2266 22.5586L24.2266 11.8945L17.2129 6.0293C16.666 5.57812 15.9824 5.57812 15.4492 6.0293L8.43555 11.8945ZM10.377 21.7246L10.377 12.8379L15.8867 8.2168C16.1328 8.01172 16.5156 7.99805 16.7617 8.2168L22.2852 12.8516L22.2852 21.7246C22.2852 22.1484 22.0527 22.3809 21.6289 22.3809L11.0195 22.3809C10.6094 22.3809 10.377 22.1484 10.377 21.7246Z" style="fill:var(--color-1,#ffba00)"></path>
  <path d="M12.9199 18.5664C12.9199 19.3594 13.4395 19.8516 14.2734 19.8516L18.375 19.8516C19.2227 19.8516 19.7285 19.3594 19.7285 18.5664L19.7285 14.0957L17.1035 11.8809C16.625 11.4844 16.0234 11.4844 15.5586 11.8809L12.9199 14.0957ZM14.8203 17.6641L14.8203 14.9707L15.9961 13.9863C16.2012 13.8086 16.4609 13.8086 16.6523 13.9863L17.8281 14.9707L17.8281 17.6641C17.8281 17.8691 17.7324 17.9785 17.5137 17.9785L15.1348 17.9785C14.9297 17.9785 14.8203 17.8691 14.8203 17.6641Z" style="fill:var(--color-2,#ffd417)"></path>
 </g>
</svg>