<?xml version="1.0" encoding="UTF-8"?>
<!--Generator: Apple Native CoreSVG 326-->
<!DOCTYPE svg
PUBLIC "-//W3C//DTD SVG 1.1//EN"
       "http://www.w3.org/Graphics/SVG/1.1/DTD/svg11.dtd">
<svg version="1.1" xmlns="http://www.w3.org/2000/svg" xmlns:xlink="http://www.w3.org/1999/xlink" viewBox="0 0 39.1016 33.5371">
 <g>
  <rect height="33.5371" opacity="0" width="39.1016" x="0" y="0"/>
  <path d="M5.89258 4.73047C7.73828 6.125 9.74805 6.84961 13.7539 6.84961C14.0516 6.84961 14.3378 6.84543 14.6096 6.83574C13.5841 7.55826 12.6964 8.44526 11.8672 9.48828C9.74805 11.9902 8.44922 15.4355 8.44922 19.0723C8.44922 20.7817 8.72578 22.4542 9.25542 24.0276C7.65781 23.6918 6.58375 23.0829 5.52344 22.0938C2.99414 19.7695 1.50391 16.4199 1.50391 12.8652C1.50391 9.93945 2.51562 7.21875 4.44336 4.99023C4.9082 4.41602 5.38672 4.36133 5.89258 4.73047Z" fill="white" fill-opacity="0.85"/>
  <path d="M19.6191 3.54102C19.6191 4.44336 17.1992 5.14062 13.7539 5.14062C10.3359 5.14062 7.91602 4.44336 7.91602 3.54102C7.91602 2.63867 10.3359 1.95508 13.7539 1.95508C17.1992 1.95508 19.6191 2.63867 19.6191 3.54102Z" fill="white" fill-opacity="0.85"/>
  <path d="M23.7754 31.6641C28.7383 31.6641 30.8438 31.0352 32.8262 29.1895C35.6016 26.6465 37.2422 22.9688 37.2422 19.0723C37.2422 15.9141 36.1758 12.8926 34.0156 10.418C33.5098 9.78906 32.9766 9.74805 32.4297 10.1309C30.4062 11.6621 28.0684 12.4414 23.7754 12.4414C19.4824 12.4414 17.1445 11.6621 15.1211 10.1309C14.5742 9.74805 14.0547 9.78906 13.5488 10.418C11.375 12.8926 10.3223 15.9141 10.3223 19.0723C10.3223 22.9688 11.9492 26.6465 14.7383 29.1895C16.7207 31.0352 18.8125 31.6641 23.7754 31.6641Z" fill="white" fill-opacity="0.85"/>
  <path d="M23.7754 10.5684C27.5762 10.5684 30.2422 9.80273 30.2422 8.81836C30.2422 7.83398 27.5762 7.08203 23.7754 7.08203C19.9746 7.08203 17.3086 7.83398 17.3086 8.81836C17.3086 9.80273 19.9746 10.5684 23.7754 10.5684Z" fill="white" fill-opacity="0.85"/>
 </g>
</svg>
