<svg version="1.1" xmlns="http://www.w3.org/2000/svg" xmlns:xlink="http://www.w3.org/1999/xlink" viewBox="0 0 35.998 28.0957">
 <g>
  
  <path d="M27.2344 3.37695C28.2051 4.60742 28.8203 6.34375 28.8203 8.91406L28.8203 19.3184C28.8203 25.416 25.3613 28.0957 17.8281 28.0957C10.2812 28.0957 6.82227 25.416 6.82227 19.3184L6.82227 18.7305L9.02344 18.7305L9.02344 19.0996C9.02344 23.7754 11.498 25.8945 17.8281 25.8945C24.1445 25.8945 26.6191 23.7754 26.6191 19.0996L26.6191 9.03711C26.6191 7.83398 26.4141 6.71289 25.9082 5.74219C24.2812 7.01367 21.2051 7.60156 17.8281 7.60156C14.4375 7.60156 11.3613 7.01367 9.73438 5.74219C9.22852 6.71289 9.02344 7.83398 9.02344 9.03711L9.02344 12.7422L6.82227 12.7422L6.82227 8.91406C6.82227 6.34375 7.4375 4.60742 8.4082 3.37695C8.73633 2.9668 9.25586 2.93945 9.66602 3.26758C10.9785 4.41602 14.3965 5.40039 17.8281 5.40039C21.2461 5.40039 24.6777 4.41602 25.9766 3.26758C26.3867 2.93945 26.9062 2.9668 27.2344 3.37695ZM24.1445 1.77734C24.1445 2.76172 21.4375 3.52734 17.8281 3.52734C14.2051 3.52734 11.498 2.76172 11.498 1.77734C11.498 0.765625 14.2051 0.0136719 17.8281 0.0136719C21.4375 0.0136719 24.1445 0.765625 24.1445 1.77734Z" style="fill:var(--color-0,hsl(0 0 0/0.85))"></path>
  <path d="M3.00781 16.8301L14.3965 16.8164L16.2422 16.7344L15.4629 17.4863L13.5898 19.1953C13.3711 19.3867 13.2754 19.6738 13.2754 19.9336C13.2754 20.5078 13.6719 20.9316 14.2324 20.9316C14.5195 20.9316 14.7383 20.8223 14.9434 20.6035L18.8809 16.5293C19.1406 16.2559 19.25 16.0098 19.25 15.7363C19.25 15.4629 19.1406 15.2168 18.8809 14.9434L14.9434 10.8555C14.7383 10.6504 14.5195 10.541 14.2324 10.541C13.6719 10.541 13.2754 10.9648 13.2754 11.5391C13.2754 11.7988 13.3711 12.0859 13.5898 12.2773L15.4629 13.9863L16.2559 14.7383L14.3965 14.6562L3.00781 14.6562C2.43359 14.6562 1.94141 15.1484 1.94141 15.7363C1.94141 16.3242 2.43359 16.8301 3.00781 16.8301Z" style="fill:var(--color-1,hsl(0 0 0/0.85))"></path>
 </g>
</svg>