<?xml version="1.0" encoding="UTF-8"?>
<!--Generator: Apple Native CoreSVG 326-->
<!DOCTYPE svg
PUBLIC "-//W3C//DTD SVG 1.1//EN"
       "http://www.w3.org/Graphics/SVG/1.1/DTD/svg11.dtd">
<svg version="1.1" xmlns="http://www.w3.org/2000/svg" xmlns:xlink="http://www.w3.org/1999/xlink" viewBox="0 0 29.0254 38.1582">
 <g>
  <rect height="38.1582" opacity="0" width="29.0254" x="0" y="0"/>
  <path d="M22.3398 8.75L22.3398 8.98242C22.3398 12.3047 18.8535 15.791 16.9395 17.6777C16.0781 18.5391 16.0098 19.4961 16.9395 20.4258C17.4027 20.8857 17.9581 21.4394 18.5344 22.0627C17.4789 23.0443 16.8389 24.4956 16.7862 26.2464L15.0254 24.5684C14.8613 24.418 14.8066 24.3496 14.8066 24.1309L14.8066 18.0742C14.8066 17.4453 14.916 17.1309 15.3809 16.7344C16.3105 15.9551 17.5957 14.834 18.4297 13.9453C18.7852 13.5898 18.5938 13.1523 18.1699 13.1523L10.4863 13.1523C10.0625 13.1523 9.87109 13.5898 10.2266 13.9453C11.0742 14.834 12.3594 15.9551 13.2754 16.7344C13.7402 17.1309 13.8633 17.4453 13.8633 18.0742L13.8633 24.1309C13.8633 24.3496 13.7949 24.418 13.6309 24.5684L9.26953 28.7246C8.87305 29.0938 9.00977 29.7773 9.59766 29.7773L15.5859 29.7773L15.5859 31.6367L8.54492 31.6367C7.16406 31.6367 6.31641 30.8574 6.31641 29.3945L6.31641 29.1211C6.31641 25.8262 9.81641 22.3262 11.7168 20.4258C12.6602 19.4961 12.5918 18.5391 11.7168 17.6777C9.81641 15.791 6.31641 12.3047 6.31641 8.98242L6.31641 8.75C6.31641 7.28711 7.16406 6.49414 8.54492 6.49414L20.1113 6.49414C21.4922 6.49414 22.3398 7.28711 22.3398 8.75Z" fill="#5e5ce6"/>
  <path d="M19.209 36.3398L25.4023 36.3398C26.5645 36.3398 27.166 35.7109 27.166 34.4668L27.166 29.709C27.166 28.4785 26.5645 27.8633 25.4023 27.8633L19.209 27.8633C18.0469 27.8633 17.4453 28.4785 17.4453 29.709L17.4453 34.4668C17.4453 35.7109 18.0469 36.3398 19.209 36.3398ZM18.6348 28.9707L20.125 28.9707L20.125 26.2363C20.125 24.8418 20.9727 23.9395 22.2988 23.9395C23.6387 23.9395 24.4863 24.8418 24.4863 26.2363L24.4863 28.9707L25.9629 28.9707L25.9629 26.4688C25.9629 24.0215 24.541 22.4629 22.2988 22.4629C20.084 22.4629 18.6348 24.0215 18.6348 26.4688Z" fill="white" fill-opacity="0.85"/>
 </g>
</svg>
