<svg version="1.1" xmlns="http://www.w3.org/2000/svg" xmlns:xlink="http://www.w3.org/1999/xlink" viewBox="0 0 28.2461 27.9043">
 <g>
  
  <path d="M13.9453 27.8906C21.6426 27.8906 27.8906 21.6426 27.8906 13.9453C27.8906 6.24805 21.6426 0 13.9453 0C6.24805 0 0 6.24805 0 13.9453C0 21.6426 6.24805 27.8906 13.9453 27.8906ZM13.9453 25.5664C7.51953 25.5664 2.32422 20.3711 2.32422 13.9453C2.32422 7.51953 7.51953 2.32422 13.9453 2.32422C20.3711 2.32422 25.5664 7.51953 25.5664 13.9453C25.5664 20.3711 20.3711 25.5664 13.9453 25.5664Z" style="fill:var(--color-0,#5856d6)"></path>
  <path d="M10.2676 21.9297L17.623 21.9297C18.498 21.9297 19.0312 21.4238 19.0312 20.5078L19.0312 20.3301C19.0312 18.2383 16.8164 16.0098 15.5996 14.793C14.998 14.2051 15.0391 13.6035 15.5996 13.0703C16.8164 11.8672 19.0312 9.63867 19.0312 7.5332L19.0312 7.38281C19.0312 6.45312 18.498 5.94727 17.623 5.94727L10.2676 5.94727C9.39258 5.94727 8.85938 6.45312 8.85938 7.38281L8.85938 7.5332C8.85938 9.63867 11.0742 11.8672 12.291 13.0703C12.8516 13.6035 12.8926 14.2051 12.291 14.793C11.0742 16.0098 8.85938 18.2383 8.85938 20.3301L8.85938 20.5078C8.85938 21.4238 9.39258 21.9297 10.2676 21.9297ZM10.9375 20.7539C10.5547 20.7539 10.4863 20.3164 10.7324 20.084L13.3301 17.4316C13.4258 17.3359 13.4668 17.2949 13.4668 17.1582L13.4668 13.3164C13.4668 12.9336 13.3848 12.7422 13.1113 12.4824C12.5098 11.8809 11.8809 11.2656 11.3477 10.6914C11.1016 10.459 11.2383 10.1992 11.5117 10.1992L16.3926 10.1992C16.666 10.1992 16.7891 10.459 16.5566 10.6914C16.0098 11.2656 15.3809 11.8809 14.7793 12.4824C14.5059 12.7422 14.4238 12.9336 14.4238 13.3164L14.4238 17.1582C14.4238 17.2949 14.4648 17.3359 14.5605 17.4316L17.1582 20.084C17.4043 20.3164 17.3359 20.7539 16.9531 20.7539Z" style="fill:var(--color-1,#5856d6)"></path>
 </g>
</svg>