<svg version="1.1" xmlns="http://www.w3.org/2000/svg" xmlns:xlink="http://www.w3.org/1999/xlink" viewBox="0 0 43.9397 30.1465">
 <g>
  
  <path d="M1.74917 15.4492L14.6964 8.83203C14.9835 8.68164 15.339 8.68164 15.6535 8.83203L28.6007 15.4492C30.173 16.2422 30.9933 14.3555 29.7082 13.6855L16.7199 6.86328C15.6124 6.28906 14.7238 6.28906 13.63 6.86328L0.614401 13.6855C-0.643412 14.3555 0.176901 16.2422 1.74917 15.4492ZM6.47964 30.0918L23.8703 30.0918C25.7296 30.0918 26.8234 29.0254 26.8234 27.1797L26.8234 16.5566C26.591 16.4473 26.3859 16.3379 26.1535 16.2148L15.1613 10.5957L4.14174 16.2285C3.93667 16.3379 3.74526 16.4336 3.52651 16.543L3.52651 27.1797C3.52651 29.0254 4.62026 30.0918 6.47964 30.0918ZM11.1828 27.9863L11.1828 19.291C11.1828 18.6895 11.5792 18.293 12.1808 18.293L18.1554 18.293C18.757 18.293 19.1535 18.6895 19.1535 19.291L19.1535 27.9863ZM33.755 30.0918C34.3292 30.0918 34.7941 29.5996 34.7941 29.0254L34.7941 8.01172C34.9308 7.98438 35.1085 7.9707 35.3136 7.9707C37.5285 7.9707 38.9093 9.05078 41.0421 9.05078C41.9855 9.05078 42.3683 8.95508 42.8332 8.73633C43.3527 8.49023 43.5851 8.13477 43.5851 7.54688L43.5851 1.47656C43.5851 1.10742 43.4074 0.847656 42.8878 0.847656C42.5187 0.847656 41.9992 1.10742 40.9874 1.10742C38.8957 1.10742 37.4874 0 35.2589 0C34.3019 0 33.9191 0.123047 33.4679 0.314453C32.9621 0.533203 32.7023 0.929688 32.7023 1.47656L32.7023 29.0254C32.7023 29.5996 33.1808 30.0918 33.755 30.0918ZM1.20229 30.0918L39.3058 30.0918C39.88 30.0918 40.3449 29.5996 40.3449 29.0254C40.3449 28.4512 39.88 27.9863 39.3058 27.9863L1.20229 27.9863C0.628073 27.9863 0.149557 28.4512 0.149557 29.0254C0.149557 29.5996 0.628073 30.0918 1.20229 30.0918Z" style="fill:var(--color-0,hsl(0 0 0/0.85))"></path>
 </g>
</svg>