<?xml version="1.0" encoding="UTF-8"?>
<!--Generator: Apple Native CoreSVG 326-->
<!DOCTYPE svg
PUBLIC "-//W3C//DTD SVG 1.1//EN"
       "http://www.w3.org/Graphics/SVG/1.1/DTD/svg11.dtd">
<svg version="1.1" xmlns="http://www.w3.org/2000/svg" xmlns:xlink="http://www.w3.org/1999/xlink" viewBox="0 0 28.2461 27.9043">
 <g>
  <rect height="27.9043" opacity="0" width="28.2461" x="0" y="0"/>
  <path d="M13.9453 27.8906C21.6426 27.8906 27.8906 21.6426 27.8906 13.9453C27.8906 6.24805 21.6426 0 13.9453 0C6.24805 0 0 6.24805 0 13.9453C0 21.6426 6.24805 27.8906 13.9453 27.8906ZM13.9453 25.5664C7.51953 25.5664 2.32422 20.3711 2.32422 13.9453C2.32422 7.51953 7.51953 2.32422 13.9453 2.32422C20.3711 2.32422 25.5664 7.51953 25.5664 13.9453C25.5664 20.3711 20.3711 25.5664 13.9453 25.5664Z" fill="white" fill-opacity="0.85"/>
  <path d="M6.125 13.8633L11.5938 11.0742C11.7168 11.0059 11.8535 11.0059 11.9766 11.0742L17.4453 13.8633C18.1152 14.2051 18.457 13.3984 17.9238 13.1113L12.4414 10.2266C11.9629 9.99414 11.5938 9.99414 11.1289 10.2402L5.64648 13.1113C5.11328 13.3984 5.44141 14.2051 6.125 13.8633ZM5.89258 20.0293L20.3848 20.0293C20.6309 20.0293 20.8359 19.8242 20.8359 19.5645C20.8359 19.3184 20.6309 19.1133 20.3848 19.1133L16.6523 19.1133C16.6797 19.0176 16.6797 18.9219 16.6797 18.8125L16.6797 14.3008C16.5977 14.2598 16.502 14.2051 16.4062 14.1641L11.7852 11.7852L7.15039 14.1641C7.05469 14.2051 6.97266 14.2598 6.89062 14.3008L6.89062 18.8125C6.89062 18.9219 6.89062 19.0312 6.93164 19.1133L5.89258 19.1133C5.66016 19.1133 5.44141 19.3184 5.44141 19.5645C5.44141 19.8242 5.66016 20.0293 5.89258 20.0293ZM10.0898 19.1133L10.0898 15.4902C10.0898 15.2168 10.2676 15.0664 10.5137 15.0664L13.043 15.0664C13.3027 15.0664 13.4668 15.2168 13.4668 15.4902L13.4668 19.1133ZM17.6777 19.5508L18.5801 19.5508L18.5801 10.7324C18.6348 10.7188 18.7168 10.7188 18.7852 10.7188C19.7148 10.7188 20.2891 11.1699 21.2051 11.1699C21.5879 11.1699 21.7656 11.1152 21.957 11.0332C22.1895 10.9238 22.2852 10.7734 22.2852 10.5273L22.2852 7.9707C22.2852 7.80664 22.1895 7.68359 21.9707 7.68359C21.8066 7.68359 21.6016 7.80664 21.1641 7.80664C20.3027 7.80664 19.7148 7.3418 18.7715 7.3418C18.375 7.3418 18.1973 7.39648 18.0195 7.47852C17.7871 7.56055 17.6777 7.73828 17.6777 7.98438Z" fill="white" fill-opacity="0.85"/>
 </g>
</svg>
