<svg version="1.1" xmlns="http://www.w3.org/2000/svg" xmlns:xlink="http://www.w3.org/1999/xlink" viewBox="0 0 33.2158 36.5928">
 <g>
  
  <path d="M6.56619 14.4559L6.30615 14.6742L6.30615 29.0904C6.30615 29.979 6.78467 30.4575 7.65967 30.4575L22.584 30.4575L24.7874 32.6587L7.18115 32.6587C5.23975 32.6587 4.10498 31.565 4.10498 29.6372L4.10498 16.5217L2.25928 18.0708C1.98584 18.3033 1.67139 18.5083 1.28857 18.5083C0.550293 18.5083 0.112793 17.9751 0.112793 17.4146C0.112793 17.1001 0.249512 16.772 0.550293 16.5259L4.94453 12.8359ZM18.0776 4.56302L25.3237 10.6478L25.3237 7.98099C25.3237 7.37942 25.7339 6.99661 26.3218 6.99661L27.7847 6.99661C28.3726 6.99661 28.769 7.37942 28.769 7.98099L28.769 13.5409L32.3237 16.5259C32.6245 16.772 32.7612 17.1001 32.7612 17.4146C32.7612 17.9751 32.3237 18.5083 31.5854 18.5083C31.2026 18.5083 30.8882 18.3033 30.6011 18.0708L28.769 16.5316L28.769 28.3811L26.5679 26.181L26.5679 14.6823L16.9155 6.57278C16.7651 6.44974 16.5874 6.38138 16.437 6.38138C16.2729 6.38138 16.1089 6.44974 15.9585 6.57278L11.0617 10.6827L9.43953 9.06134L14.7964 4.56302C15.3159 4.12552 15.8765 3.90677 16.437 3.90677C16.9976 3.90677 17.5581 4.12552 18.0776 4.56302Z" style="fill:var(--color-0,hsl(0 0 0/0.85))"></path>
  <path d="M29.1929 34.4224C29.603 34.8325 30.2866 34.8325 30.6831 34.4224C31.0796 33.9986 31.0933 33.3423 30.6831 32.9322L3.68115 5.94388C3.271 5.53372 2.5874 5.52005 2.17725 5.94388C1.76709 6.34036 1.76709 7.03763 2.17725 7.43411Z" style="fill:var(--color-1,hsl(0 0 0/0.85))"></path>
 </g>
</svg>