<svg version="1.1" xmlns="http://www.w3.org/2000/svg" xmlns:xlink="http://www.w3.org/1999/xlink" viewBox="0 0 28.2461 27.9043">
 <g>
  
  <path d="M13.9453 27.8906C21.6426 27.8906 27.8906 21.6289 27.8906 13.9453C27.8906 6.24805 21.6426 0 13.9453 0C6.26172 0 0 6.24805 0 13.9453C0 21.6289 6.26172 27.8906 13.9453 27.8906Z" style="fill:var(--color-0,#55bef0)"></path>
  <path d="M7.39648 19.4551L7.39648 13.5762L13.5078 8.44922C13.7949 8.2168 14.1094 8.20312 14.3965 8.44922L20.5078 13.5898L20.5078 19.4551C20.5078 20.4668 19.8789 21.082 18.8398 21.082L9.06445 21.082C8.02539 21.082 7.39648 20.4668 7.39648 19.4551ZM5.04492 12.8105C5.04492 12.6328 5.11328 12.4414 5.27734 12.291L12.9473 5.86523C13.5625 5.3457 14.3555 5.3457 14.957 5.86523L18.6348 8.95508L18.6348 7.58789C18.6348 7.27344 18.8535 7.05469 19.1816 7.05469L19.9746 7.05469C20.2891 7.05469 20.5078 7.27344 20.5078 7.58789L20.5078 10.5273L22.627 12.291C22.791 12.4414 22.8594 12.6055 22.8594 12.8379C22.8594 13.207 22.5586 13.4668 22.1895 13.4668C21.9707 13.4668 21.8066 13.3301 21.6152 13.1934L14.2871 7.04102C14.0684 6.86328 13.8496 6.83594 13.6172 7.04102L6.27539 13.1934C6.11133 13.3301 5.94727 13.4668 5.71484 13.4668C5.29102 13.4668 5.04492 13.1387 5.04492 12.8105ZM12.0449 19.6602L15.8594 19.6602L15.8594 15.1211C15.8594 14.793 15.668 14.5605 15.2988 14.5605L12.6055 14.5605C12.2637 14.5605 12.0449 14.793 12.0449 15.1211Z" style="fill:var(--color-1,white)"></path>
 </g>
</svg>