<svg version="1.1" xmlns="http://www.w3.org/2000/svg" xmlns:xlink="http://www.w3.org/1999/xlink" viewBox="0 0 28.2461 27.9043">
 <g>
  
  <path d="M13.9453 27.8906C21.6426 27.8906 27.8906 21.6426 27.8906 13.9453C27.8906 6.24805 21.6426 0 13.9453 0C6.24805 0 0 6.24805 0 13.9453C0 21.6426 6.24805 27.8906 13.9453 27.8906ZM13.9453 25.5664C7.51953 25.5664 2.32422 20.3711 2.32422 13.9453C2.32422 7.51953 7.51953 2.32422 13.9453 2.32422C20.3711 2.32422 25.5664 7.51953 25.5664 13.9453C25.5664 20.3711 20.3711 25.5664 13.9453 25.5664Z" style="fill:var(--color-0,#55bef0)"></path>
  <path d="M7.58789 19.2637C7.58789 20.248 8.18945 20.8359 9.21484 20.8359L18.6758 20.8359C19.7012 20.8359 20.2891 20.248 20.2891 19.2637L20.2891 13.5625L14.3691 8.58594C14.0957 8.35352 13.7812 8.36719 13.5078 8.58594L7.58789 13.5488ZM15.8047 19.4688L12.0859 19.4688L12.0859 15.0664C12.0859 14.752 12.3047 14.5195 12.6465 14.5195L15.2441 14.5195C15.5996 14.5195 15.8047 14.752 15.8047 15.0664ZM5.30469 12.8242C5.30469 13.1387 5.55078 13.4531 5.96094 13.4531C6.17969 13.4531 6.34375 13.3301 6.49414 13.1934L13.6172 7.23242C13.8496 7.02734 14.0547 7.05469 14.2734 7.23242L21.3828 13.1934C21.5605 13.3301 21.7109 13.4531 21.916 13.4531C22.2715 13.4531 22.5723 13.207 22.5723 12.8516C22.5723 12.6191 22.5039 12.4688 22.3398 12.3184L14.9297 6.09766C14.3281 5.5918 13.5625 5.5918 12.9746 6.09766L5.53711 12.3184C5.38672 12.4688 5.30469 12.6465 5.30469 12.8242ZM18.4844 9.57031L20.2891 11.1016L20.2891 7.76562C20.2891 7.46484 20.0977 7.24609 19.7832 7.24609L19.0039 7.24609C18.7031 7.24609 18.4844 7.46484 18.4844 7.76562Z" style="fill:var(--color-1,#55bef0)"></path>
 </g>
</svg>