<?xml version="1.0" encoding="UTF-8"?>
<!--Generator: Apple Native CoreSVG 326-->
<!DOCTYPE svg
PUBLIC "-//W3C//DTD SVG 1.1//EN"
       "http://www.w3.org/Graphics/SVG/1.1/DTD/svg11.dtd">
<svg version="1.1" xmlns="http://www.w3.org/2000/svg" xmlns:xlink="http://www.w3.org/1999/xlink" viewBox="0 0 33.0039 28.7793">
 <g>
  <rect height="28.7793" opacity="0" width="33.0039" x="0" y="0"/>
  <path d="M12.6328 26.5508L12.6328 18.5117C12.6328 17.8828 13.0566 17.4727 13.6855 17.4727L18.9766 17.4727C19.6191 17.4727 20.0156 17.8828 20.0156 18.5117L20.0156 26.5508ZM4.26562 25.7441C4.26562 27.6445 5.41406 28.752 7.3418 28.752L25.3203 28.752C27.248 28.752 28.3828 27.6445 28.3828 25.7441L28.3828 14.8887L17.1445 5.46875C16.625 5.03125 16.0098 5.04492 15.5039 5.46875L4.26562 14.8887ZM1.17578 14.6016C1.55859 14.6016 1.87305 14.3965 2.16016 14.1641L15.8457 2.66602C15.9961 2.54297 16.1738 2.47461 16.3242 2.47461C16.4883 2.47461 16.6523 2.54297 16.8027 2.66602L30.502 14.1641C30.7754 14.3965 31.0898 14.6016 31.4727 14.6016C32.2109 14.6016 32.6484 14.0684 32.6484 13.5078C32.6484 13.1934 32.5254 12.8652 32.2109 12.6191L17.9648 0.65625C17.4453 0.21875 16.8848 0 16.3242 0C15.7637 0 15.2031 0.21875 14.6836 0.65625L0.4375 12.6191C0.136719 12.8652 0 13.1934 0 13.5078C0 14.0684 0.4375 14.6016 1.17578 14.6016ZM25.2246 7.3418L28.6562 10.2402L28.6562 4.07422C28.6562 3.47266 28.2734 3.08984 27.6719 3.08984L26.209 3.08984C25.6211 3.08984 25.2246 3.47266 25.2246 4.07422Z" fill="#5ac8f5"/>
 </g>
</svg>
