<?xml version="1.0" encoding="UTF-8"?>
<!--Generator: Apple Native CoreSVG 326-->
<!DOCTYPE svg
PUBLIC "-//W3C//DTD SVG 1.1//EN"
       "http://www.w3.org/Graphics/SVG/1.1/DTD/svg11.dtd">
<svg version="1.1" xmlns="http://www.w3.org/2000/svg" xmlns:xlink="http://www.w3.org/1999/xlink" viewBox="0 0 30.8848 29.1895">
 <g>
  <rect height="29.1895" opacity="0" width="30.8848" x="0" y="0"/>
  <path d="M1.81836 25.9219L28.7109 25.9219L28.7109 25.0059C28.7109 24.459 28.3965 24.1309 27.8359 24.1309L26.9609 24.1309L26.9609 9.37891L28.1641 9.37891C28.916 9.37891 29.3535 8.83203 29.3535 8.27148C29.3535 7.86133 29.1211 7.50586 28.6152 7.21875L16.9395 0.478516C16.3926 0.164062 15.8184 0 15.2578 0C14.6973 0 14.1094 0.164062 13.5898 0.478516L1.91406 7.21875C1.39453 7.50586 1.17578 7.86133 1.17578 8.27148C1.17578 8.83203 1.61328 9.37891 2.36523 9.37891L3.56836 9.37891L3.56836 24.1309L2.70703 24.1309C2.14648 24.1309 1.81836 24.459 1.81836 25.0059ZM5.63281 24.1309L5.63281 7.62891L14.7246 2.5293C14.8887 2.43359 15.0801 2.37891 15.2578 2.37891C15.4355 2.37891 15.627 2.43359 15.8047 2.5293L24.8965 7.62891L24.8965 24.1309ZM1.09375 29.1758L29.4219 29.1758C30.0234 29.1758 30.5293 28.6699 30.5293 28.0684C30.5293 27.4668 30.0234 26.9746 29.4219 26.9746L1.09375 26.9746C0.492188 26.9746 0 27.4668 0 28.0684C0 28.6699 0.492188 29.1758 1.09375 29.1758Z" fill="white" fill-opacity="0.85"/>
  <path d="M15.2031 8.10742C14.0684 8.10742 12.6602 8.42188 11.7852 9.7207C11.5938 10.0078 11.5117 10.2676 11.5117 10.5957C11.5117 10.9922 11.7715 11.2656 12.1953 11.2656C12.5508 11.2656 12.7422 11.1016 12.8926 10.8008C13.3711 9.85742 14.2598 9.46094 15.2305 9.46094C16.4336 9.46094 17.623 10.0215 17.623 11.2109C17.623 11.7578 17.3359 12.4688 16.5566 12.7012L17.8555 13.043C18.6074 12.6875 19.168 11.9766 19.168 11.1152C19.168 9.06445 17.1855 8.10742 15.2031 8.10742ZM10.3359 13.0156C10.3359 13.2891 10.5273 13.4668 10.7734 13.4668L19.7422 13.4668C20.0156 13.4668 20.207 13.2891 20.207 13.0156C20.207 12.7422 20.0156 12.5508 19.7422 12.5508L10.7734 12.5508C10.5273 12.5508 10.3359 12.7422 10.3359 13.0156ZM10.3359 15.2305C10.3359 15.4902 10.5273 15.6816 10.7734 15.6816L19.7422 15.6816C20.0156 15.6816 20.207 15.4902 20.207 15.2305C20.207 14.957 20.0156 14.7656 19.7422 14.7656L10.7734 14.7656C10.5273 14.7656 10.3359 14.957 10.3359 15.2305ZM15.2715 20.4668C16.8574 20.4668 18.3203 19.8926 19.0312 18.6621C19.1953 18.3887 19.332 18.0469 19.332 17.7734C19.332 17.377 19.0312 17.1172 18.6074 17.1172C18.252 17.1172 18.0469 17.2812 17.8828 17.6094C17.4043 18.6621 16.4473 19.1133 15.2578 19.1133C13.959 19.1133 12.7148 18.457 12.7148 17.3359C12.7148 16.3242 13.3711 15.6953 14.3828 15.4219L12.8516 15.1621C11.8398 15.5176 11.1426 16.4199 11.1426 17.418C11.1426 19.4688 13.2891 20.4668 15.2715 20.4668Z" fill="white" fill-opacity="0.85"/>
 </g>
</svg>
