<svg version="1.1" xmlns="http://www.w3.org/2000/svg" xmlns:xlink="http://www.w3.org/1999/xlink" viewBox="0 0 28.2461 27.9043">
 <g>
  
  <path d="M13.9453 27.8906C21.6426 27.8906 27.8906 21.6289 27.8906 13.9453C27.8906 6.24805 21.6426 0 13.9453 0C6.26172 0 0 6.24805 0 13.9453C0 21.6289 6.26172 27.8906 13.9453 27.8906Z" style="fill:var(--color-0,hsl(0 0 0/0.85))"></path>
  <path d="M13.877 7.47852C15.9141 7.47852 17.9648 8.44922 17.9648 10.5684C17.9648 11.1426 17.7324 11.6621 17.3359 12.0586L18.5527 12.0586C18.8398 12.0586 19.0449 12.25 19.0449 12.5371C19.0449 12.8105 18.8398 13.002 18.5527 13.002L9.31055 13.002C9.05078 13.002 8.8457 12.8105 8.8457 12.5371C8.8457 12.25 9.05078 12.0586 9.31055 12.0586L15.6133 12.0586C16.1602 11.7305 16.3652 11.1426 16.3652 10.6777C16.3652 9.43359 15.1348 8.87305 13.9043 8.87305C12.9062 8.87305 11.9902 9.26953 11.498 10.2402C11.334 10.5684 11.1426 10.7188 10.7734 10.7188C10.3359 10.7188 10.0625 10.4453 10.0625 10.0352C10.0625 9.69336 10.1445 9.43359 10.3496 9.13281C11.252 7.79297 12.7012 7.47852 13.877 7.47852ZM13.9453 20.207C11.8945 20.207 9.67969 19.1953 9.67969 17.0762C9.67969 16.3926 10.0078 15.7363 10.5273 15.2852L9.31055 15.2852C9.05078 15.2852 8.8457 15.0938 8.8457 14.8203C8.8457 14.5332 9.05078 14.3418 9.31055 14.3418L18.5527 14.3418C18.8398 14.3418 19.0449 14.5332 19.0449 14.8203C19.0449 15.0938 18.8398 15.2852 18.5527 15.2852L12.3457 15.2852C11.7031 15.6406 11.3066 16.2148 11.3066 16.9941C11.3066 18.1426 12.5918 18.8125 13.9453 18.8125C15.1621 18.8125 16.1602 18.3613 16.6387 17.2676C16.8027 16.9258 17.0215 16.748 17.3906 16.748C17.8281 16.748 18.1289 17.0215 18.1289 17.4453C18.1289 17.7324 17.9922 18.0879 17.8281 18.3477C17.0898 19.6328 15.5996 20.207 13.9453 20.207Z" style="fill:var(--color-1,white)"></path>
 </g>
</svg>