<?xml version="1.0" encoding="UTF-8"?>
<!--Generator: Apple Native CoreSVG 326-->
<!DOCTYPE svg
PUBLIC "-//W3C//DTD SVG 1.1//EN"
       "http://www.w3.org/Graphics/SVG/1.1/DTD/svg11.dtd">
<svg version="1.1" xmlns="http://www.w3.org/2000/svg" xmlns:xlink="http://www.w3.org/1999/xlink" viewBox="0 0 25.5254 25.1699">
 <g>
  <rect height="25.1699" opacity="0" width="25.5254" x="0" y="0"/>
  <path d="M4.29297 25.1699L20.877 25.1699C23.748 25.1699 25.1699 23.7617 25.1699 20.9453L25.1699 4.23828C25.1699 1.42188 23.748 0 20.877 0L4.29297 0C1.43555 0 0 1.42188 0 4.23828L0 20.9453C0 23.7617 1.43555 25.1699 4.29297 25.1699ZM4.32031 22.9688C2.95312 22.9688 2.20117 22.2441 2.20117 20.8223L2.20117 4.36133C2.20117 2.93945 2.95312 2.20117 4.32031 2.20117L20.8496 2.20117C22.2031 2.20117 22.9688 2.93945 22.9688 4.36133L22.9688 20.8223C22.9688 22.2441 22.2031 22.9688 20.8496 22.9688Z" fill="white" fill-opacity="0.85"/>
  <path d="M12.5234 6.30273C11.3887 6.30273 9.98047 6.61719 9.10547 7.91602C8.91406 8.20312 8.83203 8.46289 8.83203 8.79102C8.83203 9.1875 9.0918 9.44727 9.51562 9.44727C9.87109 9.44727 10.0625 9.29688 10.2266 8.98242C10.6914 8.03906 11.5801 7.65625 12.5508 7.65625C13.7539 7.65625 14.9434 8.20312 14.9434 9.40625C14.9434 9.95312 14.6562 10.6504 13.877 10.8965L15.1758 11.2383C15.9277 10.8828 16.502 10.1719 16.502 9.29688C16.502 7.24609 14.5059 6.30273 12.5234 6.30273ZM7.65625 11.2109C7.65625 11.4707 7.84766 11.6621 8.09375 11.6621L17.0762 11.6621C17.3359 11.6621 17.5273 11.4707 17.5273 11.2109C17.5273 10.9375 17.3359 10.7461 17.0762 10.7461L8.09375 10.7461C7.84766 10.7461 7.65625 10.9375 7.65625 11.2109ZM7.65625 13.4258C7.65625 13.6855 7.84766 13.877 8.09375 13.877L17.0762 13.877C17.3359 13.877 17.5273 13.6855 17.5273 13.4258C17.5273 13.1523 17.3359 12.9609 17.0762 12.9609L8.09375 12.9609C7.84766 12.9609 7.65625 13.1523 7.65625 13.4258ZM12.5918 18.6621C14.1914 18.6621 15.6406 18.0879 16.3516 16.8438C16.5156 16.584 16.6523 16.2422 16.6523 15.9688C16.6523 15.5586 16.3516 15.2988 15.9277 15.2988C15.5723 15.2988 15.3672 15.4629 15.2031 15.791C14.7383 16.8574 13.7676 17.2949 12.5918 17.2949C11.2793 17.2949 10.0352 16.6523 10.0352 15.5312C10.0352 14.5195 10.6914 13.877 11.7031 13.6172L10.1719 13.3574C9.16016 13.7129 8.46289 14.6016 8.46289 15.6133C8.46289 17.6641 10.6094 18.6621 12.5918 18.6621Z" fill="white" fill-opacity="0.85"/>
 </g>
</svg>
