<?xml version="1.0" encoding="UTF-8"?>
<!--Generator: Apple Native CoreSVG 326-->
<!DOCTYPE svg
PUBLIC "-//W3C//DTD SVG 1.1//EN"
       "http://www.w3.org/Graphics/SVG/1.1/DTD/svg11.dtd">
<svg version="1.1" xmlns="http://www.w3.org/2000/svg" xmlns:xlink="http://www.w3.org/1999/xlink" viewBox="0 0 19.7285 24.7871">
 <g>
  <rect height="24.7871" opacity="0" width="19.7285" x="0" y="0"/>
  <path d="M9.57031 0C6.72656 0 4.10156 1.13477 2.78906 3.43164C2.47461 3.91016 2.25586 4.4707 2.25586 5.01758C2.25586 5.63281 2.63867 6.19336 3.45898 6.19336C4.06055 6.19336 4.41602 5.83789 4.68945 5.29102C5.53711 3.30859 7.51953 2.39258 9.63867 2.39258C12.2227 2.39258 14.7656 3.51367 14.7656 6.13867C14.7656 7.13672 14.2871 8.23047 13.3027 8.87305L0.861328 8.87305C0.355469 8.87305 0 9.25586 0 9.77539C0 10.2812 0.355469 10.6641 0.861328 10.6641L18.498 10.6641C19.0176 10.6641 19.373 10.2812 19.373 9.77539C19.373 9.25586 19.0176 8.87305 18.498 8.87305L16.0918 8.87305C16.8848 8.09375 17.3633 7.06836 17.3633 5.96094C17.3633 1.88672 13.4258 0 9.57031 0ZM9.70703 24.7461C12.9883 24.7461 15.8457 23.502 17.2129 20.9316C17.4863 20.5078 17.7598 19.9199 17.7598 19.3047C17.7598 18.5938 17.2812 18.1562 16.5293 18.1562C15.832 18.1562 15.5039 18.5527 15.2715 19.0449C14.3145 21.4102 12.2363 22.3809 9.63867 22.3809C6.53516 22.3809 4.18359 20.8633 4.18359 18.6074C4.18359 17.0625 5.03125 15.8867 6.31641 15.1621L18.498 15.1621C19.0176 15.1621 19.373 14.793 19.373 14.2734C19.373 13.7402 19.0176 13.3711 18.498 13.3711L0.861328 13.3711C0.355469 13.3711 0 13.7402 0 14.2734C0 14.793 0.355469 15.1621 0.861328 15.1621L3.32227 15.1621C2.22852 16.0098 1.55859 17.2812 1.55859 18.7031C1.55859 22.6816 5.57812 24.7461 9.70703 24.7461Z" fill="white" fill-opacity="0.85"/>
 </g>
</svg>
