<svg version="1.1" xmlns="http://www.w3.org/2000/svg" xmlns:xlink="http://www.w3.org/1999/xlink" viewBox="0 0 25.5254 25.1699">
 <g>
  
  <path d="M4.29297 25.1699L20.877 25.1699C23.748 25.1699 25.1699 23.7617 25.1699 20.9453L25.1699 4.23828C25.1699 1.42188 23.748 0 20.877 0L4.29297 0C1.43555 0 0 1.42188 0 4.23828L0 20.9453C0 23.7617 1.43555 25.1699 4.29297 25.1699Z" style="fill:var(--color-0,hsl(0 0 0/0.85))"></path>
  <path d="M12.5234 6.11133C14.5605 6.11133 16.625 7.08203 16.625 9.20117C16.625 9.77539 16.3789 10.2949 15.9824 10.6914L17.2129 10.6914C17.4863 10.6914 17.6914 10.8828 17.6914 11.1699C17.6914 11.4434 17.4863 11.6348 17.2129 11.6348L7.95703 11.6348C7.69727 11.6348 7.49219 11.4434 7.49219 11.1699C7.49219 10.8828 7.69727 10.6914 7.95703 10.6914L14.2598 10.6914C14.8066 10.3633 15.0117 9.77539 15.0117 9.31055C15.0117 8.06641 13.7812 7.50586 12.5508 7.50586C11.5527 7.50586 10.6367 7.90234 10.1582 8.87305C9.98047 9.20117 9.78906 9.35156 9.41992 9.35156C8.98242 9.35156 8.70898 9.07812 8.70898 8.66797C8.70898 8.32617 8.79102 8.06641 8.99609 7.76562C9.89844 6.42578 11.3477 6.11133 12.5234 6.11133ZM12.5918 18.8398C10.541 18.8398 8.32617 17.8281 8.32617 15.709C8.32617 15.0254 8.6543 14.3691 9.17383 13.918L7.95703 13.918C7.69727 13.918 7.49219 13.7266 7.49219 13.4531C7.49219 13.166 7.69727 12.9746 7.95703 12.9746L17.2129 12.9746C17.4863 12.9746 17.6914 13.166 17.6914 13.4531C17.6914 13.7266 17.4863 13.918 17.2129 13.918L10.9922 13.918C10.3496 14.2734 9.95312 14.8477 9.95312 15.627C9.95312 16.7754 11.2383 17.4453 12.5918 17.4453C13.8086 17.4453 14.8066 16.9941 15.2852 15.9004C15.4492 15.5586 15.668 15.3809 16.0371 15.3809C16.4746 15.3809 16.7754 15.6543 16.7754 16.0781C16.7754 16.3652 16.6387 16.7207 16.4746 16.9805C15.7363 18.2656 14.2461 18.8398 12.5918 18.8398Z" style="fill:var(--color-1,white)"></path>
 </g>
</svg>