<?xml version="1.0" encoding="UTF-8"?>
<!--Generator: Apple Native CoreSVG 326-->
<!DOCTYPE svg
PUBLIC "-//W3C//DTD SVG 1.1//EN"
       "http://www.w3.org/Graphics/SVG/1.1/DTD/svg11.dtd">
<svg version="1.1" xmlns="http://www.w3.org/2000/svg" xmlns:xlink="http://www.w3.org/1999/xlink" viewBox="0 0 30.8848 29.1895">
 <g>
  <rect height="29.1895" opacity="0" width="30.8848" x="0" y="0"/>
  <path d="M1.81836 27.5898L28.7109 27.5898L28.7109 25.9766C28.7109 25.4297 28.3965 25.1016 27.8359 25.1016L26.9609 25.1016L26.9609 9.37891L28.1641 9.37891C28.916 9.37891 29.3535 8.83203 29.3535 8.27148C29.3535 7.86133 29.1211 7.50586 28.6152 7.21875L16.9395 0.478516C16.3926 0.164062 15.8184 0 15.2578 0C14.6973 0 14.1094 0.164062 13.5898 0.478516L1.91406 7.21875C1.39453 7.50586 1.17578 7.86133 1.17578 8.27148C1.17578 8.83203 1.61328 9.37891 2.36523 9.37891L3.56836 9.37891L3.56836 25.1016L2.70703 25.1016C2.14648 25.1016 1.81836 25.4297 1.81836 25.9766ZM1.09375 29.1758L29.4219 29.1758C30.0234 29.1758 30.5293 28.6699 30.5293 28.0684C30.5293 27.4668 30.0234 26.9746 29.4219 26.9746L1.09375 26.9746C0.492188 26.9746 0 27.4668 0 28.0684C0 28.6699 0.492188 29.1758 1.09375 29.1758Z" fill="white" fill-opacity="0.85"/>
  <path d="M15.2031 9.14648C17.2402 9.14648 19.291 10.1172 19.291 12.2363C19.291 12.8105 19.0586 13.3301 18.6621 13.7266L19.8789 13.7266C20.166 13.7266 20.3574 13.9043 20.3574 14.2051C20.3574 14.4785 20.166 14.6699 19.8789 14.6699L10.6367 14.6699C10.377 14.6699 10.1719 14.4785 10.1719 14.2051C10.1719 13.9043 10.377 13.7266 10.6367 13.7266L16.9395 13.7266C17.4863 13.3984 17.6914 12.8105 17.6914 12.3457C17.6914 11.1016 16.4609 10.541 15.2305 10.541C14.2324 10.541 13.3164 10.9375 12.8242 11.9082C12.6602 12.2363 12.4688 12.3867 12.0996 12.3867C11.6621 12.3867 11.3887 12.1133 11.3887 11.7031C11.3887 11.3613 11.4707 11.0879 11.6758 10.8008C12.5781 9.44727 14.0273 9.14648 15.2031 9.14648ZM15.2715 21.875C13.2207 21.875 11.0059 20.8633 11.0059 18.7305C11.0059 18.0469 11.334 17.4043 11.8535 16.9531L10.6367 16.9531C10.377 16.9531 10.1719 16.7617 10.1719 16.4883C10.1719 16.1875 10.377 15.9961 10.6367 15.9961L19.8789 15.9961C20.166 15.9961 20.3574 16.1875 20.3574 16.4883C20.3574 16.7617 20.166 16.9531 19.8789 16.9531L13.6719 16.9531C13.0293 17.3086 12.6328 17.8828 12.6328 18.6621C12.6328 19.8105 13.918 20.4805 15.2578 20.4805C16.4883 20.4805 17.4727 20.0293 17.9648 18.9355C18.1289 18.5938 18.3477 18.416 18.7168 18.416C19.1543 18.416 19.4551 18.6895 19.4551 19.0996C19.4551 19.4004 19.3184 19.7422 19.1543 20.0156C18.416 21.2871 16.9121 21.875 15.2715 21.875Z" fill="white"/>
 </g>
</svg>
