<svg version="1.1" xmlns="http://www.w3.org/2000/svg" xmlns:xlink="http://www.w3.org/1999/xlink" viewBox="0 0 30.9258 30.584">
 <g>
  
  <path d="M15.2852 30.5703C23.6797 30.5703 30.5703 23.6797 30.5703 15.2852C30.5703 6.89062 23.6797 0 15.2852 0C6.89062 0 0 6.89062 0 15.2852C0 23.6797 6.89062 30.5703 15.2852 30.5703ZM15.2852 25.4844C9.65234 25.4844 5.08594 20.918 5.08594 15.2852C5.08594 9.63867 9.65234 5.08594 15.2852 5.08594C20.9316 5.08594 25.4844 9.63867 25.4844 15.2852C25.4844 20.918 20.9316 25.4844 15.2852 25.4844Z" style="fill:var(--color-0,hsl(0 0 0/0.85))"></path>
  <path d="M15.2168 9.00977C14.082 9.00977 12.6738 9.32422 11.7988 10.623C11.6074 10.9102 11.5254 11.1699 11.5254 11.498C11.5254 11.8945 11.7852 12.1543 12.209 12.1543C12.5645 12.1543 12.7559 12.0039 12.9199 11.6895C13.3848 10.7461 14.2734 10.3633 15.2441 10.3633C16.4473 10.3633 17.6367 10.9102 17.6367 12.1133C17.6367 12.6602 17.3496 13.3574 16.5703 13.6035L17.8691 13.9453C18.6211 13.5898 19.1953 12.8789 19.1953 12.0039C19.1953 9.95312 17.1992 9.00977 15.2168 9.00977ZM10.3496 13.918C10.3496 14.1777 10.541 14.3691 10.7871 14.3691L19.7695 14.3691C20.0293 14.3691 20.2207 14.1777 20.2207 13.918C20.2207 13.6445 20.0293 13.4531 19.7695 13.4531L10.7871 13.4531C10.541 13.4531 10.3496 13.6445 10.3496 13.918ZM10.3496 16.1328C10.3496 16.3926 10.541 16.584 10.7871 16.584L19.7695 16.584C20.0293 16.584 20.2207 16.3926 20.2207 16.1328C20.2207 15.8594 20.0293 15.668 19.7695 15.668L10.7871 15.668C10.541 15.668 10.3496 15.8594 10.3496 16.1328ZM15.2852 21.3691C16.8848 21.3691 18.334 20.7949 19.0449 19.5508C19.209 19.291 19.3457 18.9492 19.3457 18.6758C19.3457 18.2656 19.0449 18.0059 18.6211 18.0059C18.2656 18.0059 18.0605 18.1699 17.8965 18.498C17.4316 19.5645 16.4609 20.002 15.2852 20.002C13.9727 20.002 12.7285 19.3594 12.7285 18.2383C12.7285 17.2266 13.3848 16.584 14.3965 16.3242L12.8652 16.0645C11.8535 16.4199 11.1562 17.3086 11.1562 18.3203C11.1562 20.3711 13.3027 21.3691 15.2852 21.3691Z" style="fill:var(--color-1,hsl(0 0 0/0.85))"></path>
 </g>
</svg>