<?xml version="1.0" encoding="UTF-8"?>
<!--Generator: Apple Native CoreSVG 326-->
<!DOCTYPE svg
PUBLIC "-//W3C//DTD SVG 1.1//EN"
       "http://www.w3.org/Graphics/SVG/1.1/DTD/svg11.dtd">
<svg version="1.1" xmlns="http://www.w3.org/2000/svg" xmlns:xlink="http://www.w3.org/1999/xlink" viewBox="0 0 33.291 27.4395">
 <g>
  <rect height="27.4395" opacity="0" width="33.291" x="0" y="0"/>
  <path d="M32.9355 16.4609C32.9355 12.4414 31.4863 8.73633 29.0664 5.86523C28.793 5.53711 28.3281 5.53711 28.0273 5.85156L24.8555 9.02344C24.5957 9.2832 24.582 9.65234 24.8145 9.93945C26.2227 11.7441 27.0703 14.0137 27.0703 16.4609C27.0703 18.9219 26.2227 21.1914 24.7324 23.0918C24.541 23.3242 24.5547 23.625 24.7598 23.8438L28.0137 27.0977C28.3281 27.4121 28.7793 27.4121 29.0664 27.0703C31.4863 24.1992 32.9355 20.4941 32.9355 16.4609Z" fill="white" fill-opacity="0.85"/>
  <path d="M16.4609 5.86523C18.9355 5.86523 21.2051 6.72656 23.0234 8.13477C23.2969 8.35352 23.6523 8.32617 23.9121 8.06641L27.084 4.89453C27.3984 4.58008 27.3848 4.12891 27.0566 3.85547C24.1992 1.44922 20.4941 0 16.4609 0C12.4414 0 8.73633 1.44922 5.87891 3.85547C5.55078 4.12891 5.53711 4.58008 5.85156 4.89453L9.02344 8.06641C9.2832 8.32617 9.65234 8.35352 9.95312 8.12109C11.7578 6.72656 14.0137 5.86523 16.4609 5.86523Z" fill="white" fill-opacity="0.85"/>
  <path d="M0 16.4609C0 20.4941 1.44922 24.1992 3.86914 27.0703C4.14258 27.4121 4.60742 27.4121 4.9082 27.0977L8.16211 23.8438C8.36719 23.625 8.39453 23.3242 8.20312 23.0918C6.71289 21.1914 5.86523 18.9219 5.86523 16.4609C5.86523 14.0137 6.69922 11.7441 8.12109 9.93945C8.33984 9.65234 8.33984 9.2832 8.08008 9.02344L4.9082 5.85156C4.59375 5.53711 4.14258 5.53711 3.86914 5.86523C1.44922 8.73633 0 12.4414 0 16.4609Z" fill="white" fill-opacity="0.85"/>
  <path d="M16.3789 10.3633C15.2578 10.3633 13.8359 10.6777 12.9609 11.9766C12.7695 12.2637 12.6875 12.5234 12.6875 12.8516C12.6875 13.248 12.9473 13.5215 13.3848 13.5215C13.7266 13.5215 13.918 13.3574 14.082 13.0566C14.5469 12.1133 15.4355 11.7168 16.4199 11.7168C17.6094 11.7168 18.7988 12.2773 18.7988 13.4668C18.7988 14.0137 18.5117 14.7246 17.7324 14.957L19.0312 15.2988C19.7969 14.9434 20.3574 14.2324 20.3574 13.3711C20.3574 11.3203 18.3613 10.3633 16.3789 10.3633ZM11.5117 15.2715C11.5117 15.5449 11.7031 15.7227 11.9629 15.7227L20.9316 15.7227C21.1914 15.7227 21.3828 15.5449 21.3828 15.2715C21.3828 14.998 21.1914 14.8066 20.9316 14.8066L11.9629 14.8066C11.7031 14.8066 11.5117 14.998 11.5117 15.2715ZM11.5117 17.4863C11.5117 17.7461 11.7031 17.9375 11.9629 17.9375L20.9316 17.9375C21.1914 17.9375 21.3828 17.7461 21.3828 17.4863C21.3828 17.2129 21.1914 17.0215 20.9316 17.0215L11.9629 17.0215C11.7031 17.0215 11.5117 17.2129 11.5117 17.4863ZM16.4473 22.7227C18.0469 22.7227 19.4961 22.1484 20.2207 20.918C20.3711 20.6445 20.5078 20.3027 20.5078 20.0293C20.5078 19.6328 20.207 19.373 19.7832 19.373C19.4277 19.373 19.2227 19.5371 19.0723 19.8652C18.5938 20.918 17.623 21.3691 16.4473 21.3691C15.1348 21.3691 13.8906 20.7129 13.8906 19.5918C13.8906 18.5801 14.5469 17.9512 15.5586 17.6777L14.0273 17.418C13.0156 17.7734 12.3184 18.6758 12.3184 19.6738C12.3184 21.7246 14.4648 22.7227 16.4473 22.7227Z" fill="white" fill-opacity="0.85"/>
 </g>
</svg>
