<svg version="1.1" xmlns="http://www.w3.org/2000/svg" xmlns:xlink="http://www.w3.org/1999/xlink" viewBox="0 0 35.1641 29.5176">
 <g>
  
  <path d="M19.6055 21.8612C16.4101 23.3886 13.5649 25.7715 9.43359 25.7715C7.68359 25.7715 6.08398 25.3477 4.53906 24.4453C3.78711 24.0215 3.75977 23.2695 4.08789 22.7773C4.36133 22.3535 4.92188 22.1348 5.49609 22.4629C6.89062 23.2695 8.08008 23.5703 9.43359 23.5703C13.5358 23.5703 16.3824 20.8426 20.0114 19.3569C19.7676 20.1488 19.6055 20.9929 19.6055 21.8612Z" style="fill:var(--color-0,hsl(0 0 0/0.85))"></path>
  <path d="M22.8659 13.439C18.1198 14.2826 14.9063 18.4434 9.44727 18.4434C7.69727 18.4434 6.09766 18.0059 4.55273 17.1172C3.80078 16.6797 3.77344 15.9414 4.10156 15.4492C4.375 15.0254 4.93555 14.8066 5.50977 15.1348C6.9043 15.9277 8.09375 16.2422 9.44727 16.2422C14.9565 16.2422 18.2011 11.3224 24.1159 11.0968Z" style="fill:var(--color-1,hsl(0 0 0/0.85))"></path>
  <path d="M29.4355 5.05859C30.2012 5.50977 30.2285 6.24805 29.8867 6.74023C29.5996 7.15039 29.0527 7.36914 28.4785 7.04102C27.084 6.24805 25.8809 5.94727 24.541 5.94727C18.8125 5.94727 15.5176 11.1016 9.43359 11.1016C7.68359 11.1016 6.08398 10.6777 4.53906 9.78906C3.78711 9.35156 3.75977 8.61328 4.08789 8.12109C4.36133 7.69727 4.92188 7.47852 5.49609 7.80664C6.89062 8.59961 8.08008 8.90039 9.43359 8.90039C15.0801 8.90039 18.3477 3.74609 24.541 3.74609C26.291 3.74609 27.8906 4.16992 29.4355 5.05859Z" style="fill:var(--color-2,hsl(0 0 0/0.85))"></path>
  <path d="M27.3848 27.6445C30.6797 27.6445 33.3047 25.0742 33.3047 21.8613C33.3047 20.084 32.416 18.3477 31.6641 16.9395L28.6152 11.2656C28.2871 10.6504 27.9863 10.3906 27.3848 10.3906C26.7695 10.3906 26.4824 10.6504 26.1543 11.2656L23.1191 16.9395C22.3672 18.3477 21.4785 20.084 21.4785 21.8613C21.4785 25.0742 24.1035 27.6445 27.3848 27.6445Z" style="fill:var(--color-3,hsl(0 0 0/0.85))"></path>
 </g>
</svg>