<svg version="1.1" xmlns="http://www.w3.org/2000/svg" xmlns:xlink="http://www.w3.org/1999/xlink" viewBox="0 0 22.3945 31.4863">
 <g>
  
  <path d="M3.56836 3.33594C4.10156 3.33594 4.53906 2.89844 4.53906 2.36523C4.53906 1.83203 4.10156 1.39453 3.56836 1.39453C3.03516 1.39453 2.59766 1.83203 2.59766 2.36523C2.59766 2.89844 3.03516 3.33594 3.56836 3.33594ZM11.0742 1.95508C11.6074 1.95508 12.0449 1.51758 12.0449 0.984375C12.0449 0.4375 11.6074 0 11.0742 0C10.541 0 10.1035 0.4375 10.1035 0.984375C10.1035 1.51758 10.541 1.95508 11.0742 1.95508ZM18.5801 3.33594C19.1133 3.33594 19.5508 2.89844 19.5508 2.36523C19.5508 1.83203 19.1133 1.39453 18.5801 1.39453C18.0469 1.39453 17.6094 1.83203 17.6094 2.36523C17.6094 2.89844 18.0469 3.33594 18.5801 3.33594Z" style="fill:var(--color-0,hsl(0 0 0/0.85))"></path>
  <path d="M6.08398 6.53516C6.61719 6.53516 7.05469 6.09766 7.05469 5.56445C7.05469 5.03125 6.61719 4.59375 6.08398 4.59375C5.53711 4.59375 5.09961 5.03125 5.09961 5.56445C5.09961 6.09766 5.53711 6.53516 6.08398 6.53516ZM11.0742 6.0293C11.6074 6.0293 12.0449 5.5918 12.0449 5.05859C12.0449 4.52539 11.6074 4.08789 11.0742 4.08789C10.541 4.08789 10.1035 4.52539 10.1035 5.05859C10.1035 5.5918 10.541 6.0293 11.0742 6.0293ZM16.0781 6.53516C16.6113 6.53516 17.0488 6.09766 17.0488 5.56445C17.0488 5.03125 16.6113 4.59375 16.0781 4.59375C15.5312 4.59375 15.1074 5.03125 15.1074 5.56445C15.1074 6.09766 15.5312 6.53516 16.0781 6.53516Z" style="fill:var(--color-1,hsl(0 0 0/0.85))"></path>
  <path d="M4.12891 14L17.9102 14C17.0215 12.6738 16.0645 11.3477 15.0527 9.99414C14.3145 9.02344 13.8359 8.47656 12.4961 8.47656L9.54297 8.47656C8.2168 8.47656 7.73828 9.02344 6.98633 9.99414C5.97461 11.3477 5.01758 12.6738 4.12891 14ZM0.0957031 22.5312L8.05273 22.5312C8.47656 21.3008 9.625 20.4395 11.0332 20.4395C12.4141 20.4395 13.5625 21.3008 14 22.5312L21.9434 22.5312C21.6289 20.6582 20.6719 18.4707 19.3047 16.1602L2.74805 16.1602C1.36719 18.4707 0.410156 20.6582 0.0957031 22.5312ZM11.0332 24.9238C11.7852 24.9238 12.3457 24.3633 12.3457 23.5977C12.3457 22.8457 11.7852 22.2852 11.0332 22.2852C10.2539 22.2852 9.70703 22.8457 9.70703 23.5977C9.70703 24.3633 10.2539 24.9238 11.0332 24.9238ZM8.05273 31.459L13.9863 31.459C19.0039 31.459 21.7109 28.957 22.0391 24.6914L13.9863 24.6914C13.5488 25.9082 12.4004 26.7695 11.0332 26.7695C9.625 26.7695 8.49023 25.9082 8.06641 24.6914L0 24.6914C0.328125 28.957 3.03516 31.459 8.05273 31.459Z" style="fill:var(--color-2,hsl(0 0 0/0.85))"></path>
 </g>
</svg>