<svg version="1.1" xmlns="http://www.w3.org/2000/svg" xmlns:xlink="http://www.w3.org/1999/xlink" viewBox="0 0 25.5801 26.6191">
 <g>
  
  <path d="M9.29688 26.5918L15.9141 26.5918C22.0938 26.5918 25.2246 23.3379 25.2246 17.7871C25.2246 13.4395 21.6426 7.62891 17.2129 1.72266C16.3379 0.574219 15.8184 0 14.3418 0L10.8828 0C9.40625 0 8.88672 0.574219 8.01172 1.72266C3.58203 7.62891 0 13.4395 0 17.7871C0 23.3379 3.13086 26.5918 9.29688 26.5918ZM2.20117 17.7871C2.20117 14.2051 5.08594 9.32422 9.81641 2.84375C10.1445 2.40625 10.3906 2.20117 10.9238 2.20117L14.3008 2.20117C14.834 2.20117 15.0664 2.40625 15.3945 2.84375C20.1387 9.32422 23.0234 14.2051 23.0234 17.7871C23.0234 21.9434 20.6855 24.3906 15.9141 24.3906L9.29688 24.3906C4.52539 24.3906 2.20117 21.9434 2.20117 17.7871ZM5.71484 6.64453L5.30469 8.8457L19.9199 8.8457L19.5098 6.64453ZM1.75 18.6758L9.87109 18.6758L9.87109 16.4746L1.75 16.4746ZM12.6191 21.0957C14.6016 21.0957 16.1465 19.5508 16.1465 17.5547C16.1465 15.5859 14.6016 14.0273 12.6191 14.0273C10.6367 14.0273 9.07812 15.5859 9.07812 17.5547C9.07812 19.5508 10.6367 21.0957 12.6191 21.0957ZM12.6191 19.168C11.7168 19.168 11.0059 18.4707 11.0059 17.5547C11.0059 16.666 11.7168 15.9551 12.6191 15.9551C13.5215 15.9551 14.2188 16.666 14.2188 17.5547C14.2188 18.4707 13.5215 19.168 12.6191 19.168ZM15.3535 18.6758L23.543 18.6758L23.543 16.4746L15.3535 16.4746Z" style="fill:var(--color-0,hsl(0 0 0/0.85))"></path>
 </g>
</svg>