<?xml version="1.0" encoding="UTF-8"?>
<!--Generator: Apple Native CoreSVG 326-->
<!DOCTYPE svg
PUBLIC "-//W3C//DTD SVG 1.1//EN"
       "http://www.w3.org/Graphics/SVG/1.1/DTD/svg11.dtd">
<svg version="1.1" xmlns="http://www.w3.org/2000/svg" xmlns:xlink="http://www.w3.org/1999/xlink" viewBox="0 0 28.2461 27.9043">
 <g>
  <rect height="27.9043" opacity="0" width="28.2461" x="0" y="0"/>
  <path d="M13.9453 27.8906C21.6426 27.8906 27.8906 21.6289 27.8906 13.9453C27.8906 6.24805 21.6426 0 13.9453 0C6.26172 0 0 6.24805 0 13.9453C0 21.6289 6.26172 27.8906 13.9453 27.8906Z" fill="white" fill-opacity="0.85"/>
  <path d="M13.9316 20.4121C13.1934 20.4121 12.8105 19.8789 12.8105 19.127L12.8105 8.50391C12.8105 7.75195 13.1934 7.21875 13.9316 7.21875C14.6699 7.21875 15.0801 7.71094 15.0801 8.50391L15.0801 19.127C15.0801 19.9199 14.6699 20.4121 13.9316 20.4121Z" fill="white"/>
 </g>
</svg>
