<svg version="1.1" xmlns="http://www.w3.org/2000/svg" xmlns:xlink="http://www.w3.org/1999/xlink" viewBox="0 0 28.2461 27.9043">
 <g>
  
  <path d="M13.9453 27.8906C21.6426 27.8906 27.8906 21.6426 27.8906 13.9453C27.8906 6.24805 21.6426 0 13.9453 0C6.24805 0 0 6.24805 0 13.9453C0 21.6426 6.24805 27.8906 13.9453 27.8906ZM13.9453 25.5664C7.51953 25.5664 2.32422 20.3711 2.32422 13.9453C2.32422 7.51953 7.51953 2.32422 13.9453 2.32422C20.3711 2.32422 25.5664 7.51953 25.5664 13.9453C25.5664 20.3711 20.3711 25.5664 13.9453 25.5664Z" style="fill:var(--color-0,hsl(0 0 0/0.85))"></path>
  <path d="M13.918 20.207C14.6289 20.207 15.0254 19.7285 15.0254 18.9766L15.0254 8.6543C15.0254 7.90234 14.6289 7.42383 13.918 7.42383C13.207 7.42383 12.8379 7.92969 12.8379 8.6543L12.8379 18.9766C12.8379 19.7012 13.207 20.207 13.918 20.207Z" style="fill:var(--color-1,hsl(0 0 0/0.85))"></path>
 </g>
</svg>