<svg version="1.1" xmlns="http://www.w3.org/2000/svg" xmlns:xlink="http://www.w3.org/1999/xlink" viewBox="0 0 34.7266 37.8574">
 <g>
  
  <path d="M30.0508 15.2441C32.7168 16.3242 34.3711 18.5938 34.3711 21.3555C34.3711 24.6641 31.8555 27.1934 27.6582 27.1934L20.9043 27.1934L20.9043 24.9922L27.6445 24.9922C30.6387 24.9922 32.1699 23.4609 32.1699 21.3555C32.1699 18.9902 30.5703 17.4316 28.082 16.8848C27.918 16.8574 27.8496 16.748 27.8633 16.5703C27.918 15.9277 27.959 15.1895 27.918 14.5742C27.6855 10.5 24.582 6.94531 20.0977 6.94531C16.5566 6.94531 14.5195 8.90039 13.1934 11.2656C13.1113 11.416 13.0156 11.4434 12.8516 11.3887C10.0352 10.5684 7.01367 11.7305 7.01367 15.9277C7.01367 16.1055 6.94531 16.2148 6.75391 16.2148C3.85547 16.2148 2.20117 18.1562 2.20117 20.7676C2.20117 23.1191 3.89648 24.9922 7.13672 24.9922L13.5898 24.9922L13.5898 27.1934L7.15039 27.1934C2.66602 27.1934 0 24.3223 0 20.7676C0 17.541 1.92773 15.0117 5.01758 14.5332C5.08594 10.6914 9.00977 8.28516 12.1133 9.11914C13.7539 6.72656 16.3926 4.74414 20.0977 4.74414C25.6895 4.74414 30.0781 9.14648 30.0508 15.2441Z" style="fill:var(--color-0,hsl(0 0 0/0.85))"></path>
  <path d="M17.2539 17.4727C16.666 17.4727 16.1602 17.9648 16.1602 18.5391L16.1602 30.2695L16.2422 32.3203L15.4766 31.5L13.3574 29.3809C13.1523 29.1758 12.8789 29.0664 12.6055 29.0664C12.0312 29.0664 11.6211 29.4629 11.6211 30.0234C11.6211 30.3105 11.7305 30.543 11.9492 30.7344L16.4609 34.9453C16.748 35.2051 16.9668 35.3145 17.2539 35.3145C17.5273 35.3145 17.7461 35.2051 18.0332 34.9453L22.5449 30.7344C22.7637 30.543 22.873 30.3105 22.873 30.0234C22.873 29.4629 22.4355 29.0664 21.875 29.0664C21.6016 29.0664 21.3418 29.1758 21.123 29.3809L19.0176 31.5L18.252 32.3066L18.334 30.2695L18.334 18.5391C18.334 17.9648 17.8418 17.4727 17.2539 17.4727Z" style="fill:var(--color-1,hsl(0 0 0/0.85))"></path>
 </g>
</svg>