<?xml version="1.0" encoding="UTF-8"?>
<!--Generator: Apple Native CoreSVG 326-->
<!DOCTYPE svg
PUBLIC "-//W3C//DTD SVG 1.1//EN"
       "http://www.w3.org/Graphics/SVG/1.1/DTD/svg11.dtd">
<svg version="1.1" xmlns="http://www.w3.org/2000/svg" xmlns:xlink="http://www.w3.org/1999/xlink" viewBox="0 0 25.5254 25.1699">
 <g>
  <rect height="25.1699" opacity="0" width="25.5254" x="0" y="0"/>
  <path d="M4.29297 25.1699L20.877 25.1699C23.748 25.1699 25.1699 23.7617 25.1699 20.9453L25.1699 4.23828C25.1699 1.42188 23.748 0 20.877 0L4.29297 0C1.43555 0 0 1.42188 0 4.23828L0 20.9453C0 23.7617 1.43555 25.1699 4.29297 25.1699ZM4.32031 22.9688C2.95312 22.9688 2.20117 22.2441 2.20117 20.8223L2.20117 4.36133C2.20117 2.93945 2.95312 2.20117 4.32031 2.20117L20.8496 2.20117C22.2031 2.20117 22.9688 2.93945 22.9688 4.36133L22.9688 20.8223C22.9688 22.2441 22.2031 22.9688 20.8496 22.9688Z" fill="#5ac8f5"/>
  <path d="M7.71094 17.5957L18.1016 17.5957C19.7285 17.5957 21 16.2969 21 14.7109C21 13.3438 20.084 12.209 18.8672 11.9082C18.8809 11.7715 18.8945 11.6348 18.8945 11.5117C18.8945 8.73633 16.6797 6.48047 13.8359 6.48047C12.168 6.48047 10.6914 7.27344 9.77539 8.53125C9.59766 8.49023 9.39258 8.46289 9.22852 8.46289C7.82031 8.46289 6.63086 9.48828 6.42578 10.8965C5.1543 11.4023 4.21094 12.6465 4.21094 14.1367C4.21094 16.3926 5.72852 17.5957 7.71094 17.5957Z" fill="#5ac8f5"/>
 </g>
</svg>
