<?xml version="1.0" encoding="UTF-8"?>
<!--Generator: Apple Native CoreSVG 326-->
<!DOCTYPE svg
PUBLIC "-//W3C//DTD SVG 1.1//EN"
       "http://www.w3.org/Graphics/SVG/1.1/DTD/svg11.dtd">
<svg version="1.1" xmlns="http://www.w3.org/2000/svg" xmlns:xlink="http://www.w3.org/1999/xlink" viewBox="0 0 34.7266 32.7715">
 <g>
  <rect height="32.7715" opacity="0" width="34.7266" x="0" y="0"/>
  <path d="M0 18.2246C0 21.7793 2.66602 24.6504 7.15039 24.6504L27.6582 24.6504C31.8555 24.6504 34.3711 22.1211 34.3711 18.8125C34.3711 16.0508 32.7168 13.7812 30.0508 12.7012C30.0781 6.60352 25.6895 2.20117 20.0977 2.20117C16.3926 2.20117 13.7539 4.18359 12.1133 6.57617C9.00977 5.74219 5.08594 8.14844 5.01758 11.9902C1.92773 12.4688 0 14.998 0 18.2246ZM17.2539 32.7715C16.9668 32.7715 16.748 32.6621 16.4609 32.4023L11.8398 28.082C11.6074 27.8906 11.5117 27.6582 11.5117 27.3574C11.5117 26.8105 11.9219 26.4004 12.4961 26.4004C12.7559 26.4004 13.043 26.5234 13.248 26.7285L15.3262 28.8066L16.2422 29.7773L16.1602 27.7266L16.1602 15.9961C16.1602 15.4219 16.666 14.9297 17.2539 14.9297C17.8418 14.9297 18.334 15.4219 18.334 15.9961L18.334 27.7266L18.252 29.7637L19.168 28.8066L21.2461 26.7285C21.4512 26.5234 21.7246 26.4004 21.9844 26.4004C22.5449 26.4004 22.9824 26.8105 22.9824 27.3574C22.9824 27.6582 22.873 27.8906 22.6543 28.082L18.0332 32.4023C17.7461 32.6621 17.5273 32.7715 17.2539 32.7715Z" fill="white" fill-opacity="0.85"/>
 </g>
</svg>
