<svg version="1.1" xmlns="http://www.w3.org/2000/svg" xmlns:xlink="http://www.w3.org/1999/xlink" viewBox="0 0 34.7266 35.6973">
 <g>
  
  <path d="M30.0508 14.1641C32.7168 15.2441 34.3711 17.5137 34.3711 20.2754C34.3711 23.584 31.8555 26.1133 27.6582 26.1133L20.9043 26.1133L20.9043 23.9121L27.6445 23.9121C30.6387 23.9121 32.1699 22.3809 32.1699 20.2754C32.1699 17.9102 30.5703 16.3516 28.082 15.8047C27.918 15.7773 27.8496 15.668 27.8633 15.4902C27.918 14.8477 27.959 14.1094 27.918 13.4941C27.6855 9.41992 24.582 5.86523 20.0977 5.86523C16.5566 5.86523 14.5195 7.82031 13.1934 10.1855C13.1113 10.3359 13.0156 10.3633 12.8516 10.3086C10.0352 9.48828 7.01367 10.6504 7.01367 14.8477C7.01367 15.0254 6.94531 15.1348 6.75391 15.1348C3.85547 15.1348 2.20117 17.0762 2.20117 19.6875C2.20117 22.0391 3.89648 23.9121 7.13672 23.9121L13.5898 23.9121L13.5898 26.1133L7.15039 26.1133C2.66602 26.1133 0 23.2422 0 19.6875C0 16.4609 1.92773 13.9316 5.01758 13.4531C5.08594 9.61133 9.00977 7.20508 12.1133 8.03906C13.7539 5.64648 16.3926 3.66406 20.0977 3.66406C25.6895 3.66406 30.0781 8.06641 30.0508 14.1641Z" style="fill:var(--color-0,hsl(0 0 0/0.85))"></path>
  <path d="M17.2539 33.1133C17.8418 33.1133 18.334 32.6348 18.334 32.0605L18.334 18.7441L18.252 16.707L19.0176 17.5137L21.123 19.7695C21.3281 19.9883 21.6016 20.0977 21.875 20.0977C22.4355 20.0977 22.873 19.6875 22.873 19.1406C22.873 18.8398 22.75 18.6211 22.5449 18.416L18.0332 14.0684C17.7598 13.7949 17.5273 13.7129 17.2539 13.7129C16.9668 13.7129 16.7344 13.7949 16.4609 14.0684L11.9492 18.416C11.7441 18.6211 11.6211 18.8398 11.6211 19.1406C11.6211 19.6875 12.0312 20.0977 12.6055 20.0977C12.8789 20.0977 13.166 19.9883 13.3574 19.7695L15.4766 17.5137L16.2422 16.707L16.1602 18.7441L16.1602 32.0605C16.1602 32.6348 16.666 33.1133 17.2539 33.1133Z" style="fill:var(--color-1,hsl(0 0 0/0.85))"></path>
 </g>
</svg>