<svg version="1.1" xmlns="http://www.w3.org/2000/svg" xmlns:xlink="http://www.w3.org/1999/xlink" viewBox="0 0 28.2461 27.9043">
 <g>
  
  <path d="M13.9453 27.9043C21.6426 27.9043 27.8906 21.6562 27.8906 13.959C27.8906 6.27539 21.6426 0.0136719 13.9453 0.0136719C6.26172 0.0136719 0 6.27539 0 13.959C0 21.6562 6.26172 27.9043 13.9453 27.9043Z" style="fill:var(--color-0,#55bef0)"></path>
  <path d="M8.91406 19.1543C6.86328 19.1543 5.30469 17.9238 5.30469 15.5996C5.30469 14.041 6.27539 12.7832 7.58789 12.2363C7.79297 10.8008 9.02344 9.74805 10.4863 9.74805C10.6504 9.74805 10.8555 9.76172 11.0469 9.80273C11.9902 8.51758 13.5078 7.68359 15.2305 7.68359C18.1562 7.68359 20.4258 10.0215 20.4258 12.8789C20.4258 13.002 20.4258 13.1523 20.4121 13.3027C21.6699 13.6035 22.6133 14.7656 22.6133 16.1738C22.6133 17.8281 21.3008 19.1543 19.6191 19.1543Z" style="fill:var(--color-1,white)"></path>
 </g>
</svg>