<?xml version="1.0" encoding="UTF-8"?>
<!--Generator: Apple Native CoreSVG 326-->
<!DOCTYPE svg
PUBLIC "-//W3C//DTD SVG 1.1//EN"
       "http://www.w3.org/Graphics/SVG/1.1/DTD/svg11.dtd">
<svg version="1.1" xmlns="http://www.w3.org/2000/svg" xmlns:xlink="http://www.w3.org/1999/xlink" viewBox="0 0 28.2461 27.9043">
 <g>
  <rect height="27.9043" opacity="0" width="28.2461" x="0" y="0"/>
  <path d="M13.9453 27.8906C21.6426 27.8906 27.8906 21.6426 27.8906 13.9453C27.8906 6.24805 21.6426 0 13.9453 0C6.24805 0 0 6.24805 0 13.9453C0 21.6426 6.24805 27.8906 13.9453 27.8906ZM13.9453 25.5664C7.51953 25.5664 2.32422 20.3711 2.32422 13.9453C2.32422 7.51953 7.51953 2.32422 13.9453 2.32422C20.3711 2.32422 25.5664 7.51953 25.5664 13.9453C25.5664 20.3711 20.3711 25.5664 13.9453 25.5664Z" fill="#5ac8f5"/>
  <path d="M9.05078 18.9629L19.4414 18.9629C21.0684 18.9629 22.3398 17.6641 22.3398 16.0781C22.3398 14.7109 21.4238 13.5762 20.207 13.2754C20.2207 13.1387 20.2207 13.002 20.2207 12.8789C20.2207 10.1035 18.0195 7.84766 15.1758 7.84766C13.5078 7.84766 12.0312 8.64062 11.1152 9.89844C10.9375 9.85742 10.7324 9.83008 10.5684 9.83008C9.16016 9.83008 7.9707 10.8555 7.76562 12.2637C6.49414 12.7695 5.55078 14.0137 5.55078 15.5039C5.55078 17.7598 7.06836 18.9629 9.05078 18.9629Z" fill="#5ac8f5"/>
 </g>
</svg>
