<?xml version="1.0" encoding="UTF-8"?>
<!--Generator: Apple Native CoreSVG 326-->
<!DOCTYPE svg
PUBLIC "-//W3C//DTD SVG 1.1//EN"
       "http://www.w3.org/Graphics/SVG/1.1/DTD/svg11.dtd">
<svg version="1.1" xmlns="http://www.w3.org/2000/svg" xmlns:xlink="http://www.w3.org/1999/xlink" viewBox="0 0 33.291 27.3099">
 <g>
  <rect height="27.3099" opacity="0" width="33.291" x="0" y="0"/>
  <path d="M32.9355 16.3962C32.9355 7.78289 26.3184 0.714533 17.8965 0.00359537C17.459-0.0374203 17.1309 0.277033 17.1309 0.714533L17.1309 5.18524C17.1309 5.55438 17.3906 5.84149 17.7598 5.86883C22.9961 6.51141 27.0703 10.9821 27.0703 16.3962C27.0703 18.8571 26.2227 21.1266 24.7324 23.027C24.541 23.2595 24.5547 23.5602 24.7598 23.779L28.0273 27.0329C28.3281 27.3337 28.793 27.3337 29.0664 27.0055C31.4863 24.1345 32.9355 20.4294 32.9355 16.3962Z" fill="white" fill-opacity="0.85"/>
  <path d="M0 16.3962C0 20.443 1.44922 24.1481 3.86914 27.0192C4.14258 27.3473 4.59375 27.3337 4.9082 27.0329L8.17578 23.779C8.38086 23.5602 8.39453 23.2595 8.20312 23.027C6.69922 21.1266 5.86523 18.8571 5.86523 16.3962C5.86523 10.9821 9.93945 6.51141 15.1758 5.86883C15.5449 5.84149 15.8047 5.55438 15.8047 5.18524L15.8047 0.714533C15.8047 0.277033 15.4766-0.0374203 15.0391 0.00359537C6.61719 0.714533 0 7.78289 0 16.3962Z" fill="white" fill-opacity="0.85"/>
  <path d="M15.0117 17.7497C17.1582 17.7497 18.8125 16.6149 19.0996 14.5231L20.166 14.5231C20.4258 14.5231 20.6309 14.318 20.6309 14.072C20.6309 13.8259 20.4258 13.6208 20.166 13.6208L19.127 13.6208C19.0449 12.7184 18.6758 11.8845 17.9648 11.3239L20.166 11.3239C20.4258 11.3239 20.6309 11.1188 20.6309 10.8727C20.6309 10.5993 20.4258 10.4079 20.166 10.4079L12.5918 10.4079C12.25 10.4079 12.0312 10.6403 12.0312 11.0231L12.0312 11.1188C12.0312 11.5016 12.25 11.7341 12.5918 11.7341L14.834 11.7341C16.1875 11.7341 17.2676 12.2809 17.4727 13.6208L12.5234 13.6208C12.2637 13.6208 12.0586 13.8259 12.0586 14.072C12.0586 14.318 12.2637 14.5231 12.5234 14.5231L17.459 14.5231C17.2676 15.9177 16.2012 16.4098 14.8203 16.4098L12.9199 16.4098C12.4004 16.4098 12.0723 16.738 12.0723 17.1755L12.0723 17.2302C12.0723 17.613 12.25 17.8454 12.5508 18.1188L17.2266 22.5075C17.459 22.7263 17.6504 22.8903 17.9922 22.8903C18.4023 22.8903 18.6895 22.5622 18.6895 22.1794C18.6895 21.9196 18.5664 21.7419 18.375 21.5505L14.3008 17.7497Z" fill="white" fill-opacity="0.85"/>
 </g>
</svg>
