<svg version="1.1" xmlns="http://www.w3.org/2000/svg" xmlns:xlink="http://www.w3.org/1999/xlink" viewBox="0 0 33.291 27.4395">
 <g>
  
  <path d="M32.9355 16.4609C32.9355 12.4414 31.4863 8.73633 29.0664 5.86523C28.793 5.53711 28.3281 5.53711 28.0273 5.85156L24.8555 9.02344C24.5957 9.2832 24.582 9.65234 24.8145 9.93945C26.2227 11.7441 27.0703 14.0137 27.0703 16.4609C27.0703 18.9219 26.2227 21.1914 24.7324 23.0918C24.541 23.3242 24.5547 23.625 24.7598 23.8438L28.0137 27.0977C28.3281 27.4121 28.7793 27.4121 29.0664 27.0703C31.4863 24.1992 32.9355 20.4941 32.9355 16.4609Z" style="fill:var(--color-0,hsl(0 0 0/0.85))"></path>
  <path d="M16.4609 5.86523C18.9355 5.86523 21.2051 6.72656 23.0234 8.13477C23.2969 8.35352 23.6523 8.32617 23.9121 8.06641L27.084 4.89453C27.3984 4.58008 27.3848 4.12891 27.0566 3.85547C24.1992 1.44922 20.4941 0 16.4609 0C12.4414 0 8.73633 1.44922 5.87891 3.85547C5.55078 4.12891 5.53711 4.58008 5.85156 4.89453L9.02344 8.06641C9.2832 8.32617 9.65234 8.35352 9.95312 8.12109C11.7578 6.72656 14.0137 5.86523 16.4609 5.86523Z" style="fill:var(--color-1,hsl(0 0 0/0.85))"></path>
  <path d="M0 16.4609C0 20.4941 1.44922 24.1992 3.86914 27.0703C4.14258 27.4121 4.60742 27.4121 4.9082 27.0977L8.16211 23.8438C8.36719 23.625 8.39453 23.3242 8.20312 23.0918C6.71289 21.1914 5.86523 18.9219 5.86523 16.4609C5.86523 14.0137 6.69922 11.7441 8.12109 9.93945C8.33984 9.65234 8.33984 9.2832 8.08008 9.02344L4.9082 5.85156C4.59375 5.53711 4.14258 5.53711 3.86914 5.86523C1.44922 8.73633 0 12.4414 0 16.4609Z" style="fill:var(--color-2,hsl(0 0 0/0.85))"></path>
  <path d="M15.0117 17.8145C17.1582 17.8145 18.8125 16.6797 19.0996 14.5879L20.166 14.5879C20.4258 14.5879 20.6309 14.3828 20.6309 14.1367C20.6309 13.8906 20.4258 13.6855 20.166 13.6855L19.127 13.6855C19.0449 12.7832 18.6758 11.9492 17.9648 11.3887L20.166 11.3887C20.4258 11.3887 20.6309 11.1836 20.6309 10.9375C20.6309 10.6641 20.4258 10.4727 20.166 10.4727L12.5918 10.4727C12.25 10.4727 12.0312 10.7051 12.0312 11.0879L12.0312 11.1836C12.0312 11.5664 12.25 11.7988 12.5918 11.7988L14.834 11.7988C16.1875 11.7988 17.2676 12.3457 17.4727 13.6855L12.5234 13.6855C12.2637 13.6855 12.0586 13.8906 12.0586 14.1367C12.0586 14.3828 12.2637 14.5879 12.5234 14.5879L17.459 14.5879C17.2676 15.9824 16.2012 16.4746 14.8203 16.4746L12.9199 16.4746C12.4004 16.4746 12.0723 16.8027 12.0723 17.2402L12.0723 17.2949C12.0723 17.6777 12.25 17.9102 12.5508 18.1836L17.2266 22.5723C17.459 22.791 17.6504 22.9551 17.9922 22.9551C18.4023 22.9551 18.6895 22.627 18.6895 22.2441C18.6895 21.9844 18.5664 21.8066 18.375 21.6152L14.3008 17.8145Z" style="fill:var(--color-3,hsl(0 0 0/0.85))"></path>
 </g>
</svg>