<?xml version="1.0" encoding="UTF-8"?>
<!--Generator: Apple Native CoreSVG 326-->
<!DOCTYPE svg
PUBLIC "-//W3C//DTD SVG 1.1//EN"
       "http://www.w3.org/Graphics/SVG/1.1/DTD/svg11.dtd">
<svg version="1.1" xmlns="http://www.w3.org/2000/svg" xmlns:xlink="http://www.w3.org/1999/xlink" viewBox="0 0 28.2461 27.9043">
 <g>
  <rect height="27.9043" opacity="0" width="28.2461" x="0" y="0"/>
  <path d="M13.9453 27.8906C21.6426 27.8906 27.8906 21.6426 27.8906 13.9453C27.8906 6.24805 21.6426 0 13.9453 0C6.24805 0 0 6.24805 0 13.9453C0 21.6426 6.24805 27.8906 13.9453 27.8906ZM13.9453 25.5664C7.51953 25.5664 2.32422 20.3711 2.32422 13.9453C2.32422 7.51953 7.51953 2.32422 13.9453 2.32422C20.3711 2.32422 25.5664 7.51953 25.5664 13.9453C25.5664 20.3711 20.3711 25.5664 13.9453 25.5664Z" fill="white" fill-opacity="0.85"/>
  <path d="M12.4824 15.1074C14.6426 15.1074 16.2832 13.9863 16.5703 11.8945L17.6367 11.8945C17.9102 11.8945 18.1016 11.6895 18.1016 11.4434C18.1016 11.1973 17.9102 10.9922 17.6367 10.9922L16.6113 10.9922C16.5293 10.0898 16.1465 9.25586 15.4492 8.68164L17.6367 8.68164C17.9102 8.68164 18.1016 8.47656 18.1016 8.23047C18.1016 7.9707 17.9102 7.7793 17.6367 7.7793L10.0762 7.7793C9.7207 7.7793 9.51562 8.01172 9.51562 8.39453L9.51562 8.49023C9.51562 8.85938 9.7207 9.0918 10.0762 9.0918L12.3047 9.0918C13.6582 9.0918 14.7383 9.65234 14.9434 10.9922L10.0078 10.9922C9.73438 10.9922 9.5293 11.1973 9.5293 11.4434C9.5293 11.6895 9.73438 11.8945 10.0078 11.8945L14.9434 11.8945C14.752 13.2754 13.6855 13.7812 12.291 13.7812L10.4043 13.7812C9.87109 13.7812 9.55664 14.0957 9.55664 14.5469L9.55664 14.5879C9.55664 14.9844 9.7207 15.2168 10.0352 15.4902L14.7109 19.8652C14.9434 20.084 15.1211 20.248 15.4766 20.248C15.873 20.248 16.1738 19.9336 16.1738 19.5508C16.1738 19.291 16.0508 19.0996 15.8457 18.9219L11.7715 15.1074Z" fill="white" fill-opacity="0.85"/>
 </g>
</svg>
