<svg version="1.1" xmlns="http://www.w3.org/2000/svg" xmlns:xlink="http://www.w3.org/1999/xlink" viewBox="0 0 30.9258 30.584">
 <g>
  
  <path d="M15.2852 30.5703C23.6797 30.5703 30.5703 23.6797 30.5703 15.2852C30.5703 6.89062 23.6797 0 15.2852 0C6.89062 0 0 6.89062 0 15.2852C0 23.6797 6.89062 30.5703 15.2852 30.5703ZM15.2852 25.4844C9.65234 25.4844 5.08594 20.918 5.08594 15.2852C5.08594 9.63867 9.65234 5.08594 15.2852 5.08594C20.9316 5.08594 25.4844 9.63867 25.4844 15.2852C25.4844 20.918 20.9316 25.4844 15.2852 25.4844Z" style="fill:var(--color-0,hsl(0 0 0/0.85))"></path>
  <path d="M13.8359 16.4473C15.9961 16.4473 17.6504 15.3262 17.9238 13.2344L18.9902 13.2344C19.2637 13.2344 19.4688 13.0293 19.4688 12.7832C19.4688 12.5371 19.2637 12.332 18.9902 12.332L17.9648 12.332C17.8828 11.4297 17.5 10.5957 16.8027 10.0215L18.9902 10.0215C19.2637 10.0215 19.4688 9.81641 19.4688 9.57031C19.4688 9.31055 19.2637 9.11914 18.9902 9.11914L11.4297 9.11914C11.0742 9.11914 10.8691 9.35156 10.8691 9.73438L10.8691 9.83008C10.8691 10.1992 11.0742 10.4316 11.4297 10.4316L13.6719 10.4316C15.0117 10.4316 16.1055 10.9922 16.2969 12.332L11.3613 12.332C11.0879 12.332 10.8828 12.5371 10.8828 12.7832C10.8828 13.0293 11.0879 13.2344 11.3613 13.2344L16.2969 13.2344C16.1055 14.6152 15.0391 15.1211 13.6445 15.1211L11.7578 15.1211C11.2383 15.1211 10.9102 15.4355 10.9102 15.8867L10.9102 15.9277C10.9102 16.3242 11.0742 16.5566 11.3887 16.8301L16.0645 21.2051C16.2969 21.4238 16.4746 21.5879 16.8301 21.5879C17.2266 21.5879 17.5273 21.2734 17.5273 20.8906C17.5273 20.6309 17.4043 20.4395 17.2129 20.2617L13.1387 16.4473Z" style="fill:var(--color-1,hsl(0 0 0/0.85))"></path>
 </g>
</svg>