<?xml version="1.0" encoding="UTF-8"?>
<!--Generator: Apple Native CoreSVG 326-->
<!DOCTYPE svg
PUBLIC "-//W3C//DTD SVG 1.1//EN"
       "http://www.w3.org/Graphics/SVG/1.1/DTD/svg11.dtd">
<svg version="1.1" xmlns="http://www.w3.org/2000/svg" xmlns:xlink="http://www.w3.org/1999/xlink" viewBox="0 0 33.5408 27.9043">
 <g>
  <rect height="27.9043" opacity="0" width="33.5408" x="0" y="0"/>
  <path d="M16.5995 27.8906C24.2968 27.8906 30.5448 21.6426 30.5448 13.9453C30.5448 6.24805 24.2968 0 16.5995 0C8.90224 0 2.65419 6.24805 2.65419 13.9453L4.97841 13.9453C4.97841 7.51953 10.1737 2.32422 16.5995 2.32422C23.0253 2.32422 28.2206 7.51953 28.2206 13.9453C28.2206 20.3711 23.0253 25.5664 16.5995 25.5664C12.7167 25.5664 9.2577 23.6523 7.19325 20.7539C6.76942 20.1934 6.12684 20.0156 5.55263 20.3574C5.00575 20.6992 4.84169 21.4648 5.30653 22.0664C7.83583 25.6074 11.9784 27.8906 16.5995 27.8906ZM0.972548 11.3066C-0.0118272 11.3066-0.257921 11.9766 0.275282 12.7422L3.33778 17.0898C3.78895 17.7188 4.4452 17.7051 4.8827 17.0898L7.93153 12.7285C8.46474 11.9766 8.20497 11.3066 7.24794 11.3066Z" fill="white" fill-opacity="0.85"/>
  <path d="M15.1503 15.1074C17.3104 15.1074 18.9511 13.9863 19.2382 11.8945L20.3046 11.8945C20.578 11.8945 20.7694 11.6895 20.7694 11.4434C20.7694 11.1973 20.578 10.9922 20.3046 10.9922L19.2655 10.9922C19.1972 10.0898 18.8143 9.25586 18.1171 8.68164L20.3046 8.68164C20.578 8.68164 20.7694 8.47656 20.7694 8.23047C20.7694 7.9707 20.578 7.7793 20.3046 7.7793L12.744 7.7793C12.3886 7.7793 12.1835 8.01172 12.1835 8.39453L12.1835 8.49023C12.1835 8.85938 12.3886 9.0918 12.744 9.0918L14.9725 9.0918C16.3261 9.0918 17.4061 9.65234 17.6112 10.9922L12.6757 10.9922C12.4022 10.9922 12.1972 11.1973 12.1972 11.4434C12.1972 11.6895 12.4022 11.8945 12.6757 11.8945L17.6112 11.8945C17.4198 13.2754 16.3534 13.7812 14.9589 13.7812L13.0722 13.7812C12.539 13.7812 12.2245 14.0957 12.2245 14.5469L12.2245 14.5879C12.2245 14.9844 12.3886 15.2168 12.703 15.4902L17.3788 19.8652C17.6112 20.084 17.789 20.248 18.1444 20.248C18.5409 20.248 18.8417 19.9336 18.8417 19.5508C18.8417 19.291 18.7186 19.0996 18.5136 18.9219L14.4393 15.1074Z" fill="white" fill-opacity="0.85"/>
 </g>
</svg>
