<svg version="1.1" xmlns="http://www.w3.org/2000/svg" xmlns:xlink="http://www.w3.org/1999/xlink" viewBox="0 0 30.8848 29.1895">
 <g>
  
  <path d="M1.81836 25.9219L28.7109 25.9219L28.7109 25.0059C28.7109 24.459 28.3965 24.1309 27.8359 24.1309L26.9609 24.1309L26.9609 9.37891L28.1641 9.37891C28.916 9.37891 29.3535 8.83203 29.3535 8.27148C29.3535 7.86133 29.1211 7.50586 28.6152 7.21875L16.9395 0.478516C16.3926 0.164062 15.8184 0 15.2578 0C14.6973 0 14.1094 0.164062 13.5898 0.478516L1.91406 7.21875C1.39453 7.50586 1.17578 7.86133 1.17578 8.27148C1.17578 8.83203 1.61328 9.37891 2.36523 9.37891L3.56836 9.37891L3.56836 24.1309L2.70703 24.1309C2.14648 24.1309 1.81836 24.459 1.81836 25.0059ZM5.63281 24.1309L5.63281 7.62891L14.7246 2.5293C14.8887 2.43359 15.0801 2.37891 15.2578 2.37891C15.4355 2.37891 15.627 2.43359 15.8047 2.5293L24.8965 7.62891L24.8965 24.1309ZM1.09375 29.1758L29.4219 29.1758C30.0234 29.1758 30.5293 28.6699 30.5293 28.0684C30.5293 27.4668 30.0234 26.9746 29.4219 26.9746L1.09375 26.9746C0.492188 26.9746 0 27.4668 0 28.0684C0 28.6699 0.492188 29.1758 1.09375 29.1758Z" style="fill:var(--color-0,hsl(0 0 0/0.85))"></path>
  <path d="M13.8223 15.5586C15.9824 15.5586 17.623 14.4238 17.9102 12.332L18.9766 12.332C19.2363 12.332 19.4414 12.127 19.4414 11.8809C19.4414 11.6348 19.2363 11.4297 18.9766 11.4297L17.9375 11.4297C17.8691 10.5273 17.4863 9.69336 16.7891 9.13281L18.9766 9.13281C19.2363 9.13281 19.4414 8.92773 19.4414 8.68164C19.4414 8.4082 19.2363 8.2168 18.9766 8.2168L11.416 8.2168C11.0605 8.2168 10.8555 8.44922 10.8555 8.83203L10.8555 8.92773C10.8555 9.31055 11.0605 9.54297 11.416 9.54297L13.6445 9.54297C14.998 9.54297 16.0781 10.0898 16.2832 11.4297L11.334 11.4297C11.0742 11.4297 10.8691 11.6348 10.8691 11.8809C10.8691 12.127 11.0742 12.332 11.334 12.332L16.2832 12.332C16.0918 13.7266 15.0254 14.2188 13.6309 14.2188L11.7305 14.2188C11.2109 14.2188 10.8965 14.5469 10.8965 14.9844L10.8965 15.0391C10.8965 15.4219 11.0605 15.6543 11.375 15.9277L16.0508 20.3164C16.2832 20.5352 16.4609 20.6992 16.8164 20.6992C17.2129 20.6992 17.5137 20.3711 17.5137 19.9883C17.5137 19.7285 17.3906 19.5508 17.1855 19.3594L13.1113 15.5586Z" style="fill:var(--color-1,hsl(0 0 0/0.85))"></path>
 </g>
</svg>