<?xml version="1.0" encoding="UTF-8"?>
<!--Generator: Apple Native CoreSVG 326-->
<!DOCTYPE svg
PUBLIC "-//W3C//DTD SVG 1.1//EN"
       "http://www.w3.org/Graphics/SVG/1.1/DTD/svg11.dtd">
<svg version="1.1" xmlns="http://www.w3.org/2000/svg" xmlns:xlink="http://www.w3.org/1999/xlink" viewBox="0 0 28.2461 27.9043">
 <g>
  <rect height="27.9043" opacity="0" width="28.2461" x="0" y="0"/>
  <path d="M13.9453 27.8906C21.6426 27.8906 27.8906 21.6426 27.8906 13.9453C27.8906 6.24805 21.6426 0 13.9453 0C6.24805 0 0 6.24805 0 13.9453C0 21.6426 6.24805 27.8906 13.9453 27.8906ZM13.9453 25.5664C7.51953 25.5664 2.32422 20.3711 2.32422 13.9453C2.32422 7.51953 7.51953 2.32422 13.9453 2.32422C20.3711 2.32422 25.5664 7.51953 25.5664 13.9453C25.5664 20.3711 20.3711 25.5664 13.9453 25.5664Z" fill="white" fill-opacity="0.85"/>
  <path d="M4.73047 13.9453C4.73047 16.543 6.37109 18.2656 8.81836 18.2656C10.1172 18.2656 11.2109 17.7188 12.4004 16.584L13.9453 15.1074L15.5039 16.584C16.7207 17.7461 17.8008 18.2656 19.0723 18.2656C21.5332 18.2656 23.1738 16.543 23.1738 13.9453C23.1738 11.3477 21.5332 9.61133 19.0723 9.61133C17.7871 9.61133 16.707 10.1309 15.5039 11.293L13.9453 12.7832L12.4004 11.293C11.2246 10.1719 10.1309 9.61133 8.81836 9.61133C6.37109 9.61133 4.73047 11.3477 4.73047 13.9453ZM6.42578 13.9453C6.42578 12.3457 7.36914 11.293 8.81836 11.293C9.59766 11.293 10.2812 11.6484 11.2109 12.5234L12.7422 13.9453L11.2109 15.3672C10.3086 16.2148 9.61133 16.584 8.81836 16.584C7.36914 16.584 6.42578 15.5449 6.42578 13.9453ZM15.1621 13.9453L16.6797 12.5234C17.6094 11.6484 18.3066 11.293 19.0723 11.293C20.5215 11.293 21.4785 12.3457 21.4785 13.9453C21.4785 15.5449 20.5215 16.584 19.0723 16.584C18.2793 16.584 17.582 16.2148 16.6797 15.3672Z" fill="white" fill-opacity="0.85"/>
 </g>
</svg>
