<svg version="1.1" xmlns="http://www.w3.org/2000/svg" xmlns:xlink="http://www.w3.org/1999/xlink" viewBox="0 0 28.2461 27.9043">
 <g>
  
  <path d="M13.9453 27.8906C21.6426 27.8906 27.8906 21.6289 27.8906 13.9453C27.8906 6.24805 21.6426 0 13.9453 0C6.26172 0 0 6.24805 0 13.9453C0 21.6289 6.26172 27.8906 13.9453 27.8906Z" style="fill:var(--color-0,hsl(0 0 0/0.85))"></path>
  <path d="M4.45703 13.9453C4.45703 11.2656 6.15234 9.47461 8.66797 9.47461C10.0215 9.47461 11.1562 10.0488 12.373 11.2109L13.959 12.7422L15.5586 11.2109C16.8027 10.0078 17.9238 9.47461 19.25 9.47461C21.7793 9.47461 23.4746 11.2656 23.4746 13.9453C23.4746 16.6113 21.7793 18.4023 19.25 18.4023C17.9375 18.4023 16.8164 17.8691 15.5586 16.666L13.959 15.1484L12.373 16.666C11.1426 17.8418 10.0078 18.4023 8.66797 18.4023C6.15234 18.4023 4.45703 16.6113 4.45703 13.9453ZM6.20703 13.9453C6.20703 15.5996 7.17773 16.666 8.66797 16.666C9.48828 16.666 10.1992 16.2832 11.1289 15.4082L12.7148 13.9453L11.1289 12.4824C10.1719 11.5801 9.47461 11.2109 8.66797 11.2109C7.17773 11.2109 6.20703 12.291 6.20703 13.9453ZM15.2168 13.9453L16.7891 15.4082C17.7188 16.2832 18.4297 16.666 19.25 16.666C20.7402 16.666 21.7246 15.5996 21.7246 13.9453C21.7246 12.291 20.7402 11.2109 19.25 11.2109C18.457 11.2109 17.7461 11.5801 16.7891 12.4824Z" style="fill:var(--color-1,white)"></path>
 </g>
</svg>