<svg version="1.1" xmlns="http://www.w3.org/2000/svg" xmlns:xlink="http://www.w3.org/1999/xlink" viewBox="0 0 40.0123 21.0957">
 <g>
  
  <path d="M19.8284 18.7031C22.5218 18.7031 25.6663 19.5234 28.0042 20.7402C28.6331 21.082 29.3304 20.9453 29.7405 20.4121L39.0511 8.55859C39.9671 7.38281 39.8167 6.13867 38.6546 5.22266C34.8401 2.2832 27.5257 0 19.8284 0C12.1311 0 4.81668 2.2832 0.988554 5.22266C-0.173555 6.13867-0.323946 7.38281 0.605742 8.55859L9.91629 20.4121C10.3264 20.9453 11.01 21.082 11.6389 20.7402C13.9768 19.5234 17.135 18.7031 19.8284 18.7031ZM19.8284 16.502C17.3264 16.502 14.4417 17.1582 11.6526 18.3066C11.3108 18.4434 11.1604 18.416 10.887 18.0742L2.79324 7.76562C2.53348 7.42383 2.57449 7.0957 2.94363 6.84961C7.64676 3.88281 13.6761 2.20117 19.8284 2.20117C25.9807 2.20117 32.01 3.88281 36.7132 6.84961C37.0823 7.0957 37.1233 7.42383 36.8499 7.76562L28.7698 18.0742C28.4964 18.416 28.346 18.4434 28.0042 18.3066C25.2151 17.1582 22.3167 16.502 19.8284 16.502Z" style="fill:var(--color-0,hsl(0 0 0/0.85))"></path>
  <path d="M17.8733 14.875L21.7698 14.875C22.2346 14.875 22.6175 14.5059 22.6175 14.0273C22.6175 13.5762 22.2483 13.2207 21.7698 13.2207L20.7307 13.2207L20.7307 8.50391C20.7307 7.92969 20.4163 7.50586 19.8421 7.50586L18.0374 7.50586C17.5725 7.50586 17.1897 7.84766 17.1897 8.3125C17.1897 8.80469 17.5725 9.16016 18.0374 9.16016L18.8987 9.16016L18.8987 13.2207L17.8733 13.2207C17.4085 13.2207 17.0257 13.5625 17.0257 14.0273C17.0257 14.5195 17.4085 14.875 17.8733 14.875ZM19.4729 6.2207C20.2522 6.2207 20.8675 5.57812 20.8675 4.8125C20.8675 4.0332 20.2386 3.4043 19.4729 3.4043C18.6936 3.4043 18.0511 4.0332 18.0511 4.8125C18.0511 5.57812 18.6936 6.2207 19.4729 6.2207Z" style="fill:var(--color-1,hsl(0 0 0/0.85))"></path>
 </g>
</svg>