<?xml version="1.0" encoding="UTF-8"?>
<!--Generator: Apple Native CoreSVG 326-->
<!DOCTYPE svg
PUBLIC "-//W3C//DTD SVG 1.1//EN"
       "http://www.w3.org/Graphics/SVG/1.1/DTD/svg11.dtd">
<svg version="1.1" xmlns="http://www.w3.org/2000/svg" xmlns:xlink="http://www.w3.org/1999/xlink" viewBox="0 0 11.416 22.873">
 <g>
  <rect height="22.873" opacity="0" width="11.416" x="0" y="0"/>
  <path d="M0 20.0566C0 20.7266 0.478516 21.1777 1.20312 21.1777L9.85742 21.1777C10.582 21.1777 11.0605 20.7266 11.0605 20.0566C11.0605 19.4004 10.582 18.9492 9.85742 18.9492L7.10938 18.9492L7.10938 8.51758C7.10938 7.7793 6.63086 7.28711 5.91992 7.28711L1.58594 7.28711C0.875 7.28711 0.382812 7.72461 0.382812 8.38086C0.382812 9.06445 0.875 9.51562 1.58594 9.51562L4.58008 9.51562L4.58008 18.9492L1.20312 18.9492C0.478516 18.9492 0 19.4004 0 20.0566ZM3.39062 1.98242C3.39062 3.07617 4.26562 3.95117 5.35938 3.95117C6.4668 3.95117 7.31445 3.07617 7.31445 1.98242C7.31445 0.875 6.4668 0 5.35938 0C4.26562 0 3.39062 0.875 3.39062 1.98242Z" fill="#0a84ff"/>
 </g>
</svg>
