<svg version="1.1" xmlns="http://www.w3.org/2000/svg" xmlns:xlink="http://www.w3.org/1999/xlink" viewBox="0 0 28.2461 27.9043">
 <g>
  
  <path d="M13.9453 27.8906C21.6426 27.8906 27.8906 21.6426 27.8906 13.9453C27.8906 6.24805 21.6426 0 13.9453 0C6.24805 0 0 6.24805 0 13.9453C0 21.6426 6.24805 27.8906 13.9453 27.8906ZM13.9453 25.5664C7.51953 25.5664 2.32422 20.3711 2.32422 13.9453C2.32422 7.51953 7.51953 2.32422 13.9453 2.32422C20.3711 2.32422 25.5664 7.51953 25.5664 13.9453C25.5664 20.3711 20.3711 25.5664 13.9453 25.5664Z" style="fill:var(--color-0,#007aff)"></path>
  <path d="M11.5527 21.6016L17.1172 21.6016C17.6777 21.6016 18.1152 21.1914 18.1152 20.6309C18.1152 20.0977 17.6777 19.6738 17.1172 19.6738L15.4219 19.6738L15.4219 12.7148C15.4219 11.9766 15.0527 11.4844 14.3555 11.4844L11.7852 11.4844C11.2246 11.4844 10.7871 11.9082 10.7871 12.4414C10.7871 13.002 11.2246 13.4121 11.7852 13.4121L13.248 13.4121L13.248 19.6738L11.5527 19.6738C10.9922 19.6738 10.5547 20.0977 10.5547 20.6309C10.5547 21.1914 10.9922 21.6016 11.5527 21.6016ZM13.8223 9.21484C14.8203 9.21484 15.5996 8.42188 15.5996 7.42383C15.5996 6.42578 14.8203 5.63281 13.8223 5.63281C12.8379 5.63281 12.0449 6.42578 12.0449 7.42383C12.0449 8.42188 12.8379 9.21484 13.8223 9.21484Z" style="fill:var(--color-1,#007aff)"></path>
 </g>
</svg>