<svg version="1.1" xmlns="http://www.w3.org/2000/svg" xmlns:xlink="http://www.w3.org/1999/xlink" viewBox="0 0 21.2238 31.4449">
 <g>
  
  <path d="M12.772 31.0144L12.5123 26.9265C12.4439 25.7097 12.69 25.0808 13.4967 24.3836L17.3795 21.0613L14.9869 20.5144C14.7135 20.4461 14.5494 20.323 14.4263 19.8855L11.0084 7.08865C10.5572 5.42068 9.29939 5.09256 7.69978 6.03592C5.7447 7.14334 4.51423 7.02029 2.98298 7.12967C1.34236 7.26639 0.166578 8.15506 0.754468 10.3152L5.5533 27.7058C5.93611 29.0867 6.83845 29.8387 8.49275 30.1668ZM14.7681 31.3699C15.8892 31.5476 16.5318 31.4246 17.1334 30.8367L20.2642 27.6648C20.7017 27.2273 20.8658 26.8719 20.8658 26.1199L20.8521 23.0574C20.8521 22.0867 20.5103 21.7039 19.8267 21.5672L19.2662 21.4715L15.0006 25.3543C14.4127 25.8875 14.2486 26.2703 14.317 27.2683L14.5767 31.3426ZM2.27205 10.4383L9.4908 7.06131L8.15095 2.41287C7.27595 3.15115 5.96345 3.72537 4.52791 4.12185C3.09236 4.50467 1.65681 4.66873 0.535718 4.5867ZM4.13142 2.72732C6.38728 2.13943 7.79548 1.33279 7.60408 0.608182C7.41267-0.0890834 5.36189 0.0476354 3.39314 0.59451C0.932203 1.25076-0.147876 2.13943 0.016187 2.67264C0.234937 3.34256 2.13533 3.26053 4.13142 2.72732Z" style="fill:var(--color-0,hsl(0 0 0/0.85))"></path>
 </g>
</svg>