<svg version="1.1" xmlns="http://www.w3.org/2000/svg" xmlns:xlink="http://www.w3.org/1999/xlink" viewBox="0 0 25.5391 32.7441">
 <g>
  
  <path d="M12.6055 32.7305C20.0566 32.7305 25.1836 25.9766 25.1836 16.3652C25.1836 6.75391 20.0566 0 12.6055 0C5.1543 0 0 6.76758 0 16.3652C0 25.9629 5.1543 32.7305 12.6055 32.7305ZM12.6055 30.5293C6.45312 30.5293 2.20117 24.6641 2.20117 16.3652C2.20117 8.05273 6.45312 2.20117 12.6055 2.20117C18.7441 2.20117 22.9824 8.05273 22.9824 16.3652C22.9824 24.6777 18.7441 30.5293 12.6055 30.5293Z" style="fill:var(--color-0,hsl(0 0 0/0.85))"></path>
  <path d="M12.6055 28.5332C17.5273 28.5332 20.9863 23.6113 20.9863 16.3652C20.9863 9.10547 17.5273 4.19727 12.6055 4.19727C7.68359 4.19727 4.21094 9.11914 4.21094 16.3652C4.21094 23.5977 7.68359 28.5332 12.6055 28.5332Z" style="fill:var(--color-1,hsl(0 0 0/0.85))"></path>
 </g>
</svg>