<svg version="1.1" xmlns="http://www.w3.org/2000/svg" xmlns:xlink="http://www.w3.org/1999/xlink" viewBox="0 0 28.2461 27.9043">
 <g>
  
  <path d="M13.9453 27.8906C21.6426 27.8906 27.8906 21.6426 27.8906 13.9453C27.8906 6.24805 21.6426 0 13.9453 0C6.24805 0 0 6.24805 0 13.9453C0 21.6426 6.24805 27.8906 13.9453 27.8906ZM13.9453 25.5664C7.51953 25.5664 2.32422 20.3711 2.32422 13.9453C2.32422 7.51953 7.51953 2.32422 13.9453 2.32422C20.3711 2.32422 25.5664 7.51953 25.5664 13.9453C25.5664 20.3711 20.3711 25.5664 13.9453 25.5664Z" style="fill:var(--color-0,hsl(0 0 0/0.85))"></path>
  <path d="M13.9316 23.4883C19.209 23.4883 23.4746 19.2227 23.4746 13.9453C23.4746 8.66797 19.209 4.40234 13.9316 4.40234C8.6543 4.40234 4.38867 8.66797 4.38867 13.9453C4.38867 19.2227 8.6543 23.4883 13.9316 23.4883Z" style="fill:var(--color-1,hsl(0 0 0/0.85))"></path>
 </g>
</svg>