<?xml version="1.0" encoding="UTF-8"?>
<!--Generator: Apple Native CoreSVG 326-->
<!DOCTYPE svg
PUBLIC "-//W3C//DTD SVG 1.1//EN"
       "http://www.w3.org/Graphics/SVG/1.1/DTD/svg11.dtd">
<svg version="1.1" xmlns="http://www.w3.org/2000/svg" xmlns:xlink="http://www.w3.org/1999/xlink" viewBox="0 0 32.5938 25.1699">
 <g>
  <rect height="25.1699" opacity="0" width="32.5938" x="0" y="0"/>
  <path d="M4.29297 25.1699L27.9453 25.1699C30.8164 25.1699 32.2383 23.7617 32.2383 20.9453L32.2383 4.23828C32.2383 1.42188 30.8164 0 27.9453 0L4.29297 0C1.43555 0 0 1.42188 0 4.23828L0 20.9453C0 23.7617 1.43555 25.1699 4.29297 25.1699ZM4.32031 22.9688C2.95312 22.9688 2.20117 22.2441 2.20117 20.8223L2.20117 4.36133C2.20117 2.93945 2.95312 2.20117 4.32031 2.20117L27.918 2.20117C29.2715 2.20117 30.0371 2.93945 30.0371 4.36133L30.0371 20.8223C30.0371 22.2441 29.2715 22.9688 27.918 22.9688Z" fill="white" fill-opacity="0.85"/>
  <path d="M5.26367 21.1094L14.9434 21.1094C15.8047 21.1094 16.1465 20.7539 16.1465 19.8789L16.1465 5.30469C16.1465 4.42969 15.8047 4.07422 14.9434 4.07422L5.26367 4.07422C4.41602 4.07422 4.07422 4.42969 4.07422 5.30469L4.07422 19.8789C4.07422 20.7539 4.41602 21.1094 5.26367 21.1094Z" fill="white" fill-opacity="0.85"/>
 </g>
</svg>
