<svg version="1.1" xmlns="http://www.w3.org/2000/svg" xmlns:xlink="http://www.w3.org/1999/xlink" viewBox="0 0 32.5938 25.1699">
 <g>
  
  <path d="M4.29297 25.1699L27.9453 25.1699C30.8164 25.1699 32.2383 23.7617 32.2383 20.9453L32.2383 4.23828C32.2383 1.42188 30.8164 0 27.9453 0L4.29297 0C1.43555 0 0 1.42188 0 4.23828L0 20.9453C0 23.7617 1.43555 25.1699 4.29297 25.1699ZM4.32031 22.9688C2.95312 22.9688 2.20117 22.2441 2.20117 20.8223L2.20117 4.36133C2.20117 2.93945 2.95312 2.20117 4.32031 2.20117L27.918 2.20117C29.2715 2.20117 30.0371 2.93945 30.0371 4.36133L30.0371 20.8223C30.0371 22.2441 29.2715 22.9688 27.918 22.9688Z" style="fill:var(--color-0,hsl(0 0 0/0.85))"></path>
  <path d="M5.26367 21.1094L14.9434 21.1094C15.8047 21.1094 16.1465 20.7539 16.1465 19.8789L16.1465 5.30469C16.1465 4.42969 15.8047 4.07422 14.9434 4.07422L5.26367 4.07422C4.41602 4.07422 4.07422 4.42969 4.07422 5.30469L4.07422 19.8789C4.07422 20.7539 4.41602 21.1094 5.26367 21.1094ZM27.6172 12.5781C27.6309 12.0859 27.1934 11.6621 26.7148 11.6621L22.8867 11.6621L20.8633 11.7305L21.998 10.6504L23.4746 9.20117C23.6523 9.03711 23.748 8.79102 23.748 8.55859C23.748 8.06641 23.3926 7.71094 22.9277 7.71094C22.6543 7.71094 22.4492 7.82031 22.2715 8.02539L18.6484 11.9082C18.416 12.1543 18.334 12.3457 18.334 12.5781C18.334 12.8242 18.4023 13.002 18.6484 13.248L22.2715 17.1309C22.4492 17.3496 22.6543 17.459 22.9277 17.459C23.3926 17.459 23.748 17.1035 23.748 16.6113C23.748 16.3789 23.6523 16.1328 23.4746 15.9688L21.998 14.5059L20.8633 13.4258L22.8867 13.5078L26.7148 13.5078C27.1934 13.5078 27.6035 13.0703 27.6172 12.5781Z" style="fill:var(--color-1,hsl(0 0 0/0.85))"></path>
 </g>
</svg>