<svg version="1.1" xmlns="http://www.w3.org/2000/svg" xmlns:xlink="http://www.w3.org/1999/xlink" viewBox="0 0 32.5938 25.1699">
 <g>
  
  <path d="M4.29297 25.1699L27.9453 25.1699C30.8164 25.1699 32.2383 23.7617 32.2383 20.9453L32.2383 4.23828C32.2383 1.42188 30.8164 0 27.9453 0L4.29297 0C1.43555 0 0 1.42188 0 4.23828L0 20.9453C0 23.7617 1.43555 25.1699 4.29297 25.1699ZM4.32031 22.9688C2.95312 22.9688 2.20117 22.2441 2.20117 20.8223L2.20117 4.36133C2.20117 2.93945 2.95312 2.20117 4.32031 2.20117L27.918 2.20117C29.2715 2.20117 30.0371 2.93945 30.0371 4.36133L30.0371 20.8223C30.0371 22.2441 29.2715 22.9688 27.918 22.9688Z" style="fill:var(--color-0,hsl(0 0 0/0.85))"></path>
  <path d="M5.26367 21.1094L26.9746 21.1094C27.8359 21.1094 28.1777 20.7539 28.1777 19.8789L28.1777 16.8984C28.1777 16.0234 27.8359 15.668 26.9746 15.668L5.26367 15.668C4.41602 15.668 4.07422 16.0234 4.07422 16.8984L4.07422 19.8789C4.07422 20.7539 4.41602 21.1094 5.26367 21.1094Z" style="fill:var(--color-1,hsl(0 0 0/0.85))"></path>
 </g>
</svg>