<svg version="1.1" xmlns="http://www.w3.org/2000/svg" xmlns:xlink="http://www.w3.org/1999/xlink" viewBox="0 0 23.3516 29.3262">
 <g>
  
  <path d="M0 25.0332C0 27.8906 1.4082 29.3125 4.23828 29.3125L18.7578 29.3125C21.5879 29.3125 22.9961 27.8906 22.9961 25.0332L22.9961 4.29297C22.9961 1.44922 21.5879 0 18.7578 0L4.23828 0C1.4082 0 0 1.44922 0 4.29297ZM2.20117 24.9922L2.20117 4.33398C2.20117 2.9668 2.92578 2.20117 4.34766 2.20117L18.6484 2.20117C20.0703 2.20117 20.7949 2.9668 20.7949 4.33398L20.7949 24.9922C20.7949 26.3594 20.0703 27.1113 18.6484 27.1113L4.34766 27.1113C2.92578 27.1113 2.20117 26.3594 2.20117 24.9922Z" style="fill:var(--color-0,hsl(0 0 0/0.85))"></path>
  <path d="M5.26367 25.252L17.6777 25.252C18.5527 25.252 18.8945 24.9102 18.8945 24.0488L18.8945 15.8594C18.8945 14.998 18.5527 14.6562 17.6777 14.6562L5.26367 14.6562C4.40234 14.6562 4.04688 14.998 4.04688 15.8594L4.04688 24.0488C4.04688 24.9102 4.40234 25.252 5.26367 25.252Z" style="fill:var(--color-1,hsl(0 0 0/0.85))"></path>
 </g>
</svg>