<?xml version="1.0" encoding="UTF-8"?>
<!--Generator: Apple Native CoreSVG 326-->
<!DOCTYPE svg
PUBLIC "-//W3C//DTD SVG 1.1//EN"
       "http://www.w3.org/Graphics/SVG/1.1/DTD/svg11.dtd">
<svg version="1.1" xmlns="http://www.w3.org/2000/svg" xmlns:xlink="http://www.w3.org/1999/xlink" viewBox="0 0 31.2402 33.9746">
 <g>
  <rect height="33.9746" opacity="0" width="31.2402" x="0" y="0"/>
  <path d="M24.6706 4.2793L22.1118 4.2793C21.7948 3.95165 21.3193 3.77344 20.7129 3.77344L6.00195 3.77344C4.82617 3.77344 4.12891 4.44336 4.12891 5.56445L4.12891 28.3965C4.12891 29.5176 4.82617 30.1738 6.00195 30.1738L8.66475 30.1738C8.82567 31.028 9.19519 31.7763 9.72934 32.375L5.71484 32.375C3.45898 32.375 1.92773 30.9258 1.92773 28.7656L1.92773 5.19531C1.92773 3.03516 3.45898 1.57227 5.71484 1.57227L20.9863 1.57227C22.917 1.57227 24.3036 2.63098 24.6706 4.2793Z" fill="white" fill-opacity="0.85"/>
  <path d="M10.1719 29.1758C10.1719 31.0898 11.5117 32.375 13.5078 32.375L26.3047 32.375C28.3008 32.375 29.6406 31.0898 29.6406 29.1758L29.6406 9.07812C29.6406 7.16406 28.3008 5.87891 26.3047 5.87891L13.5078 5.87891C11.5117 5.87891 10.1719 7.16406 10.1719 9.07812ZM12.373 28.6152L12.373 9.63867C12.373 8.68164 12.9746 8.08008 14 8.08008L25.8262 8.08008C26.8242 8.08008 27.4395 8.68164 27.4395 9.63867L27.4395 28.6152C27.4395 29.5859 26.8242 30.1738 25.8262 30.1738L14 30.1738C12.9746 30.1738 12.373 29.5859 12.373 28.6152Z" fill="white" fill-opacity="0.85"/>
 </g>
</svg>
