<svg version="1.1" xmlns="http://www.w3.org/2000/svg" xmlns:xlink="http://www.w3.org/1999/xlink" viewBox="0 0 23.2012 30.8301">
 <g>
  
  <path d="M0 27.1934C0 29.3535 1.51758 30.8027 3.78711 30.8027L19.0586 30.8027C21.3281 30.8027 22.8457 29.3535 22.8457 27.1934L22.8457 3.62305C22.8457 1.46289 21.3281 0 19.0586 0L3.78711 0C1.51758 0 0 1.46289 0 3.62305ZM9.65234 26.6191C9.16016 26.6191 8.76367 26.209 8.76367 25.7168L8.76367 5.09961C8.76367 4.60742 9.16016 4.19727 9.65234 4.19727C10.1445 4.19727 10.5547 4.60742 10.5547 5.09961L10.5547 25.7168C10.5547 26.209 10.1445 26.6191 9.65234 26.6191ZM16.625 26.6191C16.1328 26.6191 15.7227 26.209 15.7227 25.7168L15.7227 5.09961C15.7227 4.60742 16.1328 4.19727 16.625 4.19727C17.1172 4.19727 17.5137 4.60742 17.5137 5.09961L17.5137 25.7168C17.5137 26.209 17.1172 26.6191 16.625 26.6191Z" style="fill:var(--color-0,hsl(0 0 0/0.85))"></path>
 </g>
</svg>