<svg version="1.1" xmlns="http://www.w3.org/2000/svg" xmlns:xlink="http://www.w3.org/1999/xlink" viewBox="0 0 31.5479 31.2368">
 <g>
  
  <path d="M6.38818 10.1731L6.38818 27.0276C6.38818 28.1487 7.07178 28.8049 8.24756 28.8049L22.9585 28.8049C23.6111 28.8049 24.1163 28.6028 24.436 28.2304L26.0974 29.8927C25.4323 30.5994 24.4406 31.0061 23.2456 31.0061L7.96045 31.0061C5.70459 31.0061 4.18701 29.5569 4.18701 27.3967L4.18701 7.97081ZM20.1284 27.1233C20.1284 27.5061 19.855 27.7659 19.4858 27.7659L11.7339 27.7659C11.3647 27.7659 11.105 27.5061 11.105 27.1233C11.105 26.7405 11.3647 26.4944 11.7339 26.4944L19.4858 26.4944C19.855 26.4944 20.1284 26.7405 20.1284 27.1233ZM27.0327 3.82642L27.0327 23.3207L24.8315 21.1184L24.8315 4.19557C24.8315 3.07447 24.1343 2.40455 22.9585 2.40455L8.24756 2.40455C7.57341 2.40455 7.06107 2.62478 6.74762 3.02492L5.08312 1.35954C5.74483 0.627653 6.74558 0.203378 7.96045 0.203378L23.2456 0.203378C25.5015 0.203378 27.0327 1.66627 27.0327 3.82642Z" style="fill:var(--color-0,hsl(0 0 0/0.85))"></path>
  <path d="M27.7847 29.3245C28.1948 29.7483 28.8784 29.7483 29.2749 29.3245C29.6851 28.9143 29.6987 28.2581 29.2886 27.8342L3.40771 1.93971C2.99756 1.52955 2.31396 1.51588 1.90381 1.93971C1.50732 2.33619 1.50732 3.01978 1.90381 3.42994Z" style="fill:var(--color-1,hsl(0 0 0/0.85))"></path>
 </g>
</svg>