<?xml version="1.0" encoding="UTF-8"?>
<!--Generator: Apple Native CoreSVG 326-->
<!DOCTYPE svg
PUBLIC "-//W3C//DTD SVG 1.1//EN"
       "http://www.w3.org/Graphics/SVG/1.1/DTD/svg11.dtd">
<svg version="1.1" xmlns="http://www.w3.org/2000/svg" xmlns:xlink="http://www.w3.org/1999/xlink" viewBox="0 0 23.2012 30.8301">
 <g>
  <rect height="30.8301" opacity="0" width="23.2012" x="0" y="0"/>
  <path d="M7.54688 27.5625L15.2988 27.5625C15.6816 27.5625 15.9414 27.3027 15.9414 26.9199C15.9414 26.5371 15.6816 26.291 15.2988 26.291L7.54688 26.291C7.17773 26.291 6.91797 26.5371 6.91797 26.9199C6.91797 27.3027 7.17773 27.5625 7.54688 27.5625ZM0 27.1934C0 29.3535 1.51758 30.8027 3.78711 30.8027L19.0586 30.8027C21.3281 30.8027 22.8457 29.3535 22.8457 27.1934L22.8457 3.62305C22.8457 1.46289 21.3281 0 19.0586 0L3.78711 0C1.51758 0 0 1.46289 0 3.62305ZM2.20117 26.8242L2.20117 3.99219C2.20117 2.87109 2.88477 2.20117 4.06055 2.20117L18.7852 2.20117C19.9473 2.20117 20.6445 2.87109 20.6445 3.99219L20.6445 26.8242C20.6445 27.9453 19.9473 28.6016 18.7852 28.6016L4.06055 28.6016C2.88477 28.6016 2.20117 27.9453 2.20117 26.8242Z" fill="white" fill-opacity="0.85"/>
 </g>
</svg>
