<?xml version="1.0" encoding="UTF-8"?>
<!--Generator: Apple Native CoreSVG 326-->
<!DOCTYPE svg
PUBLIC "-//W3C//DTD SVG 1.1//EN"
       "http://www.w3.org/Graphics/SVG/1.1/DTD/svg11.dtd">
<svg version="1.1" xmlns="http://www.w3.org/2000/svg" xmlns:xlink="http://www.w3.org/1999/xlink" viewBox="0 0 17.9238 28.9707">
 <g>
  <rect height="28.9707" opacity="0" width="17.9238" x="0" y="0"/>
  <path d="M3.71875 28.9434L13.8496 28.9434C16.0781 28.9434 17.5684 27.5215 17.5684 25.3887L17.5684 3.55469C17.5684 1.42188 16.0781 0 13.8496 0L3.71875 0C1.49023 0 0 1.42188 0 3.55469L0 25.3887C0 27.5215 1.49023 28.9434 3.71875 28.9434ZM4.00586 24.9238C2.84375 24.9238 2.20117 24.3086 2.20117 23.2148L2.20117 3.91016C2.20117 2.81641 2.84375 2.20117 4.00586 2.20117L13.5762 2.20117C14.7246 2.20117 15.3672 2.81641 15.3672 3.91016L15.3672 23.2832C15.3672 24.3906 14.7246 24.9238 13.5762 24.9238ZM6.67188 25.2383L10.9102 25.2383L10.9102 24.459C10.9102 23.8984 10.541 23.502 9.98047 23.502L7.61523 23.502C7.04102 23.502 6.67188 23.8984 6.67188 24.459Z" fill="white" fill-opacity="0.85"/>
 </g>
</svg>
