<?xml version="1.0" encoding="UTF-8"?>
<!--Generator: Apple Native CoreSVG 326-->
<!DOCTYPE svg
PUBLIC "-//W3C//DTD SVG 1.1//EN"
       "http://www.w3.org/Graphics/SVG/1.1/DTD/svg11.dtd">
<svg version="1.1" xmlns="http://www.w3.org/2000/svg" xmlns:xlink="http://www.w3.org/1999/xlink" viewBox="0 0 28.2461 30.5566">
 <g>
  <rect height="30.5566" opacity="0" width="28.2461" x="0" y="0"/>
  <path d="M1.09375 6.94531C1.81836 6.94531 2.20117 6.54883 2.20117 5.82422L2.20117 4.34766C2.20117 2.92578 2.95312 2.20117 4.32031 2.20117L5.89258 2.20117C6.60352 2.20117 7 1.80469 7 1.09375C7 0.396484 6.60352 0 5.89258 0L4.29297 0C1.43555 0 0 1.4082 0 4.22461L0 5.82422C0 6.54883 0.396484 6.94531 1.09375 6.94531ZM26.7832 6.94531C27.4941 6.94531 27.8906 6.54883 27.8906 5.82422L27.8906 4.22461C27.8906 1.4082 26.4414 0 23.5977 0L21.998 0C21.2734 0 20.877 0.396484 20.877 1.09375C20.877 1.80469 21.2734 2.20117 21.998 2.20117L23.5566 2.20117C24.9102 2.20117 25.6895 2.92578 25.6895 4.34766L25.6895 5.82422C25.6895 6.54883 26.0723 6.94531 26.7832 6.94531ZM4.29297 20.1934L5.89258 20.1934C6.60352 20.1934 7 19.7969 7 19.0859C7 18.3887 6.60352 17.9922 5.89258 17.9922L4.32031 17.9922C2.95312 17.9922 2.20117 17.2539 2.20117 15.832L2.20117 14.3555C2.20117 13.6309 1.81836 13.2344 1.09375 13.2344C0.396484 13.2344 0 13.6309 0 14.3555L0 15.9551C0 18.7715 1.43555 20.1934 4.29297 20.1934ZM21.998 20.1934L23.5977 20.1934C26.4414 20.1934 27.8906 18.7715 27.8906 15.9551L27.8906 14.3555C27.8906 13.6309 27.4941 13.2344 26.7832 13.2344C26.0723 13.2344 25.6895 13.6309 25.6895 14.3555L25.6895 15.832C25.6895 17.2539 24.9102 17.9922 23.5566 17.9922L21.998 17.9922C21.2734 17.9922 20.877 18.3887 20.877 19.0859C20.877 19.7969 21.2734 20.1934 21.998 20.1934Z" fill="#32d74b"/>
  <path d="M13.959 16.9668C17.7598 16.9668 20.8086 13.9043 20.8086 10.1035C20.8086 6.31641 17.7598 3.25391 13.959 3.25391C10.1719 3.25391 7.0957 6.31641 7.0957 10.1035C7.0957 13.9043 9.91211 16.9668 13.959 16.9668ZM13.959 15.0391C11.0332 15.0391 9.02344 12.8516 9.02344 10.1035C9.02344 7.38281 11.2246 5.18164 13.959 5.18164C16.6934 5.18164 18.8809 7.38281 18.8809 10.1035C18.8809 12.8516 16.6934 15.0391 13.959 15.0391ZM12.9609 24.9648L14.957 24.9648L14.957 16.4062L12.9609 16.4062ZM9.88477 30.543L18.0195 30.543C19.5645 30.543 20.5352 29.5859 20.5352 28.0957L20.5352 26.0586C20.5352 24.5547 19.5645 23.5977 18.0195 23.5977L9.88477 23.5977C8.35352 23.5977 7.38281 24.5547 7.38281 26.0586L7.38281 28.0957C7.38281 29.5859 8.35352 30.543 9.88477 30.543ZM10.1992 28.5332C9.70703 28.5332 9.39258 28.2051 9.39258 27.6992L9.39258 26.4414C9.39258 25.9355 9.70703 25.5801 10.1992 25.5801L17.7051 25.5801C18.1973 25.5801 18.5527 25.9355 18.5527 26.4414L18.5527 27.6992C18.5527 28.2051 18.1973 28.5332 17.7051 28.5332Z" fill="#32d74b"/>
 </g>
</svg>
