<?xml version="1.0" encoding="UTF-8"?>
<!--Generator: Apple Native CoreSVG 326-->
<!DOCTYPE svg
PUBLIC "-//W3C//DTD SVG 1.1//EN"
       "http://www.w3.org/Graphics/SVG/1.1/DTD/svg11.dtd">
<svg version="1.1" xmlns="http://www.w3.org/2000/svg" xmlns:xlink="http://www.w3.org/1999/xlink" viewBox="0 0 17.9238 28.9707">
 <g>
  <rect height="28.9707" opacity="0" width="17.9238" x="0" y="0"/>
  <path d="M0 25.4023C0 27.5352 1.49023 28.957 3.71875 28.957L13.8496 28.957C16.0781 28.957 17.5684 27.5352 17.5684 25.4023L17.5684 3.55469C17.5684 1.42188 16.0781 0 13.8496 0L3.71875 0C1.49023 0 0 1.42188 0 3.55469ZM2.20117 24.3223L2.20117 4.63477L15.3672 4.63477L15.3672 24.3223ZM8.80469 27.6035C8.14844 27.6035 7.61523 27.0703 7.61523 26.4141C7.61523 25.7715 8.14844 25.2383 8.80469 25.2383C9.44727 25.2383 9.98047 25.7715 9.98047 26.4141C9.98047 27.0703 9.44727 27.6035 8.80469 27.6035ZM6.19336 2.39258C6.19336 2.07812 6.41211 1.87305 6.71289 1.87305L10.8691 1.87305C11.1699 1.87305 11.3887 2.07812 11.3887 2.39258C11.3887 2.70703 11.1699 2.89844 10.8691 2.89844L6.71289 2.89844C6.41211 2.89844 6.19336 2.70703 6.19336 2.39258Z" fill="white" fill-opacity="0.85"/>
 </g>
</svg>
