<?xml version="1.0" encoding="UTF-8"?>
<!--Generator: Apple Native CoreSVG 326-->
<!DOCTYPE svg
PUBLIC "-//W3C//DTD SVG 1.1//EN"
       "http://www.w3.org/Graphics/SVG/1.1/DTD/svg11.dtd">
<svg version="1.1" xmlns="http://www.w3.org/2000/svg" xmlns:xlink="http://www.w3.org/1999/xlink" viewBox="0 0 28.2461 27.9043">
 <g>
  <rect height="27.9043" opacity="0" width="28.2461" x="0" y="0"/>
  <path d="M20.0156 24.7734L22.0117 24.7734L22.0117 10.7871C22.0117 8.81836 20.6445 7.50586 18.5938 7.50586L9.26953 7.50586C7.21875 7.50586 5.86523 8.81836 5.86523 10.7871L5.86523 24.7734L7.86133 24.7734L7.86133 11.1016C7.86133 10.0898 8.46289 9.50195 9.5293 9.50195L11.1562 9.50195C11.3477 9.50195 11.457 9.61133 11.457 9.80273L11.457 10.0898C11.457 10.6094 11.7988 10.9648 12.3047 10.9648L15.5723 10.9648C16.0781 10.9648 16.4199 10.6094 16.4199 10.0898L16.4199 9.80273C16.4199 9.61133 16.5293 9.50195 16.7207 9.50195L18.334 9.50195C19.4004 9.50195 20.0156 10.0898 20.0156 11.1016ZM13.9453 27.8906C21.6426 27.8906 27.8906 21.6426 27.8906 13.9453C27.8906 6.24805 21.6426 0 13.9453 0C6.24805 0 0 6.24805 0 13.9453C0 21.6426 6.24805 27.8906 13.9453 27.8906ZM13.9453 25.5664C7.51953 25.5664 2.32422 20.3711 2.32422 13.9453C2.32422 7.51953 7.51953 2.32422 13.9453 2.32422C20.3711 2.32422 25.5664 7.51953 25.5664 13.9453C25.5664 20.3711 20.3711 25.5664 13.9453 25.5664Z" fill="white" fill-opacity="0.85"/>
 </g>
</svg>
