<?xml version="1.0" encoding="UTF-8"?>
<!--Generator: Apple Native CoreSVG 326-->
<!DOCTYPE svg
PUBLIC "-//W3C//DTD SVG 1.1//EN"
       "http://www.w3.org/Graphics/SVG/1.1/DTD/svg11.dtd">
<svg version="1.1" xmlns="http://www.w3.org/2000/svg" xmlns:xlink="http://www.w3.org/1999/xlink" viewBox="0 0 17.9238 28.9707">
 <g>
  <rect height="28.9707" opacity="0" width="17.9238" x="0" y="0"/>
  <path d="M3.71875 28.9434L13.8496 28.9434C16.0781 28.9434 17.5684 27.5215 17.5684 25.3887L17.5684 3.55469C17.5684 1.42188 16.0781 0 13.8496 0L3.71875 0C1.49023 0 0 1.42188 0 3.55469L0 25.3887C0 27.5215 1.49023 28.9434 3.71875 28.9434ZM4.00586 26.7422C2.84375 26.7422 2.20117 26.127 2.20117 25.0332L2.20117 3.91016C2.20117 2.81641 2.84375 2.20117 4.00586 2.20117L5.75586 2.20117C5.97461 2.20117 6.08398 2.31055 6.08398 2.51562L6.08398 2.83008C6.08398 3.4043 6.4668 3.78711 7.02734 3.78711L10.5547 3.78711C11.1289 3.78711 11.498 3.4043 11.498 2.83008L11.498 2.51562C11.498 2.31055 11.6074 2.20117 11.8262 2.20117L13.5762 2.20117C14.7246 2.20117 15.3672 2.81641 15.3672 3.91016L15.3672 25.0332C15.3672 26.127 14.7246 26.7422 13.5762 26.7422ZM5.89258 25.7441L11.7031 25.7441C12.0723 25.7441 12.332 25.4844 12.332 25.1016C12.332 24.7188 12.0723 24.4727 11.7031 24.4727L5.89258 24.4727C5.52344 24.4727 5.25 24.7188 5.25 25.1016C5.25 25.4844 5.52344 25.7441 5.89258 25.7441Z" fill="white" fill-opacity="0.85"/>
 </g>
</svg>
