<svg version="1.1" xmlns="http://www.w3.org/2000/svg" xmlns:xlink="http://www.w3.org/1999/xlink" viewBox="0 0 28.2461 27.9043">
 <g>
  
  <path d="M13.9453 27.9043C21.6426 27.9043 27.8906 21.6562 27.8906 13.959C27.8906 6.27539 21.6426 0.0136719 13.9453 0.0136719C6.26172 0.0136719 0 6.27539 0 13.959C0 21.6562 6.26172 27.9043 13.9453 27.9043Z" style="fill:var(--color-0,hsl(0 0 0/0.85))"></path>
  <path d="M9.93945 12.2599L9.93945 20.4258C9.93945 21.0957 10.3359 21.4785 11.0469 21.4785L16.8711 21.4785C17.582 21.4785 17.9785 21.0957 17.9785 20.4258L17.9785 20.2904L19.1928 21.5035C18.8779 22.3432 18.0876 22.8594 17.0352 22.8594L10.8691 22.8594C9.50195 22.8594 8.57227 21.9707 8.57227 20.6309L8.57227 10.8941ZM7.94336 7.04102L20.877 19.9746C21.123 20.2344 21.123 20.6172 20.877 20.877C20.6309 21.123 20.207 21.123 19.9746 20.877L7.02734 7.94336C6.79492 7.69727 6.78125 7.28711 7.02734 7.04102C7.28711 6.78125 7.69727 6.78125 7.94336 7.04102ZM16.1328 20.4668C16.1328 20.6992 15.9551 20.8633 15.7227 20.8633L12.1953 20.8633C11.9629 20.8633 11.7852 20.6992 11.7852 20.4668C11.7852 20.207 11.9629 20.043 12.1953 20.043L15.7227 20.043C15.9551 20.043 16.1328 20.207 16.1328 20.4668ZM19.3457 7.28711L19.3457 17.0352L17.9785 15.668L17.9785 7.49219C17.9785 6.82227 17.582 6.43945 16.8711 6.43945L11.0469 6.43945C10.3359 6.43945 9.93945 6.82227 9.93945 7.49219L9.93945 7.62891L8.72354 6.41299C9.03676 5.56848 9.82548 5.05859 10.8691 5.05859L17.0352 5.05859C18.416 5.05859 19.3457 5.93359 19.3457 7.28711ZM15.5859 7.72461C15.5859 8.06641 15.3125 8.32617 14.9707 8.32617L12.9336 8.32617C12.5918 8.32617 12.3184 8.06641 12.3184 7.72461C12.3184 7.39648 12.5918 7.12305 12.9336 7.12305L14.9707 7.12305C15.3125 7.12305 15.5859 7.39648 15.5859 7.72461Z" style="fill:var(--color-1,white)"></path>
 </g>
</svg>