<?xml version="1.0" encoding="UTF-8"?>
<!--Generator: Apple Native CoreSVG 326-->
<!DOCTYPE svg
PUBLIC "-//W3C//DTD SVG 1.1//EN"
       "http://www.w3.org/Graphics/SVG/1.1/DTD/svg11.dtd">
<svg version="1.1" xmlns="http://www.w3.org/2000/svg" xmlns:xlink="http://www.w3.org/1999/xlink" viewBox="0 0 29.3262 17.623">
 <g>
  <rect height="17.623" opacity="0" width="29.3262" x="0" y="0"/>
  <path d="M28.9707 13.8496L28.9707 3.71875C28.9707 1.49023 27.5488 0 25.416 0L3.58203 0C1.44922 0 0 1.49023 0 3.71875L0 13.8496C0 16.0781 1.44922 17.582 3.58203 17.582L25.416 17.582C27.5488 17.582 28.9707 16.0781 28.9707 13.8496ZM26.7695 13.5762C26.7695 14.7246 26.1543 15.3809 25.0605 15.3809L3.9375 15.3809C2.83008 15.3809 2.21484 14.7246 2.21484 13.5762L2.21484 11.8125C2.21484 11.6074 2.33789 11.4844 2.54297 11.4844L2.85742 11.4844C3.41797 11.4844 3.81445 11.1152 3.81445 10.5547L3.81445 7.01367C3.81445 6.45312 3.41797 6.08398 2.85742 6.08398L2.54297 6.08398C2.33789 6.08398 2.21484 5.96094 2.21484 5.75586L2.21484 4.00586C2.21484 2.85742 2.83008 2.20117 3.9375 2.20117L25.0605 2.20117C26.1543 2.20117 26.7695 2.85742 26.7695 4.00586ZM10.8555 14.3691L18.1426 14.3691C18.5117 14.3691 18.7715 14.1094 18.7715 13.7266C18.7715 13.3438 18.5117 13.0977 18.1426 13.0977L10.8555 13.0977C10.4863 13.0977 10.2266 13.3438 10.2266 13.7266C10.2266 14.1094 10.4863 14.3691 10.8555 14.3691Z" fill="white" fill-opacity="0.85"/>
 </g>
</svg>
