<svg version="1.1" xmlns="http://www.w3.org/2000/svg" xmlns:xlink="http://www.w3.org/1999/xlink" viewBox="0 0 25.1221 28.9707">
 <g>
  
  <path d="M18.9731 17.3223L21.1743 19.5234L21.1743 3.55469C21.1743 1.42188 19.6841 0 17.4556 0L7.32471 0C5.69775 0 4.48096 0.710938 4.02979 2.02344L3.93408 2.26953L5.80713 4.14258L5.80713 3.88281C5.80713 2.78906 6.44971 2.20117 7.59814 2.20117L17.1685 2.20117C18.3169 2.20117 18.9731 2.81641 18.9731 3.91016ZM10.7427 5.20898L14.0513 5.20898C14.5845 5.20898 15.0083 4.78516 15.0083 4.23828C15.0083 3.70508 14.5845 3.28125 14.0513 3.28125L10.7427 3.28125C10.1958 3.28125 9.7583 3.70508 9.7583 4.23828C9.7583 4.78516 10.1958 5.20898 10.7427 5.20898ZM7.32471 28.9434L17.4556 28.9434C19.0278 28.9434 20.1763 28.2461 20.6958 27.002C20.7231 26.9336 20.7642 26.8379 20.7915 26.7695L18.9731 24.8965C18.9731 24.9922 18.9731 25.0742 18.9731 25.1562C18.9185 26.1816 18.2622 26.7422 17.1685 26.7422L7.59814 26.7422C6.44971 26.7422 5.80713 26.127 5.80713 25.0332L5.80713 11.7715L3.60596 9.57031L3.60596 25.3887C3.60596 27.5215 5.09619 28.9434 7.32471 28.9434ZM9.48486 25.7441L15.2954 25.7441C15.6646 25.7441 15.938 25.4844 15.938 25.1016C15.938 24.7188 15.6646 24.4727 15.2954 24.4727L9.48486 24.4727C9.11572 24.4727 8.85596 24.7188 8.85596 25.1016C8.85596 25.4844 9.11572 25.7441 9.48486 25.7441Z" style="fill:var(--color-0,hsl(0 0 0/0.85))"></path>
  <path d="M22.9653 26.6055C23.3755 27.0293 24.0591 27.0156 24.4556 26.6055C24.8657 26.209 24.8657 25.5391 24.4556 25.1152L1.80127 2.47461C1.39111 2.06445 0.721191 2.05078 0.297363 2.47461C-0.0991211 2.87109-0.0991211 3.56836 0.297363 3.96484Z" style="fill:var(--color-1,hsl(0 0 0/0.85))"></path>
 </g>
</svg>