<?xml version="1.0" encoding="UTF-8"?>
<!--Generator: Apple Native CoreSVG 326-->
<!DOCTYPE svg
PUBLIC "-//W3C//DTD SVG 1.1//EN"
       "http://www.w3.org/Graphics/SVG/1.1/DTD/svg11.dtd">
<svg version="1.1" xmlns="http://www.w3.org/2000/svg" xmlns:xlink="http://www.w3.org/1999/xlink" viewBox="0 0 28.2461 27.9043">
 <g>
  <rect height="27.9043" opacity="0" width="28.2461" x="0" y="0"/>
  <path d="M13.9453 27.9043C21.6426 27.9043 27.8906 21.6562 27.8906 13.959C27.8906 6.27539 21.6426 0.0136719 13.9453 0.0136719C6.26172 0.0136719 0 6.27539 0 13.959C0 21.6562 6.26172 27.9043 13.9453 27.9043Z" fill="white" fill-opacity="0.85"/>
  <path d="M9.92578 12.2462L9.92578 20.4258C9.92578 21.0957 10.3086 21.4785 11.0332 21.4785L16.8574 21.4785C17.5684 21.4785 17.9648 21.0957 17.9648 20.4258L17.9648 20.2768L19.1826 21.4933C18.8705 22.3391 18.0781 22.8594 17.0215 22.8594L10.8555 22.8594C9.47461 22.8594 8.55859 21.9707 8.55859 20.6309L8.55859 10.8804ZM7.94336 7.04102L20.877 19.9746C21.123 20.2344 21.123 20.6172 20.877 20.877C20.6309 21.123 20.207 21.123 19.9746 20.877L7.02734 7.94336C6.79492 7.69727 6.78125 7.28711 7.02734 7.04102C7.28711 6.78125 7.69727 6.78125 7.94336 7.04102ZM16.1191 20.4668C16.1191 20.6992 15.9414 20.8633 15.709 20.8633L12.1816 20.8633C11.9492 20.8633 11.7715 20.6992 11.7715 20.4668C11.7715 20.207 11.9492 20.043 12.1816 20.043L15.709 20.043C15.9414 20.043 16.1191 20.207 16.1191 20.4668ZM19.332 7.28711L19.332 17.0215L17.9648 15.6543L17.9648 7.49219C17.9648 6.82227 17.5684 6.43945 16.8574 6.43945L15.8457 6.43945C15.7227 6.43945 15.668 6.49414 15.668 6.61719L15.668 6.80859C15.668 7.17773 15.4219 7.41016 15.0801 7.41016L12.7969 7.41016C12.4551 7.41016 12.2227 7.17773 12.2227 6.80859L12.2227 6.61719C12.2227 6.49414 12.168 6.43945 12.0449 6.43945L11.0332 6.43945C10.3086 6.43945 9.92578 6.82227 9.92578 7.49219L9.92578 7.61523L8.71199 6.40145C9.02518 5.56392 9.8061 5.05859 10.8555 5.05859L17.0215 5.05859C18.4023 5.05859 19.332 5.93359 19.332 7.28711Z" fill="white"/>
 </g>
</svg>
