<svg version="1.1" xmlns="http://www.w3.org/2000/svg" xmlns:xlink="http://www.w3.org/1999/xlink" viewBox="0 0 33.8652 28.9707">
 <g>
  
  <path d="M25.5391 3.55469L25.5391 10.8145L23.3379 10.8145L23.3379 3.91016C23.3379 2.81641 22.6953 2.20117 21.5469 2.20117L11.9766 2.20117C10.8145 2.20117 10.1719 2.81641 10.1719 3.91016L10.1719 25.0332C10.1719 26.127 10.8145 26.7422 11.9766 26.7422L21.5469 26.7422C22.6953 26.7422 23.3379 26.127 23.3379 25.0332L23.3379 18.1152L25.5391 18.1152L25.5391 25.3887C25.5391 27.5215 24.0488 28.9434 21.8203 28.9434L11.6895 28.9434C9.46094 28.9434 7.9707 27.5215 7.9707 25.3887L7.9707 3.55469C7.9707 1.42188 9.46094 0 11.6895 0L21.8203 0C24.0488 0 25.5391 1.42188 25.5391 3.55469Z" style="fill:var(--color-0,hsl(0 0 0/0.85))"></path>
  <path d="M16.7891 14.4648C16.7891 15.0527 17.2812 15.5449 17.8555 15.5449L28.8203 15.5449L30.8711 15.4629L30.0508 16.2422L27.7949 18.3477C27.5762 18.5391 27.4668 18.8398 27.4668 19.0996C27.4668 19.6738 27.877 20.084 28.4375 20.084C28.7246 20.084 28.9434 19.9746 29.1484 19.7695L33.4961 15.2578C33.7695 14.9844 33.8652 14.7383 33.8652 14.4648C33.8652 14.1777 33.7695 13.9453 33.4961 13.6719L29.1484 9.16016C28.9434 8.95508 28.7246 8.8457 28.4375 8.8457C27.877 8.8457 27.4668 9.26953 27.4668 9.84375C27.4668 10.1035 27.5762 10.3906 27.7949 10.582L30.0508 12.6875L30.8574 13.4668L28.8203 13.3711L17.8555 13.3711C17.2812 13.3711 16.7891 13.877 16.7891 14.4648Z" style="fill:var(--color-1,hsl(0 0 0/0.85))"></path>
 </g>
</svg>