<svg version="1.1" xmlns="http://www.w3.org/2000/svg" xmlns:xlink="http://www.w3.org/1999/xlink" viewBox="0 0 29.3262 17.5957">
 <g>
  
  <path d="M25.4023 17.5684C27.5352 17.5684 28.9707 16.0781 28.9707 13.8496L28.9707 3.71875C28.9707 1.49023 27.5352 0 25.4023 0L3.55469 0C1.42188 0 0 1.49023 0 3.71875L0 13.8496C0 16.0781 1.42188 17.5684 3.55469 17.5684ZM24.3223 15.3672L4.63477 15.3672L4.63477 2.20117L24.3223 2.20117ZM27.6035 8.77734C27.6035 9.43359 27.084 9.9668 26.4141 9.9668C25.7715 9.9668 25.2383 9.43359 25.2383 8.77734C25.2383 8.12109 25.7715 7.60156 26.4141 7.60156C27.084 7.60156 27.6035 8.12109 27.6035 8.77734ZM2.39258 11.375C2.07812 11.375 1.88672 11.1699 1.88672 10.8691L1.88672 6.69922C1.88672 6.39844 2.07812 6.19336 2.39258 6.19336C2.70703 6.19336 2.91211 6.39844 2.91211 6.69922L2.91211 10.8691C2.91211 11.1699 2.70703 11.375 2.39258 11.375Z" style="fill:var(--color-0,hsl(0 0 0/0.85))"></path>
 </g>
</svg>