<svg version="1.1" xmlns="http://www.w3.org/2000/svg" xmlns:xlink="http://www.w3.org/1999/xlink" viewBox="0 0 28.2461 27.9043">
 <g>
  
  <path d="M13.9453 27.8906C21.6426 27.8906 27.8906 21.6426 27.8906 13.9453C27.8906 6.24805 21.6426 0 13.9453 0C6.24805 0 0 6.24805 0 13.9453C0 21.6426 6.24805 27.8906 13.9453 27.8906ZM13.9453 25.5664C7.51953 25.5664 2.32422 20.3711 2.32422 13.9453C2.32422 7.51953 7.51953 2.32422 13.9453 2.32422C20.3711 2.32422 25.5664 7.51953 25.5664 13.9453C25.5664 20.3711 20.3711 25.5664 13.9453 25.5664Z" style="fill:var(--color-0,hsl(0 0 0/0.85))"></path>
  <path d="M6.07031 18.0059C6.26172 17.7734 6.20703 17.5 5.98828 17.2402C5.18164 16.3379 4.75781 15.1895 4.75781 13.9453C4.75781 12.7012 5.18164 11.5527 5.98828 10.6504C6.20703 10.3906 6.26172 10.1035 6.07031 9.88477C5.89258 9.63867 5.53711 9.63867 5.27734 9.89844C4.2793 10.9785 3.74609 12.4141 3.74609 13.9453C3.74609 15.4629 4.2793 16.8984 5.27734 17.9922C5.53711 18.252 5.89258 18.252 6.07031 18.0059ZM21.834 18.0059C22.0254 18.252 22.3809 18.252 22.627 17.9922C23.625 16.8984 24.1719 15.4629 24.1719 13.9453C24.1719 12.4141 23.625 10.9785 22.627 9.89844C22.3809 9.63867 22.0254 9.63867 21.834 9.88477C21.6426 10.1035 21.6973 10.3906 21.9297 10.6504C22.7227 11.5527 23.1602 12.7012 23.1602 13.9453C23.1602 15.1895 22.7227 16.3379 21.9297 17.2402C21.6973 17.5 21.6426 17.7734 21.834 18.0059Z" style="fill:var(--color-1,hsl(0 0 0/0.85))"></path>
  <path d="M8.03906 16.3242C8.23047 16.0918 8.16211 15.832 7.95703 15.5586C7.61523 15.1211 7.45117 14.5605 7.45117 13.9453C7.45117 13.3301 7.61523 12.7559 7.95703 12.332C8.16211 12.0586 8.23047 11.7988 8.03906 11.5664C7.83398 11.3203 7.45117 11.3203 7.23242 11.5938C6.71289 12.25 6.41211 13.0566 6.41211 13.9453C6.41211 14.8203 6.71289 15.6406 7.23242 16.2832C7.45117 16.5566 7.83398 16.5703 8.03906 16.3242ZM19.8652 16.3242C20.0703 16.5703 20.4531 16.5566 20.6719 16.2832C21.1914 15.6406 21.5059 14.8203 21.5059 13.9453C21.5059 13.0566 21.1914 12.25 20.6719 11.5938C20.4531 11.3203 20.0703 11.3203 19.8652 11.5664C19.6738 11.7988 19.7422 12.0586 19.9473 12.332C20.2891 12.7559 20.4668 13.3301 20.4668 13.9453C20.4668 14.5605 20.2891 15.1211 19.9473 15.5586C19.7422 15.832 19.6738 16.0918 19.8652 16.3242Z" style="fill:var(--color-2,hsl(0 0 0/0.85))"></path>
  <path d="M9.20117 19.8242C9.20117 20.9863 10.0078 21.7793 11.2246 21.7793L16.666 21.7793C17.8828 21.7793 18.6895 20.9863 18.6895 19.8242L18.6895 8.06641C18.6895 6.9043 17.8828 6.11133 16.666 6.11133L11.2246 6.11133C10.0078 6.11133 9.20117 6.9043 9.20117 8.06641ZM10.4316 19.25L10.4316 8.64062L17.459 8.64062L17.459 19.25ZM13.959 21.0137C13.6172 21.0137 13.3301 20.7266 13.3301 20.3848C13.3301 20.043 13.6172 19.7559 13.959 19.7559C14.3008 19.7559 14.5605 20.043 14.5605 20.3848C14.5605 20.7266 14.3008 21.0137 13.959 21.0137ZM12.5371 7.4375C12.5371 7.25977 12.6738 7.13672 12.8242 7.13672L15.0664 7.13672C15.2305 7.13672 15.3535 7.25977 15.3535 7.4375C15.3535 7.61523 15.2305 7.72461 15.0664 7.72461L12.8242 7.72461C12.6738 7.72461 12.5371 7.61523 12.5371 7.4375Z" style="fill:var(--color-3,hsl(0 0 0/0.85))"></path>
 </g>
</svg>