<svg version="1.1" xmlns="http://www.w3.org/2000/svg" xmlns:xlink="http://www.w3.org/1999/xlink" viewBox="0 0 28.2461 27.9043">
 <g>
  
  <path d="M13.9453 27.8906C21.6426 27.8906 27.8906 21.6426 27.8906 13.9453C27.8906 6.24805 21.6426 0 13.9453 0C6.24805 0 0 6.24805 0 13.9453C0 21.6426 6.24805 27.8906 13.9453 27.8906ZM13.9453 25.5664C7.51953 25.5664 2.32422 20.3711 2.32422 13.9453C2.32422 7.51953 7.51953 2.32422 13.9453 2.32422C20.3711 2.32422 25.5664 7.51953 25.5664 13.9453C25.5664 20.3711 20.3711 25.5664 13.9453 25.5664Z" style="fill:var(--color-0,hsl(0 0 0/0.85))"></path>
  <path d="M5.96094 18.0059C6.15234 17.7734 6.09766 17.5 5.87891 17.2402C5.07227 16.3379 4.64844 15.1895 4.64844 13.9453C4.64844 12.7012 5.07227 11.5527 5.87891 10.6504C6.09766 10.3906 6.15234 10.1035 5.96094 9.88477C5.7832 9.63867 5.42773 9.63867 5.16797 9.89844C4.16992 10.9785 3.63672 12.4141 3.63672 13.9453C3.63672 15.4629 4.16992 16.8984 5.16797 17.9922C5.42773 18.252 5.7832 18.252 5.96094 18.0059ZM21.8613 18.0059C22.0527 18.252 22.4082 18.252 22.6543 17.9922C23.6523 16.8984 24.1992 15.4629 24.1992 13.9453C24.1992 12.4141 23.6523 10.9785 22.6543 9.89844C22.4082 9.63867 22.0527 9.63867 21.8613 9.88477C21.6699 10.1035 21.7246 10.3906 21.957 10.6504C22.75 11.5527 23.1875 12.7012 23.1875 13.9453C23.1875 15.1895 22.75 16.3379 21.957 17.2402C21.7246 17.5 21.6699 17.7734 21.8613 18.0059Z" style="fill:var(--color-1,hsl(0 0 0/0.85))"></path>
  <path d="M7.92969 16.3242C8.12109 16.0918 8.05273 15.832 7.84766 15.5586C7.50586 15.1211 7.3418 14.5605 7.3418 13.9453C7.3418 13.3301 7.50586 12.7559 7.84766 12.332C8.05273 12.0586 8.12109 11.7988 7.92969 11.5664C7.72461 11.3203 7.35547 11.3203 7.12305 11.5938C6.60352 12.25 6.30273 13.0566 6.30273 13.9453C6.30273 14.8203 6.60352 15.6406 7.12305 16.2832C7.35547 16.5566 7.72461 16.5703 7.92969 16.3242ZM19.8926 16.3242C20.0977 16.5703 20.4805 16.5566 20.6992 16.2832C21.2188 15.6406 21.5332 14.8203 21.5332 13.9453C21.5332 13.0566 21.2188 12.25 20.6992 11.5938C20.4805 11.3203 20.0977 11.3203 19.8926 11.5664C19.7012 11.7988 19.7695 12.0586 19.9746 12.332C20.3164 12.7559 20.4941 13.3301 20.4941 13.9453C20.4941 14.5605 20.3164 15.1211 19.9746 15.5586C19.7695 15.832 19.7012 16.0918 19.8926 16.3242Z" style="fill:var(--color-2,hsl(0 0 0/0.85))"></path>
  <path d="M11.2246 21.7793L16.6387 21.7793C17.8555 21.7793 18.6758 20.9863 18.6758 19.8105L18.6758 8.06641C18.6758 6.89062 17.8555 6.09766 16.6387 6.09766L11.2246 6.09766C10.0078 6.09766 9.1875 6.89062 9.1875 8.06641L9.1875 19.8105C9.1875 20.9863 10.0078 21.7793 11.2246 21.7793ZM11.375 20.5625C10.7461 20.5625 10.4043 20.2207 10.4043 19.6328L10.4043 8.24414C10.4043 7.65625 10.7461 7.31445 11.375 7.31445L12.2773 7.31445C12.4141 7.31445 12.4414 7.36914 12.4414 7.47852L12.4414 7.64258C12.4414 7.95703 12.6465 8.17578 12.9609 8.17578L14.9023 8.17578C15.2168 8.17578 15.4219 7.95703 15.4219 7.64258L15.4219 7.47852C15.4219 7.36914 15.4629 7.31445 15.5723 7.31445L16.4883 7.31445C17.1172 7.31445 17.459 7.65625 17.459 8.24414L17.459 19.6328C17.459 20.2207 17.1172 20.5625 16.4883 20.5625ZM12.3867 20.0293L15.4902 20.0293C15.709 20.0293 15.8457 19.8926 15.8457 19.6738C15.8457 19.4414 15.709 19.291 15.4902 19.291L12.3867 19.291C12.168 19.291 12.0176 19.4414 12.0176 19.6738C12.0176 19.8926 12.168 20.0293 12.3867 20.0293Z" style="fill:var(--color-3,hsl(0 0 0/0.85))"></path>
 </g>
</svg>