<svg version="1.1" xmlns="http://www.w3.org/2000/svg" xmlns:xlink="http://www.w3.org/1999/xlink" viewBox="0 0 28.2461 27.9043">
 <g>
  
  <path d="M13.9453 27.8906C21.6426 27.8906 27.8906 21.6426 27.8906 13.9453C27.8906 6.24805 21.6426 0 13.9453 0C6.24805 0 0 6.24805 0 13.9453C0 21.6426 6.24805 27.8906 13.9453 27.8906ZM13.9453 25.5664C7.51953 25.5664 2.32422 20.3711 2.32422 13.9453C2.32422 7.51953 7.51953 2.32422 13.9453 2.32422C20.3711 2.32422 25.5664 7.51953 25.5664 13.9453C25.5664 20.3711 20.3711 25.5664 13.9453 25.5664Z" style="fill:var(--color-0,hsl(0 0 0/0.85))"></path>
  <path d="M10.9512 22.5723L16.9258 22.5723C18.2656 22.5723 19.168 21.7109 19.168 20.4121L19.168 7.46484C19.168 6.16602 18.2656 5.31836 16.9258 5.31836L10.9512 5.31836C9.625 5.31836 8.72266 6.16602 8.72266 7.46484L8.72266 20.4121C8.72266 21.7109 9.625 22.5723 10.9512 22.5723ZM11.1289 21.2324C10.4316 21.2324 10.0488 20.877 10.0488 20.2207L10.0488 7.65625C10.0488 7 10.4316 6.64453 11.1289 6.64453L16.7617 6.64453C17.459 6.64453 17.8418 7 17.8418 7.65625L17.8418 20.2207C17.8418 20.877 17.459 21.2324 16.7617 21.2324ZM12.2363 20.6445L15.6543 20.6445C15.8867 20.6445 16.0508 20.4941 16.0508 20.2617C16.0508 20.0156 15.8867 19.8516 15.6543 19.8516L12.2363 19.8516C12.0039 19.8516 11.8398 20.0156 11.8398 20.2617C11.8398 20.4941 12.0039 20.6445 12.2363 20.6445ZM12.9473 8.47656L14.9297 8.47656C15.2578 8.47656 15.5176 8.2168 15.5176 7.88867C15.5176 7.57422 15.2578 7.31445 14.9297 7.31445L12.9473 7.31445C12.6191 7.31445 12.3594 7.57422 12.3594 7.88867C12.3594 8.2168 12.6191 8.47656 12.9473 8.47656Z" style="fill:var(--color-1,hsl(0 0 0/0.85))"></path>
 </g>
</svg>