<?xml version="1.0" encoding="UTF-8"?>
<!--Generator: Apple Native CoreSVG 326-->
<!DOCTYPE svg
PUBLIC "-//W3C//DTD SVG 1.1//EN"
       "http://www.w3.org/Graphics/SVG/1.1/DTD/svg11.dtd">
<svg version="1.1" xmlns="http://www.w3.org/2000/svg" xmlns:xlink="http://www.w3.org/1999/xlink" viewBox="0 0 28.2461 27.9043">
 <g>
  <rect height="27.9043" opacity="0" width="28.2461" x="0" y="0"/>
  <path d="M13.9453 27.9043C21.6426 27.9043 27.8906 21.6562 27.8906 13.959C27.8906 6.27539 21.6426 0.0136719 13.9453 0.0136719C6.26172 0.0136719 0 6.27539 0 13.959C0 21.6562 6.26172 27.9043 13.9453 27.9043Z" fill="white" fill-opacity="0.85"/>
  <path d="M5.74219 18.1426C5.55078 18.4023 5.19531 18.4023 4.92188 18.1289C3.89648 17.0215 3.34961 15.5312 3.34961 13.959C3.34961 12.4004 3.89648 10.9102 4.92188 9.78906C5.19531 9.51562 5.55078 9.51562 5.74219 9.77539C5.93359 10.0078 5.87891 10.2949 5.66016 10.5684C4.82617 11.498 4.38867 12.6738 4.38867 13.959C4.38867 15.2441 4.82617 16.4199 5.66016 17.3496C5.87891 17.623 5.93359 17.9238 5.74219 18.1426ZM22.1348 18.1426C21.9434 17.9238 21.998 17.623 22.2305 17.3496C23.0508 16.4199 23.502 15.2441 23.502 13.959C23.502 12.6738 23.0508 11.498 22.2305 10.5684C21.998 10.2949 21.9434 10.0078 22.1348 9.77539C22.3398 9.51562 22.6953 9.51562 22.9551 9.78906C23.9805 10.9102 24.541 12.4004 24.541 13.959C24.541 15.5312 23.9805 17.0215 22.9551 18.1289C22.6953 18.4023 22.3398 18.4023 22.1348 18.1426Z" fill="white"/>
  <path d="M7.7793 16.4062C7.56055 16.666 7.17773 16.666 6.93164 16.3789C6.39844 15.709 6.09766 14.875 6.09766 13.959C6.09766 13.0566 6.39844 12.209 6.93164 11.5527C7.17773 11.2656 7.56055 11.252 7.7793 11.5117C7.9707 11.7441 7.90234 12.0176 7.68359 12.3047C7.3418 12.7422 7.16406 13.3301 7.16406 13.959C7.16406 14.5879 7.3418 15.1621 7.68359 15.6133C7.90234 15.9004 7.9707 16.1738 7.7793 16.4062ZM20.0977 16.4062C19.9062 16.1738 19.9746 15.9004 20.1934 15.6133C20.5352 15.1621 20.7266 14.5879 20.7266 13.959C20.7266 13.3301 20.5352 12.7422 20.1934 12.3047C19.9746 12.0176 19.9062 11.7441 20.0977 11.5117C20.3164 11.252 20.7129 11.2656 20.9453 11.5527C21.4785 12.209 21.793 13.0566 21.793 13.959C21.793 14.875 21.4785 15.709 20.9453 16.3789C20.7129 16.666 20.3164 16.666 20.0977 16.4062Z" fill="white"/>
  <path d="M11.1699 22.0254C9.91211 22.0254 9.06445 21.2188 9.06445 20.002L9.06445 7.91602C9.06445 6.68555 9.91211 5.89258 11.1699 5.89258L16.748 5.89258C18.0059 5.89258 18.8535 6.68555 18.8535 7.91602L18.8535 20.002C18.8535 21.2188 18.0059 22.0254 16.748 22.0254ZM11.3203 20.7676L16.5977 20.7676C17.2402 20.7676 17.5957 20.4258 17.5957 19.8242L17.5957 8.08008C17.5957 7.47852 17.2402 7.15039 16.5977 7.15039L11.3203 7.15039C10.6777 7.15039 10.3223 7.47852 10.3223 8.08008L10.3223 19.8242C10.3223 20.4258 10.6777 20.7676 11.3203 20.7676ZM13.0156 8.8457C12.7012 8.8457 12.4824 8.59961 12.4824 8.29883C12.4824 7.99805 12.7012 7.75195 13.0156 7.75195L14.875 7.75195C15.1895 7.75195 15.4219 7.99805 15.4219 8.29883C15.4219 8.59961 15.1895 8.8457 14.875 8.8457ZM12.373 20.2344C12.1406 20.2344 11.9902 20.0703 11.9902 19.8516C11.9902 19.6191 12.1406 19.4688 12.373 19.4688L15.5723 19.4688C15.791 19.4688 15.9277 19.6191 15.9277 19.8516C15.9277 20.0703 15.791 20.2344 15.5723 20.2344Z" fill="white"/>
 </g>
</svg>
