<?xml version="1.0" encoding="UTF-8"?>
<!--Generator: Apple Native CoreSVG 326-->
<!DOCTYPE svg
PUBLIC "-//W3C//DTD SVG 1.1//EN"
       "http://www.w3.org/Graphics/SVG/1.1/DTD/svg11.dtd">
<svg version="1.1" xmlns="http://www.w3.org/2000/svg" xmlns:xlink="http://www.w3.org/1999/xlink" viewBox="0 0 28.2461 27.9043">
 <g>
  <rect height="27.9043" opacity="0" width="28.2461" x="0" y="0"/>
  <path d="M27.8906 13.9453C27.8906 21.6426 21.6426 27.8906 13.9453 27.8906C6.24805 27.8906 0 21.6426 0 13.9453C0 6.24805 6.24805 0 13.9453 0C21.6426 0 27.8906 6.24805 27.8906 13.9453ZM2.32422 13.9453C2.32422 20.3711 7.51953 25.5664 13.9453 25.5664C20.3711 25.5664 25.5664 20.3711 25.5664 13.9453C25.5664 7.51953 20.3711 2.32422 13.9453 2.32422C7.51953 2.32422 2.32422 7.51953 2.32422 13.9453Z" fill="white" fill-opacity="0.85"/>
  <path d="M10.0352 12.2637L10.0352 20.2207C10.0352 20.877 10.418 21.2324 11.1152 21.2324L16.748 21.2324C17.4453 21.2324 17.8281 20.877 17.8281 20.2207L17.8281 20.0566L19.0119 21.2405C18.7111 22.0649 17.9405 22.5723 16.9121 22.5723L10.9375 22.5723C9.61133 22.5723 8.70898 21.7109 8.70898 20.4121L8.70898 10.9375ZM16.0371 20.2617C16.0371 20.4941 15.873 20.6445 15.6406 20.6445L12.2227 20.6445C11.9902 20.6445 11.8262 20.4941 11.8262 20.2617C11.8262 20.0156 11.9902 19.8516 12.2227 19.8516L15.6406 19.8516C15.873 19.8516 16.0371 20.0156 16.0371 20.2617ZM19.1543 7.46484L19.1543 16.9008L17.8281 15.5761L17.8281 7.65625C17.8281 7 17.4453 6.64453 16.748 6.64453L15.7773 6.64453C15.6543 6.64453 15.5996 6.69922 15.5996 6.82227L15.5996 7C15.5996 7.3418 15.3672 7.58789 15.0254 7.58789L12.8379 7.58789C12.4824 7.58789 12.2637 7.3418 12.2637 7L12.2637 6.82227C12.2637 6.69922 12.2227 6.64453 12.0859 6.64453L11.1152 6.64453C10.418 6.64453 10.0352 7 10.0352 7.65625L10.0352 7.79164L8.85869 6.61646C9.16499 5.80895 9.9286 5.31836 10.9375 5.31836L16.9121 5.31836C18.252 5.31836 19.1543 6.16602 19.1543 7.46484Z" fill="white" fill-opacity="0.85"/>
  <path d="M19.7969 20.6445C20.0293 20.877 20.4395 20.8906 20.6719 20.6445C20.918 20.3984 20.918 20.0156 20.6719 19.7695L8.14844 7.23242C7.88867 6.98633 7.50586 6.98633 7.25977 7.23242C7.01367 7.47852 7.01367 7.875 7.25977 8.10742Z" fill="white" fill-opacity="0.85"/>
 </g>
</svg>
