<?xml version="1.0" encoding="UTF-8"?>
<!--Generator: Apple Native CoreSVG 326-->
<!DOCTYPE svg
PUBLIC "-//W3C//DTD SVG 1.1//EN"
       "http://www.w3.org/Graphics/SVG/1.1/DTD/svg11.dtd">
<svg version="1.1" xmlns="http://www.w3.org/2000/svg" xmlns:xlink="http://www.w3.org/1999/xlink" viewBox="0 0 28.2461 27.9043">
 <g>
  <rect height="27.9043" opacity="0" width="28.2461" x="0" y="0"/>
  <path d="M27.8906 13.9453C27.8906 21.6426 21.6426 27.8906 13.9453 27.8906C6.24805 27.8906 0 21.6426 0 13.9453C0 6.24805 6.24805 0 13.9453 0C21.6426 0 27.8906 6.24805 27.8906 13.9453ZM2.32422 13.9453C2.32422 20.3711 7.51953 25.5664 13.9453 25.5664C20.3711 25.5664 25.5664 20.3711 25.5664 13.9453C25.5664 7.51953 20.3711 2.32422 13.9453 2.32422C7.51953 2.32422 2.32422 7.51953 2.32422 13.9453Z" fill="white" fill-opacity="0.85"/>
  <path d="M10.0625 12.291L10.0625 19.7832L17.5547 19.7832L19.0251 21.2536C18.7261 22.0677 17.9649 22.5723 16.9395 22.5723L10.9512 22.5723C9.61133 22.5723 8.72266 21.7109 8.72266 20.4258L8.72266 10.9512ZM13.2617 21.041C13.2617 21.4238 13.5762 21.7383 13.959 21.7383C14.3281 21.7383 14.6289 21.4238 14.6289 21.041C14.6289 20.6582 14.3281 20.3438 13.959 20.3438C13.5762 20.3438 13.2617 20.6582 13.2617 21.041ZM19.168 7.46484L19.168 16.9145L17.8281 15.5761L17.8281 8.10742L10.3513 8.10742L8.86899 6.62675C9.17083 5.81874 9.92995 5.31836 10.9512 5.31836L16.9395 5.31836C18.2793 5.31836 19.168 6.17969 19.168 7.46484ZM12.7148 6.43945C12.5234 6.43945 12.3867 6.5625 12.3867 6.76758C12.3867 6.95898 12.5234 7.0957 12.7148 7.0957L15.1895 7.0957C15.3809 7.0957 15.5039 6.95898 15.5039 6.76758C15.5039 6.5625 15.3809 6.43945 15.1895 6.43945Z" fill="white" fill-opacity="0.85"/>
  <path d="M19.7969 20.6445C20.0293 20.877 20.4395 20.8906 20.6719 20.6445C20.918 20.3984 20.918 20.0156 20.6719 19.7695L8.14844 7.23242C7.88867 6.98633 7.50586 6.98633 7.25977 7.23242C7.01367 7.47852 7.01367 7.875 7.25977 8.10742Z" fill="white" fill-opacity="0.85"/>
 </g>
</svg>
