<?xml version="1.0" encoding="UTF-8"?>
<!--Generator: Apple Native CoreSVG 326-->
<!DOCTYPE svg
PUBLIC "-//W3C//DTD SVG 1.1//EN"
       "http://www.w3.org/Graphics/SVG/1.1/DTD/svg11.dtd">
<svg version="1.1" xmlns="http://www.w3.org/2000/svg" xmlns:xlink="http://www.w3.org/1999/xlink" viewBox="0 0 27.4258 29.4082">
 <g>
  <rect height="29.4082" opacity="0" width="27.4258" x="0" y="0"/>
  <path d="M1.87305 3.52734L1.87305 25.8535C1.87305 27.4151 2.70671 28.6795 3.98491 29.1621L3.71875 29.1621C1.49023 29.1621 0 27.7402 0 25.6074L0 3.77344C0 1.64062 1.49023 0.21875 3.71875 0.21875L3.98491 0.21875C2.70671 0.701322 1.87305 1.96576 1.87305 3.52734Z" fill="white" fill-opacity="0.85"/>
  <path d="M6.54883 3.52734L6.54883 25.8535C6.54883 27.4151 7.38249 28.6795 8.66069 29.1621L8.39453 29.1621C6.16602 29.1621 4.67578 27.7402 4.67578 25.6074L4.67578 3.77344C4.67578 1.64062 6.16602 0.21875 8.39453 0.21875L8.66069 0.21875C7.38249 0.701322 6.54883 1.96576 6.54883 3.52734Z" fill="white" fill-opacity="0.85"/>
  <path d="M13.2207 29.1621L23.3516 29.1621C25.5801 29.1621 27.0703 27.7402 27.0703 25.6074L27.0703 3.77344C27.0703 1.64062 25.5801 0.21875 23.3516 0.21875L13.2207 0.21875C10.9922 0.21875 9.50195 1.64062 9.50195 3.77344L9.50195 25.6074C9.50195 27.7402 10.9922 29.1621 13.2207 29.1621ZM13.4941 26.9609C12.3457 26.9609 11.7031 26.3457 11.7031 25.252L11.7031 4.12891C11.7031 3.03516 12.3457 2.41992 13.4941 2.41992L15.2578 2.41992C15.4766 2.41992 15.5859 2.5293 15.5859 2.73438L15.5859 3.04883C15.5859 3.62305 15.9551 4.00586 16.5293 4.00586L20.0566 4.00586C20.6172 4.00586 21 3.62305 21 3.04883L21 2.73438C21 2.5293 21.1094 2.41992 21.3145 2.41992L23.0645 2.41992C24.2266 2.41992 24.8691 3.03516 24.8691 4.12891L24.8691 25.252C24.8691 26.3457 24.2266 26.9609 23.0645 26.9609ZM15.3809 25.9629L21.1914 25.9629C21.5605 25.9629 21.834 25.7031 21.834 25.3203C21.834 24.9375 21.5605 24.6914 21.1914 24.6914L15.3809 24.6914C15.0117 24.6914 14.752 24.9375 14.752 25.3203C14.752 25.7031 15.0117 25.9629 15.3809 25.9629Z" fill="white" fill-opacity="0.85"/>
 </g>
</svg>
