<svg version="1.1" xmlns="http://www.w3.org/2000/svg" xmlns:xlink="http://www.w3.org/1999/xlink" viewBox="0 0 28.2461 27.9043">
 <g>
  
  <path d="M20.0156 24.7734L22.0117 24.7734L22.0117 10.7871C22.0117 8.81836 20.6445 7.50586 18.5938 7.50586L9.2832 7.50586C7.23242 7.50586 5.86523 8.81836 5.86523 10.7871L5.86523 24.7734L7.86133 24.7734L7.86133 11.7715L20.0156 11.7715ZM11.5801 9.70703C11.5801 9.41992 11.7578 9.24219 12.0312 9.24219L15.8594 9.24219C16.1328 9.24219 16.3105 9.41992 16.3105 9.70703C16.3105 9.99414 16.1328 10.1719 15.8594 10.1719L12.0312 10.1719C11.7578 10.1719 11.5801 9.99414 11.5801 9.70703ZM13.9453 27.8906C21.6426 27.8906 27.8906 21.6426 27.8906 13.9453C27.8906 6.24805 21.6426 0 13.9453 0C6.24805 0 0 6.24805 0 13.9453C0 21.6426 6.24805 27.8906 13.9453 27.8906ZM13.9453 25.5664C7.51953 25.5664 2.32422 20.3711 2.32422 13.9453C2.32422 7.51953 7.51953 2.32422 13.9453 2.32422C20.3711 2.32422 25.5664 7.51953 25.5664 13.9453C25.5664 20.3711 20.3711 25.5664 13.9453 25.5664Z" style="fill:var(--color-0,hsl(0 0 0/0.85))"></path>
 </g>
</svg>