<svg version="1.1" xmlns="http://www.w3.org/2000/svg" xmlns:xlink="http://www.w3.org/1999/xlink" viewBox="0 0 28.3213 28.9707">
 <g>
  
  <path d="M7.3999 11.7128L7.3999 24.3223L20.017 24.3223L22.5133 26.8171C22.001 28.1411 20.7365 28.957 19.0483 28.957L8.91748 28.957C6.68896 28.957 5.19873 27.5352 5.19873 25.4023L5.19873 9.51295ZM12.814 26.4141C12.814 27.0703 13.3472 27.6035 14.0034 27.6035C14.646 27.6035 15.1792 27.0703 15.1792 26.4141C15.1792 25.7715 14.646 25.2383 14.0034 25.2383C13.3472 25.2383 12.814 25.7715 12.814 26.4141ZM22.7671 3.55469L22.7671 19.5671L20.5659 17.3673L20.5659 4.63477L7.82572 4.63477L5.42095 2.23144C5.90801 0.853147 7.19126 0 8.91748 0L19.0483 0C21.2769 0 22.7671 1.42188 22.7671 3.55469ZM13.1968 2.29688C13.1968 2.74805 13.5522 3.11719 14.0034 3.11719C14.4546 3.11719 14.7964 2.74805 14.7964 2.29688C14.7964 1.85938 14.4546 1.50391 14.0034 1.50391C13.5522 1.50391 13.1968 1.85938 13.1968 2.29688Z" style="fill:var(--color-0,hsl(0 0 0/0.85))"></path>
  <path d="M24.5718 26.6055C24.9819 27.0293 25.6655 27.0156 26.062 26.6055C26.4722 26.209 26.4722 25.5391 26.062 25.1152L3.40771 2.47461C2.99756 2.06445 2.31396 2.05078 1.90381 2.47461C1.50732 2.87109 1.50732 3.56836 1.90381 3.96484Z" style="fill:var(--color-1,hsl(0 0 0/0.85))"></path>
 </g>
</svg>