<svg version="1.1" xmlns="http://www.w3.org/2000/svg" xmlns:xlink="http://www.w3.org/1999/xlink" viewBox="0 0 14.9297 28.9707">
 <g>
  
  <path d="M7.28711 13.4668C9.65234 13.4668 11.5664 11.5527 11.5664 9.1875C11.5664 6.83594 9.65234 4.9082 7.28711 4.9082C4.93555 4.9082 3.03516 6.83594 3.03516 9.1875C3.03516 11.5527 4.93555 13.4668 7.28711 13.4668ZM7.28711 11.8809C5.81055 11.8809 4.62109 10.6914 4.62109 9.1875C4.62109 7.69727 5.81055 6.49414 7.28711 6.49414C8.79102 6.49414 9.98047 7.69727 9.98047 9.1875C9.98047 10.6914 8.79102 11.8809 7.28711 11.8809ZM3.71875 28.957L10.8555 28.957C13.1387 28.957 14.5742 27.5762 14.5742 25.4023L14.5742 3.55469C14.5742 1.38086 13.1387 0 10.8555 0L3.71875 0C1.43555 0 0 1.38086 0 3.55469L0 25.4023C0 27.5762 1.43555 28.957 3.71875 28.957ZM4.00586 26.7559C2.85742 26.7559 2.20117 26.127 2.20117 25.0469L2.20117 3.91016C2.20117 2.83008 2.85742 2.20117 4.00586 2.20117L10.582 2.20117C11.7168 2.20117 12.373 2.83008 12.373 3.91016L12.373 25.0469C12.373 26.127 11.7168 26.7559 10.582 26.7559Z" style="fill:var(--color-0,hsl(0 0 0/0.85))"></path>
 </g>
</svg>