<svg version="1.1" xmlns="http://www.w3.org/2000/svg" xmlns:xlink="http://www.w3.org/1999/xlink" viewBox="0 0 23.6387 18.1699">
 <g>
  
  <path d="M0 14.8613C0 16.8848 1.23047 18.1699 3.13086 18.1699L20.1523 18.1699C22.0527 18.1699 23.2832 16.8848 23.2832 14.8613L23.2832 3.30859C23.2832 1.28516 22.0527 0 20.1523 0L3.13086 0C1.23047 0 0 1.28516 0 3.30859ZM2.20117 14.5879L2.20117 3.58203C2.20117 2.7207 2.69336 2.20117 3.5 2.20117L19.7969 2.20117C20.5898 2.20117 21.082 2.7207 21.082 3.58203L21.082 14.5879C21.082 15.4492 20.5898 15.9688 19.7969 15.9688L3.5 15.9688C2.69336 15.9688 2.20117 15.4492 2.20117 14.5879ZM13.9863 14.3828C16.9258 14.3828 19.291 12.0039 19.291 9.07812C19.291 6.15234 16.9258 3.77344 13.9863 3.77344C11.0605 3.77344 8.69531 6.15234 8.69531 9.07812C8.69531 12.0039 11.0605 14.3828 13.9863 14.3828ZM13.9863 12.6328C12.0039 12.6328 10.4453 11.0605 10.4453 9.07812C10.4453 7.0957 12.0039 5.52344 13.9863 5.52344C15.9824 5.52344 17.541 7.0957 17.541 9.07812C17.541 11.0605 15.9824 12.6328 13.9863 12.6328Z" style="fill:var(--color-0,hsl(0 0 0/0.85))"></path>
 </g>
</svg>