<?xml version="1.0" encoding="UTF-8"?>
<!--Generator: Apple Native CoreSVG 326-->
<!DOCTYPE svg
PUBLIC "-//W3C//DTD SVG 1.1//EN"
       "http://www.w3.org/Graphics/SVG/1.1/DTD/svg11.dtd">
<svg version="1.1" xmlns="http://www.w3.org/2000/svg" xmlns:xlink="http://www.w3.org/1999/xlink" viewBox="0 0 28.2461 27.9043">
 <g>
  <rect height="27.9043" opacity="0" width="28.2461" x="0" y="0"/>
  <path d="M13.9453 27.8906C21.6426 27.8906 27.8906 21.6289 27.8906 13.9453C27.8906 6.24805 21.6426 0 13.9453 0C6.26172 0 0 6.24805 0 13.9453C0 21.6289 6.26172 27.8906 13.9453 27.8906Z" fill="white" fill-opacity="0.85"/>
  <path d="M13.2754 20.5488C11.3203 20.5488 9.80273 19.5918 9.31055 18.1289C9.22852 17.9102 9.1875 17.7051 9.1875 17.459C9.1875 16.8438 9.61133 16.4062 10.2402 16.4062C10.7188 16.4062 11.0332 16.6387 11.2793 17.1719C11.6211 18.0879 12.332 18.6074 13.3848 18.6074C14.5469 18.6074 15.2715 17.7598 15.2715 16.3516L15.2715 8.49023C15.2715 7.73828 15.668 7.21875 16.3926 7.21875C17.1309 7.21875 17.541 7.71094 17.541 8.49023L17.541 16.3789C17.541 19.0723 16.0371 20.5488 13.2754 20.5488Z" fill="white"/>
 </g>
</svg>
