<svg version="1.1" xmlns="http://www.w3.org/2000/svg" xmlns:xlink="http://www.w3.org/1999/xlink" viewBox="0 0 28.2461 27.9043">
 <g>
  
  <path d="M13.9453 27.8906C21.6426 27.8906 27.8906 21.6426 27.8906 13.9453C27.8906 6.24805 21.6426 0 13.9453 0C6.24805 0 0 6.24805 0 13.9453C0 21.6426 6.24805 27.8906 13.9453 27.8906ZM13.9453 25.5664C7.51953 25.5664 2.32422 20.3711 2.32422 13.9453C2.32422 7.51953 7.51953 2.32422 13.9453 2.32422C20.3711 2.32422 25.5664 7.51953 25.5664 13.9453C25.5664 20.3711 20.3711 25.5664 13.9453 25.5664Z" style="fill:var(--color-0,hsl(0 0 0/0.85))"></path>
  <path d="M13.2754 20.3438C15.9551 20.3438 17.4043 18.9082 17.4043 16.3105L17.4043 8.6543C17.4043 7.90234 17.0078 7.42383 16.2969 7.42383C15.5996 7.42383 15.2168 7.92969 15.2168 8.6543L15.2168 16.2832C15.2168 17.6504 14.5195 18.4707 13.3848 18.4707C12.3594 18.4707 11.6621 17.9648 11.334 17.0762C11.1016 16.5566 10.8008 16.3379 10.3359 16.3379C9.73438 16.3379 9.32422 16.7617 9.32422 17.3496C9.32422 17.582 9.36523 17.7871 9.43359 17.9922C9.91211 19.4141 11.3887 20.3438 13.2754 20.3438Z" style="fill:var(--color-1,hsl(0 0 0/0.85))"></path>
 </g>
</svg>