<?xml version="1.0" encoding="UTF-8"?>
<!--Generator: Apple Native CoreSVG 326-->
<!DOCTYPE svg
PUBLIC "-//W3C//DTD SVG 1.1//EN"
       "http://www.w3.org/Graphics/SVG/1.1/DTD/svg11.dtd">
<svg version="1.1" xmlns="http://www.w3.org/2000/svg" xmlns:xlink="http://www.w3.org/1999/xlink" viewBox="0 0 36.9645 29.7197">
 <g>
  <rect height="29.7197" opacity="0" width="36.9645" x="0" y="0"/>
  <path d="M10.949 28.7436L17.2791 28.7436L17.2791 6.71826L15.7889 8.20849C14.9959 8.97411 13.8748 8.94677 13.0955 8.04443L9.04865 3.21826L7.96857 3.62841C6.45099 4.18896 5.83576 4.9956 5.41193 6.54052L0.134584 25.5171C-0.2619 26.9663 0.216615 28.0601 1.5838 28.4292L4.70099 29.2768C6.06818 29.646 7.13458 29.4819 7.43537 28.1147L8.80255 22.0991L8.0506 16.6577L7.7088 24.8608C7.58576 27.3491 8.36505 28.7436 10.949 28.7436ZM11.8104 22.4546C11.3592 22.7827 10.7713 22.6733 10.4432 22.2222C10.1424 21.7847 10.2244 21.1831 10.6756 20.855L13.4647 18.8179C13.9022 18.5171 14.5174 18.5991 14.8318 19.0366C15.16 19.4741 15.0643 20.0757 14.6131 20.4038ZM19.3299 28.7436L25.6736 28.7436C28.244 28.7436 29.0233 27.3491 28.9002 24.8608L28.5584 16.2612L27.7518 21.8257L29.1873 28.1147C29.4881 29.4819 30.5545 29.646 31.908 29.2768L35.0252 28.4292C36.3924 28.0601 36.8846 26.9663 36.4744 25.5171L31.1971 6.54052C30.7733 4.9956 30.158 4.18896 28.6404 3.62841L27.574 3.23193L23.5272 8.04443C22.7615 8.94677 21.6268 8.97411 20.8338 8.20849L19.3299 6.70458ZM24.8807 22.4546L22.0779 20.4038C21.6268 20.0757 21.5447 19.4741 21.8592 19.0366C22.1736 18.5991 22.7889 18.5171 23.2264 18.8179L26.0154 20.855C26.4666 21.1831 26.5623 21.7847 26.2479 22.2222C25.9197 22.6733 25.3318 22.7827 24.8807 22.4546ZM13.9705 6.2124C14.4627 6.80029 14.9412 6.70458 15.4334 6.2124L17.1561 4.47607C17.5389 4.09326 17.5526 3.5874 17.1697 3.19091L14.3943 0.360833C13.9705-0.0629948 13.5604-0.131354 13.1229 0.251458L11.2772 1.8374C10.8943 2.15185 10.8943 2.57568 11.1951 2.93115ZM22.6795 6.2124L25.4549 2.93115C25.7557 2.57568 25.7557 2.15185 25.3729 1.8374L23.5272 0.251458C23.0897-0.131354 22.6795-0.0629948 22.2557 0.360833L19.4803 3.19091C19.0838 3.5874 19.1111 4.09326 19.4803 4.47607L21.2166 6.2124C21.6951 6.70458 22.1873 6.80029 22.6795 6.2124Z" fill="white" fill-opacity="0.85"/>
 </g>
</svg>
