<?xml version="1.0" encoding="UTF-8"?>
<!--Generator: Apple Native CoreSVG 326-->
<!DOCTYPE svg
PUBLIC "-//W3C//DTD SVG 1.1//EN"
       "http://www.w3.org/Graphics/SVG/1.1/DTD/svg11.dtd">
<svg version="1.1" xmlns="http://www.w3.org/2000/svg" xmlns:xlink="http://www.w3.org/1999/xlink" viewBox="0 0 28.2461 27.9043">
 <g>
  <rect height="27.9043" opacity="0" width="28.2461" x="0" y="0"/>
  <path d="M13.9453 27.8906C21.6426 27.8906 27.8906 21.6426 27.8906 13.9453C27.8906 6.24805 21.6426 0 13.9453 0C6.24805 0 0 6.24805 0 13.9453C0 21.6426 6.24805 27.8906 13.9453 27.8906ZM13.9453 25.5664C7.51953 25.5664 2.32422 20.3711 2.32422 13.9453C2.32422 7.51953 7.51953 2.32422 13.9453 2.32422C20.3711 2.32422 25.5664 7.51953 25.5664 13.9453C25.5664 20.3711 20.3711 25.5664 13.9453 25.5664Z" fill="white" fill-opacity="0.85"/>
  <path d="M10.3633 20.207C11.0742 20.207 11.4707 19.7422 11.4707 18.9766L11.4707 16.1328L13.1387 14.4102L17.1309 19.6738C17.4043 20.043 17.6914 20.207 18.0742 20.207C18.6895 20.207 19.127 19.7695 19.127 19.1816C19.127 18.9082 19.0176 18.6074 18.8125 18.3477L14.7383 13.002L18.4844 9.14648C18.7305 8.88672 18.8262 8.6543 18.8262 8.35352C18.8262 7.84766 18.3887 7.42383 17.8281 7.42383C17.4863 7.42383 17.2539 7.54688 16.9395 7.86133L11.5527 13.3574L11.4707 13.3574L11.4707 8.6543C11.4707 7.88867 11.0742 7.42383 10.3633 7.42383C9.69336 7.42383 9.2832 7.88867 9.2832 8.6543L9.2832 18.9766C9.2832 19.7422 9.69336 20.207 10.3633 20.207Z" fill="white" fill-opacity="0.85"/>
 </g>
</svg>
