<?xml version="1.0" encoding="UTF-8"?>
<!--Generator: Apple Native CoreSVG 326-->
<!DOCTYPE svg
PUBLIC "-//W3C//DTD SVG 1.1//EN"
       "http://www.w3.org/Graphics/SVG/1.1/DTD/svg11.dtd">
<svg version="1.1" xmlns="http://www.w3.org/2000/svg" xmlns:xlink="http://www.w3.org/1999/xlink" viewBox="0 0 28.2461 27.9043">
 <g>
  <rect height="27.9043" opacity="0" width="28.2461" x="0" y="0"/>
  <path d="M13.9453 27.8906C21.6426 27.8906 27.8906 21.6289 27.8906 13.9453C27.8906 6.24805 21.6426 0 13.9453 0C6.26172 0 0 6.24805 0 13.9453C0 21.6289 6.26172 27.8906 13.9453 27.8906Z" fill="white" fill-opacity="0.85"/>
  <path d="M10.2676 20.4121C9.57031 20.4121 9.14648 19.9336 9.14648 19.127L9.14648 8.50391C9.14648 7.69727 9.57031 7.21875 10.2676 7.21875C11.0059 7.21875 11.416 7.69727 11.416 8.50391L11.416 13.3301L11.498 13.3301L17.0488 7.66992C17.377 7.35547 17.623 7.21875 17.9648 7.21875C18.5527 7.21875 19.0039 7.65625 19.0039 8.18945C19.0039 8.50391 18.9082 8.73633 18.6484 9.00977L14.793 12.9746L18.9902 18.4844C19.1953 18.7578 19.3184 19.0586 19.3184 19.3457C19.3184 19.9609 18.8672 20.4121 18.2246 20.4121C17.8281 20.4121 17.5273 20.2344 17.2402 19.8516L13.1387 14.4375L11.416 16.2148L11.416 19.127C11.416 19.9336 11.0059 20.4121 10.2676 20.4121Z" fill="white"/>
 </g>
</svg>
