<?xml version="1.0" encoding="UTF-8"?>
<!--Generator: Apple Native CoreSVG 326-->
<!DOCTYPE svg
PUBLIC "-//W3C//DTD SVG 1.1//EN"
       "http://www.w3.org/Graphics/SVG/1.1/DTD/svg11.dtd">
<svg version="1.1" xmlns="http://www.w3.org/2000/svg" xmlns:xlink="http://www.w3.org/1999/xlink" viewBox="0 0 15.0938 20.248">
 <g>
  <rect height="20.248" opacity="0" width="15.0938" x="0" y="0"/>
  <path d="M1.24414 20.248C2.02344 20.248 2.5293 19.7559 2.5293 18.9766L2.5293 13.3027L4.85352 10.8281L12.291 19.5645C12.7285 20.0703 13.0293 20.248 13.4941 20.248C14.2188 20.248 14.7383 19.7559 14.7383 19.0859C14.7383 18.7441 14.5742 18.4023 14.2461 18.0195L6.64453 9.03711L13.5078 1.98242C13.7812 1.69531 13.9043 1.43555 13.9043 1.13477C13.9043 0.519531 13.3984 0.0410156 12.7695 0.0410156C12.4004 0.0410156 12.1133 0.150391 11.7578 0.519531L2.65234 10.0625L2.5293 10.0625L2.5293 1.29883C2.5293 0.533203 2.02344 0.0410156 1.24414 0.0410156C0.478516 0.0410156 0 0.533203 0 1.29883L0 18.9766C0 19.7559 0.478516 20.248 1.24414 20.248Z" fill="white" fill-opacity="0.85"/>
 </g>
</svg>
