<svg version="1.1" xmlns="http://www.w3.org/2000/svg" xmlns:xlink="http://www.w3.org/1999/xlink" viewBox="0 0 25.5254 25.1699">
 <g>
  
  <path d="M4.29297 25.1699L20.877 25.1699C23.748 25.1699 25.1699 23.7617 25.1699 20.9453L25.1699 4.23828C25.1699 1.42188 23.748 0 20.877 0L4.29297 0C1.43555 0 0 1.42188 0 4.23828L0 20.9453C0 23.7617 1.43555 25.1699 4.29297 25.1699ZM4.32031 22.9688C2.95312 22.9688 2.20117 22.2441 2.20117 20.8223L2.20117 4.36133C2.20117 2.93945 2.95312 2.20117 4.32031 2.20117L20.8496 2.20117C22.2031 2.20117 22.9688 2.93945 22.9688 4.36133L22.9688 20.8223C22.9688 22.2441 22.2031 22.9688 20.8496 22.9688Z" style="fill:var(--color-0,hsl(0 0 0/0.85))"></path>
  <path d="M9.02344 18.8398C9.73438 18.8398 10.1309 18.375 10.1309 17.6094L10.1309 14.7656L11.7988 13.043L15.791 18.3066C16.0645 18.6758 16.3516 18.8398 16.7344 18.8398C17.3496 18.8398 17.7871 18.4023 17.7871 17.8145C17.7871 17.541 17.6777 17.2402 17.4863 16.9805L13.3984 11.6348L17.1582 7.7793C17.3906 7.51953 17.4863 7.28711 17.4863 6.98633C17.4863 6.48047 17.0488 6.05664 16.4883 6.05664C16.1465 6.05664 15.9141 6.17969 15.5996 6.49414L10.2129 11.9902L10.1309 11.9902L10.1309 7.28711C10.1309 6.52148 9.73438 6.05664 9.02344 6.05664C8.35352 6.05664 7.94336 6.52148 7.94336 7.28711L7.94336 17.6094C7.94336 18.375 8.35352 18.8398 9.02344 18.8398Z" style="fill:var(--color-1,hsl(0 0 0/0.85))"></path>
 </g>
</svg>