<?xml version="1.0" encoding="UTF-8"?>
<!--Generator: Apple Native CoreSVG 326-->
<!DOCTYPE svg
PUBLIC "-//W3C//DTD SVG 1.1//EN"
       "http://www.w3.org/Graphics/SVG/1.1/DTD/svg11.dtd">
<svg version="1.1" xmlns="http://www.w3.org/2000/svg" xmlns:xlink="http://www.w3.org/1999/xlink" viewBox="0 0 32.0742 29.3262">
 <g>
  <rect height="29.3262" opacity="0" width="32.0742" x="0" y="0"/>
  <path d="M27.4395 24.0488C27.9453 24.3906 28.5742 24.2676 28.9434 23.748C30.6934 21.3418 31.7188 18.0332 31.7188 14.6562C31.7188 11.2793 30.707 7.94336 28.9434 5.56445C28.5742 5.04492 27.9453 4.92188 27.4395 5.26367C26.9336 5.60547 26.8516 6.24805 27.248 6.80859C28.7383 8.91406 29.5996 11.7441 29.5996 14.6562C29.5996 17.5684 28.7109 20.3711 27.248 22.5039C26.8652 23.0645 26.9336 23.707 27.4395 24.0488Z" fill="white" fill-opacity="0.85"/>
  <path d="M22.3672 20.4805C22.832 20.7949 23.4746 20.6992 23.8438 20.166C24.8965 18.7852 25.5117 16.748 25.5117 14.6562C25.5117 12.5645 24.8965 10.541 23.8438 9.14648C23.4746 8.61328 22.832 8.50391 22.3672 8.83203C21.8203 9.21484 21.7246 9.89844 22.1484 10.459C22.9551 11.5527 23.3926 13.0703 23.3926 14.6562C23.3926 16.2422 22.9414 17.7461 22.1484 18.8535C21.7383 19.4277 21.8203 20.084 22.3672 20.4805Z" fill="white" fill-opacity="0.85"/>
  <path d="M0 25.1699C0 27.3301 1.35352 29.3125 4.64844 29.3125L13.1113 29.3125C16.4062 29.3125 17.7598 27.3301 17.7598 25.1699L17.7598 4.15625C17.7598 1.99609 16.4062 0 13.1113 0L4.64844 0C1.35352 0 0 1.99609 0 4.15625ZM2.20117 25.1289L2.20117 4.19727C2.20117 3.36328 2.74805 2.20117 4.75781 2.20117L13.002 2.20117C15.0117 2.20117 15.5586 3.36328 15.5586 4.19727L15.5586 25.1289C15.5586 25.9629 15.0117 27.1113 13.002 27.1113L4.75781 27.1113C2.74805 27.1113 2.20117 25.9629 2.20117 25.1289ZM4.01953 5.48242L13.7402 5.48242C13.9316 5.48242 14.082 5.31836 14.082 5.12695L14.082 4.67578C14.082 4.12891 13.6309 3.67773 13.0977 3.67773L4.66211 3.67773C4.12891 3.67773 3.67773 4.12891 3.67773 4.67578L3.67773 5.12695C3.67773 5.31836 3.82812 5.48242 4.01953 5.48242ZM8.90039 9.21484C6.67188 9.21484 4.9082 10.9785 4.9082 13.1797C4.9082 14.8203 5.87891 16.2832 7.41016 16.8848L7.41016 22.8457C7.41016 23.0234 7.46484 23.1602 7.60156 23.2969L8.61328 24.3223C8.73633 24.4453 8.99609 24.4727 9.16016 24.3223L11.1016 22.3945C11.2793 22.2305 11.2656 21.998 11.1016 21.8203L9.9668 20.7129L11.5391 19.127C11.6895 18.9766 11.6895 18.7441 11.5391 18.5801L9.99414 17.0215C11.8262 16.2559 12.8652 14.8477 12.8652 13.1797C12.8652 10.9922 11.0879 9.21484 8.90039 9.21484ZM8.88672 13.0156C8.25781 13.0156 7.76562 12.5098 7.76562 11.9082C7.76562 11.293 8.24414 10.8008 8.88672 10.8008C9.48828 10.8008 9.98047 11.293 9.98047 11.9082C9.98047 12.5098 9.48828 13.0156 8.88672 13.0156Z" fill="white" fill-opacity="0.85"/>
 </g>
</svg>
