<?xml version="1.0" encoding="UTF-8"?>
<!--Generator: Apple Native CoreSVG 326-->
<!DOCTYPE svg
PUBLIC "-//W3C//DTD SVG 1.1//EN"
       "http://www.w3.org/Graphics/SVG/1.1/DTD/svg11.dtd">
<svg version="1.1" xmlns="http://www.w3.org/2000/svg" xmlns:xlink="http://www.w3.org/1999/xlink" viewBox="0 0 25.3756 38.1309">
 <g>
  <rect height="38.1309" opacity="0" width="25.3756" x="0" y="0"/>
  <path d="M21.807 37.8984C22.0394 37.9941 22.4495 37.9531 22.6273 37.5977L24.9378 32.5664C25.1156 32.2246 24.9652 31.9238 24.6507 31.7598L21.5609 30.3105L23.5433 26.0859C23.6937 25.7578 23.557 25.416 23.1878 25.2383L19.0042 23.2422C22.0531 20.5215 23.0921 17.1582 21.93 13.959C21.3831 12.4688 20.4534 11.252 19.264 10.377C18.6488 12.2773 17.3636 13.8496 15.6683 14.8477C15.6546 15.5859 15.1761 16.2695 14.4378 16.543C13.4124 16.9258 12.2777 16.3789 11.9085 15.3398C11.5257 14.3418 12.0452 13.207 13.0843 12.8242C13.6995 12.6055 14.3831 12.7012 14.8753 13.0703C16.1741 12.25 17.1585 10.9238 17.5003 9.35156C15.7366 8.64062 13.7406 8.55859 11.8265 9.25586C7.68392 10.7598 5.61946 15.2441 7.09602 19.3457C8.23079 22.4629 11.0882 24.541 14.3831 24.5684L18.5531 36.0254C18.6624 36.3262 18.8265 36.5176 19.1273 36.6543ZM2.17415 37.502L7.19173 35.1504C7.53352 35 7.65657 34.6582 7.49251 34.3438L6.05696 31.2402L10.2952 29.2852C10.596 29.1211 10.7327 28.7793 10.5687 28.4102L9.13313 25.2656C9.13313 25.1289 9.13313 24.9922 9.13313 24.8418C7.41048 23.8301 6.01595 22.1074 5.26399 20.0293C3.66438 15.6133 5.41438 10.7461 9.54329 8.42188C6.07063 8.38086 3.18587 10.3906 2.01009 13.5488C0.875321 16.6523 1.75032 20.084 4.25227 22.2305L0.0686806 33.6875C-0.0270225 33.9883-0.0270225 34.2617 0.0960244 34.5352L1.38118 37.2148C1.47688 37.4473 1.83235 37.6797 2.17415 37.502ZM4.19759 10.7324L5.9886 9.99414C5.76985 9.36523 5.66048 8.68164 5.66048 7.9707C5.66048 4.62109 8.28548 1.95508 11.6214 1.95508C14.971 1.95508 17.6507 4.62109 17.6507 7.9707C17.6507 8.43555 17.6234 8.94141 17.5003 9.35156C18.1292 9.59766 18.7171 9.95312 19.264 10.377C19.4827 9.65234 19.6331 8.77734 19.6331 7.9707C19.6331 3.60938 16.0101 0 11.6351 0C7.28743 0 3.69173 3.60938 3.69173 7.9707C3.69173 8.94141 3.86946 9.88477 4.19759 10.7324Z" fill="white" fill-opacity="0.85"/>
 </g>
</svg>
