<?xml version="1.0" encoding="UTF-8"?>
<!--Generator: Apple Native CoreSVG 326-->
<!DOCTYPE svg
PUBLIC "-//W3C//DTD SVG 1.1//EN"
       "http://www.w3.org/Graphics/SVG/1.1/DTD/svg11.dtd">
<svg version="1.1" xmlns="http://www.w3.org/2000/svg" xmlns:xlink="http://www.w3.org/1999/xlink" viewBox="0 0 18.1152 29.3262">
 <g>
  <rect height="29.3262" opacity="0" width="18.1152" x="0" y="0"/>
  <path d="M0 25.1699C0 27.3301 1.35352 29.3125 4.64844 29.3125L13.1113 29.3125C16.4062 29.3125 17.7598 27.3301 17.7598 25.1699L17.7598 4.15625C17.7598 1.99609 16.4062 0 13.1113 0L4.64844 0C1.35352 0 0 1.99609 0 4.15625ZM3.86914 5.22266C3.67773 5.22266 3.51367 5.04492 3.51367 4.85352L3.51367 4.38867C3.51367 3.82812 3.99219 3.36328 4.53906 3.36328L13.2207 3.36328C13.7676 3.36328 14.2461 3.82812 14.2461 4.38867L14.2461 4.85352C14.2461 5.04492 14.082 5.22266 13.8906 5.22266Z" fill="white" fill-opacity="0.85"/>
  <path d="M8.90039 9.06445C11.1562 9.06445 12.9883 10.8965 12.9883 13.1523C12.9883 14.875 11.9219 16.3242 10.0352 17.1172L11.6211 18.7168C11.7715 18.8809 11.7715 19.127 11.6211 19.2773L10.0078 20.918L11.1699 22.0527C11.334 22.2441 11.3613 22.4766 11.1699 22.6543L9.17383 24.6367C8.99609 24.7871 8.73633 24.7598 8.59961 24.6367L7.56055 23.5703C7.42383 23.4336 7.36914 23.2969 7.36914 23.1191L7.36914 16.9668C5.7832 16.3516 4.78516 14.8477 4.78516 13.1523C4.78516 10.8828 6.60352 9.06445 8.90039 9.06445ZM8.88672 12.9746C9.50195 12.9746 10.0078 12.4551 10.0078 11.8398C10.0078 11.2109 9.50195 10.7051 8.88672 10.7051C8.23047 10.7051 7.73828 11.2109 7.73828 11.8398C7.73828 12.4551 8.24414 12.9746 8.88672 12.9746Z" fill="white"/>
 </g>
</svg>
