<svg version="1.1" xmlns="http://www.w3.org/2000/svg" xmlns:xlink="http://www.w3.org/1999/xlink" viewBox="0 0 31.0078 35.179">
 <g>
  
  <path d="M26.373 18.9772C26.8789 19.319 27.5078 19.2096 27.8633 18.6764C29.6133 16.2702 30.6523 12.9616 30.6523 9.58461C30.6523 6.20766 29.627 2.87172 27.8633 0.492815C27.5078-0.0267164 26.8789-0.149763 26.373 0.192034C25.8672 0.53383 25.7852 1.17641 26.1816 1.73696C27.6719 3.8561 28.5332 6.6725 28.5332 9.58461C28.5332 12.5104 27.6445 15.3131 26.1816 17.4323C25.7988 17.9928 25.8672 18.6354 26.373 18.9772Z" style="fill:var(--color-0,hsl(0 0 0/0.85))"></path>
  <path d="M21.3008 15.4225C21.7656 15.737 22.4082 15.6276 22.7773 15.108C23.8164 13.7135 24.4453 11.6764 24.4453 9.58461C24.4453 7.49281 23.8164 5.46938 22.7773 4.07485C22.4082 3.54164 21.7656 3.44594 21.3008 3.77406C20.7539 4.15688 20.6582 4.8268 21.082 5.38735C21.8887 6.4811 22.3262 7.99867 22.3262 9.58461C22.3262 11.1705 21.875 12.6745 21.082 13.7819C20.6719 14.3561 20.7539 15.026 21.3008 15.4225Z" style="fill:var(--color-1,hsl(0 0 0/0.85))"></path>
  <path d="M8.18945 34.153C8.76367 34.6315 9.54297 34.6998 10.0898 34.1666L14.3145 29.942C14.8477 29.3952 14.8203 28.5748 14.3008 28.0416L12.1816 25.9362L15.2715 22.86C15.8047 22.3405 15.7773 21.5065 15.2578 20.9596L12.4004 18.0885C16.1602 16.2838 18.2793 13.2213 18.2793 9.58461C18.2793 4.53969 14.1914 0.465471 9.14648 0.465471C4.06055 0.465471 0 4.51235 0 9.58461C0 13.2487 2.10547 16.5026 5.42773 17.9655L5.42773 30.8717C5.42773 31.3229 5.56445 31.8424 5.96094 32.1979ZM9.14648 31.9928L7.62891 30.4889L7.62891 16.3795C4.41602 15.6549 2.1875 12.8795 2.1875 9.58461C2.1875 5.75649 5.29102 2.66664 9.14648 2.66664C12.9883 2.66664 16.0781 5.75649 16.0781 9.58461C16.0781 12.8522 13.8359 15.6549 10.4043 16.4752L10.4043 19.237L13.084 21.9303L10.1855 24.7877L10.1855 27.0573L12.127 28.9713ZM9.14648 9.17446C10.3633 9.17446 11.3613 8.17641 11.3613 6.94594C11.3613 5.72914 10.3633 4.74477 9.14648 4.74477C7.90234 4.74477 6.93164 5.72914 6.93164 6.94594C6.93164 8.17641 7.91602 9.17446 9.14648 9.17446Z" style="fill:var(--color-2,hsl(0 0 0/0.85))"></path>
 </g>
</svg>