<svg version="1.1" xmlns="http://www.w3.org/2000/svg" xmlns:xlink="http://www.w3.org/1999/xlink" viewBox="0 0 34.7266 25.9902">
 <g>
  
  <path d="M27.0156 23.7617C31.1445 23.7617 34.3711 20.7402 34.3711 16.9805C34.3711 14.1094 32.7168 11.6211 30.0508 10.5C30.0781 4.40234 25.6895 0 20.0977 0C16.3926 0 13.7539 1.98242 12.1133 4.375C8.75 3.39062 5.08594 5.94727 5.01758 9.77539C1.92773 10.2676 0 13.0293 0 16.3652C0 20.3848 3.51367 23.7617 8.18945 23.7617ZM27.0156 21.5605L8.18945 21.5605C4.74414 21.5605 2.20117 19.1543 2.20117 16.3652C2.20117 13.6309 3.85547 11.457 6.75391 11.457C6.94531 11.457 7.01367 11.3613 7.01367 11.1836C7.01367 6.97266 10.0488 5.72852 12.8516 6.64453C13.0156 6.69922 13.1113 6.6582 13.1934 6.50781C14.5195 4.14258 16.5566 2.20117 20.0977 2.20117C24.582 2.20117 27.6855 5.75586 27.918 9.81641C27.959 10.4453 27.918 11.1836 27.8633 11.8262C27.8496 12.0039 27.918 12.0996 28.082 12.1406C30.5703 12.6875 32.1699 14.5059 32.1699 16.9805C32.1699 19.5234 29.9277 21.5605 27.0156 21.5605Z" style="fill:var(--color-0,hsl(0 0 0/0.85))"></path>
  <path d="M24.6914 13.4668C24.6914 11.1973 22.873 9.39258 20.6309 9.39258C18.9219 9.39258 17.418 10.4043 16.8027 12.0039L10.5137 12.0039C10.3633 12.0039 10.2402 12.0449 10.1035 12.1816L9.05078 13.248C8.92773 13.3574 8.91406 13.5625 9.05078 13.6855L11.0469 15.709C11.1836 15.8457 11.3887 15.8457 11.5117 15.709L12.7559 14.4512L14.4785 16.1875C14.5879 16.3105 14.7793 16.2969 14.916 16.1602L16.6387 14.4648C17.4316 16.4336 18.8809 17.5273 20.6309 17.5273C22.873 17.5273 24.6914 15.7227 24.6914 13.4668ZM22.7363 13.4531C22.7363 14.1367 22.1758 14.6973 21.4922 14.6973C20.7812 14.6973 20.2207 14.1367 20.2207 13.4531C20.2207 12.7695 20.7812 12.209 21.4922 12.209C22.1758 12.209 22.7363 12.7559 22.7363 13.4531Z" style="fill:var(--color-1,hsl(0 0 0/0.85))"></path>
 </g>
</svg>