<svg version="1.1" xmlns="http://www.w3.org/2000/svg" xmlns:xlink="http://www.w3.org/1999/xlink" viewBox="0 0 17.8145 33.9428">
 <g>
  
  <path d="M8.73633 0.202863C3.86914 0.202863 0 4.072 0 8.91185C0 12.5622 2.1875 15.7888 5.60547 17.0876L5.60547 30.5818C5.60547 30.9236 5.71484 31.1833 5.96094 31.4431L8.24414 33.74C8.47656 33.9724 8.94141 34.0408 9.22852 33.7536L13.5625 29.4197C13.8496 29.1189 13.8359 28.7224 13.5625 28.4353L10.8691 25.7829L14.5605 22.1052C14.8203 21.8318 14.8203 21.4353 14.5332 21.1345L10.8828 17.4568C15.1074 15.7751 17.459 12.6579 17.459 8.91185C17.459 4.09935 13.5625 0.202863 8.73633 0.202863ZM8.73633 8.21458C7.46484 8.21458 6.45312 7.18919 6.45312 5.93138C6.45312 4.65989 7.45117 3.64818 8.73633 3.64818C9.99414 3.64818 11.0195 4.65989 11.0195 5.93138C11.0195 7.18919 9.99414 8.21458 8.73633 8.21458Z" style="fill:var(--color-0,hsl(0 0 0/0.85))"></path>
 </g>
</svg>