<svg version="1.1" xmlns="http://www.w3.org/2000/svg" xmlns:xlink="http://www.w3.org/1999/xlink" viewBox="0 0 27.125 26.7832">
 <g>
  
  <path d="M1.09375 8.72266C1.81836 8.72266 2.20117 8.3125 2.20117 7.60156L2.20117 4.375C2.20117 2.95312 2.95312 2.22852 4.32031 2.22852L7.62891 2.22852C8.35352 2.22852 8.75 1.83203 8.75 1.12109C8.75 0.410156 8.35352 0.0273438 7.62891 0.0273438L4.29297 0.0273438C1.43555 0.0273438 0 1.43555 0 4.25195L0 7.60156C0 8.3125 0.396484 8.72266 1.09375 8.72266ZM25.6621 8.72266C26.3867 8.72266 26.7695 8.3125 26.7695 7.60156L26.7695 4.25195C26.7695 1.43555 25.334 0.0273438 22.4766 0.0273438L19.127 0.0273438C18.416 0.0273438 18.0195 0.410156 18.0195 1.12109C18.0195 1.83203 18.416 2.22852 19.127 2.22852L22.4355 2.22852C23.7891 2.22852 24.5684 2.95312 24.5684 4.375L24.5684 7.60156C24.5684 8.3125 24.9648 8.72266 25.6621 8.72266ZM4.29297 26.7832L7.62891 26.7832C8.35352 26.7832 8.75 26.3867 8.75 25.6895C8.75 24.9785 8.35352 24.582 7.62891 24.582L4.32031 24.582C2.95312 24.582 2.20117 23.8574 2.20117 22.4355L2.20117 19.209C2.20117 18.4844 1.80469 18.0879 1.09375 18.0879C0.382812 18.0879 0 18.4844 0 19.209L0 22.5449C0 25.375 1.43555 26.7832 4.29297 26.7832ZM19.127 26.7832L22.4766 26.7832C25.334 26.7832 26.7695 25.3613 26.7695 22.5449L26.7695 19.209C26.7695 18.4844 26.373 18.0879 25.6621 18.0879C24.9512 18.0879 24.5684 18.4844 24.5684 19.209L24.5684 22.4355C24.5684 23.8574 23.7891 24.582 22.4355 24.582L19.127 24.582C18.416 24.582 18.0195 24.9785 18.0195 25.6895C18.0195 26.3867 18.416 26.7832 19.127 26.7832Z" style="fill:var(--color-0,hsl(0 0 0/0.85))"></path>
  <path d="M13.3984 5.05859C10.8691 5.05859 8.85938 7.08203 8.85938 9.58398C8.85938 11.498 9.99414 13.1523 11.7441 13.8359L11.7441 20.8496C11.7578 21.0273 11.8262 21.1641 11.9629 21.3008L13.1387 22.4902C13.2891 22.627 13.4805 22.6406 13.6309 22.4902L15.8867 20.248C16.0508 20.0977 16.0508 19.8789 15.8867 19.7422L14.4922 18.3477L16.4199 16.4473C16.5566 16.3242 16.543 16.1055 16.3926 15.9414L14.4922 14.0273C16.6934 13.1523 17.9102 11.5391 17.9102 9.58398C17.9102 7.0957 15.8867 5.05859 13.3984 5.05859ZM13.3848 7.19141C14.1504 7.19141 14.7656 7.82031 14.7656 8.58594C14.7656 9.37891 14.1504 10.0078 13.3848 10.0078C12.6191 10.0078 11.9766 9.37891 11.9766 8.58594C11.9766 7.82031 12.6055 7.19141 13.3848 7.19141Z" style="fill:var(--color-1,hsl(0 0 0/0.85))"></path>
 </g>
</svg>