<svg version="1.1" xmlns="http://www.w3.org/2000/svg" xmlns:xlink="http://www.w3.org/1999/xlink" viewBox="0 0 34.7676 21.6152">
 <g>
  
  <path d="M4.29297 21.6016L30.1191 21.6016C32.9629 21.6016 34.4121 20.1797 34.4121 17.3633L34.4121 4.22461C34.4121 1.42188 32.9629 0 30.1191 0L4.29297 0C1.42188 0 0 1.4082 0 4.22461L0 17.3633C0 20.1797 1.42188 21.6016 4.29297 21.6016ZM4.32031 19.4004C2.95312 19.4004 2.20117 18.6621 2.20117 17.2402L2.20117 4.34766C2.20117 2.92578 2.95312 2.20117 4.32031 2.20117L30.0781 2.20117C31.4316 2.20117 32.2109 2.92578 32.2109 4.34766L32.2109 17.2402C32.2109 18.6621 31.4316 19.4004 30.0781 19.4004ZM5.55078 7.61523L6.80859 7.61523C7.19141 7.61523 7.42383 7.38281 7.42383 7.01367L7.42383 5.75586C7.42383 5.37305 7.19141 5.14062 6.80859 5.14062L5.55078 5.14062C5.18164 5.14062 4.94922 5.37305 4.94922 5.75586L4.94922 7.01367C4.94922 7.38281 5.18164 7.61523 5.55078 7.61523ZM9.95312 7.61523L11.2109 7.61523C11.5801 7.61523 11.8125 7.38281 11.8125 7.01367L11.8125 5.75586C11.8125 5.37305 11.5801 5.14062 11.2109 5.14062L9.95312 5.14062C9.57031 5.14062 9.33789 5.37305 9.33789 5.75586L9.33789 7.01367C9.33789 7.38281 9.57031 7.61523 9.95312 7.61523ZM14.3555 7.61523L15.5996 7.61523C15.9824 7.61523 16.2148 7.38281 16.2148 7.01367L16.2148 5.75586C16.2148 5.37305 15.9824 5.14062 15.5996 5.14062L14.3555 5.14062C13.9727 5.14062 13.7402 5.37305 13.7402 5.75586L13.7402 7.01367C13.7402 7.38281 13.9727 7.61523 14.3555 7.61523ZM18.7441 7.61523L20.002 7.61523C20.3848 7.61523 20.6172 7.38281 20.6172 7.01367L20.6172 5.75586C20.6172 5.37305 20.3848 5.14062 20.002 5.14062L18.7441 5.14062C18.375 5.14062 18.1426 5.37305 18.1426 5.75586L18.1426 7.01367C18.1426 7.38281 18.375 7.61523 18.7441 7.61523ZM23.1465 7.61523L24.4043 7.61523C24.7734 7.61523 25.0059 7.38281 25.0059 7.01367L25.0059 5.75586C25.0059 5.37305 24.7734 5.14062 24.4043 5.14062L23.1465 5.14062C22.7637 5.14062 22.5312 5.37305 22.5312 5.75586L22.5312 7.01367C22.5312 7.38281 22.7637 7.61523 23.1465 7.61523ZM27.5488 7.61523L28.793 7.61523C29.1758 7.61523 29.4082 7.38281 29.4082 7.01367L29.4082 5.75586C29.4082 5.37305 29.1758 5.14062 28.793 5.14062L27.5488 5.14062C27.166 5.14062 26.9336 5.37305 26.9336 5.75586L26.9336 7.01367C26.9336 7.38281 27.166 7.61523 27.5488 7.61523ZM5.55078 12.0176L6.80859 12.0176C7.19141 12.0176 7.42383 11.7852 7.42383 11.4023L7.42383 10.1582C7.42383 9.77539 7.19141 9.54297 6.80859 9.54297L5.55078 9.54297C5.18164 9.54297 4.94922 9.77539 4.94922 10.1582L4.94922 11.4023C4.94922 11.7852 5.18164 12.0176 5.55078 12.0176ZM9.95312 12.0176L11.2109 12.0176C11.5801 12.0176 11.8125 11.7852 11.8125 11.4023L11.8125 10.1582C11.8125 9.77539 11.5801 9.54297 11.2109 9.54297L9.95312 9.54297C9.57031 9.54297 9.33789 9.77539 9.33789 10.1582L9.33789 11.4023C9.33789 11.7852 9.57031 12.0176 9.95312 12.0176ZM14.3555 12.0176L15.5996 12.0176C15.9824 12.0176 16.2148 11.7852 16.2148 11.4023L16.2148 10.1582C16.2148 9.77539 15.9824 9.54297 15.5996 9.54297L14.3555 9.54297C13.9727 9.54297 13.7402 9.77539 13.7402 10.1582L13.7402 11.4023C13.7402 11.7852 13.9727 12.0176 14.3555 12.0176ZM18.7441 12.0176L20.002 12.0176C20.3848 12.0176 20.6172 11.7852 20.6172 11.4023L20.6172 10.1582C20.6172 9.77539 20.3848 9.54297 20.002 9.54297L18.7441 9.54297C18.375 9.54297 18.1426 9.77539 18.1426 10.1582L18.1426 11.4023C18.1426 11.7852 18.375 12.0176 18.7441 12.0176ZM23.1465 12.0176L24.4043 12.0176C24.7734 12.0176 25.0059 11.7852 25.0059 11.4023L25.0059 10.1582C25.0059 9.77539 24.7734 9.54297 24.4043 9.54297L23.1465 9.54297C22.7637 9.54297 22.5312 9.77539 22.5312 10.1582L22.5312 11.4023C22.5312 11.7852 22.7637 12.0176 23.1465 12.0176ZM27.5488 12.0176L28.793 12.0176C29.1758 12.0176 29.4082 11.7852 29.4082 11.4023L29.4082 10.1582C29.4082 9.77539 29.1758 9.54297 28.793 9.54297L27.5488 9.54297C27.166 9.54297 26.9336 9.77539 26.9336 10.1582L26.9336 11.4023C26.9336 11.7852 27.166 12.0176 27.5488 12.0176ZM5.55078 16.4199L6.80859 16.4199C7.19141 16.4199 7.42383 16.1875 7.42383 15.8047L7.42383 14.5469C7.42383 14.1777 7.19141 13.9453 6.80859 13.9453L5.55078 13.9453C5.18164 13.9453 4.94922 14.1777 4.94922 14.5469L4.94922 15.8047C4.94922 16.1875 5.18164 16.4199 5.55078 16.4199ZM10.0898 16.4199L24.2676 16.4199C24.7324 16.4199 25.0059 16.1465 25.0059 15.668L25.0059 14.6836C25.0059 14.2188 24.7324 13.9453 24.2676 13.9453L10.0898 13.9453C9.61133 13.9453 9.33789 14.2188 9.33789 14.6836L9.33789 15.668C9.33789 16.1465 9.61133 16.4199 10.0898 16.4199ZM27.5488 16.4199L28.793 16.4199C29.1758 16.4199 29.4082 16.1875 29.4082 15.8047L29.4082 14.5469C29.4082 14.1777 29.1758 13.9453 28.793 13.9453L27.5488 13.9453C27.166 13.9453 26.9336 14.1777 26.9336 14.5469L26.9336 15.8047C26.9336 16.1875 27.166 16.4199 27.5488 16.4199Z" style="fill:var(--color-0,hsl(0 0 0/0.85))"></path>
 </g>
</svg>