<?xml version="1.0" encoding="UTF-8"?>
<!--Generator: Apple Native CoreSVG 326-->
<!DOCTYPE svg
PUBLIC "-//W3C//DTD SVG 1.1//EN"
       "http://www.w3.org/Graphics/SVG/1.1/DTD/svg11.dtd">
<svg version="1.1" xmlns="http://www.w3.org/2000/svg" xmlns:xlink="http://www.w3.org/1999/xlink" viewBox="0 0 44.4131 21.6152">
 <g>
  <rect height="21.6152" opacity="0" width="44.4131" x="0" y="0"/>
  <path d="M13.9351 21.6016L39.7612 21.6016C42.605 21.6016 44.0542 20.1797 44.0542 17.3633L44.0542 4.22461C44.0542 1.42188 42.605 0 39.7612 0L13.9351 0C11.064 0 9.64209 1.4082 9.64209 4.22461L9.64209 17.3633C9.64209 20.1797 11.064 21.6016 13.9351 21.6016ZM14.8374 7.51953C14.4409 7.51953 14.2085 7.27344 14.2085 6.89062L14.2085 5.5918C14.2085 5.20898 14.4409 4.96289 14.8374 4.96289L16.1226 4.96289C16.519 4.96289 16.7651 5.20898 16.7651 5.5918L16.7651 6.89062C16.7651 7.27344 16.519 7.51953 16.1226 7.51953ZM19.3628 7.51953C18.9663 7.51953 18.7339 7.27344 18.7339 6.89062L18.7339 5.5918C18.7339 5.20898 18.9663 4.96289 19.3628 4.96289L20.6616 4.96289C21.0581 4.96289 21.3042 5.20898 21.3042 5.5918L21.3042 6.89062C21.3042 7.27344 21.0581 7.51953 20.6616 7.51953ZM23.9019 7.51953C23.519 7.51953 23.2729 7.27344 23.2729 6.89062L23.2729 5.5918C23.2729 5.20898 23.519 4.96289 23.9019 4.96289L25.187 4.96289C25.5835 4.96289 25.8296 5.20898 25.8296 5.5918L25.8296 6.89062C25.8296 7.27344 25.5835 7.51953 25.187 7.51953ZM28.4546 7.51953C28.0581 7.51953 27.812 7.27344 27.812 6.89062L27.812 5.5918C27.812 5.20898 28.0581 4.96289 28.4546 4.96289L29.7397 4.96289C30.1226 4.96289 30.3687 5.20898 30.3687 5.5918L30.3687 6.89062C30.3687 7.27344 30.1226 7.51953 29.7397 7.51953ZM32.98 7.51953C32.5835 7.51953 32.3374 7.27344 32.3374 6.89062L32.3374 5.5918C32.3374 5.20898 32.5835 4.96289 32.98 4.96289L34.2788 4.96289C34.6616 4.96289 34.9077 5.20898 34.9077 5.5918L34.9077 6.89062C34.9077 7.27344 34.6616 7.51953 34.2788 7.51953ZM37.519 7.51953C37.1226 7.51953 36.8765 7.27344 36.8765 6.89062L36.8765 5.5918C36.8765 5.20898 37.1226 4.96289 37.519 4.96289L38.8042 4.96289C39.2007 4.96289 39.4331 5.20898 39.4331 5.5918L39.4331 6.89062C39.4331 7.27344 39.2007 7.51953 38.8042 7.51953ZM14.8374 12.0586C14.4409 12.0586 14.2085 11.8125 14.2085 11.4297L14.2085 10.1309C14.2085 9.74805 14.4409 9.50195 14.8374 9.50195L16.1226 9.50195C16.519 9.50195 16.7651 9.74805 16.7651 10.1309L16.7651 11.4297C16.7651 11.8125 16.519 12.0586 16.1226 12.0586ZM19.3628 12.0586C18.9663 12.0586 18.7339 11.8125 18.7339 11.4297L18.7339 10.1309C18.7339 9.74805 18.9663 9.50195 19.3628 9.50195L20.6616 9.50195C21.0581 9.50195 21.3042 9.74805 21.3042 10.1309L21.3042 11.4297C21.3042 11.8125 21.0581 12.0586 20.6616 12.0586ZM23.9019 12.0586C23.519 12.0586 23.2729 11.8125 23.2729 11.4297L23.2729 10.1309C23.2729 9.74805 23.519 9.50195 23.9019 9.50195L25.187 9.50195C25.5835 9.50195 25.8296 9.74805 25.8296 10.1309L25.8296 11.4297C25.8296 11.8125 25.5835 12.0586 25.187 12.0586ZM28.4546 12.0586C28.0581 12.0586 27.812 11.8125 27.812 11.4297L27.812 10.1309C27.812 9.74805 28.0581 9.50195 28.4546 9.50195L29.7397 9.50195C30.1226 9.50195 30.3687 9.74805 30.3687 10.1309L30.3687 11.4297C30.3687 11.8125 30.1226 12.0586 29.7397 12.0586ZM32.98 12.0586C32.5835 12.0586 32.3374 11.8125 32.3374 11.4297L32.3374 10.1309C32.3374 9.74805 32.5835 9.50195 32.98 9.50195L34.2788 9.50195C34.6616 9.50195 34.9077 9.74805 34.9077 10.1309L34.9077 11.4297C34.9077 11.8125 34.6616 12.0586 34.2788 12.0586ZM37.519 12.0586C37.1226 12.0586 36.8765 11.8125 36.8765 11.4297L36.8765 10.1309C36.8765 9.74805 37.1226 9.50195 37.519 9.50195L38.8042 9.50195C39.2007 9.50195 39.4331 9.74805 39.4331 10.1309L39.4331 11.4297C39.4331 11.8125 39.2007 12.0586 38.8042 12.0586ZM14.8374 16.5977C14.4409 16.5977 14.2085 16.3516 14.2085 15.9688L14.2085 14.6699C14.2085 14.2871 14.4409 14.041 14.8374 14.041L16.1226 14.041C16.519 14.041 16.7651 14.2871 16.7651 14.6699L16.7651 15.9688C16.7651 16.3516 16.519 16.5977 16.1226 16.5977ZM19.5132 16.5977C19.021 16.5977 18.7339 16.3105 18.7339 15.8184L18.7339 14.8066C18.7339 14.3281 19.021 14.041 19.5132 14.041L34.1284 14.041C34.6069 14.041 34.9077 14.3281 34.9077 14.8066L34.9077 15.8184C34.9077 16.3105 34.6069 16.5977 34.1284 16.5977ZM37.519 16.5977C37.1226 16.5977 36.8765 16.3516 36.8765 15.9688L36.8765 14.6699C36.8765 14.2871 37.1226 14.041 37.519 14.041L38.8042 14.041C39.2007 14.041 39.4331 14.2871 39.4331 14.6699L39.4331 15.9688C39.4331 16.3516 39.2007 16.5977 38.8042 16.5977Z" fill="white" fill-opacity="0.85"/>
  <path d="M4.21436 17.1855C5.19873 18.5527 6.89404 17.2676 6.0874 16.1328L2.28662 10.7871L6.0874 5.46875C6.89404 4.34766 5.19873 3.04883 4.21436 4.41602L0.317871 9.83008C-0.105957 10.4316-0.105957 11.1699 0.317871 11.7578Z" fill="white" fill-opacity="0.85"/>
 </g>
</svg>
