<svg version="1.1" xmlns="http://www.w3.org/2000/svg" xmlns:xlink="http://www.w3.org/1999/xlink" viewBox="0 0 34.7676 21.6152">
 <g>
  
  <path d="M4.29297 21.6016L30.1191 21.6016C32.9629 21.6016 34.4121 20.1797 34.4121 17.3633L34.4121 4.22461C34.4121 1.42188 32.9629 0 30.1191 0L4.29297 0C1.42188 0 0 1.4082 0 4.22461L0 17.3633C0 20.1797 1.42188 21.6016 4.29297 21.6016ZM5.18164 7.51953C4.79883 7.51953 4.56641 7.27344 4.56641 6.89062L4.56641 5.5918C4.56641 5.20898 4.79883 4.96289 5.18164 4.96289L6.48047 4.96289C6.87695 4.96289 7.12305 5.20898 7.12305 5.5918L7.12305 6.89062C7.12305 7.27344 6.87695 7.51953 6.48047 7.51953ZM9.7207 7.51953C9.32422 7.51953 9.0918 7.27344 9.0918 6.89062L9.0918 5.5918C9.0918 5.20898 9.32422 4.96289 9.7207 4.96289L11.0195 4.96289C11.4023 4.96289 11.6484 5.20898 11.6484 5.5918L11.6484 6.89062C11.6484 7.27344 11.4023 7.51953 11.0195 7.51953ZM14.2598 7.51953C13.877 7.51953 13.6309 7.27344 13.6309 6.89062L13.6309 5.5918C13.6309 5.20898 13.877 4.96289 14.2598 4.96289L15.5449 4.96289C15.9414 4.96289 16.1875 5.20898 16.1875 5.5918L16.1875 6.89062C16.1875 7.27344 15.9414 7.51953 15.5449 7.51953ZM18.7988 7.51953C18.416 7.51953 18.1699 7.27344 18.1699 6.89062L18.1699 5.5918C18.1699 5.20898 18.416 4.96289 18.7988 4.96289L20.0977 4.96289C20.4805 4.96289 20.7266 5.20898 20.7266 5.5918L20.7266 6.89062C20.7266 7.27344 20.4805 7.51953 20.0977 7.51953ZM23.3379 7.51953C22.9414 7.51953 22.6953 7.27344 22.6953 6.89062L22.6953 5.5918C22.6953 5.20898 22.9414 4.96289 23.3379 4.96289L24.6367 4.96289C25.0195 4.96289 25.252 5.20898 25.252 5.5918L25.252 6.89062C25.252 7.27344 25.0195 7.51953 24.6367 7.51953ZM27.877 7.51953C27.4805 7.51953 27.2344 7.27344 27.2344 6.89062L27.2344 5.5918C27.2344 5.20898 27.4805 4.96289 27.877 4.96289L29.1621 4.96289C29.5586 4.96289 29.791 5.20898 29.791 5.5918L29.791 6.89062C29.791 7.27344 29.5586 7.51953 29.1621 7.51953ZM5.18164 12.0586C4.79883 12.0586 4.56641 11.8125 4.56641 11.4297L4.56641 10.1309C4.56641 9.74805 4.79883 9.50195 5.18164 9.50195L6.48047 9.50195C6.87695 9.50195 7.12305 9.74805 7.12305 10.1309L7.12305 11.4297C7.12305 11.8125 6.87695 12.0586 6.48047 12.0586ZM9.7207 12.0586C9.32422 12.0586 9.0918 11.8125 9.0918 11.4297L9.0918 10.1309C9.0918 9.74805 9.32422 9.50195 9.7207 9.50195L11.0195 9.50195C11.4023 9.50195 11.6484 9.74805 11.6484 10.1309L11.6484 11.4297C11.6484 11.8125 11.4023 12.0586 11.0195 12.0586ZM14.2598 12.0586C13.877 12.0586 13.6309 11.8125 13.6309 11.4297L13.6309 10.1309C13.6309 9.74805 13.877 9.50195 14.2598 9.50195L15.5449 9.50195C15.9414 9.50195 16.1875 9.74805 16.1875 10.1309L16.1875 11.4297C16.1875 11.8125 15.9414 12.0586 15.5449 12.0586ZM18.7988 12.0586C18.416 12.0586 18.1699 11.8125 18.1699 11.4297L18.1699 10.1309C18.1699 9.74805 18.416 9.50195 18.7988 9.50195L20.0977 9.50195C20.4805 9.50195 20.7266 9.74805 20.7266 10.1309L20.7266 11.4297C20.7266 11.8125 20.4805 12.0586 20.0977 12.0586ZM23.3379 12.0586C22.9414 12.0586 22.6953 11.8125 22.6953 11.4297L22.6953 10.1309C22.6953 9.74805 22.9414 9.50195 23.3379 9.50195L24.6367 9.50195C25.0195 9.50195 25.252 9.74805 25.252 10.1309L25.252 11.4297C25.252 11.8125 25.0195 12.0586 24.6367 12.0586ZM27.877 12.0586C27.4805 12.0586 27.2344 11.8125 27.2344 11.4297L27.2344 10.1309C27.2344 9.74805 27.4805 9.50195 27.877 9.50195L29.1621 9.50195C29.5586 9.50195 29.791 9.74805 29.791 10.1309L29.791 11.4297C29.791 11.8125 29.5586 12.0586 29.1621 12.0586ZM5.18164 16.5977C4.79883 16.5977 4.56641 16.3516 4.56641 15.9688L4.56641 14.6699C4.56641 14.2871 4.79883 14.041 5.18164 14.041L6.48047 14.041C6.87695 14.041 7.12305 14.2871 7.12305 14.6699L7.12305 15.9688C7.12305 16.3516 6.87695 16.5977 6.48047 16.5977ZM9.87109 16.5977C9.37891 16.5977 9.0918 16.3105 9.0918 15.8184L9.0918 14.8066C9.0918 14.3281 9.37891 14.041 9.87109 14.041L24.4863 14.041C24.9648 14.041 25.252 14.3281 25.252 14.8066L25.252 15.8184C25.252 16.3105 24.9648 16.5977 24.4863 16.5977ZM27.877 16.5977C27.4805 16.5977 27.2344 16.3516 27.2344 15.9688L27.2344 14.6699C27.2344 14.2871 27.4805 14.041 27.877 14.041L29.1621 14.041C29.5586 14.041 29.791 14.2871 29.791 14.6699L29.791 15.9688C29.791 16.3516 29.5586 16.5977 29.1621 16.5977Z" style="fill:var(--color-0,hsl(0 0 0/0.85))"></path>
 </g>
</svg>