<svg version="1.1" xmlns="http://www.w3.org/2000/svg" xmlns:xlink="http://www.w3.org/1999/xlink" viewBox="0 0 34.7676 36.3809">
 <g>
  
  <path d="M4.29297 28.9844L30.1191 28.9844C32.9629 28.9844 34.4121 27.5625 34.4121 24.7461L34.4121 11.6074C34.4121 8.80469 32.9629 7.38281 30.1191 7.38281L4.29297 7.38281C1.42188 7.38281 0 8.79102 0 11.6074L0 24.7461C0 27.5625 1.42188 28.9844 4.29297 28.9844ZM5.18164 14.9023C4.79883 14.9023 4.56641 14.6562 4.56641 14.2734L4.56641 12.9746C4.56641 12.5918 4.79883 12.3457 5.18164 12.3457L6.48047 12.3457C6.87695 12.3457 7.12305 12.5918 7.12305 12.9746L7.12305 14.2734C7.12305 14.6562 6.87695 14.9023 6.48047 14.9023ZM9.7207 14.9023C9.32422 14.9023 9.0918 14.6562 9.0918 14.2734L9.0918 12.9746C9.0918 12.5918 9.32422 12.3457 9.7207 12.3457L11.0195 12.3457C11.4023 12.3457 11.6484 12.5918 11.6484 12.9746L11.6484 14.2734C11.6484 14.6562 11.4023 14.9023 11.0195 14.9023ZM14.2598 14.9023C13.877 14.9023 13.6309 14.6562 13.6309 14.2734L13.6309 12.9746C13.6309 12.5918 13.877 12.3457 14.2598 12.3457L15.5449 12.3457C15.9414 12.3457 16.1875 12.5918 16.1875 12.9746L16.1875 14.2734C16.1875 14.6562 15.9414 14.9023 15.5449 14.9023ZM18.7988 14.9023C18.416 14.9023 18.1699 14.6562 18.1699 14.2734L18.1699 12.9746C18.1699 12.5918 18.416 12.3457 18.7988 12.3457L20.0977 12.3457C20.4805 12.3457 20.7266 12.5918 20.7266 12.9746L20.7266 14.2734C20.7266 14.6562 20.4805 14.9023 20.0977 14.9023ZM23.3379 14.9023C22.9414 14.9023 22.6953 14.6562 22.6953 14.2734L22.6953 12.9746C22.6953 12.5918 22.9414 12.3457 23.3379 12.3457L24.6367 12.3457C25.0195 12.3457 25.252 12.5918 25.252 12.9746L25.252 14.2734C25.252 14.6562 25.0195 14.9023 24.6367 14.9023ZM27.877 14.9023C27.4805 14.9023 27.2344 14.6562 27.2344 14.2734L27.2344 12.9746C27.2344 12.5918 27.4805 12.3457 27.877 12.3457L29.1621 12.3457C29.5586 12.3457 29.791 12.5918 29.791 12.9746L29.791 14.2734C29.791 14.6562 29.5586 14.9023 29.1621 14.9023ZM5.18164 19.4414C4.79883 19.4414 4.56641 19.1953 4.56641 18.8125L4.56641 17.5137C4.56641 17.1309 4.79883 16.8848 5.18164 16.8848L6.48047 16.8848C6.87695 16.8848 7.12305 17.1309 7.12305 17.5137L7.12305 18.8125C7.12305 19.1953 6.87695 19.4414 6.48047 19.4414ZM9.7207 19.4414C9.32422 19.4414 9.0918 19.1953 9.0918 18.8125L9.0918 17.5137C9.0918 17.1309 9.32422 16.8848 9.7207 16.8848L11.0195 16.8848C11.4023 16.8848 11.6484 17.1309 11.6484 17.5137L11.6484 18.8125C11.6484 19.1953 11.4023 19.4414 11.0195 19.4414ZM14.2598 19.4414C13.877 19.4414 13.6309 19.1953 13.6309 18.8125L13.6309 17.5137C13.6309 17.1309 13.877 16.8848 14.2598 16.8848L15.5449 16.8848C15.9414 16.8848 16.1875 17.1309 16.1875 17.5137L16.1875 18.8125C16.1875 19.1953 15.9414 19.4414 15.5449 19.4414ZM18.7988 19.4414C18.416 19.4414 18.1699 19.1953 18.1699 18.8125L18.1699 17.5137C18.1699 17.1309 18.416 16.8848 18.7988 16.8848L20.0977 16.8848C20.4805 16.8848 20.7266 17.1309 20.7266 17.5137L20.7266 18.8125C20.7266 19.1953 20.4805 19.4414 20.0977 19.4414ZM23.3379 19.4414C22.9414 19.4414 22.6953 19.1953 22.6953 18.8125L22.6953 17.5137C22.6953 17.1309 22.9414 16.8848 23.3379 16.8848L24.6367 16.8848C25.0195 16.8848 25.252 17.1309 25.252 17.5137L25.252 18.8125C25.252 19.1953 25.0195 19.4414 24.6367 19.4414ZM27.877 19.4414C27.4805 19.4414 27.2344 19.1953 27.2344 18.8125L27.2344 17.5137C27.2344 17.1309 27.4805 16.8848 27.877 16.8848L29.1621 16.8848C29.5586 16.8848 29.791 17.1309 29.791 17.5137L29.791 18.8125C29.791 19.1953 29.5586 19.4414 29.1621 19.4414ZM5.18164 23.9805C4.79883 23.9805 4.56641 23.7344 4.56641 23.3516L4.56641 22.0527C4.56641 21.6699 4.79883 21.4238 5.18164 21.4238L6.48047 21.4238C6.87695 21.4238 7.12305 21.6699 7.12305 22.0527L7.12305 23.3516C7.12305 23.7344 6.87695 23.9805 6.48047 23.9805ZM9.87109 23.9805C9.37891 23.9805 9.0918 23.6934 9.0918 23.2012L9.0918 22.1895C9.0918 21.7109 9.37891 21.4238 9.87109 21.4238L24.4863 21.4238C24.9648 21.4238 25.252 21.7109 25.252 22.1895L25.252 23.2012C25.252 23.6934 24.9648 23.9805 24.4863 23.9805ZM27.877 23.9805C27.4805 23.9805 27.2344 23.7344 27.2344 23.3516L27.2344 22.0527C27.2344 21.6699 27.4805 21.4238 27.877 21.4238L29.1621 21.4238C29.5586 21.4238 29.791 21.6699 29.791 22.0527L29.791 23.3516C29.791 23.7344 29.5586 23.9805 29.1621 23.9805Z" style="fill:var(--color-0,hsl(0 0 0/0.85))"></path>
  <path d="M17.1992 36.3809C17.7324 36.3809 18.416 36.0938 18.9629 35.9023L26.0723 33.291C26.6055 33.0996 26.8105 32.6211 26.8105 32.3066C26.8105 31.6504 26.3457 31.0898 25.6211 31.0898C25.2793 31.0898 24.7871 31.2812 24.4727 31.4043L16.3652 34.4258L18.0605 34.4258L9.93945 31.4043C9.625 31.2812 9.16016 31.0898 8.80469 31.0898C8.12109 31.0898 7.61523 31.623 7.61523 32.3066C7.61523 32.6211 7.80664 33.0996 8.35352 33.291L15.4492 35.9023C16.0234 36.1074 16.6797 36.3809 17.1992 36.3809Z" style="fill:var(--color-1,hsl(0 0 0/0.85))"></path>
 </g>
</svg>