<?xml version="1.0" encoding="UTF-8"?>
<!--Generator: Apple Native CoreSVG 326-->
<!DOCTYPE svg
PUBLIC "-//W3C//DTD SVG 1.1//EN"
       "http://www.w3.org/Graphics/SVG/1.1/DTD/svg11.dtd">
<svg version="1.1" xmlns="http://www.w3.org/2000/svg" xmlns:xlink="http://www.w3.org/1999/xlink" viewBox="0 0 34.7676 36.3809">
 <g>
  <rect height="36.3809" opacity="0" width="34.7676" x="0" y="0"/>
  <path d="M4.29297 28.9844L30.1191 28.9844C32.9629 28.9844 34.4121 27.5625 34.4121 24.7461L34.4121 11.6074C34.4121 8.80469 32.9629 7.38281 30.1191 7.38281L4.29297 7.38281C1.42188 7.38281 0 8.79102 0 11.6074L0 24.7461C0 27.5625 1.42188 28.9844 4.29297 28.9844ZM4.32031 26.7832C2.95312 26.7832 2.20117 26.0449 2.20117 24.623L2.20117 11.7305C2.20117 10.3086 2.95312 9.58398 4.32031 9.58398L30.0781 9.58398C31.4316 9.58398 32.2109 10.3086 32.2109 11.7305L32.2109 24.623C32.2109 26.0449 31.4316 26.7832 30.0781 26.7832ZM5.55078 14.998L6.80859 14.998C7.19141 14.998 7.42383 14.7656 7.42383 14.3965L7.42383 13.1387C7.42383 12.7559 7.19141 12.5234 6.80859 12.5234L5.55078 12.5234C5.18164 12.5234 4.94922 12.7559 4.94922 13.1387L4.94922 14.3965C4.94922 14.7656 5.18164 14.998 5.55078 14.998ZM9.95312 14.998L11.2109 14.998C11.5801 14.998 11.8125 14.7656 11.8125 14.3965L11.8125 13.1387C11.8125 12.7559 11.5801 12.5234 11.2109 12.5234L9.95312 12.5234C9.57031 12.5234 9.33789 12.7559 9.33789 13.1387L9.33789 14.3965C9.33789 14.7656 9.57031 14.998 9.95312 14.998ZM14.3555 14.998L15.5996 14.998C15.9824 14.998 16.2148 14.7656 16.2148 14.3965L16.2148 13.1387C16.2148 12.7559 15.9824 12.5234 15.5996 12.5234L14.3555 12.5234C13.9727 12.5234 13.7402 12.7559 13.7402 13.1387L13.7402 14.3965C13.7402 14.7656 13.9727 14.998 14.3555 14.998ZM18.7441 14.998L20.002 14.998C20.3848 14.998 20.6172 14.7656 20.6172 14.3965L20.6172 13.1387C20.6172 12.7559 20.3848 12.5234 20.002 12.5234L18.7441 12.5234C18.375 12.5234 18.1426 12.7559 18.1426 13.1387L18.1426 14.3965C18.1426 14.7656 18.375 14.998 18.7441 14.998ZM23.1465 14.998L24.4043 14.998C24.7734 14.998 25.0059 14.7656 25.0059 14.3965L25.0059 13.1387C25.0059 12.7559 24.7734 12.5234 24.4043 12.5234L23.1465 12.5234C22.7637 12.5234 22.5312 12.7559 22.5312 13.1387L22.5312 14.3965C22.5312 14.7656 22.7637 14.998 23.1465 14.998ZM27.5488 14.998L28.793 14.998C29.1758 14.998 29.4082 14.7656 29.4082 14.3965L29.4082 13.1387C29.4082 12.7559 29.1758 12.5234 28.793 12.5234L27.5488 12.5234C27.166 12.5234 26.9336 12.7559 26.9336 13.1387L26.9336 14.3965C26.9336 14.7656 27.166 14.998 27.5488 14.998ZM5.55078 19.4004L6.80859 19.4004C7.19141 19.4004 7.42383 19.168 7.42383 18.7852L7.42383 17.541C7.42383 17.1582 7.19141 16.9258 6.80859 16.9258L5.55078 16.9258C5.18164 16.9258 4.94922 17.1582 4.94922 17.541L4.94922 18.7852C4.94922 19.168 5.18164 19.4004 5.55078 19.4004ZM9.95312 19.4004L11.2109 19.4004C11.5801 19.4004 11.8125 19.168 11.8125 18.7852L11.8125 17.541C11.8125 17.1582 11.5801 16.9258 11.2109 16.9258L9.95312 16.9258C9.57031 16.9258 9.33789 17.1582 9.33789 17.541L9.33789 18.7852C9.33789 19.168 9.57031 19.4004 9.95312 19.4004ZM14.3555 19.4004L15.5996 19.4004C15.9824 19.4004 16.2148 19.168 16.2148 18.7852L16.2148 17.541C16.2148 17.1582 15.9824 16.9258 15.5996 16.9258L14.3555 16.9258C13.9727 16.9258 13.7402 17.1582 13.7402 17.541L13.7402 18.7852C13.7402 19.168 13.9727 19.4004 14.3555 19.4004ZM18.7441 19.4004L20.002 19.4004C20.3848 19.4004 20.6172 19.168 20.6172 18.7852L20.6172 17.541C20.6172 17.1582 20.3848 16.9258 20.002 16.9258L18.7441 16.9258C18.375 16.9258 18.1426 17.1582 18.1426 17.541L18.1426 18.7852C18.1426 19.168 18.375 19.4004 18.7441 19.4004ZM23.1465 19.4004L24.4043 19.4004C24.7734 19.4004 25.0059 19.168 25.0059 18.7852L25.0059 17.541C25.0059 17.1582 24.7734 16.9258 24.4043 16.9258L23.1465 16.9258C22.7637 16.9258 22.5312 17.1582 22.5312 17.541L22.5312 18.7852C22.5312 19.168 22.7637 19.4004 23.1465 19.4004ZM27.5488 19.4004L28.793 19.4004C29.1758 19.4004 29.4082 19.168 29.4082 18.7852L29.4082 17.541C29.4082 17.1582 29.1758 16.9258 28.793 16.9258L27.5488 16.9258C27.166 16.9258 26.9336 17.1582 26.9336 17.541L26.9336 18.7852C26.9336 19.168 27.166 19.4004 27.5488 19.4004ZM5.55078 23.8027L6.80859 23.8027C7.19141 23.8027 7.42383 23.5703 7.42383 23.1875L7.42383 21.9297C7.42383 21.5605 7.19141 21.3281 6.80859 21.3281L5.55078 21.3281C5.18164 21.3281 4.94922 21.5605 4.94922 21.9297L4.94922 23.1875C4.94922 23.5703 5.18164 23.8027 5.55078 23.8027ZM10.0898 23.8027L24.2676 23.8027C24.7324 23.8027 25.0059 23.5293 25.0059 23.0508L25.0059 22.0664C25.0059 21.6016 24.7324 21.3281 24.2676 21.3281L10.0898 21.3281C9.61133 21.3281 9.33789 21.6016 9.33789 22.0664L9.33789 23.0508C9.33789 23.5293 9.61133 23.8027 10.0898 23.8027ZM27.5488 23.8027L28.793 23.8027C29.1758 23.8027 29.4082 23.5703 29.4082 23.1875L29.4082 21.9297C29.4082 21.5605 29.1758 21.3281 28.793 21.3281L27.5488 21.3281C27.166 21.3281 26.9336 21.5605 26.9336 21.9297L26.9336 23.1875C26.9336 23.5703 27.166 23.8027 27.5488 23.8027Z" fill="white" fill-opacity="0.85"/>
  <path d="M17.1992 36.3809C17.7324 36.3809 18.416 36.0938 18.9629 35.9023L26.0723 33.291C26.6055 33.0996 26.8105 32.6211 26.8105 32.3066C26.8105 31.6504 26.3457 31.0898 25.6211 31.0898C25.2793 31.0898 24.7871 31.2812 24.4727 31.4043L16.3652 34.4258L18.0605 34.4258L9.93945 31.4043C9.625 31.2812 9.16016 31.0898 8.80469 31.0898C8.12109 31.0898 7.61523 31.623 7.61523 32.3066C7.61523 32.6211 7.80664 33.0996 8.35352 33.291L15.4492 35.9023C16.0234 36.1074 16.6797 36.3809 17.1992 36.3809Z" fill="white" fill-opacity="0.85"/>
 </g>
</svg>
