<svg version="1.1" xmlns="http://www.w3.org/2000/svg" xmlns:xlink="http://www.w3.org/1999/xlink" viewBox="0 0 32.5938 25.1973">
 <g>
  
  <path d="M5.97461 12.2773L7.12305 12.2773C7.47852 12.2773 7.69727 12.0586 7.69727 11.7031L7.69727 10.541C7.69727 10.1992 7.47852 9.98047 7.12305 9.98047L5.97461 9.98047C5.61914 9.98047 5.40039 10.1992 5.40039 10.541L5.40039 11.7031C5.40039 12.0586 5.61914 12.2773 5.97461 12.2773ZM9.80273 12.2773L10.9648 12.2773C11.3203 12.2773 11.5254 12.0586 11.5254 11.7031L11.5254 10.541C11.5254 10.1992 11.3203 9.98047 10.9648 9.98047L9.80273 9.98047C9.46094 9.98047 9.24219 10.1992 9.24219 10.541L9.24219 11.7031C9.24219 12.0586 9.46094 12.2773 9.80273 12.2773ZM13.6309 12.2773L14.7793 12.2773C15.1348 12.2773 15.3535 12.0586 15.3535 11.7031L15.3535 10.541C15.3535 10.1992 15.1348 9.98047 14.7793 9.98047L13.6309 9.98047C13.2754 9.98047 13.0703 10.1992 13.0703 10.541L13.0703 11.7031C13.0703 12.0586 13.2754 12.2773 13.6309 12.2773ZM17.459 12.2773L18.6211 12.2773C18.9629 12.2773 19.168 12.0586 19.168 11.7031L19.168 10.541C19.168 10.1992 18.9629 9.98047 18.6211 9.98047L17.459 9.98047C17.1035 9.98047 16.8848 10.1992 16.8848 10.541L16.8848 11.7031C16.8848 12.0586 17.1035 12.2773 17.459 12.2773ZM21.2734 12.2773L22.4355 12.2773C22.791 12.2773 23.0098 12.0586 23.0098 11.7031L23.0098 10.541C23.0098 10.1992 22.791 9.98047 22.4355 9.98047L21.2734 9.98047C20.9316 9.98047 20.7266 10.1992 20.7266 10.541L20.7266 11.7031C20.7266 12.0586 20.9316 12.2773 21.2734 12.2773ZM25.1152 12.2773L26.2637 12.2773C26.6191 12.2773 26.8379 12.0586 26.8379 11.7031L26.8379 10.541C26.8379 10.1992 26.6191 9.98047 26.2637 9.98047L25.1152 9.98047C24.7598 9.98047 24.541 10.1992 24.541 10.541L24.541 11.7031C24.541 12.0586 24.7598 12.2773 25.1152 12.2773ZM5.97461 16.1055L7.12305 16.1055C7.47852 16.1055 7.69727 15.8867 7.69727 15.5312L7.69727 14.3828C7.69727 14.041 7.47852 13.8223 7.12305 13.8223L5.97461 13.8223C5.61914 13.8223 5.40039 14.041 5.40039 14.3828L5.40039 15.5312C5.40039 15.8867 5.61914 16.1055 5.97461 16.1055ZM9.80273 16.1055L10.9648 16.1055C11.3203 16.1055 11.5254 15.8867 11.5254 15.5312L11.5254 14.3828C11.5254 14.041 11.3203 13.8223 10.9648 13.8223L9.80273 13.8223C9.46094 13.8223 9.24219 14.041 9.24219 14.3828L9.24219 15.5312C9.24219 15.8867 9.46094 16.1055 9.80273 16.1055ZM13.6309 16.1055L14.7793 16.1055C15.1348 16.1055 15.3535 15.8867 15.3535 15.5312L15.3535 14.3828C15.3535 14.041 15.1348 13.8223 14.7793 13.8223L13.6309 13.8223C13.2754 13.8223 13.0703 14.041 13.0703 14.3828L13.0703 15.5312C13.0703 15.8867 13.2754 16.1055 13.6309 16.1055ZM17.459 16.1055L18.6211 16.1055C18.9629 16.1055 19.168 15.8867 19.168 15.5312L19.168 14.3828C19.168 14.041 18.9629 13.8223 18.6211 13.8223L17.459 13.8223C17.1035 13.8223 16.8848 14.041 16.8848 14.3828L16.8848 15.5312C16.8848 15.8867 17.1035 16.1055 17.459 16.1055ZM21.2734 16.1055L22.4355 16.1055C22.791 16.1055 23.0098 15.8867 23.0098 15.5312L23.0098 14.3828C23.0098 14.041 22.791 13.8223 22.4355 13.8223L21.2734 13.8223C20.9316 13.8223 20.7266 14.041 20.7266 14.3828L20.7266 15.5312C20.7266 15.8867 20.9316 16.1055 21.2734 16.1055ZM25.1152 16.1055L26.2637 16.1055C26.6191 16.1055 26.8379 15.8867 26.8379 15.5312L26.8379 14.3828C26.8379 14.041 26.6191 13.8223 26.2637 13.8223L25.1152 13.8223C24.7598 13.8223 24.541 14.041 24.541 14.3828L24.541 15.5312C24.541 15.8867 24.7598 16.1055 25.1152 16.1055ZM5.97461 19.9473L7.12305 19.9473C7.47852 19.9473 7.69727 19.7285 7.69727 19.373L7.69727 18.2246C7.69727 17.8691 7.47852 17.6504 7.12305 17.6504L5.97461 17.6504C5.61914 17.6504 5.40039 17.8691 5.40039 18.2246L5.40039 19.373C5.40039 19.7285 5.61914 19.9473 5.97461 19.9473ZM9.92578 19.9473L22.3125 19.9473C22.7637 19.9473 23.0098 19.6875 23.0098 19.25L23.0098 18.3477C23.0098 17.9102 22.7637 17.6504 22.3125 17.6504L9.92578 17.6504C9.48828 17.6504 9.24219 17.9102 9.24219 18.3477L9.24219 19.25C9.24219 19.6875 9.48828 19.9473 9.92578 19.9473ZM25.1152 19.9473L26.2637 19.9473C26.6191 19.9473 26.8379 19.7285 26.8379 19.373L26.8379 18.2246C26.8379 17.8691 26.6191 17.6504 26.2637 17.6504L25.1152 17.6504C24.7598 17.6504 24.541 17.8691 24.541 18.2246L24.541 19.373C24.541 19.7285 24.7598 19.9473 25.1152 19.9473ZM0 20.959C0 23.7891 1.43555 25.1973 4.29297 25.1973L27.9453 25.1973C30.8164 25.1973 32.2383 23.7754 32.2383 20.959L32.2383 4.26562C32.2383 1.44922 30.8164 0.0273438 27.9453 0.0273438L4.29297 0.0273438C1.43555 0.0273438 0 1.43555 0 4.26562ZM4.33398 4.68945C3.66406 4.68945 3.11719 4.11523 3.11719 3.47266C3.11719 2.83008 3.66406 2.25586 4.33398 2.25586C5.00391 2.25586 5.56445 2.83008 5.56445 3.47266C5.56445 4.11523 5.00391 4.68945 4.33398 4.68945ZM8.25781 4.68945C7.58789 4.68945 7.04102 4.11523 7.04102 3.47266C7.04102 2.83008 7.58789 2.25586 8.25781 2.25586C8.92773 2.25586 9.48828 2.83008 9.48828 3.47266C9.48828 4.11523 8.92773 4.68945 8.25781 4.68945ZM12.1816 4.68945C11.5117 4.68945 10.9648 4.11523 10.9648 3.47266C10.9648 2.83008 11.5117 2.25586 12.1816 2.25586C12.8516 2.25586 13.3984 2.83008 13.3984 3.47266C13.3984 4.11523 12.8516 4.68945 12.1816 4.68945ZM2.20117 20.8496L2.20117 6.91797L30.0371 6.91797L30.0371 20.8496C30.0371 22.2715 29.2715 22.9961 27.918 22.9961L4.32031 22.9961C2.95312 22.9961 2.20117 22.2715 2.20117 20.8496Z" style="fill:var(--color-0,hsl(0 0 0/0.85))"></path>
 </g>
</svg>