<svg version="1.1" xmlns="http://www.w3.org/2000/svg" xmlns:xlink="http://www.w3.org/1999/xlink" viewBox="0 0 44.4131 21.6152">
 <g>
  
  <path d="M13.9351 21.6016L39.7612 21.6016C42.605 21.6016 44.0542 20.1797 44.0542 17.3633L44.0542 4.22461C44.0542 1.42188 42.605 0 39.7612 0L13.9351 0C11.064 0 9.64209 1.4082 9.64209 4.22461L9.64209 17.3633C9.64209 20.1797 11.064 21.6016 13.9351 21.6016ZM13.9624 19.4004C12.6089 19.4004 11.8433 18.6621 11.8433 17.2402L11.8433 4.34766C11.8433 2.92578 12.6089 2.20117 13.9624 2.20117L39.7202 2.20117C41.0737 2.20117 41.853 2.92578 41.853 4.34766L41.853 17.2402C41.853 18.6621 41.0737 19.4004 39.7202 19.4004ZM15.2065 7.61523L16.4507 7.61523C16.8335 7.61523 17.0659 7.38281 17.0659 7.01367L17.0659 5.75586C17.0659 5.37305 16.8335 5.14062 16.4507 5.14062L15.2065 5.14062C14.8237 5.14062 14.5913 5.37305 14.5913 5.75586L14.5913 7.01367C14.5913 7.38281 14.8237 7.61523 15.2065 7.61523ZM19.5952 7.61523L20.853 7.61523C21.2358 7.61523 21.4683 7.38281 21.4683 7.01367L21.4683 5.75586C21.4683 5.37305 21.2358 5.14062 20.853 5.14062L19.5952 5.14062C19.2124 5.14062 18.98 5.37305 18.98 5.75586L18.98 7.01367C18.98 7.38281 19.2124 7.61523 19.5952 7.61523ZM23.9976 7.61523L25.2417 7.61523C25.6245 7.61523 25.8569 7.38281 25.8569 7.01367L25.8569 5.75586C25.8569 5.37305 25.6245 5.14062 25.2417 5.14062L23.9976 5.14062C23.6147 5.14062 23.3823 5.37305 23.3823 5.75586L23.3823 7.01367C23.3823 7.38281 23.6147 7.61523 23.9976 7.61523ZM28.3999 7.61523L29.644 7.61523C30.0269 7.61523 30.2593 7.38281 30.2593 7.01367L30.2593 5.75586C30.2593 5.37305 30.0269 5.14062 29.644 5.14062L28.3999 5.14062C28.0171 5.14062 27.7847 5.37305 27.7847 5.75586L27.7847 7.01367C27.7847 7.38281 28.0171 7.61523 28.3999 7.61523ZM32.7886 7.61523L34.0464 7.61523C34.4155 7.61523 34.6616 7.38281 34.6616 7.01367L34.6616 5.75586C34.6616 5.37305 34.4155 5.14062 34.0464 5.14062L32.7886 5.14062C32.4058 5.14062 32.1733 5.37305 32.1733 5.75586L32.1733 7.01367C32.1733 7.38281 32.4058 7.61523 32.7886 7.61523ZM37.1909 7.61523L38.4351 7.61523C38.8179 7.61523 39.0503 7.38281 39.0503 7.01367L39.0503 5.75586C39.0503 5.37305 38.8179 5.14062 38.4351 5.14062L37.1909 5.14062C36.8081 5.14062 36.5757 5.37305 36.5757 5.75586L36.5757 7.01367C36.5757 7.38281 36.8081 7.61523 37.1909 7.61523ZM15.2065 12.0176L16.4507 12.0176C16.8335 12.0176 17.0659 11.7852 17.0659 11.4023L17.0659 10.1582C17.0659 9.77539 16.8335 9.54297 16.4507 9.54297L15.2065 9.54297C14.8237 9.54297 14.5913 9.77539 14.5913 10.1582L14.5913 11.4023C14.5913 11.7852 14.8237 12.0176 15.2065 12.0176ZM19.5952 12.0176L20.853 12.0176C21.2358 12.0176 21.4683 11.7852 21.4683 11.4023L21.4683 10.1582C21.4683 9.77539 21.2358 9.54297 20.853 9.54297L19.5952 9.54297C19.2124 9.54297 18.98 9.77539 18.98 10.1582L18.98 11.4023C18.98 11.7852 19.2124 12.0176 19.5952 12.0176ZM23.9976 12.0176L25.2417 12.0176C25.6245 12.0176 25.8569 11.7852 25.8569 11.4023L25.8569 10.1582C25.8569 9.77539 25.6245 9.54297 25.2417 9.54297L23.9976 9.54297C23.6147 9.54297 23.3823 9.77539 23.3823 10.1582L23.3823 11.4023C23.3823 11.7852 23.6147 12.0176 23.9976 12.0176ZM28.3999 12.0176L29.644 12.0176C30.0269 12.0176 30.2593 11.7852 30.2593 11.4023L30.2593 10.1582C30.2593 9.77539 30.0269 9.54297 29.644 9.54297L28.3999 9.54297C28.0171 9.54297 27.7847 9.77539 27.7847 10.1582L27.7847 11.4023C27.7847 11.7852 28.0171 12.0176 28.3999 12.0176ZM32.7886 12.0176L34.0464 12.0176C34.4155 12.0176 34.6616 11.7852 34.6616 11.4023L34.6616 10.1582C34.6616 9.77539 34.4155 9.54297 34.0464 9.54297L32.7886 9.54297C32.4058 9.54297 32.1733 9.77539 32.1733 10.1582L32.1733 11.4023C32.1733 11.7852 32.4058 12.0176 32.7886 12.0176ZM37.1909 12.0176L38.4351 12.0176C38.8179 12.0176 39.0503 11.7852 39.0503 11.4023L39.0503 10.1582C39.0503 9.77539 38.8179 9.54297 38.4351 9.54297L37.1909 9.54297C36.8081 9.54297 36.5757 9.77539 36.5757 10.1582L36.5757 11.4023C36.5757 11.7852 36.8081 12.0176 37.1909 12.0176ZM15.2065 16.4199L16.4507 16.4199C16.8335 16.4199 17.0659 16.1875 17.0659 15.8047L17.0659 14.5469C17.0659 14.1777 16.8335 13.9453 16.4507 13.9453L15.2065 13.9453C14.8237 13.9453 14.5913 14.1777 14.5913 14.5469L14.5913 15.8047C14.5913 16.1875 14.8237 16.4199 15.2065 16.4199ZM19.7319 16.4199L33.9097 16.4199C34.3745 16.4199 34.6616 16.1465 34.6616 15.668L34.6616 14.6836C34.6616 14.2188 34.3745 13.9453 33.9097 13.9453L19.7319 13.9453C19.2534 13.9453 18.98 14.2188 18.98 14.6836L18.98 15.668C18.98 16.1465 19.2534 16.4199 19.7319 16.4199ZM37.1909 16.4199L38.4351 16.4199C38.8179 16.4199 39.0503 16.1875 39.0503 15.8047L39.0503 14.5469C39.0503 14.1777 38.8179 13.9453 38.4351 13.9453L37.1909 13.9453C36.8081 13.9453 36.5757 14.1777 36.5757 14.5469L36.5757 15.8047C36.5757 16.1875 36.8081 16.4199 37.1909 16.4199Z" style="fill:var(--color-0,hsl(0 0 0/0.85))"></path>
  <path d="M4.21436 17.1855C5.19873 18.5527 6.89404 17.2676 6.0874 16.1328L2.28662 10.7871L6.0874 5.46875C6.89404 4.34766 5.19873 3.04883 4.21436 4.41602L0.317871 9.83008C-0.105957 10.4316-0.105957 11.1699 0.317871 11.7578Z" style="fill:var(--color-1,hsl(0 0 0/0.85))"></path>
 </g>
</svg>