<svg version="1.1" xmlns="http://www.w3.org/2000/svg" xmlns:xlink="http://www.w3.org/1999/xlink" viewBox="0 0 34.7676 21.6152">
 <g>
  
  <path d="M4.29297 21.6016L30.1191 21.6016C32.9629 21.6016 34.4121 20.1797 34.4121 17.3633L34.4121 4.22461C34.4121 1.42188 32.9629 0 30.1191 0L4.29297 0C1.42188 0 0 1.4082 0 4.22461L0 17.3633C0 20.1797 1.42188 21.6016 4.29297 21.6016ZM4.32031 19.4004C2.95312 19.4004 2.20117 18.6621 2.20117 17.2402L2.20117 4.34766C2.20117 2.92578 2.95312 2.20117 4.32031 2.20117L30.0781 2.20117C31.4316 2.20117 32.2109 2.92578 32.2109 4.34766L32.2109 17.2402C32.2109 18.6621 31.4316 19.4004 30.0781 19.4004Z" style="fill:var(--color-0,hsl(0 0 0/0.85))"></path>
  <path d="M13.0156 7.58789L14.0273 7.58789C14.2734 7.58789 14.4238 7.42383 14.4238 7.15039L14.4238 5.61914C14.4238 5.3457 14.2734 5.18164 14.0273 5.18164L13.0156 5.18164C12.7695 5.18164 12.6191 5.3457 12.6191 5.61914L12.6191 7.15039C12.6191 7.42383 12.7695 7.58789 13.0156 7.58789ZM16.0234 7.58789L17.0215 7.58789C17.2676 7.58789 17.418 7.42383 17.418 7.15039L17.418 5.61914C17.418 5.3457 17.2676 5.18164 17.0215 5.18164L16.0234 5.18164C15.7773 5.18164 15.6133 5.3457 15.6133 5.61914L15.6133 7.15039C15.6133 7.42383 15.7773 7.58789 16.0234 7.58789ZM19.0312 7.58789L20.0293 7.58789C20.2617 7.58789 20.4258 7.42383 20.4258 7.15039L20.4258 5.61914C20.4258 5.3457 20.2617 5.18164 20.0293 5.18164L19.0312 5.18164C18.7715 5.18164 18.6211 5.3457 18.6211 5.61914L18.6211 7.15039C18.6211 7.42383 18.7715 7.58789 19.0312 7.58789ZM22.0254 7.58789L23.0098 7.58789C23.2695 7.58789 23.4199 7.42383 23.4199 7.15039L23.4199 5.61914C23.4199 5.3457 23.2695 5.18164 23.0098 5.18164L22.0254 5.18164C21.7656 5.18164 21.6152 5.3457 21.6152 5.61914L21.6152 7.15039C21.6152 7.42383 21.7656 7.58789 22.0254 7.58789ZM25.0059 7.58789L26.0312 7.58789C26.2637 7.58789 26.4277 7.42383 26.4277 7.15039L26.4277 5.61914C26.4277 5.3457 26.2637 5.18164 26.0312 5.18164L25.0059 5.18164C24.7734 5.18164 24.623 5.3457 24.623 5.61914L24.623 7.15039C24.623 7.42383 24.7734 7.58789 25.0059 7.58789ZM28.0273 7.58789L29.0117 7.58789C29.2715 7.58789 29.4219 7.42383 29.4219 7.15039L29.4219 5.61914C29.4219 5.3457 29.2715 5.18164 29.0117 5.18164L28.0273 5.18164C27.7676 5.18164 27.6172 5.3457 27.6172 5.61914L27.6172 7.15039C27.6172 7.42383 27.7676 7.58789 28.0273 7.58789ZM13.0156 11.9766L14.0273 11.9766C14.2734 11.9766 14.4238 11.8262 14.4238 11.5391L14.4238 10.0215C14.4238 9.73438 14.2734 9.58398 14.0273 9.58398L13.0156 9.58398C12.7695 9.58398 12.6191 9.73438 12.6191 10.0215L12.6191 11.5391C12.6191 11.8262 12.7695 11.9766 13.0156 11.9766ZM16.0234 11.9766L17.0215 11.9766C17.2676 11.9766 17.418 11.8262 17.418 11.5391L17.418 10.0215C17.418 9.73438 17.2676 9.58398 17.0215 9.58398L16.0234 9.58398C15.7773 9.58398 15.6133 9.73438 15.6133 10.0215L15.6133 11.5391C15.6133 11.8262 15.7773 11.9766 16.0234 11.9766ZM19.0312 11.9766L20.0293 11.9766C20.2617 11.9766 20.4258 11.8262 20.4258 11.5391L20.4258 10.0215C20.4258 9.73438 20.2617 9.58398 20.0293 9.58398L19.0312 9.58398C18.7715 9.58398 18.6211 9.73438 18.6211 10.0215L18.6211 11.5391C18.6211 11.8262 18.7715 11.9766 19.0312 11.9766ZM22.0254 11.9766L23.0098 11.9766C23.2695 11.9766 23.4199 11.8262 23.4199 11.5391L23.4199 10.0215C23.4199 9.73438 23.2695 9.58398 23.0098 9.58398L22.0254 9.58398C21.7656 9.58398 21.6152 9.73438 21.6152 10.0215L21.6152 11.5391C21.6152 11.8262 21.7656 11.9766 22.0254 11.9766ZM25.0059 11.9766L26.0312 11.9766C26.2637 11.9766 26.4277 11.8262 26.4277 11.5391L26.4277 10.0215C26.4277 9.73438 26.2637 9.58398 26.0312 9.58398L25.0059 9.58398C24.7734 9.58398 24.623 9.73438 24.623 10.0215L24.623 11.5391C24.623 11.8262 24.7734 11.9766 25.0059 11.9766ZM28.0273 11.9766L29.0117 11.9766C29.2715 11.9766 29.4219 11.8262 29.4219 11.5391L29.4219 10.0215C29.4219 9.73438 29.2715 9.58398 29.0117 9.58398L28.0273 9.58398C27.7676 9.58398 27.6172 9.73438 27.6172 10.0215L27.6172 11.5391C27.6172 11.8262 27.7676 11.9766 28.0273 11.9766ZM13.0156 16.3789L14.0273 16.3789C14.2734 16.3789 14.4238 16.2148 14.4238 15.9414L14.4238 14.4102C14.4238 14.1367 14.2734 13.9727 14.0273 13.9727L13.0156 13.9727C12.7695 13.9727 12.6191 14.1367 12.6191 14.4102L12.6191 15.9414C12.6191 16.2148 12.7695 16.3789 13.0156 16.3789ZM16.0234 16.3789L26.0312 16.3789C26.2637 16.3789 26.4277 16.2148 26.4277 15.9414L26.4277 14.4102C26.4277 14.1367 26.2637 13.9727 26.0312 13.9727L16.0234 13.9727C15.7773 13.9727 15.6133 14.1367 15.6133 14.4102L15.6133 15.9414C15.6133 16.2148 15.7773 16.3789 16.0234 16.3789ZM28.0273 16.3789L29.0117 16.3789C29.2715 16.3789 29.4219 16.2148 29.4219 15.9414L29.4219 14.4102C29.4219 14.1367 29.2715 13.9727 29.0117 13.9727L28.0273 13.9727C27.7676 13.9727 27.6172 14.1367 27.6172 14.4102L27.6172 15.9414C27.6172 16.2148 27.7676 16.3789 28.0273 16.3789ZM10.2402 10.0352L6.23438 6.2207C5.76953 5.7832 4.97656 5.96094 4.97656 6.68555L4.97656 14.9023C4.97656 15.6406 5.76953 15.8184 6.23438 15.3809L10.2402 11.5527C10.7461 11.0742 10.7461 10.5137 10.2402 10.0352Z" style="fill:var(--color-1,hsl(0 0 0/0.85))"></path>
 </g>
</svg>