<svg version="1.1" xmlns="http://www.w3.org/2000/svg" xmlns:xlink="http://www.w3.org/1999/xlink" viewBox="0 0 30.8848 29.1895">
 <g>
  
  <path d="M1.81836 25.9219L28.7109 25.9219L28.7109 25.0059C28.7109 24.459 28.3965 24.1309 27.8359 24.1309L26.9609 24.1309L26.9609 9.37891L28.1641 9.37891C28.916 9.37891 29.3535 8.83203 29.3535 8.27148C29.3535 7.86133 29.1211 7.50586 28.6152 7.21875L16.9395 0.478516C16.3926 0.164062 15.8184 0 15.2578 0C14.6973 0 14.1094 0.164062 13.5898 0.478516L1.91406 7.21875C1.39453 7.50586 1.17578 7.86133 1.17578 8.27148C1.17578 8.83203 1.61328 9.37891 2.36523 9.37891L3.56836 9.37891L3.56836 24.1309L2.70703 24.1309C2.14648 24.1309 1.81836 24.459 1.81836 25.0059ZM5.63281 24.1309L5.63281 7.62891L14.7246 2.5293C14.8887 2.43359 15.0801 2.37891 15.2578 2.37891C15.4355 2.37891 15.627 2.43359 15.8047 2.5293L24.8965 7.62891L24.8965 24.1309ZM1.09375 29.1758L29.4219 29.1758C30.0234 29.1758 30.5293 28.6699 30.5293 28.0684C30.5293 27.4668 30.0234 26.9746 29.4219 26.9746L1.09375 26.9746C0.492188 26.9746 0 27.4668 0 28.0684C0 28.6699 0.492188 29.1758 1.09375 29.1758Z" style="fill:var(--color-0,hsl(0 0 0/0.85))"></path>
  <path d="M12.1953 20.6719C12.6738 20.6719 12.9883 20.3438 12.9883 19.8516L12.9883 14.752L13.8496 14.752L18.0742 20.2617C18.2656 20.5215 18.4707 20.6719 18.7852 20.6719C19.3047 20.6719 19.5234 20.2617 19.5234 19.9746C19.5234 19.7559 19.4414 19.5918 19.3047 19.4141L15.5996 14.752L19.3867 14.752C19.6465 14.752 19.8516 14.5469 19.8516 14.2871C19.8516 14.0273 19.6465 13.8359 19.3867 13.8359L15.627 13.8359L19.3047 9.29688C19.4277 9.11914 19.5098 8.94141 19.5098 8.77734C19.5098 8.36719 19.1816 8.08008 18.7852 8.08008C18.5117 8.08008 18.2656 8.27148 18.1016 8.47656L13.8633 13.8359L12.9883 13.8359L12.9883 8.88672C12.9883 8.38086 12.6738 8.08008 12.1953 8.08008C11.7031 8.08008 11.3887 8.38086 11.3887 8.88672L11.3887 13.8359L10.4453 13.8359C10.1719 13.8359 9.99414 14.0137 9.99414 14.3008C9.99414 14.5605 10.1719 14.752 10.4453 14.752L11.3887 14.752L11.3887 19.8516C11.3887 20.3438 11.7031 20.6719 12.1953 20.6719Z" style="fill:var(--color-1,hsl(0 0 0/0.85))"></path>
 </g>
</svg>