<svg version="1.1" xmlns="http://www.w3.org/2000/svg" xmlns:xlink="http://www.w3.org/1999/xlink" viewBox="0 0 30.8848 29.1895">
 <g>
  
  <path d="M1.81836 27.5898L28.7109 27.5898L28.7109 25.9766C28.7109 25.4297 28.3965 25.1016 27.8359 25.1016L26.9609 25.1016L26.9609 9.37891L28.1641 9.37891C28.916 9.37891 29.3535 8.83203 29.3535 8.27148C29.3535 7.86133 29.1211 7.50586 28.6152 7.21875L16.9395 0.478516C16.3926 0.164062 15.8184 0 15.2578 0C14.6973 0 14.1094 0.164062 13.5898 0.478516L1.91406 7.21875C1.39453 7.50586 1.17578 7.86133 1.17578 8.27148C1.17578 8.83203 1.61328 9.37891 2.36523 9.37891L3.56836 9.37891L3.56836 25.1016L2.70703 25.1016C2.14648 25.1016 1.81836 25.4297 1.81836 25.9766ZM1.09375 29.1758L29.4219 29.1758C30.0234 29.1758 30.5293 28.6699 30.5293 28.0684C30.5293 27.4668 30.0234 26.9746 29.4219 26.9746L1.09375 26.9746C0.492188 26.9746 0 27.4668 0 28.0684C0 28.6699 0.492188 29.1758 1.09375 29.1758Z" style="fill:var(--color-0,hsl(0 0 0/0.85))"></path>
  <path d="M12.0996 22.0938C11.5801 22.0938 11.2656 21.7656 11.2656 21.2461L11.2656 15.9824L10.2949 15.9824C10.0078 15.9824 9.81641 15.791 9.81641 15.5176C9.81641 15.2305 10.0078 15.0391 10.2949 15.0391L11.2656 15.0391L11.2656 9.92578C11.2656 9.40625 11.5801 9.0918 12.0996 9.0918C12.5918 9.0918 12.9199 9.40625 12.9199 9.92578L12.9199 15.0391L13.8223 15.0391L18.1836 9.50195C18.3613 9.29688 18.6074 9.0918 18.8945 9.0918C19.3047 9.0918 19.6465 9.40625 19.6465 9.81641C19.6465 9.99414 19.5645 10.1855 19.4277 10.3496L15.6406 15.0391L19.4961 15.0391C19.7832 15.0391 20.002 15.2305 20.002 15.5039C20.002 15.7637 19.7832 15.9824 19.4961 15.9824L15.6133 15.9824L19.4277 20.7812C19.5781 20.9727 19.6602 21.1504 19.6602 21.3691C19.6602 21.6836 19.4277 22.0938 18.8945 22.0938C18.5664 22.0938 18.3613 21.9297 18.1562 21.6699L13.8086 15.9824L12.9199 15.9824L12.9199 21.2461C12.9199 21.7656 12.5918 22.0938 12.0996 22.0938Z" style="fill:var(--color-1,white)"></path>
 </g>
</svg>