<svg version="1.1" xmlns="http://www.w3.org/2000/svg" xmlns:xlink="http://www.w3.org/1999/xlink" viewBox="0 0 25.5254 25.1699">
 <g>
  
  <path d="M4.29297 25.1699L20.877 25.1699C23.748 25.1699 25.1699 23.7617 25.1699 20.9453L25.1699 4.23828C25.1699 1.42188 23.748 0 20.877 0L4.29297 0C1.43555 0 0 1.42188 0 4.23828L0 20.9453C0 23.7617 1.43555 25.1699 4.29297 25.1699Z" style="fill:var(--color-0,hsl(0 0 0/0.85))"></path>
  <path d="M9.41992 19.0586C8.90039 19.0586 8.58594 18.7305 8.58594 18.2109L8.58594 12.9609L7.61523 12.9609C7.3418 12.9609 7.13672 12.7559 7.13672 12.4824C7.13672 12.1953 7.3418 12.0039 7.61523 12.0039L8.58594 12.0039L8.58594 6.89062C8.58594 6.38477 8.90039 6.05664 9.41992 6.05664C9.92578 6.05664 10.2402 6.38477 10.2402 6.89062L10.2402 12.0039L11.1562 12.0039L15.5176 6.4668C15.6816 6.26172 15.9277 6.05664 16.2148 6.05664C16.625 6.05664 16.9668 6.37109 16.9668 6.79492C16.9668 6.97266 16.8984 7.15039 16.748 7.31445L12.9746 12.0039L16.8301 12.0039C17.1035 12.0039 17.3223 12.1953 17.3223 12.4688C17.3223 12.7422 17.1035 12.9609 16.8301 12.9609L12.9473 12.9609L16.748 17.7598C16.8984 17.9512 16.9805 18.1152 16.9805 18.334C16.9805 18.6484 16.748 19.0586 16.2148 19.0586C15.8867 19.0586 15.6816 18.8945 15.4902 18.6484L11.1426 12.9609L10.2402 12.9609L10.2402 18.2109C10.2402 18.7305 9.92578 19.0586 9.41992 19.0586Z" style="fill:var(--color-1,white)"></path>
 </g>
</svg>