<?xml version="1.0" encoding="UTF-8"?>
<!--Generator: Apple Native CoreSVG 326-->
<!DOCTYPE svg
PUBLIC "-//W3C//DTD SVG 1.1//EN"
       "http://www.w3.org/Graphics/SVG/1.1/DTD/svg11.dtd">
<svg version="1.1" xmlns="http://www.w3.org/2000/svg" xmlns:xlink="http://www.w3.org/1999/xlink" viewBox="0 0 30.9258 30.584">
 <g>
  <rect height="30.584" opacity="0" width="30.9258" x="0" y="0"/>
  <path d="M15.2852 30.5703C23.6797 30.5703 30.5703 23.6797 30.5703 15.2852C30.5703 6.89062 23.6797 0 15.2852 0C6.89062 0 0 6.89062 0 15.2852C0 23.6797 6.89062 30.5703 15.2852 30.5703ZM15.2852 25.4844C9.65234 25.4844 5.08594 20.918 5.08594 15.2852C5.08594 9.63867 9.65234 5.08594 15.2852 5.08594C20.9316 5.08594 25.4844 9.63867 25.4844 15.2852C25.4844 20.918 20.9316 25.4844 15.2852 25.4844Z" fill="white" fill-opacity="0.85"/>
  <path d="M12.209 21.5605C12.7012 21.5605 13.002 21.2461 13.002 20.7402L13.002 15.6543L13.877 15.6543L18.1016 21.1641C18.2793 21.4102 18.4844 21.5605 18.7988 21.5605C19.3184 21.5605 19.5371 21.1641 19.5371 20.8633C19.5371 20.6582 19.4551 20.4941 19.3184 20.3164L15.627 15.6543L19.4004 15.6543C19.6602 15.6543 19.8652 15.4492 19.8652 15.1758C19.8652 14.916 19.6602 14.7246 19.4004 14.7246L15.6543 14.7246L19.3184 10.1855C19.4551 10.0215 19.5234 9.84375 19.5234 9.67969C19.5234 9.26953 19.1953 8.96875 18.7988 8.96875C18.5254 8.96875 18.2793 9.16016 18.1289 9.36523L13.8906 14.7246L13.002 14.7246L13.002 9.77539C13.002 9.2832 12.7012 8.96875 12.209 8.96875C11.7168 8.96875 11.4023 9.2832 11.4023 9.77539L11.4023 14.7246L10.459 14.7246C10.1992 14.7246 10.0078 14.916 10.0078 15.1895C10.0078 15.4629 10.1992 15.6543 10.459 15.6543L11.4023 15.6543L11.4023 20.7402C11.4023 21.2461 11.7168 21.5605 12.209 21.5605Z" fill="white" fill-opacity="0.85"/>
 </g>
</svg>
