<svg version="1.1" xmlns="http://www.w3.org/2000/svg" xmlns:xlink="http://www.w3.org/1999/xlink" viewBox="0 0 28.2461 27.9043">
 <g>
  
  <path d="M13.9453 27.8906C21.6426 27.8906 27.8906 21.6426 27.8906 13.9453C27.8906 6.24805 21.6426 0 13.9453 0C6.24805 0 0 6.24805 0 13.9453C0 21.6426 6.24805 27.8906 13.9453 27.8906ZM13.9453 25.5664C7.51953 25.5664 2.32422 20.3711 2.32422 13.9453C2.32422 7.51953 7.51953 2.32422 13.9453 2.32422C20.3711 2.32422 25.5664 7.51953 25.5664 13.9453C25.5664 20.3711 20.3711 25.5664 13.9453 25.5664Z" style="fill:var(--color-0,hsl(0 0 0/0.85))"></path>
  <path d="M6.17969 18.416C6.68555 18.416 6.98633 18.1016 6.98633 17.5957L6.98633 15.6953L7.56055 14.6562L9.22852 17.9102C9.36523 18.1973 9.65234 18.3887 10.0078 18.3887C10.3496 18.3887 10.7051 18.1289 10.7051 17.6641C10.7051 17.4727 10.6504 17.2676 10.5684 17.1172L8.70898 13.5625L10.3359 10.7871C10.459 10.582 10.5 10.4453 10.5 10.2129C10.5 9.87109 10.2539 9.50195 9.80273 9.50195C9.39258 9.50195 9.24219 9.69336 9.07812 9.98047L7.05469 13.6172L6.97266 13.6172L6.97266 10.3086C6.97266 9.78906 6.69922 9.48828 6.17969 9.48828C5.6875 9.48828 5.41406 9.80273 5.41406 10.3086L5.41406 17.5957C5.41406 18.1836 5.79688 18.416 6.17969 18.416ZM12.1953 18.3887C12.6875 18.3887 12.9883 18.0605 12.9883 17.5684L12.9883 15.4219L13.9043 15.4219C15.5312 15.4219 16.3105 14.0137 16.3105 12.5234C16.3105 10.9375 15.5039 9.625 14 9.625L12.1953 9.625C11.7031 9.625 11.416 9.93945 11.416 10.4453L11.416 17.5684C11.416 18.0605 11.7168 18.3887 12.1953 18.3887ZM12.9883 14.1777L12.9883 10.8828L13.5898 10.8828C14.4648 10.8828 14.7656 11.6348 14.7656 12.5234C14.7656 13.4121 14.4512 14.1777 13.5762 14.1777ZM17.9238 18.416C18.4297 18.416 18.6895 18.0879 18.6895 17.5547L18.6895 14.5332L20.8086 14.5332L20.8086 17.5547C20.8086 18.0879 21.082 18.416 21.5879 18.416C22.1211 18.416 22.3809 18.0879 22.3809 17.5547L22.3809 10.3223C22.3809 9.78906 22.1211 9.48828 21.5879 9.48828C21.0957 9.48828 20.8086 9.78906 20.8086 10.3223L20.8086 13.2207L18.6895 13.2207L18.6895 10.3223C18.6895 9.78906 18.416 9.48828 17.9238 9.48828C17.3906 9.48828 17.1309 9.78906 17.1309 10.3223L17.1309 17.5547C17.1309 18.0879 17.3906 18.416 17.9238 18.416Z" style="fill:var(--color-1,hsl(0 0 0/0.85))"></path>
 </g>
</svg>