<?xml version="1.0" encoding="UTF-8"?>
<!--Generator: Apple Native CoreSVG 326-->
<!DOCTYPE svg
PUBLIC "-//W3C//DTD SVG 1.1//EN"
       "http://www.w3.org/Graphics/SVG/1.1/DTD/svg11.dtd">
<svg version="1.1" xmlns="http://www.w3.org/2000/svg" xmlns:xlink="http://www.w3.org/1999/xlink" viewBox="0 0 32.0605 35.3418">
 <g>
  <rect height="35.3418" opacity="0" width="32.0605" x="0" y="0"/>
  <path d="M15.8594 26.7012C17.7661 26.7012 19.5331 26.5223 21.1367 26.1843L21.1367 26.8652C21.1367 29.4902 19.168 31.0488 15.8594 31.0488C12.5371 31.0488 10.5684 29.4902 10.5684 26.8652L10.5684 26.1826C12.1754 26.5217 13.9471 26.7012 15.8594 26.7012Z" fill="white" fill-opacity="0.85"/>
  <path d="M29.8457 16.0234C29.8457 20.9043 24.5957 24.8418 15.8594 24.8418C7.10938 24.8418 1.87305 20.9043 1.87305 16.0234C1.87305 11.1562 7.10938 7.21875 15.832 7.21875C24.5957 7.21875 29.8457 11.1562 29.8457 16.0234ZM12.9473 12.2637L12.9473 19.3047C12.9473 19.9883 13.3574 20.4531 13.9863 20.4531L18.334 20.4531C18.8809 20.4531 19.2637 20.0703 19.2637 19.5371C19.2637 18.9902 18.8809 18.6211 18.334 18.6211L15.0391 18.6211L15.0391 12.2637C15.0391 11.5664 14.6289 11.1289 13.9863 11.1289C13.3711 11.1289 12.9473 11.5801 12.9473 12.2637Z" fill="white" fill-opacity="0.85"/>
  <path d="M12.5234 1.66797L15.2441 5.33203C15.6133 5.83789 16.3105 5.83789 16.6797 5.33203L19.4277 1.66797C19.9746 0.943359 19.6875 0 18.7031 0L13.2207 0C12.291 0 11.9492 0.916016 12.5234 1.66797Z" fill="white" fill-opacity="0.85"/>
 </g>
</svg>
