<?xml version="1.0" encoding="UTF-8"?>
<!--Generator: Apple Native CoreSVG 326-->
<!DOCTYPE svg
PUBLIC "-//W3C//DTD SVG 1.1//EN"
       "http://www.w3.org/Graphics/SVG/1.1/DTD/svg11.dtd">
<svg version="1.1" xmlns="http://www.w3.org/2000/svg" xmlns:xlink="http://www.w3.org/1999/xlink" viewBox="0 0 41.1729 31.4863">
 <g>
  <rect height="31.4863" opacity="0" width="41.1729" x="0" y="0"/>
  <path d="M36.145 15.7363C36.145 24.418 29.0903 31.4453 20.4087 31.4453C13.5852 31.4453 7.76139 27.0904 5.60847 20.9939C6.39146 21.1804 7.18321 21.0417 7.81357 20.6437C9.75965 25.6932 14.6524 29.2441 20.4087 29.2441C27.9009 29.2441 33.9438 23.2285 33.9438 15.7363C33.9438 8.24414 27.9009 2.20117 20.4087 2.20117C14.6552 2.20117 9.75144 5.77782 7.80782 10.8456C7.17808 10.448 6.38663 10.3083 5.60022 10.498C7.74697 4.38264 13.5767 0 20.4087 0C29.0903 0 36.145 7.05469 36.145 15.7363Z" fill="white" fill-opacity="0.85"/>
  <path d="M5.53369 12.5508L2.25244 14.998C1.73291 15.3809 1.74658 16.0918 2.25244 16.4746L5.54736 18.9355C6.27197 19.4824 7.24268 19.1816 7.24268 18.2109L7.24268 13.2754C7.24268 12.332 6.28564 11.9902 5.53369 12.5508Z" fill="white" fill-opacity="0.85"/>
  <path d="M20.4087 26.6465C26.438 26.6465 31.3325 21.7656 31.3325 15.7363C31.3325 9.69336 26.438 4.8125 20.4087 4.8125C14.3794 4.8125 9.49854 9.69336 9.49854 15.7363C9.49854 21.7656 14.3794 26.6465 20.4087 26.6465ZM20.4087 24.4453C15.5825 24.4453 11.6997 20.5625 11.6997 15.7363C11.6997 10.8965 15.5825 7.01367 20.4087 7.01367C25.2485 7.01367 29.1313 10.8965 29.1313 15.7363C29.1313 20.5625 25.2485 24.4453 20.4087 24.4453ZM18.3989 20.9727L23.3755 20.9727C23.8677 20.9727 24.2778 20.6309 24.2778 20.1113C24.2778 19.5918 23.8677 19.2227 23.3755 19.2227L19.4653 19.2227L19.4653 11.457C19.4653 10.7734 19.0552 10.3086 18.3989 10.3086C17.7563 10.3086 17.4009 10.7871 17.4009 11.457L17.4009 19.8379C17.4009 20.5078 17.7563 20.9727 18.3989 20.9727Z" fill="white" fill-opacity="0.85"/>
 </g>
</svg>
