<?xml version="1.0" encoding="UTF-8"?>
<!--Generator: Apple Native CoreSVG 326-->
<!DOCTYPE svg
PUBLIC "-//W3C//DTD SVG 1.1//EN"
       "http://www.w3.org/Graphics/SVG/1.1/DTD/svg11.dtd">
<svg version="1.1" xmlns="http://www.w3.org/2000/svg" xmlns:xlink="http://www.w3.org/1999/xlink" viewBox="0 0 40.4722 31.4863">
 <g>
  <rect height="31.4863" opacity="0" width="40.4722" x="0" y="0"/>
  <path d="M34.881 10.4997C34.0964 10.308 33.3035 10.4454 32.6712 10.8414C30.7259 5.77589 25.8208 2.20117 20.0584 2.20117C12.5798 2.20117 6.53687 8.24414 6.53687 15.7363C6.53687 23.2285 12.5662 29.2441 20.0584 29.2441C25.8134 29.2441 30.7133 25.6947 32.664 20.6471C33.2972 21.044 34.091 21.1808 34.8727 20.9924C32.7197 27.0897 26.8932 31.4453 20.0584 31.4453C11.3904 31.4453 4.3357 24.418 4.3357 15.7363C4.3357 7.05469 11.3904 0 20.0584 0C26.9017 0 32.7342 4.38343 34.881 10.4997Z" fill="white" fill-opacity="0.85"/>
  <path d="M34.9334 12.5508C34.1814 11.9902 33.238 12.332 33.238 13.2754L33.238 18.2109C33.238 19.1816 34.1951 19.4824 34.9197 18.9355L38.2146 16.4746C38.7205 16.0918 38.7478 15.3809 38.2146 14.998Z" fill="white" fill-opacity="0.85"/>
  <path d="M20.0584 26.6465C26.1013 26.6465 30.9685 21.7656 30.9685 15.7363C30.9685 9.69336 26.1013 4.8125 20.0584 4.8125C14.0427 4.8125 9.13453 9.69336 9.13453 15.7363C9.13453 21.7656 14.0427 26.6465 20.0584 26.6465ZM20.0584 24.4453C15.2322 24.4453 11.3357 20.5625 11.3357 15.7363C11.3357 10.8965 15.2322 7.01367 20.0584 7.01367C24.8982 7.01367 28.7673 10.8965 28.7673 15.7363C28.7673 20.5625 24.8982 24.4453 20.0584 24.4453ZM18.0486 20.9727L23.0252 20.9727C23.5173 20.9727 23.9275 20.6309 23.9275 20.1113C23.9275 19.5918 23.5173 19.2227 23.0252 19.2227L19.115 19.2227L19.115 11.457C19.115 10.7734 18.7048 10.3086 18.0486 10.3086C17.406 10.3086 17.0505 10.7871 17.0505 11.457L17.0505 19.8379C17.0505 20.5078 17.406 20.9727 18.0486 20.9727Z" fill="white" fill-opacity="0.85"/>
 </g>
</svg>
