<?xml version="1.0" encoding="UTF-8"?>
<!--Generator: Apple Native CoreSVG 326-->
<!DOCTYPE svg
PUBLIC "-//W3C//DTD SVG 1.1//EN"
       "http://www.w3.org/Graphics/SVG/1.1/DTD/svg11.dtd">
<svg version="1.1" xmlns="http://www.w3.org/2000/svg" xmlns:xlink="http://www.w3.org/1999/xlink" viewBox="0 0 40.4722 31.4863">
 <g>
  <rect height="31.4863" opacity="0" width="40.4722" x="0" y="0"/>
  <path d="M34.881 10.4997C34.0964 10.308 33.3035 10.4454 32.6712 10.8414C30.7259 5.77589 25.8208 2.20117 20.0584 2.20117C12.5798 2.20117 6.53687 8.24414 6.53687 15.7363C6.53687 23.2285 12.5662 29.2441 20.0584 29.2441C25.8134 29.2441 30.7133 25.6947 32.664 20.6471C33.2972 21.044 34.091 21.1808 34.8727 20.9924C32.7197 27.0897 26.8932 31.4453 20.0584 31.4453C11.3904 31.4453 4.3357 24.418 4.3357 15.7363C4.3357 7.05469 11.3904 0 20.0584 0C26.9017 0 32.7342 4.38343 34.881 10.4997Z" fill="white" fill-opacity="0.85"/>
  <path d="M34.9334 12.5508C34.1814 11.9902 33.238 12.332 33.238 13.2754L33.238 18.2109C33.238 19.1816 34.1951 19.4824 34.9197 18.9355L38.2146 16.4746C38.7205 16.0918 38.7478 15.3809 38.2146 14.998Z" fill="white" fill-opacity="0.85"/>
  <path d="M20.0584 26.6465C26.1013 26.6465 30.9685 21.7656 30.9685 15.7363C30.9685 9.69336 26.1013 4.8125 20.0584 4.8125C14.0427 4.8125 9.13453 9.69336 9.13453 15.7363C9.13453 21.7656 14.0427 26.6465 20.0584 26.6465ZM17.9802 21.1367C17.3103 21.1367 16.9412 20.6582 16.9412 19.9609L16.9412 11.334C16.9412 10.6367 17.3103 10.1445 17.9802 10.1445C18.6502 10.1445 19.0877 10.623 19.0877 11.334L19.0877 19.332L23.1072 19.332C23.613 19.332 24.0369 19.7148 24.0369 20.248C24.0369 20.7812 23.613 21.1367 23.1072 21.1367Z" fill="white" fill-opacity="0.85"/>
 </g>
</svg>
