<?xml version="1.0" encoding="UTF-8"?>
<!--Generator: Apple Native CoreSVG 326-->
<!DOCTYPE svg
PUBLIC "-//W3C//DTD SVG 1.1//EN"
       "http://www.w3.org/Graphics/SVG/1.1/DTD/svg11.dtd">
<svg version="1.1" xmlns="http://www.w3.org/2000/svg" xmlns:xlink="http://www.w3.org/1999/xlink" viewBox="0 0 31.7324 35.3418">
 <g>
  <rect height="35.3418" opacity="0" width="31.7324" x="0" y="0"/>
  <path d="M15.6953 26.8379C17.5897 26.8379 19.3608 26.6584 20.9727 26.3099L20.9727 26.8652C20.9727 29.4902 19.0039 31.0488 15.6953 31.0488C12.373 31.0488 10.4043 29.4902 10.4043 26.8652L10.4043 26.3084C12.0197 26.6579 13.7954 26.8379 15.6953 26.8379Z" fill="white" fill-opacity="0.85"/>
  <path d="M15.6953 25.252C24.2266 25.252 29.791 21.4785 29.791 16.0234C29.791 10.582 24.2129 6.80859 15.668 6.80859C7.15039 6.80859 1.59961 10.582 1.59961 16.0234C1.59961 21.4785 7.15039 25.252 15.6953 25.252ZM15.6953 22.9004C8.73633 22.9004 4.07422 20.1113 4.07422 16.0234C4.07422 11.9355 8.73633 9.16016 15.668 9.16016C22.627 9.16016 27.3164 11.9355 27.3164 16.0234C27.3164 20.1113 22.6406 22.9004 15.6953 22.9004Z" fill="white" fill-opacity="0.85"/>
  <path d="M13.7812 20.3027L17.9922 20.3027C18.5254 20.3027 18.8945 19.9336 18.8945 19.4277C18.8945 18.8945 18.5254 18.5391 17.9922 18.5391L14.793 18.5391L14.793 12.373C14.793 11.6895 14.3965 11.2793 13.7812 11.2793C13.1797 11.2793 12.7695 11.7031 12.7695 12.373L12.7695 19.209C12.7695 19.8652 13.166 20.3027 13.7812 20.3027Z" fill="white" fill-opacity="0.85"/>
  <path d="M12.25 1.66797L14.9707 5.33203C15.3398 5.83789 16.0371 5.83789 16.4062 5.33203L19.1543 1.66797C19.7012 0.943359 19.4141 0 18.4297 0L12.9473 0C12.0176 0 11.6758 0.916016 12.25 1.66797Z" fill="white" fill-opacity="0.85"/>
 </g>
</svg>
