<?xml version="1.0" encoding="UTF-8"?>
<!--Generator: Apple Native CoreSVG 326-->
<!DOCTYPE svg
PUBLIC "-//W3C//DTD SVG 1.1//EN"
       "http://www.w3.org/Graphics/SVG/1.1/DTD/svg11.dtd">
<svg version="1.1" xmlns="http://www.w3.org/2000/svg" xmlns:xlink="http://www.w3.org/1999/xlink" viewBox="0 0 28.2461 27.9043">
 <g>
  <rect height="27.9043" opacity="0" width="28.2461" x="0" y="0"/>
  <path d="M13.9453 27.8906C21.6426 27.8906 27.8906 21.6289 27.8906 13.9453C27.8906 6.24805 21.6426 0 13.9453 0C6.26172 0 0 6.24805 0 13.9453C0 21.6289 6.26172 27.8906 13.9453 27.8906Z" fill="white" fill-opacity="0.85"/>
  <path d="M9.73438 19.3867C9.10547 19.3867 8.76367 18.9902 8.76367 18.3613L8.76367 9.35156C8.76367 8.81836 9.21484 8.38086 9.74805 8.38086C10.2812 8.38086 10.7188 8.81836 10.7188 9.35156L10.7188 17.7324L13.5762 17.7324C14.0273 17.7324 14.3965 18.1016 14.3965 18.5664C14.3965 19.0039 14.0273 19.3867 13.5762 19.3867ZM17.9785 19.5098C17.4316 19.5098 16.9941 19.0723 16.9941 18.5117L16.9941 10.4043L15.7637 11.3887C15.627 11.498 15.4902 11.5527 15.2852 11.5527C14.875 11.5527 14.6016 11.2656 14.6016 10.8418C14.6016 10.5 14.7793 10.2266 15.0254 10.0625L16.4883 8.90039C16.8027 8.66797 17.2676 8.35352 17.8145 8.35352C18.5254 8.35352 18.9629 8.76367 18.9629 9.46094L18.9629 18.5117C18.9629 19.0723 18.5117 19.5098 17.9785 19.5098Z" fill="white"/>
 </g>
</svg>
