<svg version="1.1" xmlns="http://www.w3.org/2000/svg" xmlns:xlink="http://www.w3.org/1999/xlink" viewBox="0 0 28.2461 27.9043">
 <g>
  
  <path d="M13.9453 27.8906C21.6426 27.8906 27.8906 21.6426 27.8906 13.9453C27.8906 6.24805 21.6426 0 13.9453 0C6.24805 0 0 6.24805 0 13.9453C0 21.6426 6.24805 27.8906 13.9453 27.8906ZM13.9453 25.5664C7.51953 25.5664 2.32422 20.3711 2.32422 13.9453C2.32422 7.51953 7.51953 2.32422 13.9453 2.32422C20.3711 2.32422 25.5664 7.51953 25.5664 13.9453C25.5664 20.3711 20.3711 25.5664 13.9453 25.5664Z" style="fill:var(--color-0,hsl(0 0 0/0.85))"></path>
  <path d="M9.63867 19.4824L13.5625 19.4824C14.0137 19.4824 14.3965 19.1133 14.3965 18.6484C14.3965 18.1973 14.0137 17.8281 13.5625 17.8281L10.6367 17.8281L10.6367 9.24219C10.6367 8.70898 10.1855 8.25781 9.65234 8.25781C9.11914 8.25781 8.6543 8.70898 8.6543 9.24219L8.6543 18.457C8.6543 19.0996 9.00977 19.4824 9.63867 19.4824ZM18.0469 19.6191C18.5938 19.6191 19.0449 19.168 19.0449 18.6211L19.0449 9.35156C19.0449 8.6543 18.6074 8.24414 17.8965 8.24414C17.3223 8.24414 16.8574 8.55859 16.5293 8.80469L15.0254 9.9668C14.793 10.1582 14.6016 10.418 14.6016 10.7734C14.6016 11.1973 14.8887 11.498 15.2988 11.498C15.5176 11.498 15.6543 11.4297 15.791 11.334L17.0488 10.3223L17.0488 18.6211C17.0488 19.168 17.5 19.6191 18.0469 19.6191Z" style="fill:var(--color-1,hsl(0 0 0/0.85))"></path>
 </g>
</svg>