<?xml version="1.0" encoding="UTF-8"?>
<!--Generator: Apple Native CoreSVG 326-->
<!DOCTYPE svg
PUBLIC "-//W3C//DTD SVG 1.1//EN"
       "http://www.w3.org/Graphics/SVG/1.1/DTD/svg11.dtd">
<svg version="1.1" xmlns="http://www.w3.org/2000/svg" xmlns:xlink="http://www.w3.org/1999/xlink" viewBox="0 0 31.8965 23.8574">
 <g>
  <rect height="23.8574" opacity="0" width="31.8965" x="0" y="0"/>
  <path d="M11.4707 0C3.54102 0 0 3.65039 0 11.1152L0 19.6875C0 22.4492 1.42188 23.8438 4.19727 23.8438L27.3438 23.8438C30.1191 23.8438 31.541 22.4355 31.541 19.6875L31.541 11.1152C31.541 3.65039 28 0 20.0703 0ZM11.4707 2.20117L20.0566 2.20117C26.5234 2.20117 29.3398 5.00391 29.3398 10.9648L29.3398 19.5781C29.3398 20.9453 28.6016 21.6426 27.2891 21.6426L4.25195 21.6426C2.91211 21.6426 2.20117 20.9453 2.20117 19.5781L2.20117 10.9648C2.20117 5.00391 5.01758 2.20117 11.4707 2.20117Z" fill="white" fill-opacity="0.85"/>
  <path d="M10.4453 17.4727L14.3828 17.4727C14.834 17.4727 15.2031 17.0898 15.2031 16.6387C15.2031 16.1875 14.834 15.8047 14.3828 15.8047L11.457 15.8047L11.457 7.23242C11.457 6.68555 11.0059 6.23438 10.459 6.23438C9.92578 6.23438 9.47461 6.68555 9.47461 7.23242L9.47461 16.4336C9.47461 17.0762 9.81641 17.4727 10.4453 17.4727ZM17.2266 17.459L21.9707 17.459C22.4492 17.459 22.75 17.1309 22.75 16.6523C22.75 16.1465 22.4355 15.8457 21.9707 15.8457L18.7305 15.8457L18.7305 15.7363L20.7129 13.207C22.0938 11.5117 22.5312 10.5137 22.5312 9.31055C22.5312 7.45117 21.2871 6.11133 19.4004 6.11133C17.6504 6.11133 16.3242 7.56055 16.3242 8.99609C16.3242 9.48828 16.6113 9.84375 17.1445 9.84375C17.5957 9.84375 17.8691 9.63867 18.0059 9.20117C18.2656 8.28516 18.6074 7.69727 19.3867 7.69727C20.207 7.69727 20.6719 8.43555 20.6719 9.39258C20.6719 10.4863 19.9062 11.5938 19.1816 12.5234L16.8164 15.5723C16.5566 15.8867 16.2969 16.2285 16.2969 16.6523C16.2969 17.1172 16.5977 17.459 17.2266 17.459Z" fill="white" fill-opacity="0.85"/>
 </g>
</svg>
