<svg version="1.1" xmlns="http://www.w3.org/2000/svg" xmlns:xlink="http://www.w3.org/1999/xlink" viewBox="0 0 24.6777 29.3809">
 <g>
  
  <path d="M8.13477 29.3672L20.1523 29.3672C22.75 29.3672 24.3086 27.8359 24.3086 25.2656L24.3223 4.14258C24.3223 1.66797 22.6543 0 20.1934 0L15.9961 0C13.8496 0 12.0586 0.560547 10.377 2.10547L1.73633 10.0488C0.574219 11.1152 0 12.6191 0 14.4922L0 21.2324C0 26.1816 3.18555 29.3672 8.13477 29.3672Z" style="fill:var(--color-0,hsl(0 0 0/0.85))"></path>
  <path d="M6.82227 23.1875C6.17969 23.1875 5.81055 22.791 5.81055 22.1211L5.81055 12.6328C5.81055 12.0723 6.27539 11.6074 6.83594 11.6074C7.39648 11.6074 7.875 12.0723 7.875 12.6328L7.875 21.4785L10.8828 21.4785C11.3477 21.4785 11.7441 21.8613 11.7441 22.3262C11.7441 22.8047 11.3477 23.1875 10.8828 23.1875ZM13.8223 23.1738C13.1797 23.1738 12.8652 22.8184 12.8652 22.3535C12.8652 21.916 13.125 21.5605 13.3984 21.2188L15.8457 18.1016C16.584 17.1445 17.3633 15.9961 17.3633 14.875C17.3633 13.8633 16.8984 13.1113 16.0508 13.1113C15.2441 13.1113 14.9023 13.7129 14.6289 14.6562C14.4785 15.1211 14.2051 15.3398 13.7402 15.3398C13.1934 15.3398 12.8789 14.9707 12.8789 14.4512C12.8789 12.9746 14.2598 11.4844 16.0645 11.4844C18.0059 11.4844 19.3047 12.8652 19.3047 14.7656C19.3047 16.0098 18.8398 17.0488 17.4316 18.8125L15.3809 21.3965L15.3809 21.5195L18.7168 21.5195C19.209 21.5195 19.5234 21.8203 19.5234 22.3535C19.5234 22.8457 19.2227 23.1738 18.7168 23.1738Z" style="fill:var(--color-1,white)"></path>
 </g>
</svg>