<svg version="1.1" xmlns="http://www.w3.org/2000/svg" xmlns:xlink="http://www.w3.org/1999/xlink" viewBox="0 0 35.7383 24.6018">
 <g>
  
  <path d="M35.3828 13.8527L35.3828 5.2804C35.3828 2.81947 33.7285 1.1515 31.2539 1.1515L4.10156 1.16517C1.6543 1.16517 0 2.84681 0 5.32142L0 13.8527C0 17.3937 1.51758 19.5675 5.16797 20.6476L17.0078 24.0929C20.1797 25.0226 22.2168 24.6535 25.0469 23.1906L32.7305 19.2394C34.9043 18.1183 35.3828 16.7785 35.3828 13.8527ZM33.1816 13.8527C33.1816 15.8761 32.7988 16.7648 31.3359 17.5031L23.8711 21.3175C21.5195 22.507 19.8516 22.7531 17.0078 21.9054L5.81055 18.5831C3.24023 17.8312 2.20117 16.341 2.20117 13.8527L2.20117 5.36243C2.20117 4.15931 2.9668 3.36634 4.14258 3.36634L31.2266 3.35267C32.4023 3.35267 33.1816 4.13197 33.1816 5.32142Z" style="fill:var(--color-0,hsl(0 0 0/0.85))"></path>
  <path d="M11.8262 17.0792L15.75 17.0792C16.2012 17.0792 16.584 16.6964 16.584 16.2452C16.584 15.7941 16.2012 15.4113 15.75 15.4113L12.8242 15.4113L12.8242 6.839C12.8242 6.30579 12.373 5.85462 11.8398 5.85462C11.293 5.85462 10.8418 6.30579 10.8418 6.839L10.8418 16.0402C10.8418 16.6827 11.1973 17.0792 11.8262 17.0792ZM21.082 17.3117C23.0371 17.3117 24.5547 16.0812 24.5547 14.0304C24.5547 12.3351 23.5293 11.5011 22.3809 11.3781L22.3809 11.3234C23.6113 10.9952 24.2266 9.9015 24.2266 8.75306C24.2266 6.86634 22.8047 5.78626 21.0273 5.78626C19.6191 5.78626 18.3887 6.57923 18.0059 7.79603C17.9238 8.05579 17.8965 8.30189 17.8965 8.53431C17.8965 8.97181 18.1973 9.34095 18.7305 9.34095C19.209 9.34095 19.4688 9.14954 19.6055 8.6847C19.8242 7.87806 20.2617 7.35853 21.0273 7.35853C21.9297 7.35853 22.3535 8.06947 22.3535 8.97181C22.3535 9.96986 21.8066 10.6945 20.7812 10.6945L20.4531 10.6945C19.9883 10.6945 19.7012 10.9816 19.7012 11.4191C19.7012 11.8702 20.002 12.1437 20.4531 12.1437L20.7949 12.1437C21.957 12.1437 22.5996 12.7726 22.5996 13.9757C22.5996 14.9191 22.0938 15.712 21.082 15.712C20.084 15.712 19.6465 15.0421 19.4688 14.4269C19.3457 13.9894 19.0449 13.757 18.6074 13.757C18.0742 13.757 17.7188 14.0714 17.7188 14.6183C17.7188 14.8644 17.7598 15.1105 17.8281 15.3292C18.2246 16.6007 19.6055 17.3117 21.082 17.3117Z" style="fill:var(--color-1,hsl(0 0 0/0.85))"></path>
 </g>
</svg>