<svg version="1.1" xmlns="http://www.w3.org/2000/svg" xmlns:xlink="http://www.w3.org/1999/xlink" viewBox="0 0 32.5938 24.5684">
 <g>
  
  <path d="M10.7734 24.541L21.4648 24.541C29.3945 24.541 32.2383 21.6016 32.2383 14.2871L32.2383 10.2676C32.2383 2.95312 29.3945 0 21.4648 0L10.7734 0C2.84375 0 0 2.95312 0 10.2676L0 14.2871C0 21.6016 2.84375 24.541 10.7734 24.541ZM10.7734 22.3398C4.32031 22.3398 2.20117 20.248 2.20117 14.2871L2.20117 10.2676C2.20117 4.30664 4.32031 2.20117 10.7734 2.20117L21.4648 2.20117C27.918 2.20117 30.0371 4.30664 30.0371 10.2676L30.0371 14.2871C30.0371 20.248 27.918 22.3398 21.4648 22.3398Z" style="fill:var(--color-0,hsl(0 0 0/0.85))"></path>
  <path d="M10.3359 17.8145L14.2734 17.8145C14.7246 17.8145 15.1074 17.4453 15.1074 16.9805C15.1074 16.5293 14.7246 16.1602 14.2734 16.1602L11.3477 16.1602L11.3477 7.57422C11.3477 7.04102 10.8965 6.58984 10.3496 6.58984C9.81641 6.58984 9.36523 7.04102 9.36523 7.57422L9.36523 16.7891C9.36523 17.4316 9.7207 17.8145 10.3359 17.8145ZM21.1914 17.9785C21.7109 17.9785 22.1211 17.6641 22.1211 17.0078L22.1211 15.6406L22.6133 15.6406C23.1465 15.6406 23.3926 15.2988 23.3926 14.834C23.3926 14.3965 23.1602 14.0547 22.6133 14.0547L22.1211 14.0547L22.1211 8.05273C22.1211 7.10938 21.5059 6.57617 20.6172 6.57617C19.6465 6.57617 19.1953 7.06836 18.8125 7.91602L16.3789 13.2207C16.1465 13.7539 16.0645 14.1094 16.0645 14.5332C16.0645 15.1895 16.5156 15.6406 17.1855 15.6406L20.248 15.6406L20.248 17.0078C20.248 17.7324 20.7539 17.9785 21.1914 17.9785ZM20.2891 14.0957L17.7461 14.0957L17.7461 14L20.2344 8.29883L20.2891 8.29883Z" style="fill:var(--color-1,hsl(0 0 0/0.85))"></path>
 </g>
</svg>