<svg version="1.1" xmlns="http://www.w3.org/2000/svg" xmlns:xlink="http://www.w3.org/1999/xlink" viewBox="0 0 28.2461 27.9043">
 <g>
  
  <path d="M13.9453 27.8906C21.6426 27.8906 27.8906 21.6289 27.8906 13.9453C27.8906 6.24805 21.6426 0 13.9453 0C6.26172 0 0 6.24805 0 13.9453C0 21.6289 6.26172 27.8906 13.9453 27.8906Z" style="fill:var(--color-0,hsl(0 0 0/0.85))"></path>
  <path d="M11.3203 20.2344C10.5957 20.2344 10.1992 19.7148 10.1992 18.9629L10.1992 8.49023C10.1992 7.73828 10.5957 7.20508 11.3203 7.20508C12.0723 7.20508 12.4688 7.71094 12.4688 8.49023L12.4688 18.375L17.8145 18.375C18.3613 18.375 18.7578 18.7305 18.7578 19.3047C18.7578 19.8789 18.3613 20.2344 17.8145 20.2344Z" style="fill:var(--color-1,white)"></path>
 </g>
</svg>