<svg version="1.1" xmlns="http://www.w3.org/2000/svg" xmlns:xlink="http://www.w3.org/1999/xlink" viewBox="0 0 32.0605 26.7559">
 <g>
  
  <path d="M15.8594 22.4082C17.7661 22.4082 19.5331 22.2293 21.1367 21.8913L21.1367 22.5723C21.1367 25.1973 19.168 26.7559 15.8594 26.7559C12.5371 26.7559 10.5684 25.1973 10.5684 22.5723L10.5684 21.8897C12.1754 22.2288 13.9471 22.4082 15.8594 22.4082Z" style="fill:var(--color-0,hsl(0 0 0/0.85))"></path>
  <path d="M29.8457 11.7305C29.8457 16.6113 24.5957 20.5488 15.8594 20.5488C7.10938 20.5488 1.87305 16.6113 1.87305 11.7305C1.87305 6.86328 7.10938 2.92578 15.832 2.92578C24.5957 2.92578 29.8457 6.86328 29.8457 11.7305ZM12.9473 7.9707L12.9473 15.0117C12.9473 15.6953 13.3574 16.1602 13.9863 16.1602L18.334 16.1602C18.8809 16.1602 19.2637 15.7773 19.2637 15.2441C19.2637 14.6973 18.8809 14.3281 18.334 14.3281L15.0391 14.3281L15.0391 7.9707C15.0391 7.27344 14.6289 6.83594 13.9863 6.83594C13.3711 6.83594 12.9473 7.28711 12.9473 7.9707Z" style="fill:var(--color-1,hsl(0 0 0/0.85))"></path>
 </g>
</svg>