<svg version="1.1" xmlns="http://www.w3.org/2000/svg" xmlns:xlink="http://www.w3.org/1999/xlink" viewBox="0 0 41.1729 31.4863">
 <g>
  
  <path d="M36.145 15.7363C36.145 24.418 29.0903 31.4453 20.4087 31.4453C13.5852 31.4453 7.76139 27.0904 5.60847 20.9939C6.39146 21.1804 7.18321 21.0417 7.81357 20.6437C9.75965 25.6932 14.6524 29.2441 20.4087 29.2441C27.9009 29.2441 33.9438 23.2285 33.9438 15.7363C33.9438 8.24414 27.9009 2.20117 20.4087 2.20117C14.6552 2.20117 9.75144 5.77782 7.80782 10.8456C7.17808 10.448 6.38663 10.3083 5.60022 10.498C7.74697 4.38264 13.5767 0 20.4087 0C29.0903 0 36.145 7.05469 36.145 15.7363Z" style="fill:var(--color-0,hsl(0 0 0/0.85))"></path>
  <path d="M5.53369 12.5508L2.25244 14.998C1.73291 15.3809 1.74658 16.0918 2.25244 16.4746L5.54736 18.9355C6.27197 19.4824 7.24268 19.1816 7.24268 18.2109L7.24268 13.2754C7.24268 12.332 6.28564 11.9902 5.53369 12.5508Z" style="fill:var(--color-1,hsl(0 0 0/0.85))"></path>
  <path d="M20.4087 26.6465C26.438 26.6465 31.3325 21.7656 31.3325 15.7363C31.3325 9.69336 26.438 4.8125 20.4087 4.8125C14.3794 4.8125 9.49854 9.69336 9.49854 15.7363C9.49854 21.7656 14.3794 26.6465 20.4087 26.6465ZM18.3306 21.1367C17.6606 21.1367 17.2915 20.6582 17.2915 19.9609L17.2915 11.334C17.2915 10.6367 17.6606 10.1445 18.3306 10.1445C19.0005 10.1445 19.438 10.623 19.438 11.334L19.438 19.332L23.4575 19.332C23.9634 19.332 24.3872 19.7148 24.3872 20.248C24.3872 20.7812 23.9634 21.1367 23.4575 21.1367Z" style="fill:var(--color-2,hsl(0 0 0/0.85))"></path>
 </g>
</svg>