<svg version="1.1" xmlns="http://www.w3.org/2000/svg" xmlns:xlink="http://www.w3.org/1999/xlink" viewBox="0 0 31.8008 40.8311">
 <g>
  
  <path d="M31.4453 20.4087C31.4453 29.0903 24.3906 36.1313 15.7227 36.1313C7.04102 36.1313 0 29.0767 0 20.4087C0 13.5752 4.36231 7.74971 10.4613 5.59573C10.2714 6.37732 10.4093 7.17089 10.8079 7.80379C5.75766 9.75511 2.20117 14.6545 2.20117 20.4087C2.20117 27.9009 8.23047 33.9302 15.7227 33.9302C23.2012 33.9302 29.2441 27.9009 29.2441 20.4087C29.2441 14.6475 25.6709 9.74321 20.6133 7.79702C21.0105 7.16449 21.1468 6.37102 20.9518 5.58588C27.0616 7.73251 31.4453 13.5651 31.4453 20.4087Z" style="fill:var(--color-0,hsl(0 0 0/0.85))"></path>
  <path d="M13.248 7.229L18.1699 7.229C19.127 7.229 19.4688 6.28564 18.8945 5.53369L16.4609 2.25244C16.0645 1.73291 15.3672 1.73291 14.9844 2.25244L12.5098 5.54736C11.9766 6.27197 12.2637 7.229 13.248 7.229Z" style="fill:var(--color-1,hsl(0 0 0/0.85))"></path>
  <path d="M15.7227 31.3325C21.752 31.3325 26.6328 26.438 26.6328 20.4087C26.6328 14.3657 21.752 9.49854 15.7227 9.49854C9.69336 9.49854 4.8125 14.3657 4.8125 20.4087C4.8125 26.438 9.69336 31.3325 15.7227 31.3325ZM13.6309 25.8091C12.9609 25.8091 12.5918 25.3306 12.5918 24.6333L12.5918 16.0063C12.5918 15.3091 12.9609 14.8169 13.6309 14.8169C14.3008 14.8169 14.7383 15.2954 14.7383 16.0063L14.7383 24.0044L18.7578 24.0044C19.2637 24.0044 19.6875 24.3872 19.6875 24.9204C19.6875 25.4536 19.2637 25.8091 18.7578 25.8091Z" style="fill:var(--color-2,hsl(0 0 0/0.85))"></path>
 </g>
</svg>