<svg version="1.1" xmlns="http://www.w3.org/2000/svg" xmlns:xlink="http://www.w3.org/1999/xlink" viewBox="0 0 31.7324 26.7559">
 <g>
  
  <path d="M15.6953 22.5449C17.5897 22.5449 19.3608 22.3654 20.9727 22.017L20.9727 22.5723C20.9727 25.1973 19.0039 26.7559 15.6953 26.7559C12.373 26.7559 10.4043 25.1973 10.4043 22.5723L10.4043 22.0154C12.0197 22.3649 13.7954 22.5449 15.6953 22.5449Z" style="fill:var(--color-0,hsl(0 0 0/0.85))"></path>
  <path d="M15.6953 20.959C24.2266 20.959 29.791 17.1855 29.791 11.7305C29.791 6.28906 24.2129 2.51562 15.668 2.51562C7.15039 2.51562 1.59961 6.28906 1.59961 11.7305C1.59961 17.1855 7.15039 20.959 15.6953 20.959ZM15.6953 18.6074C8.73633 18.6074 4.07422 15.8184 4.07422 11.7305C4.07422 7.64258 8.73633 4.86719 15.668 4.86719C22.627 4.86719 27.3164 7.64258 27.3164 11.7305C27.3164 15.8184 22.6406 18.6074 15.6953 18.6074Z" style="fill:var(--color-1,hsl(0 0 0/0.85))"></path>
  <path d="M13.7812 16.0098L17.9922 16.0098C18.5254 16.0098 18.8945 15.6406 18.8945 15.1348C18.8945 14.6016 18.5254 14.2461 17.9922 14.2461L14.793 14.2461L14.793 8.08008C14.793 7.39648 14.3965 6.98633 13.7812 6.98633C13.1797 6.98633 12.7695 7.41016 12.7695 8.08008L12.7695 14.916C12.7695 15.5723 13.166 16.0098 13.7812 16.0098Z" style="fill:var(--color-2,hsl(0 0 0/0.85))"></path>
 </g>
</svg>