<?xml version="1.0" encoding="UTF-8"?>
<!--Generator: Apple Native CoreSVG 326-->
<!DOCTYPE svg
PUBLIC "-//W3C//DTD SVG 1.1//EN"
       "http://www.w3.org/Graphics/SVG/1.1/DTD/svg11.dtd">
<svg version="1.1" xmlns="http://www.w3.org/2000/svg" xmlns:xlink="http://www.w3.org/1999/xlink" viewBox="0 0 28.2461 27.9043">
 <g>
  <rect height="27.9043" opacity="0" width="28.2461" x="0" y="0"/>
  <path d="M13.9453 27.9043C21.6426 27.9043 27.8906 21.6562 27.8906 13.959C27.8906 6.27539 21.6426 0.0136719 13.9453 0.0136719C6.26172 0.0136719 0 6.27539 0 13.959C0 21.6562 6.26172 27.9043 13.9453 27.9043Z" fill="white" fill-opacity="0.85"/>
  <path d="M15.7705 18.0847C15.7658 18.1262 15.7637 18.1684 15.7637 18.2109C15.7637 18.9355 16.3926 19.5234 17.0898 19.5234C17.1288 19.5234 17.1672 19.5218 17.205 19.5177L18.6158 20.927C17.726 21.7866 16.5748 22.3452 15.2305 22.5176C14.7109 22.5586 14.4375 22.3809 14.4375 21.9844L14.4375 16.7532ZM7.3265 9.64965L10.7927 13.1122C10.7376 13.1021 10.6808 13.0977 10.623 13.0977C9.98047 13.0977 9.44727 13.6309 9.44727 14.2598C9.44727 14.8887 9.98047 15.4355 10.623 15.4355C11.252 15.4355 11.7715 14.8887 11.7715 14.2598C11.7715 14.1963 11.7662 14.1339 11.7547 14.0732L13.4395 15.7562L13.4395 21.9844C13.4395 22.3809 13.1797 22.5586 12.6602 22.5176C11.0469 22.3125 9.73438 21.5605 8.77734 20.4121L7.73828 21.2871C7.4375 21.5469 7.04102 21.5742 6.80859 21.2598C6.57617 21 6.6582 20.6172 6.95898 20.3574L8.09375 19.4004C7.56055 18.4023 7.24609 17.1992 7.21875 15.8867L5.87891 15.8867C5.48242 15.8867 5.25 15.6406 5.25 15.2852C5.25 14.916 5.48242 14.6836 5.87891 14.6836L7.28711 14.6699C7.42383 13.6445 7.72461 12.5918 8.17578 11.7852L6.98633 10.7734C6.68555 10.541 6.60352 10.1445 6.82227 9.85742C6.95963 9.68953 7.13959 9.62813 7.3265 9.64965ZM7.94336 7.04102L20.877 19.9746C21.123 20.2344 21.123 20.6172 20.877 20.877C20.6309 21.123 20.207 21.123 19.9746 20.877L7.02734 7.94336C6.79492 7.69727 6.78125 7.28711 7.02734 7.04102C7.28711 6.78125 7.69727 6.78125 7.94336 7.04102ZM9.46094 18.2109C9.46094 18.9355 10.0625 19.5234 10.7871 19.5234C11.498 19.5234 12.127 18.9355 12.127 18.2109C12.127 17.4863 11.498 16.8848 10.7871 16.8848C10.0625 16.8848 9.46094 17.4863 9.46094 18.2109ZM21.0547 9.85742C21.2871 10.1445 21.1914 10.541 20.9043 10.7734L19.7148 11.7852C20.1523 12.5918 20.4668 13.6445 20.5898 14.6699L21.998 14.6836C22.4082 14.6836 22.6406 14.916 22.6406 15.2852C22.6406 15.6406 22.4082 15.8867 21.998 15.8867L20.6719 15.8867C20.6561 16.6457 20.5442 17.3681 20.3442 18.0336L17.6704 15.3599C18.1188 15.1911 18.4434 14.7504 18.4434 14.2598C18.4434 13.6309 17.9102 13.0977 17.2676 13.0977C16.7756 13.0977 16.3423 13.4239 16.1781 13.8676L13.7066 11.396C13.7858 11.4014 13.8656 11.4023 13.9453 11.4023C15.4082 11.4023 16.8574 11.0879 17.9922 10.582C18.2383 10.4727 18.5391 10.4727 18.9629 10.8281L20.125 9.84375C20.4395 9.59766 20.8086 9.55664 21.0547 9.85742ZM17.3359 5.57812L16.8027 5.75586C16.4746 5.85156 16.3652 6.04297 16.4199 6.30273L16.4473 6.50781C17.4453 7.06836 18.0059 7.95703 18.0059 8.94141C18.0059 9.36523 17.8555 9.66602 17.3633 9.89844C16.5156 10.2812 15.2441 10.5137 13.9453 10.5137C13.5414 10.5137 13.1413 10.4917 12.7582 10.4476L10.1338 7.8232C10.3908 7.29958 10.8357 6.84451 11.4434 6.50781L11.4707 6.30273C11.5117 6.04297 11.4023 5.85156 11.0879 5.75586L10.541 5.57812C9.78906 5.37305 10.1719 4.18359 10.9512 4.4707L11.5664 4.7168C12.2227 4.94922 12.6191 5.40039 12.5918 6.00195L12.5781 6.07031C13.002 5.96094 13.4531 5.90625 13.9453 5.90625C14.4238 5.90625 14.875 5.96094 15.2988 6.07031L15.2988 6.00195C15.2715 5.38672 15.668 4.94922 16.3105 4.7168L16.9395 4.4707C17.7188 4.18359 18.1016 5.37305 17.3359 5.57812Z" fill="white"/>
 </g>
</svg>
