<?xml version="1.0" encoding="UTF-8"?>
<!--Generator: Apple Native CoreSVG 326-->
<!DOCTYPE svg
PUBLIC "-//W3C//DTD SVG 1.1//EN"
       "http://www.w3.org/Graphics/SVG/1.1/DTD/svg11.dtd">
<svg version="1.1" xmlns="http://www.w3.org/2000/svg" xmlns:xlink="http://www.w3.org/1999/xlink" viewBox="0 0 34.3506 37.2594">
 <g>
  <rect height="37.2594" opacity="0" width="34.3506" x="0" y="0"/>
  <path d="M8.92025 16.0086C7.89875 17.7297 7.12646 19.9416 7.12646 22.492C7.12646 28.2798 10.6545 32.2486 16.0405 32.6632L16.0405 23.1119L17.8315 24.8986L17.8315 32.6685C20.0677 32.5259 21.986 31.7688 23.4734 30.527L25.024 32.074C22.982 33.8457 20.2323 34.8377 16.9976 34.8377C13.0629 34.8377 9.84588 33.3699 7.74442 30.8203L5.88232 32.3905C5.37646 32.8143 4.72021 32.869 4.31006 32.3631C3.88623 31.8573 4.05029 31.201 4.54248 30.7908L6.56891 29.0804C5.58029 27.3042 5.03155 25.1613 5.00387 22.7421L2.62842 22.7518C1.94482 22.7518 1.50732 22.328 1.50732 21.699C1.50732 21.0838 1.94482 20.66 2.62842 20.66L5.11593 20.6499C5.34351 18.8221 5.91242 17.0461 6.75611 15.4604L4.5835 13.6326C4.09131 13.2225 3.92725 12.5526 4.35107 12.0604C4.45113 11.937 4.56584 11.8469 4.6896 11.788ZM14.2222 28.1932C14.2222 29.0682 13.5112 29.7791 12.6226 29.7791C11.7612 29.7791 11.0366 29.0682 11.0366 28.1932C11.0366 27.3045 11.7612 26.5936 12.6226 26.5936C13.5112 26.5936 14.2222 27.3045 14.2222 28.1932ZM22.3644 29.4207C22.0931 29.6447 21.747 29.7791 21.3726 29.7791C20.4839 29.7791 19.7729 29.0682 19.7729 28.1932C19.7729 27.8108 19.9046 27.4612 20.126 27.1876ZM23.0132 4.69124L22.0972 5.03303C21.4956 5.23811 21.2632 5.55256 21.3862 6.04475L21.5259 6.67962C23.2642 7.70083 24.2822 9.41314 24.2983 11.6502C24.9706 12.24 25.584 12.9188 26.1267 13.6678L28.0718 12.033C28.5776 11.6092 29.2339 11.5545 29.644 12.0604C30.0542 12.5526 29.9038 13.2225 29.4116 13.6326L27.2368 15.4526C28.0816 17.048 28.6496 18.8322 28.8778 20.6498L31.3667 20.66C32.0503 20.66 32.4878 21.0838 32.4878 21.699C32.4878 22.328 32.0503 22.7518 31.3667 22.7518L28.9912 22.7421C28.9729 24.5362 28.6646 26.1766 28.1057 27.6304L26.3969 25.9232C26.7084 24.8766 26.8687 23.7256 26.8687 22.492C26.8687 18.6092 25.0503 15.5057 23.3687 13.742C21.7964 14.4393 19.4038 14.9041 16.9976 14.9041C16.4241 14.9041 15.8507 14.8777 15.2895 14.8264L10.0457 9.5877C10.4766 8.34257 11.3106 7.35526 12.4697 6.67748L12.6089 6.04475C12.7319 5.55256 12.4995 5.23811 11.8979 5.03303L10.9683 4.69124C9.65576 4.30842 10.2983 2.326 11.6519 2.79085L12.7456 3.22835C14.0282 3.68641 14.6593 4.60801 14.565 5.85012C15.3062 5.67085 16.1216 5.57991 16.9976 5.57991C17.8723 5.57991 18.688 5.67118 19.4302 5.85146C19.3354 4.60867 19.9665 3.68657 21.2495 3.22835L22.3433 2.79085C23.6831 2.326 24.3394 4.30842 23.0132 4.69124ZM13.0054 23.0936C13.0054 24.201 12.103 25.1033 10.9956 25.1033C9.88818 25.1033 8.98584 24.201 8.98584 23.0936C8.98584 21.9862 9.88818 21.0838 10.9956 21.0838C12.103 21.0838 13.0054 21.9862 13.0054 23.0936ZM25.0093 23.0936C25.0093 23.5029 24.886 23.8843 24.674 24.202L21.8895 21.4201C22.2075 21.2075 22.5895 21.0838 22.9995 21.0838C24.1069 21.0838 25.0093 21.9862 25.0093 23.0936ZM23.0679 17.953C23.0679 18.8963 22.3022 19.6893 21.3726 19.6893C20.4155 19.6893 19.6362 18.8963 19.6362 17.953C19.6362 17.0096 20.4019 16.2303 21.3726 16.2303C22.3022 16.2303 23.0679 17.0096 23.0679 17.953ZM12.6091 19.6886C11.7056 19.6817 10.9605 18.9258 10.9303 18.0138ZM17.8231 17.3576L17.0589 16.5941C17.4577 16.6449 17.7719 16.9589 17.8231 17.3576Z" fill="white" fill-opacity="0.85"/>
  <path d="M1.90381 6.74202L30.5737 35.3436C30.9839 35.7537 31.6675 35.7537 32.064 35.3436C32.4741 34.9198 32.4741 34.2635 32.064 33.8533L3.40771 5.25178C3.01123 4.84163 2.32764 4.82796 1.90381 5.25178C1.50732 5.64827 1.50732 6.33186 1.90381 6.74202Z" fill="white" fill-opacity="0.85"/>
 </g>
</svg>
