<?xml version="1.0" encoding="UTF-8"?>
<!--Generator: Apple Native CoreSVG 326-->
<!DOCTYPE svg
PUBLIC "-//W3C//DTD SVG 1.1//EN"
       "http://www.w3.org/Graphics/SVG/1.1/DTD/svg11.dtd">
<svg version="1.1" xmlns="http://www.w3.org/2000/svg" xmlns:xlink="http://www.w3.org/1999/xlink" viewBox="0 0 31.3496 32.3931">
 <g>
  <rect height="32.3931" opacity="0" width="31.3496" x="0" y="0"/>
  <path d="M6.21289 28.4107L4.38867 29.9573C3.86914 30.3811 3.22656 30.4358 2.80273 29.9299C2.39258 29.4241 2.54297 28.7678 3.03516 28.3577L5.04745 26.6682C5.38332 27.2961 5.77274 27.8789 6.21289 28.4107ZM27.9453 28.3577C28.4512 28.7678 28.6016 29.4241 28.1914 29.9299C27.7676 30.4358 27.1113 30.3811 26.6055 29.9573L24.777 28.4155C25.2186 27.883 25.6091 27.2991 25.9457 26.6699ZM3.48633 20.0589L3.49549 20.309L1.13477 20.3186C0.4375 20.3186 0 19.8948 0 19.2659C0 18.6507 0.4375 18.2268 1.12109 18.2268L3.61713 18.2167C3.53075 18.8522 3.48633 19.4745 3.48633 20.0589ZM29.873 18.2268C30.543 18.2268 30.9941 18.6507 30.9941 19.2659C30.9941 19.8948 30.543 20.3186 29.8594 20.3186L27.4986 20.309C27.5072 20.2283 27.5078 20.1437 27.5078 20.0589C27.5078 19.4745 27.4634 18.8522 27.377 18.2167ZM4.42969 9.59987L6.53421 11.3876C6.47715 11.4347 6.41815 11.4862 6.35742 11.5413C5.95221 11.9242 5.57976 12.4314 5.2485 13.0252L3.08984 11.1995C2.59766 10.7893 2.43359 10.1194 2.84375 9.62721C3.25391 9.12135 3.92383 9.17604 4.42969 9.59987ZM28.1504 9.62721C28.5605 10.1194 28.3965 10.7893 27.9043 11.1995L25.7456 13.0252C25.4144 12.4314 25.0419 11.9242 24.6367 11.5413C24.576 11.4862 24.517 11.4347 24.4599 11.3876L26.5645 9.59987C27.0703 9.17604 27.7402 9.12135 28.1504 9.62721Z" fill="black"/>
  <path d="M3.48633 20.0589C3.48633 26.6624 7.32812 31.4612 13.207 32.2132C14.1367 32.3225 14.6016 31.9944 14.6016 31.2835L14.6016 15.7249C14.6016 15.2327 14.998 14.8362 15.4902 14.8362C15.9824 14.8362 16.3926 15.2327 16.3926 15.7249L16.3926 31.2835C16.3926 31.9944 16.8574 32.3225 17.7871 32.2132C23.666 31.4612 27.5078 26.6624 27.5078 20.0589C27.5078 17.1057 26.373 13.1819 24.6367 11.5413C23.748 10.7346 23.2285 10.721 22.709 10.9397C20.6855 11.8421 18.1289 12.4163 15.4902 12.4163C12.8652 12.4163 10.3086 11.8421 8.28516 10.9397C7.76562 10.721 7.24609 10.7346 6.35742 11.5413C4.62109 13.1819 3.48633 17.1057 3.48633 20.0589Z" fill="#ff453a"/>
  <path d="M10.1719 17.4612C9.20117 17.4612 8.42188 16.6409 8.42188 15.6975C8.42188 14.7268 9.20117 13.9339 10.1719 13.9339C11.1426 13.9339 11.9355 14.7268 11.9355 15.6975C11.9355 16.6546 11.1426 17.4612 10.1719 17.4612ZM8.70898 23.3401C7.57422 23.3401 6.6582 22.4241 6.6582 21.2757C6.6582 20.1546 7.57422 19.2385 8.70898 19.2385C9.83008 19.2385 10.7598 20.1546 10.7598 21.2757C10.7598 22.4241 9.83008 23.3401 8.70898 23.3401ZM10.4453 28.344C9.61133 28.344 8.94141 27.6741 8.94141 26.8401C8.94141 26.0061 9.61133 25.3362 10.4453 25.3362C11.293 25.3362 11.9629 26.0061 11.9629 26.8401C11.9629 27.6741 11.293 28.344 10.4453 28.344ZM20.8223 17.4612C19.8516 17.4612 19.0586 16.6546 19.0586 15.6975C19.0586 14.7268 19.8516 13.9339 20.8223 13.9339C21.793 13.9339 22.5723 14.7268 22.5723 15.6975C22.5723 16.6409 21.793 17.4612 20.8223 17.4612ZM22.2852 23.3401C21.1641 23.3401 20.2344 22.4241 20.2344 21.2757C20.2344 20.1546 21.1641 19.2385 22.2852 19.2385C23.4199 19.2385 24.3359 20.1546 24.3359 21.2757C24.3359 22.4241 23.4199 23.3401 22.2852 23.3401ZM20.5488 28.344C19.7012 28.344 19.0312 27.6741 19.0312 26.8401C19.0312 26.0061 19.7012 25.3362 20.5488 25.3362C21.3828 25.3362 22.0527 26.0061 22.0527 26.8401C22.0527 27.6741 21.3828 28.344 20.5488 28.344Z" fill="black"/>
  <path d="M8.23047 8.00026C8.23047 8.73854 8.51758 9.31276 9.39258 9.70925C10.8965 10.4065 13.166 10.8303 15.4902 10.8303C17.8281 10.8303 20.0977 10.4065 21.6016 9.70925C22.4766 9.31276 22.7637 8.73854 22.7637 8.00026C22.7637 4.99245 19.8789 2.59987 15.4902 2.59987C11.1152 2.59987 8.23047 4.99245 8.23047 8.00026ZM9.47461 1.97096L10.4043 2.31276C10.9922 2.51784 11.2246 2.83229 11.1152 3.31081L10.9512 4.00807L12.9609 3.9944L13.0566 3.29714C13.207 1.97096 12.5918 0.986589 11.2383 0.508074L10.1582 0.0705735C8.80469-0.39427 8.16211 1.57448 9.47461 1.97096ZM21.5195 1.97096C22.832 1.57448 22.1895-0.39427 20.8359 0.0705735L19.7559 0.508074C18.4023 0.986589 17.7871 1.97096 17.9375 3.29714L18.0332 3.9944L20.043 4.00807L19.8789 3.31081C19.7695 2.83229 20.002 2.51784 20.5898 2.31276Z" fill="black"/>
 </g>
</svg>
