<svg version="1.1" xmlns="http://www.w3.org/2000/svg" xmlns:xlink="http://www.w3.org/1999/xlink" viewBox="0 0 31.3496 32.416">
 <g>
  
  <path d="M15.4902 32.416C22.709 32.416 27.5078 27.4941 27.5078 20.0703C27.5078 15.9688 25.6895 11.7715 22.791 9.22852C22.7637 5.44141 19.8789 3.1582 15.4902 3.1582C11.1016 3.1582 8.23047 5.45508 8.20312 9.24219C5.30469 11.7852 3.48633 15.9141 3.48633 20.0703C3.48633 27.4941 8.28516 32.416 15.4902 32.416ZM15.4902 12.4824C17.9102 12.4824 20.3027 12.0176 21.8613 11.3203C23.5566 13.084 25.3613 16.1875 25.3613 20.0703C25.3613 26.1953 21.4102 30.2832 15.4902 30.2832C9.57031 30.2832 5.61914 26.1953 5.61914 20.0703C5.61914 16.2012 7.41016 13.1113 9.13281 11.3203C10.6914 12.0176 13.084 12.4824 15.4902 12.4824ZM14.5469 30.8848L16.3379 30.8848L16.3379 15.0527C16.3379 14.5605 15.9277 14.1641 15.4355 14.1641C14.9434 14.1641 14.5469 14.5605 14.5469 15.0527ZM11.1289 17.2676C12.0859 17.2676 12.8516 16.4746 12.8516 15.5312C12.8516 14.5879 12.0859 13.8086 11.1289 13.8086C10.1855 13.8086 9.41992 14.5879 9.41992 15.5312C9.41992 16.4746 10.1855 17.2676 11.1289 17.2676ZM9.50195 22.6816C10.5957 22.6816 11.498 21.7793 11.498 20.6719C11.498 19.5645 10.5957 18.6621 9.50195 18.6621C8.38086 18.6621 7.47852 19.5645 7.47852 20.6719C7.47852 21.7793 8.38086 22.6816 9.50195 22.6816ZM11.1289 27.3574C12.0176 27.3574 12.7285 26.6465 12.7285 25.7715C12.7285 24.8828 12.0176 24.1719 11.1289 24.1719C10.2539 24.1719 9.54297 24.8828 9.54297 25.7715C9.54297 26.6465 10.2539 27.3574 11.1289 27.3574ZM19.8652 17.2676C20.8086 17.2676 21.5742 16.4746 21.5742 15.5312C21.5742 14.5879 20.8086 13.8086 19.8652 13.8086C18.9082 13.8086 18.1426 14.5879 18.1426 15.5312C18.1426 16.4746 18.9082 17.2676 19.8652 17.2676ZM21.4922 22.6816C22.5996 22.6816 23.5156 21.7793 23.5156 20.6719C23.5156 19.5645 22.5996 18.6621 21.4922 18.6621C20.3984 18.6621 19.4824 19.5645 19.4824 20.6719C19.4824 21.7793 20.3984 22.6816 21.4922 22.6816ZM19.8652 27.3574C20.7402 27.3574 21.4512 26.6465 21.4512 25.7715C21.4512 24.8828 20.7402 24.1719 19.8652 24.1719C18.9766 24.1719 18.2656 24.8828 18.2656 25.7715C18.2656 26.6465 18.9766 27.3574 19.8652 27.3574ZM9.47461 2.26953L10.4043 2.61133C10.9922 2.81641 11.2246 3.13086 11.1152 3.62305L10.9512 4.30664L12.9609 4.29297L13.0566 3.5957C13.207 2.26953 12.5918 1.28516 11.2383 0.806641L10.1582 0.369141C8.80469-0.0957031 8.16211 1.88672 9.47461 2.26953ZM21.5195 2.26953C22.832 1.88672 22.1895-0.0957031 20.8359 0.369141L19.7559 0.806641C18.4023 1.28516 17.7871 2.26953 17.9375 3.5957L18.0332 4.29297L20.043 4.30664L19.8789 3.62305C19.7695 3.13086 20.002 2.81641 20.5898 2.61133ZM6.97266 11.7715L4.42969 9.61133C3.92383 9.1875 3.26758 9.13281 2.84375 9.63867C2.43359 10.1309 2.58398 10.8008 3.08984 11.2109L5.67383 13.3848ZM4.48438 18.2246L1.12109 18.2383C0.4375 18.2383 0 18.6621 0 19.2773C0 19.9062 0.4375 20.3301 1.13477 20.3301L4.48438 20.3164ZM5.5918 26.2227L3.03516 28.3691C2.54297 28.7793 2.39258 29.4355 2.80273 29.9414C3.22656 30.4473 3.86914 30.3926 4.38867 29.9688L6.9043 27.8359ZM24.0078 11.7715L25.3203 13.3848L27.9043 11.2109C28.3965 10.8008 28.5605 10.1309 28.1504 9.63867C27.7266 9.13281 27.0703 9.1875 26.5645 9.61133ZM26.5098 18.2246L26.5098 20.3164L29.8594 20.3301C30.543 20.3301 30.9941 19.9062 30.9941 19.2773C30.9941 18.6621 30.543 18.2383 29.873 18.2383ZM25.3887 26.2227L24.0762 27.8223L26.6055 29.9688C27.1113 30.3926 27.7676 30.4473 28.1914 29.9414C28.6016 29.4355 28.4512 28.7793 27.9453 28.3691Z" style="fill:var(--color-0,hsl(0 0 0/0.85))"></path>
 </g>
</svg>