<?xml version="1.0" encoding="UTF-8"?>
<!--Generator: Apple Native CoreSVG 326-->
<!DOCTYPE svg
PUBLIC "-//W3C//DTD SVG 1.1//EN"
       "http://www.w3.org/Graphics/SVG/1.1/DTD/svg11.dtd">
<svg version="1.1" xmlns="http://www.w3.org/2000/svg" xmlns:xlink="http://www.w3.org/1999/xlink" viewBox="0 0 26.1406 31.7598">
 <g>
  <rect height="31.7598" opacity="0" width="26.1406" x="0" y="0"/>
  <path d="M12.8926 7.20508C16.1191 7.20508 18.7715 5.35938 19.2773 2.69336C19.4551 1.70898 18.9902 0.984375 18.0195 0.724609C15.1074-0.0546875 10.6777-0.0546875 7.7793 0.724609C6.80859 0.984375 6.34375 1.70898 6.52148 2.69336C7.02734 5.35938 9.66602 7.20508 12.8926 7.20508ZM11.7988 14.8477L14 14.8477L14 6.38477L11.7988 6.38477ZM12.8926 19.9473C17.9512 19.9473 22.2441 20.877 24.8555 22.5312C23.625 20.043 21.2734 17.623 18.498 16.2559C17.7051 13.6035 15.4355 11.9492 12.8926 11.9492C10.3496 11.9492 8.08008 13.6035 7.28711 16.2559C4.51172 17.623 2.16016 20.043 0.929688 22.5312C3.54102 20.877 7.83398 19.9473 12.8926 19.9473ZM12.8926 31.7598C20.6309 31.7598 25.7852 29.6133 25.7852 26.4004C25.7852 23.4609 19.5918 21.6699 12.8926 21.6699C6.19336 21.6699 0 23.4336 0 26.4004C0 29.6133 5.1543 31.7598 12.8926 31.7598ZM12.8926 27.3848C10.3223 27.3848 8.08008 25.8672 7.99805 23.8848C9.48828 23.6387 11.1562 23.4883 12.8926 23.4883C14.6152 23.4883 16.2969 23.6387 17.7871 23.8848C17.6914 25.8672 15.5039 27.3848 12.8926 27.3848Z" fill="white" fill-opacity="0.85"/>
 </g>
</svg>
