<svg version="1.1" xmlns="http://www.w3.org/2000/svg" xmlns:xlink="http://www.w3.org/1999/xlink" viewBox="0 0 26.4688 32.7715">
 <g>
  
  <path d="M14.7656 17.7598L25.4023 7.12305C26.7148 5.82422 26.0859 3.95117 24.459 3.44531C21.6699 2.54297 18.7168 2.29688 15.3535 2.48828L14.9297 2.03711C13.4258 0.451172 11.2109 0.396484 9.61133 1.96875C8.03906 3.58203 8.09375 5.85156 9.67969 7.30078L10.1309 7.72461C9.93945 11.0742 10.1855 14 11.0605 16.8027C11.5801 18.457 13.4531 19.0859 14.7656 17.7598ZM13.4121 16.3926C13.1934 16.6113 13.002 16.584 12.8105 15.9551C12.0586 13.5625 11.8535 10.8828 12.0859 7.61523C12.1133 7.16406 11.9219 6.72656 11.5801 6.42578L10.9785 5.87891C10.2129 5.16797 10.1719 4.16992 10.9785 3.32227C11.8262 2.51562 12.8105 2.54297 13.5352 3.33594L14.082 3.9375C14.3965 4.2793 14.8613 4.4707 15.3398 4.42969C18.5391 4.22461 21.2324 4.42969 23.625 5.19531C24.2129 5.38672 24.2402 5.56445 24.0488 5.75586ZM19.4414 16.3789C21.957 16.3789 24.0215 14.3281 24.0215 11.8262C24.0215 10.6367 23.5566 9.48828 22.6816 8.59961L21.6836 10.5137C21.9434 10.8965 22.0801 11.3477 22.0801 11.8262C22.0801 13.2754 20.877 14.4512 19.4414 14.4512C18.9629 14.4512 18.498 14.3145 18.1152 14.0684L16.3789 15.2168C17.2266 15.9961 18.3203 16.3789 19.4414 16.3789ZM9.7207 3.54102L11.1289 2.03711L9.46094 0.382812C9.05078-0.0273438 8.42188-0.0273438 8.01172 0.382812C7.61523 0.779297 7.60156 1.4082 8.01172 1.81836ZM2.58398 18.9902L11.2383 11.0332L10.623 8.62695L1.09375 17.3906ZM2.13281 20.043C3.32227 20.043 4.26562 19.1133 4.26562 17.9102C4.26562 16.7207 3.32227 15.7773 2.13281 15.7773C0.929688 15.7773 0 16.7207 0 17.9102C0 19.1133 0.929688 20.043 2.13281 20.043ZM7.68359 24.8965L9.24219 23.3379L2.44727 16.584L0.902344 18.1289ZM8.09375 26.3184C9.29688 26.3184 10.2266 25.4434 10.2266 24.1855C10.2266 22.9961 9.26953 22.0527 8.09375 22.0527C6.89062 22.0527 5.96094 22.9961 5.96094 24.1855C5.96094 25.3887 6.89062 26.3184 8.09375 26.3184ZM6.98633 30.8438L9.1875 30.8438L9.1875 24.2402L6.98633 24.2402ZM1.57227 32.7715L16.1191 32.7715C16.625 32.7715 16.9668 32.4023 16.9668 31.8691C16.9668 30.8438 16.0781 30.1191 14.6973 30.1191L2.99414 30.1191C1.61328 30.1191 0.724609 30.8438 0.724609 31.8691C0.724609 32.4023 1.06641 32.7715 1.57227 32.7715Z" style="fill:var(--color-0,hsl(0 0 0/0.85))"></path>
 </g>
</svg>