<?xml version="1.0" encoding="UTF-8"?>
<!--Generator: Apple Native CoreSVG 326-->
<!DOCTYPE svg
PUBLIC "-//W3C//DTD SVG 1.1//EN"
       "http://www.w3.org/Graphics/SVG/1.1/DTD/svg11.dtd">
<svg version="1.1" xmlns="http://www.w3.org/2000/svg" xmlns:xlink="http://www.w3.org/1999/xlink" viewBox="0 0 21.2341 33.6738">
 <g>
  <rect height="33.6738" opacity="0" width="21.2341" x="0" y="0"/>
  <path d="M10.4461 18.5664C13.4403 18.5664 16.3934 18.3887 18.8133 18.0332C20.7 17.7461 21.2606 16.3652 20.6317 14.4102L17.0223 2.98047C16.3797 0.929688 14.7391 0 12.5106 0L8.36802 0C6.1395 0 4.49888 0.929688 3.8563 2.98047L0.246924 14.4102C-0.381983 16.3652 0.178564 17.7461 2.06528 18.0332C4.4852 18.3887 7.43833 18.5664 10.4461 18.5664ZM10.4461 16.5566C7.93052 16.5566 5.49692 16.4199 2.83091 16.1191C2.09263 16.0371 2.0106 15.5996 2.24302 14.834L5.68833 3.77344C6.05747 2.57031 7.04185 1.99609 8.36802 1.99609L12.5106 1.99609C13.8368 1.99609 14.8211 2.57031 15.204 3.77344L18.6356 14.834C18.868 15.5996 18.786 16.0371 18.0477 16.1191C15.3817 16.4199 12.9481 16.5566 10.4461 16.5566ZM9.33872 17.8145L9.33872 32.6484L11.5399 32.6484L11.5399 17.8145ZM4.2938 33.5918L16.5848 33.5918C17.0907 33.5918 17.4325 33.2363 17.4325 32.7031C17.4325 31.6641 16.5848 30.9395 15.286 30.9395L5.59263 30.9395C4.2938 30.9395 3.45981 31.6641 3.45981 32.7031C3.45981 33.2363 3.78794 33.5918 4.2938 33.5918Z" fill="white" fill-opacity="0.85"/>
 </g>
</svg>
