<svg version="1.1" xmlns="http://www.w3.org/2000/svg" xmlns:xlink="http://www.w3.org/1999/xlink" viewBox="0 0 21.6016 29.3262">
 <g>
  
  <path d="M0 25.0332C0 27.8906 1.4082 29.3125 4.23828 29.3125L17.0215 29.3125C19.8379 29.3125 21.2461 27.8906 21.2461 25.0332L21.2461 4.29297C21.2461 1.44922 19.8379 0 17.0215 0L4.23828 0C1.4082 0 0 1.44922 0 4.29297ZM7.12305 4.73047C6.61719 4.73047 6.19336 4.32031 6.19336 3.81445C6.19336 3.30859 6.61719 2.89844 7.12305 2.89844L14.123 2.89844C14.6426 2.89844 15.0527 3.30859 15.0527 3.81445C15.0527 4.32031 14.6426 4.73047 14.123 4.73047Z" style="fill:var(--color-0,hsl(0 0 0/0.85))"></path>
 </g>
</svg>