<?xml version="1.0" encoding="UTF-8"?>
<!--Generator: Apple Native CoreSVG 326-->
<!DOCTYPE svg
PUBLIC "-//W3C//DTD SVG 1.1//EN"
       "http://www.w3.org/Graphics/SVG/1.1/DTD/svg11.dtd">
<svg version="1.1" xmlns="http://www.w3.org/2000/svg" xmlns:xlink="http://www.w3.org/1999/xlink" viewBox="0 0 39.7852 31.2368">
 <g>
  <rect height="31.2368" opacity="0" width="39.7852" x="0" y="0"/>
  <path d="M7.20348 6.9296C6.89422 7.13945 6.74023 7.50458 6.74023 8.02369L6.74023 23.637L23.902 23.637L27.0176 26.7542L1.54492 26.7542C0.697266 26.7542 0 26.0569 0 25.1956C0 24.3342 0.697266 23.637 1.54492 23.637L4.53906 23.637L4.53906 7.40846C4.53906 6.3898 4.85659 5.63446 5.42831 5.15349ZM34.8906 7.40846L34.8906 23.637L37.8848 23.637C38.7324 23.637 39.4297 24.3342 39.4297 25.1956C39.4297 26.0569 38.7324 26.7542 37.8848 26.7542L34.517 26.7542C34.5063 26.7396 34.4935 26.7263 34.4805 26.7131L31.4059 23.637L32.6895 23.637L32.6895 8.02369C32.6895 7.14869 32.252 6.71119 31.377 6.71119L14.4891 6.71119L12.2891 4.51002L31.9648 4.51002C33.8652 4.51002 34.8906 5.49439 34.8906 7.40846Z" fill="white" fill-opacity="0.85"/>
  <path d="M31.8418 29.3245C32.252 29.7483 32.9355 29.7483 33.332 29.3245C33.7422 28.9143 33.7559 28.2581 33.3457 27.8342L7.46484 1.93971C7.05469 1.52955 6.37109 1.51588 5.96094 1.93971C5.55078 2.33619 5.55078 3.01978 5.96094 3.42994Z" fill="white" fill-opacity="0.85"/>
 </g>
</svg>
