<svg version="1.1" xmlns="http://www.w3.org/2000/svg" xmlns:xlink="http://www.w3.org/1999/xlink" viewBox="0 0 25.5254 25.1699">
 <g>
  
  <path d="M4.29297 25.1699L20.877 25.1699C23.748 25.1699 25.1699 23.7617 25.1699 20.9453L25.1699 4.23828C25.1699 1.42188 23.748 0 20.877 0L4.29297 0C1.43555 0 0 1.42188 0 4.23828L0 20.9453C0 23.7617 1.43555 25.1699 4.29297 25.1699Z" style="fill:var(--color-0,hsl(0 0 0/0.85))"></path>
  <path d="M7.30078 18.8809C6.89062 18.8809 6.60352 18.5938 6.60352 18.1973C6.60352 17.8008 6.89062 17.541 7.30078 17.541L9.84375 17.541L9.84375 17.5C7.72461 16.4609 6.61719 14.2324 6.61719 11.9766C6.61719 9.29688 8.33984 7.27344 10.8008 6.58984L10.8008 5.1543C10.8008 4.88086 10.9922 4.68945 11.2656 4.68945C11.5527 4.68945 11.7441 4.88086 11.7441 5.1543L11.7441 6.39844C12.0586 6.35742 12.3594 6.34375 12.6738 6.34375C13.002 6.34375 13.3301 6.35742 13.6445 6.39844L13.6445 5.1543C13.6445 4.88086 13.8496 4.68945 14.1094 4.68945C14.4102 4.68945 14.6016 4.88086 14.6016 5.1543L14.6016 6.61719C16.8711 7.32812 18.5938 9.24219 18.6074 11.6211C18.6074 12.0996 18.3066 12.4414 17.8418 12.4414C17.377 12.4414 17.0898 12.1133 17.0762 11.6211C17.0215 10.0625 16.0371 8.77734 14.6016 8.17578L14.6016 11.7852C14.6016 12.0723 14.4102 12.2637 14.1094 12.2637C13.8496 12.2637 13.6445 12.0723 13.6445 11.7852L13.6445 7.875C13.3301 7.82031 13.0156 7.7793 12.6738 7.7793C12.3594 7.7793 12.0586 7.82031 11.7441 7.86133L11.7441 11.7852C11.7441 12.0723 11.5527 12.2637 11.2656 12.2637C10.9922 12.2637 10.8008 12.0723 10.8008 11.7852L10.8008 8.13477C9.26953 8.73633 8.24414 10.1719 8.24414 12.2363C8.24414 15.0664 10.4863 17.5273 13.8223 17.5273L16.9805 17.5273C17.3906 17.5273 17.6914 17.8008 17.6914 18.1973C17.6914 18.5938 17.3906 18.8809 16.9805 18.8809Z" style="fill:var(--color-1,white)"></path>
 </g>
</svg>