<svg version="1.1" xmlns="http://www.w3.org/2000/svg" xmlns:xlink="http://www.w3.org/1999/xlink" viewBox="0 0 28.2461 27.9043">
 <g>
  
  <path d="M13.9453 27.8906C21.6426 27.8906 27.8906 21.6289 27.8906 13.9453C27.8906 6.24805 21.6426 0 13.9453 0C6.26172 0 0 6.24805 0 13.9453C0 21.6289 6.26172 27.8906 13.9453 27.8906Z" style="fill:var(--color-0,hsl(0 0 0/0.85))"></path>
  <path d="M8.6543 20.248C8.24414 20.248 7.95703 19.9609 7.95703 19.5645C7.95703 19.168 8.24414 18.9082 8.6543 18.9082L11.1836 18.9082L11.1836 18.8672C9.07812 17.8281 7.9707 15.5996 7.9707 13.3438C7.9707 10.6641 9.69336 8.64062 12.1543 7.95703L12.1543 6.52148C12.1543 6.24805 12.3457 6.05664 12.6191 6.05664C12.9062 6.05664 13.0977 6.24805 13.0977 6.52148L13.0977 7.76562C13.4121 7.72461 13.7129 7.71094 14.0273 7.71094C14.3555 7.71094 14.6836 7.72461 14.998 7.76562L14.998 6.52148C14.998 6.24805 15.2031 6.05664 15.4629 6.05664C15.75 6.05664 15.9551 6.24805 15.9551 6.52148L15.9551 7.98438C18.2246 8.69531 19.9473 10.6094 19.9609 12.9883C19.9609 13.4668 19.6602 13.8086 19.1953 13.8086C18.7305 13.8086 18.4434 13.4805 18.4297 12.9883C18.375 11.4297 17.3906 10.1445 15.9551 9.54297L15.9551 13.1523C15.9551 13.4395 15.75 13.6309 15.4629 13.6309C15.2031 13.6309 14.998 13.4395 14.998 13.1523L14.998 9.24219C14.6836 9.1875 14.3555 9.14648 14.0273 9.14648C13.7129 9.14648 13.4121 9.1875 13.0977 9.22852L13.0977 13.1523C13.0977 13.4395 12.9062 13.6309 12.6191 13.6309C12.3457 13.6309 12.1543 13.4395 12.1543 13.1523L12.1543 9.50195C10.623 10.1035 9.59766 11.5391 9.59766 13.6035C9.59766 16.4336 11.8398 18.8945 15.1621 18.8945L18.334 18.8945C18.7441 18.8945 19.0449 19.168 19.0449 19.5645C19.0449 19.9609 18.7441 20.248 18.334 20.248Z" style="fill:var(--color-1,white)"></path>
 </g>
</svg>