<?xml version="1.0" encoding="UTF-8"?>
<!--Generator: Apple Native CoreSVG 326-->
<!DOCTYPE svg
PUBLIC "-//W3C//DTD SVG 1.1//EN"
       "http://www.w3.org/Graphics/SVG/1.1/DTD/svg11.dtd">
<svg version="1.1" xmlns="http://www.w3.org/2000/svg" xmlns:xlink="http://www.w3.org/1999/xlink" viewBox="0 0 32.0059 26.5098">
 <g>
  <rect height="26.5098" opacity="0" width="32.0059" x="0" y="0"/>
  <path d="M1.91406 13.6172L29.7363 13.6172L29.7363 11.5527L1.91406 11.5527ZM7.30078 15.4902L10.6914 15.4902C11.6621 15.4902 12.209 14.957 12.209 14L12.209 11.1973C12.209 10.2402 11.6621 9.69336 10.6914 9.69336L7.30078 9.69336C6.34375 9.69336 5.79688 10.2402 5.79688 11.1973L5.79688 14C5.79688 14.957 6.34375 15.4902 7.30078 15.4902ZM20.9453 15.4902L24.3359 15.4902C25.3066 15.4902 25.8535 14.957 25.8535 14L25.8535 11.1973C25.8535 10.2402 25.3066 9.69336 24.3359 9.69336L20.9453 9.69336C19.9746 9.69336 19.4277 10.2402 19.4277 11.1973L19.4277 14C19.4277 14.957 19.9746 15.4902 20.9453 15.4902ZM4.22461 26.4961L27.4258 26.4961C30.2559 26.4961 31.6504 25.1289 31.6504 22.3262L31.6504 9.02344C31.6504 6.2207 30.2559 4.85352 27.4258 4.85352L4.22461 4.85352C1.4082 4.85352 0 6.2207 0 9.02344L0 22.3262C0 25.1289 1.4082 26.4961 4.22461 26.4961ZM4.25195 24.3086C2.91211 24.3086 2.20117 23.625 2.20117 22.2168L2.20117 9.13281C2.20117 7.73828 2.91211 7.04102 4.25195 7.04102L27.3984 7.04102C28.7383 7.04102 29.4492 7.73828 29.4492 9.13281L29.4492 22.2168C29.4492 23.625 28.7383 24.3086 27.3984 24.3086ZM8.88672 6.04297L11.0059 6.04297L11.0059 3.62305C11.0059 2.58398 11.6211 1.99609 12.6875 1.99609L18.9629 1.99609C20.0293 1.99609 20.6309 2.58398 20.6309 3.62305L20.6309 6.01562L22.75 6.01562L22.75 3.77344C22.75 1.20312 21.3965 0 18.9219 0L12.7148 0C10.377 0 8.88672 1.20312 8.88672 3.77344Z" fill="white" fill-opacity="0.85"/>
 </g>
</svg>
