<?xml version="1.0" encoding="UTF-8"?>
<!--Generator: Apple Native CoreSVG 326-->
<!DOCTYPE svg
PUBLIC "-//W3C//DTD SVG 1.1//EN"
       "http://www.w3.org/Graphics/SVG/1.1/DTD/svg11.dtd">
<svg version="1.1" xmlns="http://www.w3.org/2000/svg" xmlns:xlink="http://www.w3.org/1999/xlink" viewBox="0 0 14.4925 29.8574">
 <g>
  <rect height="29.8574" opacity="0" width="14.4925" x="0" y="0"/>
  <path d="M4.51189 27.5C3.69158 27.5547 2.74822 27.9511 2.14666 28.5117C1.94158 28.7031 1.95525 28.9355 2.174 29.0859C2.84392 29.5918 3.84197 29.8515 4.67595 29.7422C5.46892 29.6875 6.41228 29.2636 7.04119 28.7031C7.28728 28.4844 7.24627 28.2246 6.95916 28.0605C6.28924 27.6504 5.30486 27.4316 4.51189 27.5ZM1.6408 22.8789C1.46306 22.6191 1.21697 22.6054 1.01189 22.8515C0.465017 23.4804 0.068533 24.4238 0.0138455 25.2168C-0.0681857 26.0644 0.218924 27.0625 0.752127 27.6914C0.929861 27.9101 1.14861 27.9101 1.32635 27.7051C1.85955 27.1172 2.24236 26.1601 2.28338 25.3261C2.32439 24.5332 2.06463 23.5488 1.6408 22.8789ZM8.36736 23.7949C7.60174 24.0547 6.7951 24.6836 6.3576 25.3808C6.2072 25.6269 6.27556 25.832 6.53533 25.9277C7.31463 26.2558 8.35369 26.2558 9.11931 25.9414C9.87127 25.6679 10.6779 25.0254 11.1291 24.3281C11.2931 24.0547 11.2111 23.8222 10.9103 23.7265C10.1447 23.4941 9.11931 23.5215 8.36736 23.7949ZM4.42986 20.0761C4.18377 19.8437 3.93767 19.8847 3.81463 20.1855C3.44549 20.9238 3.30877 21.9492 3.45916 22.7285C3.60955 23.5761 4.14275 24.4648 4.799 24.9433C5.01775 25.1074 5.25017 25.0664 5.35955 24.8066C5.72869 24.1094 5.83806 23.084 5.674 22.2636C5.50994 21.4844 5.01775 20.6094 4.42986 20.0761ZM14.1232 18.5039C14.1779 18.1894 14.0138 18.0117 13.6857 18.0527C12.8928 18.1484 11.9904 18.5859 11.4025 19.1465C10.8146 19.6797 10.3361 20.5683 10.1994 21.4023C10.1584 21.6758 10.3088 21.8535 10.5822 21.8398C11.4299 21.8125 12.3732 21.4023 12.9474 20.8008C13.5353 20.2265 14.0138 19.2969 14.1232 18.5039ZM6.27556 17.3281C5.97478 17.2187 5.7697 17.3554 5.7697 17.6836C5.71502 18.4902 6.00213 19.4609 6.46697 20.1582C6.90447 20.8691 7.7658 21.457 8.58611 21.6484C8.84588 21.6894 9.03728 21.5527 9.05095 21.2929C9.09197 20.4453 8.79119 19.4746 8.31267 18.832C7.84783 18.1894 7.04119 17.5879 6.27556 17.3281ZM8.55877 14.1289C7.97088 13.6094 7.02752 13.2539 6.2072 13.1855C5.89275 13.1719 5.74236 13.3769 5.78338 13.6777C5.96111 14.4707 6.49431 15.3594 7.12322 15.8926C7.72478 16.4394 8.70916 16.8086 9.55681 16.7812C9.80291 16.7676 9.9533 16.5761 9.91228 16.3301C9.74822 15.5234 9.21502 14.6484 8.55877 14.1289ZM14.1095 12.3379C14.0685 12.0097 13.8498 11.8867 13.5627 12.0097C12.8244 12.2969 12.0451 12.9531 11.6213 13.6367C11.1838 14.3476 10.9377 15.3457 11.0334 16.125C11.0607 16.3984 11.2658 16.5351 11.5256 16.4531C12.3185 16.2344 13.1252 15.5918 13.5353 14.8535C13.9728 14.1426 14.1916 13.1445 14.1095 12.3379ZM7.82049 9.53513C7.0822 9.2617 6.07049 9.24802 5.29119 9.46677C4.99041 9.56248 4.90838 9.7949 5.05877 10.041C5.46892 10.7383 6.27556 11.3945 7.0822 11.6953C7.84783 12.0097 8.88689 12.0097 9.66619 11.6953C9.91228 11.5859 9.98064 11.3535 9.84392 11.1347C9.40642 10.4238 8.59978 9.80857 7.82049 9.53513ZM12.4006 5.9531C12.2638 5.67967 12.0041 5.62498 11.7717 5.81638C11.2111 6.36326 10.6916 7.23826 10.5275 8.03123C10.3498 8.83787 10.4592 9.84959 10.8283 10.5605C10.9513 10.8066 11.1838 10.875 11.3888 10.7109C12.0588 10.2187 12.592 9.34373 12.7424 8.50974C12.9064 7.71677 12.7697 6.70506 12.4006 5.9531ZM5.3322 5.59763C4.53924 5.43357 3.54119 5.55662 2.81658 5.88474C2.52947 6.00779 2.46111 6.25388 2.66619 6.49998C3.19939 7.10154 4.08806 7.63474 4.88103 7.81248C5.70135 8.03123 6.72674 7.89451 7.43767 7.47068C7.6701 7.32029 7.71111 7.08787 7.54705 6.89646C7.02752 6.26756 6.15252 5.74802 5.3322 5.59763ZM9.37908 1.3867C9.20135 1.1406 8.94158 1.11326 8.7365 1.35935C8.21697 2.00193 7.83416 2.93162 7.79314 3.71092C7.71111 4.50388 7.98455 5.50193 8.44939 6.1992C8.59978 6.41795 8.8322 6.44529 9.03728 6.25388C9.63885 5.65232 10.049 4.70896 10.0627 3.87498C10.1174 3.08201 9.84392 2.08396 9.37908 1.3867ZM2.32439 0.00583726C1.99627-0.0351784 1.8322 0.142556 1.85955 0.457009C1.9826 1.27732 2.43377 2.19334 2.98064 2.76756C3.55486 3.41013 4.48455 3.84763 5.31853 3.88865C5.59197 3.90232 5.74236 3.73826 5.71502 3.46482C5.61931 2.67185 5.16814 1.72849 4.58025 1.16795C4.0197 0.6074 3.11736 0.128884 2.32439 0.00583726Z" fill="white" fill-opacity="0.85"/>
 </g>
</svg>
