<?xml version="1.0" encoding="UTF-8"?>
<!--Generator: Apple Native CoreSVG 326-->
<!DOCTYPE svg
PUBLIC "-//W3C//DTD SVG 1.1//EN"
       "http://www.w3.org/Graphics/SVG/1.1/DTD/svg11.dtd">
<svg version="1.1" xmlns="http://www.w3.org/2000/svg" xmlns:xlink="http://www.w3.org/1999/xlink" viewBox="0 0 31.8965 23.8574">
 <g>
  <rect height="23.8574" opacity="0" width="31.8965" x="0" y="0"/>
  <path d="M11.4707 23.8438L20.0703 23.8438C28 23.8438 31.541 20.1934 31.541 12.7285L31.541 4.14258C31.541 1.39453 30.1191 0 27.3438 0L4.19727 0C1.42188 0 0 1.39453 0 4.14258L0 12.7285C0 20.1934 3.54102 23.8438 11.4707 23.8438Z" fill="white" fill-opacity="0.85"/>
  <path d="M10.1309 17.418C9.51562 17.418 9.16016 17.0352 9.16016 16.3926L9.16016 7.28711C9.16016 6.74023 9.625 6.28906 10.1582 6.28906C10.6777 6.28906 11.1426 6.74023 11.1426 7.28711L11.1426 15.7637L14.0273 15.7637C14.4785 15.7637 14.8613 16.1328 14.8613 16.5977C14.8613 17.0488 14.4785 17.418 14.0273 17.418ZM17.2402 17.4316C16.6113 17.4316 16.2559 17.0215 16.2559 16.3926L16.2559 7.50586C16.2559 6.91797 16.5977 6.4668 17.2402 6.4668L20.0293 6.4668C21.6289 6.4668 22.791 7.46484 22.791 9.20117C22.791 10.2676 22.0801 11.416 21.0547 11.5938L21.0547 11.6758C22.3398 11.7988 23.1465 13.0156 23.1465 14.3418C23.1465 16.1465 22.0254 17.4316 20.125 17.4316ZM18.1973 11.1152L19.3047 11.1152C20.3164 11.1152 20.8906 10.5 20.8906 9.50195C20.8906 8.62695 20.4941 7.98438 19.4688 7.98438L18.1973 7.98438ZM18.1973 15.9277L19.5098 15.9277C20.6035 15.9277 21.1367 15.2715 21.1367 14.1641C21.1367 12.9883 20.4531 12.4551 19.4688 12.4551L18.1973 12.4551Z" fill="white"/>
 </g>
</svg>
