<?xml version="1.0" encoding="UTF-8"?>
<!--Generator: Apple Native CoreSVG 326-->
<!DOCTYPE svg
PUBLIC "-//W3C//DTD SVG 1.1//EN"
       "http://www.w3.org/Graphics/SVG/1.1/DTD/svg11.dtd">
<svg version="1.1" xmlns="http://www.w3.org/2000/svg" xmlns:xlink="http://www.w3.org/1999/xlink" viewBox="0 0 29.873 25.9355">
 <g>
  <rect height="25.9355" opacity="0" width="29.873" x="0" y="0"/>
  <path d="M0.396484 1.6543C0.109375 3.04883 0 4.86719 0 6.08398C0 16.3105 6.08398 23.0645 15.3809 23.0645C21.3691 23.0645 24.1855 19.5371 24.8008 18.4023L23.0918 18.3613C24.8691 20.2207 25.6621 22.2168 26.5645 25.0469C26.7695 25.7031 27.2207 25.9355 27.6992 25.9355C28.7109 25.9355 29.5176 25.0605 29.5176 23.8574C29.5176 21.9707 26.8105 18.6895 25.4023 17.3633C19.4141 11.8398 10.2949 15.1074 7.94336 9.00977C7.76562 8.54492 8.25781 8.13477 8.70898 8.59961C13.4258 13.3164 19.4961 9.33789 25.4023 14.7793C25.8672 15.1895 26.4141 14.9707 26.4961 14.4785C26.5645 14.082 26.6055 13.4531 26.6055 12.8516C26.6055 6.17969 21.957 2.9668 15.4219 2.9668C13.2344 2.9668 10.6777 3.5 8.66797 3.5C6.4668 3.5 3.99219 3.32227 2.02344 1.2168C1.46289 0.642578 0.615234 0.724609 0.396484 1.6543Z" fill="#32d74b"/>
 </g>
</svg>
