<svg version="1.1" xmlns="http://www.w3.org/2000/svg" xmlns:xlink="http://www.w3.org/1999/xlink" viewBox="0 0 29.3262 25.9355">
 <g>
  
  <path d="M0 6.16602C0 16.3652 6.11133 23.0645 15.5176 23.0645C22.0801 23.0645 26.7285 18.8262 26.7285 12.8379C26.7285 7.08203 22.0391 2.92578 15.5723 2.92578C13.3438 2.92578 11.0879 3.55469 8.58594 3.55469C6.48047 3.55469 4.66211 2.91211 3.1582 1.20312C2.36523 0.273438 0.792969 0.191406 0.410156 1.76367C0.0820312 3.08984 0 5.42773 0 6.16602ZM2.06445 6.16602C2.06445 5.26367 2.07812 4.25195 2.20117 3.51367C2.22852 3.33594 2.32422 3.32227 2.44727 3.43164C3.97852 4.82617 6.38477 5.61914 8.58594 5.61914C10.0625 5.61914 11.4023 5.42773 12.6055 5.26367C13.6992 5.11328 14.6562 4.99023 15.5723 4.99023C20.9043 4.99023 24.6641 8.25781 24.6641 12.8379C24.6641 17.6641 20.9316 21 15.5176 21C7.27344 21 2.06445 15.2305 2.06445 6.16602ZM7.99805 9.35156C8.85938 12.0176 11.4434 13.084 14.6699 13.877C19.3047 14.9844 21.4238 15.8867 23.2832 18.2109C24.8008 20.084 25.1699 22.3398 26.0176 25.0469C26.2227 25.7031 26.6738 25.9355 27.1523 25.9355C28.1641 25.9355 28.9707 24.9922 28.9707 23.8574C28.9707 21.9707 26.8242 18.7031 25.3887 16.748C23.543 14.3008 20.3848 12.8926 15.3672 12.0859C12.7695 11.6484 10.4727 10.9648 8.90039 8.91406C8.46289 8.32617 7.79297 8.73633 7.99805 9.35156Z" style="fill:var(--color-0,#28cd41)"></path>
 </g>
</svg>