<svg version="1.1" xmlns="http://www.w3.org/2000/svg" xmlns:xlink="http://www.w3.org/1999/xlink" viewBox="0 0 28.2461 27.9043">
 <g>
  
  <path d="M13.9453 27.8906C21.6426 27.8906 27.8906 21.6426 27.8906 13.9453C27.8906 6.24805 21.6426 0 13.9453 0C6.24805 0 0 6.24805 0 13.9453C0 21.6426 6.24805 27.8906 13.9453 27.8906ZM13.9453 25.5664C7.51953 25.5664 2.32422 20.3711 2.32422 13.9453C2.32422 7.51953 7.51953 2.32422 13.9453 2.32422C20.3711 2.32422 25.5664 7.51953 25.5664 13.9453C25.5664 20.3711 20.3711 25.5664 13.9453 25.5664Z" style="fill:var(--color-0,#28cd41)"></path>
  <path d="M7.27344 8.75C7.15039 9.37891 7.06836 10.1992 7.06836 10.7461C7.06836 15.3672 9.81641 18.4434 14.0137 18.4434C16.7207 18.4434 17.9922 16.8574 18.293 16.3105L17.5137 16.3105C18.3203 17.1445 18.6758 18.0332 19.0859 19.332C19.168 19.6191 19.3867 19.7285 19.5918 19.7285C20.043 19.7285 20.4258 19.332 20.4258 18.7852C20.4258 17.9375 19.209 16.4473 18.5527 15.8594C15.832 13.3711 11.7305 14.834 10.6641 12.0723C10.582 11.8672 10.8008 11.6895 11.0332 11.8809C13.2344 13.8086 15.873 12.25 18.5527 14.6699C18.7715 14.875 19.0039 14.7656 19.0586 14.5605C19.0859 14.3691 19.0996 14.082 19.0996 13.8086C19.0996 10.8008 16.9941 9.35156 14.041 9.35156C13.043 9.35156 11.9082 9.59766 10.9922 9.59766C9.99414 9.59766 8.88672 9.47461 7.98438 8.55859C7.72461 8.29883 7.35547 8.32617 7.27344 8.75Z" style="fill:var(--color-1,#28cd41)"></path>
 </g>
</svg>