<svg version="1.1" xmlns="http://www.w3.org/2000/svg" xmlns:xlink="http://www.w3.org/1999/xlink" viewBox="0 0 25.5254 25.1699">
 <g>
  
  <path d="M4.29297 25.1699L20.877 25.1699C23.748 25.1699 25.1699 23.7617 25.1699 20.9453L25.1699 4.23828C25.1699 1.42188 23.748 0 20.877 0L4.29297 0C1.43555 0 0 1.42188 0 4.23828L0 20.9453C0 23.7617 1.43555 25.1699 4.29297 25.1699Z" style="fill:var(--color-0,hsl(0 0 0/0.85))"></path>
  <path d="M7.10938 18.3887C7.10938 17.8281 7.57422 17.3633 8.16211 17.3633L16.3105 17.3633C16.8984 17.3633 17.3496 17.8281 17.3496 18.3887C17.3496 18.9082 16.8984 19.4141 16.3105 19.4141L8.16211 19.4141C7.57422 19.4141 7.10938 18.9082 7.10938 18.3887ZM15.832 15.2031C15.668 15.2031 15.5039 15.1621 15.1895 15.0117L8.20312 11.8945C7.50586 11.6074 7.27344 11.1699 7.27344 10.5547C7.27344 10.0078 7.51953 9.54297 8.20312 9.22852L15.1895 6.11133C15.5039 5.97461 15.668 5.94727 15.832 5.94727C16.4473 5.94727 16.8848 6.42578 16.8848 6.94531C16.8848 7.35547 16.6387 7.73828 16.2285 7.94336L10.3496 10.541L10.3496 10.582L16.2285 13.207C16.6387 13.3711 16.8848 13.7539 16.8848 14.1777C16.8848 14.6973 16.4473 15.2031 15.832 15.2031Z" style="fill:var(--color-1,white)"></path>
 </g>
</svg>