<?xml version="1.0" encoding="UTF-8"?>
<!--Generator: Apple Native CoreSVG 326-->
<!DOCTYPE svg
PUBLIC "-//W3C//DTD SVG 1.1//EN"
       "http://www.w3.org/Graphics/SVG/1.1/DTD/svg11.dtd">
<svg version="1.1" xmlns="http://www.w3.org/2000/svg" xmlns:xlink="http://www.w3.org/1999/xlink" viewBox="0 0 25.5254 25.1699">
 <g>
  <rect height="25.1699" opacity="0" width="25.5254" x="0" y="0"/>
  <path d="M4.29297 25.1699L20.877 25.1699C23.748 25.1699 25.1699 23.7617 25.1699 20.9453L25.1699 4.23828C25.1699 1.42188 23.748 0 20.877 0L4.29297 0C1.43555 0 0 1.42188 0 4.23828L0 20.9453C0 23.7617 1.43555 25.1699 4.29297 25.1699Z" fill="white" fill-opacity="0.85"/>
  <path d="M16.2559 18.3613C15.9824 18.3613 15.791 18.293 15.5723 18.1973L7.16406 13.8223C6.57617 13.5215 6.33008 13.166 6.33008 12.5781C6.33008 12.0449 6.60352 11.6484 7.16406 11.334L15.5723 6.80859C15.8047 6.69922 15.9824 6.63086 16.2832 6.63086C16.9531 6.63086 17.4316 7.12305 17.4316 7.75195C17.4316 8.28516 17.1855 8.62695 16.6113 8.90039L9.46094 12.4961L9.46094 12.5781L16.6113 16.0918C17.1992 16.3652 17.4316 16.6797 17.4316 17.2266C17.4316 17.8691 16.9395 18.3613 16.2559 18.3613Z" fill="white"/>
 </g>
</svg>
