<?xml version="1.0" encoding="UTF-8"?>
<!--Generator: Apple Native CoreSVG 326-->
<!DOCTYPE svg
PUBLIC "-//W3C//DTD SVG 1.1//EN"
       "http://www.w3.org/Graphics/SVG/1.1/DTD/svg11.dtd">
<svg version="1.1" xmlns="http://www.w3.org/2000/svg" xmlns:xlink="http://www.w3.org/1999/xlink" viewBox="0 0 28.2461 27.9043">
 <g>
  <rect height="27.9043" opacity="0" width="28.2461" x="0" y="0"/>
  <path d="M13.9453 27.8906C21.6426 27.8906 27.8906 21.6289 27.8906 13.9453C27.8906 6.24805 21.6426 0 13.9453 0C6.26172 0 0 6.24805 0 13.9453C0 21.6289 6.26172 27.8906 13.9453 27.8906Z" fill="white" fill-opacity="0.85"/>
  <path d="M17.6094 19.7285C17.3223 19.7285 17.1445 19.6602 16.9258 19.5645L8.51758 15.1895C7.92969 14.8887 7.68359 14.5332 7.68359 13.9453C7.68359 13.4121 7.95703 13.0156 8.51758 12.7012L16.9258 8.17578C17.1582 8.06641 17.3223 7.99805 17.6367 7.99805C18.3066 7.99805 18.7852 8.49023 18.7852 9.11914C18.7852 9.65234 18.5391 9.99414 17.9648 10.2676L10.8145 13.8633L10.8145 13.9453L17.9648 17.459C18.5527 17.7324 18.7852 18.0469 18.7852 18.5938C18.7852 19.2363 18.293 19.7285 17.6094 19.7285Z" fill="white"/>
 </g>
</svg>
