<svg version="1.1" xmlns="http://www.w3.org/2000/svg" xmlns:xlink="http://www.w3.org/1999/xlink" viewBox="0 0 28.2461 27.9043">
 <g>
  
  <path d="M13.9453 27.8906C21.6426 27.8906 27.8906 21.6426 27.8906 13.9453C27.8906 6.24805 21.6426 0 13.9453 0C6.24805 0 0 6.24805 0 13.9453C0 21.6426 6.24805 27.8906 13.9453 27.8906ZM13.9453 25.5664C7.51953 25.5664 2.32422 20.3711 2.32422 13.9453C2.32422 7.51953 7.51953 2.32422 13.9453 2.32422C20.3711 2.32422 25.5664 7.51953 25.5664 13.9453C25.5664 20.3711 20.3711 25.5664 13.9453 25.5664Z" style="fill:var(--color-0,hsl(0 0 0/0.85))"></path>
  <path d="M8.62695 19.5781C8.62695 20.084 9.07812 20.5762 9.63867 20.5762L17.541 20.5762C18.1016 20.5762 18.5391 20.084 18.5391 19.5781C18.5391 19.0449 18.1016 18.5938 17.541 18.5938L9.63867 18.5938C9.07812 18.5938 8.62695 19.0449 8.62695 19.5781ZM17.0762 16.4883C17.6777 16.4883 18.0879 16.0098 18.0879 15.5039C18.0879 15.0938 17.8555 14.7246 17.459 14.5605L11.7305 12.0176L11.7305 11.9766L17.459 9.44727C17.8555 9.25586 18.0879 8.88672 18.0879 8.49023C18.0879 7.98438 17.6777 7.51953 17.0762 7.51953C16.9258 7.51953 16.7617 7.54688 16.4473 7.68359L9.66602 10.7051C9.02344 11.0059 8.77734 11.457 8.77734 11.9902C8.77734 12.5781 9.00977 13.002 9.66602 13.2754L16.4473 16.3105C16.7617 16.4473 16.9258 16.4883 17.0762 16.4883Z" style="fill:var(--color-1,hsl(0 0 0/0.85))"></path>
 </g>
</svg>