<?xml version="1.0" encoding="UTF-8"?>
<!--Generator: Apple Native CoreSVG 326-->
<!DOCTYPE svg
PUBLIC "-//W3C//DTD SVG 1.1//EN"
       "http://www.w3.org/Graphics/SVG/1.1/DTD/svg11.dtd">
<svg version="1.1" xmlns="http://www.w3.org/2000/svg" xmlns:xlink="http://www.w3.org/1999/xlink" viewBox="0 0 16.9121 22.8457">
 <g>
  <rect height="22.8457" opacity="0" width="16.9121" x="0" y="0"/>
  <path d="M0 21.6152C0 22.2988 0.560547 22.8457 1.2168 22.8457L15.3398 22.8457C15.9961 22.8457 16.5566 22.2988 16.5566 21.6152C16.5566 20.9453 15.9961 20.3984 15.3398 20.3984L1.2168 20.3984C0.560547 20.3984 0 20.9453 0 21.6152ZM14.6836 15.8867C15.3672 15.8867 15.8457 15.4082 15.8457 14.6562C15.8457 14.0273 15.4902 13.6855 14.957 13.4395L3.22656 7.9707L3.22656 7.82031L14.957 2.55664C15.5039 2.31055 15.8457 1.94141 15.8457 1.3125C15.8457 0.587891 15.3535 0.0957031 14.6289 0.0957031C14.2734 0.0957031 14.0137 0.191406 13.7676 0.314453L1.39453 6.19336C0.601562 6.5625 0 7.13672 0 7.99805C0 8.87305 0.601562 9.41992 1.39453 9.80273L13.7676 15.6543C14.041 15.791 14.3008 15.8867 14.6836 15.8867Z" fill="white" fill-opacity="0.85"/>
 </g>
</svg>
