<svg version="1.1" xmlns="http://www.w3.org/2000/svg" xmlns:xlink="http://www.w3.org/1999/xlink" viewBox="0 0 25.5254 25.1699">
 <g>
  
  <path d="M4.29297 25.1699L20.877 25.1699C23.748 25.1699 25.1699 23.7617 25.1699 20.9453L25.1699 4.23828C25.1699 1.42188 23.748 0 20.877 0L4.29297 0C1.43555 0 0 1.42188 0 4.23828L0 20.9453C0 23.7617 1.43555 25.1699 4.29297 25.1699ZM4.32031 22.9688C2.95312 22.9688 2.20117 22.2441 2.20117 20.8223L2.20117 4.36133C2.20117 2.93945 2.95312 2.20117 4.32031 2.20117L20.8496 2.20117C22.2031 2.20117 22.9688 2.93945 22.9688 4.36133L22.9688 20.8223C22.9688 22.2441 22.2031 22.9688 20.8496 22.9688Z" style="fill:var(--color-0,hsl(0 0 0/0.85))"></path>
  <path d="M16.1191 18.1699C16.7754 18.1699 17.2539 17.7051 17.2539 17.0762C17.2539 16.5566 17.0352 16.2559 16.4609 15.9824L9.5293 12.5781L9.5293 12.4961L16.4609 9.00977C17.0215 8.73633 17.2539 8.4082 17.2539 7.90234C17.2539 7.28711 16.7891 6.82227 16.1465 6.82227C15.8594 6.82227 15.6816 6.87695 15.4629 6.98633L7.31445 11.375C6.76758 11.6758 6.50781 12.0586 6.50781 12.5781C6.50781 13.1387 6.74023 13.4805 7.31445 13.7812L15.4629 18.0195C15.668 18.1152 15.8594 18.1699 16.1191 18.1699Z" style="fill:var(--color-1,hsl(0 0 0/0.85))"></path>
 </g>
</svg>