<svg version="1.1" xmlns="http://www.w3.org/2000/svg" xmlns:xlink="http://www.w3.org/1999/xlink" viewBox="0 0 28.2461 27.9043">
 <g>
  
  <path d="M13.9453 27.8906C21.6426 27.8906 27.8906 21.6426 27.8906 13.9453C27.8906 6.24805 21.6426 0 13.9453 0C6.24805 0 0 6.24805 0 13.9453C0 21.6426 6.24805 27.8906 13.9453 27.8906ZM13.9453 25.5664C7.51953 25.5664 2.32422 20.3711 2.32422 13.9453C2.32422 7.51953 7.51953 2.32422 13.9453 2.32422C20.3711 2.32422 25.5664 7.51953 25.5664 13.9453C25.5664 20.3711 20.3711 25.5664 13.9453 25.5664Z" style="fill:var(--color-0,hsl(0 0 0/0.85))"></path>
  <path d="M17.459 19.5371C18.1152 19.5371 18.5938 19.0723 18.5938 18.4434C18.5938 17.9238 18.375 17.623 17.8008 17.3496L10.8691 13.9453L10.8691 13.8633L17.8008 10.377C18.3613 10.1035 18.5938 9.77539 18.5938 9.26953C18.5938 8.6543 18.1289 8.18945 17.4863 8.18945C17.1855 8.18945 17.0215 8.24414 16.8027 8.35352L8.6543 12.7422C8.10742 13.043 7.84766 13.4258 7.84766 13.9453C7.84766 14.5059 8.08008 14.8477 8.6543 15.1484L16.8027 19.3867C17.0078 19.4824 17.1855 19.5371 17.459 19.5371Z" style="fill:var(--color-1,hsl(0 0 0/0.85))"></path>
 </g>
</svg>