<svg version="1.1" xmlns="http://www.w3.org/2000/svg" xmlns:xlink="http://www.w3.org/1999/xlink" viewBox="0 0 33.7969 14.834">
 <g>
  
  <path d="M6.87695 12.6328L5.56445 12.6328L5.56445 2.21484L6.87695 2.21484ZM27.877 12.6328L26.5645 12.6328L26.5645 2.21484L27.877 2.21484ZM16.7207 8.05273C12.8318 8.05273 9.8952 5.75735 9.3219 2.21484L10.7857 2.21484C11.2782 5.00508 13.6257 6.80859 16.7207 6.80859C19.803 6.80859 22.1496 5.00508 22.642 2.21484L24.1079 2.21484C23.5462 5.75735 20.6096 8.05273 16.7207 8.05273Z" style="fill:var(--color-0,hsl(0 0 0/0.85))"></path>
  <path d="M3.70508 14.834L29.7363 14.834C32.1836 14.834 33.4414 13.5762 33.4414 11.1562L33.4414 3.69141C33.4414 1.27148 32.1699 0.0136719 29.7227 0.0136719L3.69141 0.0136719C1.24414 0.0136719 0 1.27148 0 3.69141L0 11.1562C0 13.5762 1.25781 14.834 3.70508 14.834ZM4.0332 12.6328C2.87109 12.6328 2.20117 11.9902 2.20117 10.7598L2.20117 4.08789C2.20117 2.85742 2.87109 2.21484 4.04688 2.21484L29.3945 2.21484C30.5703 2.21484 31.2266 2.85742 31.2266 4.08789L31.2266 10.7598C31.2266 11.9902 30.5703 12.6328 29.3809 12.6328ZM16.7207 4.78516C18.5801 4.78516 19.9473 3.62305 20.0977 1.85938L13.3438 1.85938C13.4805 3.62305 14.8477 4.78516 16.7207 4.78516Z" style="fill:var(--color-1,hsl(0 0 0/0.85))"></path>
 </g>
</svg>