<?xml version="1.0" encoding="UTF-8"?>
<!--Generator: Apple Native CoreSVG 326-->
<!DOCTYPE svg
PUBLIC "-//W3C//DTD SVG 1.1//EN"
       "http://www.w3.org/Graphics/SVG/1.1/DTD/svg11.dtd">
<svg version="1.1" xmlns="http://www.w3.org/2000/svg" xmlns:xlink="http://www.w3.org/1999/xlink" viewBox="0 0 35.041 22.5723">
 <g>
  <rect height="22.5723" opacity="0" width="35.041" x="0" y="0"/>
  <path d="M4.29297 22.5723L30.3926 22.5723C33.2637 22.5723 34.6855 21.1504 34.6855 18.334L34.6855 4.25195C34.6855 1.43555 33.2637 0.0136719 30.3926 0.0136719L4.29297 0.0136719C1.43555 0.0136719 0 1.42188 0 4.25195L0 18.334C0 21.1504 1.43555 22.5723 4.29297 22.5723Z" fill="white" fill-opacity="0.85"/>
  <path d="M4.22461 15.9688C3.67773 15.9688 3.4043 15.6133 3.4043 15.1484C3.4043 14.998 3.44531 14.8066 3.47266 14.6836L5.11328 7.62891C5.26367 6.95898 5.67383 6.61719 6.27539 6.61719C6.97266 6.61719 7.38281 7 7.50586 7.61523L9.16016 14.6973C9.1875 14.8066 9.20117 15.0117 9.20117 15.1484C9.20117 15.6133 8.88672 15.9688 8.4082 15.9688C7.92969 15.9688 7.64258 15.6953 7.56055 15.2305L7.25977 13.7266L5.37305 13.7266L5.05859 15.2168C4.99023 15.6543 4.68945 15.9688 4.22461 15.9688ZM5.56445 12.4004L7.05469 12.4004L6.30273 8.81836ZM10.8691 15.9688C10.3633 15.9688 10.0625 15.6543 10.0625 15.1211L10.0625 7.60156C10.0625 7.13672 10.3359 6.75391 10.8691 6.75391L12.7422 6.75391C14.3828 6.75391 15.1895 8.28516 15.1895 9.83008C15.1895 11.5664 14.2188 12.8926 12.6328 12.8926L11.6895 12.8926L11.6895 15.1211C11.6895 15.6543 11.375 15.9688 10.8691 15.9688ZM11.6895 11.5938L12.3184 11.5938C13.207 11.5938 13.5352 10.7734 13.5352 9.83008C13.5352 8.90039 13.2344 8.06641 12.3184 8.06641L11.6895 8.06641ZM18.5117 15.9414C18.0195 15.9414 17.6777 15.5586 17.6777 15.0391L17.6777 8.64062L17.0215 9.1875C16.9121 9.26953 16.7344 9.33789 16.584 9.33789C16.2148 9.33789 15.9277 9.06445 15.9277 8.68164C15.9277 8.44922 16.0781 8.2168 16.3105 8.01172L17.3359 7.12305C17.7461 6.79492 18.0469 6.63086 18.4297 6.63086C18.9766 6.63086 19.373 7.02734 19.373 7.56055L19.373 15.0391C19.373 15.5586 19.0176 15.9414 18.5117 15.9414ZM21.2051 15.8457C20.7676 15.8457 20.4258 15.5586 20.4258 15.0938C20.4258 14.875 20.4805 14.6699 20.7539 14.2871L22.4219 11.7988C23.0781 10.8555 23.502 10.0215 23.502 9.21484C23.502 8.53125 23.2832 7.99805 22.7363 7.99805C22.2578 7.99805 22.0527 8.43555 21.9297 9.03711C21.8203 9.54297 21.5742 9.77539 21.1504 9.77539C20.6992 9.77539 20.4121 9.43359 20.4121 9.00977C20.4121 7.99805 21.3281 6.54883 22.75 6.54883C24.2539 6.54883 25.1289 7.62891 25.1289 9.1875C25.1289 10.3633 24.4863 11.4434 23.7891 12.4277L22.4492 14.3828L24.5547 14.3828C24.9238 14.3828 25.252 14.6973 25.252 15.1074C25.252 15.5039 24.9238 15.8457 24.5547 15.8457ZM28.4922 16.0098C26.7012 16.0098 25.9355 14.5742 25.9355 13.6855C25.9355 13.3301 26.1816 12.9199 26.7148 12.9199C27.166 12.9199 27.3711 13.248 27.4668 13.5215C27.6445 14.2324 28 14.5469 28.4922 14.5469C29.1348 14.5469 29.4082 14.0273 29.4082 13.2207C29.4082 12.3184 29.0938 11.8672 28.2461 11.8672L28 11.8672C27.6035 11.8672 27.3164 11.5664 27.3164 11.1699C27.3164 10.7871 27.6035 10.5 28 10.5L28.2461 10.5C28.957 10.5 29.2441 9.85742 29.2441 9.20117C29.2441 8.47656 28.9434 8.01172 28.4375 8.01172C27.9863 8.01172 27.7402 8.39453 27.5762 9.02344C27.4531 9.43359 27.1797 9.63867 26.7832 9.63867C26.3594 9.63867 26.0586 9.32422 26.0586 8.90039C26.0586 7.60156 27.084 6.57617 28.4375 6.57617C30.0645 6.57617 30.8438 7.80664 30.8438 9.06445C30.8438 9.88477 30.4609 10.6914 29.8867 11.0879C30.666 11.3887 31.0625 12.2773 31.0625 13.2617C31.0625 14.8203 30.0508 16.0098 28.4922 16.0098Z" fill="white"/>
 </g>
</svg>
