<?xml version="1.0" encoding="UTF-8"?>
<!--Generator: Apple Native CoreSVG 326-->
<!DOCTYPE svg
PUBLIC "-//W3C//DTD SVG 1.1//EN"
       "http://www.w3.org/Graphics/SVG/1.1/DTD/svg11.dtd">
<svg version="1.1" xmlns="http://www.w3.org/2000/svg" xmlns:xlink="http://www.w3.org/1999/xlink" viewBox="0 0 28.2461 27.9043">
 <g>
  <rect height="27.9043" opacity="0" width="28.2461" x="0" y="0"/>
  <path d="M13.9453 21.2598C17.9785 21.2598 21.2598 17.9785 21.2598 13.9453C21.2598 9.91211 17.9785 6.63086 13.9453 6.63086C9.91211 6.63086 6.63086 9.91211 6.63086 13.9453C6.63086 17.9785 9.91211 21.2598 13.9453 21.2598ZM13.9453 18.9492C11.1836 18.9492 8.94141 16.707 8.94141 13.9453C8.94141 11.1836 11.1836 8.94141 13.9453 8.94141C16.707 8.94141 18.9492 11.1836 18.9492 13.9453C18.9492 16.707 16.707 18.9492 13.9453 18.9492ZM3.04883 21.998L5.98828 24.9375L11.416 19.5098L8.47656 16.5703ZM2.91211 5.87891L8.47656 11.4434L11.416 8.50391L5.85156 2.93945ZM25.0059 5.90625L22.0664 2.9668L16.5293 8.50391L19.4688 11.4434ZM24.8828 21.9707L19.4824 16.5703L16.5293 19.5234L21.9297 24.9238ZM13.9453 27.8906C21.6426 27.8906 27.8906 21.6426 27.8906 13.9453C27.8906 6.24805 21.6426 0 13.9453 0C6.24805 0 0 6.24805 0 13.9453C0 21.6426 6.24805 27.8906 13.9453 27.8906ZM13.9453 25.5664C7.51953 25.5664 2.32422 20.3711 2.32422 13.9453C2.32422 7.51953 7.51953 2.32422 13.9453 2.32422C20.3711 2.32422 25.5664 7.51953 25.5664 13.9453C25.5664 20.3711 20.3711 25.5664 13.9453 25.5664Z" fill="white" fill-opacity="0.85"/>
 </g>
</svg>
