<svg version="1.1" xmlns="http://www.w3.org/2000/svg" xmlns:xlink="http://www.w3.org/1999/xlink" viewBox="0 0 44.9668 32.5254">
 <g>
  
  <path d="M22.3262 32.5254C28.3008 32.5254 32.8262 29.7227 32.8262 25.9902C32.8262 22.2441 28.3008 19.4551 22.3262 19.4551C16.3379 19.4551 11.7988 22.2305 11.7988 25.9902C11.7988 29.7363 16.3379 32.5254 22.3262 32.5254ZM22.3125 30.0234C18.3613 30.0234 15.4902 28.3828 15.4902 26.168C15.4902 23.9531 18.3613 22.3262 22.3125 22.3262C26.2637 22.3262 29.1621 23.9531 29.1621 26.168C29.1621 28.3691 26.2637 30.0234 22.3125 30.0234ZM16.7344 26.168C16.7344 27.6035 19.209 28.7793 22.2988 28.7793C25.4023 28.7793 27.918 27.6035 27.918 26.168C27.918 25.6211 27.5488 25.1426 26.9609 24.7324C26.0723 25.9219 24.3086 26.6738 22.2988 26.6738C20.2891 26.6738 18.5117 25.9355 17.582 24.7598C17.0625 25.1426 16.7344 25.6348 16.7344 26.168Z" style="fill:var(--color-0,hsl(0 0 0/0.85))"></path>
  <path d="M34.1113 18.8945C40.0586 18.8945 44.6113 16.1055 44.6113 12.373C44.6113 8.62695 40.0586 5.82422 34.1113 5.82422C28.1094 5.82422 23.584 8.61328 23.584 12.373C23.584 16.1191 28.1094 18.8945 34.1113 18.8945ZM34.084 16.3926C30.1465 16.3926 27.2617 14.7656 27.2617 12.5645C27.2617 10.3359 30.1465 8.70898 34.084 8.70898C38.0352 8.70898 40.9199 10.3359 40.9199 12.5645C40.9199 14.752 38.0352 16.3926 34.084 16.3926ZM28.5059 12.5645C28.5059 13.9727 30.9941 15.1621 34.0703 15.1621C37.1738 15.1621 39.6895 13.9727 39.6895 12.5645C39.6895 11.9902 39.334 11.5117 38.7324 11.1016C37.8438 12.291 36.0938 13.0703 34.0703 13.0703C32.0605 13.0703 30.2969 12.3047 29.3535 11.1289C28.834 11.5254 28.5059 12.0039 28.5059 12.5645Z" style="fill:var(--color-1,hsl(0 0 0/0.85))"></path>
  <path d="M10.5273 18.8809C16.502 18.8809 21.0273 16.0918 21.0273 12.3594C21.0273 8.61328 16.502 5.81055 10.5273 5.81055C4.53906 5.81055 0 8.59961 0 12.3594C0 16.1055 4.53906 18.8809 10.5273 18.8809ZM10.5137 16.3789C6.57617 16.3789 3.69141 14.752 3.69141 12.5508C3.69141 10.3223 6.57617 8.69531 10.5137 8.69531C14.4648 8.69531 17.3633 10.3223 17.3633 12.5508C17.3633 14.7383 14.4648 16.3789 10.5137 16.3789ZM4.93555 12.5508C4.93555 13.959 7.42383 15.1484 10.5 15.1484C13.6035 15.1484 16.1191 13.959 16.1191 12.5508C16.1191 11.9766 15.7637 11.498 15.1621 11.1016C14.2734 12.2773 12.5098 13.0566 10.5 13.0566C8.49023 13.0566 6.72656 12.291 5.79688 11.1152C5.26367 11.5117 4.93555 11.9902 4.93555 12.5508Z" style="fill:var(--color-2,hsl(0 0 0/0.85))"></path>
 </g>
</svg>