<svg version="1.1" xmlns="http://www.w3.org/2000/svg" xmlns:xlink="http://www.w3.org/1999/xlink" viewBox="0 0 28.2461 27.9043">
 <g>
  
  <path d="M13.9453 27.8906C21.6426 27.8906 27.8906 21.6289 27.8906 13.9453C27.8906 6.24805 21.6426 0 13.9453 0C6.26172 0 0 6.24805 0 13.9453C0 21.6289 6.26172 27.8906 13.9453 27.8906Z" style="fill:var(--color-0,hsl(0 0 0/0.85))"></path>
  <path d="M8.99609 9.84375C8.99609 7.28711 11.1699 5.3457 13.9316 5.3457C16.707 5.3457 18.8945 7.35547 18.8945 9.91211C18.8945 12.7422 16.9941 13.3574 16.7207 18.2656C16.707 18.5391 16.5293 18.7168 16.2422 18.7168L11.6211 18.7168C11.3613 18.7168 11.1973 18.5391 11.1699 18.2656C10.8691 13.3574 8.99609 12.6738 8.99609 9.84375ZM11.7852 20.6035C11.4707 20.6035 11.2109 20.3438 11.2109 20.0293C11.2109 19.7148 11.4707 19.4551 11.7852 19.4551L16.1055 19.4551C16.4199 19.4551 16.6934 19.7148 16.6934 20.0293C16.6934 20.3438 16.4199 20.6035 16.1055 20.6035ZM13.9453 22.5312C12.9199 22.5312 12.1543 22.0527 12.0859 21.3281L15.8047 21.3281C15.7227 22.0527 14.9707 22.5312 13.9453 22.5312Z" style="fill:var(--color-1,white)"></path>
 </g>
</svg>