<?xml version="1.0" encoding="UTF-8"?>
<!--Generator: Apple Native CoreSVG 326-->
<!DOCTYPE svg
PUBLIC "-//W3C//DTD SVG 1.1//EN"
       "http://www.w3.org/Graphics/SVG/1.1/DTD/svg11.dtd">
<svg version="1.1" xmlns="http://www.w3.org/2000/svg" xmlns:xlink="http://www.w3.org/1999/xlink" viewBox="0 0 27.084 28.2324">
 <g>
  <rect height="28.2324" opacity="0" width="27.084" x="0" y="0"/>
  <path d="M13.3574 13.959C19.5234 13.959 24.2812 15.4766 26.7285 18.1152L26.7285 7.39648C26.7285 2.93945 21.4512 0 13.3574 0C5.27734 0 0 2.93945 0 7.39648L0 18.1152C2.44727 15.4766 7.19141 13.959 13.3574 13.959ZM13.3574 28.2188C21.0137 28.2188 26.6738 25.7852 26.6738 22.0254C26.6738 18.2656 21.0137 15.832 13.3574 15.832C5.71484 15.832 0.0546875 18.2656 0.0546875 22.0254C0.0546875 25.7852 5.71484 28.2188 13.3574 28.2188ZM13.3574 21.5879C10.3496 21.5879 7.86133 20.043 7.68359 18.1289C9.32422 17.7734 11.252 17.5684 13.3574 17.5684C15.4766 17.5684 17.3906 17.7734 19.0449 18.1289C18.8672 20.043 16.3652 21.5879 13.3574 21.5879Z" fill="white" fill-opacity="0.85"/>
 </g>
</svg>
