<svg version="1.1" xmlns="http://www.w3.org/2000/svg" xmlns:xlink="http://www.w3.org/1999/xlink" viewBox="0 0 24.1582 34.166">
 <g>
  
  <path d="M13.4258 28.3555C13.4258 30.1738 14.4512 31.1992 16.2695 31.1992L20.9453 31.1992C22.7637 31.1992 23.8027 30.1738 23.8027 28.3418L23.8027 5.85156C23.8027 4.01953 22.7637 2.99414 20.9453 2.99414L16.2695 2.99414C14.4512 2.99414 13.4258 4.01953 13.4258 5.83789ZM15.4902 28.1641L15.4902 6.0293C15.4902 5.40039 15.8594 5.05859 16.4883 5.05859L20.7539 5.05859C21.3828 5.05859 21.7383 5.40039 21.7383 6.0293L21.7383 28.1641C21.7383 28.7793 21.3828 29.1348 20.7539 29.1348L16.4883 29.1348C15.8594 29.1348 15.4902 28.7793 15.4902 28.1641ZM15.5859 30.1875L15.5859 33.25C15.5859 33.7559 15.9824 34.1387 16.4883 34.1387C16.9941 34.1387 17.3906 33.7559 17.3906 33.25L17.3906 30.1875ZM19.8379 30.1875L19.8379 33.25C19.8379 33.7559 20.2207 34.1387 20.7266 34.1387C21.2324 34.1387 21.6426 33.7559 21.6426 33.25L21.6426 30.1875ZM18.6074 9.61133C19.3047 9.61133 19.8516 9.05078 19.8516 8.36719C19.8516 7.68359 19.3047 7.12305 18.6074 7.12305C17.9238 7.12305 17.377 7.68359 17.377 8.36719C17.377 9.05078 17.9238 9.61133 18.6074 9.61133ZM18.6074 13.9727C19.3047 13.9727 19.8516 13.4121 19.8516 12.7285C19.8516 12.0449 19.3047 11.4844 18.6074 11.4844C17.9238 11.4844 17.377 12.0449 17.377 12.7285C17.377 13.4121 17.9238 13.9727 18.6074 13.9727ZM18.6074 18.3203C19.3047 18.3203 19.8516 17.7734 19.8516 17.0898C19.8516 16.4062 19.3047 15.8457 18.6074 15.8457C17.9238 15.8457 17.377 16.4062 17.377 17.0898C17.377 17.7734 17.9238 18.3203 18.6074 18.3203ZM18.6074 22.6816C19.3047 22.6816 19.8516 22.1211 19.8516 21.4375C19.8516 20.7539 19.3047 20.207 18.6074 20.207C17.9238 20.207 17.377 20.7539 17.377 21.4375C17.377 22.1211 17.9238 22.6816 18.6074 22.6816ZM18.6074 27.043C19.3047 27.043 19.8516 26.4824 19.8516 25.7988C19.8516 25.1152 19.3047 24.5547 18.6074 24.5547C17.9238 24.5547 17.377 25.1152 17.377 25.7988C17.377 26.4824 17.9238 27.043 18.6074 27.043Z" style="fill:var(--color-0,hsl(0 0 0/0.85))"></path>
  <path d="M0 28.3145C0 30.1328 1.02539 31.1582 2.83008 31.1582L7.51953 31.1582C9.32422 31.1582 10.3633 30.1328 10.3633 28.3008L10.3633 5.81055C10.3633 3.97852 9.32422 2.95312 7.51953 2.95312L2.83008 2.95312C1.02539 2.95312 0 3.97852 0 5.79688ZM2.06445 28.123L2.06445 5.98828C2.06445 5.35938 2.43359 5.01758 3.0625 5.01758L7.31445 5.01758C7.94336 5.01758 8.29883 5.35938 8.29883 5.98828L8.29883 28.123C8.29883 28.7383 7.94336 29.0938 7.31445 29.0938L3.0625 29.0938C2.43359 29.0938 2.06445 28.7383 2.06445 28.123ZM2.16016 3.96484L3.96484 3.96484L3.96484 0.902344C3.96484 0.396484 3.55469 0 3.04883 0C2.54297 0 2.16016 0.396484 2.16016 0.902344ZM6.39844 3.96484L8.20312 3.96484L8.20312 0.902344C8.20312 0.396484 7.80664 0 7.30078 0C6.79492 0 6.39844 0.396484 6.39844 0.902344ZM5.18164 9.59766C5.86523 9.59766 6.42578 9.03711 6.42578 8.35352C6.42578 7.66992 5.86523 7.10938 5.18164 7.10938C4.49805 7.10938 3.95117 7.66992 3.95117 8.35352C3.95117 9.03711 4.49805 9.59766 5.18164 9.59766ZM5.18164 13.9453C5.86523 13.9453 6.42578 13.3984 6.42578 12.7148C6.42578 12.0176 5.86523 11.4707 5.18164 11.4707C4.49805 11.4707 3.95117 12.0176 3.95117 12.7148C3.95117 13.3984 4.49805 13.9453 5.18164 13.9453ZM5.18164 18.293C5.86523 18.293 6.42578 17.7461 6.42578 17.0625C6.42578 16.3789 5.86523 15.832 5.18164 15.832C4.49805 15.832 3.95117 16.3789 3.95117 17.0625C3.95117 17.7461 4.49805 18.293 5.18164 18.293ZM5.18164 22.668C5.86523 22.668 6.42578 22.1074 6.42578 21.4238C6.42578 20.7402 5.86523 20.1797 5.18164 20.1797C4.49805 20.1797 3.95117 20.7402 3.95117 21.4238C3.95117 22.1074 4.49805 22.668 5.18164 22.668ZM5.18164 27.0156C5.86523 27.0156 6.42578 26.4688 6.42578 25.7852C6.42578 25.0879 5.86523 24.541 5.18164 24.541C4.49805 24.541 3.95117 25.0879 3.95117 25.7852C3.95117 26.4688 4.49805 27.0156 5.18164 27.0156Z" style="fill:var(--color-1,hsl(0 0 0/0.85))"></path>
 </g>
</svg>