<?xml version="1.0" encoding="UTF-8"?>
<!--Generator: Apple Native CoreSVG 326-->
<!DOCTYPE svg
PUBLIC "-//W3C//DTD SVG 1.1//EN"
       "http://www.w3.org/Graphics/SVG/1.1/DTD/svg11.dtd">
<svg version="1.1" xmlns="http://www.w3.org/2000/svg" xmlns:xlink="http://www.w3.org/1999/xlink" viewBox="0 0 28.2598 30.0371">
 <g>
  <rect height="30.0371" opacity="0" width="28.2598" x="0" y="0"/>
  <path d="M7.50586 28.3965C5.6875 28.3965 4.15625 27.4258 4.12891 26.0312L10.8965 26.0312C10.8691 27.4258 9.31055 28.3965 7.50586 28.3965ZM11.7852 24.2129C11.7852 24.6504 11.4297 24.9785 10.9922 24.9785L4.00586 24.9785C3.56836 24.9785 3.24023 24.6367 3.24023 24.2129C3.24023 23.7754 3.56836 23.4336 4.00586 23.4336L10.9922 23.4336C11.4297 23.4336 11.7852 23.7617 11.7852 24.2129ZM12.1501 3.40639C11.7612 3.91913 11.4405 4.48035 11.2024 5.08183C10.2239 4.36591 8.95928 3.95117 7.57422 3.95117C4.45703 3.95117 1.92773 6.07031 1.92773 8.98242C1.92773 12.127 3.96484 12.7148 4.99023 20.4668L10.1582 20.4668C10.639 16.8797 11.3306 14.8266 11.9338 13.3517C12.2876 14.1831 12.675 15.0723 13.0413 16.142C12.5674 17.5198 12.1378 19.2387 11.9082 21.6289C11.8672 22.0664 11.6211 22.3809 11.1152 22.3809L4.04688 22.3809C3.54102 22.3809 3.28125 22.0664 3.25391 21.6289C2.54297 14.3691 0 13.3027 0 8.98242C0 5.08594 3.32227 2.02344 7.57422 2.02344C9.31367 2.02344 10.894 2.53269 12.1501 3.40639Z" fill="white" fill-opacity="0.85"/>
  <path d="M19.25 0C14.4238 0 10.623 3.51367 10.623 7.98438C10.623 12.9336 13.5898 14.1641 14.4102 22.709C14.4512 23.1875 14.7109 23.4883 15.2168 23.4883L23.2969 23.4883C23.8027 23.4883 24.0625 23.1875 24.1035 22.709C24.9238 14.1641 27.9043 12.9336 27.9043 7.98438C27.9043 3.51367 24.0898 0 19.25 0ZM19.25 2.00977C22.8457 2.00977 25.8945 4.52539 25.8945 7.98438C25.8945 11.6621 23.4609 12.4961 22.2715 21.4785L16.2422 21.4785C15.0527 12.4961 12.6328 11.6621 12.6328 7.98438C12.6328 4.52539 15.668 2.00977 19.25 2.00977ZM15.1895 26.2773L23.3379 26.2773C23.7754 26.2773 24.1309 25.9492 24.1309 25.498C24.1309 25.0469 23.7754 24.7188 23.3379 24.7188L15.1895 24.7188C14.7383 24.7188 14.4102 25.0469 14.4102 25.498C14.4102 25.9492 14.7383 26.2773 15.1895 26.2773ZM19.2637 30.0234C21.2734 30.0234 22.9688 29.0117 23.0781 27.5078L15.4492 27.5078C15.5312 29.0117 17.2402 30.0234 19.2637 30.0234Z" fill="white" fill-opacity="0.85"/>
 </g>
</svg>
