<?xml version="1.0" encoding="UTF-8"?>
<!--Generator: Apple Native CoreSVG 326-->
<!DOCTYPE svg
PUBLIC "-//W3C//DTD SVG 1.1//EN"
       "http://www.w3.org/Graphics/SVG/1.1/DTD/svg11.dtd">
<svg version="1.1" xmlns="http://www.w3.org/2000/svg" xmlns:xlink="http://www.w3.org/1999/xlink" viewBox="0 0 28.8613 27.1934">
 <g>
  <rect height="27.1934" opacity="0" width="28.8613" x="0" y="0"/>
  <path d="M24.7598 25.7168C25.3613 25.7168 25.8809 25.2246 25.8809 24.623C25.8809 24.0078 25.3613 23.502 24.7598 23.502L23.0918 23.502L23.0918 14.4375C23.0918 9.44727 19.2363 5.5918 14.2598 5.5918C9.26953 5.5918 5.44141 9.44727 5.44141 14.4375L5.44141 23.502L3.74609 23.502C3.14453 23.502 2.66602 24.0078 2.66602 24.623C2.66602 25.2246 3.14453 25.7168 3.74609 25.7168ZM15.4082 14.4785L15.4082 23.502L13.125 23.502L13.125 14.4785C13.125 13.8496 13.6309 13.3301 14.2598 13.3301C14.8887 13.3301 15.4082 13.8496 15.4082 14.4785Z" fill="#98989d"/>
  <path d="M1.42188 15.6543C2.21484 15.6543 2.84375 15.0254 2.84375 14.2461C2.84375 13.4531 2.21484 12.8242 1.42188 12.8242C0.628906 12.8242 0 13.4531 0 14.2461C0 15.0254 0.628906 15.6543 1.42188 15.6543ZM4.64844 6.07031C5.44141 6.07031 6.07031 5.42773 6.07031 4.64844C6.07031 3.85547 5.44141 3.22656 4.64844 3.22656C3.86914 3.22656 3.22656 3.85547 3.22656 4.64844C3.22656 5.42773 3.86914 6.07031 4.64844 6.07031ZM14.2598 2.84375C15.0391 2.84375 15.668 2.21484 15.668 1.42188C15.668 0.642578 15.0391 0 14.2598 0C13.4668 0 12.8379 0.642578 12.8379 1.42188C12.8379 2.21484 13.4668 2.84375 14.2598 2.84375ZM23.8574 6.07031C24.6504 6.07031 25.2793 5.42773 25.2793 4.64844C25.2793 3.85547 24.6504 3.22656 23.8574 3.22656C23.0645 3.22656 22.4355 3.85547 22.4355 4.64844C22.4355 5.42773 23.0645 6.07031 23.8574 6.07031ZM27.0977 15.6543C27.877 15.6543 28.5059 15.0254 28.5059 14.2461C28.5059 13.4531 27.877 12.8242 27.0977 12.8242C26.3047 12.8242 25.6758 13.4531 25.6758 14.2461C25.6758 15.0254 26.3047 15.6543 27.0977 15.6543Z" fill="#98989d"/>
 </g>
</svg>
