<?xml version="1.0" encoding="UTF-8"?>
<!--Generator: Apple Native CoreSVG 326-->
<!DOCTYPE svg
PUBLIC "-//W3C//DTD SVG 1.1//EN"
       "http://www.w3.org/Graphics/SVG/1.1/DTD/svg11.dtd">
<svg version="1.1" xmlns="http://www.w3.org/2000/svg" xmlns:xlink="http://www.w3.org/1999/xlink" viewBox="0 0 34.7129 18.9629">
 <g>
  <rect height="18.9629" opacity="0" width="34.7129" x="0" y="0"/>
  <path d="M1.20312 18.4023L5.57812 18.4023C6.24805 18.4023 6.80859 17.8418 6.80859 17.1855C6.80859 16.543 6.23438 15.9824 5.57812 15.9824L1.20312 15.9824C0.560547 15.9824 0 16.543 0 17.1855C0 17.8281 0.560547 18.4023 1.20312 18.4023ZM9.70703 9.73438C10.1719 9.26953 10.1582 8.50391 9.69336 8.03906L6.63086 4.92188C6.16602 4.4707 5.37305 4.4707 4.92188 4.92188C4.45703 5.38672 4.45703 6.15234 4.92188 6.63086L7.99805 9.74805C8.44922 10.2129 9.24219 10.2129 9.70703 9.73438ZM17.1855 6.78125C17.8281 6.78125 18.3887 6.23438 18.3887 5.5918L18.3887 1.2168C18.3887 0.560547 17.8281 0 17.1855 0C16.5293 0 15.9688 0.560547 15.9688 1.2168L15.9688 5.5918C15.9688 6.23438 16.5293 6.78125 17.1855 6.78125ZM24.6641 9.73438C25.1152 10.2129 25.9082 10.2129 26.3594 9.73438L29.4492 6.63086C29.9141 6.15234 29.9141 5.38672 29.4492 4.92188C28.9844 4.45703 28.1914 4.4707 27.7402 4.93555L24.6641 8.03906C24.1855 8.50391 24.1855 9.26953 24.6641 9.73438ZM28.7793 18.4023L33.168 18.4023C33.8105 18.4023 34.3574 17.8281 34.3574 17.1855C34.3574 16.543 33.8105 15.9824 33.168 15.9824L28.7793 15.9824C28.123 15.9824 27.5625 16.543 27.5625 17.1855C27.5625 17.8418 28.1094 18.4023 28.7793 18.4023Z" fill="white" fill-opacity="0.85"/>
  <path d="M11.9766 18.416L22.3945 18.416C23.0645 18.416 23.625 17.8555 23.625 17.2129C23.625 16.5566 23.0781 15.9961 22.3945 15.9961L11.9766 15.9961C11.293 15.9961 10.7324 16.5566 10.7324 17.2129C10.7324 17.8555 11.3066 18.416 11.9766 18.416Z" fill="white" fill-opacity="0.85"/>
 </g>
</svg>
