<?xml version="1.0" encoding="UTF-8"?>
<!--Generator: Apple Native CoreSVG 326-->
<!DOCTYPE svg
PUBLIC "-//W3C//DTD SVG 1.1//EN"
       "http://www.w3.org/Graphics/SVG/1.1/DTD/svg11.dtd">
<svg version="1.1" xmlns="http://www.w3.org/2000/svg" xmlns:xlink="http://www.w3.org/1999/xlink" viewBox="0 0 18.6484 32.6621">
 <g>
  <rect height="32.6621" opacity="0" width="18.6484" x="0" y="0"/>
  <path d="M4.82617 27.8496L13.4805 27.8496C13.9316 27.8496 14.2734 27.4941 14.2734 27.043C14.2734 26.6055 13.9316 26.25 13.4805 26.25L4.82617 26.25C4.375 26.25 4.01953 26.6055 4.01953 27.043C4.01953 27.4941 4.375 27.8496 4.82617 27.8496ZM9.14648 31.8145C11.2656 31.8145 13.0293 30.7754 13.166 29.2031L5.14062 29.2031C5.23633 30.7754 7.01367 31.8145 9.14648 31.8145Z" fill="white" fill-opacity="0.55"/>
  <path d="M0 8.42188C0 13.6719 3.45898 14.9707 4.01953 24.0898C4.04688 24.582 4.34766 24.8965 4.86719 24.8965L13.4258 24.8965C13.959 24.8965 14.2461 24.582 14.2871 24.0898C14.8477 14.9707 18.293 13.6719 18.293 8.42188C18.293 3.70508 14.2598 0 9.14648 0C4.0332 0 0 3.70508 0 8.42188Z" fill="white" fill-opacity="0.85"/>
 </g>
</svg>
