<?xml version="1.0" encoding="UTF-8"?>
<!--Generator: Apple Native CoreSVG 326-->
<!DOCTYPE svg
PUBLIC "-//W3C//DTD SVG 1.1//EN"
       "http://www.w3.org/Graphics/SVG/1.1/DTD/svg11.dtd">
<svg version="1.1" xmlns="http://www.w3.org/2000/svg" xmlns:xlink="http://www.w3.org/1999/xlink" viewBox="0 0 20.3984 30.2559">
 <g>
  <rect height="30.2559" opacity="0" width="20.3984" x="0" y="0"/>
  <path d="M20.043 4.29297L20.043 25.9629C20.043 28.8066 18.6211 30.2422 15.8047 30.2422L4.23828 30.2422C1.4082 30.2422 0 28.8066 0 25.9629L0 4.29297C0 1.43555 1.4082 0 4.23828 0L15.8047 0C18.6211 0 20.043 1.43555 20.043 4.29297ZM4.83984 3.66406C3.92383 3.66406 3.55469 4.01953 3.55469 4.93555L3.55469 11.6895C3.55469 12.6055 3.92383 12.9609 4.83984 12.9609L15.1348 12.9609C16.0645 12.9609 16.4336 12.6055 16.4336 11.6895L16.4336 4.93555C16.4336 4.01953 16.0645 3.66406 15.1348 3.66406Z" fill="white" fill-opacity="0.85"/>
 </g>
</svg>
