<?xml version="1.0" encoding="UTF-8"?>
<!--Generator: Apple Native CoreSVG 326-->
<!DOCTYPE svg
PUBLIC "-//W3C//DTD SVG 1.1//EN"
       "http://www.w3.org/Graphics/SVG/1.1/DTD/svg11.dtd">
<svg version="1.1" xmlns="http://www.w3.org/2000/svg" xmlns:xlink="http://www.w3.org/1999/xlink" viewBox="0 0 25.5254 25.1699">
 <g>
  <rect height="25.1699" opacity="0" width="25.5254" x="0" y="0"/>
  <path d="M4.29297 25.1699L20.877 25.1699C23.748 25.1699 25.1699 23.7617 25.1699 20.9453L25.1699 4.23828C25.1699 1.42188 23.748 0 20.877 0L4.29297 0C1.43555 0 0 1.42188 0 4.23828L0 20.9453C0 23.7617 1.43555 25.1699 4.29297 25.1699ZM4.32031 22.9688C2.95312 22.9688 2.20117 22.2441 2.20117 20.8223L2.20117 4.36133C2.20117 2.93945 2.95312 2.20117 4.32031 2.20117L20.8496 2.20117C22.2031 2.20117 22.9688 2.93945 22.9688 4.36133L22.9688 20.8223C22.9688 22.2441 22.2031 22.9688 20.8496 22.9688Z" fill="white" fill-opacity="0.85"/>
  <path d="M8.94141 19.7148L16.2285 19.7148C16.8027 19.7148 17.2266 19.291 17.2266 18.7168L17.2266 6.48047C17.2266 5.87891 16.8027 5.46875 16.2285 5.46875L8.94141 5.46875C8.36719 5.46875 7.94336 5.87891 7.94336 6.48047L7.94336 18.7168C7.94336 19.291 8.36719 19.7148 8.94141 19.7148ZM9.93945 11.334C9.67969 11.334 9.48828 11.1289 9.48828 10.8555L9.48828 7.47852C9.48828 7.19141 9.67969 7.01367 9.93945 7.01367L15.2305 7.01367C15.5039 7.01367 15.6816 7.19141 15.6816 7.47852L15.6816 10.8555C15.6816 11.1289 15.5039 11.334 15.2305 11.334Z" fill="white" fill-opacity="0.85"/>
 </g>
</svg>
