<svg version="1.1" xmlns="http://www.w3.org/2000/svg" xmlns:xlink="http://www.w3.org/1999/xlink" viewBox="0 0 33.9609 28.2051">
 <g>
  
  <path d="M14.2598 15.7773L15.136 15.7383L23.3379 23.9121C23.8027 24.3633 23.7754 24.9648 23.3379 25.416C22.8867 25.8535 22.2852 25.8672 21.8203 25.416L12.0071 15.5916C12.7267 15.7179 13.4807 15.7773 14.2598 15.7773ZM26.6602 20.5898C27.1113 21.041 27.0977 21.6562 26.6602 22.1074C26.1953 22.5449 25.5938 22.5586 25.1426 22.1074L18.242 15.1989C18.9979 14.9778 19.7104 14.6844 20.3757 14.3269ZM29.9551 17.2812C30.4199 17.7324 30.3926 18.3477 29.9551 18.7988C29.5176 19.2363 28.9023 19.25 28.4512 18.7988L22.5108 12.8516C23.0538 12.3951 23.5417 11.8792 23.9727 11.3125ZM33.2773 13.9727C33.7285 14.4238 33.7148 15.0391 33.2773 15.4902C32.8262 15.9277 32.2109 15.9414 31.7598 15.4902L25.3369 9.05271C25.671 8.3624 25.9309 7.61961 26.111 6.83096Z" style="fill:var(--color-0,hsl(0 0 0/0.85))"></path>
  <path d="M1.05273 4.45703L27.4805 4.44336C28.0547 4.44336 28.5332 3.96484 28.5332 3.39062C28.5332 2.81641 28.0547 2.31055 27.4805 2.31055L1.05273 2.32422C0.464844 2.32422 0 2.83008 0 3.39062C0 3.96484 0.478516 4.45703 1.05273 4.45703ZM14.2598 13.918C20.4531 13.918 24.6914 9.625 24.6367 3.41797L22.5312 3.41797C22.5586 8.36719 19.1953 11.7852 14.2598 11.7852C9.33789 11.7852 5.96094 8.36719 5.98828 3.41797L3.86914 3.41797C3.8418 9.625 8.08008 13.918 14.2598 13.918Z" style="fill:var(--color-1,hsl(0 0 0/0.85))"></path>
 </g>
</svg>