<svg version="1.1" xmlns="http://www.w3.org/2000/svg" xmlns:xlink="http://www.w3.org/1999/xlink" viewBox="0 0 22.627 30.9668">
 <g>
  
  <path d="M0 5.46875C0 10.2266 7.32812 14.1504 7.32812 22.2031L7.32812 23.3789C7.32812 23.8574 7.58789 24.1172 8.08008 24.1172L14.1914 24.1172C14.6836 24.1172 14.9434 23.8574 14.9434 23.3789L14.9434 22.2031C14.9434 14.1094 22.2715 10.3359 22.2715 5.46875C22.2715 1.95508 18.1836 0 11.1426 0C4.08789 0 0 1.95508 0 5.46875ZM2.06445 5.46875C2.06445 3.56836 5.1543 2.06445 11.1426 2.06445C17.1172 2.06445 20.207 3.56836 20.207 5.46875C20.207 8.70898 12.8926 13.7539 12.8926 21.5605L12.8926 22.9414L14.0273 22.0527L8.24414 22.0527L9.37891 22.9414L9.37891 21.5605C9.37891 13.7676 2.06445 8.68164 2.06445 5.46875ZM1.35352 8.18945L20.9316 8.18945L20.9316 6.39844L1.35352 6.39844ZM7.7793 27.0703L14.5059 27.0703C14.9434 27.0703 15.2988 26.7285 15.2988 26.2773C15.2988 25.8262 14.9434 25.4844 14.5059 25.4844L7.7793 25.4844C7.32812 25.4844 6.97266 25.8262 6.97266 26.2773C6.97266 26.7285 7.32812 27.0703 7.7793 27.0703ZM11.1426 30.9668C12.9883 30.9668 14.3008 29.9824 14.5879 28.4238L7.68359 28.4238C7.94336 29.9824 9.25586 30.9668 11.1426 30.9668Z" style="fill:var(--color-0,hsl(0 0 0/0.85))"></path>
 </g>
</svg>