<?xml version="1.0" encoding="UTF-8"?>
<!--Generator: Apple Native CoreSVG 326-->
<!DOCTYPE svg
PUBLIC "-//W3C//DTD SVG 1.1//EN"
       "http://www.w3.org/Graphics/SVG/1.1/DTD/svg11.dtd">
<svg version="1.1" xmlns="http://www.w3.org/2000/svg" xmlns:xlink="http://www.w3.org/1999/xlink" viewBox="0 0 39.1152 23.4199">
 <g>
  <rect height="23.4199" opacity="0" width="39.1152" x="0" y="0"/>
  <path d="M19.3594 23.3926C30.8984 23.3926 38.7598 18.1016 38.7598 11.7031C38.7598 5.30469 30.8984 0 19.3594 0C7.84766 0 0 5.30469 0 11.7031C0 18.1016 7.84766 23.3926 19.3594 23.3926ZM19.3594 19.2773C12.0859 19.2773 6.54883 16.2422 6.54883 12.0723C6.54883 7.92969 12.0859 4.89453 19.3594 4.89453C26.6738 4.89453 32.2246 7.92969 32.2246 12.0723C32.2246 16.2285 26.6602 19.2773 19.3594 19.2773ZM19.3457 12.9062C23.5293 12.9062 27.1797 11.0195 28.5879 8.39453C26.5781 7.04102 23.3789 6.20703 19.3594 6.20703C15.3262 6.20703 12.0996 7.05469 10.0898 8.44922C11.5254 11.0605 15.1621 12.9062 19.3457 12.9062Z" fill="white" fill-opacity="0.85"/>
 </g>
</svg>
