<svg version="1.1" xmlns="http://www.w3.org/2000/svg" xmlns:xlink="http://www.w3.org/1999/xlink" viewBox="0 0 33.9611 28.2051">
 <g>
  
  <path d="M11.7852 25.416C11.3204 25.8672 10.7188 25.8535 10.2677 25.416C9.83016 24.9648 9.81649 24.3633 10.2677 23.9121L18.4696 15.7383C18.754 15.7686 19.0481 15.7773 19.3458 15.7773C20.1247 15.7773 20.8787 15.7179 21.5984 15.5916ZM15.3695 15.2009L8.46297 22.1074C8.0118 22.5586 7.41024 22.5449 6.95906 22.1074C6.50789 21.6562 6.49422 21.041 6.95906 20.5898L13.2385 14.332C13.9033 14.6879 14.6148 14.9804 15.3695 15.2009ZM11.0984 12.8549L5.15438 18.7988C4.70321 19.25 4.10164 19.2363 3.65047 18.7988C3.21297 18.3477 3.1993 17.7324 3.65047 17.2812L9.63575 11.3165C10.0671 11.8829 10.5552 12.3985 11.0984 12.8549ZM8.2709 9.05777L1.84578 15.4902C1.39461 15.9414 0.779377 15.9277 0.328205 15.4902C-0.0956231 15.0391-0.122967 14.4238 0.328205 13.9727L7.49604 6.83759C7.67662 7.62566 7.93674 8.36793 8.2709 9.05777Z" style="fill:var(--color-0,hsl(0 0 0/0.85))"></path>
  <path d="M32.5528 4.45703C33.127 4.45703 33.6055 3.96484 33.6055 3.39062C33.6055 2.83008 33.1407 2.32422 32.5528 2.32422L6.12508 2.31055C5.55086 2.31055 5.07235 2.81641 5.07235 3.39062C5.07235 3.96484 5.55086 4.44336 6.12508 4.44336L8.99617 4.44336C9.39266 10.0762 13.5079 13.918 19.3458 13.918C25.1837 13.918 29.2989 10.0762 29.7091 4.45703Z" style="fill:var(--color-1,hsl(0 0 0/0.85))"></path>
 </g>
</svg>