<svg version="1.1" xmlns="http://www.w3.org/2000/svg" xmlns:xlink="http://www.w3.org/1999/xlink" viewBox="0 0 32.7168 31.0762">
 <g>
  
  <path d="M3.78711 17.3633C4.42969 17.3633 4.99023 16.8301 4.99023 16.2012C4.99023 15.5449 4.42969 15.0117 3.78711 15.0117L1.16211 15.0117C0.533203 15.0117 0 15.5586 0 16.2012C0 16.8164 0.533203 17.3633 1.16211 17.3633ZM6.58984 8.27148C7.04102 8.72266 7.79297 8.73633 8.24414 8.27148C8.70898 7.80664 8.69531 7.06836 8.24414 6.61719L6.39844 4.75781C5.96094 4.29297 5.19531 4.29297 4.73047 4.75781C4.2793 5.22266 4.2793 5.94727 4.73047 6.41211ZM14.998 3.81445C14.998 4.45703 15.5312 5.00391 16.1738 5.00391C16.8301 5.00391 17.3633 4.45703 17.3633 3.81445L17.3633 1.18945C17.3633 0.546875 16.8164 0 16.1738 0C15.5312 0 14.998 0.546875 14.998 1.18945ZM24.0898 6.61719C23.6387 7.06836 23.625 7.80664 24.0898 8.27148C24.5684 8.73633 25.293 8.72266 25.7441 8.27148L27.6172 6.41211C28.0684 5.94727 28.0684 5.22266 27.6172 4.75781C27.1387 4.29297 26.4141 4.29297 25.9629 4.75781ZM31.1719 17.3633C31.8145 17.3633 32.3613 16.8164 32.3613 16.2012C32.3613 15.5586 31.8145 15.0117 31.1719 15.0117L28.5469 15.0117C27.918 15.0117 27.3711 15.5449 27.3711 16.2012C27.3711 16.8301 27.918 17.3633 28.5469 17.3633Z" style="fill:var(--color-0,#ff3b30)"></path>
  <path d="M26.6738 27.6582C27.2891 27.6582 27.7949 27.166 27.7949 26.5645C27.7949 25.9492 27.2891 25.4434 26.6738 25.4434L25.0059 25.4434L25.0059 16.3789C25.0059 11.3887 21.1641 7.5332 16.1738 7.5332C11.1973 7.5332 7.35547 11.3887 7.35547 16.3789L7.35547 25.4434L5.66016 25.4434C5.05859 25.4434 4.58008 25.9492 4.58008 26.5645C4.58008 27.166 5.05859 27.6582 5.66016 27.6582ZM17.3223 16.4199L17.3223 25.4434L15.0527 25.4434L15.0527 16.4199C15.0527 15.791 15.5449 15.2715 16.1738 15.2715C16.8027 15.2715 17.3223 15.791 17.3223 16.4199Z" style="fill:var(--color-1,#ff3b30)"></path>
 </g>
</svg>