<svg version="1.1" xmlns="http://www.w3.org/2000/svg" xmlns:xlink="http://www.w3.org/1999/xlink" viewBox="0 0 24.1582 34.166">
 <g>
  
  <path d="M13.4258 28.3555C13.4258 30.1738 14.4512 31.1992 16.2695 31.1992L20.9453 31.1992C22.7637 31.1992 23.8027 30.1738 23.8027 28.3418L23.8027 5.85156C23.8027 4.01953 22.7637 2.99414 20.9453 2.99414L16.2695 2.99414C14.4512 2.99414 13.4258 4.01953 13.4258 5.83789ZM15.5859 30.1875L15.5859 33.25C15.5859 33.7559 15.9824 34.1387 16.4883 34.1387C16.9941 34.1387 17.3906 33.7559 17.3906 33.25L17.3906 30.1875ZM19.8379 30.1875L19.8379 33.25C19.8379 33.7559 20.2207 34.1387 20.7266 34.1387C21.2324 34.1387 21.6426 33.7559 21.6426 33.25L21.6426 30.1875ZM18.6074 9.37891C17.8965 9.37891 17.3359 8.80469 17.3359 8.09375C17.3359 7.38281 17.8965 6.80859 18.6074 6.80859C19.332 6.80859 19.8926 7.38281 19.8926 8.09375C19.8926 8.80469 19.332 9.37891 18.6074 9.37891ZM18.6074 13.877C17.8965 13.877 17.3359 13.3027 17.3359 12.5918C17.3359 11.8809 17.8965 11.3066 18.6074 11.3066C19.332 11.3066 19.8926 11.8809 19.8926 12.5918C19.8926 13.3027 19.332 13.877 18.6074 13.877ZM18.6074 18.3613C17.8965 18.3613 17.3359 17.8008 17.3359 17.0898C17.3359 16.3789 17.8965 15.8047 18.6074 15.8047C19.332 15.8047 19.8926 16.3789 19.8926 17.0898C19.8926 17.8008 19.332 18.3613 18.6074 18.3613ZM18.6074 22.8594C17.8965 22.8594 17.3359 22.2852 17.3359 21.5742C17.3359 20.8633 17.8965 20.3027 18.6074 20.3027C19.332 20.3027 19.8926 20.8633 19.8926 21.5742C19.8926 22.2852 19.332 22.8594 18.6074 22.8594ZM18.6074 27.3574C17.8965 27.3574 17.3359 26.7832 17.3359 26.0723C17.3359 25.3613 17.8965 24.7871 18.6074 24.7871C19.332 24.7871 19.8926 25.3613 19.8926 26.0723C19.8926 26.7832 19.332 27.3574 18.6074 27.3574Z" style="fill:var(--color-0,hsl(0 0 0/0.85))"></path>
  <path d="M0 28.3145C0 30.1328 1.02539 31.1582 2.83008 31.1582L7.51953 31.1582C9.32422 31.1582 10.3633 30.1328 10.3633 28.3008L10.3633 5.81055C10.3633 3.97852 9.32422 2.95312 7.51953 2.95312L2.83008 2.95312C1.02539 2.95312 0 3.97852 0 5.79688ZM2.16016 3.96484L3.96484 3.96484L3.96484 0.902344C3.96484 0.396484 3.55469 0 3.04883 0C2.54297 0 2.16016 0.396484 2.16016 0.902344ZM6.39844 3.96484L8.20312 3.96484L8.20312 0.902344C8.20312 0.396484 7.80664 0 7.30078 0C6.79492 0 6.39844 0.396484 6.39844 0.902344ZM5.18164 9.36523C4.4707 9.36523 3.91016 8.79102 3.91016 8.08008C3.91016 7.36914 4.4707 6.79492 5.18164 6.79492C5.89258 6.79492 6.4668 7.36914 6.4668 8.08008C6.4668 8.79102 5.89258 9.36523 5.18164 9.36523ZM5.18164 13.8496C4.4707 13.8496 3.91016 13.2891 3.91016 12.5781C3.91016 11.8535 4.4707 11.293 5.18164 11.293C5.89258 11.293 6.4668 11.8535 6.4668 12.5781C6.4668 13.2891 5.89258 13.8496 5.18164 13.8496ZM5.18164 18.334C4.4707 18.334 3.91016 17.7734 3.91016 17.0625C3.91016 16.3516 4.4707 15.791 5.18164 15.791C5.89258 15.791 6.4668 16.3516 6.4668 17.0625C6.4668 17.7734 5.89258 18.334 5.18164 18.334ZM5.18164 22.8457C4.4707 22.8457 3.91016 22.2715 3.91016 21.5605C3.91016 20.8496 4.4707 20.2754 5.18164 20.2754C5.89258 20.2754 6.4668 20.8496 6.4668 21.5605C6.4668 22.2715 5.89258 22.8457 5.18164 22.8457ZM5.18164 27.3301C4.4707 27.3301 3.91016 26.7695 3.91016 26.0449C3.91016 25.334 4.4707 24.7734 5.18164 24.7734C5.89258 24.7734 6.4668 25.334 6.4668 26.0449C6.4668 26.7695 5.89258 27.3301 5.18164 27.3301Z" style="fill:var(--color-1,hsl(0 0 0/0.85))"></path>
 </g>
</svg>