<svg version="1.1" xmlns="http://www.w3.org/2000/svg" xmlns:xlink="http://www.w3.org/1999/xlink" viewBox="0 0 20.3984 30.2559">
 <g>
  
  <path d="M20.043 4.29297L20.043 25.9629C20.043 28.8203 18.6211 30.2422 15.8047 30.2422L4.23828 30.2422C1.4082 30.2422 0 28.8203 0 25.9629L0 4.29297C0 1.44922 1.4082 0 4.23828 0L15.8047 0C18.6211 0 20.043 1.44922 20.043 4.29297ZM4.83984 17.2949C3.92383 17.2949 3.55469 17.6504 3.55469 18.5664L3.55469 25.3203C3.55469 26.2363 3.92383 26.5918 4.83984 26.5918L15.1348 26.5918C16.0645 26.5918 16.4336 26.2363 16.4336 25.3203L16.4336 18.5664C16.4336 17.6504 16.0645 17.2949 15.1348 17.2949Z" style="fill:var(--color-0,hsl(0 0 0/0.85))"></path>
 </g>
</svg>