<?xml version="1.0" encoding="UTF-8"?>
<!--Generator: Apple Native CoreSVG 326-->
<!DOCTYPE svg
PUBLIC "-//W3C//DTD SVG 1.1//EN"
       "http://www.w3.org/Graphics/SVG/1.1/DTD/svg11.dtd">
<svg version="1.1" xmlns="http://www.w3.org/2000/svg" xmlns:xlink="http://www.w3.org/1999/xlink" viewBox="0 0 33.9609 25.5801">
 <g>
  <rect height="25.5801" opacity="0" width="33.9609" x="0" y="0"/>
  <path d="M4.29297 25.5664L29.3125 25.5664C32.1836 25.5664 33.6055 24.1445 33.6055 21.3281L33.6055 4.23828C33.6055 1.42188 32.1836 0 29.3125 0L4.29297 0C1.43555 0 0 1.4082 0 4.23828L0 21.3281C0 24.1582 1.43555 25.5664 4.29297 25.5664ZM4.32031 23.3652C2.95312 23.3652 2.20117 22.627 2.20117 21.2188L2.20117 4.34766C2.20117 2.92578 2.95312 2.20117 4.32031 2.20117L29.2852 2.20117C30.6387 2.20117 31.4043 2.92578 31.4043 4.34766L31.4043 21.2188C31.4043 22.627 30.6387 23.3652 29.2852 23.3652Z" fill="white" fill-opacity="0.85"/>
  <path d="M5.26367 21.4922L28.3418 21.4922C29.1074 21.4922 29.5449 21.041 29.5449 20.2754L29.5449 5.29102C29.5449 4.51172 29.1074 4.06055 28.3418 4.06055L5.26367 4.06055C4.49805 4.06055 4.07422 4.51172 4.07422 5.29102L4.07422 20.2754C4.07422 21.041 4.49805 21.4922 5.26367 21.4922Z" fill="white" fill-opacity="0.85"/>
 </g>
</svg>
