<?xml version="1.0" encoding="UTF-8"?>
<!--Generator: Apple Native CoreSVG 326-->
<!DOCTYPE svg
PUBLIC "-//W3C//DTD SVG 1.1//EN"
       "http://www.w3.org/Graphics/SVG/1.1/DTD/svg11.dtd">
<svg version="1.1" xmlns="http://www.w3.org/2000/svg" xmlns:xlink="http://www.w3.org/1999/xlink" viewBox="0 0 28.2461 27.9043">
 <g>
  <rect height="27.9043" opacity="0" width="28.2461" x="0" y="0"/>
  <path d="M8.28516 13.4121C9.95312 13.4121 11.334 13.8223 13.166 14.9297C15.2168 16.1602 17.0488 16.8027 19.25 16.8027C22.2031 16.8027 24.8555 15.5312 26.9473 13.166L26.5098 9.9668C24.6777 13.0156 22.1758 14.6016 19.25 14.6016C17.4453 14.6016 16.0234 14.1094 14.2871 13.0566C12.25 11.8262 10.4453 11.2109 8.28516 11.2109C5.56445 11.2109 3.14453 12.3184 1.14844 14.3555L1.55859 17.2539C3.33594 14.7246 5.64648 13.4121 8.28516 13.4121ZM11.4707 8.92773C12.3047 10.377 12.6191 11.7441 12.5918 13.918C12.5508 16.3242 12.9336 18.2109 14.0137 20.0977C15.4082 22.5176 17.6094 24.1172 20.4258 24.8281L22.6816 22.9824C19.5781 22.6816 17.2676 21.3418 15.9277 19.0176C15.0254 17.4453 14.752 15.9961 14.793 13.9453C14.8203 11.5391 14.4512 9.70703 13.3848 7.84766C11.9219 5.31836 9.58398 3.70508 6.58984 3.08984L4.75781 5.01758C7.84766 5.29102 10.1445 6.63086 11.4707 8.92773ZM16.9531 9.46094C16.1191 10.8828 15.0938 11.8262 13.1797 12.9062C11.0742 14.0957 9.63867 15.3398 8.53125 17.2402C7.12305 19.6602 6.86328 22.4219 7.69727 25.252L10.3496 26.1133C9.07812 23.3105 9.0918 20.6445 10.4453 18.334C11.3477 16.8027 12.4688 15.832 14.2734 14.8203C16.3652 13.6445 17.7734 12.4141 18.8535 10.541C20.3027 8.03906 20.5215 5.16797 19.5645 2.25586L16.9258 1.55859C18.3066 4.48438 18.293 7.15039 16.9531 9.46094ZM13.9453 27.8906C21.6426 27.8906 27.8906 21.6426 27.8906 13.9453C27.8906 6.24805 21.6426 0 13.9453 0C6.24805 0 0 6.24805 0 13.9453C0 21.6426 6.24805 27.8906 13.9453 27.8906ZM13.9453 25.5664C7.51953 25.5664 2.32422 20.3711 2.32422 13.9453C2.32422 7.51953 7.51953 2.32422 13.9453 2.32422C20.3711 2.32422 25.5664 7.51953 25.5664 13.9453C25.5664 20.3711 20.3711 25.5664 13.9453 25.5664Z" fill="white" fill-opacity="0.85"/>
 </g>
</svg>
