<?xml version="1.0" encoding="UTF-8"?>
<!--Generator: Apple Native CoreSVG 326-->
<!DOCTYPE svg
PUBLIC "-//W3C//DTD SVG 1.1//EN"
       "http://www.w3.org/Graphics/SVG/1.1/DTD/svg11.dtd">
<svg version="1.1" xmlns="http://www.w3.org/2000/svg" xmlns:xlink="http://www.w3.org/1999/xlink" viewBox="0 0 24.6777 29.3809">
 <g>
  <rect height="29.3809" opacity="0" width="24.6777" x="0" y="0"/>
  <path d="M16.1738 29.3672C21.123 29.3672 24.3223 26.1816 24.3223 21.2324L24.3223 14.4922C24.3223 12.6191 23.7344 11.1152 22.5723 10.0488L13.9453 2.10547C12.25 0.560547 10.459 0 8.32617 0L4.10156 0C1.64062 0 0 1.66797 0 4.14258L0 25.2656C0 27.8359 1.55859 29.3672 4.14258 29.3672Z" fill="white" fill-opacity="0.85"/>
  <path d="M6.31641 15.709C5.79688 15.709 5.42773 15.3809 5.42773 14.875C5.42773 14.3828 5.79688 14.0547 6.31641 14.0547L17.7461 14.0547C18.2656 14.0547 18.6211 14.3828 18.6211 14.875C18.6211 15.3809 18.2656 15.709 17.7461 15.709ZM6.31641 19.6738C5.79688 19.6738 5.42773 19.3457 5.42773 18.8535C5.42773 18.3477 5.79688 18.0195 6.31641 18.0195L17.7461 18.0195C18.2656 18.0195 18.6211 18.3477 18.6211 18.8535C18.6211 19.3457 18.2656 19.6738 17.7461 19.6738ZM6.31641 23.6523C5.79688 23.6523 5.42773 23.3242 5.42773 22.8184C5.42773 22.3262 5.79688 21.998 6.31641 21.998L17.7461 21.998C18.2656 21.998 18.6211 22.3262 18.6211 22.8184C18.6211 23.3242 18.2656 23.6523 17.7461 23.6523Z" fill="white"/>
 </g>
</svg>
