<svg version="1.1" xmlns="http://www.w3.org/2000/svg" xmlns:xlink="http://www.w3.org/1999/xlink" viewBox="0 0 28.2461 27.9043">
 <g>
  
  <path d="M13.9453 27.8906C21.6426 27.8906 27.8906 21.6426 27.8906 13.9453C27.8906 6.24805 21.6426 0 13.9453 0C6.24805 0 0 6.24805 0 13.9453C0 21.6426 6.24805 27.8906 13.9453 27.8906ZM13.9453 25.5664C7.51953 25.5664 2.32422 20.3711 2.32422 13.9453C2.32422 7.51953 7.51953 2.32422 13.9453 2.32422C20.3711 2.32422 25.5664 7.51953 25.5664 13.9453C25.5664 20.3711 20.3711 25.5664 13.9453 25.5664Z" style="fill:var(--color-0,hsl(0 0 0/0.85))"></path>
  <path d="M6.50781 11.252L21.4102 11.252C22.0117 11.252 22.4492 10.8691 22.4492 10.2812C22.4492 9.70703 22.0117 9.32422 21.4102 9.32422L6.50781 9.32422C5.89258 9.32422 5.46875 9.70703 5.46875 10.2812C5.46875 10.8691 5.89258 11.252 6.50781 11.252ZM8.53125 15.7773L19.3867 15.7773C19.9883 15.7773 20.4121 15.3945 20.4121 14.8066C20.4121 14.2324 19.9883 13.8496 19.3867 13.8496L8.53125 13.8496C7.91602 13.8496 7.49219 14.2324 7.49219 14.8066C7.49219 15.3945 7.91602 15.7773 8.53125 15.7773ZM10.6367 20.3164L17.2676 20.3164C17.8691 20.3164 18.3066 19.9199 18.3066 19.3457C18.3066 18.7715 17.8691 18.3887 17.2676 18.3887L10.6367 18.3887C10.0352 18.3887 9.61133 18.7715 9.61133 19.3457C9.61133 19.9199 10.0352 20.3164 10.6367 20.3164Z" style="fill:var(--color-1,hsl(0 0 0/0.85))"></path>
 </g>
</svg>