<?xml version="1.0" encoding="UTF-8"?>
<!--Generator: Apple Native CoreSVG 326-->
<!DOCTYPE svg
PUBLIC "-//W3C//DTD SVG 1.1//EN"
       "http://www.w3.org/Graphics/SVG/1.1/DTD/svg11.dtd">
<svg version="1.1" xmlns="http://www.w3.org/2000/svg" xmlns:xlink="http://www.w3.org/1999/xlink" viewBox="0 0 34.6445 26.0176">
 <g>
  <rect height="26.0176" opacity="0" width="34.6445" x="0" y="0"/>
  <path d="M0 24.8965C0 25.498 0.492188 26.0039 1.09375 26.0039L33.1953 26.0039C33.7969 26.0039 34.2891 25.498 34.2891 24.8965C34.2891 24.2949 33.7969 23.8027 33.1953 23.8027L1.09375 23.8027C0.492188 23.8027 0 24.2949 0 24.8965ZM0 1.10742C0 1.70898 0.492188 2.20117 1.09375 2.20117L33.1953 2.20117C33.7969 2.20117 34.2891 1.70898 34.2891 1.10742C34.2891 0.505859 33.7969 0 33.1953 0L1.09375 0C0.492188 0 0 0.505859 0 1.10742Z" fill="white" fill-opacity="0.85"/>
  <path d="M13.6172 19.2637L17.1582 16.6797L20.6855 19.2637C21.3691 19.7695 22.1758 19.3047 21.875 18.4023L20.4941 14.2598L24.1035 11.6484C24.8418 11.1289 24.5137 10.2676 23.6797 10.2676L19.209 10.2676L17.8965 6.15234C17.6367 5.3457 16.6797 5.3457 16.4336 6.15234L15.0938 10.2676L10.6094 10.2676C9.77539 10.2676 9.44727 11.1289 10.1855 11.6484L13.8223 14.2598L12.4277 18.4023C12.127 19.3047 12.9336 19.7695 13.6172 19.2637Z" fill="white" fill-opacity="0.85"/>
 </g>
</svg>
