<?xml version="1.0" encoding="UTF-8"?>
<!--Generator: Apple Native CoreSVG 326-->
<!DOCTYPE svg
PUBLIC "-//W3C//DTD SVG 1.1//EN"
       "http://www.w3.org/Graphics/SVG/1.1/DTD/svg11.dtd">
<svg version="1.1" xmlns="http://www.w3.org/2000/svg" xmlns:xlink="http://www.w3.org/1999/xlink" viewBox="0 0 28.2461 27.9043">
 <g>
  <rect height="27.9043" opacity="0" width="28.2461" x="0" y="0"/>
  <path d="M13.9453 27.8906C21.6426 27.8906 27.8906 21.6289 27.8906 13.9453C27.8906 6.24805 21.6426 0 13.9453 0C6.26172 0 0 6.24805 0 13.9453C0 21.6289 6.26172 27.8906 13.9453 27.8906Z" fill="white" fill-opacity="0.85"/>
  <path d="M6.28906 11.1426C5.66016 11.1426 5.20898 10.7461 5.20898 10.1445C5.20898 9.54297 5.66016 9.14648 6.28906 9.14648L21.6562 9.14648C22.2715 9.14648 22.7363 9.54297 22.7363 10.1445C22.7363 10.7461 22.2715 11.1426 21.6562 11.1426ZM8.38086 15.8184C7.73828 15.8184 7.30078 15.4219 7.30078 14.8066C7.30078 14.2051 7.73828 13.8086 8.38086 13.8086L19.5645 13.8086C20.1934 13.8086 20.6309 14.2051 20.6309 14.8066C20.6309 15.4219 20.1934 15.8184 19.5645 15.8184ZM10.5547 20.4941C9.92578 20.4941 9.48828 20.084 9.48828 19.4824C9.48828 18.8945 9.92578 18.498 10.5547 18.498L17.377 18.498C18.0059 18.498 18.457 18.8945 18.457 19.4824C18.457 20.084 18.0059 20.4941 17.377 20.4941Z" fill="white"/>
 </g>
</svg>
