<svg version="1.1" xmlns="http://www.w3.org/2000/svg" xmlns:xlink="http://www.w3.org/1999/xlink" viewBox="0 0 29.3501 29.2886">
 <g>
  
  <path d="M14.6682 8.89527L12.8499 10.741C14.6545 10.8914 15.8303 11.4246 16.719 12.3132C19.1116 14.7058 19.0979 18.0964 16.7327 20.4617L12.262 24.9187C9.88306 27.2976 6.51978 27.3113 4.1272 24.9324C1.73462 22.5261 1.74829 19.1628 4.1272 16.7839L6.80689 14.1043C6.42407 13.2429 6.32837 12.2175 6.47876 11.3289L2.45923 15.3347C-0.808347 18.616-0.835691 23.2644 2.4729 26.573C5.79517 29.8953 10.4436 29.8679 13.7112 26.6003L18.387 21.9109C21.6682 18.6296 21.6956 13.9812 18.3733 10.6726C17.512 9.81128 16.4182 9.19605 14.6682 8.89527ZM14.3264 20.1609L16.1448 18.3152C14.3401 18.1785 13.1643 17.6316 12.2756 16.7429C9.88306 14.3503 9.89673 10.9597 12.262 8.59449L16.719 4.13745C19.1116 1.75855 22.4749 1.74488 24.8674 4.13745C27.26 6.53003 27.2327 9.90699 24.8674 12.2722L22.1877 14.9519C22.5706 15.8269 22.6526 16.8386 22.5159 17.7273L26.5354 13.7214C29.803 10.4402 29.8303 5.80542 26.5217 2.48316C23.1995-0.839109 18.551-0.811765 15.2698 2.46949L10.6077 7.14527C7.32642 10.4265 7.29907 15.075 10.6213 18.3835C11.4827 19.2449 12.5764 19.8601 14.3264 20.1609Z" style="fill:var(--color-0,#007aff)"></path>
 </g>
</svg>