<?xml version="1.0" encoding="UTF-8"?>
<!--Generator: Apple Native CoreSVG 326-->
<!DOCTYPE svg
PUBLIC "-//W3C//DTD SVG 1.1//EN"
       "http://www.w3.org/Graphics/SVG/1.1/DTD/svg11.dtd">
<svg version="1.1" xmlns="http://www.w3.org/2000/svg" xmlns:xlink="http://www.w3.org/1999/xlink" viewBox="0 0 34.7266 25.9902">
 <g>
  <rect height="25.9902" opacity="0" width="34.7266" x="0" y="0"/>
  <path d="M30.0508 10.5C32.7168 11.6211 34.3711 14.1094 34.3711 16.9805C34.3711 20.7402 31.1445 23.7617 27.0156 23.7617L8.18945 23.7617C3.51367 23.7617 0 20.3848 0 16.3652C0 13.0293 1.92773 10.2676 5.01758 9.77539C5.08594 5.94727 8.75 3.39062 12.1133 4.375C13.7539 1.98242 16.3926 0 20.0977 0C25.6895 0 30.0781 4.40234 30.0508 10.5ZM17.459 10.0215C17.3359 10.1582 17.1445 10.3633 16.9531 10.623C17.5273 10.541 18.0605 10.7598 18.5527 11.2246C19.5098 12.1133 19.4961 13.4258 18.5527 14.3828L15.9004 17.0352C14.9707 17.9648 13.6719 17.9512 12.7422 17.0352C11.7988 16.1055 11.8125 14.8066 12.7422 13.877L13.9043 12.7148C13.7266 12.0723 13.7539 11.375 14.041 10.623L11.7031 12.9473C10.2129 14.4375 10.2129 16.5703 11.7031 18.0605C13.207 19.5508 15.3262 19.5508 16.8301 18.0605L19.5918 15.3125C21.0957 13.8223 21.123 11.6621 19.5918 10.1855C19.1133 9.7207 18.5801 9.43359 18.1699 9.32422ZM18.252 6.39844L15.4902 9.16016C14 10.6504 13.9863 12.8105 15.5039 14.2871C15.9961 14.752 16.543 15.0391 16.9258 15.1484L17.6367 14.4512C17.8691 14.1777 17.9102 14.1094 18.0332 13.9043C17.5137 13.9043 16.9941 13.6855 16.5293 13.248C15.5723 12.3594 15.5996 11.0332 16.543 10.0898L19.1816 7.45117C20.125 6.50781 21.4102 6.52148 22.3398 7.4375C23.2832 8.36719 23.2695 9.67969 22.3398 10.5957L21.1777 11.7441C21.3555 12.4004 21.3281 13.0977 21.041 13.8496L23.3789 11.5117C24.8691 10.0215 24.8555 7.88867 23.3789 6.41211C21.875 4.9082 19.7559 4.9082 18.252 6.39844Z" fill="white" fill-opacity="0.85"/>
 </g>
</svg>
