<svg version="1.1" xmlns="http://www.w3.org/2000/svg" xmlns:xlink="http://www.w3.org/1999/xlink" viewBox="0 0 28.2461 27.9043">
 <g>
  
  <path d="M13.9453 27.8906C21.6426 27.8906 27.8906 21.6426 27.8906 13.9453C27.8906 6.24805 21.6426 0 13.9453 0C6.24805 0 0 6.24805 0 13.9453C0 21.6426 6.24805 27.8906 13.9453 27.8906ZM13.9453 25.5664C7.51953 25.5664 2.32422 20.3711 2.32422 13.9453C2.32422 7.51953 7.51953 2.32422 13.9453 2.32422C20.3711 2.32422 25.5664 7.51953 25.5664 13.9453C25.5664 20.3711 20.3711 25.5664 13.9453 25.5664Z" style="fill:var(--color-0,#007aff)"></path>
  <path d="M7.25977 20.3848C8.96875 22.0801 11.1016 21.9434 13.084 19.9473L15.1348 17.9102C17.1582 15.9004 17.3223 13.7539 15.5859 12.0312C15.1211 11.5527 14.5879 11.2246 14.2051 11.1562C13.8223 11.4297 13.3574 11.9355 13.1387 12.4141C13.7676 12.5098 14.2461 12.7285 14.5742 13.043C15.6406 14.123 15.4766 15.5449 14.082 16.9258L12.0996 18.9082C10.7598 20.248 9.35156 20.3984 8.27148 19.3457C7.20508 18.2793 7.32812 16.8574 8.70898 15.5176L10.1172 14.1094C9.89844 13.5898 9.88477 12.7969 10.1035 12.127L7.66992 14.5332C5.6875 16.5293 5.52344 18.6621 7.25977 20.3848ZM20.1387 7.46484C18.4297 5.76953 16.2969 5.90625 14.3145 7.90234L12.2637 9.92578C10.2402 11.9492 10.0762 14.082 11.8125 15.8047C12.2773 16.2969 12.8105 16.6113 13.1934 16.6934C13.5762 16.4062 14.041 15.9004 14.2598 15.4355C13.6309 15.3398 13.1523 15.1211 12.8242 14.793C11.7578 13.7266 11.9219 12.291 13.3164 10.9238L15.2988 8.94141C16.6387 7.60156 18.0469 7.45117 19.127 8.50391C20.1934 9.57031 20.0703 10.9922 18.6895 12.332L17.2812 13.7266C17.5 14.2598 17.5137 15.0391 17.2949 15.7227L19.7285 13.3027C21.7109 11.3203 21.875 9.1875 20.1387 7.46484Z" style="fill:var(--color-1,#007aff)"></path>
 </g>
</svg>