<svg version="1.1" xmlns="http://www.w3.org/2000/svg" xmlns:xlink="http://www.w3.org/1999/xlink" viewBox="0 0 28.2461 27.9043">
 <g>
  
  <path d="M13.9453 27.9043C21.6426 27.9043 27.8906 21.6562 27.8906 13.959C27.8906 6.27539 21.6426 0.0136719 13.9453 0.0136719C6.26172 0.0136719 0 6.27539 0 13.959C0 21.6562 6.26172 27.9043 13.9453 27.9043Z" style="fill:var(--color-0,#007aff)"></path>
  <path d="M7.06836 20.6035C5.27734 18.8262 5.44141 16.625 7.47852 14.5742L9.99414 12.0859C9.77539 12.7969 9.78906 13.6035 10.0215 14.1504L8.57227 15.5723C7.15039 16.9668 7 18.4297 8.12109 19.5234C9.22852 20.6172 10.6777 20.4531 12.0723 19.0723L14.0957 17.0352C15.5312 15.627 15.709 14.1504 14.6152 13.043C14.2734 12.7148 13.7812 12.4824 13.1387 12.4004C13.3574 11.9082 13.8359 11.375 14.2324 11.1016C14.6289 11.1699 15.1895 11.498 15.6543 12.0039C17.459 13.7812 17.2812 15.9824 15.1895 18.0742L13.084 20.1523C11.0332 22.2168 8.81836 22.3535 7.06836 20.6035ZM20.3574 7.27344C22.1484 9.05078 21.9844 11.252 19.9336 13.3164L17.4316 15.791C17.6504 15.0938 17.6367 14.2734 17.4043 13.7402L18.8535 12.3047C20.2754 10.9102 20.4121 9.44727 19.3047 8.35352C18.1973 7.25977 16.748 7.42383 15.3535 8.80469L13.3301 10.8418C11.8809 12.2637 11.7168 13.7266 12.8105 14.8477C13.1523 15.1621 13.6445 15.3945 14.2871 15.4902C14.0684 15.9824 13.5762 16.5156 13.1797 16.7891C12.7969 16.7207 12.2363 16.3789 11.7715 15.8867C9.9668 14.1094 10.1445 11.8945 12.2363 9.81641L14.3281 7.72461C16.3926 5.66016 18.5938 5.52344 20.3574 7.27344Z" style="fill:var(--color-1,white)"></path>
 </g>
</svg>