<?xml version="1.0" encoding="UTF-8"?>
<!--Generator: Apple Native CoreSVG 326-->
<!DOCTYPE svg
PUBLIC "-//W3C//DTD SVG 1.1//EN"
       "http://www.w3.org/Graphics/SVG/1.1/DTD/svg11.dtd">
<svg version="1.1" xmlns="http://www.w3.org/2000/svg" xmlns:xlink="http://www.w3.org/1999/xlink" viewBox="0 0 25.5254 25.1699">
 <g>
  <rect height="25.1699" opacity="0" width="25.5254" x="0" y="0"/>
  <path d="M4.29297 25.1699L20.877 25.1699C23.748 25.1699 25.1699 23.7617 25.1699 20.9453L25.1699 4.23828C25.1699 1.42188 23.748 0 20.877 0L4.29297 0C1.43555 0 0 1.42188 0 4.23828L0 20.9453C0 23.7617 1.43555 25.1699 4.29297 25.1699Z" fill="white" fill-opacity="0.85"/>
  <path d="M8.32617 18.6895C7.94336 18.6895 7.60156 18.4434 7.60156 17.9512C7.60156 17.5137 7.86133 17.2949 8.25781 17.1445C9.11914 16.8711 9.93945 16.0918 10.1172 14.9023C10.1582 14.7109 10.1855 14.4922 10.1719 14.3281L8.13477 14.3281C7.82031 14.3281 7.58789 14.0957 7.58789 13.7949C7.58789 13.4805 7.82031 13.2617 8.13477 13.2617L10.0488 13.2617C9.91211 12.7285 9.73438 12.2227 9.59766 11.6348L8.13477 11.6348C7.82031 11.6348 7.58789 11.416 7.58789 11.1016C7.58789 10.8008 7.82031 10.582 8.13477 10.582L9.43359 10.582C9.41992 10.4316 9.41992 10.2949 9.41992 10.1445C9.41992 7.60156 11.2656 6.16602 13.9453 6.16602C14.6699 6.16602 15.5312 6.20703 16.2559 6.50781C16.5977 6.6582 16.8438 6.86328 16.8438 7.24609C16.8438 7.57422 16.6934 7.84766 16.2148 7.84766C16.0781 7.84766 15.8867 7.82031 15.6816 7.76562C15.2852 7.68359 14.6562 7.57422 14.123 7.57422C12.4414 7.57422 11.1016 8.43555 11.1016 10.1035C11.1016 10.2676 11.1016 10.4316 11.1289 10.582L15.2852 10.582C15.5996 10.582 15.8457 10.8008 15.8457 11.1016C15.8457 11.416 15.5996 11.6348 15.2852 11.6348L11.3066 11.6348C11.4297 12.168 11.6211 12.6875 11.7305 13.2617L15.2852 13.2617C15.5996 13.2617 15.8457 13.4805 15.8457 13.7949C15.8457 14.0957 15.5996 14.3281 15.2852 14.3281L11.8125 14.3281C11.8125 14.4785 11.7988 14.6152 11.7852 14.752C11.6621 15.873 11.1289 16.8711 10.1582 17.2402L10.1582 17.3086L16.7344 17.3086C17.1445 17.3086 17.4453 17.5957 17.4453 17.9785C17.4453 18.3887 17.1445 18.6895 16.7344 18.6895Z" fill="white"/>
 </g>
</svg>
