<svg version="1.1" xmlns="http://www.w3.org/2000/svg" xmlns:xlink="http://www.w3.org/1999/xlink" viewBox="0 0 30.9258 30.584">
 <g>
  
  <path d="M15.2852 30.5703C23.6797 30.5703 30.5703 23.6797 30.5703 15.2852C30.5703 6.89062 23.6797 0 15.2852 0C6.89062 0 0 6.89062 0 15.2852C0 23.6797 6.89062 30.5703 15.2852 30.5703ZM15.2852 25.4844C9.65234 25.4844 5.08594 20.918 5.08594 15.2852C5.08594 9.63867 9.65234 5.08594 15.2852 5.08594C20.9316 5.08594 25.4844 9.63867 25.4844 15.2852C25.4844 20.918 20.9316 25.4844 15.2852 25.4844Z" style="fill:var(--color-0,hsl(0 0 0/0.85))"></path>
  <path d="M11.1426 21.2051L19.291 21.2051C19.6875 21.2051 19.9883 20.918 19.9883 20.5352C19.9883 20.1523 19.6875 19.8652 19.291 19.8652L12.9199 19.8652L12.9199 19.7969C13.8633 19.4414 14.3828 18.4707 14.4922 17.3906C14.5059 17.2539 14.5195 17.1172 14.5195 16.9805L17.8965 16.9805C18.1973 16.9805 18.4297 16.748 18.4297 16.4609C18.4297 16.1602 18.1973 15.9414 17.8965 15.9414L14.4238 15.9414C14.3418 15.3809 14.1504 14.8887 14.0273 14.3691L17.8965 14.3691C18.1973 14.3691 18.4297 14.1504 18.4297 13.8496C18.4297 13.5625 18.1973 13.3438 17.8965 13.3438L13.8633 13.3438C13.8359 13.207 13.8359 13.043 13.8359 12.8789C13.8359 11.2656 15.1348 10.4316 16.7617 10.4316C17.2812 10.4316 17.8965 10.5273 18.2793 10.6094C18.4707 10.6641 18.6621 10.6914 18.7988 10.6914C19.2363 10.6914 19.4004 10.4316 19.4004 10.1172C19.4004 9.74805 19.168 9.54297 18.8262 9.39258C18.1289 9.10547 17.2949 9.06445 16.5977 9.06445C14 9.06445 12.209 10.459 12.209 12.9199C12.209 13.0703 12.209 13.207 12.2227 13.3438L10.9648 13.3438C10.6641 13.3438 10.4316 13.5625 10.4316 13.8496C10.4316 14.1504 10.6641 14.3691 10.9648 14.3691L12.3867 14.3691C12.5098 14.9297 12.6875 15.4219 12.8242 15.9414L10.9648 15.9414C10.6641 15.9414 10.4316 16.1602 10.4316 16.4609C10.4316 16.748 10.6641 16.9805 10.9648 16.9805L12.9336 16.9805C12.9473 17.1309 12.9199 17.3496 12.8926 17.5273C12.7148 18.6895 11.9219 19.4414 11.0742 19.7148C10.6914 19.8516 10.4453 20.0703 10.4453 20.4941C10.4453 20.959 10.7734 21.2051 11.1426 21.2051Z" style="fill:var(--color-1,hsl(0 0 0/0.85))"></path>
 </g>
</svg>