<svg version="1.1" xmlns="http://www.w3.org/2000/svg" xmlns:xlink="http://www.w3.org/1999/xlink" viewBox="0 0 30.8848 29.1895">
 <g>
  
  <path d="M1.81836 27.5898L28.7109 27.5898L28.7109 25.9766C28.7109 25.4297 28.3965 25.1016 27.8359 25.1016L26.9609 25.1016L26.9609 9.37891L28.1641 9.37891C28.916 9.37891 29.3535 8.83203 29.3535 8.27148C29.3535 7.86133 29.1211 7.50586 28.6152 7.21875L16.9395 0.478516C16.3926 0.164062 15.8184 0 15.2578 0C14.6973 0 14.1094 0.164062 13.5898 0.478516L1.91406 7.21875C1.39453 7.50586 1.17578 7.86133 1.17578 8.27148C1.17578 8.83203 1.61328 9.37891 2.36523 9.37891L3.56836 9.37891L3.56836 25.1016L2.70703 25.1016C2.14648 25.1016 1.81836 25.4297 1.81836 25.9766ZM1.09375 29.1758L29.4219 29.1758C30.0234 29.1758 30.5293 28.6699 30.5293 28.0684C30.5293 27.4668 30.0234 26.9746 29.4219 26.9746L1.09375 26.9746C0.492188 26.9746 0 27.4668 0 28.0684C0 28.6699 0.492188 29.1758 1.09375 29.1758Z" style="fill:var(--color-0,hsl(0 0 0/0.85))"></path>
  <path d="M11.0059 21.7109C10.623 21.7109 10.2812 21.4785 10.2812 20.9863C10.2812 20.5488 10.541 20.3301 10.9375 20.1797C11.7988 19.9062 12.6191 19.127 12.7969 17.9238C12.8379 17.7324 12.8516 17.5137 12.8516 17.3496L10.8008 17.3496C10.5 17.3496 10.2676 17.1309 10.2676 16.8301C10.2676 16.5156 10.5 16.2969 10.8008 16.2969L12.7148 16.2969C12.5918 15.7637 12.4141 15.2578 12.2637 14.6699L10.8008 14.6699C10.5 14.6699 10.2676 14.4375 10.2676 14.1367C10.2676 13.8223 10.5 13.6172 10.8008 13.6172L12.1133 13.6172C12.0996 13.4531 12.0996 13.3164 12.0996 13.1797C12.0996 10.6367 13.9453 9.20117 16.625 9.20117C17.3496 9.20117 18.2109 9.24219 18.9355 9.54297C19.2773 9.69336 19.5234 9.89844 19.5234 10.2812C19.5234 10.5957 19.3594 10.8828 18.8945 10.8828C18.7578 10.8828 18.5527 10.8555 18.3613 10.8008C17.9648 10.7051 17.3359 10.5957 16.8027 10.5957C15.1211 10.5957 13.7812 11.457 13.7812 13.1387C13.7812 13.3027 13.7812 13.4531 13.8086 13.6172L17.9648 13.6172C18.2793 13.6172 18.5254 13.8223 18.5254 14.1367C18.5254 14.4375 18.2793 14.6699 17.9648 14.6699L13.9863 14.6699C14.1094 15.2031 14.2871 15.7227 14.3965 16.2969L17.9648 16.2969C18.2793 16.2969 18.5254 16.5156 18.5254 16.8301C18.5254 17.1309 18.2793 17.3496 17.9648 17.3496L14.4922 17.3496C14.4922 17.5137 14.4785 17.6504 14.4648 17.7871C14.3418 18.9082 13.8086 19.9062 12.8379 20.2754L12.8379 20.3301L19.4141 20.3301C19.8242 20.3301 20.1113 20.6172 20.1113 21.0137C20.1113 21.4102 19.8242 21.7109 19.4141 21.7109Z" style="fill:var(--color-1,white)"></path>
 </g>
</svg>