<?xml version="1.0" encoding="UTF-8"?>
<!--Generator: Apple Native CoreSVG 326-->
<!DOCTYPE svg
PUBLIC "-//W3C//DTD SVG 1.1//EN"
       "http://www.w3.org/Graphics/SVG/1.1/DTD/svg11.dtd">
<svg version="1.1" xmlns="http://www.w3.org/2000/svg" xmlns:xlink="http://www.w3.org/1999/xlink" viewBox="0 0 33.291 27.4395">
 <g>
  <rect height="27.4395" opacity="0" width="33.291" x="0" y="0"/>
  <path d="M32.9355 16.4609C32.9355 12.4414 31.4863 8.73633 29.0664 5.86523C28.793 5.53711 28.3281 5.53711 28.0273 5.85156L24.8555 9.02344C24.5957 9.2832 24.582 9.65234 24.8145 9.93945C26.2227 11.7441 27.0703 14.0137 27.0703 16.4609C27.0703 18.9219 26.2227 21.1914 24.7324 23.0918C24.541 23.3242 24.5547 23.625 24.7598 23.8438L28.0137 27.0977C28.3281 27.4121 28.7793 27.4121 29.0664 27.0703C31.4863 24.1992 32.9355 20.4941 32.9355 16.4609Z" fill="white" fill-opacity="0.85"/>
  <path d="M16.4609 5.86523C18.9355 5.86523 21.2051 6.72656 23.0234 8.13477C23.2969 8.35352 23.6523 8.32617 23.9121 8.06641L27.084 4.89453C27.3984 4.58008 27.3848 4.12891 27.0566 3.85547C24.1992 1.44922 20.4941 0 16.4609 0C12.4414 0 8.73633 1.44922 5.87891 3.85547C5.55078 4.12891 5.53711 4.58008 5.85156 4.89453L9.02344 8.06641C9.2832 8.32617 9.65234 8.35352 9.95312 8.12109C11.7578 6.72656 14.0137 5.86523 16.4609 5.86523Z" fill="white" fill-opacity="0.85"/>
  <path d="M0 16.4609C0 20.4941 1.44922 24.1992 3.86914 27.0703C4.14258 27.4121 4.60742 27.4121 4.9082 27.0977L8.16211 23.8438C8.36719 23.625 8.39453 23.3242 8.20312 23.0918C6.71289 21.1914 5.86523 18.9219 5.86523 16.4609C5.86523 14.0137 6.69922 11.7441 8.12109 9.93945C8.33984 9.65234 8.33984 9.2832 8.08008 9.02344L4.9082 5.85156C4.59375 5.53711 4.14258 5.53711 3.86914 5.86523C1.44922 8.73633 0 12.4414 0 16.4609Z" fill="white" fill-opacity="0.85"/>
  <path d="M12.3047 22.5586L20.4668 22.5586C20.8633 22.5586 21.1504 22.2715 21.1504 21.8887C21.1504 21.5059 20.8633 21.2188 20.4668 21.2188L14.082 21.2188L14.082 21.1504C15.0254 20.7949 15.5586 19.8379 15.668 18.7441C15.6816 18.6074 15.6816 18.4844 15.6816 18.334L19.0723 18.334C19.3594 18.334 19.5918 18.1152 19.5918 17.8145C19.5918 17.5273 19.3594 17.3086 19.0723 17.3086L15.5996 17.3086C15.5039 16.748 15.3125 16.2559 15.1895 15.7227L19.0723 15.7227C19.3594 15.7227 19.5918 15.5039 19.5918 15.2168C19.5918 14.916 19.3594 14.6973 19.0723 14.6973L15.0254 14.6973C14.998 14.5605 14.998 14.3965 14.998 14.2461C14.998 12.6191 16.2969 11.7852 17.9238 11.7852C18.4434 11.7852 19.0586 11.8809 19.4551 11.9629C19.6328 12.0176 19.8242 12.0586 19.9609 12.0586C20.4121 12.0586 20.5625 11.7852 20.5625 11.4844C20.5625 11.1152 20.3301 10.8965 19.9883 10.7598C19.291 10.459 18.457 10.4316 17.7734 10.4316C15.1621 10.4316 13.3711 11.8125 13.3711 14.2734C13.3711 14.4238 13.3711 14.5605 13.3848 14.6973L12.127 14.6973C11.8262 14.6973 11.5938 14.916 11.5938 15.2168C11.5938 15.5039 11.8262 15.7227 12.127 15.7227L13.5488 15.7227C13.6719 16.2832 13.8633 16.7754 13.9863 17.3086L12.127 17.3086C11.8262 17.3086 11.5938 17.5273 11.5938 17.8145C11.5938 18.1152 11.8262 18.334 12.127 18.334L14.0957 18.334C14.1094 18.4844 14.082 18.7031 14.0547 18.8809C13.877 20.0566 13.084 20.7949 12.2363 21.082C11.8535 21.2051 11.6074 21.4238 11.6074 21.8613C11.6074 22.3125 11.9355 22.5586 12.3047 22.5586Z" fill="white" fill-opacity="0.85"/>
 </g>
</svg>
