<svg version="1.1" xmlns="http://www.w3.org/2000/svg" xmlns:xlink="http://www.w3.org/1999/xlink" viewBox="0 0 30.8848 29.1895">
 <g>
  
  <path d="M1.81836 25.9219L28.7109 25.9219L28.7109 25.0059C28.7109 24.459 28.3965 24.1309 27.8359 24.1309L26.9609 24.1309L26.9609 9.37891L28.1641 9.37891C28.916 9.37891 29.3535 8.83203 29.3535 8.27148C29.3535 7.86133 29.1211 7.50586 28.6152 7.21875L16.9395 0.478516C16.3926 0.164062 15.8184 0 15.2578 0C14.6973 0 14.1094 0.164062 13.5898 0.478516L1.91406 7.21875C1.39453 7.50586 1.17578 7.86133 1.17578 8.27148C1.17578 8.83203 1.61328 9.37891 2.36523 9.37891L3.56836 9.37891L3.56836 24.1309L2.70703 24.1309C2.14648 24.1309 1.81836 24.459 1.81836 25.0059ZM5.63281 24.1309L5.63281 7.62891L14.7246 2.5293C14.8887 2.43359 15.0801 2.37891 15.2578 2.37891C15.4355 2.37891 15.627 2.43359 15.8047 2.5293L24.8965 7.62891L24.8965 24.1309ZM1.09375 29.1758L29.4219 29.1758C30.0234 29.1758 30.5293 28.6699 30.5293 28.0684C30.5293 27.4668 30.0234 26.9746 29.4219 26.9746L1.09375 26.9746C0.492188 26.9746 0 27.4668 0 28.0684C0 28.6699 0.492188 29.1758 1.09375 29.1758Z" style="fill:var(--color-0,hsl(0 0 0/0.85))"></path>
  <path d="M11.1289 20.3027L19.2773 20.3027C19.6738 20.3027 19.9609 20.0156 19.9609 19.6328C19.9609 19.25 19.6738 18.9629 19.2773 18.9629L12.9062 18.9629L12.9062 18.8945C13.8496 18.5391 14.3691 17.582 14.4785 16.4883C14.4922 16.3516 14.5059 16.2285 14.5059 16.0781L17.8828 16.0781C18.1836 16.0781 18.416 15.8594 18.416 15.5586C18.416 15.2715 18.1836 15.0527 17.8828 15.0527L14.4102 15.0527C14.3145 14.4922 14.1367 14 14.0137 13.4668L17.8828 13.4668C18.1836 13.4668 18.416 13.248 18.416 12.9609C18.416 12.6602 18.1836 12.4414 17.8828 12.4414L13.8496 12.4414C13.8223 12.3047 13.8223 12.1406 13.8223 11.9902C13.8223 10.3633 15.1211 9.5293 16.748 9.5293C17.2676 9.5293 17.8828 9.625 18.2656 9.70703C18.4434 9.76172 18.6484 9.80273 18.7852 9.80273C19.2227 9.80273 19.3867 9.5293 19.3867 9.22852C19.3867 8.85938 19.1543 8.64062 18.8125 8.50391C18.1152 8.20312 17.2812 8.16211 16.584 8.16211C13.9863 8.16211 12.1953 9.55664 12.1953 12.0176C12.1953 12.168 12.1953 12.3047 12.209 12.4414L10.9375 12.4414C10.6504 12.4414 10.418 12.6602 10.418 12.9609C10.418 13.248 10.6504 13.4668 10.9375 13.4668L12.3594 13.4668C12.4961 14.0273 12.6738 14.5195 12.7969 15.0527L10.9375 15.0527C10.6504 15.0527 10.418 15.2715 10.418 15.5586C10.418 15.8594 10.6504 16.0781 10.9375 16.0781L12.9199 16.0781C12.9199 16.2285 12.9062 16.4473 12.8789 16.625C12.7012 17.8008 11.9082 18.5391 11.0605 18.8262C10.6777 18.9492 10.4316 19.168 10.4316 19.6055C10.4316 20.0566 10.7598 20.3027 11.1289 20.3027Z" style="fill:var(--color-1,hsl(0 0 0/0.85))"></path>
 </g>
</svg>