<svg version="1.1" xmlns="http://www.w3.org/2000/svg" xmlns:xlink="http://www.w3.org/1999/xlink" viewBox="0 0 28.2461 27.9043">
 <g>
  
  <path d="M13.9453 27.8906C21.6426 27.8906 27.8906 21.6426 27.8906 13.9453C27.8906 6.24805 21.6426 0 13.9453 0C6.24805 0 0 6.24805 0 13.9453C0 21.6426 6.24805 27.8906 13.9453 27.8906ZM13.9453 25.5664C7.51953 25.5664 2.32422 20.3711 2.32422 13.9453C2.32422 7.51953 7.51953 2.32422 13.9453 2.32422C20.3711 2.32422 25.5664 7.51953 25.5664 13.9453C25.5664 20.3711 20.3711 25.5664 13.9453 25.5664Z" style="fill:var(--color-0,hsl(0 0 0/0.85))"></path>
  <path d="M10.6094 10.2539L20.8633 10.2539C21.3281 10.2539 21.6973 9.89844 21.6973 9.43359C21.6973 8.95508 21.3281 8.59961 20.8633 8.59961L10.6094 8.59961C10.1445 8.59961 9.78906 8.96875 9.78906 9.43359C9.78906 9.88477 10.1582 10.2539 10.6094 10.2539ZM10.6094 19.3047L20.8633 19.3047C21.3281 19.3047 21.6973 18.9492 21.6973 18.4844C21.6973 18.0059 21.3281 17.6504 20.8633 17.6504L10.6094 17.6504C10.1582 17.6504 9.78906 18.0332 9.78906 18.4844C9.78906 18.9492 10.1445 19.3047 10.6094 19.3047ZM10.6094 14.7793L20.8633 14.7793C21.3281 14.7793 21.6973 14.4238 21.6973 13.959C21.6973 13.4805 21.3281 13.125 20.8633 13.125L10.6094 13.125C10.1582 13.125 9.78906 13.5078 9.78906 13.959C9.78906 14.4102 10.1582 14.7793 10.6094 14.7793ZM7.31445 10.6094C7.95703 10.6094 8.49023 10.0625 8.49023 9.43359C8.49023 8.77734 7.9707 8.25781 7.31445 8.25781C6.6582 8.25781 6.13867 8.77734 6.13867 9.43359C6.13867 10.0762 6.6582 10.6094 7.31445 10.6094ZM7.31445 15.1348C7.95703 15.1348 8.49023 14.5879 8.49023 13.959C8.49023 13.3164 7.95703 12.7832 7.31445 12.7832C6.6582 12.7832 6.13867 13.3027 6.13867 13.959C6.13867 14.6016 6.6582 15.1348 7.31445 15.1348ZM7.31445 19.6602C7.9707 19.6602 8.49023 19.127 8.49023 18.4844C8.49023 17.8418 7.95703 17.3086 7.31445 17.3086C6.6582 17.3086 6.13867 17.8281 6.13867 18.4844C6.13867 19.127 6.6582 19.6602 7.31445 19.6602Z" style="fill:var(--color-1,hsl(0 0 0/0.85))"></path>
 </g>
</svg>