<?xml version="1.0" encoding="UTF-8"?>
<!--Generator: Apple Native CoreSVG 326-->
<!DOCTYPE svg
PUBLIC "-//W3C//DTD SVG 1.1//EN"
       "http://www.w3.org/Graphics/SVG/1.1/DTD/svg11.dtd">
<svg version="1.1" xmlns="http://www.w3.org/2000/svg" xmlns:xlink="http://www.w3.org/1999/xlink" viewBox="0 0 23.3516 29.3262">
 <g>
  <rect height="29.3262" opacity="0" width="23.3516" x="0" y="0"/>
  <path d="M22.9961 4.29297L22.9961 25.0332C22.9961 27.8906 21.5879 29.3125 18.7578 29.3125L4.23828 29.3125C1.4082 29.3125 0 27.8906 0 25.0332L0 4.29297C0 1.44922 1.4082 0 4.23828 0L18.7578 0C21.5879 0 22.9961 1.44922 22.9961 4.29297ZM4.06055 14.916C4.06055 15.6133 4.66211 16.2285 5.37305 16.2285C6.09766 16.2285 6.68555 15.627 6.68555 14.916C6.68555 14.1777 6.09766 13.6035 5.37305 13.6035C4.66211 13.6035 4.06055 14.1914 4.06055 14.916ZM9.35156 14.0273C8.8457 14.0273 8.46289 14.4238 8.46289 14.916C8.46289 15.3945 8.85938 15.791 9.35156 15.791L18.0605 15.791C18.5391 15.791 18.9355 15.3945 18.9355 14.916C18.9355 14.4238 18.5527 14.0273 18.0605 14.0273ZM4.06055 10.4043C4.06055 11.1152 4.64844 11.7168 5.37305 11.7168C6.09766 11.7168 6.68555 11.1152 6.68555 10.4043C6.68555 9.66602 6.09766 9.10547 5.37305 9.10547C4.64844 9.10547 4.06055 9.67969 4.06055 10.4043ZM9.35156 9.51562C8.8457 9.51562 8.46289 9.89844 8.46289 10.4043C8.46289 10.8965 8.8457 11.2793 9.35156 11.2793L18.0605 11.2793C18.5527 11.2793 18.9355 10.8965 18.9355 10.4043C18.9355 9.89844 18.5527 9.51562 18.0605 9.51562ZM4.06055 6.08398C4.06055 6.80859 4.66211 7.39648 5.37305 7.39648C6.09766 7.39648 6.68555 6.82227 6.68555 6.08398C6.68555 5.37305 6.09766 4.77148 5.37305 4.77148C4.66211 4.77148 4.06055 5.38672 4.06055 6.08398ZM9.35156 5.20898C8.85938 5.20898 8.46289 5.60547 8.46289 6.08398C8.46289 6.58984 8.85938 6.98633 9.35156 6.98633L18.0605 6.98633C18.5391 6.98633 18.9355 6.58984 18.9355 6.08398C18.9355 5.60547 18.5391 5.20898 18.0605 5.20898Z" fill="white" fill-opacity="0.85"/>
 </g>
</svg>
