<svg version="1.1" xmlns="http://www.w3.org/2000/svg" xmlns:xlink="http://www.w3.org/1999/xlink" viewBox="0 0 26.5234 25.5527">
 <g>
  
  <path d="M3.22656 18.7168C3.22656 17.9102 2.57031 17.2402 1.73633 17.2402C0.929688 17.2402 0.273438 17.9102 0.273438 18.7168C0.273438 19.5371 0.929688 20.1797 1.73633 20.1797C2.57031 20.1797 3.22656 19.5371 3.22656 18.7168ZM3.22656 24.0762C3.22656 23.2695 2.57031 22.5859 1.73633 22.5859C0.929688 22.5859 0.273438 23.2695 0.273438 24.0762C0.273438 24.8965 0.929688 25.5527 1.73633 25.5527C2.57031 25.5527 3.22656 24.8965 3.22656 24.0762ZM25.6758 18.7168C25.6758 18.1152 25.1836 17.6641 24.5137 17.6641L6.11133 17.6641C5.44141 17.6641 4.94922 18.1152 4.94922 18.7168C4.94922 19.3184 5.44141 19.7832 6.11133 19.7832L24.5137 19.7832C25.1836 19.7832 25.6758 19.3184 25.6758 18.7168ZM25.6758 24.0762C25.6758 23.4746 25.1836 23.0234 24.5137 23.0234L6.11133 23.0234C5.44141 23.0234 4.94922 23.4746 4.94922 24.0762C4.94922 24.6777 5.44141 25.1426 6.11133 25.1426L24.5137 25.1426C25.1836 25.1426 25.6758 24.6777 25.6758 24.0762ZM3.78711 0.328125C0.998047 0.328125 0 1.54492 0 4.19727L0 10.5547C0 13.207 0.998047 14.4238 3.78711 14.4238L22.3809 14.4238C25.1699 14.4238 26.168 13.207 26.168 10.5547L26.168 4.19727C26.168 1.54492 25.1699 0.328125 22.3809 0.328125ZM2.20117 10.623L2.20117 4.12891C2.20117 2.91211 2.59766 2.37891 3.80078 2.37891L22.3672 2.37891C23.5703 2.37891 23.9668 2.91211 23.9668 4.12891L23.9668 10.623C23.9668 11.8398 23.5703 12.373 22.3672 12.373L3.80078 12.373C2.59766 12.373 2.20117 11.8398 2.20117 10.623Z" style="fill:var(--color-0,hsl(0 0 0/0.85))"></path>
 </g>
</svg>