<?xml version="1.0" encoding="UTF-8"?>
<!--Generator: Apple Native CoreSVG 326-->
<!DOCTYPE svg
PUBLIC "-//W3C//DTD SVG 1.1//EN"
       "http://www.w3.org/Graphics/SVG/1.1/DTD/svg11.dtd">
<svg version="1.1" xmlns="http://www.w3.org/2000/svg" xmlns:xlink="http://www.w3.org/1999/xlink" viewBox="0 0 28.2461 27.9043">
 <g>
  <rect height="27.9043" opacity="0" width="28.2461" x="0" y="0"/>
  <path d="M13.9453 27.8906C21.6426 27.8906 27.8906 21.6289 27.8906 13.9453C27.8906 6.24805 21.6426 0 13.9453 0C6.26172 0 0 6.24805 0 13.9453C0 21.6289 6.26172 27.8906 13.9453 27.8906Z" fill="white" fill-opacity="0.85"/>
  <path d="M10.5137 10.1582C10.0488 10.1582 9.66602 9.76172 9.66602 9.29688C9.66602 8.81836 10.0215 8.44922 10.5137 8.44922L21.0684 8.44922C21.5605 8.44922 21.9434 8.81836 21.9434 9.29688C21.9434 9.77539 21.5605 10.1582 21.0684 10.1582ZM10.5137 19.4824C10.0215 19.4824 9.66602 19.0996 9.66602 18.6211C9.66602 18.1562 10.0488 17.7734 10.5137 17.7734L21.0684 17.7734C21.5605 17.7734 21.9434 18.1426 21.9434 18.6211C21.9434 19.0996 21.5605 19.4824 21.0684 19.4824ZM10.5137 14.8203C10.0488 14.8203 9.66602 14.4238 9.66602 13.959C9.66602 13.4941 10.0488 13.1113 10.5137 13.1113L21.0684 13.1113C21.5605 13.1113 21.9434 13.4805 21.9434 13.959C21.9434 14.4375 21.5605 14.8203 21.0684 14.8203ZM7.10938 10.5137C6.43945 10.5137 5.90625 9.9668 5.90625 9.29688C5.90625 8.61328 6.43945 8.08008 7.10938 8.08008C7.79297 8.08008 8.32617 8.61328 8.32617 9.29688C8.32617 9.95312 7.7793 10.5137 7.10938 10.5137ZM7.10938 15.1758C6.43945 15.1758 5.90625 14.6426 5.90625 13.959C5.90625 13.2754 6.43945 12.7422 7.10938 12.7422C7.7793 12.7422 8.32617 13.2891 8.32617 13.959C8.32617 14.6289 7.7793 15.1758 7.10938 15.1758ZM7.10938 19.8379C6.43945 19.8379 5.90625 19.3047 5.90625 18.6211C5.90625 17.9512 6.43945 17.4043 7.10938 17.4043C7.7793 17.4043 8.32617 17.9648 8.32617 18.6211C8.32617 19.3047 7.79297 19.8379 7.10938 19.8379Z" fill="white"/>
 </g>
</svg>
