<?xml version="1.0" encoding="UTF-8"?>
<!--Generator: Apple Native CoreSVG 326-->
<!DOCTYPE svg
PUBLIC "-//W3C//DTD SVG 1.1//EN"
       "http://www.w3.org/Graphics/SVG/1.1/DTD/svg11.dtd">
<svg version="1.1" xmlns="http://www.w3.org/2000/svg" xmlns:xlink="http://www.w3.org/1999/xlink" viewBox="0 0 34.7266 19.9746">
 <g>
  <rect height="19.9746" opacity="0" width="34.7266" x="0" y="0"/>
  <path d="M14.5879 19.3594L33.2637 19.3594C33.8789 19.3594 34.3711 18.8809 34.3711 18.252C34.3711 17.6367 33.8789 17.1582 33.2637 17.1582L14.5879 17.1582C13.9727 17.1582 13.4941 17.6367 13.4941 18.252C13.4941 18.8809 13.9727 19.3594 14.5879 19.3594Z" fill="white" fill-opacity="0.55"/>
  <path d="M8.54492 19.9746C9.50195 19.9746 10.2676 19.209 10.2676 18.252C10.2676 17.3086 9.50195 16.543 8.54492 16.543C7.60156 16.543 6.82227 17.3086 6.82227 18.252C6.82227 19.209 7.60156 19.9746 8.54492 19.9746Z" fill="white" fill-opacity="0.85"/>
  <path d="M11.1699 11.0879L29.8457 11.0879C30.4609 11.0879 30.9531 10.6094 30.9531 9.99414C30.9531 9.37891 30.4609 8.88672 29.8457 8.88672L11.1699 8.88672C10.5547 8.88672 10.0762 9.37891 10.0762 9.99414C10.0762 10.6094 10.5547 11.0879 11.1699 11.0879Z" fill="white" fill-opacity="0.55"/>
  <path d="M5.14062 11.7168C6.08398 11.7168 6.86328 10.9512 6.86328 9.99414C6.86328 9.03711 6.08398 8.27148 5.14062 8.27148C4.18359 8.27148 3.41797 9.03711 3.41797 9.99414C3.41797 10.9512 4.18359 11.7168 5.14062 11.7168Z" fill="white" fill-opacity="0.85"/>
  <path d="M7.76562 2.83008L26.4277 2.83008C27.043 2.83008 27.5488 2.35156 27.5488 1.72266C27.5488 1.10742 27.043 0.628906 26.4277 0.628906L7.76562 0.628906C7.13672 0.628906 6.6582 1.10742 6.6582 1.72266C6.6582 2.35156 7.13672 2.83008 7.76562 2.83008Z" fill="white" fill-opacity="0.55"/>
  <path d="M1.72266 3.44531C2.67969 3.44531 3.44531 2.67969 3.44531 1.72266C3.44531 0.779297 2.67969 0 1.72266 0C0.765625 0 0 0.779297 0 1.72266C0 2.67969 0.765625 3.44531 1.72266 3.44531Z" fill="white" fill-opacity="0.85"/>
 </g>
</svg>
