<?xml version="1.0" encoding="UTF-8"?>
<!--Generator: Apple Native CoreSVG 326-->
<!DOCTYPE svg
PUBLIC "-//W3C//DTD SVG 1.1//EN"
       "http://www.w3.org/Graphics/SVG/1.1/DTD/svg11.dtd">
<svg version="1.1" xmlns="http://www.w3.org/2000/svg" xmlns:xlink="http://www.w3.org/1999/xlink" viewBox="0 0 23.3516 37.8848">
 <g>
  <rect height="37.8848" opacity="0" width="23.3516" x="0" y="0"/>
  <path d="M4.40234 5.74219L4.40234 7.17773C4.40234 8.90039 5.60547 10.1172 7.27344 10.1172L15.7227 10.1172C17.3906 10.1172 18.5938 8.90039 18.5938 7.17773L18.5938 5.74219C18.5938 5.62085 18.5879 5.50204 18.575 5.38672L18.7578 5.38672C21.5879 5.38672 22.9961 6.80859 22.9961 9.67969L22.9961 30.4199C22.9961 33.291 21.5879 34.7129 18.7578 34.7129L4.23828 34.7129C1.4082 34.7129 0 33.291 0 30.4199L0 9.67969C0 6.80859 1.4082 5.38672 4.23828 5.38672L4.42111 5.38672C4.40822 5.50204 4.40234 5.62085 4.40234 5.74219ZM5.27734 25.6484C4.78516 25.6484 4.38867 26.0449 4.38867 26.5234C4.38867 27.002 4.79883 27.4121 5.27734 27.4121L11.5391 27.4121C12.0176 27.4121 12.4141 27.002 12.4141 26.5234C12.4141 26.0449 12.0312 25.6484 11.5391 25.6484ZM5.27734 20.3711C4.78516 20.3711 4.38867 20.7539 4.38867 21.2461C4.38867 21.7383 4.78516 22.1348 5.27734 22.1348L17.7188 22.1348C18.2109 22.1348 18.6074 21.7383 18.6074 21.2461C18.6074 20.7539 18.2109 20.3711 17.7188 20.3711ZM5.27734 15.3535C4.79883 15.3535 4.38867 15.7637 4.38867 16.2559C4.38867 16.7344 4.79883 17.1309 5.27734 17.1309L17.7188 17.1309C18.1973 17.1309 18.6074 16.7344 18.6074 16.2559C18.6074 15.7637 18.1973 15.3535 17.7188 15.3535Z" fill="white" fill-opacity="0.85"/>
  <path d="M14.4648 4.38867L15.7227 4.38867C16.5156 4.38867 16.9941 4.89453 16.9941 5.74219L16.9941 7.17773C16.9941 8.02539 16.5156 8.53125 15.7227 8.53125L7.27344 8.53125C6.48047 8.53125 6.00195 8.02539 6.00195 7.17773L6.00195 5.74219C6.00195 4.89453 6.48047 4.38867 7.27344 4.38867L8.53125 4.38867C8.62695 2.84375 9.91211 1.58594 11.498 1.58594C13.084 1.58594 14.3691 2.84375 14.4648 4.38867ZM10.3086 4.49805C10.3086 5.14062 10.8418 5.6875 11.498 5.6875C12.1543 5.6875 12.6875 5.14062 12.6875 4.49805C12.6875 3.82812 12.1543 3.29492 11.498 3.29492C10.8418 3.29492 10.3086 3.82812 10.3086 4.49805Z" fill="white" fill-opacity="0.85"/>
 </g>
</svg>
