<?xml version="1.0" encoding="UTF-8"?>
<!--Generator: Apple Native CoreSVG 326-->
<!DOCTYPE svg
PUBLIC "-//W3C//DTD SVG 1.1//EN"
       "http://www.w3.org/Graphics/SVG/1.1/DTD/svg11.dtd">
<svg version="1.1" xmlns="http://www.w3.org/2000/svg" xmlns:xlink="http://www.w3.org/1999/xlink" viewBox="0 0 23.3516 37.8848">
 <g>
  <rect height="37.8848" opacity="0" width="23.3516" x="0" y="0"/>
  <path d="M22.9961 9.69336L22.9961 30.4199C22.9961 33.291 21.5879 34.7129 18.7578 34.7129L4.23828 34.7129C1.4082 34.7129 0 33.291 0 30.4199L0 9.69336C0 6.82227 1.4082 5.40039 4.23828 5.40039L4.41928 5.40039C4.40776 5.51154 4.40234 5.62569 4.40234 5.74219L4.40234 7.17773C4.40234 7.32327 4.41093 7.4652 4.4307 7.60156L4.34766 7.60156C2.92578 7.60156 2.20117 8.36719 2.20117 9.7207L2.20117 30.3926C2.20117 31.7598 2.92578 32.5117 4.34766 32.5117L18.6484 32.5117C20.0703 32.5117 20.7949 31.7598 20.7949 30.3926L20.7949 9.7207C20.7949 8.36719 20.0703 7.60156 18.6484 7.60156L18.5654 7.60156C18.5852 7.4652 18.5938 7.32327 18.5938 7.17773L18.5938 5.74219C18.5938 5.62569 18.5883 5.51154 18.5768 5.40039L18.7578 5.40039C21.5879 5.40039 22.9961 6.82227 22.9961 9.69336Z" fill="white" fill-opacity="0.25"/>
  <path d="M7.27344 8.53125L15.7227 8.53125C16.5156 8.53125 16.9941 8.02539 16.9941 7.17773L16.9941 5.74219C16.9941 4.89453 16.5156 4.38867 15.7227 4.38867L14.4648 4.38867C14.3691 2.84375 13.084 1.58594 11.498 1.58594C9.91211 1.58594 8.62695 2.84375 8.53125 4.38867L7.27344 4.38867C6.48047 4.38867 6.00195 4.89453 6.00195 5.74219L6.00195 7.17773C6.00195 8.02539 6.48047 8.53125 7.27344 8.53125ZM11.498 5.6875C10.8418 5.6875 10.3086 5.14062 10.3086 4.49805C10.3086 3.82812 10.8418 3.29492 11.498 3.29492C12.1543 3.29492 12.6875 3.82812 12.6875 4.49805C12.6875 5.14062 12.1543 5.6875 11.498 5.6875Z" fill="white" fill-opacity="0.25"/>
  <path d="M5.72852 26.4414C6.37109 26.4414 6.89062 25.9219 6.89062 25.2793C6.89062 24.6367 6.37109 24.1172 5.72852 24.1172C5.09961 24.1172 4.56641 24.6504 4.56641 25.2793C4.56641 25.9082 5.09961 26.4414 5.72852 26.4414ZM9.37891 26.127L17.582 26.127C18.0469 26.127 18.4297 25.7441 18.4297 25.2793C18.4297 24.8145 18.0605 24.4316 17.582 24.4316L9.37891 24.4316C8.90039 24.4316 8.51758 24.8145 8.51758 25.2793C8.51758 25.7441 8.91406 26.127 9.37891 26.127Z" fill="#5e5ce6"/>
  <path d="M5.72852 21.3145C6.37109 21.3145 6.89062 20.7949 6.89062 20.1523C6.89062 19.5098 6.37109 19.0039 5.72852 19.0039C5.08594 19.0039 4.56641 19.5234 4.56641 20.1523C4.56641 20.7949 5.08594 21.3145 5.72852 21.3145ZM9.37891 21.0137L17.582 21.0137C18.0605 21.0137 18.4297 20.6309 18.4297 20.1523C18.4297 19.6875 18.0605 19.3184 17.582 19.3184L9.37891 19.3184C8.90039 19.3184 8.51758 19.6875 8.51758 20.1523C8.51758 20.6309 8.90039 21.0137 9.37891 21.0137Z" fill="#5e5ce6"/>
  <path d="M5.72852 16.4746C6.37109 16.4746 6.89062 15.9551 6.89062 15.3125C6.89062 14.6699 6.37109 14.1504 5.72852 14.1504C5.09961 14.1504 4.56641 14.6836 4.56641 15.3125C4.56641 15.9414 5.09961 16.4746 5.72852 16.4746ZM9.37891 16.1602L17.582 16.1602C18.0469 16.1602 18.4297 15.7773 18.4297 15.3125C18.4297 14.8477 18.0469 14.4512 17.582 14.4512L9.37891 14.4512C8.91406 14.4512 8.51758 14.8477 8.51758 15.3125C8.51758 15.7773 8.91406 16.1602 9.37891 16.1602Z" fill="#5e5ce6"/>
 </g>
</svg>
