<svg version="1.1" xmlns="http://www.w3.org/2000/svg" xmlns:xlink="http://www.w3.org/1999/xlink" viewBox="0 0 32.5938 25.1699">
 <g>
  
  <path d="M32.2383 4.23828L32.2383 20.9453C32.2383 23.7617 30.8164 25.1699 27.9453 25.1699L4.29297 25.1699C1.43555 25.1699 0 23.7617 0 20.9453L0 4.23828C0 1.42188 1.43555 0 4.29297 0L27.9453 0C30.8164 0 32.2383 1.42188 32.2383 4.23828ZM4.88086 19.1543C4.88086 19.8652 5.48242 20.4668 6.17969 20.4668C6.91797 20.4668 7.50586 19.8789 7.50586 19.1543C7.50586 18.4297 6.91797 17.8281 6.17969 17.8281C5.48242 17.8281 4.88086 18.4434 4.88086 19.1543ZM10.4316 18.2793C9.92578 18.2793 9.54297 18.6621 9.54297 19.1543C9.54297 19.6465 9.93945 20.043 10.4316 20.043L19.3594 20.043C19.8379 20.043 20.2344 19.6465 20.2344 19.1543C20.2344 18.6621 19.8516 18.2793 19.3594 18.2793ZM4.88086 14.6289C4.88086 15.3672 5.46875 15.9414 6.17969 15.9414C6.91797 15.9414 7.50586 15.3672 7.50586 14.6289C7.50586 13.918 6.91797 13.3301 6.17969 13.3301C5.46875 13.3301 4.88086 13.9316 4.88086 14.6289ZM10.4316 13.7676C9.92578 13.7676 9.54297 14.1504 9.54297 14.6289C9.54297 15.1484 9.92578 15.5312 10.4316 15.5312L26.5508 15.5312C27.0566 15.5312 27.4395 15.1484 27.4395 14.6289C27.4395 14.1504 27.0566 13.7676 26.5508 13.7676ZM4.88086 10.3359C4.88086 11.0469 5.48242 11.6484 6.17969 11.6484C6.91797 11.6484 7.50586 11.0605 7.50586 10.3359C7.50586 9.59766 6.91797 9.02344 6.17969 9.02344C5.48242 9.02344 4.88086 9.61133 4.88086 10.3359ZM10.4316 9.44727C9.93945 9.44727 9.54297 9.85742 9.54297 10.3359C9.54297 10.8145 9.93945 11.2109 10.4316 11.2109L19.3594 11.2109C19.8379 11.2109 20.2344 10.8145 20.2344 10.3359C20.2344 9.85742 19.8379 9.44727 19.3594 9.44727ZM4.88086 6.0293C4.88086 6.72656 5.48242 7.3418 6.17969 7.3418C6.91797 7.3418 7.50586 6.74023 7.50586 6.0293C7.50586 5.29102 6.91797 4.7168 6.17969 4.7168C5.48242 4.7168 4.88086 5.30469 4.88086 6.0293ZM10.4316 5.12695C9.93945 5.12695 9.54297 5.52344 9.54297 6.0293C9.54297 6.50781 9.92578 6.89062 10.4316 6.89062L26.5508 6.89062C27.0566 6.89062 27.4395 6.50781 27.4395 6.0293C27.4395 5.52344 27.043 5.12695 26.5508 5.12695Z" style="fill:var(--color-0,hsl(0 0 0/0.85))"></path>
 </g>
</svg>