<svg version="1.1" xmlns="http://www.w3.org/2000/svg" xmlns:xlink="http://www.w3.org/1999/xlink" viewBox="0 0 30.9189 30.5464">
 <g>
  
  <path d="M15.9722 29.7312C15.9722 30.114 15.6577 30.4285 15.2749 30.4285C14.8784 30.4285 14.564 30.114 14.564 29.7312C14.564 29.3347 14.8784 29.0203 15.2749 29.0203C15.6577 29.0203 15.9722 29.3347 15.9722 29.7312ZM13.4565 29.4988C13.4565 29.8953 13.1421 30.1961 12.7456 30.1961C12.3628 30.1961 12.0483 29.8953 12.0483 29.4988C12.0483 29.1023 12.3628 28.8015 12.7456 28.8015C13.1421 28.8015 13.4565 29.1023 13.4565 29.4988ZM18.4878 29.4988C18.4878 29.8953 18.1733 30.1961 17.7905 30.1961C17.394 30.1961 17.0933 29.8953 17.0933 29.4988C17.0933 29.1023 17.394 28.8015 17.7905 28.8015C18.1733 28.8015 18.4878 29.1023 18.4878 29.4988ZM11.0229 28.8562C11.0229 29.239 10.7085 29.5535 10.312 29.5535C9.9292 29.5535 9.61475 29.239 9.61475 28.8562C9.61475 28.4597 9.9292 28.1453 10.312 28.1453C10.7085 28.1453 11.0229 28.4597 11.0229 28.8562ZM20.9214 28.8562C20.9214 29.239 20.6069 29.5535 20.2241 29.5535C19.8276 29.5535 19.5132 29.239 19.5132 28.8562C19.5132 28.4597 19.8276 28.1453 20.2241 28.1453C20.6069 28.1453 20.9214 28.4597 20.9214 28.8562ZM8.72607 27.7625C8.72607 28.1589 8.41162 28.4597 8.02881 28.4597C7.63232 28.4597 7.33154 28.1589 7.33154 27.7625C7.33154 27.366 7.63232 27.0652 8.02881 27.0652C8.41162 27.0652 8.72607 27.366 8.72607 27.7625ZM23.2183 27.7625C23.2183 28.1589 22.9038 28.4597 22.5073 28.4597C22.1245 28.4597 21.8101 28.1589 21.8101 27.7625C21.8101 27.366 22.1245 27.0652 22.5073 27.0652C22.9038 27.0652 23.2183 27.366 23.2183 27.7625ZM6.66162 26.3269C6.66162 26.7097 6.34717 27.0242 5.96436 27.0242C5.56787 27.0242 5.25342 26.7097 5.25342 26.3269C5.25342 25.9304 5.56787 25.616 5.96436 25.616C6.34717 25.616 6.66162 25.9304 6.66162 26.3269ZM4.87061 24.5359C4.87061 24.9324 4.56982 25.2332 4.17334 25.2332C3.77686 25.2332 3.47607 24.9324 3.47607 24.5359C3.47607 24.1394 3.77686 23.8386 4.17334 23.8386C4.56982 23.8386 4.87061 24.1394 4.87061 24.5359ZM3.42139 22.4578C3.42139 22.8543 3.10693 23.155 2.72412 23.155C2.32764 23.155 2.01318 22.8543 2.01318 22.4578C2.01318 22.0613 2.32764 21.7605 2.72412 21.7605C3.10693 21.7605 3.42139 22.0613 3.42139 22.4578ZM28.5229 22.4578C28.5229 22.8543 28.2085 23.155 27.812 23.155C27.4292 23.155 27.1147 22.8543 27.1147 22.4578C27.1147 22.0613 27.4292 21.7605 27.812 21.7605C28.2085 21.7605 28.5229 22.0613 28.5229 22.4578ZM2.35498 20.1746C2.35498 20.5711 2.0542 20.8855 1.65771 20.8855C1.26123 20.8855 0.960449 20.5711 0.960449 20.1746C0.960449 19.7918 1.26123 19.4773 1.65771 19.4773C2.0542 19.4773 2.35498 19.7918 2.35498 20.1746ZM29.5757 20.1746C29.5757 20.5711 29.2749 20.8855 28.8784 20.8855C28.4819 20.8855 28.1812 20.5711 28.1812 20.1746C28.1812 19.7918 28.4819 19.4773 28.8784 19.4773C29.2749 19.4773 29.5757 19.7918 29.5757 20.1746ZM30.2183 17.7546C30.2183 18.1511 29.9175 18.4519 29.521 18.4519C29.1382 18.4519 28.8237 18.1511 28.8237 17.7546C28.8237 17.3582 29.1382 17.0574 29.521 17.0574C29.9175 17.0574 30.2183 17.3582 30.2183 17.7546ZM1.7124 17.7546C1.7124 18.1511 1.41162 18.4519 1.01514 18.4519C0.618652 18.4519 0.317871 18.1511 0.317871 17.7546C0.317871 17.3582 0.618652 17.0574 1.01514 17.0574C1.41162 17.0574 1.7124 17.3582 1.7124 17.7546ZM30.4507 15.2664C30.4507 15.6629 30.1362 15.9636 29.7397 15.9636C29.3569 15.9636 29.0425 15.6629 29.0425 15.2664C29.0425 14.8699 29.3569 14.5691 29.7397 14.5691C30.1362 14.5691 30.4507 14.8699 30.4507 15.2664ZM1.49365 15.2664C1.49365 15.6629 1.19287 15.9636 0.796387 15.9636C0.399902 15.9636 0.0991211 15.6629 0.0991211 15.2664C0.0991211 14.8699 0.399902 14.5691 0.796387 14.5691C1.19287 14.5691 1.49365 14.8699 1.49365 15.2664ZM30.2183 12.7781C30.2183 13.1746 29.9175 13.4754 29.521 13.4754C29.1382 13.4754 28.8237 13.1746 28.8237 12.7781C28.8237 12.3816 29.1382 12.0808 29.521 12.0808C29.9175 12.0808 30.2183 12.3816 30.2183 12.7781ZM1.7124 12.7781C1.7124 13.1746 1.41162 13.4754 1.01514 13.4754C0.618652 13.4754 0.317871 13.1746 0.317871 12.7781C0.317871 12.3816 0.618652 12.0808 1.01514 12.0808C1.41162 12.0808 1.7124 12.3816 1.7124 12.7781ZM29.5757 10.3445C29.5757 10.741 29.2749 11.0554 28.8784 11.0554C28.4819 11.0554 28.1812 10.741 28.1812 10.3445C28.1812 9.96168 28.4819 9.64723 28.8784 9.64723C29.2749 9.64723 29.5757 9.96168 29.5757 10.3445ZM2.35498 10.3445C2.35498 10.741 2.0542 11.0554 1.65771 11.0554C1.26123 11.0554 0.960449 10.741 0.960449 10.3445C0.960449 9.96168 1.26123 9.64723 1.65771 9.64723C2.0542 9.64723 2.35498 9.96168 2.35498 10.3445ZM28.5229 8.07496C28.5229 8.45777 28.2085 8.77223 27.812 8.77223C27.4292 8.77223 27.1147 8.45777 27.1147 8.07496C27.1147 7.67848 27.4292 7.36402 27.812 7.36402C28.2085 7.36402 28.5229 7.67848 28.5229 8.07496ZM3.42139 8.07496C3.42139 8.45777 3.10693 8.77223 2.72412 8.77223C2.32764 8.77223 2.01318 8.45777 2.01318 8.07496C2.01318 7.67848 2.32764 7.36402 2.72412 7.36402C3.10693 7.36402 3.42139 7.67848 3.42139 8.07496ZM27.0737 5.99683C27.0737 6.37965 26.7593 6.6941 26.3628 6.6941C25.98 6.6941 25.6655 6.37965 25.6655 5.99683C25.6655 5.60035 25.98 5.2859 26.3628 5.2859C26.7593 5.2859 27.0737 5.60035 27.0737 5.99683ZM25.2827 4.20582C25.2827 4.6023 24.9683 4.90308 24.5718 4.90308C24.189 4.90308 23.8745 4.6023 23.8745 4.20582C23.8745 3.80933 24.189 3.50855 24.5718 3.50855C24.9683 3.50855 25.2827 3.80933 25.2827 4.20582ZM8.72607 2.77027C8.72607 3.15308 8.41162 3.46754 8.02881 3.46754C7.63232 3.46754 7.33154 3.15308 7.33154 2.77027C7.33154 2.37379 7.63232 2.05933 8.02881 2.05933C8.41162 2.05933 8.72607 2.37379 8.72607 2.77027ZM23.2183 2.77027C23.2183 3.15308 22.9038 3.46754 22.5073 3.46754C22.1245 3.46754 21.8101 3.15308 21.8101 2.77027C21.8101 2.37379 22.1245 2.05933 22.5073 2.05933C22.9038 2.05933 23.2183 2.37379 23.2183 2.77027ZM20.9214 1.67652C20.9214 2.07301 20.6069 2.37379 20.2241 2.37379C19.8276 2.37379 19.5132 2.07301 19.5132 1.67652C19.5132 1.28004 19.8276 0.979257 20.2241 0.979257C20.6069 0.979257 20.9214 1.28004 20.9214 1.67652ZM11.0229 1.67652C11.0229 2.07301 10.7085 2.37379 10.312 2.37379C9.9292 2.37379 9.61475 2.07301 9.61475 1.67652C9.61475 1.28004 9.9292 0.979257 10.312 0.979257C10.7085 0.979257 11.0229 1.28004 11.0229 1.67652ZM18.4878 1.03394C18.4878 1.41676 18.1733 1.73121 17.7905 1.73121C17.394 1.73121 17.0933 1.41676 17.0933 1.03394C17.0933 0.63746 17.394 0.323007 17.7905 0.323007C18.1733 0.323007 18.4878 0.63746 18.4878 1.03394ZM13.4565 1.03394C13.4565 1.41676 13.1421 1.73121 12.7456 1.73121C12.3628 1.73121 12.0483 1.41676 12.0483 1.03394C12.0483 0.63746 12.3628 0.323007 12.7456 0.323007C13.1421 0.323007 13.4565 0.63746 13.4565 1.03394ZM15.9722 0.801522C15.9722 1.19801 15.6577 1.49879 15.2749 1.49879C14.8784 1.49879 14.564 1.19801 14.564 0.801522C14.564 0.405038 14.8784 0.104257 15.2749 0.104257C15.6577 0.104257 15.9722 0.405038 15.9722 0.801522Z" style="fill:var(--color-0,hsl(0 0 0/0.85))"></path>
  <path d="M6.79279 10.5375C6.01039 11.9336 5.56787 13.5468 5.56787 15.2664C5.56787 20.6804 9.86084 24.9734 15.2749 24.9734C16.9984 24.9734 18.6135 24.5275 20.0096 23.74L20.9756 24.7049C19.3179 25.7215 17.3646 26.2996 15.2749 26.2996C9.12256 26.2996 4.22803 21.405 4.22803 15.2664C4.22803 13.1745 4.80308 11.2205 5.81635 9.56212ZM26.3081 15.2664C26.3081 17.3534 25.7325 19.3017 24.721 20.9554L23.75 19.985C24.528 18.5911 24.9683 16.9817 24.9683 15.2664C24.9683 9.90699 20.6206 5.55933 15.2749 5.55933C13.5522 5.55933 11.9386 6.00258 10.5431 6.78521L9.56662 5.80926C11.223 4.79588 13.1771 4.21949 15.2749 4.21949C21.3452 4.21949 26.3081 9.19605 26.3081 15.2664Z" style="fill:var(--color-1,hsl(0 0 0/0.85))"></path>
  <path d="M12.3286 16.0673C12.6009 17.1227 13.4272 17.9496 14.488 18.2244L16.9302 20.664C16.4075 20.826 15.8516 20.9129 15.2749 20.9129C12.144 20.9129 9.65576 18.4109 9.65576 15.2937C9.65576 14.7181 9.74106 14.1635 9.90091 13.6423ZM20.8804 15.2937C20.8804 15.8472 20.8008 16.382 20.6492 16.8858L18.1772 14.4152C17.8816 13.4509 17.1127 12.6859 16.1522 12.3913L13.6679 9.90835C14.1757 9.75518 14.7154 9.67457 15.2749 9.67457C18.3784 9.67457 20.8804 12.1902 20.8804 15.2937Z" style="fill:var(--color-2,hsl(0 0 0/0.85))"></path>
  <path d="M27.1558 28.6238C27.5522 29.0203 28.2495 29.0339 28.646 28.6238C29.0562 28.2136 29.0562 27.5437 28.646 27.1336L3.40771 1.90894C2.99756 1.49879 2.31396 1.48512 1.90381 1.90894C1.50732 2.30543 1.50732 3.00269 1.90381 3.39918Z" style="fill:var(--color-3,hsl(0 0 0/0.85))"></path>
 </g>
</svg>