<svg version="1.1" xmlns="http://www.w3.org/2000/svg" xmlns:xlink="http://www.w3.org/1999/xlink" viewBox="0 0 30.707 30.3379">
 <g>
  
  <path d="M15.1758 1.39453C15.5723 1.39453 15.873 1.09375 15.873 0.697266C15.873 0.300781 15.5723 0 15.1758 0C14.7793 0 14.4785 0.300781 14.4785 0.697266C14.4785 1.09375 14.7793 1.39453 15.1758 1.39453ZM17.6914 1.62695C18.0879 1.62695 18.4023 1.3125 18.4023 0.929688C18.4023 0.533203 18.0879 0.21875 17.6914 0.21875C17.3086 0.21875 16.9941 0.533203 16.9941 0.929688C16.9941 1.3125 17.3086 1.62695 17.6914 1.62695ZM20.125 2.26953C20.5215 2.26953 20.8223 1.96875 20.8223 1.57227C20.8223 1.17578 20.5215 0.875 20.125 0.875C19.7285 0.875 19.4277 1.17578 19.4277 1.57227C19.4277 1.96875 19.7285 2.26953 20.125 2.26953ZM22.4219 3.36328C22.8047 3.36328 23.1191 3.04883 23.1191 2.66602C23.1191 2.26953 22.8047 1.95508 22.4219 1.95508C22.0254 1.95508 21.7109 2.26953 21.7109 2.66602C21.7109 3.04883 22.0254 3.36328 22.4219 3.36328ZM24.4863 4.79883C24.8828 4.79883 25.1836 4.49805 25.1836 4.10156C25.1836 3.70508 24.8828 3.4043 24.4863 3.4043C24.0898 3.4043 23.7891 3.70508 23.7891 4.10156C23.7891 4.49805 24.0898 4.79883 24.4863 4.79883ZM26.2773 6.58984C26.6602 6.58984 26.9746 6.27539 26.9746 5.89258C26.9746 5.49609 26.6602 5.18164 26.2773 5.18164C25.8809 5.18164 25.5664 5.49609 25.5664 5.89258C25.5664 6.27539 25.8809 6.58984 26.2773 6.58984ZM27.7266 8.66797C28.123 8.66797 28.4238 8.35352 28.4238 7.9707C28.4238 7.57422 28.123 7.25977 27.7266 7.25977C27.3301 7.25977 27.0293 7.57422 27.0293 7.9707C27.0293 8.35352 27.3301 8.66797 27.7266 8.66797ZM28.7793 10.9512C29.1758 10.9512 29.4902 10.6367 29.4902 10.2402C29.4902 9.85742 29.1758 9.54297 28.7793 9.54297C28.3965 9.54297 28.082 9.85742 28.082 10.2402C28.082 10.6367 28.3965 10.9512 28.7793 10.9512ZM29.4355 13.3711C29.8184 13.3711 30.1328 13.0703 30.1328 12.6738C30.1328 12.2773 29.8184 11.9766 29.4355 11.9766C29.0391 11.9766 28.7246 12.2773 28.7246 12.6738C28.7246 13.0703 29.0391 13.3711 29.4355 13.3711ZM29.6543 15.8594C30.0371 15.8594 30.3516 15.5586 30.3516 15.1621C30.3516 14.7656 30.0371 14.4648 29.6543 14.4648C29.2578 14.4648 28.9434 14.7656 28.9434 15.1621C28.9434 15.5586 29.2578 15.8594 29.6543 15.8594ZM29.4355 18.3477C29.8184 18.3477 30.1328 18.0469 30.1328 17.6504C30.1328 17.2539 29.8184 16.9531 29.4355 16.9531C29.0391 16.9531 28.7246 17.2539 28.7246 17.6504C28.7246 18.0469 29.0391 18.3477 29.4355 18.3477ZM28.7793 20.7812C29.1758 20.7812 29.4902 20.4668 29.4902 20.0703C29.4902 19.6875 29.1758 19.373 28.7793 19.373C28.3965 19.373 28.082 19.6875 28.082 20.0703C28.082 20.4668 28.3965 20.7812 28.7793 20.7812ZM27.7266 23.0508C28.123 23.0508 28.4238 22.75 28.4238 22.3535C28.4238 21.957 28.123 21.6562 27.7266 21.6562C27.3301 21.6562 27.0293 21.957 27.0293 22.3535C27.0293 22.75 27.3301 23.0508 27.7266 23.0508ZM26.2773 25.1289C26.6602 25.1289 26.9746 24.8281 26.9746 24.4316C26.9746 24.0352 26.6602 23.7344 26.2773 23.7344C25.8809 23.7344 25.5664 24.0352 25.5664 24.4316C25.5664 24.8281 25.8809 25.1289 26.2773 25.1289ZM24.4863 26.9199C24.8828 26.9199 25.1836 26.6055 25.1836 26.2227C25.1836 25.8262 24.8828 25.5117 24.4863 25.5117C24.0898 25.5117 23.7891 25.8262 23.7891 26.2227C23.7891 26.6055 24.0898 26.9199 24.4863 26.9199ZM22.4219 28.3555C22.8047 28.3555 23.1191 28.0547 23.1191 27.6582C23.1191 27.2617 22.8047 26.9609 22.4219 26.9609C22.0254 26.9609 21.7109 27.2617 21.7109 27.6582C21.7109 28.0547 22.0254 28.3555 22.4219 28.3555ZM20.125 29.4492C20.5215 29.4492 20.8223 29.1348 20.8223 28.752C20.8223 28.3555 20.5215 28.041 20.125 28.041C19.7285 28.041 19.4277 28.3555 19.4277 28.752C19.4277 29.1348 19.7285 29.4492 20.125 29.4492ZM17.6914 30.0918C18.0879 30.0918 18.4023 29.791 18.4023 29.3945C18.4023 28.998 18.0879 28.6973 17.6914 28.6973C17.3086 28.6973 16.9941 28.998 16.9941 29.3945C16.9941 29.791 17.3086 30.0918 17.6914 30.0918ZM15.1758 30.3242C15.5723 30.3242 15.873 30.0098 15.873 29.627C15.873 29.2305 15.5723 28.916 15.1758 28.916C14.7793 28.916 14.4785 29.2305 14.4785 29.627C14.4785 30.0098 14.7793 30.3242 15.1758 30.3242ZM12.6602 30.0918C13.043 30.0918 13.3574 29.791 13.3574 29.3945C13.3574 28.998 13.043 28.6973 12.6602 28.6973C12.2637 28.6973 11.9492 28.998 11.9492 29.3945C11.9492 29.791 12.2637 30.0918 12.6602 30.0918ZM10.2266 29.4492C10.623 29.4492 10.9238 29.1348 10.9238 28.752C10.9238 28.3555 10.623 28.041 10.2266 28.041C9.83008 28.041 9.5293 28.3555 9.5293 28.752C9.5293 29.1348 9.83008 29.4492 10.2266 29.4492ZM7.92969 28.3555C8.32617 28.3555 8.64062 28.0547 8.64062 27.6582C8.64062 27.2617 8.32617 26.9609 7.92969 26.9609C7.54688 26.9609 7.23242 27.2617 7.23242 27.6582C7.23242 28.0547 7.54688 28.3555 7.92969 28.3555ZM5.86523 26.9199C6.26172 26.9199 6.5625 26.6055 6.5625 26.2227C6.5625 25.8262 6.26172 25.5117 5.86523 25.5117C5.46875 25.5117 5.16797 25.8262 5.16797 26.2227C5.16797 26.6055 5.46875 26.9199 5.86523 26.9199ZM4.07422 25.1289C4.4707 25.1289 4.78516 24.8281 4.78516 24.4316C4.78516 24.0352 4.4707 23.7344 4.07422 23.7344C3.69141 23.7344 3.37695 24.0352 3.37695 24.4316C3.37695 24.8281 3.69141 25.1289 4.07422 25.1289ZM2.625 23.0508C3.02148 23.0508 3.32227 22.75 3.32227 22.3535C3.32227 21.957 3.02148 21.6562 2.625 21.6562C2.22852 21.6562 1.92773 21.957 1.92773 22.3535C1.92773 22.75 2.22852 23.0508 2.625 23.0508ZM1.57227 20.7812C1.95508 20.7812 2.26953 20.4668 2.26953 20.0703C2.26953 19.6875 1.95508 19.373 1.57227 19.373C1.17578 19.373 0.861328 19.6875 0.861328 20.0703C0.861328 20.4668 1.17578 20.7812 1.57227 20.7812ZM0.916016 18.3477C1.3125 18.3477 1.62695 18.0469 1.62695 17.6504C1.62695 17.2539 1.3125 16.9531 0.916016 16.9531C0.533203 16.9531 0.21875 17.2539 0.21875 17.6504C0.21875 18.0469 0.533203 18.3477 0.916016 18.3477ZM0.697266 15.8594C1.09375 15.8594 1.4082 15.5586 1.4082 15.1621C1.4082 14.7656 1.09375 14.4648 0.697266 14.4648C0.314453 14.4648 0 14.7656 0 15.1621C0 15.5586 0.314453 15.8594 0.697266 15.8594ZM0.916016 13.3711C1.3125 13.3711 1.62695 13.0703 1.62695 12.6738C1.62695 12.2773 1.3125 11.9766 0.916016 11.9766C0.533203 11.9766 0.21875 12.2773 0.21875 12.6738C0.21875 13.0703 0.533203 13.3711 0.916016 13.3711ZM1.57227 10.9512C1.95508 10.9512 2.26953 10.6367 2.26953 10.2402C2.26953 9.85742 1.95508 9.54297 1.57227 9.54297C1.17578 9.54297 0.861328 9.85742 0.861328 10.2402C0.861328 10.6367 1.17578 10.9512 1.57227 10.9512ZM2.625 8.66797C3.02148 8.66797 3.32227 8.35352 3.32227 7.9707C3.32227 7.57422 3.02148 7.25977 2.625 7.25977C2.22852 7.25977 1.92773 7.57422 1.92773 7.9707C1.92773 8.35352 2.22852 8.66797 2.625 8.66797ZM4.07422 6.58984C4.4707 6.58984 4.78516 6.27539 4.78516 5.89258C4.78516 5.49609 4.4707 5.18164 4.07422 5.18164C3.69141 5.18164 3.37695 5.49609 3.37695 5.89258C3.37695 6.27539 3.69141 6.58984 4.07422 6.58984ZM5.86523 4.79883C6.26172 4.79883 6.5625 4.49805 6.5625 4.10156C6.5625 3.70508 6.26172 3.4043 5.86523 3.4043C5.46875 3.4043 5.16797 3.70508 5.16797 4.10156C5.16797 4.49805 5.46875 4.79883 5.86523 4.79883ZM7.92969 3.36328C8.32617 3.36328 8.64062 3.04883 8.64062 2.66602C8.64062 2.26953 8.32617 1.95508 7.92969 1.95508C7.54688 1.95508 7.23242 2.26953 7.23242 2.66602C7.23242 3.04883 7.54688 3.36328 7.92969 3.36328ZM10.2266 2.26953C10.623 2.26953 10.9238 1.96875 10.9238 1.57227C10.9238 1.17578 10.623 0.875 10.2266 0.875C9.83008 0.875 9.5293 1.17578 9.5293 1.57227C9.5293 1.96875 9.83008 2.26953 10.2266 2.26953ZM12.6602 1.62695C13.043 1.62695 13.3574 1.3125 13.3574 0.929688C13.3574 0.533203 13.043 0.21875 12.6602 0.21875C12.2637 0.21875 11.9492 0.533203 11.9492 0.929688C11.9492 1.3125 12.2637 1.62695 12.6602 1.62695Z" style="fill:var(--color-0,hsl(0 0 0/0.85))"></path>
  <path d="M15.1758 26.1953C21.2734 26.1953 26.2227 21.2734 26.2227 15.1621C26.2227 9.0918 21.2461 4.11523 15.1758 4.11523C9.05078 4.11523 4.12891 9.05078 4.12891 15.1621C4.12891 21.3008 9.03711 26.1953 15.1758 26.1953ZM15.1758 24.8691C9.76172 24.8691 5.46875 20.5762 5.46875 15.1621C5.46875 9.78906 9.80273 5.45508 15.1758 5.45508C20.5352 5.45508 24.8828 9.80273 24.8828 15.1621C24.8828 20.5352 20.5488 24.8691 15.1758 24.8691Z" style="fill:var(--color-1,hsl(0 0 0/0.85))"></path>
  <path d="M11.9219 18.7988C11.9219 19.6055 12.4277 19.8652 13.207 19.4141L19.4004 15.873C20.084 15.4766 20.084 14.875 19.4004 14.4922L13.207 10.9238C12.4414 10.4863 11.9219 10.7324 11.9219 11.5391Z" style="fill:var(--color-2,hsl(0 0 0/0.85))"></path>
 </g>
</svg>