<svg version="1.1" xmlns="http://www.w3.org/2000/svg" xmlns:xlink="http://www.w3.org/1999/xlink" viewBox="0 0 38.3259 35.1777">
 <g>
  
  <path d="M23.2987 35.1777C33.1151 35.1777 37.9686 26.3184 37.9686 21.5059C37.9686 19.7969 35.8768 19.7422 35.6854 21.3281C34.9881 27.1523 30.3807 31.2402 25.2811 31.2402C19.9217 31.2402 15.6835 27.3301 15.6835 22.2988C15.6835 17.377 19.0604 12.25 23.9686 12.25C25.4315 12.25 25.4178 13.1523 27.1405 13.1523C29.5331 13.1523 34.7557 9.50195 34.7557 6.82227C34.7557 5.07227 32.0487 4.00586 27.6874 4.00586C24.5702 4.00586 23.4491 4.78516 23.244 6.23438C23.0799 7.30078 22.5057 7.875 21.453 7.875C13.9335 7.875 7.87682 13.6992 7.87682 21.1777C7.87682 29.4082 14.2206 35.1777 23.2987 35.1777ZM13.0995 6.28906C12.6756 7.12305 12.8944 8.09375 13.7147 8.57227L15.8885 9.84375L19.8944 8.36719L15.8065 6.43945L16.2987 4.40234L19.0194 3.92383C20.1405 3.71875 19.8124 1.87305 18.4315 2.31055C17.7889 2.51562 17.3241 1.87305 17.6796 1.29883C18.3085 0.21875 16.4764-0.533203 16.121 0.546875C15.9022 1.17578 15.1913 1.27148 14.8768 0.587891C14.3299-0.560547 12.662 0.205078 13.3182 1.29883L14.5624 3.37695ZM19.8534 18.5938L23.1073 18.7852L24.2967 20.918C24.8983 22.0254 26.5253 20.877 25.7049 19.9883C25.2401 19.4688 25.6913 18.7305 26.3338 18.8672C27.4549 19.0996 27.7284 17.1172 26.4706 17.1309C25.787 17.1309 25.4588 16.4199 25.951 15.9688C27.0448 14.9844 25.6092 13.7949 24.8573 14.6562L23.0799 16.7617L21.0975 16.1875L21.453 11.6895L18.1717 14.3965L18.1854 16.9258C18.1854 17.8828 18.9237 18.5527 19.8534 18.5938ZM5.12877 23.8301L3.35143 26.5645L0.904161 26.5098C-0.394667 26.4824-0.216932 28.3281 0.945177 28.2051C1.65611 28.1504 2.09361 28.8203 1.65611 29.3125C0.849474 30.1738 2.46276 31.4453 3.09166 30.2969C3.43346 29.6816 4.21276 29.7637 4.36315 30.4199C4.69127 31.9102 6.45494 31.2539 6.05846 30.1328L5.1151 27.5488L6.60533 26.1133L10.2694 28.6289L9.54479 24.4316L7.42565 23.2285C6.57799 22.75 5.63463 23.0371 5.12877 23.8301ZM19.8124 22.4629C19.0194 21.957 18.0487 22.0801 17.4745 22.8457L15.9842 24.8691L17.0506 28.998L19.4022 25.1426L21.3573 25.8535L21.535 28.6016C21.6307 29.75 23.5174 29.5996 23.203 28.1777C23.0663 27.5215 23.7635 27.125 24.3104 27.5488C25.3221 28.3008 26.2518 26.5098 25.1991 26.0586C24.5838 25.7852 24.6659 24.8281 25.3768 24.7734C26.5526 24.7324 25.8963 22.6543 24.7616 23.2012L22.5467 24.2402Z" style="fill:var(--color-0,#28cd41)"></path>
 </g>
</svg>