<?xml version="1.0" encoding="UTF-8"?>
<!--Generator: Apple Native CoreSVG 326-->
<!DOCTYPE svg
PUBLIC "-//W3C//DTD SVG 1.1//EN"
       "http://www.w3.org/Graphics/SVG/1.1/DTD/svg11.dtd">
<svg version="1.1" xmlns="http://www.w3.org/2000/svg" xmlns:xlink="http://www.w3.org/1999/xlink" viewBox="0 0 28.2461 27.9043">
 <g>
  <rect height="27.9043" opacity="0" width="28.2461" x="0" y="0"/>
  <path d="M13.9453 27.8906C21.6426 27.8906 27.8906 21.6426 27.8906 13.9453C27.8906 6.24805 21.6426 0 13.9453 0C6.24805 0 0 6.24805 0 13.9453C0 21.6426 6.24805 27.8906 13.9453 27.8906ZM13.9453 25.5664C7.51953 25.5664 2.32422 20.3711 2.32422 13.9453C2.32422 7.51953 7.51953 2.32422 13.9453 2.32422C20.3711 2.32422 25.5664 7.51953 25.5664 13.9453C25.5664 20.3711 20.3711 25.5664 13.9453 25.5664Z" fill="white" fill-opacity="0.85"/>
  <path d="M15.0527 21.4238C19.4824 21.4238 21.6699 17.4316 21.6699 15.2578C21.6699 14.4922 20.7402 14.4648 20.6445 15.1758C20.3164 17.8008 18.252 19.6602 15.9414 19.6602C14.5469 19.6602 13.3027 19.0586 12.5234 18.1152L13.2754 16.9121L14.1641 17.2266L14.2324 18.457C14.2871 18.9766 15.1074 18.9082 14.9844 18.2793C14.916 17.9785 15.2441 17.8008 15.5039 17.9922C15.9414 18.334 16.3516 17.541 15.8867 17.3359C15.5996 17.2129 15.6543 16.8438 15.9688 16.7344C16.4746 16.5703 16.2012 15.8047 15.709 16.0508L14.7109 16.502L13.4531 15.6953C13.1113 15.4629 12.6602 15.5312 12.4141 15.8594L11.7578 16.748C11.6621 16.3926 11.5938 16.0098 11.5938 15.627C11.5938 14.4512 12.0176 13.2617 12.7285 12.3867L12.7422 13.1797C12.7422 13.6172 13.0703 13.9043 13.4805 13.9316L14.957 14L15.4902 14.9844C15.7637 15.4766 16.4336 15.0117 16.1328 14.5742C15.9277 14.3008 16.1191 13.9863 16.4199 14.0547C16.9121 14.1504 17.0352 13.2754 16.4746 13.2891C16.1602 13.2891 16.0098 12.9609 16.2422 12.7285C16.7207 12.3047 16.0781 11.7715 15.7637 12.168L14.9434 13.1113L14.041 12.8516L14.1641 11.293C14.5332 11.1562 14.916 11.0742 15.3398 11.0742C16.0234 11.0742 16.0098 11.4844 16.7754 11.4844C17.8555 11.4844 20.207 9.84375 20.207 8.62695C20.207 7.84766 18.9902 7.35547 17.0352 7.35547C15.627 7.35547 15.1211 7.72461 15.0254 8.36719C14.9707 8.85938 14.6973 9.11914 14.2188 9.11914C13.877 9.11914 13.5352 9.14648 13.207 9.1875L11.6758 8.44922L11.8672 7.5332L13.1113 7.31445C13.6172 7.23242 13.4668 6.39844 12.8652 6.60352C12.5508 6.69922 12.3457 6.41211 12.4961 6.13867C12.7832 5.66016 11.9629 5.31836 11.8125 5.79688C11.7168 6.09766 11.3477 6.08398 11.2109 5.7832C10.9922 5.30469 10.2539 5.64648 10.5547 6.13867L11.1152 7.08203L10.459 8.39453C10.2676 8.75 10.3496 9.20117 10.7324 9.40625L11.3613 9.78906C9.41992 10.7871 8.09375 12.7559 8.09375 15.1074C8.09375 15.5039 8.13477 15.8594 8.20312 16.2285L7.875 16.0371C7.50586 15.832 7.08203 15.9551 6.84961 16.3242L6.05664 17.541L4.94922 17.5273C4.36133 17.5137 4.44336 18.334 4.97656 18.2793C5.30469 18.2383 5.49609 18.5664 5.27734 18.7852C4.92188 19.1816 5.64648 19.7422 5.93359 19.2227C6.07031 18.9492 6.43945 18.9766 6.50781 19.2773C6.64453 19.9473 7.45117 19.6602 7.25977 19.1543L6.83594 17.9922L7.51953 17.3359L8.94141 18.3066C10.0625 20.2344 12.2773 21.4238 15.0527 21.4238Z" fill="white" fill-opacity="0.85"/>
 </g>
</svg>
