<?xml version="1.0" encoding="UTF-8"?>
<!--Generator: Apple Native CoreSVG 326-->
<!DOCTYPE svg
PUBLIC "-//W3C//DTD SVG 1.1//EN"
       "http://www.w3.org/Graphics/SVG/1.1/DTD/svg11.dtd">
<svg version="1.1" xmlns="http://www.w3.org/2000/svg" xmlns:xlink="http://www.w3.org/1999/xlink" viewBox="0 0 32.5938 24.5684">
 <g>
  <rect height="24.5684" opacity="0" width="32.5938" x="0" y="0"/>
  <path d="M10.7734 24.541L21.4648 24.541C29.3945 24.541 32.2383 21.6016 32.2383 14.2871L32.2383 10.2676C32.2383 2.95312 29.3945 0 21.4648 0L10.7734 0C2.84375 0 0 2.95312 0 10.2676L0 14.2871C0 21.6016 2.84375 24.541 10.7734 24.541Z" fill="white" fill-opacity="0.85"/>
  <path d="M8.49023 17.9922C7.83398 17.9922 7.46484 17.5957 7.46484 16.9258L7.46484 7.4375C7.46484 6.87695 7.94336 6.41211 8.50391 6.41211C9.05078 6.41211 9.5293 6.87695 9.5293 7.4375L9.5293 16.2695L12.5371 16.2695C13.002 16.2695 13.3984 16.6523 13.3984 17.1172C13.3984 17.6094 13.002 17.9922 12.5371 17.9922ZM15.791 18.1836C15.2305 18.1836 14.8613 17.8008 14.8613 17.1992L14.8613 7.86133C14.8613 6.95898 15.4355 6.41211 16.3242 6.41211C17.1035 6.41211 17.5684 6.80859 17.7734 7.60156L19.7012 15.2715L19.7695 15.2715L21.6836 7.60156C21.875 6.80859 22.3398 6.41211 23.1465 6.41211C24.0488 6.41211 24.6094 6.93164 24.6094 7.86133L24.6094 17.1992C24.6094 17.8008 24.2812 18.1836 23.6797 18.1836C23.1055 18.1836 22.7637 17.8008 22.7637 17.1992L22.7637 9.59766L22.6953 9.59766L20.7812 17.0215C20.6309 17.5957 20.3301 17.9785 19.7422 17.9785C19.1816 17.9785 18.8398 17.582 18.7031 17.0352L16.7891 9.59766L16.707 9.59766L16.707 17.1992C16.707 17.8008 16.3516 18.1836 15.791 18.1836Z" fill="white"/>
 </g>
</svg>
