<svg version="1.1" xmlns="http://www.w3.org/2000/svg" xmlns:xlink="http://www.w3.org/1999/xlink" viewBox="0 0 32.5938 24.5684">
 <g>
  
  <path d="M10.7734 24.541L21.4648 24.541C29.3945 24.541 32.2383 21.6016 32.2383 14.2871L32.2383 10.2676C32.2383 2.95312 29.3945 0 21.4648 0L10.7734 0C2.84375 0 0 2.95312 0 10.2676L0 14.2871C0 21.6016 2.84375 24.541 10.7734 24.541ZM10.7734 22.3398C4.32031 22.3398 2.20117 20.248 2.20117 14.2871L2.20117 10.2676C2.20117 4.30664 4.32031 2.20117 10.7734 2.20117L21.4648 2.20117C27.918 2.20117 30.0371 4.30664 30.0371 10.2676L30.0371 14.2871C30.0371 20.248 27.918 22.3398 21.4648 22.3398Z" style="fill:var(--color-0,hsl(0 0 0/0.85))"></path>
  <path d="M8.72266 17.8145L12.6465 17.8145C13.0977 17.8145 13.4805 17.4453 13.4805 16.9805C13.4805 16.5293 13.0977 16.1602 12.6465 16.1602L9.7207 16.1602L9.7207 7.57422C9.7207 7.04102 9.26953 6.58984 8.73633 6.58984C8.18945 6.58984 7.73828 7.04102 7.73828 7.57422L7.73828 16.7891C7.73828 17.4316 8.09375 17.8145 8.72266 17.8145ZM15.791 18.0059C16.3379 18.0059 16.6797 17.6367 16.6797 17.0488L16.6797 9.66602L16.7617 9.66602L18.6211 16.8984C18.7578 17.418 19.0859 17.8008 19.6328 17.8008C20.1934 17.8008 20.4805 17.4316 20.6309 16.8848L22.4902 9.66602L22.5586 9.66602L22.5586 17.0488C22.5586 17.6367 22.8867 18.0059 23.4473 18.0059C24.0215 18.0059 24.3359 17.6367 24.3359 17.0488L24.3359 7.98438C24.3359 7.0957 23.8027 6.58984 22.9277 6.58984C22.1484 6.58984 21.6973 6.97266 21.5195 7.73828L19.6602 15.1895L19.5918 15.1895L17.7051 7.73828C17.5137 6.97266 17.0625 6.58984 16.3105 6.58984C15.4492 6.58984 14.9023 7.12305 14.9023 7.98438L14.9023 17.0488C14.9023 17.6367 15.2578 18.0059 15.791 18.0059Z" style="fill:var(--color-1,hsl(0 0 0/0.85))"></path>
 </g>
</svg>