<svg version="1.1" xmlns="http://www.w3.org/2000/svg" xmlns:xlink="http://www.w3.org/1999/xlink" viewBox="0 0 28.2461 27.9043">
 <g>
  
  <path d="M13.9453 27.8906C21.6426 27.8906 27.8906 21.6426 27.8906 13.9453C27.8906 6.24805 21.6426 0 13.9453 0C6.24805 0 0 6.24805 0 13.9453C0 21.6426 6.24805 27.8906 13.9453 27.8906ZM13.9453 25.5664C7.51953 25.5664 2.32422 20.3711 2.32422 13.9453C2.32422 7.51953 7.51953 2.32422 13.9453 2.32422C20.3711 2.32422 25.5664 7.51953 25.5664 13.9453C25.5664 20.3711 20.3711 25.5664 13.9453 25.5664Z" style="fill:var(--color-0,#007aff)"></path>
  <path d="M7.66992 19.8379C7.31445 20.7266 8.28516 21.4922 9.13281 20.6445L13.5762 16.1875C13.7949 15.9824 14.0547 15.9824 14.2734 16.1875L18.7168 20.6445C19.5645 21.4922 20.5352 20.7266 20.1797 19.8379L14.8887 6.37109C14.5332 5.44141 13.3164 5.45508 12.9473 6.39844Z" style="fill:var(--color-1,#007aff)"></path>
 </g>
</svg>