<svg version="1.1" xmlns="http://www.w3.org/2000/svg" xmlns:xlink="http://www.w3.org/1999/xlink" viewBox="0 0 25.5254 25.1699">
 <g>
  
  <path d="M4.29297 25.1699L20.877 25.1699C23.748 25.1699 25.1699 23.7617 25.1699 20.9453L25.1699 4.23828C25.1699 1.42188 23.748 0 20.877 0L4.29297 0C1.43555 0 0 1.42188 0 4.23828L0 20.9453C0 23.7617 1.43555 25.1699 4.29297 25.1699Z" style="fill:var(--color-0,#007aff)"></path>
  <path d="M5.16797 13.7539C3.9375 13.7539 3.80078 12.4277 4.70312 12.0039L18.0195 5.67383C19.127 5.1543 20.0566 6.09766 19.5508 7.19141L13.2891 20.5215C12.8652 21.4375 11.5391 21.3145 11.5391 20.043L11.5254 14.2188C11.5254 13.9453 11.3477 13.7539 11.0879 13.7539Z" style="fill:var(--color-1,white)"></path>
 </g>
</svg>