<svg version="1.1" xmlns="http://www.w3.org/2000/svg" xmlns:xlink="http://www.w3.org/1999/xlink" viewBox="0 0 28.2461 27.9043">
 <g>
  
  <path d="M13.9453 27.8906C21.6426 27.8906 27.8906 21.6289 27.8906 13.9453C27.8906 6.24805 21.6426 0 13.9453 0C6.26172 0 0 6.24805 0 13.9453C0 21.6289 6.26172 27.8906 13.9453 27.8906Z" style="fill:var(--color-0,#007aff)"></path>
  <path d="M16.0268 18.3271L14.3555 21.8887C13.9316 22.791 12.5918 22.668 12.5918 21.4102L12.5918 15.5723C12.5918 15.2988 12.4141 15.1211 12.1406 15.1211L6.23438 15.1074C5.00391 15.1074 4.85352 13.7949 5.76953 13.3574L9.35118 11.6585ZM7.94336 7.01367L20.877 19.9609C21.123 20.207 21.123 20.6035 20.877 20.8633C20.6309 21.1094 20.207 21.0957 19.9746 20.8633L7.02734 7.91602C6.79492 7.68359 6.78125 7.27344 7.02734 7.01367C7.28711 6.76758 7.69727 6.76758 7.94336 7.01367ZM20.6172 8.54492L17.5068 15.1732L12.4954 10.1671L19.0859 7.04102C20.1934 6.52148 21.123 7.45117 20.6172 8.54492Z" style="fill:var(--color-1,white)"></path>
 </g>
</svg>