<svg version="1.1" xmlns="http://www.w3.org/2000/svg" xmlns:xlink="http://www.w3.org/1999/xlink" viewBox="0 0 28.2461 27.9043">
 <g>
  
  <path d="M13.9453 27.9043C21.6426 27.9043 27.8906 21.6562 27.8906 13.959C27.8906 6.27539 21.6426 0.0136719 13.9453 0.0136719C6.26172 0.0136719 0 6.27539 0 13.959C0 21.6562 6.26172 27.9043 13.9453 27.9043Z" style="fill:var(--color-0,#007aff)"></path>
  <path d="M7.47852 20.0566L12.9199 6.19336C13.3027 5.23633 14.5742 5.20898 14.957 6.16602L20.3984 20.0566C20.7676 20.9727 19.7559 21.7656 18.8945 20.9043L14.3008 16.3105C14.082 16.0781 13.8086 16.0781 13.5898 16.3105L8.99609 20.9043C8.12109 21.7656 7.10938 20.9727 7.47852 20.0566Z" style="fill:var(--color-1,white)"></path>
 </g>
</svg>