<svg version="1.1" xmlns="http://www.w3.org/2000/svg" xmlns:xlink="http://www.w3.org/1999/xlink" viewBox="0 0 28.2461 27.9043">
 <g>
  
  <path d="M13.9453 27.8906C21.6426 27.8906 27.8906 21.6426 27.8906 13.9453C27.8906 6.24805 21.6426 0 13.9453 0C6.24805 0 0 6.24805 0 13.9453C0 21.6426 6.24805 27.8906 13.9453 27.8906ZM13.9453 25.5664C7.51953 25.5664 2.32422 20.3711 2.32422 13.9453C2.32422 7.51953 7.51953 2.32422 13.9453 2.32422C20.3711 2.32422 25.5664 7.51953 25.5664 13.9453C25.5664 20.3711 20.3711 25.5664 13.9453 25.5664Z" style="fill:var(--color-0,#007aff)"></path>
  <path d="M6.43945 15.0938L12.168 15.1074C12.4277 15.1074 12.6055 15.2715 12.6055 15.5449L12.6055 21.2051C12.6055 22.4219 13.8906 22.5449 14.3008 21.6699L20.3711 8.72266C20.877 7.66992 19.9609 6.76758 18.8945 7.27344L5.98828 13.3984C5.09961 13.8223 5.23633 15.0938 6.43945 15.0938Z" style="fill:var(--color-1,#007aff)"></path>
 </g>
</svg>