<svg version="1.1" xmlns="http://www.w3.org/2000/svg" xmlns:xlink="http://www.w3.org/1999/xlink" viewBox="0 0 25.5664 25.2246">
 <g>
  
  <path d="M23.6113 1.61328C22.2168 0.21875 20.248 0 17.9102 0L7.25977 0C4.96289 0 2.99414 0.21875 1.59961 1.61328C0.205078 3.00781 0 4.96289 0 7.25977L0 17.9102C0 20.248 0.205078 22.2031 1.59961 23.5977C2.99414 24.9922 4.96289 25.2109 7.28711 25.2109L17.9102 25.2109C20.248 25.2109 22.2168 24.9922 23.6113 23.5977C25.0059 22.2031 25.2109 20.248 25.2109 17.9102L25.2109 7.28711C25.2109 4.94922 25.0059 3.00781 23.6113 1.61328ZM23.0098 6.91797L23.0098 18.293C23.0098 19.7012 22.832 21.1641 21.998 21.9844C21.1777 22.8184 19.7012 23.0098 18.293 23.0098L6.91797 23.0098C5.50977 23.0098 4.0332 22.8184 3.19922 21.9844C2.37891 21.1641 2.20117 19.7012 2.20117 18.293L2.20117 6.95898C2.20117 5.50977 2.37891 4.04688 3.19922 3.21289C4.0332 2.39258 5.52344 2.20117 6.95898 2.20117L18.293 2.20117C19.7012 2.20117 21.1777 2.39258 21.998 3.22656C22.832 4.04688 23.0098 5.50977 23.0098 6.91797Z" style="fill:var(--color-0,hsl(0 0 0/0.85))"></path>
  <path d="M5.11328 13.7539L10.8418 13.7676C11.1016 13.7676 11.2793 13.9316 11.2793 14.2051L11.2793 19.8652C11.2793 21.082 12.5781 21.2051 12.9883 20.3301L19.0586 7.38281C19.5508 6.33008 18.6484 5.42773 17.582 5.93359L4.66211 12.0586C3.77344 12.4824 3.92383 13.7539 5.11328 13.7539Z" style="fill:var(--color-1,hsl(0 0 0/0.85))"></path>
 </g>
</svg>