<svg version="1.1" xmlns="http://www.w3.org/2000/svg" xmlns:xlink="http://www.w3.org/1999/xlink" viewBox="0 0 28.2281 25.8697">
 <g>
  
  <path d="M1.16676 10.4671C-0.719957 11.3421-0.200426 13.8714 1.8777 13.885L11.8445 13.926C12.0086 13.926 12.0496 13.9671 12.0496 14.1311L12.0769 24.0159C12.0906 26.176 14.6609 26.5589 15.5769 24.5764L25.6804 2.85182C26.6101 0.828382 25.0242-0.607165 23.0144 0.336195ZM3.54567 11.7522C3.49098 11.7522 3.47731 11.6975 3.54567 11.6702L23.1922 2.67409C23.2879 2.63307 23.3289 2.66041 23.2879 2.76979L14.2371 22.4026C14.2234 22.4573 14.1687 22.4436 14.1687 22.3889L14.2371 12.7229C14.2371 12.1214 13.8132 11.6975 13.198 11.6975Z" style="fill:var(--color-0,#007aff)"></path>
 </g>
</svg>