<svg version="1.1" xmlns="http://www.w3.org/2000/svg" xmlns:xlink="http://www.w3.org/1999/xlink" viewBox="0 0 32.5938 25.1699">
 <g>
  
  <path d="M4.29297 25.1699L27.9453 25.1699C30.8164 25.1699 32.2383 23.7617 32.2383 20.9453L32.2383 4.23828C32.2383 1.42188 30.8164 0 27.9453 0L4.29297 0C1.43555 0 0 1.42188 0 4.23828L0 20.9453C0 23.7617 1.43555 25.1699 4.29297 25.1699ZM4.32031 22.9688C2.95312 22.9688 2.20117 22.2441 2.20117 20.8223L2.20117 4.36133C2.20117 2.93945 2.95312 2.20117 4.32031 2.20117L27.918 2.20117C29.2715 2.20117 30.0371 2.93945 30.0371 4.36133L30.0371 20.8223C30.0371 22.2441 29.2715 22.9688 27.918 22.9688Z" style="fill:var(--color-0,#8e8e93)"></path>
  <path d="M11.1836 17.9648C11.1836 18.9902 11.6348 19.4688 12.5918 19.4688L19.6738 19.4688C20.6172 19.4688 21.0684 18.9902 21.0684 17.9648L21.0684 12.5234C21.0684 11.5664 20.6719 11.1016 19.8652 11.0469L19.8652 9.41992C19.8652 6.9043 18.3613 5.22266 16.1328 5.22266C13.9043 5.22266 12.4004 6.9043 12.4004 9.41992L12.4004 11.0469C11.5801 11.1016 11.1836 11.5664 11.1836 12.5234ZM13.8223 11.0332L13.8223 9.26953C13.8223 7.66992 14.7383 6.60352 16.1328 6.60352C17.5137 6.60352 18.4434 7.66992 18.4434 9.26953L18.4434 11.0332Z" style="fill:var(--color-1,#8e8e93)"></path>
 </g>
</svg>