<svg version="1.1" xmlns="http://www.w3.org/2000/svg" xmlns:xlink="http://www.w3.org/1999/xlink" viewBox="0 0 32.9492 28.5059">
 <g>
  
  <path d="M3.14453 23.6523L29.4355 23.6523C31.4043 23.6523 32.5938 22.4629 32.5938 20.4941L32.5938 4.10156C32.5938 2.13281 31.4043 0.957031 29.4355 0.957031L3.14453 0.957031C1.18945 0.957031 0 2.13281 0 4.10156L0 20.4941C0 22.4629 1.18945 23.6523 3.14453 23.6523ZM2.78906 17.623C2.37891 17.623 2.20117 17.4727 2.20117 17.0352L2.20117 4.14258C2.20117 3.52734 2.58398 3.1582 3.18555 3.1582L29.4082 3.1582C30.0098 3.1582 30.3926 3.52734 30.3926 4.14258L30.3926 17.0352C30.3926 17.4727 30.2012 17.623 29.791 17.623ZM11.9766 26.9062L20.6172 26.9062L20.6172 23.4746L11.9766 23.4746ZM11.8945 28.5059L20.6992 28.5059C21.3008 28.5059 21.793 28.0137 21.793 27.3984C21.793 26.7832 21.3008 26.291 20.6992 26.291L11.8945 26.291C11.293 26.291 10.7871 26.7832 10.7871 27.3984C10.7871 28.0137 11.293 28.5059 11.8945 28.5059Z" style="fill:var(--color-0,hsl(0 0 0/0.85))"></path>
  <path d="M11.3887 14C11.3887 14.7793 11.7715 15.1621 12.5098 15.1621L17.1445 15.1621C17.8828 15.1621 18.252 14.7793 18.252 14L18.252 10.4453C18.252 9.66602 17.8828 9.26953 17.1445 9.26953L12.5098 9.26953C11.7715 9.26953 11.3887 9.66602 11.3887 10.4453ZM16.0918 10.0762L17.4453 10.0762L17.4453 8.12109C17.4453 7.10938 17.9785 6.4668 18.9082 6.4668C19.8379 6.4668 20.3848 7.10938 20.3848 8.12109L20.3848 9.0918C20.3848 9.46094 20.6855 9.77539 21.0684 9.77539C21.4238 9.77539 21.7383 9.46094 21.7383 9.0918L21.7383 8.12109C21.7383 6.39844 20.6309 5.14062 18.9082 5.14062C17.1992 5.14062 16.0918 6.39844 16.0918 8.24414Z" style="fill:var(--color-1,hsl(0 0 0/0.85))"></path>
 </g>
</svg>