<svg version="1.1" xmlns="http://www.w3.org/2000/svg" xmlns:xlink="http://www.w3.org/1999/xlink" viewBox="0 0 32.9492 28.5059">
 <g>
  
  <path d="M3.14453 23.6523L29.4355 23.6523C31.4043 23.6523 32.5938 22.4629 32.5938 20.4941L32.5938 4.10156C32.5938 2.13281 31.4043 0.957031 29.4355 0.957031L3.14453 0.957031C1.18945 0.957031 0 2.13281 0 4.10156L0 20.4941C0 22.4629 1.18945 23.6523 3.14453 23.6523ZM3.18555 21.4512C2.58398 21.4512 2.20117 21.0684 2.20117 20.4668L2.20117 4.14258C2.20117 3.52734 2.58398 3.1582 3.18555 3.1582L29.4082 3.1582C30.0098 3.1582 30.3926 3.52734 30.3926 4.14258L30.3926 20.4668C30.3926 21.0684 30.0098 21.4512 29.4082 21.4512ZM11.9766 26.9062L20.6172 26.9062L20.6172 23.4746L11.9766 23.4746ZM11.8945 28.5059L20.6992 28.5059C21.3008 28.5059 21.793 28.0137 21.793 27.3984C21.793 26.7832 21.3008 26.291 20.6992 26.291L11.8945 26.291C11.293 26.291 10.7871 26.7832 10.7871 27.3984C10.7871 28.0137 11.293 28.5059 11.8945 28.5059Z" style="fill:var(--color-0,hsl(0 0 0/0.85))"></path>
  <path d="M13.9727 16.9531L18.6211 16.9531C19.373 16.9531 19.7695 16.543 19.7695 15.75L19.7695 12.127C19.7695 11.498 19.5098 11.1152 19.0312 10.9648L19.0312 10.1309C19.0312 8.29883 17.9375 7.05469 16.2969 7.05469C14.6699 7.05469 13.5625 8.29883 13.5625 10.1309L13.5625 10.9785C13.0977 11.1152 12.8379 11.498 12.8379 12.127L12.8379 15.75C12.8379 16.543 13.2207 16.9531 13.9727 16.9531ZM14.916 10.9238L14.916 10.0078C14.916 9.00977 15.4629 8.36719 16.2969 8.36719C17.1309 8.36719 17.6777 9.00977 17.6777 10.0078L17.6777 10.9238Z" style="fill:var(--color-1,hsl(0 0 0/0.85))"></path>
 </g>
</svg>