<svg version="1.1" xmlns="http://www.w3.org/2000/svg" xmlns:xlink="http://www.w3.org/1999/xlink" viewBox="0 0 28.9092 31.3702">
 <g>
  
  <path d="M21.2909 27.6586C20.7838 28.375 19.9414 28.7349 18.7886 28.7349L6.26514 28.7349C4.26904 28.7349 3.20264 27.6411 3.20264 25.481L3.20264 16.0611C3.20264 14.1572 4.03103 13.0923 5.59521 12.8676L5.59521 11.9812ZM19.4722 9.55326L19.4722 12.8686C21.0396 13.0964 21.8647 14.1609 21.8647 16.0611L21.8647 20.7404L13.9405 12.8208L17.312 12.8208L17.312 9.25247C17.312 5.80716 15.0835 3.97513 12.5269 3.97513C10.5947 3.97513 8.8655 5.02152 8.13783 7.02151L6.53154 5.41615C7.77057 3.0637 10.0952 1.91068 12.5269 1.91068C16.1089 1.91068 19.4722 4.41263 19.4722 9.55326Z" style="fill:var(--color-0,#8e8e93)"></path>
  <path d="M25.3647 29.4595C25.7749 29.8697 26.4448 29.8697 26.855 29.4595C27.2515 29.0493 27.2651 28.3794 26.855 27.9693L3.40771 4.53568C2.99756 4.12552 2.31396 4.12552 1.90381 4.53568C1.50732 4.94583 1.50732 5.62943 1.90381 6.02591Z" style="fill:var(--color-1,#8e8e93)"></path>
 </g>
</svg>