<?xml version="1.0" encoding="UTF-8"?>
<!--Generator: Apple Native CoreSVG 326-->
<!DOCTYPE svg
PUBLIC "-//W3C//DTD SVG 1.1//EN"
       "http://www.w3.org/Graphics/SVG/1.1/DTD/svg11.dtd">
<svg version="1.1" xmlns="http://www.w3.org/2000/svg" xmlns:xlink="http://www.w3.org/1999/xlink" viewBox="0 0 25.5254 25.1699">
 <g>
  <rect height="25.1699" opacity="0" width="25.5254" x="0" y="0"/>
  <path d="M4.29297 25.1699L20.877 25.1699C23.748 25.1699 25.1699 23.7617 25.1699 20.9453L25.1699 4.23828C25.1699 1.42188 23.748 0 20.877 0L4.29297 0C1.43555 0 0 1.42188 0 4.23828L0 20.9453C0 23.7617 1.43555 25.1699 4.29297 25.1699ZM4.32031 22.9688C2.95312 22.9688 2.20117 22.2441 2.20117 20.8223L2.20117 4.36133C2.20117 2.93945 2.95312 2.20117 4.32031 2.20117L20.8496 2.20117C22.2031 2.20117 22.9688 2.93945 22.9688 4.36133L22.9688 20.8223C22.9688 22.2441 22.2031 22.9688 20.8496 22.9688Z" fill="#98989d"/>
  <path d="M7.65625 17.9648C7.65625 18.9902 8.10742 19.4688 9.05078 19.4688L16.1328 19.4688C17.0898 19.4688 17.541 18.9902 17.541 17.9648L17.541 12.5234C17.541 11.5664 17.1445 11.1016 16.3242 11.0469L16.3242 9.41992C16.3242 6.9043 14.8203 5.22266 12.5918 5.22266C10.3633 5.22266 8.85938 6.9043 8.85938 9.41992L8.85938 11.0469C8.05273 11.1016 7.65625 11.5664 7.65625 12.5234ZM10.2812 11.0332L10.2812 9.26953C10.2812 7.66992 11.2109 6.60352 12.5918 6.60352C13.9727 6.60352 14.9023 7.66992 14.9023 9.26953L14.9023 11.0332Z" fill="#98989d"/>
 </g>
</svg>
