<svg version="1.1" xmlns="http://www.w3.org/2000/svg" xmlns:xlink="http://www.w3.org/1999/xlink" viewBox="0 0 39.7852 22.2715">
 <g>
  
  <path d="M0 20.7129C0 21.5742 0.697266 22.2715 1.54492 22.2715L37.8848 22.2715C38.7324 22.2715 39.4297 21.5742 39.4297 20.7129C39.4297 19.8516 38.7324 19.1543 37.8848 19.1543L34.8906 19.1543L34.8906 2.92578C34.8906 1.01172 33.8652 0.0273438 31.9648 0.0273438L7.46484 0.0273438C5.66016 0.0273438 4.53906 1.01172 4.53906 2.92578L4.53906 19.1543L1.54492 19.1543C0.697266 19.1543 0 19.8516 0 20.7129ZM6.74023 19.1543L6.74023 3.54102C6.74023 2.66602 7.17773 2.22852 8.05273 2.22852L31.377 2.22852C32.252 2.22852 32.6895 2.66602 32.6895 3.54102L32.6895 19.1543Z" style="fill:var(--color-0,hsl(0 0 0/0.85))"></path>
  <path d="M17.3906 15.4766L22.0527 15.4766C22.8047 15.4766 23.1875 15.0664 23.1875 14.2734L23.1875 10.6504C23.1875 10.0215 22.9277 9.63867 22.4629 9.48828L22.4629 8.6543C22.4629 6.83594 21.3555 5.5918 19.7148 5.5918C18.0879 5.5918 16.9941 6.83594 16.9941 8.6543L16.9941 9.51562C16.5156 9.63867 16.2559 10.0215 16.2559 10.6504L16.2559 14.2734C16.2559 15.0664 16.6387 15.4766 17.3906 15.4766ZM18.3477 9.44727L18.3477 8.53125C18.3477 7.5332 18.8809 6.89062 19.7148 6.89062C20.5488 6.89062 21.1094 7.5332 21.1094 8.53125L21.1094 9.44727Z" style="fill:var(--color-1,hsl(0 0 0/0.85))"></path>
 </g>
</svg>