<?xml version="1.0" encoding="UTF-8"?>
<!--Generator: Apple Native CoreSVG 326-->
<!DOCTYPE svg
PUBLIC "-//W3C//DTD SVG 1.1//EN"
       "http://www.w3.org/Graphics/SVG/1.1/DTD/svg11.dtd">
<svg version="1.1" xmlns="http://www.w3.org/2000/svg" xmlns:xlink="http://www.w3.org/1999/xlink" viewBox="0 0 33.4004 34.6309">
 <g>
  <rect height="34.6309" opacity="0" width="33.4004" x="0" y="0"/>
  <path d="M25.1506 3.91016L7.89434 3.91016C7.95046 2.79901 8.65169 2.16016 9.81641 2.16016L23.2285 2.16016C24.3932 2.16016 25.0945 2.79901 25.1506 3.91016Z" fill="white" fill-opacity="0.85"/>
  <path d="M27.9473 7.81549C27.5075 7.7456 27.0411 7.71094 26.5508 7.71094L6.49414 7.71094C6.00391 7.71094 5.53762 7.74558 5.09803 7.81545C5.24689 6.50197 6.13568 5.76953 7.58789 5.76953L25.4707 5.76953C26.9229 5.76953 27.8005 6.50199 27.9473 7.81549Z" fill="white" fill-opacity="0.85"/>
  <path d="M6.49414 32.4297L26.5508 32.4297C29.4082 32.4297 30.8438 31.0078 30.8438 28.1914L30.8438 14.1504C30.8438 11.334 29.4082 9.91211 26.5508 9.91211L6.49414 9.91211C3.63672 9.91211 2.20117 11.334 2.20117 14.1504L2.20117 28.1914C2.20117 31.0078 3.63672 32.4297 6.49414 32.4297ZM6.53516 30.2285C5.16797 30.2285 4.40234 29.4902 4.40234 28.0684L4.40234 14.2734C4.40234 12.8516 5.16797 12.1133 6.53516 12.1133L26.5234 12.1133C27.8633 12.1133 28.6426 12.8516 28.6426 14.2734L28.6426 28.0684C28.6426 29.4902 27.8633 30.2285 26.5234 30.2285Z" fill="white" fill-opacity="0.85"/>
  <path d="M11.5938 26.5645C11.5938 27.5898 12.0449 28.0684 12.9883 28.0684L20.0703 28.0684C21.0137 28.0684 21.4648 27.5898 21.4648 26.5645L21.4648 21.123C21.4648 20.166 21.0684 19.6875 20.2617 19.6328L20.2617 18.0195C20.2617 15.5039 18.7578 13.8223 16.5293 13.8223C14.3008 13.8223 12.7969 15.5039 12.7969 18.0195L12.7969 19.6328C11.9902 19.6875 11.5938 20.166 11.5938 21.123ZM14.2188 19.6191L14.2188 17.8691C14.2188 16.2559 15.1484 15.2031 16.5293 15.2031C17.9102 15.2031 18.8398 16.2559 18.8398 17.8691L18.8398 19.6191Z" fill="white" fill-opacity="0.85"/>
 </g>
</svg>
