<?xml version="1.0" encoding="UTF-8"?>
<!--Generator: Apple Native CoreSVG 326-->
<!DOCTYPE svg
PUBLIC "-//W3C//DTD SVG 1.1//EN"
       "http://www.w3.org/Graphics/SVG/1.1/DTD/svg11.dtd">
<svg version="1.1" xmlns="http://www.w3.org/2000/svg" xmlns:xlink="http://www.w3.org/1999/xlink" viewBox="0 0 32.842 27.9043">
 <g>
  <rect height="27.9043" opacity="0" width="32.842" x="0" y="0"/>
  <path d="M16.2501 27.8906C20.8575 27.8906 25.0001 25.6074 27.5431 22.0664C28.0079 21.4648 27.8439 20.6992 27.2833 20.3574C26.7091 20.0156 26.0665 20.1934 25.6564 20.7539C23.5782 23.6523 20.1329 25.5664 16.2501 25.5664C9.82432 25.5664 4.62901 20.3711 4.62901 13.9453C4.62901 7.51953 9.82432 2.32422 16.2501 2.32422C22.6759 2.32422 27.8712 7.51953 27.8712 13.9453L30.1954 13.9453C30.1954 6.24805 23.9474 0 16.2501 0C8.55284 0 2.30479 6.24805 2.30479 13.9453C2.30479 21.6426 8.55284 27.8906 16.2501 27.8906ZM31.8634 11.3066L25.6017 11.3066C24.631 11.3066 24.3712 11.9766 24.9044 12.7285L27.9669 17.0898C28.4044 17.7051 29.0606 17.7188 29.4981 17.0898L32.5606 12.7422C33.1075 11.9766 32.8478 11.3066 31.8634 11.3066Z" fill="white" fill-opacity="0.85"/>
  <path d="M11.3146 19.332C11.3146 20.3574 11.7657 20.8359 12.7091 20.8359L19.7911 20.8359C20.7345 20.8359 21.1856 20.3574 21.1856 19.332L21.1856 13.8906C21.1856 12.9336 20.7892 12.4688 19.9825 12.4141L19.9825 10.7871C19.9825 8.27148 18.4786 6.58984 16.2501 6.58984C14.0216 6.58984 12.5177 8.27148 12.5177 10.7871L12.5177 12.4141C11.711 12.4688 11.3146 12.9336 11.3146 13.8906ZM13.9396 12.4004L13.9396 10.6367C13.9396 9.03711 14.8692 7.9707 16.2501 7.9707C17.631 7.9707 18.5606 9.03711 18.5606 10.6367L18.5606 12.4004Z" fill="white" fill-opacity="0.85"/>
 </g>
</svg>
