<?xml version="1.0" encoding="UTF-8"?>
<!--Generator: Apple Native CoreSVG 326-->
<!DOCTYPE svg
PUBLIC "-//W3C//DTD SVG 1.1//EN"
       "http://www.w3.org/Graphics/SVG/1.1/DTD/svg11.dtd">
<svg version="1.1" xmlns="http://www.w3.org/2000/svg" xmlns:xlink="http://www.w3.org/1999/xlink" viewBox="0 0 23.2012 30.8301">
 <g>
  <rect height="30.8301" opacity="0" width="23.2012" x="0" y="0"/>
  <path d="M0 27.1934C0 29.3535 1.51758 30.8027 3.78711 30.8027L19.0586 30.8027C21.3281 30.8027 22.8457 29.3535 22.8457 27.1934L22.8457 3.62305C22.8457 1.46289 21.3281 0 19.0586 0L3.78711 0C1.51758 0 0 1.46289 0 3.62305ZM2.20117 26.8242L2.20117 3.99219C2.20117 2.87109 2.88477 2.20117 4.06055 2.20117L18.7852 2.20117C19.9473 2.20117 20.6445 2.87109 20.6445 3.99219L20.6445 26.8242C20.6445 27.9453 19.9473 28.6016 18.7852 28.6016L4.06055 28.6016C2.88477 28.6016 2.20117 27.9453 2.20117 26.8242Z" fill="white" fill-opacity="0.85"/>
  <path d="M6.52148 18.8809C6.52148 19.6602 6.89062 20.043 7.62891 20.043L12.2773 20.043C13.0156 20.043 13.3848 19.6602 13.3848 18.8809L13.3848 15.3262C13.3848 14.5469 13.0156 14.1504 12.2773 14.1504L7.62891 14.1504C6.89062 14.1504 6.52148 14.5469 6.52148 15.3262ZM11.2246 14.9434L12.5781 14.9434L12.5781 13.002C12.5781 11.9902 13.1113 11.334 14.041 11.334C14.9707 11.334 15.5176 11.9902 15.5176 13.002L15.5176 13.9727C15.5176 14.3418 15.8184 14.6562 16.2012 14.6562C16.5566 14.6562 16.8711 14.3418 16.8711 13.9727L16.8711 13.002C16.8711 11.2793 15.75 10.0215 14.041 10.0215C12.332 10.0215 11.2246 11.2793 11.2246 13.125Z" fill="white" fill-opacity="0.85"/>
 </g>
</svg>
