<?xml version="1.0" encoding="UTF-8"?>
<!--Generator: Apple Native CoreSVG 326-->
<!DOCTYPE svg
PUBLIC "-//W3C//DTD SVG 1.1//EN"
       "http://www.w3.org/Graphics/SVG/1.1/DTD/svg11.dtd">
<svg version="1.1" xmlns="http://www.w3.org/2000/svg" xmlns:xlink="http://www.w3.org/1999/xlink" viewBox="0 0 22.7227 27.6035">
 <g>
  <rect height="27.6035" opacity="0" width="22.7227" x="0" y="0"/>
  <path d="M12.3184 0.615234C13.9043 1.16211 19.0176 3.02148 20.6172 3.67773C21.7656 4.15625 22.3672 4.60742 22.3672 6.01562L22.3672 16.3242C22.3672 21.2324 19.8652 23.2695 12.0859 27.3438C11.7441 27.5215 11.4023 27.6035 11.1836 27.6035C10.9648 27.6035 10.6367 27.5352 10.2812 27.3438C2.63867 23.0371 0 21.2324 0 16.3242L0 6.01562C0 4.60742 0.615234 4.14258 1.75 3.67773C3.34961 3.03516 8.46289 1.13477 10.0625 0.615234C10.418 0.505859 10.8008 0.423828 11.1836 0.423828C11.5664 0.423828 11.9492 0.492188 12.3184 0.615234ZM7.3418 10.2812L7.3418 11.9355C6.52148 11.9902 6.11133 12.4824 6.11133 13.4805L6.11133 19.0859C6.11133 20.1387 6.57617 20.6309 7.54688 20.6309L14.8477 20.6309C15.8184 20.6309 16.2832 20.1387 16.2832 19.0859L16.2832 13.4805C16.2832 12.4824 15.873 11.9902 15.0527 11.9355L15.0527 10.2812C15.0527 7.68359 13.4941 5.93359 11.1973 5.93359C8.90039 5.93359 7.3418 7.68359 7.3418 10.2812ZM13.5762 10.1172L13.5762 11.9219L8.81836 11.9219L8.81836 10.1172C8.81836 8.46289 9.77539 7.36914 11.1973 7.36914C12.6191 7.36914 13.5762 8.46289 13.5762 10.1172Z" fill="white" fill-opacity="0.85"/>
 </g>
</svg>
