<?xml version="1.0" encoding="UTF-8"?>
<!--Generator: Apple Native CoreSVG 326-->
<!DOCTYPE svg
PUBLIC "-//W3C//DTD SVG 1.1//EN"
       "http://www.w3.org/Graphics/SVG/1.1/DTD/svg11.dtd">
<svg version="1.1" xmlns="http://www.w3.org/2000/svg" xmlns:xlink="http://www.w3.org/1999/xlink" viewBox="0 0 32.5938 25.1699">
 <g>
  <rect height="25.1699" opacity="0" width="32.5938" x="0" y="0"/>
  <path d="M4.29297 25.1699L27.9453 25.1699C30.8164 25.1699 32.2383 23.7617 32.2383 20.9453L32.2383 4.23828C32.2383 1.42188 30.8164 0 27.9453 0L4.29297 0C1.43555 0 0 1.42188 0 4.23828L0 20.9453C0 23.7617 1.43555 25.1699 4.29297 25.1699Z" fill="#98989d"/>
  <path d="M11.0332 18.1699L11.0332 12.5645C11.0332 11.5664 11.4434 11.0742 12.2773 11.0195L12.2773 9.36523C12.2773 6.76758 13.8359 5.03125 16.1328 5.03125C18.4297 5.03125 19.9883 6.76758 19.9883 9.36523L19.9883 11.0195C20.8086 11.0742 21.2188 11.5664 21.2188 12.5645L21.2188 18.1699C21.2188 19.2227 20.7539 19.7148 19.7832 19.7148L12.4824 19.7148C11.498 19.7148 11.0332 19.2227 11.0332 18.1699ZM13.7539 11.0059L18.5117 11.0059L18.5117 9.20117C18.5117 7.56055 17.5547 6.45312 16.1328 6.45312C14.6973 6.45312 13.7539 7.56055 13.7539 9.20117Z" fill="white"/>
 </g>
</svg>
