<svg version="1.1" xmlns="http://www.w3.org/2000/svg" xmlns:xlink="http://www.w3.org/1999/xlink" viewBox="0 0 35.7383 24.6018">
 <g>
  
  <path d="M35.3828 13.8527L35.3828 5.2804C35.3828 2.81947 33.7285 1.1515 31.2539 1.1515L4.10156 1.16517C1.6543 1.16517 0 2.84681 0 5.32142L0 13.8527C0 17.3937 1.51758 19.5675 5.16797 20.6476L17.0078 24.0929C20.1797 25.0226 22.2168 24.6535 25.0469 23.1906L32.7305 19.2394C34.9043 18.1183 35.3828 16.7785 35.3828 13.8527ZM33.1816 13.8527C33.1816 15.8761 32.7988 16.7648 31.3359 17.5031L23.8711 21.3175C21.5195 22.507 19.8516 22.7531 17.0078 21.9054L5.81055 18.5831C3.24023 17.8312 2.20117 16.341 2.20117 13.8527L2.20117 5.36243C2.20117 4.15931 2.9668 3.36634 4.14258 3.36634L31.2266 3.35267C32.4023 3.35267 33.1816 4.13197 33.1816 5.32142Z" style="fill:var(--color-0,hsl(0 0 0/0.85))"></path>
  <path d="M8.03906 16.7511L11.8125 16.7511C12.25 16.7511 12.6055 16.382 12.6055 15.9445C12.6055 15.5206 12.25 15.1515 11.8125 15.1515L8.99609 15.1515L8.99609 6.90736C8.99609 6.4015 8.55859 5.964 8.05273 5.964C7.5332 5.964 7.0957 6.4015 7.0957 6.90736L7.0957 15.7531C7.0957 16.3683 7.4375 16.7511 8.03906 16.7511ZM16.9395 16.9835C18.9766 16.9835 20.2344 15.8214 20.2344 13.8253C20.2344 12.13 19.373 11.337 17.8418 10.7492L17.1035 10.4757C16.2422 10.1476 15.627 9.69642 15.627 8.7804C15.627 7.97376 16.1191 7.41322 16.8848 7.41322C17.7051 7.41322 18.1426 8.01478 18.293 8.69837C18.4297 9.14954 18.7441 9.31361 19.168 9.31361C19.6738 9.31361 19.9883 8.99915 19.9883 8.50697C19.9883 8.39759 19.9883 8.28822 19.9199 8.02845C19.5234 6.63392 18.3477 5.85462 16.8848 5.85462C15.0664 5.85462 13.7539 7.0304 13.7539 8.93079C13.7539 10.5851 14.7656 11.4601 16.1055 11.9796L16.8301 12.2667C17.6914 12.5949 18.3613 13.0187 18.3613 13.9894C18.3613 14.837 17.8281 15.4249 16.9531 15.4249C16.0918 15.4249 15.5723 14.8507 15.4219 14.1398C15.3125 13.6749 14.9844 13.4699 14.5469 13.4699C14.041 13.4699 13.7129 13.839 13.7129 14.3449C13.7129 14.5773 13.7266 14.6593 13.7949 14.8917C14.1914 16.2726 15.4492 16.9835 16.9395 16.9835ZM22.832 16.7511L25.6211 16.7511C27.4805 16.7511 28.5469 15.5206 28.5469 13.757C28.5469 12.4718 27.7676 11.296 26.5234 11.173L26.5234 11.1046C27.5215 10.9269 28.2188 9.81947 28.2188 8.7804C28.2188 7.08509 27.084 6.12806 25.5391 6.12806L22.832 6.12806C22.2168 6.12806 21.875 6.55189 21.875 7.12611L21.875 15.7531C21.875 16.3683 22.2305 16.7511 22.832 16.7511ZM23.7617 10.6398L23.7617 7.59095L24.9922 7.59095C25.9902 7.59095 26.373 8.21986 26.373 9.06751C26.373 10.0382 25.8125 10.6398 24.8418 10.6398ZM23.7617 15.3019L23.7617 11.9249L24.9922 11.9249C25.9492 11.9249 26.6191 12.4445 26.6191 13.6066C26.6191 14.6593 26.0996 15.3019 25.0332 15.3019Z" style="fill:var(--color-1,hsl(0 0 0/0.85))"></path>
 </g>
</svg>