<?xml version="1.0" encoding="UTF-8"?>
<!--Generator: Apple Native CoreSVG 326-->
<!DOCTYPE svg
PUBLIC "-//W3C//DTD SVG 1.1//EN"
       "http://www.w3.org/Graphics/SVG/1.1/DTD/svg11.dtd">
<svg version="1.1" xmlns="http://www.w3.org/2000/svg" xmlns:xlink="http://www.w3.org/1999/xlink" viewBox="0 0 31.8965 23.8574">
 <g>
  <rect height="23.8574" opacity="0" width="31.8965" x="0" y="0"/>
  <path d="M11.4707 0C3.54102 0 0 3.65039 0 11.1152L0 19.6875C0 22.4492 1.42188 23.8438 4.19727 23.8438L27.3438 23.8438C30.1191 23.8438 31.541 22.4355 31.541 19.6875L31.541 11.1152C31.541 3.65039 28 0 20.0703 0Z" fill="white" fill-opacity="0.85"/>
  <path d="M10.9512 17.418C10.3223 17.418 9.98047 17.0352 9.98047 16.3926L9.98047 7.28711C9.98047 6.74023 10.418 6.28906 10.9648 6.28906C11.498 6.28906 11.9492 6.74023 11.9492 7.28711L11.9492 15.7637L14.8477 15.7637C15.2988 15.7637 15.668 16.1328 15.668 16.584C15.668 17.0488 15.2988 17.418 14.8477 17.418ZM18.8809 17.582C18.334 17.582 17.8828 17.1309 17.8828 16.584L17.8828 8.10742L16.1875 8.10742C15.7227 8.10742 15.3672 7.73828 15.3672 7.25977C15.3672 6.80859 15.7227 6.45312 16.1875 6.45312L21.5059 6.45312C21.957 6.45312 22.3262 6.80859 22.3262 7.25977C22.3262 7.73828 21.957 8.10742 21.5059 8.10742L19.8652 8.10742L19.8652 16.584C19.8652 17.1309 19.4141 17.582 18.8809 17.582Z" fill="white"/>
 </g>
</svg>
