<?xml version="1.0" encoding="UTF-8"?>
<!--Generator: Apple Native CoreSVG 326-->
<!DOCTYPE svg
PUBLIC "-//W3C//DTD SVG 1.1//EN"
       "http://www.w3.org/Graphics/SVG/1.1/DTD/svg11.dtd">
<svg version="1.1" xmlns="http://www.w3.org/2000/svg" xmlns:xlink="http://www.w3.org/1999/xlink" viewBox="0 0 28.2461 27.9043">
 <g>
  <rect height="27.9043" opacity="0" width="28.2461" x="0" y="0"/>
  <path d="M13.9453 27.8906C21.6426 27.8906 27.8906 21.6426 27.8906 13.9453C27.8906 6.24805 21.6426 0 13.9453 0C6.24805 0 0 6.24805 0 13.9453C0 21.6426 6.24805 27.8906 13.9453 27.8906ZM13.9453 25.5664C7.51953 25.5664 2.32422 20.3711 2.32422 13.9453C2.32422 7.51953 7.51953 2.32422 13.9453 2.32422C20.3711 2.32422 25.5664 7.51953 25.5664 13.9453C25.5664 20.3711 20.3711 25.5664 13.9453 25.5664Z" fill="white" fill-opacity="0.85"/>
  <path d="M9.06445 19.4824L13.002 19.4824C13.4531 19.4824 13.8223 19.1133 13.8223 18.6484C13.8223 18.1973 13.4531 17.8281 13.002 17.8281L10.0762 17.8281L10.0762 9.24219C10.0762 8.70898 9.625 8.25781 9.07812 8.25781C8.54492 8.25781 8.09375 8.70898 8.09375 9.24219L8.09375 18.457C8.09375 19.0996 8.43555 19.4824 9.06445 19.4824ZM17.0625 19.6465C17.6094 19.6465 18.0469 19.209 18.0469 18.6484L18.0469 10.0762L19.7148 10.0762C20.166 10.0762 20.5215 9.70703 20.5215 9.24219C20.5215 8.79102 20.166 8.42188 19.7148 8.42188L14.3555 8.42188C13.8906 8.42188 13.5215 8.79102 13.5215 9.24219C13.5215 9.70703 13.8906 10.0762 14.3555 10.0762L16.0645 10.0762L16.0645 18.6484C16.0645 19.209 16.502 19.6465 17.0625 19.6465Z" fill="white" fill-opacity="0.85"/>
 </g>
</svg>
