<svg version="1.1" xmlns="http://www.w3.org/2000/svg" xmlns:xlink="http://www.w3.org/1999/xlink" viewBox="0 0 36.3981 26.4004">
 <g>
  
  <path d="M10.324 24.6777L4.951 25.7168C1.38264 26.4004-0.709158 24.1582 0.22053 20.6719L4.54084 4.29297C5.22444 1.73633 7.28889 0 9.72248 0C12.5799 0 14.5076 1.8457 14.5076 4.59375L14.5076 15.791L12.8944 16.1465L12.3065 15.6162L12.3065 4.59375C12.3065 3.14453 11.2674 2.20117 9.72248 2.20117C8.31428 2.20117 7.11115 3.24023 6.67365 4.85352L2.38069 21.1641C1.91584 22.9141 2.9549 23.8574 4.5135 23.5703L9.92756 22.5176C11.7733 22.1484 12.3065 21.5059 12.3065 19.4688L12.3065 18.5017L14.5076 18.0332L14.5076 19.4687C14.5076 22.5449 13.2225 24.1172 10.324 24.6777ZM26.3201 0C28.7537 0 30.8182 1.73633 31.5018 4.29297L35.8221 20.6719C36.7518 24.1582 34.66 26.4004 31.0916 25.7168L25.7186 24.6777C22.8201 24.1172 21.535 22.5449 21.535 19.4687L21.535 18.0332L23.7362 18.5017L23.7362 19.4688C23.7362 21.5059 24.2694 22.1484 26.1151 22.5176L31.5291 23.5703C33.0877 23.8574 34.1268 22.9141 33.6619 21.1641L29.369 4.85352C28.9315 3.24023 27.7283 2.20117 26.3201 2.20117C24.7615 2.20117 23.7362 3.14453 23.7362 4.59375L23.7362 15.6162L23.1483 16.1465L21.535 15.791L21.535 4.59375C21.535 1.8457 23.4627 0 26.3201 0Z" style="fill:var(--color-0,#55bef0)"></path>
  <path d="M7.05647 19.6191L14.5076 18.0332L14.5076 15.791L12.8944 16.1465L8.71076 12.373C8.28694 11.9902 7.54865 12.0039 7.1385 12.4414C6.75569 12.8926 6.81037 13.6172 7.24787 14.0137L10.2557 16.707L6.57795 17.4863C6.03108 17.5957 5.63459 18.1973 5.74397 18.7715C5.85334 19.3594 6.48225 19.7422 7.05647 19.6191ZM28.9862 19.6191C29.5604 19.7422 30.1893 19.3594 30.2987 18.7715C30.408 18.1973 30.0115 17.5957 29.4647 17.4863L25.7869 16.707L28.7947 14.0137C29.2322 13.6172 29.2869 12.8926 28.9041 12.4414C28.494 12.0039 27.7557 11.9902 27.3319 12.373L23.1483 16.1465L21.535 15.791L21.535 18.0332Z" style="fill:var(--color-1,hsl(199.35 83.78 63.73/0.5))"></path>
  <path d="M18.0213 17.3086L21.535 18.0332L21.535 15.791L19.1014 15.2715L19.1014 1.72266C19.1014 1.12109 18.6229 0.628906 18.0213 0.628906C17.4197 0.628906 16.9276 1.12109 16.9276 1.72266L16.9276 15.2715L14.5076 15.791L14.5076 18.0332Z" style="fill:var(--color-2,hsl(0 0 0/0.25))"></path>
 </g>
</svg>