<?xml version="1.0" encoding="UTF-8"?>
<!--Generator: Apple Native CoreSVG 326-->
<!DOCTYPE svg
PUBLIC "-//W3C//DTD SVG 1.1//EN"
       "http://www.w3.org/Graphics/SVG/1.1/DTD/svg11.dtd">
<svg version="1.1" xmlns="http://www.w3.org/2000/svg" xmlns:xlink="http://www.w3.org/1999/xlink" viewBox="0 0 28.2461 27.9043">
 <g>
  <rect height="27.9043" opacity="0" width="28.2461" x="0" y="0"/>
  <path d="M13.9453 27.8906C21.6426 27.8906 27.8906 21.6426 27.8906 13.9453C27.8906 6.24805 21.6426 0 13.9453 0C6.24805 0 0 6.24805 0 13.9453C0 21.6426 6.24805 27.8906 13.9453 27.8906ZM13.9453 25.5664C7.51953 25.5664 2.32422 20.3711 2.32422 13.9453C2.32422 7.51953 7.51953 2.32422 13.9453 2.32422C20.3711 2.32422 25.5664 7.51953 25.5664 13.9453C25.5664 20.3711 20.3711 25.5664 13.9453 25.5664Z" fill="white" fill-opacity="0.85"/>
  <path d="M8.61328 20.2891C9.24219 20.2891 9.61133 19.8789 9.61133 19.168L9.61133 11.2793L9.73438 11.2793L12.8789 19.1543C13.084 19.6465 13.3984 19.8789 13.918 19.8789C14.4238 19.8789 14.7656 19.6465 14.957 19.1543L18.1289 11.2793L18.2383 11.2793L18.2383 19.168C18.2383 19.8652 18.6074 20.2891 19.209 20.2891C19.8516 20.2891 20.2207 19.8789 20.2207 19.168L20.2207 8.69531C20.2207 7.94336 19.6875 7.42383 18.9355 7.42383C18.2793 7.42383 17.8418 7.72461 17.5957 8.3125L13.9727 17.4043L13.9043 17.4043L10.2539 8.3125C10.0215 7.72461 9.58398 7.42383 8.92773 7.42383C8.16211 7.42383 7.62891 7.94336 7.62891 8.69531L7.62891 19.168C7.62891 19.8652 8.01172 20.2891 8.61328 20.2891Z" fill="white" fill-opacity="0.85"/>
 </g>
</svg>
