<?xml version="1.0" encoding="UTF-8"?>
<!--Generator: Apple Native CoreSVG 326-->
<!DOCTYPE svg
PUBLIC "-//W3C//DTD SVG 1.1//EN"
       "http://www.w3.org/Graphics/SVG/1.1/DTD/svg11.dtd">
<svg version="1.1" xmlns="http://www.w3.org/2000/svg" xmlns:xlink="http://www.w3.org/1999/xlink" viewBox="0 0 32.5938 24.5684">
 <g>
  <rect height="24.5684" opacity="0" width="32.5938" x="0" y="0"/>
  <path d="M10.7734 24.541L21.4648 24.541C29.3945 24.541 32.2383 21.6016 32.2383 14.2871L32.2383 10.2676C32.2383 2.95312 29.3945 0 21.4648 0L10.7734 0C2.84375 0 0 2.95312 0 10.2676L0 14.2871C0 21.6016 2.84375 24.541 10.7734 24.541ZM10.7734 22.3398C4.32031 22.3398 2.20117 20.248 2.20117 14.2871L2.20117 10.2676C2.20117 4.30664 4.32031 2.20117 10.7734 2.20117L21.4648 2.20117C27.918 2.20117 30.0371 4.30664 30.0371 10.2676L30.0371 14.2871C30.0371 20.248 27.918 22.3398 21.4648 22.3398Z" fill="white" fill-opacity="0.85"/>
  <path d="M8.28516 18.0059C8.83203 18.0059 9.17383 17.6367 9.17383 17.0488L9.17383 9.66602L9.25586 9.66602L11.1152 16.8984C11.2383 17.418 11.5801 17.8008 12.127 17.8008C12.6875 17.8008 12.9746 17.4316 13.125 16.8848L14.9844 9.66602L15.0527 9.66602L15.0527 17.0488C15.0527 17.6367 15.3809 18.0059 15.9414 18.0059C16.5156 18.0059 16.8301 17.6367 16.8301 17.0488L16.8301 7.98438C16.8301 7.0957 16.2832 6.58984 15.4219 6.58984C14.6289 6.58984 14.1914 6.97266 14 7.73828L12.1543 15.1895L12.0859 15.1895L10.1992 7.73828C10.0078 6.97266 9.55664 6.58984 8.80469 6.58984C7.94336 6.58984 7.39648 7.12305 7.39648 7.98438L7.39648 17.0488C7.39648 17.6367 7.73828 18.0059 8.28516 18.0059ZM19.5371 17.8008L24.2812 17.8008C24.7598 17.8008 25.0469 17.4863 25.0469 17.0078C25.0469 16.4883 24.7461 16.2012 24.2812 16.2012L21.0273 16.2012L21.0273 16.0918L23.0234 13.5625C24.3906 11.8672 24.8418 10.8555 24.8418 9.65234C24.8418 7.80664 23.584 6.4668 21.6973 6.4668C19.9609 6.4668 18.6211 7.91602 18.6211 9.33789C18.6211 9.84375 18.9219 10.1992 19.4414 10.1992C19.8926 10.1992 20.1797 9.99414 20.3164 9.54297C20.5762 8.62695 20.9043 8.05273 21.6973 8.05273C22.5176 8.05273 22.9824 8.77734 22.9824 9.74805C22.9824 10.8418 22.2168 11.9492 21.4922 12.8789L19.1133 15.9141C18.8672 16.2422 18.6074 16.584 18.6074 17.0078C18.6074 17.4727 18.9082 17.8008 19.5371 17.8008Z" fill="white" fill-opacity="0.85"/>
 </g>
</svg>
