<svg version="1.1" xmlns="http://www.w3.org/2000/svg" xmlns:xlink="http://www.w3.org/1999/xlink" viewBox="0 0 32.5938 24.5684">
 <g>
  
  <path d="M10.7734 24.541L21.4648 24.541C29.3945 24.541 32.2383 21.6016 32.2383 14.2871L32.2383 10.2676C32.2383 2.95312 29.3945 0 21.4648 0L10.7734 0C2.84375 0 0 2.95312 0 10.2676L0 14.2871C0 21.6016 2.84375 24.541 10.7734 24.541Z" style="fill:var(--color-0,hsl(0 0 0/0.85))"></path>
  <path d="M8.02539 18.1836C7.46484 18.1836 7.10938 17.8008 7.10938 17.1992L7.10938 7.86133C7.10938 6.95898 7.68359 6.41211 8.57227 6.41211C9.35156 6.41211 9.81641 6.80859 10.0215 7.60156L11.9492 15.2715L12.0176 15.2715L13.918 7.60156C14.123 6.80859 14.5742 6.41211 15.3945 6.41211C16.2832 6.41211 16.8574 6.93164 16.8574 7.86133L16.8574 17.1992C16.8574 17.8008 16.5293 18.1836 15.9277 18.1836C15.3535 18.1836 15.0117 17.8008 15.0117 17.1992L15.0117 9.59766L14.9434 9.59766L13.0293 17.0215C12.8789 17.5957 12.5781 17.9785 11.9902 17.9785C11.4297 17.9785 11.0742 17.582 10.9512 17.0352L9.03711 9.59766L8.95508 9.59766L8.95508 17.1992C8.95508 17.8008 8.59961 18.1836 8.02539 18.1836ZM19.6465 17.9785C18.9902 17.9785 18.6895 17.6367 18.6895 17.1582C18.6895 16.707 18.9492 16.3652 19.209 16.0234L21.6562 12.9062C22.3945 11.9492 23.1875 10.8008 23.1875 9.66602C23.1875 8.66797 22.709 7.92969 21.875 7.92969C21.0547 7.92969 20.7266 8.51758 20.4531 9.46094C20.3027 9.92578 20.0156 10.1445 19.5508 10.1445C19.0039 10.1445 18.7031 9.77539 18.7031 9.24219C18.7031 7.7793 20.0703 6.28906 21.875 6.28906C23.8164 6.28906 25.1152 7.66992 25.1152 9.57031C25.1152 10.8145 24.6504 11.8535 23.2422 13.6035L21.1914 16.2012L21.1914 16.3242L24.541 16.3242C25.0195 16.3242 25.334 16.6113 25.334 17.1582C25.334 17.6504 25.0332 17.9785 24.541 17.9785Z" style="fill:var(--color-1,white)"></path>
 </g>
</svg>