<?xml version="1.0" encoding="UTF-8"?>
<!--Generator: Apple Native CoreSVG 326-->
<!DOCTYPE svg
PUBLIC "-//W3C//DTD SVG 1.1//EN"
       "http://www.w3.org/Graphics/SVG/1.1/DTD/svg11.dtd">
<svg version="1.1" xmlns="http://www.w3.org/2000/svg" xmlns:xlink="http://www.w3.org/1999/xlink" viewBox="0 0 32.5938 24.5684">
 <g>
  <rect height="24.5684" opacity="0" width="32.5938" x="0" y="0"/>
  <path d="M10.7734 24.541L21.4648 24.541C29.3945 24.541 32.2383 21.6016 32.2383 14.2871L32.2383 10.2676C32.2383 2.95312 29.3945 0 21.4648 0L10.7734 0C2.84375 0 0 2.95312 0 10.2676L0 14.2871C0 21.6016 2.84375 24.541 10.7734 24.541ZM10.7734 22.3398C4.32031 22.3398 2.20117 20.248 2.20117 14.2871L2.20117 10.2676C2.20117 4.30664 4.32031 2.20117 10.7734 2.20117L21.4648 2.20117C27.918 2.20117 30.0371 4.30664 30.0371 10.2676L30.0371 14.2871C30.0371 20.248 27.918 22.3398 21.4648 22.3398Z" fill="white" fill-opacity="0.85"/>
  <path d="M8.10742 18.0059C8.6543 18.0059 8.99609 17.6367 8.99609 17.0488L8.99609 9.66602L9.07812 9.66602L10.9375 16.8984C11.0742 17.418 11.4023 17.8008 11.9492 17.8008C12.5098 17.8008 12.8105 17.4316 12.9473 16.8848L14.8066 9.66602L14.875 9.66602L14.875 17.0488C14.875 17.6367 15.2031 18.0059 15.7637 18.0059C16.3379 18.0059 16.6523 17.6367 16.6523 17.0488L16.6523 7.98438C16.6523 7.0957 16.1191 6.58984 15.2441 6.58984C14.4648 6.58984 14.0137 6.97266 13.8359 7.73828L11.9766 15.1895L11.9219 15.1895L10.0215 7.73828C9.83008 6.97266 9.37891 6.58984 8.62695 6.58984C7.76562 6.58984 7.21875 7.12305 7.21875 7.98438L7.21875 17.0488C7.21875 17.6367 7.57422 18.0059 8.10742 18.0059ZM21.834 18.0469C23.8027 18.0469 25.3066 16.8164 25.3066 14.7656C25.3066 13.0703 24.2949 12.2363 23.1465 12.1133L23.1465 12.0723C24.377 11.7441 24.9785 10.6367 24.9785 9.48828C24.9785 7.60156 23.5703 6.52148 21.793 6.52148C20.3711 6.52148 19.1543 7.31445 18.7578 8.53125C18.6895 8.79102 18.6621 9.03711 18.6621 9.26953C18.6621 9.7207 18.9492 10.0762 19.4961 10.0762C19.9609 10.0762 20.2344 9.89844 20.3711 9.41992C20.5898 8.61328 21.0137 8.10742 21.793 8.10742C22.6953 8.10742 23.1191 8.80469 23.1191 9.70703C23.1191 10.7051 22.5586 11.4297 21.5332 11.4297L21.2188 11.4297C20.7539 11.4297 20.4531 11.7168 20.4531 12.168C20.4531 12.6191 20.7676 12.8789 21.2188 12.8789L21.5605 12.8789C22.7227 12.8789 23.3652 13.5215 23.3652 14.7109C23.3652 15.6543 22.8594 16.4609 21.8477 16.4609C20.8496 16.4609 20.3984 15.791 20.2344 15.1621C20.1113 14.7246 19.8105 14.4922 19.373 14.4922C18.8398 14.4922 18.4844 14.8203 18.4844 15.3535C18.4844 15.5996 18.5117 15.8457 18.5801 16.0645C18.9766 17.3359 20.3711 18.0469 21.834 18.0469Z" fill="white" fill-opacity="0.85"/>
 </g>
</svg>
