<svg version="1.1" xmlns="http://www.w3.org/2000/svg" xmlns:xlink="http://www.w3.org/1999/xlink" viewBox="0 0 32.5938 24.5684">
 <g>
  
  <path d="M10.7734 24.541L21.4648 24.541C29.3945 24.541 32.2383 21.6016 32.2383 14.2871L32.2383 10.2676C32.2383 2.95312 29.3945 0 21.4648 0L10.7734 0C2.84375 0 0 2.95312 0 10.2676L0 14.2871C0 21.6016 2.84375 24.541 10.7734 24.541Z" style="fill:var(--color-0,hsl(0 0 0/0.85))"></path>
  <path d="M7.84766 18.1836C7.30078 18.1836 6.93164 17.8008 6.93164 17.1992L6.93164 7.86133C6.93164 6.95898 7.49219 6.41211 8.38086 6.41211C9.16016 6.41211 9.63867 6.80859 9.83008 7.60156L11.7852 15.2715L11.8398 15.2715L13.7539 7.60156C13.9316 6.80859 14.3965 6.41211 15.2031 6.41211C16.1191 6.41211 16.666 6.93164 16.666 7.86133L16.666 17.1992C16.666 17.8008 16.3379 18.1836 15.75 18.1836C15.1621 18.1836 14.8203 17.8008 14.8203 17.1992L14.8203 9.59766L14.752 9.59766L12.8379 17.0215C12.7012 17.5957 12.3867 17.9785 11.8125 17.9785C11.2383 17.9785 10.9102 17.582 10.7598 17.0352L8.85938 9.59766L8.76367 9.59766L8.76367 17.1992C8.76367 17.8008 8.4082 18.1836 7.84766 18.1836ZM22.0117 18.2246C20.5078 18.2246 19.0586 17.5 18.6484 16.1875C18.5801 15.9551 18.5391 15.709 18.5391 15.4492C18.5391 14.9023 18.9219 14.5605 19.4824 14.5605C19.9336 14.5605 20.2344 14.793 20.3711 15.2578C20.5352 15.9004 21 16.584 22.0254 16.584C23.0645 16.584 23.584 15.75 23.584 14.7793C23.584 13.5625 22.9277 12.9062 21.7246 12.9062L21.3828 12.9062C20.9043 12.9062 20.5898 12.6328 20.5898 12.168C20.5898 11.7031 20.9043 11.4023 21.3828 11.4023L21.6973 11.4023C22.7637 11.4023 23.3379 10.6504 23.3379 9.625C23.3379 8.69531 22.9004 7.98438 21.9707 7.98438C21.1641 7.98438 20.7402 8.50391 20.5078 9.33789C20.3711 9.83008 20.084 10.0078 19.6055 10.0078C19.0312 10.0078 18.7441 9.63867 18.7441 9.17383C18.7441 8.92773 18.7715 8.68164 18.8398 8.4082C19.25 7.16406 20.5078 6.34375 21.9707 6.34375C23.8027 6.34375 25.2656 7.45117 25.2656 9.40625C25.2656 10.582 24.6367 11.7305 23.3516 12.0723L23.3516 12.1133C24.5547 12.2363 25.5938 13.0977 25.5938 14.8477C25.5938 16.9531 24.0488 18.2246 22.0117 18.2246Z" style="fill:var(--color-1,white)"></path>
 </g>
</svg>