<?xml version="1.0" encoding="UTF-8"?>
<!--Generator: Apple Native CoreSVG 326-->
<!DOCTYPE svg
PUBLIC "-//W3C//DTD SVG 1.1//EN"
       "http://www.w3.org/Graphics/SVG/1.1/DTD/svg11.dtd">
<svg version="1.1" xmlns="http://www.w3.org/2000/svg" xmlns:xlink="http://www.w3.org/1999/xlink" viewBox="0 0 32.5938 24.5684">
 <g>
  <rect height="24.5684" opacity="0" width="32.5938" x="0" y="0"/>
  <path d="M10.7734 24.541L21.4648 24.541C29.3945 24.541 32.2383 21.6016 32.2383 14.2871L32.2383 10.2676C32.2383 2.95312 29.3945 0 21.4648 0L10.7734 0C2.84375 0 0 2.95312 0 10.2676L0 14.2871C0 21.6016 2.84375 24.541 10.7734 24.541Z" fill="white" fill-opacity="0.85"/>
  <path d="M7.66992 18.1836C7.10938 18.1836 6.75391 17.8008 6.75391 17.1992L6.75391 7.86133C6.75391 6.95898 7.31445 6.41211 8.2168 6.41211C8.98242 6.41211 9.46094 6.80859 9.66602 7.60156L11.5938 15.2715L11.6484 15.2715L13.5625 7.60156C13.7676 6.80859 14.2188 6.41211 15.0391 6.41211C15.9277 6.41211 16.4883 6.93164 16.4883 7.86133L16.4883 17.1992C16.4883 17.8008 16.1738 18.1836 15.5586 18.1836C14.998 18.1836 14.6562 17.8008 14.6562 17.1992L14.6562 9.59766L14.5742 9.59766L12.6602 17.0215C12.5234 17.5957 12.2227 17.9785 11.6348 17.9785C11.0605 17.9785 10.7188 17.582 10.5957 17.0352L8.68164 9.59766L8.59961 9.59766L8.59961 17.1992C8.59961 17.8008 8.23047 18.1836 7.66992 18.1836ZM23.584 18.1562C23.1328 18.1562 22.5996 17.8965 22.5996 17.1445L22.5996 15.75L19.4414 15.75C18.7578 15.75 18.2793 15.2852 18.2793 14.6016C18.2793 14.1641 18.375 13.7949 18.6074 13.248L21.1094 7.7793C21.5059 6.9043 21.9707 6.39844 22.9824 6.39844C23.8984 6.39844 24.541 6.94531 24.541 7.92969L24.541 14.1094L25.0469 14.1094C25.6074 14.1094 25.8535 14.4648 25.8535 14.916C25.8535 15.3945 25.5938 15.75 25.0469 15.75L24.541 15.75L24.541 17.1445C24.541 17.8281 24.1172 18.1562 23.584 18.1562ZM22.6406 14.1504L22.6406 8.17578L22.5859 8.17578L20.0293 14.0547L20.0293 14.1504Z" fill="white"/>
 </g>
</svg>
