<svg version="1.1" xmlns="http://www.w3.org/2000/svg" xmlns:xlink="http://www.w3.org/1999/xlink" viewBox="0 0 32.5938 24.5684">
 <g>
  
  <path d="M10.7734 24.541L21.4648 24.541C29.3945 24.541 32.2383 21.6016 32.2383 14.2871L32.2383 10.2676C32.2383 2.95312 29.3945 0 21.4648 0L10.7734 0C2.84375 0 0 2.95312 0 10.2676L0 14.2871C0 21.6016 2.84375 24.541 10.7734 24.541ZM10.7734 22.3398C4.32031 22.3398 2.20117 20.248 2.20117 14.2871L2.20117 10.2676C2.20117 4.30664 4.32031 2.20117 10.7734 2.20117L21.4648 2.20117C27.918 2.20117 30.0371 4.30664 30.0371 10.2676L30.0371 14.2871C30.0371 20.248 27.918 22.3398 21.4648 22.3398Z" style="fill:var(--color-0,hsl(0 0 0/0.85))"></path>
  <path d="M7.94336 18.0059C8.47656 18.0059 8.83203 17.6367 8.83203 17.0488L8.83203 9.66602L8.91406 9.66602L10.7734 16.8984C10.8965 17.418 11.2246 17.8008 11.7852 17.8008C12.3457 17.8008 12.6328 17.4316 12.7695 16.8848L14.6289 9.66602L14.7109 9.66602L14.7109 17.0488C14.7109 17.6367 15.0391 18.0059 15.5859 18.0059C16.1738 18.0059 16.4746 17.6367 16.4746 17.0488L16.4746 7.98438C16.4746 7.0957 15.9414 6.58984 15.0801 6.58984C14.2871 6.58984 13.8496 6.97266 13.6582 7.73828L11.7988 15.1895L11.7441 15.1895L9.85742 7.73828C9.66602 6.97266 9.20117 6.58984 8.46289 6.58984C7.58789 6.58984 7.05469 7.12305 7.05469 7.98438L7.05469 17.0488C7.05469 17.6367 7.39648 18.0059 7.94336 18.0059ZM23.3516 17.9785C23.8711 17.9785 24.2812 17.6641 24.2812 17.0078L24.2812 15.6406L24.7734 15.6406C25.3066 15.6406 25.5527 15.2988 25.5527 14.834C25.5527 14.3965 25.3203 14.0547 24.7734 14.0547L24.2812 14.0547L24.2812 8.05273C24.2812 7.10938 23.666 6.57617 22.7773 6.57617C21.8066 6.57617 21.3555 7.06836 20.9727 7.91602L18.5391 13.2207C18.3066 13.7539 18.2246 14.1094 18.2246 14.5332C18.2246 15.1895 18.6758 15.6406 19.3457 15.6406L22.4082 15.6406L22.4082 17.0078C22.4082 17.7324 22.9277 17.9785 23.3516 17.9785ZM22.4492 14.0957L19.9062 14.0957L19.9062 14L22.3945 8.29883L22.4492 8.29883Z" style="fill:var(--color-1,hsl(0 0 0/0.85))"></path>
 </g>
</svg>