<svg version="1.1" xmlns="http://www.w3.org/2000/svg" xmlns:xlink="http://www.w3.org/1999/xlink" viewBox="0 0 25.5254 25.1699">
 <g>
  
  <path d="M4.29297 25.1699L20.877 25.1699C23.748 25.1699 25.1699 23.7617 25.1699 20.9453L25.1699 4.23828C25.1699 1.42188 23.748 0 20.877 0L4.29297 0C1.43555 0 0 1.42188 0 4.23828L0 20.9453C0 23.7617 1.43555 25.1699 4.29297 25.1699ZM4.32031 22.9688C2.95312 22.9688 2.20117 22.2441 2.20117 20.8223L2.20117 4.36133C2.20117 2.93945 2.95312 2.20117 4.32031 2.20117L20.8496 2.20117C22.2031 2.20117 22.9688 2.93945 22.9688 4.36133L22.9688 20.8223C22.9688 22.2441 22.2031 22.9688 20.8496 22.9688Z" style="fill:var(--color-0,hsl(0 0 0/0.85))"></path>
  <path d="M7.27344 18.9219C7.90234 18.9219 8.28516 18.5117 8.28516 17.8008L8.28516 9.91211L8.39453 9.91211L11.5391 17.7871C11.7441 18.2793 12.0723 18.5117 12.5781 18.5117C13.084 18.5117 13.4258 18.2793 13.6172 17.7871L16.7891 9.91211L16.8984 9.91211L16.8984 17.8008C16.8984 18.498 17.2676 18.9219 17.8691 18.9219C18.5117 18.9219 18.8809 18.5117 18.8809 17.8008L18.8809 7.32812C18.8809 6.57617 18.3477 6.05664 17.5957 6.05664C16.9395 6.05664 16.502 6.35742 16.2559 6.94531L12.6328 16.0371L12.5645 16.0371L8.91406 6.94531C8.68164 6.35742 8.24414 6.05664 7.58789 6.05664C6.82227 6.05664 6.30273 6.57617 6.30273 7.32812L6.30273 17.8008C6.30273 18.498 6.67188 18.9219 7.27344 18.9219Z" style="fill:var(--color-1,hsl(0 0 0/0.85))"></path>
 </g>
</svg>