<svg version="1.1" xmlns="http://www.w3.org/2000/svg" xmlns:xlink="http://www.w3.org/1999/xlink" viewBox="0 0 44.3105 27.3027">
 <g>
  
  <path d="M37.1263 4.89453L34.371 4.89453C34.1746 4.79386 33.9278 4.74414 33.6328 4.74414L10.3223 4.74414C9.43359 4.74414 8.99609 5.18164 8.99609 6.05664L8.99609 21.6699L27.0703 21.6699L27.0703 23.0234C27.0703 23.6725 27.1779 24.2644 27.3809 24.7871L3.80078 24.7871C2.95312 24.7871 2.25586 24.0898 2.25586 23.2285C2.25586 22.3672 2.95312 21.6699 3.80078 21.6699L6.79492 21.6699L6.79492 5.44141C6.79492 3.52734 7.91602 2.54297 9.7207 2.54297L34.2344 2.54297C35.9435 2.54297 36.9449 3.33922 37.1263 4.89453Z" style="fill:var(--color-0,hsl(0 0 0/0.85))"></path>
  <path d="M31.459 25.5801L37.6934 25.5801C39.3887 25.5801 40.3594 24.6504 40.3594 23.0234L40.3594 9.40625C40.3594 7.7793 39.3887 6.83594 37.6934 6.83594L31.459 6.83594C29.7773 6.83594 28.793 7.7793 28.793 9.40625L28.793 23.0234C28.793 24.6504 29.7637 25.5801 31.459 25.5801ZM31.5 23.7891C30.8984 23.7891 30.584 23.4609 30.584 22.8457L30.584 9.58398C30.584 8.95508 30.8984 8.62695 31.5 8.62695L37.666 8.62695C38.2676 8.62695 38.5684 8.95508 38.5684 9.58398L38.5684 22.8457C38.5684 23.4609 38.2676 23.7891 37.666 23.7891ZM32.7168 23.0918L36.4219 23.0918C36.6953 23.0918 36.9141 22.9004 36.9141 22.6133C36.9141 22.3535 36.6953 22.1484 36.4219 22.1484L32.7168 22.1484C32.4297 22.1484 32.252 22.3535 32.252 22.6133C32.252 22.9141 32.416 23.0918 32.7168 23.0918ZM33.4824 10.582L35.6289 10.582C35.9844 10.582 36.2715 10.2949 36.2715 9.93945C36.2715 9.59766 35.9844 9.32422 35.6289 9.32422L33.4824 9.32422C33.127 9.32422 32.8535 9.59766 32.8535 9.93945C32.8535 10.2949 33.127 10.582 33.4824 10.582Z" style="fill:var(--color-1,hsl(0 0 0/0.85))"></path>
 </g>
</svg>