<svg version="1.1" xmlns="http://www.w3.org/2000/svg" xmlns:xlink="http://www.w3.org/1999/xlink" viewBox="0 0 39.7852 22.2715">
 <g>
  
  <path d="M15.5859 2.22852L15.9277 2.22852C16.1328 2.22852 16.2422 2.32422 16.2422 2.55664L16.2422 2.70703C16.2422 3.28125 16.625 3.66406 17.1992 3.66406L22.2578 3.66406C22.8184 3.66406 23.1738 3.28125 23.1738 2.70703L23.1738 2.55664C23.1738 2.32422 23.2832 2.22852 23.5156 2.22852L23.8574 2.22852L23.8574 1.09375L15.5859 1.09375ZM0 20.7129C0 21.5742 0.697266 22.2715 1.54492 22.2715L37.8848 22.2715C38.7324 22.2715 39.4297 21.5742 39.4297 20.7129C39.4297 19.8516 38.7324 19.1543 37.8848 19.1543L34.8906 19.1543L34.8906 2.92578C34.8906 1.01172 33.8652 0.0273438 31.9648 0.0273438L7.46484 0.0273438C5.66016 0.0273438 4.53906 1.01172 4.53906 2.92578L4.53906 19.1543L1.54492 19.1543C0.697266 19.1543 0 19.8516 0 20.7129ZM6.74023 19.1543L6.74023 3.54102C6.74023 2.66602 7.17773 2.22852 8.05273 2.22852L31.377 2.22852C32.252 2.22852 32.6895 2.66602 32.6895 3.54102L32.6895 19.1543Z" style="fill:var(--color-0,hsl(0 0 0/0.85))"></path>
 </g>
</svg>