<?xml version="1.0" encoding="UTF-8"?>
<!--Generator: Apple Native CoreSVG 326-->
<!DOCTYPE svg
PUBLIC "-//W3C//DTD SVG 1.1//EN"
       "http://www.w3.org/Graphics/SVG/1.1/DTD/svg11.dtd">
<svg version="1.1" xmlns="http://www.w3.org/2000/svg" xmlns:xlink="http://www.w3.org/1999/xlink" viewBox="0 0 45.0078 27.2754">
 <g>
  <rect height="27.2754" opacity="0" width="45.0078" x="0" y="0"/>
  <path d="M36.9551 5.42773L36.9551 5.70117L34.7263 5.70117C34.6188 5.05372 34.1799 4.73047 33.4277 4.73047L10.1172 4.73047C9.22852 4.73047 8.79102 5.16797 8.79102 6.04297L8.79102 21.6562L28.8717 21.6562C29.2551 22.8351 30.0218 23.7186 31.0078 24.2539L31.1586 24.7734L3.5957 24.7734C2.74805 24.7734 2.05078 24.0762 2.05078 23.2148C2.05078 22.3535 2.74805 21.6562 3.5957 21.6562L6.58984 21.6562L6.58984 5.42773C6.58984 3.51367 7.71094 2.5293 9.51562 2.5293L34.0293 2.5293C35.9297 2.5293 36.9551 3.51367 36.9551 5.42773Z" fill="white" fill-opacity="0.85"/>
  <path d="M34.1797 25.416L38.0625 25.416C38.5684 25.416 38.9922 25.2109 39.1836 24.582L39.4434 23.6934C39.6074 23.2012 39.8398 22.873 40.3047 22.627C41.1523 22.1895 41.7812 21.3008 41.7812 19.8652L41.7812 13.1387C41.7812 11.7168 41.166 10.8281 40.3047 10.3633C39.8398 10.1035 39.6074 9.80273 39.4434 9.29688L39.1836 8.39453C39.0059 7.7793 38.5684 7.57422 38.0625 7.57422L34.1797 7.57422C33.6738 7.57422 33.209 7.7793 33.0449 8.39453L32.7852 9.29688C32.6484 9.83008 32.3613 10.1309 31.9102 10.3633C31.0898 10.8008 30.4746 11.7168 30.4746 13.1387L30.4746 19.8652C30.4746 21.3008 31.0762 22.1758 31.9102 22.627C32.375 22.873 32.6484 23.1875 32.7852 23.6934L33.0449 24.582C33.2227 25.2246 33.6738 25.416 34.1797 25.416ZM33.7148 21.1504C32.6895 21.1504 32.2109 20.6582 32.2109 19.5918L32.2109 13.3711C32.2109 12.332 32.6895 11.8398 33.7148 11.8398L38.5273 11.8398C39.5664 11.8398 40.0176 12.332 40.0176 13.3711L40.0176 19.5918C40.0176 20.6582 39.5391 21.1504 38.5273 21.1504ZM41.5352 15.9141L41.877 15.9141C42.3281 15.9141 42.6016 15.5996 42.6016 15.1074L42.6016 13.9727C42.6016 13.5078 42.3281 13.207 41.877 13.207L41.5352 13.207Z" fill="white" fill-opacity="0.85"/>
 </g>
</svg>
