<svg version="1.1" xmlns="http://www.w3.org/2000/svg" xmlns:xlink="http://www.w3.org/1999/xlink" viewBox="0 0 33.8379 16.2832">
 <g>
  
  <path d="M26.8789 11.5938C25.9219 11.6074 25.0879 10.7598 25.0879 9.78906C25.0879 8.80469 25.9219 7.9707 26.8789 7.9707C27.8496 7.9707 28.6699 8.80469 28.6699 9.78906C28.6699 10.7598 27.8496 11.5664 26.8789 11.5938ZM4.29297 16.1328L29.1895 16.1328C32.0469 16.1328 33.4824 14.7109 33.4824 11.8945L33.4824 4.22461C33.4824 1.42188 32.0469 0 29.1895 0L4.29297 0C1.42188 0 0 1.4082 0 4.22461L0 11.8945C0 14.7246 1.42188 16.1328 4.29297 16.1328Z" style="fill:var(--color-0,hsl(0 0 0/0.85))"></path>
 </g>
</svg>