<svg version="1.1" xmlns="http://www.w3.org/2000/svg" xmlns:xlink="http://www.w3.org/1999/xlink" viewBox="0 0 35.1367 21.2598">
 <g>
  
  <path d="M5.75586 16.7207C6.34375 16.7207 6.80859 16.2422 6.80859 15.6406L6.80859 5.53711C6.80859 4.96289 6.34375 4.48438 5.75586 4.48438C5.1543 4.48438 4.68945 4.96289 4.68945 5.53711L4.68945 15.6406C4.68945 16.2422 5.1543 16.7207 5.75586 16.7207ZM10.0352 15.9004C10.6504 15.9004 11.1426 15.3945 11.1426 14.7793C11.1426 14.1777 10.6504 13.6582 10.0352 13.6582C9.43359 13.6582 8.91406 14.1777 8.91406 14.7793C8.91406 15.3945 9.43359 15.9004 10.0352 15.9004ZM13.7129 15.9004C14.3145 15.9004 14.8203 15.3945 14.8203 14.7793C14.8203 14.1777 14.3145 13.6582 13.7129 13.6582C13.0977 13.6582 12.5918 14.1777 12.5918 14.7793C12.5918 15.3945 13.0977 15.9004 13.7129 15.9004ZM17.3906 15.9004C17.9922 15.9004 18.498 15.3945 18.498 14.7793C18.498 14.1777 17.9922 13.6582 17.3906 13.6582C16.7754 13.6582 16.2695 14.1777 16.2695 14.7793C16.2695 15.3945 16.7754 15.9004 17.3906 15.9004ZM21.0547 15.9004C21.6426 15.9004 22.1484 15.3945 22.1484 14.7793C22.1484 14.1777 21.6426 13.6582 21.0547 13.6582C20.4395 13.6582 19.9473 14.1777 19.9473 14.7793C19.9473 15.3945 20.4395 15.9004 21.0547 15.9004ZM24.7051 15.9004C25.3066 15.9004 25.8125 15.3945 25.8125 14.7793C25.8125 14.1777 25.3066 13.6582 24.7051 13.6582C24.0898 13.6582 23.5977 14.1777 23.5977 14.7793C23.5977 15.3945 24.0898 15.9004 24.7051 15.9004ZM11.8672 11.7168C12.4824 11.7168 12.9746 11.2109 12.9746 10.5957C12.9746 9.98047 12.4824 9.47461 11.8672 9.47461C11.2656 9.47461 10.7598 9.98047 10.7598 10.5957C10.7598 11.2109 11.2656 11.7168 11.8672 11.7168ZM15.5449 11.7168C16.1602 11.7168 16.6523 11.2109 16.6523 10.5957C16.6523 9.98047 16.1602 9.47461 15.5449 9.47461C14.9297 9.47461 14.4238 9.98047 14.4238 10.5957C14.4238 11.2109 14.9297 11.7168 15.5449 11.7168ZM19.209 11.7168C19.8105 11.7168 20.3164 11.2109 20.3164 10.5957C20.3164 9.98047 19.8105 9.47461 19.209 9.47461C18.6074 9.47461 18.1016 9.98047 18.1016 10.5957C18.1016 11.2109 18.6074 11.7168 19.209 11.7168ZM22.873 11.7168C23.4609 11.7168 23.9668 11.2109 23.9668 10.5957C23.9668 9.98047 23.4609 9.47461 22.873 9.47461C22.2578 9.47461 21.7656 9.98047 21.7656 10.5957C21.7656 11.2109 22.2578 11.7168 22.873 11.7168ZM10.0352 7.5332C10.6504 7.5332 11.1426 7.02734 11.1426 6.42578C11.1426 5.81055 10.6504 5.30469 10.0352 5.30469C9.43359 5.30469 8.91406 5.81055 8.91406 6.42578C8.91406 7.02734 9.43359 7.5332 10.0352 7.5332ZM13.7129 7.5332C14.3145 7.5332 14.8203 7.02734 14.8203 6.42578C14.8203 5.81055 14.3145 5.30469 13.7129 5.30469C13.0977 5.30469 12.5918 5.81055 12.5918 6.42578C12.5918 7.02734 13.0977 7.5332 13.7129 7.5332ZM17.3906 7.5332C17.9922 7.5332 18.498 7.02734 18.498 6.42578C18.498 5.81055 17.9922 5.30469 17.3906 5.30469C16.7754 5.30469 16.2695 5.81055 16.2695 6.42578C16.2695 7.02734 16.7754 7.5332 17.3906 7.5332ZM21.0547 7.5332C21.6426 7.5332 22.1484 7.02734 22.1484 6.42578C22.1484 5.81055 21.6426 5.30469 21.0547 5.30469C20.4395 5.30469 19.9473 5.81055 19.9473 6.42578C19.9473 7.02734 20.4395 7.5332 21.0547 7.5332ZM24.7051 7.5332C25.3066 7.5332 25.8125 7.02734 25.8125 6.42578C25.8125 5.81055 25.3066 5.30469 24.7051 5.30469C24.0898 5.30469 23.5977 5.81055 23.5977 6.42578C23.5977 7.02734 24.0898 7.5332 24.7051 7.5332ZM28.9844 16.7207C29.5723 16.7207 30.0508 16.2422 30.0508 15.6406L30.0508 5.53711C30.0508 4.96289 29.5723 4.48438 28.9844 4.48438C28.3965 4.48438 27.918 4.96289 27.918 5.53711L27.918 15.6406C27.918 16.2422 28.3965 16.7207 28.9844 16.7207ZM4.29297 21.2324L30.4883 21.2324C33.3457 21.2324 34.7812 19.8105 34.7812 16.9941L34.7812 4.23828C34.7812 1.42188 33.3457 0 30.4883 0L4.29297 0C1.42188 0 0 1.42188 0 4.23828L0 16.9941C0 19.8105 1.42188 21.2324 4.29297 21.2324ZM4.32031 19.0312C2.95312 19.0312 2.20117 18.293 2.20117 16.8711L2.20117 4.36133C2.20117 2.93945 2.95312 2.20117 4.32031 2.20117L30.4609 2.20117C31.8281 2.20117 32.5801 2.93945 32.5801 4.36133L32.5801 16.8711C32.5801 18.293 31.8145 19.0312 30.4609 19.0312Z" style="fill:var(--color-0,hsl(0 0 0/0.85))"></path>
 </g>
</svg>