<svg version="1.1" xmlns="http://www.w3.org/2000/svg" xmlns:xlink="http://www.w3.org/1999/xlink" viewBox="0 0 20.2344 32.3887">
 <g>
  
  <path d="M0 25.9902C0 30.0098 3.69141 32.3887 9.93945 32.3887C16.1875 32.3887 19.8789 30.0098 19.8789 25.9902L19.8789 6.41211C19.8789 4.82617 19.3047 3.54102 18.3477 2.63867C17.8555 2.11914 17.2402 2.10547 16.9668 2.59766C16.2559 4.16992 13.2891 5.11328 9.93945 5.11328C6.58984 5.11328 3.60938 4.16992 2.89844 2.59766C2.625 2.10547 2.00977 2.11914 1.53125 2.63867C0.574219 3.54102 0 4.82617 0 6.41211ZM9.93945 3.52734C13.0566 3.52734 15.5859 2.74805 15.5859 1.76367C15.5859 0.806641 13.0566 0.0136719 9.93945 0.0136719C6.82227 0.0136719 4.29297 0.806641 4.29297 1.76367C4.29297 2.74805 6.82227 3.52734 9.93945 3.52734Z" style="fill:var(--color-0,hsl(0 0 0/0.85))"></path>
 </g>
</svg>