<svg version="1.1" xmlns="http://www.w3.org/2000/svg" xmlns:xlink="http://www.w3.org/1999/xlink" viewBox="0 0 33.8379 18.3066">
 <g>
  
  <path d="M4.29297 18.1562L29.1895 18.1562C32.0469 18.1562 33.4824 16.7344 33.4824 13.918L33.4824 4.23828C33.4824 1.42188 32.0469 0 29.1895 0L4.29297 0C1.42188 0 0 1.4082 0 4.23828L0 13.918C0 16.748 1.42188 18.1562 4.29297 18.1562ZM4.32031 15.9551C2.95312 15.9551 2.20117 15.2168 2.20117 13.8086L2.20117 4.34766C2.20117 2.92578 2.95312 2.20117 4.32031 2.20117L29.1621 2.20117C30.5156 2.20117 31.2812 2.92578 31.2812 4.34766L31.2812 13.8086C31.2812 15.2168 30.5156 15.9551 29.1621 15.9551ZM5.26367 13.918C5.76953 13.9043 6.16602 13.5078 6.16602 13.0293L6.16602 10.8281C6.16602 10.3223 5.75586 9.92578 5.26367 9.93945C4.77148 9.92578 4.375 10.3223 4.375 10.8281L4.375 13.0156C4.375 13.5215 4.75781 13.9043 5.26367 13.918ZM8.57227 13.918C9.07812 13.9043 9.46094 13.5078 9.46094 13.0293L9.46094 10.8281C9.46094 10.3223 9.06445 9.92578 8.57227 9.93945C8.08008 9.92578 7.66992 10.3223 7.66992 10.8281L7.66992 13.0156C7.66992 13.5215 8.06641 13.9043 8.57227 13.918ZM12.0996 12.8242L17.6367 12.8242C18.1289 12.8242 18.5391 12.4141 18.5391 11.9219C18.5391 11.4297 18.1289 11.0332 17.6367 11.0332L12.0996 11.0332C11.6074 11.0332 11.1973 11.4297 11.1973 11.9219C11.1973 12.4141 11.6074 12.8242 12.0996 12.8242ZM27.6855 13.5352C28.5332 13.5215 29.2578 12.7969 29.2578 11.9355C29.2578 11.0605 28.5332 10.3223 27.6855 10.3223C26.8105 10.3223 26.0723 11.0605 26.0723 11.9355C26.0723 12.7969 26.8105 13.5488 27.6855 13.5352Z" style="fill:var(--color-0,hsl(0 0 0/0.85))"></path>
 </g>
</svg>