<?xml version="1.0" encoding="UTF-8"?>
<!--Generator: Apple Native CoreSVG 326-->
<!DOCTYPE svg
PUBLIC "-//W3C//DTD SVG 1.1//EN"
       "http://www.w3.org/Graphics/SVG/1.1/DTD/svg11.dtd">
<svg version="1.1" xmlns="http://www.w3.org/2000/svg" xmlns:xlink="http://www.w3.org/1999/xlink" viewBox="0 0 33.8379 18.3066">
 <g>
  <rect height="18.3066" opacity="0" width="33.8379" x="0" y="0"/>
  <path d="M4.29297 18.1562L29.1895 18.1562C32.0469 18.1562 33.4824 16.7344 33.4824 13.918L33.4824 4.23828C33.4824 1.42188 32.0469 0 29.1895 0L4.29297 0C1.42188 0 0 1.4082 0 4.23828L0 13.918C0 16.748 1.42188 18.1562 4.29297 18.1562ZM4.9082 13.9863C4.375 13.9727 3.97852 13.5762 3.97852 13.043L3.97852 10.8008C3.97852 10.2676 4.38867 9.85742 4.9082 9.87109C5.41406 9.85742 5.83789 10.2676 5.83789 10.8008L5.83789 13.0566C5.83789 13.5625 5.42773 13.9727 4.9082 13.9863ZM8.32617 13.9863C7.79297 13.9727 7.38281 13.5762 7.38281 13.043L7.38281 10.8008C7.38281 10.2676 7.80664 9.85742 8.32617 9.87109C8.83203 9.85742 9.24219 10.2676 9.24219 10.8008L9.24219 13.0566C9.24219 13.5625 8.8457 13.9727 8.32617 13.9863ZM11.9629 12.8516C11.457 12.8516 11.0332 12.4277 11.0332 11.9219C11.0332 11.416 11.457 11.0059 11.9629 11.0059L17.6777 11.0059C18.1836 11.0059 18.6074 11.416 18.6074 11.9219C18.6074 12.4277 18.1836 12.8516 17.6777 12.8516ZM28.0273 13.5898C27.125 13.6035 26.3594 12.8242 26.3594 11.9355C26.3594 11.0332 27.125 10.2676 28.0273 10.2676C28.9023 10.2676 29.6543 11.0332 29.6543 11.9355C29.6543 12.8242 28.9023 13.5762 28.0273 13.5898Z" fill="white" fill-opacity="0.85"/>
 </g>
</svg>
