<?xml version="1.0" encoding="UTF-8"?>
<!--Generator: Apple Native CoreSVG 326-->
<!DOCTYPE svg
PUBLIC "-//W3C//DTD SVG 1.1//EN"
       "http://www.w3.org/Graphics/SVG/1.1/DTD/svg11.dtd">
<svg version="1.1" xmlns="http://www.w3.org/2000/svg" xmlns:xlink="http://www.w3.org/1999/xlink" viewBox="0 0 34.3711 27.7129">
 <g>
  <rect height="27.7129" opacity="0" width="34.3711" x="0" y="0"/>
  <path d="M27.2617 4.23828L27.2617 6.33008L25.0605 6.33008L25.0605 4.36133C25.0605 2.93945 24.2812 2.20117 22.9277 2.20117L4.32031 2.20117C2.95312 2.20117 2.20117 2.93945 2.20117 4.36133L2.20117 17.0215C2.20117 18.4434 2.98047 19.168 4.32031 19.168L6.75391 19.168L6.75391 21.3691L4.29297 21.3691C1.42188 21.3691 0 19.9609 0 17.1309L0 4.23828C0 1.42188 1.42188 0 4.29297 0L22.9688 0C25.8125 0 27.2617 1.42188 27.2617 4.23828Z" fill="white" fill-opacity="0.85"/>
  <path d="M11.0469 27.6992L29.7227 27.6992C32.5664 27.6992 34.0156 26.2773 34.0156 23.4609L34.0156 10.5684C34.0156 7.75195 32.5664 6.33008 29.7227 6.33008L11.0469 6.33008C8.17578 6.33008 6.75391 7.75195 6.75391 10.5684L6.75391 23.4609C6.75391 26.291 8.17578 27.6992 11.0469 27.6992ZM11.0879 11.0059C10.418 11.0059 9.87109 10.418 9.87109 9.78906C9.87109 9.13281 10.418 8.55859 11.0879 8.55859C11.7578 8.55859 12.3047 9.13281 12.3047 9.78906C12.3047 10.418 11.7578 11.0059 11.0879 11.0059ZM15.0117 11.0059C14.3418 11.0059 13.7949 10.4316 13.7949 9.78906C13.7949 9.13281 14.3418 8.55859 15.0117 8.55859C15.6816 8.55859 16.2285 9.13281 16.2285 9.78906C16.2285 10.4316 15.6816 11.0059 15.0117 11.0059ZM18.9355 11.0059C18.2656 11.0059 17.7188 10.4316 17.7188 9.78906C17.7188 9.13281 18.2656 8.55859 18.9355 8.55859C19.6055 8.55859 20.1523 9.13281 20.1523 9.78906C20.1523 10.4316 19.6055 11.0059 18.9355 11.0059ZM11.0742 25.498C9.70703 25.498 8.95508 24.7734 8.95508 23.3516L8.95508 13.2344L31.8145 13.2344L31.8145 23.3516C31.8145 24.7734 31.0352 25.498 29.6816 25.498Z" fill="white" fill-opacity="0.85"/>
 </g>
</svg>
