<svg version="1.1" xmlns="http://www.w3.org/2000/svg" xmlns:xlink="http://www.w3.org/1999/xlink" viewBox="0 0 32.5938 25.1973">
 <g>
  
  <path d="M0 20.959C0 23.7891 1.43555 25.1973 4.29297 25.1973L27.9453 25.1973C30.8164 25.1973 32.2383 23.7754 32.2383 20.959L32.2383 4.26562C32.2383 1.44922 30.8164 0.0273438 27.9453 0.0273438L4.29297 0.0273438C1.43555 0.0273438 0 1.43555 0 4.26562ZM2.20117 20.8496L2.20117 6.91797L30.0371 6.91797L30.0371 20.8496C30.0371 22.2715 29.2715 22.9961 27.918 22.9961L4.32031 22.9961C2.95312 22.9961 2.20117 22.2715 2.20117 20.8496Z" style="fill:var(--color-0,hsl(0 0 0/0.25))"></path>
  <path d="M4.33398 4.68945C3.66406 4.68945 3.11719 4.11523 3.11719 3.47266C3.11719 2.83008 3.66406 2.25586 4.33398 2.25586C5.00391 2.25586 5.56445 2.83008 5.56445 3.47266C5.56445 4.11523 5.00391 4.68945 4.33398 4.68945Z" style="fill:var(--color-1,#ff3b30)"></path>
  <path d="M8.25781 4.68945C7.58789 4.68945 7.04102 4.11523 7.04102 3.47266C7.04102 2.83008 7.58789 2.25586 8.25781 2.25586C8.92773 2.25586 9.48828 2.83008 9.48828 3.47266C9.48828 4.11523 8.92773 4.68945 8.25781 4.68945Z" style="fill:var(--color-2,#ffcc00)"></path>
  <path d="M12.1816 4.68945C11.5117 4.68945 10.9648 4.11523 10.9648 3.47266C10.9648 2.83008 11.5117 2.25586 12.1816 2.25586C12.8516 2.25586 13.3984 2.83008 13.3984 3.47266C13.3984 4.11523 12.8516 4.68945 12.1816 4.68945Z" style="fill:var(--color-3,#28cd41)"></path>
  <path d="M2.20117 20.8496L2.20117 6.91797L30.0371 6.91797L30.0371 20.8496C30.0371 22.2715 29.2715 22.9961 27.918 22.9961L4.32031 22.9961C2.95312 22.9961 2.20117 22.2715 2.20117 20.8496Z" style="fill:var(--color-4,hsl(0 0 0/0.13))"></path>
 </g>
</svg>