<?xml version="1.0" encoding="UTF-8"?>
<!--Generator: Apple Native CoreSVG 326-->
<!DOCTYPE svg
PUBLIC "-//W3C//DTD SVG 1.1//EN"
       "http://www.w3.org/Graphics/SVG/1.1/DTD/svg11.dtd">
<svg version="1.1" xmlns="http://www.w3.org/2000/svg" xmlns:xlink="http://www.w3.org/1999/xlink" viewBox="0 0 24.2949 32.0605">
 <g>
  <rect height="32.0605" opacity="0" width="24.2949" x="0" y="0"/>
  <path d="M0 28.1641C0 29.2305 0.232422 29.873 1.24414 30.3652C3.58203 31.377 6.80859 32.0469 10.6777 32.0469C14.5059 32.0469 18.8125 31.4727 21.9023 29.9688C23.543 29.1895 23.9395 28.4648 23.9395 26.7695L23.9395 5.7832C23.9395 3.56836 22.9551 2.55664 20.8223 2.55664L19.5371 2.55664L19.5371 2.00977C19.5371 0.65625 18.8535 0 17.6504 0C17.2402 0 16.748 0.0957031 16.1602 0.287109C12.0312 1.64062 8.25781 2.50195 3.41797 2.50195L2.32422 2.50195C0.847656 2.50195 0 3.36328 0 4.70312ZM4.85352 12.8652L4.85352 8.24414C4.85352 8.05273 4.99023 7.88867 5.18164 7.875C8.36719 7.75195 11.2109 7.19141 14.123 6.125C14.2871 6.05664 14.5742 6.125 14.5742 6.45312L14.5742 11.2793C14.5742 11.4023 14.5059 11.5254 14.3828 11.5664C11.8398 12.6055 8.49023 13.1934 5.18164 13.1934C5.00391 13.1934 4.85352 13.084 4.85352 12.8652ZM5.55078 29.709C10.9238 29.5586 15.9141 28.0547 18.6211 25.9902C19.25 25.5117 19.5371 25.0195 19.5371 23.8164L19.5371 4.75781L20.8359 4.75781C21.4375 4.75781 21.7383 5.08594 21.7383 5.7832L21.7383 26.6191C21.7383 27.4395 21.6152 27.7402 20.8359 28.082C18.1152 29.2715 14.2871 30.0371 10.6777 30.0371C8.95508 30.0371 7.32812 29.9414 5.55078 29.709Z" fill="white" fill-opacity="0.85"/>
 </g>
</svg>
