<svg version="1.1" xmlns="http://www.w3.org/2000/svg" xmlns:xlink="http://www.w3.org/1999/xlink" viewBox="0 0 17.1756 30.9395">
 <g>
  
  <path d="M8.41007 30.9121C13.1679 30.9121 16.0116 28.6152 16.4491 23.9531C16.955 18.3887 16.9413 12.7422 16.4218 6.69922C16.0253 2.31055 13.1679 0 8.41007 0C3.65225 0 0.794832 2.31055 0.398347 6.69922C-0.121184 12.7422-0.134856 18.3887 0.371003 23.9531C0.808503 28.6152 3.65225 30.9121 8.41007 30.9121ZM8.41007 28.7109C4.93741 28.7109 2.87296 27.2344 2.57218 23.9531C2.07999 18.375 2.09366 12.7285 2.59952 6.69922C2.85928 3.67773 4.93741 2.20117 8.41007 2.20117C11.8827 2.20117 13.9608 3.67773 14.2206 6.69922C14.7265 12.7285 14.7401 18.375 14.248 23.9531C13.9472 27.2344 11.8827 28.7109 8.41007 28.7109ZM8.41007 25.2793C8.83389 25.2793 8.91593 25.4844 9.25772 25.4844C9.62686 25.4844 9.85928 25.1562 10.078 24.8418C10.3378 24.4727 10.4335 24.1172 10.4335 24.1035C10.4198 24.0898 9.73624 23.8164 9.73624 23.0371C9.73624 22.3535 10.2694 22.0664 10.3105 22.0254C9.96866 21.5332 9.42178 21.5332 9.25772 21.5332C8.87491 21.5332 8.56046 21.752 8.35538 21.752C8.12296 21.752 7.83585 21.5332 7.49405 21.5332C6.85147 21.5332 6.18155 22.0801 6.18155 23.0918C6.18155 23.748 6.42764 24.3906 6.72843 24.8145C6.98819 25.1973 7.22061 25.4844 7.54874 25.4844C7.87686 25.4844 8.01358 25.2793 8.41007 25.2793ZM9.33975 20.248C8.82022 20.248 8.30069 20.7676 8.30069 21.4648C8.91593 21.5059 9.44913 20.8223 9.33975 20.248Z" style="fill:var(--color-0,hsl(0 0 0/0.85))"></path>
 </g>
</svg>