<?xml version="1.0" encoding="UTF-8"?>
<!--Generator: Apple Native CoreSVG 326-->
<!DOCTYPE svg
PUBLIC "-//W3C//DTD SVG 1.1//EN"
       "http://www.w3.org/Graphics/SVG/1.1/DTD/svg11.dtd">
<svg version="1.1" xmlns="http://www.w3.org/2000/svg" xmlns:xlink="http://www.w3.org/1999/xlink" viewBox="0 0 28.2461 27.9043">
 <g>
  <rect height="27.9043" opacity="0" width="28.2461" x="0" y="0"/>
  <path d="M13.9453 27.8906C21.6426 27.8906 27.8906 21.6426 27.8906 13.9453C27.8906 6.24805 21.6426 0 13.9453 0C6.24805 0 0 6.24805 0 13.9453C0 21.6426 6.24805 27.8906 13.9453 27.8906ZM13.9453 25.5664C7.51953 25.5664 2.32422 20.3711 2.32422 13.9453C2.32422 7.51953 7.51953 2.32422 13.9453 2.32422C20.3711 2.32422 25.5664 7.51953 25.5664 13.9453C25.5664 20.3711 20.3711 25.5664 13.9453 25.5664Z" fill="white" fill-opacity="0.85"/>
  <path d="M12.4551 18.0605C15.5859 18.0605 18.1426 15.5039 18.1426 12.373C18.1426 9.24219 15.5859 6.68555 12.4551 6.68555C9.32422 6.68555 6.76758 9.25586 6.76758 12.373C6.76758 15.4902 9.32422 18.0605 12.4551 18.0605ZM12.4551 16.2012C10.3633 16.2012 8.62695 14.4648 8.62695 12.373C8.62695 10.2812 10.3633 8.54492 12.4551 8.54492C14.5469 8.54492 16.2695 10.2676 16.2695 12.373C16.2695 14.4648 14.5469 16.2012 12.4551 16.2012ZM19.9473 21.082C20.6035 21.082 21.0547 20.6035 21.0547 19.9199C21.0547 19.6055 20.9043 19.3184 20.6855 19.0859L16.3652 14.7383L14.6152 16.3242L18.9766 20.6719C19.25 20.959 19.5508 21.082 19.9473 21.082Z" fill="white" fill-opacity="0.85"/>
 </g>
</svg>
