<svg version="1.1" xmlns="http://www.w3.org/2000/svg" xmlns:xlink="http://www.w3.org/1999/xlink" viewBox="0 0 28.2461 27.9043">
 <g>
  
  <path d="M13.9453 27.8906C21.6426 27.8906 27.8906 21.6289 27.8906 13.9453C27.8906 6.24805 21.6426 0 13.9453 0C6.26172 0 0 6.24805 0 13.9453C0 21.6289 6.26172 27.8906 13.9453 27.8906Z" style="fill:var(--color-0,hsl(0 0 0/0.85))"></path>
  <path d="M12.4277 18.1973C9.20117 18.1973 6.5625 15.5449 6.5625 12.332C6.5625 9.10547 9.20117 6.45312 12.4277 6.45312C15.6543 6.45312 18.293 9.0918 18.293 12.332C18.293 13.5352 17.9102 14.6699 17.2812 15.5859L20.9043 19.2363C21.1367 19.4824 21.2871 19.7832 21.2871 20.0977C21.2871 20.8086 20.8223 21.3145 20.1387 21.3145C19.7285 21.3145 19.4277 21.1777 19.1406 20.877L15.5312 17.2812C14.6289 17.8418 13.5625 18.1973 12.4277 18.1973ZM12.4277 16.2695C14.5742 16.2695 16.3516 14.4785 16.3516 12.332C16.3516 10.1582 14.5742 8.38086 12.4277 8.38086C10.2676 8.38086 8.49023 10.1719 8.49023 12.332C8.49023 14.4785 10.2676 16.2695 12.4277 16.2695Z" style="fill:var(--color-1,white)"></path>
 </g>
</svg>