<svg version="1.1" xmlns="http://www.w3.org/2000/svg" xmlns:xlink="http://www.w3.org/1999/xlink" viewBox="0 0 19.7695 28.0684">
 <g>
  
  <path d="M3.80078 28.0547L15.6133 28.0547C17.8965 28.0547 19.4141 26.6055 19.4141 24.459L19.4141 3.5957C19.4141 1.43555 17.8965 0 15.6133 0L3.80078 0C1.51758 0 0 1.43555 0 3.5957L0 24.459C0 26.6055 1.51758 28.0547 3.80078 28.0547ZM4.07422 25.8535C2.93945 25.8535 2.20117 25.1562 2.20117 24.1035L2.20117 3.95117C2.20117 2.89844 2.93945 2.20117 4.07422 2.20117L15.3398 2.20117C16.4746 2.20117 17.2129 2.89844 17.2129 3.95117L17.2129 24.1035C17.2129 25.1562 16.4746 25.8535 15.3398 25.8535Z" style="fill:var(--color-0,hsl(0 0 0/0.85))"></path>
  <path d="M9.7207 22.8594C10.2129 22.8594 10.6094 22.4492 10.6094 21.957L10.6094 19.3457C10.6094 18.8535 10.2129 18.4434 9.7207 18.4434C9.22852 18.4434 8.81836 18.8535 8.81836 19.3457L8.81836 21.957C8.81836 22.4492 9.22852 22.8594 9.7207 22.8594ZM9.7207 16.1191C13.166 16.1191 15.9824 13.3164 15.9824 9.85742C15.9824 6.38477 13.166 3.58203 9.7207 3.58203C6.24805 3.58203 3.44531 6.38477 3.44531 9.85742C3.44531 13.3164 6.24805 16.1191 9.7207 16.1191ZM9.7207 14.3965C7.19141 14.3965 5.16797 12.373 5.16797 9.85742C5.16797 7.32812 7.19141 5.30469 9.7207 5.30469C12.2227 5.30469 14.2598 7.3418 14.2598 9.85742C14.2598 12.373 12.2227 14.3965 9.7207 14.3965Z" style="fill:var(--color-1,hsl(0 0 0/0.85))"></path>
 </g>
</svg>