<svg version="1.1" xmlns="http://www.w3.org/2000/svg" xmlns:xlink="http://www.w3.org/1999/xlink" viewBox="0 0 32.5938 25.1699">
 <g>
  
  <path d="M6.49414 8.28516L15.3125 8.28516C15.8457 8.28516 16.2695 7.84766 16.2695 7.31445C16.2695 6.78125 15.8457 6.37109 15.3125 6.37109L6.49414 6.37109C5.94727 6.37109 5.55078 6.78125 5.55078 7.31445C5.55078 7.84766 5.94727 8.28516 6.49414 8.28516ZM6.49414 11.9355L12.9473 11.9355C13.4805 11.9355 13.9043 11.5117 13.9043 10.9785C13.9043 10.4453 13.4805 10.0215 12.9473 10.0215L6.49414 10.0215C5.94727 10.0215 5.55078 10.4453 5.55078 10.9785C5.55078 11.5117 5.94727 11.9355 6.49414 11.9355ZM23.4199 12.3047C25.2246 12.3047 26.6875 10.8418 26.6875 9.02344C26.6875 7.20508 25.2246 5.74219 23.4199 5.74219C21.6152 5.74219 20.1387 7.20508 20.1387 9.02344C20.1387 10.8418 21.6152 12.3047 23.4199 12.3047ZM4.29297 25.1699L27.9453 25.1699C30.8164 25.1699 32.2383 23.7617 32.2383 20.9453L32.2383 4.23828C32.2383 1.42188 30.8164 0 27.9453 0L4.29297 0C1.43555 0 0 1.42188 0 4.23828L0 20.9453C0 23.7617 1.43555 25.1699 4.29297 25.1699ZM4.32031 22.9688C2.95312 22.9688 2.20117 22.2441 2.20117 20.8223L2.20117 4.36133C2.20117 2.93945 2.95312 2.20117 4.32031 2.20117L27.918 2.20117C29.2715 2.20117 30.0371 2.93945 30.0371 4.36133L30.0371 20.8223C30.0371 22.2441 29.2715 22.9688 27.918 22.9688Z" style="fill:var(--color-0,hsl(0 0 0/0.85))"></path>
 </g>
</svg>