<svg version="1.1" xmlns="http://www.w3.org/2000/svg" xmlns:xlink="http://www.w3.org/1999/xlink" viewBox="0 0 33.4004 34.6309">
 <g>
  
  <path d="M25.1506 3.91016L7.89434 3.91016C7.95046 2.79901 8.65169 2.16016 9.81641 2.16016L23.2285 2.16016C24.3932 2.16016 25.0945 2.79901 25.1506 3.91016Z" style="fill:var(--color-0,hsl(0 0 0/0.85))"></path>
  <path d="M27.9473 7.81549C27.5075 7.7456 27.0411 7.71094 26.5508 7.71094L6.49414 7.71094C6.00391 7.71094 5.53762 7.74558 5.09803 7.81545C5.24689 6.50197 6.13568 5.76953 7.58789 5.76953L25.4707 5.76953C26.9229 5.76953 27.8005 6.50199 27.9473 7.81549Z" style="fill:var(--color-1,hsl(0 0 0/0.85))"></path>
  <path d="M6.49414 32.4297L26.5508 32.4297C29.4082 32.4297 30.8438 31.0078 30.8438 28.1914L30.8438 14.1504C30.8438 11.334 29.4082 9.91211 26.5508 9.91211L6.49414 9.91211C3.63672 9.91211 2.20117 11.334 2.20117 14.1504L2.20117 28.1914C2.20117 31.0078 3.63672 32.4297 6.49414 32.4297ZM6.53516 30.2285C5.16797 30.2285 4.40234 29.4902 4.40234 28.0684L4.40234 14.2734C4.40234 12.8516 5.16797 12.1133 6.53516 12.1133L26.5234 12.1133C27.8633 12.1133 28.6426 12.8516 28.6426 14.2734L28.6426 28.0684C28.6426 29.4902 27.8633 30.2285 26.5234 30.2285ZM7.92969 17.2949L16.6113 17.2949C17.1309 17.2949 17.5547 16.8711 17.5547 16.3516C17.5547 15.832 17.1309 15.4082 16.6113 15.4082L7.92969 15.4082C7.38281 15.4082 7 15.832 7 16.3516C7 16.8711 7.38281 17.2949 7.92969 17.2949ZM7.92969 20.877L14.1367 20.877C14.6562 20.877 15.0664 20.4668 15.0664 19.9473C15.0664 19.4141 14.6562 19.0039 14.1367 19.0039L7.92969 19.0039C7.38281 19.0039 7 19.4141 7 19.9473C7 20.4668 7.38281 20.877 7.92969 20.877ZM22.832 21.2461C24.6094 21.2461 26.0449 19.8105 26.0449 18.0195C26.0449 16.2285 24.6094 14.793 22.832 14.793C21.041 14.793 19.5918 16.2285 19.5918 18.0195C19.5918 19.8105 21.041 21.2461 22.832 21.2461Z" style="fill:var(--color-2,hsl(0 0 0/0.85))"></path>
 </g>
</svg>