<svg version="1.1" xmlns="http://www.w3.org/2000/svg" xmlns:xlink="http://www.w3.org/1999/xlink" viewBox="0 0 41.4941 25.8262">
 <g>
  
  <path d="M1.36719 25.7578C2.20117 25.7578 2.7207 25.2109 2.7207 24.3633L2.7207 15.1621L7.35547 15.1621C7.50586 15.1621 7.66992 15.1484 7.82031 15.1484L12.4414 24.8965C12.7285 25.5391 13.125 25.7715 13.8086 25.7715C14.5742 25.7715 15.1484 25.2383 15.1484 24.5137C15.1484 24.2129 14.998 23.8574 14.8613 23.584L10.5137 14.5879C13.5352 13.5078 15.1348 10.8965 15.1348 7.65625C15.1348 3.08984 12.0859 0.328125 7.46484 0.328125L1.33984 0.328125C0.505859 0.328125 0 0.875 0 1.73633L0 24.3633C0 25.293 0.601562 25.7578 1.36719 25.7578ZM2.7207 12.7832L2.7207 2.74805L7.13672 2.74805C10.2676 2.74805 12.373 4.44336 12.373 7.73828C12.373 10.9785 10.4863 12.7832 7.23242 12.7832ZM20.8633 25.7988C21.6699 25.7988 22.1348 25.293 22.1348 24.4863L22.1348 4.85352L22.2852 4.85352L28.6289 23.9531C28.916 24.8418 29.4902 25.3887 30.3789 25.3887C31.2812 25.3887 31.8418 24.8008 32.1016 23.9258L38.4727 4.85352L38.5957 4.85352L38.5957 24.4863C38.5957 25.3477 39.1152 25.7988 39.8535 25.7988C40.6738 25.7988 41.1387 25.3066 41.1387 24.4863L41.1387 1.91406C41.1387 0.751953 40.3594 0 39.1973 0C38.1309 0 37.4746 0.628906 37.1602 1.6543L30.543 21.8066L30.2695 21.8066L23.5566 1.64062C23.2148 0.601562 22.6133 0 21.5332 0C20.3164 0 19.6055 0.875 19.6055 1.90039L19.6055 24.4863C19.6055 25.2656 20.0703 25.7988 20.8633 25.7988Z" style="fill:var(--color-0,hsl(0 0 0/0.85))"></path>
 </g>
</svg>