<svg version="1.1" xmlns="http://www.w3.org/2000/svg" xmlns:xlink="http://www.w3.org/1999/xlink" viewBox="0 0 25.5254 25.1699">
 <g>
  
  <path d="M4.29297 25.1699L20.877 25.1699C23.748 25.1699 25.1699 23.7617 25.1699 20.9453L25.1699 4.23828C25.1699 1.42188 23.748 0 20.877 0L4.29297 0C1.43555 0 0 1.42188 0 4.23828L0 20.9453C0 23.7617 1.43555 25.1699 4.29297 25.1699ZM4.32031 22.9688C2.95312 22.9688 2.20117 22.2441 2.20117 20.8223L2.20117 4.36133C2.20117 2.93945 2.95312 2.20117 4.32031 2.20117L20.8496 2.20117C22.2031 2.20117 22.9688 2.93945 22.9688 4.36133L22.9688 20.8223C22.9688 22.2441 22.2031 22.9688 20.8496 22.9688Z" style="fill:var(--color-0,hsl(0 0 0/0.85))"></path>
  <path d="M4.8125 18.1973C5.29102 18.1973 5.5918 17.8828 5.5918 17.3906L5.5918 13.6855L7.25977 13.6855L8.94141 17.623C9.0918 18.0059 9.35156 18.1973 9.7207 18.1973C10.2129 18.1973 10.4863 17.8691 10.4863 17.5C10.4863 17.3086 10.4453 17.1719 10.3223 16.8984L8.76367 13.3574C9.80273 12.9062 10.5273 11.8809 10.5273 10.3633C10.5273 8.33984 9.2832 7.0957 7.19141 7.0957L4.79883 7.0957C4.33398 7.0957 4.01953 7.41016 4.01953 7.88867L4.01953 17.3906C4.01953 17.8828 4.32031 18.1973 4.8125 18.1973ZM5.5918 12.4414L5.5918 8.38086L7.04102 8.38086C8.27148 8.38086 8.95508 9.17383 8.95508 10.3906C8.95508 11.6211 8.3125 12.4414 7.05469 12.4414ZM12.7422 18.2109C13.166 18.2109 13.4531 17.9238 13.4531 17.4863L13.4531 9.46094L13.5352 9.46094L15.7363 17.2676C15.8457 17.6777 16.1055 18.0195 16.6113 18.0195C17.1035 18.0195 17.3633 17.7188 17.5 17.2402L19.6875 9.46094L19.7695 9.46094L19.7695 17.4863C19.7695 17.9238 20.0566 18.2109 20.4805 18.2109C20.9043 18.2109 21.1777 17.9238 21.1777 17.4863L21.1777 8.03906C21.1777 7.36914 20.7539 6.94531 20.0703 6.94531C19.4961 6.94531 19.0859 7.30078 18.9355 7.875L16.6934 15.9688L16.5703 15.9688L14.2871 7.86133C14.1367 7.30078 13.7129 6.94531 13.166 6.94531C12.4688 6.94531 12.0449 7.36914 12.0449 8.03906L12.0449 17.4863C12.0449 17.9238 12.3184 18.2109 12.7422 18.2109Z" style="fill:var(--color-1,hsl(0 0 0/0.85))"></path>
 </g>
</svg>