<?xml version="1.0" encoding="UTF-8"?>
<!--Generator: Apple Native CoreSVG 326-->
<!DOCTYPE svg
PUBLIC "-//W3C//DTD SVG 1.1//EN"
       "http://www.w3.org/Graphics/SVG/1.1/DTD/svg11.dtd">
<svg version="1.1" xmlns="http://www.w3.org/2000/svg" xmlns:xlink="http://www.w3.org/1999/xlink" viewBox="0 0 30.8848 29.1895">
 <g>
  <rect height="29.1895" opacity="0" width="30.8848" x="0" y="0"/>
  <path d="M16.9395 0.478516L28.6152 7.21875C29.1211 7.50586 29.3535 7.86133 29.3535 8.27148C29.3535 8.83203 28.916 9.37891 28.1641 9.37891L26.9609 9.37891L26.9609 25.1016L27.8359 25.1016C28.3965 25.1016 28.7109 25.4297 28.7109 25.9766L28.7109 26.9746L29.4219 26.9746C30.0234 26.9746 30.5293 27.4668 30.5293 28.0684C30.5293 28.6699 30.0234 29.1758 29.4219 29.1758L1.09375 29.1758C0.492188 29.1758 0 28.6699 0 28.0684C0 27.4668 0.492188 26.9746 1.09375 26.9746L1.81836 26.9746L1.81836 25.9766C1.81836 25.4297 2.14648 25.1016 2.70703 25.1016L3.56836 25.1016L3.56836 9.37891L2.36523 9.37891C1.61328 9.37891 1.17578 8.83203 1.17578 8.27148C1.17578 7.86133 1.39453 7.50586 1.91406 7.21875L13.5898 0.478516C14.1094 0.164062 14.6973 0 15.2578 0C15.8184 0 16.3926 0.164062 16.9395 0.478516ZM21.4785 11.0059L19.291 18.9219L19.168 18.9219L16.9395 11.0059C16.7891 10.4453 16.3789 10.0898 15.832 10.0898C15.1621 10.0898 14.7246 10.5 14.7246 11.1699L14.7246 20.4121C14.7246 20.8359 14.998 21.1367 15.4219 21.1367C15.832 21.1367 16.1191 20.8359 16.1191 20.4121L16.1191 12.5645L16.1875 12.5645L18.3477 20.1934C18.457 20.5898 18.7168 20.9453 19.209 20.9453C19.6875 20.9453 19.9473 20.6309 20.0703 20.166L22.2305 12.5645L22.2988 12.5645L22.2988 20.4121C22.2988 20.8359 22.5859 21.1367 22.9961 21.1367C23.4062 21.1367 23.6934 20.8359 23.6934 20.4121L23.6934 11.1699C23.6934 10.5 23.2695 10.0898 22.5996 10.0898C22.0391 10.0898 21.6289 10.4453 21.4785 11.0059ZM7.62891 10.2402C7.17773 10.2402 6.86328 10.541 6.86328 11.0195L6.86328 20.3301C6.86328 20.7949 7.16406 21.123 7.64258 21.123C8.12109 21.123 8.4082 20.7949 8.4082 20.3301L8.4082 16.707L10.0625 16.707L11.6895 20.5488C11.8535 20.918 12.0859 21.123 12.4551 21.123C12.9473 21.123 13.207 20.7949 13.207 20.4258C13.207 20.2344 13.166 20.1113 13.0566 19.8379L11.5391 16.3789C12.5371 15.9414 13.248 14.916 13.248 13.4395C13.248 11.457 12.0449 10.2402 9.99414 10.2402ZM11.7031 13.4668C11.7031 14.6836 11.0879 15.4766 9.84375 15.4766L8.4082 15.4766L8.4082 11.5117L9.83008 11.5117C11.0469 11.5117 11.7031 12.2773 11.7031 13.4668Z" fill="white" fill-opacity="0.85"/>
 </g>
</svg>
