<svg version="1.1" xmlns="http://www.w3.org/2000/svg" xmlns:xlink="http://www.w3.org/1999/xlink" viewBox="0 0 33.291 27.4395">
 <g>
  
  <path d="M32.9355 16.4609C32.9355 12.4414 31.4863 8.73633 29.0664 5.86523C28.793 5.53711 28.3281 5.53711 28.0273 5.85156L24.8555 9.02344C24.5957 9.2832 24.582 9.65234 24.8145 9.93945C26.2227 11.7441 27.0703 14.0137 27.0703 16.4609C27.0703 18.9219 26.2227 21.1914 24.7324 23.0918C24.541 23.3242 24.5547 23.625 24.7598 23.8438L28.0137 27.0977C28.3281 27.4121 28.7793 27.4121 29.0664 27.0703C31.4863 24.1992 32.9355 20.4941 32.9355 16.4609Z" style="fill:var(--color-0,hsl(0 0 0/0.85))"></path>
  <path d="M16.4609 5.86523C18.9355 5.86523 21.2051 6.72656 23.0234 8.13477C23.2969 8.35352 23.6523 8.32617 23.9121 8.06641L27.084 4.89453C27.3984 4.58008 27.3848 4.12891 27.0566 3.85547C24.1992 1.44922 20.4941 0 16.4609 0C12.4414 0 8.73633 1.44922 5.87891 3.85547C5.55078 4.12891 5.53711 4.58008 5.85156 4.89453L9.02344 8.06641C9.2832 8.32617 9.65234 8.35352 9.95312 8.12109C11.7578 6.72656 14.0137 5.86523 16.4609 5.86523Z" style="fill:var(--color-1,hsl(0 0 0/0.85))"></path>
  <path d="M0 16.4609C0 20.4941 1.44922 24.1992 3.86914 27.0703C4.14258 27.4121 4.60742 27.4121 4.9082 27.0977L8.16211 23.8438C8.36719 23.625 8.39453 23.3242 8.20312 23.0918C6.71289 21.1914 5.86523 18.9219 5.86523 16.4609C5.86523 14.0137 6.69922 11.7441 8.12109 9.93945C8.33984 9.65234 8.33984 9.2832 8.08008 9.02344L4.9082 5.85156C4.59375 5.53711 4.14258 5.53711 3.86914 5.86523C1.44922 8.73633 0 12.4414 0 16.4609Z" style="fill:var(--color-2,hsl(0 0 0/0.85))"></path>
  <path d="M9.44727 21.7109C9.88477 21.7109 10.1445 21.4102 10.1445 20.9863L10.1445 17.6504L11.6621 17.6504L13.166 21.1914C13.3027 21.5332 13.5352 21.7109 13.8633 21.7109C14.3145 21.7109 14.5605 21.4102 14.5605 21.0684C14.5605 20.9043 14.5195 20.7812 14.4102 20.5352L13.0156 17.3496C13.9316 16.9395 14.5879 16.0234 14.5879 14.6562C14.5879 12.8242 13.4805 11.7168 11.5938 11.7168L9.43359 11.7168C9.00977 11.7168 8.73633 11.9902 8.73633 12.4277L8.73633 20.9863C8.73633 21.4102 9.00977 21.7109 9.44727 21.7109ZM10.1445 16.5156L10.1445 12.8789L11.457 12.8789C12.5645 12.8789 13.1797 13.5762 13.1797 14.6836C13.1797 15.791 12.6055 16.5156 11.4707 16.5156ZM16.5977 21.7109C16.9805 21.7109 17.2266 21.4512 17.2266 21.0547L17.2266 13.8359L17.2949 13.8359L19.2773 20.8633C19.3867 21.2324 19.6191 21.5469 20.0703 21.5469C20.5078 21.5469 20.7402 21.2734 20.8633 20.8359L22.8457 13.8359L22.9141 13.8359L22.9141 21.0547C22.9141 21.4512 23.1738 21.7109 23.5566 21.7109C23.9258 21.7109 24.1855 21.4512 24.1855 21.0547L24.1855 12.5645C24.1855 11.9492 23.8027 11.5801 23.1875 11.5801C22.668 11.5801 22.2988 11.8945 22.1621 12.4141L20.1387 19.7012L20.0293 19.7012L17.9785 12.4004C17.8418 11.8945 17.4727 11.5801 16.9668 11.5801C16.3516 11.5801 15.9551 11.9629 15.9551 12.5645L15.9551 21.0547C15.9551 21.4512 16.2148 21.7109 16.5977 21.7109Z" style="fill:var(--color-3,hsl(0 0 0/0.85))"></path>
 </g>
</svg>