<svg version="1.1" xmlns="http://www.w3.org/2000/svg" xmlns:xlink="http://www.w3.org/1999/xlink" viewBox="0 0 33.291 27.3099">
 <g>
  
  <path d="M32.9355 16.3962C32.9355 7.78289 26.3184 0.714533 17.8965 0.00359537C17.459-0.0374203 17.1309 0.277033 17.1309 0.714533L17.1309 5.18524C17.1309 5.55438 17.3906 5.84149 17.7598 5.86883C22.9961 6.51141 27.0703 10.9821 27.0703 16.3962C27.0703 18.8571 26.2227 21.1266 24.7324 23.027C24.541 23.2595 24.5547 23.5602 24.7598 23.779L28.0273 27.0329C28.3281 27.3337 28.793 27.3337 29.0664 27.0055C31.4863 24.1345 32.9355 20.4294 32.9355 16.3962Z" style="fill:var(--color-0,hsl(0 0 0/0.85))"></path>
  <path d="M0 16.3962C0 20.443 1.44922 24.1481 3.86914 27.0192C4.14258 27.3473 4.59375 27.3337 4.9082 27.0329L8.17578 23.779C8.38086 23.5602 8.39453 23.2595 8.20312 23.027C6.69922 21.1266 5.86523 18.8571 5.86523 16.3962C5.86523 10.9821 9.93945 6.51141 15.1758 5.86883C15.5449 5.84149 15.8047 5.55438 15.8047 5.18524L15.8047 0.714533C15.8047 0.277033 15.4766-0.0374203 15.0391 0.00359537C6.61719 0.714533 0 7.78289 0 16.3962Z" style="fill:var(--color-1,hsl(0 0 0/0.85))"></path>
  <path d="M9.44727 21.6462C9.88477 21.6462 10.1445 21.3454 10.1445 20.9216L10.1445 17.5856L11.6621 17.5856L13.166 21.1266C13.3027 21.4684 13.5352 21.6462 13.8633 21.6462C14.3145 21.6462 14.5605 21.3454 14.5605 21.0036C14.5605 20.8395 14.5195 20.7165 14.4102 20.4704L13.0156 17.2848C13.9316 16.8747 14.5879 15.9587 14.5879 14.5915C14.5879 12.7595 13.4805 11.652 11.5938 11.652L9.43359 11.652C9.00977 11.652 8.73633 11.9255 8.73633 12.363L8.73633 20.9216C8.73633 21.3454 9.00977 21.6462 9.44727 21.6462ZM10.1445 16.4509L10.1445 12.8141L11.457 12.8141C12.5645 12.8141 13.1797 13.5114 13.1797 14.6188C13.1797 15.7263 12.6055 16.4509 11.4707 16.4509ZM16.5977 21.6462C16.9805 21.6462 17.2266 21.3864 17.2266 20.9899L17.2266 13.7712L17.2949 13.7712L19.2773 20.7985C19.3867 21.1677 19.6191 21.4821 20.0703 21.4821C20.5078 21.4821 20.7402 21.2087 20.8633 20.7712L22.8457 13.7712L22.9141 13.7712L22.9141 20.9899C22.9141 21.3864 23.1738 21.6462 23.5566 21.6462C23.9258 21.6462 24.1855 21.3864 24.1855 20.9899L24.1855 12.4997C24.1855 11.8845 23.8027 11.5153 23.1875 11.5153C22.668 11.5153 22.2988 11.8298 22.1621 12.3493L20.1387 19.6364L20.0293 19.6364L17.9785 12.3356C17.8418 11.8298 17.4727 11.5153 16.9668 11.5153C16.3516 11.5153 15.9551 11.8981 15.9551 12.4997L15.9551 20.9899C15.9551 21.3864 16.2148 21.6462 16.5977 21.6462Z" style="fill:var(--color-2,hsl(0 0 0/0.85))"></path>
 </g>
</svg>