<?xml version="1.0" encoding="UTF-8"?>
<!--Generator: Apple Native CoreSVG 326-->
<!DOCTYPE svg
PUBLIC "-//W3C//DTD SVG 1.1//EN"
       "http://www.w3.org/Graphics/SVG/1.1/DTD/svg11.dtd">
<svg version="1.1" xmlns="http://www.w3.org/2000/svg" xmlns:xlink="http://www.w3.org/1999/xlink" viewBox="0 0 33.291 27.4395">
 <g>
  <rect height="27.4395" opacity="0" width="33.291" x="0" y="0"/>
  <path d="M32.9355 16.4609C32.9355 12.4414 31.4863 8.73633 29.0664 5.86523C28.793 5.53711 28.3281 5.53711 28.0273 5.85156L24.8555 9.02344C24.5957 9.2832 24.582 9.65234 24.8145 9.93945C26.2227 11.7441 27.0703 14.0137 27.0703 16.4609C27.0703 18.9219 26.2227 21.1914 24.7324 23.0918C24.541 23.3242 24.5547 23.625 24.7598 23.8438L28.0137 27.0977C28.3281 27.4121 28.7793 27.4121 29.0664 27.0703C31.4863 24.1992 32.9355 20.4941 32.9355 16.4609Z" fill="white" fill-opacity="0.85"/>
  <path d="M16.4609 5.86523C18.9355 5.86523 21.2051 6.72656 23.0234 8.13477C23.2969 8.35352 23.6523 8.32617 23.9121 8.06641L27.084 4.89453C27.3984 4.58008 27.3848 4.12891 27.0566 3.85547C24.1992 1.44922 20.4941 0 16.4609 0C12.4414 0 8.73633 1.44922 5.87891 3.85547C5.55078 4.12891 5.53711 4.58008 5.85156 4.89453L9.02344 8.06641C9.2832 8.32617 9.65234 8.35352 9.95312 8.12109C11.7578 6.72656 14.0137 5.86523 16.4609 5.86523Z" fill="white" fill-opacity="0.85"/>
  <path d="M0 16.4609C0 20.4941 1.44922 24.1992 3.86914 27.0703C4.14258 27.4121 4.60742 27.4121 4.9082 27.0977L8.16211 23.8438C8.36719 23.625 8.39453 23.3242 8.20312 23.0918C6.71289 21.1914 5.86523 18.9219 5.86523 16.4609C5.86523 14.0137 6.69922 11.7441 8.12109 9.93945C8.33984 9.65234 8.33984 9.2832 8.08008 9.02344L4.9082 5.85156C4.59375 5.53711 4.14258 5.53711 3.86914 5.86523C1.44922 8.73633 0 12.4414 0 16.4609Z" fill="white" fill-opacity="0.85"/>
  <path d="M12.4824 22.5996C12.9883 22.5996 13.2891 22.2852 13.2891 21.7793L13.2891 17.6367C13.2891 15.2031 14.1367 13.1797 16.4746 13.1797C18.8535 13.1797 19.6602 15.2168 19.6602 17.6367L19.6602 21.7793C19.6602 22.2852 19.9609 22.5996 20.4668 22.5996C20.959 22.5996 21.2598 22.2852 21.2598 21.7793L21.2598 17.5547C21.2598 14.2051 19.7148 11.7305 16.4746 11.7305C13.207 11.7305 11.6895 14.2324 11.6895 17.5547L11.6895 21.7793C11.6895 22.2852 12.0039 22.5996 12.4824 22.5996ZM16.4473 22.5996C16.7891 22.5996 17.0078 22.3809 17.0078 22.0254L17.0078 10.2402C17.0078 9.89844 16.7891 9.67969 16.4473 9.67969C16.0918 9.67969 15.873 9.89844 15.873 10.2402L15.873 22.0254C15.873 22.3809 16.0918 22.5996 16.4473 22.5996Z" fill="white" fill-opacity="0.85"/>
 </g>
</svg>
