<svg version="1.1" xmlns="http://www.w3.org/2000/svg" xmlns:xlink="http://www.w3.org/1999/xlink" viewBox="0 0 28.2461 27.9043">
 <g>
  
  <path d="M13.9453 27.8906C21.6426 27.8906 27.8906 21.6426 27.8906 13.9453C27.8906 6.24805 21.6426 0 13.9453 0C6.24805 0 0 6.24805 0 13.9453C0 21.6426 6.24805 27.8906 13.9453 27.8906ZM13.9453 25.5664C7.51953 25.5664 2.32422 20.3711 2.32422 13.9453C2.32422 7.51953 7.51953 2.32422 13.9453 2.32422C20.3711 2.32422 25.5664 7.51953 25.5664 13.9453C25.5664 20.3711 20.3711 25.5664 13.9453 25.5664Z" style="fill:var(--color-0,hsl(0 0 0/0.85))"></path>
  <path d="M9.9668 19.9062C10.4727 19.9062 10.7734 19.5781 10.7734 19.0859L10.7734 14.9434C10.7734 12.4961 11.6211 10.4863 13.9453 10.4863C16.3379 10.4863 17.1445 12.5098 17.1445 14.9434L17.1445 19.0859C17.1445 19.5781 17.4453 19.9062 17.9512 19.9062C18.4297 19.9062 18.7441 19.5781 18.7441 19.0859L18.7441 14.8613C18.7441 11.498 17.1992 9.03711 13.9453 9.03711C10.6914 9.03711 9.17383 11.5391 9.17383 14.8613L9.17383 19.0859C9.17383 19.5781 9.47461 19.9062 9.9668 19.9062ZM13.9316 19.9062C14.2734 19.9062 14.4922 19.6875 14.4922 19.332L14.4922 7.54688C14.4922 7.20508 14.2734 6.98633 13.9316 6.98633C13.5762 6.98633 13.3574 7.20508 13.3574 7.54688L13.3574 19.332C13.3574 19.6875 13.5762 19.9062 13.9316 19.9062Z" style="fill:var(--color-1,hsl(0 0 0/0.85))"></path>
 </g>
</svg>