<?xml version="1.0" encoding="UTF-8"?>
<!--Generator: Apple Native CoreSVG 326-->
<!DOCTYPE svg
PUBLIC "-//W3C//DTD SVG 1.1//EN"
       "http://www.w3.org/Graphics/SVG/1.1/DTD/svg11.dtd">
<svg version="1.1" xmlns="http://www.w3.org/2000/svg" xmlns:xlink="http://www.w3.org/1999/xlink" viewBox="0 0 33.291 27.3099">
 <g>
  <rect height="27.3099" opacity="0" width="33.291" x="0" y="0"/>
  <path d="M32.9355 16.3962C32.9355 7.78289 26.3184 0.714533 17.8965 0.00359537C17.459-0.0374203 17.1309 0.277033 17.1309 0.714533L17.1309 5.18524C17.1309 5.55438 17.3906 5.84149 17.7598 5.86883C22.9961 6.51141 27.0703 10.9821 27.0703 16.3962C27.0703 18.8571 26.2227 21.1266 24.7324 23.027C24.541 23.2595 24.5547 23.5602 24.7598 23.779L28.0273 27.0329C28.3281 27.3337 28.793 27.3337 29.0664 27.0055C31.4863 24.1345 32.9355 20.4294 32.9355 16.3962Z" fill="white" fill-opacity="0.85"/>
  <path d="M0 16.3962C0 20.443 1.44922 24.1481 3.86914 27.0192C4.14258 27.3473 4.59375 27.3337 4.9082 27.0329L8.17578 23.779C8.38086 23.5602 8.39453 23.2595 8.20312 23.027C6.69922 21.1266 5.86523 18.8571 5.86523 16.3962C5.86523 10.9821 9.93945 6.51141 15.1758 5.86883C15.5449 5.84149 15.8047 5.55438 15.8047 5.18524L15.8047 0.714533C15.8047 0.277033 15.4766-0.0374203 15.0391 0.00359537C6.61719 0.714533 0 7.78289 0 16.3962Z" fill="white" fill-opacity="0.85"/>
  <path d="M12.4824 22.5348C12.9883 22.5348 13.2891 22.2204 13.2891 21.7145L13.2891 17.572C13.2891 15.1384 14.1367 13.1149 16.4746 13.1149C18.8535 13.1149 19.6602 15.152 19.6602 17.572L19.6602 21.7145C19.6602 22.2204 19.9609 22.5348 20.4668 22.5348C20.959 22.5348 21.2598 22.2204 21.2598 21.7145L21.2598 17.4899C21.2598 14.1403 19.7148 11.6657 16.4746 11.6657C13.207 11.6657 11.6895 14.1677 11.6895 17.4899L11.6895 21.7145C11.6895 22.2204 12.0039 22.5348 12.4824 22.5348ZM16.4473 22.5348C16.7891 22.5348 17.0078 22.3161 17.0078 21.9606L17.0078 10.1755C17.0078 9.83367 16.7891 9.61492 16.4473 9.61492C16.0918 9.61492 15.873 9.83367 15.873 10.1755L15.873 21.9606C15.873 22.3161 16.0918 22.5348 16.4473 22.5348Z" fill="white" fill-opacity="0.85"/>
 </g>
</svg>
