<?xml version="1.0" encoding="UTF-8"?>
<!--Generator: Apple Native CoreSVG 326-->
<!DOCTYPE svg
PUBLIC "-//W3C//DTD SVG 1.1//EN"
       "http://www.w3.org/Graphics/SVG/1.1/DTD/svg11.dtd">
<svg version="1.1" xmlns="http://www.w3.org/2000/svg" xmlns:xlink="http://www.w3.org/1999/xlink" viewBox="0 0 30.9258 30.584">
 <g>
  <rect height="30.584" opacity="0" width="30.9258" x="0" y="0"/>
  <path d="M15.2852 30.5703C23.6797 30.5703 30.5703 23.6797 30.5703 15.2852C30.5703 6.89062 23.6797 0 15.2852 0C6.89062 0 0 6.89062 0 15.2852C0 23.6797 6.89062 30.5703 15.2852 30.5703ZM15.2852 25.4844C9.65234 25.4844 5.08594 20.918 5.08594 15.2852C5.08594 9.63867 9.65234 5.08594 15.2852 5.08594C20.9316 5.08594 25.4844 9.63867 25.4844 15.2852C25.4844 20.918 20.9316 25.4844 15.2852 25.4844Z" fill="white" fill-opacity="0.85"/>
  <path d="M11.3203 21.2461C11.8262 21.2461 12.127 20.918 12.127 20.4258L12.127 16.2832C12.127 13.8359 12.9746 11.8262 15.2988 11.8262C17.6914 11.8262 18.498 13.8496 18.498 16.2832L18.498 20.4258C18.498 20.918 18.7988 21.2461 19.3047 21.2461C19.7832 21.2461 20.0977 20.918 20.0977 20.4258L20.0977 16.2012C20.0977 12.8379 18.5527 10.377 15.2988 10.377C12.0449 10.377 10.5273 12.8789 10.5273 16.2012L10.5273 20.4258C10.5273 20.918 10.8281 21.2461 11.3203 21.2461ZM15.2852 21.2461C15.627 21.2461 15.8457 21.0273 15.8457 20.6719L15.8457 8.88672C15.8457 8.54492 15.627 8.32617 15.2852 8.32617C14.9297 8.32617 14.7109 8.54492 14.7109 8.88672L14.7109 20.6719C14.7109 21.0273 14.9297 21.2461 15.2852 21.2461Z" fill="white" fill-opacity="0.85"/>
 </g>
</svg>
