<?xml version="1.0" encoding="UTF-8"?>
<!--Generator: Apple Native CoreSVG 326-->
<!DOCTYPE svg
PUBLIC "-//W3C//DTD SVG 1.1//EN"
       "http://www.w3.org/Graphics/SVG/1.1/DTD/svg11.dtd">
<svg version="1.1" xmlns="http://www.w3.org/2000/svg" xmlns:xlink="http://www.w3.org/1999/xlink" viewBox="0 0 30.8848 29.1895">
 <g>
  <rect height="29.1895" opacity="0" width="30.8848" x="0" y="0"/>
  <path d="M1.81836 25.9219L28.7109 25.9219L28.7109 25.0059C28.7109 24.459 28.3965 24.1309 27.8359 24.1309L26.9609 24.1309L26.9609 9.37891L28.1641 9.37891C28.916 9.37891 29.3535 8.83203 29.3535 8.27148C29.3535 7.86133 29.1211 7.50586 28.6152 7.21875L16.9395 0.478516C16.3926 0.164062 15.8184 0 15.2578 0C14.6973 0 14.1094 0.164062 13.5898 0.478516L1.91406 7.21875C1.39453 7.50586 1.17578 7.86133 1.17578 8.27148C1.17578 8.83203 1.61328 9.37891 2.36523 9.37891L3.56836 9.37891L3.56836 24.1309L2.70703 24.1309C2.14648 24.1309 1.81836 24.459 1.81836 25.0059ZM5.63281 24.1309L5.63281 7.62891L14.7246 2.5293C14.8887 2.43359 15.0801 2.37891 15.2578 2.37891C15.4355 2.37891 15.627 2.43359 15.8047 2.5293L24.8965 7.62891L24.8965 24.1309ZM1.09375 29.1758L29.4219 29.1758C30.0234 29.1758 30.5293 28.6699 30.5293 28.0684C30.5293 27.4668 30.0234 26.9746 29.4219 26.9746L1.09375 26.9746C0.492188 26.9746 0 27.4668 0 28.0684C0 28.6699 0.492188 29.1758 1.09375 29.1758Z" fill="white" fill-opacity="0.85"/>
  <path d="M11.3066 20.3438C11.8125 20.3438 12.1133 20.0293 12.1133 19.5234L12.1133 15.3809C12.1133 12.9473 12.9609 10.9238 15.2852 10.9238C17.6777 10.9238 18.4844 12.9609 18.4844 15.3809L18.4844 19.5234C18.4844 20.0293 18.7852 20.3438 19.2773 20.3438C19.7695 20.3438 20.084 20.0293 20.084 19.5234L20.084 15.2988C20.084 11.9492 18.5391 9.47461 15.2852 9.47461C12.0312 9.47461 10.5137 11.9766 10.5137 15.2988L10.5137 19.5234C10.5137 20.0293 10.8145 20.3438 11.3066 20.3438ZM15.2715 20.3438C15.6133 20.3438 15.832 20.125 15.832 19.7695L15.832 7.98438C15.832 7.64258 15.6133 7.42383 15.2715 7.42383C14.916 7.42383 14.6973 7.64258 14.6973 7.98438L14.6973 19.7695C14.6973 20.125 14.916 20.3438 15.2715 20.3438Z" fill="white" fill-opacity="0.85"/>
 </g>
</svg>
