<?xml version="1.0" encoding="UTF-8"?>
<!--Generator: Apple Native CoreSVG 326-->
<!DOCTYPE svg
PUBLIC "-//W3C//DTD SVG 1.1//EN"
       "http://www.w3.org/Graphics/SVG/1.1/DTD/svg11.dtd">
<svg version="1.1" xmlns="http://www.w3.org/2000/svg" xmlns:xlink="http://www.w3.org/1999/xlink" viewBox="0 0 18.9766 25.8262">
 <g>
  <rect height="25.8262" opacity="0" width="18.9766" x="0" y="0"/>
  <path d="M1.36719 25.7988C2.16016 25.7988 2.7207 25.3066 2.7207 24.377L2.7207 15.8047C2.7207 10.9238 4.4707 6.60352 9.31055 6.60352C14.123 6.60352 15.9141 10.8008 15.9141 15.8047L15.9141 24.377C15.9141 25.2383 16.4609 25.7988 17.2812 25.7988C18.0332 25.7988 18.6211 25.3203 18.6211 24.377L18.6211 15.6133C18.6211 9.05078 15.7227 4.12891 9.31055 4.12891C3.00781 4.12891 0 9.03711 0 15.6133L0 24.377C0 25.2383 0.533203 25.7988 1.36719 25.7988ZM9.26953 25.7988C9.83008 25.7988 10.3086 25.375 10.3086 24.7461L10.3086 1.02539C10.3086 0.355469 9.84375 0 9.26953 0C8.69531 0 8.17578 0.300781 8.17578 1.02539L8.17578 24.7461C8.17578 25.3613 8.64062 25.7988 9.26953 25.7988Z" fill="white" fill-opacity="0.85"/>
 </g>
</svg>
