<?xml version="1.0" encoding="UTF-8"?>
<!--Generator: Apple Native CoreSVG 326-->
<!DOCTYPE svg
PUBLIC "-//W3C//DTD SVG 1.1//EN"
       "http://www.w3.org/Graphics/SVG/1.1/DTD/svg11.dtd">
<svg version="1.1" xmlns="http://www.w3.org/2000/svg" xmlns:xlink="http://www.w3.org/1999/xlink" viewBox="0 0 28.2461 27.9043">
 <g>
  <rect height="27.9043" opacity="0" width="28.2461" x="0" y="0"/>
  <path d="M13.9453 27.8906C21.6426 27.8906 27.8906 21.6289 27.8906 13.9453C27.8906 6.24805 21.6426 0 13.9453 0C6.26172 0 0 6.24805 0 13.9453C0 21.6289 6.26172 27.8906 13.9453 27.8906Z" fill="white" fill-opacity="0.85"/>
  <path d="M9.85742 20.0977C9.33789 20.0977 9.03711 19.7559 9.03711 19.25L9.03711 14.8887C9.03711 11.6621 10.418 9.21484 13.3438 8.91406L13.3438 7.3418C13.3438 6.98633 13.5762 6.76758 13.9453 6.76758C14.3008 6.76758 14.5195 6.98633 14.5195 7.3418L14.5195 8.91406C17.4863 9.17383 18.9082 11.6211 18.9082 14.8887L18.9082 19.25C18.9082 19.7559 18.5938 20.0977 18.0879 20.0977C17.5684 20.0977 17.2539 19.7559 17.2539 19.25L17.2539 14.9844C17.2539 12.6738 16.543 10.7051 14.5195 10.418L14.5195 19.5098C14.5195 19.8789 14.3008 20.0977 13.9453 20.0977C13.5762 20.0977 13.3438 19.8789 13.3438 19.5098L13.3438 10.4316C11.416 10.7598 10.6914 12.6875 10.6914 14.9844L10.6914 19.25C10.6914 19.7559 10.377 20.0977 9.85742 20.0977Z" fill="white"/>
 </g>
</svg>
