<svg version="1.1" xmlns="http://www.w3.org/2000/svg" xmlns:xlink="http://www.w3.org/1999/xlink" viewBox="0 0 25.5254 25.1699">
 <g>
  
  <path d="M4.29297 25.1699L20.877 25.1699C23.748 25.1699 25.1699 23.7617 25.1699 20.9453L25.1699 4.23828C25.1699 1.42188 23.748 0 20.877 0L4.29297 0C1.43555 0 0 1.42188 0 4.23828L0 20.9453C0 23.7617 1.43555 25.1699 4.29297 25.1699Z" style="fill:var(--color-0,hsl(0 0 0/0.85))"></path>
  <path d="M8.50391 18.7305C7.99805 18.7305 7.68359 18.3887 7.68359 17.8828L7.68359 13.5215C7.68359 10.2949 9.06445 7.84766 11.9902 7.54688L11.9902 5.97461C11.9902 5.61914 12.2227 5.40039 12.5918 5.40039C12.9473 5.40039 13.166 5.61914 13.166 5.97461L13.166 7.54688C16.1465 7.80664 17.5547 10.2539 17.5547 13.5215L17.5547 17.8828C17.5547 18.3887 17.2402 18.7305 16.7344 18.7305C16.2148 18.7305 15.9004 18.3887 15.9004 17.8828L15.9004 13.6172C15.9004 11.3066 15.1895 9.33789 13.166 9.05078L13.166 18.1426C13.166 18.5117 12.9473 18.7305 12.5918 18.7305C12.2227 18.7305 11.9902 18.5117 11.9902 18.1426L11.9902 9.06445C10.0625 9.39258 9.33789 11.3203 9.33789 13.6172L9.33789 17.8828C9.33789 18.3887 9.02344 18.7305 8.50391 18.7305Z" style="fill:var(--color-1,white)"></path>
 </g>
</svg>