<?xml version="1.0" encoding="UTF-8"?>
<!--Generator: Apple Native CoreSVG 326-->
<!DOCTYPE svg
PUBLIC "-//W3C//DTD SVG 1.1//EN"
       "http://www.w3.org/Graphics/SVG/1.1/DTD/svg11.dtd">
<svg version="1.1" xmlns="http://www.w3.org/2000/svg" xmlns:xlink="http://www.w3.org/1999/xlink" viewBox="0 0 25.5254 25.1699">
 <g>
  <rect height="25.1699" opacity="0" width="25.5254" x="0" y="0"/>
  <path d="M4.29297 25.1699L20.877 25.1699C23.748 25.1699 25.1699 23.7617 25.1699 20.9453L25.1699 4.23828C25.1699 1.42188 23.748 0 20.877 0L4.29297 0C1.43555 0 0 1.42188 0 4.23828L0 20.9453C0 23.7617 1.43555 25.1699 4.29297 25.1699ZM4.32031 22.9688C2.95312 22.9688 2.20117 22.2441 2.20117 20.8223L2.20117 4.36133C2.20117 2.93945 2.95312 2.20117 4.32031 2.20117L20.8496 2.20117C22.2031 2.20117 22.9688 2.93945 22.9688 4.36133L22.9688 20.8223C22.9688 22.2441 22.2031 22.9688 20.8496 22.9688Z" fill="white" fill-opacity="0.85"/>
  <path d="M8.62695 18.5391C9.13281 18.5391 9.43359 18.2109 9.43359 17.7188L9.43359 13.5762C9.43359 11.1289 10.2812 9.11914 12.6191 9.11914C14.998 9.11914 15.8047 11.1426 15.8047 13.5762L15.8047 17.7188C15.8047 18.2109 16.1055 18.5391 16.6113 18.5391C17.0898 18.5391 17.4043 18.2109 17.4043 17.7188L17.4043 13.4941C17.4043 10.1309 15.8594 7.66992 12.6191 7.66992C9.35156 7.66992 7.83398 10.1719 7.83398 13.4941L7.83398 17.7188C7.83398 18.2109 8.14844 18.5391 8.62695 18.5391ZM12.5918 18.5391C12.9336 18.5391 13.1523 18.3203 13.1523 17.9648L13.1523 6.17969C13.1523 5.83789 12.9336 5.61914 12.5918 5.61914C12.2363 5.61914 12.0176 5.83789 12.0176 6.17969L12.0176 17.9648C12.0176 18.3203 12.2363 18.5391 12.5918 18.5391Z" fill="white" fill-opacity="0.85"/>
 </g>
</svg>
