<?xml version="1.0" encoding="UTF-8"?>
<!--Generator: Apple Native CoreSVG 326-->
<!DOCTYPE svg
PUBLIC "-//W3C//DTD SVG 1.1//EN"
       "http://www.w3.org/Graphics/SVG/1.1/DTD/svg11.dtd">
<svg version="1.1" xmlns="http://www.w3.org/2000/svg" xmlns:xlink="http://www.w3.org/1999/xlink" viewBox="0 0 28.2461 27.9043">
 <g>
  <rect height="27.9043" opacity="0" width="28.2461" x="0" y="0"/>
  <path d="M13.9453 27.8906C21.6426 27.8906 27.8906 21.6289 27.8906 13.9453C27.8906 6.24805 21.6426 0 13.9453 0C6.26172 0 0 6.24805 0 13.9453C0 21.6289 6.26172 27.8906 13.9453 27.8906Z" fill="white" fill-opacity="0.85"/>
  <path d="M6.27539 20.043L6.27539 10.1582C6.27539 9.66602 6.4668 9.31055 6.9043 9.06445L10.3906 7.06836C10.541 7 10.6914 6.91797 10.8145 6.84961L10.8145 19.0312L7.72461 20.6992C7.49219 20.8223 7.30078 20.9043 7.10938 20.9043C6.57617 20.9043 6.27539 20.5898 6.27539 20.043ZM11.8125 18.8945L11.8125 6.72656C11.9766 6.75391 12.0996 6.80859 12.2363 6.89062L15.8594 9.10547L15.8594 21.1094C15.7637 21.082 15.6406 21.041 15.5176 20.9863ZM16.8711 21.0957L16.8711 8.96875L20.1113 7.17773C20.3438 7.04102 20.5352 6.98633 20.7266 6.98633C21.2461 6.98633 21.5605 7.27344 21.5605 7.83398L21.5605 17.7324C21.5605 18.2109 21.3555 18.5664 20.918 18.8262L17.0898 21C17.0078 21.041 16.9395 21.0684 16.8711 21.0957Z" fill="white"/>
 </g>
</svg>
