<svg version="1.1" xmlns="http://www.w3.org/2000/svg" xmlns:xlink="http://www.w3.org/1999/xlink" viewBox="0 0 28.2461 27.9043">
 <g>
  
  <path d="M13.9453 27.9043C21.6426 27.9043 27.8906 21.6562 27.8906 13.959C27.8906 6.27539 21.6426 0.0136719 13.9453 0.0136719C6.26172 0.0136719 0 6.27539 0 13.959C0 21.6562 6.26172 27.9043 13.9453 27.9043Z" style="fill:var(--color-0,#ff3b30)"></path>
  <path d="M10.7188 8.68164C10.7188 6.9043 12.1816 5.46875 13.9453 5.46875C15.7227 5.46875 17.1719 6.9043 17.1719 8.68164C17.1719 10.1445 16.2148 11.3477 14.916 11.7305L14.916 18.7988C14.916 20.9043 14.6016 22.7227 13.9453 22.7227C13.3027 22.7227 12.9609 20.8633 12.9609 18.7988L12.9609 11.7305C11.6758 11.334 10.7188 10.1309 10.7188 8.68164ZM12.0996 7.86133C12.0996 8.4082 12.5781 8.88672 13.1113 8.88672C13.6719 8.88672 14.1367 8.4082 14.1367 7.86133C14.1367 7.30078 13.6719 6.82227 13.1113 6.82227C12.5781 6.82227 12.0859 7.30078 12.0996 7.86133Z" style="fill:var(--color-1,white)"></path>
 </g>
</svg>