<svg version="1.1" xmlns="http://www.w3.org/2000/svg" xmlns:xlink="http://www.w3.org/1999/xlink" viewBox="0 0 28.2461 27.9043">
 <g>
  
  <path d="M13.9453 27.9043C21.6426 27.9043 27.8906 21.6562 27.8906 13.959C27.8906 6.27539 21.6426 0.0136719 13.9453 0.0136719C6.26172 0.0136719 0 6.27539 0 13.959C0 21.6562 6.26172 27.9043 13.9453 27.9043Z" style="fill:var(--color-0,#ff3b30)"></path>
  <path d="M14.916 17.2312L14.916 18.7988C14.916 20.9043 14.6016 22.7227 13.9453 22.7227C13.3027 22.7227 12.9609 20.8633 12.9609 18.7988L12.9609 15.2781ZM7.94336 7.04102L20.877 19.9746C21.123 20.2344 21.123 20.6172 20.877 20.877C20.6309 21.123 20.207 21.123 19.9746 20.877L7.02734 7.94336C6.79492 7.69727 6.78125 7.28711 7.02734 7.04102C7.28711 6.78125 7.69727 6.78125 7.94336 7.04102ZM17.1719 8.68164C17.1719 10.1445 16.2148 11.3477 14.916 11.7305L14.916 12.6055L10.7321 8.42153C10.8641 6.76593 12.2688 5.46875 13.9453 5.46875C15.7227 5.46875 17.1719 6.9043 17.1719 8.68164ZM12.0996 7.86133C12.0996 8.4082 12.5781 8.88672 13.1113 8.88672C13.6719 8.88672 14.1367 8.4082 14.1367 7.86133C14.1367 7.30078 13.6719 6.82227 13.1113 6.82227C12.5781 6.82227 12.0859 7.30078 12.0996 7.86133Z" style="fill:var(--color-1,white)"></path>
 </g>
</svg>