<?xml version="1.0" encoding="UTF-8"?>
<!--Generator: Apple Native CoreSVG 326-->
<!DOCTYPE svg
PUBLIC "-//W3C//DTD SVG 1.1//EN"
       "http://www.w3.org/Graphics/SVG/1.1/DTD/svg11.dtd">
<svg version="1.1" xmlns="http://www.w3.org/2000/svg" xmlns:xlink="http://www.w3.org/1999/xlink" viewBox="0 0 25.7373 30.0371">
 <g>
  <rect height="30.0371" opacity="0" width="25.7373" x="0" y="0"/>
  <path d="M13.9487 21.8151L13.9487 22.8184C13.9487 26.8652 13.2378 29.0527 12.6909 29.0527C12.1304 29.0527 11.4194 26.8516 11.4194 22.8184L11.4194 19.2894ZM17.8179 5.1543C17.8179 7.56055 16.1772 9.58398 13.9487 10.1309L13.9487 14.3214L11.4194 11.7939L11.4194 10.1309C9.19092 9.57031 7.56396 7.56055 7.56396 5.1543C7.56396 2.32422 9.8335 0 12.6909 0C15.5347 0 17.8179 2.32422 17.8179 5.1543ZM9.46436 3.66406C9.46436 4.62109 10.2847 5.44141 11.2144 5.44141C12.1851 5.44141 12.978 4.62109 12.978 3.66406C12.978 2.7207 12.1851 1.91406 11.2144 1.91406C10.2847 1.91406 9.46436 2.7207 9.46436 3.66406Z" fill="#ff453a"/>
  <path d="M20.9897 26.5781C21.3999 26.9883 22.0835 26.9883 22.48 26.5781C22.8765 26.168 22.8901 25.5117 22.48 25.0879L3.40771 6.0293C2.99756 5.63281 2.31396 5.61914 1.90381 6.0293C1.50732 6.42578 1.50732 7.12305 1.90381 7.51953Z" fill="#ff453a"/>
 </g>
</svg>
