<svg version="1.1" xmlns="http://www.w3.org/2000/svg" xmlns:xlink="http://www.w3.org/1999/xlink" viewBox="0 0 28.2461 27.9043">
 <g>
  
  <path d="M27.8906 13.9453C27.8906 21.6426 21.6426 27.8906 13.9453 27.8906C6.24805 27.8906 0 21.6426 0 13.9453C0 6.24805 6.24805 0 13.9453 0C21.6426 0 27.8906 6.24805 27.8906 13.9453ZM2.32422 13.9453C2.32422 20.3711 7.51953 25.5664 13.9453 25.5664C20.3711 25.5664 25.5664 20.3711 25.5664 13.9453C25.5664 7.51953 20.3711 2.32422 13.9453 2.32422C7.51953 2.32422 2.32422 7.51953 2.32422 13.9453Z" style="fill:var(--color-0,#ff3b30)"></path>
  <path d="M14.8613 17.0898L14.8613 18.6621C14.8613 20.6855 14.5605 22.4355 13.9316 22.4355C13.3164 22.4355 12.9883 20.6582 12.9883 18.6621L12.9883 15.2168ZM17.0488 8.83203C17.0488 10.2266 16.1328 11.4023 14.8613 11.7852L14.8613 12.6126L10.8271 8.58276C10.9528 6.97645 12.3061 5.71484 13.9316 5.71484C15.6543 5.71484 17.0488 7.10938 17.0488 8.83203ZM12.1406 8.02539C12.1406 8.55859 12.6055 9.02344 13.125 9.02344C13.6719 9.02344 14.123 8.55859 14.123 8.02539C14.123 7.49219 13.6719 7.02734 13.125 7.02734C12.6055 7.02734 12.127 7.49219 12.1406 8.02539Z" style="fill:var(--color-1,#ff3b30)"></path>
  <path d="M19.7969 20.6445C20.0293 20.877 20.4395 20.8906 20.6719 20.6445C20.918 20.3984 20.918 20.0156 20.6719 19.7695L8.14844 7.23242C7.88867 6.98633 7.50586 6.98633 7.25977 7.23242C7.01367 7.47852 7.01367 7.875 7.25977 8.10742Z" style="fill:var(--color-2,#ff3b30)"></path>
 </g>
</svg>