<svg version="1.1" xmlns="http://www.w3.org/2000/svg" xmlns:xlink="http://www.w3.org/1999/xlink" viewBox="0 0 26.3184 34.5488">
 <g>
  
  <path d="M25.9629 26.291C25.9629 29.8184 20.5898 32.2793 13.002 32.2793C5.40039 32.2793 0 29.8184 0 26.291C0 23.356 3.7682 21.1555 9.44727 20.5164L9.44727 21.5879C9.44727 21.9837 9.45766 22.3618 9.48188 22.7161C5.52719 23.2332 2.78906 24.6193 2.78906 26.291C2.78906 28.4512 7.24609 30.1191 12.9883 30.1191C18.7031 30.1191 23.1875 28.4238 23.1875 26.291C23.1875 24.6278 20.4252 23.2341 16.4681 22.7155C16.4918 22.3614 16.502 21.9835 16.502 21.5879L16.502 20.5113C22.1931 21.1434 25.9629 23.3479 25.9629 26.291Z" style="fill:var(--color-0,#ff3b30)"></path>
  <path d="M7.84766 7.41016C7.84766 9.81641 9.48828 11.8262 11.7168 12.3867L11.7168 21.041C11.7168 25.0742 12.4277 27.2754 12.9883 27.2754C13.5352 27.2754 14.2461 25.0879 14.2461 21.041L14.2461 12.3867C16.4746 11.8398 18.1152 9.81641 18.1152 7.41016C18.1152 4.58008 15.832 2.25586 12.9883 2.25586C10.1309 2.25586 7.84766 4.58008 7.84766 7.41016ZM11.5117 7.69727C10.582 7.69727 9.76172 6.87695 9.76172 5.91992C9.76172 4.97656 10.582 4.16992 11.5117 4.16992C12.4824 4.16992 13.2754 4.97656 13.2754 5.91992C13.2754 6.87695 12.4824 7.69727 11.5117 7.69727Z" style="fill:var(--color-1,#ff3b30)"></path>
  <path d="M11.5117 7.69727C10.582 7.69727 9.76172 6.87695 9.76172 5.91992C9.76172 4.97656 10.582 4.16992 11.5117 4.16992C12.4824 4.16992 13.2754 4.97656 13.2754 5.91992C13.2754 6.87695 12.4824 7.69727 11.5117 7.69727Z" style="fill:var(--color-2,white)"></path>
 </g>
</svg>