<svg version="1.1" xmlns="http://www.w3.org/2000/svg" xmlns:xlink="http://www.w3.org/1999/xlink" viewBox="0 0 25.5254 25.1699">
 <g>
  
  <path d="M4.29297 25.1699L20.877 25.1699C23.748 25.1699 25.1699 23.7617 25.1699 20.9453L25.1699 4.23828C25.1699 1.42188 23.748 0 20.877 0L4.29297 0C1.43555 0 0 1.42188 0 4.23828L0 20.9453C0 23.7617 1.43555 25.1699 4.29297 25.1699Z" style="fill:var(--color-0,#ff3b30)"></path>
  <path d="M9.36523 7.30078C9.36523 5.52344 10.8281 4.08789 12.5918 4.08789C14.3691 4.08789 15.8184 5.52344 15.8184 7.30078C15.8184 8.75 14.875 9.95312 13.5625 10.3496L13.5625 17.418C13.5625 19.5098 13.248 21.3281 12.5918 21.3281C11.9492 21.3281 11.6074 19.4824 11.6074 17.418L11.6074 10.3496C10.3223 9.93945 9.36523 8.73633 9.36523 7.30078ZM10.7461 6.4668C10.7461 7.02734 11.2246 7.50586 11.7578 7.50586C12.3184 7.50586 12.7832 7.02734 12.7832 6.4668C12.7969 5.91992 12.3184 5.44141 11.7578 5.44141C11.2246 5.44141 10.7324 5.91992 10.7461 6.4668Z" style="fill:var(--color-1,white)"></path>
 </g>
</svg>