<svg version="1.1" xmlns="http://www.w3.org/2000/svg" xmlns:xlink="http://www.w3.org/1999/xlink" viewBox="0 0 28.2461 27.9043">
 <g>
  
  <path d="M13.9453 27.9043C21.6426 27.9043 27.8906 21.6562 27.8906 13.959C27.8906 6.27539 21.6426 0.0136719 13.9453 0.0136719C6.26172 0.0136719 0 6.27539 0 13.959C0 21.6562 6.26172 27.9043 13.9453 27.9043Z" style="fill:var(--color-0,#ff3b30)"></path>
  <path d="M11.0059 8.08008C11.0059 6.45312 12.3047 5.14062 13.9453 5.14062C15.5859 5.14062 16.8848 6.45312 16.8848 8.08008C16.8848 9.41992 15.9824 10.5684 14.752 10.9375L14.752 15.668C14.752 17.9238 14.3691 19.1816 13.9453 19.1816C13.5352 19.1816 13.1523 17.9102 13.1523 15.668L13.1523 10.9375C11.9082 10.5684 11.0059 9.41992 11.0059 8.08008ZM13.125 8.23047C13.6582 8.23047 14.082 7.79297 14.082 7.25977C14.082 6.74023 13.6582 6.31641 13.125 6.31641C12.6465 6.31641 12.1816 6.74023 12.1816 7.25977C12.1816 7.79297 12.6465 8.23047 13.125 8.23047ZM13.9453 21.9434C9.36523 21.9434 6.67188 20.3438 6.67188 18.6074C6.67188 16.4883 10.0215 15.2578 12.1406 15.2715L12.1406 16.5703C10.6777 16.5566 8.39453 17.3359 8.39453 18.4297C8.39453 19.6602 10.6914 20.5488 13.9453 20.5488C17.1855 20.5488 19.5098 19.6465 19.5098 18.4297C19.5098 17.3359 17.2129 16.5566 15.75 16.5703L15.75 15.2715C17.8691 15.2578 21.2188 16.4883 21.2188 18.6074C21.2188 20.3438 18.5254 21.9434 13.9453 21.9434Z" style="fill:var(--color-1,white)"></path>
 </g>
</svg>