<?xml version="1.0" encoding="UTF-8"?>
<!--Generator: Apple Native CoreSVG 326-->
<!DOCTYPE svg
PUBLIC "-//W3C//DTD SVG 1.1//EN"
       "http://www.w3.org/Graphics/SVG/1.1/DTD/svg11.dtd">
<svg version="1.1" xmlns="http://www.w3.org/2000/svg" xmlns:xlink="http://www.w3.org/1999/xlink" viewBox="0 0 31.623 30.584">
 <g>
  <rect height="30.584" opacity="0" width="31.623" x="0" y="0"/>
  <path d="M9.26953 7.84766C10.5547 8.87305 12.127 9.625 13.8223 9.92578L13.8223 1.02539L15.6406 0L17.4453 1.02539L17.4453 9.92578C19.1406 9.625 20.7129 8.87305 21.9844 7.84766L25.293 9.73438C22.8047 12.1953 19.3867 13.7266 15.6406 13.7266C11.8672 13.7266 8.46289 12.1953 5.97461 9.73438ZM13.2754 30.5566C14.1504 27.1797 13.7676 23.4609 11.8809 20.207C9.99414 16.9395 6.98633 14.752 3.62305 13.8359L3.62305 17.6504C5.16797 18.2383 6.57617 19.209 7.71094 20.5352L0 24.9922L0 27.0566L1.81836 28.1094L9.51562 23.6797C10.0898 25.293 10.2402 27.0156 9.98047 28.6562ZM27.6445 13.8359C24.2949 14.752 21.2598 16.9395 19.3867 20.207C17.5 23.4609 17.1035 27.1797 17.9922 30.5566L21.2871 28.6562C21.0273 27.0156 21.1641 25.293 21.7656 23.6797L29.4629 28.1094L31.2676 27.0566L31.2676 24.9922L23.5566 20.5352C24.6914 19.209 26.0996 18.2383 27.6445 17.6504Z" fill="white" fill-opacity="0.85"/>
 </g>
</svg>
