<svg version="1.1" xmlns="http://www.w3.org/2000/svg" xmlns:xlink="http://www.w3.org/1999/xlink" viewBox="0 0 26.3649 30.8574">
 <g>
  
  <path d="M12.9979 30.8438C17.8104 30.8438 21.6932 26.9609 21.6932 22.1621C21.6932 17.3496 17.8104 13.4668 12.9979 13.4668C8.19903 13.4668 4.31622 17.3496 4.31622 22.1621C4.31622 26.9609 8.19903 30.8438 12.9979 30.8438ZM10.5233 26.6328C10.0037 27.0156 9.45685 26.6191 9.66192 26.0176L10.6463 23.0781L8.13067 21.2871C7.65216 20.9316 7.80255 20.2617 8.4588 20.2617L11.5486 20.2891L12.492 17.3359C12.6834 16.7344 13.3397 16.7344 13.5311 17.3359L14.4744 20.2891L17.5643 20.2617C18.2342 20.2617 18.3572 20.9453 17.8787 21.2734L15.3768 23.0781L16.3611 26.0176C16.5525 26.6191 16.033 27.0156 15.4998 26.6328L13.0115 24.8145ZM4.67169 15.6543C6.01153 13.959 7.84356 12.6738 9.97638 12.0449L3.78302 0.916016L0.187314 6.39844C-0.045108 6.75391-0.0587799 7.15039 0.132626 7.50586ZM9.93536 7.38281L16.074 7.38281L20.244 0L5.76544 0ZM16.033 12.0449C18.1658 12.6738 19.9842 13.959 21.3377 15.6543L25.8768 7.50586C26.0818 7.15039 26.0682 6.75391 25.8221 6.39844L22.2264 0.916016Z" style="fill:var(--color-0,hsl(0 0 0/0.85))"></path>
 </g>
</svg>