<svg version="1.1" xmlns="http://www.w3.org/2000/svg" xmlns:xlink="http://www.w3.org/1999/xlink" viewBox="0 0 26.3399 31.377">
 <g>
  
  <path d="M5.67095 18.2246L7.13384 16.707L2.26665 7.15039L4.46782 3.77344L10.2374 15.1484L12.4795 14.7793L5.794 2.32422L20.1905 2.32422L13.5049 14.7793L15.7471 15.1484L21.5167 3.77344L23.7315 7.15039L18.8506 16.707L20.3135 18.2246L25.8096 7.90234C26.0694 7.45117 26.0557 6.93164 25.7686 6.50781L22.0635 0.833984C21.7764 0.4375 21.4346 0.259766 20.9014 0.259766L5.09673 0.259766C4.54986 0.259766 4.20806 0.4375 3.93462 0.833984L0.215872 6.50781C-0.0575658 6.93164-0.0712377 7.45117 0.174856 7.90234ZM7.92681 8.59961L18.0713 8.59961L18.0713 6.53516L7.92681 6.53516ZM12.9991 31.377C17.9483 31.377 21.9542 27.3711 21.9542 22.4219C21.9542 17.459 17.9483 13.4531 12.9991 13.4531C8.03618 13.4531 4.03032 17.459 4.03032 22.4219C4.03032 27.3711 8.03618 31.377 12.9991 31.377ZM12.9991 29.3125C9.18462 29.3125 6.09478 26.2363 6.09478 22.4219C6.09478 18.6074 9.17095 15.5176 12.9991 15.5176C16.7999 15.5176 19.8897 18.5938 19.8897 22.4219C19.8897 26.2227 16.8135 29.3125 12.9991 29.3125ZM10.5928 26.7422L13.0127 24.9785L15.4053 26.7422C15.9249 27.1113 16.4444 26.7285 16.253 26.1543L15.2823 23.2969L17.7295 21.5469C18.1807 21.2324 18.0577 20.5762 17.4151 20.5762L14.4209 20.6035L13.5049 17.7324C13.3272 17.1582 12.6709 17.1582 12.4932 17.7324L11.5772 20.6035L8.58306 20.5762C7.95415 20.5762 7.80376 21.2188 8.28228 21.5605L10.7159 23.2969L9.75884 26.1543C9.56743 26.7285 10.087 27.1113 10.5928 26.7422Z" style="fill:var(--color-0,hsl(0 0 0/0.85))"></path>
 </g>
</svg>