<?xml version="1.0" encoding="UTF-8"?>
<!--Generator: Apple Native CoreSVG 326-->
<!DOCTYPE svg
PUBLIC "-//W3C//DTD SVG 1.1//EN"
       "http://www.w3.org/Graphics/SVG/1.1/DTD/svg11.dtd">
<svg version="1.1" xmlns="http://www.w3.org/2000/svg" xmlns:xlink="http://www.w3.org/1999/xlink" viewBox="0 0 20.0566 34.1204">
 <g>
  <rect height="34.1204" opacity="0" width="20.0566" x="0" y="0"/>
  <path d="M12.4414 18.0007L12.1816 17.1901C11.416 14.8112 8.29883 14.8112 7.5332 17.1901L7.24609 18.086L7.24609 1.11194L12.4414 1.11194ZM19.7012 3.3678L19.7012 11.5983C19.7012 12.7194 19.373 13.3756 18.5117 13.9635L14.5879 16.6842L14.5879 1.11194L17.4453 1.11194C18.7441 1.11194 19.7012 2.0553 19.7012 3.3678ZM5.09961 16.6705L1.18945 13.9635C0.341797 13.3756 0 12.733 0 11.5983L0 3.3678C0 2.0553 0.943359 1.11194 2.25586 1.11194L5.09961 1.11194Z" fill="white" fill-opacity="0.85"/>
  <path d="M5.93359 32.2975L9.85742 29.4127L13.7812 32.2975C14.5742 32.8991 15.4219 32.2701 15.1211 31.3405L13.5625 26.7057L17.5273 23.8756C18.252 23.3424 18.0332 22.276 17.0215 22.2897L12.1543 22.3307L10.6641 17.6686C10.377 16.7662 9.33789 16.7662 9.05078 17.6686L7.56055 22.3307L2.69336 22.2897C1.68164 22.276 1.44922 23.3287 2.1875 23.8756L6.15234 26.7057L4.59375 31.3405C4.29297 32.2701 5.14062 32.8991 5.93359 32.2975Z" fill="white" fill-opacity="0.85"/>
 </g>
</svg>
