<?xml version="1.0" encoding="UTF-8"?>
<!--Generator: Apple Native CoreSVG 326-->
<!DOCTYPE svg
PUBLIC "-//W3C//DTD SVG 1.1//EN"
       "http://www.w3.org/Graphics/SVG/1.1/DTD/svg11.dtd">
<svg version="1.1" xmlns="http://www.w3.org/2000/svg" xmlns:xlink="http://www.w3.org/1999/xlink" viewBox="0 0 30.0986 30.126">
 <g>
  <rect height="30.126" opacity="0" width="30.0986" x="0" y="0"/>
  <path d="M20.6616 1.87646L28.2495 9.47803L28.3179 9.40967C30.3687 7.37256 30.1362 4.13232 28.0718 2.08154C26.0073 0.0170898 22.7671-0.215332 20.73 1.80811ZM2.64209 24.8999L5.22607 27.4839L6.93506 25.7749C10.3804 22.3433 14.4136 23.3276 18.0093 19.7319L27.1558 10.5854L19.5405 2.97021L10.394 12.1304C6.63428 15.8901 7.79639 19.7456 4.35107 23.1909ZM14.8374 15.3569C13.9487 14.4683 13.9761 13.0737 14.8374 12.2124L18.9663 8.05615C19.8276 7.19482 21.2222 7.16748 22.0698 8.05615C22.9585 8.89014 22.9585 10.271 22.0698 11.1597L17.9409 15.3296C17.0796 16.1909 15.6851 16.2046 14.8374 15.3569ZM11.8706 16.6968C11.4878 16.3413 11.5698 15.8354 11.8706 15.521C12.1851 15.1929 12.6636 15.1655 13.0327 15.521L14.6187 17.0933C14.9878 17.4487 14.9331 17.9546 14.6187 18.2827C14.3179 18.5835 13.8257 18.6245 13.4429 18.2554ZM15.8218 14.3452C16.1636 14.687 16.6694 14.7827 17.0386 14.4272L21.1812 10.2573C21.5503 9.88818 21.4409 9.38232 21.0991 9.0542C20.73 8.7124 20.2104 8.67139 19.8413 9.04053L15.8218 13.0737C15.4663 13.4292 15.4663 13.9897 15.8218 14.3452ZM0.60498 29.521C1.38428 30.3276 2.42334 30.3276 3.21631 29.521L3.92725 28.8237L1.31592 26.2124L0.60498 26.9233C-0.20166 27.73-0.20166 28.7554 0.60498 29.521Z" fill="white" fill-opacity="0.85"/>
 </g>
</svg>
