<?xml version="1.0" encoding="UTF-8"?>
<!--Generator: Apple Native CoreSVG 326-->
<!DOCTYPE svg
PUBLIC "-//W3C//DTD SVG 1.1//EN"
       "http://www.w3.org/Graphics/SVG/1.1/DTD/svg11.dtd">
<svg version="1.1" xmlns="http://www.w3.org/2000/svg" xmlns:xlink="http://www.w3.org/1999/xlink" viewBox="0 0 36.6406 14.0957">
 <g>
  <rect height="14.0957" opacity="0" width="36.6406" x="0" y="0"/>
  <path d="M4.59375 14.041L24.2129 14.041C27.6992 14.041 28.8066 12.3594 28.8066 7.02734C28.8066 1.68164 27.7129 0 24.2129 0L4.59375 0C1.09375 0 0 1.68164 0 7.02734C0 12.3594 1.09375 14.041 4.59375 14.041ZM4.59375 6.04297C3.80078 6.04297 3.17188 5.41406 3.17188 4.62109C3.17188 3.8418 3.80078 3.22656 4.59375 3.22656C5.37305 3.22656 5.98828 3.8418 5.98828 4.62109C5.98828 5.41406 5.37305 6.04297 4.59375 6.04297Z" fill="white" fill-opacity="0.85"/>
  <path d="M30.3516 10.8828L33.6738 10.8828C35.2461 10.8828 36.2852 9.87109 36.2852 8.4082L36.2852 5.61914C36.2852 4.16992 35.2461 3.14453 33.6738 3.14453L30.3516 3.14453C30.5703 4.22461 30.666 5.50977 30.666 7.02734C30.666 8.51758 30.5566 9.80273 30.3516 10.8828Z" fill="white" fill-opacity="0.85"/>
 </g>
</svg>
