<svg version="1.1" xmlns="http://www.w3.org/2000/svg" xmlns:xlink="http://www.w3.org/1999/xlink" viewBox="0 0 30.8027 28.916">
 <g>
  
  <path d="M0 14.3828C0 17.9512 1.98242 19.9062 5.72852 19.9062L10.4727 19.9062C15.2031 20.4531 20.166 22.0117 24.459 24.6504L24.459 22.2168C20.2754 19.6465 15.4492 18.2383 10.3906 17.7051L5.72852 17.7051C3.22656 17.7051 2.20117 16.7344 2.20117 14.3828L2.20117 12.373C2.20117 10.0078 3.22656 9.05078 5.72852 9.05078L10.2676 9.05078C15.4219 8.53125 20.3574 7.06836 24.459 4.52539L24.459 2.10547C20.3438 4.73047 14.8477 6.38477 10.5547 6.84961L5.72852 6.84961C1.98242 6.84961 0 8.77734 0 12.373ZM12.7148 19.7285L10.6367 19.7285L11.7852 25.5527C11.8945 26.168 11.5801 26.5645 11.1426 26.7148C10.6777 26.8789 10.0762 26.7285 9.76172 26.0723L6.67188 19.4688L4.42969 19.4688L7.58789 26.4688C8.70898 28.9707 10.6504 29.1211 11.9766 28.7109C13.3164 28.2871 14.1367 27.043 13.7812 25.2246ZM8.62695 7.88867L8.62695 18.8672L10.8418 18.8672L10.8418 7.88867ZM23.6797 23.2832C23.6797 25.3066 25.0469 26.6602 27.0566 26.6602C29.0938 26.6602 30.4473 25.3066 30.4473 23.2832L30.4473 3.37695C30.4473 1.35352 29.0938 0 27.0566 0C25.0469 0 23.6797 1.35352 23.6797 3.37695ZM25.8945 23.2832L25.8945 3.37695C25.8945 2.66602 26.3457 2.20117 27.0566 2.20117C27.7676 2.20117 28.2461 2.66602 28.2461 3.37695L28.2461 23.2832C28.2461 23.9941 27.7676 24.459 27.0566 24.459C26.3457 24.459 25.8945 23.9941 25.8945 23.2832Z" style="fill:var(--color-0,hsl(0 0 0/0.85))"></path>
 </g>
</svg>