<?xml version="1.0" encoding="UTF-8"?>
<!--Generator: Apple Native CoreSVG 326-->
<!DOCTYPE svg
PUBLIC "-//W3C//DTD SVG 1.1//EN"
       "http://www.w3.org/Graphics/SVG/1.1/DTD/svg11.dtd">
<svg version="1.1" xmlns="http://www.w3.org/2000/svg" xmlns:xlink="http://www.w3.org/1999/xlink" viewBox="0 0 29.6543 23.8027">
 <g>
  <rect height="23.8027" opacity="0" width="29.6543" x="0" y="0"/>
  <path d="M4.29297 21.123L25.0059 21.123C27.877 21.123 29.2988 19.7012 29.2988 16.8848L29.2988 6.94531C29.2988 4.12891 27.877 2.70703 25.0059 2.70703L4.29297 2.70703C1.43555 2.70703 0 4.11523 0 6.94531L0 16.8848C0 19.7148 1.43555 21.123 4.29297 21.123ZM4.32031 18.9219C2.95312 18.9219 2.20117 18.1973 2.20117 16.7754L2.20117 7.05469C2.20117 5.63281 2.95312 4.9082 4.32031 4.9082L24.9785 4.9082C26.3184 4.9082 27.0977 5.63281 27.0977 7.05469L27.0977 16.7754C27.0977 18.1973 26.3184 18.9219 24.9785 18.9219ZM4.7168 3.60938L6.91797 3.60938L6.91797 1.12109C6.91797 0.464844 6.4668 0.0273438 5.81055 0.0273438C5.1543 0.0273438 4.7168 0.464844 4.7168 1.12109ZM9.13281 3.60938L11.334 3.60938L11.334 1.12109C11.334 0.464844 10.8828 0.0273438 10.2266 0.0273438C9.57031 0.0273438 9.13281 0.464844 9.13281 1.12109ZM13.5488 3.60938L15.75 3.60938L15.75 1.12109C15.75 0.464844 15.2988 0.0273438 14.6426 0.0273438C13.9863 0.0273438 13.5488 0.464844 13.5488 1.12109ZM17.9648 3.60938L20.166 3.60938L20.166 1.12109C20.166 0.464844 19.7285 0.0273438 19.0723 0.0273438C18.416 0.0273438 17.9648 0.464844 17.9648 1.12109ZM22.3809 3.60938L24.582 3.60938L24.582 1.12109C24.582 0.464844 24.1445 0.0273438 23.4883 0.0273438C22.832 0.0273438 22.3809 0.464844 22.3809 1.12109ZM4.7168 20.248L4.7168 22.6953C4.7168 23.3516 5.1543 23.8027 5.81055 23.8027C6.4668 23.8027 6.91797 23.3516 6.91797 22.6953L6.91797 20.248ZM9.13281 20.248L9.13281 22.6953C9.13281 23.3516 9.57031 23.8027 10.2266 23.8027C10.8828 23.8027 11.334 23.3516 11.334 22.6953L11.334 20.248ZM13.5488 20.248L13.5488 22.6953C13.5488 23.3516 13.9863 23.8027 14.6426 23.8027C15.2988 23.8027 15.75 23.3516 15.75 22.6953L15.75 20.248ZM17.9648 20.248L17.9648 22.6953C17.9648 23.3516 18.416 23.8027 19.0723 23.8027C19.7285 23.8027 20.166 23.3516 20.166 22.6953L20.166 20.248ZM22.3809 20.248L22.3809 22.6953C22.3809 23.3516 22.832 23.8027 23.4883 23.8027C24.1445 23.8027 24.582 23.3516 24.582 22.6953L24.582 20.248Z" fill="white" fill-opacity="0.85"/>
 </g>
</svg>
