<svg version="1.1" xmlns="http://www.w3.org/2000/svg" xmlns:xlink="http://www.w3.org/1999/xlink" viewBox="0 0 28.2461 27.9043">
 <g>
  
  <path d="M13.9453 27.8906C21.6426 27.8906 27.8906 21.6426 27.8906 13.9453C27.8906 6.24805 21.6426 0 13.9453 0C6.24805 0 0 6.24805 0 13.9453C0 21.6426 6.24805 27.8906 13.9453 27.8906ZM13.9453 25.5664C7.51953 25.5664 2.32422 20.3711 2.32422 13.9453C2.32422 7.51953 7.51953 2.32422 13.9453 2.32422C20.3711 2.32422 25.5664 7.51953 25.5664 13.9453C25.5664 20.3711 20.3711 25.5664 13.9453 25.5664Z" style="fill:var(--color-0,#28cd41)"></path>
  <path d="M13.9316 19.7148C18.1699 19.7148 21.4922 16.9395 21.4922 13.5352C21.4922 10.1309 18.1699 7.35547 13.9316 7.35547C9.69336 7.35547 6.37109 10.1309 6.37109 13.5352C6.37109 15.6816 7.72461 17.5273 9.73438 18.6895C9.89844 18.7852 9.89844 18.9355 9.81641 19.0859C9.59766 19.5371 9.20117 19.9609 8.91406 20.2754C8.53125 20.7129 8.64062 21.1914 9.24219 21.1914C9.99414 21.1914 11.3613 20.6309 12.7148 19.7969C12.8516 19.7148 12.9336 19.6738 13.084 19.6875C13.3438 19.7012 13.6309 19.7148 13.9316 19.7148Z" style="fill:var(--color-1,#28cd41)"></path>
 </g>
</svg>