<svg version="1.1" xmlns="http://www.w3.org/2000/svg" xmlns:xlink="http://www.w3.org/1999/xlink" viewBox="0 0 29.7739 26.127">
 <g>
  
  <path d="M28.5315 20.3574C28.8733 20.959 29.0647 21.6289 29.0647 22.2715C29.0647 24.3633 27.6565 25.9766 25.3323 25.9766L4.1272 25.9766C1.81666 25.9766 0.408455 24.3633 0.408455 22.2715C0.408455 21.6289 0.572517 20.9727 0.941658 20.3574L1.48311 19.4141L27.99 19.4141ZM9.84205 17.623L2.51109 17.623L5.18441 12.9654ZM17.9221 1.87305L26.9621 17.623L18.2349 17.623L15.803 15.1933L15.803 6.16602C15.803 5.48242 15.3928 5.04492 14.7229 5.04492C14.0393 5.04492 13.6292 5.48242 13.6292 6.16602L13.6292 13.0215L8.24164 7.63889L11.551 1.87305C12.2483 0.628906 13.4788 0 14.7366 0C15.9807 0 17.2112 0.628906 17.9221 1.87305Z" style="fill:var(--color-0,hsl(0 0 0/0.85))"></path>
  <path d="M12.7542 17.8828L15.8167 17.8555L3.75806 5.79688C3.30689 5.3457 2.70533 5.33203 2.21314 5.79688C1.73463 6.27539 1.76197 6.9043 2.21314 7.36914Z" style="fill:var(--color-1,hsl(0 0 0/0.85))"></path>
 </g>
</svg>