<?xml version="1.0" encoding="UTF-8"?>
<!--Generator: Apple Native CoreSVG 326-->
<!DOCTYPE svg
PUBLIC "-//W3C//DTD SVG 1.1//EN"
       "http://www.w3.org/Graphics/SVG/1.1/DTD/svg11.dtd">
<svg version="1.1" xmlns="http://www.w3.org/2000/svg" xmlns:xlink="http://www.w3.org/1999/xlink" viewBox="0 0 29.8013 26.127">
 <g>
  <rect height="26.127" opacity="0" width="29.8013" x="0" y="0"/>
  <path d="M17.9085 1.87305L28.5178 20.3574C28.8733 20.959 29.051 21.6289 29.051 22.2715C29.051 24.3633 27.6428 25.9766 25.3323 25.9766L4.1272 25.9766C1.80299 25.9766 0.394783 24.3633 0.394783 22.2715C0.394783 21.6289 0.572517 20.9727 0.927986 20.3574L5.17735 12.9539L6.7492 14.5241L5.05776 17.4727L4.09986 17.4727L2.80103 19.5918L3.8428 19.5906L2.8147 21.3828C2.66431 21.6699 2.60963 21.998 2.60963 22.2578C2.60963 23.0918 3.19752 23.8301 4.14088 23.8301L25.2913 23.8301C26.2483 23.8301 26.8499 23.0918 26.8499 22.2578C26.8499 21.998 26.7678 21.6836 26.6174 21.3965L25.568 19.5657L26.6721 19.5645L25.3733 17.4727L24.3682 17.4727L16.0217 2.91211C15.7346 2.40625 15.2288 2.1875 14.7229 2.1875C14.217 2.1875 13.6975 2.40625 13.4104 2.91211L9.80388 9.1991L8.2331 7.62996L11.5374 1.87305C12.2483 0.628906 13.4788 0 14.7229 0C15.9807 0 17.2112 0.628906 17.9085 1.87305Z" fill="white" fill-opacity="0.85"/>
  <path d="M15.8167 6.84961L15.8167 15.2056L13.6428 13.034L13.6428 6.84961C13.6428 6.16602 14.053 5.72852 14.7229 5.72852C15.4065 5.72852 15.8167 6.16602 15.8167 6.84961Z" fill="white" fill-opacity="0.85"/>
  <path d="M26.6721 19.5645L2.80103 19.5918L4.09986 17.4727L12.3538 17.4727L14.0256 19.1406L15.5706 17.582L15.4611 17.4727L25.3733 17.4727Z" fill="white" fill-opacity="0.85"/>
  <path d="M14.0256 19.1406L15.5706 17.582L3.77174 5.79688C3.30689 5.3457 2.70533 5.33203 2.22681 5.79688C1.73463 6.27539 1.76197 6.9043 2.22681 7.36914Z" fill="white" fill-opacity="0.85"/>
 </g>
</svg>
