<?xml version="1.0" encoding="UTF-8"?>
<!--Generator: Apple Native CoreSVG 326-->
<!DOCTYPE svg
PUBLIC "-//W3C//DTD SVG 1.1//EN"
       "http://www.w3.org/Graphics/SVG/1.1/DTD/svg11.dtd">
<svg version="1.1" xmlns="http://www.w3.org/2000/svg" xmlns:xlink="http://www.w3.org/1999/xlink" viewBox="0 0 28.2461 27.9043">
 <g>
  <rect height="27.9043" opacity="0" width="28.2461" x="0" y="0"/>
  <path d="M27.8906 13.9453C27.8906 21.6426 21.6426 27.8906 13.9453 27.8906C6.24805 27.8906 0 21.6426 0 13.9453C0 6.24805 6.24805 0 13.9453 0C21.6426 0 27.8906 6.24805 27.8906 13.9453ZM2.32422 13.9453C2.32422 20.3711 7.51953 25.5664 13.9453 25.5664C20.3711 25.5664 25.5664 20.3711 25.5664 13.9453C25.5664 7.51953 20.3711 2.32422 13.9453 2.32422C7.51953 2.32422 2.32422 7.51953 2.32422 13.9453Z" fill="#ff9f0a"/>
  <path d="M9.45326 11.6818L10.1003 12.3288C10.1026 12.3479 10.1035 12.3672 10.1035 12.3867L10.1035 14.1504C10.1035 16.3926 11.6758 17.9648 13.9316 17.9648C14.4874 17.9648 15.0025 17.8694 15.4627 17.6912L16.5304 18.759C15.9792 19.0391 15.3586 19.2263 14.6836 19.3047L14.6836 20.6855L17.418 20.6855C17.8145 20.6855 18.1426 21.0273 18.1426 21.4238C18.1426 21.8066 17.8008 22.1621 17.418 22.1621L10.459 22.1621C10.0625 22.1621 9.7207 21.8203 9.7207 21.4238C9.7207 21.0273 10.0625 20.6855 10.459 20.6855L13.207 20.6855L13.207 19.3047C10.4863 19.0039 8.6543 16.9258 8.6543 14.1504L8.6543 12.3867C8.6543 12.0039 8.98242 11.6758 9.36523 11.6758C9.39497 11.6758 9.42441 11.6776 9.45326 11.6818ZM14.3219 16.5504C14.1972 16.5735 14.0665 16.584 13.9316 16.584C12.5918 16.584 11.6621 15.5449 11.6621 14.1504L11.6621 13.8906ZM19.2227 12.3867L19.2227 14.1504C19.2227 15.0034 19.0496 15.7893 18.7299 16.4769L17.6057 15.354C17.7157 14.9817 17.7734 14.5782 17.7734 14.1504L17.7734 12.3867C17.7734 12.0039 18.1016 11.6758 18.498 11.6758C18.8809 11.6758 19.2227 12.0039 19.2227 12.3867ZM16.2012 8.28516L16.2012 13.9509L11.6621 9.41682L11.6621 8.28516C11.6621 6.9043 12.5918 5.87891 13.9316 5.87891C15.2715 5.87891 16.2012 6.9043 16.2012 8.28516Z" fill="#ff9f0a"/>
  <path d="M19.7969 20.6445C20.0293 20.877 20.4395 20.8906 20.6719 20.6445C20.918 20.3984 20.918 20.0156 20.6719 19.7695L8.14844 7.23242C7.88867 6.98633 7.50586 6.98633 7.25977 7.23242C7.01367 7.47852 7.01367 7.875 7.25977 8.10742Z" fill="#ff9f0a"/>
 </g>
</svg>
