<svg version="1.1" xmlns="http://www.w3.org/2000/svg" xmlns:xlink="http://www.w3.org/1999/xlink" viewBox="0 0 28.2461 27.9043">
 <g>
  
  <path d="M13.9453 27.8906C21.6426 27.8906 27.8906 21.6289 27.8906 13.9453C27.8906 6.24805 21.6426 0 13.9453 0C6.26172 0 0 6.24805 0 13.9453C0 21.6289 6.26172 27.8906 13.9453 27.8906Z" style="fill:var(--color-0,hsl(0 0 0/0.85))"></path>
  <path d="M13.959 18.8125C11.2793 18.8125 9.0918 16.625 9.0918 13.9453C9.0918 11.2656 11.2793 9.07812 13.959 9.07812C16.6387 9.07812 18.8262 11.2656 18.8262 13.9453C18.8262 16.625 16.6387 18.8125 13.959 18.8125ZM13.9727 7.80664C13.3984 7.80664 12.9746 7.38281 12.9746 6.78125C12.9746 6.20703 13.3984 5.7832 13.9727 5.7832C14.5469 5.7832 14.9707 6.20703 14.9707 6.78125C14.9707 7.38281 14.5469 7.80664 13.9727 7.80664ZM17.5547 8.75C16.9668 8.75 16.543 8.32617 16.543 7.73828C16.543 7.16406 16.9668 6.74023 17.5547 6.74023C18.1289 6.74023 18.5527 7.16406 18.5527 7.73828C18.5527 8.32617 18.1289 8.75 17.5547 8.75ZM20.1797 11.375C19.5918 11.375 19.168 10.9512 19.168 10.3633C19.168 9.78906 19.5918 9.36523 20.1797 9.36523C20.7539 9.36523 21.1777 9.78906 21.1777 10.3633C21.1777 10.9512 20.7539 11.375 20.1797 11.375ZM21.1367 14.9434C20.5488 14.9434 20.125 14.5195 20.125 13.9453C20.125 13.3711 20.5488 12.9473 21.1367 12.9473C21.7109 12.9473 22.1348 13.3711 22.1348 13.9453C22.1348 14.5195 21.7109 14.9434 21.1367 14.9434ZM20.1797 18.5254C19.5918 18.5254 19.168 18.1016 19.168 17.5273C19.168 16.9395 19.5918 16.5156 20.1797 16.5156C20.7539 16.5156 21.1777 16.9395 21.1777 17.5273C21.1777 18.1016 20.7539 18.5254 20.1797 18.5254ZM17.5547 21.1504C16.9668 21.1504 16.543 20.7266 16.543 20.1387C16.543 19.5508 16.9668 19.127 17.5547 19.127C18.1289 19.127 18.5527 19.5508 18.5527 20.1387C18.5527 20.7266 18.1289 21.1504 17.5547 21.1504ZM13.9727 22.0938C13.3984 22.0938 12.9746 21.6699 12.9746 21.0957C12.9746 20.5078 13.3984 20.084 13.9727 20.084C14.5469 20.084 14.9707 20.5078 14.9707 21.0957C14.9707 21.6699 14.5469 22.0938 13.9727 22.0938ZM10.3906 21.1504C9.81641 21.1504 9.39258 20.7266 9.39258 20.1387C9.39258 19.5508 9.81641 19.127 10.3906 19.127C10.9785 19.127 11.4023 19.5508 11.4023 20.1387C11.4023 20.7266 10.9785 21.1504 10.3906 21.1504ZM7.76562 18.5254C7.19141 18.5254 6.76758 18.1016 6.76758 17.5273C6.76758 16.9395 7.19141 16.5156 7.76562 16.5156C8.35352 16.5156 8.77734 16.9395 8.77734 17.5273C8.77734 18.1016 8.35352 18.5254 7.76562 18.5254ZM6.80859 14.9434C6.23438 14.9434 5.81055 14.5195 5.81055 13.9453C5.81055 13.3711 6.23438 12.9473 6.80859 12.9473C7.41016 12.9473 7.82031 13.3711 7.82031 13.9453C7.82031 14.5195 7.41016 14.9434 6.80859 14.9434ZM7.76562 11.375C7.19141 11.375 6.76758 10.9512 6.76758 10.3633C6.76758 9.78906 7.19141 9.36523 7.76562 9.36523C8.35352 9.36523 8.77734 9.78906 8.77734 10.3633C8.77734 10.9512 8.35352 11.375 7.76562 11.375ZM10.3906 8.75C9.81641 8.75 9.39258 8.32617 9.39258 7.73828C9.39258 7.16406 9.81641 6.74023 10.3906 6.74023C10.9785 6.74023 11.4023 7.16406 11.4023 7.73828C11.4023 8.32617 10.9785 8.75 10.3906 8.75Z" style="fill:var(--color-1,white)"></path>
 </g>
</svg>