<?xml version="1.0" encoding="UTF-8"?>
<!--Generator: Apple Native CoreSVG 326-->
<!DOCTYPE svg
PUBLIC "-//W3C//DTD SVG 1.1//EN"
       "http://www.w3.org/Graphics/SVG/1.1/DTD/svg11.dtd">
<svg version="1.1" xmlns="http://www.w3.org/2000/svg" xmlns:xlink="http://www.w3.org/1999/xlink" viewBox="0 0 29.2441 30.9395">
 <g>
  <rect height="30.9395" opacity="0" width="29.2441" x="0" y="0"/>
  <path d="M9.32422 14.3145C9.32422 19.6738 12.8516 23.4336 18.0742 23.8711L18.0742 27.0566L13.002 27.0566C12.4277 27.0566 11.9629 27.5215 11.9629 28.0957C11.9629 28.6699 12.4277 29.1211 13.002 29.1211L25.2109 29.1211C25.7852 29.1211 26.25 28.6699 26.25 28.0957C26.25 27.5215 25.7852 27.0566 25.2109 27.0566L20.1387 27.0566L20.1387 23.8711C25.3477 23.4336 28.8887 19.6738 28.8887 14.3145L28.8887 11.5391C28.8887 10.9648 28.4375 10.5137 27.8496 10.5137C27.2754 10.5137 26.8242 10.9648 26.8242 11.5391L26.8242 14.2324C26.8242 18.8945 23.7891 21.9844 19.0996 21.9844C14.4238 21.9844 11.3887 18.8945 11.3887 14.2324L11.3887 11.5391C11.3887 10.9648 10.9238 10.5137 10.3496 10.5137C9.77539 10.5137 9.32422 10.9648 9.32422 11.5391ZM19.0996 19.0449C21.834 19.0449 23.666 17.0078 23.666 14.0957L23.666 4.94922C23.666 2.02344 21.834 0 19.0996 0C16.3789 0 14.5469 2.02344 14.5469 4.94922L14.5469 14.0957C14.5469 17.0078 16.3789 19.0449 19.0996 19.0449Z" fill="#ff9f0a"/>
  <path d="M2.29688 7.06836C3.55469 7.06836 4.58008 6.04297 4.58008 4.78516C4.58008 3.51367 3.55469 2.48828 2.29688 2.48828C1.02539 2.48828 0 3.51367 0 4.78516C0 6.04297 1.02539 7.06836 2.29688 7.06836Z" fill="#ff9f0a"/>
  <path d="M2.29688 14.1777C3.55469 14.1777 4.58008 13.1523 4.58008 11.8945C4.58008 10.623 3.55469 9.59766 2.29688 9.59766C1.02539 9.59766 0 10.623 0 11.8945C0 13.1523 1.02539 14.1777 2.29688 14.1777Z" fill="#ff9f0a"/>
  <path d="M2.29688 21.3145C3.55469 21.3145 4.58008 20.2891 4.58008 19.0312C4.58008 17.7598 3.55469 16.7344 2.29688 16.7344C1.02539 16.7344 0 17.7598 0 19.0312C0 20.2891 1.02539 21.3145 2.29688 21.3145Z" fill="#ff9f0a"/>
  <path d="M2.29688 28.4238C3.55469 28.4238 4.58008 27.3984 4.58008 26.1406C4.58008 24.8691 3.55469 23.8438 2.29688 23.8438C1.02539 23.8438 0 24.8691 0 26.1406C0 27.3984 1.02539 28.4238 2.29688 28.4238Z" fill="#ff9f0a"/>
 </g>
</svg>
