<svg version="1.1" xmlns="http://www.w3.org/2000/svg" xmlns:xlink="http://www.w3.org/1999/xlink" viewBox="0 0 25.5254 25.1699">
 <g>
  
  <path d="M4.29297 25.1699L20.877 25.1699C23.748 25.1699 25.1699 23.7617 25.1699 20.9453L25.1699 4.23828C25.1699 1.42188 23.748 0 20.877 0L4.29297 0C1.43555 0 0 1.42188 0 4.23828L0 20.9453C0 23.7617 1.43555 25.1699 4.29297 25.1699ZM4.32031 22.9688C2.95312 22.9688 2.20117 22.2441 2.20117 20.8223L2.20117 4.36133C2.20117 2.93945 2.95312 2.20117 4.32031 2.20117L20.8496 2.20117C22.2031 2.20117 22.9688 2.93945 22.9688 4.36133L22.9688 20.8223C22.9688 22.2441 22.2031 22.9688 20.8496 22.9688Z" style="fill:var(--color-0,#ff9500)"></path>
  <path d="M9.11914 20.7949L16.0781 20.7949C16.4609 20.7949 16.8164 20.4395 16.8164 20.0566C16.8164 19.6602 16.4746 19.3184 16.0781 19.3184L13.3438 19.3184L13.3438 17.9375C16.0645 17.623 17.8828 15.5586 17.8828 12.7832L17.8828 11.0195C17.8828 10.6367 17.541 10.3086 17.1582 10.3086C16.7617 10.3086 16.4336 10.6367 16.4336 11.0195L16.4336 12.7832C16.4336 15.0254 14.8613 16.5977 12.5918 16.5977C10.3359 16.5977 8.76367 15.0254 8.76367 12.7832L8.76367 11.0195C8.76367 10.6367 8.43555 10.3086 8.03906 10.3086C7.64258 10.3086 7.31445 10.6367 7.31445 11.0195L7.31445 12.7832C7.31445 15.5586 9.14648 17.6367 11.8672 17.9375L11.8672 19.3184L9.11914 19.3184C8.72266 19.3184 8.38086 19.6602 8.38086 20.0566C8.38086 20.4531 8.72266 20.7949 9.11914 20.7949ZM12.5918 15.2168C13.9316 15.2168 14.8613 14.1777 14.8613 12.7832L14.8613 6.91797C14.8613 5.53711 13.9316 4.51172 12.5918 4.51172C11.252 4.51172 10.3223 5.53711 10.3223 6.91797L10.3223 12.7832C10.3223 14.1777 11.252 15.2168 12.5918 15.2168Z" style="fill:var(--color-1,#ff9500)"></path>
 </g>
</svg>