<svg version="1.1" xmlns="http://www.w3.org/2000/svg" xmlns:xlink="http://www.w3.org/1999/xlink" viewBox="0 0 26.5064 31.2129">
 <g>
  
  <path d="M5.36451 11.6758L5.36451 14.3691C5.36451 19.0312 8.39967 22.1211 13.0754 22.1211C14.4834 22.1211 15.7439 21.8409 16.8144 21.3174L18.2717 22.7718C17.0701 23.4523 15.6663 23.8775 14.1145 24.0078L14.1145 27.1934L19.1868 27.1934C19.761 27.1934 20.2122 27.6582 20.2122 28.2324C20.2122 28.8066 19.761 29.2578 19.1868 29.2578L6.96412 29.2578C6.3899 29.2578 5.93873 28.8066 5.93873 28.2324C5.93873 27.6582 6.3899 27.1934 6.96412 27.1934L12.0501 27.1934L12.0501 24.0078C6.8274 23.5703 3.30006 19.8105 3.30006 14.4512L3.30006 11.6758C3.30006 11.1016 3.75123 10.6504 4.32545 10.6504C4.89967 10.6504 5.36451 11.1016 5.36451 11.6758ZM10.2288 14.7445C10.4726 16.1999 11.4138 17.1384 12.7554 17.2662L14.5951 19.1023C14.1247 19.2443 13.6156 19.3184 13.0754 19.3184C10.136 19.3184 8.09889 17.1035 8.09889 13.959L8.09889 12.6187ZM22.8645 11.6758L22.8645 14.4512C22.8645 16.1073 22.5264 17.6107 21.9035 18.9092L20.3214 17.3291C20.6369 16.4423 20.8001 15.4478 20.8001 14.3691L20.8001 11.6758C20.8001 11.1016 21.2512 10.6504 21.8254 10.6504C22.3997 10.6504 22.8645 11.1016 22.8645 11.6758ZM18.052 5.35938L18.052 13.959C18.052 14.3136 18.0263 14.6564 17.9728 14.9836L15.9876 13.0009L15.9876 5.35938C15.9876 3.33594 14.8254 2.03711 13.0754 2.03711C11.3254 2.03711 10.1633 3.33594 10.1633 5.35938L10.1633 7.18419L8.10814 5.13165C8.19929 2.09458 10.208 0 13.0754 0C16.0286 0 18.052 2.20117 18.052 5.35938Z" style="fill:var(--color-0,#ff9500)"></path>
  <path d="M23.1243 25.3613C23.5344 25.7715 24.2044 25.7715 24.6145 25.3613C25.011 24.9375 25.0247 24.2812 24.6145 23.8711L3.46412 2.73438C3.05396 2.33789 2.37037 2.32422 1.96021 2.73438C1.56373 3.14453 1.56373 3.82812 1.96021 4.22461Z" style="fill:var(--color-1,#ff9500)"></path>
 </g>
</svg>