<svg version="1.1" xmlns="http://www.w3.org/2000/svg" xmlns:xlink="http://www.w3.org/1999/xlink" viewBox="0 0 28.2461 27.9043">
 <g>
  
  <path d="M13.9453 27.8906C21.6426 27.8906 27.8906 21.6426 27.8906 13.9453C27.8906 6.24805 21.6426 0 13.9453 0C6.24805 0 0 6.24805 0 13.9453C0 21.6426 6.24805 27.8906 13.9453 27.8906ZM13.9453 25.5664C7.51953 25.5664 2.32422 20.3711 2.32422 13.9453C2.32422 7.51953 7.51953 2.32422 13.9453 2.32422C20.3711 2.32422 25.5664 7.51953 25.5664 13.9453C25.5664 20.3711 20.3711 25.5664 13.9453 25.5664Z" style="fill:var(--color-0,hsl(0 0 0/0.85))"></path>
  <path d="M9.625 18.4023C10.1035 18.4023 10.3496 18.0742 10.3496 17.6641L10.3496 12.7012C10.3496 11.6621 10.8281 10.6504 11.8945 10.6504C12.8652 10.6504 13.2617 11.3887 13.2617 12.3184L13.2617 17.6641C13.2617 18.0879 13.5488 18.4023 13.9453 18.4023C14.3828 18.4023 14.6699 18.0879 14.6699 17.6641L14.6699 12.6055C14.6699 11.6074 15.1621 10.6504 16.2012 10.6504C17.2129 10.6504 17.582 11.4297 17.582 12.4414L17.582 17.6641C17.582 18.0879 17.8691 18.4023 18.293 18.4023C18.7305 18.4023 19.0176 18.0879 19.0176 17.6641L19.0176 12.0859C19.0176 10.582 18.2793 9.35156 16.625 9.35156C15.4766 9.35156 14.6152 10.0352 14.3965 11.0332L14.3418 11.0332C14.1094 9.95312 13.4121 9.35156 12.3047 9.35156C11.2383 9.35156 10.5684 10.0215 10.3359 10.9922L10.2812 10.9922L10.2812 10.0898C10.2812 9.65234 10.0215 9.36523 9.59766 9.36523C9.17383 9.36523 8.91406 9.65234 8.91406 10.0898L8.91406 17.6641C8.91406 18.0742 9.16016 18.4023 9.625 18.4023ZM10.0215 21.8477C10.2539 21.8477 10.3633 21.7383 10.4727 21.4922L16.9258 6.72656C16.9668 6.64453 16.9805 6.54883 16.9805 6.4668C16.9805 6.20703 16.8027 6.04297 16.543 6.04297C16.3105 6.04297 16.1875 6.19336 16.0918 6.39844L9.63867 21.1641C9.59766 21.2598 9.58398 21.3418 9.58398 21.4375C9.58398 21.6836 9.76172 21.8477 10.0215 21.8477Z" style="fill:var(--color-1,hsl(0 0 0/0.85))"></path>
 </g>
</svg>