<svg version="1.1" xmlns="http://www.w3.org/2000/svg" xmlns:xlink="http://www.w3.org/1999/xlink" viewBox="0 0 33.291 27.3099">
 <g>
  
  <path d="M32.9355 16.3962C32.9355 7.78289 26.3184 0.714533 17.8965 0.00359537C17.459-0.0374203 17.1309 0.277033 17.1309 0.714533L17.1309 5.18524C17.1309 5.55438 17.3906 5.84149 17.7598 5.86883C22.9961 6.51141 27.0703 10.9821 27.0703 16.3962C27.0703 18.8571 26.2227 21.1266 24.7324 23.027C24.541 23.2595 24.5547 23.5602 24.7598 23.779L28.0273 27.0329C28.3281 27.3337 28.793 27.3337 29.0664 27.0055C31.4863 24.1345 32.9355 20.4294 32.9355 16.3962Z" style="fill:var(--color-0,hsl(0 0 0/0.85))"></path>
  <path d="M0 16.3962C0 20.443 1.44922 24.1481 3.86914 27.0192C4.14258 27.3473 4.59375 27.3337 4.9082 27.0329L8.17578 23.779C8.38086 23.5602 8.39453 23.2595 8.20312 23.027C6.69922 21.1266 5.86523 18.8571 5.86523 16.3962C5.86523 10.9821 9.93945 6.51141 15.1758 5.86883C15.5449 5.84149 15.8047 5.55438 15.8047 5.18524L15.8047 0.714533C15.8047 0.277033 15.4766-0.0374203 15.0391 0.00359537C6.61719 0.714533 0 7.78289 0 16.3962Z" style="fill:var(--color-1,hsl(0 0 0/0.85))"></path>
  <path d="M12.1543 21.0309C12.6191 21.0309 12.8652 20.7165 12.8652 20.3063L12.8652 15.3434C12.8652 14.3044 13.3574 13.2927 14.4238 13.2927C15.3809 13.2927 15.7773 14.0173 15.7773 14.9606L15.7773 20.3063C15.7773 20.7302 16.0645 21.0309 16.4746 21.0309C16.8984 21.0309 17.1855 20.7302 17.1855 20.3063L17.1855 15.2341C17.1855 14.2497 17.6777 13.2927 18.7168 13.2927C19.7422 13.2927 20.0977 14.0583 20.0977 15.0837L20.0977 20.3063C20.0977 20.7302 20.3848 21.0309 20.8223 21.0309C21.2461 21.0309 21.5332 20.7302 21.5332 20.3063L21.5332 14.7282C21.5332 13.2106 20.7949 11.9802 19.1406 11.9802C17.9922 11.9802 17.1445 12.6774 16.9121 13.6618L16.8711 13.6618C16.625 12.5817 15.9414 11.9802 14.8203 11.9802C13.7676 11.9802 13.084 12.6638 12.8516 13.6208L12.7969 13.6208L12.7969 12.7184C12.7969 12.2809 12.5371 12.0075 12.1133 12.0075C11.6895 12.0075 11.4297 12.2809 11.4297 12.7184L11.4297 20.3063C11.4297 20.7165 11.6758 21.0309 12.1543 21.0309ZM12.5371 24.4763C12.7832 24.4763 12.8789 24.3669 12.9883 24.1208L19.4414 9.36883C19.4824 9.27313 19.5098 9.17742 19.5098 9.09539C19.5098 8.8493 19.3184 8.67156 19.0723 8.67156C18.8398 8.67156 18.7031 8.83563 18.6074 9.0407L12.168 23.7927C12.1133 23.8884 12.0996 23.9704 12.0996 24.0661C12.0996 24.3122 12.291 24.4763 12.5371 24.4763Z" style="fill:var(--color-2,hsl(0 0 0/0.85))"></path>
 </g>
</svg>