<svg version="1.1" xmlns="http://www.w3.org/2000/svg" xmlns:xlink="http://www.w3.org/1999/xlink" viewBox="0 0 25.5254 25.1699">
 <g>
  
  <path d="M4.29297 25.1699L20.877 25.1699C23.748 25.1699 25.1699 23.7617 25.1699 20.9453L25.1699 4.23828C25.1699 1.42188 23.748 0 20.877 0L4.29297 0C1.43555 0 0 1.42188 0 4.23828L0 20.9453C0 23.7617 1.43555 25.1699 4.29297 25.1699ZM4.32031 22.9688C2.95312 22.9688 2.20117 22.2441 2.20117 20.8223L2.20117 4.36133C2.20117 2.93945 2.95312 2.20117 4.32031 2.20117L20.8496 2.20117C22.2031 2.20117 22.9688 2.93945 22.9688 4.36133L22.9688 20.8223C22.9688 22.2441 22.2031 22.9688 20.8496 22.9688Z" style="fill:var(--color-0,hsl(0 0 0/0.85))"></path>
  <path d="M8.28516 17.0352C8.76367 17.0352 9.00977 16.707 9.00977 16.2969L9.00977 11.334C9.00977 10.2949 9.50195 9.2832 10.5547 9.2832C11.5254 9.2832 11.9219 10.0215 11.9219 10.9512L11.9219 16.2969C11.9219 16.7207 12.209 17.0352 12.6191 17.0352C13.043 17.0352 13.3301 16.7207 13.3301 16.2969L13.3301 11.2383C13.3301 10.2402 13.8223 9.2832 14.8613 9.2832C15.8867 9.2832 16.2422 10.0625 16.2422 11.0742L16.2422 16.2969C16.2422 16.7207 16.5293 17.0352 16.9531 17.0352C17.3906 17.0352 17.6777 16.7207 17.6777 16.2969L17.6777 10.7188C17.6777 9.21484 16.9395 7.98438 15.2852 7.98438C14.1367 7.98438 13.2891 8.66797 13.0566 9.66602L13.002 9.66602C12.7695 8.58594 12.0859 7.98438 10.9648 7.98438C9.91211 7.98438 9.22852 8.6543 8.99609 9.625L8.94141 9.625L8.94141 8.72266C8.94141 8.28516 8.68164 7.99805 8.25781 7.99805C7.83398 7.99805 7.57422 8.28516 7.57422 8.72266L7.57422 16.2969C7.57422 16.707 7.82031 17.0352 8.28516 17.0352ZM8.68164 20.4805C8.91406 20.4805 9.02344 20.3711 9.13281 20.125L15.5859 5.35938C15.627 5.27734 15.6543 5.18164 15.6543 5.09961C15.6543 4.83984 15.4629 4.67578 15.2031 4.67578C14.9707 4.67578 14.8477 4.82617 14.752 5.03125L8.29883 19.7969C8.25781 19.8926 8.24414 19.9746 8.24414 20.0703C8.24414 20.3164 8.43555 20.4805 8.68164 20.4805Z" style="fill:var(--color-1,hsl(0 0 0/0.85))"></path>
 </g>
</svg>