<svg version="1.1" xmlns="http://www.w3.org/2000/svg" xmlns:xlink="http://www.w3.org/1999/xlink" viewBox="0 0 30.8848 29.1895">
 <g>
  
  <path d="M1.81836 27.5898L28.7109 27.5898L28.7109 25.9766C28.7109 25.4297 28.3965 25.1016 27.8359 25.1016L26.9609 25.1016L26.9609 9.37891L28.1641 9.37891C28.916 9.37891 29.3535 8.83203 29.3535 8.27148C29.3535 7.86133 29.1211 7.50586 28.6152 7.21875L16.9395 0.478516C16.3926 0.164062 15.8184 0 15.2578 0C14.6973 0 14.1094 0.164062 13.5898 0.478516L1.91406 7.21875C1.39453 7.50586 1.17578 7.86133 1.17578 8.27148C1.17578 8.83203 1.61328 9.37891 2.36523 9.37891L3.56836 9.37891L3.56836 25.1016L2.70703 25.1016C2.14648 25.1016 1.81836 25.4297 1.81836 25.9766ZM1.09375 29.1758L29.4219 29.1758C30.0234 29.1758 30.5293 28.6699 30.5293 28.0684C30.5293 27.4668 30.0234 26.9746 29.4219 26.9746L1.09375 26.9746C0.492188 26.9746 0 27.4668 0 28.0684C0 28.6699 0.492188 29.1758 1.09375 29.1758Z" style="fill:var(--color-0,hsl(0 0 0/0.85))"></path>
  <path d="M10.8281 20.207C10.3496 20.207 10.0898 19.8789 10.0898 19.4551L10.0898 11.6348C10.0898 11.1699 10.3633 10.8828 10.8008 10.8828C11.2383 10.8828 11.5117 11.1699 11.5117 11.6348L11.5117 12.5645L11.5664 12.5645C11.7988 11.5664 12.4961 10.8555 13.5898 10.8555C14.6016 10.8555 15.2852 11.3477 15.5859 12.2227L17.5 7.82031C17.5957 7.61523 17.7324 7.46484 17.9648 7.46484C18.2383 7.46484 18.416 7.62891 18.416 7.88867C18.416 7.98438 18.4023 8.06641 18.3613 8.16211L17.1172 11.0332C17.3906 10.9375 17.7051 10.8555 18.0469 10.8555C19.7559 10.8555 20.5215 12.1406 20.5215 13.6992L20.5215 19.4551C20.5215 19.8926 20.2207 20.207 19.7695 20.207C19.332 20.207 19.0312 19.8926 19.0312 19.4551L19.0312 14.0547C19.0312 13.0156 18.6484 12.2227 17.6094 12.2227C16.543 12.2227 16.0371 13.207 16.0371 14.2324L16.0371 19.4551C16.0371 19.8926 15.7363 20.207 15.2852 20.207C14.875 20.207 14.5742 19.8926 14.5742 19.4551L14.5742 16.8027L11.7031 23.4062C11.5801 23.6387 11.4707 23.748 11.2383 23.748C10.9648 23.748 10.7734 23.5977 10.7734 23.3379C10.7734 23.2285 10.7871 23.1465 10.8418 23.0645L14.5742 14.5059L14.5742 13.9316C14.5742 12.9609 14.1641 12.2227 13.166 12.2227C12.0723 12.2227 11.5801 13.2617 11.5801 14.3281L11.5801 19.4551C11.5801 19.8789 11.3066 20.207 10.8281 20.207Z" style="fill:var(--color-1,white)"></path>
 </g>
</svg>