<?xml version="1.0" encoding="UTF-8"?>
<!--Generator: Apple Native CoreSVG 326-->
<!DOCTYPE svg
PUBLIC "-//W3C//DTD SVG 1.1//EN"
       "http://www.w3.org/Graphics/SVG/1.1/DTD/svg11.dtd">
<svg version="1.1" xmlns="http://www.w3.org/2000/svg" xmlns:xlink="http://www.w3.org/1999/xlink" viewBox="0 0 25.5254 25.1699">
 <g>
  <rect height="25.1699" opacity="0" width="25.5254" x="0" y="0"/>
  <path d="M4.29297 25.1699L20.877 25.1699C23.748 25.1699 25.1699 23.7617 25.1699 20.9453L25.1699 4.23828C25.1699 1.42188 23.748 0 20.877 0L4.29297 0C1.43555 0 0 1.42188 0 4.23828L0 20.9453C0 23.7617 1.43555 25.1699 4.29297 25.1699Z" fill="white" fill-opacity="0.85"/>
  <path d="M8.14844 17.1719C7.66992 17.1719 7.41016 16.8438 7.41016 16.4199L7.41016 8.59961C7.41016 8.14844 7.68359 7.84766 8.12109 7.84766C8.55859 7.84766 8.83203 8.14844 8.83203 8.59961L8.83203 9.5293L8.88672 9.5293C9.11914 8.53125 9.83008 7.83398 10.9102 7.83398C11.9355 7.83398 12.6055 8.32617 12.9199 9.1875L14.8203 4.78516C14.916 4.58008 15.0527 4.42969 15.2852 4.42969C15.5586 4.42969 15.75 4.59375 15.75 4.86719C15.75 4.94922 15.7227 5.04492 15.6816 5.12695L14.4375 8.01172C14.7109 7.90234 15.0254 7.83398 15.3672 7.83398C17.0762 7.83398 17.8418 9.10547 17.8418 10.6641L17.8418 16.4199C17.8418 16.8574 17.541 17.1719 17.0898 17.1719C16.6523 17.1719 16.3516 16.8574 16.3516 16.4199L16.3516 11.0195C16.3516 9.98047 15.9824 9.1875 14.9297 9.1875C13.8633 9.1875 13.3574 10.1719 13.3574 11.1973L13.3574 16.4199C13.3574 16.8574 13.0566 17.1719 12.6191 17.1719C12.1953 17.1719 11.8945 16.8574 11.8945 16.4199L11.8945 13.7676L9.02344 20.3711C8.90039 20.6172 8.80469 20.7266 8.55859 20.7266C8.29883 20.7266 8.09375 20.5625 8.09375 20.3027C8.09375 20.207 8.10742 20.125 8.16211 20.0293L11.8945 11.4707L11.8945 10.8965C11.8945 9.92578 11.4844 9.1875 10.4863 9.1875C9.40625 9.1875 8.90039 10.2266 8.90039 11.293L8.90039 16.4199C8.90039 16.8438 8.64062 17.1719 8.14844 17.1719Z" fill="white"/>
 </g>
</svg>
