<svg version="1.1" xmlns="http://www.w3.org/2000/svg" xmlns:xlink="http://www.w3.org/1999/xlink" viewBox="0 0 25.5254 25.1699">
 <g>
  
  <path d="M4.29297 25.1699L20.877 25.1699C23.748 25.1699 25.1699 23.7617 25.1699 20.9453L25.1699 4.23828C25.1699 1.42188 23.748 0 20.877 0L4.29297 0C1.43555 0 0 1.42188 0 4.23828L0 20.9453C0 23.7617 1.43555 25.1699 4.29297 25.1699Z" style="fill:var(--color-0,#ff3b30)"></path>
  <path d="M7.08203 13.7812C6.28906 13.7812 5.72852 13.3574 5.72852 12.6055C5.72852 11.8398 6.24805 11.4023 7.08203 11.4023L18.1289 11.4023C18.9492 11.4023 19.4688 11.8398 19.4688 12.6055C19.4688 13.3574 18.9219 13.7812 18.1289 13.7812Z" style="fill:var(--color-1,white)"></path>
 </g>
</svg>