<svg version="1.1" xmlns="http://www.w3.org/2000/svg" xmlns:xlink="http://www.w3.org/1999/xlink" viewBox="0 0 31.3669 31.0251">
 <g>
  
  <path d="M1.53307 18.5272L12.4842 29.4784C14.5077 31.5018 16.5038 31.5155 18.5135 29.5194L29.5194 18.4999C31.5155 16.5038 31.5018 14.494 29.4784 12.4706L18.5409 1.53307C16.5174-0.49037 14.5213-0.517714 12.5116 1.49205L1.49205 12.4979C-0.517714 14.5077-0.49037 16.5038 1.53307 18.5272Z" style="fill:var(--color-0,#ff3b30)"></path>
  <path d="M9.99596 16.7088C9.20299 16.7088 8.64244 16.285 8.64244 15.5331C8.64244 14.7674 9.17565 14.3299 9.99596 14.3299L21.0428 14.3299C21.8768 14.3299 22.3827 14.7674 22.3827 15.5331C22.3827 16.285 21.8358 16.7088 21.0428 16.7088Z" style="fill:var(--color-1,white)"></path>
 </g>
</svg>