<svg version="1.1" xmlns="http://www.w3.org/2000/svg" xmlns:xlink="http://www.w3.org/1999/xlink" viewBox="0 0 32.5938 23.4473">
 <g>
  
  <path d="M3.52734 22.5586L28.752 22.5586C30.3926 22.5586 31.4727 21.4375 31.4727 19.7422L31.4727 19.209C30.0781 19.1816 28.916 18.6348 28.1641 17.7734C27.8633 17.4316 27.5215 17.4453 27.2207 17.7734C26.4004 18.7031 25.1699 19.209 23.8438 19.209C22.5176 19.209 21.2871 18.7031 20.4668 17.7734C20.166 17.4453 19.8242 17.4316 19.5234 17.7734C18.7441 18.6621 17.5 19.209 16.1191 19.209C14.7383 19.209 13.4941 18.6621 12.7148 17.7734C12.4141 17.4316 12.0859 17.4453 11.7715 17.7734C10.9512 18.7031 9.7207 19.209 8.39453 19.209C7.06836 19.209 5.85156 18.7031 5.01758 17.7734C4.7168 17.4453 4.375 17.4316 4.07422 17.7734C3.32227 18.6348 2.17383 19.1816 0.765625 19.209L0.765625 19.7422C0.765625 21.4375 1.8457 22.5586 3.52734 22.5586ZM4.29297 23.4473L27.9453 23.4473C30.8164 23.4473 32.2383 22.0254 32.2383 19.209L32.2383 7.73828C32.2383 4.93555 30.8164 3.51367 27.9453 3.51367L26.4277 3.51367L26.4277 1.68164C26.4277 0.642578 25.8262 0.0136719 24.7734 0.0136719L22.0391 0.0136719C21 0.0136719 20.3984 0.642578 20.3984 1.68164L20.3984 3.51367L11.8535 3.51367L11.8535 1.68164C11.8535 0.642578 11.252 0.0136719 10.1992 0.0136719L7.46484 0.0136719C6.41211 0.0136719 5.81055 0.642578 5.81055 1.68164L5.81055 3.51367L4.29297 3.51367C1.43555 3.51367 0 4.92188 0 7.73828L0 19.209C0 22.0391 1.43555 23.4473 4.29297 23.4473ZM2.20117 19.0996L2.20117 7.86133C2.20117 6.43945 2.95312 5.71484 4.32031 5.71484L27.918 5.71484C29.2715 5.71484 30.0371 6.43945 30.0371 7.86133L30.0371 19.0996C30.0371 20.5078 29.2715 21.2461 27.918 21.2461L4.32031 21.2461C2.95312 21.2461 2.20117 20.5078 2.20117 19.0996Z" style="fill:var(--color-0,#ff3b30)"></path>
  <path d="M6.98633 13.7539L12.6875 13.7539C13.248 13.7539 13.6855 13.3027 13.6855 12.7422C13.6855 12.1816 13.248 11.7441 12.6875 11.7441L6.98633 11.7441C6.42578 11.7441 5.97461 12.1816 5.97461 12.7422C5.97461 13.3027 6.42578 13.7539 6.98633 13.7539ZM22.3809 16.8711C22.9414 16.8711 23.3789 16.4336 23.3789 15.873L23.3789 13.7539L25.498 13.7539C26.0586 13.7539 26.5098 13.3027 26.5098 12.7422C26.5098 12.1816 26.0586 11.7441 25.498 11.7441L23.3789 11.7441L23.3789 9.625C23.3789 9.06445 22.9414 8.61328 22.3809 8.61328C21.8203 8.61328 21.3691 9.06445 21.3691 9.625L21.3691 11.7441L19.25 11.7441C18.6895 11.7441 18.252 12.1816 18.252 12.7422C18.252 13.3027 18.6895 13.7539 19.25 13.7539L21.3691 13.7539L21.3691 15.873C21.3691 16.4336 21.8203 16.8711 22.3809 16.8711Z" style="fill:var(--color-1,#ff3b30)"></path>
 </g>
</svg>