<?xml version="1.0" encoding="UTF-8"?>
<!--Generator: Apple Native CoreSVG 326-->
<!DOCTYPE svg
PUBLIC "-//W3C//DTD SVG 1.1//EN"
       "http://www.w3.org/Graphics/SVG/1.1/DTD/svg11.dtd">
<svg version="1.1" xmlns="http://www.w3.org/2000/svg" xmlns:xlink="http://www.w3.org/1999/xlink" viewBox="0 0 31.3669 31.0251">
 <g>
  <rect height="31.0251" opacity="0" width="31.3669" x="0" y="0"/>
  <path d="M1.53307 18.5272L12.4842 29.4784C14.5077 31.5018 16.5038 31.5155 18.5135 29.5194L29.5194 18.4999C31.5155 16.5038 31.5018 14.494 29.4784 12.4706L18.5409 1.53307C16.5174-0.49037 14.5213-0.517714 12.5116 1.49205L1.49205 12.4979C-0.517714 14.5077-0.49037 16.5038 1.53307 18.5272ZM3.11901 17.0096C2.13463 16.0253 2.12096 14.9999 3.13268 13.9881L13.9881 3.13268C14.9999 2.12096 16.0253 2.13463 17.0096 3.11901L27.8924 14.0018C28.8631 14.9725 28.8905 16.0116 27.8788 17.0233L17.0233 27.8788C16.0116 28.8905 14.9725 28.8631 14.0018 27.9061Z" fill="#ff453a"/>
  <path d="M10.16 16.6678L20.8788 16.6678C21.6444 16.6678 22.1776 16.2577 22.1776 15.5331C22.1776 14.7948 21.6854 14.371 20.8788 14.371L10.16 14.371C9.36705 14.371 8.84752 14.7948 8.84752 15.5331C8.84752 16.2577 9.3944 16.6678 10.16 16.6678Z" fill="#ff453a"/>
 </g>
</svg>
