<svg version="1.1" xmlns="http://www.w3.org/2000/svg" xmlns:xlink="http://www.w3.org/1999/xlink" viewBox="0 0 32.5938 23.4473">
 <g>
  
  <path d="M11.8535 1.68164L11.8535 3.51367L20.3984 3.51367L20.3984 1.68164C20.3984 0.642578 21 0.0136719 22.0391 0.0136719L24.7734 0.0136719C25.8262 0.0136719 26.4277 0.642578 26.4277 1.68164L26.4277 3.51367L27.9453 3.51367C30.8164 3.51367 32.2383 4.93555 32.2383 7.73828L32.2383 19.209C32.2383 22.0254 30.8164 23.4473 27.9453 23.4473L4.29297 23.4473C1.43555 23.4473 0 22.0391 0 19.209L0 7.73828C0 4.92188 1.43555 3.51367 4.29297 3.51367L5.81055 3.51367L5.81055 1.68164C5.81055 0.642578 6.41211 0.0136719 7.46484 0.0136719L10.1992 0.0136719C11.252 0.0136719 11.8535 0.642578 11.8535 1.68164ZM21.5195 10.2402L21.5195 12.4141L19.3457 12.4141C18.7578 12.4141 18.3066 12.8652 18.3066 13.4668C18.3066 14.0547 18.7578 14.5059 19.3457 14.5059L21.5195 14.5059L21.5195 16.6797C21.5195 17.2676 21.998 17.7188 22.5723 17.7188C23.1602 17.7188 23.6113 17.2676 23.6113 16.6797L23.6113 14.5059L25.7852 14.5059C26.373 14.5059 26.8379 14.0547 26.8379 13.4668C26.8379 12.8652 26.373 12.4141 25.7852 12.4141L23.6113 12.4141L23.6113 10.2402C23.6113 9.65234 23.1602 9.1875 22.5723 9.1875C21.998 9.1875 21.5195 9.65234 21.5195 10.2402ZM6.69922 12.4141C6.11133 12.4141 5.64648 12.8652 5.64648 13.4668C5.64648 14.0547 6.11133 14.5059 6.69922 14.5059L12.5645 14.5059C13.1523 14.5059 13.6035 14.0547 13.6035 13.4668C13.6035 12.8652 13.1523 12.4141 12.5645 12.4141Z" style="fill:var(--color-0,#ff3b30)"></path>
 </g>
</svg>