<svg version="1.1" xmlns="http://www.w3.org/2000/svg" xmlns:xlink="http://www.w3.org/1999/xlink" viewBox="0 0 32.5938 31.0797">
 <g>
  
  <path d="M12.7267 16.2434C12.6743 16.2343 12.62 16.2303 12.5645 16.2303L6.69922 16.2303C6.11133 16.2303 5.64648 16.6815 5.64648 17.283C5.64648 17.8709 6.11133 18.3221 6.69922 18.3221L12.5645 18.3221C13.1523 18.3221 13.6035 17.8709 13.6035 17.283C13.6035 17.2217 13.5988 17.1618 13.5886 17.1044L23.7585 27.2635L4.29297 27.2635C1.43555 27.2635 0 25.8553 0 23.0252L0 11.5545C0 8.8989 1.27632 7.49528 3.81882 7.34498ZM11.8535 5.49788L11.8535 7.32991L20.3984 7.32991L20.3984 5.49788C20.3984 4.45881 21 3.82991 22.0391 3.82991L24.7734 3.82991C25.8262 3.82991 26.4277 4.45881 26.4277 5.49788L26.4277 7.32991L27.9453 7.32991C30.8164 7.32991 32.2383 8.75178 32.2383 11.5545L32.2383 23.0252C32.2383 24.7582 31.6999 25.9632 30.6147 26.6317C30.5933 26.6039 30.5685 26.5781 30.543 26.5526L23.6113 19.6246L23.6113 18.3221L25.7852 18.3221C26.373 18.3221 26.8379 17.8709 26.8379 17.283C26.8379 16.6815 26.373 16.2303 25.7852 16.2303L23.6113 16.2303L23.6113 14.0565C23.6113 13.4686 23.1602 13.0037 22.5723 13.0037C21.998 13.0037 21.5195 13.4686 21.5195 14.0565L21.5195 16.2303L20.2152 16.2303L7.80825 3.82991L10.1992 3.82991C11.252 3.82991 11.8535 4.45881 11.8535 5.49788Z" style="fill:var(--color-0,#ff3b30)"></path>
  <path d="M27.9316 29.1776C28.3418 29.5877 29.0117 29.5877 29.4219 29.1776C29.8184 28.7537 29.832 28.0975 29.4219 27.6873L3.66406 1.94319C3.25391 1.53303 2.58398 1.51936 2.16016 1.94319C1.76367 2.33967 1.76367 3.02327 2.16016 3.43342Z" style="fill:var(--color-1,#ff3b30)"></path>
 </g>
</svg>