<svg version="1.1" xmlns="http://www.w3.org/2000/svg" xmlns:xlink="http://www.w3.org/1999/xlink" viewBox="0 0 23.3516 29.3262">
 <g>
  
  <path d="M0 25.0332C0 27.8906 1.4082 29.3125 4.23828 29.3125L18.7578 29.3125C21.5879 29.3125 22.9961 27.8906 22.9961 25.0332L22.9961 4.29297C22.9961 1.44922 21.5879 0 18.7578 0L4.23828 0C1.4082 0 0 1.44922 0 4.29297Z" style="fill:var(--color-0,#ff3b30)"></path>
  <path d="M5.98828 15.8594C5.19531 15.8594 4.63477 15.4492 4.63477 14.6973C4.63477 13.9316 5.16797 13.4941 5.98828 13.4941L17.0352 13.4941C17.8691 13.4941 18.375 13.9316 18.375 14.6973C18.375 15.4492 17.8281 15.8594 17.0352 15.8594Z" style="fill:var(--color-1,white)"></path>
 </g>
</svg>