<svg version="1.1" xmlns="http://www.w3.org/2000/svg" xmlns:xlink="http://www.w3.org/1999/xlink" viewBox="0 0 32.5938 34.248">
 <g>
  
  <path d="M10.3086 7.4375L10.3086 8.95508L12.895 8.95508L12.9507 11.1563L4.32031 11.1562C2.98047 11.1562 2.20117 11.8945 2.20117 13.3164L2.20117 24.5C2.20117 25.9219 2.95312 26.6465 4.32031 26.6465L27.9043 26.6465C29.2578 26.6465 30.0234 25.9219 30.0234 24.5L30.0234 13.3164C30.0234 11.8945 29.2578 11.1562 27.9043 11.1562L19.3696 11.1563L19.4253 8.95508L21.9023 8.95508L21.9023 7.4375C21.9023 6.49414 22.4355 5.96094 23.3652 5.96094L26.0723 5.96094C27.002 5.96094 27.5352 6.49414 27.5352 7.4375L27.5352 8.95508L27.9316 8.95508C30.7891 8.95508 32.2383 10.377 32.2383 13.1934L32.2383 24.6094C32.2383 27.4258 30.8027 28.8477 27.9453 28.8477L4.29297 28.8477C1.43555 28.8477 0 27.4395 0 24.6094L0 13.1934C0 10.377 1.43555 8.95508 4.29297 8.95508L4.66211 8.95508L4.66211 7.4375C4.66211 6.49414 5.19531 5.96094 6.125 5.96094L8.83203 5.96094C9.77539 5.96094 10.3086 6.49414 10.3086 7.4375ZM24.8281 16.666L24.8281 18.2246L26.3867 18.2246C26.8516 18.2246 27.2344 18.6074 27.2344 19.0586C27.2344 19.5234 26.8516 19.8926 26.3867 19.8926L24.8281 19.8926L24.8281 21.4512C24.8281 21.9297 24.459 22.2852 23.9941 22.2852C23.5293 22.2852 23.1738 21.9297 23.1738 21.4512L23.1738 19.8926L21.6016 19.8926C21.1367 19.8926 20.7539 19.5234 20.7539 19.0586C20.7539 18.6074 21.123 18.2246 21.6016 18.2246L23.1738 18.2246L23.1738 16.666C23.1738 16.1875 23.5293 15.832 23.9941 15.832C24.459 15.832 24.8281 16.1875 24.8281 16.666ZM10.623 19.0449C10.623 19.5098 10.2402 19.8926 9.78906 19.8926L5.46875 19.8926C5.00391 19.8926 4.64844 19.5098 4.64844 19.0449C4.64844 18.5938 5.00391 18.2246 5.46875 18.2246L9.78906 18.2246C10.2402 18.2246 10.623 18.5938 10.623 19.0449Z" style="fill:var(--color-0,#ff3b30)"></path>
  <path d="M16.1465 22.791C17.1855 22.791 18.0469 21.9434 18.0469 20.9727C18.0469 19.9609 17.1992 19.168 16.1465 19.168C15.1074 19.168 14.2598 19.9609 14.2598 20.9727C14.2598 21.9434 15.1211 22.791 16.1465 22.791ZM16.1465 16.8438C16.8574 16.8438 17.3633 16.3242 17.3906 15.5996L17.6914 3.44531C17.7188 2.5293 17.1035 1.91406 16.1465 1.91406C15.2031 1.91406 14.5879 2.5293 14.6152 3.44531L14.916 15.5996C14.9434 16.3242 15.4492 16.8438 16.1465 16.8438Z" style="fill:var(--color-1,#ff3b30)"></path>
 </g>
</svg>