<?xml version="1.0" encoding="UTF-8"?>
<!--Generator: Apple Native CoreSVG 326-->
<!DOCTYPE svg
PUBLIC "-//W3C//DTD SVG 1.1//EN"
       "http://www.w3.org/Graphics/SVG/1.1/DTD/svg11.dtd">
<svg version="1.1" xmlns="http://www.w3.org/2000/svg" xmlns:xlink="http://www.w3.org/1999/xlink" viewBox="0 0 39.7031 30.3105">
 <g>
  <rect height="30.3105" opacity="0" width="39.7031" x="0" y="0"/>
  <path d="M39.3477 15.2305L39.3477 28.0957C39.3477 29.3262 38.5684 30.0234 37.2285 30.0234L10.4863 30.0234C9.23022 30.0234 8.4945 29.383 8.47823 28.2461L36.832 28.2461C37.2969 28.2461 37.5566 28.0137 37.5566 27.5352L37.5566 13.4189C38.6895 13.4869 39.3477 14.1332 39.3477 15.2305Z" fill="#ff453a"/>
  <path d="M35.8477 10.3086L35.8477 24.6094C35.8477 25.8398 35.0684 26.5371 33.7285 26.5371L6.11133 26.5371C4.82617 26.5371 4.08789 25.8809 4.08789 24.7188L4.08789 24.5957L33.168 24.5957C33.6328 24.5957 33.8926 24.3633 33.8926 23.8848L33.8926 8.49163C35.1258 8.50525 35.8477 9.17297 35.8477 10.3086Z" fill="#ff453a"/>
  <path d="M11.2793 1.47656L11.2793 3.00781L20.5625 3.00781L20.5625 1.47656C20.5625 0.546875 21.0957 0 22.0254 0L24.8691 0C25.7988 0 26.3457 0.546875 26.3457 1.47656L26.3457 3.00781L27.5352 3.00781C30.3789 3.00781 31.8418 4.42969 31.8418 7.24609L31.8418 18.293C31.8418 21.5879 30.8711 22.5312 27.5488 22.5312L4.29297 22.5312C1.43555 22.5312 0 21.123 0 18.293L0 7.24609C0 4.42969 1.43555 3.00781 4.29297 3.00781L5.49609 3.00781L5.49609 1.47656C5.49609 0.546875 6.0293 0 6.95898 0L9.80273 0C10.7461 0 11.2793 0.546875 11.2793 1.47656ZM21.957 9.88477L21.957 11.8125L20.0156 11.8125C19.4961 11.8125 19.0859 12.2227 19.0859 12.7285C19.0859 13.248 19.4961 13.6719 20.0156 13.6719L21.957 13.6719L21.957 15.5859C21.957 16.1191 22.3535 16.5293 22.873 16.5293C23.3926 16.5293 23.8164 16.1191 23.8164 15.5859L23.8164 13.6719L25.7305 13.6719C26.25 13.6719 26.6738 13.248 26.6738 12.7285C26.6738 12.2227 26.25 11.8125 25.7305 11.8125L23.8164 11.8125L23.8164 9.88477C23.8164 9.35156 23.3926 8.95508 22.873 8.95508C22.3535 8.95508 21.957 9.35156 21.957 9.88477ZM6.42578 11.8125C5.89258 11.8125 5.48242 12.2227 5.48242 12.7285C5.48242 13.248 5.89258 13.6719 6.42578 13.6719L11.4707 13.6719C11.9902 13.6719 12.4141 13.248 12.4141 12.7285C12.4141 12.2227 11.9902 11.8125 11.4707 11.8125Z" fill="#ff453a"/>
 </g>
</svg>
