<?xml version="1.0" encoding="UTF-8"?>
<!--Generator: Apple Native CoreSVG 326-->
<!DOCTYPE svg
PUBLIC "-//W3C//DTD SVG 1.1//EN"
       "http://www.w3.org/Graphics/SVG/1.1/DTD/svg11.dtd">
<svg version="1.1" xmlns="http://www.w3.org/2000/svg" xmlns:xlink="http://www.w3.org/1999/xlink" viewBox="0 0 38.4727 29.1105">
 <g>
  <rect height="29.1105" opacity="0" width="38.4727" x="0" y="0"/>
  <path d="M28.3965 4.67731C34.6035 5.44294 38.1172 9.24372 38.1172 15.3414C38.1172 20.7527 35.038 23.7991 29.7637 24.0895C30.1281 23.3527 30.6192 22.6326 30.9164 21.7299C34.0745 21.1154 35.916 18.9142 35.916 15.3414C35.916 10.5152 33.168 7.46638 28.2051 6.89216C23.7207 6.3863 15.9004 6.16755 11.6074 6.16755C9.22852 6.16755 8.28516 7.12458 8.49023 9.07966L9.58398 18.7867C9.84375 21.0836 10.8281 21.9175 13.3301 21.9175L16.2176 21.9175C15.8764 22.6493 15.4064 23.3057 15.0908 24.1187L8.13477 24.1187C6.0293 24.1187 4.23828 24.3238 2.55664 24.7476C1.12109 25.1031 0 24.5152 0 23.0523L0 16.5035C0 15.5738 0.669922 14.8902 1.61328 14.8902L5.14062 14.8902C6.28906 14.8902 6.84961 14.398 6.72656 13.3316L6.31641 9.32575C5.98828 5.98981 7.88867 3.96638 11.6074 3.96638C15.9004 3.98005 23.8438 4.14411 28.3965 4.67731ZM21.6209 24.1187L16.7092 24.1187C17.0524 23.4236 17.5125 22.7457 17.8189 21.9175L22.7316 21.9175C22.3953 22.6493 21.932 23.3057 21.6209 24.1187ZM28.1312 24.1187L23.2274 24.1187C23.5681 23.4236 24.0249 22.7457 24.3292 21.9175L28.9434 21.9175C29.0498 21.9175 29.1551 21.9162 29.2546 21.907C28.9157 22.6431 28.4461 23.3018 28.1312 24.1187Z" fill="white" fill-opacity="0.85"/>
  <path d="M17.0078 27.8922C16.4609 27.1539 16.2422 26.7027 16.2422 25.855C16.2422 23.859 18.1562 22.7242 18.1562 20.0855C18.1562 17.7066 16.3789 17.1187 16.3789 14.2886L16.3789 13.7828L14.875 13.7828L14.875 14.2886C14.875 17.8433 16.6523 18.2535 16.6523 20.0855C16.6523 22.3961 14.7383 23.3121 14.7383 25.9644C14.7383 27.0582 15.0801 27.8785 15.791 28.7808C16.4199 29.5875 17.6777 28.7672 17.0078 27.8922ZM13.166 13.564C12.9199 13.9332 13.1387 14.4527 13.6309 14.4527L17.5957 14.4527C18.0879 14.4527 18.3203 13.9468 18.0605 13.564L16.1465 10.7066C15.9961 10.4879 15.8457 10.4058 15.6133 10.4058C15.3945 10.4058 15.2305 10.5015 15.0801 10.7066ZM23.5293 27.8922C22.9688 27.1539 22.7637 26.7027 22.7637 25.855C22.7637 23.859 24.6641 22.7242 24.6641 20.0855C24.6641 17.7066 22.9004 17.1187 22.9004 14.2886L22.9004 13.7828L21.3965 13.7828L21.3965 14.2886C21.3965 17.8433 23.1602 18.2535 23.1602 20.0855C23.1602 22.3961 21.2734 23.3121 21.2734 25.9644C21.2734 27.0582 21.6152 27.8785 22.3262 28.7808C22.9551 29.5875 24.1855 28.7672 23.5293 27.8922ZM19.6738 13.564C19.4277 13.9332 19.6602 14.4527 20.166 14.4527L24.1035 14.4527C24.6094 14.4527 24.8418 13.9332 24.5957 13.564L22.668 10.7066C22.5176 10.5015 22.3535 10.4058 22.1348 10.4058C21.916 10.4058 21.752 10.5015 21.6016 10.7066ZM30.0508 27.8922C29.5039 27.1539 29.2852 26.7027 29.2852 25.855C29.2852 23.859 31.1855 22.7242 31.1855 20.0855C31.1855 17.7066 29.4082 17.1187 29.4082 14.2886L29.4082 13.7828L27.9043 13.7828L27.9043 14.2886C27.9043 17.8433 29.6816 18.2535 29.6816 20.0855C29.6816 22.3961 27.7812 23.3121 27.7812 25.9644C27.7812 27.0582 28.123 27.8785 28.834 28.7808C29.4629 29.5875 30.707 28.7672 30.0508 27.8922ZM26.209 13.564C25.9629 13.9332 26.1816 14.4527 26.6738 14.4527L30.6387 14.4527C31.1445 14.4527 31.377 13.9332 31.1172 13.564L29.1895 10.7066C29.0391 10.5015 28.875 10.4058 28.6562 10.4058C28.4238 10.4058 28.2734 10.4879 28.123 10.7066Z" fill="white" fill-opacity="0.85"/>
 </g>
</svg>
