<svg version="1.1" xmlns="http://www.w3.org/2000/svg" xmlns:xlink="http://www.w3.org/1999/xlink" viewBox="0 0 46.2109 21.1777">
 <g>
  
  <path d="M30.8984 0.710938C35.8059 1.31493 39.0201 3.80785 40.1493 7.83398L37.8052 7.83398C36.7493 5.06636 34.3127 3.34297 30.707 2.92578C26.2227 2.41992 18.4023 2.20117 14.1094 2.20117C11.7441 2.20117 10.7871 3.1582 11.0059 5.11328L12.0859 14.8203C12.3457 17.1172 13.3301 17.9512 15.8457 17.9512L31.4453 17.9512C34.8624 17.9512 37.2154 16.5238 38.0591 13.8359L40.3653 13.8359C39.4979 17.959 36.2992 20.1523 31.4043 20.1523L10.6367 20.1523C8.53125 20.1523 6.74023 20.3574 5.05859 20.7812C3.63672 21.1367 2.50195 20.5488 2.50195 19.0859L2.50195 12.5371C2.50195 11.6074 3.17188 10.9238 4.11523 10.9238L7.64258 10.9238C8.79102 10.9238 9.35156 10.4316 9.24219 9.36523L8.83203 5.35938C8.49023 2.02344 10.3906 0 14.1094 0C18.416 0.0136719 26.3457 0.177734 30.8984 0.710938Z" style="fill:var(--color-0,hsl(0 0 0/0.85))"></path>
  <path d="M45.0488 7.69727L45.0488 5.89258C45.0488 5.25 44.5293 4.7168 43.8867 4.7168C43.2441 4.7168 42.7246 5.25 42.7246 5.89258L42.7246 7.69727C42.7246 8.95508 41.918 9.69336 40.5508 9.69336L33.291 9.69336L33.291 8.20312C33.291 7.27344 32.6348 6.91797 31.8418 7.47852L28.0547 10.0762C27.4258 10.5 27.4258 11.252 28.0547 11.6758L31.8691 14.2734C32.6348 14.8066 33.291 14.4785 33.291 13.5488L33.291 11.9766L40.5508 11.9766C43.3809 11.9766 45.0488 10.377 45.0488 7.69727Z" style="fill:var(--color-1,hsl(0 0 0/0.85))"></path>
 </g>
</svg>