<?xml version="1.0" encoding="UTF-8"?>
<!--Generator: Apple Native CoreSVG 326-->
<!DOCTYPE svg
PUBLIC "-//W3C//DTD SVG 1.1//EN"
       "http://www.w3.org/Graphics/SVG/1.1/DTD/svg11.dtd">
<svg version="1.1" xmlns="http://www.w3.org/2000/svg" xmlns:xlink="http://www.w3.org/1999/xlink" viewBox="0 0 38.4727 21.1777">
 <g>
  <rect height="21.1777" opacity="0" width="38.4727" x="0" y="0"/>
  <path d="M28.3965 0.710938C34.6035 1.47656 38.1172 5.27734 38.1172 11.375C38.1172 17.0762 34.6992 20.1523 28.9023 20.1523L8.13477 20.1523C6.0293 20.1523 4.23828 20.3574 2.55664 20.7812C1.12109 21.1367 0 20.5488 0 19.0859L0 12.5371C0 11.6074 0.669922 10.9238 1.61328 10.9238L5.14062 10.9238C6.28906 10.9238 6.84961 10.4316 6.72656 9.36523L6.31641 5.35938C5.98828 2.02344 7.88867 0 11.6074 0C15.9004 0.0136719 23.8438 0.177734 28.3965 0.710938ZM8.49023 5.11328L9.58398 14.8203C9.84375 17.1172 10.8281 17.9512 13.3301 17.9512L28.9434 17.9512C33.291 17.9512 35.916 15.6406 35.916 11.375C35.916 6.54883 33.168 3.5 28.2051 2.92578C23.7207 2.41992 15.9004 2.20117 11.6074 2.20117C9.22852 2.20117 8.28516 3.1582 8.49023 5.11328Z" fill="white" fill-opacity="0.85"/>
 </g>
</svg>
