<?xml version="1.0" encoding="UTF-8"?>
<!--Generator: Apple Native CoreSVG 326-->
<!DOCTYPE svg
PUBLIC "-//W3C//DTD SVG 1.1//EN"
       "http://www.w3.org/Graphics/SVG/1.1/DTD/svg11.dtd">
<svg version="1.1" xmlns="http://www.w3.org/2000/svg" xmlns:xlink="http://www.w3.org/1999/xlink" viewBox="0 0 28.2461 27.9043">
 <g>
  <rect height="27.9043" opacity="0" width="28.2461" x="0" y="0"/>
  <path d="M13.9453 27.8906C21.6426 27.8906 27.8906 21.6426 27.8906 13.9453C27.8906 6.24805 21.6426 0 13.9453 0C6.24805 0 0 6.24805 0 13.9453C0 21.6426 6.24805 27.8906 13.9453 27.8906ZM13.9453 25.5664C7.51953 25.5664 2.32422 20.3711 2.32422 13.9453C2.32422 7.51953 7.51953 2.32422 13.9453 2.32422C20.3711 2.32422 25.5664 7.51953 25.5664 13.9453C25.5664 20.3711 20.3711 25.5664 13.9453 25.5664Z" fill="white" fill-opacity="0.85"/>
  <path d="M9.29688 15.1484L19.0312 15.1484C19.3047 14.8203 19.4961 14.4648 19.6738 14.0684C19.7969 13.7676 19.7695 13.5078 19.6055 13.3301C19.4688 13.207 19.25 13.1797 18.9766 13.2754C18.457 13.4941 17.8145 13.5898 17.0762 13.5898C14.041 13.5898 12.1133 11.7168 12.1133 8.75C12.1133 7.9707 12.2363 7.13672 12.4688 6.69922C12.6191 6.41211 12.5918 6.16602 12.4688 5.98828C12.3184 5.81055 12.0312 5.76953 11.7031 5.90625C9.58398 6.78125 8.14844 8.98242 8.14844 11.5391C8.14844 12.9199 8.57227 14.1504 9.29688 15.1484ZM7.23242 17.1035L21.916 17.1035C22.1895 17.1035 22.3945 16.8984 22.3945 16.625C22.3945 16.3379 22.1895 16.1328 21.916 16.1328L7.23242 16.1328C6.95898 16.1328 6.75391 16.3516 6.75391 16.625C6.75391 16.8984 6.95898 17.1035 7.23242 17.1035ZM5.96094 18.9766L20.6309 18.9766C20.9043 18.9766 21.1094 18.7715 21.1094 18.498C21.1094 18.2109 20.9043 18.0059 20.6309 18.0059L5.96094 18.0059C5.6875 18.0059 5.46875 18.2246 5.46875 18.498C5.46875 18.7715 5.6875 18.9766 5.96094 18.9766ZM7.23242 20.8496L21.916 20.8496C22.1895 20.8496 22.3945 20.6445 22.3945 20.3711C22.3945 20.084 22.1895 19.8789 21.916 19.8789L7.23242 19.8789C6.95898 19.8789 6.75391 20.0977 6.75391 20.3711C6.75391 20.6445 6.95898 20.8496 7.23242 20.8496Z" fill="white" fill-opacity="0.85"/>
 </g>
</svg>
