<?xml version="1.0" encoding="UTF-8"?>
<!--Generator: Apple Native CoreSVG 326-->
<!DOCTYPE svg
PUBLIC "-//W3C//DTD SVG 1.1//EN"
       "http://www.w3.org/Graphics/SVG/1.1/DTD/svg11.dtd">
<svg version="1.1" xmlns="http://www.w3.org/2000/svg" xmlns:xlink="http://www.w3.org/1999/xlink" viewBox="0 0 28.2461 27.9043">
 <g>
  <rect height="27.9043" opacity="0" width="28.2461" x="0" y="0"/>
  <path d="M13.9453 27.9043C21.6426 27.9043 27.8906 21.6562 27.8906 13.959C27.8906 6.27539 21.6426 0.0136719 13.9453 0.0136719C6.26172 0.0136719 0 6.27539 0 13.959C0 21.6562 6.26172 27.9043 13.9453 27.9043Z" fill="#5e5ce6"/>
  <path d="M14.082 22.1895C9.67969 22.1895 6.11133 18.6211 6.11133 14.2188C6.11133 10.9102 8.16211 8.05273 11.0879 6.83594C11.1973 6.78125 11.3613 6.75391 11.498 6.75391C11.7852 6.75391 11.9902 6.94531 11.9902 7.21875C11.9902 7.32812 11.9629 7.42383 11.9082 7.54688C11.5391 8.49023 11.3203 9.51562 11.3203 10.4863C11.3203 14.4922 13.9453 17.1035 18.0742 17.1035C19.0039 17.1035 19.8789 16.8848 20.4941 16.7207C20.6855 16.666 20.8223 16.6387 20.9316 16.6387C21.1504 16.6387 21.3965 16.8301 21.3965 17.1172C21.3965 17.1855 21.3828 17.3633 21.3145 17.541C20.1934 20.0566 17.4727 22.1895 14.082 22.1895Z" fill="white"/>
 </g>
</svg>
