<?xml version="1.0" encoding="UTF-8"?>
<!--Generator: Apple Native CoreSVG 326-->
<!DOCTYPE svg
PUBLIC "-//W3C//DTD SVG 1.1//EN"
       "http://www.w3.org/Graphics/SVG/1.1/DTD/svg11.dtd">
<svg version="1.1" xmlns="http://www.w3.org/2000/svg" xmlns:xlink="http://www.w3.org/1999/xlink" viewBox="0 0 28.2461 27.9043">
 <g>
  <rect height="27.9043" opacity="0" width="28.2461" x="0" y="0"/>
  <path d="M13.9453 27.8906C21.6426 27.8906 27.8906 21.6426 27.8906 13.9453C27.8906 6.24805 21.6426 0 13.9453 0C6.24805 0 0 6.24805 0 13.9453C0 21.6426 6.24805 27.8906 13.9453 27.8906ZM13.9453 25.5664C7.51953 25.5664 2.32422 20.3711 2.32422 13.9453C2.32422 7.51953 7.51953 2.32422 13.9453 2.32422C20.3711 2.32422 25.5664 7.51953 25.5664 13.9453C25.5664 20.3711 20.3711 25.5664 13.9453 25.5664Z" fill="white" fill-opacity="0.85"/>
  <path d="M13.7539 21.8613C16.8301 21.8613 19.4824 19.9746 20.3848 17.6367C20.6172 17.1172 20.3164 16.6797 19.7559 16.8711C19.2227 17.0625 18.3066 17.2539 17.418 17.2539C13.5488 17.2539 11.0605 14.8066 11.0605 10.9238C11.0605 10.1035 11.2793 8.98242 11.498 8.36719C11.7168 7.84766 11.3613 7.47852 10.7598 7.72461C8.10742 8.75 6.33008 11.6211 6.33008 14.6289C6.33008 18.8398 9.54297 21.8613 13.7539 21.8613ZM17.8281 13.1387C17.9922 13.1387 18.1016 13.002 18.1289 12.8379C18.4297 10.4043 18.5664 10.2812 21.0547 9.91211C21.2461 9.88477 21.3691 9.78906 21.3691 9.59766C21.3691 9.43359 21.2461 9.31055 21.082 9.29688C18.5801 8.81836 18.4844 8.77734 18.1289 6.35742C18.1016 6.19336 17.9922 6.07031 17.8281 6.07031C17.6641 6.07031 17.5547 6.19336 17.5273 6.35742C17.1719 8.80469 17.1035 8.94141 14.5742 9.29688C14.3965 9.31055 14.2871 9.43359 14.2871 9.59766C14.2871 9.77539 14.3965 9.88477 14.5742 9.91211C17.1035 10.3906 17.2129 10.4316 17.5273 12.8379C17.5547 13.002 17.6641 13.1387 17.8281 13.1387Z" fill="white" fill-opacity="0.85"/>
 </g>
</svg>
