<svg version="1.1" xmlns="http://www.w3.org/2000/svg" xmlns:xlink="http://www.w3.org/1999/xlink" viewBox="0 0 39.1289 32.9902">
 <g>
  
  <path d="M15.4629 10.7871C15.0664 11.6211 14.7793 13.248 14.7793 14.7246C14.7793 20.5215 18.2109 23.9531 24.0078 23.9531C25.4844 23.9531 27.084 23.6523 27.9453 23.2832C28.9844 22.8184 29.8457 23.6113 29.4219 24.6777C29.0856 25.4977 28.6424 26.264 28.1043 26.9609L9.53134 26.9609C8.11649 25.0743 7.30078 22.6904 7.30078 20.043C7.30078 15.2031 10.0215 10.9785 14.0684 9.31055C15.1484 8.87305 16.0508 9.55664 15.4629 10.7871Z" style="fill:var(--color-0,white)"></path>
  <path d="M3.0625 30.748L35.7246 30.748C36.3672 30.748 36.9141 30.2559 36.9141 29.6543C36.9141 29.0527 36.3672 28.5605 35.7246 28.5605L3.0625 28.5605C2.40625 28.5605 1.87305 29.0527 1.87305 29.6543C1.87305 30.2559 2.40625 30.748 3.0625 30.748Z" style="fill:var(--color-1,white)"></path>
  <path d="M26.3047 2.21484C25.7031 2.21484 25.1973 2.76172 25.1973 3.43164L25.1973 10.3359L25.3477 12.4004L24.4863 11.3613L22.6406 9.50195C22.4355 9.31055 22.1758 9.1875 21.9023 9.1875C21.3555 9.1875 20.9727 9.57031 20.9727 10.1035C20.9727 10.3906 21.0684 10.6094 21.3008 10.8281L25.5664 14.8066C25.8535 15.0664 26.0586 15.1621 26.3047 15.1621C26.5645 15.1621 26.7559 15.0664 27.043 14.8066L31.3086 10.8281C31.541 10.6094 31.6367 10.3906 31.6367 10.1035C31.6367 9.57031 31.2539 9.1875 30.707 9.1875C30.4473 9.1875 30.1738 9.31055 29.9824 9.50195L28.2598 11.2246L27.2617 12.4004L27.4258 10.3359L27.4258 3.43164C27.4258 2.76172 26.9062 2.21484 26.3047 2.21484Z" style="fill:var(--color-2,white)"></path>
 </g>
</svg>