<?xml version="1.0" encoding="UTF-8"?>
<!--Generator: Apple Native CoreSVG 326-->
<!DOCTYPE svg
PUBLIC "-//W3C//DTD SVG 1.1//EN"
       "http://www.w3.org/Graphics/SVG/1.1/DTD/svg11.dtd">
<svg version="1.1" xmlns="http://www.w3.org/2000/svg" xmlns:xlink="http://www.w3.org/1999/xlink" viewBox="0 0 38.418 31.7871">
 <g>
  <rect height="31.7871" opacity="0" width="38.418" x="0" y="0"/>
  <path d="M16.4199 1.96875C16.6934 2.25586 16.6934 2.74805 16.4473 3.22656C16.0645 3.99219 15.8184 5.45508 15.8184 6.82227C15.8184 11.9766 19.1816 15.2441 24.459 15.2441C25.7852 15.2441 26.8789 15.0664 27.7949 14.7109C28.2598 14.5332 28.6836 14.5742 28.916 14.8203C29.2031 15.1074 29.2441 15.5723 29.0117 16.1055C28.4265 17.4105 27.6079 18.59 26.5547 19.5508L22.5767 19.5508C24.1829 18.9671 25.4439 17.9815 26.25 17.0352C25.6211 17.1582 24.8008 17.2539 24.0215 17.2539C17.9375 17.2539 13.8359 13.2617 13.8359 7.31445C13.8359 6.28906 13.9453 5.30469 14.1641 4.52539C12.1543 6.2207 10.9102 8.72266 10.9102 11.5527C10.9102 15.3115 12.9964 18.3775 16.3745 19.5508L12.2267 19.5508C9.99647 17.5671 8.8457 14.6649 8.8457 11.7031C8.8457 7.23242 11.3887 3.33594 15.1074 1.81836C15.6816 1.58594 16.1328 1.66797 16.4199 1.96875Z" fill="white" fill-opacity="0.85"/>
  <path d="M4.11523 26.5371L31.8828 26.5371C32.375 26.5371 32.7441 26.1543 32.7441 25.6621C32.7441 25.1699 32.375 24.8008 31.8828 24.8008L4.11523 24.8008C3.63672 24.8008 3.25391 25.1699 3.25391 25.6621C3.25391 26.1543 3.63672 26.5371 4.11523 26.5371ZM6.17969 31.7871L33.9473 31.7871C34.4258 31.7871 34.8086 31.418 34.8086 30.9258C34.8086 30.4199 34.4258 30.0508 33.9473 30.0508L6.17969 30.0508C5.70117 30.0508 5.31836 30.4199 5.31836 30.9258C5.31836 31.418 5.70117 31.7871 6.17969 31.7871ZM6.17969 21.2734L33.9473 21.2734C34.4258 21.2734 34.8086 20.9043 34.8086 20.4121C34.8086 19.9199 34.4258 19.5508 33.9473 19.5508L6.17969 19.5508C5.70117 19.5508 5.31836 19.9199 5.31836 20.4121C5.31836 20.9043 5.70117 21.2734 6.17969 21.2734Z" fill="white" fill-opacity="0.85"/>
 </g>
</svg>
