<svg version="1.1" xmlns="http://www.w3.org/2000/svg" xmlns:xlink="http://www.w3.org/1999/xlink" viewBox="0 0 31.4863 30.6113">
 <g>
  
  <path d="M26.2227 15.9004C26.4824 15.9004 26.6602 15.7227 26.6875 15.4492C27.1387 11.7988 27.3164 11.7031 31.0215 11.1016C31.3086 11.0605 31.4863 10.9102 31.4863 10.6504C31.4863 10.3906 31.3086 10.2266 31.0762 10.1855C27.3438 9.47461 27.1387 9.48828 26.6875 5.83789C26.6602 5.56445 26.4824 5.38672 26.2227 5.38672C25.9766 5.38672 25.7988 5.56445 25.7578 5.82422C25.293 9.5293 25.1562 9.65234 21.3691 10.1855C21.1367 10.2129 20.959 10.3906 20.959 10.6504C20.959 10.8965 21.1367 11.0605 21.3691 11.1016C25.1562 11.8262 25.2793 11.8262 25.7578 15.4766C25.7988 15.7227 25.9766 15.9004 26.2227 15.9004ZM19.6875 6.64453C19.8516 6.64453 19.9336 6.54883 19.9609 6.39844C20.3848 4.11523 20.3711 4.06055 22.75 3.60938C22.9004 3.58203 23.0098 3.48633 23.0098 3.32227C23.0098 3.1582 22.9004 3.0625 22.75 3.03516C20.3711 2.55664 20.4531 2.50195 19.9609 0.246094C19.9336 0.0957031 19.8516 0 19.6875 0C19.5234 0 19.4277 0.0957031 19.4004 0.246094C18.9219 2.50195 19.0039 2.55664 16.625 3.03516C16.4609 3.0625 16.3652 3.1582 16.3652 3.32227C16.3652 3.48633 16.4609 3.58203 16.625 3.60938C19.0039 4.08789 18.9766 4.11523 19.4004 6.39844C19.4277 6.54883 19.5234 6.64453 19.6875 6.64453Z" style="fill:var(--color-0,hsl(0 0 0/0.85))"></path>
  <path d="M15.9004 28.4785C20.3848 28.4785 24.8008 25.9629 26.6602 21.6699C26.9062 21.0957 26.8242 20.6309 26.5645 20.3711C26.332 20.125 25.9082 20.084 25.4297 20.2617C24.3906 20.6719 23.1465 20.918 21.5742 20.918C15.4492 20.918 11.8398 17.3906 11.8398 11.4023C11.8398 9.74805 12.1543 8.09375 12.5781 7.23242C12.8379 6.69922 12.8242 6.2207 12.5781 5.94727C12.3184 5.64648 11.8535 5.52344 11.2246 5.76953C7.02734 7.50586 4.12891 11.9219 4.12891 16.6113C4.12891 23.2148 9.22852 28.4785 15.9004 28.4785ZM15.9004 26.3867C10.4043 26.3867 6.2207 22.0391 6.2207 16.6934C6.2207 13.4395 7.7793 10.6914 10.2676 8.75C9.98047 9.625 9.83008 10.8281 9.83008 11.9766C9.83008 18.7168 14.1641 22.9277 21.0547 22.9277C22.0527 22.9277 22.9688 22.8047 23.6113 22.6543C21.9434 24.8555 19.2773 26.3867 15.9004 26.3867Z" style="fill:var(--color-1,hsl(0 0 0/0.85))"></path>
 </g>
</svg>