<?xml version="1.0" encoding="UTF-8"?>
<!--Generator: Apple Native CoreSVG 326-->
<!DOCTYPE svg
PUBLIC "-//W3C//DTD SVG 1.1//EN"
       "http://www.w3.org/Graphics/SVG/1.1/DTD/svg11.dtd">
<svg version="1.1" xmlns="http://www.w3.org/2000/svg" xmlns:xlink="http://www.w3.org/1999/xlink" viewBox="0 0 28.2461 27.9043">
 <g>
  <rect height="27.9043" opacity="0" width="28.2461" x="0" y="0"/>
  <path d="M2.32422 13.9453C2.33789 7.47852 7.49219 2.32422 13.959 2.32422C14.3965 2.32422 14.834 2.35156 15.2578 2.40625C11.4023 4.7168 9.24219 8.79102 9.24219 13.9453C9.24219 19.0859 11.3887 23.1465 15.2168 25.4844C14.793 25.5391 14.3691 25.5664 13.9453 25.5664C7.47852 25.5664 2.31055 20.4121 2.32422 13.9453ZM13.9453 27.8906C21.6426 27.8906 27.8906 21.6289 27.8906 13.9453C27.8906 6.24805 21.6426 0 13.9453 0C6.26172 0 0 6.24805 0 13.9453C0 21.6289 6.26172 27.8906 13.9453 27.8906Z" fill="white" fill-opacity="0.85"/>
 </g>
</svg>
