<svg version="1.1" xmlns="http://www.w3.org/2000/svg" xmlns:xlink="http://www.w3.org/1999/xlink" viewBox="0 0 28.2461 27.9043">
 <g>
  
  <path d="M13.9453 27.8906C21.6426 27.8906 27.8906 21.6426 27.8906 13.9453C27.8906 6.24805 21.6426 0 13.9453 0C6.24805 0 0 6.24805 0 13.9453C0 21.6426 6.24805 27.8906 13.9453 27.8906ZM13.9453 25.5664C7.51953 25.5664 2.32422 20.3711 2.32422 13.9453C2.32422 7.51953 7.51953 2.32422 13.9453 2.32422C20.3711 2.32422 25.5664 7.51953 25.5664 13.9453C25.5664 20.3711 20.3711 25.5664 13.9453 25.5664Z" style="fill:var(--color-0,hsl(0 0 0/0.85))"></path>
  <path d="M8.54492 15.3535L18.8398 15.3535C19.1133 15.0117 19.3047 14.6426 19.4961 14.2324C19.6328 13.9043 19.6055 13.6309 19.4277 13.4395C19.291 13.3164 19.0586 13.2891 18.7578 13.3848C18.2246 13.6172 17.541 13.7129 16.7617 13.7129C13.5488 13.7129 11.5391 11.7441 11.5391 8.62695C11.5391 7.79297 11.6621 6.91797 11.9082 6.45312C12.0586 6.15234 12.0312 5.89258 11.9082 5.70117C11.7578 5.50977 11.4297 5.46875 11.1016 5.61914C8.85938 6.53516 7.3418 8.85938 7.3418 11.5664C7.3418 13.0156 7.76562 14.3008 8.54492 15.3535ZM6.26172 17.8418L21.5879 17.8418C22.0117 17.8418 22.3945 17.5137 22.3945 17.0898C22.3945 16.6523 22.0254 16.3379 21.5879 16.3379L6.26172 16.3379C5.83789 16.3379 5.46875 16.666 5.46875 17.0898C5.46875 17.5137 5.85156 17.8418 6.26172 17.8418ZM7.23242 20.2617C7.58789 20.2617 7.88867 19.9746 7.88867 19.6191C7.88867 19.25 7.58789 18.9629 7.23242 18.9629C6.87695 18.9629 6.57617 19.25 6.57617 19.6191C6.57617 19.9746 6.87695 20.2617 7.23242 20.2617ZM10.5957 20.2617C10.9512 20.2617 11.2383 19.9746 11.2383 19.6191C11.2383 19.25 10.9512 18.9629 10.5957 18.9629C10.2402 18.9629 9.93945 19.25 9.93945 19.6191C9.93945 19.9746 10.2402 20.2617 10.5957 20.2617ZM13.9453 20.2617C14.3008 20.2617 14.6016 19.9746 14.6016 19.6191C14.6016 19.25 14.3008 18.9629 13.9453 18.9629C13.5898 18.9629 13.2891 19.25 13.2891 19.6191C13.2891 19.9746 13.5898 20.2617 13.9453 20.2617ZM17.2949 20.2617C17.6504 20.2617 17.9512 19.9746 17.9512 19.6191C17.9512 19.25 17.6504 18.9629 17.2949 18.9629C16.9395 18.9629 16.6523 19.25 16.6523 19.6191C16.6523 19.9746 16.9395 20.2617 17.2949 20.2617ZM20.6582 20.2617C21.0137 20.2617 21.3008 19.9746 21.3008 19.6191C21.3008 19.25 21.0137 18.9629 20.6582 18.9629C20.3027 18.9629 20.002 19.25 20.002 19.6191C20.002 19.9746 20.3027 20.2617 20.6582 20.2617ZM8.90039 22.1074C9.25586 22.1074 9.55664 21.8203 9.55664 21.4512C9.55664 21.0957 9.25586 20.8086 8.90039 20.8086C8.54492 20.8086 8.24414 21.0957 8.24414 21.4512C8.24414 21.8203 8.54492 22.1074 8.90039 22.1074ZM12.2637 22.1074C12.6191 22.1074 12.9062 21.8203 12.9062 21.4512C12.9062 21.0957 12.6191 20.8086 12.2637 20.8086C11.9082 20.8086 11.6074 21.0957 11.6074 21.4512C11.6074 21.8203 11.9082 22.1074 12.2637 22.1074ZM15.6133 22.1074C15.9688 22.1074 16.2695 21.8203 16.2695 21.4512C16.2695 21.0957 15.9688 20.8086 15.6133 20.8086C15.2578 20.8086 14.957 21.0957 14.957 21.4512C14.957 21.8203 15.2578 22.1074 15.6133 22.1074ZM18.9629 22.1074C19.3184 22.1074 19.6191 21.8203 19.6191 21.4512C19.6191 21.0957 19.3184 20.8086 18.9629 20.8086C18.6074 20.8086 18.3066 21.0957 18.3066 21.4512C18.3066 21.8203 18.6074 22.1074 18.9629 22.1074Z" style="fill:var(--color-1,hsl(0 0 0/0.85))"></path>
 </g>
</svg>