<?xml version="1.0" encoding="UTF-8"?>
<!--Generator: Apple Native CoreSVG 326-->
<!DOCTYPE svg
PUBLIC "-//W3C//DTD SVG 1.1//EN"
       "http://www.w3.org/Graphics/SVG/1.1/DTD/svg11.dtd">
<svg version="1.1" xmlns="http://www.w3.org/2000/svg" xmlns:xlink="http://www.w3.org/1999/xlink" viewBox="0 0 28.2461 27.9043">
 <g>
  <rect height="27.9043" opacity="0" width="28.2461" x="0" y="0"/>
  <path d="M13.9453 27.8906C21.6426 27.8906 27.8906 21.6426 27.8906 13.9453C27.8906 6.24805 21.6426 0 13.9453 0C6.24805 0 0 6.24805 0 13.9453C0 21.6426 6.24805 27.8906 13.9453 27.8906ZM13.9453 25.5664C7.51953 25.5664 2.32422 20.3711 2.32422 13.9453C2.32422 7.51953 7.51953 2.32422 13.9453 2.32422C20.3711 2.32422 25.5664 7.51953 25.5664 13.9453C25.5664 20.3711 20.3711 25.5664 13.9453 25.5664Z" fill="white" fill-opacity="0.85"/>
  <path d="M14.0547 21.916C17.3496 21.916 19.9883 19.8652 21.0684 17.418C21.1367 17.2402 21.1504 17.0762 21.1504 17.0078C21.1504 16.7207 20.918 16.5293 20.6992 16.5293C20.5898 16.5293 20.4668 16.5703 20.2754 16.625C19.6738 16.7891 18.8262 16.9805 17.9238 16.9805C13.918 16.9805 11.375 14.4648 11.375 10.582C11.375 9.625 11.5938 8.64062 11.9492 7.72461C12.0039 7.61523 12.0312 7.50586 12.0312 7.41016C12.0312 7.13672 11.8262 6.95898 11.5527 6.95898C11.416 6.95898 11.2656 6.98633 11.1562 7.04102C8.3125 8.2168 6.33008 10.9922 6.33008 14.2051C6.33008 18.457 9.78906 21.916 14.0547 21.916Z" fill="white" fill-opacity="0.85"/>
 </g>
</svg>
