<svg version="1.1" xmlns="http://www.w3.org/2000/svg" xmlns:xlink="http://www.w3.org/1999/xlink" viewBox="0 0 39.1289 32.7988">
 <g>
  
  <path d="M15.4629 10.6914C15.0664 11.5254 14.7793 13.1523 14.7793 14.6289C14.7793 20.4258 18.2109 23.8574 24.0078 23.8574C25.4844 23.8574 27.084 23.5566 27.9453 23.1875C28.9844 22.7227 29.8457 23.5156 29.4219 24.582C29.0856 25.402 28.6424 26.1683 28.1043 26.8652L9.53134 26.8652C8.11649 24.9786 7.30078 22.5947 7.30078 19.9473C7.30078 15.1074 10.0215 10.8828 14.0684 9.21484C15.1484 8.77734 16.0508 9.46094 15.4629 10.6914Z" style="fill:var(--color-0,white)"></path>
  <path d="M3.0625 30.6523L35.7246 30.6523C36.3672 30.6523 36.9141 30.1602 36.9141 29.5586C36.9141 28.957 36.3672 28.4648 35.7246 28.4648L3.0625 28.4648C2.40625 28.4648 1.87305 28.957 1.87305 29.5586C1.87305 30.1602 2.40625 30.6523 3.0625 30.6523Z" style="fill:var(--color-1,white)"></path>
  <path d="M26.3047 15.0664C26.9062 15.0664 27.4258 14.5195 27.4258 13.8496L27.4258 6.94531L27.2617 4.88086L28.2598 6.04297L29.9824 7.7793C30.1738 7.9707 30.4473 8.09375 30.707 8.09375C31.2539 8.09375 31.6367 7.71094 31.6367 7.17773C31.6367 6.89062 31.541 6.67188 31.3086 6.45312L27.043 2.47461C26.7559 2.21484 26.5645 2.11914 26.3047 2.11914C26.0586 2.11914 25.8535 2.21484 25.5664 2.47461L21.3008 6.45312C21.0684 6.67188 20.9727 6.89062 20.9727 7.17773C20.9727 7.71094 21.3555 8.09375 21.9023 8.09375C22.1758 8.09375 22.4355 7.9707 22.6406 7.7793L24.4863 5.90625L25.3477 4.88086L25.1973 6.94531L25.1973 13.8496C25.1973 14.5195 25.7031 15.0664 26.3047 15.0664Z" style="fill:var(--color-2,white)"></path>
 </g>
</svg>