<svg version="1.1" xmlns="http://www.w3.org/2000/svg" xmlns:xlink="http://www.w3.org/1999/xlink" viewBox="0 0 28.2461 27.9043">
 <g>
  
  <path d="M13.9453 27.9043C21.6426 27.9043 27.8906 21.6562 27.8906 13.959C27.8906 6.27539 21.6426 0.0136719 13.9453 0.0136719C6.26172 0.0136719 0 6.27539 0 13.959C0 21.6562 6.26172 27.9043 13.9453 27.9043Z" style="fill:var(--color-0,hsl(0 0 0/0.85))"></path>
  <path d="M17.3496 12.1543C16.9121 12.1543 16.6113 11.7988 16.6113 11.375L16.6113 8.25781L16.6387 7.7793L16.5703 7.86133L15.6133 8.79102C15.4766 8.91406 15.2852 8.99609 15.1211 8.99609C14.752 8.99609 14.4648 8.73633 14.4648 8.38086C14.4648 8.18945 14.5195 8.02539 14.6973 7.86133L16.8438 5.86523C17.0215 5.71484 17.1582 5.63281 17.3496 5.63281C17.5137 5.63281 17.6641 5.71484 17.8281 5.86523L19.9746 7.86133C20.1523 8.03906 20.207 8.18945 20.207 8.38086C20.207 8.73633 19.9336 8.99609 19.5508 8.99609C19.4004 8.99609 19.168 8.92773 19.0586 8.80469L18.1973 7.91602L18.0332 7.73828L18.0605 8.25781L18.0605 11.375C18.0605 11.7988 17.7598 12.1543 17.3496 12.1543ZM6.57617 20.4258C6.17969 20.4258 5.79688 20.125 5.79688 19.7148C5.79688 19.3047 6.16602 18.9766 6.57617 18.9766L21.3145 18.9766C21.7383 18.9766 22.0938 19.291 22.0938 19.7148C22.0938 20.125 21.7246 20.4258 21.3145 20.4258ZM9.14648 17.9512C8.4082 16.9258 7.9707 15.668 7.9707 14.2461C7.9707 11.6074 9.44727 9.33789 11.6348 8.43555C11.9766 8.29883 12.2773 8.33984 12.4277 8.51758C12.5508 8.70898 12.5781 8.95508 12.4277 9.24219C12.1953 9.70703 12.0586 10.5684 12.0586 11.375C12.0586 14.4238 14.041 16.3516 17.1719 16.3516C17.9375 16.3516 18.5938 16.2559 19.127 16.0234C19.4141 15.9277 19.6328 15.9551 19.7832 16.0781C19.9473 16.2695 19.9746 16.543 19.8516 16.8301C19.6738 17.2539 19.4688 17.623 19.1953 17.9512Z" style="fill:var(--color-1,white)"></path>
 </g>
</svg>