<?xml version="1.0" encoding="UTF-8"?>
<!--Generator: Apple Native CoreSVG 326-->
<!DOCTYPE svg
PUBLIC "-//W3C//DTD SVG 1.1//EN"
       "http://www.w3.org/Graphics/SVG/1.1/DTD/svg11.dtd">
<svg version="1.1" xmlns="http://www.w3.org/2000/svg" xmlns:xlink="http://www.w3.org/1999/xlink" viewBox="0 0 28.2461 27.9043">
 <g>
  <rect height="27.9043" opacity="0" width="28.2461" x="0" y="0"/>
  <path d="M13.9453 27.9043C21.6426 27.9043 27.8906 21.6562 27.8906 13.959C27.8906 6.27539 21.6426 0.0136719 13.9453 0.0136719C6.26172 0.0136719 0 6.27539 0 13.959C0 21.6562 6.26172 27.9043 13.9453 27.9043Z" fill="white" fill-opacity="0.85"/>
  <path d="M9.14648 15.2031C8.4082 14.1777 7.9707 12.9199 7.9707 11.5117C7.9707 8.87305 9.44727 6.58984 11.6348 5.6875C11.9766 5.55078 12.2773 5.5918 12.4277 5.76953C12.5508 5.96094 12.5781 6.2207 12.4277 6.50781C12.1953 6.95898 12.0586 7.82031 12.0586 8.64062C12.0586 11.6758 14.0547 13.6172 17.1719 13.6172C17.9375 13.6172 18.5938 13.5078 19.127 13.2891C19.4141 13.1797 19.6328 13.2207 19.7832 13.3438C19.9473 13.5215 19.9746 13.7949 19.8516 14.0957C19.6738 14.5059 19.4688 14.8887 19.1953 15.2031ZM7.02734 17.2266C6.74023 17.2266 6.53516 17.0215 6.53516 16.7344C6.53516 16.4473 6.74023 16.2422 7.02734 16.2422L22.1621 16.2422C22.4492 16.2422 22.6543 16.4473 22.6543 16.7344C22.6543 17.0215 22.4492 17.2266 22.1621 17.2266ZM5.71484 19.168C5.42773 19.168 5.20898 18.9492 5.20898 18.6621C5.20898 18.3887 5.42773 18.1699 5.71484 18.1699L20.8359 18.1699C21.123 18.1699 21.3281 18.3887 21.3281 18.6621C21.3281 18.9492 21.123 19.168 20.8359 19.168ZM7.02734 21.0957C6.74023 21.0957 6.53516 20.8906 6.53516 20.6035C6.53516 20.3164 6.74023 20.1113 7.02734 20.1113L22.1621 20.1113C22.4492 20.1113 22.6543 20.3164 22.6543 20.6035C22.6543 20.8906 22.4492 21.0957 22.1621 21.0957Z" fill="white"/>
 </g>
</svg>
