<svg version="1.1" xmlns="http://www.w3.org/2000/svg" xmlns:xlink="http://www.w3.org/1999/xlink" viewBox="0 0 38.8124 27.4668">
 <g>
  
  <path d="M9.02241 27.4668C12.8779 27.4668 15.9951 24.377 16.0497 20.5352L13.8349 20.5215C13.7802 23.1465 11.6337 25.2383 9.00873 25.2383C6.34272 25.2383 4.20991 23.1465 4.15522 20.5215L1.94037 20.5352C1.99506 24.3906 5.12592 27.4668 9.02241 27.4668ZM1.43451 21.8066L25.0458 21.8066L25.0458 19.5918L17.2665 19.5918L17.2665 12.4414C17.2665 11.3613 16.788 10.8691 15.7626 10.8691L8.51655 10.8691C2.43256 10.8691-0.670954 15.6406 0.122015 20.8359C0.217718 21.4375 0.586859 21.8066 1.43451 21.8066ZM8.20209 9.83008L16.2548 9.83008C16.8427 9.83008 17.3076 9.35156 17.3076 8.76367C17.3076 8.18945 16.829 7.71094 16.2548 7.71094L8.20209 7.71094C7.62787 7.71094 7.13569 8.18945 7.13569 8.76367C7.13569 9.35156 7.6142 9.83008 8.20209 9.83008ZM23.4599 20.7402L25.6611 20.7402L26.3447 17.1992L27.8759 15.5176L29.8857 14.1777L28.9423 9.63867L28.9013 7.4375L24.9638 7.4375C23.9521 7.4375 23.4599 7.95703 23.4599 9.02344ZM32.9619 9.50195C33.454 9.55664 33.6865 9.16016 33.5908 8.68164L32.8251 5.01758C32.7294 4.53906 32.374 4.30664 31.9228 4.55273C31.5673 4.74414 31.2392 5.04492 31.0068 5.40039C30.1865 6.60352 30.5419 8.29883 31.7451 9.07812C32.0869 9.31055 32.5244 9.47461 32.9619 9.50195ZM31.4169 27.4668C35.3134 27.4668 38.458 24.3086 38.458 20.4258C38.458 16.5156 35.3134 13.3438 31.4169 13.3438C27.4931 13.3438 24.3349 16.5156 24.3349 20.4258C24.3349 24.3223 27.4931 27.4668 31.4169 27.4668ZM31.4033 25.2383C28.7099 25.2383 26.5497 23.0918 26.5497 20.4121C26.5497 17.7324 28.7099 15.5723 31.4033 15.5723C34.0693 15.5723 36.2431 17.7324 36.2431 20.4121C36.2431 23.0781 34.0693 25.2383 31.4033 25.2383ZM31.3759 22.1895C32.3603 22.1895 33.1533 21.3965 33.1533 20.4121C33.1533 19.4004 32.374 18.6211 31.3759 18.6211C30.3779 18.6211 29.6533 19.3867 29.6396 20.4121C29.6259 21.3965 30.3642 22.1895 31.3759 22.1895ZM30.4599 20.3164L32.3603 19.6328L28.3818 0.916016C28.2451 0.246094 27.6982 0 26.9052 0L24.0751 0C23.4872 0 23.0224 0.478516 23.0224 1.06641C23.0224 1.6543 23.4872 2.11914 24.0751 2.11914L26.5087 2.11914C26.6181 2.11914 26.6728 2.14648 26.6865 2.21484Z" style="fill:var(--color-0,hsl(0 0 0/0.85))"></path>
 </g>
</svg>