<?xml version="1.0" encoding="UTF-8"?>
<!--Generator: Apple Native CoreSVG 326-->
<!DOCTYPE svg
PUBLIC "-//W3C//DTD SVG 1.1//EN"
       "http://www.w3.org/Graphics/SVG/1.1/DTD/svg11.dtd">
<svg version="1.1" xmlns="http://www.w3.org/2000/svg" xmlns:xlink="http://www.w3.org/1999/xlink" viewBox="0 0 46.2383 27.4668">
 <g>
  <rect height="27.4668" opacity="0" width="46.2383" x="0" y="0"/>
  <path d="M7.69727 21.0684L17.9648 12.8516C21.752 9.81641 23.9395 8.88672 26.0996 8.88672C28.793 8.88672 29.9277 10.4316 29.9277 12.168C29.9277 14.1094 28.3691 15.6816 25.252 15.6816C22.4629 15.6816 19.9473 14.4785 17.9922 12.2773L16.0781 13.7402C18.3613 16.3789 21.6152 17.8281 25.1973 17.8281C29.5449 17.8281 32.1289 15.4082 32.1289 12.332C32.1289 9.07812 30.1191 6.79492 26.25 6.74023C23.5566 6.71289 20.8633 7.84766 17.2266 10.7461L6.41211 19.3867ZM7.35547 27.4668C11.4023 27.4668 14.6699 24.1855 14.6699 20.1387C14.6699 16.0781 11.4023 12.7832 7.35547 12.7832C3.28125 12.7832 0 16.0781 0 20.1387C0 24.1992 3.28125 27.4668 7.35547 27.4668ZM7.3418 25.3477C4.42969 25.3477 2.10547 23.0234 2.10547 20.125C2.10547 17.2266 4.42969 14.9023 7.3418 14.9023C10.2402 14.9023 12.5645 17.2266 12.5645 20.125C12.5645 23.0234 10.2402 25.3477 7.3418 25.3477ZM9.51562 9.65234L15.8184 9.65234C16.4062 9.65234 16.8848 9.1875 16.8848 8.59961C16.8848 8.02539 16.3926 7.5332 15.8184 7.5332L9.51562 7.5332C8.94141 7.5332 8.46289 8.02539 8.46289 8.59961C8.46289 9.1875 8.92773 9.65234 9.51562 9.65234ZM38.5684 27.4668C42.6152 27.4668 45.8828 24.1855 45.8828 20.1387C45.8828 16.0781 42.6152 12.7832 38.5684 12.7832C34.4941 12.7832 31.2129 16.0781 31.2129 20.1387C31.2129 24.1992 34.4941 27.4668 38.5684 27.4668ZM38.5547 25.3477C35.6426 25.3477 33.3184 23.0234 33.3184 20.125C33.3184 17.2266 35.6426 14.9023 38.5547 14.9023C41.4531 14.9023 43.7773 17.2266 43.7773 20.125C43.7773 23.0234 41.4531 25.3477 38.5547 25.3477ZM38.5273 21.9023C39.5117 21.9023 40.3047 21.1094 40.3047 20.125C40.3047 19.127 39.5254 18.334 38.5273 18.334C37.5293 18.334 36.8184 19.1133 36.8047 20.125C36.791 21.1094 37.5156 21.9023 38.5273 21.9023ZM37.5703 20.2207L39.5527 19.5371L32.1016 0.916016C31.8281 0.259766 31.3359 0 30.543 0L26.6191 0C26.0176 0 25.5527 0.478516 25.5527 1.06641C25.5527 1.6543 26.0176 2.11914 26.6191 2.11914L30.1191 2.11914C30.2422 2.11914 30.2969 2.14648 30.3379 2.24219ZM38.5684 9.50195C39.0605 9.55664 39.293 9.16016 39.1973 8.68164L38.4316 5.01758C38.3359 4.53906 37.9805 4.30664 37.5293 4.55273C37.1738 4.74414 36.8457 5.04492 36.6133 5.40039C35.793 6.60352 36.1484 8.29883 37.3516 9.07812C37.6934 9.31055 38.1309 9.47461 38.5684 9.50195ZM7.30078 21.916C8.28516 21.916 9.07812 21.1094 9.07812 20.125C9.07812 19.127 8.29883 18.3477 7.30078 18.3477C6.30273 18.3477 5.57812 19.1133 5.56445 20.125C5.55078 21.1094 6.28906 21.916 7.30078 21.916ZM18.3066 22.9961L22.0117 22.9961C22.6406 22.9961 22.9141 22.8457 23.3516 22.3672L28.834 16.4336L25.8398 16.4199L21.957 20.6855C21.834 20.8086 21.7109 20.877 21.4648 20.877L18.3066 20.877C17.7188 20.877 17.2539 21.3418 17.2539 21.9297C17.2539 22.5176 17.7188 22.9961 18.3066 22.9961Z" fill="white" fill-opacity="0.85"/>
 </g>
</svg>
