<svg version="1.1" xmlns="http://www.w3.org/2000/svg" xmlns:xlink="http://www.w3.org/1999/xlink" viewBox="0 0 25.9082 32.0332">
 <g>
  
  <path d="M0.0410156 10.0352C0.0410156 10.8145 0.587891 11.5527 1.66797 11.5527L23.8984 11.5527C24.9922 11.5527 25.5254 10.8145 25.5254 10.0352C25.5254 9.51562 25.293 8.96875 24.7598 8.57227L14.4785 0.65625C13.9043 0.21875 13.3574 0 12.7832 0C12.209 0 11.6621 0.21875 11.0879 0.65625L0.806641 8.57227C0.287109 8.96875 0.0410156 9.51562 0.0410156 10.0352ZM0.0136719 16.0098C0.0136719 16.7207 0.505859 17.1992 1.24414 17.1992L24.3223 17.1992C25.0605 17.1992 25.5527 16.7207 25.5527 16.0098C25.5527 15.2988 25.0605 14.8066 24.3223 14.8066L1.24414 14.8066C0.505859 14.8066 0.0136719 15.2988 0.0136719 16.0098ZM0 21.9844C0 22.5039 0.232422 23.0508 0.765625 23.4473L11.0469 31.3633C11.6211 31.8008 12.168 32.0195 12.7422 32.0195C13.3164 32.0195 13.8633 31.8008 14.4375 31.3633L24.7188 23.4473C25.252 23.0508 25.4844 22.5039 25.4844 21.9844C25.4844 21.1914 24.9512 20.4531 23.8574 20.4531L1.62695 20.4531C0.546875 20.4531 0 21.1914 0 21.9844Z" style="fill:var(--color-0,hsl(0 0 0/0.85))"></path>
 </g>
</svg>