<svg version="1.1" xmlns="http://www.w3.org/2000/svg" xmlns:xlink="http://www.w3.org/1999/xlink" viewBox="0 0 28.2461 27.9043">
 <g>
  
  <path d="M13.9453 27.9043C21.6426 27.9043 27.8906 21.6562 27.8906 13.959C27.8906 6.27539 21.6426 0.0136719 13.9453 0.0136719C6.26172 0.0136719 0 6.27539 0 13.959C0 21.6562 6.26172 27.9043 13.9453 27.9043Z" style="fill:var(--color-0,hsl(0 0 0/0.85))"></path>
  <path d="M12.4414 11.8125L14.9707 8.50391C15.5723 7.72461 16.4473 7.73828 17.0352 8.50391L19.5508 11.8125C18.8809 12.0039 18.4297 12.5098 18.0059 12.5098C17.4727 12.5098 16.9941 11.7168 15.9961 11.7168C14.998 11.7168 14.5059 12.5098 13.9727 12.5098C13.5352 12.5098 13.0977 12.0039 12.4414 11.8125ZM9.50195 18.498C8.42188 18.498 8.14844 17.4453 8.69531 16.7344L11.8262 12.6328C12.332 12.373 13.0156 13.3301 13.9727 13.3301C15.0391 13.3301 15.4355 12.5371 15.9961 12.5371C16.5566 12.5371 16.9531 13.3301 18.0059 13.3301C18.9492 13.3301 19.6602 12.373 20.1523 12.6328L23.2695 16.7344C23.8301 17.4453 23.5566 18.498 22.4902 18.498ZM5.42773 18.498C4.30664 18.498 4.0332 17.418 4.66211 16.625L9.17383 11.0059C9.78906 10.2676 10.5957 10.2676 11.1973 11.0059L11.498 11.3613L7.84766 16.1055C7.28711 16.8574 7.24609 17.8008 7.61523 18.498Z" style="fill:var(--color-1,white)"></path>
 </g>
</svg>