<svg version="1.1" xmlns="http://www.w3.org/2000/svg" xmlns:xlink="http://www.w3.org/1999/xlink" viewBox="0 0 51.4737 28.3418">
 <g>
  
  <path d="M17.1128 17.4408L14.1909 21.2871C12.929 22.9331 12.8893 25.0105 13.8446 26.4824L4.04642 26.4824C1.44876 26.4824 0.833524 23.9668 2.29642 22.1484L6.95852 16.3789C8.25735 16.4609 8.84524 17.9238 10.9234 17.9238C12.9741 17.9238 13.7945 16.2969 14.9292 16.2969C15.6461 16.2969 16.24 16.9621 17.1128 17.4408ZM17.2808 9.41992L20.3298 13.2059L18.0943 16.1487C17.2871 15.6872 16.3787 14.793 14.9292 14.793C12.9605 14.793 11.9898 16.4199 10.9234 16.4199C10.1304 16.4199 9.3511 15.3809 8.0386 15.0527L12.5777 9.41992C13.2749 8.54492 14.1089 8.10742 14.9292 8.10742C15.7359 8.10742 16.5699 8.54492 17.2808 9.41992Z" style="fill:var(--color-0,hsl(0 0 0/0.85))"></path>
  <path d="M27.7398 12.9336C28.9702 12.9336 30.0777 11.0742 32.3335 11.0742C34.5757 11.0742 35.6831 12.9336 36.9136 12.9336C37.9253 12.9336 38.8687 11.6348 40.482 11.2383L34.6988 3.65039C33.3589 1.88672 31.3081 1.85938 29.9546 3.65039L24.1714 11.2383C25.7847 11.6484 26.7417 12.9336 27.7398 12.9336ZM17.5269 26.4824L47.1402 26.4824C49.6148 26.4824 50.2163 24.0352 48.9859 22.4219L41.6714 12.8379C40.0308 12.9883 39.1421 14.6426 36.9136 14.6426C34.5757 14.6426 33.6324 12.7832 32.3335 12.7832C31.021 12.7832 30.0777 14.6426 27.7398 14.6426C25.5113 14.6426 24.6226 12.9883 22.9956 12.8379L15.6675 22.4219C14.437 24.0352 15.0386 26.4824 17.5269 26.4824Z" style="fill:var(--color-1,hsl(0 0 0/0.85))"></path>
 </g>
</svg>