<svg version="1.1" xmlns="http://www.w3.org/2000/svg" xmlns:xlink="http://www.w3.org/1999/xlink" viewBox="0 0 48.4407 24.623">
 <g>
  
  <path d="M15.7506 7.56055L20.0191 12.8451L17.579 16.0543C17.5229 16.062 17.4644 16.0645 17.4049 16.0645C15.3541 16.0645 14.5338 14.4375 13.3991 14.4375C12.2643 14.4375 11.4576 16.0645 9.40687 16.0645C8.6872 16.0645 8.1241 15.7185 7.64876 15.2835L2.51624 21.6426C2.2428 21.9844 2.39319 22.4219 2.85804 22.4219L13.5355 22.4219C13.5727 23.5889 14.3929 24.623 16.0104 24.623L2.52991 24.623C-0.0814151 24.623-0.682978 22.1074 0.779913 20.2891L11.0475 7.56055C11.7584 6.69922 12.5924 6.24805 13.3991 6.24805C14.2194 6.24805 15.0534 6.69922 15.7506 7.56055ZM12.7565 8.95508L8.59422 14.1121C8.87611 14.3795 9.14149 14.5605 9.40687 14.5605C10.4733 14.5605 11.444 12.9336 13.3991 12.9336C15.3678 12.9336 16.3385 14.5605 17.4049 14.5605C17.6703 14.5605 17.9357 14.3795 18.2176 14.1121L14.0553 8.95508C13.8502 8.72266 13.6315 8.58594 13.3991 8.58594C13.1803 8.58594 12.9479 8.72266 12.7565 8.95508Z" style="fill:var(--color-0,hsl(0 0 0/0.85))"></path>
  <path d="M16.0104 24.623L45.61 24.623C48.0983 24.623 48.6998 22.1621 47.4694 20.5488L33.1823 1.79102C31.8424 0.0273438 29.7916 0 28.4244 1.79102L14.151 20.5625C12.9205 22.1758 13.5221 24.623 16.0104 24.623ZM16.4616 22.4219C15.9557 22.4219 15.819 21.998 16.0787 21.6426L30.1334 3.17188C30.5026 2.69336 31.1315 2.70703 31.4596 3.1582L45.528 21.6289C45.8014 21.9844 45.651 22.4219 45.1451 22.4219ZM26.36 12.7285C28.6295 12.7285 29.5455 10.9238 30.8034 10.9238C32.0748 10.9238 32.9909 12.7285 35.2604 12.7285C36.6549 12.7285 37.5573 11.5938 38.3366 10.7598L37.2838 9.47461C36.5182 10.2539 35.903 11.0742 35.2604 11.0742C34.0573 11.0742 32.9909 9.26953 30.8034 9.26953C28.6295 9.26953 27.5631 11.0742 26.36 11.0742C25.7037 11.0742 25.0885 10.2402 24.3092 9.46094L23.2565 10.7324C24.0494 11.5801 24.9518 12.7285 26.36 12.7285Z" style="fill:var(--color-1,hsl(0 0 0/0.85))"></path>
 </g>
</svg>