<?xml version="1.0" encoding="UTF-8"?>
<!--Generator: Apple Native CoreSVG 326-->
<!DOCTYPE svg
PUBLIC "-//W3C//DTD SVG 1.1//EN"
       "http://www.w3.org/Graphics/SVG/1.1/DTD/svg11.dtd">
<svg version="1.1" xmlns="http://www.w3.org/2000/svg" xmlns:xlink="http://www.w3.org/1999/xlink" viewBox="0 0 26.6602 31.9854">
 <g>
  <rect height="31.9854" opacity="0" width="26.6602" x="0" y="0"/>
  <path d="M2.05078 11.5288L24.2539 11.5288C26.1406 11.5288 26.3184 9.42334 25.1836 8.57568L15.0527 0.810059C13.6172-0.27002 12.6875-0.27002 11.252 0.810059L1.12109 8.57568C-0.0136719 9.42334 0.164062 11.5288 2.05078 11.5288ZM4.23828 9.4917C3.91016 9.4917 3.81445 9.10889 4.07422 8.90381L12.3184 2.5874C12.7695 2.24561 13.5352 2.25928 13.9727 2.5874L22.2305 8.90381C22.4902 9.10889 22.3945 9.4917 22.0664 9.4917ZM1.16211 17.1753L25.1426 17.1753C25.7715 17.1753 26.3047 16.6284 26.3047 15.9858C26.3047 15.3433 25.7715 14.7827 25.1426 14.7827L1.16211 14.7827C0.533203 14.7827 0 15.3433 0 15.9858C0 16.6284 0.533203 17.1753 1.16211 17.1753ZM2.05078 20.4429C0.164062 20.4429-0.0136719 22.5347 1.12109 23.396L11.252 31.1616C12.6875 32.2417 13.6172 32.2417 15.0527 31.1616L25.1836 23.396C26.3184 22.5347 26.1406 20.4429 24.2539 20.4429ZM4.23828 22.48L22.0664 22.48C22.3945 22.48 22.4902 22.8491 22.2305 23.0679L13.9727 29.3843C13.5352 29.7124 12.7695 29.7261 12.3184 29.3843L4.07422 23.0679C3.81445 22.8491 3.91016 22.48 4.23828 22.48Z" fill="white" fill-opacity="0.85"/>
 </g>
</svg>
