<svg version="1.1" xmlns="http://www.w3.org/2000/svg" xmlns:xlink="http://www.w3.org/1999/xlink" viewBox="0 0 28.2461 27.9043">
 <g>
  
  <path d="M13.9453 27.8906C21.6426 27.8906 27.8906 21.6426 27.8906 13.9453C27.8906 6.24805 21.6426 0 13.9453 0C6.24805 0 0 6.24805 0 13.9453C0 21.6426 6.24805 27.8906 13.9453 27.8906ZM13.9453 25.5664C7.51953 25.5664 2.32422 20.3711 2.32422 13.9453C2.32422 7.51953 7.51953 2.32422 13.9453 2.32422C20.3711 2.32422 25.5664 7.51953 25.5664 13.9453C25.5664 20.3711 20.3711 25.5664 13.9453 25.5664Z" style="fill:var(--color-0,hsl(0 0 0/0.85))"></path>
  <path d="M12.4824 11.8398C13.1113 12.0176 13.5488 12.5234 13.9727 12.5234C14.4922 12.5234 14.957 11.7305 15.9277 11.7305C16.8848 11.7305 17.3633 12.5234 17.8828 12.5234C18.293 12.5234 18.7305 12.0312 19.373 11.8398L16.9395 8.62695C16.3652 7.88867 15.5176 7.86133 14.9434 8.62695ZM9.625 18.3203L22.2305 18.3203C23.2695 18.3203 23.5293 17.3086 22.9961 16.625L19.9609 12.6328C19.4824 12.3867 18.7988 13.3164 17.8828 13.3164C16.8574 13.3164 16.4746 12.5234 15.9277 12.5234C15.3809 12.5234 14.9844 13.3164 13.9727 13.3164C13.043 13.3164 12.373 12.3867 11.8945 12.6328L8.8457 16.625C8.3125 17.2949 8.58594 18.3203 9.625 18.3203ZM5.66016 18.3203L7.80664 18.3203C7.45117 17.6504 7.47852 16.7207 8.02539 16.0098L11.5664 11.4023L11.2793 11.0605C10.6914 10.3496 9.91211 10.3496 9.32422 11.0605L4.93555 16.5156C4.33398 17.2812 4.59375 18.3203 5.66016 18.3203Z" style="fill:var(--color-1,hsl(0 0 0/0.85))"></path>
 </g>
</svg>