<?xml version="1.0" encoding="UTF-8"?>
<!--Generator: Apple Native CoreSVG 326-->
<!DOCTYPE svg
PUBLIC "-//W3C//DTD SVG 1.1//EN"
       "http://www.w3.org/Graphics/SVG/1.1/DTD/svg11.dtd">
<svg version="1.1" xmlns="http://www.w3.org/2000/svg" xmlns:xlink="http://www.w3.org/1999/xlink" viewBox="0 0 35.4379 17.3496">
 <g>
  <rect height="17.3496" opacity="0" width="35.4379" x="0" y="0"/>
  <path d="M0.765806 7.3418C5.97479 13.8359 10.8556 17.3496 17.5412 17.3496C24.2131 17.3496 29.1076 13.8359 34.3029 7.3418C35.7111 5.57812 35.0685 3.97852 33.4416 3.78711C28.506 3.19922 27.1935 0.0273438 23.1467 0.0273438C19.9474 0.0273438 18.0471 2.54297 17.5412 2.54297C17.0217 2.54297 15.1213 0.0273438 11.9221 0.0273438C7.87518 0.0273438 6.57635 3.19922 1.62713 3.78711C0.0138526 3.97852-0.628726 5.57812 0.765806 7.3418ZM3.89667 7.01367C3.1994 6.58984 3.62323 5.81055 4.26581 6.11133C6.19354 7.02734 8.18963 6.93164 10.7053 6.6582C11.3752 6.57617 12.0451 6.48047 12.715 6.48047C14.7931 6.48047 15.9142 7.20508 16.6662 7.65625C17.1584 7.94336 17.3224 7.99805 17.5412 7.99805C17.7599 7.99805 17.924 7.94336 18.4162 7.65625C19.1681 7.21875 20.2756 6.48047 22.3537 6.48047C23.0236 6.48047 23.6935 6.57617 24.3771 6.6582C26.8791 7 28.8889 7.02734 30.8166 6.11133C31.4592 5.81055 31.883 6.58984 31.1721 7.01367C28.0139 8.94141 24.4181 8.29883 22.9006 8.28516C19.715 8.28516 19.3732 9.93945 17.5412 9.93945C15.7092 9.93945 15.3674 8.28516 12.1681 8.28516C10.6642 8.29883 7.05487 8.96875 3.89667 7.01367Z" fill="white" fill-opacity="0.85"/>
 </g>
</svg>
