<svg version="1.1" xmlns="http://www.w3.org/2000/svg" xmlns:xlink="http://www.w3.org/1999/xlink" viewBox="0 0 29.0195 26.1372">
 <g>
  
  <path d="M3.49024 20.9915L4.58399 22.8782L14.332 17.9837L24.0801 22.8782L25.1875 20.9915L15.4395 16.0969L15.4395 4.55787L13.2383 4.55787L13.2383 16.0969ZM0.1543 22.9192C-0.228513 23.7942 0.113284 24.3547 1.04297 24.4641L6.70313 25.0794C7.96094 25.2297 8.69922 24.4505 8.0293 23.302L4.65235 17.4505C4.00977 16.3294 2.95703 16.5618 2.46485 17.7102ZM28.5098 22.9192L26.2129 17.7102C25.707 16.5618 24.668 16.3294 24.0254 17.4505L20.6348 23.302C19.9648 24.4505 20.7168 25.2297 21.9609 25.0794L27.6211 24.4641C28.5508 24.3547 28.8926 23.7942 28.5098 22.9192ZM13.4297 0.579357L10.0801 5.15944C9.32813 6.17115 9.64258 7.21022 10.9551 7.21022L17.6953 7.21022C19.0352 7.21022 19.3223 6.18483 18.5703 5.15944L15.207 0.579357C14.6328-0.186268 14.0039-0.19994 13.4297 0.579357Z" style="fill:var(--color-0,hsl(0 0 0/0.85))"></path>
 </g>
</svg>