<?xml version="1.0" encoding="UTF-8"?>
<!--Generator: Apple Native CoreSVG 326-->
<!DOCTYPE svg
PUBLIC "-//W3C//DTD SVG 1.1//EN"
       "http://www.w3.org/Graphics/SVG/1.1/DTD/svg11.dtd">
<svg version="1.1" xmlns="http://www.w3.org/2000/svg" xmlns:xlink="http://www.w3.org/1999/xlink" viewBox="0 0 25.5254 25.1699">
 <g>
  <rect height="25.1699" opacity="0" width="25.5254" x="0" y="0"/>
  <path d="M4.29297 25.1699L20.877 25.1699C23.748 25.1699 25.1699 23.7617 25.1699 20.9453L25.1699 4.23828C25.1699 1.42188 23.748 0 20.877 0L4.29297 0C1.43555 0 0 1.42188 0 4.23828L0 20.9453C0 23.7617 1.43555 25.1699 4.29297 25.1699ZM4.32031 22.9688C2.95312 22.9688 2.20117 22.2441 2.20117 20.8223L2.20117 4.36133C2.20117 2.93945 2.95312 2.20117 4.32031 2.20117L20.8496 2.20117C22.2031 2.20117 22.9688 2.93945 22.9688 4.36133L22.9688 20.8223C22.9688 22.2441 22.2031 22.9688 20.8496 22.9688Z" fill="white" fill-opacity="0.85"/>
  <path d="M7.92969 18.3613C8.24414 18.3613 8.51758 18.2383 8.72266 18.0195L12.5918 14.1367L16.4883 18.0195C16.6934 18.2246 16.9531 18.3613 17.2676 18.3613C17.8828 18.3613 18.3613 17.8691 18.3613 17.2539C18.3613 16.9395 18.252 16.6934 18.0332 16.4746L14.1504 12.5918L18.0469 8.68164C18.2793 8.44922 18.375 8.2168 18.375 7.91602C18.375 7.31445 17.8965 6.82227 17.2812 6.82227C16.9941 6.82227 16.7617 6.93164 16.5293 7.16406L12.5918 11.0605L8.69531 7.17773C8.49023 6.95898 8.24414 6.84961 7.92969 6.84961C7.32812 6.84961 6.83594 7.32812 6.83594 7.92969C6.83594 8.23047 6.95898 8.49023 7.16406 8.69531L11.0469 12.5918L7.16406 16.4883C6.95898 16.6934 6.83594 16.9531 6.83594 17.2539C6.83594 17.8691 7.32812 18.3613 7.92969 18.3613Z" fill="white" fill-opacity="0.85"/>
 </g>
</svg>
