<svg version="1.1" xmlns="http://www.w3.org/2000/svg" xmlns:xlink="http://www.w3.org/1999/xlink" viewBox="0 0 28.2461 27.9043">
 <g>
  
  <path d="M13.9453 27.8906C21.6426 27.8906 27.8906 21.6289 27.8906 13.9453C27.8906 6.24805 21.6426 0 13.9453 0C6.26172 0 0 6.24805 0 13.9453C0 21.6289 6.26172 27.8906 13.9453 27.8906Z" style="fill:var(--color-0,hsl(0 0 0/0.85))"></path>
  <path d="M9.35156 19.6875C8.72266 19.6875 8.23047 19.1816 8.23047 18.5527C8.23047 18.252 8.33984 17.9648 8.55859 17.7598L12.3457 13.959L8.55859 10.1719C8.33984 9.95312 8.23047 9.67969 8.23047 9.37891C8.23047 8.73633 8.72266 8.25781 9.35156 8.25781C9.66602 8.25781 9.91211 8.36719 10.1309 8.57227L13.9453 12.373L17.7871 8.55859C18.0195 8.32617 18.2656 8.23047 18.5664 8.23047C19.1953 8.23047 19.7012 8.72266 19.7012 9.35156C19.7012 9.66602 19.6055 9.91211 19.3594 10.1582L15.5586 13.959L19.3457 17.7461C19.5781 17.9512 19.6875 18.2383 19.6875 18.5527C19.6875 19.1816 19.1816 19.6875 18.5391 19.6875C18.2246 19.6875 17.9375 19.5781 17.7324 19.3594L13.9453 15.5586L10.1719 19.3594C9.95312 19.5781 9.66602 19.6875 9.35156 19.6875Z" style="fill:var(--color-1,white)"></path>
 </g>
</svg>