<svg version="1.1" xmlns="http://www.w3.org/2000/svg" xmlns:xlink="http://www.w3.org/1999/xlink" viewBox="0 0 17.0352 28.0957">
 <g>
  
  <path d="M16.6797 6.84961L16.6797 1.70898C16.6797 0.984375 16.0918 0.519531 15.3945 0.65625L8.36719 2.1875C7.49219 2.37891 7.01367 2.85742 7.01367 3.62305L7.04102 18.8262C7.10938 19.4961 6.79492 19.9336 6.19336 20.0566L4.01953 20.5078C1.28516 21.082 0 22.4766 0 24.541C0 26.6328 1.61328 28.0957 3.88281 28.0957C5.89258 28.0957 8.90039 26.6191 8.90039 22.6406L8.90039 10.1309C8.90039 9.40625 9.03711 9.25586 9.67969 9.11914L15.9277 7.75195C16.3926 7.65625 16.6797 7.30078 16.6797 6.84961Z" style="fill:var(--color-0,hsl(0 0 0/0.85))"></path>
 </g>
</svg>