<svg version="1.1" xmlns="http://www.w3.org/2000/svg" xmlns:xlink="http://www.w3.org/1999/xlink" viewBox="0 0 28.2461 27.9043">
 <g>
  
  <path d="M13.9453 27.8906C21.6426 27.8906 27.8906 21.6426 27.8906 13.9453C27.8906 6.24805 21.6426 0 13.9453 0C6.24805 0 0 6.24805 0 13.9453C0 21.6426 6.24805 27.8906 13.9453 27.8906ZM13.9453 25.5664C7.51953 25.5664 2.32422 20.3711 2.32422 13.9453C2.32422 7.51953 7.51953 2.32422 13.9453 2.32422C20.3711 2.32422 25.5664 7.51953 25.5664 13.9453C25.5664 20.3711 20.3711 25.5664 13.9453 25.5664Z" style="fill:var(--color-0,hsl(0 0 0/0.85))"></path>
  <path d="M14.1367 10.5273L7.62891 17.5273C7.30078 17.8828 7.28711 18.3203 7.56055 18.6621L6.72656 19.7285C6.58984 19.9199 6.60352 20.166 6.78125 20.3301L6.98633 20.5352C7.15039 20.6992 7.38281 20.7266 7.58789 20.5762L8.66797 19.7422C8.99609 20.0156 9.43359 20.002 9.77539 19.6875L13.1797 16.5293L13.1797 20.2207C13.1797 20.6582 13.5215 21.0137 13.9727 21.0137C14.4102 21.0137 14.7656 20.6582 14.7656 20.2207L14.7656 15.0527L16.7617 13.1934C17.6367 13.2891 18.498 12.9336 19.2363 12.168L15.1348 8.06641C14.3828 8.83203 14.041 9.66602 14.1367 10.5273ZM8.66797 18.2109L14.6562 11.8535C14.752 12.0039 14.8613 12.1406 15.0117 12.3047C15.1348 12.4414 15.2852 12.5645 15.4355 12.6602L9.10547 18.6621ZM20.0293 7.27344C18.7852 6.0293 17.1172 6.08398 15.832 7.36914L19.9336 11.4707C21.2324 10.1855 21.2734 8.51758 20.0293 7.27344Z" style="fill:var(--color-1,hsl(0 0 0/0.85))"></path>
 </g>
</svg>