<svg version="1.1" xmlns="http://www.w3.org/2000/svg" xmlns:xlink="http://www.w3.org/1999/xlink" viewBox="0 0 28.2324 28.0957">
 <g>
  
  <path d="M0.929688 17.2266L13.1523 17.2266C13.6719 17.2266 14.082 16.8164 14.082 16.2969C14.082 15.791 13.6582 15.3809 13.1523 15.3809L0.929688 15.3809C0.410156 15.3809 0 15.791 0 16.2969C0 16.8164 0.396484 17.2266 0.929688 17.2266Z" style="fill:var(--color-0,hsl(0 0 0/0.85))"></path>
  <path d="M0.929688 12.3594L13.1523 12.3594C13.6719 12.3594 14.082 11.9355 14.082 11.416C14.082 10.9102 13.6582 10.5137 13.1523 10.5137L0.929688 10.5137C0.410156 10.5137 0 10.9102 0 11.416C0 11.9355 0.396484 12.3594 0.929688 12.3594Z" style="fill:var(--color-1,hsl(0 0 0/0.85))"></path>
  <path d="M0.929688 7.49219L13.1523 7.49219C13.6582 7.49219 14.082 7.06836 14.082 6.5625C14.082 6.05664 13.6582 5.64648 13.1523 5.64648L0.929688 5.64648C0.410156 5.64648 0 6.05664 0 6.5625C0 7.06836 0.410156 7.49219 0.929688 7.49219Z" style="fill:var(--color-2,hsl(0 0 0/0.85))"></path>
  <path d="M27.877 6.84961L27.877 1.70898C27.877 0.984375 27.2891 0.519531 26.5918 0.65625L19.5645 2.1875C18.6895 2.37891 18.2109 2.85742 18.2109 3.62305L18.2383 18.8262C18.3066 19.4961 17.9922 19.9336 17.3906 20.0566L15.2168 20.5078C12.4824 21.082 11.1973 22.4766 11.1973 24.541C11.1973 26.6328 12.8105 28.0957 15.0801 28.0957C17.0898 28.0957 20.0977 26.6191 20.0977 22.6406L20.0977 10.1309C20.0977 9.40625 20.2344 9.25586 20.877 9.11914L27.125 7.75195C27.5898 7.65625 27.877 7.30078 27.877 6.84961Z" style="fill:var(--color-3,hsl(0 0 0/0.85))"></path>
 </g>
</svg>