<?xml version="1.0" encoding="UTF-8"?>
<!--Generator: Apple Native CoreSVG 326-->
<!DOCTYPE svg
PUBLIC "-//W3C//DTD SVG 1.1//EN"
       "http://www.w3.org/Graphics/SVG/1.1/DTD/svg11.dtd">
<svg version="1.1" xmlns="http://www.w3.org/2000/svg" xmlns:xlink="http://www.w3.org/1999/xlink" viewBox="0 0 33.0039 28.7793">
 <g>
  <rect height="28.7793" opacity="0" width="33.0039" x="0" y="0"/>
  <path d="M17.1445 5.46875L28.3828 14.8887L28.3828 25.7441C28.3828 27.6445 27.248 28.752 25.3203 28.752L7.3418 28.752C5.41406 28.752 4.26562 27.6445 4.26562 25.7441L4.26562 14.8887L15.5039 5.46875C16.0098 5.04492 16.625 5.03125 17.1445 5.46875ZM19.7832 11.6621L15.9141 12.6191C15.2578 12.7969 15.1074 12.9336 15.1074 13.7129L15.1074 19.7012C15.1074 20.3027 15.0527 20.4258 14.3828 20.5898L13.166 20.918C11.9492 21.2324 10.9512 21.9434 10.9512 23.2422C10.9512 24.377 11.7988 25.1973 13.1387 25.1973C15.0254 25.1973 16.3105 23.8301 16.3105 21.9023L16.3105 17.3359C16.3105 16.8438 16.4199 16.7207 16.7207 16.6523L19.8379 15.9004C20.4668 15.7363 20.6719 15.5996 20.6719 14.834L20.6719 12.2227C20.6719 11.7168 20.4941 11.498 19.7832 11.6621ZM17.9648 0.65625L25.2246 6.7525L25.2246 4.07422C25.2246 3.47266 25.6211 3.08984 26.209 3.08984L27.6719 3.08984C28.2734 3.08984 28.6562 3.47266 28.6562 4.07422L28.6562 9.63416L32.2109 12.6191C32.5254 12.8652 32.6484 13.1934 32.6484 13.5078C32.6484 14.0684 32.2109 14.6016 31.4727 14.6016C31.0898 14.6016 30.7754 14.3965 30.502 14.1641L16.8027 2.66602C16.6523 2.54297 16.4883 2.47461 16.3242 2.47461C16.1738 2.47461 15.9961 2.54297 15.8457 2.66602L2.16016 14.1641C1.87305 14.3965 1.55859 14.6016 1.17578 14.6016C0.4375 14.6016 0 14.0684 0 13.5078C0 13.1934 0.136719 12.8652 0.4375 12.6191L14.6836 0.65625C15.2031 0.21875 15.7637 0 16.3242 0C16.8848 0 17.4453 0.21875 17.9648 0.65625Z" fill="white" fill-opacity="0.85"/>
 </g>
</svg>
