<svg version="1.1" xmlns="http://www.w3.org/2000/svg" xmlns:xlink="http://www.w3.org/1999/xlink" viewBox="0 0 27.5024 28.8432">
 <g>
  
  <path d="M13.9289 27.7859C14.6262 27.7859 15.1731 27.239 15.1731 26.5554L15.1731 16.4109L19.2609 12.6374C20.8195 12.8425 22.4602 12.1999 23.8957 10.7644L16.3762 3.23119C14.927 4.66674 14.3254 6.28002 14.5441 7.85229L1.8293 21.5378C1.30977 22.0984 1.22774 22.8777 1.87032 23.5203L0.120317 25.7761C-0.0437459 25.9949-0.0574178 26.3093 0.188676 26.5554L0.58516 26.9656C0.817582 27.198 1.13204 27.2117 1.37813 27.0203L3.63399 25.2566C4.24922 25.8992 5.04219 25.8171 5.58907 25.2976L12.6848 18.7351L12.6848 26.5554C12.6848 27.239 13.2316 27.7859 13.9289 27.7859ZM3.2375 22.6589L15.2961 9.86205C15.5285 10.2585 15.802 10.6277 16.1438 10.9968C16.4719 11.3386 16.8547 11.6531 17.2102 11.8718L4.49532 23.9167ZM17.7434 1.85034L25.2766 9.38354C27.6828 7.00463 27.7785 3.9558 25.468 1.65893C23.1711-0.610602 20.1496-0.555915 17.7434 1.85034Z" style="fill:var(--color-0,hsl(0 0 0/0.85))"></path>
 </g>
</svg>