<?xml version="1.0" encoding="UTF-8"?>
<!--Generator: Apple Native CoreSVG 326-->
<!DOCTYPE svg
PUBLIC "-//W3C//DTD SVG 1.1//EN"
       "http://www.w3.org/Graphics/SVG/1.1/DTD/svg11.dtd">
<svg version="1.1" xmlns="http://www.w3.org/2000/svg" xmlns:xlink="http://www.w3.org/1999/xlink" viewBox="0 0 33.0039 28.7793">
 <g>
  <rect height="28.7793" opacity="0" width="33.0039" x="0" y="0"/>
  <path d="M1.17578 14.6016C1.55859 14.6016 1.87305 14.3965 2.16016 14.1641L15.8457 2.66602C15.9961 2.54297 16.1738 2.47461 16.3242 2.47461C16.4883 2.47461 16.6523 2.54297 16.8027 2.66602L30.502 14.1641C30.7754 14.3965 31.0898 14.6016 31.4727 14.6016C32.2109 14.6016 32.6484 14.0684 32.6484 13.5078C32.6484 13.1934 32.5254 12.8652 32.2109 12.6191L17.9648 0.65625C17.4453 0.21875 16.8848 0 16.3242 0C15.7637 0 15.2031 0.21875 14.6836 0.65625L0.4375 12.6191C0.136719 12.8652 0 13.1934 0 13.5078C0 14.0684 0.4375 14.6016 1.17578 14.6016ZM25.2246 7.3418L28.6562 10.2402L28.6562 4.07422C28.6562 3.47266 28.2734 3.08984 27.6719 3.08984L26.209 3.08984C25.6211 3.08984 25.2246 3.47266 25.2246 4.07422ZM7.08203 28.752L25.5801 28.752C27.5215 28.752 28.6562 27.6445 28.6562 25.7305L28.6562 10.582L26.4551 9.0918L26.4551 25.1836C26.4551 26.0723 25.9766 26.5508 25.1152 26.5508L7.54688 26.5508C6.67188 26.5508 6.19336 26.0723 6.19336 25.1836L6.19336 9.10547L3.99219 10.582L3.99219 25.7305C3.99219 27.6582 5.12695 28.752 7.08203 28.752Z" fill="white" fill-opacity="0.85"/>
  <path d="M20.1934 14.3965C20.8633 14.2461 21.0547 14.0957 21.0547 13.2891L21.0547 10.582C21.0547 10.0488 20.877 9.81641 20.1387 10.0078L16.1055 11.0059C15.4219 11.1699 15.2852 11.3066 15.2852 12.127L15.2852 18.3477C15.2852 18.9629 15.2305 19.0859 14.5195 19.2773L13.2617 19.6055C12.0039 19.9336 10.9512 20.6719 10.9512 22.0254C10.9512 23.2012 11.8262 24.0488 13.2207 24.0488C15.1895 24.0488 16.5293 22.6406 16.5293 20.6445L16.5293 15.8867C16.5293 15.3809 16.6387 15.2441 16.9531 15.1758Z" fill="white" fill-opacity="0.85"/>
 </g>
</svg>
