<?xml version="1.0" encoding="UTF-8"?>
<!--Generator: Apple Native CoreSVG 326-->
<!DOCTYPE svg
PUBLIC "-//W3C//DTD SVG 1.1//EN"
       "http://www.w3.org/Graphics/SVG/1.1/DTD/svg11.dtd">
<svg version="1.1" xmlns="http://www.w3.org/2000/svg" xmlns:xlink="http://www.w3.org/1999/xlink" viewBox="0 0 39.1973 14.5879">
 <g>
  <rect height="14.5879" opacity="0" width="39.1973" x="0" y="0"/>
  <path d="M0 6.79492C0 11.2383 4.58008 14.5879 10.1992 14.5879C14.2324 14.5879 17.5 13.1797 19.4141 10.5684C21.3418 13.1797 24.5957 14.5879 28.6289 14.5879C34.2617 14.5879 38.8418 11.2383 38.8418 6.79492C38.8418 5.26367 38.3906 4.30664 37.4746 4.30664C37.1602 4.30664 36.8184 4.49805 36.5996 4.82617C35.8887 5.85156 34.6992 6.41211 33.2227 6.41211C29.1074 6.41211 27.9316 1.4082 22.9961 1.4082C20.5215 1.4082 18.7852 2.83008 18.4297 5.1543L20.3984 5.1543C20.043 2.83008 18.3203 1.4082 15.832 1.4082C10.9102 1.4082 9.73438 6.41211 5.61914 6.41211C4.23828 6.41211 3.04883 5.86523 2.21484 4.8125C1.96875 4.49805 1.66797 4.30664 1.35352 4.30664C0.4375 4.30664 0 5.26367 0 6.79492Z" fill="white" fill-opacity="0.85"/>
 </g>
</svg>
