<?xml version="1.0" encoding="UTF-8"?>
<!--Generator: Apple Native CoreSVG 326-->
<!DOCTYPE svg
PUBLIC "-//W3C//DTD SVG 1.1//EN"
       "http://www.w3.org/Graphics/SVG/1.1/DTD/svg11.dtd">
<svg version="1.1" xmlns="http://www.w3.org/2000/svg" xmlns:xlink="http://www.w3.org/1999/xlink" viewBox="0 0 25.5254 25.1699">
 <g>
  <rect height="25.1699" opacity="0" width="25.5254" x="0" y="0"/>
  <path d="M4.29297 25.1699L20.877 25.1699C23.748 25.1699 25.1699 23.7617 25.1699 20.9453L25.1699 4.23828C25.1699 1.42188 23.748 0 20.877 0L4.29297 0C1.43555 0 0 1.42188 0 4.23828L0 20.9453C0 23.7617 1.43555 25.1699 4.29297 25.1699ZM4.32031 22.9688C2.95312 22.9688 2.20117 22.2441 2.20117 20.8223L2.20117 4.36133C2.20117 2.93945 2.95312 2.20117 4.32031 2.20117L20.8496 2.20117C22.2031 2.20117 22.9688 2.93945 22.9688 4.36133L22.9688 20.8223C22.9688 22.2441 22.2031 22.9688 20.8496 22.9688Z" fill="white" fill-opacity="0.85"/>
  <path d="M8.46289 18.8398C9.11914 18.8398 9.50195 18.4434 9.50195 17.7461L9.50195 9.78906L9.58398 9.78906L15.5449 18.1836C15.9141 18.6895 16.1875 18.8398 16.6387 18.8398C17.3086 18.8398 17.7188 18.4297 17.7188 17.7051L17.7188 7.15039C17.7188 6.4668 17.3359 6.05664 16.6797 6.05664C16.0508 6.05664 15.668 6.49414 15.668 7.15039L15.668 15.2578L15.5859 15.2578L9.625 6.71289C9.26953 6.2207 8.96875 6.05664 8.51758 6.05664C7.84766 6.05664 7.46484 6.50781 7.46484 7.20508L7.46484 17.7461C7.46484 18.416 7.83398 18.8398 8.46289 18.8398Z" fill="white" fill-opacity="0.85"/>
 </g>
</svg>
