<?xml version="1.0" encoding="UTF-8"?>
<!--Generator: Apple Native CoreSVG 326-->
<!DOCTYPE svg
PUBLIC "-//W3C//DTD SVG 1.1//EN"
       "http://www.w3.org/Graphics/SVG/1.1/DTD/svg11.dtd">
<svg version="1.1" xmlns="http://www.w3.org/2000/svg" xmlns:xlink="http://www.w3.org/1999/xlink" viewBox="0 0 25.5254 25.1699">
 <g>
  <rect height="25.1699" opacity="0" width="25.5254" x="0" y="0"/>
  <path d="M4.29297 25.1699L20.877 25.1699C23.748 25.1699 25.1699 23.7617 25.1699 20.9453L25.1699 4.23828C25.1699 1.42188 23.748 0 20.877 0L4.29297 0C1.43555 0 0 1.42188 0 4.23828L0 20.9453C0 23.7617 1.43555 25.1699 4.29297 25.1699Z" fill="white" fill-opacity="0.85"/>
  <path d="M8.33984 19.0449C7.68359 19.0449 7.30078 18.6074 7.30078 17.9102L7.30078 7.04102C7.30078 6.31641 7.69727 5.85156 8.39453 5.85156C8.85938 5.85156 9.17383 6.0293 9.5293 6.53516L15.668 15.3262L15.7637 15.3262L15.7637 6.98633C15.7637 6.30273 16.1602 5.85156 16.8027 5.85156C17.4863 5.85156 17.8828 6.27539 17.8828 6.98633L17.8828 17.8691C17.8828 18.6211 17.459 19.0449 16.7617 19.0449C16.2969 19.0449 16.0098 18.8809 15.6406 18.3613L9.50195 9.7207L9.40625 9.7207L9.40625 17.9102C9.40625 18.6348 9.00977 19.0449 8.33984 19.0449Z" fill="white"/>
 </g>
</svg>
