<svg version="1.1" xmlns="http://www.w3.org/2000/svg" xmlns:xlink="http://www.w3.org/1999/xlink" viewBox="0 0 28.2461 27.9043">
 <g>
  
  <path d="M13.9453 27.8906C21.6426 27.8906 27.8906 21.6289 27.8906 13.9453C27.8906 6.24805 21.6426 0 13.9453 0C6.26172 0 0 6.24805 0 13.9453C0 21.6289 6.26172 27.8906 13.9453 27.8906Z" style="fill:var(--color-0,hsl(0 0 0/0.85))"></path>
  <path d="M9.69336 20.4121C9.03711 20.4121 8.6543 19.9746 8.6543 19.2773L8.6543 8.4082C8.6543 7.68359 9.05078 7.21875 9.74805 7.21875C10.2129 7.21875 10.5273 7.39648 10.8828 7.90234L17.0078 16.6934L17.1172 16.6934L17.1172 8.35352C17.1172 7.66992 17.5 7.21875 18.1562 7.21875C18.8398 7.21875 19.2363 7.64258 19.2363 8.35352L19.2363 19.2363C19.2363 19.9883 18.8125 20.4121 18.1152 20.4121C17.6504 20.4121 17.3633 20.248 16.9941 19.7285L10.8555 11.0879L10.7598 11.0879L10.7598 19.2773C10.7598 20.002 10.3633 20.4121 9.69336 20.4121Z" style="fill:var(--color-1,white)"></path>
 </g>
</svg>