<svg version="1.1" xmlns="http://www.w3.org/2000/svg" xmlns:xlink="http://www.w3.org/1999/xlink" viewBox="0 0 28.2461 27.9043">
 <g>
  
  <path d="M13.9453 27.8906C21.6426 27.8906 27.8906 21.6426 27.8906 13.9453C27.8906 6.24805 21.6426 0 13.9453 0C6.24805 0 0 6.24805 0 13.9453C0 21.6426 6.24805 27.8906 13.9453 27.8906ZM13.9453 25.5664C7.51953 25.5664 2.32422 20.3711 2.32422 13.9453C2.32422 7.51953 7.51953 2.32422 13.9453 2.32422C20.3711 2.32422 25.5664 7.51953 25.5664 13.9453C25.5664 20.3711 20.3711 25.5664 13.9453 25.5664Z" style="fill:var(--color-0,hsl(0 0 0/0.85))"></path>
  <path d="M9.80273 20.207C10.459 20.207 10.8418 19.8105 10.8418 19.1133L10.8418 11.1562L10.9238 11.1562L16.8848 19.5508C17.2539 20.0566 17.5273 20.207 17.9785 20.207C18.6484 20.207 19.0586 19.7969 19.0586 19.0723L19.0586 8.51758C19.0586 7.83398 18.6758 7.42383 18.0195 7.42383C17.377 7.42383 17.0078 7.86133 17.0078 8.51758L17.0078 16.625L16.9121 16.625L10.9648 8.08008C10.6094 7.58789 10.3086 7.42383 9.85742 7.42383C9.1875 7.42383 8.80469 7.875 8.80469 8.57227L8.80469 19.1133C8.80469 19.7832 9.17383 20.207 9.80273 20.207Z" style="fill:var(--color-1,hsl(0 0 0/0.85))"></path>
 </g>
</svg>