<svg version="1.1" xmlns="http://www.w3.org/2000/svg" xmlns:xlink="http://www.w3.org/1999/xlink" viewBox="0 0 33.291 27.4395">
 <g>
  
  <path d="M32.9355 16.4609C32.9355 12.4414 31.4863 8.73633 29.0664 5.86523C28.793 5.53711 28.3281 5.53711 28.0273 5.85156L24.8555 9.02344C24.5957 9.2832 24.582 9.65234 24.8145 9.93945C26.2227 11.7441 27.0703 14.0137 27.0703 16.4609C27.0703 18.9219 26.2227 21.1914 24.7324 23.0918C24.541 23.3242 24.5547 23.625 24.7598 23.8438L28.0137 27.0977C28.3281 27.4121 28.7793 27.4121 29.0664 27.0703C31.4863 24.1992 32.9355 20.4941 32.9355 16.4609Z" style="fill:var(--color-0,hsl(0 0 0/0.85))"></path>
  <path d="M16.4609 5.86523C18.9355 5.86523 21.2051 6.72656 23.0234 8.13477C23.2969 8.35352 23.6523 8.32617 23.9121 8.06641L27.084 4.89453C27.3984 4.58008 27.3848 4.12891 27.0566 3.85547C24.1992 1.44922 20.4941 0 16.4609 0C12.4414 0 8.73633 1.44922 5.87891 3.85547C5.55078 4.12891 5.53711 4.58008 5.85156 4.89453L9.02344 8.06641C9.2832 8.32617 9.65234 8.35352 9.95312 8.12109C11.7578 6.72656 14.0137 5.86523 16.4609 5.86523Z" style="fill:var(--color-1,hsl(0 0 0/0.85))"></path>
  <path d="M0 16.4609C0 20.4941 1.44922 24.1992 3.86914 27.0703C4.14258 27.4121 4.60742 27.4121 4.9082 27.0977L8.16211 23.8438C8.36719 23.625 8.39453 23.3242 8.20312 23.0918C6.71289 21.1914 5.86523 18.9219 5.86523 16.4609C5.86523 14.0137 6.69922 11.7441 8.12109 9.93945C8.33984 9.65234 8.33984 9.2832 8.08008 9.02344L4.9082 5.85156C4.59375 5.53711 4.14258 5.53711 3.86914 5.86523C1.44922 8.73633 0 12.4414 0 16.4609Z" style="fill:var(--color-2,hsl(0 0 0/0.85))"></path>
  <path d="M12.9336 22.9414C13.3984 22.9414 13.7129 22.6133 13.7129 22.1484L13.7129 13.125L13.7949 13.125L18.2793 22.1621C18.5117 22.6406 18.8945 22.9414 19.4277 22.9414C20.1797 22.9414 20.4805 22.4219 20.4805 21.916L20.4805 11.1289C20.4805 10.6367 20.1797 10.3359 19.7012 10.3359C19.2363 10.3359 18.9492 10.6367 18.9492 11.1289L18.9492 20.1797L18.8535 20.1797L14.3691 11.1289C14.1504 10.6367 13.7539 10.3359 13.2207 10.3359C12.5918 10.3359 12.168 10.7598 12.168 11.3613L12.168 22.1484C12.168 22.6133 12.4824 22.9414 12.9336 22.9414ZM10.9922 16.6523C10.9922 16.9121 11.1973 17.1172 11.457 17.1172L21.2051 17.1172C21.4648 17.1172 21.6699 16.9121 21.6699 16.6523C21.6699 16.3926 21.4648 16.1875 21.2051 16.1875L11.457 16.1875C11.1973 16.1875 10.9922 16.3926 10.9922 16.6523Z" style="fill:var(--color-3,hsl(0 0 0/0.85))"></path>
 </g>
</svg>