<svg version="1.1" xmlns="http://www.w3.org/2000/svg" xmlns:xlink="http://www.w3.org/1999/xlink" viewBox="0 0 21.2734 25.252">
 <g>
  
  <path d="M3.63672 25.2246C4.4707 25.2246 4.99023 24.6777 4.99023 23.8301L4.99023 4.9082L5.14062 4.9082L14.8066 23.8711C15.1758 24.623 15.791 25.2246 16.8027 25.2246C17.9375 25.2246 18.6348 24.5 18.6348 23.4473L18.6348 1.36719C18.6348 0.519531 18.1152 0 17.2949 0C16.4609 0 15.9551 0.519531 15.9551 1.36719L15.9551 20.3438L15.8047 20.3438L6.13867 1.36719C5.70117 0.492188 5.09961 0 4.11523 0C3.0625 0 2.31055 0.683594 2.31055 1.77734L2.31055 23.8301C2.31055 24.6777 2.81641 25.2246 3.63672 25.2246ZM0 12.6465C0 13.1387 0.396484 13.5352 0.888672 13.5352L20.0293 13.5352C20.5215 13.5352 20.918 13.1387 20.918 12.6465C20.918 12.1543 20.5215 11.7578 20.0293 11.7578L0.888672 11.7578C0.396484 11.7578 0 12.1543 0 12.6465Z" style="fill:var(--color-0,hsl(0 0 0/0.85))"></path>
 </g>
</svg>