<?xml version="1.0" encoding="UTF-8"?>
<!--Generator: Apple Native CoreSVG 326-->
<!DOCTYPE svg
PUBLIC "-//W3C//DTD SVG 1.1//EN"
       "http://www.w3.org/Graphics/SVG/1.1/DTD/svg11.dtd">
<svg version="1.1" xmlns="http://www.w3.org/2000/svg" xmlns:xlink="http://www.w3.org/1999/xlink" viewBox="0 0 33.5408 27.9043">
 <g>
  <rect height="27.9043" opacity="0" width="33.5408" x="0" y="0"/>
  <path d="M16.5995 27.8906C24.2968 27.8906 30.5448 21.6426 30.5448 13.9453C30.5448 6.24805 24.2968 0 16.5995 0C8.90224 0 2.65419 6.24805 2.65419 13.9453L4.97841 13.9453C4.97841 7.51953 10.1737 2.32422 16.5995 2.32422C23.0253 2.32422 28.2206 7.51953 28.2206 13.9453C28.2206 20.3711 23.0253 25.5664 16.5995 25.5664C12.7167 25.5664 9.2577 23.6523 7.19325 20.7539C6.76942 20.1934 6.12684 20.0156 5.55263 20.3574C5.00575 20.6992 4.84169 21.4648 5.30653 22.0664C7.83583 25.6074 11.9784 27.8906 16.5995 27.8906ZM0.972548 11.3066C-0.0118272 11.3066-0.257921 11.9766 0.275282 12.7422L3.33778 17.0898C3.78895 17.7188 4.4452 17.7051 4.8827 17.0898L7.93153 12.7285C8.46474 11.9766 8.20497 11.3066 7.24794 11.3066Z" fill="white" fill-opacity="0.85"/>
  <path d="M13.0858 20.248C13.537 20.248 13.8651 19.9199 13.8651 19.4414L13.8651 10.4316L13.9472 10.4316L18.4179 19.4551C18.664 19.9473 19.0331 20.248 19.58 20.248C20.3319 20.248 20.6327 19.7285 20.6327 19.2227L20.6327 8.42188C20.6327 7.94336 20.3319 7.62891 19.8534 7.62891C19.3886 7.62891 19.0878 7.94336 19.0878 8.42188L19.0878 17.4727L19.0058 17.4727L14.5214 8.43555C14.289 7.92969 13.9061 7.62891 13.3593 7.62891C12.744 7.62891 12.3065 8.05273 12.3065 8.6543L12.3065 19.4414C12.3065 19.9199 12.6347 20.248 13.0858 20.248ZM11.1444 13.959C11.1444 14.2188 11.3495 14.4238 11.6093 14.4238L21.3436 14.4238C21.6034 14.4238 21.8085 14.2188 21.8085 13.959C21.8085 13.6992 21.6034 13.4941 21.3436 13.4941L11.6093 13.4941C11.3495 13.4941 11.1444 13.6992 11.1444 13.959Z" fill="white" fill-opacity="0.85"/>
 </g>
</svg>
