<svg version="1.1" xmlns="http://www.w3.org/2000/svg" xmlns:xlink="http://www.w3.org/1999/xlink" viewBox="0 0 28.2461 27.9043">
 <g>
  
  <path d="M13.9453 27.8906C21.6426 27.8906 27.8906 21.6289 27.8906 13.9453C27.8906 6.24805 21.6426 0 13.9453 0C6.26172 0 0 6.24805 0 13.9453C0 21.6289 6.26172 27.8906 13.9453 27.8906Z" style="fill:var(--color-0,hsl(0 0 0/0.85))"></path>
  <path d="M10.3223 20.4531C9.85742 20.4531 9.51562 20.1113 9.51562 19.6191L9.51562 14.4375L8.80469 14.4375C8.53125 14.4375 8.3125 14.2324 8.3125 13.959C8.3125 13.6855 8.53125 13.4805 8.80469 13.4805L9.51562 13.4805L9.51562 8.49023C9.51562 7.86133 9.95312 7.42383 10.6094 7.42383C11.1836 7.42383 11.5801 7.75195 11.8125 8.25781L14.3965 13.4805L16.5156 13.4805L16.5156 8.24414C16.5156 7.75195 16.8301 7.42383 17.3086 7.42383C17.8008 7.42383 18.1152 7.75195 18.1152 8.24414L18.1152 13.4805L18.8398 13.4805C19.1133 13.4805 19.332 13.6855 19.332 13.959C19.332 14.2324 19.1133 14.4375 18.8398 14.4375L18.1152 14.4375L18.1152 19.3867C18.1152 19.9062 17.8008 20.4531 17.0215 20.4531C16.4473 20.4531 16.0781 20.125 15.8184 19.6328L13.2617 14.4375L11.1289 14.4375L11.1289 19.6191C11.1289 20.1113 10.7871 20.4531 10.3223 20.4531ZM11.1289 13.4805L12.7832 13.4805L11.2109 10.3359L11.1289 10.3359ZM14.8613 14.4375L16.4336 17.582L16.5156 17.582L16.5156 14.4375Z" style="fill:var(--color-1,white)"></path>
 </g>
</svg>