<svg version="1.1" xmlns="http://www.w3.org/2000/svg" xmlns:xlink="http://www.w3.org/1999/xlink" viewBox="0 0 30.7412 30.3997">
 <g>
  
  <path d="M4.98393 8.74613C3.79158 10.6069 3.10693 12.8204 3.10693 15.193C3.10693 15.3633 3.11046 15.5329 3.13244 15.6976C4.51126 16.8847 6.01828 17.8569 7.60854 18.6117C7.63502 16.4641 7.9701 14.3588 8.58547 12.3496L9.91587 13.6808C9.43815 15.5008 9.20785 17.3977 9.25197 19.3273C10.929 19.9865 12.6775 20.4165 14.4492 20.6225C14.1866 19.6578 14.0009 18.6697 13.8965 17.6636L15.9185 19.6867C15.9966 20.0483 16.089 20.406 16.2054 20.7562L16.9856 20.7543L18.5758 22.3454C17.9683 22.4042 17.3588 22.4234 16.7499 22.4035C17.301 23.9052 18.0345 25.3391 18.939 26.6792C19.8997 26.373 20.805 25.9441 21.6341 25.4054L22.9851 26.7571C20.7599 28.2604 18.0782 29.1383 15.1929 29.1383C7.49561 29.1383 1.24756 22.8903 1.24756 15.193C1.24756 12.3049 2.12716 9.6209 3.63304 7.3945ZM10.4437 26.3066C11.9009 26.9332 13.5067 27.2789 15.1929 27.2789C15.8932 27.2789 16.5796 27.2193 17.2431 27.092C16.2804 25.5933 15.5151 23.9935 14.9578 22.3204C13.0413 22.1705 11.1451 21.768 9.3189 21.129C9.44178 22.9056 9.8187 24.6391 10.4437 26.3066ZM8.31947 25.1263C7.91061 23.599 7.68262 22.0408 7.64254 20.4671C6.18399 19.8342 4.78438 19.04 3.47114 18.0886C4.17237 20.9916 5.93302 23.4787 8.31947 25.1263ZM29.1382 15.193C29.1382 18.0881 28.2543 20.7781 26.741 23.0072L23.4596 19.7239C24.6294 19.3612 25.7708 18.8766 26.8681 18.2693C27.1409 17.2909 27.2788 16.258 27.2788 15.193C27.2788 14.0165 27.1105 12.8791 26.7884 11.807C24.8722 13.1876 22.6988 14.1455 20.3926 14.6335C20.9793 16.3449 21.8304 17.9015 22.9373 19.2014L18.7875 15.0493L18.7436 14.9125L18.6613 14.9231L17.1195 13.3805C17.5136 13.3809 17.9033 13.3541 18.2883 13.3048C17.9476 11.8554 17.7669 10.3374 17.7495 8.79457C17.7388 7.1537 17.9468 5.55489 18.3903 4.0189C16.9327 6.40696 15.9868 9.06158 15.5901 11.8502L14.1688 10.4281C14.6639 7.89352 15.5941 5.46569 16.921 3.24479C16.7379 3.20353 16.5488 3.18086 16.3575 3.16593C14.6531 4.67576 13.2231 6.43355 12.1047 8.36288L10.9078 7.16534C11.7701 5.72835 12.8002 4.38647 13.984 3.16817C12.0644 3.35779 10.2769 3.99819 8.73464 4.99097L7.38476 3.64035C9.61277 2.12991 12.3005 1.24769 15.1929 1.24769C22.8901 1.24769 29.1382 7.49574 29.1382 15.193ZM24.8267 21.001C25.043 21.1701 25.2687 21.3276 25.5016 21.4756C25.7007 21.1768 25.8748 20.8611 26.023 20.5303C25.63 20.7064 25.2318 20.8665 24.8267 21.001ZM19.4038 8.78089C19.4216 10.2436 19.5968 11.6783 19.9285 13.0401C22.1997 12.5725 24.3307 11.6018 26.18 10.1816C24.9636 7.4929 22.7838 5.33603 20.0806 4.14622C19.6142 5.62956 19.3925 7.20057 19.4038 8.78089Z" style="fill:var(--color-0,#007aff)"></path>
  <path d="M26.9917 28.4957C27.4019 28.9059 28.0854 28.8922 28.4819 28.4821C28.8921 28.0719 28.8921 27.402 28.4819 26.9918L3.40771 1.91761C2.99756 1.50746 2.31396 1.49379 1.90381 1.91761C1.49365 2.3141 1.49365 2.99769 1.90381 3.40785Z" style="fill:var(--color-1,#007aff)"></path>
 </g>
</svg>