<?xml version="1.0" encoding="UTF-8"?>
<!--Generator: Apple Native CoreSVG 326-->
<!DOCTYPE svg
PUBLIC "-//W3C//DTD SVG 1.1//EN"
       "http://www.w3.org/Graphics/SVG/1.1/DTD/svg11.dtd">
<svg version="1.1" xmlns="http://www.w3.org/2000/svg" xmlns:xlink="http://www.w3.org/1999/xlink" viewBox="0 0 30.9258 30.584">
 <g>
  <rect height="30.584" opacity="0" width="30.9258" x="0" y="0"/>
  <path d="M15.2852 30.5703C23.6797 30.5703 30.5703 23.6797 30.5703 15.2852C30.5703 6.89062 23.6797 0 15.2852 0C6.89062 0 0 6.89062 0 15.2852C0 23.6797 6.89062 30.5703 15.2852 30.5703ZM15.2852 25.4844C9.65234 25.4844 5.08594 20.918 5.08594 15.2852C5.08594 9.63867 9.65234 5.08594 15.2852 5.08594C20.9316 5.08594 25.4844 9.63867 25.4844 15.2852C25.4844 20.918 20.9316 25.4844 15.2852 25.4844Z" fill="white" fill-opacity="0.85"/>
  <path d="M10.7598 20.8906C11.1973 20.8906 11.498 20.5625 11.498 20.0977L11.498 17.7871L12.3047 17.0078L14.8066 20.5078C14.9707 20.7402 15.1895 20.8906 15.4766 20.8906C15.873 20.8906 16.2012 20.6035 16.2012 20.2207C16.2012 20.0293 16.1055 19.8516 15.9824 19.6875L13.3711 16.0781L15.8047 13.5078C15.9824 13.3164 16.0781 13.207 16.0781 12.9609C16.0781 12.6191 15.791 12.3184 15.4082 12.3184C15.2031 12.3184 14.957 12.4414 14.8203 12.6055L11.5391 16.1875L11.498 16.1875L11.498 9.88477C11.498 9.41992 11.1973 9.07812 10.7598 9.07812C10.3086 9.07812 9.99414 9.40625 9.99414 9.87109L9.99414 20.0977C9.99414 20.5625 10.3086 20.8906 10.7598 20.8906ZM18.457 20.8906C18.7988 20.8906 19.1816 20.6855 19.1816 20.0977L19.1816 15.8047C19.1816 14.834 19.5508 13.7539 20.7266 13.7539C21 13.7539 21.2734 13.7266 21.4785 13.6035C21.6562 13.5078 21.7656 13.3301 21.7656 13.084C21.7656 12.5918 21.3828 12.3184 20.877 12.3184C20.002 12.3184 19.4004 13.0703 19.1953 13.959L19.1133 13.959L19.1133 13.0703C19.1133 12.6465 18.8125 12.3184 18.4297 12.3184C18.0332 12.3184 17.7324 12.6465 17.7324 13.0703L17.7324 20.0977C17.7324 20.5762 17.9922 20.8906 18.457 20.8906Z" fill="white" fill-opacity="0.85"/>
 </g>
</svg>
