<?xml version="1.0" encoding="UTF-8"?>
<!--Generator: Apple Native CoreSVG 326-->
<!DOCTYPE svg
PUBLIC "-//W3C//DTD SVG 1.1//EN"
       "http://www.w3.org/Graphics/SVG/1.1/DTD/svg11.dtd">
<svg version="1.1" xmlns="http://www.w3.org/2000/svg" xmlns:xlink="http://www.w3.org/1999/xlink" viewBox="0 0 25.5664 25.2246">
 <g>
  <rect height="25.2246" opacity="0" width="25.5664" x="0" y="0"/>
  <path d="M23.6113 1.61328C22.2168 0.21875 20.248 0 17.9102 0L7.25977 0C4.96289 0 2.99414 0.21875 1.59961 1.61328C0.205078 3.00781 0 4.96289 0 7.25977L0 17.9102C0 20.248 0.205078 22.2031 1.59961 23.5977C2.99414 24.9922 4.96289 25.2109 7.28711 25.2109L17.9102 25.2109C20.248 25.2109 22.2168 24.9922 23.6113 23.5977C25.0059 22.2031 25.2109 20.248 25.2109 17.9102L25.2109 7.28711C25.2109 4.94922 25.0059 3.00781 23.6113 1.61328Z" fill="white" fill-opacity="0.85"/>
  <path d="M12.5781 20.166C8.4082 20.166 5.03125 16.7754 5.03125 12.6055C5.03125 8.43555 8.4082 5.04492 12.5781 5.04492C16.7617 5.04492 20.1387 8.43555 20.1387 12.6055C20.1387 16.7754 16.7617 20.166 12.5781 20.166ZM7.10938 12.6055C7.10938 15.6406 9.55664 18.1016 12.5918 18.1016C13.7266 18.1016 14.7656 17.7598 15.627 17.1582L8.03906 9.57031C7.45117 10.4316 7.10938 11.4707 7.10938 12.6055ZM9.54297 8.05273L17.1445 15.6543C17.7461 14.793 18.1016 13.7402 18.1016 12.6055C18.1016 9.57031 15.6406 7.10938 12.5918 7.10938C11.4707 7.10938 10.4043 7.45117 9.54297 8.05273Z" fill="white"/>
 </g>
</svg>
