<?xml version="1.0" encoding="UTF-8"?>
<!--Generator: Apple Native CoreSVG 326-->
<!DOCTYPE svg
PUBLIC "-//W3C//DTD SVG 1.1//EN"
       "http://www.w3.org/Graphics/SVG/1.1/DTD/svg11.dtd">
<svg version="1.1" xmlns="http://www.w3.org/2000/svg" xmlns:xlink="http://www.w3.org/1999/xlink" viewBox="0 0 28.2461 27.9043">
 <g>
  <rect height="27.9043" opacity="0" width="28.2461" x="0" y="0"/>
  <path d="M13.9453 27.8906C21.6426 27.8906 27.8906 21.6426 27.8906 13.9453C27.8906 6.24805 21.6426 0 13.9453 0C6.24805 0 0 6.24805 0 13.9453C0 21.6426 6.24805 27.8906 13.9453 27.8906ZM13.9453 25.5664C7.51953 25.5664 2.32422 20.3711 2.32422 13.9453C2.32422 7.51953 7.51953 2.32422 13.9453 2.32422C20.3711 2.32422 25.5664 7.51953 25.5664 13.9453C25.5664 20.3711 20.3711 25.5664 13.9453 25.5664Z" fill="white" fill-opacity="0.85"/>
  <path d="M8.77734 17.5273L19.0723 17.5273C19.7695 17.5273 20.2617 17.1855 20.2617 16.502C20.2617 15.8047 19.7969 15.4492 19.0723 15.4492L8.77734 15.4492C8.05273 15.4492 7.58789 15.8047 7.58789 16.502C7.58789 17.1855 8.08008 17.5273 8.77734 17.5273ZM8.77734 12.4824L19.0723 12.4824C19.7695 12.4824 20.2617 12.1406 20.2617 11.4434C20.2617 10.7461 19.7969 10.3906 19.0723 10.3906L8.77734 10.3906C8.05273 10.3906 7.58789 10.7461 7.58789 11.4434C7.58789 12.1406 8.08008 12.4824 8.77734 12.4824ZM9.35156 20.2344C9.89844 20.6445 10.4863 20.4531 10.8965 19.8926L18.6348 9.31055C19.0586 8.73633 19.0723 8.14844 18.5117 7.73828C17.9512 7.32812 17.3906 7.47852 16.9668 8.06641L9.20117 18.6484C8.77734 19.2363 8.79102 19.8242 9.35156 20.2344Z" fill="white" fill-opacity="0.85"/>
 </g>
</svg>
