<svg version="1.1" xmlns="http://www.w3.org/2000/svg" xmlns:xlink="http://www.w3.org/1999/xlink" viewBox="0 0 19.3867 19.5906">
 <g>
  
  <path d="M2.50195 19.3041C3.10352 19.7279 3.86914 19.6049 4.30664 18.9896L16.8027 1.96816C17.2129 1.42128 17.1172 0.683001 16.5156 0.272845C15.9004-0.150983 15.2441-0.109967 14.7246 0.60097L2.32422 17.4994C1.87305 18.1283 1.8457 18.8666 2.50195 19.3041ZM1.2168 6.7123L17.8145 6.7123C18.4707 6.7123 19.0312 6.15175 19.0312 5.48183C19.0312 4.81191 18.4707 4.26503 17.8145 4.26503L1.2168 4.26503C0.560547 4.26503 0 4.81191 0 5.48183C0 6.15175 0.560547 6.7123 1.2168 6.7123ZM1.2168 15.3529L17.8145 15.3529C18.4707 15.3529 19.0312 14.806 19.0312 14.1361C19.0312 13.4662 18.4707 12.9057 17.8145 12.9057L1.2168 12.9057C0.560547 12.9057 0 13.4662 0 14.1361C0 14.806 0.560547 15.3529 1.2168 15.3529Z" style="fill:var(--color-0,hsl(0 0 0/0.85))"></path>
 </g>
</svg>