<svg version="1.1" xmlns="http://www.w3.org/2000/svg" xmlns:xlink="http://www.w3.org/1999/xlink" viewBox="0 0 25.5254 25.1699">
 <g>
  
  <path d="M4.29297 25.1699L20.877 25.1699C23.748 25.1699 25.1699 23.7617 25.1699 20.9453L25.1699 4.23828C25.1699 1.42188 23.748 0 20.877 0L4.29297 0C1.43555 0 0 1.42188 0 4.23828L0 20.9453C0 23.7617 1.43555 25.1699 4.29297 25.1699ZM4.32031 22.9688C2.95312 22.9688 2.20117 22.2441 2.20117 20.8223L2.20117 4.36133C2.20117 2.93945 2.95312 2.20117 4.32031 2.20117L20.8496 2.20117C22.2031 2.20117 22.9688 2.93945 22.9688 4.36133L22.9688 20.8223C22.9688 22.2441 22.2031 22.9688 20.8496 22.9688Z" style="fill:var(--color-0,hsl(0 0 0/0.85))"></path>
  <path d="M9.07812 19.25C9.61133 19.25 9.93945 18.9766 10.0488 18.4707L10.6641 15.5312L13.207 15.5312L12.6465 18.2109C12.5234 18.7715 12.9199 19.25 13.4805 19.25C14.0273 19.25 14.3828 18.9766 14.4922 18.4707L15.1074 15.5176L16.5293 15.5176C17.0625 15.5176 17.4453 15.1211 17.4453 14.6016C17.4453 14.1367 17.1172 13.7949 16.666 13.7949L15.4766 13.7949L16.0645 11.0195L17.5 11.0195C18.0332 11.0195 18.416 10.623 18.416 10.1035C18.416 9.63867 18.0879 9.29688 17.6367 9.29688L16.4199 9.29688L16.9531 6.74023C17.0625 6.17969 16.6523 5.70117 16.0918 5.70117C15.5586 5.70117 15.2168 5.97461 15.1074 6.49414L14.5195 9.29688L11.9766 9.29688L12.4961 6.74023C12.6191 6.19336 12.2227 5.70117 11.6621 5.70117C11.1152 5.70117 10.7734 5.97461 10.6641 6.49414L10.0898 9.29688L8.64062 9.29688C8.12109 9.29688 7.72461 9.69336 7.72461 10.2129C7.72461 10.6777 8.05273 11.0195 8.51758 11.0195L9.70703 11.0195L9.13281 13.7949L7.66992 13.7949C7.13672 13.7949 6.75391 14.1914 6.75391 14.7109C6.75391 15.1758 7.08203 15.5176 7.5332 15.5176L8.77734 15.5176L8.2168 18.2109C8.10742 18.7715 8.51758 19.25 9.07812 19.25ZM10.9102 13.959L11.5391 10.8828L14.3008 10.8828L13.6582 13.959Z" style="fill:var(--color-1,hsl(0 0 0/0.85))"></path>
 </g>
</svg>