<?xml version="1.0" encoding="UTF-8"?>
<!--Generator: Apple Native CoreSVG 326-->
<!DOCTYPE svg
PUBLIC "-//W3C//DTD SVG 1.1//EN"
       "http://www.w3.org/Graphics/SVG/1.1/DTD/svg11.dtd">
<svg version="1.1" xmlns="http://www.w3.org/2000/svg" xmlns:xlink="http://www.w3.org/1999/xlink" viewBox="0 0 32.5938 25.1699">
 <g>
  <rect height="25.1699" opacity="0" width="32.5938" x="0" y="0"/>
  <path d="M4.29297 25.1699L27.9453 25.1699C30.8164 25.1699 32.2383 23.7617 32.2383 20.9453L32.2383 4.23828C32.2383 1.42188 30.8164 0 27.9453 0L4.29297 0C1.43555 0 0 1.42188 0 4.23828L0 20.9453C0 23.7617 1.43555 25.1699 4.29297 25.1699Z" fill="white" fill-opacity="0.85"/>
  <path d="M7.80664 18.3477C7.21875 18.3477 6.86328 17.9375 6.86328 17.2812L6.86328 8.79102L6.74023 8.79102L5.14062 9.84375C4.83984 10.0488 4.70312 10.0762 4.51172 10.0762C4.16992 10.0762 3.85547 9.74805 3.85547 9.36523C3.85547 9.0918 3.95117 8.88672 4.22461 8.70898L6.4668 7.17773C7 6.82227 7.28711 6.69922 7.76562 6.69922C8.4082 6.69922 8.77734 7.08203 8.77734 7.7793L8.77734 17.2812C8.77734 17.9512 8.42188 18.3477 7.80664 18.3477ZM11.8262 18.1699C11.2793 18.1699 10.9238 17.8555 10.9238 17.3496C10.9238 17.0625 11.0469 16.8301 11.252 16.6113L15.2031 12.3867C15.9141 11.6211 16.6523 10.8691 16.6523 9.99414C16.6523 8.98242 15.873 8.29883 14.7246 8.29883C13.5488 8.29883 12.8926 9.0918 12.5918 9.84375C12.373 10.1992 12.1406 10.4727 11.6895 10.4727C11.1836 10.4727 10.8691 10.1445 10.8691 9.66602C10.8691 9.48828 10.8965 9.36523 10.9512 9.17383C11.3477 7.75195 12.9062 6.68555 14.6426 6.68555C16.9258 6.68555 18.4297 7.94336 18.4297 9.84375C18.4297 11.1973 17.6504 12.1816 16.5566 13.3574L13.6445 16.4746L13.6445 16.5293L18.1426 16.5293C18.6348 16.5293 18.9766 16.8574 18.9766 17.3359C18.9766 17.8145 18.6348 18.1699 18.1426 18.1699ZM24.0352 18.3613C22.0391 18.3613 20.3711 17.3633 20.0703 15.9277C20.043 15.7637 20.0293 15.6816 20.0293 15.5039C20.0293 15.0117 20.3438 14.6562 20.877 14.6562C21.3008 14.6562 21.5605 14.8613 21.7383 15.2852C22.0664 16.2422 22.8867 16.7754 24.0625 16.7754C25.4844 16.7754 26.4277 16.0371 26.4277 14.957C26.4277 13.8496 25.498 13.125 24.1309 13.125L23.2695 13.125C22.832 13.125 22.5039 12.7969 22.5039 12.3457C22.5039 11.8809 22.832 11.5801 23.2695 11.5801L24.0488 11.5801C25.1973 11.5801 26.0586 10.8418 26.0586 9.84375C26.0586 8.87305 25.293 8.27148 24.1035 8.27148C23.0234 8.27148 22.2168 8.80469 21.9434 9.74805C21.8066 10.1855 21.5332 10.3906 21.0957 10.3906C20.5898 10.3906 20.248 10.0488 20.248 9.58398C20.248 9.37891 20.2617 9.26953 20.2891 9.0918C20.6309 7.62891 22.1348 6.67188 24.1309 6.67188C26.3184 6.67188 27.877 7.91602 27.877 9.63867C27.877 10.9375 26.9336 12.0586 25.7168 12.25L25.7168 12.2773C27.1934 12.4414 28.2734 13.5762 28.2734 15.0254C28.2734 17.0352 26.5645 18.3613 24.0352 18.3613Z" fill="white"/>
 </g>
</svg>
