<svg version="1.1" xmlns="http://www.w3.org/2000/svg" xmlns:xlink="http://www.w3.org/1999/xlink" viewBox="0 0 26.3867 20.002">
 <g>
  
  <path d="M21.2734 9.54297C24.0762 9.54297 26.0312 7.62891 26.0312 4.86719C26.0312 2.11914 24.0762 0.191406 21.2734 0.191406C18.5527 0.191406 16.666 2.11914 16.666 4.86719C16.666 7.62891 18.5664 9.54297 21.2734 9.54297ZM21.2734 7.72461C19.8242 7.72461 18.8125 6.54883 18.8125 4.86719C18.8125 3.18555 19.8242 2.02344 21.2734 2.02344C22.8184 2.02344 23.8711 3.18555 23.8711 4.86719C23.8711 6.54883 22.8047 7.72461 21.2734 7.72461ZM1.16211 20.002C1.90039 20.002 2.33789 19.5371 2.33789 18.7988L2.33789 4.51172L2.2832 4.51172L12.127 19.0859C12.6055 19.7695 12.9746 20.002 13.5762 20.002C14.3691 20.002 14.834 19.5098 14.834 18.6621L14.834 1.49023C14.834 0.738281 14.3965 0.259766 13.6582 0.259766C12.9473 0.259766 12.4961 0.738281 12.4961 1.49023L12.4961 15.7637L12.5508 15.7637L2.70703 1.17578C2.22852 0.478516 1.88672 0.259766 1.25781 0.259766C0.492188 0.259766 0 0.792969 0 1.59961L0 18.7988C0 19.5371 0.464844 20.002 1.16211 20.002ZM18.0059 12.9609L24.7051 12.9609C25.3613 12.9609 25.8672 12.5508 25.8672 11.8809C25.8672 11.2109 25.3613 10.7734 24.7051 10.7734L18.0059 10.7734C17.3496 10.7734 16.8711 11.2109 16.8711 11.8809C16.8711 12.5508 17.3496 12.9609 18.0059 12.9609Z" style="fill:var(--color-0,hsl(0 0 0/0.85))"></path>
 </g>
</svg>