<?xml version="1.0" encoding="UTF-8"?>
<!--Generator: Apple Native CoreSVG 326-->
<!DOCTYPE svg
PUBLIC "-//W3C//DTD SVG 1.1//EN"
       "http://www.w3.org/Graphics/SVG/1.1/DTD/svg11.dtd">
<svg version="1.1" xmlns="http://www.w3.org/2000/svg" xmlns:xlink="http://www.w3.org/1999/xlink" viewBox="0 0 24.8691 26.7012">
 <g>
  <rect height="26.7012" opacity="0" width="24.8691" x="0" y="0"/>
  <path d="M5.01758 26.7012C5.67383 26.7012 6.15234 26.3457 6.28906 25.6758L11.1562 1.55859C11.1836 1.47656 11.2109 1.29883 11.2109 1.12109C11.2109 0.451172 10.7188 0.0683594 10.0625 0.0683594C9.29688 0.0683594 8.94141 0.492188 8.81836 1.13477L3.95117 25.2246C3.92383 25.3613 3.89648 25.5254 3.89648 25.6621C3.89648 26.332 4.36133 26.7012 5.01758 26.7012ZM13.9043 26.7012C14.5742 26.7012 15.0391 26.3457 15.1758 25.6758L20.0566 1.55859C20.0703 1.47656 20.0977 1.29883 20.0977 1.12109C20.0977 0.451172 19.6055 0.0683594 18.9629 0.0683594C18.1836 0.0683594 17.8418 0.492188 17.7188 1.13477L12.8379 25.2246C12.8105 25.3613 12.7969 25.5254 12.7969 25.6621C12.7969 26.332 13.2617 26.7012 13.9043 26.7012ZM2.87109 9.44727L23.2422 9.44727C23.9941 9.44727 24.5137 8.90039 24.5137 8.16211C24.5137 7.56055 24.1035 7.06836 23.4883 7.06836L3.11719 7.06836C2.37891 7.06836 1.8457 7.64258 1.8457 8.39453C1.8457 9.00977 2.26953 9.44727 2.87109 9.44727ZM1.02539 19.0449L21.3965 19.0449C22.1348 19.0449 22.668 18.498 22.668 17.7598C22.668 17.1582 22.2441 16.666 21.6426 16.666L1.27148 16.666C0.519531 16.666 0 17.2402 0 17.9922C0 18.6074 0.410156 19.0449 1.02539 19.0449Z" fill="white" fill-opacity="0.85"/>
 </g>
</svg>
