<svg version="1.1" xmlns="http://www.w3.org/2000/svg" xmlns:xlink="http://www.w3.org/1999/xlink" viewBox="0 0 28.2461 27.9043">
 <g>
  
  <path d="M13.9453 27.8906C21.6426 27.8906 27.8906 21.6289 27.8906 13.9453C27.8906 6.24805 21.6426 0 13.9453 0C6.26172 0 0 6.24805 0 13.9453C0 21.6289 6.26172 27.8906 13.9453 27.8906Z" style="fill:var(--color-0,hsl(0 0 0/0.85))"></path>
  <path d="M13.9453 20.5625C10.3496 20.5625 7.84766 17.8008 7.84766 13.8223C7.84766 9.83008 10.3496 7.06836 13.9453 7.06836C17.5547 7.06836 20.0566 9.83008 20.0566 13.8223C20.0566 17.8008 17.5547 20.5625 13.9453 20.5625ZM13.9453 18.7852C16.2695 18.7852 17.7871 16.8164 17.7871 13.8223C17.7871 10.8145 16.2695 8.8457 13.9453 8.8457C11.6211 8.8457 10.1035 10.8145 10.1035 13.8223C10.1035 16.8164 11.6211 18.7852 13.9453 18.7852Z" style="fill:var(--color-1,white)"></path>
 </g>
</svg>