<?xml version="1.0" encoding="UTF-8"?>
<!--Generator: Apple Native CoreSVG 326-->
<!DOCTYPE svg
PUBLIC "-//W3C//DTD SVG 1.1//EN"
       "http://www.w3.org/Graphics/SVG/1.1/DTD/svg11.dtd">
<svg version="1.1" xmlns="http://www.w3.org/2000/svg" xmlns:xlink="http://www.w3.org/1999/xlink" viewBox="0 0 28.2461 27.9043">
 <g>
  <rect height="27.9043" opacity="0" width="28.2461" x="0" y="0"/>
  <path d="M13.9453 27.8906C21.6426 27.8906 27.8906 21.6289 27.8906 13.9453C27.8906 6.24805 21.6426 0 13.9453 0C6.26172 0 0 6.24805 0 13.9453C0 21.6289 6.26172 27.8906 13.9453 27.8906Z" fill="white" fill-opacity="0.85"/>
  <path d="M20.002 7.98438C20.207 8.16211 20.1934 8.44922 20.002 8.64062C19.7969 8.8457 19.4961 8.85938 19.3047 8.64062L18.9629 8.3125L14.6152 12.6602L16.0918 14.123L17.1309 14.3008C17.6094 14.3828 18.0469 14.6289 18.5254 15.1074L21.5059 18.0605C21.9434 18.4844 21.8066 19.25 21.1504 19.8789C20.5215 20.5352 19.7559 20.6719 19.3457 20.2344L16.3652 17.2676C15.8867 16.7754 15.6543 16.3379 15.5723 15.8594L15.4082 14.834L13.9316 13.3438L12.4414 14.834L12.2773 15.8594C12.1953 16.3379 11.9629 16.7754 11.4844 17.2676L8.51758 20.2344C8.09375 20.6719 7.32812 20.5352 6.69922 19.8789C6.04297 19.25 5.90625 18.4844 6.35742 18.0605L9.32422 15.1074C9.80273 14.6289 10.2402 14.3828 10.7188 14.3008L11.7578 14.123L13.2344 12.6602L8.88672 8.3125L8.54492 8.64062C8.35352 8.85938 8.05273 8.8457 7.84766 8.64062C7.66992 8.44922 7.65625 8.16211 7.84766 7.98438L9.25586 6.58984C9.43359 6.38477 9.73438 6.39844 9.91211 6.58984C10.1172 6.78125 10.1309 7.08203 9.91211 7.27344L9.58398 7.62891L13.9316 11.9629L18.2793 7.62891L17.9375 7.27344C17.7188 7.08203 17.7324 6.78125 17.9375 6.58984C18.1152 6.39844 18.416 6.38477 18.6211 6.58984Z" fill="white"/>
 </g>
</svg>
