<svg version="1.1" xmlns="http://www.w3.org/2000/svg" xmlns:xlink="http://www.w3.org/1999/xlink" viewBox="0 0 28.2461 27.9043">
 <g>
  
  <path d="M13.9453 27.8906C21.6426 27.8906 27.8906 21.6426 27.8906 13.9453C27.8906 6.24805 21.6426 0 13.9453 0C6.24805 0 0 6.24805 0 13.9453C0 21.6426 6.24805 27.8906 13.9453 27.8906ZM13.9453 25.5664C7.51953 25.5664 2.32422 20.3711 2.32422 13.9453C2.32422 7.51953 7.51953 2.32422 13.9453 2.32422C20.3711 2.32422 25.5664 7.51953 25.5664 13.9453C25.5664 20.3711 20.3711 25.5664 13.9453 25.5664Z" style="fill:var(--color-0,hsl(0 0 0/0.85))"></path>
  <path d="M19.7969 8.14844L18.457 6.79492C18.2656 6.60352 17.9922 6.61719 17.8008 6.79492C17.6094 6.98633 17.5957 7.27344 17.8008 7.46484L19.127 8.79102C19.3184 8.99609 19.6055 8.98242 19.7969 8.79102C19.9883 8.59961 20.002 8.32617 19.7969 8.14844ZM10.2402 15.6953L10.9102 16.3516L19.2363 8.03906L18.5664 7.36914ZM6.9043 19.6875C7.51953 20.3164 8.25781 20.4531 8.66797 20.0293L11.5391 17.1445C12.0176 16.6797 12.2363 16.2559 12.3184 15.791L12.5371 14.4238L12.168 14.0547L10.8145 14.2734C10.3496 14.3555 9.91211 14.5879 9.44727 15.0527L6.57617 17.9238C6.15234 18.334 6.27539 19.0723 6.9043 19.6875ZM8.03906 8.14844C7.83398 8.32617 7.84766 8.59961 8.03906 8.79102C8.23047 8.98242 8.51758 8.99609 8.69531 8.79102L10.0352 7.46484C10.2266 7.27344 10.2129 6.98633 10.0352 6.79492C9.84375 6.61719 9.57031 6.60352 9.37891 6.79492ZM17.5957 15.6953L9.26953 7.36914L8.59961 8.03906L16.9258 16.3516ZM20.9316 19.6875C21.5469 19.0723 21.6836 18.334 21.2598 17.9238L18.375 15.0527C17.9102 14.5879 17.4863 14.3555 17.0215 14.2734L15.668 14.0547L15.2988 14.4238L15.5176 15.791C15.5996 16.2559 15.8184 16.6797 16.2969 17.1445L19.168 20.0293C19.5781 20.4531 20.3027 20.3164 20.9316 19.6875Z" style="fill:var(--color-1,hsl(0 0 0/0.85))"></path>
 </g>
</svg>