<svg version="1.1" xmlns="http://www.w3.org/2000/svg" xmlns:xlink="http://www.w3.org/1999/xlink" viewBox="0 0 48.6481 34.7402">
 <g>
  
  <path d="M45.2284 22.791L47.2518 26.5508C47.7713 27.5078 48.2909 28.5059 48.2909 29.5723C48.2909 31.418 46.7596 32.8809 44.9139 32.8809C43.0545 32.8809 41.537 31.418 41.537 29.5723C41.537 28.5059 42.0565 27.5078 42.5624 26.5508L44.6131 22.8047C44.6815 22.6543 44.7635 22.5859 44.9139 22.5859C45.037 22.5859 45.16 22.6543 45.2284 22.791ZM4.29477 14L10.3514 16.2832C10.6795 16.2285 11.035 16.1875 11.4315 16.1875L13.7774 16.1875C13.2334 17.1064 12.8944 18.2015 12.8944 19.4141C12.8944 22.9551 15.7381 25.8125 19.2655 25.8125C22.8065 25.8125 25.6639 22.9551 25.6639 19.4141C25.6639 19.2663 25.6587 19.1205 25.6481 18.9769L41.6874 14.7246C42.5624 14.4922 42.9588 14.6289 43.3963 15.0117L45.4608 16.8164C46.5956 17.8281 45.1327 19.2637 44.0116 18.293L42.1249 16.6797L36.8202 18.0879L27.619 29.873C26.662 31.0898 25.3221 31.6094 23.244 31.6094L11.4315 31.6094C9.74985 31.6094 8.62876 31.1582 7.79477 29.9004L0.781102 19.0996C-1.28335 15.9688 1.04087 12.7695 4.29477 14ZM2.10727 17.5684L7.28891 25.5254L7.28891 20.2891C7.28891 19.1406 7.54868 18.2383 8.0272 17.582L3.41977 15.8047C2.21665 15.3672 1.42368 16.4746 2.10727 17.5684Z" style="fill:var(--color-0,hsl(0 0 0/0.85))"></path>
  <path d="M19.2655 23.9395C21.7811 23.9395 23.8045 21.9297 23.8045 19.4141C23.8045 17.6641 22.7928 16.2695 21.4666 15.5312C20.9881 15.2715 20.7557 14.8613 20.7557 14.1504L20.7557 3.33594C20.7557 2.5293 20.0858 1.85938 19.2791 1.85938C18.4588 1.85938 17.8026 2.5293 17.8026 3.33594L17.8026 14.1504C17.8026 14.834 17.5565 15.2305 17.0506 15.5039C15.7381 16.2422 14.7538 17.6641 14.7538 19.4141C14.7538 21.9297 16.7635 23.9395 19.2655 23.9395ZM24.4745 4.82617L27.4413 4.82617C27.9198 4.82617 28.2479 4.45703 28.2479 4.0332C28.2479 3.60938 27.9198 3.22656 27.4413 3.22656L24.4745 3.22656C23.9959 3.22656 23.6678 3.60938 23.6678 4.0332C23.6678 4.45703 23.9959 4.82617 24.4745 4.82617ZM24.4745 8.43555L27.4413 8.43555C27.9198 8.43555 28.2479 8.06641 28.2479 7.64258C28.2479 7.21875 27.9198 6.84961 27.4413 6.84961L24.4745 6.84961C23.9959 6.84961 23.6678 7.21875 23.6678 7.64258C23.6678 8.06641 23.9959 8.43555 24.4745 8.43555ZM24.4745 12.0449L27.4413 12.0449C27.9198 12.0449 28.2479 11.6758 28.2479 11.252C28.2479 10.8281 27.9198 10.459 27.4413 10.459L24.4745 10.459C23.9959 10.459 23.6678 10.8281 23.6678 11.252C23.6678 11.6758 23.9959 12.0449 24.4745 12.0449Z" style="fill:var(--color-1,hsl(0 0 0/0.85))"></path>
 </g>
</svg>