<?xml version="1.0" encoding="UTF-8"?>
<!--Generator: Apple Native CoreSVG 326-->
<!DOCTYPE svg
PUBLIC "-//W3C//DTD SVG 1.1//EN"
       "http://www.w3.org/Graphics/SVG/1.1/DTD/svg11.dtd">
<svg version="1.1" xmlns="http://www.w3.org/2000/svg" xmlns:xlink="http://www.w3.org/1999/xlink" viewBox="0 0 28.2734 25.0605">
 <g>
  <rect height="25.0605" opacity="0" width="28.2734" x="0" y="0"/>
  <path d="M7.875 0L1.28516 0C0.560547 0 0 0.533203 0 1.23047C0 1.92773 0.560547 2.47461 1.28516 2.47461L7.30078 2.47461C7.79297 2.47461 8.14844 2.69336 8.35352 3.14453L17.3633 23.3789C17.8691 24.5273 18.7031 25.0605 19.9609 25.0605L26.6328 25.0605C27.3438 25.0605 27.918 24.5137 27.918 23.8301C27.918 23.1465 27.3438 22.5859 26.6328 22.5859L20.5762 22.5859C20.0293 22.5859 19.6875 22.3809 19.4688 21.9297L10.5 1.70898C10.0352 0.642578 9.05078 0 7.875 0ZM26.6328 0L17.7871 0C17.0625 0 16.502 0.519531 16.502 1.2168C16.502 1.91406 17.0625 2.44727 17.7871 2.44727L26.6328 2.44727C27.3574 2.44727 27.9043 1.91406 27.9043 1.2168C27.9043 0.519531 27.3574 0 26.6328 0Z" fill="white" fill-opacity="0.85"/>
 </g>
</svg>
