<svg version="1.1" xmlns="http://www.w3.org/2000/svg" xmlns:xlink="http://www.w3.org/1999/xlink" viewBox="0 0 33.6875 23.4746">
 <g>
  
  <path d="M16.666 23.4609C25.6074 23.4609 33.332 17.1172 33.332 11.7305C33.332 6.34375 25.6074 0 16.666 0C7.73828 0 0 6.34375 0 11.7305C0 17.1172 7.73828 23.4609 16.666 23.4609ZM16.666 21.4512C8.25781 21.4512 2.02344 15.5449 2.02344 11.7305C2.02344 7.90234 8.25781 2.00977 16.666 2.00977C25.0742 2.00977 31.3359 7.90234 31.3359 11.7305C31.3359 15.5449 25.0742 21.4512 16.666 21.4512Z" style="fill:var(--color-0,hsl(0 0 0/0.85))"></path>
  <path d="M16.666 19.9062C22.0938 19.9062 24.6641 15.0117 24.6777 13.1797C24.6777 12.7695 24.3359 12.4004 23.9121 12.4004C23.543 12.4004 23.1875 12.6875 23.1191 13.0293C22.5176 16.0781 19.8652 18.3203 16.666 18.3203C15.3125 18.3203 14.0547 17.9648 12.9883 17.2402C12.8379 17.1582 12.7148 17.1172 12.5508 17.1172C12.0996 17.1172 11.7852 17.4727 11.7852 17.9102C11.7852 18.1562 11.8945 18.4023 12.127 18.5527C13.4121 19.4277 14.9844 19.9062 16.666 19.9062ZM8.47656 11.7305C8.47656 13.3984 8.95508 14.957 9.83008 16.2559C9.98047 16.4883 10.2266 16.5977 10.4727 16.5977C10.8555 16.5977 11.2656 16.3242 11.2656 15.8184C11.2656 15.6406 11.2246 15.4902 11.1289 15.3535C10.418 14.3418 10.0625 13.084 10.0625 11.7305C10.0625 10.377 10.4316 9.13281 11.1289 8.09375C11.2246 7.95703 11.2656 7.7793 11.2656 7.62891C11.2656 7.17773 10.9102 6.84961 10.4727 6.84961C10.2402 6.84961 9.99414 6.95898 9.83008 7.19141C8.95508 8.50391 8.47656 10.0488 8.47656 11.7305ZM16.666 3.54102C14.9844 3.54102 13.4121 4.0332 12.127 4.9082C11.8809 5.05859 11.7852 5.30469 11.7852 5.55078C11.7852 6.00195 12.1133 6.37109 12.5781 6.37109C12.7285 6.37109 12.8789 6.31641 13.0293 6.2207C14.0684 5.52344 15.3262 5.12695 16.666 5.12695C19.8652 5.12695 22.5039 7.38281 23.1328 10.4316C23.2012 10.7734 23.543 11.0605 23.9121 11.0605C24.3496 11.0605 24.6914 10.7051 24.6914 10.2812C24.6504 8.4082 22.0664 3.54102 16.666 3.54102Z" style="fill:var(--color-1,hsl(0 0 0/0.85))"></path>
  <path d="M16.666 16.9668C17.9648 16.9668 19.127 16.4883 20.0156 15.7363C20.2344 15.5449 20.3438 15.3262 20.3438 15.0938C20.3438 14.6562 19.9746 14.3145 19.5508 14.3145C19.3594 14.3145 19.168 14.3691 19.0312 14.5195C18.457 15.0664 17.6367 15.3809 16.7344 15.3809C14.5879 15.3809 13.002 13.6992 13.002 11.7168C13.002 10.1172 14.0137 8.79102 15.4492 8.27148C15.7637 8.17578 15.9824 7.84766 15.9824 7.56055C15.9824 7.0957 15.6133 6.75391 15.1895 6.75391C13.9453 6.75391 11.416 8.85938 11.416 11.7578C11.416 14.6289 13.7129 16.9668 16.666 16.9668ZM21.875 11.7305C21.875 8.80469 19.3594 6.75391 18.1426 6.75391C17.7051 6.75391 17.3359 7.0957 17.3359 7.56055C17.3359 7.84766 17.5547 8.17578 17.8691 8.27148C19.291 8.79102 20.3164 10.1172 20.3164 11.7305C20.3164 11.9492 20.2344 12.3594 20.2344 12.5234C20.2207 13.0703 20.5898 13.3301 21.041 13.3301C21.5469 13.3301 21.752 13.0156 21.834 12.6191C21.875 12.373 21.875 12.0312 21.875 11.7305Z" style="fill:var(--color-2,hsl(0 0 0/0.85))"></path>
  <path d="M16.6523 14C17.9102 14 18.9219 12.9883 18.9219 11.7305C18.9219 10.4727 17.9102 9.46094 16.6523 9.46094C15.3945 9.46094 14.3828 10.4727 14.3828 11.7305C14.3828 12.9883 15.3945 14 16.6523 14Z" style="fill:var(--color-3,hsl(0 0 0/0.85))"></path>
 </g>
</svg>