<?xml version="1.0" encoding="UTF-8"?>
<!--Generator: Apple Native CoreSVG 326-->
<!DOCTYPE svg
PUBLIC "-//W3C//DTD SVG 1.1//EN"
       "http://www.w3.org/Graphics/SVG/1.1/DTD/svg11.dtd">
<svg version="1.1" xmlns="http://www.w3.org/2000/svg" xmlns:xlink="http://www.w3.org/1999/xlink" viewBox="0 0 31.8145 22.9004">
 <g>
  <rect height="22.9004" opacity="0" width="31.8145" x="0" y="0"/>
  <path d="M5.07227 17.5273C5.07227 16.9805 5.50977 16.5293 6.07031 16.5293L25.3887 16.5293C25.9492 16.5293 26.3867 16.9805 26.3867 17.5273C26.3867 18.0742 25.9492 18.5391 25.3887 18.5391L6.07031 18.5391C5.50977 18.5391 5.07227 18.0742 5.07227 17.5273ZM5.41406 22.9004L26.0449 22.9004C29.2441 22.9004 31.459 20.6992 31.459 17.5273C31.459 14.3555 29.2441 12.1406 26.0449 12.1406L5.41406 12.1406C2.21484 12.1406 0 14.3555 0 17.5273C0 20.6992 2.21484 22.9004 5.41406 22.9004ZM5.41406 10.2676L26.0449 10.2676C27.3301 10.2676 28.5059 10.5547 29.5176 11.0742L26.25 3.18555C25.4023 1.12109 23.6113 0.0136719 21.2461 0.0136719L10.2129 0.0136719C7.84766 0.0136719 6.05664 1.12109 5.20898 3.18555L1.92773 11.0742C2.95312 10.5547 4.12891 10.2676 5.41406 10.2676Z" fill="white" fill-opacity="0.85"/>
 </g>
</svg>
