<?xml version="1.0" encoding="UTF-8"?>
<!--Generator: Apple Native CoreSVG 326-->
<!DOCTYPE svg
PUBLIC "-//W3C//DTD SVG 1.1//EN"
       "http://www.w3.org/Graphics/SVG/1.1/DTD/svg11.dtd">
<svg version="1.1" xmlns="http://www.w3.org/2000/svg" xmlns:xlink="http://www.w3.org/1999/xlink" viewBox="0 0 28.2461 27.9043">
 <g>
  <rect height="27.9043" opacity="0" width="28.2461" x="0" y="0"/>
  <path d="M10.2676 27.3574C11.4434 27.6992 12.6875 27.8906 13.9453 27.8906C21.6426 27.8906 27.8906 21.6426 27.8906 13.9453C27.8906 12.6875 27.7129 11.4844 27.3848 10.3359L20.1113 12.6875C20.207 13.0977 20.248 13.5078 20.248 13.9453C20.248 17.4316 17.4316 20.248 13.959 20.2617C13.4941 20.2617 13.0566 20.2207 12.6191 20.1113ZM27.0156 9.20117C26.6465 8.14844 26.1543 7.17773 25.5527 6.23438L19.3867 10.8008C19.5371 11.0469 19.6602 11.3066 19.7422 11.5801ZM24.8418 5.29102C23.2832 3.29492 21.2324 1.79102 18.8262 0.929688L16.4473 8.23047C17.3086 8.57227 18.0879 9.13281 18.6758 9.85742ZM17.7051 0.560547C16.502 0.205078 15.2441 0 13.9453 0C6.24805 0 0 6.24805 0 13.9453C0 15.2578 0.205078 16.5566 0.574219 17.7598L7.83398 15.3945C7.71094 14.9297 7.65625 14.4512 7.65625 13.9453C7.65625 10.5137 10.5137 7.68359 13.9727 7.68359C14.4375 7.68359 14.8887 7.75195 15.3262 7.84766ZM0.957031 18.8809C1.33984 19.8926 1.8457 20.8633 2.43359 21.7793L8.58594 17.2402C8.44922 17.0078 8.33984 16.7617 8.23047 16.502ZM3.1582 22.7363C4.70312 24.6641 6.79492 26.1953 9.14648 26.9883L11.498 19.7422C10.6641 19.4141 9.89844 18.8672 9.32422 18.1836ZM13.9453 18.8398C16.6523 18.8398 18.8398 16.6387 18.8398 13.9453C18.8398 11.2383 16.6523 9.05078 13.9453 9.05078C11.252 9.05078 9.05078 11.2383 9.05078 13.9453C9.05078 16.6387 11.252 18.8398 13.9453 18.8398ZM13.9453 17.2676C12.0996 17.2676 10.623 15.791 10.623 13.9453C10.623 12.0996 12.0996 10.623 13.9453 10.623C15.791 10.623 17.2676 12.0996 17.2676 13.9453C17.2676 15.791 15.791 17.2676 13.9453 17.2676ZM13.9453 15.75C14.9434 15.75 15.75 14.9297 15.75 13.9453C15.75 12.9473 14.9434 12.1406 13.9453 12.1406C12.9473 12.1406 12.1406 12.9473 12.1406 13.9453C12.1406 14.9297 12.9473 15.75 13.9453 15.75Z" fill="white" fill-opacity="0.85"/>
 </g>
</svg>
