<?xml version="1.0" encoding="UTF-8"?>
<!--Generator: Apple Native CoreSVG 326-->
<!DOCTYPE svg
PUBLIC "-//W3C//DTD SVG 1.1//EN"
       "http://www.w3.org/Graphics/SVG/1.1/DTD/svg11.dtd">
<svg version="1.1" xmlns="http://www.w3.org/2000/svg" xmlns:xlink="http://www.w3.org/1999/xlink" viewBox="0 0 32.6348 23.3652">
 <g>
  <rect height="23.3652" opacity="0" width="32.6348" x="0" y="0"/>
  <path d="M5.81055 17.1992C5.81055 17.7324 6.23438 18.1699 6.76758 18.1699L25.5117 18.1699C26.0449 18.1699 26.4688 17.7324 26.4688 17.1992C26.4688 16.666 26.0449 16.2422 25.5117 16.2422L6.76758 16.2422C6.23438 16.2422 5.81055 16.666 5.81055 17.1992ZM0 17.1992C0 20.6719 2.69336 23.3652 6.49414 23.3652L25.7852 23.3652C29.5859 23.3652 32.2793 20.6719 32.2793 17.1992C32.2793 16.1738 31.9785 15.2578 31.623 14.3965L27.0156 3.33594C26.1133 1.14844 24.2539 0.0273438 21.8066 0.0273438L10.4727 0.0273438C8.02539 0.0273438 6.16602 1.14844 5.26367 3.33594L0.642578 14.3965C0.300781 15.2441 0 16.1738 0 17.1992ZM2.20117 17.1992C2.20117 14.9434 3.91016 13.2344 6.49414 13.2344L25.7852 13.2344C28.3691 13.2344 30.0781 14.9434 30.0781 17.1992C30.0781 19.7285 28.3691 21.1641 25.7852 21.1641L6.49414 21.1641C3.91016 21.1641 2.20117 19.4551 2.20117 17.1992ZM4.41602 11.3887L7.39648 3.89648C7.91602 2.59766 9.03711 1.94141 10.582 1.94141L21.6973 1.94141C23.2422 1.94141 24.377 2.59766 24.8828 3.89648L27.8633 11.3887C27.2207 11.1562 26.5371 11.0332 25.7852 11.0332L6.49414 11.0332C5.74219 11.0332 5.04492 11.1562 4.41602 11.3887Z" fill="white" fill-opacity="0.85"/>
 </g>
</svg>
