<svg version="1.1" xmlns="http://www.w3.org/2000/svg" xmlns:xlink="http://www.w3.org/1999/xlink" viewBox="0 0 27.6855 23.6113">
 <g>
  
  <path d="M0 6.6582L27.3301 6.6582L27.3301 2.85742C27.3301 1.14844 26.2227 0 24.582 0L2.74805 0C1.10742 0 0 1.14844 0 2.85742ZM5.07227 4.83984C4.375 4.83984 3.82812 4.29297 3.82812 3.60938C3.82812 2.92578 4.375 2.37891 5.07227 2.37891C5.74219 2.37891 6.30273 2.92578 6.30273 3.60938C6.30273 4.29297 5.74219 4.83984 5.07227 4.83984ZM8.69531 4.83984C8.01172 4.83984 7.46484 4.29297 7.46484 3.60938C7.46484 2.92578 8.01172 2.37891 8.69531 2.37891C9.37891 2.37891 9.93945 2.92578 9.93945 3.60938C9.93945 4.29297 9.37891 4.83984 8.69531 4.83984ZM12.332 4.83984C11.6348 4.83984 11.0879 4.29297 11.0879 3.60938C11.0879 2.92578 11.6348 2.37891 12.332 2.37891C13.002 2.37891 13.5625 2.92578 13.5625 3.60938C13.5625 4.29297 13.002 4.83984 12.332 4.83984ZM19.4961 4.32031C19.0723 4.32031 18.7715 4.01953 18.7715 3.5957C18.7715 3.17188 19.0723 2.89844 19.4961 2.89844L23.3105 2.89844C23.7344 2.89844 24.0078 3.17188 24.0078 3.5957C24.0078 4.01953 23.7344 4.32031 23.3105 4.32031ZM2.74805 23.5977L24.582 23.5977C26.2227 23.5977 27.3301 22.4492 27.3301 20.7402L27.3301 8.17578L0 8.17578L0 20.7402C0 22.4492 1.10742 23.5977 2.74805 23.5977ZM4.93555 20.6172C4.14258 20.6172 3.63672 20.0977 3.63672 19.3184L3.63672 11.6484C3.63672 10.8418 4.14258 10.3223 4.93555 10.3223L22.4082 10.3223C23.2012 10.3223 23.707 10.8418 23.707 11.6484L23.707 19.3184C23.707 20.0977 23.2012 20.6172 22.4082 20.6172ZM5.1543 13.4668L22.1895 13.4668L22.1895 12.2227C22.1895 11.9902 22.0391 11.8398 21.8203 11.8398L5.52344 11.8398C5.30469 11.8398 5.1543 11.9902 5.1543 12.2227ZM5.52344 19.0996L21.8203 19.0996C22.0391 19.0996 22.1895 18.9492 22.1895 18.7305L22.1895 14.9844L5.1543 14.9844L5.1543 18.7305C5.1543 18.9492 5.30469 19.0996 5.52344 19.0996Z" style="fill:var(--color-0,hsl(0 0 0/0.85))"></path>
 </g>
</svg>