<?xml version="1.0" encoding="UTF-8"?>
<!--Generator: Apple Native CoreSVG 326-->
<!DOCTYPE svg
PUBLIC "-//W3C//DTD SVG 1.1//EN"
       "http://www.w3.org/Graphics/SVG/1.1/DTD/svg11.dtd">
<svg version="1.1" xmlns="http://www.w3.org/2000/svg" xmlns:xlink="http://www.w3.org/1999/xlink" viewBox="0 0 25.5254 25.1699">
 <g>
  <rect height="25.1699" opacity="0" width="25.5254" x="0" y="0"/>
  <path d="M4.29297 25.1699L20.877 25.1699C23.748 25.1699 25.1699 23.7617 25.1699 20.9453L25.1699 4.23828C25.1699 1.42188 23.748 0 20.877 0L4.29297 0C1.43555 0 0 1.42188 0 4.23828L0 20.9453C0 23.7617 1.43555 25.1699 4.29297 25.1699Z" fill="white" fill-opacity="0.85"/>
  <path d="M9.57031 19.0449C8.8457 19.0449 8.44922 18.5117 8.44922 17.7598L8.44922 7.30078C8.44922 6.53516 8.83203 6.01562 9.57031 6.01562L13.4941 6.01562C16.2285 6.01562 18.0879 7.76562 18.0879 10.3633C18.0879 12.9609 16.2559 14.6836 13.4805 14.6836L10.7188 14.6836L10.7188 17.7598C10.7188 18.5391 10.3223 19.0449 9.57031 19.0449ZM10.7188 12.9609L13.1797 12.9609C14.834 12.9609 15.8457 11.9629 15.8457 10.3633C15.8457 8.75 14.8203 7.75195 13.1797 7.75195L10.7188 7.75195Z" fill="white"/>
 </g>
</svg>
