<svg version="1.1" xmlns="http://www.w3.org/2000/svg" xmlns:xlink="http://www.w3.org/1999/xlink" viewBox="0 0 32.5938 24.5684">
 <g>
  
  <path d="M10.7734 24.541L21.4648 24.541C29.3945 24.541 32.2383 21.6016 32.2383 14.2871L32.2383 10.2676C32.2383 2.95312 29.3945 0 21.4648 0L10.7734 0C2.84375 0 0 2.95312 0 10.2676L0 14.2871C0 21.6016 2.84375 24.541 10.7734 24.541ZM10.7734 22.3398C4.32031 22.3398 2.20117 20.248 2.20117 14.2871L2.20117 10.2676C2.20117 4.30664 4.32031 2.20117 10.7734 2.20117L21.4648 2.20117C27.918 2.20117 30.0371 4.30664 30.0371 10.2676L30.0371 14.2871C30.0371 20.248 27.918 22.3398 21.4648 22.3398Z" style="fill:var(--color-0,hsl(0 0 0/0.85))"></path>
  <path d="M10.623 17.9375C11.2793 17.9375 11.6211 17.541 11.6211 16.9121L11.6211 14.1367L13.0566 14.1367C15.1484 14.1367 16.3516 12.5508 16.3516 10.4453C16.3516 8.36719 15.1758 6.72656 13.1797 6.72656L10.6094 6.72656C10.0352 6.72656 9.625 7.10938 9.625 7.7793L9.625 16.9121C9.625 17.5547 9.98047 17.9375 10.623 17.9375ZM11.6211 12.5645L11.6211 8.33984L12.6738 8.33984C13.8223 8.33984 14.3691 9.16016 14.3691 10.4453C14.3691 11.6621 13.877 12.5645 12.6602 12.5645ZM20.9316 17.9512C21.4648 17.9512 21.916 17.5 21.916 16.9531L21.916 7.68359C21.916 6.98633 21.4785 6.57617 20.7676 6.57617C20.1934 6.57617 19.7285 6.89062 19.4141 7.13672L17.9102 8.29883C17.6641 8.49023 17.4727 8.75 17.4727 9.10547C17.4727 9.5293 17.7598 9.83008 18.1699 9.83008C18.3887 9.83008 18.5254 9.76172 18.6621 9.66602L19.9199 8.6543L19.9199 16.9531C19.9199 17.5 20.3711 17.9512 20.9316 17.9512Z" style="fill:var(--color-1,hsl(0 0 0/0.85))"></path>
 </g>
</svg>