<?xml version="1.0" encoding="UTF-8"?>
<!--Generator: Apple Native CoreSVG 326-->
<!DOCTYPE svg
PUBLIC "-//W3C//DTD SVG 1.1//EN"
       "http://www.w3.org/Graphics/SVG/1.1/DTD/svg11.dtd">
<svg version="1.1" xmlns="http://www.w3.org/2000/svg" xmlns:xlink="http://www.w3.org/1999/xlink" viewBox="0 0 32.5938 24.5684">
 <g>
  <rect height="24.5684" opacity="0" width="32.5938" x="0" y="0"/>
  <path d="M10.7734 24.541L21.4648 24.541C29.3945 24.541 32.2383 21.6016 32.2383 14.2871L32.2383 10.2676C32.2383 2.95312 29.3945 0 21.4648 0L10.7734 0C2.84375 0 0 2.95312 0 10.2676L0 14.2871C0 21.6016 2.84375 24.541 10.7734 24.541ZM10.7734 22.3398C4.32031 22.3398 2.20117 20.248 2.20117 14.2871L2.20117 10.2676C2.20117 4.30664 4.32031 2.20117 10.7734 2.20117L21.4648 2.20117C27.918 2.20117 30.0371 4.30664 30.0371 10.2676L30.0371 14.2871C30.0371 20.248 27.918 22.3398 21.4648 22.3398Z" fill="white" fill-opacity="0.85"/>
  <path d="M9.76172 17.9375C10.418 17.9375 10.7598 17.541 10.7598 16.9121L10.7598 14.1367L12.209 14.1367C14.2871 14.1367 15.5039 12.5508 15.5039 10.4453C15.5039 8.36719 14.3281 6.72656 12.3184 6.72656L9.74805 6.72656C9.17383 6.72656 8.76367 7.10938 8.76367 7.7793L8.76367 16.9121C8.76367 17.5547 9.11914 17.9375 9.76172 17.9375ZM10.7598 12.5645L10.7598 8.33984L11.8125 8.33984C12.9609 8.33984 13.5215 9.16016 13.5215 10.4453C13.5215 11.6621 13.0156 12.5645 11.7988 12.5645ZM20.2754 18.0469C22.2305 18.0469 23.7344 16.8164 23.7344 14.7656C23.7344 13.0703 22.7227 12.2363 21.5742 12.1133L21.5742 12.0723C22.8047 11.7441 23.4062 10.6367 23.4062 9.48828C23.4062 7.60156 21.998 6.52148 20.2207 6.52148C18.7988 6.52148 17.582 7.31445 17.1855 8.53125C17.1172 8.79102 17.0898 9.03711 17.0898 9.26953C17.0898 9.7207 17.3906 10.0762 17.9238 10.0762C18.3887 10.0762 18.6621 9.89844 18.7988 9.41992C19.0176 8.61328 19.4551 8.10742 20.2207 8.10742C21.123 8.10742 21.5469 8.80469 21.5469 9.70703C21.5469 10.7051 21 11.4297 19.9746 11.4297L19.6465 11.4297C19.1816 11.4297 18.8945 11.7168 18.8945 12.168C18.8945 12.6191 19.1953 12.8789 19.6465 12.8789L19.9883 12.8789C21.1504 12.8789 21.793 13.5215 21.793 14.7109C21.793 15.6543 21.2871 16.4609 20.2754 16.4609C19.2773 16.4609 18.8398 15.791 18.6621 15.1621C18.5391 14.7246 18.2383 14.4922 17.8008 14.4922C17.2676 14.4922 16.9121 14.8203 16.9121 15.3535C16.9121 15.5996 16.9531 15.8457 17.0215 16.0645C17.4043 17.3359 18.7988 18.0469 20.2754 18.0469Z" fill="white" fill-opacity="0.85"/>
 </g>
</svg>
