<?xml version="1.0" encoding="UTF-8"?>
<!--Generator: Apple Native CoreSVG 326-->
<!DOCTYPE svg
PUBLIC "-//W3C//DTD SVG 1.1//EN"
       "http://www.w3.org/Graphics/SVG/1.1/DTD/svg11.dtd">
<svg version="1.1" xmlns="http://www.w3.org/2000/svg" xmlns:xlink="http://www.w3.org/1999/xlink" viewBox="0 0 21.1094 36.3686">
 <g>
  <rect height="36.3686" opacity="0" width="21.1094" x="0" y="0"/>
  <path d="M0 21.1169C0 26.1482 1.02539 30.0993 3.41797 34.0505C4.75781 36.2107 7.02734 36.8532 9.36523 35.7185L12.0723 34.406C14.5195 33.2302 15.6816 31.6716 15.6816 29.5388C15.6816 28.5818 15.3398 27.8435 15.3398 27.2146C15.3398 26.4763 15.8457 26.0251 16.7207 26.0251L19.2637 26.0251C20.125 26.0251 20.7539 25.3142 20.7539 24.3845L20.7539 21.1032C20.7539 20.0642 20.0293 19.3122 19.0449 19.3122L15.6816 19.3122C14.3691 19.3122 13.7402 18.5603 13.7402 17.3161C13.7402 14.2673 14.2871 10.7263 16.4336 5.84543C17.459 3.50754 16.7344 1.81223 14.2734 0.841525L12.9336 0.321994C10.8555-0.498319 9.06445 0.363009 7.84766 1.62082C2.24219 7.5134 0 15.4157 0 21.1169Z" fill="white" fill-opacity="0.85"/>
 </g>
</svg>
