<svg version="1.1" xmlns="http://www.w3.org/2000/svg" xmlns:xlink="http://www.w3.org/1999/xlink" viewBox="0 0 21.1094 36.3686">
 <g>
  
  <path d="M0 21.1169C0 26.1482 1.02539 30.0993 3.41797 34.0505C4.75781 36.2107 7.02734 36.8532 9.36523 35.7185L12.0723 34.406C14.5195 33.2302 15.6816 31.6716 15.6816 29.5388C15.6816 28.5818 15.3398 27.8435 15.3398 27.2146C15.3398 26.4763 15.8457 26.0251 16.7207 26.0251L19.2637 26.0251C20.125 26.0251 20.7539 25.3142 20.7539 24.3845L20.7539 21.1032C20.7539 20.0642 20.0293 19.3122 19.0449 19.3122L15.6816 19.3122C14.3691 19.3122 13.7402 18.5603 13.7402 17.3161C13.7402 14.2673 14.2871 10.7263 16.4336 5.84543C17.459 3.50754 16.7344 1.81223 14.2734 0.841525L12.9336 0.321994C10.8555-0.498319 9.06445 0.363009 7.84766 1.62082C2.24219 7.5134 0 15.4157 0 21.1169ZM2.20117 21.1169C2.20117 15.8943 4.12891 8.68918 9.51562 3.0427C10.3086 2.23606 10.8965 1.90793 12.2773 2.42746L13.6445 2.94699C14.5879 3.30246 14.8477 4.0134 14.4102 4.97043C12.0039 10.3435 11.5117 14.2946 11.5117 16.5368C11.5117 22.7029 13.6035 27.3513 13.6035 29.156C13.6035 30.7282 13.043 31.5075 11.0469 32.5056L8.58594 33.7497C7.27344 34.406 6.04297 34.0779 5.30469 32.9021C3.07617 29.2243 2.20117 25.8747 2.20117 21.1169Z" style="fill:var(--color-0,hsl(0 0 0/0.85))"></path>
 </g>
</svg>