<svg version="1.1" xmlns="http://www.w3.org/2000/svg" xmlns:xlink="http://www.w3.org/1999/xlink" viewBox="0 0 33.291 27.6582">
 <g>
  
  <path d="M17.6914 27.3848C23.4473 27.3848 27.2891 25.3477 27.2891 22.3398C27.2891 19.6465 24.9922 19.0449 24.9922 17.459C24.9922 15.2715 32.9355 14.834 32.9355 9.21484C32.9355 3.66406 27.207 0 18.7031 0C7.5332 0 0 5.57812 0 13.9316C0 21.9707 7.15039 27.3848 17.6914 27.3848ZM17.3906 22.1621C15.3945 22.1621 13.7539 20.5352 13.7539 18.5254C13.7539 16.5293 15.3945 14.8887 17.3906 14.8887C19.4004 14.8887 21.041 16.5293 21.041 18.5254C21.041 20.5352 19.4004 22.1621 17.3906 22.1621Z" style="fill:var(--color-0,#debb93)"></path>
  <path d="M6.4668 15.5996C5.22266 15.5996 4.18359 14.5605 4.18359 13.3027C4.18359 12.0996 5.26367 11.0469 6.4668 11.0469C7.72461 11.0469 8.73633 12.0449 8.73633 13.3027C8.73633 14.5605 7.72461 15.5996 6.4668 15.5996Z" style="fill:var(--color-1,#ff3b30)"></path>
  <path d="M11.7168 10.7598C10.1035 10.7598 8.81836 9.50195 8.81836 7.88867C8.81836 6.31641 10.1035 5.05859 11.7168 5.05859C13.2754 5.05859 14.5742 6.31641 14.5742 7.88867C14.5742 9.50195 13.2891 10.7598 11.7168 10.7598Z" style="fill:var(--color-2,#ffcc00)"></path>
  <path d="M19.0039 8.59961C17.7461 8.59961 16.6797 7.57422 16.6797 6.30273C16.6797 5.03125 17.7461 4.00586 19.0039 4.00586C20.2891 4.00586 21.3008 5.03125 21.3008 6.30273C21.3008 7.57422 20.2891 8.59961 19.0039 8.59961Z" style="fill:var(--color-3,#28cd41)"></path>
  <path d="M25.4434 9.80273C24.4043 9.80273 23.5566 8.98242 23.5566 7.94336C23.5566 6.91797 24.4043 6.07031 25.4434 6.07031C26.4688 6.07031 27.2891 6.91797 27.2891 7.94336C27.2891 8.98242 26.4688 9.80273 25.4434 9.80273Z" style="fill:var(--color-4,#007aff)"></path>
 </g>
</svg>