<svg version="1.1" xmlns="http://www.w3.org/2000/svg" xmlns:xlink="http://www.w3.org/1999/xlink" viewBox="0 0 29.4392 32.5429">
 <g>
  
  <path d="M1.72446 30.8115C4.00767 33.0947 6.67368 33.122 8.91587 30.8798C10.5702 29.2255 12.3065 25.329 13.5916 23.7978L16.5038 26.7236C17.5702 27.8037 18.8553 27.8037 19.8944 26.7646L21.6581 24.9873C22.6971 23.9345 22.6971 22.6904 21.617 21.6103L10.9393 10.9189C9.85923 9.83881 8.60142 9.82514 7.54868 10.8779L5.78501 12.6552C4.74595 13.6943 4.73227 14.9658 5.81235 16.0458L8.73813 18.958C7.22056 20.2431 3.32407 21.9658 1.66977 23.6201C-0.572413 25.8623-0.558741 28.5419 1.72446 30.8115ZM7.6854 13.872L8.79282 12.7919C9.14829 12.4365 9.5311 12.4228 9.88657 12.7783L19.7713 22.6494C20.1131 23.0048 20.1131 23.3876 19.744 23.7568L18.6776 24.8369C18.3221 25.2197 17.912 25.2333 17.5565 24.8505L14.2889 21.5693C13.7831 21.0634 13.1268 21.1181 12.5526 21.6787C11.4862 22.7314 9.61313 27.2294 7.43931 29.3896C6.12681 30.7158 4.54087 30.7158 3.17368 29.3623C1.83384 28.0087 1.82017 26.4091 3.14634 25.0966C5.32017 22.9365 9.81821 21.0634 10.8709 19.997C11.4178 19.4091 11.4862 18.7529 10.9803 18.2607L7.6854 14.9794C7.32993 14.624 7.32993 14.2275 7.6854 13.872ZM5.26548 28.9931C6.19517 28.9931 6.94712 28.2275 6.94712 27.2978C6.94712 26.3681 6.19517 25.6162 5.26548 25.6162C4.33579 25.6162 3.57017 26.3681 3.57017 27.2978C3.57017 28.2275 4.33579 28.9931 5.26548 28.9931ZM21.4666 22.9638L27.9608 16.4697C29.4784 14.9521 29.451 13.1337 27.8924 11.5751L17.16 0.829047C15.7245-0.6065 13.2362-0.0459528 12.7303 2.18256C11.4588 7.706 11.4041 8.36225 9.31235 11.288L10.8846 12.8603C13.2772 9.72944 13.4549 8.19819 14.7674 3.31733C14.9452 2.62006 15.5194 2.44233 15.9842 2.8935L26.2245 13.1201C26.8534 13.749 26.8534 14.5146 26.2655 15.1025L19.9354 21.4326ZM19.3065 15.1708C20.0311 15.8955 24.0233 13.6806 25.4041 11.9443L22.3963 8.95014C22.1366 11.3701 20.8788 13.1201 19.3475 14.6513C19.1698 14.829 19.1834 15.0478 19.3065 15.1708Z" style="fill:var(--color-0,hsl(0 0 0/0.85))"></path>
 </g>
</svg>