<?xml version="1.0" encoding="UTF-8"?>
<!--Generator: Apple Native CoreSVG 326-->
<!DOCTYPE svg
PUBLIC "-//W3C//DTD SVG 1.1//EN"
       "http://www.w3.org/Graphics/SVG/1.1/DTD/svg11.dtd">
<svg version="1.1" xmlns="http://www.w3.org/2000/svg" xmlns:xlink="http://www.w3.org/1999/xlink" viewBox="0 0 30.0382 27.8384">
 <g>
  <rect height="27.8384" opacity="0" width="30.0382" x="0" y="0"/>
  <path d="M0.301339 24.5081C2.58454 27.7893 7.62946 28.9104 10.856 26.6682C13.6451 24.7268 14.2603 21.719 12.4146 19.094C10.7603 16.7151 7.76618 16.0452 5.79743 17.4534C3.5279 19.0667 4.44392 21.2815 3.04939 22.2659C1.88728 23.0999 1.08064 22.5803 0.410714 23.0315C-0.0267857 23.305-0.190848 23.8245 0.301339 24.5081ZM12.9342 17.0706C13.9322 18.0686 14.6842 19.3948 14.8619 20.4749C15.9693 20.2971 16.858 19.7776 17.7877 18.8479C17.9381 18.7112 18.0748 18.5608 18.2115 18.3968C17.6099 15.1018 14.8619 12.3948 11.6217 11.7932C11.4576 11.93 11.3072 12.0803 11.1568 12.2307C10.2271 13.1604 9.72126 14.0764 9.54353 15.1565C10.6099 15.3343 11.9498 16.0725 12.9342 17.0706ZM25.8267 0.814724C25.1295 1.32058 17.5279 6.52957 12.8658 10.6448C15.9556 11.6155 18.3756 14.0218 19.3599 17.1526C23.5025 12.4905 28.6978 4.90261 29.2037 4.19168C30.817 1.93582 28.0006-0.798558 25.8267 0.814724Z" fill="white" fill-opacity="0.85"/>
 </g>
</svg>
