<?xml version="1.0" encoding="UTF-8"?>
<!--Generator: Apple Native CoreSVG 326-->
<!DOCTYPE svg
PUBLIC "-//W3C//DTD SVG 1.1//EN"
       "http://www.w3.org/Graphics/SVG/1.1/DTD/svg11.dtd">
<svg version="1.1" xmlns="http://www.w3.org/2000/svg" xmlns:xlink="http://www.w3.org/1999/xlink" viewBox="0 0 28.2461 27.9043">
 <g>
  <rect height="27.9043" opacity="0" width="28.2461" x="0" y="0"/>
  <path d="M13.9453 27.8906C21.6426 27.8906 27.8906 21.6426 27.8906 13.9453C27.8906 6.24805 21.6426 0 13.9453 0C6.24805 0 0 6.24805 0 13.9453C0 21.6426 6.24805 27.8906 13.9453 27.8906ZM13.9453 25.5664C7.51953 25.5664 2.32422 20.3711 2.32422 13.9453C2.32422 7.51953 7.51953 2.32422 13.9453 2.32422C20.3711 2.32422 25.5664 7.51953 25.5664 13.9453C25.5664 20.3711 20.3711 25.5664 13.9453 25.5664Z" fill="white" fill-opacity="0.85"/>
  <path d="M14.2051 22.5859C14.752 22.5859 15.1484 22.1211 15.4219 21.3965L20.4258 8.3125C20.5625 7.95703 20.6309 7.65625 20.6309 7.39648C20.6309 6.9043 20.3438 6.61719 19.8516 6.61719C19.5918 6.61719 19.291 6.68555 18.9355 6.82227L5.7832 11.8535C5.1543 12.0859 4.66211 12.4824 4.66211 13.0293C4.66211 13.7266 5.18164 13.959 5.91992 14.1914L10.0625 15.4355C10.5547 15.5996 10.8281 15.5859 11.1562 15.2852L19.5098 7.45117C19.6055 7.35547 19.7148 7.38281 19.7969 7.45117C19.8926 7.51953 19.8926 7.64258 19.7969 7.73828L12.0039 16.1328C11.7031 16.4473 11.6758 16.6934 11.8125 17.2129L13.043 21.2461C13.2891 22.0254 13.4941 22.5859 14.2051 22.5859Z" fill="white" fill-opacity="0.85"/>
 </g>
</svg>
