<?xml version="1.0" encoding="UTF-8"?>
<!--Generator: Apple Native CoreSVG 326-->
<!DOCTYPE svg
PUBLIC "-//W3C//DTD SVG 1.1//EN"
       "http://www.w3.org/Graphics/SVG/1.1/DTD/svg11.dtd">
<svg version="1.1" xmlns="http://www.w3.org/2000/svg" xmlns:xlink="http://www.w3.org/1999/xlink" viewBox="0 0 28.2461 27.9043">
 <g>
  <rect height="27.9043" opacity="0" width="28.2461" x="0" y="0"/>
  <path d="M13.9453 27.8906C21.6426 27.8906 27.8906 21.6289 27.8906 13.9453C27.8906 6.24805 21.6426 0 13.9453 0C6.26172 0 0 6.24805 0 13.9453C0 21.6289 6.26172 27.8906 13.9453 27.8906Z" fill="#0a84ff"/>
  <path d="M14.2598 22.832C13.5352 22.832 13.3164 22.2578 13.0703 21.4512L11.7988 17.3086C11.6621 16.7617 11.6895 16.5156 12.0039 16.1875L20.0293 7.5332C20.125 7.42383 20.125 7.30078 20.0293 7.23242C19.9473 7.16406 19.8379 7.13672 19.7285 7.23242L11.1152 15.3125C10.7734 15.6133 10.5 15.627 9.99414 15.4629L5.72852 14.1777C4.96289 13.9453 4.42969 13.6992 4.42969 12.9883C4.42969 12.4141 4.93555 12.0039 5.5918 11.7715L19.1406 6.57617C19.5098 6.43945 19.8105 6.37109 20.084 6.37109C20.5898 6.37109 20.8906 6.67188 20.8906 7.17773C20.8906 7.45117 20.8223 7.75195 20.6855 8.12109L15.5312 21.6016C15.2441 22.3535 14.834 22.832 14.2598 22.832Z" fill="white"/>
 </g>
</svg>
