<?xml version="1.0" encoding="UTF-8"?>
<!--Generator: Apple Native CoreSVG 326-->
<!DOCTYPE svg
PUBLIC "-//W3C//DTD SVG 1.1//EN"
       "http://www.w3.org/Graphics/SVG/1.1/DTD/svg11.dtd">
<svg version="1.1" xmlns="http://www.w3.org/2000/svg" xmlns:xlink="http://www.w3.org/1999/xlink" viewBox="0 0 28.2461 27.9043">
 <g>
  <rect height="27.9043" opacity="0" width="28.2461" x="0" y="0"/>
  <path d="M13.9453 27.8906C21.6426 27.8906 27.8906 21.6426 27.8906 13.9453C27.8906 6.24805 21.6426 0 13.9453 0C6.24805 0 0 6.24805 0 13.9453C0 21.6426 6.24805 27.8906 13.9453 27.8906ZM13.9453 25.5664C7.51953 25.5664 2.32422 20.3711 2.32422 13.9453C2.32422 7.51953 7.51953 2.32422 13.9453 2.32422C20.3711 2.32422 25.5664 7.51953 25.5664 13.9453C25.5664 20.3711 20.3711 25.5664 13.9453 25.5664Z" fill="#98989d"/>
  <path d="M7.88867 20.8223C9.83008 22.7227 12.4824 22.6543 14.3555 20.7949L19.9473 15.2168C20.2207 14.9434 20.248 14.4102 19.9473 14.1367C19.6602 13.8496 19.1406 13.8496 18.8535 14.1504L13.3301 19.6602C12.0586 20.9453 10.2539 20.9453 9.02344 19.7285C7.75195 18.4844 7.79297 16.6934 9.06445 15.3945L16.5977 7.86133C17.4043 7.05469 18.5391 7.01367 19.2637 7.72461C20.002 8.46289 19.9336 9.55664 19.1133 10.377L11.7578 17.7324C11.5117 18.0059 11.2109 17.9922 10.9648 17.7734C10.7051 17.5547 10.7188 17.2129 10.9785 16.9668L16.1191 11.8262C16.4336 11.5117 16.4609 11.0742 16.1465 10.7734C15.832 10.459 15.3945 10.4727 15.0801 10.7871L9.93945 15.9414C9.10547 16.7754 9.06445 18.0742 9.85742 18.8809C10.6641 19.7012 11.9082 19.6738 12.7695 18.8125L20.166 11.416C21.6152 9.9668 21.6699 7.99805 20.3164 6.64453C18.9355 5.29102 16.9668 5.31836 15.5176 6.76758L7.92969 14.3418C6.05664 16.2148 6.05664 19.0176 7.88867 20.8223Z" fill="#98989d"/>
 </g>
</svg>
