<?xml version="1.0" encoding="UTF-8"?>
<!--Generator: Apple Native CoreSVG 326-->
<!DOCTYPE svg
PUBLIC "-//W3C//DTD SVG 1.1//EN"
       "http://www.w3.org/Graphics/SVG/1.1/DTD/svg11.dtd">
<svg version="1.1" xmlns="http://www.w3.org/2000/svg" xmlns:xlink="http://www.w3.org/1999/xlink" viewBox="0 0 39.375 34.9796">
 <g>
  <rect height="34.9796" opacity="0" width="39.375" x="0" y="0"/>
  <path d="M5.64598 7.3255C3.56815 10.1828 2.33789 13.6825 2.33789 17.4829C2.33789 21.2701 3.56836 24.7837 5.64648 27.6138C6.04297 28.1607 5.97461 28.8169 5.48242 29.2408C4.93555 29.6783 4.21094 29.6236 3.78711 29.0357C1.4082 25.7954 0 21.8169 0 17.4829C0 13.149 1.4082 9.15677 3.78711 5.91654C3.85341 5.82671 3.92707 5.74927 4.00692 5.68568ZM35.2324 5.91654C37.625 9.15677 39.0195 13.149 39.0195 17.4829C39.0195 21.8169 37.625 25.7954 35.2324 29.0357C35.1772 29.1122 35.1169 29.1798 35.0524 29.2379L33.3957 27.5805C35.4741 24.7569 36.6816 21.2556 36.6816 17.4829C36.6816 13.6822 35.4648 10.1822 33.373 7.32474C32.9902 6.80521 33.0312 6.13529 33.5371 5.71146C34.084 5.27396 34.8086 5.34232 35.2324 5.91654Z" fill="#ff453a"/>
  <path d="M10.1043 11.7859C9.08502 13.4429 8.50391 15.3953 8.50391 17.4829C8.50391 23.5533 13.4395 28.4888 19.5098 28.4888C21.5956 28.4888 23.5464 27.9087 25.2025 26.891L26.8926 28.5819C24.7801 29.9925 22.2407 30.813 19.5098 30.813C12.1543 30.813 6.17969 24.8384 6.17969 17.4829C6.17969 14.7487 7.00222 12.2083 8.41565 10.0965ZM32.8535 17.4829C32.8535 20.1957 32.0408 22.7206 30.6407 24.8242L28.9507 23.1334C29.9567 21.4864 30.5293 19.5505 30.5293 17.4829C30.5293 11.399 25.5938 6.46341 19.5098 6.46341C17.444 6.46341 15.5097 7.03497 13.8636 8.03937L12.1797 6.35466C14.2808 4.96088 16.8017 4.15287 19.5098 4.15287C26.8789 4.15287 32.8535 10.1138 32.8535 17.4829Z" fill="#ff453a"/>
  <path d="M17.8418 19.5269L17.8418 22.5142C17.8418 23.2661 17.459 23.7447 16.7344 23.7447C16.0371 23.7447 15.6543 23.2388 15.6543 22.5142L15.6543 17.3384ZM24.9922 15.3365C24.9922 16.4767 24.627 17.4428 23.9752 18.1556L22.5071 16.6868C22.72 16.3135 22.832 15.8577 22.832 15.3365C22.832 13.7642 21.834 12.7935 20.2344 12.7935L18.6156 12.7935L16.9484 11.1255L20.5488 11.1255C23.1875 11.1255 24.9922 12.8208 24.9922 15.3365Z" fill="#ff453a"/>
  <path d="M33.6465 33.0689C34.0566 33.479 34.7402 33.479 35.1367 33.0689C35.5469 32.6587 35.5469 31.9888 35.1367 31.5786L5.53711 1.97904C5.12695 1.56888 4.45703 1.55521 4.0332 1.97904C3.63672 2.37552 3.63672 3.05912 4.0332 3.46927Z" fill="#ff453a"/>
 </g>
</svg>
