<?xml version="1.0" encoding="UTF-8"?>
<!--Generator: Apple Native CoreSVG 326-->
<!DOCTYPE svg
PUBLIC "-//W3C//DTD SVG 1.1//EN"
       "http://www.w3.org/Graphics/SVG/1.1/DTD/svg11.dtd">
<svg version="1.1" xmlns="http://www.w3.org/2000/svg" xmlns:xlink="http://www.w3.org/1999/xlink" viewBox="0 0 42.2734 28.8488">
 <g>
  <rect height="28.8488" opacity="0" width="42.2734" x="0" y="0"/>
  <path d="M5.27734 19.0797C5.71484 18.5875 5.57812 17.9449 5.08594 17.3844C3.25391 15.3473 2.22852 12.6676 2.22852 9.72812C2.22852 6.78866 3.25391 4.10898 5.08594 2.07187C5.57812 1.51132 5.71484 0.868741 5.27734 0.376554C4.83984-0.142978 4.07422-0.129306 3.55469 0.444913C1.28516 2.90585 0 6.1871 0 9.72812C0 13.2691 1.28516 16.5504 3.55469 19.0113C4.07422 19.5855 4.83984 19.5855 5.27734 19.0797ZM36.6406 19.0797C37.0781 19.5855 37.8438 19.5855 38.3633 19.0113C40.6465 16.5504 41.918 13.2691 41.918 9.72812C41.918 6.1871 40.6465 2.90585 38.3633 0.444913C37.8438-0.129306 37.0781-0.142978 36.6406 0.376554C36.2031 0.868741 36.3398 1.51132 36.832 2.07187C38.6641 4.10898 39.6895 6.78866 39.6895 9.72812C39.6895 12.6676 38.6641 15.3473 36.832 17.3844C36.3398 17.9449 36.2031 18.5875 36.6406 19.0797Z" fill="white" fill-opacity="0.85"/>
  <path d="M9.10547 15.1832C9.54297 14.691 9.36523 14.0758 8.92773 13.4879C8.10742 12.4625 7.71094 11.15 7.71094 9.72812C7.71094 8.30624 8.10742 6.98007 8.92773 5.96835C9.36523 5.38046 9.54297 4.76523 9.10547 4.27304C8.6543 3.75351 7.83398 3.75351 7.35547 4.36874C6.16602 5.8453 5.48242 7.71835 5.48242 9.72812C5.48242 11.7379 6.16602 13.6109 7.35547 15.0875C7.83398 15.7027 8.6543 15.6891 9.10547 15.1832ZM32.8125 15.1832C33.2637 15.6891 34.084 15.7027 34.5625 15.0875C35.752 13.6109 36.4355 11.7379 36.4355 9.72812C36.4355 7.71835 35.752 5.8453 34.5625 4.36874C34.084 3.75351 33.2637 3.75351 32.8125 4.27304C32.375 4.76523 32.5527 5.38046 32.9902 5.96835C33.8105 6.98007 34.207 8.30624 34.207 9.72812C34.207 11.15 33.8105 12.4625 32.9902 13.4879C32.5527 14.0758 32.375 14.691 32.8125 15.1832Z" fill="white" fill-opacity="0.85"/>
  <path d="M14.3555 27.4195C15.3672 27.4195 16.0371 26.7223 16.0371 25.6832L16.0371 17.9586L21.6152 17.9586C26.5645 17.9586 29.9824 14.568 29.9824 9.72812C29.9824 4.86093 26.5781 1.51132 21.6289 1.51132L14.3555 1.51132C13.3438 1.51132 12.6738 2.19491 12.6738 3.24765L12.6738 25.6832C12.6738 26.7359 13.3438 27.4195 14.3555 27.4195ZM16.0371 14.8414L16.0371 4.60116L21 4.60116C24.5273 4.60116 26.5371 6.46054 26.5371 9.72812C26.5371 12.9684 24.5137 14.8414 21 14.8414Z" fill="white" fill-opacity="0.85"/>
 </g>
</svg>
