<?xml version="1.0" encoding="UTF-8"?>
<!--Generator: Apple Native CoreSVG 326-->
<!DOCTYPE svg
PUBLIC "-//W3C//DTD SVG 1.1//EN"
       "http://www.w3.org/Graphics/SVG/1.1/DTD/svg11.dtd">
<svg version="1.1" xmlns="http://www.w3.org/2000/svg" xmlns:xlink="http://www.w3.org/1999/xlink" viewBox="0 0 28.2461 27.9043">
 <g>
  <rect height="27.9043" opacity="0" width="28.2461" x="0" y="0"/>
  <path d="M13.9453 27.8906C21.6426 27.8906 27.8906 21.6426 27.8906 13.9453C27.8906 6.24805 21.6426 0 13.9453 0C6.24805 0 0 6.24805 0 13.9453C0 21.6426 6.24805 27.8906 13.9453 27.8906ZM13.9453 25.5664C7.51953 25.5664 2.32422 20.3711 2.32422 13.9453C2.32422 7.51953 7.51953 2.32422 13.9453 2.32422C20.3711 2.32422 25.5664 7.51953 25.5664 13.9453C25.5664 20.3711 20.3711 25.5664 13.9453 25.5664Z" fill="white" fill-opacity="0.85"/>
  <path d="M10.9922 20.207C11.7168 20.207 12.0996 19.7285 12.0996 18.9766L12.0996 15.9824L14.793 15.9824C17.459 15.9824 19.25 14.3145 19.25 11.7988C19.25 9.2832 17.4453 7.58789 14.8066 7.58789L10.9785 7.58789C10.2812 7.58789 9.91211 8.08008 9.91211 8.81836L9.91211 18.9766C9.91211 19.7012 10.2949 20.207 10.9922 20.207ZM12.0996 14.3145L12.0996 9.25586L14.4922 9.25586C16.0918 9.25586 17.0898 10.2266 17.0898 11.7988C17.0898 13.3438 16.1055 14.3145 14.4922 14.3145Z" fill="white" fill-opacity="0.85"/>
 </g>
</svg>
