<svg version="1.1" xmlns="http://www.w3.org/2000/svg" xmlns:xlink="http://www.w3.org/1999/xlink" viewBox="0 0 19.4141 28.752">
 <g>
  
  <path d="M10.0215 17.6914C12.2227 17.6094 14.3691 16.6523 16.0098 15.0117C17.6367 13.3848 18.5801 11.252 18.6484 9.05078C18.6895 8.49023 18.3066 8.08008 17.8145 8.12109C17.3223 8.14844 17.0762 8.55859 17.0488 9.07812C16.9395 10.8691 16.1875 12.5234 14.8477 13.8633C13.5078 15.2168 11.8398 15.9414 10.0762 16.0508C9.54297 16.0781 9.10547 16.3379 9.10547 16.8711C9.0918 17.3906 9.46094 17.7188 10.0215 17.6914Z" style="fill:var(--color-0,hsl(0 0 0/0.85))"></path>
  <path d="M10.1035 14.123C11.334 14 12.5508 13.4121 13.4941 12.5098C14.4238 11.5664 14.9844 10.3359 15.1211 9.11914C15.1895 8.54492 14.752 8.12109 14.2598 8.14844C13.7812 8.17578 13.5488 8.59961 13.4668 9.10547C13.3574 9.92578 12.9609 10.7051 12.3047 11.334C11.6758 11.9902 10.9102 12.4004 10.0898 12.4961C9.58398 12.5781 9.13281 12.7832 9.13281 13.3438C9.11914 13.877 9.48828 14.1914 10.1035 14.123Z" style="fill:var(--color-1,hsl(0 0 0/0.85))"></path>
  <path d="M1.6543 17.1445C2.36523 17.1445 2.84375 16.666 2.84375 15.9414L2.84375 10.9922L6.37109 10.9922C9.66602 10.9922 11.9219 8.76367 11.9219 5.53711C11.9219 2.33789 9.67969 0.0957031 6.38477 0.0957031L1.6543 0.0957031C0.943359 0.0957031 0.464844 0.574219 0.464844 1.3125L0.464844 15.9414C0.464844 16.666 0.943359 17.1445 1.6543 17.1445ZM2.84375 8.79102L2.84375 2.29688L5.97461 2.29688C8.23047 2.29688 9.48828 3.44531 9.48828 5.53711C9.48828 7.62891 8.23047 8.79102 5.97461 8.79102Z" style="fill:var(--color-2,hsl(0 0 0/0.85))"></path>
  <path d="M3.44531 28.752C5.75586 28.752 6.89062 27.0566 6.89062 24.8008C6.89062 22.5039 5.72852 20.8359 3.44531 20.8359C1.2168 20.8359 0 22.4629 0 24.8008C0 27.0156 1.10742 28.752 3.44531 28.752ZM3.44531 27.3027C2.20117 27.3027 1.77734 26.0039 1.77734 24.8008C1.77734 23.5156 2.25586 22.2988 3.44531 22.2988C4.7168 22.2988 5.11328 23.5977 5.11328 24.8008C5.11328 26.1133 4.63477 27.3027 3.44531 27.3027ZM8.99609 28.6699C9.625 28.6699 9.87109 28.2598 9.87109 27.7812L9.87109 25.6621L12.0449 25.6621C12.4961 25.6621 12.7832 25.416 12.7832 24.9785C12.7832 24.541 12.5098 24.2812 12.0449 24.2812L9.87109 24.2812L9.87109 22.4629L12.2773 22.4629C12.7695 22.4629 13.043 22.2168 13.043 21.752C13.043 21.2734 12.7695 21.0137 12.2773 21.0137L8.98242 21.0137C8.47656 21.0137 8.13477 21.3418 8.13477 21.9297L8.13477 27.7812C8.13477 28.2598 8.38086 28.6699 8.99609 28.6699ZM15.0117 28.6699C15.627 28.6699 15.873 28.2598 15.873 27.7812L15.873 25.6621L18.0469 25.6621C18.498 25.6621 18.7988 25.416 18.7988 24.9785C18.7988 24.541 18.5117 24.2812 18.0469 24.2812L15.873 24.2812L15.873 22.4629L18.2793 22.4629C18.7852 22.4629 19.0586 22.2168 19.0586 21.752C19.0586 21.2734 18.7852 21.0137 18.2793 21.0137L14.998 21.0137C14.4922 21.0137 14.1367 21.3418 14.1367 21.9297L14.1367 27.7812C14.1367 28.2598 14.3965 28.6699 15.0117 28.6699Z" style="fill:var(--color-3,hsl(0 0 0/0.85))"></path>
 </g>
</svg>