<?xml version="1.0" encoding="UTF-8"?>
<!--Generator: Apple Native CoreSVG 326-->
<!DOCTYPE svg
PUBLIC "-//W3C//DTD SVG 1.1//EN"
       "http://www.w3.org/Graphics/SVG/1.1/DTD/svg11.dtd">
<svg version="1.1" xmlns="http://www.w3.org/2000/svg" xmlns:xlink="http://www.w3.org/1999/xlink" viewBox="0 0 17.6777 25.9902">
 <g>
  <rect height="25.9902" opacity="0" width="17.6777" x="0" y="0"/>
  <path d="M1.68164 25.9902C2.70703 25.9902 3.37695 25.293 3.37695 24.2539L3.37695 16.5293L8.95508 16.5293C13.8906 16.5293 17.3223 13.1387 17.3223 8.29883C17.3223 3.43164 13.9043 0.0820312 8.96875 0.0820312L1.68164 0.0820312C0.669922 0.0820312 0 0.765625 0 1.81836L0 24.2539C0 25.3066 0.669922 25.9902 1.68164 25.9902ZM3.37695 13.4121L3.37695 3.17188L8.33984 3.17188C11.8535 3.17188 13.877 5.03125 13.877 8.29883C13.877 11.5391 11.8535 13.4121 8.33984 13.4121Z" fill="white" fill-opacity="0.85"/>
 </g>
</svg>
