<svg version="1.1" xmlns="http://www.w3.org/2000/svg" xmlns:xlink="http://www.w3.org/1999/xlink" viewBox="0 0 39.375 26.6738">
 <g>
  
  <path d="M0 13.3301C0 17.6641 1.4082 21.6426 3.78711 24.8828C4.21094 25.4707 4.93555 25.5254 5.48242 25.0879C5.97461 24.6641 6.04297 24.0078 5.64648 23.4609C3.56836 20.6309 2.33789 17.1172 2.33789 13.3301C2.33789 9.5293 3.56836 6.0293 5.64648 3.17188C6.04297 2.65234 5.98828 1.98242 5.48242 1.55859C4.93555 1.12109 4.21094 1.18945 3.78711 1.76367C1.4082 5.00391 0 8.99609 0 13.3301ZM39.0195 13.3301C39.0195 8.99609 37.625 5.00391 35.2324 1.76367C34.8086 1.18945 34.084 1.12109 33.5371 1.55859C33.0312 1.98242 32.9902 2.65234 33.373 3.17188C35.4648 6.0293 36.6816 9.5293 36.6816 13.3301C36.6816 17.1172 35.4648 20.6309 33.373 23.4609C32.9902 24.0078 33.0449 24.6641 33.5371 25.0879C34.084 25.5254 34.8086 25.4707 35.2324 24.8828C37.625 21.6426 39.0195 17.6641 39.0195 13.3301Z" style="fill:var(--color-0,#ff3b30)"></path>
  <path d="M19.5098 26.6602C26.8789 26.6602 32.8535 20.6855 32.8535 13.3301C32.8535 5.96094 26.8789 0 19.5098 0C12.1543 0 6.17969 5.96094 6.17969 13.3301C6.17969 20.6855 12.1543 26.6602 19.5098 26.6602ZM19.5098 24.3359C13.4395 24.3359 8.50391 19.4004 8.50391 13.3301C8.50391 7.24609 13.4395 2.31055 19.5098 2.31055C25.5938 2.31055 30.5293 7.24609 30.5293 13.3301C30.5293 19.4004 25.5938 24.3359 19.5098 24.3359Z" style="fill:var(--color-1,#ff3b30)"></path>
  <path d="M16.7344 19.5918C17.4453 19.5918 17.8418 19.1133 17.8418 18.3613L17.8418 15.3672L20.5352 15.3672C23.2012 15.3672 24.9922 13.6992 24.9922 11.1836C24.9922 8.66797 23.1875 6.97266 20.5488 6.97266L16.7207 6.97266C16.0234 6.97266 15.6543 7.46484 15.6543 8.20312L15.6543 18.3613C15.6543 19.0859 16.0371 19.5918 16.7344 19.5918ZM17.8418 13.6992L17.8418 8.64062L20.2207 8.64062C21.834 8.64062 22.832 9.61133 22.832 11.1836C22.832 12.7285 21.834 13.6992 20.2207 13.6992Z" style="fill:var(--color-2,#ff3b30)"></path>
 </g>
</svg>