<?xml version="1.0" encoding="UTF-8"?>
<!--Generator: Apple Native CoreSVG 326-->
<!DOCTYPE svg
PUBLIC "-//W3C//DTD SVG 1.1//EN"
       "http://www.w3.org/Graphics/SVG/1.1/DTD/svg11.dtd">
<svg version="1.1" xmlns="http://www.w3.org/2000/svg" xmlns:xlink="http://www.w3.org/1999/xlink" viewBox="0 0 34.9872 34.2754">
 <g>
  <rect height="34.2754" opacity="0" width="34.9872" x="0" y="0"/>
  <path d="M12.6601 10.9363C12.6558 11.571 12.6216 12.2068 12.5622 12.8424C11.4869 12.4 10.6641 12.3674 10.268 12.7695C9.35199 13.6719 10.6782 16.8027 13.9594 20.0703C17.2407 23.3652 20.3579 24.7051 21.2739 23.7754C21.6808 23.3746 21.6373 22.5179 21.1592 21.3957C21.7553 21.339 22.3514 21.3047 22.9469 21.2979C23.6078 23.2362 23.4655 24.9649 21.6977 25.7031L3.22699 33.4141C1.20355 34.2617-0.669492 32.334 0.232852 30.3242L8.34027 12.3594C9.17339 10.5417 10.8194 10.3294 12.6601 10.9363ZM1.95551 31.0625C1.73676 31.5547 2.03754 31.8418 2.50238 31.6504L17.9926 25.2109C16.2836 24.5137 14.3696 23.1602 12.6196 21.4238C10.8422 19.6328 9.46137 17.6641 8.77777 15.9277ZM22.1143 19.4342C21.4701 19.4656 20.824 19.5244 20.174 19.6134C19.6568 18.8311 18.9877 17.9874 18.1751 17.1242L19.5158 15.781C20.4609 16.8353 21.4048 18.1269 22.1143 19.4342ZM18.1655 14.4332L16.8178 15.7782C15.9509 14.9711 15.1066 14.31 14.3265 13.8026C14.4216 13.1226 14.4834 12.4457 14.5169 11.7705C15.8015 12.4831 17.0818 13.4523 18.1655 14.4332Z" fill="white" fill-opacity="0.85"/>
  <path d="M12.2778 2.99414C13.0981 2.99414 13.7817 2.32422 13.7817 1.49023C13.7817 0.669922 13.0981 3.55271e-15 12.2778 3.55271e-15C11.4301 3.55271e-15 10.7739 0.669922 10.7739 1.49023C10.7739 2.32422 11.4301 2.99414 12.2778 2.99414ZM14.0825 5.55078C13.9868 5.04492 13.6586 4.62109 13.1254 4.62109C12.6196 4.63477 12.1 5.05859 12.2094 5.60547C12.8246 8.81836 12.8246 12.127 12.2094 15.3945C12.0864 15.9277 12.6196 16.3379 13.1118 16.3516C13.6313 16.3516 13.9731 15.9414 14.0688 15.4355C14.7114 12.0996 14.7114 8.8457 14.0825 5.55078ZM20.727 5.35938C22.1625 5.35938 23.2973 4.21094 23.2973 2.78906C23.2973 1.33984 22.1625 0.21875 20.727 0.21875C19.2914 0.21875 18.1567 1.33984 18.1567 2.78906C18.1567 4.21094 19.2914 5.35938 20.727 5.35938ZM18.1293 9.66602C18.7993 9.66602 19.3325 9.11914 19.3325 8.44922C19.3325 7.79297 18.7993 7.24609 18.1293 7.24609C17.4731 7.24609 16.9125 7.79297 16.9125 8.44922C16.9125 9.11914 17.4731 9.66602 18.1293 9.66602ZM31.8832 3.77344C32.5395 3.77344 33.0727 3.24023 33.0727 2.57031C33.0727 1.90039 32.5395 1.35352 31.8832 1.35352C31.2133 1.35352 30.6801 1.90039 30.6801 2.57031C30.6801 3.24023 31.2133 3.77344 31.8832 3.77344ZM27.9321 4.66211L25.3754 7.21875C25.02 7.58789 25.02 8.18945 25.3754 8.55859C25.7582 8.92773 26.3598 8.92773 26.7289 8.55859L29.2856 6.01563C29.6411 5.64648 29.6411 5.03125 29.2856 4.66211C28.9164 4.30664 28.3012 4.30664 27.9321 4.66211ZM22.8598 9.74805L15.8871 16.707C15.5317 17.0762 15.5317 17.6914 15.8871 18.0605C16.2563 18.416 16.8715 18.416 17.2407 18.0605L24.1996 11.0879C24.5414 10.7324 24.5414 10.1309 24.1996 9.74805C23.8168 9.40625 23.2153 9.40625 22.8598 9.74805ZM33.1274 16.0371C33.9614 16.0371 34.6313 15.3672 34.6313 14.5195C34.6313 13.6992 33.9614 13.0293 33.1274 13.0293C32.2797 13.0293 31.6235 13.6992 31.6235 14.5195C31.6235 15.3672 32.2797 16.0371 33.1274 16.0371ZM27.2485 16.5977C28.4653 16.5977 29.436 15.6543 29.436 14.4375C29.436 13.2344 28.4653 12.2637 27.2485 12.2637C26.0454 12.2637 25.102 13.2344 25.102 14.4375C25.102 15.6543 26.0454 16.5977 27.2485 16.5977ZM32.6079 23.0371C33.4418 23.0371 34.1118 22.3809 34.1118 21.5332C34.1118 20.6992 33.4418 20.0293 32.6079 20.0293C31.7739 20.0293 31.1039 20.6992 31.1039 21.5332C31.1039 22.3809 31.7739 23.0371 32.6079 23.0371ZM28.4379 19.8652C25.1293 19.2363 21.8891 19.2363 18.5395 19.8652C18.0473 19.9746 17.6235 20.3164 17.6371 20.8223C17.6371 21.3281 18.0473 21.8613 18.5942 21.752C21.8618 21.1367 25.1567 21.123 28.3832 21.7383C28.9028 21.8477 29.3403 21.3418 29.3539 20.8223C29.3676 20.2891 28.9301 19.9609 28.4379 19.8652Z" fill="white" fill-opacity="0.85"/>
 </g>
</svg>
