<svg version="1.1" xmlns="http://www.w3.org/2000/svg" xmlns:xlink="http://www.w3.org/1999/xlink" viewBox="0 0 17.0352 22.627">
 <g>
  
  <path d="M1.81836 22.6133L4.93555 22.6133C6.125 22.6133 6.75391 21.9844 6.75391 20.7812L6.75391 1.81836C6.75391 0.560547 6.125 0 4.93555 0L1.81836 0C0.628906 0 0 0.615234 0 1.81836L0 20.7812C0 21.9844 0.628906 22.6133 1.81836 22.6133ZM11.7578 22.6133L14.8613 22.6133C16.0645 22.6133 16.6797 21.9844 16.6797 20.7812L16.6797 1.81836C16.6797 0.560547 16.0645 0 14.8613 0L11.7578 0C10.5547 0 9.92578 0.615234 9.92578 1.81836L9.92578 20.7812C9.92578 21.9844 10.5547 22.6133 11.7578 22.6133Z" style="fill:var(--color-0,hsl(0 0 0/0.85))"></path>
 </g>
</svg>