<?xml version="1.0" encoding="UTF-8"?>
<!--Generator: Apple Native CoreSVG 326-->
<!DOCTYPE svg
PUBLIC "-//W3C//DTD SVG 1.1//EN"
       "http://www.w3.org/Graphics/SVG/1.1/DTD/svg11.dtd">
<svg version="1.1" xmlns="http://www.w3.org/2000/svg" xmlns:xlink="http://www.w3.org/1999/xlink" viewBox="0 0 11.7305 22.627">
 <g>
  <rect height="22.627" opacity="0" width="11.7305" x="0" y="0"/>
  <path d="M1.16211 22.6133C1.81836 22.6133 2.33789 22.1074 2.33789 21.4648L2.33789 1.13477C2.33789 0.492188 1.81836 0 1.16211 0C0.519531 0 0 0.492188 0 1.13477L0 21.4648C0 22.1074 0.519531 22.6133 1.16211 22.6133ZM10.1992 22.6133C10.8418 22.6133 11.375 22.1074 11.375 21.4648L11.375 1.13477C11.375 0.492188 10.8418 0 10.1992 0C9.55664 0 9.03711 0.492188 9.03711 1.13477L9.03711 21.4648C9.03711 22.1074 9.55664 22.6133 10.1992 22.6133Z" fill="white" fill-opacity="0.85"/>
 </g>
</svg>
