<svg version="1.1" xmlns="http://www.w3.org/2000/svg" xmlns:xlink="http://www.w3.org/1999/xlink" viewBox="0 0 28.2461 27.9043">
 <g>
  
  <path d="M13.9453 27.8906C21.6426 27.8906 27.8906 21.6426 27.8906 13.9453C27.8906 6.24805 21.6426 0 13.9453 0C6.24805 0 0 6.24805 0 13.9453C0 21.6426 6.24805 27.8906 13.9453 27.8906ZM13.9453 25.5664C7.51953 25.5664 2.32422 20.3711 2.32422 13.9453C2.32422 7.51953 7.51953 2.32422 13.9453 2.32422C20.3711 2.32422 25.5664 7.51953 25.5664 13.9453C25.5664 20.3711 20.3711 25.5664 13.9453 25.5664Z" style="fill:var(--color-0,hsl(0 0 0/0.85))"></path>
  <path d="M6.64453 12.8926C6.64453 14.2598 7.36914 15.3125 8.3125 15.3125C9.24219 15.3125 9.98047 14.2598 9.98047 12.8926C9.98047 11.5254 9.24219 10.459 8.3125 10.459C7.36914 10.459 6.64453 11.5254 6.64453 12.8926ZM10.0078 8.88672C10.0078 10.2539 10.7461 11.3203 11.6758 11.3203C12.6191 11.3203 13.3438 10.2539 13.3438 8.88672C13.3438 7.5332 12.6191 6.48047 11.6758 6.48047C10.7461 6.48047 10.0078 7.51953 10.0078 8.88672ZM14.5332 8.88672C14.5332 10.2539 15.2578 11.3203 16.1875 11.3203C17.1309 11.3203 17.8691 10.2539 17.8691 8.88672C17.8691 7.51953 17.1309 6.48047 16.1875 6.48047C15.2578 6.48047 14.5332 7.5332 14.5332 8.88672ZM17.8965 12.8926C17.8965 14.2598 18.6348 15.3125 19.5645 15.3125C20.4941 15.3125 21.2188 14.2598 21.2188 12.8926C21.2188 11.5254 20.4941 10.459 19.5645 10.459C18.6348 10.459 17.8965 11.5254 17.8965 12.8926ZM8.73633 18.2383C8.73633 19.6465 9.66602 20.6309 11.0605 20.6309C11.7441 20.6309 12.2363 20.4531 12.7148 20.2754C13.1113 20.1387 13.4805 20.0293 13.9316 20.0293C14.3828 20.0293 14.7656 20.1387 15.1484 20.2754C15.6406 20.4531 16.1328 20.6309 16.8027 20.6309C18.1973 20.6309 19.1406 19.6465 19.1406 18.2383C19.1406 17.0625 18.4297 16.4473 17.7461 15.8867C17.377 15.5859 17.0078 15.2988 16.7344 14.9023C16.5293 14.6016 16.3652 14.2461 16.2148 13.9316C15.7227 12.8652 15.3398 11.8809 13.9316 11.8809C12.5371 11.8809 12.1406 12.8789 11.6621 13.9316C11.498 14.2461 11.334 14.5879 11.1426 14.8887C10.8691 15.2988 10.5 15.5859 10.1309 15.8867C9.44727 16.4473 8.73633 17.0625 8.73633 18.2383Z" style="fill:var(--color-1,hsl(0 0 0/0.85))"></path>
 </g>
</svg>