<svg version="1.1" xmlns="http://www.w3.org/2000/svg" xmlns:xlink="http://www.w3.org/1999/xlink" viewBox="0 0 28.2461 27.9043">
 <g>
  
  <path d="M13.9453 27.8906C21.6426 27.8906 27.8906 21.6289 27.8906 13.9453C27.8906 6.24805 21.6426 0 13.9453 0C6.26172 0 0 6.24805 0 13.9453C0 21.6289 6.26172 27.8906 13.9453 27.8906Z" style="fill:var(--color-0,hsl(0 0 0/0.85))"></path>
  <path d="M6.41211 12.8789C6.41211 11.457 7.16406 10.3633 8.13477 10.3633C9.0918 10.3633 9.85742 11.457 9.85742 12.8789C9.85742 14.2871 9.0918 15.3672 8.13477 15.3672C7.16406 15.3672 6.41211 14.2871 6.41211 12.8789ZM9.88477 8.73633C9.88477 7.32812 10.6504 6.26172 11.6074 6.26172C12.5781 6.26172 13.3301 7.3418 13.3301 8.73633C13.3301 10.1445 12.5781 11.252 11.6074 11.252C10.6504 11.252 9.88477 10.1445 9.88477 8.73633ZM14.5469 8.73633C14.5469 7.3418 15.2988 6.26172 16.2559 6.26172C17.2266 6.26172 17.9922 7.32812 17.9922 8.73633C17.9922 10.1445 17.2266 11.252 16.2559 11.252C15.2988 11.252 14.5469 10.1445 14.5469 8.73633ZM18.0195 12.8789C18.0195 11.457 18.7852 10.3633 19.7422 10.3633C20.6992 10.3633 21.4512 11.457 21.4512 12.8789C21.4512 14.2871 20.6992 15.3672 19.7422 15.3672C18.7852 15.3672 18.0195 14.2871 18.0195 12.8789ZM8.57227 18.3887C8.57227 17.1719 9.31055 16.543 10.0078 15.9551C10.3906 15.6543 10.7734 15.3535 11.0605 14.9297C11.252 14.6152 11.416 14.2734 11.5938 13.9453C12.0859 12.8516 12.4961 11.8262 13.9316 11.8262C15.3809 11.8262 15.7773 12.8379 16.2832 13.9453C16.4473 14.2734 16.6113 14.6289 16.8164 14.9434C17.1035 15.3535 17.4863 15.6543 17.8691 15.9551C18.5664 16.543 19.3047 17.1719 19.3047 18.3887C19.3047 19.8379 18.334 20.8496 16.8984 20.8496C16.2012 20.8496 15.6953 20.6719 15.1895 20.4941C14.793 20.3438 14.3965 20.2344 13.9316 20.2344C13.4668 20.2344 13.084 20.3438 12.6738 20.4941C12.1816 20.6719 11.6758 20.8496 10.9648 20.8496C9.5293 20.8496 8.57227 19.8379 8.57227 18.3887Z" style="fill:var(--color-1,white)"></path>
 </g>
</svg>