<?xml version="1.0" encoding="UTF-8"?>
<!--Generator: Apple Native CoreSVG 326-->
<!DOCTYPE svg
PUBLIC "-//W3C//DTD SVG 1.1//EN"
       "http://www.w3.org/Graphics/SVG/1.1/DTD/svg11.dtd">
<svg version="1.1" xmlns="http://www.w3.org/2000/svg" xmlns:xlink="http://www.w3.org/1999/xlink" viewBox="0 0 29.1211 28.0137">
 <g>
  <rect height="28.0137" opacity="0" width="29.1211" x="0" y="0"/>
  <path d="M0 12.6738C0 15.3809 1.42188 17.459 3.26758 17.459C5.11328 17.459 6.54883 15.3809 6.54883 12.6738C6.54883 9.98047 5.11328 7.88867 3.26758 7.88867C1.42188 7.88867 0 9.98047 0 12.6738ZM6.63086 4.78516C6.63086 7.47852 8.08008 9.55664 9.91211 9.55664C11.7715 9.55664 13.207 7.46484 13.207 4.78516C13.207 2.07812 11.7715 0 9.91211 0C8.08008 0 6.63086 2.07812 6.63086 4.78516ZM15.5723 4.78516C15.5723 7.46484 16.9941 9.55664 18.8535 9.55664C20.6855 9.55664 22.1348 7.47852 22.1348 4.78516C22.1348 2.07812 20.6855 0 18.8535 0C16.9941 0 15.5723 2.07812 15.5723 4.78516ZM22.2168 12.6738C22.2168 15.3809 23.6523 17.459 25.498 17.459C27.3438 17.459 28.7656 15.3809 28.7656 12.6738C28.7656 9.98047 27.3438 7.88867 25.498 7.88867C23.6523 7.88867 22.2168 9.98047 22.2168 12.6738ZM4.10156 23.2559C4.10156 26.0176 5.96094 27.9863 8.69531 27.9863C10.0488 27.9863 11.0332 27.6035 11.9766 27.2754C12.7422 27.002 13.4805 26.7559 14.3828 26.7559C15.2715 26.7559 16.0098 27.002 16.7891 27.2754C17.7324 27.6035 18.7031 27.9863 20.0566 27.9863C22.8047 27.9863 24.6641 26.0176 24.6641 23.2559C24.6641 20.9043 23.2559 19.7148 21.9023 18.6074C21.1504 18.0059 20.4258 17.4316 19.9336 16.666C19.5234 16.0508 19.1816 15.3809 18.8945 14.752C17.9102 12.6465 17.1309 10.6641 14.3828 10.6641C11.6211 10.6641 10.8555 12.6465 9.87109 14.7383C9.57031 15.3809 9.24219 16.0371 8.8457 16.6387C8.33984 17.4043 7.60156 18.0059 6.86328 18.6074C5.50977 19.7148 4.10156 20.918 4.10156 23.2559Z" fill="white" fill-opacity="0.85"/>
 </g>
</svg>
