<?xml version="1.0" encoding="UTF-8"?>
<!--Generator: Apple Native CoreSVG 326-->
<!DOCTYPE svg
PUBLIC "-//W3C//DTD SVG 1.1//EN"
       "http://www.w3.org/Graphics/SVG/1.1/DTD/svg11.dtd">
<svg version="1.1" xmlns="http://www.w3.org/2000/svg" xmlns:xlink="http://www.w3.org/1999/xlink" viewBox="0 0 23.5703 29.3809">
 <g>
  <rect height="29.3809" opacity="0" width="23.5703" x="0" y="0"/>
  <path d="M7.95703 29.3672L19.0449 29.3672C21.6426 29.3672 23.2012 27.8359 23.2012 25.2656L23.2148 4.14258C23.2148 1.68164 21.5605 0 19.0859 0L5.90625 0C2.26953 0 0 2.29688 0 5.91992L0 8.01172C0 11.6621 0.861328 14.1094 2.84375 16.6797L3.80078 17.9375L3.80078 25.2656C3.80078 27.8359 5.35938 29.3672 7.95703 29.3672ZM7.95703 27.166C6.78125 27.166 6.00195 26.4141 6.00195 25.252L6.00195 17.1992L4.58008 15.3262C2.93945 13.1797 2.20117 11.0742 2.20117 7.94336L2.20117 5.93359C2.20117 3.65039 3.62305 2.20117 5.91992 2.20117L19.0859 2.20117C20.248 2.20117 21.0137 2.9668 21.0137 4.14258L21 25.252C21 26.4141 20.2207 27.166 19.0449 27.166Z" fill="white" fill-opacity="0.85"/>
  <path d="M5.86523 8.62695L17.8145 8.62695C18.3066 8.62695 18.7031 8.23047 18.7031 7.73828C18.7031 7.24609 18.3066 6.83594 17.8145 6.83594L5.86523 6.83594C5.37305 6.83594 4.97656 7.24609 4.97656 7.73828C4.97656 8.23047 5.37305 8.62695 5.86523 8.62695ZM7.0957 13.6992L17.8145 13.6992C18.3066 13.6992 18.7031 13.2891 18.7031 12.7969C18.7031 12.3047 18.3066 11.9082 17.8145 11.9082L7.0957 11.9082C6.60352 11.9082 6.19336 12.3047 6.19336 12.7969C6.19336 13.2891 6.60352 13.6992 7.0957 13.6992ZM9.1875 18.7305L17.8145 18.7305C18.3066 18.7305 18.7031 18.334 18.7031 17.8418C18.7031 17.3496 18.3066 16.9395 17.8145 16.9395L9.1875 16.9395C8.69531 16.9395 8.28516 17.3496 8.28516 17.8418C8.28516 18.334 8.69531 18.7305 9.1875 18.7305ZM9.1875 23.8027L17.8145 23.8027C18.3066 23.8027 18.7031 23.3926 18.7031 22.9004C18.7031 22.4082 18.3066 22.0117 17.8145 22.0117L9.1875 22.0117C8.69531 22.0117 8.28516 22.4082 8.28516 22.9004C8.28516 23.3926 8.69531 23.8027 9.1875 23.8027Z" fill="white" fill-opacity="0.85"/>
 </g>
</svg>
