<svg version="1.1" xmlns="http://www.w3.org/2000/svg" xmlns:xlink="http://www.w3.org/1999/xlink" viewBox="0 0 23.6236 29.3535">
 <g>
  
  <path d="M6.31569 29.3535L19.1126 29.3535C21.6965 29.3535 23.2551 27.8223 23.2551 25.252L23.2688 6.20703C23.2688 3.70508 21.8196 2.03711 19.0989 1.36719C15.845 0.560547 12.5364 0.109375 9.02272 0.0273438C4.25123-0.0957031 1.17506 1.75 0.587171 6.0293C-0.164783 11.5938-0.192126 19.3184 0.491467 24.3496C0.887952 27.4395 3.1028 29.3535 6.31569 29.3535ZM6.38405 27.1523C4.31959 27.1523 2.91139 26.0996 2.69264 24.3633C2.00905 19.3047 2.03639 11.6895 2.761 6.31641C3.17115 3.37695 5.35865 2.14648 8.81764 2.22852C12.3723 2.31055 15.7356 2.76172 19.0442 3.55469C20.3977 3.89648 21.0813 4.79883 21.0813 6.24805L21.0676 25.2109C21.0676 26.6602 20.4934 27.1523 19.0715 27.1523Z" style="fill:var(--color-0,hsl(0 0 0/0.85))"></path>
  <path d="M6.00123 12.0176L17.595 12.0176C18.0872 12.0176 18.4973 11.6211 18.4973 11.1289C18.4973 10.6367 18.0872 10.2266 17.595 10.2266L6.00123 10.2266C5.50905 10.2266 5.09889 10.6367 5.09889 11.1289C5.09889 11.6211 5.50905 12.0176 6.00123 12.0176ZM6.00123 16.5566L17.595 16.5566C18.0872 16.5566 18.4973 16.1602 18.4973 15.668C18.4973 15.1758 18.0872 14.7656 17.595 14.7656L6.00123 14.7656C5.50905 14.7656 5.09889 15.1758 5.09889 15.668C5.09889 16.1602 5.50905 16.5566 6.00123 16.5566ZM6.00123 21.0957L17.595 21.0957C18.0872 21.0957 18.4973 20.6992 18.4973 20.1934C18.4973 19.7012 18.0872 19.3047 17.595 19.3047L6.00123 19.3047C5.50905 19.3047 5.09889 19.7012 5.09889 20.1934C5.09889 20.6992 5.50905 21.0957 6.00123 21.0957Z" style="fill:var(--color-1,hsl(0 0 0/0.85))"></path>
 </g>
</svg>