<svg version="1.1" xmlns="http://www.w3.org/2000/svg" xmlns:xlink="http://www.w3.org/1999/xlink" viewBox="0 0 23.6236 29.3535">
 <g>
  
  <path d="M19.0989 1.36719C21.8196 2.03711 23.2688 3.70508 23.2688 6.20703L23.2551 25.252C23.2551 27.8223 21.6965 29.3535 19.1126 29.3535L6.31569 29.3535C3.1028 29.3535 0.887952 27.4395 0.491467 24.3496C-0.192126 19.3184-0.164783 11.5938 0.587171 6.0293C1.17506 1.75 4.25123-0.0957031 9.02272 0.0273438C12.5364 0.109375 15.845 0.560547 19.0989 1.36719ZM5.8235 19.4141C5.30397 19.4141 4.88014 19.8242 4.88014 20.3301C4.88014 20.8633 5.30397 21.2734 5.8235 21.2734L17.7727 21.2734C18.2922 21.2734 18.7161 20.8633 18.7161 20.3301C18.7161 19.8242 18.2922 19.4141 17.7727 19.4141ZM5.8235 14.7383C5.30397 14.7383 4.88014 15.1621 4.88014 15.668C4.88014 16.1738 5.30397 16.584 5.8235 16.584L17.7727 16.584C18.2922 16.584 18.7161 16.1738 18.7161 15.668C18.7161 15.1621 18.2922 14.7383 17.7727 14.7383ZM5.8235 10.0488C5.30397 10.0488 4.88014 10.4727 4.88014 10.9922C4.88014 11.498 5.30397 11.9082 5.8235 11.9082L17.7727 11.9082C18.2922 11.9082 18.7161 11.498 18.7161 10.9922C18.7161 10.4727 18.2922 10.0488 17.7727 10.0488Z" style="fill:var(--color-0,hsl(0 0 0/0.85))"></path>
 </g>
</svg>