<?xml version="1.0" encoding="UTF-8"?>
<!--Generator: Apple Native CoreSVG 326-->
<!DOCTYPE svg
PUBLIC "-//W3C//DTD SVG 1.1//EN"
       "http://www.w3.org/Graphics/SVG/1.1/DTD/svg11.dtd">
<svg version="1.1" xmlns="http://www.w3.org/2000/svg" xmlns:xlink="http://www.w3.org/1999/xlink" viewBox="0 0 27.6309 24.1582">
 <g>
  <rect height="24.1582" opacity="0" width="27.6309" x="0" y="0"/>
  <path d="M4.33398 24.1582L20.3301 24.1582C24.8965 24.1582 26.4824 21.9023 27.0293 17.1582C27.3848 14.1504 27.3848 11.1699 26.9062 7.12305C26.3457 2.07812 23.5293-0.0273438 18.1426 0.546875L4.89453 2.05078C1.69531 2.40625 0 4.21094 0 7.20508L0 19.8652C0 22.5723 1.61328 24.1582 4.33398 24.1582ZM4.34766 21.9707C3.03516 21.9707 2.17383 21.1504 2.17383 19.8652L2.17383 7.20508C2.17383 5.48242 3.21289 4.44336 5.11328 4.22461L18.375 2.73438C22.3262 2.29688 24.3496 3.69141 24.7324 7.13672C25.2109 11.1836 25.2109 14.1504 24.8555 17.1445C24.418 20.8906 23.8027 21.9707 20.3301 21.9707Z" fill="white" fill-opacity="0.85"/>
  <path d="M6.35742 9.41992L20.7266 9.41992C21.2188 9.41992 21.6152 9.02344 21.6152 8.53125C21.6152 8.03906 21.2188 7.62891 20.7266 7.62891L6.35742 7.62891C5.86523 7.62891 5.46875 8.03906 5.46875 8.53125C5.46875 9.02344 5.86523 9.41992 6.35742 9.41992ZM6.35742 13.959L20.7266 13.959C21.2188 13.959 21.6152 13.5625 21.6152 13.0703C21.6152 12.5781 21.2188 12.168 20.7266 12.168L6.35742 12.168C5.86523 12.168 5.46875 12.5781 5.46875 13.0703C5.46875 13.5625 5.86523 13.959 6.35742 13.959ZM6.35742 18.498L20.7266 18.498C21.2188 18.498 21.6152 18.1016 21.6152 17.5957C21.6152 17.1035 21.2188 16.707 20.7266 16.707L6.35742 16.707C5.86523 16.707 5.46875 17.1035 5.46875 17.5957C5.46875 18.1016 5.86523 18.498 6.35742 18.498Z" fill="white" fill-opacity="0.85"/>
 </g>
</svg>
