<svg version="1.1" xmlns="http://www.w3.org/2000/svg" xmlns:xlink="http://www.w3.org/1999/xlink" viewBox="0 0 28.2461 27.9043">
 <g>
  
  <path d="M13.9453 27.9043C21.6426 27.9043 27.8906 21.6562 27.8906 13.959C27.8906 6.27539 21.6426 0.0136719 13.9453 0.0136719C6.26172 0.0136719 0 6.27539 0 13.959C0 21.6562 6.26172 27.9043 13.9453 27.9043Z" style="fill:var(--color-0,hsl(0 0 0/0.85))"></path>
  <path d="M9.43359 20.0703L7.47852 20.8086C7.17773 20.918 6.83594 20.6172 6.98633 20.2617L7.7793 18.4023L16.9941 9.1875L18.6758 10.8691ZM19.5234 10.0215L17.8418 8.35352L18.8809 7.31445C19.3457 6.87695 19.8652 6.82227 20.2891 7.24609L20.6035 7.57422C21.041 7.99805 21.0137 8.53125 20.5488 8.99609Z" style="fill:var(--color-1,white)"></path>
 </g>
</svg>