<?xml version="1.0" encoding="UTF-8"?>
<!--Generator: Apple Native CoreSVG 326-->
<!DOCTYPE svg
PUBLIC "-//W3C//DTD SVG 1.1//EN"
       "http://www.w3.org/Graphics/SVG/1.1/DTD/svg11.dtd">
<svg version="1.1" xmlns="http://www.w3.org/2000/svg" xmlns:xlink="http://www.w3.org/1999/xlink" viewBox="0 0 38.4111 28.1103">
 <g>
  <rect height="28.1103" opacity="0" width="38.4111" x="0" y="0"/>
  <path d="M0.290512 24.603C1.50731 28.5952 7.55028 29.2378 14.0854 26.23L13.3745 24.7261C7.86473 27.2827 2.73778 26.9546 1.89012 24.1245C-0.270035 17.0561 14.9331 16.2632 13.1831 10.3159C12.3081 7.39011 5.55418 7.86863 0.728012 11.1225C-0.242692 11.7514 0.686996 13.146 1.64403 12.4897C5.14403 10.1655 11.1186 9.24949 11.5835 10.7807C11.9253 11.9292 10.9682 12.7768 7.19481 14.8823C3.51707 16.9194-1.22707 19.6128 0.290512 24.603Z" fill="white" fill-opacity="0.85"/>
  <path d="M19.6772 23.7007L34.2241 9.16746L31.8315 6.76121L17.2847 21.2944L15.9858 24.3296C15.8491 24.6577 16.1909 25.0405 16.5327 24.9038ZM35.4272 7.99168L36.8081 6.63816C37.5054 5.94089 37.5464 5.18894 36.9175 4.56004L36.4526 4.09519C35.8237 3.47996 35.0718 3.53464 34.3882 4.21824L32.9936 5.58543Z" fill="white" fill-opacity="0.85"/>
 </g>
</svg>
