<?xml version="1.0" encoding="UTF-8"?>
<!--Generator: Apple Native CoreSVG 326-->
<!DOCTYPE svg
PUBLIC "-//W3C//DTD SVG 1.1//EN"
       "http://www.w3.org/Graphics/SVG/1.1/DTD/svg11.dtd">
<svg version="1.1" xmlns="http://www.w3.org/2000/svg" xmlns:xlink="http://www.w3.org/1999/xlink" viewBox="0 0 30.0488 25.4466">
 <g>
  <rect height="25.4466" opacity="0" width="30.0488" x="0" y="0"/>
  <path d="M27.8076 22.5055C27.8076 23.1071 27.3154 23.5993 26.7138 23.5993L7.00036 23.5993L9.21002 21.3981L26.7138 21.3981C27.3154 21.3981 27.8076 21.9039 27.8076 22.5055Z" fill="white" fill-opacity="0.85"/>
  <path d="M5.61813 22.3414L20.5478 7.43911L18.1416 5.03286L3.22555 19.9352L1.91305 22.984C1.79001 23.3122 2.1318 23.695 2.45993 23.5582ZM21.7373 6.26332L23.1181 4.90981C23.8291 4.21254 23.8701 3.46059 23.2275 2.83168L22.7763 2.36684C22.1474 1.75161 21.3955 1.80629 20.7119 2.48989L19.3173 3.85707Z" fill="white" fill-opacity="0.85"/>
 </g>
</svg>
