<?xml version="1.0" encoding="UTF-8"?>
<!--Generator: Apple Native CoreSVG 326-->
<!DOCTYPE svg
PUBLIC "-//W3C//DTD SVG 1.1//EN"
       "http://www.w3.org/Graphics/SVG/1.1/DTD/svg11.dtd">
<svg version="1.1" xmlns="http://www.w3.org/2000/svg" xmlns:xlink="http://www.w3.org/1999/xlink" viewBox="0 0 28.2461 27.9043">
 <g>
  <rect height="27.9043" opacity="0" width="28.2461" x="0" y="0"/>
  <path d="M27.8906 13.9453C27.8906 21.6426 21.6426 27.8906 13.9453 27.8906C6.24805 27.8906 0 21.6426 0 13.9453C0 6.24805 6.24805 0 13.9453 0C21.6426 0 27.8906 6.24805 27.8906 13.9453ZM2.32422 13.9453C2.32422 18.073 4.46793 21.6929 7.7106 23.7453L7.54688 24.5137C7.45117 24.9922 7.7793 25.457 8.24414 25.5391C8.72266 25.6348 9.1875 25.3477 9.2832 24.8691L9.3373 24.6151C10.7481 25.2286 12.3067 25.5664 13.9453 25.5664C15.5888 25.5664 17.1518 25.2265 18.5657 24.6091L18.6211 24.8691C18.7031 25.293 19.0723 25.5664 19.5098 25.5527C19.9199 25.5527 20.4668 25.0742 20.3574 24.5137L20.1919 23.738C23.4279 21.6842 25.5664 18.068 25.5664 13.9453C25.5664 7.51953 20.3711 2.32422 13.9453 2.32422C7.51953 2.32422 2.32422 7.51953 2.32422 13.9453Z" fill="white" fill-opacity="0.85"/>
  <path d="M13.0566 7.73828L10.5 15.4082L17.418 15.4082L14.8477 7.73828C14.5469 6.84961 13.3574 6.84961 13.0566 7.73828ZM19.5098 25.5527C19.9199 25.5527 20.4668 25.0742 20.3574 24.5137L18.4844 15.7363C18.3477 15.0527 17.8008 14.5605 17.1445 14.5605L10.7598 14.5605C10.1172 14.5605 9.55664 15.0527 9.41992 15.7227L7.54688 24.5137C7.45117 24.9922 7.7793 25.457 8.24414 25.5391C8.72266 25.6348 9.1875 25.3477 9.2832 24.8691L11.1289 16.2012L10.9512 16.3242L16.9668 16.3242L16.7754 16.2012L18.6211 24.8691C18.7031 25.293 19.0723 25.5664 19.5098 25.5527Z" fill="white" fill-opacity="0.85"/>
 </g>
</svg>
