<?xml version="1.0" encoding="UTF-8"?>
<!--Generator: Apple Native CoreSVG 326-->
<!DOCTYPE svg
PUBLIC "-//W3C//DTD SVG 1.1//EN"
       "http://www.w3.org/Graphics/SVG/1.1/DTD/svg11.dtd">
<svg version="1.1" xmlns="http://www.w3.org/2000/svg" xmlns:xlink="http://www.w3.org/1999/xlink" viewBox="0 0 28.2461 27.9043">
 <g>
  <rect height="27.9043" opacity="0" width="28.2461" x="0" y="0"/>
  <path d="M13.9453 27.8906C21.6426 27.8906 27.8906 21.6289 27.8906 13.9453C27.8906 6.24805 21.6426 0 13.9453 0C6.26172 0 0 6.24805 0 13.9453C0 21.6289 6.26172 27.8906 13.9453 27.8906Z" fill="white" fill-opacity="0.85"/>
  <path d="M11.1016 16.3242L9.58398 23.502C9.35156 24.623 7.58789 24.3633 7.86133 23.0781L9.41992 15.7227C9.54297 15.0801 10.0762 14.6016 10.6914 14.5605L10.7871 14.5605L13.0566 7.73828C13.3574 6.83594 14.5469 6.84961 14.8477 7.73828L17.1172 14.5605L17.2129 14.5605C17.8418 14.6016 18.3613 15.0801 18.4844 15.7363L20.0566 23.0781C20.3164 24.3633 18.5527 24.623 18.334 23.502L16.8164 16.3242Z" fill="white"/>
 </g>
</svg>
