<svg version="1.1" xmlns="http://www.w3.org/2000/svg" xmlns:xlink="http://www.w3.org/1999/xlink" viewBox="0 0 29.9584 29.2441">
 <g>
  
  <path d="M0.261413 13.7539L4.29462 26.291C4.90985 28.2461 6.26337 29.2441 8.34149 29.2441L21.2751 29.2441C23.3532 29.2441 24.7067 28.2461 25.322 26.291L29.3278 13.8086C29.9841 11.7852 29.4782 10.1855 27.8376 8.98242L17.3649 1.28516C15.6559 0.0136719 13.9606 0.0136719 12.2516 1.28516L1.77899 8.98242C0.138366 10.1855-0.367493 11.7715 0.261413 13.7539ZM2.33954 13.084C2.01141 12.0449 2.21649 11.416 3.11883 10.7461L13.5778 3.03516C14.4802 2.36523 15.1364 2.36523 16.0388 3.03516L26.4977 10.7461C27.4001 11.416 27.6052 12.0586 27.2634 13.125L26.3884 15.8457L3.22821 15.8457Z" style="fill:var(--color-0,hsl(0 0 0/0.85))"></path>
 </g>
</svg>