<?xml version="1.0" encoding="UTF-8"?>
<!--Generator: Apple Native CoreSVG 326-->
<!DOCTYPE svg
PUBLIC "-//W3C//DTD SVG 1.1//EN"
       "http://www.w3.org/Graphics/SVG/1.1/DTD/svg11.dtd">
<svg version="1.1" xmlns="http://www.w3.org/2000/svg" xmlns:xlink="http://www.w3.org/1999/xlink" viewBox="0 0 29.9534 29.2441">
 <g>
  <rect height="29.2441" opacity="0" width="29.9534" x="0" y="0"/>
  <path d="M29.339 13.7539C29.9679 11.7715 29.4757 10.1855 27.8214 8.98242L17.3488 1.28516C15.6398 0.0136719 13.9581 0.0136719 12.2355 1.28516L1.76283 8.98242C0.122202 10.1855-0.369985 11.7852 0.272593 13.8086L4.27845 26.291C4.89369 28.2461 6.26087 29.2441 8.339 29.2441L21.2589 29.2441C23.337 29.2441 24.6906 28.2461 25.3195 26.291ZM14.8058 2.54297L14.8058 27.043L8.339 27.043C7.23158 27.043 6.6847 26.6602 6.34291 25.6211L2.35072 13.125C1.99525 12.0586 2.20033 11.416 3.10267 10.7461L13.5617 3.03516C14.0128 2.69336 14.423 2.54297 14.8058 2.54297Z" fill="white" fill-opacity="0.85"/>
 </g>
</svg>
