<svg version="1.1" xmlns="http://www.w3.org/2000/svg" xmlns:xlink="http://www.w3.org/1999/xlink" viewBox="0 0 29.9584 29.2441">
 <g>
  
  <path d="M0.261413 13.7539L4.29462 26.291C4.90985 28.2461 6.26337 29.2441 8.34149 29.2441L21.2751 29.2441C23.3532 29.2441 24.7067 28.2461 25.322 26.291L29.3278 13.8086C29.9841 11.7852 29.4782 10.1855 27.8376 8.98242L17.3649 1.28516C15.6559 0.0136719 13.9606 0.0136719 12.2516 1.28516L1.77899 8.98242C0.138366 10.1855-0.367493 11.7715 0.261413 13.7539ZM3.22821 15.8457L26.3884 15.8457L23.2575 25.6211C22.9294 26.6602 22.3825 27.043 21.2751 27.043L8.34149 27.043C7.23407 27.043 6.68719 26.6602 6.35907 25.6211Z" style="fill:var(--color-0,hsl(0 0 0/0.85))"></path>
 </g>
</svg>