<svg version="1.1" xmlns="http://www.w3.org/2000/svg" xmlns:xlink="http://www.w3.org/1999/xlink" viewBox="0 0 25.5254 25.1699">
 <g>
  
  <path d="M4.29297 25.1699L20.877 25.1699C23.748 25.1699 25.1699 23.7617 25.1699 20.9453L25.1699 4.23828C25.1699 1.42188 23.748 0 20.877 0L4.29297 0C1.43555 0 0 1.42188 0 4.23828L0 20.9453C0 23.7617 1.43555 25.1699 4.29297 25.1699Z" style="fill:var(--color-0,hsl(0 0 0/0.85))"></path>
  <path d="M3.37695 23.1328C4.42969 19.6602 8.12109 17.1582 12.6055 17.1582C17.0762 17.1582 20.7676 19.6602 21.8203 23.1328ZM12.5918 14.875C9.98047 14.8477 7.92969 12.6738 7.91602 9.74805C7.90234 7 9.98047 4.73047 12.5918 4.73047C15.2031 4.73047 17.2676 7 17.2676 9.74805C17.2676 12.6738 15.2031 14.9023 12.5918 14.875Z" style="fill:var(--color-1,white)"></path>
 </g>
</svg>