<svg version="1.1" xmlns="http://www.w3.org/2000/svg" xmlns:xlink="http://www.w3.org/1999/xlink" viewBox="0 0 48.0293 32.3973">
 <g>
  
  <path d="M45.2539 0.496496C47.0176 2.8754 48.0293 6.21134 48.0293 9.58829C48.0293 12.9652 47.0039 16.2738 45.2539 18.6801C44.8848 19.1996 44.2559 19.3227 43.75 18.9809C43.2578 18.6391 43.1758 17.9965 43.5586 17.4359C45.0352 15.3031 45.9102 12.5004 45.9102 9.58829C45.9102 6.67618 45.0625 3.84611 43.5586 1.74064C43.1621 1.18009 43.2578 0.537512 43.75 0.195715C44.2559-0.146082 44.8848-0.0367068 45.2539 0.496496Z" style="fill:var(--color-0,hsl(0 0 0/0.85))"></path>
  <path d="M40.1543 4.06486C41.207 5.47306 41.8359 7.4965 41.8359 9.58829C41.8359 11.6801 41.207 13.7172 40.1543 15.0981C39.7852 15.6313 39.1426 15.727 38.6914 15.4125C38.1309 15.016 38.0625 14.3598 38.4727 13.7856C39.252 12.6781 39.7168 11.1742 39.7168 9.58829C39.7168 8.00236 39.2656 6.48478 38.4727 5.39103C38.0488 4.83048 38.1309 4.14689 38.6914 3.76407C39.1426 3.43595 39.7852 3.54532 40.1543 4.06486Z" style="fill:var(--color-1,hsl(0 0 0/0.85))"></path>
  <path d="M18.6781 19.4672C18.1132 19.9307 17.6099 20.43 17.1766 20.9539C15.8972 20.2902 14.393 19.8969 12.8105 19.8969C8.33984 19.8969 4.4707 23.0551 4.4707 26.4457C4.4707 26.7192 4.60742 26.8285 4.88086 26.8285L14.7727 26.8285C14.7932 27.5867 14.9903 28.2749 15.3822 28.852L5.22266 28.852C3.36328 28.852 2.43359 28.1 2.43359 26.5688C2.43359 22.0297 7.08203 17.8734 12.8105 17.8734C14.9912 17.8734 17.0121 18.4729 18.6781 19.4672ZM17.9512 10.682C17.9512 13.7856 15.6406 16.3149 12.8242 16.3149C10.0078 16.3149 7.69727 13.7992 7.69727 10.7094C7.69727 7.6879 10.0078 5.19962 12.8242 5.19962C15.668 5.19962 17.9512 7.64689 17.9512 10.682ZM9.73438 10.7094C9.73438 12.6781 11.1562 14.2777 12.8242 14.2777C14.5059 14.2777 15.9277 12.6781 15.9277 10.682C15.9277 8.75431 14.5469 7.23673 12.8242 7.23673C11.1426 7.23673 9.73438 8.78165 9.73438 10.7094Z" style="fill:var(--color-2,hsl(0 0 0/0.85))"></path>
  <path d="M28.5742 16.1918C31.8281 16.1918 34.4805 13.307 34.4805 9.7797C34.4805 6.2797 31.8418 3.53165 28.5742 3.53165C25.334 3.53165 22.668 6.33439 22.668 9.80704C22.668 13.3207 25.334 16.1918 28.5742 16.1918ZM28.5742 14.1274C26.5781 14.1274 24.8691 12.227 24.8691 9.80704C24.8691 7.42814 26.5508 5.59611 28.5742 5.59611C30.6113 5.59611 32.2793 7.38712 32.2793 9.7797C32.2793 12.1996 30.5977 14.1274 28.5742 14.1274ZM19.9883 28.852L37.1602 28.852C39.4297 28.852 40.5098 28.1684 40.5098 26.6645C40.5098 23.0824 35.9844 17.9008 28.5742 17.9008C21.1504 17.9008 16.625 23.0824 16.625 26.6645C16.625 28.1684 17.7051 28.852 19.9883 28.852ZM19.332 26.7875C18.9766 26.7875 18.8262 26.6918 18.8262 26.4047C18.8262 24.1488 22.2988 19.9652 28.5742 19.9652C34.8359 19.9652 38.3086 24.1488 38.3086 26.4047C38.3086 26.6918 38.1719 26.7875 37.8164 26.7875Z" style="fill:var(--color-3,hsl(0 0 0/0.85))"></path>
 </g>
</svg>