<?xml version="1.0" encoding="UTF-8"?>
<!--Generator: Apple Native CoreSVG 326-->
<!DOCTYPE svg
PUBLIC "-//W3C//DTD SVG 1.1//EN"
       "http://www.w3.org/Graphics/SVG/1.1/DTD/svg11.dtd">
<svg version="1.1" xmlns="http://www.w3.org/2000/svg" xmlns:xlink="http://www.w3.org/1999/xlink" viewBox="0 0 28.2461 27.9043">
 <g>
  <rect height="27.9043" opacity="0" width="28.2461" x="0" y="0"/>
  <path d="M13.9453 27.8906C21.6426 27.8906 27.8906 21.6289 27.8906 13.9453C27.8906 6.24805 21.6426 0 13.9453 0C6.26172 0 0 6.24805 0 13.9453C0 21.6289 6.26172 27.8906 13.9453 27.8906Z" fill="white" fill-opacity="0.85"/>
  <path d="M13.9316 10.7188C12.4824 10.7188 11.3066 9.48828 11.3066 7.84766C11.3066 6.30273 12.4824 5.03125 13.9316 5.03125C15.3945 5.03125 16.5566 6.30273 16.5566 7.84766C16.5566 9.48828 15.3945 10.7324 13.9316 10.7188ZM9.32422 16.3789C8.8457 16.3789 8.57227 16.0781 8.57227 15.6543C8.57227 14.3965 10.377 11.6621 13.9316 11.6621C17.4863 11.6621 19.291 14.3965 19.291 15.6543C19.291 16.0781 19.0176 16.3789 18.5391 16.3789ZM8.05273 21.752C7.69727 21.752 7.42383 21.4648 7.42383 21.1094C7.42383 20.7539 7.69727 20.4668 8.05273 20.4668L8.20312 20.4668L8.20312 18.6758C8.20312 17.8691 8.55859 17.4316 9.44727 17.4316L18.4297 17.4316C19.3184 17.4316 19.6738 17.8691 19.6738 18.6758L19.6738 20.4668L19.8242 20.4668C20.1797 20.4668 20.4531 20.7539 20.4531 21.1094C20.4531 21.4648 20.1797 21.752 19.8242 21.752ZM12.373 20.0566L15.5039 20.0566C15.7773 20.0566 15.9824 19.8516 15.9824 19.6055C15.9824 19.3457 15.7773 19.1543 15.5039 19.1543L12.373 19.1543C12.0996 19.1543 11.9219 19.3457 11.9219 19.6055C11.9219 19.8516 12.0996 20.0566 12.373 20.0566Z" fill="white"/>
 </g>
</svg>
