<?xml version="1.0" encoding="UTF-8"?>
<!--Generator: Apple Native CoreSVG 326-->
<!DOCTYPE svg
PUBLIC "-//W3C//DTD SVG 1.1//EN"
       "http://www.w3.org/Graphics/SVG/1.1/DTD/svg11.dtd">
<svg version="1.1" xmlns="http://www.w3.org/2000/svg" xmlns:xlink="http://www.w3.org/1999/xlink" viewBox="0 0 28.2461 27.9043">
 <g>
  <rect height="27.9043" opacity="0" width="28.2461" x="0" y="0"/>
  <path d="M27.8906 13.9453C27.8906 21.6426 21.6426 27.8906 13.9453 27.8906C6.24805 27.8906 0 21.6426 0 13.9453C0 6.24805 6.24805 0 13.9453 0C21.6426 0 27.8906 6.24805 27.8906 13.9453ZM2.32422 13.9453C2.32422 20.3711 7.51953 25.5664 13.9453 25.5664C20.3711 25.5664 25.5664 20.3711 25.5664 13.9453C25.5664 7.51953 20.3711 2.32422 13.9453 2.32422C7.51953 2.32422 2.32422 7.51953 2.32422 13.9453Z" fill="white" fill-opacity="0.85"/>
  <path d="M12.656 15.1909C11.5473 16.1597 10.9238 17.3929 10.9238 18.498C10.9238 18.7708 10.9742 19.0904 11.1356 19.3867L6.125 19.3867C5.29102 19.3867 4.96289 19.0586 4.96289 18.457C4.96289 16.1875 7.32812 14.4102 9.84375 14.4102C10.8543 14.4102 11.8406 14.697 12.656 15.1909ZM12.1543 10.8145C12.1543 12.2637 11.0879 13.3848 9.84375 13.3848C8.59961 13.3848 7.51953 12.2637 7.51953 10.8281C7.51953 9.41992 8.61328 8.32617 9.84375 8.32617C11.0879 8.32617 12.1543 9.39258 12.1543 10.8145Z" fill="white" fill-opacity="0.85"/>
  <path d="M13.3301 19.3867L21.6836 19.3867C22.7363 19.3867 23.1055 19.0859 23.1055 18.498C23.1055 16.7891 20.959 14.4238 17.5137 14.4238C14.0547 14.4238 11.8945 16.7891 11.8945 18.498C11.8945 19.0859 12.2773 19.3867 13.3301 19.3867ZM17.5137 13.248C18.9492 13.248 20.166 11.9492 20.166 10.2812C20.166 8.64062 18.9355 7.4375 17.5137 7.4375C16.0781 7.4375 14.8477 8.68164 14.8477 10.2949C14.8477 11.9492 16.0781 13.248 17.5137 13.248Z" fill="white" fill-opacity="0.85"/>
 </g>
</svg>
