<svg version="1.1" xmlns="http://www.w3.org/2000/svg" xmlns:xlink="http://www.w3.org/1999/xlink" viewBox="0 0 28.2461 27.9043">
 <g>
  
  <path d="M13.9453 27.8906C21.6426 27.8906 27.8906 21.6289 27.8906 13.9453C27.8906 6.24805 21.6426 0 13.9453 0C6.26172 0 0 6.24805 0 13.9453C0 21.6289 6.26172 27.8906 13.9453 27.8906Z" style="fill:var(--color-0,hsl(0 0 0/0.85))"></path>
  <path d="M13.9316 25.8125C10.8008 25.8125 7.62891 24.5273 5.53711 22.2988C7.01367 19.9746 10.2266 18.6074 13.9316 18.6074C17.6094 18.6074 20.8496 19.9473 22.3398 22.2988C20.2344 24.5273 17.0762 25.8125 13.9316 25.8125ZM13.9316 16.2832C11.3066 16.2559 9.24219 14.0684 9.24219 11.1289C9.22852 8.36719 11.3203 6.07031 13.9316 6.07031C16.5566 6.07031 18.6211 8.36719 18.6211 11.1289C18.6211 14.0684 16.5703 16.3105 13.9316 16.2832Z" style="fill:var(--color-1,white)"></path>
 </g>
</svg>