<svg version="1.1" xmlns="http://www.w3.org/2000/svg" xmlns:xlink="http://www.w3.org/1999/xlink" viewBox="0 0 39.6348 31.6504">
 <g>
  
  <path d="M15.017 14.8337C13.9378 15.8476 13.3027 17.3188 13.3027 19.0586C13.3027 22.4355 15.709 24.8145 19.0586 24.8145L25.0031 24.8145L27.2055 27.0156L18.9082 27.0156C14.2598 27.0156 10.9648 23.7617 10.9648 19.0586C10.9648 16.6253 11.852 14.5785 13.3606 13.1782ZM39.2793 19.0586C39.2793 22.7323 37.2606 25.5217 34.1629 26.5585C34.064 26.4055 33.9462 26.2608 33.8105 26.127L32.3891 24.7048C35.1008 24.2021 36.9414 22.012 36.9414 19.0586C36.9414 15.6816 34.5352 13.3164 31.1719 13.3164L30.2832 13.3164C30.3652 12.6055 30.2969 11.8125 30.2148 11.1152L31.3359 11.1152C35.9707 11.1152 39.2793 14.3691 39.2793 19.0586ZM7.20318 7.02409C4.32437 7.40208 2.33789 9.6453 2.33789 12.7012C2.33789 16.0918 4.73047 18.457 8.09375 18.457L8.99609 18.457C8.90039 19.168 8.96875 19.9473 9.05078 20.6582L7.94336 20.6582C3.30859 20.6582 0 17.4043 0 12.7012C0 8.95658 2.10964 6.12732 5.32313 5.14506ZM20.8246 20.6382C20.6776 20.6546 20.5251 20.6582 20.3711 20.6582L15.7227 20.6582C15.2988 20.0293 15.2305 18.9902 15.4219 18.457L18.6423 18.457ZM28.3145 12.7012C28.3145 15.0387 27.4972 17.0182 26.1047 18.4169L24.4424 16.7538C25.4108 15.7482 25.9766 14.3452 25.9766 12.7012C25.9766 9.33789 23.5703 6.95898 20.2207 6.95898L14.6529 6.95898L12.4529 4.75781L20.3711 4.75781C25.0059 4.75781 28.3145 8.01172 28.3145 12.7012ZM23.8574 13.3164L21.0069 13.3164L18.8112 11.1195C18.8424 11.1154 18.8753 11.1152 18.9082 11.1152L23.543 11.1152C23.9805 11.7441 24.0488 12.7832 23.8574 13.3164Z" style="fill:var(--color-0,hsl(0 0 0/0.85))"></path>
  <path d="M31.1992 28.7383C31.6094 29.1484 32.2793 29.1484 32.6758 28.7383C33.0859 28.3281 33.0996 27.6582 32.6758 27.248L7.3418 1.91406C6.93164 1.50391 6.24805 1.49023 5.83789 1.91406C5.44141 2.31055 5.44141 2.99414 5.83789 3.4043Z" style="fill:var(--color-1,hsl(0 0 0/0.85))"></path>
 </g>
</svg>