<?xml version="1.0" encoding="UTF-8"?>
<!--Generator: Apple Native CoreSVG 326-->
<!DOCTYPE svg
PUBLIC "-//W3C//DTD SVG 1.1//EN"
       "http://www.w3.org/Graphics/SVG/1.1/DTD/svg11.dtd">
<svg version="1.1" xmlns="http://www.w3.org/2000/svg" xmlns:xlink="http://www.w3.org/1999/xlink" viewBox="0 0 34.7266 25.9902">
 <g>
  <rect height="25.9902" opacity="0" width="34.7266" x="0" y="0"/>
  <path d="M30.0508 10.5C32.7168 11.6211 34.3711 14.1094 34.3711 16.9805C34.3711 20.7402 31.1445 23.7617 27.0156 23.7617L8.18945 23.7617C3.51367 23.7617 0 20.3848 0 16.3652C0 13.0293 1.92773 10.2676 5.01758 9.77539C5.08594 5.94727 8.75 3.39062 12.1133 4.375C13.7539 1.98242 16.3926 0 20.0977 0C25.6895 0 30.0781 4.40234 30.0508 10.5ZM10.4453 21.3418L25.8398 21.3418C24.8555 19.127 22.2715 16.666 18.1426 16.666C14.0137 16.666 11.4297 19.127 10.4453 21.3418ZM14.4238 10.8965C14.4375 13.0977 16.0781 14.9434 18.1426 14.9707C20.1934 14.998 21.8613 13.0977 21.8613 10.8965C21.8613 8.72266 20.1934 6.93164 18.1426 6.93164C16.0781 6.93164 14.4238 8.72266 14.4238 10.8965Z" fill="white" fill-opacity="0.85"/>
 </g>
</svg>
