<?xml version="1.0" encoding="UTF-8"?>
<!--Generator: Apple Native CoreSVG 326-->
<!DOCTYPE svg
PUBLIC "-//W3C//DTD SVG 1.1//EN"
       "http://www.w3.org/Graphics/SVG/1.1/DTD/svg11.dtd">
<svg version="1.1" xmlns="http://www.w3.org/2000/svg" xmlns:xlink="http://www.w3.org/1999/xlink" viewBox="0 0 30.7084 30.3652">
 <g>
  <rect height="30.3652" opacity="0" width="30.7084" x="0" y="0"/>
  <path d="M22.4636 3.54102L23.19 7.64258L21.0986 7.64258L20.4538 3.99219C20.2761 2.91211 19.3737 2.29688 18.3073 2.47461L3.63739 5.07227C2.57098 5.26367 1.95575 6.13867 2.14715 7.23242L4.74481 21.8477C4.92255 22.9414 5.81122 23.5566 6.87762 23.3652L7.64325 23.2303L7.64325 25.3228L7.19208 25.4023C4.64911 25.8535 3.17255 24.8145 2.72137 22.3125L0.0963736 7.47852C-0.341126 4.94922 0.711608 3.47266 3.2409 3.02148L17.9792 0.423828C20.5358-0.0136719 22.0261 1.01172 22.4636 3.54102Z" fill="white" fill-opacity="0.85"/>
  <path d="M11.5124 30.3652L26.4694 30.3652C29.0671 30.3652 30.3522 29.0801 30.3522 26.5371L30.3522 11.4844C30.3522 8.92773 29.0671 7.64258 26.4694 7.64258L11.5124 7.64258C8.94208 7.64258 7.64325 8.92773 7.64325 11.4844L7.64325 26.5371C7.64325 29.0938 8.94208 30.3652 11.5124 30.3652ZM11.5397 28.3008C10.4597 28.3008 9.7077 27.5352 9.7077 26.4414L9.7077 11.5801C9.7077 10.4863 10.4597 9.7207 11.5397 9.7207L26.4421 9.7207C27.5222 9.7207 28.2878 10.4863 28.2878 11.5801L28.2878 26.4414C28.2878 27.5352 27.5222 28.3008 26.4421 28.3008ZM18.9909 21.0684C21.3561 21.0684 23.2292 19.0859 23.2292 16.4473C23.2292 13.9453 21.3561 11.9082 18.9909 11.9082C16.6393 11.9082 14.7663 13.9453 14.7663 16.4473C14.7663 19.0859 16.6393 21.0684 18.9909 21.0684ZM10.487 29.1211L27.5085 29.1211C26.7839 25.6484 23.2975 23.1191 18.9909 23.1191C14.6979 23.1191 11.2116 25.6484 10.487 29.1211Z" fill="white" fill-opacity="0.85"/>
 </g>
</svg>
