<svg version="1.1" xmlns="http://www.w3.org/2000/svg" xmlns:xlink="http://www.w3.org/1999/xlink" viewBox="0 0 32.5938 25.1699">
 <g>
  
  <path d="M4.29297 25.1699L27.9453 25.1699C30.8164 25.1699 32.2383 23.7617 32.2383 20.9453L32.2383 4.23828C32.2383 1.42188 30.8164 0 27.9453 0L4.29297 0C1.43555 0 0 1.42188 0 4.23828L0 20.9453C0 23.7617 1.43555 25.1699 4.29297 25.1699Z" style="fill:var(--color-0,hsl(0 0 0/0.85))"></path>
  <path d="M6.91797 23.1191C7.95703 19.6465 11.6484 17.1582 16.1328 17.1582C20.6035 17.1582 24.2949 19.6465 25.3477 23.1191ZM16.1328 14.8613C13.5215 14.834 11.4707 12.6738 11.457 9.74805C11.4434 7 13.5215 4.73047 16.1328 4.73047C18.7441 4.73047 20.8086 7 20.8086 9.74805C20.8086 12.6738 18.7441 14.8887 16.1328 14.8613Z" style="fill:var(--color-1,white)"></path>
 </g>
</svg>