<svg version="1.1" xmlns="http://www.w3.org/2000/svg" xmlns:xlink="http://www.w3.org/1999/xlink" viewBox="0 0 28.2461 27.9043">
 <g>
  
  <path d="M13.9453 27.9043C21.6426 27.9043 27.8906 21.6562 27.8906 13.959C27.8906 6.27539 21.6426 0.0136719 13.9453 0.0136719C6.26172 0.0136719 0 6.27539 0 13.959C0 21.6562 6.26172 27.9043 13.9453 27.9043Z" style="fill:var(--color-0,hsl(0 0 0/0.85))"></path>
  <path d="M7.50586 21.123C6.93164 21.123 6.67188 20.7539 6.67188 20.2344C6.67188 18.7031 8.99609 14.6973 13.9453 14.6973C18.8945 14.6973 21.2188 18.7031 21.2188 20.2344C21.2188 20.7539 20.959 21.123 20.3848 21.123ZM13.9453 13.5352C11.9492 13.5215 10.3223 11.8398 10.3223 9.57031C10.3223 7.46484 11.9492 5.71484 13.9453 5.71484C15.9414 5.71484 17.5684 7.46484 17.5684 9.57031C17.5684 11.8398 15.9414 13.5488 13.9453 13.5352Z" style="fill:var(--color-1,white)"></path>
 </g>
</svg>