<?xml version="1.0" encoding="UTF-8"?>
<!--Generator: Apple Native CoreSVG 326-->
<!DOCTYPE svg
PUBLIC "-//W3C//DTD SVG 1.1//EN"
       "http://www.w3.org/Graphics/SVG/1.1/DTD/svg11.dtd">
<svg version="1.1" xmlns="http://www.w3.org/2000/svg" xmlns:xlink="http://www.w3.org/1999/xlink" viewBox="0 0 40.6328 36.6749">
 <g>
  <rect height="36.6749" opacity="0" width="40.6328" x="0" y="0"/>
  <path d="M17.4544 22.0411C15.1832 24.0155 13.9043 26.5389 13.9043 28.8033C13.9043 29.452 14.0356 30.0778 14.3488 30.6216L3.91016 30.6216C2.1875 30.6216 1.50391 29.938 1.50391 28.6939C1.50391 24.9204 5.35938 20.3677 11.5254 20.3677C13.8623 20.3677 15.8674 21.0217 17.4544 22.0411ZM15.4595 15.9851C14.587 17.3803 13.127 18.2759 11.5391 18.2759C8.98242 18.2759 6.76758 15.979 6.76758 13.0396C6.76758 11.401 7.46656 9.98543 8.52881 9.05768Z" fill="white" fill-opacity="0.85"/>
  <path d="M30.103 30.6216L18.6758 30.6216C16.5293 30.6216 15.7637 30.0064 15.7637 28.8033C15.7637 26.4296 17.7634 23.4492 21.2365 21.7593ZM38.7734 28.8033C38.7734 29.6431 38.4003 30.1965 37.4428 30.4531L27.4045 20.4148C34.4179 20.4756 38.7734 25.3002 38.7734 28.8033ZM32.7441 11.9185C32.7441 15.3365 30.2148 17.9615 27.2754 17.9615C24.3359 17.9615 21.8066 15.3365 21.8066 11.9458C21.8066 8.59622 24.3496 6.03958 27.2754 6.03958C30.2012 6.03958 32.7441 8.54154 32.7441 11.9185Z" fill="white" fill-opacity="0.85"/>
  <path d="M36.5176 34.7642C36.9277 35.1743 37.6113 35.1743 38.0078 34.7642C38.4043 34.354 38.4316 33.6978 38.0078 33.274L9.14648 4.41263C8.72266 3.9888 8.06641 4.00247 7.64258 4.41263C7.24609 4.80912 7.24609 5.50638 7.64258 5.90287Z" fill="white" fill-opacity="0.85"/>
 </g>
</svg>
