<svg version="1.1" xmlns="http://www.w3.org/2000/svg" xmlns:xlink="http://www.w3.org/1999/xlink" viewBox="0 0 40.6328 28.2871">
 <g>
  
  <path d="M17.4544 17.8472C15.1832 19.8216 13.9043 22.345 13.9043 24.6094C13.9043 25.2581 14.0356 25.8839 14.3488 26.4277L3.91016 26.4277C2.1875 26.4277 1.50391 25.7441 1.50391 24.5C1.50391 20.7266 5.35938 16.1738 11.5254 16.1738C13.8623 16.1738 15.8674 16.8278 17.4544 17.8472ZM16.2969 8.81836C16.2969 11.7852 14.082 14.082 11.5391 14.082C8.98242 14.082 6.76758 11.7852 6.76758 8.8457C6.76758 5.91992 8.99609 3.70508 11.5391 3.70508C14.0684 3.70508 16.2969 5.86523 16.2969 8.81836Z" style="fill:var(--color-0,hsl(0 0 0/0.85))"></path>
  <path d="M27.2754 13.7676C30.2148 13.7676 32.7441 11.1426 32.7441 7.72461C32.7441 4.34766 30.2012 1.8457 27.2754 1.8457C24.3496 1.8457 21.8066 4.40234 21.8066 7.75195C21.8066 11.1426 24.3359 13.7676 27.2754 13.7676ZM18.6758 26.4277L35.8613 26.4277C38.0078 26.4277 38.7734 25.8125 38.7734 24.6094C38.7734 21.082 34.3574 16.2148 27.2617 16.2148C20.1797 16.2148 15.7637 21.082 15.7637 24.6094C15.7637 25.8125 16.5293 26.4277 18.6758 26.4277Z" style="fill:var(--color-1,hsl(0 0 0/0.85))"></path>
 </g>
</svg>