<svg version="1.1" xmlns="http://www.w3.org/2000/svg" xmlns:xlink="http://www.w3.org/1999/xlink" viewBox="0 0 24.4043 29.4629">
 <g>
  
  <path d="M12.0176 10.0078C14.5879 10.0352 16.625 7.83398 16.625 4.94922C16.625 2.25586 14.5879 0 12.0176 0C9.47461 0 7.41016 2.25586 7.41016 4.94922C7.41016 7.83398 9.46094 9.99414 12.0176 10.0078ZM3.9375 19.9062L20.1113 19.9062C20.9453 19.9062 21.3965 19.3594 21.3965 18.6211C21.3965 16.4609 18.2656 11.6484 12.0176 11.6484C5.75586 11.6484 2.63867 16.4609 2.63867 18.6211C2.63867 19.3594 3.10352 19.9062 3.9375 19.9062ZM1.09375 29.3809L22.9551 29.3809C23.5566 29.3809 24.0488 28.8887 24.0488 28.2871C24.0488 27.6855 23.5566 27.1797 22.9551 27.1797L22.1074 27.1797L22.1074 23.9941C22.1074 22.5586 21.4375 21.7793 19.8926 21.7793L4.15625 21.7793C2.625 21.7793 1.94141 22.5586 1.94141 23.9941L1.94141 27.1797L1.09375 27.1797C0.492188 27.1797 0 27.6855 0 28.2871C0 28.8887 0.492188 29.3809 1.09375 29.3809ZM9.33789 26.4141C8.87305 26.4141 8.54492 26.0586 8.54492 25.5938C8.54492 25.1426 8.87305 24.8008 9.33789 24.8008L14.7383 24.8008C15.1895 24.8008 15.5312 25.1426 15.5312 25.5938C15.5312 26.0586 15.1895 26.4141 14.7383 26.4141Z" style="fill:var(--color-0,hsl(0 0 0/0.85))"></path>
 </g>
</svg>