<?xml version="1.0" encoding="UTF-8"?>
<!--Generator: Apple Native CoreSVG 326-->
<!DOCTYPE svg
PUBLIC "-//W3C//DTD SVG 1.1//EN"
       "http://www.w3.org/Graphics/SVG/1.1/DTD/svg11.dtd">
<svg version="1.1" xmlns="http://www.w3.org/2000/svg" xmlns:xlink="http://www.w3.org/1999/xlink" viewBox="0 0 58.6523 29.0254">
 <g>
  <rect height="29.0254" opacity="0" width="58.6523" x="0" y="0"/>
  <path d="M56.4238 24.9785C56.4238 26.4824 55.3438 27.166 53.0742 27.166L42.3371 27.166C42.7376 26.5784 42.9363 25.8757 42.9517 25.1016L53.7305 25.1016C54.0859 25.1016 54.2227 25.0059 54.2227 24.7188C54.2227 22.4629 50.75 18.2793 44.4883 18.2793C42.9062 18.2793 41.5023 18.5452 40.2884 18.98C39.8049 18.4343 39.2463 17.9179 38.6163 17.4467C40.2768 16.6855 42.2509 16.2148 44.4883 16.2148C51.8984 16.2148 56.4238 21.3965 56.4238 24.9785ZM50.3945 8.09375C50.3945 11.6211 47.7422 14.5059 44.4883 14.5059C41.2344 14.5059 38.582 11.6348 38.582 8.12109C38.582 4.64844 41.248 1.8457 44.4883 1.8457C47.7559 1.8457 50.3945 4.59375 50.3945 8.09375ZM40.7832 8.12109C40.7832 10.541 42.4922 12.4414 44.4883 12.4414C46.498 12.4414 48.1934 10.5137 48.1934 8.09375C48.1934 5.70117 46.5254 3.91016 44.4883 3.91016C42.4648 3.91016 40.7832 5.74219 40.7832 8.12109Z" fill="white" fill-opacity="0.85"/>
  <path d="M41.084 24.9785C41.084 26.4824 40.0039 27.166 37.7344 27.166L27.0006 27.166C27.3996 26.5784 27.5967 25.8757 27.6119 25.1016L38.3906 25.1016C38.7461 25.1016 38.8828 25.0059 38.8828 24.7188C38.8828 22.4629 35.4102 18.2793 29.1484 18.2793C27.5678 18.2793 26.1649 18.5447 24.9516 18.9788C24.4684 18.433 23.9099 17.9165 23.28 17.4452C24.9397 16.6848 26.9126 16.2148 29.1484 16.2148C36.5586 16.2148 41.084 21.3965 41.084 24.9785ZM35.0547 8.09375C35.0547 11.6211 32.4023 14.5059 29.1484 14.5059C25.9082 14.5059 23.2422 11.6348 23.2422 8.12109C23.2422 4.64844 25.9082 1.8457 29.1484 1.8457C32.416 1.8457 35.0547 4.59375 35.0547 8.09375ZM25.4434 8.12109C25.4434 10.541 27.1523 12.4414 29.1484 12.4414C31.1719 12.4414 32.8535 10.5137 32.8535 8.09375C32.8535 5.70117 31.1855 3.91016 29.1484 3.91016C27.125 3.91016 25.4434 5.74219 25.4434 8.12109Z" fill="white" fill-opacity="0.85"/>
  <path d="M13.8223 14.5059C17.0625 14.5059 19.7285 11.6211 19.7285 8.09375C19.7285 4.59375 17.0898 1.8457 13.8223 1.8457C10.5684 1.8457 7.91602 4.64844 7.91602 8.12109C7.91602 11.6348 10.5684 14.5059 13.8223 14.5059ZM13.8223 12.4414C11.8262 12.4414 10.1172 10.541 10.1172 8.12109C10.1172 5.74219 11.7852 3.91016 13.8223 3.91016C15.8594 3.91016 17.5273 5.70117 17.5273 8.09375C17.5273 10.5137 15.832 12.4414 13.8223 12.4414ZM5.22266 27.166L22.3945 27.166C24.6777 27.166 25.7578 26.4824 25.7578 24.9785C25.7578 21.3965 21.2324 16.2148 13.8086 16.2148C6.39844 16.2148 1.87305 21.3965 1.87305 24.9785C1.87305 26.4824 2.95312 27.166 5.22266 27.166ZM4.56641 25.1016C4.21094 25.1016 4.07422 25.0059 4.07422 24.7188C4.07422 22.4629 7.54688 18.2793 13.8086 18.2793C20.084 18.2793 23.5566 22.4629 23.5566 24.7188C23.5566 25.0059 23.4062 25.1016 23.0508 25.1016Z" fill="white" fill-opacity="0.85"/>
 </g>
</svg>
