<svg version="1.1" xmlns="http://www.w3.org/2000/svg" xmlns:xlink="http://www.w3.org/1999/xlink" viewBox="0 0 32.228 31.1993">
 <g>
  
  <path d="M25.4314 27.8702C25.3266 27.8797 25.2167 27.8838 25.1033 27.8838L6.7693 27.8838C5.3064 27.8838 4.4314 27.2002 4.4314 26.0655C4.4314 22.6539 8.56237 17.9889 15.2613 17.7001ZM21.4119 9.1807C21.4119 11.1072 20.6084 12.7817 19.3806 13.8759L11.4109 5.90625C12.4085 4.31654 14.0999 3.30179 15.9431 3.30179C18.8689 3.30179 21.4119 5.80374 21.4119 9.1807Z" style="fill:var(--color-0,hsl(0 0 0/0.85))"></path>
  <path d="M28.6853 28.6494C29.0955 29.0596 29.7791 29.0459 30.1755 28.6358C30.5857 28.2119 30.5857 27.5557 30.1755 27.1455L5.10133 2.05765C4.69117 1.64749 4.00758 1.64749 3.59742 2.05765C3.18726 2.45413 3.18726 3.1514 3.59742 3.54788Z" style="fill:var(--color-1,hsl(0 0 0/0.85))"></path>
 </g>
</svg>