<?xml version="1.0" encoding="UTF-8"?>
<!--Generator: Apple Native CoreSVG 326-->
<!DOCTYPE svg
PUBLIC "-//W3C//DTD SVG 1.1//EN"
       "http://www.w3.org/Graphics/SVG/1.1/DTD/svg11.dtd">
<svg version="1.1" xmlns="http://www.w3.org/2000/svg" xmlns:xlink="http://www.w3.org/1999/xlink" viewBox="0 0 33.4004 34.6309">
 <g>
  <rect height="34.6309" opacity="0" width="33.4004" x="0" y="0"/>
  <path d="M25.1506 3.91016L7.89434 3.91016C7.95046 2.79901 8.65169 2.16016 9.81641 2.16016L23.2285 2.16016C24.3932 2.16016 25.0945 2.79901 25.1506 3.91016Z" fill="white" fill-opacity="0.85"/>
  <path d="M27.9473 7.81549C27.5075 7.7456 27.0411 7.71094 26.5508 7.71094L6.49414 7.71094C6.00391 7.71094 5.53762 7.74558 5.09803 7.81545C5.24689 6.50197 6.13568 5.76953 7.58789 5.76953L25.4707 5.76953C26.9229 5.76953 27.8005 6.50199 27.9473 7.81549Z" fill="white" fill-opacity="0.85"/>
  <path d="M6.49414 32.4297L26.5508 32.4297C29.4082 32.4297 30.8438 31.0078 30.8438 28.1914L30.8438 14.1504C30.8438 11.334 29.4082 9.91211 26.5508 9.91211L6.49414 9.91211C3.63672 9.91211 2.20117 11.334 2.20117 14.1504L2.20117 28.1914C2.20117 31.0078 3.63672 32.4297 6.49414 32.4297Z" fill="white" fill-opacity="0.85"/>
  <path d="M8.32617 29.9551C9.40625 27.1387 12.5098 25.1426 16.2559 25.1426C19.9883 25.1426 23.0918 27.1387 24.1719 29.9551ZM16.2559 23.1465C13.959 23.1465 12.1816 21.2324 12.1816 18.6895C12.1816 16.2832 13.959 14.3008 16.2559 14.3008C18.5254 14.3008 20.3301 16.2832 20.3301 18.6895C20.3301 21.2324 18.5254 23.1465 16.2559 23.1465Z" fill="white"/>
 </g>
</svg>
