<?xml version="1.0" encoding="UTF-8"?>
<!--Generator: Apple Native CoreSVG 326-->
<!DOCTYPE svg
PUBLIC "-//W3C//DTD SVG 1.1//EN"
       "http://www.w3.org/Graphics/SVG/1.1/DTD/svg11.dtd">
<svg version="1.1" xmlns="http://www.w3.org/2000/svg" xmlns:xlink="http://www.w3.org/1999/xlink" viewBox="0 0 47.6738 32.3973">
 <g>
  <rect height="32.3973" opacity="0" width="47.6738" x="0" y="0"/>
  <path d="M44.8984 0.496496C46.6621 2.8754 47.6738 6.21134 47.6738 9.58829C47.6738 12.9652 46.6484 16.2738 44.8984 18.6801C44.5293 19.1996 43.9004 19.3227 43.3945 18.9809C42.8887 18.6391 42.8203 17.9965 43.2031 17.4359C44.666 15.3031 45.5547 12.5004 45.5547 9.58829C45.5547 6.67618 44.6934 3.84611 43.2031 1.74064C42.8066 1.18009 42.8887 0.537512 43.3945 0.195715C43.9004-0.146082 44.5293-0.0367068 44.8984 0.496496Z" fill="white" fill-opacity="0.85"/>
  <path d="M39.7988 4.06486C40.8516 5.47306 41.4805 7.4965 41.4805 9.58829C41.4805 11.6801 40.8516 13.7172 39.7988 15.0981C39.4297 15.6313 38.7871 15.727 38.3223 15.4125C37.7754 15.016 37.6934 14.3598 38.1172 13.7856C38.8965 12.6781 39.3613 11.1742 39.3613 9.58829C39.3613 8.00236 38.9102 6.48478 38.1172 5.39103C37.6797 4.83048 37.7754 4.14689 38.3223 3.76407C38.7871 3.43595 39.4297 3.54532 39.7988 4.06486Z" fill="white" fill-opacity="0.85"/>
  <path d="M18.3841 19.9023C16.1129 21.8767 14.834 24.4001 14.834 26.6645C14.834 27.3132 14.9653 27.939 15.2785 28.4828L4.83984 28.4828C3.11719 28.4828 2.43359 27.7992 2.43359 26.5551C2.43359 22.7817 6.28906 18.2289 12.4551 18.2289C14.792 18.2289 16.7971 18.8829 18.3841 19.9023ZM17.2266 10.8734C17.2266 13.8402 15.0117 16.1371 12.4688 16.1371C9.91211 16.1371 7.69727 13.8402 7.69727 10.9008C7.69727 7.97501 9.92578 5.76017 12.4688 5.76017C14.998 5.76017 17.2266 7.92032 17.2266 10.8734Z" fill="white" fill-opacity="0.85"/>
  <path d="M28.2051 15.8227C31.1445 15.8227 33.6738 13.1977 33.6738 9.7797C33.6738 6.40275 31.1309 3.90079 28.2051 3.90079C25.2793 3.90079 22.7363 6.45743 22.7363 9.80704C22.7363 13.1977 25.2656 15.8227 28.2051 15.8227ZM19.6055 28.4828L36.791 28.4828C38.9375 28.4828 39.7031 27.8676 39.7031 26.6645C39.7031 23.1371 35.2871 18.2699 28.1914 18.2699C21.1094 18.2699 16.6934 23.1371 16.6934 26.6645C16.6934 27.8676 17.459 28.4828 19.6055 28.4828Z" fill="white" fill-opacity="0.85"/>
 </g>
</svg>
