<svg version="1.1" xmlns="http://www.w3.org/2000/svg" xmlns:xlink="http://www.w3.org/1999/xlink" viewBox="0 0 51.8848 28.3965">
 <g>
  
  <path d="M15.9538 17.9596C13.6813 19.9336 12.4004 22.4556 12.4004 24.7188C12.4004 25.3836 12.5642 26.0038 12.878 26.5371L2.40625 26.5371C0.669922 26.5371 0 25.8535 0 24.623C0 20.8359 3.85547 16.2832 10.0215 16.2832C12.3601 16.2832 14.3664 16.9381 15.9538 17.9596ZM14.7793 8.92773C14.7793 11.8945 12.5781 14.1914 10.0215 14.1914C7.47852 14.1914 5.26367 11.8945 5.26367 8.95508C5.26367 6.04297 7.49219 3.81445 10.0215 3.81445C12.5645 3.81445 14.7793 5.98828 14.7793 8.92773Z" style="fill:var(--color-0,hsl(0 0 0/0.85))"></path>
  <path d="M51.5293 24.623C51.5293 25.8535 50.8594 26.5371 49.123 26.5371L38.6679 26.5371C38.9802 26.0038 39.1426 25.3836 39.1426 24.7188C39.1426 22.4539 37.8631 19.9299 35.5895 17.9552C37.1756 16.9363 39.1809 16.2832 41.5215 16.2832C47.6875 16.2832 51.5293 20.8359 51.5293 24.623ZM46.2793 8.92773C46.2793 11.8945 44.0781 14.1914 41.5215 14.1914C38.9785 14.1914 36.75 11.8945 36.75 8.95508C36.75 6.04297 38.9785 3.81445 41.5215 3.81445C44.0645 3.81445 46.2793 5.98828 46.2793 8.92773Z" style="fill:var(--color-1,hsl(0 0 0/0.85))"></path>
  <path d="M25.7852 13.877C28.7109 13.877 31.2539 11.252 31.2539 7.83398C31.2539 4.45703 28.7109 1.95508 25.7852 1.95508C22.8594 1.95508 20.3164 4.51172 20.3164 7.86133C20.3164 11.252 22.8457 13.877 25.7852 13.877ZM16.5977 26.5371L34.9453 26.5371C36.4082 26.5371 37.2832 25.8535 37.2832 24.7188C37.2832 21.1914 32.8672 16.3242 25.7715 16.3242C18.6895 16.3242 14.2734 21.1914 14.2734 24.7188C14.2734 25.8535 15.1484 26.5371 16.5977 26.5371Z" style="fill:var(--color-2,hsl(0 0 0/0.85))"></path>
 </g>
</svg>