<?xml version="1.0" encoding="UTF-8"?>
<!--Generator: Apple Native CoreSVG 326-->
<!DOCTYPE svg
PUBLIC "-//W3C//DTD SVG 1.1//EN"
       "http://www.w3.org/Graphics/SVG/1.1/DTD/svg11.dtd">
<svg version="1.1" xmlns="http://www.w3.org/2000/svg" xmlns:xlink="http://www.w3.org/1999/xlink" viewBox="0 0 32.5938 25.1699">
 <g>
  <rect height="25.1699" opacity="0" width="32.5938" x="0" y="0"/>
  <path d="M4.29297 25.1699L27.9453 25.1699C30.8164 25.1699 32.2383 23.7617 32.2383 20.9453L32.2383 4.23828C32.2383 1.42188 30.8164 0 27.9453 0L4.29297 0C1.43555 0 0 1.42188 0 4.23828L0 20.9453C0 23.7617 1.43555 25.1699 4.29297 25.1699ZM4.32031 22.9688C2.95312 22.9688 2.20117 22.2441 2.20117 20.8223L2.20117 4.36133C2.20117 2.93945 2.95312 2.20117 4.32031 2.20117L27.918 2.20117C29.2715 2.20117 30.0371 2.93945 30.0371 4.36133L30.0371 20.8223C30.0371 22.2441 29.2715 22.9688 27.918 22.9688Z" fill="white" fill-opacity="0.85"/>
  <path d="M6.05664 18.334L13.6172 18.334C14.9434 18.334 15.5723 17.6914 15.5723 16.4199L15.5723 8.77734C15.5723 7.50586 14.9434 6.86328 13.6172 6.86328L6.05664 6.86328C4.75781 6.86328 4.10156 7.49219 4.10156 8.77734L4.10156 16.4199C4.10156 17.6914 4.75781 18.334 6.05664 18.334ZM5.6875 17.0488C6.09766 15.8184 7.64258 14.6699 9.84375 14.6699C12.0449 14.6699 13.5898 15.8184 14 17.0488ZM9.84375 13.6992C8.64062 13.6992 7.69727 12.6875 7.69727 11.3613C7.69727 10.0898 8.64062 9.07812 9.84375 9.07812C11.0332 9.07812 11.9766 10.0898 11.9766 11.3613C11.9766 12.6875 11.0332 13.6992 9.84375 13.6992ZM22.832 18.1836C23.7207 18.1836 24.5547 18.1016 25.0879 17.8828C25.457 17.7324 25.6758 17.5 25.6758 17.1445C25.6758 16.8027 25.4297 16.5293 25.0742 16.5293C24.9375 16.5293 24.8145 16.5703 24.6367 16.5977C24.2266 16.6523 23.8301 16.8164 22.9824 16.8164C20.3301 16.8164 18.6895 15.2168 18.6895 12.6191C18.6895 10.0625 20.3574 8.3125 22.791 8.3125C25.2109 8.3125 26.8379 9.84375 26.8379 12.1133C26.8379 13.4668 26.4277 14.3145 25.7715 14.3145C25.3613 14.3145 25.1973 14.1367 25.1973 13.7402L25.1973 10.3496C25.1973 9.93945 24.9102 9.625 24.5137 9.625C24.2129 9.625 23.9395 9.84375 23.8574 10.1172L23.8574 10.2266C23.5293 9.84375 23.0781 9.625 22.4219 9.625C20.9727 9.625 19.9609 10.8828 19.9609 12.6191C19.9609 14.4102 20.9727 15.627 22.4629 15.627C23.1191 15.627 23.6934 15.3398 24.0898 14.8203C24.3906 15.3398 24.9648 15.627 25.6484 15.627C27.1797 15.627 28.1914 14.2051 28.1914 12.0312C28.1914 9.05078 25.9766 6.98633 22.791 6.98633C19.4961 6.98633 17.2402 9.26953 17.2402 12.6055C17.2402 15.9551 19.4824 18.1836 22.832 18.1836ZM22.668 14.2461C21.9297 14.2461 21.4785 13.6309 21.4785 12.5918C21.4785 11.5664 21.9434 10.9648 22.6816 10.9648C23.4336 10.9648 23.8984 11.5664 23.8984 12.5508C23.8984 13.6035 23.4336 14.2461 22.668 14.2461Z" fill="white" fill-opacity="0.85"/>
 </g>
</svg>
