<svg version="1.1" xmlns="http://www.w3.org/2000/svg" xmlns:xlink="http://www.w3.org/1999/xlink" viewBox="0 0 32.5938 25.1699">
 <g>
  
  <path d="M32.2383 4.23828L32.2383 20.9453C32.2383 23.7617 30.8164 25.1699 27.9453 25.1699L4.29297 25.1699C1.43555 25.1699 0 23.7617 0 20.9453L0 4.23828C0 1.42188 1.43555 0 4.29297 0L27.9453 0C30.8164 0 32.2383 1.42188 32.2383 4.23828ZM4.42969 18.1699C4.42969 18.5801 4.64844 18.8809 5.09961 18.8809L15.7773 18.8809C16.2285 18.8809 16.4473 18.5801 16.4473 18.1699C16.4473 16.8848 14.5195 13.5762 10.4316 13.5762C6.34375 13.5762 4.42969 16.8848 4.42969 18.1699ZM19.3457 17.1035C18.8535 17.1035 18.4844 17.4863 18.4844 17.9648C18.4844 18.4297 18.8535 18.7852 19.3457 18.7852L26.8105 18.7852C27.2891 18.7852 27.6582 18.4297 27.6582 17.9648C27.6582 17.4863 27.2891 17.1035 26.8105 17.1035ZM19.3457 11.7578C18.8535 11.7578 18.4844 12.1133 18.4844 12.5781C18.4844 13.0566 18.8535 13.4395 19.3457 13.4395L26.8105 13.4395C27.2891 13.4395 27.6582 13.0566 27.6582 12.5781C27.6582 12.1133 27.2891 11.7578 26.8105 11.7578ZM7.4375 9.35156C7.4375 11.2246 8.77734 12.6191 10.4316 12.6191C12.0996 12.6328 13.4258 11.2246 13.4258 9.35156C13.4258 7.60156 12.0996 6.15234 10.4316 6.15234C8.77734 6.15234 7.4375 7.60156 7.4375 9.35156ZM19.3457 6.39844C18.8535 6.39844 18.4844 6.76758 18.4844 7.23242C18.4844 7.71094 18.8535 8.08008 19.3457 8.08008L26.8105 8.08008C27.2891 8.08008 27.6582 7.71094 27.6582 7.23242C27.6582 6.76758 27.2891 6.39844 26.8105 6.39844Z" style="fill:var(--color-0,hsl(0 0 0/0.85))"></path>
 </g>
</svg>