<svg version="1.1" xmlns="http://www.w3.org/2000/svg" xmlns:xlink="http://www.w3.org/1999/xlink" viewBox="0 0 36.2715 25.334">
 <g>
  
  <path d="M9.37891 25.3203L26.5508 25.3203C28.8203 25.3203 29.9004 24.6367 29.9004 23.1328C29.9004 19.5508 25.375 14.3691 17.9648 14.3691C10.541 14.3691 6.01562 19.5508 6.01562 23.1328C6.01562 24.6367 7.0957 25.3203 9.37891 25.3203ZM8.72266 23.2559C8.36719 23.2559 8.2168 23.1602 8.2168 22.873C8.2168 20.6172 11.6895 16.4336 17.9648 16.4336C24.2266 16.4336 27.6992 20.6172 27.6992 22.873C27.6992 23.1602 27.5625 23.2559 27.207 23.2559ZM17.9648 12.6602C21.2188 12.6602 23.8711 9.77539 23.8711 6.24805C23.8711 2.74805 21.2324 0 17.9648 0C14.7246 0 12.0586 2.80273 12.0586 6.27539C12.0586 9.78906 14.7246 12.6602 17.9648 12.6602ZM17.9648 10.5957C15.9688 10.5957 14.2598 8.69531 14.2598 6.27539C14.2598 3.89648 15.9414 2.06445 17.9648 2.06445C20.002 2.06445 21.6699 3.85547 21.6699 6.24805C21.6699 8.66797 19.9883 10.5957 17.9648 10.5957Z" style="fill:var(--color-0,hsl(0 0 0/0.85))"></path>
  <path d="M0.369141 6.98633L4.0332 9.70703C4.79883 10.2812 5.70117 9.93945 5.70117 8.99609L5.70117 7.31445L9.22852 7.31445C9.83008 7.31445 10.3086 6.84961 10.3086 6.24805C10.3086 5.66016 9.83008 5.18164 9.22852 5.18164L5.70117 5.18164L5.70117 3.52734C5.70117 2.54297 4.77148 2.25586 4.0332 2.80273L0.369141 5.53711C-0.123047 5.91992-0.123047 6.61719 0.369141 6.98633ZM25.6074 6.24805C25.6074 6.84961 26.0723 7.31445 26.6738 7.31445L30.2012 7.31445L30.2012 8.99609C30.2012 9.93945 31.1172 10.2812 31.8691 9.70703L35.5332 6.98633C36.0391 6.61719 36.0391 5.91992 35.5332 5.53711L31.8691 2.80273C31.1445 2.25586 30.2012 2.54297 30.2012 3.52734L30.2012 5.18164L26.6738 5.18164C26.0723 5.18164 25.6074 5.66016 25.6074 6.24805Z" style="fill:var(--color-1,hsl(0 0 0/0.85))"></path>
 </g>
</svg>