<?xml version="1.0" encoding="UTF-8"?>
<!--Generator: Apple Native CoreSVG 326-->
<!DOCTYPE svg
PUBLIC "-//W3C//DTD SVG 1.1//EN"
       "http://www.w3.org/Graphics/SVG/1.1/DTD/svg11.dtd">
<svg version="1.1" xmlns="http://www.w3.org/2000/svg" xmlns:xlink="http://www.w3.org/1999/xlink" viewBox="0 0 33.8242 24.5957">
 <g>
  <rect height="24.5957" opacity="0" width="33.8242" x="0" y="0"/>
  <path d="M2.33789 24.582L20.6719 24.582C22.1348 24.582 23.0098 23.8984 23.0098 22.7637C23.0098 19.2363 18.5938 14.3691 11.498 14.3691C4.41602 14.3691 0 19.2363 0 22.7637C0 23.8984 0.875 24.582 2.33789 24.582ZM11.5117 11.9219C14.4375 11.9219 16.9805 9.29688 16.9805 5.87891C16.9805 2.50195 14.4375 0 11.5117 0C8.58594 0 6.04297 2.55664 6.04297 5.90625C6.04297 9.29688 8.57227 11.9219 11.5117 11.9219Z" fill="white" fill-opacity="0.85"/>
  <path d="M25.7852 12.7285C26.25 12.7285 26.6191 12.5098 26.8926 12.0996L33.1406 2.25586C33.3047 1.99609 33.4688 1.68164 33.4688 1.38086C33.4688 0.779297 32.9219 0.382812 32.3613 0.382812C32.0059 0.382812 31.6641 0.587891 31.418 0.998047L25.7305 10.0898L23.0371 6.61719C22.7227 6.17969 22.4082 6.05664 22.0391 6.05664C21.4375 6.05664 20.9727 6.53516 20.9727 7.15039C20.9727 7.4375 21.0957 7.73828 21.2871 7.99805L24.623 12.0996C24.9785 12.5371 25.334 12.7285 25.7852 12.7285Z" fill="white" fill-opacity="0.85"/>
 </g>
</svg>
