<svg version="1.1" xmlns="http://www.w3.org/2000/svg" xmlns:xlink="http://www.w3.org/1999/xlink" viewBox="0 0 28.2461 27.9043">
 <g>
  
  <path d="M13.9453 27.8906C21.6426 27.8906 27.8906 21.6426 27.8906 13.9453C27.8906 6.24805 21.6426 0 13.9453 0C6.24805 0 0 6.24805 0 13.9453C0 21.6426 6.24805 27.8906 13.9453 27.8906ZM13.9453 25.5664C7.51953 25.5664 2.32422 20.3711 2.32422 13.9453C2.32422 7.51953 7.51953 2.32422 13.9453 2.32422C20.3711 2.32422 25.5664 7.51953 25.5664 13.9453C25.5664 20.3711 20.3711 25.5664 13.9453 25.5664Z" style="fill:var(--color-0,hsl(0 0 0/0.85))"></path>
  <path d="M7.68359 20.877L20.1797 20.877C20.7266 20.877 20.9863 20.5078 20.9863 20.0156C20.9863 18.5117 18.7305 14.6289 13.9316 14.6289C9.13281 14.6289 6.87695 18.5117 6.87695 20.0156C6.87695 20.5078 7.13672 20.877 7.68359 20.877ZM13.9316 13.5215C15.873 13.5352 17.4453 11.8672 17.4453 9.67969C17.4453 7.62891 15.873 5.93359 13.9316 5.93359C11.9902 5.93359 10.418 7.62891 10.418 9.67969C10.418 11.8672 11.9902 13.5078 13.9316 13.5215Z" style="fill:var(--color-1,hsl(0 0 0/0.85))"></path>
 </g>
</svg>