<svg version="1.1" xmlns="http://www.w3.org/2000/svg" xmlns:xlink="http://www.w3.org/1999/xlink" viewBox="0 0 33.7422 24.5957">
 <g>
  
  <path d="M2.33789 24.582L20.6719 24.582C22.1348 24.582 23.0098 23.8984 23.0098 22.7637C23.0098 19.2363 18.5938 14.3691 11.498 14.3691C4.41602 14.3691 0 19.2363 0 22.7637C0 23.8984 0.875 24.582 2.33789 24.582ZM11.5117 11.9219C14.4375 11.9219 16.9805 9.29688 16.9805 5.87891C16.9805 2.50195 14.4375 0 11.5117 0C8.58594 0 6.04297 2.55664 6.04297 5.90625C6.04297 9.29688 8.57227 11.9219 11.5117 11.9219Z" style="fill:var(--color-0,hsl(0 0 0/0.85))"></path>
  <path d="M22.9414 11.7168C23.2559 11.7168 23.5293 11.5938 23.7344 11.375L27.6035 7.49219L31.5 11.375C31.7051 11.5801 31.9648 11.7168 32.2793 11.7168C32.8945 11.7168 33.373 11.2109 33.373 10.6094C33.373 10.2949 33.2637 10.0488 33.0449 9.83008L29.1621 5.94727L33.0586 2.03711C33.291 1.80469 33.3867 1.57227 33.3867 1.27148C33.3867 0.669922 32.9082 0.177734 32.293 0.177734C32.0059 0.177734 31.7734 0.287109 31.541 0.519531L27.6035 4.41602L23.707 0.533203C23.502 0.314453 23.2559 0.205078 22.9414 0.205078C22.3398 0.205078 21.8477 0.683594 21.8477 1.28516C21.8477 1.58594 21.9707 1.8457 22.1758 2.05078L26.0586 5.94727L22.1758 9.84375C21.9707 10.0488 21.8477 10.3086 21.8477 10.6094C21.8477 11.2109 22.3398 11.7168 22.9414 11.7168Z" style="fill:var(--color-1,hsl(0 0 0/0.85))"></path>
 </g>
</svg>