<svg version="1.1" xmlns="http://www.w3.org/2000/svg" xmlns:xlink="http://www.w3.org/1999/xlink" viewBox="0 0 33.4141 32.3973">
 <g>
  
  <path d="M29.1348 18.9809C29.6406 19.3227 30.2695 19.1996 30.6387 18.6801C32.3887 16.2738 33.4141 12.9652 33.4141 9.58829C33.4141 6.21134 32.4023 2.8754 30.6387 0.496496C30.2695-0.0367068 29.6406-0.146082 29.1348 0.195715C28.6289 0.537512 28.5469 1.18009 28.9434 1.74064C30.4473 3.84611 31.2949 6.67618 31.2949 9.58829C31.2949 12.5004 30.4199 15.3031 28.9434 17.4359C28.5605 17.9965 28.6289 18.6391 29.1348 18.9809Z" style="fill:var(--color-0,hsl(0 0 0/0.85))"></path>
  <path d="M24.0762 15.4125C24.5273 15.727 25.1699 15.6313 25.5391 15.0981C26.5918 13.7172 27.2207 11.6801 27.2207 9.58829C27.2207 7.4965 26.5918 5.47306 25.5391 4.06486C25.1699 3.54532 24.5273 3.43595 24.0762 3.76407C23.5156 4.14689 23.4336 4.83048 23.8574 5.39103C24.6504 6.48478 25.1016 8.00236 25.1016 9.58829C25.1016 11.1742 24.6367 12.6781 23.8574 13.7856C23.4473 14.3598 23.5156 15.016 24.0762 15.4125Z" style="fill:var(--color-1,hsl(0 0 0/0.85))"></path>
  <path d="M5.35938 28.4828L22.5312 28.4828C24.6777 28.4828 25.4434 27.8676 25.4434 26.6645C25.4434 23.1371 21.0273 18.2699 13.9453 18.2699C6.84961 18.2699 2.43359 23.1371 2.43359 26.6645C2.43359 27.8676 3.19922 28.4828 5.35938 28.4828ZM13.9453 15.8227C16.8848 15.8227 19.4141 13.1977 19.4141 9.7797C19.4141 6.40275 16.8711 3.90079 13.9453 3.90079C11.0195 3.90079 8.47656 6.45743 8.47656 9.80704C8.47656 13.1977 11.0195 15.8227 13.9453 15.8227Z" style="fill:var(--color-2,hsl(0 0 0/0.85))"></path>
 </g>
</svg>