<?xml version="1.0" encoding="UTF-8"?>
<!--Generator: Apple Native CoreSVG 326-->
<!DOCTYPE svg
PUBLIC "-//W3C//DTD SVG 1.1//EN"
       "http://www.w3.org/Graphics/SVG/1.1/DTD/svg11.dtd">
<svg version="1.1" xmlns="http://www.w3.org/2000/svg" xmlns:xlink="http://www.w3.org/1999/xlink" viewBox="0 0 41.4531 36.545">
 <g>
  <rect height="36.545" opacity="0" width="41.4531" x="0" y="0"/>
  <path d="M17.7484 21.541C17.1835 22.0046 16.6802 22.5038 16.2469 23.0278C14.9675 22.364 13.4633 21.9707 11.8809 21.9707C7.41016 21.9707 3.54102 25.1289 3.54102 28.5196C3.54102 28.793 3.67773 28.9024 3.95117 28.9024L13.843 28.9024C13.8635 29.6606 14.0606 30.3487 14.4525 30.9258L4.29297 30.9258C2.43359 30.9258 1.50391 30.1739 1.50391 28.6426C1.50391 24.1035 6.15234 19.9473 11.8809 19.9473C14.0615 19.9473 16.0825 20.5467 17.7484 21.541ZM9.81648 10.2251C9.19674 10.8555 8.80469 11.7661 8.80469 12.7832C8.80469 14.752 10.2266 16.3516 11.8945 16.3516C12.9237 16.3516 13.8555 15.7525 14.4219 14.8283L15.88 16.2858C14.9394 17.5678 13.4991 18.3887 11.8945 18.3887C9.07812 18.3887 6.76758 15.8731 6.76758 12.7832C6.76758 11.2172 7.38824 9.79447 8.38161 8.79092Z" fill="white" fill-opacity="0.85"/>
  <path d="M22.6548 23.0574C19.5557 24.4389 17.8965 26.9192 17.8965 28.4785C17.8965 28.7657 18.0469 28.8614 18.4023 28.8614L28.4616 28.8614L30.527 30.9258L19.0586 30.9258C16.7754 30.9258 15.6953 30.2422 15.6953 28.7383C15.6953 26.3803 17.6563 23.3292 21.1243 21.5276ZM39.5801 28.7383C39.5801 29.8144 39.0271 30.4705 37.8776 30.7546L35.9844 28.8614L36.8867 28.8614C37.2422 28.8614 37.3789 28.7657 37.3789 28.4785C37.3789 26.4274 34.5079 22.7824 29.2714 22.1484L27.1205 19.9974C27.288 19.9777 27.4654 19.9746 27.6445 19.9746C35.0547 19.9746 39.5801 25.1563 39.5801 28.7383ZM33.5508 11.8535C33.5508 15.3809 30.8984 18.2657 27.6445 18.2657C26.2969 18.2657 25.0486 17.769 24.0539 16.9309L23.2755 16.1525C22.3201 15.0236 21.7383 13.5224 21.7383 11.8809C21.7383 8.40824 24.4043 5.6055 27.6445 5.6055C30.9121 5.6055 33.5508 8.35355 33.5508 11.8535ZM23.9395 11.8809C23.9395 14.3008 25.6484 16.2012 27.6445 16.2012C29.668 16.2012 31.3496 14.2735 31.3496 11.8535C31.3496 9.46097 29.6816 7.66996 27.6445 7.66996C25.6211 7.66996 23.9395 9.50199 23.9395 11.8809Z" fill="white" fill-opacity="0.85"/>
  <path d="M36.5176 34.6446C36.9277 35.0547 37.6113 35.0547 38.0078 34.6446C38.4043 34.2207 38.4316 33.5782 38.0078 33.1543L9.14648 4.293C8.72266 3.86917 8.06641 3.88285 7.64258 4.293C7.24609 4.68949 7.24609 5.38675 7.64258 5.78324Z" fill="white" fill-opacity="0.85"/>
 </g>
</svg>
