<?xml version="1.0" encoding="UTF-8"?>
<!--Generator: Apple Native CoreSVG 326-->
<!DOCTYPE svg
PUBLIC "-//W3C//DTD SVG 1.1//EN"
       "http://www.w3.org/Graphics/SVG/1.1/DTD/svg11.dtd">
<svg version="1.1" xmlns="http://www.w3.org/2000/svg" xmlns:xlink="http://www.w3.org/1999/xlink" viewBox="0 0 32.5938 25.1699">
 <g>
  <rect height="25.1699" opacity="0" width="32.5938" x="0" y="0"/>
  <path d="M4.29297 25.1699L27.9453 25.1699C30.8164 25.1699 32.2383 23.7617 32.2383 20.9453L32.2383 4.23828C32.2383 1.42188 30.8164 0 27.9453 0L4.29297 0C1.43555 0 0 1.42188 0 4.23828L0 20.9453C0 23.7617 1.43555 25.1699 4.29297 25.1699ZM4.32031 22.9688C2.95312 22.9688 2.20117 22.2441 2.20117 20.8223L2.20117 4.36133C2.20117 2.93945 2.95312 2.20117 4.32031 2.20117L27.918 2.20117C29.2715 2.20117 30.0371 2.93945 30.0371 4.36133L30.0371 20.8223C30.0371 22.2441 29.2715 22.9688 27.918 22.9688Z" fill="white" fill-opacity="0.85"/>
  <path d="M19.3457 8.08008L26.8105 8.08008C27.2891 8.08008 27.6582 7.71094 27.6582 7.23242C27.6582 6.76758 27.2891 6.39844 26.8105 6.39844L19.3457 6.39844C18.8535 6.39844 18.4844 6.76758 18.4844 7.23242C18.4844 7.71094 18.8535 8.08008 19.3457 8.08008ZM19.3457 13.4395L26.8105 13.4395C27.2891 13.4395 27.6582 13.0566 27.6582 12.5781C27.6582 12.1133 27.2891 11.7578 26.8105 11.7578L19.3457 11.7578C18.8535 11.7578 18.4844 12.1133 18.4844 12.5781C18.4844 13.0566 18.8535 13.4395 19.3457 13.4395ZM19.3457 18.7852L26.8105 18.7852C27.2891 18.7852 27.6582 18.4297 27.6582 17.9648C27.6582 17.4863 27.2891 17.1035 26.8105 17.1035L19.3457 17.1035C18.8535 17.1035 18.4844 17.4863 18.4844 17.9648C18.4844 18.4297 18.8535 18.7852 19.3457 18.7852ZM5.09961 18.7852L15.7773 18.7852C16.2285 18.7852 16.4473 18.4844 16.4473 18.0742C16.4473 16.7891 14.5195 13.4805 10.4316 13.4805C6.34375 13.4805 4.42969 16.7891 4.42969 18.0742C4.42969 18.4844 4.64844 18.7852 5.09961 18.7852ZM10.4316 12.5234C12.0996 12.5371 13.4258 11.1289 13.4258 9.25586C13.4258 7.50586 12.0996 6.05664 10.4316 6.05664C8.77734 6.05664 7.4375 7.50586 7.4375 9.25586C7.4375 11.1289 8.77734 12.5234 10.4316 12.5234Z" fill="white" fill-opacity="0.85"/>
 </g>
</svg>
