<?xml version="1.0" encoding="UTF-8"?>
<!--Generator: Apple Native CoreSVG 326-->
<!DOCTYPE svg
PUBLIC "-//W3C//DTD SVG 1.1//EN"
       "http://www.w3.org/Graphics/SVG/1.1/DTD/svg11.dtd">
<svg version="1.1" xmlns="http://www.w3.org/2000/svg" xmlns:xlink="http://www.w3.org/1999/xlink" viewBox="0 0 28.2461 27.9043">
 <g>
  <rect height="27.9043" opacity="0" width="28.2461" x="0" y="0"/>
  <path d="M13.9453 27.9043C21.6426 27.9043 27.8906 21.6562 27.8906 13.959C27.8906 6.27539 21.6426 0.0136719 13.9453 0.0136719C6.26172 0.0136719 0 6.27539 0 13.959C0 21.6562 6.26172 27.9043 13.9453 27.9043Z" fill="white" fill-opacity="0.85"/>
  <path d="M4.45703 12.5234C4.45703 10.2129 6.125 8.53125 8.43555 8.53125L14.2734 8.53125C16.5977 8.53125 18.252 10.2129 18.252 12.5234C18.252 14.8477 16.5977 16.502 14.2734 16.502L12.4141 16.502C11.9766 16.0918 11.9355 15.3945 12.0859 14.9707L14.2051 14.9707C15.6543 14.9707 16.6523 13.9863 16.6523 12.5234C16.6523 11.0742 15.6543 10.0625 14.2051 10.0625L8.51758 10.0625C7.08203 10.0625 6.07031 11.0742 6.07031 12.5234C6.07031 13.9863 7.06836 14.9707 8.51758 14.9707L8.83203 14.9707C8.77734 15.4355 8.81836 16.1328 8.90039 16.502L8.43555 16.502C6.11133 16.502 4.45703 14.8477 4.45703 12.5234ZM9.61133 15.5039C9.61133 13.1934 11.2656 11.5254 13.5762 11.5254L15.4492 11.5254C15.873 11.9082 15.9277 12.6602 15.75 13.0566L13.6582 13.0566C12.209 13.0566 11.2109 14.0547 11.2109 15.5039C11.2109 16.9531 12.209 17.9648 13.6582 17.9648L19.332 17.9648C20.7812 17.9648 21.7793 16.9531 21.7793 15.5039C21.7793 14.0547 20.7949 13.0566 19.332 13.0566L19.0312 13.0566C19.0996 12.3867 19.0312 11.9355 18.9629 11.5254L19.4277 11.5254C21.7383 11.5254 23.3926 13.1934 23.3926 15.5039C23.3926 17.8281 21.7383 19.4961 19.4277 19.4961L13.5762 19.4961C11.2656 19.4961 9.61133 17.8281 9.61133 15.5039Z" fill="white"/>
 </g>
</svg>
