<svg version="1.1" xmlns="http://www.w3.org/2000/svg" xmlns:xlink="http://www.w3.org/1999/xlink" viewBox="0 0 28.2461 27.9043">
 <g>
  
  <path d="M13.9453 27.8906C21.6426 27.8906 27.8906 21.6426 27.8906 13.9453C27.8906 6.24805 21.6426 0 13.9453 0C6.24805 0 0 6.24805 0 13.9453C0 21.6426 6.24805 27.8906 13.9453 27.8906ZM13.9453 25.5664C7.51953 25.5664 2.32422 20.3711 2.32422 13.9453C2.32422 7.51953 7.51953 2.32422 13.9453 2.32422C20.3711 2.32422 25.5664 7.51953 25.5664 13.9453C25.5664 20.3711 20.3711 25.5664 13.9453 25.5664Z" style="fill:var(--color-0,hsl(0 0 0/0.85))"></path>
  <path d="M4.75781 12.5508C4.75781 14.8066 6.35742 16.4062 8.59961 16.4062L9.06445 16.4062C8.98242 16.0371 8.94141 15.3672 8.99609 14.9297L8.69531 14.9297C7.28711 14.9297 6.31641 13.9727 6.31641 12.5508C6.31641 11.1426 7.28711 10.1582 8.69531 10.1582L14.1914 10.1582C15.5996 10.1582 16.5703 11.1426 16.5703 12.5508C16.5703 13.9727 15.6133 14.9297 14.1914 14.9297L12.1406 14.9297C11.9902 15.3398 12.0449 16.0098 12.4551 16.4062L14.2734 16.4062C16.5156 16.4062 18.1152 14.8066 18.1152 12.5508C18.1152 10.2949 16.5156 8.68164 14.2734 8.68164L8.59961 8.68164C6.35742 8.68164 4.75781 10.2949 4.75781 12.5508ZM9.74805 15.4492C9.74805 17.7051 11.3477 19.3184 13.6035 19.3184L19.2637 19.3184C21.5059 19.3184 23.1191 17.7051 23.1191 15.4492C23.1191 13.1934 21.5195 11.5938 19.2637 11.5938L18.7988 11.5938C18.8672 11.9902 18.9492 12.4277 18.8672 13.0703L19.1816 13.0703C20.5898 13.0703 21.5605 14.041 21.5605 15.4492C21.5605 16.8574 20.5898 17.8418 19.1816 17.8418L13.6719 17.8418C12.2637 17.8418 11.293 16.8574 11.293 15.4492C11.293 14.041 12.2637 13.0703 13.6719 13.0703L15.709 13.0703C15.8867 12.6738 15.832 11.9629 15.4082 11.5938L13.6035 11.5938C11.3477 11.5938 9.74805 13.1934 9.74805 15.4492Z" style="fill:var(--color-1,hsl(0 0 0/0.85))"></path>
 </g>
</svg>