<svg version="1.1" xmlns="http://www.w3.org/2000/svg" xmlns:xlink="http://www.w3.org/1999/xlink" viewBox="0 0 28.7383 36.1621">
 <g>
  
  <path d="M20.489 3.97852L7.89383 3.97852C7.9448 2.85991 8.64699 2.22852 9.81641 2.22852L18.5664 2.22852C19.7358 2.22852 20.438 2.85991 20.489 3.97852Z" style="fill:var(--color-0,hsl(0 0 0/0.85))"></path>
  <path d="M23.2851 7.88385C22.8454 7.81396 22.379 7.7793 21.8887 7.7793L6.49414 7.7793C6.00393 7.7793 5.53767 7.81374 5.09809 7.88327C5.24713 6.57013 6.13588 5.83789 7.58789 5.83789L20.8086 5.83789C22.2608 5.83789 23.1383 6.57035 23.2851 7.88385Z" style="fill:var(--color-1,hsl(0 0 0/0.85))"></path>
  <path d="M12.6361 26.3071C11.3197 27.5348 10.5684 29.1378 10.5684 30.7344C10.5684 31.1054 10.6173 31.4491 10.71 31.7598L6.53516 31.7598C5.16797 31.7598 4.40234 31.0215 4.40234 29.5996L4.40234 29.255C4.9774 27.3189 6.98784 25.6621 9.80273 25.6621C10.8779 25.6621 11.8339 25.9019 12.6361 26.3071ZM12.4551 21.2871C12.4551 22.9551 11.2383 24.2266 9.81641 24.2266C8.39453 24.2266 7.16406 22.9551 7.16406 21.3008C7.16406 19.6875 8.39453 18.457 9.81641 18.457C11.2246 18.457 12.4551 19.6602 12.4551 21.2871Z" style="fill:var(--color-2,hsl(0 0 0/0.85))"></path>
  <path d="M23.9805 28.1431L23.9805 29.5996C23.9805 31.0215 23.2012 31.7598 21.8613 31.7598L12.4614 31.7598C12.2653 31.5189 12.1543 31.1683 12.1543 30.7344C12.1543 28.2871 14.6973 25.6895 18.5391 25.6895C21.0291 25.6895 22.9576 26.7592 23.9805 28.1431ZM21.5742 20.6855C21.5742 22.5723 20.1797 24.0352 18.5527 24.0352C16.9258 24.0352 15.5039 22.5723 15.5039 20.7129C15.5039 18.8535 16.9258 17.4316 18.5527 17.4316C20.166 17.4316 21.5742 18.8125 21.5742 20.6855Z" style="fill:var(--color-3,hsl(0 0 0/0.85))"></path>
  <path d="M6.49414 33.9609L21.8887 33.9609C24.7461 33.9609 26.1816 32.5391 26.1816 29.7227L26.1816 14.2188C26.1816 11.4023 24.7461 9.98047 21.8887 9.98047L6.49414 9.98047C3.63672 9.98047 2.20117 11.3887 2.20117 14.2188L2.20117 29.7227C2.20117 32.5391 3.63672 33.9609 6.49414 33.9609ZM6.53516 31.7598C5.16797 31.7598 4.40234 31.0215 4.40234 29.5996L4.40234 14.3281C4.40234 12.9199 5.16797 12.1816 6.53516 12.1816L21.8613 12.1816C23.2012 12.1816 23.9805 12.9199 23.9805 14.3281L23.9805 29.5996C23.9805 31.0215 23.2012 31.7598 21.8613 31.7598Z" style="fill:var(--color-4,hsl(0 0 0/0.85))"></path>
 </g>
</svg>