<?xml version="1.0" encoding="UTF-8"?>
<!--Generator: Apple Native CoreSVG 326-->
<!DOCTYPE svg
PUBLIC "-//W3C//DTD SVG 1.1//EN"
       "http://www.w3.org/Graphics/SVG/1.1/DTD/svg11.dtd">
<svg version="1.1" xmlns="http://www.w3.org/2000/svg" xmlns:xlink="http://www.w3.org/1999/xlink" viewBox="0 0 30.8848 29.1895">
 <g>
  <rect height="29.1895" opacity="0" width="30.8848" x="0" y="0"/>
  <path d="M1.81836 25.9219L28.7109 25.9219L28.7109 25.0059C28.7109 24.459 28.3965 24.1309 27.8359 24.1309L26.9609 24.1309L26.9609 9.37891L28.1641 9.37891C28.916 9.37891 29.3535 8.83203 29.3535 8.27148C29.3535 7.86133 29.1211 7.50586 28.6152 7.21875L16.9395 0.478516C16.3926 0.164062 15.8184 0 15.2578 0C14.6973 0 14.1094 0.164062 13.5898 0.478516L1.91406 7.21875C1.39453 7.50586 1.17578 7.86133 1.17578 8.27148C1.17578 8.83203 1.61328 9.37891 2.36523 9.37891L3.56836 9.37891L3.56836 24.1309L2.70703 24.1309C2.14648 24.1309 1.81836 24.459 1.81836 25.0059ZM5.63281 24.1309L5.63281 7.62891L14.7246 2.5293C14.8887 2.43359 15.0801 2.37891 15.2578 2.37891C15.4355 2.37891 15.627 2.43359 15.8047 2.5293L24.8965 7.62891L24.8965 24.1309ZM1.09375 29.1758L29.4219 29.1758C30.0234 29.1758 30.5293 28.6699 30.5293 28.0684C30.5293 27.4668 30.0234 26.9746 29.4219 26.9746L1.09375 26.9746C0.492188 26.9746 0 27.4668 0 28.0684C0 28.6699 0.492188 29.1758 1.09375 29.1758Z" fill="white" fill-opacity="0.85"/>
  <path d="M12.1133 19.5234C14.3965 19.5234 15.4629 18.1152 15.4629 16.3242C15.4629 14.4648 14.3418 13.7539 12.8789 13.1934L12.0996 12.9062C11.1152 12.5371 10.4453 12.0859 10.4453 11.0332C10.4453 10.1035 11.0059 9.40625 12.0449 9.40625C12.9609 9.40625 13.5898 9.92578 13.8359 10.9238C13.9316 11.3066 14.1914 11.4707 14.5605 11.4707C14.957 11.4707 15.2168 11.1973 15.2168 10.7871C15.2168 10.6777 15.2031 10.541 15.1621 10.4043C14.8203 8.96875 13.6309 8.08008 12.0586 8.08008C10.0215 8.08008 8.91406 9.47461 8.91406 11.1426C8.91406 12.7832 9.88477 13.6992 11.4434 14.2598L12.2227 14.5332C13.2207 14.8887 13.9316 15.4219 13.9316 16.4746C13.9316 17.4316 13.3027 18.1973 12.1406 18.1973C11.1152 18.1973 10.4453 17.6367 10.2129 16.6113C10.1035 16.2285 9.87109 16.0508 9.48828 16.0508C9.0918 16.0508 8.80469 16.3652 8.80469 16.7891C8.80469 16.9531 8.83203 17.1582 8.88672 17.3086C9.33789 18.7305 10.5 19.5234 12.1133 19.5234ZM16.5156 22.0938C16.9258 22.0938 17.1445 21.8613 17.2129 21.4102L19.3184 9.17383C19.3457 9.0918 19.373 8.92773 19.373 8.75C19.373 8.36719 19.1133 8.09375 18.7168 8.09375C18.293 8.09375 18.0879 8.32617 18.0059 8.77734L15.9004 21.0137C15.8867 21.0957 15.8594 21.2598 15.8594 21.4375C15.8594 21.8203 16.1191 22.0938 16.5156 22.0938ZM21.1777 19.4004C21.7383 19.4004 22.1621 18.9902 22.1621 18.4434C22.1621 17.9102 21.7383 17.4863 21.1777 17.4863C20.6445 17.4863 20.2344 17.9102 20.2344 18.4434C20.2344 18.9902 20.6445 19.4004 21.1777 19.4004Z" fill="white" fill-opacity="0.85"/>
 </g>
</svg>
