<?xml version="1.0" encoding="UTF-8"?>
<!--Generator: Apple Native CoreSVG 326-->
<!DOCTYPE svg
PUBLIC "-//W3C//DTD SVG 1.1//EN"
       "http://www.w3.org/Graphics/SVG/1.1/DTD/svg11.dtd">
<svg version="1.1" xmlns="http://www.w3.org/2000/svg" xmlns:xlink="http://www.w3.org/1999/xlink" viewBox="0 0 33.291 27.3099">
 <g>
  <rect height="27.3099" opacity="0" width="33.291" x="0" y="0"/>
  <path d="M32.9355 16.3962C32.9355 7.78289 26.3184 0.714533 17.8965 0.00359537C17.459-0.0374203 17.1309 0.277033 17.1309 0.714533L17.1309 5.18524C17.1309 5.55438 17.3906 5.84149 17.7598 5.86883C22.9961 6.51141 27.0703 10.9821 27.0703 16.3962C27.0703 18.8571 26.2227 21.1266 24.7324 23.027C24.541 23.2595 24.5547 23.5602 24.7598 23.779L28.0273 27.0329C28.3281 27.3337 28.793 27.3337 29.0664 27.0055C31.4863 24.1345 32.9355 20.4294 32.9355 16.3962Z" fill="white" fill-opacity="0.85"/>
  <path d="M0 16.3962C0 20.443 1.44922 24.1481 3.86914 27.0192C4.14258 27.3473 4.59375 27.3337 4.9082 27.0329L8.17578 23.779C8.38086 23.5602 8.39453 23.2595 8.20312 23.027C6.69922 21.1266 5.86523 18.8571 5.86523 16.3962C5.86523 10.9821 9.93945 6.51141 15.1758 5.86883C15.5449 5.84149 15.8047 5.55438 15.8047 5.18524L15.8047 0.714533C15.8047 0.277033 15.4766-0.0374203 15.0391 0.00359537C6.61719 0.714533 0 7.78289 0 16.3962Z" fill="white" fill-opacity="0.85"/>
  <path d="M13.2891 21.7145C15.5723 21.7145 16.6523 20.3063 16.6523 18.5153C16.6523 16.6559 15.5176 15.945 14.0547 15.3981L13.2754 15.0973C12.3047 14.7282 11.6348 14.277 11.6348 13.2243C11.6348 12.2946 12.1816 11.5973 13.2344 11.5973C14.1367 11.5973 14.7656 12.1169 15.0117 13.1149C15.1074 13.4977 15.3672 13.6618 15.7363 13.6618C16.1328 13.6618 16.3926 13.3884 16.3926 12.9782C16.3926 12.8688 16.3789 12.7321 16.3516 12.5954C16.0098 11.1598 14.8066 10.2712 13.248 10.2712C11.2109 10.2712 10.0898 11.6657 10.0898 13.3337C10.0898 14.9743 11.0742 15.8903 12.6191 16.4509L13.4121 16.7243C14.4102 17.0798 15.1074 17.613 15.1074 18.6657C15.1074 19.6227 14.4785 20.3884 13.3301 20.3884C12.291 20.3884 11.6348 19.8278 11.3887 18.8024C11.293 18.4196 11.0469 18.2419 10.6777 18.2419C10.2676 18.2419 9.99414 18.5563 9.99414 18.9802C9.99414 19.1442 10.0215 19.3493 10.0625 19.4997C10.5137 20.9216 11.6758 21.7145 13.2891 21.7145ZM17.6914 24.2848C18.1152 24.2848 18.3203 24.0524 18.4023 23.6013L20.5078 11.3649C20.5215 11.2829 20.5488 11.1188 20.5488 10.9411C20.5488 10.5583 20.2891 10.2848 19.8926 10.2848C19.4824 10.2848 19.2637 10.5173 19.1953 10.9684L17.0898 23.2048C17.0762 23.2868 17.0352 23.4509 17.0352 23.6286C17.0352 24.0114 17.2949 24.2848 17.6914 24.2848ZM22.3535 21.5915C22.9141 21.5915 23.3379 21.1813 23.3379 20.6345C23.3379 20.1013 22.9141 19.6774 22.3535 19.6774C21.8203 19.6774 21.4102 20.1013 21.4102 20.6345C21.4102 21.1813 21.8203 21.5915 22.3535 21.5915Z" fill="white" fill-opacity="0.85"/>
 </g>
</svg>
