<?xml version="1.0" encoding="UTF-8"?>
<!--Generator: Apple Native CoreSVG 326-->
<!DOCTYPE svg
PUBLIC "-//W3C//DTD SVG 1.1//EN"
       "http://www.w3.org/Graphics/SVG/1.1/DTD/svg11.dtd">
<svg version="1.1" xmlns="http://www.w3.org/2000/svg" xmlns:xlink="http://www.w3.org/1999/xlink" viewBox="0 0 30.8848 29.1895">
 <g>
  <rect height="29.1895" opacity="0" width="30.8848" x="0" y="0"/>
  <path d="M1.81836 27.5898L28.7109 27.5898L28.7109 25.9766C28.7109 25.4297 28.3965 25.1016 27.8359 25.1016L26.9609 25.1016L26.9609 9.37891L28.1641 9.37891C28.916 9.37891 29.3535 8.83203 29.3535 8.27148C29.3535 7.86133 29.1211 7.50586 28.6152 7.21875L16.9395 0.478516C16.3926 0.164062 15.8184 0 15.2578 0C14.6973 0 14.1094 0.164062 13.5898 0.478516L1.91406 7.21875C1.39453 7.50586 1.17578 7.86133 1.17578 8.27148C1.17578 8.83203 1.61328 9.37891 2.36523 9.37891L3.56836 9.37891L3.56836 25.1016L2.70703 25.1016C2.14648 25.1016 1.81836 25.4297 1.81836 25.9766ZM1.09375 29.1758L29.4219 29.1758C30.0234 29.1758 30.5293 28.6699 30.5293 28.0684C30.5293 27.4668 30.0234 26.9746 29.4219 26.9746L1.09375 26.9746C0.492188 26.9746 0 27.4668 0 28.0684C0 28.6699 0.492188 29.1758 1.09375 29.1758Z" fill="white" fill-opacity="0.85"/>
  <path d="M11.9902 20.877C10.3223 20.877 9.13281 20.0703 8.66797 18.5938C8.61328 18.4434 8.57227 18.2246 8.57227 18.0605C8.57227 17.623 8.87305 17.3086 9.2832 17.3086C9.67969 17.3086 9.92578 17.4863 10.0352 17.8828C10.2812 18.9355 10.9648 19.5234 12.0176 19.5234C13.2207 19.5234 13.8633 18.7305 13.8633 17.7461C13.8633 16.6523 13.125 16.1191 12.0996 15.75L11.293 15.4492C9.69336 14.875 8.69531 13.9316 8.69531 12.2363C8.69531 10.5137 9.83008 9.07812 11.9355 9.07812C13.5625 9.07812 14.793 10.0078 15.1348 11.4844C15.1758 11.6211 15.1895 11.7715 15.1895 11.8809C15.1895 12.291 14.9297 12.5781 14.5195 12.5781C14.1367 12.5781 13.8633 12.4277 13.7676 12.0176C13.5078 10.9922 12.8652 10.459 11.9219 10.459C10.8555 10.459 10.2812 11.1836 10.2812 12.127C10.2812 13.207 10.9648 13.6719 11.9766 14.0547L12.7832 14.3691C14.2871 14.9434 15.4492 15.6543 15.4492 17.5957C15.4492 19.4277 14.3555 20.877 11.9902 20.877ZM16.5293 23.5293C16.1191 23.5293 15.8594 23.2559 15.8594 22.8594C15.8594 22.668 15.8867 22.4902 15.9004 22.4082L18.0605 9.80273C18.1562 9.33789 18.3613 9.0918 18.7988 9.0918C19.209 9.0918 19.4824 9.37891 19.4824 9.77539C19.4824 9.9668 19.4551 10.1309 19.4277 10.2266L17.2539 22.8184C17.1855 23.2832 16.9531 23.5293 16.5293 23.5293ZM21.3418 20.7539C20.7949 20.7539 20.3711 20.3301 20.3711 19.7695C20.3711 19.209 20.7949 18.7715 21.3418 18.7715C21.9297 18.7715 22.3672 19.209 22.3672 19.7695C22.3672 20.3301 21.9297 20.7539 21.3418 20.7539Z" fill="white"/>
 </g>
</svg>
