<svg version="1.1" xmlns="http://www.w3.org/2000/svg" xmlns:xlink="http://www.w3.org/1999/xlink" viewBox="0 0 33.5408 27.9043">
 <g>
  
  <path d="M16.5995 27.8906C24.2968 27.8906 30.5448 21.6426 30.5448 13.9453C30.5448 6.24805 24.2968 0 16.5995 0C8.90224 0 2.65419 6.24805 2.65419 13.9453L4.97841 13.9453C4.97841 7.51953 10.1737 2.32422 16.5995 2.32422C23.0253 2.32422 28.2206 7.51953 28.2206 13.9453C28.2206 20.3711 23.0253 25.5664 16.5995 25.5664C12.7167 25.5664 9.2577 23.6523 7.19325 20.7539C6.76942 20.1934 6.12684 20.0156 5.55263 20.3574C5.00575 20.6992 4.84169 21.4648 5.30653 22.0664C7.83583 25.6074 11.9784 27.8906 16.5995 27.8906ZM0.972548 11.3066C-0.0118272 11.3066-0.257921 11.9766 0.275282 12.7422L3.33778 17.0898C3.78895 17.7188 4.4452 17.7051 4.8827 17.0898L7.93153 12.7285C8.46474 11.9766 8.20497 11.3066 7.24794 11.3066Z" style="fill:var(--color-0,hsl(0 0 0/0.85))"></path>
  <path d="M13.4413 19.0723C15.7245 19.0723 16.7909 17.6641 16.7909 15.8867C16.7909 14.0137 15.6698 13.3164 14.2069 12.7559L13.4276 12.4551C12.4433 12.0859 11.7733 11.6484 11.7733 10.5957C11.7733 9.66602 12.3339 8.95508 13.3729 8.95508C14.289 8.95508 14.9179 9.48828 15.164 10.4863C15.2597 10.8691 15.5194 11.0332 15.8886 11.0332C16.285 11.0332 16.5448 10.7461 16.5448 10.3496C16.5448 10.2402 16.5311 10.0898 16.4901 9.9668C16.1483 8.53125 14.9589 7.64258 13.4003 7.64258C11.3495 7.64258 10.2421 9.02344 10.2421 10.6914C10.2421 12.3457 11.2128 13.248 12.7714 13.8086L13.5507 14.0957C14.5487 14.4512 15.2597 14.9707 15.2597 16.0371C15.2597 16.9941 14.6308 17.7598 13.4686 17.7598C12.4433 17.7598 11.7733 17.1992 11.5409 16.1738C11.4315 15.791 11.1991 15.6133 10.8163 15.6133C10.4198 15.6133 10.1327 15.9141 10.1327 16.3379C10.1327 16.5156 10.1737 16.7207 10.2147 16.8574C10.6659 18.293 11.828 19.0723 13.4413 19.0723ZM17.8436 21.6562C18.2538 21.6562 18.4725 21.4238 18.5409 20.9727L20.6464 8.73633C20.6737 8.64062 20.7011 8.49023 20.7011 8.29883C20.7011 7.91602 20.4413 7.64258 20.0448 7.64258C19.621 7.64258 19.4159 7.88867 19.3339 8.33984L17.2284 20.5625C17.2147 20.6582 17.1874 20.8086 17.1874 21C17.1874 21.3828 17.4472 21.6562 17.8436 21.6562ZM22.5058 18.9492C23.0663 18.9492 23.4901 18.5391 23.4901 18.0059C23.4901 17.4727 23.0663 17.0488 22.5058 17.0488C21.9725 17.0488 21.5624 17.4727 21.5624 18.0059C21.5624 18.5391 21.9725 18.9492 22.5058 18.9492Z" style="fill:var(--color-1,hsl(0 0 0/0.85))"></path>
 </g>
</svg>