<svg version="1.1" xmlns="http://www.w3.org/2000/svg" xmlns:xlink="http://www.w3.org/1999/xlink" viewBox="0 0 30.9258 30.584">
 <g>
  
  <path d="M15.2852 30.5703C23.6797 30.5703 30.5703 23.6797 30.5703 15.2852C30.5703 6.89062 23.6797 0 15.2852 0C6.89062 0 0 6.89062 0 15.2852C0 23.6797 6.89062 30.5703 15.2852 30.5703ZM15.2852 25.4844C9.65234 25.4844 5.08594 20.918 5.08594 15.2852C5.08594 9.63867 9.65234 5.08594 15.2852 5.08594C20.9316 5.08594 25.4844 9.63867 25.4844 15.2852C25.4844 20.918 20.9316 25.4844 15.2852 25.4844Z" style="fill:var(--color-0,hsl(0 0 0/0.85))"></path>
  <path d="M12.127 20.4121C14.4102 20.4121 15.4902 19.0039 15.4902 17.2266C15.4902 15.3535 14.3555 14.6562 12.8926 14.0957L12.1133 13.7949C11.1289 13.4258 10.459 12.9883 10.459 11.9355C10.459 11.0059 11.0195 10.2949 12.0586 10.2949C12.9746 10.2949 13.6035 10.8281 13.8496 11.8262C13.9453 12.209 14.2051 12.373 14.5742 12.373C14.9707 12.373 15.2305 12.0859 15.2305 11.6895C15.2305 11.5801 15.2168 11.4297 15.1758 11.3066C14.8477 9.87109 13.6445 8.98242 12.0859 8.98242C10.0352 8.98242 8.92773 10.3633 8.92773 12.0312C8.92773 13.6855 9.91211 14.5879 11.457 15.1484L12.2363 15.4355C13.2344 15.791 13.9453 16.3105 13.9453 17.377C13.9453 18.334 13.3164 19.0996 12.168 19.0996C11.1289 19.0996 10.459 18.5391 10.2266 17.5137C10.1309 17.1309 9.88477 16.9531 9.51562 16.9531C9.10547 16.9531 8.81836 17.2539 8.81836 17.6777C8.81836 17.8555 8.85938 18.0605 8.90039 18.1973C9.35156 19.6328 10.5137 20.4121 12.127 20.4121ZM16.5293 22.9961C16.9531 22.9961 17.1582 22.7637 17.2402 22.3125L19.332 10.0762C19.3594 9.98047 19.3867 9.83008 19.3867 9.63867C19.3867 9.25586 19.127 8.98242 18.7305 8.98242C18.3203 8.98242 18.1016 9.22852 18.0332 9.67969L15.9277 21.9023C15.9004 21.998 15.873 22.1484 15.873 22.3398C15.873 22.7227 16.1328 22.9961 16.5293 22.9961ZM21.1914 20.2891C21.752 20.2891 22.1758 19.8789 22.1758 19.3457C22.1758 18.8125 21.752 18.3887 21.1914 18.3887C20.6582 18.3887 20.248 18.8125 20.248 19.3457C20.248 19.8789 20.6582 20.2891 21.1914 20.2891Z" style="fill:var(--color-1,hsl(0 0 0/0.85))"></path>
 </g>
</svg>