<svg version="1.1" xmlns="http://www.w3.org/2000/svg" xmlns:xlink="http://www.w3.org/1999/xlink" viewBox="0 0 30.3105 37.748">
 <g>
  
  <path d="M7.92969 31.9102C12.5371 31.9102 15.8457 29.3262 15.8457 24.6914C15.8457 20.5625 13.1797 18.8262 9.46094 17.6777L7.38281 17.0352C4.97656 16.2969 3.04883 15.0527 3.04883 12.4688C3.04883 9.69336 5.23633 8.16211 7.72461 8.16211C10.0898 8.16211 12.209 9.40625 12.7695 12.0996C12.9336 12.7969 13.3574 13.1523 14.0547 13.1523C14.7383 13.1523 15.2852 12.7148 15.2852 11.9219C15.2852 11.7168 15.2305 11.4297 15.1758 11.1562C14.3691 7.66992 11.2793 5.74219 7.76562 5.74219C3.55469 5.74219 0.355469 8.47656 0.355469 12.6191C0.355469 16.502 2.83008 18.457 6.54883 19.6055L8.62695 20.248C11.1973 21.0273 13.1387 22.2578 13.1387 24.9648C13.1387 27.7676 10.8965 29.4766 8.03906 29.4766C5.19531 29.4766 3.03516 28.0273 2.47461 25.2793C2.2832 24.5137 1.85938 24.2129 1.2168 24.2129C0.492188 24.2129 0 24.7324 0 25.4707C0 25.9492 0.0683594 26.291 0.164062 26.6465C1.05273 29.9688 4.19727 31.9102 7.92969 31.9102ZM18.5664 37.748C19.291 37.748 19.6602 37.3379 19.8105 36.5723L25.7441 7.24609C25.7988 7.02734 25.8262 6.84961 25.8262 6.53516C25.8262 6.00195 25.293 5.52344 24.6504 5.52344C23.8984 5.52344 23.543 5.87891 23.4062 6.5625L17.5 35.6152C17.4316 35.9844 17.3633 36.3125 17.3633 36.6133C17.3633 37.1191 17.7598 37.748 18.5664 37.748ZM28.082 31.9102C29.1074 31.9102 29.9551 31.0762 29.9551 30.0234C29.9551 28.9844 29.1074 28.1504 28.082 28.1504C27.0293 28.1504 26.1953 28.9844 26.1953 30.0234C26.1953 31.0762 27.0293 31.9102 28.082 31.9102Z" style="fill:var(--color-0,hsl(0 0 0/0.85))"></path>
 </g>
</svg>