<svg version="1.1" xmlns="http://www.w3.org/2000/svg" xmlns:xlink="http://www.w3.org/1999/xlink" viewBox="0 0 33.291 27.3099">
 <g>
  
  <path d="M32.9355 16.3962C32.9355 7.78289 26.3184 0.714533 17.8965 0.00359537C17.459-0.0374203 17.1309 0.277033 17.1309 0.714533L17.1309 5.18524C17.1309 5.55438 17.3906 5.84149 17.7598 5.86883C22.9961 6.51141 27.0703 10.9821 27.0703 16.3962C27.0703 18.8571 26.2227 21.1266 24.7324 23.027C24.541 23.2595 24.5547 23.5602 24.7598 23.779L28.0273 27.0329C28.3281 27.3337 28.793 27.3337 29.0664 27.0055C31.4863 24.1345 32.9355 20.4294 32.9355 16.3962Z" style="fill:var(--color-0,hsl(0 0 0/0.85))"></path>
  <path d="M0 16.3962C0 20.443 1.44922 24.1481 3.86914 27.0192C4.14258 27.3473 4.59375 27.3337 4.9082 27.0329L8.17578 23.779C8.38086 23.5602 8.39453 23.2595 8.20312 23.027C6.69922 21.1266 5.86523 18.8571 5.86523 16.3962C5.86523 10.9821 9.93945 6.51141 15.1758 5.86883C15.5449 5.84149 15.8047 5.55438 15.8047 5.18524L15.8047 0.714533C15.8047 0.277033 15.4766-0.0374203 15.0391 0.00359537C6.61719 0.714533 0 7.78289 0 16.3962Z" style="fill:var(--color-1,hsl(0 0 0/0.85))"></path>
  <path d="M13.7129 22.8493C14.2051 22.8493 14.5195 22.5485 14.5195 22.0563L14.5195 18.3786L17.0215 18.3786C19.4141 18.3786 21.0684 16.7653 21.0684 14.3727C21.0684 11.9528 19.3867 10.4079 17.0488 10.4079L13.7266 10.4079C13.2344 10.4079 12.9062 10.736 12.9062 11.2419L12.9062 22.0563C12.9062 22.5485 13.2207 22.8493 13.7129 22.8493ZM14.5195 17.0388L14.5195 11.7477L16.6387 11.7477C18.3066 11.7477 19.4277 12.5954 19.4277 14.3727C19.4277 16.1227 18.3613 17.0388 16.625 17.0388ZM11.5664 14.3044C11.5664 14.5641 11.7715 14.7555 12.0312 14.7555L21.7109 14.7555C21.9707 14.7555 22.1758 14.5505 22.1758 14.3044C22.1758 14.0446 21.9707 13.8395 21.7109 13.8395L12.0312 13.8395C11.7715 13.8395 11.5664 14.0446 11.5664 14.3044Z" style="fill:var(--color-2,hsl(0 0 0/0.85))"></path>
 </g>
</svg>