<?xml version="1.0" encoding="UTF-8"?>
<!--Generator: Apple Native CoreSVG 326-->
<!DOCTYPE svg
PUBLIC "-//W3C//DTD SVG 1.1//EN"
       "http://www.w3.org/Graphics/SVG/1.1/DTD/svg11.dtd">
<svg version="1.1" xmlns="http://www.w3.org/2000/svg" xmlns:xlink="http://www.w3.org/1999/xlink" viewBox="0 0 33.291 27.4395">
 <g>
  <rect height="27.4395" opacity="0" width="33.291" x="0" y="0"/>
  <path d="M32.9355 16.4609C32.9355 12.4414 31.4863 8.73633 29.0664 5.86523C28.793 5.53711 28.3281 5.53711 28.0273 5.85156L24.8555 9.02344C24.5957 9.2832 24.582 9.65234 24.8145 9.93945C26.2227 11.7441 27.0703 14.0137 27.0703 16.4609C27.0703 18.9219 26.2227 21.1914 24.7324 23.0918C24.541 23.3242 24.5547 23.625 24.7598 23.8438L28.0137 27.0977C28.3281 27.4121 28.7793 27.4121 29.0664 27.0703C31.4863 24.1992 32.9355 20.4941 32.9355 16.4609Z" fill="white" fill-opacity="0.85"/>
  <path d="M16.4609 5.86523C18.9355 5.86523 21.2051 6.72656 23.0234 8.13477C23.2969 8.35352 23.6523 8.32617 23.9121 8.06641L27.084 4.89453C27.3984 4.58008 27.3848 4.12891 27.0566 3.85547C24.1992 1.44922 20.4941 0 16.4609 0C12.4414 0 8.73633 1.44922 5.87891 3.85547C5.55078 4.12891 5.53711 4.58008 5.85156 4.89453L9.02344 8.06641C9.2832 8.32617 9.65234 8.35352 9.95312 8.12109C11.7578 6.72656 14.0137 5.86523 16.4609 5.86523Z" fill="white" fill-opacity="0.85"/>
  <path d="M0 16.4609C0 20.4941 1.44922 24.1992 3.86914 27.0703C4.14258 27.4121 4.60742 27.4121 4.9082 27.0977L8.16211 23.8438C8.36719 23.625 8.39453 23.3242 8.20312 23.0918C6.71289 21.1914 5.86523 18.9219 5.86523 16.4609C5.86523 14.0137 6.69922 11.7441 8.12109 9.93945C8.33984 9.65234 8.33984 9.2832 8.08008 9.02344L4.9082 5.85156C4.59375 5.53711 4.14258 5.53711 3.86914 5.86523C1.44922 8.73633 0 12.4414 0 16.4609Z" fill="white" fill-opacity="0.85"/>
  <path d="M13.7129 22.9141C14.2051 22.9141 14.5195 22.6133 14.5195 22.1211L14.5195 18.4434L17.0215 18.4434C19.4141 18.4434 21.0684 16.8301 21.0684 14.4375C21.0684 12.0176 19.3867 10.4727 17.0488 10.4727L13.7266 10.4727C13.2344 10.4727 12.9062 10.8008 12.9062 11.3066L12.9062 22.1211C12.9062 22.6133 13.2207 22.9141 13.7129 22.9141ZM14.5195 17.1035L14.5195 11.8125L16.6387 11.8125C18.3066 11.8125 19.4277 12.6602 19.4277 14.4375C19.4277 16.1875 18.3613 17.1035 16.625 17.1035ZM11.5664 14.3691C11.5664 14.6289 11.7715 14.8203 12.0312 14.8203L21.7109 14.8203C21.9707 14.8203 22.1758 14.6152 22.1758 14.3691C22.1758 14.1094 21.9707 13.9043 21.7109 13.9043L12.0312 13.9043C11.7715 13.9043 11.5664 14.1094 11.5664 14.3691Z" fill="white" fill-opacity="0.85"/>
 </g>
</svg>
