<?xml version="1.0" encoding="UTF-8"?>
<!--Generator: Apple Native CoreSVG 326-->
<!DOCTYPE svg
PUBLIC "-//W3C//DTD SVG 1.1//EN"
       "http://www.w3.org/Graphics/SVG/1.1/DTD/svg11.dtd">
<svg version="1.1" xmlns="http://www.w3.org/2000/svg" xmlns:xlink="http://www.w3.org/1999/xlink" viewBox="0 0 30.8848 29.1895">
 <g>
  <rect height="29.1895" opacity="0" width="30.8848" x="0" y="0"/>
  <path d="M1.81836 25.9219L28.7109 25.9219L28.7109 25.0059C28.7109 24.459 28.3965 24.1309 27.8359 24.1309L26.9609 24.1309L26.9609 9.37891L28.1641 9.37891C28.916 9.37891 29.3535 8.83203 29.3535 8.27148C29.3535 7.86133 29.1211 7.50586 28.6152 7.21875L16.9395 0.478516C16.3926 0.164062 15.8184 0 15.2578 0C14.6973 0 14.1094 0.164062 13.5898 0.478516L1.91406 7.21875C1.39453 7.50586 1.17578 7.86133 1.17578 8.27148C1.17578 8.83203 1.61328 9.37891 2.36523 9.37891L3.56836 9.37891L3.56836 24.1309L2.70703 24.1309C2.14648 24.1309 1.81836 24.459 1.81836 25.0059ZM5.63281 24.1309L5.63281 7.62891L14.7246 2.5293C14.8887 2.43359 15.0801 2.37891 15.2578 2.37891C15.4355 2.37891 15.627 2.43359 15.8047 2.5293L24.8965 7.62891L24.8965 24.1309ZM1.09375 29.1758L29.4219 29.1758C30.0234 29.1758 30.5293 28.6699 30.5293 28.0684C30.5293 27.4668 30.0234 26.9746 29.4219 26.9746L1.09375 26.9746C0.492188 26.9746 0 27.4668 0 28.0684C0 28.6699 0.492188 29.1758 1.09375 29.1758Z" fill="white" fill-opacity="0.85"/>
  <path d="M12.5371 20.6582C13.0293 20.6582 13.3438 20.3574 13.3438 19.8652L13.3438 16.1875L15.8457 16.1875C18.2246 16.1875 19.8789 14.5742 19.8789 12.1816C19.8789 9.76172 18.1973 8.2168 15.873 8.2168L12.5508 8.2168C12.0449 8.2168 11.7305 8.54492 11.7305 9.03711L11.7305 19.8652C11.7305 20.3574 12.0449 20.6582 12.5371 20.6582ZM13.3438 14.8477L13.3438 9.55664L15.4629 9.55664C17.1172 9.55664 18.2383 10.4043 18.2383 12.1816C18.2383 13.9316 17.1855 14.8477 15.4492 14.8477ZM10.3906 12.1133C10.3906 12.373 10.5957 12.5645 10.8555 12.5645L20.5215 12.5645C20.7949 12.5645 21 12.3594 21 12.1133C21 11.8535 20.7949 11.6484 20.5215 11.6484L10.8555 11.6484C10.5957 11.6484 10.3906 11.8535 10.3906 12.1133Z" fill="white" fill-opacity="0.85"/>
 </g>
</svg>
