<svg version="1.1" xmlns="http://www.w3.org/2000/svg" xmlns:xlink="http://www.w3.org/1999/xlink" viewBox="0 0 25.5254 25.1699">
 <g>
  
  <path d="M4.29297 25.1699L20.877 25.1699C23.748 25.1699 25.1699 23.7617 25.1699 20.9453L25.1699 4.23828C25.1699 1.42188 23.748 0 20.877 0L4.29297 0C1.43555 0 0 1.42188 0 4.23828L0 20.9453C0 23.7617 1.43555 25.1699 4.29297 25.1699Z" style="fill:var(--color-0,hsl(0 0 0/0.85))"></path>
  <path d="M9.76172 19.0586C9.24219 19.0586 8.92773 18.7441 8.92773 18.2109L8.92773 10.7051L8.02539 10.7051C7.75195 10.7051 7.5332 10.5 7.5332 10.2266C7.5332 9.9668 7.75195 9.74805 8.02539 9.74805L8.92773 9.74805L8.92773 7.06836C8.92773 6.53516 9.24219 6.20703 9.77539 6.20703L13.207 6.20703C15.4355 6.20703 17.0762 7.56055 17.3086 9.74805L17.9922 9.74805C18.2793 9.74805 18.498 9.9668 18.498 10.2266C18.498 10.4863 18.2793 10.7051 17.9922 10.7051L17.3359 10.7051C17.1582 12.9473 15.5039 14.4238 13.1797 14.4238L10.5957 14.4238L10.5957 18.2109C10.5957 18.7441 10.2676 19.0586 9.76172 19.0586ZM10.5957 13.0566L12.7559 13.0566C14.4238 13.0566 15.4766 12.2363 15.627 10.7051L10.5957 10.7051ZM10.5957 9.74805L15.5996 9.74805C15.3945 8.29883 14.3145 7.58789 12.7832 7.58789L10.5957 7.58789Z" style="fill:var(--color-1,white)"></path>
 </g>
</svg>