<svg version="1.1" xmlns="http://www.w3.org/2000/svg" xmlns:xlink="http://www.w3.org/1999/xlink" viewBox="0 0 33.5408 27.9043">
 <g>
  
  <path d="M16.5995 27.8906C24.2968 27.8906 30.5448 21.6426 30.5448 13.9453C30.5448 6.24805 24.2968 0 16.5995 0C8.90224 0 2.65419 6.24805 2.65419 13.9453L4.97841 13.9453C4.97841 7.51953 10.1737 2.32422 16.5995 2.32422C23.0253 2.32422 28.2206 7.51953 28.2206 13.9453C28.2206 20.3711 23.0253 25.5664 16.5995 25.5664C12.7167 25.5664 9.2577 23.6523 7.19325 20.7539C6.76942 20.1934 6.12684 20.0156 5.55263 20.3574C5.00575 20.6992 4.84169 21.4648 5.30653 22.0664C7.83583 25.6074 11.9784 27.8906 16.5995 27.8906ZM0.972548 11.3066C-0.0118272 11.3066-0.257921 11.9766 0.275282 12.7422L3.33778 17.0898C3.78895 17.7188 4.4452 17.7051 4.8827 17.0898L7.93153 12.7285C8.46474 11.9766 8.20497 11.3066 7.24794 11.3066Z" style="fill:var(--color-0,hsl(0 0 0/0.85))"></path>
  <path d="M13.8788 20.207C14.3847 20.207 14.6991 19.9062 14.6991 19.4004L14.6991 16.0645L17.1874 16.0645C19.6757 16.0645 21.2479 14.2461 21.2479 11.8945C21.2479 9.625 19.7577 7.76562 17.2147 7.76562L13.8925 7.76562C13.4003 7.76562 13.0858 8.08008 13.0858 8.58594L13.0858 19.4004C13.0858 19.9062 13.4003 20.207 13.8788 20.207ZM14.6991 14.7383L14.6991 9.0918L16.8319 9.0918C18.5546 9.0918 19.621 10.1035 19.621 11.8945C19.621 13.6582 18.5819 14.7383 16.8319 14.7383ZM11.7186 10.8281C11.7186 11.1016 11.9237 11.293 12.1835 11.293L21.8768 11.293C22.1366 11.293 22.3417 11.0879 22.3417 10.8281C22.3417 10.582 22.1366 10.377 21.8768 10.377L12.1835 10.377C11.9237 10.377 11.7186 10.582 11.7186 10.8281ZM11.7186 13.002C11.7186 13.2617 11.9237 13.4531 12.1835 13.4531L21.8768 13.4531C22.1366 13.4531 22.3417 13.248 22.3417 13.002C22.3417 12.7559 22.1366 12.5508 21.8768 12.5508L12.1835 12.5508C11.9237 12.5508 11.7186 12.7559 11.7186 13.002Z" style="fill:var(--color-1,hsl(0 0 0/0.85))"></path>
 </g>
</svg>