<?xml version="1.0" encoding="UTF-8"?>
<!--Generator: Apple Native CoreSVG 326-->
<!DOCTYPE svg
PUBLIC "-//W3C//DTD SVG 1.1//EN"
       "http://www.w3.org/Graphics/SVG/1.1/DTD/svg11.dtd">
<svg version="1.1" xmlns="http://www.w3.org/2000/svg" xmlns:xlink="http://www.w3.org/1999/xlink" viewBox="0 0 33.291 27.3099">
 <g>
  <rect height="27.3099" opacity="0" width="33.291" x="0" y="0"/>
  <path d="M32.9355 16.3962C32.9355 7.78289 26.3184 0.714533 17.8965 0.00359537C17.459-0.0374203 17.1309 0.277033 17.1309 0.714533L17.1309 5.18524C17.1309 5.55438 17.3906 5.84149 17.7598 5.86883C22.9961 6.51141 27.0703 10.9821 27.0703 16.3962C27.0703 18.8571 26.2227 21.1266 24.7324 23.027C24.541 23.2595 24.5547 23.5602 24.7598 23.779L28.0273 27.0329C28.3281 27.3337 28.793 27.3337 29.0664 27.0055C31.4863 24.1345 32.9355 20.4294 32.9355 16.3962Z" fill="white" fill-opacity="0.85"/>
  <path d="M0 16.3962C0 20.443 1.44922 24.1481 3.86914 27.0192C4.14258 27.3473 4.59375 27.3337 4.9082 27.0329L8.17578 23.779C8.38086 23.5602 8.39453 23.2595 8.20312 23.027C6.69922 21.1266 5.86523 18.8571 5.86523 16.3962C5.86523 10.9821 9.93945 6.51141 15.1758 5.86883C15.5449 5.84149 15.8047 5.55438 15.8047 5.18524L15.8047 0.714533C15.8047 0.277033 15.4766-0.0374203 15.0391 0.00359537C6.61719 0.714533 0 7.78289 0 16.3962Z" fill="white" fill-opacity="0.85"/>
  <path d="M13.7402 22.8493C14.2324 22.8493 14.5605 22.5348 14.5605 22.0427L14.5605 18.693L17.0352 18.693C19.5234 18.693 21.0957 16.8884 21.0957 14.5368C21.0957 12.2673 19.6055 10.3942 17.0762 10.3942L13.7402 10.3942C13.248 10.3942 12.9473 10.7223 12.9473 11.2282L12.9473 22.0427C12.9473 22.5348 13.248 22.8493 13.7402 22.8493ZM14.5605 17.3669L14.5605 11.7341L16.6797 11.7341C18.4023 11.7341 19.4688 12.7321 19.4688 14.5368C19.4688 16.2868 18.4297 17.3669 16.6797 17.3669ZM11.5664 13.4704C11.5664 13.7302 11.7715 13.9216 12.0449 13.9216L21.7246 13.9216C21.998 13.9216 22.2031 13.7165 22.2031 13.4704C22.2031 13.2243 21.998 13.0192 21.7246 13.0192L12.0449 13.0192C11.7715 13.0192 11.5664 13.2243 11.5664 13.4704ZM11.5664 15.6305C11.5664 15.904 11.7715 16.0954 12.0449 16.0954L21.7246 16.0954C21.998 16.0954 22.2031 15.8903 22.2031 15.6305C22.2031 15.3845 21.998 15.1794 21.7246 15.1794L12.0449 15.1794C11.7715 15.1794 11.5664 15.3845 11.5664 15.6305Z" fill="white" fill-opacity="0.85"/>
 </g>
</svg>
