<?xml version="1.0" encoding="UTF-8"?>
<!--Generator: Apple Native CoreSVG 326-->
<!DOCTYPE svg
PUBLIC "-//W3C//DTD SVG 1.1//EN"
       "http://www.w3.org/Graphics/SVG/1.1/DTD/svg11.dtd">
<svg version="1.1" xmlns="http://www.w3.org/2000/svg" xmlns:xlink="http://www.w3.org/1999/xlink" viewBox="0 0 30.8848 29.1895">
 <g>
  <rect height="29.1895" opacity="0" width="30.8848" x="0" y="0"/>
  <path d="M1.81836 27.5898L28.7109 27.5898L28.7109 25.9766C28.7109 25.4297 28.3965 25.1016 27.8359 25.1016L26.9609 25.1016L26.9609 9.37891L28.1641 9.37891C28.916 9.37891 29.3535 8.83203 29.3535 8.27148C29.3535 7.86133 29.1211 7.50586 28.6152 7.21875L16.9395 0.478516C16.3926 0.164062 15.8184 0 15.2578 0C14.6973 0 14.1094 0.164062 13.5898 0.478516L1.91406 7.21875C1.39453 7.50586 1.17578 7.86133 1.17578 8.27148C1.17578 8.83203 1.61328 9.37891 2.36523 9.37891L3.56836 9.37891L3.56836 25.1016L2.70703 25.1016C2.14648 25.1016 1.81836 25.4297 1.81836 25.9766ZM1.09375 29.1758L29.4219 29.1758C30.0234 29.1758 30.5293 28.6699 30.5293 28.0684C30.5293 27.4668 30.0234 26.9746 29.4219 26.9746L1.09375 26.9746C0.492188 26.9746 0 27.4668 0 28.0684C0 28.6699 0.492188 29.1758 1.09375 29.1758Z" fill="white" fill-opacity="0.85"/>
  <path d="M12.4551 22.0801C11.9492 22.0801 11.6348 21.752 11.6348 21.2324L11.6348 15.1074L10.7051 15.1074C10.4316 15.1074 10.2129 14.916 10.2129 14.6426C10.2129 14.3828 10.4316 14.1777 10.7051 14.1777L11.6348 14.1777L11.6348 12.8652L10.7051 12.8652C10.4316 12.8652 10.2129 12.6738 10.2129 12.4004C10.2129 12.1406 10.4316 11.9355 10.7051 11.9355L11.6348 11.9355L11.6348 10.0898C11.6348 9.55664 11.9492 9.22852 12.4688 9.22852L15.9004 9.22852C17.8965 9.22852 19.2637 10.3633 19.8105 11.9355L20.6992 11.9355C20.9727 11.9355 21.1914 12.1406 21.1914 12.4004C21.1914 12.6465 20.9727 12.8652 20.6992 12.8652L20.0156 12.8652C20.043 13.0703 20.0566 13.2891 20.0566 13.4941C20.0566 13.7402 20.043 13.959 20.0156 14.1777L20.6992 14.1777C20.9727 14.1777 21.1914 14.3828 21.1914 14.6426C21.1914 14.8887 20.9727 15.1074 20.6992 15.1074L19.7832 15.1074C19.2363 16.707 17.8281 17.8008 15.873 17.8008L13.3027 17.8008L13.3027 21.2324C13.3027 21.752 12.9746 22.0801 12.4551 22.0801ZM13.3027 16.4199L15.5039 16.4199C16.6797 16.4199 17.5547 15.9414 18.0059 15.1074L13.3027 15.1074ZM13.3027 14.1777L18.3203 14.1777C18.3477 13.959 18.375 13.7402 18.375 13.4941C18.375 13.2754 18.3613 13.0703 18.3203 12.8652L13.3027 12.8652ZM13.3027 11.9355L18.0195 11.9355C17.5684 11.0742 16.6797 10.6094 15.5039 10.6094L13.3027 10.6094Z" fill="white"/>
 </g>
</svg>
