<svg version="1.1" xmlns="http://www.w3.org/2000/svg" xmlns:xlink="http://www.w3.org/1999/xlink" viewBox="0 0 33.291 27.4395">
 <g>
  
  <path d="M32.9355 16.4609C32.9355 12.4414 31.4863 8.73633 29.0664 5.86523C28.793 5.53711 28.3281 5.53711 28.0273 5.85156L24.8555 9.02344C24.5957 9.2832 24.582 9.65234 24.8145 9.93945C26.2227 11.7441 27.0703 14.0137 27.0703 16.4609C27.0703 18.9219 26.2227 21.1914 24.7324 23.0918C24.541 23.3242 24.5547 23.625 24.7598 23.8438L28.0137 27.0977C28.3281 27.4121 28.7793 27.4121 29.0664 27.0703C31.4863 24.1992 32.9355 20.4941 32.9355 16.4609Z" style="fill:var(--color-0,hsl(0 0 0/0.85))"></path>
  <path d="M16.4609 5.86523C18.9355 5.86523 21.2051 6.72656 23.0234 8.13477C23.2969 8.35352 23.6523 8.32617 23.9121 8.06641L27.084 4.89453C27.3984 4.58008 27.3848 4.12891 27.0566 3.85547C24.1992 1.44922 20.4941 0 16.4609 0C12.4414 0 8.73633 1.44922 5.87891 3.85547C5.55078 4.12891 5.53711 4.58008 5.85156 4.89453L9.02344 8.06641C9.2832 8.32617 9.65234 8.35352 9.95312 8.12109C11.7578 6.72656 14.0137 5.86523 16.4609 5.86523Z" style="fill:var(--color-1,hsl(0 0 0/0.85))"></path>
  <path d="M0 16.4609C0 20.4941 1.44922 24.1992 3.86914 27.0703C4.14258 27.4121 4.60742 27.4121 4.9082 27.0977L8.16211 23.8438C8.36719 23.625 8.39453 23.3242 8.20312 23.0918C6.71289 21.1914 5.86523 18.9219 5.86523 16.4609C5.86523 14.0137 6.69922 11.7441 8.12109 9.93945C8.33984 9.65234 8.33984 9.2832 8.08008 9.02344L4.9082 5.85156C4.59375 5.53711 4.14258 5.53711 3.86914 5.86523C1.44922 8.73633 0 12.4414 0 16.4609Z" style="fill:var(--color-2,hsl(0 0 0/0.85))"></path>
  <path d="M13.7402 22.9141C14.2324 22.9141 14.5605 22.5996 14.5605 22.1074L14.5605 18.7578L17.0352 18.7578C19.5234 18.7578 21.0957 16.9531 21.0957 14.6016C21.0957 12.332 19.6055 10.459 17.0762 10.459L13.7402 10.459C13.248 10.459 12.9473 10.7871 12.9473 11.293L12.9473 22.1074C12.9473 22.5996 13.248 22.9141 13.7402 22.9141ZM14.5605 17.4316L14.5605 11.7988L16.6797 11.7988C18.4023 11.7988 19.4688 12.7969 19.4688 14.6016C19.4688 16.3516 18.4297 17.4316 16.6797 17.4316ZM11.5664 13.5352C11.5664 13.7949 11.7715 13.9863 12.0449 13.9863L21.7246 13.9863C21.998 13.9863 22.2031 13.7812 22.2031 13.5352C22.2031 13.2891 21.998 13.084 21.7246 13.084L12.0449 13.084C11.7715 13.084 11.5664 13.2891 11.5664 13.5352ZM11.5664 15.6953C11.5664 15.9688 11.7715 16.1602 12.0449 16.1602L21.7246 16.1602C21.998 16.1602 22.2031 15.9551 22.2031 15.6953C22.2031 15.4492 21.998 15.2441 21.7246 15.2441L12.0449 15.2441C11.7715 15.2441 11.5664 15.4492 11.5664 15.6953Z" style="fill:var(--color-3,hsl(0 0 0/0.85))"></path>
 </g>
</svg>