<?xml version="1.0" encoding="UTF-8"?>
<!--Generator: Apple Native CoreSVG 326-->
<!DOCTYPE svg
PUBLIC "-//W3C//DTD SVG 1.1//EN"
       "http://www.w3.org/Graphics/SVG/1.1/DTD/svg11.dtd">
<svg version="1.1" xmlns="http://www.w3.org/2000/svg" xmlns:xlink="http://www.w3.org/1999/xlink" viewBox="0 0 28.2461 27.9043">
 <g>
  <rect height="27.9043" opacity="0" width="28.2461" x="0" y="0"/>
  <path d="M13.9453 27.9043C21.6426 27.9043 27.8906 21.6562 27.8906 13.959C27.8906 6.27539 21.6426 0.0136719 13.9453 0.0136719C6.26172 0.0136719 0 6.27539 0 13.959C0 21.6562 6.26172 27.9043 13.9453 27.9043Z" fill="white" fill-opacity="0.85"/>
  <path d="M9.69336 18.2383C7.41016 15.9551 5.70117 13.2617 5.70117 11.0469C5.70117 10.0762 6.04297 9.20117 6.68555 8.57227C7.15039 8.14844 7.7793 7.75195 8.29883 7.75195C8.72266 7.75195 8.99609 8.05273 9.36523 8.57227L10.6641 10.3906C10.9785 10.8145 11.0742 11.1426 11.0742 11.457C11.0742 11.7168 11.0195 11.9082 10.8008 12.25L10.0762 13.4941C10.0215 13.6035 9.9668 13.6992 9.9668 13.7812C9.9668 13.9043 10.0215 14.041 10.0488 14.1367C10.3496 14.7109 10.9375 15.4766 11.6484 16.2012C12.4004 16.9395 13.2207 17.582 13.8223 17.8691C13.9727 17.9238 14.082 17.9648 14.2188 17.9648C14.3281 17.9648 14.3965 17.9375 14.5469 17.8691L15.7773 17.1719C16.2012 16.9531 16.3926 16.9121 16.625 16.9121C16.9121 16.9121 17.1172 16.9668 17.5957 17.3223L19.4961 18.6758C20.0156 19.0449 20.2207 19.332 20.2207 19.6602C20.2207 20.0977 20.043 20.5625 19.4551 21.1914C18.8535 21.8613 17.9648 22.2715 16.9258 22.2715C14.7246 22.2715 11.9766 20.5215 9.69336 18.2383ZM14.7246 14.082C14.3008 14.082 13.9863 13.7949 13.9863 13.3848C13.9863 13.166 14.041 12.9883 14.2188 12.8242L17.6367 9.40625L18.6211 8.49023L16.7617 8.58594L15.5312 8.58594C15.1211 8.58594 14.8203 8.29883 14.8066 7.90234C14.7793 7.47852 15.1211 7.12305 15.5312 7.12305L20.1523 7.12305C20.6582 7.12305 20.9453 7.41016 20.9453 7.91602L20.9453 12.5098C20.9453 12.9336 20.6035 13.2754 20.166 13.2617C19.7695 13.2207 19.4824 12.9062 19.4824 12.5098L19.4824 11.334L19.5781 9.46094L18.6758 10.4453L15.2441 13.8906C15.1211 14.0273 14.9297 14.082 14.7246 14.082Z" fill="white"/>
 </g>
</svg>
