<svg version="1.1" xmlns="http://www.w3.org/2000/svg" xmlns:xlink="http://www.w3.org/1999/xlink" viewBox="0 0 54.5234 19.4699">
 <g>
  
  <path d="M0 9.72812C0 13.2691 1.28516 16.5367 3.55469 19.0113C4.07422 19.5855 4.83984 19.5855 5.27734 19.0797C5.71484 18.5875 5.57812 17.9449 5.08594 17.3844C3.25391 15.3473 2.22852 12.6676 2.22852 9.72812C2.22852 6.78866 3.25391 4.10898 5.08594 2.07187C5.57812 1.51132 5.71484 0.868741 5.27734 0.376554C4.83984-0.142978 4.07422-0.129306 3.55469 0.444913C1.28516 2.90585 0 6.1871 0 9.72812ZM54.168 9.72812C54.168 6.1871 52.8965 2.90585 50.627 0.444913C50.0938-0.129306 49.3281-0.142978 48.8906 0.376554C48.4531 0.868741 48.5898 1.51132 49.082 2.07187C50.9141 4.10898 51.9395 6.78866 51.9395 9.72812C51.9395 12.6676 50.9141 15.3473 49.082 17.3844C48.5898 17.9449 48.4531 18.5875 48.8906 19.0797C49.3281 19.5855 50.0938 19.5855 50.627 19.0113C52.8965 16.5367 54.168 13.2691 54.168 9.72812Z" style="fill:var(--color-0,hsl(0 0 0/0.85))"></path>
  <path d="M5.48242 9.72812C5.48242 11.7379 6.16602 13.6109 7.35547 15.0875C7.83398 15.7027 8.6543 15.6891 9.10547 15.1832C9.54297 14.691 9.36523 14.0758 8.92773 13.4879C8.10742 12.4625 7.71094 11.15 7.71094 9.72812C7.71094 8.29257 8.12109 6.9664 8.92773 5.96835C9.36523 5.38046 9.54297 4.76523 9.10547 4.27304C8.6543 3.75351 7.83398 3.75351 7.35547 4.36874C6.16602 5.8453 5.48242 7.71835 5.48242 9.72812ZM48.6992 9.72812C48.6992 7.71835 48.002 5.8453 46.8125 4.36874C46.334 3.75351 45.5137 3.75351 45.0625 4.27304C44.625 4.76523 44.8027 5.38046 45.2402 5.96835C46.0605 6.98007 46.4707 8.30624 46.4707 9.72812C46.4707 11.15 46.0605 12.4625 45.2402 13.4879C44.8027 14.0758 44.625 14.691 45.0625 15.1832C45.5137 15.6891 46.334 15.7027 46.8125 15.0875C48.002 13.6109 48.6992 11.7379 48.6992 9.72812Z" style="fill:var(--color-1,hsl(0 0 0/0.85))"></path>
  <path d="M27.084 2.16757C21.7656 2.16757 15.6953 3.1246 12.7422 6.17343C11.6211 7.32187 10.9375 8.75741 10.9375 10.5758C10.9375 11.8199 11.3203 13.6656 12.7832 13.8023C13.1797 13.9117 13.5625 13.8707 14.0547 13.7887L18.0879 13.1187C19.4824 12.8863 20.125 12.3668 20.5078 11.0269L21.1777 8.62069C21.3145 8.12851 21.4375 7.96444 22.0391 7.74569C23.1328 7.34921 24.9375 7.13046 27.084 7.13046C29.2305 7.13046 31.0352 7.34921 32.1289 7.74569C32.7305 7.96444 32.8535 8.12851 32.9902 8.62069L33.6738 11.0269C34.043 12.3668 34.6855 12.8863 36.0938 13.1187L40.1133 13.7887C40.6055 13.8707 40.9883 13.9117 41.3848 13.8023C42.8477 13.6656 43.2305 11.8199 43.2305 10.5758C43.2305 8.75741 42.5605 7.32187 41.4258 6.17343C38.4727 3.1246 32.416 2.16757 27.084 2.16757Z" style="fill:var(--color-2,hsl(0 0 0/0.85))"></path>
 </g>
</svg>