<svg version="1.1" xmlns="http://www.w3.org/2000/svg" xmlns:xlink="http://www.w3.org/1999/xlink" viewBox="0 0 26.0312 25.5254">
 <g>
  
  <path d="M7.0957 18.416C11.1152 22.4492 15.9277 25.5117 19.7969 25.5117C21.6152 25.5117 23.2012 24.7871 24.2402 23.625C25.2383 22.5039 25.5801 21.6699 25.5801 20.9316C25.5801 20.3574 25.2246 19.8242 24.3223 19.1953L20.9863 16.8027C20.1523 16.2148 19.7832 16.1055 19.291 16.1055C18.8672 16.1055 18.5117 16.1875 17.8008 16.5703L15.6133 17.7734C15.3535 17.9238 15.2441 17.9512 15.0527 17.9512C14.793 17.9512 14.6152 17.8828 14.3555 17.7734C13.3164 17.2949 11.8535 16.1465 10.5547 14.8477C9.25586 13.5488 8.24414 12.2227 7.72461 11.1973C7.65625 11.0605 7.57422 10.8418 7.57422 10.623C7.57422 10.4453 7.66992 10.2949 7.7793 10.1035L9.06445 7.90234C9.41992 7.30078 9.51562 6.97266 9.51562 6.50781C9.51562 5.97461 9.33789 5.40039 8.83203 4.67578L6.53516 1.47656C5.87891 0.560547 5.38672 0 4.64844 0C3.73242 0 2.625 0.697266 1.83203 1.46289C0.697266 2.55664 0.0957031 4.08789 0.0957031 5.81055C0.0957031 9.70703 3.08984 14.4238 7.0957 18.416Z" style="fill:var(--color-0,hsl(0 0 0/0.85))"></path>
  <path d="M25.0059 0.300781C24.7324 0.300781 24.5 0.382812 24.2949 0.601562L18.4023 6.49414L16.3105 8.76367L16.543 4.75781L16.543 2.7207C16.543 2.1875 16.1328 1.77734 15.5996 1.75C15.0527 1.72266 14.5879 2.16016 14.5879 2.7207L14.5879 10.6504C14.5879 11.3613 14.9297 11.7305 15.6543 11.7305L23.5977 11.7305C24.1582 11.7305 24.6094 11.2656 24.582 10.7051C24.5547 10.1719 24.1309 9.77539 23.5977 9.77539L21.5332 9.77539L17.5137 9.99414L19.8105 7.90234L25.7031 2.00977C25.9219 1.77734 26.0312 1.53125 26.0312 1.24414C26.0312 0.710938 25.5801 0.300781 25.0059 0.300781Z" style="fill:var(--color-1,hsl(0 0 0/0.85))"></path>
 </g>
</svg>