<svg version="1.1" xmlns="http://www.w3.org/2000/svg" xmlns:xlink="http://www.w3.org/1999/xlink" viewBox="0 0 26.7285 31.2676">
 <g>
  
  <path d="M0 15.627C0 21.5469 1.58594 26.4414 4.22461 29.1074C5.56445 30.4199 7.28711 31.2539 9.24219 31.2539C11.0332 31.2539 12.9336 30.666 13.0703 28.4102C13.1797 28.041 13.207 27.6035 13.1113 27.1113L12.3457 23.0645C12.1133 21.8203 11.5254 21.2461 10.2539 20.8223L8.09375 20.125C7.62891 19.9746 7.41016 19.7422 7.27344 19.209C7.15039 18.6621 7.02734 17.5 7.02734 15.627C7.02734 13.7539 7.15039 12.5781 7.27344 12.0312C7.41016 11.5117 7.62891 11.2793 8.09375 11.1289L10.2539 10.4316C11.5254 9.99414 12.1133 9.41992 12.3457 8.18945L13.1113 4.12891C13.207 3.65039 13.1797 3.19922 13.0703 2.83008C12.9336 0.587891 11.0332 0 9.24219 0C7.28711 0 5.56445 0.820312 4.22461 2.14648C1.58594 4.79883 0 9.70703 0 15.627ZM2.06445 15.627C2.06445 10.7598 3.25391 5.89258 5.67383 3.56836C6.60352 2.67969 7.83398 2.11914 9.00977 2.11914C10.0352 2.11914 10.9785 2.44727 11.0879 3.22656C11.1699 3.36328 11.2109 3.52734 11.1699 3.73242L10.4043 7.50586C10.3223 7.95703 10.0762 8.24414 9.58398 8.4082L7.32812 9.14648C6.11133 9.55664 5.61914 10.0762 5.41406 11.1562C5.22266 12.1953 5.07227 13.7676 5.07227 15.627C5.07227 17.4863 5.22266 19.0586 5.41406 20.0977C5.61914 21.1641 6.11133 21.6836 7.32812 22.0938L9.58398 22.8457C10.0762 23.0098 10.3223 23.2969 10.4043 23.7344L11.1699 27.5215C11.2109 27.7266 11.1699 27.8906 11.0879 28.0273C10.9785 28.8066 10.0352 29.1348 9.00977 29.1348C7.83398 29.1348 6.60352 28.5742 5.67383 27.6855C3.25391 25.3477 2.06445 20.4805 2.06445 15.627Z" style="fill:var(--color-0,hsl(0 0 0/0.85))"></path>
  <path d="M12.8652 16.5977L20.2207 16.5977L23.0918 16.4609L20.1113 19.1406L18.6758 20.5762C18.4844 20.7676 18.375 21.0273 18.375 21.3145C18.375 21.875 18.7852 22.2578 19.3184 22.2578C19.5918 22.2578 19.8516 22.1484 20.043 21.957L25.6484 16.3516C25.8945 16.1191 26.0176 15.8594 26.0176 15.627C26.0176 15.3945 25.8945 15.1211 25.6484 14.8887L20.043 9.29688C19.8516 9.10547 19.5918 8.99609 19.3184 8.99609C18.7852 8.99609 18.375 9.37891 18.375 9.92578C18.375 10.2266 18.4844 10.4727 18.6758 10.6641L20.1113 12.1133L23.0918 14.7793L20.2207 14.6426L12.8652 14.6426C12.25 14.6426 11.8809 15.1211 11.8809 15.627C11.8809 16.1328 12.25 16.5977 12.8652 16.5977Z" style="fill:var(--color-1,hsl(0 0 0/0.85))"></path>
 </g>
</svg>