<svg version="1.1" xmlns="http://www.w3.org/2000/svg" xmlns:xlink="http://www.w3.org/1999/xlink" viewBox="0 0 27.0566 26.7019">
 <g>
  
  <path d="M19.8516 26.7015C22.2305 26.7015 23.8027 26.0589 25.1836 24.514C25.293 24.391 25.3887 24.2816 25.498 24.1585C26.3184 23.2562 26.7012 22.3675 26.7012 21.5199C26.7012 20.5355 26.1406 19.5785 24.9238 18.7445L21.4922 16.3929C20.4395 15.682 19.5508 15.641 18.2383 16.2699L16.1191 17.3089C15.709 17.5003 15.3535 17.5003 14.957 17.2542C14.3555 16.8714 12.8379 15.6546 11.8125 14.6019C10.7734 13.5628 9.76172 12.3187 9.31055 11.5394C9.13281 11.225 9.16016 10.9652 9.39258 10.596L10.623 8.66831C11.1562 7.82065 11.3203 6.65854 10.6367 5.67417L7.92969 1.79136C7.08203 0.57456 6.16602 0.0140136 5.18164 0.000341734C4.33398-0.0133301 3.44531 0.383154 2.5293 1.20347C2.41992 1.29917 2.29688 1.40854 2.1875 1.51792C0.642578 2.88511 0 4.45737 0 6.82261C0 10.7328 2.41992 15.5179 6.80859 19.8929C11.1699 24.2542 15.9414 26.7015 19.8516 26.7015ZM19.8652 24.6234C16.3789 24.6917 11.9219 22.0121 8.38086 18.4847C4.8125 14.93 2.00977 10.3089 2.07812 6.80894C2.10547 5.30503 2.625 4.01987 3.70508 3.07651C3.78711 3.00815 3.86914 2.93979 3.95117 2.87144C4.36133 2.51597 4.8125 2.32456 5.19531 2.32456C5.60547 2.32456 5.94727 2.47495 6.2207 2.88511L8.68164 6.57651C8.91406 6.91831 8.90039 7.21909 8.62695 7.69761L7.25977 9.88511C6.6582 10.8558 6.76758 11.5941 7.36914 12.4144C8.16211 13.4671 9.35156 14.9847 10.4043 16.0238C11.4434 17.0628 13.1797 18.5394 14.123 19.1957C14.9434 19.7972 15.6816 19.9339 16.9531 19.3187L19.25 18.225C19.7695 17.9925 20.1797 18.0609 20.6172 18.3343L23.8164 20.4808C24.2266 20.7406 24.377 21.096 24.377 21.5062C24.377 21.889 24.1855 22.3402 23.8301 22.7503C23.7617 22.8324 23.6934 22.9144 23.625 22.9964C22.6816 24.0765 21.3828 24.596 19.8652 24.6234Z" style="fill:var(--color-0,#28cd41)"></path>
 </g>
</svg>