<?xml version="1.0" encoding="UTF-8"?>
<!--Generator: Apple Native CoreSVG 326-->
<!DOCTYPE svg
PUBLIC "-//W3C//DTD SVG 1.1//EN"
       "http://www.w3.org/Graphics/SVG/1.1/DTD/svg11.dtd">
<svg version="1.1" xmlns="http://www.w3.org/2000/svg" xmlns:xlink="http://www.w3.org/1999/xlink" viewBox="0 0 28.2461 27.9043">
 <g>
  <rect height="27.9043" opacity="0" width="28.2461" x="0" y="0"/>
  <path d="M13.9453 27.8906C21.6426 27.8906 27.8906 21.6426 27.8906 13.9453C27.8906 6.24805 21.6426 0 13.9453 0C6.24805 0 0 6.24805 0 13.9453C0 21.6426 6.24805 27.8906 13.9453 27.8906ZM13.9453 25.5664C7.51953 25.5664 2.32422 20.3711 2.32422 13.9453C2.32422 7.51953 7.51953 2.32422 13.9453 2.32422C20.3711 2.32422 25.5664 7.51953 25.5664 13.9453C25.5664 20.3711 20.3711 25.5664 13.9453 25.5664Z" fill="#32d74b"/>
  <path d="M10.7598 17.0762C12.9883 19.291 15.6406 20.9863 17.7871 20.9863C18.7852 20.9863 19.6602 20.5898 20.2344 19.9473C20.7949 19.332 20.9727 18.8809 20.9727 18.457C20.9727 18.1426 20.7812 17.8555 20.2754 17.5L18.4434 16.1738C17.9785 15.8457 17.7734 15.791 17.4863 15.791C17.2676 15.791 17.0762 15.832 16.6797 16.0508L15.4629 16.7207C15.3262 16.7891 15.2578 16.8164 15.1484 16.8164C15.0117 16.8164 14.916 16.7754 14.7793 16.7207C14.1914 16.4336 13.3984 15.8184 12.6738 15.0938C11.9629 14.3965 11.4023 13.6445 11.1016 13.084C11.0742 13.002 11.0332 12.8789 11.0332 12.7559C11.0332 12.6738 11.0879 12.5781 11.1426 12.4824L11.8398 11.2656C12.0449 10.9375 12.0996 10.7598 12.0996 10.4863C12.0996 10.1992 12.0176 9.88477 11.7168 9.47461L10.4453 7.71094C10.0898 7.20508 9.81641 6.9043 9.40625 6.9043C8.90039 6.9043 8.29883 7.28711 7.86133 7.71094C7.23242 8.3125 6.89062 9.16016 6.89062 10.1035C6.89062 12.25 8.54492 14.8613 10.7598 17.0762Z" fill="#32d74b"/>
 </g>
</svg>
