<svg version="1.1" xmlns="http://www.w3.org/2000/svg" xmlns:xlink="http://www.w3.org/1999/xlink" viewBox="0 0 30.4883 30.0371">
 <g>
  
  <path d="M8.4082 30.0371C9.07812 30.0371 9.54297 29.6816 10.377 28.9434L15.0938 24.7461L23.8711 24.7461C27.9453 24.7461 30.1328 22.4902 30.1328 18.4844L30.1328 8.01172C30.1328 4.00586 27.9453 1.75 23.8711 1.75L6.26172 1.75C2.1875 1.75 0 3.99219 0 8.01172L0 18.4844C0 22.5039 2.1875 24.7461 6.26172 24.7461L6.91797 24.7461L6.91797 28.3008C6.91797 29.3535 7.45117 30.0371 8.4082 30.0371ZM8.96875 27.5352L8.96875 23.5703C8.96875 22.832 8.68164 22.5449 7.94336 22.5449L6.26172 22.5449C3.5 22.5449 2.20117 21.1367 2.20117 18.4707L2.20117 8.01172C2.20117 5.3457 3.5 3.95117 6.26172 3.95117L23.8711 3.95117C26.6191 3.95117 27.9316 5.3457 27.9316 8.01172L27.9316 18.4707C27.9316 21.1367 26.6191 22.5449 23.8711 22.5449L15.0117 22.5449C14.2461 22.5449 13.8633 22.6543 13.3438 23.1875Z" style="fill:var(--color-0,hsl(0 0 0/0.85))"></path>
  <path d="M11.9082 16.3789C14.123 18.5938 16.7891 20.2891 18.9219 20.2891C19.9336 20.2891 20.7949 19.8926 21.3691 19.25C21.9434 18.6348 22.1211 18.1836 22.1211 17.7598C22.1211 17.4453 21.916 17.1582 21.4102 16.8027L19.5781 15.4766C19.1133 15.1484 18.9082 15.0938 18.6348 15.0938C18.4023 15.0938 18.2246 15.1348 17.8145 15.3535L16.6113 16.0234C16.4746 16.0918 16.3926 16.1191 16.2969 16.1191C16.1602 16.1191 16.0645 16.0781 15.9141 16.0234C15.3262 15.75 14.5332 15.1211 13.8086 14.3965C13.1113 13.6992 12.5508 12.9609 12.25 12.4004C12.2227 12.3047 12.168 12.1816 12.168 12.0586C12.168 11.9766 12.2227 11.8809 12.2773 11.7852L12.9883 10.5684C13.1934 10.2402 13.248 10.0625 13.248 9.80273C13.248 9.50195 13.1523 9.1875 12.8516 8.77734L11.5938 7.01367C11.2383 6.50781 10.9512 6.20703 10.5547 6.20703C10.0488 6.20703 9.44727 6.58984 8.99609 7.01367C8.36719 7.61523 8.03906 8.46289 8.03906 9.40625C8.03906 11.5527 9.69336 14.1641 11.9082 16.3789Z" style="fill:var(--color-1,hsl(0 0 0/0.85))"></path>
 </g>
</svg>