<?xml version="1.0" encoding="UTF-8"?>
<!--Generator: Apple Native CoreSVG 326-->
<!DOCTYPE svg
PUBLIC "-//W3C//DTD SVG 1.1//EN"
       "http://www.w3.org/Graphics/SVG/1.1/DTD/svg11.dtd">
<svg version="1.1" xmlns="http://www.w3.org/2000/svg" xmlns:xlink="http://www.w3.org/1999/xlink" viewBox="0 0 32.6621 13.2207">
 <g>
  <rect height="13.2207" opacity="0" width="32.6621" x="0" y="0"/>
  <path d="M16.1465 0C9.70703 0 4.8125 1.58594 2.14648 4.22461C0.833984 5.56445 0 7.28711 0 9.24219C0 11.0332 0.587891 12.9336 2.84375 13.084C3.21289 13.1797 3.65039 13.207 4.14258 13.1113L8.18945 12.3594C9.43359 12.127 9.99414 11.5391 10.4316 10.2676L11.1289 8.09375C11.2793 7.62891 11.5117 7.41016 12.0449 7.28711C12.5781 7.15039 13.7539 7.02734 16.1465 7.02734C18.5527 7.02734 19.7148 7.15039 20.2617 7.28711C20.7949 7.41016 21.0273 7.62891 21.1641 8.09375L21.875 10.2676C22.2988 11.5391 22.873 12.127 24.1172 12.3594L28.1641 13.1113C28.6426 13.207 29.0938 13.1797 29.4629 13.084C31.7188 12.9336 32.3066 11.0332 32.3066 9.24219C32.3066 7.28711 31.4727 5.56445 30.1602 4.22461C27.4941 1.58594 22.5859 0 16.1465 0ZM16.1465 2.06445C21.5332 2.06445 26.4004 3.25391 28.7383 5.67383C29.627 6.60352 30.1875 7.83398 30.1875 9.00977C30.1875 10.0488 29.8594 10.9785 29.0664 11.0879C28.9434 11.1699 28.7656 11.2109 28.5742 11.1699L24.7871 10.4043C24.3496 10.3223 24.0488 10.0762 23.8984 9.58398L23.1465 7.32812C22.7363 6.11133 22.2168 5.61914 21.1367 5.42773C20.1113 5.23633 18.5391 5.07227 16.1465 5.07227C13.7676 5.07227 12.1953 5.23633 11.1562 5.42773C10.0762 5.61914 9.57031 6.11133 9.16016 7.32812L8.4082 9.58398C8.24414 10.0762 7.95703 10.3223 7.50586 10.4043L3.73242 11.1699C3.52734 11.2109 3.36328 11.1699 3.22656 11.0879C2.44727 10.9785 2.11914 10.0488 2.11914 9.00977C2.11914 7.83398 2.67969 6.60352 3.56836 5.67383C5.89258 3.25391 10.7598 2.06445 16.1465 2.06445Z" fill="#ff453a"/>
 </g>
</svg>
