<?xml version="1.0" encoding="UTF-8"?>
<!--Generator: Apple Native CoreSVG 326-->
<!DOCTYPE svg
PUBLIC "-//W3C//DTD SVG 1.1//EN"
       "http://www.w3.org/Graphics/SVG/1.1/DTD/svg11.dtd">
<svg version="1.1" xmlns="http://www.w3.org/2000/svg" xmlns:xlink="http://www.w3.org/1999/xlink" viewBox="0 0 30.3584 29.333">
 <g>
  <rect height="29.333" opacity="0" width="30.3584" x="0" y="0"/>
  <path d="M9.25928 20.3198C13.2788 24.353 18.0913 27.4155 21.9604 27.4155C23.7788 27.4155 25.3647 26.6909 26.4038 25.5288C27.4019 24.4077 27.7437 23.5737 27.7437 22.8354C27.7437 22.2612 27.3882 21.728 26.4858 21.0991L23.1499 18.7065C22.3159 18.1187 21.9468 18.0093 21.4546 18.0093C21.0308 18.0093 20.6753 18.0913 19.9644 18.4741L17.7769 19.6772C17.5171 19.8276 17.4077 19.855 17.2163 19.855C16.9565 19.855 16.7788 19.7866 16.519 19.6772C15.48 19.1987 14.0171 18.0503 12.7183 16.7515C11.4194 15.4526 10.4077 14.1265 9.88818 13.1011C9.81982 12.9644 9.73779 12.7456 9.73779 12.5269C9.73779 12.3491 9.8335 12.1987 9.94287 12.0073L11.228 9.80615C11.5835 9.20459 11.6792 8.87646 11.6792 8.41162C11.6792 7.87842 11.5015 7.3042 10.9956 6.57959L8.69873 3.38037C8.04248 2.46436 7.55029 1.90381 6.81201 1.90381C5.896 1.90381 4.78857 2.60107 3.99561 3.3667C2.86084 4.46045 2.25928 5.9917 2.25928 7.71436C2.25928 11.6108 5.25342 16.3276 9.25928 20.3198Z" fill="white" fill-opacity="0.85"/>
  <path d="M16.1909 14.1538C16.9155 14.8921 18.105 14.8921 18.8296 14.1538C19.5679 13.4292 19.5679 12.2397 18.8296 11.5288C18.105 10.7769 16.9155 10.7769 16.1909 11.5151C15.4526 12.2397 15.4526 13.4292 16.1909 14.1538ZM17.5308 6.59326C17.1069 7.01709 17.1069 7.71436 17.5308 8.13818L22.2065 12.814C22.6304 13.2378 23.3276 13.2378 23.7515 12.814C24.1753 12.3901 24.1753 11.6929 23.7515 11.2554L19.0894 6.59326C18.6655 6.15576 17.9546 6.15576 17.5308 6.59326ZM22.4526 7.90576C23.2046 8.60303 24.3667 8.6167 25.105 7.89209C25.8159 7.15381 25.8159 5.97803 25.105 5.26709C24.3667 4.52881 23.1909 4.52881 22.4526 5.23975C21.7144 5.97803 21.7144 7.14014 22.4526 7.90576ZM23.8062 0.317871C23.3823 0.741699 23.3823 1.45264 23.8062 1.87646L28.4683 6.55225C28.8921 6.97607 29.6167 6.97607 30.0405 6.55225C30.4644 6.11475 30.4644 5.41748 30.0405 4.99365L25.3647 0.317871C24.9409-0.105957 24.2163-0.105957 23.8062 0.317871Z" fill="white" fill-opacity="0.85"/>
 </g>
</svg>
