<svg version="1.1" xmlns="http://www.w3.org/2000/svg" xmlns:xlink="http://www.w3.org/1999/xlink" viewBox="0 0 30.8643 30.7549">
 <g>
  
  <path d="M21.7417 28.728C24.1206 28.728 25.6929 28.0854 27.0737 26.5405C27.1831 26.4175 27.2788 26.3081 27.3745 26.1851C28.1948 25.2827 28.5913 24.394 28.5913 23.5464C28.5913 22.562 28.0308 21.605 26.814 20.771L23.3823 18.4194C22.3296 17.7085 21.4409 17.6675 20.1284 18.2964L17.9956 19.3354C17.5991 19.5269 17.2437 19.5269 16.8472 19.2808C16.2456 18.8979 14.728 17.6812 13.689 16.6284C12.6636 15.5894 11.6519 14.3452 11.2007 13.5659C11.0229 13.2515 11.0503 12.9917 11.2827 12.6226L12.5132 10.6948C13.0464 9.84717 13.2104 8.68506 12.5132 7.70068L9.81982 3.81787C8.97217 2.60107 8.04248 2.04053 7.07178 2.02686C6.22412 2.01318 5.33545 2.40967 4.41943 3.22998C4.31006 3.32568 4.18701 3.43506 4.07764 3.54443C2.53271 4.91162 1.89014 6.48389 1.89014 8.84912C1.89014 12.7593 4.29639 17.5444 8.68506 21.9194C13.0601 26.2808 17.8315 28.728 21.7417 28.728ZM21.7554 26.6499C18.269 26.7183 13.7983 24.0386 10.2573 20.5112C6.70264 16.9565 3.8999 12.3354 3.96826 8.83545C3.99561 7.33154 4.51514 6.04639 5.59521 5.10303C5.67725 5.03467 5.75928 4.96631 5.84131 4.89795C6.25146 4.54248 6.70264 4.35107 7.08545 4.35107C7.49561 4.35107 7.8374 4.50146 8.11084 4.91162L10.5718 8.60303C10.8042 8.94482 10.7905 9.24561 10.5034 9.72412L9.1499 11.9116C8.54834 12.8823 8.64404 13.6206 9.25928 14.4409C10.0386 15.4937 11.2417 17.0112 12.2944 18.0503C13.3335 19.0894 15.0698 20.5659 15.9995 21.2222C16.8335 21.8237 17.5718 21.9604 18.8296 21.3452L21.1401 20.2515C21.6597 20.019 22.0698 20.0874 22.5073 20.3608L25.7065 22.5073C26.103 22.7671 26.2671 23.1226 26.2671 23.5327C26.2671 23.9155 26.0757 24.3667 25.7202 24.7769C25.6382 24.8589 25.5835 24.9409 25.5015 25.0229C24.5718 26.103 23.2729 26.6226 21.7554 26.6499Z" style="fill:var(--color-0,hsl(0 0 0/0.85))"></path>
  <path d="M16.6968 14.1538C17.4214 14.8921 18.6108 14.8921 19.3354 14.1538C20.0737 13.4292 20.0737 12.2397 19.3354 11.5288C18.6108 10.7769 17.4214 10.7769 16.6968 11.5151C15.9585 12.2397 15.9585 13.4292 16.6968 14.1538ZM18.0366 6.59326C17.6128 7.01709 17.6128 7.71436 18.0366 8.13818L22.6987 12.814C23.1362 13.2378 23.8335 13.2378 24.2573 12.814C24.6812 12.3901 24.6812 11.6929 24.2573 11.2554L19.5952 6.59326C19.1577 6.15576 18.4604 6.15576 18.0366 6.59326ZM22.9585 7.90576C23.7104 8.60303 24.8726 8.6167 25.6108 7.89209C26.3218 7.15381 26.3218 5.97803 25.6108 5.26709C24.8726 4.52881 23.6968 4.52881 22.9585 5.23975C22.2202 5.97803 22.2202 7.14014 22.9585 7.90576ZM24.312 0.317871C23.8882 0.741699 23.8882 1.45264 24.312 1.87646L28.9741 6.55225C29.3979 6.97607 30.1226 6.97607 30.5464 6.55225C30.9702 6.11475 30.9702 5.41748 30.5464 4.99365L25.8706 0.317871C25.4468-0.105957 24.7222-0.105957 24.312 0.317871Z" style="fill:var(--color-1,hsl(0 0 0/0.85))"></path>
 </g>
</svg>