<?xml version="1.0" encoding="UTF-8"?>
<!--Generator: Apple Native CoreSVG 326-->
<!DOCTYPE svg
PUBLIC "-//W3C//DTD SVG 1.1//EN"
       "http://www.w3.org/Graphics/SVG/1.1/DTD/svg11.dtd">
<svg version="1.1" xmlns="http://www.w3.org/2000/svg" xmlns:xlink="http://www.w3.org/1999/xlink" viewBox="0 0 25.6621 31.2676">
 <g>
  <rect height="31.2676" opacity="0" width="25.6621" x="0" y="0"/>
  <path d="M0 15.627C0 20.4258 0.957031 26.4824 3.99219 29.4355C5.14062 30.5703 6.58984 31.2539 8.39453 31.2539C9.65234 31.2539 11.4844 30.8574 11.6211 29.4082C11.7305 29.0117 11.6895 28.6289 11.6074 28.1367L10.9375 24.1035C10.7051 22.709 10.1855 22.0527 8.8457 21.6836L6.43945 21.0137C5.96094 20.877 5.7832 20.7402 5.56445 20.1523C5.16797 19.0586 4.94922 17.2539 4.94922 15.627C4.94922 14 5.16797 12.1953 5.56445 11.1016C5.7832 10.5137 5.96094 10.377 6.43945 10.2402L8.8457 9.57031C10.1855 9.1875 10.7051 8.54492 10.9375 7.15039L11.6074 3.11719C11.6895 2.625 11.7305 2.24219 11.6211 1.8457C11.4844 0.382812 9.65234 0 8.39453 0C6.58984 0 5.14062 0.683594 3.99219 1.80469C0.957031 4.77148 0 10.8281 0 15.627Z" fill="white" fill-opacity="0.85"/>
  <path d="M11.7988 16.5977L19.1543 16.5977L22.0254 16.4609L19.0449 19.1406L17.6094 20.5762C17.418 20.7676 17.3223 21.0273 17.3223 21.3145C17.3223 21.875 17.7188 22.2578 18.252 22.2578C18.5254 22.2578 18.7852 22.1484 18.9766 21.957L24.5957 16.3516C24.8281 16.1191 24.9512 15.8594 24.9512 15.627C24.9512 15.3945 24.8281 15.1211 24.5957 14.8887L18.9766 9.29688C18.7852 9.10547 18.5254 8.99609 18.252 8.99609C17.7188 8.99609 17.3223 9.37891 17.3223 9.92578C17.3223 10.2266 17.418 10.4727 17.6094 10.6641L19.0449 12.1133L22.0254 14.7793L19.1543 14.6426L11.7988 14.6426C11.1836 14.6426 10.8145 15.1211 10.8145 15.627C10.8145 16.1328 11.1836 16.5977 11.7988 16.5977Z" fill="white" fill-opacity="0.85"/>
 </g>
</svg>
