<svg version="1.1" xmlns="http://www.w3.org/2000/svg" xmlns:xlink="http://www.w3.org/1999/xlink" viewBox="0 0 28.2461 27.9043">
 <g>
  
  <path d="M13.9453 27.8906C21.6426 27.8906 27.8906 21.6289 27.8906 13.9453C27.8906 6.24805 21.6426 0 13.9453 0C6.26172 0 0 6.24805 0 13.9453C0 21.6289 6.26172 27.8906 13.9453 27.8906Z" style="fill:var(--color-0,hsl(0 0 0/0.85))"></path>
  <path d="M6.19336 7.31445L21.6973 7.31445C22.0801 7.31445 22.3398 7.60156 22.3398 7.98438L22.3398 19.9199C22.3398 20.3164 22.0801 20.5898 21.6973 20.5898L6.19336 20.5898C5.81055 20.5898 5.56445 20.3164 5.56445 19.9199L5.56445 7.98438C5.56445 7.60156 5.81055 7.31445 6.19336 7.31445ZM6.69922 19.2773C6.69922 19.4004 6.72656 19.4141 6.84961 19.4141L21.041 19.4141C21.1777 19.4141 21.1914 19.4004 21.1914 19.2773L21.1914 8.62695C21.1914 8.51758 21.1777 8.50391 21.041 8.50391L6.84961 8.50391C6.72656 8.50391 6.69922 8.51758 6.69922 8.62695ZM7.54688 18.0605L7.54688 9.84375C7.54688 9.54297 7.75195 9.33789 8.06641 9.33789L19.8242 9.33789C20.1523 9.33789 20.3438 9.54297 20.3438 9.84375L20.3438 18.0605C20.3438 18.375 20.1523 18.5801 19.8242 18.5801L8.06641 18.5801C7.75195 18.5801 7.54688 18.375 7.54688 18.0605ZM8.46289 16.4199L9.98047 15.0254C10.2129 14.834 10.459 14.7109 10.7324 14.7109C11.0059 14.7109 11.293 14.834 11.5254 15.0391L12.4688 15.8867L14.834 13.7402C15.0938 13.5215 15.3809 13.4258 15.7227 13.4258C16.0234 13.4258 16.3379 13.5488 16.584 13.7676L19.4277 16.4336L19.4277 10.3086C19.4277 10.2402 19.4414 10.2402 19.3867 10.2402L8.50391 10.2402C8.47656 10.2402 8.46289 10.2402 8.46289 10.3086ZM10.1992 12.6328C10.1992 11.8672 10.8145 11.252 11.5801 11.252C12.3457 11.252 12.9609 11.8672 12.9609 12.6328C12.9609 13.3848 12.3457 14 11.5801 14C10.8145 14 10.1992 13.3848 10.1992 12.6328Z" style="fill:var(--color-1,white)"></path>
 </g>
</svg>