<svg version="1.1" xmlns="http://www.w3.org/2000/svg" xmlns:xlink="http://www.w3.org/1999/xlink" viewBox="0 0 28.2461 27.9043">
 <g>
  
  <path d="M13.9453 27.8906C21.6426 27.8906 27.8906 21.6426 27.8906 13.9453C27.8906 6.24805 21.6426 0 13.9453 0C6.24805 0 0 6.24805 0 13.9453C0 21.6426 6.24805 27.8906 13.9453 27.8906ZM13.9453 25.5664C7.51953 25.5664 2.32422 20.3711 2.32422 13.9453C2.32422 7.51953 7.51953 2.32422 13.9453 2.32422C20.3711 2.32422 25.5664 7.51953 25.5664 13.9453C25.5664 20.3711 20.3711 25.5664 13.9453 25.5664Z" style="fill:var(--color-0,hsl(0 0 0/0.85))"></path>
  <path d="M8.23047 20.0293L19.6328 20.0293C21 20.0293 21.6836 19.332 21.6836 17.9922L21.6836 9.95312C21.6836 8.59961 21 7.92969 19.6328 7.92969L8.23047 7.92969C6.87695 7.92969 6.17969 8.59961 6.17969 9.95312L6.17969 17.9922C6.17969 19.3457 6.87695 20.0293 8.23047 20.0293ZM8.28516 18.7852C7.73828 18.7852 7.42383 18.457 7.42383 17.9238L7.42383 17.3223L9.25586 15.7773C9.54297 15.5312 9.85742 15.3945 10.1582 15.3945C10.4727 15.3945 10.8008 15.5312 11.1016 15.791L12.3594 16.9258L15.5039 14.1367C15.8184 13.8633 16.1738 13.7129 16.5566 13.7129C16.9121 13.7129 17.2949 13.8633 17.5957 14.1504L20.4395 16.7344L20.4395 17.9238C20.4395 18.457 20.125 18.7852 19.5781 18.7852ZM11.1152 14.1367C10.2129 14.1367 9.47461 13.4121 9.47461 12.5098C9.47461 11.6348 10.2129 10.8965 11.1152 10.8965C11.9902 10.8965 12.7148 11.6348 12.7148 12.5098C12.7148 13.4121 11.9902 14.1367 11.1152 14.1367Z" style="fill:var(--color-1,hsl(0 0 0/0.85))"></path>
 </g>
</svg>