<svg version="1.1" xmlns="http://www.w3.org/2000/svg" xmlns:xlink="http://www.w3.org/1999/xlink" viewBox="0 0 32.5938 25.1699">
 <g>
  
  <path d="M1.09375 0C0.4375 0 0 0.4375 0 1.09375L0 24.0898C0 24.7461 0.4375 25.1699 1.09375 25.1699L31.1582 25.1699C31.8145 25.1699 32.2383 24.7461 32.2383 24.0898L32.2383 1.09375C32.2383 0.4375 31.8145 0 31.1582 0ZM2.59766 2.20117L29.6406 2.20117C29.9414 2.20117 30.0371 2.31055 30.0371 2.59766L30.0371 22.5723C30.0371 22.873 29.9414 22.9688 29.6406 22.9688L2.59766 22.9688C2.31055 22.9688 2.20117 22.873 2.20117 22.5723L2.20117 2.59766C2.20117 2.31055 2.31055 2.20117 2.59766 2.20117Z" style="fill:var(--color-0,hsl(0 0 0/0.85))"></path>
  <path d="M4.48438 3.67773C3.96484 3.67773 3.67773 3.96484 3.67773 4.4707L3.67773 20.7129C3.67773 21.2051 3.96484 21.5059 4.48438 21.5059L27.7676 21.5059C28.2734 21.5059 28.5742 21.2051 28.5742 20.7129L28.5742 4.4707C28.5742 3.96484 28.2734 3.67773 27.7676 3.67773ZM5.35938 5.05859L26.8789 5.05859C27.084 5.05859 27.1934 5.16797 27.1934 5.37305L27.1934 19.8105C27.1934 20.0156 27.084 20.125 26.8789 20.125L5.35938 20.125C5.1543 20.125 5.05859 20.0156 5.05859 19.8105L5.05859 5.37305C5.05859 5.16797 5.1543 5.05859 5.35938 5.05859ZM27.5352 18.293L21.2188 12.3867C20.7402 11.9355 20.1934 11.7305 19.6191 11.7305C19.0176 11.7305 18.4844 11.9082 18.0059 12.3594L13.1797 16.6797L11.2109 14.8887C10.7734 14.4785 10.2676 14.2871 9.76172 14.2871C9.29688 14.2871 8.8457 14.4785 8.39453 14.875L4.33398 18.5527L4.33398 19.6465C4.33398 20.5215 4.82617 20.8906 5.55078 20.8906L26.3047 20.8906C27.043 20.8906 27.5352 20.5215 27.5352 19.6465Z" style="fill:var(--color-1,hsl(0 0 0/0.85))"></path>
  <path d="M11.4434 12.4824C12.8242 12.4824 13.959 11.3477 13.959 9.9668C13.959 8.58594 12.8242 7.45117 11.4434 7.45117C10.0625 7.45117 8.92773 8.58594 8.92773 9.9668C8.92773 11.3477 10.0625 12.4824 11.4434 12.4824Z" style="fill:var(--color-2,hsl(0 0 0/0.85))"></path>
 </g>
</svg>