<?xml version="1.0" encoding="UTF-8"?>
<!--Generator: Apple Native CoreSVG 326-->
<!DOCTYPE svg
PUBLIC "-//W3C//DTD SVG 1.1//EN"
       "http://www.w3.org/Graphics/SVG/1.1/DTD/svg11.dtd">
<svg version="1.1" xmlns="http://www.w3.org/2000/svg" xmlns:xlink="http://www.w3.org/1999/xlink" viewBox="0 0 35.206 29.7392">
 <g>
  <rect height="29.7392" opacity="0" width="35.206" x="0" y="0"/>
  <path d="M26.9477 3.54243L27.6187 7.34321L25.3853 7.34321L24.8012 4.03462C24.5551 2.64009 23.6665 2.06587 22.3403 2.28462L4.01998 5.51118C2.66647 5.75727 2.05123 6.60493 2.29733 8.01313L4.4985 20.4819C4.74459 21.8764 5.61959 22.4643 6.95944 22.2319L7.60201 22.1188L7.60201 24.3551L7.31491 24.4057C4.48483 24.8979 2.83053 23.7495 2.35201 20.9741L0.109827 8.2729C-0.382361 5.49751 0.779749 3.85688 3.59616 3.35102L21.9985 0.110788C24.8012-0.381399 26.4692 0.767038 26.9477 3.54243Z" fill="white" fill-opacity="0.85"/>
  <path d="M17.3364 17.8295C18.936 17.8295 20.2348 16.5034 20.2348 14.9038C20.2348 13.3315 18.936 12.0053 17.3364 12.0053C15.7368 12.0053 14.4516 13.3315 14.4516 14.9038C14.4516 16.5034 15.7368 17.8295 17.3364 17.8295ZM11.936 27.9877L30.229 27.9877C32.6215 27.9877 33.8794 26.7846 33.8794 24.392L33.8794 23.517L27.5493 17.5288C27.0161 17.0366 26.3598 16.7905 25.6899 16.7905C25.02 16.7905 24.4184 17.0092 23.8442 17.5151L18.3208 22.4096L16.1333 20.4272C15.6001 19.9487 15.0532 19.7299 14.4653 19.7299C13.9321 19.7299 13.4126 19.9487 12.893 20.3999L8.28561 24.4057C8.28561 26.7846 9.55709 27.9877 11.936 27.9877ZM11.8813 28.7124L30.5708 28.7124C33.4145 28.7124 34.8501 27.2905 34.8501 24.4741L34.8501 11.5815C34.8501 8.76509 33.4145 7.34321 30.5708 7.34321L11.8813 7.34321C9.02389 7.34321 7.60201 8.76509 7.60201 11.5815L7.60201 24.4741C7.60201 27.3041 9.02389 28.7124 11.8813 28.7124ZM11.9223 26.5112C10.5551 26.5112 9.80319 25.7866 9.80319 24.3647L9.80319 11.7045C9.80319 10.2827 10.5551 9.54438 11.9223 9.54438L30.5297 9.54438C31.8833 9.54438 32.6489 10.2827 32.6489 11.7045L32.6489 24.3647C32.6489 25.7866 31.8833 26.5112 30.5297 26.5112Z" fill="white" fill-opacity="0.85"/>
 </g>
</svg>
