<?xml version="1.0" encoding="UTF-8"?>
<!--Generator: Apple Native CoreSVG 326-->
<!DOCTYPE svg
PUBLIC "-//W3C//DTD SVG 1.1//EN"
       "http://www.w3.org/Graphics/SVG/1.1/DTD/svg11.dtd">
<svg version="1.1" xmlns="http://www.w3.org/2000/svg" xmlns:xlink="http://www.w3.org/1999/xlink" viewBox="0 0 37.4062 31.4316">
 <g>
  <rect height="31.4316" opacity="0" width="37.4062" x="0" y="0"/>
  <path d="M28.7793 6.09766L28.7793 6.33008L12.5645 6.33008C8.66797 6.33008 6.41211 8.57227 6.41211 12.4277L6.41211 23.2285L5.81055 23.2285C2.95312 23.2285 1.51758 21.8203 1.51758 18.9902L1.51758 6.09766C1.51758 3.28125 2.95312 1.85938 5.81055 1.85938L24.4863 1.85938C27.3438 1.85938 28.7793 3.28125 28.7793 6.09766Z" fill="white" fill-opacity="0.85"/>
  <path d="M17.3496 19.127C15.75 19.127 14.4375 17.8008 14.4375 16.2012C14.4375 14.6152 15.75 13.2754 17.3496 13.2754C18.9492 13.2754 20.2617 14.6152 20.2617 16.2012C20.2617 17.8008 18.9492 19.127 17.3496 19.127ZM12.0586 27.6445C10.8828 27.6445 10.1309 26.8926 10.1309 25.7168L10.1309 25.1016L13.6172 21.9707C14.1367 21.5059 14.6699 21.2871 15.2031 21.2871C15.8047 21.2871 16.3789 21.5195 16.8848 21.9844L19.1133 23.9941L24.6504 19.0586C25.2383 18.5527 25.8262 18.334 26.5234 18.334C27.1934 18.334 27.8223 18.5801 28.3691 19.0723L33.6875 24.0352L33.6875 25.7305C33.6875 26.9062 32.9219 27.6445 31.7871 27.6445ZM12.5645 29.5586L31.2402 29.5586C34.0977 29.5586 35.5332 28.1367 35.5332 25.3203L35.5332 12.4277C35.5332 9.61133 34.0977 8.18945 31.2402 8.18945L12.5645 8.18945C9.70703 8.18945 8.27148 9.61133 8.27148 12.4277L8.27148 25.3203C8.27148 28.1504 9.70703 29.5586 12.5645 29.5586Z" fill="white" fill-opacity="0.85"/>
 </g>
</svg>
