<?xml version="1.0" encoding="UTF-8"?>
<!--Generator: Apple Native CoreSVG 326-->
<!DOCTYPE svg
PUBLIC "-//W3C//DTD SVG 1.1//EN"
       "http://www.w3.org/Graphics/SVG/1.1/DTD/svg11.dtd">
<svg version="1.1" xmlns="http://www.w3.org/2000/svg" xmlns:xlink="http://www.w3.org/1999/xlink" viewBox="0 0 33.4004 34.6309">
 <g>
  <rect height="34.6309" opacity="0" width="33.4004" x="0" y="0"/>
  <path d="M25.1506 3.91016L7.89434 3.91016C7.95046 2.79901 8.65169 2.16016 9.81641 2.16016L23.2285 2.16016C24.3932 2.16016 25.0945 2.79901 25.1506 3.91016Z" fill="white" fill-opacity="0.85"/>
  <path d="M27.9473 7.81549C27.5075 7.7456 27.0411 7.71094 26.5508 7.71094L6.49414 7.71094C6.00391 7.71094 5.53762 7.74558 5.09803 7.81545C5.24689 6.50197 6.13568 5.76953 7.58789 5.76953L25.4707 5.76953C26.9229 5.76953 27.8005 6.50199 27.9473 7.81549Z" fill="white" fill-opacity="0.85"/>
  <path d="M30.8438 14.1504L30.8438 28.1914C30.8438 31.0078 29.4082 32.4297 26.5508 32.4297L6.49414 32.4297C3.63672 32.4297 2.20117 31.0078 2.20117 28.1914L2.20117 14.1504C2.20117 11.334 3.63672 9.91211 6.49414 9.91211L26.5508 9.91211C29.4082 9.91211 30.8438 11.334 30.8438 14.1504ZM19.25 20.7676L13.5078 25.8125L11.2383 23.7754C10.7051 23.2969 10.1309 23.0371 9.51562 23.0371C8.94141 23.0371 8.43555 23.2969 7.88867 23.7617L4.67578 26.5645L4.67578 27.8906C4.67578 29.2578 5.41406 29.9688 6.72656 29.9688L26.332 29.9688C27.6172 29.9688 28.3691 29.2578 28.3691 27.8906L28.3691 25.7578L23.0781 20.7812C22.5312 20.2617 21.8477 20.0156 21.1641 20.0156C20.4531 20.0156 19.8379 20.2344 19.25 20.7676ZM9.46094 17.9512C9.46094 19.6055 10.8008 20.9863 12.4824 20.9863C14.1367 20.9863 15.4766 19.6055 15.4766 17.9512C15.4766 16.3105 14.1367 14.957 12.4824 14.957C10.8008 14.957 9.46094 16.3105 9.46094 17.9512Z" fill="white" fill-opacity="0.85"/>
 </g>
</svg>
