<?xml version="1.0" encoding="UTF-8"?>
<!--Generator: Apple Native CoreSVG 326-->
<!DOCTYPE svg
PUBLIC "-//W3C//DTD SVG 1.1//EN"
       "http://www.w3.org/Graphics/SVG/1.1/DTD/svg11.dtd">
<svg version="1.1" xmlns="http://www.w3.org/2000/svg" xmlns:xlink="http://www.w3.org/1999/xlink" viewBox="0 0 32.5938 25.1699">
 <g>
  <rect height="25.1699" opacity="0" width="32.5938" x="0" y="0"/>
  <path d="M10.5957 1.6543L6.05664 1.6543L6.05664 13.3301C6.05664 14.3281 6.68555 14.7109 7.3418 14.7109L9.32422 14.7109C9.98047 14.7109 10.5957 14.3281 10.5957 13.3301ZM18.3887 1.6543L13.8496 1.6543L13.8496 13.3301C13.8496 14.3281 14.4785 14.7109 15.1211 14.7109L17.1172 14.7109C17.7734 14.7109 18.3887 14.3281 18.3887 13.3301ZM26.1816 1.6543L21.6426 1.6543L21.6426 13.3301C21.6426 14.3281 22.2578 14.7109 22.9141 14.7109L24.9102 14.7109C25.5664 14.7109 26.1816 14.3281 26.1816 13.3301ZM7.69727 12.2637L7.69727 23.625L8.96875 23.625L8.96875 12.2637ZM15.4902 12.2637L15.4902 23.625L16.7617 23.625L16.7617 12.2637ZM23.2832 12.2637L23.2832 23.625L24.5547 23.625L24.5547 12.2637ZM4.29297 25.1699L27.9453 25.1699C30.8164 25.1699 32.2383 23.7617 32.2383 20.9453L32.2383 4.23828C32.2383 1.42188 30.8164 0 27.9453 0L4.29297 0C1.43555 0 0 1.42188 0 4.23828L0 20.9453C0 23.7617 1.43555 25.1699 4.29297 25.1699ZM4.32031 22.9688C2.95312 22.9688 2.20117 22.2441 2.20117 20.8223L2.20117 4.36133C2.20117 2.93945 2.95312 2.20117 4.32031 2.20117L27.918 2.20117C29.2715 2.20117 30.0371 2.93945 30.0371 4.36133L30.0371 20.8223C30.0371 22.2441 29.2715 22.9688 27.918 22.9688Z" fill="white" fill-opacity="0.85"/>
 </g>
</svg>
