<svg version="1.1" xmlns="http://www.w3.org/2000/svg" xmlns:xlink="http://www.w3.org/1999/xlink" viewBox="0 0 28.2461 27.9043">
 <g>
  
  <path d="M13.9453 27.8906C21.6426 27.8906 27.8906 21.6426 27.8906 13.9453C27.8906 6.24805 21.6426 0 13.9453 0C6.24805 0 0 6.24805 0 13.9453C0 21.6426 6.24805 27.8906 13.9453 27.8906ZM13.9453 25.5664C7.51953 25.5664 2.32422 20.3711 2.32422 13.9453C2.32422 7.51953 7.51953 2.32422 13.9453 2.32422C20.3711 2.32422 25.5664 7.51953 25.5664 13.9453C25.5664 20.3711 20.3711 25.5664 13.9453 25.5664Z" style="fill:var(--color-0,hsl(0 0 0/0.85))"></path>
  <path d="M13.7402 14.041L15.9824 11.8262C17.3223 10.5137 17.3359 8.77734 16.0508 7.5332C14.7656 6.24805 13.0566 6.27539 11.7441 7.60156L9.5293 9.81641ZM12.9609 14.834L8.73633 10.6094L6.50781 12.8516C5.19531 14.1914 5.1543 15.9004 6.41211 17.1719C7.69727 18.4297 9.40625 18.3887 10.7188 17.0762ZM21.9023 16.6387C21.6562 14.8477 20.0977 13.4531 18.1973 13.4531C16.3242 13.4531 14.7656 14.8477 14.5059 16.6387ZM21.9023 17.7461L14.5059 17.7461C14.7656 19.5234 16.3242 20.918 18.1973 20.918C20.1113 20.918 21.6562 19.5234 21.9023 17.7461Z" style="fill:var(--color-1,hsl(0 0 0/0.85))"></path>
 </g>
</svg>