<svg version="1.1" xmlns="http://www.w3.org/2000/svg" xmlns:xlink="http://www.w3.org/1999/xlink" viewBox="0 0 28.2461 27.9043">
 <g>
  
  <path d="M13.9453 27.9043C21.6426 27.9043 27.8906 21.6562 27.8906 13.959C27.8906 6.27539 21.6426 0.0136719 13.9453 0.0136719C6.26172 0.0136719 0 6.27539 0 13.959C0 21.6562 6.26172 27.9043 13.9453 27.9043Z" style="fill:var(--color-0,hsl(0 0 0/0.85))"></path>
  <path d="M20.002 7.90234C21.6426 9.47461 21.6152 11.6348 19.9199 13.3164L17.0078 16.2285L11.6758 10.8828L14.5742 7.98438C16.2285 6.28906 18.375 6.30273 20.002 7.90234ZM7.86133 20.043C6.26172 18.457 6.28906 16.2969 7.9707 14.6152L10.8691 11.7031L16.2012 17.0215L13.3027 19.9336C11.6348 21.6016 9.47461 21.6289 7.86133 20.043Z" style="fill:var(--color-1,white)"></path>
 </g>
</svg>