<?xml version="1.0" encoding="UTF-8"?>
<!--Generator: Apple Native CoreSVG 326-->
<!DOCTYPE svg
PUBLIC "-//W3C//DTD SVG 1.1//EN"
       "http://www.w3.org/Graphics/SVG/1.1/DTD/svg11.dtd">
<svg version="1.1" xmlns="http://www.w3.org/2000/svg" xmlns:xlink="http://www.w3.org/1999/xlink" viewBox="0 0 28.2461 27.9043">
 <g>
  <rect height="27.9043" opacity="0" width="28.2461" x="0" y="0"/>
  <path d="M13.9453 27.8906C21.6426 27.8906 27.8906 21.6426 27.8906 13.9453C27.8906 6.24805 21.6426 0 13.9453 0C6.24805 0 0 6.24805 0 13.9453C0 21.6426 6.24805 27.8906 13.9453 27.8906ZM13.9453 25.5664C7.51953 25.5664 2.32422 20.3711 2.32422 13.9453C2.32422 7.51953 7.51953 2.32422 13.9453 2.32422C20.3711 2.32422 25.5664 7.51953 25.5664 13.9453C25.5664 20.3711 20.3711 25.5664 13.9453 25.5664Z" fill="#ff9f0a"/>
  <path d="M8.55859 16.543C8.55859 17.1445 8.94141 17.5137 9.55664 17.5137L13.0977 17.5137L13.0977 19.9609C13.0977 21.4512 13.6992 22.6816 13.9453 22.6816C14.1914 22.6816 14.793 21.4512 14.793 19.9609L14.793 17.5137L18.3203 17.5137C18.9355 17.5137 19.332 17.1445 19.332 16.543C19.332 15.0938 18.1562 13.5352 16.2012 12.8379L15.9824 9.625C16.9805 9.06445 17.8008 8.42188 18.1562 7.95703C18.3477 7.71094 18.4434 7.46484 18.4434 7.24609C18.4434 6.82227 18.1152 6.52148 17.623 6.52148L10.2676 6.52148C9.77539 6.52148 9.44727 6.82227 9.44727 7.24609C9.44727 7.46484 9.54297 7.72461 9.74805 7.9707C10.1035 8.43555 10.9238 9.07812 11.9082 9.625L11.6758 12.8379C9.73438 13.5352 8.55859 15.0938 8.55859 16.543Z" fill="#ff9f0a"/>
 </g>
</svg>
