<svg version="1.1" xmlns="http://www.w3.org/2000/svg" xmlns:xlink="http://www.w3.org/1999/xlink" viewBox="0 0 21.5879 32.7168">
 <g>
  
  <path d="M10.623 32.7168C10.9512 32.7168 11.8262 30.9805 11.8262 28.8887L11.8262 21.3828L9.40625 21.3828L9.40625 28.8887C9.40625 30.9805 10.2812 32.7168 10.623 32.7168ZM2.00977 22.5039L19.2227 22.5039C20.4531 22.5039 21.2324 21.7383 21.2324 20.5762C21.2324 16.5566 16.748 12.4961 10.623 12.4961C4.48438 12.4961 0 16.5566 0 20.5762C0 21.7383 0.779297 22.5039 2.00977 22.5039ZM2.55664 20.4395C2.24219 20.4395 2.10547 20.2617 2.16016 19.8926C2.46094 17.4316 5.60547 14.4922 10.623 14.4922C15.627 14.4922 18.7715 17.4316 19.0723 19.8926C19.127 20.2617 18.9902 20.4395 18.6758 20.4395ZM1.73633 2.29688C1.73633 2.69336 1.90039 3.1582 2.25586 3.62305C2.95312 4.55273 4.60742 5.83789 6.33008 6.97266L5.82422 14.1914L8.01172 14.1914L8.51758 5.96094C8.53125 5.76953 8.50391 5.70117 8.36719 5.63281C6.31641 4.58008 4.73047 3.33594 4.62109 3.0625C4.51172 2.88477 4.62109 2.77539 4.77148 2.77539L16.4609 2.77539C16.6113 2.77539 16.7207 2.88477 16.6113 3.0625C16.502 3.33594 14.916 4.58008 12.8652 5.63281C12.7422 5.70117 12.7012 5.76953 12.7285 5.96094L13.2207 14.1914L15.4082 14.1914L14.9023 6.97266C16.6387 5.83789 18.2793 4.55273 18.9766 3.62305C19.3457 3.1582 19.5098 2.69336 19.5098 2.29688C19.5098 1.46289 18.8672 0.847656 17.9102 0.847656L3.33594 0.847656C2.36523 0.847656 1.73633 1.46289 1.73633 2.29688Z" style="fill:var(--color-0,#ff9500)"></path>
 </g>
</svg>