<svg version="1.1" xmlns="http://www.w3.org/2000/svg" xmlns:xlink="http://www.w3.org/1999/xlink" viewBox="0 0 31.4795 32.7168">
 <g>
  
  <path d="M17.5493 22.5039L16.7651 22.5039L16.7651 28.8887C16.7651 30.9805 15.9038 32.7168 15.562 32.7168C15.2202 32.7168 14.3589 30.9805 14.3589 28.8887L14.3589 22.5039L6.94873 22.5039C5.71826 22.5039 4.93896 21.7383 4.93896 20.5762C4.93896 18.2089 6.49485 15.7312 9.18576 14.1496ZM24.4487 2.29688C24.4487 2.70703 24.2847 3.17188 23.9155 3.63672C23.2046 4.55273 21.564 5.83789 19.5679 6.97266L20.019 13.248C23.8608 14.6426 26.1714 17.6914 26.1714 20.5762C26.1714 21.4723 25.708 22.1327 24.9302 22.3862L11.41 8.87344L11.5425 6.97266C9.54639 5.83789 7.90576 4.55273 7.2085 3.63672C6.83936 3.17188 6.67529 2.70703 6.67529 2.29688C6.67529 1.46289 7.3042 0.847656 8.2749 0.847656L22.8491 0.847656C23.8062 0.847656 24.4487 1.46289 24.4487 2.29688Z" style="fill:var(--color-0,#ff9500)"></path>
  <path d="M1.90381 4.62109L26.6226 29.3125C27.0464 29.7227 27.7163 29.7227 28.1128 29.3125C28.5229 28.9023 28.5366 28.2324 28.1128 27.8223L3.40771 3.13086C2.99756 2.7207 2.31396 2.70703 1.90381 3.13086C1.50732 3.52734 1.50732 4.21094 1.90381 4.62109Z" style="fill:var(--color-1,#ff9500)"></path>
 </g>
</svg>