<svg version="1.1" xmlns="http://www.w3.org/2000/svg" xmlns:xlink="http://www.w3.org/1999/xlink" viewBox="0 0 25.5254 25.1699">
 <g>
  
  <path d="M4.29297 25.1699L20.877 25.1699C23.748 25.1699 25.1699 23.7617 25.1699 20.9453L25.1699 4.23828C25.1699 1.42188 23.748 0 20.877 0L4.29297 0C1.43555 0 0 1.42188 0 4.23828L0 20.9453C0 23.7617 1.43555 25.1699 4.29297 25.1699Z" style="fill:var(--color-0,#ff9500)"></path>
  <path d="M7.05469 15.2305C7.05469 13.7402 8.25781 12.127 10.2812 11.416L10.5 8.10742C9.48828 7.5332 8.6543 6.87695 8.27148 6.39844C8.06641 6.13867 7.95703 5.87891 7.95703 5.64648C7.95703 5.20898 8.29883 4.89453 8.80469 4.89453L16.4062 4.89453C16.9121 4.89453 17.2539 5.20898 17.2539 5.64648C17.2539 5.87891 17.1445 6.125 16.9668 6.38477C16.584 6.86328 15.7363 7.51953 14.7109 8.10742L14.9434 11.416C16.9531 12.127 18.1562 13.7402 18.1562 15.2305C18.1562 15.8594 17.7598 16.2422 17.1172 16.2422L13.4805 16.2422L13.4805 18.7578C13.4805 20.2891 12.8652 21.5605 12.6055 21.5605C12.3457 21.5605 11.7305 20.2891 11.7305 18.7578L11.7305 16.2422L8.09375 16.2422C7.46484 16.2422 7.05469 15.8594 7.05469 15.2305Z" style="fill:var(--color-1,white)"></path>
 </g>
</svg>