<?xml version="1.0" encoding="UTF-8"?>
<!--Generator: Apple Native CoreSVG 326-->
<!DOCTYPE svg
PUBLIC "-//W3C//DTD SVG 1.1//EN"
       "http://www.w3.org/Graphics/SVG/1.1/DTD/svg11.dtd">
<svg version="1.1" xmlns="http://www.w3.org/2000/svg" xmlns:xlink="http://www.w3.org/1999/xlink" viewBox="0 0 35.7793 28.6699">
 <g>
  <rect height="28.6699" opacity="0" width="35.7793" x="0" y="0"/>
  <path d="M28.5195 4.26562L28.5195 11.334L26.3184 11.334L26.3184 4.38867C26.3184 2.9668 25.5527 2.22852 24.1992 2.22852L4.32031 2.22852C2.95312 2.22852 2.20117 2.9668 2.20117 4.38867L2.20117 17.9785C2.20117 19.4004 2.98047 20.1387 4.32031 20.1387L13.4121 20.1387L13.4121 22.3398L4.29297 22.3398C1.42188 22.3398 0 20.918 0 18.1016L0 4.26562C0 1.44922 1.42188 0.0273438 4.29297 0.0273438L24.2402 0.0273438C27.0977 0.0273438 28.5195 1.44922 28.5195 4.26562Z" fill="white" fill-opacity="0.85"/>
  <path d="M5.89258 4.77148L8.12109 7.01367L9.63867 5.50977C10.1719 4.96289 10.7051 5.42773 10.7598 5.85156L11.5254 10.7871C11.5664 11.0332 11.4844 11.252 11.334 11.416C11.1699 11.5664 10.9512 11.6484 10.7051 11.6074L5.76953 10.8418C5.3457 10.7871 4.88086 10.2539 5.42773 9.7207L6.91797 8.20312L4.68945 5.97461C4.36133 5.64648 4.36133 5.09961 4.68945 4.77148C5.01758 4.44336 5.56445 4.44336 5.89258 4.77148Z" fill="white" fill-opacity="0.85"/>
  <path d="M17.7051 28.6699L31.1445 28.6699C33.9883 28.6699 35.4238 27.248 35.4238 24.4316L35.4238 15.5723C35.4238 12.7559 33.9883 11.334 31.1445 11.334L17.7051 11.334C14.8477 11.334 13.4121 12.7422 13.4121 15.5723L13.4121 24.4316C13.4121 27.248 14.8477 28.6699 17.7051 28.6699Z" fill="white" fill-opacity="0.85"/>
 </g>
</svg>
