<?xml version="1.0" encoding="UTF-8"?>
<!--Generator: Apple Native CoreSVG 326-->
<!DOCTYPE svg
PUBLIC "-//W3C//DTD SVG 1.1//EN"
       "http://www.w3.org/Graphics/SVG/1.1/DTD/svg11.dtd">
<svg version="1.1" xmlns="http://www.w3.org/2000/svg" xmlns:xlink="http://www.w3.org/1999/xlink" viewBox="0 0 37.6523 32.3887">
 <g>
  <rect height="32.3887" opacity="0" width="37.6523" x="0" y="0"/>
  <path d="M28.5195 6.125L28.5195 11.3203L17.7051 11.3203C13.8223 11.3203 11.5391 13.5625 11.5391 17.4316L11.5391 24.1992L4.29297 24.1992C1.42188 24.1992 0 22.7773 0 19.9609L0 6.125C0 3.30859 1.42188 1.88672 4.29297 1.88672L24.2402 1.88672C27.0977 1.88672 28.5195 3.30859 28.5195 6.125Z" fill="white" fill-opacity="0.85"/>
  <path d="M17.7051 30.5293L31.1445 30.5293C33.9883 30.5293 35.4238 29.1074 35.4238 26.291L35.4238 17.4316C35.4238 14.6152 33.9883 13.1934 31.1445 13.1934L17.7051 13.1934C14.8477 13.1934 13.4121 14.6016 13.4121 17.4316L13.4121 26.291C13.4121 29.1074 14.8477 30.5293 17.7051 30.5293Z" fill="white" fill-opacity="0.85"/>
 </g>
</svg>
