<svg version="1.1" xmlns="http://www.w3.org/2000/svg" xmlns:xlink="http://www.w3.org/1999/xlink" viewBox="0 0 35.7793 28.6699">
 <g>
  
  <path d="M28.5195 4.26562L28.5195 11.334L26.3184 11.334L26.3184 4.38867C26.3184 2.9668 25.5527 2.22852 24.1992 2.22852L4.32031 2.22852C2.95312 2.22852 2.20117 2.9668 2.20117 4.38867L2.20117 17.9785C2.20117 19.4004 2.98047 20.1387 4.32031 20.1387L13.4121 20.1387L13.4121 22.3398L4.29297 22.3398C1.42188 22.3398 0 20.918 0 18.1016L0 4.26562C0 1.44922 1.42188 0.0273438 4.29297 0.0273438L24.2402 0.0273438C27.0977 0.0273438 28.5195 1.44922 28.5195 4.26562Z" style="fill:var(--color-0,hsl(0 0 0/0.85))"></path>
  <path d="M35.4238 15.5723L35.4238 24.4316C35.4238 27.248 33.9883 28.6699 31.1445 28.6699L17.7051 28.6699C14.8477 28.6699 13.4121 27.248 13.4121 24.4316L13.4121 15.5723C13.4121 12.7422 14.8477 11.334 17.7051 11.334L31.1445 11.334C33.9883 11.334 35.4238 12.7559 35.4238 15.5723ZM27.3848 15.5176L24.4043 18.4707L21.4512 15.5312C21.2324 15.3262 21 15.2031 20.6992 15.2031C20.084 15.2031 19.5918 15.6816 19.5918 16.2832C19.5918 16.584 19.7285 16.8301 19.9336 17.0488L22.8594 20.002L19.9336 22.9551C19.7285 23.1602 19.5918 23.4199 19.5918 23.707C19.5918 24.3223 20.084 24.8145 20.6992 24.8145C21 24.8145 21.2734 24.7051 21.4785 24.4863L24.4043 21.5469L27.3438 24.4863C27.5488 24.6914 27.8223 24.8145 28.1367 24.8145C28.7383 24.8145 29.2305 24.3223 29.2305 23.707C29.2305 23.4062 29.1074 23.1465 28.9023 22.9414L25.9629 20.002L28.916 17.0352C29.1348 16.8027 29.2441 16.5703 29.2441 16.2695C29.2441 15.668 28.752 15.1758 28.1504 15.1758C27.8633 15.1758 27.6172 15.2988 27.3848 15.5176Z" style="fill:var(--color-1,hsl(0 0 0/0.85))"></path>
 </g>
</svg>