<svg version="1.1" xmlns="http://www.w3.org/2000/svg" xmlns:xlink="http://www.w3.org/1999/xlink" viewBox="0 0 35.7793 28.6699">
 <g>
  
  <path d="M28.5195 4.26562L28.5195 11.334L26.3184 11.334L26.3184 4.38867C26.3184 2.9668 25.5527 2.22852 24.1992 2.22852L4.32031 2.22852C2.95312 2.22852 2.20117 2.9668 2.20117 4.38867L2.20117 17.9785C2.20117 19.4004 2.98047 20.1387 4.32031 20.1387L13.4121 20.1387L13.4121 22.3398L4.29297 22.3398C1.42188 22.3398 0 20.918 0 18.1016L0 4.26562C0 1.44922 1.42188 0.0273438 4.29297 0.0273438L24.2402 0.0273438C27.0977 0.0273438 28.5195 1.44922 28.5195 4.26562Z" style="fill:var(--color-0,hsl(0 0 0/0.85))"></path>
  <path d="M5.89258 4.77148L8.12109 7.01367L9.63867 5.50977C10.1855 4.97656 10.6914 5.42773 10.7598 5.85156L11.5254 10.7871C11.5664 11.0332 11.4844 11.252 11.334 11.416C11.1699 11.5664 10.9512 11.6484 10.7051 11.6074L5.76953 10.8418C5.3457 10.7734 4.89453 10.2676 5.42773 9.7207L6.91797 8.20312L4.68945 5.97461C4.36133 5.64648 4.36133 5.09961 4.68945 4.77148C5.01758 4.44336 5.56445 4.44336 5.89258 4.77148Z" style="fill:var(--color-1,hsl(0 0 0/0.85))"></path>
  <path d="M35.4238 15.5723L35.4238 24.4316C35.4238 27.248 33.9883 28.6699 31.1445 28.6699L17.7051 28.6699C14.8477 28.6699 13.4121 27.248 13.4121 24.4316L13.4121 15.5723C13.4121 12.7422 14.8477 11.334 17.7051 11.334L31.1445 11.334C33.9883 11.334 35.4238 12.7559 35.4238 15.5723ZM17.5137 14.8887C17.3633 15.0527 17.2949 15.2715 17.3223 15.5176L18.0879 20.4531C18.1426 20.877 18.6895 21.3418 19.209 20.7949L20.7266 19.291L22.9551 21.5332C23.2969 21.8613 23.8301 21.8613 24.1582 21.5332C24.4863 21.2051 24.4863 20.6582 24.1582 20.3301L21.9297 18.1016L23.4199 16.584C23.9668 16.0508 23.502 15.5176 23.0781 15.4629L18.1426 14.6973C17.9102 14.6562 17.6777 14.7383 17.5137 14.8887Z" style="fill:var(--color-2,hsl(0 0 0/0.85))"></path>
 </g>
</svg>