<?xml version="1.0" encoding="UTF-8"?>
<!--Generator: Apple Native CoreSVG 326-->
<!DOCTYPE svg
PUBLIC "-//W3C//DTD SVG 1.1//EN"
       "http://www.w3.org/Graphics/SVG/1.1/DTD/svg11.dtd">
<svg version="1.1" xmlns="http://www.w3.org/2000/svg" xmlns:xlink="http://www.w3.org/1999/xlink" viewBox="0 0 33.3594 29.9004">
 <g>
  <rect height="29.9004" opacity="0" width="33.3594" x="0" y="0"/>
  <path d="M7.31445 4.58008L7.31445 5.07227L25.6895 5.07227L25.6895 4.58008C25.6895 2.76172 26.6191 1.85938 28.4922 1.85938L30.2012 1.85938C32.0879 1.85938 33.0039 2.76172 33.0039 4.58008L33.0039 13.7676C33.0039 15.5859 32.0879 16.4883 30.2012 16.4883L28.4922 16.4883C26.6191 16.4883 25.6895 15.5859 25.6895 13.7676L25.6895 13.1934L21.0071 13.1934L19.9257 11.1973L25.6895 11.1973L25.6895 7.06836L7.31445 7.06836L7.31445 11.1973L13.0967 11.1973L12.0273 13.1934L7.31445 13.1934L7.31445 13.7676C7.31445 15.5859 6.38477 16.4883 4.52539 16.4883L2.80273 16.4883C0.929688 16.4883 0 15.5859 0 13.7676L0 4.58008C0 2.76172 0.929688 1.85938 2.80273 1.85938L4.52539 1.85938C6.38477 1.85938 7.31445 2.76172 7.31445 4.58008ZM2.80273 3.92383C2.31055 3.92383 2.06445 4.16992 2.06445 4.67578L2.06445 13.6719C2.06445 14.1777 2.31055 14.4238 2.80273 14.4238L4.52539 14.4238C5.00391 14.4238 5.25 14.1777 5.25 13.6719L5.25 4.67578C5.25 4.16992 5.00391 3.92383 4.52539 3.92383ZM28.4922 3.92383C28 3.92383 27.7539 4.16992 27.7539 4.67578L27.7539 13.6719C27.7539 14.1777 28 14.4238 28.4922 14.4238L30.2012 14.4238C30.6934 14.4238 30.9395 14.1777 30.9395 13.6719L30.9395 4.67578C30.9395 4.16992 30.6934 3.92383 30.2012 3.92383Z" fill="white" fill-opacity="0.85"/>
  <path d="M16.5156 28.041C19.9199 28.041 22.627 25.3887 22.627 22.0664C22.627 20.248 21.7109 18.4434 20.9453 17.0215L17.8691 11.293C17.5137 10.6367 17.1172 10.3359 16.5156 10.3359C15.9141 10.3359 15.5176 10.6367 15.1621 11.2793L12.0996 17.0215C11.334 18.4434 10.418 20.248 10.418 22.0664C10.418 25.3887 13.125 28.041 16.5156 28.041ZM16.5156 26.0996C14.2051 26.0996 12.3594 24.3223 12.3594 22.0664C12.3594 20.6855 13.0566 19.3594 13.8223 17.9238L16.3789 13.1523C16.4609 13.0156 16.5977 13.0156 16.6797 13.1523L19.2227 17.9238C19.9746 19.3594 20.6855 20.6855 20.6855 22.0664C20.6855 24.3223 18.8398 26.0996 16.5156 26.0996Z" fill="white" fill-opacity="0.85"/>
 </g>
</svg>
