<svg version="1.1" xmlns="http://www.w3.org/2000/svg" xmlns:xlink="http://www.w3.org/1999/xlink" viewBox="0 0 33.3594 29.9004">
 <g>
  
  <path d="M7.31445 4.30664L7.31445 5.07227L25.6895 5.07227L25.6895 4.30664C25.6895 2.73438 26.5918 1.85938 28.2188 1.85938L30.4746 1.85938C32.1152 1.85938 33.0039 2.73438 33.0039 4.30664L33.0039 14.041C33.0039 15.6133 32.1152 16.4883 30.4746 16.4883L28.2188 16.4883C26.5918 16.4883 25.6895 15.6133 25.6895 14.041L25.6895 13.1934L21.0071 13.1934L19.4961 10.4043C18.8262 9.13281 17.8008 8.46289 16.5156 8.46289C15.2168 8.46289 14.2188 9.14648 13.5215 10.4043L12.0273 13.1934L7.31445 13.1934L7.31445 14.041C7.31445 15.6133 6.41211 16.4883 4.79883 16.4883L2.5293 16.4883C0.902344 16.4883 0 15.6133 0 14.041L0 4.30664C0 2.73438 0.902344 1.85938 2.5293 1.85938L4.79883 1.85938C6.41211 1.85938 7.31445 2.73438 7.31445 4.30664Z" style="fill:var(--color-0,hsl(0 0 0/0.85))"></path>
  <path d="M16.5156 28.041C19.9199 28.041 22.627 25.3887 22.627 22.0664C22.627 20.248 21.7109 18.4434 20.9453 17.0215L17.8691 11.293C17.5137 10.6367 17.1172 10.3359 16.5156 10.3359C15.9141 10.3359 15.5176 10.6367 15.1621 11.2793L12.0996 17.0215C11.334 18.4434 10.418 20.248 10.418 22.0664C10.418 25.3887 13.125 28.041 16.5156 28.041Z" style="fill:var(--color-1,hsl(0 0 0/0.85))"></path>
 </g>
</svg>