<svg version="1.1" xmlns="http://www.w3.org/2000/svg" xmlns:xlink="http://www.w3.org/1999/xlink" viewBox="0 0 25.9492 26.1543">
 <g>
  
  <path d="M7.58789 26.1543L18.0059 26.1543C21.8477 26.1543 24.1445 23.8164 24.1445 19.9062L24.1445 6.27539C24.1445 2.36523 21.8477 0.0410156 18.0059 0.0410156L7.58789 0.0410156C3.74609 0.0410156 1.44922 2.36523 1.44922 6.27539L1.44922 19.9062C1.44922 23.8164 3.74609 26.1543 7.58789 26.1543ZM7.49219 24.0215C5.04492 24.0215 3.58203 22.5312 3.58203 20.002L3.58203 6.24805C3.58203 3.73242 5.04492 2.24219 7.49219 2.24219L18.1016 2.24219C20.5625 2.24219 22.0117 3.73242 22.0117 6.24805L22.0117 20.002C22.0117 22.5312 20.5625 24.0215 18.1016 24.0215ZM23.8984 11.6621L24.5137 11.6621C25.3887 11.6621 25.9492 11.0605 25.9492 10.1172L25.9492 7.83398C25.9492 6.86328 25.3887 6.26172 24.5137 6.26172L23.8984 6.26172Z" style="fill:var(--color-0,hsl(0 0 0/0.85))"></path>
  <path d="M5.46875 20.1797C5.46875 21.3828 6.16602 22.1211 7.31445 22.1211L18.293 22.1211C19.4277 22.1211 20.125 21.3828 20.125 20.1797L20.125 17.7734C20.125 16.5703 19.4277 15.8184 18.293 15.8184L7.31445 15.8184C6.16602 15.8184 5.46875 16.5703 5.46875 17.7734ZM6.98633 20.0977L6.98633 17.8555C6.98633 17.541 7.17773 17.3359 7.49219 17.3359L18.1152 17.3359C18.4297 17.3359 18.6074 17.541 18.6074 17.8555L18.6074 20.0977C18.6074 20.4121 18.4297 20.6035 18.1152 20.6035L7.49219 20.6035C7.17773 20.6035 6.98633 20.4121 6.98633 20.0977Z" style="fill:var(--color-1,hsl(0 0 0/0.85))"></path>
 </g>
</svg>