<?xml version="1.0" encoding="UTF-8"?>
<!--Generator: Apple Native CoreSVG 326-->
<!DOCTYPE svg
PUBLIC "-//W3C//DTD SVG 1.1//EN"
       "http://www.w3.org/Graphics/SVG/1.1/DTD/svg11.dtd">
<svg version="1.1" xmlns="http://www.w3.org/2000/svg" xmlns:xlink="http://www.w3.org/1999/xlink" viewBox="0 0 17.9238 28.9707">
 <g>
  <rect height="28.9707" opacity="0" width="17.9238" x="0" y="0"/>
  <path d="M0 25.3887C0 27.5215 1.49023 28.9434 3.71875 28.9434L13.8496 28.9434C16.0781 28.9434 17.5684 27.5215 17.5684 25.3887L17.5684 3.55469C17.5684 1.42188 16.0781 0 13.8496 0L3.71875 0C1.49023 0 0 1.42188 0 3.55469ZM2.20117 25.0332L2.20117 3.91016C2.20117 2.81641 2.84375 2.20117 4.00586 2.20117L13.5762 2.20117C14.7246 2.20117 15.3672 2.81641 15.3672 3.91016L15.3672 25.0332C15.3672 26.127 14.7246 26.7422 13.5762 26.7422L4.00586 26.7422C2.84375 26.7422 2.20117 26.127 2.20117 25.0332Z" fill="white" fill-opacity="0.85"/>
  <path d="M5.16797 25.0059L12.4141 25.0059C13.1387 25.0059 13.6309 24.5137 13.6309 23.7617L13.6309 22.1348C13.6309 21.3691 13.1387 20.8906 12.4141 20.8906L5.16797 20.8906C4.42969 20.8906 3.95117 21.3691 3.95117 22.1348L3.95117 23.7617C3.95117 24.5137 4.42969 25.0059 5.16797 25.0059Z" fill="white" fill-opacity="0.85"/>
 </g>
</svg>
