<?xml version="1.0" encoding="UTF-8"?>
<!--Generator: Apple Native CoreSVG 326-->
<!DOCTYPE svg
PUBLIC "-//W3C//DTD SVG 1.1//EN"
       "http://www.w3.org/Graphics/SVG/1.1/DTD/svg11.dtd">
<svg version="1.1" xmlns="http://www.w3.org/2000/svg" xmlns:xlink="http://www.w3.org/1999/xlink" viewBox="0 0 29.3125 17.623">
 <g>
  <rect height="17.623" opacity="0" width="29.3125" x="0" y="0"/>
  <path d="M3.55469 17.5957L25.3887 17.5957C27.5215 17.5957 28.957 16.0918 28.957 13.8633L28.957 3.71875C28.957 1.49023 27.5352 0 25.4023 0L3.56836 0C1.43555 0 0 1.49023 0 3.71875L0 13.8633C0 16.0918 1.42188 17.5957 3.55469 17.5957ZM3.91016 15.3945C2.81641 15.3945 2.20117 14.7383 2.20117 13.5898L2.20117 4.00586C2.20117 2.85742 2.81641 2.20117 3.91016 2.20117L25.0469 2.20117C26.1406 2.20117 26.7559 2.85742 26.7559 4.00586L26.7559 13.5898C26.7559 14.7383 26.1406 15.3945 25.0332 15.3945Z" fill="white" fill-opacity="0.85"/>
  <path d="M6.07031 11.3887L12.1133 11.3887C12.8516 11.3887 13.3301 10.9102 13.3301 10.1445L13.3301 7.42383C13.3301 6.67188 12.8516 6.17969 12.1133 6.17969L6.07031 6.17969C5.3457 6.17969 4.85352 6.67188 4.85352 7.42383L4.85352 10.1445C4.85352 10.9102 5.3457 11.3887 6.07031 11.3887ZM16.8438 11.3887L22.8867 11.3887C23.6113 11.3887 24.1035 10.9102 24.1035 10.1445L24.1035 7.42383C24.1035 6.67188 23.6113 6.17969 22.8867 6.17969L16.8438 6.17969C16.1191 6.17969 15.627 6.67188 15.627 7.42383L15.627 10.1445C15.627 10.9102 16.1191 11.3887 16.8438 11.3887Z" fill="white" fill-opacity="0.85"/>
 </g>
</svg>
