<?xml version="1.0" encoding="UTF-8"?>
<!--Generator: Apple Native CoreSVG 326-->
<!DOCTYPE svg
PUBLIC "-//W3C//DTD SVG 1.1//EN"
       "http://www.w3.org/Graphics/SVG/1.1/DTD/svg11.dtd">
<svg version="1.1" xmlns="http://www.w3.org/2000/svg" xmlns:xlink="http://www.w3.org/1999/xlink" viewBox="0 0 25.9492 26.1543">
 <g>
  <rect height="26.1543" opacity="0" width="25.9492" x="0" y="0"/>
  <path d="M7.58789 26.1543L18.0059 26.1543C21.8477 26.1543 24.1445 23.8164 24.1445 19.9062L24.1445 6.27539C24.1445 2.36523 21.8477 0.0410156 18.0059 0.0410156L7.58789 0.0410156C3.74609 0.0410156 1.44922 2.36523 1.44922 6.27539L1.44922 19.9062C1.44922 23.8164 3.74609 26.1543 7.58789 26.1543ZM7.49219 24.0215C5.04492 24.0215 3.58203 22.5312 3.58203 20.002L3.58203 6.24805C3.58203 3.73242 5.04492 2.24219 7.49219 2.24219L18.1016 2.24219C20.5625 2.24219 22.0117 3.73242 22.0117 6.24805L22.0117 20.002C22.0117 22.5312 20.5625 24.0215 18.1016 24.0215ZM23.8984 11.6621L24.5137 11.6621C25.3887 11.6621 25.9492 11.0605 25.9492 10.1172L25.9492 7.83398C25.9492 6.86328 25.3887 6.26172 24.5137 6.26172L23.8984 6.26172Z" fill="white" fill-opacity="0.85"/>
  <path d="M5.46875 8.4082C5.46875 9.61133 6.16602 10.3496 7.31445 10.3496L18.293 10.3496C19.4277 10.3496 20.125 9.61133 20.125 8.4082L20.125 6.00195C20.125 4.79883 19.4277 4.04688 18.293 4.04688L7.31445 4.04688C6.16602 4.04688 5.46875 4.79883 5.46875 6.00195ZM6.98633 8.32617L6.98633 6.08398C6.98633 5.76953 7.17773 5.56445 7.49219 5.56445L18.1152 5.56445C18.4297 5.56445 18.6074 5.76953 18.6074 6.08398L18.6074 8.32617C18.6074 8.64062 18.4297 8.83203 18.1152 8.83203L7.49219 8.83203C7.17773 8.83203 6.98633 8.64062 6.98633 8.32617Z" fill="white" fill-opacity="0.85"/>
 </g>
</svg>
