<svg version="1.1" xmlns="http://www.w3.org/2000/svg" xmlns:xlink="http://www.w3.org/1999/xlink" viewBox="0 0 17.9238 28.9707">
 <g>
  
  <path d="M0 25.3887C0 27.5215 1.49023 28.9434 3.71875 28.9434L13.8496 28.9434C16.0781 28.9434 17.5684 27.5215 17.5684 25.3887L17.5684 3.55469C17.5684 1.42188 16.0781 0 13.8496 0L3.71875 0C1.49023 0 0 1.42188 0 3.55469ZM2.20117 25.0332L2.20117 3.91016C2.20117 2.81641 2.84375 2.20117 4.00586 2.20117L13.5762 2.20117C14.7246 2.20117 15.3672 2.81641 15.3672 3.91016L15.3672 25.0332C15.3672 26.127 14.7246 26.7422 13.5762 26.7422L4.00586 26.7422C2.84375 26.7422 2.20117 26.127 2.20117 25.0332Z" style="fill:var(--color-0,hsl(0 0 0/0.85))"></path>
  <path d="M5.16797 25.0059L12.4141 25.0059C13.1387 25.0059 13.6309 24.5137 13.6309 23.7617L13.6309 22.1348C13.6309 21.3691 13.1387 20.8906 12.4141 20.8906L5.16797 20.8906C4.42969 20.8906 3.95117 21.3691 3.95117 22.1348L3.95117 23.7617C3.95117 24.5137 4.42969 25.0059 5.16797 25.0059Z" style="fill:var(--color-1,hsl(0 0 0/0.85))"></path>
  <path d="M5.14062 16.1191C5.14062 16.3105 5.18164 16.502 5.31836 16.6387L8.2168 19.5098C8.38086 19.6738 8.58594 19.7695 8.79102 19.7695C8.98242 19.7695 9.1875 19.6738 9.35156 19.5098L12.25 16.6387C12.3867 16.502 12.4414 16.3105 12.4414 16.1191C12.4414 15.6816 12.1406 15.3945 11.7168 15.3945C11.498 15.3809 11.334 15.4766 11.1836 15.6133L10.2266 16.5703L9.47461 17.5137L9.5293 15.7637L9.5293 11.9082C9.5293 11.4844 9.22852 11.1699 8.79102 11.1699C8.35352 11.1699 8.03906 11.4844 8.03906 11.9082L8.03906 15.7637L8.10742 17.5137L7.35547 16.5703L6.38477 15.6133C6.23438 15.4766 6.07031 15.3809 5.85156 15.3945C5.44141 15.3945 5.14062 15.6816 5.14062 16.1191Z" style="fill:var(--color-2,hsl(0 0 0/0.85))"></path>
 </g>
</svg>