<svg version="1.1" xmlns="http://www.w3.org/2000/svg" xmlns:xlink="http://www.w3.org/1999/xlink" viewBox="0 0 17.9238 28.9707">
 <g>
  
  <path d="M0 25.3887C0 27.5215 1.49023 28.9434 3.71875 28.9434L13.8496 28.9434C16.0781 28.9434 17.5684 27.5215 17.5684 25.3887L17.5684 3.55469C17.5684 1.42188 16.0781 0 13.8496 0L3.71875 0C1.49023 0 0 1.42188 0 3.55469ZM2.20117 25.0332L2.20117 3.91016C2.20117 2.81641 2.84375 2.20117 4.00586 2.20117L13.5762 2.20117C14.7246 2.20117 15.3672 2.81641 15.3672 3.91016L15.3672 25.0332C15.3672 26.127 14.7246 26.7422 13.5762 26.7422L4.00586 26.7422C2.84375 26.7422 2.20117 26.127 2.20117 25.0332Z" style="fill:var(--color-0,hsl(0 0 0/0.85))"></path>
  <path d="M5.16797 8.05273L12.4141 8.05273C13.1387 8.05273 13.6309 7.57422 13.6309 6.80859L13.6309 5.18164C13.6309 4.42969 13.1387 3.9375 12.4141 3.9375L5.16797 3.9375C4.42969 3.9375 3.95117 4.42969 3.95117 5.18164L3.95117 6.80859C3.95117 7.57422 4.42969 8.05273 5.16797 8.05273Z" style="fill:var(--color-1,hsl(0 0 0/0.85))"></path>
 </g>
</svg>