<svg version="1.1" xmlns="http://www.w3.org/2000/svg" xmlns:xlink="http://www.w3.org/1999/xlink" viewBox="0 0 40.209 20.9043">
 <g>
  
  <path d="M0 18.9902C0 20.2754 0.738281 20.8906 1.62695 20.8906C2.00977 20.8906 2.41992 20.7676 2.81641 20.5488L17.1719 12.1816C18.2109 11.5801 18.6074 11.1289 18.6074 10.4453C18.6074 9.76172 18.2109 9.31055 17.1719 8.70898L2.81641 0.341797C2.41992 0.109375 2.00977 0 1.62695 0C0.738281 0 0 0.601562 0 1.88672ZM24.9922 20.8086L28.0957 20.8086C29.2988 20.8086 29.9141 20.1797 29.9141 18.9766L29.9141 1.90039C29.9141 0.642578 29.2988 0.0683594 28.0957 0.0683594L24.9922 0.0683594C23.7891 0.0683594 23.1602 0.697266 23.1602 1.90039L23.1602 18.9766C23.1602 20.1797 23.7891 20.8086 24.9922 20.8086ZM34.918 20.8086L38.0215 20.8086C39.2246 20.8086 39.8535 20.1797 39.8535 18.9766L39.8535 1.90039C39.8535 0.642578 39.2246 0.0683594 38.0215 0.0683594L34.918 0.0683594C33.7148 0.0683594 33.0996 0.697266 33.0996 1.90039L33.0996 18.9766C33.0996 20.1797 33.7148 20.8086 34.918 20.8086Z" style="fill:var(--color-0,hsl(0 0 0/0.85))"></path>
 </g>
</svg>