<svg version="1.1" xmlns="http://www.w3.org/2000/svg" xmlns:xlink="http://www.w3.org/1999/xlink" viewBox="0 0 28.2461 27.9043">
 <g>
  
  <path d="M13.9453 27.8906C21.6426 27.8906 27.8906 21.6289 27.8906 13.9453C27.8906 6.24805 21.6426 0 13.9453 0C6.26172 0 0 6.24805 0 13.9453C0 21.6289 6.26172 27.8906 13.9453 27.8906Z" style="fill:var(--color-0,hsl(0 0 0/0.85))"></path>
  <path d="M6.33008 19.25C5.70117 19.6465 4.96289 19.332 4.96289 18.6621L4.96289 9.25586C4.96289 8.59961 5.74219 8.28516 6.33008 8.6543L13.3574 13.2344C13.9043 13.5898 13.9043 14.3145 13.3574 14.6973ZM15.7773 19.2363C15.1074 19.2363 14.793 18.8672 14.793 18.3477L14.793 9.54297C14.793 9.00977 15.1074 8.6543 15.7773 8.6543L17.1035 8.6543C17.7734 8.6543 18.0742 9.00977 18.0742 9.54297L18.0742 18.3477C18.0742 18.8672 17.7734 19.2363 17.1035 19.2363ZM20.6719 19.2363C20.002 19.2363 19.6738 18.8672 19.6738 18.3477L19.6738 9.54297C19.6738 9.00977 20.002 8.6543 20.6719 8.6543L21.998 8.6543C22.6406 8.6543 22.9551 9.00977 22.9551 9.54297L22.9551 18.3477C22.9551 18.8672 22.6406 19.2363 21.998 19.2363Z" style="fill:var(--color-1,white)"></path>
 </g>
</svg>