<?xml version="1.0" encoding="UTF-8"?>
<!--Generator: Apple Native CoreSVG 326-->
<!DOCTYPE svg
PUBLIC "-//W3C//DTD SVG 1.1//EN"
       "http://www.w3.org/Graphics/SVG/1.1/DTD/svg11.dtd">
<svg version="1.1" xmlns="http://www.w3.org/2000/svg" xmlns:xlink="http://www.w3.org/1999/xlink" viewBox="0 0 36.5842 28.041">
 <g>
  <rect height="28.041" opacity="0" width="36.5842" x="0" y="0"/>
  <path d="M13.589 0C16.0909 0.533203 19.6593 1.62695 21.6417 2.2832C26.6319 3.96484 28.3956 6.08398 28.3956 10.9102C28.3956 14.3965 26.7823 16.2422 24.3624 16.2422C23.5694 16.2422 22.6944 16.0371 21.7511 15.5859L21.7511 6.87695C21.7511 5.87891 21.6417 4.99023 20.671 4.68945C19.8644 4.42969 19.4679 5.12695 19.4679 6.08398L19.4679 28.0137L13.589 26.1543ZM20.5616 24.1992L20.5616 27.5762L32.5929 23.2832C34.3839 22.6543 35.505 22.0254 35.9151 21.4648C36.5851 20.6035 36.2843 19.25 33.6866 18.3613C30.9933 17.4316 27.8624 17.1309 25.3468 17.3223C23.7882 17.4453 21.9288 17.9512 20.5616 18.416L20.5616 22.0254L26.878 19.7422C27.9444 19.3457 29.4483 19.3047 30.378 19.6191C31.2394 19.9062 31.1573 20.3984 30.0362 20.8223ZM2.17295 23.5977C4.82529 24.541 8.21592 25.3066 12.3995 24.3906L12.3995 21.3555L9.61045 22.3945C8.44834 22.8047 6.60263 22.873 5.96006 22.668C5.03037 22.3535 5.22178 21.7383 6.45224 21.3008L12.3995 19.1816L12.3995 15.8047L4.22373 18.7578C3.12998 19.1543 2.03623 19.4688 0.778416 20.3301C-0.602443 21.2734-0.151271 22.7773 2.17295 23.5977Z" fill="white" fill-opacity="0.85"/>
 </g>
</svg>
