<?xml version="1.0" encoding="UTF-8"?>
<!--Generator: Apple Native CoreSVG 326-->
<!DOCTYPE svg
PUBLIC "-//W3C//DTD SVG 1.1//EN"
       "http://www.w3.org/Graphics/SVG/1.1/DTD/svg11.dtd">
<svg version="1.1" xmlns="http://www.w3.org/2000/svg" xmlns:xlink="http://www.w3.org/1999/xlink" viewBox="0 0 28.0205 26.8755">
 <g>
  <rect height="26.8755" opacity="0" width="28.0205" x="0" y="0"/>
  <path d="M7.27686 11.0295L7.27686 21.9485C7.27686 22.1946 7.49561 22.304 7.70068 22.1809L14.4805 18.2234L16.1057 19.8465L8.04248 24.5598C7.61865 24.7786 7.19482 24.9153 6.78467 24.9153C5.85498 24.9153 5.07568 24.2727 5.07568 22.9192L5.07568 8.83135ZM8.04248 2.30201L23.9702 11.6126C25.105 12.2688 25.4878 12.7063 25.4878 13.4309C25.4878 14.1419 25.105 14.593 23.9702 15.2493L20.8365 17.0811L19.2144 15.4601L22.3159 13.6497C22.4116 13.595 22.4663 13.5129 22.4663 13.4309C22.4663 13.3489 22.4116 13.2532 22.3159 13.2122L9.44937 5.70166L5.91744 2.17213C6.1723 2.02022 6.46986 1.94654 6.78467 1.94654C7.19482 1.94654 7.61865 2.06959 8.04248 2.30201Z" fill="white" fill-opacity="0.85"/>
  <path d="M22.1382 23.6028C22.5483 24.0129 23.2319 24.0129 23.6284 23.6028C24.0249 23.1926 24.0386 22.5227 23.6284 22.1126L3.40771 1.90553C2.99756 1.49537 2.31396 1.49537 1.90381 1.90553C1.50732 2.30201 1.50732 2.99928 1.90381 3.39576Z" fill="white" fill-opacity="0.85"/>
 </g>
</svg>
