<svg version="1.1" xmlns="http://www.w3.org/2000/svg" xmlns:xlink="http://www.w3.org/1999/xlink" viewBox="0 0 28.2461 27.9043">
 <g>
  
  <path d="M13.9453 27.8906C21.6426 27.8906 27.8906 21.6426 27.8906 13.9453C27.8906 6.24805 21.6426 0 13.9453 0C6.24805 0 0 6.24805 0 13.9453C0 21.6426 6.24805 27.8906 13.9453 27.8906ZM13.9453 25.5664C7.51953 25.5664 2.32422 20.3711 2.32422 13.9453C2.32422 7.51953 7.51953 2.32422 13.9453 2.32422C20.3711 2.32422 25.5664 7.51953 25.5664 13.9453C25.5664 20.3711 20.3711 25.5664 13.9453 25.5664Z" style="fill:var(--color-0,hsl(0 0 0/0.85))"></path>
  <path d="M11.3887 19.291L19.168 14.6836C19.7422 14.3555 19.7285 13.5625 19.168 13.2207L11.3887 8.61328C10.8008 8.27148 10.0215 8.53125 10.0215 9.20117L10.0215 18.7031C10.0215 19.3594 10.7461 19.6738 11.3887 19.291Z" style="fill:var(--color-1,hsl(0 0 0/0.85))"></path>
 </g>
</svg>