<?xml version="1.0" encoding="UTF-8"?>
<!--Generator: Apple Native CoreSVG 326-->
<!DOCTYPE svg
PUBLIC "-//W3C//DTD SVG 1.1//EN"
       "http://www.w3.org/Graphics/SVG/1.1/DTD/svg11.dtd">
<svg version="1.1" xmlns="http://www.w3.org/2000/svg" xmlns:xlink="http://www.w3.org/1999/xlink" viewBox="0 0 28.2461 27.9043">
 <g>
  <rect height="27.9043" opacity="0" width="28.2461" x="0" y="0"/>
  <path d="M13.9453 27.8906C21.6426 27.8906 27.8906 21.6289 27.8906 13.9453C27.8906 6.24805 21.6426 0 13.9453 0C6.26172 0 0 6.24805 0 13.9453C0 21.6289 6.26172 27.8906 13.9453 27.8906Z" fill="white" fill-opacity="0.85"/>
  <path d="M22.1074 11.9902L22.1074 18.5801C22.1074 19.8652 21.4785 20.5078 20.1797 20.5078L10.7598 20.5078C9.46094 20.5078 8.81836 19.8652 8.81836 18.5801L8.81836 11.9902C8.81836 10.7324 9.46094 10.0762 10.7598 10.0762L20.1797 10.0762C21.4785 10.0762 22.1074 10.7324 22.1074 11.9902ZM13.5762 12.8926L13.5762 17.7051C13.5762 18.0195 13.9043 18.1562 14.1777 17.9922L18.2246 15.5996C18.457 15.4629 18.4434 15.1348 18.1973 14.998L14.1777 12.6191C13.9043 12.4688 13.5762 12.5645 13.5762 12.8926ZM19.0176 9.05078L19.0176 9.17383L10.7598 9.17383C8.95508 9.17383 7.91602 10.2266 7.91602 11.9902L7.91602 17.582L7.65625 17.582C6.35742 17.582 5.72852 16.9531 5.72852 15.6543L5.72852 9.05078C5.72852 7.79297 6.35742 7.15039 7.65625 7.15039L17.0898 7.15039C18.375 7.15039 19.0176 7.79297 19.0176 9.05078Z" fill="white"/>
 </g>
</svg>
