<?xml version="1.0" encoding="UTF-8"?>
<!--Generator: Apple Native CoreSVG 326-->
<!DOCTYPE svg
PUBLIC "-//W3C//DTD SVG 1.1//EN"
       "http://www.w3.org/Graphics/SVG/1.1/DTD/svg11.dtd">
<svg version="1.1" xmlns="http://www.w3.org/2000/svg" xmlns:xlink="http://www.w3.org/1999/xlink" viewBox="0 0 42.4238 28.0957">
 <g>
  <rect height="28.0957" opacity="0" width="42.4238" x="0" y="0"/>
  <path d="M16.1328 2.46094L16.9668 3.14453C17.6504 3.73242 18.2109 3.95117 19.1406 3.95117L22.1167 3.95117C22.1092 4.0424 22.1074 4.13948 22.1074 4.23828L22.1074 6.15234L18.5664 6.15234C17.2129 6.15234 16.4883 5.89258 15.5996 5.1543L14.7656 4.45703C14.0684 3.86914 13.5215 3.63672 12.6191 3.63672L9.73438 3.63672C8.42188 3.63672 7.71094 4.33398 7.71094 5.6875L7.71094 9.0918L22.1074 9.0918L22.1074 11.1563L7.71094 11.1563L7.71094 22.1211C7.71094 23.543 8.46289 24.2676 9.83008 24.2676L32.2246 24.2676C33.5781 24.2676 34.3574 23.543 34.3574 22.1348L34.3574 16.584L36.5586 16.584L36.5586 22.2305C36.5586 25.0469 35.123 26.4688 32.6758 26.4688L9.80273 26.4688C6.94531 26.4688 5.50977 25.0605 5.50977 22.2305L5.50977 5.56445C5.50977 2.81641 6.89062 1.44922 9.2832 1.44922L13.1797 1.44922C14.5332 1.44922 15.2305 1.69531 16.1328 2.46094Z" fill="white" fill-opacity="0.85"/>
  <path d="M26.3867 16.584L38.1309 16.584C40.9883 16.584 42.4238 15.1621 42.4238 12.3457L42.4238 4.23828C42.4238 1.4082 40.9883 0 38.1309 0L26.3867 0C23.5293 0 22.1074 1.4082 22.1074 4.23828L22.1074 12.3457C22.1074 15.1621 23.5293 16.584 26.3867 16.584ZM26.3184 14.5195C24.9375 14.5195 24.1719 13.7812 24.1719 12.332L24.1719 4.23828C24.1719 2.80273 24.9375 2.06445 26.3184 2.06445L38.2129 2.06445C39.5801 2.06445 40.3594 2.80273 40.3594 4.23828L40.3594 12.332C40.3594 13.7812 39.5801 14.5195 38.2402 14.5195Z" fill="white" fill-opacity="0.85"/>
  <path d="M32.2656 12.6602C32.7715 12.6602 33.0996 12.332 33.0996 11.8262L33.0996 9.16016L35.7656 9.16016C36.2715 9.16016 36.6133 8.83203 36.6133 8.3125C36.6133 7.80664 36.2715 7.47852 35.7656 7.47852L33.0996 7.47852L33.0996 4.8125C33.0996 4.30664 32.7715 3.96484 32.2656 3.96484C31.7598 3.96484 31.4316 4.30664 31.4316 4.8125L31.4316 7.47852L28.752 7.47852C28.2598 7.47852 27.918 7.80664 27.918 8.3125C27.918 8.83203 28.2598 9.16016 28.752 9.16016L31.4316 9.16016L31.4316 11.8262C31.4316 12.332 31.7598 12.6602 32.2656 12.6602Z" fill="white" fill-opacity="0.85"/>
 </g>
</svg>
