<svg version="1.1" xmlns="http://www.w3.org/2000/svg" xmlns:xlink="http://www.w3.org/1999/xlink" viewBox="0 0 23.3516 29.3262">
 <g>
  
  <path d="M0 25.0332C0 27.8906 1.4082 29.3125 4.23828 29.3125L18.7578 29.3125C21.5879 29.3125 22.9961 27.8906 22.9961 25.0332L22.9961 4.29297C22.9961 1.44922 21.5879 0 18.7578 0L4.23828 0C1.4082 0 0 1.44922 0 4.29297Z" style="fill:var(--color-0,#28cd41)"></path>
  <path d="M4.82617 14.6699C4.82617 13.959 5.33203 13.4668 6.04297 13.4668L10.3223 13.4668L10.3223 9.1875C10.3223 8.47656 10.8008 7.98438 11.4844 7.98438C12.209 7.98438 12.6875 8.47656 12.6875 9.1875L12.6875 13.4668L16.9805 13.4668C17.6914 13.4668 18.1836 13.959 18.1836 14.6699C18.1836 15.3672 17.6777 15.8457 16.9805 15.8457L12.6875 15.8457L12.6875 20.1387C12.6875 20.8359 12.209 21.3418 11.4844 21.3418C10.8008 21.3418 10.3223 20.8359 10.3223 20.1387L10.3223 15.8457L6.04297 15.8457C5.33203 15.8457 4.82617 15.3672 4.82617 14.6699Z" style="fill:var(--color-1,white)"></path>
 </g>
</svg>