<?xml version="1.0" encoding="UTF-8"?>
<!--Generator: Apple Native CoreSVG 326-->
<!DOCTYPE svg
PUBLIC "-//W3C//DTD SVG 1.1//EN"
       "http://www.w3.org/Graphics/SVG/1.1/DTD/svg11.dtd">
<svg version="1.1" xmlns="http://www.w3.org/2000/svg" xmlns:xlink="http://www.w3.org/1999/xlink" viewBox="0 0 16.9121 22.8457">
 <g>
  <rect height="22.8457" opacity="0" width="16.9121" x="0" y="0"/>
  <path d="M0 7.99805C0 8.66797 0.546875 9.21484 1.2168 9.21484L7.05469 9.21484L7.05469 14.8477C7.05469 15.5039 7.60156 16.0371 8.27148 16.0371C8.94141 16.0371 9.50195 15.5039 9.50195 14.8477L9.50195 9.21484L15.3398 9.21484C16.0098 9.21484 16.5566 8.66797 16.5566 7.99805C16.5566 7.32812 16.0098 6.76758 15.3398 6.76758L9.50195 6.76758L9.50195 1.20312C9.50195 0.533203 8.94141 0 8.27148 0C7.60156 0 7.05469 0.533203 7.05469 1.20312L7.05469 6.76758L1.2168 6.76758C0.546875 6.76758 0 7.32812 0 7.99805ZM0 21.6152C0 22.2988 0.560547 22.8457 1.2168 22.8457L15.3398 22.8457C15.9961 22.8457 16.5566 22.2988 16.5566 21.6152C16.5566 20.9453 15.9961 20.3984 15.3398 20.3984L1.2168 20.3984C0.560547 20.3984 0 20.9453 0 21.6152Z" fill="white" fill-opacity="0.85"/>
 </g>
</svg>
