<svg version="1.1" xmlns="http://www.w3.org/2000/svg" xmlns:xlink="http://www.w3.org/1999/xlink" viewBox="0 0 26.2227 25.8262">
 <g>
  
  <path d="M0 6.86328C0 7.39648 0.423828 7.82031 0.970703 7.82031L3.74609 7.82031L3.74609 10.6094C3.74609 11.1562 4.18359 11.5664 4.70312 11.5664C5.25 11.5664 5.67383 11.1426 5.67383 10.6094L5.67383 7.82031L8.46289 7.82031C8.99609 7.82031 9.43359 7.39648 9.43359 6.86328C9.43359 6.33008 8.99609 5.89258 8.46289 5.89258L5.67383 5.89258L5.67383 3.10352C5.67383 2.57031 5.23633 2.13281 4.70312 2.13281C4.16992 2.13281 3.74609 2.57031 3.74609 3.10352L3.74609 5.89258L0.970703 5.89258C0.423828 5.89258 0 6.33008 0 6.86328ZM13.877 13.4668L21.8066 1.73633C21.998 1.47656 22.0664 1.24414 22.0664 0.970703C22.0664 0.423828 21.5879 0 21.0273 0C20.5488 0 20.2891 0.150391 19.9062 0.710938L12.0586 12.3594L4.11523 24.0625C3.9375 24.3223 3.8418 24.541 3.8418 24.8418C3.8418 25.4297 4.33398 25.8262 4.93555 25.8262C5.38672 25.8262 5.64648 25.6348 6.00195 25.1289ZM16.4336 19.9062C16.4336 20.4395 16.8574 20.877 17.3906 20.877L24.8965 20.877C25.4297 20.877 25.8672 20.4395 25.8672 19.9062C25.8672 19.373 25.4297 18.9492 24.8965 18.9492L17.3906 18.9492C16.8574 18.9492 16.4336 19.373 16.4336 19.9062Z" style="fill:var(--color-0,hsl(0 0 0/0.85))"></path>
 </g>
</svg>