<svg version="1.1" xmlns="http://www.w3.org/2000/svg" xmlns:xlink="http://www.w3.org/1999/xlink" viewBox="0 0 31.3633 28.6426">
 <g>
  
  <path d="M5.93359 28.6426C7.7793 28.6426 11.5527 26.7832 14.3281 24.8008C23.8574 25.0605 31.0078 19.5918 31.0078 12.4277C31.0078 5.55078 24.1172 0 15.5039 0C6.89062 0 0 5.55078 0 12.4277C0 16.9121 2.87109 20.8906 7.19141 22.8867C6.57617 24.0762 5.42773 25.6895 4.8125 26.4961C4.08789 27.4531 4.52539 28.6426 5.93359 28.6426ZM7.36914 26.373C7.25977 26.4141 7.21875 26.332 7.28711 26.2363C8.05273 25.293 9.14648 23.8711 9.61133 22.9961C9.99414 22.2852 9.89844 21.6562 9.02344 21.2461C4.73047 19.25 2.26953 16.0645 2.26953 12.4277C2.26953 6.82227 8.13477 2.25586 15.5039 2.25586C22.8867 2.25586 28.752 6.82227 28.752 12.4277C28.752 18.0195 22.8867 22.5859 15.5039 22.5859C15.2305 22.5859 14.8066 22.5723 14.2598 22.5586C13.6855 22.5586 13.248 22.7363 12.7285 23.1465C11.0469 24.3633 8.61328 25.8672 7.36914 26.373Z" style="fill:var(--color-0,hsl(0 0 0/0.85))"></path>
  <path d="M9.17383 12.5645C9.17383 13.2207 9.63867 13.6855 10.3359 13.6855L14.3555 13.6855L14.3555 17.7188C14.3555 18.4023 14.8203 18.8809 15.4902 18.8809C16.1738 18.8809 16.6523 18.4023 16.6523 17.7188L16.6523 13.6855L20.6855 13.6855C21.3691 13.6855 21.8477 13.2207 21.8477 12.5645C21.8477 11.8672 21.3691 11.3887 20.6855 11.3887L16.6523 11.3887L16.6523 7.38281C16.6523 6.67188 16.1738 6.20703 15.4902 6.20703C14.8203 6.20703 14.3555 6.67188 14.3555 7.38281L14.3555 11.3887L10.3359 11.3887C9.63867 11.3887 9.17383 11.8672 9.17383 12.5645Z" style="fill:var(--color-1,hsl(0 0 0/0.85))"></path>
 </g>
</svg>