<svg version="1.1" xmlns="http://www.w3.org/2000/svg" xmlns:xlink="http://www.w3.org/1999/xlink" viewBox="0 0 25.5254 25.1973">
 <g>
  
  <path d="M0 7.23242L2.20117 7.23242L2.20117 4.375C2.20117 2.95312 2.95312 2.22852 4.32031 2.22852L7.15039 2.22852L7.15039 0.0273438L4.29297 0.0273438C1.43555 0.0273438 0 1.43555 0 4.26562ZM9.02344 2.22852L16.1465 2.22852L16.1465 0.0273438L9.02344 0.0273438ZM22.9688 7.23242L25.1699 7.23242L25.1699 4.26562C25.1699 1.44922 23.7344 0.0273438 20.877 0.0273438L18.0195 0.0273438L18.0195 2.22852L20.8496 2.22852C22.2031 2.22852 22.9688 2.95312 22.9688 4.375ZM22.9688 16.1191L25.1699 16.1191L25.1699 9.10547L22.9688 9.10547ZM18.0195 25.1973L20.877 25.1973C23.7344 25.1973 25.1699 23.7754 25.1699 20.959L25.1699 17.9922L22.9688 17.9922L22.9688 20.8496C22.9688 22.2715 22.2031 22.9961 20.8496 22.9961L18.0195 22.9961ZM9.02344 25.1973L16.1465 25.1973L16.1465 22.9961L9.02344 22.9961ZM4.29297 25.1973L7.15039 25.1973L7.15039 22.9961L4.32031 22.9961C2.95312 22.9961 2.20117 22.2715 2.20117 20.8496L2.20117 17.9922L0 17.9922L0 20.959C0 23.7891 1.43555 25.1973 4.29297 25.1973ZM0 16.1191L2.20117 16.1191L2.20117 9.10547L0 9.10547Z" style="fill:var(--color-0,hsl(0 0 0/0.85))"></path>
  <path d="M6.26172 12.5918C6.26172 13.2617 6.72656 13.7129 7.42383 13.7129L11.4434 13.7129L11.4434 17.7461C11.4434 18.4297 11.9082 18.9082 12.5781 18.9082C13.2617 18.9082 13.7402 18.4434 13.7402 17.7461L13.7402 13.7129L17.7734 13.7129C18.457 13.7129 18.9355 13.2617 18.9355 12.5918C18.9355 11.9082 18.457 11.4297 17.7734 11.4297L13.7402 11.4297L13.7402 7.41016C13.7402 6.71289 13.2617 6.23438 12.5781 6.23438C11.9082 6.23438 11.4434 6.71289 11.4434 7.41016L11.4434 11.4297L7.42383 11.4297C6.72656 11.4297 6.26172 11.9082 6.26172 12.5918Z" style="fill:var(--color-1,hsl(0 0 0/0.85))"></path>
 </g>
</svg>