<?xml version="1.0" encoding="UTF-8"?>
<!--Generator: Apple Native CoreSVG 326-->
<!DOCTYPE svg
PUBLIC "-//W3C//DTD SVG 1.1//EN"
       "http://www.w3.org/Graphics/SVG/1.1/DTD/svg11.dtd">
<svg version="1.1" xmlns="http://www.w3.org/2000/svg" xmlns:xlink="http://www.w3.org/1999/xlink" viewBox="0 0 28.2461 27.9043">
 <g>
  <rect height="27.9043" opacity="0" width="28.2461" x="0" y="0"/>
  <path d="M13.9453 27.8906C21.6426 27.8906 27.8906 21.6426 27.8906 13.9453C27.8906 6.24805 21.6426 0 13.9453 0C6.24805 0 0 6.24805 0 13.9453C0 21.6426 6.24805 27.8906 13.9453 27.8906ZM13.9453 25.5664C7.51953 25.5664 2.32422 20.3711 2.32422 13.9453C2.32422 7.51953 7.51953 2.32422 13.9453 2.32422C20.3711 2.32422 25.5664 7.51953 25.5664 13.9453C25.5664 20.3711 20.3711 25.5664 13.9453 25.5664Z" fill="#32d74b"/>
  <path d="M7.60156 13.9453C7.60156 14.6152 8.06641 15.0664 8.76367 15.0664L12.7832 15.0664L12.7832 19.0996C12.7832 19.7832 13.248 20.2617 13.918 20.2617C14.6016 20.2617 15.0801 19.7969 15.0801 19.0996L15.0801 15.0664L19.1133 15.0664C19.7969 15.0664 20.2754 14.6152 20.2754 13.9453C20.2754 13.2617 19.7969 12.7832 19.1133 12.7832L15.0801 12.7832L15.0801 8.76367C15.0801 8.06641 14.6016 7.58789 13.918 7.58789C13.248 7.58789 12.7832 8.06641 12.7832 8.76367L12.7832 12.7832L8.76367 12.7832C8.06641 12.7832 7.60156 13.2617 7.60156 13.9453Z" fill="#32d74b"/>
 </g>
</svg>
