<?xml version="1.0" encoding="UTF-8"?>
<!--Generator: Apple Native CoreSVG 326-->
<!DOCTYPE svg
PUBLIC "-//W3C//DTD SVG 1.1//EN"
       "http://www.w3.org/Graphics/SVG/1.1/DTD/svg11.dtd">
<svg version="1.1" xmlns="http://www.w3.org/2000/svg" xmlns:xlink="http://www.w3.org/1999/xlink" viewBox="0 0 23.3516 29.3262">
 <g>
  <rect height="29.3262" opacity="0" width="23.3516" x="0" y="0"/>
  <path d="M0 25.0332C0 27.8906 1.4082 29.3125 4.23828 29.3125L18.7578 29.3125C21.5879 29.3125 22.9961 27.8906 22.9961 25.0332L22.9961 4.29297C22.9961 1.44922 21.5879 0 18.7578 0L4.23828 0C1.4082 0 0 1.44922 0 4.29297ZM2.20117 24.9922L2.20117 4.33398C2.20117 2.9668 2.92578 2.20117 4.34766 2.20117L18.6484 2.20117C20.0703 2.20117 20.7949 2.9668 20.7949 4.33398L20.7949 24.9922C20.7949 26.3594 20.0703 27.1113 18.6484 27.1113L4.34766 27.1113C2.92578 27.1113 2.20117 26.3594 2.20117 24.9922Z" fill="#32d74b"/>
  <path d="M5.16797 14.6562C5.16797 15.3262 5.64648 15.7773 6.34375 15.7773L10.3633 15.7773L10.3633 19.8105C10.3633 20.4941 10.8281 20.9727 11.4844 20.9727C12.1816 20.9727 12.6465 20.5078 12.6465 19.8105L12.6465 15.7773L16.6797 15.7773C17.3633 15.7773 17.8418 15.3262 17.8418 14.6562C17.8418 13.9727 17.377 13.4941 16.6797 13.4941L12.6465 13.4941L12.6465 9.47461C12.6465 8.77734 12.1816 8.29883 11.4844 8.29883C10.8281 8.29883 10.3633 8.77734 10.3633 9.47461L10.3633 13.4941L6.34375 13.4941C5.64648 13.4941 5.16797 13.9727 5.16797 14.6562Z" fill="#32d74b"/>
 </g>
</svg>
