<?xml version="1.0" encoding="UTF-8"?>
<!--Generator: Apple Native CoreSVG 326-->
<!DOCTYPE svg
PUBLIC "-//W3C//DTD SVG 1.1//EN"
       "http://www.w3.org/Graphics/SVG/1.1/DTD/svg11.dtd">
<svg version="1.1" xmlns="http://www.w3.org/2000/svg" xmlns:xlink="http://www.w3.org/1999/xlink" viewBox="0 0 37.4062 31.4316">
 <g>
  <rect height="31.4316" opacity="0" width="37.4062" x="0" y="0"/>
  <path d="M28.7793 6.09766L28.7793 6.33008L12.5645 6.33008C8.66797 6.33008 6.41211 8.57227 6.41211 12.4277L6.41211 23.2285L5.81055 23.2285C2.95312 23.2285 1.51758 21.8203 1.51758 18.9902L1.51758 6.09766C1.51758 3.28125 2.95312 1.85938 5.81055 1.85938L24.4863 1.85938C27.3438 1.85938 28.7793 3.28125 28.7793 6.09766Z" fill="white" fill-opacity="0.85"/>
  <path d="M35.5332 12.4277L35.5332 25.3203C35.5332 28.1367 34.0977 29.5586 31.2402 29.5586L12.5645 29.5586C9.70703 29.5586 8.27148 28.1504 8.27148 25.3203L8.27148 12.4277C8.27148 9.61133 9.70703 8.18945 12.5645 8.18945L31.2402 8.18945C34.0977 8.18945 35.5332 9.61133 35.5332 12.4277ZM20.7266 13.4121L20.7266 17.6914L16.4473 17.6914C15.7227 17.6914 15.2305 18.1699 15.2305 18.8945C15.2305 19.5781 15.7363 20.0566 16.4473 20.0566L20.7266 20.0566L20.7266 24.3496C20.7266 25.0469 21.1914 25.5527 21.8887 25.5527C22.5996 25.5527 23.0918 25.0469 23.0918 24.3496L23.0918 20.0566L27.3848 20.0566C28.082 20.0566 28.5879 19.5781 28.5879 18.8945C28.5879 18.1699 28.082 17.6914 27.3848 17.6914L23.0918 17.6914L23.0918 13.4121C23.0918 12.6875 22.5996 12.1953 21.8887 12.1953C21.1914 12.1953 20.7266 12.7012 20.7266 13.4121Z" fill="white" fill-opacity="0.85"/>
 </g>
</svg>
