<svg version="1.1" xmlns="http://www.w3.org/2000/svg" xmlns:xlink="http://www.w3.org/1999/xlink" viewBox="0 0 31.3633 28.5059">
 <g>
  
  <path d="M31.0078 12.4277C31.0078 19.2363 24.4727 24.8418 14.6152 24.8418C14.4375 24.8418 14.2598 24.8281 14.082 24.8145C13.8906 24.8145 13.6992 24.8828 13.4668 25.0469C11.1426 26.7148 7.05469 28.5059 5.41406 28.5059C4.36133 28.5059 4.06055 27.6445 4.59375 26.9609C5.11328 26.2773 6.48047 24.7734 7.24609 23.5156C7.35547 23.3105 7.28711 23.1055 7.08203 22.9961C2.69336 20.6445 0 16.8027 0 12.4277C0 5.55078 6.89062 0 15.5039 0C24.1172 0 31.0078 5.55078 31.0078 12.4277ZM14.3145 7.0957L14.3145 11.3613L10.0352 11.3613C9.32422 11.3613 8.83203 11.8535 8.83203 12.5781C8.83203 13.2617 9.32422 13.7402 10.0352 13.7402L14.3145 13.7402L14.3145 18.0332C14.3145 18.7305 14.793 19.2363 15.4902 19.2363C16.2012 19.2363 16.6934 18.7305 16.6934 18.0332L16.6934 13.7402L20.9863 13.7402C21.6836 13.7402 22.1895 13.2617 22.1895 12.5781C22.1895 11.8535 21.6836 11.3613 20.9863 11.3613L16.6934 11.3613L16.6934 7.0957C16.6934 6.37109 16.2012 5.87891 15.4902 5.87891C14.793 5.87891 14.3145 6.38477 14.3145 7.0957Z" style="fill:var(--color-0,hsl(0 0 0/0.85))"></path>
 </g>
</svg>