<?xml version="1.0" encoding="UTF-8"?>
<!--Generator: Apple Native CoreSVG 326-->
<!DOCTYPE svg
PUBLIC "-//W3C//DTD SVG 1.1//EN"
       "http://www.w3.org/Graphics/SVG/1.1/DTD/svg11.dtd">
<svg version="1.1" xmlns="http://www.w3.org/2000/svg" xmlns:xlink="http://www.w3.org/1999/xlink" viewBox="0 0 25.5254 25.1699">
 <g>
  <rect height="25.1699" opacity="0" width="25.5254" x="0" y="0"/>
  <path d="M4.29297 25.1699L20.877 25.1699C23.748 25.1699 25.1699 23.7617 25.1699 20.9453L25.1699 4.23828C25.1699 1.42188 23.748 0 20.877 0L4.29297 0C1.43555 0 0 1.42188 0 4.23828L0 20.9453C0 23.7617 1.43555 25.1699 4.29297 25.1699ZM4.32031 22.9688C2.95312 22.9688 2.20117 22.2441 2.20117 20.8223L2.20117 4.36133C2.20117 2.93945 2.95312 2.20117 4.32031 2.20117L20.8496 2.20117C22.2031 2.20117 22.9688 2.93945 22.9688 4.36133L22.9688 20.8223C22.9688 22.2441 22.2031 22.9688 20.8496 22.9688Z" fill="#32d74b"/>
  <path d="M6.26172 12.5781C6.26172 13.248 6.72656 13.6992 7.42383 13.6992L11.4434 13.6992L11.4434 17.7324C11.4434 18.416 11.9082 18.8945 12.5781 18.8945C13.2617 18.8945 13.7402 18.4297 13.7402 17.7324L13.7402 13.6992L17.7734 13.6992C18.457 13.6992 18.9355 13.248 18.9355 12.5781C18.9355 11.8945 18.457 11.416 17.7734 11.416L13.7402 11.416L13.7402 7.39648C13.7402 6.69922 13.2617 6.2207 12.5781 6.2207C11.9082 6.2207 11.4434 6.69922 11.4434 7.39648L11.4434 11.416L7.42383 11.416C6.72656 11.416 6.26172 11.8945 6.26172 12.5781Z" fill="#32d74b"/>
 </g>
</svg>
