<svg version="1.1" xmlns="http://www.w3.org/2000/svg" xmlns:xlink="http://www.w3.org/1999/xlink" viewBox="0 0 32.5938 25.1699">
 <g>
  
  <path d="M4.29297 25.1699L27.9453 25.1699C30.8164 25.1699 32.2383 23.7617 32.2383 20.9453L32.2383 4.23828C32.2383 1.42188 30.8164 0 27.9453 0L4.29297 0C1.43555 0 0 1.42188 0 4.23828L0 20.9453C0 23.7617 1.43555 25.1699 4.29297 25.1699Z" style="fill:var(--color-0,#28cd41)"></path>
  <path d="M9.44727 12.6055C9.44727 11.8945 9.95312 11.4023 10.6641 11.4023L14.9434 11.4023L14.9434 7.12305C14.9434 6.41211 15.4219 5.90625 16.1055 5.90625C16.8301 5.90625 17.3223 6.41211 17.3223 7.12305L17.3223 11.4023L21.6016 11.4023C22.3125 11.4023 22.8047 11.8945 22.8047 12.6055C22.8047 13.3027 22.3125 13.7676 21.6016 13.7676L17.3223 13.7676L17.3223 18.0605C17.3223 18.7715 16.8301 19.2637 16.1055 19.2637C15.4219 19.2637 14.9434 18.7578 14.9434 18.0605L14.9434 13.7676L10.6641 13.7676C9.95312 13.7676 9.44727 13.3027 9.44727 12.6055Z" style="fill:var(--color-1,white)"></path>
 </g>
</svg>