<svg version="1.1" xmlns="http://www.w3.org/2000/svg" xmlns:xlink="http://www.w3.org/1999/xlink" viewBox="0 0 27.0703 26.9746">
 <g>
  
  <path d="M0 10.9102C0 16.9258 4.89453 21.8203 10.9102 21.8203C13.2891 21.8203 15.4629 21.0547 17.2539 19.7695L23.9805 26.5098C24.2949 26.8242 24.7051 26.9746 25.1426 26.9746C26.0723 26.9746 26.7148 26.2773 26.7148 25.3613C26.7148 24.9238 26.5508 24.5273 26.2637 24.2402L19.5781 17.5137C20.9863 15.6816 21.8203 13.3984 21.8203 10.9102C21.8203 4.89453 16.9258 0 10.9102 0C4.89453 0 0 4.89453 0 10.9102ZM2.33789 10.9102C2.33789 6.17969 6.17969 2.33789 10.9102 2.33789C15.6406 2.33789 19.4824 6.17969 19.4824 10.9102C19.4824 15.6406 15.6406 19.4824 10.9102 19.4824C6.17969 19.4824 2.33789 15.6406 2.33789 10.9102ZM6.39844 10.9102C6.39844 11.4707 6.83594 11.9082 7.39648 11.9082L9.91211 11.9082L9.91211 14.4238C9.91211 14.9844 10.3496 15.4219 10.9102 15.4219C11.4707 15.4219 11.9219 14.9844 11.9219 14.4238L11.9219 11.9082L14.4238 11.9082C14.9844 11.9082 15.4219 11.4707 15.4219 10.9102C15.4219 10.3496 14.9844 9.89844 14.4238 9.89844L11.9219 9.89844L11.9219 7.39648C11.9219 6.83594 11.4707 6.39844 10.9102 6.39844C10.3496 6.39844 9.91211 6.83594 9.91211 7.39648L9.91211 9.89844L7.39648 9.89844C6.83594 9.89844 6.39844 10.3496 6.39844 10.9102Z" style="fill:var(--color-0,hsl(0 0 0/0.85))"></path>
 </g>
</svg>