<?xml version="1.0" encoding="UTF-8"?>
<!--Generator: Apple Native CoreSVG 326-->
<!DOCTYPE svg
PUBLIC "-//W3C//DTD SVG 1.1//EN"
       "http://www.w3.org/Graphics/SVG/1.1/DTD/svg11.dtd">
<svg version="1.1" xmlns="http://www.w3.org/2000/svg" xmlns:xlink="http://www.w3.org/1999/xlink" viewBox="0 0 29.5723 23.8574">
 <g>
  <rect height="23.8574" opacity="0" width="29.5723" x="0" y="0"/>
  <path d="M4.40234 8.81836C6.83594 8.81836 8.80469 6.84961 8.80469 4.40234C8.80469 1.98242 6.83594 0 4.40234 0C1.96875 0 0 1.98242 0 4.40234C0 6.84961 1.96875 8.81836 4.40234 8.81836ZM4.40234 6.67188C3.14453 6.67188 2.14648 5.67383 2.14648 4.40234C2.14648 3.13086 3.14453 2.14648 4.40234 2.14648C5.67383 2.14648 6.6582 3.13086 6.6582 4.40234C6.6582 5.67383 5.6875 6.67188 4.40234 6.67188ZM24.8008 8.81836C27.248 8.81836 29.2168 6.84961 29.2168 4.40234C29.2168 1.98242 27.248 0 24.8008 0C22.3809 0 20.3984 1.98242 20.3984 4.40234C20.3984 6.84961 22.3809 8.81836 24.8008 8.81836ZM24.8008 6.67188C23.543 6.67188 22.5449 5.67383 22.5449 4.40234C22.5449 3.13086 23.5566 2.14648 24.8008 2.14648C26.0859 2.14648 27.0703 3.13086 27.0703 4.40234C27.0703 5.67383 26.0859 6.67188 24.8008 6.67188ZM14.6152 23.8438C17.0488 23.8438 19.0176 21.8613 19.0176 19.4277C19.0176 16.9941 17.0488 15.0254 14.6152 15.0254C12.1816 15.0254 10.2129 16.9941 10.2129 19.4277C10.2129 21.8613 12.1816 23.8438 14.6152 23.8438ZM14.6152 21.6973C13.3574 21.6973 12.3594 20.6992 12.3594 19.4277C12.3594 18.1562 13.3574 17.1719 14.6152 17.1719C15.8867 17.1719 16.8711 18.1562 16.8711 19.4277C16.8711 20.6992 15.8867 21.6973 14.6152 21.6973Z" fill="#32d74b"/>
  <path d="M11.1152 5.60547C11.7578 5.60547 12.291 5.07227 12.291 4.42969C12.291 3.78711 11.7578 3.25391 11.1152 3.25391C10.4727 3.25391 9.93945 3.78711 9.93945 4.42969C9.93945 5.07227 10.4727 5.60547 11.1152 5.60547ZM14.6152 5.60547C15.2578 5.60547 15.791 5.07227 15.791 4.42969C15.791 3.78711 15.2578 3.25391 14.6152 3.25391C13.959 3.25391 13.4395 3.78711 13.4395 4.42969C13.4395 5.07227 13.959 5.60547 14.6152 5.60547ZM18.0879 5.60547C18.7441 5.60547 19.2773 5.07227 19.2773 4.42969C19.2773 3.78711 18.7441 3.25391 18.0879 3.25391C17.4453 3.25391 16.9121 3.78711 16.9121 4.42969C16.9121 5.07227 17.4453 5.60547 18.0879 5.60547ZM21.3008 11.7988C21.9434 11.7988 22.4766 11.2656 22.4766 10.623C22.4766 9.98047 21.9434 9.44727 21.3008 9.44727C20.6582 9.44727 20.125 9.98047 20.125 10.623C20.125 11.2656 20.6582 11.7988 21.3008 11.7988ZM18.7578 14.6016C19.4004 14.6016 19.9336 14.0684 19.9336 13.4258C19.9336 12.7832 19.4004 12.25 18.7578 12.25C18.1152 12.25 17.582 12.7832 17.582 13.4258C17.582 14.0684 18.1152 14.6016 18.7578 14.6016ZM10.4453 14.6016C11.1016 14.6016 11.6348 14.0684 11.6348 13.4258C11.6348 12.7832 11.1016 12.25 10.4453 12.25C9.80273 12.25 9.26953 12.7832 9.26953 13.4258C9.26953 14.0684 9.80273 14.6016 10.4453 14.6016ZM7.90234 11.7988C8.54492 11.7988 9.07812 11.2656 9.07812 10.623C9.07812 9.98047 8.54492 9.44727 7.90234 9.44727C7.25977 9.44727 6.72656 9.98047 6.72656 10.623C6.72656 11.2656 7.25977 11.7988 7.90234 11.7988Z" fill="white" fill-opacity="0.25"/>
 </g>
</svg>
