<?xml version="1.0" encoding="UTF-8"?>
<!--Generator: Apple Native CoreSVG 326-->
<!DOCTYPE svg
PUBLIC "-//W3C//DTD SVG 1.1//EN"
       "http://www.w3.org/Graphics/SVG/1.1/DTD/svg11.dtd">
<svg version="1.1" xmlns="http://www.w3.org/2000/svg" xmlns:xlink="http://www.w3.org/1999/xlink" viewBox="0 0 24.582 30.2832">
 <g>
  <rect height="30.2832" opacity="0" width="24.582" x="0" y="0"/>
  <path d="M15.4082 4.40234C15.4082 4.7804 15.456 5.14757 15.551 5.49609L7.20508 5.49609C4.12891 5.49609 2.20117 6.94531 2.20117 9.22852C2.20117 11.5527 4.26562 13.125 8.38086 13.5488L16.1738 14.3691C21.4785 14.9023 24.2266 17.3359 24.2266 21.0547C24.2266 24.6914 21.4375 26.9883 17.0215 26.9883L8.66937 26.9883C8.76834 26.6315 8.81836 26.2551 8.81836 25.8672C8.81836 25.4942 8.77159 25.1317 8.67851 24.7871L17.0215 24.7871C20.0977 24.7871 22.0254 23.3379 22.0254 21.0547C22.0254 18.7305 19.9473 17.1582 15.8457 16.7344L8.02539 15.9141C2.73438 15.3809 0 12.9473 0 9.22852C0 5.5918 2.78906 3.29492 7.20508 3.29492L15.556 3.29492C15.4578 3.64772 15.4082 4.01956 15.4082 4.40234Z" fill="white" fill-opacity="0.85"/>
  <path d="M4.41602 30.2832C6.84961 30.2832 8.81836 28.3008 8.81836 25.8672C8.81836 23.4473 6.84961 21.4648 4.41602 21.4648C1.98242 21.4648 0.0136719 23.4473 0.0136719 25.8672C0.0136719 28.3008 1.98242 30.2832 4.41602 30.2832ZM4.41602 28.1367C3.1582 28.1367 2.16016 27.1387 2.16016 25.8672C2.16016 24.5957 3.1582 23.6113 4.41602 23.6113C5.6875 23.6113 6.67188 24.5957 6.67188 25.8672C6.67188 27.1387 5.70117 28.1367 4.41602 28.1367ZM19.8105 8.81836C22.2578 8.81836 24.2266 6.83594 24.2266 4.40234C24.2266 1.98242 22.2578 0 19.8105 0C17.3906 0 15.4082 1.98242 15.4082 4.40234C15.4082 6.83594 17.3906 8.81836 19.8105 8.81836Z" fill="white" fill-opacity="0.85"/>
 </g>
</svg>
