<?xml version="1.0" encoding="UTF-8"?>
<!--Generator: Apple Native CoreSVG 326-->
<!DOCTYPE svg
PUBLIC "-//W3C//DTD SVG 1.1//EN"
       "http://www.w3.org/Graphics/SVG/1.1/DTD/svg11.dtd">
<svg version="1.1" xmlns="http://www.w3.org/2000/svg" xmlns:xlink="http://www.w3.org/1999/xlink" viewBox="0 0 34.877 25.334">
 <g>
  <rect height="25.334" opacity="0" width="34.877" x="0" y="0"/>
  <path d="M34.5215 13.1934C34.5215 19.0996 30.625 22.9551 24.7461 22.9551L9.77539 22.9551C3.86914 22.9551 0 19.0996 0 13.1934C0 7.28711 3.86914 3.33594 9.77539 3.39062L11.7988 3.4043C11.7441 3.73242 11.7168 4.07422 11.7168 4.40234C11.7168 4.8125 11.7578 5.20898 11.8398 5.5918L9.77539 5.5918C5.25 5.5918 2.20117 8.68164 2.20117 13.1934C2.20117 17.7051 5.25 20.7539 9.77539 20.7539L24.7461 20.7539C29.2305 20.7539 32.3203 17.7051 32.3203 13.1934C32.3203 8.68164 29.2305 5.5918 24.7461 5.5918L22.2247 5.5918C22.3367 5.21077 22.3945 4.8067 22.3945 4.38867C22.3945 4.04491 22.3545 3.71025 22.2748 3.39063L24.7461 3.39062C30.625 3.39062 34.5215 7.28711 34.5215 13.1934Z" fill="white" fill-opacity="0.85"/>
  <path d="M17.9785 8.80469C20.4121 8.80469 22.3945 6.83594 22.3945 4.38867C22.3945 1.96875 20.4121 0 17.9785 0C15.5586 0 13.5762 1.96875 13.5762 4.38867C13.5762 6.83594 15.5586 8.80469 17.9785 8.80469ZM17.9785 6.6582C16.7207 6.6582 15.7227 5.66016 15.7227 4.38867C15.7227 3.13086 16.7344 2.14648 17.9785 2.14648C19.2637 2.14648 20.248 3.13086 20.248 4.38867C20.248 5.66016 19.2637 6.6582 17.9785 6.6582Z" fill="white" fill-opacity="0.85"/>
 </g>
</svg>
