<?xml version="1.0" encoding="UTF-8"?>
<!--Generator: Apple Native CoreSVG 326-->
<!DOCTYPE svg
PUBLIC "-//W3C//DTD SVG 1.1//EN"
       "http://www.w3.org/Graphics/SVG/1.1/DTD/svg11.dtd">
<svg version="1.1" xmlns="http://www.w3.org/2000/svg" xmlns:xlink="http://www.w3.org/1999/xlink" viewBox="0 0 24.582 30.2832">
 <g>
  <rect height="30.2832" opacity="0" width="24.582" x="0" y="0"/>
  <path d="M8.81836 25.8672C8.81836 28.3008 6.84961 30.2832 4.41602 30.2832C1.98242 30.2832 0.0136719 28.3008 0.0136719 25.8672C0.0136719 23.4473 1.98242 21.4648 4.41602 21.4648C6.84961 21.4648 8.81836 23.4473 8.81836 25.8672Z" fill="white" fill-opacity="0.85"/>
  <path d="M15.4082 4.40234C15.4082 4.7804 15.456 5.14757 15.551 5.49609L7.20508 5.49609C4.12891 5.49609 2.20117 6.94531 2.20117 9.22852C2.20117 11.5527 4.26562 13.125 8.38086 13.5488L16.1738 14.3691C21.4785 14.9023 24.2266 17.3359 24.2266 21.0547C24.2266 24.6914 21.4375 26.9883 17.0215 26.9883L16.2969 26.9883L16.2969 28.998C16.2969 29.9688 15.5859 30.4062 14.875 29.832L10.8691 26.6328C10.2676 26.168 10.2539 25.5664 10.8691 25.0879L14.8613 21.9023C15.5859 21.3145 16.2969 21.752 16.2969 22.7363L16.2969 24.7871L17.0215 24.7871C20.0977 24.7871 22.0254 23.3379 22.0254 21.0547C22.0254 18.7305 19.9473 17.1582 15.8457 16.7344L8.02539 15.9141C2.73438 15.3809 0 12.9473 0 9.22852C0 5.5918 2.78906 3.29492 7.20508 3.29492L15.556 3.29492C15.4578 3.64772 15.4082 4.01956 15.4082 4.40234Z" fill="white" fill-opacity="0.85"/>
  <path d="M19.8105 8.81836C22.2578 8.81836 24.2266 6.83594 24.2266 4.40234C24.2266 1.98242 22.2578 0 19.8105 0C17.3906 0 15.4082 1.98242 15.4082 4.40234C15.4082 6.83594 17.3906 8.81836 19.8105 8.81836ZM19.8105 6.67188C18.5527 6.67188 17.5547 5.67383 17.5547 4.40234C17.5547 3.13086 18.5664 2.14648 19.8105 2.14648C21.0957 2.14648 22.0801 3.13086 22.0801 4.40234C22.0801 5.67383 21.0957 6.67188 19.8105 6.67188Z" fill="white" fill-opacity="0.85"/>
 </g>
</svg>
