<svg version="1.1" xmlns="http://www.w3.org/2000/svg" xmlns:xlink="http://www.w3.org/1999/xlink" viewBox="0 0 33.291 27.4395">
 <g>
  
  <path d="M32.9355 16.4609C32.9355 12.4414 31.4863 8.73633 29.0664 5.86523C28.793 5.53711 28.3281 5.53711 28.0273 5.85156L24.8555 9.02344C24.5957 9.2832 24.582 9.65234 24.8145 9.93945C26.2227 11.7441 27.0703 14.0137 27.0703 16.4609C27.0703 18.9219 26.2227 21.1914 24.7324 23.0918C24.541 23.3242 24.5547 23.625 24.7598 23.8438L28.0137 27.0977C28.3281 27.4121 28.7793 27.4121 29.0664 27.0703C31.4863 24.1992 32.9355 20.4941 32.9355 16.4609Z" style="fill:var(--color-0,hsl(0 0 0/0.85))"></path>
  <path d="M16.4609 5.86523C18.9355 5.86523 21.2051 6.72656 23.0234 8.13477C23.2969 8.35352 23.6523 8.32617 23.9121 8.06641L27.084 4.89453C27.3984 4.58008 27.3848 4.12891 27.0566 3.85547C24.1992 1.44922 20.4941 0 16.4609 0C12.4414 0 8.73633 1.44922 5.87891 3.85547C5.55078 4.12891 5.53711 4.58008 5.85156 4.89453L9.02344 8.06641C9.2832 8.32617 9.65234 8.35352 9.95312 8.12109C11.7578 6.72656 14.0137 5.86523 16.4609 5.86523Z" style="fill:var(--color-1,hsl(0 0 0/0.85))"></path>
  <path d="M0 16.4609C0 20.4941 1.44922 24.1992 3.86914 27.0703C4.14258 27.4121 4.60742 27.4121 4.9082 27.0977L8.16211 23.8438C8.36719 23.625 8.39453 23.3242 8.20312 23.0918C6.71289 21.1914 5.86523 18.9219 5.86523 16.4609C5.86523 14.0137 6.69922 11.7441 8.12109 9.93945C8.33984 9.65234 8.33984 9.2832 8.08008 9.02344L4.9082 5.85156C4.59375 5.53711 4.14258 5.53711 3.86914 5.86523C1.44922 8.73633 0 12.4414 0 16.4609Z" style="fill:var(--color-2,hsl(0 0 0/0.85))"></path>
  <path d="M11.9355 22.2305L16.2832 22.2305C16.6387 22.2305 16.9121 21.9844 16.9121 21.6289C16.9121 21.2871 16.6387 21.041 16.2832 21.041L13.166 21.041L13.166 20.8906L16.584 15.3945C16.748 15.1484 16.8574 14.957 16.8574 14.6836C16.8574 14.3008 16.6387 13.959 16.0918 13.959L11.8672 13.959C11.5117 13.959 11.2383 14.2188 11.2383 14.5605C11.2383 14.9023 11.5117 15.1621 11.8672 15.1621L15.0527 15.1621L15.0527 15.3125L11.4844 20.9316C11.3477 21.1504 11.2383 21.3418 11.2383 21.5605C11.2383 21.957 11.5254 22.2305 11.9355 22.2305ZM19.6328 22.3809C20.0977 22.3809 20.3848 22.0801 20.3848 21.5879L20.3848 11.375C20.3848 10.8691 20.0977 10.5684 19.6328 10.5684C19.1543 10.5684 18.8672 10.8691 18.8672 11.3613L18.8672 21.5879C18.8672 22.0801 19.1543 22.3809 19.6328 22.3809ZM18.3613 17.6641L21.5605 15.9688C21.8477 15.8184 21.957 15.5996 21.957 15.3809C21.957 14.9844 21.5332 14.6016 21.0547 14.8613L17.8008 16.584C17.541 16.7344 17.4043 16.9668 17.4043 17.1719C17.4043 17.582 17.8281 17.9375 18.3613 17.6641Z" style="fill:var(--color-3,hsl(0 0 0/0.85))"></path>
 </g>
</svg>