<svg version="1.1" xmlns="http://www.w3.org/2000/svg" xmlns:xlink="http://www.w3.org/1999/xlink" viewBox="0 0 30.8342 30.5061">
 <g>
  
  <path d="M11.172 5.90832C12.088 5.49817 13.0587 5.2384 14.0841 5.11535C14.3712 5.08801 14.5763 4.86926 14.5763 4.58215L14.5763 0.56262C14.5763 0.220824 14.3165-0.0252702 13.9747 0.0157454C12.1154 0.166136 10.338 0.671995 8.71106 1.43762C8.41028 1.58801 8.31457 1.94348 8.47864 2.23059L10.4747 5.6759C10.6114 5.922 10.8986 6.0177 11.172 5.90832Z" style="fill:var(--color-0,hsl(0 0 0/0.85))"></path>
  <path d="M7.04309 9.1759C7.64465 8.36926 8.35559 7.65832 9.1759 7.05676C9.40832 6.87903 9.46301 6.57825 9.32629 6.33215L7.3302 2.88684C7.16614 2.59973 6.81067 2.5177 6.52356 2.7091C5.03332 3.76184 3.74817 5.047 2.7091 6.5509C2.5177 6.83801 2.58606 7.17981 2.88684 7.35754L6.34582 9.32629C6.59192 9.47668 6.86535 9.422 7.04309 9.1759Z" style="fill:var(--color-1,hsl(0 0 0/0.85))"></path>
  <path d="M5.10168 14.0841C5.22473 13.0724 5.4845 12.088 5.88098 11.1993C6.00403 10.9259 5.922 10.6388 5.66223 10.4884L2.20325 8.50598C1.90246 8.32825 1.56067 8.43762 1.42395 8.7384C0.658324 10.3654 0.166136 12.1154 0.00207356 13.9884C-0.0115983 14.3302 0.220824 14.5763 0.56262 14.5763L4.58215 14.5763C4.86926 14.5763 5.08801 14.3849 5.10168 14.0841Z" style="fill:var(--color-2,hsl(0 0 0/0.85))"></path>
  <path d="M5.88098 19.3204C5.49817 18.4181 5.2384 17.4337 5.11535 16.4083C5.08801 16.1075 4.86926 15.9161 4.58215 15.9161L0.56262 15.9161C0.220824 15.9161-0.0252702 16.1622 0.00207356 16.504C0.152464 18.3907 0.658324 20.1544 1.43762 21.7814C1.57434 22.0958 1.90246 22.2052 2.21692 22.0275L5.66223 20.0177C5.922 19.8673 6.00403 19.5802 5.88098 19.3204Z" style="fill:var(--color-3,hsl(0 0 0/0.85))"></path>
  <path d="M9.1759 23.4493C8.36926 22.8614 7.64465 22.1505 7.05676 21.3302C6.87903 21.0978 6.59192 21.0294 6.33215 21.1798L2.88684 23.1486C2.58606 23.3263 2.5177 23.6818 2.69543 23.9689C3.74817 25.4591 5.047 26.7443 6.53723 27.797C6.82434 27.9884 7.17981 27.9064 7.34387 27.6193L9.32629 24.1603C9.46301 23.9142 9.40832 23.6271 9.1759 23.4493Z" style="fill:var(--color-4,hsl(0 0 0/0.85))"></path>
  <path d="M14.0841 25.3907C13.0724 25.2677 12.088 25.0079 11.1857 24.6251C10.9259 24.4884 10.6251 24.5841 10.4884 24.8302L8.49231 28.2755C8.32825 28.5763 8.42395 28.9318 8.7384 29.0685C10.3517 29.8341 12.1154 30.34 13.9747 30.504C14.3165 30.5177 14.5763 30.2853 14.5763 29.9435L14.5763 25.9239C14.5763 25.6368 14.3712 25.4181 14.0841 25.3907Z" style="fill:var(--color-5,hsl(0 0 0/0.85))"></path>
  <path d="M19.3068 24.6114C18.4181 25.0079 17.4337 25.2677 16.3947 25.3907C16.1075 25.4181 15.9025 25.6368 15.9025 25.9239L15.9025 29.9435C15.9025 30.2853 16.1622 30.5314 16.504 30.504C18.3634 30.3536 20.1544 29.8341 21.7677 29.0685C22.0685 28.9318 22.1642 28.5763 22.0001 28.2755L20.004 24.8302C19.8673 24.5841 19.5802 24.4884 19.3068 24.6114Z" style="fill:var(--color-6,hsl(0 0 0/0.85))"></path>
  <path d="M23.4493 21.3302C22.8478 22.1368 22.1232 22.8341 21.3165 23.4493C21.0841 23.6271 21.0157 23.9279 21.1525 24.1603L23.1486 27.6056C23.3126 27.8927 23.6681 27.9884 23.9552 27.797C25.4591 26.7443 26.7306 25.4454 27.7833 23.9689C27.9747 23.6818 27.879 23.3263 27.5919 23.1486L24.1466 21.1661C23.9142 21.0157 23.6271 21.0978 23.4493 21.3302Z" style="fill:var(--color-7,hsl(0 0 0/0.85))"></path>
  <path d="M25.3907 16.4083C25.2677 17.4337 25.0079 18.4181 24.5978 19.3204C24.4884 19.5802 24.5704 19.8536 24.8302 20.004L28.2755 21.9864C28.5763 22.1642 28.9181 22.0822 29.0685 21.754C29.8204 20.1407 30.3263 18.3771 30.4767 16.504C30.4904 16.1622 30.2579 15.9161 29.9161 15.9161L25.9103 15.9161C25.6232 15.9161 25.4044 16.1075 25.3907 16.4083Z" style="fill:var(--color-8,hsl(0 0 0/0.85))"></path>
  <path d="M24.5978 11.1857C24.9806 12.088 25.2677 13.0724 25.3771 14.0841C25.4044 14.3849 25.6232 14.5763 25.9103 14.5763L29.9161 14.5763C30.2579 14.5763 30.504 14.3302 30.4767 13.9884C30.3263 12.129 29.8204 10.3517 29.0685 8.7384C28.9181 8.42395 28.5626 8.32825 28.2755 8.50598L24.8165 10.5021C24.5704 10.6525 24.4884 10.9259 24.5978 11.1857Z" style="fill:var(--color-9,hsl(0 0 0/0.85))"></path>
  <path d="M21.3165 7.05676C22.1232 7.65832 22.8341 8.35559 23.4493 9.1759C23.6271 9.40832 23.9142 9.49035 24.1466 9.33996L27.5919 7.35754C27.8927 7.17981 27.9747 6.83801 27.797 6.5509C26.7443 5.047 25.4454 3.74817 23.9552 2.7091C23.6681 2.5177 23.3126 2.59973 23.1486 2.90051L21.1661 6.33215C21.0157 6.59192 21.0704 6.87903 21.3165 7.05676Z" style="fill:var(--color-10,hsl(0 0 0/0.85))"></path>
  <path d="M16.3947 5.11535C17.4337 5.22473 18.3907 5.49817 19.3068 5.90832C19.5802 6.0177 19.8673 5.922 20.004 5.6759L22.0001 2.23059C22.1642 1.94348 22.0548 1.58801 21.7404 1.43762C20.1271 0.671995 18.3771 0.166136 16.504 0.0157454C16.1622-0.0115983 15.9025 0.234495 15.9025 0.576292L15.9025 4.58215C15.9025 4.86926 16.1075 5.08801 16.3947 5.11535Z" style="fill:var(--color-11,hsl(0 0 0/0.85))"></path>
  <path d="M10.7072 20.838L15.0548 20.838C15.4239 20.838 15.6974 20.5782 15.6974 20.2364C15.6974 19.8947 15.4239 19.6349 15.0548 19.6349L11.9513 19.6349L11.9513 19.4845L15.3556 14.0021C15.5197 13.7423 15.629 13.5509 15.629 13.2911C15.629 12.9083 15.4239 12.5665 14.8634 12.5665L10.6388 12.5665C10.2833 12.5665 10.0236 12.8126 10.0236 13.1544C10.0236 13.5099 10.2833 13.756 10.6388 13.756L13.838 13.756L13.838 13.9064L10.256 19.5392C10.1193 19.7579 10.0236 19.9357 10.0236 20.1544C10.0236 20.5646 10.297 20.838 10.7072 20.838ZM18.4181 20.9884C18.8829 20.9884 19.17 20.6739 19.17 20.1818L19.17 9.98254C19.17 9.47668 18.8829 9.16223 18.4181 9.16223C17.9396 9.16223 17.6525 9.47668 17.6525 9.96887L17.6525 20.1818C17.6525 20.6739 17.9396 20.9884 18.4181 20.9884ZM17.1466 16.2716L20.3458 14.5763C20.6329 14.4259 20.7423 14.2072 20.7423 13.9884C20.7423 13.5919 20.3185 13.2091 19.84 13.4552L16.5861 15.1915C16.3126 15.3282 16.1896 15.5607 16.1896 15.7794C16.1896 16.1896 16.5997 16.545 17.1466 16.2716Z" style="fill:var(--color-12,hsl(0 0 0/0.85))"></path>
 </g>
</svg>