<?xml version="1.0" encoding="UTF-8"?>
<!--Generator: Apple Native CoreSVG 326-->
<!DOCTYPE svg
PUBLIC "-//W3C//DTD SVG 1.1//EN"
       "http://www.w3.org/Graphics/SVG/1.1/DTD/svg11.dtd">
<svg version="1.1" xmlns="http://www.w3.org/2000/svg" xmlns:xlink="http://www.w3.org/1999/xlink" viewBox="0 0 28.2461 27.9043">
 <g>
  <rect height="27.9043" opacity="0" width="28.2461" x="0" y="0"/>
  <path d="M13.9453 27.8906C21.6426 27.8906 27.8906 21.6426 27.8906 13.9453C27.8906 6.24805 21.6426 0 13.9453 0C6.24805 0 0 6.24805 0 13.9453C0 21.6426 6.24805 27.8906 13.9453 27.8906ZM13.9453 25.5664C7.51953 25.5664 2.32422 20.3711 2.32422 13.9453C2.32422 7.51953 7.51953 2.32422 13.9453 2.32422C20.3711 2.32422 25.5664 7.51953 25.5664 13.9453C25.5664 20.3711 20.3711 25.5664 13.9453 25.5664Z" fill="white" fill-opacity="0.85"/>
  <path d="M9.40625 19.5371L13.7539 19.5371C14.123 19.5371 14.3965 19.2773 14.3965 18.9355C14.3965 18.5938 14.123 18.334 13.7539 18.334L10.6504 18.334L10.6504 18.1836L14.0684 12.7012C14.2188 12.4414 14.3281 12.25 14.3281 11.9902C14.3281 11.6074 14.123 11.2656 13.5625 11.2656L9.33789 11.2656C8.99609 11.2656 8.72266 11.5117 8.72266 11.8535C8.72266 12.209 8.99609 12.4551 9.33789 12.4551L12.5371 12.4551L12.5371 12.6055L8.95508 18.2383C8.81836 18.457 8.72266 18.6348 8.72266 18.8535C8.72266 19.2637 9.00977 19.5371 9.40625 19.5371ZM17.1172 19.6875C17.582 19.6875 17.8691 19.373 17.8691 18.8809L17.8691 8.68164C17.8691 8.17578 17.582 7.86133 17.1172 7.86133C16.6387 7.86133 16.3516 8.17578 16.3516 8.66797L16.3516 18.8809C16.3516 19.373 16.6387 19.6875 17.1172 19.6875ZM15.8457 14.9707L19.0449 13.2754C19.332 13.125 19.4414 12.9062 19.4414 12.6875C19.4414 12.291 19.0176 11.9082 18.5391 12.1543L15.2852 13.8906C15.0254 14.0273 14.8887 14.2598 14.8887 14.4785C14.8887 14.8887 15.3125 15.2441 15.8457 14.9707Z" fill="white" fill-opacity="0.85"/>
 </g>
</svg>
