<?xml version="1.0" encoding="UTF-8"?>
<!--Generator: Apple Native CoreSVG 326-->
<!DOCTYPE svg
PUBLIC "-//W3C//DTD SVG 1.1//EN"
       "http://www.w3.org/Graphics/SVG/1.1/DTD/svg11.dtd">
<svg version="1.1" xmlns="http://www.w3.org/2000/svg" xmlns:xlink="http://www.w3.org/1999/xlink" viewBox="0 0 25.8945 34.6035">
 <g>
  <rect height="34.6035" opacity="0" width="25.8945" x="0" y="0"/>
  <path d="M13.8086 2.17383C14.2051 2.0918 14.6699 2.11914 15.0117 2.21484C15.668 1.61328 16.5293 1.28516 17.459 1.28516C18.9492 1.28516 20.002 2.17383 20.5762 3.5C22.75 3.55469 24.2539 5.20898 24.2539 7.56055C24.2539 8.57932 23.8849 9.51901 23.274 10.245C24.1963 11.1316 24.6708 12.446 24.3633 14.041L22.5959 23.3972C22.0869 22.953 21.4339 22.6554 20.7033 22.5437L22.3672 13.9316C22.7227 12.0996 21.4102 11.0059 19.9199 11.0059C18.7031 11.0059 17.7051 11.8125 17.5684 13.3301L16.5459 24.6959C16.4371 24.986 16.3709 25.3005 16.3516 25.6348C15.535 25.8185 14.8235 26.2731 14.315 26.8944L15.5586 13.248C15.7227 11.4707 14.6152 10.3086 12.7695 10.3086C10.9238 10.3086 9.81641 11.4707 9.98047 13.248L11.5391 30.3516L13.6913 30.3516C13.9901 31.2394 14.6256 31.9635 15.4463 32.3887L7.38281 32.3887C5.42773 32.3887 4.42969 31.2812 4.06055 29.3125L1.17578 14.041C0.880822 12.5113 1.30515 11.2398 2.15056 10.3529C1.60898 9.69166 1.28516 8.83853 1.28516 7.91602C1.28516 5.82422 2.99414 4.10156 5.08594 4.16992C5.08594 3.24023 5.96094 2.2832 7 2.37891C7.24609 1.18945 8.51758 0 10.459 0C11.9219 0 13.2207 0.847656 13.8086 2.17383ZM3.17188 13.9316L6.125 29.2168C6.26172 29.9688 6.69922 30.3516 7.45117 30.3516L9.50195 30.3516L7.95703 13.3301C7.83398 11.8125 6.83594 11.0059 5.61914 11.0059C4.12891 11.0059 2.81641 12.0996 3.17188 13.9316ZM8.73633 4.48438C7.3418 3.80078 5.91992 4.83984 6.11133 6.23438C4.63477 5.76953 3.24023 6.63086 3.24023 7.91602C3.24023 8.46735 3.47655 8.95481 3.849 9.27339C4.39363 9.0725 4.99377 8.96875 5.61914 8.96875C6.84961 8.96875 7.92969 9.46094 8.69531 10.3496C9.46094 9.0918 10.9375 8.27148 12.7695 8.27148C14.6016 8.27148 16.0781 9.0918 16.8438 10.3496C17.6094 9.46094 18.6895 8.96875 19.9199 8.96875C20.4805 8.96875 21.0208 9.05212 21.5188 9.21445C21.9865 8.84663 22.2988 8.29147 22.2988 7.69727C22.2988 6.11133 21.082 5.3457 19.3867 5.61914C19.4277 4.25195 18.7852 3.26758 17.5547 3.26758C16.6934 3.26758 15.9551 3.74609 15.5996 4.56641C14.8477 3.99219 13.3574 3.86914 12.4688 4.45703C12.6875 2.83008 11.5664 1.98242 10.459 1.98242C9.32422 1.98242 8.3125 2.88477 8.73633 4.48438Z" fill="white" fill-opacity="0.85"/>
  <path d="M20.0293 34.5762C21.3555 34.5762 22.5723 33.8242 23.1602 32.6758C24.7871 32.293 25.8945 30.8574 25.8945 29.1895C25.8945 27.6855 24.9785 26.4141 23.707 25.7715C23.6387 23.8027 22.0254 22.4902 20.0293 22.4902C18.0605 22.4902 16.4609 23.748 16.3516 25.6348C14.7109 26.0039 13.4941 27.4668 13.4941 29.1758C13.4941 31.1035 14.9707 32.6348 16.8438 32.7988C17.4727 33.8516 18.6895 34.5762 20.0293 34.5762ZM20.0293 32.8125C18.9766 32.8125 17.9922 32.1562 18.0605 30.9258C16.666 31.3633 15.2441 30.6387 15.2441 29.1758C15.2441 27.6855 16.4199 26.8516 18.1289 27.1387C17.6914 25.8672 18.3613 24.2539 20.0293 24.2539C21.6426 24.2539 22.4082 25.7988 21.9707 27.2344C23.2422 27.0977 24.0898 27.918 24.0898 29.2578C24.0898 30.4336 23.2695 31.1309 21.8887 31.0078C21.9434 32.0605 20.9863 32.8125 20.0293 32.8125Z" fill="white" fill-opacity="0.85"/>
 </g>
</svg>
