<?xml version="1.0" encoding="UTF-8"?>
<!--Generator: Apple Native CoreSVG 326-->
<!DOCTYPE svg
PUBLIC "-//W3C//DTD SVG 1.1//EN"
       "http://www.w3.org/Graphics/SVG/1.1/DTD/svg11.dtd">
<svg version="1.1" xmlns="http://www.w3.org/2000/svg" xmlns:xlink="http://www.w3.org/1999/xlink" viewBox="0 0 28.2461 27.9043">
 <g>
  <rect height="27.9043" opacity="0" width="28.2461" x="0" y="0"/>
  <path d="M13.9453 27.9043C21.6426 27.9043 27.8906 21.6562 27.8906 13.959C27.8906 6.27539 21.6426 0.0136719 13.9453 0.0136719C6.26172 0.0136719 0 6.27539 0 13.959C0 21.6562 6.26172 27.9043 13.9453 27.9043Z" fill="white" fill-opacity="0.85"/>
  <path d="M11.6621 11.1426C11.1973 10.582 10.4727 10.2539 9.7207 10.2539C9.24219 10.2539 8.77734 10.3906 8.39453 10.5957C8.2168 10.2812 8.14844 9.98047 8.14844 9.63867C8.14844 8.57227 9.00977 7.73828 10.0625 7.76562C10.0625 7.28711 10.5 6.79492 11.0332 6.84961C11.1699 6.23438 11.7988 5.66016 12.7832 5.66016C13.5215 5.66016 14.1777 6.07031 14.4648 6.74023C14.6699 6.69922 14.9023 6.71289 15.0664 6.76758C15.4082 6.4668 15.832 6.28906 16.3105 6.28906C17.0625 6.28906 17.5957 6.74023 17.8828 7.42383C18.9766 7.4375 19.7422 8.28516 19.7422 9.47461C19.7422 9.87109 19.6191 10.2676 19.4004 10.5957C19.0176 10.377 18.5664 10.2539 18.1016 10.2539C17.3496 10.2539 16.6113 10.582 16.1465 11.1426C15.6543 10.4316 14.7793 10.0352 13.9043 10.0352C13.043 10.0352 12.168 10.4316 11.6621 11.1426ZM11.2109 21.998C10.2129 21.998 9.74805 21.4238 9.55664 20.4531L8.18945 13.2754C7.94336 11.9492 8.81836 11.2656 9.7207 11.2656C10.459 11.2656 11.1699 11.7305 11.2383 12.6328L12.0859 21.998ZM13.0566 21.998L12.2227 12.7832C12.127 11.5254 13.1523 11.0332 13.9043 11.0332C14.6562 11.0332 15.6953 11.5254 15.5996 12.7832L14.7656 21.998ZM16.6113 21.998L15.7363 21.998L16.584 12.6328C16.6523 11.7305 17.3633 11.2656 18.1016 11.2656C19.0039 11.2656 19.8789 11.9492 19.6328 13.2754L18.2656 20.4531C18.0742 21.4238 17.6094 21.998 16.6113 21.998Z" fill="white"/>
 </g>
</svg>
