<?xml version="1.0" encoding="UTF-8"?>
<!--Generator: Apple Native CoreSVG 326-->
<!DOCTYPE svg
PUBLIC "-//W3C//DTD SVG 1.1//EN"
       "http://www.w3.org/Graphics/SVG/1.1/DTD/svg11.dtd">
<svg version="1.1" xmlns="http://www.w3.org/2000/svg" xmlns:xlink="http://www.w3.org/1999/xlink" viewBox="0 0 28.2461 27.9043">
 <g>
  <rect height="27.9043" opacity="0" width="28.2461" x="0" y="0"/>
  <path d="M13.9453 27.8906C21.6426 27.8906 27.8906 21.6426 27.8906 13.9453C27.8906 6.24805 21.6426 0 13.9453 0C6.24805 0 0 6.24805 0 13.9453C0 21.6426 6.24805 27.8906 13.9453 27.8906ZM13.9453 25.5664C7.51953 25.5664 2.32422 20.3711 2.32422 13.9453C2.32422 7.51953 7.51953 2.32422 13.9453 2.32422C20.3711 2.32422 25.5664 7.51953 25.5664 13.9453C25.5664 20.3711 20.3711 25.5664 13.9453 25.5664Z" fill="white" fill-opacity="0.85"/>
  <path d="M11.7305 11.2109C12.2227 10.5137 13.0703 10.1309 13.9043 10.1309C14.752 10.1309 15.5996 10.5137 16.0781 11.2109C16.543 10.6641 17.2402 10.3496 17.9785 10.3496C18.4297 10.3496 18.8672 10.459 19.2363 10.6777C19.4414 10.3633 19.5645 9.98047 19.5645 9.58398C19.5645 8.43555 18.8262 7.61523 17.7598 7.60156C17.4863 6.94531 16.9668 6.50781 16.2422 6.50781C15.7773 6.50781 15.3672 6.6582 15.0527 6.95898C14.875 6.91797 14.6426 6.9043 14.4512 6.94531C14.1641 6.28906 13.5352 5.87891 12.8242 5.87891C11.8672 5.87891 11.252 6.45312 11.1289 7.04102C10.623 6.98633 10.1719 7.46484 10.1719 7.91602C9.16016 7.88867 8.32617 8.72266 8.32617 9.74805C8.32617 10.0762 8.39453 10.3633 8.55859 10.6777C8.92773 10.4727 9.37891 10.3496 9.84375 10.3496C10.582 10.3496 11.2793 10.6641 11.7305 11.2109ZM11.293 21.7383L12.1406 21.7383L11.3203 12.6465C11.252 11.7715 10.5684 11.3203 9.84375 11.3203C8.96875 11.3203 8.12109 11.9902 8.36719 13.2754L9.69336 20.2344C9.87109 21.1777 10.3223 21.7383 11.293 21.7383ZM13.084 21.7383L14.7383 21.7383L15.5449 12.7969C15.6406 11.5801 14.6289 11.1016 13.9043 11.1016C13.1934 11.1016 12.1816 11.5801 12.2773 12.7969ZM16.5293 21.7383C17.5 21.7383 17.9512 21.1777 18.1289 20.2344L19.4551 13.2754C19.7012 11.9902 18.8535 11.3203 17.9785 11.3203C17.2539 11.3203 16.5703 11.7715 16.502 12.6465L15.6816 21.7383Z" fill="white" fill-opacity="0.85"/>
 </g>
</svg>
