<svg version="1.1" xmlns="http://www.w3.org/2000/svg" xmlns:xlink="http://www.w3.org/1999/xlink" viewBox="0 0 25.5254 25.1699">
 <g>
  
  <path d="M4.29297 25.1699L20.877 25.1699C23.748 25.1699 25.1699 23.7617 25.1699 20.9453L25.1699 4.23828C25.1699 1.42188 23.748 0 20.877 0L4.29297 0C1.43555 0 0 1.42188 0 4.23828L0 20.9453C0 23.7617 1.43555 25.1699 4.29297 25.1699Z" style="fill:var(--color-0,hsl(0 0 0/0.85))"></path>
  <path d="M7.20508 19.209C6.43945 19.209 5.87891 18.6484 5.87891 17.8828L5.87891 7.30078C5.87891 6.53516 6.43945 5.97461 7.20508 5.97461L18.0469 5.97461C18.8125 5.97461 19.373 6.53516 19.373 7.30078L19.373 17.8828C19.373 18.6484 18.8125 19.209 18.0469 19.209ZM7.95703 11.8945L8.46289 12.3867C8.68164 12.6465 8.98242 12.6465 9.22852 12.3867L11.2383 10.3906C11.4844 10.1582 11.498 9.84375 11.2383 9.59766L10.7461 9.10547C10.5137 8.87305 10.2129 8.87305 9.98047 9.11914L7.95703 11.1289C7.72461 11.3613 7.72461 11.6484 7.95703 11.8945ZM16.7891 12.3867L17.2949 11.8945C17.5273 11.6484 17.5273 11.3613 17.2949 11.1289L15.2715 9.10547C15.0527 8.87305 14.7383 8.85938 14.5059 9.0918L14 9.59766C13.7539 9.84375 13.7539 10.1582 14 10.3906L16.0234 12.3867C16.2559 12.6328 16.5703 12.6465 16.7891 12.3867ZM12.2637 17.1582L12.9746 17.1582C13.3027 17.1582 13.5352 16.9531 13.5352 16.625L13.5352 14.123C13.5352 13.7949 13.2891 13.5625 12.9746 13.5625L12.2637 13.5625C11.9492 13.5625 11.7168 13.7949 11.7168 14.123L11.7168 16.625C11.7168 16.9395 11.9492 17.1582 12.2637 17.1582Z" style="fill:var(--color-1,white)"></path>
 </g>
</svg>