<?xml version="1.0" encoding="UTF-8"?>
<!--Generator: Apple Native CoreSVG 326-->
<!DOCTYPE svg
PUBLIC "-//W3C//DTD SVG 1.1//EN"
       "http://www.w3.org/Graphics/SVG/1.1/DTD/svg11.dtd">
<svg version="1.1" xmlns="http://www.w3.org/2000/svg" xmlns:xlink="http://www.w3.org/1999/xlink" viewBox="0 0 36.2578 21.3965">
 <g>
  <rect height="21.3965" opacity="0" width="36.2578" x="0" y="0"/>
  <path d="M9.66602 0C7.79297 0 6.54883 0.669922 5.35938 2.17383L0.929688 7.9707C-0.314453 9.58398-0.300781 11.7168 0.916016 13.3164L5.3457 19.168C6.43945 20.6035 7.91602 21.3691 9.66602 21.3691L26.2363 21.3691C27.9863 21.3691 29.4629 20.6035 30.5566 19.168L34.9863 13.3164C36.2031 11.7168 36.2168 9.58398 34.9727 7.9707L30.543 2.17383C29.3535 0.669922 28.1094 0 26.2363 0ZM9.66602 2.20117L26.2363 2.20117C27.4395 2.20117 28.0273 2.50195 28.8066 3.51367L33.2363 9.31055C33.8926 10.1309 33.8789 11.1562 33.25 11.9766L28.8066 17.8418C28.123 18.7305 27.3164 19.168 26.2363 19.168L9.66602 19.168C8.59961 19.168 7.79297 18.7305 7.0957 17.8418L2.65234 11.9766C2.02344 11.1562 2.02344 10.1309 2.66602 9.31055L7.0957 3.51367C7.88867 2.50195 8.47656 2.20117 9.66602 2.20117Z" fill="white" fill-opacity="0.85"/>
  <path d="M8.85938 8.29883C7.54688 8.29883 6.48047 9.37891 6.48047 10.6777C6.48047 11.9766 7.54688 13.0566 8.85938 13.0566C10.1582 13.0566 11.2246 11.9766 11.2246 10.6777C11.2246 9.37891 10.1582 8.29883 8.85938 8.29883ZM17.9512 11.5527C16.6523 11.5527 15.5723 12.6191 15.5723 13.918C15.5723 15.2305 16.6523 16.2969 17.9512 16.2969C19.25 16.2969 20.3301 15.2305 20.3301 13.918C20.3301 12.6191 19.25 11.5527 17.9512 11.5527ZM27.043 8.29883C25.7441 8.29883 24.6777 9.37891 24.6777 10.6777C24.6777 11.9766 25.7441 13.0566 27.043 13.0566C28.3555 13.0566 29.4219 11.9766 29.4219 10.6777C29.4219 9.37891 28.3555 8.29883 27.043 8.29883Z" fill="white" fill-opacity="0.85"/>
 </g>
</svg>
