<svg version="1.1" xmlns="http://www.w3.org/2000/svg" xmlns:xlink="http://www.w3.org/1999/xlink" viewBox="0 0 25.5254 25.1699">
 <g>
  
  <path d="M4.29297 25.1699L20.877 25.1699C23.748 25.1699 25.1699 23.7617 25.1699 20.9453L25.1699 4.23828C25.1699 1.42188 23.748 0 20.877 0L4.29297 0C1.43555 0 0 1.42188 0 4.23828L0 20.9453C0 23.7617 1.43555 25.1699 4.29297 25.1699ZM4.32031 22.9688C2.95312 22.9688 2.20117 22.2441 2.20117 20.8223L2.20117 4.36133C2.20117 2.93945 2.95312 2.20117 4.32031 2.20117L20.8496 2.20117C22.2031 2.20117 22.9688 2.93945 22.9688 4.36133L22.9688 20.8223C22.9688 22.2441 22.2031 22.9688 20.8496 22.9688Z" style="fill:var(--color-0,hsl(0 0 0/0.85))"></path>
  <path d="M8.10742 7.79297C7.25977 7.79297 6.89062 8.12109 6.50781 8.61328L4.15625 11.7031C3.74609 12.2227 3.74609 12.8926 4.15625 13.4258L6.50781 16.543C6.89062 17.0352 7.38281 17.3496 8.10742 17.3496L17.0625 17.3496C17.7871 17.3496 18.2793 17.0352 18.6621 16.543L21.0137 13.4258C21.4238 12.8926 21.4238 12.2227 21.0137 11.7031L18.6621 8.61328C18.2793 8.12109 17.9102 7.79297 17.0625 7.79297ZM7.80664 11.2656C8.51758 11.2656 9.11914 11.8672 9.11914 12.5781C9.11914 13.2891 8.51758 13.877 7.80664 13.877C7.10938 13.877 6.50781 13.2891 6.50781 12.5781C6.50781 11.8672 7.10938 11.2656 7.80664 11.2656ZM12.5918 12.8789C13.3027 12.8789 13.8906 13.4805 13.8906 14.1777C13.8906 14.8887 13.3027 15.4902 12.5918 15.4902C11.8672 15.4902 11.2793 14.8887 11.2793 14.1777C11.2793 13.4805 11.8672 12.8789 12.5918 12.8789ZM17.3633 11.2656C18.0605 11.2656 18.6621 11.8672 18.6621 12.5781C18.6621 13.2891 18.0605 13.877 17.3633 13.877C16.6523 13.877 16.0645 13.2891 16.0645 12.5781C16.0645 11.8672 16.6523 11.2656 17.3633 11.2656Z" style="fill:var(--color-1,hsl(0 0 0/0.85))"></path>
 </g>
</svg>