<?xml version="1.0" encoding="UTF-8"?>
<!--Generator: Apple Native CoreSVG 326-->
<!DOCTYPE svg
PUBLIC "-//W3C//DTD SVG 1.1//EN"
       "http://www.w3.org/Graphics/SVG/1.1/DTD/svg11.dtd">
<svg version="1.1" xmlns="http://www.w3.org/2000/svg" xmlns:xlink="http://www.w3.org/1999/xlink" viewBox="0 0 37.0781 19.1543">
 <g>
  <rect height="19.1543" opacity="0" width="37.0781" x="0" y="0"/>
  <path d="M30.9668 2.1875L35.6699 7.17773C37.0781 8.64062 37.0508 10.377 35.6699 11.8535L30.9805 16.9258C29.75 18.2246 28.4102 19.127 26.6602 19.127L10.0625 19.127C8.3125 19.127 6.95898 18.2246 5.74219 16.9258L1.03906 11.8535C-0.341797 10.377-0.355469 8.64062 1.05273 7.17773L5.75586 2.1875C7.0957 0.792969 8.18945 0 10.0625 0L26.6602 0C28.5332 0 29.6133 0.792969 30.9668 2.1875ZM15.9277 12.0312C15.9277 13.3711 17.0215 14.4785 18.375 14.4785C19.7148 14.4785 20.8086 13.3711 20.8086 12.0312C20.8086 10.6914 19.7148 9.57031 18.375 9.57031C17.0215 9.57031 15.9277 10.6914 15.9277 12.0312ZM6.54883 9.51562C6.54883 10.8555 7.64258 11.9766 8.98242 11.9766C10.3359 11.9766 11.4434 10.8555 11.4434 9.51562C11.4434 8.17578 10.3359 7.06836 8.98242 7.06836C7.64258 7.06836 6.54883 8.17578 6.54883 9.51562ZM25.293 9.51562C25.293 10.8555 26.4141 11.9766 27.7539 11.9766C29.0938 11.9766 30.2012 10.8555 30.2012 9.51562C30.2012 8.17578 29.0938 7.06836 27.7539 7.06836C26.4141 7.06836 25.293 8.17578 25.293 9.51562Z" fill="white" fill-opacity="0.85"/>
 </g>
</svg>
