<?xml version="1.0" encoding="UTF-8"?>
<!--Generator: Apple Native CoreSVG 326-->
<!DOCTYPE svg
PUBLIC "-//W3C//DTD SVG 1.1//EN"
       "http://www.w3.org/Graphics/SVG/1.1/DTD/svg11.dtd">
<svg version="1.1" xmlns="http://www.w3.org/2000/svg" xmlns:xlink="http://www.w3.org/1999/xlink" viewBox="0 0 31.4453 29.1074">
 <g>
  <rect height="29.1074" opacity="0" width="31.4453" x="0" y="0"/>
  <path d="M28.1641 9.00977L28.1641 10.2949L29.3535 10.2949C30.3926 10.2949 31.0898 10.9922 31.0898 12.0312L31.0898 17.0625C31.0898 18.0879 30.3926 18.7852 29.3535 18.7852L28.1641 18.7852L28.1641 20.084C28.1641 24.7871 22.1074 29.0801 15.5449 29.0801C8.98242 29.0801 2.92578 24.7871 2.92578 20.084L2.92578 18.7852L1.73633 18.7852C0.697266 18.7852 0 18.0879 0 17.0625L0 12.0312C0 10.9922 0.697266 10.2949 1.73633 10.2949L2.92578 10.2949L2.92578 9.00977C2.92578 4.30664 8.98242 0 15.5449 0C22.1074 0 28.1641 4.30664 28.1641 9.00977ZM6.34375 14.5469C6.34375 16.0098 7.5332 17.2129 8.99609 17.2129C10.4863 17.2129 11.6621 16.0098 11.6621 14.5469C11.6621 13.084 10.4863 11.8809 8.99609 11.8809C7.5332 11.8809 6.34375 13.084 6.34375 14.5469ZM19.4277 14.5469C19.4277 16.0098 20.6035 17.2129 22.0801 17.2129C23.5566 17.2129 24.7461 16.0098 24.7461 14.5469C24.7461 13.084 23.5566 11.8809 22.0801 11.8809C20.6035 11.8809 19.4277 13.084 19.4277 14.5469Z" fill="white" fill-opacity="0.85"/>
 </g>
</svg>
