<svg version="1.1" xmlns="http://www.w3.org/2000/svg" xmlns:xlink="http://www.w3.org/1999/xlink" viewBox="0 0 25.5254 25.1699">
 <g>
  
  <path d="M4.29297 25.1699L20.877 25.1699C23.748 25.1699 25.1699 23.7617 25.1699 20.9453L25.1699 4.23828C25.1699 1.42188 23.748 0 20.877 0L4.29297 0C1.43555 0 0 1.42188 0 4.23828L0 20.9453C0 23.7617 1.43555 25.1699 4.29297 25.1699ZM4.32031 22.9688C2.95312 22.9688 2.20117 22.2441 2.20117 20.8223L2.20117 4.36133C2.20117 2.93945 2.95312 2.20117 4.32031 2.20117L20.8496 2.20117C22.2031 2.20117 22.9688 2.93945 22.9688 4.36133L22.9688 20.8223C22.9688 22.2441 22.2031 22.9688 20.8496 22.9688Z" style="fill:var(--color-0,hsl(0 0 0/0.85))"></path>
  <path d="M12.5918 19.7559C16.5703 19.7559 19.7559 16.5566 19.7559 12.5781C19.7559 8.59961 16.5703 5.40039 12.5918 5.40039C8.59961 5.40039 5.41406 8.59961 5.41406 12.5781C5.41406 16.5566 8.59961 19.7559 12.5918 19.7559ZM9.1875 14.1777C8.3125 14.1777 7.58789 13.4531 7.58789 12.5781C7.58789 11.7031 8.3125 10.9785 9.1875 10.9785C10.0762 10.9785 10.7871 11.7031 10.7871 12.5781C10.7871 13.4531 10.0762 14.1777 9.1875 14.1777ZM15.9824 14.1777C15.1074 14.1777 14.3828 13.4531 14.3828 12.5781C14.3828 11.7031 15.1074 10.9785 15.9824 10.9785C16.8574 10.9785 17.582 11.7031 17.582 12.5781C17.582 13.4531 16.8574 14.1777 15.9824 14.1777ZM12.5781 17.9922C11.7852 17.9922 11.1836 17.4043 11.1836 16.5977L11.1836 15.9961C11.1836 15.7227 11.3066 15.5996 11.5801 15.5996L13.5898 15.5996C13.8633 15.5996 13.9863 15.7227 13.9863 15.9961L13.9863 16.5977C13.9863 17.4043 13.3711 17.9922 12.5781 17.9922Z" style="fill:var(--color-1,hsl(0 0 0/0.85))"></path>
 </g>
</svg>