<svg version="1.1" xmlns="http://www.w3.org/2000/svg" xmlns:xlink="http://www.w3.org/1999/xlink" viewBox="0 0 25.5254 25.1699">
 <g>
  
  <path d="M4.29297 25.1699L20.877 25.1699C23.748 25.1699 25.1699 23.7617 25.1699 20.9453L25.1699 4.23828C25.1699 1.42188 23.748 0 20.877 0L4.29297 0C1.43555 0 0 1.42188 0 4.23828L0 20.9453C0 23.7617 1.43555 25.1699 4.29297 25.1699Z" style="fill:var(--color-0,hsl(0 0 0/0.85))"></path>
  <path d="M7.82031 7.49219L17.3496 7.49219C18.252 7.49219 18.6484 7.83398 19.0586 8.36719L21.5605 11.6348C21.998 12.1953 21.998 12.9199 21.5605 13.4941L19.0586 16.7891C18.6484 17.3223 18.1152 17.6504 17.3496 17.6504L7.82031 17.6504C7.05469 17.6504 6.52148 17.3223 6.11133 16.7891L3.60938 13.4941C3.17188 12.9199 3.17188 12.1953 3.60938 11.6348L6.11133 8.36719C6.52148 7.83398 6.91797 7.49219 7.82031 7.49219ZM7.50586 11.1836C6.75391 11.1836 6.11133 11.8262 6.11133 12.5781C6.11133 13.3301 6.75391 13.959 7.50586 13.959C8.25781 13.959 8.90039 13.3301 8.90039 12.5781C8.90039 11.8262 8.25781 11.1836 7.50586 11.1836ZM12.5918 12.8926C11.8262 12.8926 11.1973 13.5352 11.1973 14.2871C11.1973 15.0391 11.8262 15.6816 12.5918 15.6816C13.3438 15.6816 13.9727 15.0391 13.9727 14.2871C13.9727 13.5352 13.3438 12.8926 12.5918 12.8926ZM17.6641 11.1836C16.9121 11.1836 16.2832 11.8262 16.2832 12.5781C16.2832 13.3301 16.9121 13.959 17.6641 13.959C18.416 13.959 19.0586 13.3301 19.0586 12.5781C19.0586 11.8262 18.416 11.1836 17.6641 11.1836Z" style="fill:var(--color-1,white)"></path>
 </g>
</svg>