<?xml version="1.0" encoding="UTF-8"?>
<!--Generator: Apple Native CoreSVG 326-->
<!DOCTYPE svg
PUBLIC "-//W3C//DTD SVG 1.1//EN"
       "http://www.w3.org/Graphics/SVG/1.1/DTD/svg11.dtd">
<svg version="1.1" xmlns="http://www.w3.org/2000/svg" xmlns:xlink="http://www.w3.org/1999/xlink" viewBox="0 0 25.5254 25.1699">
 <g>
  <rect height="25.1699" opacity="0" width="25.5254" x="0" y="0"/>
  <path d="M4.29297 25.1699L20.877 25.1699C23.748 25.1699 25.1699 23.7617 25.1699 20.9453L25.1699 4.23828C25.1699 1.42188 23.748 0 20.877 0L4.29297 0C1.43555 0 0 1.42188 0 4.23828L0 20.9453C0 23.7617 1.43555 25.1699 4.29297 25.1699Z" fill="white" fill-opacity="0.85"/>
  <path d="M8.12109 19.0312C7.71094 19.0312 7.31445 18.9082 7.01367 18.6211C5.45508 17.1445 4.38867 14.916 4.38867 12.5918C4.38867 10.2539 5.46875 8.01172 7.04102 6.53516C7.32812 6.27539 7.71094 6.16602 8.12109 6.16602L17.0488 6.16602C17.459 6.16602 17.8555 6.28906 18.1562 6.57617C19.7148 8.03906 20.7812 10.2676 20.7812 12.5918C20.7812 14.916 19.7148 17.1445 18.1562 18.6211C17.8555 18.9082 17.459 19.0312 17.0488 19.0312ZM9.14648 15.8867C9.59766 15.8867 9.95312 15.5312 9.95312 15.0801L9.95312 10.0898C9.95312 9.63867 9.59766 9.29688 9.14648 9.29688C8.70898 9.29688 8.35352 9.63867 8.35352 10.0898L8.35352 15.0801C8.35352 15.5312 8.70898 15.8867 9.14648 15.8867ZM16.0234 15.8867C16.4746 15.8867 16.8164 15.5312 16.8164 15.0801L16.8164 10.0898C16.8164 9.63867 16.4746 9.29688 16.0234 9.29688C15.5723 9.29688 15.2305 9.63867 15.2305 10.0898L15.2305 15.0801C15.2305 15.5312 15.5723 15.8867 16.0234 15.8867Z" fill="white"/>
 </g>
</svg>
