<?xml version="1.0" encoding="UTF-8"?>
<!--Generator: Apple Native CoreSVG 326-->
<!DOCTYPE svg
PUBLIC "-//W3C//DTD SVG 1.1//EN"
       "http://www.w3.org/Graphics/SVG/1.1/DTD/svg11.dtd">
<svg version="1.1" xmlns="http://www.w3.org/2000/svg" xmlns:xlink="http://www.w3.org/1999/xlink" viewBox="0 0 25.5254 25.1699">
 <g>
  <rect height="25.1699" opacity="0" width="25.5254" x="0" y="0"/>
  <path d="M4.29297 25.1699L20.877 25.1699C23.748 25.1699 25.1699 23.7617 25.1699 20.9453L25.1699 4.23828C25.1699 1.42188 23.748 0 20.877 0L4.29297 0C1.43555 0 0 1.42188 0 4.23828L0 20.9453C0 23.7617 1.43555 25.1699 4.29297 25.1699ZM4.32031 22.9688C2.95312 22.9688 2.20117 22.2441 2.20117 20.8223L2.20117 4.36133C2.20117 2.93945 2.95312 2.20117 4.32031 2.20117L20.8496 2.20117C22.2031 2.20117 22.9688 2.93945 22.9688 4.36133L22.9688 20.8223C22.9688 22.2441 22.2031 22.9688 20.8496 22.9688Z" fill="white" fill-opacity="0.85"/>
  <path d="M10.1992 20.5215L14.9707 20.5215C15.7227 20.5215 16.2559 19.9883 16.2559 19.2363L16.2559 5.91992C16.2559 5.18164 15.7227 4.64844 14.9707 4.64844L10.1992 4.64844C9.44727 4.64844 8.91406 5.18164 8.91406 5.91992L8.91406 19.2363C8.91406 19.9883 9.44727 20.5215 10.1992 20.5215ZM12.5918 9.50195C11.8262 9.50195 11.1973 8.88672 11.1973 8.12109C11.1973 7.35547 11.8262 6.74023 12.5918 6.74023C13.3438 6.74023 13.9727 7.35547 13.9727 8.12109C13.9727 8.88672 13.3438 9.50195 12.5918 9.50195ZM12.5918 13.959C11.8262 13.959 11.1973 13.3438 11.1973 12.5781C11.1973 11.8125 11.8262 11.1973 12.5918 11.1973C13.3438 11.1973 13.9727 11.8125 13.9727 12.5781C13.9727 13.3438 13.3438 13.959 12.5918 13.959ZM12.5918 18.416C11.8262 18.416 11.1973 17.8008 11.1973 17.0352C11.1973 16.2559 11.8262 15.6543 12.5918 15.6543C13.3438 15.6543 13.9727 16.2559 13.9727 17.0352C13.9727 17.8008 13.3438 18.416 12.5918 18.416Z" fill="white" fill-opacity="0.85"/>
 </g>
</svg>
