<?xml version="1.0" encoding="UTF-8"?>
<!--Generator: Apple Native CoreSVG 326-->
<!DOCTYPE svg
PUBLIC "-//W3C//DTD SVG 1.1//EN"
       "http://www.w3.org/Graphics/SVG/1.1/DTD/svg11.dtd">
<svg version="1.1" xmlns="http://www.w3.org/2000/svg" xmlns:xlink="http://www.w3.org/1999/xlink" viewBox="0 0 25.5254 25.1699">
 <g>
  <rect height="25.1699" opacity="0" width="25.5254" x="0" y="0"/>
  <path d="M4.29297 25.1699L20.877 25.1699C23.748 25.1699 25.1699 23.7617 25.1699 20.9453L25.1699 4.23828C25.1699 1.42188 23.748 0 20.877 0L4.29297 0C1.43555 0 0 1.42188 0 4.23828L0 20.9453C0 23.7617 1.43555 25.1699 4.29297 25.1699ZM4.32031 22.9688C2.95312 22.9688 2.20117 22.2441 2.20117 20.8223L2.20117 4.36133C2.20117 2.93945 2.95312 2.20117 4.32031 2.20117L20.8496 2.20117C22.2031 2.20117 22.9688 2.93945 22.9688 4.36133L22.9688 20.8223C22.9688 22.2441 22.2031 22.9688 20.8496 22.9688Z" fill="white" fill-opacity="0.85"/>
  <path d="M7.24609 18.9902L17.9238 18.9902C18.6621 18.9902 19.209 18.4434 19.209 17.7051L19.209 7.45117C19.209 6.71289 18.6621 6.16602 17.9238 6.16602L7.24609 6.16602C6.50781 6.16602 5.96094 6.71289 5.96094 7.45117L5.96094 17.7051C5.96094 18.4434 6.50781 18.9902 7.24609 18.9902ZM12.6055 11.5801C11.6895 11.5801 10.9512 10.8418 10.9512 9.92578C10.9512 9.00977 11.6895 8.27148 12.6055 8.27148C13.5078 8.27148 14.2461 9.00977 14.2461 9.92578C14.2461 10.8418 13.5078 11.5801 12.6055 11.5801ZM9.61133 16.8574C8.85938 16.8574 8.23047 16.2422 8.23047 15.4766C8.23047 14.7109 8.85938 14.0957 9.61133 14.0957C10.377 14.0957 11.0059 14.7109 11.0059 15.4766C11.0059 16.2422 10.377 16.8574 9.61133 16.8574ZM15.5859 16.8574C14.8203 16.8574 14.1914 16.2422 14.1914 15.4766C14.1914 14.7109 14.8203 14.0957 15.5859 14.0957C16.3516 14.0957 16.9668 14.7109 16.9668 15.4766C16.9668 16.2422 16.3516 16.8574 15.5859 16.8574Z" fill="white" fill-opacity="0.85"/>
 </g>
</svg>
