<svg version="1.1" xmlns="http://www.w3.org/2000/svg" xmlns:xlink="http://www.w3.org/1999/xlink" viewBox="0 0 28.2461 27.9043">
 <g>
  
  <path d="M27.8906 13.9453C27.8906 21.6289 21.6426 27.8906 13.9453 27.8906C6.26172 27.8906 0 21.6289 0 13.9453C0 6.24805 6.26172 0 13.9453 0C21.6426 0 27.8906 6.24805 27.8906 13.9453ZM5.55078 13.9453C5.55078 15.4082 6.72656 16.6113 8.20312 16.6113C9.67969 16.6113 10.8691 15.4082 10.8691 13.9453C10.8691 12.4824 9.67969 11.2793 8.20312 11.2793C6.72656 11.2793 5.55078 12.4824 5.55078 13.9453ZM17.0215 13.9453C17.0215 15.4082 18.2109 16.6113 19.6875 16.6113C21.1641 16.6113 22.3398 15.4082 22.3398 13.9453C22.3398 12.4824 21.1641 11.2793 19.6875 11.2793C18.2109 11.2793 17.0215 12.4824 17.0215 13.9453Z" style="fill:var(--color-0,hsl(0 0 0/0.85))"></path>
 </g>
</svg>