<svg version="1.1" xmlns="http://www.w3.org/2000/svg" xmlns:xlink="http://www.w3.org/1999/xlink" viewBox="0 0 28.2461 27.9043">
 <g>
  
  <path d="M13.9453 27.8906C21.6426 27.8906 27.8906 21.6426 27.8906 13.9453C27.8906 6.24805 21.6426 0 13.9453 0C6.24805 0 0 6.24805 0 13.9453C0 21.6426 6.24805 27.8906 13.9453 27.8906ZM13.9453 25.5664C7.51953 25.5664 2.32422 20.3711 2.32422 13.9453C2.32422 7.51953 7.51953 2.32422 13.9453 2.32422C20.3711 2.32422 25.5664 7.51953 25.5664 13.9453C25.5664 20.3711 20.3711 25.5664 13.9453 25.5664Z" style="fill:var(--color-0,hsl(0 0 0/0.85))"></path>
  <path d="M13.9453 21.082C17.8555 21.082 21.1094 17.8281 21.1094 13.9316C21.1094 11.9766 20.2344 10.0215 18.7715 8.68164C17.8281 7.80664 16.5566 9.14648 17.5137 10.0488C18.5938 11.0469 19.209 12.4277 19.2227 13.9316C19.2227 16.8711 16.8848 19.209 13.9453 19.209C11.0059 19.209 8.68164 16.8711 8.68164 13.9316C8.68164 12.4277 9.2832 11.0469 10.377 10.0352C11.334 9.13281 10.0625 7.79297 9.13281 8.68164C7.65625 10.0078 6.78125 11.9492 6.78125 13.9316C6.78125 17.8281 10.0352 21.082 13.9453 21.082ZM13.9453 14.2461C14.4785 14.2461 14.8613 13.8496 14.8613 13.3027L14.8613 7.32812C14.8613 6.78125 14.4785 6.39844 13.9453 6.39844C13.4121 6.39844 13.043 6.78125 13.043 7.32812L13.043 13.3027C13.043 13.8496 13.4121 14.2461 13.9453 14.2461Z" style="fill:var(--color-1,hsl(0 0 0/0.85))"></path>
 </g>
</svg>