<?xml version="1.0" encoding="UTF-8"?>
<!--Generator: Apple Native CoreSVG 326-->
<!DOCTYPE svg
PUBLIC "-//W3C//DTD SVG 1.1//EN"
       "http://www.w3.org/Graphics/SVG/1.1/DTD/svg11.dtd">
<svg version="1.1" xmlns="http://www.w3.org/2000/svg" xmlns:xlink="http://www.w3.org/1999/xlink" viewBox="0 0 34.4531 21.5332">
 <g>
  <rect height="21.5332" opacity="0" width="34.4531" x="0" y="0"/>
  <path d="M0 12.4688C0 14.3281 1.03906 15.3535 2.89844 15.3535L8.81836 15.3535C10.3086 15.3535 11.0742 16.0918 12.127 17.5137C14 20.0566 16.8984 21.3828 19.9199 21.3828L23.666 21.3828C25.5117 21.3828 26.2773 20.3711 26.2773 18.5117L26.2773 17.1582L32.1836 17.1582C33.25 17.1582 34.0977 16.3105 34.0977 15.2715C34.0977 14.1914 33.25 13.3438 32.1836 13.3438L26.2773 13.3438L26.2773 8.03906L32.1836 8.03906C33.25 8.03906 34.0977 7.17773 34.0977 6.13867C34.0977 5.08594 33.25 4.22461 32.1836 4.22461L26.2773 4.22461L26.2773 2.84375C26.2773 0.984375 25.5117 0 23.666 0L19.9199 0C16.8984 0 14 1.29883 12.127 3.86914C11.0742 5.30469 10.3086 6.0293 8.81836 6.0293L2.89844 6.0293C1.05273 6.0293 0 7.01367 0 8.91406ZM2.20117 12.4688L2.20117 8.91406C2.20117 8.51758 2.50195 8.23047 2.89844 8.23047L8.81836 8.23047C11.0469 8.23047 12.4141 7.17773 13.9043 5.18164C15.4082 3.10352 17.3906 2.20117 19.9199 2.20117L23.3926 2.20117C23.7891 2.20117 24.0762 2.47461 24.0762 2.84375L24.0762 18.5117C24.0762 18.8945 23.7891 19.1816 23.3926 19.1816L19.9199 19.1816C17.4043 19.1816 15.4082 18.2656 13.9043 16.2012C12.4277 14.2051 11.0605 13.1523 8.81836 13.1523L2.89844 13.1523C2.50195 13.1523 2.20117 12.8652 2.20117 12.4688Z" fill="white" fill-opacity="0.85"/>
 </g>
</svg>
