<?xml version="1.0" encoding="UTF-8"?>
<!--Generator: Apple Native CoreSVG 326-->
<!DOCTYPE svg
PUBLIC "-//W3C//DTD SVG 1.1//EN"
       "http://www.w3.org/Graphics/SVG/1.1/DTD/svg11.dtd">
<svg version="1.1" xmlns="http://www.w3.org/2000/svg" xmlns:xlink="http://www.w3.org/1999/xlink" viewBox="0 0 26.3867 25.1973">
 <g>
  <rect height="25.1973" opacity="0" width="26.3867" x="0" y="0"/>
  <path d="M26.0312 4.26562L26.0312 20.959C26.0312 23.7754 24.5957 25.1973 21.7383 25.1973L4.29297 25.1973C1.43555 25.1973 0 23.7891 0 20.959L0 4.26562C0 1.43555 1.43555 0.0273438 4.29297 0.0273438L21.7383 0.0273438C24.5957 0.0273438 26.0312 1.44922 26.0312 4.26562ZM10.6777 18.1836L10.6777 19.7695C10.6777 20.207 10.8965 20.4258 11.334 20.4258L14.6973 20.4258C15.1348 20.4258 15.3535 20.207 15.3535 19.7695L15.3535 18.1836C15.3535 16.8711 14.3281 15.8184 13.0156 15.8184C11.6895 15.8184 10.6777 16.8711 10.6777 18.1836ZM6.87695 6.83594L6.87695 11.1973C6.87695 11.9219 7.41016 12.4551 8.12109 12.4551C8.81836 12.4551 9.37891 11.9219 9.37891 11.1973L9.37891 6.83594C9.37891 6.13867 8.81836 5.56445 8.12109 5.56445C7.41016 5.56445 6.87695 6.13867 6.87695 6.83594ZM16.6387 6.83594L16.6387 11.1973C16.6387 11.9219 17.1719 12.4551 17.8828 12.4551C18.5938 12.4551 19.1543 11.9219 19.1543 11.1973L19.1543 6.83594C19.1543 6.13867 18.5938 5.56445 17.8828 5.56445C17.1719 5.56445 16.6387 6.13867 16.6387 6.83594Z" fill="white" fill-opacity="0.85"/>
 </g>
</svg>
