<svg version="1.1" xmlns="http://www.w3.org/2000/svg" xmlns:xlink="http://www.w3.org/1999/xlink" viewBox="0 0 26.3867 25.1973">
 <g>
  
  <path d="M26.0312 4.26562L26.0312 20.959C26.0312 23.7754 24.5957 25.1973 21.7383 25.1973L4.29297 25.1973C1.43555 25.1973 0 23.7891 0 20.959L0 4.26562C0 1.43555 1.43555 0.0273438 4.29297 0.0273438L21.7383 0.0273438C24.5957 0.0273438 26.0312 1.44922 26.0312 4.26562ZM6.05664 17.4316C6.05664 18.6074 7.01367 19.5645 8.18945 19.5645C9.35156 19.5645 10.2949 18.6074 10.2949 17.4316C10.2949 16.2695 9.35156 15.3262 8.18945 15.3262C7.01367 15.3262 6.05664 16.2695 6.05664 17.4316ZM15.7363 17.4316C15.7363 18.6074 16.6797 19.5645 17.8555 19.5645C19.0039 19.5645 19.9746 18.6074 19.9746 17.4316C19.9746 16.2695 19.0039 15.3262 17.8555 15.3262C16.6797 15.3262 15.7363 16.2695 15.7363 17.4316ZM10.3906 8.25781C10.3906 9.7207 11.5664 10.8828 13.0156 10.8828C14.4648 10.8828 15.6406 9.7207 15.6406 8.25781C15.6406 6.80859 14.4648 5.63281 13.0156 5.63281C11.5664 5.63281 10.3906 6.80859 10.3906 8.25781Z" style="fill:var(--color-0,hsl(0 0 0/0.85))"></path>
 </g>
</svg>