<svg version="1.1" xmlns="http://www.w3.org/2000/svg" xmlns:xlink="http://www.w3.org/1999/xlink" viewBox="0 0 28.2461 27.9043">
 <g>
  
  <path d="M13.9453 27.8906C21.6426 27.8906 27.8906 21.6289 27.8906 13.9453C27.8906 6.24805 21.6426 0 13.9453 0C6.26172 0 0 6.24805 0 13.9453C0 21.6289 6.26172 27.8906 13.9453 27.8906Z" style="fill:var(--color-0,hsl(0 0 0/0.85))"></path>
  <path d="M13.959 21.3281C9.92578 21.3281 6.5625 17.9648 6.5625 13.9453C6.5625 11.9082 7.46484 9.88477 8.99609 8.53125C9.95312 7.61523 11.2793 8.99609 10.2812 9.92578C9.16016 10.9648 8.53125 12.3867 8.53125 13.9453C8.53125 16.9668 10.9375 19.3867 13.959 19.3867C16.9805 19.3867 19.4004 16.9668 19.4004 13.9453C19.3867 12.3867 18.7441 10.9648 17.6367 9.93945C16.6387 9.00977 17.9648 7.62891 18.9355 8.53125C20.4531 9.91211 21.3555 11.9219 21.3555 13.9453C21.3555 17.9648 17.9922 21.3281 13.959 21.3281ZM13.959 14.2598C13.4121 14.2598 13.0293 13.8633 13.0293 13.3027L13.0293 7.13672C13.0293 6.5625 13.4121 6.16602 13.959 6.16602C14.5059 6.16602 14.9023 6.5625 14.9023 7.13672L14.9023 13.3027C14.9023 13.8633 14.5059 14.2598 13.959 14.2598Z" style="fill:var(--color-1,white)"></path>
 </g>
</svg>