<svg version="1.1" xmlns="http://www.w3.org/2000/svg" xmlns:xlink="http://www.w3.org/1999/xlink" viewBox="0 0 26.3867 25.1973">
 <g>
  
  <path d="M4.29297 25.1973L21.7383 25.1973C24.5957 25.1973 26.0312 23.7754 26.0312 20.959L26.0312 4.26562C26.0312 1.44922 24.5957 0.0273438 21.7383 0.0273438L4.29297 0.0273438C1.43555 0.0273438 0 1.43555 0 4.26562L0 20.959C0 23.7891 1.43555 25.1973 4.29297 25.1973ZM4.32031 22.9961C2.95312 22.9961 2.20117 22.2715 2.20117 20.8496L2.20117 4.375C2.20117 2.95312 2.95312 2.22852 4.32031 2.22852L21.6973 2.22852C23.0508 2.22852 23.8301 2.95312 23.8301 4.375L23.8301 20.8496C23.8301 22.2715 23.0508 22.9961 21.6973 22.9961Z" style="fill:var(--color-0,hsl(0 0 0/0.85))"></path>
  <path d="M8.33984 18.293C9.46094 18.293 10.377 17.377 10.377 16.2422C10.377 15.1211 9.46094 14.1914 8.33984 14.1914C7.19141 14.1914 6.27539 15.1211 6.27539 16.2422C6.27539 17.377 7.19141 18.293 8.33984 18.293ZM17.7051 18.293C18.8262 18.293 19.7559 17.377 19.7559 16.2422C19.7559 15.1211 18.8262 14.1914 17.7051 14.1914C16.5703 14.1914 15.6543 15.1211 15.6543 16.2422C15.6543 17.377 16.5703 18.293 17.7051 18.293ZM13.0156 10.9922C14.1367 10.9922 15.0664 10.0762 15.0664 8.94141C15.0664 7.80664 14.1367 6.89062 13.0156 6.89062C11.8809 6.89062 10.9512 7.80664 10.9512 8.94141C10.9512 10.0762 11.8809 10.9922 13.0156 10.9922Z" style="fill:var(--color-1,hsl(0 0 0/0.85))"></path>
 </g>
</svg>