<?xml version="1.0" encoding="UTF-8"?>
<!--Generator: Apple Native CoreSVG 326-->
<!DOCTYPE svg
PUBLIC "-//W3C//DTD SVG 1.1//EN"
       "http://www.w3.org/Graphics/SVG/1.1/DTD/svg11.dtd">
<svg version="1.1" xmlns="http://www.w3.org/2000/svg" xmlns:xlink="http://www.w3.org/1999/xlink" viewBox="0 0 25.5254 25.1699">
 <g>
  <rect height="25.1699" opacity="0" width="25.5254" x="0" y="0"/>
  <path d="M4.29297 25.1699L20.877 25.1699C23.748 25.1699 25.1699 23.7617 25.1699 20.9453L25.1699 4.23828C25.1699 1.42188 23.748 0 20.877 0L4.29297 0C1.43555 0 0 1.42188 0 4.23828L0 20.9453C0 23.7617 1.43555 25.1699 4.29297 25.1699Z" fill="white" fill-opacity="0.85"/>
  <path d="M7.08203 19.1953C6.31641 19.1953 5.75586 18.6348 5.75586 17.8691L5.75586 7.28711C5.75586 6.52148 6.31641 5.96094 7.08203 5.96094L18.0879 5.96094C18.8535 5.96094 19.4141 6.52148 19.4141 7.28711L19.4141 17.8691C19.4141 18.6348 18.8535 19.1953 18.0879 19.1953ZM12.6055 11.6211C13.3848 11.6211 14.0273 10.9922 14.0273 10.1992C14.0273 9.40625 13.3848 8.77734 12.6055 8.77734C11.8125 8.77734 11.1699 9.40625 11.1699 10.1992C11.1699 10.9922 11.8125 11.6211 12.6055 11.6211ZM9.51562 16.3789C10.3086 16.3789 10.9512 15.75 10.9512 14.957C10.9512 14.1641 10.3086 13.5215 9.51562 13.5215C8.73633 13.5215 8.09375 14.1641 8.09375 14.957C8.09375 15.75 8.73633 16.3789 9.51562 16.3789ZM15.6816 16.3789C16.4746 16.3789 17.1035 15.75 17.1035 14.957C17.1035 14.1641 16.4746 13.5215 15.6816 13.5215C14.8887 13.5215 14.2461 14.1641 14.2461 14.957C14.2461 15.75 14.8887 16.3789 15.6816 16.3789Z" fill="white"/>
 </g>
</svg>
