<?xml version="1.0" encoding="UTF-8"?>
<!--Generator: Apple Native CoreSVG 326-->
<!DOCTYPE svg
PUBLIC "-//W3C//DTD SVG 1.1//EN"
       "http://www.w3.org/Graphics/SVG/1.1/DTD/svg11.dtd">
<svg version="1.1" xmlns="http://www.w3.org/2000/svg" xmlns:xlink="http://www.w3.org/1999/xlink" viewBox="0 0 26.3867 25.1973">
 <g>
  <rect height="25.1973" opacity="0" width="26.3867" x="0" y="0"/>
  <path d="M26.0312 4.26562L26.0312 20.959C26.0312 23.7754 24.5957 25.1973 21.7383 25.1973L4.29297 25.1973C1.43555 25.1973 0 23.7891 0 20.959L0 4.26562C0 1.43555 1.43555 0.0273438 4.29297 0.0273438L21.7383 0.0273438C24.5957 0.0273438 26.0312 1.44922 26.0312 4.26562ZM6.05664 16.3516C6.05664 17.5273 7.01367 18.4844 8.18945 18.4844C9.35156 18.4844 10.2949 17.5273 10.2949 16.3516C10.2949 15.1895 9.35156 14.2324 8.18945 14.2324C7.01367 14.2324 6.05664 15.1895 6.05664 16.3516ZM15.7363 16.3516C15.7363 17.5273 16.6797 18.4844 17.8555 18.4844C19.0039 18.4844 19.9746 17.5273 19.9746 16.3516C19.9746 15.1895 19.0039 14.2324 17.8555 14.2324C16.6797 14.2324 15.7363 15.1895 15.7363 16.3516ZM10.8828 8.83203C10.8828 10.0078 11.8398 10.9648 13.0156 10.9648C14.1777 10.9648 15.1348 10.0078 15.1348 8.83203C15.1348 7.66992 14.1777 6.71289 13.0156 6.71289C11.8398 6.71289 10.8828 7.66992 10.8828 8.83203Z" fill="white" fill-opacity="0.85"/>
 </g>
</svg>
