<?xml version="1.0" encoding="UTF-8"?>
<!--Generator: Apple Native CoreSVG 326-->
<!DOCTYPE svg
PUBLIC "-//W3C//DTD SVG 1.1//EN"
       "http://www.w3.org/Graphics/SVG/1.1/DTD/svg11.dtd">
<svg version="1.1" xmlns="http://www.w3.org/2000/svg" xmlns:xlink="http://www.w3.org/1999/xlink" viewBox="0 0 28.2461 27.9043">
 <g>
  <rect height="27.9043" opacity="0" width="28.2461" x="0" y="0"/>
  <path d="M27.8906 13.9453C27.8906 21.6289 21.6426 27.8906 13.9453 27.8906C6.26172 27.8906 0 21.6289 0 13.9453C0 6.24805 6.26172 0 13.9453 0C21.6426 0 27.8906 6.24805 27.8906 13.9453ZM5.11328 14.041C5.11328 15.5039 6.30273 16.707 7.76562 16.707C9.25586 16.707 10.4316 15.5039 10.4316 14.041C10.4316 12.5781 9.25586 11.375 7.76562 11.375C6.30273 11.375 5.11328 12.5781 5.11328 14.041ZM17.459 14.041C17.459 15.5039 18.6348 16.707 20.125 16.707C21.5879 16.707 22.7773 15.5039 22.7773 14.041C22.7773 12.5781 21.5879 11.375 20.125 11.375C18.6348 11.375 17.459 12.5781 17.459 14.041ZM12.1406 7.46484C12.1406 8.44922 12.9609 9.26953 13.9453 9.26953C14.9297 9.26953 15.75 8.44922 15.75 7.46484C15.75 6.48047 14.9297 5.66016 13.9453 5.66016C12.9609 5.66016 12.1406 6.48047 12.1406 7.46484Z" fill="white" fill-opacity="0.85"/>
 </g>
</svg>
