<svg version="1.1" xmlns="http://www.w3.org/2000/svg" xmlns:xlink="http://www.w3.org/1999/xlink" viewBox="0 0 25.5254 25.1699">
 <g>
  
  <path d="M4.29297 25.1699L20.877 25.1699C23.748 25.1699 25.1699 23.7617 25.1699 20.9453L25.1699 4.23828C25.1699 1.42188 23.748 0 20.877 0L4.29297 0C1.43555 0 0 1.42188 0 4.23828L0 20.9453C0 23.7617 1.43555 25.1699 4.29297 25.1699ZM4.32031 22.9688C2.95312 22.9688 2.20117 22.2441 2.20117 20.8223L2.20117 4.36133C2.20117 2.93945 2.95312 2.20117 4.32031 2.20117L20.8496 2.20117C22.2031 2.20117 22.9688 2.93945 22.9688 4.36133L22.9688 20.8223C22.9688 22.2441 22.2031 22.9688 20.8496 22.9688Z" style="fill:var(--color-0,hsl(0 0 0/0.85))"></path>
  <path d="M12.5918 19.7559C16.5703 19.7559 19.7559 16.5566 19.7559 12.5781C19.7559 8.59961 16.5703 5.40039 12.5918 5.40039C8.59961 5.40039 5.41406 8.59961 5.41406 12.5781C5.41406 16.5566 8.59961 19.7559 12.5918 19.7559ZM12.5918 10.0078C12.0039 10.0078 11.5527 9.54297 11.5527 8.96875C11.5527 8.38086 12.0039 7.91602 12.5918 7.91602C13.166 7.91602 13.6309 8.38086 13.6309 8.96875C13.6309 9.54297 13.166 10.0078 12.5918 10.0078ZM8.98242 14.2051C8.10742 14.2051 7.36914 13.4805 7.36914 12.6055C7.36914 11.7305 8.10742 11.0059 8.98242 11.0059C9.85742 11.0059 10.582 11.7305 10.582 12.6055C10.582 13.4805 9.85742 14.2051 8.98242 14.2051ZM16.2012 14.1777C15.3262 14.1777 14.5879 13.4531 14.5879 12.5781C14.5879 11.7031 15.3262 10.9785 16.2012 10.9785C17.0625 10.9785 17.8008 11.7031 17.8008 12.5781C17.8008 13.4531 17.0625 14.1777 16.2012 14.1777Z" style="fill:var(--color-1,hsl(0 0 0/0.85))"></path>
 </g>
</svg>