<svg version="1.1" xmlns="http://www.w3.org/2000/svg" xmlns:xlink="http://www.w3.org/1999/xlink" viewBox="0 0 25.5254 25.1699">
 <g>
  
  <path d="M4.29297 25.1699L20.877 25.1699C23.748 25.1699 25.1699 23.7617 25.1699 20.9453L25.1699 4.23828C25.1699 1.42188 23.748 0 20.877 0L4.29297 0C1.43555 0 0 1.42188 0 4.23828L0 20.9453C0 23.7617 1.43555 25.1699 4.29297 25.1699Z" style="fill:var(--color-0,hsl(0 0 0/0.85))"></path>
  <path d="M12.5918 19.9883C8.47656 19.9883 5.18164 16.6797 5.18164 12.5781C5.18164 8.47656 8.47656 5.16797 12.5918 5.16797C16.6934 5.16797 19.9883 8.47656 19.9883 12.5781C19.9883 16.6797 16.6934 19.9883 12.5918 19.9883ZM9.07812 14.2324C9.99414 14.2324 10.7324 13.4805 10.7324 12.5781C10.7324 11.6758 9.99414 10.9238 9.07812 10.9238C8.17578 10.9238 7.42383 11.6758 7.42383 12.5781C7.42383 13.4805 8.17578 14.2324 9.07812 14.2324ZM16.0918 14.2324C16.9941 14.2324 17.7461 13.4805 17.7461 12.5781C17.7461 11.6758 16.9941 10.9238 16.0918 10.9238C15.1895 10.9238 14.4375 11.6758 14.4375 12.5781C14.4375 13.4805 15.1895 14.2324 16.0918 14.2324ZM12.5781 18.1699C13.3984 18.1699 14.0273 17.5547 14.0273 16.7344L14.0273 16.1055C14.0273 15.832 13.9043 15.6953 13.6172 15.6953L11.5527 15.6953C11.2656 15.6953 11.1426 15.832 11.1426 16.1055L11.1426 16.7344C11.1426 17.5547 11.7578 18.1699 12.5781 18.1699Z" style="fill:var(--color-1,white)"></path>
 </g>
</svg>