<svg version="1.1" xmlns="http://www.w3.org/2000/svg" xmlns:xlink="http://www.w3.org/1999/xlink" viewBox="0 0 25.5254 25.1699">
 <g>
  
  <path d="M4.29297 25.1699L20.877 25.1699C23.748 25.1699 25.1699 23.7617 25.1699 20.9453L25.1699 4.23828C25.1699 1.42188 23.748 0 20.877 0L4.29297 0C1.43555 0 0 1.42188 0 4.23828L0 20.9453C0 23.7617 1.43555 25.1699 4.29297 25.1699Z" style="fill:var(--color-0,hsl(0 0 0/0.85))"></path>
  <path d="M4.52539 13.8906L4.52539 11.2793C4.52539 10.7461 4.89453 10.3906 5.42773 10.3906L6.04297 10.3906L6.04297 9.70703C6.04297 7.28711 9.1875 5.05859 12.5918 5.05859C15.9824 5.05859 19.127 7.28711 19.127 9.70703L19.127 10.3906L19.7422 10.3906C20.2754 10.3906 20.6445 10.7461 20.6445 11.2793L20.6445 13.8906C20.6445 14.4238 20.2754 14.7793 19.7422 14.7793L19.127 14.7793L19.127 15.4492C19.127 17.8828 15.9824 20.1113 12.5918 20.1113C9.1875 20.1113 6.04297 17.8828 6.04297 15.4492L6.04297 14.7793L5.42773 14.7793C4.89453 14.7793 4.52539 14.4238 4.52539 13.8906ZM9.07812 14.2324C9.99414 14.2324 10.7324 13.4941 10.7324 12.5781C10.7324 11.6758 9.99414 10.9375 9.07812 10.9375C8.17578 10.9375 7.42383 11.6758 7.42383 12.5781C7.42383 13.4941 8.17578 14.2324 9.07812 14.2324ZM16.0918 14.2324C16.9941 14.2324 17.7461 13.4941 17.7461 12.5781C17.7461 11.6758 16.9941 10.9375 16.0918 10.9375C15.1895 10.9375 14.4375 11.6758 14.4375 12.5781C14.4375 13.4941 15.1895 14.2324 16.0918 14.2324Z" style="fill:var(--color-1,white)"></path>
 </g>
</svg>