<svg version="1.1" xmlns="http://www.w3.org/2000/svg" xmlns:xlink="http://www.w3.org/1999/xlink" viewBox="0 0 28.2461 29.4902">
 <g>
  
  <path d="M13.9453 28.6836C21.6426 28.6836 27.8906 22.4355 27.8906 14.7383C27.8906 10.418 26.0039 6.87695 23.3652 4.48438C22.1621 3.37695 20.6035 5.04492 21.8066 6.16602C24.1309 8.29883 25.5664 11.334 25.5664 14.7383C25.5664 21.1641 20.3711 26.3594 13.9453 26.3594C7.51953 26.3594 2.32422 21.1641 2.32422 14.7383C2.32422 11.3066 3.77344 8.28516 6.08398 6.15234C7.30078 5.01758 5.75586 3.41797 4.53906 4.49805C1.87305 6.83594 0 10.541 0 14.7383C0 22.4355 6.24805 28.6836 13.9453 28.6836ZM13.9453 14.6016C14.6016 14.6016 15.0527 14.123 15.0527 13.4395L15.0527 1.16211C15.0527 0.464844 14.6016 0 13.9453 0C13.2891 0 12.8516 0.464844 12.8516 1.16211L12.8516 13.4395C12.8516 14.123 13.2891 14.6016 13.9453 14.6016Z" style="fill:var(--color-0,hsl(0 0 0/0.85))"></path>
 </g>
</svg>