<svg version="1.1" xmlns="http://www.w3.org/2000/svg" xmlns:xlink="http://www.w3.org/1999/xlink" viewBox="0 0 28.2461 27.9043">
 <g>
  
  <path d="M13.9453 27.8906C21.6426 27.8906 27.8906 21.6426 27.8906 13.9453C27.8906 6.24805 21.6426 0 13.9453 0C6.24805 0 0 6.24805 0 13.9453C0 21.6426 6.24805 27.8906 13.9453 27.8906ZM13.9453 25.5664C7.51953 25.5664 2.32422 20.3711 2.32422 13.9453C2.32422 7.51953 7.51953 2.32422 13.9453 2.32422C20.3711 2.32422 25.5664 7.51953 25.5664 13.9453C25.5664 20.3711 20.3711 25.5664 13.9453 25.5664Z" style="fill:var(--color-0,hsl(0 0 0/0.85))"></path>
  <path d="M8.02539 15.873C9.46094 15.873 10.6094 14.7109 10.6094 13.2891C10.6094 11.8672 9.46094 10.7051 8.02539 10.7051C6.60352 10.7051 5.45508 11.8672 5.45508 13.2891C5.45508 14.7109 6.60352 15.873 8.02539 15.873ZM19.8652 15.873C21.2871 15.873 22.4355 14.7109 22.4355 13.2891C22.4355 11.8672 21.2871 10.7051 19.8652 10.7051C18.4297 10.7051 17.2812 11.8672 17.2812 13.2891C17.2812 14.7109 18.4297 15.873 19.8652 15.873ZM13.9453 22.2441C15.3672 22.2441 16.5293 21.0957 16.5293 19.6738C16.5293 18.2383 15.3672 17.0898 13.9453 17.0898C12.5234 17.0898 11.3613 18.2383 11.3613 19.6738C11.3613 21.0957 12.5234 22.2441 13.9453 22.2441Z" style="fill:var(--color-1,hsl(0 0 0/0.85))"></path>
 </g>
</svg>