<svg version="1.1" xmlns="http://www.w3.org/2000/svg" xmlns:xlink="http://www.w3.org/1999/xlink" viewBox="0 0 34.4531 20.7129">
 <g>
  
  <path d="M0 8.50391L0 12.0586C0 13.6855 0.861328 14.5332 2.48828 14.5332L8.4082 14.5332C10.0762 14.5332 10.9785 15.4219 12.0449 16.8574C13.8359 19.291 16.6113 20.5625 19.5098 20.5625L23.3926 20.5625C25.0195 20.5625 25.8672 19.7285 25.8672 18.1016L25.8672 16.748L32.1836 16.748C33.25 16.748 34.0977 15.9004 34.0977 14.8613C34.0977 13.7812 33.25 12.9336 32.1836 12.9336L25.8672 12.9336L25.8672 7.62891L32.1836 7.62891C33.25 7.62891 34.0977 6.76758 34.0977 5.72852C34.0977 4.67578 33.25 3.81445 32.1836 3.81445L25.8672 3.81445L25.8672 2.43359C25.8672 0.806641 25.0195 0 23.3926 0L19.5098 0C16.6113 0 13.8359 1.24414 12.0449 3.70508C10.9785 5.1543 10.0762 6.0293 8.4082 6.0293L2.48828 6.0293C0.861328 6.0293 0 6.83594 0 8.50391Z" style="fill:var(--color-0,hsl(0 0 0/0.85))"></path>
 </g>
</svg>