<svg version="1.1" xmlns="http://www.w3.org/2000/svg" xmlns:xlink="http://www.w3.org/1999/xlink" viewBox="0 0 29.6543 23.5293">
 <g>
  
  <path d="M24.6504 1.01172C27.5762 3.78711 29.2988 7.80664 29.2988 11.7578C29.2988 15.709 27.5762 19.7285 24.6504 22.5039C23.9668 23.1602 23.0371 23.502 22.0391 23.502L7.24609 23.502C6.24805 23.502 5.33203 23.1602 4.64844 22.5039C1.72266 19.7285 0 15.709 0 11.7578C0 7.86133 1.69531 3.88281 4.51172 1.12109C5.22266 0.396484 6.20703 0 7.24609 0L22.0391 0C23.0371 0 23.9668 0.355469 24.6504 1.01172ZM7.5332 7.4375L7.5332 16.2285C7.5332 16.9395 8.05273 17.459 8.76367 17.459C9.46094 17.459 10.0215 16.9395 10.0215 16.2285L10.0215 7.4375C10.0215 6.74023 9.46094 6.16602 8.76367 6.16602C8.05273 6.16602 7.5332 6.74023 7.5332 7.4375ZM19.2773 7.45117L19.2773 16.2012C19.2773 16.8984 19.8105 17.459 20.5215 17.459C21.2324 17.459 21.7656 16.9121 21.7656 16.2012L21.7656 7.45117C21.7656 6.74023 21.2324 6.16602 20.5215 6.16602C19.8105 6.16602 19.2773 6.74023 19.2773 7.45117Z" style="fill:var(--color-0,hsl(0 0 0/0.85))"></path>
 </g>
</svg>