<?xml version="1.0" encoding="UTF-8"?>
<!--Generator: Apple Native CoreSVG 326-->
<!DOCTYPE svg
PUBLIC "-//W3C//DTD SVG 1.1//EN"
       "http://www.w3.org/Graphics/SVG/1.1/DTD/svg11.dtd">
<svg version="1.1" xmlns="http://www.w3.org/2000/svg" xmlns:xlink="http://www.w3.org/1999/xlink" viewBox="0 0 25.5254 25.1699">
 <g>
  <rect height="25.1699" opacity="0" width="25.5254" x="0" y="0"/>
  <path d="M4.29297 25.1699L20.877 25.1699C23.748 25.1699 25.1699 23.7617 25.1699 20.9453L25.1699 4.23828C25.1699 1.42188 23.748 0 20.877 0L4.29297 0C1.43555 0 0 1.42188 0 4.23828L0 20.9453C0 23.7617 1.43555 25.1699 4.29297 25.1699Z" fill="white" fill-opacity="0.85"/>
  <path d="M10.1172 20.7812C9.35156 20.7812 8.79102 20.2207 8.79102 19.4414L8.79102 5.71484C8.79102 4.94922 9.35156 4.38867 10.1172 4.38867L15.0527 4.38867C15.8184 4.38867 16.3789 4.94922 16.3789 5.71484L16.3789 19.4414C16.3789 20.2207 15.8184 20.7812 15.0527 20.7812ZM12.5918 9.40625C13.3711 9.40625 14.0137 8.76367 14.0137 7.98438C14.0137 7.19141 13.3711 6.54883 12.5918 6.54883C11.7988 6.54883 11.1562 7.19141 11.1562 7.98438C11.1562 8.76367 11.7988 9.40625 12.5918 9.40625ZM12.5918 14C13.3711 14 14.0137 13.3711 14.0137 12.5781C14.0137 11.7852 13.3711 11.1562 12.5918 11.1562C11.7988 11.1562 11.1562 11.7852 11.1562 12.5781C11.1562 13.3711 11.7988 14 12.5918 14ZM12.5918 18.6074C13.3711 18.6074 14.0137 17.9648 14.0137 17.1719C14.0137 16.3789 13.3711 15.75 12.5918 15.75C11.7988 15.75 11.1562 16.3789 11.1562 17.1719C11.1562 17.9648 11.7988 18.6074 12.5918 18.6074Z" fill="white"/>
 </g>
</svg>
