<svg version="1.1" xmlns="http://www.w3.org/2000/svg" xmlns:xlink="http://www.w3.org/1999/xlink" viewBox="0 0 25.5254 25.1699">
 <g>
  
  <path d="M4.29297 25.1699L20.877 25.1699C23.748 25.1699 25.1699 23.7617 25.1699 20.9453L25.1699 4.23828C25.1699 1.42188 23.748 0 20.877 0L4.29297 0C1.43555 0 0 1.42188 0 4.23828L0 20.9453C0 23.7617 1.43555 25.1699 4.29297 25.1699ZM4.32031 22.9688C2.95312 22.9688 2.20117 22.2441 2.20117 20.8223L2.20117 4.36133C2.20117 2.93945 2.95312 2.20117 4.32031 2.20117L20.8496 2.20117C22.2031 2.20117 22.9688 2.93945 22.9688 4.36133L22.9688 20.8223C22.9688 22.2441 22.2031 22.9688 20.8496 22.9688Z" style="fill:var(--color-0,hsl(0 0 0/0.85))"></path>
  <path d="M7.24609 18.9902L17.9238 18.9902C18.6621 18.9902 19.209 18.4434 19.209 17.7051L19.209 7.45117C19.209 6.71289 18.6621 6.16602 17.9238 6.16602L7.24609 6.16602C6.50781 6.16602 5.96094 6.71289 5.96094 7.45117L5.96094 17.7051C5.96094 18.4434 6.50781 18.9902 7.24609 18.9902ZM12.6055 11.6484C11.8398 11.6484 11.2109 11.0332 11.2109 10.2676C11.2109 9.50195 11.8398 8.90039 12.6055 8.90039C13.3574 8.90039 13.9863 9.50195 13.9863 10.2676C13.9863 11.0332 13.3574 11.6484 12.6055 11.6484ZM9.61133 16.2559C8.85938 16.2559 8.23047 15.6543 8.23047 14.8887C8.23047 14.1094 8.85938 13.4941 9.61133 13.4941C10.377 13.4941 11.0059 14.1094 11.0059 14.8887C11.0059 15.6543 10.377 16.2559 9.61133 16.2559ZM15.5859 16.2559C14.8203 16.2559 14.1914 15.6543 14.1914 14.8887C14.1914 14.1094 14.8203 13.4941 15.5859 13.4941C16.3516 13.4941 16.9668 14.1094 16.9668 14.8887C16.9668 15.6543 16.3516 16.2559 15.5859 16.2559Z" style="fill:var(--color-1,hsl(0 0 0/0.85))"></path>
 </g>
</svg>