<svg version="1.1" xmlns="http://www.w3.org/2000/svg" xmlns:xlink="http://www.w3.org/1999/xlink" viewBox="0 0 37.0781 19.1543">
 <g>
  
  <path d="M10.0625 0C8.18945 0 7.0957 0.792969 5.75586 2.1875L1.05273 7.17773C-0.355469 8.64062-0.341797 10.377 1.03906 11.8535L5.74219 16.9258C6.95898 18.2246 8.3125 19.127 10.0625 19.127L26.6602 19.127C28.4102 19.127 29.75 18.2246 30.9805 16.9258L35.6699 11.8535C37.0508 10.377 37.0781 8.64062 35.6699 7.17773L30.9668 2.1875C29.6133 0.792969 28.5332 0 26.6602 0ZM10.0625 2.20117L26.6602 2.20117C27.8496 2.20117 28.3418 2.59766 29.2305 3.51367L33.9336 8.46289C34.6582 9.21484 34.6582 9.84375 33.9473 10.582L29.2305 15.5996C28.4512 16.4062 27.7266 16.9258 26.6602 16.9258L10.0625 16.9258C8.98242 16.9258 8.27148 16.4062 7.49219 15.5996L2.77539 10.582C2.05078 9.84375 2.05078 9.21484 2.78906 8.46289L7.49219 3.51367C8.38086 2.59766 8.85938 2.20117 10.0625 2.20117Z" style="fill:var(--color-0,hsl(0 0 0/0.85))"></path>
  <path d="M9.26953 7.17773C7.9707 7.17773 6.9043 8.25781 6.9043 9.55664C6.9043 10.8555 7.9707 11.9355 9.26953 11.9355C10.582 11.9355 11.6484 10.8555 11.6484 9.55664C11.6484 8.25781 10.582 7.17773 9.26953 7.17773ZM18.375 9.61133C17.0625 9.61133 15.9961 10.6914 15.9961 11.9902C15.9961 13.2891 17.0625 14.3691 18.375 14.3691C19.6738 14.3691 20.7402 13.2891 20.7402 11.9902C20.7402 10.6914 19.6738 9.61133 18.375 9.61133ZM27.4668 7.17773C26.168 7.17773 25.0879 8.25781 25.0879 9.55664C25.0879 10.8555 26.168 11.9355 27.4668 11.9355C28.7656 11.9355 29.8457 10.8555 29.8457 9.55664C29.8457 8.25781 28.7656 7.17773 27.4668 7.17773Z" style="fill:var(--color-1,hsl(0 0 0/0.85))"></path>
 </g>
</svg>