<svg version="1.1" xmlns="http://www.w3.org/2000/svg" xmlns:xlink="http://www.w3.org/1999/xlink" viewBox="0 0 53.8672 17.9785">
 <g>
  
  <path d="M3.99219 15.9414L38.1719 15.9414C40.4824 15.9414 42.1641 14.2461 42.1641 11.9492L42.1641 4.00586C42.1641 1.70898 40.4824 0 38.1719 0L3.99219 0C1.68164 0 0 1.69531 0 4.00586L0 11.9492C0 14.2598 1.68164 15.9414 3.99219 15.9414ZM3.99219 13.877C2.84375 13.877 2.06445 13.084 2.06445 11.9492L2.06445 4.00586C2.06445 2.85742 2.84375 2.06445 3.99219 2.06445L38.1719 2.06445C39.3066 2.06445 40.0996 2.85742 40.0996 4.00586L40.0996 11.9492C40.0996 13.084 39.3066 13.877 38.1719 13.877ZM41.2754 12.8105L43.668 12.8105C44.6113 12.8105 45.3086 12.127 45.3086 11.1836L45.3086 4.75781C45.3086 3.81445 44.6113 3.13086 43.668 3.13086L41.2754 3.13086L41.2754 4.92188L42.9297 4.92188C43.2715 4.92188 43.5176 5.1543 43.5176 5.49609L43.5176 10.4316C43.5176 10.7871 43.2715 11.0195 42.9297 11.0195L41.2754 11.0195ZM44.6387 9.11914L53.5117 9.11914L53.5117 6.91797L44.6387 6.91797Z" style="fill:var(--color-0,hsl(0 0 0/0.85))"></path>
  <path d="M5.37305 11.0742L6.30273 11.0742C6.68555 11.0742 6.95898 10.8008 6.95898 10.4043L6.95898 5.52344C6.95898 5.09961 6.68555 4.83984 6.30273 4.83984L5.37305 4.83984C4.96289 4.83984 4.70312 5.09961 4.70312 5.52344L4.70312 10.4043C4.70312 10.8008 4.96289 11.0742 5.37305 11.0742ZM13.5898 12.1816C15.9141 12.1816 17.8008 10.3086 17.8008 7.9707C17.8008 5.66016 15.9141 3.75977 13.5898 3.75977C11.2656 3.75977 9.37891 5.66016 9.37891 7.9707C9.37891 10.3086 11.2656 12.1816 13.5898 12.1816ZM12.0449 10.1855C11.7168 10.1855 11.4434 9.91211 11.4434 9.59766L11.4434 6.35742C11.4434 6.04297 11.7168 5.75586 12.0449 5.75586C12.3594 5.75586 12.6191 6.0293 12.6191 6.35742L12.6191 9.59766C12.6191 9.92578 12.3594 10.1855 12.0449 10.1855ZM15.1348 10.1855C14.8066 10.1855 14.5332 9.92578 14.5332 9.59766L14.5332 6.35742C14.5332 6.0293 14.793 5.75586 15.1348 5.75586C15.4629 5.75586 15.709 6.0293 15.709 6.35742L15.709 9.59766C15.709 9.92578 15.4629 10.1855 15.1348 10.1855ZM23.7344 12.1816C26.0586 12.1816 27.959 10.3086 27.959 7.9707C27.959 5.66016 26.0586 3.75977 23.7344 3.75977C21.4102 3.75977 19.5371 5.66016 19.5371 7.9707C19.5371 10.3086 21.4102 12.1816 23.7344 12.1816ZM22.1758 10.1855C21.8613 10.1855 21.5879 9.92578 21.5879 9.59766L21.5879 6.35742C21.5879 6.04297 21.8613 5.75586 22.1758 5.75586C22.5176 5.75586 22.7773 6.0293 22.7773 6.35742L22.7773 9.59766C22.7773 9.92578 22.5176 10.1855 22.1758 10.1855ZM25.2793 10.1855C24.9512 10.1855 24.6777 9.92578 24.6777 9.59766L24.6777 6.35742C24.6777 6.0293 24.9512 5.75586 25.2793 5.75586C25.6074 5.75586 25.8672 6.0293 25.8672 6.35742L25.8672 9.59766C25.8672 9.92578 25.5938 10.1855 25.2793 10.1855ZM33.8789 12.1816C36.2031 12.1816 38.0898 10.3086 38.0898 7.9707C38.0898 5.66016 36.2031 3.75977 33.8789 3.75977C31.5547 3.75977 29.6816 5.66016 29.6816 7.9707C29.6816 10.3086 31.5547 12.1816 33.8789 12.1816ZM32.334 10.1855C32.0059 10.1855 31.7324 9.92578 31.7324 9.59766L31.7324 6.35742C31.7324 6.04297 32.0059 5.75586 32.334 5.75586C32.6621 5.75586 32.9219 6.0293 32.9219 6.35742L32.9219 9.59766C32.9219 9.92578 32.6484 10.1855 32.334 10.1855ZM35.4238 10.1855C35.0957 10.1855 34.8223 9.92578 34.8223 9.59766L34.8223 6.35742C34.8223 6.0293 35.082 5.75586 35.4238 5.75586C35.752 5.75586 35.998 6.0293 35.998 6.35742L35.998 9.59766C35.998 9.92578 35.752 10.1855 35.4238 10.1855Z" style="fill:var(--color-1,hsl(0 0 0/0.85))"></path>
 </g>
</svg>