<?xml version="1.0" encoding="UTF-8"?>
<!--Generator: Apple Native CoreSVG 326-->
<!DOCTYPE svg
PUBLIC "-//W3C//DTD SVG 1.1//EN"
       "http://www.w3.org/Graphics/SVG/1.1/DTD/svg11.dtd">
<svg version="1.1" xmlns="http://www.w3.org/2000/svg" xmlns:xlink="http://www.w3.org/1999/xlink" viewBox="0 0 27.5215 28.4512">
 <g>
  <rect height="28.4512" opacity="0" width="27.5215" x="0" y="0"/>
  <path d="M13.5898 2.84375C14.3691 2.84375 14.998 2.20117 14.998 1.42188C14.998 0.628906 14.3691 0 13.5898 0C12.7969 0 12.168 0.628906 12.168 1.42188C12.168 2.20117 12.7969 2.84375 13.5898 2.84375ZM13.5898 9.1875C14.3691 9.1875 14.998 8.55859 14.998 7.7793C14.998 6.98633 14.3691 6.35742 13.5898 6.35742C12.7969 6.35742 12.168 6.98633 12.168 7.7793C12.168 8.55859 12.7969 9.1875 13.5898 9.1875ZM13.5898 15.5586C14.3691 15.5586 14.998 14.916 14.998 14.1367C14.998 13.3438 14.3691 12.7148 13.5898 12.7148C12.7969 12.7148 12.168 13.3438 12.168 14.1367C12.168 14.916 12.7969 15.5586 13.5898 15.5586ZM4.0332 8.49023C4.82617 8.49023 5.45508 7.86133 5.45508 7.06836C5.45508 6.28906 4.82617 5.66016 4.0332 5.66016C3.24023 5.66016 2.61133 6.28906 2.61133 7.06836C2.61133 7.86133 3.24023 8.49023 4.0332 8.49023ZM1.42188 14.752C2.21484 14.752 2.84375 14.123 2.84375 13.3438C2.84375 12.5508 2.21484 11.9219 1.42188 11.9219C0.628906 11.9219 0 12.5508 0 13.3438C0 14.123 0.628906 14.752 1.42188 14.752ZM2.46094 21.123C3.25391 21.123 3.88281 20.4941 3.88281 19.7148C3.88281 18.9219 3.25391 18.293 2.46094 18.293C1.66797 18.293 1.03906 18.9219 1.03906 19.7148C1.03906 20.4941 1.66797 21.123 2.46094 21.123ZM6.83594 26.3867C7.61523 26.3867 8.25781 25.7578 8.25781 24.9785C8.25781 24.1855 7.61523 23.5566 6.83594 23.5566C6.04297 23.5566 5.41406 24.1855 5.41406 24.9785C5.41406 25.7578 6.04297 26.3867 6.83594 26.3867ZM13.5898 28.3965C14.3691 28.3965 14.998 27.7676 14.998 26.9746C14.998 26.1816 14.3691 25.5527 13.5898 25.5527C12.7969 25.5527 12.168 26.1816 12.168 26.9746C12.168 27.7676 12.7969 28.3965 13.5898 28.3965ZM20.3301 26.3867C21.123 26.3867 21.752 25.7578 21.752 24.9785C21.752 24.1855 21.123 23.5566 20.3301 23.5566C19.5508 23.5566 18.9219 24.1855 18.9219 24.9785C18.9219 25.7578 19.5508 26.3867 20.3301 26.3867ZM24.7051 21.123C25.498 21.123 26.127 20.4941 26.127 19.7148C26.127 18.9219 25.498 18.293 24.7051 18.293C23.9121 18.293 23.2832 18.9219 23.2832 19.7148C23.2832 20.4941 23.9121 21.123 24.7051 21.123ZM25.7441 14.752C26.5371 14.752 27.166 14.123 27.166 13.3438C27.166 12.5508 26.5371 11.9219 25.7441 11.9219C24.9648 11.9219 24.3223 12.5508 24.3223 13.3438C24.3223 14.123 24.9648 14.752 25.7441 14.752ZM23.1328 8.49023C23.9258 8.49023 24.5547 7.86133 24.5547 7.06836C24.5547 6.28906 23.9258 5.66016 23.1328 5.66016C22.3398 5.66016 21.7109 6.28906 21.7109 7.06836C21.7109 7.86133 22.3398 8.49023 23.1328 8.49023Z" fill="white" fill-opacity="0.85"/>
 </g>
</svg>
