<svg version="1.1" xmlns="http://www.w3.org/2000/svg" xmlns:xlink="http://www.w3.org/1999/xlink" viewBox="0 0 26.3867 25.1973">
 <g>
  
  <path d="M4.29297 25.1973L21.7383 25.1973C24.5957 25.1973 26.0312 23.7754 26.0312 20.959L26.0312 4.26562C26.0312 1.44922 24.5957 0.0273438 21.7383 0.0273438L4.29297 0.0273438C1.43555 0.0273438 0 1.43555 0 4.26562L0 20.959C0 23.7891 1.43555 25.1973 4.29297 25.1973ZM4.32031 22.9961C2.95312 22.9961 2.20117 22.2715 2.20117 20.8496L2.20117 4.375C2.20117 2.95312 2.95312 2.22852 4.32031 2.22852L21.6973 2.22852C23.0508 2.22852 23.8301 2.95312 23.8301 4.375L23.8301 20.8496C23.8301 22.2715 23.0508 22.9961 21.6973 22.9961Z" style="fill:var(--color-0,hsl(0 0 0/0.85))"></path>
  <path d="M12.4551 19.4551L13.5625 19.4551C14.0273 19.4551 14.3281 19.1543 14.3281 18.6758L14.3281 14.6836C14.3281 14.2188 14.0273 13.9043 13.5625 13.9043L12.4551 13.9043C12.0039 13.9043 11.6895 14.2188 11.6895 14.6836L11.6895 18.6758C11.6895 19.1406 11.9902 19.4551 12.4551 19.4551ZM5.96094 11.375L6.75391 12.1543C7.08203 12.4824 7.51953 12.4824 7.84766 12.1543L11.0469 8.95508C11.3887 8.61328 11.3887 8.18945 11.0469 7.86133L10.2676 7.06836C9.93945 6.75391 9.5293 6.75391 9.1875 7.08203L5.97461 10.2812C5.64648 10.6094 5.64648 11.0469 5.96094 11.375ZM19.2773 12.1543L20.0703 11.3613C20.3848 11.0469 20.3848 10.623 20.043 10.2812L16.8438 7.08203C16.5156 6.75391 16.0918 6.75391 15.7637 7.06836L14.9844 7.86133C14.6426 8.18945 14.6426 8.61328 14.9844 8.95508L18.1836 12.1543C18.5117 12.4824 18.9355 12.4824 19.2773 12.1543Z" style="fill:var(--color-1,hsl(0 0 0/0.85))"></path>
 </g>
</svg>