<svg version="1.1" xmlns="http://www.w3.org/2000/svg" xmlns:xlink="http://www.w3.org/1999/xlink" viewBox="0 0 26.3867 25.1973">
 <g>
  
  <path d="M26.0312 4.26562L26.0312 20.959C26.0312 23.7754 24.5957 25.1973 21.7383 25.1973L4.29297 25.1973C1.43555 25.1973 0 23.7891 0 20.959L0 4.26562C0 1.43555 1.43555 0.0273438 4.29297 0.0273438L21.7383 0.0273438C24.5957 0.0273438 26.0312 1.44922 26.0312 4.26562ZM6.24805 16.5293C5.75586 16.5293 5.45508 16.8574 5.45508 17.3223L5.45508 18.4707C5.45508 18.9492 5.75586 19.25 6.24805 19.25L9.91211 19.25C10.3906 19.25 10.7051 18.9492 10.7051 18.4707L10.7051 17.3223C10.7051 16.8438 10.3906 16.5293 9.91211 16.5293ZM16.1191 16.5293C15.6406 16.5293 15.3125 16.8438 15.3125 17.3223L15.3125 18.4707C15.3125 18.9492 15.6406 19.25 16.1191 19.25L19.7695 19.25C20.2754 19.25 20.5762 18.9492 20.5762 18.4707L20.5762 17.3223C20.5762 16.8574 20.2617 16.5293 19.7695 16.5293ZM12.4414 5.22266C11.9766 5.22266 11.6484 5.53711 11.6484 6.01562L11.6484 10.1309C11.6484 10.6094 11.9766 10.9375 12.4414 10.9375L13.5762 10.9375C14.0547 10.9375 14.3691 10.6094 14.3691 10.1309L14.3691 6.01562C14.3691 5.53711 14.0547 5.22266 13.5762 5.22266Z" style="fill:var(--color-0,hsl(0 0 0/0.85))"></path>
 </g>
</svg>