<svg version="1.1" xmlns="http://www.w3.org/2000/svg" xmlns:xlink="http://www.w3.org/1999/xlink" viewBox="0 0 28.2461 27.9043">
 <g>
  
  <path d="M13.9453 27.8906C21.6426 27.8906 27.8906 21.6426 27.8906 13.9453C27.8906 6.24805 21.6426 0 13.9453 0C6.24805 0 0 6.24805 0 13.9453C0 21.6426 6.24805 27.8906 13.9453 27.8906ZM13.9453 25.5664C7.51953 25.5664 2.32422 20.3711 2.32422 13.9453C2.32422 7.51953 7.51953 2.32422 13.9453 2.32422C20.3711 2.32422 25.5664 7.51953 25.5664 13.9453C25.5664 20.3711 20.3711 25.5664 13.9453 25.5664Z" style="fill:var(--color-0,hsl(0 0 0/0.85))"></path>
  <path d="M13.9453 9.33789C14.9023 9.33789 15.6953 8.54492 15.6953 7.58789C15.6953 6.63086 14.9023 5.83789 13.9453 5.83789C12.9883 5.83789 12.1953 6.63086 12.1953 7.58789C12.1953 8.54492 12.9883 9.33789 13.9453 9.33789ZM7.95703 16.5293C9.39258 16.5293 10.541 15.3672 10.541 13.9453C10.541 12.5234 9.39258 11.3613 7.95703 11.3613C6.53516 11.3613 5.38672 12.5234 5.38672 13.9453C5.38672 15.3672 6.53516 16.5293 7.95703 16.5293ZM19.9336 16.5293C21.3555 16.5293 22.5039 15.3672 22.5039 13.9453C22.5039 12.5234 21.3555 11.3613 19.9336 11.3613C18.498 11.3613 17.3496 12.5234 17.3496 13.9453C17.3496 15.3672 18.498 16.5293 19.9336 16.5293Z" style="fill:var(--color-1,hsl(0 0 0/0.85))"></path>
 </g>
</svg>