<svg version="1.1" xmlns="http://www.w3.org/2000/svg" xmlns:xlink="http://www.w3.org/1999/xlink" viewBox="0 0 39.9492 26.373">
 <g>
  
  <path d="M0 13.166C0 15.9551 1.96875 17.4863 4.18359 17.4863C5.11328 17.4863 5.81055 17.2266 6.64453 16.707C7.42383 16.2285 7.98438 16.5156 7.98438 17.1855L7.98438 22.2441C7.98438 24.9375 9.40625 26.3184 12.127 26.3184L15.7773 26.3184C16.4336 26.3184 16.7207 25.7715 16.2559 24.9922C15.7227 24.1582 15.4629 23.4609 15.4629 22.5312C15.4629 20.3164 17.0078 18.3477 19.7969 18.3477C22.5859 18.3477 24.1172 20.3164 24.1172 22.5312C24.1172 23.4609 23.8574 24.1582 23.3379 24.9922C22.873 25.7715 23.1465 26.3184 23.8164 26.3184L27.4668 26.3184C30.1875 26.3184 31.6094 24.9375 31.6094 22.2441L31.6094 17.1855C31.6094 16.5156 32.1699 16.2285 32.9355 16.707C33.7832 17.2266 34.4805 17.4863 35.3965 17.4863C37.625 17.4863 39.5938 15.9551 39.5938 13.166C39.5938 10.3633 37.625 8.83203 35.3965 8.83203C34.4805 8.83203 33.7832 9.0918 32.9355 9.61133C32.1699 10.0898 31.6094 9.80273 31.6094 9.13281L31.6094 4.07422C31.6094 1.39453 30.1875 0 27.4668 0L23.8164 0C23.1465 0 22.873 0.560547 23.3379 1.33984C23.8574 2.17383 24.1172 2.87109 24.1172 3.80078C24.1172 6.01562 22.5859 7.98438 19.7969 7.98438C17.0078 7.98438 15.4629 6.01562 15.4629 3.80078C15.4629 2.87109 15.7227 2.17383 16.2559 1.33984C16.7207 0.560547 16.4336 0 15.7773 0L12.127 0C9.40625 0 7.98438 1.39453 7.98438 4.07422L7.98438 9.13281C7.98438 9.80273 7.42383 10.0898 6.64453 9.61133C5.81055 9.0918 5.11328 8.83203 4.18359 8.83203C1.96875 8.83203 0 10.3633 0 13.166Z" style="fill:var(--color-0,hsl(0 0 0/0.85))"></path>
 </g>
</svg>