<?xml version="1.0" encoding="UTF-8"?>
<!--Generator: Apple Native CoreSVG 326-->
<!DOCTYPE svg
PUBLIC "-//W3C//DTD SVG 1.1//EN"
       "http://www.w3.org/Graphics/SVG/1.1/DTD/svg11.dtd">
<svg version="1.1" xmlns="http://www.w3.org/2000/svg" xmlns:xlink="http://www.w3.org/1999/xlink" viewBox="0 0 33.2637 26.4824">
 <g>
  <rect height="26.4824" opacity="0" width="33.2637" x="0" y="0"/>
  <path d="M0.683594 22.2988C0.683594 25.0059 2.07812 26.4277 4.77148 26.4277L21.6836 26.4277C24.4043 26.4277 25.8262 25.0332 25.8262 22.3535L25.8262 16.584C25.8262 16.3105 26.0449 16.1875 26.3184 16.4062C27.0703 16.9805 27.959 17.4453 29.1348 17.4453C31.459 17.4453 33.2637 15.6133 33.2637 13.2617C33.2637 10.9238 31.459 9.0918 29.1348 9.0918C27.959 9.0918 27.0703 9.55664 26.3184 10.1309C26.0449 10.3496 25.8262 10.2266 25.8262 9.95312L25.8262 4.07422C25.8262 1.39453 24.4043 0 21.6836 0L4.77148 0C2.07812 0 0.683594 1.42188 0.683594 4.12891L0.683594 9.99414C0.683594 10.8828 1.38086 11.4707 2.20117 11.4707C2.65234 11.4707 3.13086 11.2793 3.55469 10.8691C4.19727 10.2676 4.99023 9.50195 6.57617 9.50195C8.64062 9.50195 10.2676 11.1426 10.2676 13.2344C10.2676 15.3262 8.64062 16.9668 6.57617 16.9668C4.99023 16.9668 4.19727 16.1875 3.55469 15.5859C3.13086 15.1895 2.65234 14.998 2.20117 14.998C1.38086 14.998 0.683594 15.5859 0.683594 16.4746Z" fill="white" fill-opacity="0.85"/>
 </g>
</svg>
