<svg version="1.1" xmlns="http://www.w3.org/2000/svg" xmlns:xlink="http://www.w3.org/1999/xlink" viewBox="0 0 34.1523 26.4824">
 <g>
  
  <path d="M0.683594 22.3125C0.683594 25.0195 2.11914 26.4277 4.86719 26.4277L21.6699 26.4277C24.4043 26.4277 25.8398 25.0195 25.8398 22.3125L25.8398 17.4863C25.8398 17.2676 25.9902 17.1582 26.25 17.3359C27.1113 17.9512 28.1094 18.3887 29.2578 18.3887C31.8418 18.3887 34.1523 16.3105 34.1523 13.2617C34.1523 10.2266 31.8418 8.14844 29.2578 8.14844C28.1094 8.14844 27.1113 8.58594 26.25 9.20117C25.9902 9.37891 25.8398 9.26953 25.8398 9.05078L25.8398 4.11523C25.8398 1.4082 24.4043 0 21.6699 0L4.86719 0C2.11914 0 0.683594 1.4082 0.683594 4.11523L0.683594 10.1582C0.683594 11.3066 1.43555 11.9902 2.37891 11.9902C2.89844 11.9902 3.43164 11.7715 3.96484 11.2793C4.63477 10.6777 5.38672 10.3086 6.19336 10.3086C7.75195 10.3086 9.06445 11.4707 9.06445 13.2344C9.06445 14.998 7.75195 16.1602 6.19336 16.1602C5.38672 16.1602 4.63477 15.7773 3.96484 15.1758C3.43164 14.6973 2.89844 14.4785 2.37891 14.4785C1.43555 14.4785 0.683594 15.1621 0.683594 16.2969ZM2.88477 22.2031L2.88477 17.6504C2.88477 17.0078 3.21289 17.2539 3.47266 17.418C4.30664 17.9512 5.22266 18.3477 6.30273 18.3477C8.87305 18.3477 11.1973 16.2832 11.1973 13.2344C11.1973 10.1855 8.87305 8.12109 6.30273 8.12109C5.22266 8.12109 4.30664 8.51758 3.47266 9.05078C3.21289 9.21484 2.88477 9.46094 2.88477 8.81836L2.88477 4.22461C2.88477 2.92578 3.63672 2.20117 4.9082 2.20117L21.6289 2.20117C22.9004 2.20117 23.6387 2.92578 23.6387 4.22461L23.6387 10.1582C23.6387 11.3066 24.3906 12.0312 25.334 12.0312C25.8535 12.0312 26.3867 11.8125 26.9199 11.3203C27.5898 10.7188 28.3418 10.3359 29.1484 10.3359C30.707 10.3359 32.0195 11.498 32.0195 13.2617C32.0195 15.0391 30.707 16.2012 29.1484 16.2012C28.3418 16.2012 27.5898 15.8184 26.9199 15.2168C26.3867 14.7246 25.8535 14.5059 25.334 14.5059C24.3906 14.5059 23.6387 15.2305 23.6387 16.3789L23.6387 22.2031C23.6387 23.5156 22.9004 24.2266 21.6289 24.2266L4.9082 24.2266C3.63672 24.2266 2.88477 23.5156 2.88477 22.2031Z" style="fill:var(--color-0,hsl(0 0 0/0.85))"></path>
 </g>
</svg>