<svg version="1.1" xmlns="http://www.w3.org/2000/svg" xmlns:xlink="http://www.w3.org/1999/xlink" viewBox="0 0 28.2461 27.9043">
 <g>
  
  <path d="M13.9453 27.8906C21.6426 27.8906 27.8906 21.6289 27.8906 13.9453C27.8906 6.24805 21.6426 0 13.9453 0C6.26172 0 0 6.24805 0 13.9453C0 21.6289 6.26172 27.8906 13.9453 27.8906Z" style="fill:var(--color-0,hsl(0 0 0/0.85))"></path>
  <path d="M13.9453 20.5625C10.3359 20.5625 7.83398 17.7734 7.83398 13.8086C7.83398 9.83008 10.3359 7.05469 13.9453 7.05469C17.5547 7.05469 20.0566 9.83008 20.0566 13.8086C20.0566 16.1602 19.1816 18.0742 17.7324 19.2363L18.5801 20.3711C18.8398 20.7266 18.9082 20.8906 18.9082 21.1504C18.9082 21.6426 18.5801 21.9844 18.0742 21.9844C17.7188 21.9844 17.459 21.8477 17.1855 21.4648L16.2012 20.1523C15.5176 20.4121 14.7656 20.5625 13.9453 20.5625ZM13.9453 18.7715C14.3555 18.7715 14.7246 18.7168 15.0664 18.6074L14.3828 17.6641C14.1777 17.4043 14.1094 17.1992 14.1094 16.9531C14.1094 16.502 14.4922 16.1465 14.957 16.1465C15.2852 16.1465 15.5039 16.2559 15.7227 16.543L16.5293 17.623C17.3359 16.7754 17.8008 15.4492 17.8008 13.8086C17.8008 10.8008 16.2695 8.8457 13.9453 8.8457C11.6211 8.8457 10.1035 10.8008 10.1035 13.8086C10.1035 16.8164 11.6211 18.7715 13.9453 18.7715Z" style="fill:var(--color-1,white)"></path>
 </g>
</svg>