<?xml version="1.0" encoding="UTF-8"?>
<!--Generator: Apple Native CoreSVG 326-->
<!DOCTYPE svg
PUBLIC "-//W3C//DTD SVG 1.1//EN"
       "http://www.w3.org/Graphics/SVG/1.1/DTD/svg11.dtd">
<svg version="1.1" xmlns="http://www.w3.org/2000/svg" xmlns:xlink="http://www.w3.org/1999/xlink" viewBox="0 0 30.4883 30.2012">
 <g>
  <rect height="30.2012" opacity="0" width="30.4883" x="0" y="0"/>
  <path d="M30.1328 8.09375L30.1328 18.5664C30.1328 22.5723 27.9453 24.8145 23.8711 24.8145L14.6289 24.8145L9.69336 29.3262C9.05078 29.9277 8.6543 30.2012 8.12109 30.2012C7.3418 30.2012 6.9043 29.6406 6.9043 28.793L6.9043 24.8145L6.26172 24.8145C2.1875 24.8145 0 22.5859 0 18.5664L0 8.09375C0 4.07422 2.1875 1.83203 6.26172 1.83203L23.8711 1.83203C27.9453 1.83203 30.1328 4.08789 30.1328 8.09375ZM13.2344 18.9766C13.2344 19.7969 13.9453 20.4395 14.752 20.4395C15.5723 20.4395 16.2832 19.8105 16.2832 18.9766C16.2832 18.1562 15.5859 17.5137 14.752 17.5137C13.9316 17.5137 13.2344 18.1699 13.2344 18.9766ZM10.8145 8.54492C10.7461 8.76367 10.6914 8.99609 10.6914 9.24219C10.6914 9.87109 11.1973 10.2129 11.6758 10.2129C12.1543 10.2129 12.4551 9.98047 12.7148 9.65234L12.9609 9.31055C13.4668 8.49023 14.2051 8.02539 15.1348 8.02539C16.4199 8.02539 17.2539 8.75 17.2539 9.81641C17.2539 10.7734 16.666 11.2383 15.4219 12.0996C14.4238 12.8105 13.6582 13.5488 13.6582 14.9434C13.6582 14.998 13.6582 15.0664 13.6582 15.1211C13.6582 15.8594 14.0547 16.2422 14.793 16.2422C15.5039 16.2422 15.9277 15.791 15.9277 15.2305C15.9277 15.1758 15.9277 15.1074 15.9277 15.0664C15.9277 14.2734 16.3926 13.7676 17.377 13.125C18.7441 12.2227 19.7285 11.4023 19.7285 9.70703C19.7285 7.35547 17.6367 6.11133 15.2305 6.11133C12.7969 6.11133 11.2109 7.24609 10.8145 8.54492Z" fill="white" fill-opacity="0.85"/>
 </g>
</svg>
