<svg version="1.1" xmlns="http://www.w3.org/2000/svg" xmlns:xlink="http://www.w3.org/1999/xlink" viewBox="0 0 35.4648 22.2168">
 <g>
  
  <path d="M25.3613 4.32031L25.3613 17.8691C25.3613 20.6172 23.7207 22.2031 20.9727 22.2031L6.28906 22.2031C3.54102 22.2031 1.90039 20.6172 1.90039 17.8691L1.90039 4.32031C1.90039 1.58594 3.66406 0 6.28906 0L21.1094 0C23.8574 0 25.3613 1.58594 25.3613 4.32031ZM35.4648 3.99219L35.4648 18.2109C35.4648 19.332 34.7676 20.1113 33.7012 20.1113C33.209 20.1113 32.6621 19.8516 32.1973 19.4414L27.2207 15.1348L27.2207 7.05469L32.1973 2.76172C32.6621 2.35156 33.209 2.0918 33.7012 2.0918C34.7676 2.0918 35.4648 2.87109 35.4648 3.99219ZM11.8535 16.2969C11.8535 17.0215 12.4824 17.623 13.2207 17.623C13.959 17.623 14.6016 17.0352 14.6016 16.2969C14.6016 15.5586 13.9727 14.957 13.2207 14.957C12.4688 14.957 11.8535 15.5586 11.8535 16.2969ZM9.65234 6.82227C9.58398 7.02734 9.54297 7.24609 9.54297 7.46484C9.54297 8.03906 10.0078 8.35352 10.4316 8.35352C11.1562 8.35352 11.2793 7.95703 11.6895 7.46484C12.1133 6.78125 12.7285 6.37109 13.5762 6.37109C14.7383 6.37109 15.4902 7.01367 15.4902 7.98438C15.4902 8.85938 14.9434 9.2832 13.8359 10.0488C12.9199 10.7051 12.2363 11.375 12.2363 12.6191C12.2363 12.6738 12.2363 12.7422 12.2363 12.7832C12.2363 13.4668 12.5918 13.8086 13.2617 13.8086C13.9043 13.8086 14.3008 13.4121 14.3008 12.8926C14.3008 12.8516 14.3008 12.7969 14.3008 12.7422C14.3008 12.0176 14.7109 11.5801 15.6133 10.9922C16.8438 10.1719 17.7324 9.41992 17.7324 7.88867C17.7324 5.75586 15.832 4.62109 13.6445 4.62109C11.4434 4.62109 10.0352 5.64648 9.65234 6.82227Z" style="fill:var(--color-0,hsl(0 0 0/0.85))"></path>
 </g>
</svg>