<?xml version="1.0" encoding="UTF-8"?>
<!--Generator: Apple Native CoreSVG 326-->
<!DOCTYPE svg
PUBLIC "-//W3C//DTD SVG 1.1//EN"
       "http://www.w3.org/Graphics/SVG/1.1/DTD/svg11.dtd">
<svg version="1.1" xmlns="http://www.w3.org/2000/svg" xmlns:xlink="http://www.w3.org/1999/xlink" viewBox="0 0 23.3516 29.3262">
 <g>
  <rect height="29.3262" opacity="0" width="23.3516" x="0" y="0"/>
  <path d="M0 25.0332C0 27.8906 1.4082 29.3125 4.23828 29.3125L18.7578 29.3125C21.5879 29.3125 22.9961 27.8906 22.9961 25.0332L22.9961 4.29297C22.9961 1.44922 21.5879 0 18.7578 0L4.23828 0C1.4082 0 0 1.44922 0 4.29297ZM2.20117 24.9922L2.20117 4.33398C2.20117 2.9668 2.92578 2.20117 4.34766 2.20117L18.6484 2.20117C20.0703 2.20117 20.7949 2.9668 20.7949 4.33398L20.7949 24.9922C20.7949 26.3594 20.0703 27.1113 18.6484 27.1113L4.34766 27.1113C2.92578 27.1113 2.20117 26.3594 2.20117 24.9922Z" fill="white" fill-opacity="0.25"/>
  <path d="M6.28906 19.0312L16.7344 19.0312C17.2266 19.0312 17.582 18.6484 17.582 18.1699C17.582 17.7051 17.2266 17.3496 16.7344 17.3496L6.28906 17.3496C5.79688 17.3496 5.42773 17.7051 5.42773 18.1699C5.42773 18.6484 5.79688 19.0312 6.28906 19.0312ZM6.28906 23.1328L11.2246 23.1328C11.7168 23.1328 12.0723 22.7773 12.0723 22.3125C12.0723 21.834 11.7168 21.4512 11.2246 21.4512L6.28906 21.4512C5.79688 21.4512 5.42773 21.834 5.42773 22.3125C5.42773 22.7773 5.79688 23.1328 6.28906 23.1328Z" fill="white" fill-opacity="0.25"/>
  <path d="M11.1836 12.2363C11.7578 12.2363 12.127 11.8672 12.127 11.4023C12.127 11.3477 12.127 11.3066 12.127 11.252C12.127 10.6777 12.4551 10.3223 13.207 9.81641C14.2734 9.11914 15.0527 8.43555 15.0527 7.10938C15.0527 5.26367 13.3984 4.25195 11.5254 4.25195C9.89844 4.25195 8.3125 5.05859 8.01172 6.30273C7.9707 6.45312 7.95703 6.60352 7.95703 6.76758C7.95703 7.28711 8.38086 7.57422 8.76367 7.57422C9.17383 7.57422 9.40625 7.39648 9.61133 7.10938L9.80273 6.86328C10.1582 6.2207 10.7051 5.85156 11.4434 5.85156C12.4414 5.85156 13.043 6.38477 13.043 7.19141C13.043 7.88867 12.6055 8.24414 11.6484 8.90039C10.8555 9.46094 10.2539 10.0625 10.2539 11.1699C10.2539 11.2109 10.2539 11.2656 10.2539 11.3203C10.2539 11.9219 10.5957 12.2363 11.1836 12.2363ZM11.1699 15.4902C11.8125 15.4902 12.4004 14.957 12.4004 14.3008C12.4004 13.6172 11.8398 13.084 11.1699 13.084C10.4727 13.084 9.91211 13.6309 9.91211 14.3008C9.91211 14.9434 10.4863 15.4902 11.1699 15.4902Z" fill="white" fill-opacity="0.25"/>
 </g>
</svg>
