<?xml version="1.0" encoding="UTF-8"?>
<!--Generator: Apple Native CoreSVG 326-->
<!DOCTYPE svg
PUBLIC "-//W3C//DTD SVG 1.1//EN"
       "http://www.w3.org/Graphics/SVG/1.1/DTD/svg11.dtd">
<svg version="1.1" xmlns="http://www.w3.org/2000/svg" xmlns:xlink="http://www.w3.org/1999/xlink" viewBox="0 0 25.5664 25.1152">
 <g>
  <rect height="25.1152" opacity="0" width="25.5664" x="0" y="0"/>
  <path d="M1.59961 1.64062C0.259766 2.98047 0 4.83984 0 7.05469L0 7.19141L2.20117 7.19141L2.20117 6.97266C2.20117 5.53711 2.37891 4.06055 3.19922 3.24023C4.0332 2.40625 5.52344 2.22852 6.95898 2.22852L7.20508 2.22852L7.20508 0.0273438L7.04102 0.0273438C4.82617 0.0273438 2.95312 0.287109 1.59961 1.64062ZM9.07812 2.22852L16.1328 2.22852L16.1328 0.0273438L9.07812 0.0273438ZM23.6113 1.64062C22.2578 0.287109 20.3848 0.0273438 18.1289 0.0273438L17.9922 0.0273438L17.9922 2.22852L18.293 2.22852C19.7012 2.22852 21.1777 2.41992 21.998 3.24023C22.832 4.07422 23.0098 5.52344 23.0098 6.93164L23.0098 7.19141L25.2109 7.19141L25.2109 7.0957C25.2109 4.82617 24.9512 2.9668 23.6113 1.64062ZM23.0098 16.0781L25.2109 16.0781L25.2109 9.06445L23.0098 9.06445ZM23.6113 23.502C24.9512 22.1621 25.2109 20.3164 25.2109 18.0469L25.2109 17.9512L23.0098 17.9512L23.0098 18.1973C23.0098 19.6191 22.832 21.0684 21.998 21.9023C21.1777 22.7227 19.7012 22.9141 18.293 22.9141L17.9922 22.9141L17.9922 25.1152L18.1289 25.1152C20.3848 25.1152 22.2578 24.8555 23.6113 23.502ZM9.07812 25.1152L16.1328 25.1152L16.1328 22.9141L9.07812 22.9141ZM1.59961 23.502C2.95312 24.8555 4.82617 25.1152 7.06836 25.1152L7.20508 25.1152L7.20508 22.9141L6.91797 22.9141C5.50977 22.9141 4.0332 22.7227 3.19922 21.9023C2.37891 21.0684 2.20117 19.6191 2.20117 18.1973L2.20117 17.9512L0 17.9512L0 18.0469C0 20.3164 0.259766 22.1621 1.59961 23.502ZM0 16.0781L2.20117 16.0781L2.20117 9.06445L0 9.06445Z" fill="white" fill-opacity="0.85"/>
  <path d="M12.3457 15.3809C13.0293 15.3809 13.4395 14.9434 13.4395 14.4102C13.4395 14.3555 13.4395 14.2871 13.4395 14.2461C13.4395 13.4805 13.8906 12.9883 14.834 12.3594C16.1602 11.4844 17.1035 10.6914 17.1035 9.05078C17.1035 6.78125 15.0938 5.55078 12.7695 5.55078C10.418 5.55078 8.87305 6.67188 8.49023 7.92969C8.42188 8.14844 8.38086 8.36719 8.38086 8.59961C8.38086 9.21484 8.85938 9.54297 9.32422 9.54297C9.78906 9.54297 10.0762 9.32422 10.3223 8.99609L10.5684 8.66797C11.0469 7.875 11.7715 7.41016 12.6738 7.41016C13.918 7.41016 14.7383 8.12109 14.7383 9.16016C14.7383 10.0898 14.1504 10.541 12.9609 11.375C11.9766 12.0586 11.252 12.7832 11.252 14.123C11.252 14.1777 11.252 14.2461 11.252 14.3008C11.252 15.0117 11.6348 15.3809 12.3457 15.3809ZM12.3047 19.4551C13.0977 19.4551 13.7812 18.8262 13.7812 18.0332C13.7812 17.2402 13.1113 16.6113 12.3047 16.6113C11.498 16.6113 10.8281 17.2539 10.8281 18.0332C10.8281 18.8125 11.5117 19.4551 12.3047 19.4551Z" fill="white" fill-opacity="0.85"/>
 </g>
</svg>
