<svg version="1.1" xmlns="http://www.w3.org/2000/svg" xmlns:xlink="http://www.w3.org/1999/xlink" viewBox="0 0 31.3669 31.0251">
 <g>
  
  <path d="M1.53307 18.5272L12.4842 29.4784C14.5077 31.5018 16.5038 31.5155 18.5135 29.5194L29.5194 18.4999C31.5155 16.5038 31.5018 14.494 29.4784 12.4706L18.5409 1.53307C16.5174-0.49037 14.5213-0.517714 12.5116 1.49205L1.49205 12.4979C-0.517714 14.5077-0.49037 16.5038 1.53307 18.5272ZM3.11901 17.0096C2.13463 16.0253 2.12096 14.9999 3.13268 13.9881L13.9881 3.13268C14.9999 2.12096 16.0253 2.13463 17.0096 3.11901L27.8924 14.0018C28.8631 14.9725 28.8905 16.0116 27.8788 17.0233L17.0233 27.8788C16.0116 28.8905 14.9725 28.8631 14.0018 27.9061Z" style="fill:var(--color-0,#ff9500)"></path>
  <path d="M15.246 18.3358C15.9296 18.3358 16.3397 17.8983 16.3397 17.3651C16.3397 17.3104 16.3397 17.2421 16.3397 17.201C16.3397 16.4354 16.7909 15.9432 17.7479 15.3143C19.0741 14.4393 20.0174 13.6463 20.0174 12.0057C20.0174 9.73619 17.994 8.50572 15.6698 8.50572C13.3182 8.50572 11.7733 9.62682 11.4042 10.8846C11.3221 11.1034 11.2811 11.3221 11.2811 11.5546C11.2811 12.1698 11.7596 12.4979 12.2245 12.4979C12.6893 12.4979 12.9901 12.2792 13.2362 11.951L13.4823 11.6229C13.9608 10.8299 14.6717 10.3651 15.5741 10.3651C16.8319 10.3651 17.6385 11.076 17.6385 12.1151C17.6385 13.0448 17.0643 13.496 15.8612 14.3299C14.8905 15.0135 14.1522 15.7381 14.1522 17.078C14.1522 17.1327 14.1522 17.201 14.1522 17.2557C14.1522 17.9667 14.535 18.3358 15.246 18.3358ZM15.2049 22.41C15.9979 22.41 16.6815 21.7811 16.6815 20.9881C16.6815 20.1952 16.0116 19.5663 15.2049 19.5663C14.412 19.5663 13.7421 20.2088 13.7421 20.9881C13.7421 21.7674 14.4256 22.41 15.2049 22.41Z" style="fill:var(--color-1,#ff9500)"></path>
 </g>
</svg>