<svg version="1.1" xmlns="http://www.w3.org/2000/svg" xmlns:xlink="http://www.w3.org/1999/xlink" viewBox="0 0 25.5254 25.1699">
 <g>
  
  <path d="M4.29297 25.1699L20.877 25.1699C23.748 25.1699 25.1699 23.7617 25.1699 20.9453L25.1699 4.23828C25.1699 1.42188 23.748 0 20.877 0L4.29297 0C1.43555 0 0 1.42188 0 4.23828L0 20.9453C0 23.7617 1.43555 25.1699 4.29297 25.1699Z" style="fill:var(--color-0,#ff9500)"></path>
  <path d="M12.3047 15.5039C11.5801 15.5039 11.1836 15.1211 11.1836 14.3828C11.1836 14.3281 11.1836 14.2598 11.1836 14.2051C11.1836 12.8105 11.9355 12.0723 12.9473 11.3613C14.1777 10.5 14.7656 10.0352 14.7656 9.07812C14.7656 8.01172 13.9316 7.28711 12.6602 7.28711C11.7305 7.28711 10.9922 7.75195 10.4863 8.57227L10.2402 8.91406C9.98047 9.24219 9.67969 9.47461 9.1875 9.47461C8.72266 9.47461 8.2168 9.13281 8.2168 8.50391C8.2168 8.25781 8.27148 8.02539 8.33984 7.80664C8.73633 6.50781 10.3223 5.37305 12.7422 5.37305C15.1484 5.37305 17.2402 6.61719 17.2402 8.96875C17.2402 10.6641 16.2559 11.4844 14.8887 12.3867C13.918 13.0293 13.4531 13.5352 13.4531 14.3281C13.4531 14.3691 13.4531 14.4375 13.4531 14.4922C13.4531 15.0527 13.0293 15.5039 12.3047 15.5039ZM12.2773 19.7012C11.457 19.7012 10.7461 19.0449 10.7461 18.2383C10.7461 17.4316 11.4434 16.7617 12.2773 16.7617C13.1113 16.7617 13.8086 17.418 13.8086 18.2383C13.8086 19.0586 13.0977 19.7012 12.2773 19.7012Z" style="fill:var(--color-1,white)"></path>
 </g>
</svg>