<svg version="1.1" xmlns="http://www.w3.org/2000/svg" xmlns:xlink="http://www.w3.org/1999/xlink" viewBox="0 0 23.3516 29.3262">
 <g>
  
  <path d="M6.28906 19.0312C5.79688 19.0312 5.42773 18.6484 5.42773 18.1699C5.42773 17.7051 5.79688 17.3496 6.28906 17.3496L16.7344 17.3496C17.2266 17.3496 17.582 17.7051 17.582 18.1699C17.582 18.6484 17.2266 19.0312 16.7344 19.0312ZM6.28906 23.1328C5.79688 23.1328 5.42773 22.7773 5.42773 22.3125C5.42773 21.834 5.79688 21.4512 6.28906 21.4512L11.2246 21.4512C11.7168 21.4512 12.0723 21.834 12.0723 22.3125C12.0723 22.7773 11.7168 23.1328 11.2246 23.1328ZM11.1836 12.2363C10.5957 12.2363 10.2539 11.9219 10.2539 11.3203C10.2539 11.2656 10.2539 11.2109 10.2539 11.1699C10.2539 10.0625 10.8555 9.46094 11.6484 8.90039C12.6055 8.24414 13.043 7.88867 13.043 7.19141C13.043 6.38477 12.4414 5.85156 11.4434 5.85156C10.7051 5.85156 10.1582 6.2207 9.80273 6.86328L9.61133 7.10938C9.40625 7.39648 9.17383 7.57422 8.76367 7.57422C8.38086 7.57422 7.95703 7.28711 7.95703 6.76758C7.95703 6.60352 7.9707 6.45312 8.01172 6.30273C8.3125 5.05859 9.89844 4.25195 11.5254 4.25195C13.3984 4.25195 15.0527 5.26367 15.0527 7.10938C15.0527 8.43555 14.2734 9.11914 13.207 9.81641C12.4551 10.3223 12.127 10.6777 12.127 11.252C12.127 11.3066 12.127 11.3477 12.127 11.4023C12.127 11.8672 11.7578 12.2363 11.1836 12.2363ZM11.1699 15.4902C10.4863 15.4902 9.91211 14.9434 9.91211 14.3008C9.91211 13.6309 10.4727 13.084 11.1699 13.084C11.8398 13.084 12.4004 13.6172 12.4004 14.3008C12.4004 14.957 11.8125 15.4902 11.1699 15.4902ZM0 25.0332C0 27.8906 1.4082 29.3125 4.23828 29.3125L18.7578 29.3125C21.5879 29.3125 22.9961 27.8906 22.9961 25.0332L22.9961 4.29297C22.9961 1.44922 21.5879 0 18.7578 0L4.23828 0C1.4082 0 0 1.44922 0 4.29297Z" style="fill:var(--color-0,hsl(0 0 0/0.85))"></path>
 </g>
</svg>