<svg version="1.1" xmlns="http://www.w3.org/2000/svg" xmlns:xlink="http://www.w3.org/1999/xlink" viewBox="0 0 25.5664 25.2246">
 <g>
  
  <path d="M23.6113 1.61328C22.2168 0.21875 20.248 0 17.9102 0L7.25977 0C4.96289 0 2.99414 0.21875 1.59961 1.61328C0.205078 3.00781 0 4.96289 0 7.25977L0 17.9102C0 20.248 0.205078 22.2031 1.59961 23.5977C2.99414 24.9922 4.96289 25.2109 7.28711 25.2109L17.9102 25.2109C20.248 25.2109 22.2168 24.9922 23.6113 23.5977C25.0059 22.2031 25.2109 20.248 25.2109 17.9102L25.2109 7.28711C25.2109 4.94922 25.0059 3.00781 23.6113 1.61328ZM23.0098 6.91797L23.0098 18.293C23.0098 19.7012 22.832 21.1641 21.998 21.9844C21.1777 22.8184 19.7012 23.0098 18.293 23.0098L6.91797 23.0098C5.50977 23.0098 4.0332 22.8184 3.19922 21.9844C2.37891 21.1641 2.20117 19.7012 2.20117 18.293L2.20117 6.95898C2.20117 5.50977 2.37891 4.04688 3.19922 3.21289C4.0332 2.39258 5.52344 2.20117 6.95898 2.20117L18.293 2.20117C19.7012 2.20117 21.1777 2.39258 21.998 3.22656C22.832 4.04688 23.0098 5.50977 23.0098 6.91797Z" style="fill:var(--color-0,hsl(0 0 0/0.85))"></path>
  <path d="M12.3457 15.4355C13.0293 15.4355 13.4395 14.998 13.4395 14.4648C13.4395 14.4102 13.4395 14.3418 13.4395 14.3008C13.4395 13.5352 13.8906 13.043 14.834 12.4141C16.1602 11.5391 17.1035 10.7461 17.1035 9.10547C17.1035 6.83594 15.0938 5.60547 12.7695 5.60547C10.418 5.60547 8.87305 6.72656 8.49023 7.98438C8.42188 8.20312 8.38086 8.42188 8.38086 8.6543C8.38086 9.26953 8.85938 9.59766 9.32422 9.59766C9.78906 9.59766 10.0762 9.37891 10.3223 9.05078L10.5684 8.72266C11.0469 7.92969 11.7715 7.46484 12.6738 7.46484C13.918 7.46484 14.7383 8.17578 14.7383 9.21484C14.7383 10.1445 14.1504 10.5957 12.9609 11.4297C11.9766 12.1133 11.252 12.8379 11.252 14.1777C11.252 14.2324 11.252 14.3008 11.252 14.3555C11.252 15.0664 11.6348 15.4355 12.3457 15.4355ZM12.3047 19.5098C13.0977 19.5098 13.7812 18.8809 13.7812 18.0879C13.7812 17.2949 13.1113 16.666 12.3047 16.666C11.498 16.666 10.8281 17.3086 10.8281 18.0879C10.8281 18.8672 11.5117 19.5098 12.3047 19.5098Z" style="fill:var(--color-1,hsl(0 0 0/0.85))"></path>
 </g>
</svg>