<svg version="1.1" xmlns="http://www.w3.org/2000/svg" xmlns:xlink="http://www.w3.org/1999/xlink" viewBox="0 0 30.4883 30.2012">
 <g>
  
  <path d="M30.1328 8.09375L30.1328 18.5664C30.1328 22.5723 27.9453 24.8145 23.8711 24.8145L14.6289 24.8145L9.69336 29.3262C9.05078 29.9277 8.6543 30.2012 8.12109 30.2012C7.3418 30.2012 6.9043 29.6406 6.9043 28.793L6.9043 24.8145L6.26172 24.8145C2.1875 24.8145 0 22.5859 0 18.5664L0 8.09375C0 4.07422 2.1875 1.83203 6.26172 1.83203L23.8711 1.83203C27.9453 1.83203 30.1328 4.08789 30.1328 8.09375ZM8.25781 11.8398C8.25781 13.4395 9.25586 14.6836 10.8555 14.6836C11.4434 14.6836 12.0312 14.5879 12.4004 14.123L12.5098 14.123C11.9902 15.2852 10.9102 16.0371 9.99414 16.2832C9.46094 16.4199 9.31055 16.6387 9.31055 16.9805C9.31055 17.3359 9.61133 17.6367 10.0078 17.6367C11.4297 17.6367 14.2871 15.9414 14.2871 12.3594C14.2871 10.4453 13.0566 8.98242 11.2246 8.98242C9.5293 8.98242 8.25781 10.1582 8.25781 11.8398ZM15.873 11.8398C15.873 13.4395 16.8711 14.6836 18.457 14.6836C19.0586 14.6836 19.6465 14.5879 20.0156 14.123L20.125 14.123C19.6055 15.2852 18.5254 16.0371 17.5957 16.2832C17.0898 16.4199 16.9258 16.6387 16.9258 16.9805C16.9258 17.3359 17.2266 17.6367 17.623 17.6367C19.0449 17.6367 21.9023 15.9414 21.9023 12.3594C21.9023 10.4453 20.6582 8.98242 18.8262 8.98242C17.1309 8.98242 15.873 10.1582 15.873 11.8398Z" style="fill:var(--color-0,hsl(0 0 0/0.85))"></path>
 </g>
</svg>