<?xml version="1.0" encoding="UTF-8"?>
<!--Generator: Apple Native CoreSVG 326-->
<!DOCTYPE svg
PUBLIC "-//W3C//DTD SVG 1.1//EN"
       "http://www.w3.org/Graphics/SVG/1.1/DTD/svg11.dtd">
<svg version="1.1" xmlns="http://www.w3.org/2000/svg" xmlns:xlink="http://www.w3.org/1999/xlink" viewBox="0 0 31.8008 40.8311">
 <g>
  <rect height="40.8311" opacity="0" width="31.8008" x="0" y="0"/>
  <path d="M31.4453 20.4087C31.4453 29.0903 24.3906 36.1313 15.7227 36.1313C7.04102 36.1313 0 29.0767 0 20.4087C0 13.5752 4.36231 7.74971 10.4613 5.59573C10.2714 6.37732 10.4093 7.17089 10.8079 7.80379C5.75766 9.75511 2.20117 14.6545 2.20117 20.4087C2.20117 27.9009 8.23047 33.9302 15.7227 33.9302C23.2012 33.9302 29.2441 27.9009 29.2441 20.4087C29.2441 14.6475 25.6709 9.74321 20.6133 7.79702C21.0105 7.16449 21.1468 6.37102 20.9518 5.58588C27.0616 7.73251 31.4453 13.5651 31.4453 20.4087Z" fill="white" fill-opacity="0.85"/>
  <path d="M13.248 7.229L18.1699 7.229C19.127 7.229 19.4688 6.28564 18.8945 5.53369L16.4609 2.25244C16.0645 1.73291 15.3672 1.73291 14.9844 2.25244L12.5098 5.54736C11.9766 6.27197 12.2637 7.229 13.248 7.229Z" fill="white" fill-opacity="0.85"/>
  <path d="M15.7227 31.3325C21.752 31.3325 26.6328 26.438 26.6328 20.4087C26.6328 14.3657 21.752 9.49854 15.7227 9.49854C9.69336 9.49854 4.8125 14.3657 4.8125 20.4087C4.8125 26.438 9.69336 31.3325 15.7227 31.3325ZM15.7227 29.1313C10.8828 29.1313 7.01367 25.2349 7.01367 20.4087C7.01367 15.5688 10.8828 11.6997 15.7227 11.6997C20.5488 11.6997 24.4316 15.5688 24.4316 20.4087C24.4316 25.2349 20.5488 29.1313 15.7227 29.1313ZM12.9062 25.645C13.5762 25.645 13.9863 25.2075 13.9863 24.5239L13.9863 21.8716L15.8184 21.8716L17.6914 24.9888C17.9785 25.4536 18.2793 25.645 18.7305 25.645C19.3047 25.645 19.7285 25.2622 19.7285 24.7427C19.7285 24.4829 19.6328 24.2505 19.4824 24.0044L17.8965 21.5298C19.1543 21.0376 19.9883 19.8345 19.9883 18.4536C19.9883 16.3618 18.4707 14.981 16.1191 14.981L12.8926 14.981C12.2363 14.981 11.8809 15.4731 11.8809 16.1431L11.8809 24.5239C11.8809 25.1938 12.25 25.645 12.9062 25.645ZM13.9863 20.231L13.9863 16.6626L15.9004 16.6626C17.1309 16.6626 17.9102 17.3188 17.9102 18.4946C17.9102 19.6431 17.1582 20.231 15.8594 20.231Z" fill="white" fill-opacity="0.85"/>
 </g>
</svg>
