<?xml version="1.0" encoding="UTF-8"?>
<!--Generator: Apple Native CoreSVG 326-->
<!DOCTYPE svg
PUBLIC "-//W3C//DTD SVG 1.1//EN"
       "http://www.w3.org/Graphics/SVG/1.1/DTD/svg11.dtd">
<svg version="1.1" xmlns="http://www.w3.org/2000/svg" xmlns:xlink="http://www.w3.org/1999/xlink" viewBox="0 0 28.2461 27.9043">
 <g>
  <rect height="27.9043" opacity="0" width="28.2461" x="0" y="0"/>
  <path d="M13.9453 27.8906C21.6426 27.8906 27.8906 21.6426 27.8906 13.9453C27.8906 6.24805 21.6426 0 13.9453 0C6.24805 0 0 6.24805 0 13.9453C0 21.6426 6.24805 27.8906 13.9453 27.8906ZM13.9453 25.5664C7.51953 25.5664 2.32422 20.3711 2.32422 13.9453C2.32422 7.51953 7.51953 2.32422 13.9453 2.32422C20.3711 2.32422 25.5664 7.51953 25.5664 13.9453C25.5664 20.3711 20.3711 25.5664 13.9453 25.5664Z" fill="white" fill-opacity="0.85"/>
  <path d="M8.61328 19.6602C9.22852 19.6602 9.61133 19.2637 9.61133 18.6211L9.61133 15.2578L10.9102 15.2578L12.332 18.8398C12.5098 19.3594 12.8242 19.6602 13.3711 19.6602C13.8223 19.6602 14.3145 19.4004 14.3145 18.6895C14.3145 18.5391 14.2324 18.2656 14.0957 17.9512L12.7969 14.8477C13.9043 14.2734 14.3691 13.084 14.3691 11.8535C14.3691 9.625 13.0566 8.43555 10.9238 8.43555L8.59961 8.43555C7.95703 8.43555 7.60156 8.83203 7.60156 9.47461L7.60156 18.6211C7.60156 19.25 7.9707 19.6602 8.61328 19.6602ZM9.61133 13.7949L9.61133 10.0215L10.7324 10.0215C11.7852 10.0215 12.3457 10.8008 12.3457 11.8945C12.3457 12.9746 11.8535 13.7949 10.7324 13.7949ZM19.0723 19.6191C19.6191 19.6191 20.0703 19.168 20.0703 18.6211L20.0703 9.35156C20.0703 8.6543 19.6328 8.24414 18.9219 8.24414C18.3477 8.24414 17.8828 8.55859 17.5684 8.80469L16.0645 9.9668C15.8184 10.1582 15.627 10.418 15.627 10.7734C15.627 11.1973 15.9141 11.498 16.3242 11.498C16.543 11.498 16.6797 11.4297 16.8164 11.334L18.0742 10.3223L18.0742 18.6211C18.0742 19.168 18.5254 19.6191 19.0723 19.6191Z" fill="white" fill-opacity="0.85"/>
 </g>
</svg>
