<?xml version="1.0" encoding="UTF-8"?>
<!--Generator: Apple Native CoreSVG 326-->
<!DOCTYPE svg
PUBLIC "-//W3C//DTD SVG 1.1//EN"
       "http://www.w3.org/Graphics/SVG/1.1/DTD/svg11.dtd">
<svg version="1.1" xmlns="http://www.w3.org/2000/svg" xmlns:xlink="http://www.w3.org/1999/xlink" viewBox="0 0 28.2461 27.9043">
 <g>
  <rect height="27.9043" opacity="0" width="28.2461" x="0" y="0"/>
  <path d="M13.9453 27.8906C21.6426 27.8906 27.8906 21.6426 27.8906 13.9453C27.8906 6.24805 21.6426 0 13.9453 0C6.24805 0 0 6.24805 0 13.9453C0 21.6426 6.24805 27.8906 13.9453 27.8906ZM13.9453 25.5664C7.51953 25.5664 2.32422 20.3711 2.32422 13.9453C2.32422 7.51953 7.51953 2.32422 13.9453 2.32422C20.3711 2.32422 25.5664 7.51953 25.5664 13.9453C25.5664 20.3711 20.3711 25.5664 13.9453 25.5664Z" fill="white" fill-opacity="0.85"/>
  <path d="M7.875 19.6602C8.49023 19.6602 8.87305 19.2637 8.87305 18.6211L8.87305 15.2578L10.1582 15.2578L11.5938 18.8398C11.7852 19.3594 12.0859 19.6602 12.6328 19.6602C13.084 19.6602 13.5762 19.4004 13.5762 18.6895C13.5762 18.5391 13.4805 18.2656 13.3574 17.9512L12.0586 14.8477C13.166 14.2734 13.6309 13.084 13.6309 11.8535C13.6309 9.625 12.3047 8.43555 10.1719 8.43555L7.86133 8.43555C7.21875 8.43555 6.86328 8.83203 6.86328 9.47461L6.86328 18.6211C6.86328 19.25 7.21875 19.6602 7.875 19.6602ZM8.87305 13.7949L8.87305 10.0215L9.99414 10.0215C11.0469 10.0215 11.6074 10.8008 11.6074 11.8945C11.6074 12.9746 11.1152 13.7949 9.99414 13.7949ZM16.0371 19.4688L20.7812 19.4688C21.2734 19.4688 21.5605 19.1543 21.5605 18.6758C21.5605 18.1562 21.2598 17.8691 20.7812 17.8691L17.541 17.8691L17.541 17.7598L19.5371 15.2305C20.9043 13.5352 21.3555 12.5234 21.3555 11.3203C21.3555 9.47461 20.0977 8.13477 18.2109 8.13477C16.4609 8.13477 15.1348 9.58398 15.1348 11.0059C15.1348 11.5117 15.4355 11.8672 15.9551 11.8672C16.4062 11.8672 16.6797 11.6621 16.8301 11.2109C17.0762 10.2949 17.418 9.7207 18.1973 9.7207C19.0312 9.7207 19.4824 10.4453 19.4824 11.416C19.4824 12.5098 18.7305 13.6172 18.0059 14.5469L15.627 17.582C15.3809 17.9102 15.1211 18.252 15.1211 18.6758C15.1211 19.1406 15.4219 19.4688 16.0371 19.4688Z" fill="white" fill-opacity="0.85"/>
 </g>
</svg>
