<svg version="1.1" xmlns="http://www.w3.org/2000/svg" xmlns:xlink="http://www.w3.org/1999/xlink" viewBox="0 0 31.8965 23.8574">
 <g>
  
  <path d="M11.4707 0C3.54102 0 0 3.65039 0 11.1152L0 19.6875C0 22.4492 1.42188 23.8438 4.19727 23.8438L27.3438 23.8438C30.1191 23.8438 31.541 22.4355 31.541 19.6875L31.541 11.1152C31.541 3.65039 28 0 20.0703 0ZM11.4707 2.20117L20.0566 2.20117C26.5234 2.20117 29.3398 5.00391 29.3398 10.9648L29.3398 19.5781C29.3398 20.9453 28.6016 21.6426 27.2891 21.6426L4.25195 21.6426C2.91211 21.6426 2.20117 20.9453 2.20117 19.5781L2.20117 10.9648C2.20117 5.00391 5.01758 2.20117 11.4707 2.20117Z" style="fill:var(--color-0,hsl(0 0 0/0.85))"></path>
  <path d="M9.7207 17.6504C10.3359 17.6504 10.7188 17.2402 10.7188 16.5977L10.7188 13.2344L12.0039 13.2344L13.4395 16.8164C13.6309 17.3359 13.9316 17.6504 14.4785 17.6504C14.9297 17.6504 15.4219 17.377 15.4219 16.6797C15.4219 16.5156 15.3262 16.2422 15.2031 15.9277L13.9043 12.8242C14.998 12.25 15.4766 11.0742 15.4766 9.83008C15.4766 7.60156 14.1504 6.41211 12.0176 6.41211L9.70703 6.41211C9.06445 6.41211 8.70898 6.80859 8.70898 7.45117L8.70898 16.5977C8.70898 17.2266 9.06445 17.6504 9.7207 17.6504ZM10.7188 11.7715L10.7188 7.99805L11.8398 7.99805C12.8926 7.99805 13.4531 8.77734 13.4531 9.87109C13.4531 10.9648 12.9609 11.7715 11.8398 11.7715ZM17.8828 17.459L22.627 17.459C23.1191 17.459 23.4062 17.1309 23.4062 16.6523C23.4062 16.1465 23.1055 15.8457 22.627 15.8457L19.3867 15.8457L19.3867 15.7363L21.3828 13.207C22.75 11.5117 23.2012 10.5137 23.2012 9.31055C23.2012 7.45117 21.9434 6.11133 20.0566 6.11133C18.3066 6.11133 16.9805 7.56055 16.9805 8.99609C16.9805 9.48828 17.2812 9.84375 17.8008 9.84375C18.252 9.84375 18.5254 9.63867 18.6758 9.20117C18.9219 8.28516 19.2637 7.69727 20.043 7.69727C20.877 7.69727 21.3281 8.43555 21.3281 9.39258C21.3281 10.4863 20.5762 11.5938 19.8516 12.5234L17.4727 15.5723C17.2129 15.8867 16.9668 16.2285 16.9668 16.6523C16.9668 17.1172 17.2676 17.459 17.8828 17.459Z" style="fill:var(--color-1,hsl(0 0 0/0.85))"></path>
 </g>
</svg>