<?xml version="1.0" encoding="UTF-8"?>
<!--Generator: Apple Native CoreSVG 326-->
<!DOCTYPE svg
PUBLIC "-//W3C//DTD SVG 1.1//EN"
       "http://www.w3.org/Graphics/SVG/1.1/DTD/svg11.dtd">
<svg version="1.1" xmlns="http://www.w3.org/2000/svg" xmlns:xlink="http://www.w3.org/1999/xlink" viewBox="0 0 32.5938 24.5684">
 <g>
  <rect height="24.5684" opacity="0" width="32.5938" x="0" y="0"/>
  <path d="M10.7734 24.541L21.4648 24.541C29.3945 24.541 32.2383 21.6016 32.2383 14.2871L32.2383 10.2676C32.2383 2.95312 29.3945 0 21.4648 0L10.7734 0C2.84375 0 0 2.95312 0 10.2676L0 14.2871C0 21.6016 2.84375 24.541 10.7734 24.541Z" fill="white" fill-opacity="0.85"/>
  <path d="M9.35156 18.1699C8.68164 18.1699 8.29883 17.7461 8.29883 17.0898L8.29883 7.66992C8.29883 7 8.68164 6.58984 9.33789 6.58984L11.7305 6.58984C13.9316 6.58984 15.2988 7.82031 15.2988 10.1172C15.2988 11.3887 14.8066 12.6191 13.6719 13.207L14.998 16.3926C15.1348 16.7207 15.2305 17.0078 15.2305 17.1719C15.2305 17.8965 14.7246 18.1699 14.2598 18.1699C13.6992 18.1699 13.3848 17.8555 13.1797 17.3223L11.7031 13.6309L10.377 13.6309L10.377 17.0898C10.377 17.7598 9.99414 18.1699 9.35156 18.1699ZM10.377 12.1133L11.5391 12.1133C12.6875 12.1133 13.1934 11.2793 13.1934 10.1582C13.1934 9.03711 12.6191 8.24414 11.5391 8.24414L10.377 8.24414ZM22.0254 18.1562C21.5742 18.1562 21.041 17.8965 21.041 17.1445L21.041 15.75L17.8965 15.75C17.1992 15.75 16.7344 15.2852 16.7344 14.6016C16.7344 14.1641 16.8027 13.7949 17.0488 13.248L19.5645 7.7793C19.9609 6.9043 20.4258 6.39844 21.4102 6.39844C22.3535 6.39844 22.9961 6.94531 22.9961 7.92969L22.9961 14.1094L23.4746 14.1094C24.0488 14.1094 24.2812 14.4648 24.2812 14.916C24.2812 15.3945 24.0352 15.75 23.4746 15.75L22.9961 15.75L22.9961 17.1445C22.9961 17.8281 22.5449 18.1562 22.0254 18.1562ZM21.082 14.1504L21.082 8.17578L21.041 8.17578L18.4707 14.0547L18.4707 14.1504Z" fill="white"/>
 </g>
</svg>
