<svg version="1.1" xmlns="http://www.w3.org/2000/svg" xmlns:xlink="http://www.w3.org/1999/xlink" viewBox="0 0 31.8965 23.8574">
 <g>
  
  <path d="M11.4707 23.8438L20.0703 23.8438C28 23.8438 31.541 20.1934 31.541 12.7285L31.541 4.14258C31.541 1.39453 30.1191 0 27.3438 0L4.19727 0C1.42188 0 0 1.39453 0 4.14258L0 12.7285C0 20.1934 3.54102 23.8438 11.4707 23.8438Z" style="fill:var(--color-0,hsl(0 0 0/0.85))"></path>
  <path d="M12.6191 17.7461C11.8945 17.7461 11.4844 17.2402 11.4844 16.4883L11.4844 7.19141C11.4844 6.43945 11.8809 5.89258 12.6191 5.89258L16.1875 5.89258C18.8125 5.89258 20.5215 7.42383 20.5215 9.74805C20.5215 11.293 19.5781 12.6328 18.1836 13.1797L19.9336 15.9277C20.125 16.1738 20.2207 16.4473 20.2207 16.7344C20.2207 17.3223 19.7422 17.7461 19.0996 17.7461C18.6074 17.7461 18.252 17.541 17.9375 17.0352L15.873 13.5488L13.8359 13.5488L13.8359 16.4883C13.8359 17.2539 13.3848 17.7461 12.6191 17.7461ZM13.8359 11.7305L15.9141 11.7305C17.3496 11.7305 18.1973 11.0879 18.1973 9.80273C18.1973 8.50391 17.3086 7.76562 15.9551 7.76562L13.8359 7.76562Z" style="fill:var(--color-1,white)"></path>
 </g>
</svg>