<svg version="1.1" xmlns="http://www.w3.org/2000/svg" xmlns:xlink="http://www.w3.org/1999/xlink" viewBox="0 0 28.2461 27.9043">
 <g>
  
  <path d="M13.9453 27.8906C21.6426 27.8906 27.8906 21.6426 27.8906 13.9453C27.8906 6.24805 21.6426 0 13.9453 0C6.24805 0 0 6.24805 0 13.9453C0 21.6426 6.24805 27.8906 13.9453 27.8906ZM13.9453 25.5664C7.51953 25.5664 2.32422 20.3711 2.32422 13.9453C2.32422 7.51953 7.51953 2.32422 13.9453 2.32422C20.3711 2.32422 25.5664 7.51953 25.5664 13.9453C25.5664 20.3711 20.3711 25.5664 13.9453 25.5664Z" style="fill:var(--color-0,hsl(0 0 0/0.85))"></path>
  <path d="M10.4316 20.207C11.1426 20.207 11.5391 19.7422 11.5391 18.9902L11.5391 15.5859L14.082 15.5859L16.4473 19.4824C16.7754 20.0156 17.0625 20.207 17.541 20.207C18.1289 20.207 18.5391 19.8242 18.5391 19.2773C18.5391 18.9766 18.457 18.7578 18.2793 18.4844L16.2285 15.2715C17.8418 14.7383 18.8809 13.3027 18.8809 11.6074C18.8809 9.14648 17.1172 7.58789 14.3418 7.58789L10.418 7.58789C9.7207 7.58789 9.35156 8.08008 9.35156 8.81836L9.35156 18.9902C9.35156 19.7148 9.73438 20.207 10.4316 20.207ZM11.5391 13.9863L11.5391 9.25586L14.082 9.25586C15.6543 9.25586 16.7207 10.1309 16.7207 11.6621C16.7207 13.1523 15.6816 13.9863 14.0273 13.9863Z" style="fill:var(--color-1,hsl(0 0 0/0.85))"></path>
 </g>
</svg>