<svg version="1.1" xmlns="http://www.w3.org/2000/svg" xmlns:xlink="http://www.w3.org/1999/xlink" viewBox="0 0 31.7324 26.7559">
 <g>
  
  <path d="M15.6953 22.5449C17.5897 22.5449 19.3608 22.3654 20.9727 22.017L20.9727 22.5723C20.9727 25.1973 19.0039 26.7559 15.6953 26.7559C12.373 26.7559 10.4043 25.1973 10.4043 22.5723L10.4043 22.0154C12.0197 22.3649 13.7954 22.5449 15.6953 22.5449Z" style="fill:var(--color-0,hsl(0 0 0/0.85))"></path>
  <path d="M15.6953 20.959C24.2266 20.959 29.791 17.1855 29.791 11.7305C29.791 6.28906 24.2129 2.51562 15.668 2.51562C7.15039 2.51562 1.59961 6.28906 1.59961 11.7305C1.59961 17.1855 7.15039 20.959 15.6953 20.959ZM15.6953 18.6074C8.73633 18.6074 4.07422 15.8184 4.07422 11.7305C4.07422 7.64258 8.73633 4.86719 15.668 4.86719C22.627 4.86719 27.3164 7.64258 27.3164 11.7305C27.3164 15.8184 22.6406 18.6074 15.6953 18.6074Z" style="fill:var(--color-1,hsl(0 0 0/0.85))"></path>
  <path d="M13.4121 15.8184C13.9316 15.8184 14.2598 15.4629 14.2598 14.9023L14.2598 12.8652L15.6543 12.8652L17.1582 15.3125C17.3906 15.6953 17.6094 15.832 17.9512 15.832C18.375 15.832 18.7305 15.5312 18.7305 15.0938C18.7305 14.875 18.6621 14.6973 18.5391 14.5195L17.3086 12.5918C18.3066 12.1953 18.9082 11.2793 18.9082 10.1992C18.9082 8.55859 17.7188 7.50586 15.9141 7.50586L13.4121 7.50586C12.9199 7.50586 12.6055 7.86133 12.6055 8.43555L12.6055 14.9023C12.6055 15.4629 12.9199 15.8184 13.4121 15.8184ZM14.2598 11.5664L14.2598 8.8457L15.7363 8.8457C16.6934 8.8457 17.2676 9.37891 17.2676 10.2266C17.2676 11.0742 16.707 11.5664 15.709 11.5664Z" style="fill:var(--color-2,hsl(0 0 0/0.85))"></path>
 </g>
</svg>