<svg version="1.1" xmlns="http://www.w3.org/2000/svg" xmlns:xlink="http://www.w3.org/1999/xlink" viewBox="0 0 40.4722 31.4863">
 <g>
  
  <path d="M34.881 10.4997C34.0964 10.308 33.3035 10.4454 32.6712 10.8414C30.7259 5.77589 25.8208 2.20117 20.0584 2.20117C12.5798 2.20117 6.53687 8.24414 6.53687 15.7363C6.53687 23.2285 12.5662 29.2441 20.0584 29.2441C25.8134 29.2441 30.7133 25.6947 32.664 20.6471C33.2972 21.044 34.091 21.1808 34.8727 20.9924C32.7197 27.0897 26.8932 31.4453 20.0584 31.4453C11.3904 31.4453 4.3357 24.418 4.3357 15.7363C4.3357 7.05469 11.3904 0 20.0584 0C26.9017 0 32.7342 4.38343 34.881 10.4997Z" style="fill:var(--color-0,hsl(0 0 0/0.85))"></path>
  <path d="M34.9334 12.5508C34.1814 11.9902 33.238 12.332 33.238 13.2754L33.238 18.2109C33.238 19.1816 34.1951 19.4824 34.9197 18.9355L38.2146 16.4746C38.7205 16.0918 38.7478 15.3809 38.2146 14.998Z" style="fill:var(--color-1,hsl(0 0 0/0.85))"></path>
  <path d="M20.0584 26.6465C26.1013 26.6465 30.9685 21.7656 30.9685 15.7363C30.9685 9.69336 26.1013 4.8125 20.0584 4.8125C14.0427 4.8125 9.13453 9.69336 9.13453 15.7363C9.13453 21.7656 14.0427 26.6465 20.0584 26.6465ZM17.1599 21.1367C16.4763 21.1367 16.0935 20.6719 16.0935 19.9746L16.0935 11.3477C16.0935 10.6504 16.4627 10.1445 17.1462 10.1445L20.4685 10.1445C22.9021 10.1445 24.4744 11.5664 24.4744 13.7266C24.4744 15.1484 23.613 16.3926 22.3142 16.8984L23.9412 19.4414C24.1052 19.6875 24.2009 19.9336 24.2009 20.207C24.2009 20.7402 23.7634 21.1367 23.1619 21.1367C22.697 21.1367 22.3826 20.9453 22.0818 20.4668L20.1677 17.2539L18.281 17.2539L18.281 19.9746C18.281 20.6855 17.8572 21.1367 17.1599 21.1367ZM18.281 15.5586L20.2087 15.5586C21.5486 15.5586 22.3142 14.957 22.3142 13.7676C22.3142 12.5645 21.5076 11.8809 20.2498 11.8809L18.281 11.8809Z" style="fill:var(--color-2,hsl(0 0 0/0.85))"></path>
 </g>
</svg>