<?xml version="1.0" encoding="UTF-8"?>
<!--Generator: Apple Native CoreSVG 326-->
<!DOCTYPE svg
PUBLIC "-//W3C//DTD SVG 1.1//EN"
       "http://www.w3.org/Graphics/SVG/1.1/DTD/svg11.dtd">
<svg version="1.1" xmlns="http://www.w3.org/2000/svg" xmlns:xlink="http://www.w3.org/1999/xlink" viewBox="0 0 32.5938 37.3106">
 <g>
  <rect height="37.3106" opacity="0" width="32.5938" x="0" y="0"/>
  <path d="M25.3887 15.4766C24.1719 15.4903 23.1738 14.4922 23.1738 13.2891C23.1738 12.086 24.1719 11.0606 25.3887 11.0743C26.6055 11.0879 27.5898 12.086 27.5898 13.2891C27.5898 14.4922 26.6055 15.4493 25.3887 15.4766ZM25.3887 21.9024C24.1719 21.9024 23.1738 20.9043 23.1738 19.6875C23.1738 18.4708 24.1719 17.4864 25.3887 17.4864C26.6055 17.4864 27.5898 18.4708 27.5898 19.6875C27.5898 20.9043 26.6055 21.9024 25.3887 21.9024ZM12.8105 12.7286C12.2363 12.7286 11.7715 12.25 11.7715 11.6622C11.7715 11.0879 12.2363 10.6231 12.8105 10.6231C13.3711 10.6231 13.8223 11.0879 13.8223 11.6622C13.8223 12.25 13.3711 12.7286 12.8105 12.7286ZM16.2832 13.7129C15.7227 13.7129 15.2852 13.2344 15.2852 12.6739C15.2852 12.086 15.7227 11.6211 16.2832 11.6211C16.8848 11.6211 17.3223 12.086 17.3223 12.6739C17.3223 13.2344 16.8848 13.7129 16.2832 13.7129ZM18.9219 16.2286C18.3613 16.2286 17.9102 15.7774 17.9102 15.2168C17.9102 14.6153 18.3613 14.1368 18.9219 14.1368C19.4824 14.1368 19.9609 14.6153 19.9609 15.2168C19.9609 15.7774 19.4824 16.2286 18.9219 16.2286ZM19.8105 19.6055C19.2363 19.6055 18.7852 19.1407 18.7852 18.5801C18.7852 18.0059 19.2363 17.5547 19.8105 17.5547C20.3711 17.5547 20.8223 18.0059 20.8223 18.5801C20.8223 19.1407 20.3711 19.6055 19.8105 19.6055ZM18.9219 23.0098C18.3613 23.0098 17.9102 22.5313 17.9102 21.9434C17.9102 21.3692 18.3613 20.918 18.9219 20.918C19.4824 20.918 19.9609 21.3692 19.9609 21.9434C19.9609 22.5313 19.4824 23.0098 18.9219 23.0098ZM16.2832 25.6075C15.7227 25.6075 15.2852 25.129 15.2852 24.5547C15.2852 23.9942 15.7227 23.5157 16.2832 23.5157C16.8848 23.5157 17.3223 23.9942 17.3223 24.5547C17.3223 25.129 16.8848 25.6075 16.2832 25.6075ZM12.8105 26.6739C12.2363 26.6739 11.7715 26.209 11.7715 25.6348C11.7715 25.0469 12.2363 24.5684 12.8105 24.5684C13.3711 24.5684 13.8223 25.0469 13.8223 25.6348C13.8223 26.209 13.3711 26.6739 12.8105 26.6739ZM9.31055 25.6075C8.72266 25.6075 8.28516 25.129 8.28516 24.5547C8.28516 23.9942 8.72266 23.5157 9.31055 23.5157C9.87109 23.5157 10.3086 23.9942 10.3086 24.5547C10.3086 25.129 9.87109 25.6075 9.31055 25.6075ZM6.68555 23.0098C6.11133 23.0098 5.63281 22.5313 5.63281 21.9434C5.63281 21.3692 6.11133 20.918 6.68555 20.918C7.24609 20.918 7.68359 21.3692 7.68359 21.9434C7.68359 22.5313 7.24609 23.0098 6.68555 23.0098ZM5.79688 19.6055C5.23633 19.6055 4.77148 19.1407 4.77148 18.5801C4.77148 18.0059 5.23633 17.5547 5.79688 17.5547C6.35742 17.5547 6.82227 18.0059 6.82227 18.5801C6.82227 19.1407 6.35742 19.6055 5.79688 19.6055ZM6.68555 16.2286C6.11133 16.2286 5.63281 15.7774 5.63281 15.2168C5.63281 14.6153 6.11133 14.1368 6.68555 14.1368C7.24609 14.1368 7.68359 14.6153 7.68359 15.2168C7.68359 15.7774 7.24609 16.2286 6.68555 16.2286ZM9.31055 13.7129C8.72266 13.7129 8.28516 13.2344 8.28516 12.6739C8.28516 12.086 8.72266 11.6211 9.31055 11.6211C9.87109 11.6211 10.3086 12.086 10.3086 12.6739C10.3086 13.2344 9.87109 13.7129 9.31055 13.7129ZM12.8105 16.3106C12.2363 16.3106 11.7715 15.8458 11.7715 15.2852C11.7715 14.6973 12.2363 14.2188 12.8105 14.2188C13.3711 14.2188 13.8223 14.6973 13.8223 15.2852C13.8223 15.8458 13.3711 16.3106 12.8105 16.3106ZM16.0781 17.7188C15.5176 17.7188 15.0391 17.2403 15.0391 16.6934C15.0391 16.1192 15.5176 15.6543 16.0781 15.6543C16.6523 15.6543 17.0898 16.1192 17.0898 16.6934C17.0898 17.2403 16.6523 17.7188 16.0781 17.7188ZM16.0781 21.6426C15.5176 21.6426 15.0391 21.1915 15.0391 20.6172C15.0391 20.0293 15.5176 19.5645 16.0781 19.5645C16.6523 19.5645 17.0898 20.0293 17.0898 20.6172C17.0898 21.1915 16.6523 21.6426 16.0781 21.6426ZM12.8105 23.0782C12.2363 23.0782 11.7715 22.586 11.7715 22.0118C11.7715 21.4512 12.2363 20.9864 12.8105 20.9864C13.3711 20.9864 13.8223 21.4512 13.8223 22.0118C13.8223 22.586 13.3711 23.0782 12.8105 23.0782ZM9.51562 21.6426C8.95508 21.6426 8.50391 21.1915 8.50391 20.6172C8.50391 20.0293 8.95508 19.5645 9.51562 19.5645C10.0898 19.5645 10.5684 20.0293 10.5684 20.6172C10.5684 21.1915 10.0898 21.6426 9.51562 21.6426ZM9.51562 17.7188C8.95508 17.7188 8.50391 17.2403 8.50391 16.6934C8.50391 16.1192 8.95508 15.6543 9.51562 15.6543C10.0898 15.6543 10.5684 16.1192 10.5684 16.6934C10.5684 17.2403 10.0898 17.7188 9.51562 17.7188ZM12.8105 19.6739C12.2363 19.6739 11.7715 19.209 11.7715 18.6485C11.7715 18.0879 12.2363 17.6231 12.8105 17.6231C13.3711 17.6231 13.8223 18.0879 13.8223 18.6485C13.8223 19.209 13.3711 19.6739 12.8105 19.6739ZM26.1133 8.2852L26.7832 6.17974L7.91602 0.0547357C7.3418-0.136671 6.71289 0.191454 6.53516 0.765673C6.34375 1.33989 6.67188 1.9688 7.24609 2.1602ZM4.29297 31.2403L27.9453 31.2403C30.8164 31.2403 32.2383 29.8321 32.2383 27.0157L32.2383 10.3086C32.2383 7.49224 30.8164 6.07036 27.9453 6.07036L4.29297 6.07036C1.43555 6.07036 0 7.49224 0 10.3086L0 27.0157C0 29.8321 1.43555 31.2403 4.29297 31.2403Z" fill="white" fill-opacity="0.85"/>
 </g>
</svg>
