<svg version="1.1" xmlns="http://www.w3.org/2000/svg" xmlns:xlink="http://www.w3.org/1999/xlink" viewBox="0 0 32.5938 37.3106">
 <g>
  
  <path d="M25.1152 15.5723C26.291 15.545 27.248 14.6153 27.248 13.4532C27.248 12.2774 26.291 11.3204 25.1152 11.3067C23.9395 11.293 22.9688 12.2774 22.9688 13.4532C22.9688 14.6153 23.9395 15.586 25.1152 15.5723ZM25.1152 21.793C26.291 21.793 27.248 20.8223 27.248 19.6465C27.248 18.4708 26.291 17.5137 25.1152 17.5137C23.9395 17.5137 22.9688 18.4708 22.9688 19.6465C22.9688 20.8223 23.9395 21.793 25.1152 21.793ZM12.9062 12.9063C13.4531 12.9063 13.8906 12.4415 13.8906 11.8672C13.8906 11.3204 13.4531 10.8692 12.9062 10.8692C12.3594 10.8692 11.9082 11.3204 11.9082 11.8672C11.9082 12.4415 12.3594 12.9063 12.9062 12.9063ZM16.2832 13.8633C16.8574 13.8633 17.2812 13.3985 17.2812 12.8516C17.2812 12.2774 16.8574 11.8399 16.2832 11.8399C15.7363 11.8399 15.3125 12.2774 15.3125 12.8516C15.3125 13.3985 15.7363 13.8633 16.2832 13.8633ZM18.8398 16.2969C19.3867 16.2969 19.8516 15.8594 19.8516 15.3125C19.8516 14.7383 19.3867 14.2735 18.8398 14.2735C18.293 14.2735 17.8555 14.7383 17.8555 15.3125C17.8555 15.8594 18.293 16.2969 18.8398 16.2969ZM19.7012 19.5782C20.248 19.5782 20.6855 19.127 20.6855 18.5801C20.6855 18.0196 20.248 17.5821 19.7012 17.5821C19.1406 17.5821 18.7031 18.0196 18.7031 18.5801C18.7031 19.127 19.1406 19.5782 19.7012 19.5782ZM18.8398 22.8731C19.3867 22.8731 19.8516 22.4083 19.8516 21.8477C19.8516 21.2872 19.3867 20.8497 18.8398 20.8497C18.293 20.8497 17.8555 21.2872 17.8555 21.8477C17.8555 22.4083 18.293 22.8731 18.8398 22.8731ZM16.2832 25.3887C16.8574 25.3887 17.2812 24.9375 17.2812 24.377C17.2812 23.8301 16.8574 23.3653 16.2832 23.3653C15.7363 23.3653 15.3125 23.8301 15.3125 24.377C15.3125 24.9375 15.7363 25.3887 16.2832 25.3887ZM12.9062 26.4278C13.4531 26.4278 13.8906 25.9766 13.8906 25.4297C13.8906 24.8555 13.4531 24.3907 12.9062 24.3907C12.3594 24.3907 11.9082 24.8555 11.9082 25.4297C11.9082 25.9766 12.3594 26.4278 12.9062 26.4278ZM9.51562 25.3887C10.0625 25.3887 10.4863 24.9375 10.4863 24.377C10.4863 23.8301 10.0625 23.3653 9.51562 23.3653C8.94141 23.3653 8.51758 23.8301 8.51758 24.377C8.51758 24.9375 8.94141 25.3887 9.51562 25.3887ZM6.97266 22.8731C7.51953 22.8731 7.94336 22.4083 7.94336 21.8477C7.94336 21.2872 7.51953 20.8497 6.97266 20.8497C6.41211 20.8497 5.94727 21.2872 5.94727 21.8477C5.94727 22.4083 6.41211 22.8731 6.97266 22.8731ZM6.11133 19.5782C6.6582 19.5782 7.0957 19.127 7.0957 18.5801C7.0957 18.0196 6.6582 17.5821 6.11133 17.5821C5.56445 17.5821 5.11328 18.0196 5.11328 18.5801C5.11328 19.127 5.56445 19.5782 6.11133 19.5782ZM6.97266 16.2969C7.51953 16.2969 7.94336 15.8594 7.94336 15.3125C7.94336 14.7383 7.51953 14.2735 6.97266 14.2735C6.41211 14.2735 5.94727 14.7383 5.94727 15.3125C5.94727 15.8594 6.41211 16.2969 6.97266 16.2969ZM9.51562 13.8633C10.0625 13.8633 10.4863 13.3985 10.4863 12.8516C10.4863 12.2774 10.0625 11.8399 9.51562 11.8399C8.94141 11.8399 8.51758 12.2774 8.51758 12.8516C8.51758 13.3985 8.94141 13.8633 9.51562 13.8633ZM12.9062 16.379C13.4531 16.379 13.8906 15.9278 13.8906 15.3809C13.8906 14.8204 13.4531 14.3555 12.9062 14.3555C12.3594 14.3555 11.9082 14.8204 11.9082 15.3809C11.9082 15.9278 12.3594 16.379 12.9062 16.379ZM16.0781 17.7461C16.6387 17.7461 17.0625 17.2813 17.0625 16.7481C17.0625 16.2012 16.6387 15.75 16.0781 15.75C15.5312 15.75 15.0664 16.2012 15.0664 16.7481C15.0664 17.2813 15.5312 17.7461 16.0781 17.7461ZM16.0781 21.5469C16.6387 21.5469 17.0625 21.1094 17.0625 20.5625C17.0625 19.9883 16.6387 19.5372 16.0781 19.5372C15.5312 19.5372 15.0664 19.9883 15.0664 20.5625C15.0664 21.1094 15.5312 21.5469 16.0781 21.5469ZM12.9062 22.9415C13.4531 22.9415 13.8906 22.4766 13.8906 21.9161C13.8906 21.3692 13.4531 20.918 12.9062 20.918C12.3594 20.918 11.9082 21.3692 11.9082 21.9161C11.9082 22.4766 12.3594 22.9415 12.9062 22.9415ZM9.7207 21.5469C10.2676 21.5469 10.7324 21.1094 10.7324 20.5625C10.7324 19.9883 10.2676 19.5372 9.7207 19.5372C9.17383 19.5372 8.73633 19.9883 8.73633 20.5625C8.73633 21.1094 9.17383 21.5469 9.7207 21.5469ZM9.7207 17.7461C10.2676 17.7461 10.7324 17.2813 10.7324 16.7481C10.7324 16.2012 10.2676 15.75 9.7207 15.75C9.17383 15.75 8.73633 16.2012 8.73633 16.7481C8.73633 17.2813 9.17383 17.7461 9.7207 17.7461ZM12.9062 19.6465C13.4531 19.6465 13.8906 19.1954 13.8906 18.6485C13.8906 18.1016 13.4531 17.6504 12.9062 17.6504C12.3594 17.6504 11.9082 18.1016 11.9082 18.6485C11.9082 19.1954 12.3594 19.6465 12.9062 19.6465ZM26.1133 8.2852L26.7832 6.17974L7.91602 0.0547357C7.3418-0.136671 6.71289 0.191454 6.53516 0.765673C6.34375 1.33989 6.67188 1.9688 7.24609 2.1602ZM4.29297 31.2403L27.9453 31.2403C30.8164 31.2403 32.2383 29.8321 32.2383 27.0157L32.2383 10.3086C32.2383 7.49224 30.8164 6.07036 27.9453 6.07036L4.29297 6.07036C1.43555 6.07036 0 7.49224 0 10.3086L0 27.0157C0 29.8321 1.43555 31.2403 4.29297 31.2403ZM4.32031 29.0391C2.95312 29.0391 2.20117 28.3145 2.20117 26.8926L2.20117 10.4317C2.20117 9.00981 2.95312 8.27153 4.32031 8.27153L27.918 8.27153C29.2715 8.27153 30.0371 9.00981 30.0371 10.4317L30.0371 26.8926C30.0371 28.3145 29.2715 29.0391 27.918 29.0391Z" style="fill:var(--color-0,hsl(0 0 0/0.85))"></path>
 </g>
</svg>