<svg version="1.1" xmlns="http://www.w3.org/2000/svg" xmlns:xlink="http://www.w3.org/1999/xlink" viewBox="0 0 30.0371 29.709">
 <g>
  
  <path d="M9.02344 9.02344C9.47461 8.57227 9.47461 7.79297 9.02344 7.32812L6.0293 4.36133C5.57812 3.89648 4.8125 3.89648 4.34766 4.36133C3.89648 4.8125 3.89648 5.57812 4.34766 6.04297L7.32812 9.02344C7.7793 9.48828 8.57227 9.48828 9.02344 9.02344Z" style="fill:var(--color-0,hsl(0 0 0/0.85))"></path>
  <path d="M6.60352 14.8477C6.60352 14.2051 6.05664 13.6582 5.41406 13.6582L1.18945 13.6582C0.546875 13.6582 0 14.2051 0 14.8477C0 15.4902 0.546875 16.0371 1.18945 16.0371L5.41406 16.0371C6.05664 16.0371 6.60352 15.4902 6.60352 14.8477Z" style="fill:var(--color-1,hsl(0 0 0/0.85))"></path>
  <path d="M9.02344 20.6582C8.57227 20.207 7.7793 20.207 7.32812 20.6582L4.34766 23.6523C3.89648 24.1035 3.89648 24.8828 4.34766 25.334C4.8125 25.7852 5.57812 25.7852 6.0293 25.334L9.02344 22.3535C9.47461 21.9023 9.47461 21.123 9.02344 20.6582Z" style="fill:var(--color-2,hsl(0 0 0/0.85))"></path>
  <path d="M14.834 23.0781C14.1914 23.0781 13.6445 23.625 13.6445 24.2676L13.6445 28.4922C13.6445 29.1348 14.1914 29.6816 14.834 29.6816C15.4902 29.6816 16.0371 29.1348 16.0371 28.4922L16.0371 24.2676C16.0371 23.625 15.4902 23.0781 14.834 23.0781Z" style="fill:var(--color-3,hsl(0 0 0/0.85))"></path>
  <path d="M20.6582 20.6582C20.207 21.123 20.207 21.9023 20.6582 22.3535L23.6523 25.334C24.1035 25.7852 24.8691 25.7852 25.334 25.334C25.7852 24.8828 25.7852 24.1035 25.334 23.6523L22.3535 20.6582C21.9023 20.207 21.1094 20.207 20.6582 20.6582Z" style="fill:var(--color-4,hsl(0 0 0/0.85))"></path>
  <path d="M23.0781 14.8477C23.0781 15.4902 23.625 16.0371 24.2676 16.0371L28.4785 16.0371C29.1348 16.0371 29.6816 15.4902 29.6816 14.8477C29.6816 14.2051 29.1348 13.6582 28.4785 13.6582L24.2676 13.6582C23.625 13.6582 23.0781 14.2051 23.0781 14.8477Z" style="fill:var(--color-5,hsl(0 0 0/0.85))"></path>
  <path d="M20.6582 9.02344C21.1094 9.48828 21.9023 9.48828 22.3535 9.02344L25.334 6.04297C25.7852 5.57812 25.7852 4.8125 25.334 4.36133C24.8691 3.89648 24.1035 3.89648 23.6523 4.36133L20.6582 7.32812C20.207 7.79297 20.207 8.57227 20.6582 9.02344Z" style="fill:var(--color-6,hsl(0 0 0/0.85))"></path>
  <path d="M14.834 6.61719C15.4902 6.61719 16.0371 6.07031 16.0371 5.41406L16.0371 1.20312C16.0371 0.546875 15.4902 0 14.834 0C14.1914 0 13.6445 0.546875 13.6445 1.20312L13.6445 5.41406C13.6445 6.07031 14.1914 6.61719 14.834 6.61719Z" style="fill:var(--color-7,hsl(0 0 0/0.85))"></path>
 </g>
</svg>