<?xml version="1.0" encoding="UTF-8"?>
<!--Generator: Apple Native CoreSVG 326-->
<!DOCTYPE svg
PUBLIC "-//W3C//DTD SVG 1.1//EN"
       "http://www.w3.org/Graphics/SVG/1.1/DTD/svg11.dtd">
<svg version="1.1" xmlns="http://www.w3.org/2000/svg" xmlns:xlink="http://www.w3.org/1999/xlink" viewBox="0 0 28.2461 27.9043">
 <g>
  <rect height="27.9043" opacity="0" width="28.2461" x="0" y="0"/>
  <path d="M13.9453 27.8906C21.6426 27.8906 27.8906 21.6426 27.8906 13.9453C27.8906 6.24805 21.6426 0 13.9453 0C6.24805 0 0 6.24805 0 13.9453C0 21.6426 6.24805 27.8906 13.9453 27.8906ZM13.9453 25.5664C7.51953 25.5664 2.32422 20.3711 2.32422 13.9453C2.32422 7.51953 7.51953 2.32422 13.9453 2.32422C20.3711 2.32422 25.5664 7.51953 25.5664 13.9453C25.5664 20.3711 20.3711 25.5664 13.9453 25.5664Z" fill="white" fill-opacity="0.85"/>
  <path d="M7.47852 19.6602C8.09375 19.6602 8.47656 19.2637 8.47656 18.6211L8.47656 15.2578L9.76172 15.2578L11.1973 18.8398C11.3887 19.3594 11.6895 19.6602 12.2363 19.6602C12.6875 19.6602 13.1797 19.4004 13.1797 18.6895C13.1797 18.5391 13.084 18.2656 12.9609 17.9512L11.6621 14.8477C12.7695 14.2734 13.2344 13.084 13.2344 11.8535C13.2344 9.625 11.9082 8.43555 9.77539 8.43555L7.46484 8.43555C6.82227 8.43555 6.4668 8.83203 6.4668 9.47461L6.4668 18.6211C6.4668 19.25 6.83594 19.6602 7.47852 19.6602ZM8.47656 13.7949L8.47656 10.0215L9.59766 10.0215C10.6504 10.0215 11.2109 10.8008 11.2109 11.8945C11.2109 12.9746 10.7188 13.7949 9.59766 13.7949ZM16.0508 19.4961L18.9492 19.4961C20.877 19.4961 21.998 18.2109 21.998 16.3652C21.998 15.0391 21.1914 13.8086 19.8926 13.6855L19.8926 13.6172C20.9316 13.4258 21.6562 12.2773 21.6562 11.1836C21.6562 9.43359 20.4805 8.43555 18.8672 8.43555L16.0508 8.43555C15.4082 8.43555 15.0664 8.87305 15.0664 9.47461L15.0664 18.457C15.0664 19.0859 15.4219 19.4961 16.0508 19.4961ZM17.0215 13.125L17.0215 9.95312L18.293 9.95312C19.332 9.95312 19.7422 10.6094 19.7422 11.498C19.7422 12.5098 19.1543 13.125 18.1426 13.125ZM17.0215 17.9785L17.0215 14.4648L18.293 14.4648C19.291 14.4648 19.9883 14.998 19.9883 16.2148C19.9883 17.3086 19.4551 17.9785 18.3477 17.9785Z" fill="white" fill-opacity="0.85"/>
 </g>
</svg>
