<svg version="1.1" xmlns="http://www.w3.org/2000/svg" xmlns:xlink="http://www.w3.org/1999/xlink" viewBox="0 0 28.2461 27.9043">
 <g>
  
  <path d="M13.9453 27.8906C21.6426 27.8906 27.8906 21.6289 27.8906 13.9453C27.8906 6.24805 21.6426 0 13.9453 0C6.26172 0 0 6.24805 0 13.9453C0 21.6289 6.26172 27.8906 13.9453 27.8906Z" style="fill:var(--color-0,hsl(0 0 0/0.85))"></path>
  <path d="M7.61523 19.5508C6.97266 19.5508 6.61719 19.1406 6.61719 18.5117L6.61719 9.57031C6.61719 8.92773 6.97266 8.54492 7.60156 8.54492L9.87109 8.54492C11.9629 8.54492 13.2617 9.70703 13.2617 11.8945C13.2617 13.1113 12.7969 14.2734 11.7031 14.834L12.9883 17.8555C13.1113 18.1699 13.207 18.4434 13.207 18.5938C13.207 19.2773 12.7148 19.5508 12.2773 19.5508C11.7441 19.5508 11.4434 19.25 11.2383 18.7441L9.84375 15.2305L8.58594 15.2305L8.58594 18.5117C8.58594 19.1543 8.2168 19.5508 7.61523 19.5508ZM8.58594 13.7812L9.69336 13.7812C10.7734 13.7812 11.2656 13.002 11.2656 11.9355C11.2656 10.8691 10.7051 10.1035 9.69336 10.1035L8.58594 10.1035ZM16.0098 19.373C15.3945 19.373 15.0391 18.9766 15.0391 18.3613L15.0391 9.57031C15.0391 8.98242 15.3809 8.53125 16.0098 8.53125L18.7852 8.53125C20.3574 8.53125 21.5059 9.51562 21.5059 11.2383C21.5059 12.3047 20.8086 13.4395 19.7832 13.6172L19.7832 13.6855C21.0547 13.8086 21.8477 15.0117 21.8477 16.3105C21.8477 18.1152 20.7539 19.373 18.8535 19.373ZM16.9668 13.1387L18.0605 13.1387C19.0449 13.1387 19.6328 12.5234 19.6328 11.5391C19.6328 10.6777 19.2363 10.0352 18.2246 10.0352L16.9668 10.0352ZM16.9668 17.8828L18.2656 17.8828C19.3457 17.8828 19.8652 17.2402 19.8652 16.1602C19.8652 14.9844 19.1953 14.4512 18.2246 14.4512L16.9668 14.4512Z" style="fill:var(--color-1,white)"></path>
 </g>
</svg>