<svg version="1.1" xmlns="http://www.w3.org/2000/svg" xmlns:xlink="http://www.w3.org/1999/xlink" viewBox="0 0 19.2363 25.1973">
 <g>
  
  <path d="M4.29297 25.1973L14.6016 25.1973C17.459 25.1973 18.8809 23.7754 18.8809 20.959L18.8809 4.26562C18.8809 1.44922 17.459 0.0273438 14.6016 0.0273438L4.29297 0.0273438C1.43555 0.0273438 0 1.43555 0 4.26562L0 20.959C0 23.7891 1.43555 25.1973 4.29297 25.1973ZM4.32031 22.9961C2.95312 22.9961 2.20117 22.2715 2.20117 20.8496L2.20117 4.375C2.20117 2.95312 2.95312 2.22852 4.32031 2.22852L14.5605 2.22852C15.9141 2.22852 16.6797 2.95312 16.6797 4.375L16.6797 20.8496C16.6797 22.2715 15.9141 22.9961 14.5605 22.9961Z" style="fill:var(--color-0,hsl(0 0 0/0.85))"></path>
 </g>
</svg>