<svg version="1.1" xmlns="http://www.w3.org/2000/svg" xmlns:xlink="http://www.w3.org/1999/xlink" viewBox="0 0 34.8667 26.5645">
 <g>
  
  <path d="M12.6072 26.5645L21.8904 26.5645C24.7068 26.5645 26.1287 25.1426 26.1287 22.2715L26.1287 4.29297C26.1287 1.42188 24.7205 0 21.8904 0L12.6072 0C9.79079 0 8.36891 1.42188 8.36891 4.29297L8.36891 22.2715C8.36891 25.1426 9.79079 26.5645 12.6072 26.5645ZM12.7302 24.3633C11.3084 24.3633 10.5701 23.584 10.5701 22.2441L10.5701 4.32031C10.5701 2.95312 11.3084 2.20117 12.7302 2.20117L21.781 2.20117C23.2029 2.20117 23.9275 2.95312 23.9275 4.32031L23.9275 22.2441C23.9275 23.584 23.2029 24.3633 21.781 24.3633Z" style="fill:var(--color-0,hsl(0 0 0/0.85))"></path>
  <path d="M6.55055 16.3242L6.55055 10.2402C6.55055 9.51562 5.96266 9.17383 5.32008 9.57031L0.466567 12.5508C-0.148668 12.9199-0.162339 13.6445 0.466567 14.0273L5.32008 16.9805C5.96266 17.377 6.55055 17.0625 6.55055 16.3242ZM27.947 16.3242C27.947 17.0625 28.5486 17.377 29.1912 16.9805L34.0447 14.0273C34.6599 13.6445 34.6463 12.9199 34.0447 12.5508L29.1775 9.57031C28.5349 9.17383 27.947 9.51562 27.947 10.2402Z" style="fill:var(--color-1,hsl(0 0 0/0.85))"></path>
 </g>
</svg>