<?xml version="1.0" encoding="UTF-8"?>
<!--Generator: Apple Native CoreSVG 326-->
<!DOCTYPE svg
PUBLIC "-//W3C//DTD SVG 1.1//EN"
       "http://www.w3.org/Graphics/SVG/1.1/DTD/svg11.dtd">
<svg version="1.1" xmlns="http://www.w3.org/2000/svg" xmlns:xlink="http://www.w3.org/1999/xlink" viewBox="0 0 33.4277 33.4014">
 <g>
  <rect height="33.4014" opacity="0" width="33.4277" x="0" y="0"/>
  <path d="M32.3066 10.6919C32.7031 10.6919 33.0723 10.3365 33.0723 9.91263L33.0723 8.23099C33.0723 4.772 30.7891 2.4888 27.3301 2.4888L27.084 2.4888L27.084 0.875518C27.084-0.0404975 26.3867-0.231904 25.7031 0.273956L22.5996 2.54349C22.0801 2.9263 22.0664 3.3638 22.5996 3.74661L25.7031 6.01614C26.3867 6.522 27.084 6.31692 27.084 5.44192L27.084 3.92435L27.3164 3.92435C29.8457 3.92435 31.5137 5.647 31.5137 8.24466L31.5137 9.91263C31.5137 10.3365 31.8828 10.6919 32.3066 10.6919ZM0.779297 22.5318C0.369141 22.5318 0 22.8872 0 23.3111L0 24.979C0 28.5064 2.35156 30.8853 5.90625 30.8853L6.13867 30.8853L6.13867 32.4986C6.13867 33.4146 6.83594 33.606 7.51953 33.1001L10.623 30.8169C11.1426 30.4478 11.1562 30.0103 10.623 29.6138L7.51953 27.3579C6.83594 26.8521 6.13867 27.0572 6.13867 27.9322L6.13867 29.4497L5.91992 29.4497C3.24023 29.4497 1.55859 27.5767 1.55859 24.979L1.55859 23.3111C1.55859 22.8872 1.20312 22.5318 0.779297 22.5318Z" fill="white" fill-opacity="0.85"/>
  <path d="M8.49023 25.02L24.7324 25.02C26.3184 25.02 27.4668 23.8033 27.4668 22.149L27.4668 11.2251C27.4668 9.57083 26.3184 8.36771 24.7324 8.36771L8.49023 8.36771C6.9043 8.36771 5.76953 9.57083 5.76953 11.2251L5.76953 22.149C5.76953 23.8033 6.9043 25.02 8.49023 25.02ZM8.73633 22.9693C8.20312 22.9693 7.83398 22.5591 7.83398 21.9575L7.83398 11.4165C7.83398 10.8423 8.20312 10.4322 8.73633 10.4322L24.4863 10.4322C25.0332 10.4322 25.416 10.8423 25.416 11.4165L25.416 21.9575C25.416 22.5591 25.0332 22.9693 24.4863 22.9693Z" fill="white" fill-opacity="0.85"/>
 </g>
</svg>
