<?xml version="1.0" encoding="UTF-8"?>
<!--Generator: Apple Native CoreSVG 326-->
<!DOCTYPE svg
PUBLIC "-//W3C//DTD SVG 1.1//EN"
       "http://www.w3.org/Graphics/SVG/1.1/DTD/svg11.dtd">
<svg version="1.1" xmlns="http://www.w3.org/2000/svg" xmlns:xlink="http://www.w3.org/1999/xlink" viewBox="0 0 25.5254 25.1699">
 <g>
  <rect height="25.1699" opacity="0" width="25.5254" x="0" y="0"/>
  <path d="M4.29297 25.1699L20.877 25.1699C23.748 25.1699 25.1699 23.7617 25.1699 20.9453L25.1699 4.23828C25.1699 1.42188 23.748 0 20.877 0L4.29297 0C1.43555 0 0 1.42188 0 4.23828L0 20.9453C0 23.7617 1.43555 25.1699 4.29297 25.1699Z" fill="white" fill-opacity="0.85"/>
  <path d="M20.7676 10.623L20.7676 17.2129C20.7676 18.498 20.125 19.1406 18.8262 19.1406L9.40625 19.1406C8.10742 19.1406 7.46484 18.498 7.46484 17.2129L7.46484 10.623C7.46484 9.36523 8.10742 8.70898 9.40625 8.70898L18.8262 8.70898C20.125 8.70898 20.7676 9.36523 20.7676 10.623ZM17.6641 7.68359L17.6641 7.80664L9.40625 7.80664C7.60156 7.80664 6.5625 8.85938 6.5625 10.623L6.5625 16.2148L6.30273 16.2148C5.00391 16.2148 4.375 15.5859 4.375 14.2871L4.375 7.68359C4.375 6.42578 5.00391 5.7832 6.30273 5.7832L15.7363 5.7832C17.0215 5.7832 17.6641 6.42578 17.6641 7.68359Z" fill="white"/>
 </g>
</svg>
