<?xml version="1.0" encoding="UTF-8"?>
<!--Generator: Apple Native CoreSVG 326-->
<!DOCTYPE svg
PUBLIC "-//W3C//DTD SVG 1.1//EN"
       "http://www.w3.org/Graphics/SVG/1.1/DTD/svg11.dtd">
<svg version="1.1" xmlns="http://www.w3.org/2000/svg" xmlns:xlink="http://www.w3.org/1999/xlink" viewBox="0 0 31.0762 37.748">
 <g>
  <rect height="37.748" opacity="0" width="31.0762" x="0" y="0"/>
  <path d="M22.873 6.15234L22.873 6.75391L12.0723 6.75391C8.20312 6.75391 5.97461 9.00977 5.97461 12.9062L5.97461 29.1211L5.74219 29.1211C2.92578 29.1211 1.50391 27.6855 1.50391 24.8281L1.50391 6.15234C1.50391 3.29492 2.92578 1.85938 5.74219 1.85938L18.6484 1.85938C21.4648 1.85938 22.873 3.29492 22.873 6.15234Z" fill="white" fill-opacity="0.85"/>
  <path d="M29.2031 12.9062C29.2031 10.0488 27.7949 8.61328 24.9648 8.61328L12.0723 8.61328C9.24219 8.61328 7.83398 10.0488 7.83398 12.9062L7.83398 31.582C7.83398 34.4395 9.25586 35.875 12.0723 35.875L24.9648 35.875C27.7812 35.875 29.2031 34.4395 29.2031 31.582Z" fill="white" fill-opacity="0.85"/>
 </g>
</svg>
