<svg version="1.1" xmlns="http://www.w3.org/2000/svg" xmlns:xlink="http://www.w3.org/1999/xlink" viewBox="0 0 30.1807 31.5957">
 <g>
  
  <path d="M7.70068 26.4688C7.70068 27.5898 8.35693 28.2598 9.57373 28.2598L20.2788 28.2598C21.4956 28.2598 22.1382 27.5898 22.1382 26.4688L22.1382 25.8945L24.0619 27.8182C23.6537 29.2897 22.3718 30.2559 20.5522 30.2559L9.30029 30.2559C7.07178 30.2559 5.6499 28.8066 5.6499 26.7559L5.6499 25.4023L7.70068 25.4023ZM24.2026 20.4641L22.1382 18.3985L22.1382 16.502L24.2026 16.502ZM7.70068 11.457L7.70068 14.4922L5.6499 14.4922L5.64311 9.39946ZM24.189 4.23828L24.189 5.5918L22.1245 5.5918L22.1245 4.52539C22.1245 3.41797 21.4819 2.74805 20.2651 2.74805L9.56006 2.74805C8.54697 2.74805 7.93193 3.21244 7.75601 4.00829L6.12152 2.3729C6.71246 1.36832 7.82637 0.751953 9.28662 0.751953L20.5386 0.751953C22.7671 0.751953 24.189 2.1875 24.189 4.23828Z" style="fill:var(--color-0,hsl(0 0 0/0.85))"></path>
  <path d="M6.04639 16.9395L6.04639 19.127L5.96436 20.7402L7.42725 19.1816L9.54639 17.0352C9.75146 16.8301 9.98389 16.7617 10.2026 16.7617C10.7495 16.7617 11.2554 17.2402 11.2554 17.7871C11.2554 18.0195 11.1597 18.252 10.9546 18.457L8.82178 20.5762L7.24951 22.0527L8.87646 21.957L11.0093 21.957C11.6108 21.957 11.8979 22.3945 11.8979 22.8457C11.8979 23.2832 11.6245 23.7344 11.0503 23.7344L5.41748 23.7344C4.69287 23.7344 4.28271 23.3242 4.28271 22.5859L4.28271 16.8984C4.28271 16.3242 4.72021 16.0371 5.14404 16.0371C5.59521 16.0371 6.04639 16.3379 6.04639 16.9395ZM25.5562 8.4082L25.5562 14.0957C25.5562 14.6699 25.1187 14.957 24.6812 14.957C24.2437 14.957 23.7925 14.6562 23.7925 14.0547L23.7925 11.8672L23.8745 10.2539L22.4116 11.8262L20.2925 13.959C20.0874 14.1641 19.855 14.2461 19.6362 14.2461C19.0894 14.2461 18.5835 13.7539 18.5835 13.207C18.5835 12.9883 18.6792 12.7559 18.8843 12.5371L21.0171 10.418L22.5894 8.94141L20.9624 9.03711L18.8296 9.03711C18.2417 9.03711 17.9272 8.58594 17.9272 8.14844C17.9272 7.71094 18.228 7.27344 18.7886 7.27344L24.4214 7.27344C25.146 7.27344 25.5562 7.66992 25.5562 8.4082Z" style="fill:var(--color-1,hsl(0 0 0/0.85))"></path>
  <path d="M26.4312 27.9316C26.8276 28.3281 27.5112 28.3418 27.9214 27.9316C28.3179 27.5078 28.3315 26.8516 27.9214 26.4414L3.40771 1.90039C2.99756 1.49023 2.31396 1.49023 1.90381 1.90039C1.50732 2.31055 1.50732 2.99414 1.90381 3.39062Z" style="fill:var(--color-2,hsl(0 0 0/0.85))"></path>
 </g>
</svg>