<svg version="1.1" xmlns="http://www.w3.org/2000/svg" xmlns:xlink="http://www.w3.org/1999/xlink" viewBox="0 0 38.0405 33.2551">
 <g>
  
  <path d="M28.9597 4.9723L28.9597 11.0591C28.3088 10.7682 27.6422 10.6913 27.032 10.7526L27.032 5.08168C27.032 3.60511 26.2253 2.79847 24.7761 2.79847L6.7429 2.79847C5.28001 2.79847 4.47337 3.60511 4.47337 5.08168L4.47337 18.6578C4.47337 20.1344 5.29368 20.9547 6.7429 20.9547L11.4401 20.9547C11.4636 21.0506 11.4935 21.1464 11.5281 21.2418C11.6921 21.693 11.9382 22.1168 12.2253 22.4723L12.5541 22.8825L6.70188 22.8825C3.92649 22.8825 2.54563 21.5289 2.54563 18.7809L2.54563 4.9723C2.54563 2.21058 3.92649 0.870738 6.70188 0.870738L24.8171 0.870738C27.5925 0.870738 28.9597 2.21058 28.9597 4.9723Z" style="fill:var(--color-0,hsl(0 0 0/0.85))"></path>
  <path d="M30.0398 30.7301C35.6179 28.7067 37.4773 24.0719 35.3034 18.111L34.4011 15.6364C33.5808 13.3805 31.9949 12.3825 30.7644 12.8336C30.4909 12.943 30.3816 13.1344 30.4909 13.3942L30.8874 14.5016C31.0788 15.0075 30.9011 15.3766 30.6003 15.486C30.2585 15.609 29.9031 15.445 29.7116 14.9254L29.4519 14.2008C28.9734 12.8746 27.8113 12.3141 26.6491 12.7379C26.1296 12.9293 25.9792 13.2301 26.1296 13.6813L26.6765 15.1578C26.8679 15.6774 26.6902 16.0192 26.3894 16.1286C26.0613 16.2516 25.6921 16.1012 25.5144 15.5953L25.0222 14.2008C24.4616 12.7243 23.3406 12.3414 22.2195 12.7379C21.7409 12.9157 21.5632 13.2438 21.6999 13.6676L22.7663 16.5797C22.9577 17.0993 22.78 17.4547 22.4792 17.5641C22.1511 17.6871 21.7956 17.5231 21.6042 17.0036L18.0632 7.2555C17.7077 6.29847 16.8601 5.91566 16.0671 6.20277C15.1921 6.51722 14.823 7.35121 15.1648 8.30824L20.3601 22.5817C20.4831 22.9371 20.3327 23.2106 20.114 23.2789C19.8952 23.361 19.6765 23.2926 19.3894 22.9918L15.8757 19.2321C15.3562 18.6715 14.823 18.5348 14.2488 18.7536C13.3738 19.068 13.0183 19.8746 13.2917 20.6129C13.3874 20.9 13.5378 21.1188 13.6882 21.3102L18.0359 26.7379C21.6863 31.3453 25.9245 32.2203 30.0398 30.7301Z" style="fill:var(--color-1,hsl(0 0 0/0.85))"></path>
 </g>
</svg>