<svg version="1.1" xmlns="http://www.w3.org/2000/svg" xmlns:xlink="http://www.w3.org/1999/xlink" viewBox="0 0 29.9004 25.1973">
 <g>
  
  <path d="M3.14453 25.1973L26.4004 25.1973C28.4922 25.1973 29.5449 24.1855 29.5449 22.0801L29.5449 16.8438C29.5449 14.7656 28.4922 13.7402 26.4004 13.7402L3.14453 13.7402C1.05273 13.7402 0 14.7656 0 16.8438L0 22.0801C0 24.1855 1.05273 25.1973 3.14453 25.1973Z" style="fill:var(--color-0,hsl(0 0 0/0.85))"></path>
  <path d="M3.14453 11.4844L26.4004 11.4844C28.4922 11.4844 29.5449 10.459 29.5449 8.35352L29.5449 3.13086C29.5449 1.03906 28.4922 0.0273438 26.4004 0.0273438L3.14453 0.0273438C1.05273 0.0273438 0 1.03906 0 3.13086L0 8.35352C0 10.459 1.05273 11.4844 3.14453 11.4844Z" style="fill:var(--color-1,hsl(0 0 0/0.85))"></path>
 </g>
</svg>