<svg version="1.1" xmlns="http://www.w3.org/2000/svg" xmlns:xlink="http://www.w3.org/1999/xlink" viewBox="0 0 21.6289 30.0918">
 <g>
  
  <path d="M1.36719 13.7402L3.43164 13.7402L3.43164 3.77344C3.43164 2.66602 4.06055 1.99609 5.27734 1.99609L15.9824 1.99609C17.1992 1.99609 17.8418 2.66602 17.8418 3.77344L17.8418 4.83984L19.9062 4.83984L19.9062 3.48633C19.9062 1.43555 18.4844 0 16.2559 0L5.00391 0C2.77539 0 1.35352 1.43555 1.35352 3.48633ZM5.01758 29.5039L16.2695 29.5039C18.498 29.5039 19.9199 28.0547 19.9199 26.0039L19.9199 15.75L17.8555 15.75L17.8555 25.7168C17.8555 26.8379 17.2129 27.5078 15.9961 27.5078L5.29102 27.5078C4.07422 27.5078 3.43164 26.8379 3.43164 25.7168L3.43164 24.6504L1.36719 24.6504L1.36719 26.0039C1.36719 28.0547 2.78906 29.5039 5.01758 29.5039Z" style="fill:var(--color-0,hsl(0 0 0/0.85))"></path>
  <path d="M14.5059 6.52148C13.9453 6.52148 13.6445 6.95898 13.6445 7.39648C13.6445 7.83398 13.959 8.28516 14.5469 8.28516L16.6797 8.28516L18.3066 8.18945L16.7344 9.66602L14.6016 11.7852C14.3965 12.0039 14.3008 12.2363 14.3008 12.4551C14.3008 13.002 14.8066 13.4941 15.3535 13.4941C15.5723 13.4941 15.8047 13.4121 16.0098 13.207L18.1289 11.0742L19.5918 9.50195L19.5098 11.1152L19.5098 13.3027C19.5098 13.9043 19.9609 14.2051 20.3984 14.2051C20.8359 14.2051 21.2734 13.918 21.2734 13.3438L21.2734 7.65625C21.2734 6.91797 20.8633 6.52148 20.1387 6.52148ZM1.13477 22.9824L6.76758 22.9824C7.3418 22.9824 7.62891 22.5312 7.62891 22.0938C7.62891 21.6426 7.32812 21.2051 6.72656 21.2051L4.59375 21.2051L2.9668 21.3008L4.53906 19.8242L6.67188 17.7051C6.87695 17.5 6.97266 17.2676 6.97266 17.0352C6.97266 16.4883 6.4668 16.0098 5.91992 16.0098C5.70117 16.0098 5.46875 16.0781 5.26367 16.2832L3.14453 18.4297L1.68164 19.9883L1.76367 18.375L1.76367 16.1875C1.76367 15.5859 1.3125 15.2852 0.875 15.2852C0.4375 15.2852 0 15.5723 0 16.1465L0 21.834C0 22.5723 0.410156 22.9824 1.13477 22.9824Z" style="fill:var(--color-1,hsl(0 0 0/0.85))"></path>
 </g>
</svg>