<svg version="1.1" xmlns="http://www.w3.org/2000/svg" xmlns:xlink="http://www.w3.org/1999/xlink" viewBox="0 0 30.7617 25.1973">
 <g>
  
  <path d="M18.9492 25.1973L27.7949 25.1973C29.5312 25.1973 30.4062 24.3359 30.4062 22.5312L30.4062 16.4062C30.4062 14.6152 29.5312 13.7402 27.7949 13.7402L18.9492 13.7402C17.2129 13.7402 16.3379 14.6152 16.3379 16.4062L16.3379 22.5312C16.3379 24.3359 17.2129 25.1973 18.9492 25.1973ZM18.9902 23.2695C18.498 23.2695 18.2656 23.0234 18.2656 22.5312L18.2656 16.4199C18.2656 15.9141 18.498 15.668 18.9902 15.668L27.7676 15.668C28.2461 15.668 28.4785 15.9141 28.4785 16.4199L28.4785 22.5312C28.4785 23.0234 28.2461 23.2695 27.7676 23.2695Z" style="fill:var(--color-0,hsl(0 0 0/0.85))"></path>
  <path d="M2.61133 25.1973L11.457 25.1973C13.1934 25.1973 14.0684 24.3359 14.0684 22.5312L14.0684 16.4062C14.0684 14.6152 13.1934 13.7402 11.457 13.7402L2.61133 13.7402C0.875 13.7402 0 14.6152 0 16.4062L0 22.5312C0 24.3359 0.875 25.1973 2.61133 25.1973ZM2.63867 23.2695C2.16016 23.2695 1.92773 23.0234 1.92773 22.5312L1.92773 16.4199C1.92773 15.9141 2.16016 15.668 2.63867 15.668L11.416 15.668C11.8945 15.668 12.1406 15.9141 12.1406 16.4199L12.1406 22.5312C12.1406 23.0234 11.8945 23.2695 11.416 23.2695Z" style="fill:var(--color-1,hsl(0 0 0/0.85))"></path>
  <path d="M18.9492 11.4844L27.7949 11.4844C29.5312 11.4844 30.4062 10.6094 30.4062 8.80469L30.4062 2.69336C30.4062 0.888672 29.5312 0.0273438 27.7949 0.0273438L18.9492 0.0273438C17.2129 0.0273438 16.3379 0.888672 16.3379 2.69336L16.3379 8.80469C16.3379 10.6094 17.2129 11.4844 18.9492 11.4844ZM18.9902 9.55664C18.498 9.55664 18.2656 9.31055 18.2656 8.80469L18.2656 2.69336C18.2656 2.20117 18.498 1.95508 18.9902 1.95508L27.7676 1.95508C28.2461 1.95508 28.4785 2.20117 28.4785 2.69336L28.4785 8.80469C28.4785 9.31055 28.2461 9.55664 27.7676 9.55664Z" style="fill:var(--color-2,hsl(0 0 0/0.85))"></path>
  <path d="M2.61133 11.4844L11.457 11.4844C13.1934 11.4844 14.0684 10.6094 14.0684 8.80469L14.0684 2.69336C14.0684 0.888672 13.1934 0.0273438 11.457 0.0273438L2.61133 0.0273438C0.875 0.0273438 0 0.888672 0 2.69336L0 8.80469C0 10.6094 0.875 11.4844 2.61133 11.4844ZM2.63867 9.55664C2.16016 9.55664 1.92773 9.31055 1.92773 8.80469L1.92773 2.69336C1.92773 2.20117 2.16016 1.95508 2.63867 1.95508L11.416 1.95508C11.8945 1.95508 12.1406 2.20117 12.1406 2.69336L12.1406 8.80469C12.1406 9.31055 11.8945 9.55664 11.416 9.55664Z" style="fill:var(--color-3,hsl(0 0 0/0.85))"></path>
 </g>
</svg>