<svg version="1.1" xmlns="http://www.w3.org/2000/svg" xmlns:xlink="http://www.w3.org/1999/xlink" viewBox="0 0 33.4004 34.6309">
 <g>
  
  <path d="M25.1506 3.91016L7.89434 3.91016C7.95046 2.79901 8.65169 2.16016 9.81641 2.16016L23.2285 2.16016C24.3932 2.16016 25.0945 2.79901 25.1506 3.91016Z" style="fill:var(--color-0,hsl(0 0 0/0.85))"></path>
  <path d="M27.9473 7.81549C27.5075 7.7456 27.0411 7.71094 26.5508 7.71094L6.49414 7.71094C6.00391 7.71094 5.53762 7.74558 5.09803 7.81545C5.24689 6.50197 6.13568 5.76953 7.58789 5.76953L25.4707 5.76953C26.9229 5.76953 27.8005 6.50199 27.9473 7.81549Z" style="fill:var(--color-1,hsl(0 0 0/0.85))"></path>
  <path d="M6.49414 32.4297L26.5508 32.4297C29.4082 32.4297 30.8438 31.0078 30.8438 28.1914L30.8438 14.1504C30.8438 11.334 29.4082 9.91211 26.5508 9.91211L6.49414 9.91211C3.63672 9.91211 2.20117 11.334 2.20117 14.1504L2.20117 28.1914C2.20117 31.0078 3.63672 32.4297 6.49414 32.4297Z" style="fill:var(--color-2,hsl(0 0 0/0.85))"></path>
 </g>
</svg>