<svg version="1.1" xmlns="http://www.w3.org/2000/svg" xmlns:xlink="http://www.w3.org/1999/xlink" viewBox="0 0 29.8184 25.1973">
 <g>
  
  <path d="M23.7754 25.1973L26.8516 25.1973C28.5879 25.1973 29.4629 24.3359 29.4629 22.5312L29.4629 16.4062C29.4629 14.6152 28.5879 13.7402 26.8516 13.7402L23.7754 13.7402C22.0254 13.7402 21.1504 14.6152 21.1504 16.4062L21.1504 22.5312C21.1504 24.3359 22.0254 25.1973 23.7754 25.1973ZM23.7891 23.2695C23.3105 23.2695 23.0781 23.0234 23.0781 22.5312L23.0781 16.4199C23.0781 15.9141 23.3105 15.668 23.7891 15.668L26.8242 15.668C27.3027 15.668 27.5352 15.9141 27.5352 16.4199L27.5352 22.5312C27.5352 23.0234 27.3027 23.2695 26.8242 23.2695Z" style="fill:var(--color-0,hsl(0 0 0/0.85))"></path>
  <path d="M13.1934 25.1973L16.2832 25.1973C18.0195 25.1973 18.8945 24.3359 18.8945 22.5312L18.8945 16.4062C18.8945 14.6152 18.0195 13.7402 16.2832 13.7402L13.1934 13.7402C11.457 13.7402 10.582 14.6152 10.582 16.4062L10.582 22.5312C10.582 24.3359 11.457 25.1973 13.1934 25.1973ZM13.2207 23.2695C12.7422 23.2695 12.5098 23.0234 12.5098 22.5312L12.5098 16.4199C12.5098 15.9141 12.7422 15.668 13.2207 15.668L16.2559 15.668C16.7344 15.668 16.9668 15.9141 16.9668 16.4199L16.9668 22.5312C16.9668 23.0234 16.7344 23.2695 16.2559 23.2695Z" style="fill:var(--color-1,hsl(0 0 0/0.85))"></path>
  <path d="M2.61133 25.1973L5.70117 25.1973C7.4375 25.1973 8.3125 24.3359 8.3125 22.5312L8.3125 16.4062C8.3125 14.6152 7.4375 13.7402 5.70117 13.7402L2.61133 13.7402C0.875 13.7402 0 14.6152 0 16.4062L0 22.5312C0 24.3359 0.875 25.1973 2.61133 25.1973ZM2.63867 23.2695C2.16016 23.2695 1.92773 23.0234 1.92773 22.5312L1.92773 16.4199C1.92773 15.9141 2.16016 15.668 2.63867 15.668L5.66016 15.668C6.13867 15.668 6.38477 15.9141 6.38477 16.4199L6.38477 22.5312C6.38477 23.0234 6.13867 23.2695 5.66016 23.2695Z" style="fill:var(--color-2,hsl(0 0 0/0.85))"></path>
  <path d="M23.7754 11.4844L26.8516 11.4844C28.5879 11.4844 29.4629 10.6094 29.4629 8.80469L29.4629 2.69336C29.4629 0.888672 28.5879 0.0273438 26.8516 0.0273438L23.7754 0.0273438C22.0254 0.0273438 21.1504 0.888672 21.1504 2.69336L21.1504 8.80469C21.1504 10.6094 22.0254 11.4844 23.7754 11.4844ZM23.7891 9.55664C23.3105 9.55664 23.0781 9.31055 23.0781 8.80469L23.0781 2.69336C23.0781 2.20117 23.3105 1.95508 23.7891 1.95508L26.8242 1.95508C27.3027 1.95508 27.5352 2.20117 27.5352 2.69336L27.5352 8.80469C27.5352 9.31055 27.3027 9.55664 26.8242 9.55664Z" style="fill:var(--color-3,hsl(0 0 0/0.85))"></path>
  <path d="M13.1934 11.4844L16.2832 11.4844C18.0195 11.4844 18.8945 10.6094 18.8945 8.80469L18.8945 2.69336C18.8945 0.888672 18.0195 0.0273438 16.2832 0.0273438L13.1934 0.0273438C11.457 0.0273438 10.582 0.888672 10.582 2.69336L10.582 8.80469C10.582 10.6094 11.457 11.4844 13.1934 11.4844ZM13.2207 9.55664C12.7422 9.55664 12.5098 9.31055 12.5098 8.80469L12.5098 2.69336C12.5098 2.20117 12.7422 1.95508 13.2207 1.95508L16.2559 1.95508C16.7344 1.95508 16.9668 2.20117 16.9668 2.69336L16.9668 8.80469C16.9668 9.31055 16.7344 9.55664 16.2559 9.55664Z" style="fill:var(--color-4,hsl(0 0 0/0.85))"></path>
  <path d="M2.61133 11.4844L5.70117 11.4844C7.4375 11.4844 8.3125 10.6094 8.3125 8.80469L8.3125 2.69336C8.3125 0.888672 7.4375 0.0273438 5.70117 0.0273438L2.61133 0.0273438C0.875 0.0273438 0 0.888672 0 2.69336L0 8.80469C0 10.6094 0.875 11.4844 2.61133 11.4844ZM2.63867 9.55664C2.16016 9.55664 1.92773 9.31055 1.92773 8.80469L1.92773 2.69336C1.92773 2.20117 2.16016 1.95508 2.63867 1.95508L5.66016 1.95508C6.13867 1.95508 6.38477 2.20117 6.38477 2.69336L6.38477 8.80469C6.38477 9.31055 6.13867 9.55664 5.66016 9.55664Z" style="fill:var(--color-5,hsl(0 0 0/0.85))"></path>
 </g>
</svg>