<?xml version="1.0" encoding="UTF-8"?>
<!--Generator: Apple Native CoreSVG 326-->
<!DOCTYPE svg
PUBLIC "-//W3C//DTD SVG 1.1//EN"
       "http://www.w3.org/Graphics/SVG/1.1/DTD/svg11.dtd">
<svg version="1.1" xmlns="http://www.w3.org/2000/svg" xmlns:xlink="http://www.w3.org/1999/xlink" viewBox="0 0 24.6777 29.3809">
 <g>
  <rect height="29.3809" opacity="0" width="24.6777" x="0" y="0"/>
  <path d="M8.13477 29.3672L20.1523 29.3672C22.75 29.3672 24.3086 27.8359 24.3086 25.2656L24.3223 4.14258C24.3223 1.66797 22.6543 0 20.1934 0L15.9961 0C13.8496 0 12.0586 0.560547 10.377 2.10547L1.73633 10.0488C0.574219 11.1152 0 12.6191 0 14.4922L0 21.2324C0 26.1816 3.18555 29.3672 8.13477 29.3672Z" fill="white" fill-opacity="0.85"/>
  <path d="M9.70703 24.1309C8.58594 24.1309 8.02539 23.584 8.02539 22.4629L8.02539 16.7754C8.02539 15.6816 8.58594 15.1211 9.70703 15.1211L17.8691 15.1211C18.9629 15.1211 19.5508 15.6816 19.5508 16.7754L19.5508 22.4629C19.5508 23.584 18.9629 24.1309 17.8691 24.1309ZM5.35938 19.9062L5.35938 14.2461C5.35938 13.125 5.93359 12.5781 7.02734 12.5781L15.1758 12.5781C16.2832 12.5781 16.8301 13.1113 16.8574 14.1641L16.8574 14.2188L9.70703 14.2188C8.06641 14.2188 7.12305 15.1895 7.12305 16.7754L7.12305 21.5605L7.02734 21.5605C5.93359 21.5605 5.35938 21 5.35938 19.9062Z" fill="white"/>
 </g>
</svg>
