<?xml version="1.0" encoding="UTF-8"?>
<!--Generator: Apple Native CoreSVG 326-->
<!DOCTYPE svg
PUBLIC "-//W3C//DTD SVG 1.1//EN"
       "http://www.w3.org/Graphics/SVG/1.1/DTD/svg11.dtd">
<svg version="1.1" xmlns="http://www.w3.org/2000/svg" xmlns:xlink="http://www.w3.org/1999/xlink" viewBox="0 0 30.7617 25.1973">
 <g>
  <rect height="25.1973" opacity="0" width="30.7617" x="0" y="0"/>
  <path d="M18.9492 25.1973L27.7949 25.1973C29.5312 25.1973 30.4062 24.3359 30.4062 22.5312L30.4062 16.4062C30.4062 14.6152 29.5312 13.7402 27.7949 13.7402L18.9492 13.7402C17.2129 13.7402 16.3379 14.6152 16.3379 16.4062L16.3379 22.5312C16.3379 24.3359 17.2129 25.1973 18.9492 25.1973Z" fill="white" fill-opacity="0.85"/>
  <path d="M2.61133 25.1973L11.457 25.1973C13.1934 25.1973 14.0684 24.3359 14.0684 22.5312L14.0684 16.4062C14.0684 14.6152 13.1934 13.7402 11.457 13.7402L2.61133 13.7402C0.875 13.7402 0 14.6152 0 16.4062L0 22.5312C0 24.3359 0.875 25.1973 2.61133 25.1973Z" fill="white" fill-opacity="0.85"/>
  <path d="M18.9492 11.4844L27.7949 11.4844C29.5312 11.4844 30.4062 10.6094 30.4062 8.80469L30.4062 2.69336C30.4062 0.888672 29.5312 0.0273438 27.7949 0.0273438L18.9492 0.0273438C17.2129 0.0273438 16.3379 0.888672 16.3379 2.69336L16.3379 8.80469C16.3379 10.6094 17.2129 11.4844 18.9492 11.4844Z" fill="white" fill-opacity="0.85"/>
  <path d="M2.61133 11.4844L11.457 11.4844C13.1934 11.4844 14.0684 10.6094 14.0684 8.80469L14.0684 2.69336C14.0684 0.888672 13.1934 0.0273438 11.457 0.0273438L2.61133 0.0273438C0.875 0.0273438 0 0.888672 0 2.69336L0 8.80469C0 10.6094 0.875 11.4844 2.61133 11.4844Z" fill="white" fill-opacity="0.85"/>
 </g>
</svg>
