<?xml version="1.0" encoding="UTF-8"?>
<!--Generator: Apple Native CoreSVG 326-->
<!DOCTYPE svg
PUBLIC "-//W3C//DTD SVG 1.1//EN"
       "http://www.w3.org/Graphics/SVG/1.1/DTD/svg11.dtd">
<svg version="1.1" xmlns="http://www.w3.org/2000/svg" xmlns:xlink="http://www.w3.org/1999/xlink" viewBox="0 0 35.7109 29.3262">
 <g>
  <rect height="29.3262" opacity="0" width="35.7109" x="0" y="0"/>
  <path d="M24.8008 4.29297L24.8008 11.0059L22.5996 11.0059L22.5996 4.33398C22.5996 2.9668 21.875 2.20117 20.4531 2.20117L6.16602 2.20117C4.74414 2.20117 4.00586 2.9668 4.00586 4.33398L4.00586 24.9922C4.00586 26.3594 4.74414 27.1113 6.16602 27.1113L20.4531 27.1113C21.875 27.1113 22.5996 26.3594 22.5996 24.9922L22.5996 18.3066L24.8008 18.3066L24.8008 25.0332C24.8008 27.8906 23.3926 29.3125 20.5625 29.3125L6.04297 29.3125C3.22656 29.3125 1.80469 27.8906 1.80469 25.0332L1.80469 4.29297C1.80469 1.44922 3.22656 0 6.04297 0L20.5625 0C23.3926 0 24.8008 1.44922 24.8008 4.29297Z" fill="white" fill-opacity="0.85"/>
  <path d="M13.5488 14.6562C13.5488 15.2441 14.0273 15.7363 14.6016 15.7363L28.5195 15.7363L30.5566 15.6543L29.75 16.4199L27.4941 18.5391C27.2754 18.7305 27.166 19.0176 27.166 19.2773C27.166 19.8379 27.5762 20.2754 28.1367 20.2754C28.4238 20.2754 28.6426 20.1523 28.8477 19.9473L33.1953 15.4492C33.4688 15.1758 33.5645 14.9297 33.5645 14.6562C33.5645 14.3691 33.4688 14.1367 33.1953 13.8633L28.8477 9.35156C28.6426 9.14648 28.4238 9.03711 28.1367 9.03711C27.5762 9.03711 27.166 9.44727 27.166 10.0215C27.166 10.2812 27.2754 10.582 27.4941 10.7734L29.75 12.8789L30.5703 13.6582L28.5195 13.5625L14.6016 13.5625C14.0273 13.5625 13.5488 14.0684 13.5488 14.6562Z" fill="white" fill-opacity="0.85"/>
 </g>
</svg>
