<?xml version="1.0" encoding="UTF-8"?>
<!--Generator: Apple Native CoreSVG 326-->
<!DOCTYPE svg
PUBLIC "-//W3C//DTD SVG 1.1//EN"
       "http://www.w3.org/Graphics/SVG/1.1/DTD/svg11.dtd">
<svg version="1.1" xmlns="http://www.w3.org/2000/svg" xmlns:xlink="http://www.w3.org/1999/xlink" viewBox="0 0 28.0547 34.0293">
 <g>
  <rect height="34.0293" opacity="0" width="28.0547" x="0" y="0"/>
  <path d="M21.3691 4.29297L21.3691 6.75391L19.168 6.75391L19.168 4.33398C19.168 2.9668 18.4434 2.20117 17.0215 2.20117L4.34766 2.20117C2.92578 2.20117 2.20117 2.9668 2.20117 4.33398L2.20117 22.9414C2.20117 24.2812 2.92578 25.0605 4.34766 25.0605L6.33008 25.0605L6.33008 27.2617L4.23828 27.2617C1.42188 27.2617 0 25.8262 0 22.9688L0 4.29297C0 1.43555 1.4082 0 4.23828 0L17.1309 0C19.9609 0 21.3691 1.43555 21.3691 4.29297Z" fill="white" fill-opacity="0.85"/>
  <path d="M27.6992 11.0469C27.6992 8.18945 26.291 6.75391 23.4609 6.75391L10.5684 6.75391C7.73828 6.75391 6.33008 8.18945 6.33008 11.0469L6.33008 29.7227C6.33008 32.5801 7.75195 34.0156 10.5684 34.0156L23.4609 34.0156C26.2773 34.0156 27.6992 32.5801 27.6992 29.7227ZM25.498 11.0879L25.498 29.6953C25.498 31.0352 24.7734 31.8145 23.3516 31.8145L10.6777 31.8145C9.25586 31.8145 8.53125 31.0352 8.53125 29.6953L8.53125 11.0879C8.53125 9.7207 9.25586 8.95508 10.6777 8.95508L23.3516 8.95508C24.7734 8.95508 25.498 9.7207 25.498 11.0879Z" fill="white" fill-opacity="0.85"/>
 </g>
</svg>
