<svg version="1.1" xmlns="http://www.w3.org/2000/svg" xmlns:xlink="http://www.w3.org/1999/xlink" viewBox="0 0 37.4062 31.4316">
 <g>
  
  <path d="M28.7793 6.09766L28.7793 6.33008L12.5645 6.33008C8.66797 6.33008 6.41211 8.57227 6.41211 12.4277L6.41211 23.2285L5.81055 23.2285C2.95312 23.2285 1.51758 21.8203 1.51758 18.9902L1.51758 6.09766C1.51758 3.28125 2.95312 1.85938 5.81055 1.85938L24.4863 1.85938C27.3438 1.85938 28.7793 3.28125 28.7793 6.09766Z" style="fill:var(--color-0,hsl(0 0 0/0.85))"></path>
  <path d="M12.5645 29.5586L31.2402 29.5586C34.0977 29.5586 35.5332 28.1367 35.5332 25.3203L35.5332 12.4277C35.5332 9.61133 34.0977 8.18945 31.2402 8.18945L12.5645 8.18945C9.70703 8.18945 8.27148 9.61133 8.27148 12.4277L8.27148 25.3203C8.27148 28.1504 9.70703 29.5586 12.5645 29.5586Z" style="fill:var(--color-1,hsl(0 0 0/0.85))"></path>
 </g>
</svg>