<?xml version="1.0" encoding="UTF-8"?>
<!--Generator: Apple Native CoreSVG 326-->
<!DOCTYPE svg
PUBLIC "-//W3C//DTD SVG 1.1//EN"
       "http://www.w3.org/Graphics/SVG/1.1/DTD/svg11.dtd">
<svg version="1.1" xmlns="http://www.w3.org/2000/svg" xmlns:xlink="http://www.w3.org/1999/xlink" viewBox="0 0 32.1016 29.3262">
 <g>
  <rect height="29.3262" opacity="0" width="32.1016" x="0" y="0"/>
  <path d="M4.23828 29.3125L18.7578 29.3125C21.5879 29.3125 22.9961 27.8906 22.9961 25.0332L22.9961 4.29297C22.9961 1.44922 21.5879 0 18.7578 0L4.23828 0C1.4082 0 0 1.44922 0 4.29297L0 25.0332C0 27.8906 1.4082 29.3125 4.23828 29.3125ZM11.7441 14.6562C11.7441 14.0684 12.2227 13.5625 12.7969 13.5625L26.7012 13.5625L28.752 13.6582L27.9453 12.8789L25.6895 10.7734C25.4707 10.582 25.3613 10.2812 25.3613 10.0215C25.3613 9.44727 25.7715 9.03711 26.3184 9.03711C26.6191 9.03711 26.8379 9.14648 27.043 9.35156L31.3906 13.8633C31.6641 14.1367 31.7461 14.3691 31.7461 14.6562C31.7461 14.9297 31.6641 15.1758 31.3906 15.4492L27.043 19.9473C26.8379 20.1523 26.6191 20.2754 26.3184 20.2754C25.7715 20.2754 25.3613 19.8379 25.3613 19.2773C25.3613 19.0176 25.4707 18.7305 25.6895 18.5391L27.9453 16.4199L28.752 15.6543L26.7012 15.7363L12.7969 15.7363C12.2227 15.7363 11.7441 15.2441 11.7441 14.6562Z" fill="white" fill-opacity="0.85"/>
 </g>
</svg>
