<?xml version="1.0" encoding="UTF-8"?>
<!--Generator: Apple Native CoreSVG 326-->
<!DOCTYPE svg
PUBLIC "-//W3C//DTD SVG 1.1//EN"
       "http://www.w3.org/Graphics/SVG/1.1/DTD/svg11.dtd">
<svg version="1.1" xmlns="http://www.w3.org/2000/svg" xmlns:xlink="http://www.w3.org/1999/xlink" viewBox="0 0 38.0452 33.2278">
 <g>
  <rect height="33.2278" opacity="0" width="38.0452" x="0" y="0"/>
  <path d="M28.962 4.95863L28.962 11.0318C27.5652 10.4121 26.0657 10.762 25.2159 11.3844C23.9992 10.5094 22.5089 10.5641 21.4425 11.0153L19.8156 6.59925C19.1183 4.67152 17.2042 3.76918 15.4132 4.42543C13.5538 5.10902 12.7199 7.02308 13.4171 8.92347L16.548 17.5094L16.1652 17.1403C15.3449 16.6891 14.4425 16.6618 13.5812 16.9899C11.8175 17.6461 10.9015 19.4782 11.5304 21.2145C11.6945 21.6657 11.9406 22.0895 12.2277 22.445L12.5674 22.8688L6.70423 22.8688C3.92884 22.8688 2.54798 21.5153 2.54798 18.7672L2.54798 4.95863C2.54798 2.19691 3.92884 0.857066 6.70423 0.857066L24.8195 0.857066C27.5949 0.857066 28.962 2.19691 28.962 4.95863Z" fill="white" fill-opacity="0.85"/>
  <path d="M30.0558 30.7164C35.6339 28.693 37.4796 24.0719 35.3195 18.0973L34.4171 15.6227C33.5968 13.3668 32.0109 12.3688 30.7804 12.82C30.507 12.9293 30.4113 13.1207 30.507 13.3805L30.9034 14.4879C31.0812 14.9938 30.9171 15.3629 30.6163 15.4723C30.2745 15.5953 29.9054 15.4313 29.7277 14.9118L29.4679 14.1871C28.9757 12.861 27.8273 12.3004 26.6652 12.7243C26.1456 12.9157 25.9816 13.2164 26.1456 13.6676L26.6925 15.1442C26.8839 15.6637 26.7062 16.0055 26.4054 16.1149C26.0773 16.2379 25.7081 16.0875 25.5304 15.5817L25.0382 14.1871C24.505 12.6969 23.3566 12.3278 22.2355 12.7243C21.757 12.902 21.5792 13.2301 21.7296 13.6539L22.7824 16.5661C22.9738 17.0856 22.796 17.4411 22.5089 17.5504C22.1671 17.6735 21.8117 17.5094 21.6202 16.9899L18.0792 7.24183C17.7238 6.2848 16.8761 5.90199 16.0831 6.1891C15.2081 6.51722 14.839 7.33753 15.1808 8.29457L20.3898 22.568C20.5128 22.9235 20.3488 23.1969 20.13 23.2653C19.9113 23.3336 19.6925 23.2789 19.4054 22.9782L15.8917 19.2184C15.3722 18.6578 14.839 18.5211 14.2648 18.7399C13.3898 19.068 13.0343 19.861 13.3077 20.5993C13.4034 20.8864 13.5538 21.1051 13.7042 21.2965L18.0519 26.7243C21.7159 31.318 25.9406 32.2067 30.0558 30.7164Z" fill="white" fill-opacity="0.85"/>
 </g>
</svg>
