<svg version="1.1" xmlns="http://www.w3.org/2000/svg" xmlns:xlink="http://www.w3.org/1999/xlink" viewBox="0 0 37.4062 35.4991">
 <g>
  
  <path d="M7.82214 10.1951C6.9009 11.2217 6.41211 12.6668 6.41211 14.4615L6.41211 25.2622L5.81055 25.2622C2.95312 25.2622 1.51758 23.854 1.51758 21.024L1.51758 8.13138C1.51758 6.72706 1.87449 5.66946 2.58697 4.96231ZM28.7793 8.13138L28.7793 8.3638L13.5044 8.3638L9.03571 3.8931L24.4863 3.8931C27.3438 3.8931 28.7793 5.31497 28.7793 8.13138Z" style="fill:var(--color-0,hsl(0 0 0/0.85))"></path>
  <path d="M29.2291 31.5923L12.5645 31.5923C9.70703 31.5923 8.27148 30.1841 8.27148 27.354L8.27148 14.4615C8.27148 13.196 8.56131 12.212 9.1423 11.5147ZM35.5332 14.4615L35.5332 27.354C35.5332 28.3655 35.3481 29.197 34.9752 29.8444L15.3629 10.2232L31.2402 10.2232C34.0977 10.2232 35.5332 11.6451 35.5332 14.4615Z" style="fill:var(--color-1,hsl(0 0 0/0.85))"></path>
  <path d="M33.4824 33.6021C33.9062 34.0122 34.5762 34.0122 34.9727 33.6021C35.3828 33.1783 35.3828 32.522 34.9727 32.1118L4.8125 1.92435C4.40234 1.52787 3.73242 1.51419 3.30859 1.92435C2.91211 2.33451 2.91211 3.0181 3.30859 3.41458Z" style="fill:var(--color-2,hsl(0 0 0/0.85))"></path>
 </g>
</svg>