<?xml version="1.0" encoding="UTF-8"?>
<!--Generator: Apple Native CoreSVG 326-->
<!DOCTYPE svg
PUBLIC "-//W3C//DTD SVG 1.1//EN"
       "http://www.w3.org/Graphics/SVG/1.1/DTD/svg11.dtd">
<svg version="1.1" xmlns="http://www.w3.org/2000/svg" xmlns:xlink="http://www.w3.org/1999/xlink" viewBox="0 0 38.2539 31.4316">
 <g>
  <rect height="31.4316" opacity="0" width="38.2539" x="0" y="0"/>
  <path d="M28.4785 4.38867L28.8212 6.33008L13.4121 6.33008C9.51562 6.33008 7.25977 8.57227 7.25977 12.4277L7.25977 25.3203C7.25977 25.329 7.25978 25.3377 7.26071 25.3457C5.38488 25.212 4.26438 24.0334 3.88281 21.8203L1.62695 9.11914C1.14844 6.34375 2.31055 4.70312 5.12695 4.19727L23.5156 0.957031C26.332 0.464844 27.9863 1.61328 28.4785 4.38867Z" fill="white" fill-opacity="0.85"/>
  <path d="M13.4121 29.5586L32.0879 29.5586C34.9453 29.5586 36.3809 28.1367 36.3809 25.3203L36.3809 12.4277C36.3809 9.61133 34.9453 8.18945 32.0879 8.18945L13.4121 8.18945C10.5547 8.18945 9.11914 9.61133 9.11914 12.4277L9.11914 25.3203C9.11914 28.1504 10.5547 29.5586 13.4121 29.5586Z" fill="white" fill-opacity="0.85"/>
 </g>
</svg>
