<svg version="1.1" xmlns="http://www.w3.org/2000/svg" xmlns:xlink="http://www.w3.org/1999/xlink" viewBox="0 0 25.5254 16.4746">
 <g>
  
  <path d="M0 4.32031L0 12.1816C0 15.0527 1.42188 16.4746 4.23828 16.4746L20.9316 16.4746C23.748 16.4746 25.1699 15.0527 25.1699 12.1816L25.1699 4.32031C25.1699 1.46289 23.7617 0.0273438 20.9316 0.0273438L4.23828 0.0273438C1.4082 0.0273438 0 1.46289 0 4.32031ZM2.20117 4.34766C2.20117 2.98047 2.92578 2.22852 4.34766 2.22852L20.8223 2.22852C22.2441 2.22852 22.9688 2.98047 22.9688 4.34766L22.9688 12.1543C22.9688 13.4941 22.2441 14.2734 20.8223 14.2734L4.34766 14.2734C2.92578 14.2734 2.20117 13.4941 2.20117 12.1543Z" style="fill:var(--color-0,hsl(0 0 0/0.85))"></path>
 </g>
</svg>