<svg version="1.1" xmlns="http://www.w3.org/2000/svg" xmlns:xlink="http://www.w3.org/1999/xlink" viewBox="0 0 29.8184 25.1973">
 <g>
  
  <path d="M23.7754 25.1973L26.8516 25.1973C28.5879 25.1973 29.4629 24.3359 29.4629 22.5312L29.4629 16.4062C29.4629 14.6152 28.5879 13.7402 26.8516 13.7402L23.7754 13.7402C22.0254 13.7402 21.1504 14.6152 21.1504 16.4062L21.1504 22.5312C21.1504 24.3359 22.0254 25.1973 23.7754 25.1973Z" style="fill:var(--color-0,hsl(0 0 0/0.85))"></path>
  <path d="M13.1934 25.1973L16.2832 25.1973C18.0195 25.1973 18.8945 24.3359 18.8945 22.5312L18.8945 16.4062C18.8945 14.6152 18.0195 13.7402 16.2832 13.7402L13.1934 13.7402C11.457 13.7402 10.582 14.6152 10.582 16.4062L10.582 22.5312C10.582 24.3359 11.457 25.1973 13.1934 25.1973Z" style="fill:var(--color-1,hsl(0 0 0/0.85))"></path>
  <path d="M2.61133 25.1973L5.70117 25.1973C7.4375 25.1973 8.3125 24.3359 8.3125 22.5312L8.3125 16.4062C8.3125 14.6152 7.4375 13.7402 5.70117 13.7402L2.61133 13.7402C0.875 13.7402 0 14.6152 0 16.4062L0 22.5312C0 24.3359 0.875 25.1973 2.61133 25.1973Z" style="fill:var(--color-2,hsl(0 0 0/0.85))"></path>
  <path d="M23.7754 11.4844L26.8516 11.4844C28.5879 11.4844 29.4629 10.6094 29.4629 8.80469L29.4629 2.69336C29.4629 0.888672 28.5879 0.0273438 26.8516 0.0273438L23.7754 0.0273438C22.0254 0.0273438 21.1504 0.888672 21.1504 2.69336L21.1504 8.80469C21.1504 10.6094 22.0254 11.4844 23.7754 11.4844Z" style="fill:var(--color-3,hsl(0 0 0/0.85))"></path>
  <path d="M13.1934 11.4844L16.2832 11.4844C18.0195 11.4844 18.8945 10.6094 18.8945 8.80469L18.8945 2.69336C18.8945 0.888672 18.0195 0.0273438 16.2832 0.0273438L13.1934 0.0273438C11.457 0.0273438 10.582 0.888672 10.582 2.69336L10.582 8.80469C10.582 10.6094 11.457 11.4844 13.1934 11.4844Z" style="fill:var(--color-4,hsl(0 0 0/0.85))"></path>
  <path d="M2.61133 11.4844L5.70117 11.4844C7.4375 11.4844 8.3125 10.6094 8.3125 8.80469L8.3125 2.69336C8.3125 0.888672 7.4375 0.0273438 5.70117 0.0273438L2.61133 0.0273438C0.875 0.0273438 0 0.888672 0 2.69336L0 8.80469C0 10.6094 0.875 11.4844 2.61133 11.4844Z" style="fill:var(--color-5,hsl(0 0 0/0.85))"></path>
 </g>
</svg>