<?xml version="1.0" encoding="UTF-8"?>
<!--Generator: Apple Native CoreSVG 326-->
<!DOCTYPE svg
PUBLIC "-//W3C//DTD SVG 1.1//EN"
       "http://www.w3.org/Graphics/SVG/1.1/DTD/svg11.dtd">
<svg version="1.1" xmlns="http://www.w3.org/2000/svg" xmlns:xlink="http://www.w3.org/1999/xlink" viewBox="0 0 30.4883 30.0371">
 <g>
  <rect height="30.0371" opacity="0" width="30.4883" x="0" y="0"/>
  <path d="M8.4082 30.0371C9.07812 30.0371 9.54297 29.6816 10.377 28.9434L15.0938 24.7461L23.8711 24.7461C27.9453 24.7461 30.1328 22.4902 30.1328 18.4844L30.1328 8.01172C30.1328 4.00586 27.9453 1.75 23.8711 1.75L6.26172 1.75C2.1875 1.75 0 3.99219 0 8.01172L0 18.4844C0 22.5039 2.1875 24.7461 6.26172 24.7461L6.91797 24.7461L6.91797 28.3008C6.91797 29.3535 7.45117 30.0371 8.4082 30.0371ZM8.96875 27.5352L8.96875 23.5703C8.96875 22.832 8.68164 22.5449 7.94336 22.5449L6.26172 22.5449C3.5 22.5449 2.20117 21.1367 2.20117 18.4707L2.20117 8.01172C2.20117 5.3457 3.5 3.95117 6.26172 3.95117L23.8711 3.95117C26.6191 3.95117 27.9316 5.3457 27.9316 8.01172L27.9316 18.4707C27.9316 21.1367 26.6191 22.5449 23.8711 22.5449L15.0117 22.5449C14.2461 22.5449 13.8633 22.6543 13.3438 23.1875Z" fill="white" fill-opacity="0.85"/>
  <path d="M7.20508 12.9062L13.207 12.9062C14.1914 12.9062 14.6836 12.4277 14.6836 11.4297L14.6836 8.70898C14.6836 7.72461 14.1914 7.25977 13.207 7.25977L7.20508 7.25977C6.20703 7.25977 5.70117 7.72461 5.70117 8.70898L5.70117 11.4297C5.70117 12.4277 6.20703 12.9062 7.20508 12.9062ZM8.85938 19.1953L14.0137 19.1953C14.998 19.1953 15.4902 18.7168 15.4902 17.7188L15.4902 15.873C15.4902 14.8887 14.998 14.4102 14.0137 14.4102L8.85938 14.4102C7.875 14.4102 7.38281 14.8887 7.38281 15.873L7.38281 17.7188C7.38281 18.7168 7.875 19.1953 8.85938 19.1953ZM18.5117 18.375L22.7773 18.375C23.7617 18.375 24.2539 17.8965 24.2539 16.9121L24.2539 9.65234C24.2539 8.66797 23.7617 8.18945 22.7773 8.18945L18.5117 8.18945C17.5137 8.18945 17.0215 8.66797 17.0215 9.65234L17.0215 16.9121C17.0215 17.8965 17.5137 18.375 18.5117 18.375Z" fill="white" fill-opacity="0.85"/>
 </g>
</svg>
