<svg version="1.1" xmlns="http://www.w3.org/2000/svg" xmlns:xlink="http://www.w3.org/1999/xlink" viewBox="0 0 33.0552 32.8194">
 <g>
  
  <path d="M2.88661 6.67675C2.58351 7.03383 2.42506 7.53921 2.42506 8.18607L2.42506 24.647C2.42506 26.0689 3.19068 26.7935 4.55787 26.7935L15.2493 26.7935L15.2493 19.0271L17.4504 21.2261L17.4504 26.7935L23.0234 26.7935L25.2267 28.9947L4.51685 28.9947C1.6731 28.9947 0.223886 27.5865 0.223886 24.7701L0.223886 8.06302C0.223886 6.72336 0.551779 5.69922 1.20565 4.99746ZM32.4758 8.06302L32.4758 24.7701C32.4758 26.0907 32.1602 27.1017 31.5262 27.7989L29.8413 26.114C30.1245 25.761 30.2747 25.2712 30.2747 24.647L30.2747 8.18607C30.2747 6.76419 29.4954 6.02591 28.1419 6.02591L17.4504 6.02591L17.4504 13.7232L15.2493 11.522L15.2493 6.02591L9.75318 6.02591L7.55201 3.82474L28.1829 3.82474C31.0403 3.82474 32.4758 5.24662 32.4758 8.06302Z" style="fill:var(--color-0,hsl(0 0 0/0.85))"></path>
  <path d="M29.4133 30.9087C29.8235 31.3189 30.4934 31.3326 30.9036 30.9087C31.3001 30.4986 31.3137 29.8286 30.9036 29.4185L3.39576 1.93802C2.9856 1.52787 2.31568 1.51419 1.89185 1.93802C1.49537 2.33451 1.49537 3.0181 1.89185 3.42826Z" style="fill:var(--color-1,hsl(0 0 0/0.85))"></path>
 </g>
</svg>