<svg version="1.1" xmlns="http://www.w3.org/2000/svg" xmlns:xlink="http://www.w3.org/1999/xlink" viewBox="0 0 31.3018 30.9566">
 <g>
  
  <path d="M16.5737 20.3165L25.5994 29.3374C24.9091 29.8652 23.9557 30.1277 22.7397 30.1277L16.5737 30.1277ZM14.3862 18.1302L14.3862 30.1277L8.22021 30.1277C5.39014 30.1277 3.98193 28.7058 3.98193 25.8484L3.98193 7.73145ZM26.978 5.10816L26.978 23.2114L16.5737 12.8127L16.5737 0.815194L22.7397 0.815194C25.5698 0.815194 26.978 2.26441 26.978 5.10816ZM5.36632 1.61125C6.0559 1.08129 7.00752 0.815194 8.22021 0.815194L14.3862 0.815194L14.3862 10.6263Z" style="fill:var(--color-0,hsl(0 0 0/0.85))"></path>
  <path d="M27.5522 29.0339C27.9761 29.4441 28.646 29.4441 29.0425 29.0339C29.4526 28.6101 29.4526 27.9402 29.0425 27.53L3.40771 1.90894C2.99756 1.49879 2.31396 1.48512 1.90381 1.90894C1.49365 2.30543 1.49365 3.00269 1.90381 3.39918Z" style="fill:var(--color-1,hsl(0 0 0/0.85))"></path>
 </g>
</svg>