<svg version="1.1" xmlns="http://www.w3.org/2000/svg" xmlns:xlink="http://www.w3.org/1999/xlink" viewBox="0 0 33.9062 23.8574">
 <g>
  
  <path d="M29.9824 10.0488L32.1562 10.0488L32.1562 5.18164C32.1562 3.07617 30.5703 1.53125 28.2871 1.53125L13.4121 1.53125L13.4121 3.70508L28 3.70508C29.2305 3.70508 29.9824 4.51172 29.9824 5.63281ZM20.1387 22.0527L20.1387 19.8789L5.55078 19.8789C4.32031 19.8789 3.56836 19.0586 3.56836 17.9375L3.56836 13.5215L1.39453 13.5215L1.39453 18.4023C1.39453 20.4941 2.98047 22.0527 5.26367 22.0527Z" style="fill:var(--color-0,hsl(0 0 0/0.85))"></path>
  <path d="M8.38086 9.59766C9.07812 9.59766 9.59766 9.11914 9.59766 8.43555C9.59766 8.10742 9.46094 7.83398 9.24219 7.60156L6.95898 5.30469L3.47266 1.99609L6.64453 2.20117L8.47656 2.20117C9.13281 2.20117 9.625 1.76367 9.625 1.09375C9.625 0.4375 9.13281 0 8.47656 0L1.96875 0C0.724609 0 0 0.724609 0 1.96875L0 8.44922C0 9.10547 0.464844 9.59766 1.10742 9.59766C1.76367 9.59766 2.20117 9.11914 2.20117 8.44922L2.20117 6.61719L1.99609 3.45898L5.31836 6.93164L7.60156 9.25586C7.82031 9.47461 8.09375 9.59766 8.38086 9.59766ZM25.1699 13.8496C24.4727 13.8496 23.9531 14.3145 23.9531 14.998C23.9531 15.3262 24.0898 15.5996 24.3086 15.832L26.5918 18.1289L30.0918 21.4512L26.9062 21.2461L25.0742 21.2461C24.418 21.2461 23.9258 21.6836 23.9258 22.3398C23.9258 22.9961 24.418 23.4473 25.0742 23.4473L31.582 23.4473C32.8262 23.4473 33.5508 22.7227 33.5508 21.4785L33.5508 14.9844C33.5508 14.3418 33.0859 13.8359 32.4434 13.8359C31.7871 13.8359 31.3496 14.3145 31.3496 14.9844L31.3496 16.8164L31.5547 19.9746L28.2461 16.502L25.9492 14.1777C25.7305 13.959 25.457 13.8496 25.1699 13.8496Z" style="fill:var(--color-1,hsl(0 0 0/0.85))"></path>
 </g>
</svg>