<?xml version="1.0" encoding="UTF-8"?>
<!--Generator: Apple Native CoreSVG 326-->
<!DOCTYPE svg
PUBLIC "-//W3C//DTD SVG 1.1//EN"
       "http://www.w3.org/Graphics/SVG/1.1/DTD/svg11.dtd">
<svg version="1.1" xmlns="http://www.w3.org/2000/svg" xmlns:xlink="http://www.w3.org/1999/xlink" viewBox="0 0 31.1172 32.9082">
 <g>
  <rect height="32.9082" opacity="0" width="31.1172" x="0" y="0"/>
  <path d="M3.86914 25.4844L8.33984 25.4844L8.33984 23.4199L4.15625 23.4199C2.92578 23.4199 2.17383 22.5996 2.17383 21.4785L2.17383 11.1426C2.17383 10.0215 2.92578 9.21484 4.15625 9.21484L8.33984 9.21484L8.33984 7.15039L3.86914 7.15039C1.58594 7.15039 0 8.69531 0 10.8008L0 21.834C0 23.9258 1.58594 25.4844 3.86914 25.4844ZM26.8926 25.4844C29.1758 25.4844 30.7617 23.9258 30.7617 21.834L30.7617 10.8008C30.7617 8.69531 29.1758 7.15039 26.8926 7.15039L22.4219 7.15039L22.4219 9.21484L26.6055 9.21484C27.8359 9.21484 28.5879 10.0215 28.5879 11.1426L28.5879 21.4785C28.5879 22.5996 27.8359 23.4199 26.6055 23.4199L22.4219 23.4199L22.4219 25.4844Z" fill="white" fill-opacity="0.85"/>
  <path d="M15.3809 32.6211C15.668 32.6211 15.8867 32.5117 16.1738 32.252L20.7266 28.0137C20.959 27.8086 21.082 27.5625 21.082 27.248C21.082 26.6875 20.6719 26.291 20.084 26.291C19.8242 26.291 19.5371 26.4004 19.332 26.6055L17.5547 28.3965L16.3789 29.6133L16.4609 27.3301L16.4609 22.8184C16.4609 22.2305 15.9688 21.752 15.3809 21.752C14.793 21.752 14.2871 22.2305 14.2871 22.8184L14.2871 27.3301L14.3828 29.6133L13.207 28.3965L11.4297 26.6055C11.2246 26.4004 10.9512 26.291 10.6914 26.291C10.1035 26.291 9.67969 26.6875 9.67969 27.248C9.67969 27.5625 9.80273 27.8086 10.0352 28.0137L14.5879 32.252C14.875 32.5117 15.0938 32.6211 15.3809 32.6211ZM15.3809 10.8691C15.9688 10.8691 16.4609 10.3906 16.4609 9.81641L16.4609 5.29102L16.3789 3.00781L17.5547 4.22461L19.332 6.01562C19.5371 6.2207 19.8105 6.34375 20.0703 6.34375C20.6582 6.34375 21.082 5.93359 21.082 5.37305C21.082 5.05859 20.959 4.8125 20.7266 4.60742L16.1738 0.369141C15.8867 0.109375 15.668 0 15.3809 0C15.0938 0 14.875 0.109375 14.5879 0.369141L10.0352 4.60742C9.80273 4.8125 9.67969 5.05859 9.67969 5.37305C9.67969 5.93359 10.0898 6.34375 10.6777 6.34375C10.9375 6.34375 11.2246 6.2207 11.4297 6.01562L13.207 4.22461L14.3828 3.00781L14.2871 5.29102L14.2871 9.81641C14.2871 10.3906 14.793 10.8691 15.3809 10.8691Z" fill="white" fill-opacity="0.85"/>
 </g>
</svg>
