<svg version="1.1" xmlns="http://www.w3.org/2000/svg" xmlns:xlink="http://www.w3.org/1999/xlink" viewBox="0 0 34.3251 31.5137">
 <g>
  
  <path d="M27.102 4.10156L27.102 10.6957C27.0617 10.7042 27.0204 10.718 26.9789 10.7324C26.5295 10.1364 25.8915 9.81968 25.1742 9.82905L25.1742 4.21094C25.1742 2.73438 24.3676 1.92773 22.9184 1.92773L4.88518 1.92773C3.42229 1.92773 2.61565 2.73438 2.61565 4.21094L2.61565 17.7871C2.61565 19.2637 3.43597 20.084 4.88518 20.084L11.0373 20.084C11.1239 20.2176 11.2168 20.3469 11.311 20.4668L12.585 22.0117L4.84417 22.0117C2.06878 22.0117 0.687919 20.6582 0.687919 17.9102L0.687919 4.10156C0.687919 1.33984 2.06878 0 4.84417 0L22.9594 0C25.7348 0 27.102 1.33984 27.102 4.10156Z" style="fill:var(--color-0,hsl(0 0 0/0.85))"></path>
  <path d="M27.9496 29.8457C33.3774 27.877 35.6879 22.8867 33.5141 16.8848L32.4887 14.0684C31.395 11.1152 29.3715 9.89844 26.9789 10.7324C26.35 9.89844 25.352 9.61133 24.2856 9.99414C23.8891 10.1445 23.5473 10.3496 23.2192 10.5957C22.5219 9.67969 21.4418 9.35156 20.3207 9.76172C20.02 9.87109 19.7328 10.0352 19.4594 10.2266L17.9008 5.96094C17.3129 4.33398 15.85 3.65039 14.3325 4.19727C12.7875 4.75781 12.1039 6.2207 12.6918 7.84766L16.602 18.5664C16.6157 18.6348 16.602 18.6895 16.5336 18.7168C16.4789 18.7441 16.4379 18.7168 16.3969 18.6621L14.7973 16.9258C13.9907 16.0781 13.061 15.832 12.1313 16.1465C10.8871 16.6113 10.0805 17.8008 10.5864 19.209C10.7231 19.6055 11.0102 20.084 11.311 20.4668L15.8774 26.0039C19.3637 30.2012 23.4106 31.5 27.9496 29.8457ZM27.3617 28.0547C23.7797 29.3672 20.4164 28.6973 17.2582 24.8828L12.6782 19.373C12.5414 19.209 12.4457 19.0586 12.3637 18.8262C12.1996 18.375 12.391 17.8965 12.9242 17.6914C13.3481 17.541 13.6899 17.7051 14.0317 18.0742L17.2035 21.3281C17.7367 21.875 18.2016 21.9434 18.6528 21.7793C19.186 21.5742 19.4184 21.0137 19.1996 20.4258L14.3598 7.10938C14.1547 6.5625 14.3871 6.04297 14.934 5.85156C15.4535 5.66016 15.9594 5.90625 16.1508 6.4668L19.6098 15.9688C19.7739 16.4199 20.2797 16.6113 20.7309 16.4473C21.1684 16.2969 21.4145 15.8184 21.2367 15.3672L19.9926 11.9492C20.184 11.7715 20.4438 11.5801 20.7035 11.5117C21.3325 11.2656 21.8793 11.5391 22.1254 12.2227L23.2055 15.2031C23.3832 15.6816 23.8891 15.8457 24.3266 15.6953C24.7641 15.5449 25.0239 15.0938 24.8461 14.6152L23.9575 12.1816C24.1352 12.0039 24.4086 11.8262 24.6547 11.7305C25.311 11.498 25.8442 11.7715 26.0903 12.4551L26.8149 14.4648C26.9926 14.9297 27.4985 15.1074 27.936 14.9434C28.3598 14.793 28.6196 14.3281 28.4555 13.8633L27.9223 12.3867C29.0571 11.9629 30.1235 12.9062 30.8754 14.957L31.7231 17.2949C33.6098 22.4629 31.9145 26.3867 27.3617 28.0547Z" style="fill:var(--color-1,hsl(0 0 0/0.85))"></path>
 </g>
</svg>