<svg version="1.1" xmlns="http://www.w3.org/2000/svg" xmlns:xlink="http://www.w3.org/1999/xlink" viewBox="0 0 44.772 32.0277">
 <g>
  
  <path d="M28.4663 11.468L5.71998 11.468C4.58521 11.468 3.94263 12.1106 3.94263 13.2453L3.94263 24.7434C3.94263 25.8781 4.58521 26.5207 5.71998 26.5207L32.6672 26.5207C33.802 26.5207 34.4446 25.8781 34.4446 24.7434L34.4446 15.1956L36.6335 13.0046C36.6427 13.1168 36.6458 13.2344 36.6458 13.3547L36.6458 24.634C36.6458 27.218 35.2376 28.5715 32.6536 28.5715L5.74732 28.5715C3.16334 28.5715 1.74146 27.218 1.74146 24.634L1.74146 13.3547C1.74146 10.7707 3.16334 9.41719 5.74732 9.41719L30.5151 9.41719Z" style="fill:var(--color-0,hsl(0 0 0/0.85))"></path>
  <path d="M25.4485 19.6984L28.2239 18.468L40.2688 6.43672L38.3547 4.53633L26.3235 16.5676L25.011 19.2609C24.9016 19.4934 25.1751 19.8215 25.4485 19.6984ZM41.2805 5.41133L42.3059 4.37227C42.7981 3.86641 42.7981 3.19649 42.3196 2.73165L41.9915 2.40352C41.554 1.96602 40.8704 2.00704 40.4055 2.47188L39.3801 3.4836Z" style="fill:var(--color-1,hsl(0 0 0/0.85))"></path>
  <path d="M20.7864 20.9426C21.8665 20.9426 22.7415 20.0676 22.7415 18.9875C22.7415 17.9074 21.8665 17.0324 20.7864 17.0324C19.7063 17.0324 18.8313 17.9074 18.8313 18.9875C18.8313 20.0676 19.7063 20.9426 20.7864 20.9426Z" style="fill:var(--color-2,hsl(0 0 0/0.85))"></path>
  <path d="M14.8938 20.9426C15.9739 20.9426 16.8489 20.0676 16.8489 18.9875C16.8489 17.9074 15.9739 17.0324 14.8938 17.0324C13.8137 17.0324 12.9387 17.9074 12.9387 18.9875C12.9387 20.0676 13.8137 20.9426 14.8938 20.9426Z" style="fill:var(--color-3,hsl(0 0 0/0.85))"></path>
  <path d="M9.00123 20.9426C10.0813 20.9426 10.9563 20.0676 10.9563 18.9875C10.9563 17.9074 10.0813 17.0324 9.00123 17.0324C7.92115 17.0324 7.04615 17.9074 7.04615 18.9875C7.04615 20.0676 7.92115 20.9426 9.00123 20.9426Z" style="fill:var(--color-4,hsl(0 0 0/0.85))"></path>
 </g>
</svg>