<?xml version="1.0" encoding="UTF-8"?>
<!--Generator: Apple Native CoreSVG 326-->
<!DOCTYPE svg
PUBLIC "-//W3C//DTD SVG 1.1//EN"
       "http://www.w3.org/Graphics/SVG/1.1/DTD/svg11.dtd">
<svg version="1.1" xmlns="http://www.w3.org/2000/svg" xmlns:xlink="http://www.w3.org/1999/xlink" viewBox="0 0 19.3594 30.9395">
 <g>
  <rect height="30.9395" opacity="0" width="19.3594" x="0" y="0"/>
  <path d="M0 10.2812L19.0039 10.2812L19.0039 2.85742C19.0039 1.13477 17.8965 0 16.2422 0L2.74805 0C1.10742 0 0 1.13477 0 2.85742ZM3.78711 7.71094C3.39062 7.71094 3.08984 7.42383 3.08984 7.01367L3.08984 3.89648C3.08984 3.5 3.37695 3.21289 3.78711 3.21289C4.18359 3.21289 4.4707 3.48633 4.4707 3.89648L4.4707 7.01367C4.4707 7.41016 4.19727 7.71094 3.78711 7.71094ZM0 25.457L19.0039 25.457L19.0039 11.8809L0 11.8809ZM3.78711 18.416C3.39062 18.416 3.08984 18.1426 3.08984 17.7324L3.08984 14.6152C3.08984 14.2188 3.37695 13.9316 3.78711 13.9316C4.18359 13.9316 4.4707 14.2051 4.4707 14.6152L4.4707 17.7324C4.4707 18.1289 4.19727 18.416 3.78711 18.416ZM0 27.0566L0 28.082C0 29.8047 1.10742 30.9395 2.74805 30.9395L16.2422 30.9395C17.8965 30.9395 19.0039 29.8047 19.0039 28.082L19.0039 27.0566Z" fill="white" fill-opacity="0.85"/>
 </g>
</svg>
