<svg version="1.1" xmlns="http://www.w3.org/2000/svg" xmlns:xlink="http://www.w3.org/1999/xlink" viewBox="0 0 29.5449 24.4043">
 <g>
  
  <path d="M28.0273 11.7305C27.3574 11.7305 26.8652 12.2227 26.8652 12.8926L26.8652 14.1914C26.8652 16.543 25.2656 18.0605 22.7773 18.0605L12.1133 18.0605L12.1133 14.8887C12.1133 14.3281 11.7988 14.0273 11.2383 14.0273C10.9785 14.0273 10.7324 14.1094 10.5273 14.2734L5.35938 18.5527C4.92188 18.9355 4.9082 19.4824 5.35938 19.8516L10.5273 24.1445C10.7324 24.3086 10.9785 24.4043 11.2383 24.4043C11.7988 24.4043 12.1133 24.0898 12.1133 23.543L12.1133 20.3438L22.5586 20.3438C26.5781 20.3438 29.1895 18.0605 29.1895 14.3555L29.1895 12.8926C29.1895 12.2227 28.6836 11.7305 28.0273 11.7305Z" style="fill:var(--color-0,hsl(0 0 0/0.85))"></path>
  <path d="M1.16211 12.7012C1.81836 12.7012 2.32422 12.1953 2.32422 11.5391L2.32422 10.2402C2.32422 7.88867 3.92383 6.35742 6.39844 6.35742L17.0625 6.35742L17.0625 9.57031C17.0625 10.1172 17.3906 10.4316 17.9512 10.4316C18.1973 10.4316 18.457 10.3359 18.6484 10.1719L23.8164 5.89258C24.2539 5.53711 24.2812 4.97656 23.8164 4.59375L18.6484 0.300781C18.457 0.136719 18.1973 0.0546875 17.9512 0.0546875C17.3906 0.0546875 17.0625 0.355469 17.0625 0.916016L17.0625 4.08789L6.61719 4.08789C2.61133 4.08789 0 6.37109 0 10.0762L0 11.5391C0 12.1953 0.492188 12.7012 1.16211 12.7012Z" style="fill:var(--color-1,hsl(0 0 0/0.85))"></path>
 </g>
</svg>