<svg version="1.1" xmlns="http://www.w3.org/2000/svg" xmlns:xlink="http://www.w3.org/1999/xlink" viewBox="0 0 28.2461 27.9043">
 <g>
  
  <path d="M13.9453 27.8906C21.6426 27.8906 27.8906 21.6426 27.8906 13.9453C27.8906 6.24805 21.6426 0 13.9453 0C6.24805 0 0 6.24805 0 13.9453C0 21.6426 6.24805 27.8906 13.9453 27.8906ZM13.9453 25.5664C7.51953 25.5664 2.32422 20.3711 2.32422 13.9453C2.32422 7.51953 7.51953 2.32422 13.9453 2.32422C20.3711 2.32422 25.5664 7.51953 25.5664 13.9453C25.5664 20.3711 20.3711 25.5664 13.9453 25.5664Z" style="fill:var(--color-0,hsl(0 0 0/0.85))"></path>
  <path d="M7.68359 12.5234C6.5625 13.1934 6.58984 14.7383 7.65625 15.3672L15.8594 20.2207C16.8711 20.8223 18.293 20.4258 18.293 18.9629L18.293 8.91406C18.293 7.45117 16.8711 7.04102 15.8594 7.65625ZM9.80273 13.8223L15.832 10.2402C15.9961 10.1445 16.0918 10.2129 16.0918 10.3359L16.0918 17.541C16.0918 17.6641 15.9961 17.7188 15.832 17.6367L9.81641 14.082C9.67969 14.0137 9.70703 13.8906 9.80273 13.8223Z" style="fill:var(--color-1,hsl(0 0 0/0.85))"></path>
 </g>
</svg>