<?xml version="1.0" encoding="UTF-8"?>
<!--Generator: Apple Native CoreSVG 326-->
<!DOCTYPE svg
PUBLIC "-//W3C//DTD SVG 1.1//EN"
       "http://www.w3.org/Graphics/SVG/1.1/DTD/svg11.dtd">
<svg version="1.1" xmlns="http://www.w3.org/2000/svg" xmlns:xlink="http://www.w3.org/1999/xlink" viewBox="0 0 28.2461 27.9043">
 <g>
  <rect height="27.9043" opacity="0" width="28.2461" x="0" y="0"/>
  <path d="M13.9453 27.9043C21.6426 27.9043 27.8906 21.6562 27.8906 13.959C27.8906 6.27539 21.6426 0.0136719 13.9453 0.0136719C6.26172 0.0136719 0 6.27539 0 13.959C0 21.6562 6.26172 27.9043 13.9453 27.9043Z" fill="white" fill-opacity="0.85"/>
  <path d="M7.5332 12.4824L15.9551 7.46484C17.0215 6.84961 18.4844 7.25977 18.4844 8.76367L18.4844 19.1406C18.4844 20.6445 17.0215 21.0547 15.9551 20.4395L7.50586 15.4492C6.41211 14.7793 6.38477 13.1797 7.5332 12.4824ZM9.7207 13.8496C9.63867 13.9043 9.61133 14.0273 9.73438 14.0957L15.9414 17.7598C16.0918 17.8555 16.2012 17.7871 16.2012 17.6504L16.2012 10.2539C16.2012 10.1172 16.0918 10.0625 15.9414 10.1445Z" fill="white"/>
 </g>
</svg>
