<svg version="1.1" xmlns="http://www.w3.org/2000/svg" xmlns:xlink="http://www.w3.org/1999/xlink" viewBox="0 0 29.2031 26.4277">
 <g>
  
  <path d="M9.32422 25.1016C10.0625 25.1016 10.541 24.6094 10.541 23.8984C10.541 23.543 10.418 23.2832 10.2129 23.0645L6.26172 19.2227L2.88477 16.3242L2.63867 16.9531L6.87695 17.1445L24.3359 17.1445C27.5215 17.1445 28.8477 15.6816 28.8477 12.5918L28.8477 4.51172C28.8477 1.32617 27.5215 0 24.3359 0L16.6797 0C15.9277 0 15.4355 0.546875 15.4355 1.2168C15.4355 1.88672 15.9277 2.43359 16.6797 2.43359L24.3359 2.43359C25.7852 2.43359 26.4004 3.0625 26.4004 4.51172L26.4004 12.5918C26.4004 14.082 25.7852 14.7109 24.3359 14.7109L6.87695 14.7109L2.63867 14.8887L2.88477 15.5176L6.26172 12.6328L10.2129 8.79102C10.418 8.57227 10.541 8.29883 10.541 7.94336C10.541 7.24609 10.0625 6.74023 9.32422 6.74023C9.03711 6.74023 8.68164 6.89062 8.44922 7.12305L0.410156 15.0117C0.136719 15.2715 0 15.5859 0 15.9277C0 16.2559 0.136719 16.584 0.410156 16.8438L8.44922 24.7324C8.68164 24.9648 9.03711 25.1016 9.32422 25.1016Z" style="fill:var(--color-0,hsl(0 0 0/0.85))"></path>
 </g>
</svg>