<?xml version="1.0" encoding="UTF-8"?>
<!--Generator: Apple Native CoreSVG 326-->
<!DOCTYPE svg
PUBLIC "-//W3C//DTD SVG 1.1//EN"
       "http://www.w3.org/Graphics/SVG/1.1/DTD/svg11.dtd">
<svg version="1.1" xmlns="http://www.w3.org/2000/svg" xmlns:xlink="http://www.w3.org/1999/xlink" viewBox="0 0 21.6426 28.0137">
 <g>
  <rect height="28.0137" opacity="0" width="21.6426" x="0" y="0"/>
  <path d="M10.6367 28C11.3887 28 11.7578 27.4941 12.5371 26.4551L20.6992 15.5586C21.0684 15.0527 21.2871 14.5469 21.2871 14C21.2871 13.4395 21.0684 12.9473 20.6992 12.4414L12.5371 1.53125C11.7578 0.505859 11.3887 0 10.6367 0C9.88477 0 9.51562 0.505859 8.75 1.53125L0.587891 12.4414C0.205078 12.9473 0 13.4395 0 14C0 14.5469 0.205078 15.0527 0.587891 15.5586L8.75 26.4551C9.51562 27.4941 9.88477 28 10.6367 28Z" fill="white" fill-opacity="0.85"/>
 </g>
</svg>
