<?xml version="1.0" encoding="UTF-8"?>
<!--Generator: Apple Native CoreSVG 326-->
<!DOCTYPE svg
PUBLIC "-//W3C//DTD SVG 1.1//EN"
       "http://www.w3.org/Graphics/SVG/1.1/DTD/svg11.dtd">
<svg version="1.1" xmlns="http://www.w3.org/2000/svg" xmlns:xlink="http://www.w3.org/1999/xlink" viewBox="0 0 23.3516 29.3262">
 <g>
  <rect height="29.3262" opacity="0" width="23.3516" x="0" y="0"/>
  <path d="M4.78516 12.5098C4.33398 12.5098 4.06055 12.25 4.06055 11.8125C4.06055 11.7168 4.08789 11.5254 4.15625 11.3613L6.16602 5.79688C6.37109 5.22266 6.69922 4.94922 7.24609 4.94922C7.83398 4.94922 8.17578 5.22266 8.38086 5.79688L10.3906 11.3613C10.4453 11.5391 10.4727 11.7168 10.4727 11.8125C10.4727 12.25 10.2129 12.5098 9.74805 12.5098C9.39258 12.5098 9.16016 12.3047 9.03711 11.8535L8.54492 10.5L5.97461 10.5L5.50977 11.8535C5.38672 12.3184 5.1543 12.5098 4.78516 12.5098ZM6.28906 9.36523L8.24414 9.36523L7.30078 6.49414L7.21875 6.49414ZM13.3984 7.31445C12.8926 7.31445 12.5371 6.94531 12.5371 6.4668C12.5371 6.00195 12.8926 5.63281 13.3984 5.63281L18.1152 5.63281C18.5938 5.63281 18.9629 6.00195 18.9629 6.4668C18.9629 6.94531 18.5938 7.31445 18.1152 7.31445ZM13.3984 12.0859C12.8926 12.0859 12.5371 11.7168 12.5371 11.2383C12.5371 10.7734 12.8926 10.4043 13.3984 10.4043L18.1152 10.4043C18.5938 10.4043 18.9629 10.7734 18.9629 11.2383C18.9629 11.7168 18.5938 12.0859 18.1152 12.0859ZM3.99219 23.9395L3.99219 17.2676C3.99219 16.0645 4.67578 15.4492 5.83789 15.4492L17.1719 15.4492C18.375 15.4492 19.0039 16.0645 19.0039 17.2676L19.0039 23.8027L17.5 23.8027L14.7656 20.6582C14.5195 20.3711 14.1641 20.2617 13.8223 20.2617C13.5078 20.2617 13.1797 20.3848 12.8652 20.6582L10.0625 23.1465L8.94141 22.1211C8.68164 21.8887 8.38086 21.7793 8.10742 21.7793C7.83398 21.7793 7.56055 21.875 7.30078 22.1211L5.49609 23.9395ZM9.05078 20.6582C9.85742 20.6582 10.5273 19.9746 10.5273 19.1816C10.5273 18.3613 9.85742 17.7324 9.05078 17.7051C8.23047 17.6777 7.57422 18.3613 7.57422 19.1816C7.57422 19.9746 8.23047 20.6582 9.05078 20.6582ZM0 25.0332C0 27.8906 1.4082 29.3125 4.23828 29.3125L18.7578 29.3125C21.5879 29.3125 22.9961 27.8906 22.9961 25.0332L22.9961 4.29297C22.9961 1.44922 21.5879 0 18.7578 0L4.23828 0C1.4082 0 0 1.44922 0 4.29297Z" fill="white" fill-opacity="0.85"/>
 </g>
</svg>
