<svg version="1.1" xmlns="http://www.w3.org/2000/svg" xmlns:xlink="http://www.w3.org/1999/xlink" viewBox="0 0 23.3516 29.3262">
 <g>
  
  <path d="M5.33203 13.0566C5.70117 13.0566 5.93359 12.8652 6.05664 12.4004L6.52148 11.0469L9.0918 11.0469L9.58398 12.4004C9.70703 12.8516 9.93945 13.0566 10.2949 13.0566C10.7598 13.0566 11.0195 12.7969 11.0195 12.3594C11.0195 12.2637 10.9922 12.0859 10.9375 11.9082L8.92773 6.34375C8.72266 5.76953 8.38086 5.49609 7.79297 5.49609C7.24609 5.49609 6.91797 5.76953 6.71289 6.34375L4.70312 11.9082C4.63477 12.0723 4.60742 12.2637 4.60742 12.3594C4.60742 12.7969 4.88086 13.0566 5.33203 13.0566ZM6.83594 9.91211L7.76562 7.04102L7.84766 7.04102L8.79102 9.91211ZM13.3984 7.86133L17.5684 7.86133C18.0469 7.86133 18.416 7.49219 18.416 7.01367C18.416 6.54883 18.0469 6.17969 17.5684 6.17969L13.3984 6.17969C12.8926 6.17969 12.5371 6.54883 12.5371 7.01367C12.5371 7.49219 12.8926 7.86133 13.3984 7.86133ZM13.3984 12.6328L17.5684 12.6328C18.0469 12.6328 18.416 12.2637 18.416 11.7852C18.416 11.3203 18.0469 10.9512 17.5684 10.9512L13.3984 10.9512C12.8926 10.9512 12.5371 11.3203 12.5371 11.7852C12.5371 12.2637 12.8926 12.6328 13.3984 12.6328ZM4.53906 23.9395L5.49609 23.9395L7.30078 22.1211C7.56055 21.875 7.83398 21.7793 8.10742 21.7793C8.38086 21.7793 8.68164 21.8887 8.94141 22.1211L10.0625 23.1465L12.8652 20.6582C13.1797 20.3848 13.5078 20.2617 13.8223 20.2617C14.1641 20.2617 14.5195 20.3711 14.7656 20.6582L17.5 23.8027L18.457 23.8027L18.457 17.2676C18.457 16.0645 17.8281 15.4492 16.625 15.4492L6.38477 15.4492C5.22266 15.4492 4.53906 16.0645 4.53906 17.2676ZM9.05078 20.6582C8.23047 20.6582 7.57422 19.9746 7.57422 19.1816C7.57422 18.3613 8.23047 17.6777 9.05078 17.7051C9.85742 17.7324 10.5273 18.3613 10.5273 19.1816C10.5273 19.9746 9.85742 20.6582 9.05078 20.6582ZM0 25.0332C0 27.8906 1.4082 29.3125 4.23828 29.3125L18.7578 29.3125C21.5879 29.3125 22.9961 27.8906 22.9961 25.0332L22.9961 4.29297C22.9961 1.44922 21.5879 0 18.7578 0L4.23828 0C1.4082 0 0 1.44922 0 4.29297ZM2.20117 24.9922L2.20117 4.33398C2.20117 2.9668 2.92578 2.20117 4.34766 2.20117L18.6484 2.20117C20.0703 2.20117 20.7949 2.9668 20.7949 4.33398L20.7949 24.9922C20.7949 26.3594 20.0703 27.1113 18.6484 27.1113L4.34766 27.1113C2.92578 27.1113 2.20117 26.3594 2.20117 24.9922Z" style="fill:var(--color-0,hsl(0 0 0/0.85))"></path>
 </g>
</svg>