<?xml version="1.0" encoding="UTF-8"?>
<!--Generator: Apple Native CoreSVG 326-->
<!DOCTYPE svg
PUBLIC "-//W3C//DTD SVG 1.1//EN"
       "http://www.w3.org/Graphics/SVG/1.1/DTD/svg11.dtd">
<svg version="1.1" xmlns="http://www.w3.org/2000/svg" xmlns:xlink="http://www.w3.org/1999/xlink" viewBox="0 0 26.7832 28.5605">
 <g>
  <rect height="28.5605" opacity="0" width="26.7832" x="0" y="0"/>
  <path d="M23.4609 25.0195L24.9922 23.502L13.1387 11.6621L11.6074 13.1934ZM1.94141 25.7168L23.3652 25.7168C24.9922 25.7168 25.7305 24.9785 25.7305 23.3516L25.7305 1.92773C25.7305 0.738281 24.9648 0 23.8164 0C23.0918 0 22.5723 0.328125 22.0391 0.861328L0.861328 22.0391C0.341797 22.5723 0 23.0781 0 23.8164C0 24.9648 0.738281 25.7168 1.94141 25.7168ZM3.11719 23.4883C3.00781 23.4883 2.92578 23.4336 2.92578 23.3379C2.92578 23.2969 2.93945 23.2422 3.02148 23.1738L23.1738 3.00781C23.2422 2.93945 23.2969 2.91211 23.3516 2.91211C23.4473 2.91211 23.4883 2.99414 23.4883 3.10352L23.4883 23.0781C23.4883 23.3926 23.4062 23.4883 23.0781 23.4883Z" fill="white" fill-opacity="0.85"/>
 </g>
</svg>
