<svg version="1.1" xmlns="http://www.w3.org/2000/svg" xmlns:xlink="http://www.w3.org/1999/xlink" viewBox="0 0 28.2461 27.9043">
 <g>
  
  <path d="M13.9453 27.8906C21.6426 27.8906 27.8906 21.6289 27.8906 13.9453C27.8906 6.24805 21.6426 0 13.9453 0C6.26172 0 0 6.24805 0 13.9453C0 21.6289 6.26172 27.8906 13.9453 27.8906Z" style="fill:var(--color-0,hsl(0 0 0/0.85))"></path>
  <path d="M10.3223 20.4121C9.61133 20.4121 9.21484 19.8926 9.21484 19.1406L9.21484 8.66797C9.21484 7.90234 9.59766 7.38281 10.3086 7.38281L14.3691 7.38281C17.2266 7.38281 19.0449 8.99609 19.0449 11.5391C19.0449 13.2891 17.9785 14.7656 16.3242 15.3125L18.4297 18.6211C18.6074 18.9082 18.6895 19.127 18.6895 19.4414C18.6895 20.0156 18.2656 20.4121 17.6641 20.4121C17.1582 20.4121 16.8711 20.207 16.5293 19.6602L14.0957 15.6406L11.4707 15.6406L11.4707 19.1406C11.4707 19.9199 11.0605 20.4121 10.3223 20.4121ZM11.4707 13.9863L14.041 13.9863C15.7363 13.9863 16.8164 13.125 16.8164 11.5938C16.8164 10.0215 15.709 9.11914 14.0957 9.11914L11.4707 9.11914Z" style="fill:var(--color-1,white)"></path>
 </g>
</svg>