<svg version="1.1" xmlns="http://www.w3.org/2000/svg" xmlns:xlink="http://www.w3.org/1999/xlink" viewBox="0 0 39.7582 20.4941">
 <g>
  
  <path d="M1.12127 20.4941L2.89861 20.4941C3.71892 20.4941 4.12908 20.0977 4.3615 19.5098C6.86345 13.3027 9.39275 7.08203 11.9084 0.875C12.0998 0.423828 11.881 0.0273438 11.4025 0.0273438L10.5138 0.0273438C10.0353 0.0273438 9.73455 0.259766 9.52947 0.669922C6.39861 6.76758 3.29509 12.8652 0.164234 18.9766C-0.218578 19.6738 0.054859 20.4941 1.12127 20.4941ZM36.5041 20.4941L38.2951 20.4941C39.3478 20.4941 39.6213 19.6738 39.2385 18.9766C36.1349 12.8652 33.0041 6.76758 29.8869 0.669922C29.6681 0.259766 29.3674 0.0273438 28.8888 0.0273438L28.0002 0.0273438C27.5217 0.0273438 27.3166 0.423828 27.4943 0.875C30.0099 7.08203 32.5392 13.3027 35.0412 19.5098C35.2736 20.0977 35.6838 20.4941 36.5041 20.4941ZM19.3869 3.75977L19.9885 3.75977C20.549 3.75977 20.9865 3.33594 20.9865 2.76172C20.9865 2.1875 20.9865 1.59961 20.9865 1.02539C20.9865 0.451172 20.549 0.0273438 19.9885 0.0273438L19.3869 0.0273438C18.8263 0.0273438 18.3888 0.451172 18.3888 1.02539C18.3888 1.59961 18.3888 2.1875 18.3888 2.76172C18.3888 3.33594 18.8263 3.75977 19.3869 3.75977ZM19.3869 11.5527L19.9885 11.5527C20.549 11.5527 20.9865 11.1426 20.9865 10.5684C20.9865 9.61133 20.9865 8.62695 20.9865 7.66992C20.9865 7.0957 20.549 6.68555 19.9885 6.68555L19.3869 6.68555C18.8263 6.68555 18.3888 7.0957 18.3888 7.66992C18.3888 8.62695 18.3888 9.61133 18.3888 10.5684C18.3888 11.1426 18.8263 11.5527 19.3869 11.5527ZM19.3869 20.4941L19.9885 20.4941C20.549 20.4941 20.9865 20.0703 20.9865 19.4961C20.9865 18.1973 20.9865 16.8848 20.9865 15.5723C20.9865 14.998 20.549 14.5879 19.9885 14.5879L19.3869 14.5879C18.8263 14.5879 18.3888 14.998 18.3888 15.5723C18.3888 16.8848 18.3888 18.1973 18.3888 19.4961C18.3888 20.0703 18.8263 20.4941 19.3869 20.4941Z" style="fill:var(--color-0,hsl(0 0 0/0.85))"></path>
 </g>
</svg>