<svg version="1.1" xmlns="http://www.w3.org/2000/svg" xmlns:xlink="http://www.w3.org/1999/xlink" viewBox="0 0 34.8482 20.4941">
 <g>
  
  <path d="M2.51493 20.4941C3.47196 20.4941 3.7454 20.002 3.85478 19.373C5.08524 12.5645 7.91532 7 13.9309 0.875C14.2727 0.519531 13.9993 0.0273438 13.5892 0.0273438L12.9739 0.0273438C12.6321 0.0273438 12.3587 0.0957031 11.8665 0.492188C6.99931 4.33398 1.96806 10.377 0.0403227 19.2637C-0.110068 19.9062 0.149698 20.4941 0.997354 20.4941ZM33.5911 20.4941C34.3567 20.4941 34.6575 19.9473 34.4114 19.2637C32.1419 13.2344 31.6907 7.5332 33.222 0.833984C33.345 0.287109 33.0169 0.0273438 32.5931 0.0273438L32.0599 0.0273438C31.6087 0.0273438 31.3216 0.177734 31.1849 0.601562C29.1067 6.97266 29.2161 13.4258 30.802 19.6875C30.9114 20.166 31.2395 20.4941 31.9368 20.4941ZM21.0813 3.58203C21.6009 3.58203 21.8743 3.45898 22.1067 3.03516C22.3665 2.57031 22.7493 1.91406 23.4329 0.875C23.7337 0.423828 23.4329 0.0273438 22.9681 0.0273438L22.5579 0.0273438C22.1751 0.0273438 21.97 0.0957031 21.7376 0.341797C21.2591 0.833984 20.6438 1.59961 20.0423 2.50195C19.7005 3.00781 19.9329 3.58203 20.5481 3.58203ZM18.5384 10.2812C19.1263 10.2812 19.386 9.99414 19.5227 9.50195C19.6595 8.87305 19.9056 7.99805 20.2063 7.0957C20.4388 6.45312 20.0696 6.15234 19.5501 6.15234L18.7161 6.15234C18.1966 6.15234 17.9778 6.31641 17.7591 6.75391C17.472 7.42383 17.1028 8.36719 16.761 9.32422C16.597 9.84375 16.7884 10.2812 17.4446 10.2812ZM17.1712 20.4941C17.7864 20.4941 18.1282 20.1934 18.1282 19.5371C18.1692 17.4316 18.3059 15.4219 18.4837 14.0547C18.5931 13.2617 18.2923 13.0293 17.6497 13.0293L16.8294 13.0293C16.3372 13.0293 15.9817 13.2344 15.845 13.7812C15.4622 15.2988 15.2298 17.6777 15.1751 19.5234C15.1614 20.166 15.4759 20.4941 16.0911 20.4941Z" style="fill:var(--color-0,hsl(0 0 0/0.85))"></path>
 </g>
</svg>