<?xml version="1.0" encoding="UTF-8"?>
<!--Generator: Apple Native CoreSVG 326-->
<!DOCTYPE svg
PUBLIC "-//W3C//DTD SVG 1.1//EN"
       "http://www.w3.org/Graphics/SVG/1.1/DTD/svg11.dtd">
<svg version="1.1" xmlns="http://www.w3.org/2000/svg" xmlns:xlink="http://www.w3.org/1999/xlink" viewBox="0 0 31.1445 23.4199">
 <g>
  <rect height="23.4199" opacity="0" width="31.1445" x="0" y="0"/>
  <path d="M15.3945 10.9648C22.5859 10.9648 30.584 8.51758 30.584 5.46875C30.584 2.44727 23.7891 0 15.3945 0C7 0 0.205078 2.44727 0.205078 5.46875C0.205078 8.51758 8.2168 10.9648 15.3945 10.9648ZM15.3945 5.67383C12.6328 5.67383 11.0879 4.94922 11.0879 3.86914C11.0879 2.81641 12.5918 2.05078 15.3945 2.05078C18.2109 2.05078 19.7148 2.81641 19.7148 3.86914C19.7148 4.94922 18.1699 5.67383 15.3945 5.67383ZM15.3945 4.58008C17.1445 4.58008 18.0469 4.26562 18.0469 3.86914C18.0469 3.47266 17.1992 3.13086 15.3945 3.13086C13.5898 3.13086 12.7285 3.47266 12.7285 3.86914C12.7285 4.26562 13.6445 4.58008 15.3945 4.58008ZM10.582 8.58594C9.78906 8.58594 9.13281 8.27148 9.13281 7.88867C9.13281 7.49219 9.78906 7.17773 10.582 7.17773C11.375 7.17773 12.0312 7.49219 12.0312 7.88867C12.0312 8.27148 11.375 8.58594 10.582 8.58594ZM15.3945 9.14648C14.6152 9.14648 13.959 8.83203 13.959 8.43555C13.959 8.05273 14.6152 7.72461 15.3945 7.72461C16.1875 7.72461 16.8438 8.05273 16.8438 8.43555C16.8438 8.83203 16.1875 9.14648 15.3945 9.14648ZM20.2207 8.58594C19.4277 8.58594 18.7715 8.27148 18.7715 7.88867C18.7715 7.49219 19.4277 7.17773 20.2207 7.17773C21.0137 7.17773 21.6699 7.49219 21.6699 7.88867C21.6699 8.27148 21.0137 8.58594 20.2207 8.58594ZM15.3945 19.291C23.8301 19.291 30.7891 16.7754 30.7891 12.7285L30.7891 8.24414C28.6836 10.6777 22.7773 12.6875 15.3945 12.6875C8.01172 12.6875 2.10547 10.6777 0 8.24414L0 12.7285C0 16.7754 6.97266 19.291 15.3945 19.291ZM8.42188 23.2285L15.709 19.127C16.1191 18.8809 16.2695 18.3613 16.0371 17.9648C15.791 17.5273 15.2715 17.4043 14.8613 17.6367L7.56055 21.7246C7.15039 21.9434 7 22.4902 7.23242 22.873C7.46484 23.3105 7.99805 23.4746 8.42188 23.2285ZM22.3945 23.2285C22.8047 23.4746 23.3379 23.3105 23.5703 22.873C23.8027 22.4902 23.6523 21.9434 23.2422 21.7246L15.9414 17.6367C15.5176 17.4043 15.0117 17.5273 14.752 17.9648C14.5332 18.3613 14.6836 18.8809 15.0938 19.127Z" fill="white" fill-opacity="0.85"/>
 </g>
</svg>
