<svg version="1.1" xmlns="http://www.w3.org/2000/svg" xmlns:xlink="http://www.w3.org/1999/xlink" viewBox="0 0 31.8555 24.1582">
 <g>
  
  <path d="M15.7363 13.4805C24.4863 13.4805 31.5 10.8145 31.5 6.75391C31.5 2.63867 24.4863 0 15.7363 0C7 0 0 2.63867 0 6.75391C0 10.8145 7 13.4805 15.7363 13.4805ZM15.7363 11.3066C9.02344 11.3066 2.50195 9.50195 2.50195 6.75391C2.50195 4.21094 7.46484 2.03711 15.7363 2.03711C24.0215 2.03711 28.9844 4.21094 28.9844 6.75391C28.9844 9.50195 22.4629 11.3066 15.7363 11.3066ZM15.7363 19.9609C24.377 19.9609 31.5 17.3223 31.5 13.166L31.5 6.76758L28.9844 8.79102L28.9844 13.166C28.9844 15.9141 22.5996 17.7871 15.7363 17.7871C8.88672 17.7871 2.5293 15.9141 2.5293 13.166L2.5293 8.79102L0 6.76758L0 13.166C0 17.3223 7.10938 19.9609 15.7363 19.9609ZM11.0742 9.80273C11.8398 9.80273 12.4824 9.50195 12.4824 9.10547C12.4824 8.73633 11.8398 8.42188 11.0742 8.42188C10.3086 8.42188 9.67969 8.73633 9.67969 9.10547C9.67969 9.50195 10.3086 9.80273 11.0742 9.80273ZM15.7363 10.3496C16.502 10.3496 17.1445 10.0215 17.1445 9.65234C17.1445 9.26953 16.502 8.95508 15.7363 8.95508C14.9844 8.95508 14.3555 9.26953 14.3555 9.65234C14.3555 10.0215 14.9844 10.3496 15.7363 10.3496ZM20.4121 9.80273C21.1777 9.80273 21.8203 9.50195 21.8203 9.10547C21.8203 8.73633 21.1777 8.42188 20.4121 8.42188C19.6465 8.42188 19.0176 8.73633 19.0176 9.10547C19.0176 9.50195 19.6465 9.80273 20.4121 9.80273ZM15.7363 6.95898C18.4297 6.95898 19.9336 6.24805 19.9336 5.20898C19.9336 4.19727 18.457 3.44531 15.7363 3.44531C13.0293 3.44531 11.5664 4.19727 11.5664 5.20898C11.5664 6.24805 13.0566 6.95898 15.7363 6.95898ZM15.7363 5.90625C14.041 5.90625 13.1387 5.60547 13.1387 5.20898C13.1387 4.82617 13.9863 4.49805 15.7363 4.49805C17.4863 4.49805 18.3203 4.82617 18.3203 5.20898C18.3203 5.60547 17.4316 5.90625 15.7363 5.90625ZM8.76367 23.9258L16.0508 19.8105C16.4609 19.5781 16.6113 19.0586 16.3789 18.6484C16.1328 18.2246 15.6133 18.1016 15.2031 18.3203L7.90234 22.4219C7.49219 22.6406 7.3418 23.1875 7.57422 23.5703C7.80664 24.0078 8.33984 24.1719 8.76367 23.9258ZM22.7363 23.9258C23.1465 24.1719 23.6797 24.0078 23.9121 23.5703C24.1445 23.1875 23.9941 22.6406 23.584 22.4219L16.2832 18.3203C15.8594 18.1016 15.3535 18.2246 15.0938 18.6484C14.875 19.0586 15.0254 19.5781 15.4355 19.8105Z" style="fill:var(--color-0,hsl(0 0 0/0.85))"></path>
 </g>
</svg>