<svg version="1.1" xmlns="http://www.w3.org/2000/svg" xmlns:xlink="http://www.w3.org/1999/xlink" viewBox="0 0 29.832 27.9316">
 <g>
  
  <path d="M2.59766 8.38086C3.11719 8.38086 3.54102 7.95703 3.54102 7.45117C3.54102 6.94531 3.11719 6.52148 2.59766 6.52148C2.0918 6.52148 1.66797 6.94531 1.66797 7.45117C1.66797 7.95703 2.0918 8.38086 2.59766 8.38086ZM2.59766 11.5801C3.11719 11.5801 3.54102 11.1562 3.54102 10.6504C3.54102 10.1309 3.11719 9.7207 2.59766 9.7207C2.0918 9.7207 1.66797 10.1309 1.66797 10.6504C1.66797 11.1562 2.0918 11.5801 2.59766 11.5801ZM2.59766 14.7793C3.11719 14.7793 3.54102 14.3418 3.54102 13.8496C3.54102 13.3301 3.11719 12.9062 2.59766 12.9062C2.0918 12.9062 1.66797 13.3301 1.66797 13.8496C1.66797 14.3418 2.0918 14.7793 2.59766 14.7793ZM2.59766 17.9785C3.11719 17.9785 3.54102 17.541 3.54102 17.0488C3.54102 16.5293 3.11719 16.1055 2.59766 16.1055C2.0918 16.1055 1.66797 16.5293 1.66797 17.0488C1.66797 17.541 2.0918 17.9785 2.59766 17.9785ZM2.59766 21.1777C3.11719 21.1777 3.54102 20.7402 3.54102 20.2344C3.54102 19.7285 3.11719 19.3047 2.59766 19.3047C2.0918 19.3047 1.66797 19.7285 1.66797 20.2344C1.66797 20.7402 2.0918 21.1777 2.59766 21.1777ZM2.59766 27.918C3.19922 27.918 3.70508 27.4258 3.70508 26.8242L3.70508 23.5977C3.70508 22.9961 3.19922 22.5039 2.59766 22.5039C1.99609 22.5039 1.50391 22.9961 1.50391 23.5977L1.50391 26.8242C1.50391 27.4258 2.00977 27.918 2.59766 27.918Z" style="fill:var(--color-0,hsl(0 0 0/0.85))"></path>
  <path d="M5.89258 5.19531L26.8789 5.19531C28.3145 5.19531 29.4766 4.0332 29.4766 2.59766C29.4766 1.16211 28.3145 0 26.8789 0L5.89258 0C6.45312 0.710938 6.79492 1.61328 6.79492 2.59766C6.79492 3.58203 6.45312 4.48438 5.89258 5.19531ZM2.59766 5.19531C4.0332 5.19531 5.19531 4.0332 5.19531 2.59766C5.19531 1.16211 4.0332 0 2.59766 0C1.16211 0 0 1.16211 0 2.59766C0 4.0332 1.16211 5.19531 2.59766 5.19531Z" style="fill:var(--color-1,hsl(0 0 0/0.85))"></path>
 </g>
</svg>