<?xml version="1.0" encoding="UTF-8"?>
<!--Generator: Apple Native CoreSVG 326-->
<!DOCTYPE svg
PUBLIC "-//W3C//DTD SVG 1.1//EN"
       "http://www.w3.org/Graphics/SVG/1.1/DTD/svg11.dtd">
<svg version="1.1" xmlns="http://www.w3.org/2000/svg" xmlns:xlink="http://www.w3.org/1999/xlink" viewBox="0 0 30.8848 27.9316">
 <g>
  <rect height="27.9316" opacity="0" width="30.8848" x="0" y="0"/>
  <path d="M1.66797 7.35547C1.66797 7.84766 2.0918 8.28516 2.59766 8.28516C3.11719 8.28516 3.54102 7.84766 3.54102 7.35547C3.54102 6.83594 3.11719 6.41211 2.59766 6.41211C2.0918 6.41211 1.66797 6.83594 1.66797 7.35547ZM1.66797 10.4453C1.66797 10.9375 2.0918 11.375 2.59766 11.375C3.11719 11.375 3.54102 10.9375 3.54102 10.4453C3.54102 9.92578 3.11719 9.50195 2.59766 9.50195C2.0918 9.50195 1.66797 9.92578 1.66797 10.4453ZM1.50391 16.9121C1.50391 17.5137 2.00977 18.0195 2.59766 18.0195C3.19922 18.0195 3.70508 17.5137 3.70508 16.9121L3.70508 13.6992C3.70508 13.0977 3.19922 12.5918 2.59766 12.5918C1.99609 12.5918 1.50391 13.0977 1.50391 13.6992Z" fill="white" fill-opacity="0.85"/>
  <path d="M0 2.59766C0 4.0332 1.16211 5.19531 2.59766 5.19531C4.0332 5.19531 5.19531 4.0332 5.19531 2.59766C5.19531 1.16211 4.0332 0 2.59766 0C1.16211 0 0 1.16211 0 2.59766ZM9.39258 27.918L27.9316 27.918C29.3535 27.918 30.5293 26.7559 30.5293 25.3203L30.5293 2.59766C30.5293 1.16211 29.3535 0 27.9316 0L5.89258 0C6.50781 0.628906 6.79492 1.44922 6.79492 2.59766L6.79492 25.3203C6.79492 26.7559 7.95703 27.918 9.39258 27.918Z" fill="white" fill-opacity="0.85"/>
 </g>
</svg>
