<?xml version="1.0" encoding="UTF-8"?>
<!--Generator: Apple Native CoreSVG 326-->
<!DOCTYPE svg
PUBLIC "-//W3C//DTD SVG 1.1//EN"
       "http://www.w3.org/Graphics/SVG/1.1/DTD/svg11.dtd">
<svg version="1.1" xmlns="http://www.w3.org/2000/svg" xmlns:xlink="http://www.w3.org/1999/xlink" viewBox="0 0 29.3398 27.9316">
 <g>
  <rect height="27.9316" opacity="0" width="29.3398" x="0" y="0"/>
  <path d="M4.68945 10.5137L26.9336 10.5137C27.5078 10.5137 27.918 10.1035 27.918 9.5293L27.918 4.64844C27.918 4.08789 27.5078 3.66406 26.9336 3.66406L4.68945 3.66406C4.11523 3.66406 3.69141 4.08789 3.69141 4.64844L3.69141 9.5293C3.69141 10.1035 4.11523 10.5137 4.68945 10.5137ZM4.68945 19.2227L26.9336 19.2227C27.5078 19.2227 27.918 18.7988 27.918 18.2383L27.918 13.3574C27.918 12.7832 27.5078 12.373 26.9336 12.373L4.68945 12.373C4.11523 12.373 3.69141 12.7832 3.69141 13.3574L3.69141 18.2383C3.69141 18.7988 4.11523 19.2227 4.68945 19.2227ZM4.68945 27.918L26.9336 27.918C27.5078 27.918 27.918 27.5078 27.918 26.9473L27.918 22.0527C27.918 21.4922 27.5078 21.082 26.9336 21.082L4.68945 21.082C4.11523 21.082 3.69141 21.4922 3.69141 22.0527L3.69141 26.9473C3.69141 27.5078 4.11523 27.918 4.68945 27.918Z" fill="white" fill-opacity="0.85"/>
  <path d="M0 1.09375C0 1.69531 0.505859 2.20117 1.10742 2.20117L27.918 2.20117C28.5195 2.20117 29.0254 1.69531 29.0254 1.09375C29.0254 0.492188 28.5195 0 27.918 0L1.10742 0C0.505859 0 0 0.492188 0 1.09375ZM1.10742 5.37305C1.61328 5.37305 2.03711 4.94922 2.03711 4.44336C2.03711 3.92383 1.61328 3.51367 1.10742 3.51367C0.587891 3.51367 0.164062 3.92383 0.164062 4.44336C0.164062 4.94922 0.587891 5.37305 1.10742 5.37305ZM1.10742 8.54492C1.61328 8.54492 2.03711 8.10742 2.03711 7.60156C2.03711 7.0957 1.61328 6.67188 1.10742 6.67188C0.587891 6.67188 0.164062 7.0957 0.164062 7.60156C0.164062 8.10742 0.587891 8.54492 1.10742 8.54492ZM1.10742 11.7031C1.61328 11.7031 2.03711 11.2793 2.03711 10.7734C2.03711 10.2539 1.61328 9.84375 1.10742 9.84375C0.587891 9.84375 0.164062 10.2539 0.164062 10.7734C0.164062 11.2793 0.587891 11.7031 1.10742 11.7031ZM1.10742 18.416C1.69531 18.416 2.20117 17.9238 2.20117 17.3223L2.20117 14.1094C2.20117 13.5078 1.70898 13.002 1.10742 13.002C0.505859 13.002 0 13.5078 0 14.1094L0 17.3223C0 17.9238 0.505859 18.416 1.10742 18.416Z" fill="white" fill-opacity="0.85"/>
 </g>
</svg>
