<svg version="1.1" xmlns="http://www.w3.org/2000/svg" xmlns:xlink="http://www.w3.org/1999/xlink" viewBox="0 0 28.2461 27.9043">
 <g>
  
  <path d="M8.8457 16.7344C8.80469 15.832 8.77734 14.9023 8.77734 13.9453C8.77734 7.90234 9.67969 3.00781 11.0879 0.300781C4.8125 1.62695 0 7.28711 0 13.9453C0 15.2578 3.44531 16.3242 8.8457 16.7344ZM11.0332 16.8438C11.9629 16.8711 12.9336 16.8984 13.9453 16.8984C22.1895 16.8984 27.8906 15.6406 27.8906 13.9453C27.8906 6.31641 21.5605 0 13.9316 0C12.2363 0 10.9785 5.70117 10.9785 13.9453C10.9785 14.9434 11.0059 15.9141 11.0332 16.8438ZM8.98242 18.8945C5.22266 18.5527 2.21484 17.7871 0.314453 16.7891C1.43555 22.1484 5.72852 26.4414 11.0879 27.5762C10.0898 25.6758 9.32422 22.6543 8.98242 18.8945ZM11.1426 19.0312C11.5527 24.4316 12.6055 27.877 13.9316 27.8906C20.6035 27.8906 26.2637 23.0645 27.5762 16.7891C24.8828 18.1973 19.9883 19.0996 13.9453 19.0996C12.9746 19.0996 12.0449 19.0723 11.1426 19.0312Z" style="fill:var(--color-0,hsl(0 0 0/0.85))"></path>
 </g>
</svg>