<?xml version="1.0" encoding="UTF-8"?>
<!--Generator: Apple Native CoreSVG 326-->
<!DOCTYPE svg
PUBLIC "-//W3C//DTD SVG 1.1//EN"
       "http://www.w3.org/Graphics/SVG/1.1/DTD/svg11.dtd">
<svg version="1.1" xmlns="http://www.w3.org/2000/svg" xmlns:xlink="http://www.w3.org/1999/xlink" viewBox="0 0 28.2461 27.9043">
 <g>
  <rect height="27.9043" opacity="0" width="28.2461" x="0" y="0"/>
  <path d="M9.24219 13.9453C9.24219 22.0664 11.1973 27.7676 13.9316 27.7676L13.9316 25.5664C12.7832 25.5664 11.4434 21.7109 11.4434 13.9453C11.4434 6.17969 12.7832 2.32422 13.9316 2.32422L13.9316 0.123047C11.1973 0.123047 9.24219 5.82422 9.24219 13.9453ZM13.959 18.6211C22.0801 18.6211 27.7812 16.6523 27.7812 13.9453L25.5801 13.9453C25.5801 15.0801 21.7246 16.4199 13.959 16.4199C6.19336 16.4199 2.33789 15.0801 2.33789 13.9453L0.136719 13.9453C0.136719 16.6523 5.83789 18.6211 13.959 18.6211ZM13.9453 27.8906C21.6426 27.8906 27.8906 21.6426 27.8906 13.9453C27.8906 6.24805 21.6426 0 13.9453 0C6.24805 0 0 6.24805 0 13.9453C0 21.6426 6.24805 27.8906 13.9453 27.8906ZM13.9453 25.5664C7.51953 25.5664 2.32422 20.3711 2.32422 13.9453C2.32422 7.51953 7.51953 2.32422 13.9453 2.32422C20.3711 2.32422 25.5664 7.51953 25.5664 13.9453C25.5664 20.3711 20.3711 25.5664 13.9453 25.5664Z" fill="white" fill-opacity="0.85"/>
 </g>
</svg>
