<svg version="1.1" xmlns="http://www.w3.org/2000/svg" xmlns:xlink="http://www.w3.org/1999/xlink" viewBox="0 0 35.7383 24.6018">
 <g>
  
  <path d="M0 13.8527C0 16.7785 0.478516 18.1183 2.65234 19.2394L10.3496 23.1906C13.1797 24.6535 15.2031 25.0226 18.375 24.0929L30.2148 20.6476C33.8652 19.5675 35.3828 17.3937 35.3828 13.8527L35.3828 5.32142C35.3828 2.84681 33.7422 1.16517 31.2812 1.16517L4.12891 1.1515C1.66797 1.1515 0 2.81947 0 5.2804Z" style="fill:var(--color-0,hsl(0 0 0/0.85))"></path>
  <path d="M7.47852 17.0929C6.82227 17.0929 6.4668 16.6691 6.4668 16.0402L6.4668 6.98939C6.4668 6.34681 6.82227 5.964 7.46484 5.964L9.76172 5.964C11.8672 5.964 13.1797 7.13978 13.1797 9.34095C13.1797 10.5714 12.7148 11.7609 11.6211 12.3214L12.9062 15.3839C13.043 15.6984 13.125 15.9718 13.125 16.1359C13.125 16.8331 12.6465 17.0929 12.1953 17.0929C11.6484 17.0929 11.3477 16.7921 11.1562 16.2726L9.74805 12.7316L8.46289 12.7316L8.46289 16.0402C8.46289 16.6827 8.08008 17.0929 7.47852 17.0929ZM8.46289 11.2824L9.58398 11.2824C10.6777 11.2824 11.1699 10.4757 11.1699 9.39564C11.1699 8.30189 10.623 7.54993 9.58398 7.54993L8.46289 7.54993ZM18.0469 17.1613C16.502 17.1613 15.2168 16.423 14.8066 14.9874C14.7383 14.755 14.7246 14.673 14.7246 14.4269C14.7246 13.921 15.0664 13.5382 15.5859 13.5382C16.0234 13.5382 16.3789 13.7433 16.4883 14.2081C16.6523 14.9601 17.1855 15.548 18.0742 15.548C18.9629 15.548 19.5098 14.9327 19.5098 14.0714C19.5098 13.0734 18.8262 12.6359 17.9238 12.2941L17.1719 12.007C15.791 11.4601 14.7656 10.5577 14.7656 8.84876C14.7656 6.89368 16.1191 5.69056 17.9922 5.69056C19.4961 5.69056 20.7266 6.48353 21.1367 7.91908C21.1914 8.19251 21.1914 8.31556 21.1914 8.42493C21.1914 8.91712 20.8633 9.25892 20.3438 9.25892C19.9062 9.25892 19.5781 9.08118 19.4414 8.61634C19.2773 7.9054 18.8398 7.30384 17.9922 7.30384C17.1992 7.30384 16.707 7.87806 16.707 8.69837C16.707 9.64173 17.3359 10.1066 18.2109 10.4484L18.9766 10.7218C20.5625 11.337 21.4512 12.1574 21.4512 13.8937C21.4512 15.9718 20.1523 17.1613 18.0469 17.1613ZM24.1309 16.9288C23.502 16.9288 23.1465 16.5187 23.1465 15.8898L23.1465 7.00306C23.1465 6.41517 23.4883 5.95033 24.1309 5.95033L26.9336 5.95033C28.5195 5.95033 29.6816 6.96204 29.6816 8.69837C29.6816 9.76478 28.9844 10.9132 27.9453 11.091L27.9453 11.1593C29.2305 11.296 30.0371 12.4992 30.0371 13.8253C30.0371 15.6574 28.916 16.9288 27.002 16.9288ZM25.1016 10.6124L26.209 10.6124C27.207 10.6124 27.7812 9.9972 27.7812 8.99915C27.7812 8.12415 27.3711 7.4679 26.3594 7.4679L25.1016 7.4679ZM25.1016 15.4249L26.4004 15.4249C27.4941 15.4249 28.041 14.755 28.041 13.6613C28.041 12.4718 27.3438 11.9386 26.3594 11.9386L25.1016 11.9386Z" style="fill:var(--color-1,white)"></path>
 </g>
</svg>