<?xml version="1.0" encoding="UTF-8"?>
<!--Generator: Apple Native CoreSVG 326-->
<!DOCTYPE svg
PUBLIC "-//W3C//DTD SVG 1.1//EN"
       "http://www.w3.org/Graphics/SVG/1.1/DTD/svg11.dtd">
<svg version="1.1" xmlns="http://www.w3.org/2000/svg" xmlns:xlink="http://www.w3.org/1999/xlink" viewBox="0 0 28.2461 27.9043">
 <g>
  <rect height="27.9043" opacity="0" width="28.2461" x="0" y="0"/>
  <path d="M13.9453 27.8906C21.6426 27.8906 27.8906 21.6289 27.8906 13.9453C27.8906 6.24805 21.6426 0 13.9453 0C6.26172 0 0 6.24805 0 13.9453C0 21.6289 6.26172 27.8906 13.9453 27.8906Z" fill="white" fill-opacity="0.85"/>
  <path d="M7.86133 19.5508C7.21875 19.5508 6.84961 19.1406 6.84961 18.5117L6.84961 9.57031C6.84961 8.92773 7.20508 8.54492 7.84766 8.54492L10.1035 8.54492C12.1953 8.54492 13.5078 9.70703 13.5078 11.8945C13.5078 13.1113 13.043 14.2734 11.9629 14.834L13.2344 17.8555C13.3574 18.1699 13.4395 18.4434 13.4395 18.5938C13.4395 19.2773 12.9609 19.5508 12.5234 19.5508C11.9766 19.5508 11.6895 19.25 11.498 18.7441L10.0898 15.2305L8.83203 15.2305L8.83203 18.5117C8.83203 19.1543 8.46289 19.5508 7.86133 19.5508ZM8.83203 13.7812L9.93945 13.7812C11.0195 13.7812 11.5117 13.002 11.5117 11.9355C11.5117 10.8691 10.9648 10.1035 9.93945 10.1035L8.83203 10.1035ZM18.0742 19.5371C17.541 19.5371 17.1035 19.0996 17.1035 18.5391L17.1035 10.1582L15.4219 10.1582C14.9707 10.1582 14.6016 9.78906 14.6016 9.33789C14.6016 8.88672 14.9707 8.53125 15.4219 8.53125L20.6855 8.53125C21.123 8.53125 21.4785 8.88672 21.4785 9.33789C21.4785 9.78906 21.123 10.1582 20.6855 10.1582L19.0586 10.1582L19.0586 18.5391C19.0586 19.0996 18.6211 19.5371 18.0742 19.5371Z" fill="white"/>
 </g>
</svg>
