<svg version="1.1" xmlns="http://www.w3.org/2000/svg" xmlns:xlink="http://www.w3.org/1999/xlink" viewBox="0 0 28.2461 27.9043">
 <g>
  
  <path d="M13.9453 27.8906C21.6426 27.8906 27.8906 21.6426 27.8906 13.9453C27.8906 6.24805 21.6426 0 13.9453 0C6.24805 0 0 6.24805 0 13.9453C0 21.6426 6.24805 27.8906 13.9453 27.8906ZM13.9453 25.5664C7.51953 25.5664 2.32422 20.3711 2.32422 13.9453C2.32422 7.51953 7.51953 2.32422 13.9453 2.32422C20.3711 2.32422 25.5664 7.51953 25.5664 13.9453C25.5664 20.3711 20.3711 25.5664 13.9453 25.5664Z" style="fill:var(--color-0,hsl(0 0 0/0.85))"></path>
  <path d="M7.73828 19.6602C8.35352 19.6602 8.72266 19.2637 8.72266 18.6211L8.72266 15.2578L10.0215 15.2578L11.4434 18.8398C11.6484 19.3594 11.9492 19.6602 12.4961 19.6602C12.9473 19.6602 13.4258 19.4004 13.4258 18.6895C13.4258 18.5391 13.3438 18.2656 13.207 17.9512L11.9082 14.8477C13.0156 14.2734 13.4941 13.084 13.4941 11.8535C13.4941 9.625 12.168 8.43555 10.0352 8.43555L7.72461 8.43555C7.06836 8.43555 6.71289 8.83203 6.71289 9.47461L6.71289 18.6211C6.71289 19.25 7.08203 19.6602 7.73828 19.6602ZM8.72266 13.7949L8.72266 10.0215L9.85742 10.0215C10.8965 10.0215 11.4707 10.8008 11.4707 11.8945C11.4707 12.9746 10.9648 13.7949 9.85742 13.7949ZM18.1562 19.6465C18.7031 19.6465 19.1543 19.209 19.1543 18.6484L19.1543 10.0762L20.8086 10.0762C21.2598 10.0762 21.6289 9.70703 21.6289 9.24219C21.6289 8.79102 21.2598 8.42188 20.8086 8.42188L15.4492 8.42188C14.9844 8.42188 14.6152 8.79102 14.6152 9.24219C14.6152 9.70703 14.9844 10.0762 15.4492 10.0762L17.1582 10.0762L17.1582 18.6484C17.1582 19.209 17.6094 19.6465 18.1562 19.6465Z" style="fill:var(--color-1,hsl(0 0 0/0.85))"></path>
 </g>
</svg>