<?xml version="1.0" encoding="UTF-8"?>
<!--Generator: Apple Native CoreSVG 326-->
<!DOCTYPE svg
PUBLIC "-//W3C//DTD SVG 1.1//EN"
       "http://www.w3.org/Graphics/SVG/1.1/DTD/svg11.dtd">
<svg version="1.1" xmlns="http://www.w3.org/2000/svg" xmlns:xlink="http://www.w3.org/1999/xlink" viewBox="0 0 25.5254 25.1699">
 <g>
  <rect height="25.1699" opacity="0" width="25.5254" x="0" y="0"/>
  <path d="M4.29297 25.1699L20.877 25.1699C23.748 25.1699 25.1699 23.7617 25.1699 20.9453L25.1699 4.23828C25.1699 1.42188 23.748 0 20.877 0L4.29297 0C1.43555 0 0 1.42188 0 4.23828L0 20.9453C0 23.7617 1.43555 25.1699 4.29297 25.1699ZM4.32031 22.9688C2.95312 22.9688 2.20117 22.2441 2.20117 20.8223L2.20117 4.36133C2.20117 2.93945 2.95312 2.20117 4.32031 2.20117L20.8496 2.20117C22.2031 2.20117 22.9688 2.93945 22.9688 4.36133L22.9688 20.8223C22.9688 22.2441 22.2031 22.9688 20.8496 22.9688Z" fill="white" fill-opacity="0.85"/>
  <path d="M10.2539 18.8672C10.7598 18.8672 11.0605 18.5527 11.0605 18.0469L11.0605 16.707L14.3418 16.707C14.6016 16.707 14.7793 16.5293 14.7793 16.2422C14.7793 15.9688 14.6016 15.8047 14.3418 15.8047L11.0605 15.8047L11.0605 14.0273L13.5078 14.0273C16.0781 14.0273 17.4863 12.3184 17.4863 10.2539C17.4863 8.12109 16.0234 6.45312 13.5488 6.45312L10.2676 6.45312C9.80273 6.45312 9.46094 6.80859 9.46094 7.30078L9.46094 13.1113L8.05273 13.1113C7.76562 13.1113 7.58789 13.3027 7.58789 13.5762C7.58789 13.8496 7.76562 14.0273 8.05273 14.0273L9.46094 14.0273L9.46094 15.8047L8.05273 15.8047C7.76562 15.8047 7.58789 15.9688 7.58789 16.2422C7.58789 16.5293 7.76562 16.707 8.05273 16.707L9.46094 16.707L9.46094 18.0469C9.46094 18.5527 9.77539 18.8672 10.2539 18.8672ZM11.0605 12.7012L11.0605 7.83398L13.125 7.83398C15.0664 7.83398 15.8457 8.91406 15.8457 10.2539C15.8457 11.8398 14.793 12.7012 13.125 12.7012Z" fill="white" fill-opacity="0.85"/>
 </g>
</svg>
