<svg version="1.1" xmlns="http://www.w3.org/2000/svg" xmlns:xlink="http://www.w3.org/1999/xlink" viewBox="0 0 30.8848 29.1895">
 <g>
  
  <path d="M1.81836 27.5898L28.7109 27.5898L28.7109 25.9766C28.7109 25.4297 28.3965 25.1016 27.8359 25.1016L26.9609 25.1016L26.9609 9.37891L28.1641 9.37891C28.916 9.37891 29.3535 8.83203 29.3535 8.27148C29.3535 7.86133 29.1211 7.50586 28.6152 7.21875L16.9395 0.478516C16.3926 0.164062 15.8184 0 15.2578 0C14.6973 0 14.1094 0.164062 13.5898 0.478516L1.91406 7.21875C1.39453 7.50586 1.17578 7.86133 1.17578 8.27148C1.17578 8.83203 1.61328 9.37891 2.36523 9.37891L3.56836 9.37891L3.56836 25.1016L2.70703 25.1016C2.14648 25.1016 1.81836 25.4297 1.81836 25.9766ZM1.09375 29.1758L29.4219 29.1758C30.0234 29.1758 30.5293 28.6699 30.5293 28.0684C30.5293 27.4668 30.0234 26.9746 29.4219 26.9746L1.09375 26.9746C0.492188 26.9746 0 27.4668 0 28.0684C0 28.6699 0.492188 29.1758 1.09375 29.1758Z" style="fill:var(--color-0,hsl(0 0 0/0.85))"></path>
  <path d="M12.8652 22.0938C12.3457 22.0938 12.0449 21.7793 12.0449 21.2461L12.0449 19.8789L10.582 19.8789C10.2949 19.8789 10.1035 19.6875 10.1035 19.3867C10.1035 19.1133 10.2949 18.9219 10.582 18.9219L12.0449 18.9219L12.0449 17.1035L10.582 17.1035C10.2949 17.1035 10.1035 16.9258 10.1035 16.6387C10.1035 16.3379 10.2949 16.1602 10.582 16.1602L12.0449 16.1602L12.0449 10.1582C12.0449 9.65234 12.3867 9.2832 12.8789 9.2832L16.2422 9.2832C18.8125 9.2832 20.3301 11.0195 20.3301 13.207C20.3301 15.3398 18.8535 17.1035 16.2148 17.1035L13.6992 17.1035L13.6992 18.9219L17.0762 18.9219C17.3496 18.9219 17.5273 19.1133 17.5273 19.3867C17.5273 19.6875 17.3496 19.8789 17.0762 19.8789L13.6992 19.8789L13.6992 21.2461C13.6992 21.7793 13.3848 22.0938 12.8652 22.0938ZM13.6992 15.7363L15.8184 15.7363C17.541 15.7363 18.6211 14.8477 18.6211 13.207C18.6211 11.8262 17.8281 10.7188 15.8184 10.7188L13.6992 10.7188Z" style="fill:var(--color-1,white)"></path>
 </g>
</svg>