<?xml version="1.0" encoding="UTF-8"?>
<!--Generator: Apple Native CoreSVG 326-->
<!DOCTYPE svg
PUBLIC "-//W3C//DTD SVG 1.1//EN"
       "http://www.w3.org/Graphics/SVG/1.1/DTD/svg11.dtd">
<svg version="1.1" xmlns="http://www.w3.org/2000/svg" xmlns:xlink="http://www.w3.org/1999/xlink" viewBox="0 0 30.9258 30.584">
 <g>
  <rect height="30.584" opacity="0" width="30.9258" x="0" y="0"/>
  <path d="M15.2852 30.5703C23.6797 30.5703 30.5703 23.6797 30.5703 15.2852C30.5703 6.89062 23.6797 0 15.2852 0C6.89062 0 0 6.89062 0 15.2852C0 23.6797 6.89062 30.5703 15.2852 30.5703ZM15.2852 25.4844C9.65234 25.4844 5.08594 20.918 5.08594 15.2852C5.08594 9.63867 9.65234 5.08594 15.2852 5.08594C20.9316 5.08594 25.4844 9.63867 25.4844 15.2852C25.4844 20.918 20.9316 25.4844 15.2852 25.4844Z" fill="white" fill-opacity="0.85"/>
  <path d="M12.9473 21.5742C13.4531 21.5742 13.7539 21.2598 13.7539 20.7539L13.7539 19.4141L17.0352 19.4141C17.2949 19.4141 17.4727 19.2363 17.4727 18.9492C17.4727 18.6758 17.2949 18.5117 17.0352 18.5117L13.7539 18.5117L13.7539 16.7344L16.2012 16.7344C18.7715 16.7344 20.1797 15.0254 20.1797 12.9609C20.1797 10.8281 18.7168 9.16016 16.2422 9.16016L12.9609 9.16016C12.4961 9.16016 12.1543 9.51562 12.1543 10.0078L12.1543 15.8184L10.7461 15.8184C10.459 15.8184 10.2812 16.0098 10.2812 16.2832C10.2812 16.5566 10.459 16.7344 10.7461 16.7344L12.1543 16.7344L12.1543 18.5117L10.7461 18.5117C10.459 18.5117 10.2812 18.6758 10.2812 18.9492C10.2812 19.2363 10.459 19.4141 10.7461 19.4141L12.1543 19.4141L12.1543 20.7539C12.1543 21.2598 12.4688 21.5742 12.9473 21.5742ZM13.7539 15.4082L13.7539 10.541L15.8184 10.541C17.7598 10.541 18.5391 11.6211 18.5391 12.9609C18.5391 14.5469 17.4863 15.4082 15.8184 15.4082Z" fill="white" fill-opacity="0.85"/>
 </g>
</svg>
