<?xml version="1.0" encoding="UTF-8"?>
<!--Generator: Apple Native CoreSVG 326-->
<!DOCTYPE svg
PUBLIC "-//W3C//DTD SVG 1.1//EN"
       "http://www.w3.org/Graphics/SVG/1.1/DTD/svg11.dtd">
<svg version="1.1" xmlns="http://www.w3.org/2000/svg" xmlns:xlink="http://www.w3.org/1999/xlink" viewBox="0 0 33.5408 27.9043">
 <g>
  <rect height="27.9043" opacity="0" width="33.5408" x="0" y="0"/>
  <path d="M16.5995 27.8906C24.2968 27.8906 30.5448 21.6426 30.5448 13.9453C30.5448 6.24805 24.2968 0 16.5995 0C8.90224 0 2.65419 6.24805 2.65419 13.9453L4.97841 13.9453C4.97841 7.51953 10.1737 2.32422 16.5995 2.32422C23.0253 2.32422 28.2206 7.51953 28.2206 13.9453C28.2206 20.3711 23.0253 25.5664 16.5995 25.5664C12.7167 25.5664 9.2577 23.6523 7.19325 20.7539C6.76942 20.1934 6.12684 20.0156 5.55263 20.3574C5.00575 20.6992 4.84169 21.4648 5.30653 22.0664C7.83583 25.6074 11.9784 27.8906 16.5995 27.8906ZM0.972548 11.3066C-0.0118272 11.3066-0.257921 11.9766 0.275282 12.7422L3.33778 17.0898C3.78895 17.7188 4.4452 17.7051 4.8827 17.0898L7.93153 12.7285C8.46474 11.9766 8.20497 11.3066 7.24794 11.3066Z" fill="white" fill-opacity="0.85"/>
  <path d="M14.2616 20.2344C14.7675 20.2344 15.0683 19.9199 15.0683 19.4141L15.0683 18.0742L18.3495 18.0742C18.6093 18.0742 18.787 17.8965 18.787 17.6094C18.787 17.3359 18.6093 17.1719 18.3495 17.1719L15.0683 17.1719L15.0683 15.3945L17.5155 15.3945C20.0722 15.3945 21.494 13.6855 21.494 11.6211C21.494 9.48828 20.0311 7.82031 17.5429 7.82031L14.2753 7.82031C13.7968 7.82031 13.4686 8.17578 13.4686 8.66797L13.4686 14.4785L12.0604 14.4785C11.7733 14.4785 11.5956 14.6699 11.5956 14.9434C11.5956 15.2168 11.7733 15.3945 12.0604 15.3945L13.4686 15.3945L13.4686 17.1719L12.0604 17.1719C11.7733 17.1719 11.5956 17.3359 11.5956 17.6094C11.5956 17.8965 11.7733 18.0742 12.0604 18.0742L13.4686 18.0742L13.4686 19.4141C13.4686 19.9199 13.7694 20.2344 14.2616 20.2344ZM15.0683 14.0684L15.0683 9.20117L17.1327 9.20117C19.0741 9.20117 19.8534 10.2812 19.8534 11.6211C19.8534 13.207 18.8007 14.0684 17.1327 14.0684Z" fill="white" fill-opacity="0.85"/>
 </g>
</svg>
