<?xml version="1.0" encoding="UTF-8"?>
<!--Generator: Apple Native CoreSVG 326-->
<!DOCTYPE svg
PUBLIC "-//W3C//DTD SVG 1.1//EN"
       "http://www.w3.org/Graphics/SVG/1.1/DTD/svg11.dtd">
<svg version="1.1" xmlns="http://www.w3.org/2000/svg" xmlns:xlink="http://www.w3.org/1999/xlink" viewBox="0 0 19.7559 24.8145">
 <g>
  <rect height="24.8145" opacity="0" width="19.7559" x="0" y="0"/>
  <path d="M5.11328 24.8008C5.94727 24.8008 6.4668 24.2539 6.4668 23.4062L6.4668 20.3711L13.207 20.3711C13.7402 20.3711 14.0684 20.0293 14.0684 19.4824C14.0684 18.9355 13.7402 18.5801 13.207 18.5801L6.4668 18.5801L6.4668 15.0254L11.5527 15.0254C16.1738 15.0254 19.4004 12.0859 19.4004 7.51953C19.4004 2.93945 16.2012 0 11.5801 0L5.11328 0C4.2793 0 3.74609 0.533203 3.74609 1.4082L3.74609 13.2207L0.888672 13.2207C0.341797 13.2207 0 13.5762 0 14.123C0 14.6699 0.341797 15.0254 0.888672 15.0254L3.74609 15.0254L3.74609 18.5801L0.888672 18.5801C0.341797 18.5801 0.0136719 18.9355 0.0136719 19.4824C0.0136719 20.0293 0.341797 20.3711 0.888672 20.3711L3.74609 20.3711L3.74609 23.4062C3.74609 24.2539 4.2793 24.8008 5.11328 24.8008ZM6.4668 12.6875L6.4668 2.37891L10.8965 2.37891C14.4648 2.37891 16.625 4.12891 16.625 7.51953C16.625 10.9102 14.4648 12.6875 10.8965 12.6875Z" fill="white" fill-opacity="0.85"/>
 </g>
</svg>
