<?xml version="1.0" encoding="UTF-8"?>
<!--Generator: Apple Native CoreSVG 326-->
<!DOCTYPE svg
PUBLIC "-//W3C//DTD SVG 1.1//EN"
       "http://www.w3.org/Graphics/SVG/1.1/DTD/svg11.dtd">
<svg version="1.1" xmlns="http://www.w3.org/2000/svg" xmlns:xlink="http://www.w3.org/1999/xlink" viewBox="0 0 28.1549 27.7994">
 <g>
  <rect height="27.7994" opacity="0" width="28.1549" x="0" y="0"/>
  <path d="M27.1683 3.11945C27.0316 2.65461 26.8812 2.27179 26.7034 1.98469L18.596 10.0648L19.553 11.0355C19.7991 11.2952 19.7991 11.678 19.553 11.9105C19.307 12.1702 18.9105 12.1702 18.6644 11.9105L15.8753 9.1214C15.6155 8.87531 15.6155 8.47883 15.8753 8.21906C16.1077 7.98664 16.5042 7.98664 16.7503 8.21906L17.721 9.20344L25.8148 1.09601C25.514 0.918279 25.1448 0.767889 24.6663 0.63117C18.8831-1.10516 11.3499 0.754217 6.04523 6.04523C0.754217 11.3499-1.10516 18.8831 0.63117 24.6663C0.78156 25.1448 0.918279 25.5003 1.10969 25.8011L9.27179 17.6527L8.30109 16.682C8.055 16.4222 8.06867 16.0394 8.30109 15.7796C8.54719 15.5472 8.95734 15.5472 9.20344 15.7796L11.9925 18.5823C12.2386 18.8284 12.2386 19.2386 11.9925 19.4847C11.7601 19.7308 11.3636 19.7308 11.1175 19.4847L10.1468 18.5277L1.99836 26.6898C2.29914 26.8675 2.66828 27.0179 3.11945 27.1546C8.91633 28.8909 16.4359 27.0316 21.7405 21.7405C27.0316 16.4359 28.8909 8.91633 27.1683 3.11945ZM13.9749 11.0081C13.7288 10.762 13.7288 10.3655 13.9749 10.1195C14.221 9.88703 14.6038 9.85969 14.8636 10.1195L17.6663 12.9359C17.9261 13.182 17.9124 13.5648 17.6663 13.8109C17.4202 14.057 17.0237 14.057 16.7777 13.8109ZM12.0745 12.8812C11.8421 12.6487 11.8421 12.2523 12.0745 12.0062C12.3206 11.7737 12.7171 11.7464 12.9632 12.0062L15.7796 14.8226C16.0257 15.0687 16.012 15.4515 15.7796 15.6976C15.5335 15.9437 15.137 15.9437 14.8909 15.6976ZM10.1878 14.7816C9.94172 14.5355 9.95539 14.139 10.1878 13.8929C10.4339 13.6605 10.8441 13.6468 11.0902 13.8929L13.8929 16.6956C14.139 16.9417 14.1253 17.3519 13.8929 17.598C13.6468 17.8304 13.2503 17.8441 13.0042 17.598Z" fill="white" fill-opacity="0.85"/>
 </g>
</svg>
