<?xml version="1.0" encoding="UTF-8"?>
<!--Generator: Apple Native CoreSVG 326-->
<!DOCTYPE svg
PUBLIC "-//W3C//DTD SVG 1.1//EN"
       "http://www.w3.org/Graphics/SVG/1.1/DTD/svg11.dtd">
<svg version="1.1" xmlns="http://www.w3.org/2000/svg" xmlns:xlink="http://www.w3.org/1999/xlink" viewBox="0 0 33.291 27.3099">
 <g>
  <rect height="27.3099" opacity="0" width="33.291" x="0" y="0"/>
  <path d="M32.9355 16.3962C32.9355 7.78289 26.3184 0.714533 17.8965 0.00359537C17.459-0.0374203 17.1309 0.277033 17.1309 0.714533L17.1309 5.18524C17.1309 5.55438 17.3906 5.84149 17.7598 5.86883C22.9961 6.51141 27.0703 10.9821 27.0703 16.3962C27.0703 18.8571 26.2227 21.1266 24.7324 23.027C24.541 23.2595 24.5547 23.5602 24.7598 23.779L28.0273 27.0329C28.3281 27.3337 28.793 27.3337 29.0664 27.0055C31.4863 24.1345 32.9355 20.4294 32.9355 16.3962Z" fill="white" fill-opacity="0.85"/>
  <path d="M0 16.3962C0 20.443 1.44922 24.1481 3.86914 27.0192C4.14258 27.3473 4.59375 27.3337 4.9082 27.0329L8.17578 23.779C8.38086 23.5602 8.39453 23.2595 8.20312 23.027C6.69922 21.1266 5.86523 18.8571 5.86523 16.3962C5.86523 10.9821 9.93945 6.51141 15.1758 5.86883C15.5449 5.84149 15.8047 5.55438 15.8047 5.18524L15.8047 0.714533C15.8047 0.277033 15.4766-0.0374203 15.0391 0.00359537C6.61719 0.714533 0 7.78289 0 16.3962Z" fill="white" fill-opacity="0.85"/>
  <path d="M11.1426 22.1657C11.6348 22.1657 11.9219 21.8376 11.9219 21.3454L11.9219 17.654L13.6035 17.654L15.2852 21.5915C15.4355 21.9606 15.668 22.1657 16.0508 22.1657C16.4883 22.1657 16.8301 21.8786 16.8301 21.4274C16.8301 21.236 16.748 21.0856 16.666 20.8669L15.1074 17.3122C16.3105 16.7927 16.8711 15.6032 16.8711 14.3317C16.8711 12.4997 15.8184 11.0505 13.5352 11.0505L11.1289 11.0505C10.6641 11.0505 10.3633 11.3649 10.3633 11.8434L10.3633 21.3454C10.3633 21.8376 10.6504 22.1657 11.1426 22.1657ZM11.9219 16.3962L11.9219 12.3493L13.3848 12.3493C14.6152 12.3493 15.2988 13.1286 15.2988 14.3591C15.2988 15.5895 14.6562 16.3962 13.3984 16.3962ZM20.877 22.1794C22.4629 22.1794 23.8027 21.277 23.8027 19.6501C23.8027 18.3376 23.0234 17.7634 21.7246 17.4079L20.6172 17.1071C20.002 16.943 19.4961 16.6286 19.4961 15.9723C19.4961 15.2204 20.084 14.7555 20.8359 14.7555C21.6289 14.7555 22.1211 15.193 22.4082 15.8356C22.5039 16.0407 22.709 16.1774 22.9414 16.1774C23.3652 16.1774 23.5293 15.9177 23.5293 15.6169C23.5293 15.5212 23.502 15.3708 23.4609 15.2477C23.1738 14.2907 22.1211 13.6208 20.877 13.6208C19.1543 13.6208 18.0195 14.5778 18.0195 16.0544C18.0195 17.3259 18.8672 17.9958 20.084 18.3102L21.2051 18.611C21.875 18.7888 22.3262 19.1169 22.3262 19.8005C22.3262 20.5388 21.7793 21.0309 20.9453 21.0309C20.0566 21.0309 19.5781 20.7302 19.1406 19.9372C18.9766 19.6364 18.7305 19.5134 18.498 19.5134C18.1426 19.5134 17.8828 19.7595 17.8828 20.1149C17.8828 20.2243 17.9238 20.3473 17.9648 20.4704C18.3203 21.6462 19.6328 22.1794 20.877 22.1794Z" fill="white" fill-opacity="0.85"/>
 </g>
</svg>
