<?xml version="1.0" encoding="UTF-8"?>
<!--Generator: Apple Native CoreSVG 326-->
<!DOCTYPE svg
PUBLIC "-//W3C//DTD SVG 1.1//EN"
       "http://www.w3.org/Graphics/SVG/1.1/DTD/svg11.dtd">
<svg version="1.1" xmlns="http://www.w3.org/2000/svg" xmlns:xlink="http://www.w3.org/1999/xlink" viewBox="0 0 33.5408 27.9043">
 <g>
  <rect height="27.9043" opacity="0" width="33.5408" x="0" y="0"/>
  <path d="M16.5995 27.8906C24.2968 27.8906 30.5448 21.6426 30.5448 13.9453C30.5448 6.24805 24.2968 0 16.5995 0C8.90224 0 2.65419 6.24805 2.65419 13.9453L4.97841 13.9453C4.97841 7.51953 10.1737 2.32422 16.5995 2.32422C23.0253 2.32422 28.2206 7.51953 28.2206 13.9453C28.2206 20.3711 23.0253 25.5664 16.5995 25.5664C12.7167 25.5664 9.2577 23.6523 7.19325 20.7539C6.76942 20.1934 6.12684 20.0156 5.55263 20.3574C5.00575 20.6992 4.84169 21.4648 5.30653 22.0664C7.83583 25.6074 11.9784 27.8906 16.5995 27.8906ZM0.972548 11.3066C-0.0118272 11.3066-0.257921 11.9766 0.275282 12.7422L3.33778 17.0898C3.78895 17.7188 4.4452 17.7051 4.8827 17.0898L7.93153 12.7285C8.46474 11.9766 8.20497 11.3066 7.24794 11.3066Z" fill="white" fill-opacity="0.85"/>
  <path d="M11.2948 19.5234C11.787 19.5234 12.0741 19.209 12.0741 18.7168L12.0741 15.0117L13.7558 15.0117L15.4237 18.9629C15.5741 19.332 15.8065 19.5234 16.203 19.5234C16.6405 19.5234 16.9823 19.2363 16.9823 18.7988C16.9823 18.6074 16.9003 18.4434 16.8046 18.2246L15.2597 14.6836C16.4491 14.1641 17.0097 12.9746 17.0097 11.6895C17.0097 9.85742 15.9569 8.42188 13.6874 8.42188L11.2811 8.42188C10.8026 8.42188 10.5155 8.73633 10.5155 9.21484L10.5155 18.7168C10.5155 19.209 10.8026 19.5234 11.2948 19.5234ZM12.0741 13.7676L12.0741 9.7207L13.537 9.7207C14.7675 9.7207 15.4511 10.5 15.4511 11.7168C15.4511 12.9609 14.7948 13.7676 13.5507 13.7676ZM21.0292 19.5371C22.6151 19.5371 23.955 18.6484 23.955 17.0215C23.955 15.6953 23.1757 15.1348 21.8632 14.7793L20.7694 14.4785C20.1405 14.3145 19.6347 13.9863 19.6347 13.3438C19.6347 12.5918 20.2362 12.127 20.9882 12.127C21.7811 12.127 22.2733 12.5645 22.5604 13.207C22.6561 13.3984 22.8612 13.5352 23.0936 13.5352C23.5175 13.5352 23.6815 13.2754 23.6815 12.9883C23.6815 12.8926 23.6542 12.7422 23.6132 12.6191C23.3261 11.6484 22.2733 10.9922 21.0292 10.9922C19.3065 10.9922 18.1718 11.9492 18.1718 13.4121C18.1718 14.6836 19.0058 15.3672 20.2362 15.6816L21.3436 15.9688C22.0272 16.1465 22.4647 16.4883 22.4647 17.1719C22.4647 17.9102 21.9179 18.4023 21.0975 18.4023C20.1952 18.4023 19.7304 18.1016 19.2929 17.3086C19.1288 17.0078 18.8827 16.8848 18.6503 16.8848C18.2948 16.8848 18.035 17.1309 18.035 17.4863C18.035 17.582 18.0761 17.7051 18.1034 17.8418C18.4725 19.0039 19.7714 19.5371 21.0292 19.5371Z" fill="white" fill-opacity="0.85"/>
 </g>
</svg>
