<svg version="1.1" xmlns="http://www.w3.org/2000/svg" xmlns:xlink="http://www.w3.org/1999/xlink" viewBox="0 0 31.6641 25.416">
 <g>
  
  <path d="M1.38086 25.3613C2.22852 25.3613 2.73438 24.7871 2.73438 23.9531L2.73438 14.8066L7.06836 14.8066C7.23242 14.8066 7.41016 14.8066 7.56055 14.8066L12.2637 24.4727C12.5645 25.1152 12.9609 25.3613 13.6309 25.3613C14.4512 25.3613 14.9707 24.7871 14.9707 24.1172C14.9707 23.8027 14.8203 23.4609 14.6699 23.1738L10.2402 14.2461C13.207 13.2344 14.9434 10.5684 14.9434 7.31445C14.9434 2.88477 12.0176 0 7.17773 0L1.38086 0C0.519531 0 0 0.574219 0 1.42188L0 23.9531C0 24.8145 0.546875 25.3613 1.38086 25.3613ZM2.73438 12.4277L2.73438 2.41992L6.86328 2.41992C10.1035 2.41992 12.1953 4.16992 12.1953 7.39648C12.1953 10.6504 10.2539 12.4277 6.95898 12.4277ZM24.7324 25.334C28.3145 25.334 31.3086 23.4062 31.3086 19.8652C31.3086 16.7207 29.3809 15.5723 26.4141 14.7793L23.9395 14.1094C22.3535 13.6719 20.9453 12.9336 20.9453 11.2656C20.9453 9.32422 22.6543 8.2168 24.6367 8.2168C26.6875 8.2168 27.9727 9.17383 28.6699 11.0469C28.8887 11.5254 29.2168 11.7578 29.7637 11.7578C30.4062 11.7578 30.7617 11.3477 30.7617 10.7461C30.7617 10.6094 30.748 10.4316 30.707 10.2676C30.1328 7.56055 27.5215 6.05664 24.7461 6.05664C21.3418 6.05664 18.3477 7.88867 18.3477 11.4023C18.3477 14.2461 20.3438 15.668 23.2012 16.4199L25.7031 17.0762C27.4668 17.5273 28.7109 18.2383 28.7109 20.0703C28.7109 22.0938 27.0566 23.2012 24.8828 23.2012C22.5996 23.2012 21.0547 22.3809 20.2344 20.2891C19.9609 19.7422 19.5645 19.4688 19.0859 19.4688C18.416 19.4688 17.9512 19.8652 17.9512 20.5762C17.9512 20.7676 17.9922 20.9727 18.0605 21.1914C18.9082 23.9395 21.6699 25.334 24.7324 25.334Z" style="fill:var(--color-0,hsl(0 0 0/0.85))"></path>
 </g>
</svg>