<?xml version="1.0" encoding="UTF-8"?>
<!--Generator: Apple Native CoreSVG 326-->
<!DOCTYPE svg
PUBLIC "-//W3C//DTD SVG 1.1//EN"
       "http://www.w3.org/Graphics/SVG/1.1/DTD/svg11.dtd">
<svg version="1.1" xmlns="http://www.w3.org/2000/svg" xmlns:xlink="http://www.w3.org/1999/xlink" viewBox="0 0 25.5254 25.1699">
 <g>
  <rect height="25.1699" opacity="0" width="25.5254" x="0" y="0"/>
  <path d="M4.29297 25.1699L20.877 25.1699C23.748 25.1699 25.1699 23.7617 25.1699 20.9453L25.1699 4.23828C25.1699 1.42188 23.748 0 20.877 0L4.29297 0C1.43555 0 0 1.42188 0 4.23828L0 20.9453C0 23.7617 1.43555 25.1699 4.29297 25.1699Z" fill="white" fill-opacity="0.85"/>
  <path d="M7.0957 18.334C6.58984 18.334 6.28906 18.0059 6.28906 17.4863L6.28906 7.69727C6.28906 7.20508 6.60352 6.87695 7.08203 6.87695L9.57031 6.87695C11.9082 6.87695 13.002 8.36719 13.002 10.2539C13.002 11.5801 12.4277 12.7969 11.1973 13.3438L12.7832 16.9805C12.8789 17.2129 12.9746 17.377 12.9746 17.582C12.9746 18.0332 12.6191 18.334 12.168 18.334C11.7578 18.334 11.5254 18.1289 11.3613 17.7461L9.63867 13.6855L7.91602 13.6855L7.91602 17.4863C7.91602 18.0059 7.61523 18.334 7.0957 18.334ZM7.91602 12.3867L9.43359 12.3867C10.7188 12.3867 11.3887 11.5664 11.3887 10.2812C11.3887 9.02344 10.6777 8.23047 9.41992 8.23047L7.91602 8.23047ZM17.1445 18.3477C15.8594 18.3477 14.5059 17.7871 14.123 16.5977C14.0957 16.4473 14.0547 16.3242 14.0547 16.2285C14.0547 15.8594 14.3145 15.5996 14.6836 15.5996C14.9297 15.5996 15.1895 15.7363 15.3535 16.0371C15.8047 16.8574 16.2832 17.1719 17.2129 17.1719C18.0605 17.1719 18.6211 16.666 18.6211 15.9004C18.6211 15.2031 18.1699 14.8477 17.459 14.6699L16.3242 14.3691C15.0664 14.041 14.1914 13.3438 14.1914 12.0312C14.1914 10.5137 15.3672 9.5293 17.1445 9.5293C18.416 9.5293 19.5098 10.1992 19.8105 11.2109C19.8516 11.334 19.8789 11.4844 19.8789 11.5938C19.8789 11.8809 19.7148 12.1543 19.2637 12.1543C19.0312 12.1543 18.8125 12.0176 18.7168 11.8125C18.416 11.1562 17.9102 10.7051 17.1035 10.7051C16.3242 10.7051 15.7227 11.1836 15.7227 11.9629C15.7227 12.6191 16.2285 12.9609 16.8711 13.125L18.0059 13.4395C19.3594 13.7949 20.166 14.3828 20.166 15.75C20.166 17.4316 18.7715 18.3477 17.1445 18.3477Z" fill="white"/>
 </g>
</svg>
