<?xml version="1.0" encoding="UTF-8"?>
<!--Generator: Apple Native CoreSVG 326-->
<!DOCTYPE svg
PUBLIC "-//W3C//DTD SVG 1.1//EN"
       "http://www.w3.org/Graphics/SVG/1.1/DTD/svg11.dtd">
<svg version="1.1" xmlns="http://www.w3.org/2000/svg" xmlns:xlink="http://www.w3.org/1999/xlink" viewBox="0 0 28.2461 27.9043">
 <g>
  <rect height="27.9043" opacity="0" width="28.2461" x="0" y="0"/>
  <path d="M13.9453 27.8906C21.6426 27.8906 27.8906 21.6426 27.8906 13.9453C27.8906 6.24805 21.6426 0 13.9453 0C6.24805 0 0 6.24805 0 13.9453C0 21.6426 6.24805 27.8906 13.9453 27.8906ZM13.9453 25.5664C7.51953 25.5664 2.32422 20.3711 2.32422 13.9453C2.32422 7.51953 7.51953 2.32422 13.9453 2.32422C20.3711 2.32422 25.5664 7.51953 25.5664 13.9453C25.5664 20.3711 20.3711 25.5664 13.9453 25.5664Z" fill="white" fill-opacity="0.85"/>
  <path d="M8.2168 20.8359L16.0645 17.0078C16.502 16.7891 16.8027 16.4883 17.0215 16.0645L20.8359 8.23047C21.2734 7.30078 20.6035 6.57617 19.6465 7.05469L11.8262 10.8691C11.4023 11.0605 11.1152 11.3477 10.8828 11.8125L7.04102 19.6602C6.60352 20.5625 7.31445 21.2734 8.2168 20.8359ZM13.9453 15.627C13.0156 15.627 12.2773 14.875 12.2773 13.959C12.2773 13.0293 13.0156 12.2773 13.9453 12.2773C14.875 12.2773 15.627 13.0293 15.627 13.959C15.627 14.875 14.875 15.627 13.9453 15.627Z" fill="white" fill-opacity="0.85"/>
 </g>
</svg>
