<?xml version="1.0" encoding="UTF-8"?>
<!--Generator: Apple Native CoreSVG 326-->
<!DOCTYPE svg
PUBLIC "-//W3C//DTD SVG 1.1//EN"
       "http://www.w3.org/Graphics/SVG/1.1/DTD/svg11.dtd">
<svg version="1.1" xmlns="http://www.w3.org/2000/svg" xmlns:xlink="http://www.w3.org/1999/xlink" viewBox="0 0 28.2461 27.9043">
 <g>
  <rect height="27.9043" opacity="0" width="28.2461" x="0" y="0"/>
  <path d="M13.9453 27.8906C21.6426 27.8906 27.8906 21.6426 27.8906 13.9453C27.8906 6.24805 21.6426 0 13.9453 0C6.24805 0 0 6.24805 0 13.9453C0 21.6426 6.24805 27.8906 13.9453 27.8906ZM13.9453 25.5664C7.51953 25.5664 2.32422 20.3711 2.32422 13.9453C2.32422 7.51953 7.51953 2.32422 13.9453 2.32422C20.3711 2.32422 25.5664 7.51953 25.5664 13.9453C25.5664 20.3711 20.3711 25.5664 13.9453 25.5664Z" fill="white" fill-opacity="0.85"/>
  <path d="M12.5234 18.9355L13.6309 18.9355L14.6973 6.60352C14.6973 6.52148 14.7793 6.52148 14.8066 6.60352C15.2852 7.9707 15.5449 9.66602 15.5449 11.1973C15.5449 13.3301 14.875 15.1758 13.7129 16.3105L13.5898 17.3359C15.3535 17.5273 17.1445 17.459 18.2793 17.2812C19.1543 17.1445 19.5918 16.7891 19.8789 16.0098C20.2207 15.1484 20.3438 14.2188 20.3438 13.207C20.3438 10.5684 19.1816 7.58789 15.5859 5.70117C15.2715 5.52344 14.9844 5.45508 14.7246 5.45508C14.1641 5.45508 13.6719 5.79688 13.6309 6.39844ZM8.69531 17.3496C10.1035 17.5 11.6758 17.5 13.0703 17.3496L13.8086 8.55859L8.27148 16.2695C7.90234 16.8027 8.09375 17.2812 8.69531 17.3496ZM9.65234 21.6973L16.7754 21.6973C17.2812 21.6973 17.6367 21.5605 18.0195 21.2188C18.6484 20.6582 19.6055 19.2363 19.6055 18.7031C19.6055 18.3613 19.373 18.0742 18.8672 18.1426C15.6406 18.5938 11.9766 18.5938 8.58594 18.5938C8.03906 18.5938 7.75195 19.0039 7.94336 19.4961L8.44922 20.8633C8.66797 21.4648 9.02344 21.6973 9.65234 21.6973Z" fill="white" fill-opacity="0.85"/>
 </g>
</svg>
