<?xml version="1.0" encoding="UTF-8"?>
<!--Generator: Apple Native CoreSVG 326-->
<!DOCTYPE svg
PUBLIC "-//W3C//DTD SVG 1.1//EN"
       "http://www.w3.org/Graphics/SVG/1.1/DTD/svg11.dtd">
<svg version="1.1" xmlns="http://www.w3.org/2000/svg" xmlns:xlink="http://www.w3.org/1999/xlink" viewBox="0 0 27.3892 28.916">
 <g>
  <rect height="28.916" opacity="0" width="27.3892" x="0" y="0"/>
  <path d="M0.200477 24.4043C-0.51046 27.248 0.692665 28.8887 3.44071 28.8887L23.5931 28.8887C26.3411 28.8887 27.5442 27.248 26.8333 24.4043L23.8118 12.1953C23.3059 10.1855 21.8567 9.02344 19.8196 9.02344L7.21415 9.02344C5.17704 9.02344 3.71415 10.1855 3.22196 12.1953ZM2.33329 24.541L5.27274 12.9609C5.57352 11.7852 6.24345 11.2246 7.37821 11.2246L19.6556 11.2246C20.7903 11.2246 21.4602 11.7852 21.761 12.9609L24.7005 24.541C25.0696 25.9492 24.5227 26.6875 23.3059 26.6875L3.71415 26.6875C2.51102 26.6875 1.96415 25.9492 2.33329 24.541ZM12.4095 10.623L14.6106 10.623L14.6106 6.72656L12.4095 6.72656ZM13.5169 7.79297C15.636 7.79297 17.427 6.0293 17.427 3.91016C17.427 1.77734 15.636 0 13.5169 0C11.3841 0 9.60673 1.77734 9.60673 3.91016C9.60673 6.04297 11.3977 7.79297 13.5169 7.79297ZM13.5169 5.89258C12.4368 5.89258 11.5208 4.99023 11.5208 3.91016C11.5208 2.83008 12.4231 1.90039 13.5169 1.90039C14.597 1.90039 15.513 2.83008 15.513 3.91016C15.513 4.99023 14.6106 5.89258 13.5169 5.89258Z" fill="white" fill-opacity="0.85"/>
 </g>
</svg>
