<svg version="1.1" xmlns="http://www.w3.org/2000/svg" xmlns:xlink="http://www.w3.org/1999/xlink" viewBox="0 0 28.2461 27.9043">
 <g>
  
  <path d="M27.8906 13.9453C27.8906 21.6426 21.6426 27.8906 13.9453 27.8906C6.24805 27.8906 0 21.6426 0 13.9453C0 6.24805 6.24805 0 13.9453 0C21.6426 0 27.8906 6.24805 27.8906 13.9453ZM2.32422 13.9453C2.32422 20.3711 7.51953 25.5664 13.9453 25.5664C20.3711 25.5664 25.5664 20.3711 25.5664 13.9453C25.5664 7.51953 20.3711 2.32422 13.9453 2.32422C7.51953 2.32422 2.32422 7.51953 2.32422 13.9453Z" style="fill:var(--color-0,hsl(0 0 0/0.85))"></path>
  <path d="M22.5039 17.0078C22.2578 17.9785 21.2188 18.1836 19.5918 17.5957L14.8302 15.8858L17.6076 14.4117ZM11.2383 10.3086C11.2383 10.8555 11.2656 11.0605 11.6484 11.252L12.9444 11.9391C12.5466 12.2362 12.2721 12.6235 12.0881 13.1243C12.0417 13.0984 11.9908 13.0713 11.9355 13.043L10.9238 12.4961C10.7734 12.4277 10.6914 12.4004 10.5684 12.4004C10.0352 12.4004 9.84375 12.8926 8.6543 12.8926C7.20508 12.8926 6.05664 11.7441 6.05664 10.3086C6.05664 8.85938 7.20508 7.69727 8.6543 7.69727C10.0762 7.69727 11.2383 8.8457 11.2383 10.3086ZM7.12305 10.3086C7.12305 11.1562 7.80664 11.8398 8.6543 11.8398C9.48828 11.8398 10.1719 11.1562 10.1719 10.3086C10.1719 9.44727 9.48828 8.76367 8.6543 8.76367C7.80664 8.76367 7.12305 9.44727 7.12305 10.3086Z" style="fill:var(--color-1,hsl(0 0 0/0.85))"></path>
  <path d="M8.6543 20.1934C10.0762 20.1934 11.2383 19.0449 11.2383 17.582C11.2383 17.0352 11.2656 16.8301 11.6484 16.625L22.5039 10.8691C22.2578 9.91211 21.2188 9.70703 19.5918 10.2949L14.1094 12.2637C13.3438 12.5371 12.9883 12.9199 12.7969 13.6445L12.6738 14.1094C12.5918 14.4375 12.4414 14.5879 11.9355 14.8477L10.9238 15.3809C10.7734 15.4629 10.6914 15.4766 10.5684 15.4766C10.0352 15.4766 9.84375 14.998 8.6543 14.998C7.20508 14.998 6.05664 16.1328 6.05664 17.582C6.05664 19.0312 7.20508 20.1934 8.6543 20.1934ZM8.6543 19.127C7.80664 19.127 7.12305 18.4434 7.12305 17.582C7.12305 16.7344 7.80664 16.0508 8.6543 16.0508C9.48828 16.0508 10.1719 16.7344 10.1719 17.582C10.1719 18.4434 9.48828 19.127 8.6543 19.127ZM14.2598 14.123C13.9863 14.123 13.7402 13.8906 13.7402 13.6035C13.7402 13.3164 13.9863 13.084 14.2598 13.084C14.5469 13.084 14.7793 13.3164 14.7793 13.6035C14.7793 13.8906 14.5469 14.123 14.2598 14.123Z" style="fill:var(--color-2,hsl(0 0 0/0.85))"></path>
 </g>
</svg>