<?xml version="1.0" encoding="UTF-8"?>
<!--Generator: Apple Native CoreSVG 326-->
<!DOCTYPE svg
PUBLIC "-//W3C//DTD SVG 1.1//EN"
       "http://www.w3.org/Graphics/SVG/1.1/DTD/svg11.dtd">
<svg version="1.1" xmlns="http://www.w3.org/2000/svg" xmlns:xlink="http://www.w3.org/1999/xlink" viewBox="0 0 33.6055 33.2637">
 <g>
  <rect height="33.2637" opacity="0" width="33.6055" x="0" y="0"/>
  <path d="M16.625 29.5312C23.748 29.5312 29.5449 23.7344 29.5449 16.6113C29.5449 9.48828 23.748 3.70508 16.625 3.70508C9.50195 3.70508 3.71875 9.48828 3.71875 16.6113C3.71875 23.7344 9.50195 29.5312 16.625 29.5312ZM16.625 27.3164C10.7188 27.3164 5.93359 22.5176 5.93359 16.6113C5.93359 10.7051 10.7188 5.91992 16.625 5.91992C22.5449 5.91992 27.3301 10.7051 27.3301 16.6113C27.3301 22.5176 22.5449 27.3164 16.625 27.3164ZM16.625 11.2383C17.1855 11.2383 17.6094 10.8008 17.6094 10.2539L17.6094 0.998047C17.6094 0.451172 17.1855 0.0136719 16.625 0.0136719C16.0781 0.0136719 15.6543 0.451172 15.6543 0.998047L15.6543 10.2539C15.6543 10.8008 16.0781 11.2383 16.625 11.2383ZM0.984375 17.623L10.2402 17.623C10.7871 17.623 11.2246 17.1855 11.2246 16.6387C11.2246 16.0918 10.7871 15.668 10.2402 15.668L0.984375 15.668C0.4375 15.668 0 16.0918 0 16.6387C0 17.1855 0.4375 17.623 0.984375 17.623ZM16.625 33.2637C17.1855 33.2637 17.6094 32.8262 17.6094 32.2793L17.6094 23.0234C17.6094 22.4766 17.1855 22.0527 16.625 22.0527C16.0781 22.0527 15.6543 22.4766 15.6543 23.0234L15.6543 32.2793C15.6543 32.8262 16.0781 33.2637 16.625 33.2637ZM23.0098 17.623L32.2656 17.623C32.8125 17.623 33.25 17.1855 33.25 16.6387C33.25 16.0918 32.8125 15.668 32.2656 15.668L23.0098 15.668C22.4629 15.668 22.0254 16.0918 22.0254 16.6387C22.0254 17.1855 22.4629 17.623 23.0098 17.623Z" fill="white" fill-opacity="0.85"/>
 </g>
</svg>
