<svg version="1.1" xmlns="http://www.w3.org/2000/svg" xmlns:xlink="http://www.w3.org/1999/xlink" viewBox="0 0 34.0728 34.0296">
 <g>
  
  <path d="M13.2083 13.1798C12.5384 13.8498 12.5384 14.7111 13.1946 15.3947L18.677 20.9181C19.3606 21.5744 20.2493 21.506 20.8919 20.8771L22.3958 19.3322C21.8899 18.6076 21.931 17.6369 22.6282 16.9806C23.2845 16.3244 24.2415 16.2697 24.9935 16.7756L32.3899 9.35172C34.1263 7.6154 34.1536 5.60563 32.472 3.92399L30.1478 1.61344C28.4524-0.0818704 26.4563-0.0545266 24.72 1.6818L17.2962 9.06461C17.802 9.83024 17.7474 10.8146 17.0774 11.4572C16.4212 12.1134 15.4642 12.1681 14.6985 11.6759ZM20.9192 10.2404L26.5657 4.56657C26.7845 4.36149 27.1536 4.38883 27.386 4.58024C27.6185 4.77165 27.5911 5.14079 27.3724 5.37321L21.6712 11.0197C21.4388 11.2521 21.1243 11.2384 20.9329 11.047C20.7005 10.8009 20.6731 10.4865 20.9192 10.2404ZM23.0657 12.3732L28.7122 6.75407C28.9446 6.50797 29.2728 6.50797 29.4915 6.7404C29.6966 6.97282 29.6966 7.30094 29.5052 7.49235L23.845 13.1798C23.6126 13.4123 23.2571 13.3986 23.052 13.2072C22.7923 12.9474 22.806 12.633 23.0657 12.3732ZM2.72197 26.8381L0.192674 31.4455C-0.0260755 31.8693-0.0944349 32.1974 0.179003 32.4435L1.57353 33.8654C1.86064 34.1252 2.20244 34.0431 2.58525 33.8517L7.22002 31.3088C7.67119 31.0763 7.97197 30.5978 7.98564 30.1877L8.04033 28.7111L15.97 20.7677L13.263 18.0744L5.3333 25.9904L3.88408 26.0724C3.43291 26.0861 2.96807 26.3732 2.72197 26.8381Z" style="fill:var(--color-0,hsl(0 0 0/0.85))"></path>
 </g>
</svg>