<?xml version="1.0" encoding="UTF-8"?>
<!--Generator: Apple Native CoreSVG 326-->
<!DOCTYPE svg
PUBLIC "-//W3C//DTD SVG 1.1//EN"
       "http://www.w3.org/Graphics/SVG/1.1/DTD/svg11.dtd">
<svg version="1.1" xmlns="http://www.w3.org/2000/svg" xmlns:xlink="http://www.w3.org/1999/xlink" viewBox="0 0 28.1675 25.6546">
 <g>
  <rect height="25.6546" opacity="0" width="28.1675" x="0" y="0"/>
  <path d="M0.302512 16.4982C0.72634 16.922 1.35525 16.9083 1.7654 16.4982L4.17165 14.0919C12.5662 5.6974 17.3377 0.816539 19.0193 2.48451C20.1951 3.66029 17.3103 6.98255 13.7556 11.1798C10.0506 15.5548 5.96267 20.0939 8.73806 22.8829C11.1443 25.3029 15.0408 22.213 18.6638 18.6994C21.4119 16.0333 23.5447 13.9689 24.2693 14.6798C24.8845 15.2951 24.0095 16.5119 22.9705 18.3029C21.658 20.5724 19.99 23.006 21.5759 24.5919C22.7927 25.8087 24.8572 25.0978 27.4002 22.4865C27.9197 21.9806 27.9334 21.3517 27.5095 20.9279C27.0857 20.5177 26.4705 20.5314 26.0467 20.9415C24.0642 22.7872 23.2166 23.2931 22.8884 22.965C22.5056 22.5822 23.0525 21.7619 24.5154 19.3556C26.3611 16.3341 27.031 14.5294 25.7732 13.2716C24.0506 11.5353 21.4939 13.1076 17.1873 17.2091C12.9627 21.215 11.0896 22.2951 10.2009 21.4201C9.12087 20.3673 10.5427 17.9884 15.3006 12.5197C20.6326 6.36732 22.697 3.23646 20.4685 1.02162C17.7205-1.71276 14.658 0.67982 2.72243 12.629L0.302512 15.0353C-0.107644 15.4454-0.0939724 16.0744 0.302512 16.4982Z" fill="white" fill-opacity="0.85"/>
 </g>
</svg>
