<?xml version="1.0" encoding="UTF-8"?>
<!--Generator: Apple Native CoreSVG 326-->
<!DOCTYPE svg
PUBLIC "-//W3C//DTD SVG 1.1//EN"
       "http://www.w3.org/Graphics/SVG/1.1/DTD/svg11.dtd">
<svg version="1.1" xmlns="http://www.w3.org/2000/svg" xmlns:xlink="http://www.w3.org/1999/xlink" viewBox="0 0 29.3809 29.0527">
 <g>
  <rect height="29.0527" opacity="0" width="29.3809" x="0" y="0"/>
  <path d="M0 6.61719C0 7.4375 0.546875 7.9707 1.39453 7.9707L3.08984 7.9707L3.08984 3.55469C3.08984 2.69336 2.36523 2.05078 1.54492 2.05078C0.724609 2.03711 0 2.67969 0 3.55469ZM3.54102 0C4.60742 0.601562 4.94922 1.4082 4.94922 2.87109L4.94922 25.4707C4.94922 27.3984 6.05664 28.5059 7.73828 28.5059C9.29688 28.5059 10.3359 27.4395 10.3359 25.5801L10.3359 21.8066C10.3359 19.9473 11.1836 18.9902 13.0566 18.9902L26.2227 18.9902L26.2227 4.29297C26.2227 1.43555 24.8008 0 21.9844 0ZM10.2266 7.13672C10.2266 6.67188 10.5957 6.30273 11.0879 6.30273L20.4941 6.30273C20.9863 6.30273 21.3418 6.67188 21.3418 7.13672C21.3418 7.61523 20.9863 7.98438 20.4941 7.98438L11.0879 7.98438C10.5957 7.98438 10.2266 7.61523 10.2266 7.13672ZM10.2266 11.9355C10.2266 11.457 10.5957 11.0742 11.0879 11.0742L15.9961 11.0742C16.4883 11.0742 16.8438 11.457 16.8438 11.9355C16.8438 12.4004 16.4883 12.7559 15.9961 12.7559L11.0879 12.7559C10.5957 12.7559 10.2266 12.4004 10.2266 11.9355ZM10.8965 29.0391L24.7188 29.0391C27.3164 29.0391 29.0254 27.2617 29.0254 24.5684L29.0254 22.2168C29.0254 21.3965 28.4785 20.8496 27.6309 20.8496L13.6035 20.8496C12.7559 20.8496 12.1953 21.3965 12.1953 22.2168L12.1953 24.8965C12.1953 26.4688 11.9902 27.8633 10.8965 29.0391Z" fill="white" fill-opacity="0.85"/>
 </g>
</svg>
