<svg version="1.1" xmlns="http://www.w3.org/2000/svg" xmlns:xlink="http://www.w3.org/1999/xlink" viewBox="0 0 23.3516 29.3262">
 <g>
  
  <path d="M4.23828 29.3262L18.7578 29.3262C21.5879 29.3262 22.9961 27.9043 22.9961 25.0469L22.9961 4.30664C22.9961 1.46289 21.5742 0.0136719 18.7578 0.0136719L9.625 0.0136719C8.39453 0.0136719 7.61523 0.314453 6.82227 1.12109L1.01172 6.91797C0.246094 7.69727 0 8.36719 0 9.7207L0 25.0469C0 27.8906 1.4082 29.3262 4.23828 29.3262ZM4.34766 27.125C2.92578 27.125 2.20117 26.373 2.20117 25.0059L2.20117 9.88477C2.20117 8.99609 2.35156 8.55859 2.83008 8.08008L7.91602 2.93945C8.4082 2.41992 8.92773 2.21484 9.70703 2.21484L18.6484 2.21484C20.0703 2.21484 20.7949 2.99414 20.7949 4.34766L20.7949 25.0059C20.7949 26.373 20.0703 27.125 18.6621 27.125ZM8.4082 5.63281L8.4082 9.93945C8.4082 10.4316 8.80469 10.8145 9.2832 10.8145C9.76172 10.8145 10.1309 10.4316 10.1309 9.93945L10.1309 5.63281C10.1309 5.12695 9.76172 4.75781 9.2832 4.75781C8.80469 4.75781 8.4082 5.14062 8.4082 5.63281ZM11.2109 5.63281L11.2109 9.93945C11.2109 10.4316 11.6074 10.8145 12.0996 10.8145C12.5645 10.8145 12.9473 10.4316 12.9473 9.93945L12.9473 5.63281C12.9473 5.14062 12.5781 4.75781 12.0996 4.75781C11.5938 4.75781 11.2109 5.14062 11.2109 5.63281ZM14.041 5.63281L14.041 9.93945C14.041 10.4316 14.4238 10.8145 14.8887 10.8145C15.3672 10.8145 15.75 10.418 15.75 9.93945L15.75 5.63281C15.75 5.12695 15.3809 4.75781 14.8887 4.75781C14.4102 4.75781 14.041 5.14062 14.041 5.63281ZM16.8574 5.63281L16.8574 9.92578C16.8574 10.4316 17.2402 10.8145 17.7051 10.8145C18.1836 10.8145 18.5664 10.4316 18.5664 9.92578L18.5664 5.63281C18.5664 5.12695 18.1836 4.75781 17.7051 4.75781C17.2266 4.75781 16.8574 5.14062 16.8574 5.63281Z" style="fill:var(--color-0,hsl(0 0 0/0.85))"></path>
 </g>
</svg>