<?xml version="1.0" encoding="UTF-8"?>
<!--Generator: Apple Native CoreSVG 326-->
<!DOCTYPE svg
PUBLIC "-//W3C//DTD SVG 1.1//EN"
       "http://www.w3.org/Graphics/SVG/1.1/DTD/svg11.dtd">
<svg version="1.1" xmlns="http://www.w3.org/2000/svg" xmlns:xlink="http://www.w3.org/1999/xlink" viewBox="0 0 22.6816 36.2988">
 <g>
  <rect height="36.2988" opacity="0" width="22.6816" x="0" y="0"/>
  <path d="M5.26367 28.1777L19.4141 28.1777C19.9062 28.1777 20.3574 27.6172 20.3574 27.1523C20.3574 26.6738 19.9062 26.1133 19.4141 26.1133L5.22266 26.1133C4.08789 26.1133 3.51367 25.4844 3.51367 24.3906L3.51367 3.43164L1.3125 3.43164L1.3125 24.2949C1.3125 26.8789 2.63867 28.1777 5.26367 28.1777ZM18.8398 33.8652L21.041 33.8652L21.041 12.5918C21.041 10.0898 19.7559 8.8457 17.2402 8.8457L2.92578 8.8457C2.44727 8.8457 1.99609 9.40625 1.99609 9.87109C1.99609 10.3359 2.44727 10.9102 2.92578 10.9102L17.1309 10.9102C18.2656 10.9102 18.8398 11.5391 18.8398 12.6328ZM19.9336 36.2988C21.2598 36.2988 22.3262 35.2324 22.3262 33.9062C22.3262 32.5938 21.2598 31.5137 19.9336 31.5137C18.6211 31.5137 17.541 32.5938 17.541 33.9062C17.541 35.2324 18.6211 36.2988 19.9336 36.2988ZM2.39258 5.50977C3.71875 5.50977 4.78516 4.44336 4.78516 3.11719C4.78516 1.80469 3.71875 0.724609 2.39258 0.724609C1.08008 0.724609 0 1.80469 0 3.11719C0 4.44336 1.08008 5.50977 2.39258 5.50977Z" fill="white" fill-opacity="0.85"/>
 </g>
</svg>
