<?xml version="1.0" encoding="UTF-8"?>
<!--Generator: Apple Native CoreSVG 326-->
<!DOCTYPE svg
PUBLIC "-//W3C//DTD SVG 1.1//EN"
       "http://www.w3.org/Graphics/SVG/1.1/DTD/svg11.dtd">
<svg version="1.1" xmlns="http://www.w3.org/2000/svg" xmlns:xlink="http://www.w3.org/1999/xlink" viewBox="0 0 36.8184 24.0215">
 <g>
  <rect height="24.0215" opacity="0" width="36.8184" x="0" y="0"/>
  <path d="M31.1719 21.3555C31.623 21.8613 32.375 21.8613 32.9082 21.2871C35.1777 18.8125 36.4629 15.5449 36.4629 12.0039C36.4629 8.46289 35.1777 5.18164 32.9082 2.7207C32.375 2.14648 31.623 2.13281 31.1719 2.65234C30.7344 3.14453 30.8711 3.78711 31.377 4.34766C33.209 6.38477 34.2344 9.06445 34.2344 12.0039C34.2344 14.9434 33.209 17.623 31.377 19.6602C30.8711 20.2207 30.7344 20.8633 31.1719 21.3555Z" fill="white" fill-opacity="0.85"/>
  <path d="M27.3438 17.459C27.7949 17.9648 28.6152 17.9785 29.1074 17.3633C30.2969 15.8867 30.9805 14.0137 30.9805 12.0039C30.9805 9.99414 30.2969 8.12109 29.1074 6.64453C28.6152 6.0293 27.7949 6.0293 27.3438 6.54883C26.9062 7.04102 27.0977 7.65625 27.5215 8.24414C28.3418 9.25586 28.752 10.582 28.752 12.0039C28.752 13.4258 28.3418 14.7383 27.5215 15.7637C27.0977 16.3516 26.9062 16.9668 27.3438 17.459Z" fill="white" fill-opacity="0.85"/>
  <path d="M12.0039 23.9941C18.6211 23.9941 23.9941 18.6348 23.9941 12.0039C23.9941 5.37305 18.6211 0 12.0039 0C5.37305 0 0 5.37305 0 12.0039C0 18.6348 5.37305 23.9941 12.0039 23.9941ZM12.0039 8.54492C10.7734 8.54492 9.78906 7.56055 9.78906 6.33008C9.78906 5.09961 10.7734 4.11523 12.0039 4.11523C13.2344 4.11523 14.2188 5.09961 14.2188 6.33008C14.2188 7.56055 13.2344 8.54492 12.0039 8.54492Z" fill="white" fill-opacity="0.85"/>
 </g>
</svg>
