<svg version="1.1" xmlns="http://www.w3.org/2000/svg" xmlns:xlink="http://www.w3.org/1999/xlink" viewBox="0 0 32.5938 25.1699">
 <g>
  
  <path d="M25.2246 6.74023C26.168 6.71289 26.9609 5.93359 26.9609 4.99023C26.9609 4.0332 26.168 3.22656 25.2246 3.22656C24.2949 3.22656 23.4883 4.0332 23.4883 4.99023C23.4883 5.93359 24.2949 6.75391 25.2246 6.74023ZM25.2246 14.3145C26.168 14.2871 26.9609 13.5078 26.9609 12.5645C26.9609 11.6074 26.168 10.8008 25.2246 10.8008C24.2949 10.8008 23.4883 11.6074 23.4883 12.5645C23.4883 13.5078 24.2949 14.3281 25.2246 14.3145ZM25.2246 21.8887C26.168 21.8613 26.9609 21.082 26.9609 20.1387C26.9609 19.1816 26.168 18.375 25.2246 18.375C24.2949 18.375 23.4883 19.1816 23.4883 20.1387C23.4883 21.082 24.2949 21.9023 25.2246 21.8887ZM31.0488 9.83008L31.0488 7.76562L1.23047 7.76562L1.23047 9.83008ZM31.0488 17.4316L31.0488 15.3672L1.23047 15.3672L1.23047 17.4316ZM4.29297 25.1699L27.9453 25.1699C30.8164 25.1699 32.2383 23.7617 32.2383 20.9453L32.2383 4.23828C32.2383 1.42188 30.8164 0 27.9453 0L4.29297 0C1.43555 0 0 1.42188 0 4.23828L0 20.9453C0 23.7617 1.43555 25.1699 4.29297 25.1699ZM4.32031 22.9688C2.95312 22.9688 2.20117 22.2441 2.20117 20.8223L2.20117 4.36133C2.20117 2.93945 2.95312 2.20117 4.32031 2.20117L27.918 2.20117C29.2715 2.20117 30.0371 2.93945 30.0371 4.36133L30.0371 20.8223C30.0371 22.2441 29.2715 22.9688 27.918 22.9688Z" style="fill:var(--color-0,hsl(0 0 0/0.85))"></path>
 </g>
</svg>