<svg version="1.1" xmlns="http://www.w3.org/2000/svg" xmlns:xlink="http://www.w3.org/1999/xlink" viewBox="0 0 41.1387 34.2243">
 <g>
  
  <path d="M40.7832 27.0037C40.7832 27.619 40.2773 28.0975 39.6621 28.0975C39.0605 28.0975 38.582 27.619 38.582 27.0037C38.582 16.1346 30.4062 7.27522 20.3848 7.27522C18.1677 7.27522 16.0428 7.70763 14.087 8.52003L12.4025 6.83198C14.8543 5.69985 17.5531 5.07405 20.3848 5.07405C31.6094 5.07405 40.7832 14.9315 40.7832 27.0037ZM9.39205 11.3253C5.01822 14.9169 2.20117 20.6129 2.20117 27.0037C2.20117 27.619 1.70898 28.0975 1.10742 28.0975C0.492188 28.0975 0 27.619 0 27.0037C0 20.0171 3.06349 13.7722 7.83426 9.76579Z" style="fill:var(--color-0,hsl(0 0 0/0.85))"></path>
  <path d="M14.2445 16.1829C10.7273 18.4216 8.55859 22.5484 8.55859 27.0174C8.55859 27.619 8.05273 28.0975 7.45117 28.0975C6.83594 28.0975 6.34375 27.619 6.34375 27.0174C6.34375 21.9778 8.77381 17.2991 12.6711 14.6078ZM34.4531 27.0174C34.4531 27.5338 34.0804 27.9595 33.5939 28.0688L32.2144 26.6863C32.1137 22.2354 29.8652 18.1659 26.2651 16.0165C26.4176 15.4618 26.4961 14.8726 26.4961 14.2615C26.4961 14.0522 26.4866 13.8458 26.4658 13.6435C31.3291 16.0653 34.4531 21.31 34.4531 27.0174Z" style="fill:var(--color-1,hsl(0 0 0/0.85))"></path>
  <path d="M26.4741 28.4256L13.4941 28.4256C12.332 28.4256 11.6348 27.8787 11.6348 26.9627C11.6348 24.5261 14.3054 21.3187 18.7131 20.6563ZM24.623 14.2615C24.623 15.6394 24.0806 16.8516 23.2359 17.6885L17.0598 11.4992C17.8397 10.407 19.0648 9.72249 20.3984 9.72249C22.627 9.72249 24.623 11.6639 24.623 14.2615Z" style="fill:var(--color-2,hsl(0 0 0/0.85))"></path>
  <path d="M32.6211 32.3084C33.0312 32.7186 33.7148 32.7186 34.1113 32.3084C34.5078 31.8983 34.5215 31.242 34.1113 30.8182L8.57227 5.26546C8.14844 4.84163 7.49219 4.84163 7.06836 5.26546C6.67188 5.66194 6.67188 6.34553 7.06836 6.75569Z" style="fill:var(--color-3,hsl(0 0 0/0.85))"></path>
 </g>
</svg>