<svg version="1.1" xmlns="http://www.w3.org/2000/svg" xmlns:xlink="http://www.w3.org/1999/xlink" viewBox="0 0 28.2461 27.9043">
 <g>
  
  <path d="M13.9453 27.9043C21.6426 27.9043 27.8906 21.6562 27.8906 13.959C27.8906 6.27539 21.6426 0.0136719 13.9453 0.0136719C6.26172 0.0136719 0 6.27539 0 13.959C0 21.6562 6.26172 27.9043 13.9453 27.9043Z" style="fill:var(--color-0,hsl(0 0 0/0.85))"></path>
  <path d="M7.79297 12.6055C7.0957 12.6055 6.72656 12.25 6.72656 11.5664L6.72656 7.94336C6.72656 7.23242 7.0957 6.87695 7.79297 6.87695L13.2207 6.87695C13.9316 6.87695 14.3008 7.23242 14.3008 7.94336L14.3008 8.94141C12.4688 9.07812 11.0469 10.6641 11.0332 12.6055ZM19.8926 16.584C19.1816 16.584 18.8262 16.2148 18.8262 15.5176L18.8262 11.1699C18.8262 10.4863 19.1816 10.1309 19.8926 10.1309L22.1074 10.1309C22.8047 10.1309 23.1602 10.4863 23.1602 11.1699L23.1602 15.5176C23.1602 16.2148 22.8047 16.584 22.1074 16.584ZM5.81055 17.9922C5.11328 17.9922 4.75781 17.6367 4.75781 16.9395L4.75781 15.3945C4.75781 14.6973 5.11328 14.3418 5.81055 14.3418L7.31445 14.3418C8.02539 14.3418 8.39453 14.6973 8.39453 15.3945L8.39453 16.9395C8.39453 17.6367 8.02539 17.9922 7.31445 17.9922ZM14.5332 15.3262C13.207 15.3262 12.0723 14.1504 12.0723 12.6191C12.0723 11.1152 13.207 9.98047 14.5332 9.98047C15.8457 9.98047 16.9941 11.1016 16.9941 12.6191C16.9941 14.1504 15.8457 15.3262 14.5332 15.3262ZM10.4043 21.041C9.74805 21.041 9.36523 20.7402 9.36523 20.2207C9.36523 18.6348 11.334 16.4336 14.5332 16.4336C17.7188 16.4336 19.7012 18.6348 19.7012 20.2207C19.7012 20.7402 19.3184 21.041 18.6621 21.041Z" style="fill:var(--color-1,white)"></path>
 </g>
</svg>