<svg version="1.1" xmlns="http://www.w3.org/2000/svg" xmlns:xlink="http://www.w3.org/1999/xlink" viewBox="0 0 28.2461 27.9043">
 <g>
  
  <path d="M13.9453 27.8906C21.6426 27.8906 27.8906 21.6426 27.8906 13.9453C27.8906 6.24805 21.6426 0 13.9453 0C6.24805 0 0 6.24805 0 13.9453C0 21.6426 6.24805 27.8906 13.9453 27.8906ZM13.9453 25.5664C7.51953 25.5664 2.32422 20.3711 2.32422 13.9453C2.32422 7.51953 7.51953 2.32422 13.9453 2.32422C20.3711 2.32422 25.5664 7.51953 25.5664 13.9453C25.5664 20.3711 20.3711 25.5664 13.9453 25.5664Z" style="fill:var(--color-0,hsl(0 0 0/0.85))"></path>
  <path d="M7.98438 12.6328L11.1289 12.6328C11.1426 10.7598 12.5234 9.22852 14.2871 9.0918L14.2871 8.10742C14.2871 7.4375 13.9316 7.06836 13.248 7.06836L7.98438 7.06836C7.31445 7.06836 6.95898 7.4375 6.95898 8.10742L6.95898 11.6348C6.95898 12.291 7.31445 12.6328 7.98438 12.6328ZM19.7012 16.4746L21.8477 16.4746C22.5176 16.4746 22.873 16.1328 22.873 15.4492L22.873 11.2383C22.873 10.582 22.5176 10.2402 21.8477 10.2402L19.7012 10.2402C19.0176 10.2402 18.6758 10.582 18.6758 11.2383L18.6758 15.4492C18.6758 16.1328 19.0176 16.4746 19.7012 16.4746ZM6.07031 17.8555L7.5332 17.8555C8.2168 17.8555 8.57227 17.5 8.57227 16.8301L8.57227 15.3398C8.57227 14.6562 8.2168 14.3145 7.5332 14.3145L6.07031 14.3145C5.40039 14.3145 5.04492 14.6426 5.04492 15.3398L5.04492 16.8301C5.04492 17.5 5.40039 17.8555 6.07031 17.8555ZM14.5195 15.2715C15.791 15.2715 16.8984 14.1367 16.8984 12.6465C16.8984 11.1836 15.791 10.0762 14.5195 10.0762C13.2344 10.0762 12.127 11.1973 12.127 12.6465C12.127 14.1367 13.2344 15.2715 14.5195 15.2715ZM10.5137 20.8086L18.5117 20.8086C19.1543 20.8086 19.5234 20.4941 19.5234 20.0156C19.5234 18.457 17.5957 16.3379 14.5195 16.3379C11.416 16.3379 9.51562 18.457 9.51562 20.0156C9.51562 20.4941 9.88477 20.8086 10.5137 20.8086Z" style="fill:var(--color-1,hsl(0 0 0/0.85))"></path>
 </g>
</svg>