<svg version="1.1" xmlns="http://www.w3.org/2000/svg" xmlns:xlink="http://www.w3.org/1999/xlink" viewBox="0 0 28.2461 27.9043">
 <g>
  
  <path d="M13.9453 27.9043C21.6426 27.9043 27.8906 21.6562 27.8906 13.959C27.8906 6.27539 21.6426 0.0136719 13.9453 0.0136719C6.26172 0.0136719 0 6.27539 0 13.959C0 21.6562 6.26172 27.9043 13.9453 27.9043Z" style="fill:var(--color-0,hsl(0 0 0/0.85))"></path>
  <path d="M12.8379 8.02539C12.8105 8.05273 10.6914 10.0488 9.59766 11.293C9.07812 11.8535 8.80469 12.5918 8.87305 13.3574C8.92773 14.1641 9.29688 14.916 9.93945 15.5039C10.8281 16.2422 12.5371 16.4062 13.6035 15.4492C14.2734 14.875 15.0117 14.0273 15.0391 14.0273C15.5723 13.4258 16.4883 13.3984 17.0625 13.959C17.623 14.4785 17.6641 15.3809 17.1309 15.9688C17.1035 15.9824 16.2559 16.8984 15.5039 17.5547C14.4785 18.5117 13.125 18.9629 11.7441 18.9629C10.418 18.9629 9.0918 18.5254 8.09375 17.6504C6.83594 16.5703 6.09766 15.1074 5.98828 13.5352C5.89258 11.9902 6.41211 10.5 7.49219 9.33789C8.6543 8.05273 10.7598 6.05664 10.8281 5.94727C11.4023 5.41406 12.3047 5.46875 12.8516 6.01562C13.4258 6.57617 13.3984 7.45117 12.8379 8.02539ZM15.0391 20.1797C15.0527 20.1523 17.1855 18.1699 18.2656 16.9531C18.7852 16.3652 19.0723 15.627 18.9902 14.875C18.9492 14.0547 18.5664 13.3027 17.9238 12.7148C17.0352 11.9902 15.3262 11.8125 14.2734 12.7695C13.6035 13.3164 12.8516 14.1914 12.8379 14.2051C12.3047 14.7793 11.3887 14.8203 10.8145 14.2598C10.2402 13.7539 10.1992 12.8516 10.7461 12.25C10.7598 12.2363 11.6074 11.3203 12.3594 10.6641C13.3984 9.70703 14.7383 9.25586 16.1191 9.25586C17.459 9.25586 18.7715 9.69336 19.8105 10.5684C21.041 11.6211 21.7793 13.1113 21.8887 14.6836C21.9707 16.2422 21.4512 17.7188 20.3848 18.8809C19.2227 20.1523 17.1309 22.1621 17.0352 22.2715C16.4609 22.8047 15.5723 22.7773 15.0117 22.2031C14.4512 21.6426 14.4648 20.7676 15.0391 20.1797Z" style="fill:var(--color-1,white)"></path>
 </g>
</svg>