<?xml version="1.0" encoding="UTF-8"?>
<!--Generator: Apple Native CoreSVG 326-->
<!DOCTYPE svg
PUBLIC "-//W3C//DTD SVG 1.1//EN"
       "http://www.w3.org/Graphics/SVG/1.1/DTD/svg11.dtd">
<svg version="1.1" xmlns="http://www.w3.org/2000/svg" xmlns:xlink="http://www.w3.org/1999/xlink" viewBox="0 0 33.291 27.4395">
 <g>
  <rect height="27.4395" opacity="0" width="33.291" x="0" y="0"/>
  <path d="M32.9355 16.4609C32.9355 12.4414 31.4863 8.73633 29.0664 5.86523C28.793 5.53711 28.3281 5.53711 28.0273 5.85156L24.8555 9.02344C24.5957 9.2832 24.582 9.65234 24.8145 9.93945C26.2227 11.7441 27.0703 14.0137 27.0703 16.4609C27.0703 18.9219 26.2227 21.1914 24.7324 23.0918C24.541 23.3242 24.5547 23.625 24.7598 23.8438L28.0137 27.0977C28.3281 27.4121 28.7793 27.4121 29.0664 27.0703C31.4863 24.1992 32.9355 20.4941 32.9355 16.4609Z" fill="white" fill-opacity="0.85"/>
  <path d="M16.4609 5.86523C18.9355 5.86523 21.2051 6.72656 23.0234 8.13477C23.2969 8.35352 23.6523 8.32617 23.9121 8.06641L27.084 4.89453C27.3984 4.58008 27.3848 4.12891 27.0566 3.85547C24.1992 1.44922 20.4941 0 16.4609 0C12.4414 0 8.73633 1.44922 5.87891 3.85547C5.55078 4.12891 5.53711 4.58008 5.85156 4.89453L9.02344 8.06641C9.2832 8.32617 9.65234 8.35352 9.95312 8.12109C11.7578 6.72656 14.0137 5.86523 16.4609 5.86523Z" fill="white" fill-opacity="0.85"/>
  <path d="M0 16.4609C0 20.4941 1.44922 24.1992 3.86914 27.0703C4.14258 27.4121 4.60742 27.4121 4.9082 27.0977L8.16211 23.8438C8.36719 23.625 8.39453 23.3242 8.20312 23.0918C6.71289 21.1914 5.86523 18.9219 5.86523 16.4609C5.86523 14.0137 6.69922 11.7441 8.12109 9.93945C8.33984 9.65234 8.33984 9.2832 8.08008 9.02344L4.9082 5.85156C4.59375 5.53711 4.14258 5.53711 3.86914 5.86523C1.44922 8.73633 0 12.4414 0 16.4609Z" fill="white" fill-opacity="0.85"/>
  <path d="M11.416 22.7773C11.8125 22.7773 12.0723 22.5039 12.0723 22.0664L12.0723 12.1406L15.1074 12.1406C16.666 12.1406 17.459 12.5371 17.459 14.3145L17.459 18.4297C17.459 18.8809 17.7188 19.1543 18.1426 19.1543C18.5664 19.1543 18.8262 18.8809 18.8262 18.4297L18.8262 14.041C18.8262 11.7988 17.8281 10.6367 15.5723 10.6367L11.7578 10.6367C11.1016 10.6367 10.7188 11.0332 10.7188 11.6758L10.7188 22.0664C10.7188 22.5039 10.9922 22.7773 11.416 22.7773ZM15.0801 22.6543L19.0586 22.6543C21.4102 22.6543 22.1895 21.3828 22.1895 19.0176L22.1895 11.252C22.1895 10.8008 21.9297 10.5137 21.5059 10.5137C21.082 10.5137 20.8086 10.8008 20.8086 11.252L20.8086 18.9629C20.8086 20.7129 20.4395 21.1504 18.6758 21.1504L15.4492 21.1504L15.4492 14.8477C15.4492 14.4102 15.1895 14.1367 14.7793 14.1367C14.3555 14.1367 14.082 14.4102 14.082 14.8477L14.082 21.6699C14.082 22.2988 14.5059 22.6543 15.0801 22.6543Z" fill="white" fill-opacity="0.85"/>
 </g>
</svg>
