<?xml version="1.0" encoding="UTF-8"?>
<!--Generator: Apple Native CoreSVG 326-->
<!DOCTYPE svg
PUBLIC "-//W3C//DTD SVG 1.1//EN"
       "http://www.w3.org/Graphics/SVG/1.1/DTD/svg11.dtd">
<svg version="1.1" xmlns="http://www.w3.org/2000/svg" xmlns:xlink="http://www.w3.org/1999/xlink" viewBox="0 0 25.5254 25.1699">
 <g>
  <rect height="25.1699" opacity="0" width="25.5254" x="0" y="0"/>
  <path d="M4.29297 25.1699L20.877 25.1699C23.748 25.1699 25.1699 23.7617 25.1699 20.9453L25.1699 4.23828C25.1699 1.42188 23.748 0 20.877 0L4.29297 0C1.43555 0 0 1.42188 0 4.23828L0 20.9453C0 23.7617 1.43555 25.1699 4.29297 25.1699ZM4.32031 22.9688C2.95312 22.9688 2.20117 22.2441 2.20117 20.8223L2.20117 4.36133C2.20117 2.93945 2.95312 2.20117 4.32031 2.20117L20.8496 2.20117C22.2031 2.20117 22.9688 2.93945 22.9688 4.36133L22.9688 20.8223C22.9688 22.2441 22.2031 22.9688 20.8496 22.9688Z" fill="white" fill-opacity="0.85"/>
  <path d="M7.56055 18.7168C7.95703 18.7168 8.2168 18.4434 8.2168 18.0059L8.2168 8.06641L11.252 8.06641C12.8105 8.06641 13.6035 8.47656 13.6035 10.2539L13.6035 14.3691C13.6035 14.8066 13.8633 15.0938 14.2871 15.0938C14.6973 15.0938 14.957 14.8066 14.957 14.3691L14.957 9.98047C14.957 7.72461 13.9727 6.57617 11.7031 6.57617L7.88867 6.57617C7.24609 6.57617 6.86328 6.97266 6.86328 7.61523L6.86328 18.0059C6.86328 18.4434 7.12305 18.7168 7.56055 18.7168ZM11.2246 18.5938L15.1895 18.5938C17.5547 18.5938 18.334 17.3086 18.334 14.957L18.334 7.19141C18.334 6.74023 18.0742 6.45312 17.6504 6.45312C17.2266 6.45312 16.9531 6.74023 16.9531 7.19141L16.9531 14.8887C16.9531 16.6523 16.5703 17.0898 14.8203 17.0898L11.5938 17.0898L11.5938 10.7871C11.5938 10.3496 11.334 10.0762 10.9238 10.0762C10.5 10.0762 10.2266 10.3496 10.2266 10.7871L10.2266 17.6094C10.2266 18.2383 10.6504 18.5938 11.2246 18.5938Z" fill="white" fill-opacity="0.85"/>
 </g>
</svg>
