<svg version="1.1" xmlns="http://www.w3.org/2000/svg" xmlns:xlink="http://www.w3.org/1999/xlink" viewBox="0 0 25.5254 25.1699">
 <g>
  
  <path d="M4.29297 25.1699L20.877 25.1699C23.748 25.1699 25.1699 23.7617 25.1699 20.9453L25.1699 4.23828C25.1699 1.42188 23.748 0 20.877 0L4.29297 0C1.43555 0 0 1.42188 0 4.23828L0 20.9453C0 23.7617 1.43555 25.1699 4.29297 25.1699Z" style="fill:var(--color-0,hsl(0 0 0/0.85))"></path>
  <path d="M7.39648 18.9082C6.94531 18.9082 6.67188 18.6348 6.67188 18.1699L6.67188 7.46484C6.67188 6.79492 7.06836 6.38477 7.73828 6.38477L11.6758 6.38477C14.0137 6.38477 15.0391 7.57422 15.0391 9.89844L15.0391 14.4238C15.0391 14.875 14.7656 15.1758 14.3418 15.1758C13.9043 15.1758 13.6309 14.875 13.6309 14.4238L13.6309 10.1855C13.6309 8.35352 12.8105 7.92969 11.2109 7.92969L8.08008 7.92969L8.08008 18.1699C8.08008 18.6348 7.80664 18.9082 7.39648 18.9082ZM11.1836 18.7852C10.582 18.7852 10.1445 18.416 10.1445 17.7598L10.1445 10.7324C10.1445 10.2812 10.4316 9.99414 10.8691 9.99414C11.293 9.99414 11.5664 10.2812 11.5664 10.7324L11.5664 17.2266L14.8887 17.2266C16.6934 17.2266 17.0898 16.7754 17.0898 14.957L17.0898 7.02734C17.0898 6.54883 17.377 6.26172 17.8145 6.26172C18.252 6.26172 18.5254 6.54883 18.5254 7.02734L18.5254 15.0254C18.5254 17.459 17.7188 18.7852 15.2715 18.7852Z" style="fill:var(--color-1,white)"></path>
 </g>
</svg>