<?xml version="1.0" encoding="UTF-8"?>
<!--Generator: Apple Native CoreSVG 326-->
<!DOCTYPE svg
PUBLIC "-//W3C//DTD SVG 1.1//EN"
       "http://www.w3.org/Graphics/SVG/1.1/DTD/svg11.dtd">
<svg version="1.1" xmlns="http://www.w3.org/2000/svg" xmlns:xlink="http://www.w3.org/1999/xlink" viewBox="0 0 30.8848 29.1895">
 <g>
  <rect height="29.1895" opacity="0" width="30.8848" x="0" y="0"/>
  <path d="M1.81836 25.9219L28.7109 25.9219L28.7109 25.0059C28.7109 24.459 28.3965 24.1309 27.8359 24.1309L26.9609 24.1309L26.9609 9.37891L28.1641 9.37891C28.916 9.37891 29.3535 8.83203 29.3535 8.27148C29.3535 7.86133 29.1211 7.50586 28.6152 7.21875L16.9395 0.478516C16.3926 0.164062 15.8184 0 15.2578 0C14.6973 0 14.1094 0.164062 13.5898 0.478516L1.91406 7.21875C1.39453 7.50586 1.17578 7.86133 1.17578 8.27148C1.17578 8.83203 1.61328 9.37891 2.36523 9.37891L3.56836 9.37891L3.56836 24.1309L2.70703 24.1309C2.14648 24.1309 1.81836 24.459 1.81836 25.0059ZM5.63281 24.1309L5.63281 7.62891L14.7246 2.5293C14.8887 2.43359 15.0801 2.37891 15.2578 2.37891C15.4355 2.37891 15.627 2.43359 15.8047 2.5293L24.8965 7.62891L24.8965 24.1309ZM1.09375 29.1758L29.4219 29.1758C30.0234 29.1758 30.5293 28.6699 30.5293 28.0684C30.5293 27.4668 30.0234 26.9746 29.4219 26.9746L1.09375 26.9746C0.492188 26.9746 0 27.4668 0 28.0684C0 28.6699 0.492188 29.1758 1.09375 29.1758Z" fill="white" fill-opacity="0.85"/>
  <path d="M10.2266 20.5215C10.6367 20.5215 10.8965 20.248 10.8965 19.8105L10.8965 9.88477L13.9316 9.88477C15.4902 9.88477 16.2832 10.2812 16.2832 12.0586L16.2832 16.1738C16.2832 16.625 16.5293 16.8984 16.9531 16.8984C17.377 16.8984 17.6367 16.625 17.6367 16.1738L17.6367 11.7852C17.6367 9.54297 16.6523 8.38086 14.3828 8.38086L10.5684 8.38086C9.92578 8.38086 9.5293 8.77734 9.5293 9.41992L9.5293 19.8105C9.5293 20.248 9.80273 20.5215 10.2266 20.5215ZM13.9043 20.3984L17.8691 20.3984C20.2344 20.3984 21.0137 19.127 21.0137 16.7617L21.0137 8.99609C21.0137 8.54492 20.7539 8.25781 20.3301 8.25781C19.9062 8.25781 19.6328 8.54492 19.6328 8.99609L19.6328 16.707C19.6328 18.457 19.25 18.8945 17.4863 18.8945L14.2734 18.8945L14.2734 12.5918C14.2734 12.1543 14.0137 11.8809 13.6035 11.8809C13.1797 11.8809 12.9062 12.1543 12.9062 12.5918L12.9062 19.4141C12.9062 20.043 13.3164 20.3984 13.9043 20.3984Z" fill="white" fill-opacity="0.85"/>
 </g>
</svg>
