<svg version="1.1" xmlns="http://www.w3.org/2000/svg" xmlns:xlink="http://www.w3.org/1999/xlink" viewBox="0 0 32.6075 30.8609">
 <g>
  
  <path d="M6.93167 10.7308L6.93167 17.6248C6.93167 21.8494 8.95511 22.9705 15.2715 26.7986C15.6817 27.0447 15.9141 27.1267 16.1192 27.1267C16.3379 27.1267 16.5703 27.0447 16.9805 26.7986C18.4449 25.906 19.679 25.161 20.7018 24.4936L22.3724 26.1633C20.9629 27.1035 19.2013 28.1191 17.0489 29.3279C16.6934 29.5193 16.3379 29.6013 16.1192 29.6013C15.9004 29.6013 15.5586 29.5193 15.2032 29.3279C7.45121 24.9529 4.75785 23.1209 4.75785 18.1306L4.75785 8.55817ZM17.2676 2.18922C18.8809 2.74976 24.1035 4.62281 25.7168 5.29273C26.8653 5.78492 27.4942 6.23609 27.4942 7.67164L27.4942 18.1306C27.4942 19.9478 27.1388 21.348 26.306 22.6026L24.6175 20.9141C25.1116 20.0101 25.3203 18.9771 25.3203 17.6248L25.3203 8.09547C25.3203 7.63062 25.2246 7.43922 24.8555 7.3025C22.7364 6.57789 18.7442 5.12867 16.666 4.30836C16.4473 4.22633 16.2832 4.18531 16.1192 4.18531C15.9688 4.18531 15.791 4.21265 15.586 4.30836C14.2115 4.8509 11.9819 5.62667 10.0301 6.32668L8.30234 4.59894C10.5273 3.74267 13.7732 2.53822 14.9844 2.18922C15.3535 2.09351 15.7364 1.98414 16.1192 1.98414C16.5157 1.98414 16.8985 2.06617 17.2676 2.18922Z" style="fill:var(--color-0,hsl(0 0 0/0.85))"></path>
  <path d="M27.4395 28.9587C27.8496 29.3689 28.5196 29.3689 28.9297 28.9587C29.3399 28.5486 29.3399 27.8787 28.9297 27.4685L3.39066 1.9568C2.99417 1.54664 2.31058 1.54664 1.88675 1.9568C1.49027 2.35328 1.49027 3.03687 1.88675 3.44703Z" style="fill:var(--color-1,hsl(0 0 0/0.85))"></path>
 </g>
</svg>