<svg version="1.1" xmlns="http://www.w3.org/2000/svg" xmlns:xlink="http://www.w3.org/1999/xlink" viewBox="0 0 29.7637 25.5527">
 <g>
  
  <path d="M10.4863 25.375L18.9219 25.375C20.8359 25.375 21.8613 24.2539 21.8613 22.4492L21.8613 16.3242L27.4121 16.3242C28.5332 16.3242 29.4082 15.6406 29.4082 14.6016C29.4082 13.959 29.0801 13.4805 28.5879 12.9883L16.3926 0.833984C15.8594 0.300781 15.3125 0 14.6973 0C14.0957 0 13.5352 0.300781 13.0156 0.833984L0.820312 12.9883C0.287109 13.5078 0 13.959 0 14.6016C0 15.6406 0.875 16.3242 1.98242 16.3242L7.54688 16.3242L7.54688 22.4492C7.54688 24.2539 8.57227 25.375 10.4863 25.375Z" style="fill:var(--color-0,hsl(0 0 0/0.85))"></path>
 </g>
</svg>