<?xml version="1.0" encoding="UTF-8"?>
<!--Generator: Apple Native CoreSVG 326-->
<!DOCTYPE svg
PUBLIC "-//W3C//DTD SVG 1.1//EN"
       "http://www.w3.org/Graphics/SVG/1.1/DTD/svg11.dtd">
<svg version="1.1" xmlns="http://www.w3.org/2000/svg" xmlns:xlink="http://www.w3.org/1999/xlink" viewBox="0 0 40.291 30.0645">
 <g>
  <rect height="30.0645" opacity="0" width="40.291" x="0" y="0"/>
  <path d="M17.3633 16.7207C17.3633 17.3086 16.8711 17.8145 16.2969 17.8145L5.04492 17.8145L3.00781 17.7324L3.81445 18.498L6.07031 20.6035C6.28906 20.7949 6.38477 21.082 6.38477 21.3418C6.38477 21.916 5.98828 22.3398 5.42773 22.3398C5.14062 22.3398 4.92188 22.2305 4.7168 22.0254L0.369141 17.5137C0.0957031 17.2402 0 17.0078 0 16.7207C0 16.4473 0.0957031 16.2148 0.369141 15.9277L4.7168 11.4297C4.92188 11.2246 5.14062 11.1016 5.42773 11.1016C5.98828 11.1016 6.38477 11.5117 6.38477 12.0859C6.38477 12.3457 6.28906 12.6465 6.07031 12.8379L3.81445 14.957L2.99414 15.7227L5.04492 15.6406L16.2969 15.6406C16.8711 15.6406 17.3633 16.1328 17.3633 16.7207ZM26.291 30.0645C26.3867 30.0371 26.4688 29.9961 26.5645 29.9414L37.2695 23.8438C38.541 23.1191 39.2246 22.3809 39.2246 20.3984L39.2246 9.74805C39.2246 9.33789 39.1973 9.00977 39.1152 8.70898L26.291 16.0371ZM24.418 30.0645L24.418 16.0371L11.5938 8.70898C11.5117 9.00977 11.4844 9.33789 11.4844 9.74805L11.4844 20.3984C11.4844 22.3809 12.1816 23.1191 13.4395 23.8438L24.1582 29.9414C24.2402 29.9961 24.3223 30.0371 24.418 30.0645ZM25.3613 14.3965L31.1992 11.0879L18.252 3.69141L13.2344 6.54883C12.9336 6.71289 12.6875 6.87695 12.4688 7.08203ZM33.0996 10.0078L38.2402 7.08203C38.0215 6.87695 37.7891 6.71289 37.4746 6.54883L27.8359 1.05273C27.002 0.574219 26.168 0.314453 25.3613 0.314453C24.541 0.314453 23.707 0.574219 22.873 1.05273L20.0977 2.625Z" fill="white" fill-opacity="0.85"/>
 </g>
</svg>
