<svg version="1.1" xmlns="http://www.w3.org/2000/svg" xmlns:xlink="http://www.w3.org/1999/xlink" viewBox="0 0 28.2461 27.9043">
 <g>
  
  <path d="M13.9453 27.8906C21.6426 27.8906 27.8906 21.6426 27.8906 13.9453C27.8906 6.24805 21.6426 0 13.9453 0C6.24805 0 0 6.24805 0 13.9453C0 21.6426 6.24805 27.8906 13.9453 27.8906ZM13.9453 25.5664C7.51953 25.5664 2.32422 20.3711 2.32422 13.9453C2.32422 7.51953 7.51953 2.32422 13.9453 2.32422C20.3711 2.32422 25.5664 7.51953 25.5664 13.9453C25.5664 20.3711 20.3711 25.5664 13.9453 25.5664Z" style="fill:var(--color-0,hsl(0 0 0/0.85))"></path>
  <path d="M14.4375 21.7109C14.4922 21.6973 14.5332 21.6699 14.5742 21.6426L20.1797 18.457C20.8223 18.0742 21.2051 17.6914 21.2051 16.666L21.2051 11.0879C21.2051 10.8965 21.1914 10.7051 21.1367 10.5547L14.4375 14.3828ZM13.4531 21.7109L13.4531 14.3828L6.75391 10.5547C6.71289 10.7051 6.71289 10.8965 6.71289 11.0879L6.71289 16.666C6.71289 17.6914 7.06836 18.0742 7.71094 18.457L13.3164 21.6426C13.3574 21.6699 13.3984 21.6973 13.4531 21.7109ZM13.9453 13.5352L16.9941 11.7988L10.2402 7.94336L7.61523 9.44727C7.45117 9.51562 7.31445 9.61133 7.21875 9.7207ZM17.9922 11.2383L20.6719 9.7207C20.5762 9.61133 20.4395 9.51562 20.2754 9.44727L15.2441 6.5625C14.8066 6.30273 14.3691 6.17969 13.9453 6.17969C13.5352 6.17969 13.0977 6.30273 12.6602 6.5625L11.1973 7.38281Z" style="fill:var(--color-1,hsl(0 0 0/0.85))"></path>
 </g>
</svg>