<?xml version="1.0" encoding="UTF-8"?>
<!--Generator: Apple Native CoreSVG 326-->
<!DOCTYPE svg
PUBLIC "-//W3C//DTD SVG 1.1//EN"
       "http://www.w3.org/Graphics/SVG/1.1/DTD/svg11.dtd">
<svg version="1.1" xmlns="http://www.w3.org/2000/svg" xmlns:xlink="http://www.w3.org/1999/xlink" viewBox="0 0 27.959 30.0918">
 <g>
  <rect height="30.0918" opacity="0" width="27.959" x="0" y="0"/>
  <path d="M1.91406 23.666L12.6738 29.7637C13.4395 30.2012 14.1641 30.2012 14.9434 29.7637L25.6895 23.666C26.9473 22.9551 27.6035 22.2305 27.6035 20.2754L27.6035 9.44727C27.6035 8.02539 27.084 7.13672 25.9355 6.48047L16.2559 0.984375C14.6016 0.0410156 13.002 0.0410156 11.3477 0.984375L1.68164 6.48047C0.519531 7.13672 0 8.02539 0 9.44727L0 20.2754C0 22.2305 0.669922 22.9551 1.91406 23.666ZM3.14453 21.8613C2.35156 21.4238 2.07812 20.959 2.07812 20.207L2.07812 9.88477L12.7285 15.9688L12.7285 27.3164ZM24.4727 21.8613L14.875 27.3164L14.875 15.9688L25.5254 9.88477L25.5254 20.207C25.5254 20.959 25.252 21.4238 24.4727 21.8613ZM13.8086 14.0547L3.25391 8.08008L7.47852 5.66016L18.0332 11.6621ZM20.2344 10.418L9.63867 4.42969L12.2637 2.93945C13.3164 2.33789 14.2871 2.32422 15.3535 2.93945L24.3633 8.08008Z" fill="white" fill-opacity="0.85"/>
 </g>
</svg>
