<svg version="1.1" xmlns="http://www.w3.org/2000/svg" xmlns:xlink="http://www.w3.org/1999/xlink" viewBox="0 0 41.8359 19.4277">
 <g>
  
  <path d="M3.54102 15.1895L27.3438 15.1895C30.7617 15.1895 32.3203 14.7793 34.2754 13.7402L38.2676 11.6348C40.5098 10.4316 41.1113 8.87305 40.0859 7.7793C39.3066 6.86328 37.9531 6.05664 36.1074 6.05664C34.6172 6.05664 31.2676 6.58984 30.0098 6.58984C29.1348 6.58984 28.7383 6.5625 28.082 6.26172L25.7715 9.40625C25.498 9.76172 25.0059 9.83008 24.6504 9.51562C24.3223 9.25586 24.2812 8.80469 24.5547 8.42188L26.6738 5.49609L24.9648 4.49805L22.5859 7.83398C22.2988 8.23047 21.8203 8.25781 21.4512 7.92969C21.1094 7.68359 21.0547 7.23242 21.3418 6.83594L23.6113 3.70508L21.9023 2.70703L19.3457 6.26172C19.0859 6.60352 18.5664 6.63086 18.2383 6.37109C17.8965 6.11133 17.8691 5.5918 18.1152 5.26367L20.5352 1.90039L19.8516 1.50391C17.2266 0 14.8203 0.191406 12.8242 2.78906C11.252 4.79883 9.63867 5.66016 7.9707 5.66016C6.49414 5.66016 5.48242 5.42773 4.38867 4.92188C2.2832 4.00586 0 4.94922 0 7.45117L0 13.5762C0 13.6855 0 13.7949 0.0136719 13.8906C0.875 14.875 1.80469 15.1895 3.54102 15.1895ZM38.9922 13.043L35.0273 15.1211C32.7715 16.3242 30.9121 16.7754 27.3438 16.7754L3.54102 16.7754C2.2832 16.7754 1.3125 16.584 0.259766 15.8047C1.02539 18.5938 3.25391 19.4277 5.40039 19.4277L27.1523 19.4277C31.541 19.4277 34.084 18.7578 37.5156 16.8574C40.2227 15.3398 41.4805 13.4668 41.4805 11.3066C41.4805 11.0195 41.4531 10.7461 41.4258 10.4863C41.166 11.5254 40.5508 12.209 38.9922 13.043Z" style="fill:var(--color-0,hsl(0 0 0/0.85))"></path>
 </g>
</svg>