<?xml version="1.0" encoding="UTF-8"?>
<!--Generator: Apple Native CoreSVG 326-->
<!DOCTYPE svg
PUBLIC "-//W3C//DTD SVG 1.1//EN"
       "http://www.w3.org/Graphics/SVG/1.1/DTD/svg11.dtd">
<svg version="1.1" xmlns="http://www.w3.org/2000/svg" xmlns:xlink="http://www.w3.org/1999/xlink" viewBox="0 0 28.2461 27.9043">
 <g>
  <rect height="27.9043" opacity="0" width="28.2461" x="0" y="0"/>
  <path d="M13.9453 27.8906C21.6426 27.8906 27.8906 21.6426 27.8906 13.9453C27.8906 6.24805 21.6426 0 13.9453 0C6.24805 0 0 6.24805 0 13.9453C0 21.6426 6.24805 27.8906 13.9453 27.8906ZM13.9453 25.5664C7.51953 25.5664 2.32422 20.3711 2.32422 13.9453C2.32422 7.51953 7.51953 2.32422 13.9453 2.32422C20.3711 2.32422 25.5664 7.51953 25.5664 13.9453C25.5664 20.3711 20.3711 25.5664 13.9453 25.5664Z" fill="white" fill-opacity="0.85"/>
  <path d="M5.76953 16.5293L17.0488 16.5156C18.6621 16.5156 19.373 16.3379 20.3027 15.8594L22.2031 14.875C23.2559 14.3145 23.5566 13.6309 23.0781 13.1113C22.7227 12.6875 22.0801 12.291 21.1914 12.2773C20.4805 12.2773 18.9082 12.5371 18.293 12.5371C17.8965 12.5508 17.7051 12.5371 17.4043 12.3867L16.3105 13.877C16.1738 14.0547 15.9277 14.082 15.75 13.9316C15.5859 13.7949 15.5586 13.5762 15.6953 13.3848L16.707 12.0039L15.9277 11.5527L14.793 13.125C14.6562 13.3301 14.4238 13.3438 14.2324 13.1934C14.0684 13.0566 14.0137 12.8242 14.1641 12.6328L15.2441 11.1699L14.4922 10.7051L13.2754 12.3867C13.1523 12.5645 12.8789 12.5781 12.7285 12.4414C12.5508 12.3184 12.5371 12.0449 12.6465 11.8945L13.7949 10.3086L13.2207 9.98047C12.127 9.35156 11.1152 9.51562 10.3633 10.5C9.43359 11.6895 8.68164 12.0996 7.875 12.0996C7.16406 12.0996 6.69922 11.9082 6.17969 11.6348C5.03125 11.0059 4.11523 11.5938 4.11523 12.6738L4.12891 15.8184C4.12891 15.8594 4.11523 15.9141 4.11523 15.9414C4.53906 16.4199 4.96289 16.5293 5.76953 16.5293ZM6.6582 18.5801L16.9668 18.5801C19.0312 18.5801 20.2207 18.2656 21.834 17.3633C23.1328 16.666 23.7207 15.7773 23.707 14.752C23.7207 14.6289 23.707 14.4922 23.6934 14.3965C23.5703 14.875 23.2832 15.2031 22.5586 15.5859L20.6582 16.5566C19.5918 17.1172 18.7168 17.3223 17.0488 17.3223L5.7832 17.3223C5.18164 17.3223 4.73047 17.2402 4.23828 16.8848C4.60742 18.1836 5.64648 18.5801 6.6582 18.5801Z" fill="white" fill-opacity="0.85"/>
 </g>
</svg>
