<svg version="1.1" xmlns="http://www.w3.org/2000/svg" xmlns:xlink="http://www.w3.org/1999/xlink" viewBox="0 0 31.6094 29.873">
 <g>
  
  <path d="M30.2832 4.96289C30.8164 4.96289 31.2539 4.52539 31.2539 3.99219C31.2539 3.45898 30.8164 3.02148 30.2832 3.02148C29.75 3.02148 29.3125 3.45898 29.3125 3.99219C29.3125 4.52539 29.75 4.96289 30.2832 4.96289ZM28.8477 13.2891C29.3809 13.2891 29.8184 12.8516 29.8184 12.3184C29.8184 11.7852 29.3809 11.3477 28.8477 11.3477C28.3145 11.3477 27.877 11.7852 27.877 12.3184C27.877 12.8516 28.3145 13.2891 28.8477 13.2891ZM24.623 20.6035C25.1562 20.6035 25.5938 20.166 25.5938 19.6328C25.5938 19.0996 25.1562 18.6621 24.623 18.6621C24.0762 18.6621 23.6523 19.0996 23.6523 19.6328C23.6523 20.166 24.0762 20.6035 24.623 20.6035Z" style="fill:var(--color-0,hsl(0 0 0/0.85))"></path>
  <path d="M26.5918 5.45508C27.125 5.45508 27.5625 5.01758 27.5625 4.48438C27.5625 3.95117 27.125 3.51367 26.5918 3.51367C26.0586 3.51367 25.6211 3.95117 25.6211 4.48438C25.6211 5.01758 26.0586 5.45508 26.5918 5.45508ZM25.0195 11.8809C25.5527 11.8809 25.9902 11.4434 25.9902 10.9102C25.9902 10.377 25.5527 9.93945 25.0195 9.93945C24.4863 9.93945 24.0488 10.377 24.0488 10.9102C24.0488 11.4434 24.4863 11.8809 25.0195 11.8809ZM22.0938 17.8418C22.627 17.8418 23.0645 17.4043 23.0645 16.8711C23.0645 16.3379 22.627 15.9004 22.0938 15.9004C21.5605 15.9004 21.123 16.3379 21.123 16.8711C21.123 17.4043 21.5605 17.8418 22.0938 17.8418Z" style="fill:var(--color-1,hsl(0 0 0/0.85))"></path>
  <path d="M22.8594 5.94727C23.4062 5.94727 23.8438 5.50977 23.8438 4.97656C23.8438 4.44336 23.4062 4.00586 22.8594 4.00586C22.3262 4.00586 21.8887 4.44336 21.8887 4.97656C21.8887 5.50977 22.3262 5.94727 22.8594 5.94727ZM21.1641 10.5C21.7109 10.5 22.1348 10.0625 22.1348 9.5293C22.1348 8.99609 21.7109 8.55859 21.1641 8.55859C20.6309 8.55859 20.1934 8.99609 20.1934 9.5293C20.1934 10.0625 20.6309 10.5 21.1641 10.5ZM19.5781 15.0664C20.1113 15.0664 20.5488 14.6289 20.5488 14.0957C20.5488 13.5625 20.1113 13.125 19.5781 13.125C19.0449 13.125 18.6074 13.5625 18.6074 14.0957C18.6074 14.6289 19.0449 15.0664 19.5781 15.0664Z" style="fill:var(--color-2,hsl(0 0 0/0.85))"></path>
  <path d="M19.3594 0.847656L14.123 15.2715C13.9316 15.7773 14.1914 16.3379 14.7109 16.5293C15.2168 16.7207 15.7773 16.4473 15.9688 15.9551L21.2188 1.53125C21.3965 1.01172 21.1367 0.451172 20.6309 0.259766C20.1113 0.0683594 19.5371 0.341797 19.3594 0.847656ZM2.73438 24.0488C4.12891 24.5547 5.49609 23.8984 5.98828 22.5449L10.377 10.5684L9.65234 11.0195C10.459 12.8926 12.0996 14.4785 14.3691 15.1758L14.957 13.5215C12.2227 12.5371 10.623 10.5684 10.5547 8.03906L10.0215 7.84766C9.78906 7.75195 9.51562 7.875 9.43359 8.12109L4.44336 21.8066C4.23828 22.3672 3.71875 22.5176 3.28125 22.3535C2.88477 22.1895 2.625 21.793 2.81641 21.2871L8.73633 5.04492C9.07812 4.07422 10.1172 3.5957 11.0742 3.9375L11.8672 4.22461C13.5488 2.25586 16.1055 1.72266 18.8945 2.73438L19.4824 1.09375C16.4473-0.0136719 13.5078 0.4375 11.416 2.2832L11.1699 2.1875C9.48828 1.58594 7.86133 2.50195 7.13672 4.4707L1.20312 20.7812C0.710938 22.1484 1.36719 23.543 2.73438 24.0488ZM3.77344 23.4199L2.35156 22.9004L0 29.3672L1.42188 29.873Z" style="fill:var(--color-3,hsl(0 0 0/0.85))"></path>
 </g>
</svg>