<svg version="1.1" xmlns="http://www.w3.org/2000/svg" xmlns:xlink="http://www.w3.org/1999/xlink" viewBox="0 0 33.1816 18.7715">
 <g>
  
  <path d="M30.3789 1.94141C30.9121 1.94141 31.3496 1.50391 31.3496 0.970703C31.3496 0.4375 30.9121 0 30.3789 0C29.8457 0 29.4082 0.4375 29.4082 0.970703C29.4082 1.50391 29.8457 1.94141 30.3789 1.94141ZM31.8555 10.3359C32.3887 10.3359 32.8262 9.89844 32.8262 9.36523C32.8262 8.83203 32.3887 8.39453 31.8555 8.39453C31.3223 8.39453 30.8848 8.83203 30.8848 9.36523C30.8848 9.89844 31.3223 10.3359 31.8555 10.3359ZM30.3926 18.7305C30.9258 18.7305 31.3633 18.293 31.3633 17.7461C31.3633 17.2129 30.9258 16.7754 30.3926 16.7754C29.8594 16.7754 29.4219 17.2129 29.4219 17.7461C29.4219 18.293 29.8594 18.7305 30.3926 18.7305Z" style="fill:var(--color-0,hsl(0 0 0/0.85))"></path>
  <path d="M27.0703 3.67773C27.6035 3.67773 28.041 3.24023 28.041 2.70703C28.041 2.16016 27.6035 1.73633 27.0703 1.73633C26.5371 1.73633 26.0996 2.16016 26.0996 2.70703C26.0996 3.24023 26.5371 3.67773 27.0703 3.67773ZM27.7812 10.3359C28.3145 10.3359 28.752 9.89844 28.752 9.36523C28.752 8.83203 28.3145 8.39453 27.7812 8.39453C27.248 8.39453 26.8105 8.83203 26.8105 9.36523C26.8105 9.89844 27.248 10.3359 27.7812 10.3359ZM27.084 16.9941C27.6172 16.9941 28.0547 16.5566 28.0547 16.0234C28.0547 15.4902 27.6172 15.0527 27.084 15.0527C26.5508 15.0527 26.1133 15.4902 26.1133 16.0234C26.1133 16.5566 26.5508 16.9941 27.084 16.9941Z" style="fill:var(--color-1,hsl(0 0 0/0.85))"></path>
  <path d="M23.748 5.41406C24.2949 5.41406 24.7188 4.97656 24.7188 4.44336C24.7188 3.91016 24.2949 3.47266 23.748 3.47266C23.2148 3.47266 22.7773 3.91016 22.7773 4.44336C22.7773 4.97656 23.2148 5.41406 23.748 5.41406ZM23.6934 10.3359C24.2402 10.3359 24.6641 9.89844 24.6641 9.36523C24.6641 8.83203 24.2402 8.39453 23.6934 8.39453C23.1602 8.39453 22.7227 8.83203 22.7227 9.36523C22.7227 9.89844 23.1602 10.3359 23.6934 10.3359ZM23.7617 15.2578C24.3086 15.2578 24.7324 14.8203 24.7324 14.2871C24.7324 13.7539 24.3086 13.3164 23.7617 13.3164C23.2285 13.3164 22.791 13.7539 22.791 14.2871C22.791 14.8203 23.2285 15.2578 23.7617 15.2578Z" style="fill:var(--color-2,hsl(0 0 0/0.85))"></path>
  <path d="M2.5293 15.1484C4.63477 15.1484 5.81055 13.8086 5.81055 11.4297L5.81055 7.32812C5.81055 4.94922 4.63477 3.60938 2.5293 3.60938L1.27148 3.60938C0.464844 3.60938 0 4.07422 0 4.88086L0 13.877C0 14.6836 0.464844 15.1484 1.27148 15.1484ZM15.2168 17.7734C16.4336 17.7734 17.2129 16.9941 17.2129 15.7773L17.2129 2.98047C17.2129 1.76367 16.4336 0.984375 15.2168 0.984375L13.2891 0.984375C9.74805 0.984375 7.5332 3.21289 7.5332 6.75391L7.5332 12.0176C7.5332 15.5586 9.74805 17.7734 13.2891 17.7734ZM8.73633 12.0723L8.73633 6.54883L5.05859 6.54883L5.05859 12.0723ZM18.457 15.4082C20.0293 15.3809 21.0273 14.2461 21.0273 12.4414L21.0273 6.33008C21.0273 4.51172 20.0293 3.37695 18.457 3.33594Z" style="fill:var(--color-3,hsl(0 0 0/0.85))"></path>
 </g>
</svg>