<?xml version="1.0" encoding="UTF-8"?>
<!--Generator: Apple Native CoreSVG 326-->
<!DOCTYPE svg
PUBLIC "-//W3C//DTD SVG 1.1//EN"
       "http://www.w3.org/Graphics/SVG/1.1/DTD/svg11.dtd">
<svg version="1.1" xmlns="http://www.w3.org/2000/svg" xmlns:xlink="http://www.w3.org/1999/xlink" viewBox="0 0 31.7734 24.7871">
 <g>
  <rect height="24.7871" opacity="0" width="31.7734" x="0" y="0"/>
  <path d="M0 19.4141C0 20.0977 0.505859 20.5488 1.25781 20.5488L4.375 20.5488C6.64453 20.5488 7.94336 19.9062 9.59766 17.9922L17.8828 8.32617C19.0586 6.95898 20.043 6.45312 21.5469 6.45312L24.3359 6.45312L24.3359 9.54297C24.3359 10.0898 24.6504 10.4043 25.2109 10.4043C25.4707 10.4043 25.7168 10.3086 25.9219 10.1445L31.0898 5.86523C31.5273 5.50977 31.5273 4.94922 31.0898 4.56641L25.9219 0.273438C25.7168 0.109375 25.4707 0.0273438 25.2109 0.0273438C24.6504 0.0273438 24.3359 0.328125 24.3359 0.875L24.3359 4.16992L21.4785 4.16992C19.1953 4.16992 17.8828 4.8125 16.2422 6.72656L7.9707 16.3926C6.78125 17.7734 5.83789 18.2793 4.44336 18.2793L1.25781 18.2793C0.519531 18.2793 0 18.7305 0 19.4141ZM0 5.31836C0 5.98828 0.519531 6.45312 1.25781 6.45312L4.44336 6.45312C5.85156 6.45312 6.79492 6.95898 7.9707 8.33984L16.2422 18.0059C17.8828 19.9062 19.1953 20.5488 21.4785 20.5488L24.3359 20.5488L24.3359 23.9395C24.3359 24.4863 24.6504 24.7871 25.2109 24.7871C25.4707 24.7871 25.7168 24.7051 25.9219 24.541L31.0898 20.2617C31.5273 19.8926 31.5273 19.3457 31.0898 18.9629L25.9219 14.6699C25.7168 14.5059 25.4707 14.4102 25.2109 14.4102C24.6504 14.4102 24.3359 14.7246 24.3359 15.2715L24.3359 18.2793L21.5469 18.2793C20.043 18.2793 19.0586 17.7734 17.8828 16.3926L9.59766 6.72656C7.94336 4.82617 6.64453 4.18359 4.375 4.18359L1.25781 4.18359C0.505859 4.18359 0 4.63477 0 5.31836Z" fill="white" fill-opacity="0.85"/>
 </g>
</svg>
