<?xml version="1.0" encoding="UTF-8"?>
<!--Generator: Apple Native CoreSVG 326-->
<!DOCTYPE svg
PUBLIC "-//W3C//DTD SVG 1.1//EN"
       "http://www.w3.org/Graphics/SVG/1.1/DTD/svg11.dtd">
<svg version="1.1" xmlns="http://www.w3.org/2000/svg" xmlns:xlink="http://www.w3.org/1999/xlink" viewBox="0 0 32.5938 25.1973">
 <g>
  <rect height="25.1973" opacity="0" width="32.5938" x="0" y="0"/>
  <path d="M4.29297 25.1973L27.9453 25.1973C30.8164 25.1973 32.2383 23.7754 32.2383 20.959L32.2383 4.26562C32.2383 1.44922 30.8164 0.0273438 27.9453 0.0273438L4.29297 0.0273438C1.43555 0.0273438 0 1.43555 0 4.26562L0 20.959C0 23.7891 1.43555 25.1973 4.29297 25.1973ZM4.32031 22.9961C2.95312 22.9961 2.20117 22.2715 2.20117 20.8496L2.20117 4.375C2.20117 2.95312 2.95312 2.22852 4.32031 2.22852L27.918 2.22852C29.2715 2.22852 30.0371 2.95312 30.0371 4.375L30.0371 20.8496C30.0371 22.2715 29.2715 22.9961 27.918 22.9961ZM19.7148 23.4199L21.8613 23.4199L21.8613 1.81836L19.7148 1.81836ZM27.248 8.76367C27.6172 8.76367 27.877 8.51758 27.877 8.14844L27.877 5.5918C27.877 5.20898 27.6309 4.96289 27.248 4.96289L24.6641 4.96289C24.3086 4.96289 24.0488 5.20898 24.0488 5.5918L24.0488 8.14844C24.0488 8.51758 24.3223 8.76367 24.6641 8.76367ZM27.248 14.5059C27.6172 14.5059 27.877 14.2324 27.877 13.8906L27.877 11.3066C27.877 10.9512 27.6309 10.6777 27.248 10.6777L24.6641 10.6777C24.3086 10.6777 24.0488 10.9512 24.0488 11.3066L24.0488 13.8906C24.0488 14.2324 24.3223 14.5059 24.6641 14.5059ZM27.248 20.2207C27.6172 20.2207 27.877 19.9746 27.877 19.6055L27.877 17.0488C27.877 16.6797 27.6309 16.4199 27.248 16.4199L24.6641 16.4199C24.3086 16.4199 24.0488 16.6797 24.0488 17.0488L24.0488 19.6055C24.0488 19.9746 24.3223 20.2207 24.6641 20.2207Z" fill="white" fill-opacity="0.85"/>
 </g>
</svg>
