<?xml version="1.0" encoding="UTF-8"?>
<!--Generator: Apple Native CoreSVG 326-->
<!DOCTYPE svg
PUBLIC "-//W3C//DTD SVG 1.1//EN"
       "http://www.w3.org/Graphics/SVG/1.1/DTD/svg11.dtd">
<svg version="1.1" xmlns="http://www.w3.org/2000/svg" xmlns:xlink="http://www.w3.org/1999/xlink" viewBox="0 0 32.5938 25.1973">
 <g>
  <rect height="25.1973" opacity="0" width="32.5938" x="0" y="0"/>
  <path d="M4.29297 25.1973L27.9453 25.1973C30.8164 25.1973 32.2383 23.7754 32.2383 20.959L32.2383 4.26562C32.2383 1.44922 30.8164 0.0273438 27.9453 0.0273438L4.29297 0.0273438C1.43555 0.0273438 0 1.43555 0 4.26562L0 20.959C0 23.7891 1.43555 25.1973 4.29297 25.1973ZM4.32031 22.9961C2.95312 22.9961 2.20117 22.2715 2.20117 20.8496L2.20117 4.375C2.20117 2.95312 2.95312 2.22852 4.32031 2.22852L27.918 2.22852C29.2715 2.22852 30.0371 2.95312 30.0371 4.375L30.0371 20.8496C30.0371 22.2715 29.2715 22.9961 27.918 22.9961ZM19.7148 23.4199L21.8613 23.4199L21.8613 1.81836L19.7148 1.81836ZM24.4863 7.30078L27.4121 7.30078C27.8359 7.30078 28.1914 6.93164 28.1914 6.53516C28.1914 6.125 27.8359 5.76953 27.4121 5.76953L24.4863 5.76953C24.0762 5.76953 23.707 6.125 23.707 6.53516C23.707 6.93164 24.0762 7.30078 24.4863 7.30078ZM24.4863 10.8418L27.4121 10.8418C27.8359 10.8418 28.1914 10.4727 28.1914 10.0625C28.1914 9.65234 27.8359 9.31055 27.4121 9.31055L24.4863 9.31055C24.0762 9.31055 23.707 9.65234 23.707 10.0625C23.707 10.4727 24.0762 10.8418 24.4863 10.8418ZM24.4863 14.3691L27.4121 14.3691C27.8359 14.3691 28.1914 14.0273 28.1914 13.6172C28.1914 13.207 27.8359 12.8516 27.4121 12.8516L24.4863 12.8516C24.0762 12.8516 23.707 13.207 23.707 13.6172C23.707 14.0273 24.0762 14.3691 24.4863 14.3691Z" fill="white" fill-opacity="0.85"/>
 </g>
</svg>
