<svg version="1.1" xmlns="http://www.w3.org/2000/svg" xmlns:xlink="http://www.w3.org/1999/xlink" viewBox="0 0 28.2461 27.9043">
 <g>
  
  <path d="M13.9453 27.9043C21.6426 27.9043 27.8906 21.6562 27.8906 13.959C27.8906 6.27539 21.6426 0.0136719 13.9453 0.0136719C6.26172 0.0136719 0 6.27539 0 13.959C0 21.6562 6.26172 27.9043 13.9453 27.9043Z" style="fill:var(--color-0,hsl(0 0 0/0.85))"></path>
  <path d="M6.89062 14.0547L6.89062 9.24219C6.89062 8.18945 7.47852 7.61523 8.53125 7.61523L13.1523 7.61523L13.1523 6.33008C13.1523 5.90625 13.5078 5.55078 13.9316 5.55078C14.3555 5.55078 14.7246 5.90625 14.7246 6.33008L14.7246 7.61523L19.332 7.61523C20.3848 7.61523 20.9863 8.18945 20.9863 9.24219L20.9863 14.0547C20.9863 15.0801 20.3848 15.668 19.332 15.668L14.7246 15.668L14.7246 20.7949L16.9531 20.7949C17.377 20.7949 17.7461 21.1641 17.7461 21.5879C17.7461 22.0117 17.377 22.3672 16.9531 22.3672L10.9102 22.3672C10.4863 22.3672 10.1172 22.0117 10.1172 21.5879C10.1172 21.1641 10.4863 20.7949 10.9102 20.7949L13.1523 20.7949L13.1523 15.668L8.53125 15.668C7.47852 15.668 6.89062 15.0801 6.89062 14.0547ZM11.6348 12.5508C11.3203 13.002 11.4707 13.3848 12.0586 13.3848L15.8457 13.3848C16.3926 13.3848 16.5566 13.002 16.2422 12.5508L14.3965 9.91211C14.1504 9.55664 13.7402 9.55664 13.4941 9.91211Z" style="fill:var(--color-1,white)"></path>
 </g>
</svg>