<svg version="1.1" xmlns="http://www.w3.org/2000/svg" xmlns:xlink="http://www.w3.org/1999/xlink" viewBox="0 0 28.2461 27.9043">
 <g>
  
  <path d="M13.9453 27.8906C21.6426 27.8906 27.8906 21.6426 27.8906 13.9453C27.8906 6.24805 21.6426 0 13.9453 0C6.24805 0 0 6.24805 0 13.9453C0 21.6426 6.24805 27.8906 13.9453 27.8906ZM13.9453 25.5664C7.51953 25.5664 2.32422 20.3711 2.32422 13.9453C2.32422 7.51953 7.51953 2.32422 13.9453 2.32422C20.3711 2.32422 25.5664 7.51953 25.5664 13.9453C25.5664 20.3711 20.3711 25.5664 13.9453 25.5664Z" style="fill:var(--color-0,hsl(0 0 0/0.85))"></path>
  <path d="M9.03711 15.4219L13.166 15.4219L13.166 19.8516L11.293 19.8516C10.8691 19.8516 10.5273 20.1797 10.5273 20.6035C10.5273 21.0273 10.8691 21.3691 11.293 21.3691L16.5566 21.3691C16.9805 21.3691 17.3223 21.0273 17.3223 20.6035C17.3223 20.1797 16.9805 19.8516 16.5566 19.8516L14.6836 19.8516L14.6836 15.4219L17.9922 15.4219C18.5938 15.4219 18.8809 15.2305 19.2227 14.9023L21.0547 13.166C21.7793 12.4688 21.8066 11.7715 21.041 11.0469L19.2227 9.31055C18.8809 8.98242 18.5938 8.80469 17.9922 8.80469L14.6836 8.80469L14.6836 7.27344C14.6836 6.84961 14.3418 6.50781 13.9316 6.50781C13.4941 6.50781 13.166 6.84961 13.166 7.27344L13.166 8.80469L9.03711 8.80469C8.12109 8.80469 7.60156 9.29688 7.60156 10.1992L7.60156 14C7.60156 14.916 8.12109 15.4219 9.03711 15.4219Z" style="fill:var(--color-1,hsl(0 0 0/0.85))"></path>
 </g>
</svg>