<svg version="1.1" xmlns="http://www.w3.org/2000/svg" xmlns:xlink="http://www.w3.org/1999/xlink" viewBox="0 0 27.0534 30.8848">
 <g>
  
  <path d="M12.262 4.36133L14.4632 4.36133L14.4632 1.10742C14.4632 0.505859 13.9574 0 13.3558 0C12.7542 0 12.262 0.505859 12.262 1.10742ZM8.78938 12.5371L21.5042 12.5371C22.2835 12.5371 22.8304 12.3184 23.3363 11.8262L25.9613 9.32422C26.9593 8.36719 26.9593 7.46484 25.9339 6.45312L23.3363 3.9375C22.8441 3.45898 22.2972 3.25391 21.5179 3.25391L8.78938 3.25391C7.57259 3.25391 6.84798 3.92383 6.84798 5.18164L6.84798 10.6094C6.84798 11.8535 7.57259 12.5371 8.78938 12.5371ZM5.19368 23.9805L17.9085 23.9805C19.139 23.9805 19.8499 23.2969 19.8499 22.0527L19.8499 16.6113C19.8499 15.3672 19.139 14.6836 17.9085 14.6836L5.18001 14.6836C4.41438 14.6836 3.86751 14.9023 3.36165 15.3809L0.777665 17.8965C-0.247725 18.8945-0.261397 19.8105 0.750322 20.7812L3.36165 23.2695C3.88118 23.7617 4.42806 23.9805 5.19368 23.9805ZM12.262 15.5586L14.4632 15.5586L14.4632 11.5801L12.262 11.5801ZM12.262 29.7773L14.4632 29.7773L14.4632 22.4355L12.262 22.4355ZM8.62532 30.8027L18.0726 30.8027C18.6741 30.8027 19.1663 30.3105 19.1663 29.709C19.1663 29.1074 18.6741 28.6016 18.0726 28.6016L8.62532 28.6016C8.02376 28.6016 7.53157 29.1074 7.53157 29.709C7.53157 30.3105 8.02376 30.8027 8.62532 30.8027Z" style="fill:var(--color-0,hsl(0 0 0/0.85))"></path>
 </g>
</svg>