<svg version="1.1" xmlns="http://www.w3.org/2000/svg" xmlns:xlink="http://www.w3.org/1999/xlink" viewBox="0 0 29.0563 28.8066">
 <g>
  
  <path d="M25.1102 17.4316C26.9695 17.4316 28.0086 16.4062 28.0086 14.5742L28.0086 6.95898C28.0086 5.12695 26.9695 4.11523 25.1102 4.11523L7.25469 4.11523C6.03789 4.11523 5.46368 4.48438 4.76641 5.16797L1.12969 8.62695C-0.401559 10.1035-0.346871 11.4844 1.11602 12.8926L4.76641 16.3789C5.46368 17.0488 6.03789 17.418 7.26836 17.418ZM25.0555 15.2305L7.33672 15.2305C6.80352 15.2305 6.62579 15.1074 6.36602 14.875L2.60625 11.293C2.23711 10.9648 2.23711 10.5547 2.59258 10.2266L6.35235 6.67188C6.61211 6.43945 6.80352 6.31641 7.32305 6.31641L25.0555 6.31641C25.493 6.31641 25.7527 6.58984 25.7527 7.02734L25.7527 14.5059C25.7527 14.9434 25.493 15.2305 25.0555 15.2305ZM16.4832 5.83789L16.4832 1.10742C16.4832 0.505859 15.9773 0 15.3758 0C14.7742 0 14.282 0.505859 14.282 1.10742L14.282 5.83789ZM16.4832 16.6523L14.282 16.6523L14.282 28.7109L16.4832 28.7109ZM21.7332 27.6855C21.7332 27.084 21.241 26.5781 20.6395 26.5781L10.0984 26.5781C9.49688 26.5781 9.00469 27.084 9.00469 27.6855C9.00469 28.2871 9.49688 28.7793 10.0984 28.7793L20.6395 28.7793C21.241 28.7793 21.7332 28.2871 21.7332 27.6855Z" style="fill:var(--color-0,hsl(0 0 0/0.85))"></path>
 </g>
</svg>