<svg version="1.1" xmlns="http://www.w3.org/2000/svg" xmlns:xlink="http://www.w3.org/1999/xlink" viewBox="0 0 28.3555 28.8066">
 <g>
  
  <path d="M11.8809 5.83789L14.0821 5.83789L14.0821 1.10742C14.0821 0.505859 13.5762 0 12.9746 0C12.3731 0 11.8809 0.505859 11.8809 1.10742ZM3.24026 17.4316L21.0821 17.418C22.3262 17.418 22.8867 17.0488 23.584 16.3789L27.2344 12.8926C28.711 11.4844 28.752 10.1035 27.2207 8.62695L23.584 5.16797C22.8867 4.48438 22.3262 4.11523 21.0957 4.11523L3.24026 4.11523C1.38088 4.11523 0.34182 5.12695 0.34182 6.95898L0.34182 14.5742C0.34182 16.4062 1.38088 17.4316 3.24026 17.4316ZM11.8809 16.6523L11.8809 28.7109L14.0821 28.7109L14.0821 16.6523ZM6.61721 27.6855C6.61721 28.2871 7.12307 28.7793 7.72463 28.7793L18.252 28.7793C18.8535 28.7793 19.3594 28.2871 19.3594 27.6855C19.3594 27.084 18.8535 26.5781 18.252 26.5781L7.72463 26.5781C7.12307 26.5781 6.61721 27.084 6.61721 27.6855Z" style="fill:var(--color-0,hsl(0 0 0/0.85))"></path>
 </g>
</svg>