<?xml version="1.0" encoding="UTF-8"?>
<!--Generator: Apple Native CoreSVG 326-->
<!DOCTYPE svg
PUBLIC "-//W3C//DTD SVG 1.1//EN"
       "http://www.w3.org/Graphics/SVG/1.1/DTD/svg11.dtd">
<svg version="1.1" xmlns="http://www.w3.org/2000/svg" xmlns:xlink="http://www.w3.org/1999/xlink" viewBox="0 0 29.0563 28.8066">
 <g>
  <rect height="28.8066" opacity="0" width="29.0563" x="0" y="0"/>
  <path d="M16.4832 5.83789L16.4832 1.10742C16.4832 0.505859 15.9773 0 15.3758 0C14.7742 0 14.282 0.505859 14.282 1.10742L14.282 5.83789ZM25.1102 17.4316C26.9695 17.4316 28.0086 16.4062 28.0086 14.5742L28.0086 6.95898C28.0086 5.12695 26.9695 4.11523 25.1102 4.11523L7.25469 4.11523C6.03789 4.11523 5.46368 4.48438 4.76641 5.16797L1.12969 8.62695C-0.401559 10.1035-0.346871 11.4844 1.11602 12.8926L4.76641 16.3789C5.46368 17.0488 6.03789 17.4316 7.26836 17.4316ZM16.4832 16.6523L14.282 16.6523L14.282 28.7109L16.4832 28.7109ZM21.7332 27.6855C21.7332 27.084 21.241 26.5781 20.6395 26.5781L10.0984 26.5781C9.49688 26.5781 9.00469 27.084 9.00469 27.6855C9.00469 28.2871 9.49688 28.7793 10.0984 28.7793L20.6395 28.7793C21.241 28.7793 21.7332 28.2871 21.7332 27.6855Z" fill="white" fill-opacity="0.85"/>
 </g>
</svg>
