<?xml version="1.0" encoding="UTF-8"?>
<!--Generator: Apple Native CoreSVG 326-->
<!DOCTYPE svg
PUBLIC "-//W3C//DTD SVG 1.1//EN"
       "http://www.w3.org/Graphics/SVG/1.1/DTD/svg11.dtd">
<svg version="1.1" xmlns="http://www.w3.org/2000/svg" xmlns:xlink="http://www.w3.org/1999/xlink" viewBox="0 0 28.2461 27.9043">
 <g>
  <rect height="27.9043" opacity="0" width="28.2461" x="0" y="0"/>
  <path d="M13.9453 27.8906C21.6426 27.8906 27.8906 21.6426 27.8906 13.9453C27.8906 6.24805 21.6426 0 13.9453 0C6.24805 0 0 6.24805 0 13.9453C0 21.6426 6.24805 27.8906 13.9453 27.8906ZM13.9453 25.5664C7.51953 25.5664 2.32422 20.3711 2.32422 13.9453C2.32422 7.51953 7.51953 2.32422 13.9453 2.32422C20.3711 2.32422 25.5664 7.51953 25.5664 13.9453C25.5664 20.3711 20.3711 25.5664 13.9453 25.5664Z" fill="white" fill-opacity="0.85"/>
  <path d="M18.8262 15.4219C19.7422 15.4219 20.2617 14.916 20.2617 14L20.2617 10.1992C20.2617 9.29688 19.7422 8.80469 18.8262 8.80469L14.7109 8.80469L14.7109 7.27344C14.7109 6.84961 14.3691 6.50781 13.9316 6.50781C13.5215 6.50781 13.1934 6.84961 13.1934 7.27344L13.1934 8.80469L9.88477 8.80469C9.26953 8.80469 8.98242 8.98242 8.64062 9.31055L6.82227 11.0469C6.05664 11.7715 6.08398 12.4688 6.80859 13.166L8.64062 14.9023C8.98242 15.2305 9.26953 15.4219 9.88477 15.4219L13.1934 15.4219L13.1934 19.8516L11.3066 19.8516C10.8828 19.8516 10.541 20.1797 10.541 20.6035C10.541 21.0273 10.8828 21.3691 11.3066 21.3691L16.5703 21.3691C16.9941 21.3691 17.3496 21.0273 17.3496 20.6035C17.3496 20.1797 16.9941 19.8516 16.5703 19.8516L14.7109 19.8516L14.7109 15.4219Z" fill="white" fill-opacity="0.85"/>
 </g>
</svg>
