<?xml version="1.0" encoding="UTF-8"?>
<!--Generator: Apple Native CoreSVG 326-->
<!DOCTYPE svg
PUBLIC "-//W3C//DTD SVG 1.1//EN"
       "http://www.w3.org/Graphics/SVG/1.1/DTD/svg11.dtd">
<svg version="1.1" xmlns="http://www.w3.org/2000/svg" xmlns:xlink="http://www.w3.org/1999/xlink" viewBox="0 0 30.8342 30.5061">
 <g>
  <rect height="30.5061" opacity="0" width="30.8342" x="0" y="0"/>
  <path d="M11.172 5.90832C12.088 5.49817 13.0587 5.2384 14.0841 5.11535C14.3712 5.08801 14.5763 4.86926 14.5763 4.58215L14.5763 0.56262C14.5763 0.220824 14.3165-0.0252702 13.9747 0.0157454C12.1154 0.166136 10.338 0.671995 8.71106 1.43762C8.41028 1.58801 8.31457 1.94348 8.47864 2.23059L10.4747 5.6759C10.6114 5.922 10.8986 6.0177 11.172 5.90832Z" fill="white" fill-opacity="0.85"/>
  <path d="M7.04309 9.1759C7.64465 8.36926 8.35559 7.65832 9.1759 7.05676C9.40832 6.87903 9.46301 6.57825 9.32629 6.33215L7.3302 2.88684C7.16614 2.59973 6.81067 2.5177 6.52356 2.7091C5.03332 3.76184 3.74817 5.047 2.7091 6.5509C2.5177 6.83801 2.58606 7.17981 2.88684 7.35754L6.34582 9.32629C6.59192 9.47668 6.86535 9.422 7.04309 9.1759Z" fill="white" fill-opacity="0.85"/>
  <path d="M5.10168 14.0841C5.22473 13.0724 5.4845 12.088 5.88098 11.1993C6.00403 10.9259 5.922 10.6388 5.66223 10.4884L2.20325 8.50598C1.90246 8.32825 1.56067 8.43762 1.42395 8.7384C0.658324 10.3654 0.166136 12.1154 0.00207356 13.9884C-0.0115983 14.3302 0.220824 14.5763 0.56262 14.5763L4.58215 14.5763C4.86926 14.5763 5.08801 14.3849 5.10168 14.0841Z" fill="white" fill-opacity="0.85"/>
  <path d="M5.88098 19.3204C5.49817 18.4181 5.2384 17.4337 5.11535 16.4083C5.08801 16.1075 4.86926 15.9161 4.58215 15.9161L0.56262 15.9161C0.220824 15.9161-0.0252702 16.1622 0.00207356 16.504C0.152464 18.3907 0.658324 20.1544 1.43762 21.7814C1.57434 22.0958 1.90246 22.2052 2.21692 22.0275L5.66223 20.0177C5.922 19.8673 6.00403 19.5802 5.88098 19.3204Z" fill="white" fill-opacity="0.85"/>
  <path d="M9.1759 23.4493C8.36926 22.8614 7.64465 22.1505 7.05676 21.3302C6.87903 21.0978 6.59192 21.0294 6.33215 21.1798L2.88684 23.1486C2.58606 23.3263 2.5177 23.6818 2.69543 23.9689C3.74817 25.4591 5.047 26.7443 6.53723 27.797C6.82434 27.9884 7.17981 27.9064 7.34387 27.6193L9.32629 24.1603C9.46301 23.9142 9.40832 23.6271 9.1759 23.4493Z" fill="white" fill-opacity="0.85"/>
  <path d="M14.0841 25.3907C13.0724 25.2677 12.088 25.0079 11.1857 24.6251C10.9259 24.4884 10.6251 24.5841 10.4884 24.8302L8.49231 28.2755C8.32825 28.5763 8.42395 28.9318 8.7384 29.0685C10.3517 29.8341 12.1154 30.34 13.9747 30.504C14.3165 30.5177 14.5763 30.2853 14.5763 29.9435L14.5763 25.9239C14.5763 25.6368 14.3712 25.4181 14.0841 25.3907Z" fill="white" fill-opacity="0.85"/>
  <path d="M19.3068 24.6114C18.4181 25.0079 17.4337 25.2677 16.3947 25.3907C16.1075 25.4181 15.9025 25.6368 15.9025 25.9239L15.9025 29.9435C15.9025 30.2853 16.1622 30.5314 16.504 30.504C18.3634 30.3536 20.1544 29.8341 21.7677 29.0685C22.0685 28.9318 22.1642 28.5763 22.0001 28.2755L20.004 24.8302C19.8673 24.5841 19.5802 24.4884 19.3068 24.6114Z" fill="white" fill-opacity="0.85"/>
  <path d="M23.4493 21.3302C22.8478 22.1368 22.1232 22.8341 21.3165 23.4493C21.0841 23.6271 21.0157 23.9279 21.1525 24.1603L23.1486 27.6056C23.3126 27.8927 23.6681 27.9884 23.9552 27.797C25.4591 26.7443 26.7306 25.4454 27.7833 23.9689C27.9747 23.6818 27.879 23.3263 27.5919 23.1486L24.1466 21.1661C23.9142 21.0157 23.6271 21.0978 23.4493 21.3302Z" fill="white" fill-opacity="0.85"/>
  <path d="M25.3907 16.4083C25.2677 17.4337 25.0079 18.4181 24.5978 19.3204C24.4884 19.5802 24.5704 19.8536 24.8302 20.004L28.2755 21.9864C28.5763 22.1642 28.9181 22.0822 29.0685 21.754C29.8204 20.1407 30.3263 18.3771 30.4767 16.504C30.4904 16.1622 30.2579 15.9161 29.9161 15.9161L25.9103 15.9161C25.6232 15.9161 25.4044 16.1075 25.3907 16.4083Z" fill="white" fill-opacity="0.85"/>
  <path d="M24.5978 11.1857C24.9806 12.088 25.2677 13.0724 25.3771 14.0841C25.4044 14.3849 25.6232 14.5763 25.9103 14.5763L29.9161 14.5763C30.2579 14.5763 30.504 14.3302 30.4767 13.9884C30.3263 12.129 29.8204 10.3517 29.0685 8.7384C28.9181 8.42395 28.5626 8.32825 28.2755 8.50598L24.8165 10.5021C24.5704 10.6525 24.4884 10.9259 24.5978 11.1857Z" fill="white" fill-opacity="0.85"/>
  <path d="M21.3165 7.05676C22.1232 7.65832 22.8341 8.35559 23.4493 9.1759C23.6271 9.40832 23.9142 9.49035 24.1466 9.33996L27.5919 7.35754C27.8927 7.17981 27.9747 6.83801 27.797 6.5509C26.7443 5.047 25.4454 3.74817 23.9552 2.7091C23.6681 2.5177 23.3126 2.59973 23.1486 2.90051L21.1661 6.33215C21.0157 6.59192 21.0704 6.87903 21.3165 7.05676Z" fill="white" fill-opacity="0.85"/>
  <path d="M16.3947 5.11535C17.4337 5.22473 18.3907 5.49817 19.3068 5.90832C19.5802 6.0177 19.8673 5.922 20.004 5.6759L22.0001 2.23059C22.1642 1.94348 22.0548 1.58801 21.7404 1.43762C20.1271 0.671995 18.3771 0.166136 16.504 0.0157454C16.1622-0.0115983 15.9025 0.234495 15.9025 0.576292L15.9025 4.58215C15.9025 4.86926 16.1075 5.08801 16.3947 5.11535Z" fill="white" fill-opacity="0.85"/>
  <path d="M11.4728 20.797C13.756 20.797 14.8224 19.4025 14.8224 17.6114C14.8224 15.7384 13.6876 15.0411 12.2384 14.4806L11.4454 14.1798C10.4747 13.8107 9.80481 13.3732 9.80481 12.3204C9.80481 11.3907 10.3654 10.6798 11.4044 10.6798C12.3068 10.6798 12.9357 11.213 13.1818 12.2111C13.2911 12.5939 13.5372 12.7579 13.92 12.7579C14.3165 12.7579 14.5626 12.4708 14.5626 12.0743C14.5626 11.965 14.5489 11.8146 14.5216 11.6915C14.1798 10.256 12.9904 9.36731 11.4181 9.36731C9.38098 9.36731 8.27356 10.7482 8.27356 12.4161C8.27356 14.0704 9.24426 14.9728 10.7892 15.5333L11.5822 15.8204C12.5802 16.1759 13.2911 16.6954 13.2911 17.7618C13.2911 18.7189 12.6622 19.4845 11.5001 19.4845C10.4747 19.4845 9.80481 18.9239 9.55871 17.8986C9.46301 17.5157 9.21692 17.338 8.84778 17.338C8.45129 17.338 8.16418 17.6388 8.16418 18.0626C8.16418 18.2404 8.19153 18.4454 8.24621 18.5822C8.69739 20.0177 9.8595 20.797 11.4728 20.797ZM19.1427 20.4005C21.0431 20.4005 22.3829 19.3614 22.3829 17.5841C22.3829 15.9572 21.3849 15.3009 20.0314 14.672L19.0197 14.1935C18.1583 13.7833 17.4474 13.2775 17.4474 12.4298C17.4474 11.4728 18.172 11.0079 19.1154 11.0079C20.1818 11.0079 20.6193 11.6915 20.797 12.5802C20.8654 12.9083 21.0841 13.1271 21.5079 13.1271C21.9318 13.1271 22.2052 12.8947 22.2052 12.4708C22.2052 12.2931 22.1915 12.1837 22.1505 12.0607C21.795 10.42 20.5646 9.77746 19.1154 9.77746C17.4064 9.77746 15.9845 10.7208 15.9845 12.5118C15.9845 14.0431 16.8868 14.7677 18.295 15.4376L19.2794 15.9025C20.1544 16.3263 20.9064 16.7501 20.9064 17.7208C20.9064 18.6368 20.2638 19.1564 19.1564 19.1564C17.9669 19.1564 17.4611 18.5822 17.2833 17.5294C17.2286 17.2423 16.9825 16.9689 16.5861 16.9689C16.1759 16.9689 15.8751 17.2423 15.8751 17.6661C15.8751 17.7618 15.8888 17.9122 15.9161 18.0489C16.2853 19.7443 17.6251 20.4005 19.1427 20.4005ZM19.1154 21.8224C19.3204 21.8224 19.4982 21.6447 19.4982 21.4396L19.4982 8.75207C19.4982 8.547 19.3204 8.36926 19.1154 8.36926C18.9103 8.36926 18.7325 8.547 18.7325 8.75207L18.7325 21.4396C18.7325 21.6447 18.9103 21.8224 19.1154 21.8224Z" fill="white" fill-opacity="0.85"/>
 </g>
</svg>
