<svg version="1.1" xmlns="http://www.w3.org/2000/svg" xmlns:xlink="http://www.w3.org/1999/xlink" viewBox="0 0 33.291 27.4395">
 <g>
  
  <path d="M32.9355 16.4609C32.9355 12.4414 31.4863 8.73633 29.0664 5.86523C28.793 5.53711 28.3281 5.53711 28.0273 5.85156L24.8555 9.02344C24.5957 9.2832 24.582 9.65234 24.8145 9.93945C26.2227 11.7441 27.0703 14.0137 27.0703 16.4609C27.0703 18.9219 26.2227 21.1914 24.7324 23.0918C24.541 23.3242 24.5547 23.625 24.7598 23.8438L28.0137 27.0977C28.3281 27.4121 28.7793 27.4121 29.0664 27.0703C31.4863 24.1992 32.9355 20.4941 32.9355 16.4609Z" style="fill:var(--color-0,hsl(0 0 0/0.85))"></path>
  <path d="M16.4609 5.86523C18.9355 5.86523 21.2051 6.72656 23.0234 8.13477C23.2969 8.35352 23.6523 8.32617 23.9121 8.06641L27.084 4.89453C27.3984 4.58008 27.3848 4.12891 27.0566 3.85547C24.1992 1.44922 20.4941 0 16.4609 0C12.4414 0 8.73633 1.44922 5.87891 3.85547C5.55078 4.12891 5.53711 4.58008 5.85156 4.89453L9.02344 8.06641C9.2832 8.32617 9.65234 8.35352 9.95312 8.12109C11.7578 6.72656 14.0137 5.86523 16.4609 5.86523Z" style="fill:var(--color-1,hsl(0 0 0/0.85))"></path>
  <path d="M0 16.4609C0 20.4941 1.44922 24.1992 3.86914 27.0703C4.14258 27.4121 4.60742 27.4121 4.9082 27.0977L8.16211 23.8438C8.36719 23.625 8.39453 23.3242 8.20312 23.0918C6.71289 21.1914 5.86523 18.9219 5.86523 16.4609C5.86523 14.0137 6.69922 11.7441 8.12109 9.93945C8.33984 9.65234 8.33984 9.2832 8.08008 9.02344L4.9082 5.85156C4.59375 5.53711 4.14258 5.53711 3.86914 5.86523C1.44922 8.73633 0 12.4414 0 16.4609Z" style="fill:var(--color-2,hsl(0 0 0/0.85))"></path>
  <path d="M12.6875 22.2031C14.9707 22.2031 16.0508 20.7949 16.0508 19.0039C16.0508 17.1445 14.916 16.4336 13.4531 15.8867L12.6738 15.5859C11.6895 15.2168 11.0195 14.7656 11.0195 13.7129C11.0195 12.7832 11.5801 12.0859 12.6191 12.0859C13.5352 12.0859 14.1641 12.6055 14.4102 13.6035C14.5059 13.9863 14.7656 14.1504 15.1348 14.1504C15.5312 14.1504 15.791 13.877 15.791 13.4668C15.791 13.3711 15.7773 13.2207 15.7363 13.084C15.4082 11.6484 14.2051 10.7598 12.6465 10.7598C10.5957 10.7598 9.48828 12.1543 9.48828 13.8223C9.48828 15.4629 10.4727 16.3789 12.0176 16.9395L12.7969 17.2129C13.7949 17.5684 14.5059 18.1016 14.5059 19.1543C14.5059 20.1113 13.877 20.877 12.7285 20.877C11.6895 20.877 11.0195 20.3164 10.7871 19.291C10.6914 18.9082 10.4453 18.7441 10.0762 18.7441C9.66602 18.7441 9.37891 19.0449 9.37891 19.4688C9.37891 19.6328 9.41992 19.8379 9.46094 19.9883C9.91211 21.4102 11.0742 22.2031 12.6875 22.2031ZM20.3574 21.793C22.2715 21.793 23.6113 20.7539 23.6113 18.9766C23.6113 17.3633 22.5996 16.6934 21.2461 16.0645L20.248 15.5996C19.373 15.1758 18.6758 14.6836 18.6758 13.8223C18.6758 12.8789 19.3867 12.4141 20.3301 12.4141C21.4102 12.4141 21.834 13.084 22.0117 13.9863C22.0938 14.3008 22.2988 14.5332 22.7363 14.5332C23.1465 14.5332 23.4199 14.2871 23.4199 13.8633C23.4199 13.6992 23.4062 13.5898 23.3789 13.4531C23.0098 11.8262 21.793 11.1836 20.3301 11.1836C18.6211 11.1836 17.2129 12.1133 17.2129 13.918C17.2129 15.4355 18.1152 16.1602 19.5098 16.8301L20.4941 17.2949C21.3691 17.7188 22.1348 18.1426 22.1348 19.1133C22.1348 20.0293 21.4785 20.5488 20.3711 20.5488C19.1953 20.5488 18.6758 19.9883 18.5117 18.9355C18.457 18.6348 18.2109 18.375 17.8008 18.375C17.3906 18.375 17.1035 18.6348 17.1035 19.0586C17.1035 19.168 17.1172 19.3047 17.1445 19.4551C17.5 21.1367 18.8535 21.793 20.3574 21.793ZM20.3438 23.2285C20.5488 23.2285 20.7266 23.0508 20.7266 22.8457L20.7266 10.1445C20.7266 9.93945 20.5488 9.76172 20.3438 9.76172C20.125 9.76172 19.9609 9.93945 19.9609 10.1445L19.9609 22.8457C19.9609 23.0508 20.125 23.2285 20.3438 23.2285Z" style="fill:var(--color-3,hsl(0 0 0/0.85))"></path>
 </g>
</svg>