<?xml version="1.0" encoding="UTF-8"?>
<!--Generator: Apple Native CoreSVG 326-->
<!DOCTYPE svg
PUBLIC "-//W3C//DTD SVG 1.1//EN"
       "http://www.w3.org/Graphics/SVG/1.1/DTD/svg11.dtd">
<svg version="1.1" xmlns="http://www.w3.org/2000/svg" xmlns:xlink="http://www.w3.org/1999/xlink" viewBox="0 0 37.7926 37.4507">
 <g>
  <rect height="37.4507" opacity="0" width="37.7926" x="0" y="0"/>
  <path d="M1.1502 29.1365C2.69512 30.6814 5.12871 30.6677 6.65996 29.1365L29.1092 6.65992C30.6678 5.115 30.6678 2.70875 29.1229 1.1775C27.6053-0.367426 25.199-0.367426 23.6404 1.19117L1.17754 23.6677C-0.381053 25.24-0.394725 27.5916 1.1502 29.1365ZM14.3436 14.0154C13.9197 13.5642 13.9061 12.8943 14.3436 12.4705C14.7537 12.033 15.451 12.0466 15.8748 12.4705L17.8436 14.4255C18.2811 14.8767 18.2811 15.5466 17.8436 15.9705C17.4197 16.3943 16.7225 16.3943 16.2986 15.9705ZM9.73613 18.6091C9.31231 18.1853 9.29863 17.5154 9.73613 17.0642C10.1463 16.6404 10.8436 16.6404 11.2674 17.0642L13.2361 19.033C13.6736 19.4705 13.66 20.1541 13.2361 20.5916C12.8123 21.0017 12.115 21.0154 11.6912 20.5916ZM8.30059 36.2869C9.84551 37.8455 12.2791 37.8318 13.8104 36.2869L36.2732 13.8103C37.8182 12.2654 37.8318 9.85914 36.2732 8.31421C34.7557 6.79664 32.3494 6.78296 30.7908 8.34156L8.3416 30.8044C6.76934 32.3767 6.76934 34.7556 8.30059 36.2869ZM21.5076 21.1658C21.0564 20.7283 21.0564 20.031 21.5076 19.6209C21.9178 19.197 22.6014 19.1834 23.0525 19.6209L25.0076 21.5896C25.4314 22.0134 25.4314 22.697 25.0076 23.1209C24.5838 23.5584 23.9002 23.5584 23.4627 23.1209ZM16.8729 25.7732C16.4627 25.3494 16.4627 24.6658 16.8729 24.2419C17.3104 23.7908 17.9939 23.8044 18.4314 24.2419L20.3865 26.1834C20.8377 26.6345 20.8377 27.3181 20.3865 27.7419C19.9627 28.1658 19.2791 28.1658 18.8553 27.7419Z" fill="white" fill-opacity="0.85"/>
 </g>
</svg>
