<svg version="1.1" xmlns="http://www.w3.org/2000/svg" xmlns:xlink="http://www.w3.org/1999/xlink" viewBox="0 0 28.2461 27.9043">
 <g>
  
  <path d="M13.9453 27.8906C21.6426 27.8906 27.8906 21.6426 27.8906 13.9453C27.8906 6.24805 21.6426 0 13.9453 0C6.24805 0 0 6.24805 0 13.9453C0 21.6426 6.24805 27.8906 13.9453 27.8906ZM13.9453 25.5664C7.51953 25.5664 2.32422 20.3711 2.32422 13.9453C2.32422 7.51953 7.51953 2.32422 13.9453 2.32422C20.3711 2.32422 25.5664 7.51953 25.5664 13.9453C25.5664 20.3711 20.3711 25.5664 13.9453 25.5664Z" style="fill:var(--color-0,hsl(0 0 0/0.85))"></path>
  <path d="M13.9453 22.3809C18.6074 22.3809 22.3809 18.6074 22.3809 13.9453C22.3809 9.2832 18.6074 5.50977 13.9453 5.50977C9.2832 5.50977 5.50977 9.2832 5.50977 13.9453C5.50977 18.6074 9.2832 22.3809 13.9453 22.3809ZM7.47852 13.9453C7.47852 10.3633 10.377 7.46484 13.959 7.46484C17.541 7.46484 20.4395 10.3633 20.4395 13.9453C20.4395 14.7109 20.3027 15.4492 20.0566 16.1465L7.86133 16.1465C7.61523 15.4492 7.47852 14.7109 7.47852 13.9453ZM8.88672 17.9512L19.0449 17.9512C17.8691 19.4551 16.0234 20.4258 13.959 20.4258C11.8945 20.4258 10.0488 19.4551 8.88672 17.9512Z" style="fill:var(--color-1,hsl(0 0 0/0.85))"></path>
 </g>
</svg>