<?xml version="1.0" encoding="UTF-8"?>
<!--Generator: Apple Native CoreSVG 326-->
<!DOCTYPE svg
PUBLIC "-//W3C//DTD SVG 1.1//EN"
       "http://www.w3.org/Graphics/SVG/1.1/DTD/svg11.dtd">
<svg version="1.1" xmlns="http://www.w3.org/2000/svg" xmlns:xlink="http://www.w3.org/1999/xlink" viewBox="0 0 29.2852 28.6699">
 <g>
  <rect height="28.6699" opacity="0" width="29.2852" x="0" y="0"/>
  <path d="M22.2988 4.26562L22.2988 6.35742L20.0977 6.35742L20.0977 4.38867C20.0977 2.9668 19.332 2.22852 17.9785 2.22852L4.32031 2.22852C2.95312 2.22852 2.20117 2.9668 2.20117 4.38867L2.20117 17.9785C2.20117 19.4004 2.95312 20.1387 4.32031 20.1387L6.63086 20.1387L6.63086 22.3398L4.29297 22.3398C1.42188 22.3398 0 20.918 0 18.1016L0 4.26562C0 1.44922 1.42188 0.0273438 4.29297 0.0273438L18.0195 0.0273438C20.8633 0.0273438 22.2988 1.44922 22.2988 4.26562Z" fill="white" fill-opacity="0.85"/>
  <path d="M10.9238 28.6699L24.6504 28.6699C27.4941 28.6699 28.9297 27.248 28.9297 24.4316L28.9297 10.5957C28.9297 7.7793 27.4941 6.35742 24.6504 6.35742L10.9238 6.35742C8.05273 6.35742 6.63086 7.76562 6.63086 10.5957L6.63086 24.4316C6.63086 27.248 8.05273 28.6699 10.9238 28.6699ZM10.9512 26.4688C9.59766 26.4688 8.83203 25.7305 8.83203 24.3086L8.83203 10.7188C8.83203 9.29688 9.59766 8.55859 10.9512 8.55859L24.6094 8.55859C25.9629 8.55859 26.7285 9.29688 26.7285 10.7188L26.7285 24.3086C26.7285 25.7305 25.9629 26.4688 24.6094 26.4688Z" fill="white" fill-opacity="0.85"/>
  <path d="M11.7578 22.1211L13.8496 22.1211L13.8496 20.3164L11.7578 20.3164C11.293 20.3164 10.8965 20.7129 10.8965 21.2051C10.8965 21.7246 11.293 22.1211 11.7578 22.1211ZM15.6406 23.9805C17.1855 23.9805 18.4297 22.7363 18.4297 21.2051C18.4297 19.6875 17.1855 18.4434 15.6406 18.4434C14.123 18.4434 12.8789 19.6875 12.8789 21.2051C12.8789 22.7363 14.123 23.9805 15.6406 23.9805ZM15.6406 22.5723C14.8887 22.5723 14.2871 21.9707 14.2871 21.2051C14.2871 20.4258 14.8887 19.8516 15.6406 19.8516C16.4199 19.8516 17.0078 20.4258 17.0078 21.2051C17.0078 21.9707 16.4199 22.5723 15.6406 22.5723ZM17.5547 22.1211L23.7617 22.1211C24.2812 22.1211 24.6777 21.7246 24.6777 21.2051C24.6777 20.7129 24.2812 20.3164 23.7617 20.3164L17.5547 20.3164Z" fill="white" fill-opacity="0.85"/>
  <path d="M11.8125 14.8066L18.0195 14.8066L18.0195 13.002L11.8125 13.002C11.293 13.002 10.8965 13.3984 10.8965 13.8906C10.8965 14.3965 11.293 14.8066 11.8125 14.8066ZM19.9336 16.666C21.4512 16.666 22.6953 15.4219 22.6953 13.8906C22.6953 12.373 21.4512 11.1289 19.9336 11.1289C18.4023 11.1289 17.1582 12.373 17.1582 13.8906C17.1582 15.4219 18.4023 16.666 19.9336 16.666ZM19.9336 15.2578C19.1543 15.2578 18.5801 14.6562 18.5801 13.8906C18.5801 13.1113 19.1543 12.5371 19.9336 12.5371C20.6855 12.5371 21.2871 13.1113 21.2871 13.8906C21.2871 14.6562 20.6855 15.2578 19.9336 15.2578ZM21.7246 14.8066L23.8164 14.8066C24.2812 14.8066 24.6777 14.3965 24.6777 13.8906C24.6777 13.3984 24.2812 13.002 23.8164 13.002L21.7246 13.002Z" fill="white" fill-opacity="0.85"/>
 </g>
</svg>
