<?xml version="1.0" encoding="UTF-8"?>
<!--Generator: Apple Native CoreSVG 326-->
<!DOCTYPE svg
PUBLIC "-//W3C//DTD SVG 1.1//EN"
       "http://www.w3.org/Graphics/SVG/1.1/DTD/svg11.dtd">
<svg version="1.1" xmlns="http://www.w3.org/2000/svg" xmlns:xlink="http://www.w3.org/1999/xlink" viewBox="0 0 25.5254 25.1699">
 <g>
  <rect height="25.1699" opacity="0" width="25.5254" x="0" y="0"/>
  <path d="M4.29297 25.1699L20.877 25.1699C23.748 25.1699 25.1699 23.7617 25.1699 20.9453L25.1699 4.23828C25.1699 1.42188 23.748 0 20.877 0L4.29297 0C1.43555 0 0 1.42188 0 4.23828L0 20.9453C0 23.7617 1.43555 25.1699 4.29297 25.1699ZM4.32031 22.9688C2.95312 22.9688 2.20117 22.2441 2.20117 20.8223L2.20117 4.36133C2.20117 2.93945 2.95312 2.20117 4.32031 2.20117L20.8496 2.20117C22.2031 2.20117 22.9688 2.93945 22.9688 4.36133L22.9688 20.8223C22.9688 22.2441 22.2031 22.9688 20.8496 22.9688Z" fill="white" fill-opacity="0.85"/>
  <path d="M6.07031 9.66602L12.9199 9.66602L12.9199 7.86133L6.07031 7.86133C5.55078 7.86133 5.1543 8.27148 5.1543 8.76367C5.1543 9.26953 5.55078 9.66602 6.07031 9.66602ZM14.8203 11.5254C16.3379 11.5254 17.582 10.2812 17.582 8.75C17.582 7.23242 16.3379 5.98828 14.8203 5.98828C13.3027 5.98828 12.0586 7.23242 12.0586 8.75C12.0586 10.2812 13.3027 11.5254 14.8203 11.5254ZM14.8203 10.1172C14.0547 10.1172 13.4668 9.51562 13.4668 8.75C13.4668 7.9707 14.0547 7.39648 14.8203 7.39648C15.5723 7.39648 16.1738 7.9707 16.1738 8.75C16.1738 9.51562 15.5723 10.1172 14.8203 10.1172ZM16.625 9.66602L19.1543 9.66602C19.6191 9.66602 20.0293 9.26953 20.0293 8.76367C20.0293 8.27148 19.6191 7.86133 19.1543 7.86133L16.625 7.86133ZM19.0996 15.2305L12.2637 15.2305L12.2637 17.0352L19.0996 17.0352C19.6191 17.0352 20.0293 16.625 20.0293 16.1328C20.0293 15.627 19.6191 15.2305 19.0996 15.2305ZM10.3496 13.3574C8.83203 13.3574 7.58789 14.6016 7.58789 16.1465C7.58789 17.6641 8.83203 18.9082 10.3496 18.9082C11.8672 18.9082 13.1113 17.6641 13.1113 16.1465C13.1113 14.6016 11.8672 13.3574 10.3496 13.3574ZM10.3496 14.7793C11.1152 14.7793 11.7031 15.3809 11.7031 16.1465C11.7031 16.9121 11.1152 17.5 10.3496 17.5C9.59766 17.5 8.99609 16.9121 8.99609 16.1465C8.99609 15.3809 9.59766 14.7793 10.3496 14.7793ZM8.55859 15.2305L6.01562 15.2305C5.55078 15.2305 5.1543 15.627 5.1543 16.1328C5.1543 16.625 5.55078 17.0352 6.01562 17.0352L8.55859 17.0352Z" fill="white" fill-opacity="0.85"/>
 </g>
</svg>
