<?xml version="1.0" encoding="UTF-8"?>
<!--Generator: Apple Native CoreSVG 326-->
<!DOCTYPE svg
PUBLIC "-//W3C//DTD SVG 1.1//EN"
       "http://www.w3.org/Graphics/SVG/1.1/DTD/svg11.dtd">
<svg version="1.1" xmlns="http://www.w3.org/2000/svg" xmlns:xlink="http://www.w3.org/1999/xlink" viewBox="0 0 26.4414 26.0176">
 <g>
  <rect height="26.0176" opacity="0" width="26.4414" x="0" y="0"/>
  <path d="M18.252 25.7305C20.0566 25.7305 21.5332 24.2539 21.5332 22.4492C21.5332 20.6309 20.0566 19.1543 18.252 19.1543C16.4336 19.1543 14.957 20.6309 14.957 22.4492C14.957 24.2539 16.4336 25.7305 18.252 25.7305ZM18.252 24.0488C17.3496 24.0488 16.6523 23.3379 16.6523 22.4355C16.6523 21.5332 17.3496 20.8359 18.252 20.8359C19.1543 20.8359 19.8516 21.5332 19.8516 22.4355C19.8516 23.3379 19.1543 24.0488 18.252 24.0488ZM16.0781 21.3418L1.09375 21.3418C0.478516 21.3418 0 21.834 0 22.4492C0 23.0645 0.478516 23.543 1.09375 23.543L16.0781 23.543ZM25.0332 21.3418L20.6172 21.3418L20.6172 23.543L25.0332 23.543C25.5938 23.543 26.0859 23.0645 26.0859 22.4492C26.0859 21.834 25.5938 21.3418 25.0332 21.3418Z" fill="white" fill-opacity="0.85"/>
  <path d="M4.06055 17.2402L22.0117 17.2402C24.6777 17.2402 26.0859 15.8867 26.0859 13.2344L26.0859 4.00586C26.0859 1.35352 24.6777 0 22.0117 0L4.06055 0C1.54492 0 0 1.35352 0 4.00586L0 13.2344C0 15.8867 1.4082 17.2402 4.06055 17.2402ZM4.0332 15.1758C2.83008 15.1758 2.20117 14.5469 2.20117 13.3438L2.20117 3.89648C2.20117 2.69336 2.83008 2.06445 4.0332 2.06445L22.0391 2.06445C23.2559 2.06445 23.8848 2.69336 23.8848 3.89648L23.8848 13.3438C23.8848 14.5469 23.2559 15.1758 22.0391 15.1758Z" fill="white" fill-opacity="0.85"/>
 </g>
</svg>
