<svg version="1.1" xmlns="http://www.w3.org/2000/svg" xmlns:xlink="http://www.w3.org/1999/xlink" viewBox="0 0 50.2684 35.752">
 <g>
  
  <path d="M41.0688 9.5293L41.0688 18.1899C40.7109 18.1388 40.3453 18.1152 39.975 18.1152C39.6002 18.1152 39.2303 18.1396 38.8676 18.1891L38.8676 9.65234C38.8676 8.23047 38.102 7.49219 36.7485 7.49219L13.1508 7.49219C11.7836 7.49219 11.0317 8.23047 11.0317 9.65234L11.0317 26.1133C11.0317 27.5352 11.7836 28.2598 13.1508 28.2598L29.6959 28.2598C29.7669 29.2921 30.4775 30.1994 31.5877 30.4609L13.1235 30.4609C10.266 30.4609 8.83049 29.0527 8.83049 26.2363L8.83049 9.5293C8.83049 6.71289 10.266 5.29102 13.1235 5.29102L36.7758 5.29102C39.6469 5.29102 41.0688 6.71289 41.0688 9.5293ZM23.5592 18.3477L35.436 18.3477C35.8225 18.3477 36.1585 18.6007 36.2839 18.9482C35.6077 19.2646 34.9797 19.6665 34.4156 20.1387L23.5631 20.1387C23.1942 21.1854 22.1883 21.9434 21.0121 21.9434C19.8359 21.9434 18.8386 21.1854 18.4732 20.1387L14.436 20.1387C13.9848 20.1387 13.5746 19.7422 13.5746 19.25C13.5746 18.7578 13.9848 18.3477 14.436 18.3477L18.4756 18.3477C18.8407 17.2991 19.8291 16.5293 21.0121 16.5293C22.1844 16.5293 23.1874 17.2991 23.5592 18.3477ZM19.686 19.25C19.686 20.002 20.2602 20.5762 21.0121 20.5762C21.7778 20.5762 22.352 19.9883 22.352 19.25C22.352 18.4707 21.7778 17.9102 21.0121 17.9102C20.2602 17.9102 19.686 18.4707 19.686 19.25ZM31.4802 11.5938L35.477 11.5938C35.9281 11.5938 36.3246 11.9902 36.3246 12.4961C36.3246 12.9883 35.9281 13.3848 35.477 13.3848L31.4732 13.3848C31.0978 14.4289 30.089 15.1895 28.9281 15.1895C27.7458 15.1895 26.7493 14.4289 26.3801 13.3848L14.477 13.3848C13.9848 13.3848 13.5746 12.9883 13.5746 12.4961C13.5746 11.9902 13.9848 11.5938 14.477 11.5938L26.3766 11.5938C26.7451 10.5427 27.7514 9.77539 28.9281 9.77539C30.0961 9.77539 31.1101 10.5367 31.4802 11.5938ZM27.602 12.4824C27.602 13.2344 28.1625 13.8223 28.9281 13.8223C29.6938 13.8223 30.268 13.2344 30.268 12.4824C30.268 11.7305 29.6938 11.1562 28.9281 11.1562C28.1625 11.1562 27.602 11.7168 27.602 12.4824Z" style="fill:var(--color-0,hsl(0 0 0/0.85))"></path>
  <path d="M44.0629 30.1738C43.1059 31.3906 41.6293 32.1836 39.975 32.1836C37.1039 32.1836 34.725 29.8047 34.725 26.9336L33.0297 26.9336C33.0297 30.7344 36.1606 33.8789 39.975 33.8789C42.1215 33.8789 44.0629 32.8809 45.3207 31.3223C46.1274 30.3652 44.7738 29.3125 44.0629 30.1738ZM33.4125 25.334L31.7445 27.5352C31.3207 28.0957 31.6215 28.6836 32.3324 28.6836L35.8051 28.6836C36.516 28.6836 36.8442 28.0547 36.4067 27.5352L34.602 25.334C34.2328 24.8965 33.768 24.8828 33.4125 25.334ZM35.8871 23.6934C36.8442 22.4766 38.3207 21.6836 39.975 21.6836C42.8461 21.6836 45.225 24.0625 45.225 26.9336L46.9203 26.9336C46.9203 23.1328 43.7758 19.9883 39.975 19.9883C37.8149 19.9883 35.8871 21 34.6293 22.5449C33.8227 23.502 35.1625 24.5547 35.8871 23.6934ZM46.5375 28.5332L48.1918 26.332C48.6293 25.7715 48.3285 25.1836 47.6176 25.1836L44.1313 25.1836C43.4203 25.1836 43.0922 25.8125 43.5434 26.332L45.3344 28.5332C45.7035 28.9844 46.182 28.998 46.5375 28.5332Z" style="fill:var(--color-1,hsl(0 0 0/0.85))"></path>
 </g>
</svg>