<svg version="1.1" xmlns="http://www.w3.org/2000/svg" xmlns:xlink="http://www.w3.org/1999/xlink" viewBox="0 0 28.2461 33.2127">
 <g>
  
  <path d="M13.9453 30.5448C21.6426 30.5448 27.8906 24.2968 27.8906 16.5995C27.8906 9.77724 22.9824 4.11708 16.584 2.91395L16.584 0.972548C16.584-0.0118272 15.9141-0.257921 15.1484 0.275282L10.8008 3.33778C10.1719 3.78895 10.1855 4.4452 10.8008 4.8827L15.1621 7.9452C15.9141 8.46474 16.584 8.21864 16.584 7.24794L16.584 5.27919C21.7246 6.46864 25.5664 11.0487 25.5664 16.5995C25.5664 23.0253 20.3711 28.2206 13.9453 28.2206C7.51953 28.2206 2.32422 23.0253 2.32422 16.5995C2.32422 12.703 4.23828 9.27138 7.13672 7.19325C7.69727 6.76942 7.875 6.12684 7.5332 5.55263C7.19141 5.00575 6.41211 4.84169 5.81055 5.30653C2.2832 7.8495 0 11.91 0 16.5995C0 24.2968 6.24805 30.5448 13.9453 30.5448Z" style="fill:var(--color-0,hsl(0 0 0/0.85))"></path>
  <path d="M7.4375 14.5214L14.2734 14.5214L14.2734 12.7167L7.4375 12.7167C6.91797 12.7167 6.50781 13.1268 6.50781 13.619C6.50781 14.1249 6.91797 14.5214 7.4375 14.5214ZM16.1875 16.3808C17.7051 16.3808 18.9492 15.1366 18.9492 13.6054C18.9492 12.0878 17.7051 10.8436 16.1875 10.8436C14.6562 10.8436 13.4121 12.0878 13.4121 13.6054C13.4121 15.1366 14.6562 16.3808 16.1875 16.3808ZM16.1875 14.9725C15.4082 14.9725 14.834 14.371 14.834 13.6054C14.834 12.8397 15.4082 12.2518 16.1875 12.2518C16.9395 12.2518 17.541 12.8397 17.541 13.6054C17.541 14.371 16.9395 14.9725 16.1875 14.9725ZM17.9785 14.5214L20.5078 14.5214C20.9727 14.5214 21.3828 14.1249 21.3828 13.619C21.3828 13.1268 20.9727 12.7167 20.5078 12.7167L17.9785 12.7167ZM7.38281 21.8358L9.91211 21.8358L9.91211 20.0311L7.38281 20.0311C6.91797 20.0311 6.50781 20.4413 6.50781 20.9335C6.50781 21.4393 6.91797 21.8358 7.38281 21.8358ZM11.7031 23.6952C13.248 23.6952 14.4922 22.4511 14.4922 20.9198C14.4922 19.4022 13.248 18.1581 11.7031 18.1581C10.1855 18.1581 8.94141 19.4022 8.94141 20.9198C8.94141 22.4511 10.1855 23.6952 11.7031 23.6952ZM11.7031 22.287C10.9512 22.287 10.3496 21.6854 10.3496 20.9198C10.3496 20.1542 10.9512 19.5663 11.7031 19.5663C12.4824 19.5663 13.084 20.1542 13.084 20.9198C13.084 21.6854 12.4824 22.287 11.7031 22.287ZM13.6172 21.8358L20.4531 21.8358C20.9727 21.8358 21.3828 21.4393 21.3828 20.9335C21.3828 20.4413 20.9727 20.0311 20.4531 20.0311L13.6172 20.0311Z" style="fill:var(--color-1,hsl(0 0 0/0.85))"></path>
 </g>
</svg>