<svg version="1.1" xmlns="http://www.w3.org/2000/svg" xmlns:xlink="http://www.w3.org/1999/xlink" viewBox="0 0 28.2461 27.9043">
 <g>
  
  <path d="M13.9453 27.8906C21.6426 27.8906 27.8906 21.6426 27.8906 13.9453C27.8906 6.24805 21.6426 0 13.9453 0C6.24805 0 0 6.24805 0 13.9453C0 21.6426 6.24805 27.8906 13.9453 27.8906ZM13.9453 25.5664C7.51953 25.5664 2.32422 20.3711 2.32422 13.9453C2.32422 7.51953 7.51953 2.32422 13.9453 2.32422C20.3711 2.32422 25.5664 7.51953 25.5664 13.9453C25.5664 20.3711 20.3711 25.5664 13.9453 25.5664Z" style="fill:var(--color-0,hsl(0 0 0/0.85))"></path>
  <path d="M13.9316 19.168C16.8027 19.168 19.1543 16.8164 19.1543 13.9453C19.1543 11.0742 16.8027 8.72266 13.9316 8.72266C11.0605 8.72266 8.70898 11.0742 8.70898 13.9453C8.70898 16.8164 11.0605 19.168 13.9316 19.168ZM13.9316 17.0078C12.25 17.0078 10.8691 15.627 10.8691 13.9453C10.8691 12.25 12.25 10.8828 13.9316 10.8828C15.627 10.8828 16.9941 12.25 16.9941 13.9453C16.9941 15.627 15.627 17.0078 13.9316 17.0078Z" style="fill:var(--color-1,hsl(0 0 0/0.85))"></path>
 </g>
</svg>