<svg version="1.1" xmlns="http://www.w3.org/2000/svg" xmlns:xlink="http://www.w3.org/1999/xlink" viewBox="0 0 28.2461 27.9043">
 <g>
  
  <path d="M13.9453 27.8906C21.6426 27.8906 27.8906 21.6289 27.8906 13.9453C27.8906 6.24805 21.6426 0 13.9453 0C6.26172 0 0 6.24805 0 13.9453C0 21.6289 6.26172 27.8906 13.9453 27.8906Z" style="fill:var(--color-0,hsl(0 0 0/0.85))"></path>
  <path d="M13.9453 19.3457C10.9648 19.3457 8.54492 16.9258 8.54492 13.9453C8.54492 10.9648 10.9648 8.54492 13.9453 8.54492C16.9258 8.54492 19.3457 10.9648 19.3457 13.9453C19.3457 16.9258 16.9258 19.3457 13.9453 19.3457ZM13.9453 17.0898C15.6953 17.0898 17.0898 15.6816 17.0898 13.9453C17.0898 12.1953 15.6953 10.8008 13.9453 10.8008C12.209 10.8008 10.8008 12.1953 10.8008 13.9453C10.8008 15.6816 12.209 17.0898 13.9453 17.0898Z" style="fill:var(--color-1,white)"></path>
 </g>
</svg>