<?xml version="1.0" encoding="UTF-8"?>
<!--Generator: Apple Native CoreSVG 326-->
<!DOCTYPE svg
PUBLIC "-//W3C//DTD SVG 1.1//EN"
       "http://www.w3.org/Graphics/SVG/1.1/DTD/svg11.dtd">
<svg version="1.1" xmlns="http://www.w3.org/2000/svg" xmlns:xlink="http://www.w3.org/1999/xlink" viewBox="0 0 17.9238 28.9707">
 <g>
  <rect height="28.9707" opacity="0" width="17.9238" x="0" y="0"/>
  <path d="M1.69531 28.9434L15.873 28.9434C16.8711 28.9434 17.5684 28.2461 17.5684 27.248L17.5684 1.69531C17.5684 0.697266 16.8711 0 15.873 0L1.69531 0C0.697266 0 0 0.697266 0 1.69531L0 27.248C0 28.2461 0.710938 28.9434 1.69531 28.9434ZM2.7207 25.0059C2.41992 25.0059 2.20117 24.7871 2.20117 24.4863L2.20117 2.7207C2.20117 2.40625 2.40625 2.20117 2.7207 2.20117L14.8477 2.20117C15.1621 2.20117 15.3672 2.40625 15.3672 2.7207L15.3672 24.4863C15.3672 24.7871 15.1621 25.0059 14.8477 25.0059Z" fill="white" fill-opacity="0.85"/>
 </g>
</svg>
