<svg version="1.1" xmlns="http://www.w3.org/2000/svg" xmlns:xlink="http://www.w3.org/1999/xlink" viewBox="0 0 33.332 23.9668">
 <g>
  
  <path d="M16.2559 2.70703C16.7344 2.59766 17.2812 2.50195 17.8145 2.50195C20.4072 2.51532 22.5689 4.30549 23.1455 6.75045C22.7735 6.67964 22.3896 6.64453 21.998 6.64453C21.6594 6.64453 21.3257 6.67003 20.9995 6.72245C20.4944 5.42502 19.2845 4.56641 17.8145 4.56641C17.2949 4.56641 16.9805 4.64844 16.4199 4.86719C15.668 5.16797 15.2441 5.03125 14.9434 4.42969C14.2324 3.00781 12.6738 2.07812 10.9238 2.07812C8.43555 2.07812 6.43945 4.11523 6.43945 6.60352C6.43945 7.54688 6.17969 7.86133 5.25 7.95703C3.44531 8.16211 2.06445 9.74805 2.06445 11.5938C2.06445 13.7949 3.70508 15.2715 6.11133 15.2715L6.27502 15.2715C5.75291 15.8365 5.36011 16.5145 5.13623 17.2671C2.0079 16.8688 0 14.5246 0 11.5938C0 8.91406 1.81836 6.6582 4.40234 5.97461C4.74414 2.625 7.54688 0.0136719 10.9238 0.0136719C13.0566 0.0136719 14.998 1.02539 16.2559 2.70703Z" style="fill:var(--color-0,hsl(0 0 0/0.85))"></path>
  <path d="M10.3223 23.9668L26.8105 23.9668C30.4883 23.9668 32.9219 21.4375 32.9219 18.2246C32.9219 15.5449 31.1035 13.2891 28.5195 12.6055C28.1777 9.25586 25.375 6.64453 21.998 6.64453C19.8652 6.64453 17.9238 7.65625 16.666 9.33789C16.1875 9.22852 15.6406 9.13281 15.1074 9.13281C12.4551 9.13281 10.2539 11.0059 9.73438 13.5488C7 13.8496 4.92188 16.0234 4.92188 18.7441C4.92188 21.752 7.20508 23.9668 10.3223 23.9668ZM10.3223 21.9023C8.33984 21.9023 6.98633 20.6172 6.98633 18.7441C6.98633 16.9668 8.43555 15.5723 10.2676 15.5449C11.2246 15.5176 11.6074 15.2305 11.6758 14.4238C11.8262 12.5508 13.2617 11.1973 15.1074 11.1973C15.627 11.1973 15.9414 11.2793 16.502 11.498C17.2539 11.7852 17.6777 11.6621 17.9785 11.0605C18.6895 9.63867 20.248 8.72266 21.998 8.70898C24.4863 8.70898 26.4824 10.7461 26.4824 13.2344C26.4824 14.1777 26.7422 14.4785 27.6719 14.5879C29.4766 14.793 30.8574 16.3789 30.8574 18.2246C30.8574 20.4258 29.2168 21.9023 26.8105 21.9023Z" style="fill:var(--color-1,hsl(0 0 0/0.85))"></path>
 </g>
</svg>