<svg version="1.1" xmlns="http://www.w3.org/2000/svg" xmlns:xlink="http://www.w3.org/1999/xlink" viewBox="0 0 36.6543 27.5488">
 <g>
  
  <path d="M17.6504 4.68945C18.2383 4.49805 18.7715 4.40234 19.3867 4.40234C21.2376 4.40234 22.8574 5.35393 23.7826 6.81379C21.4562 6.86492 19.3862 7.86559 17.9238 9.46094C17.582 9.40625 17.2676 9.37891 16.9121 9.37891C13.8496 9.37891 11.252 11.293 10.2676 14.041C7.94547 14.6084 6.08365 16.3467 5.35084 18.569C3.0013 17.8492 1.51758 15.8016 1.51758 13.3438C1.51758 10.6504 3.43164 8.42188 6.00195 7.90234C6.19336 4.56641 8.92773 1.8457 12.332 1.8457C14.5469 1.8457 16.4746 2.95312 17.6504 4.68945Z" style="fill:var(--color-0,white)"></path>
  <path d="M12.0312 25.6895L29.0254 25.6895C32.457 25.6895 34.7812 23.2422 34.7812 20.1797C34.7812 17.4863 32.8672 15.2441 30.3105 14.7246C30.1055 11.3887 27.3848 8.68164 23.9805 8.68164C21.752 8.68164 19.8242 9.78906 18.6484 11.5254C18.0605 11.334 17.5273 11.2383 16.9121 11.2383C14.2871 11.2383 12.1406 13.1523 11.7441 15.709C9.02344 15.791 6.87695 18.0059 6.87695 20.6855C6.87695 23.4746 8.94141 25.6895 12.0312 25.6895Z" style="fill:var(--color-1,white)"></path>
 </g>
</svg>