<svg version="1.1" xmlns="http://www.w3.org/2000/svg" xmlns:xlink="http://www.w3.org/1999/xlink" viewBox="0 0 28.2461 27.9043">
 <g>
  
  <path d="M13.9453 27.9043C21.6426 27.9043 27.8906 21.6562 27.8906 13.959C27.8906 6.27539 21.6426 0.0136719 13.9453 0.0136719C6.26172 0.0136719 0 6.27539 0 13.959C0 21.6562 6.26172 27.9043 13.9453 27.9043Z" style="fill:var(--color-0,hsl(0 0 0/0.85))"></path>
  <path d="M10.2402 20.084C8.51758 20.084 7.35547 18.8535 7.35547 17.2676C7.35547 15.7773 8.55859 14.5332 10.0762 14.4922C10.3086 13.0566 11.5117 11.9902 12.9883 11.9902C13.3301 11.9902 13.6172 12.0312 13.959 12.1406C14.6016 11.1699 15.6953 10.5547 16.9395 10.5547C18.8535 10.5547 20.3848 12.0859 20.4941 13.9453C21.9297 14.2324 23.0098 15.4902 23.0098 16.9941C23.0098 18.7305 21.6973 20.084 19.7695 20.084ZM4.34766 13.1523C4.34766 11.6484 5.41406 10.3906 6.87695 10.1035C6.97266 8.23047 8.54492 6.71289 10.4453 6.71289C11.6621 6.71289 12.7422 7.32812 13.3984 8.32617C13.7266 8.2168 14.0273 8.13477 14.3828 8.13477C15.6816 8.13477 16.4883 8.83203 16.6934 9.57031C15.4629 9.625 14.3555 10.1445 13.5762 11.0195C13.3848 10.9922 13.1797 10.9785 12.9883 10.9785C11.2656 10.9785 9.83008 12.0586 9.26953 13.6035C7.99805 13.9043 6.95898 14.8477 6.54883 16.0781C5.16797 15.627 4.34766 14.4922 4.34766 13.1523Z" style="fill:var(--color-1,white)"></path>
 </g>
</svg>