<svg version="1.1" xmlns="http://www.w3.org/2000/svg" xmlns:xlink="http://www.w3.org/1999/xlink" viewBox="0 0 28.2461 27.9043">
 <g>
  
  <path d="M13.9453 27.9043C21.6426 27.9043 27.8906 21.6562 27.8906 13.959C27.8906 6.27539 21.6426 0.0136719 13.9453 0.0136719C6.26172 0.0136719 0 6.27539 0 13.959C0 21.6562 6.26172 27.9043 13.9453 27.9043Z" style="fill:var(--color-0,hsl(0 0 0/0.85))"></path>
  <path d="M13.9316 22.7773C13.4941 22.7773 13.166 22.4492 13.166 21.9707L13.166 20.4121L11.9492 21.1094C11.5117 21.3418 11.1152 21.2461 10.8828 20.8633C10.6777 20.5215 10.8281 20.0703 11.2109 19.8516L13.166 18.7578L13.166 17.7734L13.3027 15.0664L11.0195 16.5293L10.1719 17.0352L10.1855 19.2637C10.1855 19.7148 9.88477 20.0703 9.47461 20.0703C9.02344 20.0703 8.73633 19.7422 8.73633 19.2637L8.72266 17.8555L7.38281 18.6484C6.98633 18.8809 6.54883 18.7715 6.30273 18.375C6.07031 17.9648 6.20703 17.5273 6.61719 17.2812L7.95703 16.5293L6.75391 15.8184C6.33008 15.5723 6.2207 15.1758 6.42578 14.7793C6.63086 14.4238 7.0957 14.3281 7.49219 14.5469L9.40625 15.6953L10.2402 15.1895L12.7012 13.959L10.2402 12.7422L9.40625 12.25L7.49219 13.3711C7.0957 13.5898 6.63086 13.5078 6.41211 13.1523C6.20703 12.7422 6.34375 12.3594 6.75391 12.1133L7.95703 11.4023L6.61719 10.6367C6.20703 10.3906 6.05664 9.95312 6.30273 9.54297C6.53516 9.16016 6.98633 9.05078 7.38281 9.2832L8.72266 10.0625L8.73633 8.6543C8.73633 8.17578 9.02344 7.86133 9.47461 7.86133C9.88477 7.86133 10.1855 8.20312 10.1855 8.6543L10.1719 10.8965L11.0195 11.3887L13.3027 12.8652L13.166 10.1445L13.166 9.16016L11.2109 8.08008C10.8281 7.84766 10.6777 7.39648 10.8828 7.05469C11.1152 6.67188 11.5117 6.58984 11.9492 6.80859L13.166 7.50586L13.166 5.94727C13.166 5.48242 13.4941 5.14062 13.9316 5.14062C14.3828 5.14062 14.7109 5.46875 14.7109 5.94727L14.7109 7.49219L15.9004 6.80859C16.3379 6.57617 16.748 6.67188 16.9805 7.05469C17.1719 7.39648 17.0352 7.84766 16.6387 8.08008L14.6973 9.16016L14.6973 10.1445L14.5605 12.8652L16.8711 11.375L17.6914 10.8965L17.6777 8.6543C17.6777 8.20312 17.9785 7.86133 18.4023 7.86133C18.8262 7.86133 19.127 8.18945 19.127 8.6543L19.1406 10.0762L20.4805 9.2832C20.877 9.05078 21.3281 9.14648 21.5605 9.54297C21.7793 9.9668 21.6562 10.3906 21.2461 10.6367L19.9062 11.4023L21.0957 12.1133C21.5059 12.3594 21.6562 12.7559 21.4512 13.1387C21.2324 13.4941 20.7676 13.5898 20.3711 13.3711L18.457 12.2363L17.623 12.7422L15.1621 13.959L17.623 15.1895L18.457 15.6953L20.3711 14.5469C20.7676 14.3418 21.2188 14.4238 21.4512 14.793C21.6562 15.1758 21.5059 15.5586 21.0957 15.8184L19.9062 16.5293L21.2461 17.2812C21.6562 17.5273 21.7793 17.9648 21.5605 18.375C21.3008 18.7715 20.877 18.8672 20.4805 18.6484L19.1406 17.8418L19.127 19.2637C19.127 19.7422 18.8262 20.0703 18.3887 20.0703C17.9785 20.0703 17.6777 19.7148 17.6777 19.2637L17.6914 17.0352L16.8711 16.5293L14.5605 15.0664L14.6973 17.7734L14.6973 18.7578L16.6387 19.8379C17.0352 20.0703 17.1719 20.5215 16.9805 20.8633C16.748 21.2461 16.3379 21.3555 15.9004 21.1094L14.7109 20.4258L14.7109 21.9707C14.7109 22.4629 14.3828 22.7773 13.9316 22.7773Z" style="fill:var(--color-1,white)"></path>
 </g>
</svg>