<?xml version="1.0" encoding="UTF-8"?>
<!--Generator: Apple Native CoreSVG 326-->
<!DOCTYPE svg
PUBLIC "-//W3C//DTD SVG 1.1//EN"
       "http://www.w3.org/Graphics/SVG/1.1/DTD/svg11.dtd">
<svg version="1.1" xmlns="http://www.w3.org/2000/svg" xmlns:xlink="http://www.w3.org/1999/xlink" viewBox="0 0 33.5789 33.2918">
 <g>
  <rect height="33.2918" opacity="0" width="33.5789" x="0" y="0"/>
  <path d="M2.14688 31.0766C5.11367 34.0297 8.81875 33.9203 11.9496 30.8031C13.3578 29.3949 16.1605 25.2797 20.727 20.727C25.2797 16.1605 29.3949 13.3578 30.8031 11.9496C33.9203 8.81875 34.0297 5.11367 31.0766 2.14688C28.1098-0.80625 24.4047-0.710547 21.2602 2.42031C19.8656 3.82852 17.0629 7.93008 12.4965 12.4965C7.93008 17.0629 3.82852 19.8656 2.42031 21.2602C-0.710547 24.4047-0.80625 28.1098 2.14688 31.0766ZM17.0219 14.3559C16.393 13.7543 16.3793 12.7836 16.9945 12.182C17.5961 11.5805 18.5531 11.5805 19.182 12.182L21.0277 14.0414C21.643 14.6566 21.643 15.6137 21.0414 16.2016C20.4125 16.8305 19.4691 16.8305 18.8676 16.2016ZM12.1547 19.2094C11.5531 18.5941 11.5395 17.6371 12.1547 17.0219C12.7563 16.4203 13.7133 16.4203 14.3148 17.0492L16.1742 18.9086C16.7895 19.5102 16.8031 20.4398 16.1742 21.0688C15.5863 21.6703 14.6156 21.684 14.0141 21.0551Z" fill="white" fill-opacity="0.85"/>
 </g>
</svg>
