<?xml version="1.0" encoding="UTF-8"?>
<!--Generator: Apple Native CoreSVG 326-->
<!DOCTYPE svg
PUBLIC "-//W3C//DTD SVG 1.1//EN"
       "http://www.w3.org/Graphics/SVG/1.1/DTD/svg11.dtd">
<svg version="1.1" xmlns="http://www.w3.org/2000/svg" xmlns:xlink="http://www.w3.org/1999/xlink" viewBox="0 0 28.2461 27.9043">
 <g>
  <rect height="27.9043" opacity="0" width="28.2461" x="0" y="0"/>
  <path d="M13.9453 27.8906C21.6426 27.8906 27.8906 21.6426 27.8906 13.9453C27.8906 6.24805 21.6426 0 13.9453 0C6.24805 0 0 6.24805 0 13.9453C0 21.6426 6.24805 27.8906 13.9453 27.8906ZM13.9453 25.5664C7.51953 25.5664 2.32422 20.3711 2.32422 13.9453C2.32422 7.51953 7.51953 2.32422 13.9453 2.32422C20.3711 2.32422 25.5664 7.51953 25.5664 13.9453C25.5664 20.3711 20.3711 25.5664 13.9453 25.5664Z" fill="white" fill-opacity="0.85"/>
  <path d="M13.9316 21.2461C17.9648 21.2461 21.2461 17.9785 21.2461 13.9453C21.2461 9.91211 17.9648 6.63086 13.9316 6.63086C9.89844 6.63086 6.63086 9.91211 6.63086 13.9453C6.63086 17.9785 9.89844 21.2461 13.9316 21.2461ZM13.9316 7.73828C14.6973 7.73828 15.4355 7.875 16.1191 8.14844L14.3555 9.54297L14.3555 11.457L16.2695 12.9199L18.0742 12.1953L18.7441 10.0352C19.6055 11.1016 20.1523 12.4551 20.1523 13.959L18.4023 12.9883L16.502 13.7539L15.7773 15.9688L16.8164 17.2676L19.1406 17.2949C18.334 18.5527 17.1035 19.4824 15.668 19.9062L16.1465 17.8145L15.2031 16.6113L12.6465 16.6113L11.7031 17.8145L12.1953 19.9062C10.7461 19.4824 9.51562 18.5527 8.70898 17.2949L11.0469 17.2676L12.0723 15.9824L11.3477 13.7539L9.44727 12.9883L7.69727 13.959C7.69727 12.4551 8.24414 11.1016 9.11914 10.0352L9.77539 12.1953L11.5801 12.9199L13.5078 11.457L13.5078 9.54297L11.7305 8.14844C12.4141 7.875 13.1797 7.73828 13.9316 7.73828Z" fill="white" fill-opacity="0.85"/>
 </g>
</svg>
