<?xml version="1.0" encoding="UTF-8"?>
<!--Generator: Apple Native CoreSVG 326-->
<!DOCTYPE svg
PUBLIC "-//W3C//DTD SVG 1.1//EN"
       "http://www.w3.org/Graphics/SVG/1.1/DTD/svg11.dtd">
<svg version="1.1" xmlns="http://www.w3.org/2000/svg" xmlns:xlink="http://www.w3.org/1999/xlink" viewBox="0 0 28.2461 27.9043">
 <g>
  <rect height="27.9043" opacity="0" width="28.2461" x="0" y="0"/>
  <path d="M13.9453 8.46289L8.61328 12.5645L10.7461 19.127L17.1445 19.127L19.2773 12.5645ZM18.7441 2.1875L13.9316 0.615234L9.10547 2.1875L13.9316 6.07031ZM13.1934 1.08008L13.1934 10.1309L14.7109 10.1309L14.7109 1.08008ZM23.4883 5.63281L21.6973 11.5527L27.084 14.5742L26.0996 8.90039ZM26.6055 10.377L26.0312 8.98242L17.6367 12.373L18.2109 13.7812ZM17.0898 26.4277L21.6562 24.4453L24.7734 20.4941L18.4844 20.3984ZM22.1484 23.8848L16.584 16.7344L15.3672 17.6641L20.9453 24.8008ZM10.7871 26.373L9.39258 20.3438L3.10352 20.4395L6.2207 24.3906ZM5.72852 23.8301L6.93164 24.7461L12.5098 17.6094L11.293 16.6797ZM4.40234 5.63281L1.79102 8.90039L0.806641 14.5742L6.19336 11.5527ZM1.28516 10.377L9.67969 13.7812L10.2539 12.373L1.85938 8.98242ZM13.9453 27.8906C21.6426 27.8906 27.8906 21.6426 27.8906 13.9453C27.8906 6.24805 21.6426 0 13.9453 0C6.24805 0 0 6.24805 0 13.9453C0 21.6426 6.24805 27.8906 13.9453 27.8906ZM13.9453 26.0312C7.27344 26.0312 1.85938 20.6172 1.85938 13.9453C1.85938 7.27344 7.27344 1.85938 13.9453 1.85938C20.6172 1.85938 26.0312 7.27344 26.0312 13.9453C26.0312 20.6172 20.6172 26.0312 13.9453 26.0312Z" fill="white" fill-opacity="0.85"/>
 </g>
</svg>
