<?xml version="1.0" encoding="UTF-8"?>
<!--Generator: Apple Native CoreSVG 326-->
<!DOCTYPE svg
PUBLIC "-//W3C//DTD SVG 1.1//EN"
       "http://www.w3.org/Graphics/SVG/1.1/DTD/svg11.dtd">
<svg version="1.1" xmlns="http://www.w3.org/2000/svg" xmlns:xlink="http://www.w3.org/1999/xlink" viewBox="0 0 28.2461 27.9043">
 <g>
  <rect height="27.9043" opacity="0" width="28.2461" x="0" y="0"/>
  <path d="M13.9453 27.8906C21.6426 27.8906 27.8906 21.6289 27.8906 13.9453C27.8906 6.24805 21.6426 0 13.9453 0C6.26172 0 0 6.24805 0 13.9453C0 21.6289 6.26172 27.8906 13.9453 27.8906Z" fill="white" fill-opacity="0.85"/>
  <path d="M13.959 21.2461C9.9668 21.2461 6.6582 17.9375 6.6582 13.9453C6.6582 9.95312 9.95312 6.63086 13.9453 6.63086C17.9512 6.63086 21.2734 9.95312 21.2734 13.9453C21.2734 17.9375 17.9512 21.2461 13.959 21.2461ZM13.959 7.73828C13.207 7.73828 12.4414 7.875 11.7578 8.14844L13.5352 9.54297L13.5352 11.457L11.6074 12.9199L9.80273 12.1953L9.14648 10.0352C8.27148 11.1016 7.72461 12.4551 7.72461 13.959L9.47461 12.9883L11.375 13.7539L12.0996 15.9824L11.0742 17.2676L8.73633 17.2949C9.54297 18.5527 10.7734 19.4824 12.2227 19.9062L11.7305 17.8145L12.6738 16.6113L15.2305 16.6113L16.1738 17.8145L15.6953 19.9062C17.1309 19.4824 18.3613 18.5527 19.168 17.2949L16.8438 17.2676L15.8047 15.9688L16.5293 13.7539L18.4297 12.9883L20.1797 13.959C20.1797 12.4551 19.6328 11.1016 18.7715 10.0352L18.1016 12.1953L16.2969 12.9199L14.3828 11.457L14.3828 9.54297L16.1465 8.14844C15.4629 7.875 14.7246 7.73828 13.959 7.73828Z" fill="white"/>
 </g>
</svg>
