<?xml version="1.0" encoding="UTF-8"?>
<!--Generator: Apple Native CoreSVG 326-->
<!DOCTYPE svg
PUBLIC "-//W3C//DTD SVG 1.1//EN"
       "http://www.w3.org/Graphics/SVG/1.1/DTD/svg11.dtd">
<svg version="1.1" xmlns="http://www.w3.org/2000/svg" xmlns:xlink="http://www.w3.org/1999/xlink" viewBox="0 0 42.6426 24.0215">
 <g>
  <rect height="24.0215" opacity="0" width="42.6426" x="0" y="0"/>
  <path d="M4.16992 8.03906L6.48047 8.03906L6.48047 3.41797C6.48047 2.73438 6.93164 2.29688 7.57422 2.29688L18.8945 2.29688C19.5508 2.29688 19.9883 2.73438 19.9883 3.41797L19.9883 14.2734L22.2988 14.2734L22.2988 3.4043C22.2988 1.35352 20.9727 0 19.0039 0L7.47852 0C5.49609 0 4.16992 1.35352 4.16992 3.4043ZM38.418 8.03906L38.418 3.4043C38.418 1.35352 37.0918 0 35.1094 0L23.2832 0C21.3145 0 19.9883 1.35352 19.9883 3.4043L19.9883 14.2734L22.2988 14.2734L22.2988 3.41797C22.2988 2.73438 22.7363 2.29688 23.3926 2.29688L35.0137 2.29688C35.6562 2.29688 36.1074 2.73438 36.1074 3.41797L36.1074 8.03906ZM0 17.9375C0 19.9062 1.29883 21.2051 3.24023 21.2051L39.0469 21.2051C40.9883 21.2051 42.2871 19.9062 42.2871 17.9375L42.2871 9.625C42.2871 7.66992 40.9883 6.35742 39.0469 6.35742L37.1602 6.35742C35.2324 6.35742 33.9336 7.66992 33.9336 9.625L33.9336 12.9062L8.36719 12.9062L8.36719 9.625C8.36719 7.66992 7.05469 6.35742 5.12695 6.35742L3.24023 6.35742C1.29883 6.35742 0 7.66992 0 9.625ZM2.32422 17.9102L2.32422 9.65234C2.32422 9.05078 2.73438 8.6543 3.34961 8.6543L5.00391 8.6543C5.63281 8.6543 6.04297 9.05078 6.04297 9.65234L6.04297 15.2031L36.2441 15.2031L36.2441 9.65234C36.2441 9.05078 36.668 8.6543 37.2832 8.6543L38.9375 8.6543C39.5527 8.6543 39.9766 9.05078 39.9766 9.65234L39.9766 17.9102C39.9766 18.5117 39.5527 18.9082 38.9375 18.9082L3.34961 18.9082C2.73438 18.9082 2.32422 18.5117 2.32422 17.9102ZM4.97656 23.9941L5.82422 23.9941C6.5625 23.9941 7.04102 23.5293 7.04102 22.791L7.04102 19.8926L3.75977 19.8926L3.75977 22.791C3.75977 23.5293 4.23828 23.9941 4.97656 23.9941ZM36.4629 23.9941L37.3105 23.9941C38.0488 23.9941 38.5273 23.5293 38.5273 22.791L38.5273 19.8926L35.2461 19.8926L35.2461 22.791C35.2461 23.5293 35.7383 23.9941 36.4629 23.9941Z" fill="white" fill-opacity="0.85"/>
 </g>
</svg>
