<?xml version="1.0" encoding="UTF-8"?>
<!--Generator: Apple Native CoreSVG 326-->
<!DOCTYPE svg
PUBLIC "-//W3C//DTD SVG 1.1//EN"
       "http://www.w3.org/Graphics/SVG/1.1/DTD/svg11.dtd">
<svg version="1.1" xmlns="http://www.w3.org/2000/svg" xmlns:xlink="http://www.w3.org/1999/xlink" viewBox="0 0 46.267 22.8457">
 <g>
  <rect height="22.8457" opacity="0" width="46.267" x="0" y="0"/>
  <path d="M6.83663 22.791C11.1023 22.791 13.5905 20.2617 13.5905 16.4199C13.5905 13.2754 12.3874 11.7578 8.7917 9.92578L7.45186 9.25586C5.33272 8.16211 4.60811 7.30078 4.60811 5.75586C4.60811 4.41602 5.49678 3.52734 6.83663 3.52734C8.28584 3.52734 9.06514 4.48438 9.25655 6.17969C9.28389 6.48047 9.44795 6.63086 9.72139 6.63086L12.7976 6.63086C13.071 6.63086 13.2624 6.45312 13.2487 6.13867C13.0573 2.37891 11.0339 0 6.83663 0C2.72139 0 0.315141 2.5293 0.315141 6.24805C0.315141 9.37891 1.6003 11.1152 4.92256 12.8652L6.26241 13.5762C8.46358 14.7383 9.29756 15.4629 9.29756 16.9258C9.29756 18.4297 8.47725 19.2637 6.91866 19.2637C5.30538 19.2637 4.36202 18.2656 4.17061 16.584C4.14327 16.2832 4.02022 16.1191 3.73311 16.1191L0.45186 16.1191C0.178423 16.1191-0.0129837 16.2969 0.000688221 16.6113C0.23311 20.5762 2.39327 22.791 6.83663 22.791ZM22.9694 22.791C28.028 22.791 30.7214 18.9492 30.7214 11.4297C30.7214 3.95117 28.028 0.0410156 22.9694 0.0410156C17.8562 0.0410156 15.2038 3.95117 15.2038 11.4297C15.2038 18.9492 17.8562 22.791 22.9694 22.791ZM22.9694 19.0723C20.7273 19.0723 19.6198 16.707 19.6198 11.4297C19.6198 6.17969 20.7273 3.75977 22.9694 3.75977C25.1433 3.75977 26.2644 6.17969 26.2644 11.4297C26.2644 16.707 25.1433 19.0723 22.9694 19.0723ZM39.1569 22.791C43.4226 22.791 45.9108 20.2617 45.9108 16.4199C45.9108 13.2754 44.7077 11.7441 41.112 9.92578L39.7722 9.25586C37.6394 8.16211 36.9284 7.30078 36.9284 5.75586C36.9284 4.41602 37.8171 3.52734 39.1569 3.52734C40.6062 3.52734 41.3718 4.48438 41.5632 6.17969C41.6042 6.48047 41.7683 6.63086 42.0417 6.63086L45.1179 6.63086C45.3913 6.63086 45.5827 6.45312 45.569 6.13867C45.3503 2.37891 43.3542 0 39.1569 0C35.0417 0 32.6355 2.5293 32.6355 6.24805C32.6355 9.37891 33.9206 11.1016 37.2429 12.8652L38.5827 13.5762C40.7839 14.752 41.6179 15.4629 41.6179 16.9258C41.6179 18.4297 40.7976 19.2637 39.2253 19.2637C37.6257 19.2637 36.6823 18.2656 36.4909 16.584C36.4499 16.2832 36.3405 16.1191 36.0534 16.1191L32.7722 16.1191C32.4987 16.1191 32.3073 16.2969 32.321 16.6113C32.5534 20.5762 34.7136 22.791 39.1569 22.791Z" fill="white" fill-opacity="0.85"/>
 </g>
</svg>
