<svg version="1.1" xmlns="http://www.w3.org/2000/svg" xmlns:xlink="http://www.w3.org/1999/xlink" viewBox="0 0 28.2461 27.9043">
 <g>
  
  <path d="M13.9453 27.8906C21.6426 27.8906 27.8906 21.6426 27.8906 13.9453C27.8906 6.24805 21.6426 0 13.9453 0C6.24805 0 0 6.24805 0 13.9453C0 21.6426 6.24805 27.8906 13.9453 27.8906ZM13.9453 25.5664C7.51953 25.5664 2.32422 20.3711 2.32422 13.9453C2.32422 7.51953 7.51953 2.32422 13.9453 2.32422C20.3711 2.32422 25.5664 7.51953 25.5664 13.9453C25.5664 20.3711 20.3711 25.5664 13.9453 25.5664Z" style="fill:var(--color-0,hsl(0 0 0/0.85))"></path>
  <path d="M7.61523 18.4297C9.31055 18.4297 10.3223 17.3906 10.3223 15.8594C10.3223 14.5879 9.80273 14 8.42188 13.248L7.90234 12.9609C7.12305 12.5371 6.87695 12.2363 6.87695 11.7578C6.87695 11.334 7.17773 11.0332 7.61523 11.0332C8.05273 11.0332 8.28516 11.334 8.4082 11.9355C8.44922 12.127 8.53125 12.2227 8.70898 12.2227L9.88477 12.2227C10.0762 12.2227 10.1992 12.0996 10.1992 11.9082C10.1855 10.4727 9.35156 9.40625 7.61523 9.40625C5.94727 9.40625 4.96289 10.459 4.96289 11.9492C4.96289 13.207 5.49609 13.9043 6.80859 14.6016L7.31445 14.875C8.14844 15.3125 8.4082 15.5312 8.4082 16.0508C8.4082 16.5703 8.17578 16.8027 7.62891 16.8027C7.08203 16.8027 6.79492 16.502 6.71289 15.873C6.68555 15.6953 6.57617 15.5996 6.41211 15.5996L5.16797 15.5996C4.97656 15.5996 4.83984 15.7363 4.85352 15.9277C4.86719 17.4863 5.81055 18.4297 7.61523 18.4297ZM13.9453 18.4297C15.9688 18.4297 17.0488 16.9121 17.0488 13.9453C17.0488 11.0059 15.9824 9.40625 13.9453 9.40625C11.8809 9.40625 10.8145 11.0059 10.8145 13.9453C10.8145 16.9121 11.8945 18.4297 13.9453 18.4297ZM13.9453 16.7344C13.166 16.7344 12.7832 15.9414 12.7832 13.9453C12.7832 11.9492 13.166 11.1289 13.9453 11.1289C14.6836 11.1289 15.0527 11.9492 15.0527 13.9453C15.0527 15.9414 14.6836 16.7344 13.9453 16.7344ZM20.3027 18.4297C21.998 18.4297 23.0098 17.3906 23.0098 15.8594C23.0098 14.5879 22.5039 14 21.1094 13.248L20.5898 12.9609C19.8105 12.5371 19.5645 12.2363 19.5645 11.7578C19.5645 11.334 19.8652 11.0332 20.3027 11.0332C20.7402 11.0332 20.9863 11.334 21.0957 11.9355C21.1367 12.127 21.2188 12.2227 21.3965 12.2227L22.5723 12.2227C22.7637 12.2227 22.8867 12.0996 22.8867 11.9082C22.873 10.4727 22.0391 9.40625 20.3027 9.40625C18.6348 9.40625 17.6504 10.459 17.6504 11.9492C17.6504 13.207 18.1836 13.9043 19.4961 14.6016L20.002 14.875C20.8359 15.3262 21.0957 15.5312 21.0957 16.0508C21.0957 16.5703 20.877 16.8027 20.3164 16.8027C19.7695 16.8027 19.4824 16.502 19.4004 15.873C19.373 15.6953 19.2637 15.5996 19.0996 15.5996L17.8418 15.5996C17.6641 15.5996 17.5273 15.7363 17.5273 15.9277C17.5547 17.4863 18.498 18.4297 20.3027 18.4297Z" style="fill:var(--color-1,hsl(0 0 0/0.85))"></path>
 </g>
</svg>