<?xml version="1.0" encoding="UTF-8"?>
<!--Generator: Apple Native CoreSVG 326-->
<!DOCTYPE svg
PUBLIC "-//W3C//DTD SVG 1.1//EN"
       "http://www.w3.org/Graphics/SVG/1.1/DTD/svg11.dtd">
<svg version="1.1" xmlns="http://www.w3.org/2000/svg" xmlns:xlink="http://www.w3.org/1999/xlink" viewBox="0 0 33.7422 17.4316">
 <g>
  <rect height="17.4316" opacity="0" width="33.7422" x="0" y="0"/>
  <path d="M0 14.5059C0 16.3105 1.01172 17.4316 2.92578 17.4316L30.4609 17.4316C32.375 17.4316 33.3867 16.3105 33.3867 14.5059L33.3867 9.78906C33.3867 9.16016 32.8809 8.6543 32.252 8.6543C31.6094 8.6543 31.1035 9.16016 31.1035 9.78906L31.1035 14.4512C31.1035 14.957 30.7344 15.3125 30.2422 15.3125L3.14453 15.3125C2.63867 15.3125 2.2832 14.9707 2.2832 14.4512L2.2832 9.78906C2.2832 9.16016 1.77734 8.6543 1.13477 8.6543C0.505859 8.6543 0 9.16016 0 9.78906Z" fill="white" fill-opacity="0.85"/>
 </g>
</svg>
