<?xml version="1.0" encoding="UTF-8"?>
<!--Generator: Apple Native CoreSVG 326-->
<!DOCTYPE svg
PUBLIC "-//W3C//DTD SVG 1.1//EN"
       "http://www.w3.org/Graphics/SVG/1.1/DTD/svg11.dtd">
<svg version="1.1" xmlns="http://www.w3.org/2000/svg" xmlns:xlink="http://www.w3.org/1999/xlink" viewBox="0 0 26.9883 26.6191">
 <g>
  <rect height="26.6191" opacity="0" width="26.9883" x="0" y="0"/>
  <path d="M13.3164 26.6055C13.8223 26.6055 14.2324 26.2363 14.3145 25.6895C15.4902 16.584 16.7754 15.2852 25.6758 14.3008C26.2363 14.2461 26.6328 13.8359 26.6328 13.3027C26.6328 12.7695 26.2363 12.3594 25.6758 12.291C16.7754 11.3203 15.4902 10.0215 14.3145 0.902344C14.2324 0.355469 13.8223 0 13.3164 0C12.8105 0 12.4004 0.355469 12.3184 0.902344C11.1426 10.0215 9.85742 11.3203 0.957031 12.291C0.396484 12.3594 0 12.7695 0 13.3027C0 13.8359 0.396484 14.2461 0.957031 14.3008C9.85742 15.4766 11.0605 16.5977 12.3184 25.6895C12.4004 26.2363 12.8105 26.6055 13.3164 26.6055Z" fill="#ffd60a"/>
 </g>
</svg>
