<?xml version="1.0" encoding="UTF-8"?>
<!--Generator: Apple Native CoreSVG 326-->
<!DOCTYPE svg
PUBLIC "-//W3C//DTD SVG 1.1//EN"
       "http://www.w3.org/Graphics/SVG/1.1/DTD/svg11.dtd">
<svg version="1.1" xmlns="http://www.w3.org/2000/svg" xmlns:xlink="http://www.w3.org/1999/xlink" viewBox="0 0 27.0703 26.9746">
 <g>
  <rect height="26.9746" opacity="0" width="27.0703" x="0" y="0"/>
  <path d="M0 10.9102C0 16.9258 4.89453 21.8203 10.9102 21.8203C13.2891 21.8203 15.4629 21.0547 17.2539 19.7695L23.9805 26.5098C24.2949 26.8242 24.7051 26.9746 25.1426 26.9746C26.0723 26.9746 26.7148 26.2773 26.7148 25.3613C26.7148 24.9238 26.5508 24.5273 26.2637 24.2402L19.5781 17.5137C20.9863 15.6816 21.8203 13.3984 21.8203 10.9102C21.8203 4.89453 16.9258 0 10.9102 0C4.89453 0 0 4.89453 0 10.9102ZM2.33789 10.9102C2.33789 6.17969 6.17969 2.33789 10.9102 2.33789C15.6406 2.33789 19.4824 6.17969 19.4824 10.9102C19.4824 15.6406 15.6406 19.4824 10.9102 19.4824C6.17969 19.4824 2.33789 15.6406 2.33789 10.9102ZM10.9238 16.6523C11.1426 16.6523 11.3203 16.4746 11.375 16.2559C12.0586 12.5508 12.4004 11.8672 16.2422 11.3477C16.4883 11.3203 16.6523 11.1426 16.6523 10.9102C16.6523 10.6777 16.4883 10.5 16.2422 10.4453C12.4141 9.92578 11.9219 9.21484 11.375 5.57812C11.334 5.33203 11.1426 5.16797 10.9238 5.16797C10.6914 5.16797 10.5137 5.31836 10.459 5.56445C9.76172 9.2832 9.43359 9.92578 5.5918 10.4453C5.3457 10.5 5.18164 10.6777 5.18164 10.9102C5.18164 11.1426 5.3457 11.3066 5.5918 11.3477C9.43359 11.7305 9.92578 12.5508 10.459 16.2422C10.5 16.4746 10.6777 16.6523 10.9238 16.6523Z" fill="white" fill-opacity="0.85"/>
 </g>
</svg>
