<svg version="1.1" xmlns="http://www.w3.org/2000/svg" xmlns:xlink="http://www.w3.org/1999/xlink" viewBox="0 0 33.4004 34.6309">
 <g>
  
  <path d="M25.1506 3.91016L7.89434 3.91016C7.95046 2.79901 8.65169 2.16016 9.81641 2.16016L23.2285 2.16016C24.3932 2.16016 25.0945 2.79901 25.1506 3.91016Z" style="fill:var(--color-0,hsl(0 0 0/0.85))"></path>
  <path d="M27.9473 7.81549C27.5075 7.7456 27.0411 7.71094 26.5508 7.71094L6.49414 7.71094C6.00391 7.71094 5.53762 7.74558 5.09803 7.81545C5.24689 6.50197 6.13568 5.76953 7.58789 5.76953L25.4707 5.76953C26.9229 5.76953 27.8005 6.50199 27.9473 7.81549Z" style="fill:var(--color-1,hsl(0 0 0/0.85))"></path>
  <path d="M30.8438 14.1504L30.8438 28.1914C30.8438 31.0078 29.4082 32.4297 26.5508 32.4297L6.49414 32.4297C3.63672 32.4297 2.20117 31.0078 2.20117 28.1914L2.20117 14.1504C2.20117 11.334 3.63672 9.91211 6.49414 9.91211L26.5508 9.91211C29.4082 9.91211 30.8438 11.334 30.8438 14.1504ZM11.0059 23.1055C10.5957 25.1016 10.7734 25.1973 8.53125 25.5664C8.32617 25.5938 8.20312 25.7578 8.20312 25.9492C8.20312 26.168 8.32617 26.3047 8.55859 26.3457C10.7734 26.6738 10.5957 26.7695 11.0059 28.793C11.0742 28.998 11.1973 29.1484 11.4023 29.1484C11.6074 29.1484 11.7441 29.0117 11.7988 28.834C12.1816 26.7695 12.0449 26.6738 14.2871 26.3457C14.4785 26.3047 14.6152 26.1406 14.6152 25.9492C14.6152 25.7578 14.4785 25.5938 14.2871 25.5664C12.0449 25.1973 12.1816 25.1016 11.7988 23.1055C11.7441 22.9004 11.6211 22.7363 11.4023 22.7363C11.2109 22.7363 11.0742 22.8867 11.0059 23.1055ZM16.4199 14.3828C15.6543 18.5391 15.2715 19.291 10.9648 19.8652C10.6777 19.9199 10.5 20.125 10.5 20.3848C10.5 20.6582 10.6777 20.8633 10.9648 20.9043C15.2852 21.3418 15.8184 22.2578 16.4199 26.373C16.4609 26.6602 16.666 26.8379 16.9531 26.8379C17.2129 26.8379 17.4043 26.6602 17.459 26.3867C18.2383 22.2578 18.6211 21.4785 22.9277 20.9043C23.2012 20.8633 23.4062 20.6582 23.4062 20.3848C23.4062 20.125 23.2012 19.9199 22.9277 19.8652C18.6348 19.291 18.0742 18.4707 17.459 14.3965C17.418 14.123 17.2129 13.9316 16.9531 13.9316C16.6934 13.9316 16.4883 14.1094 16.4199 14.3828Z" style="fill:var(--color-2,hsl(0 0 0/0.85))"></path>
 </g>
</svg>