<?xml version="1.0" encoding="UTF-8"?>
<!--Generator: Apple Native CoreSVG 326-->
<!DOCTYPE svg
PUBLIC "-//W3C//DTD SVG 1.1//EN"
       "http://www.w3.org/Graphics/SVG/1.1/DTD/svg11.dtd">
<svg version="1.1" xmlns="http://www.w3.org/2000/svg" xmlns:xlink="http://www.w3.org/1999/xlink" viewBox="0 0 29.2852 28.6699">
 <g>
  <rect height="28.6699" opacity="0" width="29.2852" x="0" y="0"/>
  <path d="M22.2988 4.26562L22.2988 6.35742L20.0977 6.35742L20.0977 4.38867C20.0977 2.9668 19.332 2.22852 17.9785 2.22852L4.32031 2.22852C2.95312 2.22852 2.20117 2.9668 2.20117 4.38867L2.20117 17.9785C2.20117 19.4004 2.95312 20.1387 4.32031 20.1387L6.63086 20.1387L6.63086 22.3398L4.29297 22.3398C1.42188 22.3398 0 20.918 0 18.1016L0 4.26562C0 1.44922 1.42188 0.0273438 4.29297 0.0273438L18.0195 0.0273438C20.8633 0.0273438 22.2988 1.44922 22.2988 4.26562Z" fill="white" fill-opacity="0.85"/>
  <path d="M28.9297 10.5957L28.9297 24.4316C28.9297 27.248 27.4941 28.6699 24.6504 28.6699L10.9238 28.6699C8.05273 28.6699 6.63086 27.248 6.63086 24.4316L6.63086 10.5957C6.63086 7.76562 8.05273 6.35742 10.9238 6.35742L24.6504 6.35742C27.4941 6.35742 28.9297 7.7793 28.9297 10.5957ZM12.5371 19.4414C12.1406 21.4375 12.3184 21.5332 10.0762 21.916C9.87109 21.9434 9.73438 22.0938 9.73438 22.2988C9.73438 22.5176 9.87109 22.6406 10.1035 22.6816C12.3184 23.0234 12.1406 23.1055 12.5371 25.1289C12.6055 25.3477 12.7285 25.4844 12.9336 25.4844C13.1387 25.4844 13.2891 25.3613 13.3438 25.1699C13.7129 23.1055 13.5762 23.0234 15.8184 22.6816C16.0098 22.6406 16.1602 22.4902 16.1602 22.2988C16.1602 22.0938 16.0098 21.9434 15.8184 21.916C13.5898 21.5332 13.7129 21.4375 13.3438 19.4414C13.2891 19.2363 13.1523 19.0859 12.9336 19.0859C12.7422 19.0859 12.6055 19.2227 12.5371 19.4414ZM17.9512 10.7324C17.1855 14.8887 16.8027 15.627 12.5098 16.2148C12.2227 16.2559 12.0312 16.4609 12.0312 16.7207C12.0312 16.9941 12.2227 17.1992 12.5098 17.2402C16.8164 17.6777 17.3633 18.5938 17.9512 22.7227C18.0059 22.9961 18.1973 23.1875 18.498 23.1875C18.7441 23.1875 18.9355 22.9961 19.0039 22.7363C19.7832 18.5938 20.166 17.8145 24.4727 17.2402C24.7461 17.2129 24.9375 16.9941 24.9375 16.7207C24.9375 16.4609 24.7461 16.2559 24.4727 16.2148C20.1797 15.627 19.6055 14.8066 19.0039 10.7461C18.9492 10.4727 18.7441 10.2676 18.498 10.2676C18.2246 10.2676 18.0332 10.459 17.9512 10.7324Z" fill="white" fill-opacity="0.85"/>
 </g>
</svg>
