<svg version="1.1" xmlns="http://www.w3.org/2000/svg" xmlns:xlink="http://www.w3.org/1999/xlink" viewBox="0 0 28.2461 27.9043">
 <g>
  
  <path d="M13.9453 27.9043C21.6426 27.9043 27.8906 21.6562 27.8906 13.959C27.8906 6.27539 21.6426 0.0136719 13.9453 0.0136719C6.26172 0.0136719 0 6.27539 0 13.959C0 21.6562 6.26172 27.9043 13.9453 27.9043Z" style="fill:var(--color-0,#ff2d55)"></path>
  <path d="M19.1816 18.9902C18.8125 18.7715 18.7715 18.3066 19.0312 17.9375C19.7969 16.9121 20.2207 15.4355 20.2207 13.959C20.2207 12.4414 19.7969 11.0195 19.0312 9.93945C18.7852 9.58398 18.8398 9.14648 19.1816 8.90039C19.5234 8.6543 19.9473 8.73633 20.1934 9.0918C21.1777 10.459 21.6836 12.1816 21.6836 13.959C21.6836 15.75 21.1367 17.4727 20.1934 18.8125C19.9609 19.1406 19.5508 19.2227 19.1816 18.9902Z" style="fill:var(--color-1,white)"></path>
  <path d="M16.6934 17.1309C16.3242 16.8574 16.2559 16.4336 16.5156 16.0508C16.8984 15.5176 17.1309 14.7383 17.1309 13.959C17.1309 13.125 16.8984 12.3457 16.5293 11.8672C16.2559 11.4844 16.3379 11.0469 16.6934 10.7734C16.9941 10.5273 17.459 10.6367 17.7051 10.9512C18.2656 11.7305 18.6074 12.8379 18.6074 13.959C18.6074 15.1074 18.2793 16.2012 17.7051 16.9531C17.4453 17.2812 16.9941 17.377 16.6934 17.1309Z" style="fill:var(--color-2,white)"></path>
  <path d="M13.4941 20.3164C13.1523 20.3164 12.8652 20.1797 12.5371 19.8652L9.47461 16.9395C9.43359 16.8984 9.35156 16.8848 9.2832 16.8848L7.21875 16.8848C6.26172 16.8848 5.71484 16.3379 5.71484 15.3125L5.71484 12.6191C5.71484 11.5938 6.26172 11.0469 7.21875 11.0469L9.2832 11.0469C9.35156 11.0469 9.43359 11.0332 9.47461 10.9922L12.5371 8.09375C12.9062 7.75195 13.1387 7.60156 13.4668 7.60156C13.959 7.60156 14.3008 7.98438 14.3008 8.44922L14.3008 19.5098C14.3008 19.9609 13.959 20.3164 13.4941 20.3164Z" style="fill:var(--color-3,white)"></path>
 </g>
</svg>