<svg version="1.1" xmlns="http://www.w3.org/2000/svg" xmlns:xlink="http://www.w3.org/1999/xlink" viewBox="0 0 28.9536 30.796">
 <g>
  
  <path d="M6.73415 12.3484C6.71395 12.4301 6.70435 12.5238 6.70435 12.6294L6.70435 18.2212C6.70435 18.7271 6.93678 18.9595 7.45631 18.9595L11.8313 18.9595C12.1868 18.9595 12.4465 19.0415 12.761 19.315L18.5989 24.5786C18.6672 24.647 18.7493 24.688 18.8176 24.688C18.8878 24.688 18.9506 24.6439 18.979 24.5718L20.9943 26.5836C20.7607 27.1184 20.2344 27.4634 19.5833 27.4634C18.927 27.4634 18.4212 27.19 17.7649 26.6021L11.5989 21.0786C11.5032 20.9966 11.3938 20.9556 11.2708 20.9556L7.3606 20.9556C5.50123 20.9556 4.57154 20.0259 4.57154 18.0435L4.57154 12.8072C4.57154 11.915 4.75982 11.2333 5.13814 10.7552ZM21.1282 4.95951L21.1282 19.2234L18.9954 17.0918L18.9954 6.31302C18.9954 6.18997 18.9133 6.12162 18.8176 6.12162C18.7356 6.12162 18.6536 6.16263 18.5852 6.23099L13.1074 11.2073L11.63 9.73075L17.7649 4.28958C18.4895 3.64701 18.8997 3.34622 19.5559 3.34622C20.4719 3.34622 21.1282 4.07083 21.1282 4.95951Z" style="fill:var(--color-0,hsl(0 0 0/0.85))"></path>
  <path d="M25.5715 28.899C25.9817 29.3091 26.6516 29.3091 27.0618 28.899C27.4583 28.4751 27.4719 27.8189 27.0618 27.4087L3.64185 4.00247C3.2317 3.59232 2.5481 3.59232 2.13795 4.00247C1.74146 4.39896 1.74146 5.09622 2.13795 5.49271Z" style="fill:var(--color-1,hsl(0 0 0/0.85))"></path>
 </g>
</svg>