<?xml version="1.0" encoding="UTF-8"?>
<!--Generator: Apple Native CoreSVG 326-->
<!DOCTYPE svg
PUBLIC "-//W3C//DTD SVG 1.1//EN"
       "http://www.w3.org/Graphics/SVG/1.1/DTD/svg11.dtd">
<svg version="1.1" xmlns="http://www.w3.org/2000/svg" xmlns:xlink="http://www.w3.org/1999/xlink" viewBox="0 0 25.5254 25.1699">
 <g>
  <rect height="25.1699" opacity="0" width="25.5254" x="0" y="0"/>
  <path d="M4.29297 25.1699L20.877 25.1699C23.748 25.1699 25.1699 23.7617 25.1699 20.9453L25.1699 4.23828C25.1699 1.42188 23.748 0 20.877 0L4.29297 0C1.43555 0 0 1.42188 0 4.23828L0 20.9453C0 23.7617 1.43555 25.1699 4.29297 25.1699Z" fill="white" fill-opacity="0.85"/>
  <path d="M15.2168 19.332C14.8477 19.332 14.5469 19.209 14.1914 18.8535L10.9512 15.7637C10.9102 15.7227 10.8008 15.6953 10.7324 15.6953L8.55859 15.6953C7.50586 15.6953 6.94531 15.1348 6.94531 14.0273L6.94531 11.1699C6.94531 10.0625 7.50586 9.50195 8.55859 9.50195L10.7324 9.50195C10.8008 9.50195 10.9102 9.47461 10.9512 9.43359L14.1914 6.35742C14.6016 5.98828 14.834 5.83789 15.2031 5.83789C15.709 5.83789 16.0645 6.24805 16.0645 6.74023L16.0645 18.4844C16.0645 18.9902 15.709 19.332 15.2168 19.332Z" fill="white"/>
 </g>
</svg>
