<?xml version="1.0" encoding="UTF-8"?>
<!--Generator: Apple Native CoreSVG 326-->
<!DOCTYPE svg
PUBLIC "-//W3C//DTD SVG 1.1//EN"
       "http://www.w3.org/Graphics/SVG/1.1/DTD/svg11.dtd">
<svg version="1.1" xmlns="http://www.w3.org/2000/svg" xmlns:xlink="http://www.w3.org/1999/xlink" viewBox="0 0 28.2461 27.9043">
 <g>
  <rect height="27.9043" opacity="0" width="28.2461" x="0" y="0"/>
  <path d="M13.9453 27.9043C21.6426 27.9043 27.8906 21.6562 27.8906 13.959C27.8906 6.27539 21.6426 0.0136719 13.9453 0.0136719C6.26172 0.0136719 0 6.27539 0 13.959C0 21.6562 6.26172 27.9043 13.9453 27.9043Z" fill="white" fill-opacity="0.85"/>
  <path d="M7.94336 7.04102L20.877 19.9746C21.123 20.2344 21.123 20.6172 20.877 20.877C20.6309 21.123 20.207 21.123 19.9746 20.877L7.02734 7.94336C6.79492 7.69727 6.78125 7.28711 7.02734 7.04102C7.28711 6.78125 7.69727 6.78125 7.94336 7.04102ZM17.418 19.7305L17.418 19.8652C17.418 20.3711 17.0488 20.7266 16.5566 20.7266C16.1875 20.7266 15.8867 20.5898 15.5449 20.248L12.3047 17.1445C12.2637 17.1035 12.1543 17.0898 12.0859 17.0898L9.91211 17.0898C8.8457 17.0898 8.29883 16.5156 8.29883 15.4082L8.29883 12.5645C8.29883 11.9099 8.48523 11.4465 8.854 11.1755ZM17.418 8.12109L17.418 15.1074L12.7264 10.4159L15.5449 7.75195C15.9414 7.36914 16.1738 7.23242 16.543 7.23242C17.0488 7.23242 17.418 7.62891 17.418 8.12109Z" fill="white"/>
 </g>
</svg>
