<?xml version="1.0" encoding="UTF-8"?>
<!--Generator: Apple Native CoreSVG 326-->
<!DOCTYPE svg
PUBLIC "-//W3C//DTD SVG 1.1//EN"
       "http://www.w3.org/Graphics/SVG/1.1/DTD/svg11.dtd">
<svg version="1.1" xmlns="http://www.w3.org/2000/svg" xmlns:xlink="http://www.w3.org/1999/xlink" viewBox="0 0 30.4883 30.2012">
 <g>
  <rect height="30.2012" opacity="0" width="30.4883" x="0" y="0"/>
  <path d="M8.12109 30.2012C8.6543 30.2012 9.05078 29.9277 9.69336 29.3262L14.6289 24.8145L23.8711 24.8145C27.9453 24.8145 30.1328 22.5723 30.1328 18.5664L30.1328 8.09375C30.1328 4.08789 27.9453 1.83203 23.8711 1.83203L6.26172 1.83203C2.1875 1.83203 0 4.07422 0 8.09375L0 18.5664C0 22.5859 2.1875 24.8145 6.26172 24.8145L6.9043 24.8145L6.9043 28.793C6.9043 29.6406 7.3418 30.2012 8.12109 30.2012Z" fill="white" fill-opacity="0.85"/>
  <path d="M20.3164 18.3477C19.9473 18.1289 19.8926 17.6641 20.1523 17.2949C20.9316 16.2695 21.3555 14.793 21.3555 13.3027C21.3555 11.7988 20.9316 10.377 20.166 9.29688C19.9062 8.94141 19.9746 8.50391 20.3164 8.24414C20.6445 8.01172 21.082 8.09375 21.3281 8.44922C22.2988 9.81641 22.8184 11.5391 22.8184 13.3027C22.8184 15.1074 22.2715 16.8301 21.3145 18.1699C21.0957 18.498 20.6719 18.5801 20.3164 18.3477Z" fill="white"/>
  <path d="M17.8145 16.4883C17.459 16.2148 17.3906 15.791 17.6504 15.4082C18.0195 14.875 18.252 14.0957 18.252 13.3027C18.252 12.4824 18.0332 11.7031 17.6504 11.2109C17.3906 10.8418 17.459 10.4043 17.8145 10.1309C18.1289 9.88477 18.5801 9.98047 18.8262 10.3086C19.3867 11.0879 19.7285 12.1953 19.7285 13.3027C19.7285 14.4648 19.4004 15.5586 18.8262 16.3105C18.5664 16.625 18.1289 16.7344 17.8145 16.4883Z" fill="white"/>
  <path d="M14.6289 19.6602C14.2734 19.6602 14 19.5371 13.6719 19.2227L10.6094 16.2969C10.5547 16.2559 10.4863 16.2422 10.418 16.2422L8.35352 16.2422C7.38281 16.2422 6.83594 15.6953 6.83594 14.6699L6.83594 11.9766C6.83594 10.9512 7.38281 10.4043 8.35352 10.4043L10.418 10.4043C10.4863 10.4043 10.5547 10.3906 10.6094 10.3496L13.6719 7.45117C14.041 7.10938 14.2598 6.95898 14.6016 6.95898C15.0801 6.95898 15.4355 7.3418 15.4355 7.80664L15.4355 18.8535C15.4355 19.3184 15.0801 19.6602 14.6289 19.6602Z" fill="white"/>
 </g>
</svg>
