<svg version="1.1" xmlns="http://www.w3.org/2000/svg" xmlns:xlink="http://www.w3.org/1999/xlink" viewBox="0 0 28.9536 30.796">
 <g>
  
  <path d="M20.7942 26.3838C20.6159 27.0306 20.0503 27.4634 19.3098 27.4634C18.6809 27.4634 18.1477 27.2036 17.5188 26.6021L11.6946 21.0786C11.5989 20.9966 11.4895 20.9556 11.3528 20.9556L7.42896 20.9556C5.58326 20.9556 4.57154 19.9439 4.57154 17.9615L4.57154 12.8755C4.57154 11.9858 4.77817 11.2887 5.17696 10.794ZM20.8547 4.95951L20.8547 18.9501L11.6739 9.77465C11.681 9.76973 11.6878 9.76413 11.6946 9.75833L17.5188 4.28958C18.2161 3.61966 18.6536 3.34622 19.2825 3.34622C20.2122 3.34622 20.8547 4.07083 20.8547 4.95951Z" style="fill:var(--color-0,hsl(0 0 0/0.85))"></path>
  <path d="M25.5715 28.899C25.9817 29.3091 26.6516 29.3091 27.0618 28.899C27.4583 28.4751 27.4719 27.8189 27.0618 27.4087L3.64185 4.00247C3.2317 3.59232 2.5481 3.59232 2.13795 4.00247C1.74146 4.39896 1.74146 5.09622 2.13795 5.49271Z" style="fill:var(--color-1,hsl(0 0 0/0.85))"></path>
 </g>
</svg>