<svg version="1.1" xmlns="http://www.w3.org/2000/svg" xmlns:xlink="http://www.w3.org/1999/xlink" viewBox="0 0 30.4883 30.0371">
 <g>
  
  <path d="M8.4082 30.0371C9.07812 30.0371 9.54297 29.6816 10.377 28.9434L15.0938 24.7461L23.8711 24.7461C27.9453 24.7461 30.1328 22.4902 30.1328 18.4844L30.1328 8.01172C30.1328 4.00586 27.9453 1.75 23.8711 1.75L6.26172 1.75C2.1875 1.75 0 3.99219 0 8.01172L0 18.4844C0 22.5039 2.1875 24.7461 6.26172 24.7461L6.91797 24.7461L6.91797 28.3008C6.91797 29.3535 7.45117 30.0371 8.4082 30.0371ZM8.96875 27.5352L8.96875 23.5703C8.96875 22.832 8.68164 22.5449 7.94336 22.5449L6.26172 22.5449C3.5 22.5449 2.20117 21.1367 2.20117 18.4707L2.20117 8.01172C2.20117 5.3457 3.5 3.95117 6.26172 3.95117L23.8711 3.95117C26.6191 3.95117 27.9316 5.3457 27.9316 8.01172L27.9316 18.4707C27.9316 21.1367 26.6191 22.5449 23.8711 22.5449L15.0117 22.5449C14.2461 22.5449 13.8633 22.6543 13.3438 23.1875Z" style="fill:var(--color-0,hsl(0 0 0/0.85))"></path>
  <path d="M20.166 18.1289C20.5078 18.3477 20.918 18.2793 21.1367 17.9512C22.0664 16.6523 22.5859 14.9844 22.5859 13.2344C22.5859 11.5254 22.0801 9.85742 21.1504 8.53125C20.9043 8.18945 20.4805 8.10742 20.166 8.32617C19.8379 8.58594 19.7695 8.99609 20.0293 9.35156C20.7676 10.3906 21.1777 11.7715 21.1777 13.2344C21.1777 14.6836 20.7676 16.1191 20.0156 17.1172C19.7559 17.4727 19.8105 17.9102 20.166 18.1289Z" style="fill:var(--color-1,hsl(0 0 0/0.85))"></path>
  <path d="M17.7324 16.3242C18.0469 16.5566 18.4707 16.4609 18.7168 16.1465C19.2773 15.4219 19.5918 14.3555 19.5918 13.2344C19.5918 12.1543 19.2637 11.0879 18.7168 10.3359C18.4844 10.0078 18.0469 9.92578 17.7324 10.1582C17.3906 10.418 17.3359 10.8418 17.582 11.1973C17.9512 11.6758 18.1699 12.4414 18.1699 13.2344C18.1699 14 17.9375 14.7656 17.582 15.2852C17.3359 15.6543 17.3906 16.0645 17.7324 16.3242Z" style="fill:var(--color-2,hsl(0 0 0/0.85))"></path>
  <path d="M14.6426 19.4141C15.0801 19.4141 15.4219 19.0723 15.4219 18.6211L15.4219 7.90234C15.4219 7.45117 15.0801 7.08203 14.6289 7.08203C14.2871 7.08203 14.082 7.23242 13.7266 7.56055L10.7461 10.377C10.6914 10.418 10.6367 10.4316 10.5684 10.4316L8.55859 10.4316C7.61523 10.4316 7.0957 10.9512 7.0957 11.9492L7.0957 14.5605C7.0957 15.5586 7.61523 16.0781 8.55859 16.0781L10.5684 16.0781C10.6367 16.0781 10.6914 16.0918 10.7461 16.1328L13.7266 18.9766C14.041 19.2773 14.3008 19.4141 14.6426 19.4141Z" style="fill:var(--color-3,hsl(0 0 0/0.85))"></path>
 </g>
</svg>