<svg version="1.1" xmlns="http://www.w3.org/2000/svg" xmlns:xlink="http://www.w3.org/1999/xlink" viewBox="0 0 24.6641 24.1309">
 <g>
  
  <path d="M21.1641 17.8965C21.6152 18.2109 22.2578 18.1152 22.627 17.582C23.6797 16.2012 24.3086 14.1641 24.3086 12.0723C24.3086 9.98047 23.6797 7.95703 22.627 6.5625C22.2578 6.0293 21.6152 5.91992 21.1641 6.24805C20.6035 6.63086 20.5215 7.31445 20.9453 7.875C21.7383 8.96875 22.1895 10.4863 22.1895 12.0723C22.1895 13.6582 21.7246 15.1621 20.9453 16.2695C20.5352 16.8438 20.6035 17.5 21.1641 17.8965Z" style="fill:var(--color-0,hsl(0 0 0/0.85))"></path>
  <path d="M2.77539 17.623L6.69922 17.623C6.82227 17.623 6.93164 17.6641 7.02734 17.7461L13.1934 23.2695C13.8359 23.8574 14.3555 24.1309 14.998 24.1309C15.8867 24.1309 16.543 23.4883 16.543 22.5996L16.543 1.62695C16.543 0.738281 15.8867 0.0136719 14.9707 0.0136719C14.3281 0.0136719 13.9043 0.314453 13.1934 0.957031L7.02734 6.42578C6.93164 6.50781 6.82227 6.54883 6.69922 6.54883L2.77539 6.54883C0.916016 6.54883 0 7.49219 0 9.47461L0 14.7109C0 16.6934 0.929688 17.623 2.77539 17.623ZM2.87109 15.627C2.36523 15.627 2.13281 15.3945 2.13281 14.8887L2.13281 9.29688C2.13281 8.77734 2.36523 8.54492 2.87109 8.54492L7.24609 8.54492C7.60156 8.54492 7.875 8.47656 8.18945 8.18945L14.0137 2.89844C14.082 2.83008 14.1504 2.78906 14.2461 2.78906C14.3418 2.78906 14.4238 2.85742 14.4238 2.98047L14.4238 21.1504C14.4238 21.2734 14.3418 21.3555 14.2461 21.3555C14.1777 21.3555 14.0957 21.3145 14.0137 21.2461L8.18945 15.9824C7.875 15.709 7.60156 15.627 7.24609 15.627Z" style="fill:var(--color-1,hsl(0 0 0/0.85))"></path>
 </g>
</svg>