<svg version="1.1" xmlns="http://www.w3.org/2000/svg" xmlns:xlink="http://www.w3.org/1999/xlink" viewBox="0 0 30.6934 30.3652">
 <g>
  
  <path d="M10.7598 4.0332C10.4727 4.32031 10.3633 4.62109 10.3633 4.9082C10.3633 5.42773 10.7871 5.85156 11.4297 5.85156L18.9082 5.85156C19.5508 5.85156 19.9746 5.42773 19.9746 4.9082C19.9746 4.62109 19.8516 4.32031 19.5781 4.0332L16.1191 0.4375C15.832 0.136719 15.5039 0 15.1621 0C14.8477 0 14.5059 0.136719 14.2188 0.4375ZM10.7598 26.3184L14.2188 29.9141C14.5059 30.2148 14.8477 30.3379 15.1621 30.3379C15.5039 30.3379 15.832 30.2148 16.1191 29.9141L19.5781 26.3184C19.8516 26.0312 19.9746 25.7305 19.9746 25.4434C19.9746 24.9238 19.5508 24.5 18.9082 24.5L11.4297 24.5C10.7871 24.5 10.3633 24.9238 10.3633 25.4434C10.3633 25.7305 10.4727 26.0312 10.7598 26.3184ZM26.3047 10.7871C26.0176 10.5 25.7168 10.3906 25.4297 10.3906C24.9238 10.3906 24.4863 10.8145 24.4863 11.4434L24.4863 18.9355C24.4863 19.5781 24.9238 19.9883 25.4297 19.9883C25.7168 19.9883 26.0176 19.8789 26.3047 19.5918L29.9141 16.1328C30.2012 15.8594 30.3379 15.5176 30.3379 15.1895C30.3379 14.8613 30.2012 14.5195 29.9141 14.2461ZM4.0332 10.7871L0.423828 14.2461C0.136719 14.5195 0 14.8613 0 15.1895C0 15.5176 0.136719 15.8594 0.423828 16.1328L4.0332 19.5918C4.30664 19.8789 4.60742 19.9883 4.89453 19.9883C5.41406 19.9883 5.83789 19.5781 5.83789 18.9355L5.83789 11.4434C5.83789 10.8145 5.41406 10.3906 4.89453 10.3906C4.60742 10.3906 4.30664 10.5 4.0332 10.7871Z" style="fill:var(--color-0,hsl(0 0 0/0.85))"></path>
  <path d="M16.5703 21.2051C17.0078 21.2051 17.3359 20.877 17.3359 20.4395L17.3359 9.9668C17.3359 9.51562 17.0078 9.14648 16.5566 9.14648C16.2285 9.14648 16.0098 9.29688 15.6543 9.625L12.7559 12.373C12.7012 12.4141 12.6465 12.4141 12.5918 12.4141L10.623 12.4141C9.70703 12.4141 9.20117 12.9199 9.20117 13.918L9.20117 16.4609C9.20117 17.4453 9.70703 17.9512 10.623 17.9512L12.5918 17.9512C12.6465 17.9512 12.7012 17.9648 12.7559 18.0059L15.6543 20.7812C15.9688 21.0684 16.2422 21.2051 16.5703 21.2051Z" style="fill:var(--color-1,hsl(0 0 0/0.85))"></path>
  <path d="M19.5918 18.1973C19.8926 18.4297 20.3164 18.3477 20.5762 18.0195C21.123 17.3086 21.4238 16.2559 21.4238 15.1758C21.4238 14.1094 21.1094 13.0566 20.5762 12.332C20.3301 12.0039 19.8926 11.9219 19.5918 12.1406C19.2363 12.4004 19.168 12.8242 19.4414 13.207C19.7832 13.6719 20.002 14.4102 20.002 15.1758C20.002 15.9141 19.7832 16.6523 19.4414 17.1445C19.168 17.5273 19.2363 17.9512 19.5918 18.1973Z" style="fill:var(--color-2,hsl(0 0 0/0.85))"></path>
 </g>
</svg>