<svg version="1.1" xmlns="http://www.w3.org/2000/svg" xmlns:xlink="http://www.w3.org/1999/xlink" viewBox="0 0 32.9492 26.291">
 <g>
  
  <path d="M14.916 1.47656L7.875 0.710938C6.63086 0.574219 5.75586 1.35352 5.75586 2.5293C5.75586 3.71875 6.63086 4.51172 7.875 4.375L14.916 3.5957ZM16.1602 5.07227C17.5684 5.07227 18.7031 3.9375 18.7031 2.5293C18.7031 1.13477 17.5684 0 16.1602 0C14.7656 0 13.6309 1.13477 13.6309 2.5293C13.6309 3.9375 14.7656 5.07227 16.1602 5.07227ZM17.4043 1.47656L17.4043 3.5957L24.459 4.375C25.6895 4.51172 26.5645 3.71875 26.5645 2.5293C26.5645 1.35352 25.6895 0.574219 24.459 0.710938ZM14.957 4.08789L14.957 7.32812L17.377 7.32812L17.377 4.08789ZM12.3457 9.95312L19.9473 9.95312L19.9473 8.16211C19.9473 7.08203 19.2773 6.41211 18.1973 6.41211L14.082 6.41211C13.0156 6.41211 12.3457 7.08203 12.3457 8.16211ZM16.1465 23.584C18.4297 23.584 19.8105 22.6543 21.3418 21.2461C21.957 20.6309 22.7637 20.3164 23.4746 20.3164C24.8281 20.3164 25.9082 21.3145 25.9082 23.1191L25.9082 25.0195C25.9082 25.5938 26.168 25.8535 26.7422 25.8535L31.7461 25.8535C32.3203 25.8535 32.5938 25.5938 32.5938 25.0195L32.5938 23.748C32.5938 15.9688 28 13.3574 23.5703 13.3574L22.9824 13.3574C22.5996 13.3574 22.3398 13.1387 22.2305 12.8379L21.3965 10.582C21.1504 9.89844 20.918 9.7207 20.3164 9.7207L11.9629 9.7207C11.3613 9.7207 11.1426 9.89844 10.8828 10.582L10.0625 12.8379C9.93945 13.1387 9.67969 13.3574 9.31055 13.3574L1.27148 13.3574L1.27148 20.2344L8.8457 20.2344C9.69336 20.2344 10.1172 20.3438 10.7188 21.041C12.0586 22.5039 13.8496 23.584 16.1465 23.584ZM1.09375 23.6797C1.70898 23.6797 2.20117 23.1738 2.20117 22.5723L2.20117 11.4023C2.20117 10.8008 1.70898 10.2949 1.09375 10.2949C0.492188 10.2949 0 10.8008 0 11.4023L0 22.5723C0 23.1738 0.492188 23.6797 1.09375 23.6797Z" style="fill:var(--color-0,hsl(0 0 0/0.85))"></path>
 </g>
</svg>