<?xml version="1.0" encoding="UTF-8"?>
<!--Generator: Apple Native CoreSVG 326-->
<!DOCTYPE svg
PUBLIC "-//W3C//DTD SVG 1.1//EN"
       "http://www.w3.org/Graphics/SVG/1.1/DTD/svg11.dtd">
<svg version="1.1" xmlns="http://www.w3.org/2000/svg" xmlns:xlink="http://www.w3.org/1999/xlink" viewBox="0 0 33.3594 26.291">
 <g>
  <rect height="26.291" opacity="0" width="33.3594" x="0" y="0"/>
  <path d="M14.916 1.47656L7.875 0.697266C6.63086 0.560547 5.75586 1.35352 5.75586 2.5293C5.75586 3.71875 6.63086 4.51172 7.875 4.36133L14.916 3.5957ZM16.1602 5.05859C17.5684 5.05859 18.7031 3.9375 18.7031 2.5293C18.7031 1.13477 17.5684 0 16.1602 0C14.7656 0 13.6309 1.13477 13.6309 2.5293C13.6309 3.9375 14.7656 5.05859 16.1602 5.05859ZM17.4043 1.47656L17.4043 3.5957L24.459 4.36133C25.6895 4.51172 26.5645 3.71875 26.5645 2.5293C26.5645 1.35352 25.6895 0.560547 24.459 0.697266ZM14.957 4.08789L14.957 7.31445L17.377 7.31445L17.377 4.08789ZM18.375 10.2129L20.2344 10.2129L20.2344 8.16211C20.2344 6.97266 19.4004 6.13867 18.2246 6.13867L14.0684 6.13867C12.8789 6.13867 12.0449 6.97266 12.0449 8.16211L12.0449 10.2129L13.9043 10.2129L13.9043 8.36719C13.9043 7.98438 14.1777 7.72461 14.5469 7.72461L17.7461 7.72461C18.1152 7.72461 18.375 7.98438 18.375 8.36719ZM16.1465 23.9805C18.5391 23.9805 20.0566 22.9688 21.6289 21.5195C22.1758 21 22.8594 20.7129 23.4746 20.7129C24.6094 20.7129 25.498 21.5469 25.498 23.1055L25.498 25.0195C25.498 25.7578 26.0039 26.2637 26.7422 26.2637L31.7461 26.2637C32.4844 26.2637 33.0039 25.7578 33.0039 25.0195L33.0039 23.7344C33.0039 15.709 28.082 12.9336 23.5703 12.9336L22.9824 12.9336C22.8047 12.9336 22.668 12.8379 22.6133 12.6875L21.7793 10.4453C21.4922 9.63867 21.0547 9.29688 20.3164 9.29688L11.9629 9.29688C11.2246 9.29688 10.8008 9.63867 10.5 10.4453L9.67969 12.6875C9.61133 12.8379 9.47461 12.9336 9.31055 12.9336L0.875 12.9336L0.875 14.9297L9.44727 14.9297C10.7461 14.9297 11.1836 14.3965 11.5254 13.4668L12.3184 11.293L19.9746 11.293L20.7676 13.4668C21.1094 14.3965 21.5332 14.9297 22.8457 14.9297L23.5566 14.9297C27.5625 14.9297 31.0215 17.1992 31.0215 23.7344L31.0215 24.2676L27.4941 24.2676L27.4941 23.1055C27.4941 19.5371 25.3477 18.6895 23.5977 18.6895C22.2305 18.6895 21.2051 19.2363 20.2344 20.166C19.3457 20.9727 18.2109 21.9844 16.1465 21.9844C14.0547 21.9844 12.8379 21.041 11.8672 19.9609C11.0195 18.9492 10.3496 18.6484 8.95508 18.6484L0.875 18.6484L0.875 20.6445L8.8457 20.6445C9.61133 20.6445 9.89844 20.7266 10.4043 21.3008C11.7988 22.832 13.7539 23.9805 16.1465 23.9805ZM1.09375 23.6797C1.70898 23.6797 2.20117 23.1738 2.20117 22.5723L2.20117 11.4023C2.20117 10.8008 1.70898 10.2949 1.09375 10.2949C0.492188 10.2949 0 10.8008 0 11.4023L0 22.5723C0 23.1738 0.492188 23.6797 1.09375 23.6797Z" fill="white" fill-opacity="0.85"/>
 </g>
</svg>
