<svg version="1.1" xmlns="http://www.w3.org/2000/svg" xmlns:xlink="http://www.w3.org/1999/xlink" viewBox="0 0 28.2461 27.9043">
 <g>
  
  <path d="M13.9453 27.8906C21.6426 27.8906 27.8906 21.6426 27.8906 13.9453C27.8906 6.24805 21.6426 0 13.9453 0C6.24805 0 0 6.24805 0 13.9453C0 21.6426 6.24805 27.8906 13.9453 27.8906ZM13.9453 25.5664C7.51953 25.5664 2.32422 20.3711 2.32422 13.9453C2.32422 7.51953 7.51953 2.32422 13.9453 2.32422C20.3711 2.32422 25.5664 7.51953 25.5664 13.9453C25.5664 20.3711 20.3711 25.5664 13.9453 25.5664Z" style="fill:var(--color-0,hsl(0 0 0/0.85))"></path>
  <path d="M5.45508 16.0918L6.97266 16.0918C7.45117 16.0918 7.68359 15.8457 7.68359 15.3809L7.68359 12.5371C7.68359 12.0586 7.45117 11.8262 6.97266 11.8262L5.45508 11.8262ZM7.80664 19.7148L13.4395 19.7148L13.4395 17.0215C11.9492 16.7754 10.8145 15.5039 10.8145 13.9453C10.8145 12.4004 11.9492 11.1016 13.4395 10.8691L13.4395 8.17578L7.80664 8.17578C6.28906 8.17578 5.45508 9.00977 5.45508 10.541L5.45508 10.8555L6.97266 10.8555C8.05273 10.8555 8.64062 11.457 8.64062 12.5371L8.64062 15.3809C8.64062 16.4473 8.05273 17.0488 6.97266 17.0488L5.45508 17.0488L5.45508 17.3496C5.45508 18.8945 6.28906 19.7148 7.80664 19.7148ZM13.4395 16.0781L13.4395 11.8125C12.4414 12.0176 11.7441 12.8926 11.7441 13.9453C11.7441 14.998 12.4414 15.8594 13.4395 16.0781ZM14.4375 16.0781C15.4219 15.8594 16.1328 14.998 16.1328 13.9453C16.1328 12.8926 15.4219 12.0176 14.4375 11.8125ZM14.4375 19.7148L20.0566 19.7148C21.5879 19.7148 22.4082 18.8945 22.4082 17.3496L22.4082 17.0488L20.8906 17.0488C19.8105 17.0488 19.2227 16.4473 19.2227 15.3809L19.2227 12.5371C19.2227 11.457 19.8105 10.8555 20.8906 10.8555L22.4082 10.8555L22.4082 10.541C22.4082 9.00977 21.5879 8.17578 20.0566 8.17578L14.4375 8.17578L14.4375 10.8691C15.9141 11.1016 17.0625 12.4004 17.0625 13.9453C17.0625 15.5039 15.9141 16.7754 14.4375 17.0215ZM22.4082 16.0918L22.4082 11.8262L20.8906 11.8262C20.4121 11.8262 20.1797 12.0586 20.1797 12.5371L20.1797 15.3809C20.1797 15.8457 20.4121 16.0918 20.8906 16.0918Z" style="fill:var(--color-1,hsl(0 0 0/0.85))"></path>
 </g>
</svg>