<svg version="1.1" xmlns="http://www.w3.org/2000/svg" xmlns:xlink="http://www.w3.org/1999/xlink" viewBox="0 0 24.8555 27.959">
 <g>
  
  <path d="M0.970703 12.3867C1.50391 12.3867 1.94141 11.9492 1.94141 11.416C1.94141 10.8828 1.50391 10.4453 0.970703 10.4453C0.4375 10.4453 0 10.8828 0 11.416C0 11.9492 0.4375 12.3867 0.970703 12.3867ZM3.82812 4.32031C4.36133 4.32031 4.79883 3.88281 4.79883 3.34961C4.79883 2.81641 4.36133 2.37891 3.82812 2.37891C3.29492 2.37891 2.85742 2.81641 2.85742 3.34961C2.85742 3.88281 3.29492 4.32031 3.82812 4.32031ZM12.25 1.94141C12.7832 1.94141 13.2207 1.50391 13.2207 0.970703C13.2207 0.4375 12.7832 0 12.25 0C11.7168 0 11.2793 0.4375 11.2793 0.970703C11.2793 1.50391 11.7168 1.94141 12.25 1.94141ZM20.6719 4.32031C21.2051 4.32031 21.6426 3.88281 21.6426 3.34961C21.6426 2.81641 21.2051 2.37891 20.6719 2.37891C20.1387 2.37891 19.7012 2.81641 19.7012 3.34961C19.7012 3.88281 20.1387 4.32031 20.6719 4.32031ZM23.5293 12.3867C24.0625 12.3867 24.5 11.9492 24.5 11.416C24.5 10.8828 24.0625 10.4453 23.5293 10.4453C22.9961 10.4453 22.5586 10.8828 22.5586 11.416C22.5586 11.9492 22.9961 12.3867 23.5293 12.3867Z" style="fill:var(--color-0,hsl(0 0 0/0.85))"></path>
  <path d="M5.04492 12.3867C5.57812 12.3867 6.01562 11.9492 6.01562 11.416C6.01562 10.8828 5.57812 10.4453 5.04492 10.4453C4.51172 10.4453 4.07422 10.8828 4.07422 11.416C4.07422 11.9492 4.51172 12.3867 5.04492 12.3867ZM6.71289 7.20508C7.24609 7.20508 7.68359 6.76758 7.68359 6.23438C7.68359 5.70117 7.24609 5.26367 6.71289 5.26367C6.17969 5.26367 5.74219 5.70117 5.74219 6.23438C5.74219 6.76758 6.17969 7.20508 6.71289 7.20508ZM12.25 6.0293C12.7832 6.0293 13.2207 5.5918 13.2207 5.05859C13.2207 4.52539 12.7832 4.08789 12.25 4.08789C11.7168 4.08789 11.2793 4.52539 11.2793 5.05859C11.2793 5.5918 11.7168 6.0293 12.25 6.0293ZM17.7871 7.20508C18.3203 7.20508 18.7578 6.76758 18.7578 6.23438C18.7578 5.70117 18.3203 5.26367 17.7871 5.26367C17.2402 5.26367 16.8164 5.70117 16.8164 6.23438C16.8164 6.76758 17.2402 7.20508 17.7871 7.20508ZM19.4414 12.3867C19.9746 12.3867 20.4121 11.9492 20.4121 11.416C20.4121 10.8828 19.9746 10.4453 19.4414 10.4453C18.9082 10.4453 18.4707 10.8828 18.4707 11.416C18.4707 11.9492 18.9082 12.3867 19.4414 12.3867Z" style="fill:var(--color-1,hsl(0 0 0/0.85))"></path>
  <path d="M9.65234 13.2754L14.834 13.2754C15.7363 13.2754 16.3789 12.6328 16.3789 11.7305L16.3789 10.7734C16.3789 9.29688 15.2988 8.25781 13.7402 8.25781L10.7461 8.25781C9.20117 8.25781 8.12109 9.29688 8.12109 10.7734L8.12109 11.7305C8.12109 12.6328 8.76367 13.2754 9.65234 13.2754ZM10.2402 11.5664C10.0352 11.5664 9.89844 11.4297 9.89844 11.2109L9.89844 10.7734C9.89844 10.2129 10.1992 9.9668 10.8145 9.9668L13.6719 9.9668C14.2871 9.9668 14.6016 10.2129 14.6016 10.7734L14.6016 11.2109C14.6016 11.4297 14.4648 11.5664 14.2461 11.5664ZM9.65234 19.8242L14.834 19.8242C15.7363 19.8242 16.3789 19.1953 16.3789 18.2793L16.3789 16.2422C16.3789 15.3262 15.7363 14.6973 14.834 14.6973L9.65234 14.6973C8.76367 14.6973 8.12109 15.3262 8.12109 16.2422L8.12109 18.2793C8.12109 19.1953 8.76367 19.8242 9.65234 19.8242ZM10.1719 18.1016C9.9668 18.1016 9.83008 17.9785 9.83008 17.7598L9.83008 16.7617C9.83008 16.543 9.9668 16.4062 10.1719 16.4062L14.3145 16.4062C14.5332 16.4062 14.6699 16.543 14.6699 16.7617L14.6699 17.7598C14.6699 17.9785 14.5332 18.1016 14.3145 18.1016ZM9.92578 15.8594L11.7578 15.8594L11.7578 12.3457L9.92578 12.3457ZM12.7422 15.8594L14.5742 15.8594L14.5742 12.3457L12.7422 12.3457ZM9.65234 25.7168L11.4844 25.7168L11.4844 19.1133L9.65234 19.1133ZM13.0156 25.7168L14.8477 25.7168L14.8477 19.1133L13.0156 19.1133ZM1.32617 26.8516L23.1738 26.8516C23.7617 26.8516 24.2539 26.3594 24.2539 25.7715C24.2539 25.1699 23.7617 24.6777 23.1738 24.6777L1.32617 24.6777C0.738281 24.6777 0.232422 25.1699 0.232422 25.7715C0.232422 26.3594 0.738281 26.8516 1.32617 26.8516Z" style="fill:var(--color-2,hsl(0 0 0/0.85))"></path>
 </g>
</svg>