<?xml version="1.0" encoding="UTF-8"?>
<!--Generator: Apple Native CoreSVG 326-->
<!DOCTYPE svg
PUBLIC "-//W3C//DTD SVG 1.1//EN"
       "http://www.w3.org/Graphics/SVG/1.1/DTD/svg11.dtd">
<svg version="1.1" xmlns="http://www.w3.org/2000/svg" xmlns:xlink="http://www.w3.org/1999/xlink" viewBox="0 0 31.7803 32.8673">
 <g>
  <rect height="32.8673" opacity="0" width="31.7803" x="0" y="0"/>
  <path d="M7.81487 21.4157L4.82959 23.126C4.76123 23.1534 4.72021 23.1944 4.72021 23.2491C4.72021 23.3174 4.76123 23.3584 4.82959 23.3858L15.2339 29.3467C15.4526 29.4698 15.644 29.5381 15.8354 29.5381C16.0269 29.5381 16.2183 29.4698 16.437 29.3467L22.2661 26.0071L23.9304 27.6696L17.5718 31.3565C16.9155 31.7393 16.3823 31.917 15.8354 31.917C15.2886 31.917 14.7554 31.7393 14.0991 31.3565L3.39404 25.1494C2.30029 24.5069 1.86279 24.001 1.86279 23.2491C1.86279 22.5108 2.30029 22.0049 3.39404 21.3623L5.56097 20.1059ZM28.2769 21.3623C29.3706 22.0049 29.8081 22.5108 29.8081 23.2491C29.8081 23.9049 29.4753 24.3736 28.6642 24.909L24.6863 20.9332L26.1099 20.1059Z" fill="white" fill-opacity="0.85"/>
  <path d="M8.19127 14.9017L4.82959 16.8233C4.76123 16.8506 4.72021 16.8916 4.72021 16.96C4.72021 17.0284 4.76123 17.0557 4.82959 17.0967L15.2339 23.044C15.4526 23.167 15.644 23.2354 15.8354 23.2354C16.0269 23.2354 16.2183 23.167 16.437 23.044L18.258 22.0031L19.945 23.6884L17.5718 25.0674C16.9155 25.4502 16.3823 25.628 15.8354 25.628C15.2886 25.628 14.7554 25.4502 14.0991 25.0674L3.39404 18.8467C2.30029 18.2041 1.86279 17.7119 1.86279 16.96C1.86279 16.208 2.30029 15.7159 3.39404 15.0596L5.92884 13.5899ZM28.2769 15.0596C29.3706 15.7159 29.8081 16.208 29.8081 16.96C29.8081 17.7119 29.3706 18.2041 28.2769 18.8467L24.6863 20.9332L23.0284 19.2762L26.8413 17.0967C26.9097 17.0557 26.9507 17.0284 26.9507 16.96C26.9507 16.8916 26.9097 16.8506 26.8413 16.8233L23.4796 14.9017L25.7421 13.5899Z" fill="white" fill-opacity="0.85"/>
  <path d="M5.78901 9.54703L4.82959 10.0967C4.76123 10.1241 4.72021 10.1651 4.72021 10.2198C4.72021 10.2881 4.76123 10.3291 4.82959 10.3565L8.97917 12.7339L14.9992 18.7477C14.7183 18.6558 14.4238 18.5166 14.0991 18.3272L3.39404 12.1202C2.30029 11.4776 1.86279 10.9717 1.86279 10.2198C1.86279 9.48148 2.30029 8.97562 3.39404 8.33304L4.1405 7.90023ZM17.5718 2.12601L28.2769 8.33304C29.3706 8.97562 29.8081 9.48148 29.8081 10.2198C29.8081 10.9717 29.3706 11.4776 28.2769 12.1202L20.4242 16.6733L18.7451 14.9951L26.8413 10.3565C26.9097 10.3291 26.9507 10.2881 26.9507 10.2198C26.9507 10.1651 26.9097 10.1241 26.8413 10.0967L16.437 4.13578C16.2183 4.01273 16.0269 3.94437 15.8354 3.94437C15.644 3.94437 15.4526 4.01273 15.2339 4.13578L10.5596 6.81383L8.8908 5.1459L14.0991 2.12601C14.7554 1.7432 15.2886 1.56546 15.8354 1.56546C16.3823 1.56546 16.9155 1.7432 17.5718 2.12601Z" fill="white" fill-opacity="0.85"/>
  <path d="M28.3589 29.8252C28.769 30.2354 29.439 30.2354 29.8491 29.8252C30.2456 29.4151 30.2593 28.7452 29.8491 28.335L3.40771 1.90726C2.99756 1.4971 2.31396 1.4971 1.90381 1.90726C1.49365 2.30374 1.49365 3.00101 1.90381 3.39749Z" fill="white" fill-opacity="0.85"/>
 </g>
</svg>
