<?xml version="1.0" encoding="UTF-8"?>
<!--Generator: Apple Native CoreSVG 326-->
<!DOCTYPE svg
PUBLIC "-//W3C//DTD SVG 1.1//EN"
       "http://www.w3.org/Graphics/SVG/1.1/DTD/svg11.dtd">
<svg version="1.1" xmlns="http://www.w3.org/2000/svg" xmlns:xlink="http://www.w3.org/1999/xlink" viewBox="0 0 29.2852 28.6699">
 <g>
  <rect height="28.6699" opacity="0" width="29.2852" x="0" y="0"/>
  <path d="M22.2988 4.26562L22.2988 6.35742L20.0977 6.35742L20.0977 4.38867C20.0977 2.9668 19.332 2.22852 17.9785 2.22852L4.32031 2.22852C2.95312 2.22852 2.20117 2.9668 2.20117 4.38867L2.20117 17.9785C2.20117 19.4004 2.95312 20.1387 4.32031 20.1387L6.63086 20.1387L6.63086 22.3398L4.29297 22.3398C1.42188 22.3398 0 20.918 0 18.1016L0 4.26562C0 1.44922 1.42188 0.0273438 4.29297 0.0273438L18.0195 0.0273438C20.8633 0.0273438 22.2988 1.44922 22.2988 4.26562Z" fill="white" fill-opacity="0.85"/>
  <path d="M10.9238 28.6699L24.6504 28.6699C27.4941 28.6699 28.9297 27.248 28.9297 24.4316L28.9297 10.5957C28.9297 7.7793 27.4941 6.35742 24.6504 6.35742L10.9238 6.35742C8.05273 6.35742 6.63086 7.76562 6.63086 10.5957L6.63086 24.4316C6.63086 27.248 8.05273 28.6699 10.9238 28.6699Z" fill="white" fill-opacity="0.85"/>
 </g>
</svg>
