<svg version="1.1" xmlns="http://www.w3.org/2000/svg" xmlns:xlink="http://www.w3.org/1999/xlink" viewBox="0 0 34.6309 35.5332">
 <g>
  
  <path d="M16.4473 30.502C16.6797 30.625 16.9258 30.707 17.1309 30.707C17.3496 30.707 17.5957 30.625 17.8281 30.502L22.4079 27.8414L24.0769 29.5088L18.8809 32.5254C18.2109 32.9082 17.7051 33.0859 17.1309 33.0859C16.5703 33.0859 16.0508 32.9082 15.3945 32.5254L4.70312 26.3184C3.5957 25.6758 3.17188 25.1699 3.17188 24.4316C3.17188 23.9357 3.3562 23.5469 3.80107 23.1552ZM31.1035 24.4316C31.1035 25.1699 30.6797 25.6758 29.5723 26.3184L28.8274 26.7508L27.1577 25.082L30.4743 23.1552C30.9192 23.5469 31.1035 23.9357 31.1035 24.4316Z" style="fill:var(--color-0,hsl(0 0 0/0.85))"></path>
  <path d="M16.4473 24.1992C16.6797 24.3223 16.9258 24.4043 17.1309 24.4043C17.3496 24.4043 17.5957 24.3223 17.8281 24.1992L18.4186 23.8562L20.0944 25.5303L18.8809 26.2363C18.2109 26.6191 17.7051 26.7969 17.1309 26.7969C16.5703 26.7969 16.0508 26.6191 15.3945 26.2363L4.70312 20.0156C3.5957 19.373 3.17188 18.8809 3.17188 18.1289C3.17188 17.6315 3.35735 17.2477 3.80518 16.8549ZM31.1035 18.1289C31.1035 18.8809 30.6797 19.373 29.5723 20.0156L24.8423 22.7677L23.1698 21.096L30.4702 16.8549C30.918 17.2477 31.1035 17.6315 31.1035 18.1289Z" style="fill:var(--color-1,hsl(0 0 0/0.85))"></path>
  <path d="M18.8809 3.45898L29.5723 9.66602C30.6797 10.3086 31.1035 10.8145 31.1035 11.5527C31.1035 12.3047 30.6797 12.8105 29.5723 13.4531L20.6851 18.6127L9.15062 7.08396L15.3945 3.45898C16.0508 3.07617 16.5703 2.89844 17.1309 2.89844C17.7051 2.89844 18.2109 3.07617 18.8809 3.45898ZM12.5865 18.0299L4.70312 13.4531C3.5957 12.8105 3.17188 12.3047 3.17188 11.5527C3.17188 10.8867 3.51678 10.4099 4.39919 9.85086Z" style="fill:var(--color-2,hsl(0 0 0/0.85))"></path>
  <path d="M29.3125 32.4844C29.709 32.8809 30.4062 32.8945 30.8027 32.4844C31.2129 32.0605 31.2129 31.4043 30.8027 30.9941L3.63672 3.8418C3.22656 3.43164 2.55664 3.43164 2.13281 3.8418C1.73633 4.23828 1.73633 4.93555 2.13281 5.33203Z" style="fill:var(--color-3,hsl(0 0 0/0.85))"></path>
 </g>
</svg>