<svg version="1.1" xmlns="http://www.w3.org/2000/svg" xmlns:xlink="http://www.w3.org/1999/xlink" viewBox="0 0 24.623 36.4082">
 <g>
  
  <path d="M24.2676 15.1348L24.2676 28.6152C24.2676 31.4316 22.832 32.8535 19.9746 32.8535L4.29297 32.8535C1.43555 32.8535 0 31.4453 0 28.6152L0 15.1348C0 12.3047 1.43555 10.8965 4.29297 10.8965L8.47656 10.8965L8.47656 13.0977L4.32031 13.0977C2.95312 13.0977 2.20117 13.8223 2.20117 15.2441L2.20117 28.5059C2.20117 29.9277 2.95312 30.6523 4.32031 30.6523L19.9336 30.6523C21.2871 30.6523 22.0664 29.9277 22.0664 28.5059L22.0664 15.2441C22.0664 13.8223 21.2871 13.0977 19.9336 13.0977L15.7773 13.0977L15.7773 10.8965L19.9746 10.8965C22.832 10.8965 24.2676 12.3184 24.2676 15.1348Z" style="fill:var(--color-0,hsl(0 0 0/0.85))"></path>
  <path d="M12.127 22.1484C12.7148 22.1484 13.2207 21.6699 13.2207 21.0957L13.2207 7.19141L13.1387 5.1543L13.9043 5.96094L16.0098 8.2168C16.2012 8.43555 16.4883 8.54492 16.748 8.54492C17.3223 8.54492 17.7461 8.13477 17.7461 7.58789C17.7461 7.28711 17.6367 7.06836 17.4316 6.86328L12.9199 2.51562C12.6465 2.24219 12.4141 2.16016 12.127 2.16016C11.8535 2.16016 11.6211 2.24219 11.334 2.51562L6.83594 6.86328C6.63086 7.06836 6.50781 7.28711 6.50781 7.58789C6.50781 8.13477 6.91797 8.54492 7.49219 8.54492C7.75195 8.54492 8.05273 8.43555 8.24414 8.2168L10.3633 5.96094L11.1289 5.1543L11.0469 7.19141L11.0469 21.0957C11.0469 21.6699 11.5391 22.1484 12.127 22.1484Z" style="fill:var(--color-1,hsl(0 0 0/0.85))"></path>
 </g>
</svg>