<svg version="1.1" xmlns="http://www.w3.org/2000/svg" xmlns:xlink="http://www.w3.org/1999/xlink" viewBox="0 0 29.3535 29.0254">
 <g>
  
  <path d="M22.668 25.8535C22.668 26.2435 22.7379 26.6173 22.8695 26.9609L6.12867 26.9609C6.26013 26.6173 6.33008 26.2435 6.33008 25.8535C6.33008 25.4686 6.26196 25.0996 6.13364 24.7598L22.8646 24.7598C22.7361 25.0996 22.668 25.4686 22.668 25.8535ZM3.17188 6.35742C3.55741 6.35742 3.92635 6.28841 4.26562 6.15863L4.26562 22.8804C3.92635 22.7507 3.55741 22.6816 3.17188 22.6816C2.78087 22.6816 2.40734 22.7515 2.06445 22.8828L2.06445 6.15625C2.40734 6.28754 2.78087 6.35742 3.17188 6.35742ZM25.8398 6.35742C26.2254 6.35742 26.5943 6.28841 26.9336 6.15863L26.9336 22.8804C26.5943 22.7507 26.2254 22.6816 25.8398 22.6816C25.4488 22.6816 25.0753 22.7515 24.7324 22.8828L24.7324 6.15625C25.0753 6.28754 25.4488 6.35742 25.8398 6.35742ZM22.668 3.18555C22.668 3.57557 22.7379 3.94929 22.8695 4.29297L6.12867 4.29297C6.26013 3.94929 6.33008 3.57557 6.33008 3.18555C6.33008 2.80066 6.26196 2.43164 6.13364 2.0918L22.8646 2.0918C22.7361 2.43164 22.668 2.80066 22.668 3.18555Z" style="fill:var(--color-0,hsl(0 0 0/0.85))"></path>
  <path d="M28.998 25.8535C28.998 27.6035 27.5898 29.0254 25.8398 29.0254C24.0762 29.0254 22.668 27.6035 22.668 25.8535C22.668 24.1035 24.0762 22.6816 25.8398 22.6816C27.5898 22.6816 28.998 24.1035 28.998 25.8535ZM6.33008 25.8535C6.33008 27.6035 4.92188 29.0254 3.17188 29.0254C1.4082 29.0254 0 27.6035 0 25.8535C0 24.1035 1.4082 22.6816 3.17188 22.6816C4.92188 22.6816 6.33008 24.1035 6.33008 25.8535ZM6.33008 3.18555C6.33008 4.93555 4.92188 6.35742 3.17188 6.35742C1.4082 6.35742 0 4.93555 0 3.18555C0 1.43555 1.4082 0.0136719 3.17188 0.0136719C4.92188 0.0136719 6.33008 1.43555 6.33008 3.18555ZM28.998 3.18555C28.998 4.93555 27.5898 6.35742 25.8398 6.35742C24.0762 6.35742 22.668 4.93555 22.668 3.18555C22.668 1.43555 24.0762 0.0136719 25.8398 0.0136719C27.5898 0.0136719 28.998 1.43555 28.998 3.18555Z" style="fill:var(--color-1,hsl(0 0 0/0.85))"></path>
  <path d="M18.7988 8.76367L18.7988 10.3633L17.0078 10.3633L17.0078 9.31055C17.0078 9.02344 16.8301 8.8457 16.502 8.8457L9.25586 8.8457C8.95508 8.8457 8.79102 9.02344 8.79102 9.31055L8.79102 16.4336C8.79102 16.7344 8.95508 16.8984 9.25586 16.8984L10.2812 16.8984L10.2812 18.6895L8.70898 18.6895C7.62891 18.6895 7 18.0605 7 16.9805L7 8.76367C7 7.68359 7.62891 7.05469 8.70898 7.05469L17.0488 7.05469C18.1562 7.05469 18.7988 7.68359 18.7988 8.76367Z" style="fill:var(--color-2,hsl(0 0 0/0.85))"></path>
  <path d="M11.9902 21.9844L20.3711 21.9844C21.4512 21.9844 22.0801 21.3691 22.0801 20.2754L22.0801 12.0586C22.0801 10.9785 21.4375 10.3633 20.3301 10.3633L11.9902 10.3633C10.9102 10.3633 10.2812 10.9785 10.2812 12.0586L10.2812 20.2754C10.2812 21.3691 10.9102 21.9844 11.9902 21.9844ZM12.5371 20.1934C12.2363 20.1934 12.0723 20.0293 12.0723 19.7422L12.0723 12.6055C12.0723 12.3184 12.2363 12.1543 12.5371 12.1543L19.7832 12.1543C20.1113 12.1543 20.2891 12.3184 20.2891 12.6055L20.2891 19.7422C20.2891 20.0293 20.125 20.1934 19.8242 20.1934Z" style="fill:var(--color-3,hsl(0 0 0/0.85))"></path>
 </g>
</svg>