<?xml version="1.0" encoding="UTF-8"?>
<!--Generator: Apple Native CoreSVG 326-->
<!DOCTYPE svg
PUBLIC "-//W3C//DTD SVG 1.1//EN"
       "http://www.w3.org/Graphics/SVG/1.1/DTD/svg11.dtd">
<svg version="1.1" xmlns="http://www.w3.org/2000/svg" xmlns:xlink="http://www.w3.org/1999/xlink" viewBox="0 0 25.4707 25.1426">
 <g>
  <rect height="25.1426" opacity="0" width="25.4707" x="0" y="0"/>
  <path d="M4.9082 19.0723C4.9082 19.7285 5.33203 20.166 5.98828 20.166L19.1406 20.166C19.7969 20.166 20.2207 19.7285 20.2207 19.0723L20.2207 6.04297C20.2207 5.38672 19.7969 4.96289 19.1406 4.96289L5.98828 4.96289C5.33203 4.96289 4.9082 5.38672 4.9082 6.04297ZM7.10938 17.5684L7.10938 7.56055C7.10938 7.25977 7.20508 7.16406 7.50586 7.16406L17.623 7.16406C17.9238 7.16406 18.0195 7.25977 18.0195 7.56055L18.0195 17.5684C18.0195 17.8555 17.9238 17.9648 17.623 17.9648L7.50586 17.9648C7.20508 17.9648 7.10938 17.8555 7.10938 17.5684Z" fill="white" fill-opacity="0.85"/>
  <path d="M1.16211 25.1426C1.80469 25.1426 2.32422 24.6094 2.32422 23.9805C2.32422 23.3379 1.80469 22.8184 1.16211 22.8184C0.519531 22.8184 0 23.3379 0 23.9805C0 24.6094 0.519531 25.1426 1.16211 25.1426ZM1.16211 21.3145C1.80469 21.3145 2.32422 20.7949 2.32422 20.1523C2.32422 19.5098 1.80469 18.9902 1.16211 18.9902C0.519531 18.9902 0 19.5098 0 20.1523C0 20.7949 0.519531 21.3145 1.16211 21.3145ZM1.16211 17.5273C1.80469 17.5273 2.32422 17.0078 2.32422 16.3652C2.32422 15.7227 1.80469 15.2031 1.16211 15.2031C0.519531 15.2031 0 15.7227 0 16.3652C0 17.0078 0.519531 17.5273 1.16211 17.5273ZM1.16211 13.7266C1.80469 13.7266 2.32422 13.207 2.32422 12.5645C2.32422 11.9219 1.80469 11.4023 1.16211 11.4023C0.519531 11.4023 0 11.9219 0 12.5645C0 13.207 0.519531 13.7266 1.16211 13.7266ZM1.16211 9.91211C1.80469 9.91211 2.32422 9.39258 2.32422 8.76367C2.32422 8.12109 1.80469 7.60156 1.16211 7.60156C0.519531 7.60156 0 8.12109 0 8.76367C0 9.39258 0.519531 9.91211 1.16211 9.91211ZM1.16211 6.15234C1.80469 6.15234 2.32422 5.63281 2.32422 4.99023C2.32422 4.34766 1.80469 3.82812 1.16211 3.82812C0.519531 3.82812 0 4.34766 0 4.99023C0 5.63281 0.519531 6.15234 1.16211 6.15234ZM1.16211 2.35156C1.80469 2.35156 2.32422 1.83203 2.32422 1.18945C2.32422 0.546875 1.80469 0.0273438 1.16211 0.0273438C0.519531 0.0273438 0 0.546875 0 1.18945C0 1.83203 0.519531 2.35156 1.16211 2.35156ZM4.96289 2.35156C5.60547 2.35156 6.125 1.83203 6.125 1.18945C6.125 0.546875 5.60547 0.0273438 4.96289 0.0273438C4.32031 0.0273438 3.80078 0.546875 3.80078 1.18945C3.80078 1.83203 4.32031 2.35156 4.96289 2.35156ZM8.75 2.35156C9.39258 2.35156 9.91211 1.83203 9.91211 1.18945C9.91211 0.546875 9.39258 0.0273438 8.75 0.0273438C8.10742 0.0273438 7.58789 0.546875 7.58789 1.18945C7.58789 1.83203 8.10742 2.35156 8.75 2.35156ZM12.5508 2.35156C13.1934 2.35156 13.7129 1.83203 13.7129 1.18945C13.7129 0.546875 13.1934 0.0273438 12.5508 0.0273438C11.9219 0.0273438 11.3887 0.546875 11.3887 1.18945C11.3887 1.83203 11.9219 2.35156 12.5508 2.35156ZM16.3652 2.35156C16.9941 2.35156 17.5273 1.83203 17.5273 1.18945C17.5273 0.546875 16.9941 0.0273438 16.3652 0.0273438C15.7227 0.0273438 15.2031 0.546875 15.2031 1.18945C15.2031 1.83203 15.7227 2.35156 16.3652 2.35156ZM20.1523 2.35156C20.7812 2.35156 21.3008 1.83203 21.3008 1.18945C21.3008 0.546875 20.7812 0.0273438 20.1523 0.0273438C19.5098 0.0273438 18.9902 0.546875 18.9902 1.18945C18.9902 1.83203 19.5098 2.35156 20.1523 2.35156ZM23.9531 2.35156C24.5957 2.35156 25.1152 1.83203 25.1152 1.18945C25.1152 0.546875 24.5957 0.0273438 23.9531 0.0273438C23.3105 0.0273438 22.791 0.546875 22.791 1.18945C22.791 1.83203 23.3105 2.35156 23.9531 2.35156ZM23.9531 6.16602C24.5957 6.16602 25.1152 5.64648 25.1152 5.00391C25.1152 4.36133 24.5957 3.8418 23.9531 3.8418C23.3105 3.8418 22.791 4.36133 22.791 5.00391C22.791 5.64648 23.3105 6.16602 23.9531 6.16602ZM23.9531 9.92578C24.5957 9.92578 25.1152 9.40625 25.1152 8.77734C25.1152 8.13477 24.5957 7.61523 23.9531 7.61523C23.3105 7.61523 22.791 8.13477 22.791 8.77734C22.791 9.40625 23.3105 9.92578 23.9531 9.92578ZM23.9531 13.7402C24.5957 13.7402 25.1152 13.2207 25.1152 12.5781C25.1152 11.9355 24.5957 11.416 23.9531 11.416C23.3105 11.416 22.791 11.9355 22.791 12.5781C22.791 13.2207 23.3105 13.7402 23.9531 13.7402ZM23.9531 17.541C24.5957 17.541 25.1152 17.0215 25.1152 16.3789C25.1152 15.7363 24.5957 15.2168 23.9531 15.2168C23.3105 15.2168 22.791 15.7363 22.791 16.3789C22.791 17.0215 23.3105 17.541 23.9531 17.541ZM23.9531 21.3281C24.5957 21.3281 25.1152 20.8086 25.1152 20.166C25.1152 19.5234 24.5957 19.0039 23.9531 19.0039C23.3105 19.0039 22.791 19.5234 22.791 20.166C22.791 20.8086 23.3105 21.3281 23.9531 21.3281ZM23.9531 25.1426C24.5957 25.1426 25.1152 24.6094 25.1152 23.9805C25.1152 23.3379 24.5957 22.8184 23.9531 22.8184C23.3105 22.8184 22.791 23.3379 22.791 23.9805C22.791 24.6094 23.3105 25.1426 23.9531 25.1426ZM20.1523 25.1426C20.7812 25.1426 21.3008 24.6094 21.3008 23.9805C21.3008 23.3379 20.7812 22.8184 20.1523 22.8184C19.5098 22.8184 18.9902 23.3379 18.9902 23.9805C18.9902 24.6094 19.5098 25.1426 20.1523 25.1426ZM16.3652 25.1426C16.9941 25.1426 17.5273 24.6094 17.5273 23.9805C17.5273 23.3379 16.9941 22.8184 16.3652 22.8184C15.7227 22.8184 15.2031 23.3379 15.2031 23.9805C15.2031 24.6094 15.7227 25.1426 16.3652 25.1426ZM12.5508 25.1426C13.1934 25.1426 13.7129 24.6094 13.7129 23.9805C13.7129 23.3379 13.1934 22.8184 12.5508 22.8184C11.9219 22.8184 11.3887 23.3379 11.3887 23.9805C11.3887 24.6094 11.9219 25.1426 12.5508 25.1426ZM8.75 25.1426C9.39258 25.1426 9.91211 24.6094 9.91211 23.9805C9.91211 23.3379 9.39258 22.8184 8.75 22.8184C8.10742 22.8184 7.58789 23.3379 7.58789 23.9805C7.58789 24.6094 8.10742 25.1426 8.75 25.1426ZM4.96289 25.1426C5.60547 25.1426 6.125 24.6094 6.125 23.9805C6.125 23.3379 5.60547 22.8184 4.96289 22.8184C4.32031 22.8184 3.80078 23.3379 3.80078 23.9805C3.80078 24.6094 4.32031 25.1426 4.96289 25.1426Z" fill="white" fill-opacity="0.85"/>
 </g>
</svg>
