<?xml version="1.0" encoding="UTF-8"?>
<!--Generator: Apple Native CoreSVG 326-->
<!DOCTYPE svg
PUBLIC "-//W3C//DTD SVG 1.1//EN"
       "http://www.w3.org/Graphics/SVG/1.1/DTD/svg11.dtd">
<svg version="1.1" xmlns="http://www.w3.org/2000/svg" xmlns:xlink="http://www.w3.org/1999/xlink" viewBox="0 0 25.5254 25.1699">
 <g>
  <rect height="25.1699" opacity="0" width="25.5254" x="0" y="0"/>
  <path d="M4.29297 25.1699L20.877 25.1699C23.748 25.1699 25.1699 23.7617 25.1699 20.9453L25.1699 4.23828C25.1699 1.42188 23.748 0 20.877 0L4.29297 0C1.43555 0 0 1.42188 0 4.23828L0 20.9453C0 23.7617 1.43555 25.1699 4.29297 25.1699ZM4.32031 22.9688C2.95312 22.9688 2.20117 22.2441 2.20117 20.8223L2.20117 4.36133C2.20117 2.93945 2.95312 2.20117 4.32031 2.20117L20.8496 2.20117C22.2031 2.20117 22.9688 2.93945 22.9688 4.36133L22.9688 20.8223C22.9688 22.2441 22.2031 22.9688 20.8496 22.9688Z" fill="white" fill-opacity="0.85"/>
  <path d="M5.79688 15.3125L19.2637 15.3125C19.7422 15.3125 20.0977 14.9434 20.0977 14.4648C20.0977 14 19.7422 13.6309 19.2637 13.6309L5.79688 13.6309C5.29102 13.6309 4.93555 14 4.93555 14.4648C4.93555 14.9434 5.29102 15.3125 5.79688 15.3125ZM5.79688 19.9883L15.6543 19.9883C16.1465 19.9883 16.502 19.6191 16.502 19.1543C16.502 18.6758 16.1465 18.3066 15.6543 18.3066L5.79688 18.3066C5.29102 18.3066 4.93555 18.6758 4.93555 19.1543C4.93555 19.6191 5.29102 19.9883 5.79688 19.9883ZM4.97656 5.90625L4.97656 9.24219C4.97656 10.0898 5.48242 10.5957 6.33008 10.5957L9.66602 10.5957C10.5137 10.5957 11.0195 10.0898 11.0195 9.24219L11.0195 5.90625C11.0195 5.05859 10.5137 4.55273 9.66602 4.55273L6.33008 4.55273C5.48242 4.55273 4.97656 5.05859 4.97656 5.90625Z" fill="white" fill-opacity="0.85"/>
 </g>
</svg>
