<svg version="1.1" xmlns="http://www.w3.org/2000/svg" xmlns:xlink="http://www.w3.org/1999/xlink" viewBox="0 0 28.3008 29.1621">
 <g>
  
  <path d="M10.2044 16.2125L2.95312 20.3574C2.89844 20.3848 2.85742 20.4258 2.85742 20.4941C2.85742 20.5625 2.89844 20.5898 2.95312 20.6309L13.3574 26.5781C13.5898 26.7012 13.7812 26.7695 13.9727 26.7695C14.1641 26.7695 14.3555 26.7012 14.5742 26.5781L24.9785 20.6309C25.0469 20.5898 25.0879 20.5625 25.0879 20.4941C25.0879 20.4258 25.0469 20.3848 24.9785 20.3574L17.7328 16.2157L20.0185 14.8887L26.4004 18.5938C27.5078 19.25 27.9453 19.7422 27.9453 20.4941C27.9453 21.2461 27.5078 21.7383 26.4004 22.3809L15.709 28.6016C15.0527 28.9844 14.5195 29.1621 13.9727 29.1621C13.4121 29.1621 12.8926 28.9844 12.2363 28.6016L1.53125 22.3809C0.423828 21.7383 0 21.2461 0 20.4941C0 19.7422 0.423828 19.25 1.53125 18.5938L7.92129 14.8887Z" style="fill:var(--color-0,hsl(0 0 0/0.85))"></path>
  <path d="M13.9727 17.9512C14.5195 17.9512 15.0527 17.7734 15.709 17.3906L26.4004 11.1836C27.5078 10.5273 27.9453 10.0352 27.9453 9.2832C27.9453 8.53125 27.5078 8.03906 26.4004 7.39648L15.709 1.17578C15.0527 0.792969 14.5195 0.615234 13.9727 0.615234C13.4121 0.615234 12.8926 0.792969 12.2363 1.17578L1.53125 7.39648C0.423828 8.03906 0 8.53125 0 9.2832C0 10.0352 0.423828 10.5273 1.53125 11.1836L12.2363 17.3906C12.8926 17.7734 13.4121 17.9512 13.9727 17.9512Z" style="fill:var(--color-1,hsl(0 0 0/0.85))"></path>
 </g>
</svg>