<svg version="1.1" xmlns="http://www.w3.org/2000/svg" xmlns:xlink="http://www.w3.org/1999/xlink" viewBox="0 0 26.4688 24.7324">
 <g>
  
  <path d="M5.18164 24.7324C6.4668 24.7324 7.13672 23.8301 7.50586 22.6543L13.7266 2.625L24.8008 2.625C25.5801 2.625 26.1133 2.14648 26.1133 1.39453C26.1133 0.669922 25.5801 0.191406 24.8008 0.191406L13.6992 0.191406C12.3047 0.191406 11.6758 0.710938 11.3066 1.91406L5.33203 21.5332L5.09961 21.5332L2.5293 12.4688C2.31055 11.7168 1.90039 11.3613 1.25781 11.3613C0.533203 11.3613 0 11.8809 0 12.5508C0 12.8242 0.0683594 13.0703 0.123047 13.2754L3.02148 22.8047C3.36328 23.9121 3.97852 24.7324 5.18164 24.7324Z" style="fill:var(--color-0,hsl(0 0 0/0.85))"></path>
 </g>
</svg>