<svg version="1.1" xmlns="http://www.w3.org/2000/svg" xmlns:xlink="http://www.w3.org/1999/xlink" viewBox="0 0 32.3066 32.3887">
 <g>
  
  <path d="M23.8164 6.125L23.8164 6.35742L12.4277 6.35742C8.54492 6.35742 6.27539 8.58594 6.27539 12.4551L6.27539 24.1992L5.79688 24.1992C2.93945 24.1992 1.50391 22.7773 1.50391 19.9609L1.50391 6.125C1.50391 3.30859 2.93945 1.88672 5.79688 1.88672L19.5234 1.88672C22.3672 1.88672 23.8164 3.30859 23.8164 6.125Z" style="fill:var(--color-0,hsl(0 0 0/0.85))"></path>
  <path d="M12.4277 30.5293L26.1543 30.5293C28.998 30.5293 30.4473 29.1074 30.4473 26.291L30.4473 12.4551C30.4473 9.63867 28.998 8.2168 26.1543 8.2168L12.4277 8.2168C9.57031 8.2168 8.13477 9.625 8.13477 12.4551L8.13477 26.291C8.13477 29.1074 9.57031 30.5293 12.4277 30.5293Z" style="fill:var(--color-1,hsl(0 0 0/0.85))"></path>
 </g>
</svg>