<svg version="1.1" xmlns="http://www.w3.org/2000/svg" xmlns:xlink="http://www.w3.org/1999/xlink" viewBox="0 0 29.2852 28.6699">
 <g>
  
  <path d="M2.20117 17.9785C2.20117 19.4004 2.95312 20.1387 4.32031 20.1387L6.63086 20.1387L6.63086 22.3398L4.29297 22.3398C1.42188 22.3398 0 20.918 0 18.1016L0 16.1465L2.20117 16.1465ZM2.20117 14.2871L0 14.2871L0 8.08008L2.20117 8.08008ZM22.2988 4.26562L22.2988 6.35742L20.0977 6.35742L20.0977 4.38867C20.0977 2.9668 19.332 2.22852 17.9785 2.22852L15.9688 2.22852L15.9688 0.0273438L18.0195 0.0273438C20.877 0.0273438 22.2988 1.44922 22.2988 4.26562ZM6.34375 2.22852L4.32031 2.22852C2.95312 2.22852 2.20117 2.9668 2.20117 4.38867L2.20117 6.2207L0 6.2207L0 4.26562C0 1.44922 1.42188 0.0273438 4.29297 0.0273438L6.34375 0.0273438ZM14.2324 2.22852L8.06641 2.22852L8.06641 0.0273438L14.2324 0.0273438Z" style="fill:var(--color-0,hsl(0 0 0/0.85))"></path>
  <path d="M10.9238 28.6699L24.6504 28.6699C27.4941 28.6699 28.9297 27.248 28.9297 24.4316L28.9297 10.5957C28.9297 7.7793 27.4941 6.35742 24.6504 6.35742L10.9238 6.35742C8.05273 6.35742 6.63086 7.76562 6.63086 10.5957L6.63086 24.4316C6.63086 27.248 8.05273 28.6699 10.9238 28.6699ZM10.9512 26.4688C9.59766 26.4688 8.83203 25.7305 8.83203 24.3086L8.83203 10.7188C8.83203 9.29688 9.59766 8.55859 10.9512 8.55859L24.6094 8.55859C25.9629 8.55859 26.7285 9.29688 26.7285 10.7188L26.7285 24.3086C26.7285 25.7305 25.9629 26.4688 24.6094 26.4688Z" style="fill:var(--color-1,hsl(0 0 0/0.85))"></path>
 </g>
</svg>