<?xml version="1.0" encoding="UTF-8"?>
<!--Generator: Apple Native CoreSVG 326-->
<!DOCTYPE svg
PUBLIC "-//W3C//DTD SVG 1.1//EN"
       "http://www.w3.org/Graphics/SVG/1.1/DTD/svg11.dtd">
<svg version="1.1" xmlns="http://www.w3.org/2000/svg" xmlns:xlink="http://www.w3.org/1999/xlink" viewBox="0 0 33.4277 32.6895">
 <g>
  <rect height="32.6895" opacity="0" width="33.4277" x="0" y="0"/>
  <path d="M21.6388 6.6582L13.5488 6.6582C9.66602 6.6582 7.39648 8.88672 7.39648 12.7559L7.39648 22.1465C3.32629 20.4687 0.464844 16.4622 0.464844 11.7852C0.464844 5.5918 5.48242 0.574219 11.6758 0.574219C16.0197 0.574219 19.7851 3.04252 21.6388 6.6582Z" fill="white" fill-opacity="0.85"/>
  <path d="M13.5488 30.8301L27.2754 30.8301C30.1191 30.8301 31.5684 29.4082 31.5684 26.5918L31.5684 12.7559C31.5684 9.93945 30.1191 8.51758 27.2754 8.51758L13.5488 8.51758C10.6914 8.51758 9.25586 9.93945 9.25586 12.7559L9.25586 26.5918C9.25586 29.4082 10.6914 30.8301 13.5488 30.8301Z" fill="white" fill-opacity="0.85"/>
 </g>
</svg>
