<?xml version="1.0" encoding="UTF-8"?>
<!--Generator: Apple Native CoreSVG 326-->
<!DOCTYPE svg
PUBLIC "-//W3C//DTD SVG 1.1//EN"
       "http://www.w3.org/Graphics/SVG/1.1/DTD/svg11.dtd">
<svg version="1.1" xmlns="http://www.w3.org/2000/svg" xmlns:xlink="http://www.w3.org/1999/xlink" viewBox="0 0 33.332 38.3515">
 <g>
  <rect height="38.3515" opacity="0" width="33.332" x="0" y="0"/>
  <path d="M18.6864 5.22987L5.67383 12.7431C5.37305 12.9072 5.25 13.1259 5.25 13.413L5.25 28.4417C4.18038 28.6849 3.03516 28.3013 3.03516 26.415L3.03516 13.4267C3.03516 11.8818 3.19922 11.5947 4.52539 10.8427L15.668 4.40327C16.6751 3.82269 18.2778 3.65285 18.6864 5.22987Z" fill="white" fill-opacity="0.85"/>
  <path d="M24.1306 8.37284L11.1152 15.8876C10.8281 16.0517 10.7051 16.2705 10.7051 16.5576L10.7051 31.585C9.63128 31.8308 8.49023 31.449 8.49023 29.5595L8.49023 16.5576C8.49023 15.0263 8.6543 14.7392 9.9668 13.9736L21.123 7.5478C22.1318 6.9663 23.7276 6.79684 24.1306 8.37284Z" fill="white" fill-opacity="0.85"/>
  <path d="M14.1914 32.581C14.1914 34.7548 15.7773 35.3974 17.5 34.3994L28.2324 28.247C29.4902 27.5224 29.9414 26.7705 29.9414 25.2392L29.9414 12.5244C29.9414 10.4189 28.3828 9.94038 26.6602 10.9248L15.9277 17.1181C14.6289 17.8701 14.1914 18.6357 14.1914 20.1259Z" fill="white" fill-opacity="0.85"/>
 </g>
</svg>
