<svg version="1.1" xmlns="http://www.w3.org/2000/svg" xmlns:xlink="http://www.w3.org/1999/xlink" viewBox="0 0 34.6582 23.502">
 <g>
  
  <path d="M13.5488 23.0918L30.1465 23.0918C32.9219 23.0918 34.3027 21.7246 34.3027 19.0039L34.3027 4.48438C34.3027 1.76367 32.9219 0.396484 30.1465 0.396484L13.5488 0.396484C10.8008 0.396484 9.40625 1.76367 9.40625 4.48438L9.40625 19.0039C9.40625 21.7246 10.8008 23.0918 13.5488 23.0918Z" style="fill:var(--color-0,hsl(0 0 0/0.85))"></path>
  <path d="M0.765625 5.3457L4.56641 5.3457C5.05859 5.3457 5.3457 5.04492 5.3457 4.56641L5.3457 0.792969C5.3457 0.287109 5.05859 0 4.56641 0L0.765625 0C0.300781 0 0 0.314453 0 0.792969L0 4.56641C0 5.01758 0.300781 5.3457 0.765625 5.3457ZM0.765625 14.4102L4.56641 14.4102C5.05859 14.4102 5.3457 14.123 5.3457 13.6445L5.3457 9.87109C5.3457 9.35156 5.05859 9.06445 4.56641 9.06445L0.765625 9.06445C0.300781 9.06445 0 9.37891 0 9.87109L0 13.6445C0 14.0957 0.300781 14.4102 0.765625 14.4102ZM0.765625 23.4746L4.58008 23.4746C5.05859 23.4746 5.3457 23.1875 5.3457 22.709L5.3457 18.9355C5.3457 18.416 5.05859 18.1289 4.58008 18.1289L0.765625 18.1289C0.300781 18.1289 0 18.4434 0 18.9355L0 22.709C0 23.1602 0.300781 23.4746 0.765625 23.4746Z" style="fill:var(--color-1,hsl(0 0 0/0.85))"></path>
 </g>
</svg>