<svg version="1.1" xmlns="http://www.w3.org/2000/svg" xmlns:xlink="http://www.w3.org/1999/xlink" viewBox="0 0 28.7383 36.1621">
 <g>
  
  <path d="M20.489 3.97852L7.89383 3.97852C7.9448 2.85991 8.64699 2.22852 9.81641 2.22852L18.5664 2.22852C19.7358 2.22852 20.438 2.85991 20.489 3.97852Z" style="fill:var(--color-0,hsl(0 0 0/0.85))"></path>
  <path d="M23.2851 7.88385C22.8454 7.81396 22.379 7.7793 21.8887 7.7793L6.49414 7.7793C6.00393 7.7793 5.53767 7.81374 5.09809 7.88327C5.24713 6.57013 6.13588 5.83789 7.58789 5.83789L20.8086 5.83789C22.2608 5.83789 23.1383 6.57035 23.2851 7.88385Z" style="fill:var(--color-1,hsl(0 0 0/0.85))"></path>
  <path d="M6.49414 33.9609L21.8887 33.9609C24.7461 33.9609 26.1816 32.5391 26.1816 29.7227L26.1816 14.2188C26.1816 11.4023 24.7461 9.98047 21.8887 9.98047L6.49414 9.98047C3.63672 9.98047 2.20117 11.3887 2.20117 14.2188L2.20117 29.7227C2.20117 32.5391 3.63672 33.9609 6.49414 33.9609ZM6.53516 31.7598C5.16797 31.7598 4.40234 31.0215 4.40234 29.5996L4.40234 14.3281C4.40234 12.9199 5.16797 12.1816 6.53516 12.1816L21.8613 12.1816C23.2012 12.1816 23.9805 12.9199 23.9805 14.3281L23.9805 29.5996C23.9805 31.0215 23.2012 31.7598 21.8613 31.7598Z" style="fill:var(--color-2,hsl(0 0 0/0.85))"></path>
 </g>
</svg>