<?xml version="1.0" encoding="UTF-8"?>
<!--Generator: Apple Native CoreSVG 326-->
<!DOCTYPE svg
PUBLIC "-//W3C//DTD SVG 1.1//EN"
       "http://www.w3.org/Graphics/SVG/1.1/DTD/svg11.dtd">
<svg version="1.1" xmlns="http://www.w3.org/2000/svg" xmlns:xlink="http://www.w3.org/1999/xlink" viewBox="0 0 27.166 26.3184">
 <g>
  <rect height="26.3184" opacity="0" width="27.166" x="0" y="0"/>
  <path d="M21.4238 26.2637L24.4453 26.2637C25.9355 26.2637 26.8105 25.3887 26.8105 23.8438L26.8105 20.9316C26.8105 19.3867 25.9355 18.5117 24.4453 18.5117L21.4238 18.5117C19.9336 18.5117 19.0586 19.3867 19.0586 20.9316L19.0586 23.8438C19.0586 25.3887 19.9336 26.2637 21.4238 26.2637ZM21.6836 24.377C21.1914 24.377 20.9316 24.1172 20.9316 23.6113L20.9316 21.1641C20.9316 20.6445 21.1914 20.3848 21.6836 20.3848L24.1855 20.3848C24.6641 20.3848 24.9238 20.6445 24.9238 21.1641L24.9238 23.6113C24.9238 24.1172 24.6641 24.377 24.1855 24.377Z" fill="white" fill-opacity="0.85"/>
  <path d="M11.8809 26.2637L14.916 26.2637C16.4062 26.2637 17.2676 25.3887 17.2676 23.8438L17.2676 20.9316C17.2676 19.3867 16.4062 18.5117 14.916 18.5117L11.8809 18.5117C10.3906 18.5117 9.5293 19.3867 9.5293 20.9316L9.5293 23.8438C9.5293 25.3887 10.3906 26.2637 11.8809 26.2637ZM12.1406 24.377C11.6484 24.377 11.4023 24.1172 11.4023 23.6113L11.4023 21.1641C11.4023 20.6445 11.6484 20.3848 12.1406 20.3848L14.6562 20.3848C15.1348 20.3848 15.3945 20.6445 15.3945 21.1641L15.3945 23.6113C15.3945 24.1172 15.1348 24.377 14.6562 24.377Z" fill="white" fill-opacity="0.85"/>
  <path d="M2.36523 26.2637L5.38672 26.2637C6.87695 26.2637 7.75195 25.3887 7.75195 23.8438L7.75195 20.9316C7.75195 19.3867 6.87695 18.5117 5.38672 18.5117L2.36523 18.5117C0.875 18.5117 0 19.3867 0 20.9316L0 23.8438C0 25.3887 0.875 26.2637 2.36523 26.2637ZM2.625 24.377C2.13281 24.377 1.88672 24.1172 1.88672 23.6113L1.88672 21.1641C1.88672 20.6445 2.13281 20.3848 2.625 20.3848L5.12695 20.3848C5.60547 20.3848 5.87891 20.6445 5.87891 21.1641L5.87891 23.6113C5.87891 24.1172 5.60547 24.377 5.12695 24.377Z" fill="white" fill-opacity="0.85"/>
  <path d="M21.4238 17.0078L24.4453 17.0078C25.9355 17.0078 26.8105 16.1465 26.8105 14.6016L26.8105 11.6758C26.8105 10.1309 25.9355 9.25586 24.4453 9.25586L21.4238 9.25586C19.9336 9.25586 19.0586 10.1309 19.0586 11.6758L19.0586 14.6016C19.0586 16.1465 19.9336 17.0078 21.4238 17.0078ZM21.6836 15.1348C21.1914 15.1348 20.9316 14.875 20.9316 14.3555L20.9316 11.8945C20.9316 11.3887 21.1914 11.1289 21.6836 11.1289L24.1855 11.1289C24.6641 11.1289 24.9238 11.3887 24.9238 11.8945L24.9238 14.3555C24.9238 14.875 24.6641 15.1348 24.1855 15.1348Z" fill="white" fill-opacity="0.85"/>
  <path d="M11.8809 17.0078L14.916 17.0078C16.4062 17.0078 17.2676 16.1465 17.2676 14.6016L17.2676 11.6758C17.2676 10.1309 16.4062 9.25586 14.916 9.25586L11.8809 9.25586C10.3906 9.25586 9.5293 10.1309 9.5293 11.6758L9.5293 14.6016C9.5293 16.1465 10.3906 17.0078 11.8809 17.0078ZM12.1406 15.1348C11.6484 15.1348 11.4023 14.875 11.4023 14.3555L11.4023 11.8945C11.4023 11.3887 11.6484 11.1289 12.1406 11.1289L14.6562 11.1289C15.1348 11.1289 15.3945 11.3887 15.3945 11.8945L15.3945 14.3555C15.3945 14.875 15.1348 15.1348 14.6562 15.1348Z" fill="white" fill-opacity="0.85"/>
  <path d="M2.36523 17.0078L5.38672 17.0078C6.87695 17.0078 7.75195 16.1465 7.75195 14.6016L7.75195 11.6758C7.75195 10.1309 6.87695 9.25586 5.38672 9.25586L2.36523 9.25586C0.875 9.25586 0 10.1309 0 11.6758L0 14.6016C0 16.1465 0.875 17.0078 2.36523 17.0078ZM2.625 15.1348C2.13281 15.1348 1.88672 14.875 1.88672 14.3555L1.88672 11.8945C1.88672 11.3887 2.13281 11.1289 2.625 11.1289L5.12695 11.1289C5.60547 11.1289 5.87891 11.3887 5.87891 11.8945L5.87891 14.3555C5.87891 14.875 5.60547 15.1348 5.12695 15.1348Z" fill="white" fill-opacity="0.85"/>
  <path d="M11.8809 7.75195L14.916 7.75195C16.4062 7.75195 17.2676 6.87695 17.2676 5.33203L17.2676 2.41992C17.2676 0.875 16.4062 0 14.916 0L11.8809 0C10.3906 0 9.5293 0.875 9.5293 2.41992L9.5293 5.33203C9.5293 6.87695 10.3906 7.75195 11.8809 7.75195ZM12.1406 5.87891C11.6484 5.87891 11.4023 5.61914 11.4023 5.09961L11.4023 2.65234C11.4023 2.14648 11.6484 1.88672 12.1406 1.88672L14.6562 1.88672C15.1348 1.88672 15.3945 2.14648 15.3945 2.65234L15.3945 5.09961C15.3945 5.61914 15.1348 5.87891 14.6562 5.87891Z" fill="white" fill-opacity="0.85"/>
  <path d="M21.4238 7.75195L24.4453 7.75195C25.9355 7.75195 26.8105 6.87695 26.8105 5.33203L26.8105 2.41992C26.8105 0.875 25.9355 0 24.4453 0L21.4238 0C19.9336 0 19.0586 0.875 19.0586 2.41992L19.0586 5.33203C19.0586 6.87695 19.9336 7.75195 21.4238 7.75195Z" fill="white" fill-opacity="0.85"/>
  <path d="M2.36523 7.75195L5.38672 7.75195C6.87695 7.75195 7.75195 6.87695 7.75195 5.33203L7.75195 2.41992C7.75195 0.875 6.87695 0 5.38672 0L2.36523 0C0.875 0 0 0.875 0 2.41992L0 5.33203C0 6.87695 0.875 7.75195 2.36523 7.75195ZM2.625 5.87891C2.13281 5.87891 1.88672 5.61914 1.88672 5.09961L1.88672 2.65234C1.88672 2.14648 2.13281 1.88672 2.625 1.88672L5.12695 1.88672C5.60547 1.88672 5.87891 2.14648 5.87891 2.65234L5.87891 5.09961C5.87891 5.61914 5.60547 5.87891 5.12695 5.87891Z" fill="white" fill-opacity="0.85"/>
 </g>
</svg>
