<?xml version="1.0" encoding="UTF-8"?>
<!--Generator: Apple Native CoreSVG 326-->
<!DOCTYPE svg
PUBLIC "-//W3C//DTD SVG 1.1//EN"
       "http://www.w3.org/Graphics/SVG/1.1/DTD/svg11.dtd">
<svg version="1.1" xmlns="http://www.w3.org/2000/svg" xmlns:xlink="http://www.w3.org/1999/xlink" viewBox="0 0 28.3008 30.9668">
 <g>
  <rect height="30.9668" opacity="0" width="28.3008" x="0" y="0"/>
  <path d="M26.4004 20.4121C27.5078 21.0547 27.9453 21.5605 27.9453 22.2988C27.9453 23.0508 27.5078 23.5566 26.4004 24.1992L15.709 30.4062C15.0527 30.7891 14.5195 30.9668 13.9727 30.9668C13.4121 30.9668 12.8926 30.7891 12.2363 30.4062L1.53125 24.1992C0.423828 23.5566 0 23.0508 0 22.2988C0 21.5605 0.423828 21.0547 1.53125 20.4121L3.69817 19.1557L5.94529 20.4615L2.95312 22.1758C2.89844 22.2031 2.85742 22.2441 2.85742 22.2988C2.85742 22.3672 2.89844 22.4082 2.95312 22.4355L13.3574 28.3965C13.5898 28.5195 13.7812 28.5879 13.9727 28.5879C14.1641 28.5879 14.3555 28.5195 14.5742 28.3965L24.9785 22.4355C25.0469 22.4082 25.0879 22.3672 25.0879 22.2988C25.0879 22.2441 25.0469 22.2031 24.9785 22.1758L21.9892 20.4631L24.2362 19.1557ZM8.22097 19.1577L8.22097 19.1577L5.94173 17.8548ZM19.7107 19.1577L19.7107 19.1577L21.9927 17.8532Z" fill="white" fill-opacity="0.85"/>
  <path d="M26.4004 14.1094C27.5078 14.7656 27.9453 15.2578 27.9453 16.0098C27.9453 16.7617 27.5078 17.2539 26.4004 17.8965L15.709 24.1172C15.0527 24.5 14.5195 24.6777 13.9727 24.6777C13.4121 24.6777 12.8926 24.5 12.2363 24.1172L1.53125 17.8965C0.423828 17.2539 0 16.7617 0 16.0098C0 15.2578 0.423828 14.7656 1.53125 14.1094L4.06604 12.6396L6.32169 13.9475L2.95312 15.873C2.89844 15.9004 2.85742 15.9414 2.85742 16.0098C2.85742 16.0781 2.89844 16.1055 2.95312 16.1465L13.3574 22.0938C13.5898 22.2168 13.7812 22.2852 13.9727 22.2852C14.1641 22.2852 14.3555 22.2168 14.5742 22.0938L24.9785 16.1465C25.0469 16.1055 25.0879 16.0781 25.0879 16.0098C25.0879 15.9414 25.0469 15.9004 24.9785 15.873L21.613 13.9493L23.8688 12.6396ZM8.60322 12.6434L8.60322 12.6434L7.11226 11.7891ZM19.3284 12.6434L21.6169 11.3322Z" fill="white" fill-opacity="0.85"/>
  <path d="M13.9727 17.9375C14.5195 17.9375 15.0527 17.7598 15.709 17.377L26.4004 11.1699C27.5078 10.5273 27.9453 10.0215 27.9453 9.26953C27.9453 8.53125 27.5078 8.02539 26.4004 7.38281L15.709 1.17578C15.0527 0.792969 14.5195 0.615234 13.9727 0.615234C13.4121 0.615234 12.8926 0.792969 12.2363 1.17578L1.53125 7.38281C0.423828 8.02539 0 8.53125 0 9.26953C0 10.0215 0.423828 10.5273 1.53125 11.1699L12.2363 17.377C12.8926 17.7598 13.4121 17.9375 13.9727 17.9375ZM13.9727 15.5586C13.7812 15.5586 13.5898 15.4902 13.3574 15.3672L2.95312 9.40625C2.89844 9.37891 2.85742 9.33789 2.85742 9.26953C2.85742 9.21484 2.89844 9.17383 2.95312 9.14648L13.3574 3.18555C13.5898 3.0625 13.7812 2.99414 13.9727 2.99414C14.1641 2.99414 14.3555 3.0625 14.5742 3.18555L24.9785 9.14648C25.0469 9.17383 25.0879 9.21484 25.0879 9.26953C25.0879 9.33789 25.0469 9.37891 24.9785 9.40625L14.5742 15.3672C14.3555 15.4902 14.1641 15.5586 13.9727 15.5586Z" fill="white" fill-opacity="0.85"/>
 </g>
</svg>
