<?xml version="1.0" encoding="UTF-8"?>
<!--Generator: Apple Native CoreSVG 326-->
<!DOCTYPE svg
PUBLIC "-//W3C//DTD SVG 1.1//EN"
       "http://www.w3.org/Graphics/SVG/1.1/DTD/svg11.dtd">
<svg version="1.1" xmlns="http://www.w3.org/2000/svg" xmlns:xlink="http://www.w3.org/1999/xlink" viewBox="0 0 27.3301 31.1906">
 <g>
  <rect height="31.1906" opacity="0" width="27.3301" x="0" y="0"/>
  <path d="M15.709 2.01228L15.709 4.87461L13.4805 6.15998L13.4805 2.76423C13.4805 2.62751 13.3848 2.55915 13.248 2.64118L2.83008 8.65681C2.39258 8.91657 2.22852 9.10798 2.22852 9.69587L2.22852 21.6724C2.22852 21.8092 2.31055 21.8502 2.43359 21.7818L5.45508 20.04L5.45508 22.6813L3.29492 23.9283C1.38086 25.0357 0 24.2974 0 22.0006L0 9.61384C0 8.19196 0.464844 7.38532 1.68164 6.67439L12.6328 0.344308C13.9863-0.421317 15.709 0.0708702 15.709 2.01228Z" fill="white" fill-opacity="0.85"/>
  <path d="M21.1641 5.15681L21.1641 8.50102L18.9355 9.78917L18.9355 5.90876C18.9355 5.78571 18.8398 5.70368 18.7031 5.78571L8.28516 11.8013C7.84766 12.0611 7.68359 12.2525 7.68359 12.8404L7.68359 24.817C7.68359 24.9537 7.76562 24.9947 7.88867 24.9263L11.2656 22.9796L11.2656 25.6311L8.75 27.0865C6.82227 28.1802 5.45508 27.442 5.45508 25.1588L5.45508 12.7584C5.45508 11.3502 5.90625 10.5435 7.13672 9.81892L18.0879 3.50251C19.4414 2.72321 21.1641 3.22907 21.1641 5.15681Z" fill="white" fill-opacity="0.85"/>
  <path d="M11.2656 16.1763L11.2656 28.5767C11.2656 30.8599 12.6465 31.6119 14.5605 30.5045L25.2656 24.3111C26.6055 23.5455 26.9746 22.7662 26.9746 21.317L26.9746 8.57478C26.9746 6.64704 25.252 6.15485 23.8984 6.92048L12.9473 13.2506C11.7305 13.9615 11.2656 14.7681 11.2656 16.1763ZM14.0957 15.2193L24.5137 9.20368C24.6504 9.13532 24.7461 9.20368 24.7461 9.32673L24.7461 21.2759C24.7461 21.8228 24.6367 22.0416 24.1719 22.315L13.6992 28.358C13.5762 28.4263 13.4941 28.3717 13.4941 28.2349L13.4941 16.2584C13.4941 15.6705 13.6582 15.4791 14.0957 15.2193Z" fill="white" fill-opacity="0.85"/>
 </g>
</svg>
