<?xml version="1.0" encoding="UTF-8"?>
<!--Generator: Apple Native CoreSVG 326-->
<!DOCTYPE svg
PUBLIC "-//W3C//DTD SVG 1.1//EN"
       "http://www.w3.org/Graphics/SVG/1.1/DTD/svg11.dtd">
<svg version="1.1" xmlns="http://www.w3.org/2000/svg" xmlns:xlink="http://www.w3.org/1999/xlink" viewBox="0 0 25.5254 25.1973">
 <g>
  <rect height="25.1973" opacity="0" width="25.5254" x="0" y="0"/>
  <path d="M1.47656 11.5117L1.47656 13.7129L23.7207 13.7129L23.7207 11.5117ZM0 4.30664L0 20.9043C0 23.7617 1.42188 25.1973 4.23828 25.1973L20.9316 25.1973C23.748 25.1973 25.1699 23.7617 25.1699 20.9043L25.1699 4.30664C25.1699 1.46289 23.7617 0.0273438 20.9316 0.0273438L4.23828 0.0273438C1.4082 0.0273438 0 1.46289 0 4.30664ZM2.20117 4.34766C2.20117 2.98047 2.92578 2.22852 4.34766 2.22852L20.8223 2.22852C22.2441 2.22852 22.9688 2.98047 22.9688 4.34766L22.9688 20.8633C22.9688 22.2168 22.2441 22.9961 20.8223 22.9961L4.34766 22.9961C2.92578 22.9961 2.20117 22.2168 2.20117 20.8633Z" fill="white" fill-opacity="0.85"/>
 </g>
</svg>
