<?xml version="1.0" encoding="UTF-8"?>
<!--Generator: Apple Native CoreSVG 326-->
<!DOCTYPE svg
PUBLIC "-//W3C//DTD SVG 1.1//EN"
       "http://www.w3.org/Graphics/SVG/1.1/DTD/svg11.dtd">
<svg version="1.1" xmlns="http://www.w3.org/2000/svg" xmlns:xlink="http://www.w3.org/1999/xlink" viewBox="0 0 28.3008 29.1621">
 <g>
  <rect height="29.1621" opacity="0" width="28.3008" x="0" y="0"/>
  <path d="M26.4004 18.5938C27.5078 19.25 27.9453 19.7422 27.9453 20.4941C27.9453 21.2461 27.5078 21.7383 26.4004 22.3809L15.709 28.6016C15.0527 28.9844 14.5195 29.1621 13.9727 29.1621C13.4121 29.1621 12.8926 28.9844 12.2363 28.6016L1.53125 22.3809C0.423828 21.7383 0 21.2461 0 20.4941C0 19.7422 0.423828 19.25 1.53125 18.5938L7.92129 14.8887L12.2363 17.3906C12.8926 17.7734 13.4121 17.9512 13.9727 17.9512C14.5195 17.9512 15.0527 17.7734 15.709 17.3906L20.0185 14.8887Z" fill="white" fill-opacity="0.85"/>
  <path d="M13.9727 17.9512C14.5195 17.9512 15.0527 17.7734 15.709 17.3906L26.4004 11.1836C27.5078 10.5273 27.9453 10.0352 27.9453 9.2832C27.9453 8.53125 27.5078 8.03906 26.4004 7.39648L15.709 1.17578C15.0527 0.792969 14.5195 0.615234 13.9727 0.615234C13.4121 0.615234 12.8926 0.792969 12.2363 1.17578L1.53125 7.39648C0.423828 8.03906 0 8.53125 0 9.2832C0 10.0352 0.423828 10.5273 1.53125 11.1836L12.2363 17.3906C12.8926 17.7734 13.4121 17.9512 13.9727 17.9512ZM13.9727 15.5586C13.7812 15.5586 13.5898 15.5039 13.3574 15.3672L2.95312 9.41992C2.89844 9.39258 2.85742 9.35156 2.85742 9.2832C2.85742 9.21484 2.89844 9.1875 2.95312 9.14648L13.3574 3.19922C13.5898 3.07617 13.7812 3.00781 13.9727 3.00781C14.1641 3.00781 14.3555 3.07617 14.5742 3.19922L24.9785 9.14648C25.0469 9.1875 25.0879 9.21484 25.0879 9.2832C25.0879 9.35156 25.0469 9.39258 24.9785 9.41992L14.5742 15.3672C14.3555 15.5039 14.1641 15.5586 13.9727 15.5586Z" fill="white" fill-opacity="0.85"/>
 </g>
</svg>
