<?xml version="1.0" encoding="UTF-8"?>
<!--Generator: Apple Native CoreSVG 326-->
<!DOCTYPE svg
PUBLIC "-//W3C//DTD SVG 1.1//EN"
       "http://www.w3.org/Graphics/SVG/1.1/DTD/svg11.dtd">
<svg version="1.1" xmlns="http://www.w3.org/2000/svg" xmlns:xlink="http://www.w3.org/1999/xlink" viewBox="0 0 42.6836 28.6152">
 <g>
  <rect height="28.6152" opacity="0" width="42.6836" x="0" y="0"/>
  <path d="M29.5723 22.3262L39.0605 22.3262C41.1113 22.3262 42.3281 21.123 42.3281 19.1133L42.3281 9.51562C42.3281 7.51953 41.1113 6.30273 39.0605 6.30273L29.5723 6.30273C27.5215 6.30273 26.3047 7.51953 26.3047 9.51562L26.3047 19.1133C26.3047 21.123 27.5215 22.3262 29.5723 22.3262ZM29.6133 20.2617C28.834 20.2617 28.3691 19.7832 28.3691 19.0039L28.3691 9.63867C28.3691 8.85938 28.834 8.36719 29.6133 8.36719L39.0195 8.36719C39.7988 8.36719 40.2637 8.85938 40.2637 9.63867L40.2637 19.0039C40.2637 19.7832 39.7988 20.2617 39.0195 20.2617Z" fill="white" fill-opacity="0.85"/>
  <path d="M3.26758 22.3262L12.7559 22.3262C14.8066 22.3262 16.0234 21.123 16.0234 19.1133L16.0234 9.51562C16.0234 7.51953 14.8066 6.30273 12.7559 6.30273L3.26758 6.30273C1.2168 6.30273 0 7.51953 0 9.51562L0 19.1133C0 21.123 1.2168 22.3262 3.26758 22.3262ZM21.1641 28.6152C21.7656 28.6152 22.1758 28.2324 22.1758 27.6582L22.1758 0.970703C22.1758 0.410156 21.7656 0.0273438 21.1641 0.0273438C20.5625 0.0273438 20.166 0.410156 20.166 0.970703L20.166 27.6582C20.166 28.2324 20.5625 28.6152 21.1641 28.6152Z" fill="white" fill-opacity="0.85"/>
 </g>
</svg>
