<?xml version="1.0" encoding="UTF-8"?>
<!--Generator: Apple Native CoreSVG 326-->
<!DOCTYPE svg
PUBLIC "-//W3C//DTD SVG 1.1//EN"
       "http://www.w3.org/Graphics/SVG/1.1/DTD/svg11.dtd">
<svg version="1.1" xmlns="http://www.w3.org/2000/svg" xmlns:xlink="http://www.w3.org/1999/xlink" viewBox="0 0 28.2461 27.9043">
 <g>
  <rect height="27.9043" opacity="0" width="28.2461" x="0" y="0"/>
  <path d="M13.9453 27.9043C21.6426 27.9043 27.8906 21.6562 27.8906 13.959C27.8906 6.27539 21.6426 0.0136719 13.9453 0.0136719C6.26172 0.0136719 0 6.27539 0 13.959C0 21.6562 6.26172 27.9043 13.9453 27.9043Z" fill="white" fill-opacity="0.85"/>
  <path d="M9.61133 20.6855C8.05273 20.6855 7.23242 19.8789 7.23242 18.334L7.23242 10.1172C7.23242 8.57227 8.05273 7.75195 9.61133 7.75195L16.9941 7.75195L15.5176 9.22852L9.63867 9.22852C9.02344 9.22852 8.70898 9.5293 8.70898 10.1855L8.70898 18.252C8.70898 18.9082 9.02344 19.209 9.63867 19.209L17.9648 19.209C18.375 19.209 18.6895 18.9082 18.6895 18.252L18.6895 12.4551L20.1523 10.9922L20.1523 18.334C20.1523 19.8789 19.332 20.6855 17.9785 20.6855ZM12.2773 16.0508C12.0039 16.1602 11.7168 15.8867 11.8398 15.6133L12.4961 14.2598L18.9492 7.79297L20.1797 8.98242L13.6992 15.4629ZM20.7812 8.36719L19.5645 7.16406L20.1797 6.5625C20.4805 6.24805 20.9316 6.24805 21.2188 6.53516L21.3965 6.71289C21.6699 6.98633 21.6836 7.39648 21.3691 7.71094Z" fill="white"/>
 </g>
</svg>
