<?xml version="1.0" encoding="UTF-8"?>
<!--Generator: Apple Native CoreSVG 326-->
<!DOCTYPE svg
PUBLIC "-//W3C//DTD SVG 1.1//EN"
       "http://www.w3.org/Graphics/SVG/1.1/DTD/svg11.dtd">
<svg version="1.1" xmlns="http://www.w3.org/2000/svg" xmlns:xlink="http://www.w3.org/1999/xlink" viewBox="0 0 33.3115 32.8673">
 <g>
  <rect height="32.8673" opacity="0" width="33.3115" x="0" y="0"/>
  <path d="M6.76614 8.95252L5.82764 9.49515C5.39014 9.75492 5.2124 9.94632 5.2124 10.5342L5.2124 22.5108C5.2124 22.6475 5.29443 22.6885 5.43115 22.6202L8.43896 20.8862L8.43896 23.5196L6.27881 24.7666C4.36475 25.8741 2.98389 25.1358 2.98389 22.8389L2.98389 10.4522C2.98389 9.03031 3.44873 8.22367 4.6792 7.51273L5.0882 7.27631ZM18.6929 2.85062L18.6929 5.71296L16.4644 6.99832L16.4644 3.60257C16.4644 3.46585 16.3687 3.39749 16.2319 3.47953L11.521 6.20331L9.84411 4.52727L15.6304 1.18265C16.9839 0.417026 18.6929 0.909213 18.6929 2.85062Z" fill="white" fill-opacity="0.85"/>
  <path d="M10.8245 13.0067C10.7141 13.1647 10.6675 13.3654 10.6675 13.6787L10.6675 25.6553C10.6675 25.792 10.7495 25.833 10.8726 25.7647L14.2495 23.818L14.2495 26.4694L11.7339 27.9248C9.81982 29.0186 8.43896 28.2803 8.43896 25.9971L8.43896 13.5967C8.43896 12.6282 8.65883 11.9443 9.192 11.3759ZM24.1479 5.99515L24.1479 9.34727L21.9194 10.6354L21.9194 6.7471C21.9194 6.62406 21.8237 6.54203 21.687 6.62406L15.5104 10.1906L13.8342 8.51532L21.0718 4.34085C22.4253 3.56156 24.1479 4.06742 24.1479 5.99515Z" fill="white" fill-opacity="0.85"/>
  <path d="M16.478 18.6544L16.478 29.0733C16.478 29.21 16.5601 29.2647 16.6968 29.1963L23.2441 25.4134L24.9125 27.0801L17.5444 31.3428C15.6304 32.4502 14.2495 31.6983 14.2495 29.4151L14.2495 17.0147C14.2495 16.8172 14.2587 16.6316 14.2789 16.4575ZM29.9585 9.41312L29.9585 22.1553C29.9585 22.9995 29.8332 23.6164 29.4619 24.135L27.7167 22.3906C27.7261 22.3084 27.73 22.2172 27.73 22.1143L27.73 10.1651C27.73 10.042 27.6343 9.97367 27.5112 10.042L19.8106 14.4886L18.1407 12.8196L26.896 7.75882C28.2495 6.9932 29.9585 7.48539 29.9585 9.41312Z" fill="white" fill-opacity="0.85"/>
  <path d="M29.9175 29.8252C30.3413 30.2354 31.0112 30.2354 31.4077 29.8252C31.8179 29.4151 31.8315 28.7452 31.4077 28.335L4.96631 1.90726C4.55615 1.4971 3.88623 1.4971 3.4624 1.90726C3.06592 2.30374 3.06592 3.00101 3.4624 3.39749Z" fill="white" fill-opacity="0.85"/>
 </g>
</svg>
