<svg version="1.1" xmlns="http://www.w3.org/2000/svg" xmlns:xlink="http://www.w3.org/1999/xlink" viewBox="0 0 25.5254 25.1973">
 <g>
  
  <path d="M12.5918 5.89258C13.2344 5.89258 13.7676 5.35938 13.7676 4.7168C13.7676 4.07422 13.2344 3.54102 12.5918 3.54102C11.9492 3.54102 11.416 4.07422 11.416 4.7168C11.416 5.35938 11.9492 5.89258 12.5918 5.89258ZM12.5918 9.83008C13.2344 9.83008 13.7676 9.29688 13.7676 8.6543C13.7676 8.01172 13.2344 7.47852 12.5918 7.47852C11.9492 7.47852 11.416 8.01172 11.416 8.6543C11.416 9.29688 11.9492 9.83008 12.5918 9.83008ZM12.5918 13.7676C13.2344 13.7676 13.7676 13.2344 13.7676 12.5918C13.7676 11.9492 13.2344 11.416 12.5918 11.416C11.9492 11.416 11.416 11.9492 11.416 12.5918C11.416 13.2344 11.9492 13.7676 12.5918 13.7676ZM12.5918 17.7051C13.2344 17.7051 13.7676 17.1719 13.7676 16.5293C13.7676 15.8867 13.2344 15.3535 12.5918 15.3535C11.9492 15.3535 11.416 15.8867 11.416 16.5293C11.416 17.1719 11.9492 17.7051 12.5918 17.7051ZM12.5918 21.6289C13.2344 21.6289 13.7676 21.0957 13.7676 20.4531C13.7676 19.8105 13.2344 19.2773 12.5918 19.2773C11.9492 19.2773 11.416 19.8105 11.416 20.4531C11.416 21.0957 11.9492 21.6289 12.5918 21.6289ZM4.7168 13.7676C5.35938 13.7676 5.89258 13.2344 5.89258 12.5918C5.89258 11.9492 5.35938 11.416 4.7168 11.416C4.07422 11.416 3.54102 11.9492 3.54102 12.5918C3.54102 13.2344 4.07422 13.7676 4.7168 13.7676ZM8.6543 13.7676C9.29688 13.7676 9.83008 13.2344 9.83008 12.5918C9.83008 11.9492 9.29688 11.416 8.6543 11.416C8.01172 11.416 7.47852 11.9492 7.47852 12.5918C7.47852 13.2344 8.01172 13.7676 8.6543 13.7676ZM16.5156 13.7676C17.1582 13.7676 17.6914 13.2344 17.6914 12.5918C17.6914 11.9492 17.1582 11.416 16.5156 11.416C15.873 11.416 15.3398 11.9492 15.3398 12.5918C15.3398 13.2344 15.873 13.7676 16.5156 13.7676ZM20.4531 13.7676C21.0957 13.7676 21.6289 13.2344 21.6289 12.5918C21.6289 11.9492 21.0957 11.416 20.4531 11.416C19.8105 11.416 19.2773 11.9492 19.2773 12.5918C19.2773 13.2344 19.8105 13.7676 20.4531 13.7676ZM0 24.0898C0 24.7461 0.4375 25.1699 1.09375 25.1699L24.0898 25.1699C24.7461 25.1699 25.1699 24.7461 25.1699 24.0898L25.1699 1.09375C25.1699 0.4375 24.7461 0 24.0898 0L1.09375 0C0.4375 0 0 0.4375 0 1.09375ZM2.20117 22.5723L2.20117 2.59766C2.20117 2.31055 2.31055 2.20117 2.59766 2.20117L22.5723 2.20117C22.873 2.20117 22.9688 2.31055 22.9688 2.59766L22.9688 22.5723C22.9688 22.873 22.873 22.9688 22.5723 22.9688L2.59766 22.9688C2.31055 22.9688 2.20117 22.873 2.20117 22.5723Z" style="fill:var(--color-0,hsl(0 0 0/0.85))"></path>
 </g>
</svg>