<svg version="1.1" xmlns="http://www.w3.org/2000/svg" xmlns:xlink="http://www.w3.org/1999/xlink" viewBox="0 0 39.252 25.1973">
 <g>
  
  <path d="M30.0508 25.1973L36.2852 25.1973C38.0215 25.1973 38.8965 24.3359 38.8965 22.5312L38.8965 16.4062C38.8965 14.6152 38.0215 13.7402 36.2852 13.7402L30.0508 13.7402C28.3145 13.7402 27.4395 14.6152 27.4395 16.4062L27.4395 22.5312C27.4395 24.3359 28.3145 25.1973 30.0508 25.1973ZM30.0781 23.2695C29.5996 23.2695 29.3672 23.0234 29.3672 22.5312L29.3672 16.4199C29.3672 15.9141 29.5996 15.668 30.0781 15.668L36.2441 15.668C36.7363 15.668 36.9688 15.9141 36.9688 16.4199L36.9688 22.5312C36.9688 23.0234 36.7363 23.2695 36.2441 23.2695Z" style="fill:var(--color-0,hsl(0 0 0/0.85))"></path>
  <path d="M16.3379 25.1973L22.5586 25.1973C24.2949 25.1973 25.1699 24.3359 25.1699 22.5312L25.1699 16.4062C25.1699 14.6152 24.2949 13.7402 22.5586 13.7402L16.3379 13.7402C14.5879 13.7402 13.7129 14.6152 13.7129 16.4062L13.7129 22.5312C13.7129 24.3359 14.5879 25.1973 16.3379 25.1973ZM16.3652 23.2695C15.873 23.2695 15.6406 23.0234 15.6406 22.5312L15.6406 16.4199C15.6406 15.9141 15.873 15.668 16.3652 15.668L22.5312 15.668C23.0098 15.668 23.2422 15.9141 23.2422 16.4199L23.2422 22.5312C23.2422 23.0234 23.0098 23.2695 22.5312 23.2695Z" style="fill:var(--color-1,hsl(0 0 0/0.85))"></path>
  <path d="M2.61133 25.1973L8.8457 25.1973C10.582 25.1973 11.457 24.3359 11.457 22.5312L11.457 16.4062C11.457 14.6152 10.582 13.7402 8.8457 13.7402L2.61133 13.7402C0.875 13.7402 0 14.6152 0 16.4062L0 22.5312C0 24.3359 0.875 25.1973 2.61133 25.1973ZM2.63867 23.2695C2.16016 23.2695 1.92773 23.0234 1.92773 22.5312L1.92773 16.4199C1.92773 15.9141 2.16016 15.668 2.63867 15.668L8.80469 15.668C9.2832 15.668 9.5293 15.9141 9.5293 16.4199L9.5293 22.5312C9.5293 23.0234 9.2832 23.2695 8.80469 23.2695Z" style="fill:var(--color-2,hsl(0 0 0/0.85))"></path>
  <path d="M30.0508 11.4844L36.2852 11.4844C38.0215 11.4844 38.8965 10.6094 38.8965 8.80469L38.8965 2.69336C38.8965 0.888672 38.0215 0.0273438 36.2852 0.0273438L30.0508 0.0273438C28.3145 0.0273438 27.4395 0.888672 27.4395 2.69336L27.4395 8.80469C27.4395 10.6094 28.3145 11.4844 30.0508 11.4844ZM30.0781 9.55664C29.5996 9.55664 29.3672 9.31055 29.3672 8.80469L29.3672 2.69336C29.3672 2.20117 29.5996 1.95508 30.0781 1.95508L36.2441 1.95508C36.7363 1.95508 36.9688 2.20117 36.9688 2.69336L36.9688 8.80469C36.9688 9.31055 36.7363 9.55664 36.2441 9.55664Z" style="fill:var(--color-3,hsl(0 0 0/0.85))"></path>
  <path d="M16.3379 11.4844L22.5586 11.4844C24.2949 11.4844 25.1699 10.6094 25.1699 8.80469L25.1699 2.69336C25.1699 0.888672 24.2949 0.0273438 22.5586 0.0273438L16.3379 0.0273438C14.5879 0.0273438 13.7129 0.888672 13.7129 2.69336L13.7129 8.80469C13.7129 10.6094 14.5879 11.4844 16.3379 11.4844ZM16.3652 9.55664C15.873 9.55664 15.6406 9.31055 15.6406 8.80469L15.6406 2.69336C15.6406 2.20117 15.873 1.95508 16.3652 1.95508L22.5312 1.95508C23.0098 1.95508 23.2422 2.20117 23.2422 2.69336L23.2422 8.80469C23.2422 9.31055 23.0098 9.55664 22.5312 9.55664Z" style="fill:var(--color-4,hsl(0 0 0/0.85))"></path>
  <path d="M2.61133 11.4844L8.8457 11.4844C10.582 11.4844 11.457 10.6094 11.457 8.80469L11.457 2.69336C11.457 0.888672 10.582 0.0273438 8.8457 0.0273438L2.61133 0.0273438C0.875 0.0273438 0 0.888672 0 2.69336L0 8.80469C0 10.6094 0.875 11.4844 2.61133 11.4844ZM2.63867 9.55664C2.16016 9.55664 1.92773 9.31055 1.92773 8.80469L1.92773 2.69336C1.92773 2.20117 2.16016 1.95508 2.63867 1.95508L8.80469 1.95508C9.2832 1.95508 9.5293 2.20117 9.5293 2.69336L9.5293 8.80469C9.5293 9.31055 9.2832 9.55664 8.80469 9.55664Z" style="fill:var(--color-5,hsl(0 0 0/0.85))"></path>
 </g>
</svg>