<?xml version="1.0" encoding="UTF-8"?>
<!--Generator: Apple Native CoreSVG 326-->
<!DOCTYPE svg
PUBLIC "-//W3C//DTD SVG 1.1//EN"
       "http://www.w3.org/Graphics/SVG/1.1/DTD/svg11.dtd">
<svg version="1.1" xmlns="http://www.w3.org/2000/svg" xmlns:xlink="http://www.w3.org/1999/xlink" viewBox="0 0 34.6309 35.5332">
 <g>
  <rect height="35.5332" opacity="0" width="34.6309" x="0" y="0"/>
  <path d="M31.1035 24.4316C31.1035 25.1699 30.6797 25.6758 29.5723 26.3184L18.8809 32.5254C18.2109 32.9082 17.7051 33.0859 17.1309 33.0859C16.5703 33.0859 16.0508 32.9082 15.3945 32.5254L4.70312 26.3184C3.5957 25.6758 3.17188 25.1699 3.17188 24.4316C3.17188 23.9357 3.3562 23.5469 3.80107 23.1552L16.4473 30.502C16.6797 30.625 16.9258 30.707 17.1309 30.707C17.3496 30.707 17.5957 30.625 17.8281 30.502L30.4743 23.1552C30.9192 23.5469 31.1035 23.9357 31.1035 24.4316Z" fill="white" fill-opacity="0.85"/>
  <path d="M31.1035 18.1289C31.1035 18.8809 30.6797 19.373 29.5723 20.0156L18.8809 26.2363C18.2109 26.6191 17.7051 26.7969 17.1309 26.7969C16.5703 26.7969 16.0508 26.6191 15.3945 26.2363L4.70312 20.0156C3.5957 19.373 3.17188 18.8809 3.17188 18.1289C3.17188 17.6315 3.35735 17.2477 3.80518 16.8549L16.4473 24.1992C16.6797 24.3223 16.9258 24.4043 17.1309 24.4043C17.3496 24.4043 17.5957 24.3223 17.8281 24.1992L30.4702 16.8549C30.918 17.2477 31.1035 17.6315 31.1035 18.1289Z" fill="white" fill-opacity="0.85"/>
  <path d="M4.70312 13.4531L15.3945 19.6602C16.0508 20.043 16.5703 20.2207 17.1309 20.2207C17.7051 20.2207 18.2109 20.043 18.8809 19.6602L29.5723 13.4531C30.6797 12.8105 31.1035 12.3047 31.1035 11.5527C31.1035 10.8145 30.6797 10.3086 29.5723 9.66602L18.8809 3.45898C18.2109 3.07617 17.7051 2.89844 17.1309 2.89844C16.5703 2.89844 16.0508 3.07617 15.3945 3.45898L4.70312 9.66602C3.5957 10.3086 3.17188 10.8145 3.17188 11.5527C3.17188 12.3047 3.5957 12.8105 4.70312 13.4531ZM6.125 11.6895C5.98828 11.6211 5.98828 11.498 6.125 11.4297L16.5293 5.46875C16.7617 5.3457 16.9395 5.27734 17.1309 5.27734C17.3359 5.27734 17.5137 5.3457 17.7461 5.46875L28.1504 11.4297C28.2871 11.498 28.2871 11.6211 28.1504 11.6895L17.7461 17.6504C17.5137 17.7734 17.3496 17.8418 17.1309 17.8418C16.9258 17.8418 16.7617 17.7734 16.5293 17.6504Z" fill="white" fill-opacity="0.85"/>
 </g>
</svg>
