<svg version="1.1" xmlns="http://www.w3.org/2000/svg" xmlns:xlink="http://www.w3.org/1999/xlink" viewBox="0 0 32.0332 24.623">
 <g>
  
  <path d="M4.22461 17.582L27.4531 17.582C30.2832 17.582 31.6777 16.2012 31.6777 13.4121L31.6777 4.16992C31.6777 1.36719 30.2832 0 27.4531 0L4.22461 0C1.4082 0 0 1.36719 0 4.16992L0 13.4121C0 16.2012 1.4082 17.582 4.22461 17.582ZM4.25195 15.3809C2.91211 15.3809 2.20117 14.6973 2.20117 13.3027L2.20117 4.2793C2.20117 2.88477 2.91211 2.1875 4.25195 2.1875L27.4258 2.1875C28.7656 2.1875 29.4766 2.88477 29.4766 4.2793L29.4766 13.3027C29.4766 14.6973 28.7656 15.3809 27.4258 15.3809Z" style="fill:var(--color-0,hsl(0 0 0/0.85))"></path>
  <path d="M1.36719 24.5137L4.25195 24.5137C4.64844 24.5137 4.96289 24.2129 4.96289 23.8164L4.96289 20.959C4.96289 20.5352 4.66211 20.2344 4.25195 20.2344L1.36719 20.2344C0.929688 20.2344 0.642578 20.5352 0.642578 20.959L0.642578 23.8164C0.642578 24.2129 0.943359 24.5137 1.36719 24.5137ZM7.88867 24.5137L10.7734 24.5137C11.1699 24.5137 11.4844 24.2129 11.4844 23.8164L11.4844 20.959C11.4844 20.5352 11.1836 20.2344 10.7734 20.2344L7.88867 20.2344C7.45117 20.2344 7.16406 20.5352 7.16406 20.959L7.16406 23.8164C7.16406 24.2129 7.46484 24.5137 7.88867 24.5137ZM14.4102 24.5137L17.2949 24.5137C17.6914 24.5137 18.0059 24.2129 18.0059 23.8164L18.0059 20.959C18.0059 20.5352 17.7051 20.2344 17.2949 20.2344L14.4102 20.2344C13.9727 20.2344 13.6855 20.5352 13.6855 20.959L13.6855 23.8164C13.6855 24.2129 13.9863 24.5137 14.4102 24.5137ZM20.9316 24.5137L23.8164 24.5137C24.2129 24.5137 24.5273 24.2129 24.5273 23.8164L24.5273 20.959C24.5273 20.5352 24.2266 20.2344 23.8164 20.2344L20.9316 20.2344C20.4941 20.2344 20.207 20.5352 20.207 20.959L20.207 23.8164C20.207 24.2129 20.5078 24.5137 20.9316 24.5137ZM27.4531 24.5137L30.3379 24.5137C30.7344 24.5137 31.0488 24.2129 31.0488 23.8164L31.0488 20.959C31.0488 20.5352 30.748 20.2344 30.3379 20.2344L27.4531 20.2344C27.0156 20.2344 26.7285 20.5352 26.7285 20.959L26.7285 23.8164C26.7285 24.2129 27.0293 24.5137 27.4531 24.5137Z" style="fill:var(--color-1,hsl(0 0 0/0.85))"></path>
 </g>
</svg>