<svg version="1.1" xmlns="http://www.w3.org/2000/svg" xmlns:xlink="http://www.w3.org/1999/xlink" viewBox="0 0 33.2568 32.6257">
 <g>
  
  <path d="M21.9331 6.84509L8.67139 6.84509C7.3042 6.84509 6.53857 7.58337 6.53857 9.00525L6.53857 24.5228C6.53857 25.9447 7.3042 26.6693 8.67139 26.6693L24.2437 26.6693C25.6108 26.6693 26.3628 25.9447 26.3628 24.5228L26.3628 11.3814L28.564 9.17622L28.564 24.6322C28.564 27.4623 27.1284 28.8705 24.271 28.8705L8.63037 28.8705C5.78662 28.8705 4.3374 27.4623 4.3374 24.6322L4.3374 8.8822C4.3374 6.06579 5.78662 4.64392 8.63037 4.64392L24.1343 4.64392Z" style="fill:var(--color-0,hsl(0 0 0/0.85))"></path>
  <path d="M13.6069 20.0111L16.2729 18.849L29.0425 6.09314L27.1694 4.24743L14.4136 17.0033L13.1831 19.5736C13.0737 19.806 13.3472 20.1205 13.6069 20.0111ZM30.0542 5.09509L31.0386 4.08337C31.5034 3.59118 31.5034 2.93493 31.0386 2.48376L30.7241 2.15564C30.3003 1.73181 29.6304 1.7865 29.1792 2.224L28.1812 3.20837Z" style="fill:var(--color-1,hsl(0 0 0/0.85))"></path>
 </g>
</svg>