<svg version="1.1" xmlns="http://www.w3.org/2000/svg" xmlns:xlink="http://www.w3.org/1999/xlink" viewBox="0 0 29.873 29.4629">
 <g>
  
  <path d="M1.43555 6.43945L6.4668 1.42188C7.02734 0.861328 6.84961 0 5.97461 0L1.12109 0C0.328125 0 0 0.369141 0 1.13477L0 5.97461C0 6.82227 0.847656 7.01367 1.43555 6.43945ZM28.082 6.43945C28.6699 7.01367 29.5176 6.82227 29.5176 5.97461L29.5176 1.12109C29.5176 0.369141 29.1895 0 28.3965 0L23.5293 0C22.668 0 22.4902 0.861328 23.0508 1.42188ZM1.43555 23.0098C0.847656 22.4219 0 22.627 0 23.4746L0 28.3281C0 29.0664 0.328125 29.4355 1.10742 29.4355L5.97461 29.4355C6.84961 29.4355 7.02734 28.5879 6.4668 28.0273ZM28.082 23.0098L23.0508 28.0273C22.4902 28.5879 22.668 29.4355 23.5293 29.4355L28.3965 29.4355C29.1895 29.4355 29.5176 29.0664 29.5176 28.3281L29.5176 23.4746C29.5176 22.627 28.6699 22.4219 28.082 23.0098Z" style="fill:var(--color-0,hsl(0 0 0/0.85))"></path>
  <path d="M9.65234 24.1172L19.8652 24.1172C22.7227 24.1172 24.1445 22.6953 24.1445 19.8789L24.1445 9.57031C24.1445 6.74023 22.7227 5.33203 19.8652 5.33203L9.65234 5.33203C6.79492 5.33203 5.35938 6.75391 5.35938 9.57031L5.35938 19.8789C5.35938 22.6953 6.79492 24.1172 9.65234 24.1172ZM9.69336 21.916C8.32617 21.916 7.56055 21.1777 7.56055 19.7559L7.56055 9.67969C7.56055 8.25781 8.32617 7.5332 9.69336 7.5332L19.8242 7.5332C21.1777 7.5332 21.9434 8.25781 21.9434 9.67969L21.9434 19.7559C21.9434 21.1777 21.1777 21.916 19.8242 21.916Z" style="fill:var(--color-1,hsl(0 0 0/0.85))"></path>
 </g>
</svg>