<svg version="1.1" xmlns="http://www.w3.org/2000/svg" xmlns:xlink="http://www.w3.org/1999/xlink" viewBox="0 0 25.5391 25.2793">
 <g>
  
  <path d="M1.17578 25.2793C1.81836 25.2793 2.35156 24.7461 2.35156 24.1035C2.35156 23.4609 1.81836 22.9277 1.17578 22.9277C0.533203 22.9277 0 23.4609 0 24.1035C0 24.7461 0.533203 25.2793 1.17578 25.2793ZM1.17578 21.4648C1.81836 21.4648 2.35156 20.9316 2.35156 20.2891C2.35156 19.6328 1.81836 19.1133 1.17578 19.1133C0.533203 19.1133 0 19.6328 0 20.2891C0 20.9316 0.533203 21.4648 1.17578 21.4648ZM1.17578 17.6367C1.81836 17.6367 2.35156 17.1035 2.35156 16.4609C2.35156 15.8184 1.81836 15.2852 1.17578 15.2852C0.533203 15.2852 0 15.8184 0 16.4609C0 17.1035 0.533203 17.6367 1.17578 17.6367ZM1.17578 13.8086C1.81836 13.8086 2.35156 13.2754 2.35156 12.6328C2.35156 11.9902 1.81836 11.457 1.17578 11.457C0.533203 11.457 0 11.9902 0 12.6328C0 13.2754 0.533203 13.8086 1.17578 13.8086ZM5.00391 13.8086C5.64648 13.8086 6.17969 13.2754 6.17969 12.6328C6.17969 11.9902 5.64648 11.457 5.00391 11.457C4.36133 11.457 3.82812 11.9902 3.82812 12.6328C3.82812 13.2754 4.36133 13.8086 5.00391 13.8086ZM8.81836 13.8086C9.46094 13.8086 9.99414 13.2754 9.99414 12.6328C9.99414 11.9902 9.46094 11.457 8.81836 11.457C8.17578 11.457 7.64258 11.9902 7.64258 12.6328C7.64258 13.2754 8.17578 13.8086 8.81836 13.8086ZM12.6465 13.8086C13.2891 13.8086 13.8223 13.2754 13.8223 12.6328C13.8223 11.9902 13.2891 11.457 12.6465 11.457C12.0039 11.457 11.4707 11.9902 11.4707 12.6328C11.4707 13.2754 12.0039 13.8086 12.6465 13.8086ZM12.6465 17.6367C13.2891 17.6367 13.8223 17.1035 13.8223 16.4609C13.8223 15.8184 13.2891 15.2852 12.6465 15.2852C12.0039 15.2852 11.4707 15.8184 11.4707 16.4609C11.4707 17.1035 12.0039 17.6367 12.6465 17.6367ZM12.6465 21.4648C13.2891 21.4648 13.8223 20.9316 13.8223 20.2891C13.8223 19.6328 13.2891 19.1133 12.6465 19.1133C12.0039 19.1133 11.4707 19.6328 11.4707 20.2891C11.4707 20.9316 12.0039 21.4648 12.6465 21.4648ZM12.6465 25.2793C13.2891 25.2793 13.8223 24.7461 13.8223 24.1035C13.8223 23.4609 13.2891 22.9277 12.6465 22.9277C12.0039 22.9277 11.4707 23.4609 11.4707 24.1035C11.4707 24.7461 12.0039 25.2793 12.6465 25.2793ZM8.81836 25.2793C9.46094 25.2793 9.99414 24.7461 9.99414 24.1035C9.99414 23.4609 9.46094 22.9277 8.81836 22.9277C8.17578 22.9277 7.64258 23.4609 7.64258 24.1035C7.64258 24.7461 8.17578 25.2793 8.81836 25.2793ZM5.00391 25.2793C5.64648 25.2793 6.17969 24.7461 6.17969 24.1035C6.17969 23.4609 5.64648 22.9277 5.00391 22.9277C4.36133 22.9277 3.82812 23.4609 3.82812 24.1035C3.82812 24.7461 4.36133 25.2793 5.00391 25.2793Z" style="fill:var(--color-0,hsl(0 0 0/0.85))"></path>
  <path d="M15.4082 25.2383L24.1035 25.2383C24.7598 25.2383 25.1836 24.8008 25.1836 24.1445L25.1836 3.37695L22.9824 5.53711L22.9824 22.6406C22.9824 22.9277 22.8867 23.0371 22.5859 23.0371L15.4082 23.0371ZM0.0136719 9.87109L2.21484 9.87109L2.21484 2.66602C2.21484 2.36523 2.32422 2.26953 2.61133 2.26953L19.4277 2.26953L21.6562 0.0683594L1.10742 0.0683594C0.451172 0.0683594 0.0136719 0.492188 0.0136719 1.14844Z" style="fill:var(--color-1,hsl(0 0 0/0.85))"></path>
  <path d="M24.5273 0.628906C24.1992 0.273438 23.6797 0.300781 23.3652 0.628906L18.416 5.49609L17.2129 4.25195C16.7754 3.81445 16.1191 4.06055 15.9961 4.67578L15.0527 9.0918C14.916 9.66602 15.4082 10.1309 15.9824 9.99414L20.3848 9.07812C21.0273 8.94141 21.2461 8.32617 20.8223 7.88867L19.5781 6.64453L24.5273 1.79102C24.8555 1.46289 24.8418 0.957031 24.5273 0.628906Z" style="fill:var(--color-2,hsl(0 0 0/0.85))"></path>
 </g>
</svg>