<?xml version="1.0" encoding="UTF-8"?>
<!--Generator: Apple Native CoreSVG 326-->
<!DOCTYPE svg
PUBLIC "-//W3C//DTD SVG 1.1//EN"
       "http://www.w3.org/Graphics/SVG/1.1/DTD/svg11.dtd">
<svg version="1.1" xmlns="http://www.w3.org/2000/svg" xmlns:xlink="http://www.w3.org/1999/xlink" viewBox="0 0 31.2676 30.9121">
 <g>
  <rect height="30.9121" opacity="0" width="31.2676" x="0" y="0"/>
  <path d="M3.17188 6.34375C3.55741 6.34375 3.92635 6.2754 4.26562 6.14653L4.26562 17.2066C3.92635 17.0768 3.55741 17.0078 3.17188 17.0078C2.78087 17.0078 2.40734 17.0777 2.06445 17.209L2.06445 6.14416C2.40734 6.27454 2.78087 6.34375 3.17188 6.34375Z" fill="white" fill-opacity="0.85"/>
  <path d="M9.61133 21.2734L6.13364 21.2734C6.26196 20.9336 6.33008 20.5646 6.33008 20.1797C6.33008 19.7897 6.26013 19.4159 6.12867 19.0723L9.61133 19.0723Z" fill="white" fill-opacity="0.85"/>
  <path d="M21.3008 9.65234L19.0996 9.65234L19.0996 6.14715C19.4395 6.27563 19.8085 6.34375 20.1934 6.34375C20.5834 6.34375 20.9571 6.2738 21.3008 6.14218Z" fill="white" fill-opacity="0.85"/>
  <path d="M17.0215 3.17188C17.0215 3.56288 17.0914 3.93641 17.2227 4.2793L6.13065 4.2793C6.26086 3.93641 6.33008 3.56288 6.33008 3.17188C6.33008 2.78634 6.26173 2.4174 6.13301 2.07813L17.2203 2.07812C17.0905 2.4174 17.0215 2.78634 17.0215 3.17188Z" fill="white" fill-opacity="0.85"/>
  <path d="M6.33008 20.1797C6.33008 21.9297 4.92188 23.3516 3.17188 23.3516C1.4082 23.3516 0 21.9297 0 20.1797C0 18.4297 1.4082 17.0078 3.17188 17.0078C4.92188 17.0078 6.33008 18.4297 6.33008 20.1797Z" fill="white" fill-opacity="0.85"/>
  <path d="" fill="white" fill-opacity="0.85"/>
  <path d="M23.3652 3.17188C23.3652 4.93555 21.9434 6.34375 20.1934 6.34375C18.4434 6.34375 17.0215 4.93555 17.0215 3.17188C17.0215 1.42188 18.4434 0.0136719 20.1934 0.0136719C21.9434 0.0136719 23.3652 1.42188 23.3652 3.17188Z" fill="white" fill-opacity="0.85"/>
  <path d="M6.33008 3.17188C6.33008 4.93555 4.92188 6.34375 3.17188 6.34375C1.4082 6.34375 0 4.93555 0 3.17188C0 1.42188 1.4082 0.0136719 3.17188 0.0136719C4.92188 0.0136719 6.33008 1.42188 6.33008 3.17188Z" fill="white" fill-opacity="0.85"/>
  <path d="M10.7188 13.918C11.1043 13.918 11.4732 13.8496 11.8125 13.7207L11.8125 24.7808C11.4732 24.651 11.1043 24.582 10.7188 24.582C10.3277 24.582 9.95421 24.6519 9.61133 24.7832L9.61133 13.7184C9.95421 13.8488 10.3277 13.918 10.7188 13.918Z" fill="white" fill-opacity="0.85"/>
  <path d="M24.5684 27.7539C24.5684 28.1394 24.6374 28.5084 24.7671 28.8477L13.6799 28.8477C13.8086 28.5084 13.877 28.1394 13.877 27.7539C13.877 27.3639 13.807 26.9902 13.6755 26.6465L24.7715 26.6465C24.639 26.9902 24.5684 27.3639 24.5684 27.7539Z" fill="white" fill-opacity="0.85"/>
  <path d="M28.8477 24.7852C28.504 24.6527 28.1303 24.582 27.7402 24.582C27.3553 24.582 26.9863 24.6508 26.6465 24.7802L26.6465 13.7214C26.9863 13.8499 27.3553 13.918 27.7402 13.918C28.1303 13.918 28.504 13.848 28.8477 13.7164Z" fill="white" fill-opacity="0.85"/>
  <path d="M24.5684 10.7461C24.5684 11.1371 24.6382 11.5106 24.7695 11.8535L13.6775 11.8535C13.8077 11.5106 13.877 11.1371 13.877 10.7461C13.877 10.3606 13.8086 9.99162 13.6799 9.65234L24.7671 9.65234C24.6374 9.99162 24.5684 10.3606 24.5684 10.7461Z" fill="white" fill-opacity="0.85"/>
  <path d="M13.877 27.7539C13.877 29.5039 12.4688 30.9121 10.7188 30.9121C8.95508 30.9121 7.54688 29.5039 7.54688 27.7539C7.54688 26.0039 8.95508 24.582 10.7188 24.582C12.4688 24.582 13.877 26.0039 13.877 27.7539Z" fill="white" fill-opacity="0.85"/>
  <path d="M30.9121 27.7539C30.9121 29.5039 29.4902 30.9121 27.7402 30.9121C25.9902 30.9121 24.5684 29.5039 24.5684 27.7539C24.5684 26.0039 25.9902 24.582 27.7402 24.582C29.4902 24.582 30.9121 26.0039 30.9121 27.7539Z" fill="white" fill-opacity="0.85"/>
  <path d="M30.9121 10.7461C30.9121 12.5098 29.4902 13.918 27.7402 13.918C25.9902 13.918 24.5684 12.5098 24.5684 10.7461C24.5684 8.99609 25.9902 7.58789 27.7402 7.58789C29.4902 7.58789 30.9121 8.99609 30.9121 10.7461Z" fill="white" fill-opacity="0.85"/>
  <path d="M10.7188 13.918C12.4688 13.918 13.877 12.5098 13.877 10.7461C13.877 8.99609 12.4688 7.58789 10.7188 7.58789C8.95508 7.58789 7.54688 8.99609 7.54688 10.7461C7.54688 12.5098 8.95508 13.918 10.7188 13.918Z" fill="white" fill-opacity="0.85"/>
 </g>
</svg>
