<?xml version="1.0" encoding="UTF-8"?>
<!--Generator: Apple Native CoreSVG 326-->
<!DOCTYPE svg
PUBLIC "-//W3C//DTD SVG 1.1//EN"
       "http://www.w3.org/Graphics/SVG/1.1/DTD/svg11.dtd">
<svg version="1.1" xmlns="http://www.w3.org/2000/svg" xmlns:xlink="http://www.w3.org/1999/xlink" viewBox="0 0 37.2559 35.1504">
 <g>
  <rect height="35.1504" opacity="0" width="37.2559" x="0" y="0"/>
  <path d="M12.3047 30.2559C12.3047 30.7891 11.8672 31.2266 11.334 31.2266C10.8008 31.2266 10.3633 30.7891 10.3633 30.2559C10.3633 29.7227 10.8008 29.2852 11.334 29.2852C11.8672 29.2852 12.3047 29.7227 12.3047 30.2559ZM10.8965 27.7129C10.8965 28.2461 10.459 28.6836 9.92578 28.6836C9.39258 28.6836 8.95508 28.2461 8.95508 27.7129C8.95508 27.1797 9.39258 26.7422 9.92578 26.7422C10.459 26.7422 10.8965 27.1797 10.8965 27.7129ZM9.47461 25.1699C9.47461 25.7031 9.03711 26.1406 8.50391 26.1406C7.9707 26.1406 7.5332 25.7031 7.5332 25.1699C7.5332 24.6367 7.9707 24.1992 8.50391 24.1992C9.03711 24.1992 9.47461 24.6367 9.47461 25.1699ZM8.03906 22.6543C8.03906 23.1875 7.60156 23.625 7.06836 23.625C6.53516 23.625 6.09766 23.1875 6.09766 22.6543C6.09766 22.1074 6.53516 21.6836 7.06836 21.6836C7.60156 21.6836 8.03906 22.1074 8.03906 22.6543ZM6.63086 20.0977C6.63086 20.6309 6.19336 21.0684 5.66016 21.0684C5.11328 21.0684 4.68945 20.6309 4.68945 20.0977C4.68945 19.5645 5.11328 19.127 5.66016 19.127C6.19336 19.127 6.63086 19.5645 6.63086 20.0977ZM5.19531 17.5684C5.19531 18.1016 4.75781 18.5391 4.22461 18.5391C3.69141 18.5391 3.25391 18.1016 3.25391 17.5684C3.25391 17.0352 3.69141 16.5977 4.22461 16.5977C4.75781 16.5977 5.19531 17.0352 5.19531 17.5684ZM6.63086 15.0391C6.63086 15.5723 6.19336 16.0098 5.66016 16.0098C5.11328 16.0098 4.68945 15.5723 4.68945 15.0391C4.68945 14.4922 5.11328 14.0547 5.66016 14.0547C6.19336 14.0547 6.63086 14.4922 6.63086 15.0391ZM8.03906 12.4824C8.03906 13.0156 7.60156 13.4531 7.06836 13.4531C6.53516 13.4531 6.09766 13.0156 6.09766 12.4824C6.09766 11.9492 6.53516 11.5117 7.06836 11.5117C7.60156 11.5117 8.03906 11.9492 8.03906 12.4824ZM9.47461 9.9668C9.47461 10.5 9.03711 10.9375 8.50391 10.9375C7.9707 10.9375 7.5332 10.5 7.5332 9.9668C7.5332 9.43359 7.9707 8.99609 8.50391 8.99609C9.03711 8.99609 9.47461 9.43359 9.47461 9.9668ZM10.8965 7.41016C10.8965 7.95703 10.459 8.38086 9.92578 8.38086C9.39258 8.38086 8.95508 7.95703 8.95508 7.41016C8.95508 6.87695 9.39258 6.43945 9.92578 6.43945C10.459 6.43945 10.8965 6.87695 10.8965 7.41016ZM12.3047 4.88086C12.3047 5.41406 11.8672 5.85156 11.334 5.85156C10.8008 5.85156 10.3633 5.41406 10.3633 4.88086C10.3633 4.34766 10.8008 3.91016 11.334 3.91016C11.8672 3.91016 12.3047 4.34766 12.3047 4.88086Z" fill="white" fill-opacity="0.85"/>
  <path d="M19.4531 4.21887L11.9902 17.0488C11.8672 17.2539 11.8125 17.4043 11.8125 17.5684C11.8125 17.7051 11.8672 17.8691 11.9902 18.0879L19.4531 30.9178C19.0691 31.3542 18.6886 31.541 18.1973 31.541C17.4453 31.541 16.9531 31.1035 16.2969 30.0098L10.0762 19.3047C9.69336 18.6484 9.51562 18.1152 9.51562 17.5684C9.51562 17.0078 9.67969 16.4883 10.0625 15.832L16.2969 5.12695C16.9531 4.0332 17.4453 3.5957 18.1973 3.5957C18.6886 3.5957 19.0691 3.78252 19.4531 4.21887Z" fill="white" fill-opacity="0.85"/>
  <path d="M24.8965 31.541C25.6484 31.541 26.1406 31.1035 26.7969 30.0098L33.0176 19.3047C33.4004 18.6484 33.5781 18.1152 33.5781 17.5684C33.5781 17.0078 33.4004 16.4883 33.0176 15.832L26.7969 5.12695C26.1406 4.0332 25.6484 3.5957 24.8965 3.5957C24.1445 3.5957 23.6523 4.0332 23.0098 5.12695L16.7754 15.832C16.3926 16.4883 16.2148 17.0078 16.2148 17.5684C16.2148 18.1152 16.3926 18.6484 16.7754 19.3047L23.0098 30.0098C23.6523 31.1035 24.1445 31.541 24.8965 31.541Z" fill="white" fill-opacity="0.85"/>
 </g>
</svg>
