<svg version="1.1" xmlns="http://www.w3.org/2000/svg" xmlns:xlink="http://www.w3.org/1999/xlink" viewBox="0 0 33.3115 32.8673">
 <g>
  
  <path d="M17.3257 1.18265L28.2769 7.51273C29.5073 8.22367 29.9585 9.03031 29.9585 10.4522L29.9585 22.8389C29.9585 23.4578 29.8592 23.9636 29.6736 24.3465L27.73 22.4039L27.73 10.5342C27.73 9.94632 27.5659 9.75492 27.1284 9.49515L16.7104 3.47953C16.5874 3.39749 16.478 3.46585 16.478 3.60257L16.478 6.995L14.2495 5.71125L14.2495 2.85062C14.2495 0.909213 15.9722 0.417026 17.3257 1.18265Z" style="fill:var(--color-0,hsl(0 0 0/0.85))"></path>
  <path d="M22.0698 25.7647C22.2065 25.833 22.2886 25.792 22.2886 25.6553L22.2886 24.4589L24.4717 26.6398C24.2314 28.4113 22.942 28.9076 21.2222 27.9248L18.6929 26.4615L18.6929 23.818ZM11.8706 4.34085L22.8354 10.6573C24.0522 11.3819 24.5171 12.1885 24.5171 13.5967L24.5171 19.1927L22.2886 16.9653L22.2886 13.6787C22.2886 13.0909 22.1108 12.8994 21.6733 12.6397L12.8655 7.54712L9.59902 4.2823C10.2185 3.8702 11.1019 3.89826 11.8706 4.34085Z" style="fill:var(--color-1,hsl(0 0 0/0.85))"></path>
  <path d="M5.27422 7.46214L11.1607 13.3425L5.44482 10.042C5.32178 9.97367 5.2124 10.042 5.2124 10.1651L5.2124 22.1143C5.2124 22.6612 5.33545 22.8799 5.80029 23.1534L16.2593 29.1963C16.3823 29.2647 16.4644 29.21 16.4644 29.0733L16.4644 18.6407L18.6929 20.8669L18.6929 29.4151C18.6929 31.6983 17.3257 32.4502 15.3979 31.3428L4.70654 25.1494C3.35303 24.3838 2.98389 23.6045 2.98389 22.1553L2.98389 9.41312C2.98389 7.84654 4.12154 7.228 5.27422 7.46214Z" style="fill:var(--color-2,hsl(0 0 0/0.85))"></path>
  <path d="M29.9175 29.8252C30.3413 30.2354 31.0112 30.2354 31.4077 29.8252C31.8179 29.4151 31.8315 28.7452 31.4077 28.335L4.96631 1.90726C4.55615 1.4971 3.88623 1.4971 3.4624 1.90726C3.06592 2.30374 3.06592 3.00101 3.4624 3.39749Z" style="fill:var(--color-3,hsl(0 0 0/0.85))"></path>
 </g>
</svg>