<?xml version="1.0" encoding="UTF-8"?>
<!--Generator: Apple Native CoreSVG 326-->
<!DOCTYPE svg
PUBLIC "-//W3C//DTD SVG 1.1//EN"
       "http://www.w3.org/Graphics/SVG/1.1/DTD/svg11.dtd">
<svg version="1.1" xmlns="http://www.w3.org/2000/svg" xmlns:xlink="http://www.w3.org/1999/xlink" viewBox="0 0 28.2461 27.9043">
 <g>
  <rect height="27.9043" opacity="0" width="28.2461" x="0" y="0"/>
  <path d="M13.9453 27.8906C21.6426 27.8906 27.8906 21.6289 27.8906 13.9453C27.8906 6.24805 21.6426 0 13.9453 0C6.26172 0 0 6.24805 0 13.9453C0 21.6289 6.26172 27.8906 13.9453 27.8906Z" fill="white" fill-opacity="0.85"/>
  <path d="M12.168 10.7051L9.9668 10.7051C9.35156 10.7051 9.03711 11.0059 9.03711 11.6484L9.03711 18.4707C9.03711 19.1133 9.35156 19.4141 9.9668 19.4141L17.9238 19.4141C18.5391 19.4141 18.8535 19.0996 18.8535 18.4707L18.8535 11.6484C18.8535 11.0059 18.5391 10.7051 17.9238 10.7051L15.7227 10.7051L15.7227 9.26953L17.9375 9.26953C19.4688 9.26953 20.2754 10.0488 20.2754 11.5801L20.2754 18.5117C20.2754 20.043 19.4688 20.8359 17.9375 20.8359L9.95312 20.8359C8.43555 20.8359 7.61523 20.0293 7.61523 18.5117L7.61523 11.5801C7.61523 10.0625 8.43555 9.26953 9.95312 9.26953L12.168 9.26953ZM14.4375 4.97656L16.8027 7.25977C16.9668 7.38281 17.0215 7.54688 17.0215 7.72461C17.0215 8.09375 16.748 8.33984 16.3652 8.33984C16.1602 8.33984 15.9824 8.27148 15.873 8.14844L15.2305 7.49219L14.6152 6.82227L14.6562 7.49219L14.6562 14.6152C14.6562 14.998 14.3281 15.2988 13.9453 15.2988C13.5625 15.2988 13.248 14.998 13.248 14.6152L13.248 7.49219L13.2754 6.82227L12.6465 7.49219L12.0176 8.14844C11.8945 8.27148 11.7168 8.33984 11.5117 8.33984C11.1562 8.33984 10.8828 8.09375 10.8828 7.72461C10.8828 7.54688 10.9238 7.39648 11.0879 7.24609L13.4395 4.97656C13.6035 4.8125 13.7676 4.73047 13.9453 4.73047C14.1094 4.73047 14.2734 4.79883 14.4375 4.97656Z" fill="white"/>
 </g>
</svg>
