<svg version="1.1" xmlns="http://www.w3.org/2000/svg" xmlns:xlink="http://www.w3.org/1999/xlink" viewBox="0 0 25.5254 25.1973">
 <g>
  
  <path d="M16.3379 25.1973L22.5586 25.1973C24.2949 25.1973 25.1699 24.3359 25.1699 22.5312L25.1699 16.4062C25.1699 14.6152 24.2949 13.7402 22.5586 13.7402L16.3379 13.7402C14.5879 13.7402 13.7129 14.6152 13.7129 16.4062L13.7129 22.5312C13.7129 24.3359 14.5879 25.1973 16.3379 25.1973Z" style="fill:var(--color-0,hsl(0 0 0/0.85))"></path>
  <path d="M2.61133 25.1973L8.8457 25.1973C10.582 25.1973 11.457 24.3359 11.457 22.5312L11.457 16.4062C11.457 14.6152 10.582 13.7402 8.8457 13.7402L2.61133 13.7402C0.875 13.7402 0 14.6152 0 16.4062L0 22.5312C0 24.3359 0.875 25.1973 2.61133 25.1973Z" style="fill:var(--color-1,hsl(0 0 0/0.85))"></path>
  <path d="M16.3379 11.4844L22.5586 11.4844C24.2949 11.4844 25.1699 10.6094 25.1699 8.80469L25.1699 2.69336C25.1699 0.888672 24.2949 0.0273438 22.5586 0.0273438L16.3379 0.0273438C14.5879 0.0273438 13.7129 0.888672 13.7129 2.69336L13.7129 8.80469C13.7129 10.6094 14.5879 11.4844 16.3379 11.4844Z" style="fill:var(--color-2,hsl(0 0 0/0.85))"></path>
  <path d="M2.61133 11.4844L8.8457 11.4844C10.582 11.4844 11.457 10.6094 11.457 8.80469L11.457 2.69336C11.457 0.888672 10.582 0.0273438 8.8457 0.0273438L2.61133 0.0273438C0.875 0.0273438 0 0.888672 0 2.69336L0 8.80469C0 10.6094 0.875 11.4844 2.61133 11.4844Z" style="fill:var(--color-3,hsl(0 0 0/0.85))"></path>
 </g>
</svg>