<?xml version="1.0" encoding="UTF-8"?>
<!--Generator: Apple Native CoreSVG 326-->
<!DOCTYPE svg
PUBLIC "-//W3C//DTD SVG 1.1//EN"
       "http://www.w3.org/Graphics/SVG/1.1/DTD/svg11.dtd">
<svg version="1.1" xmlns="http://www.w3.org/2000/svg" xmlns:xlink="http://www.w3.org/1999/xlink" viewBox="0 0 32.0332 31.6504">
 <g>
  <rect height="31.6504" opacity="0" width="32.0332" x="0" y="0"/>
  <path d="M13.166 20.248C14.1914 20.8496 15.0391 21.0547 15.832 21.0547C16.6387 21.0547 17.4863 20.8496 18.5117 20.248L23.7413 17.2158L28.2734 19.8379C29.3809 20.4941 29.8047 20.9863 29.8047 21.7383C29.8047 22.4902 29.3809 22.9824 28.2734 23.625L17.582 29.8457C16.9121 30.2285 16.3926 30.4062 15.832 30.4062C15.2852 30.4062 14.752 30.2285 14.0957 29.8457L3.4043 23.625C2.29688 22.9824 1.87305 22.4902 1.87305 21.7383C1.87305 20.9863 2.29688 20.4941 3.4043 19.8379L7.92877 17.2153Z" fill="white" fill-opacity="0.85"/>
  <path d="M15.832 19.1953C16.3926 19.1953 16.9121 19.0176 17.582 18.6348L28.2734 12.4277C29.3809 11.7715 29.8047 11.2793 29.8047 10.5273C29.8047 9.77539 29.3809 9.2832 28.2734 8.64062L17.582 2.41992C16.9121 2.03711 16.3926 1.85938 15.832 1.85938C15.2852 1.85938 14.752 2.03711 14.0957 2.41992L3.4043 8.64062C2.29688 9.2832 1.87305 9.77539 1.87305 10.5273C1.87305 11.2793 2.29688 11.7715 3.4043 12.4277L14.0957 18.6348C14.752 19.0176 15.2852 19.1953 15.832 19.1953Z" fill="white" fill-opacity="0.85"/>
 </g>
</svg>
