<?xml version="1.0" encoding="UTF-8"?>
<!--Generator: Apple Native CoreSVG 326-->
<!DOCTYPE svg
PUBLIC "-//W3C//DTD SVG 1.1//EN"
       "http://www.w3.org/Graphics/SVG/1.1/DTD/svg11.dtd">
<svg version="1.1" xmlns="http://www.w3.org/2000/svg" xmlns:xlink="http://www.w3.org/1999/xlink" viewBox="0 0 25.5254 25.1973">
 <g>
  <rect height="25.1973" opacity="0" width="25.5254" x="0" y="0"/>
  <path d="M0 24.0898C0 24.7461 0.4375 25.1699 1.09375 25.1699L24.0898 25.1699C24.7461 25.1699 25.1699 24.7461 25.1699 24.0898L25.1699 1.09375C25.1699 0.4375 24.7461 0 24.0898 0L1.09375 0C0.4375 0 0 0.4375 0 1.09375ZM2.20117 22.5723L2.20117 2.59766C2.20117 2.31055 2.31055 2.20117 2.59766 2.20117L22.5723 2.20117C22.873 2.20117 22.9688 2.31055 22.9688 2.59766L22.9688 22.5723C22.9688 22.873 22.873 22.9688 22.5723 22.9688L2.59766 22.9688C2.31055 22.9688 2.20117 22.873 2.20117 22.5723Z" fill="white" fill-opacity="0.85"/>
 </g>
</svg>
