<?xml version="1.0" encoding="UTF-8"?>
<!--Generator: Apple Native CoreSVG 326-->
<!DOCTYPE svg
PUBLIC "-//W3C//DTD SVG 1.1//EN"
       "http://www.w3.org/Graphics/SVG/1.1/DTD/svg11.dtd">
<svg version="1.1" xmlns="http://www.w3.org/2000/svg" xmlns:xlink="http://www.w3.org/1999/xlink" viewBox="0 0 29.5586 20.9863">
 <g>
  <rect height="20.9863" opacity="0" width="29.5586" x="0" y="0"/>
  <path d="M25.7578 20.9863L28.0137 20.9863C28.8887 20.9863 29.2031 20.6719 29.2031 19.7969L29.2031 17.541C29.2031 16.666 28.8887 16.3516 28.0137 16.3516L25.7578 16.3516C24.8828 16.3516 24.5684 16.666 24.5684 17.541L24.5684 19.7969C24.5684 20.6719 24.8828 20.9863 25.7578 20.9863Z" fill="white" fill-opacity="0.85"/>
  <path d="M17.582 20.9863L19.8516 20.9863C20.7129 20.9863 21.0273 20.6719 21.0273 19.7969L21.0273 17.541C21.0273 16.666 20.7129 16.3516 19.8516 16.3516L17.582 16.3516C16.7207 16.3516 16.4062 16.666 16.4062 17.541L16.4062 19.7969C16.4062 20.6719 16.7207 20.9863 17.582 20.9863Z" fill="white" fill-opacity="0.85"/>
  <path d="M9.41992 20.9863L11.6895 20.9863C12.5508 20.9863 12.8652 20.6719 12.8652 19.7969L12.8652 17.541C12.8652 16.666 12.5508 16.3516 11.6895 16.3516L9.41992 16.3516C8.54492 16.3516 8.23047 16.666 8.23047 17.541L8.23047 19.7969C8.23047 20.6719 8.54492 20.9863 9.41992 20.9863Z" fill="white" fill-opacity="0.85"/>
  <path d="M1.24414 20.9863L3.51367 20.9863C4.38867 20.9863 4.70312 20.6719 4.70312 19.7969L4.70312 17.541C4.70312 16.666 4.38867 16.3516 3.51367 16.3516L1.24414 16.3516C0.382812 16.3516 0.0683594 16.666 0.0683594 17.541L0.0683594 19.7969C0.0683594 20.6719 0.382812 20.9863 1.24414 20.9863Z" fill="white" fill-opacity="0.85"/>
  <path d="M25.7578 12.8105L28.0137 12.8105C28.8887 12.8105 29.2031 12.4961 29.2031 11.6348L29.2031 9.36523C29.2031 8.50391 28.8887 8.18945 28.0137 8.18945L25.7578 8.18945C24.8828 8.18945 24.5684 8.50391 24.5684 9.36523L24.5684 11.6348C24.5684 12.4961 24.8828 12.8105 25.7578 12.8105Z" fill="white" fill-opacity="0.85"/>
  <path d="M17.582 12.8105L19.8516 12.8105C20.7129 12.8105 21.0273 12.4961 21.0273 11.6348L21.0273 9.36523C21.0273 8.50391 20.7129 8.18945 19.8516 8.18945L17.582 8.18945C16.7207 8.18945 16.4062 8.50391 16.4062 9.36523L16.4062 11.6348C16.4062 12.4961 16.7207 12.8105 17.582 12.8105Z" fill="white" fill-opacity="0.85"/>
  <path d="M9.41992 12.8105L11.6895 12.8105C12.5508 12.8105 12.8652 12.4961 12.8652 11.6348L12.8652 9.36523C12.8652 8.50391 12.5508 8.18945 11.6895 8.18945L9.41992 8.18945C8.54492 8.18945 8.23047 8.50391 8.23047 9.36523L8.23047 11.6348C8.23047 12.4961 8.54492 12.8105 9.41992 12.8105Z" fill="white" fill-opacity="0.85"/>
  <path d="M1.24414 12.8105L3.51367 12.8105C4.38867 12.8105 4.70312 12.4961 4.70312 11.6348L4.70312 9.36523C4.70312 8.50391 4.38867 8.18945 3.51367 8.18945L1.24414 8.18945C0.382812 8.18945 0.0683594 8.50391 0.0683594 9.36523L0.0683594 11.6348C0.0683594 12.4961 0.382812 12.8105 1.24414 12.8105Z" fill="white" fill-opacity="0.85"/>
  <path d="M25.6758 4.64844L27.9453 4.64844C28.8203 4.64844 29.1348 4.33398 29.1348 3.47266L29.1348 1.20312C29.1348 0.328125 28.8203 0.0136719 27.9453 0.0136719L25.6758 0.0136719C24.8145 0.0136719 24.5 0.328125 24.5 1.20312L24.5 3.47266C24.5 4.33398 24.8145 4.64844 25.6758 4.64844Z" fill="white" fill-opacity="0.85"/>
  <path d="M17.5137 4.64844L19.7832 4.64844C20.6445 4.64844 20.959 4.33398 20.959 3.47266L20.959 1.20312C20.959 0.328125 20.6445 0.0136719 19.7832 0.0136719L17.5137 0.0136719C16.6523 0.0136719 16.3379 0.328125 16.3379 1.20312L16.3379 3.47266C16.3379 4.33398 16.6523 4.64844 17.5137 4.64844Z" fill="white" fill-opacity="0.85"/>
  <path d="M9.35156 4.64844L11.6211 4.64844C12.4824 4.64844 12.7969 4.33398 12.7969 3.47266L12.7969 1.20312C12.7969 0.328125 12.4824 0.0136719 11.6211 0.0136719L9.35156 0.0136719C8.47656 0.0136719 8.16211 0.328125 8.16211 1.20312L8.16211 3.47266C8.16211 4.33398 8.47656 4.64844 9.35156 4.64844Z" fill="white" fill-opacity="0.85"/>
  <path d="M1.17578 4.64844L3.44531 4.64844C4.32031 4.64844 4.63477 4.33398 4.63477 3.47266L4.63477 1.20312C4.63477 0.328125 4.32031 0.0136719 3.44531 0.0136719L1.17578 0.0136719C0.314453 0.0136719 0 0.328125 0 1.20312L0 3.47266C0 4.33398 0.314453 4.64844 1.17578 4.64844Z" fill="white" fill-opacity="0.85"/>
 </g>
</svg>
