<?xml version="1.0" encoding="UTF-8"?>
<!--Generator: Apple Native CoreSVG 326-->
<!DOCTYPE svg
PUBLIC "-//W3C//DTD SVG 1.1//EN"
       "http://www.w3.org/Graphics/SVG/1.1/DTD/svg11.dtd">
<svg version="1.1" xmlns="http://www.w3.org/2000/svg" xmlns:xlink="http://www.w3.org/1999/xlink" viewBox="0 0 27.166 26.3184">
 <g>
  <rect height="26.3184" opacity="0" width="27.166" x="0" y="0"/>
  <path d="M21.4238 26.2637L24.4453 26.2637C25.9355 26.2637 26.8105 25.3887 26.8105 23.8438L26.8105 20.9316C26.8105 19.3867 25.9355 18.5117 24.4453 18.5117L21.4238 18.5117C19.9336 18.5117 19.0586 19.3867 19.0586 20.9316L19.0586 23.8438C19.0586 25.3887 19.9336 26.2637 21.4238 26.2637Z" fill="white" fill-opacity="0.85"/>
  <path d="M11.8809 26.2637L14.916 26.2637C16.4062 26.2637 17.2676 25.3887 17.2676 23.8438L17.2676 20.9316C17.2676 19.3867 16.4062 18.5117 14.916 18.5117L11.8809 18.5117C10.3906 18.5117 9.5293 19.3867 9.5293 20.9316L9.5293 23.8438C9.5293 25.3887 10.3906 26.2637 11.8809 26.2637Z" fill="white" fill-opacity="0.85"/>
  <path d="M2.36523 26.2637L5.38672 26.2637C6.87695 26.2637 7.75195 25.3887 7.75195 23.8438L7.75195 20.9316C7.75195 19.3867 6.87695 18.5117 5.38672 18.5117L2.36523 18.5117C0.875 18.5117 0 19.3867 0 20.9316L0 23.8438C0 25.3887 0.875 26.2637 2.36523 26.2637Z" fill="white" fill-opacity="0.85"/>
  <path d="M21.4238 17.0078L24.4453 17.0078C25.9355 17.0078 26.8105 16.1465 26.8105 14.6016L26.8105 11.6758C26.8105 10.1309 25.9355 9.25586 24.4453 9.25586L21.4238 9.25586C19.9336 9.25586 19.0586 10.1309 19.0586 11.6758L19.0586 14.6016C19.0586 16.1465 19.9336 17.0078 21.4238 17.0078Z" fill="white" fill-opacity="0.85"/>
  <path d="M11.8809 17.0078L14.916 17.0078C16.4062 17.0078 17.2676 16.1465 17.2676 14.6016L17.2676 11.6758C17.2676 10.1309 16.4062 9.25586 14.916 9.25586L11.8809 9.25586C10.3906 9.25586 9.5293 10.1309 9.5293 11.6758L9.5293 14.6016C9.5293 16.1465 10.3906 17.0078 11.8809 17.0078Z" fill="white" fill-opacity="0.85"/>
  <path d="M2.36523 17.0078L5.38672 17.0078C6.87695 17.0078 7.75195 16.1465 7.75195 14.6016L7.75195 11.6758C7.75195 10.1309 6.87695 9.25586 5.38672 9.25586L2.36523 9.25586C0.875 9.25586 0 10.1309 0 11.6758L0 14.6016C0 16.1465 0.875 17.0078 2.36523 17.0078Z" fill="white" fill-opacity="0.85"/>
  <path d="M21.4238 7.75195L24.4453 7.75195C25.9355 7.75195 26.8105 6.87695 26.8105 5.33203L26.8105 2.41992C26.8105 0.875 25.9355 0 24.4453 0L21.4238 0C19.9336 0 19.0586 0.875 19.0586 2.41992L19.0586 5.33203C19.0586 6.87695 19.9336 7.75195 21.4238 7.75195Z" fill="white" fill-opacity="0.85"/>
  <path d="M11.8809 7.75195L14.916 7.75195C16.4062 7.75195 17.2676 6.87695 17.2676 5.33203L17.2676 2.41992C17.2676 0.875 16.4062 0 14.916 0L11.8809 0C10.3906 0 9.5293 0.875 9.5293 2.41992L9.5293 5.33203C9.5293 6.87695 10.3906 7.75195 11.8809 7.75195Z" fill="white" fill-opacity="0.85"/>
  <path d="M2.36523 7.75195L5.38672 7.75195C6.87695 7.75195 7.75195 6.87695 7.75195 5.33203L7.75195 2.41992C7.75195 0.875 6.87695 0 5.38672 0L2.36523 0C0.875 0 0 0.875 0 2.41992L0 5.33203C0 6.87695 0.875 7.75195 2.36523 7.75195Z" fill="white" fill-opacity="0.85"/>
 </g>
</svg>
