<svg version="1.1" xmlns="http://www.w3.org/2000/svg" xmlns:xlink="http://www.w3.org/1999/xlink" viewBox="0 0 28.2461 27.9043">
 <g>
  
  <path d="M13.9453 27.8906C21.6426 27.8906 27.8906 21.6289 27.8906 13.9453C27.8906 6.24805 21.6426 0 13.9453 0C6.26172 0 0 6.24805 0 13.9453C0 21.6289 6.26172 27.8906 13.9453 27.8906Z" style="fill:var(--color-0,#ffcc00)"></path>
  <path d="M9.89844 21.2324C9.07812 21.8613 8.20312 21.2188 8.53125 20.248L10.1172 15.4766L6.0293 12.5645C5.26367 12.0039 5.52344 10.9102 6.5625 10.9238L11.5801 10.9648L13.1113 6.16602C13.4121 5.22266 14.4785 5.22266 14.7793 6.16602L16.3105 10.9648L21.3281 10.9238C22.3809 10.9102 22.6133 12.0176 21.8613 12.5508L17.7734 15.4766L19.373 20.248C19.6875 21.2188 18.8262 21.8613 17.9922 21.2324L13.9453 18.2793Z" style="fill:var(--color-1,white)"></path>
 </g>
</svg>