<?xml version="1.0" encoding="UTF-8"?>
<!--Generator: Apple Native CoreSVG 326-->
<!DOCTYPE svg
PUBLIC "-//W3C//DTD SVG 1.1//EN"
       "http://www.w3.org/Graphics/SVG/1.1/DTD/svg11.dtd">
<svg version="1.1" xmlns="http://www.w3.org/2000/svg" xmlns:xlink="http://www.w3.org/1999/xlink" viewBox="0 0 25.5254 25.1699">
 <g>
  <rect height="25.1699" opacity="0" width="25.5254" x="0" y="0"/>
  <path d="M4.29297 25.1699L20.877 25.1699C23.748 25.1699 25.1699 23.7617 25.1699 20.9453L25.1699 4.23828C25.1699 1.42188 23.748 0 20.877 0L4.29297 0C1.43555 0 0 1.42188 0 4.23828L0 20.9453C0 23.7617 1.43555 25.1699 4.29297 25.1699Z" fill="#ffd60a"/>
  <path d="M8.54492 19.8652C7.72461 20.4941 6.84961 19.8516 7.17773 18.8809L8.76367 14.1094L4.67578 11.1973C3.91016 10.6367 4.16992 9.54297 5.20898 9.55664L10.2266 9.59766L11.7578 4.79883C12.0586 3.85547 13.125 3.85547 13.4258 4.79883L14.957 9.59766L19.9746 9.55664C21.0273 9.54297 21.2598 10.6504 20.5078 11.1836L16.4199 14.1094L18.0195 18.8809C18.334 19.8516 17.4727 20.4941 16.6387 19.8652L12.5918 16.9121Z" fill="white"/>
 </g>
</svg>
