<?xml version="1.0" encoding="UTF-8"?>
<!--Generator: Apple Native CoreSVG 326-->
<!DOCTYPE svg
PUBLIC "-//W3C//DTD SVG 1.1//EN"
       "http://www.w3.org/Graphics/SVG/1.1/DTD/svg11.dtd">
<svg version="1.1" xmlns="http://www.w3.org/2000/svg" xmlns:xlink="http://www.w3.org/1999/xlink" viewBox="0 0 30.7233 30.9668">
 <g>
  <rect height="30.9668" opacity="0" width="30.7233" x="0" y="0"/>
  <path d="M5.82553 28.7656C6.38608 29.2031 7.09702 29.0527 7.94467 28.4375L15.1771 23.1191L22.4232 28.4375C23.2708 29.0527 23.9681 29.2031 24.5423 28.7656C25.1029 28.3418 25.2259 27.6445 24.8841 26.6465L22.0267 18.1426L29.3275 12.8926C30.1751 12.291 30.5169 11.6621 30.2982 10.9785C30.0794 10.3223 29.4369 9.99414 28.3841 10.0078L19.429 10.0625L16.7083 1.51758C16.3802 0.505859 15.888 0 15.1771 0C14.4798 0 13.9876 0.505859 13.6595 1.51758L10.9388 10.0625L1.98374 10.0078C0.931002 9.99414 0.288423 10.3223 0.0696735 10.9785C-0.162748 11.6621 0.19272 12.291 1.04038 12.8926L8.34116 18.1426L5.48374 26.6465C5.14194 27.6445 5.26499 28.3418 5.82553 28.7656ZM7.79428 26.0586C7.76694 26.0312 7.78061 26.0176 7.79428 25.9355L10.515 18.1152C10.7064 17.582 10.597 17.1582 10.1185 16.8301L3.30991 12.127C3.24155 12.0859 3.22788 12.0586 3.24155 12.0176C3.25522 11.9766 3.28256 11.9766 3.3646 11.9766L11.6361 12.127C12.1966 12.1406 12.5521 11.9082 12.7298 11.3477L15.1087 3.43164C15.1224 3.34961 15.1498 3.32227 15.1771 3.32227C15.2181 3.32227 15.2455 3.34961 15.2591 3.43164L17.638 11.3477C17.8158 11.9082 18.1712 12.1406 18.7318 12.127L27.0033 11.9766C27.0853 11.9766 27.1126 11.9766 27.1263 12.0176C27.14 12.0586 27.1126 12.0859 27.058 12.127L20.2494 16.8301C19.7708 17.1582 19.6615 17.582 19.8529 18.1152L22.5736 25.9355C22.5873 26.0176 22.6009 26.0312 22.5736 26.0586C22.5462 26.0996 22.5052 26.0723 22.4505 26.0312L15.8744 21.0137C15.4369 20.6719 14.931 20.6719 14.4935 21.0137L7.91733 26.0312C7.86264 26.0723 7.82163 26.0996 7.79428 26.0586Z" fill="#ffd60a"/>
 </g>
</svg>
