<svg version="1.1" xmlns="http://www.w3.org/2000/svg" xmlns:xlink="http://www.w3.org/1999/xlink" viewBox="0 0 28.2461 27.9043">
 <g>
  
  <path d="M13.9453 27.9043C21.6426 27.9043 27.8906 21.6562 27.8906 13.959C27.8906 6.27539 21.6426 0.0136719 13.9453 0.0136719C6.26172 0.0136719 0 6.27539 0 13.959C0 21.6562 6.26172 27.9043 13.9453 27.9043Z" style="fill:var(--color-0,hsl(0 0 0/0.85))"></path>
  <path d="M7.39648 10.2539L7.45117 10.1582C7.88867 9.26953 8.32617 9.17383 9.20117 9.66602L12.5918 11.6484L12.5918 7.69727C12.5918 6.75391 12.9199 6.43945 13.918 6.43945L14.0137 6.43945C14.9844 6.43945 15.3125 6.75391 15.3125 7.69727L15.3125 11.6484L18.7031 9.66602C19.5918 9.14648 20.0293 9.26953 20.4531 10.1582L20.5078 10.2539C20.9453 11.1152 20.8359 11.5391 20.0293 11.9766L16.4746 13.8906L20.043 15.9551C20.8223 16.4062 20.918 16.8301 20.4941 17.6914L20.4531 17.7598C20.0156 18.6348 19.5918 18.7578 18.7305 18.252L15.3125 16.2695L15.3125 20.2207C15.3125 21.1777 14.9844 21.4922 14.0137 21.4922L13.918 21.4922C12.9199 21.4922 12.5918 21.1777 12.5918 20.2207L12.5918 16.2695L9.17383 18.252C8.36719 18.7305 7.92969 18.6211 7.45117 17.7598L7.42383 17.6914C6.94531 16.8438 7.05469 16.4336 7.86133 15.9551L11.4297 13.8906L7.875 11.9766C7.06836 11.5527 6.95898 11.1289 7.39648 10.2539Z" style="fill:var(--color-1,white)"></path>
 </g>
</svg>