<svg version="1.1" xmlns="http://www.w3.org/2000/svg" xmlns:xlink="http://www.w3.org/1999/xlink" viewBox="0 0 23.0781 28.3418">
 <g>
  
  <path d="M11.3613 28.3418C11.5801 28.3418 11.9355 28.2598 12.2773 28.0684C20.0566 23.707 22.7227 21.8613 22.7227 16.8711L22.7227 6.41211C22.7227 4.97656 22.1074 4.52539 20.9453 4.0332C19.332 3.36328 14.123 1.49023 12.5098 0.929688C12.1406 0.806641 11.7441 0.724609 11.3613 0.724609C10.9785 0.724609 10.582 0.833984 10.2266 0.929688C8.61328 1.39453 3.39062 3.37695 1.77734 4.0332C0.628906 4.51172 0 4.97656 0 6.41211L0 16.8711C0 21.8613 2.67969 23.6934 10.4453 28.0684C10.8008 28.2598 11.1426 28.3418 11.3613 28.3418ZM11.3613 25.8672C11.1426 25.8672 10.9238 25.7852 10.5137 25.5391C4.19727 21.7109 2.17383 20.5898 2.17383 16.3652L2.17383 6.83594C2.17383 6.37109 2.25586 6.19336 2.63867 6.04297C4.7168 5.22266 8.75 3.86914 10.8145 3.04883C11.0332 2.95312 11.2109 2.92578 11.3613 2.92578C11.5117 2.92578 11.6895 2.9668 11.9082 3.04883C13.9727 3.86914 17.9785 5.31836 20.0977 6.04297C20.4668 6.17969 20.5488 6.37109 20.5488 6.83594L20.5488 16.3652C20.5488 20.5898 18.5254 21.6973 12.209 25.5391C11.8125 25.7852 11.5801 25.8672 11.3613 25.8672Z" style="fill:var(--color-0,hsl(0 0 0/0.85))"></path>
  <path d="M5.01758 10.2812C4.59375 11.1152 4.70312 11.5254 5.48242 11.9355L8.92773 13.8086L5.46875 15.8184C4.68945 16.2695 4.58008 16.666 5.04492 17.5L5.07227 17.5547C5.53711 18.3887 5.96094 18.498 6.74023 18.0195L10.0625 16.1055L10.0625 19.9473C10.0625 20.8633 10.377 21.1641 11.334 21.1641L11.4297 21.1641C12.373 21.1641 12.6875 20.8633 12.6875 19.9473L12.6875 16.1055L15.9961 18.0195C16.8301 18.5254 17.2402 18.4023 17.6641 17.5547L17.7051 17.5C18.1152 16.6523 18.0195 16.2422 17.2812 15.8184L13.8223 13.8086L17.2539 11.9355C18.0332 11.5254 18.1426 11.1152 17.7188 10.2812L17.6641 10.1855C17.2539 9.32422 16.8301 9.20117 15.9688 9.7207L12.6875 11.6348L12.6875 7.79297C12.6875 6.89062 12.373 6.58984 11.4297 6.58984L11.334 6.58984C10.377 6.58984 10.0625 6.89062 10.0625 7.79297L10.0625 11.6348L6.76758 9.7207C5.91992 9.22852 5.49609 9.33789 5.07227 10.1855Z" style="fill:var(--color-1,hsl(0 0 0/0.85))"></path>
 </g>
</svg>