<?xml version="1.0" encoding="UTF-8"?>
<!--Generator: Apple Native CoreSVG 326-->
<!DOCTYPE svg
PUBLIC "-//W3C//DTD SVG 1.1//EN"
       "http://www.w3.org/Graphics/SVG/1.1/DTD/svg11.dtd">
<svg version="1.1" xmlns="http://www.w3.org/2000/svg" xmlns:xlink="http://www.w3.org/1999/xlink" viewBox="0 0 25.5254 25.1699">
 <g>
  <rect height="25.1699" opacity="0" width="25.5254" x="0" y="0"/>
  <path d="M4.29297 25.1699L20.877 25.1699C23.748 25.1699 25.1699 23.7617 25.1699 20.9453L25.1699 4.23828C25.1699 1.42188 23.748 0 20.877 0L4.29297 0C1.43555 0 0 1.42188 0 4.23828L0 20.9453C0 23.7617 1.43555 25.1699 4.29297 25.1699ZM4.32031 22.9688C2.95312 22.9688 2.20117 22.2441 2.20117 20.8223L2.20117 4.36133C2.20117 2.93945 2.95312 2.20117 4.32031 2.20117L20.8496 2.20117C22.2031 2.20117 22.9688 2.93945 22.9688 4.36133L22.9688 20.8223C22.9688 22.2441 22.2031 22.9688 20.8496 22.9688Z" fill="#ffd60a"/>
  <path d="M8.66797 19.6328L12.5918 16.748L16.5156 19.6328C17.3223 20.2344 18.1562 19.6055 17.8555 18.6758L16.2969 14.041L20.2617 11.2109C20.9863 10.6777 20.7676 9.61133 19.7559 9.625L14.8887 9.66602L13.3984 5.00391C13.1113 4.10156 12.0723 4.10156 11.7852 5.00391L10.2949 9.66602L5.42773 9.625C4.42969 9.61133 4.18359 10.6641 4.92188 11.2109L8.88672 14.041L7.3418 18.6758C7.02734 19.6055 7.875 20.2344 8.66797 19.6328Z" fill="#ffd60a"/>
 </g>
</svg>
