<?xml version="1.0" encoding="UTF-8"?>
<!--Generator: Apple Native CoreSVG 326-->
<!DOCTYPE svg
PUBLIC "-//W3C//DTD SVG 1.1//EN"
       "http://www.w3.org/Graphics/SVG/1.1/DTD/svg11.dtd">
<svg version="1.1" xmlns="http://www.w3.org/2000/svg" xmlns:xlink="http://www.w3.org/1999/xlink" viewBox="0 0 29.2852 28.6699">
 <g>
  <rect height="28.6699" opacity="0" width="29.2852" x="0" y="0"/>
  <path d="M22.2988 4.26562L22.2988 6.35742L20.0977 6.35742L20.0977 4.38867C20.0977 2.9668 19.332 2.22852 17.9785 2.22852L4.32031 2.22852C2.95312 2.22852 2.20117 2.9668 2.20117 4.38867L2.20117 17.9785C2.20117 19.4004 2.95312 20.1387 4.32031 20.1387L6.63086 20.1387L6.63086 22.3398L4.29297 22.3398C1.42188 22.3398 0 20.918 0 18.1016L0 4.26562C0 1.44922 1.42188 0.0273438 4.29297 0.0273438L18.0195 0.0273438C20.8633 0.0273438 22.2988 1.44922 22.2988 4.26562Z" fill="white" fill-opacity="0.85"/>
  <path d="M10.9238 28.6699L24.6504 28.6699C27.4941 28.6699 28.9297 27.248 28.9297 24.4316L28.9297 10.5957C28.9297 7.7793 27.4941 6.35742 24.6504 6.35742L10.9238 6.35742C8.05273 6.35742 6.63086 7.76562 6.63086 10.5957L6.63086 24.4316C6.63086 27.248 8.05273 28.6699 10.9238 28.6699ZM10.9512 26.4688C9.59766 26.4688 8.83203 25.7305 8.83203 24.3086L8.83203 10.7188C8.83203 9.29688 9.59766 8.55859 10.9512 8.55859L24.6094 8.55859C25.9629 8.55859 26.7285 9.29688 26.7285 10.7188L26.7285 24.3086C26.7285 25.7305 25.9629 26.4688 24.6094 26.4688Z" fill="white" fill-opacity="0.85"/>
  <path d="M14.6016 23.2285L17.7871 20.8906L20.959 23.2285C21.6152 23.707 22.2988 23.2148 22.0391 22.4492L20.7812 18.7031L23.9941 16.4062C24.582 15.9824 24.4043 15.1074 23.584 15.1211L19.6465 15.1621L18.4434 11.375C18.2109 10.6504 17.3633 10.6504 17.1309 11.375L15.9277 15.1621L11.9902 15.1211C11.1699 15.1074 10.9785 15.9688 11.5801 16.4062L14.793 18.7031L13.5352 22.4492C13.2754 23.2148 13.959 23.707 14.6016 23.2285Z" fill="white" fill-opacity="0.85"/>
 </g>
</svg>
