<?xml version="1.0" encoding="UTF-8"?>
<!--Generator: Apple Native CoreSVG 326-->
<!DOCTYPE svg
PUBLIC "-//W3C//DTD SVG 1.1//EN"
       "http://www.w3.org/Graphics/SVG/1.1/DTD/svg11.dtd">
<svg version="1.1" xmlns="http://www.w3.org/2000/svg" xmlns:xlink="http://www.w3.org/1999/xlink" viewBox="0 0 29.0938 33.7559">
 <g>
  <rect height="33.7559" opacity="0" width="29.0938" x="0" y="0"/>
  <path d="M14.3691 33.7285C18.0879 33.7285 18.6895 30.9531 20.8633 30.9531C23.0781 30.9531 23.4336 33.7285 27.6992 33.7285L27.7676 33.7285C28.3008 33.7285 28.7383 33.3047 28.7383 32.7715C28.7383 32.2383 28.3008 31.8008 27.7676 31.8008L27.6992 31.8008C26.2227 31.8008 25.4023 31.1992 24.377 30.4609C23.4883 29.8184 22.3809 29.0254 20.8633 29.0254C19.291 29.0254 18.1699 29.873 17.2812 30.5293C16.3379 31.2539 15.5859 31.8008 14.3691 31.8008C13.1387 31.8008 12.4004 31.2539 11.457 30.5293C10.5684 29.873 9.44727 29.0254 7.875 29.0254C6.35742 29.0254 5.25 29.8184 4.36133 30.4609C3.33594 31.1992 2.50195 31.8008 1.03906 31.8008L0.970703 31.8008C0.423828 31.8008 0 32.2383 0 32.7715C0 33.3047 0.423828 33.7285 0.970703 33.7285L1.03906 33.7285C5.29102 33.7285 5.66016 30.9531 7.875 30.9531C10.0488 30.9531 10.6367 33.7285 14.3691 33.7285Z" fill="white" fill-opacity="0.85"/>
  <path d="M14.3555 26.7832C21.752 26.7832 27.7539 20.7949 27.7539 13.3984C27.7539 6.00195 21.752 0 14.3555 0C6.97266 0 0.970703 6.00195 0.970703 13.3984C0.970703 20.7949 6.97266 26.7832 14.3555 26.7832ZM5.09961 7.23242C7.02734 4.21094 10.4453 2.21484 14.3281 2.21484C18.2246 2.21484 21.6426 4.21094 23.584 7.21875C24.1035 7.95703 23.8574 8.79102 22.9688 8.79102L5.70117 8.79102C4.83984 8.79102 4.56641 7.95703 5.09961 7.23242ZM14.3418 16.9805C12.7285 16.9805 11.4297 15.6816 11.4297 14.0547C11.4297 12.4414 12.7285 11.1562 14.3418 11.1562C15.9551 11.1562 17.2539 12.4414 17.2539 14.0547C17.2539 15.6816 15.9551 16.9805 14.3418 16.9805ZM3.56836 16.3242C3.34961 15.5176 3.80078 15.1484 4.4707 15.2441C8.24414 15.668 11.1836 18.9766 11.0469 22.8457C11.0332 23.5156 10.5273 23.9531 9.83008 23.6113C6.71289 22.2305 4.42969 19.5645 3.56836 16.3242ZM25.1152 16.3242C24.2676 19.5645 21.9707 22.2305 18.8672 23.6113C18.1562 23.9531 17.6504 23.5156 17.6504 22.8457C17.5137 18.9766 20.4258 15.668 24.2129 15.2441C24.8965 15.1484 25.3477 15.5176 25.1152 16.3242Z" fill="white" fill-opacity="0.85"/>
 </g>
</svg>
