<?xml version="1.0" encoding="UTF-8"?>
<!--Generator: Apple Native CoreSVG 326-->
<!DOCTYPE svg
PUBLIC "-//W3C//DTD SVG 1.1//EN"
       "http://www.w3.org/Graphics/SVG/1.1/DTD/svg11.dtd">
<svg version="1.1" xmlns="http://www.w3.org/2000/svg" xmlns:xlink="http://www.w3.org/1999/xlink" viewBox="0 0 31.1275 31.124">
 <g>
  <rect height="31.124" opacity="0" width="31.1275" x="0" y="0"/>
  <path d="M5.50281 9.73938C5.41521 10.2897 5.74146 10.7563 6.41041 10.7563L6.51978 10.7563L12.3537 16.5903C12.5164 17.9955 13.6191 19.0951 15.0159 19.2525L19.0406 23.2772C18.8685 23.9469 18.7886 24.6501 18.8108 25.3716C18.8245 26.0688 19.344 26.5337 20.0823 26.1782C20.5051 25.9883 20.9134 25.7759 21.3047 25.5412L22.997 27.2336C20.8135 28.6698 18.1995 29.5005 15.3928 29.5005C7.69556 29.5005 1.44752 23.2524 1.44752 15.5552C1.44752 12.7485 2.27823 10.1345 3.71441 7.95097ZM4.16822 18.604C5.07056 21.9673 7.4358 24.729 10.676 26.1782C11.4006 26.5337 11.9338 26.0688 11.9338 25.3716C12.0706 21.3521 9.03541 17.9204 5.12525 17.4692C4.41431 17.3735 3.9358 17.7563 4.16822 18.604ZM29.3381 15.5552C29.3381 18.2693 28.5613 20.8033 27.2056 22.9383L25.5068 21.2395C25.9708 20.4186 26.3306 19.5343 26.5764 18.604C26.8088 17.7563 26.344 17.3735 25.6331 17.4692C24.5774 17.5906 23.587 17.9288 22.7093 18.442L15.0237 10.7563L24.3206 10.7563C25.2503 10.7563 25.51 9.88135 24.9631 9.10205C22.9397 5.99854 19.3987 3.93408 15.3655 3.93408C13.2948 3.93408 11.3566 4.47456 9.69006 5.42272L8.00972 3.74238C10.1447 2.38672 12.6787 1.60986 15.3928 1.60986C23.0901 1.60986 29.3381 7.85791 29.3381 15.5552Z" fill="white" fill-opacity="0.85"/>
  <path d="M27.2463 29.0083C27.7385 29.5005 28.5452 29.4731 29.01 28.9946C29.4885 28.5024 29.5022 27.7231 29.01 27.231L3.90845 2.11572C3.41627 1.62354 2.60963 1.62354 2.11744 2.11572C1.6526 2.58057 1.6526 3.40088 2.11744 3.87939Z" fill="white" fill-opacity="0.85"/>
 </g>
</svg>
