<svg version="1.1" xmlns="http://www.w3.org/2000/svg" xmlns:xlink="http://www.w3.org/1999/xlink" viewBox="0 0 38.7641 35.0118">
 <g>
  
  <path d="M19.2112 31.4444C26.9084 31.4444 33.1565 25.1963 33.1565 17.4991C33.1565 9.80181 26.9084 3.55376 19.2112 3.55376C11.5139 3.55376 5.26584 9.80181 5.26584 17.4991C5.26584 25.1963 11.5139 31.4444 19.2112 31.4444ZM9.58615 11.0596C11.5959 7.94244 15.1369 5.87798 19.1838 5.87798C23.217 5.87798 26.758 7.94244 28.7815 11.046C29.3283 11.8252 29.0686 12.7002 28.1389 12.7002L10.2287 12.7002C9.31272 12.7002 9.03928 11.8252 9.58615 11.0596ZM19.1838 21.2178C17.5022 21.2178 16.1487 19.8643 16.1487 18.169C16.1487 16.501 17.5022 15.1475 19.1838 15.1475C20.8655 15.1475 22.219 16.501 22.219 18.169C22.219 19.8643 20.8655 21.2178 19.1838 21.2178ZM7.98654 20.5479C7.75412 19.7002 8.23264 19.3174 8.94358 19.4131C12.8537 19.8643 15.8889 23.296 15.7522 27.3155C15.7522 28.0127 15.219 28.4776 14.4944 28.1221C11.2541 26.6729 8.88889 23.9112 7.98654 20.5479ZM30.3947 20.5479C29.5061 23.9112 27.1272 26.6729 23.9006 28.1221C23.1623 28.4776 22.6428 28.0127 22.6291 27.3155C22.5061 23.3096 25.5276 19.8643 29.4514 19.4131C30.1623 19.3174 30.6272 19.7002 30.3947 20.5479Z" style="fill:var(--color-0,hsl(0 0 0/0.85))"></path>
  <path d="M5.07444 9.26861L1.09592 7.01275C0.508029 6.67095-0.0388457 6.95806 0.00216996 7.72369L0.275607 11.7979C0.302951 12.4405 0.795139 12.7139 1.36936 12.4131L5.00608 10.5674C5.70334 10.1983 5.66233 9.6104 5.07444 9.26861ZM11.3088 0.600638C11.0354 0.0400915 10.3928-0.178658 9.79123 0.163138C6.14084 2.15923 3.16037 5.30376 1.35569 9.09087L3.31076 10.0069C4.8967 6.61626 7.50803 3.8272 10.803 2.04986C11.3498 1.7354 11.5686 1.14751 11.3088 0.600638ZM33.3342 9.26861C32.76 9.6104 32.7053 10.212 33.4026 10.5674L37.0393 12.4131C37.6272 12.7139 38.092 12.4405 38.1467 11.7979L38.4065 7.72369C38.4612 6.95806 37.9006 6.67095 37.3264 7.01275ZM27.1135 0.600638C26.8401 1.14751 27.0588 1.7354 27.6057 2.04986C30.9006 3.8272 33.5256 6.61626 35.0979 10.0069L37.053 9.09087C35.2483 5.30376 32.2678 2.15923 28.6174 0.163138C28.0158-0.178658 27.3733 0.0400915 27.1135 0.600638Z" style="fill:var(--color-1,hsl(0 0 0/0.85))"></path>
 </g>
</svg>