<svg version="1.1" xmlns="http://www.w3.org/2000/svg" xmlns:xlink="http://www.w3.org/1999/xlink" viewBox="0 0 34.7949 34.337">
 <g>
  
  <path d="M30.8383 14.1579C30.1428 13.8797 29.3829 13.73 28.5879 13.73C25.1152 13.73 22.3535 16.5191 22.3535 19.9371C22.3535 20.5307 22.432 21.104 22.5838 21.6457C21.3248 23.0684 20.5823 24.9515 20.6445 26.9781C20.6582 27.6753 21.1914 28.1402 21.916 27.7847C23.1178 27.2472 24.1993 26.5291 25.1289 25.6659L25.1289 28.6438C22.8851 30.1988 20.1611 31.107 17.2266 31.107C9.5293 31.107 3.28125 24.8589 3.28125 17.1617C3.28125 9.4644 9.5293 3.21635 17.2266 3.21635C23.8916 3.21635 29.47 7.90099 30.8383 14.1579ZM6.01562 20.2105C6.9043 23.5738 9.2832 26.3355 12.5098 27.7847C13.248 28.1402 13.7676 27.6753 13.7812 26.9781C13.9043 22.9585 10.8691 19.5269 6.95898 19.0757C6.24805 18.98 5.76953 19.3628 6.01562 20.2105ZM14.1777 17.8316C14.1777 19.5269 15.5176 20.8804 17.2129 20.8804C18.8945 20.8804 20.248 19.5269 20.248 17.8316C20.248 16.1636 18.8945 14.8101 17.2129 14.8101C15.5176 14.8101 14.1777 16.1636 14.1777 17.8316ZM7.61523 10.7222C7.05469 11.4878 7.3418 12.3628 8.24414 12.3628L26.168 12.3628C27.084 12.3628 27.3574 11.4878 26.7969 10.7085C24.7734 7.60502 21.2324 5.54057 17.1992 5.54057C13.166 5.54057 9.625 7.60502 7.61523 10.7222Z" style="fill:var(--color-0,hsl(0 0 0/0.85))"></path>
  <path d="M28.5879 15.5894C26.1406 15.5894 24.2129 17.5445 24.2129 19.9371C24.2129 21.7964 25.3066 23.3687 26.9883 24.0386L26.9883 30.7925C26.9883 30.9566 27.0703 31.0796 27.1934 31.2163L28.3281 32.3648C28.4648 32.5015 28.6562 32.5152 28.8203 32.3648L30.9941 30.2046C31.1309 30.0679 31.1309 29.8628 30.9941 29.7261L29.6406 28.3726L31.5 26.5542C31.6367 26.4175 31.6367 26.2261 31.4727 26.0484L29.6406 24.23C31.7461 23.3687 32.9355 21.8374 32.9355 19.9371C32.9355 17.5445 30.9941 15.5894 28.5879 15.5894ZM28.5742 17.6265C29.3125 17.6265 29.9004 18.2417 29.9004 18.9663C29.9004 19.732 29.3125 20.3335 28.5742 20.3335C27.8359 20.3335 27.207 19.732 27.207 18.9663C27.207 18.2417 27.8086 17.6265 28.5742 17.6265Z" style="fill:var(--color-1,hsl(0 0 0/0.85))"></path>
 </g>
</svg>