<svg version="1.1" xmlns="http://www.w3.org/2000/svg" xmlns:xlink="http://www.w3.org/1999/xlink" viewBox="0 0 28.2461 27.9043">
 <g>
  
  <path d="M13.9453 27.8906C21.6426 27.8906 27.8906 21.6426 27.8906 13.9453C27.8906 6.24805 21.6426 0 13.9453 0C6.24805 0 0 6.24805 0 13.9453C0 21.6426 6.24805 27.8906 13.9453 27.8906ZM4.33398 7.50586C6.34375 4.38867 9.88477 2.32422 13.918 2.32422C17.9512 2.32422 21.4922 4.38867 23.5156 7.49219C24.0762 8.27148 23.8027 9.14648 22.8867 9.14648L4.96289 9.14648C4.06055 9.14648 3.77344 8.27148 4.33398 7.50586ZM13.9316 17.6641C12.2363 17.6641 10.8965 16.3105 10.8965 14.6152C10.8965 12.9473 12.2363 11.5938 13.9316 11.5938C15.6133 11.5938 16.9668 12.9473 16.9668 14.6152C16.9668 16.3105 15.6133 17.6641 13.9316 17.6641ZM2.73438 16.9941C2.48828 16.1465 2.9668 15.7637 3.67773 15.8594C7.58789 16.3105 10.623 19.7422 10.5 23.7617C10.4863 24.459 9.9668 24.9238 9.22852 24.5684C6.00195 23.1191 3.62305 20.3574 2.73438 16.9941ZM25.1289 16.9941C24.2402 20.3574 21.875 23.1191 18.6348 24.5684C17.9102 24.9238 17.377 24.459 17.3633 23.7617C17.2402 19.7559 20.2617 16.3105 24.1855 15.8594C24.8965 15.7637 25.375 16.1465 25.1289 16.9941Z" style="fill:var(--color-0,hsl(0 0 0/0.85))"></path>
 </g>
</svg>