<svg version="1.1" xmlns="http://www.w3.org/2000/svg" xmlns:xlink="http://www.w3.org/1999/xlink" viewBox="0 0 37.0645 31.1582">
 <g>
  
  <path d="M32.2001 13.9214C31.6306 13.7296 31.0054 13.6309 30.3379 13.6309C27.2356 13.6309 25.0157 15.7932 24.8205 19.0305C22.9088 20.4927 21.7006 22.826 21.7793 25.3887C21.793 26.0859 22.3262 26.5508 23.0508 26.1953C23.2409 26.1103 23.428 26.0207 23.6113 25.926L23.6113 27.4258C23.6113 27.7878 23.6479 28.1294 23.722 28.4451C22.0724 29.137 20.261 29.5176 18.3613 29.5176C10.6641 29.5176 4.41602 23.2695 4.41602 15.5723C4.41602 7.875 10.6641 1.62695 18.3613 1.62695C25.499 1.62695 31.3906 6.99961 32.2001 13.9214ZM7.15039 18.6211C8.03906 21.9844 10.418 24.7461 13.6445 26.1953C14.3828 26.5508 14.9023 26.0859 14.916 25.3887C15.0391 21.3691 12.0039 17.9375 8.09375 17.4863C7.38281 17.3906 6.9043 17.7734 7.15039 18.6211ZM15.3125 16.2422C15.3125 17.9375 16.6523 19.291 18.3477 19.291C20.0293 19.291 21.3828 17.9375 21.3828 16.2422C21.3828 14.5742 20.0293 13.2207 18.3477 13.2207C16.6523 13.2207 15.3125 14.5742 15.3125 16.2422ZM8.75 9.13281C8.18945 9.89844 8.47656 10.7734 9.37891 10.7734L27.3027 10.7734C28.2188 10.7734 28.4922 9.89844 27.9316 9.11914C25.9082 6.01562 22.3672 3.95117 18.334 3.95117C14.3008 3.95117 10.7598 6.01562 8.75 9.13281Z" style="fill:var(--color-0,hsl(0 0 0/0.85))"></path>
  <path d="M27.2344 29.3262L33.4277 29.3262C34.5898 29.3262 35.1914 28.7109 35.1914 27.4668L35.1914 22.709C35.1914 21.4785 34.5898 20.8633 33.4277 20.8633L27.2344 20.8633C26.0859 20.8633 25.4844 21.4785 25.4844 22.709L25.4844 27.4668C25.4844 28.7109 26.0859 29.3262 27.2344 29.3262ZM26.6738 21.9707L28.1641 21.9707L28.1641 19.2363C28.1641 17.8281 29.0117 16.9395 30.3379 16.9395C31.6641 16.9395 32.5254 17.8281 32.5254 19.2363L32.5254 21.9707L34.002 21.9707L34.002 19.4688C34.002 17.0078 32.5801 15.4629 30.3379 15.4629C28.1094 15.4629 26.6738 17.0078 26.6738 19.4688Z" style="fill:var(--color-1,hsl(0 0 0/0.85))"></path>
 </g>
</svg>