<svg version="1.1" xmlns="http://www.w3.org/2000/svg" xmlns:xlink="http://www.w3.org/1999/xlink" viewBox="0 0 40.4141 27.9043">
 <g>
  
  <path d="M26.4688 27.8906C34.166 27.8906 40.4141 21.6426 40.4141 13.9453C40.4141 6.24805 34.166 0 26.4688 0C18.7578 0 12.5234 6.24805 12.5234 13.9453C12.5234 21.6426 18.7578 27.8906 26.4688 27.8906ZM16.8438 7.50586C18.8535 4.38867 22.3945 2.32422 26.4414 2.32422C30.4746 2.32422 34.0156 4.38867 36.0391 7.49219C36.5859 8.27148 36.3262 9.14648 35.3965 9.14648L17.4863 9.14648C16.5703 9.14648 16.2969 8.27148 16.8438 7.50586ZM26.4414 17.6641C24.7598 17.6641 23.4062 16.3105 23.4062 14.6152C23.4062 12.9473 24.7598 11.5938 26.4414 11.5938C28.123 11.5938 29.4766 12.9473 29.4766 14.6152C29.4766 16.3105 28.123 17.6641 26.4414 17.6641ZM15.2441 16.9941C15.0117 16.1465 15.4766 15.7637 16.1875 15.8594C20.1113 16.3105 23.1465 19.7422 23.0098 23.7617C23.0098 24.459 22.4766 24.9238 21.7383 24.5684C18.5117 23.1191 16.1328 20.3574 15.2441 16.9941ZM37.6523 16.9941C36.7637 20.3574 34.3848 23.1191 31.1582 24.5684C30.4199 24.9238 29.8867 24.459 29.8867 23.7617C29.75 19.7559 32.7715 16.3105 36.709 15.8594C37.4199 15.7637 37.8848 16.1465 37.6523 16.9941Z" style="fill:var(--color-0,hsl(0 0 0/0.85))"></path>
  <path d="M0.751953 13.2891C0.232422 13.5898 0.205078 14.3145 0.751953 14.6289L7.7793 18.7715C8.35352 19.1133 9.02344 18.8398 9.02344 18.252L9.02344 9.63867C9.02344 9.06445 8.3125 8.80469 7.7793 9.11914Z" style="fill:var(--color-1,hsl(0 0 0/0.85))"></path>
 </g>
</svg>