<svg version="1.1" xmlns="http://www.w3.org/2000/svg" xmlns:xlink="http://www.w3.org/1999/xlink" viewBox="0 0 41.937 27.9043">
 <g>
  
  <path d="M27.6335 16.1875C27.7716 16.3739 27.9421 16.5873 28.1376 16.8264C25.7347 18.198 24.1428 20.8297 24.2429 23.7617C24.2429 24.459 24.7761 24.9238 25.5007 24.5684C27.6649 23.6004 29.4387 22.047 30.6438 20.1178C30.9612 20.608 31.2553 21.1195 31.5027 21.6426L31.8664 22.4186C29.3282 25.7486 25.3181 27.8906 20.8113 27.8906C16.2876 27.8906 12.2645 25.7326 9.72807 22.3811L10.0788 21.6426C10.329 21.1138 10.6268 20.5967 10.948 20.1015C12.1525 22.0382 13.9334 23.5977 16.0945 24.5684C16.8328 24.9238 17.3523 24.459 17.366 23.7617C17.4662 20.8157 15.8625 18.1855 13.4504 16.8185C13.6433 16.5825 13.8115 16.3717 13.948 16.1875C14.7788 15.0722 15.8369 10.9823 16.1656 9.14648L25.416 9.14648C25.7446 10.9823 26.8028 15.0722 27.6335 16.1875ZM17.7624 14.6152C17.7624 16.3105 19.116 17.6641 20.7976 17.6641C22.4792 17.6641 23.8328 16.3105 23.8328 14.6152C23.8328 12.9473 22.4792 11.5938 20.7976 11.5938C19.116 11.5938 17.7624 12.9473 17.7624 14.6152ZM32.5601 6.4569C32.1959 6.99523 31.3636 7.49902 30.2828 7.33094C28.2459 4.31625 24.7458 2.32422 20.7839 2.32422C16.829 2.32422 13.3474 4.30927 11.3225 7.32818C10.2582 7.502 9.42373 7.02465 9.03729 6.49835C11.4994 2.59062 15.8549 0 20.8113 0C25.7503 0 30.0927 2.57252 32.5601 6.4569Z" style="fill:var(--color-0,hsl(0 0 0/0.85))"></path>
  <path d="M13.2781 7.06836C12.1706 7.06836 11.7331 8.64062 10.8035 8.64062C9.3269 8.64062 7.60424 7.30078 7.60424 6.52148C7.60424 6.34375 7.69994 6.09766 7.69994 5.98828C7.69994 5.7832 7.52221 5.64648 7.27612 5.64648C5.99096 5.64648 3.3933 6.42578 3.40697 8.25781C3.05151 8.44922 2.34057 8.91406 2.34057 9.99414C2.34057 11.8672 3.03783 12.0586 3.03783 16.9121C3.03783 18.6211 2.31322 20.125 1.65697 21.123C-0.106697 23.8164 5.94994 27.3027 7.86401 23.2695L8.8894 21.082C10.0378 18.6211 12.116 16.4199 12.8953 15.3945C13.6746 14.3418 14.9597 8.98242 14.9597 8.33984C14.9597 7.68359 14.4128 7.06836 13.2781 7.06836ZM28.3035 7.06836C27.1687 7.06836 26.6218 7.68359 26.6218 8.33984C26.6218 8.98242 27.907 14.3418 28.6863 15.3945C29.4656 16.4199 31.53 18.6211 32.6921 21.082L33.7175 23.2695C35.6316 27.3027 41.6882 23.8164 39.9109 21.123C39.2683 20.125 38.53 18.6211 38.53 16.9121C38.53 12.0586 39.2273 11.8672 39.2273 9.99414C39.2273 8.91406 38.53 8.44922 38.1609 8.25781C38.1882 6.42578 35.5906 5.64648 34.2917 5.64648C34.0456 5.64648 33.8816 5.7832 33.8816 5.98828C33.8816 6.09766 33.9636 6.34375 33.9636 6.52148C33.9636 7.30078 32.241 8.64062 30.7781 8.64062C29.8484 8.64062 29.3972 7.06836 28.3035 7.06836Z" style="fill:var(--color-1,hsl(0 0 0/0.85))"></path>
 </g>
</svg>