<svg version="1.1" xmlns="http://www.w3.org/2000/svg" xmlns:xlink="http://www.w3.org/1999/xlink" viewBox="0 0 33.291 27.3099">
 <g>
  
  <path d="M32.9355 16.3962C32.9355 7.78289 26.3184 0.714533 17.8965 0.00359537C17.459-0.0374203 17.1309 0.277033 17.1309 0.714533L17.1309 5.18524C17.1309 5.55438 17.3906 5.84149 17.7598 5.86883C22.9961 6.51141 27.0703 10.9821 27.0703 16.3962C27.0703 18.8571 26.2227 21.1266 24.7324 23.027C24.541 23.2595 24.5547 23.5602 24.7598 23.779L28.0273 27.0329C28.3281 27.3337 28.793 27.3337 29.0664 27.0055C31.4863 24.1345 32.9355 20.4294 32.9355 16.3962Z" style="fill:var(--color-0,hsl(0 0 0/0.85))"></path>
  <path d="M0 16.3962C0 20.443 1.44922 24.1481 3.86914 27.0192C4.14258 27.3473 4.59375 27.3337 4.9082 27.0329L8.17578 23.779C8.38086 23.5602 8.39453 23.2595 8.20312 23.027C6.69922 21.1266 5.86523 18.8571 5.86523 16.3962C5.86523 10.9821 9.93945 6.51141 15.1758 5.86883C15.5449 5.84149 15.8047 5.55438 15.8047 5.18524L15.8047 0.714533C15.8047 0.277033 15.4766-0.0374203 15.0391 0.00359537C6.61719 0.714533 0 7.78289 0 16.3962Z" style="fill:var(--color-1,hsl(0 0 0/0.85))"></path>
  <path d="M12.0723 22.6305L20.207 22.6305C20.6172 22.6305 20.9316 22.3434 20.9316 21.947C20.9316 21.5641 20.6172 21.2634 20.207 21.2634L13.877 21.2634L13.877 21.2223C14.957 20.7985 15.4629 19.5544 15.4629 18.3649C15.4629 17.9001 15.4355 17.4899 15.3398 17.1345L18.8398 17.1345C19.1816 17.1345 19.4414 16.8884 19.4414 16.5739C19.4414 16.2595 19.168 16.0134 18.8398 16.0134L15.0391 16.0134C14.8477 15.2204 14.793 14.7966 14.793 14.3044C14.793 12.7321 15.9824 11.8434 17.7051 11.8434C18.3203 11.8434 18.7441 11.9255 19.0996 12.0075C19.3457 12.0759 19.5781 12.1169 19.7559 12.1169C20.1387 12.1169 20.3574 11.9118 20.3574 11.529C20.3574 11.1735 20.0977 10.9548 19.7695 10.818C19.0176 10.5446 18.4844 10.4763 17.541 10.4763C14.916 10.4763 13.1523 11.9255 13.1523 14.3454C13.1523 14.8649 13.2207 15.3845 13.4121 16.0134L11.9629 16.0134C11.6211 16.0134 11.3613 16.2595 11.3613 16.5739C11.3613 16.8884 11.6211 17.1345 11.9629 17.1345L13.7129 17.1345C13.8359 17.5856 13.9043 18.0231 13.9043 18.4196C13.9043 19.7321 13.2344 20.6891 12.0039 21.1403C11.6211 21.277 11.375 21.5231 11.375 21.9196C11.375 22.3298 11.6621 22.6305 12.0723 22.6305Z" style="fill:var(--color-2,hsl(0 0 0/0.85))"></path>
 </g>
</svg>