<?xml version="1.0" encoding="UTF-8"?>
<!--Generator: Apple Native CoreSVG 326-->
<!DOCTYPE svg
PUBLIC "-//W3C//DTD SVG 1.1//EN"
       "http://www.w3.org/Graphics/SVG/1.1/DTD/svg11.dtd">
<svg version="1.1" xmlns="http://www.w3.org/2000/svg" xmlns:xlink="http://www.w3.org/1999/xlink" viewBox="0 0 28.2461 27.9043">
 <g>
  <rect height="27.9043" opacity="0" width="28.2461" x="0" y="0"/>
  <path d="M13.9453 27.8906C21.6426 27.8906 27.8906 21.6426 27.8906 13.9453C27.8906 6.24805 21.6426 0 13.9453 0C6.24805 0 0 6.24805 0 13.9453C0 21.6426 6.24805 27.8906 13.9453 27.8906ZM13.9453 25.5664C7.51953 25.5664 2.32422 20.3711 2.32422 13.9453C2.32422 7.51953 7.51953 2.32422 13.9453 2.32422C20.3711 2.32422 25.5664 7.51953 25.5664 13.9453C25.5664 20.3711 20.3711 25.5664 13.9453 25.5664Z" fill="white" fill-opacity="0.85"/>
  <path d="M9.55664 19.9883L17.6777 19.9883C18.0879 19.9883 18.416 19.7148 18.416 19.3184C18.416 18.9355 18.0879 18.6348 17.6777 18.6348L11.3613 18.6348L11.3613 18.5801C12.4414 18.1699 12.9473 16.9258 12.9473 15.7363C12.9473 15.2578 12.9062 14.8477 12.8242 14.4922L16.3105 14.4922C16.6523 14.4922 16.9121 14.2461 16.9121 13.9316C16.9121 13.6309 16.6523 13.3848 16.3105 13.3848L12.5098 13.3848C12.3184 12.5918 12.2773 12.168 12.2773 11.6758C12.2773 10.1035 13.4668 9.21484 15.1895 9.21484C15.8047 9.21484 16.2285 9.2832 16.584 9.37891C16.8301 9.43359 17.0625 9.48828 17.2266 9.48828C17.6094 9.48828 17.8418 9.2832 17.8418 8.90039C17.8418 8.53125 17.5684 8.3125 17.2402 8.18945C16.502 7.90234 15.9688 7.84766 15.0254 7.84766C12.4004 7.84766 10.6367 9.2832 10.6367 11.7168C10.6367 12.2363 10.7051 12.7422 10.8965 13.3848L9.44727 13.3848C9.10547 13.3848 8.8457 13.6309 8.8457 13.9316C8.8457 14.2461 9.10547 14.4922 9.44727 14.4922L11.1973 14.4922C11.3066 14.957 11.3887 15.3809 11.3887 15.791C11.3887 17.0898 10.7051 18.0605 9.48828 18.5117C9.10547 18.6484 8.85938 18.8809 8.85938 19.291C8.85938 19.7012 9.14648 19.9883 9.55664 19.9883Z" fill="white" fill-opacity="0.85"/>
 </g>
</svg>
