<svg version="1.1" xmlns="http://www.w3.org/2000/svg" xmlns:xlink="http://www.w3.org/1999/xlink" viewBox="0 0 33.291 27.4395">
 <g>
  
  <path d="M32.9355 16.4609C32.9355 12.4414 31.4863 8.73633 29.0664 5.86523C28.793 5.53711 28.3281 5.53711 28.0273 5.85156L24.8555 9.02344C24.5957 9.2832 24.582 9.65234 24.8145 9.93945C26.2227 11.7441 27.0703 14.0137 27.0703 16.4609C27.0703 18.9219 26.2227 21.1914 24.7324 23.0918C24.541 23.3242 24.5547 23.625 24.7598 23.8438L28.0137 27.0977C28.3281 27.4121 28.7793 27.4121 29.0664 27.0703C31.4863 24.1992 32.9355 20.4941 32.9355 16.4609Z" style="fill:var(--color-0,hsl(0 0 0/0.85))"></path>
  <path d="M16.4609 5.86523C18.9355 5.86523 21.2051 6.72656 23.0234 8.13477C23.2969 8.35352 23.6523 8.32617 23.9121 8.06641L27.084 4.89453C27.3984 4.58008 27.3848 4.12891 27.0566 3.85547C24.1992 1.44922 20.4941 0 16.4609 0C12.4414 0 8.73633 1.44922 5.87891 3.85547C5.55078 4.12891 5.53711 4.58008 5.85156 4.89453L9.02344 8.06641C9.2832 8.32617 9.65234 8.35352 9.95312 8.12109C11.7578 6.72656 14.0137 5.86523 16.4609 5.86523Z" style="fill:var(--color-1,hsl(0 0 0/0.85))"></path>
  <path d="M0 16.4609C0 20.4941 1.44922 24.1992 3.86914 27.0703C4.14258 27.4121 4.60742 27.4121 4.9082 27.0977L8.16211 23.8438C8.36719 23.625 8.39453 23.3242 8.20312 23.0918C6.71289 21.1914 5.86523 18.9219 5.86523 16.4609C5.86523 14.0137 6.69922 11.7441 8.12109 9.93945C8.33984 9.65234 8.33984 9.2832 8.08008 9.02344L4.9082 5.85156C4.59375 5.53711 4.14258 5.53711 3.86914 5.86523C1.44922 8.73633 0 12.4414 0 16.4609Z" style="fill:var(--color-2,hsl(0 0 0/0.85))"></path>
  <path d="M12.0723 22.6953L20.207 22.6953C20.6172 22.6953 20.9316 22.4082 20.9316 22.0117C20.9316 21.6289 20.6172 21.3281 20.207 21.3281L13.877 21.3281L13.877 21.2871C14.957 20.8633 15.4629 19.6191 15.4629 18.4297C15.4629 17.9648 15.4355 17.5547 15.3398 17.1992L18.8398 17.1992C19.1816 17.1992 19.4414 16.9531 19.4414 16.6387C19.4414 16.3242 19.168 16.0781 18.8398 16.0781L15.0391 16.0781C14.8477 15.2852 14.793 14.8613 14.793 14.3691C14.793 12.7969 15.9824 11.9082 17.7051 11.9082C18.3203 11.9082 18.7441 11.9902 19.0996 12.0723C19.3457 12.1406 19.5781 12.1816 19.7559 12.1816C20.1387 12.1816 20.3574 11.9766 20.3574 11.5938C20.3574 11.2383 20.0977 11.0195 19.7695 10.8828C19.0176 10.6094 18.4844 10.541 17.541 10.541C14.916 10.541 13.1523 11.9902 13.1523 14.4102C13.1523 14.9297 13.2207 15.4492 13.4121 16.0781L11.9629 16.0781C11.6211 16.0781 11.3613 16.3242 11.3613 16.6387C11.3613 16.9531 11.6211 17.1992 11.9629 17.1992L13.7129 17.1992C13.8359 17.6504 13.9043 18.0879 13.9043 18.4844C13.9043 19.7969 13.2344 20.7539 12.0039 21.2051C11.6211 21.3418 11.375 21.5879 11.375 21.9844C11.375 22.3945 11.6621 22.6953 12.0723 22.6953Z" style="fill:var(--color-3,hsl(0 0 0/0.85))"></path>
 </g>
</svg>