<svg version="1.1" xmlns="http://www.w3.org/2000/svg" xmlns:xlink="http://www.w3.org/1999/xlink" viewBox="0 0 28.2461 27.9043">
 <g>
  
  <path d="M13.9453 27.9043C21.6426 27.9043 27.8906 21.6562 27.8906 13.959C27.8906 6.27539 21.6426 0.0136719 13.9453 0.0136719C6.26172 0.0136719 0 6.27539 0 13.959C0 21.6562 6.26172 27.9043 13.9453 27.9043Z" style="fill:var(--color-0,hsl(0 0 0/0.85))"></path>
  <path d="M4.82617 9.73438C4.82617 8.14844 5.66016 7.28711 7.19141 7.28711L7.25977 7.28711C7.47852 7 7.83398 6.80859 8.23047 6.80859C8.90039 6.80859 9.46094 7.36914 9.46094 8.05273C9.46094 8.72266 8.90039 9.29688 8.23047 9.29688C7.83398 9.29688 7.49219 9.11914 7.27344 8.8457L7.13672 8.8457C6.61719 8.8457 6.38477 9.10547 6.38477 9.73438C6.38477 12.0586 8.44922 15.2031 9.99414 15.2031C11.5254 15.2031 13.6035 12.0586 13.6035 9.73438C13.6035 9.11914 13.3574 8.8457 12.8379 8.8457L12.6875 8.8457C12.4688 9.11914 12.127 9.29688 11.7578 9.29688C11.0605 9.29688 10.5137 8.72266 10.5137 8.05273C10.5137 7.36914 11.0605 6.80859 11.7578 6.80859C12.1406 6.80859 12.4961 7 12.7148 7.28711L12.7832 7.28711C14.3418 7.28711 15.1621 8.14844 15.1621 9.73438C15.1621 12.6191 12.8789 16.0918 10.7598 16.666C10.8555 18.9082 11.5801 20.1387 12.7559 20.1387C14.1094 20.1387 14.6836 19.0176 15.1621 16.3242C15.7227 13.3438 16.666 12.1133 18.4434 12.1133C20.207 12.1133 21.1504 13.4531 21.4512 16.2285C22.4082 16.5156 23.1191 17.418 23.1191 18.457C23.1191 19.7559 22.0664 20.8086 20.7539 20.8086C19.4414 20.8086 18.416 19.7695 18.416 18.457C18.416 17.459 19.0449 16.6113 19.9199 16.2832C19.7695 14.4648 19.2773 13.6582 18.4434 13.6582C17.5684 13.6582 17.0762 14.4648 16.6934 16.6387C16.1055 20.125 14.916 21.6973 12.8105 21.6973C10.623 21.6973 9.35156 19.8652 9.21484 16.666C7.0957 16.0781 4.82617 12.5918 4.82617 9.73438ZM19.8242 18.457C19.8242 18.9766 20.2344 19.4141 20.7539 19.4141C21.2734 19.4141 21.7109 18.9766 21.7109 18.457C21.7109 17.9375 21.2871 17.5137 20.7539 17.5137C20.2344 17.5137 19.8242 17.9375 19.8242 18.457Z" style="fill:var(--color-1,white)"></path>
 </g>
</svg>