<?xml version="1.0" encoding="UTF-8"?>
<!--Generator: Apple Native CoreSVG 326-->
<!DOCTYPE svg
PUBLIC "-//W3C//DTD SVG 1.1//EN"
       "http://www.w3.org/Graphics/SVG/1.1/DTD/svg11.dtd">
<svg version="1.1" xmlns="http://www.w3.org/2000/svg" xmlns:xlink="http://www.w3.org/1999/xlink" viewBox="0 0 37.8027 30.0371">
 <g>
  <rect height="30.0371" opacity="0" width="37.8027" x="0" y="0"/>
  <path d="M5.64648 2.51562C5.64648 2.92834 5.76946 3.31392 5.98172 3.63672L5.46875 3.63672C4.10156 3.63672 3.41797 4.45703 3.41797 5.97461C3.41797 10.3086 7.42383 17.6777 11.3203 17.6777C15.2168 17.6777 19.2363 10.3086 19.2363 5.97461C19.2363 4.45703 18.5527 3.63672 17.1719 3.63672L16.6452 3.63672C16.8575 3.31392 16.9805 2.92834 16.9805 2.51562C16.9805 2.12 16.8675 1.74931 16.6702 1.43555L17.0625 1.43555C19.9473 1.43555 21.4375 2.98047 21.4375 6.00195C21.4375 11.2885 16.9161 18.9824 12.4137 19.7964C12.553 24.9421 14.1992 27.8359 17.0078 27.8359C20.2617 27.8359 21.4785 24.9375 22.4492 19.5645C23.543 13.5898 25.3477 11.3203 28.6836 11.3203C32.1839 11.3203 33.9018 14.1109 34.4177 19.6738C34.1171 19.6031 33.8038 19.5663 33.4824 19.5645C33.0518 19.562 32.6358 19.6233 32.244 19.7415C31.9451 15.5648 30.8372 13.5215 28.6836 13.5215C26.6875 13.5215 25.4844 15.0801 24.6094 20.0566C23.4609 26.7285 21.3008 30.0371 17.1445 30.0371C12.8737 30.0371 10.3838 26.3868 10.216 19.7938C5.72172 18.9544 1.2168 11.2789 1.2168 6.00195C1.2168 2.98047 2.70703 1.43555 5.57812 1.43555L5.95673 1.43555C5.75949 1.74931 5.64648 2.12 5.64648 2.51562Z" fill="#5e5ce6"/>
  <path d="M7.71094 4.58008C8.83203 4.58008 9.76172 3.65039 9.76172 2.51562C9.76172 1.38086 8.83203 0.451172 7.71094 0.451172C6.57617 0.451172 5.64648 1.38086 5.64648 2.51562C5.64648 3.65039 6.57617 4.58008 7.71094 4.58008ZM14.916 4.58008C16.0508 4.58008 16.9805 3.65039 16.9805 2.51562C16.9805 1.38086 16.0508 0.451172 14.916 0.451172C13.7949 0.451172 12.8652 1.38086 12.8652 2.51562C12.8652 3.65039 13.7949 4.58008 14.916 4.58008ZM33.4824 28.2188C35.8613 28.2188 37.8027 26.291 37.8027 23.8848C37.8027 21.5059 35.8613 19.5781 33.4824 19.5645C31.0898 19.5508 29.1484 21.5059 29.1484 23.8848C29.1484 26.291 31.0898 28.2188 33.4824 28.2188ZM33.4824 26.291C32.1562 26.291 31.0625 25.2109 31.0625 23.8848C31.0625 22.5449 32.1562 21.4785 33.4824 21.4785C34.8086 21.4785 35.8887 22.5449 35.8887 23.8848C35.8887 25.2109 34.8086 26.291 33.4824 26.291Z" fill="white" fill-opacity="0.25"/>
 </g>
</svg>
