<svg version="1.1" xmlns="http://www.w3.org/2000/svg" xmlns:xlink="http://www.w3.org/1999/xlink" viewBox="0 0 22.627 22.2988">
 <g>
  
  <path d="M0 19.2637C0 21.1641 1.14844 22.2852 3.0625 22.2852L19.209 22.2852C21.1367 22.2852 22.2715 21.1641 22.2715 19.2637L22.2715 3.02148C22.2715 1.12109 21.1367 0 19.209 0L3.0625 0C1.14844 0 0 1.12109 0 3.02148ZM2.20117 18.7441L2.20117 3.54102C2.20117 2.70703 2.69336 2.20117 3.51367 2.20117L18.7578 2.20117C19.5918 2.20117 20.0703 2.70703 20.0703 3.54102L20.0703 18.7441C20.0703 19.5781 19.5918 20.084 18.7578 20.084L3.51367 20.084C2.69336 20.084 2.20117 19.5781 2.20117 18.7441Z" style="fill:var(--color-0,hsl(0 0 0/0.85))"></path>
 </g>
</svg>