<?xml version="1.0" encoding="UTF-8"?>
<!--Generator: Apple Native CoreSVG 326-->
<!DOCTYPE svg
PUBLIC "-//W3C//DTD SVG 1.1//EN"
       "http://www.w3.org/Graphics/SVG/1.1/DTD/svg11.dtd">
<svg version="1.1" xmlns="http://www.w3.org/2000/svg" xmlns:xlink="http://www.w3.org/1999/xlink" viewBox="0 0 30.2969 30.0098">
 <g>
  <rect height="30.0098" opacity="0" width="30.2969" x="0" y="0"/>
  <path d="M4.77148 29.9824L25.3203 29.9824C27.2754 29.9824 28.3965 28.875 28.3965 26.9609L28.3965 15.7227C27.5762 16.1738 26.5918 16.4609 25.5527 16.4609C24.2129 16.4609 23.0098 16.0098 22.0527 15.2715C21.082 16.0098 19.8789 16.4609 18.5391 16.4609C17.2129 16.4609 15.9961 16.0098 15.0391 15.2852C14.0957 16.0098 12.8789 16.4609 11.5527 16.4609C10.2129 16.4609 9.00977 16.0098 8.03906 15.2715C7.08203 16.0098 5.87891 16.4609 4.53906 16.4609C3.5 16.4609 2.5293 16.2148 1.68164 15.8047L1.68164 26.9609C1.68164 28.875 2.81641 29.9824 4.77148 29.9824ZM6.27539 27.7812L6.27539 20.3301C6.27539 19.7012 6.69922 19.291 7.32812 19.291L12.7012 19.291C13.3301 19.291 13.7402 19.7012 13.7402 20.3301L13.7402 27.7812ZM17.8418 24.4727C17.2129 24.4727 16.7891 24.0625 16.7891 23.4336L16.7891 19.7012C16.7891 19.0723 17.2129 18.6621 17.8418 18.6621L23.3926 18.6621C24.0215 18.6621 24.4316 19.0723 24.4316 19.7012L24.4316 23.4336C24.4316 24.0625 24.0215 24.4727 23.3926 24.4727ZM3.32227 3.10352L26.6055 3.10352L26.6055 2.78906C26.6055 1.05273 25.5391 0 23.7754 0L6.16602 0C4.40234 0 3.32227 1.05273 3.32227 2.78906ZM0.21875 9.84375L29.709 9.84375C29.6543 9.76172 29.6133 9.65234 29.5586 9.55664L26.8926 4.42969L3.03516 4.42969L0.369141 9.55664C0.314453 9.65234 0.273438 9.76172 0.21875 9.84375ZM4.4707 15.1348C5.91992 15.1348 7.17773 14.4648 7.9707 13.3984C8.75 14.4648 10.0215 15.1348 11.4707 15.1348C12.9336 15.1348 14.1914 14.4512 14.9707 13.3984C15.75 14.4512 17.0078 15.1348 18.4707 15.1348C19.9336 15.1348 21.1914 14.4648 21.9844 13.3984C22.7637 14.4648 24.0215 15.1348 25.4707 15.1348C27.959 15.1348 29.9414 13.1797 29.9414 11.416L29.9414 11.1699L0 11.1699L0 11.6895C0 13.4531 1.99609 15.1348 4.4707 15.1348Z" fill="white" fill-opacity="0.85"/>
 </g>
</svg>
