<?xml version="1.0" encoding="UTF-8"?>
<!--Generator: Apple Native CoreSVG 326-->
<!DOCTYPE svg
PUBLIC "-//W3C//DTD SVG 1.1//EN"
       "http://www.w3.org/Graphics/SVG/1.1/DTD/svg11.dtd">
<svg version="1.1" xmlns="http://www.w3.org/2000/svg" xmlns:xlink="http://www.w3.org/1999/xlink" viewBox="0 0 31.7734 29.9824">
 <g>
  <rect height="29.9824" opacity="0" width="31.7734" x="0" y="0"/>
  <path d="M4.68945 16.4746C6.20703 16.4746 7.5332 15.7773 8.36719 14.6699C9.1875 15.7773 10.5137 16.4746 12.0312 16.4746C13.5625 16.4746 14.8887 15.7773 15.709 14.6699C16.5293 15.7773 17.8555 16.4746 19.3867 16.4746C20.918 16.4746 22.2305 15.7773 23.0645 14.6699C23.8848 15.7773 25.2109 16.4746 26.7285 16.4746C29.3535 16.4746 31.418 14.4102 31.418 11.8125L31.418 11.5801C31.418 11.0469 31.2812 10.5684 31.0078 10.1035L27.3848 3.91016L27.3848 2.77539C27.3848 1.03906 26.3184 0 24.5547 0L6.87695 0C5.11328 0 4.0332 1.03906 4.0332 2.77539L4.0332 3.91016L0.410156 10.1035C0.136719 10.5684 0 11.0469 0 11.5801L0 11.8125C0 14.4102 2.06445 16.4746 4.68945 16.4746ZM6.09766 3.48633L6.09766 3.1582C6.09766 2.47461 6.49414 2.06445 7.16406 2.06445L24.2539 2.06445C24.9238 2.06445 25.3203 2.47461 25.3203 3.1582L25.3203 3.48633ZM2.36523 10.7734L5.33203 5.55078L25.9766 5.55078L29.0254 10.7734ZM2.05078 12.7012L7.32812 12.7012C7.02734 13.8086 6.09766 14.5469 4.68945 14.5469C3.28125 14.5469 2.35156 13.8086 2.05078 12.7012ZM9.40625 12.7012L14.6699 12.7012C14.3691 13.8086 13.4395 14.5469 12.0312 14.5469C10.6367 14.5469 9.69336 13.8086 9.40625 12.7012ZM16.748 12.7012L22.0254 12.7012C21.7246 13.8086 20.7949 14.5469 19.3867 14.5469C17.9785 14.5469 17.0488 13.8086 16.748 12.7012ZM24.1035 12.7012L29.3672 12.7012C29.0664 13.8086 28.1367 14.5469 26.7285 14.5469C25.334 14.5469 24.3906 13.8086 24.1035 12.7012ZM5.42773 29.9688L25.9902 29.9688C27.9316 29.9688 29.0664 28.8613 29.0664 26.9473L29.0664 15.3398L26.8652 15.4219L26.8652 26.3867C26.8652 27.2754 26.4004 27.7676 25.5254 27.7676L5.90625 27.7676C5.03125 27.7676 4.55273 27.2754 4.55273 26.3867L4.55273 15.4082L2.35156 15.3809L2.35156 26.9473C2.35156 28.8613 3.48633 29.9688 5.42773 29.9688ZM6.72656 29.0664L14.6152 29.0664L14.6152 20.0977C14.6152 19.4688 14.2051 19.0586 13.5762 19.0586L7.7793 19.0586C7.15039 19.0586 6.72656 19.4688 6.72656 20.0977ZM17.1855 19.373L17.1855 23.2285C17.1855 23.8711 17.5957 24.2676 18.2383 24.2676L23.7891 24.2676C24.418 24.2676 24.8145 23.8711 24.8145 23.2285L24.8145 19.373C24.8145 18.7305 24.418 18.334 23.7891 18.334L18.2383 18.334C17.5957 18.334 17.1855 18.7305 17.1855 19.373Z" fill="white" fill-opacity="0.85"/>
 </g>
</svg>
