<?xml version="1.0" encoding="UTF-8"?>
<!--Generator: Apple Native CoreSVG 326-->
<!DOCTYPE svg
PUBLIC "-//W3C//DTD SVG 1.1//EN"
       "http://www.w3.org/Graphics/SVG/1.1/DTD/svg11.dtd">
<svg version="1.1" xmlns="http://www.w3.org/2000/svg" xmlns:xlink="http://www.w3.org/1999/xlink" viewBox="0 0 27.1934 26.8652">
 <g>
  <rect height="26.8652" opacity="0" width="27.1934" x="0" y="0"/>
  <path d="M3.21289 24.377L23.6113 24.377C25.5527 24.377 26.8379 23.0918 26.8379 21.1641L26.8379 3.21289C26.8379 1.28516 25.5527 0 23.6113 0L3.21289 0C1.28516 0 0 1.28516 0 3.21289L0 21.1641C0 23.0918 1.28516 24.377 3.21289 24.377ZM3.24023 22.1758C2.61133 22.1758 2.20117 21.7383 2.20117 21.0684L2.20117 3.30859C2.20117 2.65234 2.61133 2.20117 3.24023 2.20117L23.5977 2.20117C24.2129 2.20117 24.6367 2.65234 24.6367 3.30859L24.6367 21.0684C24.6367 21.7383 24.2129 22.1758 23.5977 22.1758ZM6.31641 6.0293C7.05469 6.0293 7.66992 5.42773 7.66992 4.68945C7.66992 3.9375 7.05469 3.33594 6.31641 3.33594C5.56445 3.33594 4.94922 3.9375 4.94922 4.68945C4.94922 5.42773 5.56445 6.0293 6.31641 6.0293ZM11.0469 6.0293C11.7852 6.0293 12.4004 5.42773 12.4004 4.68945C12.4004 3.9375 11.7852 3.33594 11.0469 3.33594C10.2949 3.33594 9.67969 3.9375 9.67969 4.68945C9.67969 5.42773 10.2949 6.0293 11.0469 6.0293ZM15.7773 6.0293C16.5156 6.0293 17.1309 5.42773 17.1309 4.68945C17.1309 3.9375 16.5156 3.33594 15.7773 3.33594C15.0254 3.33594 14.4102 3.9375 14.4102 4.68945C14.4102 5.42773 15.0254 6.0293 15.7773 6.0293ZM20.5078 6.0293C21.2598 6.0293 21.875 5.42773 21.875 4.68945C21.875 3.9375 21.2598 3.33594 20.5078 3.33594C19.7695 3.33594 19.1543 3.9375 19.1543 4.68945C19.1543 5.42773 19.7695 6.0293 20.5078 6.0293ZM1.32617 8.98242L25.5254 8.98242L25.5254 7.19141L1.32617 7.19141ZM5.3457 20.5625L21.4922 20.5625C22.2715 20.5625 22.7773 20.0566 22.7773 19.291L22.7773 11.8809C22.7773 11.1016 22.2715 10.5957 21.4922 10.5957L5.3457 10.5957C4.56641 10.5957 4.07422 11.1016 4.07422 11.8809L4.07422 19.291C4.07422 20.0566 4.56641 20.5625 5.3457 20.5625ZM5.94727 19.0449C5.74219 19.0449 5.5918 18.8945 5.5918 18.6895L5.5918 12.4824C5.5918 12.2773 5.74219 12.1133 5.94727 12.1133L20.9043 12.1133C21.0957 12.1133 21.2598 12.2773 21.2598 12.4824L21.2598 18.6895C21.2598 18.8945 21.0957 19.0449 20.9043 19.0449ZM3.91016 26.8379C4.56641 26.8379 5.00391 26.4004 5.00391 25.7441L5.00391 23.0098L2.80273 23.0098L2.80273 25.7441C2.80273 26.4004 3.25391 26.8379 3.91016 26.8379ZM22.9277 26.8379C23.584 26.8379 24.0215 26.4004 24.0215 25.7441L24.0215 23.0098L21.8203 23.0098L21.8203 25.7441C21.8203 26.4004 22.2715 26.8379 22.9277 26.8379Z" fill="white" fill-opacity="0.85"/>
 </g>
</svg>
