<svg version="1.1" xmlns="http://www.w3.org/2000/svg" xmlns:xlink="http://www.w3.org/1999/xlink" viewBox="0 0 22.9277 20.2754">
 <g>
  
  <path d="M18.7305 14.3555C18.7305 17.9238 15.8184 20.2617 11.2793 20.2617C7.51953 20.2617 4.67578 18.6211 3.95117 16.0371C3.88281 15.7773 3.8418 15.5176 3.8418 15.2715C3.8418 14.5605 4.29297 14.1094 5.03125 14.1094C5.60547 14.1094 5.90625 14.3691 6.15234 14.957C6.84961 16.8984 8.75 18.0605 11.2793 18.0605C14.1367 18.0605 16.1465 16.625 16.1465 14.6562C16.1465 13.0156 14.957 12.0859 12.1133 11.4023L9.59766 10.8008C9.20753 10.709 8.83967 10.6095 8.4988 10.5L16.7033 10.5C18.0986 11.4121 18.7305 12.64 18.7305 14.3555ZM18.1289 4.21094C18.1836 4.41602 18.2109 4.63477 18.2109 4.83984C18.2109 5.52344 17.7734 5.93359 17.0625 5.93359C16.5156 5.93359 16.1875 5.6875 15.9688 5.16797C15.2988 3.28125 13.6172 2.21484 11.2656 2.21484C8.6543 2.21484 6.76758 3.56836 6.76758 5.48242C6.76758 7 7.94336 7.84766 10.7188 8.51758L12.9473 9.05078C13.3799 9.15308 13.786 9.26163 14.1611 9.37891L6.07999 9.37891C4.79049 8.4818 4.18359 7.27165 4.18359 5.66016C4.18359 2.35156 7.15039 0 11.2656 0C14.7793 0 17.5137 1.72266 18.1289 4.21094Z" style="fill:var(--color-0,hsl(0 0 0/0.85))"></path>
  <path d="M0.560547 10.5L22.0117 10.5C22.3262 10.5 22.5723 10.2539 22.5723 9.93945C22.5723 9.625 22.3262 9.37891 22.0117 9.37891L0.560547 9.37891C0.246094 9.37891 0 9.625 0 9.93945C0 10.2539 0.246094 10.5 0.560547 10.5Z" style="fill:var(--color-1,hsl(0 0 0/0.85))"></path>
 </g>
</svg>