<svg version="1.1" xmlns="http://www.w3.org/2000/svg" xmlns:xlink="http://www.w3.org/1999/xlink" viewBox="0 0 29.791 29.7637">
 <g>
  
  <path d="M15.6133 9.24219L28.1367 9.24219C27.6309 4.85352 23.8438 0.0683594 17.377 0.0683594C16.3379 0.0683594 15.6133 0.820312 15.6133 1.91406ZM12.127 19.6738L20.8496 19.6738C26.4551 19.6738 27.9727 16.1328 28.1777 12.8105L28.4785 12.8105C29.0117 12.8105 29.4355 12.373 29.4355 11.8398C29.4355 11.3066 29.0117 10.8828 28.4785 10.8828L4.4707 10.8828C3.9375 10.8828 3.51367 11.3066 3.51367 11.8398C3.51367 12.373 3.9375 12.8105 4.4707 12.8105L4.79883 12.8105L5.38672 15.1211C6.09766 17.9102 8.27148 19.6738 12.127 19.6738ZM9.44727 11.9219L12.3457 11.9219L5.08594 4.66211C4.77148 4.34766 4.42969 4.21094 3.99219 4.21094L1.02539 4.21094C0.464844 4.21094 0 4.67578 0 5.23633C0 5.79688 0.464844 6.27539 1.02539 6.27539L3.80078 6.27539ZM9.29688 23.0645L10.7324 24.5547L15.9961 19.291L14.5195 17.8418ZM22.2441 24.7324L23.7344 23.2969L18.5254 18.1016L16.8848 19.373ZM11.1289 26.7559L21.752 26.7559L21.752 24.9648L11.1289 24.9648ZM8.06641 29.7637C10.2402 29.7637 11.9492 28.0547 11.9492 25.8672C11.9492 23.6934 10.2402 21.9844 8.06641 21.9844C5.87891 21.9844 4.18359 23.6934 4.18359 25.8672C4.18359 28.0547 5.87891 29.7637 8.06641 29.7637ZM8.06641 27.9727C6.9043 27.9727 5.97461 27.043 5.97461 25.8672C5.97461 24.6914 6.9043 23.7754 8.06641 23.7754C9.24219 23.7754 10.1582 24.6914 10.1582 25.8672C10.1582 27.043 9.24219 27.9727 8.06641 27.9727ZM24.7188 29.4902C26.7148 29.4902 28.3281 27.877 28.3281 25.8672C28.3281 23.8711 26.7148 22.2578 24.7188 22.2578C22.709 22.2578 21.0957 23.8711 21.0957 25.8672C21.0957 27.877 22.7227 29.4902 24.7188 29.4902ZM24.7188 27.9727C23.5566 27.9727 22.6133 27.043 22.6133 25.8672C22.6133 24.6914 23.5566 23.7754 24.7188 23.7754C25.8945 23.7754 26.8105 24.6914 26.8105 25.8672C26.8105 27.043 25.8945 27.9727 24.7188 27.9727Z" style="fill:var(--color-0,hsl(0 0 0/0.85))"></path>
 </g>
</svg>