<?xml version="1.0" encoding="UTF-8"?>
<!--Generator: Apple Native CoreSVG 326-->
<!DOCTYPE svg
PUBLIC "-//W3C//DTD SVG 1.1//EN"
       "http://www.w3.org/Graphics/SVG/1.1/DTD/svg11.dtd">
<svg version="1.1" xmlns="http://www.w3.org/2000/svg" xmlns:xlink="http://www.w3.org/1999/xlink" viewBox="0 0 26.0176 27.4395">
 <g>
  <rect height="27.4395" opacity="0" width="26.0176" x="0" y="0"/>
  <path d="M0 16.2832C0 19.5371 2.5293 22.0664 5.7832 22.0664C7.60156 22.0664 9.47461 21.4648 10.2676 19.8652L10.4043 19.8652C10.418 21.6836 8.42188 23.1875 7.60156 24.0352C6.61719 25.0605 7.21875 26.4824 8.49023 26.4824L17.1719 26.4824C18.4434 26.4824 19.0312 25.0605 18.0605 24.0352C17.2402 23.1875 15.2441 21.6836 15.2578 19.8652L15.3945 19.8652C16.1875 21.4648 18.0605 22.0664 19.8652 22.0664C23.1328 22.0664 25.6621 19.5371 25.6621 16.2832C25.6621 10.1582 17.5137 7.57422 14.2461 0.984375C13.9727 0.423828 13.5488 0 12.8242 0C12.0996 0 11.6895 0.423828 11.416 0.984375C8.14844 7.57422 0 10.1582 0 16.2832Z" fill="white" fill-opacity="0.85"/>
 </g>
</svg>
