<svg version="1.1" xmlns="http://www.w3.org/2000/svg" xmlns:xlink="http://www.w3.org/1999/xlink" viewBox="0 0 38.0625 32.334">
 <g>
  
  <path d="M32.416 25.2793C33.0176 25.2793 33.5234 24.7871 33.5234 24.1719C33.5234 23.5566 33.0176 23.0781 32.416 23.0781L7.99805 23.0781C6.86328 23.0781 6.28906 22.4902 6.28906 21.3418L6.28906 7.75195C6.28906 5.20898 5.11328 4.06055 2.54297 4.06055L1.09375 4.06055C0.505859 4.06055 0 4.56641 0 5.1543C0 5.75586 0.505859 6.26172 1.09375 6.26172L2.37891 6.26172C3.51367 6.26172 4.08789 6.84961 4.08789 7.99805L4.08789 21.5879C4.08789 24.1172 5.26367 25.2793 7.83398 25.2793ZM27.5762 32.3203C28.957 32.3203 30.1191 31.1582 30.1191 29.791C30.1191 28.3965 28.957 27.2344 27.5762 27.2344C26.209 27.2344 25.0469 28.3965 25.0469 29.791C25.0469 31.1582 26.209 32.3203 27.5762 32.3203ZM12.9199 32.3203C14.3008 32.3203 15.4492 31.1582 15.4492 29.791C15.4492 28.3965 14.3008 27.2344 12.9199 27.2344C11.5391 27.2344 10.3906 28.3965 10.3906 29.791C10.3906 31.1582 11.5391 32.3203 12.9199 32.3203Z" style="fill:var(--color-0,hsl(0 0 0/0.85))"></path>
  <path d="M30.3926 20.9043C32.375 20.9043 33.5234 19.8379 33.5234 17.9648L33.5234 6.86328C33.5234 5.00391 32.375 3.92383 30.3926 3.92383L11.7305 3.92383C9.74805 3.92383 8.59961 5.00391 8.59961 6.86328L8.59961 17.9648C8.59961 19.8379 9.74805 20.9043 11.7305 20.9043ZM30.3789 18.9219L11.7441 18.9219C11.0059 18.9219 10.5957 18.5527 10.5957 17.8828L10.5957 6.94531C10.5957 6.28906 11.0059 5.91992 11.7441 5.91992L30.3789 5.91992C31.1172 5.91992 31.5273 6.28906 31.5273 6.94531L31.5273 17.8828C31.5273 18.5527 31.1172 18.9219 30.3789 18.9219ZM29.0391 20.0703L29.0391 5.38672L27.0566 5.38672L27.0566 20.0703ZM15.0664 20.0703L15.0664 4.83984L13.084 4.83984L13.084 20.0703ZM26.6875 5.11328L26.6875 3.11719C26.6875 1.09375 25.5801 0 23.5156 0L18.6074 0C16.4883 0 15.4219 1.03906 15.4219 3.11719L15.4219 5.08594L17.3496 5.08594L17.3496 2.99414C17.3496 2.24219 17.7734 1.83203 18.5664 1.83203L23.5566 1.83203C24.3496 1.83203 24.7598 2.24219 24.7598 2.99414L24.7598 5.11328Z" style="fill:var(--color-1,hsl(0 0 0/0.85))"></path>
 </g>
</svg>