<svg version="1.1" xmlns="http://www.w3.org/2000/svg" xmlns:xlink="http://www.w3.org/1999/xlink" viewBox="0 0 27.5078 25.9355">
 <g>
  
  <path d="M0 9.0918C0 14.916 4.88086 20.6445 12.5918 25.5664C12.8789 25.7441 13.2891 25.9355 13.5762 25.9355C13.8633 25.9355 14.2734 25.7441 14.5742 25.5664C22.2715 20.6445 27.1523 14.916 27.1523 9.0918C27.1523 4.25195 23.8301 0.833984 19.4004 0.833984C16.8711 0.833984 14.8203 2.03711 13.5762 3.88281C12.3594 2.05078 10.2812 0.833984 7.75195 0.833984C3.32227 0.833984 0 4.25195 0 9.0918ZM2.20117 9.0918C2.20117 5.45508 4.55273 3.03516 7.72461 3.03516C10.2949 3.03516 11.7715 4.63477 12.6465 6.00195C13.0156 6.54883 13.248 6.69922 13.5762 6.69922C13.9043 6.69922 14.1094 6.53516 14.5059 6.00195C15.4492 4.66211 16.8711 3.03516 19.4277 3.03516C22.5996 3.03516 24.9512 5.45508 24.9512 9.0918C24.9512 14.1777 19.5781 19.6602 13.8633 23.4609C13.7266 23.5566 13.6309 23.625 13.5762 23.625C13.5215 23.625 13.4258 23.5566 13.3027 23.4609C7.57422 19.6602 2.20117 14.1777 2.20117 9.0918Z" style="fill:var(--color-0,#ff3b30)"></path>
 </g>
</svg>