<svg version="1.1" xmlns="http://www.w3.org/2000/svg" xmlns:xlink="http://www.w3.org/1999/xlink" viewBox="0 0 26.4277 25.8535">
 <g>
  
  <path d="M0 15.3535C0 18.8945 2.36523 21.2598 5.90625 21.2598C7.71094 21.2598 9.51562 20.5352 10.418 19.4551L10.1992 18.9492C9.81641 20.9316 8.49023 22.4082 7.76562 23.2422C6.91797 24.2949 7.32812 25.6895 8.80469 25.6895L17.2676 25.6895C18.7441 25.6895 19.1543 24.2949 18.293 23.2422C17.582 22.4082 16.2559 20.9316 15.873 18.9492L15.6543 19.4551C16.5566 20.5352 18.3613 21.2598 20.166 21.2598C23.707 21.2598 26.0723 18.8945 26.0723 15.3535C26.0723 12.0859 23.4199 9.43359 20.1797 9.43359C18.6758 9.43359 17.1309 10.0215 15.9004 11.0195L16.0508 11.1562C18.1289 9.78906 18.9355 7.69727 18.9355 5.91992C18.9355 2.65234 16.2832 0 13.0293 0C9.78906 0 7.13672 2.65234 7.13672 5.91992C7.13672 7.69727 7.94336 9.74805 9.99414 11.1562L10.1172 10.9785C8.94141 10.0215 7.39648 9.43359 5.89258 9.43359C2.65234 9.43359 0 12.0859 0 15.3535ZM1.94141 15.3945C1.94141 13.1934 3.71875 11.4297 5.89258 11.4297C7.57422 11.4297 8.73633 11.9766 9.66602 12.3457C10.0898 12.4824 10.4316 12.5918 10.7734 12.5918C11.2656 12.5918 11.7441 12.2637 11.7441 11.6348C11.7441 11.2793 11.6074 10.9238 11.3613 10.6367C10.1445 9.21484 9.07812 8.09375 9.07812 5.96094C9.07812 3.75977 10.8418 1.99609 13.0293 1.99609C15.2305 1.99609 16.9941 3.75977 16.9941 5.96094C16.9941 8.09375 15.9277 9.21484 14.7109 10.6367C14.4648 10.9238 14.3281 11.2793 14.3281 11.6348C14.3281 12.2637 14.8066 12.5918 15.2988 12.5918C15.6406 12.5918 15.9688 12.4824 16.3926 12.3457C17.3223 11.9902 18.4844 11.4297 20.1797 11.4297C22.3535 11.4297 24.1309 13.1934 24.1309 15.3945C24.1309 17.7598 22.5449 19.3184 20.166 19.3184C18.5117 19.3184 16.9258 18.6621 16.0234 17.8418C15.2031 17.1172 14.0273 17.459 14.082 18.7031C14.2188 20.1113 15.1758 22.2168 16.1328 23.3789C16.3379 23.6113 16.2148 23.8027 16.0098 23.8027L10.0625 23.8027C9.85742 23.8027 9.73438 23.6113 9.93945 23.3789C10.8965 22.2168 11.8398 20.1113 11.9902 18.7031C12.0449 17.459 10.8691 17.1172 10.0352 17.8418C9.13281 18.6621 7.56055 19.3184 5.90625 19.3184C3.52734 19.3184 1.94141 17.7598 1.94141 15.3945Z" style="fill:var(--color-0,hsl(0 0 0/0.85))"></path>
 </g>
</svg>