<svg version="1.1" xmlns="http://www.w3.org/2000/svg" xmlns:xlink="http://www.w3.org/1999/xlink" viewBox="0 0 16.1602 25.1699">
 <g>
  
  <path d="M1.83203 25.1699L14.5605 25.1699C15.2578 25.1699 15.791 24.7324 15.791 24.0215C15.791 23.3242 15.2578 22.8594 14.5605 22.8594L2.88477 22.8594L2.88477 22.7363L10.2812 13.7676C10.6367 13.3301 10.8281 12.8926 10.8281 12.4551C10.8281 12.0039 10.6367 11.5527 10.2676 11.1289L2.89844 2.43359L2.89844 2.31055L14.5605 2.31055C15.2715 2.31055 15.8047 1.8457 15.8047 1.14844C15.8047 0.4375 15.2715 0 14.5605 0L1.8457 0C0.669922 0 0.0136719 0.806641 0.0136719 1.70898C0.0136719 2.17383 0.191406 2.66602 0.546875 3.07617L8.43555 12.373L8.43555 12.5234L0.519531 22.0938C0.177734 22.5039 0 22.9961 0 23.4609C0 24.3633 0.65625 25.1699 1.83203 25.1699Z" style="fill:var(--color-0,hsl(0 0 0/0.85))"></path>
 </g>
</svg>