<?xml version="1.0" encoding="UTF-8"?>
<!--Generator: Apple Native CoreSVG 326-->
<!DOCTYPE svg
PUBLIC "-//W3C//DTD SVG 1.1//EN"
       "http://www.w3.org/Graphics/SVG/1.1/DTD/svg11.dtd">
<svg version="1.1" xmlns="http://www.w3.org/2000/svg" xmlns:xlink="http://www.w3.org/1999/xlink" viewBox="0 0 28.2461 27.9043">
 <g>
  <rect height="27.9043" opacity="0" width="28.2461" x="0" y="0"/>
  <path d="M13.9453 27.8906C21.6426 27.8906 27.8906 21.6426 27.8906 13.9453C27.8906 6.24805 21.6426 0 13.9453 0C6.24805 0 0 6.24805 0 13.9453C0 21.6426 6.24805 27.8906 13.9453 27.8906ZM13.9453 25.5664C7.51953 25.5664 2.32422 20.3711 2.32422 13.9453C2.32422 7.51953 7.51953 2.32422 13.9453 2.32422C20.3711 2.32422 25.5664 7.51953 25.5664 13.9453C25.5664 20.3711 20.3711 25.5664 13.9453 25.5664Z" fill="white" fill-opacity="0.85"/>
  <path d="M13.9316 5.29102C13.4941 5.29102 13.0977 5.6875 13.0977 6.13867L13.0977 7.7793C13.0977 8.23047 13.4941 8.61328 13.9316 8.61328C14.3828 8.61328 14.7793 8.23047 14.7793 7.7793L14.7793 6.13867C14.7793 5.6875 14.3828 5.29102 13.9316 5.29102ZM20.0566 7.82031C19.7148 7.50586 19.168 7.50586 18.8672 7.82031L17.6914 9.00977C17.377 9.35156 17.377 9.88477 17.6914 10.1855C18.0195 10.5137 18.5527 10.5137 18.8809 10.1855L20.0566 9.00977C20.3711 8.69531 20.3711 8.14844 20.0566 7.82031ZM22.5586 13.9453C22.5586 13.4805 22.1758 13.0977 21.7246 13.0977L20.084 13.0977C19.6465 13.0977 19.25 13.4941 19.25 13.9453C19.25 14.3965 19.6465 14.7793 20.084 14.7793L21.7246 14.7793C22.1758 14.7793 22.5586 14.4102 22.5586 13.9453ZM20.0566 20.0566C20.3848 19.7148 20.3711 19.1816 20.0566 18.8809L18.8672 17.7051C18.5527 17.3906 18.0195 17.3906 17.6914 17.7051C17.3633 18.0332 17.377 18.5527 17.6914 18.8809L18.8672 20.0566C19.1816 20.3711 19.7148 20.3711 20.0566 20.0566ZM13.9316 22.5859C14.3828 22.5859 14.7793 22.2031 14.7793 21.752L14.7793 20.1113C14.7793 19.6602 14.3828 19.2773 13.9316 19.2773C13.4941 19.2773 13.0977 19.6602 13.0977 20.1113L13.0977 21.752C13.0977 22.2031 13.4941 22.5859 13.9316 22.5859ZM7.82031 20.043C8.14844 20.3711 8.68164 20.3711 8.99609 20.0566L10.1719 18.8945C10.4863 18.5801 10.4863 18.0469 10.1719 17.7051C9.85742 17.3906 9.31055 17.3906 8.99609 17.7051L7.82031 18.8809C7.49219 19.1953 7.50586 19.7148 7.82031 20.043ZM5.31836 13.9453C5.31836 14.4102 5.70117 14.7793 6.13867 14.7793L7.7793 14.7793C8.23047 14.7793 8.61328 14.3965 8.61328 13.9453C8.61328 13.4941 8.23047 13.0977 7.7793 13.0977L6.13867 13.0977C5.70117 13.0977 5.31836 13.4805 5.31836 13.9453ZM7.83398 7.82031C7.51953 8.14844 7.50586 8.69531 7.82031 9.00977L8.99609 10.1855C9.32422 10.5137 9.84375 10.5137 10.1719 10.1855C10.4863 9.87109 10.4863 9.33789 10.1719 9.00977L9.00977 7.82031C8.69531 7.51953 8.16211 7.51953 7.83398 7.82031ZM13.9316 18.0879C16.2285 18.0879 18.0742 16.2422 18.0742 13.9453C18.0742 11.6484 16.2285 9.80273 13.9316 9.80273C11.6348 9.80273 9.78906 11.6484 9.78906 13.9453C9.78906 16.2422 11.6348 18.0879 13.9316 18.0879Z" fill="white" fill-opacity="0.85"/>
 </g>
</svg>
