<?xml version="1.0" encoding="UTF-8"?>
<!--Generator: Apple Native CoreSVG 326-->
<!DOCTYPE svg
PUBLIC "-//W3C//DTD SVG 1.1//EN"
       "http://www.w3.org/Graphics/SVG/1.1/DTD/svg11.dtd">
<svg version="1.1" xmlns="http://www.w3.org/2000/svg" xmlns:xlink="http://www.w3.org/1999/xlink" viewBox="0 0 28.2461 27.9043">
 <g>
  <rect height="27.9043" opacity="0" width="28.2461" x="0" y="0"/>
  <path d="M13.9453 27.9043C21.6426 27.9043 27.8906 21.6562 27.8906 13.959C27.8906 6.27539 21.6426 0.0136719 13.9453 0.0136719C6.26172 0.0136719 0 6.27539 0 13.959C0 21.6562 6.26172 27.9043 13.9453 27.9043Z" fill="white" fill-opacity="0.85"/>
  <path d="M8.75 13.7539C8.75 14.2051 8.36719 14.5469 7.86133 14.5469L6.05664 14.5469C5.57812 14.5469 5.20898 14.1777 5.20898 13.7539C5.20898 13.3301 5.57812 12.9746 6.05664 12.9746L7.86133 12.9746C8.35352 12.9746 8.75 13.3027 8.75 13.7539ZM10.2539 10.2539C9.93945 10.582 9.44727 10.541 9.10547 10.2129L7.82031 8.91406C7.46484 8.54492 7.45117 8.06641 7.75195 7.76562C8.05273 7.46484 8.54492 7.4375 8.90039 7.80664L10.2129 9.10547C10.5547 9.43359 10.582 9.93945 10.2539 10.2539ZM13.9316 8.28516C13.4941 8.28516 13.1523 7.90234 13.1523 7.41016L13.1523 5.60547C13.1523 5.11328 13.5078 4.75781 13.9316 4.75781C14.3555 4.75781 14.7246 5.11328 14.7246 5.60547L14.7246 7.41016C14.7246 7.88867 14.3691 8.28516 13.9316 8.28516ZM17.623 10.2539C17.2949 9.93945 17.2949 9.44727 17.6504 9.10547L18.9629 7.80664C19.291 7.45117 19.8105 7.45117 20.125 7.76562C20.4121 8.08008 20.3984 8.54492 20.043 8.91406L18.7715 10.2129C18.4297 10.5547 17.9375 10.5684 17.623 10.2539ZM19.127 13.7539C19.127 13.3027 19.5098 12.9746 20.002 12.9746L21.8203 12.9746C22.2988 12.9746 22.6543 13.3301 22.6543 13.7539C22.6543 14.1914 22.2988 14.5469 21.8203 14.5469L20.002 14.5469C19.5098 14.5469 19.127 14.1914 19.127 13.7539ZM9.9668 15.2168C9.83008 14.8203 9.73438 14.3828 9.73438 13.9316C9.73438 11.6348 11.6484 9.7207 13.9316 9.7207C16.2285 9.7207 18.1289 11.6348 18.1289 13.9316C18.1289 14.3828 18.0332 14.8203 17.8965 15.2168ZM7.02734 17.2402C6.74023 17.2402 6.53516 17.0352 6.53516 16.748C6.53516 16.4609 6.74023 16.2559 7.02734 16.2559L22.1621 16.2559C22.4492 16.2559 22.6543 16.4609 22.6543 16.748C22.6543 17.0352 22.4492 17.2402 22.1621 17.2402ZM5.71484 19.1816C5.42773 19.1816 5.20898 18.9629 5.20898 18.6758C5.20898 18.4023 5.42773 18.1836 5.71484 18.1836L20.8359 18.1836C21.123 18.1836 21.3281 18.4023 21.3281 18.6758C21.3281 18.9629 21.123 19.1816 20.8359 19.1816ZM7.02734 21.1094C6.74023 21.1094 6.53516 20.9043 6.53516 20.6172C6.53516 20.3301 6.74023 20.125 7.02734 20.125L22.1621 20.125C22.4492 20.125 22.6543 20.3301 22.6543 20.6172C22.6543 20.9043 22.4492 21.1094 22.1621 21.1094Z" fill="white"/>
 </g>
</svg>
