<?xml version="1.0" encoding="UTF-8"?>
<!--Generator: Apple Native CoreSVG 326-->
<!DOCTYPE svg
PUBLIC "-//W3C//DTD SVG 1.1//EN"
       "http://www.w3.org/Graphics/SVG/1.1/DTD/svg11.dtd">
<svg version="1.1" xmlns="http://www.w3.org/2000/svg" xmlns:xlink="http://www.w3.org/1999/xlink" viewBox="0 0 36.9961 32.9082">
 <g>
  <rect height="32.9082" opacity="0" width="36.9961" x="0" y="0"/>
  <path d="M25.7988 15.7773C25.7988 17.3841 25.275 18.8853 24.3853 20.1113L21.3143 20.1113C22.6913 19.1575 23.5977 17.5664 23.5977 15.7773C23.5977 12.8789 21.2188 10.5 18.3203 10.5C15.4219 10.5 13.043 12.8789 13.043 15.7773C13.043 17.5664 13.9493 19.1575 15.3263 20.1113L12.2553 20.1113C11.3656 18.8853 10.8418 17.3841 10.8418 15.7773C10.8418 11.6758 14.2324 8.28516 18.3203 8.28516C22.4082 8.28516 25.7988 11.6758 25.7988 15.7773ZM8.35352 15.4219C8.36719 16.0371 7.83398 16.5293 7.12305 16.5293L3.75977 16.5293C3.0625 16.5293 2.54297 16.0371 2.54297 15.4219C2.54297 14.8066 3.0625 14.3145 3.75977 14.3145L7.12305 14.3145C7.83398 14.3145 8.33984 14.8203 8.35352 15.4219ZM34.0977 15.4219C34.0977 16.0371 33.5918 16.5293 32.8809 16.5293L29.5176 16.5293C28.8066 16.5293 28.3008 16.0371 28.2871 15.4219C28.2734 14.8066 28.8066 14.3145 29.5176 14.3145L32.8809 14.3145C33.5918 14.3145 34.0977 14.8203 34.0977 15.4219ZM8.80469 4.68945L11.1973 7.06836C11.6895 7.57422 11.6895 8.28516 11.2656 8.72266C10.8418 9.16016 10.1172 9.14648 9.61133 8.64062L7.23242 6.26172C6.72656 5.75586 6.72656 5.04492 7.16406 4.62109C7.60156 4.19727 8.29883 4.18359 8.80469 4.68945ZM29.4766 4.62109C29.9004 5.05859 29.9141 5.75586 29.4082 6.26172L27.0293 8.64062C26.5234 9.14648 25.7988 9.14648 25.375 8.72266C24.9375 8.29883 24.9512 7.57422 25.4434 7.06836L27.8223 4.68945C28.3418 4.18359 29.0527 4.18359 29.4766 4.62109ZM19.4277 1.2168L19.4277 4.58008C19.4277 5.27734 18.9355 5.79688 18.3203 5.81055C17.7051 5.82422 17.2129 5.27734 17.2129 4.58008L17.2129 1.2168C17.2129 0.505859 17.7051 0 18.3203 0C18.9355 0 19.4277 0.505859 19.4277 1.2168Z" fill="white" fill-opacity="0.85"/>
  <path d="M4.40234 21.834L32.1699 21.834C32.6621 21.834 33.0312 21.4648 33.0312 20.9727C33.0312 20.4805 32.6621 20.1113 32.1699 20.1113L4.40234 20.1113C3.92383 20.1113 3.54102 20.4805 3.54102 20.9727C3.54102 21.4648 3.92383 21.834 4.40234 21.834ZM5.63281 26.2637C6.0293 26.2637 6.33008 25.9492 6.33008 25.5664C6.33008 25.1699 6.0293 24.8555 5.63281 24.8555C5.23633 24.8555 4.93555 25.1699 4.93555 25.5664C4.93555 25.9492 5.23633 26.2637 5.63281 26.2637ZM11.4023 26.2637C11.7988 26.2637 12.1133 25.9492 12.1133 25.5664C12.1133 25.1699 11.7988 24.8555 11.4023 24.8555C11.0195 24.8555 10.7051 25.1699 10.7051 25.5664C10.7051 25.9492 11.0195 26.2637 11.4023 26.2637ZM17.1855 26.2637C17.582 26.2637 17.8828 25.9492 17.8828 25.5664C17.8828 25.1699 17.582 24.8555 17.1855 24.8555C16.7891 24.8555 16.4883 25.1699 16.4883 25.5664C16.4883 25.9492 16.7891 26.2637 17.1855 26.2637ZM22.9551 26.2637C23.3516 26.2637 23.666 25.9492 23.666 25.5664C23.666 25.1699 23.3516 24.8555 22.9551 24.8555C22.5723 24.8555 22.2578 25.1699 22.2578 25.5664C22.2578 25.9492 22.5723 26.2637 22.9551 26.2637ZM28.7383 26.2637C29.1348 26.2637 29.4355 25.9492 29.4355 25.5664C29.4355 25.1699 29.1348 24.8555 28.7383 24.8555C28.3418 24.8555 28.041 25.1699 28.041 25.5664C28.041 25.9492 28.3418 26.2637 28.7383 26.2637ZM3.88281 29.5723C4.2793 29.5723 4.59375 29.2715 4.59375 28.875C4.59375 28.4785 4.2793 28.1777 3.88281 28.1777C3.5 28.1777 3.18555 28.4785 3.18555 28.875C3.18555 29.2715 3.5 29.5723 3.88281 29.5723ZM9.66602 29.5723C10.0488 29.5723 10.3633 29.2715 10.3633 28.875C10.3633 28.4785 10.0488 28.1777 9.66602 28.1777C9.26953 28.1777 8.96875 28.4785 8.96875 28.875C8.96875 29.2715 9.26953 29.5723 9.66602 29.5723ZM15.4355 29.5723C15.832 29.5723 16.1465 29.2715 16.1465 28.875C16.1465 28.4785 15.832 28.1777 15.4355 28.1777C15.0527 28.1777 14.7383 28.4785 14.7383 28.875C14.7383 29.2715 15.0527 29.5723 15.4355 29.5723ZM21.2188 29.5723C21.6016 29.5723 21.916 29.2715 21.916 28.875C21.916 28.4785 21.6016 28.1777 21.2188 28.1777C20.8223 28.1777 20.5078 28.4785 20.5078 28.875C20.5078 29.2715 20.8223 29.5723 21.2188 29.5723ZM26.9883 29.5723C27.3848 29.5723 27.6992 29.2715 27.6992 28.875C27.6992 28.4785 27.3848 28.1777 26.9883 28.1777C26.6055 28.1777 26.291 28.4785 26.291 28.875C26.291 29.2715 26.6055 29.5723 26.9883 29.5723ZM32.7715 29.5723C33.1543 29.5723 33.4688 29.2715 33.4688 28.875C33.4688 28.4785 33.1543 28.1777 32.7715 28.1777C32.375 28.1777 32.0605 28.4785 32.0605 28.875C32.0605 29.2715 32.375 29.5723 32.7715 29.5723ZM7.91602 32.8945C8.3125 32.8945 8.61328 32.5801 8.61328 32.1973C8.61328 31.8008 8.3125 31.4863 7.91602 31.4863C7.51953 31.4863 7.21875 31.8008 7.21875 32.1973C7.21875 32.5801 7.51953 32.8945 7.91602 32.8945ZM13.6992 32.8945C14.082 32.8945 14.3965 32.5801 14.3965 32.1973C14.3965 31.8008 14.082 31.4863 13.6992 31.4863C13.3027 31.4863 12.9883 31.8008 12.9883 32.1973C12.9883 32.5801 13.3027 32.8945 13.6992 32.8945ZM19.4688 32.8945C19.8652 32.8945 20.166 32.5801 20.166 32.1973C20.166 31.8008 19.8652 31.4863 19.4688 31.4863C19.0723 31.4863 18.7715 31.8008 18.7715 32.1973C18.7715 32.5801 19.0723 32.8945 19.4688 32.8945ZM25.252 32.8945C25.6348 32.8945 25.9492 32.5801 25.9492 32.1973C25.9492 31.8008 25.6348 31.4863 25.252 31.4863C24.8555 31.4863 24.541 31.8008 24.541 32.1973C24.541 32.5801 24.8555 32.8945 25.252 32.8945ZM31.0215 32.8945C31.418 32.8945 31.7188 32.5801 31.7188 32.1973C31.7188 31.8008 31.418 31.4863 31.0215 31.4863C30.625 31.4863 30.3242 31.8008 30.3242 32.1973C30.3242 32.5801 30.625 32.8945 31.0215 32.8945Z" fill="white" fill-opacity="0.85"/>
 </g>
</svg>
