<?xml version="1.0" encoding="UTF-8"?>
<!--Generator: Apple Native CoreSVG 326-->
<!DOCTYPE svg
PUBLIC "-//W3C//DTD SVG 1.1//EN"
       "http://www.w3.org/Graphics/SVG/1.1/DTD/svg11.dtd">
<svg version="1.1" xmlns="http://www.w3.org/2000/svg" xmlns:xlink="http://www.w3.org/1999/xlink" viewBox="0 0 34.8906 32.9082">
 <g>
  <rect height="32.9082" opacity="0" width="34.8906" x="0" y="0"/>
  <path d="M24.6777 15.75C24.6777 16.7224 24.4835 17.6562 24.1281 18.5117L10.4071 18.5117C10.0516 17.6562 9.85742 16.7224 9.85742 15.75C9.85742 11.7168 13.2207 8.33984 17.2676 8.33984C21.3145 8.33984 24.6777 11.7168 24.6777 15.75ZM7.30078 15.4219C7.31445 16.0371 6.78125 16.5293 6.07031 16.5293L2.70703 16.5293C2.00977 16.5293 1.49023 16.0371 1.49023 15.4219C1.49023 14.8066 2.00977 14.3145 2.70703 14.3145L6.07031 14.3145C6.78125 14.3145 7.28711 14.8203 7.30078 15.4219ZM33.0449 15.4219C33.0449 16.0371 32.5391 16.543 31.8281 16.5293L28.4648 16.5293C27.7676 16.5293 27.248 16.0371 27.2344 15.4219C27.2207 14.8066 27.7676 14.3145 28.4648 14.3145L31.8281 14.3145C32.5391 14.3145 33.0449 14.8203 33.0449 15.4219ZM7.76562 4.68945L10.1445 7.06836C10.6367 7.57422 10.6367 8.28516 10.2266 8.72266C9.80273 9.16016 9.06445 9.14648 8.55859 8.64062L6.17969 6.26172C5.67383 5.75586 5.67383 5.04492 6.125 4.62109C6.54883 4.19727 7.25977 4.18359 7.76562 4.68945ZM28.4238 4.62109C28.8477 5.05859 28.8613 5.75586 28.3555 6.26172L25.9766 8.64062C25.4707 9.14648 24.7598 9.14648 24.3223 8.72266C23.8848 8.29883 23.8984 7.57422 24.4043 7.06836L26.7832 4.68945C27.2891 4.18359 28 4.18359 28.4238 4.62109ZM18.375 1.2168L18.375 4.58008C18.375 5.27734 17.8828 5.79688 17.2676 5.81055C16.6523 5.82422 16.1602 5.27734 16.1602 4.58008L16.1602 1.2168C16.1602 0.505859 16.6523 0 17.2676 0C17.8828 0 18.375 0.505859 18.375 1.2168Z" fill="#ffd60a"/>
  <path d="M3.36328 21.834L31.1309 21.834C31.6094 21.834 31.9922 21.4648 31.9922 20.9727C31.9922 20.4805 31.6094 20.1113 31.1309 20.1113L3.36328 20.1113C2.87109 20.1113 2.50195 20.4805 2.50195 20.9727C2.50195 21.4648 2.87109 21.834 3.36328 21.834ZM4.58008 26.2637C4.97656 26.2637 5.29102 25.9492 5.29102 25.5664C5.29102 25.1699 4.97656 24.8555 4.58008 24.8555C4.19727 24.8555 3.88281 25.1699 3.88281 25.5664C3.88281 25.9492 4.19727 26.2637 4.58008 26.2637ZM10.3633 26.2637C10.7461 26.2637 11.0605 25.9492 11.0605 25.5664C11.0605 25.1699 10.7461 24.8555 10.3633 24.8555C9.9668 24.8555 9.66602 25.1699 9.66602 25.5664C9.66602 25.9492 9.9668 26.2637 10.3633 26.2637ZM16.1328 26.2637C16.5293 26.2637 16.8438 25.9492 16.8438 25.5664C16.8438 25.1699 16.5293 24.8555 16.1328 24.8555C15.75 24.8555 15.4355 25.1699 15.4355 25.5664C15.4355 25.9492 15.75 26.2637 16.1328 26.2637ZM21.916 26.2637C22.2988 26.2637 22.6133 25.9492 22.6133 25.5664C22.6133 25.1699 22.2988 24.8555 21.916 24.8555C21.5195 24.8555 21.2051 25.1699 21.2051 25.5664C21.2051 25.9492 21.5195 26.2637 21.916 26.2637ZM27.6855 26.2637C28.082 26.2637 28.3965 25.9492 28.3965 25.5664C28.3965 25.1699 28.082 24.8555 27.6855 24.8555C27.3027 24.8555 26.9883 25.1699 26.9883 25.5664C26.9883 25.9492 27.3027 26.2637 27.6855 26.2637ZM2.84375 29.5723C3.22656 29.5723 3.54102 29.2715 3.54102 28.875C3.54102 28.4785 3.22656 28.1777 2.84375 28.1777C2.44727 28.1777 2.13281 28.4785 2.13281 28.875C2.13281 29.2715 2.44727 29.5723 2.84375 29.5723ZM8.61328 29.5723C9.00977 29.5723 9.31055 29.2715 9.31055 28.875C9.31055 28.4785 9.00977 28.1777 8.61328 28.1777C8.2168 28.1777 7.91602 28.4785 7.91602 28.875C7.91602 29.2715 8.2168 29.5723 8.61328 29.5723ZM14.3965 29.5723C14.7793 29.5723 15.0938 29.2715 15.0938 28.875C15.0938 28.4785 14.7793 28.1777 14.3965 28.1777C14 28.1777 13.6855 28.4785 13.6855 28.875C13.6855 29.2715 14 29.5723 14.3965 29.5723ZM20.166 29.5723C20.5625 29.5723 20.8633 29.2715 20.8633 28.875C20.8633 28.4785 20.5625 28.1777 20.166 28.1777C19.7695 28.1777 19.4688 28.4785 19.4688 28.875C19.4688 29.2715 19.7695 29.5723 20.166 29.5723ZM25.9492 29.5723C26.332 29.5723 26.6465 29.2715 26.6465 28.875C26.6465 28.4785 26.332 28.1777 25.9492 28.1777C25.5527 28.1777 25.2383 28.4785 25.2383 28.875C25.2383 29.2715 25.5527 29.5723 25.9492 29.5723ZM31.7188 29.5723C32.1152 29.5723 32.416 29.2715 32.416 28.875C32.416 28.4785 32.1152 28.1777 31.7188 28.1777C31.3223 28.1777 31.0215 28.4785 31.0215 28.875C31.0215 29.2715 31.3223 29.5723 31.7188 29.5723ZM6.87695 32.8945C7.25977 32.8945 7.57422 32.5801 7.57422 32.1973C7.57422 31.8008 7.25977 31.4863 6.87695 31.4863C6.48047 31.4863 6.16602 31.8008 6.16602 32.1973C6.16602 32.5801 6.48047 32.8945 6.87695 32.8945ZM12.6465 32.8945C13.043 32.8945 13.3438 32.5801 13.3438 32.1973C13.3438 31.8008 13.043 31.4863 12.6465 31.4863C12.25 31.4863 11.9492 31.8008 11.9492 32.1973C11.9492 32.5801 12.25 32.8945 12.6465 32.8945ZM18.416 32.8945C18.8125 32.8945 19.127 32.5801 19.127 32.1973C19.127 31.8008 18.8125 31.4863 18.416 31.4863C18.0332 31.4863 17.7188 31.8008 17.7188 32.1973C17.7188 32.5801 18.0332 32.8945 18.416 32.8945ZM24.1992 32.8945C24.5957 32.8945 24.8965 32.5801 24.8965 32.1973C24.8965 31.8008 24.5957 31.4863 24.1992 31.4863C23.8027 31.4863 23.502 31.8008 23.502 32.1973C23.502 32.5801 23.8027 32.8945 24.1992 32.8945ZM29.9688 32.8945C30.3652 32.8945 30.6797 32.5801 30.6797 32.1973C30.6797 31.8008 30.3652 31.4863 29.9688 31.4863C29.5859 31.4863 29.2715 31.8008 29.2715 32.1973C29.2715 32.5801 29.5859 32.8945 29.9688 32.8945Z" fill="white"/>
 </g>
</svg>
