<?xml version="1.0" encoding="UTF-8"?>
<!--Generator: Apple Native CoreSVG 326-->
<!DOCTYPE svg
PUBLIC "-//W3C//DTD SVG 1.1//EN"
       "http://www.w3.org/Graphics/SVG/1.1/DTD/svg11.dtd">
<svg version="1.1" xmlns="http://www.w3.org/2000/svg" xmlns:xlink="http://www.w3.org/1999/xlink" viewBox="0 0 28.2461 27.9043">
 <g>
  <rect height="27.9043" opacity="0" width="28.2461" x="0" y="0"/>
  <path d="M13.9453 27.8906C21.6426 27.8906 27.8906 21.6426 27.8906 13.9453C27.8906 6.24805 21.6426 0 13.9453 0C6.24805 0 0 6.24805 0 13.9453C0 21.6426 6.24805 27.8906 13.9453 27.8906ZM13.9453 25.5664C7.51953 25.5664 2.32422 20.3711 2.32422 13.9453C2.32422 7.51953 7.51953 2.32422 13.9453 2.32422C20.3711 2.32422 25.5664 7.51953 25.5664 13.9453C25.5664 20.3711 20.3711 25.5664 13.9453 25.5664Z" fill="white" fill-opacity="0.85"/>
  <path d="M18.0059 13.8223C18.0059 11.5801 16.1602 9.73438 13.9316 9.73438C11.7168 9.73438 9.85742 11.5801 9.85742 13.8223C9.85742 14.2461 9.95312 14.6836 10.0898 15.0801L17.7734 15.0801C17.9102 14.6836 18.0059 14.2461 18.0059 13.8223ZM6.28906 14.3965L8.05273 14.3965C8.53125 14.3965 8.88672 14.0684 8.88672 13.6445C8.88672 13.2207 8.51758 12.8789 8.05273 12.8789L6.28906 12.8789C5.82422 12.8789 5.46875 13.2344 5.46875 13.6445C5.46875 14.0547 5.82422 14.3965 6.28906 14.3965ZM9.25586 10.1992C9.58398 10.5273 10.0625 10.5547 10.3633 10.2539C10.6777 9.95312 10.6504 9.46094 10.3223 9.13281L9.05078 7.86133C8.70898 7.51953 8.24414 7.56055 7.94336 7.83398C7.65625 8.14844 7.65625 8.59961 7.99805 8.94141ZM14.6973 7.50586L14.6973 5.72852C14.6973 5.26367 14.3418 4.92188 13.9316 4.92188C13.5215 4.92188 13.1797 5.26367 13.1797 5.72852L13.1797 7.50586C13.1797 7.9707 13.5078 8.33984 13.9316 8.33984C14.3555 8.33984 14.6973 7.95703 14.6973 7.50586ZM17.5137 10.2539C17.8145 10.541 18.293 10.541 18.6211 10.1992L19.8652 8.94141C20.207 8.59961 20.2207 8.14844 19.9336 7.83398C19.6328 7.5332 19.1406 7.5332 18.8125 7.86133L17.541 9.13281C17.1992 9.47461 17.1992 9.95312 17.5137 10.2539ZM19.8105 14.3965L21.5879 14.3965C22.0527 14.3965 22.3945 14.0547 22.3945 13.6445C22.3945 13.2344 22.0527 12.8789 21.5879 12.8789L19.8105 12.8789C19.3457 12.8789 18.9766 13.2207 18.9766 13.6445C18.9766 14.0684 19.3457 14.3965 19.8105 14.3965ZM6.27539 17.5684L21.6016 17.5684C22.0117 17.5684 22.3945 17.2402 22.3945 16.8164C22.3945 16.3789 22.0254 16.0645 21.6016 16.0645L6.27539 16.0645C5.85156 16.0645 5.46875 16.3789 5.46875 16.8164C5.46875 17.2402 5.86523 17.5684 6.27539 17.5684ZM9.41992 22.1895C9.63867 22.1895 9.80273 21.9844 9.78906 21.7656L9.73438 20.9453L10.418 21.4102C10.582 21.5332 10.8555 21.4785 10.9512 21.3008C11.0879 21.1367 11.0332 20.8496 10.7871 20.7402L10.0488 20.3848L10.7871 20.002C11.0195 19.8789 11.0605 19.6602 10.9648 19.4688C10.8691 19.2773 10.582 19.2363 10.418 19.3457L9.73438 19.8242L9.78906 19.0176C9.80273 18.7715 9.63867 18.5801 9.41992 18.5801C9.17383 18.5801 9.02344 18.7715 9.03711 19.0039L9.07812 19.8242L8.39453 19.3457C8.2168 19.2363 7.9707 19.2637 7.86133 19.4688C7.75195 19.6328 7.79297 19.8789 8.03906 20.0156L8.75 20.3848L8.03906 20.7402C7.79297 20.8496 7.75195 21.1094 7.84766 21.2871C7.94336 21.4922 8.2168 21.5332 8.39453 21.4102L9.07812 20.9453L9.05078 21.7656C9.03711 21.9844 9.17383 22.1895 9.41992 22.1895ZM13.9316 22.1895C14.1504 22.1895 14.3145 21.9844 14.3008 21.7656L14.2461 20.9453L14.9297 21.4102C15.0938 21.5332 15.3672 21.4785 15.4629 21.3008C15.5996 21.1367 15.5449 20.8496 15.2988 20.7402L14.5605 20.3848L15.2988 20.002C15.5312 19.8789 15.5723 19.6602 15.4766 19.4688C15.3809 19.2773 15.0938 19.2363 14.9297 19.3457L14.2461 19.8242L14.3008 19.0176C14.3145 18.7715 14.1504 18.5801 13.9316 18.5801C13.6855 18.5801 13.5352 18.7715 13.5488 19.0039L13.5898 19.8242L12.9062 19.3457C12.7285 19.2363 12.4688 19.2637 12.373 19.4688C12.2637 19.6328 12.3047 19.8789 12.5508 20.0156L13.2617 20.3848L12.5508 20.7402C12.3047 20.8496 12.2637 21.1094 12.3594 21.2871C12.4414 21.4922 12.7285 21.5332 12.9062 21.4102L13.5898 20.9453L13.5625 21.7656C13.5488 21.9844 13.6855 22.1895 13.9316 22.1895ZM18.4434 22.1895C18.6621 22.1895 18.8125 21.9844 18.7988 21.7656L18.7578 20.9453L19.4414 21.4102C19.6055 21.5332 19.8789 21.4785 19.9746 21.3008C20.1113 21.1367 20.043 20.8496 19.8105 20.7402L19.0723 20.3848L19.8105 20.002C20.0293 19.8789 20.084 19.6602 19.9883 19.4688C19.8926 19.2773 19.6055 19.2363 19.4414 19.3457L18.7578 19.8242L18.7988 19.0176C18.8125 18.7715 18.6621 18.5801 18.4434 18.5801C18.1973 18.5801 18.0469 18.7715 18.0605 19.0039L18.1016 19.8242L17.418 19.3457C17.2402 19.2363 16.9805 19.2637 16.8848 19.4688C16.7754 19.6328 16.8164 19.8789 17.0488 20.0156L17.7734 20.3848L17.0488 20.7402C16.8027 20.8496 16.7754 21.1094 16.8711 21.2871C16.9531 21.4922 17.2402 21.5332 17.418 21.4102L18.1016 20.9453L18.0742 21.7656C18.0605 21.9844 18.1973 22.1895 18.4434 22.1895Z" fill="white" fill-opacity="0.85"/>
 </g>
</svg>
