<svg version="1.1" xmlns="http://www.w3.org/2000/svg" xmlns:xlink="http://www.w3.org/1999/xlink" viewBox="0 0 34.8906 34.6855">
 <g>
  
  <path d="M24.6777 16.6387C24.6777 17.6111 24.4835 18.5449 24.1281 19.4004L10.4071 19.4004C10.0516 18.5449 9.85742 17.6111 9.85742 16.6387C9.85742 12.6055 13.2207 9.22852 17.2676 9.22852C21.3145 9.22852 24.6777 12.6055 24.6777 16.6387ZM7.30078 16.3105C7.31445 16.9258 6.78125 17.418 6.07031 17.418L2.70703 17.418C2.00977 17.418 1.49023 16.9258 1.49023 16.3105C1.49023 15.6953 2.00977 15.2031 2.70703 15.2031L6.07031 15.2031C6.78125 15.2031 7.28711 15.709 7.30078 16.3105ZM33.0449 16.3105C33.0449 16.9258 32.5391 17.4316 31.8281 17.418L28.4648 17.418C27.7676 17.418 27.248 16.9258 27.2344 16.3105C27.2207 15.6953 27.7676 15.2031 28.4648 15.2031L31.8281 15.2031C32.5391 15.2031 33.0449 15.709 33.0449 16.3105ZM7.76562 5.57812L10.1445 7.95703C10.6367 8.46289 10.6367 9.17383 10.2266 9.61133C9.80273 10.0488 9.06445 10.0352 8.55859 9.5293L6.17969 7.15039C5.67383 6.64453 5.67383 5.93359 6.125 5.50977C6.54883 5.08594 7.25977 5.07227 7.76562 5.57812ZM28.4238 5.50977C28.8477 5.94727 28.8613 6.64453 28.3555 7.15039L25.9766 9.5293C25.4707 10.0352 24.7598 10.0352 24.3223 9.61133C23.8848 9.1875 23.8984 8.46289 24.4043 7.95703L26.7832 5.57812C27.2891 5.07227 28 5.07227 28.4238 5.50977ZM18.375 2.10547L18.375 5.46875C18.375 6.16602 17.8828 6.68555 17.2676 6.69922C16.6523 6.71289 16.1602 6.16602 16.1602 5.46875L16.1602 2.10547C16.1602 1.39453 16.6523 0.888672 17.2676 0.888672C17.8828 0.888672 18.375 1.39453 18.375 2.10547Z" style="fill:var(--color-0,#ffcc00)"></path>
  <path d="M9.69336 29.5586C9.95312 29.5586 10.1309 29.3262 10.1172 29.0664L10.0215 27.7676L11.1152 28.5059C11.3066 28.6426 11.6074 28.5879 11.7441 28.3828C11.8809 28.1777 11.7988 27.8496 11.5391 27.7402L10.3633 27.166L11.5527 26.5781C11.7988 26.4551 11.8672 26.1543 11.7578 25.9492C11.6348 25.7305 11.3066 25.6895 11.1152 25.8262L10.0215 26.5781L10.1309 25.2656C10.1582 24.9922 9.95312 24.7734 9.69336 24.7734C9.41992 24.7734 9.24219 24.9922 9.25586 25.2656L9.35156 26.5781L8.24414 25.8262C8.05273 25.6895 7.75195 25.7168 7.62891 25.9492C7.50586 26.1543 7.56055 26.4414 7.82031 26.5781L8.99609 27.166L7.82031 27.7402C7.54688 27.8633 7.49219 28.1641 7.60156 28.3828C7.72461 28.6016 8.05273 28.6426 8.24414 28.5059L9.35156 27.7676L9.26953 29.0664C9.25586 29.3262 9.41992 29.5586 9.69336 29.5586ZM17.2676 29.5586C17.5273 29.5586 17.6914 29.3262 17.6777 29.0664L17.5957 27.7676L18.6895 28.5059C18.8809 28.6426 19.1816 28.5879 19.3184 28.3828C19.4551 28.1777 19.373 27.8496 19.1133 27.7402L17.9375 27.166L19.127 26.5781C19.373 26.4551 19.4414 26.1543 19.332 25.9492C19.209 25.7305 18.8809 25.6895 18.6895 25.8262L17.5957 26.5781L17.6914 25.2656C17.7188 24.9922 17.5273 24.7734 17.2676 24.7734C16.9941 24.7734 16.8164 24.9922 16.8301 25.2656L16.9258 26.5781L15.8184 25.8262C15.627 25.6895 15.3262 25.7168 15.2031 25.9492C15.0801 26.1543 15.1348 26.4414 15.3945 26.5781L16.5703 27.166L15.3945 27.7402C15.1211 27.8633 15.0664 28.1641 15.1758 28.3828C15.2988 28.6016 15.627 28.6426 15.8184 28.5059L16.9258 27.7676L16.8438 29.0664C16.8301 29.3262 16.9941 29.5586 17.2676 29.5586ZM24.8418 29.5586C25.1016 29.5586 25.2656 29.3262 25.252 29.0664L25.1699 27.7676L26.2637 28.5059C26.4551 28.6426 26.7559 28.5879 26.8926 28.3828C27.0293 28.1777 26.9473 27.8496 26.6875 27.7402L25.5117 27.166L26.7012 26.5781C26.9473 26.4551 27.0156 26.1543 26.9062 25.9492C26.7832 25.7305 26.4551 25.6895 26.2637 25.8262L25.1699 26.5781L25.2656 25.2656C25.293 24.9922 25.1016 24.7734 24.8418 24.7734C24.5684 24.7734 24.3906 24.9922 24.4043 25.2656L24.5 26.5781L23.3926 25.8262C23.2012 25.6895 22.9004 25.7168 22.7773 25.9492C22.6543 26.1543 22.709 26.4414 22.9688 26.5781L24.1445 27.166L22.9688 27.7402C22.6953 27.8633 22.6406 28.1641 22.75 28.3828C22.873 28.6016 23.2012 28.6426 23.3926 28.5059L24.5 27.7676L24.418 29.0664C24.4043 29.3262 24.5684 29.5586 24.8418 29.5586ZM6.72656 34.6855C6.98633 34.6855 7.16406 34.4531 7.15039 34.1934L7.05469 32.8945L8.14844 33.6328C8.33984 33.7695 8.64062 33.7148 8.77734 33.5098C8.91406 33.3047 8.83203 32.9902 8.57227 32.8672L7.39648 32.293L8.58594 31.7051C8.83203 31.582 8.90039 31.2812 8.79102 31.0762C8.66797 30.8574 8.33984 30.8164 8.14844 30.9531L7.05469 31.7051L7.16406 30.3926C7.19141 30.1191 6.98633 29.9004 6.72656 29.9004C6.45312 29.9004 6.27539 30.1191 6.28906 30.3926L6.38477 31.7051L5.27734 30.9531C5.08594 30.8164 4.78516 30.8438 4.66211 31.0762C4.53906 31.2812 4.59375 31.5684 4.85352 31.7051L6.0293 32.293L4.85352 32.8672C4.58008 32.9902 4.52539 33.291 4.63477 33.5098C4.75781 33.7285 5.08594 33.7695 5.27734 33.6328L6.38477 32.8945L6.30273 34.1934C6.28906 34.4531 6.45312 34.6855 6.72656 34.6855ZM14.3008 34.6855C14.5605 34.6855 14.7246 34.4531 14.7109 34.1934L14.6289 32.8945L15.7227 33.6328C15.9141 33.7695 16.2148 33.7148 16.3516 33.5098C16.4883 33.3047 16.4062 32.9902 16.1465 32.8672L14.9707 32.293L16.1602 31.7051C16.4062 31.582 16.4746 31.2812 16.3652 31.0762C16.2422 30.8574 15.9141 30.8164 15.7227 30.9531L14.6289 31.7051L14.7246 30.3926C14.752 30.1191 14.5605 29.9004 14.3008 29.9004C14.0273 29.9004 13.8496 30.1191 13.8633 30.3926L13.959 31.7051L12.8516 30.9531C12.6602 30.8164 12.3594 30.8438 12.2363 31.0762C12.1133 31.2812 12.168 31.5684 12.4277 31.7051L13.6035 32.293L12.4277 32.8672C12.1543 32.9902 12.0996 33.291 12.209 33.5098C12.332 33.7285 12.6602 33.7695 12.8516 33.6328L13.959 32.8945L13.877 34.1934C13.8633 34.4531 14.0273 34.6855 14.3008 34.6855ZM21.875 34.6855C22.1348 34.6855 22.2988 34.4531 22.2852 34.1934L22.2031 32.8945L23.2969 33.6328C23.4883 33.7695 23.7891 33.7148 23.9258 33.5098C24.0625 33.3047 23.9805 32.9902 23.7207 32.8672L22.5449 32.293L23.7344 31.7051C23.9805 31.582 24.0488 31.2812 23.9395 31.0762C23.8164 30.8574 23.4883 30.8164 23.2969 30.9531L22.2031 31.7051L22.2988 30.3926C22.3262 30.1191 22.1348 29.9004 21.875 29.9004C21.6016 29.9004 21.4238 30.1191 21.4375 30.3926L21.5332 31.7051L20.4258 30.9531C20.2344 30.8164 19.9336 30.8438 19.8105 31.0762C19.6875 31.2812 19.7422 31.5684 20.002 31.7051L21.1777 32.293L20.002 32.8672C19.7285 32.9902 19.6738 33.291 19.7832 33.5098C19.9062 33.7285 20.2344 33.7695 20.4258 33.6328L21.5332 32.8945L21.4512 34.1934C21.4375 34.4531 21.6016 34.6855 21.875 34.6855ZM3.36328 22.7227L31.1309 22.7227C31.6094 22.7227 31.9922 22.3535 31.9922 21.8613C31.9922 21.3691 31.6094 21 31.1309 21L3.36328 21C2.87109 21 2.50195 21.3691 2.50195 21.8613C2.50195 22.3535 2.87109 22.7227 3.36328 22.7227Z" style="fill:var(--color-1,white)"></path>
 </g>
</svg>