<svg version="1.1" xmlns="http://www.w3.org/2000/svg" xmlns:xlink="http://www.w3.org/1999/xlink" viewBox="0 0 28.2461 27.9043">
 <g>
  
  <path d="M13.9453 27.8906C21.6426 27.8906 27.8906 21.6426 27.8906 13.9453C27.8906 6.24805 21.6426 0 13.9453 0C6.24805 0 0 6.24805 0 13.9453C0 21.6426 6.24805 27.8906 13.9453 27.8906ZM13.9453 25.5664C7.51953 25.5664 2.32422 20.3711 2.32422 13.9453C2.32422 7.51953 7.51953 2.32422 13.9453 2.32422C20.3711 2.32422 25.5664 7.51953 25.5664 13.9453C25.5664 20.3711 20.3711 25.5664 13.9453 25.5664Z" style="fill:var(--color-0,hsl(0 0 0/0.85))"></path>
  <path d="M18.0059 13.125C18.0059 10.8965 16.1602 9.05078 13.9316 9.05078C11.7168 9.05078 9.85742 10.8965 9.85742 13.125C9.85742 13.5625 9.95312 13.9863 10.0898 14.3965L17.7734 14.3965C17.9102 13.9863 18.0059 13.5625 18.0059 13.125ZM6.28906 13.7129L8.05273 13.7129C8.53125 13.7129 8.88672 13.3848 8.88672 12.9473C8.88672 12.5234 8.51758 12.1953 8.05273 12.1953L6.28906 12.1953C5.82422 12.1953 5.46875 12.5371 5.46875 12.9473C5.46875 13.3711 5.82422 13.7129 6.28906 13.7129ZM9.25586 9.51562C9.58398 9.84375 10.0625 9.87109 10.3633 9.57031C10.6777 9.25586 10.6504 8.77734 10.3223 8.44922L9.05078 7.17773C8.70898 6.82227 8.24414 6.87695 7.94336 7.15039C7.65625 7.46484 7.65625 7.91602 7.99805 8.25781ZM14.6973 6.80859L14.6973 5.04492C14.6973 4.56641 14.3418 4.22461 13.9316 4.22461C13.5215 4.22461 13.1797 4.56641 13.1797 5.04492L13.1797 6.80859C13.1797 7.27344 13.5078 7.65625 13.9316 7.65625C14.3555 7.65625 14.6973 7.27344 14.6973 6.80859ZM17.5137 9.57031C17.8145 9.85742 18.293 9.85742 18.6211 9.51562L19.8652 8.25781C20.207 7.91602 20.2207 7.46484 19.9336 7.15039C19.6328 6.84961 19.1406 6.83594 18.8125 7.17773L17.541 8.44922C17.1992 8.79102 17.1992 9.25586 17.5137 9.57031ZM19.8105 13.7129L21.5879 13.7129C22.0527 13.7129 22.3945 13.3711 22.3945 12.9473C22.3945 12.5371 22.0527 12.1953 21.5879 12.1953L19.8105 12.1953C19.3457 12.1953 18.9766 12.5234 18.9766 12.9473C18.9766 13.3848 19.3457 13.7129 19.8105 13.7129ZM6.27539 16.8711L21.6016 16.8711C22.0117 16.8711 22.3945 16.543 22.3945 16.1191C22.3945 15.6953 22.0254 15.3809 21.6016 15.3809L6.27539 15.3809C5.85156 15.3809 5.46875 15.6953 5.46875 16.1191C5.46875 16.543 5.86523 16.8711 6.27539 16.8711ZM9.35156 20.7539L10.3359 19.0859C10.5 18.7852 10.4043 18.3887 10.0898 18.2246C9.80273 18.0469 9.43359 18.1562 9.25586 18.457L8.28516 20.1387C8.10742 20.4258 8.20312 20.8223 8.51758 20.9863C8.80469 21.1641 9.1875 21.0547 9.35156 20.7539ZM11.293 22.8594L13.4805 19.0859C13.6582 18.7715 13.5625 18.3887 13.248 18.2246C12.9609 18.0469 12.5781 18.1426 12.4141 18.457L10.2129 22.2441C10.0352 22.5449 10.1309 22.9277 10.4453 23.0918C10.7461 23.2695 11.1152 23.1602 11.293 22.8594ZM15.6543 20.7539L16.625 19.0859C16.8027 18.7852 16.6934 18.3887 16.3926 18.2246C16.0918 18.0469 15.7227 18.1562 15.5449 18.457L14.5742 20.1387C14.3965 20.4258 14.5059 20.8223 14.8066 20.9863C15.1074 21.1641 15.4766 21.0547 15.6543 20.7539ZM17.582 22.8594L19.7832 19.0859C19.9473 18.7715 19.8516 18.3887 19.5371 18.2246C19.25 18.0469 18.8809 18.1426 18.7031 18.457L16.502 22.2441C16.3379 22.5449 16.4336 22.9277 16.748 23.0918C17.0352 23.2695 17.4043 23.1602 17.582 22.8594Z" style="fill:var(--color-1,hsl(0 0 0/0.85))"></path>
 </g>
</svg>