<svg version="1.1" xmlns="http://www.w3.org/2000/svg" xmlns:xlink="http://www.w3.org/1999/xlink" viewBox="0 0 34.8906 32.9082">
 <g>
  
  <path d="M24.6777 15.75C24.6777 16.7224 24.4835 17.6562 24.1281 18.5117L10.4071 18.5117C10.0516 17.6562 9.85742 16.7224 9.85742 15.75C9.85742 11.7168 13.2207 8.33984 17.2676 8.33984C21.3145 8.33984 24.6777 11.7168 24.6777 15.75ZM7.30078 15.4219C7.31445 16.0371 6.78125 16.5293 6.07031 16.5293L2.70703 16.5293C2.00977 16.5293 1.49023 16.0371 1.49023 15.4219C1.49023 14.8066 2.00977 14.3145 2.70703 14.3145L6.07031 14.3145C6.78125 14.3145 7.28711 14.8203 7.30078 15.4219ZM33.0449 15.4219C33.0449 16.0371 32.5391 16.543 31.8281 16.5293L28.4648 16.5293C27.7676 16.5293 27.248 16.0371 27.2344 15.4219C27.2207 14.8066 27.7676 14.3145 28.4648 14.3145L31.8281 14.3145C32.5391 14.3145 33.0449 14.8203 33.0449 15.4219ZM7.76562 4.68945L10.1445 7.06836C10.6367 7.57422 10.6367 8.28516 10.2266 8.72266C9.80273 9.16016 9.06445 9.14648 8.55859 8.64063L6.17969 6.26172C5.67383 5.75586 5.67383 5.04492 6.125 4.62109C6.54883 4.19727 7.25977 4.18359 7.76562 4.68945ZM28.4238 4.62109C28.8477 5.05859 28.8613 5.75586 28.3555 6.26172L25.9766 8.64063C25.4707 9.14648 24.7598 9.14648 24.3223 8.72266C23.8848 8.29883 23.8984 7.57422 24.4043 7.06836L26.7832 4.68945C27.2891 4.18359 28 4.18359 28.4238 4.62109ZM18.375 1.2168L18.375 4.58008C18.375 5.27734 17.8828 5.79688 17.2676 5.81055C16.6523 5.82422 16.1602 5.27734 16.1602 4.58008L16.1602 1.2168C16.1602 0.505859 16.6523 3.55271e-15 17.2676 3.55271e-15C17.8828 3.55271e-15 18.375 0.505859 18.375 1.2168Z" style="fill:var(--color-0,#ffcc00)"></path>
  <path d="M8.94141 28.2324L10.7188 25.1563C10.9785 24.7324 10.8418 24.2539 10.4316 24.0078C10.0215 23.7754 9.55664 23.9121 9.29688 24.3223L7.50586 27.4395C7.27344 27.8359 7.39648 28.3145 7.82031 28.5469C8.2168 28.7793 8.70898 28.6426 8.94141 28.2324ZM12.127 32.1289L16.1602 25.1289C16.3926 24.7324 16.2832 24.2676 15.8867 24.0215C15.4902 23.7891 14.9844 23.9121 14.752 24.3223L10.7461 31.2949C10.5137 31.7188 10.623 32.1973 11.0332 32.4297C11.4297 32.6621 11.8945 32.5391 12.127 32.1289ZM19.8242 28.2188L21.6016 25.1426C21.8477 24.7188 21.7109 24.2402 21.3145 23.9941C20.8906 23.7617 20.4258 23.8984 20.1797 24.3086L18.3887 27.4258C18.1562 27.8223 18.2656 28.3008 18.6895 28.5332C19.0996 28.7656 19.5918 28.6289 19.8242 28.2188ZM22.9961 32.1152L27.043 25.1152C27.2754 24.7188 27.1523 24.2539 26.7559 24.0078C26.373 23.7754 25.8809 23.8984 25.6348 24.3086L21.6152 31.2813C21.3828 31.7051 21.5059 32.1836 21.9023 32.416C22.2988 32.6484 22.7637 32.5254 22.9961 32.1152Z" style="fill:var(--color-1,#55bef0)"></path>
  <path d="M3.36328 21.834L31.1309 21.834C31.6094 21.834 31.9922 21.4648 31.9922 20.9727C31.9922 20.4805 31.6094 20.1113 31.1309 20.1113L3.36328 20.1113C2.87109 20.1113 2.50195 20.4805 2.50195 20.9727C2.50195 21.4648 2.87109 21.834 3.36328 21.834Z" style="fill:var(--color-2,white)"></path>
 </g>
</svg>