<svg version="1.1" xmlns="http://www.w3.org/2000/svg" xmlns:xlink="http://www.w3.org/1999/xlink" viewBox="0 0 28.2461 27.9043">
 <g>
  
  <path d="M13.9453 27.9043C21.6426 27.9043 27.8906 21.6562 27.8906 13.959C27.8906 6.27539 21.6426 0.0136719 13.9453 0.0136719C6.26172 0.0136719 0 6.27539 0 13.959C0 21.6562 6.26172 27.9043 13.9453 27.9043Z" style="fill:var(--color-0,hsl(0 0 0/0.85))"></path>
  <path d="M18.1289 13.8359C18.1289 14.2734 18.0332 14.7246 17.8965 15.1348L9.9668 15.1348C9.83008 14.7246 9.73438 14.2734 9.73438 13.8359C9.73438 11.5391 11.6484 9.625 13.9316 9.625C16.2285 9.625 18.1289 11.5391 18.1289 13.8359ZM6.05664 14.4512C5.57812 14.4512 5.20898 14.082 5.20898 13.6582C5.20898 13.2344 5.57812 12.8789 6.05664 12.8789L7.86133 12.8789C8.35352 12.8789 8.75 13.2207 8.75 13.6582C8.75 14.1094 8.36719 14.4512 7.86133 14.4512ZM9.10547 10.1172L7.82031 8.83203C7.46484 8.46289 7.46484 7.99805 7.75195 7.66992C8.06641 7.38281 8.54492 7.3418 8.90039 7.71094L10.2129 9.00977C10.5547 9.33789 10.582 9.85742 10.2539 10.1582C9.93945 10.4863 9.44727 10.4453 9.10547 10.1172ZM14.7246 7.32812C14.7246 7.79297 14.3691 8.18945 13.9316 8.18945C13.4941 8.18945 13.1523 7.80664 13.1523 7.32812L13.1523 5.52344C13.1523 5.01758 13.5078 4.66211 13.9316 4.66211C14.3555 4.66211 14.7246 5.01758 14.7246 5.52344ZM17.623 10.1582C17.2949 9.85742 17.2949 9.35156 17.6504 9.00977L18.9629 7.71094C19.291 7.35547 19.8105 7.35547 20.125 7.66992C20.4121 7.99805 20.3984 8.46289 20.043 8.83203L18.7715 10.1172C18.4297 10.459 17.9375 10.4727 17.623 10.1582ZM20.002 14.4512C19.5098 14.4512 19.127 14.0957 19.127 13.6582C19.127 13.2207 19.5098 12.8789 20.002 12.8789L21.8203 12.8789C22.2988 12.8789 22.6543 13.2344 22.6543 13.6582C22.6543 14.0957 22.2988 14.4512 21.8203 14.4512ZM6.04297 17.7051C5.61914 17.7051 5.20898 17.3633 5.20898 16.9258C5.20898 16.4883 5.60547 16.1602 6.04297 16.1602L21.834 16.1602C22.2715 16.1602 22.6543 16.4746 22.6543 16.9258C22.6543 17.3633 22.2578 17.7051 21.834 17.7051ZM9.2832 22.4766C9.02344 22.4766 8.88672 22.2578 8.90039 22.0391L8.92773 21.1914L8.2168 21.6836C8.03906 21.793 7.75195 21.752 7.65625 21.5469C7.56055 21.3555 7.60156 21.0957 7.84766 20.9727L8.58594 20.6172L7.84766 20.2344C7.60156 20.0977 7.56055 19.8379 7.66992 19.6602C7.7793 19.4551 8.03906 19.4277 8.2168 19.5508L8.92773 20.043L8.88672 19.1816C8.87305 18.9492 9.02344 18.7441 9.2832 18.7441C9.50195 18.7441 9.67969 18.9492 9.65234 19.1953L9.59766 20.043L10.3086 19.5508C10.4727 19.4277 10.7734 19.4688 10.8691 19.6602C10.9648 19.8652 10.9238 20.0977 10.6914 20.2207L9.92578 20.6172L10.6914 20.9727C10.9375 21.082 10.9922 21.3828 10.8555 21.5742C10.7598 21.7383 10.4727 21.793 10.3086 21.6836L9.59766 21.1914L9.65234 22.0391C9.67969 22.2578 9.50195 22.4766 9.2832 22.4766ZM13.9316 22.4766C13.6719 22.4766 13.5352 22.2578 13.5488 22.0391L13.5762 21.1914L12.8789 21.6836C12.6875 21.793 12.4004 21.752 12.3047 21.5469C12.209 21.3555 12.25 21.0957 12.5098 20.9727L13.2344 20.6172L12.5098 20.2344C12.25 20.0977 12.209 19.8379 12.3184 19.6602C12.4277 19.4551 12.6875 19.4277 12.8789 19.5508L13.5762 20.043L13.5352 19.1816C13.5215 18.9492 13.6719 18.7441 13.9316 18.7441C14.1641 18.7441 14.3281 18.9492 14.3145 19.1953L14.2598 20.043L14.957 19.5508C15.1348 19.4277 15.4219 19.4688 15.5312 19.6602C15.627 19.8652 15.5859 20.0977 15.3398 20.2207L14.5879 20.6172L15.3398 20.9727C15.5996 21.082 15.6543 21.3828 15.5176 21.5742C15.4082 21.7383 15.1348 21.793 14.957 21.6836L14.2598 21.1914L14.3145 22.0391C14.3281 22.2578 14.1641 22.4766 13.9316 22.4766ZM18.5801 22.4766C18.334 22.4766 18.1836 22.2578 18.1973 22.0391L18.2383 21.1914L17.5273 21.6836C17.3496 21.793 17.0488 21.752 16.9668 21.5469C16.8711 21.3555 16.8984 21.0957 17.1445 20.9727L17.8965 20.6172L17.1445 20.2344C16.9121 20.0977 16.8711 19.8379 16.9805 19.6602C17.0762 19.4551 17.3496 19.4277 17.5273 19.5508L18.2383 20.043L18.1836 19.1816C18.1699 18.9492 18.334 18.7441 18.5801 18.7441C18.8125 18.7441 18.9629 18.9492 18.9492 19.1953L18.9082 20.043L19.6191 19.5508C19.7832 19.4277 20.084 19.4688 20.1797 19.6602C20.2754 19.8652 20.2207 20.0977 20.002 20.2207L19.2363 20.6172L20.002 20.9727C20.2344 21.082 20.3027 21.3828 20.166 21.5742C20.0703 21.7383 19.7832 21.793 19.6191 21.6836L18.9082 21.1914L18.9492 22.0391C18.9629 22.2578 18.8125 22.4766 18.5801 22.4766Z" style="fill:var(--color-1,white)"></path>
 </g>
</svg>