<svg version="1.1" xmlns="http://www.w3.org/2000/svg" xmlns:xlink="http://www.w3.org/1999/xlink" viewBox="0 0 29.9277 29.6816">
 <g>
  
  <path d="M14.793 5.31836C15.4355 5.31836 15.9688 4.78516 15.9688 4.12891L15.9688 1.18945C15.9688 0.533203 15.4355 0 14.793 0C14.1367 0 13.6035 0.533203 13.6035 1.18945L13.6035 4.12891C13.6035 4.78516 14.1367 5.31836 14.793 5.31836ZM21.4922 8.12109C21.957 8.57227 22.709 8.58594 23.1738 8.12109L25.2656 6.0293C25.7168 5.57812 25.7168 4.8125 25.2656 4.34766C24.8145 3.89648 24.0488 3.89648 23.5977 4.34766L21.4922 6.45312C21.041 6.9043 21.041 7.66992 21.4922 8.12109ZM24.2676 14.834C24.2676 15.4766 24.8145 16.0098 25.457 16.0098L28.3965 16.0098C29.0391 16.0098 29.5723 15.4766 29.5723 14.834C29.5723 14.1914 29.0391 13.6445 28.3965 13.6445L25.457 13.6445C24.8145 13.6445 24.2676 14.1914 24.2676 14.834ZM21.4922 21.5469C21.041 22.0117 21.041 22.7637 21.4922 23.2148L23.5977 25.334C24.0488 25.7852 24.8145 25.7578 25.2656 25.3203C25.7168 24.8555 25.7168 24.1035 25.2656 23.6523L23.1602 21.5469C22.709 21.0957 21.957 21.1094 21.4922 21.5469ZM14.793 24.3496C14.1367 24.3496 13.6035 24.8828 13.6035 25.5254L13.6035 28.4785C13.6035 29.1211 14.1367 29.6543 14.793 29.6543C15.4355 29.6543 15.9688 29.1211 15.9688 28.4785L15.9688 25.5254C15.9688 24.8828 15.4355 24.3496 14.793 24.3496ZM8.08008 21.5469C7.61523 21.1094 6.84961 21.0957 6.39844 21.5469L4.30664 23.6387C3.85547 24.0898 3.85547 24.8418 4.29297 25.3066C4.74414 25.7441 5.52344 25.7715 5.97461 25.3203L8.06641 23.2148C8.51758 22.7637 8.51758 22.0117 8.08008 21.5469ZM5.30469 14.834C5.30469 14.1914 4.75781 13.6445 4.11523 13.6445L1.17578 13.6445C0.533203 13.6445 0 14.1914 0 14.834C0 15.4766 0.533203 16.0098 1.17578 16.0098L4.11523 16.0098C4.75781 16.0098 5.30469 15.4766 5.30469 14.834ZM8.06641 8.12109C8.51758 7.68359 8.51758 6.89062 8.08008 6.45312L5.98828 4.34766C5.55078 3.91016 4.77148 3.89648 4.32031 4.34766C3.86914 4.8125 3.86914 5.57812 4.30664 6.01562L6.39844 8.12109C6.84961 8.57227 7.60156 8.57227 8.06641 8.12109Z" style="fill:var(--color-0,#ffcc00)"></path>
  <path d="M14.7793 21.793C18.6211 21.793 21.7383 18.6758 21.7383 14.834C21.7383 10.9922 18.6211 7.86133 14.7793 7.86133C10.9375 7.86133 7.82031 10.9922 7.82031 14.834C7.82031 18.6758 10.9375 21.793 14.7793 21.793Z" style="fill:var(--color-1,#ffcc00)"></path>
 </g>
</svg>