<svg version="1.1" xmlns="http://www.w3.org/2000/svg" xmlns:xlink="http://www.w3.org/1999/xlink" viewBox="0 0 36.3125 32.9082">
 <g>
  
  <path d="M25.3887 15.75C25.3887 16.7224 25.1945 17.6562 24.839 18.5117L11.118 18.5117C10.7626 17.6562 10.5684 16.7224 10.5684 15.75C10.5684 11.7168 13.9316 8.33984 17.9785 8.33984C22.0254 8.33984 25.3887 11.7168 25.3887 15.75ZM8.01172 15.4219C8.02539 16.0371 7.49219 16.5293 6.78125 16.5293L3.41797 16.5293C2.7207 16.5293 2.20117 16.0371 2.20117 15.4219C2.20117 14.8066 2.7207 14.3145 3.41797 14.3145L6.78125 14.3145C7.49219 14.3145 7.99805 14.8203 8.01172 15.4219ZM33.7559 15.4219C33.7559 16.0371 33.25 16.543 32.5391 16.5293L29.1758 16.5293C28.4648 16.5293 27.959 16.0371 27.9453 15.4219C27.9316 14.8066 28.4648 14.3145 29.1758 14.3145L32.5391 14.3145C33.25 14.3145 33.7559 14.8203 33.7559 15.4219ZM8.47656 4.68945L10.8555 7.06836C11.3477 7.57422 11.3477 8.28516 10.9238 8.72266C10.5137 9.16016 9.77539 9.14648 9.26953 8.64062L6.89062 6.26172C6.38477 5.75586 6.38477 5.04492 6.83594 4.62109C7.25977 4.19727 7.95703 4.18359 8.47656 4.68945ZM29.1348 4.62109C29.5586 5.05859 29.5723 5.75586 29.0664 6.26172L26.6875 8.64062C26.1816 9.14648 25.4707 9.14648 25.0332 8.72266C24.5957 8.29883 24.6094 7.57422 25.1152 7.06836L27.4941 4.68945C28 4.18359 28.7109 4.18359 29.1348 4.62109ZM19.0859 1.2168L19.0859 4.58008C19.0859 5.27734 18.5938 5.79688 17.9785 5.81055C17.3633 5.82422 16.8711 5.27734 16.8711 4.58008L16.8711 1.2168C16.8711 0.505859 17.3633 0 17.9785 0C18.5938 0 19.0859 0.505859 19.0859 1.2168Z" style="fill:var(--color-0,#ffcc00)"></path>
  <path d="M3.0625 27.0977L30.8301 27.0977C31.3223 27.0977 31.6914 26.7148 31.6914 26.2227C31.6914 25.7305 31.3223 25.3613 30.8301 25.3613L3.0625 25.3613C2.58398 25.3613 2.20117 25.7305 2.20117 26.2227C2.20117 26.7148 2.58398 27.0977 3.0625 27.0977ZM5.12695 32.3477L32.8945 32.3477C33.373 32.3477 33.7559 31.9785 33.7559 31.4863C33.7559 30.9805 33.373 30.6113 32.8945 30.6113L5.12695 30.6113C4.64844 30.6113 4.26562 30.9805 4.26562 31.4863C4.26562 31.9785 4.64844 32.3477 5.12695 32.3477ZM5.12695 21.834L32.8945 21.834C33.373 21.834 33.7559 21.4648 33.7559 20.9727C33.7559 20.4805 33.373 20.1113 32.8945 20.1113L5.12695 20.1113C4.64844 20.1113 4.26562 20.4805 4.26562 20.9727C4.26562 21.4648 4.64844 21.834 5.12695 21.834Z" style="fill:var(--color-1,white)"></path>
 </g>
</svg>