<svg version="1.1" xmlns="http://www.w3.org/2000/svg" xmlns:xlink="http://www.w3.org/1999/xlink" viewBox="0 0 28.2461 27.9043">
 <g>
  
  <path d="M13.9453 27.9043C21.6426 27.9043 27.8906 21.6562 27.8906 13.959C27.8906 6.27539 21.6426 0.0136719 13.9453 0.0136719C6.26172 0.0136719 0 6.27539 0 13.959C0 21.6562 6.26172 27.9043 13.9453 27.9043Z" style="fill:var(--color-0,hsl(0 0 0/0.85))"></path>
  <path d="M6.57617 16.9258C6.125 16.9258 5.7832 16.5977 5.7832 16.2012C5.7832 15.8047 6.125 15.4629 6.57617 15.4629L8.28516 15.4629C8.73633 15.4629 9.07812 15.791 9.07812 16.2012C9.07812 16.6113 8.73633 16.9258 8.28516 16.9258ZM9.43359 12.9062L8.2168 11.6895C7.88867 11.3477 7.88867 10.9102 8.16211 10.6094C8.44922 10.3359 8.91406 10.3086 9.24219 10.6367L10.459 11.8535C10.7598 12.168 10.8008 12.6465 10.5137 12.9336C10.2266 13.2344 9.74805 13.207 9.43359 12.9062ZM13.9316 11.0879C13.5215 11.0879 13.1934 10.7324 13.1934 10.3086L13.1934 7.73828L13.2344 7.25977L13.166 7.32812L12.209 8.27148C12.0723 8.39453 11.8809 8.47656 11.7031 8.47656C11.334 8.47656 11.0742 8.2168 11.0742 7.84766C11.0742 7.66992 11.1289 7.50586 11.293 7.3418L13.4395 5.33203C13.6035 5.18164 13.7676 5.11328 13.9316 5.11328C14.0957 5.11328 14.2598 5.18164 14.4238 5.33203L16.5703 7.3418C16.748 7.50586 16.7891 7.66992 16.7891 7.84766C16.7891 8.2168 16.5293 8.47656 16.1602 8.47656C15.9824 8.47656 15.7773 8.4082 15.668 8.27148L14.8066 7.38281L14.6289 7.21875L14.6699 7.73828L14.6699 10.3086C14.6699 10.7324 14.3418 11.0879 13.9316 11.0879ZM17.377 12.9336C17.0762 12.6465 17.0898 12.1816 17.418 11.8535L18.6211 10.6367C18.9492 10.3223 19.4141 10.3086 19.7012 10.6094C19.9746 10.9102 19.9609 11.3477 19.6465 11.6895L18.4434 12.9062C18.1152 13.2207 17.6641 13.2207 17.377 12.9336ZM19.5918 16.9258C19.1406 16.9258 18.7852 16.6113 18.7852 16.2012C18.7852 15.791 19.1406 15.4629 19.5918 15.4629L21.2871 15.4629C21.752 15.4629 22.0801 15.791 22.0801 16.2012C22.0801 16.5977 21.752 16.9258 21.2871 16.9258ZM17.8555 16.3516C17.8555 16.7754 17.7734 17.1992 17.623 17.5957L10.2402 17.5957C10.0898 17.1992 10.0078 16.7754 10.0078 16.3516C10.0078 14.2188 11.7988 12.4414 13.9316 12.4414C16.0781 12.4414 17.8555 14.2188 17.8555 16.3516ZM6.5625 19.9062C6.16602 19.9062 5.7832 19.5918 5.7832 19.1816C5.7832 18.7715 6.15234 18.457 6.5625 18.457L21.3008 18.457C21.7246 18.457 22.0801 18.7715 22.0801 19.1816C22.0801 19.5918 21.7109 19.9062 21.3008 19.9062Z" style="fill:var(--color-1,white)"></path>
 </g>
</svg>