<svg version="1.1" xmlns="http://www.w3.org/2000/svg" xmlns:xlink="http://www.w3.org/1999/xlink" viewBox="0 0 39.1289 32.9902">
 <g>
  
  <path d="M26.7969 24.1582C26.7969 25.1459 26.5965 26.0937 26.232 26.9609L12.5414 26.9609C12.1769 26.0937 11.9766 25.1459 11.9766 24.1582C11.9766 20.125 15.3398 16.748 19.3867 16.748C23.4336 16.748 26.7969 20.125 26.7969 24.1582ZM9.41992 23.8301C9.43359 24.4453 8.90039 24.9375 8.18945 24.9375L4.82617 24.9375C4.12891 24.9375 3.60938 24.4453 3.60938 23.8301C3.60938 23.2148 4.12891 22.7227 4.82617 22.7227L8.18945 22.7227C8.90039 22.7227 9.40625 23.2148 9.41992 23.8301ZM35.1641 23.8301C35.1641 24.4453 34.6582 24.9375 33.9473 24.9375L30.584 24.9375C29.873 24.9375 29.3672 24.4453 29.3535 23.8301C29.3398 23.2148 29.873 22.7227 30.584 22.7227L33.9473 22.7227C34.6582 22.7227 35.1641 23.2148 35.1641 23.8301ZM9.88477 13.0977L12.2637 15.4766C12.7559 15.9688 12.7559 16.6934 12.332 17.1309C11.9082 17.5684 11.1836 17.5547 10.6777 17.0488L8.29883 14.6699C7.79297 14.1641 7.79297 13.4531 8.23047 13.0293C8.66797 12.6055 9.36523 12.5918 9.88477 13.0977ZM30.543 13.0293C30.9668 13.4668 30.9805 14.1641 30.4746 14.6699L28.0957 17.0488C27.5898 17.5547 26.8789 17.5547 26.4414 17.1309C26.0039 16.707 26.0176 15.9688 26.5098 15.4766L28.9023 13.0977C29.4082 12.5918 30.1191 12.5918 30.543 13.0293Z" style="fill:var(--color-0,#ffcc00)"></path>
  <path d="M3.0625 30.748L35.7246 30.748C36.3672 30.748 36.9141 30.2559 36.9141 29.6543C36.9141 29.0527 36.3672 28.5605 35.7246 28.5605L3.0625 28.5605C2.40625 28.5605 1.87305 29.0527 1.87305 29.6543C1.87305 30.2559 2.40625 30.748 3.0625 30.748Z" style="fill:var(--color-1,white)"></path>
  <path d="M19.3867 2.21484C18.7852 2.21484 18.2793 2.76172 18.2793 3.43164L18.2793 8.54492L18.4297 10.6094L17.5684 9.58398L15.709 7.72461C15.5176 7.51953 15.2578 7.41016 14.9844 7.41016C14.4375 7.41016 14.0547 7.7793 14.0547 8.32617C14.0547 8.61328 14.1504 8.83203 14.3828 9.03711L18.6484 13.0156C18.9355 13.2754 19.1406 13.3711 19.3867 13.3711C19.6328 13.3711 19.8379 13.2754 20.125 13.0156L24.3906 9.03711C24.623 8.83203 24.7188 8.61328 24.7188 8.32617C24.7188 7.7793 24.3359 7.41016 23.7891 7.41016C23.5156 7.41016 23.2559 7.51953 23.0645 7.72461L21.3418 9.44727L20.3438 10.6094L20.5078 8.54492L20.5078 3.43164C20.5078 2.76172 19.9883 2.21484 19.3867 2.21484Z" style="fill:var(--color-2,white)"></path>
 </g>
</svg>