<svg version="1.1" xmlns="http://www.w3.org/2000/svg" xmlns:xlink="http://www.w3.org/1999/xlink" viewBox="0 0 28.2461 27.9043">
 <g>
  
  <path d="M13.9453 27.9043C21.6426 27.9043 27.8906 21.6562 27.8906 13.959C27.8906 6.27539 21.6426 0.0136719 13.9453 0.0136719C6.26172 0.0136719 0 6.27539 0 13.959C0 21.6562 6.26172 27.9043 13.9453 27.9043Z" style="fill:var(--color-0,hsl(0 0 0/0.85))"></path>
  <path d="M6.58984 16.9258C6.13867 16.9258 5.79688 16.5977 5.79688 16.2012C5.79688 15.8047 6.13867 15.4629 6.58984 15.4629L8.29883 15.4629C8.75 15.4629 9.0918 15.791 9.0918 16.2012C9.0918 16.6113 8.75 16.9258 8.29883 16.9258ZM9.44727 12.9062L8.23047 11.6895C7.90234 11.3477 7.90234 10.9102 8.17578 10.6094C8.46289 10.3359 8.92773 10.3086 9.25586 10.6367L10.4727 11.8535C10.7734 12.168 10.8145 12.6465 10.5273 12.9336C10.2402 13.2344 9.76172 13.207 9.44727 12.9062ZM13.9453 5.11328C14.3555 5.11328 14.6836 5.46875 14.6836 5.89258L14.6836 8.47656L14.6426 8.99609L14.8203 8.81836L15.6816 7.92969C15.791 7.80664 15.9961 7.72461 16.1738 7.72461C16.543 7.72461 16.8027 7.99805 16.8027 8.35352C16.8027 8.54492 16.7617 8.69531 16.584 8.87305L14.4375 10.8691C14.2734 11.0195 14.1094 11.0879 13.9453 11.0879C13.7812 11.0879 13.6172 11.0195 13.4531 10.8691L11.3066 8.87305C11.1426 8.69531 11.0879 8.54492 11.0879 8.35352C11.0879 7.99805 11.3477 7.72461 11.7168 7.72461C11.8945 7.72461 12.0859 7.80664 12.2227 7.94336L13.1797 8.87305L13.248 8.95508L13.207 8.47656L13.207 5.89258C13.207 5.46875 13.5352 5.11328 13.9453 5.11328ZM17.3906 12.9336C17.0898 12.6465 17.1035 12.1816 17.4316 11.8535L18.6348 10.6367C18.9629 10.3223 19.4277 10.3086 19.7148 10.6094C19.9883 10.9102 19.9746 11.3477 19.6602 11.6895L18.457 12.9062C18.1289 13.2207 17.6777 13.2207 17.3906 12.9336ZM19.6055 16.9258C19.1543 16.9258 18.7988 16.6113 18.7988 16.2012C18.7988 15.791 19.1543 15.4629 19.6055 15.4629L21.3008 15.4629C21.7656 15.4629 22.0938 15.791 22.0938 16.2012C22.0938 16.5977 21.7656 16.9258 21.3008 16.9258ZM17.8691 16.3516C17.8691 16.7754 17.7871 17.1992 17.6367 17.5957L10.2539 17.5957C10.1035 17.1992 10.0215 16.7754 10.0215 16.3516C10.0215 14.2188 11.8125 12.4414 13.9453 12.4414C16.0918 12.4414 17.8691 14.2188 17.8691 16.3516ZM6.57617 19.9062C6.17969 19.9062 5.79688 19.5918 5.79688 19.1816C5.79688 18.7715 6.16602 18.457 6.57617 18.457L21.3145 18.457C21.7383 18.457 22.0938 18.7715 22.0938 19.1816C22.0938 19.5918 21.7246 19.9062 21.3145 19.9062Z" style="fill:var(--color-1,white)"></path>
 </g>
</svg>