<svg version="1.1" xmlns="http://www.w3.org/2000/svg" xmlns:xlink="http://www.w3.org/1999/xlink" viewBox="0 0 11.5391 31.7051">
 <g>
  
  <path d="M5.5918 9.10547C8.10742 9.10547 10.1445 7.08203 10.1445 4.55273C10.1445 2.03711 8.10742 0 5.5918 0C3.07617 0 1.03906 2.03711 1.03906 4.55273C1.03906 7.08203 3.07617 9.10547 5.5918 9.10547ZM5.5918 7.31445C4.06055 7.31445 2.83008 6.08398 2.83008 4.55273C2.83008 3.02148 4.06055 1.79102 5.5918 1.79102C7.12305 1.79102 8.35352 3.02148 8.35352 4.55273C8.35352 6.08398 7.12305 7.31445 5.5918 7.31445ZM0.970703 10.5L10.2266 10.5C10.7598 10.5 11.1836 10.0625 11.1836 9.5293C11.1836 8.99609 10.7598 8.57227 10.2266 8.57227L0.970703 8.57227C0.423828 8.57227 0 8.99609 0 9.5293C0 10.0625 0.423828 10.5 0.970703 10.5ZM0.970703 14.8613L10.2266 14.8613C10.7598 14.8613 11.1836 14.4238 11.1836 13.8906C11.1836 13.3574 10.7598 12.9336 10.2266 12.9336L0.970703 12.9336C0.423828 12.9336 0 13.3574 0 13.8906C0 14.4238 0.423828 14.8613 0.970703 14.8613ZM0.970703 19.2773L10.2266 19.2773C10.7598 19.2773 11.1836 18.8535 11.1836 18.3203C11.1836 17.7871 10.7598 17.3496 10.2266 17.3496L0.970703 17.3496C0.423828 17.3496 0 17.7871 0 18.3203C0 18.8535 0.423828 19.2773 0.970703 19.2773ZM1.83203 18.334L1.83203 24.6641C1.83203 26.2637 2.625 27.0566 4.16992 27.0566L7.02734 27.0566C8.55859 27.0566 9.36523 26.2637 9.36523 24.6641L9.36523 18.334ZM5.5918 31.6914C7.20508 31.6914 8.50391 30.3926 8.50391 28.793C8.50391 27.1797 7.20508 25.8809 5.5918 25.8809C3.99219 25.8809 2.69336 27.1797 2.69336 28.793C2.69336 30.3926 3.99219 31.6914 5.5918 31.6914ZM5.5918 29.9414C4.96289 29.9414 4.44336 29.4219 4.44336 28.793C4.44336 28.1504 4.96289 27.6309 5.5918 27.6309C6.23438 27.6309 6.75391 28.1504 6.75391 28.793C6.75391 29.4219 6.23438 29.9414 5.5918 29.9414Z" style="fill:var(--color-0,hsl(0 0 0/0.85))"></path>
 </g>
</svg>