<?xml version="1.0" encoding="UTF-8"?>
<!--Generator: Apple Native CoreSVG 326-->
<!DOCTYPE svg
PUBLIC "-//W3C//DTD SVG 1.1//EN"
       "http://www.w3.org/Graphics/SVG/1.1/DTD/svg11.dtd">
<svg version="1.1" xmlns="http://www.w3.org/2000/svg" xmlns:xlink="http://www.w3.org/1999/xlink" viewBox="0 0 45.459 37.5669">
 <g>
  <rect height="37.5669" opacity="0" width="45.459" x="0" y="0"/>
  <path d="M15.1045 15.0783L11.9902 17.0266L6.76758 17.6692C3.63672 18.052 2.21484 19.2688 2.21484 21.47L2.21484 23.3977C2.21484 24.3137 2.61133 24.7649 3.34961 24.7649L5.83769 24.7649C6.18351 22.6973 7.93106 21.1829 10.1035 21.1829C12.2882 21.1829 14.0479 22.6973 14.3962 24.7649L24.7955 24.7649L27.0113 26.9797L14.222 26.9797C13.6408 28.6896 12.0389 29.8782 10.1035 29.8782C8.17893 29.8782 6.58782 28.6896 6.01069 26.9797L3.24023 26.9797C1.2168 26.9797 0 25.7356 0 23.6575L0 21.47C0 17.9973 2.14648 16.0012 6.49414 15.468L11.2383 14.8938L13.4989 13.4734ZM42.9297 12.1868L43.5176 13.0344C44.5156 14.47 45.1035 16.302 45.1035 17.8743L45.1035 23.3157C45.1035 25.845 44.0918 26.9797 41.8633 26.9797L39.91 26.9797C39.4763 28.2528 38.4736 29.2361 37.1944 29.6526L35.0953 27.5536C35.3114 27.6256 35.546 27.6633 35.793 27.6633C37.0234 27.6633 37.9395 26.7473 37.9395 25.5305C37.9395 24.3001 37.0234 23.384 35.793 23.384C34.5762 23.384 33.6602 24.3001 33.6602 25.5305C33.6602 25.7775 33.6979 26.0121 33.7699 26.2282L31.6799 24.1381C32.2418 22.3981 33.8469 21.1829 35.793 21.1829C37.9654 21.1829 39.7348 22.6973 40.0852 24.7649L41.7539 24.7649C42.5879 24.7649 42.8887 24.3958 42.8887 23.4387L42.8887 17.8743C42.8887 16.7122 42.4512 15.3723 41.6992 14.2786L41.1113 13.4446C40.1133 12.009 38.8965 11.4212 36.7363 11.4212L26.7969 11.4212C23.4049 11.4212 21.5933 11.6204 19.8675 12.3258L18.1886 10.6468C20.4725 9.5303 22.6391 9.21998 26.7969 9.21998L36.7363 9.21998C39.6895 9.21998 41.4668 10.0813 42.9297 12.1868ZM7.9707 25.5305C7.9707 26.7473 8.88672 27.6633 10.1035 27.6633C11.334 27.6633 12.25 26.7473 12.25 25.5305C12.25 24.3001 11.334 23.384 10.1035 23.384C8.88672 23.384 7.9707 24.3001 7.9707 25.5305Z" fill="white" fill-opacity="0.85"/>
  <path d="M41.0703 3.99732L41.0703 5.35084C41.0703 6.45826 40.4688 7.1692 39.375 7.1692L22.5449 7.1692C21.4922 7.1692 21.041 6.67701 21.041 5.77467C21.041 5.18678 21.3145 4.59889 22.1895 4.22974L25.252 2.94459C28.4102 1.64576 30.3789 1.00318 32.8262 1.00318L37.7617 1.00318C40.0586 1.00318 41.0703 2.0149 41.0703 3.99732Z" fill="white" fill-opacity="0.85"/>
  <path d="M37.9805 35.6614C38.3906 36.0715 39.0742 36.0715 39.4707 35.6614C39.8809 35.2512 39.8809 34.5813 39.4707 34.1712L8.55859 3.27271C8.13477 2.84889 7.47852 2.84889 7.05469 3.27271C6.6582 3.6692 6.64453 4.33912 7.05469 4.76295Z" fill="white" fill-opacity="0.85"/>
 </g>
</svg>
