<?xml version="1.0" encoding="UTF-8"?>
<!--Generator: Apple Native CoreSVG 326-->
<!DOCTYPE svg
PUBLIC "-//W3C//DTD SVG 1.1//EN"
       "http://www.w3.org/Graphics/SVG/1.1/DTD/svg11.dtd">
<svg version="1.1" xmlns="http://www.w3.org/2000/svg" xmlns:xlink="http://www.w3.org/1999/xlink" viewBox="0 0 25.7578 24.8691">
 <g>
  <rect height="24.8691" opacity="0" width="25.7578" x="0" y="0"/>
  <path d="M12.3594 24.8691C14.7656 24.8691 16.6523 22.9551 16.6523 20.5488C16.6523 18.1562 14.752 16.2422 12.3594 16.2422C9.95312 16.2422 8.03906 18.1562 8.03906 20.5488C8.03906 22.9414 9.95312 24.8691 12.3594 24.8691ZM25.4023 21.6973L25.4023 0.779297C23.4473 1.2168 21.8477 1.96875 19.9062 3.18555L13.6992 7.08203L7.95703 7.7793C2.7207 8.42188 0.123047 10.8145 0.123047 15.0391L0.123047 17.6777C0.123047 20.1797 1.59961 21.6973 4.0332 21.6973L6.54883 21.6973C6.48047 21.3281 6.45312 20.959 6.45312 20.5488C6.45312 17.2812 9.07812 14.6426 12.3594 14.6426C15.627 14.6426 18.252 17.2812 18.252 20.5488C18.252 20.959 18.2246 21.3281 18.1426 21.6973ZM1.01172 2.29688L6.13867 2.29688C6.68555 2.29688 7.0957 2.41992 7.4375 2.76172L13.5215 8.8457L15.3809 7.82031L9.02344 1.46289C8.23047 0.65625 7.17773 0.328125 5.91992 0.328125L1.01172 0.328125C0.382812 0.328125 0 0.710938 0 1.29883C0 1.88672 0.382812 2.29688 1.01172 2.29688Z" fill="white" fill-opacity="0.85"/>
 </g>
</svg>
