<?xml version="1.0" encoding="UTF-8"?>
<!--Generator: Apple Native CoreSVG 326-->
<!DOCTYPE svg
PUBLIC "-//W3C//DTD SVG 1.1//EN"
       "http://www.w3.org/Graphics/SVG/1.1/DTD/svg11.dtd">
<svg version="1.1" xmlns="http://www.w3.org/2000/svg" xmlns:xlink="http://www.w3.org/1999/xlink" viewBox="0 0 48.8496 22.2441">
 <g>
  <rect height="22.2441" opacity="0" width="48.8496" x="0" y="0"/>
  <path d="M14.5332 18.0879C14.5332 20.125 12.9199 21.7383 10.8691 21.7383C8.8457 21.7383 7.21875 20.1113 7.21875 18.0879C7.21875 16.0508 8.8457 14.4238 10.8691 14.4238C12.9062 14.4238 14.5332 16.0508 14.5332 18.0879ZM42.082 18.0879C42.082 20.1113 40.4551 21.7383 38.418 21.7383C36.3945 21.7383 34.7676 20.1113 34.7676 18.0879C34.7676 16.0645 36.4082 14.4238 38.418 14.4238C40.4551 14.4238 42.082 16.0508 42.082 18.0879ZM46.1699 3.19922L46.7852 4.10156C47.8652 5.66016 48.4941 7.61523 48.4941 9.32422L48.4941 15.1621C48.4941 17.8691 47.4141 19.0996 45.0215 19.0996L43.5723 19.0996C43.6406 18.7715 43.668 18.4434 43.668 18.0879C43.668 15.1758 41.3301 12.8379 38.418 12.8379C35.5332 12.8379 33.168 15.1895 33.168 18.0879C33.168 18.4434 33.209 18.7715 33.2637 19.0996L16.0234 19.0996C16.0918 18.7715 16.1191 18.4434 16.1191 18.0879C16.1191 15.1758 13.7812 12.8379 10.8691 12.8379C7.9707 12.8379 5.61914 15.1758 5.61914 18.0879C5.61914 18.4434 5.66016 18.7715 5.71484 19.0996L3.48633 19.0996C1.3125 19.0996 0 17.7598 0 15.5312L0 13.1797C0 9.43359 2.31055 7.30078 6.97266 6.72656L12.0723 6.09766L17.582 2.63867C20.9316 0.546875 23.1875 0 28.8203 0L39.498 0C42.6699 0 44.5977 0.916016 46.1699 3.19922ZM23.8164 9.25586L20.8633 14.1094C20.4668 14.752 20.7812 15.3535 21.5195 15.3535L27.6035 15.3535C28.3281 15.3535 28.6699 14.7656 28.2734 14.123L25.293 9.25586C24.9238 8.6543 24.1992 8.64062 23.8164 9.25586Z" fill="white" fill-opacity="0.85"/>
 </g>
</svg>
