<?xml version="1.0" encoding="UTF-8"?>
<!--Generator: Apple Native CoreSVG 326-->
<!DOCTYPE svg
PUBLIC "-//W3C//DTD SVG 1.1//EN"
       "http://www.w3.org/Graphics/SVG/1.1/DTD/svg11.dtd">
<svg version="1.1" xmlns="http://www.w3.org/2000/svg" xmlns:xlink="http://www.w3.org/1999/xlink" viewBox="0 0 28.2051 33.3184">
 <g>
  <rect height="33.3184" opacity="0" width="28.2051" x="0" y="0"/>
  <path d="M0 4.4707L0 25.9219L7.16406 25.9219C7.0957 25.5527 7.06836 25.1836 7.06836 24.7734C7.06836 21.5195 9.7207 18.8672 12.9746 18.8672C16.2422 18.8672 18.8809 21.5059 18.8809 24.7734C18.8809 25.1836 18.8398 25.5527 18.7578 25.9219L20.3984 25.9219C23.0781 25.9219 24.2949 24.541 24.2949 21.4922L24.2949 14.9023C24.2949 13.002 23.5977 10.7871 22.3945 9.03711L21.6836 8.02539C19.9199 5.46875 17.7598 4.44336 14.1777 4.44336L2.17383 4.44336C1.39453 4.44336 0.669922 4.45703 0 4.4707ZM12.9746 29.0938C15.3672 29.0938 17.2812 27.166 17.2812 24.7734C17.2812 22.3809 15.3672 20.4668 12.9746 20.4668C10.5957 20.4668 8.6543 22.3945 8.6543 24.7734C8.6543 27.166 10.582 29.0938 12.9746 29.0938ZM16.8301 5.89258L18.4297 7.17773L23.1191 2.41992C23.4199 2.10547 23.8027 1.96875 24.2402 1.96875L26.8242 1.96875C27.4531 1.96875 27.8496 1.57227 27.8496 0.984375C27.8496 0.396484 27.4531 0 26.8242 0L24.4727 0C23.3105 0 22.3125 0.341797 21.5195 1.13477Z" fill="white" fill-opacity="0.85"/>
 </g>
</svg>
