<?xml version="1.0" encoding="UTF-8"?>
<!--Generator: Apple Native CoreSVG 326-->
<!DOCTYPE svg
PUBLIC "-//W3C//DTD SVG 1.1//EN"
       "http://www.w3.org/Graphics/SVG/1.1/DTD/svg11.dtd">
<svg version="1.1" xmlns="http://www.w3.org/2000/svg" xmlns:xlink="http://www.w3.org/1999/xlink" viewBox="0 0 48.8496 40.2363">
 <g>
  <rect height="40.2363" opacity="0" width="48.8496" x="0" y="0"/>
  <path d="M46.1699 12.1953L46.7852 13.0977C47.8652 14.6562 48.4941 16.6113 48.4941 18.3203L48.4941 24.1582C48.4941 26.8652 47.4141 28.0957 45.0215 28.0957L42.9009 28.0957C42.2774 29.9315 40.5613 31.2129 38.4863 31.2129C36.4114 31.2129 34.6952 29.9315 34.0718 28.0957L15.2837 28.0957C14.6602 29.9315 12.9441 31.2129 10.8691 31.2129C8.79421 31.2129 7.07806 29.9315 6.45457 28.0957L3.48633 28.0957C1.3125 28.0957 0 26.7559 0 24.5273L0 22.1758C0 18.4297 2.31055 16.2969 6.97266 15.7227L12.0723 15.0938L17.582 11.6348C18.3657 11.1454 19.0895 10.7405 19.8105 10.4104L19.8105 12.0039C19.8105 12.3035 19.8353 12.5888 19.885 12.8573C19.5235 13.0549 19.1511 13.2759 18.7578 13.5215L12.8242 17.2129L7.25977 17.9102C3.8418 18.3477 2.20117 19.7285 2.20117 22.1758L2.20117 24.2539C2.20117 25.293 2.7207 25.8945 3.60938 25.8945L6.24037 25.8945C6.5397 23.5841 8.46324 21.8613 10.8691 21.8613C13.275 21.8613 15.1986 23.5841 15.4979 25.8945L33.8576 25.8945C34.1569 23.5841 36.0804 21.8613 38.4863 21.8613C40.8922 21.8613 42.8158 23.5841 43.1151 25.8945L44.8984 25.8945C45.8691 25.8945 46.293 25.3887 46.293 24.2949L46.293 18.3203C46.293 17.0215 45.8008 15.5449 44.9668 14.3418L44.3516 13.4531C43.2305 11.8535 41.8633 11.1973 39.498 11.1973L33.25 11.1973L33.25 8.99609L39.498 8.99609C42.6699 8.99609 44.5977 9.91211 46.1699 12.1953ZM8.39453 26.5371C8.39453 27.9316 9.47461 29.0117 10.8691 29.0117C12.2637 29.0117 13.3438 27.9316 13.3438 26.5371C13.3438 25.1426 12.2637 24.0625 10.8691 24.0625C9.47461 24.0625 8.39453 25.1426 8.39453 26.5371ZM36.0117 26.5371C36.0117 27.9316 37.0918 29.0117 38.4863 29.0117C39.8809 29.0117 40.9609 27.9316 40.9609 26.5371C40.9609 25.1426 39.8809 24.0625 38.4863 24.0625C37.0918 24.0625 36.0117 25.1426 36.0117 26.5371Z" fill="white" fill-opacity="0.85"/>
  <path d="M23.4336 13.8633L29.627 13.8633C30.7891 13.8633 31.3906 13.248 31.3906 12.0039L31.3906 7.24609C31.3906 6.01562 30.7891 5.40039 29.627 5.40039L23.4336 5.40039C22.2715 5.40039 21.6699 6.01562 21.6699 7.24609L21.6699 12.0039C21.6699 13.248 22.2715 13.8633 23.4336 13.8633ZM22.8594 6.50781L24.3496 6.50781L24.3496 3.77344C24.3496 2.36523 25.1973 1.47656 26.5234 1.47656C27.8633 1.47656 28.7109 2.36523 28.7109 3.77344L28.7109 6.50781L30.1875 6.50781L30.1875 4.00586C30.1875 1.54492 28.7656 0 26.5234 0C24.3086 0 22.8594 1.54492 22.8594 4.00586Z" fill="white" fill-opacity="0.85"/>
 </g>
</svg>
