<?xml version="1.0" encoding="UTF-8"?>
<!--Generator: Apple Native CoreSVG 326-->
<!DOCTYPE svg
PUBLIC "-//W3C//DTD SVG 1.1//EN"
       "http://www.w3.org/Graphics/SVG/1.1/DTD/svg11.dtd">
<svg version="1.1" xmlns="http://www.w3.org/2000/svg" xmlns:xlink="http://www.w3.org/1999/xlink" viewBox="0 0 45.9426 33.9667">
 <g>
  <rect height="33.9667" opacity="0" width="45.9426" x="0" y="0"/>
  <path d="M13.2096 15.4999C14.6451 16.3202 16.4361 15.8417 17.2701 14.4062C18.0904 12.9843 17.5982 11.1796 16.1764 10.3593C14.7545 9.53899 12.9498 10.0175 12.1295 11.4531C11.3092 12.8749 11.7877 14.6796 13.2096 15.4999ZM32.5416 26.6562C33.9635 27.4765 35.7682 26.998 36.5885 25.5761C37.4088 24.1406 36.9303 22.3495 35.5084 21.5156C34.0865 20.7089 32.2682 21.1874 31.4615 22.6093C30.6275 24.0312 31.1197 25.8359 32.5416 26.6562ZM45.5572 17.6601L45.4889 16.7851C45.3111 14.5566 44.3268 13.121 42.0982 11.8359L34.6197 7.51556C30.6549 5.23235 28.8639 4.69915 25.6646 4.8222L20.401 5.0136L16.5592 3.38665C13.0592 1.89642 10.5709 2.45696 9.05332 5.09564L8.10996 6.73626C7.20761 8.29485 7.57675 9.77142 9.108 10.6464L10.6666 11.5624C10.7623 11.3027 10.8717 11.0566 11.0084 10.7968C12.1842 8.7597 14.7818 8.06243 16.8189 9.25189C18.8697 10.4277 19.5533 13.0117 18.3775 15.0624C18.2408 15.3085 18.0768 15.5273 17.899 15.7324L29.9986 22.7187C30.0807 22.4589 30.19 22.2128 30.3404 21.9667C31.5162 19.9296 34.1275 19.2324 36.151 20.4081C38.1881 21.5839 38.8853 24.1816 37.7096 26.2187C37.5592 26.4648 37.4088 26.6835 37.2311 26.8886L38.2428 27.4765C39.9244 28.4472 41.1686 28.0234 42.276 26.1093L44.6412 22.0214C45.3248 20.832 45.6803 19.1913 45.5572 17.6601Z" fill="white" fill-opacity="0.85"/>
  <path d="M4.77402 6.39446L7.65879 1.4179C8.1373 0.583917 7.46738-0.140693 6.61972 0.0233698L2.21738 0.83001C1.61582 0.939385 1.34238 1.40423 1.56113 1.99212L3.05136 6.18939C3.33847 7.02337 4.2955 7.22845 4.77402 6.39446ZM0.152926 11.7949C-0.161527 12.3417 0.0298795 13.0117 0.535739 13.3124L36.0006 33.7929C36.5064 34.08 37.19 33.9159 37.4771 33.3964C37.7916 32.8495 37.6002 32.1796 37.108 31.8788L1.62949 11.3984C1.1373 11.1113 0.440036 11.2753 0.152926 11.7949Z" fill="white" fill-opacity="0.85"/>
 </g>
</svg>
