<svg version="1.1" xmlns="http://www.w3.org/2000/svg" xmlns:xlink="http://www.w3.org/1999/xlink" viewBox="0 0 46.3901 38.0381">
 <g>
  
  <path d="M18.2663 27.9263C19.7019 27.106 20.1804 25.315 19.3464 23.8794C18.5261 22.4575 16.7351 21.979 15.2995 22.7993C13.8777 23.6196 13.3992 25.4243 14.2195 26.8462C15.0398 28.2681 16.8445 28.7466 18.2663 27.9263ZM37.5984 16.77C39.0203 15.9497 39.4988 14.145 38.6785 12.7232C37.8581 11.3013 36.0535 10.8091 34.6316 11.6431C33.2097 12.4497 32.7312 14.2681 33.5515 15.69C34.3718 17.1118 36.1628 17.5903 37.5984 16.77ZM36.3132 1.00636L35.5203 0.623546C33.4968-0.333486 31.7742-0.196767 29.5456 1.08839L22.0535 5.4087C18.1023 7.69191 16.7488 8.97706 15.2449 11.8071L12.7839 16.4692L9.44799 18.9712C6.41283 21.2681 5.66088 23.7017 7.17845 26.3267L8.12181 27.981C9.02416 29.5396 10.487 29.9497 12.0183 29.0747L13.5906 28.1587C13.4128 27.9673 13.2488 27.7349 13.0984 27.4888C11.9226 25.4517 12.6199 22.854 14.657 21.6782C16.6941 20.5025 19.2917 21.1997 20.4675 23.2368C20.6179 23.4829 20.7273 23.729 20.8093 23.9888L32.9089 17.0025C32.7312 16.811 32.5671 16.5786 32.4304 16.3325C31.2546 14.3091 31.9519 11.6978 33.989 10.522C36.0261 9.3462 38.6238 10.0435 39.7995 12.0806C39.9363 12.3267 40.0593 12.5728 40.1413 12.8325L41.1531 12.2446C42.8347 11.2739 43.0945 9.97511 41.987 8.07472L39.6355 3.97316C38.9382 2.7837 37.7078 1.66261 36.3132 1.00636Z" style="fill:var(--color-0,hsl(0 0 0/0.85))"></path>
  <path d="M6.15306 30.7017L3.29564 25.7251C2.81713 24.8775 1.84642 25.0962 1.57299 25.9028L0.069079 30.1275C-0.135999 30.7017 0.123766 31.1665 0.739001 31.2759L5.12767 32.0962C5.989 32.2603 6.64525 31.522 6.15306 30.7017ZM8.5183 37.4009C8.84642 37.9478 9.51634 38.0982 10.0222 37.8247L45.5007 17.3442C46.0066 17.0708 46.1843 16.3872 45.8972 15.8677C45.5828 15.3208 44.8992 15.1567 44.3933 15.4439L8.91478 35.9243C8.42259 36.1978 8.23119 36.8814 8.5183 37.4009Z" style="fill:var(--color-1,hsl(0 0 0/0.85))"></path>
 </g>
</svg>