<svg version="1.1" xmlns="http://www.w3.org/2000/svg" xmlns:xlink="http://www.w3.org/1999/xlink" viewBox="0 0 43.8219 36.917">
 <g>
  
  <path d="M4.20588 36.1704C4.534 36.7173 5.20392 36.8814 5.70978 36.6079L41.1883 16.1275C41.6805 15.8403 41.8719 15.1567 41.5848 14.6509C41.2703 14.104 40.5867 13.94 40.0809 14.2134L4.60236 34.6939C4.11017 34.981 3.91877 35.6646 4.20588 36.1704ZM5.58674 29.0747L8.58088 27.3521L7.69221 25.8071L4.79377 27.4751C4.16486 27.8442 3.5633 27.6255 3.13947 26.9009L2.29181 25.438C1.30744 23.729 1.89533 22.0884 4.11017 20.4067L7.74689 17.6587L10.3992 12.6685C11.7528 10.1118 12.8465 9.08644 16.5242 6.95362L24.0164 2.63331C25.6707 1.67628 26.9012 1.58058 28.3231 2.2505L29.1297 2.61964C30.1961 3.1255 31.1395 3.95948 31.659 4.8755L34.0789 9.05909C34.5301 9.83839 34.4344 10.3716 33.7508 10.7544L31.3992 12.1216L32.2879 13.6665L34.7352 12.2583C36.4168 11.2876 36.6766 9.98878 35.5692 8.07472L33.2039 3.98683C32.5203 2.7837 31.2899 1.66261 29.8953 1.00636L29.1024 0.623546C27.0789-0.333486 25.3563-0.196767 23.1141 1.08839L15.6356 5.4087C11.6707 7.69191 10.3172 8.99073 8.82697 11.8208L6.35236 16.4829L3.0301 18.9849C-0.00506061 21.2817-0.757014 23.7017 0.760564 26.3403L1.70392 27.981C2.60627 29.5396 4.06916 29.9497 5.58674 29.0747ZM13.0789 24.7544L27.8856 16.2095L26.9832 14.6646L12.1903 23.2095ZM12.0399 28.2681C13.8856 27.2017 14.4871 24.9321 13.4207 23.1001C12.368 21.2544 10.0985 20.6528 8.25275 21.7056C6.40705 22.772 5.80549 25.0415 6.87189 26.8872C7.92463 28.7192 10.1942 29.3345 12.0399 28.2681ZM11.1512 26.7232C10.1668 27.2974 8.97736 26.9692 8.40314 25.9985C7.8426 25.0142 8.17072 23.811 9.14142 23.2505C10.1258 22.69 11.3153 23.0044 11.8895 23.9888C12.45 24.9595 12.1219 26.1626 11.1512 26.7232ZM31.4129 17.0845C33.2586 16.0181 33.8602 13.7485 32.8074 11.9165C31.741 10.0708 29.4715 9.45558 27.6258 10.522C25.7801 11.5884 25.1785 13.8579 26.2449 15.7036C27.2977 17.5357 29.5672 18.1509 31.4129 17.0845ZM30.5242 15.5396C29.5399 16.1001 28.3504 15.7857 27.7899 14.8013C27.2156 13.8306 27.5438 12.6275 28.5145 12.0669C29.4988 11.5064 30.6883 11.8208 31.2625 12.8052C31.8231 13.7759 31.4949 14.979 30.5242 15.5396Z" style="fill:var(--color-0,hsl(0 0 0/0.85))"></path>
  <path d="M41.0516 36.854C41.9266 36.854 42.5555 36.4439 42.9656 35.8013C43.2391 35.3911 43.4715 34.7622 43.4715 34.2974C43.4715 33.8599 43.157 33.5864 42.7195 33.5864C42.3778 33.5864 42.1043 33.8325 42.036 34.2153C41.8719 35.0083 41.6258 35.4868 41.0106 35.4868C40.2586 35.4868 39.8211 34.4204 39.8211 32.4517C39.8211 30.4556 40.327 29.3892 41.0106 29.3892C41.5848 29.3892 41.8992 29.9497 41.9949 30.6607C42.0633 31.0845 42.3504 31.3306 42.7606 31.3306C43.1707 31.3306 43.4305 31.0435 43.4305 30.606C43.4305 30.0864 43.1707 29.3345 42.7195 28.815C42.282 28.3228 41.6668 28.0357 40.9969 28.0357C39.8074 28.0357 39.0828 28.8013 38.7 29.69C38.3172 30.5376 38.2352 31.4946 38.2352 32.4517C38.2352 33.5454 38.3445 34.6118 38.8231 35.5142C39.3153 36.4028 40.0535 36.854 41.0516 36.854ZM26.5457 36.7857C27.0379 36.7857 27.3387 36.4849 27.3387 35.9927L27.3387 33.0396L29.4442 33.0396L29.4442 35.9927C29.4442 36.4849 29.7586 36.7857 30.2371 36.7857C30.7156 36.7857 31.0301 36.4849 31.0301 35.9927L31.0301 28.897C31.0301 28.4185 30.7156 28.1177 30.2371 28.1177C29.7586 28.1177 29.4442 28.4185 29.4442 28.897L29.4442 31.7271L27.3387 31.7271L27.3387 28.897C27.3387 28.4185 27.0379 28.1177 26.5457 28.1177C26.0809 28.1177 25.7801 28.4185 25.7801 28.897L25.7801 35.9927C25.7801 36.4849 26.0809 36.7857 26.5457 36.7857ZM32.9578 36.7857L34.4754 36.7857C36.7039 36.7857 37.4559 34.6392 37.4559 32.4243C37.4559 30.0044 36.5945 28.1177 34.4754 28.1177L32.9578 28.1177C32.5067 28.1177 32.1785 28.3775 32.1785 28.938L32.1785 35.9653C32.1785 36.5259 32.5067 36.7857 32.9578 36.7857ZM33.7235 35.4732L33.7235 29.4302L34.284 29.4302C35.6102 29.4302 35.8563 31.0982 35.8563 32.4243C35.8563 33.7778 35.6512 35.4732 34.284 35.4732Z" style="fill:var(--color-1,hsl(0 0 0/0.85))"></path>
 </g>
</svg>