<svg version="1.1" xmlns="http://www.w3.org/2000/svg" xmlns:xlink="http://www.w3.org/1999/xlink" viewBox="0 0 45.9426 33.9667">
 <g>
  
  <path d="M9.108 10.6464L12.0885 12.3827L12.9771 10.8378L10.0787 9.15618C9.46347 8.80071 9.34043 8.15814 9.76425 7.43353L10.5982 5.98431C11.5963 4.26165 13.3053 3.96087 15.8756 5.04095L20.0592 6.80462L25.7193 6.61321C28.6041 6.51751 30.0396 6.92767 33.7174 9.06048L41.2096 13.3808C42.8639 14.3378 43.5611 15.3495 43.6978 16.9218L43.7799 17.8105C43.8756 18.9863 43.6158 20.2167 43.0963 21.1327L40.6764 25.3163C40.2389 26.0956 39.7193 26.2734 39.0494 25.8769L36.6842 24.5234L35.7955 26.0683L38.2428 27.4765C39.9244 28.4472 41.1686 28.0234 42.276 26.1093L44.6412 22.0214C45.3248 20.832 45.6803 19.1913 45.5572 17.6601L45.4889 16.7851C45.3111 14.5566 44.3268 13.121 42.0982 11.8359L34.6197 7.51556C30.6549 5.23235 28.8639 4.69915 25.6646 4.8222L20.401 5.0136L16.5592 3.38665C13.0592 1.89642 10.5709 2.45696 9.05332 5.09564L8.10996 6.73626C7.20761 8.29485 7.57675 9.77142 9.108 10.6464ZM16.5865 14.9667L31.3932 23.5117L32.2818 21.9804L17.4752 13.4218ZM13.0182 15.8281C14.8639 16.8945 17.1334 16.2929 18.1998 14.4472C19.2662 12.6015 18.651 10.332 16.8053 9.26556C14.9732 8.21282 12.7037 8.81439 11.6373 10.6601C10.5709 12.4921 11.1861 14.7753 13.0182 15.8281ZM13.9068 14.2831C12.9361 13.7226 12.6217 12.5195 13.1822 11.5488C13.7428 10.5781 14.9459 10.2499 15.9166 10.8105C16.901 11.3847 17.2154 12.5742 16.6549 13.5585C16.0943 14.5292 14.8912 14.8574 13.9068 14.2831ZM32.3912 27.0117C34.2369 28.0781 36.5064 27.4765 37.5728 25.6308C38.6393 23.7851 38.024 21.5156 36.1783 20.4628C34.3463 19.3964 32.0768 19.998 31.0103 21.8437C29.9439 23.6894 30.5592 25.9589 32.3912 27.0117ZM33.2936 25.4804C32.3092 24.9062 31.9947 23.7167 32.5553 22.7324C33.1158 21.7617 34.3189 21.4335 35.2896 21.9941C36.274 22.5683 36.5885 23.7577 36.0279 24.7421C35.4674 25.7128 34.2643 26.0409 33.2936 25.4804Z" style="fill:var(--color-0,hsl(0 0 0/0.85))"></path>
  <path d="M4.77402 6.39446L7.65879 1.4179C8.1373 0.583917 7.46738-0.140693 6.61972 0.0233698L2.21738 0.83001C1.61582 0.939385 1.34238 1.40423 1.56113 1.99212L3.05136 6.18939C3.33847 7.02337 4.2955 7.22845 4.77402 6.39446ZM0.152926 11.7949C-0.161527 12.3417 0.0298795 13.0117 0.535739 13.3124L36.0006 33.7929C36.5064 34.08 37.19 33.9159 37.4771 33.3964C37.7916 32.8495 37.6002 32.1796 37.108 31.8788L1.62949 11.3984C1.1373 11.1113 0.440036 11.2753 0.152926 11.7949Z" style="fill:var(--color-1,hsl(0 0 0/0.85))"></path>
 </g>
</svg>