<svg version="1.1" xmlns="http://www.w3.org/2000/svg" xmlns:xlink="http://www.w3.org/1999/xlink" viewBox="0 0 48.8496 37.8574">
 <g>
  
  <path d="M46.1699 11.0059L46.7852 11.9082C47.8652 13.4668 48.4941 15.4219 48.4941 17.1309L48.4941 22.9688C48.4941 25.6758 47.4141 26.9062 45.0215 26.9062L42.9009 26.9062C42.2774 28.7421 40.5613 30.0234 38.4863 30.0234C36.4114 30.0234 34.6952 28.7421 34.0718 26.9062L15.2837 26.9062C14.6602 28.7421 12.9441 30.0234 10.8691 30.0234C8.79421 30.0234 7.07806 28.7421 6.45457 26.9062L3.48633 26.9062C1.3125 26.9062 0 25.5664 0 23.3379L0 20.9863C0 17.2402 2.31055 15.1074 6.97266 14.5332L12.0723 13.9043L17.582 10.4453C19.7617 9.08416 21.4782 8.37716 23.9685 8.05186L24.034 10.2607C22.0109 10.5586 20.6174 11.1708 18.7578 12.332L12.8242 16.0234L7.25977 16.7207C3.8418 17.1582 2.20117 18.5391 2.20117 20.9863L2.20117 23.0645C2.20117 24.1035 2.7207 24.7051 3.60938 24.7051L6.24037 24.7051C6.5397 22.3946 8.46324 20.6719 10.8691 20.6719C13.275 20.6719 15.1986 22.3946 15.4979 24.7051L33.8576 24.7051C34.1569 22.3946 36.0804 20.6719 38.4863 20.6719C40.8922 20.6719 42.8158 22.3946 43.1151 24.7051L44.8984 24.7051C45.8691 24.7051 46.293 24.1992 46.293 23.1055L46.293 17.1309C46.293 15.832 45.8008 14.3555 44.9668 13.1523L44.3516 12.2637C43.2305 10.6641 41.8633 10.0078 39.498 10.0078L30.2782 10.0078L30.3434 7.80664L39.498 7.80664C42.6699 7.80664 44.5977 8.72266 46.1699 11.0059ZM8.39453 25.3477C8.39453 26.7422 9.47461 27.8223 10.8691 27.8223C12.2637 27.8223 13.3438 26.7422 13.3438 25.3477C13.3438 23.9531 12.2637 22.873 10.8691 22.873C9.47461 22.873 8.39453 23.9531 8.39453 25.3477ZM36.0117 25.3477C36.0117 26.7422 37.0918 27.8223 38.4863 27.8223C39.8809 27.8223 40.9609 26.7422 40.9609 25.3477C40.9609 23.9531 39.8809 22.873 38.4863 22.873C37.0918 22.873 36.0117 23.9531 36.0117 25.3477Z" style="fill:var(--color-0,#ff3b30)"></path>
  <path d="M27.1523 20.248C28.1367 20.248 28.9434 19.4414 28.9434 18.5117C28.9434 17.5684 28.1504 16.7891 27.1523 16.7891C26.168 16.7891 25.3613 17.5684 25.3613 18.5117C25.3613 19.4414 26.1816 20.248 27.1523 20.248ZM27.1523 14.1777C27.8223 14.1777 28.3008 13.6992 28.3281 13.002L28.6152 3.32227C28.6426 2.44727 28.0547 1.87305 27.1523 1.87305C26.25 1.87305 25.6758 2.44727 25.7031 3.32227L25.9902 13.002C26.0176 13.6992 26.4824 14.1777 27.1523 14.1777Z" style="fill:var(--color-1,#ff3b30)"></path>
 </g>
</svg>