<svg version="1.1" xmlns="http://www.w3.org/2000/svg" xmlns:xlink="http://www.w3.org/1999/xlink" viewBox="0 0 52.0488 30.3379">
 <g>
  
  <path d="M42.1094 4.96289L43.709 6.23438L47.4551 2.40625C47.7695 2.0918 48.1523 1.96875 48.5898 1.96875L50.668 1.96875C51.2969 1.96875 51.6934 1.55859 51.6934 0.970703C51.6934 0.382812 51.2969 0 50.668 0L48.8223 0C47.6602 0 46.6484 0.328125 45.8691 1.12109ZM3.48633 23.1465L7.73828 23.1465L7.73828 20.9453L3.60938 20.9453C2.7207 20.9453 2.20117 20.3438 2.20117 19.3047L2.20117 17.2266C2.20117 14.7793 3.8418 13.3984 7.25977 12.9609L12.8242 12.2637L18.7578 8.57227C21.7793 6.68555 23.5703 6.24805 28.8203 6.24805L39.498 6.24805C41.8633 6.24805 43.2305 6.9043 44.3516 8.50391L44.9668 9.39258C45.8008 10.5957 46.293 12.0723 46.293 13.3711L46.293 19.3457C46.293 20.4395 45.8691 20.9453 44.8984 20.9453L41.5352 20.9453L41.5352 23.1465L45.0215 23.1465C47.4141 23.1465 48.4941 21.916 48.4941 19.209L48.4941 13.3711C48.4941 11.6621 47.8652 9.70703 46.7852 8.14844L46.1699 7.24609C44.5977 4.96289 42.6699 4.04688 39.498 4.04688L28.8203 4.04688C23.1875 4.04688 20.9316 4.59375 17.582 6.68555L12.0723 10.1445L6.97266 10.7734C2.31055 11.3477 0 13.4805 0 17.2266L0 19.5781C0 21.8066 1.3125 23.1465 3.48633 23.1465ZM14.1504 23.1465L35.2461 23.1465L35.2461 20.9453L14.1504 20.9453ZM10.8691 26.2637C13.4941 26.2637 15.5449 24.2129 15.5449 21.5879C15.5449 18.9629 13.4941 16.9121 10.8691 16.9121C8.24414 16.9121 6.19336 18.9629 6.19336 21.5879C6.19336 24.2129 8.24414 26.2637 10.8691 26.2637ZM10.8691 24.0625C9.47461 24.0625 8.39453 22.9824 8.39453 21.5879C8.39453 20.1934 9.47461 19.1133 10.8691 19.1133C12.2637 19.1133 13.3438 20.1934 13.3438 21.5879C13.3438 22.9824 12.2637 24.0625 10.8691 24.0625ZM38.4863 26.2637C41.1113 26.2637 43.1621 24.2129 43.1621 21.5879C43.1621 18.9629 41.1113 16.9121 38.4863 16.9121C35.8613 16.9121 33.8105 18.9629 33.8105 21.5879C33.8105 24.2129 35.8613 26.2637 38.4863 26.2637ZM38.4863 24.0625C37.0918 24.0625 36.0117 22.9824 36.0117 21.5879C36.0117 20.1934 37.0918 19.1133 38.4863 19.1133C39.8809 19.1133 40.9609 20.1934 40.9609 21.5879C40.9609 22.9824 39.8809 24.0625 38.4863 24.0625Z" style="fill:var(--color-0,#ff3b30)"></path>
 </g>
</svg>