<svg version="1.1" xmlns="http://www.w3.org/2000/svg" xmlns:xlink="http://www.w3.org/1999/xlink" viewBox="0 0 48.8496 33.2569">
 <g>
  
  <path d="M3.48633 24.606L7.73828 24.606L7.73828 22.4048L3.60938 22.4048C2.7207 22.4048 2.20117 21.8033 2.20117 20.7642L2.20117 18.6861C2.20117 16.2388 3.8418 14.858 7.25977 14.4205L12.8242 13.7232L18.7578 10.0318C21.7793 8.14508 23.5703 7.70758 28.8203 7.70758L39.498 7.70758C41.8633 7.70758 43.2305 8.36383 44.3516 9.96344L44.9668 10.8521C45.8008 12.0552 46.293 13.5318 46.293 14.8306L46.293 20.8052C46.293 21.899 45.8691 22.4048 44.8984 22.4048L41.5352 22.4048L41.5352 24.606L45.0215 24.606C47.4141 24.606 48.4941 23.3755 48.4941 20.6685L48.4941 14.8306C48.4941 13.1216 47.8652 11.1666 46.7852 9.60797L46.1699 8.70562C44.5977 6.42242 42.6699 5.5064 39.498 5.5064L28.8203 5.5064C23.1875 5.5064 20.9316 6.05328 17.582 8.14508L12.0723 11.6041L6.97266 12.233C2.31055 12.8072 0 14.94 0 18.6861L0 21.0377C0 23.2662 1.3125 24.606 3.48633 24.606ZM14.1504 24.606L35.2461 24.606L35.2461 22.4048L14.1504 22.4048ZM10.8691 27.7232C13.4941 27.7232 15.5449 25.6724 15.5449 23.0474C15.5449 20.4224 13.4941 18.3716 10.8691 18.3716C8.24414 18.3716 6.19336 20.4224 6.19336 23.0474C6.19336 25.6724 8.24414 27.7232 10.8691 27.7232ZM10.8691 25.522C9.47461 25.522 8.39453 24.442 8.39453 23.0474C8.39453 21.6529 9.47461 20.5728 10.8691 20.5728C12.2637 20.5728 13.3438 21.6529 13.3438 23.0474C13.3438 24.442 12.2637 25.522 10.8691 25.522ZM38.4863 27.7232C41.1113 27.7232 43.1621 25.6724 43.1621 23.0474C43.1621 20.4224 41.1113 18.3716 38.4863 18.3716C35.8613 18.3716 33.8105 20.4224 33.8105 23.0474C33.8105 25.6724 35.8613 27.7232 38.4863 27.7232ZM38.4863 25.522C37.0918 25.522 36.0117 24.442 36.0117 23.0474C36.0117 21.6529 37.0918 20.5728 38.4863 20.5728C39.8809 20.5728 40.9609 21.6529 40.9609 23.0474C40.9609 24.442 39.8809 25.522 38.4863 25.522Z" style="fill:var(--color-0,hsl(0 0 0/0.85))"></path>
  <path d="M21.5742 26.6978C20.8359 26.6978 20.5215 27.2994 20.918 27.942L23.8848 32.7955C24.2539 33.4244 24.9922 33.397 25.3613 32.7955L28.3418 27.942C28.7383 27.2994 28.3965 26.6978 27.6719 26.6978Z" style="fill:var(--color-1,hsl(0 0 0/0.85))"></path>
 </g>
</svg>