<svg version="1.1" xmlns="http://www.w3.org/2000/svg" xmlns:xlink="http://www.w3.org/1999/xlink" viewBox="0 0 48.8496 22.2441">
 <g>
  
  <path d="M10.8691 21.7383C12.9199 21.7383 14.5332 20.125 14.5332 18.0879C14.5332 16.0508 12.9062 14.4238 10.8691 14.4238C8.8457 14.4238 7.21875 16.0508 7.21875 18.0879C7.21875 20.1113 8.8457 21.7383 10.8691 21.7383ZM38.418 21.7383C40.4551 21.7383 42.082 20.1113 42.082 18.0879C42.082 16.0508 40.4551 14.4238 38.418 14.4238C36.4082 14.4238 34.7676 16.0645 34.7676 18.0879C34.7676 20.1113 36.3945 21.7383 38.418 21.7383ZM46.7852 4.10156L46.1699 3.19922C44.5977 0.916016 42.6699 0 39.498 0L28.8203 0C23.1875 0 20.9316 0.546875 17.582 2.63867L12.0723 6.09766L6.97266 6.72656C2.31055 7.30078 0 9.43359 0 13.1797L0 15.5312C0 17.7598 1.3125 19.0996 3.48633 19.0996L5.71484 19.0996C5.66016 18.7715 5.61914 18.4434 5.61914 18.0879C5.61914 15.1758 7.9707 12.8379 10.8691 12.8379C13.7812 12.8379 16.1191 15.1758 16.1191 18.0879C16.1191 18.4434 16.0918 18.7715 16.0234 19.0996L33.2637 19.0996C33.209 18.7715 33.168 18.4434 33.168 18.0879C33.168 15.1895 35.5332 12.8379 38.418 12.8379C41.3301 12.8379 43.668 15.1758 43.668 18.0879C43.668 18.4434 43.6406 18.7715 43.5723 19.0996L45.0215 19.0996C47.4141 19.0996 48.4941 17.8691 48.4941 15.1621L48.4941 9.32422C48.4941 7.61523 47.8652 5.66016 46.7852 4.10156Z" style="fill:var(--color-0,hsl(0 0 0/0.85))"></path>
 </g>
</svg>