<svg version="1.1" xmlns="http://www.w3.org/2000/svg" xmlns:xlink="http://www.w3.org/1999/xlink" viewBox="0 0 25.5254 25.1699">
 <g>
  
  <path d="M4.29297 25.1699L20.877 25.1699C23.748 25.1699 25.1699 23.7617 25.1699 20.9453L25.1699 4.23828C25.1699 1.42188 23.748 0 20.877 0L4.29297 0C1.43555 0 0 1.42188 0 4.23828L0 20.9453C0 23.7617 1.43555 25.1699 4.29297 25.1699Z" style="fill:var(--color-0,hsl(0 0 0/0.85))"></path>
  <path d="M7.90234 18.3613C7.4375 18.3613 7.10938 18.0332 7.10938 17.541L7.10938 7.01367C7.10938 6.52148 7.4375 6.19336 7.90234 6.19336C8.35352 6.19336 8.66797 6.53516 8.66797 7.02734L8.66797 13.5078L8.70898 13.5078L12.0859 9.83008C12.2363 9.65234 12.4824 9.5293 12.7012 9.5293C13.0977 9.5293 13.3984 9.84375 13.3984 10.1992C13.3984 10.4453 13.2891 10.5684 13.1113 10.7598L10.623 13.3984L13.2891 17.1172C13.4258 17.2949 13.5215 17.4727 13.5215 17.6777C13.5215 18.0742 13.1797 18.3613 12.7695 18.3613C12.4688 18.3613 12.25 18.2109 12.0723 17.9648L9.50195 14.3691L8.66797 15.1758L8.66797 17.541C8.66797 18.0332 8.35352 18.3613 7.90234 18.3613ZM15.8457 18.3613C15.3672 18.3613 15.0938 18.0469 15.0938 17.541L15.0938 10.3086C15.0938 9.87109 15.4082 9.5293 15.8184 9.5293C16.2148 9.5293 16.5293 9.87109 16.5293 10.3086L16.5293 11.2246L16.6113 11.2246C16.8164 10.3086 17.4453 9.5293 18.3477 9.5293C18.8672 9.5293 19.2637 9.81641 19.2637 10.3223C19.2637 10.5684 19.1543 10.7598 18.9629 10.8555C18.7578 10.9922 18.4844 11.0195 18.1836 11.0195C16.9805 11.0195 16.5977 12.127 16.5977 13.125L16.5977 17.541C16.5977 18.1562 16.2012 18.3613 15.8457 18.3613Z" style="fill:var(--color-1,white)"></path>
 </g>
</svg>