<?xml version="1.0" encoding="UTF-8"?>
<!--Generator: Apple Native CoreSVG 326-->
<!DOCTYPE svg
PUBLIC "-//W3C//DTD SVG 1.1//EN"
       "http://www.w3.org/Graphics/SVG/1.1/DTD/svg11.dtd">
<svg version="1.1" xmlns="http://www.w3.org/2000/svg" xmlns:xlink="http://www.w3.org/1999/xlink" viewBox="0 0 33.291 27.4395">
 <g>
  <rect height="27.4395" opacity="0" width="33.291" x="0" y="0"/>
  <path d="M32.9355 16.4609C32.9355 12.4414 31.4863 8.73633 29.0664 5.86523C28.793 5.53711 28.3281 5.53711 28.0273 5.85156L24.8555 9.02344C24.5957 9.2832 24.582 9.65234 24.8145 9.93945C26.2227 11.7441 27.0703 14.0137 27.0703 16.4609C27.0703 18.9219 26.2227 21.1914 24.7324 23.0918C24.541 23.3242 24.5547 23.625 24.7598 23.8438L28.0137 27.0977C28.3281 27.4121 28.7793 27.4121 29.0664 27.0703C31.4863 24.1992 32.9355 20.4941 32.9355 16.4609Z" fill="white" fill-opacity="0.85"/>
  <path d="M16.4609 5.86523C18.9355 5.86523 21.2051 6.72656 23.0234 8.13477C23.2969 8.35352 23.6523 8.32617 23.9121 8.06641L27.084 4.89453C27.3984 4.58008 27.3848 4.12891 27.0566 3.85547C24.1992 1.44922 20.4941 0 16.4609 0C12.4414 0 8.73633 1.44922 5.87891 3.85547C5.55078 4.12891 5.53711 4.58008 5.85156 4.89453L9.02344 8.06641C9.2832 8.32617 9.65234 8.35352 9.95312 8.12109C11.7578 6.72656 14.0137 5.86523 16.4609 5.86523Z" fill="white" fill-opacity="0.85"/>
  <path d="M0 16.4609C0 20.4941 1.44922 24.1992 3.86914 27.0703C4.14258 27.4121 4.60742 27.4121 4.9082 27.0977L8.16211 23.8438C8.36719 23.625 8.39453 23.3242 8.20312 23.0918C6.71289 21.1914 5.86523 18.9219 5.86523 16.4609C5.86523 14.0137 6.69922 11.7441 8.12109 9.93945C8.33984 9.65234 8.33984 9.2832 8.08008 9.02344L4.9082 5.85156C4.59375 5.53711 4.14258 5.53711 3.86914 5.86523C1.44922 8.73633 0 12.4414 0 16.4609Z" fill="white" fill-opacity="0.85"/>
  <path d="M11.9219 22.2441C12.3594 22.2441 12.6602 21.9297 12.6602 21.4512L12.6602 19.1406L13.4668 18.3613L15.9688 21.8613C16.1328 22.0938 16.3516 22.2441 16.6523 22.2441C17.0488 22.2441 17.3633 21.957 17.3633 21.5742C17.3633 21.3828 17.2812 21.2188 17.1445 21.041L14.5469 17.4316L16.9805 14.875C17.1582 14.6699 17.2402 14.5605 17.2402 14.3281C17.2402 13.9727 16.9531 13.6719 16.5703 13.6719C16.3652 13.6719 16.1191 13.8086 15.9824 13.959L12.7148 17.5547L12.6602 17.5547L12.6602 11.252C12.6602 10.7734 12.3594 10.4453 11.9219 10.4453C11.4844 10.4453 11.1562 10.7598 11.1562 11.2383L11.1562 21.4512C11.1562 21.9297 11.4844 22.2441 11.9219 22.2441ZM19.6328 22.2441C19.9609 22.2441 20.3438 22.0391 20.3438 21.4512L20.3438 17.1719C20.3438 16.1875 20.7129 15.1211 21.8887 15.1211C22.1758 15.1211 22.4355 15.0801 22.6406 14.957C22.8184 14.8613 22.9277 14.6973 22.9277 14.4512C22.9277 13.9453 22.5449 13.6719 22.0391 13.6719C21.1641 13.6719 20.5625 14.4375 20.3574 15.3125L20.2754 15.3125L20.2754 14.4375C20.2754 14 19.9746 13.6719 19.5918 13.6719C19.1953 13.6719 18.8945 14 18.8945 14.4375L18.8945 21.4512C18.8945 21.9297 19.1543 22.2441 19.6328 22.2441Z" fill="white" fill-opacity="0.85"/>
 </g>
</svg>
