<?xml version="1.0" encoding="UTF-8"?>
<!--Generator: Apple Native CoreSVG 326-->
<!DOCTYPE svg
PUBLIC "-//W3C//DTD SVG 1.1//EN"
       "http://www.w3.org/Graphics/SVG/1.1/DTD/svg11.dtd">
<svg version="1.1" xmlns="http://www.w3.org/2000/svg" xmlns:xlink="http://www.w3.org/1999/xlink" viewBox="0 0 28.2461 27.9043">
 <g>
  <rect height="27.9043" opacity="0" width="28.2461" x="0" y="0"/>
  <path d="M13.9453 27.8906C21.6426 27.8906 27.8906 21.6289 27.8906 13.9453C27.8906 6.24805 21.6426 0 13.9453 0C6.26172 0 0 6.24805 0 13.9453C0 21.6289 6.26172 27.8906 13.9453 27.8906Z" fill="white" fill-opacity="0.85"/>
  <path d="M9.25586 19.7285C8.79102 19.7285 8.46289 19.4004 8.46289 18.9082L8.46289 8.38086C8.46289 7.88867 8.79102 7.56055 9.25586 7.56055C9.70703 7.56055 10.0215 7.90234 10.0215 8.39453L10.0215 14.875L10.0625 14.875L13.4395 11.1973C13.5898 11.0195 13.8359 10.8965 14.0547 10.8965C14.4512 10.8965 14.752 11.2109 14.752 11.5664C14.752 11.8125 14.6426 11.9355 14.4648 12.127L11.9629 14.7656L14.6426 18.4844C14.7793 18.6621 14.875 18.8398 14.875 19.0449C14.875 19.4414 14.5332 19.7285 14.123 19.7285C13.8223 19.7285 13.6035 19.5781 13.4258 19.332L10.8555 15.7363L10.0215 16.543L10.0215 18.9082C10.0215 19.4004 9.70703 19.7285 9.25586 19.7285ZM17.1992 19.7285C16.7207 19.7285 16.4473 19.4141 16.4473 18.9082L16.4473 11.6758C16.4473 11.2383 16.7617 10.8965 17.1719 10.8965C17.5684 10.8965 17.8828 11.2383 17.8828 11.6758L17.8828 12.5918L17.9648 12.5918C18.1699 11.6758 18.7988 10.8965 19.7012 10.8965C20.2207 10.8965 20.6172 11.1836 20.6172 11.6895C20.6172 11.9355 20.5078 12.127 20.3164 12.2227C20.1113 12.3594 19.8242 12.3867 19.5371 12.3867C18.334 12.3867 17.9512 13.4941 17.9512 14.4922L17.9512 18.9082C17.9512 19.5234 17.5547 19.7285 17.1992 19.7285Z" fill="white"/>
 </g>
</svg>
