<svg version="1.1" xmlns="http://www.w3.org/2000/svg" xmlns:xlink="http://www.w3.org/1999/xlink" viewBox="0 0 33.5408 27.9043">
 <g>
  
  <path d="M16.5995 27.8906C24.2968 27.8906 30.5448 21.6426 30.5448 13.9453C30.5448 6.24805 24.2968 0 16.5995 0C8.90224 0 2.65419 6.24805 2.65419 13.9453L4.97841 13.9453C4.97841 7.51953 10.1737 2.32422 16.5995 2.32422C23.0253 2.32422 28.2206 7.51953 28.2206 13.9453C28.2206 20.3711 23.0253 25.5664 16.5995 25.5664C12.7167 25.5664 9.2577 23.6523 7.19325 20.7539C6.76942 20.1934 6.12684 20.0156 5.55263 20.3574C5.00575 20.6992 4.84169 21.4648 5.30653 22.0664C7.83583 25.6074 11.9784 27.8906 16.5995 27.8906ZM0.972548 11.3066C-0.0118272 11.3066-0.257921 11.9766 0.275282 12.7422L3.33778 17.0898C3.78895 17.7188 4.4452 17.7051 4.8827 17.0898L7.93153 12.7285C8.46474 11.9766 8.20497 11.3066 7.24794 11.3066Z" style="fill:var(--color-0,hsl(0 0 0/0.85))"></path>
  <path d="M12.0741 19.5508C12.5116 19.5508 12.8124 19.2227 12.8124 18.7578L12.8124 16.4473L13.619 15.668L16.121 19.168C16.285 19.4004 16.5038 19.5508 16.7909 19.5508C17.1874 19.5508 17.5155 19.2637 17.5155 18.8809C17.5155 18.6895 17.4198 18.5117 17.2968 18.3477L14.6854 14.7383L17.119 12.168C17.2968 11.9766 17.3925 11.8672 17.3925 11.6211C17.3925 11.2793 17.1054 10.9785 16.7225 10.9785C16.5175 10.9785 16.2714 11.1016 16.1347 11.2656L12.8534 14.8477L12.8124 14.8477L12.8124 8.54492C12.8124 8.08008 12.5116 7.73828 12.0741 7.73828C11.6229 7.73828 11.3085 8.06641 11.3085 8.53125L11.3085 18.7578C11.3085 19.2227 11.6229 19.5508 12.0741 19.5508ZM19.7714 19.5508C20.1132 19.5508 20.496 19.3457 20.496 18.7578L20.496 14.4648C20.496 13.4941 20.8651 12.4141 22.0409 12.4141C22.3143 12.4141 22.5878 12.3867 22.7929 12.2637C22.9706 12.168 23.08 11.9902 23.08 11.7441C23.08 11.252 22.6972 10.9785 22.1913 10.9785C21.3163 10.9785 20.7147 11.7305 20.5097 12.6191L20.4276 12.6191L20.4276 11.7305C20.4276 11.3066 20.1268 10.9785 19.744 10.9785C19.3475 10.9785 19.0468 11.3066 19.0468 11.7305L19.0468 18.7578C19.0468 19.2363 19.3065 19.5508 19.7714 19.5508Z" style="fill:var(--color-1,hsl(0 0 0/0.85))"></path>
 </g>
</svg>