<?xml version="1.0" encoding="UTF-8"?>
<!--Generator: Apple Native CoreSVG 326-->
<!DOCTYPE svg
PUBLIC "-//W3C//DTD SVG 1.1//EN"
       "http://www.w3.org/Graphics/SVG/1.1/DTD/svg11.dtd">
<svg version="1.1" xmlns="http://www.w3.org/2000/svg" xmlns:xlink="http://www.w3.org/1999/xlink" viewBox="0 0 33.291 27.3099">
 <g>
  <rect height="27.3099" opacity="0" width="33.291" x="0" y="0"/>
  <path d="M32.9355 16.3962C32.9355 7.78289 26.3184 0.714533 17.8965 0.00359537C17.459-0.0374203 17.1309 0.277033 17.1309 0.714533L17.1309 5.18524C17.1309 5.55438 17.3906 5.84149 17.7598 5.86883C22.9961 6.51141 27.0703 10.9821 27.0703 16.3962C27.0703 18.8571 26.2227 21.1266 24.7324 23.027C24.541 23.2595 24.5547 23.5602 24.7598 23.779L28.0273 27.0329C28.3281 27.3337 28.793 27.3337 29.0664 27.0055C31.4863 24.1345 32.9355 20.4294 32.9355 16.3962Z" fill="white" fill-opacity="0.85"/>
  <path d="M0 16.3962C0 20.443 1.44922 24.1481 3.86914 27.0192C4.14258 27.3473 4.59375 27.3337 4.9082 27.0329L8.17578 23.779C8.38086 23.5602 8.39453 23.2595 8.20312 23.027C6.69922 21.1266 5.86523 18.8571 5.86523 16.3962C5.86523 10.9821 9.93945 6.51141 15.1758 5.86883C15.5449 5.84149 15.8047 5.55438 15.8047 5.18524L15.8047 0.714533C15.8047 0.277033 15.4766-0.0374203 15.0391 0.00359537C6.61719 0.714533 0 7.78289 0 16.3962Z" fill="white" fill-opacity="0.85"/>
  <path d="M11.9219 22.1794C12.3594 22.1794 12.6602 21.8649 12.6602 21.3864L12.6602 19.0759L13.4668 18.2966L15.9688 21.7966C16.1328 22.029 16.3516 22.1794 16.6523 22.1794C17.0488 22.1794 17.3633 21.8923 17.3633 21.5095C17.3633 21.318 17.2812 21.154 17.1445 20.9763L14.5469 17.3669L16.9805 14.8102C17.1582 14.6052 17.2402 14.4958 17.2402 14.2634C17.2402 13.9079 16.9531 13.6071 16.5703 13.6071C16.3652 13.6071 16.1191 13.7438 15.9824 13.8942L12.7148 17.4899L12.6602 17.4899L12.6602 11.1872C12.6602 10.7087 12.3594 10.3805 11.9219 10.3805C11.4844 10.3805 11.1562 10.695 11.1562 11.1735L11.1562 21.3864C11.1562 21.8649 11.4844 22.1794 11.9219 22.1794ZM19.6328 22.1794C19.9609 22.1794 20.3438 21.9743 20.3438 21.3864L20.3438 17.1071C20.3438 16.1227 20.7129 15.0563 21.8887 15.0563C22.1758 15.0563 22.4355 15.0153 22.6406 14.8923C22.8184 14.7966 22.9277 14.6325 22.9277 14.3864C22.9277 13.8805 22.5449 13.6071 22.0391 13.6071C21.1641 13.6071 20.5625 14.3727 20.3574 15.2477L20.2754 15.2477L20.2754 14.3727C20.2754 13.9352 19.9746 13.6071 19.5918 13.6071C19.1953 13.6071 18.8945 13.9352 18.8945 14.3727L18.8945 21.3864C18.8945 21.8649 19.1543 22.1794 19.6328 22.1794Z" fill="white" fill-opacity="0.85"/>
 </g>
</svg>
