<svg version="1.1" xmlns="http://www.w3.org/2000/svg" xmlns:xlink="http://www.w3.org/1999/xlink" viewBox="0 0 31.6506 30.8848">
 <g>
  
  <path d="M0.287201 30.5977C0.656341 30.9531 1.24423 30.9395 1.61337 30.5703L7.50595 24.6777L6.17978 23.3652L0.287201 29.2578C-0.0819398 29.627-0.109284 30.2285 0.287201 30.5977ZM5.03134 23.2832L7.65634 25.8809C9.05087 27.2617 10.9513 27.2207 12.4142 25.7578L26.7696 11.4023L25.211 9.84375L10.8692 24.1992C10.336 24.7324 9.61142 24.7051 9.05087 24.1445L6.754 21.8613C6.19345 21.3145 6.19345 20.5898 6.74033 20.043L21.0821 5.71484L19.5099 4.14258L5.15439 18.5117C3.66415 20.0156 3.62314 21.9023 5.03134 23.2832ZM7.24619 17.0762L10.6095 20.4531C10.8829 20.7266 11.252 20.7129 11.5255 20.4395C11.7579 20.207 11.7442 19.7969 11.5118 19.5508L8.13486 16.2012ZM10.0899 14.2598L13.4532 17.623C13.713 17.8828 14.0958 17.8828 14.3556 17.623C14.6017 17.377 14.5743 16.9805 14.3419 16.7344L10.9786 13.3711ZM12.9337 11.4023L16.297 14.7793C16.5567 15.0254 16.9395 15.0391 17.1993 14.7793C17.4454 14.5332 17.4454 14.1367 17.1856 13.877L13.8224 10.5137ZM15.7774 8.57227L19.1407 11.9492C19.4005 12.1953 19.7696 12.1953 20.0294 11.9492C20.2755 11.7168 20.2618 11.293 20.0294 11.0469L16.6524 7.68359ZM17.2403 3.52734L27.4122 13.6992C27.836 14.123 28.5333 14.123 28.9571 13.6992C29.3946 13.2754 29.3946 12.5645 28.9571 12.1406L18.7989 1.98242C18.3477 1.51758 17.6642 1.54492 17.2403 1.98242C16.8165 2.40625 16.7892 3.07617 17.2403 3.52734ZM19.838 3.8418L27.0704 11.1016L28.0548 10.1172C28.4786 9.69336 28.4923 8.99609 28.0548 8.57227L26.0724 6.58984L27.7813 4.88086L29.422 6.52148C29.8458 6.94531 30.5431 6.94531 30.9669 6.52148C31.4044 6.08398 31.4044 5.38672 30.9669 4.96289L26.3321 0.328125C25.9083-0.109375 25.211-0.109375 24.7735 0.328125C24.3497 0.751953 24.3497 1.44922 24.7735 1.87305L26.4278 3.51367L24.7188 5.22266L22.3673 2.87109C21.9435 2.44727 21.2325 2.44727 20.8087 2.87109Z" style="fill:var(--color-0,hsl(0 0 0/0.85))"></path>
 </g>
</svg>