<svg version="1.1" xmlns="http://www.w3.org/2000/svg" xmlns:xlink="http://www.w3.org/1999/xlink" viewBox="0 0 28.2461 27.9043">
 <g>
  
  <path d="M13.9453 27.8906C21.6426 27.8906 27.8906 21.6289 27.8906 13.9453C27.8906 6.24805 21.6426 0 13.9453 0C6.26172 0 0 6.24805 0 13.9453C0 21.6289 6.26172 27.8906 13.9453 27.8906Z" style="fill:var(--color-0,hsl(0 0 0/0.85))"></path>
  <path d="M13.9043 20.4668C13.1797 20.4668 12.7969 19.9336 12.7969 19.1816L12.7969 9.29688L9.32422 9.29688C8.77734 9.29688 8.38086 8.92773 8.38086 8.36719C8.38086 7.7793 8.77734 7.4375 9.32422 7.4375L18.5527 7.4375C19.0996 7.4375 19.5098 7.7793 19.5098 8.36719C19.5098 8.92773 19.0996 9.29688 18.5527 9.29688L15.0527 9.29688L15.0527 19.1816C15.0527 19.9609 14.6562 20.4668 13.9043 20.4668Z" style="fill:var(--color-1,white)"></path>
 </g>
</svg>