<svg version="1.1" xmlns="http://www.w3.org/2000/svg" xmlns:xlink="http://www.w3.org/1999/xlink" viewBox="0 0 25.5254 25.1699">
 <g>
  
  <path d="M4.29297 25.1699L20.877 25.1699C23.748 25.1699 25.1699 23.7617 25.1699 20.9453L25.1699 4.23828C25.1699 1.42188 23.748 0 20.877 0L4.29297 0C1.43555 0 0 1.42188 0 4.23828L0 20.9453C0 23.7617 1.43555 25.1699 4.29297 25.1699Z" style="fill:var(--color-0,hsl(0 0 0/0.85))"></path>
  <path d="M12.5645 19.0996C11.8262 19.0996 11.4434 18.5664 11.4434 17.8145L11.4434 7.92969L7.98438 7.92969C7.4375 7.92969 7.02734 7.56055 7.02734 7C7.02734 6.41211 7.4375 6.07031 7.98438 6.07031L17.1992 6.07031C17.7461 6.07031 18.1562 6.41211 18.1562 7C18.1562 7.56055 17.7461 7.92969 17.1992 7.92969L13.6992 7.92969L13.6992 17.8145C13.6992 18.5938 13.3027 19.0996 12.5645 19.0996Z" style="fill:var(--color-1,white)"></path>
 </g>
</svg>