<?xml version="1.0" encoding="UTF-8"?>
<!--Generator: Apple Native CoreSVG 326-->
<!DOCTYPE svg
PUBLIC "-//W3C//DTD SVG 1.1//EN"
       "http://www.w3.org/Graphics/SVG/1.1/DTD/svg11.dtd">
<svg version="1.1" xmlns="http://www.w3.org/2000/svg" xmlns:xlink="http://www.w3.org/1999/xlink" viewBox="0 0 30.9053 31.9204">
 <g>
  <rect height="31.9204" opacity="0" width="30.9053" x="0" y="0"/>
  <path d="M20.7171 25.8416L16.1226 30.4456C14.1675 32.4006 12.1577 32.428 10.148 30.4319L1.49367 21.7913C-0.516096 19.7952-0.47508 17.7717 1.48 15.8167L6.08661 11.2195ZM26.021 2.76001L29.1655 5.90455C30.2046 6.94361 30.5464 7.39478 30.5464 8.844L30.5464 14.0393C30.5464 15.4749 30.478 16.0627 29.4527 17.0881L24.4675 22.0835L9.84891 7.46486L14.8511 2.4729C15.8765 1.44751 16.4507 1.37915 17.8862 1.37915L23.0952 1.37915C24.5445 1.37915 24.9956 1.73462 26.021 2.76001ZM18.9253 10.4436C18.9253 11.4827 19.7183 12.3167 20.7984 12.3167C21.8648 12.3167 22.6714 11.4827 22.6714 10.4436C22.6714 9.39087 21.8648 8.57056 20.7984 8.57056C19.7183 8.57056 18.9253 9.39087 18.9253 10.4436Z" fill="white" fill-opacity="0.85"/>
  <path d="M26.3902 29.2561C26.814 29.6663 27.4839 29.6663 27.8804 29.2561C28.2905 28.846 28.3042 28.176 27.8804 27.7659L4.14601 4.0315C3.73586 3.62134 3.06594 3.60767 2.64211 4.0315C2.24562 4.42798 2.24562 5.11158 2.64211 5.52173Z" fill="white" fill-opacity="0.85"/>
 </g>
</svg>
