<?xml version="1.0" encoding="UTF-8"?>
<!--Generator: Apple Native CoreSVG 326-->
<!DOCTYPE svg
PUBLIC "-//W3C//DTD SVG 1.1//EN"
       "http://www.w3.org/Graphics/SVG/1.1/DTD/svg11.dtd">
<svg version="1.1" xmlns="http://www.w3.org/2000/svg" xmlns:xlink="http://www.w3.org/1999/xlink" viewBox="0 0 25.5254 25.1699">
 <g>
  <rect height="25.1699" opacity="0" width="25.5254" x="0" y="0"/>
  <path d="M4.29297 25.1699L20.877 25.1699C23.748 25.1699 25.1699 23.7617 25.1699 20.9453L25.1699 4.23828C25.1699 1.42188 23.748 0 20.877 0L4.29297 0C1.43555 0 0 1.42188 0 4.23828L0 20.9453C0 23.7617 1.43555 25.1699 4.29297 25.1699Z" fill="white" fill-opacity="0.85"/>
  <path d="M9.67969 19.8926L5.49609 15.6816C4.63477 14.834 4.63477 14 5.50977 13.125L12.25 6.30273C12.7832 5.75586 13.166 5.35938 14.0137 5.35938L16.7754 5.35938C17.4043 5.35938 17.7734 5.63281 18.2109 6.05664L19.4277 7.25977C19.8652 7.69727 20.0293 8.06641 20.0293 8.70898L20.0293 11.3477C20.0293 12.2227 19.6191 12.5918 19.0859 13.125L12.2637 19.8789C11.3887 20.7539 10.541 20.7402 9.67969 19.8926ZM15.1074 10.2812C15.4902 10.6777 16.1191 10.6777 16.5156 10.2676C16.9121 9.87109 16.9121 9.24219 16.5156 8.85938C16.1191 8.46289 15.4902 8.46289 15.1074 8.85938C14.7109 9.25586 14.7109 9.89844 15.1074 10.2812Z" fill="white"/>
 </g>
</svg>
