<svg version="1.1" xmlns="http://www.w3.org/2000/svg" xmlns:xlink="http://www.w3.org/1999/xlink" viewBox="0 0 30.9053 31.9204">
 <g>
  
  <path d="M16.1226 30.4456L29.4527 17.0881C30.478 16.0627 30.5464 15.4749 30.5464 14.0393L30.5464 8.844C30.5464 7.39478 30.2046 6.94361 29.1655 5.90455L26.021 2.76001C24.9956 1.73462 24.5445 1.37915 23.0952 1.37915L17.8862 1.37915C16.4507 1.37915 15.8765 1.44751 14.8511 2.4729L1.48 15.8167C-0.47508 17.7717-0.516096 19.7952 1.49367 21.7913L10.148 30.4319C12.1577 32.428 14.1675 32.4006 16.1226 30.4456ZM20.7984 12.3167C19.7183 12.3167 18.9253 11.4827 18.9253 10.4436C18.9253 9.39087 19.7183 8.57056 20.7984 8.57056C21.8648 8.57056 22.6714 9.39087 22.6714 10.4436C22.6714 11.4827 21.8648 12.3167 20.7984 12.3167Z" style="fill:var(--color-0,hsl(0 0 0/0.85))"></path>
 </g>
</svg>