<svg version="1.1" xmlns="http://www.w3.org/2000/svg" xmlns:xlink="http://www.w3.org/1999/xlink" viewBox="0 0 28.2461 27.9043">
 <g>
  
  <path d="M13.9453 27.9043C21.6426 27.9043 27.8906 21.6562 27.8906 13.959C27.8906 6.27539 21.6426 0.0136719 13.9453 0.0136719C6.26172 0.0136719 0 6.27539 0 13.959C0 21.6562 6.26172 27.9043 13.9453 27.9043Z" style="fill:var(--color-0,hsl(0 0 0/0.85))"></path>
  <path d="M11.0332 21.2871L6.83594 17.0625C5.98828 16.2148 5.98828 15.3809 6.86328 14.5059L13.5898 7.68359C14.1367 7.15039 14.5195 6.74023 15.3672 6.74023L18.1152 6.74023C18.7578 6.74023 19.127 7.01367 19.5508 7.45117L20.7812 8.6543C21.2188 9.07812 21.3828 9.44727 21.3828 10.1035L21.3828 12.7285C21.3828 13.6035 20.9727 13.9727 20.4395 14.5195L13.6172 21.2734C12.7422 22.1348 11.8945 22.1348 11.0332 21.2871ZM16.4609 11.6758C16.8438 12.0586 17.459 12.0586 17.8691 11.6621C18.2656 11.2656 18.2656 10.6367 17.8691 10.2402C17.4727 9.84375 16.8438 9.84375 16.4609 10.2402C16.0645 10.6504 16.0645 11.2793 16.4609 11.6758Z" style="fill:var(--color-1,white)"></path>
 </g>
</svg>