<svg version="1.1" xmlns="http://www.w3.org/2000/svg" xmlns:xlink="http://www.w3.org/1999/xlink" viewBox="0 0 28.2461 27.9043">
 <g>
  
  <path d="M13.9453 27.8906C21.6426 27.8906 27.8906 21.6426 27.8906 13.9453C27.8906 6.24805 21.6426 0 13.9453 0C6.24805 0 0 6.24805 0 13.9453C0 21.6426 6.24805 27.8906 13.9453 27.8906ZM13.9453 25.5664C7.51953 25.5664 2.32422 20.3711 2.32422 13.9453C2.32422 7.51953 7.51953 2.32422 13.9453 2.32422C20.3711 2.32422 25.5664 7.51953 25.5664 13.9453C25.5664 20.3711 20.3711 25.5664 13.9453 25.5664Z" style="fill:var(--color-0,hsl(0 0 0/0.85))"></path>
  <path d="M11.1152 21.0547C11.9492 21.875 12.7695 21.8887 13.6172 21.041L20.2207 14.4785C20.7539 13.9727 21.1367 13.6035 21.1367 12.7695L21.1367 10.1992C21.1367 9.58398 20.9727 9.22852 20.5625 8.80469L19.373 7.62891C18.9492 7.21875 18.5938 6.95898 17.9785 6.95898L15.3262 6.95898C14.5059 6.95898 14.123 7.3418 13.6035 7.875L7.05469 14.4922C6.20703 15.3398 6.2207 16.1465 7.04102 16.9668ZM16.3652 11.7305C15.9824 11.3613 15.9824 10.7324 16.3652 10.3496C16.7344 9.9668 17.3633 9.9668 17.7324 10.3496C18.1152 10.7188 18.1152 11.334 17.7324 11.7168C17.3496 12.1133 16.748 12.1133 16.3652 11.7305Z" style="fill:var(--color-1,hsl(0 0 0/0.85))"></path>
 </g>
</svg>