<svg version="1.1" xmlns="http://www.w3.org/2000/svg" xmlns:xlink="http://www.w3.org/1999/xlink" viewBox="0 0 37.8261 35.5059">
 <g>
  
  <path d="M22.5908 4.83984L22.5908 7.4375L25.2021 10.8965C25.6288 11.4654 25.762 11.8631 25.775 12.7148L22.0576 12.7148C20.2256 12.7148 18.8994 14.2051 19.1045 16.0371L20.5263 30.9258C20.5389 31.0585 20.5543 31.1878 20.5769 31.3086L5.67868 31.3086C2.91696 31.3086 1.50876 29.9277 1.50876 27.1934L1.50876 12.8652C1.50876 11.9082 1.63181 11.498 2.08298 10.8965L4.69431 7.4375L4.69431 4.83984C4.69431 2.89844 5.82907 1.83203 7.89353 1.83203L19.3916 1.83203C21.456 1.83203 22.5908 2.89844 22.5908 4.83984ZM9.94431 5.38672C9.46579 5.38672 9.05563 5.81055 9.05563 6.28906C9.05563 6.78125 9.46579 7.17773 9.94431 7.17773L17.2998 7.17773C17.7783 7.17773 18.1884 6.78125 18.1884 6.28906C18.1884 5.81055 17.7783 5.38672 17.2998 5.38672Z" style="fill:var(--color-0,hsl(0 0 0/0.85))"></path>
  <path d="M25.2842 33.6328L31.6142 33.6328C33.4189 33.6328 34.3213 32.7168 34.5127 30.748L35.9482 15.8594C36.0302 15.0938 35.5791 14.5879 34.8271 14.5879L22.0576 14.5879C21.3193 14.5879 20.8818 15.1074 20.9502 15.8594L22.3857 30.748C22.5771 32.7168 23.4658 33.6328 25.2842 33.6328ZM27.5537 15.2852L29.4404 15.2852L29.5224 14C29.5771 13.3164 29.7822 12.9199 30.2881 12.5508L34.8681 9.26953C35.8935 8.53125 34.7998 6.95898 33.6924 7.76562L29.29 10.9512C28.2373 11.7168 27.7861 12.5508 27.6767 13.8906Z" style="fill:var(--color-1,hsl(0 0 0/0.85))"></path>
 </g>
</svg>