<svg version="1.1" xmlns="http://www.w3.org/2000/svg" xmlns:xlink="http://www.w3.org/1999/xlink" viewBox="0 0 28.2461 27.9043">
 <g>
  
  <path d="M13.9453 27.8906C21.6426 27.8906 27.8906 21.6426 27.8906 13.9453C27.8906 6.24805 21.6426 0 13.9453 0C6.24805 0 0 6.24805 0 13.9453C0 21.6426 6.24805 27.8906 13.9453 27.8906ZM13.9453 25.5664C7.51953 25.5664 2.32422 20.3711 2.32422 13.9453C2.32422 7.51953 7.51953 2.32422 13.9453 2.32422C20.3711 2.32422 25.5664 7.51953 25.5664 13.9453C25.5664 20.3711 20.3711 25.5664 13.9453 25.5664Z" style="fill:var(--color-0,hsl(0 0 0/0.85))"></path>
  <path d="M13.9453 22.6133C18.7305 22.6133 22.6133 18.7305 22.6133 13.9453C22.6133 9.16016 18.7305 5.27734 13.9453 5.27734C9.16016 5.27734 5.27734 9.16016 5.27734 13.9453C5.27734 18.7305 9.16016 22.6133 13.9453 22.6133ZM13.9453 20.4121C10.3633 20.4121 7.47852 17.5273 7.47852 13.9453C7.47852 10.3633 10.3633 7.47852 13.9453 7.47852C17.5273 7.47852 20.4121 10.3633 20.4121 13.9453C20.4121 17.5273 17.5273 20.4121 13.9453 20.4121Z" style="fill:var(--color-1,hsl(0 0 0/0.85))"></path>
  <path d="M13.9453 17.4727C15.9004 17.4727 17.4863 15.9004 17.4863 13.9316C17.4863 11.9766 15.9004 10.3906 13.9453 10.3906C11.9902 10.3906 10.4043 11.9766 10.4043 13.9316C10.4043 15.9004 11.9902 17.4727 13.9453 17.4727Z" style="fill:var(--color-2,hsl(0 0 0/0.85))"></path>
 </g>
</svg>