<svg version="1.1" xmlns="http://www.w3.org/2000/svg" xmlns:xlink="http://www.w3.org/1999/xlink" viewBox="0 0 29.4264 34.3574">
 <g>
  
  <path d="M14.5218 19.6875C19.7581 19.6875 24.0374 15.4082 24.0374 10.1719C24.0374 10.0215 24.0238 9.80273 24.0101 9.61133C26.2933 9.33789 28.0023 7.36914 28.0023 5.01758C28.0023 2.43359 25.8831 0.314453 23.2855 0.314453C21.8226 0.314453 20.4554 0.998047 19.5941 2.13281C18.0765 1.17578 16.3128 0.65625 14.5218 0.65625C12.7308 0.65625 10.9671 1.17578 9.44954 2.13281C8.58821 0.998047 7.22102 0.314453 5.75813 0.314453C3.16047 0.314453 1.04133 2.43359 1.04133 5.01758C1.04133 7.36914 2.75032 9.33789 5.03352 9.61133C5.01985 9.80273 5.00618 10.0215 5.00618 10.1719C5.00618 15.4082 9.28547 19.6875 14.5218 19.6875ZM14.5218 17.7188C10.3656 17.7188 6.97493 14.3281 6.97493 10.1719C6.97493 9.70703 7.00227 9.00977 7.3304 7.83398L7.18 7.69727C6.70149 7.82031 6.2093 7.86133 5.75813 7.86133C4.21321 7.86133 2.96907 6.60352 2.96907 5.05859C2.96907 3.52734 4.21321 2.2832 5.75813 2.2832C7.20735 2.2832 8.41047 3.41797 8.50618 4.82617C8.51985 4.94922 8.50618 5.09961 8.4925 5.22266L8.77961 5.30469C10.2698 3.56836 12.2933 2.61133 14.5218 2.61133C16.7503 2.61133 18.7738 3.56836 20.264 5.30469L20.5511 5.22266C20.5374 5.09961 20.5238 4.94922 20.5374 4.82617C20.6331 3.41797 21.8363 2.2832 23.2855 2.2832C24.8304 2.2832 26.0745 3.52734 26.0745 5.05859C26.0745 6.60352 24.8304 7.86133 23.2855 7.86133C22.8343 7.86133 22.3421 7.82031 21.8636 7.69727L21.7132 7.83398C22.0413 9.00977 22.0687 9.70703 22.0687 10.1719C22.0687 14.3281 18.6781 17.7188 14.5218 17.7188ZM14.5491 19.3047C17.0921 19.3047 19.1976 17.2266 19.1976 14.6562C19.1976 12.0996 17.1058 10.0078 14.5491 10.0078C11.9925 10.0078 9.90071 12.1133 9.90071 14.6562C9.90071 17.2402 11.9788 19.3047 14.5491 19.3047ZM14.5491 17.6094C12.9222 17.6094 11.596 16.2832 11.596 14.6562C11.596 13.043 12.9222 11.7168 14.5491 11.7168C16.1624 11.7168 17.4886 13.043 17.4886 14.6562C17.4886 16.2832 16.1624 17.6094 14.5491 17.6094ZM11.2269 9.55664C11.8831 9.55664 12.4163 9.02344 12.4163 8.36719C12.4163 7.71094 11.8831 7.17773 11.2269 7.17773C10.598 7.17773 10.0511 7.71094 10.0511 8.36719C10.0511 9.02344 10.598 9.55664 11.2269 9.55664ZM17.8304 9.55664C18.4593 9.55664 19.0062 9.02344 19.0062 8.36719C19.0062 7.71094 18.4593 7.17773 17.8304 7.17773C17.1741 7.17773 16.6409 7.71094 16.6409 8.36719C16.6409 9.02344 17.1741 9.55664 17.8304 9.55664ZM14.5218 15.0801C15.2738 15.0801 16.5042 13.9453 16.5042 13.6445C16.5042 13.125 15.6566 12.4004 14.5218 12.4004C13.3734 12.4004 12.4984 13.125 12.4984 13.6445C12.4984 13.9453 13.7698 15.0801 14.5218 15.0801ZM8.42415 34.3574C11.2679 34.3574 13.5238 31.4043 13.5238 27.7129C13.5238 24.0625 11.2679 21.0957 8.42415 21.0957C5.56672 21.0957 3.32454 24.0625 3.32454 27.7129C3.32454 31.4043 5.56672 34.3574 8.42415 34.3574ZM8.42415 32.293C6.78352 32.293 5.38899 30.2285 5.38899 27.7129C5.38899 25.2109 6.78352 23.1602 8.42415 23.1602C10.0648 23.1602 11.4593 25.2109 11.4593 27.7129C11.4593 30.2285 10.0648 32.293 8.42415 32.293ZM20.6468 34.3574C23.5042 34.3574 25.7464 31.4043 25.7464 27.7129C25.7464 24.0625 23.5042 21.0957 20.6468 21.0957C17.8031 21.0957 15.5472 24.0625 15.5472 27.7129C15.5472 31.4043 17.8031 34.3574 20.6468 34.3574ZM20.6468 32.293C19.0062 32.293 17.6116 30.2285 17.6116 27.7129C17.6116 25.2109 19.0062 23.1602 20.6468 23.1602C22.2874 23.1602 23.682 25.2109 23.682 27.7129C23.682 30.2285 22.2874 32.293 20.6468 32.293ZM4.78743 26.4961L4.84211 24.5684C3.74836 24.5957 2.68196 23.9941 2.21711 22.9551C1.58821 21.5469 2.14875 19.9336 3.5843 19.2773L8.58821 16.9805L7.7679 15.2168L2.75032 17.4863C0.357739 18.5664-0.65398 21.4238 0.43977 23.7891C1.24641 25.5117 2.9554 26.5234 4.78743 26.4961ZM24.2835 26.4961C26.1156 26.5234 27.8245 25.5117 28.6312 23.7891C29.7249 21.4238 28.7132 18.5664 26.3206 17.4863L21.3031 15.2168L20.4827 16.9805L25.4866 19.2773C26.9222 19.9336 27.4827 21.5469 26.8538 22.9551C26.389 23.9941 25.3226 24.5957 24.2288 24.5684ZM10.8304 32.5527C13.3597 33.1133 15.6156 33.127 18.1722 32.5527L17.7894 30.6113C15.6156 31.1582 13.387 31.1582 11.2132 30.6113Z" style="fill:var(--color-0,hsl(0 0 0/0.85))"></path>
 </g>
</svg>