<?xml version="1.0" encoding="UTF-8"?>
<!--Generator: Apple Native CoreSVG 326-->
<!DOCTYPE svg
PUBLIC "-//W3C//DTD SVG 1.1//EN"
       "http://www.w3.org/Graphics/SVG/1.1/DTD/svg11.dtd">
<svg version="1.1" xmlns="http://www.w3.org/2000/svg" xmlns:xlink="http://www.w3.org/1999/xlink" viewBox="0 0 39.7168 25.5254">
 <g>
  <rect height="25.5254" opacity="0" width="39.7168" x="0" y="0"/>
  <path d="M14.6562 6.04297L16.9805 6.04297C17.9102 6.04297 18.416 5.50977 18.416 4.59375L18.416 2.25586C18.416 1.32617 17.9102 0.806641 16.9805 0.806641L14.6562 0.806641C13.7402 0.806641 13.1934 1.32617 13.1934 2.25586L13.1934 4.59375C13.1934 5.50977 13.7402 6.04297 14.6562 6.04297ZM21.5195 6.04297L23.8574 6.04297C24.7734 6.04297 25.293 5.50977 25.293 4.59375L25.293 2.25586C25.293 1.32617 24.7734 0.806641 23.8574 0.806641L21.5195 0.806641C20.5898 0.806641 20.043 1.32617 20.043 2.25586L20.043 4.59375C20.043 5.50977 20.5898 6.04297 21.5195 6.04297ZM28.3691 6.04297L30.6934 6.04297C31.6094 6.04297 32.1426 5.50977 32.1426 4.59375L32.1426 2.25586C32.1426 1.32617 31.6094 0.806641 30.6934 0.806641L28.3691 0.806641C27.4395 0.806641 26.9199 1.32617 26.9199 2.25586L26.9199 4.59375C26.9199 5.50977 27.4395 6.04297 28.3691 6.04297ZM35.2051 6.04297L37.5566 6.04297C38.4727 6.04297 39.0195 5.50977 39.0195 4.59375L39.0195 2.25586C39.0195 1.32617 38.4727 0.806641 37.5566 0.806641L35.2051 0.806641C34.3027 0.806641 33.7969 1.32617 33.7969 2.25586L33.7969 4.59375C33.7969 5.50977 34.3027 6.04297 35.2051 6.04297ZM14.6289 12.9062L16.9668 12.9062C17.8965 12.9062 18.416 12.4004 18.416 11.457L18.416 9.10547C18.416 8.18945 17.8965 7.66992 16.9668 7.66992L14.6289 7.66992C13.7129 7.66992 13.1934 8.18945 13.1934 9.10547L13.1934 11.457C13.1934 12.4004 13.7129 12.9062 14.6289 12.9062ZM21.4785 12.9062L30.7344 12.9062C31.6641 12.9062 32.1699 12.4004 32.1699 11.457L32.1699 9.10547C32.1699 8.18945 31.6641 7.66992 30.7344 7.66992L21.4785 7.66992C20.5625 7.66992 20.043 8.18945 20.043 9.10547L20.043 11.457C20.043 12.4004 20.5625 12.9062 21.4785 12.9062ZM35.2598 12.9062L37.5977 12.9062C38.5273 12.9062 39.0195 12.4004 39.0195 11.457L39.0195 9.10547C39.0195 8.18945 38.5273 7.66992 37.5977 7.66992L35.2598 7.66992C34.3301 7.66992 33.8105 8.18945 33.8105 9.10547L33.8105 11.457C33.8105 12.4004 34.3301 12.9062 35.2598 12.9062ZM6.98633 18.416C11.0195 22.4492 15.832 25.5117 19.7012 25.5117C21.5195 25.5117 23.1055 24.7871 24.1445 23.625C25.1426 22.5039 25.4844 21.6699 25.4844 20.9316C25.4844 20.3574 25.1152 19.8242 24.2266 19.1953L20.8906 16.8027C20.0566 16.2148 19.6875 16.1055 19.1953 16.1055C18.7715 16.1055 18.416 16.1875 17.7051 16.5703L15.5176 17.7734C15.2578 17.9238 15.1348 17.9512 14.957 17.9512C14.6973 17.9512 14.5195 17.8828 14.2598 17.7734C13.207 17.2949 11.7441 16.1465 10.459 14.8477C9.16016 13.5488 8.14844 12.2227 7.62891 11.1973C7.56055 11.0605 7.47852 10.8418 7.47852 10.623C7.47852 10.4453 7.57422 10.2949 7.68359 10.1035L8.96875 7.90234C9.31055 7.30078 9.41992 6.97266 9.41992 6.50781C9.41992 5.97461 9.24219 5.40039 8.72266 4.67578L6.43945 1.47656C5.7832 0.560547 5.29102 0 4.53906 0C3.62305 0 2.5293 0.697266 1.73633 1.46289C0.601562 2.55664 0 4.08789 0 5.81055C0 9.70703 2.99414 14.4238 6.98633 18.416Z" fill="#32d74b"/>
 </g>
</svg>
