<?xml version="1.0" encoding="UTF-8"?>
<!--Generator: Apple Native CoreSVG 326-->
<!DOCTYPE svg
PUBLIC "-//W3C//DTD SVG 1.1//EN"
       "http://www.w3.org/Graphics/SVG/1.1/DTD/svg11.dtd">
<svg version="1.1" xmlns="http://www.w3.org/2000/svg" xmlns:xlink="http://www.w3.org/1999/xlink" viewBox="0 0 28.2461 27.9043">
 <g>
  <rect height="27.9043" opacity="0" width="28.2461" x="0" y="0"/>
  <path d="M13.9453 27.9043C21.6426 27.9043 27.8906 21.6562 27.8906 13.959C27.8906 6.27539 21.6426 0.0136719 13.9453 0.0136719C6.26172 0.0136719 0 6.27539 0 13.959C0 21.6562 6.26172 27.9043 13.9453 27.9043Z" fill="#32d74b"/>
  <path d="M7.83398 18.3613C5.85156 16.3926 4.38867 14.0957 4.38867 12.1953C4.38867 11.3477 4.68945 10.6094 5.25 10.0625C5.64648 9.69336 6.16602 9.35156 6.61719 9.35156C6.97266 9.35156 7.21875 9.625 7.5332 10.0625L8.6543 11.6211C8.92773 11.9902 8.99609 12.2637 8.99609 12.5234C8.99609 12.7695 8.94141 12.9062 8.77734 13.2207L8.14844 14.2871C8.09375 14.3691 8.05273 14.4512 8.05273 14.5469C8.05273 14.6426 8.09375 14.752 8.10742 14.8203C8.39453 15.3125 8.87305 15.9688 9.48828 16.5977C10.1309 17.2402 10.8418 17.7871 11.3613 18.0195C11.498 18.0879 11.5664 18.1289 11.6895 18.1289C11.7852 18.1289 11.8398 18.1016 11.9766 18.0195L13.043 17.4453C13.3848 17.2539 13.5488 17.2129 13.7676 17.2129C14.0137 17.2129 14.1914 17.2676 14.5879 17.5547L16.2285 18.7168C16.666 19.0312 16.8301 19.2773 16.8301 19.5645C16.8301 19.9473 16.6797 20.3301 16.1875 20.8906C15.6816 21.4512 14.916 21.8203 14.0273 21.8203C12.127 21.8203 9.77539 20.3027 7.83398 18.3613ZM11.2793 12.332C10.8281 12.332 10.5684 12.0449 10.5684 11.5938L10.5684 10.459C10.5684 9.98047 10.8281 9.73438 11.2793 9.73438L12.4414 9.73438C12.9199 9.73438 13.166 9.98047 13.166 10.459L13.166 11.5938C13.166 12.0449 12.9199 12.332 12.4414 12.332ZM14.7246 12.332C14.2598 12.332 13.9727 12.0449 13.9727 11.5938L13.9727 10.459C13.9727 9.98047 14.2598 9.73438 14.7246 9.73438L15.8867 9.73438C16.3379 9.73438 16.584 9.98047 16.584 10.459L16.584 11.5938C16.584 12.0449 16.3379 12.332 15.8867 12.332ZM18.1152 12.332C17.6641 12.332 17.418 12.0449 17.418 11.5938L17.418 10.459C17.418 9.98047 17.6641 9.73438 18.1152 9.73438L19.291 9.73438C19.7422 9.73438 20.0156 9.98047 20.0156 10.459L20.0156 11.5938C20.0156 12.0449 19.7422 12.332 19.291 12.332ZM21.5469 12.332C21.0957 12.332 20.8359 12.0449 20.8359 11.5938L20.8359 10.459C20.8359 9.98047 21.0957 9.73438 21.5469 9.73438L22.709 9.73438C23.2012 9.73438 23.4609 9.98047 23.4609 10.459L23.4609 11.5938C23.4609 12.0449 23.2012 12.332 22.709 12.332ZM11.2656 15.75C10.8008 15.75 10.5684 15.5039 10.5684 15.0391L10.5684 13.877C10.5684 13.3984 10.8008 13.166 11.2656 13.166L12.4277 13.166C12.9199 13.166 13.166 13.3984 13.166 13.877L13.166 15.0391C13.166 15.5039 12.9199 15.75 12.4277 15.75ZM14.7109 15.75C14.2461 15.75 13.9727 15.5039 13.9727 15.0391L13.9727 13.877C13.9727 13.3984 14.2461 13.166 14.7109 13.166L19.3184 13.166C19.7832 13.166 20.0293 13.3984 20.0293 13.877L20.0293 15.0391C20.0293 15.5039 19.7832 15.75 19.3184 15.75ZM21.5605 15.75C21.123 15.75 20.8496 15.5039 20.8496 15.0391L20.8496 13.877C20.8496 13.3984 21.123 13.166 21.5605 13.166L22.7363 13.166C23.2285 13.166 23.4609 13.3984 23.4609 13.877L23.4609 15.0391C23.4609 15.5039 23.2285 15.75 22.7363 15.75Z" fill="white"/>
 </g>
</svg>
