<?xml version="1.0" encoding="UTF-8"?>
<!--Generator: Apple Native CoreSVG 326-->
<!DOCTYPE svg
PUBLIC "-//W3C//DTD SVG 1.1//EN"
       "http://www.w3.org/Graphics/SVG/1.1/DTD/svg11.dtd">
<svg version="1.1" xmlns="http://www.w3.org/2000/svg" xmlns:xlink="http://www.w3.org/1999/xlink" viewBox="0 0 28.2461 27.9043">
 <g>
  <rect height="27.9043" opacity="0" width="28.2461" x="0" y="0"/>
  <path d="M13.9453 27.8906C21.6426 27.8906 27.8906 21.6426 27.8906 13.9453C27.8906 6.24805 21.6426 0 13.9453 0C6.24805 0 0 6.24805 0 13.9453C0 21.6426 6.24805 27.8906 13.9453 27.8906ZM13.9453 25.5664C7.51953 25.5664 2.32422 20.3711 2.32422 13.9453C2.32422 7.51953 7.51953 2.32422 13.9453 2.32422C20.3711 2.32422 25.5664 7.51953 25.5664 13.9453C25.5664 20.3711 20.3711 25.5664 13.9453 25.5664Z" fill="#32d74b"/>
  <path d="M7.99805 18.252C9.88477 20.1523 12.168 21.6016 14.0137 21.6016C14.875 21.6016 15.6133 21.2598 16.1055 20.6992C16.584 20.1797 16.7344 19.7832 16.7344 19.4277C16.7344 19.1543 16.5703 18.9082 16.1465 18.6074L14.5605 17.4863C14.1641 17.1992 14 17.1445 13.7539 17.1445C13.5488 17.1445 13.3848 17.1855 13.0566 17.377L12.0176 17.9375C11.8945 18.0059 11.8398 18.0195 11.7441 18.0195C11.6211 18.0195 11.5527 17.9922 11.4297 17.9375C10.9238 17.7051 10.2266 17.1719 9.61133 16.5566C9.00977 15.9414 8.54492 15.2988 8.27148 14.834C8.25781 14.7656 8.2168 14.6562 8.2168 14.5469C8.2168 14.4648 8.25781 14.3965 8.3125 14.3145L8.91406 13.2754C9.07812 12.9746 9.13281 12.8379 9.13281 12.6055C9.13281 12.3457 9.06445 12.0723 8.80469 11.7305L7.71094 10.2129C7.41016 9.78906 7.16406 9.51562 6.82227 9.51562C6.38477 9.51562 5.87891 9.85742 5.49609 10.2129C4.94922 10.7324 4.66211 11.457 4.66211 12.2637C4.66211 14.123 6.08398 16.3516 7.99805 18.252ZM11.3477 12.4141L12.4688 12.4141C12.9336 12.4141 13.1797 12.1406 13.1797 11.7031L13.1797 10.582C13.1797 10.1172 12.9336 9.89844 12.4688 9.89844L11.3477 9.89844C10.9102 9.89844 10.6504 10.1172 10.6504 10.582L10.6504 11.7031C10.6504 12.1406 10.9102 12.4141 11.3477 12.4141ZM14.6836 12.4141L15.8184 12.4141C16.2559 12.4141 16.4883 12.1406 16.4883 11.7031L16.4883 10.582C16.4883 10.1172 16.2559 9.89844 15.8184 9.89844L14.6836 9.89844C14.2324 9.89844 13.959 10.1172 13.959 10.582L13.959 11.7031C13.959 12.1406 14.2324 12.4141 14.6836 12.4141ZM17.9785 12.4141L19.1133 12.4141C19.5508 12.4141 19.8242 12.1406 19.8242 11.7031L19.8242 10.582C19.8242 10.1172 19.5508 9.89844 19.1133 9.89844L17.9785 9.89844C17.541 9.89844 17.2949 10.1172 17.2949 10.582L17.2949 11.7031C17.2949 12.1406 17.541 12.4141 17.9785 12.4141ZM21.3008 12.4141L22.4355 12.4141C22.9141 12.4141 23.1602 12.1406 23.1602 11.7031L23.1602 10.582C23.1602 10.1172 22.9141 9.89844 22.4355 9.89844L21.3008 9.89844C20.8633 9.89844 20.6172 10.1172 20.6172 10.582L20.6172 11.7031C20.6172 12.1406 20.8633 12.4141 21.3008 12.4141ZM11.334 15.7363L12.4551 15.7363C12.9336 15.7363 13.1797 15.4902 13.1797 15.0254L13.1797 13.9043C13.1797 13.4531 12.9336 13.2207 12.4551 13.2207L11.334 13.2207C10.8828 13.2207 10.6504 13.4531 10.6504 13.9043L10.6504 15.0254C10.6504 15.4902 10.8828 15.7363 11.334 15.7363ZM14.6699 15.7363L19.1406 15.7363C19.5918 15.7363 19.8379 15.4902 19.8379 15.0254L19.8379 13.9043C19.8379 13.4531 19.5918 13.2207 19.1406 13.2207L14.6699 13.2207C14.2188 13.2207 13.959 13.4531 13.959 13.9043L13.959 15.0254C13.959 15.4902 14.2188 15.7363 14.6699 15.7363ZM21.3145 15.7363L22.4629 15.7363C22.9277 15.7363 23.1602 15.4902 23.1602 15.0254L23.1602 13.9043C23.1602 13.4531 22.9277 13.2207 22.4629 13.2207L21.3145 13.2207C20.8906 13.2207 20.6309 13.4531 20.6309 13.9043L20.6309 15.0254C20.6309 15.4902 20.8906 15.7363 21.3145 15.7363Z" fill="#32d74b"/>
 </g>
</svg>
