<svg version="1.1" xmlns="http://www.w3.org/2000/svg" xmlns:xlink="http://www.w3.org/1999/xlink" viewBox="0 0 33.5408 27.9043">
 <g>
  
  <path d="M16.5995 27.8906C24.2968 27.8906 30.5448 21.6426 30.5448 13.9453C30.5448 6.24805 24.2968 0 16.5995 0C8.90224 0 2.65419 6.24805 2.65419 13.9453L4.97841 13.9453C4.97841 7.51953 10.1737 2.32422 16.5995 2.32422C23.0253 2.32422 28.2206 7.51953 28.2206 13.9453C28.2206 20.3711 23.0253 25.5664 16.5995 25.5664C12.7167 25.5664 9.2577 23.6523 7.19325 20.7539C6.76942 20.1934 6.12684 20.0156 5.55263 20.3574C5.00575 20.6992 4.84169 21.4648 5.30653 22.0664C7.83583 25.6074 11.9784 27.8906 16.5995 27.8906ZM0.972548 11.3066C-0.0118272 11.3066-0.257921 11.9766 0.275282 12.7422L3.33778 17.0898C3.78895 17.7188 4.4452 17.7051 4.8827 17.0898L7.93153 12.7285C8.46474 11.9766 8.20497 11.3066 7.24794 11.3066Z" style="fill:var(--color-0,hsl(0 0 0/0.85))"></path>
  <path d="M16.6132 20.3438C17.078 20.3438 17.4061 20.002 17.4061 19.5234L17.4061 11.498L20.6464 11.498C21.0155 11.498 21.2753 11.2246 21.2753 10.8691C21.2753 10.5273 21.0155 10.2539 20.6464 10.2539L12.5526 10.2539C12.1835 10.2539 11.9237 10.5273 11.9237 10.8691C11.9237 11.2246 12.1835 11.498 12.5526 11.498L15.8202 11.498L15.8202 19.5234C15.8202 20.002 16.162 20.3438 16.6132 20.3438ZM11.8827 8.27148C11.8827 8.54492 12.0878 8.72266 12.3475 8.72266L20.8104 8.72266C21.0702 8.72266 21.2753 8.53125 21.2753 8.27148C21.2753 8.02539 21.0702 7.82031 20.8104 7.82031L12.3475 7.82031C12.0878 7.82031 11.8827 8.02539 11.8827 8.27148Z" style="fill:var(--color-1,hsl(0 0 0/0.85))"></path>
 </g>
</svg>