<?xml version="1.0" encoding="UTF-8"?>
<!--Generator: Apple Native CoreSVG 326-->
<!DOCTYPE svg
PUBLIC "-//W3C//DTD SVG 1.1//EN"
       "http://www.w3.org/Graphics/SVG/1.1/DTD/svg11.dtd">
<svg version="1.1" xmlns="http://www.w3.org/2000/svg" xmlns:xlink="http://www.w3.org/1999/xlink" viewBox="0 0 28.2461 27.9043">
 <g>
  <rect height="27.9043" opacity="0" width="28.2461" x="0" y="0"/>
  <path d="M13.9453 27.8906C21.6426 27.8906 27.8906 21.6426 27.8906 13.9453C27.8906 6.24805 21.6426 0 13.9453 0C6.24805 0 0 6.24805 0 13.9453C0 21.6426 6.24805 27.8906 13.9453 27.8906ZM13.9453 25.5664C7.51953 25.5664 2.32422 20.3711 2.32422 13.9453C2.32422 7.51953 7.51953 2.32422 13.9453 2.32422C20.3711 2.32422 25.5664 7.51953 25.5664 13.9453C25.5664 20.3711 20.3711 25.5664 13.9453 25.5664Z" fill="white" fill-opacity="0.85"/>
  <path d="M13.9453 20.3438C14.4102 20.3438 14.7383 20.002 14.7383 19.5234L14.7383 11.498L17.9785 11.498C18.3477 11.498 18.6074 11.2246 18.6074 10.8691C18.6074 10.5273 18.3477 10.2539 17.9785 10.2539L9.88477 10.2539C9.51562 10.2539 9.25586 10.5273 9.25586 10.8691C9.25586 11.2246 9.51562 11.498 9.88477 11.498L13.1523 11.498L13.1523 19.5234C13.1523 20.002 13.4941 20.3438 13.9453 20.3438ZM9.21484 8.27148C9.21484 8.54492 9.41992 8.72266 9.67969 8.72266L18.1426 8.72266C18.4023 8.72266 18.6074 8.53125 18.6074 8.27148C18.6074 8.02539 18.4023 7.82031 18.1426 7.82031L9.67969 7.82031C9.41992 7.82031 9.21484 8.02539 9.21484 8.27148Z" fill="white" fill-opacity="0.85"/>
 </g>
</svg>
