<svg version="1.1" xmlns="http://www.w3.org/2000/svg" xmlns:xlink="http://www.w3.org/1999/xlink" viewBox="0 0 19.0312 25.1152">
 <g>
  
  <path d="M9.37891 25.0742C10.1992 25.0742 10.7324 24.541 10.7324 23.6797L10.7324 7.20508L17.5 7.20508C18.2109 7.20508 18.6758 6.76758 18.6758 6.08398C18.6758 5.41406 18.2109 4.97656 17.5 4.97656L1.23047 4.97656C0.519531 4.97656 0.0546875 5.41406 0.0546875 6.08398C0.0546875 6.76758 0.519531 7.20508 1.23047 7.20508L8.02539 7.20508L8.02539 23.6797C8.02539 24.541 8.54492 25.0742 9.37891 25.0742ZM0 0.902344C0 1.42188 0.382812 1.79102 0.902344 1.79102L17.7734 1.79102C18.293 1.79102 18.6758 1.4082 18.6758 0.902344C18.6758 0.396484 18.293 0 17.7734 0L0.902344 0C0.382812 0 0 0.396484 0 0.902344Z" style="fill:var(--color-0,hsl(0 0 0/0.85))"></path>
 </g>
</svg>