<?xml version="1.0" encoding="UTF-8"?>
<!--Generator: Apple Native CoreSVG 326-->
<!DOCTYPE svg
PUBLIC "-//W3C//DTD SVG 1.1//EN"
       "http://www.w3.org/Graphics/SVG/1.1/DTD/svg11.dtd">
<svg version="1.1" xmlns="http://www.w3.org/2000/svg" xmlns:xlink="http://www.w3.org/1999/xlink" viewBox="0 0 28.2461 27.9043">
 <g>
  <rect height="27.9043" opacity="0" width="28.2461" x="0" y="0"/>
  <path d="M13.9453 27.8906C21.6426 27.8906 27.8906 21.6426 27.8906 13.9453C27.8906 6.24805 21.6426 0 13.9453 0C6.24805 0 0 6.24805 0 13.9453C0 21.6426 6.24805 27.8906 13.9453 27.8906ZM13.9453 25.5664C7.51953 25.5664 2.32422 20.3711 2.32422 13.9453C2.32422 7.51953 7.51953 2.32422 13.9453 2.32422C20.3711 2.32422 25.5664 7.51953 25.5664 13.9453C25.5664 20.3711 20.3711 25.5664 13.9453 25.5664Z" fill="white" fill-opacity="0.85"/>
  <path d="M6.69922 12.7559C7.0957 12.8652 7.5332 12.9199 7.99805 12.9199C10.582 12.9199 12.5508 10.9648 12.5508 8.36719C12.5508 7.82031 12.4688 7.31445 12.291 6.83594C9.43359 7.49219 7.20508 9.84375 6.69922 12.7559ZM13.918 21.3145C14.123 21.3145 14.3418 21.3145 14.5469 21.2871C14.3555 20.7402 14.2734 20.166 14.2734 19.5645C14.2734 16.4746 16.7617 13.959 19.8652 13.959C20.3438 13.959 20.7949 14.0273 21.2598 14.1504C21.2598 14.0957 21.2598 14.041 21.2598 13.9863C21.2598 9.9668 17.9238 6.64453 13.918 6.64453C13.7129 6.64453 13.5352 6.6582 13.3301 6.67188C13.5078 7.20508 13.5898 7.76562 13.5898 8.36719C13.5898 11.457 11.0879 13.959 7.99805 13.959C7.51953 13.959 7.04102 13.9043 6.58984 13.7812C6.58984 13.8496 6.58984 13.918 6.58984 13.9863C6.58984 17.9922 9.91211 21.3145 13.918 21.3145ZM15.5859 21.123C18.4297 20.4395 20.6719 18.0879 21.1504 15.1895C20.7402 15.0664 20.3301 14.998 19.8652 14.998C17.2676 14.998 15.3125 16.9668 15.3125 19.5645C15.3125 20.125 15.3945 20.6445 15.5859 21.123Z" fill="white" fill-opacity="0.85"/>
 </g>
</svg>
