<?xml version="1.0" encoding="UTF-8"?>
<!--Generator: Apple Native CoreSVG 326-->
<!DOCTYPE svg
PUBLIC "-//W3C//DTD SVG 1.1//EN"
       "http://www.w3.org/Graphics/SVG/1.1/DTD/svg11.dtd">
<svg version="1.1" xmlns="http://www.w3.org/2000/svg" xmlns:xlink="http://www.w3.org/1999/xlink" viewBox="0 0 28.2461 27.9043">
 <g>
  <rect height="27.9043" opacity="0" width="28.2461" x="0" y="0"/>
  <path d="M0.177734 11.6895C0.984375 11.8945 1.80469 12.0039 2.67969 12.0039C7.64258 12.0039 11.4023 8.24414 11.4023 3.26758C11.4023 2.22852 11.2246 1.23047 10.9102 0.341797C5.42773 1.54492 1.08008 6.04297 0.177734 11.6895ZM13.9453 27.8906C14.3555 27.8906 14.752 27.8633 15.1621 27.8223C14.834 26.7969 14.6562 25.7168 14.6562 24.5684C14.6562 18.7031 19.3867 13.9727 25.2383 13.9727C26.1543 13.9727 27.0156 14.082 27.877 14.3145C27.8906 14.1914 27.8906 14.0684 27.8906 13.9453C27.8906 6.24805 21.6426 0 13.9453 0C13.5352 0 13.1523 0.0273438 12.7695 0.0546875C13.1113 1.05273 13.2617 2.13281 13.2617 3.26758C13.2617 9.13281 8.53125 13.8633 2.67969 13.8633C1.77734 13.8633 0.861328 13.7402 0.0136719 13.5352C0 13.6582 0 13.8086 0 13.9453C0 21.6426 6.24805 27.8906 13.9453 27.8906ZM17.0215 27.5352C22.4902 26.2773 26.7832 21.752 27.7129 16.1738C26.9199 15.9551 26.127 15.832 25.2383 15.832C20.2754 15.832 16.5156 19.5918 16.5156 24.5684C16.5156 25.6348 16.6797 26.6328 17.0215 27.5352Z" fill="white" fill-opacity="0.85"/>
 </g>
</svg>
