<?xml version="1.0" encoding="UTF-8"?>
<!--Generator: Apple Native CoreSVG 326-->
<!DOCTYPE svg
PUBLIC "-//W3C//DTD SVG 1.1//EN"
       "http://www.w3.org/Graphics/SVG/1.1/DTD/svg11.dtd">
<svg version="1.1" xmlns="http://www.w3.org/2000/svg" xmlns:xlink="http://www.w3.org/1999/xlink" viewBox="0 0 28.2461 27.9043">
 <g>
  <rect height="27.9043" opacity="0" width="28.2461" x="0" y="0"/>
  <path d="M13.9453 27.8906C21.6426 27.8906 27.8906 21.6289 27.8906 13.9453C27.8906 6.24805 21.6426 0 13.9453 0C6.26172 0 0 6.24805 0 13.9453C0 21.6289 6.26172 27.8906 13.9453 27.8906Z" fill="white" fill-opacity="0.85"/>
  <path d="M20.5625 7.28711C22.3809 9.0918 22.1348 12.209 20.043 14.3145C18.8262 15.5176 17.3086 15.9961 15.8184 16.0508C13.8633 16.0918 12.7012 16.2559 11.0605 17.7051C11.1836 18.0059 11.1289 18.334 10.8691 18.5938L8.08008 21.3965C7.75195 21.7383 7.23242 21.7383 6.91797 21.3965L6.43945 20.9043C6.09766 20.5625 6.11133 20.0977 6.43945 19.7695L9.24219 16.9531C9.50195 16.6797 9.87109 16.625 10.1719 16.7891C11.6074 15.1348 11.7715 13.959 11.7988 12.0176C11.8125 10.5547 12.332 9.00977 13.5215 7.79297C15.627 5.71484 18.7441 5.48242 20.5625 7.28711ZM16.0508 7.58789L16.9121 8.43555L18.0195 7.32812C17.3906 7.21875 16.707 7.31445 16.0508 7.58789ZM17.6094 9.16016L18.7988 10.3359L20.207 8.90039C20.0703 8.64062 19.8926 8.39453 19.6738 8.16211C19.4824 7.98438 19.2773 7.82031 19.0723 7.69727ZM19.5098 11.0605L20.2617 11.8125C20.5078 11.2246 20.6035 10.6094 20.5215 10.0488ZM13.8633 9.33789L14.9297 10.4043L16.1875 9.16016L15.1348 8.10742C14.8887 8.27148 14.6426 8.46289 14.4238 8.68164C14.2051 8.90039 14.0273 9.11914 13.8633 9.33789ZM15.6406 11.1289L16.8301 12.3184L18.0879 11.0605L16.9121 9.88477ZM17.541 13.0293L18.498 13.9863C18.7168 13.8359 18.9492 13.6445 19.1543 13.4258C19.373 13.207 19.5918 12.9609 19.7559 12.7285L18.8125 11.7715ZM13.0566 12.291L14.2188 11.1289L13.3438 10.2676C13.043 10.9375 12.9473 11.6348 13.0566 12.291ZM13.4395 13.3438C13.5488 13.5625 13.7129 13.7539 13.9043 13.9453C14.123 14.1777 14.3828 14.3555 14.6699 14.4922L16.1191 13.0293L14.9434 11.8398ZM15.7773 14.793C16.3652 14.8613 16.9805 14.7656 17.582 14.5059L16.8301 13.7402Z" fill="white"/>
 </g>
</svg>
