<?xml version="1.0" encoding="UTF-8"?>
<!--Generator: Apple Native CoreSVG 326-->
<!DOCTYPE svg
PUBLIC "-//W3C//DTD SVG 1.1//EN"
       "http://www.w3.org/Graphics/SVG/1.1/DTD/svg11.dtd">
<svg version="1.1" xmlns="http://www.w3.org/2000/svg" xmlns:xlink="http://www.w3.org/1999/xlink" viewBox="0 0 29.7568 30.2764">
 <g>
  <rect height="30.2764" opacity="0" width="29.7568" x="0" y="0"/>
  <path d="M27.1421 3.18213C23.7925-0.16748 17.9683 0.27002 14.0718 4.15283C11.8159 6.42236 10.8726 9.23877 10.8452 12.0142C10.7905 16.1294 10.394 18.5083 6.60693 22.2954L8.02881 23.7036C11.8022 19.9438 14.1675 19.6157 18.2827 19.479C21.0991 19.397 23.8745 18.522 26.1577 16.2388C30.0542 12.3423 30.4917 6.51807 27.1421 3.18213ZM25.6792 4.63135C28.3726 7.33838 28.0581 11.4399 24.7085 14.7759C21.3315 18.1392 17.23 18.4673 14.5503 15.7739C11.8433 13.0942 12.1577 8.979 15.5347 5.61572C18.8843 2.26611 22.9995 1.95166 25.6792 4.63135ZM13.0874 17.2368C13.4702 17.647 13.9351 17.9751 14.4136 18.2759C13.0737 18.5083 11.8159 18.9595 10.4624 19.8618C11.3647 18.522 11.8159 17.2505 12.0347 15.9106C12.3218 16.3892 12.6772 16.8403 13.0874 17.2368ZM0.481934 28.8989L1.38428 29.8149C2.02686 30.4302 2.95654 30.4302 3.58545 29.8149L8.87646 24.5103C9.51904 23.8677 9.51904 22.938 8.87646 22.3091L7.97412 21.3931C7.34521 20.7642 6.40186 20.7642 5.77295 21.3931L0.481934 26.7114C-0.160645 27.3267-0.160645 28.2563 0.481934 28.8989ZM11.9116 11.8501L12.5952 12.5337L22.4526 2.67627L21.769 1.979ZM12.6772 14.9946L13.3472 15.6782L25.5835 3.45557L24.9272 2.7583ZM14.6323 16.9634L15.3296 17.647L27.5659 5.41064L26.8823 4.71338ZM17.7905 17.729L18.4604 18.4263L28.3315 8.55518L27.6343 7.87158ZM20.7573 2.36182L27.8667 9.45752L28.5503 8.77393L21.4409 1.67822ZM17.6675 3.00439L27.2925 12.6567L28.0034 11.9595L18.3511 2.3208ZM15.6714 4.69971L25.5835 14.6392L26.2944 13.9419L16.355 4.00244ZM13.9351 6.43604L23.8472 16.3755L24.5444 15.6782L14.6187 5.73877ZM12.2397 8.43213L21.8784 18.0845L22.562 17.4009L12.9097 7.76221ZM11.5698 11.4946L18.7202 18.6587L19.4175 17.9614L12.2534 10.811Z" fill="white" fill-opacity="0.85"/>
 </g>
</svg>
