<svg version="1.1" xmlns="http://www.w3.org/2000/svg" xmlns:xlink="http://www.w3.org/1999/xlink" viewBox="0 0 28.2461 27.9043">
 <g>
  
  <path d="M15.0664 27.1797L16.8027 26.7559C16.5566 25.9766 16.4336 25.1426 16.4336 24.2539C16.4336 19.4277 20.084 15.7773 24.8965 15.7773C25.5801 15.7773 26.2227 15.8594 26.8516 15.9961L27.2754 14.2734C26.5098 14.082 25.7168 13.9863 24.8965 13.9863C19.2227 13.9863 14.6426 18.5664 14.6426 24.2539C14.6426 25.2793 14.7793 26.2637 15.0664 27.1797ZM0.833984 11.7988L0.492188 13.5488C1.3125 13.7539 2.14648 13.8633 3.02148 13.8633C8.69531 13.8633 13.2754 9.2832 13.2754 3.5957C13.2754 2.625 13.1523 1.69531 12.8926 0.833984L11.1016 1.05273C11.3613 1.8457 11.4844 2.69336 11.4844 3.5957C11.4844 8.42188 7.83398 12.0723 3.02148 12.0723C2.26953 12.0723 1.54492 11.9766 0.833984 11.7988ZM13.9453 0C6.24805 0 0 6.24805 0 13.9453C0 21.6426 6.24805 27.8906 13.9453 27.8906C21.6426 27.8906 27.8906 21.6426 27.8906 13.9453C27.8906 6.24805 21.6426 0 13.9453 0ZM13.9453 1.85938C20.6172 1.85938 26.0312 7.27344 26.0312 13.9453C26.0312 20.6172 20.6172 26.0312 13.9453 26.0312C7.27344 26.0312 1.85938 20.6172 1.85938 13.9453C1.85938 7.27344 7.27344 1.85938 13.9453 1.85938Z" style="fill:var(--color-0,hsl(0 0 0/0.85))"></path>
 </g>
</svg>