<?xml version="1.0" encoding="UTF-8"?>
<!--Generator: Apple Native CoreSVG 326-->
<!DOCTYPE svg
PUBLIC "-//W3C//DTD SVG 1.1//EN"
       "http://www.w3.org/Graphics/SVG/1.1/DTD/svg11.dtd">
<svg version="1.1" xmlns="http://www.w3.org/2000/svg" xmlns:xlink="http://www.w3.org/1999/xlink" viewBox="0 0 28.2461 27.9043">
 <g>
  <rect height="27.9043" opacity="0" width="28.2461" x="0" y="0"/>
  <path d="M13.9453 27.8906C21.6426 27.8906 27.8906 21.6289 27.8906 13.9453C27.8906 6.24805 21.6426 0 13.9453 0C6.26172 0 0 6.24805 0 13.9453C0 21.6289 6.26172 27.8906 13.9453 27.8906Z" fill="white" fill-opacity="0.85"/>
  <path d="M6.4668 12.7148C7 9.7207 9.29688 7.28711 12.2363 6.61719C12.4277 7.10938 12.5098 7.62891 12.5098 8.18945C12.5098 10.8691 10.4727 12.8926 7.80664 12.8926C7.32812 12.8926 6.87695 12.8242 6.4668 12.7148ZM13.918 21.5469C9.78906 21.5469 6.35742 18.1152 6.35742 13.9863C6.35742 13.918 6.35742 13.8496 6.35742 13.7812C6.82227 13.9043 7.31445 13.959 7.80664 13.959C11.0059 13.959 13.5762 11.375 13.5762 8.18945C13.5762 7.57422 13.4941 6.98633 13.3164 6.43945C13.5215 6.42578 13.7129 6.41211 13.918 6.41211C18.0469 6.41211 21.4922 9.84375 21.4922 13.9863C21.4922 14.041 21.4922 14.0957 21.4922 14.1504C21.0137 14.0273 20.5488 13.959 20.0566 13.959C16.8438 13.959 14.2871 16.5566 14.2871 19.7422C14.2871 20.3574 14.3691 20.959 14.5605 21.5195C14.3555 21.5469 14.123 21.5469 13.918 21.5469ZM15.6406 21.3418C15.4355 20.8496 15.3535 20.3164 15.3535 19.7422C15.3535 17.0625 17.377 15.0254 20.0566 15.0254C20.5352 15.0254 20.959 15.0938 21.3828 15.2305C20.8906 18.2109 18.5664 20.6445 15.6406 21.3418Z" fill="white"/>
 </g>
</svg>
