<svg version="1.1" xmlns="http://www.w3.org/2000/svg" xmlns:xlink="http://www.w3.org/1999/xlink" viewBox="0 0 28.2461 27.9043">
 <g>
  
  <path d="M13.9453 27.8906C21.6426 27.8906 27.8906 21.6426 27.8906 13.9453C27.8906 6.24805 21.6426 0 13.9453 0C6.24805 0 0 6.24805 0 13.9453C0 21.6426 6.24805 27.8906 13.9453 27.8906ZM13.9453 25.5664C7.51953 25.5664 2.32422 20.3711 2.32422 13.9453C2.32422 7.51953 7.51953 2.32422 13.9453 2.32422C20.3711 2.32422 25.5664 7.51953 25.5664 13.9453C25.5664 20.3711 20.3711 25.5664 13.9453 25.5664Z" style="fill:var(--color-0,hsl(0 0 0/0.85))"></path>
  <path d="M10.5547 19.6465L21.752 19.6465C22.5312 19.6465 22.75 18.9492 22.4629 18.3613L16.9941 7.41016C16.8027 7.06836 16.502 6.84961 16.1602 6.84961C15.8047 6.84961 15.4902 7.05469 15.3398 7.39648L9.85742 18.3613C9.55664 18.9492 9.78906 19.6465 10.5547 19.6465ZM13.0293 18.6348L15.7637 12.8789C15.9277 12.5098 16.3516 12.5098 16.5566 12.8789L19.2773 18.6348L17.1582 18.6348L16.1602 14.2461L15.1484 18.6348ZM10.0215 16.5293L9.31055 13.3711L8.55859 16.5293L7.05469 16.5293L9.02344 12.3867C9.16016 12.0723 9.48828 12.1406 9.59766 12.3867L11.375 16.1328L12.6328 13.6582L10.0078 8.43555C9.85742 8.14844 9.58398 7.95703 9.31055 7.95703C8.99609 7.95703 8.73633 8.14844 8.58594 8.43555L4.60742 16.4336C4.36133 16.9395 4.55273 17.5547 5.20898 17.5547L10.6504 17.5547L11.1562 16.5293Z" style="fill:var(--color-1,hsl(0 0 0/0.85))"></path>
 </g>
</svg>