<?xml version="1.0" encoding="UTF-8"?>
<!--Generator: Apple Native CoreSVG 326-->
<!DOCTYPE svg
PUBLIC "-//W3C//DTD SVG 1.1//EN"
       "http://www.w3.org/Graphics/SVG/1.1/DTD/svg11.dtd">
<svg version="1.1" xmlns="http://www.w3.org/2000/svg" xmlns:xlink="http://www.w3.org/1999/xlink" viewBox="0 0 28.2461 27.9043">
 <g>
  <rect height="27.9043" opacity="0" width="28.2461" x="0" y="0"/>
  <path d="M13.9453 27.8906C21.6426 27.8906 27.8906 21.6426 27.8906 13.9453C27.8906 6.24805 21.6426 0 13.9453 0C6.24805 0 0 6.24805 0 13.9453C0 21.6426 6.24805 27.8906 13.9453 27.8906ZM13.9453 25.5664C7.51953 25.5664 2.32422 20.3711 2.32422 13.9453C2.32422 7.51953 7.51953 2.32422 13.9453 2.32422C20.3711 2.32422 25.5664 7.51953 25.5664 13.9453C25.5664 20.3711 20.3711 25.5664 13.9453 25.5664Z" fill="white" fill-opacity="0.85"/>
  <path d="M7.30078 20.3438L20.5898 20.3438C21.5195 20.3438 21.7656 19.4961 21.4238 18.8125L15.1074 6.125C14.5742 5.07227 13.3164 5.09961 12.8242 6.09766L6.48047 18.8125C6.13867 19.4961 6.38477 20.3438 7.30078 20.3438ZM10.2266 19.168L13.4805 12.3184C13.5762 12.0996 13.7676 11.9902 13.9453 11.9902C14.1367 11.9902 14.3145 12.0996 14.4102 12.3184L17.6641 19.168L15.1348 19.168L13.9453 13.9316L12.7559 19.168Z" fill="white" fill-opacity="0.85"/>
 </g>
</svg>
