<svg version="1.1" xmlns="http://www.w3.org/2000/svg" xmlns:xlink="http://www.w3.org/1999/xlink" viewBox="0 0 28.2461 27.9043">
 <g>
  
  <path d="M13.9453 27.9043C21.6426 27.9043 27.8906 21.6562 27.8906 13.959C27.8906 6.27539 21.6426 0.0136719 13.9453 0.0136719C6.26172 0.0136719 0 6.27539 0 13.959C0 21.6562 6.26172 27.9043 13.9453 27.9043Z" style="fill:var(--color-0,hsl(0 0 0/0.85))"></path>
  <path d="M7.08203 20.5898C6.15234 20.5898 5.87891 19.7285 6.23438 19.0039L12.7695 5.90625C13.2891 4.86719 14.5879 4.83984 15.1348 5.93359L21.6426 19.0039C22.0117 19.7285 21.7383 20.5898 20.7812 20.5898ZM10.0898 19.373L12.7012 19.373L13.9316 13.9727L15.1758 19.373L17.7871 19.373L14.4238 12.3047C14.3145 12.0996 14.123 11.9766 13.9316 11.9766C13.7676 11.9766 13.5625 12.0996 13.4531 12.3047Z" style="fill:var(--color-1,white)"></path>
 </g>
</svg>