<?xml version="1.0" encoding="UTF-8"?>
<!--Generator: Apple Native CoreSVG 326-->
<!DOCTYPE svg
PUBLIC "-//W3C//DTD SVG 1.1//EN"
       "http://www.w3.org/Graphics/SVG/1.1/DTD/svg11.dtd">
<svg version="1.1" xmlns="http://www.w3.org/2000/svg" xmlns:xlink="http://www.w3.org/1999/xlink" viewBox="0 0 28.3555 28.6973">
 <g>
  <rect height="28.6973" opacity="0" width="28.3555" x="0" y="0"/>
  <path d="M24.5684 23.4609C24.5684 25.2656 23.3652 26.4688 21.5605 26.4688C19.7422 26.4688 18.5391 25.2656 18.5391 23.4609L18.5391 21.998L24.5684 21.998Z" fill="#0a84ff"/>
  <path d="M28 1.13477C28 1.76367 27.4805 2.29688 26.8516 2.29688L26.7559 2.29688L26.7559 23.4609C26.7559 26.5781 24.6777 28.6426 21.5605 28.6426C18.4297 28.6426 16.3379 26.5781 16.3379 23.4609L16.3379 2.29688L16.2559 2.29688C15.5723 2.29688 15.0938 1.76367 15.0938 1.13477C15.0938 0.505859 15.5723 0 16.2559 0L26.8516 0C27.4805 0 28 0.505859 28 1.13477ZM18.5391 2.29688L18.5391 8.75L21.5195 8.75C21.957 8.75 22.3262 9.10547 22.3262 9.5293C22.3262 9.99414 21.9844 10.3496 21.5332 10.3496L18.5391 10.3496L18.5391 13.1797L21.5332 13.1797C21.9707 13.1797 22.3262 13.5488 22.3262 13.9727C22.3262 14.4375 21.9844 14.7793 21.5332 14.7793L18.5391 14.7793L18.5391 17.623L21.5195 17.623C21.957 17.623 22.3125 17.9922 22.3125 18.416C22.3262 18.8809 21.998 19.2227 21.5195 19.2227L18.5391 19.2227L18.5391 23.4609C18.5391 25.2656 19.7422 26.4688 21.5605 26.4688C23.3652 26.4688 24.5684 25.2656 24.5684 23.4609L24.5684 2.29688Z" fill="white" fill-opacity="0.25"/>
  <path d="M9.46094 5.90625L9.46094 23.4609C9.46094 25.2656 8.25781 26.4688 6.4668 26.4688C4.64844 26.4688 3.44531 25.2656 3.44531 23.4609L3.44531 19.2227L6.41211 19.2227C6.89062 19.2227 7.23242 18.8809 7.21875 18.416C7.21875 17.9922 6.84961 17.623 6.41211 17.623L3.44531 17.623L3.44531 14.7793L6.42578 14.7793C6.87695 14.7793 7.23242 14.4375 7.23242 13.9727C7.23242 13.5488 6.86328 13.1797 6.42578 13.1797L3.44531 13.1797L3.44531 10.3496L6.42578 10.3496C6.87695 10.3496 7.23242 9.99414 7.23242 9.5293C7.23242 9.10547 6.84961 8.75 6.41211 8.75L3.44531 8.75L3.44531 5.90625Z" fill="#0a84ff"/>
  <path d="M12.9062 1.13477C12.9062 1.76367 12.373 2.29688 11.7441 2.29688L11.6484 2.29688L11.6484 23.4609C11.6484 26.5781 9.58398 28.6426 6.4668 28.6426C3.32227 28.6426 1.24414 26.5781 1.24414 23.4609L1.24414 2.29688L1.14844 2.29688C0.464844 2.29688 0 1.76367 0 1.13477C0 0.505859 0.464844 0 1.14844 0L11.7441 0C12.373 0 12.9062 0.505859 12.9062 1.13477ZM3.44531 2.29688L3.44531 23.4609C3.44531 25.2656 4.64844 26.4688 6.4668 26.4688C8.25781 26.4688 9.46094 25.2656 9.46094 23.4609L9.46094 2.29688Z" fill="white" fill-opacity="0.25"/>
  <path d="M3.44531 10.3496L3.44531 8.75L6.41211 8.75C6.84961 8.75 7.23242 9.10547 7.23242 9.5293C7.23242 9.99414 6.87695 10.3496 6.42578 10.3496ZM3.44531 14.7793L3.44531 13.1797L6.42578 13.1797C6.86328 13.1797 7.23242 13.5488 7.23242 13.9727C7.23242 14.4375 6.87695 14.7793 6.42578 14.7793ZM3.44531 19.2227L3.44531 17.623L6.41211 17.623C6.84961 17.623 7.21875 17.9922 7.21875 18.416C7.23242 18.8809 6.89062 19.2227 6.41211 19.2227Z" fill="white" fill-opacity="0.5"/>
 </g>
</svg>
