<svg version="1.1" xmlns="http://www.w3.org/2000/svg" xmlns:xlink="http://www.w3.org/1999/xlink" viewBox="0 0 16.9531 20.2207">
 <g>
  
  <path d="M1.14844 20.1934C1.87305 20.1934 2.22852 19.9199 2.48828 19.1543L4.25195 14.3281L12.3184 14.3281L14.082 19.1543C14.3418 19.9199 14.6973 20.1934 15.4082 20.1934C16.1328 20.1934 16.5977 19.7559 16.5977 19.0723C16.5977 18.8398 16.5566 18.6211 16.4473 18.334L10.0352 1.25781C9.7207 0.423828 9.16016 0 8.28516 0C7.4375 0 6.86328 0.410156 6.5625 1.24414L0.150391 18.3477C0.0410156 18.6348 0 18.8535 0 19.0859C0 19.7695 0.4375 20.1934 1.14844 20.1934ZM4.92188 12.25L8.24414 3.04883L8.3125 3.04883L11.6348 12.25Z" style="fill:var(--color-0,hsl(0 0 0/0.85))"></path>
 </g>
</svg>