<svg version="1.1" xmlns="http://www.w3.org/2000/svg" xmlns:xlink="http://www.w3.org/1999/xlink" viewBox="0 0 27.125 26.7832">
 <g>
  
  <path d="M1.09375 8.72266C1.81836 8.72266 2.20117 8.3125 2.20117 7.60156L2.20117 4.375C2.20117 2.95312 2.95312 2.22852 4.32031 2.22852L7.62891 2.22852C8.35352 2.22852 8.75 1.83203 8.75 1.12109C8.75 0.410156 8.35352 0.0273438 7.62891 0.0273438L4.29297 0.0273438C1.43555 0.0273438 0 1.43555 0 4.25195L0 7.60156C0 8.3125 0.396484 8.72266 1.09375 8.72266ZM25.6621 8.72266C26.3867 8.72266 26.7695 8.3125 26.7695 7.60156L26.7695 4.25195C26.7695 1.43555 25.334 0.0273438 22.4766 0.0273438L19.127 0.0273438C18.416 0.0273438 18.0195 0.410156 18.0195 1.12109C18.0195 1.83203 18.416 2.22852 19.127 2.22852L22.4355 2.22852C23.7891 2.22852 24.5684 2.95312 24.5684 4.375L24.5684 7.60156C24.5684 8.3125 24.9648 8.72266 25.6621 8.72266ZM4.29297 26.7832L7.62891 26.7832C8.35352 26.7832 8.75 26.3867 8.75 25.6895C8.75 24.9785 8.35352 24.582 7.62891 24.582L4.32031 24.582C2.95312 24.582 2.20117 23.8574 2.20117 22.4355L2.20117 19.209C2.20117 18.4844 1.80469 18.0879 1.09375 18.0879C0.382812 18.0879 0 18.4844 0 19.209L0 22.5449C0 25.375 1.43555 26.7832 4.29297 26.7832ZM19.127 26.7832L22.4766 26.7832C25.334 26.7832 26.7695 25.3613 26.7695 22.5449L26.7695 19.209C26.7695 18.4844 26.373 18.0879 25.6621 18.0879C24.9512 18.0879 24.5684 18.4844 24.5684 19.209L24.5684 22.4355C24.5684 23.8574 23.7891 24.582 22.4355 24.582L19.127 24.582C18.416 24.582 18.0195 24.9785 18.0195 25.6895C18.0195 26.3867 18.416 26.7832 19.127 26.7832Z" style="fill:var(--color-0,hsl(0 0 0/0.85))"></path>
  <path d="M6.08398 8.14844C6.08398 8.6543 6.49414 9.06445 7 9.06445L19.7832 9.06445C20.2891 9.06445 20.6992 8.6543 20.6992 8.14844C20.6992 7.64258 20.2891 7.21875 19.7832 7.21875L7 7.21875C6.49414 7.21875 6.08398 7.64258 6.08398 8.14844ZM6.08398 13.3984C6.08398 13.9043 6.49414 14.3145 7 14.3145L19.7832 14.3145C20.2891 14.3145 20.6992 13.9043 20.6992 13.3984C20.6992 12.8926 20.2891 12.4688 19.7832 12.4688L7 12.4688C6.49414 12.4688 6.08398 12.8926 6.08398 13.3984ZM6.08398 18.6484C6.08398 19.1543 6.49414 19.5781 7 19.5781L15.4082 19.5781C15.9141 19.5781 16.3242 19.1543 16.3242 18.6484C16.3242 18.1426 15.9141 17.7324 15.4082 17.7324L7 17.7324C6.49414 17.7324 6.08398 18.1426 6.08398 18.6484Z" style="fill:var(--color-1,hsl(0 0 0/0.85))"></path>
 </g>
</svg>