<svg version="1.1" xmlns="http://www.w3.org/2000/svg" xmlns:xlink="http://www.w3.org/1999/xlink" viewBox="0 0 12.5645 14.4238">
 <g>
  
  <path d="M1.13477 14.4238C1.69531 14.4238 2.06445 14.1367 2.2832 13.4668L3.41797 10.1172L8.76367 10.1172L9.89844 13.4668C10.1172 14.1641 10.4863 14.4238 11.0605 14.4238C11.7441 14.4238 12.209 14 12.209 13.3848C12.209 13.1113 12.1406 12.8516 12.0312 12.5645L7.7793 1.27148C7.46484 0.4375 6.89062 0 6.08398 0C5.29102 0 4.7168 0.410156 4.40234 1.27148L0.150391 12.5645C0.0410156 12.8242 0 13.0977 0 13.3848C0 14.0137 0.4375 14.4238 1.13477 14.4238ZM4.01953 8.33984L5.93359 2.63867L6.24805 2.63867L8.16211 8.33984Z" style="fill:var(--color-0,hsl(0 0 0/0.85))"></path>
 </g>
</svg>