<?xml version="1.0" encoding="UTF-8"?>
<!--Generator: Apple Native CoreSVG 326-->
<!DOCTYPE svg
PUBLIC "-//W3C//DTD SVG 1.1//EN"
       "http://www.w3.org/Graphics/SVG/1.1/DTD/svg11.dtd">
<svg version="1.1" xmlns="http://www.w3.org/2000/svg" xmlns:xlink="http://www.w3.org/1999/xlink" viewBox="0 0 27.9043 23.6934">
 <g>
  <rect height="23.6934" opacity="0" width="27.9043" x="0" y="0"/>
  <path d="M18.8535 2.20117L26.4277 2.20117C27.043 2.20117 27.5488 1.72266 27.5488 1.10742C27.5488 0.492188 27.043 0 26.4277 0L18.8535 0C18.2383 0 17.7598 0.492188 17.7598 1.10742C17.7598 1.72266 18.2383 2.20117 18.8535 2.20117ZM18.8535 9.36523L26.4277 9.36523C27.043 9.36523 27.5488 8.87305 27.5488 8.25781C27.5488 7.64258 27.043 7.16406 26.4277 7.16406L18.8535 7.16406C18.2383 7.16406 17.7598 7.64258 17.7598 8.25781C17.7598 8.87305 18.2383 9.36523 18.8535 9.36523ZM1.09375 16.5156L26.4277 16.5156C27.043 16.5156 27.5488 16.0371 27.5488 15.4219C27.5488 14.793 27.043 14.3145 26.4277 14.3145L1.09375 14.3145C0.478516 14.3145 0 14.793 0 15.4219C0 16.0371 0.478516 16.5156 1.09375 16.5156ZM1.09375 23.666L26.4277 23.666C27.043 23.666 27.5488 23.1875 27.5488 22.5723C27.5488 21.957 27.043 21.4648 26.4277 21.4648L1.09375 21.4648C0.478516 21.4648 0 21.957 0 22.5723C0 23.1875 0.478516 23.666 1.09375 23.666Z" fill="white" fill-opacity="0.85"/>
  <path d="M3.77344 10.1445C5.50977 10.1445 6.94531 8.98242 6.94531 7.13672C6.94531 5.38672 5.75586 4.23828 4.12891 4.23828C2.99414 4.23828 2.20117 4.83984 1.92773 6.01562L2.14648 6.04297C2.2832 3.62305 3.86914 1.99609 6.13867 1.88672C6.6582 1.85938 7.04102 1.49023 7.04102 0.970703C7.04102 0.341797 6.52148 0.0136719 5.85156 0.0136719C2.76172 0.0136719 0.0410156 2.63867 0.0410156 6.09766C0.0410156 8.55859 1.68164 10.1445 3.77344 10.1445ZM12.1406 10.1445C13.877 10.1445 15.3262 8.98242 15.3262 7.13672C15.3262 5.38672 14.1367 4.23828 12.4961 4.23828C11.375 4.23828 10.582 4.83984 10.2949 6.01562L10.5137 6.04297C10.6504 3.62305 12.2363 1.98242 14.4922 1.88672C15.0254 1.85938 15.4219 1.49023 15.4219 0.970703C15.4219 0.341797 14.916 0.0136719 14.2188 0.0136719C11.1562 0.0136719 8.4082 2.63867 8.4082 6.09766C8.4082 8.55859 10.0625 10.1445 12.1406 10.1445Z" fill="white" fill-opacity="0.85"/>
 </g>
</svg>
