<svg version="1.1" xmlns="http://www.w3.org/2000/svg" xmlns:xlink="http://www.w3.org/1999/xlink" viewBox="0 0 27.9043 23.6934">
 <g>
  
  <path d="M1.09375 2.20117L26.4277 2.20117C27.043 2.20117 27.5488 1.72266 27.5488 1.10742C27.5488 0.492188 27.043 0 26.4277 0L1.09375 0C0.478516 0 0 0.492188 0 1.10742C0 1.72266 0.478516 2.20117 1.09375 2.20117ZM1.09375 9.36523L16.3379 9.36523C16.9531 9.36523 17.4453 8.87305 17.4453 8.25781C17.4453 7.64258 16.9531 7.16406 16.3379 7.16406L1.09375 7.16406C0.478516 7.16406 0 7.64258 0 8.25781C0 8.87305 0.478516 9.36523 1.09375 9.36523ZM1.09375 16.5156L26.4277 16.5156C27.043 16.5156 27.5488 16.0371 27.5488 15.4219C27.5488 14.793 27.043 14.3145 26.4277 14.3145L1.09375 14.3145C0.478516 14.3145 0 14.793 0 15.4219C0 16.0371 0.478516 16.5156 1.09375 16.5156ZM1.09375 23.666L16.3379 23.666C16.9531 23.666 17.4453 23.1875 17.4453 22.5723C17.4453 21.957 16.9531 21.4648 16.3379 21.4648L1.09375 21.4648C0.478516 21.4648 0 21.957 0 22.5723C0 23.1875 0.478516 23.666 1.09375 23.666Z" style="fill:var(--color-0,hsl(0 0 0/0.85))"></path>
 </g>
</svg>