<?xml version="1.0" encoding="UTF-8"?>
<!--Generator: Apple Native CoreSVG 326-->
<!DOCTYPE svg
PUBLIC "-//W3C//DTD SVG 1.1//EN"
       "http://www.w3.org/Graphics/SVG/1.1/DTD/svg11.dtd">
<svg version="1.1" xmlns="http://www.w3.org/2000/svg" xmlns:xlink="http://www.w3.org/1999/xlink" viewBox="0 0 23.3516 29.2988">
 <g>
  <rect height="29.2988" opacity="0" width="23.3516" x="0" y="0"/>
  <path d="M8.05273 8.76367L18.3066 8.76367C18.7988 8.76367 19.1953 8.35352 19.1953 7.86133C19.1953 7.36914 18.7988 6.97266 18.3066 6.97266L8.05273 6.97266C7.56055 6.97266 7.16406 7.36914 7.16406 7.86133C7.16406 8.35352 7.56055 8.76367 8.05273 8.76367ZM8.05273 12.5234L15.832 12.5234C16.3242 12.5234 16.7207 12.1133 16.7207 11.6211C16.7207 11.1289 16.3242 10.7324 15.832 10.7324L8.05273 10.7324C7.56055 10.7324 7.16406 11.1289 7.16406 11.6211C7.16406 12.1133 7.56055 12.5234 8.05273 12.5234ZM4.19727 29.2988L21.9023 29.2988C22.5039 29.2988 22.9961 28.8203 22.9961 28.2051C22.9961 27.7266 22.668 27.3027 22.2305 27.1523C20.5078 26.4688 20.1523 24.2402 21.8477 22.5312C22.3672 22.0117 22.9961 21.3418 22.9961 19.9746L22.9961 4.29297C22.9961 1.44922 21.5879 0 18.7578 0L4.23828 0C1.4082 0 0 1.43555 0 4.29297L0 25.0742C0 27.8906 1.42188 29.2988 4.19727 29.2988ZM2.20117 21.3965L2.20117 4.33398C2.20117 2.9668 2.92578 2.20117 4.33398 2.20117L18.6484 2.20117C20.0703 2.20117 20.7949 2.9668 20.7949 4.33398L20.7949 19.6738C20.7949 20.4121 20.3711 20.8359 19.6055 20.8359L4.42969 20.8359C3.54102 20.8359 2.80273 21.0273 2.20117 21.3965ZM4.32031 27.0977C2.93945 27.0977 2.20117 26.3594 2.20117 25.0605C2.20117 23.8301 3.07617 23.0371 4.44336 23.0371L18.4707 23.0371C18.6484 23.0371 18.8125 23.0234 18.9492 22.9961C18.3066 24.418 18.416 25.9219 19.1406 27.0977ZM3.81445 22.0117L5.60547 22.0117L5.60547 1.66797L3.81445 1.66797Z" fill="white" fill-opacity="0.85"/>
 </g>
</svg>
