<svg version="1.1" xmlns="http://www.w3.org/2000/svg" xmlns:xlink="http://www.w3.org/1999/xlink" viewBox="0 0 23.3516 29.2988">
 <g>
  
  <path d="M8.17578 8.73633C7.66992 8.73633 7.24609 8.3125 7.24609 7.80664C7.24609 7.28711 7.66992 6.87695 8.17578 6.87695L18.7305 6.87695C19.2363 6.87695 19.6602 7.28711 19.6602 7.80664C19.6602 8.3125 19.2363 8.73633 18.7305 8.73633ZM8.17578 12.6191C7.66992 12.6191 7.24609 12.1953 7.24609 11.6758C7.24609 11.1699 7.66992 10.7598 8.17578 10.7598L16.1875 10.7598C16.707 10.7598 17.1172 11.1699 17.1172 11.6758C17.1172 12.1953 16.707 12.6191 16.1875 12.6191ZM4.19727 29.2988L21.9023 29.2988C22.5039 29.2988 22.9961 28.8203 22.9961 28.2051C22.9961 27.7266 22.668 27.3027 22.2305 27.1523C20.5078 26.4688 20.1523 24.2402 21.8477 22.5312C22.3672 22.0117 22.9961 21.3418 22.9961 19.9746L22.9961 4.29297C22.9961 1.44922 21.5879 0 18.7578 0L4.23828 0C1.4082 0 0 1.43555 0 4.29297L0 25.0742C0 27.8906 1.42188 29.2988 4.19727 29.2988ZM4.32031 27.0977C2.93945 27.0977 2.20117 26.3594 2.20117 25.0605C2.20117 23.8301 3.07617 23.0371 4.44336 23.0371L18.4707 23.0371C18.6484 23.0371 18.8125 23.0234 18.9492 22.9961C18.3066 24.418 18.416 25.9219 19.1406 27.0977ZM3.91016 20.959C3.48633 20.959 3.13086 20.6035 3.13086 20.166L3.13086 2.89844C3.13086 2.46094 3.48633 2.11914 3.91016 2.11914C4.33398 2.11914 4.70312 2.46094 4.70312 2.89844L4.70312 20.166C4.70312 20.6035 4.33398 20.959 3.91016 20.959Z" style="fill:var(--color-0,hsl(0 0 0/0.85))"></path>
 </g>
</svg>