<svg version="1.1" xmlns="http://www.w3.org/2000/svg" xmlns:xlink="http://www.w3.org/1999/xlink" viewBox="0 0 26.0586 20.2754">
 <g>
  
  <path d="M13.207 19.9336L24.5684 19.9336C25.252 19.9336 25.7031 19.4961 25.7031 18.8398C25.7031 18.1836 25.252 17.7324 24.5684 17.7324L15.4629 17.7324L15.4629 17.6641L20.8086 12.4277C24.0352 9.26953 25.0195 7.62891 25.0195 5.53711C25.0195 2.39258 22.2441 0 18.5391 0C15.627 0 13.1387 1.58594 12.3047 3.99219C12.1406 4.44336 12.0723 4.83984 12.0723 5.18164C12.0723 5.86523 12.4824 6.31641 13.1523 6.31641C13.7949 6.31641 14.0684 6.01562 14.2734 5.33203C14.3828 4.9082 14.5332 4.51172 14.752 4.16992C15.4766 2.93945 16.8301 2.17383 18.5391 2.17383C20.7402 2.17383 22.5176 3.73242 22.5176 5.67383C22.5176 7.24609 21.8613 8.29883 19.168 10.9785L12.7695 17.377C12.1953 17.9375 12.0039 18.293 12.0039 18.7852C12.0039 19.4961 12.4824 19.9336 13.207 19.9336Z" style="fill:var(--color-0,hsl(0 0 0/0.85))"></path>
  <path d="M6.97266 20.207C7.72461 20.207 8.2168 19.7148 8.2168 18.9629L8.2168 1.49023C8.2168 0.601562 7.65625 0.109375 6.80859 0.109375C6.17969 0.109375 5.83789 0.300781 5.26367 0.669922L0.710938 3.62305C0.177734 3.97852 0 4.29297 0 4.74414C0 5.30469 0.410156 5.71484 1.01172 5.71484C1.38086 5.71484 1.55859 5.60547 1.80469 5.44141L5.70117 2.99414L5.75586 2.99414L5.75586 18.9629C5.75586 19.7148 6.2207 20.207 6.97266 20.207Z" style="fill:var(--color-1,hsl(0 0 0/0.85))"></path>
 </g>
</svg>