<?xml version="1.0" encoding="UTF-8"?>
<!--Generator: Apple Native CoreSVG 326-->
<!DOCTYPE svg
PUBLIC "-//W3C//DTD SVG 1.1//EN"
       "http://www.w3.org/Graphics/SVG/1.1/DTD/svg11.dtd">
<svg version="1.1" xmlns="http://www.w3.org/2000/svg" xmlns:xlink="http://www.w3.org/1999/xlink" viewBox="0 0 23.3516 29.3262">
 <g>
  <rect height="29.3262" opacity="0" width="23.3516" x="0" y="0"/>
  <path d="M6.08398 6.79492C5.56445 6.79492 5.19531 6.41211 5.19531 5.91992C5.19531 5.42773 5.56445 5.04492 6.08398 5.04492L17.4453 5.04492C17.9512 5.04492 18.3203 5.42773 18.3203 5.91992C18.3203 6.41211 17.9512 6.79492 17.4453 6.79492ZM6.08398 10.8828C5.56445 10.8828 5.19531 10.5 5.19531 10.0078C5.19531 9.5293 5.56445 9.14648 6.08398 9.14648L12.7422 9.14648C13.248 9.14648 13.6309 9.5293 13.6309 10.0078C13.6309 10.5 13.248 10.8828 12.7422 10.8828ZM6.30273 24.8281C5.09961 24.8281 4.41602 24.1855 4.41602 22.9414L4.41602 15.1211C4.41602 13.877 5.09961 13.2344 6.30273 13.2344L16.707 13.2344C17.9512 13.2344 18.5801 13.877 18.5801 15.1211L18.5801 22.9414C18.5801 24.1855 17.9512 24.8281 16.707 24.8281ZM0 25.0332C0 27.8906 1.4082 29.3125 4.23828 29.3125L18.7578 29.3125C21.5879 29.3125 22.9961 27.8906 22.9961 25.0332L22.9961 4.29297C22.9961 1.44922 21.5879 0 18.7578 0L4.23828 0C1.4082 0 0 1.44922 0 4.29297Z" fill="white" fill-opacity="0.85"/>
 </g>
</svg>
