<svg version="1.1" xmlns="http://www.w3.org/2000/svg" xmlns:xlink="http://www.w3.org/1999/xlink" viewBox="0 0 27.9043 23.6934">
 <g>
  
  <path d="M17.2129 2.20117L26.4277 2.20117C27.043 2.20117 27.5488 1.72266 27.5488 1.10742C27.5488 0.492188 27.043 0 26.4277 0L17.2129 0C16.5977 0 16.1191 0.492188 16.1191 1.10742C16.1191 1.72266 16.5977 2.20117 17.2129 2.20117ZM17.2129 9.36523L26.4277 9.36523C27.043 9.36523 27.5488 8.87305 27.5488 8.25781C27.5488 7.64258 27.043 7.16406 26.4277 7.16406L17.2129 7.16406C16.5977 7.16406 16.1191 7.64258 16.1191 8.25781C16.1191 8.87305 16.5977 9.36523 17.2129 9.36523ZM1.09375 16.5156L26.4277 16.5156C27.043 16.5156 27.5488 16.0371 27.5488 15.4219C27.5488 14.793 27.043 14.3145 26.4277 14.3145L1.09375 14.3145C0.478516 14.3145 0 14.793 0 15.4219C0 16.0371 0.478516 16.5156 1.09375 16.5156ZM1.09375 23.666L26.4277 23.666C27.043 23.666 27.5488 23.1875 27.5488 22.5723C27.5488 21.957 27.043 21.4648 26.4277 21.4648L1.09375 21.4648C0.478516 21.4648 0 21.957 0 22.5723C0 23.1875 0.478516 23.666 1.09375 23.666Z" style="fill:var(--color-0,hsl(0 0 0/0.85))"></path>
  <path d="M1.57227 10.3906C2.31055 10.3906 2.91211 9.78906 2.91211 9.03711L2.91211 6.67188C2.91211 6.27539 3.11719 6.07031 3.51367 6.07031L7.32812 6.07031L7.32812 7.95703C7.32812 8.88672 8.14844 9.31055 8.91406 8.72266L13.002 5.60547C13.5352 5.18164 13.5352 4.41602 13.002 3.99219L8.91406 0.875C8.14844 0.287109 7.32812 0.710938 7.32812 1.64062L7.32812 3.37695L3.32227 3.37695C1.33984 3.37695 0.21875 4.42969 0.21875 6.30273L0.21875 9.03711C0.21875 9.78906 0.820312 10.3906 1.57227 10.3906Z" style="fill:var(--color-1,hsl(0 0 0/0.85))"></path>
 </g>
</svg>