<svg version="1.1" xmlns="http://www.w3.org/2000/svg" xmlns:xlink="http://www.w3.org/1999/xlink" viewBox="0 0 32.5938 25.1973">
 <g>
  
  <path d="M25.8945 19.332C27.043 19.332 27.7949 18.5664 27.7949 17.418C27.7949 16.2969 27.043 15.5449 25.8945 15.5449L25.2109 15.5449L25.2109 14.0957L25.8945 14.0957C27.043 14.0957 27.7949 13.3574 27.7949 12.2363C27.7949 11.0879 27.043 10.3223 25.8945 10.3223C24.7598 10.3223 24.0215 11.0879 24.0215 12.2363L24.0215 12.9199L22.6133 12.9199L22.6133 12.2363C22.6133 11.0879 21.875 10.3223 20.7402 10.3223C19.5918 10.3223 18.8398 11.0879 18.8398 12.2363C18.8398 13.3574 19.5918 14.0957 20.7402 14.0957L21.4102 14.0957L21.4102 15.5449L20.7402 15.5449C19.5918 15.5449 18.8398 16.2969 18.8398 17.418C18.8398 18.5664 19.5918 19.332 20.7402 19.332C21.875 19.332 22.6133 18.5664 22.6133 17.418L22.6133 16.748L24.0215 16.748L24.0215 17.418C24.0215 18.5664 24.7598 19.332 25.8945 19.332ZM25.2109 16.7207L25.8945 16.7207C26.332 16.7207 26.6055 17.0078 26.6055 17.418C26.6055 17.8555 26.332 18.1426 25.8945 18.1426C25.4844 18.1426 25.2109 17.8555 25.2109 17.418ZM21.4102 16.7207L21.4102 17.418C21.4102 17.8281 21.123 18.1426 20.7402 18.1426C20.3027 18.1426 20.0293 17.8555 20.0293 17.418C20.0293 17.0078 20.3027 16.7207 20.7402 16.7207ZM24.0215 15.5723L22.6133 15.5723L22.6133 14.0957L24.0215 14.0957ZM25.2109 12.9199L25.2109 12.2363C25.2109 11.7988 25.4844 11.5117 25.8945 11.5117C26.332 11.5117 26.6055 11.7988 26.6055 12.2363C26.6055 12.6465 26.332 12.9199 25.8945 12.9199ZM21.4102 12.9199L20.7402 12.9199C20.3027 12.9199 20.0293 12.6465 20.0293 12.2363C20.0293 11.7988 20.3027 11.5117 20.7402 11.5117C21.1367 11.5117 21.4102 11.7988 21.4102 12.2363ZM5.31836 11.457C5.31836 11.9082 5.6875 12.2637 6.125 12.2637L14.4648 12.2637C14.9023 12.2637 15.2578 11.9082 15.2578 11.457C15.2578 11.0059 14.9023 10.6367 14.4648 10.6367L6.125 10.6367C5.6875 10.6367 5.31836 11.0059 5.31836 11.457ZM5.31836 14.834C5.31836 15.2852 5.6875 15.6543 6.125 15.6543L14.4648 15.6543C14.9023 15.6543 15.2578 15.2852 15.2578 14.834C15.2578 14.3828 14.9023 14.0273 14.4648 14.0273L6.125 14.0273C5.6875 14.0273 5.31836 14.3828 5.31836 14.834ZM5.31836 18.2246C5.31836 18.6758 5.6875 19.0312 6.125 19.0312L14.4648 19.0312C14.9023 19.0312 15.2578 18.6758 15.2578 18.2246C15.2578 17.7598 14.9023 17.4043 14.4648 17.4043L6.125 17.4043C5.6875 17.4043 5.31836 17.7598 5.31836 18.2246ZM0 20.959C0 23.7891 1.43555 25.1973 4.29297 25.1973L27.9453 25.1973C30.8164 25.1973 32.2383 23.7754 32.2383 20.959L32.2383 4.26562C32.2383 1.44922 30.8164 0.0273438 27.9453 0.0273438L4.29297 0.0273438C1.43555 0.0273438 0 1.43555 0 4.26562ZM4.33398 4.68945C3.66406 4.68945 3.11719 4.11523 3.11719 3.47266C3.11719 2.83008 3.66406 2.25586 4.33398 2.25586C5.00391 2.25586 5.56445 2.83008 5.56445 3.47266C5.56445 4.11523 5.00391 4.68945 4.33398 4.68945ZM8.25781 4.68945C7.58789 4.68945 7.04102 4.11523 7.04102 3.47266C7.04102 2.83008 7.58789 2.25586 8.25781 2.25586C8.92773 2.25586 9.48828 2.83008 9.48828 3.47266C9.48828 4.11523 8.92773 4.68945 8.25781 4.68945ZM12.1816 4.68945C11.5117 4.68945 10.9648 4.11523 10.9648 3.47266C10.9648 2.83008 11.5117 2.25586 12.1816 2.25586C12.8516 2.25586 13.3984 2.83008 13.3984 3.47266C13.3984 4.11523 12.8516 4.68945 12.1816 4.68945ZM2.20117 20.8496L2.20117 6.91797L30.0371 6.91797L30.0371 20.8496C30.0371 22.2715 29.2715 22.9961 27.918 22.9961L4.32031 22.9961C2.95312 22.9961 2.20117 22.2715 2.20117 20.8496Z" style="fill:var(--color-0,hsl(0 0 0/0.85))"></path>
 </g>
</svg>