<svg version="1.1" xmlns="http://www.w3.org/2000/svg" xmlns:xlink="http://www.w3.org/1999/xlink" viewBox="0 0 27.9043 23.6934">
 <g>
  
  <path d="M1.09375 2.20117L26.4277 2.20117C27.043 2.20117 27.5488 1.72266 27.5488 1.10742C27.5488 0.492188 27.043 0 26.4277 0L1.09375 0C0.478516 0 0 0.492188 0 1.10742C0 1.72266 0.478516 2.20117 1.09375 2.20117ZM1.09375 9.36523L26.4277 9.36523C27.043 9.36523 27.5488 8.87305 27.5488 8.25781C27.5488 7.64258 27.043 7.16406 26.4277 7.16406L1.09375 7.16406C0.478516 7.16406 0 7.64258 0 8.25781C0 8.87305 0.478516 9.36523 1.09375 9.36523ZM1.09375 16.5156L26.4277 16.5156C27.043 16.5156 27.5488 16.0371 27.5488 15.4219C27.5488 14.793 27.043 14.3145 26.4277 14.3145L1.09375 14.3145C0.478516 14.3145 0 14.793 0 15.4219C0 16.0371 0.478516 16.5156 1.09375 16.5156ZM11.9492 23.666L26.4277 23.666C27.043 23.666 27.5488 23.1875 27.5488 22.5723C27.5488 21.957 27.043 21.4648 26.4277 21.4648L11.9492 21.4648C11.334 21.4648 10.8555 21.957 10.8555 22.5723C10.8555 23.1875 11.334 23.666 11.9492 23.666Z" style="fill:var(--color-0,hsl(0 0 0/0.85))"></path>
 </g>
</svg>