<?xml version="1.0" encoding="UTF-8"?>
<!--Generator: Apple Native CoreSVG 326-->
<!DOCTYPE svg
PUBLIC "-//W3C//DTD SVG 1.1//EN"
       "http://www.w3.org/Graphics/SVG/1.1/DTD/svg11.dtd">
<svg version="1.1" xmlns="http://www.w3.org/2000/svg" xmlns:xlink="http://www.w3.org/1999/xlink" viewBox="0 0 45.8691 20.1934">
 <g>
  <rect height="20.1934" opacity="0" width="45.8691" x="0" y="0"/>
  <path d="M39.7441 20.1934C42.3555 20.1934 44.6113 18.7441 45.3906 16.707C45.4727 16.4746 45.5137 16.2422 45.5137 16.0508C45.5137 15.4629 45.0762 15.0527 44.502 15.0527C43.9961 15.0527 43.7227 15.2578 43.4082 15.8457C42.7246 17.3496 41.5488 18.1699 39.7578 18.1699C37.1875 18.1699 35.5059 16.1602 35.5059 12.8379C35.5059 9.54297 37.1875 7.47852 39.7578 7.47852C41.4668 7.47852 42.6836 8.27148 43.3809 9.83008C43.6816 10.3906 43.9688 10.5957 44.4609 10.5957C45.0488 10.5957 45.4727 10.1992 45.4727 9.61133C45.4727 9.44727 45.4316 9.24219 45.377 9.06445C44.6934 7 42.4102 5.45508 39.7031 5.45508C35.7383 5.45508 33.1406 8.38086 33.1406 12.8516C33.1406 17.3359 35.7656 20.1934 39.7441 20.1934Z" fill="white" fill-opacity="0.85"/>
  <path d="M19.5918 20.1797C20.248 20.1797 20.7402 19.7285 20.7402 19.0176L20.7402 17.1309L20.7676 17.1309C21.5332 19.0039 23.3105 20.1934 25.5254 20.1934C29.1621 20.1934 31.5684 17.2812 31.5684 12.8242C31.5684 8.36719 29.1484 5.45508 25.5527 5.45508C23.3926 5.45508 21.6152 6.64453 20.8223 8.50391L20.7949 8.50391L20.7949 1.73633C20.7949 0.998047 20.3301 0.505859 19.6328 0.505859C18.9629 0.505859 18.4844 0.998047 18.4844 1.73633L18.4844 19.0176C18.4844 19.7422 18.9355 20.1797 19.5918 20.1797ZM25.0332 18.1699C22.5586 18.1699 20.7949 16.0781 20.7949 12.8379C20.7949 9.59766 22.5586 7.49219 25.0332 7.49219C27.5898 7.49219 29.1895 9.5293 29.1895 12.8242C29.1895 16.1328 27.5898 18.1699 25.0332 18.1699Z" fill="white" fill-opacity="0.85"/>
  <path d="M1.10742 20.1797C1.62695 20.1797 2.13281 19.8789 2.37891 19.1543L4.15625 14.2871L12.3047 14.2871L14.082 19.1543C14.3418 19.8926 14.8203 20.1797 15.3262 20.1797C15.9277 20.1797 16.4883 19.7422 16.4883 19.0859C16.4883 18.8535 16.4473 18.6484 16.3379 18.3613L9.92578 1.28516C9.625 0.478516 9.0918 0.0683594 8.23047 0.0683594C7.39648 0.0683594 6.86328 0.464844 6.5625 1.27148L0.150391 18.375C0.0410156 18.6621 0 18.8672 0 19.0996C0 19.7695 0.533203 20.1797 1.10742 20.1797ZM4.78516 12.3184L8.14844 3.00781L8.29883 3.00781L11.6621 12.3184Z" fill="white" fill-opacity="0.85"/>
 </g>
</svg>
