<?xml version="1.0" encoding="UTF-8"?>
<!--Generator: Apple Native CoreSVG 326-->
<!DOCTYPE svg
PUBLIC "-//W3C//DTD SVG 1.1//EN"
       "http://www.w3.org/Graphics/SVG/1.1/DTD/svg11.dtd">
<svg version="1.1" xmlns="http://www.w3.org/2000/svg" xmlns:xlink="http://www.w3.org/1999/xlink" viewBox="0 0 27.0703 26.9746">
 <g>
  <rect height="26.9746" opacity="0" width="27.0703" x="0" y="0"/>
  <path d="M0 10.9102C0 16.9258 4.89453 21.8203 10.9102 21.8203C13.2891 21.8203 15.4629 21.0547 17.2539 19.7695L23.9805 26.5098C24.2949 26.8242 24.7051 26.9746 25.1426 26.9746C26.0723 26.9746 26.7148 26.2773 26.7148 25.3613C26.7148 24.9238 26.5508 24.5273 26.2637 24.2402L19.5781 17.5137C20.9863 15.6816 21.8203 13.3984 21.8203 10.9102C21.8203 4.89453 16.9258 0 10.9102 0C4.89453 0 0 4.89453 0 10.9102ZM2.33789 10.9102C2.33789 6.17969 6.17969 2.33789 10.9102 2.33789C15.6406 2.33789 19.4824 6.17969 19.4824 10.9102C19.4824 15.6406 15.6406 19.4824 10.9102 19.4824C6.17969 19.4824 2.33789 15.6406 2.33789 10.9102ZM6.60352 10.0352L15.2715 10.0352C15.8047 10.0352 16.2148 9.61133 16.2148 9.07812C16.2148 8.54492 15.8047 8.12109 15.2715 8.12109L6.60352 8.12109C6.05664 8.12109 5.64648 8.54492 5.64648 9.07812C5.64648 9.61133 6.05664 10.0352 6.60352 10.0352ZM6.60352 13.6855L12.8926 13.6855C13.4258 13.6855 13.8633 13.2754 13.8633 12.7422C13.8633 12.209 13.4258 11.7715 12.8926 11.7715L6.60352 11.7715C6.05664 11.7715 5.64648 12.209 5.64648 12.7422C5.64648 13.2754 6.05664 13.6855 6.60352 13.6855Z" fill="white" fill-opacity="0.85"/>
 </g>
</svg>
