<svg version="1.1" xmlns="http://www.w3.org/2000/svg" xmlns:xlink="http://www.w3.org/1999/xlink" viewBox="0 0 31.5 20.2207">
 <g>
  
  <path d="M15.6953 20.1934C16.4062 20.1934 16.7754 19.9199 17.0352 19.1543L18.7988 14.3281L26.8652 14.3281L28.6289 19.1543C28.8887 19.9199 29.2441 20.1934 29.9551 20.1934C30.6797 20.1934 31.1445 19.7559 31.1445 19.0723C31.1445 18.8398 31.1035 18.6211 30.9941 18.334L24.582 1.25781C24.2676 0.423828 23.707 0 22.832 0C21.9844 0 21.4102 0.410156 21.1094 1.24414L14.6973 18.3477C14.5879 18.6348 14.5469 18.8535 14.5469 19.0859C14.5469 19.7695 14.9844 20.1934 15.6953 20.1934ZM19.4688 12.25L22.791 3.04883L22.8594 3.04883L26.1816 12.25Z" style="fill:var(--color-0,hsl(0 0 0/0.85))"></path>
  <path d="M1.13477 20.1934C1.69531 20.1934 2.06445 19.9062 2.2832 19.2363L3.41797 15.8867L8.76367 15.8867L9.89844 19.2363C10.1172 19.9336 10.4863 20.1934 11.0605 20.1934C11.7441 20.1934 12.209 19.7695 12.209 19.1543C12.209 18.8809 12.1406 18.6211 12.0312 18.334L7.7793 7.04102C7.46484 6.20703 6.89062 5.76953 6.08398 5.76953C5.29102 5.76953 4.7168 6.17969 4.40234 7.04102L0.150391 18.334C0.0410156 18.5938 0 18.8672 0 19.1543C0 19.7832 0.4375 20.1934 1.13477 20.1934ZM4.01953 14.1094L5.93359 8.4082L6.24805 8.4082L8.16211 14.1094Z" style="fill:var(--color-1,hsl(0 0 0/0.85))"></path>
 </g>
</svg>