<svg version="1.1" xmlns="http://www.w3.org/2000/svg" xmlns:xlink="http://www.w3.org/1999/xlink" viewBox="0 0 46.8809 32.9214">
 <g>
  
  <path d="M0.369141 29.907L4.0332 32.6414C4.77148 33.1882 5.70117 32.9011 5.70117 31.9167L5.70117 29.989L40.8242 29.989L40.8242 31.9167C40.8242 32.8738 41.7266 33.2156 42.4922 32.6414L46.1426 29.907C46.6484 29.5242 46.6348 28.8132 46.1426 28.4578L42.4922 25.7371C41.7266 25.1628 40.8242 25.5046 40.8242 26.448L40.8242 28.4031L5.70117 28.4031L5.70117 26.448C5.70117 25.5046 4.8125 25.1628 4.0332 25.7371L0.369141 28.4578C-0.123047 28.8269-0.123047 29.5242 0.369141 29.907Z" style="fill:var(--color-0,hsl(0 0 0/0.85))"></path>
  <path d="M1.42188 22.3054C1.92773 22.3054 2.43359 22.0046 2.67969 21.2937L4.45703 16.4128L12.6055 16.4128L14.3828 21.2937C14.6426 22.0183 15.1348 22.3054 15.6406 22.3054C16.2285 22.3054 16.7891 21.8679 16.7891 21.2117C16.7891 20.9792 16.748 20.7878 16.6387 20.4871L10.2266 3.42456C9.92578 2.60425 9.39258 2.20776 8.53125 2.20776C7.69727 2.20776 7.16406 2.60425 6.86328 3.41089L0.451172 20.5007C0.341797 20.8015 0.300781 20.9929 0.300781 21.2253C0.300781 21.8953 0.833984 22.3054 1.42188 22.3054ZM5.08594 14.4578L8.44922 5.14722L8.59961 5.14722L11.9629 14.4578ZM19.9062 22.3054C20.5488 22.3054 21.041 21.8542 21.041 21.1433L21.041 19.2566L21.0684 19.2566C21.834 21.1296 23.6113 22.3191 25.8262 22.3191C29.4629 22.3191 31.8691 19.4207 31.8691 14.9636C31.8691 10.4929 29.4492 7.59448 25.8535 7.59448C23.6934 7.59448 21.916 8.77026 21.123 10.6433L21.0957 10.6433L21.0957 3.87573C21.0957 3.12378 20.6309 2.64526 19.9336 2.64526C19.2637 2.64526 18.7852 3.12378 18.7852 3.87573L18.7852 21.1433C18.7852 21.8679 19.2363 22.3054 19.9062 22.3054ZM25.334 20.3093C22.8594 20.3093 21.0957 18.2039 21.0957 14.9636C21.0957 11.7234 22.8594 9.61792 25.334 9.61792C27.8906 9.61792 29.4902 11.6687 29.4902 14.9636C29.4902 18.2722 27.8906 20.3093 25.334 20.3093ZM40.0449 22.3191C42.6562 22.3191 44.9121 20.8699 45.6914 18.8328C45.7871 18.6003 45.8145 18.3679 45.8145 18.1765C45.8145 17.5886 45.377 17.1785 44.8027 17.1785C44.2969 17.1785 44.0234 17.3835 43.709 17.9714C43.0254 19.4753 41.8496 20.3093 40.0586 20.3093C37.4883 20.3093 35.8066 18.2859 35.8066 14.9636C35.8066 11.6687 37.4883 9.60425 40.0586 9.60425C41.7676 9.60425 42.9844 10.3972 43.6816 11.9695C43.9824 12.53 44.2695 12.7214 44.7617 12.7214C45.3496 12.7214 45.7734 12.325 45.7734 11.7507C45.7734 11.573 45.7324 11.3679 45.6777 11.1902C44.9941 9.12573 42.7109 7.59448 40.0039 7.59448C36.0391 7.59448 33.4414 10.5203 33.4414 14.9773C33.4414 19.4617 36.0664 22.3191 40.0449 22.3191Z" style="fill:var(--color-1,hsl(0 0 0/0.85))"></path>
 </g>
</svg>