<?xml version="1.0" encoding="UTF-8"?>
<!--Generator: Apple Native CoreSVG 326-->
<!DOCTYPE svg
PUBLIC "-//W3C//DTD SVG 1.1//EN"
       "http://www.w3.org/Graphics/SVG/1.1/DTD/svg11.dtd">
<svg version="1.1" xmlns="http://www.w3.org/2000/svg" xmlns:xlink="http://www.w3.org/1999/xlink" viewBox="0 0 23.3516 29.3262">
 <g>
  <rect height="29.3262" opacity="0" width="23.3516" x="0" y="0"/>
  <path d="M6.24805 7.02734L17.2676 7.02734C17.7598 7.02734 18.1152 6.6582 18.1152 6.17969C18.1152 5.71484 17.7598 5.3457 17.2676 5.3457L6.24805 5.3457C5.74219 5.3457 5.38672 5.71484 5.38672 6.17969C5.38672 6.6582 5.74219 7.02734 6.24805 7.02734ZM6.24805 10.9922L12.7148 10.9922C13.1934 10.9922 13.5625 10.623 13.5625 10.1445C13.5625 9.67969 13.1934 9.31055 12.7148 9.31055L6.24805 9.31055C5.74219 9.31055 5.38672 9.67969 5.38672 10.1445C5.38672 10.623 5.74219 10.9922 6.24805 10.9922ZM6.45312 24.5273L16.5566 24.5273C17.7598 24.5273 18.375 23.9121 18.375 22.709L18.375 15.1074C18.375 13.9043 17.7598 13.2754 16.5566 13.2754L6.45312 13.2754C5.29102 13.2754 4.62109 13.9043 4.62109 15.1074L4.62109 22.709C4.62109 23.9121 5.29102 24.5273 6.45312 24.5273ZM0 25.0332C0 27.8906 1.4082 29.3125 4.23828 29.3125L18.7578 29.3125C21.5879 29.3125 22.9961 27.8906 22.9961 25.0332L22.9961 4.29297C22.9961 1.44922 21.5879 0 18.7578 0L4.23828 0C1.4082 0 0 1.44922 0 4.29297ZM2.20117 24.9922L2.20117 4.33398C2.20117 2.9668 2.92578 2.20117 4.34766 2.20117L18.6484 2.20117C20.0703 2.20117 20.7949 2.9668 20.7949 4.33398L20.7949 24.9922C20.7949 26.3594 20.0703 27.1113 18.6484 27.1113L4.34766 27.1113C2.92578 27.1113 2.20117 26.3594 2.20117 24.9922Z" fill="white" fill-opacity="0.85"/>
 </g>
</svg>
