<?xml version="1.0" encoding="UTF-8"?>
<!--Generator: Apple Native CoreSVG 326-->
<!DOCTYPE svg
PUBLIC "-//W3C//DTD SVG 1.1//EN"
       "http://www.w3.org/Graphics/SVG/1.1/DTD/svg11.dtd">
<svg version="1.1" xmlns="http://www.w3.org/2000/svg" xmlns:xlink="http://www.w3.org/1999/xlink" viewBox="0 0 27.9043 23.6934">
 <g>
  <rect height="23.6934" opacity="0" width="27.9043" x="0" y="0"/>
  <path d="M17.2129 21.4648C16.5977 21.4648 16.1191 21.957 16.1191 22.5723C16.1191 23.1875 16.5977 23.666 17.2129 23.666L26.4277 23.666C27.043 23.666 27.5488 23.1875 27.5488 22.5723C27.5488 21.957 27.043 21.4648 26.4277 21.4648ZM17.2129 14.3145C16.5977 14.3145 16.1191 14.793 16.1191 15.4219C16.1191 16.0371 16.5977 16.5156 17.2129 16.5156L26.4277 16.5156C27.043 16.5156 27.5488 16.0371 27.5488 15.4219C27.5488 14.793 27.043 14.3145 26.4277 14.3145ZM1.09375 7.16406C0.478516 7.16406 0 7.64258 0 8.25781C0 8.87305 0.478516 9.36523 1.09375 9.36523L26.4277 9.36523C27.043 9.36523 27.5488 8.87305 27.5488 8.25781C27.5488 7.64258 27.043 7.16406 26.4277 7.16406ZM1.09375 0C0.478516 0 0 0.492188 0 1.10742C0 1.72266 0.478516 2.20117 1.09375 2.20117L26.4277 2.20117C27.043 2.20117 27.5488 1.72266 27.5488 1.10742C27.5488 0.492188 27.043 0 26.4277 0Z" fill="white" fill-opacity="0.85"/>
  <path d="M1.57227 13.2891C0.820312 13.2891 0.21875 13.8906 0.21875 14.6289L0.21875 17.377C0.21875 19.25 1.33984 20.2891 3.32227 20.2891L7.32812 20.2891L7.32812 22.0391C7.32812 22.9551 8.14844 23.3926 8.91406 22.8047L13.002 19.6738C13.5352 19.2637 13.5352 18.4844 13.002 18.0742L8.91406 14.9434C8.14844 14.3691 7.32812 14.793 7.32812 15.709L7.32812 17.6094L3.51367 17.6094C3.11719 17.6094 2.91211 17.3906 2.91211 17.0078L2.91211 14.6289C2.91211 13.8906 2.31055 13.2891 1.57227 13.2891Z" fill="white" fill-opacity="0.85"/>
 </g>
</svg>
