<svg version="1.1" xmlns="http://www.w3.org/2000/svg" xmlns:xlink="http://www.w3.org/1999/xlink" viewBox="0 0 28.2461 27.9043">
 <g>
  
  <path d="M13.9453 27.8906C21.6426 27.8906 27.8906 21.6426 27.8906 13.9453C27.8906 6.24805 21.6426 0 13.9453 0C6.24805 0 0 6.24805 0 13.9453C0 21.6426 6.24805 27.8906 13.9453 27.8906ZM13.9453 25.5664C7.51953 25.5664 2.32422 20.3711 2.32422 13.9453C2.32422 7.51953 7.51953 2.32422 13.9453 2.32422C20.3711 2.32422 25.5664 7.51953 25.5664 13.9453C25.5664 20.3711 20.3711 25.5664 13.9453 25.5664Z" style="fill:var(--color-0,hsl(0 0 0/0.85))"></path>
  <path d="M12.25 18.8945C15.1348 18.1016 16.3926 15.873 15.5723 12.8516L14.4648 8.75C14.1641 7.64258 13.4395 7.24609 12.332 7.5332L6.50781 9.07812C5.38672 9.37891 4.97656 10.0898 5.27734 11.2109L6.37109 15.3262C7.16406 18.334 9.36523 19.6465 12.25 18.8945ZM11.6895 16.7891C10.4727 17.1035 9.2832 16.6797 8.64062 15.6953C8.51758 15.5039 8.64062 15.3398 8.87305 15.3398C9.66602 15.4082 10.5684 15.2715 11.2383 15.1074C11.8945 14.9297 12.7559 14.5879 13.4121 14.1367C13.6035 14 13.8086 14.0957 13.7812 14.3281C13.7402 15.5039 12.9336 16.4609 11.6895 16.7891ZM8.73633 12.9473C8.29883 13.0703 8.24414 13.3438 8.05273 13.3848C7.95703 13.3984 7.86133 13.3027 7.80664 13.1523C7.65625 12.6328 7.98438 12.0996 8.49023 11.9902C8.99609 11.8535 9.50195 12.1543 9.65234 12.6328C9.70703 12.8105 9.66602 12.9473 9.55664 12.9883C9.33789 13.043 9.13281 12.8242 8.73633 12.9473ZM12.3047 11.9902C11.8809 12.0859 11.8125 12.3867 11.6348 12.4004C11.5527 12.4414 11.4434 12.3184 11.375 12.168C11.252 11.6758 11.5664 11.1289 12.0586 11.0059C12.5918 10.8828 13.0977 11.1562 13.2207 11.6758C13.2891 11.8535 13.2207 11.9902 13.1387 12.0176C12.9336 12.0859 12.7148 11.8535 12.3047 11.9902ZM21.7246 10.6094L15.9004 9.03711C15.791 9.00977 15.668 8.99609 15.5723 8.98242L16.5566 12.5781C16.8984 13.8359 16.9121 15.0254 16.6387 16.0508C16.7891 16.0781 16.9395 16.0918 17.0898 16.1328C18.1289 16.3926 18.8262 17.1855 18.8672 18.1152C18.8672 18.3477 18.6484 18.4707 18.4707 18.293C17.8965 17.7598 17.3906 17.5 16.7617 17.3223C16.5703 17.2676 16.3516 17.2129 16.1602 17.1992C15.6816 18.1016 14.916 18.8398 13.8906 19.3594C14.4375 19.8105 15.1348 20.1797 15.9824 20.3984C18.8535 21.1641 21.0547 19.8379 21.8477 16.8301L22.9551 12.7285C23.2559 11.6211 22.8457 10.8965 21.7246 10.6094ZM19.25 15.0664C18.8535 14.9844 18.6074 14.5469 18.7305 14.1367C18.8125 13.7402 19.2363 13.5078 19.6465 13.6172C20.043 13.7129 20.2891 14.1367 20.1797 14.5332C20.0566 14.9297 19.6465 15.1758 19.25 15.0664Z" style="fill:var(--color-1,hsl(0 0 0/0.85))"></path>
 </g>
</svg>