<?xml version="1.0" encoding="UTF-8"?>
<!--Generator: Apple Native CoreSVG 326-->
<!DOCTYPE svg
PUBLIC "-//W3C//DTD SVG 1.1//EN"
       "http://www.w3.org/Graphics/SVG/1.1/DTD/svg11.dtd">
<svg version="1.1" xmlns="http://www.w3.org/2000/svg" xmlns:xlink="http://www.w3.org/1999/xlink" viewBox="0 0 46.5254 31.5512">
 <g>
  <rect height="31.5512" opacity="0" width="46.5254" x="0" y="0"/>
  <path d="M29.5039 3.69651L43.0254 7.36057C45.6504 8.07151 46.6348 9.72581 45.9648 12.3098L43.3945 21.8801C41.4805 28.9348 36.4082 32.0246 29.6406 30.2199C25.6762 29.1504 23.0455 26.8937 21.9475 23.7823C22.6997 23.0739 23.3015 22.2623 23.7484 21.3585C24.2223 24.6462 26.4713 27.0331 30.2422 28.0598C35.6015 29.4817 39.6758 26.9797 41.207 21.3196L43.7363 11.8586C44.0781 10.6281 43.6269 9.82151 42.4238 9.49338L28.9433 5.89768C27.7265 5.58323 26.9609 6.0344 26.6465 7.2512L24.662 14.645C24.5809 13.9897 24.4407 13.3092 24.2539 12.6106L23.5562 10.0126L24.4863 6.5676C25.2109 3.95627 26.8652 2.99924 29.5039 3.69651ZM32.3476 19.9114C34.9726 20.5949 36.7637 22.591 36.8457 24.9973C36.8867 25.7219 36.1894 26.05 35.6562 25.5442C34.2207 24.259 33.0039 23.5754 31.4863 23.1789C29.9824 22.7551 28.5058 22.7551 26.6875 23.1516C25.9629 23.3156 25.5117 22.6594 25.9082 22.0715C27.1933 20.0481 29.7226 19.2004 32.3476 19.9114ZM38.2265 14.2375C39.2519 14.511 39.8535 15.55 39.5801 16.5754C39.3066 17.6008 38.2676 18.2024 37.2422 17.9426C36.2168 17.6555 35.6152 16.6028 35.9023 15.5774C36.1758 14.5656 37.2148 13.9504 38.2265 14.2375ZM30.2012 12.091C31.2265 12.3781 31.8281 13.4309 31.5683 14.4563C31.2812 15.4817 30.2285 16.0832 29.2168 15.7961C28.1914 15.5227 27.5898 14.4836 27.8496 13.4582C28.1367 12.4328 29.1894 11.8176 30.2012 12.091Z" fill="white" fill-opacity="0.85"/>
  <path d="M16.5156 26.7063C23.2695 24.8742 26.1406 19.6653 24.2539 12.6106L21.6836 3.04026C20.9863 0.456275 19.291-0.473413 16.666 0.223853L3.11717 3.81956C0.492172 4.51682-0.478531 6.17112 0.218735 8.79612L2.7617 18.3664C4.63475 25.3938 9.7617 28.4973 16.5156 26.7063ZM15.9414 24.5324C10.5547 25.9406 6.48045 23.4387 4.96288 17.7785L2.43358 8.30393C2.10545 7.08713 2.54295 6.30784 3.73241 5.97971L17.2129 2.37034C18.4297 2.04221 19.209 2.50706 19.5371 3.73752L22.0664 13.2121C23.5703 18.886 21.3144 23.0969 15.9414 24.5324ZM8.51756 13.0207C9.48827 12.761 9.96678 13.2121 10.3769 13.1164C10.6777 13.0481 10.8008 12.6653 10.664 12.1731C10.3769 10.9563 9.06444 10.218 7.87498 10.5735C6.63084 10.8742 5.87889 12.1594 6.22069 13.3489C6.37108 13.8547 6.67186 14.1145 6.95897 14.0461C7.36913 13.9231 7.53319 13.2805 8.51756 13.0207ZM16.6113 10.8196C17.5957 10.5598 18.0605 11.0246 18.4707 10.9289C18.7715 10.8469 18.9082 10.4641 18.7578 9.9719C18.4707 8.7551 17.1719 8.03049 15.9687 8.38596C14.7246 8.68674 13.9726 9.95823 14.3144 11.1477C14.4648 11.6535 14.7656 11.927 15.0527 11.8449C15.4765 11.7219 15.6406 11.0793 16.6113 10.8196ZM15.1894 21.7297C18.0879 20.9367 19.9336 18.7492 20.0293 16.0422C20.043 15.3449 19.4414 15.0852 18.8672 15.5364C17.0078 16.8489 15.0254 17.3684 14.0957 17.6281C13.166 17.8742 11.1973 18.4211 8.90038 18.2024C8.18944 18.1067 7.77928 18.6399 8.16209 19.2004C9.61131 21.5246 12.3047 22.4817 15.1894 21.7297Z" fill="white" fill-opacity="0.85"/>
 </g>
</svg>
