<?xml version="1.0" encoding="UTF-8"?>
<!--Generator: Apple Native CoreSVG 326-->
<!DOCTYPE svg
PUBLIC "-//W3C//DTD SVG 1.1//EN"
       "http://www.w3.org/Graphics/SVG/1.1/DTD/svg11.dtd">
<svg version="1.1" xmlns="http://www.w3.org/2000/svg" xmlns:xlink="http://www.w3.org/1999/xlink" viewBox="0 0 28.2461 27.9043">
 <g>
  <rect height="27.9043" opacity="0" width="28.2461" x="0" y="0"/>
  <path d="M13.9453 27.9043C21.6426 27.9043 27.8906 21.6562 27.8906 13.959C27.8906 6.27539 21.6426 0.0136719 13.9453 0.0136719C6.26172 0.0136719 0 6.27539 0 13.959C0 21.6562 6.26172 27.9043 13.9453 27.9043Z" fill="white" fill-opacity="0.85"/>
  <path d="M12.1953 19.0586C9.21484 19.8516 6.95898 18.4844 6.125 15.3809L5.01758 11.1426C4.70312 9.98047 5.11328 9.24219 6.27539 8.94141L12.2773 7.3418C13.4121 7.05469 14.1641 7.46484 14.4785 8.59961L15.6133 12.8242C16.4609 15.9414 15.1621 18.252 12.1953 19.0586ZM11.6211 16.8848C12.8926 16.5566 13.7266 15.5723 13.7676 14.3691C13.7949 14.123 13.6035 14.0137 13.3848 14.1504C12.7148 14.6152 11.8398 14.9707 11.1562 15.1484C10.4727 15.3398 9.5293 15.4766 8.70898 15.4082C8.47656 15.3945 8.35352 15.5586 8.49023 15.7773C9.13281 16.7891 10.3633 17.2266 11.6211 16.8848ZM8.57227 12.9336C8.98242 12.7969 9.20117 13.043 9.43359 12.9746C9.5293 12.9336 9.57031 12.7832 9.5293 12.6055C9.35156 12.1133 8.8457 11.7988 8.3125 11.9355C7.79297 12.0586 7.45117 12.6055 7.62891 13.1387C7.68359 13.2891 7.7793 13.4121 7.86133 13.3848C8.08008 13.3574 8.12109 13.0566 8.57227 12.9336ZM12.2637 11.9355C12.6738 11.7988 12.8926 12.0449 13.125 11.9902C13.1934 11.9355 13.2754 11.7988 13.207 11.6348C13.084 11.0879 12.5371 10.8145 12.0039 10.9238C11.4844 11.0469 11.1562 11.6348 11.293 12.127C11.3613 12.2773 11.4707 12.4004 11.5527 12.373C11.7578 12.3457 11.8262 12.0449 12.2637 11.9355ZM21.9707 10.5273C23.1191 10.8145 23.543 11.5664 23.2285 12.7012L22.1074 16.9258C21.2734 20.0293 19.0176 21.3965 16.0371 20.6172C15.1895 20.3848 14.4512 20.0156 13.9043 19.5371C14.9434 19.0039 15.7363 18.2383 16.2285 17.3086C16.4336 17.3359 16.6523 17.377 16.8574 17.4453C17.5 17.623 18.0332 17.8965 18.6211 18.4297C18.7852 18.6211 19.0176 18.5117 19.0176 18.252C18.9766 17.2949 18.252 16.4746 17.1855 16.2148C17.0488 16.1738 16.8711 16.1602 16.7344 16.1328C17.0215 15.0664 17.0078 13.8496 16.6387 12.5508L15.6406 8.83203C15.7363 8.8457 15.8594 8.85938 15.9688 8.91406ZM19.4141 15.1074C19.8242 15.2305 20.248 14.9707 20.3711 14.5605C20.4805 14.1504 20.248 13.7266 19.8242 13.6172C19.4004 13.5078 18.9766 13.7402 18.8809 14.1504C18.7578 14.5742 19.0039 15.0254 19.4141 15.1074Z" fill="white"/>
 </g>
</svg>
