<?xml version="1.0" encoding="UTF-8"?>
<!--Generator: Apple Native CoreSVG 326-->
<!DOCTYPE svg
PUBLIC "-//W3C//DTD SVG 1.1//EN"
       "http://www.w3.org/Graphics/SVG/1.1/DTD/svg11.dtd">
<svg version="1.1" xmlns="http://www.w3.org/2000/svg" xmlns:xlink="http://www.w3.org/1999/xlink" viewBox="0 0 28.2461 27.9043">
 <g>
  <rect height="27.9043" opacity="0" width="28.2461" x="0" y="0"/>
  <path d="M13.9453 27.8906C21.6426 27.8906 27.8906 21.6426 27.8906 13.9453C27.8906 6.24805 21.6426 0 13.9453 0C6.24805 0 0 6.24805 0 13.9453C0 21.6426 6.24805 27.8906 13.9453 27.8906ZM13.9453 25.5664C7.51953 25.5664 2.32422 20.3711 2.32422 13.9453C2.32422 7.51953 7.51953 2.32422 13.9453 2.32422C20.3711 2.32422 25.5664 7.51953 25.5664 13.9453C25.5664 20.3711 20.3711 25.5664 13.9453 25.5664Z" fill="white" fill-opacity="0.85"/>
  <path d="M10.377 22.1484C12.4824 22.1484 14.1777 20.4531 14.1777 18.3613C14.1777 17.2539 13.7129 16.2695 12.8379 15.4902C12.7012 15.3672 12.6738 15.2852 12.6738 15.0801L12.6875 8.39453C12.6875 6.9043 11.7441 5.87891 10.377 5.87891C8.99609 5.87891 8.06641 6.9043 8.06641 8.39453L8.06641 15.0801C8.06641 15.2852 8.03906 15.3672 7.88867 15.4902C7.01367 16.2695 6.5625 17.2539 6.5625 18.3613C6.5625 20.4531 8.25781 22.1484 10.377 22.1484ZM10.377 21.041C8.87305 21.041 7.69727 19.8516 7.69727 18.3613C7.69727 17.459 8.10742 16.6523 8.85938 16.1465C9.10547 15.9961 9.1875 15.8457 9.1875 15.5312L9.1875 8.43555C9.1875 7.57422 9.65234 7.02734 10.377 7.02734C11.0742 7.02734 11.5391 7.57422 11.5391 8.43555L11.5391 15.5312C11.5391 15.8457 11.6211 15.9961 11.8672 16.1465C12.6328 16.6523 13.043 17.459 13.043 18.3613C13.043 19.8516 11.8535 21.041 10.377 21.041ZM10.377 8.98242C10.6641 8.98242 10.8965 8.75 10.8965 8.44922C10.8965 8.16211 10.6641 7.92969 10.377 7.92969C10.0762 7.92969 9.84375 8.16211 9.84375 8.44922C9.84375 8.75 10.0762 8.98242 10.377 8.98242ZM10.377 10.8281C10.6641 10.8281 10.8965 10.582 10.8965 10.2949C10.8965 10.0078 10.6641 9.76172 10.377 9.76172C10.0762 9.76172 9.84375 10.0078 9.84375 10.2949C9.84375 10.582 10.0762 10.8281 10.377 10.8281ZM10.377 12.6602C10.6641 12.6602 10.8965 12.4141 10.8965 12.1133C10.8965 11.8398 10.6641 11.5938 10.377 11.5938C10.0762 11.5938 9.84375 11.8398 9.84375 12.1133C9.84375 12.4141 10.0762 12.6602 10.377 12.6602ZM10.3633 20.1387C11.3613 20.1387 12.1543 19.332 12.1543 18.3477C12.1543 17.6641 11.7578 17.0898 11.1836 16.7754C10.9648 16.666 10.8965 16.5703 10.8965 16.2422L10.8965 13.959C10.8965 13.6719 10.6641 13.4258 10.377 13.4258C10.0762 13.4258 9.84375 13.6719 9.84375 13.959L9.84375 16.2422C9.84375 16.5703 9.76172 16.6523 9.5293 16.7754C8.96875 17.0762 8.58594 17.6641 8.58594 18.3477C8.58594 19.3457 9.37891 20.1387 10.3633 20.1387ZM17.7051 8.70898C18.5938 8.70898 19.3047 7.98438 19.3047 7.0957C19.3047 6.2207 18.5938 5.50977 17.7051 5.50977C16.8301 5.50977 16.1191 6.2207 16.1191 7.0957C16.1191 7.98438 16.8301 8.70898 17.7051 8.70898ZM18.6621 21.793C19.0586 21.793 19.3867 21.4922 19.3867 21.0684L19.3867 12.5645C19.3867 12.4277 19.4824 12.3047 19.6191 12.3047C19.7285 12.3047 19.8516 12.4277 19.8516 12.5645L19.8516 15.3672C19.8516 15.7227 20.1523 16.0098 20.4941 16.0098C20.8496 16.0098 21.1504 15.7227 21.1504 15.3672L21.1504 12.209C21.1504 10.6094 19.9609 9.54297 18.2383 9.54297L17.1855 9.54297C15.4629 9.54297 14.2734 10.6094 14.2734 12.209L14.2734 15.3672C14.2734 15.7227 14.5742 16.0098 14.916 16.0098C15.2715 16.0098 15.5586 15.7227 15.5586 15.3672L15.5586 12.5645C15.5586 12.4277 15.6816 12.3047 15.8047 12.3047C15.9414 12.3047 16.0371 12.4277 16.0371 12.5645L16.0371 21.0684C16.0371 21.4922 16.3516 21.793 16.748 21.793C17.1582 21.793 17.459 21.4922 17.459 21.0684L17.459 15.9004C17.459 15.7637 17.5684 15.6543 17.7051 15.6543C17.8418 15.6543 17.9648 15.7637 17.9648 15.9004L17.9648 21.0684C17.9648 21.4922 18.2656 21.793 18.6621 21.793Z" fill="white" fill-opacity="0.85"/>
 </g>
</svg>
