<?xml version="1.0" encoding="UTF-8"?>
<!--Generator: Apple Native CoreSVG 326-->
<!DOCTYPE svg
PUBLIC "-//W3C//DTD SVG 1.1//EN"
       "http://www.w3.org/Graphics/SVG/1.1/DTD/svg11.dtd">
<svg version="1.1" xmlns="http://www.w3.org/2000/svg" xmlns:xlink="http://www.w3.org/1999/xlink" viewBox="0 0 28.2461 27.9043">
 <g>
  <rect height="27.9043" opacity="0" width="28.2461" x="0" y="0"/>
  <path d="M13.9453 27.8906C21.6426 27.8906 27.8906 21.6426 27.8906 13.9453C27.8906 6.24805 21.6426 0 13.9453 0C6.24805 0 0 6.24805 0 13.9453C0 21.6426 6.24805 27.8906 13.9453 27.8906ZM13.9453 25.5664C7.51953 25.5664 2.32422 20.3711 2.32422 13.9453C2.32422 7.51953 7.51953 2.32422 13.9453 2.32422C20.3711 2.32422 25.5664 7.51953 25.5664 13.9453C25.5664 20.3711 20.3711 25.5664 13.9453 25.5664Z" fill="white" fill-opacity="0.85"/>
  <path d="M11.3887 23.0234C13.4941 23.0234 15.1895 21.3281 15.1895 19.2363C15.1895 18.1289 14.7246 17.1445 13.8496 16.3652C13.7129 16.2422 13.6855 16.1602 13.6855 15.9551L13.6992 9.41992C13.6992 7.92969 12.7559 6.9043 11.3887 6.9043C10.0078 6.9043 9.07812 7.92969 9.07812 9.41992L9.07812 15.9551C9.07812 16.1602 9.05078 16.2422 8.88672 16.3652C8.02539 17.1445 7.57422 18.1289 7.57422 19.2363C7.57422 21.3281 9.26953 23.0234 11.3887 23.0234ZM11.3887 21.916C9.88477 21.916 8.70898 20.7266 8.70898 19.2363C8.70898 18.334 9.11914 17.5273 9.87109 17.0215C10.1172 16.8711 10.1992 16.7207 10.1992 16.4062L10.1992 9.46094C10.1992 8.59961 10.6641 8.05273 11.3887 8.05273C12.0859 8.05273 12.5508 8.59961 12.5508 9.46094L12.5508 16.4062C12.5508 16.7207 12.6328 16.8711 12.8789 17.0215C13.6309 17.5273 14.0547 18.334 14.0547 19.2363C14.0547 20.7266 12.8516 21.916 11.3887 21.916ZM11.375 21.0137C12.373 21.0137 13.166 20.207 13.166 19.2227C13.166 18.5391 12.7695 17.9648 12.1953 17.6504C11.9766 17.541 11.9082 17.4453 11.9082 17.1172L11.9082 15.7227C11.9082 15.3535 11.6758 15.1211 11.375 15.1211C11.0742 15.1211 10.8555 15.3535 10.8555 15.7227L10.8555 17.1172C10.8555 17.4453 10.7871 17.541 10.541 17.6504C9.99414 17.9648 9.59766 18.5391 9.59766 19.2227C9.59766 20.2207 10.3906 21.0137 11.375 21.0137ZM16.625 16.9395C16.9395 16.9395 17.1309 16.666 17.1309 16.3516L17.1172 15.3672L17.8965 15.8047C18.1562 15.9551 18.4434 15.8867 18.5801 15.6543C18.7305 15.3809 18.6074 15.1211 18.3613 14.957L17.1172 14.2324L17.0898 11.8125L19.168 13.043L19.168 14.4648C19.168 14.7793 19.3594 14.9844 19.6602 14.998C19.9336 14.998 20.125 14.7656 20.125 14.4922L20.1387 13.6035L21.0137 14.0957C21.3008 14.2598 21.6152 14.2324 21.7793 13.9727C21.9297 13.6855 21.8066 13.3848 21.5332 13.2344L20.6445 12.7148L21.4102 12.2637C21.6426 12.1133 21.752 11.8398 21.6152 11.6074C21.4648 11.3477 21.1641 11.3066 20.918 11.457L19.6738 12.1543L17.5684 10.9785L19.6875 9.78906L20.9316 10.5C21.1914 10.6504 21.4922 10.623 21.6289 10.3633C21.793 10.1172 21.6562 9.84375 21.4238 9.70703L20.6719 9.24219L21.5469 8.75C21.834 8.57227 21.9297 8.27148 21.7793 8.01172C21.6152 7.75195 21.3008 7.66992 21.041 7.83398L20.1523 8.33984L20.1523 7.46484C20.1523 7.16406 19.9609 6.94531 19.6875 6.94531C19.3867 6.94531 19.1953 7.16406 19.1953 7.49219L19.1816 8.91406L17.0898 10.1445L17.1172 7.71094L18.3613 6.98633C18.6484 6.82227 18.7168 6.5625 18.5938 6.30273C18.457 6.04297 18.1562 6.00195 17.8965 6.13867L17.1172 6.58984L17.1309 5.60547C17.1309 5.29102 16.9395 5.03125 16.625 5.03125C16.3105 5.03125 16.1055 5.29102 16.1055 5.60547L16.1055 6.58984L15.3398 6.13867C15.0801 5.98828 14.793 6.05664 14.6562 6.30273C14.5059 6.5625 14.6152 6.82227 14.875 6.98633L16.1191 7.71094L16.1465 10.1445L14.6289 9.24219C14.6699 9.625 14.6973 10.0215 14.7109 10.4316L15.668 10.9785L14.7109 11.5117L14.7109 12.6738L16.1465 11.8125L16.1191 14.2324L14.9297 14.9297C14.9844 15.1895 15.2852 15.5449 15.5312 15.709L16.1055 15.3535L16.1055 16.3516C16.1055 16.6797 16.3105 16.9395 16.625 16.9395Z" fill="white" fill-opacity="0.85"/>
 </g>
</svg>
