<?xml version="1.0" encoding="UTF-8"?>
<!--Generator: Apple Native CoreSVG 326-->
<!DOCTYPE svg
PUBLIC "-//W3C//DTD SVG 1.1//EN"
       "http://www.w3.org/Graphics/SVG/1.1/DTD/svg11.dtd">
<svg version="1.1" xmlns="http://www.w3.org/2000/svg" xmlns:xlink="http://www.w3.org/1999/xlink" viewBox="0 0 28.2461 27.9043">
 <g>
  <rect height="27.9043" opacity="0" width="28.2461" x="0" y="0"/>
  <path d="M13.9453 27.9043C21.6426 27.9043 27.8906 21.6562 27.8906 13.959C27.8906 6.27539 21.6426 0.0136719 13.9453 0.0136719C6.26172 0.0136719 0 6.27539 0 13.959C0 21.6562 6.26172 27.9043 13.9453 27.9043Z" fill="white" fill-opacity="0.85"/>
  <path d="M11.293 23.3242C9.10547 23.3242 7.35547 21.5742 7.35547 19.4004C7.35547 18.2656 7.82031 17.2402 8.70898 16.4473C8.87305 16.3105 8.90039 16.2285 8.90039 16.0371L8.90039 9.2832C8.90039 7.75195 9.85742 6.68555 11.293 6.68555C12.7012 6.68555 13.6719 7.75195 13.6719 9.2832L13.6582 16.0371C13.6582 16.2285 13.6855 16.3105 13.8223 16.4473C14.7246 17.2402 15.2031 18.2656 15.2031 19.4004C15.2031 21.5742 13.4531 23.3242 11.293 23.3242ZM11.293 22.1621C12.7969 22.1621 14.041 20.9453 14.041 19.4004C14.041 18.4707 13.6035 17.6504 12.8242 17.1309C12.5645 16.9668 12.4824 16.8164 12.4824 16.4883L12.4824 9.32422C12.4824 8.44922 12.0039 7.875 11.293 7.875C10.541 7.875 10.0625 8.44922 10.0625 9.32422L10.0625 16.4883C10.0625 16.8164 9.98047 16.9668 9.7207 17.1309C8.95508 17.6504 8.53125 18.4707 8.53125 19.4004C8.53125 20.9453 9.73438 22.1621 11.293 22.1621ZM11.2793 21.2324C10.2539 21.2324 9.44727 20.4121 9.44727 19.3867C9.44727 18.6895 9.85742 18.1016 10.418 17.7871C10.6641 17.6641 10.7324 17.5684 10.7324 17.2266L10.7324 15.791C10.7324 15.4082 10.9648 15.1621 11.2793 15.1621C11.5801 15.1621 11.8262 15.4082 11.8262 15.791L11.8262 17.2266C11.8262 17.5684 11.8945 17.6641 12.1133 17.7871C12.7012 18.1152 13.1113 18.6895 13.1113 19.3867C13.1113 20.3984 12.3047 21.2324 11.2793 21.2324ZM16.6797 17.0488C16.3652 17.0488 16.1465 16.7754 16.1465 16.4609L16.1465 15.4082L15.5586 15.7773C15.3125 15.5996 14.998 15.2578 14.9434 14.9844L16.1602 14.2734L16.1875 11.7715L14.7246 12.6465L14.7246 11.4434L15.6953 10.9102L14.7246 10.3633C14.7109 9.93945 14.6836 9.5293 14.6426 9.11914L16.1875 10.0352L16.1602 7.5332L14.875 6.78125C14.6152 6.61719 14.5059 6.34375 14.6562 6.08398C14.793 5.82422 15.0938 5.75586 15.3672 5.91992L16.1465 6.37109L16.1465 5.35938C16.1465 5.03125 16.3652 4.77148 16.6797 4.77148C17.0078 4.77148 17.2129 5.03125 17.2129 5.35938L17.1992 6.37109L17.9922 5.91992C18.2656 5.76953 18.5801 5.81055 18.7168 6.08398C18.8398 6.34375 18.7715 6.61719 18.4707 6.78125L17.1992 7.5332L17.1719 10.0352L19.3184 8.77734L19.332 7.31445C19.332 6.98633 19.5371 6.75391 19.8379 6.75391C20.125 6.75391 20.3164 6.98633 20.3164 7.27344L20.3164 8.17578L21.2324 7.65625C21.5059 7.49219 21.834 7.57422 21.998 7.84766C22.1621 8.12109 22.0527 8.42188 21.7656 8.59961L20.8633 9.10547L21.6289 9.58398C21.875 9.73438 22.0117 10.0215 21.8477 10.2676C21.6973 10.541 21.3965 10.5684 21.123 10.4043L19.8379 9.69336L17.6641 10.9102L19.8242 12.1133L21.1094 11.3887C21.3691 11.2383 21.6699 11.293 21.834 11.5664C21.9707 11.7852 21.8613 12.0723 21.6152 12.2227L20.8359 12.6875L21.752 13.2344C22.0254 13.3984 22.1621 13.6855 21.998 13.9863C21.834 14.2598 21.5059 14.2871 21.2051 14.1367L20.3027 13.6035L20.2891 14.5195C20.2891 14.8066 20.0977 15.0664 19.8105 15.0664C19.5098 15.0527 19.3047 14.8203 19.3047 14.4922L19.3047 13.0293L17.1719 11.7715L17.1992 14.2734L18.4707 15.0117C18.7305 15.1758 18.8535 15.4492 18.7031 15.7363C18.5664 15.9824 18.2656 16.0371 17.9922 15.873L17.1992 15.4219L17.2129 16.4609C17.2129 16.7617 17.0078 17.0488 16.6797 17.0488Z" fill="white"/>
 </g>
</svg>
