<svg version="1.1" xmlns="http://www.w3.org/2000/svg" xmlns:xlink="http://www.w3.org/1999/xlink" viewBox="0 0 20.918 30.4199">
 <g>
  
  <path d="M17.1445 5.01758L20.1113 5.01758C20.5898 5.01758 20.918 4.64844 20.918 4.22461C20.918 3.80078 20.5898 3.43164 20.1113 3.43164L17.1445 3.43164C16.666 3.43164 16.3379 3.80078 16.3379 4.22461C16.3379 4.64844 16.666 5.01758 17.1445 5.01758ZM17.1445 8.85938L20.1113 8.85938C20.5898 8.85938 20.918 8.49023 20.918 8.06641C20.918 7.64258 20.5898 7.27344 20.1113 7.27344L17.1445 7.27344C16.666 7.27344 16.3379 7.64258 16.3379 8.06641C16.3379 8.49023 16.666 8.85938 17.1445 8.85938ZM17.1445 12.7012L20.1113 12.7012C20.5898 12.7012 20.918 12.332 20.918 11.9082C20.918 11.4844 20.5898 11.1016 20.1113 11.1016L17.1445 11.1016C16.666 11.1016 16.3379 11.4844 16.3379 11.9082C16.3379 12.332 16.666 12.7012 17.1445 12.7012ZM17.1445 16.543L20.1113 16.543C20.5898 16.543 20.918 16.1738 20.918 15.75C20.918 15.3125 20.5898 14.9434 20.1113 14.9434L17.1445 14.9434C16.666 14.9434 16.3379 15.3125 16.3379 15.75C16.3379 16.1738 16.666 16.543 17.1445 16.543Z" style="fill:var(--color-0,white)"></path>
  <path d="M10.2949 30.3789C14.2324 30.3789 17.418 27.1797 17.418 23.2422C17.418 21.1641 16.5703 19.3457 14.9297 17.8691C14.6426 17.6094 14.5742 17.4453 14.5742 17.0352L14.5742 4.67578C14.5742 1.90039 12.8379 0 10.2949 0C7.72461 0 5.97461 1.90039 5.97461 4.67578L5.97461 17.0352C5.97461 17.4453 5.91992 17.6094 5.61914 17.8691C3.99219 19.3457 3.13086 21.1641 3.13086 23.2422C3.13086 27.1797 6.33008 30.3789 10.2949 30.3789ZM10.2949 28.3965C7.4375 28.3965 5.14062 26.0723 5.14062 23.2422C5.14062 21.5332 5.94727 19.9883 7.39648 19.0176C7.82031 18.7305 7.98438 18.4707 7.98438 17.9102L7.98438 4.75781C7.98438 3.11719 8.92773 2.00977 10.2949 2.00977C11.6348 2.00977 12.5781 3.11719 12.5781 4.75781L12.5781 17.9102C12.5781 18.4707 12.7422 18.7305 13.166 19.0176C14.6152 19.9883 15.4219 21.5332 15.4219 23.2422C15.4219 26.0723 13.1113 28.3965 10.2949 28.3965Z" style="fill:var(--color-1,white)"></path>
  <path d="M10.2812 26.5508C12.1133 26.5508 13.5898 25.0742 13.5898 23.2285C13.5898 21.9434 12.8652 20.8906 11.8125 20.3164C11.375 20.084 11.2246 19.9199 11.2246 19.25L11.2246 16.7207C11.2246 16.0645 10.8008 15.6406 10.2812 15.6406C9.74805 15.6406 9.33789 16.0645 9.33789 16.7207L9.33789 19.25C9.33789 19.9199 9.1875 20.084 8.75 20.3164C7.69727 20.8906 6.97266 21.9434 6.97266 23.2285C6.97266 25.0742 8.44922 26.5508 10.2812 26.5508Z" style="fill:var(--color-2,#55bef0)"></path>
 </g>
</svg>