<?xml version="1.0" encoding="UTF-8"?>
<!--Generator: Apple Native CoreSVG 326-->
<!DOCTYPE svg
PUBLIC "-//W3C//DTD SVG 1.1//EN"
       "http://www.w3.org/Graphics/SVG/1.1/DTD/svg11.dtd">
<svg version="1.1" xmlns="http://www.w3.org/2000/svg" xmlns:xlink="http://www.w3.org/1999/xlink" viewBox="0 0 29.7603 30.4199">
 <g>
  <rect height="30.4199" opacity="0" width="29.7603" x="0" y="0"/>
  <path d="M25.3391 15.75C25.3391 16.1738 25.011 16.543 24.5325 16.543L22.5132 16.543L21.0742 15.1031C21.2057 15.0029 21.3736 14.9434 21.5657 14.9434L24.5325 14.9434C25.011 14.9434 25.3391 15.3125 25.3391 15.75ZM25.3391 11.9082C25.3391 12.332 25.011 12.7012 24.5325 12.7012L21.5657 12.7012C21.0872 12.7012 20.759 12.332 20.759 11.9082C20.759 11.4844 21.0872 11.1016 21.5657 11.1016L24.5325 11.1016C25.011 11.1016 25.3391 11.4844 25.3391 11.9082ZM25.3391 8.06641C25.3391 8.49023 25.011 8.85938 24.5325 8.85938L21.5657 8.85938C21.0872 8.85938 20.759 8.49023 20.759 8.06641C20.759 7.64258 21.0872 7.27344 21.5657 7.27344L24.5325 7.27344C25.011 7.27344 25.3391 7.64258 25.3391 8.06641ZM25.3391 4.22461C25.3391 4.64844 25.011 5.01758 24.5325 5.01758L21.5657 5.01758C21.0872 5.01758 20.759 4.64844 20.759 4.22461C20.759 3.80078 21.0872 3.43164 21.5657 3.43164L24.5325 3.43164C25.011 3.43164 25.3391 3.80078 25.3391 4.22461Z" fill="white" fill-opacity="0.85"/>
  <path d="M12.4055 13.9235L12.4055 17.9102C12.4055 18.4707 12.2415 18.7305 11.8176 19.0176C10.3684 19.9883 9.56178 21.5332 9.56178 23.2422C9.56178 26.0723 11.8587 28.3965 14.7161 28.3965C17.5325 28.3965 19.843 26.0723 19.843 23.2422C19.843 22.32 19.6082 21.4456 19.1623 20.6845L21.8333 23.3573C21.7762 27.2425 18.6147 30.3789 14.7161 30.3789C10.7512 30.3789 7.55201 27.1797 7.55201 23.2422C7.55201 21.1641 8.41334 19.3457 10.0403 17.8691C10.3411 17.6094 10.3958 17.4453 10.3958 17.0352L10.3958 11.9124ZM18.9954 4.67578L18.9954 13.0229L16.9993 11.0256L16.9993 4.75781C16.9993 3.11719 16.0559 2.00977 14.7161 2.00977C13.3489 2.00977 12.4055 3.11719 12.4055 4.75781L12.4055 6.42889L10.4056 4.42772C10.5029 1.78658 12.2239 0 14.7161 0C17.259 0 18.9954 1.90039 18.9954 4.67578Z" fill="white" fill-opacity="0.85"/>
  <path d="M15.6458 17.1658L15.6458 19.25C15.6458 19.9199 15.7962 20.084 16.2337 20.3164C17.2864 20.8906 18.011 21.9434 18.011 23.2285C18.011 25.0742 16.5344 26.5508 14.7024 26.5508C12.8704 26.5508 11.3938 25.0742 11.3938 23.2285C11.3938 21.9434 12.1184 20.8906 13.1712 20.3164C13.6087 20.084 13.759 19.9199 13.759 19.25L13.759 15.2778Z" fill="white" fill-opacity="0.85"/>
  <path d="M26.3782 25.6348C26.7883 26.0449 27.4719 26.0449 27.8684 25.6348C28.2649 25.2246 28.2786 24.5547 27.8684 24.1445L6.3899 2.67969C5.97974 2.26953 5.30982 2.25586 4.88599 2.67969C4.48951 3.07617 4.47584 3.77344 4.88599 4.16992Z" fill="white" fill-opacity="0.85"/>
 </g>
</svg>
