<svg version="1.1" xmlns="http://www.w3.org/2000/svg" xmlns:xlink="http://www.w3.org/1999/xlink" viewBox="0 0 29.109 34.7402">
 <g>
  
  <path d="M8.25178 1.03906L8.25178 2.54297L9.42756 1.87305C9.83772 1.64062 10.2479 1.73633 10.453 2.10547C10.658 2.44727 10.5213 2.87109 10.1385 3.10352L8.25178 4.15625L8.25178 5.11328L8.10139 7.73828L10.3436 6.30273L11.1365 5.83233L11.1365 7.57489L11.0682 7.61523L8.68928 8.80469L11.0682 9.98047L11.1365 10.0208L11.1365 11.7632L10.3573 11.293L8.10139 9.85742L8.25178 12.4961L8.25178 13.4531L10.1385 14.5059C10.5213 14.7383 10.658 15.1621 10.453 15.5039C10.2479 15.873 9.83772 15.9551 9.42756 15.7363L8.25178 15.0664L8.25178 16.5703C8.25178 17.0352 7.951 17.3496 7.49983 17.3496C7.076 17.3496 6.76155 17.0215 6.76155 16.5703L6.76155 15.0527L5.5721 15.7363C5.14827 15.9414 4.76546 15.873 4.54671 15.5039C4.3553 15.1621 4.49202 14.7383 4.87483 14.5059L6.76155 13.4531L6.76155 12.4961L6.91194 9.85742L4.68342 11.293L3.86311 11.7715L3.87678 13.9453C3.87678 14.3828 3.576 14.7109 3.17952 14.7109C2.75569 14.7109 2.48225 14.4102 2.48225 13.9453L2.46858 12.5781L1.15608 13.3301C0.759596 13.5625 0.335768 13.4668 0.117018 13.084C-0.101732 12.6875 0.00764299 12.2637 0.404127 12.0312L1.71663 11.2793L0.554518 10.5957C0.13069 10.3496 0.0213149 9.9668 0.226393 9.58398C0.417799 9.24219 0.868971 9.16016 1.26546 9.37891L3.11116 10.4727L3.93147 9.98047L6.32405 8.80469L3.93147 7.61523L3.11116 7.13672L1.26546 8.23047C0.868971 8.44922 0.417799 8.35352 0.212721 8.01172C0.00764299 7.61523 0.144362 7.24609 0.554518 7L1.71663 6.31641L0.404127 5.57812C0.00764299 5.3457-0.115404 4.92188 0.117018 4.52539C0.322096 4.15625 0.759596 4.0332 1.15608 4.26562L2.46858 5.03125L2.48225 3.66406C2.48225 3.19922 2.75569 2.88477 3.17952 2.88477C3.576 2.88477 3.87678 3.22656 3.87678 3.66406L3.86311 5.82422L4.68342 6.31641L6.91194 7.73828L6.76155 5.11328L6.76155 4.15625L4.87483 3.08984C4.49202 2.87109 4.3553 2.44727 4.54671 2.10547C4.76546 1.73633 5.14827 1.6543 5.5721 1.87305L6.76155 2.55664L6.76155 1.03906C6.76155 0.574219 7.076 0.246094 7.49983 0.246094C7.951 0.246094 8.25178 0.560547 8.25178 1.03906Z" style="fill:var(--color-0,hsl(0 0 0/0.85))"></path>
  <path d="M24.4666 29.5859C25.492 30.3242 26.326 30.9258 27.7889 30.9258L27.8573 30.9258C28.3905 30.9258 28.828 31.3633 28.828 31.8965C28.828 32.4297 28.3905 32.8535 27.8573 32.8535L27.7889 32.8535C23.5233 32.8535 23.1678 30.0781 20.953 30.0781C18.7791 30.0781 18.1912 32.8535 14.4588 32.8535C10.7264 32.8535 10.1385 30.0781 7.96467 30.0781C5.74983 30.0781 5.39436 32.8535 1.12874 32.8535L1.06038 32.8535C0.527174 32.8535 0.0896742 32.4297 0.0896742 31.8965C0.0896742 31.3633 0.527174 30.9258 1.06038 30.9258L1.12874 30.9258C2.59163 30.9258 3.42561 30.3242 4.451 29.5859C5.33967 28.9434 6.4471 28.1504 7.96467 28.1504C9.53694 28.1504 10.658 28.998 11.5467 29.6543C12.4901 30.3789 13.2283 30.9258 14.4588 30.9258C15.6893 30.9258 16.4276 30.3789 17.3709 29.6543C18.2596 28.998 19.3807 28.1504 20.953 28.1504C22.4705 28.1504 23.578 28.9434 24.4666 29.5859ZM8.09237 22.016C8.08818 22.0592 8.08772 22.1037 8.08772 22.1484C8.08772 22.7823 8.17884 23.3943 8.35212 23.9704C8.2284 23.9501 8.09959 23.9395 7.96467 23.9395C5.74983 23.9395 5.39436 26.7148 1.12874 26.7148L1.06038 26.7148C0.527174 26.7148 0.0896742 26.291 0.0896742 25.7578C0.0896742 25.2246 0.527174 24.7871 1.06038 24.7871L1.12874 24.7871C2.59163 24.7871 3.42561 24.1855 4.451 23.4473C5.33967 22.8047 6.4471 22.0117 7.96467 22.0117C8.00801 22.0117 8.051 22.0124 8.09237 22.016ZM24.4666 23.4473C25.492 24.1855 26.326 24.7871 27.7889 24.7871L27.8573 24.7871C28.3905 24.7871 28.828 25.2246 28.828 25.7578C28.828 26.291 28.3905 26.7148 27.8573 26.7148L27.7889 26.7148C23.5233 26.7148 23.1678 23.9395 20.953 23.9395C20.8273 23.9395 20.707 23.9487 20.5921 23.9683C20.7659 23.3928 20.8573 22.7815 20.8573 22.1484C20.8573 22.1034 20.8568 22.0585 20.8525 22.0151C20.885 22.0121 20.9189 22.0117 20.953 22.0117C22.4705 22.0117 23.578 22.8047 24.4666 23.4473Z" style="fill:var(--color-1,hsl(0 0 0/0.85))"></path>
  <path d="M14.4588 26.6738C16.9744 26.6738 18.9979 24.6641 18.9979 22.1484C18.9979 20.3984 17.9862 19.0039 16.66 18.2656C16.1815 17.9922 15.949 17.5957 15.949 16.8848L15.949 3.33594C15.949 2.5293 15.2928 1.85938 14.4725 1.85938C13.6658 1.85938 12.9959 2.5293 12.9959 3.33594L12.9959 16.8848C12.9959 17.5684 12.7498 17.9512 12.244 18.2383C10.9315 18.9766 9.9471 20.3984 9.9471 22.1484C9.9471 24.6641 11.9569 26.6738 14.4588 26.6738ZM19.6678 4.82617L22.6346 4.82617C23.1268 4.82617 23.4412 4.45703 23.4412 4.0332C23.4412 3.60938 23.1268 3.22656 22.6346 3.22656L19.6678 3.22656C19.1893 3.22656 18.8612 3.60938 18.8612 4.0332C18.8612 4.45703 19.1893 4.82617 19.6678 4.82617ZM19.6678 8.66797L22.6346 8.66797C23.1268 8.66797 23.4412 8.28516 23.4412 7.86133C23.4412 7.4375 23.1268 7.06836 22.6346 7.06836L19.6678 7.06836C19.1893 7.06836 18.8612 7.4375 18.8612 7.86133C18.8612 8.28516 19.1893 8.66797 19.6678 8.66797ZM19.6678 12.4961L22.6346 12.4961C23.1268 12.4961 23.4412 12.127 23.4412 11.7031C23.4412 11.2793 23.1268 10.9102 22.6346 10.9102L19.6678 10.9102C19.1893 10.9102 18.8612 11.2793 18.8612 11.7031C18.8612 12.127 19.1893 12.4961 19.6678 12.4961ZM19.6678 16.3379L22.6346 16.3379C23.1268 16.3379 23.4412 15.9688 23.4412 15.5449C23.4412 15.1211 23.1268 14.752 22.6346 14.752L19.6678 14.752C19.1893 14.752 18.8612 15.1211 18.8612 15.5449C18.8612 15.9688 19.1893 16.3379 19.6678 16.3379Z" style="fill:var(--color-2,hsl(0 0 0/0.85))"></path>
 </g>
</svg>