<?xml version="1.0" encoding="UTF-8"?>
<!--Generator: Apple Native CoreSVG 326-->
<!DOCTYPE svg
PUBLIC "-//W3C//DTD SVG 1.1//EN"
       "http://www.w3.org/Graphics/SVG/1.1/DTD/svg11.dtd">
<svg version="1.1" xmlns="http://www.w3.org/2000/svg" xmlns:xlink="http://www.w3.org/1999/xlink" viewBox="0 0 28.2461 27.9043">
 <g>
  <rect height="27.9043" opacity="0" width="28.2461" x="0" y="0"/>
  <path d="M13.9453 27.8906C21.6426 27.8906 27.8906 21.6426 27.8906 13.9453C27.8906 6.24805 21.6426 0 13.9453 0C6.24805 0 0 6.24805 0 13.9453C0 21.6426 6.24805 27.8906 13.9453 27.8906ZM13.9453 25.5664C7.51953 25.5664 2.32422 20.3711 2.32422 13.9453C2.32422 7.51953 7.51953 2.32422 13.9453 2.32422C20.3711 2.32422 25.5664 7.51953 25.5664 13.9453C25.5664 20.3711 20.3711 25.5664 13.9453 25.5664Z" fill="white" fill-opacity="0.85"/>
  <path d="M11.3887 23.0234C13.4941 23.0234 15.1895 21.3281 15.1895 19.2363C15.1895 18.1289 14.7246 17.1445 13.8496 16.3652C13.7129 16.2422 13.6855 16.1602 13.6855 15.9551L13.6992 9.41992C13.6992 7.92969 12.7559 6.9043 11.3887 6.9043C10.0078 6.9043 9.07812 7.92969 9.07812 9.41992L9.07812 15.9551C9.07812 16.1602 9.05078 16.2422 8.88672 16.3652C8.02539 17.1445 7.57422 18.1289 7.57422 19.2363C7.57422 21.3281 9.26953 23.0234 11.3887 23.0234ZM11.3887 21.916C9.88477 21.916 8.70898 20.7266 8.70898 19.2363C8.70898 18.334 9.11914 17.5273 9.87109 17.0215C10.1172 16.8711 10.1992 16.7207 10.1992 16.4062L10.1992 9.46094C10.1992 8.59961 10.6641 8.05273 11.3887 8.05273C12.0859 8.05273 12.5508 8.59961 12.5508 9.46094L12.5508 16.4062C12.5508 16.7207 12.6328 16.8711 12.8789 17.0215C13.6309 17.5273 14.0547 18.334 14.0547 19.2363C14.0547 20.7266 12.8516 21.916 11.3887 21.916ZM11.375 21.0137C12.373 21.0137 13.166 20.207 13.166 19.2227C13.166 18.5391 12.7695 17.9648 12.1953 17.6504C11.9766 17.541 11.9082 17.4453 11.9082 17.1172L11.9082 10.0762C11.9082 9.70703 11.6758 9.47461 11.375 9.47461C11.0742 9.47461 10.8555 9.70703 10.8555 10.0762L10.8555 17.1172C10.8555 17.4453 10.7871 17.541 10.541 17.6504C9.99414 17.9648 9.59766 18.5391 9.59766 19.2227C9.59766 20.2207 10.3906 21.0137 11.375 21.0137ZM14.8203 7.27344C15.2305 7.27344 15.5312 6.93164 15.5312 6.5625L15.5312 4.99023C15.5312 4.60742 15.2305 4.29297 14.8203 4.29297C14.4238 4.29297 14.1094 4.60742 14.1094 4.99023L14.1094 6.5625C14.1094 6.94531 14.4238 7.27344 14.8203 7.27344ZM18.0879 8.62695C18.3477 8.90039 18.8262 8.90039 19.0996 8.62695L20.1934 7.51953C20.4531 7.24609 20.4668 6.78125 20.1797 6.50781C19.9062 6.23438 19.4688 6.23438 19.209 6.50781L18.0879 7.62891C17.8008 7.90234 17.8145 8.35352 18.0879 8.62695ZM20.125 12.5918L21.6836 12.5918C22.0801 12.5918 22.3945 12.25 22.3945 11.8945C22.3945 11.498 22.0801 11.1699 21.6836 11.1699L20.125 11.1699C19.7422 11.1699 19.4277 11.498 19.4277 11.8945C19.4277 12.25 19.7422 12.5918 20.125 12.5918ZM19.209 17.2676C19.4688 17.5273 19.9062 17.541 20.1797 17.2676C20.4668 16.9941 20.4668 16.5156 20.1934 16.2695L19.0859 15.1484C18.8125 14.875 18.3613 14.875 18.0879 15.1484C17.8145 15.4219 17.8008 15.8867 18.0879 16.1465ZM14.6973 15.4766C16.7617 15.5449 18.4297 13.959 18.4297 11.8945C18.4297 9.87109 16.8301 8.27148 14.8203 8.27148C14.7246 8.27148 14.6289 8.27148 14.5332 8.29883C14.6562 8.6543 14.7109 9.02344 14.7109 9.41992Z" fill="white" fill-opacity="0.85"/>
 </g>
</svg>
