<?xml version="1.0" encoding="UTF-8"?>
<!--Generator: Apple Native CoreSVG 326-->
<!DOCTYPE svg
PUBLIC "-//W3C//DTD SVG 1.1//EN"
       "http://www.w3.org/Graphics/SVG/1.1/DTD/svg11.dtd">
<svg version="1.1" xmlns="http://www.w3.org/2000/svg" xmlns:xlink="http://www.w3.org/1999/xlink" viewBox="0 0 28.2461 27.9043">
 <g>
  <rect height="27.9043" opacity="0" width="28.2461" x="0" y="0"/>
  <path d="M13.9453 27.9043C21.6426 27.9043 27.8906 21.6562 27.8906 13.959C27.8906 6.27539 21.6426 0.0136719 13.9453 0.0136719C6.26172 0.0136719 0 6.27539 0 13.959C0 21.6562 6.26172 27.9043 13.9453 27.9043Z" fill="white" fill-opacity="0.85"/>
  <path d="M11.2793 23.3379C9.0918 23.3379 7.3418 21.5879 7.3418 19.4141C7.3418 18.2793 7.80664 17.2676 8.69531 16.4609C8.85938 16.3379 8.88672 16.2422 8.88672 16.0508L8.88672 9.29688C8.88672 7.76562 9.84375 6.69922 11.2793 6.69922C12.6875 6.69922 13.6582 7.76562 13.6582 9.29688L13.6445 16.0508C13.6445 16.2422 13.6719 16.3379 13.8223 16.4609C14.7246 17.2676 15.2031 18.2793 15.2031 19.4141C15.2031 21.5879 13.4531 23.3379 11.2793 23.3379ZM11.2793 22.1758C12.7832 22.1758 14.0273 20.959 14.0273 19.4141C14.0273 18.4844 13.5898 17.6777 12.8105 17.1445C12.5508 16.9805 12.4688 16.8301 12.4688 16.502L12.4688 9.35156C12.4688 8.47656 11.9902 7.88867 11.2793 7.88867C10.5273 7.88867 10.0488 8.47656 10.0488 9.35156L10.0488 16.502C10.0488 16.8301 9.9668 16.9805 9.70703 17.1445C8.94141 17.6777 8.51758 18.4844 8.51758 19.4141C8.51758 20.959 9.7207 22.1758 11.2793 22.1758ZM11.2656 21.2461C10.2539 21.2461 9.43359 20.4395 9.43359 19.4004C9.43359 18.7031 9.84375 18.1152 10.4043 17.8008C10.6641 17.6777 10.7324 17.5957 10.7324 17.2402L10.7324 9.98047C10.7324 9.59766 10.9512 9.36523 11.2656 9.36523C11.5664 9.36523 11.8125 9.59766 11.8125 9.98047L11.8125 17.2402C11.8125 17.5957 11.8809 17.6777 12.0996 17.8008C12.7012 18.1289 13.1113 18.7031 13.1113 19.4004C13.1113 20.4258 12.291 21.2461 11.2656 21.2461ZM14.8203 7.0957C14.4102 7.0957 14.082 6.75391 14.082 6.35742L14.082 4.74414C14.082 4.36133 14.4102 4.01953 14.8203 4.01953C15.2441 4.01953 15.5586 4.36133 15.5586 4.74414L15.5586 6.35742C15.5586 6.75391 15.2441 7.0957 14.8203 7.0957ZM18.1836 8.49023C17.8965 8.20312 17.8828 7.73828 18.1836 7.45117L19.332 6.30273C19.6055 6.01562 20.0566 6.01562 20.3438 6.30273C20.6445 6.58984 20.6309 7.06836 20.3574 7.3418L19.2363 8.49023C18.9492 8.76367 18.457 8.76367 18.1836 8.49023ZM20.2891 12.5918C19.8926 12.5918 19.5645 12.2363 19.5645 11.8535C19.5645 11.457 19.8926 11.1016 20.2891 11.1016L21.8887 11.1016C22.2988 11.1016 22.627 11.457 22.627 11.8535C22.627 12.2363 22.2988 12.5918 21.8887 12.5918ZM19.332 17.4043L18.1836 16.2559C17.8828 15.9824 17.8965 15.5039 18.1836 15.2305C18.4707 14.9434 18.9355 14.9434 19.2227 15.2305L20.3574 16.3652C20.6445 16.625 20.6445 17.1172 20.3438 17.4043C20.0566 17.6777 19.6055 17.6641 19.332 17.4043ZM14.6973 15.5586L14.7109 9.29688C14.7109 8.90039 14.6562 8.51758 14.5195 8.14844C14.6289 8.13477 14.7246 8.12109 14.8203 8.12109C16.8848 8.12109 18.5391 9.78906 18.5391 11.8535C18.5391 13.9863 16.8164 15.6133 14.6973 15.5586Z" fill="white"/>
 </g>
</svg>
