<?xml version="1.0" encoding="UTF-8"?>
<!--Generator: Apple Native CoreSVG 326-->
<!DOCTYPE svg
PUBLIC "-//W3C//DTD SVG 1.1//EN"
       "http://www.w3.org/Graphics/SVG/1.1/DTD/svg11.dtd">
<svg version="1.1" xmlns="http://www.w3.org/2000/svg" xmlns:xlink="http://www.w3.org/1999/xlink" viewBox="0 0 31.1855 30.8574">
 <g>
  <rect height="30.8574" opacity="0" width="31.1855" x="0" y="0"/>
  <path d="M11.375 0.396484C10.9238 0.492188 10.6777 0.888672 10.8145 1.4082L11.2656 3.13086C11.3887 3.55469 11.8125 3.78711 12.3184 3.63672C12.7969 3.48633 12.9883 3.10352 12.8516 2.66602L12.373 1.01172C12.2363 0.519531 11.8398 0.314453 11.375 0.396484Z" fill="white" fill-opacity="0.85"/>
  <path d="M7.71094 2.07812C7.31445 2.31055 7.19141 2.80273 7.42383 3.19922L9.95312 7.60156C10.1855 8.01172 10.6777 8.13477 11.0605 7.90234C11.457 7.68359 11.5938 7.19141 11.3613 6.79492L8.81836 2.37891C8.58594 1.99609 8.10742 1.87305 7.71094 2.07812Z" fill="white" fill-opacity="0.85"/>
  <path d="M4.40234 4.44336C4.07422 4.75781 4.11523 5.27734 4.41602 5.5918L5.63281 6.82227C5.97461 7.16406 6.43945 7.17773 6.79492 6.83594C7.10938 6.52148 7.12305 6.0293 6.78125 5.67383L5.56445 4.45703C5.20898 4.10156 4.74414 4.11523 4.40234 4.44336Z" fill="white" fill-opacity="0.85"/>
  <path d="M2.07812 7.72461C1.8457 8.12109 1.96875 8.61328 2.36523 8.8457L6.76758 11.3887C7.17773 11.6211 7.65625 11.4844 7.88867 11.1016C8.10742 10.7051 7.98438 10.2129 7.57422 9.98047L3.17188 7.4375C2.77539 7.21875 2.29688 7.3418 2.07812 7.72461Z" fill="white" fill-opacity="0.85"/>
  <path d="M0.369141 11.416C0.273438 11.8535 0.546875 12.291 0.957031 12.4141L2.63867 12.8926C3.10352 13.002 3.54102 12.7559 3.63672 12.3047C3.73242 11.8672 3.52734 11.4023 3.07617 11.293L1.39453 10.8691C0.902344 10.7461 0.464844 10.9922 0.369141 11.416Z" fill="white" fill-opacity="0.85"/>
  <path d="M0 15.4355C0 15.9004 0.369141 16.2559 0.820312 16.2559L5.89258 16.2559C6.37109 16.2559 6.71289 15.9004 6.71289 15.4355C6.71289 14.9844 6.37109 14.6289 5.89258 14.6289L0.820312 14.6289C0.369141 14.6289 0 14.9844 0 15.4355Z" fill="white" fill-opacity="0.85"/>
  <path d="M0.382812 19.4688C0.492188 19.9062 0.957031 20.1387 1.38086 20.043L3.07617 19.6191C3.54102 19.4961 3.77344 19.0723 3.65039 18.6211C3.52734 18.1836 3.08984 17.9238 2.63867 18.0332L0.998047 18.4844C0.492188 18.6211 0.273438 19.0449 0.382812 19.4688Z" fill="white" fill-opacity="0.85"/>
  <path d="M2.06445 23.1465C2.2832 23.543 2.77539 23.666 3.17188 23.4473L7.57422 20.9043C7.98438 20.6719 8.10742 20.1797 7.88867 19.7969C7.65625 19.4004 7.17773 19.2637 6.76758 19.4961L2.36523 22.0391C1.96875 22.2715 1.8457 22.75 2.06445 23.1465Z" fill="white" fill-opacity="0.85"/>
  <path d="M4.41602 26.4414C4.75781 26.7695 5.25 26.7695 5.55078 26.4688L6.79492 25.2383C7.13672 24.8828 7.15039 24.418 6.80859 24.0898C6.49414 23.7617 5.97461 23.748 5.66016 24.0762L4.44336 25.3066C4.10156 25.6621 4.08789 26.1133 4.41602 26.4414Z" fill="white" fill-opacity="0.85"/>
  <path d="M7.71094 28.793C8.09375 29.0117 8.59961 28.8887 8.81836 28.4922L11.3613 24.0898C11.5938 23.6934 11.457 23.2012 11.0742 22.9688C10.6777 22.75 10.1855 22.873 9.95312 23.2832L7.42383 27.6855C7.19141 28.082 7.31445 28.5605 7.71094 28.793Z" fill="white" fill-opacity="0.85"/>
  <path d="M11.3066 30.4746C11.8125 30.6387 12.2637 30.3379 12.373 29.9141L12.8379 28.2324C12.9609 27.7949 12.7148 27.3438 12.2773 27.2344C11.8398 27.125 11.4023 27.3574 11.2793 27.8086L10.8281 29.4902C10.7051 29.9551 10.8555 30.3379 11.3066 30.4746Z" fill="white" fill-opacity="0.85"/>
  <path d="M15.4082 30.8574C15.873 30.8574 16.2285 30.4883 16.2285 30.0371L16.2285 24.9648C16.2285 24.5 15.873 24.1445 15.4082 24.1445C14.957 24.1445 14.6016 24.5 14.6016 24.9648L14.6016 30.0371C14.6016 30.4883 14.957 30.8574 15.4082 30.8574Z" fill="white" fill-opacity="0.85"/>
  <path d="M19.4551 30.4883C19.9746 30.3652 20.125 29.9141 20.0156 29.4902L19.5781 27.7676C19.4551 27.3301 18.9902 27.084 18.5527 27.207C18.0742 27.3438 17.8691 27.7949 17.9922 28.2051L18.4844 29.873C18.6211 30.3242 18.9629 30.584 19.4551 30.4883Z" fill="white" fill-opacity="0.85"/>
  <path d="M23.1191 28.793C23.5156 28.5742 23.6387 28.082 23.4199 27.6855L20.877 23.2832C20.6582 22.873 20.1523 22.75 19.7695 22.9688C19.373 23.2012 19.2363 23.6934 19.4824 24.0898L22.0117 28.4922C22.2441 28.8887 22.7227 29.0117 23.1191 28.793Z" fill="white" fill-opacity="0.85"/>
  <path d="M26.4141 26.4551C26.7559 26.1133 26.7285 25.5938 26.4414 25.293L25.1836 24.0625C24.8555 23.748 24.3633 23.707 24.0078 24.0625C23.6934 24.4043 23.7207 24.8691 24.0352 25.1973L25.2656 26.4277C25.6074 26.7695 26.0859 26.7832 26.4141 26.4551Z" fill="white" fill-opacity="0.85"/>
  <path d="M28.7656 23.1465C28.9844 22.7637 28.8613 22.2715 28.4785 22.0391L24.0625 19.4961C23.666 19.2637 23.1738 19.4004 22.9551 19.7832C22.7227 20.1797 22.8457 20.6719 23.2559 20.9043L27.6582 23.4473C28.0547 23.666 28.5332 23.543 28.7656 23.1465Z" fill="white" fill-opacity="0.85"/>
  <path d="M30.4473 19.5098C30.5703 19.0449 30.3652 18.6211 29.8867 18.4844L28.1914 18.0059C27.7266 17.8828 27.3027 18.1426 27.1934 18.5801C27.084 19.0312 27.3301 19.4961 27.7539 19.6055L29.4355 20.043C29.9141 20.166 30.3242 19.9199 30.4473 19.5098Z" fill="white" fill-opacity="0.85"/>
  <path d="M30.8301 15.4355C30.8301 14.9844 30.4746 14.6289 30.0098 14.6289L24.9375 14.6289C24.4727 14.6289 24.1172 14.9844 24.1172 15.4355C24.1172 15.9004 24.4727 16.2559 24.9375 16.2559L30.0098 16.2559C30.4746 16.2559 30.8301 15.9004 30.8301 15.4355Z" fill="white" fill-opacity="0.85"/>
  <path d="M30.4473 11.4297C30.3379 10.9785 29.873 10.7188 29.4629 10.8418L27.7539 11.3066C27.3164 11.4297 27.0566 11.8535 27.207 12.3594C27.3164 12.7148 27.6992 13.002 28.1914 12.8789L29.8457 12.4141C30.3242 12.291 30.5566 11.8535 30.4473 11.4297Z" fill="white" fill-opacity="0.85"/>
  <path d="M28.7793 7.73828C28.5469 7.3418 28.0547 7.21875 27.6582 7.4375L23.2559 9.98047C22.8457 10.2129 22.7227 10.7051 22.9551 11.1016C23.1738 11.4844 23.666 11.6211 24.0625 11.3887L28.4785 8.8457C28.8613 8.61328 28.9844 8.13477 28.7793 7.73828Z" fill="white" fill-opacity="0.85"/>
  <path d="M26.4277 4.45703C26.0996 4.12891 25.5801 4.15625 25.2793 4.45703L24.0352 5.6875C23.6934 6.04297 23.6934 6.50781 24.0352 6.83594C24.3633 7.17773 24.8555 7.17773 25.1699 6.84961L26.3867 5.61914C26.7285 5.26367 26.7422 4.78516 26.4277 4.45703Z" fill="white" fill-opacity="0.85"/>
  <path d="M23.1328 2.0918C22.7363 1.87305 22.2441 1.99609 22.0117 2.37891L19.4824 6.79492C19.2363 7.19141 19.373 7.68359 19.7695 7.90234C20.1523 8.13477 20.6582 8.01172 20.877 7.60156L23.4199 3.19922C23.6387 2.80273 23.5156 2.32422 23.1328 2.0918Z" fill="white" fill-opacity="0.85"/>
  <path d="M19.4551 0.4375C19.0176 0.287109 18.5938 0.505859 18.457 1.01172L17.9922 2.69336C17.8691 3.13086 18.1152 3.58203 18.5527 3.69141C18.9902 3.80078 19.4277 3.56836 19.5508 3.11719L20.002 1.43555C20.125 0.970703 19.8926 0.560547 19.4551 0.4375Z" fill="white" fill-opacity="0.85"/>
  <path d="M15.4082 0.0273438C14.957 0.0273438 14.6016 0.396484 14.6016 0.847656L14.6016 5.91992C14.6016 6.38477 14.957 6.74023 15.4082 6.74023C15.873 6.74023 16.2285 6.38477 16.2285 5.91992L16.2285 0.847656C16.2285 0.396484 15.873 0.0273438 15.4082 0.0273438Z" fill="white" fill-opacity="0.85"/>
 </g>
</svg>
