<svg version="1.1" xmlns="http://www.w3.org/2000/svg" xmlns:xlink="http://www.w3.org/1999/xlink" viewBox="0 0 28.2461 27.9043">
 <g>
  
  <path d="M13.9453 27.8906C21.6426 27.8906 27.8906 21.6426 27.8906 13.9453C27.8906 6.24805 21.6426 0 13.9453 0C6.24805 0 0 6.24805 0 13.9453C0 21.6426 6.24805 27.8906 13.9453 27.8906ZM13.9453 25.5664C7.51953 25.5664 2.32422 20.3711 2.32422 13.9453C2.32422 7.51953 7.51953 2.32422 13.9453 2.32422C20.3711 2.32422 25.5664 7.51953 25.5664 13.9453C25.5664 20.3711 20.3711 25.5664 13.9453 25.5664Z" style="fill:var(--color-0,hsl(0 0 0/0.85))"></path>
  <path d="M13.9453 21.7109C18.1973 21.7109 21.7109 18.1973 21.7109 13.9453C21.7109 9.69336 18.1973 6.17969 13.959 6.17969C13.3848 6.17969 13.0977 6.54883 13.0977 7.05469L13.0977 9.21484C13.0977 9.67969 13.4258 10.0625 13.918 10.0625C14.3965 10.0625 14.7383 9.67969 14.7383 9.21484L14.7383 8.02539C17.7051 8.39453 19.9062 10.8555 19.9062 13.9453C19.9062 17.2949 17.3086 19.9199 13.9453 19.9199C10.5957 19.9199 7.9707 17.2949 7.9707 13.9453C7.9707 12.4414 8.50391 11.1289 9.39258 10.0762C9.69336 9.70703 9.73438 9.1875 9.37891 8.83203C9.00977 8.44922 8.42188 8.49023 8.05273 8.92773C6.89062 10.2676 6.17969 12.0449 6.17969 13.9453C6.17969 18.1973 9.69336 21.7109 13.9453 21.7109ZM15.2441 15.1211C15.9004 14.4238 15.7773 13.4941 14.9844 12.9473L11.416 10.5547C10.8828 10.2129 10.3223 10.7461 10.6777 11.2793L13.084 14.8477C13.6172 15.6543 14.5605 15.7773 15.2441 15.1211Z" style="fill:var(--color-1,hsl(0 0 0/0.85))"></path>
 </g>
</svg>