<?xml version="1.0" encoding="UTF-8"?>
<!--Generator: Apple Native CoreSVG 326-->
<!DOCTYPE svg
PUBLIC "-//W3C//DTD SVG 1.1//EN"
       "http://www.w3.org/Graphics/SVG/1.1/DTD/svg11.dtd">
<svg version="1.1" xmlns="http://www.w3.org/2000/svg" xmlns:xlink="http://www.w3.org/1999/xlink" viewBox="0 0 28.2461 27.9043">
 <g>
  <rect height="27.9043" opacity="0" width="28.2461" x="0" y="0"/>
  <path d="M13.9453 27.8906C21.6426 27.8906 27.8906 21.6426 27.8906 13.9453C27.8906 6.24805 21.6426 0 13.9453 0C6.24805 0 0 6.24805 0 13.9453C0 21.6426 6.24805 27.8906 13.9453 27.8906ZM13.9453 23.8164C8.49023 23.8164 4.07422 19.4004 4.07422 13.9453C4.07422 8.49023 8.49023 4.07422 13.9453 4.07422C19.4004 4.07422 23.8164 8.49023 23.8164 13.9453C23.8164 19.4004 19.4004 23.8164 13.9453 23.8164ZM12.7559 5.46875C9.89844 5.85156 7.47852 7.68359 6.27539 10.1719L11.457 12.0859C11.8262 11.5664 12.3594 11.1836 12.9746 10.9922ZM5.50977 12.4688C5.42773 12.9473 5.37305 13.4395 5.37305 13.9453C5.37305 16.3516 6.38477 18.5391 7.99805 20.0977L11.416 15.75C11.0332 15.2441 10.8555 14.6426 10.8281 13.959ZM9.95312 21.5059C11.1426 22.1484 12.5098 22.5176 13.9453 22.5176C15.4082 22.5176 16.7754 22.1484 17.9648 21.5059L14.8887 16.9121C14.6016 17.0078 14.2734 17.0625 13.9453 17.0625C13.6172 17.0625 13.3164 17.0078 13.002 16.9121ZM19.9199 20.0977C21.5332 18.5391 22.5176 16.3516 22.5176 13.9453C22.5176 13.4395 22.4902 12.9473 22.3809 12.4688L17.0625 13.959C17.0625 14.6426 16.8574 15.2441 16.502 15.75ZM21.6426 10.1719C20.4395 7.68359 18.0195 5.85156 15.1621 5.46875L14.9434 10.9922C15.5586 11.1836 16.0918 11.5664 16.4609 12.0859ZM13.9453 15.3398C14.7246 15.3398 15.3398 14.7109 15.3398 13.9453C15.3398 13.166 14.7246 12.5508 13.9453 12.5508C13.1797 12.5508 12.5645 13.166 12.5645 13.9453C12.5645 14.7109 13.1797 15.3398 13.9453 15.3398Z" fill="white" fill-opacity="0.85"/>
 </g>
</svg>
