<svg version="1.1" xmlns="http://www.w3.org/2000/svg" xmlns:xlink="http://www.w3.org/1999/xlink" viewBox="0 0 26.3047 30.5488">
 <g>
  
  <path d="M12.7559 12.3281C21.1367 12.3281 25.9492 10.2089 25.9492 7.32418C25.9492 4.67184 22.1211 3.04489 16.6523 3.04489C12.5508 3.04489 9.35156 3.83786 6.93164 4.97262C6.27539 5.28707 6.125 5.94332 6.37109 6.40817C6.63086 6.9277 7.31445 7.06442 7.86133 6.832C10.0488 5.91598 12.8105 5.02731 16.5293 5.02731C21.1367 5.02731 23.8027 6.12106 23.8027 7.31051C23.8027 8.70504 19.6465 10.2773 12.6602 10.2773C5.79688 10.2773 2.13281 8.92379 2.13281 6.33981C2.13281 4.82223 3.52734 3.22262 7.49219 1.95114C8.16211 1.73239 8.44922 1.19918 8.25781 0.638637C8.06641 0.07809 7.56055-0.14066 6.80859 0.0917619C2.21484 1.45895 0 3.85153 0 6.3945C0 10.2773 4.38867 12.3281 12.7559 12.3281ZM13.166 16.8398C17.4453 16.8398 21.3828 16.1289 24.1719 14.9941C24.6914 14.7754 24.9512 14.2285 24.6914 13.75C24.4453 13.2851 23.9531 13.2031 23.3379 13.4355C20.8086 14.4062 17.1309 15.0625 13.166 15.0625C10.2402 15.0625 6.87695 14.6933 4.25195 13.9277C3.63672 13.75 3.13086 13.9414 2.98047 14.4609C2.83008 14.9668 3.08984 15.4453 3.71875 15.6367C6.54883 16.4297 10.0898 16.8398 13.166 16.8398ZM14.0957 21.2968C17.6777 21.2695 21.041 20.75 24.1172 19.6972C24.8418 19.4511 24.9512 18.8769 24.7734 18.4531C24.582 17.9746 24.0898 17.8242 23.3926 18.0566C20.3574 19.041 17.3359 19.5058 14.0957 19.5058C12.7148 19.5058 11.2793 19.4101 10.1582 19.2597C9.48828 19.1777 9.07812 19.4375 8.99609 19.9297C8.90039 20.4218 9.16016 20.8867 9.87109 21.0097C10.9238 21.2011 12.4004 21.3105 14.0957 21.2968ZM12.8516 25.4941C15.3398 25.7812 18.334 25.7129 20.9043 25.0156C21.5195 24.8515 21.752 24.3047 21.6016 23.8261C21.4375 23.3203 20.959 23.1289 20.3027 23.2929C18.0879 23.8672 15.5312 24.0586 13.1523 23.7578C12.4961 23.6894 12.0449 23.9902 11.9766 24.4961C11.9082 25.0019 12.168 25.4121 12.8516 25.4941ZM11.9219 29.8281C12.7832 29.9511 13.7949 29.9375 14.6836 29.8281C15.3125 29.7461 15.5996 29.3496 15.5586 28.8437C15.5039 28.3925 15.1484 28.0644 14.4785 28.1464C13.7266 28.2422 12.8379 28.2422 12.0723 28.1601C11.457 28.0781 11.0742 28.4062 11.0059 28.8437C10.9512 29.3086 11.2383 29.7597 11.9219 29.8281Z" style="fill:var(--color-0,white)"></path>
 </g>
</svg>