<svg version="1.1" xmlns="http://www.w3.org/2000/svg" xmlns:xlink="http://www.w3.org/1999/xlink" viewBox="0 0 28.2461 27.9043">
 <g>
  
  <path d="M13.9453 27.8906C21.6426 27.8906 27.8906 21.6289 27.8906 13.9453C27.8906 6.24805 21.6426 0 13.9453 0C6.26172 0 0 6.24805 0 13.9453C0 21.6289 6.26172 27.8906 13.9453 27.8906Z" style="fill:var(--color-0,hsl(0 0 0/0.85))"></path>
  <path d="M11.457 12.7695C9.83008 12.7832 8.35352 12.1953 7.19141 10.9375C8.38086 9.35156 9.625 8.75 11.498 8.75C13.3711 8.76367 14.6016 9.46094 15.7637 10.9102C14.6289 12.168 13.1797 12.7559 11.457 12.7695ZM7.3418 16.6387C6.86328 16.4883 6.38477 16.4062 5.6875 16.4062C5.42773 16.4062 5.1543 16.4062 4.89453 16.4062C4.21094 16.4062 3.85547 16.2012 3.85547 15.8457C3.85547 15.5996 3.96484 15.4082 4.11523 15.2441C4.58008 14.875 5.20898 14.2871 5.81055 13.1523C6.08398 12.5918 6.39844 12.0996 6.68555 11.6484C7.28711 12.291 8.3125 12.9062 9.14648 13.207C9.00977 14.3145 8.27148 15.7363 7.3418 16.6387ZM11.4434 18.1016C10.0078 18.1016 9.03711 17.2812 8.23047 16.9395C9.17383 16.0098 9.80273 14.6016 9.91211 13.4668C10.418 13.5898 10.9375 13.6582 11.4844 13.6582C12.0039 13.6582 12.5371 13.5898 13.0566 13.4531C13.1387 14.6699 13.7676 16.0234 14.7383 16.9258C13.877 17.3359 12.8652 18.1016 11.4434 18.1016ZM15.5449 16.5977C14.5469 15.627 13.918 14.3008 13.8086 13.1934C14.5332 12.9199 15.5859 12.25 16.2148 11.5938C16.8848 12.6055 18.1016 15.2305 18.7988 16.1191C18.5254 16.2969 17.9238 16.3789 17.3223 16.3789C16.6113 16.3789 16.0918 16.4609 15.5449 16.5977ZM21.9297 14.9297C20.7539 14.9297 20.3438 15.4219 19.4961 15.8184C19.0039 15.1074 18.4844 14.2051 18.1426 13.6992C18.4297 13.4395 18.7852 13.0566 19.0312 12.1133C19.373 10.6641 20.3164 9.78906 21.8066 9.78906C23.5156 9.78906 24.6504 11.252 24.6504 13.3984C24.6504 14.3281 23.584 14.9297 21.9297 14.9297ZM21.957 12.7695C22.2168 12.7695 22.4902 12.5234 22.4902 12.2227C22.4902 11.9355 22.2168 11.6758 21.957 11.6758C21.6562 11.6758 21.4102 11.9355 21.4102 12.2227C21.4102 12.5234 21.6562 12.7695 21.957 12.7695ZM5.61914 19.168C4.77148 19.168 4.10156 18.7988 4.10156 18.1426C4.10156 17.623 4.60742 17.418 5.14062 17.2812C5.44141 17.2402 5.75586 17.2266 6.04297 17.1582C6.86328 17.1719 7.60156 17.541 8.32617 17.9785C7.79297 18.7031 6.69922 19.168 5.61914 19.168ZM17.0625 19.1953C15.9688 19.1953 14.875 18.7305 14.3555 18.0059C14.916 17.6504 15.8594 17.1855 16.5703 17.1582C16.9395 17.1719 17.1992 17.1719 17.541 17.1855C18.0742 17.2266 18.5664 17.6504 18.5664 18.1562C18.5664 18.8125 17.9102 19.1953 17.0625 19.1953Z" style="fill:var(--color-1,white)"></path>
 </g>
</svg>