<svg version="1.1" xmlns="http://www.w3.org/2000/svg" xmlns:xlink="http://www.w3.org/1999/xlink" viewBox="0 0 28.2461 27.9043">
 <g>
  
  <path d="M13.9453 27.8906C21.6426 27.8906 27.8906 21.6426 27.8906 13.9453C27.8906 6.24805 21.6426 0 13.9453 0C6.24805 0 0 6.24805 0 13.9453C0 21.6426 6.24805 27.8906 13.9453 27.8906ZM13.9453 25.5664C7.51953 25.5664 2.32422 20.3711 2.32422 13.9453C2.32422 7.51953 7.51953 2.32422 13.9453 2.32422C20.3711 2.32422 25.5664 7.51953 25.5664 13.9453C25.5664 20.3711 20.3711 25.5664 13.9453 25.5664Z" style="fill:var(--color-0,hsl(0 0 0/0.85))"></path>
  <path d="M11.5391 12.8105C13.2207 12.7969 14.6152 12.2227 15.7227 11.0059C14.6016 9.59766 13.3984 8.92773 11.5801 8.91406C9.76172 8.91406 8.55859 9.48828 7.39648 11.0332C8.53125 12.25 9.9668 12.8242 11.5391 12.8105ZM7.54688 16.5566C8.44922 15.6816 9.16016 14.3008 9.29688 13.2344C8.49023 12.9336 7.49219 12.3457 6.91797 11.7168C6.63086 12.1543 6.33008 12.6328 6.05664 13.1797C5.48242 14.2871 4.86719 14.8477 4.41602 15.2168C4.26562 15.3672 4.16992 15.5586 4.16992 15.791C4.16992 16.1328 4.51172 16.3379 5.16797 16.3379C5.41406 16.3379 5.6875 16.3379 5.93359 16.3379C6.61719 16.3379 7.08203 16.4199 7.54688 16.5566ZM11.5254 17.9785C12.9062 17.9785 13.8906 17.2402 14.7246 16.8438C13.7812 15.9551 13.1797 14.6562 13.0977 13.4668C12.5918 13.6035 12.0723 13.6719 11.5664 13.6719C11.0332 13.6719 10.5273 13.6035 10.0352 13.4805C9.92578 14.5879 9.32422 15.9414 8.4082 16.8574C9.1875 17.1855 10.1309 17.9785 11.5254 17.9785ZM15.5039 16.5156C16.0371 16.3926 16.543 16.3105 17.2402 16.3105C17.8145 16.3105 18.4023 16.2285 18.6621 16.0508C17.9922 15.1895 16.8027 12.6465 16.1602 11.6621C15.5449 12.3047 14.5332 12.9473 13.8223 13.2207C13.9316 14.3008 14.5469 15.5723 15.5039 16.5156ZM21.7109 14.9023C23.3105 14.9023 24.3359 14.3145 24.3359 13.4121C24.3359 11.334 23.2422 9.91211 21.5879 9.91211C20.1387 9.91211 19.2227 10.7734 18.8945 12.168C18.6484 13.084 18.3066 13.4531 18.0332 13.7129C18.3613 14.2051 18.8672 15.0801 19.3457 15.7637C20.166 15.3809 20.5625 14.9023 21.7109 14.9023ZM21.7246 12.8105C21.4375 12.8105 21.2051 12.5645 21.2051 12.2773C21.2051 12.0039 21.4375 11.7441 21.7246 11.7441C21.9844 11.7441 22.2441 12.0039 22.2441 12.2773C22.2441 12.5645 21.9844 12.8105 21.7246 12.8105ZM5.87891 19.0039C6.91797 19.0039 7.98438 18.5527 8.50391 17.8555C7.79297 17.4316 7.08203 17.0762 6.28906 17.0625C6.01562 17.1309 5.70117 17.1445 5.41406 17.1855C4.89453 17.3086 4.40234 17.5137 4.40234 18.0195C4.40234 18.6484 5.05859 19.0039 5.87891 19.0039ZM16.9805 19.0312C17.8008 19.0312 18.4434 18.6621 18.4434 18.0332C18.4434 17.541 17.9648 17.1309 17.4453 17.0898C17.1172 17.0762 16.8574 17.0762 16.502 17.0625C15.8184 17.0898 14.9023 17.541 14.3555 17.8828C14.8613 18.5801 15.9277 19.0312 16.9805 19.0312Z" style="fill:var(--color-1,hsl(0 0 0/0.85))"></path>
 </g>
</svg>