<?xml version="1.0" encoding="UTF-8"?>
<!--Generator: Apple Native CoreSVG 326-->
<!DOCTYPE svg
PUBLIC "-//W3C//DTD SVG 1.1//EN"
       "http://www.w3.org/Graphics/SVG/1.1/DTD/svg11.dtd">
<svg version="1.1" xmlns="http://www.w3.org/2000/svg" xmlns:xlink="http://www.w3.org/1999/xlink" viewBox="0 0 46.3613 27.2754">
 <g>
  <rect height="27.2754" opacity="0" width="46.3613" x="0" y="0"/>
  <path d="M16.8027 25.416C22.5996 25.416 23.1875 21.7109 28.957 21.7109C35.3965 21.7109 35.1641 18.5117 39.5527 18.5117C43.2441 18.5117 46.0059 17.2266 46.0059 14.6836C46.0059 9.24219 42.875 6.34375 39.2656 6.34375C35.5332 6.34375 33.5508 8.69531 32.7578 11.7852C32.3066 13.4668 31.5137 14.5195 30.3105 15.1211L29.4492 13.5352C25.8262 6.86328 22.4902 4.16992 16.9941 4.15625C11.0605 4.16992 8.03906 6.75391 3.60938 15.1211C2.26953 17.6777 0 18.2383 0 19.8379C0 20.959 0.861328 21.7109 2.59766 21.7109C3.13086 21.7109 3.73242 21.7109 4.33398 21.7109C10.6641 21.7109 11.9082 25.416 16.8027 25.416ZM16.8027 23.2422C12.4414 23.2422 11.1699 19.5098 4.79883 19.5098C4.10156 19.5098 3.39062 19.5234 2.74805 19.5645L2.63867 19.373C3.56836 18.5938 4.73047 17.6094 5.56445 15.9688C9.36523 8.61328 11.8945 6.34375 16.9941 6.33008C22.5723 6.34375 25.0879 10.1035 27.6855 14.7109C28.6289 16.3926 29.832 18.3066 31.0488 19.5098C30.4883 19.5234 29.8457 19.5098 29.1895 19.5098C22.7227 19.5098 21.5742 23.2422 16.8027 23.2422ZM33.2637 18.9082C32.6484 18.4297 31.9102 17.5273 31.4863 16.7617C32.9629 16.2012 33.9609 15.2031 34.5625 12.8652C35.2188 10.0488 36.709 8.4082 39.2656 8.4082C41.8633 8.4082 44.0371 10.8145 44.0371 14.3555C44.0371 15.668 42.041 16.5156 39.9629 16.5156C36.5449 16.5156 35.0137 17.7871 33.2637 18.9082ZM39.7852 13.4805C40.4551 13.4805 41.0156 12.9199 41.0156 12.25C41.0156 11.5801 40.4551 11.0195 39.7852 11.0195C39.1016 11.0195 38.541 11.5801 38.541 12.25C38.541 12.9199 39.1016 13.4805 39.7852 13.4805ZM16.8301 15.1621C21.3691 15.1621 24.7598 13.1523 27.002 10.9375L25.9902 9.46094C23.5703 11.9629 20.4668 13.3984 16.8301 13.3984C13.1934 13.3984 10.1172 12.0039 7.71094 9.46094L6.71289 10.9648C8.81836 13.0977 12.1816 15.1621 16.8301 15.1621ZM10.3906 21.9434C12.0586 20.0703 13.3438 16.9121 13.5898 14.5195L12.0996 14.0137C11.8945 16.1191 10.5273 19.4824 8.85938 21.2051ZM23.4883 21.916L25.0605 21.1914C23.3242 19.4004 22.0117 16.1875 21.834 14.0137L20.3164 14.4375C20.4668 16.9258 21.7656 20.0703 23.4883 21.916ZM4.01953 27.248C6.79492 27.248 9.66602 25.9902 11.8672 23.5703L10.1445 22.4629C7.875 24.5 5.85156 25.416 4.04688 25.416C2.84375 25.416 2.22852 25.0332 2.22852 24.377C2.22852 23.8848 2.58398 23.5566 3.63672 23.2969C4.41602 23.0918 6.75391 22.3535 7.91602 21.6562L6.23438 21C5.05859 21.5332 3.54102 21.7656 2.31055 22.2168C1.02539 22.668 0.191406 23.3516 0.191406 24.6641C0.191406 26.332 1.8457 27.248 4.01953 27.248ZM29.5176 27.2754C31.6777 27.2754 33.3457 26.373 33.3457 24.7051C33.3457 23.1191 32.1562 22.4629 30.5566 22.0254C29.4492 21.7246 28.2734 21.4785 27.3027 21.041L25.6211 21.6836C26.7832 22.3945 29.1211 23.1328 29.9004 23.3379C30.9395 23.5977 31.3086 23.9258 31.3086 24.418C31.3086 25.0605 30.6934 25.4434 29.4902 25.4434C27.6719 25.4434 25.6621 24.541 23.3926 22.5039L21.6562 23.6113C23.8164 25.9766 26.7285 27.2754 29.5176 27.2754Z" fill="white" fill-opacity="0.85"/>
 </g>
</svg>
