<svg version="1.1" xmlns="http://www.w3.org/2000/svg" xmlns:xlink="http://www.w3.org/1999/xlink" viewBox="0 0 39.2246 24.1035">
 <g>
  
  <path d="M19.4414 24.1035C30.2012 24.1035 38.8691 18.7852 38.8691 12.0449C38.8691 5.31836 30.1875 0 19.4414 0C8.68164 0 0 5.31836 0 12.0449C0 18.7852 8.6543 24.1035 19.4414 24.1035ZM19.4414 21.9023C9.95312 21.9023 2.20117 17.4043 2.20117 12.0449C2.20117 6.69922 9.9668 2.20117 19.4414 2.20117C28.9023 2.20117 36.668 6.69922 36.668 12.0449C36.668 17.4043 28.916 21.9023 19.4414 21.9023ZM28.6152 12.127C26.291 9.98047 22.9414 8.75 19.4414 8.75C15.9277 8.75 12.5918 9.98047 10.2676 12.127L11.8535 13.6719C13.7812 11.9219 16.5156 10.9512 19.4414 10.9512C22.3672 10.9512 25.1016 11.9219 27.0293 13.6719ZM8.4082 11.3066C9.63867 13.6719 13.7949 15.0938 19.4414 15.0938C25.0879 15.0938 29.2441 13.6719 30.4746 11.3066C31.0215 10.1719 29.7363 9.67969 29.2168 10.2676C27.5078 12.2773 23.2969 12.8926 19.4414 12.8926C15.7227 12.8926 11.375 12.3047 9.66602 10.2676C9.14648 9.67969 7.86133 10.1719 8.4082 11.3066Z" style="fill:var(--color-0,hsl(0 0 0/0.85))"></path>
 </g>
</svg>