<?xml version="1.0" encoding="UTF-8"?>
<!--Generator: Apple Native CoreSVG 326-->
<!DOCTYPE svg
PUBLIC "-//W3C//DTD SVG 1.1//EN"
       "http://www.w3.org/Graphics/SVG/1.1/DTD/svg11.dtd">
<svg version="1.1" xmlns="http://www.w3.org/2000/svg" xmlns:xlink="http://www.w3.org/1999/xlink" viewBox="0 0 30.4803 29.6543">
 <g>
  <rect height="29.6543" opacity="0" width="30.4803" x="0" y="0"/>
  <path d="M1.5751 19.4414C1.97159 19.3184 2.163 18.9082 2.05362 18.4434C1.71182 17.0625 1.50675 15.5996 1.5751 13.6855C1.58878 13.1797 1.31534 12.9062 0.905183 12.8789C0.37198 12.8379 0.0848703 13.166 0.0438547 13.5898C-0.0791922 15.1348 0.0438547 16.9805 0.577058 18.8809C0.713777 19.3457 1.15128 19.5781 1.5751 19.4414ZM0.973542 11.293C1.37003 11.4434 1.87589 11.2656 2.06729 10.7461C4.26846 4.59375 9.53214 1.53125 14.8778 1.53125C17.3114 1.53125 19.2255 2.02344 20.8524 2.95312C21.3173 3.22656 21.8368 3.22656 22.0419 2.77539C22.2607 2.29688 22.0146 1.99609 21.6728 1.77734C19.5946 0.478516 17.4892 0 14.8778 0C8.69815 0 3.09268 3.29492 0.577058 9.99414C0.317292 10.6777 0.577058 11.1562 0.973542 11.293ZM29.411 16.2559C29.8485 16.2559 30.163 15.9004 30.122 15.4219C29.5067 9.85742 27.6747 6.34375 24.5165 3.58203C24.12 3.22656 23.6415 3.33594 23.4091 3.60938C23.1493 3.89648 23.122 4.34766 23.5321 4.7168C26.2255 7.23242 28.1806 10.4863 28.6454 15.4492C28.7001 15.9004 28.9735 16.2559 29.411 16.2559Z" fill="#ff375f"/>
  <path d="M3.16104 23.4062C3.42081 23.7617 3.94034 23.8574 4.32315 23.5293C5.30753 22.6953 5.79971 21.3555 5.79971 19.9609C5.79971 18.0742 4.9794 17.1172 4.9794 14.7656C4.9794 9.40625 9.43643 4.94922 14.7958 4.94922C21.2626 4.94922 25.4325 10.2402 25.4462 18.0469C25.4462 21.0957 24.9403 23.2559 24.4345 24.5C24.2567 24.9238 24.4208 25.375 24.7763 25.5664C25.1591 25.7305 25.6923 25.5938 25.8564 25.1426C26.3896 23.6934 26.9774 21.3145 26.9774 18.0332C26.9774 9.32422 22.1786 3.41797 14.7958 3.41797C8.58878 3.41797 3.44815 8.57227 3.44815 14.7656C3.44815 17.0078 4.29581 18.5254 4.30948 19.9473C4.30948 20.877 3.96768 21.7656 3.3251 22.3262C2.99698 22.5996 2.94229 23.0918 3.16104 23.4062Z" fill="#ff375f"/>
  <path d="M9.31339 18.5391C8.97159 17.6094 8.41104 16.4336 8.41104 14.8477C8.41104 11.2109 11.2411 8.38086 14.8778 8.38086C16.2724 8.38086 16.7099 8.53125 17.9267 9.11914C18.3505 9.31055 18.7333 9.1875 18.8837 8.88672C19.0888 8.50391 18.9794 8.03906 18.5146 7.76562C17.6122 7.23242 16.2314 6.83594 14.8778 6.83594C10.3935 6.83594 6.86612 10.3633 6.86612 14.8477C6.86612 16.5703 7.33096 17.9648 7.80948 19.127C8.00089 19.5781 8.41104 19.7969 8.90323 19.5918C9.31339 19.4277 9.46378 18.9902 9.31339 18.5391Z" fill="#ff375f"/>
  <path d="M6.3876 25.9492C7.39932 25.4297 8.78018 23.6523 9.163 22.2441C9.27237 21.8613 9.09464 21.3965 8.67081 21.2598C8.288 21.123 7.87784 21.3555 7.72745 21.793C7.35831 22.9961 6.71573 23.8984 5.70401 24.582C5.21182 24.9238 5.14346 25.3477 5.29385 25.6621C5.45792 26.0039 5.89542 26.1953 6.3876 25.9492ZM20.0732 10.9512C21.3993 12.8789 22.0556 15.5449 22.0556 18.7715C22.0556 22.2168 21.0985 25.4707 19.6083 27.3301C19.3622 27.6582 19.3349 28.123 19.6357 28.4238C19.9638 28.7246 20.5243 28.7109 20.7978 28.3418C22.4657 26.0859 23.5595 22.5039 23.5595 18.7168C23.5595 14.5742 22.6708 12.1133 21.4267 10.1309C21.1396 9.69336 20.661 9.55664 20.2782 9.76172C19.8817 9.98047 19.7587 10.4863 20.0732 10.9512Z" fill="#ff375f"/>
  <path d="M9.2587 27.7539C11.5009 25.9492 12.7314 23.0781 12.7177 19.8926C12.704 17.4863 11.8427 15.9961 11.8427 14.6836C11.8427 12.9609 13.0595 11.8125 14.8368 11.8125C17.5712 11.8125 18.4599 14.9297 18.5419 18.6211C18.6649 22.8867 17.12 26.4961 15.0966 28.2734C14.7685 28.5469 14.7001 28.9707 14.9189 29.3125C15.1786 29.6816 15.7118 29.75 16.0673 29.4219C18.2001 27.4805 20.0048 23.2148 19.9774 18.5117C19.9638 13.918 18.6649 10.2812 14.8368 10.2812C12.2939 10.2812 10.3388 11.9766 10.3388 14.5469C10.3388 16.0918 11.1591 17.9922 11.1728 19.8926C11.1864 22.5996 10.1747 25.0332 8.30167 26.5508C7.93253 26.8516 7.87784 27.2891 8.11026 27.6309C8.39737 28.0273 8.88956 28.0684 9.2587 27.7539Z" fill="#ff375f"/>
  <path d="M12.4579 28.8477C13.538 28.0684 14.8778 26.2773 15.3974 24.5273C15.4931 24.2266 15.4247 23.7207 14.9872 23.5703C14.5224 23.4062 14.1259 23.6387 14.0028 23.9941C13.3056 25.8262 12.4442 26.9062 11.5282 27.6172C11.1864 27.8906 11.0907 28.3418 11.3232 28.6973C11.5419 29.0801 12.0751 29.1348 12.4579 28.8477ZM16.1767 21.3418C16.5595 19.4961 16.4091 17.1309 15.7392 15.0801C15.5614 14.5742 15.1649 14.3555 14.7411 14.4922C14.3446 14.6289 14.0985 14.998 14.2489 15.4766C14.8778 17.459 14.9872 19.4141 14.6728 21.1367C14.5907 21.5469 14.7548 21.9434 15.2333 22.0117C15.6708 22.0938 16.081 21.834 16.1767 21.3418Z" fill="#ff375f"/>
 </g>
</svg>
