<svg version="1.1" xmlns="http://www.w3.org/2000/svg" xmlns:xlink="http://www.w3.org/1999/xlink" viewBox="0 0 34.4395 21.6973">
 <g>
  
  <path d="M0 17.5137C0 20.3027 1.4082 21.6973 4.23828 21.6973L29.8457 21.6973C32.6758 21.6973 34.084 20.3027 34.084 17.5137L34.084 4.18359C34.084 1.39453 32.6758 0 29.8457 0L7.54688 0C5.20898 0 3.85547 1.35352 3.1582 3.45898L0.464844 11.6348C0.136719 12.5918 0 13.3984 0 14.4785ZM13.3574 10.6094L13.3574 6.39844C13.3574 5.57812 13.8496 5.09961 14.6562 5.09961L27.3164 5.09961C28.1367 5.09961 28.6152 5.57812 28.6152 6.39844L28.6152 10.6094C28.6152 11.3887 28.1367 11.8672 27.3164 11.8672L14.6562 11.8672C13.8496 11.8672 13.3574 11.3887 13.3574 10.6094ZM4.89453 11.8672C4.12891 11.8672 3.71875 11.252 4.0332 10.2812L5.41406 6.08398C5.60547 5.48242 5.90625 5.09961 6.87695 5.09961L8.43555 5.09961C9.24219 5.09961 9.73438 5.57812 9.73438 6.39844L9.73438 10.6094C9.73438 11.3887 9.24219 11.8672 8.43555 11.8672Z" style="fill:var(--color-0,hsl(0 0 0/0.85))"></path>
 </g>
</svg>