<?xml version="1.0" encoding="UTF-8"?>
<!--Generator: Apple Native CoreSVG 326-->
<!DOCTYPE svg
PUBLIC "-//W3C//DTD SVG 1.1//EN"
       "http://www.w3.org/Graphics/SVG/1.1/DTD/svg11.dtd">
<svg version="1.1" xmlns="http://www.w3.org/2000/svg" xmlns:xlink="http://www.w3.org/1999/xlink" viewBox="0 0 28.2461 27.9043">
 <g>
  <rect height="27.9043" opacity="0" width="28.2461" x="0" y="0"/>
  <path d="M13.9453 27.8906C21.6426 27.8906 27.8906 21.6426 27.8906 13.9453C27.8906 6.24805 21.6426 0 13.9453 0C6.24805 0 0 6.24805 0 13.9453C0 21.6426 6.24805 27.8906 13.9453 27.8906ZM13.9453 25.5664C7.51953 25.5664 2.32422 20.3711 2.32422 13.9453C2.32422 7.51953 7.51953 2.32422 13.9453 2.32422C20.3711 2.32422 25.5664 7.51953 25.5664 13.9453C25.5664 20.3711 20.3711 25.5664 13.9453 25.5664Z" fill="white" fill-opacity="0.85"/>
  <path d="M10.2129 19.4004L17.6504 19.4004C18.8398 19.4004 19.5234 18.5938 19.5234 17.459L19.5234 12.7012C19.5234 10.9238 19.291 9.1875 19.0176 8.09375C18.7441 6.95898 17.9785 6.125 16.8164 6.00195C16.3926 5.94727 15.2852 5.85156 13.9316 5.85156C12.5781 5.85156 11.4707 5.94727 11.0469 6.00195C9.88477 6.125 9.11914 6.95898 8.8457 8.09375C8.57227 9.1875 8.33984 10.9238 8.33984 12.7012L8.33984 17.459C8.33984 18.5938 9.02344 19.4004 10.2129 19.4004ZM13.9316 15.0117C12.3867 14.998 10.9785 14.9297 10.2676 14.8477C9.85742 14.8066 9.70703 14.5469 9.70703 14.1641L9.70703 12.6328C9.70703 11.3066 9.85742 10.2129 9.95312 9.73438C10.0215 9.43359 10.2129 9.22852 10.4863 9.1875C11.2383 9.10547 12.168 9.05078 13.9316 9.05078C15.6953 9.03711 16.625 9.10547 17.3496 9.1875C17.6504 9.22852 17.8418 9.43359 17.9102 9.73438C18.0059 10.2129 18.1562 11.3066 18.1562 12.6328L18.1562 14.1641C18.1562 14.5469 18.0059 14.8066 17.5957 14.8477C16.5293 14.957 15.1211 15.0117 13.9316 15.0117ZM10.8418 18.0059C10.3223 18.0059 9.93945 17.6367 9.93945 17.0898C9.93945 16.5703 10.3223 16.1875 10.8418 16.1875C11.375 16.1875 11.7578 16.5703 11.7578 17.0898C11.7578 17.6367 11.3613 18.0059 10.8418 18.0059ZM17.0078 18.0195C16.4883 18.0195 16.0918 17.623 16.0918 17.0898C16.0918 16.5703 16.4883 16.1738 17.0078 16.1738C17.5273 16.1738 17.9375 16.5703 17.9375 17.0898C17.9375 17.623 17.5137 18.0195 17.0078 18.0195ZM12.2363 7.92969C11.9902 7.92969 11.8262 7.76562 11.8262 7.51953C11.8262 7.28711 11.9902 7.12305 12.2363 7.12305L15.627 7.12305C15.873 7.12305 16.0508 7.28711 16.0508 7.51953C16.0508 7.76562 15.873 7.92969 15.627 7.92969ZM9.35156 22.3262L9.7207 22.3262C9.91211 22.3262 10.0215 22.2578 10.1172 22.1074L12.0039 19.0586L10.7324 19.0586L9.06445 21.7383C8.88672 22.0254 9.03711 22.3262 9.35156 22.3262ZM9.92578 21.4785L17.9375 21.4785L17.9375 20.4805L9.92578 20.4805ZM18.1699 22.3262L18.5391 22.3262C18.8535 22.3262 18.9902 22.0254 18.8125 21.7383L17.1582 19.0586L15.8867 19.0586L17.7734 22.1074C17.8691 22.2578 17.9785 22.3262 18.1699 22.3262Z" fill="white" fill-opacity="0.85"/>
 </g>
</svg>
