<?xml version="1.0" encoding="UTF-8"?>
<!--Generator: Apple Native CoreSVG 326-->
<!DOCTYPE svg
PUBLIC "-//W3C//DTD SVG 1.1//EN"
       "http://www.w3.org/Graphics/SVG/1.1/DTD/svg11.dtd">
<svg version="1.1" xmlns="http://www.w3.org/2000/svg" xmlns:xlink="http://www.w3.org/1999/xlink" viewBox="0 0 43.3809 31.2949">
 <g>
  <rect height="31.2949" opacity="0" width="43.3809" x="0" y="0"/>
  <path d="M24.6914 5.66016L24.6914 6.9043L24.0488 6.9043C23.4915 6.9043 22.9696 6.95423 22.4902 7.05776L22.4902 5.72852C22.4902 3.32227 21.1367 2.06445 18.8535 2.06445L5.83789 2.06445C3.55469 2.06445 2.20117 3.32227 2.20117 5.72852L2.20117 13.6719C2.20117 16.0918 3.56836 17.3359 5.83789 17.3359L7.27344 17.3359C7.86133 17.3359 8.32617 17.6777 8.32617 18.4434L8.32617 21.9023L12.7285 17.9648C13.2617 17.4863 13.6035 17.3359 14.3418 17.3359L18.334 17.3359L18.334 19.3867L14.2598 19.3867L9.69336 23.2969C8.87305 24.0078 8.42188 24.377 7.75195 24.377C6.80859 24.377 6.27539 23.707 6.27539 22.668L6.27539 19.3867L5.71484 19.3867C2.2832 19.3867 0 17.3223 0 13.7402L0 5.66016C0 2.07812 2.2832 0 5.71484 0L18.9766 0C22.4082 0 24.6914 2.07812 24.6914 5.66016Z" fill="white" fill-opacity="0.85"/>
  <path d="M13.7949 4.7168L17.1719 13.7812C17.4453 14.5332 17.0488 15.2305 16.2422 15.2305C15.7227 15.2305 15.4082 14.9434 15.2031 14.3691L14.3691 11.9629L10.3496 11.9629L9.51562 14.3691C9.32422 14.9434 8.99609 15.2305 8.47656 15.2305C7.68359 15.2305 7.27344 14.5332 7.54688 13.7812L10.9102 4.7168C11.1562 4.04688 11.6621 3.67773 12.3457 3.67773C13.0566 3.67773 13.5488 4.04688 13.7949 4.7168ZM10.9102 10.2812L13.7949 10.2812L12.3525 6.0743Z" fill="white" fill-opacity="0.85"/>
  <path d="M43.0254 12.5645L43.0254 20.6445C43.0254 24.2129 40.7422 26.291 37.3105 26.291L36.7363 26.291L36.7363 29.5723C36.7363 30.6113 36.2168 31.2812 35.2734 31.2812C34.6035 31.2812 34.1523 30.9121 33.332 30.2012L28.752 26.291L24.0488 26.291C20.4531 26.291 18.334 24.2266 18.334 20.6445L18.334 12.5645C18.334 8.98242 20.4531 6.9043 24.0488 6.9043L37.3105 6.9043C40.7422 6.9043 43.0254 8.98242 43.0254 12.5645ZM26.3047 13.4531C25.7441 13.4531 25.334 13.8359 25.334 14.3555C25.334 14.8887 25.7441 15.2852 26.3047 15.2852L27.3438 15.2852C27.7129 16.625 28.4102 17.8965 29.3672 18.9629C28.4375 19.5781 27.3574 20.0293 26.1133 20.3301C25.5801 20.4531 25.2656 20.959 25.375 21.5059C25.5254 22.0527 26.0723 22.2988 26.6602 22.1348C28.1504 21.8066 29.5449 21.1777 30.7891 20.2617C31.9785 21.1641 33.373 21.793 34.7539 22.1211C35.4238 22.2852 35.9844 22.0801 36.1348 21.5059C36.2852 20.918 36.0117 20.4531 35.4238 20.3301C34.1797 20.043 33.1133 19.5918 32.1562 18.9629C33.127 17.9238 33.8105 16.666 34.1797 15.2852L35.2324 15.2852C35.793 15.2852 36.2031 14.8887 36.2031 14.3555C36.2031 13.8359 35.793 13.4531 35.2324 13.4531ZM30.7891 17.8008C30.1191 17.0625 29.5859 16.2012 29.2715 15.2852L32.2656 15.2852C31.9512 16.1875 31.4453 17.0488 30.7891 17.8008ZM29.4219 9.83008C28.957 10.0488 28.752 10.6094 28.998 11.1152L29.6543 12.4961C29.873 12.9883 30.4336 13.1797 30.9121 12.9746C31.418 12.7148 31.623 12.168 31.377 11.6758L30.707 10.3086C30.4609 9.78906 29.9141 9.55664 29.4219 9.83008Z" fill="white" fill-opacity="0.85"/>
 </g>
</svg>
