<?xml version="1.0" encoding="UTF-8"?>
<!--Generator: Apple Native CoreSVG 326-->
<!DOCTYPE svg
PUBLIC "-//W3C//DTD SVG 1.1//EN"
       "http://www.w3.org/Graphics/SVG/1.1/DTD/svg11.dtd">
<svg version="1.1" xmlns="http://www.w3.org/2000/svg" xmlns:xlink="http://www.w3.org/1999/xlink" viewBox="0 0 33.4277 24.2771">
 <g>
  <rect height="24.2771" opacity="0" width="33.4277" x="0" y="0"/>
  <path d="M9.07812 21.3876L23.9941 23.9989C26.6055 24.4638 28.1641 22.8231 28.1641 19.8974L28.1641 4.20204C28.1641 1.12587 26.7148-0.391712 23.9941 0.0868031L9.07812 2.7118C6.35742 3.19032 4.9082 4.51649 4.9082 6.81337L4.9082 17.2724C4.9082 19.5556 6.35742 20.9091 9.07812 21.3876ZM8.96875 19.3231C7.66992 19.1044 6.97266 18.4481 6.97266 17.2997L6.97266 6.78602C6.97266 5.63758 7.66992 4.98133 8.96875 4.76258L24.1035 2.15126C25.4023 1.93251 26.0996 2.65712 26.0996 4.17469L26.0996 19.9247C26.0996 21.3739 25.3613 22.1532 24.1035 21.9481ZM1.09375 13.0751L31.9785 13.0751C32.6621 13.0751 33.0723 12.6786 33.0723 12.0497C33.0723 11.3934 32.6621 11.0106 31.9785 11.0106L1.09375 11.0106C0.410156 11.0106 0 11.3934 0 12.0497C0 12.6786 0.410156 13.0751 1.09375 13.0751Z" fill="white" fill-opacity="0.85"/>
 </g>
</svg>
