<?xml version="1.0" encoding="UTF-8"?>
<!--Generator: Apple Native CoreSVG 326-->
<!DOCTYPE svg
PUBLIC "-//W3C//DTD SVG 1.1//EN"
       "http://www.w3.org/Graphics/SVG/1.1/DTD/svg11.dtd">
<svg version="1.1" xmlns="http://www.w3.org/2000/svg" xmlns:xlink="http://www.w3.org/1999/xlink" viewBox="0 0 28.2461 27.9043">
 <g>
  <rect height="27.9043" opacity="0" width="28.2461" x="0" y="0"/>
  <path d="M27.8906 13.9453C27.8906 21.6426 21.6426 27.8906 13.9453 27.8906C6.24805 27.8906 0 21.6426 0 13.9453C0 6.24805 6.24805 0 13.9453 0C21.6426 0 27.8906 6.24805 27.8906 13.9453ZM2.32422 13.9453C2.32422 20.3711 7.51953 25.5664 13.9453 25.5664C20.3711 25.5664 25.5664 20.3711 25.5664 13.9453C25.5664 7.51953 20.3711 2.32422 13.9453 2.32422C7.51953 2.32422 2.32422 7.51953 2.32422 13.9453Z" fill="#ff453a"/>
  <path d="M10.8604 13.089L11.0879 19.4141C11.0879 19.6875 11.3066 19.8789 11.5801 19.8789C11.8809 19.8789 12.0586 19.6875 12.0586 19.4141L11.8862 14.1147L13.4121 15.6406L13.4121 19.4141C13.4121 19.6875 13.6035 19.8789 13.9043 19.8789C14.2188 19.8789 14.4238 19.6875 14.4238 19.4141L14.4238 16.6523L15.8085 18.037L15.7637 19.4141C15.7637 19.6875 15.9414 19.8789 16.2422 19.8789C16.5156 19.8789 16.7344 19.6875 16.7344 19.4141L16.75 18.9786L18.8844 21.1129C18.6772 21.6841 18.1741 21.998 17.4727 21.998L10.4043 21.998C9.47461 21.998 8.94141 21.4785 8.90039 20.5625L8.47669 10.7052ZM17.2539 7.47852L17.2539 8.58594L20.5352 8.58594C20.8633 8.58594 21.1367 8.8457 21.123 9.17383C21.1094 9.48828 20.8633 9.74805 20.5352 9.74805L19.4414 9.74805L19.1435 16.8877L16.9057 14.6498L17.0215 11.4297C17.0215 11.1426 16.8438 10.9512 16.5293 10.9512C16.2422 10.9512 16.0234 11.1289 16.0234 11.4297L15.9498 13.6939L14.4238 12.168L14.4238 11.4297C14.4238 11.1426 14.2188 10.9512 13.9043 10.9512C13.6919 10.9512 13.534 11.0466 13.46 11.2041L10.6094 8.35352L10.6094 7.47852C10.6094 6.34375 11.3477 5.63281 12.5371 5.63281L15.2988 5.63281C16.502 5.63281 17.2539 6.34375 17.2539 7.47852ZM12.6191 6.95898C12.25 6.95898 11.9902 7.19141 11.9902 7.54688L11.9902 8.58594L15.8457 8.58594L15.8457 7.54688C15.8457 7.19141 15.5859 6.95898 15.2168 6.95898Z" fill="#ff453a"/>
  <path d="M19.7969 20.6445C20.0293 20.877 20.4395 20.8906 20.6719 20.6445C20.918 20.3984 20.918 20.0156 20.6719 19.7695L8.14844 7.23242C7.90234 6.98633 7.50586 6.98633 7.25977 7.23242C7.01367 7.47852 7.02734 7.875 7.25977 8.10742Z" fill="#ff453a"/>
 </g>
</svg>
