<svg version="1.1" xmlns="http://www.w3.org/2000/svg" xmlns:xlink="http://www.w3.org/1999/xlink" viewBox="0 0 28.2461 27.9043">
 <g>
  
  <path d="M13.9453 27.9043C21.6426 27.9043 27.8906 21.6562 27.8906 13.959C27.8906 6.27539 21.6426 0.0136719 13.9453 0.0136719C6.26172 0.0136719 0 6.27539 0 13.959C0 21.6562 6.26172 27.9043 13.9453 27.9043Z" style="fill:var(--color-0,#ff3b30)"></path>
  <path d="M10.3086 22.2715C9.35156 22.2715 8.79102 21.7383 8.76367 20.7812L8.27148 9.63867L7.12305 9.63867C6.79492 9.63867 6.52148 9.37891 6.52148 9.05078C6.52148 8.70898 6.79492 8.43555 7.12305 8.43555L10.5137 8.43555L10.5137 7.30078C10.5137 6.13867 11.2793 5.38672 12.5098 5.38672L15.3535 5.38672C16.5977 5.38672 17.377 6.13867 17.377 7.30078L17.377 8.43555L20.7539 8.43555C21.0957 8.43555 21.3691 8.70898 21.3555 9.05078C21.3418 9.37891 21.0957 9.63867 20.7539 9.63867L19.6465 9.63867L19.168 20.7812C19.127 21.7383 18.5391 22.2715 17.5957 22.2715ZM11.5254 20.084C11.8262 20.084 12.0176 19.8789 12.0176 19.6055L11.7441 11.375C11.7441 11.0742 11.5254 10.8828 11.2383 10.8828C10.8965 10.8828 10.7188 11.0742 10.7188 11.375L11.0059 19.6055C11.0059 19.8789 11.2383 20.084 11.5254 20.084ZM13.9316 20.084C14.2461 20.084 14.4512 19.8789 14.4512 19.6055L14.4512 11.375C14.4512 11.0742 14.2461 10.8828 13.9316 10.8828C13.6035 10.8828 13.4121 11.0742 13.4121 11.375L13.4121 19.6055C13.4121 19.8789 13.6172 20.084 13.9316 20.084ZM16.3242 20.084C16.6113 20.084 16.8438 19.8789 16.8438 19.6055L17.1309 11.375C17.1309 11.0742 16.9531 10.8828 16.625 10.8828C16.3242 10.8828 16.1191 11.0742 16.1055 11.375L15.832 19.6055C15.832 19.8789 16.0234 20.084 16.3242 20.084ZM11.9492 8.43555L15.9141 8.43555L15.9141 7.38281C15.9141 7.01367 15.6543 6.76758 15.2715 6.76758L12.5918 6.76758C12.209 6.76758 11.9492 7.01367 11.9492 7.38281Z" style="fill:var(--color-1,white)"></path>
 </g>
</svg>