<?xml version="1.0" encoding="UTF-8"?>
<!--Generator: Apple Native CoreSVG 326-->
<!DOCTYPE svg
PUBLIC "-//W3C//DTD SVG 1.1//EN"
       "http://www.w3.org/Graphics/SVG/1.1/DTD/svg11.dtd">
<svg version="1.1" xmlns="http://www.w3.org/2000/svg" xmlns:xlink="http://www.w3.org/1999/xlink" viewBox="0 0 32.5938 23.3652">
 <g>
  <rect height="23.3652" opacity="0" width="32.5938" x="0" y="0"/>
  <path d="M4.29297 23.3652L27.9453 23.3652C30.8164 23.3652 32.2383 21.9434 32.2383 19.127L32.2383 11.0332C32.2383 9.80273 32.0742 9.1875 31.459 8.43555L26.7422 2.59766C25.1426 0.628906 24.4316 0.0273438 21.998 0.0273438L10.2402 0.0273438C7.80664 0.0273438 7.10938 0.628906 5.50977 2.59766L0.779297 8.43555C0.177734 9.1875 0 9.80273 0 11.0332L0 19.127C0 21.957 1.43555 23.3652 4.29297 23.3652ZM2.88477 10.2129C2.43359 10.2129 2.33789 9.81641 2.57031 9.5293L7.64258 3.13086C8.3125 2.2832 9.07812 1.94141 10.0762 1.94141L22.1621 1.94141C23.1602 1.94141 23.9258 2.2832 24.5957 3.13086L29.6816 9.5293C29.9004 9.81641 29.8184 10.2129 29.3672 10.2129L20.3438 10.2129C19.6328 10.2129 19.3047 10.7461 19.3047 11.3203L19.3047 11.3613C19.3047 12.9473 18.0605 14.6289 16.1191 14.6289C14.1914 14.6289 12.9473 12.9473 12.9473 11.3613L12.9473 11.3203C12.9473 10.7461 12.6055 10.2129 11.8945 10.2129ZM4.32031 21.1641C2.95312 21.1641 2.20117 20.4395 2.20117 19.0176L2.20117 12.209L10.8691 12.209C11.1973 14.7656 13.3438 16.6523 16.1191 16.6523C18.8945 16.6523 21.041 14.752 21.3691 12.209L30.0371 12.209L30.0371 19.0176C30.0371 20.4395 29.2715 21.1641 27.918 21.1641Z" fill="white" fill-opacity="0.85"/>
 </g>
</svg>
