<?xml version="1.0" encoding="UTF-8"?>
<!--Generator: Apple Native CoreSVG 326-->
<!DOCTYPE svg
PUBLIC "-//W3C//DTD SVG 1.1//EN"
       "http://www.w3.org/Graphics/SVG/1.1/DTD/svg11.dtd">
<svg version="1.1" xmlns="http://www.w3.org/2000/svg" xmlns:xlink="http://www.w3.org/1999/xlink" viewBox="0 0 32.5938 34.8223">
 <g>
  <rect height="34.8223" opacity="0" width="32.5938" x="0" y="0"/>
  <path d="M26.7422 11.0469L31.459 17.4453C32.0469 18.2246 32.2383 18.7988 32.2383 20.043L32.2383 27.5898C32.2383 30.4062 30.8164 31.8281 27.9453 31.8281L4.29297 31.8281C1.43555 31.8281 0 30.4062 0 27.5898L0 20.043C0 18.7988 0.205078 18.2246 0.779297 17.4453L5.50977 11.0469C7 9.00977 7.80664 8.47656 10.2402 8.47656L12.4688 8.47656L12.4688 10.4043L10.0762 10.4043C9.07812 10.4043 8.27148 10.7051 7.64258 11.5801L2.58398 18.5391C2.36523 18.8398 2.46094 19.209 2.91211 19.209L11.6211 19.209C12.3867 19.209 12.7559 19.7969 12.7559 20.3984L12.7559 20.4531C12.7559 22.1348 14.0684 23.8984 16.1191 23.8984C18.1836 23.8984 19.4961 22.1348 19.4961 20.4531L19.4961 20.3984C19.4961 19.7969 19.8516 19.209 20.6172 19.209L29.3262 19.209C29.7773 19.209 29.8594 18.8398 29.6543 18.5391L24.5957 11.5801C23.9668 10.7051 23.1602 10.4043 22.1621 10.4043L19.7695 10.4043L19.7695 8.47656L21.998 8.47656C24.4316 8.47656 25.252 9.00977 26.7422 11.0469Z" fill="white" fill-opacity="0.85"/>
  <path d="M16.1191 0C15.5312 0 15.0391 0.478516 15.0391 1.05273L15.0391 13.5898L15.1211 15.6406L14.3418 14.834L12.2363 12.5781C12.0449 12.3594 11.7441 12.25 11.4844 12.25C10.9102 12.25 10.5 12.6602 10.5 13.207C10.5 13.5078 10.6094 13.7266 10.8145 13.9316L15.3262 18.2793C15.5996 18.5527 15.8457 18.6348 16.1191 18.6348C16.4062 18.6348 16.6387 18.5527 16.9121 18.2793L21.4238 13.9316C21.6289 13.7266 21.7383 13.5078 21.7383 13.207C21.7383 12.6602 21.3145 12.25 20.7402 12.25C20.4805 12.25 20.1934 12.3594 20.002 12.5781L17.8965 14.834L17.1172 15.6406L17.2129 13.5898L17.2129 1.05273C17.2129 0.478516 16.707 0 16.1191 0Z" fill="white" fill-opacity="0.85"/>
 </g>
</svg>
