<svg version="1.1" xmlns="http://www.w3.org/2000/svg" xmlns:xlink="http://www.w3.org/1999/xlink" viewBox="0 0 32.5938 31.3223">
 <g>
  
  <path d="M2.20117 27.1387C2.20117 28.5605 2.95312 29.2988 4.32031 29.2988L27.918 29.2988C29.2715 29.2988 30.0371 28.5605 30.0371 27.1387L30.0371 20.7539L21.3691 20.7539C21.041 23.2969 18.8945 25.1973 16.1191 25.1973C13.3438 25.1973 11.1973 23.2969 10.8691 20.7539L13.0649 20.7539C13.4137 22.035 14.5358 23.1602 16.1191 23.1602C17.7137 23.1602 18.8379 22.035 19.187 20.7539L27.9453 20.7539C30.2833 20.7539 31.6603 19.8201 32.0906 18.048C32.2155 18.5129 32.2383 19.0587 32.2383 19.7148L32.2383 27.2617C32.2383 29.9004 30.8164 31.3086 27.9453 31.3086L4.29297 31.3086C1.43555 31.3086 0 29.9004 0 27.2617L0 19.7148C0 19.0576 0.0228958 18.5109 0.14837 18.0456C0.580871 19.8193 1.96506 20.7539 4.29297 20.7539L2.20117 20.7539Z" style="fill:var(--color-0,hsl(0 0 0/0.85))"></path>
  <path d="M4.29297 20.7539L27.9453 20.7539C30.8164 20.7539 32.2383 19.3457 32.2383 16.707L32.2383 9.16016C32.2383 7.91602 32.1562 7.08203 31.459 6.41211L26.6191 1.83203C25.1289 0.451172 24.0625 0 22.0391 0L10.1992 0C8.18945 0 7.10938 0.451172 5.63281 1.83203L0.779297 6.41211C0.0820312 7.08203 0 7.91602 0 9.16016L0 16.707C0 19.3457 1.43555 20.7539 4.29297 20.7539ZM16.1191 12.6055C14.1914 12.6055 12.9473 10.9375 12.9473 9.35156L12.9473 9.29688C12.9473 8.73633 12.6055 8.18945 11.8945 8.18945L2.67969 8.18945C2.29688 8.18945 2.1875 7.83398 2.47461 7.56055L7.31445 2.99414C8.14844 2.21484 8.69531 1.92773 9.99414 1.92773L22.2441 1.92773C23.5566 1.92773 24.0898 2.21484 24.9238 2.99414L29.7637 7.56055C30.0508 7.83398 29.9414 8.18945 29.5586 8.18945L20.3438 8.18945C19.6328 8.18945 19.3047 8.73633 19.3047 9.29688L19.3047 9.35156C19.3047 10.9375 18.0605 12.6055 16.1191 12.6055ZM16.1191 14.6426C18.8945 14.6426 21.041 12.7422 21.3691 10.1992L30.0371 10.1992L30.0371 16.584C30.0371 18.0059 29.2715 18.7441 27.918 18.7441L4.32031 18.7441C2.95312 18.7441 2.20117 18.0059 2.20117 16.584L2.20117 10.1992L10.8691 10.1992C11.1973 12.7422 13.3438 14.6426 16.1191 14.6426Z" style="fill:var(--color-1,hsl(0 0 0/0.85))"></path>
 </g>
</svg>