<svg version="1.1" xmlns="http://www.w3.org/2000/svg" xmlns:xlink="http://www.w3.org/1999/xlink" viewBox="0 0 32.5938 35.6699">
 <g>
  
  <path d="M26.7422 11.4707L31.459 17.3223C32.0742 18.0605 32.2383 18.6758 32.2383 19.9199L32.2383 28.0137C32.2383 30.8301 30.8164 32.252 27.9453 32.252L4.29297 32.252C1.43555 32.252 0 30.8301 0 28.0137L0 19.9199C0 18.6758 0.177734 18.0605 0.779297 17.3223L5.50977 11.4707C7.10938 9.50195 7.80664 8.90039 10.2402 8.90039L12.4688 8.90039L12.4688 10.8281L10.0762 10.8281C9.07812 10.8281 8.3125 11.1562 7.64258 12.0039L2.57031 18.416C2.33789 18.7031 2.43359 19.0859 2.88477 19.0859L11.8945 19.0859C12.6055 19.0859 12.9473 19.6328 12.9473 20.1934L12.9473 20.248C12.9473 21.834 14.1914 23.502 16.1191 23.502C18.0605 23.502 19.3047 21.834 19.3047 20.248L19.3047 20.1934C19.3047 19.6328 19.6328 19.0859 20.3438 19.0859L29.3672 19.0859C29.8184 19.0859 29.9004 18.7031 29.6816 18.416L24.5957 12.0039C23.9258 11.1562 23.1602 10.8281 22.1621 10.8281L19.7695 10.8281L19.7695 8.90039L21.998 8.90039C24.4316 8.90039 25.1426 9.50195 26.7422 11.4707ZM2.20117 21.0957L2.20117 27.8906C2.20117 29.3125 2.95312 30.0508 4.32031 30.0508L27.918 30.0508C29.2715 30.0508 30.0371 29.3125 30.0371 27.8906L30.0371 21.0957L21.3691 21.0957C21.041 23.6387 18.8945 25.5391 16.1191 25.5391C13.3438 25.5391 11.1973 23.6523 10.8691 21.0957Z" style="fill:var(--color-0,hsl(0 0 0/0.85))"></path>
  <path d="M16.1191 18.6484C16.707 18.6484 17.2129 18.1699 17.2129 17.5957L17.2129 5.04492L17.1172 3.00781L17.8965 3.81445L20.002 6.07031C20.1934 6.28906 20.4805 6.39844 20.7402 6.39844C21.3145 6.39844 21.7383 5.98828 21.7383 5.42773C21.7383 5.14062 21.6289 4.92188 21.4238 4.7168L16.9121 0.369141C16.6387 0.0957031 16.4062 0 16.1191 0C15.8457 0 15.5996 0.0957031 15.3262 0.369141L10.8145 4.7168C10.6094 4.92188 10.5 5.14062 10.5 5.42773C10.5 5.98828 10.9102 6.39844 11.4844 6.39844C11.7441 6.39844 12.0449 6.28906 12.2363 6.07031L14.3418 3.81445L15.1211 2.99414L15.0391 5.04492L15.0391 17.5957C15.0391 18.1699 15.5312 18.6484 16.1191 18.6484Z" style="fill:var(--color-1,hsl(0 0 0/0.85))"></path>
 </g>
</svg>