<?xml version="1.0" encoding="UTF-8"?>
<!--Generator: Apple Native CoreSVG 326-->
<!DOCTYPE svg
PUBLIC "-//W3C//DTD SVG 1.1//EN"
       "http://www.w3.org/Graphics/SVG/1.1/DTD/svg11.dtd">
<svg version="1.1" xmlns="http://www.w3.org/2000/svg" xmlns:xlink="http://www.w3.org/1999/xlink" viewBox="0 0 32.5938 23.3652">
 <g>
  <rect height="23.3652" opacity="0" width="32.5938" x="0" y="0"/>
  <path d="M10.377 5.1543L21.8613 5.1543C22.2305 5.1543 22.5176 4.86719 22.5176 4.48438C22.5176 4.12891 22.2305 3.8418 21.8613 3.8418L10.377 3.8418C10.0078 3.8418 9.7207 4.12891 9.7207 4.48438C9.7207 4.86719 10.0078 5.1543 10.377 5.1543ZM8.55859 8.3125L23.6797 8.3125C24.0625 8.3125 24.3633 8.01172 24.3633 7.64258C24.3633 7.27344 24.0625 6.93164 23.6797 6.93164L8.55859 6.93164C8.17578 6.93164 7.875 7.27344 7.875 7.64258C7.875 8.01172 8.17578 8.3125 8.55859 8.3125ZM4.29297 23.3652L27.9453 23.3652C30.8164 23.3652 32.2383 21.9434 32.2383 19.127L32.2383 11.5801C32.2383 10.3496 32.0469 9.77539 31.459 8.98242L26.7422 2.59766C25.252 0.560547 24.4316 0.0273438 21.998 0.0273438L10.2402 0.0273438C7.80664 0.0273438 7 0.560547 5.50977 2.59766L0.779297 8.98242C0.205078 9.77539 0 10.3496 0 11.5801L0 19.127C0 21.957 1.43555 23.3652 4.29297 23.3652ZM16.1191 15.4492C14.0684 15.4492 12.7559 13.6719 12.7559 11.9902L12.7559 11.9492C12.7559 11.334 12.3867 10.7598 11.6211 10.7598L2.91211 10.7598C2.46094 10.7598 2.36523 10.377 2.58398 10.0762L7.64258 3.13086C8.27148 2.25586 9.07812 1.94141 10.0762 1.94141L22.1621 1.94141C23.1602 1.94141 23.9668 2.25586 24.5957 3.13086L29.6543 10.0762C29.8594 10.377 29.7773 10.7598 29.3262 10.7598L20.6172 10.7598C19.8516 10.7598 19.4961 11.334 19.4961 11.9492L19.4961 11.9902C19.4961 13.6719 18.1836 15.4492 16.1191 15.4492Z" fill="white" fill-opacity="0.85"/>
 </g>
</svg>
