<?xml version="1.0" encoding="UTF-8"?>
<!--Generator: Apple Native CoreSVG 326-->
<!DOCTYPE svg
PUBLIC "-//W3C//DTD SVG 1.1//EN"
       "http://www.w3.org/Graphics/SVG/1.1/DTD/svg11.dtd">
<svg version="1.1" xmlns="http://www.w3.org/2000/svg" xmlns:xlink="http://www.w3.org/1999/xlink" viewBox="0 0 28.2461 27.9043">
 <g>
  <rect height="27.9043" opacity="0" width="28.2461" x="0" y="0"/>
  <path d="M13.9453 27.8906C21.6426 27.8906 27.8906 21.6426 27.8906 13.9453C27.8906 6.24805 21.6426 0 13.9453 0C6.24805 0 0 6.24805 0 13.9453C0 21.6426 6.24805 27.8906 13.9453 27.8906ZM13.9453 25.5664C7.51953 25.5664 2.32422 20.3711 2.32422 13.9453C2.32422 7.51953 7.51953 2.32422 13.9453 2.32422C20.3711 2.32422 25.5664 7.51953 25.5664 13.9453C25.5664 20.3711 20.3711 25.5664 13.9453 25.5664Z" fill="white" fill-opacity="0.85"/>
  <path d="M8.06641 19.4688L19.8242 19.4688C21.2461 19.4688 21.957 18.7578 21.957 17.3633L21.957 13.6309C21.957 13.002 21.8477 12.7285 21.5605 12.332L19.1543 9.07812C18.3613 7.99805 17.8965 7.73828 16.707 7.73828L11.1836 7.73828C9.99414 7.73828 9.51562 7.99805 8.73633 9.07812L6.33008 12.332C6.04297 12.7285 5.93359 13.002 5.93359 13.6309L5.93359 17.3633C5.93359 18.7578 6.6582 19.4688 8.06641 19.4688ZM7.84766 13.1797C7.64258 13.1797 7.60156 13.002 7.69727 12.8652L10.0625 9.63867C10.3359 9.25586 10.623 9.10547 11.1016 9.10547L16.8027 9.10547C17.2812 9.10547 17.5684 9.26953 17.8281 9.63867L20.207 12.8652C20.3027 12.9883 20.248 13.1797 20.043 13.1797L16.1055 13.1797C15.75 13.1797 15.5859 13.4531 15.5859 13.7402L15.5859 13.9043C15.5859 14.8477 14.9434 15.4492 13.9453 15.4492C12.9473 15.4492 12.332 14.8477 12.332 13.9043L12.332 13.7402C12.332 13.4531 12.1406 13.1797 11.7852 13.1797Z" fill="white" fill-opacity="0.85"/>
 </g>
</svg>
