<svg version="1.1" xmlns="http://www.w3.org/2000/svg" xmlns:xlink="http://www.w3.org/1999/xlink" viewBox="0 0 28.2461 27.9043">
 <g>
  
  <path d="M13.9453 27.8906C21.6426 27.8906 27.8906 21.6426 27.8906 13.9453C27.8906 6.24805 21.6426 0 13.9453 0C6.24805 0 0 6.24805 0 13.9453C0 21.6426 6.24805 27.8906 13.9453 27.8906ZM13.9453 25.5664C7.51953 25.5664 2.32422 20.3711 2.32422 13.9453C2.32422 7.51953 7.51953 2.32422 13.9453 2.32422C20.3711 2.32422 25.5664 7.51953 25.5664 13.9453C25.5664 20.3711 20.3711 25.5664 13.9453 25.5664Z" style="fill:var(--color-0,#28cd41)"></path>
  <path d="M6.08398 15.9004C6.08398 17.3496 7.06836 18.3613 8.47656 18.3613C8.91406 18.3613 9.41992 18.252 9.93945 17.9922C10.3223 18.334 11.252 18.8125 12.3184 18.8535C12.1133 17.8965 11.4434 16.5566 11.0469 15.832C11.9902 15.75 12.4688 15.2441 12.7285 14.5469C13.0703 14.7793 13.4395 14.9297 13.9316 14.9297C14.4238 14.9297 14.8066 14.7793 15.1348 14.5469C15.3945 15.2441 15.8867 15.75 16.8164 15.832C16.4199 16.5566 15.7637 17.8965 15.5449 18.8535C16.6113 18.8125 17.541 18.334 17.9238 17.9922C18.4434 18.252 18.9492 18.3613 19.3867 18.3613C20.7949 18.3613 21.793 17.3496 21.793 15.9004C21.793 15.1621 21.4648 14.3828 20.7949 13.6719C21.3281 13.0977 21.5605 12.4277 21.5605 11.7441C21.5605 10.2949 20.4395 8.94141 19.0449 8.79102C19.0039 7.36914 17.4316 6.37109 15.9414 6.37109C15.1758 6.37109 14.4648 6.61719 13.9316 7.16406C13.3984 6.61719 12.7012 6.37109 11.9219 6.37109C10.4453 6.37109 8.87305 7.36914 8.81836 8.79102C7.42383 8.94141 6.30273 10.2949 6.30273 11.7441C6.30273 12.4277 6.53516 13.0977 7.06836 13.6719C6.39844 14.3828 6.08398 15.1621 6.08398 15.9004ZM13.9316 22.2168C14.5059 22.2168 14.8887 22.0254 14.8887 21.7383C14.8887 21.3691 14.7793 20.3027 14.7793 19.4277C14.7793 18.334 15.6406 16.5566 16.707 14.4922L15.9141 14.041C15.0938 15.5312 14.7793 16.1875 14.4375 16.9395L14.3965 14.0547L13.4121 14L13.4258 16.9531C13.0977 16.1875 12.7422 15.4766 12.0039 14.2324L11.3887 15.0527C12.2227 16.5566 13.084 18.334 13.084 19.4277C13.084 20.3027 12.9746 21.3691 12.9746 21.7383C12.9746 22.0254 13.3574 22.2168 13.9316 22.2168Z" style="fill:var(--color-1,#28cd41)"></path>
 </g>
</svg>