<svg version="1.1" xmlns="http://www.w3.org/2000/svg" xmlns:xlink="http://www.w3.org/1999/xlink" viewBox="0 0 28.2461 27.9043">
 <g>
  
  <path d="M13.9453 27.8906C21.6426 27.8906 27.8906 21.6426 27.8906 13.9453C27.8906 6.24805 21.6426 0 13.9453 0C6.24805 0 0 6.24805 0 13.9453C0 21.6426 6.24805 27.8906 13.9453 27.8906ZM13.9453 25.5664C7.51953 25.5664 2.32422 20.3711 2.32422 13.9453C2.32422 7.51953 7.51953 2.32422 13.9453 2.32422C20.3711 2.32422 25.5664 7.51953 25.5664 13.9453C25.5664 20.3711 20.3711 25.5664 13.9453 25.5664Z" style="fill:var(--color-0,hsl(0 0 0/0.85))"></path>
  <path d="M7.04102 16.6113C6.15234 18.1562 6.84961 19.6602 8.59961 19.6602L19.3047 19.6602C21.041 19.6602 21.752 18.1562 20.8496 16.6113L15.668 7.60156C14.8203 6.125 13.0977 6.08398 12.209 7.61523ZM8.83203 17.3359L13.7129 8.81836C13.8223 8.61328 14.0547 8.62695 14.1641 8.81836L19.0723 17.3359C19.1953 17.541 19.1406 17.7598 18.8535 17.7598L9.03711 17.7598C8.76367 17.7598 8.69531 17.541 8.83203 17.3359Z" style="fill:var(--color-1,hsl(0 0 0/0.85))"></path>
 </g>
</svg>