<svg version="1.1" xmlns="http://www.w3.org/2000/svg" xmlns:xlink="http://www.w3.org/1999/xlink" viewBox="0 0 30.4199 27.0293">
 <g>
  
  <path d="M1.88672 26.332L28.1777 26.332C29.5039 26.332 30.0645 25.6211 30.0645 24.8008C30.0645 24.459 29.9688 24.0898 29.7773 23.7344L16.5566 0.833984C16.2422 0.273438 15.6406 0 15.0391 0C14.4238 0 13.8359 0.273438 13.5078 0.833984L0.300781 23.7344C0.109375 24.0898 0 24.459 0 24.8008C0 25.6211 0.560547 26.332 1.88672 26.332ZM3.08984 24.1855C2.87109 24.1855 2.74805 24.0762 2.74805 23.9121C2.74805 23.8438 2.76172 23.7754 2.81641 23.6934L14.7656 2.95312C14.8477 2.83008 14.9297 2.77539 15.0391 2.77539C15.1348 2.77539 15.2168 2.83008 15.2988 2.95312L27.2617 23.6934C27.3027 23.7754 27.3301 23.8438 27.3301 23.9121C27.3301 24.0762 27.1934 24.1855 26.9746 24.1855Z" style="fill:var(--color-0,hsl(0 0 0/0.85))"></path>
 </g>
</svg>