<?xml version="1.0" encoding="UTF-8"?>
<!--Generator: Apple Native CoreSVG 326-->
<!DOCTYPE svg
PUBLIC "-//W3C//DTD SVG 1.1//EN"
       "http://www.w3.org/Graphics/SVG/1.1/DTD/svg11.dtd">
<svg version="1.1" xmlns="http://www.w3.org/2000/svg" xmlns:xlink="http://www.w3.org/1999/xlink" viewBox="0 0 28.2461 27.9043">
 <g>
  <rect height="27.9043" opacity="0" width="28.2461" x="0" y="0"/>
  <path d="M13.9453 27.8906C21.6426 27.8906 27.8906 21.6426 27.8906 13.9453C27.8906 6.24805 21.6426 0 13.9453 0C6.24805 0 0 6.24805 0 13.9453C0 21.6426 6.24805 27.8906 13.9453 27.8906ZM13.9453 25.5664C7.51953 25.5664 2.32422 20.3711 2.32422 13.9453C2.32422 7.51953 7.51953 2.32422 13.9453 2.32422C20.3711 2.32422 25.5664 7.51953 25.5664 13.9453C25.5664 20.3711 20.3711 25.5664 13.9453 25.5664Z" fill="white" fill-opacity="0.85"/>
  <path d="M9.58398 13.9453C9.58398 16.3379 11.5664 18.3203 13.9453 18.3203C14.6152 18.3203 15.2441 18.1426 15.7773 17.8281C14.5059 19.9336 12.1543 21.1641 9.32422 21.1641C8.85938 21.1641 8.53125 21.5195 8.53125 21.9434C8.53125 22.3672 8.85938 22.7227 9.32422 22.7227C14.3555 22.7227 18.3066 19.2773 18.3066 13.9453C18.3066 11.5527 16.3242 9.57031 13.9453 9.57031C13.2754 9.57031 12.6465 9.74805 12.1133 10.0625C13.3848 7.95703 15.7363 6.72656 18.5801 6.72656C19.0312 6.72656 19.3594 6.37109 19.3594 5.93359C19.3594 5.50977 19.0176 5.16797 18.5801 5.16797C13.5352 5.16797 9.58398 8.61328 9.58398 13.9453ZM11.1426 13.9453C11.1426 12.3867 12.3867 11.1426 13.9453 11.1426C15.5039 11.1426 16.748 12.3867 16.748 13.9453C16.748 15.5039 15.5039 16.748 13.9453 16.748C12.3867 16.748 11.1426 15.5039 11.1426 13.9453ZM12.5918 13.9453C12.5918 14.6836 13.207 15.2988 13.9453 15.2988C14.6836 15.2988 15.2988 14.6699 15.2988 13.9453C15.2988 13.207 14.6836 12.5918 13.9453 12.5918C13.207 12.5918 12.5918 13.207 12.5918 13.9453Z" fill="white" fill-opacity="0.85"/>
 </g>
</svg>
