<?xml version="1.0" encoding="UTF-8"?>
<!--Generator: Apple Native CoreSVG 326-->
<!DOCTYPE svg
PUBLIC "-//W3C//DTD SVG 1.1//EN"
       "http://www.w3.org/Graphics/SVG/1.1/DTD/svg11.dtd">
<svg version="1.1" xmlns="http://www.w3.org/2000/svg" xmlns:xlink="http://www.w3.org/1999/xlink" viewBox="0 0 52.1992 22.2441">
 <g>
  <rect height="22.2441" opacity="0" width="52.1992" x="0" y="0"/>
  <path d="M3.48633 19.373L5.19531 19.373C5.09961 18.9492 5.03125 18.5391 5.03125 18.0879C5.03125 15.1758 7.38281 12.8379 10.2812 12.8379C13.1934 12.8379 15.5312 15.1758 15.5312 18.0879C15.5312 18.5391 15.4766 18.9629 15.3809 19.373L34.0566 19.373C33.9473 18.9492 33.8926 18.5391 33.8926 18.0879C33.8926 15.1895 36.2441 12.8379 39.1426 12.8379C42.0547 12.8379 44.3926 15.1758 44.3926 18.0879C44.3926 18.5391 44.3379 18.9492 44.2285 19.373L48.3711 19.373C50.5449 19.373 51.8438 18.0332 51.8438 15.8047L51.8438 10.4316C51.8438 8.20312 50.5449 6.86328 48.3711 6.86328L37.2285 6.86328L36.9004 4.07422C36.5859 1.36719 35.0684 0 32.375 0L26.8516 0C22.4492 0 19.7422 0.683594 16.707 2.59766L11.1152 6.09766L6.01562 6.87695C1.87305 7.50586 0 9.2832 0 12.4961L0 15.8047C0 18.0332 1.3125 19.373 3.48633 19.373ZM10.2812 21.7383C12.332 21.7383 13.9453 20.125 13.9453 18.0879C13.9453 16.0508 12.3184 14.4238 10.2812 14.4238C8.25781 14.4238 6.63086 16.0508 6.63086 18.0879C6.63086 20.1113 8.25781 21.7383 10.2812 21.7383ZM39.1426 21.7383C41.1797 21.7383 42.8066 20.1113 42.8066 18.0879C42.8066 16.0508 41.1797 14.4238 39.1426 14.4238C37.1191 14.4238 35.4785 16.0645 35.4785 18.0879C35.4785 20.1113 37.1055 21.7383 39.1426 21.7383Z" fill="white" fill-opacity="0.85"/>
 </g>
</svg>
