<svg version="1.1" xmlns="http://www.w3.org/2000/svg" xmlns:xlink="http://www.w3.org/1999/xlink" viewBox="0 0 52.1992 37.8574">
 <g>
  
  <path d="M36.9004 11.8809L37.1602 14.123L48.3711 14.123C50.5449 14.123 51.8438 15.4629 51.8438 17.6914L51.8438 23.3379C51.8438 25.5664 50.5449 26.9062 48.3711 26.9062L43.5572 26.9063C42.9337 28.7421 41.2175 30.0234 39.1426 30.0234C37.0676 30.0234 35.3515 28.7421 34.728 26.9063L14.6958 26.9063C14.0723 28.7421 12.3562 30.0234 10.2812 30.0234C8.20632 30.0234 6.49017 28.7421 5.86668 26.9063L3.48633 26.9062C1.3125 26.9062 0 25.5664 0 23.3379L0 20.3027C0 17.0898 1.87305 15.3125 6.01562 14.6836L11.1152 13.9043L16.707 10.4043C18.7923 9.08925 20.7227 8.35502 23.1545 8.02433L23.2174 10.2529C21.2331 10.5622 19.6299 11.1954 17.8828 12.2773L11.8672 16.0234L6.30273 16.8711C3.44531 17.3086 2.20117 18.3477 2.20117 20.3027L2.20117 23.0645C2.20117 24.1035 2.7207 24.7051 3.60938 24.7051L5.65248 24.7051C5.95181 22.3946 7.87535 20.6719 10.2812 20.6719C12.6872 20.6719 14.6107 22.3946 14.91 24.7051L34.5138 24.7051C34.8131 22.3946 36.7367 20.6719 39.1426 20.6719C41.5485 20.6719 43.472 22.3946 43.7713 24.7051L48.248 24.7051C49.123 24.7051 49.6426 24.1035 49.6426 23.0645L49.6426 17.9648C49.6426 16.9395 49.123 16.3242 48.248 16.3242L35.1504 16.3242L34.6992 12.1816C34.5352 10.7461 33.7148 10.0078 32.252 10.0078L29.4579 10.0078L29.5231 7.80664L32.375 7.80664C35.0684 7.80664 36.5859 9.17383 36.9004 11.8809ZM7.80664 25.3477C7.80664 26.7422 8.88672 27.8223 10.2812 27.8223C11.6758 27.8223 12.7559 26.7422 12.7559 25.3477C12.7559 23.9531 11.6758 22.873 10.2812 22.873C8.88672 22.873 7.80664 23.9531 7.80664 25.3477ZM36.668 25.3477C36.668 26.7422 37.748 27.8223 39.1426 27.8223C40.5371 27.8223 41.6172 26.7422 41.6172 25.3477C41.6172 23.9531 40.5371 22.873 39.1426 22.873C37.748 22.873 36.668 23.9531 36.668 25.3477Z" style="fill:var(--color-0,#ff3b30)"></path>
  <path d="M26.332 20.248C27.3164 20.248 28.1367 19.4414 28.1367 18.5117C28.1367 17.5684 27.3301 16.7891 26.332 16.7891C25.3477 16.7891 24.541 17.5684 24.541 18.5117C24.541 19.4414 25.3613 20.248 26.332 20.248ZM26.332 14.1777C27.002 14.1777 27.4805 13.6992 27.5078 13.002L27.7949 3.32227C27.8223 2.44727 27.2344 1.87305 26.332 1.87305C25.4434 1.87305 24.8555 2.44727 24.8828 3.32227L25.1699 13.002C25.1973 13.6992 25.6621 14.1777 26.332 14.1777Z" style="fill:var(--color-1,#ff3b30)"></path>
 </g>
</svg>