<svg version="1.1" xmlns="http://www.w3.org/2000/svg" xmlns:xlink="http://www.w3.org/1999/xlink" viewBox="0 0 52.1992 22.2441">
 <g>
  
  <path d="M13.9453 18.0879C13.9453 20.125 12.332 21.7383 10.2812 21.7383C8.25781 21.7383 6.63086 20.1113 6.63086 18.0879C6.63086 16.0508 8.25781 14.4238 10.2812 14.4238C12.3184 14.4238 13.9453 16.0508 13.9453 18.0879ZM42.8066 18.0879C42.8066 20.1113 41.1797 21.7383 39.1426 21.7383C37.1055 21.7383 35.4785 20.1113 35.4785 18.0879C35.4785 16.0645 37.1191 14.4238 39.1426 14.4238C41.1797 14.4238 42.8066 16.0508 42.8066 18.0879ZM36.9004 4.07422L37.2285 6.86328L48.3711 6.86328C50.5449 6.86328 51.8438 8.20312 51.8438 10.4316L51.8438 15.8047C51.8438 18.0332 50.5449 19.373 48.3711 19.373L44.2285 19.373C44.3379 18.9492 44.3926 18.5391 44.3926 18.0879C44.3926 15.1758 42.0547 12.8379 39.1426 12.8379C36.2441 12.8379 33.8926 15.1895 33.8926 18.0879C33.8926 18.5391 33.9473 18.9492 34.0566 19.373L15.3809 19.373C15.4766 18.9629 15.5312 18.5391 15.5312 18.0879C15.5312 15.1758 13.1934 12.8379 10.2812 12.8379C7.38281 12.8379 5.03125 15.1758 5.03125 18.0879C5.03125 18.5391 5.09961 18.9492 5.19531 19.373L3.48633 19.373C1.3125 19.373 0 18.0332 0 15.8047L0 12.4961C0 9.2832 1.87305 7.50586 6.01562 6.87695L11.1152 6.09766L16.707 2.59766C19.7422 0.683594 22.4492 0 26.8516 0L32.375 0C35.0684 0 36.5859 1.36719 36.9004 4.07422ZM21.4512 5.12695C18.8398 5.12695 17.0762 6.76758 17.0762 9.17383C17.0762 11.5664 18.8398 13.166 21.4375 13.166L27.0566 13.166L27.0566 14.4512C27.0566 15.2441 27.6172 15.5312 28.3145 15.0801L31.5957 12.9199C32.1152 12.5918 32.1426 11.9355 31.5957 11.5527L28.3281 9.40625C27.6309 8.94141 27.0566 9.21484 27.0566 10.0352L27.0566 11.252L21.4375 11.252C20.002 11.252 19.0586 10.459 19.0586 9.2832C19.0586 7.95703 20.0156 7.05469 21.4512 7.05469L29.6816 7.05469C30.2695 7.05469 30.6797 6.67188 30.6797 6.11133C30.6797 5.55078 30.2695 5.12695 29.668 5.12695Z" style="fill:var(--color-0,hsl(0 0 0/0.85))"></path>
 </g>
</svg>