<svg version="1.1" xmlns="http://www.w3.org/2000/svg" xmlns:xlink="http://www.w3.org/1999/xlink" viewBox="0 0 52.1992 34.1113">
 <g>
  
  <path d="M26.1406 18.9766C25.1289 18.9766 24.2812 18.1426 24.2812 17.1719C24.2812 16.2012 25.1152 15.3945 26.1406 15.3945C27.1797 15.3945 28 16.2012 28 17.1719C28 18.1426 27.166 18.9766 26.1406 18.9766ZM26.1406 12.7012C25.4434 12.7012 24.9648 12.209 24.9375 11.4844L24.6367 1.50391C24.6094 0.601562 25.2109 0 26.1406 0C27.0703 0 27.6855 0.601562 27.6582 1.50391L27.3574 11.4844C27.3301 12.209 26.8379 12.7012 26.1406 12.7012ZM3.48633 25.3066L5.19531 25.3066C5.09961 24.8828 5.03125 24.4727 5.03125 24.0215C5.03125 21.1094 7.38281 18.7715 10.2812 18.7715C13.1934 18.7715 15.5312 21.1094 15.5312 24.0215C15.5312 24.4727 15.4766 24.8965 15.3809 25.3066L34.0566 25.3066C33.9473 24.8828 33.8926 24.4727 33.8926 24.0215C33.8926 21.123 36.2441 18.7715 39.1426 18.7715C42.0547 18.7715 44.3926 21.1094 44.3926 24.0215C44.3926 24.4727 44.3379 24.8828 44.2285 25.3066L48.3711 25.3066C50.5449 25.3066 51.8438 23.9668 51.8438 21.7383L51.8438 16.3652C51.8438 14.1367 50.5449 12.7969 48.3711 12.7969L37.2285 12.7969L36.9004 10.0078C36.5859 7.30078 35.0684 5.93359 32.375 5.93359L26.8516 5.93359C22.4492 5.93359 19.7422 6.61719 16.707 8.53125L11.1152 12.0312L6.01562 12.8105C1.87305 13.4395 0 15.2168 0 18.4297L0 21.7383C0 23.9668 1.3125 25.3066 3.48633 25.3066ZM10.2812 27.6719C12.332 27.6719 13.9453 26.0586 13.9453 24.0215C13.9453 21.9844 12.3184 20.3574 10.2812 20.3574C8.25781 20.3574 6.63086 21.9844 6.63086 24.0215C6.63086 26.0449 8.25781 27.6719 10.2812 27.6719ZM39.1426 27.6719C41.1797 27.6719 42.8066 26.0449 42.8066 24.0215C42.8066 21.9844 41.1797 20.3574 39.1426 20.3574C37.1191 20.3574 35.4785 21.998 35.4785 24.0215C35.4785 26.0449 37.1055 27.6719 39.1426 27.6719Z" style="fill:var(--color-0,#ff3b30)"></path>
 </g>
</svg>