<svg version="1.1" xmlns="http://www.w3.org/2000/svg" xmlns:xlink="http://www.w3.org/1999/xlink" viewBox="0 0 46.0052 35.2591">
 <g>
  
  <path d="M4.18326 34.6989C4.51139 35.2321 5.18131 35.4098 5.70084 35.1227L43.9547 13.0563C44.4743 12.7556 44.6657 12.0993 44.3786 11.5798C44.0504 11.0329 43.3669 10.8552 42.861 11.1423L4.59342 33.2223C4.08756 33.5095 3.89615 34.1794 4.18326 34.6989ZM5.89224 27.6442L7.09537 26.947C6.84928 26.6872 6.63053 26.4274 6.45279 26.0993C5.27701 24.0622 5.97428 21.4645 8.01139 20.2888C10.0485 19.113 12.6462 19.8102 13.8219 21.8473C13.9997 22.1618 14.1364 22.4899 14.2321 22.8181L27.3434 15.2575C27.0973 14.9977 26.8786 14.738 26.7008 14.4235C25.5251 12.3864 26.2223 9.77508 28.2594 8.5993C30.2965 7.42352 32.8942 8.12079 34.07 10.1579C34.2477 10.4723 34.3708 10.8005 34.4665 11.1423L37.3786 9.46063C38.8962 8.58563 39.279 7.10907 38.3766 5.55047L36.2028 1.77704C35.3004 0.218441 33.8376-0.191715 32.3063 0.683285L24.486 5.195L23.1325 3.36297C21.82 1.5993 20.2067 1.2575 18.3063 2.35125L14.4372 4.57977C11.3473 6.37079 9.73404 7.94305 8.36685 10.5134L5.87857 15.2302L2.61099 17.8415C-0.0413489 19.9743-0.642911 21.9704 0.669589 24.2263L1.99576 26.5505C2.8981 28.1091 4.36099 28.5192 5.89224 27.6442ZM11.6208 26.5505C13.0563 25.7165 13.5348 23.9255 12.7008 22.4899C11.8805 21.0681 10.0758 20.5895 8.65396 21.4098C7.23209 22.2302 6.75357 24.0348 7.57389 25.4567C8.3942 26.8786 10.1989 27.3708 11.6208 26.5505ZM31.8688 14.861C33.2907 14.0407 33.7692 12.236 32.9489 10.8141C32.1286 9.3786 30.3239 8.90008 28.902 9.72039C27.4801 10.5407 27.0016 12.3591 27.8219 13.7673C28.6422 15.2028 30.4333 15.6813 31.8688 14.861Z" style="fill:var(--color-0,hsl(0 0 0/0.85))"></path>
  <path d="M43.2438 34.1384C44.1051 34.1384 44.7477 33.7145 45.1579 33.072C45.4176 32.6755 45.6501 32.0329 45.6501 31.5681C45.6501 31.1442 45.3493 30.8571 44.9118 30.8571C44.57 30.8571 44.2965 31.1169 44.2145 31.486C44.0641 32.2927 43.818 32.7575 43.2028 32.7575C42.4508 32.7575 42.0133 31.6911 42.0133 29.7223C42.0133 27.7399 42.5192 26.6735 43.2028 26.6735C43.7633 26.6735 44.0915 27.2341 44.1872 27.9313C44.2555 28.3552 44.5426 28.6149 44.9528 28.6149C45.3629 28.6149 45.609 28.3141 45.609 27.8903C45.609 27.3571 45.3629 26.6052 44.8981 26.0993C44.4743 25.5934 43.859 25.3063 43.1891 25.3063C41.9997 25.3063 41.2751 26.0856 40.8922 26.9743C40.5094 27.822 40.4137 28.7653 40.4137 29.7223C40.4137 30.8298 40.5231 31.8825 41.0153 32.7848C41.5075 33.6735 42.2458 34.1384 43.2438 34.1384ZM28.7379 34.07C29.2165 34.07 29.5309 33.7556 29.5309 33.2634L29.5309 30.3102L31.6364 30.3102L31.6364 33.2634C31.6364 33.7556 31.9372 34.07 32.4294 34.07C32.9079 34.07 33.2087 33.7556 33.2087 33.2634L33.2087 26.1813C33.2087 25.7028 32.9079 25.3884 32.4294 25.3884C31.9372 25.3884 31.6364 25.7028 31.6364 26.1813L31.6364 28.9977L29.5309 28.9977L29.5309 26.1813C29.5309 25.7028 29.2165 25.3884 28.7379 25.3884C28.2731 25.3884 27.9587 25.7028 27.9587 26.1813L27.9587 33.2634C27.9587 33.7556 28.2731 34.07 28.7379 34.07ZM35.1501 34.07L36.6676 34.07C38.8962 34.07 39.6344 31.9235 39.6344 29.695C39.6344 27.2888 38.7868 25.3884 36.6676 25.3884L35.1501 25.3884C34.6852 25.3884 34.3571 25.6618 34.3571 26.2087L34.3571 33.2497C34.3571 33.7966 34.6852 34.07 35.1501 34.07ZM35.902 32.7438L35.902 26.7145L36.4762 26.7145C37.8024 26.7145 38.0485 28.3825 38.0485 29.7087C38.0485 31.0485 37.8434 32.7438 36.4762 32.7438Z" style="fill:var(--color-1,hsl(0 0 0/0.85))"></path>
 </g>
</svg>