<?xml version="1.0" encoding="UTF-8"?>
<!--Generator: Apple Native CoreSVG 326-->
<!DOCTYPE svg
PUBLIC "-//W3C//DTD SVG 1.1//EN"
       "http://www.w3.org/Graphics/SVG/1.1/DTD/svg11.dtd">
<svg version="1.1" xmlns="http://www.w3.org/2000/svg" xmlns:xlink="http://www.w3.org/1999/xlink" viewBox="0 0 52.1992 40.2363">
 <g>
  <rect height="40.2363" opacity="0" width="52.1992" x="0" y="0"/>
  <path d="M13.9453 27.084C13.9453 29.1211 12.332 30.7344 10.2812 30.7344C8.25781 30.7344 6.63086 29.1074 6.63086 27.084C6.63086 25.0469 8.25781 23.4199 10.2812 23.4199C12.3184 23.4199 13.9453 25.0469 13.9453 27.084ZM42.8066 27.084C42.8066 29.1074 41.1797 30.7344 39.1426 30.7344C37.1055 30.7344 35.4785 29.1074 35.4785 27.084C35.4785 25.0605 37.1191 23.4199 39.1426 23.4199C41.1797 23.4199 42.8066 25.0469 42.8066 27.084ZM36.9004 13.0703L37.2285 15.8594L48.3711 15.8594C50.5449 15.8594 51.8438 17.1992 51.8438 19.4277L51.8438 24.8008C51.8438 27.0293 50.5449 28.3691 48.3711 28.3691L44.2285 28.3691C44.3379 27.9453 44.3926 27.5352 44.3926 27.084C44.3926 24.1719 42.0547 21.834 39.1426 21.834C36.2441 21.834 33.8926 24.1855 33.8926 27.084C33.8926 27.5352 33.9473 27.9453 34.0566 28.3691L15.3809 28.3691C15.4766 27.959 15.5312 27.5352 15.5312 27.084C15.5312 24.1719 13.1934 21.834 10.2812 21.834C7.38281 21.834 5.03125 24.1719 5.03125 27.084C5.03125 27.5352 5.09961 27.9453 5.19531 28.3691L3.48633 28.3691C1.3125 28.3691 0 27.0293 0 24.8008L0 21.4922C0 18.2793 1.87305 16.502 6.01562 15.873L11.1152 15.0938L16.707 11.5938C17.7525 10.9344 18.7591 10.4211 19.8105 10.0345L19.8105 11.9629C19.8105 14.2324 21.2324 15.6953 23.4336 15.6953L29.627 15.6953C31.8281 15.6953 33.25 14.2324 33.25 11.9629L33.25 9.05186C35.3994 9.32595 36.6219 10.6725 36.9004 13.0703Z" fill="white" fill-opacity="0.85"/>
  <path d="M23.4336 13.8633L29.627 13.8633C30.7891 13.8633 31.3906 13.248 31.3906 12.0039L31.3906 7.24609C31.3906 6.01562 30.7891 5.40039 29.627 5.40039L23.4336 5.40039C22.2715 5.40039 21.6699 6.01562 21.6699 7.24609L21.6699 12.0039C21.6699 13.248 22.2715 13.8633 23.4336 13.8633ZM28.3828 6.50781L29.873 6.50781L29.873 3.77344C29.873 2.36523 30.7207 1.47656 32.0469 1.47656C33.3867 1.47656 34.2207 2.36523 34.2207 3.77344L34.2207 5.30469C34.2207 5.71484 34.5625 6.04297 34.9727 6.04297C35.3828 6.04297 35.7109 5.71484 35.7109 5.30469L35.7109 4.00586C35.7109 1.54492 34.2891 0 32.0469 0C29.832 0 28.3828 1.54492 28.3828 4.00586Z" fill="white" fill-opacity="0.85"/>
 </g>
</svg>
