<?xml version="1.0" encoding="UTF-8"?>
<!--Generator: Apple Native CoreSVG 326-->
<!DOCTYPE svg
PUBLIC "-//W3C//DTD SVG 1.1//EN"
       "http://www.w3.org/Graphics/SVG/1.1/DTD/svg11.dtd">
<svg version="1.1" xmlns="http://www.w3.org/2000/svg" xmlns:xlink="http://www.w3.org/1999/xlink" viewBox="0 0 48.5762 37.5669">
 <g>
  <rect height="37.5669" opacity="0" width="48.5762" x="0" y="0"/>
  <path d="M12.9746 25.9954C12.9746 27.8958 11.457 29.3997 9.55664 29.3997C7.66992 29.3997 6.16602 27.8821 6.16602 25.9954C6.16602 24.1087 7.66992 22.6047 9.55664 22.6047C11.457 22.6047 12.9746 24.1087 12.9746 25.9954ZM39.8125 25.9954C39.8125 27.4332 38.9391 28.6566 37.6812 29.1551L33.2533 24.7272C33.7573 23.4822 34.9839 22.6047 36.4082 22.6047C38.3086 22.6047 39.8125 24.1087 39.8125 25.9954ZM28.2145 27.1985L14.4102 27.1985C14.5195 26.7473 14.5605 26.4192 14.5605 25.9954C14.5605 23.22 12.4414 21.0051 9.55664 21.0051C6.83594 21.0051 4.58008 23.1106 4.58008 25.9544C4.58008 26.4192 4.62109 26.7473 4.7168 27.1985L3.24023 27.1985C1.2168 27.1985 0 25.9544 0 23.8762L0 20.8001C0 17.8196 1.75 16.179 5.60547 15.5774L10.3359 14.8528L13.7286 12.719ZM34.3164 12.9661L34.6172 15.5637L44.9805 15.5637C47.0039 15.5637 48.2207 16.8215 48.2207 18.886L48.2207 23.8762C48.2207 25.9544 47.0039 27.1985 44.9805 27.1985L41.248 27.1985C41.3711 26.7883 41.4121 26.4602 41.4121 25.9954C41.4121 23.22 39.293 21.0051 36.4082 21.0051C34.5407 21.0051 32.8965 21.9872 32.0429 23.5168L18.601 10.0749C20.4114 9.43272 22.3682 9.17896 24.9648 9.17896L30.1055 9.17896C32.6211 9.17896 34.0156 10.4504 34.3164 12.9661Z" fill="white" fill-opacity="0.85"/>
  <path d="M33.332 3.80592L33.332 5.35084C33.332 6.45826 32.7305 7.1692 31.6367 7.1692L19.9336 7.1692C18.8672 7.1692 18.416 6.67701 18.416 5.77467C18.416 5.18678 18.7305 4.74928 19.5645 4.28443L22.5996 2.47974C25.2109 1.0442 26.5508 0.743417 28.7793 0.743417L30.0234 0.743417C32.3203 0.743417 33.332 1.75514 33.332 3.80592Z" fill="white" fill-opacity="0.85"/>
  <path d="M38.9512 35.6614C39.3613 36.0715 40.0449 36.0715 40.4414 35.6614C40.8516 35.2512 40.8516 34.5813 40.4414 34.1712L9.5293 3.27271C9.10547 2.84889 8.44922 2.84889 8.02539 3.27271C7.62891 3.6692 7.61523 4.33912 8.02539 4.76295Z" fill="white" fill-opacity="0.85"/>
 </g>
</svg>
