<svg version="1.1" xmlns="http://www.w3.org/2000/svg" xmlns:xlink="http://www.w3.org/1999/xlink" viewBox="0 0 40.168 30.0645">
 <g>
  
  <path d="M3.71875 26.25L6.71289 26.25L6.71289 24.0488L3.74609 24.0488C2.7207 24.0488 2.20117 23.5293 2.20117 22.5039L2.20117 4.64844C2.20117 3.62305 2.7207 3.08984 3.74609 3.08984L23.748 3.08984C24.7598 3.08984 25.3066 3.62305 25.3066 4.64844L25.3066 24.7188L27.5078 23.5156L27.5078 4.60742C27.5078 2.17383 26.2227 0.888672 23.7891 0.888672L3.71875 0.888672C1.27148 0.888672 0 2.17383 0 4.60742L0 22.5449C0 24.9785 1.27148 26.25 3.71875 26.25ZM26.3047 10.6367L31.0078 10.6367C31.7051 10.6367 32.1973 10.7598 32.7578 11.375L37.0508 16.2012C37.4199 16.6113 37.6113 17.1855 37.6113 17.6777L37.6113 22.5039C37.6113 23.5293 37.0781 24.0488 36.0527 24.0488L33.8516 24.0488L33.8516 26.25L36.0938 26.25C38.5273 26.25 39.8125 24.9785 39.8125 22.5449L39.8125 17.7188C39.8125 16.3789 39.5938 15.75 38.8418 14.9023L34.1934 9.65234C33.3867 8.75 32.4844 8.43555 31.1445 8.43555L26.3047 8.43555ZM30.0645 17.8418L36.0254 17.8418C36.0254 17.5137 35.9023 17.3359 35.6973 17.1035L31.623 12.5234C31.3223 12.209 30.9668 12.0039 30.584 12.0039L28.8887 12.0039L28.8887 16.6797C28.8887 17.4043 29.3398 17.8418 30.0645 17.8418ZM10.1445 30.0645C12.7148 30.0645 14.8066 27.9727 14.8066 25.3887C14.8066 22.8184 12.7148 20.7266 10.1445 20.7266C7.56055 20.7266 5.45508 22.8184 5.45508 25.3887C5.45508 27.9727 7.56055 30.0645 10.1445 30.0645ZM10.1445 28.2051C8.58594 28.2051 7.31445 26.9473 7.31445 25.3887C7.31445 23.8438 8.58594 22.5723 10.1445 22.5723C11.6895 22.5723 12.9473 23.8438 12.9473 25.3887C12.9473 26.9473 11.6895 28.2051 10.1445 28.2051ZM29.8457 30.0645C32.4297 30.0645 34.5078 27.9727 34.5078 25.3887C34.5078 22.8184 32.4297 20.7266 29.8457 20.7266C27.2617 20.7266 25.1699 22.8184 25.1699 25.3887C25.1699 27.9727 27.2617 30.0645 29.8457 30.0645ZM29.8457 28.2051C28.3008 28.2051 27.0293 26.9473 27.0293 25.3887C27.0293 23.8438 28.3008 22.5723 29.8457 22.5723C31.377 22.5723 32.6484 23.8438 32.6484 25.3887C32.6484 26.9473 31.4043 28.2051 29.8457 28.2051ZM13.7812 26.25L26.25 26.25L26.25 24.0488L13.7812 24.0488Z" style="fill:var(--color-0,hsl(0 0 0/0.85))"></path>
 </g>
</svg>