<svg version="1.1" xmlns="http://www.w3.org/2000/svg" xmlns:xlink="http://www.w3.org/1999/xlink" viewBox="0 0 52.1992 33.8038">
 <g>
  
  <path d="M3.48633 25.1529L5.19531 25.1529C5.09961 24.7291 5.03125 24.3189 5.03125 23.8677C5.03125 20.9556 7.38281 18.6177 10.2812 18.6177C13.1934 18.6177 15.5312 20.9556 15.5312 23.8677C15.5312 24.3189 15.4766 24.7427 15.3809 25.1529L34.0566 25.1529C33.9473 24.7291 33.8926 24.3189 33.8926 23.8677C33.8926 20.9693 36.2441 18.6177 39.1426 18.6177C42.0547 18.6177 44.3926 20.9556 44.3926 23.8677C44.3926 24.3189 44.3379 24.7291 44.2285 25.1529L48.3711 25.1529C50.5449 25.1529 51.8438 23.813 51.8438 21.5845L51.8438 16.2115C51.8438 13.983 50.5449 12.6431 48.3711 12.6431L37.2285 12.6431L36.9004 9.85406C36.5859 7.14703 35.0684 5.77984 32.375 5.77984L26.8516 5.77984C22.4492 5.77984 19.7422 6.46344 16.707 8.3775L11.1152 11.8775L6.01562 12.6568C1.87305 13.2857 0 15.063 0 18.2759L0 21.5845C0 23.813 1.3125 25.1529 3.48633 25.1529ZM10.2812 27.5181C12.332 27.5181 13.9453 25.9048 13.9453 23.8677C13.9453 21.8306 12.3184 20.2037 10.2812 20.2037C8.25781 20.2037 6.63086 21.8306 6.63086 23.8677C6.63086 25.8912 8.25781 27.5181 10.2812 27.5181ZM39.1426 27.5181C41.1797 27.5181 42.8066 25.8912 42.8066 23.8677C42.8066 21.8306 41.1797 20.2037 39.1426 20.2037C37.1191 20.2037 35.4785 21.8443 35.4785 23.8677C35.4785 25.8912 37.1055 27.5181 39.1426 27.5181Z" style="fill:var(--color-0,hsl(0 0 0/0.85))"></path>
  <path d="M21.8066 27.2447C21.0684 27.2447 20.7539 27.8462 21.1504 28.4888L24.1035 33.3423C24.4863 33.9712 25.2109 33.9439 25.5938 33.3423L28.5742 28.4888C28.9707 27.8462 28.6289 27.2447 27.9043 27.2447Z" style="fill:var(--color-1,hsl(0 0 0/0.85))"></path>
 </g>
</svg>