<?xml version="1.0" encoding="UTF-8"?>
<!--Generator: Apple Native CoreSVG 326-->
<!DOCTYPE svg
PUBLIC "-//W3C//DTD SVG 1.1//EN"
       "http://www.w3.org/Graphics/SVG/1.1/DTD/svg11.dtd">
<svg version="1.1" xmlns="http://www.w3.org/2000/svg" xmlns:xlink="http://www.w3.org/1999/xlink" viewBox="0 0 47.3781 35.9505">
 <g>
  <rect height="35.9505" opacity="0" width="47.3781" x="0" y="0"/>
  <path d="M8.99863 11.2418L10.2018 11.9254C10.2975 11.5973 10.4205 11.2692 10.5982 10.9547C11.774 8.91762 14.3717 8.22036 16.4088 9.39614C18.4596 10.5719 19.1432 13.1696 17.9674 15.2067C17.7896 15.5348 17.5709 15.8082 17.3385 16.0543L30.4361 23.6149C30.5318 23.2868 30.6686 22.9586 30.8463 22.6442C32.0221 20.6207 34.6334 19.9098 36.6568 21.0856C38.6939 22.2614 39.3912 24.859 38.2154 26.8961C38.0377 27.2106 37.8189 27.484 37.5728 27.7301L40.485 29.4118C42.0025 30.2868 43.4654 29.8766 44.3678 28.318L46.5416 24.5582C47.4439 22.986 47.0748 21.5231 45.5436 20.6344L37.7232 16.1227L38.6256 14.0309C39.5143 12.0075 38.9947 10.4352 37.108 9.34145L33.2389 7.11294C30.1353 5.32192 27.9752 4.72036 25.0631 4.81606L19.7311 5.02114L15.8346 3.50356C12.6627 2.25942 10.6393 2.75161 9.34043 5.00747L8.00058 7.31801C7.09824 8.87661 7.46738 10.3532 8.99863 11.2418ZM12.7994 15.6579C14.235 16.4782 16.026 15.9997 16.86 14.5641C17.6803 13.1422 17.1881 11.3375 15.7662 10.5172C14.3443 9.69692 12.5396 10.1754 11.7193 11.5973C10.899 13.0329 11.3775 14.8239 12.7994 15.6579ZM33.0475 27.3336C34.4693 28.1676 36.274 27.6754 37.0943 26.2536C37.9146 24.8317 37.4361 23.027 36.0143 22.2067C34.5924 21.3864 32.774 21.8786 31.9674 23.2868C31.1471 24.7086 31.6256 26.5133 33.0475 27.3336Z" fill="white" fill-opacity="0.85"/>
  <path d="M4.77402 6.78481L7.65879 1.80825C8.1373 0.987936 7.46738 0.249655 6.61972 0.413717L2.21738 1.22036C1.61582 1.32973 1.34238 1.79458 1.56113 2.38247L3.05136 6.5934C3.33847 7.41372 4.2955 7.6188 4.77402 6.78481ZM0.152926 12.1852C-0.161527 12.7321 0.0298795 13.402 0.535739 13.7028L38.7896 35.8102C39.2818 36.0973 39.9654 35.9332 40.2662 35.4137C40.5807 34.8668 40.3893 34.1969 39.8834 33.8961L1.62949 11.7887C1.1373 11.5016 0.440036 11.6793 0.152926 12.1852Z" fill="white" fill-opacity="0.85"/>
 </g>
</svg>
