<svg version="1.1" xmlns="http://www.w3.org/2000/svg" xmlns:xlink="http://www.w3.org/1999/xlink" viewBox="0 0 49.1928 36.6479">
 <g>
  
  <path d="M12.0183 27.6003L14.5886 26.1101L13.6999 24.5652L11.2117 26.0007C10.5828 26.3699 9.98119 26.1511 9.55736 25.4265L8.43627 23.4851C7.6433 22.1179 8.09447 20.8874 9.9265 19.4245L13.4949 16.5671L16.1882 11.5085C17.405 9.25267 18.8132 7.87181 21.5613 6.28588L25.3484 4.09838C26.3738 3.49681 27.2488 3.68822 27.946 4.63158L29.9421 7.35228L39.1296 2.04759C39.7449 1.69213 40.3601 1.91088 40.7703 2.63548L42.8347 6.20384C43.2585 6.92845 43.1355 7.57103 42.5203 7.9265L38.6921 10.1413L39.5808 11.6863L43.5046 9.41673C45.0222 8.54173 45.3913 7.06517 44.489 5.50658L42.2058 1.55541C41.3035-0.0168592 39.8406-0.427015 38.323 0.461656L30.4617 5.00072L29.3679 3.52416C28.0554 1.74681 26.4421 1.40502 24.5417 2.49877L20.6726 4.74095C17.5828 6.5183 15.9695 8.09056 14.6023 10.6609L12.1003 15.3913L8.84642 18.0027C6.19408 20.1218 5.59252 22.1316 6.89134 24.3874L8.12181 26.5066C9.02416 28.0652 10.487 28.4753 12.0183 27.6003ZM19.0867 23.5261L34.782 14.4617L33.8796 12.9167L18.198 21.9812ZM18.0476 27.0398C19.8933 25.9734 20.4949 23.7038 19.4285 21.8581C18.3757 20.0261 16.1062 19.4109 14.2605 20.4773C12.4148 21.53 11.8132 23.8132 12.8796 25.6453C13.9324 27.491 16.2019 28.0925 18.0476 27.0398ZM17.1589 25.4949C16.1745 26.0554 14.9851 25.741 14.4109 24.7566C13.8503 23.7859 14.1785 22.5828 15.1492 22.0222C16.1335 21.448 17.323 21.7761 17.8972 22.7468C18.4578 23.7312 18.1296 24.9343 17.1589 25.4949ZM38.2956 15.3503C40.1277 14.2839 40.7429 12.0144 39.6765 10.1687C38.6101 8.33666 36.3406 7.72142 34.5085 8.78783C32.6628 9.85423 32.0476 12.1238 33.114 13.9558C34.1804 15.8015 36.4499 16.4167 38.2956 15.3503ZM37.3933 13.8054C36.4226 14.366 35.2195 14.0515 34.6589 13.0671C34.0984 12.0964 34.4128 10.8933 35.3972 10.3328C36.3679 9.7722 37.571 10.0867 38.1316 11.071C38.6921 12.0417 38.3777 13.2449 37.3933 13.8054Z" style="fill:var(--color-0,hsl(0 0 0/0.85))"></path>
  <path d="M6.15306 29.2273L3.28197 24.2507C2.80345 23.4167 1.84642 23.6218 1.57299 24.4421L0.069079 28.6531C-0.135999 29.241 0.123766 29.7058 0.739001 29.8152L5.12767 30.6218C5.989 30.7859 6.63158 30.0613 6.15306 29.2273ZM8.5183 35.9265C8.84642 36.4734 9.51634 36.6511 10.0359 36.364L48.2898 14.2839C48.8093 13.9968 49.0007 13.3269 48.6999 12.8074C48.3855 12.2605 47.7019 12.0964 47.1824 12.3835L8.92845 34.4499C8.42259 34.7507 8.23119 35.4206 8.5183 35.9265Z" style="fill:var(--color-1,hsl(0 0 0/0.85))"></path>
 </g>
</svg>