<svg version="1.1" xmlns="http://www.w3.org/2000/svg" xmlns:xlink="http://www.w3.org/1999/xlink" viewBox="0 0 38.0762 21.041">
 <g>
  
  <path d="M1.2168 2.625L10.5547 2.625C11.2656 2.625 11.7715 2.22852 11.7715 1.50391C11.7715 0.806641 11.2656 0.410156 10.5547 0.410156L1.2168 0.410156C0.492188 0.410156 0 0.806641 0 1.50391C0 2.22852 0.492188 2.625 1.2168 2.625ZM5.90625 20.9043C6.76758 20.9043 7.15039 20.2754 7.15039 19.5098L7.15039 1.59961L4.63477 1.59961L4.63477 19.5098C4.63477 20.3301 5.08594 20.9043 5.90625 20.9043ZM18.1836 21.041C21.6289 21.041 23.3652 18.5938 23.3652 15.3398C23.3652 12.3457 22.0117 10.9102 19.332 9.51562L18.3203 8.98242C16.7344 8.13477 15.668 7.20508 15.668 5.33203C15.668 3.65039 16.4609 2.25586 18.0742 2.25586C19.6465 2.25586 20.5078 3.52734 20.7812 5.20898C20.8906 5.89258 21.3828 6.17969 21.9434 6.17969C22.5859 6.17969 23.0098 5.67383 23.0098 5.03125C23.0098 3.26758 21.5332 0.0410156 18.0742 0.0410156C15.0938 0.0410156 13.2344 2.41992 13.2344 5.49609C13.2344 8.39453 14.7383 9.92578 17.2402 11.2246L18.2656 11.7578C19.9609 12.6465 20.9453 13.6172 20.9453 15.5176C20.9453 17.3633 20.043 18.8262 18.2246 18.8262C16.5156 18.8262 15.5723 17.4453 15.3125 15.6953C15.1758 14.9844 14.6562 14.7109 14.1504 14.7109C13.4805 14.7109 13.084 15.2715 13.084 15.9688C13.084 17.8828 14.5879 21.041 18.1836 21.041ZM26.7832 20.9453C27.4668 20.9453 27.877 20.5762 28.0273 19.8926L29.0254 15.3945L34.2754 15.3945L35.2734 19.9062C35.4238 20.5898 35.8477 20.9453 36.5312 20.9453C37.1875 20.9453 37.7207 20.4668 37.7207 19.7969C37.7207 19.6875 37.707 19.5371 37.666 19.4277L33.5508 1.81836C33.291 0.833984 32.6895 0.150391 31.6367 0.150391C30.5566 0.150391 30.0234 0.792969 29.7773 1.83203L25.7031 19.1816C25.6758 19.373 25.6074 19.6328 25.6074 19.7969C25.6074 20.5352 26.1133 20.9453 26.7832 20.9453ZM29.4629 13.2891L31.623 3.33594L31.623 3.33594L33.8242 13.2891Z" style="fill:var(--color-0,hsl(0 0 0/0.85))"></path>
 </g>
</svg>