<?xml version="1.0" encoding="UTF-8"?>
<!--Generator: Apple Native CoreSVG 326-->
<!DOCTYPE svg
PUBLIC "-//W3C//DTD SVG 1.1//EN"
       "http://www.w3.org/Graphics/SVG/1.1/DTD/svg11.dtd">
<svg version="1.1" xmlns="http://www.w3.org/2000/svg" xmlns:xlink="http://www.w3.org/1999/xlink" viewBox="0 0 28.2461 27.9043">
 <g>
  <rect height="27.9043" opacity="0" width="28.2461" x="0" y="0"/>
  <path d="M13.9453 27.8906C21.6426 27.8906 27.8906 21.6426 27.8906 13.9453C27.8906 6.24805 21.6426 0 13.9453 0C6.24805 0 0 6.24805 0 13.9453C0 21.6426 6.24805 27.8906 13.9453 27.8906ZM13.9453 25.5664C7.51953 25.5664 2.32422 20.3711 2.32422 13.9453C2.32422 7.51953 7.51953 2.32422 13.9453 2.32422C20.3711 2.32422 25.5664 7.51953 25.5664 13.9453C25.5664 20.3711 20.3711 25.5664 13.9453 25.5664Z" fill="white" fill-opacity="0.85"/>
  <path d="M10.582 21.2051L17.2266 21.2051C18.416 21.2051 19.0176 20.6309 19.0312 19.4414L19.1133 13.0156L20.7266 13.3711C21.3145 13.5078 21.7246 13.2617 21.875 12.6465L22.4629 10.3496C22.5996 9.73438 22.3672 9.29688 21.793 9.05078L17.1855 7.08203C16.9121 6.95898 16.6934 6.97266 16.4473 7.08203C15.5859 7.49219 14.875 7.71094 13.9043 7.71094C12.9336 7.71094 12.209 7.49219 11.3613 7.08203C11.1289 6.97266 10.8965 6.95898 10.623 7.08203L6.01562 9.05078C5.44141 9.29688 5.19531 9.73438 5.35938 10.3496L5.94727 12.6465C6.08398 13.2617 6.48047 13.5078 7.06836 13.3711L8.68164 13.0156L8.77734 19.4414C8.79102 20.6309 9.37891 21.2051 10.582 21.2051ZM13.9043 9.66602C12.8789 9.66602 12.0996 9.20117 11.7852 8.33984C12.4277 8.57227 13.166 8.68164 13.9043 8.68164C14.6426 8.68164 15.3809 8.57227 16.0234 8.33984C15.6953 9.1875 14.957 9.66602 13.9043 9.66602Z" fill="white" fill-opacity="0.85"/>
 </g>
</svg>
