<?xml version="1.0" encoding="UTF-8"?>
<!--Generator: Apple Native CoreSVG 326-->
<!DOCTYPE svg
PUBLIC "-//W3C//DTD SVG 1.1//EN"
       "http://www.w3.org/Graphics/SVG/1.1/DTD/svg11.dtd">
<svg version="1.1" xmlns="http://www.w3.org/2000/svg" xmlns:xlink="http://www.w3.org/1999/xlink" viewBox="0 0 36.5072 29.9824">
 <g>
  <rect height="29.9824" opacity="0" width="36.5072" x="0" y="0"/>
  <path d="M11.1306 29.9824L25.0212 29.9824C27.3727 29.9824 28.8493 28.5195 28.8903 26.1816L29.0681 12.8379L32.3356 13.5898C33.6481 13.8906 34.4958 13.3438 34.8376 11.9902L36.0407 7.13672C36.3825 5.79688 35.863 4.86719 34.6052 4.33398L25.0895 0.273438C24.3786-0.0410156 23.9001-0.0136719 23.3122 0.259766C21.5349 1.10742 20.0856 1.54492 18.0759 1.54492C16.0524 1.54492 14.6169 1.10742 12.8259 0.259766C12.2516-0.0136719 11.7595-0.0410156 11.0485 0.273438L1.54657 4.33398C0.275085 4.86719-0.230774 5.79688 0.0973506 7.13672L1.31415 11.9902C1.64227 13.3438 2.48993 13.8906 3.8161 13.5898L7.08368 12.8379L7.26141 26.1816C7.28876 28.5195 8.76532 29.9824 11.1306 29.9824ZM11.1579 27.877C10.0505 27.877 9.38055 27.1934 9.36688 26.0723L9.17548 10.8281C9.17548 10.5 8.91571 10.2676 8.54657 10.3496L3.76141 11.416C3.50165 11.4707 3.32391 11.3613 3.26923 11.1426L2.18915 6.83594C2.10712 6.49414 2.20282 6.37109 2.47626 6.26172L12.3063 2.06445C14.1384 3.03516 15.9157 3.52734 18.0759 3.52734C20.236 3.52734 21.9997 3.03516 23.8454 2.06445L33.6755 6.26172C33.9352 6.37109 34.0446 6.49414 33.9626 6.83594L32.8688 11.1426C32.8141 11.3613 32.6501 11.4707 32.3903 11.416L27.6052 10.3496C27.2224 10.2676 26.9763 10.5 26.9763 10.8281L26.7849 26.0723C26.7712 27.1934 26.1013 27.877 24.9938 27.877ZM18.0759 7.62891C21.3024 7.62891 24.1599 5.33203 24.7614 2.16016L22.7653 1.28516C22.4782 3.70508 20.4274 5.52344 18.0759 5.52344C15.7106 5.52344 13.6735 3.70508 13.3864 1.28516L11.3903 2.16016C11.9782 5.33203 14.8356 7.62891 18.0759 7.62891Z" fill="white" fill-opacity="0.85"/>
 </g>
</svg>
