<svg version="1.1" xmlns="http://www.w3.org/2000/svg" xmlns:xlink="http://www.w3.org/1999/xlink" viewBox="0 0 28.2461 27.9043">
 <g>
  
  <path d="M13.9453 27.8906C21.6426 27.8906 27.8906 21.6289 27.8906 13.9453C27.8906 6.24805 21.6426 0 13.9453 0C6.26172 0 0 6.24805 0 13.9453C0 21.6289 6.26172 27.8906 13.9453 27.8906Z" style="fill:var(--color-0,hsl(0 0 0/0.85))"></path>
  <path d="M10.4863 21.4238C9.25586 21.4238 8.62695 20.8359 8.61328 19.6055L8.53125 12.9883L6.87695 13.3574C6.26172 13.4941 5.83789 13.2344 5.70117 12.6055L5.09961 10.2266C4.93555 9.59766 5.18164 9.14648 5.7832 8.88672L10.5273 6.86328C10.8008 6.74023 11.0469 6.75391 11.2793 6.86328C12.168 7.28711 12.9062 7.50586 13.9043 7.50586C14.9023 7.50586 15.6543 7.28711 16.5293 6.86328C16.7754 6.75391 17.0215 6.74023 17.2812 6.86328L22.0391 8.88672C22.627 9.14648 22.8867 9.59766 22.7227 10.2266L22.1211 12.6055C21.9707 13.2344 21.5605 13.4941 20.9453 13.3574L19.291 12.9883L19.1953 19.6055C19.1816 20.8359 18.5664 21.4238 17.3223 21.4238ZM13.9043 9.5293C14.9844 9.5293 15.7637 9.03711 16.0918 8.16211C15.4219 8.4082 14.6699 8.51758 13.9043 8.51758C13.1387 8.51758 12.3867 8.4082 11.7168 8.16211C12.0586 9.05078 12.8516 9.5293 13.9043 9.5293Z" style="fill:var(--color-1,white)"></path>
 </g>
</svg>