<svg version="1.1" xmlns="http://www.w3.org/2000/svg" xmlns:xlink="http://www.w3.org/1999/xlink" viewBox="0 0 33.291 27.3099">
 <g>
  
  <path d="M32.9355 16.3962C32.9355 7.78289 26.3184 0.714533 17.8965 0.00359537C17.459-0.0374203 17.1309 0.277033 17.1309 0.714533L17.1309 5.18524C17.1309 5.55438 17.3906 5.84149 17.7598 5.86883C22.9961 6.51141 27.0703 10.9821 27.0703 16.3962C27.0703 18.8571 26.2227 21.1266 24.7324 23.027C24.541 23.2595 24.5547 23.5602 24.7598 23.779L28.0273 27.0329C28.3281 27.3337 28.793 27.3337 29.0664 27.0055C31.4863 24.1345 32.9355 20.4294 32.9355 16.3962Z" style="fill:var(--color-0,hsl(0 0 0/0.85))"></path>
  <path d="M0 16.3962C0 20.443 1.44922 24.1481 3.86914 27.0192C4.14258 27.3473 4.59375 27.3337 4.9082 27.0329L8.17578 23.779C8.38086 23.5602 8.39453 23.2595 8.20312 23.027C6.69922 21.1266 5.86523 18.8571 5.86523 16.3962C5.86523 10.9821 9.93945 6.51141 15.1758 5.86883C15.5449 5.84149 15.8047 5.55438 15.8047 5.18524L15.8047 0.714533C15.8047 0.277033 15.4766-0.0374203 15.0391 0.00359537C6.61719 0.714533 0 7.78289 0 16.3962Z" style="fill:var(--color-1,hsl(0 0 0/0.85))"></path>
  <path d="M16.4473 23.0954C16.9531 23.0954 17.2402 22.8083 17.2402 22.3024L17.2402 12.1305L20.5625 12.1305C21.0137 12.1305 21.3145 11.8161 21.3145 11.4196C21.3145 10.9958 21 10.7223 20.5625 10.7223L12.332 10.7223C11.8809 10.7223 11.5801 10.9958 11.5801 11.4196C11.5801 11.8434 11.8945 12.1305 12.332 12.1305L15.6543 12.1305L15.6543 22.3024C15.6543 22.8083 15.9551 23.0954 16.4473 23.0954ZM13.5215 18.0231C13.6035 18.0231 13.6855 18.0095 13.7812 17.9684L19.4961 15.6579C19.7148 15.5622 19.8242 15.4255 19.8242 15.2067C19.8242 14.8923 19.6191 14.7555 19.3867 14.7555C19.3047 14.7555 19.2227 14.7829 19.127 14.8102L13.3984 17.1208C13.1797 17.2165 13.0703 17.3669 13.0703 17.572C13.0703 17.818 13.248 18.0231 13.5215 18.0231ZM13.5215 20.7028C13.6035 20.7028 13.6855 20.6891 13.7812 20.6618L19.4961 18.3513C19.7148 18.2555 19.8242 18.1188 19.8242 17.9001C19.8242 17.5856 19.6191 17.4489 19.3867 17.4489C19.3047 17.4489 19.2227 17.4626 19.127 17.4899L13.3984 19.8005C13.1797 19.8962 13.0703 20.0602 13.0703 20.2516C13.0703 20.5114 13.248 20.7028 13.5215 20.7028Z" style="fill:var(--color-2,hsl(0 0 0/0.85))"></path>
 </g>
</svg>