<svg version="1.1" xmlns="http://www.w3.org/2000/svg" xmlns:xlink="http://www.w3.org/1999/xlink" viewBox="0 0 30.8848 29.1895">
 <g>
  
  <path d="M1.81836 27.5898L28.7109 27.5898L28.7109 25.9766C28.7109 25.4297 28.3965 25.1016 27.8359 25.1016L26.9609 25.1016L26.9609 9.37891L28.1641 9.37891C28.916 9.37891 29.3535 8.83203 29.3535 8.27148C29.3535 7.86133 29.1211 7.50586 28.6152 7.21875L16.9395 0.478516C16.3926 0.164062 15.8184 0 15.2578 0C14.6973 0 14.1094 0.164062 13.5898 0.478516L1.91406 7.21875C1.39453 7.50586 1.17578 7.86133 1.17578 8.27148C1.17578 8.83203 1.61328 9.37891 2.36523 9.37891L3.56836 9.37891L3.56836 25.1016L2.70703 25.1016C2.14648 25.1016 1.81836 25.4297 1.81836 25.9766ZM1.09375 29.1758L29.4219 29.1758C30.0234 29.1758 30.5293 28.6699 30.5293 28.0684C30.5293 27.4668 30.0234 26.9746 29.4219 26.9746L1.09375 26.9746C0.492188 26.9746 0 27.4668 0 28.0684C0 28.6699 0.492188 29.1758 1.09375 29.1758Z" style="fill:var(--color-0,hsl(0 0 0/0.85))"></path>
  <path d="M15.2852 22.3125C14.7793 22.3125 14.4512 22.0254 14.4512 21.4922L14.4512 19.0312L12.5234 19.8105C12.4414 19.8379 12.332 19.8652 12.2637 19.8652C11.9902 19.8652 11.7988 19.6602 11.7988 19.4004C11.7988 19.1816 11.9082 19.0312 12.1406 18.9355L14.4512 18.0059L14.4512 16.2559L12.5234 17.0488C12.4414 17.0762 12.332 17.0898 12.2637 17.0898C11.9902 17.0898 11.7988 16.8848 11.7988 16.625C11.7988 16.4062 11.9082 16.2559 12.1406 16.1465L14.4512 15.2168L14.4512 11.0059L11.0469 11.0059C10.582 11.0059 10.2676 10.7188 10.2676 10.2812C10.2676 9.83008 10.5684 9.55664 11.0469 9.55664L19.5234 9.55664C19.9883 9.55664 20.2891 9.83008 20.2891 10.2812C20.2891 10.6914 20.002 11.0059 19.5234 11.0059L16.1055 11.0059L16.1055 14.5605L18.0469 13.7676C18.1426 13.7402 18.2383 13.7266 18.3203 13.7266C18.5527 13.7266 18.7715 13.8633 18.7715 14.1914C18.7715 14.4102 18.6621 14.5605 18.416 14.6562L16.1055 15.5996L16.1055 17.3223L18.0469 16.543C18.1426 16.502 18.2383 16.4883 18.3203 16.4883C18.5527 16.4883 18.7715 16.6387 18.7715 16.9531C18.7715 17.1855 18.6621 17.3223 18.416 17.4316L16.1055 18.3613L16.1055 21.4922C16.1055 22.0254 15.8047 22.3125 15.2852 22.3125Z" style="fill:var(--color-1,white)"></path>
 </g>
</svg>