<?xml version="1.0" encoding="UTF-8"?>
<!--Generator: Apple Native CoreSVG 326-->
<!DOCTYPE svg
PUBLIC "-//W3C//DTD SVG 1.1//EN"
       "http://www.w3.org/Graphics/SVG/1.1/DTD/svg11.dtd">
<svg version="1.1" xmlns="http://www.w3.org/2000/svg" xmlns:xlink="http://www.w3.org/1999/xlink" viewBox="0 0 28.2461 27.9043">
 <g>
  <rect height="27.9043" opacity="0" width="28.2461" x="0" y="0"/>
  <path d="M13.9453 27.8906C21.6426 27.8906 27.8906 21.6426 27.8906 13.9453C27.8906 6.24805 21.6426 0 13.9453 0C6.24805 0 0 6.24805 0 13.9453C0 21.6426 6.24805 27.8906 13.9453 27.8906ZM13.9453 25.5664C7.51953 25.5664 2.32422 20.3711 2.32422 13.9453C2.32422 7.51953 7.51953 2.32422 13.9453 2.32422C20.3711 2.32422 25.5664 7.51953 25.5664 13.9453C25.5664 20.3711 20.3711 25.5664 13.9453 25.5664Z" fill="white" fill-opacity="0.85"/>
  <path d="M13.9316 20.4668C14.4375 20.4668 14.7246 20.166 14.7246 19.6738L14.7246 9.48828L18.0469 9.48828C18.498 9.48828 18.7988 9.1875 18.7988 8.79102C18.7988 8.36719 18.4844 8.09375 18.0469 8.09375L9.81641 8.09375C9.36523 8.09375 9.06445 8.36719 9.06445 8.79102C9.06445 9.21484 9.37891 9.48828 9.81641 9.48828L13.125 9.48828L13.125 19.6738C13.125 20.166 13.4395 20.4668 13.9316 20.4668ZM11.0059 15.3809C11.0879 15.3809 11.1699 15.3672 11.252 15.3398L16.9668 13.0293C17.1992 12.9336 17.3086 12.7969 17.3086 12.5781C17.3086 12.2637 17.1035 12.127 16.8711 12.127C16.7891 12.127 16.707 12.1406 16.6113 12.168L10.8828 14.4785C10.6641 14.5879 10.5547 14.7383 10.5547 14.9434C10.5547 15.1895 10.7324 15.3809 11.0059 15.3809ZM11.0059 18.0742C11.0879 18.0742 11.1699 18.0605 11.252 18.0195L16.9668 15.709C17.1992 15.6133 17.3086 15.4766 17.3086 15.2578C17.3086 14.957 17.1035 14.8066 16.8711 14.8066C16.7891 14.8066 16.707 14.834 16.6113 14.8613L10.8828 17.1719C10.6641 17.2676 10.5547 17.418 10.5547 17.623C10.5547 17.8691 10.7324 18.0742 11.0059 18.0742Z" fill="white" fill-opacity="0.85"/>
 </g>
</svg>
