<?xml version="1.0" encoding="UTF-8"?>
<!--Generator: Apple Native CoreSVG 326-->
<!DOCTYPE svg
PUBLIC "-//W3C//DTD SVG 1.1//EN"
       "http://www.w3.org/Graphics/SVG/1.1/DTD/svg11.dtd">
<svg version="1.1" xmlns="http://www.w3.org/2000/svg" xmlns:xlink="http://www.w3.org/1999/xlink" viewBox="0 0 30.9258 30.584">
 <g>
  <rect height="30.584" opacity="0" width="30.9258" x="0" y="0"/>
  <path d="M15.2852 30.5703C23.6797 30.5703 30.5703 23.6797 30.5703 15.2852C30.5703 6.89062 23.6797 0 15.2852 0C6.89062 0 0 6.89062 0 15.2852C0 23.6797 6.89062 30.5703 15.2852 30.5703ZM15.2852 25.4844C9.65234 25.4844 5.08594 20.918 5.08594 15.2852C5.08594 9.63867 9.65234 5.08594 15.2852 5.08594C20.9316 5.08594 25.4844 9.63867 25.4844 15.2852C25.4844 20.918 20.9316 25.4844 15.2852 25.4844Z" fill="white" fill-opacity="0.85"/>
  <path d="M15.2852 21.8066C15.791 21.8066 16.0781 21.5059 16.0781 21.0137L16.0781 10.8281L19.4004 10.8281C19.8516 10.8281 20.1523 10.5273 20.1523 10.1309C20.1523 9.70703 19.8379 9.43359 19.4004 9.43359L11.1699 9.43359C10.7188 9.43359 10.418 9.70703 10.418 10.1309C10.418 10.5547 10.7324 10.8281 11.1699 10.8281L14.4785 10.8281L14.4785 21.0137C14.4785 21.5059 14.793 21.8066 15.2852 21.8066ZM12.3594 16.7207C12.4414 16.7207 12.5234 16.707 12.6191 16.6797L18.3203 14.3691C18.5527 14.2734 18.6621 14.1367 18.6621 13.918C18.6621 13.6035 18.457 13.4668 18.2246 13.4668C18.1426 13.4668 18.0605 13.4805 17.9648 13.5078L12.2363 15.8184C12.0176 15.9277 11.9082 16.0781 11.9082 16.2832C11.9082 16.5293 12.0859 16.7207 12.3594 16.7207ZM12.3594 19.4141C12.4414 19.4141 12.5234 19.4004 12.6191 19.3594L18.3203 17.0488C18.5527 16.9531 18.6621 16.8164 18.6621 16.5977C18.6621 16.2969 18.457 16.1465 18.2246 16.1465C18.1426 16.1465 18.0605 16.1738 17.9648 16.2012L12.2363 18.5117C12.0176 18.6074 11.9082 18.7578 11.9082 18.9629C11.9082 19.209 12.0859 19.4141 12.3594 19.4141Z" fill="white" fill-opacity="0.85"/>
 </g>
</svg>
