<?xml version="1.0" encoding="UTF-8"?>
<!--Generator: Apple Native CoreSVG 326-->
<!DOCTYPE svg
PUBLIC "-//W3C//DTD SVG 1.1//EN"
       "http://www.w3.org/Graphics/SVG/1.1/DTD/svg11.dtd">
<svg version="1.1" xmlns="http://www.w3.org/2000/svg" xmlns:xlink="http://www.w3.org/1999/xlink" viewBox="0 0 30.8848 29.1895">
 <g>
  <rect height="29.1895" opacity="0" width="30.8848" x="0" y="0"/>
  <path d="M1.81836 25.9219L28.7109 25.9219L28.7109 25.0059C28.7109 24.459 28.3965 24.1309 27.8359 24.1309L26.9609 24.1309L26.9609 9.37891L28.1641 9.37891C28.916 9.37891 29.3535 8.83203 29.3535 8.27148C29.3535 7.86133 29.1211 7.50586 28.6152 7.21875L16.9395 0.478516C16.3926 0.164062 15.8184 0 15.2578 0C14.6973 0 14.1094 0.164062 13.5898 0.478516L1.91406 7.21875C1.39453 7.50586 1.17578 7.86133 1.17578 8.27148C1.17578 8.83203 1.61328 9.37891 2.36523 9.37891L3.56836 9.37891L3.56836 24.1309L2.70703 24.1309C2.14648 24.1309 1.81836 24.459 1.81836 25.0059ZM5.63281 24.1309L5.63281 7.62891L14.7246 2.5293C14.8887 2.43359 15.0801 2.37891 15.2578 2.37891C15.4355 2.37891 15.627 2.43359 15.8047 2.5293L24.8965 7.62891L24.8965 24.1309ZM1.09375 29.1758L29.4219 29.1758C30.0234 29.1758 30.5293 28.6699 30.5293 28.0684C30.5293 27.4668 30.0234 26.9746 29.4219 26.9746L1.09375 26.9746C0.492188 26.9746 0 27.4668 0 28.0684C0 28.6699 0.492188 29.1758 1.09375 29.1758Z" fill="white" fill-opacity="0.85"/>
  <path d="M15.2715 20.9043C15.7773 20.9043 16.0645 20.6172 16.0645 20.1113L16.0645 9.93945L19.3867 9.93945C19.8379 9.93945 20.1387 9.625 20.1387 9.22852C20.1387 8.80469 19.8242 8.53125 19.3867 8.53125L11.1562 8.53125C10.7051 8.53125 10.4043 8.80469 10.4043 9.22852C10.4043 9.65234 10.7188 9.93945 11.1562 9.93945L14.4648 9.93945L14.4648 20.1113C14.4648 20.6172 14.7793 20.9043 15.2715 20.9043ZM12.3457 15.832C12.4141 15.832 12.5098 15.8184 12.5918 15.7773L18.3066 13.4668C18.5391 13.3711 18.6484 13.2344 18.6484 13.0156C18.6484 12.7012 18.4434 12.5645 18.2109 12.5645C18.1289 12.5645 18.0469 12.5918 17.9512 12.6191L12.2227 14.9297C12.0039 15.0254 11.8945 15.1758 11.8945 15.3809C11.8945 15.627 12.0723 15.832 12.3457 15.832ZM12.3457 18.5117C12.4141 18.5117 12.5098 18.498 12.5918 18.4707L18.3066 16.1602C18.5391 16.0645 18.6484 15.9277 18.6484 15.709C18.6484 15.3945 18.4434 15.2578 18.2109 15.2578C18.1289 15.2578 18.0469 15.2715 17.9512 15.2988L12.2227 17.6094C12.0039 17.7051 11.8945 17.8691 11.8945 18.0605C11.8945 18.3203 12.0723 18.5117 12.3457 18.5117Z" fill="white" fill-opacity="0.85"/>
 </g>
</svg>
