<svg version="1.1" xmlns="http://www.w3.org/2000/svg" xmlns:xlink="http://www.w3.org/1999/xlink" viewBox="0 0 25.5254 25.1699">
 <g>
  
  <path d="M4.29297 25.1699L20.877 25.1699C23.748 25.1699 25.1699 23.7617 25.1699 20.9453L25.1699 4.23828C25.1699 1.42188 23.748 0 20.877 0L4.29297 0C1.43555 0 0 1.42188 0 4.23828L0 20.9453C0 23.7617 1.43555 25.1699 4.29297 25.1699Z" style="fill:var(--color-0,hsl(0 0 0/0.85))"></path>
  <path d="M12.6055 19.291C12.0996 19.291 11.7715 18.9902 11.7715 18.4707L11.7715 16.0098L9.85742 16.7754C9.76172 16.8164 9.66602 16.8301 9.58398 16.8301C9.31055 16.8301 9.11914 16.625 9.11914 16.3652C9.11914 16.1465 9.22852 15.9961 9.46094 15.9004L11.7715 14.9707L11.7715 13.2207L9.85742 14.0137C9.76172 14.041 9.66602 14.0547 9.58398 14.0547C9.31055 14.0547 9.11914 13.8496 9.11914 13.6035C9.11914 13.3848 9.22852 13.2344 9.46094 13.1113L11.7715 12.1816L11.7715 7.9707L8.36719 7.9707C7.90234 7.9707 7.58789 7.68359 7.58789 7.24609C7.58789 6.80859 7.88867 6.53516 8.36719 6.53516L16.8438 6.53516C17.3086 6.53516 17.623 6.80859 17.623 7.24609C17.623 7.65625 17.3223 7.9707 16.8438 7.9707L13.4258 7.9707L13.4258 11.5254L15.3672 10.7461C15.4629 10.7051 15.5586 10.6914 15.6406 10.6914C15.873 10.6914 16.0918 10.8281 16.0918 11.1562C16.0918 11.3887 15.9824 11.5254 15.7363 11.6211L13.4258 12.5645L13.4258 14.3008L15.3672 13.5078C15.4629 13.4805 15.5586 13.4531 15.6406 13.4531C15.873 13.4531 16.0918 13.6172 16.0918 13.918C16.0918 14.1504 15.9824 14.2871 15.7363 14.3965L13.4258 15.3262L13.4258 18.4707C13.4258 18.9902 13.125 19.291 12.6055 19.291Z" style="fill:var(--color-1,white)"></path>
 </g>
</svg>