<?xml version="1.0" encoding="UTF-8"?>
<!--Generator: Apple Native CoreSVG 326-->
<!DOCTYPE svg
PUBLIC "-//W3C//DTD SVG 1.1//EN"
       "http://www.w3.org/Graphics/SVG/1.1/DTD/svg11.dtd">
<svg version="1.1" xmlns="http://www.w3.org/2000/svg" xmlns:xlink="http://www.w3.org/1999/xlink" viewBox="0 0 33.291 27.4395">
 <g>
  <rect height="27.4395" opacity="0" width="33.291" x="0" y="0"/>
  <path d="M32.9355 16.4609C32.9355 12.4414 31.4863 8.73633 29.0664 5.86523C28.793 5.53711 28.3281 5.53711 28.0273 5.85156L24.8555 9.02344C24.5957 9.2832 24.582 9.65234 24.8145 9.93945C26.2227 11.7441 27.0703 14.0137 27.0703 16.4609C27.0703 18.9219 26.2227 21.1914 24.7324 23.0918C24.541 23.3242 24.5547 23.625 24.7598 23.8438L28.0137 27.0977C28.3281 27.4121 28.7793 27.4121 29.0664 27.0703C31.4863 24.1992 32.9355 20.4941 32.9355 16.4609Z" fill="white" fill-opacity="0.85"/>
  <path d="M16.4609 5.86523C18.9355 5.86523 21.2051 6.72656 23.0234 8.13477C23.2969 8.35352 23.6523 8.32617 23.9121 8.06641L27.084 4.89453C27.3984 4.58008 27.3848 4.12891 27.0566 3.85547C24.1992 1.44922 20.4941 0 16.4609 0C12.4414 0 8.73633 1.44922 5.87891 3.85547C5.55078 4.12891 5.53711 4.58008 5.85156 4.89453L9.02344 8.06641C9.2832 8.32617 9.65234 8.35352 9.95312 8.12109C11.7578 6.72656 14.0137 5.86523 16.4609 5.86523Z" fill="white" fill-opacity="0.85"/>
  <path d="M0 16.4609C0 20.4941 1.44922 24.1992 3.86914 27.0703C4.14258 27.4121 4.60742 27.4121 4.9082 27.0977L8.16211 23.8438C8.36719 23.625 8.39453 23.3242 8.20312 23.0918C6.71289 21.1914 5.86523 18.9219 5.86523 16.4609C5.86523 14.0137 6.69922 11.7441 8.12109 9.93945C8.33984 9.65234 8.33984 9.2832 8.08008 9.02344L4.9082 5.85156C4.59375 5.53711 4.14258 5.53711 3.86914 5.86523C1.44922 8.73633 0 12.4414 0 16.4609Z" fill="white" fill-opacity="0.85"/>
  <path d="M16.4473 23.1602C16.9531 23.1602 17.2402 22.873 17.2402 22.3672L17.2402 12.1953L20.5625 12.1953C21.0137 12.1953 21.3145 11.8809 21.3145 11.4844C21.3145 11.0605 21 10.7871 20.5625 10.7871L12.332 10.7871C11.8809 10.7871 11.5801 11.0605 11.5801 11.4844C11.5801 11.9082 11.8945 12.1953 12.332 12.1953L15.6543 12.1953L15.6543 22.3672C15.6543 22.873 15.9551 23.1602 16.4473 23.1602ZM13.5215 18.0879C13.6035 18.0879 13.6855 18.0742 13.7812 18.0332L19.4961 15.7227C19.7148 15.627 19.8242 15.4902 19.8242 15.2715C19.8242 14.957 19.6191 14.8203 19.3867 14.8203C19.3047 14.8203 19.2227 14.8477 19.127 14.875L13.3984 17.1855C13.1797 17.2812 13.0703 17.4316 13.0703 17.6367C13.0703 17.8828 13.248 18.0879 13.5215 18.0879ZM13.5215 20.7676C13.6035 20.7676 13.6855 20.7539 13.7812 20.7266L19.4961 18.416C19.7148 18.3203 19.8242 18.1836 19.8242 17.9648C19.8242 17.6504 19.6191 17.5137 19.3867 17.5137C19.3047 17.5137 19.2227 17.5273 19.127 17.5547L13.3984 19.8652C13.1797 19.9609 13.0703 20.125 13.0703 20.3164C13.0703 20.5762 13.248 20.7676 13.5215 20.7676Z" fill="white" fill-opacity="0.85"/>
 </g>
</svg>
