<svg version="1.1" xmlns="http://www.w3.org/2000/svg" xmlns:xlink="http://www.w3.org/1999/xlink" viewBox="0 0 25.5254 25.1699">
 <g>
  
  <path d="M4.29297 25.1699L20.877 25.1699C23.748 25.1699 25.1699 23.7617 25.1699 20.9453L25.1699 4.23828C25.1699 1.42188 23.748 0 20.877 0L4.29297 0C1.43555 0 0 1.42188 0 4.23828L0 20.9453C0 23.7617 1.43555 25.1699 4.29297 25.1699ZM4.32031 22.9688C2.95312 22.9688 2.20117 22.2441 2.20117 20.8223L2.20117 4.36133C2.20117 2.93945 2.95312 2.20117 4.32031 2.20117L20.8496 2.20117C22.2031 2.20117 22.9688 2.93945 22.9688 4.36133L22.9688 20.8223C22.9688 22.2441 22.2031 22.9688 20.8496 22.9688Z" style="fill:var(--color-0,hsl(0 0 0/0.85))"></path>
  <path d="M12.5918 19.0996C13.0977 19.0996 13.3848 18.7988 13.3848 18.3066L13.3848 8.12109L16.707 8.12109C17.1582 8.12109 17.459 7.82031 17.459 7.42383C17.459 7 17.1445 6.72656 16.707 6.72656L8.47656 6.72656C8.02539 6.72656 7.72461 7 7.72461 7.42383C7.72461 7.84766 8.03906 8.12109 8.47656 8.12109L11.7852 8.12109L11.7852 18.3066C11.7852 18.7988 12.0996 19.0996 12.5918 19.0996ZM9.66602 14.0137C9.74805 14.0137 9.83008 14 9.92578 13.9727L15.627 11.6621C15.8594 11.5664 15.9688 11.4297 15.9688 11.2109C15.9688 10.8965 15.7637 10.7598 15.5312 10.7598C15.4492 10.7598 15.3672 10.7734 15.2715 10.8008L9.54297 13.1113C9.32422 13.2207 9.21484 13.3711 9.21484 13.5762C9.21484 13.8223 9.39258 14.0137 9.66602 14.0137ZM9.66602 16.707C9.74805 16.707 9.83008 16.6934 9.92578 16.6523L15.627 14.3418C15.8594 14.2461 15.9688 14.1094 15.9688 13.8906C15.9688 13.5898 15.7637 13.4395 15.5312 13.4395C15.4492 13.4395 15.3672 13.4668 15.2715 13.4941L9.54297 15.8047C9.32422 15.9004 9.21484 16.0508 9.21484 16.2559C9.21484 16.502 9.39258 16.707 9.66602 16.707Z" style="fill:var(--color-1,hsl(0 0 0/0.85))"></path>
 </g>
</svg>