<?xml version="1.0" encoding="UTF-8"?>
<!--Generator: Apple Native CoreSVG 326-->
<!DOCTYPE svg
PUBLIC "-//W3C//DTD SVG 1.1//EN"
       "http://www.w3.org/Graphics/SVG/1.1/DTD/svg11.dtd">
<svg version="1.1" xmlns="http://www.w3.org/2000/svg" xmlns:xlink="http://www.w3.org/1999/xlink" viewBox="0 0 33.291 27.3099">
 <g>
  <rect height="27.3099" opacity="0" width="33.291" x="0" y="0"/>
  <path d="M32.9355 16.3962C32.9355 7.78289 26.3184 0.714533 17.8965 0.00359537C17.459-0.0374203 17.1309 0.277033 17.1309 0.714533L17.1309 5.18524C17.1309 5.55438 17.3906 5.84149 17.7598 5.86883C22.9961 6.51141 27.0703 10.9821 27.0703 16.3962C27.0703 18.8571 26.2227 21.1266 24.7324 23.027C24.541 23.2595 24.5547 23.5602 24.7598 23.779L28.0273 27.0329C28.3281 27.3337 28.793 27.3337 29.0664 27.0055C31.4863 24.1345 32.9355 20.4294 32.9355 16.3962Z" fill="white" fill-opacity="0.85"/>
  <path d="M0 16.3962C0 20.443 1.44922 24.1481 3.86914 27.0192C4.14258 27.3473 4.59375 27.3337 4.9082 27.0329L8.17578 23.779C8.38086 23.5602 8.39453 23.2595 8.20312 23.027C6.69922 21.1266 5.86523 18.8571 5.86523 16.3962C5.86523 10.9821 9.93945 6.51141 15.1758 5.86883C15.5449 5.84149 15.8047 5.55438 15.8047 5.18524L15.8047 0.714533C15.8047 0.277033 15.4766-0.0374203 15.0391 0.00359537C6.61719 0.714533 0 7.78289 0 16.3962Z" fill="white" fill-opacity="0.85"/>
  <path d="M14.834 22.5485L14.998 22.5485C16.6387 22.5485 18.3613 21.9333 19.4414 20.8805C20.3301 19.9919 21 18.7477 21 17.572C21 17.1481 20.7812 16.8063 20.2617 16.8063C19.8105 16.8063 19.5645 17.0934 19.5098 17.5446C19.3867 18.4059 19.0176 19.1579 18.4844 19.7321C17.7051 20.5798 16.5566 21.0173 15.3945 21.0173L15.3945 16.6559L18.1973 15.5075C18.416 15.4118 18.5391 15.2614 18.5391 15.07C18.5391 14.7966 18.3477 14.6052 18.0879 14.6052C18.0059 14.6052 17.9375 14.6325 17.8418 14.6735L15.3945 15.6716L15.3945 13.9763L18.1973 12.8278C18.4297 12.7458 18.5391 12.5817 18.5391 12.363C18.5391 12.1989 18.4434 11.9255 18.1016 11.9255C18.0195 11.9255 17.9375 11.9528 17.8418 11.9938L15.3945 12.9919L15.3945 11.1188C15.3945 10.6266 15.0664 10.2985 14.5879 10.2985C14.1094 10.2985 13.7812 10.6266 13.7812 11.1188L13.7812 13.6345L12.0586 14.3454C11.8262 14.4138 11.7305 14.5641 11.7305 14.7692C11.7305 15.029 11.9219 15.2341 12.168 15.2341C12.2363 15.2341 12.332 15.2067 12.4277 15.1794L13.7812 14.6188L13.7812 16.3141L12.0586 17.0114C11.8262 17.1071 11.7305 17.2302 11.7305 17.4489C11.7305 17.695 11.9219 17.9001 12.168 17.9001C12.2363 17.9001 12.3457 17.8864 12.4414 17.8454L13.7812 17.2985L13.7812 21.5505C13.7812 22.152 14.2188 22.5485 14.834 22.5485Z" fill="white" fill-opacity="0.85"/>
 </g>
</svg>
