<?xml version="1.0" encoding="UTF-8"?>
<!--Generator: Apple Native CoreSVG 326-->
<!DOCTYPE svg
PUBLIC "-//W3C//DTD SVG 1.1//EN"
       "http://www.w3.org/Graphics/SVG/1.1/DTD/svg11.dtd">
<svg version="1.1" xmlns="http://www.w3.org/2000/svg" xmlns:xlink="http://www.w3.org/1999/xlink" viewBox="0 0 30.9258 30.584">
 <g>
  <rect height="30.584" opacity="0" width="30.9258" x="0" y="0"/>
  <path d="M15.2852 30.5703C23.6797 30.5703 30.5703 23.6797 30.5703 15.2852C30.5703 6.89062 23.6797 0 15.2852 0C6.89062 0 0 6.89062 0 15.2852C0 23.6797 6.89062 30.5703 15.2852 30.5703ZM15.2852 25.4844C9.65234 25.4844 5.08594 20.918 5.08594 15.2852C5.08594 9.63867 9.65234 5.08594 15.2852 5.08594C20.9316 5.08594 25.4844 9.63867 25.4844 15.2852C25.4844 20.918 20.9316 25.4844 15.2852 25.4844Z" fill="white" fill-opacity="0.85"/>
  <path d="M13.6719 21.2598L13.8359 21.2598C15.4629 21.2598 17.1992 20.6445 18.2793 19.5918C19.168 18.6895 19.8379 17.459 19.8379 16.2832C19.8379 15.8457 19.6055 15.5176 19.0996 15.5176C18.6484 15.5176 18.4023 15.791 18.3477 16.2559C18.2246 17.1172 17.8555 17.8691 17.3223 18.4297C16.543 19.291 15.3809 19.7285 14.2188 19.7285L14.2188 15.3535L17.0352 14.2188C17.2539 14.123 17.377 13.9727 17.377 13.7812C17.377 13.4941 17.1855 13.3164 16.9258 13.3164C16.8438 13.3164 16.7617 13.3438 16.6797 13.3711L14.2188 14.3691L14.2188 12.6875L17.0352 11.5391C17.2539 11.457 17.377 11.293 17.377 11.0742C17.377 10.8965 17.2676 10.6367 16.9395 10.6367C16.8574 10.6367 16.7754 10.6641 16.6797 10.7051L14.2188 11.7031L14.2188 9.81641C14.2188 9.33789 13.9043 8.99609 13.4258 8.99609C12.9473 8.99609 12.6191 9.33789 12.6191 9.81641L12.6191 12.3457L10.8828 13.043C10.6641 13.125 10.5684 13.2617 10.5684 13.4805C10.5684 13.7402 10.7598 13.9316 11.0059 13.9316C11.0742 13.9316 11.1699 13.918 11.2656 13.877L12.6191 13.3301L12.6191 15.0254L10.8828 15.7227C10.6641 15.8184 10.5684 15.9414 10.5684 16.1602C10.5684 16.4062 10.7598 16.6113 11.0059 16.6113C11.0742 16.6113 11.1836 16.584 11.2656 16.5566L12.6191 15.9961L12.6191 20.248C12.6191 20.8633 13.0566 21.2598 13.6719 21.2598Z" fill="white" fill-opacity="0.85"/>
 </g>
</svg>
