<svg version="1.1" xmlns="http://www.w3.org/2000/svg" xmlns:xlink="http://www.w3.org/1999/xlink" viewBox="0 0 28.2461 27.9043">
 <g>
  
  <path d="M13.9453 27.8906C21.6426 27.8906 27.8906 21.6426 27.8906 13.9453C27.8906 6.24805 21.6426 0 13.9453 0C6.24805 0 0 6.24805 0 13.9453C0 21.6426 6.24805 27.8906 13.9453 27.8906ZM13.9453 25.5664C7.51953 25.5664 2.32422 20.3711 2.32422 13.9453C2.32422 7.51953 7.51953 2.32422 13.9453 2.32422C20.3711 2.32422 25.5664 7.51953 25.5664 13.9453C25.5664 20.3711 20.3711 25.5664 13.9453 25.5664Z" style="fill:var(--color-0,hsl(0 0 0/0.85))"></path>
  <path d="M12.3184 19.9199L12.4824 19.9199C14.1094 19.9199 15.8457 19.3047 16.9258 18.252C17.8145 17.3496 18.4844 16.1191 18.4844 14.9434C18.4844 14.5059 18.252 14.1777 17.7461 14.1777C17.2812 14.1777 17.0488 14.4512 16.9941 14.916C16.8711 15.7773 16.502 16.5293 15.9688 17.0898C15.1758 17.9512 14.0273 18.3887 12.8652 18.3887L12.8652 14.0137L15.6816 12.8789C15.9004 12.7832 16.0234 12.6328 16.0234 12.4414C16.0234 12.1543 15.832 11.9766 15.5723 11.9766C15.4902 11.9766 15.4082 12.0039 15.3262 12.0312L12.8652 13.0293L12.8652 11.3477L15.6816 10.1992C15.9004 10.1172 16.0234 9.95312 16.0234 9.73438C16.0234 9.55664 15.9141 9.29688 15.5859 9.29688C15.5039 9.29688 15.4219 9.32422 15.3262 9.36523L12.8652 10.3633L12.8652 8.47656C12.8652 7.99805 12.5508 7.65625 12.0723 7.65625C11.5938 7.65625 11.252 7.99805 11.252 8.47656L11.252 11.0059L9.5293 11.7031C9.31055 11.7852 9.21484 11.9219 9.21484 12.1406C9.21484 12.4004 9.40625 12.5918 9.65234 12.5918C9.7207 12.5918 9.81641 12.5781 9.91211 12.5371L11.252 11.9902L11.252 13.6855L9.5293 14.3828C9.31055 14.4785 9.21484 14.6016 9.21484 14.8203C9.21484 15.0664 9.40625 15.2715 9.65234 15.2715C9.7207 15.2715 9.83008 15.2441 9.91211 15.2168L11.252 14.6562L11.252 18.9082C11.252 19.5234 11.6895 19.9199 12.3184 19.9199Z" style="fill:var(--color-1,hsl(0 0 0/0.85))"></path>
 </g>
</svg>