<svg version="1.1" xmlns="http://www.w3.org/2000/svg" xmlns:xlink="http://www.w3.org/1999/xlink" viewBox="0 0 30.8848 29.1895">
 <g>
  
  <path d="M1.81836 25.9219L28.7109 25.9219L28.7109 25.0059C28.7109 24.459 28.3965 24.1309 27.8359 24.1309L26.9609 24.1309L26.9609 9.37891L28.1641 9.37891C28.916 9.37891 29.3535 8.83203 29.3535 8.27148C29.3535 7.86133 29.1211 7.50586 28.6152 7.21875L16.9395 0.478516C16.3926 0.164062 15.8184 0 15.2578 0C14.6973 0 14.1094 0.164062 13.5898 0.478516L1.91406 7.21875C1.39453 7.50586 1.17578 7.86133 1.17578 8.27148C1.17578 8.83203 1.61328 9.37891 2.36523 9.37891L3.56836 9.37891L3.56836 24.1309L2.70703 24.1309C2.14648 24.1309 1.81836 24.459 1.81836 25.0059ZM5.63281 24.1309L5.63281 7.62891L14.7246 2.5293C14.8887 2.43359 15.0801 2.37891 15.2578 2.37891C15.4355 2.37891 15.627 2.43359 15.8047 2.5293L24.8965 7.62891L24.8965 24.1309ZM1.09375 29.1758L29.4219 29.1758C30.0234 29.1758 30.5293 28.6699 30.5293 28.0684C30.5293 27.4668 30.0234 26.9746 29.4219 26.9746L1.09375 26.9746C0.492188 26.9746 0 27.4668 0 28.0684C0 28.6699 0.492188 29.1758 1.09375 29.1758Z" style="fill:var(--color-0,hsl(0 0 0/0.85))"></path>
  <path d="M13.6582 20.3574L13.8223 20.3574C15.4492 20.3574 17.1855 19.7422 18.2656 18.6895C19.1543 17.8008 19.8105 16.5566 19.8105 15.3809C19.8105 14.957 19.5918 14.6152 19.0859 14.6152C18.6211 14.6152 18.375 14.9023 18.3203 15.3535C18.2109 16.2148 17.8418 16.9668 17.3086 17.541C16.5156 18.3887 15.3672 18.8262 14.2051 18.8262L14.2051 14.4648L17.0215 13.3164C17.2402 13.2207 17.3633 13.0703 17.3633 12.8789C17.3633 12.6055 17.1719 12.4141 16.9121 12.4141C16.8301 12.4141 16.748 12.4414 16.666 12.4824L14.2051 13.4805L14.2051 11.7852L17.0215 10.6367C17.2402 10.5547 17.3633 10.3906 17.3633 10.1719C17.3633 10.0078 17.2539 9.73438 16.9258 9.73438C16.8438 9.73438 16.748 9.76172 16.666 9.80273L14.2051 10.8008L14.2051 8.92773C14.2051 8.43555 13.8906 8.10742 13.4121 8.10742C12.9336 8.10742 12.5918 8.43555 12.5918 8.92773L12.5918 11.4434L10.8691 12.1543C10.6504 12.2227 10.5547 12.373 10.5547 12.5781C10.5547 12.8379 10.7461 13.043 10.9922 13.043C11.0605 13.043 11.1562 13.0156 11.252 12.9883L12.5918 12.4277L12.5918 14.123L10.8691 14.8203C10.6504 14.916 10.5547 15.0391 10.5547 15.2578C10.5547 15.5039 10.7461 15.709 10.9922 15.709C11.0605 15.709 11.1699 15.6953 11.252 15.6543L12.5918 15.1074L12.5918 19.3594C12.5918 19.9609 13.0293 20.3574 13.6582 20.3574Z" style="fill:var(--color-1,hsl(0 0 0/0.85))"></path>
 </g>
</svg>