<svg version="1.1" xmlns="http://www.w3.org/2000/svg" xmlns:xlink="http://www.w3.org/1999/xlink" viewBox="0 0 42.2051 34.5488">
 <g>
  
  <path d="M17.7051 29.75C17.7051 30.1713 17.7395 30.5633 17.8061 30.9258L11.7168 30.9258C11.1152 30.9258 10.623 30.4336 10.623 29.8184C10.623 29.2031 11.1152 28.7109 11.7168 28.7109L17.7051 28.7109ZM35.6836 7.10938L35.6836 20.0566L22.4629 20.0566C19.7695 20.0566 17.7051 21.6016 17.7051 24.7734L17.7051 26.291L5.01758 26.291C2.69336 26.291 1.50391 25.1562 1.50391 22.7773L1.50391 7.10938C1.50391 4.73047 2.69336 3.5957 5.01758 3.5957L32.1836 3.5957C34.5078 3.5957 35.6836 4.73047 35.6836 7.10938Z" style="fill:var(--color-0,hsl(0 0 0/0.85))"></path>
  <path d="M22.4629 32.6758L37.4473 32.6758C39.3613 32.6758 40.3457 31.7051 40.3457 29.75L40.3457 24.8555C40.3457 22.8867 39.3613 21.916 37.4473 21.916L22.4629 21.916C20.5078 21.916 19.5645 22.8867 19.5645 24.7734L19.5645 29.75C19.5645 31.7051 20.5078 32.6758 22.4629 32.6758ZM35.8613 28.0137C34.9863 28.0137 34.2754 27.3027 34.2754 26.4277C34.2754 25.5664 34.9863 24.8691 35.8613 24.8691C36.709 24.8691 37.4199 25.5664 37.4199 26.4277C37.4199 27.3027 36.709 28.0137 35.8613 28.0137Z" style="fill:var(--color-1,hsl(0 0 0/0.85))"></path>
 </g>
</svg>