<svg version="1.1" xmlns="http://www.w3.org/2000/svg" xmlns:xlink="http://www.w3.org/1999/xlink" viewBox="0 0 28.2461 27.9043">
 <g>
  
  <path d="M13.9453 27.8906C21.6426 27.8906 27.8906 21.6289 27.8906 13.9453C27.8906 6.24805 21.6426 0 13.9453 0C6.26172 0 0 6.24805 0 13.9453C0 21.6289 6.26172 27.8906 13.9453 27.8906Z" style="fill:var(--color-0,hsl(0 0 0/0.85))"></path>
  <path d="M7.62891 18.8398C6.48047 18.8398 5.66016 18.0332 5.66016 16.8848L5.66016 9.625C5.66016 8.46289 6.48047 7.64258 7.62891 7.64258L20.2344 7.64258C21.3828 7.64258 22.2168 8.46289 22.2168 9.625L22.2168 16.8848C22.2168 18.0332 21.3828 18.8398 20.2344 18.8398ZM7.80664 17.418L20.0703 17.418C20.4531 17.418 20.7266 17.1445 20.7266 16.748L20.7266 9.74805C20.7266 9.33789 20.4531 9.07812 20.0703 9.07812L7.80664 9.07812C7.42383 9.07812 7.15039 9.33789 7.15039 9.74805L7.15039 16.748C7.15039 17.1445 7.42383 17.418 7.80664 17.418ZM10.2949 21.7109C9.89844 21.7109 9.57031 21.3965 9.57031 21C9.57031 20.6035 9.89844 20.2754 10.2949 20.2754L17.623 20.2754C18.0195 20.2754 18.3477 20.6035 18.3477 21C18.3477 21.3965 18.0195 21.7109 17.623 21.7109Z" style="fill:var(--color-1,white)"></path>
 </g>
</svg>