<svg version="1.1" xmlns="http://www.w3.org/2000/svg" xmlns:xlink="http://www.w3.org/1999/xlink" viewBox="0 0 28.2461 27.9043">
 <g>
  
  <path d="M13.9453 27.8906C21.6426 27.8906 27.8906 21.6426 27.8906 13.9453C27.8906 6.24805 21.6426 0 13.9453 0C6.24805 0 0 6.24805 0 13.9453C0 21.6426 6.24805 27.8906 13.9453 27.8906ZM13.9453 25.5664C7.51953 25.5664 2.32422 20.3711 2.32422 13.9453C2.32422 7.51953 7.51953 2.32422 13.9453 2.32422C20.3711 2.32422 25.5664 7.51953 25.5664 13.9453C25.5664 20.3711 20.3711 25.5664 13.9453 25.5664Z" style="fill:var(--color-0,hsl(0 0 0/0.85))"></path>
  <path d="M7.80664 18.7168L20.0293 18.7168C21.1504 18.7168 21.957 17.9375 21.957 16.8164L21.957 9.77539C21.957 8.6543 21.1504 7.86133 20.0293 7.86133L7.80664 7.86133C6.68555 7.86133 5.89258 8.6543 5.89258 9.77539L5.89258 16.8164C5.89258 17.9375 6.68555 18.7168 7.80664 18.7168ZM7.9707 17.3359C7.60156 17.3359 7.3418 17.0762 7.3418 16.6934L7.3418 9.89844C7.3418 9.50195 7.60156 9.24219 7.9707 9.24219L19.8789 9.24219C20.248 9.24219 20.5078 9.50195 20.5078 9.89844L20.5078 16.6934C20.5078 17.0762 20.248 17.3359 19.8789 17.3359ZM10.3906 21.4922L17.5 21.4922C17.8828 21.4922 18.1973 21.1914 18.1973 20.8086C18.1973 20.4258 17.8828 20.1113 17.5 20.1113L10.3906 20.1113C10.0078 20.1113 9.69336 20.4258 9.69336 20.8086C9.69336 21.1914 10.0078 21.4922 10.3906 21.4922Z" style="fill:var(--color-1,hsl(0 0 0/0.85))"></path>
 </g>
</svg>