<svg version="1.1" xmlns="http://www.w3.org/2000/svg" xmlns:xlink="http://www.w3.org/1999/xlink" viewBox="0 0 34.5352 27.3574">
 <g>
  
  <path d="M3.51367 22.6953L30.666 22.6953C33.0039 22.6953 34.1797 21.5605 34.1797 19.1816L34.1797 3.51367C34.1797 1.13477 33.0039 0 30.666 0L3.51367 0C1.18945 0 0 1.13477 0 3.51367L0 19.1816C0 21.5605 1.18945 22.6953 3.51367 22.6953ZM10.2129 27.3301L23.9668 27.3301C24.5684 27.3301 25.0742 26.8379 25.0742 26.2227C25.0742 25.6074 24.5684 25.1152 23.9668 25.1152L10.2129 25.1152C9.61133 25.1152 9.10547 25.6074 9.10547 26.2227C9.10547 26.8379 9.61133 27.3301 10.2129 27.3301Z" style="fill:var(--color-0,hsl(0 0 0/0.85))"></path>
 </g>
</svg>