<svg version="1.1" xmlns="http://www.w3.org/2000/svg" xmlns:xlink="http://www.w3.org/1999/xlink" viewBox="0 0 28.2461 27.9043">
 <g>
  
  <path d="M13.9453 27.8906C21.6426 27.8906 27.8906 21.6426 27.8906 13.9453C27.8906 6.24805 21.6426 0 13.9453 0C6.24805 0 0 6.24805 0 13.9453C0 21.6426 6.24805 27.8906 13.9453 27.8906ZM13.9453 25.5664C7.51953 25.5664 2.32422 20.3711 2.32422 13.9453C2.32422 7.51953 7.51953 2.32422 13.9453 2.32422C20.3711 2.32422 25.5664 7.51953 25.5664 13.9453C25.5664 20.3711 20.3711 25.5664 13.9453 25.5664Z" style="fill:var(--color-0,hsl(0 0 0/0.85))"></path>
  <path d="M13.9316 20.3574C17.1309 20.3574 19.2773 18.5117 19.2773 15.6406L19.2773 8.6543C19.2773 7.88867 18.8809 7.42383 18.1699 7.42383C17.5 7.42383 17.0898 7.88867 17.0898 8.6543L17.0898 15.4355C17.0898 17.3496 15.8457 18.5527 13.9316 18.5527C12.0176 18.5527 10.7598 17.3496 10.7598 15.4355L10.7598 8.6543C10.7598 7.88867 10.3633 7.42383 9.65234 7.42383C8.98242 7.42383 8.58594 7.88867 8.58594 8.6543L8.58594 15.6406C8.58594 18.5117 10.7324 20.3574 13.9316 20.3574Z" style="fill:var(--color-1,hsl(0 0 0/0.85))"></path>
 </g>
</svg>