<svg version="1.1" xmlns="http://www.w3.org/2000/svg" xmlns:xlink="http://www.w3.org/1999/xlink" viewBox="0 0 25.5254 25.1699">
 <g>
  
  <path d="M4.29297 25.1699L20.877 25.1699C23.748 25.1699 25.1699 23.7617 25.1699 20.9453L25.1699 4.23828C25.1699 1.42188 23.748 0 20.877 0L4.29297 0C1.43555 0 0 1.42188 0 4.23828L0 20.9453C0 23.7617 1.43555 25.1699 4.29297 25.1699ZM4.32031 22.9688C2.95312 22.9688 2.20117 22.2441 2.20117 20.8223L2.20117 4.36133C2.20117 2.93945 2.95312 2.20117 4.32031 2.20117L20.8496 2.20117C22.2031 2.20117 22.9688 2.93945 22.9688 4.36133L22.9688 20.8223C22.9688 22.2441 22.2031 22.9688 20.8496 22.9688Z" style="fill:var(--color-0,hsl(0 0 0/0.85))"></path>
  <path d="M12.5918 18.9902C15.791 18.9902 17.9375 17.1445 17.9375 14.2734L17.9375 7.28711C17.9375 6.52148 17.541 6.05664 16.8301 6.05664C16.1602 6.05664 15.75 6.52148 15.75 7.28711L15.75 14.0684C15.75 15.9824 14.5059 17.1855 12.5918 17.1855C10.6777 17.1855 9.41992 15.9824 9.41992 14.0684L9.41992 7.28711C9.41992 6.52148 9.02344 6.05664 8.32617 6.05664C7.64258 6.05664 7.24609 6.52148 7.24609 7.28711L7.24609 14.2734C7.24609 17.1445 9.39258 18.9902 12.5918 18.9902Z" style="fill:var(--color-1,hsl(0 0 0/0.85))"></path>
 </g>
</svg>