<svg version="1.1" xmlns="http://www.w3.org/2000/svg" xmlns:xlink="http://www.w3.org/1999/xlink" viewBox="0 0 30.1055 32.334">
 <g>
  
  <path d="M13.3027 4.08789L15.5723 4.08789L15.5723 1.14844C15.5723 0.519531 15.0664 0 14.4375 0C13.8086 0 13.3027 0.519531 13.3027 1.14844ZM1.94141 17.3496C2.35156 17.3496 2.73438 17.0898 3.03516 16.6387C3.9375 15.2578 4.89453 14.6836 6.19336 14.6836C7.46484 14.6836 8.32617 15.2578 9.11914 16.625C9.40625 17.1309 9.69336 17.3496 10.0762 17.3496C10.4863 17.3496 10.7734 17.1309 11.0469 16.625C11.7852 15.3672 13.125 14.6016 14.4375 14.6016C15.75 14.6016 17.0898 15.3672 17.8281 16.625C18.1016 17.1309 18.3887 17.3496 18.7988 17.3496C19.1816 17.3496 19.4688 17.1309 19.7695 16.625C20.5488 15.2578 21.4102 14.6836 22.6816 14.6836C23.9805 14.6836 24.9375 15.2578 25.8535 16.6387C26.1543 17.0898 26.5234 17.3496 26.9336 17.3496C27.6172 17.3496 28.0684 16.7891 28.0684 16.0508C28.0684 10.623 23.7891 3.00781 14.4375 3.00781C5.08594 3.00781 0.806641 10.623 0.806641 16.0508C0.806641 16.7891 1.25781 17.3496 1.94141 17.3496ZM11.2383 31.6094C13.6992 31.6094 15.5723 29.7363 15.5723 27.248L15.5723 13.9453L13.3027 13.9453L13.3027 27.248C13.3027 28.4375 12.4414 29.2988 11.2383 29.2988C10.0352 29.2988 9.20117 28.4375 9.20117 27.248C9.20117 26.4551 8.70898 25.9219 8.01172 25.9219C7.32812 25.9219 6.89062 26.4551 6.89062 27.248C6.89062 29.7363 8.76367 31.6094 11.2383 31.6094Z" style="fill:var(--color-0,hsl(0 0 0/0.85))"></path>
  <path d="M20.7676 26.1543C22.2305 26.1543 23.1738 24.9648 23.1738 23.1191C23.1738 21.2734 22.2305 20.0977 20.7676 20.0977C19.3047 20.0977 18.3613 21.2734 18.3613 23.1191C18.3613 24.9648 19.3047 26.1543 20.7676 26.1543ZM20.7676 24.4863C20.3711 24.4863 20.1387 23.9805 20.1387 23.1191C20.1387 22.2715 20.3848 21.7656 20.7676 21.7656C21.1367 21.7656 21.3965 22.2715 21.3965 23.1191C21.3965 23.9805 21.1504 24.4863 20.7676 24.4863ZM20.3984 31.5684C20.8086 31.8145 21.3828 31.6914 21.6699 31.2812L28.3008 21.4648C28.6289 20.9863 28.5059 20.3848 28.041 20.125C27.6309 19.8926 27.1113 20.0293 26.8105 20.4668L20.1387 30.2559C19.7969 30.748 19.9062 31.3086 20.3984 31.5684ZM27.6992 31.623C29.1621 31.623 30.1055 30.4199 30.1055 28.5742C30.1055 26.7285 29.1621 25.5527 27.6992 25.5527C26.2363 25.5527 25.293 26.7285 25.293 28.5742C25.293 30.4199 26.2363 31.623 27.6992 31.623ZM27.6992 29.9414C27.3027 29.9414 27.0703 29.4492 27.0703 28.5742C27.0703 27.7266 27.3164 27.2207 27.6992 27.2207C28.0684 27.2207 28.3281 27.7266 28.3281 28.5742C28.3281 29.4492 28.0957 29.9414 27.6992 29.9414Z" style="fill:var(--color-1,hsl(0 0 0/0.85))"></path>
 </g>
</svg>