<?xml version="1.0" encoding="UTF-8"?>
<!--Generator: Apple Native CoreSVG 326-->
<!DOCTYPE svg
PUBLIC "-//W3C//DTD SVG 1.1//EN"
       "http://www.w3.org/Graphics/SVG/1.1/DTD/svg11.dtd">
<svg version="1.1" xmlns="http://www.w3.org/2000/svg" xmlns:xlink="http://www.w3.org/1999/xlink" viewBox="0 0 28.2461 27.9043">
 <g>
  <rect height="27.9043" opacity="0" width="28.2461" x="0" y="0"/>
  <path d="M13.9453 27.8906C21.6426 27.8906 27.8906 21.6426 27.8906 13.9453C27.8906 6.24805 21.6426 0 13.9453 0C6.24805 0 0 6.24805 0 13.9453C0 21.6426 6.24805 27.8906 13.9453 27.8906ZM13.9453 25.5664C7.51953 25.5664 2.32422 20.3711 2.32422 13.9453C2.32422 7.51953 7.51953 2.32422 13.9453 2.32422C20.3711 2.32422 25.5664 7.51953 25.5664 13.9453C25.5664 20.3711 20.3711 25.5664 13.9453 25.5664Z" fill="white" fill-opacity="0.85"/>
  <path d="M13.9453 20.3438C14.7246 20.3438 15.2168 19.9336 15.5586 19.0449L19.373 9.05078C19.4551 8.83203 19.4824 8.68164 19.4824 8.47656C19.4824 7.86133 19.0176 7.4375 18.375 7.4375C17.7734 7.4375 17.4453 7.72461 17.2129 8.36719L13.9727 17.7324L13.877 17.7324L10.6367 8.36719C10.418 7.72461 10.0762 7.4375 9.47461 7.4375C8.83203 7.4375 8.36719 7.875 8.36719 8.47656C8.36719 8.68164 8.4082 8.83203 8.47656 9.05078L12.3184 19.0586C12.6738 19.9883 13.1113 20.3438 13.9453 20.3438Z" fill="white" fill-opacity="0.85"/>
 </g>
</svg>
