<svg version="1.1" xmlns="http://www.w3.org/2000/svg" xmlns:xlink="http://www.w3.org/1999/xlink" viewBox="0 0 25.5254 25.1699">
 <g>
  
  <path d="M4.29297 25.1699L20.877 25.1699C23.748 25.1699 25.1699 23.7617 25.1699 20.9453L25.1699 4.23828C25.1699 1.42188 23.748 0 20.877 0L4.29297 0C1.43555 0 0 1.42188 0 4.23828L0 20.9453C0 23.7617 1.43555 25.1699 4.29297 25.1699ZM4.32031 22.9688C2.95312 22.9688 2.20117 22.2441 2.20117 20.8223L2.20117 4.36133C2.20117 2.93945 2.95312 2.20117 4.32031 2.20117L20.8496 2.20117C22.2031 2.20117 22.9688 2.93945 22.9688 4.36133L22.9688 20.8223C22.9688 22.2441 22.2031 22.9688 20.8496 22.9688Z" style="fill:var(--color-0,hsl(0 0 0/0.85))"></path>
  <path d="M12.6055 18.9766C13.3848 18.9766 13.877 18.5664 14.2188 17.6777L18.0469 7.68359C18.1152 7.46484 18.1426 7.31445 18.1426 7.10938C18.1426 6.49414 17.6777 6.07031 17.0488 6.07031C16.4473 6.07031 16.1055 6.35742 15.8867 7L12.6328 16.3652L12.5371 16.3652L9.29688 7C9.07812 6.35742 8.73633 6.07031 8.13477 6.07031C7.50586 6.07031 7.02734 6.50781 7.02734 7.10938C7.02734 7.31445 7.06836 7.46484 7.13672 7.68359L10.9785 17.6914C11.334 18.6211 11.7715 18.9766 12.6055 18.9766Z" style="fill:var(--color-1,hsl(0 0 0/0.85))"></path>
 </g>
</svg>