<svg version="1.1" xmlns="http://www.w3.org/2000/svg" xmlns:xlink="http://www.w3.org/1999/xlink" viewBox="0 0 25.5254 25.1699">
 <g>
  
  <path d="M4.29297 25.1699L20.877 25.1699C23.748 25.1699 25.1699 23.7617 25.1699 20.9453L25.1699 4.23828C25.1699 1.42188 23.748 0 20.877 0L4.29297 0C1.43555 0 0 1.42188 0 4.23828L0 20.9453C0 23.7617 1.43555 25.1699 4.29297 25.1699Z" style="fill:var(--color-0,hsl(0 0 0/0.85))"></path>
  <path d="M12.6055 19.1816C11.7441 19.1816 11.293 18.8125 10.9238 17.8555L6.95898 7.5332C6.89062 7.31445 6.84961 7.15039 6.84961 6.94531C6.84961 6.31641 7.3418 5.86523 7.99805 5.86523C8.62695 5.86523 8.96875 6.16602 9.20117 6.83594L12.5371 16.4746L12.6328 16.4746L15.9824 6.83594C16.2148 6.16602 16.5566 5.86523 17.1855 5.86523C17.8418 5.86523 18.3203 6.30273 18.3203 6.94531C18.3203 7.15039 18.293 7.31445 18.2246 7.5332L14.2734 17.8281C13.918 18.7578 13.4121 19.1816 12.6055 19.1816Z" style="fill:var(--color-1,white)"></path>
 </g>
</svg>