<svg version="1.1" xmlns="http://www.w3.org/2000/svg" xmlns:xlink="http://www.w3.org/1999/xlink" viewBox="0 0 25.5254 25.1699">
 <g>
  
  <path d="M4.29297 25.1699L20.877 25.1699C23.748 25.1699 25.1699 23.7617 25.1699 20.9453L25.1699 4.23828C25.1699 1.42188 23.748 0 20.877 0L4.29297 0C1.43555 0 0 1.42188 0 4.23828L0 20.9453C0 23.7617 1.43555 25.1699 4.29297 25.1699Z" style="fill:var(--color-0,#28cd41)"></path>
  <path d="M6.71289 18.2656C5.31836 18.2656 4.4707 17.4453 4.4707 16.0508L4.4707 9.11914C4.4707 7.71094 5.37305 6.9043 6.71289 6.9043L14.2324 6.9043C15.6543 6.9043 16.4062 7.71094 16.4062 9.11914L16.4062 16.0508C16.4062 17.4453 15.5723 18.2656 14.1641 18.2656ZM17.1992 14.5059L17.1992 10.6641L19.9473 8.29883C20.166 8.10742 20.4805 7.98438 20.7266 7.98438C21.2598 7.98438 21.6289 8.36719 21.6289 8.94141L21.6289 16.2148C21.6289 16.8027 21.2598 17.1992 20.7266 17.1992C20.4805 17.1992 20.1934 17.0762 19.9473 16.8574Z" style="fill:var(--color-1,white)"></path>
 </g>
</svg>