<?xml version="1.0" encoding="UTF-8"?>
<!--Generator: Apple Native CoreSVG 326-->
<!DOCTYPE svg
PUBLIC "-//W3C//DTD SVG 1.1//EN"
       "http://www.w3.org/Graphics/SVG/1.1/DTD/svg11.dtd">
<svg version="1.1" xmlns="http://www.w3.org/2000/svg" xmlns:xlink="http://www.w3.org/1999/xlink" viewBox="0 0 25.5254 25.1699">
 <g>
  <rect height="25.1699" opacity="0" width="25.5254" x="0" y="0"/>
  <path d="M4.29297 25.1699L20.877 25.1699C23.748 25.1699 25.1699 23.7617 25.1699 20.9453L25.1699 4.23828C25.1699 1.42188 23.748 0 20.877 0L4.29297 0C1.43555 0 0 1.42188 0 4.23828L0 20.9453C0 23.7617 1.43555 25.1699 4.29297 25.1699ZM4.32031 22.9688C2.95312 22.9688 2.20117 22.2441 2.20117 20.8223L2.20117 4.36133C2.20117 2.93945 2.95312 2.20117 4.32031 2.20117L20.8496 2.20117C22.2031 2.20117 22.9688 2.93945 22.9688 4.36133L22.9688 20.8223C22.9688 22.2441 22.2031 22.9688 20.8496 22.9688Z" fill="#32d74b"/>
  <path d="M6.86328 18.1016L14.0957 18.1016C15.4629 18.1016 16.2695 17.3086 16.2695 15.9551L16.2695 9.22852C16.2695 7.875 15.5312 7.0957 14.1641 7.0957L6.86328 7.0957C5.56445 7.0957 4.68945 7.875 4.68945 9.22852L4.68945 15.9551C4.68945 17.3086 5.50977 18.1016 6.86328 18.1016ZM17.0352 14.4648L19.7148 16.7207C19.9473 16.9258 20.207 17.0625 20.4531 17.0625C20.9863 17.0625 21.3281 16.6797 21.3281 16.1055L21.3281 9.06445C21.3281 8.50391 20.9863 8.12109 20.4531 8.12109C20.207 8.12109 19.9336 8.25781 19.7148 8.44922L17.0352 10.7188Z" fill="#32d74b"/>
 </g>
</svg>
