<svg version="1.1" xmlns="http://www.w3.org/2000/svg" xmlns:xlink="http://www.w3.org/1999/xlink" viewBox="0 0 18.3203 31.2402">
 <g>
  
  <path d="M8.98242 31.2266C14.2598 31.2266 17.9648 27.6855 17.9648 22.668L17.9648 8.55859C17.9648 3.52734 14.2598 0 8.98242 0C3.71875 0 0 3.52734 0 8.55859L0 22.668C0 27.6855 3.71875 31.2266 8.98242 31.2266ZM8.96875 29.0254C4.99023 29.0254 2.1875 26.4004 2.1875 22.668L2.1875 8.55859C2.1875 4.82617 4.99023 2.20117 8.96875 2.20117C12.9746 2.20117 15.7773 4.82617 15.7773 8.55859L15.7773 22.668C15.7773 26.4004 12.9746 29.0254 8.96875 29.0254Z" style="fill:var(--color-0,hsl(0 0 0/0.85))"></path>
  <path d="M8.98242 14.4102C11.8125 14.4102 14.041 12.1816 14.041 9.35156C14.041 6.50781 11.8125 4.2793 8.98242 4.2793C6.15234 4.2793 3.91016 6.50781 3.91016 9.35156C3.91016 12.1816 6.15234 14.4102 8.98242 14.4102ZM8.98242 11.2246C7.92969 11.2246 7.10938 10.4043 7.10938 9.35156C7.10938 8.28516 7.92969 7.46484 8.98242 7.46484C10.0352 7.46484 10.8418 8.28516 10.8418 9.35156C10.8418 10.4043 10.0352 11.2246 8.98242 11.2246ZM8.98242 26.9062C11.8125 26.9062 14.041 24.6777 14.041 21.834C14.041 19.0039 11.8125 16.7754 8.98242 16.7754C6.15234 16.7754 3.91016 19.0039 3.91016 21.834C3.91016 24.6777 6.15234 26.9062 8.98242 26.9062ZM8.98242 25.1152C7.12305 25.1152 5.70117 23.6934 5.70117 21.834C5.70117 19.9746 7.12305 18.5664 8.98242 18.5664C10.8281 18.5664 12.25 19.9746 12.25 21.834C12.25 23.6934 10.8281 25.1152 8.98242 25.1152Z" style="fill:var(--color-1,hsl(0 0 0/0.85))"></path>
 </g>
</svg>