<?xml version="1.0" encoding="UTF-8"?>
<!--Generator: Apple Native CoreSVG 326-->
<!DOCTYPE svg
PUBLIC "-//W3C//DTD SVG 1.1//EN"
       "http://www.w3.org/Graphics/SVG/1.1/DTD/svg11.dtd">
<svg version="1.1" xmlns="http://www.w3.org/2000/svg" xmlns:xlink="http://www.w3.org/1999/xlink" viewBox="0 0 28.2461 27.9043">
 <g>
  <rect height="27.9043" opacity="0" width="28.2461" x="0" y="0"/>
  <path d="M13.9453 27.9043C21.6426 27.9043 27.8906 21.6562 27.8906 13.959C27.8906 6.27539 21.6426 0.0136719 13.9453 0.0136719C6.26172 0.0136719 0 6.27539 0 13.959C0 21.6562 6.26172 27.9043 13.9453 27.9043Z" fill="#32d74b"/>
  <path d="M8.06641 19.6465C6.6582 19.6465 5.82422 18.8262 5.82422 17.4453L5.82422 10.5C5.82422 9.0918 6.71289 8.28516 8.06641 8.28516L15.5859 8.28516C17.0078 8.28516 17.7461 9.0918 17.7461 10.5L17.7461 17.4453C17.7461 18.8262 16.9258 19.6465 15.5176 19.6465ZM18.5391 15.8867L18.5391 12.0449L21.3008 9.69336C21.5195 9.48828 21.834 9.36523 22.0801 9.36523C22.6133 9.36523 22.9688 9.74805 22.9688 10.3359L22.9688 17.5957C22.9688 18.1973 22.6133 18.5801 22.0801 18.5801C21.834 18.5801 21.5469 18.457 21.3008 18.2383Z" fill="white"/>
 </g>
</svg>
