<svg version="1.1" xmlns="http://www.w3.org/2000/svg" xmlns:xlink="http://www.w3.org/1999/xlink" viewBox="0 0 35.4648 22.2168">
 <g>
  
  <path d="M6.28906 22.2031L20.9727 22.2031C23.7207 22.2031 25.3613 20.6172 25.3613 17.8691L25.3613 4.32031C25.3613 1.58594 23.8574 0 21.1094 0L6.28906 0C3.66406 0 1.90039 1.58594 1.90039 4.32031L1.90039 17.8691C1.90039 20.6172 3.54102 22.2031 6.28906 22.2031ZM27.2207 15.1348L32.1973 19.4414C32.6621 19.8516 33.209 20.1113 33.7012 20.1113C34.7676 20.1113 35.4648 19.332 35.4648 18.2109L35.4648 3.99219C35.4648 2.87109 34.7676 2.0918 33.7012 2.0918C33.209 2.0918 32.6621 2.35156 32.1973 2.76172L27.2207 7.05469Z" style="fill:var(--color-0,#28cd41)"></path>
 </g>
</svg>