<svg version="1.1" xmlns="http://www.w3.org/2000/svg" xmlns:xlink="http://www.w3.org/1999/xlink" viewBox="0 0 39.8467 32.8467">
 <g>
  
  <path d="M6.17292 10.317C6.16127 10.4623 6.15576 10.6135 6.15576 10.77L6.15576 22.063C6.15576 24.4283 7.42725 25.5904 9.66943 25.5904L21.4618 25.5904L23.5283 27.6548L9.28662 27.6548C5.95068 27.6548 3.95459 25.7134 3.95459 22.3775L3.95459 10.4419C3.95459 9.69428 4.06329 9.01657 4.27343 8.41941ZM28.9058 10.4419L28.9058 12.3226L34.0737 7.95364C34.6206 7.50247 35.2222 7.18802 35.7827 7.18802C36.9858 7.18802 37.7788 8.07669 37.7788 9.34817L37.7788 23.4849C37.7788 24.7564 36.9858 25.645 35.7827 25.645C35.2222 25.645 34.6206 25.3306 34.0737 24.8794L28.9058 20.4976L28.9058 22.3775C28.9058 23.1481 28.7992 23.8444 28.5897 24.4557L26.6832 22.5502C26.698 22.3951 26.7046 22.2321 26.7046 22.063L26.7046 10.77C26.7046 8.39114 25.4194 7.22903 23.1909 7.22903L11.3543 7.22903L9.30247 5.17825L23.5737 5.17825C26.9097 5.17825 28.9058 7.11966 28.9058 10.4419ZM35.0991 9.81302L28.9058 14.9264L28.9058 17.9066L35.0991 23.02C35.2222 23.1021 35.3042 23.1704 35.4272 23.1704C35.5913 23.1704 35.6597 23.0474 35.6597 22.856L35.6597 9.97708C35.6597 9.78567 35.5913 9.64896 35.4272 9.64896C35.3042 9.64896 35.2222 9.71732 35.0991 9.81302Z" style="fill:var(--color-0,#28cd41)"></path>
  <path d="M29.1792 30.6626C29.5894 31.0728 30.2729 31.0728 30.6694 30.6626C31.0796 30.2525 31.0796 29.5825 30.6694 29.1724L3.66748 2.18411C3.25732 1.77396 2.5874 1.77396 2.16357 2.18411C1.76709 2.5806 1.76709 3.27786 2.16357 3.67435Z" style="fill:var(--color-1,#28cd41)"></path>
 </g>
</svg>