<svg version="1.1" xmlns="http://www.w3.org/2000/svg" xmlns:xlink="http://www.w3.org/1999/xlink" viewBox="0 0 30.4883 30.0371">
 <g>
  
  <path d="M8.4082 30.0371C9.07812 30.0371 9.54297 29.6816 10.377 28.9434L15.0938 24.7461L23.8711 24.7461C27.9453 24.7461 30.1328 22.4902 30.1328 18.4844L30.1328 8.01172C30.1328 4.00586 27.9453 1.75 23.8711 1.75L6.26172 1.75C2.1875 1.75 0 3.99219 0 8.01172L0 18.4844C0 22.5039 2.1875 24.7461 6.26172 24.7461L6.91797 24.7461L6.91797 28.3008C6.91797 29.3535 7.45117 30.0371 8.4082 30.0371ZM8.96875 27.5352L8.96875 23.5703C8.96875 22.832 8.68164 22.5449 7.94336 22.5449L6.26172 22.5449C3.5 22.5449 2.20117 21.1367 2.20117 18.4707L2.20117 8.01172C2.20117 5.3457 3.5 3.95117 6.26172 3.95117L23.8711 3.95117C26.6191 3.95117 27.9316 5.3457 27.9316 8.01172L27.9316 18.4707C27.9316 21.1367 26.6191 22.5449 23.8711 22.5449L15.0117 22.5449C14.2461 22.5449 13.8633 22.6543 13.3438 23.1875Z" style="fill:var(--color-0,hsl(0 0 0/0.85))"></path>
  <path d="M9.35156 18.7715L16.584 18.7715C17.9512 18.7715 18.7578 17.9785 18.7578 16.625L18.7578 9.89844C18.7578 8.54492 18.0195 7.76562 16.6523 7.76562L9.35156 7.76562C8.05273 7.76562 7.17773 8.54492 7.17773 9.89844L7.17773 16.625C7.17773 17.9785 7.99805 18.7715 9.35156 18.7715ZM19.5234 15.1348L22.1895 17.3906C22.4355 17.5957 22.6953 17.7324 22.9414 17.7324C23.4609 17.7324 23.8164 17.3496 23.8164 16.7891L23.8164 9.73438C23.8164 9.17383 23.4609 8.79102 22.9414 8.79102C22.6953 8.79102 22.4219 8.92773 22.1895 9.11914L19.5234 11.4023Z" style="fill:var(--color-1,hsl(0 0 0/0.85))"></path>
 </g>
</svg>