<svg version="1.1" xmlns="http://www.w3.org/2000/svg" xmlns:xlink="http://www.w3.org/1999/xlink" viewBox="0 0 28.2461 27.9043">
 <g>
  
  <path d="M13.9453 27.8906C21.6426 27.8906 27.8906 21.6426 27.8906 13.9453C27.8906 6.24805 21.6426 0 13.9453 0C6.24805 0 0 6.24805 0 13.9453C0 21.6426 6.24805 27.8906 13.9453 27.8906ZM13.9453 25.5664C7.51953 25.5664 2.32422 20.3711 2.32422 13.9453C2.32422 7.51953 7.51953 2.32422 13.9453 2.32422C20.3711 2.32422 25.5664 7.51953 25.5664 13.9453C25.5664 20.3711 20.3711 25.5664 13.9453 25.5664Z" style="fill:var(--color-0,#28cd41)"></path>
  <path d="M8.20312 19.4688L15.4355 19.4688C16.8027 19.4688 17.6094 18.6758 17.6094 17.3223L17.6094 10.5957C17.6094 9.24219 16.8711 8.46289 15.5039 8.46289L8.20312 8.46289C6.9043 8.46289 6.0293 9.24219 6.0293 10.5957L6.0293 17.3223C6.0293 18.6758 6.84961 19.4688 8.20312 19.4688ZM18.375 15.832L21.041 18.0879C21.2871 18.293 21.5469 18.4297 21.793 18.4297C22.3262 18.4297 22.668 18.0469 22.668 17.4727L22.668 10.4316C22.668 9.87109 22.3262 9.48828 21.793 9.48828C21.5469 9.48828 21.2734 9.625 21.041 9.81641L18.375 12.0859Z" style="fill:var(--color-1,#28cd41)"></path>
 </g>
</svg>