<svg version="1.1" xmlns="http://www.w3.org/2000/svg" xmlns:xlink="http://www.w3.org/1999/xlink" viewBox="0 0 28.2461 27.9043">
 <g>
  
  <path d="M13.9453 27.8906C21.6426 27.8906 27.8906 21.6289 27.8906 13.9453C27.8906 6.24805 21.6426 0 13.9453 0C6.26172 0 0 6.24805 0 13.9453C0 21.6289 6.26172 27.8906 13.9453 27.8906Z" style="fill:var(--color-0,hsl(0 0 0/0.85))"></path>
  <path d="M9.51562 6.93164L11.375 6.93164C11.9902 6.93164 12.4004 7.3418 12.4004 7.9707C12.4004 8.55859 11.9902 8.98242 11.375 8.98242L9.80273 8.98242C9.16016 8.98242 8.87305 9.2832 8.87305 9.92578L8.87305 11.457C8.87305 12.0859 8.47656 12.4961 7.84766 12.4961C7.23242 12.4961 6.82227 12.0723 6.82227 11.457L6.82227 9.58398C6.82227 7.84766 7.73828 6.93164 9.51562 6.93164ZM18.1699 6.93164C19.9473 6.93164 20.8633 7.84766 20.8633 9.58398L20.8633 11.457C20.8633 12.0723 20.4531 12.4961 19.8379 12.4961C19.209 12.4961 18.8125 12.0859 18.8125 11.457L18.8125 9.92578C18.8125 9.2832 18.5254 8.98242 17.8828 8.98242L16.3105 8.98242C15.6953 8.98242 15.2852 8.55859 15.2852 7.9707C15.2852 7.3418 15.6953 6.93164 16.3105 6.93164ZM9.51562 20.9727C7.73828 20.9727 6.82227 20.0703 6.82227 18.334L6.82227 16.4609C6.82227 15.832 7.23242 15.4219 7.84766 15.4219C8.47656 15.4219 8.87305 15.8184 8.87305 16.4609L8.87305 17.9785C8.87305 18.6348 9.16016 18.9219 9.80273 18.9219L11.375 18.9219C11.9902 18.9219 12.4004 19.3594 12.4004 19.9473C12.4004 20.5625 11.9902 20.9727 11.375 20.9727ZM18.1699 20.9727L16.3105 20.9727C15.6953 20.9727 15.2852 20.5625 15.2852 19.9473C15.2852 19.3594 15.6953 18.9219 16.3105 18.9219L17.8828 18.9219C18.5254 18.9219 18.8125 18.6348 18.8125 17.9785L18.8125 16.4609C18.8125 15.8184 19.209 15.4219 19.8379 15.4219C20.4531 15.4219 20.8633 15.832 20.8633 16.4609L20.8633 18.334C20.8633 20.0703 19.9473 20.9727 18.1699 20.9727Z" style="fill:var(--color-1,white)"></path>
 </g>
</svg>