<?xml version="1.0" encoding="UTF-8"?>
<!--Generator: Apple Native CoreSVG 326-->
<!DOCTYPE svg
PUBLIC "-//W3C//DTD SVG 1.1//EN"
       "http://www.w3.org/Graphics/SVG/1.1/DTD/svg11.dtd">
<svg version="1.1" xmlns="http://www.w3.org/2000/svg" xmlns:xlink="http://www.w3.org/1999/xlink" viewBox="0 0 32.8809 20.2207">
 <g>
  <rect height="20.2207" opacity="0" width="32.8809" x="0" y="0"/>
  <path d="M18.0332 19.8789L23.4473 19.8789C28.9434 19.8789 32.5254 15.9551 32.5254 10.0625C32.5254 4.21094 28.9434 0.328125 23.4473 0.328125L18.0332 0.328125C17.2812 0.328125 16.7891 0.820312 16.7891 1.58594L16.7891 18.6074C16.7891 19.3867 17.2812 19.8789 18.0332 19.8789ZM19.2773 17.6367L19.2773 2.54297L23.2695 2.54297C27.3574 2.54297 29.9961 5.55078 29.9961 10.0762C29.9961 14.6152 27.3574 17.6367 23.2695 17.6367Z" fill="white" fill-opacity="0.85"/>
  <path d="M6.94531 20.2207C11.1289 20.2207 14.1367 17.7734 14.1367 14.4375C14.1367 11.7305 12.1953 9.95312 9.07812 9.74805L9.07812 9.69336C11.6758 9.25586 13.2891 7.51953 13.2891 5.08594C13.2891 2.13281 10.6094 0 6.87695 0C4.06055 0 1.79102 1.23047 0.820312 3.26758C0.560547 3.77344 0.451172 4.23828 0.451172 4.77148C0.451172 5.41406 0.888672 5.83789 1.51758 5.83789C2.13281 5.83789 2.41992 5.60547 2.61133 4.96289C3.21289 3.17188 4.7168 2.14648 6.79492 2.14648C9.24219 2.14648 10.8145 3.43164 10.8145 5.41406C10.8145 7.45117 9.13281 8.80469 6.68555 8.80469L5.18164 8.80469C4.53906 8.80469 4.10156 9.20117 4.10156 9.83008C4.10156 10.4453 4.53906 10.8555 5.18164 10.8555L6.71289 10.8555C9.74805 10.8555 11.5527 12.1406 11.5527 14.4238C11.5527 16.5293 9.66602 18.0195 6.95898 18.0195C4.60742 18.0195 2.91211 16.9668 2.29688 15.1621C2.07812 14.5742 1.75 14.3145 1.16211 14.3145C0.464844 14.3145 0 14.752 0 15.4629C0 15.9414 0.123047 16.3789 0.382812 16.8574C1.51758 19.0176 3.89648 20.2207 6.94531 20.2207Z" fill="white" fill-opacity="0.85"/>
 </g>
</svg>
