<?xml version="1.0" encoding="UTF-8"?>
<!--Generator: Apple Native CoreSVG 326-->
<!DOCTYPE svg
PUBLIC "-//W3C//DTD SVG 1.1//EN"
       "http://www.w3.org/Graphics/SVG/1.1/DTD/svg11.dtd">
<svg version="1.1" xmlns="http://www.w3.org/2000/svg" xmlns:xlink="http://www.w3.org/1999/xlink" viewBox="0 0 28.2461 27.9043">
 <g>
  <rect height="27.9043" opacity="0" width="28.2461" x="0" y="0"/>
  <path d="M13.9453 27.8906C21.6426 27.8906 27.8906 21.6426 27.8906 13.9453C27.8906 6.24805 21.6426 0 13.9453 0C6.24805 0 0 6.24805 0 13.9453C0 21.6426 6.24805 27.8906 13.9453 27.8906ZM13.9453 25.5664C7.51953 25.5664 2.32422 20.3711 2.32422 13.9453C2.32422 7.51953 7.51953 2.32422 13.9453 2.32422C20.3711 2.32422 25.5664 7.51953 25.5664 13.9453C25.5664 20.3711 20.3711 25.5664 13.9453 25.5664Z" fill="white" fill-opacity="0.85"/>
  <path d="M9.625 7.15039C7.91602 7.15039 7.02734 8.03906 7.02734 9.7207L7.02734 11.5391C7.02734 12.127 7.42383 12.5371 8.01172 12.5371C8.61328 12.5371 8.99609 12.1406 8.99609 11.5391L8.99609 10.0488C8.99609 9.41992 9.2832 9.11914 9.91211 9.11914L11.4297 9.11914C12.0312 9.11914 12.4277 8.72266 12.4277 8.14844C12.4277 7.54688 12.0312 7.15039 11.4297 7.15039ZM18.0332 7.15039L16.2285 7.15039C15.627 7.15039 15.2305 7.54688 15.2305 8.14844C15.2305 8.72266 15.627 9.11914 16.2285 9.11914L17.7461 9.11914C18.375 9.11914 18.6621 9.41992 18.6621 10.0488L18.6621 11.5391C18.6621 12.1406 19.0449 12.5371 19.6465 12.5371C20.2344 12.5371 20.6309 12.127 20.6309 11.5391L20.6309 9.7207C20.6309 8.03906 19.7422 7.15039 18.0332 7.15039ZM9.625 20.7676L11.4297 20.7676C12.0312 20.7676 12.4277 20.3574 12.4277 19.7695C12.4277 19.1953 12.0312 18.7852 11.4297 18.7852L9.91211 18.7852C9.2832 18.7852 8.99609 18.498 8.99609 17.8555L8.99609 16.3789C8.99609 15.7637 8.61328 15.3809 8.01172 15.3809C7.42383 15.3809 7.02734 15.7773 7.02734 16.3789L7.02734 18.1973C7.02734 19.8789 7.91602 20.7676 9.625 20.7676ZM18.0332 20.7676C19.7422 20.7676 20.6309 19.8789 20.6309 18.1973L20.6309 16.3789C20.6309 15.7773 20.2344 15.3809 19.6465 15.3809C19.0449 15.3809 18.6621 15.7637 18.6621 16.3789L18.6621 17.8555C18.6621 18.498 18.375 18.7852 17.7461 18.7852L16.2285 18.7852C15.627 18.7852 15.2305 19.1953 15.2305 19.7695C15.2305 20.3574 15.627 20.7676 16.2285 20.7676Z" fill="white" fill-opacity="0.85"/>
 </g>
</svg>
