<svg version="1.1" xmlns="http://www.w3.org/2000/svg" xmlns:xlink="http://www.w3.org/1999/xlink" viewBox="0 0 28.2461 27.9043">
 <g>
  
  <path d="M13.9453 27.8906C21.6426 27.8906 27.8906 21.6426 27.8906 13.9453C27.8906 6.24805 21.6426 0 13.9453 0C6.24805 0 0 6.24805 0 13.9453C0 21.6426 6.24805 27.8906 13.9453 27.8906ZM13.9453 25.5664C7.51953 25.5664 2.32422 20.3711 2.32422 13.9453C2.32422 7.51953 7.51953 2.32422 13.9453 2.32422C20.3711 2.32422 25.5664 7.51953 25.5664 13.9453C25.5664 20.3711 20.3711 25.5664 13.9453 25.5664Z" style="fill:var(--color-0,hsl(0 0 0/0.85))"></path>
  <path d="M13.9316 16.9941C15.0527 16.9941 16.3105 19.0586 18.8398 19.0586C21.3281 19.0586 23.1738 16.7891 23.1738 13.8906C23.1738 9.10547 18.9629 8.57227 13.9316 8.57227C8.90039 8.57227 4.68945 9.10547 4.68945 13.8906C4.68945 16.7891 6.53516 19.0586 9.02344 19.0586C11.5527 19.0586 12.8242 16.9941 13.9316 16.9941ZM13.9316 15.5039C11.9082 15.5039 11.0605 17.5684 9.02344 17.5684C7.24609 17.5684 6.16602 16.2422 6.16602 13.8906C6.16602 10.418 9.06445 10.0625 13.9316 10.0625C18.7988 10.0625 21.6973 10.418 21.6973 13.8906C21.6973 16.2422 20.6172 17.5684 18.8398 17.5684C16.8027 17.5684 15.9688 15.5039 13.9316 15.5039Z" style="fill:var(--color-1,hsl(0 0 0/0.85))"></path>
 </g>
</svg>