<?xml version="1.0" encoding="UTF-8"?>
<!--Generator: Apple Native CoreSVG 326-->
<!DOCTYPE svg
PUBLIC "-//W3C//DTD SVG 1.1//EN"
       "http://www.w3.org/Graphics/SVG/1.1/DTD/svg11.dtd">
<svg version="1.1" xmlns="http://www.w3.org/2000/svg" xmlns:xlink="http://www.w3.org/1999/xlink" viewBox="0 0 39.1152 32.7237">
 <g>
  <rect height="32.7237" opacity="0" width="39.1152" x="0" y="0"/>
  <path d="M7.85456 8.60033C4.24872 9.69626 2.20117 11.9072 2.20117 16.2867C2.20117 21.482 4.8125 24.6812 8.8457 24.6812C13.6309 24.6812 15.4355 20.2788 19.3867 20.2788C19.4366 20.2788 19.486 20.2795 19.5314 20.2889L24.3461 25.1084C22.373 23.8859 20.8624 22.48 19.3867 22.48C16.7617 22.48 14.041 26.8824 8.8457 26.8824C3.80078 26.8824 0 22.3023 0 16.2867C0 11.1376 2.37542 8.37887 6.18742 6.93152ZM38.7598 16.2867C38.7598 20.9916 36.4348 24.8184 33.0027 26.2512L31.2956 24.5433C34.5341 23.8881 36.5586 20.8611 36.5586 16.2867C36.5586 8.3433 29.8457 7.53665 19.3867 7.53665C17.6091 7.53665 15.9398 7.56029 14.4034 7.64268L12.3761 5.61436C14.5441 5.3947 16.9113 5.33548 19.3867 5.33548C30.0781 5.33548 38.7598 6.42923 38.7598 16.2867Z" fill="white" fill-opacity="0.85"/>
  <path d="M32.3066 30.8062C32.7168 31.23 33.4004 31.23 33.7969 30.8062C34.207 30.396 34.2207 29.7398 33.8105 29.316L6.43945 1.93119C6.0293 1.52103 5.35938 1.52103 4.93555 1.93119C4.53906 2.34134 4.53906 3.02494 4.93555 3.42142Z" fill="white" fill-opacity="0.85"/>
 </g>
</svg>
