<svg version="1.1" xmlns="http://www.w3.org/2000/svg" xmlns:xlink="http://www.w3.org/1999/xlink" viewBox="0 0 28.2461 27.9043">
 <g>
  
  <path d="M13.9453 27.8906C21.6426 27.8906 27.8906 21.6289 27.8906 13.9453C27.8906 6.24805 21.6426 0 13.9453 0C6.26172 0 0 6.24805 0 13.9453C0 21.6289 6.26172 27.8906 13.9453 27.8906Z" style="fill:var(--color-0,hsl(0 0 0/0.85))"></path>
  <path d="M13.9453 17.0898C12.8105 17.0898 11.498 19.2227 8.88672 19.2227C6.31641 19.2227 4.41602 16.8848 4.41602 13.8906C4.41602 8.95508 8.77734 8.4082 13.9453 8.4082C19.127 8.4082 23.4746 8.95508 23.4746 13.8906C23.4746 16.8848 21.5742 19.2227 19.0039 19.2227C16.3926 19.2227 15.0938 17.0898 13.9453 17.0898ZM13.9453 15.5449C16.0508 15.5449 16.8984 17.6777 19.0039 17.6777C20.8359 17.6777 21.9434 16.3105 21.9434 13.8906C21.9434 10.3223 18.9629 9.95312 13.9453 9.95312C8.92773 9.95312 5.94727 10.3223 5.94727 13.8906C5.94727 16.3105 7.05469 17.6777 8.88672 17.6777C10.9922 17.6777 11.8535 15.5449 13.9453 15.5449Z" style="fill:var(--color-1,white)"></path>
 </g>
</svg>