<svg version="1.1" xmlns="http://www.w3.org/2000/svg" xmlns:xlink="http://www.w3.org/1999/xlink" viewBox="0 0 39.1152 22.0527">
 <g>
  
  <path d="M38.7598 10.9512C38.7598 16.9668 34.959 21.5469 29.9141 21.5469C24.7188 21.5469 21.998 17.1445 19.3867 17.1445C16.7617 17.1445 14.041 21.5469 8.8457 21.5469C3.80078 21.5469 0 16.9668 0 10.9512C0 1.10742 8.68164 0 19.3867 0C30.0781 0 38.7598 1.09375 38.7598 10.9512ZM2.20117 10.9512C2.20117 16.1465 4.8125 19.3457 8.8457 19.3457C13.6309 19.3457 15.4355 14.9434 19.3867 14.9434C23.3242 14.9434 25.1289 19.3457 29.9141 19.3457C33.9473 19.3457 36.5586 16.1465 36.5586 10.9512C36.5586 3.00781 29.8457 2.20117 19.3867 2.20117C8.91406 2.20117 2.20117 3.02148 2.20117 10.9512Z" style="fill:var(--color-0,hsl(0 0 0/0.85))"></path>
 </g>
</svg>