<svg version="1.1" xmlns="http://www.w3.org/2000/svg" xmlns:xlink="http://www.w3.org/1999/xlink" viewBox="0 0 42.3418 31.9238">
 <g>
  
  <path d="M34.9453 15.9551C34.9453 23.6523 28.6973 29.9004 21 29.9004C19.0546 29.9004 17.2018 29.5013 15.5204 28.7781C16.0364 28.1792 16.4709 27.5093 16.8017 26.784C18.0996 27.2995 19.517 27.5762 21 27.5762C27.4258 27.5762 32.6211 22.3809 32.6211 15.9551C32.6211 9.5293 27.4258 4.33398 21 4.33398C15.13 4.33398 10.2868 8.66944 9.50634 14.3223C9.28058 14.2963 9.05046 14.2871 8.81836 14.2871C8.24437 14.2871 7.68217 14.3434 7.13828 14.4545C7.88461 7.46132 13.8101 2.00977 21 2.00977C28.6973 2.00977 34.9453 8.25781 34.9453 15.9551ZM28.082 11.5254C28.082 11.8945 27.8496 12.209 27.4941 12.3047C27.0566 12.4414 23.9395 12.7969 23.5566 12.8652C23.1602 12.9473 22.9414 13.2754 22.9414 13.7402C22.9414 14.4512 22.9414 16.7207 23.0918 17.7598C23.2559 18.7852 24.459 23.7207 24.5 23.9395C24.6504 24.4727 24.3359 24.9375 23.8027 24.9375C23.4199 24.9375 23.1465 24.7324 23.0098 24.2129C22.7773 23.2148 21.8887 19.7969 21.6562 18.9766C21.4648 18.375 21.3145 18.1699 20.9863 18.1699C20.6445 18.1699 20.4941 18.375 20.3301 18.9766C20.0566 19.7969 19.1953 23.2148 18.9629 24.2129C18.8125 24.7324 18.5527 24.9375 18.1699 24.9375C17.8617 24.9375 17.622 24.7821 17.5044 24.5475C17.588 24.1196 17.6293 23.6788 17.6303 23.2294C17.9776 21.7797 18.7384 18.5648 18.8672 17.7598C19.0449 16.7207 19.0586 14.4512 19.0449 13.7402C19.0312 13.2754 18.7988 12.9473 18.416 12.8652C18.0195 12.7969 14.916 12.4414 14.4648 12.3047C14.123 12.209 13.8906 11.8945 13.8906 11.5254C13.8906 11.0332 14.2461 10.7461 14.5879 10.7461C14.7246 10.7461 14.834 10.7871 14.957 10.8008C16.2832 11.0059 19.0449 11.334 20.9863 11.334C22.9414 11.334 25.6895 11.0059 27.002 10.8008C27.125 10.7871 27.248 10.7461 27.3711 10.7461C27.7129 10.7461 28.082 11.0332 28.082 11.5254ZM22.7637 8.6543C22.7637 9.625 21.9707 10.4316 20.9863 10.4316C20.002 10.4316 19.209 9.625 19.209 8.6543C19.209 7.66992 20.002 6.87695 20.9863 6.87695C21.9707 6.87695 22.7637 7.66992 22.7637 8.6543Z" style="fill:var(--color-0,hsl(0 0 0/0.85))"></path>
  <path d="M15.7637 23.1055C15.7637 26.9062 12.5781 30.0508 8.81836 30.0508C5.01758 30.0508 1.87305 26.9336 1.87305 23.1055C1.87305 19.3047 5.01758 16.1602 8.81836 16.1602C12.6328 16.1602 15.7637 19.291 15.7637 23.1055ZM8.2168 20.1387L6.68555 21.6152C6.6582 21.6289 6.61719 21.6562 6.58984 21.6562L5.56445 21.6562C5.07227 21.6562 4.8125 21.9023 4.8125 22.4355L4.8125 23.7754C4.8125 24.2949 5.07227 24.5547 5.56445 24.5547L6.58984 24.5547C6.61719 24.5547 6.6582 24.5684 6.68555 24.5957L8.2168 26.0586C8.39453 26.209 8.53125 26.2773 8.69531 26.2773C8.94141 26.2773 9.11914 26.0996 9.11914 25.8672L9.11914 20.3301C9.11914 20.084 8.94141 19.9199 8.69531 19.9199C8.53125 19.9199 8.39453 19.9883 8.2168 20.1387ZM11.7031 20.5078C11.498 20.6445 11.457 20.918 11.6074 21.1367C11.9902 21.6836 12.1953 22.3672 12.1953 23.0918C12.1953 23.8301 11.9766 24.5273 11.6211 25.0742C11.4844 25.2656 11.498 25.5391 11.6895 25.6895C11.8809 25.8125 12.1406 25.7715 12.3047 25.5801C12.7832 24.9102 13.043 24.0215 13.043 23.0918C13.043 22.1621 12.7832 21.2734 12.291 20.6172C12.127 20.4258 11.8945 20.3984 11.7031 20.5078ZM10.3086 21.4512C10.0898 21.5742 10.0625 21.8887 10.2266 22.0801C10.3906 22.3262 10.5 22.709 10.5 23.0918C10.5 23.502 10.4043 23.8438 10.2266 24.1172C10.0625 24.3223 10.0898 24.582 10.2949 24.7324C10.4863 24.8828 10.7461 24.8418 10.8965 24.623C11.1973 24.2266 11.375 23.666 11.375 23.0918C11.375 22.5312 11.1973 21.9707 10.9102 21.5742C10.7598 21.3691 10.5137 21.3281 10.3086 21.4512Z" style="fill:var(--color-1,hsl(0 0 0/0.85))"></path>
 </g>
</svg>