<svg version="1.1" xmlns="http://www.w3.org/2000/svg" xmlns:xlink="http://www.w3.org/1999/xlink" viewBox="0 0 28.2461 27.9043">
 <g>
  
  <path d="M19.5508 26.209L19.8789 24.459C16.8027 24.418 14.7793 19.3184 14.2051 15.0938C19.5508 10.2539 23.3242 4.15625 20.4941 1.77734L19.332 3.11719C20.918 4.42969 18.0332 9.21484 13.043 13.7539C8.09375 11.7031 3.10352 10.9238 0.601562 13.8086L1.88672 14.793C3.67773 12.8926 7.71094 13.4668 12.4414 15.4492C13.084 19.9062 15.4492 25.9629 19.5508 26.209ZM16.1738 21.8613C25.2656 16.3516 26.5781 9.22852 25.8672 6.9043L24.1582 7.41016C24.6777 9.14648 23.5566 15.4492 15.0254 20.4941ZM12.4961 27.4805L13.8359 26.0586C11.6074 25.4434 6.71289 20.8633 6.60352 13.0156L4.8125 13.166C4.93555 20.9453 9.59766 26.0723 12.4961 27.4805ZM17.5273 9.47461L18.3066 7.875C14.4512 5.35938 7.69727 3.25391 2.43359 6.78125L2.55664 8.6543C7.24609 5.04492 13.6855 6.98633 17.5273 9.47461ZM13.9453 0C6.24805 0 0 6.24805 0 13.9453C0 21.6426 6.24805 27.8906 13.9453 27.8906C21.6426 27.8906 27.8906 21.6426 27.8906 13.9453C27.8906 6.24805 21.6426 0 13.9453 0ZM13.9453 1.85938C20.6172 1.85938 26.0312 7.27344 26.0312 13.9453C26.0312 20.6172 20.6172 26.0312 13.9453 26.0312C7.27344 26.0312 1.85938 20.6172 1.85938 13.9453C1.85938 7.27344 7.27344 1.85938 13.9453 1.85938Z" style="fill:var(--color-0,hsl(0 0 0/0.85))"></path>
 </g>
</svg>