<?xml version="1.0" encoding="UTF-8"?>
<!--Generator: Apple Native CoreSVG 326-->
<!DOCTYPE svg
PUBLIC "-//W3C//DTD SVG 1.1//EN"
       "http://www.w3.org/Graphics/SVG/1.1/DTD/svg11.dtd">
<svg version="1.1" xmlns="http://www.w3.org/2000/svg" xmlns:xlink="http://www.w3.org/1999/xlink" viewBox="0 0 28.2461 27.9043">
 <g>
  <rect height="27.9043" opacity="0" width="28.2461" x="0" y="0"/>
  <path d="M13.9453 27.8906C21.6426 27.8906 27.8906 21.6289 27.8906 13.9453C27.8906 6.24805 21.6426 0 13.9453 0C6.26172 0 0 6.24805 0 13.9453C0 21.6289 6.26172 27.8906 13.9453 27.8906Z" fill="white" fill-opacity="0.85"/>
  <path d="M16.4336 10.1855C14.6016 8.77734 11.1289 7.75195 8.46289 8.75C9.84375 7.30078 11.7988 6.37109 13.9453 6.37109C14.9844 6.37109 15.9688 6.60352 16.8848 6.97266C17.2949 7.875 17.1035 8.98242 16.4336 10.1855ZM13.4395 13.8086C11.1016 12.8516 8.16211 12.1953 6.38477 13.3711C6.45312 12.4004 6.72656 11.457 7.15039 10.623C9.5293 8.43555 13.8359 9.47461 15.8867 11.0879C15.2715 11.9902 14.4238 12.9062 13.4395 13.8086ZM8.80469 13.7402C8.87305 16.7344 10.2812 19.5234 11.6621 21.1504C8.80469 20.248 6.67188 17.6777 6.39844 14.6152C6.91797 13.959 7.7793 13.7129 8.80469 13.7402ZM13.084 14.793C13.207 17.0898 14.5605 20.002 16.3926 21.0957C15.6133 21.3691 14.8066 21.5195 13.7812 21.5195C12.5508 21.0957 9.99414 17.7734 9.84375 13.8359C10.8828 13.9727 12.0312 14.3281 13.084 14.793ZM17.7324 20.4941C16.9805 20.4258 16.2285 19.8242 15.6133 18.9492C18.9902 16.3516 20.5488 13.4531 21.0684 11.457C21.3418 12.2227 21.5059 13.0703 21.5059 13.9453C21.5059 16.707 19.9609 19.168 17.7324 20.4941ZM15.0801 18.0605C14.5195 17.0215 14.1504 15.75 14.1094 14.5879C16.502 12.4414 18.3066 9.80273 18.0469 7.62891C18.9219 8.18945 19.6738 8.92773 20.248 9.80273C20.4668 10.9238 19.4141 14.6426 15.0801 18.0605Z" fill="white"/>
 </g>
</svg>
