<?xml version="1.0" encoding="UTF-8"?>
<!--Generator: Apple Native CoreSVG 326-->
<!DOCTYPE svg
PUBLIC "-//W3C//DTD SVG 1.1//EN"
       "http://www.w3.org/Graphics/SVG/1.1/DTD/svg11.dtd">
<svg version="1.1" xmlns="http://www.w3.org/2000/svg" xmlns:xlink="http://www.w3.org/1999/xlink" viewBox="0 0 28.2051 27.9043">
 <g>
  <rect height="27.9043" opacity="0" width="28.2051" x="0" y="0"/>
  <path d="M18.5391 7.10938C19.7559 4.89453 20.166 2.84375 19.4277 1.16211C17.7188 0.423828 15.8457 0 13.8906 0C9.91211 0 6.27539 1.73633 3.74609 4.48438C8.6543 2.55664 15.2168 4.49805 18.5391 7.10938ZM12.9883 13.7539C14.8477 12.0586 16.4062 10.3496 17.5684 8.66797C13.8086 5.6875 5.98828 3.71875 1.51758 7.61523C0.65625 9.21484 0.123047 11.0195 0 12.9473C3.26758 10.7461 8.66797 11.9492 12.9883 13.7539ZM4.49805 13.4805C2.59766 13.4258 0.984375 13.8906 0 15.0938C0.478516 20.7812 4.49805 25.5801 9.81641 27.2207C7.27344 24.2676 4.60742 19.0859 4.49805 13.4805ZM12.3867 15.4492C10.377 14.5879 8.24414 13.918 6.28906 13.6719C6.54883 20.9453 11.2383 27.084 13.4941 27.8906C15.3262 27.918 17.0078 27.6309 18.498 27.084C15.1348 25.0879 12.5781 19.7012 12.3867 15.4492ZM20.8223 26.0176C24.9922 23.5977 27.8496 19.0586 27.8496 13.9453C27.8496 12.291 27.5352 10.6914 26.9883 9.21484C26.0859 12.9062 23.2695 18.293 16.9121 23.1465C18.0605 24.7871 19.4414 25.9082 20.8223 26.0176ZM15.9824 21.6152C24.0215 15.3262 25.9902 8.46289 25.5938 6.39844C24.5 4.74414 23.0781 3.32227 21.4102 2.24219C21.916 6.23438 18.5801 11.1016 14.1504 15.0938C14.2324 17.2812 14.9297 19.6328 15.9824 21.6152Z" fill="white" fill-opacity="0.85"/>
 </g>
</svg>
