<?xml version="1.0" encoding="UTF-8"?>
<!--Generator: Apple Native CoreSVG 326-->
<!DOCTYPE svg
PUBLIC "-//W3C//DTD SVG 1.1//EN"
       "http://www.w3.org/Graphics/SVG/1.1/DTD/svg11.dtd">
<svg version="1.1" xmlns="http://www.w3.org/2000/svg" xmlns:xlink="http://www.w3.org/1999/xlink" viewBox="0 0 25.5254 25.1699">
 <g>
  <rect height="25.1699" opacity="0" width="25.5254" x="0" y="0"/>
  <path d="M4.29297 25.1699L20.877 25.1699C23.748 25.1699 25.1699 23.7617 25.1699 20.9453L25.1699 4.23828C25.1699 1.42188 23.748 0 20.877 0L4.29297 0C1.43555 0 0 1.42188 0 4.23828L0 20.9453C0 23.7617 1.43555 25.1699 4.29297 25.1699Z" fill="white" fill-opacity="0.85"/>
  <path d="M8.80469 19.1816C8.06641 19.1816 7.57422 18.7852 7.39648 18.0605L4.60742 7.36914C4.56641 7.21875 4.55273 7.06836 4.55273 6.94531C4.55273 6.30273 4.97656 5.86523 5.63281 5.86523C6.30273 5.86523 6.61719 6.17969 6.78125 6.98633L8.88672 15.9414L8.98242 15.9414L11.3477 6.82227C11.498 6.19336 11.9082 5.89258 12.5781 5.89258C13.248 5.89258 13.6445 6.19336 13.8086 6.82227L16.1738 15.9414L16.2695 15.9414L18.3887 6.98633C18.5527 6.17969 18.8672 5.86523 19.5371 5.86523C20.1934 5.86523 20.6172 6.30273 20.6172 6.94531C20.6172 7.06836 20.6035 7.21875 20.5625 7.36914L17.7598 18.0605C17.582 18.7852 17.0898 19.1816 16.3379 19.1816C15.5996 19.1816 15.0801 18.7988 14.916 18.0879L12.6328 9.21484L12.5234 9.21484L10.2402 18.0879C10.0762 18.7988 9.55664 19.1816 8.80469 19.1816Z" fill="white"/>
 </g>
</svg>
