<svg version="1.1" xmlns="http://www.w3.org/2000/svg" xmlns:xlink="http://www.w3.org/1999/xlink" viewBox="0 0 28.2461 27.9043">
 <g>
  
  <path d="M13.9453 27.8906C21.6426 27.8906 27.8906 21.6426 27.8906 13.9453C27.8906 6.24805 21.6426 0 13.9453 0C6.24805 0 0 6.24805 0 13.9453C0 21.6426 6.24805 27.8906 13.9453 27.8906ZM13.9453 25.5664C7.51953 25.5664 2.32422 20.3711 2.32422 13.9453C2.32422 7.51953 7.51953 2.32422 13.9453 2.32422C20.3711 2.32422 25.5664 7.51953 25.5664 13.9453C25.5664 20.3711 20.3711 25.5664 13.9453 25.5664Z" style="fill:var(--color-0,hsl(0 0 0/0.85))"></path>
  <path d="M10.2539 20.3438C10.9922 20.3438 11.4844 19.9746 11.6484 19.291L13.8633 10.6641L13.959 10.6641L16.1875 19.291C16.3516 19.9746 16.8438 20.3438 17.5684 20.3438C18.293 20.3438 18.7578 19.9609 18.9355 19.2637L21.6426 8.88672C21.6973 8.73633 21.7109 8.59961 21.7109 8.47656C21.7109 7.86133 21.2871 7.4375 20.6582 7.4375C20.0156 7.4375 19.7148 7.73828 19.5371 8.51758L17.5 17.2129L17.4043 17.2129L15.1074 8.36719C14.9434 7.75195 14.5605 7.46484 13.918 7.46484C13.2754 7.46484 12.8652 7.75195 12.7148 8.36719L10.4316 17.2129L10.3359 17.2129L8.29883 8.51758C8.12109 7.73828 7.83398 7.4375 7.19141 7.4375C6.54883 7.4375 6.13867 7.86133 6.13867 8.47656C6.13867 8.59961 6.15234 8.73633 6.19336 8.88672L8.90039 19.2637C9.07812 19.9609 9.54297 20.3438 10.2539 20.3438Z" style="fill:var(--color-1,hsl(0 0 0/0.85))"></path>
 </g>
</svg>