<svg version="1.1" xmlns="http://www.w3.org/2000/svg" xmlns:xlink="http://www.w3.org/1999/xlink" viewBox="0 0 28.2461 27.9043">
 <g>
  
  <path d="M13.9453 27.8906C21.6426 27.8906 27.8906 21.6289 27.8906 13.9453C27.8906 6.24805 21.6426 0 13.9453 0C6.26172 0 0 6.24805 0 13.9453C0 21.6289 6.26172 27.8906 13.9453 27.8906Z" style="fill:var(--color-0,hsl(0 0 0/0.85))"></path>
  <path d="M10.1445 20.5488C9.41992 20.5488 8.92773 20.1523 8.75 19.4277L5.96094 8.73633C5.91992 8.58594 5.90625 8.43555 5.90625 8.3125C5.90625 7.66992 6.33008 7.23242 6.98633 7.23242C7.65625 7.23242 7.95703 7.54688 8.13477 8.35352L10.2402 17.3086L10.3359 17.3086L12.6875 8.18945C12.8379 7.56055 13.2617 7.25977 13.9316 7.25977C14.6016 7.25977 14.998 7.56055 15.1621 8.18945L17.5273 17.3086L17.623 17.3086L19.7285 8.35352C19.9062 7.54688 20.2207 7.23242 20.8906 7.23242C21.5332 7.23242 21.9707 7.66992 21.9707 8.3125C21.9707 8.43555 21.957 8.58594 21.9023 8.73633L19.1133 19.4277C18.9355 20.1523 18.4434 20.5488 17.6914 20.5488C16.9531 20.5488 16.4336 20.166 16.2695 19.4551L13.9727 10.582L13.877 10.582L11.5938 19.4551C11.4297 20.166 10.9102 20.5488 10.1445 20.5488Z" style="fill:var(--color-1,white)"></path>
 </g>
</svg>