<?xml version="1.0" encoding="UTF-8"?>
<!--Generator: Apple Native CoreSVG 326-->
<!DOCTYPE svg
PUBLIC "-//W3C//DTD SVG 1.1//EN"
       "http://www.w3.org/Graphics/SVG/1.1/DTD/svg11.dtd">
<svg version="1.1" xmlns="http://www.w3.org/2000/svg" xmlns:xlink="http://www.w3.org/1999/xlink" viewBox="0 0 23.3516 29.3262">
 <g>
  <rect height="29.3262" opacity="0" width="23.3516" x="0" y="0"/>
  <path d="M4.23828 29.3125L18.7578 29.3125C21.5742 29.3125 22.9961 27.877 22.9961 25.0332L22.9961 4.29297C22.9961 1.43555 21.5879 0 18.7578 0L15.2852 0C14.8203 0 14.5059 0.328125 14.5059 0.820312C14.5059 0.888672 14.5059 0.957031 14.5059 1.01172C14.5059 2.78906 13.3027 3.85547 11.498 3.85547C9.69336 3.85547 8.49023 2.78906 8.49023 1.01172C8.49023 0.957031 8.49023 0.888672 8.49023 0.820312C8.49023 0.328125 8.17578 0 7.71094 0L4.23828 0C1.4082 0 0 1.43555 0 4.29297L0 25.0332C0 27.877 1.42188 29.3125 4.23828 29.3125ZM6.31641 10.1855C5.82422 10.1855 5.46875 9.81641 5.46875 9.32422C5.46875 8.85938 5.82422 8.49023 6.31641 8.49023L16.6934 8.49023C17.1719 8.49023 17.5273 8.85938 17.5273 9.32422C17.5273 9.81641 17.1719 10.1855 16.6934 10.1855ZM6.31641 15.0391C5.82422 15.0391 5.46875 14.6699 5.46875 14.2051C5.46875 13.7266 5.82422 13.3574 6.31641 13.3574L11.2246 13.3574C11.7168 13.3574 12.0723 13.7266 12.0723 14.2051C12.0723 14.6699 11.7168 15.0391 11.2246 15.0391Z" fill="white" fill-opacity="0.85"/>
 </g>
</svg>
