<?xml version="1.0" encoding="UTF-8"?>
<!--Generator: Apple Native CoreSVG 326-->
<!DOCTYPE svg
PUBLIC "-//W3C//DTD SVG 1.1//EN"
       "http://www.w3.org/Graphics/SVG/1.1/DTD/svg11.dtd">
<svg version="1.1" xmlns="http://www.w3.org/2000/svg" xmlns:xlink="http://www.w3.org/1999/xlink" viewBox="0 0 23.3516 29.3262">
 <g>
  <rect height="29.3262" opacity="0" width="23.3516" x="0" y="0"/>
  <path d="M4.23828 29.3125L18.7578 29.3125C21.5742 29.3125 22.9961 27.877 22.9961 25.0332L22.9961 4.29297C22.9961 1.43555 21.5879 0 18.7578 0L14.6973 0C14.2324 0 13.9316 0.328125 13.9316 0.820312C13.9316 2.24219 12.9473 3.24023 11.498 3.24023C10.0488 3.24023 9.05078 2.24219 9.05078 0.820312C9.05078 0.328125 8.75 0 8.28516 0L4.23828 0C1.4082 0 0 1.43555 0 4.29297L0 25.0332C0 27.877 1.42188 29.3125 4.23828 29.3125ZM4.34766 27.1113C2.92578 27.1113 2.20117 26.3457 2.20117 24.9922L2.20117 4.33398C2.20117 2.9668 2.92578 2.20117 4.34766 2.20117L8.24414 2.20117L6.97266 1.42188C7.21875 3.81445 8.99609 5.37305 11.498 5.37305C14 5.37305 15.7773 3.81445 16.0371 1.42188L14.752 2.20117L18.6484 2.20117C20.0703 2.20117 20.7949 2.9668 20.7949 4.33398L20.7949 24.9922C20.7949 26.3457 20.0703 27.1113 18.6484 27.1113ZM6.31641 10.1855L16.6934 10.1855C17.1719 10.1855 17.5273 9.81641 17.5273 9.32422C17.5273 8.85938 17.1719 8.49023 16.6934 8.49023L6.31641 8.49023C5.82422 8.49023 5.46875 8.85938 5.46875 9.32422C5.46875 9.81641 5.82422 10.1855 6.31641 10.1855ZM6.31641 15.0391L11.2246 15.0391C11.7168 15.0391 12.0723 14.6699 12.0723 14.2051C12.0723 13.7266 11.7168 13.3574 11.2246 13.3574L6.31641 13.3574C5.82422 13.3574 5.46875 13.7266 5.46875 14.2051C5.46875 14.6699 5.82422 15.0391 6.31641 15.0391Z" fill="white" fill-opacity="0.85"/>
 </g>
</svg>
