<?xml version="1.0" encoding="UTF-8"?>
<!--Generator: Apple Native CoreSVG 326-->
<!DOCTYPE svg
PUBLIC "-//W3C//DTD SVG 1.1//EN"
       "http://www.w3.org/Graphics/SVG/1.1/DTD/svg11.dtd">
<svg version="1.1" xmlns="http://www.w3.org/2000/svg" xmlns:xlink="http://www.w3.org/1999/xlink" viewBox="0 0 29.4902 29.2441">
 <g>
  <rect height="29.2441" opacity="0" width="29.4902" x="0" y="0"/>
  <path d="M25.6074 27.9043C26.2363 28.5195 27.2207 28.5195 27.7812 27.9043C28.3691 27.2891 28.3965 26.3594 27.7676 25.7441L14.7383 12.7012C14.123 12.0996 13.1387 12.0996 12.5645 12.7012C11.9766 13.3164 11.9629 14.2598 12.5781 14.875ZM17.5137 18.3203L13.4395 14.2324C13.248 14.041 13.248 13.7539 13.4395 13.5625C13.6172 13.3848 13.918 13.3711 14.1094 13.5625L18.1973 17.6504Z" fill="white" fill-opacity="0.85"/>
  <path d="M27.9316 15.75C28.5879 15.75 29.1348 15.2031 29.1348 14.5605C29.1348 13.918 28.5879 13.3711 27.9316 13.3711L23.7207 13.3711C23.0781 13.3711 22.5312 13.918 22.5312 14.5605C22.5312 15.2031 23.0781 15.75 23.7207 15.75Z" fill="white" fill-opacity="0.85"/>
  <path d="M20.166 7.28711C19.7012 7.73828 19.7012 8.50391 20.166 8.96875C20.6172 9.41992 21.3965 9.41992 21.8613 8.96875L24.8281 5.98828C25.293 5.52344 25.293 4.75781 24.8281 4.29297C24.377 3.8418 23.6113 3.8418 23.1602 4.29297Z" fill="white" fill-opacity="0.85"/>
  <path d="M15.7637 1.18945C15.7637 0.546875 15.2168 0 14.5605 0C13.918 0 13.3711 0.546875 13.3711 1.18945L13.3711 5.40039C13.3711 6.05664 13.918 6.60352 14.5605 6.60352C15.2168 6.60352 15.7637 6.05664 15.7637 5.40039Z" fill="white" fill-opacity="0.85"/>
  <path d="M7.27344 8.96875C7.72461 9.41992 8.49023 9.41992 8.95508 8.96875C9.40625 8.50391 9.40625 7.73828 8.95508 7.28711L5.98828 4.30664C5.53711 3.85547 4.77148 3.8418 4.30664 4.29297C3.85547 4.74414 3.85547 5.50977 4.30664 5.97461Z" fill="white" fill-opacity="0.85"/>
  <path d="M1.18945 13.3711C0.546875 13.3711 0 13.918 0 14.5605C0 15.2031 0.546875 15.75 1.18945 15.75L5.42773 15.75C6.07031 15.75 6.61719 15.2031 6.61719 14.5605C6.61719 13.918 6.07031 13.3711 5.42773 13.3711Z" fill="white" fill-opacity="0.85"/>
  <path d="M4.29297 23.1328C3.8418 23.584 3.8418 24.3633 4.2793 24.8145C4.73047 25.2656 5.50977 25.2793 5.97461 24.8281L8.95508 21.8477C9.40625 21.3965 9.40625 20.6309 8.95508 20.1797C8.51758 19.7148 7.72461 19.7148 7.27344 20.1797Z" fill="white" fill-opacity="0.85"/>
  <path d="M15.7637 23.7344C15.7637 23.0781 15.2168 22.5312 14.5605 22.5312C13.918 22.5312 13.3711 23.0781 13.3711 23.7344L13.3711 27.9453C13.3711 28.5879 13.918 29.1348 14.5605 29.1348C15.2168 29.1348 15.7637 28.5879 15.7637 27.9453Z" fill="white" fill-opacity="0.85"/>
 </g>
</svg>
