<svg version="1.1" xmlns="http://www.w3.org/2000/svg" xmlns:xlink="http://www.w3.org/1999/xlink" viewBox="0 0 28.2461 27.9043">
 <g>
  
  <path d="M13.9453 27.9043C21.6426 27.9043 27.8906 21.6562 27.8906 13.959C27.8906 6.27539 21.6426 0.0136719 13.9453 0.0136719C6.26172 0.0136719 0 6.27539 0 13.959C0 21.6562 6.26172 27.9043 13.9453 27.9043Z" style="fill:var(--color-0,hsl(0 0 0/0.85))"></path>
  <path d="M18.5664 6.2207C19.5918 6.2207 20.2617 6.91797 20.2617 7.9707L20.2617 9.91211L7.51953 9.91211L7.51953 7.9707C7.51953 6.91797 8.18945 6.2207 9.21484 6.2207ZM10.1719 9.07812C10.541 9.07812 10.8281 8.77734 10.8281 8.42188C10.8281 8.03906 10.541 7.72461 10.1719 7.72461C9.80273 7.72461 9.50195 8.03906 9.50195 8.42188C9.50195 8.77734 9.80273 9.07812 10.1719 9.07812ZM12.1133 9.07812C12.4824 9.07812 12.7832 8.77734 12.7832 8.42188C12.7832 8.03906 12.4824 7.72461 12.1133 7.72461C11.7305 7.72461 11.457 8.03906 11.457 8.42188C11.457 8.77734 11.7305 9.07812 12.1133 9.07812ZM16.2148 8.81836L18.0332 8.81836C18.2793 8.81836 18.4434 8.6543 18.4434 8.42188C18.4434 8.16211 18.2793 7.99805 18.0332 7.99805L16.2148 7.99805C15.9824 7.99805 15.8047 8.16211 15.8047 8.42188C15.8047 8.6543 15.9824 8.81836 16.2148 8.81836ZM9.21484 21.6562C8.18945 21.6562 7.51953 20.9453 7.51953 19.8926L7.51953 10.9648L20.2617 10.9648L20.2617 19.8926C20.2617 20.9453 19.5918 21.6562 18.5664 21.6562ZM13.8906 19.9883C16.0918 19.9883 17.8691 18.1973 17.8691 16.0234C17.8691 13.8223 16.0918 12.0449 13.8906 12.0449C11.6895 12.0449 9.91211 13.8223 9.91211 16.0234C9.91211 18.1973 11.6895 19.9883 13.8906 19.9883ZM13.8906 18.9766C12.2227 18.9766 10.9238 17.6777 10.9238 16.0234C10.9238 14.3555 12.2227 13.043 13.8906 13.043C15.5586 13.043 16.8574 14.3555 16.8574 16.0234C16.8574 17.6777 15.5586 18.9766 13.8906 18.9766Z" style="fill:var(--color-1,white)"></path>
 </g>
</svg>