<?xml version="1.0" encoding="UTF-8"?>
<!--Generator: Apple Native CoreSVG 326-->
<!DOCTYPE svg
PUBLIC "-//W3C//DTD SVG 1.1//EN"
       "http://www.w3.org/Graphics/SVG/1.1/DTD/svg11.dtd">
<svg version="1.1" xmlns="http://www.w3.org/2000/svg" xmlns:xlink="http://www.w3.org/1999/xlink" viewBox="0 0 32.6952 31.5957">
 <g>
  <rect height="31.5957" opacity="0" width="32.6952" x="0" y="0"/>
  <path d="M28.0302 19.0131C27.6243 18.9124 27.2096 18.8535 26.8408 18.8535C25.8701 18.8535 24.9541 19.1543 23.7099 19.8789C23.6544 19.8469 23.5996 19.8158 23.5462 19.7865C23.558 19.7007 23.5595 19.6122 23.5595 19.5234C23.5595 15.4492 20.2509 12.127 16.1767 12.127C12.0888 12.127 8.78023 15.4492 8.78023 19.5234C8.78023 23.5977 12.0888 26.9062 16.1767 26.9062C16.3584 26.9062 16.5385 26.8997 16.7149 26.879L17.667 29.4492C17.7397 29.6438 17.8271 29.8268 17.929 29.9961L7.4814 29.9961C5.58101 29.9961 4.30953 28.6973 4.30953 26.7422L4.30953 10.0488L28.0302 10.0488ZM22.0067 19.0873C21.5078 18.9264 21.0432 18.8535 20.5654 18.8535C20.0322 18.8535 19.417 18.9766 18.8564 19.168C18.1591 18.5527 17.2021 18.375 16.3271 18.6895C15.0693 19.1543 14.372 20.5625 14.8916 21.957L16.1573 25.374C12.8987 25.3646 10.3115 22.7708 10.3115 19.5234C10.3115 16.2559 12.9091 13.6582 16.1767 13.6582C19.2839 13.6582 21.7926 16.0268 22.0067 19.0873ZM28.0302 4.55273L28.0302 8.18945L4.30953 8.18945L4.30953 4.55273C4.30953 2.59766 5.58101 1.28516 7.4814 1.28516L24.872 1.28516C26.7587 1.28516 28.0302 2.59766 28.0302 4.55273ZM8.01461 5.38672C8.01461 6.05664 8.57515 6.63086 9.25875 6.63086C9.94234 6.63086 10.4892 6.05664 10.4892 5.38672C10.4892 4.68945 9.94234 4.12891 9.25875 4.12891C8.57515 4.12891 8.01461 4.68945 8.01461 5.38672ZM11.624 5.38672C11.624 6.05664 12.1709 6.63086 12.8545 6.63086C13.538 6.63086 14.0849 6.05664 14.0849 5.38672C14.0849 4.68945 13.538 4.12891 12.8545 4.12891C12.1709 4.12891 11.624 4.68945 11.624 5.38672ZM20.497 4.66211C20.0732 4.66211 19.7998 4.94922 19.7998 5.38672C19.7998 5.81055 20.0732 6.09766 20.497 6.09766L23.8603 6.09766C24.2978 6.09766 24.5712 5.81055 24.5712 5.38672C24.5712 4.94922 24.2978 4.66211 23.8603 4.66211Z" fill="white" fill-opacity="0.85"/>
  <path d="M20.7295 29.9961L26.6767 29.9961C27.374 29.9961 27.9755 29.6133 28.249 28.8887L31.0244 21.4102C31.2431 20.7949 30.9423 20.3438 30.5322 20.1934C30.1084 20.0293 29.5752 20.1797 29.3427 20.7812L29.1513 21.2871C28.4677 20.9316 27.8525 20.4531 26.8408 20.4531C25.2959 20.4531 24.79 21.4785 23.7099 21.4785C22.6298 21.4785 22.1103 20.4531 20.5654 20.4531C19.5537 20.4531 18.9521 20.9316 18.2685 21.2871L18.0634 20.7812C17.8447 20.1797 17.2978 20.0293 16.8877 20.1934C16.4638 20.3438 16.1767 20.7949 16.3955 21.4102L19.1709 28.8887C19.4306 29.6133 20.0459 29.9961 20.7295 29.9961ZM21.1806 28.2051C20.9619 28.2051 20.7978 28.1094 20.7021 27.8496L18.6923 22.4766C19.3623 22.1211 19.8271 21.7383 20.5654 21.7383C21.7822 21.7383 22.1377 22.7637 23.7099 22.7637C25.2685 22.7637 25.624 21.7383 26.8408 21.7383C27.5927 21.7383 28.0439 22.1211 28.7138 22.4766L26.7041 27.8496C26.6084 28.1094 26.4443 28.2051 26.2255 28.2051Z" fill="white" fill-opacity="0.85"/>
 </g>
</svg>
