<?xml version="1.0" encoding="UTF-8"?>
<!--Generator: Apple Native CoreSVG 326-->
<!DOCTYPE svg
PUBLIC "-//W3C//DTD SVG 1.1//EN"
       "http://www.w3.org/Graphics/SVG/1.1/DTD/svg11.dtd">
<svg version="1.1" xmlns="http://www.w3.org/2000/svg" xmlns:xlink="http://www.w3.org/1999/xlink" viewBox="0 0 25.9492 26.1543">
 <g>
  <rect height="26.1543" opacity="0" width="25.9492" x="0" y="0"/>
  <path d="M7.58789 26.1543L18.0059 26.1543C21.8477 26.1543 24.1445 23.8164 24.1445 19.9062L24.1445 6.27539C24.1445 2.36523 21.8477 0.0410156 18.0059 0.0410156L7.58789 0.0410156C3.74609 0.0410156 1.44922 2.36523 1.44922 6.27539L1.44922 19.9062C1.44922 23.8164 3.74609 26.1543 7.58789 26.1543ZM7.49219 24.0215C5.04492 24.0215 3.58203 22.5312 3.58203 20.002L3.58203 6.24805C3.58203 3.73242 5.04492 2.24219 7.49219 2.24219L18.1016 2.24219C20.5625 2.24219 22.0117 3.73242 22.0117 6.24805L22.0117 20.002C22.0117 22.5312 20.5625 24.0215 18.1016 24.0215ZM23.8984 11.6621L24.5137 11.6621C25.3887 11.6621 25.9492 11.0605 25.9492 10.1172L25.9492 7.83398C25.9492 6.86328 25.3887 6.26172 24.5137 6.26172L23.8984 6.26172Z" fill="white" fill-opacity="0.85"/>
  <path d="M11.3203 14.0547C12.0039 14.6289 12.6328 14.6289 13.2891 14.0547L18.9355 9.13281C19.3457 8.76367 19.3457 8.12109 18.9492 7.71094C18.5527 7.31445 17.9512 7.31445 17.5 7.71094L12.291 12.2227L9.11914 9.5293C8.70898 9.17383 8.05273 9.24219 7.69727 9.65234C7.32812 10.0898 7.39648 10.7324 7.83398 11.1016Z" fill="white" fill-opacity="0.85"/>
 </g>
</svg>
