<svg version="1.1" xmlns="http://www.w3.org/2000/svg" xmlns:xlink="http://www.w3.org/1999/xlink" viewBox="0 0 15.3535 32.416">
 <g>
  
  <path d="M3.77344 3.51367L11.2383 3.51367C11.9355 3.51367 12.4551 3.02148 12.4551 2.29688L12.4551 1.2168C12.4551 0.505859 11.9355 0 11.2383 0L3.77344 0C3.04883 0 2.55664 0.505859 2.55664 1.2168L2.55664 2.29688C2.55664 3.02148 3.04883 3.51367 3.77344 3.51367ZM0.0136719 10.1445L14.9844 10.1445C14.9297 8.58594 14.6699 7.45117 13.7676 6.24805L13.4668 5.82422C13.0977 5.33203 12.4824 4.97656 11.8672 4.97656L3.11719 4.97656C2.50195 4.97656 1.90039 5.33203 1.53125 5.82422L1.2168 6.24805C0.314453 7.45117 0.0683594 8.58594 0.0136719 10.1445ZM0 11.9355L0 25.8125L14.998 25.8125L14.998 11.9355ZM7.49219 23.584C5.50977 23.584 4.21094 22.3262 4.21094 20.4121C4.21094 19.4277 4.66211 18.6348 4.88086 18.1152C5.40039 17.0078 6.26172 15.5586 6.98633 14.4512C7.13672 14.2324 7.31445 14.1094 7.49219 14.1094C7.68359 14.1094 7.86133 14.2324 7.99805 14.4512C8.72266 15.5586 9.61133 17.0078 10.1035 18.1152C10.3496 18.6348 10.7871 19.4277 10.7871 20.4121C10.7871 22.3262 9.48828 23.584 7.49219 23.584ZM0 27.6035L0 27.8359C0 30.7891 1.46289 32.3887 4.14258 32.3887L10.8555 32.3887C13.5215 32.3887 14.998 30.7891 14.998 27.8359L14.998 27.6035Z" style="fill:var(--color-0,hsl(0 0 0/0.85))"></path>
 </g>
</svg>