<?xml version="1.0" encoding="UTF-8"?>
<!--Generator: Apple Native CoreSVG 326-->
<!DOCTYPE svg
PUBLIC "-//W3C//DTD SVG 1.1//EN"
       "http://www.w3.org/Graphics/SVG/1.1/DTD/svg11.dtd">
<svg version="1.1" xmlns="http://www.w3.org/2000/svg" xmlns:xlink="http://www.w3.org/1999/xlink" viewBox="0 0 16.0508 32.498">
 <g>
  <rect height="32.498" opacity="0" width="16.0508" x="0" y="0"/>
  <path d="M3.86914 3.51367L11.8262 3.51367C12.5234 3.51367 13.043 3.02148 13.043 2.29688L13.043 1.2168C13.043 0.505859 12.5234 0 11.8262 0L3.86914 0C3.14453 0 2.65234 0.505859 2.65234 1.2168L2.65234 2.29688C2.65234 3.02148 3.14453 3.51367 3.86914 3.51367ZM6.0293 3.19922L3.8418 2.55664L1.23047 6.19336C0.246094 7.57422 0 8.88672 0 10.7461L0 27.8086C0 30.8164 1.50391 32.4844 4.23828 32.4844L11.4434 32.4844C14.1641 32.4844 15.6953 30.8164 15.6953 27.8086L15.6953 10.7461C15.6953 8.88672 15.4219 7.57422 14.4375 6.19336L11.8398 2.55664L9.63867 3.19922L12.5645 7.3418C13.3574 8.49023 13.4941 9.1875 13.4941 10.7461L13.4941 27.8086C13.4941 29.4355 12.7832 30.2832 11.4434 30.2832L4.23828 30.2832C2.89844 30.2832 2.20117 29.4355 2.20117 27.8086L2.20117 10.7461C2.20117 9.1875 2.31055 8.49023 3.11719 7.3418ZM1.35352 10.4453L1.35352 12.168L14.3145 12.168L14.3145 10.4453ZM7.83398 23.3105C9.76172 23.3105 11.0059 22.0801 11.0059 20.248C11.0059 19.2773 10.6094 18.5117 10.3633 18.0332C9.88477 16.9258 9.03711 15.5312 8.32617 14.4648C8.18945 14.2461 8.02539 14.1367 7.83398 14.1367C7.65625 14.1367 7.49219 14.2461 7.3418 14.4648C6.63086 15.5312 5.81055 16.9258 5.30469 18.0332C5.08594 18.5117 4.66211 19.2773 4.66211 20.248C4.66211 22.0801 5.91992 23.3105 7.83398 23.3105ZM1.35352 25.5801L1.35352 27.3027L14.3145 27.3027L14.3145 25.5801Z" fill="white" fill-opacity="0.85"/>
 </g>
</svg>
