<svg version="1.1" xmlns="http://www.w3.org/2000/svg" xmlns:xlink="http://www.w3.org/1999/xlink" viewBox="0 0 29.0938 21.2871">
 <g>
  
  <path d="M14.3691 4.70312C18.0879 4.70312 18.6895 1.92773 20.8633 1.92773C23.0781 1.92773 23.4336 4.70312 27.6992 4.70312L27.7676 4.70312C28.3008 4.70312 28.7383 4.26562 28.7383 3.73242C28.7383 3.19922 28.3008 2.77539 27.7676 2.77539L27.6992 2.77539C26.2227 2.77539 25.4023 2.16016 24.377 1.43555C23.4883 0.792969 22.3809 0 20.8633 0C19.291 0 18.1699 0.833984 17.2812 1.50391C16.3379 2.21484 15.5859 2.77539 14.3691 2.77539C13.1387 2.77539 12.4004 2.21484 11.457 1.50391C10.5684 0.833984 9.44727 0 7.875 0C6.35742 0 5.25 0.792969 4.36133 1.43555C3.33594 2.16016 2.50195 2.77539 1.03906 2.77539L0.970703 2.77539C0.423828 2.77539 0 3.19922 0 3.73242C0 4.26562 0.423828 4.70312 0.970703 4.70312L1.03906 4.70312C5.29102 4.70312 5.66016 1.92773 7.875 1.92773C10.0488 1.92773 10.6367 4.70312 14.3691 4.70312Z" style="fill:var(--color-0,hsl(0 0 0/0.85))"></path>
  <path d="M14.3691 12.9609C18.0879 12.9609 18.6895 10.1855 20.8633 10.1855C23.0781 10.1855 23.4336 12.9609 27.6992 12.9609L27.7676 12.9609C28.3008 12.9609 28.7383 12.5371 28.7383 12.0039C28.7383 11.4707 28.3008 11.0332 27.7676 11.0332L27.6992 11.0332C26.2227 11.0332 25.4023 10.4316 24.377 9.69336C23.4883 9.05078 22.3809 8.25781 20.8633 8.25781C19.291 8.25781 18.1699 9.10547 17.2812 9.76172C16.3379 10.4727 15.5859 11.0332 14.3691 11.0332C13.1387 11.0332 12.4004 10.4727 11.457 9.76172C10.5684 9.10547 9.44727 8.25781 7.875 8.25781C6.35742 8.25781 5.25 9.05078 4.36133 9.69336C3.33594 10.4316 2.50195 11.0332 1.03906 11.0332L0.970703 11.0332C0.423828 11.0332 0 11.4707 0 12.0039C0 12.5371 0.423828 12.9609 0.970703 12.9609L1.03906 12.9609C5.29102 12.9609 5.66016 10.1855 7.875 10.1855C10.0488 10.1855 10.6367 12.9609 14.3691 12.9609Z" style="fill:var(--color-1,hsl(0 0 0/0.85))"></path>
  <path d="M14.3691 21.2324C18.0879 21.2324 18.6895 18.457 20.8633 18.457C23.0781 18.457 23.4336 21.2324 27.6992 21.2324L27.7676 21.2324C28.3008 21.2324 28.7383 20.7949 28.7383 20.2617C28.7383 19.7285 28.3008 19.3047 27.7676 19.3047L27.6992 19.3047C26.2227 19.3047 25.4023 18.6895 24.377 17.9648C23.4883 17.3086 22.3809 16.5293 20.8633 16.5293C19.291 16.5293 18.1699 17.3633 17.2812 18.0195C16.3379 18.7441 15.5859 19.3047 14.3691 19.3047C13.1387 19.3047 12.4004 18.7441 11.457 18.0195C10.5684 17.3633 9.44727 16.5293 7.875 16.5293C6.35742 16.5293 5.25 17.3086 4.36133 17.9648C3.33594 18.6895 2.50195 19.3047 1.03906 19.3047L0.970703 19.3047C0.423828 19.3047 0 19.7285 0 20.2617C0 20.7949 0.423828 21.2324 0.970703 21.2324L1.03906 21.2324C5.29102 21.2324 5.66016 18.457 7.875 18.457C10.0488 18.457 10.6367 21.2324 14.3691 21.2324Z" style="fill:var(--color-2,hsl(0 0 0/0.85))"></path>
 </g>
</svg>