<svg version="1.1" xmlns="http://www.w3.org/2000/svg" xmlns:xlink="http://www.w3.org/1999/xlink" viewBox="0 0 28.2461 27.9043">
 <g>
  
  <path d="M13.9453 27.8906C21.6426 27.8906 27.8906 21.6426 27.8906 13.9453C27.8906 6.24805 21.6426 0 13.9453 0C6.24805 0 0 6.24805 0 13.9453C0 21.6426 6.24805 27.8906 13.9453 27.8906ZM13.9453 25.5664C7.51953 25.5664 2.32422 20.3711 2.32422 13.9453C2.32422 7.51953 7.51953 2.32422 13.9453 2.32422C20.3711 2.32422 25.5664 7.51953 25.5664 13.9453C25.5664 20.3711 20.3711 25.5664 13.9453 25.5664Z" style="fill:var(--color-0,hsl(0 0 0/0.85))"></path>
  <path d="M13.9316 8.16211C10.8008 8.16211 7.75195 9.0918 5.35938 10.7598C4.9082 11.1016 4.79883 11.6621 5.08594 12.0859C5.40039 12.5234 5.97461 12.5918 6.42578 12.2637C8.49023 10.8281 11.1836 9.99414 13.9316 9.99414C16.707 9.99414 19.3867 10.8145 21.4375 12.2637C21.9023 12.5918 22.4629 12.5234 22.7773 12.0859C23.0918 11.6484 22.9688 11.0879 22.5176 10.7598C20.084 9.0918 17.0625 8.16211 13.9316 8.16211Z" style="fill:var(--color-1,hsl(0 0 0/0.85))"></path>
  <path d="M13.9316 12.4414C11.6484 12.4414 9.44727 13.1113 7.73828 14.3281C7.30078 14.6562 7.19141 15.2031 7.50586 15.6406C7.7793 16.0508 8.36719 16.1465 8.8457 15.8184C10.1855 14.8477 12.0312 14.3008 13.9316 14.3008C15.8457 14.3008 17.6777 14.8477 19.0312 15.8184C19.5098 16.1465 20.084 16.0508 20.3711 15.6406C20.6719 15.2031 20.5762 14.6562 20.125 14.3281C18.4707 13.1113 16.2559 12.4414 13.9316 12.4414Z" style="fill:var(--color-2,hsl(0 0 0/0.85))"></path>
  <path d="M13.9316 16.7207C12.4961 16.7207 11.0879 17.1445 10.1309 17.8691C9.70703 18.1699 9.58398 18.7441 9.87109 19.168C10.1992 19.6328 10.7871 19.7148 11.2793 19.3594C11.9355 18.8672 12.9336 18.5801 13.9316 18.5801C14.957 18.5801 15.9551 18.8672 16.5977 19.3594C17.0898 19.7285 17.6777 19.6465 18.0059 19.168C18.2793 18.7441 18.1699 18.1836 17.7461 17.8691C16.748 17.1445 15.3262 16.7207 13.9316 16.7207Z" style="fill:var(--color-3,hsl(0 0 0/0.85))"></path>
 </g>
</svg>