<svg version="1.1" xmlns="http://www.w3.org/2000/svg" xmlns:xlink="http://www.w3.org/1999/xlink" viewBox="0 0 32.8382 20.4668">
 <g>
  
  <path d="M16.255 20.4668C22.0246 20.4668 27.4113 18.6758 31.882 15.4629C33.2492 14.4785 32.046 12.4688 30.6105 13.5215C26.4953 16.5156 21.546 18.1289 16.255 18.1289C10.964 18.1289 6.00111 16.5156 1.88588 13.5215C0.477677 12.4824-0.807479 14.4375 0.628068 15.4629C5.0851 18.6621 10.4718 20.4668 16.255 20.4668Z" style="fill:var(--color-0,hsl(0 0 0/0.85))"></path>
  <path d="M16.255 13.0293C20.548 13.0293 24.5675 11.6758 27.8351 9.24219C29.3117 8.14844 27.9035 6.24805 26.5636 7.27344C23.6378 9.50195 20.0695 10.6777 16.255 10.6777C12.4269 10.6777 8.87221 9.50195 5.94643 7.27344C4.60658 6.24805 3.19838 8.14844 4.66127 9.24219C7.92885 11.6758 11.9621 13.0293 16.255 13.0293Z" style="fill:var(--color-1,hsl(0 0 0/0.85))"></path>
  <path d="M16.255 5.5918C19.0714 5.5918 21.6964 4.63477 23.7335 2.91211C25.0871 1.77734 23.5558 0.123047 22.4757 0.970703C20.3839 2.61133 18.6613 3.25391 16.255 3.25391C13.8351 3.25391 12.0988 2.61133 10.0206 0.970703C8.94057 0.123047 7.43666 1.79102 8.76283 2.91211C10.7999 4.63477 13.4386 5.5918 16.255 5.5918Z" style="fill:var(--color-2,hsl(0 0 0/0.85))"></path>
 </g>
</svg>