<svg version="1.1" xmlns="http://www.w3.org/2000/svg" xmlns:xlink="http://www.w3.org/1999/xlink" viewBox="0 0 48.8496 22.2441">
 <g>
  
  <path d="M3.48633 19.0996L7.73828 19.0996L7.73828 16.8984L3.60938 16.8984C2.7207 16.8984 2.20117 16.2969 2.20117 15.2578L2.20117 13.1797C2.20117 10.7324 3.8418 9.35156 7.25977 8.91406L12.8242 8.2168L18.7578 4.52539C21.7793 2.63867 23.5703 2.20117 28.8203 2.20117L39.498 2.20117C41.8633 2.20117 43.2305 2.85742 44.3516 4.45703L44.9668 5.3457C45.8008 6.54883 46.293 8.02539 46.293 9.32422L46.293 15.2988C46.293 16.3926 45.8691 16.8984 44.8984 16.8984L41.5352 16.8984L41.5352 19.0996L45.0215 19.0996C47.4141 19.0996 48.4941 17.8691 48.4941 15.1621L48.4941 9.32422C48.4941 7.61523 47.8652 5.66016 46.7852 4.10156L46.1699 3.19922C44.5977 0.916016 42.6699 0 39.498 0L28.8203 0C23.1875 0 20.9316 0.546875 17.582 2.63867L12.0723 6.09766L6.97266 6.72656C2.31055 7.30078 0 9.43359 0 13.1797L0 15.5312C0 17.7598 1.3125 19.0996 3.48633 19.0996ZM14.1504 19.0996L35.2461 19.0996L35.2461 16.8984L14.1504 16.8984ZM10.8691 22.2168C13.4941 22.2168 15.5449 20.166 15.5449 17.541C15.5449 14.916 13.4941 12.8652 10.8691 12.8652C8.24414 12.8652 6.19336 14.916 6.19336 17.541C6.19336 20.166 8.24414 22.2168 10.8691 22.2168ZM10.8691 20.0156C9.47461 20.0156 8.39453 18.9355 8.39453 17.541C8.39453 16.1465 9.47461 15.0664 10.8691 15.0664C12.2637 15.0664 13.3438 16.1465 13.3438 17.541C13.3438 18.9355 12.2637 20.0156 10.8691 20.0156ZM38.4863 22.2168C41.1113 22.2168 43.1621 20.166 43.1621 17.541C43.1621 14.916 41.1113 12.8652 38.4863 12.8652C35.8613 12.8652 33.8105 14.916 33.8105 17.541C33.8105 20.166 35.8613 22.2168 38.4863 22.2168ZM38.4863 20.0156C37.0918 20.0156 36.0117 18.9355 36.0117 17.541C36.0117 16.1465 37.0918 15.0664 38.4863 15.0664C39.8809 15.0664 40.9609 16.1465 40.9609 17.541C40.9609 18.9355 39.8809 20.0156 38.4863 20.0156Z" style="fill:var(--color-0,hsl(0 0 0/0.85))"></path>
  <path d="M25.5254 14.4512C28.0273 14.4512 30.4473 13.7129 32.3887 12.373C32.7715 12.0996 32.8535 11.6484 32.6211 11.293C32.3613 10.9512 31.8828 10.8828 31.5273 11.1426C29.8867 12.3047 27.7402 12.9609 25.5254 12.9609C23.3379 12.9609 21.1777 12.3047 19.5371 11.1426C19.1543 10.8828 18.7031 10.9375 18.4434 11.293C18.1973 11.6211 18.2793 12.0996 18.6484 12.373C20.5762 13.7129 23.0098 14.4512 25.5254 14.4512Z" style="fill:var(--color-1,hsl(0 0 0/0.85))"></path>
  <path d="M25.5254 11.0332C27.3848 11.0332 29.1621 10.5 30.4883 9.50195C30.8438 9.25586 30.9395 8.80469 30.6797 8.44922C30.4609 8.12109 29.9688 8.02539 29.5996 8.29883C28.5059 9.06445 27.043 9.51562 25.5254 9.51562C24.0078 9.51562 22.5312 9.06445 21.4648 8.29883C21.0684 8.02539 20.6035 8.12109 20.3711 8.44922C20.125 8.80469 20.1934 9.25586 20.5625 9.50195C21.916 10.5 23.707 11.0332 25.5254 11.0332Z" style="fill:var(--color-2,hsl(0 0 0/0.85))"></path>
  <path d="M25.5254 7.61523C26.6328 7.61523 27.7812 7.25977 28.5879 6.68555C28.9297 6.43945 29.0254 5.97461 28.793 5.61914C28.5332 5.23633 28.0547 5.16797 27.6445 5.46875C27.1387 5.86523 26.3457 6.09766 25.5254 6.09766C24.7324 6.09766 23.9258 5.86523 23.4062 5.46875C23.0098 5.18164 22.5312 5.25 22.2578 5.61914C22.0254 5.97461 22.1074 6.43945 22.4629 6.68555C23.2422 7.25977 24.377 7.61523 25.5254 7.61523Z" style="fill:var(--color-3,hsl(0 0 0/0.85))"></path>
 </g>
</svg>