<?xml version="1.0" encoding="UTF-8"?>
<!--Generator: Apple Native CoreSVG 326-->
<!DOCTYPE svg
PUBLIC "-//W3C//DTD SVG 1.1//EN"
       "http://www.w3.org/Graphics/SVG/1.1/DTD/svg11.dtd">
<svg version="1.1" xmlns="http://www.w3.org/2000/svg" xmlns:xlink="http://www.w3.org/1999/xlink" viewBox="0 0 25.5527 28.5605">
 <g>
  <rect height="28.5605" opacity="0" width="25.5527" x="0" y="0"/>
  <path d="M24.0898 18.6348C24.7051 18.6348 25.1973 18.1426 25.1973 17.541L25.1973 11.0195C25.1973 10.418 24.7051 9.91211 24.0898 9.91211C23.4609 9.91211 22.9961 10.418 22.9961 11.0195L22.9961 17.541C22.9961 18.1426 23.4609 18.6348 24.0898 18.6348Z" fill="white" fill-opacity="0.85"/>
  <path d="M19.4961 25.5254C20.1113 25.5254 20.5898 25.0332 20.5898 24.4316L20.5898 4.12891C20.5898 3.52734 20.1113 3.02148 19.4961 3.02148C18.8535 3.02148 18.3887 3.52734 18.3887 4.12891L18.3887 24.4316C18.3887 25.0332 18.8535 25.5254 19.4961 25.5254Z" fill="white" fill-opacity="0.85"/>
  <path d="M14.8887 21.3828C15.5176 21.3828 15.9961 20.9043 15.9961 20.2891L15.9961 8.27148C15.9961 7.65625 15.5176 7.16406 14.8887 7.16406C14.2598 7.16406 13.7949 7.65625 13.7949 8.27148L13.7949 20.2891C13.7949 20.9043 14.2598 21.3828 14.8887 21.3828Z" fill="white" fill-opacity="0.85"/>
  <path d="M10.2812 28.5605C10.9102 28.5605 11.4023 28.0684 11.4023 27.4531L11.4023 1.10742C11.4023 0.492188 10.9102 0 10.2812 0C9.66602 0 9.20117 0.492188 9.20117 1.10742L9.20117 27.4531C9.20117 28.0684 9.66602 28.5605 10.2812 28.5605Z" fill="white" fill-opacity="0.85"/>
  <path d="M5.6875 23.0508C6.31641 23.0508 6.79492 22.5586 6.79492 21.9434L6.79492 6.61719C6.79492 6.00195 6.31641 5.49609 5.6875 5.49609C5.07227 5.49609 4.59375 6.00195 4.59375 6.61719L4.59375 21.9434C4.59375 22.5586 5.07227 23.0508 5.6875 23.0508Z" fill="white" fill-opacity="0.85"/>
  <path d="M1.08008 17.459C1.72266 17.459 2.20117 16.9668 2.20117 16.3516L2.20117 12.209C2.20117 11.5938 1.72266 11.0879 1.08008 11.0879C0.464844 11.0879 0 11.5938 0 12.209L0 16.3516C0 16.9668 0.464844 17.459 1.08008 17.459Z" fill="white" fill-opacity="0.85"/>
 </g>
</svg>
