<svg version="1.1" xmlns="http://www.w3.org/2000/svg" xmlns:xlink="http://www.w3.org/1999/xlink" viewBox="0 0 32.8382 20.4825">
 <g>
  
  <path d="M16.255 0.746148C10.4718 0.746148 5.0851 2.55084 0.628068 5.75005C-0.807479 6.78912 0.477677 8.73052 1.88588 7.69146C6.00111 4.69732 10.964 3.08404 16.255 3.08404C21.546 3.08404 26.4953 4.69732 30.6105 7.69146C32.046 8.7442 33.2492 6.73443 31.882 5.75005C27.4113 2.55084 22.0246 0.746148 16.255 0.746148Z" style="fill:var(--color-0,hsl(0 0 0/0.85))"></path>
  <path d="M16.255 8.19732C11.9621 8.19732 7.92885 9.53716 4.66127 11.9708C3.19838 13.0645 4.60658 14.9786 5.94643 13.9395C8.87221 11.7247 12.4269 10.5352 16.255 10.5352C20.0695 10.5352 23.6378 11.7247 26.5636 13.9395C27.9035 14.9786 29.3117 13.0645 27.8351 11.9708C24.5675 9.53716 20.548 8.19732 16.255 8.19732Z" style="fill:var(--color-1,hsl(0 0 0/0.85))"></path>
  <path d="M16.255 15.6211C13.4386 15.6211 10.7999 16.5919 8.76283 18.3145C7.43666 19.4219 8.94057 21.0899 10.0206 20.2422C12.0988 18.6016 13.8351 17.959 16.255 17.959C18.6613 17.959 20.3839 18.6016 22.4757 20.2559C23.5558 21.0899 25.0871 19.4356 23.7335 18.3145C21.6964 16.5919 19.0714 15.6211 16.255 15.6211Z" style="fill:var(--color-2,hsl(0 0 0/0.85))"></path>
 </g>
</svg>