<?xml version="1.0" encoding="UTF-8"?>
<!--Generator: Apple Native CoreSVG 326-->
<!DOCTYPE svg
PUBLIC "-//W3C//DTD SVG 1.1//EN"
       "http://www.w3.org/Graphics/SVG/1.1/DTD/svg11.dtd">
<svg version="1.1" xmlns="http://www.w3.org/2000/svg" xmlns:xlink="http://www.w3.org/1999/xlink" viewBox="0 0 44.4883 35.123">
 <g>
  <rect height="35.123" opacity="0" width="44.4883" x="0" y="0"/>
  <path d="M28.2598 7.41016L28.2598 25.7288C27.3916 26.2619 26.6514 26.8998 26.0586 27.5969L26.0586 7.41016C26.0586 6.80859 26.5234 6.30273 27.1523 6.30273C27.7676 6.30273 28.2598 6.80859 28.2598 7.41016Z" fill="white" fill-opacity="0.85"/>
  <path d="M23.6523 11.5527L23.6523 23.5703C23.6523 24.1855 23.1738 24.6641 22.5586 24.6641C21.916 24.6641 21.4512 24.1855 21.4512 23.5703L21.4512 11.5527C21.4512 10.9375 21.916 10.4453 22.5586 10.4453C23.1738 10.4453 23.6523 10.9375 23.6523 11.5527Z" fill="white" fill-opacity="0.85"/>
  <path d="M19.0586 4.38867L19.0586 30.7344C19.0586 31.3496 18.5801 31.8418 17.9375 31.8418C17.3223 31.8418 16.8574 31.3496 16.8574 30.7344L16.8574 4.38867C16.8574 3.77344 17.3223 3.28125 17.9375 3.28125C18.5801 3.28125 19.0586 3.77344 19.0586 4.38867Z" fill="white" fill-opacity="0.85"/>
  <path d="M14.4648 9.89844L14.4648 25.2246C14.4648 25.8398 13.9727 26.332 13.3438 26.332C12.7285 26.332 12.2637 25.8398 12.2637 25.2246L12.2637 9.89844C12.2637 9.2832 12.7285 8.77734 13.3438 8.77734C13.9727 8.77734 14.4648 9.2832 14.4648 9.89844Z" fill="white" fill-opacity="0.85"/>
  <path d="M9.85742 15.4902L9.85742 19.6328C9.85742 20.248 9.37891 20.7402 8.75 20.7402C8.12109 20.7402 7.65625 20.248 7.65625 19.6328L7.65625 15.4902C7.65625 14.875 8.12109 14.3691 8.75 14.3691C9.37891 14.3691 9.85742 14.875 9.85742 15.4902Z" fill="white" fill-opacity="0.85"/>
  <path d="M27.6582 33.1816L40.8516 33.1816C41.8906 33.1816 42.5195 32.6895 42.5195 31.8828C42.5195 29.3398 39.3613 25.8398 34.2617 25.8398C29.1484 25.8398 25.9902 29.3398 25.9902 31.8828C25.9902 32.6895 26.6191 33.1816 27.6582 33.1816ZM34.2617 24.0762C36.3672 24.0762 38.1855 22.2031 38.1855 19.7422C38.1855 17.3223 36.3535 15.5312 34.2617 15.5312C32.1699 15.5312 30.3242 17.3496 30.3242 19.7695C30.3242 22.2031 32.1562 24.0762 34.2617 24.0762Z" fill="white" fill-opacity="0.85"/>
 </g>
</svg>
