<svg version="1.1" xmlns="http://www.w3.org/2000/svg" xmlns:xlink="http://www.w3.org/1999/xlink" viewBox="0 0 28.2461 27.9043">
 <g>
  
  <path d="M13.9453 27.8906C21.6426 27.8906 27.8906 21.6426 27.8906 13.9453C27.8906 6.24805 21.6426 0 13.9453 0C6.24805 0 0 6.24805 0 13.9453C0 21.6426 6.24805 27.8906 13.9453 27.8906ZM13.9453 25.5664C7.51953 25.5664 2.32422 20.3711 2.32422 13.9453C2.32422 7.51953 7.51953 2.32422 13.9453 2.32422C20.3711 2.32422 25.5664 7.51953 25.5664 13.9453C25.5664 20.3711 20.3711 25.5664 13.9453 25.5664Z" style="fill:var(--color-0,hsl(0 0 0/0.85))"></path>
  <path d="M8.24414 13.9316C8.24414 17.0762 9.17383 20.1113 10.8418 22.5176C11.1836 22.9551 11.7441 23.0781 12.168 22.7773C12.6055 22.4629 12.6738 21.9023 12.3457 21.4375C10.9102 19.3867 10.0762 16.6797 10.0762 13.9316C10.0762 11.1562 10.8965 8.49023 12.3457 6.42578C12.6738 5.97461 12.6055 5.40039 12.168 5.08594C11.7305 4.78516 11.1699 4.89453 10.8418 5.35938C9.17383 7.7793 8.24414 10.8145 8.24414 13.9316Z" style="fill:var(--color-1,hsl(0 0 0/0.85))"></path>
  <path d="M12.5234 13.9316C12.5234 16.2148 13.1934 18.4297 14.4102 20.125C14.7383 20.5762 15.2852 20.6719 15.7227 20.3711C16.1328 20.084 16.2285 19.5098 15.9004 19.0312C14.9297 17.6914 14.3828 15.8457 14.3828 13.9316C14.3828 12.0312 14.9297 10.1855 15.9004 8.8457C16.2285 8.36719 16.1328 7.79297 15.7227 7.50586C15.2852 7.19141 14.7383 7.30078 14.4102 7.73828C13.1934 9.40625 12.5234 11.6074 12.5234 13.9316Z" style="fill:var(--color-2,hsl(0 0 0/0.85))"></path>
  <path d="M16.8027 13.9316C16.8027 15.3672 17.2266 16.7891 17.9512 17.7461C18.252 18.1699 18.8262 18.293 19.25 18.0059C19.7148 17.6641 19.7969 17.0898 19.4414 16.5977C18.9492 15.9277 18.6621 14.9297 18.6621 13.9316C18.6621 12.9062 18.9492 11.9082 19.4414 11.2793C19.8105 10.7871 19.7285 10.1855 19.25 9.85742C18.8262 9.58398 18.2656 9.70703 17.9512 10.1172C17.2266 11.1289 16.8027 12.5371 16.8027 13.9316Z" style="fill:var(--color-3,hsl(0 0 0/0.85))"></path>
 </g>
</svg>