<svg version="1.1" xmlns="http://www.w3.org/2000/svg" xmlns:xlink="http://www.w3.org/1999/xlink" viewBox="0 0 33.8926 31.7666">
 <g>
  
  <path d="M0.984375 18.5288L4.99023 18.5288C5.35938 18.5288 5.70117 18.3101 5.79688 17.9136L6.43945 15.0698L5.96094 15.0698L8.12109 25.0776C8.29883 25.8979 9.63867 25.8979 9.76172 25.064L11.4297 14.0991L13.3848 31.0112C13.5078 32.0229 14.957 32.0093 15.0391 31.0112L16.8301 10.8452L18.6348 30.9976C18.7168 32.0229 20.166 32.0229 20.2891 30.9976L22.2441 14.0991L23.9121 25.0776C24.0352 25.9116 25.375 25.9116 25.5527 25.0776L27.6992 15.1382L27.1797 15.1519L27.877 17.9136C28 18.3647 28.3145 18.5288 28.6836 18.5288L32.5664 18.5288C33.1133 18.5288 33.5371 18.105 33.5371 17.5718C33.5371 17.0386 33.1133 16.6011 32.5664 16.6011L29.2852 16.6011L28.1914 12.3628C27.9453 11.4468 26.7559 11.4468 26.5508 12.3628L24.8691 20.3472L22.9414 7.75537C22.791 6.75732 21.4102 6.78467 21.2871 7.76904L19.5645 22.7124L17.6777 1.38428C17.582 0.358887 16.0918 0.358887 15.9961 1.38428L14.1094 22.7124L12.3867 7.76904C12.2637 6.75732 10.8828 6.75732 10.7324 7.75537L8.80469 20.3472L7.12305 12.3628C6.93164 11.5151 5.71484 11.5151 5.48242 12.3628L4.38867 16.6011L0.984375 16.6011C0.423828 16.6011 0 17.0386 0 17.5718C0 18.105 0.423828 18.5288 0.984375 18.5288Z" style="fill:var(--color-0,hsl(0 0 0/0.85))"></path>
 </g>
</svg>