<svg version="1.1" xmlns="http://www.w3.org/2000/svg" xmlns:xlink="http://www.w3.org/1999/xlink" viewBox="0 0 20.0987 32.5108">
 <g>
  
  <path d="M19.7427 16.2622C19.7427 10.479 17.938 5.09231 14.7251 0.635283C13.7408-0.745576 11.731 0.457549 12.7974 1.8931C15.7915 6.00833 17.3911 10.9712 17.3911 16.2622C17.3911 21.5533 15.7779 26.5025 12.7974 30.6177C11.7583 32.0396 13.6997 33.3111 14.7251 31.8892C17.938 27.4185 19.7427 22.0318 19.7427 16.2622Z" style="fill:var(--color-0,hsl(0 0 0/0.85))"></path>
  <path d="M12.2915 16.2622C12.2915 11.9693 10.938 7.93606 8.50443 4.66849C7.41068 3.2056 5.51028 4.6138 6.53568 5.95364C8.76419 8.87942 9.95364 12.4478 9.95364 16.2622C9.95364 20.0767 8.76419 23.645 6.53568 26.5708C5.51028 27.9107 7.41068 29.3189 8.50443 27.8423C10.938 24.5747 12.2915 20.5552 12.2915 16.2622Z" style="fill:var(--color-1,hsl(0 0 0/0.85))"></path>
  <path d="M4.86771 16.2622C4.86771 13.4458 3.897 10.8208 2.17435 8.77005C1.03958 7.4302-0.614715 8.94778 0.232941 10.0415C1.88724 12.1197 2.51614 13.856 2.51614 16.2622C2.51614 18.6685 1.88724 20.4048 0.232941 22.4829C-0.601044 23.563 1.05325 25.0669 2.17435 23.7408C3.897 21.7036 4.86771 19.0786 4.86771 16.2622Z" style="fill:var(--color-2,hsl(0 0 0/0.85))"></path>
 </g>
</svg>