<?xml version="1.0" encoding="UTF-8"?>
<!--Generator: Apple Native CoreSVG 326-->
<!DOCTYPE svg
PUBLIC "-//W3C//DTD SVG 1.1//EN"
       "http://www.w3.org/Graphics/SVG/1.1/DTD/svg11.dtd">
<svg version="1.1" xmlns="http://www.w3.org/2000/svg" xmlns:xlink="http://www.w3.org/1999/xlink" viewBox="0 0 52.1992 22.2441">
 <g>
  <rect height="22.2441" opacity="0" width="52.1992" x="0" y="0"/>
  <path d="M3.48633 19.373L5.19531 19.373C5.09961 18.9492 5.03125 18.5391 5.03125 18.0879C5.03125 15.1758 7.38281 12.8379 10.2812 12.8379C13.1934 12.8379 15.5312 15.1758 15.5312 18.0879C15.5312 18.5391 15.4766 18.9629 15.3809 19.373L34.0566 19.373C33.9473 18.9492 33.8926 18.5391 33.8926 18.0879C33.8926 15.1895 36.2441 12.8379 39.1426 12.8379C42.0547 12.8379 44.3926 15.1758 44.3926 18.0879C44.3926 18.5391 44.3379 18.9492 44.2285 19.373L48.3711 19.373C50.5449 19.373 51.8438 18.0332 51.8438 15.8047L51.8438 10.4316C51.8438 8.20312 50.5449 6.86328 48.3711 6.86328L37.2285 6.86328L36.9004 4.07422C36.5859 1.36719 35.0684 0 32.375 0L26.8516 0C22.4492 0 19.7422 0.683594 16.707 2.59766L11.1152 6.09766L6.01562 6.87695C1.87305 7.50586 0 9.2832 0 12.4961L0 15.8047C0 18.0332 1.3125 19.373 3.48633 19.373ZM10.2812 21.7383C12.332 21.7383 13.9453 20.125 13.9453 18.0879C13.9453 16.0508 12.3184 14.4238 10.2812 14.4238C8.25781 14.4238 6.63086 16.0508 6.63086 18.0879C6.63086 20.1113 8.25781 21.7383 10.2812 21.7383ZM39.1426 21.7383C41.1797 21.7383 42.8066 20.1113 42.8066 18.0879C42.8066 16.0508 41.1797 14.4238 39.1426 14.4238C37.1191 14.4238 35.4785 16.0645 35.4785 18.0879C35.4785 20.1113 37.1055 21.7383 39.1426 21.7383Z" fill="white" fill-opacity="0.85"/>
  <path d="M25.1016 14.5742C22.5039 14.5742 19.9883 13.8223 18.0195 12.4414C17.6367 12.1543 17.541 11.6621 17.8008 11.3203C18.0605 10.9512 18.5254 10.8965 18.9219 11.1699C20.6172 12.3594 22.8457 13.0293 25.1016 13.0293C27.3848 13.0293 29.5859 12.373 31.2812 11.1699C31.6641 10.8965 32.1426 10.9648 32.4023 11.3203C32.6621 11.6895 32.5801 12.168 32.1699 12.4414C30.1738 13.8223 27.6719 14.5742 25.1016 14.5742Z" fill="white"/>
  <path d="M25.1016 11.0605C23.2148 11.0605 21.3828 10.5 19.9883 9.48828C19.6055 9.21484 19.5234 8.76367 19.7695 8.39453C20.0156 8.05273 20.5078 7.94336 20.918 8.23047C22.0117 9.02344 23.5293 9.48828 25.1016 9.48828C26.6602 9.48828 28.1777 9.02344 29.2852 8.23047C29.6953 7.94336 30.1875 8.05273 30.4199 8.39453C30.6797 8.76367 30.584 9.21484 30.2148 9.48828C28.8477 10.5 27.0156 11.0605 25.1016 11.0605Z" fill="white"/>
  <path d="M25.1016 7.5332C23.9121 7.5332 22.7363 7.17773 21.9434 6.57617C21.5742 6.33008 21.4922 5.83789 21.7383 5.46875C22.0254 5.09961 22.5039 5.01758 22.9141 5.30469C23.4609 5.71484 24.2812 5.96094 25.1016 5.96094C25.9492 5.96094 26.7559 5.71484 27.2891 5.30469C27.6992 5.00391 28.2051 5.08594 28.4648 5.46875C28.6973 5.83789 28.6152 6.31641 28.2598 6.57617C27.4258 7.17773 26.2637 7.5332 25.1016 7.5332Z" fill="white"/>
 </g>
</svg>
