<svg version="1.1" xmlns="http://www.w3.org/2000/svg" xmlns:xlink="http://www.w3.org/1999/xlink" viewBox="0 0 49.0684 22.1621">
 <g>
  
  <path d="M4.34766 19.1816L6.30273 19.1816L6.30273 16.9805L4.34766 16.9805C2.87109 16.9805 2.20117 16.2285 2.20117 14.5879L2.20117 12.9199C2.20117 10.8965 3.70508 9.36523 6.34375 9.05078L11.8125 8.38086C12.6328 8.27148 13.1934 8.08008 13.7676 7.73828L18.8398 4.53906C21.8613 2.65234 23.7754 2.20117 28.9434 2.20117L31.0215 2.20117C34.6035 2.20117 37.4473 3.52734 40.9746 6.61719C41.6172 7.17773 41.959 7.32812 42.7793 7.58789L44.2285 8.05273C45.7871 8.55859 46.5117 9.36523 46.5117 10.8008L46.5117 14.5879C46.5117 16.2285 45.8418 16.9805 44.3652 16.9805L42.3828 16.9805L42.3828 19.1816L44.3652 19.1816C47.3594 19.1816 48.7129 17.7598 48.7129 14.5879L48.7129 10.8008C48.7129 8.25781 47.4824 6.67188 44.8848 5.82422L42.7109 5.09961C39.9492 2.70703 36.1484 0 31.0215 0L28.9434 0C23.3652 0 21.0137 0.560547 17.6641 2.66602L12.127 6.13867L6.07031 6.87695C2.2832 7.3418 0 9.69336 0 12.9199L0 14.6699C0 17.7871 1.38086 19.1816 4.34766 19.1816ZM13.4805 19.1816L35.3965 19.1816L35.3965 16.9805L13.4805 16.9805ZM10.0625 22.1348C12.7832 22.1348 14.916 20.002 14.916 17.2812C14.916 14.5469 12.7832 12.4141 10.0625 12.4141C7.32812 12.4141 5.19531 14.5469 5.19531 17.2812C5.19531 20.002 7.32812 22.1348 10.0625 22.1348ZM10.0625 20.0703C8.49023 20.0703 7.25977 18.8398 7.25977 17.2812C7.25977 15.709 8.49023 14.4785 10.0625 14.4785C11.6211 14.4785 12.8516 15.709 12.8516 17.2812C12.8516 18.8398 11.6211 20.0703 10.0625 20.0703ZM38.6504 22.1348C41.3848 22.1348 43.5176 20.002 43.5176 17.2812C43.5176 14.5469 41.3848 12.4141 38.6504 12.4141C35.916 12.4141 33.7832 14.5469 33.7832 17.2812C33.7832 20.002 35.916 22.1348 38.6504 22.1348ZM38.6504 20.0703C37.0918 20.0703 35.8477 18.8398 35.8477 17.2812C35.8477 15.709 37.0918 14.4785 38.6504 14.4785C40.209 14.4785 41.4531 15.709 41.4531 17.2812C41.4531 18.8398 40.209 20.0703 38.6504 20.0703Z" style="fill:var(--color-0,hsl(0 0 0/0.85))"></path>
  <path d="M24.8555 14.5195C27.3574 14.5195 29.7773 13.7812 31.7188 12.4414C32.1016 12.168 32.1836 11.7168 31.9512 11.3613C31.6914 11.0059 31.2129 10.9512 30.8574 11.2109C29.2031 12.373 27.0703 13.0293 24.8555 13.0293C22.668 13.0293 20.5078 12.373 18.8535 11.2109C18.4844 10.9512 18.0195 11.0059 17.7598 11.3613C17.5273 11.6895 17.6094 12.168 17.9785 12.4414C19.9062 13.7812 22.3398 14.5195 24.8555 14.5195Z" style="fill:var(--color-1,hsl(0 0 0/0.85))"></path>
  <path d="M24.8555 11.1016C26.7148 11.1016 28.4922 10.5684 29.8184 9.57031C30.1738 9.31055 30.2559 8.87305 30.0098 8.51758C29.791 8.18945 29.2988 8.09375 28.9297 8.36719C27.8359 9.13281 26.373 9.58398 24.8555 9.58398C23.3379 9.58398 21.8613 9.13281 20.7949 8.36719C20.3984 8.09375 19.9336 8.18945 19.7012 8.51758C19.4414 8.87305 19.5234 9.31055 19.8789 9.57031C21.2461 10.5684 23.0371 11.1016 24.8555 11.1016Z" style="fill:var(--color-2,hsl(0 0 0/0.85))"></path>
  <path d="M24.8555 7.68359C25.9629 7.68359 27.1113 7.32812 27.918 6.75391C28.2598 6.50781 28.3555 6.04297 28.123 5.6875C27.8633 5.30469 27.3711 5.23633 26.9746 5.53711C26.4688 5.93359 25.6758 6.16602 24.8555 6.16602C24.0625 6.16602 23.2559 5.93359 22.7363 5.53711C22.3398 5.25 21.8613 5.31836 21.5879 5.6875C21.3555 6.04297 21.4375 6.50781 21.793 6.75391C22.5723 7.32812 23.707 7.68359 24.8555 7.68359Z" style="fill:var(--color-3,hsl(0 0 0/0.85))"></path>
 </g>
</svg>