<?xml version="1.0" encoding="UTF-8"?>
<!--Generator: Apple Native CoreSVG 326-->
<!DOCTYPE svg
PUBLIC "-//W3C//DTD SVG 1.1//EN"
       "http://www.w3.org/Graphics/SVG/1.1/DTD/svg11.dtd">
<svg version="1.1" xmlns="http://www.w3.org/2000/svg" xmlns:xlink="http://www.w3.org/1999/xlink" viewBox="0 0 49.0684 22.1621">
 <g>
  <rect height="22.1621" opacity="0" width="49.0684" x="0" y="0"/>
  <path d="M4.34766 19.1816L5.20898 19.1816C5.12695 18.7578 5.07227 18.334 5.07227 17.8965C5.07227 14.7109 7.57422 12.209 10.7734 12.209C13.9727 12.209 16.4746 14.7109 16.4746 17.8965C16.4746 18.334 16.4199 18.7578 16.3242 19.1816L32.3613 19.1816C32.2793 18.7578 32.2246 18.334 32.2246 17.8965C32.2246 14.7109 34.7402 12.209 37.9258 12.209C41.125 12.209 43.6406 14.7109 43.6406 17.8965C43.6406 18.334 43.5859 18.7578 43.4902 19.1816L44.3652 19.1816C47.3594 19.1816 48.7129 17.7598 48.7129 14.5879L48.7129 10.8008C48.7129 8.25781 47.4824 6.67188 44.8848 5.82422L42.7109 5.09961C39.9492 2.74805 36.1484 0 31.0215 0L28.9434 0C23.3652 0 21.0137 0.560547 17.6641 2.66602L12.127 6.13867L6.07031 6.87695C2.2832 7.3418 0 9.69336 0 12.9199L0 14.6699C0 17.7871 1.38086 19.1816 4.34766 19.1816ZM10.7734 21.998C13.084 21.998 14.8887 20.1934 14.8887 17.8965C14.8887 15.5996 13.084 13.7949 10.7734 13.7949C8.47656 13.7949 6.67188 15.5996 6.67188 17.8965C6.67188 20.1934 8.47656 21.998 10.7734 21.998ZM37.9258 21.998C40.2363 21.998 42.041 20.1934 42.041 17.8965C42.041 15.5996 40.2363 13.7949 37.9258 13.7949C35.6289 13.7949 33.8242 15.5996 33.8242 17.8965C33.8242 20.1934 35.6289 21.998 37.9258 21.998Z" fill="white" fill-opacity="0.85"/>
  <path d="M24.8418 14.6562C22.2441 14.6562 19.7285 13.9043 17.7598 12.5234C17.3633 12.2363 17.2812 11.7441 17.5273 11.4023C17.7871 11.0332 18.2656 10.9785 18.6484 11.252C20.3574 12.4414 22.5859 13.1113 24.8418 13.1113C27.125 13.1113 29.3125 12.4551 31.0215 11.252C31.4043 10.9785 31.8828 11.0332 32.1426 11.4023C32.4023 11.7715 32.3066 12.25 31.9102 12.5234C29.9141 13.9043 27.4121 14.6562 24.8418 14.6562Z" fill="white"/>
  <path d="M24.8418 11.1426C22.9551 11.1426 21.123 10.582 19.7148 9.57031C19.3457 9.2832 19.25 8.8457 19.5098 8.47656C19.7559 8.13477 20.248 8.02539 20.6582 8.3125C21.752 9.10547 23.2695 9.57031 24.8418 9.57031C26.4004 9.57031 27.918 9.10547 29.0254 8.3125C29.4219 8.02539 29.9277 8.13477 30.1602 8.47656C30.4062 8.8457 30.3242 9.2832 29.9551 9.57031C28.5879 10.582 26.7559 11.1426 24.8418 11.1426Z" fill="white"/>
  <path d="M24.8418 7.61523C23.6523 7.61523 22.4766 7.25977 21.6836 6.6582C21.3145 6.41211 21.2324 5.91992 21.4785 5.55078C21.752 5.18164 22.2441 5.09961 22.6543 5.38672C23.2012 5.79688 24.0215 6.04297 24.8418 6.04297C25.6895 6.04297 26.4961 5.79688 27.0293 5.38672C27.4258 5.08594 27.9453 5.16797 28.2051 5.55078C28.4375 5.91992 28.3555 6.39844 28 6.6582C27.166 7.25977 25.9902 7.61523 24.8418 7.61523Z" fill="white"/>
 </g>
</svg>
