<svg version="1.1" xmlns="http://www.w3.org/2000/svg" xmlns:xlink="http://www.w3.org/1999/xlink" viewBox="0 0 27.7402 29.4527">
 <g>
  
  <path d="M0.984375 17.3718L7.04102 17.3718C7.65625 17.3718 8.02539 17.0984 8.16211 16.5515L10.8008 4.4109L9.76172 4.4109L13.8086 28.7195C13.9727 29.7039 15.4902 29.6902 15.6816 28.7195L19.6055 10.3035L18.7441 10.2898L19.9746 16.4421C20.0977 17.0711 20.4531 17.3718 21.0957 17.3718L26.4004 17.3718C26.9473 17.3718 27.3848 16.948 27.3848 16.4148C27.3848 15.8679 26.9609 15.4441 26.4004 15.4441L19.9473 15.4441L21.916 17.0437L19.9883 8.48512C19.7832 7.54176 18.375 7.54176 18.1426 8.52613L14.1504 26.3679L15.1211 26.3679L11.1152 2.07301C10.9648 1.11598 9.57031 1.08863 9.35156 2.07301L6.11133 17.0437L8.08008 15.4441L0.984375 15.4441C0.423828 15.4441 0 15.8816 0 16.4148C0 16.948 0.423828 17.3718 0.984375 17.3718Z" style="fill:var(--color-0,hsl(0 0 0/0.85))"></path>
 </g>
</svg>