<?xml version="1.0" encoding="UTF-8"?>
<!--Generator: Apple Native CoreSVG 326-->
<!DOCTYPE svg
PUBLIC "-//W3C//DTD SVG 1.1//EN"
       "http://www.w3.org/Graphics/SVG/1.1/DTD/svg11.dtd">
<svg version="1.1" xmlns="http://www.w3.org/2000/svg" xmlns:xlink="http://www.w3.org/1999/xlink" viewBox="0 0 22.3262 27.5762">
 <g>
  <rect height="27.5762" opacity="0" width="22.3262" x="0" y="0"/>
  <path d="M10.9922 21.998C17.0488 21.998 21.9707 17.0762 21.9707 10.9922C21.9707 4.92188 17.0488 0 10.9922 0C4.92188 0 0 4.92188 0 10.9922C0 17.0762 4.92188 21.998 10.9922 21.998ZM10.9922 19.7969C6.07031 19.7969 2.20117 15.9277 2.20117 10.9922C2.20117 6.05664 6.07031 2.20117 10.9922 2.20117C15.9141 2.20117 19.7695 6.05664 19.7695 10.9922C19.7695 15.9277 15.9141 19.7969 10.9922 19.7969ZM9.89844 26.4551L12.0996 26.4551L12.0996 20.9863L9.89844 20.9863ZM6.20703 27.5488L15.7773 27.5488C16.3789 27.5488 16.8711 27.0566 16.8711 26.4551C16.8711 25.8535 16.3789 25.3477 15.7773 25.3477L6.2207 25.3477C5.61914 25.3477 5.11328 25.8535 5.11328 26.4551C5.11328 27.0566 5.60547 27.5488 6.20703 27.5488Z" fill="white" fill-opacity="0.85"/>
  <path d="M10.9922 17.377C14.5605 17.377 17.3496 14.5605 17.3496 10.9922C17.3496 7.4375 14.5605 4.62109 10.9922 4.62109C7.4375 4.62109 4.62109 7.4375 4.62109 10.9922C4.62109 14.5605 7.4375 17.377 10.9922 17.377ZM10.9922 13.959C9.33789 13.959 8.02539 12.6465 8.02539 10.9922C8.02539 9.33789 9.33789 8.02539 10.9922 8.02539C12.6465 8.02539 13.9453 9.33789 13.9453 10.9922C13.9453 12.6465 12.6465 13.959 10.9922 13.959Z" fill="white" fill-opacity="0.85"/>
 </g>
</svg>
