<svg version="1.1" xmlns="http://www.w3.org/2000/svg" xmlns:xlink="http://www.w3.org/1999/xlink" viewBox="0 0 22.3262 27.5762">
 <g>
  
  <path d="M21.9707 10.9922C21.9707 16.7007 17.6376 21.3861 12.0996 21.942L12.0996 25.3477L15.7773 25.3477C16.3789 25.3477 16.8711 25.8535 16.8711 26.4551C16.8711 27.0566 16.3789 27.5488 15.7773 27.5488L6.20703 27.5488C5.60547 27.5488 5.11328 27.0566 5.11328 26.4551C5.11328 25.8535 5.61914 25.3477 6.2207 25.3477L9.89844 25.3477L9.89844 21.9428C4.34131 21.395 0 16.7061 0 10.9922C0 4.92188 4.92188 0 10.9922 0C17.0488 0 21.9707 4.92188 21.9707 10.9922ZM4.41602 10.9922C4.41602 14.6699 7.32812 17.582 10.9922 17.582C14.6699 17.582 17.5547 14.6699 17.5547 10.9922C17.5547 7.32812 14.6699 4.41602 10.9922 4.41602C7.32812 4.41602 4.41602 7.32812 4.41602 10.9922ZM14.041 10.9922C14.041 12.7012 12.7012 14.0547 10.9922 14.0547C9.2832 14.0547 7.92969 12.7012 7.92969 10.9922C7.92969 9.2832 9.2832 7.92969 10.9922 7.92969C12.7012 7.92969 14.041 9.2832 14.041 10.9922Z" style="fill:var(--color-0,hsl(0 0 0/0.85))"></path>
 </g>
</svg>