<?xml version="1.0" encoding="UTF-8"?>
<!--Generator: Apple Native CoreSVG 326-->
<!DOCTYPE svg
PUBLIC "-//W3C//DTD SVG 1.1//EN"
       "http://www.w3.org/Graphics/SVG/1.1/DTD/svg11.dtd">
<svg version="1.1" xmlns="http://www.w3.org/2000/svg" xmlns:xlink="http://www.w3.org/1999/xlink" viewBox="0 0 31.6367 27.4395">
 <g>
  <rect height="27.4395" opacity="0" width="31.6367" x="0" y="0"/>
  <path d="M8.92773 27.4395C13.8633 27.4395 17.8555 23.4199 17.8555 18.5117C17.8555 13.5762 13.877 9.58398 8.92773 9.58398C3.97852 9.58398 0 13.5762 0 18.5117C0 23.4336 3.97852 27.4395 8.92773 27.4395ZM8.91406 25.4023C5.07227 25.4023 2.03711 22.3398 2.03711 18.498C2.03711 14.6836 5.08594 11.6074 8.91406 11.6074C12.7695 11.6074 15.8184 14.6836 15.8184 18.498C15.8184 22.3398 12.7695 25.4023 8.91406 25.4023ZM8.92773 20.6582C10.1172 20.6582 11.1152 19.7012 11.1152 18.5117C11.1152 17.2676 10.1309 16.3242 8.92773 16.3242C7.73828 16.3242 6.76758 17.2539 6.76758 18.5117C6.76758 19.7012 7.72461 20.6582 8.92773 20.6582ZM9.0918 11.0059L11.2656 10.9102L9.29688 1.09375C9.16016 0.382812 8.94141 0 8.18945 0L3.81445 0C3.22656 0 2.76172 0.478516 2.76172 1.06641C2.76172 1.6543 3.22656 2.11914 3.81445 2.11914L7.08203 2.11914C7.20508 2.11914 7.24609 2.14648 7.25977 2.21484ZM8.94141 6.5625L20.0566 6.5625C20.6035 6.5625 21.041 6.125 21.041 5.5918C21.041 5.03125 20.6035 4.59375 20.0566 4.59375L8.94141 4.59375ZM16.3926 18.4023L22.2168 18.4023C24.1855 18.4023 25.6758 16.8574 25.6758 14.9434C25.6758 12.9883 24.1855 11.4434 22.2168 11.4434L12.9199 11.4434L14.5059 13.4121L21.9023 13.4121C22.791 13.4121 23.4199 14.0684 23.4199 14.9297C23.4199 15.791 22.791 16.4336 21.9023 16.4336L16.3789 16.4336ZM22.5723 22.2852L24.377 21.1914L22.7773 17.0078L20.5352 17.0762ZM24.7871 27.4395C26.7832 27.4395 28.4102 25.8125 28.4102 23.8027C28.4102 21.8066 26.7832 20.1934 24.7871 20.1934C22.791 20.1934 21.1641 21.8066 21.1641 23.8027C21.1641 25.8125 22.8047 27.4395 24.7871 27.4395ZM24.7871 25.498C23.8301 25.498 23.1055 24.7734 23.1055 23.8027C23.1055 22.8457 23.8301 22.1348 24.7871 22.1348C25.7578 22.1348 26.4688 22.8457 26.4688 23.8027C26.4688 24.7734 25.7578 25.498 24.7871 25.498ZM27.5352 24.8691L30.2148 24.8691C30.8027 24.8691 31.2812 24.3906 31.2812 23.8027C31.2812 23.2148 30.8027 22.75 30.2148 22.75L27.4531 22.75Z" fill="white" fill-opacity="0.85"/>
 </g>
</svg>
