<svg version="1.1" xmlns="http://www.w3.org/2000/svg" xmlns:xlink="http://www.w3.org/1999/xlink" viewBox="0 0 26.2637 25.9082">
 <g>
  
  <path d="M24.3086 1.61328C22.9141 0.21875 20.9453 0 18.6074 0L7.25977 0C4.96289 0 2.99414 0.21875 1.59961 1.61328C0.205078 3.00781 0 4.94922 0 7.24609L0 18.6074C0 20.9453 0.205078 22.8867 1.59961 24.2812C2.99414 25.6758 4.96289 25.8945 7.28711 25.8945L18.6074 25.8945C20.9453 25.8945 22.9141 25.6758 24.3086 24.2812C25.7031 22.8867 25.9082 20.9453 25.9082 18.6074L25.9082 7.28711C25.9082 4.94922 25.7031 2.99414 24.3086 1.61328ZM23.707 6.9043L23.707 18.9766C23.707 20.3848 23.5293 21.8477 22.6953 22.6816C21.875 23.502 20.3984 23.6934 18.9902 23.6934L6.91797 23.6934C5.50977 23.6934 4.0332 23.502 3.19922 22.6816C2.37891 21.8477 2.20117 20.3848 2.20117 18.9766L2.20117 6.94531C2.20117 5.50977 2.37891 4.0332 3.19922 3.21289C4.0332 2.37891 5.52344 2.20117 6.95898 2.20117L18.9902 2.20117C20.3984 2.20117 21.875 2.39258 22.6953 3.21289C23.5293 4.04688 23.707 5.49609 23.707 6.9043Z" style="fill:var(--color-0,hsl(0 0 0/0.85))"></path>
  <path d="M5.52344 20.877L20.3711 20.877C20.8496 20.877 21.2324 20.5078 21.2324 20.0293C21.2324 19.5645 20.8496 19.1816 20.3711 19.1816L5.52344 19.1816C5.05859 19.1816 4.67578 19.5645 4.67578 20.0293C4.67578 20.5078 5.05859 20.877 5.52344 20.877ZM6.67188 10.5684L9.63867 10.5684C10.8145 10.5684 11.6348 9.76172 11.6348 8.57227L11.6348 6.48047C11.6348 5.29102 10.8145 4.4707 9.63867 4.4707L6.67188 4.4707C5.48242 4.4707 4.66211 5.29102 4.66211 6.48047L4.66211 8.57227C4.66211 9.76172 5.48242 10.5684 6.67188 10.5684Z" style="fill:var(--color-1,hsl(0 0 0/0.85))"></path>
 </g>
</svg>