<svg version="1.1" xmlns="http://www.w3.org/2000/svg" xmlns:xlink="http://www.w3.org/1999/xlink" viewBox="0 0 42 25.7988">
 <g>
  
  <path d="M7.28711 25.7988L34.3438 25.7988C36.6816 25.7988 38.6504 25.5801 40.0449 24.1855C41.4395 22.791 41.6445 20.8496 41.6445 18.5117L41.6445 7.30078C41.6445 4.96289 41.4395 3.02148 40.0449 1.62695C38.6504 0.232422 36.6816 0.0136719 34.3438 0.0136719L7.28711 0.0136719C4.96289 0.0136719 2.99414 0.232422 1.59961 1.62695C0.205078 3.00781 0 4.96289 0 7.30078L0 18.5117C0 20.8496 0.205078 22.791 1.59961 24.1855C2.99414 25.5801 4.96289 25.7988 7.28711 25.7988ZM6.91797 23.5977C5.50977 23.5977 4.0332 23.4062 3.19922 22.5859C2.37891 21.752 2.20117 20.2891 2.20117 18.8809L2.20117 6.91797C2.20117 5.50977 2.37891 4.06055 3.19922 3.22656C4.0332 2.40625 5.50977 2.21484 6.91797 2.21484L34.7266 2.21484C36.1348 2.21484 37.6113 2.39258 38.4316 3.22656C39.2656 4.06055 39.4434 5.50977 39.4434 6.91797L39.4434 18.8809C39.4434 20.2891 39.2656 21.752 38.4316 22.5859C37.6113 23.4062 36.1348 23.5977 34.7266 23.5977Z" style="fill:var(--color-0,hsl(0 0 0/0.85))"></path>
  <path d="M6.67188 10.5137L9.63867 10.5137C10.8145 10.5137 11.6348 9.70703 11.6348 8.51758L11.6348 6.42578C11.6348 5.23633 10.8145 4.41602 9.63867 4.41602L6.67188 4.41602C5.48242 4.41602 4.66211 5.23633 4.66211 6.42578L4.66211 8.51758C4.66211 9.70703 5.48242 10.5137 6.67188 10.5137ZM5.82422 21.0957L35.8203 21.0957C36.2988 21.0957 36.668 20.7266 36.668 20.248C36.668 19.7832 36.2988 19.4004 35.8203 19.4004L5.82422 19.4004C5.35938 19.4004 4.96289 19.7832 4.96289 20.248C4.96289 20.7266 5.35938 21.0957 5.82422 21.0957Z" style="fill:var(--color-1,hsl(0 0 0/0.85))"></path>
 </g>
</svg>