<svg version="1.1" xmlns="http://www.w3.org/2000/svg" xmlns:xlink="http://www.w3.org/1999/xlink" viewBox="0 0 35.0137 32.9355">
 <g>
  
  <path d="M7.28711 32.9219L27.3711 32.9219C29.6953 32.9219 31.6641 32.7031 33.0586 31.2949C34.4531 29.9004 34.6582 27.959 34.6582 25.6211L34.6582 7.28711C34.6582 4.96289 34.4531 3.00781 33.0586 1.61328C31.6641 0.21875 29.6953 0 27.3711 0L7.25977 0C4.96289 0 2.99414 0.21875 1.59961 1.62695C0.205078 3.02148 0 4.96289 0 7.25977L0 25.6211C0 27.959 0.205078 29.9141 1.59961 31.2949C2.99414 32.7031 4.96289 32.9219 7.28711 32.9219ZM6.91797 30.7207C5.50977 30.7207 4.0332 30.5293 3.19922 29.6953C2.37891 28.8613 2.20117 27.4121 2.20117 26.0039L2.20117 6.95898C2.20117 5.50977 2.37891 4.04688 3.19922 3.21289C4.0332 2.39258 5.52344 2.20117 6.95898 2.20117L27.7402 2.20117C29.1484 2.20117 30.625 2.39258 31.459 3.22656C32.2793 4.04688 32.457 5.50977 32.457 6.91797L32.457 26.0039C32.457 27.4121 32.2793 28.8613 31.459 29.6953C30.625 30.5293 29.1484 30.7207 27.7402 30.7207Z" style="fill:var(--color-0,hsl(0 0 0/0.85))"></path>
  <path d="M6.01562 20.6172L28.6426 20.6172C29.1211 20.6172 29.5039 20.248 29.5039 19.7695C29.5039 19.3047 29.1211 18.9219 28.6426 18.9219L6.01562 18.9219C5.55078 18.9219 5.1543 19.3047 5.1543 19.7695C5.1543 20.248 5.55078 20.6172 6.01562 20.6172ZM6.01562 24.3633L28.6426 24.3633C29.1211 24.3633 29.5039 23.9805 29.5039 23.502C29.5039 23.0371 29.1211 22.668 28.6426 22.668L6.01562 22.668C5.55078 22.668 5.1543 23.0371 5.1543 23.502C5.1543 23.9805 5.55078 24.3633 6.01562 24.3633ZM6.01562 28.0957L19.9336 28.0957C20.4121 28.0957 20.7949 27.7266 20.7949 27.248C20.7949 26.7832 20.4121 26.4004 19.9336 26.4004L6.01562 26.4004C5.55078 26.4004 5.1543 26.7832 5.1543 27.248C5.1543 27.7266 5.55078 28.0957 6.01562 28.0957ZM6.67188 10.5137L9.63867 10.5137C10.8145 10.5137 11.6348 9.69336 11.6348 8.50391L11.6348 6.41211C11.6348 5.22266 10.8145 4.40234 9.63867 4.40234L6.67188 4.40234C5.48242 4.40234 4.66211 5.22266 4.66211 6.41211L4.66211 8.50391C4.66211 9.69336 5.48242 10.5137 6.67188 10.5137Z" style="fill:var(--color-1,hsl(0 0 0/0.85))"></path>
 </g>
</svg>