<?xml version="1.0" encoding="UTF-8"?>
<!--Generator: Apple Native CoreSVG 326-->
<!DOCTYPE svg
PUBLIC "-//W3C//DTD SVG 1.1//EN"
       "http://www.w3.org/Graphics/SVG/1.1/DTD/svg11.dtd">
<svg version="1.1" xmlns="http://www.w3.org/2000/svg" xmlns:xlink="http://www.w3.org/1999/xlink" viewBox="0 0 31.8323 32.481">
 <g>
  <rect height="32.481" opacity="0" width="31.8323" x="0" y="0"/>
  <path d="M8.93068 10.3146C6.71315 11.2246 4.70758 12.6124 2.98255 14.4426C2.72278 14.7161 2.33997 14.7161 2.06653 14.4563L0.179816 12.5422C-0.0526058 12.2962-0.0526058 11.9954 0.1388 11.7629C1.56113 10.0002 3.55096 8.44559 5.88077 7.26468ZM31.338 11.7629C31.5294 11.9954 31.5431 12.2962 31.297 12.5422L29.4103 14.429C29.1368 14.6887 28.7677 14.7024 28.5216 14.4563C25.1857 10.8879 20.7286 8.98756 15.7384 8.98756C15.5311 8.98756 15.3248 8.99085 15.1252 9.01697L11.4411 5.33281C12.8371 5.04039 14.2809 4.88599 15.7384 4.88599C22.0822 4.88599 28.1251 7.7981 31.338 11.7629Z" fill="#0a84ff"/>
  <path d="M15.6051 16.989C12.917 17.0153 10.2976 18.3277 8.68372 20.1165C8.41028 20.4172 8.04114 20.4583 7.74036 20.1712L5.62122 18.052C5.3888 17.8059 5.37513 17.5325 5.58021 17.2864C7.01118 15.5332 9.2895 14.0822 11.9743 13.3583ZM25.8966 17.2864C26.1017 17.5325 26.0743 17.8333 25.8556 18.052L25.0052 18.8969L19.4547 13.3464C22.1605 14.0652 24.4572 15.5229 25.8966 17.2864Z" fill="#0a84ff"/>
  <path d="M20.2365 23.0012C20.4279 23.2473 20.3732 23.5481 20.1681 23.7532L16.8322 26.9524C16.299 27.4719 16.0392 27.6087 15.7384 27.6087C15.4376 27.6087 15.1779 27.4583 14.6447 26.9524L11.3224 23.7532C11.1036 23.5481 11.049 23.302 11.1857 23.0833C12.0743 21.8938 13.756 20.8547 15.7384 20.8547C17.6661 20.8547 19.3478 21.8528 20.2365 23.0012Z" fill="#0a84ff"/>
  <path d="M27.2638 26.3919C27.674 26.802 28.3576 26.802 28.754 26.3919C29.1505 25.968 29.1642 25.3118 28.754 24.9016L5.75794 1.90553C5.34778 1.49537 4.67786 1.49537 4.25403 1.90553C3.85755 2.30201 3.85755 3.01295 4.25403 3.39576Z" fill="#0a84ff"/>
 </g>
</svg>
