<svg version="1.1" xmlns="http://www.w3.org/2000/svg" xmlns:xlink="http://www.w3.org/1999/xlink" viewBox="0 0 31.8323 29.8184">
 <g>
  
  <path d="M25.8966 15.9551C26.1017 16.2012 26.0743 16.502 25.8556 16.7207L23.7365 18.8262C23.4357 19.0996 23.0939 19.1133 22.8478 18.8262C21.8627 17.7522 20.5247 16.8357 19.024 16.2709L19.0593 11.9174C21.9367 12.5938 24.3877 14.1065 25.8966 15.9551ZM12.4761 16.2561C10.9838 16.8091 9.6526 17.7113 8.68372 18.7852C8.41028 19.0859 8.04114 19.127 7.74036 18.8398L5.62122 16.7207C5.3888 16.4746 5.37513 16.2012 5.58021 15.9551C7.0918 14.1031 9.54894 12.5883 12.4329 11.9135Z" style="fill:var(--color-0,hsl(0 0 0/0.85))"></path>
  <path d="M12.3938 7.96708C8.78522 8.61802 5.56864 10.3676 2.98255 13.1113C2.72278 13.3848 2.33997 13.3848 2.06653 13.125L0.179816 11.2109C-0.0526058 10.9648-0.0526058 10.6641 0.1388 10.4316C2.76064 7.18235 7.31078 4.64009 12.3527 3.83136ZM31.338 10.4316C31.5294 10.6641 31.5431 10.9648 31.297 11.2109L29.4103 13.0977C29.1368 13.3574 28.7677 13.3711 28.5216 13.125C25.9543 10.3788 22.7229 8.62046 19.0914 7.96752L19.125 3.83094C24.1694 4.63911 28.7045 7.18172 31.338 10.4316Z" style="fill:var(--color-1,hsl(0 0 0/0.85))"></path>
  <path d="M15.7384 26.2773C16.9005 26.2773 17.8165 25.334 17.8165 24.1855C17.8165 23.0234 16.9005 22.1074 15.7384 22.1074C14.59 22.1074 13.6603 23.0234 13.6603 24.1855C13.6603 25.334 14.59 26.2773 15.7384 26.2773ZM15.7521 19.6875C16.4767 19.6875 16.9689 19.209 16.9826 18.457C17.0236 13.4258 17.0646 8.36719 17.1056 3.32227C17.1056 2.54297 16.4767 2.00977 15.7384 2.00977C15.0001 2.00977 14.3712 2.54297 14.3712 3.32227C14.4259 8.36719 14.4669 13.4258 14.5216 18.457C14.5353 19.209 15.0275 19.6875 15.7521 19.6875Z" style="fill:var(--color-2,hsl(0 0 0/0.85))"></path>
 </g>
</svg>