<?xml version="1.0" encoding="UTF-8"?>
<!--Generator: Apple Native CoreSVG 326-->
<!DOCTYPE svg
PUBLIC "-//W3C//DTD SVG 1.1//EN"
       "http://www.w3.org/Graphics/SVG/1.1/DTD/svg11.dtd">
<svg version="1.1" xmlns="http://www.w3.org/2000/svg" xmlns:xlink="http://www.w3.org/1999/xlink" viewBox="0 0 39.3887 26.0996">
 <g>
  <rect height="26.0996" opacity="0" width="39.3887" x="0" y="0"/>
  <path d="M19.4961 0C16.3652 0 13.3164 0.929688 10.9238 2.59766C10.4727 2.93945 10.3633 3.5 10.6504 3.92383C10.9785 4.36133 11.5391 4.42969 11.9902 4.10156C14.0547 2.66602 16.748 1.83203 19.4961 1.83203C22.2852 1.83203 24.9512 2.65234 27.0156 4.10156C27.4668 4.42969 28.0273 4.36133 28.3418 3.92383C28.6562 3.48633 28.5469 2.92578 28.082 2.59766C25.6621 0.929688 22.627 0 19.4961 0Z" fill="white" fill-opacity="0.85"/>
  <path d="M19.5098 4.2793C17.2402 4.2793 15.0254 4.94922 13.3164 6.16602C12.8789 6.49414 12.7695 7.04102 13.084 7.47852C13.3711 7.88867 13.9453 7.98438 14.4238 7.65625C15.7637 6.69922 17.6094 6.13867 19.5098 6.13867C21.4238 6.13867 23.2695 6.69922 24.6094 7.65625C25.0879 7.98438 25.6621 7.88867 25.9492 7.47852C26.2637 7.04102 26.1543 6.49414 25.7031 6.16602C24.0488 4.94922 21.834 4.2793 19.5098 4.2793Z" fill="white" fill-opacity="0.85"/>
  <path d="M19.4961 8.55859C18.0742 8.55859 16.6523 8.98242 15.6953 9.70703C15.2715 10.0078 15.1484 10.582 15.4355 11.0059C15.7773 11.4707 16.3516 11.5527 16.8438 11.2109C17.5137 10.7051 18.498 10.418 19.4961 10.418C20.5352 10.418 21.5195 10.7051 22.1621 11.2109C22.6543 11.5664 23.2422 11.4844 23.584 11.0059C23.8574 10.582 23.7344 10.0215 23.3242 9.70703C22.3125 8.98242 20.8906 8.55859 19.4961 8.55859Z" fill="white" fill-opacity="0.85"/>
  <path d="M3.80078 26.0586L35.2324 26.0586C37.5703 26.0586 39.0332 24.623 39.0332 22.3125L39.0332 17.9512C39.0332 15.6406 37.5703 14.2051 35.2324 14.2051L3.80078 14.2051C1.46289 14.2051 0 15.6406 0 17.9512L0 22.3125C0 24.623 1.46289 26.0586 3.80078 26.0586ZM3.80078 23.8574C2.81641 23.8574 2.20117 23.2695 2.20117 22.3125L2.20117 17.9512C2.20117 16.9941 2.81641 16.4062 3.80078 16.4062L35.2324 16.4062C36.2168 16.4062 36.832 16.9941 36.832 17.9512L36.832 22.3125C36.832 23.2695 36.2168 23.8574 35.2324 23.8574ZM5.61914 20.5215L10.2539 20.5215C10.8145 20.5215 11.2246 20.125 11.2246 19.5645C11.2246 19.0039 10.8145 18.5938 10.2539 18.5938L5.61914 18.5938C5.05859 18.5938 4.66211 19.0039 4.66211 19.5645C4.66211 20.125 5.05859 20.5215 5.61914 20.5215ZM17.1855 21.9023C18.1426 21.9023 18.9492 21.0957 18.9492 20.1113C18.9492 19.1543 18.1426 18.3477 17.1855 18.3477C16.2012 18.3477 15.3945 19.1543 15.3945 20.1113C15.3945 21.0957 16.2012 21.9023 17.1855 21.9023ZM22.3535 21.9023C23.3105 21.9023 24.1172 21.0957 24.1172 20.1113C24.1172 19.1543 23.3105 18.3477 22.3535 18.3477C21.3691 18.3477 20.5625 19.1543 20.5625 20.1113C20.5625 21.0957 21.3691 21.9023 22.3535 21.9023ZM27.5215 21.9023C28.4785 21.9023 29.2852 21.0957 29.2852 20.1113C29.2852 19.1543 28.4785 18.3477 27.5215 18.3477C26.5371 18.3477 25.7305 19.1543 25.7305 20.1113C25.7305 21.0957 26.5371 21.9023 27.5215 21.9023ZM32.6895 21.9023C33.6602 21.9023 34.4668 21.0957 34.4668 20.125C34.4668 19.1543 33.6602 18.3477 32.6895 18.3477C31.7051 18.3477 30.8984 19.1543 30.8984 20.125C30.8984 21.0957 31.7051 21.9023 32.6895 21.9023Z" fill="white" fill-opacity="0.85"/>
 </g>
</svg>
