<svg version="1.1" xmlns="http://www.w3.org/2000/svg" xmlns:xlink="http://www.w3.org/1999/xlink" viewBox="0 0 25.5254 25.1699">
 <g>
  
  <path d="M4.29297 25.1699L20.877 25.1699C23.748 25.1699 25.1699 23.7617 25.1699 20.9453L25.1699 4.23828C25.1699 1.42188 23.748 0 20.877 0L4.29297 0C1.43555 0 0 1.42188 0 4.23828L0 20.9453C0 23.7617 1.43555 25.1699 4.29297 25.1699ZM4.32031 22.9688C2.95312 22.9688 2.20117 22.2441 2.20117 20.8223L2.20117 4.36133C2.20117 2.93945 2.95312 2.20117 4.32031 2.20117L20.8496 2.20117C22.2031 2.20117 22.9688 2.93945 22.9688 4.36133L22.9688 20.8223C22.9688 22.2441 22.2031 22.9688 20.8496 22.9688Z" style="fill:var(--color-0,#007aff)"></path>
  <path d="M5.00391 11.6895C5.18164 11.8945 5.49609 11.8809 5.70117 11.6621C7.47852 9.74805 9.88477 8.72266 12.5918 8.72266C15.3125 8.72266 17.7324 9.74805 19.5234 11.6758C19.7148 11.8672 20.0156 11.8809 20.1934 11.6758L21.2051 10.623C21.3691 10.459 21.3828 10.2266 21.2461 10.0352C19.4004 7.76562 15.9688 6.23438 12.5918 6.23438C9.22852 6.23438 5.79688 7.76562 3.95117 10.0352C3.80078 10.2266 3.82812 10.459 3.97852 10.623Z" style="fill:var(--color-1,#007aff)"></path>
  <path d="M8.12109 14.8066C8.32617 15.0254 8.59961 15.0117 8.83203 14.7793C9.74805 13.7539 11.1973 13.0977 12.5918 13.1113C13.9863 13.0977 15.4355 13.7539 16.3926 14.793C16.5977 15.0254 16.8711 15.0254 17.0625 14.8066L18.2246 13.6582C18.3887 13.4941 18.416 13.248 18.252 13.0703C17.0078 11.5664 14.834 10.6094 12.5918 10.6094C10.3633 10.6094 8.18945 11.5664 6.94531 13.0703C6.78125 13.2617 6.79492 13.4805 6.98633 13.6582Z" style="fill:var(--color-2,#007aff)"></path>
  <path d="M12.5918 18.9355C12.7969 18.9355 12.9336 18.8535 13.2754 18.5527L15.1074 16.7891C15.2578 16.625 15.2852 16.3926 15.1484 16.2148C14.6016 15.4766 13.5898 14.9844 12.5918 14.9844C11.5801 14.9844 10.5957 15.4902 10.0215 16.2832C9.89844 16.4336 9.93945 16.625 10.1035 16.7891L11.9219 18.5527C12.25 18.8398 12.3867 18.9355 12.5918 18.9355Z" style="fill:var(--color-3,#007aff)"></path>
 </g>
</svg>