<svg version="1.1" xmlns="http://www.w3.org/2000/svg" xmlns:xlink="http://www.w3.org/1999/xlink" viewBox="0 0 25.5254 25.1699">
 <g>
  
  <path d="M4.29297 25.1699L20.877 25.1699C23.748 25.1699 25.1699 23.7617 25.1699 20.9453L25.1699 4.23828C25.1699 1.42188 23.748 0 20.877 0L4.29297 0C1.43555 0 0 1.42188 0 4.23828L0 20.9453C0 23.7617 1.43555 25.1699 4.29297 25.1699Z" style="fill:var(--color-0,#007aff)"></path>
  <path d="M4.78516 11.6621L3.73242 10.582C3.55469 10.4043 3.52734 10.1719 3.67773 9.9668C5.5918 7.61523 9.11914 6.05664 12.6055 6.05664C16.0781 6.05664 19.6055 7.61523 21.5195 9.9668C21.6836 10.1719 21.6562 10.4043 21.4785 10.582L20.4258 11.6484C20.2207 11.8535 19.9336 11.8672 19.7285 11.6621C17.8965 9.66602 15.3945 8.62695 12.6055 8.62695C9.81641 8.62695 7.3418 9.67969 5.49609 11.6484C5.27734 11.8809 4.96289 11.8809 4.78516 11.6621Z" style="fill:var(--color-1,white)"></path>
  <path d="M7.99805 14.8887L6.80859 13.6855C6.64453 13.5078 6.61719 13.2754 6.76758 13.0977C8.05273 11.5391 10.2949 10.541 12.6055 10.541C14.9023 10.541 17.1582 11.5391 18.4297 13.0977C18.5938 13.2617 18.5801 13.5215 18.4023 13.6855L17.2129 14.8887C16.9941 15.1074 16.7207 15.1074 16.502 14.875C15.5312 13.7949 14.0273 13.1113 12.6055 13.1387C11.1562 13.1113 9.67969 13.7949 8.72266 14.8613C8.49023 15.1211 8.2168 15.1074 7.99805 14.8887Z" style="fill:var(--color-2,white)"></path>
  <path d="M12.6055 19.1406C12.3867 19.1406 12.2227 19.0586 11.9082 18.7305L10.0215 16.9121C9.87109 16.7617 9.83008 16.5566 9.93945 16.3926C10.5273 15.5859 11.5664 15.0527 12.6055 15.0527C13.6309 15.0527 14.6699 15.5723 15.2305 16.3242C15.3809 16.502 15.3535 16.7617 15.1895 16.9121L13.3164 18.7305C12.9746 19.0723 12.8242 19.1406 12.6055 19.1406Z" style="fill:var(--color-3,white)"></path>
 </g>
</svg>