<svg version="1.1" xmlns="http://www.w3.org/2000/svg" xmlns:xlink="http://www.w3.org/1999/xlink" viewBox="0 0 28.2461 27.9043">
 <g>
  
  <path d="M13.9453 27.8906C21.6426 27.8906 27.8906 21.6426 27.8906 13.9453C27.8906 6.24805 21.6426 0 13.9453 0C6.24805 0 0 6.24805 0 13.9453C0 21.6426 6.24805 27.8906 13.9453 27.8906ZM13.9453 25.5664C7.51953 25.5664 2.32422 20.3711 2.32422 13.9453C2.32422 7.51953 7.51953 2.32422 13.9453 2.32422C20.3711 2.32422 25.5664 7.51953 25.5664 13.9453C25.5664 20.3711 20.3711 25.5664 13.9453 25.5664Z" style="fill:var(--color-0,#007aff)"></path>
  <path d="M6.34375 13.0566C6.52148 13.2617 6.83594 13.248 7.04102 13.0293C8.81836 11.1152 11.2246 10.0898 13.9316 10.0898C16.6387 10.0898 19.0723 11.1152 20.8633 13.043C21.0547 13.2344 21.3418 13.248 21.5195 13.043L22.5449 11.9902C22.709 11.8262 22.7227 11.5938 22.5859 11.4023C20.7266 9.13281 17.3086 7.60156 13.9316 7.60156C10.5684 7.60156 7.13672 9.13281 5.29102 11.4023C5.14062 11.5938 5.16797 11.8262 5.31836 11.9902Z" style="fill:var(--color-1,#007aff)"></path>
  <path d="M9.46094 16.1738C9.66602 16.3926 9.93945 16.3789 10.1719 16.1465C11.0879 15.1211 12.5371 14.4648 13.9316 14.4785C15.3262 14.4648 16.7754 15.1211 17.7324 16.1602C17.9375 16.3926 18.2109 16.3926 18.4023 16.1738L19.5645 15.0254C19.7285 14.8613 19.7559 14.6152 19.5918 14.4375C18.3477 12.9336 16.1738 11.9766 13.9316 11.9766C11.7031 11.9766 9.51562 12.9336 8.28516 14.4375C8.12109 14.6289 8.13477 14.8477 8.32617 15.0254Z" style="fill:var(--color-2,#007aff)"></path>
  <path d="M13.9316 20.3027C14.1367 20.3027 14.2734 20.2207 14.6152 19.9199L16.4473 18.1562C16.5977 17.9922 16.625 17.7598 16.4883 17.582C15.9414 16.8438 14.9297 16.3516 13.9316 16.3516C12.9199 16.3516 11.9219 16.8574 11.3613 17.6504C11.2383 17.8008 11.2793 17.9922 11.4434 18.1562L13.2617 19.9199C13.5898 20.207 13.7266 20.3027 13.9316 20.3027Z" style="fill:var(--color-3,#007aff)"></path>
 </g>
</svg>