<?xml version="1.0" encoding="UTF-8"?>
<!--Generator: Apple Native CoreSVG 326-->
<!DOCTYPE svg
PUBLIC "-//W3C//DTD SVG 1.1//EN"
       "http://www.w3.org/Graphics/SVG/1.1/DTD/svg11.dtd">
<svg version="1.1" xmlns="http://www.w3.org/2000/svg" xmlns:xlink="http://www.w3.org/1999/xlink" viewBox="0 0 32.6621 32.6348">
 <g>
  <rect height="32.6348" opacity="0" width="32.6621" x="0" y="0"/>
  <path d="M3.47868 10.0344C2.66019 10.2613 2.22852 10.9116 2.22852 11.9766L2.22852 21.1777C2.22852 22.5176 2.92578 23.2012 4.22461 23.2012L11.1392 23.2012L12.4198 25.4023L4.19727 25.4023C1.43555 25.4023 0.0273438 24.0352 0.0273438 21.2871L0.0273438 11.8535C0.0273438 9.84496 0.794827 8.55919 2.31024 8.02615ZM32.3066 11.8535L32.3066 21.2871C32.3066 24.0215 30.9121 25.4023 28.1367 25.4023L14.9832 25.4023L13.7004 23.2012L28.1094 23.2012C29.3809 23.2012 30.1055 22.5176 30.1055 21.1777L30.1055 11.9766C30.1055 10.623 29.3809 9.93945 28.1094 9.93945L5.97156 9.93945L4.68874 7.73828L28.1367 7.73828C30.9121 7.73828 32.3066 9.13281 32.3066 11.8535Z" fill="white" fill-opacity="0.85"/>
  <path d="M8.81836 1.10742C8.81836 1.70898 8.3125 2.20117 7.71094 2.20117L1.09375 2.20117C0.492188 2.20117 0 1.70898 0 1.10742C0 0.505859 0.492188 0 1.09375 0L7.71094 0C8.3125 0 8.81836 0.505859 8.81836 1.10742ZM20.5488 1.10742C20.5488 1.70898 20.0566 2.20117 19.4551 2.20117L12.8379 2.20117C12.2363 2.20117 11.7441 1.70898 11.7441 1.10742C11.7441 0.505859 12.2363 0 12.8379 0L19.4551 0C20.0566 0 20.5488 0.505859 20.5488 1.10742ZM32.3066 1.10742C32.3066 1.70898 31.8008 2.20117 31.1992 2.20117L24.5957 2.20117C23.9805 2.20117 23.4883 1.70898 23.4883 1.10742C23.4883 0.505859 23.9805 0 24.5957 0L31.1992 0C31.8008 0 32.3066 0.505859 32.3066 1.10742Z" fill="white" fill-opacity="0.85"/>
  <path d="M16.1328 32.6074C17.7734 32.6074 19.1543 31.2402 19.1543 29.5996C19.1543 27.959 17.7871 26.5918 16.1328 26.5918C14.5059 26.5918 13.1387 27.959 13.1387 29.5996C13.1387 31.2539 14.4922 32.6074 16.1328 32.6074ZM16.1328 30.7617C15.4902 30.7617 14.9707 30.2559 14.9707 29.5996C14.9707 28.9434 15.4902 28.4102 16.1328 28.4102C16.7891 28.4102 17.3223 28.957 17.3223 29.5996C17.3223 30.2559 16.7891 30.7617 16.1328 30.7617ZM14.1777 28.4238L16.1465 27.3984L3.92383 6.42578C3.63672 5.91992 3.02148 5.72852 2.40625 6.01562C1.8457 6.33008 1.72266 7.01367 2.02344 7.5332Z" fill="white" fill-opacity="0.85"/>
 </g>
</svg>
