<svg version="1.1" xmlns="http://www.w3.org/2000/svg" xmlns:xlink="http://www.w3.org/1999/xlink" viewBox="0 0 38.6276 32.3613">
 <g>
  
  <path d="M37.2855 11.2246C38.4339 12.127 38.598 13.3848 37.6956 14.5332L28.7542 25.9082C28.3167 26.4688 27.6058 26.6191 26.9632 26.2637C24.7074 25.1016 21.7269 24.3086 19.1429 24.3086C18.6426 24.3086 18.1269 24.3383 17.6019 24.403L16.3623 22.2729C17.3238 22.1095 18.258 22.0254 19.1429 22.0254C21.5492 22.0254 24.3519 22.6543 27.0452 23.7754C27.3324 23.8848 27.4281 23.8848 27.6605 23.584L35.4398 13.6719C35.6859 13.3711 35.6312 13.1387 35.3167 12.9199C30.6956 9.98047 24.7484 8.39453 19.1429 8.39453C15.8338 8.39453 12.4157 8.94453 9.22671 10.011L7.96645 7.8454C11.2885 6.80341 15.1798 6.16602 19.1429 6.16602C26.4847 6.16602 33.5667 8.35352 37.2855 11.2246ZM7.12341 10.7893C5.65513 11.3823 4.26082 12.0982 2.96907 12.9199C2.64095 13.1387 2.59993 13.3711 2.83235 13.6719L10.6253 23.584C10.8577 23.8848 10.9534 23.8848 11.2406 23.7754C12.1918 23.3795 13.1549 23.0449 14.1091 22.7814L15.2898 24.8083C13.8699 25.1493 12.4885 25.656 11.3089 26.2637C10.6663 26.6191 9.96907 26.4688 9.5179 25.9082L0.590167 14.5332C-0.325849 13.3848-0.161786 12.127 0.986651 11.2246C2.253 10.2469 3.91095 9.34849 5.84354 8.59219Z" style="fill:var(--color-0,hsl(0 0 0/0.85))"></path>
  <path d="M11.6644 1.09375C11.6644 1.69531 11.1722 2.20117 10.5706 2.20117L3.09212 2.20117C2.49056 2.20117 1.9847 1.69531 1.9847 1.09375C1.9847 0.492188 2.49056 0 3.09212 0L10.5706 0C11.1722 0 11.6644 0.492188 11.6644 1.09375ZM23.9827 1.09375C23.9827 1.69531 23.4769 2.20117 22.8753 2.20117L15.3968 2.20117C14.7952 2.20117 14.2894 1.69531 14.2894 1.09375C14.2894 0.492188 14.7952 0 15.3968 0L22.8753 0C23.4769 0 23.9827 0.492188 23.9827 1.09375ZM36.2874 1.09375C36.2874 1.69531 35.7816 2.20117 35.18 2.20117L27.7015 2.20117C27.0999 2.20117 26.6077 1.69531 26.6077 1.09375C26.6077 0.492188 27.0999 0 27.7015 0L35.18 0C35.7816 0 36.2874 0.492188 36.2874 1.09375Z" style="fill:var(--color-1,hsl(0 0 0/0.85))"></path>
  <path d="M19.1566 32.3477C20.8245 32.3477 22.2327 30.9531 22.2327 29.2578C22.2327 27.5625 20.8382 26.168 19.1566 26.168C17.4613 26.168 16.0667 27.5625 16.0667 29.2578C16.0667 30.9531 17.4476 32.3477 19.1566 32.3477ZM19.1566 30.5156C18.4456 30.5156 17.8851 29.9551 17.8851 29.2578C17.8851 28.5605 18.4456 27.9727 19.1566 27.9727C19.8402 27.9727 20.4417 28.5605 20.4417 29.2578C20.4417 29.9551 19.8402 30.5156 19.1566 30.5156ZM17.1331 27.9727L19.0745 26.9336L6.74251 5.74219C6.44173 5.22266 5.81282 5.03125 5.21126 5.33203C4.65071 5.61914 4.52767 6.33008 4.82845 6.84961Z" style="fill:var(--color-2,hsl(0 0 0/0.85))"></path>
 </g>
</svg>