<svg version="1.1" xmlns="http://www.w3.org/2000/svg" xmlns:xlink="http://www.w3.org/1999/xlink" viewBox="0 0 40.0123 34.5488">
 <g>
  
  <path d="M38.6546 9.84375C39.8167 10.7461 39.9671 11.9902 39.0511 13.166L29.7405 25.0332C29.3304 25.5664 28.6331 25.6895 28.0042 25.3613C25.6663 24.1309 22.5218 23.3242 19.8284 23.3242C19.3233 23.3242 18.8018 23.3526 18.2699 23.4154L17.075 21.3617C18.0272 21.2037 18.9513 21.123 19.8284 21.123C22.3167 21.123 25.2151 21.7793 28.0042 22.9141C28.346 23.0508 28.4964 23.0234 28.7698 22.6816L36.8499 12.3867C37.1233 12.0312 37.0823 11.7168 36.7132 11.457C35.9019 10.9453 35.0513 10.4718 34.1551 10.0536C33.9389 8.70999 33.4011 7.60139 33.0902 6.90456C35.3244 7.73516 37.2326 8.74291 38.6546 9.84375ZM7.43488 9.19101C5.83596 9.81741 4.33201 10.5812 2.94363 11.457C2.57449 11.7168 2.53348 12.0312 2.79324 12.3867L10.887 22.6816C11.1604 23.0234 11.3108 23.0508 11.6526 22.9141C12.6967 22.4893 13.7541 22.1315 14.7999 21.8503L15.938 23.8065C14.4 24.1571 12.9001 24.6975 11.6389 25.3613C11.01 25.6895 10.3264 25.5664 9.91629 25.0332L0.605742 13.166C-0.323946 11.9902-0.173555 10.7461 0.988554 9.84375C2.33427 8.80563 4.11081 7.85029 6.18997 7.0512ZM23.1853 4.7557C22.7684 5.49477 22.3859 6.22221 22.0799 6.88503C21.3328 6.83379 20.5815 6.80859 19.8284 6.80859C16.281 6.80859 12.7745 7.36768 9.54844 8.42605L8.31963 6.31411C11.7295 5.25643 15.7246 4.60742 19.8284 4.60742C20.9597 4.60742 22.0827 4.65674 23.1853 4.7557Z" style="fill:var(--color-0,hsl(0 0 0/0.85))"></path>
  <path d="M28.305 2.32422C29.385 3.97852 30.6292 6.0293 31.3811 7.66992C31.805 8.59961 32.3929 9.81641 32.3929 11.2109C32.3929 14 30.4514 15.873 27.5804 15.873C24.7093 15.873 22.7679 14 22.7679 11.2109C22.7679 9.81641 23.3557 8.59961 23.7796 7.66992C24.5315 6.0293 25.7757 3.97852 26.8557 2.32422C27.0745 2.00977 27.3069 1.85938 27.5804 1.85938C27.8538 1.85938 28.0862 2.00977 28.305 2.32422Z" style="fill:var(--color-1,hsl(0 0 0/0.85))"></path>
  <path d="M17.805 27.0156L19.76 25.9766L6.88113 3.8418C6.59402 3.33594 5.96512 3.13086 5.34988 3.44531C4.78934 3.71875 4.66629 4.42969 4.96707 4.94922ZM19.8284 31.3906C21.4964 31.3906 22.9046 29.9961 22.9046 28.3145C22.9046 26.6055 21.51 25.2246 19.8284 25.2246C18.1331 25.2246 16.7522 26.6055 16.7522 28.3145C16.7522 30.0098 18.1194 31.3906 19.8284 31.3906ZM19.8284 29.5723C19.1175 29.5723 18.5569 28.998 18.5569 28.3145C18.5569 27.6035 19.1175 27.0156 19.8284 27.0156C20.512 27.0156 21.1136 27.6035 21.1136 28.3145C21.1136 28.998 20.512 29.5723 19.8284 29.5723Z" style="fill:var(--color-2,hsl(0 0 0/0.85))"></path>
 </g>
</svg>