<svg version="1.1" xmlns="http://www.w3.org/2000/svg" xmlns:xlink="http://www.w3.org/1999/xlink" viewBox="0 0 35.6836 22.7637">
 <g>
  
  <path d="M0 21.6016C0 22.2305 0.519531 22.7363 1.13477 22.7363L34.1934 22.7363C34.8223 22.7363 35.3281 22.2305 35.3281 21.6016C35.3281 20.9727 34.8223 20.4668 34.1934 20.4668L33.4551 20.4668L33.4551 2.03711C33.4551 0.820312 32.6211 0 31.3496 0L3.9375 0C2.67969 0 1.83203 0.820312 1.83203 2.03711L1.83203 20.4668L1.13477 20.4668C0.519531 20.4668 0 20.9727 0 21.6016ZM4.04688 10.2402L4.04688 2.58398C4.04688 2.36523 4.18359 2.20117 4.38867 2.20117L16.748 2.20117L16.748 10.2402ZM18.5391 10.2402L18.5391 2.20117L30.9121 2.20117C31.1172 2.20117 31.2539 2.36523 31.2539 2.58398L31.2539 10.2402ZM4.04688 20.4668L4.04688 12.5098L31.2539 12.5098L31.2539 20.4668Z" style="fill:var(--color-0,hsl(0 0 0/0.85))"></path>
 </g>
</svg>