<svg version="1.1" xmlns="http://www.w3.org/2000/svg" xmlns:xlink="http://www.w3.org/1999/xlink" viewBox="0 0 28.2871 29.0254">
 <g>
  
  <path d="M0 27.877C0 28.4922 0.519531 29.0117 1.13477 29.0117L26.7969 29.0117C27.4121 29.0117 27.9316 28.4922 27.9316 27.877C27.9316 27.248 27.4121 26.7422 26.7969 26.7422L26.0586 26.7422L26.0586 2.03711C26.0586 0.820312 25.2109 0 23.9531 0L3.9375 0C2.67969 0 1.83203 0.820312 1.83203 2.03711L1.83203 26.7422L1.13477 26.7422C0.519531 26.7422 0 27.248 0 27.877ZM4.04688 13.3984L4.04688 2.57031C4.04688 2.35156 4.18359 2.20117 4.38867 2.20117L13.0566 2.20117L13.0566 13.3984ZM14.8477 13.3984L14.8477 2.20117L23.502 2.20117C23.707 2.20117 23.8438 2.35156 23.8438 2.57031L23.8438 13.3984ZM4.04688 26.7422L4.04688 15.5996L13.0566 15.5996L13.0566 26.7422ZM14.8477 26.7422L14.8477 15.5996L23.8438 15.5996L23.8438 26.7422Z" style="fill:var(--color-0,hsl(0 0 0/0.85))"></path>
 </g>
</svg>