<svg version="1.1" xmlns="http://www.w3.org/2000/svg" xmlns:xlink="http://www.w3.org/1999/xlink" viewBox="0 0 40.0123 28.2324">
 <g>
  
  <path d="M38.6546 6.68555C39.8167 7.58789 39.9671 8.83203 39.0511 10.0078L29.7405 21.875C29.3304 22.4082 28.6331 22.5312 28.0042 22.2031C25.6663 20.9727 22.5218 20.166 19.8284 20.166C19.3233 20.166 18.8018 20.1944 18.2699 20.2572L17.075 18.2035C18.0272 18.0455 18.9513 17.9648 19.8284 17.9648C22.3167 17.9648 25.2151 18.6211 28.0042 19.7559C28.346 19.8926 28.4964 19.8652 28.7698 19.5234L36.8499 9.22852C37.1233 8.87305 37.0823 8.55859 36.7132 8.29883C32.01 5.33203 25.9807 3.65039 19.8284 3.65039C16.281 3.65039 12.7745 4.20948 9.54844 5.26785L8.31963 3.15591C11.7296 2.09823 15.7246 1.44922 19.8284 1.44922C27.5257 1.44922 34.8401 3.73242 38.6546 6.68555ZM7.43488 6.03281C5.83596 6.65921 4.33201 7.42302 2.94363 8.29883C2.57449 8.55859 2.53348 8.87305 2.79324 9.22852L10.887 19.5234C11.1604 19.8652 11.3108 19.8926 11.6526 19.7559C12.6967 19.3311 13.7541 18.9733 14.7999 18.6921L15.938 20.6483C14.4 20.9989 12.9001 21.5393 11.6389 22.2031C11.01 22.5312 10.3264 22.4082 9.91629 21.875L0.605742 10.0078C-0.323946 8.83203-0.173555 7.58789 0.988554 6.68555C2.33427 5.64743 4.1108 4.69209 6.18997 3.893Z" style="fill:var(--color-0,hsl(0 0 0/0.85))"></path>
  <path d="M17.805 23.8574L19.76 22.8184L6.88113 0.683594C6.59402 0.177734 5.96512-0.0273438 5.34988 0.287109C4.78934 0.560547 4.66629 1.27148 4.96707 1.79102ZM19.8284 28.2324C21.4964 28.2324 22.9046 26.8379 22.9046 25.1562C22.9046 23.4473 21.51 22.0664 19.8284 22.0664C18.1331 22.0664 16.7522 23.4473 16.7522 25.1562C16.7522 26.8516 18.1194 28.2324 19.8284 28.2324ZM19.8284 26.4141C19.1175 26.4141 18.5569 25.8398 18.5569 25.1562C18.5569 24.4453 19.1175 23.8574 19.8284 23.8574C20.512 23.8574 21.1136 24.4453 21.1136 25.1562C21.1136 25.8398 20.512 26.4141 19.8284 26.4141Z" style="fill:var(--color-1,hsl(0 0 0/0.85))"></path>
 </g>
</svg>