<?xml version="1.0" encoding="UTF-8"?>
<!--Generator: Apple Native CoreSVG 326-->
<!DOCTYPE svg
PUBLIC "-//W3C//DTD SVG 1.1//EN"
       "http://www.w3.org/Graphics/SVG/1.1/DTD/svg11.dtd">
<svg version="1.1" xmlns="http://www.w3.org/2000/svg" xmlns:xlink="http://www.w3.org/1999/xlink" viewBox="0 0 28.2461 27.9043">
 <g>
  <rect height="27.9043" opacity="0" width="28.2461" x="0" y="0"/>
  <path d="M13.9453 27.8906C21.6426 27.8906 27.8906 21.6426 27.8906 13.9453C27.8906 6.24805 21.6426 0 13.9453 0C6.24805 0 0 6.24805 0 13.9453C0 21.6426 6.24805 27.8906 13.9453 27.8906ZM13.9453 25.5664C7.51953 25.5664 2.32422 20.3711 2.32422 13.9453C2.32422 7.51953 7.51953 2.32422 13.9453 2.32422C20.3711 2.32422 25.5664 7.51953 25.5664 13.9453C25.5664 20.3711 20.3711 25.5664 13.9453 25.5664Z" fill="white" fill-opacity="0.85"/>
  <path d="M6.37109 11.7305C7.54688 11.3477 8.75 11.1562 9.92578 11.1562C11.4434 11.1562 12.5645 11.3887 14.0137 11.3887C15.5723 11.3887 16.584 10.3223 16.584 8.92773C16.584 7.50586 15.4766 6.4668 14.123 6.4668C13.1113 6.4668 12.2227 7.10938 11.8672 7.94336C11.7168 8.27148 11.7715 8.69531 12.168 8.87305C12.4961 9.03711 12.8926 8.92773 13.0977 8.51758C13.2754 8.12109 13.6445 7.83398 14.123 7.83398C14.7383 7.83398 15.2031 8.23047 15.2031 8.92773C15.2031 9.61133 14.752 10.0352 14.0137 10.0352C12.6465 10.0352 11.5117 9.77539 9.92578 9.77539C8.57227 9.77539 7.17773 10.0352 5.96094 10.418C5.52344 10.5547 5.3457 10.9375 5.46875 11.2793C5.56445 11.6484 5.93359 11.8672 6.37109 11.7305ZM19.2637 15.5996C21.2734 15.5996 22.709 14.3145 22.709 12.5098C22.709 10.7461 21.3418 9.44727 19.6465 9.44727C18.0879 9.44727 16.8984 10.5547 16.707 11.9902C16.625 12.4277 16.8984 12.7832 17.2539 12.8242C17.6367 12.8789 17.9922 12.6465 18.0742 12.168C18.1973 11.375 18.8398 10.8281 19.6465 10.8281C20.6035 10.8281 21.3281 11.498 21.3281 12.5098C21.3281 13.5625 20.5488 14.2188 19.2637 14.2188C16.7754 14.2188 14.0684 12.7832 10.7188 12.7832C9.00977 12.7832 7.42383 13.0703 5.94727 13.5898C5.53711 13.7402 5.3457 14.1094 5.46875 14.4648C5.56445 14.834 5.93359 15.0527 6.38477 14.8887C7.71094 14.3828 9.0918 14.1641 10.7188 14.1641C13.9863 14.1641 16.4473 15.5996 19.2637 15.5996ZM14.0273 21.4102C15.3672 21.4102 16.4336 20.4121 16.4336 18.9902C16.4336 16.9121 14.3555 15.791 10.6094 15.791C9.07812 15.791 7.36914 16.0918 5.93359 16.584C5.53711 16.748 5.33203 17.1172 5.46875 17.4453C5.56445 17.8145 5.93359 18.0469 6.38477 17.8965C7.68359 17.4316 9.13281 17.1582 10.6094 17.1582C13.5898 17.1582 15.0527 17.8691 15.0527 18.9902C15.0527 19.6738 14.6152 20.043 14.0273 20.043C13.4258 20.043 13.1113 19.7012 13.002 19.0449C12.9473 18.6895 12.6738 18.3477 12.2363 18.3887C11.7441 18.416 11.5527 18.8398 11.6074 19.2363C11.7715 20.4395 12.6738 21.4102 14.0273 21.4102Z" fill="white" fill-opacity="0.85"/>
 </g>
</svg>
