<?xml version="1.0" encoding="UTF-8"?>
<!--Generator: Apple Native CoreSVG 326-->
<!DOCTYPE svg
PUBLIC "-//W3C//DTD SVG 1.1//EN"
       "http://www.w3.org/Graphics/SVG/1.1/DTD/svg11.dtd">
<svg version="1.1" xmlns="http://www.w3.org/2000/svg" xmlns:xlink="http://www.w3.org/1999/xlink" viewBox="0 0 28.2461 27.9043">
 <g>
  <rect height="27.9043" opacity="0" width="28.2461" x="0" y="0"/>
  <path d="M13.9453 27.9043C21.6426 27.9043 27.8906 21.6562 27.8906 13.959C27.8906 6.27539 21.6426 0.0136719 13.9453 0.0136719C6.26172 0.0136719 0 6.27539 0 13.959C0 21.6562 6.26172 27.9043 13.9453 27.9043Z" fill="white" fill-opacity="0.85"/>
  <path d="M5.61914 12.3457C5.16797 12.4824 4.78516 12.2637 4.68945 11.8945C4.55273 11.5254 4.74414 11.1289 5.19531 10.9922C6.4668 10.5957 7.88867 10.3223 9.2832 10.3223C10.9102 10.3223 12.0859 10.5957 13.4941 10.5957C14.2598 10.5957 14.7109 10.1719 14.7109 9.46094C14.7109 8.75 14.2324 8.32617 13.6172 8.32617C13.1113 8.32617 12.7285 8.64062 12.5508 9.03711C12.3457 9.46094 11.9219 9.58398 11.5801 9.40625C11.1836 9.22852 11.1152 8.77734 11.2793 8.44922C11.6484 7.57422 12.5645 6.91797 13.6172 6.91797C14.998 6.91797 16.1465 7.98438 16.1465 9.46094C16.1465 10.8965 15.0938 12.0039 13.4941 12.0039C12.0039 12.0039 10.8418 11.7578 9.2832 11.7578C8.06641 11.7578 6.83594 11.9492 5.61914 12.3457ZM18.9082 16.3379C15.9961 16.3379 13.4668 14.8613 10.1035 14.8613C8.42188 14.8613 7 15.0801 5.63281 15.6133C5.16797 15.7773 4.78516 15.5449 4.68945 15.1621C4.55273 14.793 4.75781 14.4102 5.18164 14.2598C6.69922 13.7266 8.33984 13.4258 10.1035 13.4258C13.5488 13.4258 16.3379 14.9023 18.9082 14.9023C20.2207 14.9023 21.041 14.2324 21.041 13.166C21.041 12.1133 20.2754 11.416 19.291 11.416C18.4707 11.416 17.8145 11.9766 17.6777 12.8105C17.5957 13.2891 17.2266 13.5352 16.8301 13.4805C16.4609 13.4258 16.1875 13.0566 16.2695 12.6055C16.4609 11.1289 17.6914 9.99414 19.291 9.99414C21.041 9.99414 22.4629 11.334 22.4629 13.166C22.4629 15.0117 20.9863 16.3379 18.9082 16.3379ZM13.5078 22.3262C12.1133 22.3262 11.1699 21.3281 11.0195 20.084C10.9512 19.6738 11.1426 19.2363 11.6621 19.209C12.1133 19.168 12.4004 19.5098 12.4688 19.8789C12.5781 20.5625 12.8926 20.9043 13.5078 20.9043C14.1094 20.9043 14.5605 20.5352 14.5605 19.8242C14.5605 18.6758 13.0566 17.9512 9.98047 17.9512C8.46289 17.9512 6.97266 18.2246 5.63281 18.7031C5.16797 18.8535 4.78516 18.6211 4.68945 18.2383C4.55273 17.8965 4.75781 17.5137 5.16797 17.3496C6.64453 16.8438 8.4082 16.5293 9.98047 16.5293C13.8496 16.5293 15.9824 17.6914 15.9824 19.8242C15.9824 21.3008 14.8887 22.3262 13.5078 22.3262ZM19.3047 8.94141C19.0586 8.94141 18.9082 8.75 18.9219 8.51758L18.9629 7.65625L18.252 8.16211C18.0742 8.27148 17.7734 8.23047 17.6914 8.01172C17.5957 7.83398 17.623 7.57422 17.8691 7.45117L18.6211 7.0957L17.8691 6.69922C17.6367 6.57617 17.5957 6.30273 17.7051 6.13867C17.8008 5.91992 18.0742 5.89258 18.252 6.0293L18.9629 6.52148L18.9082 5.66016C18.8945 5.41406 19.0586 5.22266 19.3047 5.22266C19.5371 5.22266 19.6875 5.41406 19.6738 5.67383L19.6328 6.52148L20.3438 6.0293C20.5078 5.89258 20.8086 5.94727 20.9043 6.13867C21 6.33008 20.9453 6.57617 20.7129 6.68555L19.9609 7.0957L20.7129 7.45117C20.959 7.56055 21.0273 7.86133 20.8906 8.03906C20.7949 8.2168 20.5078 8.27148 20.3438 8.16211L19.6328 7.65625L19.6738 8.51758C19.6875 8.75 19.5371 8.94141 19.3047 8.94141ZM19.0312 20.4258C18.8535 20.4258 18.7441 20.2891 18.7578 20.1523L18.7852 19.7422L18.4434 19.9883C18.334 20.0703 18.1152 20.0293 18.0605 19.9062C18.0195 19.7695 18.0059 19.5781 18.1836 19.4961L18.5527 19.3457L18.1836 19.168C18.0059 19.0723 18.0195 18.8809 18.0742 18.7852C18.1426 18.6348 18.334 18.6074 18.4434 18.6895L18.7852 18.9629L18.7441 18.5254C18.7305 18.3887 18.8535 18.252 19.0312 18.252C19.168 18.252 19.291 18.3887 19.2773 18.5391L19.2363 18.9629L19.5645 18.6895C19.6738 18.6074 19.8926 18.6484 19.9609 18.7852C20.002 18.9082 20.002 19.0723 19.8379 19.1543L19.4551 19.3457L19.8379 19.4961C20.002 19.5781 20.0293 19.7969 19.9473 19.9199C19.8789 20.0156 19.6738 20.0703 19.5645 19.9883L19.2363 19.7422L19.2773 20.1523C19.291 20.2891 19.168 20.4258 19.0312 20.4258Z" fill="white"/>
 </g>
</svg>
