<?xml version="1.0" encoding="UTF-8"?>
<!--Generator: Apple Native CoreSVG 326-->
<!DOCTYPE svg
PUBLIC "-//W3C//DTD SVG 1.1//EN"
       "http://www.w3.org/Graphics/SVG/1.1/DTD/svg11.dtd">
<svg version="1.1" xmlns="http://www.w3.org/2000/svg" xmlns:xlink="http://www.w3.org/1999/xlink" viewBox="0 0 28.2461 27.9043">
 <g>
  <rect height="27.9043" opacity="0" width="28.2461" x="0" y="0"/>
  <path d="M13.9453 27.9043C21.6426 27.9043 27.8906 21.6562 27.8906 13.959C27.8906 6.27539 21.6426 0.0136719 13.9453 0.0136719C6.26172 0.0136719 0 6.27539 0 13.959C0 21.6562 6.26172 27.9043 13.9453 27.9043Z" fill="white" fill-opacity="0.85"/>
  <path d="M6.15234 11.6758C5.70117 11.8262 5.30469 11.5938 5.20898 11.2246C5.07227 10.8555 5.26367 10.459 5.71484 10.3359C6.98633 9.92578 8.4082 9.65234 9.80273 9.65234C11.4434 9.65234 12.6055 9.92578 14.0273 9.92578C14.7793 9.92578 15.2305 9.50195 15.2305 8.79102C15.2305 8.08008 14.752 7.66992 14.1367 7.66992C13.6309 7.66992 13.248 7.9707 13.0703 8.36719C12.8652 8.80469 12.4414 8.91406 12.0996 8.73633C11.7031 8.55859 11.6348 8.10742 11.8125 7.7793C12.168 6.9043 13.084 6.26172 14.1367 6.26172C15.5176 6.26172 16.666 7.31445 16.666 8.79102C16.666 10.2266 15.627 11.334 14.0273 11.334C12.5234 11.334 11.3613 11.0879 9.80273 11.0879C8.58594 11.0879 7.35547 11.2793 6.15234 11.6758ZM19.4277 15.668C16.5156 15.668 13.9863 14.1914 10.623 14.1914C8.94141 14.1914 7.51953 14.4102 6.15234 14.9434C5.70117 15.1074 5.30469 14.875 5.20898 14.4922C5.07227 14.1367 5.27734 13.7402 5.70117 13.5898C7.21875 13.0703 8.85938 12.7559 10.623 12.7559C14.0684 12.7559 16.8574 14.2324 19.4277 14.2324C20.7539 14.2324 21.5605 13.5625 21.5605 12.4961C21.5605 11.4434 20.7949 10.7598 19.8242 10.7598C18.9902 10.7598 18.334 11.3066 18.1973 12.1406C18.1152 12.6191 17.7461 12.8652 17.3633 12.8105C16.9941 12.7559 16.707 12.4004 16.7891 11.9355C16.9805 10.459 18.2109 9.33789 19.8242 9.33789C21.5605 9.33789 22.9824 10.6641 22.9824 12.4961C22.9824 14.3418 21.5059 15.668 19.4277 15.668ZM14.0273 21.6562C12.6328 21.6562 11.6895 20.6719 11.5391 19.4141C11.4707 19.0176 11.6621 18.5664 12.1816 18.5391C12.6328 18.498 12.9199 18.8535 12.9883 19.209C13.0977 19.8926 13.4258 20.248 14.0273 20.248C14.6289 20.248 15.0938 19.8652 15.0938 19.1543C15.0938 18.0059 13.5762 17.2812 10.5137 17.2812C8.98242 17.2812 7.49219 17.5547 6.15234 18.0332C5.70117 18.1973 5.30469 17.9512 5.20898 17.5684C5.07227 17.2266 5.27734 16.8438 5.70117 16.6797C7.16406 16.1738 8.92773 15.8594 10.5137 15.8594C14.3691 15.8594 16.5156 17.0352 16.5156 19.1543C16.5156 20.6309 15.4082 21.6562 14.0273 21.6562Z" fill="white"/>
 </g>
</svg>
