<?xml version="1.0" encoding="UTF-8"?>
<!--Generator: Apple Native CoreSVG 326-->
<!DOCTYPE svg
PUBLIC "-//W3C//DTD SVG 1.1//EN"
       "http://www.w3.org/Graphics/SVG/1.1/DTD/svg11.dtd">
<svg version="1.1" xmlns="http://www.w3.org/2000/svg" xmlns:xlink="http://www.w3.org/1999/xlink" viewBox="0 0 20.3438 32.5801">
 <g>
  <rect height="32.5801" opacity="0" width="20.3438" x="0" y="0"/>
  <path d="M9.98047 20.0977C15.9824 20.0977 19.9883 16.5293 19.9883 11.1152C19.9883 8.29883 18.7988 4.59375 17.0762 1.95508C16.2695 0.697266 13.6582 0 9.99414 0C6.30273 0 3.70508 0.697266 2.88477 1.95508C1.16211 4.59375 0 8.29883 0 11.1152C0 16.5293 3.97852 20.0977 9.98047 20.0977ZM9.98047 18.0332C5.09961 18.0332 2.06445 15.3672 2.06445 11.1152C2.06445 9.07812 2.77539 6.43945 3.95117 4.22461C5.14062 4.86719 7.30078 5.23633 9.99414 5.23633C12.6602 5.23633 14.8203 4.86719 16.0098 4.22461C17.1992 6.43945 17.9238 9.07812 17.9238 11.1152C17.9238 15.3672 14.8613 18.0332 9.98047 18.0332ZM9.99414 3.30859C7.24609 3.30859 4.78516 2.92578 4.78516 2.61133C4.78516 2.32422 7.28711 1.94141 9.99414 1.94141C12.6875 1.94141 15.2031 2.32422 15.2031 2.61133C15.2031 2.92578 12.7148 3.30859 9.99414 3.30859ZM9.98047 29.2578C10.541 29.2578 11.0195 28.7793 11.0195 28.2324L11.0195 19.0176L8.96875 19.0176L8.96875 28.2324C8.96875 28.793 9.43359 29.2578 9.98047 29.2578ZM9.98047 32.5664C14.9297 32.5527 17.9238 31.3359 17.9238 29.2305C17.9238 27.1387 14.9297 25.9082 9.98047 25.9082C5.04492 25.9082 2.06445 27.1387 2.06445 29.2305C2.06445 31.3359 5.03125 32.5527 9.98047 32.5664ZM9.98047 30.5566C6.49414 30.5566 4.26562 29.9961 4.26562 29.2305C4.26562 28.4785 6.50781 27.9043 9.98047 27.9043C13.4668 27.9043 15.7227 28.4785 15.7227 29.2305C15.7227 29.9961 13.4668 30.5566 9.98047 30.5566Z" fill="white" fill-opacity="0.85"/>
 </g>
</svg>
