<svg version="1.1" xmlns="http://www.w3.org/2000/svg" xmlns:xlink="http://www.w3.org/1999/xlink" viewBox="0 0 28.2461 27.9043">
 <g>
  
  <path d="M13.9453 27.8906C21.6426 27.8906 27.8906 21.6289 27.8906 13.9453C27.8906 6.24805 21.6426 0 13.9453 0C6.26172 0 0 6.24805 0 13.9453C0 21.6289 6.26172 27.8906 13.9453 27.8906Z" style="fill:var(--color-0,hsl(0 0 0/0.85))"></path>
  <path d="M10.3359 20.4941C9.73438 20.4941 9.32422 20.1387 9.22852 19.5781L8.17578 14.4375L6.42578 14.4375C6.13867 14.4375 5.93359 14.2324 5.93359 13.9453C5.93359 13.6719 6.13867 13.4805 6.42578 13.4805L7.98438 13.4805L7.01367 8.69531C6.98633 8.54492 6.97266 8.38086 6.97266 8.28516C6.97266 7.82031 7.30078 7.5332 7.7793 7.5332C8.18945 7.5332 8.53125 7.80664 8.58594 8.20312L9.51562 13.4805L11.7305 13.4805L13.0977 8.29883C13.2207 7.82031 13.5215 7.56055 13.959 7.56055C14.4238 7.56055 14.6973 7.80664 14.8066 8.27148L16.1738 13.4805L18.375 13.4805L19.3184 8.20312C19.3867 7.7793 19.7422 7.5332 20.1113 7.5332C20.5352 7.5332 20.918 7.79297 20.918 8.28516C20.918 8.43555 20.9043 8.58594 20.8906 8.68164L19.9199 13.4805L21.4785 13.4805C21.7656 13.4805 21.9707 13.6719 21.9707 13.9453C21.9707 14.2324 21.7656 14.4375 21.4785 14.4375L19.7285 14.4375L18.6758 19.5781C18.5664 20.166 18.1699 20.4941 17.582 20.4941C17.0078 20.4941 16.6387 20.1797 16.4883 19.6055L15.1211 14.4375L12.7695 14.4375L11.4023 19.6055C11.252 20.1523 10.8555 20.4941 10.3359 20.4941ZM9.67969 14.4375L10.377 18.334L10.459 18.334L11.498 14.4375ZM13.0156 13.4805L14.875 13.4805L14 10.1582L13.9043 10.1582ZM16.4199 14.4375L17.4453 18.334L17.5273 18.334L18.2109 14.4375Z" style="fill:var(--color-1,white)"></path>
 </g>
</svg>