<svg version="1.1" xmlns="http://www.w3.org/2000/svg" xmlns:xlink="http://www.w3.org/1999/xlink" viewBox="0 0 33.291 27.4395">
 <g>
  
  <path d="M32.9355 16.4609C32.9355 12.4414 31.4863 8.73633 29.0664 5.86523C28.793 5.53711 28.3281 5.53711 28.0273 5.85156L24.8555 9.02344C24.5957 9.2832 24.582 9.65234 24.8145 9.93945C26.2227 11.7441 27.0703 14.0137 27.0703 16.4609C27.0703 18.9219 26.2227 21.1914 24.7324 23.0918C24.541 23.3242 24.5547 23.625 24.7598 23.8438L28.0137 27.0977C28.3281 27.4121 28.7793 27.4121 29.0664 27.0703C31.4863 24.1992 32.9355 20.4941 32.9355 16.4609Z" style="fill:var(--color-0,hsl(0 0 0/0.85))"></path>
  <path d="M16.4609 5.86523C18.9355 5.86523 21.2051 6.72656 23.0234 8.13477C23.2969 8.35352 23.6523 8.32617 23.9121 8.06641L27.084 4.89453C27.3984 4.58008 27.3848 4.12891 27.0566 3.85547C24.1992 1.44922 20.4941 0 16.4609 0C12.4414 0 8.73633 1.44922 5.87891 3.85547C5.55078 4.12891 5.53711 4.58008 5.85156 4.89453L9.02344 8.06641C9.2832 8.32617 9.65234 8.35352 9.95312 8.12109C11.7578 6.72656 14.0137 5.86523 16.4609 5.86523Z" style="fill:var(--color-1,hsl(0 0 0/0.85))"></path>
  <path d="M0 16.4609C0 20.4941 1.44922 24.1992 3.86914 27.0703C4.14258 27.4121 4.60742 27.4121 4.9082 27.0977L8.16211 23.8438C8.36719 23.625 8.39453 23.3242 8.20312 23.0918C6.71289 21.1914 5.86523 18.9219 5.86523 16.4609C5.86523 14.0137 6.69922 11.7441 8.12109 9.93945C8.33984 9.65234 8.33984 9.2832 8.08008 9.02344L4.9082 5.85156C4.59375 5.53711 4.14258 5.53711 3.86914 5.86523C1.44922 8.73633 0 12.4414 0 16.4609Z" style="fill:var(--color-2,hsl(0 0 0/0.85))"></path>
  <path d="M12.9473 22.9824C13.4531 22.9824 13.8496 22.668 13.9863 22.1484L16.4199 12.9609L16.502 12.9609L18.9219 22.1484C19.0586 22.6816 19.4277 22.9824 19.9746 22.9824C20.5352 22.9824 20.9316 22.6816 21.041 22.1211L23.1738 11.5527C23.2012 11.4434 23.2148 11.293 23.2148 11.1699C23.2148 10.6777 22.8457 10.4453 22.4219 10.4453C22.0801 10.4453 21.7383 10.6641 21.6562 11.0879L19.9199 20.918L19.8379 20.918L17.2949 11.1426C17.1855 10.7051 16.9121 10.459 16.4609 10.459C16.0508 10.459 15.75 10.7188 15.627 11.1699L13.0703 20.918L13.002 20.918L11.2656 11.0879C11.1973 10.6914 10.8828 10.4453 10.4863 10.4453C10.0078 10.4453 9.69336 10.7051 9.69336 11.1562C9.69336 11.252 9.70703 11.4023 9.73438 11.5527L11.8809 22.1211C11.9902 22.6543 12.3867 22.9824 12.9473 22.9824ZM8.68164 16.6387C8.68164 16.9121 8.88672 17.1172 9.16016 17.1172L23.7617 17.1172C24.0215 17.1172 24.2266 16.9121 24.2266 16.6387C24.2266 16.3789 24.0215 16.1875 23.7617 16.1875L9.16016 16.1875C8.88672 16.1875 8.68164 16.3789 8.68164 16.6387Z" style="fill:var(--color-3,hsl(0 0 0/0.85))"></path>
 </g>
</svg>