<?xml version="1.0" encoding="UTF-8"?>
<!--Generator: Apple Native CoreSVG 326-->
<!DOCTYPE svg
PUBLIC "-//W3C//DTD SVG 1.1//EN"
       "http://www.w3.org/Graphics/SVG/1.1/DTD/svg11.dtd">
<svg version="1.1" xmlns="http://www.w3.org/2000/svg" xmlns:xlink="http://www.w3.org/1999/xlink" viewBox="0 0 25.5254 25.1699">
 <g>
  <rect height="25.1699" opacity="0" width="25.5254" x="0" y="0"/>
  <path d="M4.29297 25.1699L20.877 25.1699C23.748 25.1699 25.1699 23.7617 25.1699 20.9453L25.1699 4.23828C25.1699 1.42188 23.748 0 20.877 0L4.29297 0C1.43555 0 0 1.42188 0 4.23828L0 20.9453C0 23.7617 1.43555 25.1699 4.29297 25.1699Z" fill="white" fill-opacity="0.85"/>
  <path d="M8.98242 19.127C8.38086 19.127 7.98438 18.7715 7.875 18.2109L6.82227 13.0703L5.07227 13.0703C4.78516 13.0703 4.58008 12.8652 4.58008 12.5781C4.58008 12.3047 4.78516 12.1133 5.07227 12.1133L6.63086 12.1133L5.66016 7.32812C5.63281 7.17773 5.61914 7.01367 5.61914 6.91797C5.61914 6.45312 5.94727 6.16602 6.42578 6.16602C6.83594 6.16602 7.17773 6.43945 7.23242 6.83594L8.17578 12.1133L10.377 12.1133L11.7441 6.93164C11.8672 6.45312 12.168 6.19336 12.6055 6.19336C13.0703 6.19336 13.3438 6.43945 13.4668 6.9043L14.8203 12.1133L17.0352 12.1133L17.9648 6.83594C18.0469 6.41211 18.4023 6.16602 18.7578 6.16602C19.1816 6.16602 19.5781 6.42578 19.5781 6.91797C19.5781 7.06836 19.5645 7.21875 19.5371 7.31445L18.5664 12.1133L20.125 12.1133C20.4121 12.1133 20.6172 12.3047 20.6172 12.5781C20.6172 12.8652 20.4121 13.0703 20.125 13.0703L18.375 13.0703L17.3223 18.2109C17.2266 18.7988 16.8164 19.127 16.2285 19.127C15.668 19.127 15.2852 18.8125 15.1348 18.2383L13.7676 13.0703L11.416 13.0703L10.0488 18.2383C9.89844 18.7852 9.50195 19.127 8.98242 19.127ZM8.33984 13.0703L9.03711 16.9668L9.10547 16.9668L10.1445 13.0703ZM11.6758 12.1133L13.5352 12.1133L12.6465 8.79102L12.5508 8.79102ZM15.0664 13.0703L16.0918 16.9668L16.1738 16.9668L16.8711 13.0703Z" fill="white"/>
 </g>
</svg>
