<svg version="1.1" xmlns="http://www.w3.org/2000/svg" xmlns:xlink="http://www.w3.org/1999/xlink" viewBox="0 0 33.291 27.3099">
 <g>
  
  <path d="M32.9355 16.3962C32.9355 7.78289 26.3184 0.714533 17.8965 0.00359537C17.459-0.0374203 17.1309 0.277033 17.1309 0.714533L17.1309 5.18524C17.1309 5.55438 17.3906 5.84149 17.7598 5.86883C22.9961 6.51141 27.0703 10.9821 27.0703 16.3962C27.0703 18.8571 26.2227 21.1266 24.7324 23.027C24.541 23.2595 24.5547 23.5602 24.7598 23.779L28.0273 27.0329C28.3281 27.3337 28.793 27.3337 29.0664 27.0055C31.4863 24.1345 32.9355 20.4294 32.9355 16.3962Z" style="fill:var(--color-0,hsl(0 0 0/0.85))"></path>
  <path d="M0 16.3962C0 20.443 1.44922 24.1481 3.86914 27.0192C4.14258 27.3473 4.59375 27.3337 4.9082 27.0329L8.17578 23.779C8.38086 23.5602 8.39453 23.2595 8.20312 23.027C6.69922 21.1266 5.86523 18.8571 5.86523 16.3962C5.86523 10.9821 9.93945 6.51141 15.1758 5.86883C15.5449 5.84149 15.8047 5.55438 15.8047 5.18524L15.8047 0.714533C15.8047 0.277033 15.4766-0.0374203 15.0391 0.00359537C6.61719 0.714533 0 7.78289 0 16.3962Z" style="fill:var(--color-1,hsl(0 0 0/0.85))"></path>
  <path d="M12.9473 22.9177C13.4531 22.9177 13.8496 22.6032 13.9863 22.0837L16.4199 12.8962L16.502 12.8962L18.9219 22.0837C19.0586 22.6169 19.4277 22.9177 19.9746 22.9177C20.5352 22.9177 20.9316 22.6169 21.041 22.0563L23.1738 11.488C23.2012 11.3786 23.2148 11.2282 23.2148 11.1052C23.2148 10.613 22.8457 10.3805 22.4219 10.3805C22.0801 10.3805 21.7383 10.5993 21.6562 11.0231L19.9199 20.8532L19.8379 20.8532L17.2949 11.0778C17.1855 10.6403 16.9121 10.3942 16.4609 10.3942C16.0508 10.3942 15.75 10.654 15.627 11.1052L13.0703 20.8532L13.002 20.8532L11.2656 11.0231C11.1973 10.6266 10.8828 10.3805 10.4863 10.3805C10.0078 10.3805 9.69336 10.6403 9.69336 11.0915C9.69336 11.1872 9.70703 11.3376 9.73438 11.488L11.8809 22.0563C11.9902 22.5895 12.3867 22.9177 12.9473 22.9177ZM8.68164 16.5739C8.68164 16.8473 8.88672 17.0524 9.16016 17.0524L23.7617 17.0524C24.0215 17.0524 24.2266 16.8473 24.2266 16.5739C24.2266 16.3141 24.0215 16.1227 23.7617 16.1227L9.16016 16.1227C8.88672 16.1227 8.68164 16.3141 8.68164 16.5739Z" style="fill:var(--color-2,hsl(0 0 0/0.85))"></path>
 </g>
</svg>