<svg version="1.1" xmlns="http://www.w3.org/2000/svg" xmlns:xlink="http://www.w3.org/1999/xlink" viewBox="0 0 32.8502 33.0074">
 <g>
  
  <path d="M25.927 23.9207L27.1575 24.1121C27.6497 24.1804 28.0872 24.4812 28.3743 24.9051L31.2317 29.1707C31.5052 29.5945 31.5462 30.032 31.2591 30.3328L28.8118 32.7801C28.511 33.0808 28.0872 33.0808 27.6497 32.7937L23.3704 29.8953C22.9602 29.6219 22.6458 29.1844 22.5774 28.6922L22.386 27.4617L16.4205 21.4962C16.7861 21.0234 17.187 20.5255 17.6305 19.9992L24.3001 26.6687L24.5735 28.2L28.0325 30.8113L29.2767 29.5672L26.6653 26.0945L25.1341 25.8347L18.3935 19.107C18.7897 18.651 19.2176 18.1743 19.6813 17.675ZM9.06962 2.97537L17.2263 11.1436C17.3061 11.373 17.4002 11.5988 17.5052 11.8211C17.1108 12.2101 16.7273 12.5813 16.358 12.9298L7.63407 4.20584C6.63603 3.22147 5.56962 3.20779 4.59892 4.19217L2.67118 6.13357C1.68681 7.13162 1.67314 8.17068 2.67118 9.16873L10.9978 17.4953C10.4444 17.9062 9.92541 18.2701 9.43601 18.5972L1.44072 10.5906C-0.473347 8.67654-0.473347 6.62576 1.3997 4.75272L3.21806 2.93436C5.09111 1.06131 7.14189 1.06131 9.06962 2.97537ZM5.14579 7.65115L10.2591 12.7644C10.4642 12.9695 10.4505 13.284 10.2591 13.4754C10.0677 13.6804 9.73954 13.6804 9.53447 13.4754L4.42118 8.38943C4.21611 8.19803 4.22978 7.8699 4.42118 7.65115C4.62626 7.45975 4.96806 7.48709 5.14579 7.65115ZM6.84111 5.96951L11.9544 11.0691C12.1458 11.2605 12.1458 11.575 11.9407 11.8074C11.763 11.9851 11.4075 12.0125 11.2161 11.8074L6.13017 6.68045C5.93876 6.48904 5.92509 6.17459 6.13017 5.96951C6.3079 5.77811 6.63603 5.76443 6.84111 5.96951Z" style="fill:var(--color-0,hsl(0 0 0/0.85))"></path>
  <path d="M2.13798 31.1668C4.51689 33.5183 7.70243 33.5457 10.0403 31.1941C12.9798 28.2273 12.5149 24.8914 21.4837 15.7859C24.4095 17.1668 27.9505 16.7019 30.302 14.364C32.763 11.9031 33.1868 8.02029 31.3548 4.87576L27.636 8.59451C27.2669 8.96365 26.802 8.991 26.4056 8.59451L24.7376 6.91287C24.3411 6.50272 24.3001 6.0242 24.6692 5.65506L28.4017 1.94998C25.2845 0.131622 21.4153 0.541778 18.9544 3.01639C16.6028 5.36795 16.1243 8.89529 17.5052 11.8211C8.41337 20.7898 5.07743 20.325 2.11064 23.2508C-0.254597 25.5887-0.227253 28.7879 2.13798 31.1668ZM20.4309 12.8738C17.9974 10.4402 17.9017 6.58475 20.2259 4.28787C21.5384 2.9617 23.4114 2.4285 25.2024 2.71561L23.22 4.69803C22.2083 5.69607 22.2356 6.98123 23.2884 8.00662L25.3118 10.0164C26.3235 11.0281 27.6224 11.0554 28.5794 10.0847L30.5892 8.06131C30.8899 9.87967 30.3431 11.7527 29.0169 13.0926C26.7063 15.4031 22.8782 15.2937 20.4309 12.8738ZM3.4915 29.8133C1.91923 28.2137 1.94657 26.1765 3.45048 24.659C6.75907 21.3777 8.72782 22.7722 18.4212 13.2976C18.6399 13.5984 18.886 13.8719 19.1458 14.1453C19.4056 14.4051 19.6927 14.6648 19.9934 14.8836C10.5325 24.5769 11.927 26.5457 8.64579 29.8269C7.12822 31.3582 5.07743 31.3719 3.4915 29.8133ZM6.03447 28.9929C6.96415 28.9929 7.72978 28.2273 7.72978 27.2976C7.72978 26.3679 6.96415 25.616 6.03447 25.616C5.10478 25.616 4.35282 26.3679 4.35282 27.2976C4.35282 28.2273 5.10478 28.9929 6.03447 28.9929Z" style="fill:var(--color-1,hsl(0 0 0/0.85))"></path>
 </g>
</svg>