<svg version="1.1" xmlns="http://www.w3.org/2000/svg" xmlns:xlink="http://www.w3.org/1999/xlink" viewBox="0 0 32.1691 32.573">
 <g>
  
  <path d="M1.68123 30.9086C3.93709 33.1644 7.21834 33.1918 9.51521 30.5941C11.9762 27.7777 14.8472 22.4183 18.7711 18.4945C21.8199 15.432 25.2789 18.4125 29.4762 14.393C31.1578 12.7933 32.0875 10.4965 31.7457 8.8285L26.4957 10.264C25.607 10.4965 24.9918 9.93592 24.7183 8.99256L24.3219 7.6117C24.0484 6.66834 24.3765 5.87537 25.2515 5.64295L30.4879 4.22108C30.3375 3.74256 29.8863 3.08631 29.3258 2.51209C26.1676-0.728143 20.8765-0.673455 17.8277 2.21131C13.2613 6.54529 16.7203 11.1254 13.7262 14.1195C10.1441 17.6879 4.78474 20.6137 1.98201 23.0746C-0.629318 25.3578-0.588303 28.639 1.68123 30.9086ZM2.98006 29.5961C1.50349 28.0922 1.51717 25.8637 3.23982 24.3461C6.0699 21.8715 11.7984 18.6586 15.0387 15.4183C18.566 11.891 14.8336 7.48865 19.1539 3.51014C21.5191 1.33631 25.7027 1.33631 28.2047 3.81092L28.6558 2.99061L24.8824 3.97498C22.8863 4.50819 22.0113 6.03944 22.6129 8.11756L22.9957 9.44373C23.6519 11.7543 25.0054 12.3969 26.8375 11.9047L30.734 10.8519L29.9137 10.4144C29.6265 11.3988 29.107 12.3969 28.2457 13.2582C24.8414 16.5805 20.9449 13.723 17.4586 17.182C13.9039 20.7367 10.7183 26.4926 8.24373 29.3363C6.69881 31.1137 4.45662 31.1137 2.98006 29.5961ZM19.3316 13.4769L22.2984 12.684C22.5445 12.6156 22.6949 12.3422 22.6265 12.0824C22.5719 11.8363 22.3121 11.6722 22.0387 11.7543L19.0855 12.5472C18.8258 12.6156 18.689 12.8754 18.7437 13.1215C18.7847 13.4222 19.0719 13.5453 19.3316 13.4769ZM18.9762 11.973L21.9019 11.1937C22.1617 11.1254 22.3258 10.8656 22.2437 10.5785C22.1754 10.3187 21.9019 10.182 21.6558 10.2367L18.7027 11.0433C18.4429 11.098 18.2926 11.3715 18.3609 11.6176C18.4429 11.9047 18.689 12.0551 18.9762 11.973ZM18.607 10.4691L21.5465 9.68983C21.8062 9.62147 21.9566 9.3617 21.8746 9.07459C21.8199 8.81483 21.5465 8.66444 21.3004 8.73279L18.3336 9.52576C18.0738 9.59412 17.9371 9.86756 18.0054 10.1137C18.0738 10.4008 18.3199 10.5512 18.607 10.4691ZM24.7047 15.6781L25.9351 15.4047L24.2262 9.19764L22.9957 9.44373ZM5.55037 28.7347C6.48006 28.7347 7.23201 27.9828 7.23201 27.0531C7.23201 26.1234 6.48006 25.3578 5.55037 25.3578C4.62068 25.3578 3.85506 26.1234 3.85506 27.0531C3.85506 27.9828 4.62068 28.7347 5.55037 28.7347Z" style="fill:var(--color-0,hsl(0 0 0/0.85))"></path>
 </g>
</svg>