<?xml version="1.0" encoding="UTF-8"?>
<!--Generator: Apple Native CoreSVG 326-->
<!DOCTYPE svg
PUBLIC "-//W3C//DTD SVG 1.1//EN"
       "http://www.w3.org/Graphics/SVG/1.1/DTD/svg11.dtd">
<svg version="1.1" xmlns="http://www.w3.org/2000/svg" xmlns:xlink="http://www.w3.org/1999/xlink" viewBox="0 0 25.5254 25.1699">
 <g>
  <rect height="25.1699" opacity="0" width="25.5254" x="0" y="0"/>
  <path d="M4.29297 25.1699L20.877 25.1699C23.748 25.1699 25.1699 23.7617 25.1699 20.9453L25.1699 4.23828C25.1699 1.42188 23.748 0 20.877 0L4.29297 0C1.43555 0 0 1.42188 0 4.23828L0 20.9453C0 23.7617 1.43555 25.1699 4.29297 25.1699ZM4.32031 22.9688C2.95312 22.9688 2.20117 22.2441 2.20117 20.8223L2.20117 4.36133C2.20117 2.93945 2.95312 2.20117 4.32031 2.20117L20.8496 2.20117C22.2031 2.20117 22.9688 2.93945 22.9688 4.36133L22.9688 20.8223C22.9688 22.2441 22.2031 22.9688 20.8496 22.9688Z" fill="white" fill-opacity="0.85"/>
  <path d="M8.53125 18.8398C8.96875 18.8398 9.21484 18.6895 9.55664 18.2109L12.5098 14L12.5645 14L15.5176 18.2109C15.8594 18.6895 16.1055 18.8398 16.543 18.8398C17.1582 18.8398 17.6094 18.4297 17.6094 17.8418C17.6094 17.5684 17.5273 17.3633 17.3496 17.1309L13.918 12.4414L17.377 7.73828C17.5684 7.49219 17.6504 7.27344 17.6504 7.01367C17.6504 6.48047 17.1855 6.05664 16.6113 6.05664C16.1875 6.05664 15.9141 6.2207 15.6133 6.67188L12.7695 10.8828L12.6875 10.8828L9.77539 6.6582C9.46094 6.2207 9.20117 6.05664 8.73633 6.05664C8.14844 6.05664 7.66992 6.52148 7.66992 7.06836C7.66992 7.36914 7.75195 7.56055 7.95703 7.86133L11.2383 12.373L7.76562 17.1855C7.58789 17.4316 7.51953 17.623 7.51953 17.8965C7.51953 18.4297 7.95703 18.8398 8.53125 18.8398Z" fill="white" fill-opacity="0.85"/>
 </g>
</svg>
