<svg version="1.1" xmlns="http://www.w3.org/2000/svg" xmlns:xlink="http://www.w3.org/1999/xlink" viewBox="0 0 28.2461 27.9043">
 <g>
  
  <path d="M13.9453 27.8906C21.6426 27.8906 27.8906 21.6426 27.8906 13.9453C27.8906 6.24805 21.6426 0 13.9453 0C6.24805 0 0 6.24805 0 13.9453C0 21.6426 6.24805 27.8906 13.9453 27.8906ZM13.9453 25.5664C7.51953 25.5664 2.32422 20.3711 2.32422 13.9453C2.32422 7.51953 7.51953 2.32422 13.9453 2.32422C20.3711 2.32422 25.5664 7.51953 25.5664 13.9453C25.5664 20.3711 20.3711 25.5664 13.9453 25.5664Z" style="fill:var(--color-0,hsl(0 0 0/0.85))"></path>
  <path d="M9.87109 20.207C10.3086 20.207 10.541 20.0566 10.8965 19.5781L13.8496 15.3672L13.9043 15.3672L16.8574 19.5781C17.1992 20.0566 17.4453 20.207 17.8691 20.207C18.4844 20.207 18.9492 19.7969 18.9492 19.209C18.9492 18.9355 18.8672 18.7305 18.6895 18.498L15.2578 13.8086L18.7168 9.10547C18.9082 8.85938 18.9766 8.64062 18.9766 8.38086C18.9766 7.84766 18.5254 7.42383 17.9512 7.42383C17.5273 7.42383 17.2539 7.58789 16.9531 8.03906L14.0957 12.25L14.0273 12.25L11.1152 8.02539C10.8008 7.58789 10.541 7.42383 10.0762 7.42383C9.48828 7.42383 9.00977 7.88867 9.00977 8.43555C9.00977 8.73633 9.07812 8.92773 9.29688 9.22852L12.5781 13.7402L9.0918 18.5527C8.92773 18.7988 8.85938 18.9902 8.85938 19.2637C8.85938 19.7969 9.29688 20.207 9.87109 20.207Z" style="fill:var(--color-1,hsl(0 0 0/0.85))"></path>
 </g>
</svg>