<?xml version="1.0" encoding="UTF-8"?>
<!--Generator: Apple Native CoreSVG 326-->
<!DOCTYPE svg
PUBLIC "-//W3C//DTD SVG 1.1//EN"
       "http://www.w3.org/Graphics/SVG/1.1/DTD/svg11.dtd">
<svg version="1.1" xmlns="http://www.w3.org/2000/svg" xmlns:xlink="http://www.w3.org/1999/xlink" viewBox="0 0 31.3669 31.0251">
 <g>
  <rect height="31.0251" opacity="0" width="31.3669" x="0" y="0"/>
  <path d="M1.53307 18.5272L12.4842 29.4784C14.5077 31.5018 16.5038 31.5155 18.5135 29.5194L29.5194 18.4999C31.5155 16.5038 31.5018 14.494 29.4784 12.4706L18.5409 1.53307C16.5174-0.49037 14.5213-0.517714 12.5116 1.49205L1.49205 12.4979C-0.517714 14.5077-0.49037 16.5038 1.53307 18.5272Z" fill="#ff453a"/>
  <path d="M10.912 21.2479C10.2967 21.2479 9.79088 20.7421 9.79088 20.1131C9.79088 19.8124 9.91393 19.5253 10.119 19.3202L13.9198 15.5194L10.119 11.7323C9.91393 11.5135 9.79088 11.2401 9.79088 10.9393C9.79088 10.2967 10.2967 9.81822 10.912 9.81822C11.2401 9.81822 11.4862 9.9276 11.7049 10.1327L15.5194 13.9335L19.3612 10.119C19.5936 9.88658 19.8397 9.79088 20.1405 9.79088C20.7694 9.79088 21.2616 10.2831 21.2616 10.912C21.2616 11.2264 21.1796 11.4725 20.9335 11.7186L17.1327 15.5194L20.9198 19.3065C21.1522 19.5116 21.2479 19.7987 21.2479 20.1131C21.2479 20.7421 20.7557 21.2479 20.1131 21.2479C19.7987 21.2479 19.5116 21.1385 19.3065 20.9198L15.5194 17.119L11.746 20.9198C11.5272 21.1385 11.2401 21.2479 10.912 21.2479Z" fill="white"/>
 </g>
</svg>
