<?xml version="1.0" encoding="UTF-8"?>
<!--Generator: Apple Native CoreSVG 326-->
<!DOCTYPE svg
PUBLIC "-//W3C//DTD SVG 1.1//EN"
       "http://www.w3.org/Graphics/SVG/1.1/DTD/svg11.dtd">
<svg version="1.1" xmlns="http://www.w3.org/2000/svg" xmlns:xlink="http://www.w3.org/1999/xlink" viewBox="0 0 23.3516 29.3262">
 <g>
  <rect height="29.3262" opacity="0" width="23.3516" x="0" y="0"/>
  <path d="M0 25.0332C0 27.8906 1.4082 29.3125 4.23828 29.3125L18.7578 29.3125C21.5879 29.3125 22.9961 27.8906 22.9961 25.0332L22.9961 4.29297C22.9961 1.44922 21.5879 0 18.7578 0L4.23828 0C1.4082 0 0 1.44922 0 4.29297Z" fill="#ff453a"/>
  <path d="M6.9043 20.4121C6.28906 20.4121 5.7832 19.9062 5.7832 19.2637C5.7832 18.9629 5.90625 18.6895 6.11133 18.4707L9.91211 14.6836L6.11133 10.8828C5.90625 10.6641 5.7832 10.3906 5.7832 10.0898C5.7832 9.46094 6.28906 8.96875 6.9043 8.96875C7.23242 8.96875 7.47852 9.0918 7.69727 9.29688L11.5117 13.0977L15.3535 9.2832C15.5859 9.05078 15.832 8.94141 16.1328 8.94141C16.748 8.94141 17.2539 9.44727 17.2539 10.0625C17.2539 10.377 17.1719 10.623 16.9258 10.8691L13.1113 14.6836L16.9121 18.457C17.1445 18.6758 17.2402 18.9492 17.2402 19.2637C17.2402 19.9062 16.7344 20.4121 16.1055 20.4121C15.791 20.4121 15.5039 20.2891 15.2988 20.084L11.5117 16.2695L7.73828 20.084C7.51953 20.2891 7.23242 20.4121 6.9043 20.4121Z" fill="white"/>
 </g>
</svg>
