<?xml version="1.0" encoding="UTF-8"?>
<!--Generator: Apple Native CoreSVG 326-->
<!DOCTYPE svg
PUBLIC "-//W3C//DTD SVG 1.1//EN"
       "http://www.w3.org/Graphics/SVG/1.1/DTD/svg11.dtd">
<svg version="1.1" xmlns="http://www.w3.org/2000/svg" xmlns:xlink="http://www.w3.org/1999/xlink" viewBox="0 0 32.5938 25.1699">
 <g>
  <rect height="25.1699" opacity="0" width="32.5938" x="0" y="0"/>
  <path d="M4.29297 25.1699L27.9453 25.1699C30.8164 25.1699 32.2383 23.7617 32.2383 20.9453L32.2383 4.23828C32.2383 1.42188 30.8164 0 27.9453 0L4.29297 0C1.43555 0 0 1.42188 0 4.23828L0 20.9453C0 23.7617 1.43555 25.1699 4.29297 25.1699Z" fill="#ff453a"/>
  <path d="M11.5391 18.334C10.9102 18.334 10.4043 17.8281 10.4043 17.1992C10.4043 16.8984 10.5273 16.6113 10.7324 16.4062L14.5332 12.6055L10.7324 8.81836C10.5273 8.59961 10.4043 8.32617 10.4043 8.02539C10.4043 7.38281 10.9102 6.9043 11.5391 6.9043C11.8535 6.9043 12.0996 7.01367 12.3184 7.21875L16.1328 11.0195L19.9746 7.20508C20.207 6.97266 20.4531 6.87695 20.7539 6.87695C21.3828 6.87695 21.875 7.36914 21.875 7.99805C21.875 8.3125 21.793 8.55859 21.5469 8.80469L17.7461 12.6055L21.5332 16.3926C21.7656 16.5977 21.8613 16.8848 21.8613 17.1992C21.8613 17.8281 21.3691 18.334 20.7266 18.334C20.4121 18.334 20.125 18.2246 19.9199 18.0059L16.1328 14.2051L12.3594 18.0059C12.1406 18.2246 11.8535 18.334 11.5391 18.334Z" fill="white"/>
 </g>
</svg>
