<svg version="1.1" xmlns="http://www.w3.org/2000/svg" xmlns:xlink="http://www.w3.org/1999/xlink" viewBox="0 0 28.4512 27.0566">
 <g>
  
  <path d="M9.89844 27.043L18.1973 27.043C19.9336 27.043 20.7539 26.4824 21.6562 25.5117L26.9609 19.6602C27.8496 18.6758 28.0957 18.0059 28.0957 16.6523L28.0957 10.4043C28.0957 9.03711 27.8496 8.38086 26.9609 7.39648L21.6562 1.54492C20.7539 0.574219 19.9336 0 18.1973 0L9.89844 0C8.16211 0 7.32812 0.574219 6.43945 1.54492L1.13477 7.39648C0.232422 8.38086 0 9.03711 0 10.4043L0 16.6523C0 18.0059 0.232422 18.6758 1.13477 19.6602L6.43945 25.5117C7.32812 26.4824 8.16211 27.043 9.89844 27.043ZM10.6367 24.8555C9.26953 24.8555 8.87305 24.5547 8.12109 23.7344L3.18555 18.334C2.65234 17.7324 2.5293 17.3906 2.5293 16.3926L2.5293 10.6641C2.5293 9.66602 2.65234 9.32422 3.18555 8.72266L8.12109 3.32227C8.87305 2.48828 9.26953 2.20117 10.6367 2.20117L17.459 2.20117C18.8262 2.20117 19.209 2.48828 19.9746 3.32227L24.8965 8.72266C25.4434 9.32422 25.5664 9.66602 25.5664 10.6641L25.5664 16.3926C25.5664 17.3906 25.4434 17.7324 24.8965 18.334L19.9746 23.7344C19.209 24.5547 18.8262 24.8555 17.459 24.8555Z" style="fill:var(--color-0,#ff3b30)"></path>
  <path d="M9.39258 19.3047C9.69336 19.3047 9.9668 19.1816 10.1719 18.9629L14.0547 15.0801L17.9375 18.9629C18.1426 19.168 18.416 19.3047 18.7305 19.3047C19.332 19.3047 19.8242 18.8125 19.8242 18.1973C19.8242 17.8828 19.7012 17.6367 19.4961 17.418L15.6133 13.5352L19.5098 9.625C19.7285 9.39258 19.8379 9.16016 19.8379 8.85938C19.8379 8.25781 19.3457 7.76562 18.7441 7.76562C18.457 7.76562 18.2109 7.875 17.9785 8.10742L14.0547 12.0039L10.1445 8.12109C9.93945 7.90234 9.69336 7.79297 9.39258 7.79297C8.79102 7.79297 8.29883 8.27148 8.29883 8.87305C8.29883 9.17383 8.4082 9.43359 8.62695 9.63867L12.5098 13.5352L8.62695 17.4316C8.4082 17.6367 8.29883 17.8965 8.29883 18.1973C8.29883 18.8125 8.79102 19.3047 9.39258 19.3047Z" style="fill:var(--color-1,#ff3b30)"></path>
 </g>
</svg>