<?xml version="1.0" encoding="UTF-8"?>
<!--Generator: Apple Native CoreSVG 326-->
<!DOCTYPE svg
PUBLIC "-//W3C//DTD SVG 1.1//EN"
       "http://www.w3.org/Graphics/SVG/1.1/DTD/svg11.dtd">
<svg version="1.1" xmlns="http://www.w3.org/2000/svg" xmlns:xlink="http://www.w3.org/1999/xlink" viewBox="0 0 32.8809 25.1973">
 <g>
  <rect height="25.1973" opacity="0" width="32.8809" x="0" y="0"/>
  <path d="M27.6035 21.123C27.207 23.7754 26.127 25.1973 23.4336 25.1973L9.07812 25.1973C6.39844 25.1973 5.31836 23.7891 4.92188 21.123L2.9668 8.10742L29.5449 8.10742ZM19.6191 11.3613L16.2559 14.6973L12.9199 11.375C12.6875 11.1836 12.4688 11.0469 12.1816 11.0469C11.5801 11.0469 11.0742 11.5254 11.0742 12.1133C11.0742 12.4277 11.2246 12.6738 11.416 12.8652L14.7246 16.2148L11.416 19.5508C11.2246 19.7422 11.0742 19.9883 11.0742 20.3027C11.0742 20.8906 11.5801 21.4102 12.1816 21.4102C12.4688 21.4102 12.7285 21.2598 12.9336 21.0684L16.2559 17.7324L19.5918 21.0684C19.7969 21.2461 20.043 21.4102 20.3574 21.4102C20.9453 21.4102 21.4512 20.8906 21.4512 20.3027C21.4512 19.9746 21.3008 19.7422 21.1094 19.5371L17.8008 16.2148L21.123 12.8516C21.3281 12.6191 21.4648 12.4141 21.4648 12.1133C21.4648 11.5117 20.9727 11.0195 20.3574 11.0195C20.084 11.0195 19.8516 11.1562 19.6191 11.3613ZM32.5254 2.47461L32.5254 3.80078C32.5254 5.33203 31.7461 6.24805 30.2012 6.24805L2.32422 6.24805C0.779297 6.24805 0 5.33203 0 3.80078L0 2.47461C0 0.943359 0.861328 0.0273438 2.32422 0.0273438L30.2012 0.0273438C31.7461 0.0273438 32.5254 0.943359 32.5254 2.47461Z" fill="white" fill-opacity="0.85"/>
 </g>
</svg>
