<?xml version="1.0" encoding="UTF-8"?>
<!--Generator: Apple Native CoreSVG 326-->
<!DOCTYPE svg
PUBLIC "-//W3C//DTD SVG 1.1//EN"
       "http://www.w3.org/Graphics/SVG/1.1/DTD/svg11.dtd">
<svg version="1.1" xmlns="http://www.w3.org/2000/svg" xmlns:xlink="http://www.w3.org/1999/xlink" viewBox="0 0 34.7266 25.9902">
 <g>
  <rect height="25.9902" opacity="0" width="34.7266" x="0" y="0"/>
  <path d="M30.0508 10.5C32.7168 11.6211 34.3711 14.1094 34.3711 16.9805C34.3711 20.7402 31.1445 23.7617 27.0156 23.7617L8.18945 23.7617C3.51367 23.7617 0 20.3848 0 16.3652C0 13.0293 1.92773 10.2676 5.01758 9.77539C5.08594 5.94727 8.75 3.39062 12.1133 4.375C13.7539 1.98242 16.3926 0 20.0977 0C25.6895 0 30.0781 4.40234 30.0508 10.5ZM12.9199 9.33789C12.5371 9.74805 12.4551 10.3496 12.8789 10.7871L15.6816 13.6172L12.8789 16.4473C12.4551 16.8848 12.5098 17.5137 12.9062 17.8828C13.3164 18.2656 13.9316 18.3477 14.3691 17.9238L17.1855 15.1211L20.002 17.9238C20.4531 18.3477 21.082 18.293 21.4648 17.8965C21.834 17.4863 21.9297 16.8848 21.5059 16.4473L18.6895 13.6172L21.5059 10.7871C21.9297 10.3496 21.875 9.7207 21.4648 9.33789C21.0684 8.96875 20.4531 8.87305 20.002 9.31055L17.1855 12.1133L14.3691 9.31055C13.9316 8.88672 13.2891 8.94141 12.9199 9.33789Z" fill="white" fill-opacity="0.85"/>
 </g>
</svg>
