<?xml version="1.0" encoding="UTF-8"?>
<!--Generator: Apple Native CoreSVG 326-->
<!DOCTYPE svg
PUBLIC "-//W3C//DTD SVG 1.1//EN"
       "http://www.w3.org/Graphics/SVG/1.1/DTD/svg11.dtd">
<svg version="1.1" xmlns="http://www.w3.org/2000/svg" xmlns:xlink="http://www.w3.org/1999/xlink" viewBox="0 0 31.3669 31.0251">
 <g>
  <rect height="31.0251" opacity="0" width="31.3669" x="0" y="0"/>
  <path d="M1.53307 18.5272L12.4842 29.4784C14.5077 31.5018 16.5038 31.5155 18.5135 29.5194L29.5194 18.4999C31.5155 16.5038 31.5018 14.494 29.4784 12.4706L18.5409 1.53307C16.5174-0.49037 14.5213-0.517714 12.5116 1.49205L1.49205 12.4979C-0.517714 14.5077-0.49037 16.5038 1.53307 18.5272ZM3.11901 17.0096C2.13463 16.0253 2.12096 14.9999 3.13268 13.9881L13.9881 3.13268C14.9999 2.12096 16.0253 2.13463 17.0096 3.11901L27.8924 14.0018C28.8631 14.9725 28.8905 16.0116 27.8788 17.0233L17.0233 27.8788C16.0116 28.8905 14.9725 28.8631 14.0018 27.9061Z" fill="#ff453a"/>
  <path d="M10.8573 21.2889C11.1581 21.2889 11.4315 21.1659 11.6366 20.9471L15.5194 17.0643L19.4022 20.9471C19.6073 21.1522 19.8807 21.2889 20.1952 21.2889C20.7967 21.2889 21.2889 20.7967 21.2889 20.1815C21.2889 19.8671 21.1659 19.621 20.9608 19.4022L17.078 15.5194L20.9745 11.6092C21.1932 11.3768 21.3026 11.1444 21.3026 10.8436C21.3026 10.2421 20.8104 9.74986 20.2088 9.74986C19.9217 9.74986 19.6756 9.85924 19.4432 10.0917L15.5194 13.9881L11.6092 10.1053C11.4042 9.88658 11.1581 9.77721 10.8573 9.77721C10.2421 9.77721 9.76354 10.2557 9.76354 10.8573C9.76354 11.1581 9.87291 11.4178 10.0917 11.6229L13.9745 15.5194L10.0917 19.4159C9.87291 19.621 9.76354 19.8807 9.76354 20.1815C9.76354 20.7967 10.2421 21.2889 10.8573 21.2889Z" fill="#ff453a"/>
 </g>
</svg>
