<?xml version="1.0" encoding="UTF-8"?>
<!--Generator: Apple Native CoreSVG 326-->
<!DOCTYPE svg
PUBLIC "-//W3C//DTD SVG 1.1//EN"
       "http://www.w3.org/Graphics/SVG/1.1/DTD/svg11.dtd">
<svg version="1.1" xmlns="http://www.w3.org/2000/svg" xmlns:xlink="http://www.w3.org/1999/xlink" viewBox="0 0 31.4009 31.0728">
 <g>
  <rect height="31.0728" opacity="0" width="31.4009" x="0" y="0"/>
  <path d="M7.24439 27.3831L10.1975 27.3831C10.4846 27.3831 10.6897 27.4651 10.8948 27.6702L13.0002 29.762C14.7229 31.4983 16.3225 31.4846 18.0452 29.762L20.1506 27.6702C20.3557 27.4651 20.5608 27.3831 20.8479 27.3831L23.801 27.3831C26.2483 27.3831 27.3831 26.262 27.3831 23.801L27.3831 20.8479C27.3831 20.5608 27.4651 20.3694 27.6702 20.1506L29.7483 18.0452C31.4846 16.3225 31.471 14.7366 29.7483 13.0002L27.6702 10.8948C27.4651 10.6897 27.3831 10.4846 27.3831 10.2112L27.3831 7.24439C27.3831 4.8108 26.262 3.66236 23.801 3.66236L20.8479 3.66236C20.5608 3.66236 20.3557 3.594 20.1506 3.38892L18.0452 1.29712C16.3225-0.439204 14.7229-0.425532 13.0002 1.29712L10.8948 3.38892C10.6897 3.594 10.4846 3.66236 10.1975 3.66236L7.24439 3.66236C4.79712 3.66236 3.66236 4.78345 3.66236 7.24439L3.66236 10.2112C3.66236 10.4846 3.594 10.6897 3.38892 10.8948L1.29712 13.0002C-0.439204 14.7366-0.425532 16.3225 1.29712 18.0452L3.38892 20.1506C3.594 20.3694 3.66236 20.5608 3.66236 20.8479L3.66236 23.801C3.66236 26.2483 4.79712 27.3831 7.24439 27.3831ZM7.24439 25.2092C6.02759 25.2092 5.83619 25.0178 5.83619 23.801L5.83619 20.1233C5.83619 19.7131 5.71314 19.3987 5.41236 19.0979L2.82837 16.5276C1.96705 15.6526 1.96705 15.4065 2.82837 14.5315L5.41236 11.9612C5.71314 11.6604 5.83619 11.346 5.83619 10.9221L5.83619 7.24439C5.83619 6.01392 6.01392 5.83619 7.24439 5.83619L10.9221 5.83619C11.346 5.83619 11.6604 5.72681 11.9612 5.41236L14.5315 2.82837C15.4065 1.96705 15.6526 1.96705 16.5139 2.82837L19.0979 5.41236C19.385 5.72681 19.7131 5.83619 20.1233 5.83619L23.801 5.83619C25.0178 5.83619 25.2092 6.02759 25.2092 7.24439L25.2092 10.9221C25.2092 11.346 25.346 11.6604 25.6467 11.9612L28.2307 14.5315C29.092 15.4065 29.092 15.6526 28.2307 16.5276L25.6467 19.0979C25.346 19.3987 25.2092 19.7131 25.2092 20.1233L25.2092 23.801C25.2092 25.0178 25.0178 25.2092 23.801 25.2092L20.1233 25.2092C19.7131 25.2092 19.385 25.3323 19.0979 25.6467L16.5139 28.2307C15.6526 29.092 15.4065 29.092 14.5315 28.2307L11.9612 25.6467C11.6604 25.3323 11.346 25.2092 10.9221 25.2092Z" fill="white" fill-opacity="0.85"/>
  <path d="M10.8674 21.3127C11.1819 21.3127 11.4553 21.1897 11.6604 20.971L15.5295 17.0881L19.426 20.971C19.6311 21.176 19.8909 21.3127 20.2053 21.3127C20.8069 21.3127 21.2991 20.8069 21.2991 20.2053C21.2991 19.8909 21.1897 19.6448 20.971 19.426L17.0881 15.5432L20.9846 11.6331C21.217 11.4006 21.3127 11.1682 21.3127 10.8674C21.3127 10.2522 20.8206 9.77369 20.219 9.77369C19.9319 9.77369 19.6995 9.88306 19.467 10.1155L15.5295 14.012L11.6331 10.1292C11.428 9.91041 11.1819 9.80103 10.8674 9.80103C10.2659 9.80103 9.77369 10.2659 9.77369 10.8811C9.77369 11.1819 9.89673 11.4417 10.1018 11.6467L13.9846 15.5432L10.1018 19.4397C9.89673 19.6448 9.77369 19.9045 9.77369 20.2053C9.77369 20.8069 10.2659 21.3127 10.8674 21.3127Z" fill="white" fill-opacity="0.85"/>
 </g>
</svg>
