<svg version="1.1" xmlns="http://www.w3.org/2000/svg" xmlns:xlink="http://www.w3.org/1999/xlink" viewBox="0 0 31.4146 31.0728">
 <g>
  
  <path d="M18.0452 1.29712L20.1506 3.38892C20.3694 3.594 20.5608 3.66236 20.8479 3.66236L23.801 3.66236C26.262 3.66236 27.3831 4.8108 27.3831 7.24439L27.3831 10.2112C27.3831 10.4846 27.4651 10.6897 27.6702 10.8948L29.762 13.0002C31.4846 14.7229 31.4983 16.3225 29.762 18.0452L27.6702 20.1506C27.4651 20.3694 27.3831 20.5608 27.3831 20.8479L27.3831 23.801C27.3831 26.262 26.2483 27.3831 23.801 27.3831L20.8479 27.3831C20.5608 27.3831 20.3694 27.4651 20.1506 27.6702L18.0452 29.762C16.3225 31.4846 14.7229 31.4983 13.0002 29.762L10.8948 27.6702C10.6897 27.4651 10.4846 27.3831 10.2112 27.3831L7.24439 27.3831C4.79712 27.3831 3.66236 26.2483 3.66236 23.801L3.66236 20.8479C3.66236 20.5608 3.594 20.3694 3.38892 20.1506L1.29712 18.0452C-0.425532 16.3225-0.439204 14.7229 1.29712 13.0002L3.38892 10.8948C3.594 10.6897 3.66236 10.4846 3.66236 10.2112L3.66236 7.24439C3.66236 4.78345 4.79712 3.66236 7.24439 3.66236L10.2112 3.66236C10.4846 3.66236 10.6897 3.594 10.8948 3.38892L13.0002 1.29712C14.7229-0.425532 16.3225-0.439204 18.0452 1.29712ZM19.3713 10.1428L15.5295 13.9573L11.7151 10.1565C11.4963 9.95142 11.2502 9.84205 10.9358 9.84205C10.3069 9.84205 9.8147 10.3206 9.8147 10.9495C9.8147 11.2502 9.92408 11.5374 10.1428 11.7424L13.9299 15.5432L10.1428 19.3303C9.92408 19.5491 9.8147 19.8225 9.8147 20.1233C9.8147 20.7659 10.3069 21.2717 10.9358 21.2717C11.2502 21.2717 11.5374 21.1624 11.7561 20.9436L15.5295 17.1428L19.3167 20.9436C19.5217 21.1624 19.8088 21.2717 20.1233 21.2717C20.7659 21.2717 21.2717 20.7659 21.2717 20.1233C21.2717 19.8088 21.1624 19.5354 20.9436 19.3167L17.1428 15.5432L20.9573 11.7288C21.1897 11.4963 21.2854 11.2366 21.2854 10.9221C21.2854 10.3069 20.7795 9.8147 20.1506 9.8147C19.8499 9.8147 19.6038 9.91041 19.3713 10.1428Z" style="fill:var(--color-0,hsl(0 0 0/0.85))"></path>
 </g>
</svg>