<svg version="1.1" xmlns="http://www.w3.org/2000/svg" xmlns:xlink="http://www.w3.org/1999/xlink" viewBox="0 0 25.5664 25.2246">
 <g>
  
  <path d="M23.6113 1.61328C22.2168 0.21875 20.248 0 17.9102 0L7.25977 0C4.96289 0 2.99414 0.21875 1.59961 1.61328C0.205078 3.00781 0 4.96289 0 7.25977L0 17.9102C0 20.248 0.205078 22.2031 1.59961 23.5977C2.99414 24.9922 4.96289 25.2109 7.28711 25.2109L17.9102 25.2109C20.248 25.2109 22.2168 24.9922 23.6113 23.5977C25.0059 22.2031 25.2109 20.248 25.2109 17.9102L25.2109 7.28711C25.2109 4.94922 25.0059 3.00781 23.6113 1.61328Z" style="fill:var(--color-0,hsl(0 0 0/0.85))"></path>
  <path d="M7.98438 18.3477C7.36914 18.3477 6.86328 17.8418 6.86328 17.2129C6.86328 16.9121 6.97266 16.625 7.19141 16.4199L10.9922 12.6191L7.19141 8.83203C6.97266 8.61328 6.86328 8.33984 6.86328 8.03906C6.86328 7.39648 7.36914 6.91797 7.98438 6.91797C8.29883 6.91797 8.55859 7.02734 8.76367 7.23242L12.5781 11.0332L16.4199 7.21875C16.6523 6.98633 16.9121 6.89062 17.2129 6.89062C17.8281 6.89062 18.334 7.38281 18.334 8.01172C18.334 8.32617 18.2383 8.57227 18.0059 8.81836L14.1914 12.6191L17.9922 16.4062C18.2109 16.6113 18.3203 16.8984 18.3203 17.2129C18.3203 17.8418 17.8145 18.3477 17.1855 18.3477C16.8711 18.3477 16.5703 18.2383 16.3652 18.0195L12.5781 14.2188L8.80469 18.0195C8.59961 18.2383 8.29883 18.3477 7.98438 18.3477Z" style="fill:var(--color-1,white)"></path>
 </g>
</svg>