<?xml version="1.0" encoding="UTF-8"?>
<!--Generator: Apple Native CoreSVG 326-->
<!DOCTYPE svg
PUBLIC "-//W3C//DTD SVG 1.1//EN"
       "http://www.w3.org/Graphics/SVG/1.1/DTD/svg11.dtd">
<svg version="1.1" xmlns="http://www.w3.org/2000/svg" xmlns:xlink="http://www.w3.org/1999/xlink" viewBox="0 0 22.0357 21.6939">
 <g>
  <rect height="21.6939" opacity="0" width="22.0357" x="0" y="0"/>
  <path d="M0.353778 21.3401C0.832294 21.805 1.62526 21.805 2.09011 21.3401L10.8401 12.5901L19.5901 21.3401C20.055 21.805 20.8616 21.8186 21.3264 21.3401C21.7913 20.8616 21.7913 20.0823 21.3264 19.6175L12.5764 10.8538L21.3264 2.10378C21.7913 1.63893 21.805 0.845966 21.3264 0.381122C20.8479-0.0973935 20.055-0.0973935 19.5901 0.381122L10.8401 9.13112L2.09011 0.381122C1.62526-0.0973935 0.818622-0.111065 0.353778 0.381122C-0.111065 0.859638-0.111065 1.63893 0.353778 2.10378L9.10378 10.8538L0.353778 19.6175C-0.111065 20.0823-0.124737 20.8753 0.353778 21.3401Z" fill="#ff453a"/>
 </g>
</svg>
