<svg version="1.1" xmlns="http://www.w3.org/2000/svg" xmlns:xlink="http://www.w3.org/1999/xlink" viewBox="0 0 23.3516 29.3262">
 <g>
  
  <path d="M0 25.0332C0 27.8906 1.4082 29.3125 4.23828 29.3125L18.7578 29.3125C21.5879 29.3125 22.9961 27.8906 22.9961 25.0332L22.9961 4.29297C22.9961 1.44922 21.5879 0 18.7578 0L4.23828 0C1.4082 0 0 1.44922 0 4.29297ZM2.20117 24.9922L2.20117 4.33398C2.20117 2.9668 2.92578 2.20117 4.34766 2.20117L18.6484 2.20117C20.0703 2.20117 20.7949 2.9668 20.7949 4.33398L20.7949 24.9922C20.7949 26.3594 20.0703 27.1113 18.6484 27.1113L4.34766 27.1113C2.92578 27.1113 2.20117 26.3594 2.20117 24.9922Z" style="fill:var(--color-0,#ff3b30)"></path>
  <path d="M6.84961 20.4395C7.15039 20.4395 7.42383 20.3164 7.62891 20.0977L11.5117 16.2148L15.3945 20.0977C15.5996 20.3027 15.873 20.4395 16.1738 20.4395C16.7891 20.4395 17.2812 19.9473 17.2812 19.332C17.2812 19.0176 17.1582 18.7715 16.9531 18.5527L13.0566 14.6699L16.9668 10.7598C17.1855 10.5273 17.2949 10.2949 17.2949 9.99414C17.2949 9.39258 16.8027 8.90039 16.1875 8.90039C15.9141 8.90039 15.668 9.00977 15.4355 9.24219L11.5117 13.1387L7.60156 9.25586C7.39648 9.03711 7.15039 8.92773 6.84961 8.92773C6.23438 8.92773 5.75586 9.40625 5.75586 10.0078C5.75586 10.3086 5.86523 10.5684 6.08398 10.7734L9.9668 14.6699L6.08398 18.5664C5.86523 18.7715 5.75586 19.0312 5.75586 19.332C5.75586 19.9473 6.23438 20.4395 6.84961 20.4395Z" style="fill:var(--color-1,#ff3b30)"></path>
 </g>
</svg>