<svg version="1.1" xmlns="http://www.w3.org/2000/svg" xmlns:xlink="http://www.w3.org/1999/xlink" viewBox="0 0 25.5664 25.2246">
 <g>
  
  <path d="M23.6113 1.61328C22.2168 0.21875 20.248 0 17.9102 0L7.25977 0C4.96289 0 2.99414 0.21875 1.59961 1.61328C0.205078 3.00781 0 4.96289 0 7.25977L0 17.9102C0 20.248 0.205078 22.2031 1.59961 23.5977C2.99414 24.9922 4.96289 25.2109 7.28711 25.2109L17.9102 25.2109C20.248 25.2109 22.2168 24.9922 23.6113 23.5977C25.0059 22.2031 25.2109 20.248 25.2109 17.9102L25.2109 7.28711C25.2109 4.94922 25.0059 3.00781 23.6113 1.61328ZM23.0098 6.91797L23.0098 18.293C23.0098 19.7012 22.832 21.1641 21.998 21.9844C21.1777 22.8184 19.7012 23.0098 18.293 23.0098L6.91797 23.0098C5.50977 23.0098 4.0332 22.8184 3.19922 21.9844C2.37891 21.1641 2.20117 19.7012 2.20117 18.293L2.20117 6.95898C2.20117 5.50977 2.37891 4.04688 3.19922 3.21289C4.0332 2.39258 5.52344 2.20117 6.95898 2.20117L18.293 2.20117C19.7012 2.20117 21.1777 2.39258 21.998 3.22656C22.832 4.04688 23.0098 5.50977 23.0098 6.91797Z" style="fill:var(--color-0,hsl(0 0 0/0.85))"></path>
  <path d="M7.95703 18.3887C8.25781 18.3887 8.53125 18.2656 8.73633 18.0469L12.6055 14.1641L16.502 18.0469C16.707 18.252 16.9668 18.3887 17.2812 18.3887C17.8965 18.3887 18.3887 17.8965 18.3887 17.2812C18.3887 16.9668 18.2656 16.7207 18.0469 16.502L14.1641 12.6191L18.0605 8.70898C18.293 8.47656 18.4023 8.24414 18.4023 7.94336C18.4023 7.3418 17.9102 6.84961 17.2949 6.84961C17.0078 6.84961 16.7754 6.95898 16.543 7.19141L12.6055 11.0879L8.70898 7.20508C8.50391 6.98633 8.25781 6.87695 7.95703 6.87695C7.3418 6.87695 6.84961 7.35547 6.84961 7.95703C6.84961 8.25781 6.97266 8.51758 7.19141 8.72266L11.0742 12.6191L7.19141 16.5156C6.97266 16.7207 6.84961 16.9805 6.84961 17.2812C6.84961 17.8965 7.3418 18.3887 7.95703 18.3887Z" style="fill:var(--color-1,hsl(0 0 0/0.85))"></path>
 </g>
</svg>