<svg version="1.1" xmlns="http://www.w3.org/2000/svg" xmlns:xlink="http://www.w3.org/1999/xlink" viewBox="0 0 22.7227 27.6035">
 <g>
  
  <path d="M11.1836 27.6035C11.4023 27.6035 11.7441 27.5215 12.0859 27.3438C19.8652 23.2695 22.3672 21.2324 22.3672 16.3242L22.3672 6.01562C22.3672 4.60742 21.7656 4.15625 20.6172 3.67773C19.0176 3.02148 13.9043 1.16211 12.3184 0.615234C11.9492 0.492188 11.5664 0.423828 11.1836 0.423828C10.8008 0.423828 10.418 0.505859 10.0625 0.615234C8.46289 1.13477 3.34961 3.03516 1.75 3.67773C0.615234 4.14258 0 4.60742 0 6.01562L0 16.3242C0 21.2324 2.63867 23.0371 10.2812 27.3438C10.6367 27.5352 10.9648 27.6035 11.1836 27.6035Z" style="fill:var(--color-0,hsl(0 0 0/0.85))"></path>
  <path d="M6.60352 19.25C5.97461 19.25 5.46875 18.7441 5.46875 18.1016C5.46875 17.8008 5.5918 17.5273 5.79688 17.3086L9.59766 13.5215L5.79688 9.7207C5.5918 9.51562 5.46875 9.22852 5.46875 8.92773C5.46875 8.29883 5.97461 7.82031 6.60352 7.82031C6.91797 7.82031 7.16406 7.92969 7.38281 8.13477L11.1973 11.9355L15.0391 8.12109C15.2715 7.88867 15.5176 7.79297 15.8184 7.79297C16.4473 7.79297 16.9395 8.28516 16.9395 8.90039C16.9395 9.21484 16.8574 9.47461 16.6113 9.70703L12.8105 13.5215L16.5977 17.2949C16.8301 17.5137 16.9258 17.7871 16.9258 18.1016C16.9258 18.7441 16.4336 19.25 15.791 19.25C15.4766 19.25 15.1895 19.1406 14.9844 18.9219L11.1973 15.1211L7.42383 18.9219C7.20508 19.1406 6.91797 19.25 6.60352 19.25Z" style="fill:var(--color-1,white)"></path>
 </g>
</svg>