<svg version="1.1" xmlns="http://www.w3.org/2000/svg" xmlns:xlink="http://www.w3.org/1999/xlink" viewBox="0 0 32.5938 19.4824">
 <g>
  
  <path d="M4.29297 19.4824L27.9453 19.4824C30.8027 19.4824 32.2383 18.0742 32.2383 15.2441L32.2383 10.8828C32.2383 9.00977 31.8008 7.80664 30.666 6.6582L26.127 1.96875C24.8008 0.615234 23.6797 0.0136719 21.8613 0.0136719L10.377 0.0136719C8.57227 0.0136719 7.4375 0.615234 6.125 1.96875L1.57227 6.6582C0.451172 7.80664 0 9.00977 0 10.8828L0 15.2441C0 18.0742 1.43555 19.4824 4.29297 19.4824ZM4.32031 17.2812C2.95312 17.2812 2.20117 16.5566 2.20117 15.1348L2.20117 12.4688C2.20117 11.6211 2.58398 11.2246 3.41797 11.2246L28.8203 11.2246C29.6543 11.2246 30.0371 11.6211 30.0371 12.4688L30.0371 15.1348C30.0371 16.5566 29.2852 17.2812 27.918 17.2812ZM3.22656 9.22852C2.74805 9.22852 2.61133 8.79102 2.89844 8.50391L7.91602 3.18555C8.76367 2.29688 9.36523 2.00977 10.4863 2.00977L21.752 2.00977C22.873 2.00977 23.4746 2.29688 24.3223 3.18555L29.3535 8.50391C29.627 8.79102 29.5039 9.22852 29.0117 9.22852ZM5.26367 15.5449C5.98828 15.5449 6.60352 14.9434 6.60352 14.2051C6.60352 13.4805 5.98828 12.8789 5.26367 12.8789C4.52539 12.8789 3.92383 13.4805 3.92383 14.2051C3.92383 14.9434 4.52539 15.5449 5.26367 15.5449ZM8.99609 15.9551C9.41992 15.9551 9.78906 15.627 9.78906 15.2168L9.78906 13.3027C9.78906 12.8789 9.41992 12.5508 8.99609 12.5508C8.58594 12.5508 8.25781 12.8789 8.25781 13.3027L8.25781 15.2168C8.25781 15.627 8.58594 15.9551 8.99609 15.9551ZM11.6211 15.9551C12.0449 15.9551 12.4141 15.627 12.4141 15.2168L12.4141 13.3027C12.4141 12.8789 12.0449 12.5508 11.6211 12.5508C11.2109 12.5508 10.8828 12.8789 10.8828 13.3027L10.8828 15.2168C10.8828 15.627 11.2109 15.9551 11.6211 15.9551ZM14.5195 15.0391C14.9707 15.0391 15.3398 14.6699 15.3398 14.2051C15.3398 13.7539 14.9707 13.3848 14.5195 13.3848C14.0684 13.3848 13.6992 13.7539 13.6992 14.2051C13.6992 14.6699 14.0684 15.0391 14.5195 15.0391ZM17.4316 15.9551C17.8418 15.9551 18.1699 15.627 18.1699 15.2168L18.1699 13.3027C18.1699 12.8789 17.8418 12.5508 17.4316 12.5508C17.0078 12.5508 16.6387 12.8789 16.6387 13.3027L16.6387 15.2168C16.6387 15.627 17.0078 15.9551 17.4316 15.9551ZM20.0566 15.9551C20.4805 15.9551 20.7949 15.627 20.7949 15.2168L20.7949 13.3027C20.7949 12.8789 20.4805 12.5508 20.0566 12.5508C19.6328 12.5508 19.2773 12.8789 19.2773 13.3027L19.2773 15.2168C19.2773 15.627 19.6328 15.9551 20.0566 15.9551ZM23.2559 15.0254L27.6719 15.0254C28.0957 15.0254 28.4238 14.6562 28.4238 14.2324C28.4238 13.8223 28.0957 13.4941 27.6719 13.4941L23.2559 13.4941C22.8457 13.4941 22.5176 13.8223 22.5176 14.2324C22.5176 14.6562 22.8457 15.0254 23.2559 15.0254Z" style="fill:var(--color-0,hsl(0 0 0/0.85))"></path>
 </g>
</svg>