<?xml version="1.0" encoding="UTF-8"?>
<!--Generator: Apple Native CoreSVG 326-->
<!DOCTYPE svg
PUBLIC "-//W3C//DTD SVG 1.1//EN"
       "http://www.w3.org/Graphics/SVG/1.1/DTD/svg11.dtd">
<svg version="1.1" xmlns="http://www.w3.org/2000/svg" xmlns:xlink="http://www.w3.org/1999/xlink" viewBox="0 0 25.5254 25.1699">
 <g>
  <rect height="25.1699" opacity="0" width="25.5254" x="0" y="0"/>
  <path d="M4.29297 25.1699L20.877 25.1699C23.748 25.1699 25.1699 23.7617 25.1699 20.9453L25.1699 4.23828C25.1699 1.42188 23.748 0 20.877 0L4.29297 0C1.43555 0 0 1.42188 0 4.23828L0 20.9453C0 23.7617 1.43555 25.1699 4.29297 25.1699Z" fill="white" fill-opacity="0.85"/>
  <path d="M12.5918 19.0449C11.8672 19.0449 11.4707 18.5254 11.4707 17.7598L11.4707 14.123L7.49219 7.50586C7.35547 7.27344 7.30078 7.05469 7.30078 6.84961C7.30078 6.30273 7.75195 5.85156 8.33984 5.85156C8.8457 5.85156 9.11914 6.0293 9.41992 6.5625L12.5645 11.9766L12.6602 11.9766L15.8184 6.5625C16.1055 6.04297 16.3789 5.85156 16.8574 5.85156C17.459 5.85156 17.8828 6.28906 17.8828 6.87695C17.8828 7.06836 17.8281 7.30078 17.6914 7.50586L13.7402 14.0957L13.7402 17.7598C13.7402 18.5664 13.3301 19.0449 12.5918 19.0449Z" fill="white"/>
 </g>
</svg>
