<svg version="1.1" xmlns="http://www.w3.org/2000/svg" xmlns:xlink="http://www.w3.org/1999/xlink" viewBox="0 0 28.2461 27.9043">
 <g>
  
  <path d="M13.9453 27.8906C21.6426 27.8906 27.8906 21.6289 27.8906 13.9453C27.8906 6.24805 21.6426 0 13.9453 0C6.26172 0 0 6.24805 0 13.9453C0 21.6289 6.26172 27.8906 13.9453 27.8906Z" style="fill:var(--color-0,hsl(0 0 0/0.85))"></path>
  <path d="M13.9453 20.4121C13.2207 20.4121 12.8242 19.8926 12.8242 19.127L12.8242 15.4902L8.8457 8.87305C8.70898 8.64062 8.6543 8.42188 8.6543 8.2168C8.6543 7.66992 9.10547 7.21875 9.69336 7.21875C10.1992 7.21875 10.4727 7.39648 10.7734 7.92969L13.918 13.3438L14 13.3438L17.1719 7.92969C17.459 7.41016 17.7188 7.21875 18.2109 7.21875C18.8125 7.21875 19.2363 7.65625 19.2363 8.24414C19.2363 8.43555 19.1816 8.66797 19.0449 8.87305L15.0938 15.4629L15.0938 19.127C15.0938 19.9336 14.6836 20.4121 13.9453 20.4121Z" style="fill:var(--color-1,white)"></path>
 </g>
</svg>