<?xml version="1.0" encoding="UTF-8"?>
<!--Generator: Apple Native CoreSVG 326-->
<!DOCTYPE svg
PUBLIC "-//W3C//DTD SVG 1.1//EN"
       "http://www.w3.org/Graphics/SVG/1.1/DTD/svg11.dtd">
<svg version="1.1" xmlns="http://www.w3.org/2000/svg" xmlns:xlink="http://www.w3.org/1999/xlink" viewBox="0 0 30.8848 29.1895">
 <g>
  <rect height="29.1895" opacity="0" width="30.8848" x="0" y="0"/>
  <path d="M1.81836 25.9219L28.7109 25.9219L28.7109 25.0059C28.7109 24.459 28.3965 24.1309 27.8359 24.1309L26.9609 24.1309L26.9609 9.37891L28.1641 9.37891C28.916 9.37891 29.3535 8.83203 29.3535 8.27148C29.3535 7.86133 29.1211 7.50586 28.6152 7.21875L16.9395 0.478516C16.3926 0.164062 15.8184 0 15.2578 0C14.6973 0 14.1094 0.164062 13.5898 0.478516L1.91406 7.21875C1.39453 7.50586 1.17578 7.86133 1.17578 8.27148C1.17578 8.83203 1.61328 9.37891 2.36523 9.37891L3.56836 9.37891L3.56836 24.1309L2.70703 24.1309C2.14648 24.1309 1.81836 24.459 1.81836 25.0059ZM5.63281 24.1309L5.63281 7.62891L14.7246 2.5293C14.8887 2.43359 15.0801 2.37891 15.2578 2.37891C15.4355 2.37891 15.627 2.43359 15.8047 2.5293L24.8965 7.62891L24.8965 24.1309ZM1.09375 29.1758L29.4219 29.1758C30.0234 29.1758 30.5293 28.6699 30.5293 28.0684C30.5293 27.4668 30.0234 26.9746 29.4219 26.9746L1.09375 26.9746C0.492188 26.9746 0 27.4668 0 28.0684C0 28.6699 0.492188 29.1758 1.09375 29.1758Z" fill="white" fill-opacity="0.85"/>
  <path d="M15.2715 20.7949C15.7363 20.7949 16.0645 20.4668 16.0645 19.9746L16.0645 15.5039L19.9609 9.22852C20.084 9.02344 20.125 8.92773 20.125 8.70898C20.125 8.27148 19.7695 7.98438 19.332 7.98438C19.0449 7.98438 18.7852 8.13477 18.6211 8.43555L15.3125 14.0547L15.2441 14.0547L11.9355 8.43555C11.7715 8.13477 11.5664 7.9707 11.2109 7.9707C10.7598 7.9707 10.418 8.25781 10.418 8.70898C10.418 8.85938 10.4727 9.03711 10.5957 9.24219L14.4785 15.5039L14.4785 19.9746C14.4785 20.4668 14.8066 20.7949 15.2715 20.7949ZM11.3477 15.1895C11.3477 15.4492 11.5527 15.6543 11.8125 15.6543L18.7715 15.6543C19.0312 15.6543 19.2363 15.4492 19.2363 15.1895C19.2363 14.9297 19.0312 14.7246 18.7715 14.7246L11.8125 14.7246C11.5527 14.7246 11.3477 14.9297 11.3477 15.1895ZM11.3477 17.5547C11.3477 17.8145 11.5527 18.0195 11.8125 18.0195L18.7715 18.0195C19.0312 18.0195 19.2363 17.8145 19.2363 17.5547C19.2363 17.2949 19.0312 17.0898 18.7715 17.0898L11.8125 17.0898C11.5527 17.0898 11.3477 17.2949 11.3477 17.5547Z" fill="white" fill-opacity="0.85"/>
 </g>
</svg>
