<?xml version="1.0" encoding="UTF-8"?>
<!--Generator: Apple Native CoreSVG 326-->
<!DOCTYPE svg
PUBLIC "-//W3C//DTD SVG 1.1//EN"
       "http://www.w3.org/Graphics/SVG/1.1/DTD/svg11.dtd">
<svg version="1.1" xmlns="http://www.w3.org/2000/svg" xmlns:xlink="http://www.w3.org/1999/xlink" viewBox="0 0 33.291 27.4395">
 <g>
  <rect height="27.4395" opacity="0" width="33.291" x="0" y="0"/>
  <path d="M32.9355 16.4609C32.9355 12.4414 31.4863 8.73633 29.0664 5.86523C28.793 5.53711 28.3281 5.53711 28.0273 5.85156L24.8555 9.02344C24.5957 9.2832 24.582 9.65234 24.8145 9.93945C26.2227 11.7441 27.0703 14.0137 27.0703 16.4609C27.0703 18.9219 26.2227 21.1914 24.7324 23.0918C24.541 23.3242 24.5547 23.625 24.7598 23.8438L28.0137 27.0977C28.3281 27.4121 28.7793 27.4121 29.0664 27.0703C31.4863 24.1992 32.9355 20.4941 32.9355 16.4609Z" fill="white" fill-opacity="0.85"/>
  <path d="M16.4609 5.86523C18.9355 5.86523 21.2051 6.72656 23.0234 8.13477C23.2969 8.35352 23.6523 8.32617 23.9121 8.06641L27.084 4.89453C27.3984 4.58008 27.3848 4.12891 27.0566 3.85547C24.1992 1.44922 20.4941 0 16.4609 0C12.4414 0 8.73633 1.44922 5.87891 3.85547C5.55078 4.12891 5.53711 4.58008 5.85156 4.89453L9.02344 8.06641C9.2832 8.32617 9.65234 8.35352 9.95312 8.12109C11.7578 6.72656 14.0137 5.86523 16.4609 5.86523Z" fill="white" fill-opacity="0.85"/>
  <path d="M0 16.4609C0 20.4941 1.44922 24.1992 3.86914 27.0703C4.14258 27.4121 4.60742 27.4121 4.9082 27.0977L8.16211 23.8438C8.36719 23.625 8.39453 23.3242 8.20312 23.0918C6.71289 21.1914 5.86523 18.9219 5.86523 16.4609C5.86523 14.0137 6.69922 11.7441 8.12109 9.93945C8.33984 9.65234 8.33984 9.2832 8.08008 9.02344L4.9082 5.85156C4.59375 5.53711 4.14258 5.53711 3.86914 5.86523C1.44922 8.73633 0 12.4414 0 16.4609Z" fill="white" fill-opacity="0.85"/>
  <path d="M16.4473 23.0508C16.9258 23.0508 17.2402 22.7227 17.2402 22.2305L17.2402 17.7598L21.1367 11.4844C21.2598 11.2793 21.3008 11.1836 21.3008 10.9648C21.3008 10.5273 20.959 10.2402 20.5215 10.2402C20.2207 10.2402 19.9746 10.4043 19.7969 10.6914L16.4883 16.3105L16.4336 16.3105L13.125 10.6914C12.9473 10.4043 12.7559 10.2266 12.3867 10.2266C11.9492 10.2266 11.6074 10.5137 11.6074 10.9648C11.6074 11.1152 11.6484 11.293 11.7715 11.498L15.668 17.7598L15.668 22.2305C15.668 22.7227 15.9824 23.0508 16.4473 23.0508ZM12.5234 17.4453C12.5234 17.7051 12.7285 17.9102 12.9883 17.9102L19.9473 17.9102C20.207 17.9102 20.4121 17.7051 20.4121 17.4453C20.4121 17.1855 20.207 16.9805 19.9473 16.9805L12.9883 16.9805C12.7285 16.9805 12.5234 17.1855 12.5234 17.4453ZM12.5234 19.8105C12.5234 20.0703 12.7285 20.2754 12.9883 20.2754L19.9473 20.2754C20.207 20.2754 20.4121 20.0703 20.4121 19.8105C20.4121 19.5508 20.207 19.3457 19.9473 19.3457L12.9883 19.3457C12.7285 19.3457 12.5234 19.5508 12.5234 19.8105Z" fill="white" fill-opacity="0.85"/>
 </g>
</svg>
