<svg version="1.1" xmlns="http://www.w3.org/2000/svg" xmlns:xlink="http://www.w3.org/1999/xlink" viewBox="0 0 29.0117 26.127">
 <g>
  
  <path d="M3.73242 0C1.4082 0 0 1.62695 0 3.71875C0 4.34766 0.164062 5.00391 0.533203 5.63281L11.1426 24.1172C11.8398 25.3477 13.0703 25.9766 14.3281 25.9766C15.5859 25.9766 16.8027 25.3477 17.5137 24.1172L28.123 5.63281C28.4648 5.01758 28.6562 4.34766 28.6562 3.71875C28.6562 1.62695 27.248 0 24.9238 0ZM3.74609 2.16016L24.8965 2.16016C25.8398 2.16016 26.4414 2.89844 26.4414 3.71875C26.4414 3.99219 26.373 4.29297 26.2227 4.58008L15.627 23.0781C15.3398 23.584 14.834 23.8027 14.3281 23.8027C13.8223 23.8027 13.3027 23.584 13.0156 23.0781L2.41992 4.59375C2.26953 4.30664 2.21484 3.99219 2.21484 3.71875C2.21484 2.89844 2.78906 2.16016 3.74609 2.16016Z" style="fill:var(--color-0,#ff3b30)"></path>
  <path d="M5.70117 4.16992C5.14062 4.16992 4.8125 4.68945 5.11328 5.20898L13.7266 20.2617C14.0137 20.7676 14.6289 20.7676 14.916 20.2617L23.5293 5.20898C23.8164 4.70312 23.502 4.16992 22.9414 4.16992Z" style="fill:var(--color-1,#ff3b30)"></path>
 </g>
</svg>