<?xml version="1.0" encoding="UTF-8"?>
<!--Generator: Apple Native CoreSVG 326-->
<!DOCTYPE svg
PUBLIC "-//W3C//DTD SVG 1.1//EN"
       "http://www.w3.org/Graphics/SVG/1.1/DTD/svg11.dtd">
<svg version="1.1" xmlns="http://www.w3.org/2000/svg" xmlns:xlink="http://www.w3.org/1999/xlink" viewBox="0 0 28.2461 27.9043">
 <g>
  <rect height="27.9043" opacity="0" width="28.2461" x="0" y="0"/>
  <path d="M13.9453 27.8906C21.6426 27.8906 27.8906 21.6426 27.8906 13.9453C27.8906 6.24805 21.6426 0 13.9453 0C6.24805 0 0 6.24805 0 13.9453C0 21.6426 6.24805 27.8906 13.9453 27.8906ZM13.9453 25.5664C7.51953 25.5664 2.32422 20.3711 2.32422 13.9453C2.32422 7.51953 7.51953 2.32422 13.9453 2.32422C20.3711 2.32422 25.5664 7.51953 25.5664 13.9453C25.5664 20.3711 20.3711 25.5664 13.9453 25.5664Z" fill="white" fill-opacity="0.85"/>
  <path d="M9.99414 20.043L18.0059 20.043C18.5254 20.043 18.9219 19.7012 18.9219 19.1543C18.9219 18.5938 18.5254 18.252 18.0059 18.252L11.8672 18.252L11.8672 18.1426L18.1426 9.43359C18.416 9.06445 18.4707 8.87305 18.4707 8.55859C18.4707 7.98438 18.0605 7.58789 17.459 7.58789L9.87109 7.58789C9.35156 7.58789 8.96875 7.92969 8.96875 8.47656C8.96875 9.03711 9.35156 9.37891 9.87109 9.37891L15.668 9.37891L15.668 9.48828L9.37891 18.1973C9.07812 18.6211 9.00977 18.8125 9.00977 19.1133C9.00977 19.6602 9.40625 20.043 9.99414 20.043Z" fill="white" fill-opacity="0.85"/>
 </g>
</svg>
