<svg version="1.1" xmlns="http://www.w3.org/2000/svg" xmlns:xlink="http://www.w3.org/1999/xlink" viewBox="0 0 25.5254 25.1699">
 <g>
  
  <path d="M4.29297 25.1699L20.877 25.1699C23.748 25.1699 25.1699 23.7617 25.1699 20.9453L25.1699 4.23828C25.1699 1.42188 23.748 0 20.877 0L4.29297 0C1.43555 0 0 1.42188 0 4.23828L0 20.9453C0 23.7617 1.43555 25.1699 4.29297 25.1699ZM4.32031 22.9688C2.95312 22.9688 2.20117 22.2441 2.20117 20.8223L2.20117 4.36133C2.20117 2.93945 2.95312 2.20117 4.32031 2.20117L20.8496 2.20117C22.2031 2.20117 22.9688 2.93945 22.9688 4.36133L22.9688 20.8223C22.9688 22.2441 22.2031 22.9688 20.8496 22.9688Z" style="fill:var(--color-0,hsl(0 0 0/0.85))"></path>
  <path d="M8.6543 18.6758L16.666 18.6758C17.1992 18.6758 17.582 18.334 17.582 17.7871C17.582 17.2266 17.1992 16.8848 16.666 16.8848L10.5273 16.8848L10.5273 16.7754L16.8027 8.06641C17.0762 7.69727 17.1309 7.50586 17.1309 7.19141C17.1309 6.61719 16.7207 6.2207 16.1328 6.2207L8.54492 6.2207C8.01172 6.2207 7.62891 6.5625 7.62891 7.10938C7.62891 7.66992 8.01172 8.01172 8.54492 8.01172L14.3281 8.01172L14.3281 8.12109L8.03906 16.8301C7.75195 17.2539 7.66992 17.4453 7.66992 17.7461C7.66992 18.293 8.08008 18.6758 8.6543 18.6758Z" style="fill:var(--color-1,hsl(0 0 0/0.85))"></path>
 </g>
</svg>