<?xml version="1.0" encoding="UTF-8"?>
<!--Generator: Apple Native CoreSVG 326-->
<!DOCTYPE svg
PUBLIC "-//W3C//DTD SVG 1.1//EN"
       "http://www.w3.org/Graphics/SVG/1.1/DTD/svg11.dtd">
<svg version="1.1" xmlns="http://www.w3.org/2000/svg" xmlns:xlink="http://www.w3.org/1999/xlink" viewBox="0 0 31.8965 23.8574">
 <g>
  <rect height="23.8574" opacity="0" width="31.8965" x="0" y="0"/>
  <path d="M11.4707 0C3.54102 0 0 3.65039 0 11.1152L0 19.6875C0 22.4492 1.42188 23.8438 4.19727 23.8438L27.3438 23.8438C30.1191 23.8438 31.541 22.4355 31.541 19.6875L31.541 11.1152C31.541 3.65039 28 0 20.0703 0ZM11.4707 2.20117L20.0566 2.20117C26.5234 2.20117 29.3398 5.00391 29.3398 10.9648L29.3398 19.5781C29.3398 20.9453 28.6016 21.6426 27.2891 21.6426L4.25195 21.6426C2.91211 21.6426 2.20117 20.9453 2.20117 19.5781L2.20117 10.9648C2.20117 5.00391 5.01758 2.20117 11.4707 2.20117Z" fill="white" fill-opacity="0.85"/>
  <path d="M9.88477 17.5137L14.7793 17.5137C15.2305 17.5137 15.6133 17.1309 15.6133 16.6797C15.6133 16.2285 15.2305 15.8457 14.7793 15.8457L11.1152 15.8457L11.1152 15.7637L15.2031 8.20312C15.3398 7.94336 15.4355 7.72461 15.4355 7.39648C15.4355 6.82227 15.0391 6.42578 14.4375 6.42578L9.7207 6.42578C9.26953 6.42578 8.88672 6.80859 8.88672 7.25977C8.88672 7.71094 9.26953 8.09375 9.7207 8.09375L13.2344 8.09375L13.2344 8.17578L9.10547 15.75C8.94141 16.0371 8.88672 16.2559 8.88672 16.5703C8.88672 17.1719 9.29688 17.5137 9.88477 17.5137ZM18.3477 17.4727L22.2715 17.4727C22.7363 17.4727 23.1055 17.0898 23.1055 16.6387C23.1055 16.1875 22.7363 15.8047 22.2715 15.8047L19.3457 15.8047L19.3457 7.23242C19.3457 6.68555 18.8945 6.23438 18.3613 6.23438C17.8281 6.23438 17.377 6.68555 17.377 7.23242L17.377 16.4336C17.377 17.0762 17.7188 17.4727 18.3477 17.4727Z" fill="white" fill-opacity="0.85"/>
 </g>
</svg>
