<?xml version="1.0" encoding="UTF-8"?>
<!--Generator: Apple Native CoreSVG 326-->
<!DOCTYPE svg
PUBLIC "-//W3C//DTD SVG 1.1//EN"
       "http://www.w3.org/Graphics/SVG/1.1/DTD/svg11.dtd">
<svg version="1.1" xmlns="http://www.w3.org/2000/svg" xmlns:xlink="http://www.w3.org/1999/xlink" viewBox="0 0 31.8965 23.8574">
 <g>
  <rect height="23.8574" opacity="0" width="31.8965" x="0" y="0"/>
  <path d="M11.4707 0C3.54102 0 0 3.65039 0 11.1152L0 19.6875C0 22.4492 1.42188 23.8438 4.19727 23.8438L27.3438 23.8438C30.1191 23.8438 31.541 22.4355 31.541 19.6875L31.541 11.1152C31.541 3.65039 28 0 20.0703 0Z" fill="white" fill-opacity="0.85"/>
  <path d="M9.93945 17.4727C9.35156 17.4727 8.94141 17.1309 8.94141 16.5293C8.94141 16.2285 9.00977 15.9961 9.16016 15.7227L13.248 8.2168L13.248 8.14844L9.78906 8.14844C9.32422 8.14844 8.94141 7.76562 8.94141 7.31445C8.94141 6.86328 9.32422 6.49414 9.78906 6.49414L14.4512 6.49414C15.0527 6.49414 15.4492 6.87695 15.4492 7.45117C15.4492 7.7793 15.3398 7.98438 15.2031 8.24414L11.1562 15.7227L11.1562 15.8184L14.793 15.8184C15.2441 15.8184 15.627 16.2012 15.627 16.6387C15.627 17.0898 15.2441 17.4727 14.793 17.4727ZM18.334 17.4316C17.7188 17.4316 17.3633 17.0352 17.3633 16.3926L17.3633 7.28711C17.3633 6.74023 17.8145 6.28906 18.3613 6.28906C18.8809 6.28906 19.332 6.74023 19.332 7.28711L19.332 15.7637L22.2305 15.7637C22.6816 15.7637 23.0645 16.1465 23.0645 16.5977C23.0645 17.0488 22.6816 17.4316 22.2305 17.4316Z" fill="white"/>
 </g>
</svg>
