<svg version="1.1" xmlns="http://www.w3.org/2000/svg" xmlns:xlink="http://www.w3.org/1999/xlink" viewBox="0 0 31.8965 23.8574">
 <g>
  
  <path d="M11.4707 0C3.54102 0 0 3.65039 0 11.1152L0 19.6875C0 22.4492 1.42188 23.8438 4.19727 23.8438L27.3438 23.8438C30.1191 23.8438 31.541 22.4355 31.541 19.6875L31.541 11.1152C31.541 3.65039 28 0 20.0703 0ZM11.4707 2.20117L20.0566 2.20117C26.5234 2.20117 29.3398 5.00391 29.3398 10.9648L29.3398 19.5781C29.3398 20.9453 28.6016 21.6426 27.2891 21.6426L4.25195 21.6426C2.91211 21.6426 2.20117 20.9453 2.20117 19.5781L2.20117 10.9648C2.20117 5.00391 5.01758 2.20117 11.4707 2.20117Z" style="fill:var(--color-0,hsl(0 0 0/0.85))"></path>
  <path d="M8.99609 17.5137L13.9043 17.5137C14.3555 17.5137 14.7246 17.1309 14.7246 16.6797C14.7246 16.2285 14.3555 15.8457 13.9043 15.8457L10.2266 15.8457L10.2266 15.7637L14.3145 8.20312C14.4512 7.94336 14.5469 7.72461 14.5469 7.39648C14.5469 6.82227 14.1504 6.42578 13.5488 6.42578L8.83203 6.42578C8.38086 6.42578 7.99805 6.80859 7.99805 7.25977C7.99805 7.71094 8.38086 8.09375 8.83203 8.09375L12.3457 8.09375L12.3457 8.17578L8.2168 15.75C8.05273 16.0371 7.99805 16.2559 7.99805 16.5703C7.99805 17.1719 8.42188 17.5137 8.99609 17.5137ZM17.5137 17.6504C18.1152 17.6504 18.498 17.2402 18.498 16.5977L18.498 13.2344L19.7969 13.2344L21.2188 16.8164C21.4238 17.3359 21.7246 17.6504 22.2715 17.6504C22.709 17.6504 23.2012 17.377 23.2012 16.6797C23.2012 16.5156 23.1191 16.2422 22.9824 15.9277L21.6836 12.8242C22.791 12.25 23.2559 11.0742 23.2559 9.83008C23.2559 7.60156 21.9434 6.41211 19.8105 6.41211L17.4863 6.41211C16.8438 6.41211 16.4883 6.80859 16.4883 7.45117L16.4883 16.5977C16.4883 17.2266 16.8574 17.6504 17.5137 17.6504ZM18.498 11.7715L18.498 7.99805L19.6191 7.99805C20.6719 7.99805 21.2461 8.77734 21.2461 9.87109C21.2461 10.9648 20.7402 11.7715 19.6328 11.7715Z" style="fill:var(--color-1,hsl(0 0 0/0.85))"></path>
 </g>
</svg>