<svg version="1.1" xmlns="http://www.w3.org/2000/svg" xmlns:xlink="http://www.w3.org/1999/xlink" viewBox="0 0 31.8965 23.8574">
 <g>
  
  <path d="M11.4707 0C3.54102 0 0 3.65039 0 11.1152L0 19.6875C0 22.4492 1.42188 23.8438 4.19727 23.8438L27.3438 23.8438C30.1191 23.8438 31.541 22.4355 31.541 19.6875L31.541 11.1152C31.541 3.65039 28 0 20.0703 0Z" style="fill:var(--color-0,hsl(0 0 0/0.85))"></path>
  <path d="M9.06445 17.4727C8.47656 17.4727 8.06641 17.1309 8.06641 16.5293C8.06641 16.2148 8.12109 15.9961 8.28516 15.7227L12.3867 8.2168L12.3867 8.14844L8.90039 8.14844C8.44922 8.14844 8.06641 7.76562 8.06641 7.30078C8.06641 6.84961 8.44922 6.48047 8.90039 6.48047L13.5762 6.48047C14.1641 6.48047 14.5605 6.86328 14.5605 7.45117C14.5605 7.7793 14.4648 7.98438 14.3418 8.24414L10.2949 15.7227L10.2949 15.8047L13.9316 15.8047C14.3691 15.8047 14.752 16.1875 14.752 16.625C14.752 17.0898 14.3691 17.4727 13.9316 17.4727ZM17.5 17.5957C16.8574 17.5957 16.4883 17.1855 16.4883 16.5566L16.4883 7.49219C16.4883 6.84961 16.8574 6.4668 17.4863 6.4668L19.7969 6.4668C21.9023 6.4668 23.2148 7.64258 23.2148 9.84375C23.2148 11.0742 22.75 12.2637 21.6562 12.8242L22.9414 15.8867C23.0781 16.2012 23.1602 16.4883 23.1602 16.625C23.1602 17.3223 22.668 17.5957 22.2168 17.5957C21.6836 17.5957 21.3828 17.2949 21.1777 16.7891L19.7832 13.2344L18.498 13.2344L18.498 16.5566C18.498 17.1992 18.1152 17.5957 17.5 17.5957ZM18.498 11.7715L19.6055 11.7715C20.7129 11.7715 21.2051 10.9785 21.2051 9.88477C21.2051 8.80469 20.6445 8.03906 19.6055 8.03906L18.498 8.03906Z" style="fill:var(--color-1,white)"></path>
 </g>
</svg>