<svg version="1.1" xmlns="http://www.w3.org/2000/svg" xmlns:xlink="http://www.w3.org/1999/xlink" viewBox="0 0 23.8438 28.6152">
 <g>
  
  <path d="M6.07031 28.5879L11.6074 28.5879C12.1816 28.5879 12.5234 28.2734 12.5234 27.7266C12.5234 27.1934 12.1816 26.8926 11.6074 26.8926L7.27344 26.8926L7.27344 26.8379L11.8125 21.3008C12.25 20.7676 12.3867 20.4395 12.3867 20.0566C12.3867 19.3867 11.9492 19.0176 11.2109 19.0176L5.72852 19.0176C5.14062 19.0176 4.8125 19.3457 4.8125 19.8789C4.8125 20.4258 5.14062 20.7266 5.72852 20.7266L10.1172 20.7266L10.1172 20.7812L5.37305 26.5234C5.03125 26.9336 4.93555 27.1523 4.93555 27.5488C4.93555 28.1504 5.37305 28.5879 6.07031 28.5879ZM15.9414 21L22.8457 21C23.4746 21 23.8438 20.6582 23.8438 20.0703C23.8438 19.4961 23.4746 19.168 22.8457 19.168L17.2266 19.168L17.2266 19.1133L23.0781 12.0586C23.543 11.498 23.6934 11.1836 23.6934 10.8008C23.6934 10.0625 23.2148 9.61133 22.3398 9.61133L15.6133 9.61133C14.9844 9.61133 14.6289 9.95312 14.6289 10.5273C14.6289 11.1152 14.9844 11.4434 15.6133 11.4434L21.2188 11.4434L21.2188 11.498L15.2031 18.7715C14.8477 19.1953 14.7109 19.4688 14.7109 19.8516C14.7109 20.5352 15.1895 21 15.9414 21ZM2.05078 13.6445L10.7461 13.6445C11.4023 13.6445 11.7715 13.2891 11.7715 12.6738C11.7715 12.0859 11.4023 11.7441 10.7461 11.7441L3.44531 11.7441L3.44531 11.6895L11.1016 2.46094C11.5391 1.92773 11.6484 1.62695 11.6484 1.2168C11.6484 0.464844 11.1289 0 10.2266 0L1.72266 0C1.08008 0 0.697266 0.341797 0.697266 0.943359C0.697266 1.54492 1.08008 1.90039 1.72266 1.90039L9.02344 1.90039L9.02344 1.94141L1.18945 11.416C0.875 11.7852 0.792969 12.0586 0.792969 12.4551C0.792969 13.166 1.28516 13.6445 2.05078 13.6445Z" style="fill:var(--color-0,hsl(0 0 0/0.85))"></path>
 </g>
</svg>